<?xml version="1.0" standalone="no"?>
<!DOCTYPE svg PUBLIC "-//W3C//DTD SVG 1.1//EN" "http://www.w3.org/Graphics/SVG/1.1/DTD/svg11.dtd" >
<svg xmlns="http://www.w3.org/2000/svg" xmlns:xlink="http://www.w3.org/1999/xlink" version="1.1">
<metadata>
Created by FontForge 20190801 at Mon Feb  8 12:12:16 2021
 By root
Copyright (c) 2011 TypeSETit, LLC (typesetit@att.net),with Reserved Font Name "Alex Brush"
</metadata>
<defs>
<font id="AlexBrush-Regular" horiz-adv-x="198" >
  <font-face 
    font-family="Alex Brush"
    font-weight="400"
    font-stretch="normal"
    units-per-em="1000"
    panose-1="2 0 4 0 0 0 0 0 0 0"
    ascent="800"
    descent="-200"
    x-height="297"
    cap-height="703"
    bbox="-442 -320 1875 1046"
    underline-thickness="20"
    underline-position="-143"
    unicode-range="U+0001-206F"
  />
<missing-glyph horiz-adv-x="364" 
d="M33 0v666h265v-666h-265zM66 33h199v600h-199v-600z" />
    <glyph glyph-name=".notdef" horiz-adv-x="364" 
d="M33 0v666h265v-666h-265zM66 33h199v600h-199v-600z" />
    <glyph glyph-name="uni0000" 
 />
    <glyph glyph-name="uni0000" 
 />
    <glyph glyph-name="uni000D" unicode="&#xd;" 
 />
    <glyph glyph-name="uni0001" 
 />
    <glyph glyph-name="uni0002" 
 />
    <glyph glyph-name="uni0003" 
 />
    <glyph glyph-name="uni0004" 
 />
    <glyph glyph-name="uni0005" 
 />
    <glyph glyph-name="uni0006" 
 />
    <glyph glyph-name="uni0007" 
 />
    <glyph glyph-name="uni0008" 
 />
    <glyph glyph-name="uni0009" unicode="&#x9;" 
 />
    <glyph glyph-name="uni000A" unicode="&#xa;" 
 />
    <glyph glyph-name="uni000B" 
 />
    <glyph glyph-name="uni000C" 
 />
    <glyph glyph-name="uni000E" 
 />
    <glyph glyph-name="uni000F" 
 />
    <glyph glyph-name="uni0010" 
 />
    <glyph glyph-name="uni0011" 
 />
    <glyph glyph-name="uni0012" 
 />
    <glyph glyph-name="uni0013" 
 />
    <glyph glyph-name="uni0014" 
 />
    <glyph glyph-name="uni0015" 
 />
    <glyph glyph-name="uni0016" 
 />
    <glyph glyph-name="uni0017" 
 />
    <glyph glyph-name="uni0018" 
 />
    <glyph glyph-name="uni0019" 
 />
    <glyph glyph-name="uni001A" 
 />
    <glyph glyph-name="uni001B" 
 />
    <glyph glyph-name="uni001C" 
 />
    <glyph glyph-name="uni001D" 
 />
    <glyph glyph-name="uni001E" 
 />
    <glyph glyph-name="uni001F" 
 />
    <glyph glyph-name="space" unicode=" " 
 />
    <glyph glyph-name="exclam" unicode="!" horiz-adv-x="259" 
d="M139 117q-7 0 -4 19q12 69 93 190.5t110 121.5q12 0 26.5 -4.5t14.5 -12.5q0 -3 -4 -7q-42 -44 -123.5 -151.5t-92 -131.5t-20.5 -24zM144 56.5q13 -9.5 13 -22.5t-12.5 -22.5t-27.5 -9.5t-27.5 11t-12.5 25q0 28 39 28q15 0 28 -9.5z" />
    <glyph glyph-name="quotedbl" unicode="&#x22;" horiz-adv-x="206" 
d="M206 438q0 -42 -32 -75.5t-43.5 -33.5t-11.5 2.5t21.5 27t21.5 39t-13.5 26.5t-13.5 18q0 30 30 30q15 0 28 -10t13 -24zM105 438q0 -42 -32.5 -75.5t-47.5 -33.5q-8 0 -8 3q4 5 10.5 12t12.5 14q21 23 21 38.5t-13.5 27.5t-13.5 18q0 30 29 30q15 0 28.5 -10t13.5 -24z
" />
    <glyph glyph-name="numbersign" unicode="#" horiz-adv-x="791" 
d="M577 474l166 4q35 0 35 -7.5t-23 -15.5q-56 -22 -99 -22h-94l-66 -175l144 1q50 0 50 -11q0 -8 -22 -15q-54 -19 -99 -19l-90 -1l-35 -96q-27 -79 -52 -79q-12 0 -12 16t5 38q18 45 45 121l-197 -1l-35 -95q-27 -79 -51 -79q-13 0 -13 17t6 37q21 48 49 120l-105 -1
q-94 0 -94 26q0 17 51 20l166 1q25 68 63 174q-102 -1 -105 -1q-80 0 -86 22q-8 20 49 24q22 0 158 -2l46 130q16 44 25 44t9 -27q-2 -59 -16 -98l-18 -49q156 -2 191 -2q64 171 82 174q10 2 10 -26q-3 -55 -19 -97zM316 432l-66 -174h196q11 32 62 175z" />
    <glyph glyph-name="dollar" unicode="$" horiz-adv-x="537" 
d="M184 220q65 0 125.5 24.5t89.5 72.5q11 19 11 32q0 22 -29 34.5t-93 24.5q-84 -112 -135 -187q10 -1 31 -1zM223 494q0 -29 52 -45q46 61 110 144q-86 -8 -132 -49q-30 -28 -30 -50zM143 208q-85 -128 -85 -166q0 -17 11 -22q4 -3 -2.5 -10t-16.5 -7q-15 0 -15 29.5
t19 82.5q10 26 55 98q-77 19 -96 79q-6 14 -6 30t10 34q18 31 46 31q6 0 6 -2q0 -4 -12 -11l-17 -12q-11 -11 -11 -31q0 -37 27 -65.5t62 -38.5q57 86 133 189q-67 18 -67 67q0 36 45 72q69 54 172 58q97 121 108 121t16.5 -5.5t5.5 -12t-8 -16.5q-33 -38 -75 -90
q83 -12 83 -65q0 -37 -39 -52q-23 -9 -38.5 -9t-15.5 8q0 4 14 5q52 3 52 39q0 47 -71 56q-53 -65 -120 -152q31 -4 93 -21q48 -19 48 -55t-33 -72t-68 -52q-74 -34 -168 -34q-16 0 -42 2z" />
    <glyph glyph-name="percent" unicode="%" horiz-adv-x="701" 
d="M645 705q4 2 10 2t12.5 -6.5t6.5 -13.5t-9 -18q-135 -155 -309.5 -389.5t-206.5 -318.5q-6 -18 -6 -34.5t7.5 -20.5t3.5 -11q-7 -10 -21 -10q-17 0 -17 33t23.5 98t191 295.5t275.5 353.5q-50 -24 -121.5 -45t-119.5 -23q1 -4 1 -9q0 -35 -67 -117q-79 -97 -135 -97h-16
q-26 0 -41 27q-12 19 -12 42q0 60 87.5 168.5t141.5 108.5q51 0 51 -54q0 -14 -5 -36q1 -2 10 -2t31 3q101 12 234 74zM588 163q0 -13 -23 -22q1 -4 1 -9q0 -35 -67 -117q-79 -97 -135 -97h-16q-26 0 -41 27q-12 19 -12 42q0 60 87.5 168.5t141.5 108.5q51 0 51 -54
q0 -14 -5 -36q0 -1 9 -3.5t9 -7.5zM301 640q-34 0 -96.5 -80t-62.5 -118t24 -38q43 0 109 78t66 112q-16 9 -40 46zM501 184q-34 0 -96.5 -80t-62.5 -118t24 -38q43 0 109 78t66 112q-16 9 -40 46z" />
    <glyph glyph-name="ampersand" unicode="&#x26;" horiz-adv-x="753" 
d="M390 445q56 0 56 -23q0 -6 -4 -10q-13 -22 -56.5 -22t-78.5 26q-54 -16 -126 -68q-112 -83 -112 -163q0 -89 121 -99q24 148 144 222q39 25 84 35.5t61.5 14t56 10t45.5 7.5q93 16 119.5 36t26.5 38q0 5 -1.5 11t2.5 7t9 -3q8 -11 8 -27t-20 -39q-30 -30 -83 -42
q-20 -5 -53.5 -11.5t-48.5 -10.5q19 -18 19 -54q0 -74 -88 -145q-97 -78 -260 -78q-1 -8 -1 -25q0 -70 46.5 -110.5t117.5 -40.5q25 0 43 16.5t18 37.5q0 7 -4 16t7.5 9t11.5 -26.5t-23 -47t-53 -20.5q-78 0 -130 43q-59 47 -59 123q0 17 1 26q-87 8 -132 44q-41 35 -41 77
q0 97 148 185q69 42 135 63q-28 31 -28 81q0 26 12 43q33 47 100 75q79 35 160 35q107 0 105 -67q-2 -29 -24.5 -50.5t-49.5 -21.5t-27 14q0 10 13 10l17 -3q14 0 27.5 17t13.5 34q0 27 -31 39q-20 7 -38 7q-84 0 -140 -35t-82 -78q-15 -25 -15 -52t12 -41q39 11 69 11z
M526 287q0 44 -38 44q-12 0 -49 -9q-193 -72 -225 -237q22 0 44 3q129 14 205 82q63 57 63 117zM416 419q0 9 -26.5 9t-56.5 -6q25 -16 54 -16t29 13z" />
    <glyph glyph-name="quotesingle" unicode="'" horiz-adv-x="130" 
d="M79 269q-6 0 -6 4t27 38.5t27 49.5t-13.5 27t-13.5 18q0 30 29 30q15 0 28.5 -9.5t13.5 -23.5q0 -43 -38 -88.5t-54 -45.5z" />
    <glyph glyph-name="parenleft" unicode="(" horiz-adv-x="375" 
d="M615 760q20 -3 20 -12.5t-25 -10.5q-175 -17 -324 -146q-109 -96 -171.5 -214t-62.5 -203.5t38.5 -131t110.5 -51.5q23 -2 23 -11q0 -14 -24 -14h-9q-80 8 -138 72.5t-58 167.5q0 80 41 170q59 129 217 242q176 127 362 142z" />
    <glyph glyph-name="parenright" unicode=")" horiz-adv-x="651" 
d="M30 -35q-21 3 -21 12.5t25 10.5q175 17 324 146q111 96 173 213.5t62 203.5q0 171 -150 183q-22 1 -22 11q0 14 23 14h9q80 -8 138 -72.5t58 -166.5q0 -80 -41 -171q-59 -129 -217 -242q-176 -127 -361 -142z" />
    <glyph glyph-name="asterisk" unicode="*" horiz-adv-x="352" 
d="M301 364q24 0 24 -7q0 -3 -10 -9.5t-28.5 -7.5t-26.5 -2q-26 -1 -44 -1l46 -62q19 -25 19 -30q0 -25 -89 72l-25 -84q-6 -15 -13 -15q-9 0 -9 25l14 76l-52 -39q-23 -16 -32.5 -16t-9.5 7t12 19l66 48h-63q-40 0 -40 13q0 9 22 12l89 4q-22 33 -37 54q-18 21 -18 30.5
t7 9.5t20 -12l51 -64l18 74q3 17 12 33q2 1 3 1q7 0 7 -25t-12 -87l58 40q24 17 27.5 17h3.5q8 -3 -3.5 -19t-65.5 -55h79z" />
    <glyph glyph-name="plus" unicode="+" horiz-adv-x="406" 
d="M235 437q11 0 11 -27.5t-15 -149.5h17h68.5t79.5 2q1 -2 1 -3q0 -14 -63 -26q-37 -5 -111 -17q-13 -49 -33 -99t-32 -50q-10 0 -15.5 11t-2.5 20l31 114q-152 0 -152 23q0 10 8.5 17t20.5 7t44 1h93q35 104 49 177h1z" />
    <glyph glyph-name="comma" unicode="," horiz-adv-x="194" 
d="M168 29q0 -42 -32 -75.5t-43.5 -33.5t-11.5 2t21.5 26.5t21.5 39.5t-13.5 27t-13.5 18q0 30 29 30q15 0 28.5 -10t13.5 -24z" />
    <glyph glyph-name="hyphen" unicode="-" horiz-adv-x="297" 
d="M105 260l97 -1q58 0 83 3q1 -1 1 -3q0 -15 -79 -29q-43 -6 -80.5 -12.5t-48 -6.5t-35 4.5t-24.5 19.5q0 10 8.5 17t14.5 7t12 1h26h25z" />
    <glyph glyph-name="period" unicode="." horiz-adv-x="226" 
d="M154.5 53q13.5 -10 13.5 -22.5t-12.5 -22t-27.5 -9.5t-27.5 10.5t-12.5 24.5q0 29 38 29q15 0 28.5 -10z" />
    <glyph glyph-name="slash" unicode="/" horiz-adv-x="604" 
d="M561 698q11 0 17.5 -6.5t6.5 -13.5t-9 -18q-135 -155 -309.5 -389.5t-206.5 -318.5q-6 -18 -6 -34.5t8 -20t3 -11.5q-7 -10 -21 -10q-17 0 -17 33t22 93q31 85 261 394q227 302 251 302z" />
    <glyph glyph-name="zero" unicode="0" horiz-adv-x="576" 
d="M628 615q-2 -14 -26 -4.5t-38.5 9.5h-16.5q31 -10 57 -35q56 -53 56 -132t-44 -161t-118 -147q-173 -154 -344 -154q-20 0 -38 3q-83 11 -83 117t78 233q48 80 135.5 155t176.5 115q-4 4 -4 8q0 12 33 12q10 0 24 -1q29 10 77 10q75 0 75 -28zM79 96q0 -76 49 -80
q10 -1 20 -1q135 0 297 142.5t162 303.5q0 76 -32 102q-49 38 -92 46q-93 -29 -196 -127q-76 -74 -126 -151q-82 -127 -82 -235z" />
    <glyph glyph-name="one" unicode="1" horiz-adv-x="349" 
d="M301 79q11 0 11 -11q0 -14 -15 -14q-67 0 -143 -24q-37 -13 -87.5 -33t-54 -20t-8.5 7.5t-5 21t9 16.5q27 12 101 37q125 229 251 457q-55 -34 -140 -66q-15 -6 -15 10q0 8 9 13q68 25 189 120l6 10q10 19 42 19t32 -15q0 -3 -3 -8l-322 -532q68 12 143 12z" />
    <glyph glyph-name="two" unicode="2" horiz-adv-x="648" 
d="M528 -11q38 0 73 15q44 18 44 53q0 40 -61 62q-8 3 -8 8q0 13 17 8q83 -24 83 -80q0 -47 -51 -75.5t-107.5 -28.5t-140.5 29l-139 50q-47 14 -75 14q-36 -17 -118 -46q-12 -3 -21 -3q-24 0 -24 18q0 22 26 42q38 25 111 25q17 0 34 -1q234 141 304 196t104 97
q47 56 57 120q2 12 2 17q0 54 -67 54t-161.5 -43t-148.5 -91q-4 -4 -9 -4q-10 0 -10 12q0 7 6 12q69 59 183.5 110t201.5 51t87 -71q0 -78 -93 -172q-40 -42 -142 -122.5t-288 -177.5q43 -5 153 -41.5t178 -36.5z" />
    <glyph glyph-name="three" unicode="3" horiz-adv-x="718" 
d="M652 612q94 0 94 -84v-7q-5 -87 -179 -141q151 -16 151 -106q0 -15 -4 -28q-30 -118 -177 -192q-129 -64 -282 -64q-98 0 -160.5 31t-62.5 89q0 31 22 71t90.5 69t114.5 29q12 0 12 -8q0 -10 -14 -10q-33 0 -85.5 -32.5t-62.5 -67.5q-5 -20 -5 -34q0 -87 119 -108
q31 -6 63 -6q87 0 178 42q140 65 189 187q7 17 7 34q0 40 -42 58t-100 18t-97 -15q-9 -4 -19 -4q-18 0 -18 17q0 12 8.5 21t20.5 9q86 0 161 29q96 38 108 107q1 5 1 13q0 43 -53.5 43t-121.5 -25.5t-115 -55.5q-5 -3 -7 -3q-7 0 -7 13q0 30 19 34q23 7 73 54q6 6 11 4
t5 -7.5t-4.5 -9.5t-9.5 -10q107 46 179 46z" />
    <glyph glyph-name="four" unicode="4" horiz-adv-x="568" 
d="M406 204q70 -24 108 -24t61 17q29 24 29 58q0 11 -3 23.5t7 12.5t15 -10q19 -34 19 -61q0 -68 -122 -68q-52 0 -130 24q-38 -71 -48 -154q-1 -12 -1 -33t12 -43q2 -6 2 -9q0 -18 -16 -18q-11 0 -16 6q-14 30 -14 72q0 76 45 189q-77 22 -134.5 22t-178.5 -50
q-12 -4 -20 6t-8 25q0 26 22 33q15 6 56 14q54 29 164.5 108t140.5 99q192 121 228 175l9 14q5 7 17 7q34 0 34 -19q0 -1 -178 -257q-58 -86 -100 -159zM231 251q53 0 137 -32q44 96 165 269l23 34q-63 -39 -202.5 -139t-191.5 -137q41 5 69 5z" />
    <glyph glyph-name="five" unicode="5" horiz-adv-x="662" 
d="M748 567q-30 -13 -73 -13t-127 13t-143.5 13t-96.5 -28q-8 -6 -10 9q-2 10 0 26.5t9 21.5q23 17 45 19.5t64.5 2.5t135.5 -26t125.5 -26t62 14.5t29.5 38.5q0 15 12 15t12 -26q0 -35 -45 -54zM138 -8q-72 0 -121.5 26t-49.5 75.5t65 111.5q10 10 18 10t8 -7.5t-10 -17.5
q-36 -34 -36 -73t46 -67t108 -28q119 0 243.5 86.5t147.5 198.5q2 14 2 20q0 50 -62 76q-43 15 -90 15q-69 0 -129 -29l-105 -51q-2 -1 -6 -1q-9 0 -9 13.5t13 19.5l118 149q9 11 37 11t28 -6q0 -2 -2 -4l-116 -126q128 51 183 51q214 0 214 -106q0 -17 -6 -36
q-41 -129 -181 -217q-150 -94 -308 -94z" />
    <glyph glyph-name="six" unicode="6" horiz-adv-x="612" 
d="M599 601l92 5q22 0 38 -10t16 -22.5t-11 -14.5q-154 -30 -363 -132q-96 -46 -182 -135q-104 -106 -104 -194q0 -91 125 -91q69 0 176 32q49 15 99 54.5t50 83.5q0 35 -46 35q-71 0 -150.5 -45.5t-92.5 -118.5q-3 -19 -17 -19q-12 0 -9 17q16 92 102 146q88 55 180 55
t92 -68q0 -53 -62 -103q-50 -38 -111 -57q-125 -38 -209 -38t-123 33.5t-39 86.5q0 86 82.5 190t208.5 172q155 84 253 117q-16 4 -19.5 5.5t-2.5 5.5q2 4 11.5 7.5t15.5 2.5z" />
    <glyph glyph-name="seven" unicode="7" horiz-adv-x="494" 
d="M149 14q0 -7 2 -17q1 -12 -12 -12q-16 0 -17 18q-1 5 -1 17q0 106 134.5 258t322.5 300q-160 22 -229 22t-112 -18q-57 -25 -79 -91q-8 -20 -23.5 -20t-21 6.5t-5.5 11.5q0 9 4 22l18 36q10 21 10 36q0 31 10 29q8 -6 8 -31q70 63 188 63q51 0 133.5 -19.5t125.5 -25.5
l51 38q3 2 9.5 2t19.5 -13.5t13 -20t-5 -9.5q-240 -174 -405 -337q-49 -49 -94 -121.5t-45 -123.5z" />
    <glyph glyph-name="eight" unicode="8" horiz-adv-x="608" 
d="M515 370q73 -46 73 -108t-77 -127t-184.5 -109t-192 -44t-112.5 33q-21 24 -21 57q0 60 61 125q114 124 269 204q-62 38 -62 73q0 11 4 20q22 60 96.5 98t139.5 38t100 -20q27 -16 27 -40t-18 -49l84 27q8 2 12 -2t4 -10q0 -19 -29 -26q-118 -26 -266 -95q60 -25 92 -45z
M587 586q-39 14 -80 14q-71 0 -123 -32t-52 -70q0 -42 62 -70q71 34 191 82q21 41 21 55t-19 21zM56 66q0 -65 81 -65q65 0 155 37q239 98 239 200q0 60 -86 104l-86 44q-88 -50 -182 -135q-121 -111 -121 -185z" />
    <glyph glyph-name="nine" unicode="9" horiz-adv-x="440" 
d="M134 313q-59 0 -59 48q0 85 107 153q86 54 203.5 83t195.5 29h16q7 0 6 -9.5t-10 -22t-22.5 -11.5t-33.5 1q-124 0 -255 -58q-156 -69 -161 -153q-2 -33 32 -33q67 0 220 98q99 63 188 135q4 4 18 4q42 0 42 -21q0 -8 -9 -15q-52 -44 -110 -97q-340 -314 -340 -535
q0 -39 15 -44q15 -6 5 -13q-4 -4 -10.5 -4h-10.5q-41 5 -41 61q0 106 102.5 264.5t231.5 284.5q-209 -145 -320 -145z" />
    <glyph glyph-name="colon" unicode=":" horiz-adv-x="226" 
d="M194.5 247q13.5 -10 13.5 -22.5t-12.5 -22t-27.5 -9.5t-27.5 10.5t-12.5 24.5q0 29 38 29q15 0 28.5 -10zM154.5 53q13.5 -10 13.5 -22.5t-12.5 -22t-27.5 -9.5t-27.5 10.5t-12.5 24.5q0 29 38 29q15 0 28.5 -10z" />
    <glyph glyph-name="semicolon" unicode=";" horiz-adv-x="226" 
d="M194.5 247q13.5 -10 13.5 -22.5t-12.5 -22t-27.5 -9.5t-27.5 10.5t-12.5 24.5q0 29 38 29q15 0 28.5 -10zM168 29q0 -42 -32 -75.5t-43.5 -33.5t-11.5 2t21.5 26.5t21.5 39.5t-13.5 27t-13.5 18q0 30 29 30q15 0 28.5 -10t13.5 -24z" />
    <glyph glyph-name="less" unicode="&#x3c;" horiz-adv-x="318" 
d="M85 256q0 14 52 85l66 90q8 11 17 11t9 -6q0 -15 -99 -153q97 -124 97 -135.5t-10 -11.5l-8 4q-34 48 -121 110q-3 2 -3 6z" />
    <glyph glyph-name="equal" unicode="=" horiz-adv-x="406" 
d="M195 381l131 -1q63 0 103 2q1 -1 1 -3q0 -14 -79 -28l-111 -18q-7 -2 -30 -2t-90.5 4.5t-67.5 19.5q0 11 8.5 17.5t15.5 6.5h14q54 2 105 2zM210 260l104 -1q57 0 82 3q1 -2 1 -4.5t-7 -7.5q-17 -10 -65.5 -18t-88 -14.5t-63 -6.5t-66.5 3q-88 6 -88 21q0 10 8.5 17
t15.5 7h15l25 1h80h47z" />
    <glyph glyph-name="greater" unicode="&#x3e;" horiz-adv-x="318" 
d="M229 315q0 -20 -119 -175q-8 -11 -16.5 -11t-8.5 6q0 15 99 153q-98 125 -98 136t11 11l8 -4q36 -48 121 -110q3 -1 3 -6z" />
    <glyph glyph-name="question" unicode="?" horiz-adv-x="401" 
d="M166 129q-9 -16 -15.5 -16t-6.5 8.5t2 14.5q26 53 88 93q90 58 110 75q43 39 43 71t-36.5 52t-92 20t-101 -26t-51.5 -76q-2 -13 10.5 -24.5t36 -11.5t52.5 30q3 3 6 3t3 -6.5t-5 -11.5q-31 -34 -71 -34q-25 0 -40.5 15.5t-15.5 36.5v5q6 67 65.5 104t122.5 37
q166 0 166 -95q0 -61 -54 -103q-12 -9 -120 -72q-70 -40 -96 -89zM153.5 48.5q13.5 -9.5 13.5 -22t-13 -22t-28 -9.5t-27 10.5t-12 24.5q0 28 38 28q15 0 28.5 -9.5z" />
    <glyph glyph-name="at" unicode="@" horiz-adv-x="842" 
d="M802 439q0 -125 -128 -238q-196 -175 -441 -175q-27 0 -42 1q-79 5 -128 53t-49 124.5t41 166.5q52 113 205 222q172 123 358 123q99 0 151 -37.5t52 -96.5q0 -35 -13.5 -62t-12.5 -28q7 -24 7 -53zM514 483l14 3q11 0 20.5 -9t10 -16t-19.5 -36.5t-64 -91.5
q-39 -64 -39 -92.5t24 -28.5q35 0 122 79.5t158 165.5v2q-7 54 -50 93q-69 61 -167 61q-66 2 -76 5q-1 3 1 4q47 16 90 16t96 -13q102 -24 145 -97q3 -4 4 0q8 24 8 50.5t-22 57.5q-42 60 -156.5 60t-244.5 -76t-215 -193.5t-85 -244.5t133 -134q15 -1 30 -1q197 0 373 157
q122 110 137 208q-2 2 -4 2l-122 -135q-92 -89 -151 -89q-15 0 -26 4q-44 17 -44 66q0 8 2 26q-2 2 -4 2q-110 -105 -143 -105q-25 0 -47 16q-29 18 -29 53q0 73 102.5 172.5t186.5 99.5q38 0 46 -29l2 -6v-2q2 -4 4 -4zM215 239q0 -34 25 -34q50 0 139 102q22 24 73.5 95.5
l51.5 71.5l-1 1q-7 12 -24 12q-63 0 -163.5 -93.5t-100.5 -154.5z" />
    <glyph glyph-name="A" unicode="A" horiz-adv-x="1020" 
d="M946 286l97 2q36 0 36 -5q0 -13 -146 -23q-93 -182 -93 -248q0 -46 29 -46q11 0 27.5 13.5t20 13.5t3.5 -5q-5 -18 -30.5 -30t-43 -12t-27.5 2q-24 9 -24 58q0 101 77 257l-120 -3q-134 -131 -269 -230q-202 -147 -316 -147q-7 0 -14 1q-154 13 -154 158q0 86 54 182
q72 128 197 218.5t224 90.5t99 -73q0 -49 -30 -109t-61 -76q-3 -1 -6.5 -1t-3.5 2l33 54q34 53 34 93t-17.5 64.5t-55.5 24.5q-78 0 -186.5 -87t-165 -214t-56.5 -198q0 -107 109 -107q104 0 282 134q79 59 257 223q-35 -2 -65 -7q-64 -12 -60 4q4 37 38 37q66 -8 111 -8
q86 79 257 259q115 121 140 121q11 0 11 -17t-9 -53t-20 -44q-23 -16 -43 -43.5t-57 -103t-63 -122.5zM1026 530l-256 -240h59q21 -1 52 -1q29 57 145 241z" />
    <glyph glyph-name="B" unicode="B" horiz-adv-x="819" 
d="M770 189q0 -36 -16 -68q-34 -72 -130 -120t-200 -48q-158 0 -215 108q-103 -86 -147 -86q-8 0 -14 3q-30 16 -30 69t44 130t77 91q15 5 23 5q29 0 44 -48l30 -96q29 31 79 99l89 120q164 213 215 233q18 7 37 7t31.5 -8t12.5 -20q0 -18 -29 -21q-30 -17 -114.5 -99.5
t-100.5 -104.5q-112 -156 -207 -240q61 -121 183 -121q74 0 147 46.5t109 114.5q16 29 16 65t-28.5 68.5t-71.5 47.5q-20 3 -64 8.5t-44 18.5q0 5 4 9q12 14 31 14q11 0 21.5 -4t16.5 -6t14 -5q22 -2 38 -2q66 0 120 21q69 27 88 81q12 35 12 63q0 69 -67 103
q-58 30 -159 30q-159 0 -285 -60q-64 -30 -121.5 -89t-57.5 -101q0 -29 15 -48q6 -8 21 -20q5 -3 -6 -3q-62 14 -62 83t70 130q52 45 117 73q135 58 307 58q123 0 196 -36q85 -40 85 -121q0 -32 -13 -65q-21 -60 -109 -91q-66 -23 -142 -24q59 -3 99.5 -43.5t40.5 -100.5z
M131 226q-1 0 -5 -2q-74 -107 -74 -172q0 -27 13 -49q3 -5 10 -5q32 0 123 91l-3 4q-40 133 -64 133z" />
    <glyph glyph-name="C" unicode="C" horiz-adv-x="726" 
d="M541 278q-60 0 -101 27.5t-41 69.5q0 53 69 106q12 9 18 9t6 -4q0 -10 -16 -16q-56 -45 -56 -91q0 -33 30 -55.5t75 -22.5q98 0 185 94q45 49 45 113t-48 95q-40 28 -108 28q-98 0 -197 -49q-122 -59 -220.5 -183.5t-98.5 -239.5q0 -91 62 -140.5t154 -49.5q105 0 206 51
q77 40 133 102q16 18 25 18q6 0 6 -10.5t-11 -21.5q-53 -56 -153 -108q-123 -65 -247.5 -65t-185.5 82q-41 54 -41 129q0 33 8 71q27 128 142 249q83 87 197 135.5t216 48.5q54 0 94 -13q109 -34 109 -137q0 -63 -37 -109q-92 -113 -219 -113z" />
    <glyph glyph-name="D" unicode="D" horiz-adv-x="921" 
d="M187 25q-88 -68 -129 -68q-22 0 -32.5 21.5t-10.5 46.5q0 48 40.5 144t77.5 96q19 0 32.5 -75t27.5 -109q68 72 197 240q162 213 215 233q18 7 37 7t31.5 -8t12.5 -20q0 -17 -29 -20q-35 -19 -108 -92q-73 -71 -117 -133q-107 -149 -220 -243q56 -83 176 -83q13 0 39 2
q278 26 394 241q47 86 47 170t-61 151q-49 55 -106.5 68t-117.5 13q-154 0 -284 -71q-137 -75 -137 -168q0 -25 13.5 -41t18.5 -18h-6q-26 5 -46 26q-22 26 -22 55q0 100 125.5 172t294.5 72q78 0 160 -18t149 -86q77 -80 77 -181q0 -75 -44 -155q-76 -138 -227 -202
q-121 -51 -261 -51t-207 84zM51 29q0 -31 12 -54q43 19 104 79q-29 48 -36.5 75.5t-10.5 72.5q-69 -99 -69 -173zM194 309q1 0 2 1q0 -2 -0.5 -2t-1.5 1z" />
    <glyph glyph-name="E" unicode="E" horiz-adv-x="691" 
d="M504 407q98 0 98 -37q0 -8 -6 -18q-24 -37 -87 -37q-41 0 -84 14.5t-65 30.5q-93 -27 -165.5 -83t-108.5 -127q-19 -38 -19 -74q0 -56 46.5 -91t136.5 -35q25 0 52 3q159 17 253 102q79 70 79 147q0 61 -59 61q-71 0 -163 -76q-23 -19 -39 -48t-16 -57t28 -35
q10 -4 10 -10q0 -10 -20 -8q-48 1 -48 63t63 116q86 74 182 74q72 0 91 -45q8 -21 8 -42q0 -93 -103 -175q-123 -100 -312 -100q-117 0 -185 43.5t-68 113.5q0 41 26 82q92 146 314 217q-33 38 -33 81t21 72q41 56 123 92q98 43 196 43q57 0 91.5 -18.5t34.5 -57t-28.5 -65
t-59.5 -26.5t-31 15q0 9 13 9l20 -3q20 0 36.5 21.5t16.5 44.5q0 34 -39 50q-25 10 -47 10t-31 -1q-86 -5 -168 -60q-96 -63 -96 -142q0 -29 20 -54q64 20 122 20zM399 371q43 -34 99 -34t56 31q0 14 -50 14t-105 -11z" />
    <glyph glyph-name="F" unicode="F" horiz-adv-x="632" 
d="M528 251q97 -3 102.5 -3h6.5q24 2 24 -7q0 -14 -39 -14l-85 2q-26 -2 -31 -5q-42 -52 -113 -150.5t-71 -117.5q0 -8 18 4q11 0 11 -3q0 -5 -22 -15l-28 -15q-19 -16 -43.5 -16t-22.5 12q1 24 71 121.5t145 185.5q-72 -13 -110 -13q-4 1 -4 6.5t12 15.5t25.5 10t43.5 1h51
q34 46 151 212q48 69 48 114q0 70 -104 70q-81 0 -190.5 -45t-201.5 -123q-65 -54 -103 -117t-38 -112q0 -79 94 -79q8 0 17 1q61 5 115.5 69.5t54.5 108.5q0 4 -1 9q26 -5 26 -31q0 -43 -56 -101q-76 -79 -176 -79q-55 0 -86 29t-31 79q0 118 144 238q104 85 221 128.5
t203.5 43.5t129 -25t42.5 -69.5t-39 -100.5q-23 -37 -161 -219z" />
    <glyph glyph-name="G" unicode="G" horiz-adv-x="828" 
d="M548 487l-2 -32q0 -65 70 -65q58 0 117 40t59 81t-48 69q-32 19 -100 19q-101 0 -225.5 -48t-233.5 -154q-143 -140 -143 -257q0 -69 52.5 -111t137.5 -42q118 0 274 89q130 73 195 155l29 43q-18 0 -149 -10.5t-150 -15t-31 -4.5q-33 0 -33 16q0 25 76 41.5t257 16.5
t239 -14q9 -2 9 -5q0 -11 -69 -16q-86 -7 -88 -7q-102 -134 -264 -414q-9 -16 -17.5 -16t-8.5 13q0 35 56 135l70 131q-64 -55 -163 -103q-129 -61 -243.5 -61t-175 49.5t-60.5 132.5q0 153 185 311q93 80 225 133t231.5 53t152.5 -39q41 -32 41 -72q0 -57 -70.5 -109.5
t-139.5 -52.5q-93 0 -93 107q0 41 17 41q14 0 14 -28z" />
    <glyph glyph-name="H" unicode="H" horiz-adv-x="951" 
d="M283 -46q0 28 115 217q-82 0 -109 -7q-45 -11 -67 -45q-8 -11 -13.5 -12t-5.5 4.5t4 9.5q38 51 75 70t117 19h24q61 93 171 276q41 77 41 125q0 77 -94 78h-11q-128 0 -233 -64t-166 -159t-61 -171q0 -93 87 -93q69 0 118 61t49 116q0 31 -16 51q-2 2 -2 5q0 7 8 7
q4 0 6 -3q20 -26 20 -62q0 -61 -50 -124.5t-105 -70.5q-17 -3 -33 -3q-64 0 -99 41q-34 37 -34 100q0 26 6 53q30 135 173.5 236t322.5 101q69 0 118.5 -29.5t49.5 -82.5t-37 -112l-181 -278q32 -1 114.5 -9.5t124 -8.5t55.5 1l38 63q97 163 224.5 304.5t222.5 175.5
q3 1 6 1q7 0 7 -8q0 -3 -3 -5q-64 -36 -183.5 -174.5t-206.5 -284.5l-39 -66q46 6 66 23q4 3 7 -3.5t-1 -9.5q-30 -23 -85 -33q-70 -130 -70 -183q0 -34 29 -34q20 0 46.5 13.5t35.5 23t11 9.5t1 -6.5t-4 -10.5q-17 -16 -51 -34t-55 -18t-31 7q-32 21 -32 73t53 152
q-37 -3 -69 -3q-11 0 -235 7q-71 -112 -114 -204q-13 -27 -31.5 -27t-18.5 15z" />
    <glyph glyph-name="I" unicode="I" horiz-adv-x="576" 
d="M714 396l-7 27q0 8 8 8q3 0 8 -3q23 -17 23 -45t-36 -54.5t-91 -26.5q-17 0 -34 3q-69 -127 -168 -234q-132 -140 -240 -140q-156 0 -156 184q0 152 81 245q68 80 156 80q23 0 47 -8q59 -23 59 -97.5t-61 -155.5t-125 -81q-72 0 -72 78q0 22 9.5 46t21.5 24q9 0 9 -9
q0 -5 -9 -25t-9 -35.5t16.5 -29t34.5 -13.5q59 0 109.5 72.5t50.5 141.5q0 53 -38 70q-13 5 -27 5q-71 0 -142 -98q-69 -99 -69 -217q0 -65 28 -106q29 -42 80 -42q132 0 344 359q-110 33 -110 130q0 129 131 206q83 48 161 48q61 0 110 -20q69 -27 69 -82q0 -12 -5.5 -23
t-11.5 -11q-13 13 -31 13q-85 0 -233 -253q8 -1 17 -1q34 0 68 20t34 50zM603.5 645.5q-66.5 -29.5 -106 -86.5t-39.5 -129t74 -86q55 90 142 179.5t145 89.5q15 0 26 -7q-1 28 -39 49q-34 20 -85 20t-117.5 -29.5z" />
    <glyph glyph-name="J" unicode="J" horiz-adv-x="822" 
d="M684 477q0 -8 -20.5 -8t-41 20.5t-20.5 50t18 53.5q38 52 127 74q64 16 128 16h8q9 0 49 -3q-2 13 10.5 24.5t28.5 11.5q30 0 29 -43q108 -19 114 -58q1 -9 1 -15q0 -20 -11.5 -20t-7.5 24q-25 37 -99 52q-18 -81 -188 -352q-113 -178 -263 -298q-172 -136 -324 -136
q-93 0 -138 47t-45 104.5t22 98.5q53 102 153 159q74 43 137 43q68 0 106.5 -33t38.5 -83q0 -54 -40 -98q-25 -28 -40 -28q-4 0 -4 3.5t3 9.5q36 53 36 98.5t-25 74.5q-29 31 -78.5 31t-110.5 -40q-75 -49 -123 -147q-25 -49 -25 -101.5t39 -85t105 -32.5q254 0 531 446
q166 266 170 326q-60 3 -63 3q-47 0 -120.5 -26t-95.5 -64q-9 -15 -9 -33t19 -40t19 -26z" />
    <glyph glyph-name="K" unicode="K" horiz-adv-x="936" 
d="M832 697q21 0 21 -15q0 -61 -168 -349q7 -27 22 -63l298 227q171 130 231 167q134 80 263 80q37 0 68 -12q19 -7 19 -26t-10 -19q-6 0 -12.5 8t-38 8t-102.5 -16q-112 -25 -254 -112q-89 -55 -238 -169t-215 -157q51 -107 131 -199q123 -143 221 -143q48 0 48 37
q0 7 -1.5 14t3.5 17t12 10q13 0 17 -31q1 -5 1 -10q0 -32 -32.5 -52.5t-77 -20.5t-74.5 14q-79 39 -159.5 137t-123.5 206q-55 -32 -91 -35q-67 -87 -165 -169q-53 -45 -115 -72.5t-119 -27.5q-81 0 -125 40.5t-44 123.5q0 41 16 76q51 113 154 156q57 25 113.5 25t75.5 -37
q7 -13 7 -27.5t-4 -18.5t-11 7q-24 44 -51 49q-18 2 -26 2q-78 0 -146 -65q-88 -85 -88 -184q0 -108 122 -122h8q44 0 113 39q112 64 239 220q-23 21 -23 62t30.5 77.5t83.5 36.5q15 0 28 -3q50 84 97 181.5t47 112.5q0 2 -6 2t-69.5 -31.5t-90.5 -49.5t-66 -56.5t-39 -62.5
q0 -11 15.5 -22t56.5 -11q5 -2 5 -5.5t-27.5 -8t-43.5 -4.5q-36 0 -36 30q0 35 43 84t94 77q149 80 189 80zM673 249q-8 20 -13 40q-20 -29 -40 -57q10 0 18 1.5t35 15.5zM635 335q-12 5 -26.5 5t-29 -18t-14.5 -38.5t11 -34.5q49 70 59 86z" />
    <glyph glyph-name="L" unicode="L" horiz-adv-x="658" 
d="M859 592q0 -79 -77 -186q-60 -84 -159.5 -135t-183.5 -51q-31 0 -52 7q-42 -54 -135 -169q35 -50 126.5 -94t157.5 -44t98 18q44 23 44 66q0 11 -2 21t6.5 10t15 -14.5t6.5 -25.5q0 -35 -37 -66q-47 -38 -128 -38t-168 38t-143 103q-80 -80 -152 -80q-22 0 -38 8
q-35 20 -35 76t46.5 138t73.5 87q18 0 41 -41l63 -122q53 70 111 153q-82 37 -82 107q0 58 47 94q26 19 55.5 19t44.5 -31q3 -6 0.5 -7.5t-3.5 -0.5q-20 20 -43 20h-2q-29 0 -50.5 -31t-21.5 -57v-6q0 -52 72 -89q12 17 38.5 56.5t41.5 61.5q199 292 331 292q93 0 93 -87z
M770 662q-50 0 -124 -84q-51 -59 -119.5 -158.5t-123.5 -170.5q13 -3 29 -3q70 0 160 48t142 121q91 127 91 193q0 40 -35 51q-9 3 -20 3zM202 65q-24 33 -50 84.5t-34.5 61.5t-11.5 10h-4q-18 -3 -39 -64t-21 -119.5t36 -58.5q26 0 62.5 27t61.5 59z" />
    <glyph glyph-name="M" unicode="M" horiz-adv-x="1136" 
d="M423 41q-24 -37 -24 -48t9 -16q0 -1 -18 -15q-16 -8 -36 -8t-29 4.5t-6 14.5q14 45 105 180.5t122 191.5q67 121 67 193q0 30 -10 51q-20 41 -95 41q-117 0 -242 -101q-100 -81 -153 -171.5t-53 -161.5q0 -102 90 -104h8q115 0 178 83q24 33 24 56t-10 29q-1 1 -1 4t6 3
q26 0 26 -34q0 -21 -20.5 -57t-72.5 -68t-121 -32t-110 43t-41 113q0 158 206 323q53 42 139.5 69t165.5 27t107.5 -27.5t28.5 -73.5q0 -70 -57 -189q-18 -37 -81 -135l77 98q56 73 194 208q30 29 66.5 48.5t62.5 19.5q36 0 36 -38q0 -33 -31.5 -99.5t-63.5 -126t-39 -78
t-10 -29.5t-4 -12q3 5 66 76.5t186 178.5l160 132q19 16 34 16t24.5 -25t9.5 -40.5t-48 -64.5q-125 -128 -212 -280t-87 -217q0 -17 6 -23.5t19 -4t54.5 20.5t54.5 21q5 -2 5 -5q0 -15 -52.5 -42t-79 -27t-32.5 9q-18 26 -18 63q0 86 92 247q59 101 182 272
q-96 -78 -260 -239t-215 -252q-26 -47 -63 -47q-17 0 -17 12q0 4 20.5 36t90.5 150q172 299 172 360q0 16 -11 16q-16 0 -47 -27q-111 -93 -236 -243t-188 -249z" />
    <glyph glyph-name="N" unicode="N" horiz-adv-x="925" 
d="M402 12q-24 -37 -24 -48.5t9 -15.5q0 -2 -16.5 -12.5t-45.5 -10.5t-29 15q0 26 98.5 172.5t129.5 202.5q68 122 68 193q0 28 -11 52q-17 36 -82 36q-119 0 -253 -109q-102 -84 -157 -174q-50 -85 -50 -152q0 -96 89 -98h8q118 0 179 83q24 33 24 56t-11 29q-1 1 -1 4t6 3
q26 0 26 -34q0 -21 -20 -57t-72.5 -68t-119.5 -32t-106 39t-39 105q0 156 214 328q54 43 140.5 72t157 29t99.5 -26.5t29 -73.5q0 -114 -138 -323q31 39 101 99q249 209 428 275q9 4 20 4q38 0 48 -43q5 -17 -48 -71q-125 -128 -212 -280t-87 -218q0 -16 6 -22.5t19 -4
t54.5 20.5t54.5 21q5 -2 5 -5q0 -15 -52.5 -42t-78.5 -27t-33 9q-18 25 -18 63q0 86 92 247q59 101 182 272q-133 -12 -344 -210q-168 -159 -239 -273z" />
    <glyph glyph-name="O" unicode="O" horiz-adv-x="784" 
d="M812 356q0 -125 -128 -239q-197 -176 -441 -176q-27 0 -42 1q-80 4 -128.5 52.5t-48.5 125.5t41 168q52 115 203 224q174 124 360 124q100 0 152 -39t52 -97q0 -36 -28 -89q8 -27 8 -55zM791 441q10 24 10 53.5t-22 60.5q-43 60 -152 60q-151 0 -285 -93.5t-209 -235.5
q-55 -103 -55 -185q0 -132 133 -139q14 -1 28 -1q197 0 375 159q128 114 138 217q-52 -57 -180 -136l-8 -2q-1 0 -1 1q0 4 27 27l56 46q72 63 105 103q-7 56 -50.5 93.5t-99.5 54.5q-28 7 -86.5 9t-58.5 4t2 4q46 15 88.5 15t97.5 -13q105 -25 147 -102z" />
    <glyph glyph-name="P" unicode="P" horiz-adv-x="1057" 
d="M1196 447q0 -51 -51 -112t-154.5 -99t-201 -38t-154.5 25q-126 -185 -164 -223q-108 -108 -258 -108q-85 0 -127.5 39.5t-42.5 102.5q0 87 70 164q77 85 194 85q48 0 81 -22t33 -67q0 -30 -34 -72t-42 -42q-2 0 -2 4t3 8q32 47 32 86.5t-24.5 61t-60.5 21.5
q-84 0 -148.5 -76.5t-64.5 -154.5q0 -50 31.5 -81t97.5 -31q123 0 211 83q51 48 103 140l87 157q64 103 149 306h-18q-135 0 -271 -29.5t-206 -84.5q-30 -23 -30 -45t23.5 -35.5t55.5 -13.5t79.5 12.5t71.5 33.5q10 8 14 8q8 0 3 -8q-36 -42 -109 -63q-45 -13 -89 -13
t-72 19.5t-28 53t36 67.5q68 66 243 98q124 22 285 22h27q22 19 40 19t18 -14q0 -3 -1 -7q155 -11 251 -52q114 -48 114 -125zM1149 457q0 63 -102 103q-89 35 -223 42l-32 -100q-38 -94 -146 -262q10 -5 34 -11q40 -7 62 -7q76 0 175 31.5t165.5 92t66.5 111.5z" />
    <glyph glyph-name="Q" unicode="Q" horiz-adv-x="797" 
d="M97 -82q-11 0 -11 38q0 14 2 25q-64 49 -64 144q0 72 41 163q52 115 203 224q174 124 360 124q100 0 152 -39t52 -97q0 -36 -28 -89q8 -27 8 -55q0 -125 -128 -239q-114 -102 -241 -144q203 -146 274 -146q16 0 29 8.5t13 20t-7 21.5q-3 7 -3 11q0 14 17.5 -5t17.5 -40
t-20 -35t-52 -14q-104 0 -331 161q-62 -14 -139 -14t-124 22q-14 -45 -21 -45zM791 441q10 24 10 53.5t-22 60.5q-43 60 -152 60q-151 0 -285 -93.5t-209 -235.5q-55 -103 -55 -185q0 -52 22 -84q11 27 27 49q25 36 65 36t81 -23q54 -29 138 -84q107 40 203 125
q127 112 138 217q-52 -57 -180 -136l-8 -2q-1 0 -1 1q0 4 27 27l56 46q72 63 105 103q-7 56 -50.5 93.5t-99.5 54.5q-28 7 -86.5 9t-58.5 4t2 4q46 15 88.5 15t97.5 -13q105 -25 147 -102zM350 -24q-115 70 -157 70t-57 -32l-10 -24q34 -27 85 -28h20q58 0 119 14z" />
    <glyph glyph-name="R" unicode="R" horiz-adv-x="752" 
d="M572 270q-50 0 -93 8q14 -44 59 -199q14 -45 44 -91q41 -59 76 -59q42 0 70 85q5 20 10.5 20t8 -11.5t2.5 -15.5q0 -25 -28 -64q-37 -55 -81 -55t-81 44t-72.5 160.5t-35.5 148.5q0 5 1 8q-120 -159 -172 -210q-116 -113 -237 -113q-85 0 -85 64q0 32 20 70.5t49 67.5
t51 29q4 0 4 -2q0 -5 -25 -25t-48 -56.5t-23 -66.5q0 -53 71 -53q133 0 366 312q13 17 22 24l-16 6q-13 -5 -21 -5q-21 0 -21 17q0 23 31 30q4 1 7 1q18 0 42 -18q88 98 90 100q73 75 98.5 75t25.5 -22q0 -10 -4.5 -19t-10.5 -9q-6 -2 -6 6q0 4 6 12q1 14 -9 14
q-32 0 -155 -170q30 -2 50 -2q232 0 290 120q12 26 12 48q0 44 -40 76q-64 52 -208 52t-294 -73q-182 -89 -182 -209q0 -39 49 -39t104 36t74 71q7 13 13.5 13t3.5 -8q-19 -56 -84.5 -95.5t-136.5 -39.5t-71 45v7q15 131 160.5 222.5t350.5 91.5q191 0 271 -66
q48 -40 48 -94q0 -23 -11 -50q-31 -73 -127 -108.5t-202 -35.5z" />
    <glyph glyph-name="S" unicode="S" horiz-adv-x="748" 
d="M791 428q-37 -15 -63.5 -15t-26.5 11q0 7 29.5 8t42.5 7q38 20 38 59q0 20 -11 42q-32 57 -155 57q-71 0 -142 -21.5t-119 -66t-48 -82.5q0 -58 115 -85l118 -22q71 -13 106 -36q46 -28 46 -80q0 -21 -7 -45q-32 -108 -165 -165q-111 -49 -262 -49q-43 0 -75 4
q32 -18 84 -31q4 -1 4 -4q0 -9 -21 -9q-41 0 -102 49q-83 13 -124 46q-26 21 -48 62t-22 74t13 55q30 53 76 53q35 0 41 -59q14 -114 19 -130q15 -49 51 -83q42 -9 91 -9q108 0 212 43t150 122q19 31 19 55q0 47 -83 73l-176 40q-54 13 -86.5 43t-32.5 69q0 60 75 120
q57 46 139.5 71.5t162 25.5t131.5 -23q67 -31 67 -90.5t-61 -83.5zM147 -18q-58 64 -74 175q-9 63 -17 63t-15 -4.5t-14 -19.5t-7 -39q0 -77 54 -132q27 -28 73 -43z" />
    <glyph glyph-name="T" unicode="T" horiz-adv-x="661" 
d="M28 67q0 108 64 214q-74 47 -74 139q0 111 98 197q110 97 284 97q80 0 172 -23q21 -5 179 -77.5t227 -72.5q46 0 69 26q12 13 12 28t-13 27q-7 10 -7 13t5.5 3t19 -17.5t13.5 -41t-31.5 -45t-79.5 -21.5q-75 0 -233 72.5t-198.5 80.5t-92.5 8q-207 0 -326 -134
q-14 -15 -33 -60.5t-19 -87.5q0 -58 41 -90q52 76 123 121t144 45q90 0 90 -70q0 -84 -98.5 -182.5t-182.5 -98.5q-54 0 -54 46q0 16 8.5 28t20.5 9l-2 -23q0 -15 46 -15q68 0 143.5 70t91.5 137q4 15 4 27q0 45 -57.5 45t-119 -44t-115.5 -116q4 -2 31 -8l60 -2
q44 -2 44 -10q0 -14 -42 -14h-6q-61 0 -100 15q-77 -118 -77 -217q0 -128 99 -128q112 0 233 156l196 292q110 160 191 164l38 -9q18 -10 18 -30t-10 -20l-32 5q-69 0 -177 -149l-199 -278q-128 -149 -245 -149q-80 0 -110.5 43t-30.5 125z" />
    <glyph glyph-name="U" unicode="U" horiz-adv-x="801" 
d="M345 -19q-43 0 -43 30q0 52 132.5 238.5t160.5 229.5q61 94 61 128q0 17 -13 21q-24 10 -56 10q-110 0 -281 -117q-112 -78 -185.5 -182.5t-73.5 -172.5q0 -49 40 -56q16 -3 32 -3q51 0 105 33q27 16 68 53l18 6q-19 -36 -79.5 -73t-124.5 -37q-15 0 -35 4t-38.5 28.5
t-18.5 64.5q0 157 296 369q60 43 142 74.5t149 31.5q34 0 65.5 -13t31.5 -43.5t-35.5 -87t-111 -159t-128 -191.5t-52.5 -124q0 -17 14 -17q27 0 101 56q176 134 414 435q38 48 61 48q9 0 9 -9q0 -4 -3 -10q1 -3 1 -6q0 -21 -24 -57l-118 -167q-72 -104 -127 -197t-51 -109
l18 6q50 28 87 65q13 10 16 10l2 -2q0 -9 -27 -38q-70 -61 -100 -61t-30 19t53.5 118t171.5 273q-20 -24 -63 -71q-246 -252 -295 -291q-73 -57 -136 -57z" />
    <glyph glyph-name="V" unicode="V" horiz-adv-x="690" 
d="M290 286q14 0 14 -33q0 -50 -49.5 -93.5t-113.5 -43.5q-41 0 -79 20q-81 44 -81 153q0 77 42 151q58 101 166.5 160t211.5 59q75 0 123 -33q54 -37 54 -110q0 -93 -90 -291.5t-90 -224.5q0 -8 5 -5q26 17 238.5 271.5t295.5 314.5q74 55 123.5 82.5t101.5 27.5
q14 0 21 -1q27 -2 27 -28q0 -13 -9 -13q-1 0 -14 4.5t-22 4.5q-140 0 -377 -253q-89 -95 -216.5 -256t-150.5 -174q-81 -46 -91 -46q-3 0 -3 10q0 33 56 168q23 52 67 156l46 135q24 68 24 99q0 69 -40 105t-115 36t-161 -53q-93 -60 -139 -148t-46 -149t25 -96
q41 -57 109 -57q52 0 92 34.5t40 87.5q0 11 -2.5 20t7.5 9z" />
    <glyph glyph-name="W" unicode="W" horiz-adv-x="1135" 
d="M633 27q0 -67 67 -67q90 0 217 130q115 116 175.5 236.5t60.5 183.5q0 10 -2 20q-22 0 -45 23v-1q-15 12 -15 24.5t10 20.5t26 8t22.5 -12.5t16.5 -22.5t9 -14q6 -9 18.5 -9t28.5 12t25.5 12t9.5 -6q0 -11 -19 -21q-10 -8 -24 -9h-32q12 -41 12 -59q0 -80 -76.5 -208
t-196.5 -227q-121 -102 -219.5 -102t-98.5 96q0 76 64 217l72 157l-98 -76q-46 -38 -93.5 -83.5t-165.5 -187.5l-116 -142q-28 -32 -50 -32q-17 0 -17 22t18 57l193 278q175 257 175 326q0 38 -70 38q-85 0 -237 -104q-82 -56 -144 -140.5t-62 -140t74 -55.5q69 0 142 64
q26 22 30 22t3 -7q-11 -38 -81.5 -72.5t-124.5 -34.5q-14 0 -19 1h-1q-80 17 -80 79t69 149q122 154 314 229q99 38 163 38q79 0 79 -52q0 -108 -272 -469q-91 -121 -92 -121q3 0 104.5 113t192.5 193q35 31 121 114q45 42 97 76q13 8 37.5 8t33.5 -14
q-92 -114 -160.5 -255.5t-68.5 -202.5zM1214 535h1h-1z" />
    <glyph glyph-name="X" unicode="X" horiz-adv-x="640" 
d="M1006 644q-66 0 -242 -142q-114 -92 -206 -184q-8 -21 -21 -69q-43 -156 -43 -212q0 -29 17 -29q41 0 144 102q17 17 17 6q0 -30 -72 -83q-90 -67 -127 -67q-33 0 -33 45t46 216l11 44q-221 -194 -387 -284q-116 -63 -183 -63q-8 0 -16 1q-78 11 -78 96t57 179
q21 35 34 35q4 0 4 -6.5t-7 -16.5q-55 -88 -55 -163q0 -41 18 -70q23 -32 61 -32q80 0 265 133q135 97 285 233l16 14q23 100 23 178t-36 102q-22 15 -55 15t-64 -10q-114 -35 -182.5 -127.5t-68.5 -169.5t58 -77q32 0 79 29q12 9 12 10q3 -3 -7 -13q-40 -40 -105 -40
q-39 0 -62 19.5t-23 54.5q0 6 1 13q12 133 128.5 228t234.5 95q32 0 56 -7q80 -26 80 -147q0 -41 -11 -99q104 92 219.5 180t154.5 99t52.5 11t18.5 -2q19 -7 19 -16.5t-25 -8.5h-2z" />
    <glyph glyph-name="Y" unicode="Y" horiz-adv-x="882" 
d="M336 -254q-38 0 -74.5 27t-36.5 60q0 21 21 21q5 0 15 -2q12 -42 20 -57q17 -27 58 -27q123 0 302 336l180 321q-193 -206 -273.5 -286.5t-110.5 -98.5q-60 -36 -99 -36q-57 0 -57 67q0 80 68 165q5 6 42.5 51.5t88 108.5t84 121.5t33.5 82t-14 30.5q-29 15 -66 15
q-106 0 -293 -128q-78 -53 -124 -123t-46 -129t57 -74q18 -5 35 -5q51 0 113 44q73 49 82 52q-10 -37 -79 -81q-76 -47 -142 -47q-9 0 -33.5 3.5t-48.5 36.5t-24 80q0 136 199 278q58 42 153 76t153.5 34t89 -18.5t30.5 -59t-56 -126t-177 -232.5q-25 -29 -46 -75.5t-21 -74
t21.5 -27.5t64.5 31q122 87 243.5 211t178.5 208q41 59 87 59q16 0 16 -10q0 -2 -2 -8q-126 -220 -343 -584q-64 -105 -136.5 -157.5t-132.5 -52.5z" />
    <glyph glyph-name="Z" unicode="Z" horiz-adv-x="739" 
d="M908 533q-5 0 -107 16q-169 -96 -387.5 -246t-353.5 -277q153 17 311 31q18 1 52 1q125 0 197 -24t72 -64q0 -24 -29 -53q-38 -35 -52 -35q-5 0 -5 8.5t11.5 19t11.5 19.5q0 31 -93 57q-97 28 -182 28t-197.5 -16.5t-177.5 -16.5h-7q-16 -14 -20 -14q-2 0 -2 3.5t6 13.5
q-37 2 -37 21q0 15 16 31t28 16q2 0 4 -2q5 -8 43 -14q253 264 725 523l-30 6q-71 16 -183 16t-195 -30q-18 -4 -54 -22q-58 -29 -58 -69q0 -6 2.5 -14.5t-0.5 -13.5q-4 -6 -13.5 -6t-18 14t-8.5 30t5 33q19 64 123 94q53 15 177.5 15t246.5 -22q15 -1 50 -9l55 30q8 4 35 4
t27 -10q0 -4 -9 -7q-4 -3 -51 -29q45 -3 55.5 -3t19 5t6 15t1.5 10q6 0 14.5 -13.5t8.5 -24.5q0 -25 -33 -25z" />
    <glyph glyph-name="bracketleft" unicode="[" horiz-adv-x="585" 
d="M164 4l75 5q29 0 29 -12q0 -14 -84 -14q-161 0 -161 36q0 119 129.5 367t227.5 315q26 17 109.5 17t83.5 -21q0 -4 -1 -13q-4 -1 -14 -1l-72 4q-44 0 -60 -10t-56 -57q-81 -96 -182 -282.5t-101 -277.5q0 -56 77 -56z" />
    <glyph glyph-name="backslash" unicode="\" horiz-adv-x="551" 
d="M54 698q24 0 251 -302q230 -309 261 -394q22 -60 22 -93t-17 -33q-14 0 -21 10q-4 8 3.5 11.5t7.5 20t-6 34.5q-32 84 -206.5 318.5t-309.5 389.5q-9 11 -9 18t6.5 13.5t17.5 6.5z" />
    <glyph glyph-name="bracketright" unicode="]" horiz-adv-x="556" 
d="M432 697l-75 -5q-29 0 -29 12q0 14 84 14q161 0 161 -36q0 -120 -129.5 -367t-227.5 -315q-26 -17 -109.5 -17t-83.5 21q0 4 1 13q4 1 14 1l72 -4q44 0 60 10t56 57q81 96 182 282.5t101 277.5q0 56 -77 56z" />
    <glyph glyph-name="asciicircum" unicode="^" horiz-adv-x="370" 
d="M186 412q-100 -84 -111 -84t-11 10.5t61 59.5q62 52 75 53l6 -2q38 -42 125 -108l5 -10l-4 -7q-23 2 -77 37t-69 51z" />
    <glyph glyph-name="underscore" unicode="_" horiz-adv-x="806" 
d="M786 -60q-341 0 -761 -13q-17 0 -17 24t17 24h740q25 0 28 -28z" />
    <glyph glyph-name="grave" unicode="`" horiz-adv-x="221" 
d="M169 312q4 -3 4 -7.5t-6 -4.5t-59 32t-62 38.5t-9 19t10 12.5q12 0 122 -90z" />
    <glyph glyph-name="a" unicode="a" horiz-adv-x="412" 
d="M332 299l14 3q11 0 21 -9t10 -14t-62 -96.5t-62 -127.5q0 -3 1 -6q5 -23 22 -23q52 0 190 172q3 4 7 4t4 -7.5t-9 -19.5q-128 -171 -195 -171q-9 0 -17 3q-44 17 -44 66q0 17 4 34l-62 -60q-59 -52 -85.5 -52t-50.5 17q-27 20 -27 53q0 73 102 174.5t187 101.5
q33 0 44 -23q3 -8 5 -13.5t3 -5.5zM33 53q0 -36 25 -36q58 0 158 127l106 146q-8 14 -26 14q-61 0 -162 -94.5t-101 -156.5z" />
    <glyph glyph-name="b" unicode="b" horiz-adv-x="365" 
d="M228 249q0 68 42 68q4 0 9 -1q17 -3 17 -26t-8 -58q-8 -26 -11 -39q3 -17 16.5 -43.5t37 -26.5t52.5 32q6 7 11.5 7t6 -6.5t-7.5 -17.5q-31 -37 -65 -37q-49 0 -79 72q-31 -71 -88 -122.5t-113 -51.5q-53 0 -53 80q0 63 117.5 232t179.5 169q13 0 23.5 -8t10.5 -19
q0 1 -14.5 -15t-79 -86t-126.5 -154t-62 -130q0 -12 6.5 -26t21.5 -14q44 0 103 68q49 60 60 101q-7 21 -7 52z" />
    <glyph glyph-name="c" unicode="c" horiz-adv-x="283" 
d="M76 -13q-11 0 -20 3q-64 18 -64 72q0 70 88 162t158 92q23 0 37.5 -12.5t14.5 -34t-13 -45t-39 -23.5t-26 16q0 11 13.5 33.5t13.5 24t-3 1.5q-28 -3 -76.5 -40t-66.5 -62l-39 -57q-10 -16 -14.5 -38t-4.5 -33t12.5 -25t35.5 -14q50 0 124 58.5t114 111.5q5 6 12 6t7 -4
t-5 -10q-55 -73 -131.5 -127.5t-127.5 -54.5z" />
    <glyph glyph-name="d" unicode="d" horiz-adv-x="467" 
d="M328 303q112 182 156 182q7 0 19.5 -4.5t12.5 -13.5q0 -5 -5 -13q-80 -98 -119 -147q-118 -149 -130 -214q-3 -14 -3 -28q0 -45 37 -45q74 0 193 137q10 10 17 11.5t7 -3.5t-6 -12q-116 -139 -206 -155q-5 -1 -14 -1q-31 0 -46.5 21.5t-15.5 46.5q0 28 11 62l-81 -81
q-55 -51 -86.5 -51t-52.5 17q-25 19 -25 53q0 73 102 174.5t187 101.5q28 0 39 -15q4 -5 9 -23zM33 53q0 -36 25 -36q43 0 143 118q18 21 120 157q-7 12 -24 12q-62 0 -163 -94.5t-101 -156.5z" />
    <glyph glyph-name="e" unicode="e" horiz-adv-x="257" 
d="M51 -13q-11 0 -20 3q-64 18 -64 72q0 70 88 162t158 92q23 0 37.5 -12.5t14.5 -30.5q0 -56 -84.5 -107t-137.5 -51q-8 0 -14 2q-15 -27 -15 -57q0 -52 49.5 -52t128.5 67q61 49 104 104q9 12 15.5 12t6.5 -6t-8 -17q-54 -71 -130 -126t-129 -55zM240 275q0 12 -25.5 12
t-72.5 -39q-63 -52 -98 -109q6 -2 13 -2q38 0 101.5 40.5t79.5 88.5q2 5 2 9z" />
    <glyph glyph-name="f" unicode="f" horiz-adv-x="242" 
d="M408 489q0 -31 -18 -31q-5 0 -10 8q-9 16 -30 16q-46 0 -86 -66q-8 -13 -50 -94h12q109 0 145 3q4 -1 4 -4q0 -8 -71 -22q-67 -11 -110 -19q-31 -64 -75 -152q-90 -168 -119 -209q-87 -124 -170 -124q-29 0 -50.5 24.5t-22.5 54.5q3 12 9 12q3 0 4 -7q6 -26 20 -40
t29 -14q85 0 155 105q40 60 109 216l54 130q-100 1 -100 24q0 10 9.5 17t16.5 7l94 -2q98 218 180 218q31 0 63 -30q8 -8 8 -21z" />
    <glyph glyph-name="g" unicode="g" horiz-adv-x="370" 
d="M334 305l14 3q13 0 20.5 -8t7.5 -12.5t-1 -10t-29 -50.5q-35 -61 -58 -103q-81 -151 -124 -207q-92 -122 -175 -122q-29 0 -50.5 24.5t-22.5 54.5q3 12 9 12q3 0 5 -7q5 -26 19 -40t28 -14q57 0 122 75q43 50 95 146l50 99l-75 -76q-72 -69 -98.5 -69t-50.5 18
q-27 20 -27 53q0 73 102.5 174t186.5 101q34 0 44 -22q3 -8 5 -13.5t3 -5.5zM35 59q0 -36 25 -36q58 0 158 127l106 146q-6 14 -25 14q-62 0 -163 -95.5t-101 -155.5z" />
    <glyph glyph-name="h" unicode="h" horiz-adv-x="376" 
d="M237 4q-59 0 -59 69q0 39 27.5 86.5t67.5 111.5q-128 -64 -232 -189q-58 -87 -68 -87q-29 0 -29 17q0 9 12 32q97 173 147 253q119 191 168 207q2 1 4 1q13 0 18 -21q-3 -21 -104 -152q-105 -133 -119 -174q37 27 129 91q99 69 131 69t32 -25q0 -4 -0.5 -5.5t-69.5 -94.5
t-69 -137q0 -23 17 -23q54 2 162 130q9 9 13.5 9t4.5 -6q0 -20 -99 -108q-62 -54 -84 -54z" />
    <glyph glyph-name="i" unicode="i" horiz-adv-x="226" 
d="M245.5 398.5q13.5 -9.5 13.5 -22.5t-12.5 -22.5t-27.5 -9.5t-27.5 11t-12.5 25q0 28 38 28q15 0 28.5 -9.5zM36 -11q-51 0 -51 66q0 54 59 149.5t95 96.5q10 0 22.5 -8t12.5 -16q-5 -7 -12 -15.5t-15 -18.5t-22 -28.5t-27 -35.5q-75 -97 -75 -133.5t25 -36.5q21 0 57 23
q84 52 133 114q18 23 24.5 23t6.5 -8t-23 -32t-36.5 -38t-18.5 -18.5t-18.5 -17t-20.5 -17.5t-20 -15t-23 -14.5t-23 -10.5q-21 -9 -50 -9z" />
    <glyph glyph-name="j" unicode="j" horiz-adv-x="201" 
d="M232.5 400q13.5 -10 13.5 -22.5t-12.5 -22t-27.5 -9.5t-27.5 10.5t-12.5 24.5q0 29 38 29q15 0 28.5 -10zM185 272q0 -6 -79 -142q-77 -147 -119 -205q-91 -130 -171 -130q-30 0 -55.5 19.5t-25.5 39t9 19.5q1 0 20.5 -25.5t45.5 -25.5q80 0 182 181q63 113 86 183
q-12 -14 -41.5 -41t-36 -27t-6.5 3q0 9 16 23t43 53t32 43l33 35q20 19 43.5 19t23.5 -22z" />
    <glyph glyph-name="k" unicode="k" horiz-adv-x="394" 
d="M205 -12q-79 0 -134 125q-14 -21 -63 -118q-36 14 -36 38q0 43 129 236t177 227q4 3 16 3q31 0 31 -16q0 -8 -69.5 -90t-77.5 -99q91 47 145 47q31 0 53 -25q21 -21 21 -43v-6q-8 -57 -80 -94q-58 -31 -108 -31t-70 13q-6 1 -9.5 -3t-1.5 -10q28 -124 93 -124
q34 0 87.5 38t111.5 107q7 7 12.5 7t5.5 -5.5t-7 -15.5q-54 -66 -102 -104q-73 -57 -124 -57zM349 294q0 8 -9 16t-19 8q-54 0 -129.5 -45t-92.5 -102q9 0 48 -3q45 0 118 37q84 42 84 89z" />
    <glyph glyph-name="l" unicode="l" horiz-adv-x="243" 
d="M72 20q33 0 85 35t101 95q12 16 19 16t7 -6t-41 -52q-100 -110 -167 -110q-33 0 -56 15.5t-23 48t17 75.5q29 68 93 171q117 190 166 190q10 0 20.5 -7.5t11.5 -16.5q-23 -31 -88.5 -119t-90.5 -126.5t-37.5 -57.5t-18.5 -29.5t-14 -27.5q-17 -34 -17 -64t33 -30z" />
    <glyph glyph-name="m" unicode="m" horiz-adv-x="631" 
d="M478 12q-68 0 -68 63q0 36 32 98.5t67 105.5q-62 -30 -143 -108.5t-113 -164.5q-5 -8 -17 -8q-24 0 -24 27q10 55 45 126q11 23 65 134q-78 -51 -132.5 -109.5t-101 -117.5t-52.5 -59q-13 0 -22.5 12t-9.5 24q0 18 52 132l-60 -63q-22 -22 -27.5 -22t-5.5 6.5t8 14.5
q37 37 66 74t96 132q11 15 31 15t20 -19q0 -7 -53 -97.5t-59 -113.5q41 45 123 121q123 114 162 114q12 0 22 -7t10 -15.5t-39 -75.5q-38 -69 -42 -82q111 93 111 94q94 73 135 73q12 0 22.5 -7.5t10.5 -17.5q0 -2 -65 -84.5t-73 -135.5q-2 -18 7 -27t32.5 -9t69 32.5
t92.5 87.5q18 20 24.5 20t6.5 -5q0 -7 -9 -16q-49 -59 -105.5 -100.5t-88.5 -41.5z" />
    <glyph glyph-name="n" unicode="n" horiz-adv-x="403" 
d="M161 316q27 0 27 -21q0 -6 -3 -12q-90 -125 -108 -189q233 233 283 233q5 1 9 1q28 0 28 -25q0 -5 -2 -10t-40 -54q-44 -52 -74.5 -100t-30.5 -80t14 -32q44 0 153 121q2 2 7 9q15 18 18 18t3 -10t-14 -26q-124 -141 -176 -141q-49 0 -49 54t40 124l64 104
q-68 -50 -121 -109.5t-96.5 -115.5t-50.5 -56q-15 0 -23.5 12.5t-8.5 31t13 49.5t33 75l-60 -63q-22 -22 -27.5 -22t-5.5 6.5t8 14.5q37 37 64 71q26 34 107 130q9 12 19 12z" />
    <glyph glyph-name="o" unicode="o" horiz-adv-x="281" 
d="M261 212q0 -35 -67 -117q-79 -97 -135 -97h-16q-26 0 -41 27q-12 19 -12 42q0 60 87.5 168.5t141.5 108.5q51 0 51 -54q0 -14 -5 -36q1 -3 19 -3t55 19q-1 -17 -79 -49q1 -4 1 -9zM196 264q-34 0 -96.5 -80t-62.5 -118t24 -38q43 0 109 78t66 112q-16 9 -40 46z" />
    <glyph glyph-name="p" unicode="p" horiz-adv-x="377" 
d="M377 226q0 -81 -92.5 -153.5t-160.5 -72.5q-45 0 -65.5 6t-45.5 36q-17 -14 -46 -71.5t-29 -98.5q0 -19 19 -50q2 -5 -3 -8.5t-7.5 -3.5t-4.5 1q-42 23 -42 89.5t110.5 230t152.5 177.5q10 2 13 2q17 0 17 -37q10 10 41 19q38 10 54 10q36 0 62.5 -20.5t26.5 -55.5z
M326 236q0 38 -45 38t-82 -19q-17 -8 -94 -88t-77 -103q0 -18 27.5 -27t55.5 -9q55 0 135 62.5t80 145.5z" />
    <glyph glyph-name="q" unicode="q" horiz-adv-x="332" 
d="M123 48q-64 -44 -102 -44q-49 0 -49 54q0 42 53 104q47 52 93 78q110 61 179 61q22 0 27 -17v-32q17 -13 17 -16.5t-3 -7.5l-79 -75q-75 -77 -103 -141q6 2 33 2t42 -23.5t15 -46.5q0 -48 -42 -113q-46 -73 -100 -73q-52 0 -52 77q0 47 25 106zM273 251
q-51 0 -153.5 -66.5t-116.5 -135.5q-1 -3 -1 -6q0 -19 24 -19q50 0 134 87l126 134q-2 6 -13 6zM146 -9q-19 -30 -41 -86t-22 -76t8 -35.5t22 -15.5q37 0 65 64t28 96t-14 42t-46 11z" />
    <glyph glyph-name="r" unicode="r" horiz-adv-x="394" 
d="M204 -5q-75 0 -75 83q0 42 22 92t48 84q-5 -1 -13 -1q-24 0 -40 34l-74 -96q-62 -77 -72 -77q-5 0 -5 4q0 10 17 29q87 101 123 171q23 87 58 87q23 0 23 -20t-25 -51l-24 -32q0 -21 31 -21q18 0 40 13l26 16q2 1 10 1t17 -10t6 -18l-69 -87q-64 -82 -64 -129.5t44 -47.5
q46 0 113 49q40 29 73 65q31 36 34 36q7 0 7 -7.5t-9 -17.5l-32 -36q-27 -28 -60 -54q-79 -59 -130 -59z" />
    <glyph glyph-name="s" unicode="s" horiz-adv-x="359" 
d="M184 15q-29 -17 -71.5 -17t-65 28t-38.5 89q-18 -18 -25 -18q-5 0 -5 7t5 12q33 41 112 118l126 118q54 51 64 51q32 0 32 -24q0 -12 -9.5 -23.5t-14 -18t-9.5 -12.5q-18 -31 -36.5 -128t-28.5 -135q83 1 171 108q10 10 15 10t5 -6.5t-9 -17.5q-58 -68 -108 -95
q-30 -15 -78 -25zM49 126q0 -34 22.5 -55.5t50.5 -21.5t43 11q20 11 39.5 92t23.5 143l4 34q-55 -41 -117.5 -106t-64.5 -86q-1 -6 -1 -11z" />
    <glyph glyph-name="t" unicode="t" horiz-adv-x="297" 
d="M261 322l144 2q3 -2 3 -3q0 -9 -124.5 -25t-134.5 -19q-19 -17 -70 -101.5t-51 -123.5q0 -37 51 -37q24 0 63 15t60 28q56 35 120 103q14 14 19 14q3 0 3 -6t-15 -24q-52 -64 -117 -103q-78 -48 -149 -48q-31 0 -50.5 13.5t-19.5 54.5t36 112.5t55 106.5q-14 -3 -24 -3
q-29 0 -29 23q0 17 24 24q3 0 9 1h58q18 23 41 53q28 36 38 36t25 -8t15 -19t-48 -65q26 -1 68 -1z" />
    <glyph glyph-name="u" unicode="u" horiz-adv-x="425" 
d="M280 -6q-5 -1 -21.5 -1t-33 13t-16.5 33.5t7.5 45.5t10.5 38q-115 -134 -180 -134q-41 0 -45 51v7q0 43 52 116q-29 -26 -59 -60q-4 -4 -10 -4q-4 0 -4 5t9 17l138 162q26 30 53 30t27 -18q0 -7 -6 -13q-40 -37 -100.5 -123t-60.5 -127q0 -18 12 -18q42 0 122 83
q28 28 104 123.5t100 95.5q36 0 36 -28q0 -10 -42 -58q-57 -69 -87 -112.5t-30 -70.5t15 -27q7 0 16 4q69 30 165 140q6 7 12 7t6 -6.5t-7 -14.5q-43 -50 -101 -100.5t-82 -55.5z" />
    <glyph glyph-name="v" unicode="v" horiz-adv-x="301" 
d="M271 393q30 0 51 -20t21 -56q0 -79 -131 -198q-111 -100 -179 -122q-11 0 -29 12t-18 22q0 22 48 149t66 142q4 4 13 4t19 -9.5t11 -22.5q0 -1 -49.5 -116t-46.5 -137q43 13 153.5 105t110.5 165q0 44 -44 64q-7 3 -7 9q0 9 11 9z" />
    <glyph glyph-name="w" unicode="w" horiz-adv-x="449" 
d="M402 314q0 6 6 6q18 0 28 -22q12 -19 12 -66q0 -72 -63 -147.5t-136 -75.5q-35 0 -56.5 34t-21.5 70t16 88q-29 -29 -85 -99.5t-76 -103.5q-10 0 -27.5 11t-17.5 21q0 24 61 158.5t91 134.5q11 0 20 -10.5t9 -16t-54.5 -103t-53.5 -117.5q95 115 101 122q97 112 127 112
q11 0 21.5 -9.5t10.5 -17t-28 -44.5t-47.5 -72.5t-19.5 -71.5q0 -63 42 -63h13q54 0 98.5 82.5t44.5 132.5q0 40 -13 62q-2 2 -2 5z" />
    <glyph glyph-name="x" unicode="x" horiz-adv-x="427" 
d="M362 44q-72 -60 -119.5 -60t-62.5 69q-5 28 -7 84q-122 -130 -183 -235q-3 -4 -8 -4q-12 0 -12 11q0 3 2 5q93 147 201 258q4 137 5 154q-23 -5 -98 -116q-37 -56 -65 -86t-33.5 -34.5t-11 -4.5t-5.5 5t32 40.5t85 116t76 101.5t43 21t29 -5.5t6.5 -19t-4 -23.5t-2.5 -23
q-6 -47 -7 -77q49 47 221 193q2 2 7 2t13 -8.5t8 -17t-8 -16.5q-32 -26 -111.5 -83.5t-131.5 -105.5q-1 -21 -1 -57t9 -66q12 -39 44 -39q57 0 176 137q10 10 15 10t5 -6.5t-8 -15.5q-62 -73 -99 -104z" />
    <glyph glyph-name="y" unicode="y" horiz-adv-x="370" 
d="M-56 -116q48 -60 83 -60q57 0 123 91q48 67 94 169l38 92l-147 -115q-68 -53 -109 -53q-22 0 -35 15t-13 34q0 43 74 141.5t108 98.5t34 -23q0 -9 -88.5 -103.5t-88.5 -127.5q0 -13 17 -13q32 0 128.5 75t145.5 124q11 13 31 39q19 22 42 22t23 -22q0 -4 -45 -71t-47 -71
q-31 -60 -95 -175q-97 -156 -194 -156q-32 0 -56 27.5t-23 61.5z" />
    <glyph glyph-name="z" unicode="z" horiz-adv-x="386" 
d="M67 41q-40 -28 -57 -28q-23 0 -23 25q0 9 6 22t12 13q9 0 4 -15q-3 -15 9 -15t29 12l-38 29q-2 2 -2 7t10 14.5t15.5 9.5t48.5 -34q124 140 182 184q-79 24 -117 24q-11 0 -21 -1.5t-21.5 -12t-11.5 -23.5t11 -21.5t11 -13.5t-7.5 -5t-24.5 20q-16 20 -16 41q0 35 51 46
q27 5 55 5t138 -36q14 8 30 8q42 0 42 -25q0 -10 -13 -18.5t-31 -8.5t-33 7q-95 -59 -204 -186l36 -28q43 -28 100 -28t84 18t27 46q0 13 -5 24.5t9 11.5q5 0 10 -11.5t5 -27.5q0 -40 -38 -66t-98 -26q-66 0 -109 25q-17 9 -55 38z" />
    <glyph glyph-name="braceleft" unicode="{" horiz-adv-x="323" 
d="M153 174q0 -33 -16.5 -103.5t-16.5 -112.5t28 -54l65 -12l9 -8q-14 -6 -19 -6q-56 0 -84 14q-39 20 -39 74q0 35 18 105.5t18 107.5q0 78 -107 80l11 16q71 8 98 29q34 25 47 89l22 123q15 62 53 93t119 31h5h2q6 0 11 -9l-13 -5q-77 0 -108 -43q-21 -29 -35 -109
q-4 -26 -18 -83q-33 -106 -116 -126q66 -24 66 -91z" />
    <glyph glyph-name="bar" unicode="|" horiz-adv-x="219" 
d="M52 -102q-1 0 -1 1.5t4 18.5q15 63 31 141q33 192 33 381q0 78 -6 118q-12 50 -12 59t17 9q40 0 40 -88.5t-28.5 -338.5t-53.5 -284q-12 -17 -24 -17z" />
    <glyph glyph-name="braceright" unicode="}" horiz-adv-x="425" 
d="M27 -120h-1q-6 0 -11 9q11 5 51 9q68 4 96 72l39 122q25 79 58 109q40 39 98 56q-73 18 -73 79q0 42 25 116t25 113t-27 48l-59 9l-8 7l14 8q52 0 78 -9q44 -15 44 -59.5t-27.5 -121.5t-27.5 -114t30 -54q25 -12 70 -16l-13 -17q-87 -2 -125 -53q-22 -31 -48 -127
q-22 -89 -54 -127q-50 -59 -154 -59z" />
    <glyph glyph-name="asciitilde" unicode="~" horiz-adv-x="303" 
d="M269 447q0 -15 -39 -42q-14 -9 -30 -9t-48.5 13.5t-49 13.5t-32.5 -13t-21 -13q-1 1 -1 3q0 14 42 40q16 10 34 10t49.5 -10.5t52.5 -10.5t37 22q6 0 6 -4z" />
    <glyph glyph-name="uni007F" 
 />
    <glyph glyph-name="nbspace" unicode="&#xa0;" 
 />
    <glyph glyph-name="exclamdown" unicode="&#xa1;" horiz-adv-x="295" 
d="M252 195q0 -29 -38 -29q-15 0 -28.5 10t-13.5 22.5t13 22t27.5 9.5t27 -10.5t12.5 -24.5zM-9 -215q-12 0 -26.5 4.5t-14.5 12.5q0 3 4 7q44 46 122 150q81 104 92 130t22 26q5 0 5 -7q0 -60 -87.5 -191.5t-116.5 -131.5z" />
    <glyph glyph-name="cent" unicode="&#xa2;" horiz-adv-x="295" 
d="M183 268l6 23q0 17 -26 17t-49 -38t-23 -69q0 -51 45 -51q55 0 118 78q7 10 12 10t5 -3q0 -12 -34 -43t-58.5 -47t-56.5 -16q-6 0 -16 2q-34 -45 -68 -171q-2 -2 -3 -2q-10 0 -10 7q0 4 5 29q19 99 54 146q-24 16 -24 56.5t45.5 89t83.5 48.5h7q9 19 44.5 79t43 65.5
t15.5 5.5t8 -7q0 -3 -16 -25.5t-78 -124.5q5 -5 5 -13.5t-12 -29t-20 -20.5q-3 0 -3 4z" />
    <glyph glyph-name="sterling" unicode="&#xa3;" horiz-adv-x="881" 
d="M818 118q57 -42 57 -77.5t-17 -59.5t-46 -35q-114 -45 -281 4q-89 26 -175 71q-77 -49 -142 -49t-120.5 42.5t-55.5 102.5q0 37 43 37q61 0 275 -108q68 83 132 270h-161q-12 0 -12 8q0 23 24 23h160q79 236 150 318q59 66 127 66q38 0 62 -24.5t24 -64.5
q0 -98 -109 -150q-7 -4 -12.5 -4t-5.5 8t10.5 15.5t19 15t13.5 11.5q53 49 53 115q0 23 -14 35t-35 12t-44 -14.5t-44 -42.5q-27 -36 -58 -89.5t-94 -206.5h172q8 0 8 -7q0 -24 -29 -24h-163q-45 -109 -64 -148q-46 -95 -86 -132q53 -33 136 -52q81 -22 144.5 -22t112.5 18
q69 22 69 74q0 20 -18.5 38.5t-18.5 24t4.5 5.5t8.5 -4zM324 28q-26 20 -103 50.5t-97.5 30.5t-20.5 -8q0 -41 36 -74q37 -30 89 -30t96 31z" />
    <glyph glyph-name="currency" unicode="&#xa4;" horiz-adv-x="518" 
d="M354 508q29 -21 29 -60.5t-22 -70t-58 -47.5q48 -79 63 -96h-33q-4 13 -48 88q-29 -10 -64 -10t-58 11l-82 -90h-32l102 96q-35 22 -35 65q0 69 67 109l-53 81l29 9q4 -18 39 -82q39 17 78.5 17t65.5 -12q43 42 72 75l23 -9q-2 -2 -16 -14q-36 -31 -67 -60zM314 369.5
q31 28.5 31 62.5q0 71 -72 71q-52 0 -85 -26.5t-33 -61.5t20.5 -54.5t64 -19.5t74.5 28.5z" />
    <glyph glyph-name="yen" unicode="&#xa5;" horiz-adv-x="549" 
d="M313 308q129 231 129 295q0 46 -52 46t-138 -60.5t-121 -108.5q-9 -13 -13 1q-1 5 -1 16t14 29q45 57 122.5 101t139 44t81.5 -27q10 -14 10 -37q0 -82 -103 -251l-28 -48h6q94 100 243 217q189 154 299 154q30 0 44 -10.5t14 -19t-2 -13.5t-3 -5l-7 17q-9 16 -31 16
q-60 0 -232.5 -124t-275.5 -231l138 1q-3 -7 -8.5 -9.5t-21.5 -5.5t-31 -5t-47 -5.5t-58 -7.5l-27 -29q-2 -3 -18.5 -26.5t-22.5 -33.5l172 5q1 -1 -0.5 -5t-27.5 -10q-65 -17 -162 -21q-85 -144 -85 -181q0 -14 11 -14q17 0 73 40q5 0 4 -6q-4 -15 -47.5 -36.5t-59.5 -21.5
q-36 0 -36 38q0 49 70 179l-77 1q-44 0 -44 7q0 25 31 25h106l55 86h-68h-39q-22 1 -20 10q6 24 30 24h115z" />
    <glyph glyph-name="brokenbar" unicode="&#xa6;" horiz-adv-x="219" 
d="M109 444q0 97 -4 132t-4 40q0 10 17 10q40 0 40 -91.5t-5 -212.5l-44 2v120zM110 62l-1 215l42 1q-13 -291 -26 -342q-7 -27 -16 -27t-9 12t5 53t5 88z" />
    <glyph glyph-name="section" unicode="&#xa7;" horiz-adv-x="570" 
d="M159 330q5 -49 31 -76q29 -28 54.5 -40.5t37.5 -17.5q34 -15 70 -27q55 -22 88 -45q54 18 92.5 56.5t38.5 78t-34 65t-77.5 39t-95 39.5t-77.5 59q-54 -20 -91 -54.5t-37 -76.5zM5 -46q0 -73 113 -73q101 0 201 45q63 25 96 73q11 16 11 29q0 41 -45 71q-24 15 -76 36
t-89 37t-67.5 50t-30.5 85t43 101t112 78q-11 24 -11 48q0 53 51 104.5t128 83.5q85 36 163 36q48 0 60 -20.5t12 -39t-2.5 -31t-13.5 -31t-23 -19.5q-7 0 -3 13q5 34 5 40q0 51 -73 51q-44 0 -104 -19.5t-109.5 -57.5t-49.5 -82q5 -55 41 -87.5t81.5 -49.5t90.5 -33
q107 -36 107 -99q0 -53 -47 -105.5t-117 -81.5q21 -21 21 -42.5t-10.5 -44t-36.5 -45.5q-51 -45 -107 -70q-112 -54 -215 -54q-118 0 -137 81q-2 9 -2 18q0 42 44 81q40 38 97 61q8 5 14.5 5t9.5 -4q0 -5 -36 -23t-63 -48q-33 -32 -33 -67z" />
    <glyph glyph-name="dieresis" unicode="&#xa8;" horiz-adv-x="261" 
d="M231 428q-1 0 -14 -18l-16 -40q-12 -27 -27 -27q-7 0 -14 10.5t-7 22t29 32.5q30 21 46 21zM53 343q-7 0 -14 10.5t-7 22t29 32.5q30 21 46 21q1 0 3 -1q-1 0 -14 -18l-16 -40q-12 -27 -27 -27zM111 427q0 1 -1 1h1v-1zM232 428v-1l-1 1h1z" />
    <glyph glyph-name="copyright" unicode="&#xa9;" horiz-adv-x="638" 
d="M581 364q0 -116 -122 -225.5t-242 -109.5q-71 0 -123.5 42.5t-52.5 113.5q0 118 124.5 227.5t244.5 109.5q71 0 121 -44t50 -114zM543 356q0 64 -40 105t-103 41q-112 0 -217.5 -103t-105.5 -215q0 -61 48 -98q43 -36 106 -36q106 0 209 100t103 206zM471 410
q0 -30 -18 -32l-5 4q3 27 5 25q-2 34 -36 34q-78 0 -165 -93.5t-87 -172.5q0 -48 48.5 -48t124.5 42t75 45q3 0 3 -3q0 -34 -80 -65t-118 -31t-60 15q-27 16 -27 49q0 92 98.5 181.5t192.5 89.5q49 0 49 -40z" />
    <glyph glyph-name="ordfeminine" unicode="&#xaa;" horiz-adv-x="240" 
d="M332 539l14 3q11 0 21 -9t10 -14t-62 -96.5t-62 -127.5q0 -3 1 -6q5 -23 22 -23q52 0 190 172q3 4 7 4t4 -7.5t-9 -19.5q-128 -171 -195 -171q-9 0 -17 3q-44 17 -44 66q0 17 4 34l-62 -60q-59 -52 -85.5 -52t-50.5 17q-27 20 -27 53q0 73 102 174.5t187 101.5
q33 0 44 -23q3 -8 5 -13.5t3 -5.5zM33 293q0 -36 25 -36q58 0 158 127l106 146q-8 14 -26 14q-61 0 -162 -94.5t-101 -156.5z" />
    <glyph glyph-name="guillemotleft" unicode="&#xab;" horiz-adv-x="420" 
d="M270 283q98 -124 98 -135.5t-9 -11.5q-2 0 -10 4q-25 33 -56 59l-65 51q-3 2 -3 9t50 78.5t64 88t22 16.5t8 -6q0 -15 -99 -153zM130 283q97 -122 97 -134.5t-8 -12.5q-2 0 -10 4q-23 31 -57 59l-64 51q-3 2 -3 6q0 12 51 83.5t63.5 87t21 15.5t8.5 -6q0 -15 -99 -153z
" />
    <glyph glyph-name="logicalnot" unicode="&#xac;" horiz-adv-x="259" 
d="M38 22q0 -38 37 -45q3 -1 3 -2q0 -7 -22 -7q-32 0 -45 39q-8 26 -8 52q0 61 159 287t191 226q41 0 41 -17q0 -3 -4 -7q-109 -119 -230.5 -291t-121.5 -235z" />
    <glyph glyph-name="uni00AD" unicode="&#xad;" horiz-adv-x="297" 
d="M105 260l97 -1q58 0 83 3q1 -1 1 -3q0 -15 -79 -29q-43 -6 -80.5 -12.5t-48 -6.5t-35 4.5t-24.5 19.5q0 10 8.5 17t14.5 7t12 1h26h25z" />
    <glyph glyph-name="registered" unicode="&#xae;" horiz-adv-x="638" 
d="M581 364q0 -116 -122 -225.5t-242 -109.5q-71 0 -123.5 42.5t-52.5 113.5q0 118 124.5 227.5t244.5 109.5q71 0 121 -44t50 -114zM543 356q0 64 -40 105t-103 41q-110 0 -214 -98q90 35 169 35q48 0 84 -15q50 -20 50 -61q0 -50 -71 -79q-51 -21 -114 -23q13 -47 36 -85
q31 -51 68 -53q135 108 135 233zM464 370q0 57 -113 57q-38 0 -97.5 -17.5t-97.5 -37.5q-79 -94 -79 -188q0 -61 48 -98q43 -36 113.5 -36t150.5 58q-37 9 -69 58.5t-46 97.5q-9 0 -12 3l11 4l7 5l9 -3q175 24 175 97zM150 76q-11 0 -11 40t80 156q65 97 117 149l22 -11
q-3 -5 -55 -71.5t-78 -105.5q-63 -92 -71 -146q-2 -11 -4 -11z" />
    <glyph glyph-name="macron" unicode="&#xaf;" horiz-adv-x="500" 
d="M220 616q16 8 98.5 8t106.5 -12q3 -2 3 -3q0 -5 -6 -5q-31 0 -91 -6t-90 -6q-5 0 -12.5 9t-8.5 15z" />
    <glyph glyph-name="degree" unicode="&#xb0;" horiz-adv-x="283" 
d="M237 406q0 -36 -25.5 -61t-61 -25t-60.5 25t-25 61t25 61t61 25t61 -25t25 -61zM215 406q0 26 -19 45t-45 19t-45 -19t-19 -45t19 -45t45 -19t45 19t19 45z" />
    <glyph glyph-name="plusminus" unicode="&#xb1;" horiz-adv-x="438" 
d="M219 290l-139 -5q-6 0 -12 7t-7 14l5 5q41 4 88.5 4h64.5l-6 138q0 6 7.5 12t14.5 6l5 -5q4 -40 4 -87v-64q80 -2 154 -7q6 -3 6 -6v-4l-9 -6q-78 0 -151 -1q-1 -134 -5.5 -143.5t-9.5 -9.5q-10 0 -10 100v52zM112 89q16 8 98.5 8t106.5 -12q3 -1 3 -3q0 -5 -6 -5
q-31 0 -91 -6t-90 -6q-5 0 -12.5 9t-8.5 15z" />
    <glyph glyph-name="twosuperior" unicode="&#xb2;" horiz-adv-x="455" 
d="M432 702q-4 -49 -56 -103q-24 -25 -85.5 -73.5t-172.5 -106.5q29 -3 94.5 -25t96.5 -22t54.5 10.5t23.5 30.5q0 24 -37 37q-4 3 -4 5q0 8 10 5q50 -15 50 -48q0 -28 -30 -45t-64.5 -17t-85.5 17l-83 30q-29 8 -45 8q-68 -29 -83 -29t-15 11q0 13 15 23q24 17 65 17
q11 0 23 -1q145 89 184.5 120t62.5 60q29 34 33 78q0 33 -40 33t-96.5 -26t-89.5 -55q-4 -2 -8 -2t-4 6.5t4 7.5q43 37 111 67t120 30t52 -43z" />
    <glyph glyph-name="threesuperior" unicode="&#xb3;" horiz-adv-x="476" 
d="M65 475l-3 -21q0 -52 72 -65q19 -3 37 -3q53 0 107 25q84 39 114 112q4 9 4 21q0 23 -24 34t-60 11t-50 -5.5t-21 -5.5q-11 0 -11 10q0 7 5.5 12.5t12.5 5.5q51 0 96 17q58 22 65 65q1 3 1 7q0 26 -33 26t-76.5 -17t-55 -25t-15 -8t-3.5 12.5t12 15.5q13 4 29.5 19.5
t20.5 15.5q3 -2 3 -5t-3 -7q-1 0 -5 -4q65 27 107 27q59 0 57 -54q-3 -52 -108 -85q91 -10 91 -64q0 -7 -3 -16q-18 -71 -106 -116q-79 -38 -169 -38q-59 0 -96.5 19t-37.5 53q0 18 13 42t58 44q38 15 55.5 15t17.5 -4q0 -6 -14 -6t-44 -18q-32 -21 -40 -42z" />
    <glyph glyph-name="acute" unicode="&#xb4;" horiz-adv-x="221" 
d="M55 259q-7 0 -7 5t4 8l105 81q11 9 17 9q9 0 9 -12t-8 -20q-9 -7 -61 -39t-59 -32z" />
    <glyph glyph-name="mu" unicode="&#xb5;" horiz-adv-x="425" 
d="M9 11q-50 -87 -50 -139q0 -19 19 -50q2 -5 -3 -8.5t-7.5 -3.5t-4.5 1q-42 23 -42 89.5t113 233.5l13 20l-45 -41q-6 -6 -11 -6t-5 5.5t10 15.5l132 155q27 30 53.5 30t26.5 -18q0 -7 -13 -19.5t-39 -42.5q-8 -12 -26 -35q-19 -25 -22 -30q-67 -95 -67 -136q0 -18 12 -18
q19 0 68 38l54 45q16 12 102 122q78 97 102 97q36 0 36 -28q0 -10 -42 -58q-57 -69 -87 -112.5t-30 -70.5t15 -27q7 0 16 4q72 32 165 138q6 7 12 7t6 -5q0 -20 -101 -109q-65 -56 -89 -61q-5 -1 -21.5 -1t-33 13t-16.5 33.5t7.5 45.5t10.5 38l-88 -88q-52 -46 -86 -46
t-44 22z" />
    <glyph glyph-name="paragraph" unicode="&#xb6;" horiz-adv-x="548" 
d="M361 606l108 4q26 0 39 -4q40 42 85 42q26 0 32 -13q-2 -2 -19.5 -5.5t-25.5 -8.5q-53 -31 -127 -195l-122 -294q-81 -191 -127 -191q-6 0 -6 4q2 5 14 16q54 51 120 247q36 111 67 200q46 120 99 184h-10q-70 0 -158 -186q-38 -78 -101 -254q-38 -104 -103 -199
q-88 -130 -162 -130q-14 0 -16 9q3 6 10 6q88 0 178 183q30 63 104 264q-154 13 -154 113q0 86 92.5 147t182.5 61z" />
    <glyph glyph-name="periodcentered" unicode="&#xb7;" horiz-adv-x="226" 
d="M154.5 337q13.5 -10 13.5 -22.5t-12.5 -22t-27.5 -9.5t-27.5 10.5t-12.5 24.5q0 29 38 29q15 0 28.5 -10z" />
    <glyph glyph-name="cedilla" unicode="&#xb8;" horiz-adv-x="224" 
d="M173 -181q0 -47 -48.5 -73t-100.5 -26q-9 0 -9 11q0 5 9 8q48 8 72 11q35 11 35 58q0 13 -26 50.5t-26 56.5q0 35 19.5 61t50.5 26q11 0 12 -7q-21 -4 -33.5 -21.5t-12.5 -41.5q0 -11 29 -48.5t29 -64.5z" />
    <glyph glyph-name="onesuperior" unicode="&#xb9;" horiz-adv-x="349" 
d="M181 418q6 0 6 -6q0 -9 -9 -9q-43 0 -77 -11t-62.5 -23t-31 -12t-5.5 4.5t-3 12.5t10.5 12t55.5 20l151 275q-31 -20 -84 -40q-9 -3 -9 6q0 5 5 8q40 15 114 72l3 6q7 11 26 11t19 -9q0 -2 -195 -324q38 7 86 7z" />
    <glyph glyph-name="ordmasculine" unicode="&#xba;" horiz-adv-x="191" 
d="M261 446q0 -35 -67 -117q-79 -97 -135 -97h-16q-26 0 -41 27q-12 19 -12 42q0 60 87.5 168.5t141.5 108.5q51 0 51 -54q0 -14 -5 -36q1 -3 19 -3t55 19q-1 -17 -79 -49q1 -4 1 -9zM196 498q-34 0 -96.5 -80t-62.5 -118t24 -38q43 0 109 78t66 112q-16 9 -40 46z" />
    <glyph glyph-name="guillemotright" unicode="&#xbb;" horiz-adv-x="420" 
d="M340 288q-98 125 -98 136t9 11q2 0 10 -4q28 -39 121 -110q3 -1 3 -8.5t-50 -79t-64 -88t-22 -16.5t-8 6q0 15 99 153zM184 288q-98 125 -98 136t9 11q2 0 10 -4q28 -39 121 -110q3 -1 3 -8.5t-50 -79t-64 -88t-22 -16.5t-8 6q0 15 99 153z" />
    <glyph glyph-name="onequarter" unicode="&#xbc;" horiz-adv-x="797" 
d="M512 -69q-17 0 -17 46t26 115q-47 13 -81 13t-106 -30q-7 -2 -12 3.5t-5 18t13 17t34 8.5q32 17 98.5 65t84.5 59q122 76 136 105l6 8q3 4 10 4q20 0 20 -11q0 -2 -1 -2l-105 -152q-35 -52 -60 -96q44 -14 65 -14t36 10q17 15 17 29t-2 21t4 7t10 -6q11 -19 11 -37
q0 -41 -73 -41q-31 0 -78 15q-28 -54 -28 -97q0 -20 3 -31t4 -16q0 -11 -10 -11zM181 418q6 0 6 -6q0 -9 -9 -9q-43 0 -77 -11t-90 -34q-5 -2 -8.5 3t-3.5 13t10.5 12t55.5 20l151 275q-31 -20 -84 -40q-9 -3 -9 6q0 5 5 8q40 15 114 72l3 6q7 11 26 11t19 -9
q0 -2 -195 -324q38 7 86 7zM210 138q-4 -14 -4 -22t5 -10.5t1.5 -7.5t-13 -5t-9.5 20t16.5 63.5t153.5 228.5q137 181 151 181q6 0 12 -5.5t-3 -17.5q-82 -94 -185.5 -232.5t-124.5 -192.5zM406 128q30 3 51.5 3t72.5 -20q24 55 113 182q-40 -24 -124 -84.5t-113 -80.5z" />
    <glyph glyph-name="onehalf" unicode="&#xbd;" horiz-adv-x="803" 
d="M732 323q-4 -49 -56 -103q-24 -25 -85.5 -73.5t-172.5 -106.5q28 -3 94 -25t97 -22t54.5 10.5t23.5 30.5q0 24 -37 37q-4 3 -4 5q0 8 10 5q50 -15 50 -48q0 -28 -30 -45t-64.5 -17t-85.5 17l-83 30q-29 8 -45 8q-68 -29 -83 -29t-15 12t15 23q24 16 65 16q11 0 23 -1
q145 89 184.5 120t62.5 59q29 35 33 79q0 33 -40 33t-96.5 -26t-89.5 -55q-4 -2 -8 -2t-4 6.5t4 7.5q43 37 111 67t120 30t52 -43zM181 418q6 0 6 -6q0 -9 -9 -9q-43 0 -77 -11t-90 -34q-5 -2 -8.5 3t-3.5 13t10.5 12t55.5 20l151 275q-31 -20 -84 -40q-9 -3 -9 6q0 5 5 8
q40 15 114 72l3 6q7 11 26 11t19 -9q0 -2 -195 -324q38 7 86 7zM511 586q6 0 10 -4t4 -8t-5 -11q-82 -94 -186 -233q-128 -171 -128 -211q0 -11 5 -13.5t1.5 -7.5t-13 -5t-9.5 20t16.5 63.5t153.5 228.5q137 181 151 181z" />
    <glyph glyph-name="threequarters" unicode="&#xbe;" horiz-adv-x="914" 
d="M65 473l-3 -21q0 -52 72 -65q19 -3 37 -3q53 0 107 25q84 39 114 112q4 9 4 21q0 23 -24 34t-60 11t-50 -5.5t-21 -5.5q-11 0 -11 10q0 7 5.5 12.5t12.5 5.5q51 0 96 17q58 22 65 65q1 3 1 7q0 26 -33 26t-76.5 -17t-55 -25t-15 -8t-3.5 12.5t12 15.5q13 4 29.5 19.5
t20.5 15.5q3 -2 3 -5t-3 -7q-1 0 -5 -4q65 27 107 27q59 0 57 -54q-3 -52 -108 -85q91 -10 91 -64q0 -7 -3 -16q-18 -71 -106 -116q-79 -38 -169 -38q-59 0 -96.5 19t-37.5 53q0 18 13 42t58 44q38 15 55.5 15t17.5 -4q0 -6 -14 -6t-44 -18q-32 -21 -40 -42zM335 138
q-4 -14 -4 -22t4.5 -10.5t1.5 -7.5t-12.5 -5t-9.5 20t16.5 63.5t153.5 228.5q137 181 151 181q6 0 12 -5.5t-3 -17.5q-82 -94 -185.5 -232.5t-124.5 -192.5zM637 -69q-17 0 -17 46t26 115q-47 13 -81 13t-106 -30q-7 -2 -12 3.5t-5 18t13 17t34 8.5q32 17 98.5 65t84.5 59
q122 76 136 105l6 8q3 4 10 4q20 0 20 -11q0 -2 -1 -2l-105 -152q-35 -52 -60 -96q44 -14 65 -14t36 10q17 15 17 29t-2 21t4 7t10 -6q11 -19 11 -37q0 -41 -73 -41q-32 0 -78 15q-28 -54 -28 -97q0 -20 3 -31t4 -16q0 -11 -10 -11zM531 128q30 3 51.5 3t72.5 -20
q24 55 113 182q-40 -24 -124 -84.5t-113 -80.5z" />
    <glyph glyph-name="questiondown" unicode="&#xbf;" horiz-adv-x="401" 
d="M341 253q0 -29 -39 -29q-14 0 -27.5 10t-13.5 22.5t12.5 22t27.5 9.5t27.5 -10.5t12.5 -24.5zM157 -206q-165 0 -165 95q0 61 53 103q13 10 120 72q70 40 96 89q9 17 15.5 17t6.5 -9t-2 -15q-25 -52 -88 -93q-90 -56 -109 -74q-43 -39 -43 -72t36 -52.5t91.5 -19.5
t100 26t52.5 76q2 13 -10.5 24.5t-35.5 11.5t-52 -30q-7 -7 -9 0q-3 8 4 15q33 34 64.5 34t47 -15.5t15.5 -36.5v-5q-6 -67 -65.5 -104t-122.5 -37z" />
    <glyph glyph-name="Agrave" unicode="&#xc0;" horiz-adv-x="1020" 
d="M946 286l97 2q36 0 36 -5q0 -13 -146 -23q-93 -182 -93 -248q0 -46 29 -46q11 0 27.5 13.5t20 13.5t3.5 -5q-5 -18 -30.5 -30t-43 -12t-27.5 2q-24 9 -24 58q0 101 77 257l-120 -3q-134 -131 -269 -230q-202 -147 -316 -147q-7 0 -14 1q-154 13 -154 158q0 86 54 182
q72 128 197 218.5t224 90.5t99 -73q0 -49 -30 -109t-61 -76q-3 -1 -6.5 -1t-3.5 2l33 54q34 53 34 93t-17.5 64.5t-55.5 24.5q-78 0 -186.5 -87t-165 -214t-56.5 -198q0 -107 109 -107q104 0 282 134q79 59 257 223q-35 -2 -65 -7q-64 -12 -60 4q4 37 38 37q66 -8 111 -8
q86 79 257 259q115 121 140 121q11 0 11 -17t-9 -53t-20 -44q-23 -16 -43 -43.5t-57 -103t-63 -122.5zM1026 530l-256 -240h59q21 -1 52 -1q29 57 145 241zM1174 735q4 -3 4 -7.5t-6 -4.5t-59 32t-62 38.5t-9 19t10 12.5q12 0 122 -90z" />
    <glyph glyph-name="Aacute" unicode="&#xc1;" horiz-adv-x="1020" 
d="M946 286l97 2q36 0 36 -5q0 -13 -146 -23q-93 -182 -93 -248q0 -46 29 -46q11 0 27.5 13.5t20 13.5t3.5 -5q-5 -18 -30.5 -30t-43 -12t-27.5 2q-24 9 -24 58q0 101 77 257l-120 -3q-134 -131 -269 -230q-202 -147 -316 -147q-7 0 -14 1q-154 13 -154 158q0 86 54 182
q72 128 197 218.5t224 90.5t99 -73q0 -49 -30 -109t-61 -76q-3 -1 -6.5 -1t-3.5 2l33 54q34 53 34 93t-17.5 64.5t-55.5 24.5q-78 0 -186.5 -87t-165 -214t-56.5 -198q0 -107 109 -107q104 0 282 134q79 59 257 223q-35 -2 -65 -7q-64 -12 -60 4q4 37 38 37q66 -8 111 -8
q86 79 257 259q115 121 140 121q11 0 11 -17t-9 -53t-20 -44q-23 -16 -43 -43.5t-57 -103t-63 -122.5zM1026 530l-256 -240h59q21 -1 52 -1q29 57 145 241zM1142 722q-7 0 -7 5t4 8l105 81q10 9 18 9t8 -12t-8 -20q-9 -7 -61 -39t-59 -32z" />
    <glyph glyph-name="Acircumflex" unicode="&#xc2;" horiz-adv-x="1020" 
d="M946 286l97 2q36 0 36 -5q0 -13 -146 -23q-93 -182 -93 -248q0 -46 29 -46q11 0 27.5 13.5t20 13.5t3.5 -5q-5 -18 -30.5 -30t-43 -12t-27.5 2q-24 9 -24 58q0 101 77 257l-120 -3q-134 -131 -269 -230q-202 -147 -316 -147q-7 0 -14 1q-154 13 -154 158q0 86 54 182
q72 128 197 218.5t224 90.5t99 -73q0 -49 -30 -109t-61 -76q-3 -1 -6.5 -1t-3.5 2l33 54q34 53 34 93t-17.5 64.5t-55.5 24.5q-78 0 -186.5 -87t-165 -214t-56.5 -198q0 -107 109 -107q104 0 282 134q79 59 257 223q-35 -2 -65 -7q-64 -12 -60 4q4 37 38 37q66 -8 111 -8
q86 79 257 259q115 121 140 121q11 0 11 -17t-9 -53t-20 -44q-23 -16 -43 -43.5t-57 -103t-63 -122.5zM1026 530l-256 -240h59q21 -1 52 -1q29 57 145 241zM1024 713q-22 -6 -22 7q0 3 10 12q76 46 99 66q30 25 36 25q15 0 57 -46.5t43.5 -52t1.5 -7.5q0 -10 -8 -10t-43 32
t-57 45q-6 -4 -33.5 -21t-51.5 -33t-32 -17z" />
    <glyph glyph-name="Atilde" unicode="&#xc3;" horiz-adv-x="1020" 
d="M946 286l97 2q36 0 36 -5q0 -13 -146 -23q-93 -182 -93 -248q0 -46 29 -46q11 0 27.5 13.5t20 13.5t3.5 -5q-5 -18 -30.5 -30t-43 -12t-27.5 2q-24 9 -24 58q0 101 77 257l-120 -3q-134 -131 -269 -230q-202 -147 -316 -147q-7 0 -14 1q-154 13 -154 158q0 86 54 182
q72 128 197 218.5t224 90.5t99 -73q0 -49 -30 -109t-61 -76q-3 -1 -6.5 -1t-3.5 2l33 54q34 53 34 93t-17.5 64.5t-55.5 24.5q-78 0 -186.5 -87t-165 -214t-56.5 -198q0 -107 109 -107q104 0 282 134q79 59 257 223q-35 -2 -65 -7q-64 -12 -60 4q4 37 38 37q66 -8 111 -8
q86 79 257 259q115 121 140 121q11 0 11 -17t-9 -53t-20 -44q-23 -16 -43 -43.5t-57 -103t-63 -122.5zM1026 530l-256 -240h59q21 -1 52 -1q29 57 145 241zM1278 799q0 -15 -40 -42q-13 -8 -29.5 -8t-49 13.5t-49 13.5t-32.5 -13t-21 -13q-1 1 -1 2q0 16 43 41
q16 10 33.5 10t49 -10.5t52 -10.5t38.5 21q6 0 6 -4z" />
    <glyph glyph-name="Adieresis" unicode="&#xc4;" horiz-adv-x="1020" 
d="M946 286l97 2q36 0 36 -5q0 -13 -146 -23q-93 -182 -93 -248q0 -46 29 -46q11 0 27.5 13.5t20 13.5t3.5 -5q-5 -18 -30.5 -30t-43 -12t-27.5 2q-24 9 -24 58q0 101 77 257l-120 -3q-134 -131 -269 -230q-202 -147 -316 -147q-7 0 -14 1q-154 13 -154 158q0 86 54 182
q72 128 197 218.5t224 90.5t99 -73q0 -49 -30 -109t-61 -76q-3 -1 -6.5 -1t-3.5 2l33 54q34 53 34 93t-17.5 64.5t-55.5 24.5q-78 0 -186.5 -87t-165 -214t-56.5 -198q0 -107 109 -107q104 0 282 134q79 59 257 223q-35 -2 -65 -7q-64 -12 -60 4q4 37 38 37q66 -8 111 -8
q86 79 257 259q115 121 140 121q11 0 11 -17t-9 -53t-20 -44q-23 -16 -43 -43.5t-57 -103t-63 -122.5zM1026 530l-256 -240h59q21 -1 52 -1q29 57 145 241zM1273 822q-1 0 -14 -18l-16 -40q-12 -27 -27 -27q-7 0 -14 10.5t-7 22t29 32.5q30 21 46 21zM1095 737
q-7 0 -14 10.5t-7 22t29 32.5q30 21 46 21q1 0 3 -1q-1 0 -14 -18l-16 -40q-12 -27 -27 -27zM1274 822v-1l-1 1h1zM1153 822v-1l-1 1h1z" />
    <glyph glyph-name="Aring" unicode="&#xc5;" horiz-adv-x="1020" 
d="M706 263q-35 -2 -65 -7q-64 -12 -60 4q4 37 38 37q66 -8 111 -8q86 79 257 259q87 92 123 114q-16 9 -16 32.5t11 47.5t28 29q17 32 51 32q18 0 30.5 -15.5t12.5 -44t-28.5 -57.5t-61.5 -29q1 -3 1 -12.5t-9 -45.5t-20 -44q-23 -16 -43 -43.5t-57 -103t-63 -122.5l97 2
q36 0 36 -5q0 -13 -146 -23q-93 -182 -93 -248q0 -46 29 -46q11 0 27.5 13.5t20 13.5t3.5 -5q-5 -18 -30.5 -30t-43 -12t-27.5 2q-24 9 -24 58q0 101 77 257l-120 -3q-134 -131 -269 -230q-202 -147 -316 -147q-7 0 -14 1q-154 13 -154 158q0 86 54 182q72 128 197 218.5
t224 90.5t99 -73q0 -49 -30 -109t-61 -76q-3 -1 -6.5 -1t-3.5 2l33 54q34 53 34 93t-17.5 64.5t-55.5 24.5q-78 0 -186.5 -87t-165 -214t-56.5 -198q0 -107 109 -107q104 0 282 134q79 59 257 223zM1026 530l-256 -240h59q21 -1 52 -1q29 57 145 241zM1186 699.5
q17 23.5 17 54.5t-22 31q-12 0 -29 -13l11 -6q-1 -3 -16.5 -26.5t-15.5 -43.5t15 -20q23 0 40 23.5z" />
    <glyph glyph-name="AE" unicode="&#xc6;" horiz-adv-x="1400" 
d="M1131 606q112 58 228 58q57 0 91.5 -18.5t34.5 -57t-28.5 -65t-59.5 -26.5t-31 15q0 9 13 9l20 -3q20 0 36.5 21.5t16.5 44.5q0 34 -39 50q-25 10 -47 10t-31 -1q-85 -5 -168 -60q-96 -63 -96 -142q0 -29 20 -54q64 20 122 20q98 0 98 -37q0 -8 -6 -18q-24 -37 -87 -37
q-41 0 -83.5 14.5t-65.5 30.5q-27 -8 -110 -48l-13 -26q-62 -121 -62 -211q0 -39 15 -66q24 -42 71 -49q18 -3 43 -3t70.5 9t97 34.5t83.5 54.5q79 70 79 147q0 61 -59 61q-71 0 -163 -76q-23 -19 -39 -48t-16 -57t28 -35q10 -4 10 -10q0 -10 -20 -8q-48 1 -48 63t63 116
q86 74 182 74q43 0 71 -22t28 -65q0 -97 -103 -175q-36 -27 -90 -49q-81 -33 -168 -33q-31 0 -60 5q-53 9 -89 50q-40 45 -40 121q0 35 13 80q14 47 29 69l-120 -3q-134 -131 -269 -230q-202 -147 -316 -147q-7 0 -14 1q-154 13 -154 158q0 86 54 182q72 128 197 218.5
t224 90.5t99 -73q0 -49 -30 -109t-61 -76q-3 -1 -6.5 -1t-3.5 2l33 54q34 53 34 93t-17.5 64.5t-55.5 24.5q-78 0 -186.5 -87t-165 -214t-56.5 -198q0 -107 109 -107q104 0 282 134q79 59 257 223q-35 -2 -65 -7q-64 -12 -60 4q4 37 38 37q66 -8 111 -8q86 79 257 259
q115 121 140 121q11 0 11 -19t-7 -44zM1026 530l-256 -240h59q21 -1 52 -1q29 57 145 241zM1108 371q42 -34 98.5 -34t56.5 31q0 14 -50 14t-105 -11zM1022 434q-40 -79 -43 -85q28 12 73 27q-24 26 -30 58z" />
    <glyph glyph-name="Ccedilla" unicode="&#xc7;" horiz-adv-x="726" 
d="M228 -212q0 -46 -48.5 -72t-100.5 -26q-9 0 -9 10q0 6 9 8q48 8 72 11q35 11 35 58q0 14 -26 51t-26 56q0 43 25 68q-128 50 -128 203t150 311q83 87 197 135.5t216 48.5q54 0 94 -13q109 -34 109 -137q0 -63 -37 -109q-92 -113 -219 -113q-60 0 -101 27.5t-41 69.5
q0 53 69 106q12 9 18 9t6 -4q0 -10 -16 -16q-56 -45 -56 -91q0 -33 30 -55.5t75 -22.5q98 0 185 94q45 49 45 113t-48 95q-40 28 -108 28q-98 0 -197 -49q-122 -59 -220.5 -183.5t-98.5 -239.5q0 -91 62 -140.5t154 -49.5q105 0 206 51q77 40 133 102q16 18 25 18
q6 0 6 -10.5t-11 -21.5q-53 -56 -153 -108q-123 -65 -241 -65q-42 0 -80 9q-14 -19 -14 -42q0 -11 29 -49t29 -65z" />
    <glyph glyph-name="Egrave" unicode="&#xc8;" horiz-adv-x="691" 
d="M504 407q98 0 98 -37q0 -8 -6 -18q-24 -37 -87 -37q-41 0 -84 14.5t-65 30.5q-93 -27 -165.5 -83t-108.5 -127q-19 -38 -19 -74q0 -56 46.5 -91t136.5 -35q25 0 52 3q159 17 253 102q79 70 79 147q0 61 -59 61q-71 0 -163 -76q-23 -19 -39 -48t-16 -57t28 -35
q10 -4 10 -10q0 -10 -20 -8q-48 1 -48 63t63 116q86 74 182 74q72 0 91 -45q8 -21 8 -42q0 -93 -103 -175q-123 -100 -312 -100q-117 0 -185 43.5t-68 113.5q0 41 26 82q92 146 314 217q-33 38 -33 81t21 72q41 56 123 92q98 43 196 43q57 0 91.5 -18.5t34.5 -57t-28.5 -65
t-59.5 -26.5t-31 15q0 9 13 9l20 -3q20 0 36.5 21.5t16.5 44.5q0 34 -39 50q-25 10 -47 10t-31 -1q-86 -5 -168 -60q-96 -63 -96 -142q0 -29 20 -54q64 20 122 20zM399 371q43 -34 99 -34t56 31q0 14 -50 14t-105 -11zM709 724q4 -3 4 -7.5t-6 -4.5t-59 32t-61.5 38.5
t-8.5 19t9 12.5q14 0 122 -90z" />
    <glyph glyph-name="Eacute" unicode="&#xc9;" horiz-adv-x="691" 
d="M504 407q98 0 98 -37q0 -8 -6 -18q-24 -37 -87 -37q-41 0 -84 14.5t-65 30.5q-93 -27 -165.5 -83t-108.5 -127q-19 -38 -19 -74q0 -56 46.5 -91t136.5 -35q25 0 52 3q159 17 253 102q79 70 79 147q0 61 -59 61q-71 0 -163 -76q-23 -19 -39 -48t-16 -57t28 -35
q10 -4 10 -10q0 -10 -20 -8q-48 1 -48 63t63 116q86 74 182 74q72 0 91 -45q8 -21 8 -42q0 -93 -103 -175q-123 -100 -312 -100q-117 0 -185 43.5t-68 113.5q0 41 26 82q92 146 314 217q-33 38 -33 81t21 72q41 56 123 92q98 43 196 43q57 0 91.5 -18.5t34.5 -57t-28.5 -65
t-59.5 -26.5t-31 15q0 9 13 9l20 -3q20 0 36.5 21.5t16.5 44.5q0 34 -39 50q-25 10 -47 10t-31 -1q-86 -5 -168 -60q-96 -63 -96 -142q0 -29 20 -54q64 20 122 20zM399 371q43 -34 99 -34t56 31q0 14 -50 14t-105 -11zM653 722q-7 0 -7 5t4 8l105 81q11 9 17 9q9 0 9 -12
t-8 -20q-9 -7 -61 -39t-59 -32z" />
    <glyph glyph-name="Ecircumflex" unicode="&#xca;" horiz-adv-x="691" 
d="M504 407q98 0 98 -37q0 -8 -6 -18q-24 -37 -87 -37q-41 0 -84 14.5t-65 30.5q-93 -27 -165.5 -83t-108.5 -127q-19 -38 -19 -74q0 -56 46.5 -91t136.5 -35q25 0 52 3q159 17 253 102q79 70 79 147q0 61 -59 61q-71 0 -163 -76q-23 -19 -39 -48t-16 -57t28 -35
q10 -4 10 -10q0 -10 -20 -8q-48 1 -48 63t63 116q86 74 182 74q72 0 91 -45q8 -21 8 -42q0 -93 -103 -175q-123 -100 -312 -100q-117 0 -185 43.5t-68 113.5q0 41 26 82q92 146 314 217q-33 38 -33 81t21 72q41 56 123 92q98 43 196 43q57 0 91.5 -18.5t34.5 -57t-28.5 -65
t-59.5 -26.5t-31 15q0 9 13 9l20 -3q20 0 36.5 21.5t16.5 44.5q0 34 -39 50q-25 10 -47 10t-31 -1q-86 -5 -168 -60q-96 -63 -96 -142q0 -29 20 -54q64 20 122 20zM399 371q43 -34 99 -34t56 31q0 14 -50 14t-105 -11zM599 715q-22 -6 -22 7q0 3 10 12q76 46 99 66
q30 25 36 25q15 0 57 -46.5t43.5 -52t1.5 -7.5q0 -10 -8 -10t-43 32t-57 45q-6 -4 -33.5 -21t-51.5 -33t-32 -17z" />
    <glyph glyph-name="Edieresis" unicode="&#xcb;" horiz-adv-x="691" 
d="M504 407q98 0 98 -37q0 -8 -6 -18q-24 -37 -87 -37q-41 0 -84 14.5t-65 30.5q-93 -27 -165.5 -83t-108.5 -127q-19 -38 -19 -74q0 -56 46.5 -91t136.5 -35q25 0 52 3q159 17 253 102q79 70 79 147q0 61 -59 61q-71 0 -163 -76q-23 -19 -39 -48t-16 -57t28 -35
q10 -4 10 -10q0 -10 -20 -8q-48 1 -48 63t63 116q86 74 182 74q72 0 91 -45q8 -21 8 -42q0 -93 -103 -175q-123 -100 -312 -100q-117 0 -185 43.5t-68 113.5q0 41 26 82q92 146 314 217q-33 38 -33 81t21 72q41 56 123 92q98 43 196 43q57 0 91.5 -18.5t34.5 -57t-28.5 -65
t-59.5 -26.5t-31 15q0 9 13 9l20 -3q20 0 36.5 21.5t16.5 44.5q0 34 -39 50q-25 10 -47 10t-31 -1q-86 -5 -168 -60q-96 -63 -96 -142q0 -29 20 -54q64 20 122 20zM399 371q43 -34 99 -34t56 31q0 14 -50 14t-105 -11zM819 793q-1 0 -14 -18l-16 -40q-12 -27 -27 -27
q-7 0 -14 10.5t-7 22t29 32.5q30 21 46 21zM695 794l3 -1q-1 0 -14 -18l-16 -40q-12 -27 -27 -27q-7 0 -14 10.5t-7 22t29 32.5q30 21 46 21zM820 793v-1l-1 1h1zM699 792q0 1 -1 1h1v-1z" />
    <glyph glyph-name="Igrave" unicode="&#xcc;" horiz-adv-x="576" 
d="M714 396l-7 27q0 8 8 8q3 0 8 -3q23 -17 23 -45t-36 -54.5t-91 -26.5q-17 0 -34 3q-69 -127 -168 -234q-132 -140 -240 -140q-156 0 -156 184q0 152 81 245q68 80 156 80q23 0 47 -8q59 -23 59 -97.5t-61 -155.5t-125 -81q-72 0 -72 78q0 22 9.5 46t21.5 24q9 0 9 -9
q0 -5 -9 -25t-9 -35.5t16.5 -29t34.5 -13.5q59 0 109.5 72.5t50.5 141.5q0 53 -38 70q-13 5 -27 5q-71 0 -142 -98q-69 -99 -69 -217q0 -65 28 -106q29 -42 80 -42q132 0 344 359q-110 33 -110 130q0 129 131 206q83 48 161 48q61 0 110 -20q69 -27 69 -82q0 -12 -5.5 -23
t-11.5 -11q-13 13 -31 13q-85 0 -233 -253q8 -1 17 -1q34 0 68 20t34 50zM603.5 645.5q-66.5 -29.5 -106 -86.5t-39.5 -129t74 -86q55 90 142 179.5t145 89.5q15 0 26 -7q-1 28 -39 49q-34 20 -85 20t-117.5 -29.5zM865 735q4 -3 4 -7.5t-6 -4.5t-59 32t-62 38.5t-9 19
t10 12.5q12 0 122 -90z" />
    <glyph glyph-name="Iacute" unicode="&#xcd;" horiz-adv-x="576" 
d="M714 396l-7 27q0 8 8 8q3 0 8 -3q23 -17 23 -45t-36 -54.5t-91 -26.5q-17 0 -34 3q-69 -127 -168 -234q-132 -140 -240 -140q-156 0 -156 184q0 152 81 245q68 80 156 80q23 0 47 -8q59 -23 59 -97.5t-61 -155.5t-125 -81q-72 0 -72 78q0 22 9.5 46t21.5 24q9 0 9 -9
q0 -5 -9 -25t-9 -35.5t16.5 -29t34.5 -13.5q59 0 109.5 72.5t50.5 141.5q0 53 -38 70q-13 5 -27 5q-71 0 -142 -98q-69 -99 -69 -217q0 -65 28 -106q29 -42 80 -42q132 0 344 359q-110 33 -110 130q0 129 131 206q83 48 161 48q61 0 110 -20q69 -27 69 -82q0 -12 -5.5 -23
t-11.5 -11q-13 13 -31 13q-85 0 -233 -253q8 -1 17 -1q34 0 68 20t34 50zM603.5 645.5q-66.5 -29.5 -106 -86.5t-39.5 -129t74 -86q55 90 142 179.5t145 89.5q15 0 26 -7q-1 28 -39 49q-34 20 -85 20t-117.5 -29.5zM770 722q-7 0 -7 5t4 8l105 81q10 9 18 9t8 -12t-8 -20
q-9 -7 -61 -39t-59 -32z" />
    <glyph glyph-name="Icircumflex" unicode="&#xce;" horiz-adv-x="576" 
d="M714 396l-7 27q0 8 8 8q3 0 8 -3q23 -17 23 -45t-36 -54.5t-91 -26.5q-17 0 -34 3q-69 -127 -168 -234q-132 -140 -240 -140q-156 0 -156 184q0 152 81 245q68 80 156 80q23 0 47 -8q59 -23 59 -97.5t-61 -155.5t-125 -81q-72 0 -72 78q0 22 9.5 46t21.5 24q9 0 9 -9
q0 -5 -9 -25t-9 -35.5t16.5 -29t34.5 -13.5q59 0 109.5 72.5t50.5 141.5q0 53 -38 70q-13 5 -27 5q-71 0 -142 -98q-69 -99 -69 -217q0 -65 28 -106q29 -42 80 -42q132 0 344 359q-110 33 -110 130q0 129 131 206q83 48 161 48q61 0 110 -20q69 -27 69 -82q0 -12 -5.5 -23
t-11.5 -11q-13 13 -31 13q-85 0 -233 -253q8 -1 17 -1q34 0 68 20t34 50zM603.5 645.5q-66.5 -29.5 -106 -86.5t-39.5 -129t74 -86q55 90 142 179.5t145 89.5q15 0 26 -7q-1 28 -39 49q-34 20 -85 20t-117.5 -29.5zM680 715q-22 -6 -22 7q0 3 10 12q76 46 99 66q30 25 36 25
q15 0 57 -46.5t43.5 -52t1.5 -7.5q0 -10 -8 -10t-43 32t-57 45q-6 -4 -33.5 -21t-51.5 -33t-32 -17z" />
    <glyph glyph-name="Idieresis" unicode="&#xcf;" horiz-adv-x="576" 
d="M714 396l-7 27q0 8 8 8q3 0 8 -3q23 -17 23 -45t-36 -54.5t-91 -26.5q-17 0 -34 3q-69 -127 -168 -234q-132 -140 -240 -140q-156 0 -156 184q0 152 81 245q68 80 156 80q23 0 47 -8q59 -23 59 -97.5t-61 -155.5t-125 -81q-72 0 -72 78q0 22 9.5 46t21.5 24q9 0 9 -9
q0 -5 -9 -25t-9 -35.5t16.5 -29t34.5 -13.5q59 0 109.5 72.5t50.5 141.5q0 53 -38 70q-13 5 -27 5q-71 0 -142 -98q-69 -99 -69 -217q0 -65 28 -106q29 -42 80 -42q132 0 344 359q-110 33 -110 130q0 129 131 206q83 48 161 48q61 0 110 -20q69 -27 69 -82q0 -12 -5.5 -23
t-11.5 -11q-13 13 -31 13q-85 0 -233 -253q8 -1 17 -1q34 0 68 20t34 50zM603.5 645.5q-66.5 -29.5 -106 -86.5t-39.5 -129t74 -86q55 90 142 179.5t145 89.5q15 0 26 -7q-1 28 -39 49q-34 20 -85 20t-117.5 -29.5zM821 739q-7 0 -14 10.5t-7 22t29 32.5q30 21 46 21
q1 0 3 -1q-1 0 -14 -18l-16 -40q-12 -27 -27 -27zM757 824q-1 0 -14 -18l-16 -40q-12 -27 -27 -27q-7 0 -14 10.5t-7 22t29 32.5q30 21 46 21zM879 824v-1l-1 1h1zM758 824v-1l-1 1h1z" />
    <glyph glyph-name="Eth" unicode="&#xd0;" horiz-adv-x="921" 
d="M526 277q0 -18 -129 -36q-85 -113 -185 -196q56 -83 176 -83q13 0 39 2q278 26 394 241q47 86 47 170t-61 151q-49 55 -106.5 68t-117.5 13q-154 0 -284 -71q-137 -75 -137 -168q0 -25 13.5 -41t18.5 -18h-6q-26 5 -46 26q-22 26 -22 55q0 100 125.5 172t294.5 72
q78 0 160 -18t149 -86q77 -80 77 -181q0 -75 -44 -155q-76 -138 -227 -202q-121 -51 -261 -51t-207 84q-88 -68 -129 -68q-22 0 -32.5 21.5t-10.5 46.5q0 48 40.5 144t77.5 96q19 0 32.5 -75t27.5 -109q45 46 125 148q-12 0 -27 3q-32 6 -32 21q0 10 8.5 17t14.5 7t12 1h63
l33 43q162 213 215 233q18 7 37 7t31.5 -8t12.5 -20q0 -17 -29 -20q-35 -19 -108 -92q-69 -67 -125 -144q66 0 101 3q1 -1 1 -3zM51 29q0 -31 12 -54q43 19 104 79q-29 48 -36.5 75.5t-10.5 72.5q-69 -99 -69 -173zM194 309q1 0 2 1q0 -2 -0.5 -2t-1.5 1z" />
    <glyph glyph-name="Ntilde" unicode="&#xd1;" horiz-adv-x="925" 
d="M402 12q-24 -37 -24 -48.5t9 -15.5q0 -2 -16.5 -12.5t-45.5 -10.5t-29 15q0 26 98.5 172.5t129.5 202.5q68 122 68 193q0 28 -11 52q-17 36 -82 36q-119 0 -253 -109q-102 -84 -157 -174q-50 -85 -50 -152q0 -96 89 -98h8q118 0 179 83q24 33 24 56t-11 29q-1 1 -1 4t6 3
q26 0 26 -34q0 -21 -20 -57t-72.5 -68t-119.5 -32t-106 39t-39 105q0 156 214 328q54 43 140.5 72t157 29t99.5 -26.5t29 -73.5q0 -114 -138 -323q31 39 101 99q249 209 428 275q9 4 20 4q38 0 48 -43q5 -17 -48 -71q-125 -128 -212 -280t-87 -218q0 -16 6 -22.5t19 -4
t54.5 20.5t54.5 21q5 -2 5 -5q0 -15 -52.5 -42t-78.5 -27t-33 9q-18 25 -18 63q0 86 92 247q59 101 182 272q-133 -12 -344 -210q-168 -159 -239 -273zM1021 732q0 -15 -40 -42q-13 -8 -29.5 -8t-49 13.5t-49 13.5t-32.5 -13t-21 -13q-1 1 -1 2q0 16 43 41q16 10 33.5 10
t49 -10.5t52 -10.5t38.5 21q6 0 6 -4z" />
    <glyph glyph-name="Ograve" unicode="&#xd2;" horiz-adv-x="784" 
d="M812 356q0 -125 -128 -239q-197 -176 -441 -176q-27 0 -42 1q-80 4 -128.5 52.5t-48.5 125.5t41 168q52 115 203 224q174 124 360 124q100 0 152 -39t52 -97q0 -36 -28 -89q8 -27 8 -55zM791 441q10 24 10 53.5t-22 60.5q-43 60 -152 60q-151 0 -285 -93.5t-209 -235.5
q-55 -103 -55 -185q0 -132 133 -139q14 -1 28 -1q197 0 375 159q128 114 138 217q-52 -57 -180 -136l-8 -2q-1 0 -1 1q0 4 27 27l56 46q72 63 105 103q-7 56 -50.5 93.5t-99.5 54.5q-28 7 -86.5 9t-58.5 4t2 4q46 15 88.5 15t97.5 -13q105 -25 147 -102zM790 715
q4 -3 4 -7.5t-6 -4.5t-59 32t-62 38.5t-9 19t10 12.5q12 0 122 -90z" />
    <glyph glyph-name="Oacute" unicode="&#xd3;" horiz-adv-x="784" 
d="M812 356q0 -125 -128 -239q-197 -176 -441 -176q-27 0 -42 1q-80 4 -128.5 52.5t-48.5 125.5t41 168q52 115 203 224q174 124 360 124q100 0 152 -39t52 -97q0 -36 -28 -89q8 -27 8 -55zM791 441q10 24 10 53.5t-22 60.5q-43 60 -152 60q-151 0 -285 -93.5t-209 -235.5
q-55 -103 -55 -185q0 -132 133 -139q14 -1 28 -1q197 0 375 159q128 114 138 217q-52 -57 -180 -136l-8 -2q-1 0 -1 1q0 4 27 27l56 46q72 63 105 103q-7 56 -50.5 93.5t-99.5 54.5q-28 7 -86.5 9t-58.5 4t2 4q46 15 88.5 15t97.5 -13q105 -25 147 -102zM673 702q-7 0 -7 5
t4 8l105 81q11 9 17 9q9 0 9 -12t-8 -20q-9 -7 -61 -39t-59 -32z" />
    <glyph glyph-name="Ocircumflex" unicode="&#xd4;" horiz-adv-x="784" 
d="M812 356q0 -125 -128 -239q-197 -176 -441 -176q-27 0 -42 1q-80 4 -128.5 52.5t-48.5 125.5t41 168q52 115 203 224q174 124 360 124q100 0 152 -39t52 -97q0 -36 -28 -89q8 -27 8 -55zM791 441q10 24 10 53.5t-22 60.5q-43 60 -152 60q-151 0 -285 -93.5t-209 -235.5
q-55 -103 -55 -185q0 -132 133 -139q14 -1 28 -1q197 0 375 159q128 114 138 217q-52 -57 -180 -136l-8 -2q-1 0 -1 1q0 4 27 27l56 46q72 63 105 103q-7 56 -50.5 93.5t-99.5 54.5q-28 7 -86.5 9t-58.5 4t2 4q46 15 88.5 15t97.5 -13q105 -25 147 -102zM575 686q-5 1 -5 4
q0 4 11 13q109 67 156 107l7 3q12 -1 60 -52q42 -48 42 -59.5t-9 -11.5q-11 0 -43.5 28t-56.5 54q-6 -4 -33.5 -21t-62.5 -40t-66 -25z" />
    <glyph glyph-name="Otilde" unicode="&#xd5;" horiz-adv-x="784" 
d="M812 356q0 -125 -128 -239q-197 -176 -441 -176q-27 0 -42 1q-80 4 -128.5 52.5t-48.5 125.5t41 168q52 115 203 224q174 124 360 124q100 0 152 -39t52 -97q0 -36 -28 -89q8 -27 8 -55zM791 441q10 24 10 53.5t-22 60.5q-43 60 -152 60q-151 0 -285 -93.5t-209 -235.5
q-55 -103 -55 -185q0 -132 133 -139q14 -1 28 -1q197 0 375 159q128 114 138 217q-52 -57 -180 -136l-8 -2q-1 0 -1 1q0 4 27 27l56 46q72 63 105 103q-7 56 -50.5 93.5t-99.5 54.5q-28 7 -86.5 9t-58.5 4t2 4q46 15 88.5 15t97.5 -13q105 -25 147 -102zM842 732
q0 -15 -40 -42q-13 -8 -29.5 -8t-49 13.5t-49 13.5t-32.5 -13t-21 -13q-1 1 -1 2q0 16 43 41q16 10 33.5 10t49 -10.5t52 -10.5t38.5 21q6 0 6 -4z" />
    <glyph glyph-name="Odieresis" unicode="&#xd6;" horiz-adv-x="784" 
d="M812 356q0 -125 -128 -239q-197 -176 -441 -176q-27 0 -42 1q-80 4 -128.5 52.5t-48.5 125.5t41 168q52 115 203 224q174 124 360 124q100 0 152 -39t52 -97q0 -36 -28 -89q8 -27 8 -55zM791 441q10 24 10 53.5t-22 60.5q-43 60 -152 60q-151 0 -285 -93.5t-209 -235.5
q-55 -103 -55 -185q0 -132 133 -139q14 -1 28 -1q197 0 375 159q128 114 138 217q-52 -57 -180 -136l-8 -2q-1 0 -1 1q0 4 27 27l56 46q72 63 105 103q-7 56 -50.5 93.5t-99.5 54.5q-28 7 -86.5 9t-58.5 4t2 4q46 15 88.5 15t97.5 -13q105 -25 147 -102zM815 788
q-1 0 -14 -18l-16 -40q-12 -27 -27 -27q-7 0 -14 10.5t-7 22t29 32.5q30 21 46 21zM637 703q-7 0 -14 10.5t-7 22t29 32.5q30 21 46 21q1 0 3 -1q-1 0 -14 -18l-16 -40q-12 -27 -27 -27zM816 788v-1l-1 1h1zM695 788v-1l-1 1h1z" />
    <glyph glyph-name="multiply" unicode="&#xd7;" horiz-adv-x="284" 
d="M125 299l13 1q10 0 13.5 -11.5t13.5 -81.5q12 12 61.5 52t51.5 40q13 0 13 -12q0 -3 -4 -7l-119 -91q15 -91 59 -91q5 0 28 7q3 0 3 -2q0 -7 -25 -16t-43 -9t-30.5 20t-24.5 71q-8 -10 -52 -51.5t-53 -41.5t-9 5q5 10 51.5 54t58.5 52l-10 56q-6 23 -15 34t-14.5 12.5
t-5.5 3.5q0 6 39 6z" />
    <glyph glyph-name="Oslash" unicode="&#xd8;" horiz-adv-x="784" 
d="M726 698q11 0 17.5 -6.5t6.5 -13.5t-9 -18l-29 -33q42 -11 69 -31q51 -38 51 -96q0 -36 -28 -89q8 -27 8 -55q0 -125 -128 -239q-197 -176 -441 -176h-22q-2 -7 -2 -23.5t7.5 -20t3.5 -11.5q-7 -10 -21 -10q-17 0 -17 24t4 43q-78 5 -125 53t-47 124.5t41 167.5
q52 115 203 224q174 124 360 124q23 0 33 -1q54 63 65 63zM458 541q46 15 79.5 15t57.5 -4q10 14 27.5 35.5t21.5 26.5q-5 1 -17 1q-151 0 -285 -93.5t-209 -235.5q-55 -103 -55 -185q0 -126 123 -138q2 9 13 39q31 85 261 394q83 109 101 132q-19 3 -69.5 5t-50.5 4t2 4z
M240 -38q197 0 374 158q128 114 138 217q-52 -57 -180 -136l-8 -2q-1 0 -1 1q0 4 27 27l56 46q72 63 105 103q-7 56 -54 96q-33 29 -76 45q-66 -82 -176 -228q-179 -238 -217 -327h12zM791 441q10 24 10 53.5t-25 64.5t-80 48q-7 -8 -53 -64h1q105 -25 147 -102z" />
    <glyph glyph-name="Ugrave" unicode="&#xd9;" horiz-adv-x="801" 
d="M345 -19q-43 0 -43 30q0 52 132.5 238.5t160.5 229.5q61 94 61 128q0 17 -13 21q-24 10 -56 10q-110 0 -281 -117q-112 -78 -185.5 -182.5t-73.5 -172.5q0 -49 40 -56q16 -3 32 -3q51 0 105 33q27 16 68 53l18 6q-19 -36 -79.5 -73t-124.5 -37q-15 0 -35 4t-38.5 28.5
t-18.5 64.5q0 157 296 369q60 41 142 73.5t149 32.5q34 0 65.5 -13t31.5 -43.5t-35.5 -87t-111 -159t-128 -191.5t-52.5 -124q0 -17 14 -17q27 0 101 56q176 134 414 435q38 48 61 48q9 0 9 -9q0 -4 -3 -10q1 -3 1 -6q0 -21 -24 -57l-118 -167q-72 -104 -127 -197t-51 -109
l18 6q50 28 87 65q13 10 16 10l2 -2q0 -9 -27 -38q-70 -61 -100 -61t-30 19t53.5 118t171.5 273q-20 -24 -63 -71q-246 -252 -295 -291q-73 -57 -136 -57zM871 645q0 -6 -6 -6t-55 29.5t-62 38.5t-13 21.5t10 12.5q15 0 122 -90q4 -3 4 -6z" />
    <glyph glyph-name="Uacute" unicode="&#xda;" horiz-adv-x="801" 
d="M345 -19q-43 0 -43 30q0 52 132.5 238.5t160.5 229.5q61 94 61 128q0 17 -13 21q-24 10 -56 10q-110 0 -281 -117q-112 -78 -185.5 -182.5t-73.5 -172.5q0 -49 40 -56q16 -3 32 -3q51 0 105 33q27 16 68 53l18 6q-19 -36 -79.5 -73t-124.5 -37q-15 0 -35 4t-38.5 28.5
t-18.5 64.5q0 157 296 369q60 41 142 73.5t149 32.5q34 0 65.5 -13t31.5 -43.5t-35.5 -87t-111 -159t-128 -191.5t-52.5 -124q0 -17 14 -17q27 0 101 56q176 134 414 435q38 48 61 48q9 0 9 -9q0 -4 -3 -10q1 -3 1 -6q0 -21 -24 -57l-118 -167q-72 -104 -127 -197t-51 -109
l18 6q50 28 87 65q13 10 16 10l2 -2q0 -9 -27 -38q-70 -61 -100 -61t-30 19t53.5 118t171.5 273q-20 -24 -63 -71q-246 -252 -295 -291q-73 -57 -136 -57zM900 712q10 9 18 9t8 -11.5t-10 -21t-60.5 -40t-57 -30.5t-6.5 7q0 3 3 6z" />
    <glyph glyph-name="Ucircumflex" unicode="&#xdb;" horiz-adv-x="801" 
d="M345 -19q-43 0 -43 30q0 52 132.5 238.5t160.5 229.5q61 94 61 128q0 17 -13 21q-24 10 -56 10q-110 0 -281 -117q-112 -78 -185.5 -182.5t-73.5 -172.5q0 -49 40 -56q16 -3 32 -3q51 0 105 33q27 16 68 53l18 6q-19 -36 -79.5 -73t-124.5 -37q-15 0 -35 4t-38.5 28.5
t-18.5 64.5q0 157 296 369q60 43 142 74.5t149 31.5q34 0 65.5 -13t31.5 -43.5t-35.5 -87t-111 -159t-128 -191.5t-52.5 -124q0 -17 14 -17q27 0 101 56q176 134 414 435q38 48 61 48q9 0 9 -9q0 -4 -3 -10q1 -3 1 -6q0 -21 -24 -57l-118 -167q-72 -104 -127 -197t-51 -109
l18 6q50 28 87 65q13 10 16 10l2 -2q0 -9 -27 -38q-70 -61 -100 -61t-30 19t53.5 118t171.5 273q-20 -24 -63 -71q-246 -252 -295 -291q-73 -57 -136 -57zM779 677q-22 -6 -22 7q0 3 10 12q76 46 99 66q30 25 36 25q15 0 57 -46.5t43.5 -52t1.5 -7.5q0 -10 -8 -10t-43 32
t-57 45q-6 -4 -33.5 -21t-51.5 -33t-32 -17z" />
    <glyph glyph-name="Udieresis" unicode="&#xdc;" horiz-adv-x="801" 
d="M345 -19q-43 0 -43 30q0 52 132.5 238.5t160.5 229.5q61 94 61 128q0 17 -13 21q-24 10 -56 10q-110 0 -281 -117q-112 -78 -185.5 -182.5t-73.5 -172.5q0 -49 40 -56q16 -3 32 -3q51 0 105 33q27 16 68 53l18 6q-19 -36 -79.5 -73t-124.5 -37q-15 0 -35 4t-38.5 28.5
t-18.5 64.5q0 157 296 369q60 43 142 74.5t149 31.5q34 0 65.5 -13t31.5 -43.5t-35.5 -87t-111 -159t-128 -191.5t-52.5 -124q0 -17 14 -17q27 0 101 56q176 134 414 435q38 48 61 48q9 0 9 -9q0 -4 -3 -10q1 -3 1 -6q0 -21 -24 -57l-118 -167q-72 -104 -127 -197t-51 -109
l18 6q50 28 87 65q13 10 16 10l2 -2q0 -9 -27 -38q-70 -61 -100 -61t-30 19t53.5 118t171.5 273q-20 -24 -63 -71q-246 -252 -295 -291q-73 -57 -136 -57zM783 641q-7 0 -14 10.5t-7 22t29 32.5q30 21 46 21q1 0 3 -1q-1 0 -14 -18l-16 -40q-12 -27 -27 -27zM961 726
q-1 0 -14 -18l-16 -40q-12 -27 -27 -27q-7 0 -14 10.5t-7 22t29 32.5q30 21 46 21zM841 725q0 1 -1 1h1v-1zM962 725q0 1 -1 1h1v-1z" />
    <glyph glyph-name="Yacute" unicode="&#xdd;" horiz-adv-x="882" 
d="M336 -254q-38 0 -74.5 27t-36.5 60q0 21 21 21q5 0 15 -2q12 -42 20 -57q17 -27 58 -27q123 0 302 336l180 321q-193 -206 -273.5 -286.5t-110.5 -98.5q-60 -36 -99 -36q-57 0 -57 67q0 80 68 165q5 6 42.5 51.5t88 108.5t84 121.5t33.5 82t-14 30.5q-29 15 -66 15
q-106 0 -293 -128q-78 -53 -124 -123t-46 -129t57 -74q18 -5 35 -5q51 0 113 44q73 49 82 52q-10 -37 -79 -81q-76 -47 -142 -47q-9 0 -33.5 3.5t-48.5 36.5t-24 80q0 136 199 278q58 42 153 76t153.5 34t89 -18.5t30.5 -59t-56 -126t-177 -232.5q-25 -29 -46 -75.5t-21 -74
t21.5 -27.5t64.5 31q122 87 243.5 211t178.5 208q41 59 87 59q16 0 16 -10q0 -2 -2 -8q-126 -220 -343 -584q-64 -105 -136.5 -157.5t-132.5 -52.5zM759 653q-7 0 -7 5t4 8l105 81q11 9 17 9q9 0 9 -12t-8 -20q-9 -7 -61 -39t-59 -32z" />
    <glyph glyph-name="Thorn" unicode="&#xde;" horiz-adv-x="165" 
d="M399 613l-37 -7q-6 0 -5 6q5 15 41.5 15t51.5 -11t15 -22t-2.5 -21t-28 -50.5t-62 -100t-48.5 -76.5q10 9 40 18q38 10 54 10q36 0 62.5 -20.5t26.5 -59.5t-23.5 -84.5t-70.5 -82.5q-71 -55 -159 -55q-45 0 -63.5 5.5t-37.5 24.5q-174 -255 -174 -299q0 -12 13 -12l34 11
q3 0 1 -2q-2 -7 -17 -13.5t-23 -6.5q-40 0 -40 36q0 50 73 162l346 527q40 66 45 87q6 21 -12 21zM456 308q0 38 -45 38t-82 -19q-14 -7 -44 -37q-104 -147 -120 -171q21 -19 76 -19q77 0 132 43q83 66 83 165z" />
    <glyph glyph-name="germandbls" unicode="&#xdf;" horiz-adv-x="581" 
d="M159 120q-18 0 -18 -34.5t27 -61.5q14 -14 36 -21q-25 25 -37 91q-5 26 -8 26zM-393 -152q-27 -34 -27 -68t25 -54.5t73 -20.5t87 31q83 63 158.5 174t122.5 214q156 338 220 439t143 101q67 0 101 -25t34 -98q0 -53 -33 -83t-100 -52q-28 -10 -43.5 -17t-33 -25
t-17.5 -42q0 -39 70 -59q112 -23 138 -41q36 -27 36 -62q0 -53 -52 -97t-113 -63.5t-113 -19.5q-5 0 -47 7q7 -4 37.5 -16.5t38 -14.5t7.5 -4q0 -4 -10 -4t-42.5 14.5t-47.5 26.5q-43 6 -61 23q-14 11 -24.5 31t-10.5 38.5t12.5 34.5t31.5 16q17 0 20 -29q4 -29 8.5 -45
t9.5 -32.5t17 -27.5q22 -5 44 -5q100 0 195 76q45 36 45 74.5t-51 51.5l-108 27q-32 9 -52 30t-20 47q0 44 35 75.5t82.5 46.5t76.5 48.5t29 76t-22.5 69t-61 26.5t-81 -53t-84.5 -138t-88 -187t-99.5 -204.5t-111 -187.5t-130 -138t-148.5 -53q-53 0 -83.5 23t-30.5 57
q0 33 21 69l15 14q3 6 12 6z" />
    <glyph glyph-name="agrave" unicode="&#xe0;" horiz-adv-x="412" 
d="M332 299l14 3q11 0 21 -9.5t10 -14t-62 -96t-62 -127.5q0 -3 1 -6q5 -23 22 -23q52 0 190 172q3 4 7 4t4 -7.5t-9 -19.5q-128 -171 -195 -171q-9 0 -17 3q-44 17 -44 66q0 17 4 34l-63 -60q-58 -52 -84.5 -52t-50.5 17q-27 20 -27 53q0 73 102 174.5t187 101.5
q33 0 44 -23q3 -8 5 -13.5t3 -5.5zM33 53q0 -36 25 -36q57 0 157 127q98 133 107 146q-8 14 -26 14q-61 0 -162 -94.5t-101 -156.5zM339 397q0 -6 -5 -6q-7 0 -46.5 24t-53.5 36q-7 4 -7 14.5t7.5 10.5t51.5 -33.5t48.5 -38.5t4.5 -7z" />
    <glyph glyph-name="aacute" unicode="&#xe1;" horiz-adv-x="412" 
d="M332 299l14 3q11 0 21 -9.5t10 -14t-62 -96t-62 -127.5q0 -3 1 -6q5 -23 22 -23q52 0 190 172q3 4 7 4t4 -7.5t-9 -19.5q-128 -171 -195 -171q-9 0 -17 3q-44 17 -44 66q0 17 4 34l-63 -60q-58 -52 -84.5 -52t-50.5 17q-27 20 -27 53q0 73 102 174.5t187 101.5
q33 0 44 -23q3 -8 5 -13.5t3 -5.5zM33 53q0 -36 25 -36q57 0 157 127q98 133 107 146q-8 14 -26 14q-61 0 -162 -94.5t-101 -156.5zM407 488q-9 -7 -62 -39t-59 -32t-6 6q0 3 3 6l106 82q11 9 17 9q9 0 9 -12t-8 -20z" />
    <glyph glyph-name="acircumflex" unicode="&#xe2;" horiz-adv-x="412" 
d="M332 299l14 3q11 0 21 -9.5t10 -14t-62 -96t-62 -127.5q0 -3 1 -6q5 -23 22 -23q52 0 190 172q3 4 7 4t4 -7.5t-9 -19.5q-128 -171 -195 -171q-9 0 -17 3q-44 17 -44 66q0 17 4 34l-63 -60q-58 -52 -84.5 -52t-50.5 17q-27 20 -27 53q0 73 102 174.5t187 101.5
q33 0 44 -23q3 -8 5 -13.5t3 -5.5zM33 53q0 -36 25 -36q57 0 157 127q98 133 107 146q-8 14 -26 14q-61 0 -162 -94.5t-101 -156.5zM264 379q-4 0 -4 6t34 34t43 30l4 -1q23 -26 71 -61l3 -6l-3 -4q-11 0 -41 19t-42 31q-57 -48 -65 -48z" />
    <glyph glyph-name="atilde" unicode="&#xe3;" horiz-adv-x="412" 
d="M332 299l14 3q11 0 21 -9.5t10 -14t-62 -96t-62 -127.5q0 -3 1 -6q5 -23 22 -23q52 0 190 172q3 4 7 4t4 -7.5t-9 -19.5q-128 -171 -195 -171q-9 0 -17 3q-44 17 -44 66q0 17 4 34l-63 -60q-58 -52 -84.5 -52t-50.5 17q-27 20 -27 53q0 73 102 174.5t187 101.5
q33 0 44 -23q3 -8 5 -13.5t3 -5.5zM33 53q0 -36 25 -36q57 0 157 127q98 133 107 146q-8 14 -26 14q-61 0 -162 -94.5t-101 -156.5zM321 442l69 -15q18 0 30 15q2 1 3.5 1t1.5 -3q0 -10 -19 -23t-30.5 -13t-35.5 9q-21 10 -33.5 10t-42.5 -19q-1 1 -1 2q0 13 31 29
q13 7 27 7z" />
    <glyph glyph-name="adieresis" unicode="&#xe4;" horiz-adv-x="412" 
d="M332 299l14 3q11 0 21 -9.5t10 -14t-62 -96t-62 -127.5q0 -3 1 -6q5 -23 22 -23q52 0 190 172q3 4 7 4t4 -7.5t-9 -19.5q-128 -171 -195 -171q-9 0 -17 3q-44 17 -44 66q0 17 4 34l-63 -60q-58 -52 -84.5 -52t-50.5 17q-27 20 -27 53q0 73 102 174.5t187 101.5
q33 0 44 -23q3 -8 5 -13.5t3 -5.5zM33 53q0 -36 25 -36q57 0 157 127q98 133 107 146q-8 14 -26 14q-61 0 -162 -94.5t-101 -156.5zM380 398q-6 0 -12 8.5t-6 14.5q0 13 25 30t31.5 17t7.5 -1v1q1 -1 1 -2q-6 -8 -12 -14l-14 -32q-9 -22 -21 -22zM281 398q-6 0 -11.5 8.5
t-5.5 14.5q0 13 25 30t31.5 17t7.5 -1v-1l-11 -14l-14 -32q-9 -22 -22 -22z" />
    <glyph glyph-name="aring" unicode="&#xe5;" horiz-adv-x="412" 
d="M33 53q0 -36 25 -36q58 0 158 127l106 146q-8 14 -26 14q-61 0 -162 -94.5t-101 -156.5zM332 299l14 3q11 0 21 -9t10 -14t-62 -96.5t-62 -127.5q0 -3 1 -6q5 -23 22 -23q52 0 190 172q3 4 7 4t4 -7.5t-9 -19.5q-128 -171 -195 -171q-9 0 -17 3q-44 17 -44 66q0 17 4 34
l-62 -60q-59 -52 -85.5 -52t-50.5 17q-27 20 -27 55q0 73 96 167q106 106 190 107q-5 10 -5 26.5t11 40.5t28 29q17 32 51 32q18 0 30.5 -15.5t12.5 -42.5t-25 -55.5t-58 -32.5q2 -3 4 -9q3 -15 6 -15zM364 365.5q17 23.5 17 54.5t-22 31q-10 0 -29 -14l11 -5
q-1 -3 -16.5 -26.5t-15.5 -43.5t15 -20q23 0 40 23.5z" />
    <glyph glyph-name="ae" unicode="&#xe6;" horiz-adv-x="282" 
d="M336 90q0 -3 -1 -5q-19 -31 -63.5 -60t-73.5 -29t-40 11q-7 14 -17 29q-4 20 -4 34.5t1 24.5q-56 -99 -99 -99q-26 0 -26 28q0 42 41 104q56 81 110 81q28 0 42 -20q26 23 53 23q21 0 21 -25t-37 -59.5t-66 -45.5q-6 -20 -6 -35q0 -33 30 -33q58 0 120 71q8 8 11.5 8
t3.5 -3zM255 179q0 9 -10 9q-13 0 -35 -35.5t-28 -53.5q24 11 48.5 35t24.5 45zM161 182q-35 0 -77.5 -53t-42.5 -91q0 -17 13 -17q27 0 67 67q30 48 48 93q-2 1 -8 1z" />
    <glyph glyph-name="ccedilla" unicode="&#xe7;" horiz-adv-x="283" 
d="M80 -181q0 -47 -48.5 -73t-100.5 -26q-9 0 -9 11q0 5 9 8q48 8 72 11q35 11 35 58q0 13 -26 50.5t-26 61.5t12.5 47t34.5 32q-41 20 -41 63q0 70 88 162t158 92q23 0 37.5 -12.5t14.5 -34t-13 -45t-39 -23.5t-26 16q0 11 13.5 33.5t13.5 24t-3 1.5q-28 -3 -76.5 -40
t-66.5 -62l-39 -57q-10 -16 -14.5 -38t-4.5 -33t12.5 -25t35.5 -14q50 0 124 58.5t114 111.5q5 6 12 6t7 -4t-5 -10q-55 -73 -131.5 -127.5t-127.5 -54.5q-14 0 -18 2t-5 2q-32 -16 -32 -59q0 -11 29.5 -48.5t29.5 -64.5z" />
    <glyph glyph-name="egrave" unicode="&#xe8;" horiz-adv-x="257" 
d="M51 -13q-11 0 -20 3q-64 18 -64 72q0 70 88 162t158 92q23 0 37.5 -12.5t14.5 -30.5q0 -56 -84.5 -107t-137.5 -51q-8 0 -14 2q-15 -27 -15 -57q0 -52 49.5 -52t128.5 67q59 47 104 105q9 12 15.5 12t6.5 -6t-8 -17q-56 -73 -131 -127.5t-128 -54.5zM240 275
q0 12 -25.5 12t-72.5 -39q-63 -52 -98 -109q6 -2 13 -2q38 0 101.5 40.5t79.5 88.5q2 5 2 9zM264 364q0 -5 -4 -5q-8 0 -102 58q-7 6 -7 16.5t7 10.5t23.5 -12t79.5 -63q3 -3 3 -5z" />
    <glyph glyph-name="eacute" unicode="&#xe9;" horiz-adv-x="257" 
d="M227 368q-6 0 -6 6q0 3 3 6q50 38 105 82q11 8 17 8q10 0 10 -12.5t-10 -19.5q-10 -9 -61.5 -39.5t-57.5 -30.5zM51 -13q-11 0 -20 3q-64 18 -64 72q0 70 88 162t158 92q23 0 37.5 -12.5t14.5 -30.5q0 -56 -84.5 -107t-137.5 -51q-8 0 -14 2q-15 -27 -15 -57
q0 -52 49.5 -52t128.5 67q59 47 104 105q9 12 15.5 12t6.5 -6t-8 -17q-56 -73 -131 -127.5t-128 -54.5zM240 275q0 12 -25.5 12t-72.5 -39q-63 -52 -98 -109q6 -2 13 -2q38 0 101.5 40.5t79.5 88.5q2 5 2 9z" />
    <glyph glyph-name="ecircumflex" unicode="&#xea;" horiz-adv-x="257" 
d="M51 -13q-11 0 -20 3q-64 18 -64 72q0 70 88 162t158 92q23 0 37.5 -12.5t14.5 -30.5q0 -56 -84.5 -107t-137.5 -51q-8 0 -14 2q-15 -27 -15 -57q0 -52 49.5 -52t128.5 67q59 47 104 105q9 12 15.5 12t6.5 -6t-8 -17q-56 -73 -131 -127.5t-128 -54.5zM240 275
q0 12 -25.5 12t-72.5 -39q-63 -52 -98 -109q6 -2 13 -2q38 0 101.5 40.5t79.5 88.5q2 5 2 9zM240 399q-58 -47 -63.5 -47t-5.5 6t34 34t43 30l4 -2q23 -25 71 -61l3 -5l-3 -5q-13 2 -43 21t-40 29z" />
    <glyph glyph-name="edieresis" unicode="&#xeb;" horiz-adv-x="257" 
d="M51 -13q-11 0 -20 3q-64 18 -64 72q0 70 88 162t158 92q23 0 37.5 -12.5t14.5 -30.5q0 -56 -84.5 -107t-137.5 -51q-8 0 -14 2q-15 -27 -15 -57q0 -52 49.5 -52t128.5 67q59 47 104 105q9 12 15.5 12t6.5 -6t-8 -17q-56 -73 -131 -127.5t-128 -54.5zM240 275
q0 12 -25.5 12t-72.5 -39q-63 -52 -98 -109q6 -2 13 -2q38 0 101.5 40.5t79.5 88.5q2 5 2 9zM303 343q-6 0 -11.5 8.5t-5.5 18.5t25 27t37 17q1 0 3 -2l-12 -14l-14 -33q-9 -22 -22 -22zM205 343q-6 0 -11.5 8.5t-5.5 18.5t24 26q24 18 37 18q2 0 3 -1v-1q-6 -8 -12 -14
q-8 -22 -15.5 -38.5t-19.5 -16.5z" />
    <glyph glyph-name="igrave" unicode="&#xec;" horiz-adv-x="226" 
d="M44 -12q-59 0 -59 67q0 54 59 149.5t95 96.5q10 0 22.5 -8t12.5 -16q-5 -7 -12 -15.5t-15 -18.5t-22 -28.5t-27 -35.5q-75 -97 -75 -133t27 -36q36 0 99.5 53t92.5 85q7 10 13 10q4 0 4 -6q0 -30 -91 -97t-124 -67zM107 414q-8 8 -8 17.5t7.5 9.5t49 -31.5t49 -38.5
t7.5 -11t-5.5 -4t-48 25t-51.5 33z" />
    <glyph glyph-name="iacute" unicode="&#xed;" horiz-adv-x="226" 
d="M44 -12q-59 0 -59 67q0 54 59 149.5t95 96.5q10 0 22.5 -8t12.5 -16q-5 -7 -12 -15.5t-15 -18.5t-22 -28.5t-27 -35.5q-75 -97 -75 -133t27 -36q36 0 99.5 53t92.5 85q7 10 13 10q4 0 4 -6q0 -30 -91 -97t-124 -67zM286 404q-11 -8 -62.5 -39.5t-58 -31.5t-6.5 4t3 7
l106 83q10 9 16 9q10 0 10 -12t-8 -20z" />
    <glyph glyph-name="icircumflex" unicode="&#xee;" horiz-adv-x="226" 
d="M44 -12q-59 0 -59 67q0 54 59 149.5t95 96.5q10 0 22.5 -8t12.5 -16q-5 -7 -12 -15.5t-15 -18.5t-22 -28.5t-27 -35.5q-75 -97 -75 -133t27 -36q36 0 99.5 53t92.5 85q7 10 13 10q4 0 4 -6q0 -30 -91 -97t-124 -67zM176 394q-58 -48 -63.5 -48t-5.5 6t34 34t43 30l3 -1
q19 -21 71 -62l3 -5l-2 -4q-12 0 -40.5 18t-42.5 32z" />
    <glyph glyph-name="idieresis" unicode="&#xef;" horiz-adv-x="226" 
d="M44 -12q-59 0 -59 67q0 54 59 149.5t95 96.5q10 0 22.5 -8t12.5 -16q-5 -7 -12 -15.5t-15 -18.5t-22 -28.5t-27 -35.5q-75 -97 -75 -133t27 -36q36 0 99.5 53t92.5 85q7 10 13 10q4 0 4 -6q0 -30 -91 -97t-124 -67zM222 357q-6 0 -11.5 8.5t-5.5 18.5t24 26q24 18 37 18
q2 0 3 -1v-1l-11 -14l-14 -33q-9 -22 -22 -22zM124 357q-6 0 -11.5 8.5t-5.5 18.5t24 26q24 18 37 18q2 0 3 -1v-1q-6 -8 -12 -14q-5 -11 -13 -33q-10 -22 -22 -22z" />
    <glyph glyph-name="eth" unicode="&#xf0;" horiz-adv-x="379" 
d="M124 322q35 43 72 62t67 19t52 -17q1 6 1 14q0 50 -43 164q-69 -12 -88.5 -12t-28 3.5t-5.5 13.5q0 11 23 17.5t88 11.5q-12 29 -37.5 73.5t-24 53.5t9.5 14.5t13.5 5.5t10.5 -2q31 -10 79 -140q80 7 100 7q27 0 27 -4q-3 -15 -118 -35q31 -97 31 -195q0 -52 -11.5 -116
t-56 -131t-106.5 -101q-42 -24 -81 -24q-88 0 -88 84q0 31 14 77q27 70 100 157zM62 73q0 -45 42 -45q25 0 64 22.5t82 81.5q50 71 58 153q3 13 3 23q0 30 -24 38l-9 2q-4 5 -16 5q-25 0 -65 -40.5t-74 -92.5q-61 -93 -61 -147z" />
    <glyph glyph-name="ntilde" unicode="&#xf1;" horiz-adv-x="403" 
d="M355 239q-105 -124 -105 -180q0 -32 14 -32q23 0 70.5 39.5t82.5 81.5q8 8 12 8t4 -5.5t-23.5 -37t-69.5 -73.5t-74 -42q-60 0 -60 68q0 40 40 110l64 104q-68 -50 -121 -109.5t-96.5 -115.5t-50.5 -56q-15 0 -23.5 12.5t-8.5 22.5q0 29 61 148q-11 -17 -81 -84
q-12 -12 -18.5 -12t-6.5 3q0 5 24.5 29.5t93 111t78.5 86.5q27 0 27 -21q0 -6 -3 -12q-90 -125 -108 -189q233 233 283 233q5 1 9 1q28 0 28 -25q0 -5 -2 -10t-40 -54zM419 437q1 1 3 1t2 -5q0 -15 -39 -42q-13 -8 -29.5 -8t-49 13.5t-49 13.5t-32.5 -13t-21 -13q-1 1 -1 2
q0 16 43 41q16 10 33.5 10t49 -10.5t52 -10.5t38.5 21z" />
    <glyph glyph-name="ograve" unicode="&#xf2;" horiz-adv-x="281" 
d="M261 212q0 -35 -67 -117q-79 -97 -135 -97h-16q-26 0 -41 27q-12 19 -12 42q0 60 87.5 168.5t141.5 108.5q51 0 51 -54q0 -14 -5 -36q1 -3 19 -3t55 19q-1 -17 -79 -49q1 -4 1 -9zM196 264q-34 0 -96.5 -80t-62.5 -118t24 -38q43 0 109 78t66 112q-16 9 -40 46zM277 389
q-5 0 -47.5 25t-52.5 33q-8 8 -8 17.5t7.5 9.5t52 -34.5t49 -39t4.5 -8t-5 -3.5z" />
    <glyph glyph-name="oacute" unicode="&#xf3;" horiz-adv-x="281" 
d="M261 212q0 -35 -67 -117q-79 -97 -135 -97h-16q-26 0 -41 27q-12 19 -12 42q0 60 87.5 168.5t141.5 108.5q51 0 51 -54q0 -14 -5 -36q1 -3 19 -3t55 19q-1 -17 -79 -49q1 -4 1 -9zM196 264q-34 0 -96.5 -80t-62.5 -118t24 -38q43 0 109 78t66 112q-16 9 -40 46zM261 388
q-6 0 -6 6q0 3 3 6q50 38 105 82q11 8 17 8q10 0 10 -12.5t-10 -19.5q-10 -9 -61.5 -39.5t-57.5 -30.5z" />
    <glyph glyph-name="ocircumflex" unicode="&#xf4;" horiz-adv-x="281" 
d="M261 212q0 -35 -67 -117q-79 -97 -135 -97h-16q-26 0 -41 27q-12 19 -12 42q0 60 87.5 168.5t141.5 108.5q51 0 51 -54q0 -14 -5 -36q1 -3 19 -3t55 19q-1 -17 -79 -49q1 -4 1 -9zM196 264q-34 0 -96.5 -80t-62.5 -118t24 -38q43 0 109 78t66 112q-16 9 -40 46zM258 427
q-57 -48 -63 -48t-6 6t34 34t43 30l4 -1q22 -25 71 -62l3 -5l-3 -4q-11 0 -41 19t-42 31z" />
    <glyph glyph-name="otilde" unicode="&#xf5;" horiz-adv-x="281" 
d="M261 212q0 -35 -67 -117q-79 -97 -135 -97h-16q-26 0 -41 27q-12 19 -12 42q0 60 87.5 168.5t141.5 108.5q51 0 51 -54q0 -14 -5 -36q1 -3 19 -3t55 19q-1 -17 -79 -49q1 -4 1 -9zM196 264q-34 0 -96.5 -80t-62.5 -118t24 -38q43 0 109 78t66 112q-16 9 -40 46zM388 453
q0 -15 -40 -42q-13 -8 -29 -8t-47 13t-49.5 13t-34.5 -13q-22 -18 -22 -10q0 16 43 41q16 10 33.5 10t49 -10.5t53 -10.5t37.5 21q6 0 6 -4z" />
    <glyph glyph-name="odieresis" unicode="&#xf6;" horiz-adv-x="281" 
d="M261 212q0 -35 -67 -117q-79 -97 -135 -97h-16q-26 0 -41 27q-12 19 -12 42q0 60 87.5 168.5t141.5 108.5q51 0 51 -54q0 -14 -5 -36q1 -3 19 -3t55 19q-1 -17 -79 -49q1 -4 1 -9zM196 264q-34 0 -96.5 -80t-62.5 -118t24 -38q43 0 109 78t66 112q-16 9 -40 46zM327 395
q-6 0 -12 8.5t-6 14.5q0 14 25 30.5t31.5 16.5t7.5 -1v1q1 -1 1 -2q-6 -8 -12 -14l-14 -32q-9 -22 -21 -22zM228 395q-6 0 -11.5 8.5t-5.5 14.5q0 14 25 30.5t31.5 16.5t7.5 -1v-1l-11 -14l-14 -32q-9 -22 -22 -22z" />
    <glyph glyph-name="divide" unicode="&#xf7;" horiz-adv-x="406" 
d="M210 260l104 -1q57 0 82 3q1 -2 1 -4.5t-7 -7.5q-17 -10 -65.5 -18t-88 -14.5t-63 -6.5t-66.5 3q-88 6 -88 21q0 10 8.5 17t15.5 7h15l25 1h80h47zM208.5 159q13.5 -10 13.5 -22.5t-12.5 -22t-27.5 -9.5t-27.5 10t-12.5 25q0 29 38 29q15 0 28.5 -10zM254.5 359
q13.5 -10 13.5 -22.5t-12.5 -22t-27.5 -9.5t-27.5 10t-12.5 25q0 29 38 29q15 0 28.5 -10z" />
    <glyph glyph-name="oslash" unicode="&#xf8;" horiz-adv-x="281" 
d="M16 7q-26 26 -26 60q0 60 87.5 168.5t141.5 108.5q20 0 32 -9q103 133 118 133q9 0 14 -5t5 -10.5t-31 -41t-88 -107.5l1 -14q0 -14 -5 -36q1 -3 19 -3t55 19q-1 -17 -79 -49q1 -4 1 -9q0 -35 -67 -117q-79 -97 -135 -97h-17q-62 -94 -62 -126q0 -14 9 -19q3 -2 -1 -8.5
t-16 -6.5t-12 22q0 62 56 147zM236 218q-10 5 -20 18q-120 -159 -154 -208q42 1 108 78.5t66 111.5zM196 264q-34 0 -96.5 -80t-62.5 -122q0 -10 2 -18q29 44 157 219v1z" />
    <glyph glyph-name="ugrave" unicode="&#xf9;" horiz-adv-x="425" 
d="M280 -6q-5 -1 -21.5 -1t-33 13t-16.5 33.5t7.5 45.5t10.5 38l-88 -88q-52 -46 -92.5 -46t-44.5 51v6q0 41 49 111l-49 -44q-6 -6 -11 -6t-5 5.5t10 15.5l132 155q27 30 53.5 30t26.5 -18q0 -7 -6 -13q-40 -37 -100.5 -123t-60.5 -127q0 -18 12 -18q19 0 68 38l54 45
q16 12 102 122q78 97 102 97q36 0 36 -28q0 -10 -42 -58q-57 -69 -87 -112.5t-30 -70.5t15 -27q7 0 16 4q72 32 165 138q6 7 12 7t6 -5q0 -20 -101 -109q-65 -56 -89 -61zM322 380q3 -3 3 -7t-4.5 -4t-47 26t-51.5 32.5t-9 17t8 10.5q12 0 101 -75z" />
    <glyph glyph-name="uacute" unicode="&#xfa;" horiz-adv-x="425" 
d="M280 -6q-5 -1 -21.5 -1t-33 13t-16.5 33.5t7.5 45.5t10.5 38l-88 -88q-52 -46 -92.5 -46t-44.5 51v6q0 41 49 111l-49 -44q-6 -6 -11 -6t-5 5.5t10 15.5l132 155q27 30 53.5 30t26.5 -18q0 -7 -6 -13q-40 -37 -100.5 -123t-60.5 -127q0 -18 12 -18q19 0 68 38l54 45
q16 12 102 122q78 97 102 97q36 0 36 -28q0 -10 -42 -58q-57 -69 -87 -112.5t-30 -70.5t15 -27q7 0 16 4q72 32 165 138q6 7 12 7t6 -5q0 -20 -101 -109q-65 -56 -89 -61zM271 365q-7 0 -7 5t3 8q31 22 106 81q11 9 17 9q9 0 9 -12t-8 -20q-9 -7 -61 -39t-59 -32z" />
    <glyph glyph-name="ucircumflex" unicode="&#xfb;" horiz-adv-x="425" 
d="M280 -6q-5 -1 -21.5 -1t-33 13t-16.5 33.5t7.5 45.5t10.5 38l-88 -88q-52 -46 -92.5 -46t-44.5 51v6q0 41 49 111l-49 -44q-6 -6 -11 -6t-5 5.5t10 15.5l132 155q27 30 53.5 30t26.5 -18q0 -7 -6 -13q-40 -37 -100.5 -123t-60.5 -127q0 -18 12 -18q19 0 68 38l54 45
q16 12 102 122q78 97 102 97q36 0 36 -28q0 -10 -42 -58q-57 -69 -87 -112.5t-30 -70.5t15 -27q7 0 16 4q72 32 165 138q6 7 12 7t6 -5q0 -20 -101 -109q-65 -56 -89 -61zM253 380q-4 0 -4 6t34 34t43 30l4 -1q23 -26 71 -61l3 -6l-3 -4q-11 0 -39.5 17.5t-43.5 32.5
q-58 -48 -65 -48z" />
    <glyph glyph-name="udieresis" unicode="&#xfc;" horiz-adv-x="425" 
d="M280 -6q-5 -1 -21.5 -1t-33 13t-16.5 33.5t7.5 45.5t10.5 38l-88 -88q-52 -46 -92.5 -46t-44.5 51v6q0 41 49 111l-49 -44q-6 -6 -11 -6t-5 5.5t10 15.5l132 155q27 30 53.5 30t26.5 -18q0 -7 -6 -13q-40 -37 -100.5 -123t-60.5 -127q0 -18 12 -18q19 0 68 38l54 45
q16 12 102 122q78 97 102 97q36 0 36 -28q0 -10 -42 -58q-57 -69 -87 -112.5t-30 -70.5t15 -27q7 0 16 4q72 32 165 138q6 7 12 7t6 -5q0 -20 -101 -109q-65 -56 -89 -61zM271 375q-6 0 -12 8.5t-6 17.5t24.5 26.5t37.5 17.5q1 0 2 -1v1q1 -1 1 -2q-6 -8 -12 -14l-14 -32
q-9 -22 -21 -22zM369 375q-6 0 -11.5 8.5t-5.5 17.5t24 26.5t31.5 17.5t8.5 -1v-1q-6 -8 -12 -14l-13 -32q-10 -22 -22 -22z" />
    <glyph glyph-name="yacute" unicode="&#xfd;" horiz-adv-x="370" 
d="M-56 -116q48 -60 83 -60q57 0 123 91q48 67 94 169l38 92l-147 -115q-68 -53 -109 -53q-22 0 -35 15t-13 34q0 43 74 141.5t108 98.5t34 -23q0 -9 -88.5 -103.5t-88.5 -127.5q0 -13 17 -13q32 0 128.5 75t145.5 124q11 13 31 39q19 22 42 22t23 -22q0 -4 -45 -71t-47 -71
q-31 -60 -95 -175q-97 -156 -194 -156q-32 0 -56 27.5t-23 61.5zM282 335q-7 0 -7 5t4 8l105 81q10 9 18 9t8 -12t-8 -20q-9 -7 -61 -39t-59 -32z" />
    <glyph glyph-name="thorn" unicode="&#xfe;" horiz-adv-x="271" 
d="M319 480l-37 -7q-6 0 -5 6q5 15 41.5 15t51.5 -11t15 -22t-2.5 -21t-37.5 -65.5t-67 -100.5q10 9 40 18q38 10 54 10q36 0 62.5 -20.5t26.5 -55.5q0 -81 -92.5 -153.5t-160.5 -72.5q-45 0 -63.5 5.5t-37.5 24.5q-159 -233 -159 -274q0 -12 13 -12l34 11q3 0 1 -2
q-2 -7 -17 -13.5t-28 -6.5t-21.5 15t-8.5 24.5t2 15.5q17 64 66 143l297 441q40 66 45 87q6 21 -12 21zM410 236q0 38 -45 38t-82 -19q-14 -7 -44 -37q-104 -147 -120 -171q21 -19 76 -19t135 62.5t80 145.5z" />
    <glyph glyph-name="ydieresis" unicode="&#xff;" horiz-adv-x="370" 
d="M-56 -116q48 -60 83 -60q57 0 123 91q48 67 94 169l38 92l-147 -115q-68 -53 -109 -53q-22 0 -35 15t-13 34q0 43 74 141.5t108 98.5t34 -23q0 -9 -88.5 -103.5t-88.5 -127.5q0 -13 17 -13q32 0 128.5 75t145.5 124q11 13 31 39q19 22 42 22t23 -22q0 -4 -45 -71t-47 -71
q-31 -60 -95 -175q-97 -156 -194 -156q-32 0 -56 27.5t-23 61.5zM229 343q-7 0 -14 10.5t-7 22t29 32.5q30 21 46 21q1 0 3 -1q-1 0 -14 -18l-16 -40q-12 -27 -27 -27zM407 428q-1 0 -14 -18l-16 -40q-12 -27 -27 -27q-7 0 -14 10.5t-7 22t29 32.5q30 21 46 21zM287 427
q0 1 -1 1h1v-1zM408 428v-1l-1 1h1z" />
    <glyph glyph-name="Amacron" unicode="&#x100;" horiz-adv-x="639" 
d="M178 842h297v-71h-297v71zM946 286l97 2q36 0 36 -5q0 -13 -146 -23q-93 -182 -93 -248q0 -46 29 -46q11 0 27.5 13.5t20 13.5t3.5 -5q-5 -18 -30.5 -30t-43 -12t-27.5 2q-24 9 -24 58q0 101 77 257l-120 -3q-134 -131 -269 -230q-202 -147 -316 -147q-7 0 -14 1
q-154 13 -154 158q0 86 54 182q72 128 197 218.5t224 90.5t99 -73q0 -49 -30 -109t-61 -76q-3 -1 -6.5 -1t-3.5 2l33 54q34 53 34 93t-17.5 64.5t-55.5 24.5q-78 0 -186.5 -87t-165 -214t-56.5 -198q0 -107 109 -107q104 0 282 134q79 59 257 223q-35 -2 -65 -7
q-64 -12 -60 4q4 37 38 37q66 -8 111 -8q86 79 257 259q115 121 140 121q11 0 11 -17t-9 -53t-20 -44q-23 -16 -43 -43.5t-57 -103t-63 -122.5zM1026 530l-256 -240h59q21 -1 52 -1q29 57 145 241z" />
    <glyph glyph-name="amacron" unicode="&#x101;" horiz-adv-x="561" 
d="M143 677h297v-71h-297v71zM332 299l14 3q11 0 21 -9t10 -14t-62 -96.5t-62 -127.5q0 -3 1 -6q5 -23 22 -23q52 0 190 172q3 4 7 4t4 -7.5t-9 -19.5q-128 -171 -195 -171q-9 0 -17 3q-44 17 -44 66q0 17 4 34l-62 -60q-59 -52 -85.5 -52t-50.5 17q-27 20 -27 53
q0 73 102 174.5t187 101.5q33 0 44 -23q3 -8 5 -13.5t3 -5.5zM33 53q0 -36 25 -36q58 0 158 127l106 146q-8 14 -26 14q-61 0 -162 -94.5t-101 -156.5z" />
    <glyph glyph-name="Abreve" unicode="&#x102;" horiz-adv-x="639" 
d="M146 531q-57 0 -73 52q-4 9 -4 18t5 9t14 -15q22 -42 69 -42t84 64q4 9 11 9q3 0 3 -4l-2 -6q-40 -85 -107 -85zM946 286l97 2q36 0 36 -5q0 -13 -146 -23q-93 -182 -93 -248q0 -46 29 -46q11 0 27.5 13.5t20 13.5t3.5 -5q-5 -18 -30.5 -30t-43 -12t-27.5 2q-24 9 -24 58
q0 101 77 257l-120 -3q-134 -131 -269 -230q-202 -147 -316 -147q-7 0 -14 1q-154 13 -154 158q0 86 54 182q72 128 197 218.5t224 90.5t99 -73q0 -49 -30 -109t-61 -76q-3 -1 -6.5 -1t-3.5 2l33 54q34 53 34 93t-17.5 64.5t-55.5 24.5q-78 0 -186.5 -87t-165 -214
t-56.5 -198q0 -107 109 -107q104 0 282 134q79 59 257 223q-35 -2 -65 -7q-64 -12 -60 4q4 37 38 37q66 -8 111 -8q86 79 257 259q115 121 140 121q11 0 11 -17t-9 -53t-20 -44q-23 -16 -43 -43.5t-57 -103t-63 -122.5zM1026 530l-256 -240h59q21 -1 52 -1q29 57 145 241z
" />
    <glyph glyph-name="abreve" unicode="&#x103;" horiz-adv-x="561" 
d="M111 366q-57 0 -73 52q-4 9 -4 18t5 9t14 -15q22 -42 69 -42t84 64q4 9 11 9q3 0 3 -4l-2 -6q-40 -85 -107 -85zM332 299l14 3q11 0 21 -9t10 -14t-62 -96.5t-62 -127.5q0 -3 1 -6q5 -23 22 -23q52 0 190 172q3 4 7 4t4 -7.5t-9 -19.5q-128 -171 -195 -171q-9 0 -17 3
q-44 17 -44 66q0 17 4 34l-62 -60q-59 -52 -85.5 -52t-50.5 17q-27 20 -27 53q0 73 102 174.5t187 101.5q33 0 44 -23q3 -8 5 -13.5t3 -5.5zM33 53q0 -36 25 -36q58 0 158 127l106 146q-8 14 -26 14q-61 0 -162 -94.5t-101 -156.5z" />
    <glyph glyph-name="Aogonek" unicode="&#x104;" horiz-adv-x="639" 
d="M652 -110q0 -12 -43.5 -27t-64.5 -15q-55 0 -55 42q0 27 20.5 72t42.5 46l3 -3q-34 -47 -34 -88t45 -41q17 0 45 12l30 11q11 0 11 -9zM946 286l97 2q36 0 36 -5q0 -13 -146 -23q-93 -182 -93 -248q0 -46 29 -46q11 0 27.5 13.5t20 13.5t3.5 -5q-5 -18 -30.5 -30t-43 -12
t-27.5 2q-24 9 -24 58q0 101 77 257l-120 -3q-134 -131 -269 -230q-202 -147 -316 -147q-7 0 -14 1q-154 13 -154 158q0 86 54 182q72 128 197 218.5t224 90.5t99 -73q0 -49 -30 -109t-61 -76q-3 -1 -6.5 -1t-3.5 2l33 54q34 53 34 93t-17.5 64.5t-55.5 24.5
q-78 0 -186.5 -87t-165 -214t-56.5 -198q0 -107 109 -107q104 0 282 134q79 59 257 223q-35 -2 -65 -7q-64 -12 -60 4q4 37 38 37q66 -8 111 -8q86 79 257 259q115 121 140 121q11 0 11 -17t-9 -53t-20 -44q-23 -16 -43 -43.5t-57 -103t-63 -122.5zM1026 530l-256 -240h59
q21 -1 52 -1q29 57 145 241z" />
    <glyph glyph-name="aogonek" unicode="&#x105;" horiz-adv-x="561" 
d="M522 -110q0 -12 -43.5 -27t-64.5 -15q-55 0 -55 42q0 27 20.5 72t42.5 46l3 -3q-34 -47 -34 -88t45 -41q17 0 45 12l30 11q11 0 11 -9zM332 299l14 3q11 0 21 -9t10 -14t-62 -96.5t-62 -127.5q0 -3 1 -6q5 -23 22 -23q52 0 190 172q3 4 7 4t4 -7.5t-9 -19.5
q-128 -171 -195 -171q-9 0 -17 3q-44 17 -44 66q0 17 4 34l-62 -60q-59 -52 -85.5 -52t-50.5 17q-27 20 -27 53q0 73 102 174.5t187 101.5q33 0 44 -23q3 -8 5 -13.5t3 -5.5zM33 53q0 -36 25 -36q58 0 158 127l106 146q-8 14 -26 14q-61 0 -162 -94.5t-101 -156.5z" />
    <glyph glyph-name="Cacute" unicode="&#x106;" horiz-adv-x="631" 
d="M541 278q-60 0 -101 27.5t-41 69.5q0 53 69 106q12 9 18 9t6 -4q0 -10 -16 -16q-56 -45 -56 -91q0 -33 30 -55.5t75 -22.5q98 0 185 94q45 49 45 113t-48 95q-40 28 -108 28q-98 0 -197 -49q-122 -59 -220.5 -183.5t-98.5 -239.5q0 -91 62 -140.5t154 -49.5q105 0 206 51
q77 40 133 102q16 18 25 18q6 0 6 -10.5t-11 -21.5q-53 -56 -153 -108q-123 -65 -247.5 -65t-185.5 82q-41 54 -41 129q0 33 8 71q27 128 142 249q83 87 197 135.5t216 48.5q54 0 94 -13q109 -34 109 -137q0 -63 -37 -109q-92 -113 -219 -113zM184 424q-7 0 -7 5t4 8l105 81
q11 9 17 9q9 0 9 -12t-8 -20q-9 -7 -61 -39t-59 -32z" />
    <glyph glyph-name="cacute" unicode="&#x107;" horiz-adv-x="479" 
d="M76 -13q-11 0 -20 3q-64 18 -64 72q0 70 88 162t158 92q23 0 37.5 -12.5t14.5 -34t-13 -45t-39 -23.5t-26 16q0 11 13.5 33.5t13.5 24t-3 1.5q-28 -3 -76.5 -40t-66.5 -62l-39 -57q-10 -16 -14.5 -38t-4.5 -33t12.5 -25t35.5 -14q50 0 124 58.5t114 111.5q5 6 12 6t7 -4
t-5 -10q-55 -73 -131.5 -127.5t-127.5 -54.5zM90 259q-7 0 -7 5t4 8l105 81q11 9 17 9q9 0 9 -12t-8 -20q-9 -7 -61 -39t-59 -32z" />
    <glyph glyph-name="Ccircumflex" unicode="&#x108;" horiz-adv-x="631" 
d="M195 530q-22 -6 -22 7q0 3 10 12q76 46 99 66q30 25 36 25q15 0 59 -48q4 -4 23.5 -26.5t19.5 -32t-8 -9.5t-43 32t-57 45q-6 -4 -33.5 -21t-51.5 -33t-32 -17zM541 278q-60 0 -101 27.5t-41 69.5q0 53 69 106q12 9 18 9t6 -4q0 -10 -16 -16q-56 -45 -56 -91
q0 -33 30 -55.5t75 -22.5q98 0 185 94q45 49 45 113t-48 95q-40 28 -108 28q-98 0 -197 -49q-122 -59 -220.5 -183.5t-98.5 -239.5q0 -91 62 -140.5t154 -49.5q105 0 206 51q77 40 133 102q16 18 25 18q6 0 6 -10.5t-11 -21.5q-53 -56 -153 -108q-123 -65 -247.5 -65
t-185.5 82q-41 54 -41 129q0 33 8 71q27 128 142 249q83 87 197 135.5t216 48.5q54 0 94 -13q109 -34 109 -137q0 -63 -37 -109q-92 -113 -219 -113z" />
    <glyph glyph-name="ccircumflex" unicode="&#x109;" horiz-adv-x="479" 
d="M93 365q-22 -6 -22 7q0 3 10 12q76 46 99 66q30 25 36 25q15 0 59 -48q4 -4 23.5 -26.5t19.5 -32t-8 -9.5t-43 32t-57 45q-6 -4 -33.5 -21t-51.5 -33t-32 -17zM76 -13q-11 0 -20 3q-64 18 -64 72q0 70 88 162t158 92q23 0 37.5 -12.5t14.5 -34t-13 -45t-39 -23.5t-26 16
q0 11 13.5 33.5t13.5 24t-3 1.5q-28 -3 -76.5 -40t-66.5 -62l-39 -57q-10 -16 -14.5 -38t-4.5 -33t12.5 -25t35.5 -14q50 0 124 58.5t114 111.5q5 6 12 6t7 -4t-5 -10q-55 -73 -131.5 -127.5t-127.5 -54.5z" />
    <glyph glyph-name="Cdotaccent" unicode="&#x10a;" horiz-adv-x="631" 
d="M390 736q2 0 3 -1q-1 0 -14 -18l-17 -40q-11 -27 -27 -27q-7 0 -14 10.5t-7 22t30 32.5t46 21zM394 734q0 1 -1 1q0 -1 1 -1zM541 278q-60 0 -101 27.5t-41 69.5q0 53 69 106q12 9 18 9t6 -4q0 -10 -16 -16q-56 -45 -56 -91q0 -33 30 -55.5t75 -22.5q98 0 185 94
q45 49 45 113t-48 95q-40 28 -108 28q-98 0 -197 -49q-122 -59 -220.5 -183.5t-98.5 -239.5q0 -91 62 -140.5t154 -49.5q105 0 206 51q77 40 133 102q16 18 25 18q6 0 6 -10.5t-11 -21.5q-53 -56 -153 -108q-123 -65 -247.5 -65t-185.5 82q-41 54 -41 129q0 33 8 71
q27 128 142 249q83 87 197 135.5t216 48.5q54 0 94 -13q109 -34 109 -137q0 -63 -37 -109q-92 -113 -219 -113z" />
    <glyph glyph-name="cdotaccent" unicode="&#x10b;" horiz-adv-x="479" 
d="M294 571q2 0 3 -1q-1 0 -14 -18l-17 -40q-11 -27 -27 -27q-7 0 -14 10.5t-7 22t30 32.5t46 21zM298 569q0 1 -1 1q0 -1 1 -1zM76 -13q-11 0 -20 3q-64 18 -64 72q0 70 88 162t158 92q23 0 37.5 -12.5t14.5 -34t-13 -45t-39 -23.5t-26 16q0 11 13.5 33.5t13.5 24t-3 1.5
q-28 -3 -76.5 -40t-66.5 -62l-39 -57q-10 -16 -14.5 -38t-4.5 -33t12.5 -25t35.5 -14q50 0 124 58.5t114 111.5q5 6 12 6t7 -4t-5 -10q-55 -73 -131.5 -127.5t-127.5 -54.5z" />
    <glyph glyph-name="Ccaron" unicode="&#x10c;" horiz-adv-x="631" 
d="M418 638q6 0 6 -10t-60 -61q-63 -51 -75 -52l-6 3q-35 39 -125 107q-8 8 -8 12t7 5q21 -2 56.5 -24t47 -31.5t21 -19t12.5 -11.5q60 50 89 66t35 16zM541 278q-60 0 -101 27.5t-41 69.5q0 53 69 106q12 9 18 9t6 -4q0 -10 -16 -16q-56 -45 -56 -91q0 -33 30 -55.5
t75 -22.5q98 0 185 94q45 49 45 113t-48 95q-40 28 -108 28q-98 0 -197 -49q-122 -59 -220.5 -183.5t-98.5 -239.5q0 -91 62 -140.5t154 -49.5q105 0 206 51q77 40 133 102q16 18 25 18q6 0 6 -10.5t-11 -21.5q-53 -56 -153 -108q-123 -65 -247.5 -65t-185.5 82
q-41 54 -41 129q0 33 8 71q27 128 142 249q83 87 197 135.5t216 48.5q54 0 94 -13q109 -34 109 -137q0 -63 -37 -109q-92 -113 -219 -113z" />
    <glyph glyph-name="ccaron" unicode="&#x10d;" horiz-adv-x="479" 
d="M320 473q6 0 6 -10t-60 -61q-63 -51 -75 -52l-6 3q-35 39 -125 107q-8 8 -8 12t7 5q21 -2 56.5 -24t47 -31.5t21 -19t12.5 -11.5q60 50 89 66t35 16zM76 -13q-11 0 -20 3q-64 18 -64 72q0 70 88 162t158 92q23 0 37.5 -12.5t14.5 -34t-13 -45t-39 -23.5t-26 16
q0 11 13.5 33.5t13.5 24t-3 1.5q-28 -3 -76.5 -40t-66.5 -62l-39 -57q-10 -16 -14.5 -38t-4.5 -33t12.5 -25t35.5 -14q50 0 124 58.5t114 111.5q5 6 12 6t7 -4t-5 -10q-55 -73 -131.5 -127.5t-127.5 -54.5z" />
    <glyph glyph-name="Dcaron" unicode="&#x10e;" horiz-adv-x="729" 
d="M368 638q6 0 6 -10t-60 -61q-63 -51 -75 -52l-6 3q-35 39 -125 107q-8 8 -8 12t7 5q21 -2 56.5 -24t47 -31.5t21 -19t12.5 -11.5q60 50 89 66t35 16zM187 25q-88 -68 -129 -68q-22 0 -32.5 21.5t-10.5 46.5q0 48 40.5 144t77.5 96q19 0 32.5 -75t27.5 -109q68 72 197 240
q162 213 215 233q18 7 37 7t31.5 -8t12.5 -20q0 -17 -29 -20q-35 -19 -108 -92q-73 -71 -117 -133q-107 -149 -220 -243q56 -83 176 -83q13 0 39 2q278 26 394 241q47 86 47 170t-61 151q-49 55 -106.5 68t-117.5 13q-154 0 -284 -71q-137 -75 -137 -168q0 -25 13.5 -41
t18.5 -18h-6q-26 5 -46 26q-22 26 -22 55q0 100 125.5 172t294.5 72q78 0 160 -18t149 -86q77 -80 77 -181q0 -75 -44 -155q-76 -138 -227 -202q-121 -51 -261 -51t-207 84zM51 29q0 -31 12 -54q43 19 104 79q-29 48 -36.5 75.5t-10.5 72.5q-69 -99 -69 -173zM194 309
q1 0 2 1q0 -2 -0.5 -2t-1.5 1z" />
    <glyph glyph-name="dcaron" unicode="&#x10f;" horiz-adv-x="615" 
d="M575 612q11 32 20.5 77.5t12.5 70.5h87v-9q-6 -26 -27 -71t-45 -80h-48v12zM328 303q112 182 156 182q7 0 19.5 -4.5t12.5 -13.5q0 -5 -5 -13q-80 -98 -119 -147q-118 -149 -130 -214q-3 -14 -3 -28q0 -45 37 -45q74 0 193 137q10 10 17 11.5t7 -3.5t-6 -12
q-116 -139 -206 -155q-5 -1 -14 -1q-31 0 -46.5 21.5t-15.5 46.5q0 28 11 62l-81 -81q-55 -51 -86.5 -51t-52.5 17q-25 19 -25 53q0 73 102 174.5t187 101.5q28 0 39 -15q4 -5 9 -23zM33 53q0 -36 25 -36q43 0 143 118q18 21 120 157q-7 12 -24 12q-62 0 -163 -94.5
t-101 -156.5z" />
    <glyph glyph-name="Dcroat" unicode="&#x110;" horiz-adv-x="729" 
d="M526 277q0 -18 -129 -36q-85 -113 -185 -196q56 -83 176 -83q13 0 39 2q278 26 394 241q47 86 47 170t-61 151q-49 55 -106.5 68t-117.5 13q-154 0 -284 -71q-137 -75 -137 -168q0 -25 13.5 -41t18.5 -18h-6q-26 5 -46 26q-22 26 -22 55q0 100 125.5 172t294.5 72
q78 0 160 -18t149 -86q77 -80 77 -181q0 -75 -44 -155q-76 -138 -227 -202q-121 -51 -261 -51t-207 84q-88 -68 -129 -68q-22 0 -32.5 21.5t-10.5 46.5q0 48 40.5 144t77.5 96q19 0 32.5 -75t27.5 -109q45 46 125 148q-12 0 -27 3q-32 6 -32 21q0 10 8.5 17t14.5 7t12 1h63
l33 43q162 213 215 233q18 7 37 7t31.5 -8t12.5 -20q0 -17 -29 -20q-35 -19 -108 -92q-69 -67 -125 -144q66 0 101 3q1 -1 1 -3zM51 29q0 -31 12 -54q43 19 104 79q-29 48 -36.5 75.5t-10.5 72.5q-69 -99 -69 -173zM194 309q1 0 2 1q0 -2 -0.5 -2t-1.5 1z" />
    <glyph glyph-name="dcroat" unicode="&#x111;" horiz-adv-x="617" 
d="M275 -10q-104 0 -162 72t-58 203q0 132 57.5 205t162.5 73q109 0 167 -79h6q-1 7 -3.5 33.5t-2.5 46.5v61h-213v66h213v89h88v-89h76v-66h-76v-605h-72l-13 72h-4q-56 -82 -166 -82zM290 63q80 0 116.5 43t36.5 142v17q0 112 -37 158.5t-118 46.5q-68 0 -104.5 -52
t-36.5 -154q0 -96 35 -148.5t108 -52.5z" />
    <glyph glyph-name="Emacron" unicode="&#x112;" horiz-adv-x="556" 
d="M148 842h297v-71h-297v71zM504 407q98 0 98 -37q0 -8 -6 -18q-24 -37 -87 -37q-41 0 -84 14.5t-65 30.5q-93 -27 -165.5 -83t-108.5 -127q-19 -38 -19 -74q0 -56 46.5 -91t136.5 -35q25 0 52 3q159 17 253 102q79 70 79 147q0 61 -59 61q-71 0 -163 -76q-23 -19 -39 -48
t-16 -57t28 -35q10 -4 10 -10q0 -10 -20 -8q-48 1 -48 63t63 116q86 74 182 74q72 0 91 -45q8 -21 8 -42q0 -93 -103 -175q-123 -100 -312 -100q-117 0 -185 43.5t-68 113.5q0 41 26 82q92 146 314 217q-33 38 -33 81t21 72q41 56 123 92q98 43 196 43q57 0 91.5 -18.5
t34.5 -57t-28.5 -65t-59.5 -26.5t-31 15q0 9 13 9l20 -3q20 0 36.5 21.5t16.5 44.5q0 34 -39 50q-25 10 -47 10t-31 -1q-86 -5 -168 -60q-96 -63 -96 -142q0 -29 20 -54q64 20 122 20zM399 371q43 -34 99 -34t56 31q0 14 -50 14t-105 -11z" />
    <glyph glyph-name="emacron" unicode="&#x113;" horiz-adv-x="563" 
d="M150 677h297v-71h-297v71zM51 -13q-11 0 -20 3q-64 18 -64 72q0 70 88 162t158 92q23 0 37.5 -12.5t14.5 -30.5q0 -56 -84.5 -107t-137.5 -51q-8 0 -14 2q-15 -27 -15 -57q0 -52 49.5 -52t128.5 67q61 49 104 104q9 12 15.5 12t6.5 -6t-8 -17q-54 -71 -130 -126t-129 -55
zM240 275q0 12 -25.5 12t-72.5 -39q-63 -52 -98 -109q6 -2 13 -2q38 0 101.5 40.5t79.5 88.5q2 5 2 9z" />
    <glyph glyph-name="Ebreve" unicode="&#x114;" horiz-adv-x="556" 
d="M129 531q-57 0 -73 52q-4 9 -4 18t5 9t14 -15q22 -42 69 -42t84 64q4 9 11 9q3 0 3 -4l-2 -6q-40 -85 -107 -85zM504 407q98 0 98 -37q0 -8 -6 -18q-24 -37 -87 -37q-41 0 -84 14.5t-65 30.5q-93 -27 -165.5 -83t-108.5 -127q-19 -38 -19 -74q0 -56 46.5 -91t136.5 -35
q25 0 52 3q159 17 253 102q79 70 79 147q0 61 -59 61q-71 0 -163 -76q-23 -19 -39 -48t-16 -57t28 -35q10 -4 10 -10q0 -10 -20 -8q-48 1 -48 63t63 116q86 74 182 74q72 0 91 -45q8 -21 8 -42q0 -93 -103 -175q-123 -100 -312 -100q-117 0 -185 43.5t-68 113.5q0 41 26 82
q92 146 314 217q-33 38 -33 81t21 72q41 56 123 92q98 43 196 43q57 0 91.5 -18.5t34.5 -57t-28.5 -65t-59.5 -26.5t-31 15q0 9 13 9l20 -3q20 0 36.5 21.5t16.5 44.5q0 34 -39 50q-25 10 -47 10t-31 -1q-86 -5 -168 -60q-96 -63 -96 -142q0 -29 20 -54q64 20 122 20z
M399 371q43 -34 99 -34t56 31q0 14 -50 14t-105 -11z" />
    <glyph glyph-name="ebreve" unicode="&#x115;" horiz-adv-x="563" 
d="M122 366q-57 0 -73 52q-4 9 -4 18t5 9t14 -15q22 -42 69 -42t84 64q4 9 11 9q3 0 3 -4l-2 -6q-40 -85 -107 -85zM51 -13q-11 0 -20 3q-64 18 -64 72q0 70 88 162t158 92q23 0 37.5 -12.5t14.5 -30.5q0 -56 -84.5 -107t-137.5 -51q-8 0 -14 2q-15 -27 -15 -57
q0 -52 49.5 -52t128.5 67q61 49 104 104q9 12 15.5 12t6.5 -6t-8 -17q-54 -71 -130 -126t-129 -55zM240 275q0 12 -25.5 12t-72.5 -39q-63 -52 -98 -109q6 -2 13 -2q38 0 101.5 40.5t79.5 88.5q2 5 2 9z" />
    <glyph glyph-name="Edotaccent" unicode="&#x116;" horiz-adv-x="556" 
d="M306 722q2 0 3 -1q-1 0 -14 -18l-17 -40q-11 -27 -27 -27q-7 0 -14 10.5t-7 22t30 32.5t46 21zM310 720q0 1 -1 1q0 -1 1 -1zM504 407q98 0 98 -37q0 -8 -6 -18q-24 -37 -87 -37q-41 0 -84 14.5t-65 30.5q-93 -27 -165.5 -83t-108.5 -127q-19 -38 -19 -74q0 -56 46.5 -91
t136.5 -35q25 0 52 3q159 17 253 102q79 70 79 147q0 61 -59 61q-71 0 -163 -76q-23 -19 -39 -48t-16 -57t28 -35q10 -4 10 -10q0 -10 -20 -8q-48 1 -48 63t63 116q86 74 182 74q72 0 91 -45q8 -21 8 -42q0 -93 -103 -175q-123 -100 -312 -100q-117 0 -185 43.5t-68 113.5
q0 41 26 82q92 146 314 217q-33 38 -33 81t21 72q41 56 123 92q98 43 196 43q57 0 91.5 -18.5t34.5 -57t-28.5 -65t-59.5 -26.5t-31 15q0 9 13 9l20 -3q20 0 36.5 21.5t16.5 44.5q0 34 -39 50q-25 10 -47 10t-31 -1q-86 -5 -168 -60q-96 -63 -96 -142q0 -29 20 -54
q64 20 122 20zM399 371q43 -34 99 -34t56 31q0 14 -50 14t-105 -11z" />
    <glyph glyph-name="edotaccent" unicode="&#x117;" horiz-adv-x="563" 
d="M296 571q2 0 3 -1q-1 0 -14 -18l-17 -40q-11 -27 -27 -27q-7 0 -14 10.5t-7 22t30 32.5t46 21zM300 569q0 1 -1 1q0 -1 1 -1zM51 -13q-11 0 -20 3q-64 18 -64 72q0 70 88 162t158 92q23 0 37.5 -12.5t14.5 -30.5q0 -56 -84.5 -107t-137.5 -51q-8 0 -14 2q-15 -27 -15 -57
q0 -52 49.5 -52t128.5 67q61 49 104 104q9 12 15.5 12t6.5 -6t-8 -17q-54 -71 -130 -126t-129 -55zM240 275q0 12 -25.5 12t-72.5 -39q-63 -52 -98 -109q6 -2 13 -2q38 0 101.5 40.5t79.5 88.5q2 5 2 9z" />
    <glyph glyph-name="Eogonek" unicode="&#x118;" horiz-adv-x="556" 
d="M504 -110q0 -12 -43.5 -27t-64.5 -15q-55 0 -55 42q0 27 20.5 72t42.5 46l3 -3q-34 -47 -34 -88t45 -41q17 0 45 12l30 11q11 0 11 -9zM504 407q98 0 98 -37q0 -8 -6 -18q-24 -37 -87 -37q-41 0 -84 14.5t-65 30.5q-93 -27 -165.5 -83t-108.5 -127q-19 -38 -19 -74
q0 -56 46.5 -91t136.5 -35q25 0 52 3q159 17 253 102q79 70 79 147q0 61 -59 61q-71 0 -163 -76q-23 -19 -39 -48t-16 -57t28 -35q10 -4 10 -10q0 -10 -20 -8q-48 1 -48 63t63 116q86 74 182 74q72 0 91 -45q8 -21 8 -42q0 -93 -103 -175q-123 -100 -312 -100
q-117 0 -185 43.5t-68 113.5q0 41 26 82q92 146 314 217q-33 38 -33 81t21 72q41 56 123 92q98 43 196 43q57 0 91.5 -18.5t34.5 -57t-28.5 -65t-59.5 -26.5t-31 15q0 9 13 9l20 -3q20 0 36.5 21.5t16.5 44.5q0 34 -39 50q-25 10 -47 10t-31 -1q-86 -5 -168 -60
q-96 -63 -96 -142q0 -29 20 -54q64 20 122 20zM399 371q43 -34 99 -34t56 31q0 14 -50 14t-105 -11z" />
    <glyph glyph-name="eogonek" unicode="&#x119;" horiz-adv-x="563" 
d="M499 -96q0 -12 -43.5 -27t-64.5 -15q-55 0 -55 42q0 27 20.5 72t42.5 46l3 -3q-34 -47 -34 -88t45 -41q17 0 45 12l30 11q11 0 11 -9zM51 -13q-11 0 -20 3q-64 18 -64 72q0 70 88 162t158 92q23 0 37.5 -12.5t14.5 -30.5q0 -56 -84.5 -107t-137.5 -51q-8 0 -14 2
q-15 -27 -15 -57q0 -52 49.5 -52t128.5 67q61 49 104 104q9 12 15.5 12t6.5 -6t-8 -17q-54 -71 -130 -126t-129 -55zM240 275q0 12 -25.5 12t-72.5 -39q-63 -52 -98 -109q6 -2 13 -2q38 0 101.5 40.5t79.5 88.5q2 5 2 9z" />
    <glyph glyph-name="Ecaron" unicode="&#x11a;" horiz-adv-x="556" 
d="M331 638q6 0 6 -10t-60 -61q-63 -51 -75 -52l-6 3q-35 39 -125 107q-8 8 -8 12t7 5q21 -2 56.5 -24t47 -31.5t21 -19t12.5 -11.5q60 50 89 66t35 16zM504 407q98 0 98 -37q0 -8 -6 -18q-24 -37 -87 -37q-41 0 -84 14.5t-65 30.5q-93 -27 -165.5 -83t-108.5 -127
q-19 -38 -19 -74q0 -56 46.5 -91t136.5 -35q25 0 52 3q159 17 253 102q79 70 79 147q0 61 -59 61q-71 0 -163 -76q-23 -19 -39 -48t-16 -57t28 -35q10 -4 10 -10q0 -10 -20 -8q-48 1 -48 63t63 116q86 74 182 74q72 0 91 -45q8 -21 8 -42q0 -93 -103 -175
q-123 -100 -312 -100q-117 0 -185 43.5t-68 113.5q0 41 26 82q92 146 314 217q-33 38 -33 81t21 72q41 56 123 92q98 43 196 43q57 0 91.5 -18.5t34.5 -57t-28.5 -65t-59.5 -26.5t-31 15q0 9 13 9l20 -3q20 0 36.5 21.5t16.5 44.5q0 34 -39 50q-25 10 -47 10t-31 -1
q-86 -5 -168 -60q-96 -63 -96 -142q0 -29 20 -54q64 20 122 20zM399 371q43 -34 99 -34t56 31q0 14 -50 14t-105 -11z" />
    <glyph glyph-name="ecaron" unicode="&#x11b;" horiz-adv-x="563" 
d="M324 473q6 0 6 -10t-60 -61q-63 -51 -75 -52l-6 3q-35 39 -125 107q-8 8 -8 12t7 5q21 -2 56.5 -24t47 -31.5t21 -19t12.5 -11.5q60 50 89 66t35 16zM51 -13q-11 0 -20 3q-64 18 -64 72q0 70 88 162t158 92q23 0 37.5 -12.5t14.5 -30.5q0 -56 -84.5 -107t-137.5 -51
q-8 0 -14 2q-15 -27 -15 -57q0 -52 49.5 -52t128.5 67q61 49 104 104q9 12 15.5 12t6.5 -6t-8 -17q-54 -71 -130 -126t-129 -55zM240 275q0 12 -25.5 12t-72.5 -39q-63 -52 -98 -109q6 -2 13 -2q38 0 101.5 40.5t79.5 88.5q2 5 2 9z" />
    <glyph glyph-name="Gcircumflex" unicode="&#x11c;" horiz-adv-x="728" 
d="M223 530q-22 -6 -22 7q0 3 10 12q76 46 99 66q30 25 36 25q15 0 59 -48q4 -4 23.5 -26.5t19.5 -32t-8 -9.5t-43 32t-57 45q-6 -4 -33.5 -21t-51.5 -33t-32 -17zM548 487l-2 -32q0 -65 70 -65q58 0 117 40t59 81t-48 69q-32 19 -100 19q-101 0 -225.5 -48t-233.5 -154
q-143 -140 -143 -257q0 -69 52.5 -111t137.5 -42q118 0 274 89q130 73 195 155l29 43q-18 0 -149 -10.5t-150 -15t-31 -4.5q-33 0 -33 16q0 25 76 41.5t257 16.5t239 -14q9 -2 9 -5q0 -11 -69 -16q-86 -7 -88 -7q-102 -134 -264 -414q-9 -16 -17.5 -16t-8.5 13q0 35 56 135
l70 131q-64 -55 -163 -103q-129 -61 -243.5 -61t-175 49.5t-60.5 132.5q0 153 185 311q93 80 225 133t231.5 53t152.5 -39q41 -32 41 -72q0 -57 -70.5 -109.5t-139.5 -52.5q-93 0 -93 107q0 41 17 41q14 0 14 -28z" />
    <glyph glyph-name="gcircumflex" unicode="&#x11d;" horiz-adv-x="615" 
d="M107 365q-22 -6 -22 7q0 3 10 12q76 46 99 66q30 25 36 25q15 0 59 -48q4 -4 23.5 -26.5t19.5 -32t-8 -9.5t-43 32t-57 45q-6 -4 -33.5 -21t-51.5 -33t-32 -17zM334 305l14 3q13 0 20.5 -8t7.5 -12.5t-1 -10t-29 -50.5q-35 -61 -58 -103q-81 -151 -124 -207
q-92 -122 -175 -122q-29 0 -50.5 24.5t-22.5 54.5q3 12 9 12q3 0 5 -7q5 -26 19 -40t28 -14q57 0 122 75q43 50 95 146l50 99l-75 -76q-72 -69 -98.5 -69t-50.5 18q-27 20 -27 53q0 73 102.5 174t186.5 101q34 0 44 -22q3 -8 5 -13.5t3 -5.5zM35 59q0 -36 25 -36
q58 0 158 127l106 146q-6 14 -25 14q-62 0 -163 -95.5t-101 -155.5z" />
    <glyph glyph-name="Gbreve" unicode="&#x11e;" horiz-adv-x="728" 
d="M244 531q-57 0 -73 52q-4 9 -4 18t5 9t14 -15q22 -42 69 -42t84 64q4 9 11 9q3 0 3 -4l-2 -6q-40 -85 -107 -85zM548 487l-2 -32q0 -65 70 -65q58 0 117 40t59 81t-48 69q-32 19 -100 19q-101 0 -225.5 -48t-233.5 -154q-143 -140 -143 -257q0 -69 52.5 -111t137.5 -42
q118 0 274 89q130 73 195 155l29 43q-18 0 -149 -10.5t-150 -15t-31 -4.5q-33 0 -33 16q0 25 76 41.5t257 16.5t239 -14q9 -2 9 -5q0 -11 -69 -16q-86 -7 -88 -7q-102 -134 -264 -414q-9 -16 -17.5 -16t-8.5 13q0 35 56 135l70 131q-64 -55 -163 -103q-129 -61 -243.5 -61
t-175 49.5t-60.5 132.5q0 153 185 311q93 80 225 133t231.5 53t152.5 -39q41 -32 41 -72q0 -57 -70.5 -109.5t-139.5 -52.5q-93 0 -93 107q0 41 17 41q14 0 14 -28z" />
    <glyph glyph-name="gbreve" unicode="&#x11f;" horiz-adv-x="615" 
d="M130 366q-57 0 -73 52q-4 9 -4 18t5 9t14 -15q22 -42 69 -42t84 64q4 9 11 9q3 0 3 -4l-2 -6q-40 -85 -107 -85zM334 305l14 3q13 0 20.5 -8t7.5 -12.5t-1 -10t-29 -50.5q-35 -61 -58 -103q-81 -151 -124 -207q-92 -122 -175 -122q-29 0 -50.5 24.5t-22.5 54.5q3 12 9 12
q3 0 5 -7q5 -26 19 -40t28 -14q57 0 122 75q43 50 95 146l50 99l-75 -76q-72 -69 -98.5 -69t-50.5 18q-27 20 -27 53q0 73 102.5 174t186.5 101q34 0 44 -22q3 -8 5 -13.5t3 -5.5zM35 59q0 -36 25 -36q58 0 158 127l106 146q-6 14 -25 14q-62 0 -163 -95.5t-101 -155.5z" />
    <glyph glyph-name="Gdotaccent" unicode="&#x120;" horiz-adv-x="728" 
d="M424 736q2 0 3 -1q-1 0 -14 -18l-17 -40q-11 -27 -27 -27q-7 0 -14 10.5t-7 22t30 32.5t46 21zM428 734q0 1 -1 1q0 -1 1 -1zM548 487l-2 -32q0 -65 70 -65q58 0 117 40t59 81t-48 69q-32 19 -100 19q-101 0 -225.5 -48t-233.5 -154q-143 -140 -143 -257q0 -69 52.5 -111
t137.5 -42q118 0 274 89q130 73 195 155l29 43q-18 0 -149 -10.5t-150 -15t-31 -4.5q-33 0 -33 16q0 25 76 41.5t257 16.5t239 -14q9 -2 9 -5q0 -11 -69 -16q-86 -7 -88 -7q-102 -134 -264 -414q-9 -16 -17.5 -16t-8.5 13q0 35 56 135l70 131q-64 -55 -163 -103
q-129 -61 -243.5 -61t-175 49.5t-60.5 132.5q0 153 185 311q93 80 225 133t231.5 53t152.5 -39q41 -32 41 -72q0 -57 -70.5 -109.5t-139.5 -52.5q-93 0 -93 107q0 41 17 41q14 0 14 -28z" />
    <glyph glyph-name="gdotaccent" unicode="&#x121;" horiz-adv-x="615" 
d="M300 571q2 0 3 -1q-1 0 -14 -18l-17 -40q-11 -27 -27 -27q-7 0 -14 10.5t-7 22t30 32.5t46 21zM304 569q0 1 -1 1q0 -1 1 -1zM334 305l14 3q13 0 20.5 -8t7.5 -12.5t-1 -10t-29 -50.5q-35 -61 -58 -103q-81 -151 -124 -207q-92 -122 -175 -122q-29 0 -50.5 24.5
t-22.5 54.5q3 12 9 12q3 0 5 -7q5 -26 19 -40t28 -14q57 0 122 75q43 50 95 146l50 99l-75 -76q-72 -69 -98.5 -69t-50.5 18q-27 20 -27 53q0 73 102.5 174t186.5 101q34 0 44 -22q3 -8 5 -13.5t3 -5.5zM35 59q0 -36 25 -36q58 0 158 127l106 146q-6 14 -25 14
q-62 0 -163 -95.5t-101 -155.5z" />
    <glyph glyph-name="uni0122" unicode="&#x122;" horiz-adv-x="728" 
d="M322 -209q11 25 24 70.5t17 77.5h87v-9q-8 -31 -31.5 -76.5t-48.5 -74.5h-48v12zM548 487l-2 -32q0 -65 70 -65q58 0 117 40t59 81t-48 69q-32 19 -100 19q-101 0 -225.5 -48t-233.5 -154q-143 -140 -143 -257q0 -69 52.5 -111t137.5 -42q118 0 274 89q130 73 195 155
l29 43q-18 0 -149 -10.5t-150 -15t-31 -4.5q-33 0 -33 16q0 25 76 41.5t257 16.5t239 -14q9 -2 9 -5q0 -11 -69 -16q-86 -7 -88 -7q-102 -134 -264 -414q-9 -16 -17.5 -16t-8.5 13q0 35 56 135l70 131q-64 -55 -163 -103q-129 -61 -243.5 -61t-175 49.5t-60.5 132.5
q0 153 185 311q93 80 225 133t231.5 53t152.5 -39q41 -32 41 -72q0 -57 -70.5 -109.5t-139.5 -52.5q-93 0 -93 107q0 41 17 41q14 0 14 -28z" />
    <glyph glyph-name="uni0123" unicode="&#x123;" horiz-adv-x="615" 
d="M379 754q-13 -29 -26 -74.5t-16 -73.5h-87v9q7 27 31.5 74t48.5 77h49v-12zM334 305l14 3q13 0 20.5 -8t7.5 -12.5t-1 -10t-29 -50.5q-35 -61 -58 -103q-81 -151 -124 -207q-92 -122 -175 -122q-29 0 -50.5 24.5t-22.5 54.5q3 12 9 12q3 0 5 -7q5 -26 19 -40t28 -14
q57 0 122 75q43 50 95 146l50 99l-75 -76q-72 -69 -98.5 -69t-50.5 18q-27 20 -27 53q0 73 102.5 174t186.5 101q34 0 44 -22q3 -8 5 -13.5t3 -5.5zM35 59q0 -36 25 -36q58 0 158 127l106 146q-6 14 -25 14q-62 0 -163 -95.5t-101 -155.5z" />
    <glyph glyph-name="Hcircumflex" unicode="&#x124;" horiz-adv-x="741" 
d="M175 530q-22 -6 -22 7q0 3 10 12q76 46 99 66q30 25 36 25q15 0 59 -48q4 -4 23.5 -26.5t19.5 -32t-8 -9.5t-43 32t-57 45q-6 -4 -33.5 -21t-51.5 -33t-32 -17zM283 -46q0 28 115 217q-82 0 -109 -7q-45 -11 -67 -45q-8 -11 -13.5 -12t-5.5 4.5t4 9.5q38 51 75 70t117 19
h24q61 93 171 276q41 77 41 125q0 77 -94 78h-11q-128 0 -233 -64t-166 -159t-61 -171q0 -93 87 -93q69 0 118 61t49 116q0 31 -16 51q-2 2 -2 5q0 7 8 7q4 0 6 -3q20 -26 20 -62q0 -61 -50 -124.5t-105 -70.5q-17 -3 -33 -3q-64 0 -99 41q-34 37 -34 100q0 26 6 53
q30 135 173.5 236t322.5 101q69 0 118.5 -29.5t49.5 -82.5t-37 -112l-181 -278q32 -1 114.5 -9.5t124 -8.5t55.5 1l38 63q97 163 224.5 304.5t222.5 175.5q3 1 6 1q7 0 7 -8q0 -3 -3 -5q-64 -36 -183.5 -174.5t-206.5 -284.5l-39 -66q46 6 66 23q4 3 7 -3.5t-1 -9.5
q-30 -23 -85 -33q-70 -130 -70 -183q0 -34 29 -34q20 0 46.5 13.5t35.5 23t11 9.5t1 -6.5t-4 -10.5q-17 -16 -51 -34t-55 -18t-31 7q-32 21 -32 73t53 152q-37 -3 -69 -3q-11 0 -235 7q-71 -112 -114 -204q-13 -27 -31.5 -27t-18.5 15z" />
    <glyph glyph-name="hcircumflex" unicode="&#x125;" horiz-adv-x="618" 
d="M118 557q-22 -6 -22 7q0 3 10 12q76 46 99 66q30 25 36 25q15 0 59 -48q4 -4 23.5 -26.5t19.5 -32t-8 -9.5t-43 32t-57 45q-6 -4 -33.5 -21t-51.5 -33t-32 -17zM237 4q-59 0 -59 69q0 39 27.5 86.5t67.5 111.5q-128 -64 -232 -189q-58 -87 -68 -87q-29 0 -29 17
q0 9 12 32q97 173 147 253q119 191 168 207q2 1 4 1q13 0 18 -21q-3 -21 -104 -152q-105 -133 -119 -174q37 27 129 91q99 69 131 69t32 -25q0 -4 -0.5 -5.5t-69.5 -94.5t-69 -137q0 -23 17 -23q54 2 162 130q9 9 13.5 9t4.5 -6q0 -20 -99 -108q-62 -54 -84 -54z" />
    <glyph glyph-name="Hbar" unicode="&#x126;" horiz-adv-x="741" 
d="M97 595v119h90v-119h366v119h90v-119h97v-72h-97v-523h-90v333h-366v-333h-90v523h-97v72h97zM553 412v111h-366v-111h366z" />
    <glyph glyph-name="hbar" unicode="&#x127;" horiz-adv-x="376" 
d="M293 371q0 -5 -13.5 -5t-68.5 -5l-22 -29q-105 -133 -119 -174q37 27 129 91q99 69 131 69t32 -25q0 -4 -0.5 -5.5t-69.5 -94.5t-69 -137q0 -23 17 -23q54 2 162 130q9 9 13.5 9t4.5 -6q0 -20 -99 -108q-62 -54 -84 -54q-59 0 -59 69q0 39 27.5 86.5t67.5 111.5
q-128 -64 -232 -189q-58 -87 -68 -87q-29 0 -29 17q0 9 12 32q105 186 184 311q-14 -1 -34 -1q-5 0 -12.5 9t-8.5 15q12 6 76 8q74 106 110 118q2 1 4 1q13 0 18 -21q-3 -19 -64 -99q43 -3 53.5 -8t10.5 -6z" />
    <glyph glyph-name="Itilde" unicode="&#x128;" horiz-adv-x="338" 
d="M111 652q0 -15 -40 -42q-13 -8 -29.5 -8t-49 13.5t-49 13.5t-32.5 -13t-21 -13q-1 1 -1 2q0 16 43 41q16 10 33.5 10t49 -10.5t52 -10.5t38.5 21q6 0 6 -4zM714 396l-7 27q0 8 8 8q3 0 8 -3q23 -17 23 -45t-36 -54.5t-91 -26.5q-17 0 -34 3q-69 -127 -168 -234
q-132 -140 -240 -140q-156 0 -156 184q0 152 81 245q68 80 156 80q23 0 47 -8q59 -23 59 -97.5t-61 -155.5t-125 -81q-72 0 -72 78q0 22 9.5 46t21.5 24q9 0 9 -9q0 -5 -9 -25t-9 -35.5t16.5 -29t34.5 -13.5q59 0 109.5 72.5t50.5 141.5q0 53 -38 70q-13 5 -27 5
q-71 0 -142 -98q-69 -99 -69 -217q0 -65 28 -106q29 -42 80 -42q132 0 344 359q-110 33 -110 130q0 129 131 206q83 48 161 48q61 0 110 -20q69 -27 69 -82q0 -12 -5.5 -23t-11.5 -11q-13 13 -31 13q-85 0 -233 -253q8 -1 17 -1q34 0 68 20t34 50zM603.5 645.5
q-66.5 -29.5 -106 -86.5t-39.5 -129t74 -86q55 90 142 179.5t145 89.5q15 0 26 -7q-1 28 -39 49q-34 20 -85 20t-117.5 -29.5z" />
    <glyph glyph-name="itilde" unicode="&#x129;" horiz-adv-x="257" 
d="M71 487q0 -15 -40 -42q-13 -8 -29.5 -8t-49 13.5t-49 13.5t-32.5 -13t-21 -13q-1 1 -1 2q0 16 43 41q16 10 33.5 10t49 -10.5t52 -10.5t38.5 21q6 0 6 -4zM44 -12q-59 0 -59 67q0 54 59 149.5t95 96.5q10 0 22.5 -8t12.5 -16q-5 -7 -12 -15.5t-15 -18.5t-22 -28.5
t-27 -35.5q-75 -97 -75 -133t27 -36q36 0 99.5 53t92.5 85q7 10 13 10q4 0 4 -6q0 -30 -91 -97t-124 -67z" />
    <glyph glyph-name="Imacron" unicode="&#x12a;" horiz-adv-x="338" 
d="M21 842h297v-71h-297v71zM714 396l-7 27q0 8 8 8q3 0 8 -3q23 -17 23 -45t-36 -54.5t-91 -26.5q-17 0 -34 3q-69 -127 -168 -234q-132 -140 -240 -140q-156 0 -156 184q0 152 81 245q68 80 156 80q23 0 47 -8q59 -23 59 -97.5t-61 -155.5t-125 -81q-72 0 -72 78
q0 22 9.5 46t21.5 24q9 0 9 -9q0 -5 -9 -25t-9 -35.5t16.5 -29t34.5 -13.5q59 0 109.5 72.5t50.5 141.5q0 53 -38 70q-13 5 -27 5q-71 0 -142 -98q-69 -99 -69 -217q0 -65 28 -106q29 -42 80 -42q132 0 344 359q-110 33 -110 130q0 129 131 206q83 48 161 48q61 0 110 -20
q69 -27 69 -82q0 -12 -5.5 -23t-11.5 -11q-13 13 -31 13q-85 0 -233 -253q8 -1 17 -1q34 0 68 20t34 50zM603.5 645.5q-66.5 -29.5 -106 -86.5t-39.5 -129t74 -86q55 90 142 179.5t145 89.5q15 0 26 -7q-1 28 -39 49q-34 20 -85 20t-117.5 -29.5z" />
    <glyph glyph-name="imacron" unicode="&#x12b;" horiz-adv-x="257" 
d="M-18 677h297v-71h-297v71zM44 -12q-59 0 -59 67q0 54 59 149.5t95 96.5q10 0 22.5 -8t12.5 -16q-5 -7 -12 -15.5t-15 -18.5t-22 -28.5t-27 -35.5q-75 -97 -75 -133t27 -36q36 0 99.5 53t92.5 85q7 10 13 10q4 0 4 -6q0 -30 -91 -97t-124 -67z" />
    <glyph glyph-name="Ibreve" unicode="&#x12c;" horiz-adv-x="338" 
d="M-2 531q-57 0 -73 52q-4 9 -4 18t5 9t14 -15q22 -42 69 -42t84 64q4 9 11 9q3 0 3 -4l-2 -6q-40 -85 -107 -85zM714 396l-7 27q0 8 8 8q3 0 8 -3q23 -17 23 -45t-36 -54.5t-91 -26.5q-17 0 -34 3q-69 -127 -168 -234q-132 -140 -240 -140q-156 0 -156 184q0 152 81 245
q68 80 156 80q23 0 47 -8q59 -23 59 -97.5t-61 -155.5t-125 -81q-72 0 -72 78q0 22 9.5 46t21.5 24q9 0 9 -9q0 -5 -9 -25t-9 -35.5t16.5 -29t34.5 -13.5q59 0 109.5 72.5t50.5 141.5q0 53 -38 70q-13 5 -27 5q-71 0 -142 -98q-69 -99 -69 -217q0 -65 28 -106q29 -42 80 -42
q132 0 344 359q-110 33 -110 130q0 129 131 206q83 48 161 48q61 0 110 -20q69 -27 69 -82q0 -12 -5.5 -23t-11.5 -11q-13 13 -31 13q-85 0 -233 -253q8 -1 17 -1q34 0 68 20t34 50zM603.5 645.5q-66.5 -29.5 -106 -86.5t-39.5 -129t74 -86q55 90 142 179.5t145 89.5
q15 0 26 -7q-1 28 -39 49q-34 20 -85 20t-117.5 -29.5z" />
    <glyph glyph-name="ibreve" unicode="&#x12d;" horiz-adv-x="257" 
d="M-44 366q-57 0 -73 52q-4 9 -4 18t5 9t14 -15q22 -42 69 -42t84 64q4 9 11 9q3 0 3 -4l-2 -6q-40 -85 -107 -85zM44 -12q-59 0 -59 67q0 54 59 149.5t95 96.5q10 0 22.5 -8t12.5 -16q-5 -7 -12 -15.5t-15 -18.5t-22 -28.5t-27 -35.5q-75 -97 -75 -133t27 -36
q36 0 99.5 53t92.5 85q7 10 13 10q4 0 4 -6q0 -30 -91 -97t-124 -67z" />
    <glyph glyph-name="Iogonek" unicode="&#x12e;" horiz-adv-x="338" 
d="M272 -110q0 -12 -43.5 -27t-64.5 -15q-55 0 -55 42q0 27 20.5 72t42.5 46l3 -3q-34 -47 -34 -88t45 -41q17 0 45 12l30 11q11 0 11 -9zM714 396l-7 27q0 8 8 8q3 0 8 -3q23 -17 23 -45t-36 -54.5t-91 -26.5q-17 0 -34 3q-69 -127 -168 -234q-132 -140 -240 -140
q-156 0 -156 184q0 152 81 245q68 80 156 80q23 0 47 -8q59 -23 59 -97.5t-61 -155.5t-125 -81q-72 0 -72 78q0 22 9.5 46t21.5 24q9 0 9 -9q0 -5 -9 -25t-9 -35.5t16.5 -29t34.5 -13.5q59 0 109.5 72.5t50.5 141.5q0 53 -38 70q-13 5 -27 5q-71 0 -142 -98
q-69 -99 -69 -217q0 -65 28 -106q29 -42 80 -42q132 0 344 359q-110 33 -110 130q0 129 131 206q83 48 161 48q61 0 110 -20q69 -27 69 -82q0 -12 -5.5 -23t-11.5 -11q-13 13 -31 13q-85 0 -233 -253q8 -1 17 -1q34 0 68 20t34 50zM603.5 645.5q-66.5 -29.5 -106 -86.5
t-39.5 -129t74 -86q55 90 142 179.5t145 89.5q15 0 26 -7q-1 28 -39 49q-34 20 -85 20t-117.5 -29.5z" />
    <glyph glyph-name="iogonek" unicode="&#x12f;" horiz-adv-x="257" 
d="M209 -110q0 -12 -43.5 -27t-64.5 -15q-55 0 -55 42q0 27 20.5 72t42.5 46l3 -3q-34 -47 -34 -88t45 -41q17 0 45 12l30 11q11 0 11 -9zM245.5 398.5q13.5 -9.5 13.5 -22.5t-12.5 -22.5t-27.5 -9.5t-27.5 11t-12.5 25q0 28 38 28q15 0 28.5 -9.5zM36 -11q-51 0 -51 66
q0 54 59 149.5t95 96.5q10 0 22.5 -8t12.5 -16q-5 -7 -12 -15.5t-15 -18.5t-22 -28.5t-27 -35.5q-75 -97 -75 -133.5t25 -36.5q21 0 57 23q84 52 133 114q18 23 24.5 23t6.5 -8t-23 -32t-36.5 -38t-18.5 -18.5t-18.5 -17t-20.5 -17.5t-20 -15t-23 -14.5t-23 -10.5
q-21 -9 -50 -9z" />
    <glyph glyph-name="Idotaccent" unicode="&#x130;" horiz-adv-x="338" 
d="M170 736q2 0 3 -1q-1 0 -14 -18l-17 -40q-11 -27 -27 -27q-7 0 -14 10.5t-7 22t30 32.5t46 21zM174 734q0 1 -1 1q0 -1 1 -1zM714 396l-7 27q0 8 8 8q3 0 8 -3q23 -17 23 -45t-36 -54.5t-91 -26.5q-17 0 -34 3q-69 -127 -168 -234q-132 -140 -240 -140q-156 0 -156 184
q0 152 81 245q68 80 156 80q23 0 47 -8q59 -23 59 -97.5t-61 -155.5t-125 -81q-72 0 -72 78q0 22 9.5 46t21.5 24q9 0 9 -9q0 -5 -9 -25t-9 -35.5t16.5 -29t34.5 -13.5q59 0 109.5 72.5t50.5 141.5q0 53 -38 70q-13 5 -27 5q-71 0 -142 -98q-69 -99 -69 -217q0 -65 28 -106
q29 -42 80 -42q132 0 344 359q-110 33 -110 130q0 129 131 206q83 48 161 48q61 0 110 -20q69 -27 69 -82q0 -12 -5.5 -23t-11.5 -11q-13 13 -31 13q-85 0 -233 -253q8 -1 17 -1q34 0 68 20t34 50zM603.5 645.5q-66.5 -29.5 -106 -86.5t-39.5 -129t74 -86q55 90 142 179.5
t145 89.5q15 0 26 -7q-1 28 -39 49q-34 20 -85 20t-117.5 -29.5z" />
    <glyph glyph-name="dotlessi" unicode="&#x131;" horiz-adv-x="226" 
d="M44 -12q-59 0 -59 67q0 54 59 149.5t95 96.5q10 0 22.5 -8t12.5 -16q-5 -7 -12 -15.5t-15 -18.5t-22 -28.5t-27 -35.5q-75 -97 -75 -133t27 -36q36 0 99.5 53t92.5 85q7 10 13 10q4 0 4 -6q0 -30 -91 -97t-124 -67z" />
    <glyph glyph-name="IJ" unicode="&#x132;" horiz-adv-x="1374" 
d="M714 396l-7 27q0 8 8 8q3 0 8 -3q23 -17 23 -45t-36 -54.5t-91 -26.5q-17 0 -34 3q-69 -127 -168 -234q-132 -140 -240 -140q-156 0 -156 184q0 152 81 245q68 80 156 80q23 0 47 -8q59 -23 59 -97.5t-61 -155.5t-125 -81q-72 0 -72 78q0 22 9.5 46t21.5 24q9 0 9 -9
q0 -5 -9 -25t-9 -35.5t16.5 -29t34.5 -13.5q59 0 109.5 72.5t50.5 141.5q0 53 -38 70q-13 5 -27 5q-71 0 -142 -98q-69 -99 -69 -217q0 -65 28 -106q29 -42 80 -42q132 0 344 359q-110 33 -110 130q0 129 131 206q83 48 161 48q61 0 110 -20q69 -27 69 -82q0 -12 -5.5 -23
t-11.5 -11q-13 13 -31 13q-85 0 -233 -253q8 -1 17 -1q34 0 68 20t34 50zM603.5 645.5q-66.5 -29.5 -106 -86.5t-39.5 -129t74 -86q55 90 142 179.5t145 89.5q15 0 26 -7q-1 28 -39 49q-34 20 -85 20t-117.5 -29.5zM1179 477q0 -8 -20.5 -8t-41 20.5t-20.5 50t18 53.5
q38 52 127 74q64 16 128 16h8q8 0 49 -3q-2 13 10.5 24.5t28.5 11.5q30 0 29 -43q108 -19 114 -58q1 -9 1 -15q0 -20 -12 -20t-7 24q-25 37 -99 52q-18 -81 -188 -352q-113 -178 -263 -298q-172 -136 -324 -136q-93 0 -138 47t-45 104.5t22 98.5q52 102 153 159
q74 43 137 43q68 0 106.5 -33t38.5 -83q0 -54 -40 -98q-25 -28 -40 -28q-4 0 -4 3.5t3 9.5q36 53 36 98.5t-26 74.5q-28 31 -78 31t-110 -40q-75 -49 -123 -147q-25 -49 -25 -101.5t39 -85t105 -32.5q254 0 531 446q166 266 170 326q-60 3 -63 3q-47 0 -120.5 -26t-95.5 -64
q-9 -15 -9 -33t19 -40t19 -26z" />
    <glyph glyph-name="ij" unicode="&#x133;" horiz-adv-x="427" 
d="M411 272q0 -6 -79 -142q-77 -147 -119 -205q-91 -130 -171 -130q-30 0 -55.5 19.5t-25.5 39t9 19.5q1 0 20.5 -25.5t45.5 -25.5q80 0 182 181q63 113 86 183q-59 -66 -136.5 -132t-123.5 -66q-59 0 -59 67q0 54 59 149.5t95 96.5q10 0 22.5 -8t12.5 -16q-5 -7 -12 -15.5
t-15 -18.5t-22 -28.5t-27 -35.5q-75 -97 -75 -133t27 -36q43 0 117 66t106.5 113t37.5 51l33 35q20 19 43.5 19t23.5 -22zM458.5 400q13.5 -10 13.5 -22.5t-12.5 -22t-27.5 -9.5t-27.5 10.5t-12.5 24.5q0 29 38 29q15 0 28.5 -10zM245.5 398.5q13.5 -9.5 13.5 -22.5
t-12.5 -22.5t-27.5 -9.5t-27.5 11t-12.5 25q0 28 38 28q15 0 28.5 -9.5z" />
    <glyph glyph-name="Jcircumflex" unicode="&#x134;" horiz-adv-x="272" 
d="M-56 530q-22 -6 -22 7q0 3 10 12q76 46 99 66q30 25 36 25q15 0 59 -48q4 -4 23.5 -26.5t19.5 -32t-8 -9.5t-43 32t-57 45q-6 -4 -33.5 -21t-51.5 -33t-32 -17zM684 477q0 -8 -20.5 -8t-41 20.5t-20.5 50t18 53.5q38 52 127 74q64 16 128 16h8q9 0 49 -3q-2 13 10.5 24.5
t28.5 11.5q30 0 29 -43q108 -19 114 -58q1 -9 1 -15q0 -20 -11.5 -20t-7.5 24q-25 37 -99 52q-18 -81 -188 -352q-113 -178 -263 -298q-172 -136 -324 -136q-93 0 -138 47t-45 104.5t22 98.5q53 102 153 159q74 43 137 43q68 0 106.5 -33t38.5 -83q0 -54 -40 -98
q-25 -28 -40 -28q-4 0 -4 3.5t3 9.5q36 53 36 98.5t-25 74.5q-29 31 -78.5 31t-110.5 -40q-75 -49 -123 -147q-25 -49 -25 -101.5t39 -85t105 -32.5q254 0 531 446q166 266 170 326q-60 3 -63 3q-47 0 -120.5 -26t-95.5 -64q-9 -15 -9 -33t19 -40t19 -26z" />
    <glyph glyph-name="jcircumflex" unicode="&#x135;" horiz-adv-x="257" 
d="M-67 365q-22 -6 -22 7q0 3 10 12q76 46 99 66q30 25 36 25q15 0 59 -48q4 -4 23.5 -26.5t19.5 -32t-8 -9.5t-43 32t-57 45q-6 -4 -33.5 -21t-51.5 -33t-32 -17zM22 -240q-46 0 -77 12v71q34 -10 66 -10q38 0 56 21t18 63v619h88v-616q0 -80 -38.5 -120t-112.5 -40z" />
    <glyph glyph-name="Kcommaaccent" unicode="&#x136;" horiz-adv-x="936" 
d="M832 697q21 0 21 -15q0 -61 -168 -349q7 -27 22 -63l298 227q171 130 231 167q134 80 263 80q37 0 68 -12q19 -7 19 -26t-10 -19q-6 0 -12.5 8t-38 8t-102.5 -16q-112 -25 -254 -112q-89 -55 -238 -169t-215 -157q51 -107 131 -199q123 -143 221 -143q48 0 48 37
q0 7 -1.5 14t3.5 17t12 10q13 0 17 -31q1 -5 1 -10q0 -32 -32.5 -52.5t-77 -20.5t-74.5 14q-79 39 -159.5 137t-123.5 206q-55 -32 -91 -35q-67 -87 -165 -169q-53 -45 -115 -72.5t-119 -27.5q-81 0 -125 40.5t-44 123.5q0 41 16 76q51 113 154 156q57 25 113.5 25t75.5 -37
q7 -13 7 -27.5t-4 -18.5t-11 7q-24 44 -51 49q-18 2 -26 2q-78 0 -146 -65q-88 -85 -88 -184q0 -108 122 -122h8q44 0 113 39q112 64 239 220q-23 21 -23 62t30.5 77.5t83.5 36.5q15 0 28 -3q50 84 97 181.5t47 112.5q0 2 -6 2t-69.5 -31.5t-90.5 -49.5t-66 -56.5t-39 -62.5
q0 -11 15.5 -22t56.5 -11q5 -2 5 -5.5t-27.5 -8t-43.5 -4.5q-36 0 -36 30q0 35 43 84t94 77q149 80 189 80zM673 249q-8 20 -13 40q-20 -29 -40 -57q10 0 18 1.5t35 15.5zM635 335q-12 5 -26.5 5t-29 -18t-14.5 -38.5t11 -34.5q49 70 59 86zM572 -142q0 -42 -32 -75.5
t-43.5 -33.5t-11.5 2t21.5 26.5t21.5 39.5t-13.5 27t-13.5 18q0 30 29 30q15 0 28.5 -10t13.5 -24z" />
    <glyph glyph-name="kcommaaccent" unicode="&#x137;" horiz-adv-x="394" 
d="M205 -12q-79 0 -134 125q-14 -21 -63 -118q-36 14 -36 38q0 43 129 236t177 227q4 3 16 3q31 0 31 -16q0 -8 -69.5 -90t-77.5 -99q91 47 145 47q31 0 53 -25q21 -21 21 -43v-6q-8 -57 -80 -94q-58 -31 -108 -31t-70 13q-6 1 -9.5 -3t-1.5 -10q28 -124 93 -124
q34 0 87.5 38t111.5 107q7 7 12.5 7t5.5 -5.5t-7 -15.5q-54 -66 -102 -104q-73 -57 -124 -57zM349 294q0 8 -9 16t-19 8q-54 0 -129.5 -45t-92.5 -102q9 0 48 -3q45 0 118 37q84 42 84 89zM127 -142q0 -42 -32 -75.5t-43.5 -33.5t-11.5 2t21.5 26.5t21.5 39.5t-13.5 27
t-13.5 18q0 30 29 30q15 0 28.5 -10t13.5 -24z" />
    <glyph glyph-name="kgreenlandic" unicode="&#x138;" horiz-adv-x="534" 
d="M403 536h106l-203 -237l219 -299h-105l-176 242l-66 -54v-188h-93v536h93v-139q0 -68 -6 -135l41 50z" />
    <glyph glyph-name="Lacute" unicode="&#x139;" horiz-adv-x="523" 
d="M859 592q0 -79 -77 -186q-60 -84 -159.5 -135t-183.5 -51q-31 0 -52 7q-42 -54 -135 -169q35 -50 126.5 -94t157.5 -44t98 18q44 23 44 66q0 11 -2 21t6.5 10t15 -14.5t6.5 -25.5q0 -35 -37 -66q-47 -38 -128 -38t-168 38t-143 103q-80 -80 -152 -80q-22 0 -38 8
q-35 20 -35 76t46.5 138t73.5 87q18 0 41 -41l63 -122q53 70 111 153q-82 37 -82 107q0 58 47 94q26 19 55.5 19t44.5 -31q3 -6 0.5 -7.5t-3.5 -0.5q-20 20 -43 20h-2q-29 0 -50.5 -31t-21.5 -57v-6q0 -52 72 -89q12 17 38.5 56.5t41.5 61.5q199 292 331 292q93 0 93 -87z
M770 662q-50 0 -124 -84q-51 -59 -119.5 -158.5t-123.5 -170.5q13 -3 29 -3q70 0 160 48t142 121q91 127 91 193q0 40 -35 51q-9 3 -20 3zM202 65q-24 33 -50 84.5t-34.5 61.5t-11.5 10h-4q-18 -3 -39 -64t-21 -119.5t36 -58.5q26 0 62.5 27t61.5 59zM-16 424q-7 0 -7 5t4 8
l105 81q11 9 17 9q9 0 9 -12t-8 -20q-9 -7 -61 -39t-59 -32z" />
    <glyph glyph-name="lacute" unicode="&#x13a;" horiz-adv-x="257" 
d="M72 20q33 0 85 35t101 95q12 16 19 16t7 -6t-41 -52q-100 -110 -167 -110q-33 0 -56 15.5t-23 48t17 75.5q29 68 93 171q117 190 166 190q10 0 20.5 -7.5t11.5 -16.5q-23 -31 -88.5 -119t-90.5 -126.5t-37.5 -57.5t-18.5 -29.5t-14 -27.5q-17 -34 -17 -64t33 -30z
M-53 452q-7 0 -7 5t4 8l105 81q11 9 17 9q9 0 9 -12t-8 -20q-9 -7 -61 -39t-59 -32z" />
    <glyph glyph-name="uni013B" unicode="&#x13b;" horiz-adv-x="523" 
d="M204 -209q11 25 24 70.5t17 77.5h87v-9q-8 -31 -31.5 -76.5t-48.5 -74.5h-48v12zM859 592q0 -79 -77 -186q-60 -84 -159.5 -135t-183.5 -51q-31 0 -52 7q-42 -54 -135 -169q35 -50 126.5 -94t157.5 -44t98 18q44 23 44 66q0 11 -2 21t6.5 10t15 -14.5t6.5 -25.5
q0 -35 -37 -66q-47 -38 -128 -38t-168 38t-143 103q-80 -80 -152 -80q-22 0 -38 8q-35 20 -35 76t46.5 138t73.5 87q18 0 41 -41l63 -122q53 70 111 153q-82 37 -82 107q0 58 47 94q26 19 55.5 19t44.5 -31q3 -6 0.5 -7.5t-3.5 -0.5q-20 20 -43 20h-2q-29 0 -50.5 -31
t-21.5 -57v-6q0 -52 72 -89q12 17 38.5 56.5t41.5 61.5q199 292 331 292q93 0 93 -87zM770 662q-50 0 -124 -84q-51 -59 -119.5 -158.5t-123.5 -170.5q13 -3 29 -3q70 0 160 48t142 121q91 127 91 193q0 40 -35 51q-9 3 -20 3zM202 65q-24 33 -50 84.5t-34.5 61.5t-11.5 10
h-4q-18 -3 -39 -64t-21 -119.5t36 -58.5q26 0 62.5 27t61.5 59z" />
    <glyph glyph-name="uni013C" unicode="&#x13c;" horiz-adv-x="257" 
d="M45 -209q11 25 24 70.5t17 77.5h87v-9q-8 -31 -31.5 -76.5t-48.5 -74.5h-48v12zM72 20q33 0 85 35t101 95q12 16 19 16t7 -6t-41 -52q-100 -110 -167 -110q-33 0 -56 15.5t-23 48t17 75.5q29 68 93 171q117 190 166 190q10 0 20.5 -7.5t11.5 -16.5q-23 -31 -88.5 -119
t-90.5 -126.5t-37.5 -57.5t-18.5 -29.5t-14 -27.5q-17 -34 -17 -64t33 -30z" />
    <glyph glyph-name="Lcaron" unicode="&#x13d;" horiz-adv-x="523" 
d="M333 567q11 32 20.5 77.5t12.5 70.5h87v-9q-6 -26 -27 -71t-45 -80h-48v12zM859 592q0 -79 -77 -186q-60 -84 -159.5 -135t-183.5 -51q-31 0 -52 7q-42 -54 -135 -169q35 -50 126.5 -94t157.5 -44t98 18q44 23 44 66q0 11 -2 21t6.5 10t15 -14.5t6.5 -25.5q0 -35 -37 -66
q-47 -38 -128 -38t-168 38t-143 103q-80 -80 -152 -80q-22 0 -38 8q-35 20 -35 76t46.5 138t73.5 87q18 0 41 -41l63 -122q53 70 111 153q-82 37 -82 107q0 58 47 94q26 19 55.5 19t44.5 -31q3 -6 0.5 -7.5t-3.5 -0.5q-20 20 -43 20h-2q-29 0 -50.5 -31t-21.5 -57v-6
q0 -52 72 -89q12 17 38.5 56.5t41.5 61.5q199 292 331 292q93 0 93 -87zM770 662q-50 0 -124 -84q-51 -59 -119.5 -158.5t-123.5 -170.5q13 -3 29 -3q70 0 160 48t142 121q91 127 91 193q0 40 -35 51q-9 3 -20 3zM202 65q-24 33 -50 84.5t-34.5 61.5t-11.5 10h-4
q-18 -3 -39 -64t-21 -119.5t36 -58.5q26 0 62.5 27t61.5 59z" />
    <glyph glyph-name="lcaron" unicode="&#x13e;" horiz-adv-x="257" 
d="M219 612q11 32 20.5 77.5t12.5 70.5h87v-9q-6 -26 -27 -71t-45 -80h-48v12zM72 20q33 0 85 35t101 95q12 16 19 16t7 -6t-41 -52q-100 -110 -167 -110q-33 0 -56 15.5t-23 48t17 75.5q29 68 93 171q117 190 166 190q10 0 20.5 -7.5t11.5 -16.5q-23 -31 -88.5 -119
t-90.5 -126.5t-37.5 -57.5t-18.5 -29.5t-14 -27.5q-17 -34 -17 -64t33 -30z" />
    <glyph glyph-name="Ldot" unicode="&#x13f;" horiz-adv-x="523" 
d="M385 247q2 0 3 -1q-1 0 -14 -18l-17 -40q-11 -27 -27 -27q-7 0 -14 10.5t-7 22t30 32.5t46 21zM389 245q0 1 -1 1q0 -1 1 -1zM859 592q0 -79 -77 -186q-60 -84 -159.5 -135t-183.5 -51q-31 0 -52 7q-42 -54 -135 -169q35 -50 126.5 -94t157.5 -44t98 18q44 23 44 66
q0 11 -2 21t6.5 10t15 -14.5t6.5 -25.5q0 -35 -37 -66q-47 -38 -128 -38t-168 38t-143 103q-80 -80 -152 -80q-22 0 -38 8q-35 20 -35 76t46.5 138t73.5 87q18 0 41 -41l63 -122q53 70 111 153q-82 37 -82 107q0 58 47 94q26 19 55.5 19t44.5 -31q3 -6 0.5 -7.5t-3.5 -0.5
q-20 20 -43 20h-2q-29 0 -50.5 -31t-21.5 -57v-6q0 -52 72 -89q12 17 38.5 56.5t41.5 61.5q199 292 331 292q93 0 93 -87zM770 662q-50 0 -124 -84q-51 -59 -119.5 -158.5t-123.5 -170.5q13 -3 29 -3q70 0 160 48t142 121q91 127 91 193q0 40 -35 51q-9 3 -20 3zM202 65
q-24 33 -50 84.5t-34.5 61.5t-11.5 10h-4q-18 -3 -39 -64t-21 -119.5t36 -58.5q26 0 62.5 27t61.5 59z" />
    <glyph glyph-name="ldot" unicode="&#x140;" horiz-adv-x="325" 
d="M293 223q2 0 3 -1q-1 0 -14 -18l-17 -40q-11 -27 -27 -27q-7 0 -14 10.5t-7 22t30 32.5t46 21zM297 221q0 1 -1 1q0 -1 1 -1zM72 20q33 0 85 35t101 95q12 16 19 16t7 -6t-41 -52q-100 -110 -167 -110q-33 0 -56 15.5t-23 48t17 75.5q29 68 93 171q117 190 166 190
q10 0 20.5 -7.5t11.5 -16.5q-23 -31 -88.5 -119t-90.5 -126.5t-37.5 -57.5t-18.5 -29.5t-14 -27.5q-17 -34 -17 -64t33 -30z" />
    <glyph glyph-name="Lslash" unicode="&#x141;" horiz-adv-x="658" 
d="M224 191l24 1h48q10 15 42 59q-82 37 -82 107q0 58 47 94q26 19 55.5 19t44.5 -31q3 -6 0.5 -7.5t-3.5 -0.5q-20 20 -43 20h-2q-29 0 -50.5 -31t-21.5 -57v-6q0 -52 72 -89q12 17 38.5 56.5t41.5 61.5q199 292 331 292q93 0 93 -87q0 -79 -77 -186q-60 -84 -159.5 -135
t-183.5 -51q-31 0 -52 7l-27 -35h1q29 -1 56.5 -1t44.5 2q5 -11 -53 -21l-75 -12l-82 -102q35 -50 126.5 -94t157.5 -44t98 18q44 23 44 66q0 11 -2 21t6.5 10t15 -14.5t6.5 -25.5q0 -35 -37 -66q-47 -38 -128 -38t-168 38t-143 103q-80 -80 -152 -80q-22 0 -38 8
q-35 20 -35 76t46.5 138t73.5 87q18 0 41 -41l63 -122l46 62l-8 1q-60 5 -60 13t6 12.5t11 4.5h2zM770 662q-50 0 -124 -84q-51 -59 -119.5 -158.5t-123.5 -170.5q13 -3 29 -3q70 0 160 48t142 121q91 127 91 193q0 40 -35 51q-9 3 -20 3zM202 65q-24 33 -50 84.5
t-34.5 61.5t-11.5 10h-4q-18 -3 -39 -64t-21 -119.5t36 -58.5q26 0 62.5 27t61.5 59z" />
    <glyph glyph-name="lslash" unicode="&#x142;" horiz-adv-x="259" 
d="M112 208q36 -2 72 -2t53 2q7 -11 -55 -22l-93 -14q-50 -78 -50 -121q0 -31 33 -31t85 35t101 95q12 16 19 16t7 -6t-41 -52q-100 -110 -167 -110q-33 0 -56 15.5t-23 54t34 106.5q-62 4 -62 15q0 7 6 12t13 5t26 1h34q17 32 59 101q117 190 166 190q10 0 20.5 -7.5
t11.5 -16.5q-23 -31 -86 -115.5t-107 -150.5z" />
    <glyph glyph-name="Nacute" unicode="&#x143;" horiz-adv-x="759" 
d="M402 12q-24 -37 -24 -48.5t9 -15.5q0 -2 -16.5 -12.5t-45.5 -10.5t-29 15q0 26 98.5 172.5t129.5 202.5q68 122 68 193q0 28 -11 52q-17 36 -82 36q-119 0 -253 -109q-102 -84 -157 -174q-50 -85 -50 -152q0 -96 89 -98h8q118 0 179 83q24 33 24 56t-11 29q-1 1 -1 4t6 3
q26 0 26 -34q0 -21 -20 -57t-72.5 -68t-119.5 -32t-106 39t-39 105q0 156 214 328q54 43 140.5 72t157 29t99.5 -26.5t29 -73.5q0 -114 -138 -323q31 39 101 99q249 209 428 275q9 4 20 4q38 0 48 -43q5 -17 -48 -71q-125 -128 -212 -280t-87 -218q0 -16 6 -22.5t19 -4
t54.5 20.5t54.5 21q5 -2 5 -5q0 -15 -52.5 -42t-78.5 -27t-33 9q-18 25 -18 63q0 86 92 247q59 101 182 272q-133 -12 -344 -210q-168 -159 -239 -273zM184 424q-7 0 -7 5t4 8l105 81q11 9 17 9q9 0 9 -12t-8 -20q-9 -7 -61 -39t-59 -32z" />
    <glyph glyph-name="nacute" unicode="&#x144;" horiz-adv-x="618" 
d="M161 316q27 0 27 -21q0 -6 -3 -12q-90 -125 -108 -189q233 233 283 233q5 1 9 1q28 0 28 -25q0 -5 -2 -10t-40 -54q-44 -52 -74.5 -100t-30.5 -80t14 -32q44 0 153 121q2 2 7 9q15 18 18 18t3 -10t-14 -26q-124 -141 -176 -141q-49 0 -49 54t40 124l64 104
q-68 -50 -121 -109.5t-96.5 -115.5t-50.5 -56q-15 0 -23.5 12.5t-8.5 31t13 49.5t33 75l-60 -63q-22 -22 -27.5 -22t-5.5 6.5t8 14.5q37 37 64 71q26 34 107 130q9 12 19 12zM116 259q-7 0 -7 5t4 8l105 81q11 9 17 9q9 0 9 -12t-8 -20q-9 -7 -61 -39t-59 -32z" />
    <glyph glyph-name="uni0145" unicode="&#x145;" horiz-adv-x="759" 
d="M281 -209q11 25 24 70.5t17 77.5h87v-9q-8 -31 -31.5 -76.5t-48.5 -74.5h-48v12zM402 12q-24 -37 -24 -48.5t9 -15.5q0 -2 -16.5 -12.5t-45.5 -10.5t-29 15q0 26 98.5 172.5t129.5 202.5q68 122 68 193q0 28 -11 52q-17 36 -82 36q-119 0 -253 -109q-102 -84 -157 -174
q-50 -85 -50 -152q0 -96 89 -98h8q118 0 179 83q24 33 24 56t-11 29q-1 1 -1 4t6 3q26 0 26 -34q0 -21 -20 -57t-72.5 -68t-119.5 -32t-106 39t-39 105q0 156 214 328q54 43 140.5 72t157 29t99.5 -26.5t29 -73.5q0 -114 -138 -323q31 39 101 99q249 209 428 275q9 4 20 4
q38 0 48 -43q5 -17 -48 -71q-125 -128 -212 -280t-87 -218q0 -16 6 -22.5t19 -4t54.5 20.5t54.5 21q5 -2 5 -5q0 -15 -52.5 -42t-78.5 -27t-33 9q-18 25 -18 63q0 86 92 247q59 101 182 272q-133 -12 -344 -210q-168 -159 -239 -273z" />
    <glyph glyph-name="uni0146" unicode="&#x146;" horiz-adv-x="618" 
d="M222 -209q11 25 24 70.5t17 77.5h87v-9q-8 -31 -31.5 -76.5t-48.5 -74.5h-48v12zM161 316q27 0 27 -21q0 -6 -3 -12q-90 -125 -108 -189q233 233 283 233q5 1 9 1q28 0 28 -25q0 -5 -2 -10t-40 -54q-44 -52 -74.5 -100t-30.5 -80t14 -32q44 0 153 121q2 2 7 9
q15 18 18 18t3 -10t-14 -26q-124 -141 -176 -141q-49 0 -49 54t40 124l64 104q-68 -50 -121 -109.5t-96.5 -115.5t-50.5 -56q-15 0 -23.5 12.5t-8.5 31t13 49.5t33 75l-60 -63q-22 -22 -27.5 -22t-5.5 6.5t8 14.5q37 37 64 71q26 34 107 130q9 12 19 12z" />
    <glyph glyph-name="Ncaron" unicode="&#x147;" horiz-adv-x="759" 
d="M409 638q6 0 6 -10t-60 -61q-63 -51 -75 -52l-6 3q-35 39 -125 107q-8 8 -8 12t7 5q21 -2 56.5 -24t47 -31.5t21 -19t12.5 -11.5q60 50 89 66t35 16zM402 12q-24 -37 -24 -48.5t9 -15.5q0 -2 -16.5 -12.5t-45.5 -10.5t-29 15q0 26 98.5 172.5t129.5 202.5q68 122 68 193
q0 28 -11 52q-17 36 -82 36q-119 0 -253 -109q-102 -84 -157 -174q-50 -85 -50 -152q0 -96 89 -98h8q118 0 179 83q24 33 24 56t-11 29q-1 1 -1 4t6 3q26 0 26 -34q0 -21 -20 -57t-72.5 -68t-119.5 -32t-106 39t-39 105q0 156 214 328q54 43 140.5 72t157 29t99.5 -26.5
t29 -73.5q0 -114 -138 -323q31 39 101 99q249 209 428 275q9 4 20 4q38 0 48 -43q5 -17 -48 -71q-125 -128 -212 -280t-87 -218q0 -16 6 -22.5t19 -4t54.5 20.5t54.5 21q5 -2 5 -5q0 -15 -52.5 -42t-78.5 -27t-33 9q-18 25 -18 63q0 86 92 247q59 101 182 272
q-133 -12 -344 -210q-168 -159 -239 -273z" />
    <glyph glyph-name="ncaron" unicode="&#x148;" horiz-adv-x="618" 
d="M342 473q6 0 6 -10t-60 -61q-63 -51 -75 -52l-6 3q-35 39 -125 107q-8 8 -8 12t7 5q21 -2 56.5 -24t47 -31.5t21 -19t12.5 -11.5q60 50 89 66t35 16zM161 316q27 0 27 -21q0 -6 -3 -12q-90 -125 -108 -189q233 233 283 233q5 1 9 1q28 0 28 -25q0 -5 -2 -10t-40 -54
q-44 -52 -74.5 -100t-30.5 -80t14 -32q44 0 153 121q2 2 7 9q15 18 18 18t3 -10t-14 -26q-124 -141 -176 -141q-49 0 -49 54t40 124l64 104q-68 -50 -121 -109.5t-96.5 -115.5t-50.5 -56q-15 0 -23.5 12.5t-8.5 31t13 49.5t33 75l-60 -63q-22 -22 -27.5 -22t-5.5 6.5t8 14.5
q37 37 64 71q26 34 107 130q9 12 19 12z" />
    <glyph glyph-name="napostrophe" unicode="&#x149;" horiz-adv-x="690" 
d="M145 714l7 -11q-25 -97 -86 -234h-65q34 139 50 245h94zM232 316q27 0 27 -21q0 -6 -3 -12q-90 -125 -108 -189q233 233 283 233q5 1 9 1q28 0 28 -25q0 -5 -2 -10t-40 -54q-44 -52 -74.5 -100t-30.5 -80t14 -32q44 0 153 121q2 2 7 9q15 18 18 18t3 -10t-14 -26
q-124 -141 -176 -141q-49 0 -49 54t40 124l64 104q-68 -50 -121 -109.5t-96.5 -115.5t-50.5 -56q-15 0 -23.5 12.5t-8.5 31t13 49.5t33 75l-60 -63q-22 -22 -27.5 -22t-5.5 6.5t8 14.5q37 37 64 71q26 34 107 130q9 12 19 12z" />
    <glyph glyph-name="Eng" unicode="&#x14a;" horiz-adv-x="759" 
d="M475 -190q-48 0 -76 13v76q35 -10 76 -10q50 0 76.5 28.5t27.5 82.5l-403 593h-4q8 -125 8 -206v-387h-83v714h104l381 -572h4q-7 75 -7 200v372h84v-708q0 -96 -48.5 -146t-139.5 -50z" />
    <glyph glyph-name="eng" unicode="&#x14b;" horiz-adv-x="618" 
d="M394 -240q-42 0 -71 12v71q29 -10 60 -10q67 0 67 84v427q0 65 -29 96.5t-90 31.5q-83 0 -120.5 -45.5t-37.5 -147.5v-279h-88v536h71l14 -73h5q25 40 69 61.5t98 21.5q99 0 147.5 -46.5t48.5 -149.5v-430q0 -75 -35 -117.5t-109 -42.5z" />
    <glyph glyph-name="Omacron" unicode="&#x14c;" horiz-adv-x="780" 
d="M242 842h297v-71h-297v71zM812 356q0 -125 -128 -239q-197 -176 -441 -176q-27 0 -42 1q-80 4 -128.5 52.5t-48.5 125.5t41 168q52 115 203 224q174 124 360 124q100 0 152 -39t52 -97q0 -36 -28 -89q8 -27 8 -55zM791 441q10 24 10 53.5t-22 60.5q-43 60 -152 60
q-151 0 -285 -93.5t-209 -235.5q-55 -103 -55 -185q0 -132 133 -139q14 -1 28 -1q197 0 375 159q128 114 138 217q-52 -57 -180 -136l-8 -2q-1 0 -1 1q0 4 27 27l56 46q72 63 105 103q-7 56 -50.5 93.5t-99.5 54.5q-28 7 -86.5 9t-58.5 4t2 4q46 15 88.5 15t97.5 -13
q105 -25 147 -102z" />
    <glyph glyph-name="omacron" unicode="&#x14d;" horiz-adv-x="604" 
d="M154 677h297v-71h-297v71zM261 212q0 -35 -67 -117q-79 -97 -135 -97h-16q-26 0 -41 27q-12 19 -12 42q0 60 87.5 168.5t141.5 108.5q51 0 51 -54q0 -14 -5 -36q1 -3 19 -3t55 19q-1 -17 -79 -49q1 -4 1 -9zM196 264q-34 0 -96.5 -80t-62.5 -118t24 -38q43 0 109 78
t66 112q-16 9 -40 46z" />
    <glyph glyph-name="Obreve" unicode="&#x14e;" horiz-adv-x="780" 
d="M217 531q-57 0 -73 52q-4 9 -4 18t5 9t14 -15q22 -42 69 -42t84 64q4 9 11 9q3 0 3 -4l-2 -6q-40 -85 -107 -85zM812 356q0 -125 -128 -239q-197 -176 -441 -176q-27 0 -42 1q-80 4 -128.5 52.5t-48.5 125.5t41 168q52 115 203 224q174 124 360 124q100 0 152 -39t52 -97
q0 -36 -28 -89q8 -27 8 -55zM791 441q10 24 10 53.5t-22 60.5q-43 60 -152 60q-151 0 -285 -93.5t-209 -235.5q-55 -103 -55 -185q0 -132 133 -139q14 -1 28 -1q197 0 375 159q128 114 138 217q-52 -57 -180 -136l-8 -2q-1 0 -1 1q0 4 27 27l56 46q72 63 105 103
q-7 56 -50.5 93.5t-99.5 54.5q-28 7 -86.5 9t-58.5 4t2 4q46 15 88.5 15t97.5 -13q105 -25 147 -102z" />
    <glyph glyph-name="obreve" unicode="&#x14f;" horiz-adv-x="604" 
d="M129 366q-57 0 -73 52q-4 9 -4 18t5 9t14 -15q22 -42 69 -42t84 64q4 9 11 9q3 0 3 -4l-2 -6q-40 -85 -107 -85zM261 212q0 -35 -67 -117q-79 -97 -135 -97h-16q-26 0 -41 27q-12 19 -12 42q0 60 87.5 168.5t141.5 108.5q51 0 51 -54q0 -14 -5 -36q1 -3 19 -3t55 19
q-1 -17 -79 -49q1 -4 1 -9zM196 264q-34 0 -96.5 -80t-62.5 -118t24 -38q43 0 109 78t66 112q-16 9 -40 46z" />
    <glyph glyph-name="Ohungarumlaut" unicode="&#x150;" horiz-adv-x="780" 
d="M305 731q2 9 7 9t11.5 -12t5 -19.5t-19 -39.5t-22 -32t-7 4t-2.5 6q0 1 27 84zM419 731q2 9 7 9t11 -10.5t6 -18t-18.5 -41t-23.5 -33.5q-9 0 -9 13zM812 356q0 -125 -128 -239q-197 -176 -441 -176q-27 0 -42 1q-80 4 -128.5 52.5t-48.5 125.5t41 168q52 115 203 224
q174 124 360 124q100 0 152 -39t52 -97q0 -36 -28 -89q8 -27 8 -55zM791 441q10 24 10 53.5t-22 60.5q-43 60 -152 60q-151 0 -285 -93.5t-209 -235.5q-55 -103 -55 -185q0 -132 133 -139q14 -1 28 -1q197 0 375 159q128 114 138 217q-52 -57 -180 -136l-8 -2q-1 0 -1 1
q0 4 27 27l56 46q72 63 105 103q-7 56 -50.5 93.5t-99.5 54.5q-28 7 -86.5 9t-58.5 4t2 4q46 15 88.5 15t97.5 -13q105 -25 147 -102z" />
    <glyph glyph-name="ohungarumlaut" unicode="&#x151;" horiz-adv-x="604" 
d="M213 566q2 9 7 9t11.5 -12t5 -19.5t-19 -39.5t-22 -32t-7 4t-2.5 6q0 1 27 84zM327 566q2 9 7 9t11 -10.5t6 -18t-18.5 -41t-23.5 -33.5q-9 0 -9 13zM261 212q0 -35 -67 -117q-79 -97 -135 -97h-16q-26 0 -41 27q-12 19 -12 42q0 60 87.5 168.5t141.5 108.5q51 0 51 -54
q0 -14 -5 -36q1 -3 19 -3t55 19q-1 -17 -79 -49q1 -4 1 -9zM196 264q-34 0 -96.5 -80t-62.5 -118t24 -38q43 0 109 78t66 112q-16 9 -40 46z" />
    <glyph glyph-name="OE" unicode="&#x152;" horiz-adv-x="1324" 
d="M1137 407q98 0 98 -37q0 -8 -6 -18q-24 -37 -87 -37q-41 0 -83.5 14.5t-65.5 30.5q-129 -38 -213 -125q-23 -43 -60 -83q-20 -40 -20 -76q0 -56 46.5 -91t136.5 -35q25 0 52 3q159 17 253 102q79 70 79 147q0 61 -59 61q-71 0 -163 -76q-23 -19 -39 -48t-16 -57t28 -35
q10 -4 10 -10q0 -10 -20 -8q-48 1 -48 63t63 116q86 74 182 74q71 0 91 -45q8 -21 8 -42q0 -93 -103 -175q-123 -100 -312 -100q-117 0 -185 43.5t-68 113.5q-180 -136 -393 -136q-27 0 -42 1q-80 4 -128.5 52.5t-48.5 125.5t41 168q52 115 203 224q174 124 360 124
q100 0 152 -39t52 -97q0 -36 -28 -89q8 -27 8 -53.5t-7 -59.5q72 46 171 78q-33 38 -33 81t21 72q41 56 123 92q98 43 196 43q57 0 91.5 -18.5t34.5 -57t-28.5 -65t-59.5 -26.5t-31 15q0 9 13 9l20 -3q20 0 36.5 21.5t16.5 44.5q0 34 -39 50q-25 10 -47 10t-31 -1
q-85 -5 -168 -60q-96 -63 -96 -142q0 -29 20 -54q64 20 122 20zM791 441q10 24 10 53.5t-22 60.5q-43 60 -152 60q-151 0 -285 -93.5t-209 -235.5q-55 -103 -55 -185q0 -132 133 -139q14 -1 28 -1q197 0 375 159q128 114 138 217q-52 -57 -180 -136l-8 -2q-1 0 -1 1
q0 4 27 27l56 46q72 63 105 103q-7 56 -50.5 93.5t-99.5 54.5q-28 7 -86.5 9t-58.5 4t2 4q46 15 88.5 15t97.5 -13q105 -25 147 -102zM1032 371q42 -34 98.5 -34t56.5 31q0 14 -50 14t-105 -11z" />
    <glyph glyph-name="oe" unicode="&#x153;" horiz-adv-x="464" 
d="M258 -13q-11 0 -20 3q-64 18 -64 72v10q-65 -74 -115 -74h-16q-26 0 -41 27q-12 19 -12 42q0 60 87.5 168.5t141.5 108.5q51 0 51 -54q0 -2 2.5 -15.5t1.5 -22t-1.5 -12.5t-0.5 -5q83 81 148 81q23 0 37.5 -12.5t14.5 -30.5q0 -56 -84 -107t-138 -51q-8 0 -14 2
q-15 -27 -15 -57q0 -52 49.5 -52t128.5 67q59 47 104 105q9 12 15.5 12t6.5 -6t-8 -17q-55 -73 -130.5 -127.5t-128.5 -54.5zM236 227q0 39 -26 39q-6 0 -14 -2q-34 0 -96.5 -80t-62.5 -118t24 -38q43 0 110 79l24 30q7 13 29 45q12 21 12 31v14zM447 275q0 12 -25.5 12
t-72.5 -39q-63 -52 -98 -109q6 -2 13 -2q38 0 101.5 40.5t79.5 88.5q2 5 2 9z" />
    <glyph glyph-name="Racute" unicode="&#x154;" horiz-adv-x="752" 
d="M572 270q-50 0 -93 8q14 -44 59 -199q14 -45 44 -91q41 -59 76 -59q42 0 70 85q5 20 10.5 20t8 -11.5t2.5 -15.5q0 -25 -28 -64q-37 -55 -81 -55t-81 44t-72.5 160.5t-35.5 148.5q0 5 1 8q-120 -159 -172 -210q-116 -113 -237 -113q-85 0 -85 64q0 32 20 70.5t49 67.5
t51 29q4 0 4 -2q0 -5 -25 -25t-48 -56.5t-23 -66.5q0 -53 71 -53q133 0 366 312q13 17 22 24l-16 6q-13 -5 -21 -5q-21 0 -21 17q0 23 31 30q4 1 7 1q18 0 42 -18q88 98 90 100q73 75 98.5 75t25.5 -22q0 -10 -4.5 -19t-10.5 -9q-6 -2 -6 6q0 4 6 12q1 14 -9 14
q-32 0 -155 -170q30 -2 50 -2q232 0 290 120q12 26 12 48q0 44 -40 76q-64 52 -208 52t-294 -73q-182 -89 -182 -209q0 -39 49 -39t104 36t74 71q7 13 13.5 13t3.5 -8q-19 -56 -84.5 -95.5t-136.5 -39.5t-71 45v7q15 131 160.5 222.5t350.5 91.5q191 0 271 -66
q48 -40 48 -94q0 -23 -11 -50q-31 -73 -127 -108.5t-202 -35.5zM684 661q-7 0 -7 5t4 8l105 81q10 9 18 9t8 -12t-8 -20q-9 -7 -61 -39t-59 -32z" />
    <glyph glyph-name="racute" unicode="&#x155;" horiz-adv-x="394" 
d="M204 -5q-75 0 -75 83q0 42 22 92t48 84q-5 -1 -13 -1q-24 0 -40 34l-74 -96q-62 -77 -72 -77q-5 0 -5 4q0 10 17 29q87 101 123 171q23 87 58 87q23 0 23 -20t-25 -51l-24 -32q0 -21 31 -21q18 0 40 13l26 16q2 1 10 1t17 -10t6 -18l-69 -87q-64 -82 -64 -129.5t44 -47.5
q46 0 113 49q40 29 73 65q31 36 34 36q7 0 7 -7.5t-9 -17.5l-32 -36q-27 -28 -60 -54q-79 -59 -130 -59zM264 400q-7 0 -7 5t4 8l105 81q11 9 17 9q9 0 9 -12t-8 -20q-9 -7 -61 -39t-59 -32z" />
    <glyph glyph-name="Rcommaaccent" unicode="&#x156;" horiz-adv-x="752" 
d="M572 270q-50 0 -93 8q14 -44 59 -199q14 -45 44 -91q41 -59 76 -59q42 0 70 85q5 20 10.5 20t8 -11.5t2.5 -15.5q0 -25 -28 -64q-37 -55 -81 -55t-81 44t-72.5 160.5t-35.5 148.5q0 5 1 8q-120 -159 -172 -210q-116 -113 -237 -113q-85 0 -85 64q0 32 20 70.5t49 67.5
t51 29q4 0 4 -2q0 -5 -25 -25t-48 -56.5t-23 -66.5q0 -53 71 -53q133 0 366 312q13 17 22 24l-16 6q-13 -5 -21 -5q-21 0 -21 17q0 23 31 30q4 1 7 1q18 0 42 -18q88 98 90 100q73 75 98.5 75t25.5 -22q0 -10 -4.5 -19t-10.5 -9q-6 -2 -6 6q0 4 6 12q1 14 -9 14
q-32 0 -155 -170q30 -2 50 -2q232 0 290 120q12 26 12 48q0 44 -40 76q-64 52 -208 52t-294 -73q-182 -89 -182 -209q0 -39 49 -39t104 36t74 71q7 13 13.5 13t3.5 -8q-19 -56 -84.5 -95.5t-136.5 -39.5t-71 45v7q15 131 160.5 222.5t350.5 91.5q191 0 271 -66
q48 -40 48 -94q0 -23 -11 -50q-31 -73 -127 -108.5t-202 -35.5zM362 -142q0 -42 -32 -75.5t-43.5 -33.5t-11.5 2t21.5 26.5t21.5 39.5t-13.5 27t-13.5 18q0 30 29 30q15 0 28.5 -10t13.5 -24z" />
    <glyph glyph-name="rcommaaccent" unicode="&#x157;" horiz-adv-x="394" 
d="M204 -5q-75 0 -75 83q0 42 22 92t48 84q-5 -1 -13 -1q-24 0 -40 34l-74 -96q-62 -77 -72 -77q-5 0 -5 4q0 10 17 29q87 101 123 171q23 87 58 87q23 0 23 -20t-25 -51l-24 -32q0 -21 31 -21q18 0 40 13l26 16q2 1 10 1t17 -10t6 -18l-69 -87q-64 -82 -64 -129.5t44 -47.5
q46 0 113 49q40 29 73 65q31 36 34 36q7 0 7 -7.5t-9 -17.5l-32 -36q-27 -28 -60 -54q-79 -59 -130 -59zM60 -142q0 -42 -32 -75.5t-43.5 -33.5t-11.5 2t21.5 26.5t21.5 39.5t-13.5 27t-13.5 18q0 30 29 30q15 0 28.5 -10t13.5 -24z" />
    <glyph glyph-name="Rcaron" unicode="&#x158;" horiz-adv-x="622" 
d="M339 638q6 0 6 -10t-60 -61q-63 -51 -75 -52l-6 3q-35 39 -125 107q-8 8 -8 12t7 5q21 -2 56.5 -24t47 -31.5t21 -19t12.5 -11.5q60 50 89 66t35 16zM572 270q-50 0 -93 8q14 -44 59 -199q14 -45 44 -91q41 -59 76 -59q42 0 70 85q5 20 10.5 20t8 -11.5t2.5 -15.5
q0 -25 -28 -64q-37 -55 -81 -55t-81 44t-72.5 160.5t-35.5 148.5q0 5 1 8q-120 -159 -172 -210q-116 -113 -237 -113q-85 0 -85 64q0 32 20 70.5t49 67.5t51 29q4 0 4 -2q0 -5 -25 -25t-48 -56.5t-23 -66.5q0 -53 71 -53q133 0 366 312q13 17 22 24l-16 6q-13 -5 -21 -5
q-21 0 -21 17q0 23 31 30q4 1 7 1q18 0 42 -18q88 98 90 100q73 75 98.5 75t25.5 -22q0 -10 -4.5 -19t-10.5 -9q-6 -2 -6 6q0 4 6 12q1 14 -9 14q-32 0 -155 -170q30 -2 50 -2q232 0 290 120q12 26 12 48q0 44 -40 76q-64 52 -208 52t-294 -73q-182 -89 -182 -209
q0 -39 49 -39t104 36t74 71q7 13 13.5 13t3.5 -8q-19 -56 -84.5 -95.5t-136.5 -39.5t-71 45v7q15 131 160.5 222.5t350.5 91.5q191 0 271 -66q48 -40 48 -94q0 -23 -11 -50q-31 -73 -127 -108.5t-202 -35.5z" />
    <glyph glyph-name="rcaron" unicode="&#x159;" horiz-adv-x="413" 
d="M260 473q6 0 6 -10t-60 -61q-63 -51 -75 -52l-6 3q-35 39 -125 107q-8 8 -8 12t7 5q21 -2 56.5 -24t47 -31.5t21 -19t12.5 -11.5q60 50 89 66t35 16zM204 -5q-75 0 -75 83q0 42 22 92t48 84q-5 -1 -13 -1q-24 0 -40 34l-74 -96q-62 -77 -72 -77q-5 0 -5 4q0 10 17 29
q87 101 123 171q23 87 58 87q23 0 23 -20t-25 -51l-24 -32q0 -21 31 -21q18 0 40 13l26 16q2 1 10 1t17 -10t6 -18l-69 -87q-64 -82 -64 -129.5t44 -47.5q46 0 113 49q40 29 73 65q31 36 34 36q7 0 7 -7.5t-9 -17.5l-32 -36q-27 -28 -60 -54q-79 -59 -130 -59z" />
    <glyph glyph-name="Sacute" unicode="&#x15a;" horiz-adv-x="548" 
d="M791 428q-37 -15 -63.5 -15t-26.5 11q0 7 29.5 8t42.5 7q38 20 38 59q0 20 -11 42q-32 57 -155 57q-71 0 -142 -21.5t-119 -66t-48 -82.5q0 -58 115 -85l118 -22q71 -13 106 -36q46 -28 46 -80q0 -21 -7 -45q-32 -108 -165 -165q-111 -49 -262 -49q-43 0 -75 4
q32 -18 84 -31q4 -1 4 -4q0 -9 -21 -9q-41 0 -102 49q-83 13 -124 46q-26 21 -48 62t-22 74t13 55q30 53 76 53q35 0 41 -59q14 -114 19 -130q15 -49 51 -83q42 -9 91 -9q108 0 212 43t150 122q19 31 19 55q0 47 -83 73l-176 40q-54 13 -86.5 43t-32.5 69q0 60 75 120
q57 46 139.5 71.5t162 25.5t131.5 -23q67 -31 67 -90.5t-61 -83.5zM147 -18q-58 64 -74 175q-9 63 -17 63t-15 -4.5t-14 -19.5t-7 -39q0 -77 54 -132q27 -28 73 -43zM93 424q-7 0 -7 5t4 8l105 81q11 9 17 9q9 0 9 -12t-8 -20q-9 -7 -61 -39t-59 -32z" />
    <glyph glyph-name="sacute" unicode="&#x15b;" horiz-adv-x="479" 
d="M184 15q-29 -17 -71.5 -17t-65 28t-38.5 89q-18 -18 -25 -18q-5 0 -5 7t5 12q33 41 112 118l126 118q54 51 64 51q32 0 32 -24q0 -12 -9.5 -23.5t-14 -18t-9.5 -12.5q-18 -31 -36.5 -128t-28.5 -135q83 1 171 108q10 10 15 10t5 -6.5t-9 -17.5q-58 -68 -108 -95
q-30 -15 -78 -25zM49 126q0 -34 22.5 -55.5t50.5 -21.5t43 11q20 11 39.5 92t23.5 143l4 34q-55 -41 -117.5 -106t-64.5 -86q-1 -6 -1 -11zM47 259q-7 0 -7 5t4 8l105 81q11 9 17 9q9 0 9 -12t-8 -20q-9 -7 -61 -39t-59 -32z" />
    <glyph glyph-name="Scircumflex" unicode="&#x15c;" horiz-adv-x="548" 
d="M91 530q-22 -6 -22 7q0 3 10 12q76 46 99 66q30 25 36 25q15 0 59 -48q4 -4 23.5 -26.5t19.5 -32t-8 -9.5t-43 32t-57 45q-6 -4 -33.5 -21t-51.5 -33t-32 -17zM791 428q-37 -15 -63.5 -15t-26.5 11q0 7 29.5 8t42.5 7q38 20 38 59q0 20 -11 42q-32 57 -155 57
q-71 0 -142 -21.5t-119 -66t-48 -82.5q0 -58 115 -85l118 -22q71 -13 106 -36q46 -28 46 -80q0 -21 -7 -45q-32 -108 -165 -165q-111 -49 -262 -49q-43 0 -75 4q32 -18 84 -31q4 -1 4 -4q0 -9 -21 -9q-41 0 -102 49q-83 13 -124 46q-26 21 -48 62t-22 74t13 55q30 53 76 53
q35 0 41 -59q14 -114 19 -130q15 -49 51 -83q42 -9 91 -9q108 0 212 43t150 122q19 31 19 55q0 47 -83 73l-176 40q-54 13 -86.5 43t-32.5 69q0 60 75 120q57 46 139.5 71.5t162 25.5t131.5 -23q67 -31 67 -90.5t-61 -83.5zM147 -18q-58 64 -74 175q-9 63 -17 63t-15 -4.5
t-14 -19.5t-7 -39q0 -77 54 -132q27 -28 73 -43z" />
    <glyph glyph-name="scircumflex" unicode="&#x15d;" horiz-adv-x="479" 
d="M52 365q-22 -6 -22 7q0 3 10 12q76 46 99 66q30 25 36 25q15 0 59 -48q4 -4 23.5 -26.5t19.5 -32t-8 -9.5t-43 32t-57 45q-6 -4 -33.5 -21t-51.5 -33t-32 -17zM184 15q-29 -17 -71.5 -17t-65 28t-38.5 89q-18 -18 -25 -18q-5 0 -5 7t5 12q33 41 112 118l126 118
q54 51 64 51q32 0 32 -24q0 -12 -9.5 -23.5t-14 -18t-9.5 -12.5q-18 -31 -36.5 -128t-28.5 -135q83 1 171 108q10 10 15 10t5 -6.5t-9 -17.5q-58 -68 -108 -95q-30 -15 -78 -25zM49 126q0 -34 22.5 -55.5t50.5 -21.5t43 11q20 11 39.5 92t23.5 143l4 34q-55 -41 -117.5 -106
t-64.5 -86q-1 -6 -1 -11z" />
    <glyph glyph-name="Scedilla" unicode="&#x15e;" horiz-adv-x="548" 
d="M791 428q-37 -15 -63.5 -15t-26.5 11q0 7 29.5 8t42.5 7q38 20 38 59q0 20 -11 42q-32 57 -155 57q-71 0 -142 -21.5t-119 -66t-48 -82.5q0 -58 115 -85l118 -22q71 -13 106 -36q46 -28 46 -80q0 -21 -7 -45q-32 -108 -165 -165q-111 -49 -262 -49q-43 0 -75 4
q32 -18 84 -31q4 -1 4 -4q0 -9 -21 -9q-41 0 -102 49q-83 13 -124 46q-26 21 -48 62t-22 74t13 55q30 53 76 53q35 0 41 -59q14 -114 19 -130q15 -49 51 -83q42 -9 91 -9q108 0 212 43t150 122q19 31 19 55q0 47 -83 73l-176 40q-54 13 -86.5 43t-32.5 69q0 60 75 120
q57 46 139.5 71.5t162 25.5t131.5 -23q67 -31 67 -90.5t-61 -83.5zM147 -18q-58 64 -74 175q-9 63 -17 63t-15 -4.5t-14 -19.5t-7 -39q0 -77 54 -132q27 -28 73 -43zM319 -181q0 -47 -48.5 -73t-100.5 -26q-9 0 -9 11q0 5 9 8q48 8 72 11q35 11 35 58q0 13 -26 50.5
t-26 56.5q0 35 19.5 61t50.5 26q11 0 12 -7q-21 -4 -33.5 -21.5t-12.5 -41.5q0 -11 29 -48.5t29 -64.5z" />
    <glyph glyph-name="scedilla" unicode="&#x15f;" horiz-adv-x="479" 
d="M184 15q-29 -17 -71.5 -17t-65 28t-38.5 89q-18 -18 -25 -18q-5 0 -5 7t5 12q33 41 112 118l126 118q54 51 64 51q32 0 32 -24q0 -12 -9.5 -23.5t-14 -18t-9.5 -12.5q-18 -31 -36.5 -128t-28.5 -135q83 1 171 108q10 10 15 10t5 -6.5t-9 -17.5q-58 -68 -108 -95
q-30 -15 -78 -25zM49 126q0 -34 22.5 -55.5t50.5 -21.5t43 11q20 11 39.5 92t23.5 143l4 34q-55 -41 -117.5 -106t-64.5 -86q-1 -6 -1 -11zM281 -181q0 -47 -48.5 -73t-100.5 -26q-9 0 -9 11q0 5 9 8q48 8 72 11q35 11 35 58q0 13 -26 50.5t-26 56.5q0 35 19.5 61t50.5 26
q11 0 12 -7q-21 -4 -33.5 -21.5t-12.5 -41.5q0 -11 29 -48.5t29 -64.5z" />
    <glyph glyph-name="Scaron" unicode="&#x160;" horiz-adv-x="748" 
d="M791 428q-37 -15 -63.5 -15t-26.5 11q0 7 29.5 8t42.5 7q38 20 38 59q0 20 -11 42q-32 57 -155 57q-71 0 -142 -21.5t-119 -66t-48 -82.5q0 -58 115 -85l118 -22q71 -13 106 -36q46 -28 46 -80q0 -21 -7 -45q-32 -108 -165 -165q-111 -49 -262 -49q-43 0 -75 4
q32 -18 84 -31q4 -1 4 -4q0 -9 -21 -9q-41 0 -102 49q-83 13 -124 46q-26 21 -48 62t-22 74t13 55q30 53 76 53q35 0 41 -59q14 -114 19 -130q15 -49 51 -83q42 -9 91 -9q108 0 212 43t150 122q19 31 19 55q0 47 -83 73l-176 40q-54 13 -86.5 43t-32.5 69q0 60 75 120
q57 46 139.5 71.5t162 25.5t131.5 -23q67 -31 67 -90.5t-61 -83.5zM147 -18q-58 64 -74 175q-9 63 -17 63t-15 -4.5t-14 -19.5t-7 -39q0 -77 54 -132q27 -28 73 -43zM906 821q6 0 6 -10t-60 -61q-63 -51 -75 -52l-6 3q-35 39 -125 107q-8 8 -8 12t7 5q21 -2 56.5 -24
t47 -31.5t21 -19t12.5 -11.5q60 50 89 66t35 16z" />
    <glyph glyph-name="scaron" unicode="&#x161;" horiz-adv-x="359" 
d="M184 15q-29 -17 -71.5 -17t-65 28t-38.5 89q-18 -18 -25 -18q-5 0 -5 7t5 12q33 41 112 118l126 118q54 51 64 51q32 0 32 -24q0 -12 -9.5 -23.5t-14 -18t-9.5 -12.5q-18 -31 -36.5 -128t-28.5 -135q83 1 171 108q10 10 15 10t5 -6.5t-9 -17.5q-58 -68 -108 -95
q-30 -15 -78 -25zM49 126q0 -34 22.5 -55.5t50.5 -21.5t43 11q20 11 39.5 92t23.5 143l4 34q-55 -41 -117.5 -106t-64.5 -86q-1 -6 -1 -11zM472 580q6 0 6 -10t-60 -61q-63 -51 -75 -52l-6 3q-35 39 -125 107q-8 8 -8 12t7 5q21 -2 56.5 -24t47 -31.5t21 -19t12.5 -11.5
q60 50 89 66t35 16z" />
    <glyph glyph-name="uni0162" unicode="&#x162;" horiz-adv-x="556" 
d="M28 67q0 108 64 214q-74 47 -74 139q0 111 98 197q110 97 284 97q80 0 172 -23q21 -5 179 -77.5t227 -72.5q46 0 69 26q12 13 12 28t-13 27q-7 10 -7 13t5.5 3t19 -17.5t13.5 -41t-31.5 -45t-79.5 -21.5q-75 0 -233 72.5t-198.5 80.5t-92.5 8q-207 0 -326 -134
q-14 -15 -33 -60.5t-19 -87.5q0 -58 41 -90q52 76 123 121t144 45q90 0 90 -70q0 -84 -98.5 -182.5t-182.5 -98.5q-54 0 -54 46q0 16 8.5 28t20.5 9l-2 -23q0 -15 46 -15q68 0 143.5 70t91.5 137q4 15 4 27q0 45 -57.5 45t-119 -44t-115.5 -116q4 -2 31 -8l60 -2
q44 -2 44 -10q0 -14 -42 -14h-6q-61 0 -100 15q-77 -118 -77 -217q0 -128 99 -128q112 0 233 156l196 292q110 160 191 164l38 -9q18 -10 18 -30t-10 -20l-32 5q-69 0 -177 -149l-199 -278q-128 -149 -245 -149q-80 0 -110.5 43t-30.5 125zM332 -181q0 -47 -48.5 -73
t-100.5 -26q-9 0 -9 11q0 5 9 8q48 8 72 11q35 11 35 58q0 13 -26 50.5t-26 56.5q0 35 19.5 61t50.5 26q11 0 12 -7q-21 -4 -33.5 -21.5t-12.5 -41.5q0 -11 29 -48.5t29 -64.5z" />
    <glyph glyph-name="uni0163" unicode="&#x163;" horiz-adv-x="360" 
d="M261 322l144 2q3 -2 3 -3q0 -9 -124.5 -25t-134.5 -19q-19 -17 -70 -101.5t-51 -123.5q0 -37 51 -37q24 0 63 15t60 28q56 35 120 103q14 14 19 14q3 0 3 -6t-15 -24q-52 -64 -117 -103q-78 -48 -149 -48q-31 0 -50.5 13.5t-19.5 54.5t36 112.5t55 106.5q-14 -3 -24 -3
q-29 0 -29 23q0 17 24 24q3 0 9 1h58q18 23 41 53q28 36 38 36t25 -8t15 -19t-48 -65q26 -1 68 -1zM273 -181q0 -47 -48.5 -73t-100.5 -26q-9 0 -9 11q0 5 9 8q48 8 72 11q35 11 35 58q0 13 -26 50.5t-26 56.5q0 35 19.5 61t50.5 26q11 0 12 -7q-21 -4 -33.5 -21.5
t-12.5 -41.5q0 -11 29 -48.5t29 -64.5z" />
    <glyph glyph-name="Tcaron" unicode="&#x164;" horiz-adv-x="556" 
d="M308 638q6 0 6 -10t-60 -61q-63 -51 -75 -52l-6 3q-35 39 -125 107q-8 8 -8 12t7 5q21 -2 56.5 -24t47 -31.5t21 -19t12.5 -11.5q60 50 89 66t35 16zM28 67q0 108 64 214q-74 47 -74 139q0 111 98 197q110 97 284 97q80 0 172 -23q21 -5 179 -77.5t227 -72.5q46 0 69 26
q12 13 12 28t-13 27q-7 10 -7 13t5.5 3t19 -17.5t13.5 -41t-31.5 -45t-79.5 -21.5q-75 0 -233 72.5t-198.5 80.5t-92.5 8q-207 0 -326 -134q-14 -15 -33 -60.5t-19 -87.5q0 -58 41 -90q52 76 123 121t144 45q90 0 90 -70q0 -84 -98.5 -182.5t-182.5 -98.5q-54 0 -54 46
q0 16 8.5 28t20.5 9l-2 -23q0 -15 46 -15q68 0 143.5 70t91.5 137q4 15 4 27q0 45 -57.5 45t-119 -44t-115.5 -116q4 -2 31 -8l60 -2q44 -2 44 -10q0 -14 -42 -14h-6q-61 0 -100 15q-77 -118 -77 -217q0 -128 99 -128q112 0 233 156l196 292q110 160 191 164l38 -9
q18 -10 18 -30t-10 -20l-32 5q-69 0 -177 -149l-199 -278q-128 -149 -245 -149q-80 0 -110.5 43t-30.5 125z" />
    <glyph glyph-name="tcaron" unicode="&#x165;" horiz-adv-x="360" 
d="M246 612q11 32 20.5 77.5t12.5 70.5h87v-9q-6 -26 -27 -71t-45 -80h-48v12zM261 322l144 2q3 -2 3 -3q0 -9 -124.5 -25t-134.5 -19q-19 -17 -70 -101.5t-51 -123.5q0 -37 51 -37q24 0 63 15t60 28q56 35 120 103q14 14 19 14q3 0 3 -6t-15 -24q-52 -64 -117 -103
q-78 -48 -149 -48q-31 0 -50.5 13.5t-19.5 54.5t36 112.5t55 106.5q-14 -3 -24 -3q-29 0 -29 23q0 17 24 24q3 0 9 1h58q18 23 41 53q28 36 38 36t25 -8t15 -19t-48 -65q26 -1 68 -1z" />
    <glyph glyph-name="Tbar" unicode="&#x166;" horiz-adv-x="556" 
d="M232 399v235h-222v80h535v-80h-223v-235h148v-74h-148v-325h-90v325h-149v74h149z" />
    <glyph glyph-name="tbar" unicode="&#x167;" horiz-adv-x="360" 
d="M266 62q42 0 73 11v-67q-13 -6 -39 -11t-54 -5q-154 0 -154 171v119h-68v66h68v122h-76v42l77 35l35 114h52v-123h155v-68h-155v-122h146v-66h-146v-114q0 -52 21 -78t65 -26z" />
    <glyph glyph-name="Utilde" unicode="&#x168;" horiz-adv-x="730" 
d="M307 652q0 -15 -40 -42q-13 -8 -29.5 -8t-49 13.5t-49 13.5t-32.5 -13t-21 -13q-1 1 -1 2q0 16 43 41q16 10 33.5 10t49 -10.5t52 -10.5t38.5 21q6 0 6 -4zM345 -19q-43 0 -43 30q0 52 132.5 238.5t160.5 229.5q61 94 61 128q0 17 -13 21q-24 10 -56 10q-110 0 -281 -117
q-112 -78 -185.5 -182.5t-73.5 -172.5q0 -49 40 -56q16 -3 32 -3q51 0 105 33q27 16 68 53l18 6q-19 -36 -79.5 -73t-124.5 -37q-15 0 -35 4t-38.5 28.5t-18.5 64.5q0 157 296 369q60 43 142 74.5t149 31.5q34 0 65.5 -13t31.5 -43.5t-35.5 -87t-111 -159t-128 -191.5
t-52.5 -124q0 -17 14 -17q27 0 101 56q176 134 414 435q38 48 61 48q9 0 9 -9q0 -4 -3 -10q1 -3 1 -6q0 -21 -24 -57l-118 -167q-72 -104 -127 -197t-51 -109l18 6q50 28 87 65q13 10 16 10l2 -2q0 -9 -27 -38q-70 -61 -100 -61t-30 19t53.5 118t171.5 273q-20 -24 -63 -71
q-246 -252 -295 -291q-73 -57 -136 -57z" />
    <glyph glyph-name="utilde" unicode="&#x169;" horiz-adv-x="618" 
d="M250 487q0 -15 -40 -42q-13 -8 -29.5 -8t-49 13.5t-49 13.5t-32.5 -13t-21 -13q-1 1 -1 2q0 16 43 41q16 10 33.5 10t49 -10.5t52 -10.5t38.5 21q6 0 6 -4zM280 -6q-5 -1 -21.5 -1t-33 13t-16.5 33.5t7.5 45.5t10.5 38q-115 -134 -180 -134q-41 0 -45 51v7q0 43 52 116
q-29 -26 -59 -60q-4 -4 -10 -4q-4 0 -4 5t9 17l138 162q26 30 53 30t27 -18q0 -7 -6 -13q-40 -37 -100.5 -123t-60.5 -127q0 -18 12 -18q42 0 122 83q28 28 104 123.5t100 95.5q36 0 36 -28q0 -10 -42 -58q-57 -69 -87 -112.5t-30 -70.5t15 -27q7 0 16 4q69 30 165 140
q6 7 12 7t6 -6.5t-7 -14.5q-43 -50 -101 -100.5t-82 -55.5z" />
    <glyph glyph-name="Umacron" unicode="&#x16a;" horiz-adv-x="730" 
d="M217 842h297v-71h-297v71zM345 -19q-43 0 -43 30q0 52 132.5 238.5t160.5 229.5q61 94 61 128q0 17 -13 21q-24 10 -56 10q-110 0 -281 -117q-112 -78 -185.5 -182.5t-73.5 -172.5q0 -49 40 -56q16 -3 32 -3q51 0 105 33q27 16 68 53l18 6q-19 -36 -79.5 -73t-124.5 -37
q-15 0 -35 4t-38.5 28.5t-18.5 64.5q0 157 296 369q60 43 142 74.5t149 31.5q34 0 65.5 -13t31.5 -43.5t-35.5 -87t-111 -159t-128 -191.5t-52.5 -124q0 -17 14 -17q27 0 101 56q176 134 414 435q38 48 61 48q9 0 9 -9q0 -4 -3 -10q1 -3 1 -6q0 -21 -24 -57l-118 -167
q-72 -104 -127 -197t-51 -109l18 6q50 28 87 65q13 10 16 10l2 -2q0 -9 -27 -38q-70 -61 -100 -61t-30 19t53.5 118t171.5 273q-20 -24 -63 -71q-246 -252 -295 -291q-73 -57 -136 -57z" />
    <glyph glyph-name="umacron" unicode="&#x16b;" horiz-adv-x="618" 
d="M159 677h297v-71h-297v71zM280 -6q-5 -1 -21.5 -1t-33 13t-16.5 33.5t7.5 45.5t10.5 38q-115 -134 -180 -134q-41 0 -45 51v7q0 43 52 116q-29 -26 -59 -60q-4 -4 -10 -4q-4 0 -4 5t9 17l138 162q26 30 53 30t27 -18q0 -7 -6 -13q-40 -37 -100.5 -123t-60.5 -127
q0 -18 12 -18q42 0 122 83q28 28 104 123.5t100 95.5q36 0 36 -28q0 -10 -42 -58q-57 -69 -87 -112.5t-30 -70.5t15 -27q7 0 16 4q69 30 165 140q6 7 12 7t6 -6.5t-7 -14.5q-43 -50 -101 -100.5t-82 -55.5z" />
    <glyph glyph-name="Ubreve" unicode="&#x16c;" horiz-adv-x="730" 
d="M191 531q-57 0 -73 52q-4 9 -4 18t5 9t14 -15q22 -42 69 -42t84 64q4 9 11 9q3 0 3 -4l-2 -6q-40 -85 -107 -85zM345 -19q-43 0 -43 30q0 52 132.5 238.5t160.5 229.5q61 94 61 128q0 17 -13 21q-24 10 -56 10q-110 0 -281 -117q-112 -78 -185.5 -182.5t-73.5 -172.5
q0 -49 40 -56q16 -3 32 -3q51 0 105 33q27 16 68 53l18 6q-19 -36 -79.5 -73t-124.5 -37q-15 0 -35 4t-38.5 28.5t-18.5 64.5q0 157 296 369q60 43 142 74.5t149 31.5q34 0 65.5 -13t31.5 -43.5t-35.5 -87t-111 -159t-128 -191.5t-52.5 -124q0 -17 14 -17q27 0 101 56
q176 134 414 435q38 48 61 48q9 0 9 -9q0 -4 -3 -10q1 -3 1 -6q0 -21 -24 -57l-118 -167q-72 -104 -127 -197t-51 -109l18 6q50 28 87 65q13 10 16 10l2 -2q0 -9 -27 -38q-70 -61 -100 -61t-30 19t53.5 118t171.5 273q-20 -24 -63 -71q-246 -252 -295 -291q-73 -57 -136 -57
z" />
    <glyph glyph-name="ubreve" unicode="&#x16d;" horiz-adv-x="618" 
d="M133 366q-57 0 -73 52q-4 9 -4 18t5 9t14 -15q22 -42 69 -42t84 64q4 9 11 9q3 0 3 -4l-2 -6q-40 -85 -107 -85zM280 -6q-5 -1 -21.5 -1t-33 13t-16.5 33.5t7.5 45.5t10.5 38q-115 -134 -180 -134q-41 0 -45 51v7q0 43 52 116q-29 -26 -59 -60q-4 -4 -10 -4q-4 0 -4 5
t9 17l138 162q26 30 53 30t27 -18q0 -7 -6 -13q-40 -37 -100.5 -123t-60.5 -127q0 -18 12 -18q42 0 122 83q28 28 104 123.5t100 95.5q36 0 36 -28q0 -10 -42 -58q-57 -69 -87 -112.5t-30 -70.5t15 -27q7 0 16 4q69 30 165 140q6 7 12 7t6 -6.5t-7 -14.5
q-43 -50 -101 -100.5t-82 -55.5z" />
    <glyph glyph-name="Uring" unicode="&#x16e;" horiz-adv-x="730" 
d="M240.5 728.5q12.5 -15.5 12.5 -44t-28.5 -57.5t-63.5 -29q-41 0 -41 38q0 23 11 47t28 29q17 32 51 32q18 0 30.5 -15.5zM212 640.5q17 23.5 17 54.5t-22 31q-12 0 -29 -13l11 -6q-1 -3 -16.5 -26.5t-15.5 -43.5t15 -20q23 0 40 23.5zM345 -19q-43 0 -43 30
q0 52 132.5 238.5t160.5 229.5q61 94 61 128q0 17 -13 21q-24 10 -56 10q-110 0 -281 -117q-112 -78 -185.5 -182.5t-73.5 -172.5q0 -49 40 -56q16 -3 32 -3q51 0 105 33q27 16 68 53l18 6q-19 -36 -79.5 -73t-124.5 -37q-15 0 -35 4t-38.5 28.5t-18.5 64.5q0 157 296 369
q60 43 142 74.5t149 31.5q34 0 65.5 -13t31.5 -43.5t-35.5 -87t-111 -159t-128 -191.5t-52.5 -124q0 -17 14 -17q27 0 101 56q176 134 414 435q38 48 61 48q9 0 9 -9q0 -4 -3 -10q1 -3 1 -6q0 -21 -24 -57l-118 -167q-72 -104 -127 -197t-51 -109l18 6q50 28 87 65
q13 10 16 10l2 -2q0 -9 -27 -38q-70 -61 -100 -61t-30 19t53.5 118t171.5 273q-20 -24 -63 -71q-246 -252 -295 -291q-73 -57 -136 -57z" />
    <glyph glyph-name="uring" unicode="&#x16f;" horiz-adv-x="618" 
d="M182.5 563.5q12.5 -15.5 12.5 -44t-28.5 -57.5t-63.5 -29q-41 0 -41 38q0 23 11 47t28 29q17 32 51 32q18 0 30.5 -15.5zM154 475.5q17 23.5 17 54.5t-22 31q-12 0 -29 -13l11 -6q-1 -3 -16.5 -26.5t-15.5 -43.5t15 -20q23 0 40 23.5zM280 -6q-5 -1 -21.5 -1t-33 13
t-16.5 33.5t7.5 45.5t10.5 38q-115 -134 -180 -134q-41 0 -45 51v7q0 43 52 116q-29 -26 -59 -60q-4 -4 -10 -4q-4 0 -4 5t9 17l138 162q26 30 53 30t27 -18q0 -7 -6 -13q-40 -37 -100.5 -123t-60.5 -127q0 -18 12 -18q42 0 122 83q28 28 104 123.5t100 95.5q36 0 36 -28
q0 -10 -42 -58q-57 -69 -87 -112.5t-30 -70.5t15 -27q7 0 16 4q69 30 165 140q6 7 12 7t6 -6.5t-7 -14.5q-43 -50 -101 -100.5t-82 -55.5z" />
    <glyph glyph-name="Uhungarumlaut" unicode="&#x170;" horiz-adv-x="730" 
d="M280 731q2 9 7 9t11.5 -12t5 -19.5t-19 -39.5t-22 -32t-7 4t-2.5 6q0 1 27 84zM394 731q2 9 7 9t11 -10.5t6 -18t-18.5 -41t-23.5 -33.5q-9 0 -9 13zM345 -19q-43 0 -43 30q0 52 132.5 238.5t160.5 229.5q61 94 61 128q0 17 -13 21q-24 10 -56 10q-110 0 -281 -117
q-112 -78 -185.5 -182.5t-73.5 -172.5q0 -49 40 -56q16 -3 32 -3q51 0 105 33q27 16 68 53l18 6q-19 -36 -79.5 -73t-124.5 -37q-15 0 -35 4t-38.5 28.5t-18.5 64.5q0 157 296 369q60 43 142 74.5t149 31.5q34 0 65.5 -13t31.5 -43.5t-35.5 -87t-111 -159t-128 -191.5
t-52.5 -124q0 -17 14 -17q27 0 101 56q176 134 414 435q38 48 61 48q9 0 9 -9q0 -4 -3 -10q1 -3 1 -6q0 -21 -24 -57l-118 -167q-72 -104 -127 -197t-51 -109l18 6q50 28 87 65q13 10 16 10l2 -2q0 -9 -27 -38q-70 -61 -100 -61t-30 19t53.5 118t171.5 273q-20 -24 -63 -71
q-246 -252 -295 -291q-73 -57 -136 -57z" />
    <glyph glyph-name="uhungarumlaut" unicode="&#x171;" horiz-adv-x="618" 
d="M223 566q2 9 7 9t11.5 -12t5 -19.5t-19 -39.5t-22 -32t-7 4t-2.5 6q0 1 27 84zM337 566q2 9 7 9t11 -10.5t6 -18t-18.5 -41t-23.5 -33.5q-9 0 -9 13zM280 -6q-5 -1 -21.5 -1t-33 13t-16.5 33.5t7.5 45.5t10.5 38q-115 -134 -180 -134q-41 0 -45 51v7q0 43 52 116
q-29 -26 -59 -60q-4 -4 -10 -4q-4 0 -4 5t9 17l138 162q26 30 53 30t27 -18q0 -7 -6 -13q-40 -37 -100.5 -123t-60.5 -127q0 -18 12 -18q42 0 122 83q28 28 104 123.5t100 95.5q36 0 36 -28q0 -10 -42 -58q-57 -69 -87 -112.5t-30 -70.5t15 -27q7 0 16 4q69 30 165 140
q6 7 12 7t6 -6.5t-7 -14.5q-43 -50 -101 -100.5t-82 -55.5z" />
    <glyph glyph-name="Uogonek" unicode="&#x172;" horiz-adv-x="730" 
d="M468 -110q0 -12 -43.5 -27t-64.5 -15q-55 0 -55 42q0 27 20.5 72t42.5 46l3 -3q-34 -47 -34 -88t45 -41q17 0 45 12l30 11q11 0 11 -9zM345 -19q-43 0 -43 30q0 52 132.5 238.5t160.5 229.5q61 94 61 128q0 17 -13 21q-24 10 -56 10q-110 0 -281 -117
q-112 -78 -185.5 -182.5t-73.5 -172.5q0 -49 40 -56q16 -3 32 -3q51 0 105 33q27 16 68 53l18 6q-19 -36 -79.5 -73t-124.5 -37q-15 0 -35 4t-38.5 28.5t-18.5 64.5q0 157 296 369q60 43 142 74.5t149 31.5q34 0 65.5 -13t31.5 -43.5t-35.5 -87t-111 -159t-128 -191.5
t-52.5 -124q0 -17 14 -17q27 0 101 56q176 134 414 435q38 48 61 48q9 0 9 -9q0 -4 -3 -10q1 -3 1 -6q0 -21 -24 -57l-118 -167q-72 -104 -127 -197t-51 -109l18 6q50 28 87 65q13 10 16 10l2 -2q0 -9 -27 -38q-70 -61 -100 -61t-30 19t53.5 118t171.5 273q-20 -24 -63 -71
q-246 -252 -295 -291q-73 -57 -136 -57z" />
    <glyph glyph-name="uogonek" unicode="&#x173;" horiz-adv-x="618" 
d="M570 -110q0 -12 -43.5 -27t-64.5 -15q-55 0 -55 42q0 27 20.5 72t42.5 46l3 -3q-34 -47 -34 -88t45 -41q17 0 45 12l30 11q11 0 11 -9zM280 -6q-5 -1 -21.5 -1t-33 13t-16.5 33.5t7.5 45.5t10.5 38q-115 -134 -180 -134q-41 0 -45 51v7q0 43 52 116q-29 -26 -59 -60
q-4 -4 -10 -4q-4 0 -4 5t9 17l138 162q26 30 53 30t27 -18q0 -7 -6 -13q-40 -37 -100.5 -123t-60.5 -127q0 -18 12 -18q42 0 122 83q28 28 104 123.5t100 95.5q36 0 36 -28q0 -10 -42 -58q-57 -69 -87 -112.5t-30 -70.5t15 -27q7 0 16 4q69 30 165 140q6 7 12 7t6 -6.5
t-7 -14.5q-43 -50 -101 -100.5t-82 -55.5z" />
    <glyph glyph-name="Wcircumflex" unicode="&#x174;" horiz-adv-x="930" 
d="M269 530q-22 -6 -22 7q0 3 10 12q76 46 99 66q30 25 36 25q15 0 59 -48q4 -4 23.5 -26.5t19.5 -32t-8 -9.5t-43 32t-57 45q-6 -4 -33.5 -21t-51.5 -33t-32 -17zM633 27q0 -67 67 -67q90 0 217 130q115 116 175.5 236.5t60.5 183.5q0 10 -2 20q-22 0 -45 23v-1
q-15 12 -15 24.5t10 20.5t26 8t22.5 -12.5t16.5 -22.5t9 -14q6 -9 18.5 -9t28.5 12t25.5 12t9.5 -6q0 -11 -19 -21q-10 -8 -24 -9h-32q12 -41 12 -59q0 -80 -76.5 -208t-196.5 -227q-121 -102 -219.5 -102t-98.5 96q0 76 64 217l72 157l-98 -76q-46 -38 -93.5 -83.5
t-165.5 -187.5l-116 -142q-28 -32 -50 -32q-17 0 -17 22t18 57l193 278q175 257 175 326q0 38 -70 38q-85 0 -237 -104q-82 -56 -144 -140.5t-62 -140t74 -55.5q69 0 142 64q26 22 30 22t3 -7q-11 -38 -81.5 -72.5t-124.5 -34.5q-14 0 -19 1h-1q-80 17 -80 79t69 149
q122 154 314 229q99 38 163 38q79 0 79 -52q0 -108 -272 -469q-91 -121 -92 -121q3 0 104.5 113t192.5 193q35 31 121 114q45 42 97 76q13 8 37.5 8t33.5 -14q-92 -114 -160.5 -255.5t-68.5 -202.5zM1214 535h1h-1z" />
    <glyph glyph-name="wcircumflex" unicode="&#x175;" horiz-adv-x="786" 
d="M199 365q-22 -6 -22 7q0 3 10 12q76 46 99 66q30 25 36 25q15 0 59 -48q4 -4 23.5 -26.5t19.5 -32t-8 -9.5t-43 32t-57 45q-6 -4 -33.5 -21t-51.5 -33t-32 -17zM402 314q0 6 6 6q18 0 28 -22q12 -19 12 -66q0 -72 -63 -147.5t-136 -75.5q-35 0 -56.5 34t-21.5 70t16 88
q-29 -29 -85 -99.5t-76 -103.5q-10 0 -27.5 11t-17.5 21q0 24 61 158.5t91 134.5q11 0 20 -10.5t9 -16t-54.5 -103t-53.5 -117.5q95 115 101 122q97 112 127 112q11 0 21.5 -9.5t10.5 -17t-28 -44.5t-47.5 -72.5t-19.5 -71.5q0 -63 42 -63h13q54 0 98.5 82.5t44.5 132.5
q0 40 -13 62q-2 2 -2 5z" />
    <glyph glyph-name="Ycircumflex" unicode="&#x176;" horiz-adv-x="565" 
d="M89 530q-22 -6 -22 7q0 3 10 12q76 46 99 66q30 25 36 25q15 0 59 -48q4 -4 23.5 -26.5t19.5 -32t-8 -9.5t-43 32t-57 45q-6 -4 -33.5 -21t-51.5 -33t-32 -17zM336 -254q-38 0 -74.5 27t-36.5 60q0 21 21 21q5 0 15 -2q12 -42 20 -57q17 -27 58 -27q123 0 302 336
l180 321q-193 -206 -273.5 -286.5t-110.5 -98.5q-60 -36 -99 -36q-57 0 -57 67q0 80 68 165q5 6 42.5 51.5t88 108.5t84 121.5t33.5 82t-14 30.5q-29 15 -66 15q-106 0 -293 -128q-78 -53 -124 -123t-46 -129t57 -74q18 -5 35 -5q51 0 113 44q73 49 82 52q-10 -37 -79 -81
q-76 -47 -142 -47q-9 0 -33.5 3.5t-48.5 36.5t-24 80q0 136 199 278q58 42 153 76t153.5 34t89 -18.5t30.5 -59t-56 -126t-177 -232.5q-25 -29 -46 -75.5t-21 -74t21.5 -27.5t64.5 31q122 87 243.5 211t178.5 208q41 59 87 59q16 0 16 -10q0 -2 -2 -8q-126 -220 -343 -584
q-64 -105 -136.5 -157.5t-132.5 -52.5z" />
    <glyph glyph-name="ycircumflex" unicode="&#x177;" horiz-adv-x="509" 
d="M64 365q-22 -6 -22 7q0 3 10 12q76 46 99 66q30 25 36 25q15 0 59 -48q4 -4 23.5 -26.5t19.5 -32t-8 -9.5t-43 32t-57 45q-6 -4 -33.5 -21t-51.5 -33t-32 -17zM-56 -116q48 -60 83 -60q57 0 123 91q48 67 94 169l38 92l-147 -115q-68 -53 -109 -53q-22 0 -35 15t-13 34
q0 43 74 141.5t108 98.5t34 -23q0 -9 -88.5 -103.5t-88.5 -127.5q0 -13 17 -13q32 0 128.5 75t145.5 124q11 13 31 39q19 22 42 22t23 -22q0 -4 -45 -71t-47 -71q-31 -60 -95 -175q-97 -156 -194 -156q-32 0 -56 27.5t-23 61.5z" />
    <glyph glyph-name="Ydieresis" unicode="&#x178;" horiz-adv-x="882" 
d="M336 -254q-38 0 -74.5 27t-36.5 60q0 21 21 21q5 0 15 -2q12 -42 20 -57q17 -27 58 -27q123 0 302 336l180 321q-193 -206 -273.5 -286.5t-110.5 -98.5q-60 -36 -99 -36q-57 0 -57 67q0 80 68 165q5 6 42.5 51.5t88 108.5t84 121.5t33.5 82t-14 30.5q-29 15 -66 15
q-106 0 -293 -128q-78 -53 -124 -123t-46 -129t57 -74q18 -5 35 -5q51 0 113 44q73 49 82 52q-10 -37 -79 -81q-76 -47 -142 -47q-9 0 -33.5 3.5t-48.5 36.5t-24 80q0 136 199 278q58 42 153 76t153.5 34t89 -18.5t30.5 -59t-56 -126t-177 -232.5q-25 -29 -46 -75.5t-21 -74
t21.5 -27.5t64.5 31q122 87 243.5 211t178.5 208q41 59 87 59q16 0 16 -10q0 -2 -2 -8q-126 -220 -343 -584q-64 -105 -136.5 -157.5t-132.5 -52.5zM717 625q-7 0 -14 10.5t-7 22t29 32.5q30 21 46 21q1 0 3 -1q-1 0 -14 -18l-16 -40q-12 -27 -27 -27zM895 710q-1 0 -14 -18
l-16 -40q-12 -27 -27 -27q-7 0 -14 10.5t-7 22t29 32.5q30 21 46 21zM775 709q0 1 -1 1h1v-1zM896 709q0 1 -1 1h1v-1z" />
    <glyph glyph-name="Zacute" unicode="&#x179;" horiz-adv-x="571" 
d="M908 533q-5 0 -107 16q-169 -96 -387.5 -246t-353.5 -277q153 17 311 31q18 1 52 1q125 0 197 -24t72 -64q0 -24 -29 -53q-38 -35 -52 -35q-5 0 -5 8.5t11.5 19t11.5 19.5q0 31 -93 57q-97 28 -182 28t-197.5 -16.5t-177.5 -16.5h-7q-16 -14 -20 -14q-2 0 -2 3.5t6 13.5
q-37 2 -37 21q0 15 16 31t28 16q2 0 4 -2q5 -8 43 -14q253 264 725 523l-30 6q-71 16 -183 16t-195 -30q-18 -4 -54 -22q-58 -29 -58 -69q0 -6 2.5 -14.5t-0.5 -13.5q-4 -6 -13.5 -6t-18 14t-8.5 30t5 33q19 64 123 94q53 15 177.5 15t246.5 -22q15 -1 50 -9l55 30q8 4 35 4
t27 -10q0 -4 -9 -7q-4 -3 -51 -29q45 -3 55.5 -3t19 5t6 15t1.5 10q6 0 14.5 -13.5t8.5 -24.5q0 -25 -33 -25zM87 424q-7 0 -7 5t4 8l105 81q11 9 17 9q9 0 9 -12t-8 -20q-9 -7 -61 -39t-59 -32z" />
    <glyph glyph-name="zacute" unicode="&#x17a;" horiz-adv-x="470" 
d="M67 41q-40 -28 -57 -28q-23 0 -23 25q0 9 6 22t12 13q9 0 4 -15q-3 -15 9 -15t29 12l-38 29q-2 2 -2 7t10 14.5t15.5 9.5t48.5 -34q124 140 182 184q-79 24 -117 24q-11 0 -21 -1.5t-21.5 -12t-11.5 -23.5t11 -21.5t11 -13.5t-7.5 -5t-24.5 20q-16 20 -16 41q0 35 51 46
q27 5 55 5t138 -36q14 8 30 8q42 0 42 -25q0 -10 -13 -18.5t-31 -8.5t-33 7q-95 -59 -204 -186l36 -28q43 -28 100 -28t84 18t27 46q0 13 -5 24.5t9 11.5q5 0 10 -11.5t5 -27.5q0 -40 -38 -66t-98 -26q-66 0 -109 25q-17 9 -55 38zM47 259q-7 0 -7 5t4 8l105 81q11 9 17 9
q9 0 9 -12t-8 -20q-9 -7 -61 -39t-59 -32z" />
    <glyph glyph-name="Zdotaccent" unicode="&#x17b;" horiz-adv-x="571" 
d="M286 736q2 0 3 -1q-1 0 -14 -18l-17 -40q-11 -27 -27 -27q-7 0 -14 10.5t-7 22t30 32.5t46 21zM290 734q0 1 -1 1q0 -1 1 -1zM908 533q-5 0 -107 16q-169 -96 -387.5 -246t-353.5 -277q153 17 311 31q18 1 52 1q125 0 197 -24t72 -64q0 -24 -29 -53q-38 -35 -52 -35
q-5 0 -5 8.5t11.5 19t11.5 19.5q0 31 -93 57q-97 28 -182 28t-197.5 -16.5t-177.5 -16.5h-7q-16 -14 -20 -14q-2 0 -2 3.5t6 13.5q-37 2 -37 21q0 15 16 31t28 16q2 0 4 -2q5 -8 43 -14q253 264 725 523l-30 6q-71 16 -183 16t-195 -30q-18 -4 -54 -22q-58 -29 -58 -69
q0 -6 2.5 -14.5t-0.5 -13.5q-4 -6 -13.5 -6t-18 14t-8.5 30t5 33q19 64 123 94q53 15 177.5 15t246.5 -22q15 -1 50 -9l55 30q8 4 35 4t27 -10q0 -4 -9 -7q-4 -3 -51 -29q45 -3 55.5 -3t19 5t6 15t1.5 10q6 0 14.5 -13.5t8.5 -24.5q0 -25 -33 -25z" />
    <glyph glyph-name="zdotaccent" unicode="&#x17c;" horiz-adv-x="470" 
d="M238 571q2 0 3 -1q-1 0 -14 -18l-17 -40q-11 -27 -27 -27q-7 0 -14 10.5t-7 22t30 32.5t46 21zM242 569q0 1 -1 1q0 -1 1 -1zM67 41q-40 -28 -57 -28q-23 0 -23 25q0 9 6 22t12 13q9 0 4 -15q-3 -15 9 -15t29 12l-38 29q-2 2 -2 7t10 14.5t15.5 9.5t48.5 -34
q124 140 182 184q-79 24 -117 24q-11 0 -21 -1.5t-21.5 -12t-11.5 -23.5t11 -21.5t11 -13.5t-7.5 -5t-24.5 20q-16 20 -16 41q0 35 51 46q27 5 55 5t138 -36q14 8 30 8q42 0 42 -25q0 -10 -13 -18.5t-31 -8.5t-33 7q-95 -59 -204 -186l36 -28q43 -28 100 -28t84 18t27 46
q0 13 -5 24.5t9 11.5q5 0 10 -11.5t5 -27.5q0 -40 -38 -66t-98 -26q-66 0 -109 25q-17 9 -55 38z" />
    <glyph glyph-name="Zcaron" unicode="&#x17d;" horiz-adv-x="739" 
d="M908 533q-5 0 -107 16q-169 -96 -387.5 -246t-353.5 -277q153 17 311 31q18 1 52 1q125 0 197 -24t72 -64q0 -24 -29 -53q-38 -35 -52 -35q-5 0 -5 8.5t11.5 19t11.5 19.5q0 31 -93 57q-97 28 -182 28t-197.5 -16.5t-177.5 -16.5h-7q-16 -14 -20 -14q-2 0 -2 3.5t6 13.5
q-37 2 -37 21q0 15 16 31t28 16q2 0 4 -2q5 -8 43 -14q253 264 725 523l-30 6q-71 16 -183 16t-195 -30q-18 -4 -54 -22q-58 -29 -58 -69q0 -6 2.5 -14.5t-0.5 -13.5q-4 -6 -13.5 -6t-18 14t-8.5 30t5 33q19 64 123 94q53 15 177.5 15t246.5 -22q15 -1 50 -9l55 30q8 4 35 4
t27 -10q0 -4 -9 -7q-4 -3 -51 -29q45 -3 55.5 -3t19 5t6 15t1.5 10q6 0 14.5 -13.5t8.5 -24.5q0 -25 -33 -25zM881 821q6 0 6 -10t-60 -61q-63 -51 -75 -52l-6 3q-35 39 -125 107q-8 8 -8 12t7 5q21 -2 56.5 -24t47 -31.5t21 -19t12.5 -11.5q60 50 89 66t35 16z" />
    <glyph glyph-name="zcaron" unicode="&#x17e;" horiz-adv-x="386" 
d="M67 41q-40 -28 -57 -28q-23 0 -23 25q0 9 6 22t12 13q9 0 4 -15q-3 -15 9 -15t29 12l-38 29q-2 2 -2 7t10 14.5t15.5 9.5t48.5 -34q124 140 182 184q-79 24 -117 24q-11 0 -21 -1.5t-21.5 -12t-11.5 -23.5t11 -21.5t11 -13.5t-7.5 -5t-24.5 20q-16 20 -16 41q0 35 51 46
q27 5 55 5t138 -36q14 8 30 8q42 0 42 -25q0 -10 -13 -18.5t-31 -8.5t-33 7q-95 -59 -204 -186l36 -28q43 -28 100 -28t84 18t27 46q0 13 -5 24.5t9 11.5q5 0 10 -11.5t5 -27.5q0 -40 -38 -66t-98 -26q-66 0 -109 25q-17 9 -55 38zM409 473q6 0 6 -10t-60 -61
q-63 -51 -75 -52l-6 3q-35 39 -125 107q-8 8 -8 12t7 5q21 -2 56.5 -24t47 -31.5t21 -19t12.5 -11.5q60 50 89 66t35 16z" />
    <glyph glyph-name="longs" unicode="&#x17f;" horiz-adv-x="326" 
d="M261 692q-46 0 -67 -28.5t-21 -86.5v-577h-88v577q0 188 177 188q49 0 100 -19l-23 -69q-44 15 -78 15z" />
    <glyph glyph-name="uni0180" unicode="&#x180;" horiz-adv-x="615" 
d="M339 545q106 0 163.5 -73t57.5 -204q0 -133 -58.5 -205.5t-162.5 -72.5q-54 0 -96.5 19.5t-69.5 58.5h-7q-15 -59 -18 -68h-63v605h-76v66h76v89h88v-89h213v-66h-213v-30q0 -55 -5 -110h5q54 80 166 80zM324 472q-81 0 -116 -46t-35 -155v-4q0 -110 36 -157t117 -47
q72 0 107.5 53t35.5 153q0 102 -35.5 152.5t-109.5 50.5z" />
    <glyph glyph-name="uni0181" unicode="&#x181;" horiz-adv-x="729" 
d="M151 637q-61 0 -61 -50q0 -30 10 -54h-79q-4 10 -7.5 26.5t-3.5 28.5q0 65 34.5 95.5t106.5 30.5h230q144 0 207.5 -43t63.5 -134q0 -63 -34.5 -104.5t-101.5 -53.5v-5q82 -14 121 -57t39 -114q0 -96 -66 -149.5t-182 -53.5h-251v637h-26zM267 410h132q84 0 122 27t38 90
q0 59 -41.5 84.5t-132.5 25.5h-118v-227zM267 335v-259h144q86 0 127.5 33.5t41.5 100.5q0 64 -44 94.5t-132 30.5h-137z" />
    <glyph glyph-name="uni0182" unicode="&#x182;" horiz-adv-x="615" 
d="M564 209q0 -105 -63.5 -157t-194.5 -52h-209v714h424v-79h-334v-223h106q137 0 204 -48.5t67 -154.5zM187 77h110q92 0 133 31t41 101q0 68 -43 96.5t-146 28.5h-95v-257z" />
    <glyph glyph-name="uni0183" unicode="&#x183;" horiz-adv-x="615" 
d="M339 545q106 0 163.5 -73t57.5 -204q0 -133 -58.5 -205.5t-162.5 -72.5q-54 0 -96.5 19.5t-69.5 58.5h-7q-15 -59 -18 -68h-63v760h421v-74h-333v-111q0 -55 -5 -110h5q54 80 166 80zM324 472q-81 0 -116 -46t-35 -155v-4q0 -110 36 -157t117 -47q72 0 107.5 53t35.5 153
q0 102 -35.5 152.5t-109.5 50.5z" />
    <glyph glyph-name="uni0184" unicode="&#x184;" horiz-adv-x="634" 
d="M180 210q0 -77 37.5 -110t122.5 -33q80 0 115.5 35.5t35.5 102.5q0 69 -48 99t-140 30h-123v-124zM90 714h90v-302h134q129 0 199.5 -53t70.5 -154t-63.5 -158t-179.5 -57q-251 0 -251 220v504z" />
    <glyph glyph-name="uni0185" unicode="&#x185;" horiz-adv-x="611" 
d="M322 -10q-115 0 -177.5 72.5t-62.5 204.5v493h88v-185q0 -55 -5 -110h5q54 80 166 80q106 0 163.5 -73t57.5 -204q0 -134 -61 -206t-174 -72zM170 265q0 -96 40.5 -149t112.5 -53t107.5 53t35.5 153q0 102 -35.5 152.5t-109.5 50.5q-81 0 -116 -46t-35 -155v-6z" />
    <glyph glyph-name="uni0186" unicode="&#x186;" horiz-adv-x="631" 
d="M243 724q158 0 243 -96t85 -272q0 -110 -39.5 -192.5t-114.5 -128t-174 -45.5q-55 0 -98 6.5t-86 22.5v78q94 -28 170 -28q115 0 181 77t66 211q0 137 -63.5 212.5t-183.5 75.5q-77 0 -162 -39l-36 76q84 42 212 42z" />
    <glyph glyph-name="uni0187" unicode="&#x187;" horiz-adv-x="631" 
d="M403 645q-115 0 -181 -77t-66 -211q0 -138 64 -213t182 -75q76 0 171 28v-78q-45 -17 -87 -23t-97 -6q-158 0 -243 96t-85 272q0 110 41 193t118.5 128t183.5 45q61 0 117 -14v14q0 64 27 99t88 35q30 0 60 -13v-72q-24 10 -52 10q-47 0 -47 -48v-51l-36 -78
q-33 15 -71.5 27t-86.5 12z" />
    <glyph glyph-name="uni0188" unicode="&#x188;" horiz-adv-x="502" 
d="M300 -10q-116 0 -180.5 71t-64.5 204q0 135 65.5 208t185.5 73q27 0 65 -6v91q0 64 26.5 99t88.5 35q29 0 60 -13v-73q-23 10 -52 10q-47 0 -47 -48v-124l-27 -73q-68 25 -116 25q-81 0 -119.5 -51t-38.5 -152q0 -97 38.5 -148.5t114.5 -51.5q71 0 139 31v-78
q-55 -29 -138 -29z" />
    <glyph glyph-name="uni0189" unicode="&#x189;" horiz-adv-x="729" 
d="M526 277q0 -18 -129 -36q-85 -113 -185 -196q56 -83 176 -83q13 0 39 2q278 26 394 241q47 86 47 170t-61 151q-49 55 -106.5 68t-117.5 13q-154 0 -284 -71q-137 -75 -137 -168q0 -25 13.5 -41t18.5 -18h-6q-26 5 -46 26q-22 26 -22 55q0 100 125.5 172t294.5 72
q78 0 160 -18t149 -86q77 -80 77 -181q0 -75 -44 -155q-76 -138 -227 -202q-121 -51 -261 -51t-207 84q-88 -68 -129 -68q-22 0 -32.5 21.5t-10.5 46.5q0 48 40.5 144t77.5 96q19 0 32.5 -75t27.5 -109q45 46 125 148q-12 0 -27 3q-32 6 -32 21q0 10 8.5 17t14.5 7t12 1h63
l33 43q162 213 215 233q18 7 37 7t31.5 -8t12.5 -20q0 -17 -29 -20q-35 -19 -108 -92q-69 -67 -125 -144q66 0 101 3q1 -1 1 -3zM51 29q0 -31 12 -54q43 19 104 79q-29 48 -36.5 75.5t-10.5 72.5q-69 -99 -69 -173zM194 309q1 0 2 1q0 -2 -0.5 -2t-1.5 1z" />
    <glyph glyph-name="uni018A" unicode="&#x18a;" horiz-adv-x="810" 
d="M654 361q0 136 -67 206t-203 70h-117v-560h97q290 0 290 284zM397 714q168 0 260 -92.5t92 -257.5q0 -177 -96.5 -270.5t-276.5 -93.5h-199v637h-26q-61 0 -61 -50q0 -30 10 -54h-79q-4 10 -7.5 26.5t-3.5 28.5q0 65 34.5 95.5t106.5 30.5h246z" />
    <glyph glyph-name="uni018B" unicode="&#x18b;" horiz-adv-x="615" 
d="M428 335h-82q-106 0 -154 -32t-48 -101q0 -63 44 -94t139 -31h101v258zM518 714v-714h-199q-268 0 -268 198q0 103 73.5 158.5t211.5 55.5h92v223h-334v79h424z" />
    <glyph glyph-name="uni018C" unicode="&#x18c;" horiz-adv-x="615" 
d="M289 63q80 0 117 43.5t37 143.5v16q0 112 -37.5 159.5t-117.5 47.5q-68 0 -105 -54t-37 -154t37 -151t106 -51zM530 0h-71l-13 72h-4q-56 -82 -167 -82q-104 0 -162 72.5t-58 204.5q0 131 58 205t163 74q108 0 166 -79h6q-1 10 -3.5 39.5t-2.5 39.5v140h-333v74h421v-760
z" />
    <glyph glyph-name="uni018D" unicode="&#x18d;" horiz-adv-x="604" 
d="M341 294q66 -38 95 -77t29 -87q0 -64 -48 -102t-132 -38q-51 0 -97 11.5t-109 42.5l38 69q37 -21 79 -36t93 -15q40 0 63.5 18.5t23.5 50.5q0 34 -26.5 60t-107.5 70q-104 57 -146 117t-42 136q0 115 66 180.5t184 65.5q112 0 179 -60.5t67 -163.5q0 -87 -54 -149.5
t-155 -92.5zM145 515q0 -62 30 -105.5t96 -77.5q92 22 139.5 74t47.5 131q0 67 -41.5 108.5t-112.5 41.5q-77 0 -118 -44.5t-41 -127.5z" />
    <glyph glyph-name="uni018E" unicode="&#x18e;" horiz-adv-x="556" 
d="M60 79h309v255h-291v78h291v223h-309v79h399v-714h-399v79z" />
    <glyph glyph-name="uni018F" unicode="&#x18f;" horiz-adv-x="738" 
d="M332 646q-110 0 -228 -41v82q61 21 114 29.5t116 8.5q162 0 252.5 -97.5t90.5 -271.5q0 -171 -85 -268.5t-237 -97.5q-147 0 -221.5 92t-74.5 275v34h523q-8 126 -71 190.5t-179 64.5zM355 69q100 0 159.5 63.5t67.5 179.5h-427q0 -125 49 -184t151 -59z" />
    <glyph glyph-name="uni0190" unicode="&#x190;" horiz-adv-x="587" 
d="M87 547q0 82 60.5 129.5t166.5 47.5q64 0 124 -18.5t109 -55.5l-43 -61q-52 36 -94 48.5t-94 12.5q-63 0 -99.5 -30.5t-36.5 -81.5q0 -60 48 -95.5t145 -35.5h97v-75h-102q-110 0 -165 -33t-55 -97q0 -67 48.5 -102.5t139.5 -35.5q105 0 214 52v-82q-90 -44 -219 -44
q-135 0 -206 52t-71 153q0 76 46.5 121t137.5 57v4q-72 12 -111.5 56.5t-39.5 113.5z" />
    <glyph glyph-name="uni0191" unicode="&#x191;" horiz-adv-x="519" 
d="M45 -240q-32 0 -56 13v76q21 -10 45 -10q35 0 49 20t14 62v793h399v-79h-309v-253h290v-79h-290v-386q0 -157 -142 -157z" />
    <glyph glyph-name="florin" unicode="&#x192;" horiz-adv-x="340" 
d="M239 55q0 -82 -92 -213.5t-175 -131.5q-106 0 -106 114q0 76 89.5 226t197.5 274q120 141 167 141q8 0 16 -7t8 -19t-10 -19q-59 -30 -125.5 -102t-99.5 -124q66 0 98 -40t32 -99zM198 39q0 48 -19 79q-25 42 -79 42q-45 0 -119 -153t-74 -203q0 -69 63 -69
q65 0 146.5 116.5t81.5 187.5z" />
    <glyph glyph-name="uni0193" unicode="&#x193;" horiz-adv-x="728" 
d="M407 377h247v-350q-57 -18 -115.5 -27.5t-135.5 -9.5q-163 0 -252.5 97t-89.5 270q0 112 44.5 195.5t128 127.5t197.5 44q71 0 137 -17v17q0 64 27 99t88 35q29 0 60 -13v-72q-24 10 -52 10q-47 0 -47 -48v-53l-34 -78q-94 41 -184 41q-127 0 -199 -77t-72 -211
q0 -142 68.5 -215.5t200.5 -73.5q72 0 140 17v212h-157v80z" />
    <glyph glyph-name="uni0194" unicode="&#x194;" horiz-adv-x="569" 
d="M334 108q33 -65 50 -121t17 -94q0 -59 -32 -96t-84 -37q-54 0 -85 37.5t-31 95.5q0 78 67 214l-236 607h94q89 -237 136.5 -362t54.5 -167q10 51 50 158l140 371h95zM319 -105q0 26 -8.5 62t-25.5 68q-19 -38 -26.5 -72t-7.5 -56q0 -31 9.5 -45t24.5 -14q34 0 34 57z" />
    <glyph glyph-name="uni0195" unicode="&#x195;" horiz-adv-x="934" 
d="M639 63q67 0 96.5 36t29.5 113v324h88v-327q0 -114 -51 -166.5t-163 -52.5q-110 0 -162 48.5t-52 147.5v157q0 65 -26 97t-83 32q-74 0 -108.5 -45.5t-34.5 -149.5v-277h-88v760h88v-223q0 -44 -5 -75h6q24 42 66 62.5t90 20.5q91 0 137 -46.5t46 -149.5v-157
q0 -65 30.5 -97t95.5 -32z" />
    <glyph glyph-name="uni0196" unicode="&#x196;" horiz-adv-x="348" 
d="M179 714v-549q0 -48 18 -72t59 -24q21 0 44 3.5t38 7.5v-74q-13 -6 -40 -11t-55 -5q-80 0 -116.5 41.5t-36.5 125.5v557h89z" />
    <glyph glyph-name="uni0197" unicode="&#x197;" horiz-adv-x="338" 
d="M298 0h-258v52l84 19v256h-90v78h90v237l-84 20v52h258v-52l-84 -20v-237h90v-78h-90v-256l84 -19v-52z" />
    <glyph glyph-name="uni0198" unicode="&#x198;" horiz-adv-x="619" 
d="M327 405l292 -405h-106q-30 40 -121 172q-71 103 -126 170l-79 -77v-265h-90v714h90v-360q28 35 60 72q21 24 185 225q29 38 54.5 53.5t66.5 15.5q30 0 50 -8v-70q-21 3 -44 3q-17 0 -31.5 -10t-36.5 -36z" />
    <glyph glyph-name="uni0199" unicode="&#x199;" horiz-adv-x="534" 
d="M172 363l-4 -87h4l30 38l34 41l171 181h103l-217 -229l232 -307h-106l-186 250l-61 -53v-197h-87v625q0 140 121 140q33 0 65 -13v-73q-23 10 -52 10q-23 0 -35 -13t-12 -45v-268z" />
    <glyph glyph-name="uni019A" unicode="&#x19a;" horiz-adv-x="257" 
d="M173 420h70v-66h-70v-354h-88v354h-70v66h70v340h88v-340z" />
    <glyph glyph-name="uni019B" unicode="&#x19b;" horiz-adv-x="541" 
d="M-6 0l231 526l-23 64l-106 -32l-19 63l99 30q-13 22 -29.5 32t-45.5 10q-30 0 -56 -6v71q33 8 66 8q53 0 87 -21t59 -69l109 33l19 -63l-102 -32l179 -498q10 -28 21.5 -41t28.5 -13q12 0 30 5v-65q-24 -12 -57 -12q-36 0 -58 18t-38 63l-73 205q-42 119 -50 159h-4
q-16 -62 -55 -154l-122 -281h-91z" />
    <glyph glyph-name="uni019C" unicode="&#x19c;" horiz-adv-x="1029" 
d="M180 714v-506q0 -70 29 -105t92 -35q84 0 124.5 47t40.5 147v452h90v-506q0 -70 29 -105t94 -35q84 0 123.5 49.5t39.5 164.5v432h90v-714h-71l-15 82h-5q-25 -42 -74 -67t-107 -25q-68 0 -110.5 24.5t-64.5 75.5h-5q-28 -48 -79.5 -74t-113.5 -26q-103 0 -150 53
t-47 165v506h90z" />
    <glyph glyph-name="uni019D" unicode="&#x19d;" horiz-adv-x="759" 
d="M97 714h104l22 -35l235 -362l124 -194h4q-1 12 -4 84t-3 104v403h84v-714h-105l-382 593h-4l2 -40q6 -89 6 -154v-482q0 -83 -34 -120t-101 -37q-32 0 -56 13v76q21 -10 45 -10q35 0 49 20t14 62v793z" />
    <glyph glyph-name="uni019E" unicode="&#x19e;" horiz-adv-x="618" 
d="M450 -240v583q0 64 -28.5 96.5t-91.5 32.5q-83 0 -120 -46.5t-37 -147.5v-278h-88v536h71l13 -73h5q25 40 70 61.5t99 21.5q99 0 146.5 -48t47.5 -149v-589h-87z" />
    </font>
</defs>
</svg>
