<?xml version="1.0" standalone="no"?>
<!DOCTYPE svg PUBLIC "-//W3C//DTD SVG 1.1//EN" "http://www.w3.org/Graphics/SVG/1.1/DTD/svg11.dtd" >
<svg xmlns="http://www.w3.org/2000/svg" xmlns:xlink="http://www.w3.org/1999/xlink" version="1.1">
<metadata>
Created by FontForge 20190801 at Mon Feb  8 12:12:20 2021
 By root
Copyright 2015 The Amatic SC Project Authors (https://github.com/googlefonts/AmaticSC)
</metadata>
<defs>
<font id="AmaticSC-Regular" horiz-adv-x="171" >
  <font-face 
    font-family="Amatic SC"
    font-weight="400"
    font-stretch="normal"
    units-per-em="1000"
    panose-1="0 0 5 0 0 0 0 0 0 0"
    ascent="800"
    descent="-200"
    x-height="662"
    cap-height="756"
    bbox="-213 -241 985 1062"
    underline-thickness="50"
    underline-position="-100"
    unicode-range="U+0001-206F"
  />
<missing-glyph horiz-adv-x="364" 
d="M33 0v666h265v-666h-265zM66 33h199v600h-199v-600z" />
    <glyph glyph-name=".notdef" horiz-adv-x="364" 
d="M33 0v666h265v-666h-265zM66 33h199v600h-199v-600z" />
    <glyph glyph-name=".null" horiz-adv-x="0" 
 />
    <glyph glyph-name="nonmarkingreturn" unicode="&#xd;" 
 />
    <glyph glyph-name="NULL" 
 />
    <glyph glyph-name="NULL" 
 />
    <glyph glyph-name="uni0001" 
 />
    <glyph glyph-name="uni0002" 
 />
    <glyph glyph-name="uni0003" 
 />
    <glyph glyph-name="uni0004" 
 />
    <glyph glyph-name="uni0005" 
 />
    <glyph glyph-name="uni0006" 
 />
    <glyph glyph-name="uni0007" 
 />
    <glyph glyph-name="uni0008" 
 />
    <glyph glyph-name="uni0009" unicode="&#x9;" 
 />
    <glyph glyph-name="uni000A" unicode="&#xa;" 
 />
    <glyph glyph-name="uni000B" 
 />
    <glyph glyph-name="uni000C" 
 />
    <glyph glyph-name="uni000E" 
 />
    <glyph glyph-name="uni000F" 
 />
    <glyph glyph-name="uni0010" 
 />
    <glyph glyph-name="uni0011" 
 />
    <glyph glyph-name="uni0012" 
 />
    <glyph glyph-name="uni0013" 
 />
    <glyph glyph-name="uni0014" 
 />
    <glyph glyph-name="uni0015" 
 />
    <glyph glyph-name="uni0016" 
 />
    <glyph glyph-name="uni0017" 
 />
    <glyph glyph-name="uni0018" 
 />
    <glyph glyph-name="uni0019" 
 />
    <glyph glyph-name="uni001A" 
 />
    <glyph glyph-name="uni001B" 
 />
    <glyph glyph-name="uni001C" 
 />
    <glyph glyph-name="uni001D" 
 />
    <glyph glyph-name="uni001E" 
 />
    <glyph glyph-name="uni001F" 
 />
    <glyph glyph-name="space" unicode=" " 
 />
    <glyph glyph-name="exclam" unicode="!" horiz-adv-x="254" 
d="M124 159l-1 2v240l2 85v86q0 45 -3 79l-2 27l-2 51q0 10 10.5 18.5t20.5 8.5q13 0 13 -13q0 -88 -10 -239q-11 -167 -11 -239l1 -20v-24q0 -42 -8 -59l3 -5h-13v2zM124 -8l-13 6q-5 3 -16 21q0 10 10 20.5t20 10.5q14 0 22 -10.5t8 -26.5q0 -25 -25 -26q-2 5 -6 5z" />
    <glyph glyph-name="quotedbl" unicode="&#x22;" horiz-adv-x="332" 
d="M99 616q2 9 2 60v8q0 85 11 85q10 0 16.5 -11.5t6.5 -26.5q0 -28 -11.5 -72.5t-20.5 -44.5zM215 614q-13 21 -13 74v22q0 25 3 37q5 17 9 20q4 2 8 2q6 0 9 -11q4 -11 4 -27q0 -28 -6 -73t-11 -45q-3 0 -3 1z" />
    <glyph glyph-name="numbersign" unicode="#" horiz-adv-x="400" 
d="M86.5 -25q-5.5 3 -5.5 7q0 40 12 148t24 163l-21 -2q-18 -2 -22 -2q-30 0 -30 21q0 10 34 10h21q17 0 20 1q3 6 10.5 72t7.5 81q-9 0 -16 -1l-17 -1q-38 0 -40 18l8 9h21q37 0 46 3l9 65q14 90 14 144v10l-1 10q0 22 15 22l7 -14q0 -39 -9 -116q-8 -68 -8 -116
q12 -4 42 -4h13q36 0 53 7q30 140 38 235q6 8 14 8q9 0 12 -10q0 -38 -18 -113t-18 -115l2 -5h37l13 -14q-6 -16 -13 -16q-11 0 -21 1l-21 1q-15 -60 -15 -151l6 -2l8 1h10q28 0 28 -19q0 -7 -16 -13h-39q-1 -20 -14 -139q-14 -118 -14 -174l-11 -13q-18 0 -18 10q0 15 7 62
q6 42 6 63q0 24 10 94q9 62 9 93q-27 3 -81 3q-21 0 -35 -4q-12 -110 -10 -93l-3 -30q-7 -86 -15 -143q-4 -29 -7.5 -42t-7.5 -13q-5 0 -10.5 3zM254 327l11 58q5 33 6 57q1 10 1 28q0 10 -77 10q-23 0 -33 -6q-5 -11 -11 -66t-6 -79v-2l1 -2l16 -2q52 0 92 4z" />
    <glyph glyph-name="dollar" unicode="$" horiz-adv-x="254" 
d="M132.5 -2q-2.5 7 -2.5 13l4 3v66l-3 3q-39 0 -50 -2q-35 24 -35 50q0 10 9 10h2q10 -7 13 -16q3 -13 10 -19t24 -6q14 0 28 4q0 35 -9 142.5t-17 183.5q-2 10 -11 28l-9 19q-10 20 -20 44t-17 50q-10 34 -10 64q0 28 10 64q5 19 15 31.5t23 12.5l-2 21q-2 9 -2 22
q0 26 14 26l8 -9q-1 -4 -1 -22q0 -37 16 -37q20 0 38 -22q25 -24 25 -30t-4 -11.5t-8 -1.5q-8 8 -14 19q-9 14 -18.5 20.5t-26.5 7.5l-3 -8q0 -22 2 -39q1 -18 1 -40q0 -33 8.5 -116t14.5 -98q7 -17 27 -57q53 -110 58 -171q0 -23 -4 -37.5t-14 -26.5t-21.5 -21.5
t-28.5 -21.5l2 -28q2 -13 2 -29q0 -42 -17 -42q-4 0 -6.5 7zM94 604q-8 81 -9 115q-9 -1 -16 -34t-7 -56q0 -61 38 -146q0 -2 3 -4q0 42 -9 125zM184.5 145.5q13.5 21.5 13.5 43.5q0 27 -23 95t-42 95q0 -44 9 -131q8 -93 8 -131l1 -2q20 9 33.5 30.5z" />
    <glyph glyph-name="percent" unicode="%" horiz-adv-x="540" 
d="M39 576v4q0 37 16 100q7 34 22 56t33 22h2q49 0 67 -37q31 -52 31 -155l-2 -3q0 -13 1 -23l1 -23q0 -17 -1 -35.5t-6 -41.5q-6 -27 -14.5 -44t-24.5 -30q-17 -13 -41 -13q-84 0 -84 223zM177 15q0 20 4.5 45.5t16.5 73.5q3 10 14 55q64 284 125 518l2 6q1 6 3 12.5t3 9.5
l5 10q2 3 4 3q6 0 10.5 -3.5t4.5 -9.5q0 -5 -4 -24l-10 -43q-4 -22 -6 -25l-113 -497l-20 -87l-3 -14q-2 -15 -8 -31q-6 -15 -18 -17q-10 7 -10 18zM157 395q15 16 21 44q9 46 9 84q0 27 -4 62q-4 54 -4 63l-2 9q0 30 -18.5 52t-45.5 22q-10 0 -18 -11.5t-12 -29.5
q-9 -35 -12 -68q-1 -8 -1.5 -13t-1.5 -8q0 -7 -2 -13l-2 -13q0 -14 1 -27l1 -28q0 -32 9 -78q6 -28 18 -45.5t28 -17.5q21 0 36 16zM367.5 32.5q-14.5 19.5 -22.5 50.5q-15 57 -15 88v4q0 223 84 223q22 0 39.5 -12.5t26.5 -31.5q8 -17 13.5 -41.5t6.5 -43.5l1 -35l-1 -23
l-1 -23l2 -3q0 -57 -17 -108q-10 -29 -31.5 -46.5t-51.5 -17.5q-19 0 -33.5 19.5zM447 64q14 17 21 47q5 18 7 57v29v32q0 35 -5 64q-5 25 -11 40t-18 25q-12 12 -30 12q-16 0 -27.5 -17t-17.5 -44q-9 -46 -9 -77l-1 -27q-1 -12 -1 -26q0 -7 2 -13l2 -13q0 -4 4 -23
q4 -26 7.5 -40.5t11.5 -28.5q9 -15 21 -15q28 0 44 18z" />
    <glyph glyph-name="ampersand" unicode="&#x26;" horiz-adv-x="449" 
d="M420 7q0 -16 -45 -16q-15 0 -32.5 6t-29.5 14q-15 9 -28 20q-35 -24 -58 -32.5t-56 -8.5q-34 0 -64 24t-46 60q-17 36 -17 69q0 45 6 75l5 31q1 10 9 30q3 9 5.5 15.5t3.5 11.5l13 30l14 27q2 5 6 13l10 20l17 33q0 24 -3 70q-4 41 -4 70v83q0 31 14 51q8 12 19 12
q24 0 49.5 -16t25.5 -35q0 -17 -1 -30l-2 -30l1 -12l-22 -65q-11 -31 -26 -61q-1 -2 -11 -16q-16 -22 -16 -37q0 -32 20 -111t48 -151q31 -75 52 -81q38 75 38 194q0 8 -2 12q-3 5 -6 3q-11 0 -15 7v2l-1 6l2 5q19 0 59 4t49 8q7 -1 12 -5t5 -10q0 -7 -15.5 -11.5
t-33.5 -4.5h-12q-5 1 -12 1h-7q0 -81 -9 -130t-34 -98q34 -40 78 -40q10 0 18 1q16 2 19 2zM159 676q-10 -14 -10 -22l1 -124l2 -5q-2 -8 -2 -17q0 -4 2 -22q1 -9 1 -22q17 15 38 76t21 90q0 60 -37 60q-6 0 -16 -14zM233 21.5q31 12.5 32 27.5q-4 8 -20 23q-30 30 -55.5 94
t-39.5 132l-5 40q-3 29 -8 46q-34 -44 -52.5 -103t-18.5 -120q0 -56 26 -102q13 -23 35.5 -36.5t51.5 -13.5q23 0 54 12.5z" />
    <glyph glyph-name="quotesingle" unicode="'" horiz-adv-x="234" 
d="M103 616q2 18 2 60v8q0 85 11 85q10 0 16.5 -11.5t6.5 -26.5q0 -28 -11.5 -72.5t-20.5 -44.5z" />
    <glyph glyph-name="parenleft" unicode="(" horiz-adv-x="203" 
d="M160 -155q-7 11 -11 20l-3 9q-45 100 -71 255t-26 300q0 39 13.5 123t35.5 159q24 81 48 83l10 -8q-1 -23 -22 -63l-13 -28q-45 -126 -45 -266q0 -315 76 -497q3 -8 20 -38t21 -48q-7 -12 -15 -12q-12 0 -18 11z" />
    <glyph glyph-name="parenright" unicode=")" horiz-adv-x="212" 
d="M14.5 -132.5q-4.5 3.5 -4.5 8.5t7 19l18 34l10 20t6 13q38 102 62 221t24 216q0 170 -45 296l-13 28q-22 39 -22 63l9 8q21 -2 40 -54q30 -81 51 -255q7 -72 7 -86q0 -110 -31 -243q-19 -83 -42 -160q-15 -54 -34 -95q-19 -37 -33 -37q-5 0 -9.5 3.5z" />
    <glyph glyph-name="asterisk" unicode="*" horiz-adv-x="430" 
d="M97 364q0 12 37 85q38 75 42 97q-8 2 -11 2h-113q-5 0 -8 -1h-8q-11 0 -11 16q0 5 3.5 8.5t7.5 3.5h68q29 -1 67 -1l2 2q-12 23 -42.5 88t-30.5 70t5 8t11 3t21 -35q3 -7 6.5 -15t6.5 -18q12 -26 17 -40q16 -39 26 -45q5 8 18 51q21 58 29 77q15 34 25 34q5 0 10.5 -5
t5.5 -10q0 -4 -13 -27q-12 -25 -27 -70q-15 -46 -24 -67l1 -1q27 -4 60 -4q14 0 43 3l43 2q7 0 13 -6t6 -13q0 -14 -23 -14l-57 2q-37 3 -57 3h-12q-15 0 -19 -3q0 -13 39 -88q38 -78 38 -88q0 -6 -4.5 -10t-9.5 -4q-10 0 -15.5 8.5t-8.5 25.5q-4 13 -4 18q-27 63 -54 114
q-4 -5 -12 -26l-39 -92l-6 -16q-9 -25 -15 -35l-13 -2zM214 546v1q-1 0 -1 -0.5v-0.5h1z" />
    <glyph glyph-name="plus" unicode="+" horiz-adv-x="400" 
d="M184.5 178.5q-7.5 4.5 -7.5 9.5v31q0 14 1 26l1 26q0 10 -0.5 15.5t-3.5 10.5t-9 6t-21 1l-22 -2q-15 -3 -22 -3q-29 0 -29 21q0 8 2 11t9 3l26 -1l27 -2q41 0 41 8q0 17 -3 50l-2 50q0 12 4 17t16 5q18 0 18 -17l-4 -10l2 -39l2 -40q0 -14 6.5 -19t21.5 -5l30 2l30 1
q31 0 31 -18q0 -16 -17 -16t-30 2q-13 1 -31 1h-5q-23 0 -29.5 -5.5t-6.5 -27.5q0 -21 4 -42q5 -28 5 -38q0 -7 -6 -11.5t-15 -4.5q-6 0 -13.5 4.5z" />
    <glyph glyph-name="comma" unicode="," horiz-adv-x="199" 
d="M74 -64q0 5 8 16l9 12q7 11 12 28q3 9 3.5 14.5t-1.5 6.5q-12 1 -19.5 10t-7.5 19q0 14 11.5 22t25.5 8q16 0 22.5 -11t6.5 -25q0 -24 -15 -55.5t-38 -50.5l-6 -1q-11 2 -11 7z" />
    <glyph glyph-name="hyphen" unicode="-" horiz-adv-x="266" 
d="M40.5 337q-6.5 5 -6.5 12q0 10 63.5 19.5t107.5 9.5q8 0 15 -5t7 -12q0 -10 -63 -19.5t-109 -9.5q-8 0 -14.5 5z" />
    <glyph glyph-name="period" unicode="." horiz-adv-x="147" 
d="M55.5 3.5q-6.5 7.5 -6.5 16.5q0 10 8 18.5t18 8.5q8 0 16 -8.5t8 -17.5q0 -25 -28 -25q-9 0 -15.5 7.5z" />
    <glyph glyph-name="slash" unicode="/" horiz-adv-x="332" 
d="M76 15q0 21 5 47t16 71l14 56q64 284 125 518l2 6q1 6 3 12.5t3 9.5l5 10q2 3 4 3q15 0 15 -13q0 -1 -5 -24l-10 -43l-5 -25l-38 -168l-75 -329l-20 -87q-1 -3 -3 -14q-2 -8 -8 -31q-6 -15 -19 -17q-9 6 -9 18z" />
    <glyph glyph-name="zero" unicode="0" horiz-adv-x="321" 
d="M150.5 -2q-12.5 5 -15.5 8q-49 37 -64 186q-7 70 -9.5 139t-2.5 175v80q1 36 1 80q0 25 3 42q1 11 4.5 16.5t13.5 15.5q14 13 50 13q90 0 109 -160q23 -170 23 -353q0 -61 -3 -98q-4 -46 -17 -87q-7 -21 -17 -33.5t-25 -20.5q-16 -8 -34 -8q-4 0 -16.5 5zM218 63
q14 49 16 94q3 56 3 74q0 32 -6 140q-6 107 -6 137v24q-3 60 -14 95q-8 31 -18.5 53.5t-26.5 36.5q-18 14 -42 14t-33.5 -12t-9.5 -37q0 -9 1 -16v-17l2 -93l2 -94v-98q0 -58 6 -124q6 -82 26 -150q9 -34 24.5 -54t33.5 -20q27 0 42 47z" />
    <glyph glyph-name="one" unicode="1" horiz-adv-x="275" 
d="M48 7q-4 4 -4 15q0 3 2.5 6.5t5.5 3.5h29l28 -1q16 0 20.5 3.5t4.5 16.5q0 233 -22 576v32l1 32q0 16 -3 22.5t-12 8.5t-31 2q-6 0 -11 -1l-12 -1q-17 0 -17 11q0 5 5.5 8t14.5 4q14 2 79 2q7 0 11.5 -5t4.5 -11v-31q0 -31 3 -94l2 -95q0 -21 7 -141q6 -130 6 -194v-13
l3 -55l2 -58l-1 -8l-1 -7l4 -3l23 2q10 1 22 1q31 0 31 -14t-22 -14l-80 -2q-40 -2 -81 -2q-8 0 -12 4z" />
    <glyph glyph-name="two" unicode="2" horiz-adv-x="338" 
d="M66 -2.5q-7 5.5 -7 14.5l53 122q59 128 87 241.5t28 234.5q0 144 -62 144q-13 -6 -21.5 -20.5t-10.5 -30.5q-4 -36 -17 -36q-10 0 -13 10v10q0 41 23 71q12 16 29 16q41 0 67.5 -31t27.5 -76l-1 -2q0 -20 1 -37q1 -16 1 -36q0 -83 -22.5 -200.5t-53.5 -186.5l-29 -65
l-22 -50q-17 -39 -23 -55q-3 -7 -3 -11q0 -5 6 -5q54 10 120 11q14 0 14 -16q0 -13 -9 -13l-71 -4q-55 -5 -75 -5q-10 0 -17 5.5z" />
    <glyph glyph-name="three" unicode="3" horiz-adv-x="332" 
d="M123 9.5q-20 10.5 -20 26.5l7 5q7 0 15 -4t16 -10q3 -3 12 -9q76 0 76 127q0 68 -4 112q-4 32 -11 56.5t-20 51.5q-12 25 -33 47h-4l-6 -1q-7 0 -19 4v4l-5 5q3 6 11 15q3 4 17.5 21t26.5 43q9 26 9 49q0 43 -5 79q-4 29 -10.5 48.5t-18.5 33.5q-13 15 -30 15
q-15 0 -26.5 -8.5t-15.5 -19.5q-10 -29 -23 -29q-6 0 -11.5 4t-6.5 10q17 34 37 50.5t49 16.5q13 0 25 -6.5t20 -17.5l3 -1q40 -58 40 -189q0 -24 -18 -56q-3 -2 -16 -23q-8 -13 -17 -25q40 -15 55 -60q10 -31 20 -87q2 -21 7 -39q5 -27 6 -34.5t1 -34.5q0 -36 -3 -63
q-3 -36 -15 -66q-13 -31 -40 -44q-14 -7 -33 -7q-22 0 -42 10.5z" />
    <glyph glyph-name="four" unicode="4" horiz-adv-x="299" 
d="M175 -6v36l-1 2q4 15 4 36q0 17 -3 51q-4 31 -4 51l1 22q1 10 1 23q0 38 -10 44q-11 0 -29 -3q-20 -3 -30 -3q-9 0 -13 1q-6 4 -8 6l-6 4v3q0 5 6 32l-10 20q0 7 5 24q5 18 5 25q0 39 4 98q5 54 5 98v159q0 7 -2 13l-2 12q0 13 12 13q7 0 12.5 -4t5.5 -10q0 -22 -2 -40
l-2 -40q0 -17 3 -34l-2 -3q2 -12 2 -28q0 -42 -6 -126t-6 -126q0 -6 4 -15q3 -9 3 -14t-3 -13q-4 -8 -4 -14q0 -19 10 -19q9 0 26.5 3t24.5 6q0 24 -8 216q0 15 -4 39q-4 36 -4 41q0 6 6 9t13 3l9 -11q0 -23 3 -70q3 -48 3 -71q0 -38 3 -95t7 -61l18 2q9 2 19 2q19 0 19 -11
q0 -8 -8 -11t-19 -1q-12 1 -20.5 -4.5t-8.5 -17.5q0 -40 3 -101t6 -68q0 -1 -0.5 -5t-0.5 -12q0 -16 5 -24l-4 -12l4 -7v-14l-17 -12z" />
    <glyph glyph-name="five" unicode="5" horiz-adv-x="316" 
d="M125 6q0 11 19 11q5 0 13 -4q7 -4 12 -4q15 0 28 18t21 45q14 54 14 88q0 71 -10 170q-7 55 -23 96q-16 39 -39 39h-23l-5 -3h-1l-2 1q-1 0 -11 -5q-10 -4 -11 -4q-9 0 -14.5 4.5t-7.5 11.5q-1 3 -1 7.5t-1 8.5v15q4 25 4 51q0 33 -11 108q-11 66 -13 104l11 10l76 1h2
q29 0 29 -14l-12 -9h-21l-2 -2l-41 5l-6 -2l-4 1q0 -19 3 -54q3 -37 4 -41q3 -52 13 -168l-2 -1l18 -2q57 -7 69 -16q18 -13 32.5 -66t19.5 -108q5 -42 5 -84q0 -40 -2 -69q-2 -36 -12 -73q-6 -20 -14 -34t-20 -26q-11 -12 -27 -22h-8q-49 0 -49 16zM95 653q-1 0 -1 -0.5
v-0.5z" />
    <glyph glyph-name="six" unicode="6" horiz-adv-x="313" 
d="M138.5 -3.5q-14.5 10.5 -21.5 27.5q-14 29 -18 81l-2 25q-1 25 -4 50q-15 110 -15 214v4q0 44 2 89q1 47 11 123q6 57 28 109q20 47 55 47q4 0 8.5 -3t4.5 -6q0 -9 -22 -20q-2 -1 -13 -6q-14 -12 -26.5 -74.5t-16.5 -124.5l-5 -94q13 8 22 8q34 0 56 -30q25 -39 33 -75
q14 -57 18 -96l2 -25q4 -48 4 -69q1 -17 1 -38v-30q0 -33 -6 -55q-9 -26 -32 -36q-13 -6 -31 -6t-32.5 10.5zM216 85q0 56 -4 113q-4 81 -22 150q-8 36 -22.5 56t-33.5 20q-30 -19 -30 -54v-15q0 -127 25 -274l2 -14l5 -29q3 -12 13 -22t30 -10q37 0 37 79z" />
    <glyph glyph-name="seven" unicode="7" horiz-adv-x="293" 
d="M81 -2q0 19 11 49l7 23q17 72 28.5 151.5t25.5 208.5l18 162l7 46q10 59 10 102q0 6 -34 6q-17 0 -30 -1l-29 -2l-15 10l8 9l54 2q23 1 52 1q7 0 13.5 -5.5t9.5 -12.5q-7 -17 -7 -45q0 -16 -1 -21q-6 -77 -45 -351t-48 -288l1 -8q0 -16 -7 -31.5t-17 -15.5z" />
    <glyph glyph-name="eight" unicode="8" horiz-adv-x="291" 
d="M121 -24.5q-14 13.5 -21 36.5q-15 44 -15 79q0 152 33 278l6 17q8 24 8 38q0 6 -4 21l-11 36l-8 22q-46 143 -46 201q0 32 13 55q13 27 46 27h18l9 -4q12 -5 18 -11t7 -10q19 -42 19 -111q0 -57 -20 -158l-14 -68q0 -5 8 -25q4 -10 4 -11q66 -198 66 -337q0 -7 -1 -12
l-2 -12l1 -5q-16 -33 -34 -46.5t-48 -13.5q-18 0 -32 13.5zM170 652q0 51 -12 87q-9 25 -24 25h-5q-2 -1 -5 -1q-8 0 -13 3q-23 -18 -23 -64q0 -21 9.5 -75.5t22 -101t21.5 -52.5q29 93 29 179zM198.5 2q14.5 21 14.5 56q0 98 -38 234l-7 31q-9 43 -20 62
q-18 -25 -29 -122.5t-11 -180.5q0 -19 14 -53l-1 -3q1 -17 10 -31t22 -14q31 0 45.5 21z" />
    <glyph glyph-name="nine" unicode="9" horiz-adv-x="288" 
d="M163 -13q9 26 9 89l2 140q3 93 3 139l-1 54q-1 24 -1 54l-7 -2q-34 4 -62 22t-46 44q-36 53 -36 116q0 60 29.5 99.5t79.5 39.5q17 0 37.5 -7.5t27.5 -17.5q7 -11 7 -160v-59q-1 -26 -1 -59q0 -9 -4 -20q-3 -12 -3 -20l-2 -168q-1 -75 -1 -169q0 -14 -4 -37
q-3 -25 -3 -37q0 -7 1 -11v-12q0 -28 -17 -28zM176 489q5 98 5 214q0 30 -11 45t-36 15q-41 0 -62 -26t-21 -70q0 -39 15 -79t40 -69q28 -29 56 -32z" />
    <glyph glyph-name="colon" unicode=":" horiz-adv-x="177" 
d="M75 483.5q-7 7.5 -7 16.5q0 10 8 18.5t18 8.5q9 0 17 -8.5t8 -17.5q0 -25 -29 -25q-8 0 -15 7.5zM65.5 105.5q-6.5 7.5 -6.5 16.5q0 10 7.5 18.5t17.5 8.5q9 0 16.5 -8.5t7.5 -17.5q0 -25 -27 -25q-9 0 -15.5 7.5z" />
    <glyph glyph-name="semicolon" unicode=";" horiz-adv-x="189" 
d="M92.5 483.5q-6.5 7.5 -6.5 16.5q0 10 8 18.5t18 8.5q9 0 16.5 -8.5t7.5 -17.5q0 -25 -28 -25q-9 0 -15.5 7.5zM74 25q0 5 8 16l9 12q7 11 12 28q3 9 3.5 14.5t-1.5 6.5q-12 1 -19.5 10t-7.5 19q0 14 11.5 22t25.5 8q16 0 22.5 -11t6.5 -25q0 -24 -15 -55.5t-38 -50.5
l-6 -1q-11 2 -11 7z" />
    <glyph glyph-name="less" unicode="&#x3c;" horiz-adv-x="342" 
d="M250 1l-7 1h-2q-16 24 -40 78l-17 38l-50 104l-10 22q-9 15 -12 24t-22 34q-18 24 -18 39q0 11 23 68l52 119q27 59 34 81q0 3 6 19q8 34 19 53q6 12 13 13l13 -10q-4 -30 -23.5 -78.5t-44.5 -98.5q-24 -48 -40.5 -93.5t-16.5 -71.5q0 -8 68.5 -148t85.5 -168l9 -7
q-2 -6 -6 -12.5t-8 -6.5t-6 1z" />
    <glyph glyph-name="equal" unicode="=" horiz-adv-x="371" 
d="M71 363q0 4 1 6q2 3 89 3h113q6 0 10.5 -3.5t4.5 -8.5q0 -4 -1 -5q0 -3 -106 -3h-97q-14 0 -14 11zM70 292q-4 0 -7 4.5t-3 9.5t5 5h40l157 -1q3 0 5.5 -3.5t2.5 -8.5q0 -8 -7 -8q0 2 -193 2z" />
    <glyph glyph-name="greater" unicode="&#x3e;" horiz-adv-x="342" 
d="M73.5 6.5q-4.5 6.5 -5.5 12.5l9 7q21 38 87.5 173.5t66.5 142.5q0 26 -16.5 71.5t-40.5 93.5q-25 50 -44.5 98.5t-23.5 78.5l13 10q6 -1 13 -12.5t11 -24.5q1 -4 8 -28l6 -20q7 -22 34 -81l18 -42l33 -77q24 -55 24 -68q0 -15 -18 -39q-19 -25 -22 -34l-12 -25
q-9 -16 -10 -21l-86 -178l-21 -42l-8 -1l-7 -1q-4 0 -8.5 6.5z" />
    <glyph glyph-name="question" unicode="?" horiz-adv-x="241" 
d="M96 127q0 153 19 273q5 31 16 73q13 54 19 92t6 71q0 51 -12 88q-9 25 -24 25h-11q-35 0 -35 -62q0 -18 7 -61q-9 -4 -17 -4q-7 0 -8 4q-7 35 -7 62q0 31 12 56q6 12 18 19.5t28 7.5q41 0 54 -22q10 -20 15.5 -51.5t5.5 -60.5q0 -89 -32 -199q-13 -46 -22.5 -117
t-9.5 -147l1 -56q0 1 -0.5 1h-0.5q-8 -4 -11 -4q-9 0 -11 12zM91.5 3.5q-6.5 7.5 -6.5 16.5q0 10 8 18.5t18 8.5q9 0 16.5 -8.5t7.5 -17.5q0 -25 -28 -25q-9 0 -15.5 7.5z" />
    <glyph glyph-name="at" unicode="@" horiz-adv-x="519" 
d="M100 78q0 11 -8 27q-5 12 -5 13q-10 28 -21.5 148t-11.5 176q0 137 17 222q8 40 15.5 64t19.5 45q13 23 30.5 36t44.5 21q30 7 62 7t60.5 -10t48.5 -26q17 -14 34 -40.5t27 -52.5q8 -20 17 -56.5t13 -60.5q1 -8 3.5 -22t5.5 -38l3 -16q15 -108 15 -132q0 -165 -74 -165
q-15 0 -29 11q-13 10 -22 14q-13 -31 -40.5 -52t-57.5 -21q-19 0 -34.5 9t-25.5 23q-19 25 -30 76q-7 37 -9 89q-1 12 -1 41v25q0 40 4 85q4 42 17 80q8 20 18.5 32t26.5 19q16 8 36 8q39 0 65 -29q5 -6 12 -39q8 -45 24 -172l9 -87q4 -45 6 -53l11 -5q12 -25 21 -25
q39 0 39 142q0 162 -56 310q-23 59 -55 84t-87 25q-48 0 -78 -20q-24 -16 -40 -54q-12 -31 -16 -76l-3 -42l-1 -15l-1 -18q0 -6 -1 -15t-3 -17q-1 -4 -3 -13.5t-5 -16.5l2 -39q0 -20 -4 -32q2 -6 2 -13q0 -48 4 -82l5 -46q7 -59 9 -104q3 -46 6 -64.5t14 -48.5
q15 -39 42 -73.5t56 -34.5q54 0 95 18.5t83 60.5q19 19 22 19l9 -9q-7 -24 -31.5 -46.5t-56.5 -36.5t-63 -21.5t-54 -7.5q-73 0 -127 117zM286.5 217q16.5 18 27.5 44t11 45v75v21l-2 20l-2 21q-2 7 -2 12t-1 8q-3 31 -7 40q0 -1 -4 21q-3 18 -4 20l-3 20q-1 7 -3 17t-6 21
q-4 10 -9 15t-13 9q-12 4 -20 4q-16 0 -28.5 -10.5t-18.5 -26.5q-6 -14 -9.5 -36.5t-4.5 -41.5v-39v-128q0 -33 1.5 -53.5t7.5 -43.5q12 -52 57 -52q16 0 32.5 18z" />
    <glyph glyph-name="A" unicode="A" horiz-adv-x="353" 
d="M249.5 5q-5.5 5 -5.5 12v131q0 12 -51 22t-84 10q-2 0 -6.5 -15t-6.5 -22q-13 -52 -26 -111l-5 -22q-2 -8 -10 -8t-14.5 5t-6.5 12l1 2v1l11 50q12 47 21 92q10 51 15 66q8 33 32 165l6 33q26 154 36 194q5 24 18 71q5 20 14 40q9 17 15 17q16 0 23 -10q5 -9 15.5 -99
t18.5 -182l13 -166q0 -43 6 -130q6 -88 6 -131v-4q0 -11 -3 -20q-4 -8 -19 -8q-8 0 -13.5 5zM243 203q0 62 -7 169.5t-15 189.5q-2 35 -8 77l-4 39q0 -1 -2 11l-2 12q-8 -22 -15.5 -61t-15.5 -92q-24 -149 -41 -224l-9 -34q-15 -50 -15 -76v-6q44 -14 101 -14h6q3 -1 7 -1
q20 0 20 10z" />
    <glyph glyph-name="B" unicode="B" horiz-adv-x="322" 
d="M75 8q0 42 3 127l2 126q0 70 -3 209q-4 123 -4 208q0 72 26 72q67 0 103.5 -43t36.5 -114q0 -80 -64 -166q53 -53 74.5 -101t21.5 -115q0 -41 -2.5 -65.5t-9.5 -45.5q-7 -22 -19.5 -38t-33.5 -30q-20 -14 -52 -28l-20 -5q-13 -5 -20 -5h-2q-37 0 -37 14zM153 451
q20 19 33 50q13 29 20 60.5t7 57.5q0 35 -25.5 66t-57.5 31q-26 0 -26 -43q0 -67 2 -120l2 -120l3 -1q22 0 42 19zM181.5 53.5q28.5 20.5 45 54.5t16.5 73q0 179 -86 215q-8 0 -26 -5q-17 -6 -23 -6q5 -163 5 -351h3l3 -1q34 0 62.5 20.5z" />
    <glyph glyph-name="C" unicode="C" horiz-adv-x="330" 
d="M143 6q-31 22 -44 50q-12 26 -24.5 165t-12.5 207v53q-1 23 -1 51q0 52 6 103q4 25 10.5 43t18.5 35q22 34 66 45q23 6 51 6q19 0 38.5 -11t19.5 -26q0 -11 -16 -11q-6 0 -23 7q-15 7 -27 7q-28 0 -50.5 -11.5t-35.5 -30.5q-11 -16 -19 -44t-10 -56q-3 -25 -3 -60l1 -56
q1 -24 1 -52q0 -69 14 -203t27 -155q12 -19 35.5 -29t49.5 -10q46 0 70 29q9 12 19 12q9 0 9 -14q0 -18 -11 -31.5t-30 -20.5q-32 -14 -70 -14q-28 0 -59 22z" />
    <glyph glyph-name="D" unicode="D" horiz-adv-x="381" 
d="M92 4q-12 6 -12 14q0 6 8 20q8 13 7 20l-3 88l-7 273l-2 121q-1 111 -5 139q-2 11 -8 25q-7 19 -7 27q0 24 76 24h5q51 0 88 -35q29 -27 52 -85q16 -46 24 -103q4 -30 7 -92v-31q0 -62 -16.5 -134.5t-46.5 -135.5q-18 -40 -46.5 -72t-54.5 -50.5t-35 -18.5q-12 0 -24 6z
M131 49q37 19 66 55.5t46 80.5q15 37 25 84.5t14 88.5q3 36 3 69q0 292 -161 292q-21 0 -21 -11q0 -35 4 -83q4 -49 4 -83q0 -55 8 -191q7 -118 7 -190v-112h5z" />
    <glyph glyph-name="E" unicode="E" horiz-adv-x="249" 
d="M80.5 -1.5q-9.5 4.5 -9.5 17.5v19q-1 8 -1 18v2l1 146l-1 413q0 64 -2 111q0 12 5 20t13 8h62q14 0 21 -2q10 -3 10 -17q0 -8 -6 -13t-13 -6h-17l-16 1l-16 1q-7 0 -9.5 -2.5t-2.5 -9.5q0 -47 1 -85v-85v-125q0 -2 2 -2h1h1q25 2 54 2q16 0 16 -14q0 -10 -3.5 -13.5
t-11.5 -3.5h-57q-4 0 -4 -5l2 -148q2 -69 2 -159v-37h43h42h9q18 0 18 -13q0 -16 -9 -19q-12 -4 -49 -4h-42q-24 0 -33.5 4.5z" />
    <glyph glyph-name="F" unicode="F" horiz-adv-x="256" 
d="M95 24v74l-3 61q-9 164 -9 241q0 42 -11 262q-2 48 -3 61.5t-1 14.5v7q0 7 10 9q6 2 35 2h22h28q8 0 12 -6.5t4 -16.5t-18 -10l-23 1h-26q-8 0 -10 -3t-2 -16q0 -20 7 -146t7 -147q12 0 34 6q23 6 34 6q6 0 10.5 -7t4.5 -13q0 -11 -16 -14.5t-46 -5.5q-21 -3 -21 -12
q0 -45 10 -168q9 -112 9 -169l-3 -5q3 -7 3 -13q0 -19 -22 -19q-16 0 -16 26z" />
    <glyph glyph-name="G" unicode="G" horiz-adv-x="384" 
d="M97 92q-36 108 -36 336q0 49 2 87q2 46 14 99q5 27 12.5 47t20.5 42q23 40 64 56q22 8 46 8q30 0 30 -17q0 -12 -15 -12q-4 0 -14 3l-14 2q-33 0 -57 -27q-17 -20 -33 -69q-11 -40 -15 -89q-3 -27 -6 -88l-1 -66v-55q0 -97 14 -177q10 -50 23.5 -83t36.5 -54
q25 -23 54 -23q53 0 85 50q0 27 -4 71q-3 22 -8 41q-6 17 -14 17l-19 -2l-21 -2q-23 0 -23 17q0 8 28 15t47 7q16 0 23.5 -11.5t7.5 -30.5q0 -22 10 -89q10 -56 10 -89q0 -16 -13 -16q-24 0 -24 22l1 3v2q-57 -33 -101 -33q-75 0 -111 108z" />
    <glyph glyph-name="H" unicode="H" horiz-adv-x="327" 
d="M229 -6q-3 4 -3 12v12q1 4 1 11q0 137 -10 347h-7h-19h-19q-56 0 -70 -3q0 -73 8 -181q9 -123 9 -181q0 -15 -11 -15q-15 0 -15 14q-1 49 -4.5 135.5t-6.5 146.5q-19 238 -19 456q0 10 13 10q6 0 9.5 -3.5t2.5 -9.5v-74q0 -27 5 -102l2 -34q2 -56 2 -67v-49q0 -26 5 -26
l38 2l20 2q50 4 57 4l1 2q0 44 -5 169q-5 127 -5 170q0 12 14 12q7 0 12 -3.5t5 -9.5q0 -195 7 -429q7 -235 7 -288v-14q0 -8 -3.5 -14t-9.5 -6q-8 0 -11 4z" />
    <glyph glyph-name="I" unicode="I" horiz-adv-x="270" 
d="M82 5q-7 0 -12.5 5t-5.5 11q0 13 17 13h39q0 115 -7 290q-4 140 -8 220l1 51v66q0 50 -2 64h-35q-10 0 -10 14q0 9 8 14q7 3 37 3h28q15 -1 38 -1q8 0 13 -3.5t5 -10.5q0 -6 -3 -11t-9 -5q-7 0 -12 1h-12h-10q-10 0 -12 -2l-2 -4q0 -78 13 -315q12 -219 12 -315v-28
q-1 -13 -1 -27h36q23 0 23 -14q0 -6 -4.5 -11.5t-9.5 -5.5h-54q-24 1 -61 1z" />
    <glyph glyph-name="J" unicode="J" horiz-adv-x="232" 
d="M34 -78q1 10 24 24l12 9q44 43 44 153q0 68 -5 148q-5 107 -5 135l-6 155q-5 132 -5 181q-16 0 -30 -1l-30 -1q-6 0 -9.5 4.5t-3.5 10.5q0 12 8 15q8 4 38 4l38 -1h53q7 0 11.5 -5t4.5 -11q0 -9 -5.5 -12t-21.5 -3h-22q0 -135 11 -337q2 -27 4 -92q7 -125 7 -149
q0 -42 -1.5 -66t-6.5 -52q-5 -29 -14.5 -49.5t-26.5 -40.5q-17 -22 -42 -38q-21 0 -21 19z" />
    <glyph glyph-name="K" unicode="K" horiz-adv-x="315" 
d="M278 -9q-1 6 -24 84l-35 122q-55 190 -71 235l-6 17q-1 -2 -3.5 -6t-8.5 -13q-12 -22 -20 -34l-14 -23v-356q0 -17 -3 -23.5t-13 -6.5t-13.5 7t-3.5 25v302q0 59 3 192l2 192q0 19 2 35q3 12 11 12q15 0 18 -7q4 -7 4 -36l-2 -166l-2 -121h1q19 42 54 126l37 93
q56 139 71 139q7 0 12 -4t5 -11q-3 -19 -16 -40l-10 -18q-17 -40 -50 -120q-40 -97 -43 -102q-1 -7 1 -12q20 -51 45 -126t41 -130q17 -60 34.5 -122t24.5 -89q2 -6 2 -7q0 -7 -5.5 -11t-12.5 -4q-9 0 -12 7z" />
    <glyph glyph-name="L" unicode="L" horiz-adv-x="247" 
d="M92.5 0q-4.5 6 -4.5 15v16v24q0 63 -5 142q-4 84 -4 142q0 54 -5 209q-6 140 -6 209q0 5 4.5 8.5t10.5 3.5q18 0 18 -15q0 -185 3 -277l5 -179q0 -42 6 -137l6 -124q0 -3 3 -3q1 -1 13 -1h62q13 0 13 -18q0 -8 -3 -13.5t-9 -5.5l-7 -1h-8q-21 -1 -81 -1q-7 0 -11.5 6z
" />
    <glyph glyph-name="M" unicode="M" horiz-adv-x="458" 
d="M352.5 -16.5q-4.5 6.5 -4.5 21.5v91q0 68 -4 165q-1 18 -1 52q-3 71 -3 112l1 56q1 25 1 56q0 27 -1 48q-1 15 -1.5 25t-1.5 16l-2 -7q-11 -73 -33 -192t-36 -191q-14 -64 -18 -91q-2 -13 -8.5 -21t-14.5 -8t-14 8t-7 23q-7 48 -51 268t-49 228q-3 -90 -3 -202
q0 -88 1 -159t1 -159q0 -15 3 -47l2 -48q0 -19 -7 -26q-29 0 -29 52v167l1 101q1 45 1 102q0 66 1 118l2 119v88q0 5 4.5 9t9.5 4q8 0 11 -8q9 -30 45 -177t54 -227q9 -47 29 -166l7 39q3 18 9 50q12 78 15 88l46 245l9 52l11 56l5 30q1 10 6 15.5t11 5.5q5 0 9 -5t4 -14
v-99q0 -75 9 -227q7 -140 7 -225q0 -27 3 -83q2 -72 2 -100q0 -22 -3 -29q-4 -6 -11 -6q-13 0 -17.5 6.5z" />
    <glyph glyph-name="N" unicode="N" horiz-adv-x="380" 
d="M259 -4q-6 7 -8 16l-3 19q-3 12 -3 15q-112 401 -123 450q-9 36 -41 200q-1 -6 -1 -41v-362l2 -143l2 -142l-6 -8h-23l-3 8q2 10 2 40l-1 174l-2 174v131v95q-1 42 -1 94q0 6 -1 11v10q0 12 6.5 16.5t20.5 4.5q6 0 13.5 -6t9.5 -13l21 -98q14 -70 24 -106q21 -83 72 -272
q29 -124 52 -190q6 15 6 48q0 97 2 174l2 174q0 43 1 78v77l-1 141q5 14 21 14q8 0 8 -29q0 -13 -1 -21q0 -8 -0.5 -11.5t-0.5 -4.5v-64q0 -133 -1 -237q-1 -105 -1 -236q0 -25 -3 -79l-2 -79q0 -29 -26 -29q-7 0 -13 7z" />
    <glyph glyph-name="O" unicode="O" horiz-adv-x="368" 
d="M61 460v40q0 84 10 146q6 39 16.5 64t28.5 40q17 17 44 17q24 0 44 -9.5t33 -24.5q11 -14 20 -37t14 -44l8 -47q24 -171 24 -303v-3q0 -50 -2 -92q-2 -50 -11 -105q-4 -27 -11.5 -47t-19.5 -40q-21 -36 -59 -36q-139 0 -139 481zM231 25.5q13 18.5 20 51.5q16 70 20 137
q2 54 2 105v4l-1 100q-2 54 -12 140q-8 61 -33 125q-10 25 -26.5 39t-35.5 14q-17 0 -30 -16t-21 -45q-18 -67 -20 -124q-3 -49 -3 -101v-49q0 -67 13 -170q8 -65 20 -113t32 -81q20 -35 46 -35q16 0 29 18.5z" />
    <glyph glyph-name="P" unicode="P" horiz-adv-x="276" 
d="M76 29q0 50 -1 89l-2 90v81q-1 36 -1 81q0 134 -5 248l-1 36q-3 59 -3 96l3 4q1 2 4 5q1 3 5 4q2 1 7 1q35 0 63.5 -16t46.5 -44q35 -55 35 -125q0 -45 -14.5 -92t-43.5 -85q-30 -41 -67 -48l2 -111l2 -54q4 -96 4 -164q0 -16 -4.5 -23.5t-17.5 -7.5q-12 0 -12 35z
M120 399q2 1 7 8l7 7q65 65 65 163q0 56 -22 104q-12 25 -35 39.5t-54 14.5q0 -57 6 -171t6 -171l2 -2q9 1 18 8z" />
    <glyph glyph-name="Q" unicode="Q" horiz-adv-x="369" 
d="M276 -132q-11 7 -14 7q-18 8 -28 29t-16 61q-6 39 -10 48q-28 0 -51 9.5t-39 26.5q-27 28 -43 86q-6 20 -9 49t-3 51q-1 13 -1 45v45q-1 21 -1 49q0 60 3 136q3 66 13 128q10 58 31 94q21 38 57 38q35 0 69.5 -28.5t39.5 -62.5q28 -160 28 -389q0 -175 -62 -264
q0 -6 5 -19l5 -14l3 -27q3 -27 5.5 -38t10.5 -22q9 -12 25 -12h4q32 0 32 -13q0 -19 -38 -19q-4 0 -16 6zM250 133q17 97 17 300v26l-1 63l-1 27q-1 24 -5 46.5t-8 45.5q-7 38 -31 72q-20 29 -58 29q-16 0 -28 -22q-20 -35 -33 -140q-9 -70 -11 -170q-1 -22 -1 -62v-60
q0 -57 12 -115q7 -40 18.5 -67.5t30.5 -46.5q20 -20 46 -20q37 0 53 94z" />
    <glyph glyph-name="R" unicode="R" horiz-adv-x="283" 
d="M219 10l-12 44q-28 93 -41 157q-8 35 -20 97q-14 72 -26 117l-10 -6l-13 -6l2 -385v-15q0 -20 -18 -20q-8 0 -13 5t-5 12v15l2 202l2 97q4 175 4 298v129q0 9 18 9q26 0 48.5 -14t35.5 -38q27 -49 27 -107q0 -46 -20 -100q-6 -15 -15 -34.5t-16 -26.5q21 -77 61 -237
l47 -180q1 -3 1 -11q0 -9 -3.5 -15.5t-10.5 -6.5q-20 0 -25 20zM123 465q19 19 27 32q7 14 12 42t5 50q0 41 -14 84q-7 25 -21 40.5t-31 15.5h-2q-1 -1 -3 -1v-282q8 0 27 19z" />
    <glyph glyph-name="S" unicode="S" horiz-adv-x="303" 
d="M87.5 -20.5q-9.5 1.5 -20.5 6.5q-12 6 -18 17q0 12 11 12t28 -7q16 -8 27 -8q22 0 40.5 18t28.5 47q20 57 20 101q0 49 -14 99t-37 94q-5 11 -17 33q-25 50 -38 78t-23 62q-14 45 -14 97q0 33 10.5 63.5t33.5 52.5q25 23 56 23q12 0 29 -9.5t17 -18.5q0 -8 -6 -8t-16 5
q-9 5 -17 5q-23 0 -40.5 -17t-25.5 -42q-7 -21 -7 -46q0 -39 10 -80.5t27 -77.5l35 -73l10 -21q21 -43 32.5 -71t19.5 -63q11 -47 11 -90q0 -58 -30 -118q-15 -29 -40 -47t-55 -18q-18 0 -27.5 1.5z" />
    <glyph glyph-name="T" unicode="T" horiz-adv-x="319" 
d="M150 1.5q-5 7.5 -5 18.5v89v89l-2 160q-3 107 -3 160l1 29v65q0 108 -2 108h-113q-8 0 -14.5 4t-6.5 11q0 8 3 11t16 5q14 3 40 3h100l110 1q12 0 16.5 -4t4.5 -13q0 -15 -19 -15h-45h-44l-9 -1l1 -58v-78v-406v-83l1 -74v-2q0 -8 -1 -13.5t-4 -8.5q-3 -5 -10 -5
q-10 0 -15 7.5z" />
    <glyph glyph-name="U" unicode="U" horiz-adv-x="372" 
d="M164 -9q-20 10 -33 26q-13 15 -23 37t-16 44q-10 34 -15 85l-2 31q0 10 -0.5 13t-0.5 4q-5 49 -12.5 216t-7.5 260v7v8q0 26 15 26q21 0 21 -24v-7l-1 -8q0 -116 7 -274.5t14 -228.5q5 -44 17 -90q8 -31 17.5 -52t24.5 -35q18 -16 35 -16t30.5 8t20.5 21q7 11 11.5 28.5
t5.5 33.5q1 10 1 33v114q0 76 -4 187l-4 128l-2 85q-3 56 -3 85q0 11 6 17t14 6t13.5 -6t5.5 -17v-76q0 -50 1 -90v-90q0 -97 2 -170q1 -74 1 -166q0 -25 -2 -44t-8 -40q-6 -24 -16.5 -40.5t-27.5 -27.5q-19 -11 -42 -11t-43 10z" />
    <glyph glyph-name="V" unicode="V" horiz-adv-x="325" 
d="M171 -8q-12 3 -11 3q-18 74 -40 221l-55 357l-9 44q-22 86 -22 121q0 7 4.5 12.5t9.5 5.5q3 0 7 -2q5 -2 9 -11q4 -8 4 -15l2 -14l14 -77l9 -53l50 -343l13 -95q8 -48 13 -91l7 71l11 115l24 219q9 93 13 122l5 52l7 50q5 30 7 56q2 19 19 19l6 -4h-2l10 -8q0 -29 -8 -85
l-6 -39l-3 -25q-13 -109 -16 -136q-15 -127 -31.5 -275t-17.5 -174q-8 -22 -19 -22zM170 49l-1 3l-2 -3h3z" />
    <glyph glyph-name="W" unicode="W" horiz-adv-x="461" 
d="M132 9v12q1 4 1 10v5l-18 121q-7 38 -9 55q-9 70 -19 156q-8 68 -28 224l-3 23q-15 113 -22 124q3 5 9 9t12 4q15 0 20.5 -5t5.5 -18v-9v-10v-11q31 -327 65 -612h2q3 29 12 159l2 29q7 127 8 134q3 30 12 88l12 81l3 46q1 12 1.5 20.5t1.5 12.5l1 13q0 1 1.5 3t4.5 4
q14 0 18 -7q3 -3 4 -6.5t1 -8.5l2 -9q10 -53 43 -276t40 -294l3 -2l37 405q2 38 13 120q10 83 10 135l-1 10v9q0 13 6 18.5t20 5.5q6 0 12.5 -5t6.5 -11q0 -10 -11 -19q1 -1 1 -6q0 -6 -1.5 -12.5t-2.5 -9.5q-11 -90 -27 -265l-20 -207l-8 -79l-12 -101l-5 -51
q0 -12 -3.5 -18t-14.5 -6q-16 0 -19 12q-2 6 -4 28l-1 15q-24 154 -72 548l-3 2l-1 -1v-1l-50 -546v-18q0 -39 -17 -39q-19 0 -19 22z" />
    <glyph glyph-name="X" unicode="X" horiz-adv-x="280" 
d="M39.5 -2q-5.5 4 -5.5 8q0 9 19 77q25 94 46 193l10 50q6 26 8 51q1 9 1 24q0 33 -5.5 68.5t-18.5 90.5l-16 69q-2 13 -7 26l-6 20q-10 34 -12 55q9 13 16 13q8 0 13 -4.5t6 -10.5q1 -3 1 -15q1 -6 1 -13l24 -119l7 -35q4 -24 9 -49t9 -47q6 46 39 224l2 15q3 23 8 44
q3 12 8.5 18.5t11.5 6.5q18 0 18 -11q0 -8 -6 -23l-7 -17q-14 -55 -41 -189l-10 -54q-7 -45 -8 -54q-2 -18 -2 -24l53 -270l11 -51l2 -12q2 -8 2 -19q0 -21 -16 -21q-5 0 -8.5 0.5t-6.5 3.5t-3 9q0 18 -5 55q0 1 -5 29q1 -4 -5 26l-7 36q-23 116 -29 135q-4 -7 -29 -121.5
t-32 -155.5l-1 -7l-2 -12q-2 -5 -5 -10q-1 -3 -4 -4t-5 -2l-8 -1q-4 0 -9.5 4z" />
    <glyph glyph-name="Y" unicode="Y" horiz-adv-x="252" 
d="M119 -4.5q-4 7.5 -4 16.5q0 32 3 96l2 97q0 14 -3 41q-4 24 -4 40q0 17 -6 47q-6 32 -6 46q0 12 -10 57q-3 9 -4 14.5t-2 7.5q-4 28 -13 69q-17 93 -33 147q-15 48 -15 65q0 7 6 11.5t14 4.5l12 -8q3 -45 27 -160.5t36 -132.5q2 5 10 87q7 73 20 145q12 66 29 66
q5 0 8 -0.5t5 -2.5t2 -8q0 -9 -4 -21l-4 -20l-26 -149q-5 -29 -9 -71.5t-4 -74.5q0 -9 1 -16q1 -8 1 -17l-6 -15v-8l2 -39l2 -21q3 -40 3 -60q0 -158 -2 -202l3 -3q0 -2 1 -3v-4q0 -12 -5.5 -20.5t-16.5 -8.5q-6 0 -10 7.5z" />
    <glyph glyph-name="Z" unicode="Z" horiz-adv-x="247" 
d="M34 4q20 35 30.5 81t18.5 114q6 60 12 88l46 332q3 20 5 35q8 54 8 78q-11 0 -33 -3l-34 -2q-45 0 -45 20l7 8q6 -2 24 -2q14 0 47 5q26 5 47 5q16 0 16 -18q-11 -24 -16 -96q-2 -35 -4 -44l-30 -227q-25 -196 -40 -283q-1 -10 -12 -36q-11 -27 -11 -40l33 2q21 3 32 3
q42 0 42 -20l-9 -9q-33 0 -59 -2l-60 -2q-8 0 -15 13z" />
    <glyph glyph-name="bracketleft" unicode="[" horiz-adv-x="260" 
d="M98 -35.5q-39 7.5 -39 18.5q0 46 10 123q11 86 11 124q0 88 13 247q12 164 12 246q0 5 -4 12q-5 8 -5 11l20 12q29 0 48 -1q42 -2 57 -8q9 -4 9 -11q0 -5 -4.5 -8t-10.5 -3q-10 0 -28 3q-20 3 -28 3q-31 0 -31 -21q0 -58 -2 -132t-5 -125l-10 -149l-2 -29q-6 -82 -6 -96
q-8 -140 -13 -156v-24l-5 -8l34 -2q32 -2 49 -7q20 -4 20 -17q0 -10 -17 -10q-34 0 -73 7.5z" />
    <glyph glyph-name="backslash" unicode="\" horiz-adv-x="332" 
d="M228 14q-6 16 -8 31l-3 14l-20 87q-8 29 -14 59l-15 63l-11 47q-27 111 -47 201q-18 85 -26 127q-1 2 -2 8t-4 17l-10 43q-4 19 -4 24q0 6 4.5 9.5t10.5 3.5q3 0 4 -3q3 -4 8 -21l3 -11l2 -6q49 -189 125 -518l14 -56q21 -82 21 -118q0 -11 -10 -18q-12 2 -18 17z" />
    <glyph glyph-name="bracketright" unicode="]" horiz-adv-x="250" 
d="M71 -33q0 13 21 17q17 5 50 7l32 2l-4 8v24q-7 15 -18 224t-15 339q0 19 -3 59q-3 42 -3 65q0 11 -3.5 15.5t-13.5 4.5l-28 -2l-28 -2h-5q-24 0 -24 10q0 6 10 11q15 6 57 8q19 1 48 1l20 -12q0 -3 -5 -11t-5 -12q0 -74 14 -237q13 -152 13 -237q0 -35 10 -133
q10 -84 10 -133q0 -11 -39 -18.5t-74 -7.5q-17 0 -17 10z" />
    <glyph glyph-name="asciicircum" unicode="^" horiz-adv-x="304" 
d="M220 208q-6 19 -12 53q-4 16 -4 17q-24 92 -57 319q-8 -24 -13 -54t-12 -82l-9 -62q-15 -92 -40 -214l-13 -5q-4 1 -7.5 4t-3.5 6q0 19 15 86l6 33l8 52q7 52 11.5 77t9 42.5t6.5 24.5q9 37 12 57q2 8 2 23q4 39 9 62q4 16 12 25t19 9l11 -9q0 -33 4 -75t10 -76l10 -75
q9 -54 34 -154l9 -31q4 -15 7.5 -26.5t5.5 -20.5q5 -23 5 -26t-4.5 -7.5t-8.5 -4.5q-14 0 -22 32zM149 602l-1 2v-4z" />
    <glyph glyph-name="underscore" unicode="_" horiz-adv-x="364" 
d="M55 -19.5q-6 4.5 -6 12.5q0 3 138 3h143q8 0 15 -5t7 -12h-31q0 -3 -104 -3h-148q-8 0 -14 4.5z" />
    <glyph glyph-name="grave" unicode="`" horiz-adv-x="332" 
d="M110.5 579q-40.5 14 -44.5 17q-6 -2 -16 -2q-34 0 -34 20q0 18 6 22h6q30 0 39 -11q0 -1 12 -4q10 -3 40 -15q24 -10 41 -19q19 -11 19 -19q0 -3 -4 -5.5t-8 -2.5q-16 5 -56.5 19z" />
    <glyph glyph-name="a" unicode="a" horiz-adv-x="313" 
d="M250 -5.5q-4 3.5 -6 18.5q-9 73 -11 91l-5 40q-22 5 -50 5l-36 2q-24 3 -35 3q-6 0 -7 -5q0 -3 -1 -3l-2 -20q-1 -18 -11 -72q-5 -27 -12 -42q-8 -17 -15 -17q-6 0 -13 5.5t-7 11.5l1 3l1 3q18 71 30 141l12 62l12 76l11 66q5 27 18 87q14 68 17 93q1 3 4 37q4 38 7 56
q3 26 6 30h7q3 -1 7 -1q12 0 18 6q7 0 12.5 -4.5t5.5 -10.5q0 -48 7 -110q4 -32 6 -53q11 -129 56 -484v-3q0 -10 -8 -15q-15 0 -19 3.5zM223 171q-10 144 -38 425l-54 -267q-23 -115 -23 -145q0 -5 38 -9t67 -4h10z" />
    <glyph glyph-name="b" unicode="b" horiz-adv-x="283" 
d="M74.5 -5q-5.5 6 -5.5 15l-1 31q0 36 6 106q5 78 5 105l-1 45q-1 20 -1 44q0 40 3 119q3 81 3 120l-1 58l-4 5v6q0 26 21 26q16 0 52.5 -12.5t36.5 -20.5v-3q18 -29 24.5 -58t6.5 -74q0 -73 -16 -119h1q-4 -8 -16 -26l-14 -21q18 -14 30.5 -41t15.5 -52q1 -9 2 -22t2 -31
l1 -26v-14q0 -96 -60 -142q-31 -24 -77 -24q-8 0 -13.5 6zM119 361q66 0 66 133q0 11 -2 43l-1 19l-2 2q-4 33 -11 52q-5 14 -16 22.5t-24 8.5q-22 0 -22 -131q0 -25 1 -34v-20v-34q-1 -16 -1 -36v-12l2 -6l2 -7h8zM148.5 44q20.5 16 32.5 41.5t12 50.5l1 4v8v11q0 42 -7 80
q-11 51 -39 74q-16 13 -38 13q-5 -83 -5 -136v-23q0 -29 3 -46q-5 -9 -5 -48v-26l1 -19q24 0 44.5 16z" />
    <glyph glyph-name="c" unicode="c" horiz-adv-x="285" 
d="M146 -7q-19 6 -32.5 17t-25.5 33q-21 40 -25 115q-2 34 -2 60v114q0 65 4 126q3 45 9 76t19 62q14 32 31 45q7 6 27 14q13 5 25 11h40h3q1 -1 3 -1l5 -1l4 -3q3 -3 3 -4q1 -2 1 -6l-13 -15h-42q-19 0 -34.5 -18.5t-23.5 -46.5q-8 -25 -13 -59t-6 -59q-2 -32 -2 -44l-2 -5
q0 -56 -2 -101l-2 -101q0 -44 6 -81q5 -40 29 -72q23 -32 71 -32q15 0 25 9q15 0 15 -11q0 -7 -12.5 -16.5t-25.5 -14.5h-33z" />
    <glyph glyph-name="d" unicode="d" horiz-adv-x="348" 
d="M83 22q-4 69 -4 174q0 66 1 118l1 118q0 76 -4 188q-9 8 -9 20q0 7 8.5 14.5t15.5 7.5q8 0 15 -8l11 -9q6 -3 23 -6t24 -6q15 -8 40 -31q24 -24 33 -30l-1 -2q1 -6 15 -26q11 -15 18 -28q16 -46 16 -119q0 -13 -1 -23v-24v-8l-1 -10q0 -19 6 -30q-6 -32 -15 -121
q-3 -26 -10 -55t-17 -48q-26 -49 -87 -83h-70q-8 0 -8 27zM157 24q7 8 13 13l7 5l8 7q70 63 70 240v19q-1 8 -1 17l-4 101q-3 58 -35 120q-15 31 -40.5 50.5t-53.5 19.5q-12 0 -12 -185q0 -214 12 -373l-1 -19l4 -2l2 -13h31z" />
    <glyph glyph-name="e" unicode="e" horiz-adv-x="256" 
d="M71 8v13q1 5 1 12l-4 4q8 21 8 41q0 23 -3 66l-2 66q0 50 3 150q4 89 4 151l-2 60q-2 27 -2 60q0 15 7 21.5t22 6.5q10 0 16 -6q2 -1 29 -4q25 -3 43 -9q19 -6 19 -15q0 -10 -19 -20q-57 19 -81 19l-5 -6q1 -9 1 -43q0 -43 -2 -77q-1 -35 -1 -78q0 -28 14 -28l16 1
q8 1 17 1q39 0 39 -18q0 -11 -5 -18.5t-15 -7.5q-15 0 -23 8l-32 5h-5l-5 -5v-3q2 -17 2 -79q0 -39 -1 -71l-1 -71q0 -39 3 -80q1 -23 10 -30.5t33 -7.5l18 1q9 1 20 1q29 0 29 -13q0 -18 -44 -18h-82q-18 0 -20 21z" />
    <glyph glyph-name="f" unicode="f" horiz-adv-x="272" 
d="M73 1q10 91 10 243q0 67 6 202q7 125 7 201q0 9 8.5 14t19.5 5q35 0 77 -8t42 -21q0 -17 -35 -17q-22 10 -56 10l-12 -1q-3 -1 -4.5 -3t-2.5 -6q-2 -8 -4 -11q0 -45 -4 -106q-5 -59 -5 -105v-35q0 -4 16 -3q51 0 51 -16q0 -8 -7.5 -13.5t-16.5 -5.5q-6 0 -17 3
q-10 3 -17 3q-18 0 -18 -49v-113q0 -24 3 -71q3 -48 3 -72q0 -40 -24 -40z" />
    <glyph glyph-name="g" unicode="g" horiz-adv-x="339" 
d="M122 4q-22 11 -32.5 42.5t-18.5 100.5q-12 101 -12 157q0 34 4 78l6 63q5 75 11.5 113.5t29 68t69.5 34.5q5 1 16 1q31 0 31 -14q0 -6 -6.5 -10.5t-13.5 -4.5l-10 1l-9 1q-17 0 -30.5 -11t-22.5 -32q-21 -50 -27 -98q-8 -63 -10 -110l-1 -77q0 -49 3 -73q7 -11 9.5 -33.5
t4.5 -61.5q2 -35 9 -59.5t25 -40.5q20 -17 55 -17q29 0 41 32q14 34 16 70q3 45 3 76v55q-10 10 -35 10h-8q-5 -1 -11 -1q-24 0 -24 12q0 17 24 17q17 0 28 -1l22 -1q19 -3 30 -7q12 -4 12 -11q0 -13 -6 -37q-5 -28 -5 -38q0 -42 2 -76q1 -35 1 -77q-51 -52 -102 -52
q-46 0 -68 11z" />
    <glyph glyph-name="h" unicode="h" horiz-adv-x="327" 
d="M222 -1q-5 185 -5 268l-3 4l4 9q0 18 -4 37l-15 4q-9 -3 -20 -3q-8 0 -33 5q-17 5 -31 5l-11 -4q0 -35 -1 -63t-1 -63l2 -4q0 -28 3 -84q3 -55 3 -83q0 -11 -4 -18.5t-12 -7.5q-22 0 -22 60q0 51 1 92l1 91q0 91 -3 98q5 10 5 66q0 48 -4 117l-2 39l-2 78q0 7 5 13t12 6
q20 0 20 -58q0 -68 -1 -123q-2 -55 -2 -121q0 -12 76 -12h4q19 0 27.5 7.5t8.5 25.5q0 53 -7 138q-6 92 -6 138q0 6 5 10.5t12 4.5l9 -3q7 -1 9 -3q0 -78 6 -233q6 -156 6 -234q0 -118 7 -198l-7 -11q0 10 -30 10zM189 361l2 -2h-2v2z" />
    <glyph glyph-name="i" unicode="i" horiz-adv-x="237" 
d="M99 10q-5 0 -8 -1h-8q-22 0 -28 10q0 7 8 12l5 5h29l4 4l2 9l1 12q0 61 -3 109l-2 37l-2 73q0 39 3 117l2 116q0 76 -5 116q-9 3 -30 3l-11 -1q-6 -1 -13 -1q-19 0 -19 17q0 4 9 8t15 4q38 0 76 -4q23 -1 46 -9q18 -6 18 -17q0 -2 -3 -8l-23 -2q-7 6 -29 6l-5 -3
q3 -9 3 -53q0 -66 -1 -119l-2 -119q0 -45 4 -109q3 -73 3 -110v-13q-1 -7 -1 -18q0 -23 3 -28l-1 -2q0 -10 22 -10q9 0 15 1h15q29 0 29 -14q0 -9 -6 -14.5t-16 -5.5q-9 0 -16 2q-8 1 -17 1q-6 0 -18 -5q-12 -6 -18 -6q-23 0 -27 10z" />
    <glyph glyph-name="j" unicode="j" horiz-adv-x="240" 
d="M8 -100v2l-1 2q0 3 17 14q16 12 36 24q22 15 23 17q15 17 23.5 53.5t8.5 71.5q0 107 -4 266q-5 148 -5 265l-6 11q-7 2 -24 5q-19 1 -34 8q-15 5 -15 13q0 4 8 8t13 4q19 0 60.5 -7t74 -17t32.5 -18q0 -6 -4.5 -9.5t-11.5 -3.5t-27 5q-15 5 -27 5q-9 0 -9 -20
q0 -55 5 -208q5 -115 5 -207v-110q-6 -13 -6 -42q0 -42 -24 -95q-13 -27 -33.5 -43.5t-44.5 -16.5h-7z" />
    <glyph glyph-name="k" unicode="k" horiz-adv-x="330" 
d="M234 72q-31 83 -54 180t-25 136l-3 4l-15 -32q-11 -21 -16.5 -34.5t-10.5 -33.5q-6 -19 -6 -39t-2 -36l-2 -36v-128q0 -9 3 -29q3 -18 3 -28q0 -5 -5 -8.5t-11 -3.5q-13 0 -17.5 4t-4.5 17v188q0 16 5 63t5 63q0 42 5 97q4 56 4 96v139q6 11 19 11q8 0 13.5 -5.5
t5.5 -13.5q-8 -18 -8 -48l-2 -105q-2 -48 -2 -106q10 3 78 138q68 134 75 134q26 0 26 -17q-64 -95 -106 -185l-1 -32q-1 -14 -1 -32q0 -44 34 -165t58 -168q11 -15 13 -17q10 -14 14.5 -23.5t4.5 -19.5q0 -7 -5 -11t-12 -4q-24 0 -57 90z" />
    <glyph glyph-name="l" unicode="l" horiz-adv-x="249" 
d="M73 10q2 6 2 33q0 92 3 273q3 180 3 260l2 36l3 30q0 7 7 7q5 0 14 -3l3 -1q0 -22 -1 -40v-39v-109q1 -48 1 -109q-1 -5 -1 -22l-1 -21q-1 -20 -1 -41q0 -23 1 -42l1 -43l-3 -8l1 1q0 -3 -1 -4v-4q0 -8 3 -14l-3 -96v-6q0 -17 1 -20q0 -5 5 -5l52 -2q23 0 31.5 -0.5
t10.5 -0.5h3q5 0 10 -5.5t5 -11.5q0 -12 -16 -13q-17 1 -83 1l2 -1q-10 0 -19 -1q-8 -2 -18 -2q-14 0 -17 23z" />
    <glyph glyph-name="m" unicode="m" horiz-adv-x="567" 
d="M447 12v66q0 144 -6 225l-3 37q-4 25 -4 44q0 34 2 62l2 62q0 31 -4 47q-20 -14 -121 -421l-1 -15q-3 -25 -8 -40q-3 -11 -8.5 -17t-12.5 -6q-16 0 -23 8t-7 25q0 27 -25.5 140t-55 217t-40.5 115q-1 -35 -8 -165q-14 -230 -14 -362l1 -40q-4 -13 -21 -13q-3 0 -10 5.5
t-7 8.5q0 90 16 316q15 210 15 315q0 5 -2 10q-3 6 -3 9q0 15 26 15q17 0 20 -15q4 -20 4 -30l1 -12q5 -26 29 -80q19 -43 29 -75q6 -24 11 -39q16 -58 21 -86l13 -26q3 -15 12 -49q9 -38 13 -62t4 -46q11 17 62.5 204.5t60.5 239.5q1 2 1.5 5.5t1.5 9.5q2 13 9 39
q8 20 24 20q7 0 16 -6t9 -12q0 -417 13 -441v-52q-1 -23 -1 -53q0 -64 7 -96q1 -1 1.5 -3t1.5 -5q1 -4 1 -9q0 -11 -6.5 -22t-15.5 -11q-20 0 -20 64zM434 561h-1l-2 -1l3 -1v2z" />
    <glyph glyph-name="n" unicode="n" horiz-adv-x="460" 
d="M315.5 2q-3.5 6 -6.5 18q-1 8 -4 14l1 3q-8 47 -34 115l-18 52q-2 2 -19 51l-8 24q-90 278 -113 301q-8 -27 -8 -70q0 -23 1 -40l1 -39l-1 -24q-1 -11 -1 -24q0 -22 2 -38l2 -32h-3q0 -167 7 -184v-90q4 -8 4 -21q0 -8 -5.5 -14t-13.5 -6q-21 0 -21 54l2 32q2 15 2 33
q0 48 -3 144t-3 144q0 29 3 89q3 59 3 88v13q0 49 18 64l3 -3l10 2q4 -1 9 -6q4 -4 4 -9l2 -6q0 -2 0.5 -3.5l0.5 -1.5q16 -71 72 -199q57 -135 71 -179q10 -35 16 -62q19 -85 45 -131l2 3q23 222 23 545l-1 12q-1 5 -1 13q0 21 14 21q9 0 15.5 -9t6.5 -20v-67l-5 -8
q0 -95 -11 -312t-21 -236l-17 -4v-1l-1 1l-10 -3q-8 0 -11.5 6z" />
    <glyph glyph-name="o" unicode="o" horiz-adv-x="346" 
d="M59 349v35q0 279 72 279q5 0 14 -3q32 -11 63 -14q19 -4 38 -39q21 -36 31.5 -95t10.5 -121l-2 -5q0 -33 1 -59l1 -60q0 -51 -4 -92q-6 -62 -20 -107q-9 -27 -20.5 -45t-28.5 -30q-16 -12 -39 -12q-117 0 -117 368zM230 65q19 56 23 114q4 60 4 96q0 40 -6 118
q-5 87 -5 118l-4 8l2 5q0 44 -24.5 76t-59.5 32q-46 0 -55 -44q-2 -15 -4 -43q0 -74 -6 -101q0 -15 -3 -47l-2 -47q0 -22 1 -39l1 -40q0 -47 8 -108q6 -45 14 -76t23 -53q15 -24 35 -24q39 0 58 55z" />
    <glyph glyph-name="p" unicode="p" horiz-adv-x="263" 
d="M86 -12q-11 63 -11 144q0 32 3 93l2 93q-7 14 -7 23q10 16 10 92q0 182 -5 194q9 25 14 25h44q11 0 31.5 -10.5t34.5 -22.5q25 -23 25 -118q0 -51 -3 -78q-2 -19 -6.5 -30t-13.5 -25q-15 -23 -51 -40q-15 -8 -42 -16v-119q0 -25 5 -98l2 -32l2 -65q0 -18 -19 -18z
M167 373q7 10 13 27t8 33q6 29 6 67v27q0 14 -1 27t-4 25q-4 13 -10.5 21.5t-17.5 14.5q-12 6 -29 6q-12 0 -17 -6t-5 -21q0 -24 3 -72l2 -72q0 -26 -2 -47l-2 -47l7 -10q29 0 49 27z" />
    <glyph glyph-name="q" unicode="q" horiz-adv-x="344" 
d="M227.5 -208q-20.5 4 -26.5 12q0 42 -8 80q0 -1 -7 44l-8 39q-28 6 -44.5 13.5t-30.5 23.5q-27 30 -33 107q-11 118 -11 234v5q0 312 99 318q8 -3 22 -6l21 -7q45 -23 64 -67q21 -49 26 -95q4 -49 4 -94v-47q0 -71 -15 -197q-8 -66 -22.5 -114.5t-32.5 -59.5q-1 -1 -7 -3
q-12 -6 -12 -12q0 -35 8 -71q1 -9 8 -39q4 -16 7 -34q7 -7 31 -7q20 0 20 -14q0 -13 -13 -13q-19 0 -39.5 4zM180 -4q11 3 15 3q19 0 36.5 52.5t25.5 117.5q8 61 8 82v175q0 216 -110 216q-16 0 -28 -18t-19 -49q-16 -65 -20 -133q-4 -65 -4 -99l2 -10l2 -9v-43
q0 -288 78 -288q5 0 14 3z" />
    <glyph glyph-name="r" unicode="r" horiz-adv-x="290" 
d="M225 -12q-12 13 -26 69t-26 126q-8 57 -23 113q-12 50 -23 50h-3q-22 0 -22 -14q0 -72 8 -219q4 -90 9 -105l-8 -17h-14l-8 8q-16 462 -16 630q0 11 1.5 18t6.5 13q4 7 14 7q51 0 82 -25t31 -72v-73q0 -19 -12.5 -51t-27.5 -59l-13 -25q11 -51 43.5 -183.5t35.5 -140.5
q1 -1 2.5 -5t6.5 -12q7 -14 7 -24q0 -14 -11 -14zM141 390q15 19 24 49q16 61 16 97q0 23 -2.5 38t-8.5 32q-12 35 -57 35q-5 0 -8 -8.5t-3 -17.5q0 -67 2 -121q1 -54 1 -121l2 -2q19 0 34 19z" />
    <glyph glyph-name="s" unicode="s" horiz-adv-x="246" 
d="M62 -3.5q-10 6.5 -11 15.5l5 8q4 0 18 -3q11 -4 18 -4q22 0 39 17.5t26 45.5q14 52 14 98q0 69 -42 148q-26 46 -40 73t-25 62q-13 41 -13 79q0 36 18 85q9 23 25.5 37.5t35.5 14.5q13 0 25.5 -9t12.5 -19q0 -8 -13 -8q-4 0 -10 3t-11 3q-15 0 -27 -12t-18 -31
q-12 -37 -12 -68q0 -19 5 -39q1 -6 2 -10t1 -6l6 -20l5 -18l8 -18q3 -7 6.5 -12.5t6.5 -10.5l12 -21q4 -6 17 -28.5t24 -47.5q10 -21 15 -39.5t9 -44.5q3 -25 3 -55q0 -48 -13 -90q-18 -50 -52 -70q-19 -12 -44 -12l-5 -2q-11 2 -21 8.5zM163 640q0 1 -1 1v-1h1z" />
    <glyph glyph-name="t" unicode="t" horiz-adv-x="297" 
d="M138 14l-1 37q-1 16 -1 36q0 10 1 17l1 18q0 10 -4 24q0 67 -10 249q-10 176 -11 239q-62 0 -83 3q-20 5 -20 16q5 11 19 11q30 0 87 -4q52 -5 87 -5h21l21 1q18 0 18 -13q0 -6 -6.5 -9.5t-15.5 -3.5q-20 0 -42 2l-43 2q-4 0 -4 -3q-1 -3 -1 -19q0 -97 12 -294
q11 -204 11 -293q0 -7 -8.5 -13t-16.5 -6z" />
    <glyph glyph-name="u" unicode="u" horiz-adv-x="366" 
d="M142.5 -4.5q-18.5 10.5 -30.5 24.5q-14 18 -22 101t-10 190q0 24 -1 36q-2 251 -8 297l6 14q23 -3 23 -55l3 -265q0 -28 5 -106q6 -70 6 -106q0 -114 75 -114q46 0 59 210l1 20q7 275 7 407l-1 9q-1 4 -1 9q0 11 17 11q12 0 15 -6q2 -10 2 -35q0 -76 -6 -102l1 -6
q0 -13 -3 -40l-2 -40v-10q1 -4 1 -10q-2 -24 -2 -46q-1 -7 -1 -22q-2 -95 -4 -165q-3 -87 -24 -147q-22 -64 -71 -64q-16 0 -34.5 10.5z" />
    <glyph glyph-name="v" unicode="v" horiz-adv-x="356" 
d="M150 -3q0 77 -24.5 227t-64.5 328l-8 31l-13 46q-6 21 -6 26q0 3 4.5 7.5t8.5 4.5q14 0 22 -31q4 -13 7.5 -29.5t5.5 -23.5q2 -15 3 -18q19 -77 23 -98l10 -51l9 -48l9 -51q3 -27 8 -47l15 -98q0 -4 7 -51l7 -49q20 65 34 198q14 124 40 249q22 108 31 157l13 5
q4 -1 7.5 -4t3.5 -6q0 -22 -9 -60l-6 -26l-17 -79q-15 -65 -20.5 -100t-12.5 -101l-2 -23q-5 -54 -7.5 -73t-11.5 -49q-8 -30 -13 -53l-2 -23q-2 -35 -8 -62q-8 -34 -32 -34zM172 69l-1 -2l1 -2v4z" />
    <glyph glyph-name="w" unicode="w" horiz-adv-x="410" 
d="M274 -21q-3 12 -3 23v9q-4 40 -11 75q-9 49 -12 76t-9 98q-9 112 -17 170q-9 74 -19 84l-6 -54q-5 -48 -5 -68q0 -42 -4 -84t-14 -107l-12 -83q-1 -2 -1.5 -7.5t-1.5 -13.5q-2 -28 -11 -74q-3 -20 -9 -32q-4 -12 -12 -12q-14 0 -23 45q-7 40 -13 127q-3 55 -5 82t-8 64
l-4 31q-8 54 -10 77t-4 67q-1 33 -3 59.5t-7 55.5q-4 25 -13 53q4 8 16 8t17 -23q1 -4 3 -40v-13q1 -21 23 -198q20 -160 23 -261q4 -9 5 -27q2 -20 5 -27h1l16 105q0 14 6 48q7 53 12 104q5 61 6 106q3 72 7 96l3 25q4 38 4 37l18 8q7 0 12 -4t5 -10q0 -3 -3 -8
q40 -135 54 -323l2 -37q1 -45 7 -77q6 -26 11 -38q12 34 20 166t8 229q0 18 7 77q7 49 7 78q0 9 -4 17q0 16 20 16q8 0 10.5 -2t2.5 -10q0 -28 -5 -43l2 -6q-8 -43 -8 -94q0 -9 2 -11l-6 -20l3 -7q-3 -6 -3 -12l3 -19l-3 -4q0 -35 -8 -156t-12 -154l-6 -27q-6 -21 -6 -33
q0 -32 -3 -61q-1 -20 -8 -35q-7 -13 -15 -13q-11 0 -14 12zM291 86l-1 1v-1h1z" />
    <glyph glyph-name="x" unicode="x" horiz-adv-x="249" 
d="M54 9q0 50 28 156q28 105 28 157q0 28 -27 152t-36 135v4q1 1 1 2v1q0 6 -5 14l-4 12q0 4 6.5 7t11.5 3q8 0 13.5 -12t7.5 -25l1 -23q14 -41 25 -100q13 -66 21 -93q6 12 15.5 78t12.5 99q6 81 13 83l8 2l8 1l9 -12q-16 -23 -16 -88v-6l1 -6l-1 -1q-4 -36 -20 -110
q-17 -82 -17 -124q0 -16 26 -133t34 -137q0 -1 5 -8q7 -13 7 -21q0 -6 -4.5 -10t-10.5 -4q-7 0 -13 3l-18 76q-24 90 -38 167q-12 -18 -22 -104q-10 -89 -18 -110q2 -4 2 -12q0 -10 -3.5 -17.5t-11.5 -7.5q-19 0 -19 12z" />
    <glyph glyph-name="y" unicode="y" horiz-adv-x="267" 
d="M130 -11q-5 4 -6 7q9 24 9 175q0 29 -3 83l-5 71l-6 13l3 12q-6 14 -18 47t-24 67q-36 95 -47 137q-6 20 -9 37l14 11q10 -2 29 -64q15 -44 27 -87l12 -38q18 -62 26 -64l4 18l-2 5q8 10 20 71q13 70 25 118q13 56 26 56q5 0 9 -3t4 -7q0 -15 -30 -118q-15 -49 -25 -92
q-12 -51 -12 -91q5 -10 5 -17q0 -5 -3 -14t-3 -15q0 -5 4 -45q4 -27 4 -46q0 -44 1 -79v-80v-4q0 -68 -21 -68q-3 0 -8 4z" />
    <glyph glyph-name="z" unicode="z" horiz-adv-x="256" 
d="M39 13q0 12 10 52l9 34q14 48 15 56q7 22 19 82q13 62 19.5 88t27.5 89q24 79 36 130.5t12 91.5q-15 0 -47 -3q-31 -3 -47 -3q-6 0 -10 5t-4 11q0 9 36 13q36 3 75 3q7 0 12 -1t9 -4q4 -6 4 -11q0 -35 -25 -109q-24 -76 -24 -90q-3 -16 -23 -87l-7 -24q-63 -207 -64 -305
q7 -2 29 -2q12 0 21 2q9 1 21 1q29 0 29 -13t-23 -13q-16 0 -29 1l-30 2q-11 0 -22 -6q-12 -5 -14 -5q-15 0 -15 15z" />
    <glyph glyph-name="braceleft" unicode="{" horiz-adv-x="235" 
d="M101.5 6q-17.5 31 -17.5 86l2 53q1 21 1 52q0 16 2 68q2 25 2 50q0 43 -28 46q-4 1 -4 10q0 7 7 8q12 0 18.5 13t6.5 34l-3 92q-4 67 -4 119q0 55 17.5 86t46.5 31q12 0 25.5 -5.5t13.5 -11.5q0 -10 -9 -10q-1 -1 -8 -1l-7 2q-8 2 -13 2q-35 0 -35 -97v-123q0 -22 1 -39
l2 -38q0 -26 -5.5 -40t-21.5 -23q16 -8 21.5 -22t5.5 -40l-2 -50q-1 -23 -1 -53v-109q0 -97 35 -97q17 0 26 -1q11 -3 11 -12q0 -11 -39 -11q-29 0 -46.5 31z" />
    <glyph glyph-name="bar" unicode="|" horiz-adv-x="152" 
d="M45.5 -42q-1.5 1 -1.5 7q0 45 6 133q6 87 6 132q0 71 8 247t8 249q0 10 1 17q3 9 9 13q4 2 10 2t6 -11q0 -93 -9 -282q-10 -212 -10 -284q0 -111 -3 -156v-24l-3 -34q0 -10 -17 -10q-9 0 -10.5 1z" />
    <glyph glyph-name="braceright" unicode="}" horiz-adv-x="235" 
d="M61.5 -21q-12.5 4 -12.5 10q0 11 16 11h7q4 -1 13 -1q36 0 36 97v123l-2 39q-1 17 -1 38q0 27 5 40.5t21 22.5q-16 8 -21 21.5t-5 40.5q0 28 1 51l2 52v109q0 97 -36 97h-15q-21 0 -21 10q0 6 12.5 10t25.5 4q29 0 46.5 -31t17.5 -86l-2 -52q-1 -22 -1 -53q0 -16 -2 -68
l-2 -50q0 -43 29 -46q4 -2 4 -10q0 -6 -8 -8q-12 0 -18.5 -13t-6.5 -34l3 -92q4 -68 4 -119q0 -55 -17.5 -86t-46.5 -31q-13 0 -25.5 4z" />
    <glyph glyph-name="asciitilde" unicode="~" horiz-adv-x="391" 
d="M211 509q-18 10 -29 21q-8 7 -26 28q-4 4 -11 4q-12 0 -22.5 -9.5t-10.5 -18.5q0 -4 3 -10q2 -8 2 -11q-10 -13 -20 -13t-10 15q0 32 16 51.5t45 19.5q21 0 45 -30q10 -13 21 -22t19 -9q6 0 8 1l7 -2q3 7 14 14q9 5 9 23l-2 10l-4 9q3 6 10 6q11 0 17 -10t6 -24
q0 -21 -16 -37t-37 -16q-16 0 -34 10z" />
    <glyph glyph-name="uni007F" 
 />
    <glyph glyph-name="uni00A0" unicode="&#xa0;" 
 />
    <glyph glyph-name="exclamdown" unicode="&#xa1;" horiz-adv-x="273" 
d="M121 703.5q-10 10.5 -10 20.5q8 16 16 21q5 4 13 6q4 0 6 5q25 -1 25 -26q0 -16 -8 -26.5t-22 -10.5q-10 0 -20 10.5zM144 -4.5q-10 8.5 -10 18.5q0 31 4 78q3 51 3 79q0 47 -1 85t-1 86v240v2l1 2h13l-3 -5q8 -21 8 -59q0 -13 -1 -23v-21q0 -88 10 -239q11 -167 11 -239
q0 -13 -13 -13q-11 0 -21 8.5z" />
    <glyph glyph-name="cent" unicode="&#xa2;" horiz-adv-x="302" 
d="M176 7.5q-3 2.5 -3 4.5l-2 -1q-2 37 -2 88v62q-4 1 -19 7t-33 17q-15 8 -24 16t-16 21q-9 14 -10 28q-13 56 -13 161q0 152 80 196q0 10 -3 31l-2 31q0 32 13 32l6 -4q-1 -6 -1 -26q0 -36 5 -66l21 -7q16 -5 30.5 -10.5t25.5 -13.5q12 -9 12 -20q0 -3 -3 -8t-6 -5
q-8 0 -17 12q-2 3 -5.5 9t-8 8.5t-11.5 4.5q-13 3 -16 8h-18l-1 2q0 -63 15 -188q15 -123 15 -187q0 -4 -1 -7v-7q0 -8 8 -16q28 0 46 13.5t39 45.5q11 0 11 -18q0 -13 -16.5 -27.5t-38.5 -24.5t-37 -10h-9v-26q-1 -11 -1 -25l2 -47l1 -48q0 -8 -6 -8q-4 0 -7 2.5zM162 196
q0 63 -16 229q-6 99 -16 142q-12 -2 -22.5 -21t-16.5 -41t-4 -28q-8 -72 -8 -92v-4q0 -187 79 -187z" />
    <glyph glyph-name="sterling" unicode="&#xa3;" horiz-adv-x="343" 
d="M47 24q0 15 38 32q18 8 20 10q17 12 26 47.5t9 71.5t-8 76t-25 96l-10 35l-12 42h-2l-2 -1q-6 0 -10.5 4t-4.5 10q0 14 13 14q0 23 -6 71q-6 47 -6 71q0 38 3 65q2 34 14 66q6 17 15 26.5t24 16.5q13 7 31 7q22 0 40.5 -19t26.5 -44q8 -24 8 -38l-10 -10q-8 0 -11 2.5
t-7 10.5l-5 10q0 25 -14.5 46t-34.5 21q-13 0 -24.5 -16t-17.5 -40q-13 -52 -13 -88q0 -43 5 -99t11 -56q21 0 53 7q35 6 52 6q6 0 10.5 -3.5t4.5 -9.5q0 -16 -13 -16q-59 0 -107 -9q23 -51 40 -125.5t17 -130.5q0 -20 -3.5 -36.5t-12.5 -42.5l-12 -34q23 0 73 -11t72 -11
q23 0 44 8l14 -10q0 -22 -47 -22q-12 0 -22 1l-23 2l-4 -2q-9 6 -30.5 10.5t-40.5 6.5l-17 2q-26 0 -44.5 -6.5t-48.5 -24.5q-16 3 -16 11z" />
    <glyph glyph-name="currency" unicode="&#xa4;" horiz-adv-x="459" 
d="M347 126l-21 37q-44 -50 -119 -50q-23 0 -46.5 13t-41.5 33q-6 0 -11 -12q-8 -17 -15.5 -26.5t-16.5 -9.5q-11 0 -15.5 6t-4.5 19q0 3 21 25q20 23 23 32q-7 12 -11.5 30t-5.5 32v34q0 91 14 170q9 52 22 66q0 11 -24 36q-24 26 -24 31q0 11 12 11q11 0 19.5 -7t18.5 -21
q8 -12 14 -18q4 3 19 19l28 28q12 13 17 13q30 0 55 -8.5t53 -27.5q6 1 17 18q28 50 46 50l14 -15q0 -7 -23 -36t-23 -40q0 -3 17 -54q27 -85 27 -126q0 -44 -19 -119q0 -3 -5 -20q-9 -30 -9 -45q0 -22 29 -55q9 -12 9 -18q0 -14 -13 -14q-27 0 -27 19zM269.5 150.5
q20.5 12.5 33.5 34.5q27 45 36 100q8 51 8 96q0 38 -11 91t-25 62q-9 0 -14 7t-5 16q-10 14 -30.5 22.5t-40.5 8.5q-14 0 -39 -20.5t-26 -33.5l9 -9q0 -13 -3.5 -17.5t-10.5 -3.5q-5 0 -9 -4q-8 -12 -17.5 -72t-9.5 -88q0 -2 2 -18q-3 -13 -3 -36q0 -31 5.5 -51t20.5 -34
q0 -31 24 -47t61 -16q24 0 44.5 12.5z" />
    <glyph glyph-name="yen" unicode="&#xa5;" horiz-adv-x="449" 
d="M192 20q3 6 8 60t5 70l2 75l2 39l1 35q3 51 3 79q0 3 -2 11q-40 0 -125 -5q-9 4 -17 19l4 13q86 0 143 4q2 20 2 46q0 13 -11 13q-20 0 -36 -2l-36 -2q-56 0 -56 18l7 11q21 0 39 -1h39q48 0 54 7v19q-11 5 -49 74q-52 94 -89 155.5t-59 79.5v15l13 4q7 0 17 -10
q17 -16 47 -61q4 -6 9.5 -14.5t12.5 -19.5q10 -17 14 -21q0 -7 29 -50q12 -19 21 -35q12 -23 25 -46q11 -17 15 -20q6 -8 9 -8q13 25 25 68q4 18 29 95q21 71 37 113q8 22 13.5 29t15.5 7q7 0 12 -4.5t5 -10.5q-20 -43 -46 -135q-26 -90 -39 -126q0 -16 -16 -50t-16 -47
q12 -6 25 -6l54 2q36 3 54 3q6 0 18 -21q-1 -13 -71 -13h-80l-1 -27q-1 -12 -1 -27h111h10q4 1 9 1q21 0 21 -22q0 -5 -6.5 -10t-11.5 -5h-4l2 1l-7 2q-5 2 -11 2h-111l-4 -2q0 -60 -7 -159q-8 -95 -8 -160v-13q1 -6 1 -13q0 -36 -23 -36q-20 0 -20 12z" />
    <glyph glyph-name="brokenbar" unicode="&#xa6;" horiz-adv-x="153" 
d="M68 420.5q-2 1.5 -2 6.5l2 108q3 71 3 107l1 46q0 24 0.5 30.5t0.5 7.5q0 10 1 17q3 9 9 13q4 2 10 2t6 -11l-2 -85l-3 -69q0 -77 -3 -106v-24l-3 -34q0 -10 -10 -10q-8 0 -10 1.5zM56 -21.5q-2 1.5 -2 6.5q0 34 3 98l2 97q0 5 0.5 17t0.5 35l1 42q0 5 2 21q3 11 18 11
q2 0 3.5 -0.5t1.5 -2.5q1 -1 1 -8l-3 -90l-2 -74q0 -62 -3 -86v-24l-3 -34q0 -4 -1.5 -6.5t-3.5 -2.5q-1 -1 -5 -1q-8 0 -10 1.5z" />
    <glyph glyph-name="section" unicode="&#xa7;" horiz-adv-x="242" 
d="M86 -19q-13 9 -13 19q0 8 13 8q4 0 11 -3q6 -3 10 -3q15 0 27 10t18 26q12 30 12 55q0 34 -13 63t-41 72l-35 51q-14 20 -22.5 47t-8.5 57q0 52 22 86q-14 34 -14 67q0 40 18 85q10 23 26 37.5t35 14.5q12 0 25 -9t13 -19q0 -8 -13 -8q-4 0 -10 3q-8 3 -11 3
q-15 0 -27 -12t-18 -31q-12 -37 -12 -68q0 -34 13.5 -62.5t40.5 -65.5l34 -47q14 -19 23 -43.5t9 -51.5q0 -51 -23 -89q15 -33 15 -64q0 -40 -18 -85q-10 -23 -26 -37.5t-35 -14.5q-12 0 -25 9zM172 254q0 24 -9 51t-22 46l-31 45q-6 11 -12 18l-16 24q-12 -30 -12 -67
q0 -25 9 -51t21 -44q13 -21 30 -44l29 -41q13 33 13 63z" />
    <glyph glyph-name="dieresis" unicode="&#xa8;" horiz-adv-x="449" 
d="M274 539q-6 7 -6 15q0 9 7.5 17t16.5 8t15.5 -8t6.5 -16q0 -23 -26 -23q-8 0 -14 7zM141.5 536q-5.5 8 -5.5 17t7.5 17t16.5 8q10 0 15 -10t5 -23q0 -8 -7.5 -12.5t-17.5 -4.5q-8 0 -13.5 8z" />
    <glyph glyph-name="copyright" unicode="&#xa9;" horiz-adv-x="605" 
d="M156.5 30.5q-45.5 29.5 -64.5 81.5t-25 134q-3 35 -4 77q-2 19 -4.5 62.5t-2.5 65.5q0 67 9 140q7 47 16 84t24 73q16 39 37 65.5t51 42.5q28 17 67 17t73 -14.5t60 -41.5q54 -56 82 -135q31 -90 42 -166q11 -78 11 -147q0 -368 -244 -368q-82 0 -127.5 29.5zM418 83
q24 27 39.5 61t27.5 83l-1 5q0 10 6 28q5 20 5 27v149q0 23 -9 65l-10 48q-32 196 -140 270l-13 9l-6 4l-14 8q-4 3 -8 4t-6 2q-6 2 -17 2q-32 0 -59 -15t-46 -41q-36 -49 -55 -131q-15 -72 -19 -144q-2 -40 -2 -58q0 -47 6 -116q0 -11 2 -29l1 -24q4 -62 10 -103
q4 -31 10.5 -49.5t20.5 -43.5q12 -22 28.5 -35t43.5 -22q26 -9 58 -9q98 0 147 55zM259 131q-4 2 -9.5 5t-11.5 6l-21 10q-39 49 -49 114q-5 32 -6.5 55.5t-1.5 65.5v4q0 41 2 78q3 52 10 96q8 49 26 90t52 57q17 9 46 9q20 0 33 -8t36 -39q28 -37 28 -51q0 -6 -3.5 -10
t-9.5 -4q-17 0 -35 40q-8 17 -22.5 28.5t-30.5 11.5q-21 0 -37 -13.5t-26 -34.5q-8 -19 -14 -47.5t-9 -54.5l-4 -52l-4 -39l2 -4q-4 -18 -4 -42v-18q0 -44 2 -71.5t10 -61.5q8 -38 22 -57v-3q13 -15 19.5 -20.5t20.5 -12.5q13 -7 29 -7q19 0 35 8t25 19q2 2 13 14t16 12
q15 0 15 -22q0 -14 -17 -28t-41 -23t-41 -9q-22 0 -45 9z" />
    <glyph glyph-name="ordfeminine" unicode="&#xaa;" horiz-adv-x="249" 
d="M174 378.5q-6 2.5 -7 10.5q-4 40 -6.5 55t-2.5 17q-11 3 -27 3l-21 1l-19 2q-2 0 -4 -3v-2l-1 -11q-2 -17 -7 -40q-1 -7 -6 -23q-7 -4 -11 -7t-6 -3q-3 0 -7 3t-4 7l1 2v2q3 11 7 33l10 45q3 11 6 34q1 5 3 17t6 25q6 21 6 37q1 6 3.5 17t6.5 31q6 26 10 52q0 1 1.5 6
t1.5 14q0 5 1 15.5t2 16.5q2 15 3 16h10h4q7 0 10 3q17 0 17 -8q0 -29 4 -61q1 -8 2 -15.5t1 -14.5q2 -25 8 -72.5t9 -67.5l17 -129v-1q0 -6 -5 -9q-10 0 -16 2.5zM156 481l-12 139l-9 93l-31 -149q-12 -63 -12 -75q0 -3 21.5 -5.5t36.5 -2.5h6z" />
    <glyph glyph-name="guillemotleft" unicode="&#xab;" horiz-adv-x="391" 
d="M236 -10q-14 18 -24 38q-2 3 -11 21l-6 13l-12 23q-45 87 -62 121q-32 64 -43 89q-18 39 -18 46t28 76l19 48q10 24 20 49.5t22 53.5q35 85 38 95v1q19 52 28 52q18 0 20 -14q-13 -20 -24 -47l-11 -28l-9 -24l-14 -38q-45 -119 -53 -141q-27 -78 -33 -86q2 -34 132 -262
q43 -74 43 -82q0 -4 -7.5 -7.5t-12.5 -3.5q-4 0 -10 7zM323 1l-7 1h-2q-16 24 -40 78l-17 38l-50 104l-10 22q-6 10 -8.5 15.5t-3.5 8.5q-3 8 -21 34q-19 23 -19 39q0 11 23 68l52 119q27 59 34 81q0 3 6 19q4 16 8.5 29.5t10.5 23.5q6 11 13 13l13 -10q-4 -30 -23.5 -78.5
t-44.5 -98.5q-24 -48 -40.5 -93.5t-16.5 -71.5q0 -8 68.5 -147t85.5 -169l9 -7q-1 -6 -5.5 -12.5t-8.5 -6.5z" />
    <glyph glyph-name="logicalnot" unicode="&#xac;" horiz-adv-x="391" 
d="M267 248q-6 5 -6 10l-2 50q-1 21 -1 47q0 3 -5 5q-2 0 -6.5 0.5t-13.5 0.5h-16q-5 0 -31 -2q-14 -1 -31 -1h-79l-1 3q-3 9 -3 14q0 7 7 7l30 2q19 2 36 2l46 2q20 1 47 1q19 0 33 2q9 -1 16 -5.5t7 -11.5q0 -4 -2 -18l-2 -14q0 -66 1 -83q0 -8 -4 -12t-9 -4t-11 5z" />
    <glyph glyph-name="uni00AD" unicode="&#xad;" horiz-adv-x="266" 
d="M40.5 357q-6.5 5 -6.5 12q0 3 62 6t109 3q8 0 15 -5t7 -12q0 -3 -61.5 -6t-110.5 -3q-8 0 -14.5 5z" />
    <glyph glyph-name="registered" unicode="&#xae;" horiz-adv-x="635" 
d="M203 -47q-44 29 -75 88q-22 44 -36 119q-9 48 -11 128q-1 18 -1 61v66q1 29 1 66q0 454 245 454q38 0 78 -25t66 -63q15 -4 19 -22q4 -19 14 -28q0 -25 27 -172q11 -63 15.5 -102t4.5 -74v-32q0 -21 -2 -109l-1 -29q-1 -46 -6 -81t-14 -82q-15 -82 -53 -122
q-39 -40 -71.5 -57.5t-74.5 -17.5q-72 0 -125 34zM405 -21q43 29 68 82q22 44 33 109q8 47 10 119q1 16 1 56q0 287 -60 461l7 8q-9 25 -28 31q-19 21 -31 31t-31 20q-23 10 -41 10q-38 0 -71 -14t-55 -39q-22 -24 -39 -58t-27 -70q-19 -65 -25 -149q-2 -44 -2 -67
q0 -35 3 -104q4 -63 4 -104q0 -213 64 -295q13 -18 35 -28q22 -14 28 -19q19 -7 33 -7l9 -4q68 0 115 31zM243 87.5q-7 5.5 -7 14.5q0 71 -4 129q-3 24 -7 47q-6 33 -6 52v195q0 31 -6 92q-6 48 -6 93q0 26 5.5 41.5t17.5 22.5q12 8 27.5 10.5t43.5 2.5q45 0 69 -27
q24 -28 29 -64q6 -42 6 -76q0 -32 -7 -56.5t-18 -38.5t-20 -21q-9 -8 -16.5 -16t-7.5 -15q0 -10 22 -91l46 -161q22 -79 24 -79v-1l4 -13q4 -9 7 -20q4 -8 4 -11q0 -8 -19 -15q-10 0 -20 16q-14 23 -31 90l-11 48q-2 8 -7 30q-5 13 -13 46l-7 28l-21 85q-9 34 -14 34
q-7 0 -21 -6q-11 -7 -22 -7l-3 -39v-18q0 -44 11 -143t11 -143q0 -10 -3 -16q-3 -5 -13 -5t-17 5.5zM315 507q38 31 44 48q9 27 9 66q0 25 -2 46q-3 28 -10 50q-8 22 -28 33q-12 6 -24 6q-27 0 -39.5 -5t-16.5 -18.5t-4 -41.5q0 -40 3 -121q1 -33 5 -67q3 -27 9 -27
q16 0 54 31z" />
    <glyph glyph-name="macron" unicode="&#xaf;" horiz-adv-x="352" 
d="M97 541q-15 2 -19 7q-2 4 -2 7q0 8 64 8h56q35 0 51 -2q12 -1 17 -4.5t5 -9.5q-2 -8 -64 -8h-57h-19q-25 0 -32 2z" />
    <glyph glyph-name="degree" unicode="&#xb0;" horiz-adv-x="262" 
d="M86 484.5q-19 13.5 -30.5 33t-11.5 35.5q0 61 33 99q18 21 43 21q41 0 69.5 -27t28.5 -65q0 -110 -93 -110q-20 0 -39 13.5zM163 498.5q15 8.5 23 23.5q13 27 13 51q0 33 -21 55t-55 22q-17 0 -31 -16.5t-20 -40.5q-6 -22 -6 -45q0 -20 18 -39t43 -19q21 0 36 8.5z" />
    <glyph glyph-name="plusminus" unicode="&#xb1;" horiz-adv-x="391" 
d="M176.5 178.5q-7.5 4.5 -7.5 9.5v31q0 14 1 26l1 26q0 10 -0.5 15.5t-3.5 10.5t-9 6t-21 1l-22 -2q-15 -3 -22 -3q-29 0 -29 21q0 8 2 11t9 3l27 -1l26 -2q41 0 41 8l-2 50q-3 33 -3 50q0 12 4 17t16 5q18 0 18 -17l-4 -10l2 -39q2 -18 2 -40q0 -14 6.5 -19t21.5 -5l30 2
l30 1q31 0 31 -18q0 -16 -17 -16q-16 0 -30 2q-13 1 -31 1h-5q-23 0 -29.5 -5.5t-6.5 -27.5q0 -15 5 -42q4 -34 4 -38q0 -7 -6 -11.5t-15 -4.5q-6 0 -13.5 4.5zM92.5 111q-6.5 5 -6.5 12q0 3 64 6t107 3q8 0 15 -5t7 -12q0 -3 -63.5 -6t-108.5 -3q-8 0 -14.5 5z" />
    <glyph glyph-name="uni00B2" unicode="&#xb2;" horiz-adv-x="273" 
d="M72 343q-4 3 -4 8q22 60 30 75q34 74 49 132t15 125q0 76 -35 76q-7 -4 -12 -12t-6 -17q-1 -7 -9 -13t-12 -3q-7 4 -7 6v6q0 23 12 39q3 4 13 6.5t16 2.5q33 0 49.5 -16.5t17.5 -43.5l-1 -1l1 -20q1 -9 1 -20q0 -45 -12.5 -107t-29.5 -100q-12 -30 -16 -37l-13 -27
l-13 -31q-1 -2 -1 -6q0 -3 3 -3q13 3 24 4.5t28 1.5q8 0 8 -8q0 -15 -5 -15q-12 0 -39 -3q-19 -2 -42 -2q-6 0 -10 3z" />
    <glyph glyph-name="uni00B3" unicode="&#xb3;" horiz-adv-x="252" 
d="M91 345q-12 12 -12 22l4 2q7 0 17 -8l7 -5q22 0 32 12.5t10 46.5q0 38 -3 62q-3 31 -17 60q-6 16 -18 26h-2h-3q-7 0 -11 2v2l-2 3q0 2 6 8q2 3 10.5 12.5t13.5 23.5q5 15 5 27q0 24 -3 44q-3 29 -16 45q-3 3 -6 3q-2 0 -4.5 -1t-5.5 -1q-8 0 -14.5 -4.5t-9.5 -10.5
q-8 -20 -13 -16q-16 12 -17 17q18 35 55 35q8 0 22 -4t18 -9l2 -1q22 -33 22 -105v-7q0 -16 -5 -24q-3 -3 -5 -8t-4 -8q-2 -2 -4 -4.5t-5 -4t-10 -2.5q12 -4 21.5 -13t13.5 -20q6 -18 11 -48q0 -4 4 -22q3 -11 3.5 -18.5t0.5 -19.5q0 -20 -2 -36q-1 -15 -9 -36
q-4 -11 -19 -17.5t-17 -7.5q-12 -4 -19 -4q-10 0 -22 12z" />
    <glyph glyph-name="acute" unicode="&#xb4;" horiz-adv-x="303" 
d="M96.5 546q-5.5 4 -5.5 10q0 3 28 26l32 26l27 21q34 26 37 29q22 0 22 -15l-3 -16q-52 -24 -125 -85q-7 0 -12.5 4z" />
    <glyph glyph-name="uni00B5" unicode="&#xb5;" horiz-adv-x="366" 
d="M142.5 -4.5q-18.5 10.5 -30.5 24.5q-14 18 -22 101t-10 190q0 24 -1 36q-2 251 -8 297l6 14q23 -3 23 -55l3 -265q0 -28 5 -106q6 -70 6 -106q0 -114 75 -114q46 0 59 210l1 20q7 275 7 407l-1 9q-1 4 -1 9q0 11 17 11q12 0 15 -6q2 -10 2 -35q0 -76 -6 -102l1 -6
q0 -13 -3 -40l-2 -40v-10q1 -4 1 -10q-2 -24 -2 -46q-1 -7 -1 -22q-2 -95 -4 -165q-3 -87 -24 -147q-22 -64 -71 -64q-16 0 -34.5 10.5zM43.5 -140q-1.5 1 -1.5 7q0 45 6 133q6 87 6 132q0 71 8 247t8 249q0 10 1 17q3 9 9 13q4 2 10 2t6 -11q0 -93 -9 -282
q-10 -212 -10 -284q0 -111 -3 -156v-24l-3 -34q0 -10 -17 -10q-9 0 -10.5 1z" />
    <glyph glyph-name="paragraph" unicode="&#xb6;" horiz-adv-x="452" 
d="M320 50q0 106 4 262q5 195 5 262q0 45 -4 109q-3 72 -3 109v17q1 6 1 15q0 26 -10 38.5t-36 12.5q-11 0 -11 -51q0 -57 6 -173q7 -108 7 -173q0 -51 -2 -125q-1 -8 -1 -22l-3 -60q-1 -51 -4 -90q-2 -33 -5 -79.5t-4 -73.5l2 -6q0 -6 -6.5 -10.5t-12.5 -4.5q-19 0 -19 20
q0 81 10 222q11 154 11 221l-1 39q-1 17 -1 38h-84q-15 6 -36 12q-39 11 -62 24q-30 18 -40 64l-2 15q0 10 -4 16q0 78 30 133q16 29 34.5 41t49.5 21q28 7 35 10q23 9 59 9q30 2 27 2q7 10 24 10q3 0 19 -4q12 -4 20 -4q18 0 23 2q7 -6 20 -8q21 -3 29.5 -6t8.5 -10
q0 -14 -20 -14q-12 0 -20 2l2 -102l2 -51q4 -89 4 -152q0 -71 -3 -214q-4 -127 -4 -214q0 -23 4 -56q3 -37 3 -56q0 -7 -5 -11.5t-12 -4.5q-25 0 -25 49zM237.5 576q5.5 4 5.5 16q0 31 -5 118q-4 69 -4 118v14l1 14q-9 9 -52 9q-36 0 -68 -22.5t-50.5 -58.5t-18.5 -74
q0 -81 47 -111q24 -15 52 -21t69 -6q18 0 23.5 4z" />
    <glyph glyph-name="periodcentered" unicode="&#xb7;" horiz-adv-x="147" 
d="M55.5 347.5q-6.5 7.5 -6.5 16.5q0 10 8 18.5t18 8.5q8 0 16 -8.5t8 -17.5q0 -25 -28 -25q-9 0 -15.5 7.5z" />
    <glyph glyph-name="cedilla" unicode="&#xb8;" horiz-adv-x="303" 
d="M125.5 -211.5q-13.5 7.5 -13.5 19.5q0 10 11 10q4 0 16 -5t16 -5q17 0 28 20.5t11 48.5q0 33 -15 45l-13 -2l-14 -2q-15 0 -27 20q8 21 8 58v11l29 4q-4 -30 -4 -51q73 -4 73 -100q0 -16 -10.5 -34.5t-28.5 -31.5t-37 -13q-16 0 -29.5 7.5z" />
    <glyph glyph-name="uni00B9" unicode="&#xb9;" horiz-adv-x="254" 
d="M61 339q-2 6 -2 14q0 1 1 2.5t3 1.5h16h16q9 0 11.5 2t2.5 9q0 93 -13 304q0 1 0.5 5t0.5 13v18q0 13 -4 16t-22 3l-6 -1h-6q-5 0 -7.5 4.5t-2.5 8.5q0 7 12 7q7 1 43 1q5 0 13 -3t8 -6v-17v-53l2 -52q0 -15 4 -78q3 -61 3 -100v-7l2 -31l1 -32v-5l-1 -4l2 -1h13
q6 1 13 1q17 0 17 -7q0 -5 -3.5 -10.5t-9.5 -5.5l-44 -1l-57 -2q-4 0 -6 6z" />
    <glyph glyph-name="ordmasculine" unicode="&#xba;" horiz-adv-x="259" 
d="M66.5 425q-17.5 50 -17.5 155v19q0 80 11.5 117.5t38.5 37.5q1 0 7 -2q25 -7 35 -7q12 -1 19 -6t12 -16q11 -20 17 -52.5t6 -67.5l-1 -2q0 -19 1 -34v-33q0 -28 -2 -51q-3 -38 -10 -59q-10 -30 -28 -42q-4 -3 -14 -5t-17 -2q-40 0 -57.5 50zM154 422q11 34 13 63
q1 25 1 54l-2 65l-2 21l-2 45l-2 4l1 3q0 24 -13 40t-33 16q-14 0 -21.5 -4.5t-9.5 -16.5l-2 -24q0 -9 -0.5 -27.5t-2.5 -28.5l-2 -26q-1 -11 -1 -26v-22q1 -10 1 -22q0 -22 5 -60q4 -42 20 -69q7 -13 20 -13q22 0 32 28z" />
    <glyph glyph-name="guillemotright" unicode="&#xbb;" horiz-adv-x="391" 
d="M132.5 -13.5q-7.5 3.5 -7.5 7.5q0 5 43 82q52 90 91.5 166t40.5 96q-6 8 -33 86q-8 22 -53 141l-14 38l-9 24q-14 36 -21 51q-4 10 -14 24q2 14 20 14q9 0 28 -52v-1l38 -95q12 -28 22 -53.5t20 -49.5l19 -48q28 -69 28 -76t-18 -46q-34 -75 -87 -175q-22 -44 -30 -58
l-17 -34q-13 -25 -24 -38q-6 -7 -9 -7q-6 0 -13.5 3.5zM54.5 6.5q-4.5 6.5 -6.5 12.5l9 7q20 35 87 171.5t67 144.5q0 26 -16 72t-40 93t-44 97t-25 80l13 10q6 -1 13.5 -12.5t11.5 -24.5q5 -19 8 -28l5 -20q7 -22 34 -81q9 -19 42 -96l10 -23q23 -57 23 -68q0 -15 -18 -39
q-20 -29 -22 -34q-4 -11 -12 -25l-10 -21l-86 -178l-21 -42l-8 -1l-6 -1q-4 0 -8.5 6.5z" />
    <glyph glyph-name="onequarter" unicode="&#xbc;" horiz-adv-x="620" 
d="M184 15q0 21 5 47t16 71l14 56q64 284 125 518l2 6q1 6 3 12.5t3 9.5l5 10q2 3 4 3q15 0 15 -13q0 -1 -5 -24l-10 -43l-5 -25l-38 -168l-75 -329l-20 -87q-1 -3 -3 -14q-2 -8 -8 -31q-6 -15 -19 -17q-9 6 -9 18zM61 339q-2 6 -2 14q0 1 1 2.5t3 1.5h16h16q9 0 11.5 2
t2.5 9q0 93 -13 304q0 1 0.5 5t0.5 13v18q0 13 -4 16t-22 3l-6 -1h-6q-5 0 -7.5 4.5t-2.5 8.5q0 7 12 7q7 1 43 1q5 0 13 -3t8 -6v-17v-53l2 -52q0 -15 4 -78q3 -61 3 -100v-7l2 -31l1 -32v-5l-1 -4l2 -1h13q6 1 13 1q17 0 17 -7q0 -5 -3.5 -10.5t-9.5 -5.5l-44 -1l-57 -2
q-4 0 -6 6zM507 -9v20l-1 2q3 9 3 19l-2 29q-3 18 -3 28q0 7 1 13l1 12q0 21 -6 24q-1 0 -9.5 -0.5t-45.5 -0.5q-6 0 -10 -1t-7 -1l-5 1h-11t-8 2q-3 3 -4 3v2l3 18l-5 11q0 7 2 13q3 9 3 14q0 18 3 54q2 24 2 55v88q0 4 -1 7t-1 7t3.5 5.5t16.5 1.5q10 0 10 -7
q0 -13 -1 -23t-1 -22q0 -11 2 -19l-2 -1l2 -16q0 -23 -3 -70q-4 -41 -4 -61q0 -5 2 -8l2 -8l-2 -8q-2 -3 -2 -7q0 -11 5 -11q13 0 38.5 2t28.5 3l1 39q0 32 -4 72q-1 3 -1 8.5t-2 13.5l-2 23q0 3 3.5 4.5t6.5 1.5l18 -6l2 -39q1 -17 1 -39q0 -21 2 -48t4 -30q6 0 10 1
q8 2 11 2q5 0 7.5 -3.5t2.5 -12.5q0 -8 -15 -6h-2q-14 0 -14 -12q0 -22 2 -56t3 -38v-10q0 -7 2 -13l-2 -7l2 -4v-7l-9 -7z" />
    <glyph glyph-name="onehalf" unicode="&#xbd;" horiz-adv-x="586" 
d="M61 339q-2 6 -2 14q0 1 1 2.5t3 1.5h16h16q9 0 11.5 2t2.5 9q0 93 -13 304q0 1 0.5 5t0.5 13v18q0 13 -4 16t-22 3l-6 -1h-6q-5 0 -7.5 4.5t-2.5 8.5q0 7 12 7q7 1 43 1q5 0 13 -3t8 -6v-17v-53l2 -52q0 -15 4 -78q3 -61 3 -100v-7l2 -31l1 -32v-5l-1 -4l2 -1h13
q6 1 13 1q17 0 17 -7q0 -5 -3.5 -10.5t-9.5 -5.5l-44 -1l-57 -2q-4 0 -6 6zM191 15q0 21 5 47t16 71l14 56q64 284 125 518l2 6q1 6 3 12.5t3 9.5l5 10q2 3 4 3q15 0 15 -13q0 -1 -5 -24l-10 -43l-5 -25l-38 -168l-75 -329l-20 -87q-1 -3 -3 -14q-2 -8 -8 -31
q-6 -15 -19 -17q-9 6 -9 18zM414 -1q-4 3 -4 8q22 60 30 75q34 74 49 132t15 125q0 76 -35 76q-7 -4 -12 -12t-6 -17q-1 -7 -9 -13t-12 -3q-7 4 -7 6v6q0 23 12 39q3 4 13 6.5t16 2.5q33 0 49.5 -16.5t17.5 -43.5l-1 -1l1 -20q1 -9 1 -20q0 -45 -12.5 -107t-29.5 -100
q-12 -30 -16 -37l-13 -27l-13 -31q-1 -2 -1 -6q0 -3 3 -3q13 3 24 4.5t28 1.5q8 0 8 -8q0 -15 -5 -15q-12 0 -39 -3q-19 -2 -42 -2q-6 0 -10 3z" />
    <glyph glyph-name="threequarters" unicode="&#xbe;" horiz-adv-x="620" 
d="M91 345q-12 12 -12 22l4 2q7 0 17 -8l7 -5q22 0 32 12.5t10 46.5q0 38 -3 62q-3 31 -17 60q-6 16 -18 26h-2h-3q-7 0 -11 2v2l-2 3q0 2 6 8q2 3 10.5 12.5t13.5 23.5q5 15 5 27q0 24 -3 44q-3 29 -16 45q-3 3 -6 3q-2 0 -4.5 -1t-5.5 -1q-8 0 -14.5 -4.5t-9.5 -10.5
q-8 -20 -13 -16q-16 12 -17 17q18 35 55 35q8 0 22 -4t18 -9l2 -1q22 -33 22 -105v-7q0 -16 -5 -24q-3 -3 -5 -8t-4 -8q-2 -2 -4 -4.5t-5 -4t-10 -2.5q12 -4 21.5 -13t13.5 -20q6 -18 11 -48q0 -4 4 -22q3 -11 3.5 -18.5t0.5 -19.5q0 -20 -2 -36q-1 -15 -9 -36
q-4 -11 -19 -17.5t-17 -7.5q-12 -4 -19 -4q-10 0 -22 12zM193 15q0 21 5 47t16 71l14 56q64 284 125 518l2 6q1 6 3 12.5t3 9.5l5 10q2 3 4 3q15 0 15 -13q0 -1 -5 -24l-10 -43l-5 -25l-38 -168l-75 -329l-20 -87q-1 -3 -3 -14q-2 -8 -8 -31q-6 -15 -19 -17q-9 6 -9 18z
M507 -9v20l-1 2q3 9 3 19l-2 29q-3 18 -3 28q0 7 1 13l1 12q0 21 -6 24q-1 0 -9.5 -0.5t-45.5 -0.5q-6 0 -10 -1t-7 -1l-5 1h-11t-8 2q-3 3 -4 3v2l3 18l-5 11q0 7 2 13q3 9 3 14q0 18 3 54q2 24 2 55v88q0 4 -1 7t-1 7t3.5 5.5t16.5 1.5q10 0 10 -7q0 -13 -1 -23t-1 -22
q0 -11 2 -19l-2 -1l2 -16q0 -23 -3 -70q-4 -41 -4 -61q0 -5 2 -8l2 -8l-2 -8q-2 -3 -2 -7q0 -11 5 -11q13 0 38.5 2t28.5 3l1 39q0 32 -4 72q-1 3 -1 8.5t-2 13.5l-2 23q0 3 3.5 4.5t6.5 1.5l18 -6l2 -39q1 -17 1 -39q0 -21 2 -48t4 -30q6 0 10 1q8 2 11 2q5 0 7.5 -3.5
t2.5 -12.5q0 -8 -15 -6h-2q-14 0 -14 -12q0 -22 2 -56t3 -38v-10q0 -7 2 -13l-2 -7l2 -4v-7l-9 -7z" />
    <glyph glyph-name="questiondown" unicode="&#xbf;" horiz-adv-x="241" 
d="M113.5 637.5q-7.5 8.5 -7.5 17.5q0 25 28 25q9 0 15.5 -7.5t6.5 -16.5q0 -10 -8 -18.5t-18 -8.5q-9 0 -16.5 8.5zM80 -73q-10 20 -15.5 51t-5.5 61q0 89 32 199q13 46 22.5 117t9.5 146l-1 57q0 -2 2 0q3 3 10 3q10 0 11 -12q0 -153 -19 -273q-5 -31 -16 -73
q-13 -54 -19 -92t-6 -71q0 -26 2 -45.5t10 -41.5q9 -26 24 -26h11q35 0 35 62q0 18 -7 60q10 5 17 5t8 -5q7 -44 7 -62q0 -30 -12 -54q-15 -28 -46 -28q-43 0 -54 22z" />
    <glyph glyph-name="Agrave" unicode="&#xc0;" horiz-adv-x="353" 
d="M217 798.5q-31 17.5 -48 27.5l-16 1q-30 6 -30 23t10 24l6 -2q30 -4 36 -17q0 -1 12 -6l36 -22q22 -14 37 -26q16 -13 16 -21q0 -7 -13 -7q-15 8 -46 25.5zM249.5 5q-5.5 5 -5.5 12v131q0 12 -51 22t-84 10q-2 0 -6.5 -15t-6.5 -22q-13 -52 -26 -111l-5 -22q-2 -8 -10 -8
t-14.5 5t-6.5 12l1 2v1l11 50q12 47 21 92q10 51 15 66q8 33 32 165l6 33q26 154 36 194q5 24 18 71q5 20 14 40q9 17 15 17q16 0 23 -10q5 -9 15.5 -99t18.5 -182l13 -166q0 -43 6 -130q6 -88 6 -131v-4q0 -11 -3 -20q-4 -8 -19 -8q-8 0 -13.5 5zM243 203q0 62 -7 169.5
t-15 189.5q-2 35 -8 77l-4 39q0 -1 -2 11l-2 12q-8 -22 -15.5 -61t-15.5 -92q-24 -149 -41 -224l-9 -34q-15 -50 -15 -76v-6q44 -14 101 -14h6q3 -1 7 -1q20 0 20 10z" />
    <glyph glyph-name="Aacute" unicode="&#xc1;" horiz-adv-x="353" 
d="M249.5 5q-5.5 5 -5.5 12v131q0 12 -51 22t-84 10q-2 0 -6.5 -15t-6.5 -22q-13 -52 -26 -111l-5 -22q-2 -8 -10 -8t-14.5 5t-6.5 12l1 2v1l11 50q12 47 21 92q10 51 15 66q8 33 32 165l6 33q26 154 36 194q5 24 18 71q5 20 14 40q9 17 15 17q16 0 23 -10q5 -9 15.5 -99
t18.5 -182l13 -166q0 -43 6 -130q6 -88 6 -131v-4q0 -11 -3 -20q-4 -8 -19 -8q-8 0 -13.5 5zM243 203q0 62 -7 169.5t-15 189.5q-2 35 -8 77l-4 39q0 -1 -2 11l-2 12q-8 -22 -15.5 -61t-15.5 -92q-24 -149 -41 -224l-9 -34q-15 -50 -15 -76v-6q44 -14 101 -14h6q3 -1 7 -1
q20 0 20 10zM211.5 805q-5.5 4 -5.5 10q0 3 28 26l32 26l27 21q34 26 37 29q22 0 22 -15l-3 -16q-52 -24 -125 -85q-7 0 -12.5 4z" />
    <glyph glyph-name="Acircumflex" unicode="&#xc2;" horiz-adv-x="353" 
d="M258 780q-5 64 -28 150q-4 -6 -34 -96q-8 -26 -8 -34l-17 -23l-19 13q1 15 18 57t37 77t29 35q15 0 15 -21q0 -33 18 -81l11 -36l-1 -6l8 -15l-1 -5q1 -4 2.5 -6.5t1.5 -4.5q0 -9 -18 -12zM249.5 5q-5.5 5 -5.5 12v131q0 12 -51 22t-84 10q-2 0 -6.5 -15t-6.5 -22
q-13 -52 -26 -111l-5 -22q-2 -8 -10 -8t-14.5 5t-6.5 12l1 2v1l11 50q12 47 21 92q10 51 15 66q8 33 32 165l6 33q26 154 36 194q5 24 18 71q5 20 14 40q9 17 15 17q16 0 23 -10q5 -9 15.5 -99t18.5 -182l13 -166q0 -43 6 -130q6 -88 6 -131v-4q0 -11 -3 -20q-4 -8 -19 -8
q-8 0 -13.5 5zM243 203q0 62 -7 169.5t-15 189.5q-2 35 -8 77l-4 39q0 -1 -2 11l-2 12q-8 -22 -15.5 -61t-15.5 -92q-24 -149 -41 -224l-9 -34q-15 -50 -15 -76v-6q44 -14 101 -14h6q3 -1 7 -1q20 0 20 10z" />
    <glyph glyph-name="Atilde" unicode="&#xc3;" horiz-adv-x="353" 
d="M126.5 790.5q-6.5 5.5 -6.5 11.5q0 31 17 50t42 19t42 -20q8 -15 25 -27t32 -12q26 0 26 36l-2 10l-4 9q3 6 10 6q11 0 17 -10t6 -24q0 -21 -16 -37t-37 -16q-16 0 -34 10t-29 21q-8 7 -26 28l-7 3q-15 0 -26 -8t-11 -19l5 -21l-11 -15q-6 0 -12.5 5.5zM249.5 5
q-5.5 5 -5.5 12v131q0 12 -51 22t-84 10q-2 0 -6.5 -15t-6.5 -22q-13 -52 -26 -111l-5 -22q-2 -8 -10 -8t-14.5 5t-6.5 12l1 2v1l11 50q12 47 21 92q10 51 15 66q8 33 32 165l6 33q26 154 36 194q5 24 18 71q5 20 14 40q9 17 15 17q16 0 23 -10q5 -9 15.5 -99t18.5 -182
l13 -166q0 -43 6 -130q6 -88 6 -131v-4q0 -11 -3 -20q-4 -8 -19 -8q-8 0 -13.5 5zM243 203q0 62 -7 169.5t-15 189.5q-2 35 -8 77l-4 39q0 -1 -2 11l-2 12q-8 -22 -15.5 -61t-15.5 -92q-24 -149 -41 -224l-9 -34q-15 -50 -15 -76v-6q44 -14 101 -14h6q3 -1 7 -1q20 0 20 10z
" />
    <glyph glyph-name="Adieresis" unicode="&#xc4;" horiz-adv-x="353" 
d="M277 816q-6 7 -6 15q0 9 7.5 17t16.5 8t15.5 -8t6.5 -16q0 -23 -26 -23q-8 0 -14 7zM144.5 813q-5.5 8 -5.5 17t7.5 17t16.5 8q10 0 15 -10t5 -23q0 -8 -7.5 -12.5t-17.5 -4.5q-8 0 -13.5 8zM249.5 5q-5.5 5 -5.5 12v131q0 12 -51 22t-84 10q-2 0 -6.5 -15t-6.5 -22
q-13 -52 -26 -111l-5 -22q-2 -8 -10 -8t-14.5 5t-6.5 12l1 2v1l11 50q12 47 21 92q10 51 15 66q8 33 32 165l6 33q26 154 36 194q5 24 18 71q5 20 14 40q9 17 15 17q16 0 23 -10q5 -9 15.5 -99t18.5 -182l13 -166q0 -43 6 -130q6 -88 6 -131v-4q0 -11 -3 -20q-4 -8 -19 -8
q-8 0 -13.5 5zM243 203q0 62 -7 169.5t-15 189.5q-2 35 -8 77l-4 39q0 -1 -2 11l-2 12q-8 -22 -15.5 -61t-15.5 -92q-24 -149 -41 -224l-9 -34q-15 -50 -15 -76v-6q44 -14 101 -14h6q3 -1 7 -1q20 0 20 10z" />
    <glyph glyph-name="Aring" unicode="&#xc5;" horiz-adv-x="353" 
d="M184 800.5q-15 16.5 -15 36.5q0 23 18 42.5t40 19.5q19 0 37 -19t18 -39q0 -27 -17.5 -42t-46.5 -15q-19 0 -34 16.5zM241.5 811.5q14.5 8.5 14.5 19.5q0 20 -7.5 34.5t-21.5 14.5q-12 0 -23.5 -12.5t-11.5 -25.5q0 -20 8 -31q5 -8 14 -8q13 0 27.5 8.5zM249.5 5
q-5.5 5 -5.5 12v131q0 12 -51 22t-84 10q-2 0 -6.5 -15t-6.5 -22q-13 -52 -26 -111l-5 -22q-2 -8 -10 -8t-14.5 5t-6.5 12l1 2v1l11 50q12 47 21 92q10 51 15 66q8 33 32 165l6 33q26 154 36 194q5 24 18 71q5 20 14 40q9 17 15 17q16 0 23 -10q5 -9 15.5 -99t18.5 -182
l13 -166q0 -43 6 -130q6 -88 6 -131v-4q0 -11 -3 -20q-4 -8 -19 -8q-8 0 -13.5 5zM243 203q0 62 -7 169.5t-15 189.5q-2 35 -8 77l-4 39q0 -1 -2 11l-2 12q-8 -22 -15.5 -61t-15.5 -92q-24 -149 -41 -224l-9 -34q-15 -50 -15 -76v-6q44 -14 101 -14h6q3 -1 7 -1q20 0 20 10z
" />
    <glyph glyph-name="AE" unicode="&#xc6;" horiz-adv-x="408" 
d="M222 -6q8 49 8 118l-2 96l-2 95l-6 7l-31 -3q-23 -1 -49 -5q-22 -5 -23 -9l-50 -191q-2 -9 -7.5 -37t-11.5 -44q-8 -20 -16 -20q-3 0 -5.5 4.5t-2.5 7.5q1 43 40 198q61 241 131 469q13 45 24 60q11 14 22 14l38 2q26 3 39 3q32 0 32 -16l-7 -12q-48 0 -98 -6
q0 -24 3 -74q3 -49 3 -75q0 -65 -1 -117q-1 -51 -1 -116l4 -6q12 0 40 5q21 5 40 5l13 -17q0 -17 -71 -17h-26q0 -66 1 -119q2 -52 2 -119v-20q-1 -10 -1 -21q0 -17 9 -17q15 0 57 5q38 6 57 6q8 0 15 -3.5t7 -9.5q0 -11 -30 -14q-40 -4 -65 -4q-37 -2 -42 -4l-9 -7
q-7 -6 -14 -6zM225 336l2 105l2 122q0 71 -7 117q-9 -10 -52 -170t-45 -186q63 3 100 12z" />
    <glyph glyph-name="Ccedilla" unicode="&#xc7;" horiz-adv-x="330" 
d="M143 6q-31 22 -44 50q-12 26 -24.5 165t-12.5 207v53q-1 23 -1 51q0 52 6 103q4 25 10.5 43t18.5 35q22 34 66 45q23 6 51 6q19 0 38.5 -11t19.5 -26q0 -11 -16 -11q-6 0 -23 7q-15 7 -27 7q-28 0 -50.5 -11.5t-35.5 -30.5q-11 -16 -19 -44t-10 -56q-3 -25 -3 -60l1 -56
q1 -24 1 -52q0 -69 14 -203t27 -155q12 -19 35.5 -29t49.5 -10q46 0 70 29q9 12 19 12q9 0 9 -14q0 -18 -11 -31.5t-30 -20.5q-32 -14 -70 -14q-28 0 -59 22zM177.5 -211.5q-13.5 7.5 -13.5 19.5q0 10 11 10q4 0 16 -5t16 -5q17 0 28 20.5t11 48.5q0 33 -15 45l-13 -2
l-14 -2q-15 0 -27 20q8 21 8 58v11l29 4q-4 -30 -4 -51q73 -4 73 -100q0 -16 -10.5 -34.5t-28.5 -31.5t-37 -13q-16 0 -29.5 7.5z" />
    <glyph glyph-name="Egrave" unicode="&#xc8;" horiz-adv-x="249" 
d="M116 798.5q-31 17.5 -48 27.5l-16 1q-30 6 -30 23t10 24l6 -2q30 -4 36 -17q0 -1 12 -6l36 -22q22 -14 37 -26q16 -13 16 -21q0 -7 -13 -7q-15 8 -46 25.5zM80.5 -1.5q-9.5 4.5 -9.5 17.5v19q-1 8 -1 18v2l1 146l-1 413q0 64 -2 111q0 12 5 20t13 8h62q14 0 21 -2
q10 -3 10 -17q0 -8 -6 -13t-13 -6h-17l-16 1l-16 1q-7 0 -9.5 -2.5t-2.5 -9.5q0 -47 1 -85v-85v-125q0 -2 2 -2h1h1q25 2 54 2q16 0 16 -14q0 -10 -3.5 -13.5t-11.5 -3.5h-57q-4 0 -4 -5l2 -148q2 -69 2 -159v-37h43h42h9q18 0 18 -13q0 -16 -9 -19q-12 -4 -49 -4h-42
q-24 0 -33.5 4.5z" />
    <glyph glyph-name="Eacute" unicode="&#xc9;" horiz-adv-x="249" 
d="M80.5 -1.5q-9.5 4.5 -9.5 17.5v19q-1 8 -1 18v2l1 146l-1 413q0 64 -2 111q0 12 5 20t13 8h62q14 0 21 -2q10 -3 10 -17q0 -8 -6 -13t-13 -6h-17l-16 1l-16 1q-7 0 -9.5 -2.5t-2.5 -9.5q0 -47 1 -85v-85v-125q0 -2 2 -2h1h1q25 2 54 2q16 0 16 -14q0 -10 -3.5 -13.5
t-11.5 -3.5h-57q-4 0 -4 -5l2 -148q2 -69 2 -159v-37h43h42h9q18 0 18 -13q0 -16 -9 -19q-12 -4 -49 -4h-42q-24 0 -33.5 4.5zM110.5 805q-5.5 4 -5.5 10q0 3 28 26l32 26l27 21q34 26 37 29q22 0 22 -15l-3 -16q-52 -24 -125 -85q-7 0 -12.5 4z" />
    <glyph glyph-name="Ecircumflex" unicode="&#xca;" horiz-adv-x="249" 
d="M157 780q-5 64 -28 150q-4 -6 -34 -96q-8 -26 -8 -34l-17 -23l-19 13q1 15 18 57t37 77t29 35q15 0 15 -21q0 -33 18 -81l11 -36l-1 -6l8 -15l-1 -5q1 -4 2.5 -6.5t1.5 -4.5q0 -9 -18 -12zM80.5 -1.5q-9.5 4.5 -9.5 17.5v19q-1 8 -1 18v2l1 146l-1 413q0 64 -2 111
q0 12 5 20t13 8h62q14 0 21 -2q10 -3 10 -17q0 -8 -6 -13t-13 -6h-17l-16 1l-16 1q-7 0 -9.5 -2.5t-2.5 -9.5q0 -47 1 -85v-85v-125q0 -2 2 -2h1h1q25 2 54 2q16 0 16 -14q0 -10 -3.5 -13.5t-11.5 -3.5h-57q-4 0 -4 -5l2 -148q2 -69 2 -159v-37h43h42h9q18 0 18 -13
q0 -16 -9 -19q-12 -4 -49 -4h-42q-24 0 -33.5 4.5z" />
    <glyph glyph-name="Edieresis" unicode="&#xcb;" horiz-adv-x="249" 
d="M176 816q-6 7 -6 15q0 9 7.5 17t16.5 8t15.5 -8t6.5 -16q0 -23 -26 -23q-8 0 -14 7zM43.5 813q-5.5 8 -5.5 17t7.5 17t16.5 8q10 0 15 -10t5 -23q0 -8 -7.5 -12.5t-17.5 -4.5q-8 0 -13.5 8zM80.5 -1.5q-9.5 4.5 -9.5 17.5v19q-1 8 -1 18v2l1 146l-1 413q0 64 -2 111
q0 12 5 20t13 8h62q14 0 21 -2q10 -3 10 -17q0 -8 -6 -13t-13 -6h-17l-16 1l-16 1q-7 0 -9.5 -2.5t-2.5 -9.5q0 -47 1 -85v-85v-125q0 -2 2 -2h1h1q25 2 54 2q16 0 16 -14q0 -10 -3.5 -13.5t-11.5 -3.5h-57q-4 0 -4 -5l2 -148q2 -69 2 -159v-37h43h42h9q18 0 18 -13
q0 -16 -9 -19q-12 -4 -49 -4h-42q-24 0 -33.5 4.5z" />
    <glyph glyph-name="Igrave" unicode="&#xcc;" horiz-adv-x="270" 
d="M126 798.5q-31 17.5 -48 27.5l-16 1q-30 6 -30 23t10 24l6 -2q30 -4 36 -17q0 -1 12 -6l36 -22q22 -14 37 -26q16 -13 16 -21q0 -7 -13 -7q-15 8 -46 25.5zM82 5q-7 0 -12.5 5t-5.5 11q0 13 17 13h39q0 115 -7 290q-4 140 -8 220l1 51v66q0 50 -2 64h-35q-10 0 -10 14
q0 9 8 14q7 3 37 3h28q15 -1 38 -1q8 0 13 -3.5t5 -10.5q0 -6 -3 -11t-9 -5q-7 0 -12 1h-12h-10q-10 0 -12 -2l-2 -4q0 -78 13 -315q12 -219 12 -315v-28q-1 -13 -1 -27h36q23 0 23 -14q0 -6 -4.5 -11.5t-9.5 -5.5h-54q-24 1 -61 1z" />
    <glyph glyph-name="Iacute" unicode="&#xcd;" horiz-adv-x="270" 
d="M82 5q-7 0 -12.5 5t-5.5 11q0 13 17 13h39q0 115 -7 290q-4 140 -8 220l1 51v66q0 50 -2 64h-35q-10 0 -10 14q0 9 8 14q7 3 37 3h28q15 -1 38 -1q8 0 13 -3.5t5 -10.5q0 -6 -3 -11t-9 -5q-7 0 -12 1h-12h-10q-10 0 -12 -2l-2 -4q0 -78 13 -315q12 -219 12 -315v-28
q-1 -13 -1 -27h36q23 0 23 -14q0 -6 -4.5 -11.5t-9.5 -5.5h-54q-24 1 -61 1zM120.5 805q-5.5 4 -5.5 10q0 3 28 26l32 26l27 21q34 26 37 29q22 0 22 -15l-3 -16q-52 -24 -125 -85q-7 0 -12.5 4z" />
    <glyph glyph-name="Icircumflex" unicode="&#xce;" horiz-adv-x="270" 
d="M167 780q-5 64 -28 150q-4 -6 -34 -96q-8 -26 -8 -34l-17 -23l-19 13q1 15 18 57t37 77t29 35q15 0 15 -21q0 -33 18 -81l11 -36l-1 -6l8 -15l-1 -5q1 -4 2.5 -6.5t1.5 -4.5q0 -9 -18 -12zM82 5q-7 0 -12.5 5t-5.5 11q0 13 17 13h39q0 115 -7 290q-4 140 -8 220l1 51v66
q0 50 -2 64h-35q-10 0 -10 14q0 9 8 14q7 3 37 3h28q15 -1 38 -1q8 0 13 -3.5t5 -10.5q0 -6 -3 -11t-9 -5q-7 0 -12 1h-12h-10q-10 0 -12 -2l-2 -4q0 -78 13 -315q12 -219 12 -315v-28q-1 -13 -1 -27h36q23 0 23 -14q0 -6 -4.5 -11.5t-9.5 -5.5h-54q-24 1 -61 1z" />
    <glyph glyph-name="Idieresis" unicode="&#xcf;" horiz-adv-x="270" 
d="M186 816q-6 7 -6 15q0 9 7.5 17t16.5 8t15.5 -8t6.5 -16q0 -23 -26 -23q-8 0 -14 7zM53.5 813q-5.5 8 -5.5 17t7.5 17t16.5 8q10 0 15 -10t5 -23q0 -8 -7.5 -12.5t-17.5 -4.5q-8 0 -13.5 8zM82 5q-7 0 -12.5 5t-5.5 11q0 13 17 13h39q0 115 -7 290q-4 140 -8 220l1 51v66
q0 50 -2 64h-35q-10 0 -10 14q0 9 8 14q7 3 37 3h28q15 -1 38 -1q8 0 13 -3.5t5 -10.5q0 -6 -3 -11t-9 -5q-7 0 -12 1h-12h-10q-10 0 -12 -2l-2 -4q0 -78 13 -315q12 -219 12 -315v-28q-1 -13 -1 -27h36q23 0 23 -14q0 -6 -4.5 -11.5t-9.5 -5.5h-54q-24 1 -61 1z" />
    <glyph glyph-name="Eth" unicode="&#xd0;" horiz-adv-x="430" 
d="M136 -39q-8 2 -11.5 5t-6.5 10h-1q0 132 -9 318q-2 18 -2 26q-1 12 -3 28t-3 20q-11 0 -31 -3q-21 -3 -30 -3t-11.5 3.5t-2.5 13.5q0 18 62 18h9l4 2v2l1 3q0 20 -7 90q-7 56 -7 90l-2 60l-2 30q-4 52 -4 89q0 5 6 13t10 8q30 0 62.5 -17t59.5 -46q51 -54 84 -115v-2
q47 -133 47 -287q0 -67 -25 -139t-71 -133q-48 -63 -105 -88q-9 3 -11 4zM167 10q3 2 13 12l7 7q51 51 88 129.5t37 142.5q0 59 -1 85t-6 66q-4 37 -14 79q-17 81 -62.5 140.5t-113.5 79.5l-2 -2q0 -78 7.5 -207t16.5 -141q12 0 34 6q27 5 35 5t13.5 -7.5t7.5 -16.5l-10 -12
q-53 0 -82 -7q1 -31 3.5 -87t3.5 -62l-1 -1q0 -26 5 -108q5 -80 5 -108q9 2 16 7z" />
    <glyph glyph-name="Ntilde" unicode="&#xd1;" horiz-adv-x="380" 
d="M90.5 790.5q-6.5 5.5 -6.5 11.5q0 31 17 50t42 19t42 -20q8 -15 25 -27t32 -12q26 0 26 36l-2 10l-4 9q3 6 10 6q11 0 17 -10t6 -24q0 -21 -16 -37t-37 -16q-16 0 -34 10t-29 21q-8 7 -26 28l-7 3q-15 0 -26 -8t-11 -19l5 -21l-11 -15q-6 0 -12.5 5.5zM259 -4q-6 7 -8 16
l-3 19q-3 12 -3 15q-112 401 -123 450q-9 36 -41 200q-1 -6 -1 -41v-362l2 -143l2 -142l-6 -8h-23l-3 8q2 10 2 40l-1 174l-2 174v131v95q-1 42 -1 94q0 6 -1 11v10q0 12 6.5 16.5t20.5 4.5q6 0 13.5 -6t9.5 -13l21 -98q14 -70 24 -106q21 -83 72 -272q29 -124 52 -190
q6 15 6 48q0 97 2 174l2 174q0 43 1 78v77l-1 141q5 14 21 14q8 0 8 -29q0 -13 -1 -21q0 -8 -0.5 -11.5t-0.5 -4.5v-64q0 -133 -1 -237q-1 -105 -1 -236q0 -25 -3 -79l-2 -79q0 -29 -26 -29q-7 0 -13 7z" />
    <glyph glyph-name="Ograve" unicode="&#xd2;" horiz-adv-x="368" 
d="M151 813.5q-31 17.5 -48 27.5l-16 1q-30 6 -30 23t10 24l6 -2q30 -4 36 -17q0 -1 12 -6l36 -22q22 -14 37 -26q16 -13 16 -21q0 -7 -13 -7q-15 8 -46 25.5zM61 460v40q0 84 10 146q6 39 16.5 64t28.5 40q17 17 44 17q24 0 44 -9.5t33 -24.5q11 -14 20 -37t14 -44l8 -47
q24 -171 24 -303v-3q0 -50 -2 -92q-2 -50 -11 -105q-4 -27 -11.5 -47t-19.5 -40q-21 -36 -59 -36q-139 0 -139 481zM231 25.5q13 18.5 20 51.5q16 70 20 137q2 54 2 105v4l-1 100q-2 54 -12 140q-8 61 -33 125q-10 25 -26.5 39t-35.5 14q-17 0 -30 -16t-21 -45
q-18 -67 -20 -124q-3 -49 -3 -101v-49q0 -67 13 -170q8 -65 20 -113t32 -81q20 -35 46 -35q16 0 29 18.5z" />
    <glyph glyph-name="Oacute" unicode="&#xd3;" horiz-adv-x="368" 
d="M61 460v40q0 84 10 146q6 39 16.5 64t28.5 40q17 17 44 17q24 0 44 -9.5t33 -24.5q11 -14 20 -37t14 -44l8 -47q24 -171 24 -303v-3q0 -50 -2 -92q-2 -50 -11 -105q-4 -27 -11.5 -47t-19.5 -40q-21 -36 -59 -36q-139 0 -139 481zM231 25.5q13 18.5 20 51.5q16 70 20 137
q2 54 2 105v4l-1 100q-2 54 -12 140q-8 61 -33 125q-10 25 -26.5 39t-35.5 14q-17 0 -30 -16t-21 -45q-18 -67 -20 -124q-3 -49 -3 -101v-49q0 -67 13 -170q8 -65 20 -113t32 -81q20 -35 46 -35q16 0 29 18.5zM145.5 820q-5.5 4 -5.5 10q0 3 28 26l32 26l27 21q34 26 37 29
q22 0 22 -15l-3 -16q-52 -24 -125 -85q-7 0 -12.5 4z" />
    <glyph glyph-name="Ocircumflex" unicode="&#xd4;" horiz-adv-x="368" 
d="M192 795q-5 64 -28 150q-4 -6 -34 -96q-8 -26 -8 -34l-17 -23l-19 13q1 15 18 57t37 77t29 35q15 0 15 -21q0 -33 18 -81l11 -36l-1 -6l8 -15l-1 -5q1 -4 2.5 -6.5t1.5 -4.5q0 -9 -18 -12zM61 460v40q0 84 10 146q6 39 16.5 64t28.5 40q17 17 44 17q24 0 44 -9.5
t33 -24.5q11 -14 20 -37t14 -44l8 -47q24 -171 24 -303v-3q0 -50 -2 -92q-2 -50 -11 -105q-4 -27 -11.5 -47t-19.5 -40q-21 -36 -59 -36q-139 0 -139 481zM231 25.5q13 18.5 20 51.5q16 70 20 137q2 54 2 105v4l-1 100q-2 54 -12 140q-8 61 -33 125q-10 25 -26.5 39
t-35.5 14q-17 0 -30 -16t-21 -45q-18 -67 -20 -124q-3 -49 -3 -101v-49q0 -67 13 -170q8 -65 20 -113t32 -81q20 -35 46 -35q16 0 29 18.5z" />
    <glyph glyph-name="Otilde" unicode="&#xd5;" horiz-adv-x="368" 
d="M60.5 805.5q-6.5 5.5 -6.5 11.5q0 31 17 50t42 19t42 -20q8 -15 25 -27t32 -12q26 0 26 36l-2 10l-4 9q3 6 10 6q11 0 17 -10t6 -24q0 -21 -16 -37t-37 -16q-16 0 -34 10t-29 21q-8 7 -26 28l-7 3q-15 0 -26 -8t-11 -19l5 -21l-11 -15q-6 0 -12.5 5.5zM61 460v40
q0 84 10 146q6 39 16.5 64t28.5 40q17 17 44 17q24 0 44 -9.5t33 -24.5q11 -14 20 -37t14 -44l8 -47q24 -171 24 -303v-3q0 -50 -2 -92q-2 -50 -11 -105q-4 -27 -11.5 -47t-19.5 -40q-21 -36 -59 -36q-139 0 -139 481zM231 25.5q13 18.5 20 51.5q16 70 20 137q2 54 2 105v4
l-1 100q-2 54 -12 140q-8 61 -33 125q-10 25 -26.5 39t-35.5 14q-17 0 -30 -16t-21 -45q-18 -67 -20 -124q-3 -49 -3 -101v-49q0 -67 13 -170q8 -65 20 -113t32 -81q20 -35 46 -35q16 0 29 18.5z" />
    <glyph glyph-name="Odieresis" unicode="&#xd6;" horiz-adv-x="368" 
d="M211 831q-6 7 -6 15q0 9 7.5 17t16.5 8t15.5 -8t6.5 -16q0 -23 -26 -23q-8 0 -14 7zM78.5 828q-5.5 8 -5.5 17t7.5 17t16.5 8q10 0 15 -10t5 -23q0 -8 -7.5 -12.5t-17.5 -4.5q-8 0 -13.5 8zM61 460v40q0 84 10 146q6 39 16.5 64t28.5 40q17 17 44 17q24 0 44 -9.5
t33 -24.5q11 -14 20 -37t14 -44l8 -47q24 -171 24 -303v-3q0 -50 -2 -92q-2 -50 -11 -105q-4 -27 -11.5 -47t-19.5 -40q-21 -36 -59 -36q-139 0 -139 481zM231 25.5q13 18.5 20 51.5q16 70 20 137q2 54 2 105v4l-1 100q-2 54 -12 140q-8 61 -33 125q-10 25 -26.5 39
t-35.5 14q-17 0 -30 -16t-21 -45q-18 -67 -20 -124q-3 -49 -3 -101v-49q0 -67 13 -170q8 -65 20 -113t32 -81q20 -35 46 -35q16 0 29 18.5z" />
    <glyph glyph-name="multiply" unicode="&#xd7;" horiz-adv-x="361" 
d="M258 210l-22 21q-4 3 -20 21q-11 14 -23 24q-9 9 -15 9q-8 0 -18 -9t-17 -22q-23 -31 -39 -31q-6 0 -13 5t-7 10q0 4 8 12q12 12 21 19q11 9 17 15.5t13 15.5q8 13 8 16q-11 11 -31 27q-3 2 -37 33q-15 15 -15 23q0 5 7 12.5t13 7.5q7 0 12 -5l5 -10q61 -62 75 -62
q10 0 25 17q4 4 17.5 20t24.5 24.5t18 8.5q5 0 10 -5t5 -10q0 -6 -10 -17t-23 -23.5t-20 -18.5q-18 -15 -18 -24q0 -8 12 -20t29 -23q40 -28 40 -41q0 -9 -7 -16t-18 -7q-4 0 -7 3z" />
    <glyph glyph-name="Oslash" unicode="&#xd8;" horiz-adv-x="318" 
d="M62 -117q1 15 4.5 34.5t10.5 50.5q4 17 14 86q0 8 -4 19q-2 6 -5 17q-21 131 -21 375v63q0 238 73 238q5 0 15 -5q10 -6 14 -6l4 2l5 -5q10 27 17 73q4 21 6 34.5t3 18.5h18l-1 -29l-21 -121q0 -12 15 -29l-1 -2q1 -9 10 -22q5 -7 5 -8q11 -28 11 -67l-2 -1q0 -25 8 -92
q7 -57 7 -92v-6l2 -3l2 -95q1 -42 1 -94q0 -35 -1 -64q-2 -36 -11 -75q-7 -34 -30 -61q-19 -27 -57 -27q-34 0 -49 20h-1q-5 -34 -26 -139zM112 181q6 48 17 151l9 82l2 22q2 18 4.5 42t4.5 54l4 45l2 22l5 35q7 54 7 77q0 12 -10 20t-22 8l-4 -1l-7 -3l-5 -2l-6 2
q-31 -19 -31 -319v-6q0 -45 9 -66q0 -34 6 -105q6 -70 6 -105q3 3 9 47zM226 195q0 413 -36 483q-13 -85 -30 -279q-16 -193 -36 -294q-7 -44 -7 -47q0 -25 10 -36t34 -11q65 0 65 184z" />
    <glyph glyph-name="Ugrave" unicode="&#xd9;" horiz-adv-x="372" 
d="M148 798.5q-31 17.5 -48 27.5l-16 1q-30 6 -30 23t10 24l6 -2q30 -4 36 -17q0 -1 12 -6l36 -22q22 -14 37 -26q16 -13 16 -21q0 -7 -13 -7q-15 8 -46 25.5zM164 -9q-20 10 -33 26q-13 15 -23 37t-16 44q-10 34 -15 85l-2 31q0 10 -0.5 13t-0.5 4q-5 49 -12.5 216
t-7.5 260v7v8q0 26 15 26q21 0 21 -24v-7l-1 -8q0 -116 7 -274.5t14 -228.5q5 -44 17 -90q8 -31 17.5 -52t24.5 -35q18 -16 35 -16t30.5 8t20.5 21q7 11 11.5 28.5t5.5 33.5q1 10 1 33v114q0 76 -4 187l-4 128l-2 85q-3 56 -3 85q0 11 6 17t14 6t13.5 -6t5.5 -17v-76
q0 -50 1 -90v-90q0 -97 2 -170q1 -74 1 -166q0 -25 -2 -44t-8 -40q-6 -24 -16.5 -40.5t-27.5 -27.5q-19 -11 -42 -11t-43 10z" />
    <glyph glyph-name="Uacute" unicode="&#xda;" horiz-adv-x="372" 
d="M164 -9q-20 10 -33 26q-13 15 -23 37t-16 44q-10 34 -15 85l-2 31q0 10 -0.5 13t-0.5 4q-5 49 -12.5 216t-7.5 260v7v8q0 26 15 26q21 0 21 -24v-7l-1 -8q0 -116 7 -274.5t14 -228.5q5 -44 17 -90q8 -31 17.5 -52t24.5 -35q18 -16 35 -16t30.5 8t20.5 21q7 11 11.5 28.5
t5.5 33.5q1 10 1 33v114q0 76 -4 187l-4 128l-2 85q-3 56 -3 85q0 11 6 17t14 6t13.5 -6t5.5 -17v-76q0 -50 1 -90v-90q0 -97 2 -170q1 -74 1 -166q0 -25 -2 -44t-8 -40q-6 -24 -16.5 -40.5t-27.5 -27.5q-19 -11 -42 -11t-43 10zM142.5 805q-5.5 4 -5.5 10q0 3 28 26l32 26
l27 21q34 26 37 29q22 0 22 -15l-3 -16q-52 -24 -125 -85q-7 0 -12.5 4z" />
    <glyph glyph-name="Ucircumflex" unicode="&#xdb;" horiz-adv-x="372" 
d="M189 780q-5 64 -28 150q-4 -6 -34 -96q-8 -26 -8 -34l-17 -23l-19 13q1 15 18 57t37 77t29 35q15 0 15 -21q0 -33 18 -81l11 -36l-1 -6l8 -15l-1 -5q1 -4 2.5 -6.5t1.5 -4.5q0 -9 -18 -12zM164 -9q-20 10 -33 26q-13 15 -23 37t-16 44q-10 34 -15 85l-2 31q0 10 -0.5 13
t-0.5 4q-5 49 -12.5 216t-7.5 260v7v8q0 26 15 26q21 0 21 -24v-7l-1 -8q0 -116 7 -274.5t14 -228.5q5 -44 17 -90q8 -31 17.5 -52t24.5 -35q18 -16 35 -16t30.5 8t20.5 21q7 11 11.5 28.5t5.5 33.5q1 10 1 33v114q0 76 -4 187l-4 128l-2 85q-3 56 -3 85q0 11 6 17t14 6
t13.5 -6t5.5 -17v-76q0 -50 1 -90v-90q0 -97 2 -170q1 -74 1 -166q0 -25 -2 -44t-8 -40q-6 -24 -16.5 -40.5t-27.5 -27.5q-19 -11 -42 -11t-43 10z" />
    <glyph glyph-name="Udieresis" unicode="&#xdc;" horiz-adv-x="372" 
d="M208 816q-6 7 -6 15q0 9 7.5 17t16.5 8t15.5 -8t6.5 -16q0 -23 -26 -23q-8 0 -14 7zM75.5 813q-5.5 8 -5.5 17t7.5 17t16.5 8q10 0 15 -10t5 -23q0 -8 -7.5 -12.5t-17.5 -4.5q-8 0 -13.5 8zM164 -9q-20 10 -33 26q-13 15 -23 37t-16 44q-10 34 -15 85l-2 31q0 10 -0.5 13
t-0.5 4q-5 49 -12.5 216t-7.5 260v7v8q0 26 15 26q21 0 21 -24v-7l-1 -8q0 -116 7 -274.5t14 -228.5q5 -44 17 -90q8 -31 17.5 -52t24.5 -35q18 -16 35 -16t30.5 8t20.5 21q7 11 11.5 28.5t5.5 33.5q1 10 1 33v114q0 76 -4 187l-4 128l-2 85q-3 56 -3 85q0 11 6 17t14 6
t13.5 -6t5.5 -17v-76q0 -50 1 -90v-90q0 -97 2 -170q1 -74 1 -166q0 -25 -2 -44t-8 -40q-6 -24 -16.5 -40.5t-27.5 -27.5q-19 -11 -42 -11t-43 10z" />
    <glyph glyph-name="Yacute" unicode="&#xdd;" horiz-adv-x="252" 
d="M119 -4.5q-4 7.5 -4 16.5q0 32 3 96l2 97q0 14 -3 41q-4 24 -4 40q0 17 -6 47q-6 32 -6 46q0 12 -10 57q-3 9 -4 14.5t-2 7.5q-4 28 -13 69q-17 93 -33 147q-15 48 -15 65q0 7 6 11.5t14 4.5l12 -8q3 -45 27 -160.5t36 -132.5q2 5 10 87q7 73 20 145q12 66 29 66
q5 0 8 -0.5t5 -2.5t2 -8q0 -9 -4 -21l-4 -20l-26 -149q-5 -29 -9 -71.5t-4 -74.5q0 -9 1 -16q1 -8 1 -17l-6 -15v-8l2 -39l2 -21q3 -40 3 -60q0 -158 -2 -202l3 -3q0 -2 1 -3v-4q0 -12 -5.5 -20.5t-16.5 -8.5q-6 0 -10 7.5zM91.5 805q-5.5 4 -5.5 10q0 3 28 26l32 26l27 21
q34 26 37 29q22 0 22 -15l-3 -16q-52 -24 -125 -85q-7 0 -12.5 4z" />
    <glyph glyph-name="Thorn" unicode="&#xde;" horiz-adv-x="318" 
d="M86 29q0 41 1 63v63q0 38 -1 61l-1 62q0 56 -5 179q0 20 -2 48l-1 32l-2 34l-2 24q-4 41 -4 72l-1 14q0 2 0.5 8t0.5 19l1 32v5l-1 2q0 5 8 8q2 0 14 -3h2q2 -13 3 -66q0 -49 2 -67v-1q36 0 66.5 -11t50.5 -30q19 -18 32 -42t18 -50q5 -27 5 -52q0 -50 -22 -110t-53 -85
q-8 -5 -13 -7q-10 -4 -13 -7q-10 -6 -54 -16q0 -55 3 -91q3 -37 3 -92q0 -16 -4.5 -23.5t-17.5 -7.5t-13 35zM149 254.5q21 7.5 28 13.5q65 67 65 163q0 158 -140 158v-26q0 -54 6 -161q7 -122 7 -157q13 2 34 9.5z" />
    <glyph glyph-name="germandbls" unicode="&#xdf;" horiz-adv-x="352" 
d="M90 8l2 127q3 84 3 126q0 74 -4 179q-3 119 -3 178q0 132 76 132q38 0 59 -43.5t21 -113.5q0 -54 -16 -100t-48 -76q46 -24 71 -72.5t25 -113.5v-23q0 -38 -2.5 -61t-10.5 -49q-17 -56 -75 -85l-8 -2q-8 0 -14.5 4.5t-6.5 10.5q0 8 12 17q19 9 39.5 25t23.5 28
q14 26 14 80v5q0 62 -18 122q-9 32 -27.5 57t-42.5 36q-7 3 -11.5 10t-4.5 13q0 5 2 9t6 4q2 2 7 2q20 6 39.5 56.5t19.5 90.5q0 57 -16 97q-15 38 -37 38q-46 0 -46 -103q0 -50 2 -90l2 -90v-38l2 -186l2 -185q0 -30 -18 -30h-1q-18 0 -18 14z" />
    <glyph glyph-name="agrave" unicode="&#xe0;" horiz-adv-x="313" 
d="M250 -5.5q-4 3.5 -6 18.5q-9 73 -11 91l-5 40q-22 5 -50 5l-36 2q-24 3 -35 3q-6 0 -7 -5q0 -3 -1 -3l-2 -20q-1 -18 -11 -72q-5 -27 -12 -42q-8 -17 -15 -17q-6 0 -13 5.5t-7 11.5l1 3l1 3q18 71 30 141l12 62l12 76l11 66q5 27 18 87q14 68 17 93q1 3 4 37q4 38 7 56
q3 26 6 30h7q3 -1 7 -1q12 0 18 6q7 0 12.5 -4.5t5.5 -10.5q0 -48 7 -110q4 -32 6 -53q11 -129 56 -484v-3q0 -10 -8 -15q-15 0 -19 3.5zM223 171q-10 144 -38 425l-54 -267q-23 -115 -23 -145q0 -5 38 -9t67 -4h10zM170.5 721q-40.5 14 -44.5 17q-6 -2 -16 -2q-34 0 -34 20
q0 18 6 22h6q30 0 39 -11q0 -1 12 -4q10 -3 40 -15q24 -10 41 -19q19 -11 19 -19q0 -3 -4 -5.5t-8 -2.5q-16 5 -56.5 19z" />
    <glyph glyph-name="aacute" unicode="&#xe1;" horiz-adv-x="313" 
d="M250 -5.5q-4 3.5 -6 18.5q-9 73 -11 91l-5 40q-22 5 -50 5l-36 2q-24 3 -35 3q-6 0 -7 -5q0 -3 -1 -3l-2 -20q-1 -18 -11 -72q-5 -27 -12 -42q-8 -17 -15 -17q-6 0 -13 5.5t-7 11.5l1 3l1 3q18 71 30 141l12 62l12 76l11 66q5 27 18 87q14 68 17 93q1 3 4 37q4 38 7 56
q3 26 6 30h7q3 -1 7 -1q12 0 18 6q7 0 12.5 -4.5t5.5 -10.5q0 -48 7 -110q4 -32 6 -53q11 -129 56 -484v-3q0 -10 -8 -15q-15 0 -19 3.5zM223 171q-10 144 -38 425l-54 -267q-23 -115 -23 -145q0 -5 38 -9t67 -4h10zM173.5 697q-5.5 4 -5.5 10q0 3 28 26l32 26l27 21
q34 26 37 29q22 0 22 -15l-3 -16q-52 -24 -125 -85q-7 0 -12.5 4z" />
    <glyph glyph-name="acircumflex" unicode="&#xe2;" horiz-adv-x="313" 
d="M223 682q-5 64 -28 150q-4 -6 -34 -96q-8 -26 -8 -34l-17 -23l-19 13q1 15 18 57t37 77t29 35q15 0 15 -21q0 -33 18 -81l11 -36l-1 -6l8 -15l-1 -5q1 -4 2.5 -6.5t1.5 -4.5q0 -9 -18 -12zM250 -5.5q-4 3.5 -6 18.5q-9 73 -11 91l-5 40q-22 5 -50 5l-36 2q-24 3 -35 3
q-6 0 -7 -5q0 -3 -1 -3l-2 -20q-1 -18 -11 -72q-5 -27 -12 -42q-8 -17 -15 -17q-6 0 -13 5.5t-7 11.5l1 3l1 3q18 71 30 141l12 62l12 76l11 66q5 27 18 87q14 68 17 93q1 3 4 37q4 38 7 56q3 26 6 30h7q3 -1 7 -1q12 0 18 6q7 0 12.5 -4.5t5.5 -10.5q0 -48 7 -110
q4 -32 6 -53q11 -129 56 -484v-3q0 -10 -8 -15q-15 0 -19 3.5zM223 171q-10 144 -38 425l-54 -267q-23 -115 -23 -145q0 -5 38 -9t67 -4h10z" />
    <glyph glyph-name="atilde" unicode="&#xe3;" horiz-adv-x="313" 
d="M86.5 697.5q-6.5 5.5 -6.5 11.5q0 31 17 50t42 19t42 -20q8 -15 25 -27t32 -12q26 0 26 36l-2 10l-4 9q3 6 10 6q11 0 17 -10t6 -24q0 -21 -16 -37t-37 -16q-16 0 -34 10t-29 21q-8 7 -26 28l-7 3q-15 0 -26 -8t-11 -19l5 -21l-11 -15q-6 0 -12.5 5.5zM250 -5.5
q-4 3.5 -6 18.5q-9 73 -11 91l-5 40q-22 5 -50 5l-36 2q-24 3 -35 3q-6 0 -7 -5q0 -3 -1 -3l-2 -20q-1 -18 -11 -72q-5 -27 -12 -42q-8 -17 -15 -17q-6 0 -13 5.5t-7 11.5l1 3l1 3q18 71 30 141l12 62l12 76l11 66q5 27 18 87q14 68 17 93q1 3 4 37q4 38 7 56q3 26 6 30h7
q3 -1 7 -1q12 0 18 6q7 0 12.5 -4.5t5.5 -10.5q0 -48 7 -110q4 -32 6 -53q11 -129 56 -484v-3q0 -10 -8 -15q-15 0 -19 3.5zM223 171q-10 144 -38 425l-54 -267q-23 -115 -23 -145q0 -5 38 -9t67 -4h10z" />
    <glyph glyph-name="adieresis" unicode="&#xe4;" horiz-adv-x="313" 
d="M250 -5.5q-4 3.5 -6 18.5q-9 73 -11 91l-5 40q-22 5 -50 5l-36 2q-24 3 -35 3q-6 0 -7 -5q0 -3 -1 -3l-2 -20q-1 -18 -11 -72q-5 -27 -12 -42q-8 -17 -15 -17q-6 0 -13 5.5t-7 11.5l1 3l1 3q18 71 30 141l12 62l12 76l11 66q5 27 18 87q14 68 17 93q1 3 4 37q4 38 7 56
q3 26 6 30h7q3 -1 7 -1q12 0 18 6q7 0 12.5 -4.5t5.5 -10.5q0 -48 7 -110q4 -32 6 -53q11 -129 56 -484v-3q0 -10 -8 -15q-15 0 -19 3.5zM223 171q-10 144 -38 425l-54 -267q-23 -115 -23 -145q0 -5 38 -9t67 -4h10zM237 747q-6 7 -6 15q0 9 7.5 17t16.5 8t15.5 -8t6.5 -16
q0 -23 -26 -23q-8 0 -14 7zM104.5 744q-5.5 8 -5.5 17t7.5 17t16.5 8q10 0 15 -10t5 -23q0 -8 -7.5 -12.5t-17.5 -4.5q-8 0 -13.5 8z" />
    <glyph glyph-name="aring" unicode="&#xe5;" horiz-adv-x="313" 
d="M144 699.5q-15 16.5 -15 36.5q0 23 18 42.5t40 19.5q19 0 37 -19t18 -39q0 -27 -17.5 -42t-46.5 -15q-19 0 -34 16.5zM201.5 710.5q14.5 8.5 14.5 19.5q0 20 -7.5 34.5t-21.5 14.5q-12 0 -23.5 -12.5t-11.5 -25.5q0 -20 8 -31q5 -8 14 -8q13 0 27.5 8.5zM250 -5.5
q-4 3.5 -6 18.5q-9 73 -11 91l-5 40q-22 5 -50 5l-36 2q-24 3 -35 3q-6 0 -7 -5q0 -3 -1 -3l-2 -20q-1 -18 -11 -72q-5 -27 -12 -42q-8 -17 -15 -17q-6 0 -13 5.5t-7 11.5l1 3l1 3q18 71 30 141l12 62l12 76l11 66q5 27 18 87q14 68 17 93q1 3 4 37q4 38 7 56q3 26 6 30h7
q3 -1 7 -1q12 0 18 6q7 0 12.5 -4.5t5.5 -10.5q0 -48 7 -110q4 -32 6 -53q11 -129 56 -484v-3q0 -10 -8 -15q-15 0 -19 3.5zM223 171q-10 144 -38 425l-54 -267q-23 -115 -23 -145q0 -5 38 -9t67 -4h10z" />
    <glyph glyph-name="ae" unicode="&#xe6;" horiz-adv-x="403" 
d="M222 7q8 41 8 105l-2 91l-2 90l-6 7q-3 -2 -31 -3q-21 -1 -48 -5q-22 -3 -24 -9l-50 -181q-2 -9 -7.5 -37t-11.5 -44q-8 -20 -16 -20q-3 0 -5.5 4.5t-2.5 7.5q1 43 40 198q50 160 131 373l2 6l1 2v2q18 64 43 64q21 0 38 1h39q32 0 32 -16l-7 -12h-50q-28 0 -48 -2
q0 -42 1 -76l2 -77v-71q1 -31 1 -72l4 -6q30 10 80 10l13 -17q0 -17 -71 -17h-26q0 -63 1 -114q2 -50 2 -114v-20q-1 -10 -1 -21q0 -17 9 -17q15 0 57 5q38 6 57 6q8 0 15 -3.5t7 -9.5q0 -11 -30 -14q-40 -4 -65 -4q-37 -2 -42 -4q-2 1 -8 1h-6q-4 -1 -9 -1zM225 326v137v33
q1 15 1 34v38l-1 36q-9 -9 -53.5 -139t-46.5 -151q43 0 100 12z" />
    <glyph glyph-name="ccedilla" unicode="&#xe7;" horiz-adv-x="285" 
d="M146 -7q-19 6 -32.5 17t-25.5 33q-21 40 -25 115q-2 34 -2 60v114q0 65 4 126q3 45 9 76t19 62q14 32 31 45q7 6 27 14q13 5 25 11h40h3q1 -1 3 -1l5 -1l4 -3q3 -3 3 -4q1 -2 1 -6l-13 -15h-42q-19 0 -34.5 -18.5t-23.5 -46.5q-8 -25 -13 -59t-6 -59q-2 -32 -2 -44l-2 -5
q0 -56 -2 -101l-2 -101q0 -44 6 -81q5 -40 29 -72q23 -32 71 -32q15 0 25 9q15 0 15 -11q0 -7 -12.5 -16.5t-25.5 -14.5h-33zM121.5 -211.5q-13.5 7.5 -13.5 19.5q0 10 11 10q4 0 16 -5t16 -5q17 0 28 20.5t11 48.5q0 33 -15 45l-13 -2l-14 -2q-15 0 -27 20q8 21 8 58v11
l29 4q-4 -30 -4 -51q73 -4 73 -100q0 -16 -10.5 -34.5t-28.5 -31.5t-37 -13q-16 0 -29.5 7.5z" />
    <glyph glyph-name="egrave" unicode="&#xe8;" horiz-adv-x="256" 
d="M71 8v13q1 5 1 12l-4 4q8 21 8 41q0 23 -3 66l-2 66q0 50 3 150q4 89 4 151l-2 60q-2 27 -2 60q0 15 7 21.5t22 6.5q10 0 16 -6q2 -1 29 -4q25 -3 43 -9q19 -6 19 -15q0 -10 -19 -20q-57 19 -81 19l-5 -6q1 -9 1 -43q0 -43 -2 -77q-1 -35 -1 -78q0 -28 14 -28l16 1
q8 1 17 1q39 0 39 -18q0 -11 -5 -18.5t-15 -7.5q-15 0 -23 8l-32 5h-5l-5 -5v-3q2 -17 2 -79q0 -39 -1 -71l-1 -71q0 -39 3 -80q1 -23 10 -30.5t33 -7.5l18 1q9 1 20 1q29 0 29 -13q0 -18 -44 -18h-82q-18 0 -20 21zM124.5 712q-40.5 14 -44.5 17q-6 -2 -16 -2q-34 0 -34 20
q0 18 6 22h6q30 0 39 -11q0 -1 12 -4q10 -3 40 -15q24 -10 41 -19q19 -11 19 -19q0 -3 -4 -5.5t-8 -2.5q-16 5 -56.5 19z" />
    <glyph glyph-name="eacute" unicode="&#xe9;" horiz-adv-x="256" 
d="M71 8v13q1 5 1 12l-4 4q8 21 8 41q0 23 -3 66l-2 66q0 50 3 150q4 89 4 151l-2 60q-2 27 -2 60q0 15 7 21.5t22 6.5q10 0 16 -6q2 -1 29 -4q25 -3 43 -9q19 -6 19 -15q0 -10 -19 -20q-57 19 -81 19l-5 -6q1 -9 1 -43q0 -43 -2 -77q-1 -35 -1 -78q0 -28 14 -28l16 1
q8 1 17 1q39 0 39 -18q0 -11 -5 -18.5t-15 -7.5q-15 0 -23 8l-32 5h-5l-5 -5v-3q2 -17 2 -79q0 -39 -1 -71l-1 -71q0 -39 3 -80q1 -23 10 -30.5t33 -7.5l18 1q9 1 20 1q29 0 29 -13q0 -18 -44 -18h-82q-18 0 -20 21zM127.5 688q-5.5 4 -5.5 10q0 3 28 26l32 26l27 21
q34 26 37 29q22 0 22 -15l-3 -16q-52 -24 -125 -85q-7 0 -12.5 4z" />
    <glyph glyph-name="ecircumflex" unicode="&#xea;" horiz-adv-x="256" 
d="M177 673q-5 64 -28 150q-4 -6 -34 -96q-8 -26 -8 -34l-17 -23l-19 13q1 15 18 57t37 77t29 35q15 0 15 -21q0 -33 18 -81l11 -36l-1 -6l8 -15l-1 -5q1 -4 2.5 -6.5t1.5 -4.5q0 -9 -18 -12zM71 8v13q1 5 1 12l-4 4q8 21 8 41q0 23 -3 66l-2 66q0 50 3 150q4 89 4 151
l-2 60q-2 27 -2 60q0 15 7 21.5t22 6.5q10 0 16 -6q2 -1 29 -4q25 -3 43 -9q19 -6 19 -15q0 -10 -19 -20q-57 19 -81 19l-5 -6q1 -9 1 -43q0 -43 -2 -77q-1 -35 -1 -78q0 -28 14 -28l16 1q8 1 17 1q39 0 39 -18q0 -11 -5 -18.5t-15 -7.5q-15 0 -23 8l-32 5h-5l-5 -5v-3
q2 -17 2 -79q0 -39 -1 -71l-1 -71q0 -39 3 -80q1 -23 10 -30.5t33 -7.5l18 1q9 1 20 1q29 0 29 -13q0 -18 -44 -18h-82q-18 0 -20 21z" />
    <glyph glyph-name="edieresis" unicode="&#xeb;" horiz-adv-x="256" 
d="M71 8v13q1 5 1 12l-4 4q8 21 8 41q0 23 -3 66l-2 66q0 50 3 150q4 89 4 151l-2 60q-2 27 -2 60q0 15 7 21.5t22 6.5q10 0 16 -6q2 -1 29 -4q25 -3 43 -9q19 -6 19 -15q0 -10 -19 -20q-57 19 -81 19l-5 -6q1 -9 1 -43q0 -43 -2 -77q-1 -35 -1 -78q0 -28 14 -28l16 1
q8 1 17 1q39 0 39 -18q0 -11 -5 -18.5t-15 -7.5q-15 0 -23 8l-32 5h-5l-5 -5v-3q2 -17 2 -79q0 -39 -1 -71l-1 -71q0 -39 3 -80q1 -23 10 -30.5t33 -7.5l18 1q9 1 20 1q29 0 29 -13q0 -18 -44 -18h-82q-18 0 -20 21zM191 738q-6 7 -6 15q0 9 7.5 17t16.5 8t15.5 -8t6.5 -16
q0 -23 -26 -23q-8 0 -14 7zM58.5 735q-5.5 8 -5.5 17t7.5 17t16.5 8q10 0 15 -10t5 -23q0 -8 -7.5 -12.5t-17.5 -4.5q-8 0 -13.5 8z" />
    <glyph glyph-name="igrave" unicode="&#xec;" horiz-adv-x="237" 
d="M99 10q-5 0 -8 -1h-8q-22 0 -28 10q0 7 8 12l5 5h29l4 4l2 9l1 12q0 61 -3 109l-2 37l-2 73q0 39 3 117l2 116q0 76 -5 116q-9 3 -30 3l-11 -1q-6 -1 -13 -1q-19 0 -19 17q0 4 9 8t15 4q38 0 76 -4q23 -1 46 -9q18 -6 18 -17q0 -2 -3 -8l-23 -2q-7 6 -29 6l-5 -3
q3 -9 3 -53q0 -66 -1 -119l-2 -119q0 -45 4 -109q3 -73 3 -110v-13q-1 -7 -1 -18q0 -23 3 -28l-1 -2q0 -10 22 -10q9 0 15 1h15q29 0 29 -14q0 -9 -6 -14.5t-16 -5.5q-9 0 -16 2q-8 1 -17 1q-6 0 -18 -5q-12 -6 -18 -6q-23 0 -27 10zM108.5 712q-40.5 14 -44.5 17
q-6 -2 -16 -2q-34 0 -34 20q0 18 6 22h6q30 0 39 -11q0 -1 12 -4q10 -3 40 -15q24 -10 41 -19q19 -11 19 -19q0 -3 -4 -5.5t-8 -2.5q-16 5 -56.5 19z" />
    <glyph glyph-name="iacute" unicode="&#xed;" horiz-adv-x="237" 
d="M99 10q-5 0 -8 -1h-8q-22 0 -28 10q0 7 8 12l5 5h29l4 4l2 9l1 12q0 61 -3 109l-2 37l-2 73q0 39 3 117l2 116q0 76 -5 116q-9 3 -30 3l-11 -1q-6 -1 -13 -1q-19 0 -19 17q0 4 9 8t15 4q38 0 76 -4q23 -1 46 -9q18 -6 18 -17q0 -2 -3 -8l-23 -2q-7 6 -29 6l-5 -3
q3 -9 3 -53q0 -66 -1 -119l-2 -119q0 -45 4 -109q3 -73 3 -110v-13q-1 -7 -1 -18q0 -23 3 -28l-1 -2q0 -10 22 -10q9 0 15 1h15q29 0 29 -14q0 -9 -6 -14.5t-16 -5.5q-9 0 -16 2q-8 1 -17 1q-6 0 -18 -5q-12 -6 -18 -6q-23 0 -27 10zM111.5 688q-5.5 4 -5.5 10q0 3 28 26
l32 26l27 21q34 26 37 29q22 0 22 -15l-3 -16q-52 -24 -125 -85q-7 0 -12.5 4z" />
    <glyph glyph-name="icircumflex" unicode="&#xee;" horiz-adv-x="237" 
d="M161 673q-5 64 -28 150q-4 -6 -34 -96q-8 -26 -8 -34l-17 -23l-19 13q1 15 18 57t37 77t29 35q15 0 15 -21q0 -33 18 -81l11 -36l-1 -6l8 -15l-1 -5q1 -4 2.5 -6.5t1.5 -4.5q0 -9 -18 -12zM99 10q-5 0 -8 -1h-8q-22 0 -28 10q0 7 8 12l5 5h29l4 4l2 9l1 12q0 61 -3 109
l-2 37l-2 73q0 39 3 117l2 116q0 76 -5 116q-9 3 -30 3l-11 -1q-6 -1 -13 -1q-19 0 -19 17q0 4 9 8t15 4q38 0 76 -4q23 -1 46 -9q18 -6 18 -17q0 -2 -3 -8l-23 -2q-7 6 -29 6l-5 -3q3 -9 3 -53q0 -66 -1 -119l-2 -119q0 -45 4 -109q3 -73 3 -110v-13q-1 -7 -1 -18
q0 -23 3 -28l-1 -2q0 -10 22 -10q9 0 15 1h15q29 0 29 -14q0 -9 -6 -14.5t-16 -5.5q-9 0 -16 2q-8 1 -17 1q-6 0 -18 -5q-12 -6 -18 -6q-23 0 -27 10z" />
    <glyph glyph-name="idieresis" unicode="&#xef;" horiz-adv-x="237" 
d="M99 10q-5 0 -8 -1h-8q-22 0 -28 10q0 7 8 12l5 5h29l4 4l2 9l1 12q0 61 -3 109l-2 37l-2 73q0 39 3 117l2 116q0 76 -5 116q-9 3 -30 3l-11 -1q-6 -1 -13 -1q-19 0 -19 17q0 4 9 8t15 4q38 0 76 -4q23 -1 46 -9q18 -6 18 -17q0 -2 -3 -8l-23 -2q-7 6 -29 6l-5 -3
q3 -9 3 -53q0 -66 -1 -119l-2 -119q0 -45 4 -109q3 -73 3 -110v-13q-1 -7 -1 -18q0 -23 3 -28l-1 -2q0 -10 22 -10q9 0 15 1h15q29 0 29 -14q0 -9 -6 -14.5t-16 -5.5q-9 0 -16 2q-8 1 -17 1q-6 0 -18 -5q-12 -6 -18 -6q-23 0 -27 10zM175 738q-6 7 -6 15q0 9 7.5 17t16.5 8
t15.5 -8t6.5 -16q0 -23 -26 -23q-8 0 -14 7zM42.5 735q-5.5 8 -5.5 17t7.5 17t16.5 8q10 0 15 -10t5 -23q0 -8 -7.5 -12.5t-17.5 -4.5q-8 0 -13.5 8z" />
    <glyph glyph-name="eth" unicode="&#xf0;" horiz-adv-x="332" 
d="M105 6q-7 9 -11 22.5t-5 25.5q-2 18 -2 29q0 45 2 90q2 47 12 121q7 55 31 106q21 46 59 46q11 0 22 -8q-3 113 -16 191q-56 -6 -72 -6q-5 0 -5 4q0 14 11 14q26 0 64 5q-11 70 -29 85q-11 5 -13 6q-22 11 -22 20q0 3 4.5 6t7.5 3q52 0 77 -117l40 2q6 0 6 -5l-1 -5
q0 -4 -43 -8q17 -96 17 -235v-4q0 -115 -5 -214q-3 -18 -5 -75q-4 -52 -18 -81q-7 -17 -21.5 -27.5t-33.5 -10.5q-34 0 -51 20zM178 16q6 5 9 9.5t4 13.5q2 8 5 28q0 7 0.5 10t0.5 4q16 127 16 274v57q-8 7 -30 12q-16 0 -28.5 -20t-20.5 -56q-17 -88 -19 -150
q-4 -76 -4 -113q0 -79 37 -79q21 0 30 10z" />
    <glyph glyph-name="ntilde" unicode="&#xf1;" horiz-adv-x="460" 
d="M130.5 688.5q-6.5 5.5 -6.5 11.5q0 31 17 50t42 19t42 -20q8 -15 25 -27t32 -12q26 0 26 36l-2 10l-4 9q3 6 10 6q11 0 17 -10t6 -24q0 -21 -16 -37t-37 -16q-16 0 -34 10t-29 21q-8 7 -26 28l-7 3q-15 0 -26 -8t-11 -19l5 -21l-11 -15q-6 0 -12.5 5.5zM315.5 2
q-3.5 6 -6.5 18q-1 8 -4 14l1 3q-8 47 -34 115l-18 52q-2 2 -19 51l-8 24q-90 278 -113 301q-8 -27 -8 -70q0 -23 1 -40l1 -39l-1 -24q-1 -11 -1 -24q0 -22 2 -38l2 -32h-3q0 -167 7 -184v-90q4 -8 4 -21q0 -8 -5.5 -14t-13.5 -6q-21 0 -21 54l2 32q2 15 2 33q0 48 -3 144
t-3 144q0 29 3 89q3 59 3 88v13q0 49 18 64l3 -3l10 2q4 -1 9 -6q4 -4 4 -9l2 -6q0 -2 0.5 -3.5l0.5 -1.5q16 -71 72 -199q57 -135 71 -179q10 -35 16 -62q19 -85 45 -131l2 3q23 222 23 545l-1 12q-1 5 -1 13q0 21 14 21q9 0 15.5 -9t6.5 -20v-67l-5 -8q0 -95 -11 -312
t-21 -236l-17 -4v-1l-1 1l-10 -3q-8 0 -11.5 6z" />
    <glyph glyph-name="ograve" unicode="&#xf2;" horiz-adv-x="346" 
d="M59 349v35q0 279 72 279q5 0 14 -3q32 -11 63 -14q19 -4 38 -39q21 -36 31.5 -95t10.5 -121l-2 -5q0 -33 1 -59l1 -60q0 -51 -4 -92q-6 -62 -20 -107q-9 -27 -20.5 -45t-28.5 -30q-16 -12 -39 -12q-117 0 -117 368zM230 65q19 56 23 114q4 60 4 96q0 40 -6 118
q-5 87 -5 118l-4 8l2 5q0 44 -24.5 76t-59.5 32q-46 0 -55 -44q-2 -15 -4 -43q0 -74 -6 -101q0 -15 -3 -47l-2 -47q0 -22 1 -39l1 -40q0 -47 8 -108q6 -45 14 -76t23 -53q15 -24 35 -24q39 0 58 55zM157.5 712q-40.5 14 -44.5 17q-6 -2 -16 -2q-34 0 -34 20q0 18 6 22h6
q30 0 39 -11q0 -1 12 -4q10 -3 40 -15q24 -10 41 -19q19 -11 19 -19q0 -3 -4 -5.5t-8 -2.5q-16 5 -56.5 19z" />
    <glyph glyph-name="oacute" unicode="&#xf3;" horiz-adv-x="346" 
d="M59 349v35q0 279 72 279q5 0 14 -3q32 -11 63 -14q19 -4 38 -39q21 -36 31.5 -95t10.5 -121l-2 -5q0 -33 1 -59l1 -60q0 -51 -4 -92q-6 -62 -20 -107q-9 -27 -20.5 -45t-28.5 -30q-16 -12 -39 -12q-117 0 -117 368zM230 65q19 56 23 114q4 60 4 96q0 40 -6 118
q-5 87 -5 118l-4 8l2 5q0 44 -24.5 76t-59.5 32q-46 0 -55 -44q-2 -15 -4 -43q0 -74 -6 -101q0 -15 -3 -47l-2 -47q0 -22 1 -39l1 -40q0 -47 8 -108q6 -45 14 -76t23 -53q15 -24 35 -24q39 0 58 55zM160.5 688q-5.5 4 -5.5 10q0 3 28 26l32 26l27 21q34 26 37 29
q22 0 22 -15l-3 -16q-52 -24 -125 -85q-7 0 -12.5 4z" />
    <glyph glyph-name="ocircumflex" unicode="&#xf4;" horiz-adv-x="346" 
d="M210 673q-5 64 -28 150q-4 -6 -34 -96q-8 -26 -8 -34l-17 -23l-19 13q1 15 18 57t37 77t29 35q15 0 15 -21q0 -33 18 -81l11 -36l-1 -6l8 -15l-1 -5q1 -4 2.5 -6.5t1.5 -4.5q0 -9 -18 -12zM59 349v35q0 279 72 279q5 0 14 -3q32 -11 63 -14q19 -4 38 -39q21 -36 31.5 -95
t10.5 -121l-2 -5q0 -33 1 -59l1 -60q0 -51 -4 -92q-6 -62 -20 -107q-9 -27 -20.5 -45t-28.5 -30q-16 -12 -39 -12q-117 0 -117 368zM230 65q19 56 23 114q4 60 4 96q0 40 -6 118q-5 87 -5 118l-4 8l2 5q0 44 -24.5 76t-59.5 32q-46 0 -55 -44q-2 -15 -4 -43q0 -74 -6 -101
q0 -15 -3 -47l-2 -47q0 -22 1 -39l1 -40q0 -47 8 -108q6 -45 14 -76t23 -53q15 -24 35 -24q39 0 58 55z" />
    <glyph glyph-name="otilde" unicode="&#xf5;" horiz-adv-x="346" 
d="M73.5 688.5q-6.5 5.5 -6.5 11.5q0 31 17 50t42 19t42 -20q8 -15 25 -27t32 -12q26 0 26 36l-2 10l-4 9q3 6 10 6q11 0 17 -10t6 -24q0 -21 -16 -37t-37 -16q-16 0 -34 10t-29 21q-8 7 -26 28l-7 3q-15 0 -26 -8t-11 -19l5 -21l-11 -15q-6 0 -12.5 5.5zM59 349v35
q0 279 72 279q5 0 14 -3q32 -11 63 -14q19 -4 38 -39q21 -36 31.5 -95t10.5 -121l-2 -5q0 -33 1 -59l1 -60q0 -51 -4 -92q-6 -62 -20 -107q-9 -27 -20.5 -45t-28.5 -30q-16 -12 -39 -12q-117 0 -117 368zM230 65q19 56 23 114q4 60 4 96q0 40 -6 118q-5 87 -5 118l-4 8l2 5
q0 44 -24.5 76t-59.5 32q-46 0 -55 -44q-2 -15 -4 -43q0 -74 -6 -101q0 -15 -3 -47l-2 -47q0 -22 1 -39l1 -40q0 -47 8 -108q6 -45 14 -76t23 -53q15 -24 35 -24q39 0 58 55z" />
    <glyph glyph-name="odieresis" unicode="&#xf6;" horiz-adv-x="346" 
d="M59 349v35q0 279 72 279q5 0 14 -3q32 -11 63 -14q19 -4 38 -39q21 -36 31.5 -95t10.5 -121l-2 -5q0 -33 1 -59l1 -60q0 -51 -4 -92q-6 -62 -20 -107q-9 -27 -20.5 -45t-28.5 -30q-16 -12 -39 -12q-117 0 -117 368zM230 65q19 56 23 114q4 60 4 96q0 40 -6 118
q-5 87 -5 118l-4 8l2 5q0 44 -24.5 76t-59.5 32q-46 0 -55 -44q-2 -15 -4 -43q0 -74 -6 -101q0 -15 -3 -47l-2 -47q0 -22 1 -39l1 -40q0 -47 8 -108q6 -45 14 -76t23 -53q15 -24 35 -24q39 0 58 55zM224 738q-6 7 -6 15q0 9 7.5 17t16.5 8t15.5 -8t6.5 -16q0 -23 -26 -23
q-8 0 -14 7zM91.5 735q-5.5 8 -5.5 17t7.5 17t16.5 8q10 0 15 -10t5 -23q0 -8 -7.5 -12.5t-17.5 -4.5q-8 0 -13.5 8z" />
    <glyph glyph-name="divide" unicode="&#xf7;" horiz-adv-x="352" 
d="M178 460.5q-8 7.5 -8 16.5q0 8 8 15t16 7q23 0 23 -26q0 -7 -7 -13.5t-15 -6.5q-9 0 -17 7.5zM82 357q-6 5 -6 12q0 3 98 3h93q4 0 7.5 -3.5t3.5 -6.5q0 -8 -19 -8l-55 -2h-107q-9 0 -15 5zM179 235.5q-8 7.5 -8 16.5q0 10 10 15t23 5q8 0 12.5 -7.5t4.5 -17.5
q0 -8 -8 -13.5t-17 -5.5t-17 7.5z" />
    <glyph glyph-name="oslash" unicode="&#xf8;" horiz-adv-x="292" 
d="M62 -107q1 29 12 79q9 50 12 79q0 6 -3 18q-4 11 -4 15q-20 114 -20 341v60q0 190 66 190q7 0 15 -4q12 -6 13 -7l3 2l7 -7l9 51q9 52 13 67h16v-9l-10 -63q-10 -56 -10 -65t5 -14l4 -7l4 -6l-1 -2q0 -4 7 -15l7 -12q11 -25 11 -61l-2 -1q0 -23 6 -70q7 -45 7 -71v-5
l2 -3q0 -48 1 -86l2 -87q0 -37 -3 -68q-2 -24 -5 -41t-10 -36q-7 -20 -16.5 -32.5t-23.5 -20.5q-15 -9 -33 -9q-32 0 -44 18h-1l-1 -7q-15 -125 -26 -125q-9 0 -9 14zM133 420l12 102l4 32q7 51 7 71q0 10 -9 17.5t-20 7.5l-15 -5l-5 1q-28 -15 -28 -264v-7q0 -41 7 -59
q0 -31 6 -96q6 -63 6 -96q11 65 35 296zM210 180q0 87 -2 150t-9 145q-7 89 -22 119q-17 -99 -47 -391q-9 -91 -13 -105q-7 -24 -7 -44q0 -22 9.5 -32t31.5 -10q59 0 59 168z" />
    <glyph glyph-name="ugrave" unicode="&#xf9;" horiz-adv-x="366" 
d="M142.5 -4.5q-18.5 10.5 -30.5 24.5q-14 18 -22 101t-10 190q0 24 -1 36q-2 251 -8 297l6 14q23 -3 23 -55l3 -265q0 -28 5 -106q6 -70 6 -106q0 -114 75 -114q46 0 59 210l1 20q7 275 7 407l-1 9q-1 4 -1 9q0 11 17 11q12 0 15 -6q2 -10 2 -35q0 -76 -6 -102l1 -6
q0 -13 -3 -40l-2 -40v-10q1 -4 1 -10q-2 -24 -2 -46q-1 -7 -1 -22q-2 -95 -4 -165q-3 -87 -24 -147q-22 -64 -71 -64q-16 0 -34.5 10.5zM143.5 712q-40.5 14 -44.5 17q-6 -2 -16 -2q-34 0 -34 20q0 18 6 22h6q30 0 39 -11q0 -1 12 -4q10 -3 40 -15q24 -10 41 -19
q19 -11 19 -19q0 -3 -4 -5.5t-8 -2.5q-16 5 -56.5 19z" />
    <glyph glyph-name="uacute" unicode="&#xfa;" horiz-adv-x="366" 
d="M142.5 -4.5q-18.5 10.5 -30.5 24.5q-14 18 -22 101t-10 190q0 24 -1 36q-2 251 -8 297l6 14q23 -3 23 -55l3 -265q0 -28 5 -106q6 -70 6 -106q0 -114 75 -114q46 0 59 210l1 20q7 275 7 407l-1 9q-1 4 -1 9q0 11 17 11q12 0 15 -6q2 -10 2 -35q0 -76 -6 -102l1 -6
q0 -13 -3 -40l-2 -40v-10q1 -4 1 -10q-2 -24 -2 -46q-1 -7 -1 -22q-2 -95 -4 -165q-3 -87 -24 -147q-22 -64 -71 -64q-16 0 -34.5 10.5zM146.5 688q-5.5 4 -5.5 10q0 3 28 26l32 26l27 21q34 26 37 29q22 0 22 -15l-3 -16q-52 -24 -125 -85q-7 0 -12.5 4z" />
    <glyph glyph-name="ucircumflex" unicode="&#xfb;" horiz-adv-x="366" 
d="M196 673q-5 64 -28 150q-4 -6 -34 -96q-8 -26 -8 -34l-17 -23l-19 13q1 15 18 57t37 77t29 35q15 0 15 -21q0 -33 18 -81l11 -36l-1 -6l8 -15l-1 -5q1 -4 2.5 -6.5t1.5 -4.5q0 -9 -18 -12zM142.5 -4.5q-18.5 10.5 -30.5 24.5q-14 18 -22 101t-10 190q0 24 -1 36
q-2 251 -8 297l6 14q23 -3 23 -55l3 -265q0 -28 5 -106q6 -70 6 -106q0 -114 75 -114q46 0 59 210l1 20q7 275 7 407l-1 9q-1 4 -1 9q0 11 17 11q12 0 15 -6q2 -10 2 -35q0 -76 -6 -102l1 -6q0 -13 -3 -40l-2 -40v-10q1 -4 1 -10q-2 -24 -2 -46q-1 -7 -1 -22q-2 -95 -4 -165
q-3 -87 -24 -147q-22 -64 -71 -64q-16 0 -34.5 10.5z" />
    <glyph glyph-name="udieresis" unicode="&#xfc;" horiz-adv-x="366" 
d="M142.5 -4.5q-18.5 10.5 -30.5 24.5q-14 18 -22 101t-10 190q0 24 -1 36q-2 251 -8 297l6 14q23 -3 23 -55l3 -265q0 -28 5 -106q6 -70 6 -106q0 -114 75 -114q46 0 59 210l1 20q7 275 7 407l-1 9q-1 4 -1 9q0 11 17 11q12 0 15 -6q2 -10 2 -35q0 -76 -6 -102l1 -6
q0 -13 -3 -40l-2 -40v-10q1 -4 1 -10q-2 -24 -2 -46q-1 -7 -1 -22q-2 -95 -4 -165q-3 -87 -24 -147q-22 -64 -71 -64q-16 0 -34.5 10.5zM210 738q-6 7 -6 15q0 9 7.5 17t16.5 8t15.5 -8t6.5 -16q0 -23 -26 -23q-8 0 -14 7zM77.5 735q-5.5 8 -5.5 17t7.5 17t16.5 8
q10 0 15 -10t5 -23q0 -8 -7.5 -12.5t-17.5 -4.5q-8 0 -13.5 8z" />
    <glyph glyph-name="yacute" unicode="&#xfd;" horiz-adv-x="267" 
d="M130 -11q-5 4 -6 7q9 24 9 175q0 29 -3 83l-5 71l-6 13l3 12q-6 14 -18 47t-24 67q-36 95 -47 137q-6 20 -9 37l14 11q10 -2 29 -64q15 -44 27 -87l12 -38q18 -62 26 -64l4 18l-2 5q8 10 20 71q13 70 25 118q13 56 26 56q5 0 9 -3t4 -7q0 -15 -30 -118q-15 -49 -25 -92
q-12 -51 -12 -91q5 -10 5 -17q0 -5 -3 -14t-3 -15q0 -5 4 -45q4 -27 4 -46q0 -44 1 -79v-80v-4q0 -68 -21 -68q-3 0 -8 4zM106.5 688q-5.5 4 -5.5 10q0 3 28 26l32 26l27 21q34 26 37 29q22 0 22 -15l-3 -16q-52 -24 -125 -85q-7 0 -12.5 4z" />
    <glyph glyph-name="thorn" unicode="&#xfe;" horiz-adv-x="322" 
d="M115 11.5q-4 6.5 -4 16.5q0 92 -6 275q-5 202 -5 272l-1 151q0 20 15 20q26 0 26 -72q0 -25 -1 -42q-4 -31 -2 -31v-8q38 -2 69.5 -30t45.5 -72q13 -38 13 -78q0 -60 -32.5 -105.5t-92.5 -70.5q-1 -22 4 -103q3 -64 3 -98q0 -16 -5.5 -23.5t-16.5 -7.5q-6 0 -10 6.5z
M210 325.5q23 34.5 23 78.5q0 37 -2.5 56t-12.5 36t-21 28t-45 38h-17l1 -147q1 -75 1 -155q50 31 73 65.5z" />
    <glyph glyph-name="ydieresis" unicode="&#xff;" horiz-adv-x="267" 
d="M130 -11q-5 4 -6 7q9 24 9 175q0 29 -3 83l-5 71l-6 13l3 12q-6 14 -18 47t-24 67q-36 95 -47 137q-6 20 -9 37l14 11q10 -2 29 -64q15 -44 27 -87l12 -38q18 -62 26 -64l4 18l-2 5q8 10 20 71q13 70 25 118q13 56 26 56q5 0 9 -3t4 -7q0 -15 -30 -118q-15 -49 -25 -92
q-12 -51 -12 -91q5 -10 5 -17q0 -5 -3 -14t-3 -15q0 -5 4 -45q4 -27 4 -46q0 -44 1 -79v-80v-4q0 -68 -21 -68q-3 0 -8 4zM170 738q-6 7 -6 15q0 9 7.5 17t16.5 8t15.5 -8t6.5 -16q0 -23 -26 -23q-8 0 -14 7zM37.5 735q-5.5 8 -5.5 17t7.5 17t16.5 8q10 0 15 -10t5 -23
q0 -8 -7.5 -12.5t-17.5 -4.5q-8 0 -13.5 8z" />
    <glyph glyph-name="Amacron" unicode="&#x100;" horiz-adv-x="353" 
d="M249.5 5q-5.5 5 -5.5 12v131q0 12 -51 22t-84 10q-2 0 -6.5 -15t-6.5 -22q-13 -52 -26 -111l-5 -22q-2 -8 -10 -8t-14.5 5t-6.5 12l1 2v1l11 50q12 47 21 92q10 51 15 66q8 33 32 165l6 33q26 154 36 194q5 24 18 71q5 20 14 40q9 17 15 17q16 0 23 -10q5 -9 15.5 -99
t18.5 -182l13 -166q0 -43 6 -130q6 -88 6 -131v-4q0 -11 -3 -20q-4 -8 -19 -8q-8 0 -13.5 5zM243 203q0 62 -7 169.5t-15 189.5q-2 35 -8 77l-4 39q0 -1 -2 11l-2 12q-8 -22 -15.5 -61t-15.5 -92q-24 -149 -41 -224l-9 -34q-15 -50 -15 -76v-6q44 -14 101 -14h6q3 -1 7 -1
q20 0 20 10zM151 820q-15 2 -19 7q-2 4 -2 7q0 8 64 8h56q35 0 51 -2q12 -1 17 -4.5t5 -9.5q-2 -8 -64 -8h-57h-19q-25 0 -32 2z" />
    <glyph glyph-name="amacron" unicode="&#x101;" horiz-adv-x="313" 
d="M111 716q-15 2 -19 7q-2 4 -2 7q0 8 64 8h56q35 0 51 -2q12 -1 17 -4.5t5 -9.5q-2 -8 -64 -8h-57h-19q-25 0 -32 2zM250 -5.5q-4 3.5 -6 18.5q-9 73 -11 91l-5 40q-22 5 -50 5l-36 2q-24 3 -35 3q-6 0 -7 -5q0 -3 -1 -3l-2 -20q-1 -18 -11 -72q-5 -27 -12 -42
q-8 -17 -15 -17q-6 0 -13 5.5t-7 11.5l1 3l1 3q18 71 30 141l12 62l12 76l11 66q5 27 18 87q14 68 17 93q1 3 4 37q4 38 7 56q3 26 6 30h7q3 -1 7 -1q12 0 18 6q7 0 12.5 -4.5t5.5 -10.5q0 -48 7 -110q4 -32 6 -53q11 -129 56 -484v-3q0 -10 -8 -15q-15 0 -19 3.5zM223 171
q-10 144 -38 425l-54 -267q-23 -115 -23 -145q0 -5 38 -9t67 -4h10z" />
    <glyph glyph-name="Abreve" unicode="&#x102;" horiz-adv-x="353" 
d="M166 826q-15 32 -15 68l11 9q7 -2 10 -16q8 -52 25 -64l11 -8h25q12 0 23 17.5t11 33.5v7q-1 3 -1 7q0 19 18 19q5 0 10 -4.5t5 -9.5l-2 -9l-3 -7l2 -7q-1 -3 -3 -7.5t-4 -9.5q-10 -22 -17 -31q-5 -8 -10.5 -12t-15.5 -7q-11 -3 -22 -3q-40 0 -58 34zM249.5 5
q-5.5 5 -5.5 12v131q0 12 -51 22t-84 10q-2 0 -6.5 -15t-6.5 -22q-13 -52 -26 -111l-5 -22q-2 -8 -10 -8t-14.5 5t-6.5 12l1 2v1l11 50q12 47 21 92q10 51 15 66q8 33 32 165l6 33q26 154 36 194q5 24 18 71q5 20 14 40q9 17 15 17q16 0 23 -10q5 -9 15.5 -99t18.5 -182
l13 -166q0 -43 6 -130q6 -88 6 -131v-4q0 -11 -3 -20q-4 -8 -19 -8q-8 0 -13.5 5zM243 203q0 62 -7 169.5t-15 189.5q-2 35 -8 77l-4 39q0 -1 -2 11l-2 12q-8 -22 -15.5 -61t-15.5 -92q-24 -149 -41 -224l-9 -34q-15 -50 -15 -76v-6q44 -14 101 -14h6q3 -1 7 -1q20 0 20 10z
" />
    <glyph glyph-name="abreve" unicode="&#x103;" horiz-adv-x="313" 
d="M126 729q-15 32 -15 68l11 9q7 -2 10 -16q8 -52 25 -64l11 -8h25q12 0 23 17.5t11 33.5v7q-1 3 -1 7q0 19 18 19q5 0 10 -4.5t5 -9.5l-2 -9l-3 -7l2 -7q-1 -3 -3 -7.5t-4 -9.5q-10 -22 -17 -31q-5 -8 -10.5 -12t-15.5 -7q-11 -3 -22 -3q-40 0 -58 34zM250 -5.5
q-4 3.5 -6 18.5q-9 73 -11 91l-5 40q-22 5 -50 5l-36 2q-24 3 -35 3q-6 0 -7 -5q0 -3 -1 -3l-2 -20q-1 -18 -11 -72q-5 -27 -12 -42q-8 -17 -15 -17q-6 0 -13 5.5t-7 11.5l1 3l1 3q18 71 30 141l12 62l12 76l11 66q5 27 18 87q14 68 17 93q1 3 4 37q4 38 7 56q3 26 6 30h7
q3 -1 7 -1q12 0 18 6q7 0 12.5 -4.5t5.5 -10.5q0 -48 7 -110q4 -32 6 -53q11 -129 56 -484v-3q0 -10 -8 -15q-15 0 -19 3.5zM223 171q-10 144 -38 425l-54 -267q-23 -115 -23 -145q0 -5 38 -9t67 -4h10z" />
    <glyph glyph-name="Aogonek" unicode="&#x104;" horiz-adv-x="353" 
d="M220 -208q-18 13 -28.5 31.5t-10.5 34.5q0 23 7 47t17 43q23 40 38 53l7 8l28 -4h2l-8 -13q-24 -30 -37 -63q-9 -21 -9 -38q0 -5 -2 -23l-1 -10v-11q0 -13 11 -27t23 -14q4 0 16 5q10 5 16 5q10 0 10 -10q0 -12 -13 -19.5t-29 -7.5q-19 0 -37 13zM249.5 5q-5.5 5 -5.5 12
v131q0 12 -51 22t-84 10q-2 0 -6.5 -15t-6.5 -22q-13 -52 -26 -111l-5 -22q-2 -8 -10 -8t-14.5 5t-6.5 12l1 2v1l11 50q12 47 21 92q10 51 15 66q8 33 32 165l6 33q26 154 36 194q5 24 18 71q5 20 14 40q9 17 15 17q16 0 23 -10q5 -9 15.5 -99t18.5 -182l13 -166
q0 -43 6 -130q6 -88 6 -131v-4q0 -11 -3 -20q-4 -8 -19 -8q-8 0 -13.5 5zM243 203q0 62 -7 169.5t-15 189.5q-2 35 -8 77l-4 39q0 -1 -2 11l-2 12q-8 -22 -15.5 -61t-15.5 -92q-24 -149 -41 -224l-9 -34q-15 -50 -15 -76v-6q44 -14 101 -14h6q3 -1 7 -1q20 0 20 10z" />
    <glyph glyph-name="aogonek" unicode="&#x105;" horiz-adv-x="313" 
d="M216 -211q-18 13 -28.5 31.5t-10.5 34.5q0 23 7 47t17 43q23 40 38 53l7 8l28 -4h2l-8 -13q-24 -30 -37 -63q-9 -21 -9 -38q0 -5 -2 -23l-1 -10v-11q0 -13 11 -27t23 -14q4 0 16 5q10 5 16 5q10 0 10 -10q0 -12 -13 -19.5t-29 -7.5q-19 0 -37 13zM250 -5.5
q-4 3.5 -6 18.5q-9 73 -11 91l-5 40q-22 5 -50 5l-36 2q-24 3 -35 3q-6 0 -7 -5q0 -3 -1 -3l-2 -20q-1 -18 -11 -72q-5 -27 -12 -42q-8 -17 -15 -17q-6 0 -13 5.5t-7 11.5l1 3l1 3q18 71 30 141l12 62l12 76l11 66q5 27 18 87q14 68 17 93q1 3 4 37q4 38 7 56q3 26 6 30h7
q3 -1 7 -1q12 0 18 6q7 0 12.5 -4.5t5.5 -10.5q0 -48 7 -110q4 -32 6 -53q11 -129 56 -484v-3q0 -10 -8 -15q-15 0 -19 3.5zM223 171q-10 144 -38 425l-54 -267q-23 -115 -23 -145q0 -5 38 -9t67 -4h10z" />
    <glyph glyph-name="Cacute" unicode="&#x106;" horiz-adv-x="330" 
d="M143 6q-31 22 -44 50q-12 26 -24.5 165t-12.5 207v53q-1 23 -1 51q0 52 6 103q4 25 10.5 43t18.5 35q22 34 66 45q23 6 51 6q19 0 38.5 -11t19.5 -26q0 -11 -16 -11q-6 0 -23 7q-15 7 -27 7q-28 0 -50.5 -11.5t-35.5 -30.5q-11 -16 -19 -44t-10 -56q-3 -25 -3 -60l1 -56
q1 -24 1 -52q0 -69 14 -203t27 -155q12 -19 35.5 -29t49.5 -10q46 0 70 29q9 12 19 12q9 0 9 -14q0 -18 -11 -31.5t-30 -20.5q-32 -14 -70 -14q-28 0 -59 22zM150.5 805q-5.5 4 -5.5 10q0 3 28 26l32 26l27 21q34 26 37 29q22 0 22 -15l-3 -16q-52 -24 -125 -85
q-7 0 -12.5 4z" />
    <glyph glyph-name="cacute" unicode="&#x107;" horiz-adv-x="285" 
d="M146 -7q-19 6 -32.5 17t-25.5 33q-21 40 -25 115q-2 34 -2 60v114q0 65 4 126q3 45 9 76t19 62q14 32 31 45q7 6 27 14q13 5 25 11h40h3q1 -1 3 -1l5 -1l4 -3q3 -3 3 -4q1 -2 1 -6l-13 -15h-42q-19 0 -34.5 -18.5t-23.5 -46.5q-8 -25 -13 -59t-6 -59q-2 -32 -2 -44l-2 -5
q0 -56 -2 -101l-2 -101q0 -44 6 -81q5 -40 29 -72q23 -32 71 -32q15 0 25 9q15 0 15 -11q0 -7 -12.5 -16.5t-25.5 -14.5h-33zM130.5 688q-5.5 4 -5.5 10q0 3 28 26l32 26l27 21q34 26 37 29q22 0 22 -15l-3 -16q-52 -24 -125 -85q-7 0 -12.5 4z" />
    <glyph glyph-name="Ccircumflex" unicode="&#x108;" horiz-adv-x="330" 
d="M197 780q-5 64 -28 150q-4 -6 -34 -96q-8 -26 -8 -34l-17 -23l-19 13q1 15 18 57t37 77t29 35q15 0 15 -21q0 -33 18 -81l11 -36l-1 -6l8 -15l-1 -5q1 -4 2.5 -6.5t1.5 -4.5q0 -9 -18 -12zM143 6q-31 22 -44 50q-12 26 -24.5 165t-12.5 207v53q-1 23 -1 51q0 52 6 103
q4 25 10.5 43t18.5 35q22 34 66 45q23 6 51 6q19 0 38.5 -11t19.5 -26q0 -11 -16 -11q-6 0 -23 7q-15 7 -27 7q-28 0 -50.5 -11.5t-35.5 -30.5q-11 -16 -19 -44t-10 -56q-3 -25 -3 -60l1 -56q1 -24 1 -52q0 -69 14 -203t27 -155q12 -19 35.5 -29t49.5 -10q46 0 70 29
q9 12 19 12q9 0 9 -14q0 -18 -11 -31.5t-30 -20.5q-32 -14 -70 -14q-28 0 -59 22z" />
    <glyph glyph-name="ccircumflex" unicode="&#x109;" horiz-adv-x="285" 
d="M180 673q-5 64 -28 150q-4 -6 -34 -96q-8 -26 -8 -34l-17 -23l-19 13q1 15 18 57t37 77t29 35q15 0 15 -21q0 -33 18 -81l11 -36l-1 -6l8 -15l-1 -5q1 -4 2.5 -6.5t1.5 -4.5q0 -9 -18 -12zM146 -7q-19 6 -32.5 17t-25.5 33q-21 40 -25 115q-2 34 -2 60v114q0 65 4 126
q3 45 9 76t19 62q14 32 31 45q7 6 27 14q13 5 25 11h40h3q1 -1 3 -1l5 -1l4 -3q3 -3 3 -4q1 -2 1 -6l-13 -15h-42q-19 0 -34.5 -18.5t-23.5 -46.5q-8 -25 -13 -59t-6 -59q-2 -32 -2 -44l-2 -5q0 -56 -2 -101l-2 -101q0 -44 6 -81q5 -40 29 -72q23 -32 71 -32q15 0 25 9
q15 0 15 -11q0 -7 -12.5 -16.5t-25.5 -14.5h-33z" />
    <glyph glyph-name="Cdotaccent" unicode="&#x10a;" horiz-adv-x="330" 
d="M146.5 811.5q-6.5 7.5 -6.5 16.5q0 10 8 18.5t18 8.5q9 0 16.5 -8.5t7.5 -17.5q0 -25 -28 -25q-9 0 -15.5 7.5zM143 6q-31 22 -44 50q-12 26 -24.5 165t-12.5 207v53q-1 23 -1 51q0 52 6 103q4 25 10.5 43t18.5 35q22 34 66 45q23 6 51 6q19 0 38.5 -11t19.5 -26
q0 -11 -16 -11q-6 0 -23 7q-15 7 -27 7q-28 0 -50.5 -11.5t-35.5 -30.5q-11 -16 -19 -44t-10 -56q-3 -25 -3 -60l1 -56q1 -24 1 -52q0 -69 14 -203t27 -155q12 -19 35.5 -29t49.5 -10q46 0 70 29q9 12 19 12q9 0 9 -14q0 -18 -11 -31.5t-30 -20.5q-32 -14 -70 -14
q-28 0 -59 22z" />
    <glyph glyph-name="cdotaccent" unicode="&#x10b;" horiz-adv-x="285" 
d="M124.5 730.5q-6.5 7.5 -6.5 16.5q0 10 8 18.5t18 8.5q9 0 16.5 -8.5t7.5 -17.5q0 -25 -28 -25q-9 0 -15.5 7.5zM146 -7q-19 6 -32.5 17t-25.5 33q-21 40 -25 115q-2 34 -2 60v114q0 65 4 126q3 45 9 76t19 62q14 32 31 45q7 6 27 14q13 5 25 11h40h3q1 -1 3 -1l5 -1l4 -3
q3 -3 3 -4q1 -2 1 -6l-13 -15h-42q-19 0 -34.5 -18.5t-23.5 -46.5q-8 -25 -13 -59t-6 -59q-2 -32 -2 -44l-2 -5q0 -56 -2 -101l-2 -101q0 -44 6 -81q5 -40 29 -72q23 -32 71 -32q15 0 25 9q15 0 15 -11q0 -7 -12.5 -16.5t-25.5 -14.5h-33z" />
    <glyph glyph-name="Ccaron" unicode="&#x10c;" horiz-adv-x="330" 
d="M151 819q-20 35 -37 77t-18 57l19 13l17 -23q0 -8 8 -34q10 -28 19.5 -56t14.5 -40q23 87 28 150l14 8q18 -3 18 -12q0 -1 -4 -11l1 -5l-8 -15l1 -6l-11 -36q-18 -48 -18 -81q0 -21 -15 -21q-9 0 -29 35zM143 6q-31 22 -44 50q-12 26 -24.5 165t-12.5 207v53q-1 23 -1 51
q0 52 6 103q4 25 10.5 43t18.5 35q22 34 66 45q23 6 51 6q19 0 38.5 -11t19.5 -26q0 -11 -16 -11q-6 0 -23 7q-15 7 -27 7q-28 0 -50.5 -11.5t-35.5 -30.5q-11 -16 -19 -44t-10 -56q-3 -25 -3 -60l1 -56q1 -24 1 -52q0 -69 14 -203t27 -155q12 -19 35.5 -29t49.5 -10
q46 0 70 29q9 12 19 12q9 0 9 -14q0 -18 -11 -31.5t-30 -20.5q-32 -14 -70 -14q-28 0 -59 22z" />
    <glyph glyph-name="ccaron" unicode="&#x10d;" horiz-adv-x="285" 
d="M114 712q-20 35 -37 77t-18 57l19 13l17 -23q0 -8 8 -34q10 -28 19.5 -56t14.5 -40q23 87 28 150l14 8q18 -3 18 -12q0 -1 -4 -11l1 -5l-8 -15l1 -6l-11 -36q-18 -48 -18 -81q0 -21 -15 -21q-9 0 -29 35zM146 -7q-19 6 -32.5 17t-25.5 33q-21 40 -25 115q-2 34 -2 60v114
q0 65 4 126q3 45 9 76t19 62q14 32 31 45q7 6 27 14q13 5 25 11h40h3q1 -1 3 -1l5 -1l4 -3q3 -3 3 -4q1 -2 1 -6l-13 -15h-42q-19 0 -34.5 -18.5t-23.5 -46.5q-8 -25 -13 -59t-6 -59q-2 -32 -2 -44l-2 -5q0 -56 -2 -101l-2 -101q0 -44 6 -81q5 -40 29 -72q23 -32 71 -32
q15 0 25 9q15 0 15 -11q0 -7 -12.5 -16.5t-25.5 -14.5h-33z" />
    <glyph glyph-name="Dcaron" unicode="&#x10e;" horiz-adv-x="381" 
d="M113 819q-20 35 -37 77t-18 57l19 13l17 -23q0 -8 8 -34q10 -28 19.5 -56t14.5 -40q23 87 28 150l14 8q18 -3 18 -12q0 -1 -4 -11l1 -5l-8 -15l1 -6l-11 -36q-18 -48 -18 -81q0 -21 -15 -21q-9 0 -29 35zM92 4q-12 6 -12 14q0 6 8 20q8 13 7 20l-3 88l-7 273l-2 121
q-1 111 -5 139q-2 11 -8 25q-7 19 -7 27q0 24 76 24h5q51 0 88 -35q29 -27 52 -85q16 -46 24 -103q4 -30 7 -92v-31q0 -62 -16.5 -134.5t-46.5 -135.5q-18 -40 -46.5 -72t-54.5 -50.5t-35 -18.5q-12 0 -24 6zM131 49q37 19 66 55.5t46 80.5q15 37 25 84.5t14 88.5q3 36 3 69
q0 292 -161 292q-21 0 -21 -11q0 -35 4 -83q4 -49 4 -83q0 -55 8 -191q7 -118 7 -190v-112h5z" />
    <glyph glyph-name="dcaron" unicode="&#x10f;" horiz-adv-x="348" 
d="M111 712q-20 35 -37 77t-18 57l19 13l17 -23q0 -8 8 -34q10 -28 19.5 -56t14.5 -40q23 87 28 150l14 8q18 -3 18 -12q0 -1 -4 -11l1 -5l-8 -15l1 -6l-11 -36q-18 -48 -18 -81q0 -21 -15 -21q-9 0 -29 35zM83 22q-4 69 -4 174q0 66 1 118l1 118q0 76 -4 188q-9 8 -9 20
q0 7 8.5 14.5t15.5 7.5q8 0 15 -8l11 -9q6 -3 23 -6t24 -6q15 -8 40 -31q24 -24 33 -30l-1 -2q1 -6 15 -26q11 -15 18 -28q16 -46 16 -119q0 -13 -1 -23v-24v-8l-1 -10q0 -19 6 -30q-6 -32 -15 -121q-3 -26 -10 -55t-17 -48q-26 -49 -87 -83h-70q-8 0 -8 27zM157 24
q7 8 13 13l7 5l8 7q70 63 70 240v19q-1 8 -1 17l-4 101q-3 58 -35 120q-15 31 -40.5 50.5t-53.5 19.5q-12 0 -12 -185q0 -214 12 -373l-1 -19l4 -2l2 -13h31z" />
    <glyph glyph-name="Dcroat" unicode="&#x110;" horiz-adv-x="430" 
d="M136 -39q-8 2 -11.5 5t-6.5 10h-1q0 132 -9 318q-2 18 -2 26q-1 12 -3 28t-3 20q-11 0 -31 -3q-21 -3 -30 -3t-11.5 3.5t-2.5 13.5q0 18 62 18h9l4 2v2l1 3q0 20 -7 90q-7 56 -7 90l-2 60l-2 30q-4 52 -4 89q0 5 6 13t10 8q30 0 62.5 -17t59.5 -46q51 -54 84 -115v-2
q47 -133 47 -287q0 -67 -25 -139t-71 -133q-48 -63 -105 -88q-9 3 -11 4zM167 10q3 2 13 12l7 7q51 51 88 129.5t37 142.5q0 59 -1 85t-6 66q-4 37 -14 79q-17 81 -62.5 140.5t-113.5 79.5l-2 -2q0 -78 7.5 -207t16.5 -141q12 0 34 6q27 5 35 5t13.5 -7.5t7.5 -16.5l-10 -12
q-53 0 -82 -7q1 -31 3.5 -87t3.5 -62l-1 -1q0 -26 5 -108q5 -80 5 -108q9 2 16 7z" />
    <glyph glyph-name="dcroat" unicode="&#x111;" horiz-adv-x="381" 
d="M314 302q-5 -31 -14 -121q-3 -26 -10 -55t-17 -48q-26 -49 -87 -83h-70q-9 0 -9 27q-3 78 -3 174v116h-14q-8 0 -14.5 4.5t-6.5 11.5q0 2 15 3t20 2q1 43 1 99q0 104 -3 188q-9 8 -9 20q0 7 8 14.5t16 7.5q7 0 15 -8l11 -9q6 -3 23 -6t23 -6q17 -7 40 -31q27 -25 34 -30
l-1 -2q1 -6 15 -26q14 -18 17 -28q17 -45 17 -119q0 -13 -1 -23v-24v-8l-1 -10q0 -18 5 -30zM280 308q-1 8 -1 17l-5 101q-2 57 -34 120q-15 31 -40.5 50.5t-53.5 19.5q-12 0 -12 -185q0 -66 1 -97q14 1 39 1q8 0 15 -5t7 -12q0 -3 -61 -5q3 -158 11 -255l-1 -19l3 -2l3 -13
h31q7 8 13 13l7 5l7 7q71 62 71 240v19z" />
    <glyph glyph-name="Emacron" unicode="&#x112;" horiz-adv-x="249" 
d="M80.5 -1.5q-9.5 4.5 -9.5 17.5v19q-1 8 -1 18v2l1 146l-1 413q0 64 -2 111q0 12 5 20t13 8h62q14 0 21 -2q10 -3 10 -17q0 -8 -6 -13t-13 -6h-17l-16 1l-16 1q-7 0 -9.5 -2.5t-2.5 -9.5q0 -47 1 -85v-85v-125q0 -2 2 -2h1h1q25 2 54 2q16 0 16 -14q0 -10 -3.5 -13.5
t-11.5 -3.5h-57q-4 0 -4 -5l2 -148q2 -69 2 -159v-37h43h42h9q18 0 18 -13q0 -16 -9 -19q-12 -4 -49 -4h-42q-24 0 -33.5 4.5zM50 820q-15 2 -19 7q-2 4 -2 7q0 8 64 8h56q35 0 51 -2q12 -1 17 -4.5t5 -9.5q-2 -8 -64 -8h-57h-19q-25 0 -32 2z" />
    <glyph glyph-name="emacron" unicode="&#x113;" horiz-adv-x="256" 
d="M65 707q-15 2 -19 7q-2 4 -2 7q0 8 64 8h56q35 0 51 -2q12 -1 17 -4.5t5 -9.5q-2 -8 -64 -8h-57h-19q-25 0 -32 2zM71 8v13q1 5 1 12l-4 4q8 21 8 41q0 23 -3 66l-2 66q0 50 3 150q4 89 4 151l-2 60q-2 27 -2 60q0 15 7 21.5t22 6.5q10 0 16 -6q2 -1 29 -4q25 -3 43 -9
q19 -6 19 -15q0 -10 -19 -20q-57 19 -81 19l-5 -6q1 -9 1 -43q0 -43 -2 -77q-1 -35 -1 -78q0 -28 14 -28l16 1q8 1 17 1q39 0 39 -18q0 -11 -5 -18.5t-15 -7.5q-15 0 -23 8l-32 5h-5l-5 -5v-3q2 -17 2 -79q0 -39 -1 -71l-1 -71q0 -39 3 -80q1 -23 10 -30.5t33 -7.5l18 1
q9 1 20 1q29 0 29 -13q0 -18 -44 -18h-82q-18 0 -20 21z" />
    <glyph glyph-name="Ebreve" unicode="&#x114;" horiz-adv-x="249" 
d="M65 826q-15 32 -15 68l11 9q7 -2 10 -16q8 -52 25 -64l11 -8h25q12 0 23 17.5t11 33.5v7q-1 3 -1 7q0 19 18 19q5 0 10 -4.5t5 -9.5l-2 -9l-3 -7l2 -7q-1 -3 -3 -7.5t-4 -9.5q-10 -22 -17 -31q-5 -8 -10.5 -12t-15.5 -7q-11 -3 -22 -3q-40 0 -58 34zM80.5 -1.5
q-9.5 4.5 -9.5 17.5v19q-1 8 -1 18v2l1 146l-1 413q0 64 -2 111q0 12 5 20t13 8h62q14 0 21 -2q10 -3 10 -17q0 -8 -6 -13t-13 -6h-17l-16 1l-16 1q-7 0 -9.5 -2.5t-2.5 -9.5q0 -47 1 -85v-85v-125q0 -2 2 -2h1h1q25 2 54 2q16 0 16 -14q0 -10 -3.5 -13.5t-11.5 -3.5h-57
q-4 0 -4 -5l2 -148q2 -69 2 -159v-37h43h42h9q18 0 18 -13q0 -16 -9 -19q-12 -4 -49 -4h-42q-24 0 -33.5 4.5z" />
    <glyph glyph-name="ebreve" unicode="&#x115;" horiz-adv-x="256" 
d="M80 720q-15 32 -15 68l11 9q7 -2 10 -16q8 -52 25 -64l11 -8h25q12 0 23 17.5t11 33.5v7q-1 3 -1 7q0 19 18 19q5 0 10 -4.5t5 -9.5l-2 -9l-3 -7l2 -7q-1 -3 -3 -7.5t-4 -9.5q-10 -22 -17 -31q-5 -8 -10.5 -12t-15.5 -7q-11 -3 -22 -3q-40 0 -58 34zM71 8v13q1 5 1 12
l-4 4q8 21 8 41q0 23 -3 66l-2 66q0 50 3 150q4 89 4 151l-2 60q-2 27 -2 60q0 15 7 21.5t22 6.5q10 0 16 -6q2 -1 29 -4q25 -3 43 -9q19 -6 19 -15q0 -10 -19 -20q-57 19 -81 19l-5 -6q1 -9 1 -43q0 -43 -2 -77q-1 -35 -1 -78q0 -28 14 -28l16 1q8 1 17 1q39 0 39 -18
q0 -11 -5 -18.5t-15 -7.5q-15 0 -23 8l-32 5h-5l-5 -5v-3q2 -17 2 -79q0 -39 -1 -71l-1 -71q0 -39 3 -80q1 -23 10 -30.5t33 -7.5l18 1q9 1 20 1q29 0 29 -13q0 -18 -44 -18h-82q-18 0 -20 21z" />
    <glyph glyph-name="Edotaccent" unicode="&#x116;" horiz-adv-x="249" 
d="M106.5 811.5q-6.5 7.5 -6.5 16.5q0 10 8 18.5t18 8.5q9 0 16.5 -8.5t7.5 -17.5q0 -25 -28 -25q-9 0 -15.5 7.5zM80.5 -1.5q-9.5 4.5 -9.5 17.5v19q-1 8 -1 18v2l1 146l-1 413q0 64 -2 111q0 12 5 20t13 8h62q14 0 21 -2q10 -3 10 -17q0 -8 -6 -13t-13 -6h-17l-16 1l-16 1
q-7 0 -9.5 -2.5t-2.5 -9.5q0 -47 1 -85v-85v-125q0 -2 2 -2h1h1q25 2 54 2q16 0 16 -14q0 -10 -3.5 -13.5t-11.5 -3.5h-57q-4 0 -4 -5l2 -148q2 -69 2 -159v-37h43h42h9q18 0 18 -13q0 -16 -9 -19q-12 -4 -49 -4h-42q-24 0 -33.5 4.5z" />
    <glyph glyph-name="edotaccent" unicode="&#x117;" horiz-adv-x="256" 
d="M121.5 730.5q-6.5 7.5 -6.5 16.5q0 10 8 18.5t18 8.5q9 0 16.5 -8.5t7.5 -17.5q0 -25 -28 -25q-9 0 -15.5 7.5zM71 8v13q1 5 1 12l-4 4q8 21 8 41q0 23 -3 66l-2 66q0 50 3 150q4 89 4 151l-2 60q-2 27 -2 60q0 15 7 21.5t22 6.5q10 0 16 -6q2 -1 29 -4q25 -3 43 -9
q19 -6 19 -15q0 -10 -19 -20q-57 19 -81 19l-5 -6q1 -9 1 -43q0 -43 -2 -77q-1 -35 -1 -78q0 -28 14 -28l16 1q8 1 17 1q39 0 39 -18q0 -11 -5 -18.5t-15 -7.5q-15 0 -23 8l-32 5h-5l-5 -5v-3q2 -17 2 -79q0 -39 -1 -71l-1 -71q0 -39 3 -80q1 -23 10 -30.5t33 -7.5l18 1
q9 1 20 1q29 0 29 -13q0 -18 -44 -18h-82q-18 0 -20 21z" />
    <glyph glyph-name="Eogonek" unicode="&#x118;" horiz-adv-x="249" 
d="M160 -208q-18 13 -28.5 31.5t-10.5 34.5q0 23 7 47t17 43q23 40 38 53l7 8l28 -4h2l-8 -13q-24 -30 -37 -63q-9 -21 -9 -38q0 -5 -2 -23l-1 -10v-11q0 -13 11 -27t23 -14q4 0 16 5q10 5 16 5q10 0 10 -10q0 -12 -13 -19.5t-29 -7.5q-19 0 -37 13zM80.5 -1.5
q-9.5 4.5 -9.5 17.5v19q-1 8 -1 18v2l1 146l-1 413q0 64 -2 111q0 12 5 20t13 8h62q14 0 21 -2q10 -3 10 -17q0 -8 -6 -13t-13 -6h-17l-16 1l-16 1q-7 0 -9.5 -2.5t-2.5 -9.5q0 -47 1 -85v-85v-125q0 -2 2 -2h1h1q25 2 54 2q16 0 16 -14q0 -10 -3.5 -13.5t-11.5 -3.5h-57
q-4 0 -4 -5l2 -148q2 -69 2 -159v-37h43h42h9q18 0 18 -13q0 -16 -9 -19q-12 -4 -49 -4h-42q-24 0 -33.5 4.5z" />
    <glyph glyph-name="eogonek" unicode="&#x119;" horiz-adv-x="256" 
d="M155 -206q-18 13 -28.5 31.5t-10.5 34.5q0 23 7 47t17 43q23 40 38 53l7 8l28 -4h2l-8 -13q-24 -30 -37 -63q-9 -21 -9 -38q0 -5 -2 -23l-1 -10v-11q0 -13 11 -27t23 -14q4 0 16 5q10 5 16 5q10 0 10 -10q0 -12 -13 -19.5t-29 -7.5q-19 0 -37 13zM71 8v13q1 5 1 12l-4 4
q8 21 8 41q0 23 -3 66l-2 66q0 50 3 150q4 89 4 151l-2 60q-2 27 -2 60q0 15 7 21.5t22 6.5q10 0 16 -6q2 -1 29 -4q25 -3 43 -9q19 -6 19 -15q0 -10 -19 -20q-57 19 -81 19l-5 -6q1 -9 1 -43q0 -43 -2 -77q-1 -35 -1 -78q0 -28 14 -28l16 1q8 1 17 1q39 0 39 -18
q0 -11 -5 -18.5t-15 -7.5q-15 0 -23 8l-32 5h-5l-5 -5v-3q2 -17 2 -79q0 -39 -1 -71l-1 -71q0 -39 3 -80q1 -23 10 -30.5t33 -7.5l18 1q9 1 20 1q29 0 29 -13q0 -18 -44 -18h-82q-18 0 -20 21z" />
    <glyph glyph-name="Ecaron" unicode="&#x11a;" horiz-adv-x="249" 
d="M111 819q-20 35 -37 77t-18 57l19 13l17 -23q0 -8 8 -34q10 -28 19.5 -56t14.5 -40q23 87 28 150l14 8q18 -3 18 -12q0 -1 -4 -11l1 -5l-8 -15l1 -6l-11 -36q-18 -48 -18 -81q0 -21 -15 -21q-9 0 -29 35zM80.5 -1.5q-9.5 4.5 -9.5 17.5v19q-1 8 -1 18v2l1 146l-1 413
q0 64 -2 111q0 12 5 20t13 8h62q14 0 21 -2q10 -3 10 -17q0 -8 -6 -13t-13 -6h-17l-16 1l-16 1q-7 0 -9.5 -2.5t-2.5 -9.5q0 -47 1 -85v-85v-125q0 -2 2 -2h1h1q25 2 54 2q16 0 16 -14q0 -10 -3.5 -13.5t-11.5 -3.5h-57q-4 0 -4 -5l2 -148q2 -69 2 -159v-37h43h42h9
q18 0 18 -13q0 -16 -9 -19q-12 -4 -49 -4h-42q-24 0 -33.5 4.5z" />
    <glyph glyph-name="ecaron" unicode="&#x11b;" horiz-adv-x="256" 
d="M111 712q-20 35 -37 77t-18 57l19 13l17 -23q0 -8 8 -34q10 -28 19.5 -56t14.5 -40q23 87 28 150l14 8q18 -3 18 -12q0 -1 -4 -11l1 -5l-8 -15l1 -6l-11 -36q-18 -48 -18 -81q0 -21 -15 -21q-9 0 -29 35zM71 8v13q1 5 1 12l-4 4q8 21 8 41q0 23 -3 66l-2 66q0 50 3 150
q4 89 4 151l-2 60q-2 27 -2 60q0 15 7 21.5t22 6.5q10 0 16 -6q2 -1 29 -4q25 -3 43 -9q19 -6 19 -15q0 -10 -19 -20q-57 19 -81 19l-5 -6q1 -9 1 -43q0 -43 -2 -77q-1 -35 -1 -78q0 -28 14 -28l16 1q8 1 17 1q39 0 39 -18q0 -11 -5 -18.5t-15 -7.5q-15 0 -23 8l-32 5h-5
l-5 -5v-3q2 -17 2 -79q0 -39 -1 -71l-1 -71q0 -39 3 -80q1 -23 10 -30.5t33 -7.5l18 1q9 1 20 1q29 0 29 -13q0 -18 -44 -18h-82q-18 0 -20 21z" />
    <glyph glyph-name="Gcircumflex" unicode="&#x11c;" horiz-adv-x="384" 
d="M239 790q-5 64 -28 150q-4 -6 -34 -96q-8 -26 -8 -34l-17 -23l-19 13q1 15 18 57t37 77t29 35q15 0 15 -21q0 -33 18 -81l11 -36l-1 -6l8 -15l-1 -5q1 -4 2.5 -6.5t1.5 -4.5q0 -9 -18 -12zM97 92q-36 108 -36 336q0 49 2 87q2 46 14 99q5 27 12.5 47t20.5 42q23 40 64 56
q22 8 46 8q30 0 30 -17q0 -12 -15 -12q-4 0 -14 3l-14 2q-33 0 -57 -27q-17 -20 -33 -69q-11 -40 -15 -89q-3 -27 -6 -88l-1 -66v-55q0 -97 14 -177q10 -50 23.5 -83t36.5 -54q25 -23 54 -23q53 0 85 50q0 27 -4 71q-3 22 -8 41q-6 17 -14 17l-19 -2l-21 -2q-23 0 -23 17
q0 8 28 15t47 7q16 0 23.5 -11.5t7.5 -30.5q0 -22 10 -89q10 -56 10 -89q0 -16 -13 -16q-24 0 -24 22l1 3v2q-57 -33 -101 -33q-75 0 -111 108z" />
    <glyph glyph-name="gcircumflex" unicode="&#x11d;" horiz-adv-x="339" 
d="M206 673q-5 64 -28 150q-4 -6 -34 -96q-8 -26 -8 -34l-17 -23l-19 13q1 15 18 57t37 77t29 35q15 0 15 -21q0 -33 18 -81l11 -36l-1 -6l8 -15l-1 -5q1 -4 2.5 -6.5t1.5 -4.5q0 -9 -18 -12zM122 4q-22 11 -32.5 42.5t-18.5 100.5q-12 101 -12 157q0 34 4 78l6 63
q5 75 11.5 113.5t29 68t69.5 34.5q5 1 16 1q31 0 31 -14q0 -6 -6.5 -10.5t-13.5 -4.5l-10 1l-9 1q-17 0 -30.5 -11t-22.5 -32q-21 -50 -27 -98q-8 -63 -10 -110l-1 -77q0 -49 3 -73q7 -11 9.5 -33.5t4.5 -61.5q2 -35 9 -59.5t25 -40.5q20 -17 55 -17q29 0 41 32q14 34 16 70
q3 45 3 76v55q-10 10 -35 10h-8q-5 -1 -11 -1q-24 0 -24 12q0 17 24 17q17 0 28 -1l22 -1q19 -3 30 -7q12 -4 12 -11q0 -13 -6 -37q-5 -28 -5 -38q0 -42 2 -76q1 -35 1 -77q-51 -52 -102 -52q-46 0 -68 11z" />
    <glyph glyph-name="Gbreve" unicode="&#x11e;" horiz-adv-x="384" 
d="M147 836q-15 32 -15 68l11 9q7 -2 10 -16q8 -52 25 -64l11 -8h25q12 0 23 17.5t11 33.5v7q-1 3 -1 7q0 19 18 19q5 0 10 -4.5t5 -9.5l-2 -9l-3 -7l2 -7q-1 -3 -3 -7.5t-4 -9.5q-10 -22 -17 -31q-5 -8 -10.5 -12t-15.5 -7q-11 -3 -22 -3q-40 0 -58 34zM97 92
q-36 108 -36 336q0 49 2 87q2 46 14 99q5 27 12.5 47t20.5 42q23 40 64 56q22 8 46 8q30 0 30 -17q0 -12 -15 -12q-4 0 -14 3l-14 2q-33 0 -57 -27q-17 -20 -33 -69q-11 -40 -15 -89q-3 -27 -6 -88l-1 -66v-55q0 -97 14 -177q10 -50 23.5 -83t36.5 -54q25 -23 54 -23
q53 0 85 50q0 27 -4 71q-3 22 -8 41q-6 17 -14 17l-19 -2l-21 -2q-23 0 -23 17q0 8 28 15t47 7q16 0 23.5 -11.5t7.5 -30.5q0 -22 10 -89q10 -56 10 -89q0 -16 -13 -16q-24 0 -24 22l1 3v2q-57 -33 -101 -33q-75 0 -111 108z" />
    <glyph glyph-name="gbreve" unicode="&#x11f;" horiz-adv-x="339" 
d="M109 720q-15 32 -15 68l11 9q7 -2 10 -16q8 -52 25 -64l11 -8h25q12 0 23 17.5t11 33.5v7q-1 3 -1 7q0 19 18 19q5 0 10 -4.5t5 -9.5l-2 -9l-3 -7l2 -7q-1 -3 -3 -7.5t-4 -9.5q-10 -22 -17 -31q-5 -8 -10.5 -12t-15.5 -7q-11 -3 -22 -3q-40 0 -58 34zM122 4
q-22 11 -32.5 42.5t-18.5 100.5q-12 101 -12 157q0 34 4 78l6 63q5 75 11.5 113.5t29 68t69.5 34.5q5 1 16 1q31 0 31 -14q0 -6 -6.5 -10.5t-13.5 -4.5l-10 1l-9 1q-17 0 -30.5 -11t-22.5 -32q-21 -50 -27 -98q-8 -63 -10 -110l-1 -77q0 -49 3 -73q7 -11 9.5 -33.5
t4.5 -61.5q2 -35 9 -59.5t25 -40.5q20 -17 55 -17q29 0 41 32q14 34 16 70q3 45 3 76v55q-10 10 -35 10h-8q-5 -1 -11 -1q-24 0 -24 12q0 17 24 17q17 0 28 -1l22 -1q19 -3 30 -7q12 -4 12 -11q0 -13 -6 -37q-5 -28 -5 -38q0 -42 2 -76q1 -35 1 -77q-51 -52 -102 -52
q-46 0 -68 11z" />
    <glyph glyph-name="Gdotaccent" unicode="&#x120;" horiz-adv-x="384" 
d="M168.5 820.5q-6.5 7.5 -6.5 16.5q0 10 8 18.5t18 8.5q9 0 16.5 -8.5t7.5 -17.5q0 -25 -28 -25q-9 0 -15.5 7.5zM97 92q-36 108 -36 336q0 49 2 87q2 46 14 99q5 27 12.5 47t20.5 42q23 40 64 56q22 8 46 8q30 0 30 -17q0 -12 -15 -12q-4 0 -14 3l-14 2q-33 0 -57 -27
q-17 -20 -33 -69q-11 -40 -15 -89q-3 -27 -6 -88l-1 -66v-55q0 -97 14 -177q10 -50 23.5 -83t36.5 -54q25 -23 54 -23q53 0 85 50q0 27 -4 71q-3 22 -8 41q-6 17 -14 17l-19 -2l-21 -2q-23 0 -23 17q0 8 28 15t47 7q16 0 23.5 -11.5t7.5 -30.5q0 -22 10 -89q10 -56 10 -89
q0 -16 -13 -16q-24 0 -24 22l1 3v2q-57 -33 -101 -33q-75 0 -111 108z" />
    <glyph glyph-name="gdotaccent" unicode="&#x121;" horiz-adv-x="339" 
d="M150.5 730.5q-6.5 7.5 -6.5 16.5q0 10 8 18.5t18 8.5q9 0 16.5 -8.5t7.5 -17.5q0 -25 -28 -25q-9 0 -15.5 7.5zM122 4q-22 11 -32.5 42.5t-18.5 100.5q-12 101 -12 157q0 34 4 78l6 63q5 75 11.5 113.5t29 68t69.5 34.5q5 1 16 1q31 0 31 -14q0 -6 -6.5 -10.5t-13.5 -4.5
l-10 1l-9 1q-17 0 -30.5 -11t-22.5 -32q-21 -50 -27 -98q-8 -63 -10 -110l-1 -77q0 -49 3 -73q7 -11 9.5 -33.5t4.5 -61.5q2 -35 9 -59.5t25 -40.5q20 -17 55 -17q29 0 41 32q14 34 16 70q3 45 3 76v55q-10 10 -35 10h-8q-5 -1 -11 -1q-24 0 -24 12q0 17 24 17q17 0 28 -1
l22 -1q19 -3 30 -7q12 -4 12 -11q0 -13 -6 -37q-5 -28 -5 -38q0 -42 2 -76q1 -35 1 -77q-51 -52 -102 -52q-46 0 -68 11z" />
    <glyph glyph-name="Gcommaaccent" unicode="&#x122;" horiz-adv-x="384" 
d="M169 -217l2 9q6 4 28 26q18 21 21 30q3 7 3 17q-13 8 -21 20t-8 24q0 13 11.5 22t26.5 9q22 0 33 -29l-2 -3q2 -2 2 -12q0 -17 -12.5 -46t-31.5 -51q-18 -22 -36 -24zM97 92q-36 108 -36 336q0 49 2 87q2 46 14 99q5 27 12.5 47t20.5 42q23 40 64 56q22 8 46 8
q30 0 30 -17q0 -12 -15 -12q-4 0 -14 3l-14 2q-33 0 -57 -27q-17 -20 -33 -69q-11 -40 -15 -89q-3 -27 -6 -88l-1 -66v-55q0 -97 14 -177q10 -50 23.5 -83t36.5 -54q25 -23 54 -23q53 0 85 50q0 27 -4 71q-3 22 -8 41q-6 17 -14 17l-19 -2l-21 -2q-23 0 -23 17q0 8 28 15
t47 7q16 0 23.5 -11.5t7.5 -30.5q0 -22 10 -89q10 -56 10 -89q0 -16 -13 -16q-24 0 -24 22l1 3v2q-57 -33 -101 -33q-75 0 -111 108z" />
    <glyph glyph-name="gcommaaccent" unicode="&#x123;" horiz-adv-x="339" 
d="M222 -73q0 -25 -24 -62.5t-56 -58.5q-8 -5 -14 -5q-12 0 -12 12q0 4 1 6q8 6 27 25q18 17 22 31q3 7 3 17q-29 6 -29 44q0 16 11 23.5t27 7.5q44 0 44 -40zM122 4q-22 11 -32.5 42.5t-18.5 100.5q-12 101 -12 157q0 34 4 78l6 63q5 75 11.5 113.5t29 68t69.5 34.5
q5 1 16 1q31 0 31 -14q0 -6 -6.5 -10.5t-13.5 -4.5l-10 1l-9 1q-17 0 -30.5 -11t-22.5 -32q-21 -50 -27 -98q-8 -63 -10 -110l-1 -77q0 -49 3 -73q7 -11 9.5 -33.5t4.5 -61.5q2 -35 9 -59.5t25 -40.5q20 -17 55 -17q29 0 41 32q14 34 16 70q3 45 3 76v55q-10 10 -35 10h-8
q-5 -1 -11 -1q-24 0 -24 12q0 17 24 17q17 0 28 -1l22 -1q19 -3 30 -7q12 -4 12 -11q0 -13 -6 -37q-5 -28 -5 -38q0 -42 2 -76q1 -35 1 -77q-51 -52 -102 -52q-46 0 -68 11z" />
    <glyph glyph-name="Hcircumflex" unicode="&#x124;" horiz-adv-x="327" 
d="M196 780q-5 64 -28 150q-4 -6 -34 -96q-8 -26 -8 -34l-17 -23l-19 13q1 15 18 57t37 77t29 35q15 0 15 -21q0 -33 18 -81l11 -36l-1 -6l8 -15l-1 -5q1 -4 2.5 -6.5t1.5 -4.5q0 -9 -18 -12zM229 -6q-3 4 -3 12v12q1 4 1 11q0 137 -10 347h-7h-19h-19q-56 0 -70 -3
q0 -73 8 -181q9 -123 9 -181q0 -15 -11 -15q-15 0 -15 14q-1 49 -4.5 135.5t-6.5 146.5q-19 238 -19 456q0 10 13 10q6 0 9.5 -3.5t2.5 -9.5v-74q0 -27 5 -102l2 -34q2 -56 2 -67v-49q0 -26 5 -26l38 2l20 2q50 4 57 4l1 2q0 44 -5 169q-5 127 -5 170q0 12 14 12
q7 0 12 -3.5t5 -9.5q0 -195 7 -429q7 -235 7 -288v-14q0 -8 -3.5 -14t-9.5 -6q-8 0 -11 4z" />
    <glyph glyph-name="hcircumflex" unicode="&#x125;" horiz-adv-x="327" 
d="M196 685q-5 64 -28 150q-4 -6 -34 -96q-8 -26 -8 -34l-17 -23l-19 13q1 15 18 57t37 77t29 35q15 0 15 -21q0 -33 18 -81l11 -36l-1 -6l8 -15l-1 -5q1 -4 2.5 -6.5t1.5 -4.5q0 -9 -18 -12zM222 -1q-5 185 -5 268l-3 4l4 9q0 18 -4 37l-15 4q-9 -3 -20 -3q-8 0 -33 5
q-17 5 -31 5l-11 -4q0 -35 -1 -63t-1 -63l2 -4q0 -28 3 -84q3 -55 3 -83q0 -11 -4 -18.5t-12 -7.5q-22 0 -22 60q0 51 1 92l1 91q0 91 -3 98q5 10 5 66q0 48 -4 117l-2 39l-2 78q0 7 5 13t12 6q20 0 20 -58q0 -68 -1 -123q-2 -55 -2 -121q0 -12 76 -12h4q19 0 27.5 7.5
t8.5 25.5q0 53 -7 138q-6 92 -6 138q0 6 5 10.5t12 4.5l9 -3q7 -1 9 -3q0 -78 6 -233q6 -156 6 -234q0 -118 7 -198l-7 -11q0 10 -30 10zM189 361l2 -2h-2v2z" />
    <glyph glyph-name="Hbar" unicode="&#x126;" horiz-adv-x="371" 
d="M246 6l1 12v11q0 163 -10 343h-3q-1 -1 -2 -1h-1q-7 0 -19 3l-19 2q-50 0 -71 -12q0 -57 9 -173q8 -123 8 -173q0 -15 -10 -15q-7 0 -10.5 2t-5.5 8q-4 12 -6 70q-2 54 -2 83l-1 41q0 61 -2 85q-12 180 -16 297h-1q-8 0 -14.5 5t-6.5 12l22 2q-2 41 -2 140l16 8l13 -11
q-4 -33 -4 -74q0 -35 2 -62l121 2q-3 87 -3 131q0 8 2 14q18 0 24 -26q4 -24 4 -55v-64q6 -2 10 -7t4 -12h-13q2 -182 8 -336q6 -189 6 -232q4 -8 4 -14q0 -8 -5.5 -17t-12.5 -9q-14 0 -14 22zM179 397l20 2l38 2l1 2q0 36 -5 189q-46 0 -121 -3q5 -98 5 -121v-20
q-1 -9 -1 -20q0 -15 4 -35q7 0 59 4z" />
    <glyph glyph-name="hbar" unicode="&#x127;" horiz-adv-x="361" 
d="M278 0l-7 -11q0 10 -30 10q-5 185 -5 268l-3 4l4 9q0 18 -4 37l-15 4q-9 -3 -20 -3q-9 0 -32 5q-19 5 -32 5l-10 -4l-2 -63q-1 -28 -1 -63l3 -4l2 -84q3 -55 3 -83q0 -26 -16 -26q-22 0 -22 60q0 51 1 92l1 91q0 91 -3 98q5 10 5 66q0 34 -3 95q-7 2 -12 6.5t-5 10.5
q0 4 16 9l-2 37l-2 76q0 7 5 13t12 6q21 0 21 -58q0 -39 -1 -66q43 8 104 12q-4 61 -4 107q0 6 5 10.5t12 4.5l9 -3q8 -1 9 -3l1 -94q1 -9 1 -28q7 -5 7 -11q0 -3 -6 -6l3 -94q6 -125 6 -234q0 -118 7 -198zM228.5 354.5q8.5 7.5 8.5 25.5q0 53 -7 137q-48 -9 -107 -13v-24
q-2 -55 -2 -121q0 -12 76 -12h4q19 0 27.5 7.5zM208 361l2 -2h-2v2z" />
    <glyph glyph-name="Itilde" unicode="&#x128;" horiz-adv-x="270" 
d="M35.5 790.5q-6.5 5.5 -6.5 11.5q0 31 17 50t42 19t42 -20q8 -15 25 -27t32 -12q26 0 26 36l-2 10l-4 9q3 6 10 6q11 0 17 -10t6 -24q0 -21 -16 -37t-37 -16q-16 0 -34 10t-29 21q-8 7 -26 28l-7 3q-15 0 -26 -8t-11 -19l5 -21l-11 -15q-6 0 -12.5 5.5zM82 5q-7 0 -12.5 5
t-5.5 11q0 13 17 13h39q0 115 -7 290q-4 140 -8 220l1 51v66q0 50 -2 64h-35q-10 0 -10 14q0 9 8 14q7 3 37 3h28q15 -1 38 -1q8 0 13 -3.5t5 -10.5q0 -6 -3 -11t-9 -5q-7 0 -12 1h-12h-10q-10 0 -12 -2l-2 -4q0 -78 13 -315q12 -219 12 -315v-28q-1 -13 -1 -27h36
q23 0 23 -14q0 -6 -4.5 -11.5t-9.5 -5.5h-54q-24 1 -61 1z" />
    <glyph glyph-name="itilde" unicode="&#x129;" horiz-adv-x="237" 
d="M24.5 688.5q-6.5 5.5 -6.5 11.5q0 31 17 50t42 19t42 -20q8 -15 25 -27t32 -12q26 0 26 36l-2 10l-4 9q3 6 10 6q11 0 17 -10t6 -24q0 -21 -16 -37t-37 -16q-16 0 -34 10t-29 21q-8 7 -26 28l-7 3q-15 0 -26 -8t-11 -19l5 -21l-11 -15q-6 0 -12.5 5.5zM99 10q-5 0 -8 -1
h-8q-22 0 -28 10q0 7 8 12l5 5h29l4 4l2 9l1 12q0 61 -3 109l-2 37l-2 73q0 39 3 117l2 116q0 76 -5 116q-9 3 -30 3l-11 -1q-6 -1 -13 -1q-19 0 -19 17q0 4 9 8t15 4q38 0 76 -4q23 -1 46 -9q18 -6 18 -17q0 -2 -3 -8l-23 -2q-7 6 -29 6l-5 -3q3 -9 3 -53q0 -66 -1 -119
l-2 -119q0 -45 4 -109q3 -73 3 -110v-13q-1 -7 -1 -18q0 -23 3 -28l-1 -2q0 -10 22 -10q9 0 15 1h15q29 0 29 -14q0 -9 -6 -14.5t-16 -5.5q-9 0 -16 2q-8 1 -17 1q-6 0 -18 -5q-12 -6 -18 -6q-23 0 -27 10z" />
    <glyph glyph-name="Imacron" unicode="&#x12a;" horiz-adv-x="270" 
d="M82 5q-7 0 -12.5 5t-5.5 11q0 13 17 13h39q0 115 -7 290q-4 140 -8 220l1 51v66q0 50 -2 64h-35q-10 0 -10 14q0 9 8 14q7 3 37 3h28q15 -1 38 -1q8 0 13 -3.5t5 -10.5q0 -6 -3 -11t-9 -5q-7 0 -12 1h-12h-10q-10 0 -12 -2l-2 -4q0 -78 13 -315q12 -219 12 -315v-28
q-1 -13 -1 -27h36q23 0 23 -14q0 -6 -4.5 -11.5t-9.5 -5.5h-54q-24 1 -61 1zM60 820q-15 2 -19 7q-2 4 -2 7q0 8 64 8h56q35 0 51 -2q12 -1 17 -4.5t5 -9.5q-2 -8 -64 -8h-57h-19q-25 0 -32 2z" />
    <glyph glyph-name="imacron" unicode="&#x12b;" horiz-adv-x="237" 
d="M49 707q-15 2 -19 7q-2 4 -2 7q0 8 64 8h56q35 0 51 -2q12 -1 17 -4.5t5 -9.5q-2 -8 -64 -8h-57h-19q-25 0 -32 2zM99 10q-5 0 -8 -1h-8q-22 0 -28 10q0 7 8 12l5 5h29l4 4l2 9l1 12q0 61 -3 109l-2 37l-2 73q0 39 3 117l2 116q0 76 -5 116q-9 3 -30 3l-11 -1
q-6 -1 -13 -1q-19 0 -19 17q0 4 9 8t15 4q38 0 76 -4q23 -1 46 -9q18 -6 18 -17q0 -2 -3 -8l-23 -2q-7 6 -29 6l-5 -3q3 -9 3 -53q0 -66 -1 -119l-2 -119q0 -45 4 -109q3 -73 3 -110v-13q-1 -7 -1 -18q0 -23 3 -28l-1 -2q0 -10 22 -10q9 0 15 1h15q29 0 29 -14
q0 -9 -6 -14.5t-16 -5.5q-9 0 -16 2q-8 1 -17 1q-6 0 -18 -5q-12 -6 -18 -6q-23 0 -27 10z" />
    <glyph glyph-name="Ibreve" unicode="&#x12c;" horiz-adv-x="270" 
d="M75 826q-15 32 -15 68l11 9q7 -2 10 -16q8 -52 25 -64l11 -8h25q12 0 23 17.5t11 33.5v7q-1 3 -1 7q0 19 18 19q5 0 10 -4.5t5 -9.5l-2 -9l-3 -7l2 -7q-1 -3 -3 -7.5t-4 -9.5q-10 -22 -17 -31q-5 -8 -10.5 -12t-15.5 -7q-11 -3 -22 -3q-40 0 -58 34zM82 5q-7 0 -12.5 5
t-5.5 11q0 13 17 13h39q0 115 -7 290q-4 140 -8 220l1 51v66q0 50 -2 64h-35q-10 0 -10 14q0 9 8 14q7 3 37 3h28q15 -1 38 -1q8 0 13 -3.5t5 -10.5q0 -6 -3 -11t-9 -5q-7 0 -12 1h-12h-10q-10 0 -12 -2l-2 -4q0 -78 13 -315q12 -219 12 -315v-28q-1 -13 -1 -27h36
q23 0 23 -14q0 -6 -4.5 -11.5t-9.5 -5.5h-54q-24 1 -61 1z" />
    <glyph glyph-name="ibreve" unicode="&#x12d;" horiz-adv-x="237" 
d="M64 720q-15 32 -15 68l11 9q7 -2 10 -16q8 -52 25 -64l11 -8h25q12 0 23 17.5t11 33.5v7q-1 3 -1 7q0 19 18 19q5 0 10 -4.5t5 -9.5l-2 -9l-3 -7l2 -7q-1 -3 -3 -7.5t-4 -9.5q-10 -22 -17 -31q-5 -8 -10.5 -12t-15.5 -7q-11 -3 -22 -3q-40 0 -58 34zM99 10q-5 0 -8 -1h-8
q-22 0 -28 10q0 7 8 12l5 5h29l4 4l2 9l1 12q0 61 -3 109l-2 37l-2 73q0 39 3 117l2 116q0 76 -5 116q-9 3 -30 3l-11 -1q-6 -1 -13 -1q-19 0 -19 17q0 4 9 8t15 4q38 0 76 -4q23 -1 46 -9q18 -6 18 -17q0 -2 -3 -8l-23 -2q-7 6 -29 6l-5 -3q3 -9 3 -53q0 -66 -1 -119
l-2 -119q0 -45 4 -109q3 -73 3 -110v-13q-1 -7 -1 -18q0 -23 3 -28l-1 -2q0 -10 22 -10q9 0 15 1h15q29 0 29 -14q0 -9 -6 -14.5t-16 -5.5q-9 0 -16 2q-8 1 -17 1q-6 0 -18 -5q-12 -6 -18 -6q-23 0 -27 10z" />
    <glyph glyph-name="Iogonek" unicode="&#x12e;" horiz-adv-x="270" 
d="M199 -208q-18 13 -28.5 31.5t-10.5 34.5q0 23 7 47t17 43q23 40 38 53l7 8l28 -4h2l-8 -13q-24 -30 -37 -63q-9 -21 -9 -38q0 -5 -2 -23l-1 -10v-11q0 -13 11 -27t23 -14q4 0 16 5q10 5 16 5q10 0 10 -10q0 -12 -13 -19.5t-29 -7.5q-19 0 -37 13zM82 5q-7 0 -12.5 5
t-5.5 11q0 13 17 13h39q0 115 -7 290q-4 140 -8 220l1 51v66q0 50 -2 64h-35q-10 0 -10 14q0 9 8 14q7 3 37 3h28q15 -1 38 -1q8 0 13 -3.5t5 -10.5q0 -6 -3 -11t-9 -5q-7 0 -12 1h-12h-10q-10 0 -12 -2l-2 -4q0 -78 13 -315q12 -219 12 -315v-28q-1 -13 -1 -27h36
q23 0 23 -14q0 -6 -4.5 -11.5t-9.5 -5.5h-54q-24 1 -61 1z" />
    <glyph glyph-name="iogonek" unicode="&#x12f;" horiz-adv-x="237" 
d="M152 -193q-18 13 -28.5 31.5t-10.5 34.5q0 23 7 47t17 43q23 40 38 53l7 8l28 -4h2l-8 -13q-24 -30 -37 -63q-9 -21 -9 -38q0 -5 -2 -23l-1 -10v-11q0 -13 11 -27t23 -14q4 0 16 5q10 5 16 5q10 0 10 -10q0 -12 -13 -19.5t-29 -7.5q-19 0 -37 13zM99 10q-5 0 -8 -1h-8
q-22 0 -28 10q0 7 8 12l5 5h29l4 4l2 9l1 12q0 61 -3 109l-2 37l-2 73q0 39 3 117l2 116q0 76 -5 116q-9 3 -30 3l-11 -1q-6 -1 -13 -1q-19 0 -19 17q0 4 9 8t15 4q38 0 76 -4q23 -1 46 -9q18 -6 18 -17q0 -2 -3 -8l-23 -2q-7 6 -29 6l-5 -3q3 -9 3 -53q0 -66 -1 -119
l-2 -119q0 -45 4 -109q3 -73 3 -110v-13q-1 -7 -1 -18q0 -23 3 -28l-1 -2q0 -10 22 -10q9 0 15 1h15q29 0 29 -14q0 -9 -6 -14.5t-16 -5.5q-9 0 -16 2q-8 1 -17 1q-6 0 -18 -5q-12 -6 -18 -6q-23 0 -27 10z" />
    <glyph glyph-name="Idotaccent" unicode="&#x130;" horiz-adv-x="270" 
d="M116.5 811.5q-6.5 7.5 -6.5 16.5q0 10 8 18.5t18 8.5q9 0 16.5 -8.5t7.5 -17.5q0 -25 -28 -25q-9 0 -15.5 7.5zM82 5q-7 0 -12.5 5t-5.5 11q0 13 17 13h39q0 115 -7 290q-4 140 -8 220l1 51v66q0 50 -2 64h-35q-10 0 -10 14q0 9 8 14q7 3 37 3h28q15 -1 38 -1
q8 0 13 -3.5t5 -10.5q0 -6 -3 -11t-9 -5q-7 0 -12 1h-12h-10q-10 0 -12 -2l-2 -4q0 -78 13 -315q12 -219 12 -315v-28q-1 -13 -1 -27h36q23 0 23 -14q0 -6 -4.5 -11.5t-9.5 -5.5h-54q-24 1 -61 1z" />
    <glyph glyph-name="dotlessi" unicode="&#x131;" horiz-adv-x="237" 
d="M99 10q-5 0 -8 -1h-8q-22 0 -28 10q0 7 8 12l5 5h29l4 4l2 9l1 12q0 61 -3 109l-2 37l-2 73q0 39 3 117l2 116q0 76 -5 116q-9 3 -30 3l-11 -1q-6 -1 -13 -1q-19 0 -19 17q0 4 9 8t15 4q38 0 76 -4q23 -1 46 -9q18 -6 18 -17q0 -2 -3 -8l-23 -2q-7 6 -29 6l-5 -3
q3 -9 3 -53q0 -66 -1 -119l-2 -119q0 -45 4 -109q3 -73 3 -110v-13q-1 -7 -1 -18q0 -23 3 -28l-1 -2q0 -10 22 -10q9 0 15 1h15q29 0 29 -14q0 -9 -6 -14.5t-16 -5.5q-9 0 -16 2q-8 1 -17 1q-6 0 -18 -5q-12 -6 -18 -6q-23 0 -27 10z" />
    <glyph glyph-name="IJ" unicode="&#x132;" horiz-adv-x="502" 
d="M82 5q-7 0 -12.5 5t-5.5 11q0 13 17 13h39q0 115 -7 290q-4 140 -8 220l1 51v66q0 50 -2 64h-35q-10 0 -10 14q0 9 8 14q7 3 37 3h28q15 -1 38 -1q8 0 13 -3.5t5 -10.5q0 -6 -3 -11t-9 -5q-7 0 -12 1h-12h-10q-10 0 -12 -2l-2 -4q0 -78 13 -315q12 -219 12 -315v-28
q-1 -13 -1 -27h36q23 0 23 -14q0 -6 -4.5 -11.5t-9.5 -5.5h-54q-24 1 -61 1zM304 -78q1 10 24 24l12 9q44 43 44 153q0 68 -5 148q-5 107 -5 135l-6 155q-5 132 -5 181q-16 0 -30 -1l-30 -1q-6 0 -9.5 4.5t-3.5 10.5q0 12 8 15q8 4 38 4l38 -1h53q7 0 11.5 -5t4.5 -11
q0 -9 -5.5 -12t-21.5 -3h-22q0 -135 11 -337q2 -27 4 -92q7 -125 7 -149q0 -42 -1.5 -66t-6.5 -52q-5 -29 -14.5 -49.5t-26.5 -40.5q-17 -22 -42 -38q-21 0 -21 19z" />
    <glyph glyph-name="ij" unicode="&#x133;" horiz-adv-x="477" 
d="M99 10q-5 0 -8 -1h-8q-22 0 -28 10q0 7 8 12l5 5h29l4 4l2 9l1 12q0 61 -3 109l-2 37l-2 73q0 39 3 117l2 116q0 76 -5 116q-9 3 -30 3l-11 -1q-6 -1 -13 -1q-19 0 -19 17q0 4 9 8t15 4q38 0 76 -4q23 -1 46 -9q18 -6 18 -17q0 -2 -3 -8l-23 -2q-7 6 -29 6l-5 -3
q3 -9 3 -53q0 -66 -1 -119l-2 -119q0 -45 4 -109q3 -73 3 -110v-13q-1 -7 -1 -18q0 -23 3 -28l-1 -2q0 -10 22 -10q9 0 15 1h15q29 0 29 -14q0 -9 -6 -14.5t-16 -5.5q-9 0 -16 2q-8 1 -17 1q-6 0 -18 -5q-12 -6 -18 -6q-23 0 -27 10zM245 -100v2l-1 2q0 3 17 14q16 12 36 24
q22 15 23 17q15 17 23.5 53.5t8.5 71.5q0 107 -4 266q-5 148 -5 265l-6 11q-7 2 -24 5q-19 1 -34 8q-15 5 -15 13q0 4 8 8t13 4q19 0 60.5 -7t74 -17t32.5 -18q0 -6 -4.5 -9.5t-11.5 -3.5t-27 5q-15 5 -27 5q-9 0 -9 -20q0 -55 5 -208q5 -115 5 -207v-110q-6 -13 -6 -42
q0 -42 -24 -95q-13 -27 -33.5 -43.5t-44.5 -16.5h-7z" />
    <glyph glyph-name="Jcircumflex" unicode="&#x134;" horiz-adv-x="232" 
d="M148 780q-5 64 -28 150q-4 -6 -34 -96q-8 -26 -8 -34l-17 -23l-19 13q1 15 18 57t37 77t29 35q15 0 15 -21q0 -33 18 -81l11 -36l-1 -6l8 -15l-1 -5q1 -4 2.5 -6.5t1.5 -4.5q0 -9 -18 -12zM34 -78q1 10 24 24l12 9q44 43 44 153q0 68 -5 148q-5 107 -5 135l-6 155
q-5 132 -5 181q-16 0 -30 -1l-30 -1q-6 0 -9.5 4.5t-3.5 10.5q0 12 8 15q8 4 38 4l38 -1h53q7 0 11.5 -5t4.5 -11q0 -9 -5.5 -12t-21.5 -3h-22q0 -135 11 -337q2 -27 4 -92q7 -125 7 -149q0 -42 -1.5 -66t-6.5 -52q-5 -29 -14.5 -49.5t-26.5 -40.5q-17 -22 -42 -38
q-21 0 -21 19z" />
    <glyph glyph-name="jcircumflex" unicode="&#x135;" horiz-adv-x="240" 
d="M156 673q-5 64 -28 150q-4 -6 -34 -96q-8 -26 -8 -34l-17 -23l-19 13q1 15 18 57t37 77t29 35q15 0 15 -21q0 -33 18 -81l11 -36l-1 -6l8 -15l-1 -5q1 -4 2.5 -6.5t1.5 -4.5q0 -9 -18 -12zM8 -100v2l-1 2q0 3 17 14q16 12 36 24q22 15 23 17q15 17 23.5 53.5t8.5 71.5
q0 107 -4 266q-5 148 -5 265l-6 11q-7 2 -24 5q-19 1 -34 8q-15 5 -15 13q0 4 8 8t13 4q19 0 60.5 -7t74 -17t32.5 -18q0 -6 -4.5 -9.5t-11.5 -3.5t-27 5q-15 5 -27 5q-9 0 -9 -20q0 -55 5 -208q5 -115 5 -207v-110q-6 -13 -6 -42q0 -42 -24 -95q-13 -27 -33.5 -43.5
t-44.5 -16.5h-7z" />
    <glyph glyph-name="Kcommaaccent" unicode="&#x136;" horiz-adv-x="315" 
d="M110 -207l2 9q6 4 28 26q18 21 21 30q3 7 3 17q-13 8 -21 20t-8 24q0 13 11.5 22t26.5 9q22 0 33 -29l-2 -3q2 -2 2 -12q0 -17 -12.5 -46t-31.5 -51q-18 -22 -36 -24zM278 -9q-1 6 -24 84l-35 122q-55 190 -71 235l-6 17q-1 -2 -3.5 -6t-8.5 -13q-12 -22 -20 -34l-14 -23
v-356q0 -17 -3 -23.5t-13 -6.5t-13.5 7t-3.5 25v302q0 59 3 192l2 192q0 19 2 35q3 12 11 12q15 0 18 -7q4 -7 4 -36l-2 -166l-2 -121h1q19 42 54 126l37 93q56 139 71 139q7 0 12 -4t5 -11q-3 -19 -16 -40l-10 -18q-17 -40 -50 -120q-40 -97 -43 -102q-1 -7 1 -12
q20 -51 45 -126t41 -130q17 -60 34.5 -122t24.5 -89q2 -6 2 -7q0 -7 -5.5 -11t-12.5 -4q-9 0 -12 7z" />
    <glyph glyph-name="kcommaaccent" unicode="&#x137;" horiz-adv-x="330" 
d="M117 -207l2 9q6 4 28 26q18 21 21 30q3 7 3 17q-13 8 -21 20t-8 24q0 13 11.5 22t26.5 9q22 0 33 -29l-2 -3q2 -2 2 -12q0 -17 -12.5 -46t-31.5 -51q-18 -22 -36 -24zM234 72q-31 83 -54 180t-25 136l-3 4l-15 -32q-11 -21 -16.5 -34.5t-10.5 -33.5q-6 -19 -6 -39t-2 -36
l-2 -36v-128q0 -9 3 -29q3 -18 3 -28q0 -5 -5 -8.5t-11 -3.5q-13 0 -17.5 4t-4.5 17v188q0 16 5 63t5 63q0 42 5 97q4 56 4 96v139q6 11 19 11q8 0 13.5 -5.5t5.5 -13.5q-8 -18 -8 -48l-2 -105q-2 -48 -2 -106q10 3 78 138q68 134 75 134q26 0 26 -17q-64 -95 -106 -185
l-1 -32q-1 -14 -1 -32q0 -44 34 -165t58 -168q11 -15 13 -17q10 -14 14.5 -23.5t4.5 -19.5q0 -7 -5 -11t-12 -4q-24 0 -57 90z" />
    <glyph glyph-name="kgreenlandic" unicode="&#x138;" horiz-adv-x="391" 
d="M250 72q-31 84 -54.5 181t-25.5 135l-3 4l-15 -32q-11 -21 -16.5 -34.5t-10.5 -33.5q-5 -22 -5 -39q0 -12 -3 -36l-2 -36v-128q0 -9 3 -29q4 -16 4 -28q0 -5 -5.5 -8.5t-11.5 -3.5q-13 0 -17.5 4t-4.5 17v188q0 16 5 63t5 63q0 42 5 97q5 70 5 96v139q5 11 19 11
q7 0 13 -6t6 -13q-9 -16 -9 -48l-2 -105q-2 -48 -2 -106q10 3 78 138q68 134 75 134q25 0 27 -17q-64 -93 -107 -185l-1 -32q-1 -14 -1 -32q0 -44 34 -165t59 -168q4 -7 12 -17q10 -14 14.5 -23.5t4.5 -19.5q0 -7 -5 -11t-12 -4q-24 0 -56 90z" />
    <glyph glyph-name="Lacute" unicode="&#x139;" horiz-adv-x="247" 
d="M92.5 0q-4.5 6 -4.5 15v16v24q0 63 -5 142q-4 84 -4 142q0 54 -5 209q-6 140 -6 209q0 5 4.5 8.5t10.5 3.5q18 0 18 -15q0 -185 3 -277l5 -179q0 -42 6 -137l6 -124q0 -3 3 -3q1 -1 13 -1h62q13 0 13 -18q0 -8 -3 -13.5t-9 -5.5l-7 -1h-8q-21 -1 -81 -1q-7 0 -11.5 6z
M69.5 805q-5.5 4 -5.5 10q0 3 28 26l32 26l27 21q34 26 37 29q22 0 22 -15l-3 -16q-52 -24 -125 -85q-7 0 -12.5 4z" />
    <glyph glyph-name="lacute" unicode="&#x13a;" horiz-adv-x="249" 
d="M73 10q2 6 2 33q0 92 3 273q3 180 3 260l2 36l3 30q0 7 7 7q5 0 14 -3l3 -1q0 -22 -1 -40v-39v-109q1 -48 1 -109q-1 -5 -1 -22l-1 -21q-1 -20 -1 -41q0 -23 1 -42l1 -43l-3 -8l1 1q0 -3 -1 -4v-4q0 -8 3 -14l-3 -96v-6q0 -17 1 -20q0 -5 5 -5l52 -2q23 0 31.5 -0.5
t10.5 -0.5h3q5 0 10 -5.5t5 -11.5q0 -12 -16 -13q-17 1 -83 1l2 -1q-10 0 -19 -1q-8 -2 -18 -2q-14 0 -17 23zM80.5 710q-5.5 4 -5.5 10q0 3 28 26l32 26l27 21q34 26 37 29q22 0 22 -15l-3 -16q-52 -24 -125 -85q-7 0 -12.5 4z" />
    <glyph glyph-name="Lcommaaccent" unicode="&#x13b;" horiz-adv-x="247" 
d="M76 -207l2 9q6 4 28 26q18 21 21 30q3 7 3 17q-13 8 -21 20t-8 24q0 13 11.5 22t26.5 9q22 0 33 -29l-2 -3q2 -2 2 -12q0 -17 -12.5 -46t-31.5 -51q-18 -22 -36 -24zM92.5 0q-4.5 6 -4.5 15v16v24q0 63 -5 142q-4 84 -4 142q0 54 -5 209q-6 140 -6 209q0 5 4.5 8.5
t10.5 3.5q18 0 18 -15q0 -185 3 -277l5 -179q0 -42 6 -137l6 -124q0 -3 3 -3q1 -1 13 -1h62q13 0 13 -18q0 -8 -3 -13.5t-9 -5.5l-7 -1h-8q-21 -1 -81 -1q-7 0 -11.5 6z" />
    <glyph glyph-name="lcommaaccent" unicode="&#x13c;" horiz-adv-x="249" 
d="M67 -207l2 9q6 4 28 26q18 21 21 30q3 7 3 17q-13 8 -21 20t-8 24q0 13 11.5 22t26.5 9q22 0 33 -29l-2 -3q2 -2 2 -12q0 -17 -12.5 -46t-31.5 -51q-18 -22 -36 -24zM73 10q2 6 2 33q0 92 3 273q3 180 3 260l2 36l3 30q0 7 7 7q5 0 14 -3l3 -1q0 -22 -1 -40v-39v-109
q1 -48 1 -109q-1 -5 -1 -22l-1 -21q-1 -20 -1 -41q0 -23 1 -42l1 -43l-3 -8l1 1q0 -3 -1 -4v-4q0 -8 3 -14l-3 -96v-6q0 -17 1 -20q0 -5 5 -5l52 -2q23 0 31.5 -0.5t10.5 -0.5h3q5 0 10 -5.5t5 -11.5q0 -12 -16 -13q-17 1 -83 1l2 -1q-10 0 -19 -1q-8 -2 -18 -2
q-14 0 -17 23z" />
    <glyph glyph-name="Lcaron" unicode="&#x13d;" horiz-adv-x="247" 
d="M70 819q-20 35 -37 77t-18 57l19 13l17 -23q0 -8 8 -34q10 -28 19.5 -56t14.5 -40q23 87 28 150l14 8q18 -3 18 -12q0 -1 -4 -11l1 -5l-8 -15l1 -6l-11 -36q-18 -48 -18 -81q0 -21 -15 -21q-9 0 -29 35zM92.5 0q-4.5 6 -4.5 15v16v24q0 63 -5 142q-4 84 -4 142
q0 54 -5 209q-6 140 -6 209q0 5 4.5 8.5t10.5 3.5q18 0 18 -15q0 -185 3 -277l5 -179q0 -42 6 -137l6 -124q0 -3 3 -3q1 -1 13 -1h62q13 0 13 -18q0 -8 -3 -13.5t-9 -5.5l-7 -1h-8q-21 -1 -81 -1q-7 0 -11.5 6z" />
    <glyph glyph-name="lcaron" unicode="&#x13e;" horiz-adv-x="249" 
d="M66 712q-20 35 -37 77t-18 57l19 13l17 -23q0 -8 8 -34q10 -28 19.5 -56t14.5 -40q23 87 28 150l14 8q18 -3 18 -12q0 -1 -4 -11l1 -5l-8 -15l1 -6l-11 -36q-18 -48 -18 -81q0 -21 -15 -21q-9 0 -29 35zM73 10q2 6 2 33q0 92 3 273q3 180 3 260l2 36l3 30q0 7 7 7
q5 0 14 -3l3 -1q0 -22 -1 -40v-39v-109q1 -48 1 -109q-1 -5 -1 -22l-1 -21q-1 -20 -1 -41q0 -23 1 -42l1 -43l-3 -8l1 1q0 -3 -1 -4v-4q0 -8 3 -14l-3 -96v-6q0 -17 1 -20q0 -5 5 -5l52 -2q23 0 31.5 -0.5t10.5 -0.5h3q5 0 10 -5.5t5 -11.5q0 -12 -16 -13q-17 1 -83 1l2 -1
q-10 0 -19 -1q-8 -2 -18 -2q-14 0 -17 23z" />
    <glyph glyph-name="Ldot" unicode="&#x13f;" horiz-adv-x="310" 
d="M92.5 0q-4.5 6 -4.5 15v16v24q0 63 -5 142q-4 84 -4 142q0 54 -5 209q-6 140 -6 209q0 5 4.5 8.5t10.5 3.5q18 0 18 -15q0 -185 3 -277l5 -179q0 -42 6 -137l6 -124q0 -3 3 -3q1 -1 13 -1h62q13 0 13 -18q0 -8 -3 -13.5t-9 -5.5l-7 -1h-8q-21 -1 -81 -1q-7 0 -11.5 6z
M242.5 347.5q-6.5 7.5 -6.5 16.5q0 10 8 18.5t18 8.5q8 0 16 -8.5t8 -17.5q0 -25 -28 -25q-9 0 -15.5 7.5z" />
    <glyph glyph-name="ldot" unicode="&#x140;" horiz-adv-x="333" 
d="M73 10q2 6 2 33q0 92 3 273q3 180 3 260l2 36l3 30q0 7 7 7q5 0 14 -3l3 -1q0 -22 -1 -40v-39v-109q1 -48 1 -109q-1 -5 -1 -22l-1 -21q-1 -20 -1 -41q0 -23 1 -42l1 -43l-3 -8l1 1q0 -3 -1 -4v-4q0 -8 3 -14l-3 -96v-6q0 -17 1 -20q0 -5 5 -5l52 -2q23 0 31.5 -0.5
t10.5 -0.5h3q5 0 10 -5.5t5 -11.5q0 -12 -16 -13q-17 1 -83 1l2 -1q-10 0 -19 -1q-8 -2 -18 -2q-14 0 -17 23zM245.5 303.5q-6.5 7.5 -6.5 16.5q0 10 8 18.5t18 8.5q8 0 16 -8.5t8 -17.5q0 -25 -28 -25q-9 0 -15.5 7.5z" />
    <glyph glyph-name="Lslash" unicode="&#x141;" horiz-adv-x="262" 
d="M228 15q0 -8 -3.5 -13.5t-9.5 -5.5l-7 -1h-8q-21 -1 -80 -1q-7 0 -12 6t-5 15l1 16v24q0 37 -5 142q-5 79 -5 142v46l-31 -14l-31 -14q-4 -2 -10 -2q-5 0 -10.5 3t-5.5 7q0 11 87 54l-4 129q-6 140 -6 209q0 5 4.5 8.5t10.5 3.5q18 0 18 -15q0 -196 4 -277l1 -44
q19 10 69 32q6 2 10 2q6 0 11.5 -3t5.5 -7q0 -11 -95 -58l3 -101q0 -58 5 -137l6 -124q0 -3 3 -3q1 -1 13 -1h62q14 0 14 -18z" />
    <glyph glyph-name="lslash" unicode="&#x142;" horiz-adv-x="272" 
d="M243 14.5q5 -5.5 5 -11.5q0 -11 -17 -13q-17 1 -83 1l2 -1q-10 0 -18 -1q-8 -2 -19 -2q-14 0 -16 23q2 12 2 33q0 92 3 273v13q-37 -18 -57 -26l-9 -2q-6 0 -11 3t-5 8q0 10 83 52q1 95 1 212l3 36l2 30q0 7 8 7q2 0 14 -3l2 -1v-40q-1 -17 -1 -39q0 -61 1 -109v-78
l23 11q14 6 26 11.5t21 9.5q4 2 10 2t11.5 -3t5.5 -7q0 -11 -97 -59l-1 -39l-2 -41l1 -42q1 -19 1 -43l-3 -8l1 1v-4q-1 -1 -1 -4q0 -8 3 -14l-3 -96v-6l1 -20q1 -5 5 -5l52 -2q23 0 31.5 -0.5t10.5 -0.5h3q6 0 11 -5.5z" />
    <glyph glyph-name="Nacute" unicode="&#x143;" horiz-adv-x="380" 
d="M259 -4q-6 7 -8 16l-3 19q-3 12 -3 15q-112 401 -123 450q-9 36 -41 200q-1 -6 -1 -41v-362l2 -143l2 -142l-6 -8h-23l-3 8q2 10 2 40l-1 174l-2 174v131v95q-1 42 -1 94q0 6 -1 11v10q0 12 6.5 16.5t20.5 4.5q6 0 13.5 -6t9.5 -13l21 -98q14 -70 24 -106q21 -83 72 -272
q29 -124 52 -190q6 15 6 48q0 97 2 174l2 174q0 43 1 78v77l-1 141q5 14 21 14q8 0 8 -29q0 -13 -1 -21q0 -8 -0.5 -11.5t-0.5 -4.5v-64q0 -133 -1 -237q-1 -105 -1 -236q0 -25 -3 -79l-2 -79q0 -29 -26 -29q-7 0 -13 7zM175.5 805q-5.5 4 -5.5 10q0 3 28 26l32 26l27 21
q34 26 37 29q22 0 22 -15l-3 -16q-52 -24 -125 -85q-7 0 -12.5 4z" />
    <glyph glyph-name="nacute" unicode="&#x144;" horiz-adv-x="460" 
d="M315.5 2q-3.5 6 -6.5 18q-1 8 -4 14l1 3q-8 47 -34 115l-18 52q-2 2 -19 51l-8 24q-90 278 -113 301q-8 -27 -8 -70q0 -23 1 -40l1 -39l-1 -24q-1 -11 -1 -24q0 -22 2 -38l2 -32h-3q0 -167 7 -184v-90q4 -8 4 -21q0 -8 -5.5 -14t-13.5 -6q-21 0 -21 54l2 32q2 15 2 33
q0 48 -3 144t-3 144q0 29 3 89q3 59 3 88v13q0 49 18 64l3 -3l10 2q4 -1 9 -6q4 -4 4 -9l2 -6q0 -2 0.5 -3.5l0.5 -1.5q16 -71 72 -199q57 -135 71 -179q10 -35 16 -62q19 -85 45 -131l2 3q23 222 23 545l-1 12q-1 5 -1 13q0 21 14 21q9 0 15.5 -9t6.5 -20v-67l-5 -8
q0 -95 -11 -312t-21 -236l-17 -4v-1l-1 1l-10 -3q-8 0 -11.5 6zM217.5 688q-5.5 4 -5.5 10q0 3 28 26l32 26l27 21q34 26 37 29q22 0 22 -15l-3 -16q-52 -24 -125 -85q-7 0 -12.5 4z" />
    <glyph glyph-name="Ncommaaccent" unicode="&#x145;" horiz-adv-x="380" 
d="M142 -207l2 9q6 4 28 26q18 21 21 30q3 7 3 17q-13 8 -21 20t-8 24q0 13 11.5 22t26.5 9q22 0 33 -29l-2 -3q2 -2 2 -12q0 -17 -12.5 -46t-31.5 -51q-18 -22 -36 -24zM259 -4q-6 7 -8 16l-3 19q-3 12 -3 15q-112 401 -123 450q-9 36 -41 200q-1 -6 -1 -41v-362l2 -143
l2 -142l-6 -8h-23l-3 8q2 10 2 40l-1 174l-2 174v131v95q-1 42 -1 94q0 6 -1 11v10q0 12 6.5 16.5t20.5 4.5q6 0 13.5 -6t9.5 -13l21 -98q14 -70 24 -106q21 -83 72 -272q29 -124 52 -190q6 15 6 48q0 97 2 174l2 174q0 43 1 78v77l-1 141q5 14 21 14q8 0 8 -29
q0 -13 -1 -21q0 -8 -0.5 -11.5t-0.5 -4.5v-64q0 -133 -1 -237q-1 -105 -1 -236q0 -25 -3 -79l-2 -79q0 -29 -26 -29q-7 0 -13 7z" />
    <glyph glyph-name="ncommaaccent" unicode="&#x146;" horiz-adv-x="460" 
d="M182 -207l2 9q6 4 28 26q18 21 21 30q3 7 3 17q-13 8 -21 20t-8 24q0 13 11.5 22t26.5 9q22 0 33 -29l-2 -3q2 -2 2 -12q0 -17 -12.5 -46t-31.5 -51q-18 -22 -36 -24zM315.5 2q-3.5 6 -6.5 18q-1 8 -4 14l1 3q-8 47 -34 115l-18 52q-2 2 -19 51l-8 24q-90 278 -113 301
q-8 -27 -8 -70q0 -23 1 -40l1 -39l-1 -24q-1 -11 -1 -24q0 -22 2 -38l2 -32h-3q0 -167 7 -184v-90q4 -8 4 -21q0 -8 -5.5 -14t-13.5 -6q-21 0 -21 54l2 32q2 15 2 33q0 48 -3 144t-3 144q0 29 3 89q3 59 3 88v13q0 49 18 64l3 -3l10 2q4 -1 9 -6q4 -4 4 -9l2 -6
q0 -2 0.5 -3.5l0.5 -1.5q16 -71 72 -199q57 -135 71 -179q10 -35 16 -62q19 -85 45 -131l2 3q23 222 23 545l-1 12q-1 5 -1 13q0 21 14 21q9 0 15.5 -9t6.5 -20v-67l-5 -8q0 -95 -11 -312t-21 -236l-17 -4v-1l-1 1l-10 -3q-8 0 -11.5 6z" />
    <glyph glyph-name="Ncaron" unicode="&#x147;" horiz-adv-x="380" 
d="M176 819q-20 35 -37 77t-18 57l19 13l17 -23q0 -8 8 -34q10 -28 19.5 -56t14.5 -40q23 87 28 150l14 8q18 -3 18 -12q0 -1 -4 -11l1 -5l-8 -15l1 -6l-11 -36q-18 -48 -18 -81q0 -21 -15 -21q-9 0 -29 35zM259 -4q-6 7 -8 16l-3 19q-3 12 -3 15q-112 401 -123 450
q-9 36 -41 200q-1 -6 -1 -41v-362l2 -143l2 -142l-6 -8h-23l-3 8q2 10 2 40l-1 174l-2 174v131v95q-1 42 -1 94q0 6 -1 11v10q0 12 6.5 16.5t20.5 4.5q6 0 13.5 -6t9.5 -13l21 -98q14 -70 24 -106q21 -83 72 -272q29 -124 52 -190q6 15 6 48q0 97 2 174l2 174q0 43 1 78v77
l-1 141q5 14 21 14q8 0 8 -29q0 -13 -1 -21q0 -8 -0.5 -11.5t-0.5 -4.5v-64q0 -133 -1 -237q-1 -105 -1 -236q0 -25 -3 -79l-2 -79q0 -29 -26 -29q-7 0 -13 7z" />
    <glyph glyph-name="ncaron" unicode="&#x148;" horiz-adv-x="460" 
d="M201 712q-20 35 -37 77t-18 57l19 13l17 -23q0 -8 8 -34q10 -28 19.5 -56t14.5 -40q23 87 28 150l14 8q18 -3 18 -12q0 -1 -4 -11l1 -5l-8 -15l1 -6l-11 -36q-18 -48 -18 -81q0 -21 -15 -21q-9 0 -29 35zM315.5 2q-3.5 6 -6.5 18q-1 8 -4 14l1 3q-8 47 -34 115l-18 52
q-2 2 -19 51l-8 24q-90 278 -113 301q-8 -27 -8 -70q0 -23 1 -40l1 -39l-1 -24q-1 -11 -1 -24q0 -22 2 -38l2 -32h-3q0 -167 7 -184v-90q4 -8 4 -21q0 -8 -5.5 -14t-13.5 -6q-21 0 -21 54l2 32q2 15 2 33q0 48 -3 144t-3 144q0 29 3 89q3 59 3 88v13q0 49 18 64l3 -3l10 2
q4 -1 9 -6q4 -4 4 -9l2 -6q0 -2 0.5 -3.5l0.5 -1.5q16 -71 72 -199q57 -135 71 -179q10 -35 16 -62q19 -85 45 -131l2 3q23 222 23 545l-1 12q-1 5 -1 13q0 21 14 21q9 0 15.5 -9t6.5 -20v-67l-5 -8q0 -95 -11 -312t-21 -236l-17 -4v-1l-1 1l-10 -3q-8 0 -11.5 6z" />
    <glyph glyph-name="napostrophe" unicode="&#x149;" horiz-adv-x="488" 
d="M40.5 740q-3.5 3 -3.5 8q0 2 2 6q4 5 12 12t15 14q15 15 22 30q3 8 3 17q-16 4 -22.5 14.5t-6.5 29.5q0 16 11 23.5t27 7.5q44 0 44 -40q0 -25 -24.5 -62.5t-56.5 -58.5q-5 -4 -13 -4q-6 0 -9.5 3zM327.5 2q-3.5 6 -6.5 18q-4 13 -5 14l1 3q-7 45 -33 115l-18 52
q-4 4 -27 75q-90 278 -114 301q-7 -28 -7 -70q0 -23 1 -40l1 -39l-1 -24q-1 -11 -1 -24q0 -22 2 -38l2 -32h-3q0 -166 6 -184v-90q4 -5 4 -21q0 -8 -5 -14t-13 -6q-21 0 -21 54q0 18 2 32l2 33q0 48 -3 144q-4 85 -4 144q0 36 4 89q3 59 3 88v13q0 49 18 64l3 -3l10 2
q5 -2 9 -6q4 -8 4 -9l2 -6q0 -2 0.5 -3.5l0.5 -1.5q16 -68 71 -199q50 -115 72 -179l16 -62q19 -85 45 -131l2 3q23 222 23 545l-1 12q-1 5 -1 13q0 21 14 21q9 0 15.5 -9t6.5 -20v-67l-6 -8q0 -93 -11 -311t-20 -237l-17 -4v-1l-1 1q-8 -3 -11 -3q-7 0 -10.5 6z" />
    <glyph glyph-name="Eng" unicode="&#x14a;" horiz-adv-x="449" 
d="M231 -209q1 9 24 24q9 5 13 9q44 46 44 153v9q-6 8 -11 25q1 -4 -20 63q-22 67 -38.5 123.5t-36.5 129.5q-27 100 -39 169q-1 3 -1 6.5t-1 7.5q0 19 -9 28l2 5l-11 59l-6 25q-7 32 -17 57l-3 -20v-9q0 -15 2 -19q-7 -21 -7 -69v-274q0 -55 7 -143q6 -94 6 -142l-6 -8h-23
l-3 8q2 10 2 40q0 59 -6 174q-6 116 -6 174v131l2 64l2 31q4 56 4 94q0 6 -1 11v10q0 12 6.5 16.5t20.5 4.5q7 0 15 -6t8 -13q0 -19 4 -35t13 -35q9 -22 13 -38t8 -48l6 -48q14 -62 49 -187l10 -35q15 -51 25 -101t14 -59l28 -97q5 57 5 65q0 97 2 174l2 174l-2 78
q-1 34 -1 77q0 11 1 20l2 18q0 10 -3 13l3 8v23q0 33 -4 59q3 14 25 14q16 0 16 -33q-6 -10 -6 -33v-17v-17q0 -21 -3 -30l-2 -158q-1 -70 -1 -158q0 -15 2 -27l-2 -4v-126q0 -25 -3 -79l-2 -79q0 -11 -3 -37t-3 -45q0 -50 -23 -93t-62 -71q-21 0 -21 19z" />
    <glyph glyph-name="eng" unicode="&#x14b;" horiz-adv-x="488" 
d="M229 -200l-1 2v2q0 3 9 6q36 8 56 26q19 16 29 52.5t12 79.5l-17 69q-12 48 -34 115q-7 21 -11 33.5t-6 18.5q-2 2 -8.5 20t-12.5 37l-6 18q-90 278 -114 301q-7 -28 -7 -70q0 -23 1 -40l1 -39l-1 -24q-1 -11 -1 -24q0 -14 1 -26l1 -27q0 -5 -1 -8v-9q0 -166 6 -184v-90
q4 -5 4 -21q0 -8 -5 -14t-13 -6q-21 0 -21 54q0 18 2 32l2 33q0 48 -3 144q-4 85 -4 144q0 36 4 89q3 59 3 88v6v15t1 19t4 16q5 14 13 21l3 -3l10 2q5 -2 9 -6q4 -8 4 -9l2 -6q0 -2 0.5 -3.5l0.5 -1.5q16 -68 71 -199q50 -115 72 -179l16 -62q19 -85 45 -131l2 3
q23 222 23 545l-1 12q-1 5 -1 13q0 21 14 21q9 0 15.5 -9t6.5 -20v-67l-6 -8q0 -50 -22 -402l-9 -143v-32q0 -46 -14 -92q-20 -60 -57 -84q-22 -15 -50 -15z" />
    <glyph glyph-name="Omacron" unicode="&#x14c;" horiz-adv-x="368" 
d="M61 460v40q0 84 10 146q6 39 16.5 64t28.5 40q17 17 44 17q24 0 44 -9.5t33 -24.5q11 -14 20 -37t14 -44l8 -47q24 -171 24 -303v-3q0 -50 -2 -92q-2 -50 -11 -105q-4 -27 -11.5 -47t-19.5 -40q-21 -36 -59 -36q-139 0 -139 481zM231 25.5q13 18.5 20 51.5q16 70 20 137
q2 54 2 105v4l-1 100q-2 54 -12 140q-8 61 -33 125q-10 25 -26.5 39t-35.5 14q-17 0 -30 -16t-21 -45q-18 -67 -20 -124q-3 -49 -3 -101v-49q0 -67 13 -170q8 -65 20 -113t32 -81q20 -35 46 -35q16 0 29 18.5zM85 835q-15 2 -19 7q-2 4 -2 7q0 8 64 8h56q35 0 51 -2
q12 -1 17 -4.5t5 -9.5q-2 -8 -64 -8h-57h-19q-25 0 -32 2z" />
    <glyph glyph-name="omacron" unicode="&#x14d;" horiz-adv-x="346" 
d="M98 707q-15 2 -19 7q-2 4 -2 7q0 8 64 8h56q35 0 51 -2q12 -1 17 -4.5t5 -9.5q-2 -8 -64 -8h-57h-19q-25 0 -32 2zM59 349v35q0 279 72 279q5 0 14 -3q32 -11 63 -14q19 -4 38 -39q21 -36 31.5 -95t10.5 -121l-2 -5q0 -33 1 -59l1 -60q0 -51 -4 -92q-6 -62 -20 -107
q-9 -27 -20.5 -45t-28.5 -30q-16 -12 -39 -12q-117 0 -117 368zM230 65q19 56 23 114q4 60 4 96q0 40 -6 118q-5 87 -5 118l-4 8l2 5q0 44 -24.5 76t-59.5 32q-46 0 -55 -44q-2 -15 -4 -43q0 -74 -6 -101q0 -15 -3 -47l-2 -47q0 -22 1 -39l1 -40q0 -47 8 -108q6 -45 14 -76
t23 -53q15 -24 35 -24q39 0 58 55z" />
    <glyph glyph-name="Obreve" unicode="&#x14e;" horiz-adv-x="368" 
d="M100 841q-15 32 -15 68l11 9q7 -2 10 -16q8 -52 25 -64l11 -8h25q12 0 23 17.5t11 33.5v7q-1 3 -1 7q0 19 18 19q5 0 10 -4.5t5 -9.5l-2 -9l-3 -7l2 -7q-1 -3 -3 -7.5t-4 -9.5q-10 -22 -17 -31q-5 -8 -10.5 -12t-15.5 -7q-11 -3 -22 -3q-40 0 -58 34zM61 460v40
q0 84 10 146q6 39 16.5 64t28.5 40q17 17 44 17q24 0 44 -9.5t33 -24.5q11 -14 20 -37t14 -44l8 -47q24 -171 24 -303v-3q0 -50 -2 -92q-2 -50 -11 -105q-4 -27 -11.5 -47t-19.5 -40q-21 -36 -59 -36q-139 0 -139 481zM231 25.5q13 18.5 20 51.5q16 70 20 137q2 54 2 105v4
l-1 100q-2 54 -12 140q-8 61 -33 125q-10 25 -26.5 39t-35.5 14q-17 0 -30 -16t-21 -45q-18 -67 -20 -124q-3 -49 -3 -101v-49q0 -67 13 -170q8 -65 20 -113t32 -81q20 -35 46 -35q16 0 29 18.5z" />
    <glyph glyph-name="obreve" unicode="&#x14f;" horiz-adv-x="346" 
d="M113 720q-15 32 -15 68l11 9q7 -2 10 -16q8 -52 25 -64l11 -8h25q12 0 23 17.5t11 33.5v7q-1 3 -1 7q0 19 18 19q5 0 10 -4.5t5 -9.5l-2 -9l-3 -7l2 -7q-1 -3 -3 -7.5t-4 -9.5q-10 -22 -17 -31q-5 -8 -10.5 -12t-15.5 -7q-11 -3 -22 -3q-40 0 -58 34zM59 349v35
q0 279 72 279q5 0 14 -3q32 -11 63 -14q19 -4 38 -39q21 -36 31.5 -95t10.5 -121l-2 -5q0 -33 1 -59l1 -60q0 -51 -4 -92q-6 -62 -20 -107q-9 -27 -20.5 -45t-28.5 -30q-16 -12 -39 -12q-117 0 -117 368zM230 65q19 56 23 114q4 60 4 96q0 40 -6 118q-5 87 -5 118l-4 8l2 5
q0 44 -24.5 76t-59.5 32q-46 0 -55 -44q-2 -15 -4 -43q0 -74 -6 -101q0 -15 -3 -47l-2 -47q0 -22 1 -39l1 -40q0 -47 8 -108q6 -45 14 -76t23 -53q15 -24 35 -24q39 0 58 55z" />
    <glyph glyph-name="Ohungarumlaut" unicode="&#x150;" horiz-adv-x="368" 
d="M65 795q3 10 84.5 73.5t90.5 63.5q3 0 7 -5t4 -10t-6 -10q-80 -60 -99 -73q-15 -7 -34 -23q-24 -17 -42 -22zM216 800q0 7 46 41.5t77 54.5q52 29 56 29q5 0 11.5 -8t8.5 -16l-51 -30q-12 -3 -55 -26l-25 -17l-40 -25q-20 -11 -23 -11q-5 0 -5 8zM61 460v40q0 84 10 146
q6 39 16.5 64t28.5 40q17 17 44 17q24 0 44 -9.5t33 -24.5q11 -14 20 -37t14 -44l8 -47q24 -171 24 -303v-3q0 -50 -2 -92q-2 -50 -11 -105q-4 -27 -11.5 -47t-19.5 -40q-21 -36 -59 -36q-139 0 -139 481zM231 25.5q13 18.5 20 51.5q16 70 20 137q2 54 2 105v4l-1 100
q-2 54 -12 140q-8 61 -33 125q-10 25 -26.5 39t-35.5 14q-17 0 -30 -16t-21 -45q-18 -67 -20 -124q-3 -49 -3 -101v-49q0 -67 13 -170q8 -65 20 -113t32 -81q20 -35 46 -35q16 0 29 18.5z" />
    <glyph glyph-name="ohungarumlaut" unicode="&#x151;" horiz-adv-x="346" 
d="M61 684q3 10 84.5 73.5t90.5 63.5q3 0 7 -5t4 -10t-6 -10q-80 -60 -99 -73q-15 -7 -34 -23q-24 -17 -42 -22zM212 689q0 7 46 41.5t77 54.5q52 29 56 29q5 0 11.5 -8t8.5 -16l-51 -30q-12 -3 -55 -26l-25 -17l-40 -25q-20 -11 -23 -11q-5 0 -5 8zM59 349v35q0 279 72 279
q5 0 14 -3q32 -11 63 -14q19 -4 38 -39q21 -36 31.5 -95t10.5 -121l-2 -5q0 -33 1 -59l1 -60q0 -51 -4 -92q-6 -62 -20 -107q-9 -27 -20.5 -45t-28.5 -30q-16 -12 -39 -12q-117 0 -117 368zM230 65q19 56 23 114q4 60 4 96q0 40 -6 118q-5 87 -5 118l-4 8l2 5q0 44 -24.5 76
t-59.5 32q-46 0 -55 -44q-2 -15 -4 -43q0 -74 -6 -101q0 -15 -3 -47l-2 -47q0 -22 1 -39l1 -40q0 -47 8 -108q6 -45 14 -76t23 -53q15 -24 35 -24q39 0 58 55z" />
    <glyph glyph-name="OE" unicode="&#x152;" horiz-adv-x="555" 
d="M363 5l6 16q-10 -1 -34 -9q-22 -7 -37 -7q-55 0 -99.5 20t-73.5 57q-59 71 -59 184q0 34 -3 103l-2 102q0 52 11 114q12 65 43 118q16 26 39.5 40.5t51.5 14.5q110 0 144 -39l-3 11l15 21q7 0 20 -3q12 -3 19 -3h74l11 1q5 1 11 1q5 -4 10 -9.5t5 -8.5q0 -11 -18 -11
l-59 2q-26 2 -59 2q0 -41 7 -111q7 -69 7 -111q0 -15 -1 -26l-1 -26q0 -23 5 -41l39 -1q7 0 13 1t13 1q15 0 24 -12q0 -9 -3 -12.5t-13 -3.5q-12 0 -22 1l-23 2q-29 0 -29 -9q0 -73 4 -178q3 -120 3 -179l36 3q18 1 41 1q69 0 69 -19l-6 -9q-42 0 -76 -1l-76 -2
q-22 0 -24 15zM333 42q18 3 29 12t11 21q0 93 -7 244q-7 189 -7 244q0 21 -3 61q-3 39 -3 60q-18 24 -52.5 35.5t-77.5 11.5q-29 0 -52.5 -12.5t-37.5 -34.5q-30 -45 -40 -105q-8 -55 -8 -107v-36q1 -16 1 -35l-1 -36l2 -3q0 -50 12 -146q6 -48 18 -82q12 -35 29 -38
q58 -61 128 -61q25 0 59 7z" />
    <glyph glyph-name="oe" unicode="&#x153;" horiz-adv-x="442" 
d="M59 349q0 81 10.5 146t28.5 102q36 74 81 74q21 0 38.5 -17t28.5 -47q0 -2 7 -17l9 -17q-2 26 -2 58q0 15 7 21.5t22 6.5q10 0 16 -6q2 -1 29 -4q25 -3 43 -9q19 -6 19 -15t-18 -20q-59 19 -81 19l-5 -6v-43q0 -43 -1 -77q-2 -35 -2 -78q0 -28 14 -28l16 1q8 1 18 1
q38 0 38 -18q0 -11 -5 -18.5t-15 -7.5q-16 0 -22 8l-33 5h-4l-5 -8q1 -17 1 -79v-71q-1 -32 -1 -71q0 -26 2 -80q1 -23 10.5 -30.5t33.5 -7.5l18 1q8 1 19 1q29 0 29 -13q0 -18 -43 -18h-83q-18 0 -20 21v13q1 5 1 12l-3 4l5 20q-28 -76 -84 -76q-117 0 -117 368zM230 65
q19 56 23 114q4 60 4 96q0 40 -6 118q-5 87 -5 118l-4 8l2 5q0 60 -15 90q-13 30 -37 30q-23 0 -45.5 -27.5t-37 -73.5t-14.5 -99q0 -15 -3 -47l-2 -47q0 -22 1 -39l1 -40q0 -47 8 -108q6 -45 14 -76t23 -53q15 -24 35 -24q39 0 58 55z" />
    <glyph glyph-name="Racute" unicode="&#x154;" horiz-adv-x="283" 
d="M219 10l-12 44q-28 93 -41 157q-8 35 -20 97q-14 72 -26 117l-10 -6l-13 -6l2 -385v-15q0 -20 -18 -20q-8 0 -13 5t-5 12v15l2 202l2 97q4 175 4 298v129q0 9 18 9q26 0 48.5 -14t35.5 -38q27 -49 27 -107q0 -46 -20 -100q-6 -15 -15 -34.5t-16 -26.5q21 -77 61 -237
l47 -180q1 -3 1 -11q0 -9 -3.5 -15.5t-10.5 -6.5q-20 0 -25 20zM123 465q19 19 27 32q7 14 12 42t5 50q0 41 -14 84q-7 25 -21 40.5t-31 15.5h-2q-1 -1 -3 -1v-282q8 0 27 19zM92.5 805q-5.5 4 -5.5 10q0 3 28 26l32 26l27 21q34 26 37 29q22 0 22 -15l-3 -16
q-52 -24 -125 -85q-7 0 -12.5 4z" />
    <glyph glyph-name="racute" unicode="&#x155;" horiz-adv-x="290" 
d="M225 -12q-12 13 -26 69t-26 126q-8 57 -23 113q-12 50 -23 50h-3q-22 0 -22 -14q0 -72 8 -219q4 -90 9 -105l-8 -17h-14l-8 8q-16 462 -16 630q0 11 1.5 18t6.5 13q4 7 14 7q51 0 82 -25t31 -72v-73q0 -19 -12.5 -51t-27.5 -59l-13 -25q11 -51 43.5 -183.5t35.5 -140.5
q1 -1 2.5 -5t6.5 -12q7 -14 7 -24q0 -14 -11 -14zM141 390q15 19 24 49q16 61 16 97q0 23 -2.5 38t-8.5 32q-12 35 -57 35q-5 0 -8 -8.5t-3 -17.5q0 -67 2 -121q1 -54 1 -121l2 -2q19 0 34 19zM108.5 688q-5.5 4 -5.5 10q0 3 28 26l32 26l27 21q34 26 37 29q22 0 22 -15
l-3 -16q-52 -24 -125 -85q-7 0 -12.5 4z" />
    <glyph glyph-name="Rcommaaccent" unicode="&#x156;" horiz-adv-x="283" 
d="M94 -207l2 9q6 4 28 26q18 21 21 30q3 7 3 17q-13 8 -21 20t-8 24q0 13 11.5 22t26.5 9q22 0 33 -29l-2 -3q2 -2 2 -12q0 -17 -12.5 -46t-31.5 -51q-18 -22 -36 -24zM219 10l-12 44q-28 93 -41 157q-8 35 -20 97q-14 72 -26 117l-10 -6l-13 -6l2 -385v-15q0 -20 -18 -20
q-8 0 -13 5t-5 12v15l2 202l2 97q4 175 4 298v129q0 9 18 9q26 0 48.5 -14t35.5 -38q27 -49 27 -107q0 -46 -20 -100q-6 -15 -15 -34.5t-16 -26.5q21 -77 61 -237l47 -180q1 -3 1 -11q0 -9 -3.5 -15.5t-10.5 -6.5q-20 0 -25 20zM123 465q19 19 27 32q7 14 12 42t5 50
q0 41 -14 84q-7 25 -21 40.5t-31 15.5h-2q-1 -1 -3 -1v-282q8 0 27 19z" />
    <glyph glyph-name="rcommaaccent" unicode="&#x157;" horiz-adv-x="290" 
d="M97 -207l2 9q6 4 28 26q18 21 21 30q3 7 3 17q-13 8 -21 20t-8 24q0 13 11.5 22t26.5 9q22 0 33 -29l-2 -3q2 -2 2 -12q0 -17 -12.5 -46t-31.5 -51q-18 -22 -36 -24zM225 -12q-12 13 -26 69t-26 126q-8 57 -23 113q-12 50 -23 50h-3q-22 0 -22 -14q0 -72 8 -219
q4 -90 9 -105l-8 -17h-14l-8 8q-16 462 -16 630q0 11 1.5 18t6.5 13q4 7 14 7q51 0 82 -25t31 -72v-73q0 -19 -12.5 -51t-27.5 -59l-13 -25q11 -51 43.5 -183.5t35.5 -140.5q1 -1 2.5 -5t6.5 -12q7 -14 7 -24q0 -14 -11 -14zM141 390q15 19 24 49q16 61 16 97q0 23 -2.5 38
t-8.5 32q-12 35 -57 35q-5 0 -8 -8.5t-3 -17.5q0 -67 2 -121q1 -54 1 -121l2 -2q19 0 34 19z" />
    <glyph glyph-name="Rcaron" unicode="&#x158;" horiz-adv-x="283" 
d="M93 819q-20 35 -37 77t-18 57l19 13l17 -23q0 -8 8 -34q10 -28 19.5 -56t14.5 -40q23 87 28 150l14 8q18 -3 18 -12q0 -1 -4 -11l1 -5l-8 -15l1 -6l-11 -36q-18 -48 -18 -81q0 -21 -15 -21q-9 0 -29 35zM219 10l-12 44q-28 93 -41 157q-8 35 -20 97q-14 72 -26 117
l-10 -6l-13 -6l2 -385v-15q0 -20 -18 -20q-8 0 -13 5t-5 12v15l2 202l2 97q4 175 4 298v129q0 9 18 9q26 0 48.5 -14t35.5 -38q27 -49 27 -107q0 -46 -20 -100q-6 -15 -15 -34.5t-16 -26.5q21 -77 61 -237l47 -180q1 -3 1 -11q0 -9 -3.5 -15.5t-10.5 -6.5q-20 0 -25 20z
M123 465q19 19 27 32q7 14 12 42t5 50q0 41 -14 84q-7 25 -21 40.5t-31 15.5h-2q-1 -1 -3 -1v-282q8 0 27 19z" />
    <glyph glyph-name="rcaron" unicode="&#x159;" horiz-adv-x="290" 
d="M92 712q-20 35 -37 77t-18 57l19 13l17 -23q0 -8 8 -34q10 -28 19.5 -56t14.5 -40q23 87 28 150l14 8q18 -3 18 -12q0 -1 -4 -11l1 -5l-8 -15l1 -6l-11 -36q-18 -48 -18 -81q0 -21 -15 -21q-9 0 -29 35zM225 -12q-12 13 -26 69t-26 126q-8 57 -23 113q-12 50 -23 50h-3
q-22 0 -22 -14q0 -72 8 -219q4 -90 9 -105l-8 -17h-14l-8 8q-16 462 -16 630q0 11 1.5 18t6.5 13q4 7 14 7q51 0 82 -25t31 -72v-73q0 -19 -12.5 -51t-27.5 -59l-13 -25q11 -51 43.5 -183.5t35.5 -140.5q1 -1 2.5 -5t6.5 -12q7 -14 7 -24q0 -14 -11 -14zM141 390
q15 19 24 49q16 61 16 97q0 23 -2.5 38t-8.5 32q-12 35 -57 35q-5 0 -8 -8.5t-3 -17.5q0 -67 2 -121q1 -54 1 -121l2 -2q19 0 34 19z" />
    <glyph glyph-name="Sacute" unicode="&#x15a;" horiz-adv-x="303" 
d="M87.5 -20.5q-9.5 1.5 -20.5 6.5q-12 6 -18 17q0 12 11 12t28 -7q16 -8 27 -8q22 0 40.5 18t28.5 47q20 57 20 101q0 49 -14 99t-37 94q-5 11 -17 33q-25 50 -38 78t-23 62q-14 45 -14 97q0 33 10.5 63.5t33.5 52.5q25 23 56 23q12 0 29 -9.5t17 -18.5q0 -8 -6 -8t-16 5
q-9 5 -17 5q-23 0 -40.5 -17t-25.5 -42q-7 -21 -7 -46q0 -39 10 -80.5t27 -77.5l35 -73l10 -21q21 -43 32.5 -71t19.5 -63q11 -47 11 -90q0 -58 -30 -118q-15 -29 -40 -47t-55 -18q-18 0 -27.5 1.5zM137.5 805q-5.5 4 -5.5 10q0 3 28 26l32 26l27 21q34 26 37 29
q22 0 22 -15l-3 -16q-52 -24 -125 -85q-7 0 -12.5 4z" />
    <glyph glyph-name="sacute" unicode="&#x15b;" horiz-adv-x="246" 
d="M62 -3.5q-10 6.5 -11 15.5l5 8q4 0 18 -3q11 -4 18 -4q22 0 39 17.5t26 45.5q14 52 14 98q0 69 -42 148q-26 46 -40 73t-25 62q-13 41 -13 79q0 36 18 85q9 23 25.5 37.5t35.5 14.5q13 0 25.5 -9t12.5 -19q0 -8 -13 -8q-4 0 -10 3t-11 3q-15 0 -27 -12t-18 -31
q-12 -37 -12 -68q0 -19 5 -39q1 -6 2 -10t1 -6l6 -20l5 -18l8 -18q3 -7 6.5 -12.5t6.5 -10.5l12 -21q4 -6 17 -28.5t24 -47.5q10 -21 15 -39.5t9 -44.5q3 -25 3 -55q0 -48 -13 -90q-18 -50 -52 -70q-19 -12 -44 -12l-5 -2q-11 2 -21 8.5zM163 640q0 1 -1 1v-1h1zM115.5 701
q-5.5 4 -5.5 10q0 3 28 26l32 26l27 21q34 26 37 29q22 0 22 -15l-3 -16q-52 -24 -125 -85q-7 0 -12.5 4z" />
    <glyph glyph-name="Scircumflex" unicode="&#x15c;" horiz-adv-x="303" 
d="M184 780q-5 64 -28 150q-4 -6 -34 -96q-8 -26 -8 -34l-17 -23l-19 13q1 15 18 57t37 77t29 35q15 0 15 -21q0 -33 18 -81l11 -36l-1 -6l8 -15l-1 -5q1 -4 2.5 -6.5t1.5 -4.5q0 -9 -18 -12zM87.5 -20.5q-9.5 1.5 -20.5 6.5q-12 6 -18 17q0 12 11 12t28 -7q16 -8 27 -8
q22 0 40.5 18t28.5 47q20 57 20 101q0 49 -14 99t-37 94q-5 11 -17 33q-25 50 -38 78t-23 62q-14 45 -14 97q0 33 10.5 63.5t33.5 52.5q25 23 56 23q12 0 29 -9.5t17 -18.5q0 -8 -6 -8t-16 5q-9 5 -17 5q-23 0 -40.5 -17t-25.5 -42q-7 -21 -7 -46q0 -39 10 -80.5t27 -77.5
l35 -73l10 -21q21 -43 32.5 -71t19.5 -63q11 -47 11 -90q0 -58 -30 -118q-15 -29 -40 -47t-55 -18q-18 0 -27.5 1.5z" />
    <glyph glyph-name="scircumflex" unicode="&#x15d;" horiz-adv-x="246" 
d="M165 686q-5 64 -28 150q-4 -6 -34 -96q-8 -26 -8 -34l-17 -23l-19 13q1 15 18 57t37 77t29 35q15 0 15 -21q0 -33 18 -81l11 -36l-1 -6l8 -15l-1 -5q1 -4 2.5 -6.5t1.5 -4.5q0 -9 -18 -12zM62 -3.5q-10 6.5 -11 15.5l5 8q4 0 18 -3q11 -4 18 -4q22 0 39 17.5t26 45.5
q14 52 14 98q0 69 -42 148q-26 46 -40 73t-25 62q-13 41 -13 79q0 36 18 85q9 23 25.5 37.5t35.5 14.5q13 0 25.5 -9t12.5 -19q0 -8 -13 -8q-4 0 -10 3t-11 3q-15 0 -27 -12t-18 -31q-12 -37 -12 -68q0 -19 5 -39q1 -6 2 -10t1 -6l6 -20l5 -18l8 -18q3 -7 6.5 -12.5
t6.5 -10.5l12 -21q4 -6 17 -28.5t24 -47.5q10 -21 15 -39.5t9 -44.5q3 -25 3 -55q0 -48 -13 -90q-18 -50 -52 -70q-19 -12 -44 -12l-5 -2q-11 2 -21 8.5zM163 640q0 1 -1 1v-1h1z" />
    <glyph glyph-name="Scedilla" unicode="&#x15e;" horiz-adv-x="303" 
d="M87.5 -20.5q-9.5 1.5 -20.5 6.5q-12 6 -18 17q0 12 11 12t28 -7q16 -8 27 -8q22 0 40.5 18t28.5 47q20 57 20 101q0 49 -14 99t-37 94q-5 11 -17 33q-25 50 -38 78t-23 62q-14 45 -14 97q0 33 10.5 63.5t33.5 52.5q25 23 56 23q12 0 29 -9.5t17 -18.5q0 -8 -6 -8t-16 5
q-9 5 -17 5q-23 0 -40.5 -17t-25.5 -42q-7 -21 -7 -46q0 -39 10 -80.5t27 -77.5l35 -73l10 -21q21 -43 32.5 -71t19.5 -63q11 -47 11 -90q0 -58 -30 -118q-15 -29 -40 -47t-55 -18q-18 0 -27.5 1.5zM105.5 -226.5q-13.5 7.5 -13.5 19.5q0 10 11 10q4 0 16 -5t16 -5
q17 0 28 20.5t11 48.5q0 33 -15 45l-13 -2l-14 -2q-15 0 -27 20q8 21 8 58v11l29 4q-4 -30 -4 -51q73 -4 73 -100q0 -16 -10.5 -34.5t-28.5 -31.5t-37 -13q-16 0 -29.5 7.5z" />
    <glyph glyph-name="scedilla" unicode="&#x15f;" horiz-adv-x="246" 
d="M62 -3.5q-10 6.5 -11 15.5l5 8q4 0 18 -3q11 -4 18 -4q22 0 39 17.5t26 45.5q14 52 14 98q0 69 -42 148q-26 46 -40 73t-25 62q-13 41 -13 79q0 36 18 85q9 23 25.5 37.5t35.5 14.5q13 0 25.5 -9t12.5 -19q0 -8 -13 -8q-4 0 -10 3t-11 3q-15 0 -27 -12t-18 -31
q-12 -37 -12 -68q0 -19 5 -39q1 -6 2 -10t1 -6l6 -20l5 -18l8 -18q3 -7 6.5 -12.5t6.5 -10.5l12 -21q4 -6 17 -28.5t24 -47.5q10 -21 15 -39.5t9 -44.5q3 -25 3 -55q0 -48 -13 -90q-18 -50 -52 -70q-19 -12 -44 -12l-5 -2q-11 2 -21 8.5zM163 640q0 1 -1 1v-1h1z
M77.5 -211.5q-13.5 7.5 -13.5 19.5q0 10 11 10q4 0 16 -5t16 -5q17 0 28 20.5t11 48.5q0 33 -15 45l-13 -2l-14 -2q-15 0 -27 20q8 21 8 58v11l29 4q-4 -30 -4 -51q73 -4 73 -100q0 -16 -10.5 -34.5t-28.5 -31.5t-37 -13q-16 0 -29.5 7.5z" />
    <glyph glyph-name="Scaron" unicode="&#x160;" horiz-adv-x="303" 
d="M138 819q-20 35 -37 77t-18 57l19 13l17 -23q0 -8 8 -34q10 -28 19.5 -56t14.5 -40q23 87 28 150l14 8q18 -3 18 -12q0 -1 -4 -11l1 -5l-8 -15l1 -6l-11 -36q-18 -48 -18 -81q0 -21 -15 -21q-9 0 -29 35zM87.5 -20.5q-9.5 1.5 -20.5 6.5q-12 6 -18 17q0 12 11 12t28 -7
q16 -8 27 -8q22 0 40.5 18t28.5 47q20 57 20 101q0 49 -14 99t-37 94q-5 11 -17 33q-25 50 -38 78t-23 62q-14 45 -14 97q0 33 10.5 63.5t33.5 52.5q25 23 56 23q12 0 29 -9.5t17 -18.5q0 -8 -6 -8t-16 5q-9 5 -17 5q-23 0 -40.5 -17t-25.5 -42q-7 -21 -7 -46
q0 -39 10 -80.5t27 -77.5l35 -73l10 -21q21 -43 32.5 -71t19.5 -63q11 -47 11 -90q0 -58 -30 -118q-15 -29 -40 -47t-55 -18q-18 0 -27.5 1.5z" />
    <glyph glyph-name="scaron" unicode="&#x161;" horiz-adv-x="246" 
d="M99 725q-20 35 -37 77t-18 57l19 13l17 -23q0 -8 8 -34q10 -28 19.5 -56t14.5 -40q23 87 28 150l14 8q18 -3 18 -12q0 -1 -4 -11l1 -5l-8 -15l1 -6l-11 -36q-18 -48 -18 -81q0 -21 -15 -21q-9 0 -29 35zM62 -3.5q-10 6.5 -11 15.5l5 8q4 0 18 -3q11 -4 18 -4
q22 0 39 17.5t26 45.5q14 52 14 98q0 69 -42 148q-26 46 -40 73t-25 62q-13 41 -13 79q0 36 18 85q9 23 25.5 37.5t35.5 14.5q13 0 25.5 -9t12.5 -19q0 -8 -13 -8q-4 0 -10 3t-11 3q-15 0 -27 -12t-18 -31q-12 -37 -12 -68q0 -19 5 -39q1 -6 2 -10t1 -6l6 -20l5 -18l8 -18
q3 -7 6.5 -12.5t6.5 -10.5l12 -21q4 -6 17 -28.5t24 -47.5q10 -21 15 -39.5t9 -44.5q3 -25 3 -55q0 -48 -13 -90q-18 -50 -52 -70q-19 -12 -44 -12l-5 -2q-11 2 -21 8.5zM163 640q0 1 -1 1v-1h1z" />
    <glyph glyph-name="uni0162" unicode="&#x162;" horiz-adv-x="319" 
d="M150 1.5q-5 7.5 -5 18.5v89v89l-2 160q-3 107 -3 160l1 29v65q0 108 -2 108h-113q-8 0 -14.5 4t-6.5 11q0 8 3 11t16 5q14 3 40 3h100l110 1q12 0 16.5 -4t4.5 -13q0 -15 -19 -15h-45h-44l-9 -1l1 -58v-78v-406v-83l1 -74v-2q0 -8 -1 -13.5t-4 -8.5q-3 -5 -10 -5
q-10 0 -15 7.5zM138.5 -211.5q-13.5 7.5 -13.5 19.5q0 10 11 10q4 0 16 -5t16 -5q17 0 28 20.5t11 48.5q0 33 -15 45l-13 -2l-14 -2q-15 0 -27 20q8 21 8 58v11l29 4q-4 -30 -4 -51q73 -4 73 -100q0 -16 -10.5 -34.5t-28.5 -31.5t-37 -13q-16 0 -29.5 7.5z" />
    <glyph glyph-name="uni0163" unicode="&#x163;" horiz-adv-x="297" 
d="M138 14l-1 37q-1 16 -1 36q0 10 1 17l1 18q0 10 -4 24q0 67 -10 249q-10 176 -11 239q-62 0 -83 3q-20 5 -20 16q5 11 19 11q30 0 87 -4q52 -5 87 -5h21l21 1q18 0 18 -13q0 -6 -6.5 -9.5t-15.5 -3.5q-20 0 -42 2l-43 2q-4 0 -4 -3q-1 -3 -1 -19q0 -97 12 -294
q11 -204 11 -293q0 -7 -8.5 -13t-16.5 -6zM127.5 -211.5q-13.5 7.5 -13.5 19.5q0 10 11 10q4 0 16 -5t16 -5q17 0 28 20.5t11 48.5q0 33 -15 45l-13 -2l-14 -2q-15 0 -27 20q8 21 8 58v11l29 4q-4 -30 -4 -51q73 -4 73 -100q0 -16 -10.5 -34.5t-28.5 -31.5t-37 -13
q-16 0 -29.5 7.5z" />
    <glyph glyph-name="Tcaron" unicode="&#x164;" horiz-adv-x="319" 
d="M146 819q-20 35 -37 77t-18 57l19 13l17 -23q0 -8 8 -34q10 -28 19.5 -56t14.5 -40q23 87 28 150l14 8q18 -3 18 -12q0 -1 -4 -11l1 -5l-8 -15l1 -6l-11 -36q-18 -48 -18 -81q0 -21 -15 -21q-9 0 -29 35zM150 1.5q-5 7.5 -5 18.5v89v89l-2 160q-3 107 -3 160l1 29v65
q0 108 -2 108h-113q-8 0 -14.5 4t-6.5 11q0 8 3 11t16 5q14 3 40 3h100l110 1q12 0 16.5 -4t4.5 -13q0 -15 -19 -15h-45h-44l-9 -1l1 -58v-78v-406v-83l1 -74v-2q0 -8 -1 -13.5t-4 -8.5q-3 -5 -10 -5q-10 0 -15 7.5z" />
    <glyph glyph-name="tcaron" unicode="&#x165;" horiz-adv-x="297" 
d="M96 712q-20 35 -37 77t-18 57l19 13l17 -23q0 -8 8 -34q10 -28 19.5 -56t14.5 -40q23 87 28 150l14 8q18 -3 18 -12q0 -1 -4 -11l1 -5l-8 -15l1 -6l-11 -36q-18 -48 -18 -81q0 -21 -15 -21q-9 0 -29 35zM138 14l-1 37q-1 16 -1 36q0 10 1 17l1 18q0 10 -4 24
q0 67 -10 249q-10 176 -11 239q-62 0 -83 3q-20 5 -20 16q5 11 19 11q30 0 87 -4q52 -5 87 -5h21l21 1q18 0 18 -13q0 -6 -6.5 -9.5t-15.5 -3.5q-20 0 -42 2l-43 2q-4 0 -4 -3q-1 -3 -1 -19q0 -97 12 -294q11 -204 11 -293q0 -7 -8.5 -13t-16.5 -6z" />
    <glyph glyph-name="Tbar" unicode="&#x166;" horiz-adv-x="352" 
d="M169.5 7q-5.5 13 -5.5 27l2 52l2 28l2 27l2 57q0 47 -6 140q-33 -3 -60 -3q-8 0 -14.5 4t-6.5 10q0 10 79 17q-6 95 -6 152v29q1 16 1 65q0 103 -17 103q-11 0 -29 -3t-28 -3q-8 0 -14.5 5t-6.5 12q0 10 64 19.5t108 9.5q8 0 14.5 -5t6.5 -12q0 -15 -19 -15l-19 2l-18 1
q-18 0 -21 -10q7 -59 7 -130v-61q-1 -26 -1 -60q0 -53 2 -97q39 4 68 4q5 0 10 -3.5t5 -7.5q0 -9 -80 -20q3 -25 9 -46q-3 -15 -3 -29l2 -117q3 -78 3 -116q0 -39 -17 -39q-10 0 -15.5 13z" />
    <glyph glyph-name="tbar" unicode="&#x167;" horiz-adv-x="352" 
d="M181 14l-1 37q-1 16 -1 36q0 10 1 17l1 18q0 10 -4 24q0 71 -8 189q-34 -3 -60 -3q-8 0 -14.5 5t-6.5 12q0 11 79 21q-15 192 -15 264q-80 0 -84 19q5 11 19 11q28 0 68 -4q37 -5 68 -5h9q4 1 9 1q18 0 18 -13q0 -6 -7 -11t-15 -5t-28 3q-16 4 -26 4l-5 -6l2 -4
q-2 -2 -2 -12q0 -86 12 -239q52 5 69 5q8 0 15 -5t7 -12q0 -11 -88 -23q18 -214 18 -313q0 -7 -5.5 -13t-13.5 -6z" />
    <glyph glyph-name="Utilde" unicode="&#x168;" horiz-adv-x="372" 
d="M57.5 790.5q-6.5 5.5 -6.5 11.5q0 31 17 50t42 19t42 -20q8 -15 25 -27t32 -12q26 0 26 36l-2 10l-4 9q3 6 10 6q11 0 17 -10t6 -24q0 -21 -16 -37t-37 -16q-16 0 -34 10t-29 21q-8 7 -26 28l-7 3q-15 0 -26 -8t-11 -19l5 -21l-11 -15q-6 0 -12.5 5.5zM164 -9
q-20 10 -33 26q-13 15 -23 37t-16 44q-10 34 -15 85l-2 31q0 10 -0.5 13t-0.5 4q-5 49 -12.5 216t-7.5 260v7v8q0 26 15 26q21 0 21 -24v-7l-1 -8q0 -116 7 -274.5t14 -228.5q5 -44 17 -90q8 -31 17.5 -52t24.5 -35q18 -16 35 -16t30.5 8t20.5 21q7 11 11.5 28.5t5.5 33.5
q1 10 1 33v114q0 76 -4 187l-4 128l-2 85q-3 56 -3 85q0 11 6 17t14 6t13.5 -6t5.5 -17v-76q0 -50 1 -90v-90q0 -97 2 -170q1 -74 1 -166q0 -25 -2 -44t-8 -40q-6 -24 -16.5 -40.5t-27.5 -27.5q-19 -11 -42 -11t-43 10z" />
    <glyph glyph-name="utilde" unicode="&#x169;" horiz-adv-x="366" 
d="M59.5 688.5q-6.5 5.5 -6.5 11.5q0 31 17 50t42 19t42 -20q8 -15 25 -27t32 -12q26 0 26 36l-2 10l-4 9q3 6 10 6q11 0 17 -10t6 -24q0 -21 -16 -37t-37 -16q-16 0 -34 10t-29 21q-8 7 -26 28l-7 3q-15 0 -26 -8t-11 -19l5 -21l-11 -15q-6 0 -12.5 5.5zM142.5 -4.5
q-18.5 10.5 -30.5 24.5q-14 18 -22 101t-10 190q0 24 -1 36q-2 251 -8 297l6 14q23 -3 23 -55l3 -265q0 -28 5 -106q6 -70 6 -106q0 -114 75 -114q46 0 59 210l1 20q7 275 7 407l-1 9q-1 4 -1 9q0 11 17 11q12 0 15 -6q2 -10 2 -35q0 -76 -6 -102l1 -6q0 -13 -3 -40l-2 -40
v-10q1 -4 1 -10q-2 -24 -2 -46q-1 -7 -1 -22q-2 -95 -4 -165q-3 -87 -24 -147q-22 -64 -71 -64q-16 0 -34.5 10.5z" />
    <glyph glyph-name="Umacron" unicode="&#x16a;" horiz-adv-x="372" 
d="M164 -9q-20 10 -33 26q-13 15 -23 37t-16 44q-10 34 -15 85l-2 31q0 10 -0.5 13t-0.5 4q-5 49 -12.5 216t-7.5 260v7v8q0 26 15 26q21 0 21 -24v-7l-1 -8q0 -116 7 -274.5t14 -228.5q5 -44 17 -90q8 -31 17.5 -52t24.5 -35q18 -16 35 -16t30.5 8t20.5 21q7 11 11.5 28.5
t5.5 33.5q1 10 1 33v114q0 76 -4 187l-4 128l-2 85q-3 56 -3 85q0 11 6 17t14 6t13.5 -6t5.5 -17v-76q0 -50 1 -90v-90q0 -97 2 -170q1 -74 1 -166q0 -25 -2 -44t-8 -40q-6 -24 -16.5 -40.5t-27.5 -27.5q-19 -11 -42 -11t-43 10zM82 820q-15 2 -19 7q-2 4 -2 7q0 8 64 8h56
q35 0 51 -2q12 -1 17 -4.5t5 -9.5q-2 -8 -64 -8h-57h-19q-25 0 -32 2z" />
    <glyph glyph-name="umacron" unicode="&#x16b;" horiz-adv-x="366" 
d="M84 707q-15 2 -19 7q-2 4 -2 7q0 8 64 8h56q35 0 51 -2q12 -1 17 -4.5t5 -9.5q-2 -8 -64 -8h-57h-19q-25 0 -32 2zM142.5 -4.5q-18.5 10.5 -30.5 24.5q-14 18 -22 101t-10 190q0 24 -1 36q-2 251 -8 297l6 14q23 -3 23 -55l3 -265q0 -28 5 -106q6 -70 6 -106
q0 -114 75 -114q46 0 59 210l1 20q7 275 7 407l-1 9q-1 4 -1 9q0 11 17 11q12 0 15 -6q2 -10 2 -35q0 -76 -6 -102l1 -6q0 -13 -3 -40l-2 -40v-10q1 -4 1 -10q-2 -24 -2 -46q-1 -7 -1 -22q-2 -95 -4 -165q-3 -87 -24 -147q-22 -64 -71 -64q-16 0 -34.5 10.5z" />
    <glyph glyph-name="Ubreve" unicode="&#x16c;" horiz-adv-x="372" 
d="M97 826q-15 32 -15 68l11 9q7 -2 10 -16q8 -52 25 -64l11 -8h25q12 0 23 17.5t11 33.5v7q-1 3 -1 7q0 19 18 19q5 0 10 -4.5t5 -9.5l-2 -9l-3 -7l2 -7q-1 -3 -3 -7.5t-4 -9.5q-10 -22 -17 -31q-5 -8 -10.5 -12t-15.5 -7q-11 -3 -22 -3q-40 0 -58 34zM164 -9
q-20 10 -33 26q-13 15 -23 37t-16 44q-10 34 -15 85l-2 31q0 10 -0.5 13t-0.5 4q-5 49 -12.5 216t-7.5 260v7v8q0 26 15 26q21 0 21 -24v-7l-1 -8q0 -116 7 -274.5t14 -228.5q5 -44 17 -90q8 -31 17.5 -52t24.5 -35q18 -16 35 -16t30.5 8t20.5 21q7 11 11.5 28.5t5.5 33.5
q1 10 1 33v114q0 76 -4 187l-4 128l-2 85q-3 56 -3 85q0 11 6 17t14 6t13.5 -6t5.5 -17v-76q0 -50 1 -90v-90q0 -97 2 -170q1 -74 1 -166q0 -25 -2 -44t-8 -40q-6 -24 -16.5 -40.5t-27.5 -27.5q-19 -11 -42 -11t-43 10z" />
    <glyph glyph-name="ubreve" unicode="&#x16d;" horiz-adv-x="366" 
d="M99 720q-15 32 -15 68l11 9q7 -2 10 -16q8 -52 25 -64l11 -8h25q12 0 23 17.5t11 33.5v7q-1 3 -1 7q0 19 18 19q5 0 10 -4.5t5 -9.5l-2 -9l-3 -7l2 -7q-1 -3 -3 -7.5t-4 -9.5q-10 -22 -17 -31q-5 -8 -10.5 -12t-15.5 -7q-11 -3 -22 -3q-40 0 -58 34zM142.5 -4.5
q-18.5 10.5 -30.5 24.5q-14 18 -22 101t-10 190q0 24 -1 36q-2 251 -8 297l6 14q23 -3 23 -55l3 -265q0 -28 5 -106q6 -70 6 -106q0 -114 75 -114q46 0 59 210l1 20q7 275 7 407l-1 9q-1 4 -1 9q0 11 17 11q12 0 15 -6q2 -10 2 -35q0 -76 -6 -102l1 -6q0 -13 -3 -40l-2 -40
v-10q1 -4 1 -10q-2 -24 -2 -46q-1 -7 -1 -22q-2 -95 -4 -165q-3 -87 -24 -147q-22 -64 -71 -64q-16 0 -34.5 10.5z" />
    <glyph glyph-name="Uring" unicode="&#x16e;" horiz-adv-x="372" 
d="M115 800.5q-15 16.5 -15 36.5q0 23 18 42.5t40 19.5q19 0 37 -19t18 -39q0 -27 -17.5 -42t-46.5 -15q-19 0 -34 16.5zM172.5 811.5q14.5 8.5 14.5 19.5q0 20 -7.5 34.5t-21.5 14.5q-12 0 -23.5 -12.5t-11.5 -25.5q0 -20 8 -31q5 -8 14 -8q13 0 27.5 8.5zM164 -9
q-20 10 -33 26q-13 15 -23 37t-16 44q-10 34 -15 85l-2 31q0 10 -0.5 13t-0.5 4q-5 49 -12.5 216t-7.5 260v7v8q0 26 15 26q21 0 21 -24v-7l-1 -8q0 -116 7 -274.5t14 -228.5q5 -44 17 -90q8 -31 17.5 -52t24.5 -35q18 -16 35 -16t30.5 8t20.5 21q7 11 11.5 28.5t5.5 33.5
q1 10 1 33v114q0 76 -4 187l-4 128l-2 85q-3 56 -3 85q0 11 6 17t14 6t13.5 -6t5.5 -17v-76q0 -50 1 -90v-90q0 -97 2 -170q1 -74 1 -166q0 -25 -2 -44t-8 -40q-6 -24 -16.5 -40.5t-27.5 -27.5q-19 -11 -42 -11t-43 10z" />
    <glyph glyph-name="uring" unicode="&#x16f;" horiz-adv-x="366" 
d="M117 690.5q-15 16.5 -15 36.5q0 23 18 42.5t40 19.5q19 0 37 -19t18 -39q0 -27 -17.5 -42t-46.5 -15q-19 0 -34 16.5zM174.5 701.5q14.5 8.5 14.5 19.5q0 20 -7.5 34.5t-21.5 14.5q-12 0 -23.5 -12.5t-11.5 -25.5q0 -20 8 -31q5 -8 14 -8q13 0 27.5 8.5zM142.5 -4.5
q-18.5 10.5 -30.5 24.5q-14 18 -22 101t-10 190q0 24 -1 36q-2 251 -8 297l6 14q23 -3 23 -55l3 -265q0 -28 5 -106q6 -70 6 -106q0 -114 75 -114q46 0 59 210l1 20q7 275 7 407l-1 9q-1 4 -1 9q0 11 17 11q12 0 15 -6q2 -10 2 -35q0 -76 -6 -102l1 -6q0 -13 -3 -40l-2 -40
v-10q1 -4 1 -10q-2 -24 -2 -46q-1 -7 -1 -22q-2 -95 -4 -165q-3 -87 -24 -147q-22 -64 -71 -64q-16 0 -34.5 10.5z" />
    <glyph glyph-name="Uhungarumlaut" unicode="&#x170;" horiz-adv-x="372" 
d="M62 780q3 10 84.5 73.5t90.5 63.5q3 0 7 -5t4 -10t-6 -10q-80 -60 -99 -73q-15 -7 -34 -23q-24 -17 -42 -22zM213 785q0 7 46 41.5t77 54.5q52 29 56 29q5 0 11.5 -8t8.5 -16l-51 -30q-12 -3 -55 -26l-25 -17l-40 -25q-20 -11 -23 -11q-5 0 -5 8zM164 -9q-20 10 -33 26
q-13 15 -23 37t-16 44q-10 34 -15 85l-2 31q0 10 -0.5 13t-0.5 4q-5 49 -12.5 216t-7.5 260v7v8q0 26 15 26q21 0 21 -24v-7l-1 -8q0 -116 7 -274.5t14 -228.5q5 -44 17 -90q8 -31 17.5 -52t24.5 -35q18 -16 35 -16t30.5 8t20.5 21q7 11 11.5 28.5t5.5 33.5q1 10 1 33v114
q0 76 -4 187l-4 128l-2 85q-3 56 -3 85q0 11 6 17t14 6t13.5 -6t5.5 -17v-76q0 -50 1 -90v-90q0 -97 2 -170q1 -74 1 -166q0 -25 -2 -44t-8 -40q-6 -24 -16.5 -40.5t-27.5 -27.5q-19 -11 -42 -11t-43 10z" />
    <glyph glyph-name="uhungarumlaut" unicode="&#x171;" horiz-adv-x="366" 
d="M47 684q3 10 84.5 73.5t90.5 63.5q3 0 7 -5t4 -10t-6 -10q-80 -60 -99 -73q-15 -7 -34 -23q-24 -17 -42 -22zM198 689q0 7 46 41.5t77 54.5q52 29 56 29q5 0 11.5 -8t8.5 -16l-51 -30q-12 -3 -55 -26l-25 -17l-40 -25q-20 -11 -23 -11q-5 0 -5 8zM142.5 -4.5
q-18.5 10.5 -30.5 24.5q-14 18 -22 101t-10 190q0 24 -1 36q-2 251 -8 297l6 14q23 -3 23 -55l3 -265q0 -28 5 -106q6 -70 6 -106q0 -114 75 -114q46 0 59 210l1 20q7 275 7 407l-1 9q-1 4 -1 9q0 11 17 11q12 0 15 -6q2 -10 2 -35q0 -76 -6 -102l1 -6q0 -13 -3 -40l-2 -40
v-10q1 -4 1 -10q-2 -24 -2 -46q-1 -7 -1 -22q-2 -95 -4 -165q-3 -87 -24 -147q-22 -64 -71 -64q-16 0 -34.5 10.5z" />
    <glyph glyph-name="Uogonek" unicode="&#x172;" horiz-adv-x="372" 
d="M205 -206q-18 13 -28.5 31.5t-10.5 34.5q0 23 7 47t17 43q23 40 38 53l7 8l28 -4h2l-8 -13q-24 -30 -37 -63q-9 -21 -9 -38q0 -5 -2 -23l-1 -10v-11q0 -13 11 -27t23 -14q4 0 16 5q10 5 16 5q10 0 10 -10q0 -12 -13 -19.5t-29 -7.5q-19 0 -37 13zM164 -9q-20 10 -33 26
q-13 15 -23 37t-16 44q-10 34 -15 85l-2 31q0 10 -0.5 13t-0.5 4q-5 49 -12.5 216t-7.5 260v7v8q0 26 15 26q21 0 21 -24v-7l-1 -8q0 -116 7 -274.5t14 -228.5q5 -44 17 -90q8 -31 17.5 -52t24.5 -35q18 -16 35 -16t30.5 8t20.5 21q7 11 11.5 28.5t5.5 33.5q1 10 1 33v114
q0 76 -4 187l-4 128l-2 85q-3 56 -3 85q0 11 6 17t14 6t13.5 -6t5.5 -17v-76q0 -50 1 -90v-90q0 -97 2 -170q1 -74 1 -166q0 -25 -2 -44t-8 -40q-6 -24 -16.5 -40.5t-27.5 -27.5q-19 -11 -42 -11t-43 10z" />
    <glyph glyph-name="uogonek" unicode="&#x173;" horiz-adv-x="366" 
d="M177 -203q-18 13 -28.5 31.5t-10.5 34.5q0 23 7 47t17 43q23 40 38 53l7 8l28 -4h2l-8 -13q-24 -30 -37 -63q-9 -21 -9 -38q0 -5 -2 -23l-1 -10v-11q0 -13 11 -27t23 -14q4 0 16 5q10 5 16 5q10 0 10 -10q0 -12 -13 -19.5t-29 -7.5q-19 0 -37 13zM142.5 -4.5
q-18.5 10.5 -30.5 24.5q-14 18 -22 101t-10 190q0 24 -1 36q-2 251 -8 297l6 14q23 -3 23 -55l3 -265q0 -28 5 -106q6 -70 6 -106q0 -114 75 -114q46 0 59 210l1 20q7 275 7 407l-1 9q-1 4 -1 9q0 11 17 11q12 0 15 -6q2 -10 2 -35q0 -76 -6 -102l1 -6q0 -13 -3 -40l-2 -40
v-10q1 -4 1 -10q-2 -24 -2 -46q-1 -7 -1 -22q-2 -95 -4 -165q-3 -87 -24 -147q-22 -64 -71 -64q-16 0 -34.5 10.5z" />
    <glyph glyph-name="Wcircumflex" unicode="&#x174;" horiz-adv-x="461" 
d="M242 780q-5 64 -28 150q-4 -6 -34 -96q-8 -26 -8 -34l-17 -23l-19 13q1 15 18 57t37 77t29 35q15 0 15 -21q0 -33 18 -81l11 -36l-1 -6l8 -15l-1 -5q1 -4 2.5 -6.5t1.5 -4.5q0 -9 -18 -12zM132 9v12q1 4 1 10v5l-18 121q-7 38 -9 55q-9 70 -19 156q-8 68 -28 224l-3 23
q-15 113 -22 124q3 5 9 9t12 4q15 0 20.5 -5t5.5 -18v-9v-10v-11q31 -327 65 -612h2q3 29 12 159l2 29q7 127 8 134q3 30 12 88l12 81l3 46q1 12 1.5 20.5t1.5 12.5l1 13q0 1 1.5 3t4.5 4q14 0 18 -7q3 -3 4 -6.5t1 -8.5l2 -9q10 -53 43 -276t40 -294l3 -2l37 405
q2 38 13 120q10 83 10 135l-1 10v9q0 13 6 18.5t20 5.5q6 0 12.5 -5t6.5 -11q0 -10 -11 -19q1 -1 1 -6q0 -6 -1.5 -12.5t-2.5 -9.5q-11 -90 -27 -265l-20 -207l-8 -79l-12 -101l-5 -51q0 -12 -3.5 -18t-14.5 -6q-16 0 -19 12q-2 6 -4 28l-1 15q-24 154 -72 548l-3 2l-1 -1
v-1l-50 -546v-18q0 -39 -17 -39q-19 0 -19 22z" />
    <glyph glyph-name="wcircumflex" unicode="&#x175;" horiz-adv-x="410" 
d="M242 673q-5 64 -28 150q-4 -6 -34 -96q-8 -26 -8 -34l-17 -23l-19 13q1 15 18 57t37 77t29 35q15 0 15 -21q0 -33 18 -81l11 -36l-1 -6l8 -15l-1 -5q1 -4 2.5 -6.5t1.5 -4.5q0 -9 -18 -12zM274 -21q-3 12 -3 23v9q-4 40 -11 75q-9 49 -12 76t-9 98q-9 112 -17 170
q-9 74 -19 84l-6 -54q-5 -48 -5 -68q0 -42 -4 -84t-14 -107l-12 -83q-1 -2 -1.5 -7.5t-1.5 -13.5q-2 -28 -11 -74q-3 -20 -9 -32q-4 -12 -12 -12q-14 0 -23 45q-7 40 -13 127q-3 55 -5 82t-8 64l-4 31q-8 54 -10 77t-4 67q-1 33 -3 59.5t-7 55.5q-4 25 -13 53q4 8 16 8
t17 -23q1 -4 3 -40v-13q1 -21 23 -198q20 -160 23 -261q4 -9 5 -27q2 -20 5 -27h1l16 105q0 14 6 48q7 53 12 104q5 61 6 106q3 72 7 96l3 25q4 38 4 37l18 8q7 0 12 -4t5 -10q0 -3 -3 -8q40 -135 54 -323l2 -37q1 -45 7 -77q6 -26 11 -38q12 34 20 166t8 229q0 18 7 77
q7 49 7 78q0 9 -4 17q0 16 20 16q8 0 10.5 -2t2.5 -10q0 -28 -5 -43l2 -6q-8 -43 -8 -94q0 -9 2 -11l-6 -20l3 -7q-3 -6 -3 -12l3 -19l-3 -4q0 -35 -8 -156t-12 -154l-6 -27q-6 -21 -6 -33q0 -32 -3 -61q-1 -20 -8 -35q-7 -13 -15 -13q-11 0 -14 12zM291 86l-1 1v-1h1z" />
    <glyph glyph-name="Ycircumflex" unicode="&#x176;" horiz-adv-x="252" 
d="M138 780q-5 64 -28 150q-4 -6 -34 -96q-8 -26 -8 -34l-17 -23l-19 13q1 15 18 57t37 77t29 35q15 0 15 -21q0 -33 18 -81l11 -36l-1 -6l8 -15l-1 -5q1 -4 2.5 -6.5t1.5 -4.5q0 -9 -18 -12zM119 -4.5q-4 7.5 -4 16.5q0 32 3 96l2 97q0 14 -3 41q-4 24 -4 40q0 17 -6 47
q-6 32 -6 46q0 12 -10 57q-3 9 -4 14.5t-2 7.5q-4 28 -13 69q-17 93 -33 147q-15 48 -15 65q0 7 6 11.5t14 4.5l12 -8q3 -45 27 -160.5t36 -132.5q2 5 10 87q7 73 20 145q12 66 29 66q5 0 8 -0.5t5 -2.5t2 -8q0 -9 -4 -21l-4 -20l-26 -149q-5 -29 -9 -71.5t-4 -74.5
q0 -9 1 -16q1 -8 1 -17l-6 -15v-8l2 -39l2 -21q3 -40 3 -60q0 -158 -2 -202l3 -3q0 -2 1 -3v-4q0 -12 -5.5 -20.5t-16.5 -8.5q-6 0 -10 7.5z" />
    <glyph glyph-name="ycircumflex" unicode="&#x177;" horiz-adv-x="267" 
d="M156 673q-5 64 -28 150q-4 -6 -34 -96q-8 -26 -8 -34l-17 -23l-19 13q1 15 18 57t37 77t29 35q15 0 15 -21q0 -33 18 -81l11 -36l-1 -6l8 -15l-1 -5q1 -4 2.5 -6.5t1.5 -4.5q0 -9 -18 -12zM130 -11q-5 4 -6 7q9 24 9 175q0 29 -3 83l-5 71l-6 13l3 12q-6 14 -18 47
t-24 67q-36 95 -47 137q-6 20 -9 37l14 11q10 -2 29 -64q15 -44 27 -87l12 -38q18 -62 26 -64l4 18l-2 5q8 10 20 71q13 70 25 118q13 56 26 56q5 0 9 -3t4 -7q0 -15 -30 -118q-15 -49 -25 -92q-12 -51 -12 -91q5 -10 5 -17q0 -5 -3 -14t-3 -15q0 -5 4 -45q4 -27 4 -46
q0 -44 1 -79v-80v-4q0 -68 -21 -68q-3 0 -8 4z" />
    <glyph glyph-name="Ydieresis" unicode="&#x178;" horiz-adv-x="252" 
d="M157 816q-6 7 -6 15q0 9 7.5 17t16.5 8t15.5 -8t6.5 -16q0 -23 -26 -23q-8 0 -14 7zM24.5 813q-5.5 8 -5.5 17t7.5 17t16.5 8q10 0 15 -10t5 -23q0 -8 -7.5 -12.5t-17.5 -4.5q-8 0 -13.5 8zM119 -4.5q-4 7.5 -4 16.5q0 32 3 96l2 97q0 14 -3 41q-4 24 -4 40q0 17 -6 47
q-6 32 -6 46q0 12 -10 57q-3 9 -4 14.5t-2 7.5q-4 28 -13 69q-17 93 -33 147q-15 48 -15 65q0 7 6 11.5t14 4.5l12 -8q3 -45 27 -160.5t36 -132.5q2 5 10 87q7 73 20 145q12 66 29 66q5 0 8 -0.5t5 -2.5t2 -8q0 -9 -4 -21l-4 -20l-26 -149q-5 -29 -9 -71.5t-4 -74.5
q0 -9 1 -16q1 -8 1 -17l-6 -15v-8l2 -39l2 -21q3 -40 3 -60q0 -158 -2 -202l3 -3q0 -2 1 -3v-4q0 -12 -5.5 -20.5t-16.5 -8.5q-6 0 -10 7.5z" />
    <glyph glyph-name="Zacute" unicode="&#x179;" horiz-adv-x="247" 
d="M34 4q20 35 30.5 81t18.5 114q6 60 12 88l46 332q3 20 5 35q8 54 8 78q-11 0 -33 -3l-34 -2q-45 0 -45 20l7 8q6 -2 24 -2q14 0 47 5q26 5 47 5q16 0 16 -18q-11 -24 -16 -96q-2 -35 -4 -44l-30 -227q-25 -196 -40 -283q-1 -10 -12 -36q-11 -27 -11 -40l33 2q21 3 32 3
q42 0 42 -20l-9 -9q-33 0 -59 -2l-60 -2q-8 0 -15 13zM94.5 805q-5.5 4 -5.5 10q0 3 28 26l32 26l27 21q34 26 37 29q22 0 22 -15l-3 -16q-52 -24 -125 -85q-7 0 -12.5 4z" />
    <glyph glyph-name="zacute" unicode="&#x17a;" horiz-adv-x="256" 
d="M39 13q0 12 10 52l9 34q14 48 15 56q7 22 19 82q13 62 19.5 88t27.5 89q24 79 36 130.5t12 91.5q-15 0 -47 -3q-31 -3 -47 -3q-6 0 -10 5t-4 11q0 9 36 13q36 3 75 3q7 0 12 -1t9 -4q4 -6 4 -11q0 -35 -25 -109q-24 -76 -24 -90q-3 -16 -23 -87l-7 -24q-63 -207 -64 -305
q7 -2 29 -2q12 0 21 2q9 1 21 1q29 0 29 -13t-23 -13q-16 0 -29 1l-30 2q-11 0 -22 -6q-12 -5 -14 -5q-15 0 -15 15zM140.5 688q-5.5 4 -5.5 10q0 3 28 26l32 26l27 21q34 26 37 29q22 0 22 -15l-3 -16q-52 -24 -125 -85q-7 0 -12.5 4z" />
    <glyph glyph-name="Zdotaccent" unicode="&#x17b;" horiz-adv-x="247" 
d="M90.5 811.5q-6.5 7.5 -6.5 16.5q0 10 8 18.5t18 8.5q9 0 16.5 -8.5t7.5 -17.5q0 -25 -28 -25q-9 0 -15.5 7.5zM34 4q20 35 30.5 81t18.5 114q6 60 12 88l46 332q3 20 5 35q8 54 8 78q-11 0 -33 -3l-34 -2q-45 0 -45 20l7 8q6 -2 24 -2q14 0 47 5q26 5 47 5q16 0 16 -18
q-11 -24 -16 -96q-2 -35 -4 -44l-30 -227q-25 -196 -40 -283q-1 -10 -12 -36q-11 -27 -11 -40l33 2q21 3 32 3q42 0 42 -20l-9 -9q-33 0 -59 -2l-60 -2q-8 0 -15 13z" />
    <glyph glyph-name="zdotaccent" unicode="&#x17c;" horiz-adv-x="256" 
d="M134.5 730.5q-6.5 7.5 -6.5 16.5q0 10 8 18.5t18 8.5q9 0 16.5 -8.5t7.5 -17.5q0 -25 -28 -25q-9 0 -15.5 7.5zM39 13q0 12 10 52l9 34q14 48 15 56q7 22 19 82q13 62 19.5 88t27.5 89q24 79 36 130.5t12 91.5q-15 0 -47 -3q-31 -3 -47 -3q-6 0 -10 5t-4 11q0 9 36 13
q36 3 75 3q7 0 12 -1t9 -4q4 -6 4 -11q0 -35 -25 -109q-24 -76 -24 -90q-3 -16 -23 -87l-7 -24q-63 -207 -64 -305q7 -2 29 -2q12 0 21 2q9 1 21 1q29 0 29 -13t-23 -13q-16 0 -29 1l-30 2q-11 0 -22 -6q-12 -5 -14 -5q-15 0 -15 15z" />
    <glyph glyph-name="Zcaron" unicode="&#x17d;" horiz-adv-x="247" 
d="M95 819q-20 35 -37 77t-18 57l19 13l17 -23q0 -8 8 -34q10 -28 19.5 -56t14.5 -40q23 87 28 150l14 8q18 -3 18 -12q0 -1 -4 -11l1 -5l-8 -15l1 -6l-11 -36q-18 -48 -18 -81q0 -21 -15 -21q-9 0 -29 35zM34 4q20 35 30.5 81t18.5 114q6 60 12 88l46 332q3 20 5 35
q8 54 8 78q-11 0 -33 -3l-34 -2q-45 0 -45 20l7 8q6 -2 24 -2q14 0 47 5q26 5 47 5q16 0 16 -18q-11 -24 -16 -96q-2 -35 -4 -44l-30 -227q-25 -196 -40 -283q-1 -10 -12 -36q-11 -27 -11 -40l33 2q21 3 32 3q42 0 42 -20l-9 -9q-33 0 -59 -2l-60 -2q-8 0 -15 13z" />
    <glyph glyph-name="zcaron" unicode="&#x17e;" horiz-adv-x="256" 
d="M124 712q-20 35 -37 77t-18 57l19 13l17 -23q0 -8 8 -34q10 -28 19.5 -56t14.5 -40q23 87 28 150l14 8q18 -3 18 -12q0 -1 -4 -11l1 -5l-8 -15l1 -6l-11 -36q-18 -48 -18 -81q0 -21 -15 -21q-9 0 -29 35zM39 13q0 12 10 52l9 34q14 48 15 56q7 22 19 82q13 62 19.5 88
t27.5 89q24 79 36 130.5t12 91.5q-15 0 -47 -3q-31 -3 -47 -3q-6 0 -10 5t-4 11q0 9 36 13q36 3 75 3q7 0 12 -1t9 -4q4 -6 4 -11q0 -35 -25 -109q-24 -76 -24 -90q-3 -16 -23 -87l-7 -24q-63 -207 -64 -305q7 -2 29 -2q12 0 21 2q9 1 21 1q29 0 29 -13t-23 -13q-16 0 -29 1
l-30 2q-11 0 -22 -6q-12 -5 -14 -5q-15 0 -15 15z" />
    <glyph glyph-name="longs" unicode="&#x17f;" horiz-adv-x="326" 
d="M261 692q-46 0 -67 -28.5t-21 -86.5v-577h-88v577q0 188 177 188q49 0 100 -19l-23 -69q-44 15 -78 15z" />
    <glyph glyph-name="uni0180" unicode="&#x180;" horiz-adv-x="615" 
d="M339 545q106 0 163.5 -73t57.5 -204q0 -133 -58.5 -205.5t-162.5 -72.5q-54 0 -96.5 19.5t-69.5 58.5h-7q-15 -59 -18 -68h-63v605h-76v66h76v89h88v-89h213v-66h-213v-30q0 -55 -5 -110h5q54 80 166 80zM324 472q-81 0 -116 -46t-35 -155v-4q0 -110 36 -157t117 -47
q72 0 107.5 53t35.5 153q0 102 -35.5 152.5t-109.5 50.5z" />
    <glyph glyph-name="uni0181" unicode="&#x181;" horiz-adv-x="729" 
d="M151 637q-61 0 -61 -50q0 -30 10 -54h-79q-4 10 -7.5 26.5t-3.5 28.5q0 65 34.5 95.5t106.5 30.5h230q144 0 207.5 -43t63.5 -134q0 -63 -34.5 -104.5t-101.5 -53.5v-5q82 -14 121 -57t39 -114q0 -96 -66 -149.5t-182 -53.5h-251v637h-26zM267 410h132q84 0 122 27t38 90
q0 59 -41.5 84.5t-132.5 25.5h-118v-227zM267 335v-259h144q86 0 127.5 33.5t41.5 100.5q0 64 -44 94.5t-132 30.5h-137z" />
    <glyph glyph-name="uni0182" unicode="&#x182;" horiz-adv-x="615" 
d="M126 0q-15 0 -26.5 11t-11.5 26q0 33 -2 97l-4 156l-2 101q-2 134 -4 204q0 -17 -3 27.5t-4 72.5q0 3 -1 9t-3 11q-2 8 -2 12q0 12 7.5 20t20.5 8q19 1 90 1q23 0 24 -23q-15 -4 -26 -5q-4 -1 -30 -1q-8 -1 -16 -1t-14 -1q-16 -3 -15 -19q0 -26 1 -87t3 -118v-59
q4 -1 10 -3t9 -2q25 3 44 -8t36 -32q35 -47 47 -121q6 -33 6 -65q0 -61 -23 -119q-13 -34 -34.5 -51.5t-62.5 -37.5q-7 -3 -14 -3zM183.5 63q20.5 18 30.5 47q16 47 16 97q0 26 -5 61q-8 54 -47 114q-15 22 -44 25l-24 3q-2 -52 -2 -76q0 -86 9 -208l2 -34v-19t2.5 -23.5
t9.5 -19.5q32 15 52.5 33z" />
    <glyph glyph-name="uni0183" unicode="&#x183;" horiz-adv-x="615" 
d="M339 545q106 0 163.5 -73t57.5 -204q0 -133 -58.5 -205.5t-162.5 -72.5q-54 0 -96.5 19.5t-69.5 58.5h-7q-15 -59 -18 -68h-63v760h421v-74h-333v-111q0 -55 -5 -110h5q54 80 166 80zM324 472q-81 0 -116 -46t-35 -155v-4q0 -110 36 -157t117 -47q72 0 107.5 53t35.5 153
q0 102 -35.5 152.5t-109.5 50.5z" />
    <glyph glyph-name="uni0184" unicode="&#x184;" horiz-adv-x="634" 
d="M180 210q0 -77 37.5 -110t122.5 -33q80 0 115.5 35.5t35.5 102.5q0 69 -48 99t-140 30h-123v-124zM90 714h90v-302h134q129 0 199.5 -53t70.5 -154t-63.5 -158t-179.5 -57q-251 0 -251 220v504z" />
    <glyph glyph-name="uni0185" unicode="&#x185;" horiz-adv-x="611" 
d="M322 -10q-115 0 -177.5 72.5t-62.5 204.5v493h88v-185q0 -55 -5 -110h5q54 80 166 80q106 0 163.5 -73t57.5 -204q0 -134 -61 -206t-174 -72zM170 265q0 -96 40.5 -149t112.5 -53t107.5 53t35.5 153q0 102 -35.5 152.5t-109.5 50.5q-81 0 -116 -46t-35 -155v-6z" />
    <glyph glyph-name="uni0186" unicode="&#x186;" horiz-adv-x="631" 
d="M243 724q158 0 243 -96t85 -272q0 -110 -39.5 -192.5t-114.5 -128t-174 -45.5q-55 0 -98 6.5t-86 22.5v78q94 -28 170 -28q115 0 181 77t66 211q0 137 -63.5 212.5t-183.5 75.5q-77 0 -162 -39l-36 76q84 42 212 42z" />
    <glyph glyph-name="uni0187" unicode="&#x187;" horiz-adv-x="631" 
d="M403 645q-115 0 -181 -77t-66 -211q0 -138 64 -213t182 -75q76 0 171 28v-78q-45 -17 -87 -23t-97 -6q-158 0 -243 96t-85 272q0 110 41 193t118.5 128t183.5 45q61 0 117 -14v14q0 64 27 99t88 35q30 0 60 -13v-72q-24 10 -52 10q-47 0 -47 -48v-51l-36 -78
q-33 15 -71.5 27t-86.5 12z" />
    <glyph glyph-name="uni0188" unicode="&#x188;" horiz-adv-x="502" 
d="M300 -10q-116 0 -180.5 71t-64.5 204q0 135 65.5 208t185.5 73q27 0 65 -6v91q0 64 26.5 99t88.5 35q29 0 60 -13v-73q-23 10 -52 10q-47 0 -47 -48v-124l-27 -73q-68 25 -116 25q-81 0 -119.5 -51t-38.5 -152q0 -97 38.5 -148.5t114.5 -51.5q71 0 139 31v-78
q-55 -29 -138 -29z" />
    <glyph glyph-name="uni0189" unicode="&#x189;" horiz-adv-x="729" 
d="M136 -39q-8 2 -11.5 5t-6.5 10h-1q0 132 -9 318q-2 18 -2 26q-1 12 -3 28t-3 20q-11 0 -31 -3q-21 -3 -30 -3t-11.5 3.5t-2.5 13.5q0 18 62 18h9l4 2v2l1 3q0 20 -7 90q-7 56 -7 90l-2 60l-2 30q-4 52 -4 89q0 5 6 13t10 8q30 0 62.5 -17t59.5 -46q51 -54 84 -115v-2
q47 -133 47 -287q0 -67 -25 -139t-71 -133q-48 -63 -105 -88q-9 3 -11 4zM167 10q3 2 13 12l7 7q51 51 88 129.5t37 142.5q0 59 -1 85t-6 66q-4 37 -14 79q-17 81 -62.5 140.5t-113.5 79.5l-2 -2q0 -78 7.5 -207t16.5 -141q12 0 34 6q27 5 35 5t13.5 -7.5t7.5 -16.5l-10 -12
q-53 0 -82 -7q1 -31 3.5 -87t3.5 -62l-1 -1q0 -26 5 -108q5 -80 5 -108q9 2 16 7z" />
    <glyph glyph-name="uni018A" unicode="&#x18a;" horiz-adv-x="810" 
d="M654 361q0 136 -67 206t-203 70h-117v-560h97q290 0 290 284zM397 714q168 0 260 -92.5t92 -257.5q0 -177 -96.5 -270.5t-276.5 -93.5h-199v637h-26q-61 0 -61 -50q0 -30 10 -54h-79q-4 10 -7.5 26.5t-3.5 28.5q0 65 34.5 95.5t106.5 30.5h246z" />
    <glyph glyph-name="uni018B" unicode="&#x18b;" horiz-adv-x="615" 
d="M428 335h-82q-106 0 -154 -32t-48 -101q0 -63 44 -94t139 -31h101v258zM518 714v-714h-199q-268 0 -268 198q0 103 73.5 158.5t211.5 55.5h92v223h-334v79h424z" />
    <glyph glyph-name="uni018C" unicode="&#x18c;" horiz-adv-x="615" 
d="M289 63q80 0 117 43.5t37 143.5v16q0 112 -37.5 159.5t-117.5 47.5q-68 0 -105 -54t-37 -154t37 -151t106 -51zM530 0h-71l-13 72h-4q-56 -82 -167 -82q-104 0 -162 72.5t-58 204.5q0 131 58 205t163 74q108 0 166 -79h6q-1 10 -3.5 39.5t-2.5 39.5v140h-333v74h421v-760
z" />
    <glyph glyph-name="uni018D" unicode="&#x18d;" horiz-adv-x="604" 
d="M341 294q66 -38 95 -77t29 -87q0 -64 -48 -102t-132 -38q-51 0 -97 11.5t-109 42.5l38 69q37 -21 79 -36t93 -15q40 0 63.5 18.5t23.5 50.5q0 34 -26.5 60t-107.5 70q-104 57 -146 117t-42 136q0 115 66 180.5t184 65.5q112 0 179 -60.5t67 -163.5q0 -87 -54 -149.5
t-155 -92.5zM145 515q0 -62 30 -105.5t96 -77.5q92 22 139.5 74t47.5 131q0 67 -41.5 108.5t-112.5 41.5q-77 0 -118 -44.5t-41 -127.5z" />
    <glyph glyph-name="uni018E" unicode="&#x18e;" horiz-adv-x="556" 
d="M60 79h309v255h-291v78h291v223h-309v79h399v-714h-399v79z" />
    <glyph glyph-name="uni018F" unicode="&#x18f;" horiz-adv-x="446" 
d="M97.5 49.5q-35.5 52.5 -35.5 164.5v30q0 83 34 127.5t101 44.5h148q1 29 1 87q0 97 -33.5 153.5t-94.5 56.5q-55 0 -124 -45q-11 0 -16 5q-4 4 0 7q49 33 83 49t65 16q48 0 85 -34.5t55 -93.5q17 -54 17 -130v-182q0 -56 -4 -109q-2 -31 -7 -53.5t-15 -45.5
q-11 -27 -23 -44.5t-32 -29.5q-24 -15 -43 -22q-20 -4 -46 -4q-80 0 -115.5 52.5zM280.5 62.5q23.5 29.5 37.5 76.5q24 83 24 142v4q0 35 2 99h-150q-12 0 -21.5 -1t-19.5 -4q-11 -3 -17.5 -10t-15.5 -22q-8 -12 -11.5 -30t-6.5 -53q-3 -31 -3 -68q0 -89 28 -126t100 -37
q30 0 53.5 29.5z" />
    <glyph glyph-name="uni0190" unicode="&#x190;" horiz-adv-x="587" 
d="M87 547q0 82 60.5 129.5t166.5 47.5q64 0 124 -18.5t109 -55.5l-43 -61q-52 36 -94 48.5t-94 12.5q-63 0 -99.5 -30.5t-36.5 -81.5q0 -60 48 -95.5t145 -35.5h97v-75h-102q-110 0 -165 -33t-55 -97q0 -67 48.5 -102.5t139.5 -35.5q105 0 214 52v-82q-90 -44 -219 -44
q-135 0 -206 52t-71 153q0 76 46.5 121t137.5 57v4q-72 12 -111.5 56.5t-39.5 113.5z" />
    <glyph glyph-name="uni0191" unicode="&#x191;" horiz-adv-x="519" 
d="M45 -240q-32 0 -56 13v76q21 -10 45 -10q35 0 49 20t14 62v793h399v-79h-309v-253h290v-79h-290v-386q0 -157 -142 -157z" />
    <glyph glyph-name="florin" unicode="&#x192;" horiz-adv-x="303" 
d="M2 -81q0 12 39 17q27 3 42 11q11 5 15.5 8.5t8.5 11.5q1 2 4.5 10.5t5.5 26.5q4 24 5 60q14 308 14 345v44q0 4 -16 4q-51 -2 -51 15l1 4q1 2 6 5q2 1 8 1h5h4q6 0 22 -3l22 -3q1 23 6 128q1 9 1 23q0 23 2 47q2 42 20 62q17 21 59 30q19 5 38 5h8h6q10 0 10 -8
q0 -14 -36 -20q-28 -4 -44.5 -12.5t-24.5 -23.5q-9 -15 -12 -34t-3 -52v-46q-2 -50 -2 -64v-35l15 1q52 0 52 -19q0 -3 -1 -5t-5 -4t-9 -2h-5h-4q-6 0 -22 3l-22 3l-2 -36q0 6 -11 -252l-3 -53q-2 -31 -2 -55q0 -34 -3 -57q-8 -52 -37 -71q-15 -10 -38 -16t-41 -6
q-25 0 -25 12z" />
    </font>
</defs>
</svg>
