<?xml version="1.0" standalone="no"?>
<!DOCTYPE svg PUBLIC "-//W3C//DTD SVG 1.1//EN" "http://www.w3.org/Graphics/SVG/1.1/DTD/svg11.dtd" >
<svg xmlns="http://www.w3.org/2000/svg" xmlns:xlink="http://www.w3.org/1999/xlink" version="1.1">
<metadata>
Created by FontForge 20190801 at Mon Feb  8 12:12:18 2021
 By root
Copyright 2015 The Amatic SC Project Authors (https://github.com/googlefonts/AmaticSC)
</metadata>
<defs>
<font id="AmaticSC-Bold" horiz-adv-x="183" >
  <font-face 
    font-family="Amatic SC"
    font-weight="700"
    font-stretch="normal"
    units-per-em="1000"
    panose-1="0 0 8 0 0 0 0 0 0 0"
    ascent="800"
    descent="-200"
    x-height="663"
    cap-height="758"
    bbox="-213 -265 1046 1095"
    underline-thickness="50"
    underline-position="-100"
    unicode-range="U+0001-206F"
  />
<missing-glyph horiz-adv-x="364" 
d="M33 0v666h265v-666h-265zM66 33h199v600h-199v-600z" />
    <glyph glyph-name=".notdef" horiz-adv-x="364" 
d="M33 0v666h265v-666h-265zM66 33h199v600h-199v-600z" />
    <glyph glyph-name=".null" horiz-adv-x="0" 
 />
    <glyph glyph-name="nonmarkingreturn" unicode="&#xd;" 
 />
    <glyph glyph-name="NULL" 
 />
    <glyph glyph-name="NULL" 
 />
    <glyph glyph-name="uni0001" 
 />
    <glyph glyph-name="uni0002" 
 />
    <glyph glyph-name="uni0003" 
 />
    <glyph glyph-name="uni0004" 
 />
    <glyph glyph-name="uni0005" 
 />
    <glyph glyph-name="uni0006" 
 />
    <glyph glyph-name="uni0007" 
 />
    <glyph glyph-name="uni0008" 
 />
    <glyph glyph-name="uni0009" unicode="&#x9;" 
 />
    <glyph glyph-name="uni000A" unicode="&#xa;" 
 />
    <glyph glyph-name="uni000B" 
 />
    <glyph glyph-name="uni000C" 
 />
    <glyph glyph-name="uni000E" 
 />
    <glyph glyph-name="uni000F" 
 />
    <glyph glyph-name="uni0010" 
 />
    <glyph glyph-name="uni0011" 
 />
    <glyph glyph-name="uni0012" 
 />
    <glyph glyph-name="uni0013" 
 />
    <glyph glyph-name="uni0014" 
 />
    <glyph glyph-name="uni0015" 
 />
    <glyph glyph-name="uni0016" 
 />
    <glyph glyph-name="uni0017" 
 />
    <glyph glyph-name="uni0018" 
 />
    <glyph glyph-name="uni0019" 
 />
    <glyph glyph-name="uni001A" 
 />
    <glyph glyph-name="uni001B" 
 />
    <glyph glyph-name="uni001C" 
 />
    <glyph glyph-name="uni001D" 
 />
    <glyph glyph-name="uni001E" 
 />
    <glyph glyph-name="uni001F" 
 />
    <glyph glyph-name="space" unicode=" " 
 />
    <glyph glyph-name="exclam" unicode="!" horiz-adv-x="207" 
d="M91 174q-9 26 -9 77q0 18 2 68q2 37 2 82l-2 164l-2 164q0 16 13 27.5t29 11.5q10 0 17 -7t7 -18q0 -88 -10 -239q-11 -167 -11 -239q0 -53 -1.5 -76.5t-5 -31.5t-10.5 -8q-10 0 -19 25zM69.5 -11q-10.5 11 -10.5 27q0 18 12 31.5t29 13.5q18 0 29.5 -13.5t11.5 -34.5
q0 -35 -49 -35q-12 0 -22.5 11z" />
    <glyph glyph-name="quotedbl" unicode="&#x22;" horiz-adv-x="333" 
d="M105.5 641.5q-1.5 58.5 -1.5 106.5q0 10 6 16.5t14 6.5q20 0 23 -26l1 -4v-3q0 -46 -12 -100.5t-25 -54.5h-3q-1 0 -2.5 58.5zM199 645q-5 62 -5 103q0 9 9.5 16t20.5 7q12 0 17 -23q-1 -38 -10 -107q-7 -58 -19 -58h-4q-4 0 -9 62z" />
    <glyph glyph-name="numbersign" unicode="#" horiz-adv-x="421" 
d="M226 -18q0 63 15 154q14 96 16 148q-30 2 -69 2l-24 -2q-3 -17 -4 -50q-8 -115 -15 -171q-5 -46 -15 -74q-9 -28 -21 -28q-11 0 -19.5 6t-8.5 15q0 118 35 299l-30 -2q-41 0 -41 32q0 22 47 22h17h13q9 52 15 130l-25 -2q-47 0 -47 29v5l15 16h15h15q21 0 31 1l9 62
q13 84 13 137v9v9q0 18 5 27t20 9h8l11 -23q0 -39 -9 -114t-9 -111q6 -2 27 -2h17q30 0 43 4q10 43 26 158q4 31 11 73q11 15 25 15q8 0 16 -6.5t8 -13.5q0 -37 -17 -113q-17 -71 -19 -111h32l21 -23q-2 -10 -4 -15.5t-8 -9.5q-7 -5 -14 -5l-33 2q-10 -52 -12 -129h5h5
q42 0 42 -30q0 -25 -38 -25h-3l-14 1q-2 -21 -11 -97q-17 -139 -17 -209l-17 -21q-34 0 -34 22zM256 337q14 86 16 128q-22 4 -47 4q-26 0 -42 -3q-13 -51 -16 -131q3 -1 13 -1q51 0 76 3z" />
    <glyph glyph-name="dollar" unicode="$" horiz-adv-x="413" 
d="M206 -95v8q-1 9 -1 33l-1 33l-18 -1q-36 0 -62 13q-16 9 -16 21t5.5 19.5t16.5 7.5t30 -8t26 -8q6 0 16 2l-9 291l-2 62q-63 86 -86.5 131.5t-23.5 98.5q0 42 26.5 81.5t72.5 60.5l-1 35q0 27 13 27q9 0 15.5 -11t6.5 -27v-13q34 8 61 8q18 0 35 -10.5t24 -26.5l-17 -21
q-14 0 -35 4q-26 3 -38 3q-14 0 -28 -3l14 -314q24 -31 38.5 -52.5t31.5 -51.5q32 -61 32 -130q0 -54 -21 -102t-59 -70v-76q0 -45 -29 -45q-17 0 -17 31zM188 494q-3 67 -6 206q-25 -16 -39 -40t-14 -46q0 -39 15 -76t45 -80zM275 110q11 33 11 58q0 68 -52 148l12 -261
q18 22 29 55z" />
    <glyph glyph-name="percent" unicode="%" horiz-adv-x="576" 
d="M77 368q-22 29 -28 62q-9 41 -11 74q-1 30 -1 64q0 47 16 112q9 35 26.5 56.5t39.5 21.5q112 0 112 -198v-3h-1q-8 -23 -8 -106q-1 -32 -8 -56t-25 -38q-21 -15 -57 -15q-35 0 -55 26zM174 25q0 61 48 251q44 173 84 320l20 74l9 32q1 18 8.5 33t19.5 15q11 0 19 -7
t8 -17q0 -70 -89 -402q-39 -148 -44 -174q-2 -7 -5 -27q-9 -50 -20 -81q-7 -21 -17 -33t-22 -13q-19 11 -19 29zM185 533q0 175 -62 175q-12 0 -25 -55t-13 -84q0 -30 2 -60q3 -37 13 -79q5 -18 12.5 -28.5t17.5 -10.5q55 0 55 142zM377 14.5q-15 13.5 -24 35.5
q-17 41 -23 93q-2 28 -2 38q0 33 2 63q1 36 10 75q7 35 29 63q18 27 54 27q21 0 37.5 -8t27.5 -23q23 -35 28 -70q6 -34 6 -75v-48q0 -68 -21 -119q-12 -30 -35 -47.5t-56 -17.5q-18 0 -33 13.5zM473 188v40q0 36 -9 77q-5 24 -16.5 38.5t-27.5 14.5q-14 0 -24 -23
q-14 -30 -19 -114q-1 -16 -1 -42t12.5 -74t24.5 -48q60 0 60 131z" />
    <glyph glyph-name="ampersand" unicode="&#x26;" horiz-adv-x="483" 
d="M118 19q-33 25 -51 64q-17 39 -17 75q0 45 8 91q1 15 11 42q3 11 6.5 20t5.5 16q7 16 17.5 39t18.5 37q3 9 22 44q0 27 -4 68q-3 45 -3 69v83q0 35 17 53.5t45 18.5q39 0 71 -27t32 -63q0 -59 -19.5 -106.5t-61.5 -96.5q-2 -2 -9 -14q-17 -24 -17 -34q0 -28 18 -93
t42 -125t41 -78q31 69 31 176v5q-8 0 -9 3l-3 4l-2 5l-1.5 3t-1.5 2v25q27 0 62.5 3.5t50.5 9.5q29 -6 29 -26q0 -14 -15.5 -21t-36.5 -7l-2 1h-1h-25q0 -159 -41 -214q30 -31 63 -31l21 2l20 1l18 -15q0 -19 -12.5 -26t-38.5 -7q-46 0 -96 37q-58 -38 -113 -38
q-37 0 -70 25zM229.5 549.5q22.5 42.5 22.5 66.5q0 21 -16.5 49t-32.5 28q-14 0 -26 -24v-53l1 -67q1 -30 1 -68v-11q28 37 50.5 79.5zM236.5 44.5q23.5 8.5 33.5 18.5q-92 131 -121 308q-53 -85 -53 -196q0 -51 23 -92q12 -22 32 -34.5t46 -12.5q16 0 39.5 8.5z" />
    <glyph glyph-name="quotesingle" unicode="'" horiz-adv-x="263" 
d="M109 644q-5 61 -5 104q0 9 9 16t20 7q18 0 27 -23l-3 -3l1 -4v-3q0 -46 -12 -100.5t-25 -54.5h-3q-4 0 -9 61z" />
    <glyph glyph-name="parenleft" unicode="(" horiz-adv-x="291" 
d="M173 -122q-38 90 -67 301q-11 83 -16.5 150.5t-5.5 100.5q0 28 7.5 87t20.5 123q11 63 34 116q22 50 46 50h4l18 -14q0 -29 -22 -70l-14 -31q-21 -53 -32.5 -123t-11.5 -139q0 -144 18.5 -276.5t56.5 -215.5q5 -12 15 -29q22 -41 28 -64l-1 1q-9 -21 -27 -21
q-27 0 -51 54z" />
    <glyph glyph-name="parenright" unicode=")" horiz-adv-x="306" 
d="M47 -141.5q-8 6.5 -8 16.5q0 15 28 64q13 23 14 26q36 79 60.5 207t24.5 226q0 79 -11.5 159.5t-32.5 133.5q-5 12 -15 29q-12 23 -17 37.5t-5 28.5v6l19 14q28 0 51 -53q36 -83 54 -261q7 -57 7 -93v-1q0 -35 -12.5 -121t-31.5 -181t-48 -170q-30 -74 -59 -74
q-10 0 -18 6.5z" />
    <glyph glyph-name="asterisk" unicode="*" horiz-adv-x="456" 
d="M101 359v5q2 20 36 89q32 64 40 82h-118q-17 0 -23.5 5.5t-6.5 21.5q0 9 6.5 15.5t15.5 6.5h119l-11 23q-26 51 -35 71q-10 18 -15 34q-5 13 -5 21q0 10 8 16t19 6q12 0 27 -28q14 -27 30 -68q11 -33 17 -45l8 27q13 43 27 79q19 45 39 45q11 0 19.5 -8.5t8.5 -18.5
q0 -24 -39 -109q-9 -18 -13.5 -29.5t-7.5 -16.5q26 -2 45 -2l29 2l37 2q51 0 51 -30q0 -25 -35 -25l-65 2q-29 2 -65 2q7 -18 38 -77q36 -70 36 -90q0 -11 -7.5 -18t-18.5 -7q-17 0 -26.5 17.5t-11.5 41.5l-42 93q-6 -14 -8 -22l-10 -27q-26 -75 -48 -108h-23z" />
    <glyph glyph-name="plus" unicode="+" horiz-adv-x="439" 
d="M191.5 170q-9.5 7 -9.5 18q0 16 -3 49q-4 28 -4 48v7l-26 -1q-20 -3 -29 -3q-43 0 -43 32q0 10 6.5 18t16.5 8l29 -2l30 -2q9 0 23 2l-3 35q-3 26 -3 38q0 56 32 56q11 0 18 -8.5t7 -20.5v-12l1 -25q0 -10 1 -16q0 -19 3 -34q2 -8 4 -11q2 -4 5 -4l25 2q13 2 33 2
q51 0 51 -30q0 -12 -8 -19.5t-20 -7.5q-9 0 -29 3l-30 2q-32 0 -32 -24q0 -10 5 -40t5 -40q0 -12 -10 -19.5t-23 -7.5t-22.5 7z" />
    <glyph glyph-name="comma" unicode="," horiz-adv-x="199" 
d="M76 -94q-10 0 -12 9v6l24 30q13 18 17 33q1 3 1 9t-1 9q-16 0 -24.5 9.5t-11.5 29.5q-3 18 10.5 27.5t34.5 9.5q31 0 37 -33q4 -25 -14 -66t-46 -67q-6 -5 -12 -6h-3z" />
    <glyph glyph-name="hyphen" unicode="-" horiz-adv-x="377" 
d="M90 328.5q-10 8.5 -10 20.5t24 21q34 13 118 18q32 2 41 2q13 0 23 -8.5t10 -20.5t-24 -21q-34 -13 -118 -18q-32 -2 -41 -2q-13 0 -23 8.5z" />
    <glyph glyph-name="period" unicode="." horiz-adv-x="289" 
d="M114 -5q-10 11 -10 25q0 15 11 27t26 12q14 0 25 -12t11 -26q0 -16 -11.5 -26.5t-28.5 -10.5q-13 0 -23 11z" />
    <glyph glyph-name="slash" unicode="/" horiz-adv-x="368" 
d="M79.5 -20q-3.5 6 -3.5 16q0 7 3 19l87 348q86 347 102 395q1 7 9 7t13 -6.5t5 -16.5l-1 -8q-13 -71 -54 -238.5t-82 -318t-60 -192.5q-3 -11 -10 -11q-5 0 -8.5 6z" />
    <glyph glyph-name="zero" unicode="0" horiz-adv-x="321" 
d="M44 565v32q0 75 17 117q8 24 25.5 36.5t42.5 12.5q143 0 143 -509q0 -251 -107 -251q-121 0 -121 562zM200 79q17 44 24 147q2 22 2 51q0 67 -6 178q-7 105 -31 190q-11 43 -29.5 68t-41.5 28q-15 -12 -20.5 -25t-5.5 -35q0 -55 2 -98l2 -100q0 -13 5 -48q5 -37 5 -49
q0 -24 3 -110q4 -82 19 -151q7 -35 19 -55.5t27 -20.5q16 0 26 30z" />
    <glyph glyph-name="one" unicode="1" horiz-adv-x="269" 
d="M81 1q-7 5 -7 22q0 11 5 15t21 4q22 0 22 17q0 99 -15 292q-15 194 -15 288q0 9 1 17v19q0 47 -34 47h-11l-12 -1q-29 0 -29 22q0 26 81 26q43 0 51 -17q-6 -27 -6 -42q0 -27 8 -91q7 -57 7 -92q0 -71 11 -236q11 -146 11 -238v-6q4 0 11 1t14 1q4 1 12 1q42 0 42 -25
q0 -29 -114 -29h-16h-14q-17 0 -24 5z" />
    <glyph glyph-name="two" unicode="2" horiz-adv-x="343" 
d="M59.5 1.5q-10.5 8.5 -10.5 21.5v4q20 24 40 80q9 27 15 39q59 131 86 236t27 222q0 125 -48 128q-16 -8 -22 -47q-2 -16 -10 -26.5t-20 -10.5q-24 0 -24 31q0 47 28 79q15 16 36 16v1q34 0 57 -15q17 -10 32 -38q8 -16 15 -53q2 -18 2.5 -33.5t1.5 -22.5v-27
q0 -68 -16.5 -147.5t-39.5 -141.5q-26 -71 -52 -135q-31 -78 -45 -120q57 10 118 10q21 -15 21 -28q0 -12 -13 -22q-19 0 -54 -3l-22 -1q-42 -5 -77 -5q-15 0 -25.5 8.5z" />
    <glyph glyph-name="three" unicode="3" horiz-adv-x="334" 
d="M102 10q-14 11 -14 27q0 10 3 13.5t14 3.5q8 0 14 -6q8 -8 15.5 -12.5t19.5 -4.5q61 0 61 113q0 52 -1 77t-6 62q-12 80 -54 132q-2 -1 -10 -1q-13 0 -22 5t-9 15q0 17 33 50q13 14 22 35.5t9 42.5q0 41 -9 91q-5 30 -16.5 49t-26.5 19q-11 0 -19.5 -8t-12.5 -20
q-3 -12 -12 -20.5t-22 -8.5q-11 0 -19.5 7.5t-10.5 19.5q14 35 39.5 56t58.5 21q23 0 42 -14.5t30 -38.5q10 -23 17 -53.5t9 -57.5q2 -19 2 -55q0 -14 -4.5 -28t-9.5 -22q-5 -11 -16 -24l-15 -22q23 -14 41 -48t27 -79q16 -84 16 -150q0 -41 -5 -80q-7 -42 -29 -73
q-21 -33 -70 -33q-37 0 -60 20z" />
    <glyph glyph-name="four" unicode="4" horiz-adv-x="303" 
d="M179 -4q-9 15 -9 33v3q5 20 5 36q0 18 -3 49q-4 29 -4 49v22q1 9 1 21q0 11 -2 31l-26 -3q-20 -3 -29 -3q-19 0 -39 16q0 21 5 39q-5 25 -5 56q0 29 8 103q7 64 7 101v185q0 13 7 16q5 3 12 3q13 0 21.5 -6.5t8.5 -17.5q0 -22 -2 -39l-2 -39v-9q-1 -4 -1 -9q0 -8 2 -18
v-4q3 -25 3 -53q0 -49 -7 -127t-7 -127q0 -7 2 -23q23 2 36 6q0 36 5 141q4 84 4 138q0 10 8.5 16.5t17.5 6.5l16 -18v-48q0 -130 -2 -232q1 0 3.5 0.5t8.5 0.5q7 1 17 1q30 0 30 -21q0 -24 -40 -24q-17 0 -17 -9q0 -42 3 -97.5t8 -65.5q-2 -8 -2 -19q0 -13 4 -20v-18
q0 -16 -5.5 -27t-17.5 -11q-14 0 -23 15z" />
    <glyph glyph-name="five" unicode="5" horiz-adv-x="330" 
d="M120 10q0 11 9 17t21 6q16 0 26 -9q22 8 37 52.5t15 83.5q0 50 -1 85q-3 45 -10 81q-4 21 -9 35t-15 31q-14 25 -46 38q-17 5 -33 5q-23 0 -31 19q-5 15 -5 38q0 8 3 26l2 25q0 46 -5 85l-13 83l-6 41l17 18h81q42 0 42 -26v-5l-19 -15h-25v3h-42q1 -50 19 -238l20 -2
q22 -2 42 -7q11 -3 19 -9q21 -15 37 -66.5t21 -106.5q5 -53 5 -86q0 -46 -2 -76q-1 -21 -4 -33.5t-10 -33.5q-6 -17 -14.5 -30t-22.5 -28q-14 -14 -32 -29h-7h-10q-54 0 -54 28z" />
    <glyph glyph-name="six" unicode="6" horiz-adv-x="283" 
d="M84 54q-24 60 -29 137q-6 70 -6 154v47v38q0 344 108 344q8 0 15.5 -6t7.5 -14q0 -12 -11 -21.5t-27 -12.5q-12 -11 -22.5 -64.5t-15.5 -110.5l-5 -82q10 2 15 2q23 0 42 -15t32 -40q22 -41 36 -124q8 -64 10 -126v-45q0 -19 -1 -35.5t-5 -32.5q-5 -18 -13 -29t-24 -18
q-17 -7 -37 -7q-47 0 -70 61zM188 104q0 59 -12 177q-8 66 -21 103q-15 42 -35 47q-13 -10 -17.5 -22t-4.5 -33q0 -27 1 -44l1 -37q1 -56 7 -113q5 -53 19 -102q13 -44 36 -44q26 0 26 68z" />
    <glyph glyph-name="seven" unicode="7" horiz-adv-x="300" 
d="M73 12q0 18 11 53l7 24q40 148 63.5 316.5t26.5 323.5q-10 2 -23 2q-10 0 -64 -6l-34 -3q-10 5 -16.5 12.5t-6.5 16.5q0 21 126 21h18q16 0 23.5 -1.5t15.5 -7.5q6 -4 12 -19q-16 -78 -43 -348q-9 -97 -24.5 -191.5t-33.5 -146.5v-9q0 -20 -11.5 -37t-27.5 -17z" />
    <glyph glyph-name="eight" unicode="8" horiz-adv-x="314" 
d="M121.5 -26q-16.5 14 -25.5 37q-15 40 -15 86q0 60 23 168q23 106 23 156q0 27 -10 63t-24 70q-14 35 -24 72.5t-10 67.5q0 39 18 65t51 26h21q32 -21 43 -38q8 -12 12 -20.5t5 -23.5q2 -20 2 -62q0 -32 -2 -50l-3 -23q-1 -14 -8 -49q-4 -18 -4 -21q-1 -5 -6 -28l-6 -26
l-6 -23q35 -80 57 -181t22 -182q0 -4 1 -7v-7l-1 -10l-1 -4v-1q-30 -69 -94 -69q-22 0 -38.5 14zM167 641q0 26 -7.5 62.5t-17.5 36.5h-21q-14 -16 -14 -50q0 -31 12.5 -94.5t25.5 -103.5q22 75 22 149zM197.5 20.5q11.5 17.5 11.5 47.5q0 65 -13 132.5t-41 165.5
q-14 -46 -21 -121.5t-7 -151.5v-1q0 -26 13 -52v-5q1 -12 7 -22t14 -10q25 0 36.5 17.5z" />
    <glyph glyph-name="nine" unicode="9" horiz-adv-x="281" 
d="M136 2q15 47 15 333q0 38 -1 65l-1 55q-56 13 -91.5 54.5t-35.5 97.5q0 48 10 90q7 28 17.5 46.5t27.5 31.5t42 13q48 0 66 -21.5t18 -73.5q0 -96 -6 -288q-6 -193 -6 -289q0 -11 -3 -35q-4 -23 -4 -37q0 -5 1 -9v-11q0 -18 -9 -29.5t-25 -11.5zM155 697q0 25 -7.5 37
t-28.5 12q-13 0 -23.5 -16.5t-15.5 -41.5q-9 -49 -9 -79q0 -23 3 -40q2 -10 5 -15l5 -12q2 -5 8 -10l9 -9q5 -4 12 -8.5t10 -6.5q1 -1 4 -2.5l9 -4.5l14 -8q5 83 5 204z" />
    <glyph glyph-name="colon" unicode=":" horiz-adv-x="289" 
d="M120 475q-10 11 -10 25q0 15 11 27t26 12q14 0 25 -12t11 -26q0 -16 -11.5 -26.5t-28.5 -10.5q-13 0 -23 11zM110 97q-10 11 -10 25q0 15 11 27t26 12q14 0 24.5 -11.5t10.5 -26.5q0 -16 -11 -26.5t-28 -10.5q-13 0 -23 11z" />
    <glyph glyph-name="semicolon" unicode=";" horiz-adv-x="298" 
d="M139 475.5q-10 10.5 -10 24.5q0 15 11 27t26 12q14 0 25 -11.5t11 -26.5q0 -16 -11 -26t-29 -10q-13 0 -23 10.5zM133 15q-5 0 -8 3t-3 7v6l24 30q15 21 17 33q1 3 1 9t-1 9q-16 0 -24.5 9.5t-11.5 29.5q-3 18 10 27.5t34 9.5q39 0 39 -42q0 -26 -17.5 -63t-43.5 -61
q-6 -4 -12 -6z" />
    <glyph glyph-name="less" unicode="&#x3c;" horiz-adv-x="378" 
d="M227.5 18.5q-24.5 29.5 -48.5 78.5q-36 73 -78 186q-20 50 -24 58q1 17 34.5 109t70.5 171q39 86 53 86h1l2 -1l22 -17q-4 -33 -23.5 -84.5t-44.5 -98.5q-58 -116 -58 -163q0 -7 66.5 -145.5t85.5 -173.5h13q-2 -15 -8.5 -25t-18.5 -10q-20 0 -44.5 29.5z" />
    <glyph glyph-name="equal" unicode="=" horiz-adv-x="431" 
d="M208 374q-7 1 -14.5 1t-13.5 1h-5l-17 -1h-21q-60 0 -60 28q0 11 6.5 17t16.5 6h179q77 0 77 -27q0 -26 -105 -26zM223 285q-70 3 -106 3q-40 0 -40 22q0 10 6.5 16t16.5 6h150q102 0 102 -26q0 -10 -6.5 -16.5t-17.5 -6.5z" />
    <glyph glyph-name="greater" unicode="&#x3e;" horiz-adv-x="378" 
d="M83 -4.5q-6 6.5 -6 16.5q0 17 33 83.5t86 164.5q39 74 39 83q0 27 -12 63t-32 73l-12 24q-3 7 -23 46t-32 76q-14 37 -14 64l27 17v-1q19 -9 56.5 -87.5t69.5 -169.5q28 -84 30 -107l-176 -350l-10 -1q-3 -1 -9 -1q-9 0 -15 6.5z" />
    <glyph glyph-name="question" unicode="?" horiz-adv-x="266" 
d="M103 131q0 61 9.5 133t27.5 175l5 29q14 87 14 146q0 93 -30 93q-19 0 -19 -45q0 -11 7 -54q0 -1 -5 -6q-17 -15 -25 -15q-28 0 -28 67v10q0 26 5.5 44.5t20.5 32.5q17 14 42 14q22 0 38 -8t26 -22q16 -24 20 -71q1 -11 1 -39q0 -88 -30 -192q-13 -43 -22 -108.5
t-9 -135.5q0 -55 1 -67q-18 0 -20 -2q-2 -1 -5 -1q-20 0 -24 22zM103 8q-11 10 -11 25q0 14 12 26.5t27 12.5q12 0 24 -13t12 -25q0 -38 -40 -38q-15 0 -24 12z" />
    <glyph glyph-name="at" unicode="@" horiz-adv-x="571" 
d="M44 467q0 37 1 68t5 70q4 42 12.5 70.5t25.5 63.5q16 33 39.5 53t60.5 34q35 13 82 13q42 0 78.5 -15.5t62.5 -43.5q24 -26 43.5 -64t31.5 -80q22 -79 29 -177q3 -40 3 -84q0 -35 -3 -61q-3 -35 -15 -64q-11 -31 -37 -44q-14 -8 -31 -8q-25 0 -51 55q-17 -46 -46 -75
t-61 -29q-33 0 -58 23q-20 17 -34 57q-11 33 -15 76q-4 44 -4 77v34q0 40 1 69q3 37 9 72q7 30 24 61q9 14 19.5 22t26.5 14q15 6 33 6q44 0 76 -42q13 -18 24 -46t17 -57q12 -55 18 -126l6 -61q1 -15 4 -52v-5l15 -22q9 5 15.5 31.5t8.5 54.5q1 16 1 44q0 77 -9 148
q-12 87 -39 148q-16 35 -36 59t-48 38q-29 15 -64 15q-61 0 -99 -33q-16 -14 -29 -36.5t-19 -45.5q-6 -20 -9.5 -50t-4.5 -55l-1 -54v-59q0 -57 2 -106q3 -70 12 -138q12 -80 31 -129q22 -60 59 -83q17 -13 42 -13q38 0 72 8.5t55 22.5q17 10 37 26q18 16 30 23.5t21 7.5
t9 -10q0 -12 -15 -31.5t-40 -39.5q-28 -22 -74 -36.5t-97 -14.5q-203 0 -203 526zM310.5 217q15.5 17 26.5 40t11 38v76q0 58 -13 139q-8 44 -23.5 71t-35.5 27q-27 0 -45 -61q-16 -60 -16 -144q0 -81 17 -143q18 -60 50 -60q13 0 28.5 17z" />
    <glyph glyph-name="A" unicode="A" horiz-adv-x="350" 
d="M234.5 6q-7.5 6 -7.5 20v131q-13 9 -49 16t-68 9q-11 -21 -16 -51l-4 -20q-1 -7 -6 -31t-11 -41.5t-12 -27.5q-38 0 -44 20q11 16 25 94l33 183q22 130 40.5 222t39.5 154q23 69 44 69t32 -8q0 -40 19 -193q20 -150 20 -205q0 -53 11 -152q10 -101 10 -161q0 -34 -33 -34
q-16 0 -23.5 6zM226 218q-3 44 -10 109q-23 226 -23 277v8q-10 -10 -27.5 -90.5t-32.5 -172.5t-16 -122q42 -12 89 -12q8 0 20 3z" />
    <glyph glyph-name="B" unicode="B" horiz-adv-x="314" 
d="M61 17l2 123l2 123q0 67 -3 203q-3 135 -3 203v6q0 26 5 48q6 27 32 27q70 0 111 -45t41 -119q0 -45 -24 -94t-57 -73q58 -39 85.5 -100.5t27.5 -135.5q0 -35 -24 -87q-29 -62 -79 -89q-30 -15 -66 -15h-4q-46 0 -46 25zM161 477q15 28 28 68q3 11 10 28v35q0 30 -22 58
t-50 28q-14 0 -14 -31q0 -66 2 -118l2 -111q26 6 44 43zM199 89q29 38 29 91q0 46 -7.5 84.5t-19.5 58.5q-11 19 -22 32t-19 17l-8 3h-36q5 -115 5 -331q49 7 78 45z" />
    <glyph glyph-name="C" unicode="C" horiz-adv-x="337" 
d="M146.5 -3q-23.5 13 -40.5 35q-15 21 -27 53.5t-18 67.5q-12 59 -16 155q-1 23 -1 79v63q1 27 1 56q0 59 7 93q-3 15 -3 31q0 60 45 97t114 37q26 0 48 -14t22 -35q0 -10 -8 -16t-20 -6q-10 0 -21.5 3t-14.5 9h-13v2q-37 0 -62 -16q-18 -13 -28 -43q-4 -11 -6 -28t-2 -31
q-1 -8 -1 -32l2 -35l1 -34q0 -15 -4 -35q-5 -25 -5 -35v-24q0 -39 3 -107q1 -57 13 -114q9 -53 34 -90q24 -38 65 -38q17 0 42 18q27 18 38 18q14 0 29 -15q0 -37 -28 -57q-26 -18 -62 -23q-20 -2 -32 -2q-28 0 -51.5 13z" />
    <glyph glyph-name="D" unicode="D" horiz-adv-x="379" 
d="M76.5 7q-14.5 9 -14.5 25q22 22 22 117q0 57 -9 166q-10 104 -10 164l2 55q1 24 1 55q0 28 -10 71q-12 45 -12 63q0 35 77 35h15q54 0 94 -33q32 -28 54 -81q15 -36 26 -100q6 -56 6 -88v-32v-47q-2 -4 -2 -8q0 -8 1 -12t1 -10q0 -32 -9.5 -76.5t-27.5 -90.5
q-45 -110 -101 -156q-33 -26 -69 -26q-20 0 -34.5 9zM197 122.5q28 43.5 43 96.5q27 98 27 198q0 54 -10 118q-11 62 -47 112q-17 24 -43 37.5t-59 13.5v-1q0 -90 12 -272q12 -181 12 -274v-95q37 23 65 66.5z" />
    <glyph glyph-name="E" unicode="E" horiz-adv-x="278" 
d="M84 -1q-17 5 -17 28v581q0 17 -6 51q-7 31 -7 51v3q17 28 25 36q14 0 37 4q21 4 37 4t31 -9.5t15 -22.5q0 -30 -46 -30h-14q-6 1 -14 1q-9 0 -11 -1q0 -34 4 -82l2 -28l2 -55q0 -19 -3 -58l-2 -56l14 3q20 6 33 6q11 0 20 -8.5t9 -19.5q0 -12 -7.5 -21.5t-18.5 -9.5
l-12 1h-13q-15 0 -21 -7v-309l56 3q57 0 57 -26v-4q-6 -12 -22 -19.5t-31 -9.5l-33 -1h-31q-19 0 -33 5z" />
    <glyph glyph-name="F" unicode="F" horiz-adv-x="265" 
d="M84 63q0 116 -10.5 371t-19.5 269q0 28 22 43q8 5 22.5 8.5t26.5 3.5q6 1 25 1q23 0 33 -7.5t10 -26.5q0 -11 -8 -16.5t-20 -5.5l-10 1h-14q-28 0 -28 -11q0 -52 7 -136q6 -70 8 -133q7 2 26.5 6.5t29.5 4.5q11 0 19 -9.5t8 -21.5q0 -14 -13 -20q-2 -1 -9.5 -4.5
t-19.5 -4.5q-9 -1 -30 -3h-11q0 -60 10 -163q9 -108 9 -163l-1 -4l-1 -2q1 -4 1 -13q0 -13 -9 -20.5t-24 -7.5q-29 0 -29 64z" />
    <glyph glyph-name="G" unicode="G" horiz-adv-x="371" 
d="M129 7q-29 24 -53 82q-15 38 -24 107q-7 56 -7 106q-1 13 -1 45v34v40q0 43 3 103q4 51 16 104q13 52 38 88q25 38 67 54q25 7 47 7q42 0 42 -28q0 -11 -7.5 -17.5t-19.5 -6.5q-4 0 -14 3l-14 2q-19 0 -34 -11.5t-25 -33.5q-23 -48 -31 -105q-11 -70 -12 -122
q-2 -45 -2 -95v-27q-1 -14 -1 -35q0 -51 5 -100q4 -58 22 -100q16 -47 52 -66q17 -10 42 -10q44 0 74 42q-1 35 -5 68.5t-12 45.5q-1 0 -4.5 -0.5l-10.5 -1.5l-24 -2q-34 0 -34 29q0 9 10 16t27 10q28 7 50 7q20 0 31 -15t11 -38q0 -33 10 -90q10 -56 10 -89q0 -11 -7 -19
t-17 -8q-25 0 -34 21v1l-22 -11q-30 -17 -51 -17q-55 0 -91 33z" />
    <glyph glyph-name="H" unicode="H" horiz-adv-x="330" 
d="M215.5 -5.5q-6.5 9.5 -6.5 23.5q0 209 -8 353q-24 4 -34 4q-41 0 -59 -7q0 -56 9 -169q8 -120 8 -170q0 -10 -6 -18.5t-15 -8.5q-13 0 -24 46q-16 68 -26 285q-7 147 -7 316q-1 31 -1 88q0 18 17 18q10 0 20.5 -5t15.5 -11q-4 -32 -4 -75q0 -42 4 -102q3 -69 3 -104v-18
q-1 -8 -1 -19q0 -10 2 -26q6 0 20 1t28 3q33 3 49 3q0 87 -2 161l-2 167v27q13 0 23 -4.5t15 -11.5q9 -11 11 -38v-23q0 -86 10 -329q9 -220 9 -330q0 -14 -8.5 -25t-20.5 -11q-13 0 -19.5 9.5z" />
    <glyph glyph-name="I" unicode="I" horiz-adv-x="257" 
d="M37 31q0 24 30 24h12q4 -1 9 -1q8 0 11.5 5t3.5 18q0 85 -10 232q-9 153 -9 231q0 28 1 51l1 51q0 33 -3 55q-11 -4 -23 -4q-23 0 -23 24q0 12 14.5 21t37.5 13q42 7 71 7q12 0 20.5 -8t8.5 -19t-6.5 -19t-16.5 -8q-6 0 -10 1h-8q-10 0 -14.5 -4.5t-4.5 -16.5
q0 -106 13 -292q12 -195 12 -293v-38q7 1 20 1q42 0 42 -35v-6l-25 -17q-1 0 -6 -0.5t-20 -0.5q-34 -2 -42 -2q-86 0 -86 30z" />
    <glyph glyph-name="J" unicode="J" horiz-adv-x="268" 
d="M45 -87q-10 8 -10 23q0 11 12 23t27 18q15 19 27.5 59t12.5 82l1 49q1 21 1 48l-1 41l-5 101q-7 198 -22 349q-3 -2 -13 -3q-16 -5 -30 -5q-10 0 -17.5 7.5t-7.5 17.5q0 35 119 35h13q14 0 22 -1.5t15 -7.5q8 -6 8 -18q0 -26 -42 -26h-0.5t-0.5 1h-2h-13v-8q0 -26 6 -77
q5 -58 5 -78q0 -71 10 -194q8 -116 8 -195v-40v-40q0 -60 -25.5 -106.5t-71.5 -62.5q-16 0 -26 8z" />
    <glyph glyph-name="K" unicode="K" horiz-adv-x="356" 
d="M283 -21q-5 1 -11 1q-27 153 -54 256t-68 194l-21 -39q-9 -17 -10 -30q-3 -30 -3 -44q0 -30 3 -92q3 -61 3 -93v-82q0 -53 -34 -53q-29 0 -29 56q0 44 6 135q7 84 7 134l1 86v104q0 55 -7 115q-7 62 -7 94q0 13 8 22t20 9q37 0 37 -81l-4 -205l19 49q33 84 68 166
q20 45 36 71q17 27 27 27q11 0 19.5 -7.5t8.5 -18.5q0 -10 -54 -124q-53 -109 -62 -145v-18q15 -38 80 -243.5t65 -217.5t-9.5 -20t-22.5 -8q-6 0 -12 2z" />
    <glyph glyph-name="L" unicode="L" horiz-adv-x="250" 
d="M82.5 -1.5q-10.5 9.5 -10.5 22.5q0 9 4 22q3 14 3 21q0 89 -10 342q-10 216 -10 341q0 9 7 14.5t17 5.5q12 0 21 -8.5t9 -20.5q0 -60 6 -180q5 -133 5 -180l1 -12v-12v-7v-5q3 -87 3 -260v-26h77q21 -15 21 -30q0 -11 -7.5 -19.5t-17.5 -8.5q-3 0 -11 2l-4 1
q-6 -1 -19 -1h-17q-7 1 -16 1q-10 -12 -28 -12q-13 0 -23.5 9.5z" />
    <glyph glyph-name="M" unicode="M" horiz-adv-x="453" 
d="M332 -16q-6 10 -6 29l-1 148q-1 19 -1 63q-2 93 -2 210v51q-9 -48 -31 -135q-22 -90 -31 -148v-6l-3 -19q-2 -22 -10 -45q-10 -24 -31 -24q-36 0 -36 94q0 52 -10.5 111.5t-33.5 146.5l-30 112l-2 -120q0 -54 5 -206l2 -68l2 -137q0 -21 -15 -38q-25 0 -34.5 15.5
t-9.5 45.5l2 82q3 54 3 81l-2 193l-2 194q0 43 2 129l27 16q8 -1 16 -11.5t18 -33.5q25 -62 65 -248q6 -26 8 -43q12 -58 17 -88l15 -77l7 33l19 82q16 72 26.5 126t20.5 117q11 75 14 125v6q2 13 12 20.5t24 7.5q9 0 16 -8t7 -17q0 -120 9 -359q5 -117 7 -229q2 -51 2 -129
q0 -23 -12 -41t-27 -18q-10 0 -16 10z" />
    <glyph glyph-name="N" unicode="N" horiz-adv-x="412" 
d="M225 191q-70 241 -121 443v-328q0 -42 8 -143q7 -110 7 -142q0 -9 -11 -15.5t-25 -6.5q-21 0 -21 16l2 29q2 32 2 42q0 53 -6 168q-6 117 -6 142v128q0 31 3 92q4 53 4 92v6q0 50 22 50q13 0 33 -44q33 -72 84 -258q29 -108 68 -278q-1 4 16 -69l1 -5q0 97 2 174l2 174
v296q4 25 32 25q27 0 27 -39v-6q-6 -12 -6 -29q0 -61 -3 -184q-3 -124 -3 -186v-305q0 -16 -8.5 -30.5t-20.5 -14.5q-20 0 -82 206z" />
    <glyph glyph-name="O" unicode="O" horiz-adv-x="355" 
d="M142 -10q-22 18 -38 49q-29 54 -43 148q-10 65 -15 150l-1 53v54q-1 26 -1 63q0 60 5 106q4 48 20 95q16 41 46 58q18 8 36 8q53 0 84 -42q34 -47 45 -105q16 -70 18 -134q4 -71 4 -134v-57q0 -17 -5 -64q-4 -37 -4 -63v-4q-6 -28 -6 -66q0 -28 -12 -58t-34 -51
q-22 -24 -50 -24q-27 0 -49 18zM227 64q12 33 17.5 80.5t9.5 107.5q2 26 2 67l-1 92q-2 54 -12 135q-8 69 -30 122q-10 25 -25 39t-32 14q-25 0 -37 -39q-15 -41 -20 -90q-6 -53 -7 -101l-1 -33q-1 -14 -1 -38v-4q0 -67 14 -165q16 -133 47 -189q20 -35 42 -35q20 0 34 37z
" />
    <glyph glyph-name="P" unicode="P" horiz-adv-x="288" 
d="M76.5 4.5q-6.5 9.5 -6.5 23.5l2 168q3 122 3 189q0 233 -26 357q15 23 38 23q37 0 67.5 -16.5t50.5 -44.5q39 -58 39 -130q0 -75 -32 -134t-93 -92l2 -101l2 -53q1 -17 1 -49q3 -67 3 -109q0 -19 -8 -30t-25 -11q-11 0 -17.5 9.5zM174.5 473.5q18.5 40.5 18.5 91.5v1
q0 23 -5 58q-3 12 -11 24t-9 14q-7 10 -37 31l-26 19q0 -51 6 -158l6 -158q39 37 57.5 77.5z" />
    <glyph glyph-name="Q" unicode="Q" horiz-adv-x="398" 
d="M248 -124v1q-27 12 -38 44q-7 26 -13 61q-4 24 -5 28h-41q-53 35 -78 92q-11 24 -18 55t-9 61q-2 18 -2 62l2 82q3 54 3 81l-1 32v39q0 60 4 96q6 50 21 91q16 43 48 60q17 9 37 9q27 0 50 -11t40 -30q27 -32 44 -104q12 -65 14 -132q1 -21 1 -69v-54q-1 -23 -1 -48v-45
q0 -90 -11.5 -140t-49.5 -103l4 -20q6 -39 13 -61q10 -36 25 -36h4q18 0 28 -2q15 -5 15 -22q0 -31 -44 -31q-17 0 -42 14zM187 40q7 13 27 13v-1q37 34 37 108v269q0 64 -3 107q-4 56 -18 105q-7 25 -17.5 41t-26.5 27q-17 11 -36 11q-18 0 -30 -52q-20 -79 -25 -258
q-2 -70 -2 -91q0 -43 5 -99q5 -61 26 -118q10 -28 26 -44.5t37 -18.5v1z" />
    <glyph glyph-name="R" unicode="R" horiz-adv-x="289" 
d="M208 17v3q-3 53 -18 118t-44 157q-22 69 -37 124v-394q0 -16 -5.5 -23.5t-21.5 -7.5q-12 0 -19 7.5t-7 19.5v8l2 294q2 130 2 293v123q0 12 5 16.5t21 4.5q25 0 46 -9.5t36 -26.5q31 -35 40 -84q4 -20 4 -46q0 -15 -2.5 -33t-3.5 -23q-2 -10 -9 -30t-9 -26l-12 -28
l-10 -26q1 -36 12.5 -91t25.5 -102q10 -33 36 -110l29 -88v-2q0 -17 -3 -29q-3 -16 -21 -16q-19 0 -37 27zM141 503l15 86q1 5 1 14q0 29 -11 67q-6 18 -15.5 30.5t-19.5 13.5l-2 -100q-3 -67 -3 -104q0 -35 1 -46q14 14 34 39z" />
    <glyph glyph-name="S" unicode="S" horiz-adv-x="307" 
d="M55 -9q-16 9 -16 21t6 19.5t17 7.5q10 0 29 -8q21 -8 26 -8q19 0 34.5 16.5t24.5 43.5q18 50 18 90q0 43 -13.5 90.5t-36.5 92.5l-16 32q-25 50 -38.5 79t-23.5 63q-15 48 -15 93q0 36 12.5 68t37.5 54q25 24 62 24q18 0 35 -10.5t24 -26.5l-17 -21q-26 0 -39 10
q-18 -2 -31.5 -17.5t-20.5 -35.5q-6 -19 -6 -38q0 -38 10.5 -77.5t27.5 -74.5l70 -140q17 -36 27 -81t10 -90q0 -66 -32 -124q-17 -30 -44 -47.5t-60 -17.5q-36 0 -62 13z" />
    <glyph glyph-name="T" unicode="T" horiz-adv-x="262" 
d="M111.5 7.5q-8.5 14.5 -8.5 35.5q0 33 4 81l2 26l2 53q0 35 -7 156t-7 156q0 3 0.5 11.5t0.5 26.5q1 20 1 49q0 73 -10 93q-6 0 -26 -3l-28 -2q-13 0 -23 7.5t-10 19.5t24 21q35 12 119 17q34 2 41 2q12 0 22 -8t10 -20t-8.5 -19.5t-21.5 -7.5l-18 1q-8 1 -18 1h-10
q7 -68 7 -123l-1 -64q-1 -29 -1 -65q0 -48 4 -115q5 -83 5 -115q0 -38 4 -90q4 -53 4 -90q0 -49 -29 -49q-15 0 -23.5 14.5z" />
    <glyph glyph-name="U" unicode="U" horiz-adv-x="401" 
d="M136 36q-39 55 -55 135q-18 85 -23 182q-5 88 -5 191v83q1 35 1 74q-8 8 -8 20t9 21.5t20 9.5q36 0 36 -71q0 -46 5 -174t5 -174q5 -13 9.5 -52t4.5 -64q0 -22 7 -54.5t20 -65.5q13 -35 34 -57.5t44 -22.5q14 0 23.5 9t12.5 26q6 28 6 55v195q0 37 -7 94q-6 63 -6 95v7
q0 16 -1 29l-1 29q0 28 -3 85q-4 51 -4 86q0 11 11.5 19t25.5 8l25 -23v-17q0 -12 -4 -29q-4 -28 -4 -32q0 -91 10 -251q9 -168 9 -261q0 -50 -10 -88q-6 -23 -16.5 -37t-28.5 -24q-17 -10 -44 -10q-62 0 -98 54z" />
    <glyph glyph-name="V" unicode="V" horiz-adv-x="350" 
d="M152 -6q-26 108 -71 391q-50 302 -61 359q4 19 27 19q17 0 42 -128q26 -129 51 -292l27 -177q16 120 25 180q19 138 28 228.5t9 171.5q15 20 36 20l21 -11l-15 -135q-5 -62 -25 -225l-9 -66q-11 -88 -22 -166q-15 -113 -28 -157q-6 -23 -12 -23q-14 0 -23 11z" />
    <glyph glyph-name="W" unicode="W" horiz-adv-x="494" 
d="M123 62q0 48 -41.5 343.5t-52.5 322.5q13 24 35 24q23 0 43 -104q19 -110 32 -252l7 -81q6 -68 7 -69l10 84l6 52q13 114 17 161q5 62 5 85v19q0 11 8 21t18 10q36 0 36 -30v-15q0 -57 11.5 -122.5t33.5 -156.5q14 -53 28 -129q3 33 19 160q16 116 23.5 197.5t7.5 152.5
q0 23 7.5 32.5t28.5 9.5q12 0 21.5 -7.5t9.5 -19.5q0 -11 -10 -23q0 -72 -11 -168.5t-27 -183.5q-16 -85 -27 -182.5t-11 -171.5q0 -16 -7.5 -25.5t-22.5 -9.5q-11 0 -26 41q-19 57 -47 227l-18 117l-9 65q-13 -91 -19.5 -146.5t-12.5 -131.5q-7 -73 -7 -144q0 -10 -8.5 -19
t-19.5 -9q-37 0 -37 76z" />
    <glyph glyph-name="X" unicode="X" horiz-adv-x="304" 
d="M42.5 -0.5q-8.5 5.5 -8.5 13.5q0 3 1 3q39 157 64 266q20 89 20 118q0 23 -6.5 56t-28.5 133l-24 108q-3 12 -3 18q0 14 6.5 20.5t16.5 6.5q15 0 22 -24q8 -27 23 -107l4 -18l8 -39l14 -72l24 117l19 92q10 40 15 52q8 14 17 14q10 0 17 -6t7 -16q0 -26 -34 -156
q-21 -79 -31 -124.5t-10 -65.5q0 -10 19 -106t33 -162l7 -28q10 -38 10 -54q0 -26 -18 -26q-25 0 -29 24q-4 20 -15 81l-8 46q-19 105 -28 143q-50 -224 -60 -260q-14 -53 -24 -53q-11 0 -19.5 5.5z" />
    <glyph glyph-name="Y" unicode="Y" horiz-adv-x="265" 
d="M113.5 -5q-7.5 7 -7.5 17l2 97q3 65 3 97q0 29 -9 86q-10 56 -10 87q0 38 -11 87t-28 94q-16 43 -27 92.5t-11 86.5q0 7 8 12t17 5q11 0 21 -23q12 -26 23 -73t13 -56l13 -69l10 -44q3 16 5 42q6 83 15 138q7 38 16 58q10 22 24 22q27 0 27 -10q0 -57 -24 -168t-24 -169
l-2 -16q-2 -15 -1 -18v-16q0 -43 3 -132l2 -133l2 -23l2 -24v-25q0 -12 -10 -20.5t-24 -8.5q-10 0 -17.5 7z" />
    <glyph glyph-name="Z" unicode="Z" horiz-adv-x="261" 
d="M24 15q22 34 50.5 181.5t48.5 305.5q20 155 22 206l-36 -3q-7 -1 -21 -1q-54 0 -54 31v5l13 16v1q12 -4 29 -4q16 0 47 6q35 5 47 5t19.5 -8.5t7.5 -20.5q0 -263 -111 -693l22 1q13 2 31 2q53 0 53 -30v-5l-16 -15l-61 -2q-28 -2 -62 -2q-18 0 -29 24z" />
    <glyph glyph-name="bracketleft" unicode="[" horiz-adv-x="315" 
d="M128 -49q-24 3 -38 11.5t-14 20.5q0 37 11 123q10 79 10 123q0 70 13 247q13 157 13 247v10q-1 4 -1 9q0 12 4 18t16 10h38q24 0 53 -5q17 -3 27.5 -10t10.5 -17t-8.5 -16.5t-18.5 -6.5q-12 0 -28 4q-18 3 -28 3q-19 0 -19 -10q0 -127 -20 -347q-19 -227 -19 -342v-20h10
q89 0 89 -36q0 -11 -9 -16.5t-23 -5.5q-32 0 -69 6z" />
    <glyph glyph-name="backslash" unicode="\" horiz-adv-x="359" 
d="M219 43q-35 91 -82 330q-19 93 -33 170l-19 98l-8 29q-13 41 -13 65q0 10 8 17t19 7q10 0 24 -27.5t30 -81.5q51 -167 113 -498q22 -123 22 -137q0 -15 -23 -30q-17 0 -38 58z" />
    <glyph glyph-name="bracketright" unicode="]" horiz-adv-x="319" 
d="M86 -33q0 13 10 20q1 1 7 5t16 6q12 2 14 2l15 2q11 0 14 1h13h10v20q-3 99 -21 332q-18 231 -18 357v9q-11 0 -32 -3q-22 -3 -34 -3q-36 0 -36 23q0 15 27 25q14 4 49 7h18q7 0 11 1h10q20 0 26.5 -9t6.5 -39q0 -74 14 -237t14 -237q0 -49 10 -133q10 -98 10 -133
q0 -12 -14 -20.5t-38 -11.5q-37 -6 -69 -6q-33 0 -33 22z" />
    <glyph glyph-name="asciicircum" unicode="^" horiz-adv-x="363" 
d="M255 206q-5 14 -8.5 30.5t-4.5 23.5l-3 17q-22 88 -51 284q-4 -16 -8 -41.5t-6 -37.5l-3 -22l-8 -63q-10 -62 -41 -217l-19 -8q-8 2 -14 7t-6 11q0 20 16 87q2 8 13 85q9 61 13 81t15 64l12 56l2 22q1 32 9 63q5 20 15.5 30.5t25.5 9.5l16 -13q0 -33 4 -77q2 -34 9 -76
l11 -75q6 -42 33 -154l9 -30l12 -47q6 -20 6 -28q0 -6 -6.5 -12.5t-13.5 -6.5q-20 0 -29 37zM198 631l-15 -29l15 -29v58z" />
    <glyph glyph-name="underscore" unicode="_" horiz-adv-x="526" 
d="M131 -39q-12 7 -12 15q0 10 7.5 17t17.5 7h321h24q11 1 24 1q12 0 18 -5t6 -14q0 -8 -8 -15t-19 -7l-44 -1l-154 -2q-104 -3 -154 -3q-15 0 -27 7z" />
    <glyph glyph-name="grave" unicode="`" horiz-adv-x="378" 
d="M251.5 687.5q-46.5 13.5 -86.5 28.5t-40 21q0 12 11 25.5t22 13.5q6 0 47 -21t76 -43.5t35 -30.5q0 -7 -7 -7q-11 0 -57.5 13.5z" />
    <glyph glyph-name="a" unicode="a" horiz-adv-x="299" 
d="M224 -2q-11 7 -11 26q0 30 -10 102l-4 21l-99 15q-6 -23 -17 -93q-6 -49 -19 -65q-7 -9 -20 -9q-12 0 -22 7.5t-10 18.5l2 5l1 4q66 257 100 507q0 4 1 13.5t2 27.5q3 37 6.5 59t11.5 33h34q14 0 24 -6.5t10 -18.5q0 -76 21 -226q20 -154 20 -216q0 -6 5 -31q5 -23 5 -30
t10 -60q9 -48 9 -62v-1q0 -22 -16 -28q-23 0 -34 7zM189 220q0 90 -16 230l-10 104q-43 -235 -59 -355q15 -10 88 -16q-3 15 -3 37z" />
    <glyph glyph-name="b" unicode="b" horiz-adv-x="285" 
d="M63 9q-4 12 -4 34q0 43 4 106q5 60 5 107q0 53 3 159l2 158q0 9 -3 27l-3 25v5q0 23 7 34t26 11q26 0 57 -15t45 -38q29 -48 29 -120q0 -54 -9 -90.5t-31 -67.5q27 -26 36.5 -66.5t9.5 -101.5t-21 -106q-24 -51 -70 -70q-28 -10 -56 -10q-22 0 -27 19zM174 494
q0 129 -41 135q-11 -23 -11 -108v-148q52 1 52 121zM166 79q18 31 18 71q0 42 -5 74q-4 25 -10.5 41.5t-17.5 30.5q-12 15 -28 18q-4 -57 -4 -151q0 -6 -2 -38l-2 -34q0 -2 1 -3v-2v-45q32 7 50 38z" />
    <glyph glyph-name="c" unicode="c" horiz-adv-x="279" 
d="M148.5 -7.5q-24.5 6.5 -37.5 14.5q-67 43 -67 235v27v31v24q0 40 1 71.5t4 68.5q3 39 9 63.5t20 55.5q12 29 29.5 45t45.5 27q25 11 62 11q15 0 23 -7t8 -18q0 -10 -6.5 -18t-15.5 -9h-47q-20 0 -35 -25t-21 -65q-13 -74 -13 -120v-5l-2 -96q-2 -43 -2 -97q0 -38 3 -62
q5 -36 17 -60q12 -27 41 -39q15 -6 33 -6q11 0 22 8q13 0 21.5 -5.5t8.5 -16.5q0 -39 -55 -39q-22 0 -46.5 6.5z" />
    <glyph glyph-name="d" unicode="d" horiz-adv-x="346" 
d="M67 125l2 158q1 70 1 157q0 32 -6 99q-5 73 -5 89q0 13 11 23t24 10q35 0 67.5 -15.5t57.5 -43.5q53 -61 70 -134q9 -37 9 -73q0 -13 -1 -24l-1 -27v-55q0 -64 -4 -101q-6 -50 -23 -89q-20 -42 -58 -75q-18 -15 -46 -30h-72q-26 0 -26 131zM174 55.5q17 10.5 29 28.5
q10 16 18.5 40.5t12.5 47.5q9 45 11 92q1 12 1 35q0 302 -117 315q-7 -45 -7 -104q0 -63 8 -220q7 -139 7 -221v-24q20 0 37 10.5z" />
    <glyph glyph-name="e" unicode="e" horiz-adv-x="284" 
d="M83.5 -4q-10.5 9 -11.5 22v26v20q-1 9 -1 21q0 21 -3 64l-2 64q0 49 3 146q4 87 4 146q0 14 -3 42q-3 29 -3 42q0 71 42 71q33 0 76.5 -13t43.5 -31q0 -10 -8.5 -18.5t-20.5 -13.5q-42 15 -76 20q1 -15 1 -43q0 -40 -1 -72q-3 -48 -3 -72l3 -16l16 1q8 1 20 1
q48 0 48 -28q0 -11 -9 -18.5t-23 -7.5q-18 0 -28 2h-25q2 -26 2 -76t-1 -90q-3 -61 -3 -91q0 -56 2 -56l33 1q17 1 41 1q38 0 38 -24q0 -14 -12.5 -21.5t-30.5 -7.5h-85q-13 0 -23.5 9z" />
    <glyph glyph-name="f" unicode="f" horiz-adv-x="247" 
d="M46 6q8 83 13 255q5 179 7 215v24q4 98 4 136q0 14 11.5 22t26.5 8q35 0 75 -6q26 -4 41.5 -13t15.5 -22q0 -28 -51 -28q-19 10 -52 10h-12v-12q0 -39 -4 -99q-5 -56 -5 -101v-27h8h10q49 0 49 -26q0 -13 -10.5 -21t-25.5 -8q-24 0 -39 5v-283q0 -44 -26 -44
q-15 0 -36 15z" />
    <glyph glyph-name="g" unicode="g" horiz-adv-x="346" 
d="M140 2.5q-23 10.5 -39 27.5q-13 14 -24 41t-16 52q-5 19 -8 55t-4 62v58v40q0 58 2 95q2 45 13 95q9 45 31 79q21 34 59 47q18 7 42 7q43 0 43 -25q0 -12 -9.5 -19.5t-22.5 -7.5q-6 0 -11 1q-4 1 -10 1q-17 0 -30 -18t-22 -50q-16 -62 -22 -135q-4 -68 -4 -101
q0 -34 3 -93q4 -55 17 -96q7 -24 16.5 -38.5t24.5 -24.5q17 -11 35 -11q48 0 48 160v46q-7 3 -23 3h-9h-11q-35 0 -35 23q0 14 9.5 21.5t24.5 7.5v-1h14q90 0 90 -31q0 -9 -5 -36q-6 -24 -6 -36q0 -17 3 -53l2 -53q0 -48 -33.5 -75.5t-81.5 -27.5q-28 0 -51 10.5z" />
    <glyph glyph-name="h" unicode="h" horiz-adv-x="331" 
d="M203 165l1 57l1 46v3v10q1 8 1 19q0 2 -3 5t-3 5v1q-5 -2 -18 -2t-32 4q-6 1 -32 5v-115q0 -26 3 -82q3 -55 3 -82q0 -15 -8 -26t-21 -11q-19 0 -27 37q-8 38 -8 99l2 81q1 34 1 72v17v14q0 16 -1 21v5l3 58q0 38 -3 113t-3 113q0 12 8 21t20 9q32 0 32 -60l-2 -124
q-2 -56 -2 -125q15 -5 54 -5h37q2 6 2 12q0 48 -6 142q-7 88 -7 143q0 11 8.5 18.5t20.5 7.5q7 0 20 -5l9 -4q0 -142 10 -379l9 -253q0 -14 -10.5 -22t-24.5 -8q-34 0 -34 165z" />
    <glyph glyph-name="i" unicode="i" horiz-adv-x="226" 
d="M24 31q0 24 31 24h11l10 -1q8 0 11 5t3 18q0 17 -2 53q-3 24 -7 86q-9 153 -9 231q0 28 1 51l1 51q0 33 -3 55q-16 -4 -23 -4q-24 0 -24 24q0 12 15 21t38 13q40 8 71 8q12 0 20.5 -8.5t8.5 -19.5t-6.5 -19t-16.5 -8q-6 0 -10 1h-8q-10 0 -14.5 -4.5t-4.5 -16.5
q0 -97 12 -292q2 -36 8 -106q5 -46 5 -94v-38q6 1 20 1q42 0 42 -35v-6l-25 -17q-1 0 -6.5 -0.5t-20.5 -0.5q-32 -2 -41 -2q-87 0 -87 30z" />
    <glyph glyph-name="j" unicode="j" horiz-adv-x="254" 
d="M-2 -82v8q1 4 1 9q0 4 14 10q48 15 65 33q28 31 28 113q0 66 -5 256q-6 167 -6 255v4q-3 0 -9.5 1t-14.5 1q-18 2 -29 5q-15 4 -21 10q-2 4 -2 8q0 9 10.5 16t21.5 7q50 0 114 -7t64 -16q0 -10 -7.5 -16.5t-19.5 -6.5h-51q0 -53 5 -211q5 -117 5 -210v-107q0 -35 -5 -59
q-7 -37 -28 -64q-22 -31 -66 -44q-22 -7 -53 -7q-11 0 -11 12z" />
    <glyph glyph-name="k" unicode="k" horiz-adv-x="350" 
d="M248 33q-39 75 -77 247q-11 47 -18 87q-36 -72 -36 -174v-185q0 -23 -20 -23q-15 0 -24.5 8.5t-9.5 23.5v303q0 44 10 162q10 103 10 162q8 19 29 19q13 0 22 -9t9 -22v-3q-13 -22 -13 -182v-36l37 73q34 71 64 122q28 50 41 50q16 0 27.5 -7t11.5 -20l-24 -40
q-75 -121 -84 -140q0 -17 -1 -30l-1 -30q0 -43 34.5 -160.5t57.5 -155.5l13 -18q19 -26 19 -46q0 -11 -8.5 -18.5t-19.5 -7.5q-23 0 -49 50z" />
    <glyph glyph-name="l" unicode="l" horiz-adv-x="268" 
d="M126 -4q-16 -10 -34 -10q-12 0 -20.5 10.5t-8.5 22.5q0 84 7 224q6 149 6 223v7q-6 63 -6 94q0 95 35 95q10 0 17.5 -7.5t7.5 -17.5q0 -12 -3 -38q-3 -25 -3 -38q0 -67 1 -121q1 -53 1 -120q-5 -15 -5 -42v-12l-2 -79q-2 -35 -2 -80q0 -69 33 -69q2 0 6.5 0.5t12.5 0.5
q9 1 23 1q54 0 54 -30q0 -10 -9 -17t-22 -9q-36 12 -89 12z" />
    <glyph glyph-name="m" unicode="m" horiz-adv-x="561" 
d="M433 10v64v64q0 50 -7 131q-8 91 -8 125l2 62q2 27 2 61q-4 -13 -33 -138q-29 -121 -60 -224q-30 -99 -49 -99t-30.5 11.5t-11.5 31.5q0 44 -35.5 187t-64.5 234l-6 -113q-8 -143 -11 -238q-2 -92 -2 -126q0 -8 1 -15v-14q0 -17 -7 -25.5t-26 -8.5q-10 0 -19 7.5t-9 16.5
q0 102 15 306t15 306q-6 9 -6 19q0 12 11.5 18.5t27.5 6.5q13 0 48 -94t70 -213t45 -172q8 27 13 50l6 24q32 140 64 253q19 69 37 108q18 42 33 42q14 0 25.5 -7.5t11.5 -19.5q0 -72 6 -216q7 -134 7 -208l-1 -53l-2 -53q0 -12 3 -36l3 -35q1 -9 1.5 -14t0.5 -6
q5 -13 5 -19q0 -17 -10 -30t-24 -13q-31 0 -31 62z" />
    <glyph glyph-name="n" unicode="n" horiz-adv-x="479" 
d="M316 3.5q-6 6.5 -9 22.5l-6 19v2v3q0 33 -68.5 225t-107.5 284v-503l4 -7q1 -2 4 -7t3 -10q0 -13 -9 -22t-22 -9q-32 0 -32 61l-1 171q-1 77 -1 172q0 32 3 93q3 63 3 93q0 47 36 74v-6q6 2 8 2q23 0 58 -80q28 -64 50.5 -135t59.5 -202l10 -36q23 -81 35 -116
q20 215 20 508v13q-1 6 -1 13q0 30 24 30q14 0 21.5 -11t7.5 -28v-75q-2 -154 -12 -334t-24 -203q-29 -8 -36 -8q-12 0 -18 6.5z" />
    <glyph glyph-name="o" unicode="o" horiz-adv-x="360" 
d="M130 -2.5q-22 16.5 -36 44.5q-29 61 -36 133q-9 68 -9 131q0 12 1 20v18q0 5 -1 5v18l1 70q1 32 8 102q5 48 23 93q7 20 18 30.5t25 10.5q40 0 72 -14.5t54 -40.5q20 -25 34 -61.5t20 -77.5q6 -42 6 -89v-8q0 -31 1 -56l1 -57q0 -288 -134 -288q-26 0 -48 16.5zM207 37.5
q15 14.5 23 39.5q19 51 23 110q5 51 5 88q0 45 -7 118q-6 77 -6 115v18q-2 38 -25.5 66t-57.5 28t-45 -39q-10 -31 -10 -80q0 -19 1 -32v-27l-2 -46q-2 -21 -2 -46q0 -54 3 -107q4 -75 20 -146q16 -74 47 -74q18 0 33 14.5z" />
    <glyph glyph-name="p" unicode="p" horiz-adv-x="281" 
d="M83 -7q-13 53 -13 147l2 89q2 40 2 89q-6 14 -6 25v3q10 19 10 86l1 46q1 22 1 49q0 59 -8 93q3 14 10 24.5t17 10.5h44q28 0 49 -12.5t32 -35.5q20 -41 20 -97q0 -40 -1 -63q-2 -29 -10 -53q-3 -13 -8.5 -21.5t-15.5 -20.5q-14 -17 -46 -32q-13 -7 -34 -13v-107l2 -64
l2 -31q4 -56 4 -95q0 -12 -10 -20.5t-23 -8.5zM189 517q0 29 -3 45q-3 12 -8 19.5t-15 12.5q-11 6 -24 6q0 1 -11 1v-57q0 -59 1 -105q0 -52 1 -68v-21v-2q59 9 59 169z" />
    <glyph glyph-name="q" unicode="q" horiz-adv-x="358" 
d="M270 -211q-56 0 -77 23q0 20 -3 46l-2 21q-7 41 -8 45l-5 24l-4 22q-55 13 -80 54q-27 43 -35 101q-7 49 -7 124q0 34 1 61v58q0 35 6 110q7 69 31 128q12 30 31.5 46t44.5 16q8 -3 24 -6q17 -5 21 -7q47 -18 69 -65q22 -46 27 -97q5 -47 5 -97l-1 -96q-3 -63 -11 -131
q-6 -62 -26 -123q-19 -56 -51 -70q0 -32 16 -93q6 -18 11 -42q46 0 46 -29q0 -10 -6.5 -17t-16.5 -7v1zM197 9q11 0 25 47t24 107t10 87v174q0 205 -99 205q-17 0 -29 -38q-19 -56 -26 -186q-3 -40 -3 -64l1 -74q1 -26 5 -82q0 -10 2 -32q4 -49 21 -104q14 -46 40 -46
q14 6 29 6z" />
    <glyph glyph-name="r" unicode="r" horiz-adv-x="295" 
d="M196 31q-21 52 -31 107l-7 34q-29 143 -37 163h-12q0 -29 -1 -53v-55q0 -134 19 -209l-11 -27h-28l-13 15l1 67q0 90 -9 273q-8 195 -8 273q0 48 33 48q54 0 88.5 -28t34.5 -78v-70q0 -15 -5 -34.5t-11 -31.5l-19 -36l-16 -30l5 -24l14 -71q14 -77 27 -125t32 -87l6 -12
q10 -20 10 -32q0 -10 -6 -17.5t-16 -7.5q-22 0 -40 48zM150.5 444.5q15.5 49.5 15.5 91.5q0 32 -8 60q-5 16 -16.5 24.5t-28.5 8.5l-2 -5l-2 -9l2 -118q2 -52 2 -113q22 11 37.5 60.5z" />
    <glyph glyph-name="s" unicode="s" horiz-adv-x="247" 
d="M48.5 -1q-12.5 10 -14.5 26l11 17q6 0 19 -4q15 -3 23 -3q18 0 32.5 16t21.5 42q13 48 13 86q0 66 -42 139l-11 19q-19 33 -32 59t-22 56q-12 39 -12 78q0 44 20 92q10 23 28.5 37.5t41.5 14.5q18 0 33.5 -11.5t15.5 -27.5q0 -9 -7 -14t-17 -5q-11 0 -21 6
q-22 -1 -35 -39q-11 -35 -11 -58q0 -29 9 -58.5t23 -53.5l22 -40l35 -66q14 -28 22.5 -65t8.5 -75q0 -61 -28 -116q-14 -28 -39.5 -45t-56.5 -17v-3q-18 3 -30.5 13z" />
    <glyph glyph-name="t" unicode="t" horiz-adv-x="256" 
d="M117 16l-1 39q-1 17 -1 38l1 34q-3 11 -15 219t-14 267q-58 2 -74 12q-11 8 -11 18q0 8 10.5 14.5t21.5 6.5q28 0 68 -4q38 -5 68 -5h8h8q31 0 31 -24q0 -12 -10 -19.5t-23 -7.5q-9 0 -26 3l-20 4l-1 -5l-1 -5q0 -89 17 -284q16 -183 16 -284q0 -12 -10.5 -21t-23.5 -9z
" />
    <glyph glyph-name="u" unicode="u" horiz-adv-x="361" 
d="M125 -4.5q-19 10.5 -31 30.5q-24 42 -31 95q-7 46 -7 110q-3 108 -3 264l-1 77q-1 6 -1 20q-2 38 -2 46q9 21 21 21t21.5 -18t9.5 -39v-272q0 -40 7 -106q7 -82 7 -106q0 -74 63 -74q72 0 72 538v56v9q-1 3 -1 8q0 12 5.5 17.5t21.5 5.5q13 0 20.5 -7.5t9.5 -17.5
q1 -6 1 -23q0 -16 -3 -51q-4 -29 -4 -50q0 -23 -2 -41l-2 -42v-8q1 -4 1 -9q0 -444 -129 -444q-24 0 -43 10.5z" />
    <glyph glyph-name="v" unicode="v" horiz-adv-x="352" 
d="M138 3q0 115 -21.5 238t-67.5 301q-2 10 -9 31q-18 56 -18 71q0 9 7.5 16t16.5 7q15 0 28 -25q13 -24 24 -64.5t24 -100.5q12 -57 29 -175l6 -39l12 -89q4 -37 7 -53q21 110 54 318q27 178 38 243h22q9 0 16 -6.5t7 -15.5q0 -36 -8.5 -77.5t-25.5 -99.5
q-14 -50 -18.5 -75t-8.5 -79q-8 -121 -25 -217q-11 -58 -29 -91t-41 -33z" />
    <glyph glyph-name="w" unicode="w" horiz-adv-x="429" 
d="M99 39q-13 53 -21.5 131.5t-17.5 198.5q-5 78 -14 167q-7 74 -17 95q9 18 29 18q32 0 32 -66q0 -78 21 -228q21 -149 24 -217l5 34q10 67 17.5 126.5t12.5 128.5q7 77 7 152l27 12q13 0 21.5 -6.5t8.5 -18.5v-8q16 -56 26.5 -122.5t18.5 -156.5q6 -69 14 -129
q19 134 19 330q0 31 8 76q7 46 7 75q-3 9 -3 17q0 24 30 24q12 0 19 -6t7 -17v-15q0 -15 -3 -26v-5q-13 -40 -13 -92v-73q0 -63 -15 -188q-16 -122 -16 -182v-18q0 -23 -5 -39q-6 -20 -29 -20q-16 0 -24.5 10.5t-8.5 26.5q0 81 -17 210q-9 58 -19 117l-16 105q-4 -29 -4 -57
q0 -56 -8 -148t-25 -179q-19 -97 -43 -97q-20 0 -35 60z" />
    <glyph glyph-name="x" unicode="x" horiz-adv-x="243" 
d="M48 3q-9 6 -9 17q0 32 8.5 71.5t24.5 94.5l10 39q14 56 14 97q0 29 -25.5 143t-36.5 130v11q-10 9 -10 25q0 9 9 14.5t21 5.5t20 -17q15 -28 30 -103q8 -34 11 -57l7 -37l4 24l3 20q4 24 5 32q4 27 4 52v18v15q0 28 9.5 43t35.5 22l18 -24q-7 -11 -11.5 -27t-4.5 -28
q-1 -7 -1 -31v-11q-12 -32 -25 -111.5t-13 -115.5q0 -31 13.5 -78.5t40.5 -131.5q18 -54 18 -79q0 -10 -8 -17.5t-19 -7.5q-17 0 -30 36q-13 30 -22 76q-12 56 -14 75l-5 23l-9 -74q-6 -55 -16 -92v-11q0 -37 -26 -37q-12 0 -21 6z" />
    <glyph glyph-name="y" unicode="y" horiz-adv-x="283" 
d="M115 8q11 21 11 170q0 35 -5 76l-3 29q-3 27 -3 41v26q-10 25 -36.5 93t-42.5 114q-19 53 -19 72v5l23 17q17 -2 36 -44q16 -37 35.5 -106t19.5 -73q4 11 16 75t27 113q17 49 35 49q10 0 17.5 -6t7.5 -15q0 -51 -28 -144q-30 -101 -30 -146v-301q0 -67 -33 -67
q-17 0 -28 22z" />
    <glyph glyph-name="z" unicode="z" horiz-adv-x="292" 
d="M57 4.5q-8 6.5 -8 16.5q0 60 23.5 158t68.5 242q45 149 56 192q-12 0 -39 -3t-43 -3q-10 0 -18 8.5t-8 19.5q0 29 110 29q50 0 50 -28q0 -32 -22 -95q-21 -56 -26 -85q-10 -71 -52 -232l-44 -173h18l21 2q9 1 21 1v1q40 0 40 -25q0 -11 -10 -17.5t-25 -6.5q-16 0 -29 1
l-30 2q-6 0 -17 -6q-13 -5 -18 -5q-11 0 -19 6.5z" />
    <glyph glyph-name="braceleft" unicode="{" horiz-adv-x="320" 
d="M139 6q-22 29 -22 91v206q0 21 -7 33t-17 14q-1 0 -20 3q-24 0 -24 21q0 24 24 24q13 1 21.5 4t15.5 13q7 12 7 32l-3 47l-2 58q0 35 6 47q-2 18 -2 26q0 47 26 76t74 29q31 0 55 -12q15 -7 15 -17t-8.5 -16.5t-19.5 -6.5q-7 0 -25 5t-25 5q-47 0 -47 -123q0 -23 2 -46
l2 -57q0 -64 -18 -87q17 -22 17 -71v-215q0 -70 44 -70q11 0 30 6q22 5 30 5q3 0 5.5 -8t2.5 -14q0 -11 -11 -18.5t-25 -10.5q-16 -2 -24 -2q-55 0 -77 29z" />
    <glyph glyph-name="bar" unicode="|" horiz-adv-x="174" 
d="M65 56q0 113 -3 341q-3 227 -3 340q0 36 34 36q9 0 15 -7.5t6 -16.5q0 -157 1 -282l1 -282v-199q0 -10 -7.5 -17.5t-18.5 -7.5q-25 0 -25 95z" />
    <glyph glyph-name="braceright" unicode="}" horiz-adv-x="315" 
d="M49 -12q-15 7 -15 18q0 10 8.5 16t19.5 6t24 -4q18 -5 25 -5q48 0 48 122l-2 54q-3 42 -3 66q0 70 19 95q-18 23 -18 71l2 50q3 44 3 73q0 138 -49 138q-9 0 -29 -6q-19 -6 -30 -6q-3 0 -5.5 8t-2.5 15q0 11 11 19t25 10q16 2 24 2q54 0 76 -29.5t23 -90.5v-182
q0 -18 4.5 -29.5t12.5 -14.5q13 -7 30 -7q16 0 16 -20q0 -24 -22 -24q-13 -1 -20.5 -3.5t-13.5 -12.5q-7 -12 -7 -33l2 -53q2 -29 2 -70q0 -43 -5 -53q2 -16 2 -27q0 -47 -26.5 -75.5t-73.5 -28.5q-32 0 -55 11z" />
    <glyph glyph-name="asciitilde" unicode="~" horiz-adv-x="475" 
d="M248 513q-36 6 -52 14q-40 22 -57 22q-14 -6 -12 -19v-3q0 -12 -14 -16q-16 0 -26 7.5t-10 21.5q0 24 20 41t52 17q24 0 87 -20q62 -21 81 -21q17 0 21 20q2 8 7.5 14t14.5 6q16 0 24.5 -7.5t8.5 -18.5q0 -25 -19 -44.5t-45 -19.5q-45 0 -81 6z" />
    <glyph glyph-name="uni007F" 
 />
    <glyph glyph-name="uni00A0" unicode="&#xa0;" 
 />
    <glyph glyph-name="exclamdown" unicode="&#xa1;" horiz-adv-x="217" 
d="M87 605q-11 14 -11 35q0 35 49 35q12 0 22.5 -11t10.5 -28q0 -18 -12 -31.5t-29 -13.5q-19 0 -30 14zM75.5 -108q-7.5 7 -7.5 17q0 72 11 239q10 151 10 239v24q-1 10 -1 24q0 46 10 61q5 7 9 7q10 0 19 -24q8 -27 8 -62q0 -47 -2 -84l-2 -82q0 -54 3 -164l2 -164
q0 -15 -13 -26.5t-29 -11.5q-10 0 -17.5 7z" />
    <glyph glyph-name="cent" unicode="&#xa2;" horiz-adv-x="413" 
d="M199 7q2 8 2 25q0 18 -2 33l-2 34h-1q0 14 2 26l2 28q-42 15 -66 39q-14 14 -21.5 25t-12.5 26t-8.5 29.5t-4.5 33.5q-2 27 -2 73q0 52 3 86q5 46 22 83q17 41 55 64l-6 56q0 43 26 43h3l15 -10q-3 -18 -3 -32t5 -57l17 -4q24 -6 37 -12q20 -9 30 -22q5 -9 6 -17h-1v-3
q0 -9 -6 -17t-15 -8q-10 0 -19 8t-14 20l-28 14h-3q2 -63 16 -178q14 -126 14 -184v-6l-1 -6l1 -6q26 0 45 20q8 9 14.5 17.5t14.5 21.5q29 0 29 -30q0 -16 -16.5 -32.5t-40 -27.5t-42.5 -13q-4 -23 -4 -39q0 -15 3 -47q4 -28 4 -47q0 -10 -7.5 -17t-16.5 -7h-4zM165 549
q-16 -23 -24 -68.5t-8 -94.5q0 -168 60 -179q0 199 -28 342z" />
    <glyph glyph-name="sterling" unicode="&#xa3;" horiz-adv-x="396" 
d="M92 3q-12 1 -20.5 7t-8.5 16q0 25 39 39q18 8 24 12q14 11 22.5 44.5t8.5 65.5q0 38 -7.5 76.5t-24.5 97.5l-21 76q-45 0 -45 11v3q0 7 2 10.5t10 6.5q8 4 25 4q0 20 -6 65q-6 44 -6 67q0 43 9 87q6 31 15 52.5t26 37.5t40 16h13q17 0 36.5 -20.5t32.5 -47.5
q12 -27 12 -44q0 -11 -3 -16t-13 -5q-14 0 -23 8t-13 22l-8 25q-3 14 -11 22.5t-20 8.5q-11 0 -20 -15t-14 -38q-11 -46 -11 -77v-13q0 -89 10 -130q28 0 50 1h50q10 0 17.5 -7.5t7.5 -17.5q0 -3 -4 -4q-6 -3 -40 -5q-14 -2 -33 -2l-38 -3q3 -19 19 -80q16 -56 24.5 -97.5
t8.5 -76.5q0 -23 -5 -43l-11 -40q-3 -6 -7 -19q20 -2 63 -12q40 -10 67 -10q7 0 27 5q15 5 26 5t19 -7t8 -17q0 -15 -18 -24q-22 -10 -54 -10q-30 0 -75 9q-50 10 -62 11v2q-11 -1 -41.5 -12.5t-48.5 -21.5v2z" />
    <glyph glyph-name="currency" unicode="&#xa4;" horiz-adv-x="492" 
d="M365 102.5q-11 7.5 -12 20.5v-2l-13 22q-47 -43 -116 -43q-47 0 -89 42q-13 -27 -21 -36q-11 -8 -21 -8q-15 0 -23 10.5t-8 26.5q0 15 27 40l15 16q-16 29 -16 86q0 197 35 249q-4 8 -25 29q-22 21 -22 35q0 10 7 16.5t16 6.5q8 0 14 -3q3 0 6 -3l6 -3l5 -5l5 -5l9 -11
l4 -5l4 -6q4 6 10.5 13.5t11.5 13.5q4 3 13 12t16 13q6 3 12 3q57 0 109 -33q10 15 15 25q12 21 23 31t25 10h5l21 -23q-1 -12 -11.5 -29.5t-24.5 -32.5q-11 -14 -11 -18q0 -27 22 -88q22 -59 22 -92t-16 -91q-17 -63 -17 -93q0 -14 19 -36q19 -20 19 -36q0 -11 -7 -18.5
t-17 -7.5q-15 0 -26 7.5zM287 166q21 17 33 44q22 48 30 120q2 36 2 50q0 32 -9.5 80.5t-20.5 62.5q-10 1 -17 10t-8 20q-23 24 -60 24q-8 0 -26.5 -14.5t-25.5 -25.5l7 -7q0 -37 -23 -37q-8 0 -17.5 -58.5t-9.5 -94.5h1q1 -6 1 -13q0 -12 -1 -20q-1 -10 -1 -21
q0 -58 26 -80q0 -29 19.5 -43t53.5 -14q25 0 46 17z" />
    <glyph glyph-name="yen" unicode="&#xa5;" horiz-adv-x="483" 
d="M207.5 2.5q-9.5 6.5 -9.5 17.5v2q8 20 14.5 149t6.5 206h-4l-46 -2q-32 -3 -46 -3h-7l-15 1q-18 9 -27 29l8 25q41 0 141 4q1 8 1 35v2l-30 -3q-36 -2 -45 -2q-65 0 -65 30v4l13 19l39 -1q17 -1 38 -1q26 0 50 3v6q-42 42 -81 124q-20 44 -35 73t-34 58q-21 30 -48 55v28
l1 -2q17 7 25 7q16 0 46 -36.5t59 -84.5l56 -96l35 -60l20 67l6 21q20 68 32 105t28 71q22 42 37 42q11 0 19.5 -8t8.5 -19l-1 -5l-44 -130q-24 -65 -40 -129q-3 -13 -15 -42q-10 -25 -16 -45l12 -1l32 2q27 3 44 3q62 0 62 -30q0 -28 -55 -28h-4l-94 1v-31l30 2q17 2 43 2
q78 0 78 -37q0 -10 -9 -18t-21 -8h-52l10 5h-81q0 -33 -7 -154q-8 -92 -8 -156v-11v-12q0 -25 -7.5 -37.5t-26.5 -12.5q-12 0 -21.5 6.5z" />
    <glyph glyph-name="brokenbar" unicode="&#xa6;" horiz-adv-x="174" 
d="M63 498l-2 120q-2 53 -2 119q0 36 34 36q22 0 22 -93v-31l-1 -22l-1 -199q0 -10 -8 -17.5t-18 -7.5q-24 0 -24 95zM72.5 -31.5q-7.5 7.5 -7.5 17.5l-2 180l1 148q0 10 6 17.5t14 7.5q30 0 30 -36l1 -311q0 -31 -25 -31q-10 0 -17.5 7.5z" />
    <glyph glyph-name="section" unicode="&#xa7;" horiz-adv-x="264" 
d="M83.5 11.5q-15.5 11.5 -15.5 28.5q0 9 7 14t17 5q11 0 21 -6q20 1 33 24t13 48q0 22 -8.5 44.5t-22.5 41.5q-27 34 -58 81q-14 21 -22.5 49.5t-8.5 58.5q0 29 11.5 55.5t32.5 41.5q-28 57 -28 126q0 82 82 82q17 0 33 -7t16 -18q0 -12 -10.5 -16t-29.5 -4q-30 0 -42 -11
q-9 -7 -9 -25q0 -51 31 -98t58 -93q14 -24 22.5 -56.5t8.5 -66.5q0 -26 -11.5 -48t-32.5 -35q37 -59 37 -107q0 -29 -10.5 -55.5t-30.5 -44.5q-22 -20 -50 -20q-18 0 -33.5 11.5zM166 317q0 10 -5 37l-6 18q-5 9 -7 16q-3 7 -8.5 16.5t-9.5 15.5q-2 2 -4.5 6.5t-6.5 10.5
l-10 15q-21 -27 -21 -64q0 -20 8.5 -43t19.5 -39q1 -1 26 -38q24 21 24 49z" />
    <glyph glyph-name="dieresis" unicode="&#xa8;" horiz-adv-x="352" 
d="M62.5 681q-10.5 11 -10.5 25q0 15 11.5 26.5t26.5 11.5q14 0 24.5 -11.5t10.5 -25.5q0 -16 -11 -26.5t-28 -10.5q-13 0 -23.5 11zM223.5 676q-10.5 11 -10.5 25q0 15 11.5 26.5t26.5 11.5q14 0 25 -11.5t11 -25.5q0 -16 -11.5 -26.5t-28.5 -10.5q-13 0 -23.5 11z" />
    <glyph glyph-name="copyright" unicode="&#xa9;" horiz-adv-x="633" 
d="M171 21q-48 31 -68 85t-27 139q-3 51 -4 70q-1 3 -1 7q-6 104 -6 129q0 73 10 147q13 94 41 159q18 41 40 67.5t53 43.5q32 17 72 17q45 0 84.5 -19.5t69.5 -52.5q27 -33 49.5 -77t36.5 -92q27 -88 36 -192q3 -43 3 -82q0 -83 -13 -151q-15 -79 -51 -134
q-21 -30 -47 -50.5t-62 -32.5q-37 -12 -82 -12q-86 0 -134 31zM431 91q23 26 38 58.5t25 77.5q-1 2 -1 9q0 8 6 26q5 20 5 26v149q0 27 -11 76l-8 34q-13 66 -26 106t-39 82q-29 46 -70 75q-5 3 -14 9.5t-22 12.5q-9 4 -22 4q-35 0 -63.5 -19.5t-46.5 -54.5
q-38 -72 -49 -158q-10 -76 -10 -145q0 -42 6 -116q1 -18 2 -30.5t1 -21.5q5 -79 13 -124t32 -78t72 -45q17 -4 43 -4q91 0 139 51zM294.5 114.5q-14.5 4.5 -35.5 14.5q-14 7 -29 13q-28 54 -40.5 87t-16.5 68.5t-4 99.5v6q0 44 2 81q2 44 11 97q8 46 29 87q10 21 23.5 34
t32.5 22q19 8 41 8q24 0 52 -17t46.5 -42.5t18.5 -49.5q0 -11 -7 -18.5t-17 -7.5q-13 0 -23 8t-17 20q-5 8 -7.5 14t-4.5 10q-16 28 -37 28q-17 0 -31 -13.5t-22 -33.5q-7 -19 -13 -47.5t-8 -50.5q-2 -15 -4 -48l-3 -34l2 -5h-1q-4 -16 -4 -50v-25q0 -51 8 -99
q6 -34 15 -55.5t26 -37.5q19 -16 42 -16q15 0 29 7.5t22 18.5q7 11 17.5 19t20.5 8q12 0 19.5 -10t7.5 -23q0 -19 -19.5 -36.5t-46.5 -26.5q-25 -9 -45 -9q-15 0 -29.5 4.5z" />
    <glyph glyph-name="ordfeminine" unicode="&#xaa;" horiz-adv-x="299" 
d="M196.5 375.5q-14.5 4.5 -14.5 13.5q0 19 -6 51l-2 12l-55 8q-2 -9 -5 -24t-4 -21q-2 -7 -4.5 -19.5t-6.5 -17.5q-5 -5 -11 -5q-37 0 -37 15l1 3v2l17 63q23 87 36 141t13 77l1 23q3 41 10 52h29q18 0 25.5 -3.5t7.5 -11.5q0 -11 6 -75l6 -50q2 -20 10 -73q6 -40 6 -47
q0 -6 3 -17q3 -12 3 -17q0 -4 5 -34q5 -21 5 -34t-9 -16q-15 0 -29.5 4.5zM169 508q0 39 -9 118l-6 58q-8 -39 -12 -67q-19 -104 -21 -121q9 -6 49 -9q-1 5 -1 21z" />
    <glyph glyph-name="guillemotleft" unicode="&#xab;" horiz-adv-x="447" 
d="M191 54q-50 86 -94 176t-44 110q0 13 27 80l10 25q32 80 51 125q36 83 39 95q1 12 10.5 30t19.5 29v1l4 1l5 1q13 0 22 -6.5t9 -17.5q-26 -61 -67 -178q-48 -129 -76 -190q5 -24 31.5 -76t61.5 -110q25 -41 56 -97q25 -46 25 -58q0 -11 -9.5 -17t-21.5 -6q-9 0 -59 83z
M358 -9q-16 6 -176 350q2 28 52 138q49 105 58 134l3 16q8 29 17 50q12 28 28 28h1l2 -1l22 -17q-4 -33 -23.5 -84.5t-44.5 -98.5q-58 -116 -58 -163q0 -7 66 -140.5t86 -168.5l13 -10q-2 -15 -8.5 -25t-18.5 -10q-11 0 -19 2z" />
    <glyph glyph-name="logicalnot" unicode="&#xac;" horiz-adv-x="536" 
d="M395 289q0 11 1 18v15q0 15 -2 33q-10 0 -18 1l-20 2q-35 0 -137 -5q-92 -6 -136 -6q-10 0 -17.5 7.5t-7.5 18.5q0 35 106 35q12 0 54 -2l35 -2q22 0 82 5q46 5 82 5q12 0 22.5 -8.5t10.5 -19.5q0 -20 -10 -34q0 -52 12 -90q-2 -12 -9 -21t-17 -9q-31 0 -31 57z" />
    <glyph glyph-name="uni00AD" unicode="&#xad;" horiz-adv-x="283" 
d="M73.5 340.5q-6.5 5.5 -6.5 13.5t16 14q25 10 79 12q11 1 27 1q9 0 15.5 -5t6.5 -14q0 -8 -16 -14q-25 -10 -78 -12q-12 -1 -28 -1q-9 0 -15.5 5.5z" />
    <glyph glyph-name="registered" unicode="&#xae;" horiz-adv-x="592" 
d="M173 -57q-46 29 -78 93q-12 25 -22 59.5t-16 67.5q-10 58 -12 139q-1 20 -1 68v78q0 82 5 136q6 79 23 147q19 73 56 126q20 29 44.5 47.5t57.5 30.5q35 11 73 11q41 0 81.5 -24.5t69.5 -64.5q20 -12 38 -73.5t27 -143.5q19 -165 19 -246v-50q0 -42 -2 -77
q-2 -41 -5.5 -68.5t-12.5 -74.5q-8 -39 -19 -66.5t-30 -59.5q-18 -30 -40 -48.5t-55 -30.5q-31 -12 -69 -12q-78 0 -132 36zM379 -9q37 26 63 80q19 40 31 107q7 45 9 114v53q0 21 1 39v39q0 133 -13 222t-49 163q-13 26 -50.5 56.5t-60.5 30.5q-207 0 -207 -429
q0 -379 68 -453q15 -14 32 -25l28 -19l29 -6l10 -4q61 0 109 32zM212 79q-11 9 -11 23q0 6 1 11v12q0 56 -5 104q0 4 -7 46q-5 40 -5 55v195q0 31 -6 92q-7 57 -7 93q0 49 25 68.5t81 19.5q28 0 50 -10.5t34 -28.5q11 -16 19 -40.5t10 -48.5q2 -15 2 -50q0 -32 -6.5 -58
t-16.5 -41q-15 -21 -37 -37q-8 -8 -9 -11q1 -32 89 -320h4q0 -11 7 -28t7 -28q0 -9 -9.5 -18t-18.5 -9q-21 0 -42 52q-17 38 -29 82t-29 118l-10 43q-15 68 -22 81l-26 -11l-3 -46q0 -44 11 -143q11 -88 11 -143q0 -15 -7 -24t-20 -9q-14 0 -25 9zM333 621v4q0 26 -1 48
q-2 25 -15 49q-11 23 -36 23q-29 0 -41 -14.5t-12 -43.5l2 -34l2 -36q0 -82 11 -129q90 38 90 133z" />
    <glyph glyph-name="macron" unicode="&#xaf;" horiz-adv-x="439" 
d="M76 726q0 10 6.5 16t16.5 6h147l30 2q14 1 31 1q48 0 48 -29q0 -11 -7.5 -17t-20.5 -6q-34 0 -105 -3l-106 -2q-40 0 -40 32z" />
    <glyph glyph-name="degree" unicode="&#xb0;" horiz-adv-x="431" 
d="M142 501q-24 14 -36 38q-21 42 -21 91q0 51 31 84t82 33q32 0 58.5 -7.5t42.5 -20.5q15 -11 25 -27t14 -32q4 -13 4 -29q0 -34 -16 -68q-11 -22 -26 -37.5t-40 -26.5q-27 -12 -61 -12q-33 0 -57 14zM247 533q20 8 32 20q10 12 17.5 26.5t9.5 27.5q3 12 3 22q0 27 -21 54
q-10 13 -33 22q-24 8 -52 8t-48 -17.5t-26 -43.5q-6 -24 -6 -54q0 -15 11.5 -32.5t30 -29t38.5 -11.5q24 0 44 8z" />
    <glyph glyph-name="plusminus" unicode="&#xb1;" horiz-adv-x="439" 
d="M191.5 170q-9.5 7 -9.5 18q0 27 1 49l2 48l-9 7l-26 -1q-19 -3 -30 -3q-43 0 -43 32q0 10 6.5 18t16.5 8l29 -2l30 -2q9 0 23 2l-3 35q-3 26 -3 38q0 56 32 56q12 0 20.5 -9t8.5 -20v-3l-4 -9l1 -25q0 -16 2 -34q4 -20 6 -27q4 -4 5 -4l25 2q13 2 33 2q51 0 51 -30
q0 -12 -8 -19.5t-20 -7.5q-9 0 -29 3l-29 2q-33 0 -33 -24q0 -10 5 -40q5 -22 5 -40q0 -12 -10 -19.5t-23 -7.5t-22.5 7zM77 98q0 10 6.5 16t16.5 6h147l31 2l31 2q47 0 47 -30q0 -11 -7.5 -17t-20.5 -6q-34 0 -105 -3l-106 -2q-40 0 -40 32z" />
    <glyph glyph-name="uni00B2" unicode="&#xb2;" horiz-adv-x="264" 
d="M46 335q-9 4 -9 12v3q10 11 22 44l8 22q33 73 47.5 131t14.5 123q0 34 -8 52t-22 19q-8 -4 -12 -26q-2 -8 -8 -14.5t-13 -6.5t-14 6.5t-7 14.5q0 13 6 25t18 15q10 3 23 6.5t18 3.5q16 0 32 -8q14 -10 20 -22q3 -5 5 -15t3 -13l2 -32v-15q0 -39 -7.5 -83.5t-19.5 -76.5
l-29 -76q-3 -7 -15 -31q-2 -3 -5.5 -9.5t-4.5 -11.5q37 5 76 5q12 -9 11 -25q-3 -13 -7 -17q-34 0 -52 -2q-19 -2 -43 -2q-21 0 -30 4z" />
    <glyph glyph-name="uni00B3" unicode="&#xb3;" horiz-adv-x="270" 
d="M70 347q-19 11 -19 29q0 6 10 12.5t14 2.5t8 -10.5t7.5 -9.5t12.5 -3q16 0 25 20t9 52q0 46 -5.5 67t-28.5 50h-6q-17 0 -17 11q0 8 14 25q10 15 16 25.5t6 20.5q0 29 -8 66.5t-24 37.5q-7 0 -10 -6t-7 -20q-3 -13 -6.5 -19.5t-10.5 -6.5q-14 0 -19 6t-7 16
q9 20 27.5 37.5t35.5 17.5q46 0 61 -39.5t15 -82.5q0 -11 -3.5 -18.5t-7.5 -14t-6 -8.5l-8 -12q25 -15 35.5 -62t10.5 -92q0 -26 -11.5 -50t-29.5 -38.5t-36 -14.5t-37 11z" />
    <glyph glyph-name="acute" unicode="&#xb4;" horiz-adv-x="343" 
d="M107 644.5q-5 3.5 -5 9.5q0 5 5 10l16 14q5 5 56 49l59 51q4 2 9 2q12 0 22 -12t10 -25q0 -12 -7 -16q-36 -28 -146 -84q-2 -2 -8 -2t-11 3.5z" />
    <glyph glyph-name="uni00B5" unicode="&#xb5;" horiz-adv-x="361" 
d="M307 630q0 -16 -3 -51q-4 -29 -4 -50q0 -23 -2 -41l-2 -42v-8q1 -4 1 -9q0 -444 -129 -444q-41 0 -65 29v-137q0 -10 -7.5 -17t-18.5 -7q-25 0 -25 94q0 114 -3 342q-4 201 -4 340q0 36 35 36q9 0 15 -8t6 -17q0 -157 1 -282v-63q1 -28 6 -71q7 -82 7 -106q0 -74 63 -74
q72 0 72 538v56v9q-1 3 -1 8q0 12 5.5 17.5t21.5 5.5q13 0 20.5 -7.5t9.5 -17.5q1 -6 1 -23z" />
    <glyph glyph-name="paragraph" unicode="&#xb6;" horiz-adv-x="478" 
d="M317 50q0 68 5 263q5 193 5 262q0 44 -4 109l-2 36l-2 72l1 16q1 7 1 17q0 39 -30 39q-5 0 -5 -39t7 -174q6 -114 6 -172q0 -75 -9 -224q-9 -148 -9 -224q0 -18 -6.5 -26.5t-22.5 -8.5q-13 0 -21.5 9t-8.5 22q0 82 10 222q11 154 11 222l-1 35l-1 30q-57 0 -107 10
q-31 7 -52.5 18.5t-38.5 31.5q-18 21 -24 49l-2 14q-5 16 -5 17q0 90 28 135q15 25 33.5 41t46.5 26q29 11 59.5 17t74.5 10q10 11 30 11q10 0 23 -4l16 -4v-1l27 4l4 -6q12 0 37 -7q10 -3 17 -9.5t7 -14.5q0 -10 -8.5 -17.5t-19.5 -7.5h-6h-6q0 -56 4 -143q3 -97 3 -148
q0 -71 -3 -214q-3 -142 -3 -215q0 -17 3 -55q3 -37 3 -56q0 -12 -8 -20t-20 -8q-37 0 -37 60zM240 585l2 1q0 30 -5 122q-5 66 -5 121l1 21q-18 4 -40 4q-33 0 -62 -21t-46.5 -54.5t-17.5 -68.5q0 -31 8.5 -55t22.5 -38q13 -13 35.5 -21t46.5 -10q30 -2 54 -2z" />
    <glyph glyph-name="periodcentered" unicode="&#xb7;" horiz-adv-x="289" 
d="M114 320q-10 11 -10 25q0 15 11 26.5t26 11.5q14 0 25 -11.5t11 -25.5q0 -16 -11.5 -26.5t-28.5 -10.5q-13 0 -23 11z" />
    <glyph glyph-name="cedilla" unicode="&#xb8;" horiz-adv-x="378" 
d="M125.5 -211.5q-13.5 7.5 -13.5 19.5q0 10 11 10q4 0 16 -5t16 -5q17 0 28 20.5t11 48.5q0 33 -15 45l-13 -2l-14 -2q-15 0 -27 20q8 21 8 58v11l29 4q-4 -30 -4 -51q73 -4 73 -100q0 -16 -10.5 -34.5t-28.5 -31.5t-37 -13q-16 0 -29.5 7.5z" />
    <glyph glyph-name="uni00B9" unicode="&#xb9;" horiz-adv-x="238" 
d="M62 358q0 8 4 16.5t12 8.5q12 0 12 9q0 34 -6 110q0 9 -2 33q-5 63 -5 61q-4 68 -4 79l1 10v4q0 17 -4.5 25t-14.5 8l-6 -1h-7q-16 0 -16 23q0 8 12.5 15.5t32.5 7.5q14 0 29.5 -2.5t17.5 -6.5q-3 -15 -3 -24q0 -22 5 -50q4 -46 4 -52q0 -57 5 -131q6 -87 6 -112v-4
q6 2 14 2h7v0q14 0 18.5 -4t4.5 -24q0 -8 -16.5 -14.5t-46.5 -6.5h-29l-8 -1q-17 0 -17 21z" />
    <glyph glyph-name="ordmasculine" unicode="&#xba;" horiz-adv-x="292" 
d="M101.5 386q-21.5 10 -27.5 24q-14 29 -20 74q-5 36 -5 73v11v10v3v9v39q1 30 5 57q2 22 12 52q4 10 19 16.5t25 6.5q24 0 51 -8.5t38 -22.5q25 -30 30 -78q3 -22 3 -49v-4q0 -17 1 -31v-32q0 -82 -21.5 -121t-71.5 -39q-17 0 -38.5 10zM156 427q8 8 13 22l13 41
q2 19 2 50q0 22 -3 65q-2 22 -2.5 34.5t-1.5 17.5v7q-1 21 -14 36.5t-32 15.5t-25 -21q-7 -25 -5 -29q1 -5 0.5 -10t-0.5 -9v-15q0 -14 -1 -25q-1 -12 -1 -26q0 -30 2 -59q1 -19 3.5 -32.5t6.5 -29.5q10 -41 27 -41q10 0 18 8z" />
    <glyph glyph-name="guillemotright" unicode="&#xbb;" horiz-adv-x="456" 
d="M177.5 -21q-9.5 6 -9.5 16q0 13 25 59q31 55 56 96q34 57 61 109.5t33 76.5q-33 71 -66 185q-14 46 -35 95t-44 84q2 12 10.5 20t21.5 8q3 0 5 -1l2 -1h2v-1q11 -11 20 -28t11 -31q5 -16 39 -95q23 -55 61 -150q26 -66 26 -79q0 -20 -43.5 -110t-93.5 -176
q-49 -83 -59 -83q-13 0 -22.5 6zM52 -0.5q-7 10.5 -7 24.5l12 10q25 47 88 174.5t63 134.5q0 52 -43 136q-19 36 -38 74.5t-30 71.5q-14 37 -14 64l22 17l5 -1q19 -8 29 -30q8 -18 13 -42q4 -18 5 -20q4 -18 57 -134q52 -112 52 -138l-174 -350h-2l-9 -1l-10 -1
q-12 0 -19 10.5z" />
    <glyph glyph-name="onequarter" unicode="&#xbc;" horiz-adv-x="653" 
d="M62 358q0 8 4 16.5t12 8.5q12 0 12 9q0 34 -6 110q0 9 -2 33q-5 63 -5 61q-4 68 -4 79l1 10v4q0 17 -4.5 25t-14.5 8l-6 -1h-7q-16 0 -16 23q0 8 12.5 15.5t32.5 7.5q14 0 29.5 -2.5t17.5 -6.5q-3 -15 -3 -24q0 -22 5 -50q4 -46 4 -52q0 -57 5 -131q6 -87 6 -112v-4
q6 2 14 2h7v0q14 0 18.5 -4t4.5 -24q0 -8 -16.5 -14.5t-46.5 -6.5h-29l-8 -1q-17 0 -17 21zM197 15q0 60 28.5 182t78.5 300q46 169 54 212l4 20q4 16 8 20q7 9 16 9q11 0 19 -7t8 -17q0 -14 -3.5 -30t-9.5 -35q-7 -22 -8 -29q-76 -331 -113 -497q0 -2 -5 -27
q-11 -55 -19 -83q-7 -23 -16 -35.5t-19 -12.5h-4q-19 13 -19 30zM544 -9.5q-14 9.5 -14 17.5v2q3 11 3 20l-2 27q-2 12 -2 26q0 1 -0.5 5t0.5 8v12q0 12 -1 17q-37 0 -44 -1l-16 -2q-18 0 -26 2t-15 7q0 27 3 36q-3 12 -3 31q0 7 1.5 18t3.5 25q4 50 4 56v102q0 9 3 10l19 1
q7 0 15.5 -4t8.5 -10l-1 -21q-1 -9 -1 -21v-5l-1 -6l1 -10v-1q2 -10 2 -30q0 -23 -3 -71q-4 -41 -4 -56v-12q9 0 27 1t23 2q0 29 2 63q3 54 3 78q0 5 13.5 8.5t20.5 3.5l9 -10v-26q0 -57 -2 -115l7 1h9h7q6 0 8 -3.5t2 -16.5q0 -8 -6 -14t-16 -6q-9 0 -9 -4q0 -24 1.5 -55
t4.5 -36q-1 -5 -1 -11q0 -8 2 -11v-10q0 -8 -3.5 -14.5t-9.5 -6.5q-9 0 -23 9.5z" />
    <glyph glyph-name="onehalf" unicode="&#xbd;" horiz-adv-x="661" 
d="M62 358q0 8 4 16.5t12 8.5q12 0 12 9q0 34 -6 110q0 9 -2 33q-5 63 -5 61q-4 68 -4 79l1 10v4q0 17 -4.5 25t-14.5 8l-6 -1h-7q-16 0 -16 23q0 8 12.5 15.5t32.5 7.5q14 0 29.5 -2.5t17.5 -6.5q-3 -15 -3 -24q0 -22 5 -50q4 -46 4 -52q0 -57 5 -131q6 -87 6 -112v-4
q6 2 14 2h7v0q14 0 18.5 -4t4.5 -24q0 -8 -16.5 -14.5t-46.5 -6.5h-29l-8 -1q-17 0 -17 21zM456 2q-9 4 -9 12v3q10 11 22 44l8 22q33 73 47.5 131t14.5 123q0 34 -8 52t-22 19q-8 -4 -12 -26q-2 -8 -8 -14.5t-13 -6.5t-14 6.5t-7 14.5q0 13 6 25t18 15q10 3 23 6.5t18 3.5
q16 0 32 -8q14 -10 20 -22q3 -5 5 -15t3 -13l2 -32v-15q0 -39 -7.5 -83.5t-19.5 -76.5l-29 -76q-3 -7 -15 -31q-2 -3 -5.5 -9.5t-4.5 -11.5q37 5 76 5q12 -9 11 -25q-3 -13 -7 -17q-34 0 -52 -2q-19 -2 -43 -2q-21 0 -30 4zM204 15q0 60 28.5 182t78.5 300q46 169 54 212
l4 20q4 16 8 20q7 9 16 9q11 0 19 -7t8 -17q0 -14 -3.5 -30t-9.5 -35q-7 -22 -8 -29q-76 -331 -113 -497q0 -2 -5 -27q-11 -55 -19 -83q-7 -23 -16 -35.5t-19 -12.5h-4q-19 13 -19 30z" />
    <glyph glyph-name="threequarters" unicode="&#xbe;" horiz-adv-x="653" 
d="M70 347q-19 11 -19 29q0 6 10 12.5t14 2.5t8 -10.5t7.5 -9.5t12.5 -3q16 0 25 20t9 52q0 46 -5.5 67t-28.5 50h-6q-17 0 -17 11q0 8 14 25q10 15 16 25.5t6 20.5q0 29 -8 66.5t-24 37.5q-7 0 -10 -6t-7 -20q-3 -13 -6.5 -19.5t-10.5 -6.5q-14 0 -19 6t-7 16
q9 20 27.5 37.5t35.5 17.5q46 0 61 -39.5t15 -82.5q0 -11 -3.5 -18.5t-7.5 -14t-6 -8.5l-8 -12q25 -15 35.5 -62t10.5 -92q0 -26 -11.5 -50t-29.5 -38.5t-36 -14.5t-37 11zM182 15q0 60 28.5 182t78.5 300q46 169 54 212l4 20q4 16 8 20q7 9 16 9q11 0 19 -7t8 -17
q0 -14 -3.5 -30t-9.5 -35q-7 -22 -8 -29q-76 -331 -113 -497q0 -2 -5 -27q-11 -55 -19 -83q-7 -23 -16 -35.5t-19 -12.5h-4q-19 13 -19 30zM544 -9.5q-14 9.5 -14 17.5v2q3 11 3 20l-2 27q-2 12 -2 26q0 1 -0.5 5t0.5 8v12q0 12 -1 17q-37 0 -44 -1l-16 -2q-18 0 -26 2
t-15 7q0 27 3 36q-3 12 -3 31q0 7 1.5 18t3.5 25q4 50 4 56v102q0 9 3 10l19 1q7 0 15.5 -4t8.5 -10l-1 -21q-1 -9 -1 -21v-5l-1 -6l1 -10v-1q2 -10 2 -30q0 -23 -3 -71q-4 -41 -4 -56v-12q9 0 27 1t23 2q0 29 2 63q3 54 3 78q0 5 13.5 8.5t20.5 3.5l9 -10v-26
q0 -57 -2 -115l7 1h9h7q6 0 8 -3.5t2 -16.5q0 -8 -6 -14t-16 -6q-9 0 -9 -4q0 -24 1.5 -55t4.5 -36q-1 -5 -1 -11q0 -8 2 -11v-10q0 -8 -3.5 -14.5t-9.5 -6.5q-9 0 -23 9.5z" />
    <glyph glyph-name="questiondown" unicode="&#xbf;" horiz-adv-x="266" 
d="M116 613q-12 13 -12 25q0 38 40 38q14 0 25 -11q10 -11 10 -26q0 -14 -12 -26.5t-27 -12.5q-12 0 -24 13zM106.5 -74.5q-16.5 8.5 -26.5 22.5q-16 22 -20 71q-1 11 -1 38q0 90 30 192q13 43 22 109t9 136q0 54 -1 67q19 0 21 1q1 1 4 1q20 0 24 -22q0 -61 -9.5 -133
t-27.5 -175l-5 -29q-14 -87 -14 -146q0 -92 30 -92q19 0 19 44q0 12 -7 54q0 1 5 6q15 15 25 15q28 0 28 -67v-9q0 -26 -5.5 -45t-20.5 -32q-16 -15 -42 -15q-21 0 -37.5 8.5z" />
    <glyph glyph-name="Agrave" unicode="&#xc0;" horiz-adv-x="350" 
d="M234.5 6q-7.5 6 -7.5 20v131q-13 9 -49 16t-68 9q-11 -21 -16 -51l-4 -20q-1 -7 -6 -31t-11 -41.5t-12 -27.5q-38 0 -44 20q11 16 25 94l33 183q22 130 40.5 222t39.5 154q23 69 44 69t32 -8q0 -40 19 -193q20 -150 20 -205q0 -53 11 -152q10 -101 10 -161q0 -34 -33 -34
q-16 0 -23.5 6zM226 218q-3 44 -10 109q-23 226 -23 277v8q-10 -10 -27.5 -90.5t-32.5 -172.5t-16 -122q42 -12 89 -12q8 0 20 3zM180.5 792.5q-46.5 13.5 -86.5 28.5t-40 21q0 12 11 25.5t22 13.5q6 0 47 -21t76 -43.5t35 -30.5q0 -7 -7 -7q-11 0 -57.5 13.5z" />
    <glyph glyph-name="Aacute" unicode="&#xc1;" horiz-adv-x="350" 
d="M234.5 6q-7.5 6 -7.5 20v131q-13 9 -49 16t-68 9q-11 -21 -16 -51l-4 -20q-1 -7 -6 -31t-11 -41.5t-12 -27.5q-38 0 -44 20q11 16 25 94l33 183q22 130 40.5 222t39.5 154q23 69 44 69t32 -8q0 -40 19 -193q20 -150 20 -205q0 -53 11 -152q10 -101 10 -161q0 -34 -33 -34
q-16 0 -23.5 6zM226 218q-3 44 -10 109q-23 226 -23 277v8q-10 -10 -27.5 -90.5t-32.5 -172.5t-16 -122q42 -12 89 -12q8 0 20 3zM170 778.5q-5 3.5 -5 9.5q0 5 5 10l16 14q5 5 56 49l59 51q4 2 9 2q12 0 22 -12t10 -25q0 -12 -7 -16q-36 -28 -146 -84q-2 -2 -8 -2t-11 3.5z
" />
    <glyph glyph-name="Acircumflex" unicode="&#xc2;" horiz-adv-x="350" 
d="M265 781l-39 135l-51 -128q-3 -7 -14 -7q-10 0 -17.5 5.5t-7.5 14.5q0 6 2 9l35 88q4 8 12 27t12 26q11 18 23 24q8 2 14 2q8 0 14 -9q14 -22 25 -68l13 -48q9 -36 13 -48q1 -3 1 -9q0 -9 -7 -15t-16 -6q-10 0 -12 7zM234.5 6q-7.5 6 -7.5 20v131q-13 9 -49 16t-68 9
q-11 -21 -16 -51l-4 -20q-1 -7 -6 -31t-11 -41.5t-12 -27.5q-38 0 -44 20q11 16 25 94l33 183q22 130 40.5 222t39.5 154q23 69 44 69t32 -8q0 -40 19 -193q20 -150 20 -205q0 -53 11 -152q10 -101 10 -161q0 -34 -33 -34q-16 0 -23.5 6zM226 218q-3 44 -10 109
q-23 226 -23 277v8q-10 -10 -27.5 -90.5t-32.5 -172.5t-16 -122q42 -12 89 -12q8 0 20 3z" />
    <glyph glyph-name="Atilde" unicode="&#xc3;" horiz-adv-x="350" 
d="M203 784.5q-18 6.5 -25 15.5t-17 15t-22 6q-7 -3 -10 -8t-1 -11v-2q0 -13 -15 -18q-16 0 -26 7.5t-10 21.5q0 25 20 41.5t53 16.5q11 0 43 -20t41 -20t14.5 6t6.5 14q2 8 7.5 14t14.5 6q16 0 24.5 -7.5t8.5 -18.5q0 -26 -19 -45.5t-45 -19.5q-25 0 -43 6.5zM234.5 6
q-7.5 6 -7.5 20v131q-13 9 -49 16t-68 9q-11 -21 -16 -51l-4 -20q-1 -7 -6 -31t-11 -41.5t-12 -27.5q-38 0 -44 20q11 16 25 94l33 183q22 130 40.5 222t39.5 154q23 69 44 69t32 -8q0 -40 19 -193q20 -150 20 -205q0 -53 11 -152q10 -101 10 -161q0 -34 -33 -34
q-16 0 -23.5 6zM226 218q-3 44 -10 109q-23 226 -23 277v8q-10 -10 -27.5 -90.5t-32.5 -172.5t-16 -122q42 -12 89 -12q8 0 20 3z" />
    <glyph glyph-name="Adieresis" unicode="&#xc4;" horiz-adv-x="350" 
d="M234.5 6q-7.5 6 -7.5 20v131q-13 9 -49 16t-68 9q-11 -21 -16 -51l-4 -20q-1 -7 -6 -31t-11 -41.5t-12 -27.5q-38 0 -44 20q11 16 25 94l33 183q22 130 40.5 222t39.5 154q23 69 44 69t32 -8q0 -40 19 -193q20 -150 20 -205q0 -53 11 -152q10 -101 10 -161q0 -34 -33 -34
q-16 0 -23.5 6zM226 218q-3 44 -10 109q-23 226 -23 277v8q-10 -10 -27.5 -90.5t-32.5 -172.5t-16 -122q42 -12 89 -12q8 0 20 3zM111.5 795q-10.5 11 -10.5 25q0 15 11.5 26.5t26.5 11.5q14 0 24.5 -11.5t10.5 -25.5q0 -16 -11 -26.5t-28 -10.5q-13 0 -23.5 11zM272.5 790
q-10.5 11 -10.5 25q0 15 11.5 26.5t26.5 11.5q14 0 25 -11.5t11 -25.5q0 -16 -11.5 -26.5t-28.5 -10.5q-13 0 -23.5 11z" />
    <glyph glyph-name="Aring" unicode="&#xc5;" horiz-adv-x="350" 
d="M154.5 767.5q-16.5 9.5 -24.5 25.5q-16 32 -16 65q0 35 22.5 58t57.5 23q46 0 70 -19q21 -17 28 -42q2 -14 2 -20q0 -24 -11 -47q-14 -32 -47 -46q-17 -7 -42 -7q-23 0 -39.5 9.5zM228 802.5q13 6.5 20 17.5q10 16 10 36q0 19 -15 33t-44 14q-23 0 -34.5 -18t-11.5 -47
q0 -14 14 -28t31 -14t30 6.5zM234.5 6q-7.5 6 -7.5 20v131q-13 9 -49 16t-68 9q-11 -21 -16 -51l-4 -20q-1 -7 -6 -31t-11 -41.5t-12 -27.5q-38 0 -44 20q11 16 25 94l33 183q22 130 40.5 222t39.5 154q23 69 44 69t32 -8q0 -40 19 -193q20 -150 20 -205q0 -53 11 -152
q10 -101 10 -161q0 -34 -33 -34q-16 0 -23.5 6zM226 218q-3 44 -10 109q-23 226 -23 277v8q-10 -10 -27.5 -90.5t-32.5 -172.5t-16 -122q42 -12 89 -12q8 0 20 3z" />
    <glyph glyph-name="AE" unicode="&#xc6;" horiz-adv-x="491" 
d="M250 1h1q8 93 8 123l-2 92q-3 63 -3 93q-11 0 -21 -1q-20 -1 -43 -4q-3 -1 -10.5 -2.5t-11.5 -3.5l-49 -188q-3 -8 -5 -26q-4 -20 -9 -38t-12 -31q-10 -15 -21 -15q-7 0 -13 7.5t-6 15.5q0 51 27 159q27 105 60 218l29 96q25 81 33 107q17 54 23 71q1 4 3.5 13t4.5 16
q3 6 5 14q5 11 8 14q2 3 4.5 6t4.5 6q10 11 26 11l39 2q25 3 38 3q43 0 43 -28v-2l-10 -21q-57 0 -95 -5q0 -25 4 -64q3 -45 3 -70l-2 -110q-1 -48 -1 -109q7 0 34 5q32 4 38 4h5l20 -24q0 -32 -55 -32h-4l-39 1l2 -127q1 -59 1 -137q15 0 55 5q31 5 56 5q13 0 23 -6.5
t10 -17.5q0 -32 -119 -32h-15q-10 0 -21 -7q-13 -8 -19 -8zM252 345l1 33q0 13 2 67q1 51 1 118q0 49 -1 63q-55 -188 -77 -290q47 3 74 9z" />
    <glyph glyph-name="Ccedilla" unicode="&#xc7;" horiz-adv-x="337" 
d="M146.5 -3q-23.5 13 -40.5 35q-15 21 -27 53.5t-18 67.5q-12 59 -16 155q-1 23 -1 79v63q1 27 1 56q0 59 7 93q-3 15 -3 31q0 60 45 97t114 37q26 0 48 -14t22 -35q0 -10 -8 -16t-20 -6q-10 0 -21.5 3t-14.5 9h-13v2q-37 0 -62 -16q-18 -13 -28 -43q-4 -11 -6 -28t-2 -31
q-1 -8 -1 -32l2 -35l1 -34q0 -15 -4 -35q-5 -25 -5 -35v-24q0 -39 3 -107q1 -57 13 -114q9 -53 34 -90q24 -38 65 -38q17 0 42 18q27 18 38 18q14 0 29 -15q0 -37 -28 -57q-26 -18 -62 -23q-20 -2 -32 -2q-28 0 -51.5 13zM147.5 -211.5q-13.5 7.5 -13.5 19.5q0 10 11 10
q4 0 16 -5t16 -5q17 0 28 20.5t11 48.5q0 33 -15 45l-13 -2l-14 -2q-15 0 -27 20q8 21 8 58v11l29 4q-4 -30 -4 -51q73 -4 73 -100q0 -16 -10.5 -34.5t-28.5 -31.5t-37 -13q-16 0 -29.5 7.5z" />
    <glyph glyph-name="Egrave" unicode="&#xc8;" horiz-adv-x="278" 
d="M84 -1q-17 5 -17 28v581q0 17 -6 51q-7 31 -7 51v3q17 28 25 36q14 0 37 4q21 4 37 4t31 -9.5t15 -22.5q0 -30 -46 -30h-14q-6 1 -14 1q-9 0 -11 -1q0 -34 4 -82l2 -28l2 -55q0 -19 -3 -58l-2 -56l14 3q20 6 33 6q11 0 20 -8.5t9 -19.5q0 -12 -7.5 -21.5t-18.5 -9.5
l-12 1h-13q-15 0 -21 -7v-309l56 3q57 0 57 -26v-4q-6 -12 -22 -19.5t-31 -9.5l-33 -1h-31q-19 0 -33 5zM106.5 806.5q-46.5 13.5 -86.5 28.5t-40 21q0 12 11 25.5t22 13.5q6 0 47 -21t76 -43.5t35 -30.5q0 -7 -7 -7q-11 0 -57.5 13.5z" />
    <glyph glyph-name="Eacute" unicode="&#xc9;" horiz-adv-x="278" 
d="M84 -1q-17 5 -17 28v581q0 17 -6 51q-7 31 -7 51v3q17 28 25 36q14 0 37 4q21 4 37 4t31 -9.5t15 -22.5q0 -30 -46 -30h-14q-6 1 -14 1q-9 0 -11 -1q0 -34 4 -82l2 -28l2 -55q0 -19 -3 -58l-2 -56l14 3q20 6 33 6q11 0 20 -8.5t9 -19.5q0 -12 -7.5 -21.5t-18.5 -9.5
l-12 1h-13q-15 0 -21 -7v-309l56 3q57 0 57 -26v-4q-6 -12 -22 -19.5t-31 -9.5l-33 -1h-31q-19 0 -33 5zM96 792.5q-5 3.5 -5 9.5q0 5 5 10l16 14q5 5 56 49l59 51q4 2 9 2q12 0 22 -12t10 -25q0 -12 -7 -16q-36 -28 -146 -84q-2 -2 -8 -2t-11 3.5z" />
    <glyph glyph-name="Ecircumflex" unicode="&#xca;" horiz-adv-x="278" 
d="M191 795l-39 135l-51 -128q-3 -7 -14 -7q-10 0 -17.5 5.5t-7.5 14.5q0 6 2 9l35 88q4 8 12 27t12 26q11 18 23 24q8 2 14 2q8 0 14 -9q14 -22 25 -68l13 -48q9 -36 13 -48q1 -3 1 -9q0 -9 -7 -15t-16 -6q-10 0 -12 7zM84 -1q-17 5 -17 28v581q0 17 -6 51q-7 31 -7 51v3
q17 28 25 36q14 0 37 4q21 4 37 4t31 -9.5t15 -22.5q0 -30 -46 -30h-14q-6 1 -14 1q-9 0 -11 -1q0 -34 4 -82l2 -28l2 -55q0 -19 -3 -58l-2 -56l14 3q20 6 33 6q11 0 20 -8.5t9 -19.5q0 -12 -7.5 -21.5t-18.5 -9.5l-12 1h-13q-15 0 -21 -7v-309l56 3q57 0 57 -26v-4
q-6 -12 -22 -19.5t-31 -9.5l-33 -1h-31q-19 0 -33 5z" />
    <glyph glyph-name="Edieresis" unicode="&#xcb;" horiz-adv-x="278" 
d="M84 -1q-17 5 -17 28v581q0 17 -6 51q-7 31 -7 51v3q17 28 25 36q14 0 37 4q21 4 37 4t31 -9.5t15 -22.5q0 -30 -46 -30h-14q-6 1 -14 1q-9 0 -11 -1q0 -34 4 -82l2 -28l2 -55q0 -19 -3 -58l-2 -56l14 3q20 6 33 6q11 0 20 -8.5t9 -19.5q0 -12 -7.5 -21.5t-18.5 -9.5
l-12 1h-13q-15 0 -21 -7v-309l56 3q57 0 57 -26v-4q-6 -12 -22 -19.5t-31 -9.5l-33 -1h-31q-19 0 -33 5zM37.5 809q-10.5 11 -10.5 25q0 15 11.5 26.5t26.5 11.5q14 0 24.5 -11.5t10.5 -25.5q0 -16 -11 -26.5t-28 -10.5q-13 0 -23.5 11zM198.5 804q-10.5 11 -10.5 25
q0 15 11.5 26.5t26.5 11.5q14 0 25 -11.5t11 -25.5q0 -16 -11.5 -26.5t-28.5 -10.5q-13 0 -23.5 11z" />
    <glyph glyph-name="Igrave" unicode="&#xcc;" horiz-adv-x="257" 
d="M37 31q0 24 30 24h12q4 -1 9 -1q8 0 11.5 5t3.5 18q0 85 -10 232q-9 153 -9 231q0 28 1 51l1 51q0 33 -3 55q-11 -4 -23 -4q-23 0 -23 24q0 12 14.5 21t37.5 13q42 7 71 7q12 0 20.5 -8t8.5 -19t-6.5 -19t-16.5 -8q-6 0 -10 1h-8q-10 0 -14.5 -4.5t-4.5 -16.5
q0 -106 13 -292q12 -195 12 -293v-38q7 1 20 1q42 0 42 -35v-6l-25 -17q-1 0 -6 -0.5t-20 -0.5q-34 -2 -42 -2q-86 0 -86 30zM81.5 802.5q-46.5 13.5 -86.5 28.5t-40 21q0 12 11 25.5t22 13.5q6 0 47 -21t76 -43.5t35 -30.5q0 -7 -7 -7q-11 0 -57.5 13.5z" />
    <glyph glyph-name="Iacute" unicode="&#xcd;" horiz-adv-x="257" 
d="M37 31q0 24 30 24h12q4 -1 9 -1q8 0 11.5 5t3.5 18q0 85 -10 232q-9 153 -9 231q0 28 1 51l1 51q0 33 -3 55q-11 -4 -23 -4q-23 0 -23 24q0 12 14.5 21t37.5 13q42 7 71 7q12 0 20.5 -8t8.5 -19t-6.5 -19t-16.5 -8q-6 0 -10 1h-8q-10 0 -14.5 -4.5t-4.5 -16.5
q0 -106 13 -292q12 -195 12 -293v-38q7 1 20 1q42 0 42 -35v-6l-25 -17q-1 0 -6 -0.5t-20 -0.5q-34 -2 -42 -2q-86 0 -86 30zM71 788.5q-5 3.5 -5 9.5q0 5 5 10l16 14q5 5 56 49l59 51q4 2 9 2q12 0 22 -12t10 -25q0 -12 -7 -16q-36 -28 -146 -84q-2 -2 -8 -2t-11 3.5z" />
    <glyph glyph-name="Icircumflex" unicode="&#xce;" horiz-adv-x="257" 
d="M166 791l-39 135l-51 -128q-3 -7 -14 -7q-10 0 -17.5 5.5t-7.5 14.5q0 6 2 9l35 88q4 8 12 27t12 26q11 18 23 24q8 2 14 2q8 0 14 -9q14 -22 25 -68l13 -48q9 -36 13 -48q1 -3 1 -9q0 -9 -7 -15t-16 -6q-10 0 -12 7zM37 31q0 24 30 24h12q4 -1 9 -1q8 0 11.5 5t3.5 18
q0 85 -10 232q-9 153 -9 231q0 28 1 51l1 51q0 33 -3 55q-11 -4 -23 -4q-23 0 -23 24q0 12 14.5 21t37.5 13q42 7 71 7q12 0 20.5 -8t8.5 -19t-6.5 -19t-16.5 -8q-6 0 -10 1h-8q-10 0 -14.5 -4.5t-4.5 -16.5q0 -106 13 -292q12 -195 12 -293v-38q7 1 20 1q42 0 42 -35v-6
l-25 -17q-1 0 -6 -0.5t-20 -0.5q-34 -2 -42 -2q-86 0 -86 30z" />
    <glyph glyph-name="Idieresis" unicode="&#xcf;" horiz-adv-x="257" 
d="M37 31q0 24 30 24h12q4 -1 9 -1q8 0 11.5 5t3.5 18q0 85 -10 232q-9 153 -9 231q0 28 1 51l1 51q0 33 -3 55q-11 -4 -23 -4q-23 0 -23 24q0 12 14.5 21t37.5 13q42 7 71 7q12 0 20.5 -8t8.5 -19t-6.5 -19t-16.5 -8q-6 0 -10 1h-8q-10 0 -14.5 -4.5t-4.5 -16.5
q0 -106 13 -292q12 -195 12 -293v-38q7 1 20 1q42 0 42 -35v-6l-25 -17q-1 0 -6 -0.5t-20 -0.5q-34 -2 -42 -2q-86 0 -86 30zM12.5 805q-10.5 11 -10.5 25q0 15 11.5 26.5t26.5 11.5q14 0 24.5 -11.5t10.5 -25.5q0 -16 -11 -26.5t-28 -10.5q-13 0 -23.5 11zM173.5 800
q-10.5 11 -10.5 25q0 15 11.5 26.5t26.5 11.5q14 0 25 -11.5t11 -25.5q0 -16 -11.5 -26.5t-28.5 -10.5q-13 0 -23.5 11z" />
    <glyph glyph-name="Eth" unicode="&#xd0;" horiz-adv-x="421" 
d="M336 456v-32v-47q-2 -4 -2 -8q0 -8 1 -12t1 -10q0 -32 -9.5 -76.5t-27.5 -90.5q-45 -110 -101 -156q-33 -26 -69 -26q-20 0 -34.5 9t-14.5 25q22 22 22 117q0 57 -9 166q-2 16 -4 48l-13 -1q-34 -2 -42 -2q-13 0 -23 8.5t-10 20.5t24 21q20 8 60 13q-2 44 -2 56l2 55
q1 24 1 55q0 28 -10 71q-12 45 -12 63q0 35 77 35h15q28 0 52.5 -9t41.5 -24q32 -28 54 -81q15 -36 26 -100q6 -56 6 -88zM285 417q0 54 -10 118q-11 60 -46 112q-17 24 -43.5 37.5t-59.5 13.5v-1q0 -90 12 -269h5q34 2 41 2q13 0 23 -8.5t10 -20.5t-23 -21q-19 -7 -52 -12
q8 -149 8 -217v-95q37 23 65 66.5t43 96.5q27 98 27 198z" />
    <glyph glyph-name="Ntilde" unicode="&#xd1;" horiz-adv-x="412" 
d="M215 784.5q-18 6.5 -25 15.5t-17 15t-22 6q-7 -3 -10 -8t-1 -11v-2q0 -13 -15 -18q-16 0 -26 7.5t-10 21.5q0 25 20 41.5t53 16.5q11 0 43 -20t41 -20t14.5 6t6.5 14q2 8 7.5 14t14.5 6q16 0 24.5 -7.5t8.5 -18.5q0 -26 -19 -45.5t-45 -19.5q-25 0 -43 6.5zM225 191
q-70 241 -121 443v-328q0 -42 8 -143q7 -110 7 -142q0 -9 -11 -15.5t-25 -6.5q-21 0 -21 16l2 29q2 32 2 42q0 53 -6 168q-6 117 -6 142v128q0 31 3 92q4 53 4 92v6q0 50 22 50q13 0 33 -44q33 -72 84 -258q29 -108 68 -278q-1 4 16 -69l1 -5q0 97 2 174l2 174v296
q4 25 32 25q27 0 27 -39v-6q-6 -12 -6 -29q0 -61 -3 -184q-3 -124 -3 -186v-305q0 -16 -8.5 -30.5t-20.5 -14.5q-20 0 -82 206z" />
    <glyph glyph-name="Ograve" unicode="&#xd2;" horiz-adv-x="355" 
d="M142 -10q-22 18 -38 49q-29 54 -43 148q-10 65 -15 150l-1 53v54q-1 26 -1 63q0 60 5 106q4 48 20 95q16 41 46 58q18 8 36 8q53 0 84 -42q34 -47 45 -105q16 -70 18 -134q4 -71 4 -134v-57q0 -17 -5 -64q-4 -37 -4 -63v-4q-6 -28 -6 -66q0 -28 -12 -58t-34 -51
q-22 -24 -50 -24q-27 0 -49 18zM227 64q12 33 17.5 80.5t9.5 107.5q2 26 2 67l-1 92q-2 54 -12 135q-8 69 -30 122q-10 25 -25 39t-32 14q-25 0 -37 -39q-15 -41 -20 -90q-6 -53 -7 -101l-1 -33q-1 -14 -1 -38v-4q0 -67 14 -165q16 -133 47 -189q20 -35 42 -35q20 0 34 37z
M139.5 806.5q-46.5 13.5 -86.5 28.5t-40 21q0 12 11 25.5t22 13.5q6 0 47 -21t76 -43.5t35 -30.5q0 -7 -7 -7q-11 0 -57.5 13.5z" />
    <glyph glyph-name="Oacute" unicode="&#xd3;" horiz-adv-x="355" 
d="M142 -10q-22 18 -38 49q-29 54 -43 148q-10 65 -15 150l-1 53v54q-1 26 -1 63q0 60 5 106q4 48 20 95q16 41 46 58q18 8 36 8q53 0 84 -42q34 -47 45 -105q16 -70 18 -134q4 -71 4 -134v-57q0 -17 -5 -64q-4 -37 -4 -63v-4q-6 -28 -6 -66q0 -28 -12 -58t-34 -51
q-22 -24 -50 -24q-27 0 -49 18zM227 64q12 33 17.5 80.5t9.5 107.5q2 26 2 67l-1 92q-2 54 -12 135q-8 69 -30 122q-10 25 -25 39t-32 14q-25 0 -37 -39q-15 -41 -20 -90q-6 -53 -7 -101l-1 -33q-1 -14 -1 -38v-4q0 -67 14 -165q16 -133 47 -189q20 -35 42 -35q20 0 34 37z
M129 792.5q-5 3.5 -5 9.5q0 5 5 10l16 14q5 5 56 49l59 51q4 2 9 2q12 0 22 -12t10 -25q0 -12 -7 -16q-36 -28 -146 -84q-2 -2 -8 -2t-11 3.5z" />
    <glyph glyph-name="Ocircumflex" unicode="&#xd4;" horiz-adv-x="355" 
d="M224 795l-39 135l-51 -128q-3 -7 -14 -7q-10 0 -17.5 5.5t-7.5 14.5q0 6 2 9l35 88q4 8 12 27t12 26q11 18 23 24q8 2 14 2q8 0 14 -9q14 -22 25 -68l13 -48q9 -36 13 -48q1 -3 1 -9q0 -9 -7 -15t-16 -6q-10 0 -12 7zM142 -10q-22 18 -38 49q-29 54 -43 148
q-10 65 -15 150l-1 53v54q-1 26 -1 63q0 60 5 106q4 48 20 95q16 41 46 58q18 8 36 8q53 0 84 -42q34 -47 45 -105q16 -70 18 -134q4 -71 4 -134v-57q0 -17 -5 -64q-4 -37 -4 -63v-4q-6 -28 -6 -66q0 -28 -12 -58t-34 -51q-22 -24 -50 -24q-27 0 -49 18zM227 64
q12 33 17.5 80.5t9.5 107.5q2 26 2 67l-1 92q-2 54 -12 135q-8 69 -30 122q-10 25 -25 39t-32 14q-25 0 -37 -39q-15 -41 -20 -90q-6 -53 -7 -101l-1 -33q-1 -14 -1 -38v-4q0 -67 14 -165q16 -133 47 -189q20 -35 42 -35q20 0 34 37z" />
    <glyph glyph-name="Otilde" unicode="&#xd5;" horiz-adv-x="355" 
d="M162 798.5q-18 6.5 -25 15.5t-17 15t-22 6q-7 -3 -10 -8t-1 -11v-2q0 -13 -15 -18q-16 0 -26 7.5t-10 21.5q0 25 20 41.5t53 16.5q11 0 43 -20t41 -20t14.5 6t6.5 14q2 8 7.5 14t14.5 6q16 0 24.5 -7.5t8.5 -18.5q0 -26 -19 -45.5t-45 -19.5q-25 0 -43 6.5zM142 -10
q-22 18 -38 49q-29 54 -43 148q-10 65 -15 150l-1 53v54q-1 26 -1 63q0 60 5 106q4 48 20 95q16 41 46 58q18 8 36 8q53 0 84 -42q34 -47 45 -105q16 -70 18 -134q4 -71 4 -134v-57q0 -17 -5 -64q-4 -37 -4 -63v-4q-6 -28 -6 -66q0 -28 -12 -58t-34 -51q-22 -24 -50 -24
q-27 0 -49 18zM227 64q12 33 17.5 80.5t9.5 107.5q2 26 2 67l-1 92q-2 54 -12 135q-8 69 -30 122q-10 25 -25 39t-32 14q-25 0 -37 -39q-15 -41 -20 -90q-6 -53 -7 -101l-1 -33q-1 -14 -1 -38v-4q0 -67 14 -165q16 -133 47 -189q20 -35 42 -35q20 0 34 37z" />
    <glyph glyph-name="Odieresis" unicode="&#xd6;" horiz-adv-x="355" 
d="M142 -10q-22 18 -38 49q-29 54 -43 148q-10 65 -15 150l-1 53v54q-1 26 -1 63q0 60 5 106q4 48 20 95q16 41 46 58q18 8 36 8q53 0 84 -42q34 -47 45 -105q16 -70 18 -134q4 -71 4 -134v-57q0 -17 -5 -64q-4 -37 -4 -63v-4q-6 -28 -6 -66q0 -28 -12 -58t-34 -51
q-22 -24 -50 -24q-27 0 -49 18zM227 64q12 33 17.5 80.5t9.5 107.5q2 26 2 67l-1 92q-2 54 -12 135q-8 69 -30 122q-10 25 -25 39t-32 14q-25 0 -37 -39q-15 -41 -20 -90q-6 -53 -7 -101l-1 -33q-1 -14 -1 -38v-4q0 -67 14 -165q16 -133 47 -189q20 -35 42 -35q20 0 34 37z
M70.5 809q-10.5 11 -10.5 25q0 15 11.5 26.5t26.5 11.5q14 0 24.5 -11.5t10.5 -25.5q0 -16 -11 -26.5t-28 -10.5q-13 0 -23.5 11zM231.5 804q-10.5 11 -10.5 25q0 15 11.5 26.5t26.5 11.5q14 0 25 -11.5t11 -25.5q0 -16 -11.5 -26.5t-28.5 -10.5q-13 0 -23.5 11z" />
    <glyph glyph-name="multiply" unicode="&#xd7;" horiz-adv-x="404" 
d="M268 201q-2 3 -7.5 8t-13.5 15l-32 34q-16 16 -18 16q-5 0 -17 -16q-35 -48 -57 -48q-12 0 -21.5 9t-9.5 20q0 13 44 51q16 15 22 22l-29 22q-27 22 -39.5 38t-12.5 30q0 11 9 19.5t20 8.5q6 0 25 -16q13 -11 41 -37q26 -24 27 -25q14 8 39 41q9 13 21 21.5t24 8.5
q11 0 19 -8t8 -19q0 -10 -10 -21t-24 -20t-24 -20t-10 -21q0 -9 11.5 -20t27.5 -20q39 -25 39 -43q0 -14 -11 -25t-25 -11z" />
    <glyph glyph-name="Oslash" unicode="&#xd8;" horiz-adv-x="356" 
d="M60 -109l30 179q-23 62 -34 149.5t-11 170.5v54q-1 26 -1 63q0 60 5 107q4 49 20 94q17 41 46 58q18 8 36 8q37 0 61 -20l22 124h39l-31 -155q40 -58 51 -171q6 -50 7.5 -91.5t1.5 -102.5v-29v-27q0 -17 -5 -64q-4 -37 -4 -63v-4q-6 -28 -6 -66q0 -28 -12 -58t-34 -51
q-22 -24 -50 -24q-23 0 -40 12.5t-34 38.5l-35 -160zM201 691q-19 30 -45 30q-25 0 -37 -39q-15 -41 -20 -90q-6 -53 -7 -101l-1 -33q-1 -14 -1 -38v-4q0 -36 6 -101.5t16 -121.5zM227 64q12 33 17.5 80.5t9.5 107.5q2 26 2 67q0 210 -31 315l-95 -517q25 -90 63 -90
q20 0 34 37z" />
    <glyph glyph-name="Ugrave" unicode="&#xd9;" horiz-adv-x="401" 
d="M136 36q-39 55 -55 135q-18 85 -23 182q-5 88 -5 191v83q1 35 1 74q-8 8 -8 20t9 21.5t20 9.5q36 0 36 -71q0 -46 5 -174t5 -174q5 -13 9.5 -52t4.5 -64q0 -22 7 -54.5t20 -65.5q13 -35 34 -57.5t44 -22.5q14 0 23.5 9t12.5 26q6 28 6 55v195q0 37 -7 94q-6 63 -6 95v7
q0 16 -1 29l-1 29q0 28 -3 85q-4 51 -4 86q0 11 11.5 19t25.5 8l25 -23v-17q0 -12 -4 -29q-4 -28 -4 -32q0 -91 10 -251q9 -168 9 -261q0 -50 -10 -88q-6 -23 -16.5 -37t-28.5 -24q-17 -10 -44 -10q-62 0 -98 54zM167.5 792.5q-46.5 13.5 -86.5 28.5t-40 21q0 12 11 25.5
t22 13.5q6 0 47 -21t76 -43.5t35 -30.5q0 -7 -7 -7q-11 0 -57.5 13.5z" />
    <glyph glyph-name="Uacute" unicode="&#xda;" horiz-adv-x="401" 
d="M136 36q-39 55 -55 135q-18 85 -23 182q-5 88 -5 191v83q1 35 1 74q-8 8 -8 20t9 21.5t20 9.5q36 0 36 -71q0 -46 5 -174t5 -174q5 -13 9.5 -52t4.5 -64q0 -22 7 -54.5t20 -65.5q13 -35 34 -57.5t44 -22.5q14 0 23.5 9t12.5 26q6 28 6 55v195q0 37 -7 94q-6 63 -6 95v7
q0 16 -1 29l-1 29q0 28 -3 85q-4 51 -4 86q0 11 11.5 19t25.5 8l25 -23v-17q0 -12 -4 -29q-4 -28 -4 -32q0 -91 10 -251q9 -168 9 -261q0 -50 -10 -88q-6 -23 -16.5 -37t-28.5 -24q-17 -10 -44 -10q-62 0 -98 54zM157 778.5q-5 3.5 -5 9.5q0 5 5 10l16 14q5 5 56 49l59 51
q4 2 9 2q12 0 22 -12t10 -25q0 -12 -7 -16q-36 -28 -146 -84q-2 -2 -8 -2t-11 3.5z" />
    <glyph glyph-name="Ucircumflex" unicode="&#xdb;" horiz-adv-x="401" 
d="M252 781l-39 135l-51 -128q-3 -7 -14 -7q-10 0 -17.5 5.5t-7.5 14.5q0 6 2 9l35 88q4 8 12 27t12 26q11 18 23 24q8 2 14 2q8 0 14 -9q14 -22 25 -68l13 -48q9 -36 13 -48q1 -3 1 -9q0 -9 -7 -15t-16 -6q-10 0 -12 7zM136 36q-39 55 -55 135q-18 85 -23 182q-5 88 -5 191
v83q1 35 1 74q-8 8 -8 20t9 21.5t20 9.5q36 0 36 -71q0 -46 5 -174t5 -174q5 -13 9.5 -52t4.5 -64q0 -22 7 -54.5t20 -65.5q13 -35 34 -57.5t44 -22.5q14 0 23.5 9t12.5 26q6 28 6 55v195q0 37 -7 94q-6 63 -6 95v7q0 16 -1 29l-1 29q0 28 -3 85q-4 51 -4 86q0 11 11.5 19
t25.5 8l25 -23v-17q0 -12 -4 -29q-4 -28 -4 -32q0 -91 10 -251q9 -168 9 -261q0 -50 -10 -88q-6 -23 -16.5 -37t-28.5 -24q-17 -10 -44 -10q-62 0 -98 54z" />
    <glyph glyph-name="Udieresis" unicode="&#xdc;" horiz-adv-x="401" 
d="M136 36q-39 55 -55 135q-18 85 -23 182q-5 88 -5 191v83q1 35 1 74q-8 8 -8 20t9 21.5t20 9.5q36 0 36 -71q0 -46 5 -174t5 -174q5 -13 9.5 -52t4.5 -64q0 -22 7 -54.5t20 -65.5q13 -35 34 -57.5t44 -22.5q14 0 23.5 9t12.5 26q6 28 6 55v195q0 37 -7 94q-6 63 -6 95v7
q0 16 -1 29l-1 29q0 28 -3 85q-4 51 -4 86q0 11 11.5 19t25.5 8l25 -23v-17q0 -12 -4 -29q-4 -28 -4 -32q0 -91 10 -251q9 -168 9 -261q0 -50 -10 -88q-6 -23 -16.5 -37t-28.5 -24q-17 -10 -44 -10q-62 0 -98 54zM98.5 795q-10.5 11 -10.5 25q0 15 11.5 26.5t26.5 11.5
q14 0 24.5 -11.5t10.5 -25.5q0 -16 -11 -26.5t-28 -10.5q-13 0 -23.5 11zM259.5 790q-10.5 11 -10.5 25q0 15 11.5 26.5t26.5 11.5q14 0 25 -11.5t11 -25.5q0 -16 -11.5 -26.5t-28.5 -10.5q-13 0 -23.5 11z" />
    <glyph glyph-name="Yacute" unicode="&#xdd;" horiz-adv-x="265" 
d="M113.5 -5q-7.5 7 -7.5 17l2 97q3 65 3 97q0 29 -9 86q-10 56 -10 87q0 38 -11 87t-28 94q-16 43 -27 92.5t-11 86.5q0 7 8 12t17 5q11 0 21 -23q12 -26 23 -73t13 -56l13 -69l10 -44q3 16 5 42q6 83 15 138q7 38 16 58q10 22 24 22q27 0 27 -10q0 -57 -24 -168t-24 -169
l-2 -16q-2 -15 -1 -18v-16q0 -43 3 -132l2 -133l2 -23l2 -24v-25q0 -12 -10 -20.5t-24 -8.5q-10 0 -17.5 7zM109 778.5q-5 3.5 -5 9.5q0 5 5 10l16 14q5 5 56 49l59 51q4 2 9 2q12 0 22 -12t10 -25q0 -12 -7 -16q-36 -28 -146 -84q-2 -2 -8 -2t-11 3.5z" />
    <glyph glyph-name="Thorn" unicode="&#xde;" horiz-adv-x="262" 
d="M64.5 4.5q-6.5 9.5 -6.5 23.5q0 78 -5 303q-6 201 -6 302l-1 93q0 30 25 30q34 0 34 -61v-19l-1 -15q41 -6 71.5 -36t44.5 -72q12 -40 12 -82q0 -74 -32 -133.5t-93 -92.5l2 -68l2 -35q4 -61 4 -106q0 -41 -33 -41q-11 0 -17.5 9.5zM162.5 371q18.5 41 18.5 92
q0 41 -6.5 64t-20.5 40q-17 18 -48 43h-3l1 -158l1 -159q39 37 57.5 78z" />
    <glyph glyph-name="germandbls" unicode="&#xdf;" horiz-adv-x="323" 
d="M49 2l2 130q3 87 3 131q0 70 -4 173l-2 57l-2 117q0 41 11 84q12 47 45 69q19 11 41 11q26 0 46 -16.5t30 -44.5q17 -52 17 -103q0 -88 -62 -191q53 -40 72 -83.5t19 -118.5q0 -57 -23.5 -108t-65.5 -85l-2 -1l-6 -1q-9 0 -16 5t-7 13q0 12 36 58q14 20 24.5 48t10.5 54
q0 50 -8.5 88t-21.5 58q-15 20 -26 31q-3 3 -12.5 12t-14 15.5t-4.5 12.5q0 8 15 42q17 42 30 86.5t13 76.5q0 24 -9 57q-5 18 -14 29t-21 11q-13 0 -22.5 -9t-15.5 -24q-10 -29 -10 -54q0 -88 8 -304q7 -190 7 -306q0 -22 -7 -33.5t-25 -11.5q-29 0 -29 25z" />
    <glyph glyph-name="agrave" unicode="&#xe0;" horiz-adv-x="299" 
d="M224 -2q-11 7 -11 26q0 30 -10 102l-4 21l-99 15q-6 -23 -17 -93q-6 -49 -19 -65q-7 -9 -20 -9q-12 0 -22 7.5t-10 18.5l2 5l1 4q66 257 100 507q0 4 1 13.5t2 27.5q3 37 6.5 59t11.5 33h34q14 0 24 -6.5t10 -18.5q0 -76 21 -226q20 -154 20 -216q0 -6 5 -31q5 -23 5 -30
t10 -60q9 -48 9 -62v-1q0 -22 -16 -28q-23 0 -34 7zM189 220q0 90 -16 230l-10 104q-43 -235 -59 -355q15 -10 88 -16q-3 15 -3 37zM150.5 731.5q-46.5 13.5 -86.5 28.5t-40 21q0 12 11 25.5t22 13.5q6 0 47 -21t76 -43.5t35 -30.5q0 -7 -7 -7q-11 0 -57.5 13.5z" />
    <glyph glyph-name="aacute" unicode="&#xe1;" horiz-adv-x="299" 
d="M224 -2q-11 7 -11 26q0 30 -10 102l-4 21l-99 15q-6 -23 -17 -93q-6 -49 -19 -65q-7 -9 -20 -9q-12 0 -22 7.5t-10 18.5l2 5l1 4q66 257 100 507q0 4 1 13.5t2 27.5q3 37 6.5 59t11.5 33h34q14 0 24 -6.5t10 -18.5q0 -76 21 -226q20 -154 20 -216q0 -6 5 -31q5 -23 5 -30
t10 -60q9 -48 9 -62v-1q0 -22 -16 -28q-23 0 -34 7zM189 220q0 90 -16 230l-10 104q-43 -235 -59 -355q15 -10 88 -16q-3 15 -3 37zM154 717.5q-5 3.5 -5 9.5q0 5 5 10l16 14q5 5 56 49l59 51q4 2 9 2q12 0 22 -12t10 -25q0 -12 -7 -16q-36 -28 -146 -84q-2 -2 -8 -2
t-11 3.5z" />
    <glyph glyph-name="acircumflex" unicode="&#xe2;" horiz-adv-x="299" 
d="M221 686l-39 135l-51 -128q-3 -7 -14 -7q-10 0 -17.5 5.5t-7.5 14.5q0 6 2 9l35 88q4 8 12 27t12 26q11 18 23 24q8 2 14 2q8 0 14 -9q14 -22 25 -68l13 -48q9 -36 13 -48q1 -3 1 -9q0 -9 -7 -15t-16 -6q-10 0 -12 7zM224 -2q-11 7 -11 26q0 30 -10 102l-4 21l-99 15
q-6 -23 -17 -93q-6 -49 -19 -65q-7 -9 -20 -9q-12 0 -22 7.5t-10 18.5l2 5l1 4q66 257 100 507q0 4 1 13.5t2 27.5q3 37 6.5 59t11.5 33h34q14 0 24 -6.5t10 -18.5q0 -76 21 -226q20 -154 20 -216q0 -6 5 -31q5 -23 5 -30t10 -60q9 -48 9 -62v-1q0 -22 -16 -28q-23 0 -34 7z
M189 220q0 90 -16 230l-10 104q-43 -235 -59 -355q15 -10 88 -16q-3 15 -3 37z" />
    <glyph glyph-name="atilde" unicode="&#xe3;" horiz-adv-x="299" 
d="M183 723.5q-18 6.5 -25 15.5t-17 15t-22 6q-7 -3 -10 -8t-1 -11v-2q0 -13 -15 -18q-16 0 -26 7.5t-10 21.5q0 25 20 41.5t53 16.5q11 0 43 -20t41 -20t14.5 6t6.5 14q2 8 7.5 14t14.5 6q16 0 24.5 -7.5t8.5 -18.5q0 -26 -19 -45.5t-45 -19.5q-25 0 -43 6.5zM224 -2
q-11 7 -11 26q0 30 -10 102l-4 21l-99 15q-6 -23 -17 -93q-6 -49 -19 -65q-7 -9 -20 -9q-12 0 -22 7.5t-10 18.5l2 5l1 4q66 257 100 507q0 4 1 13.5t2 27.5q3 37 6.5 59t11.5 33h34q14 0 24 -6.5t10 -18.5q0 -76 21 -226q20 -154 20 -216q0 -6 5 -31q5 -23 5 -30t10 -60
q9 -48 9 -62v-1q0 -22 -16 -28q-23 0 -34 7zM189 220q0 90 -16 230l-10 104q-43 -235 -59 -355q15 -10 88 -16q-3 15 -3 37z" />
    <glyph glyph-name="adieresis" unicode="&#xe4;" horiz-adv-x="299" 
d="M224 -2q-11 7 -11 26q0 30 -10 102l-4 21l-99 15q-6 -23 -17 -93q-6 -49 -19 -65q-7 -9 -20 -9q-12 0 -22 7.5t-10 18.5l2 5l1 4q66 257 100 507q0 4 1 13.5t2 27.5q3 37 6.5 59t11.5 33h34q14 0 24 -6.5t10 -18.5q0 -76 21 -226q20 -154 20 -216q0 -6 5 -31q5 -23 5 -30
t10 -60q9 -48 9 -62v-1q0 -22 -16 -28q-23 0 -34 7zM189 220q0 90 -16 230l-10 104q-43 -235 -59 -355q15 -10 88 -16q-3 15 -3 37zM67.5 749q-10.5 11 -10.5 25q0 15 11.5 26.5t26.5 11.5q14 0 24.5 -11.5t10.5 -25.5q0 -16 -11 -26.5t-28 -10.5q-13 0 -23.5 11zM228.5 744
q-10.5 11 -10.5 25q0 15 11.5 26.5t26.5 11.5q14 0 25 -11.5t11 -25.5q0 -16 -11.5 -26.5t-28.5 -10.5q-13 0 -23.5 11z" />
    <glyph glyph-name="aring" unicode="&#xe5;" horiz-adv-x="299" 
d="M124.5 718.5q-16.5 9.5 -24.5 25.5q-16 32 -16 65q0 35 22.5 58t57.5 23q46 0 70 -19q21 -17 28 -42q2 -14 2 -20q0 -24 -11 -47q-14 -32 -47 -46q-17 -7 -42 -7q-23 0 -39.5 9.5zM198 753.5q13 6.5 20 17.5q10 16 10 36q0 19 -15 33t-44 14q-23 0 -34.5 -18t-11.5 -47
q0 -14 14 -28t31 -14t30 6.5zM224 -2q-11 7 -11 26q0 30 -10 102l-4 21l-99 15q-6 -23 -17 -93q-6 -49 -19 -65q-7 -9 -20 -9q-12 0 -22 7.5t-10 18.5l2 5l1 4q66 257 100 507q0 4 1 13.5t2 27.5q3 37 6.5 59t11.5 33h34q14 0 24 -6.5t10 -18.5q0 -76 21 -226
q20 -154 20 -216q0 -6 5 -31q5 -23 5 -30t10 -60q9 -48 9 -62v-1q0 -22 -16 -28q-23 0 -34 7zM189 220q0 90 -16 230l-10 104q-43 -235 -59 -355q15 -10 88 -16q-3 15 -3 37z" />
    <glyph glyph-name="ae" unicode="&#xe6;" horiz-adv-x="438" 
d="M250 1h1q8 93 8 123l-2 92q-3 63 -3 93q-11 0 -21 -1q-20 -1 -43 -4q-3 -1 -10.5 -2.5t-11.5 -3.5l-49 -188q-3 -8 -5 -26q-4 -20 -9 -38t-12 -31q-10 -15 -21 -15q-7 0 -13 7.5t-6 15.5q0 51 27 159q27 105 60 218l29 96q25 81 33 107q17 54 23 71q1 4 3.5 13t4.5 16
q3 6 5 14q5 11 8 14q2 3 4.5 6t4.5 6q10 11 26 11l39 2q25 3 38 3q43 0 43 -28v-2l-10 -21q-57 0 -95 -5q0 -25 4 -64q3 -45 3 -70l-2 -110q-1 -48 -1 -109q7 0 34 5q32 4 38 4h5l20 -24q0 -32 -55 -32h-4l-39 1l2 -127q1 -59 1 -137q15 0 55 5q31 5 56 5q13 0 23 -6.5
t10 -17.5q0 -32 -119 -32h-15q-10 0 -21 -7q-13 -8 -19 -8zM252 345l1 33q0 13 2 67q1 51 1 118q0 49 -1 63q-55 -188 -77 -290q47 3 74 9z" />
    <glyph glyph-name="ccedilla" unicode="&#xe7;" horiz-adv-x="279" 
d="M148.5 -7.5q-24.5 6.5 -37.5 14.5q-67 43 -67 235v27v31v24q0 40 1 71.5t4 68.5q3 39 9 63.5t20 55.5q12 29 29.5 45t45.5 27q25 11 62 11q15 0 23 -7t8 -18q0 -10 -6.5 -18t-15.5 -9h-47q-20 0 -35 -25t-21 -65q-13 -74 -13 -120v-5l-2 -96q-2 -43 -2 -97q0 -38 3 -62
q5 -36 17 -60q12 -27 41 -39q15 -6 33 -6q11 0 22 8q13 0 21.5 -5.5t8.5 -16.5q0 -39 -55 -39q-22 0 -46.5 6.5zM132.5 -207.5q-13.5 7.5 -13.5 19.5q0 10 11 10q4 0 16 -5t16 -5q17 0 28 20.5t11 48.5q0 33 -15 45l-13 -2l-14 -2q-15 0 -27 20q8 21 8 58v11l29 4
q-4 -30 -4 -51q73 -4 73 -100q0 -16 -10.5 -34.5t-28.5 -31.5t-37 -13q-16 0 -29.5 7.5z" />
    <glyph glyph-name="egrave" unicode="&#xe8;" horiz-adv-x="284" 
d="M83.5 -4q-10.5 9 -11.5 22v26v20q-1 9 -1 21q0 21 -3 64l-2 64q0 49 3 146q4 87 4 146q0 14 -3 42q-3 29 -3 42q0 71 42 71q33 0 76.5 -13t43.5 -31q0 -10 -8.5 -18.5t-20.5 -13.5q-42 15 -76 20q1 -15 1 -43q0 -40 -1 -72q-3 -48 -3 -72l3 -16l16 1q8 1 20 1
q48 0 48 -28q0 -11 -9 -18.5t-23 -7.5q-18 0 -28 2h-25q2 -26 2 -76t-1 -90q-3 -61 -3 -91q0 -56 2 -56l33 1q17 1 41 1q38 0 38 -24q0 -14 -12.5 -21.5t-30.5 -7.5h-85q-13 0 -23.5 9zM108.5 711.5q-46.5 13.5 -86.5 28.5t-40 21q0 12 11 25.5t22 13.5q6 0 47 -21t76 -43.5
t35 -30.5q0 -7 -7 -7q-11 0 -57.5 13.5z" />
    <glyph glyph-name="eacute" unicode="&#xe9;" horiz-adv-x="284" 
d="M83.5 -4q-10.5 9 -11.5 22v26v20q-1 9 -1 21q0 21 -3 64l-2 64q0 49 3 146q4 87 4 146q0 14 -3 42q-3 29 -3 42q0 71 42 71q33 0 76.5 -13t43.5 -31q0 -10 -8.5 -18.5t-20.5 -13.5q-42 15 -76 20q1 -15 1 -43q0 -40 -1 -72q-3 -48 -3 -72l3 -16l16 1q8 1 20 1
q48 0 48 -28q0 -11 -9 -18.5t-23 -7.5q-18 0 -28 2h-25q2 -26 2 -76t-1 -90q-3 -61 -3 -91q0 -56 2 -56l33 1q17 1 41 1q38 0 38 -24q0 -14 -12.5 -21.5t-30.5 -7.5h-85q-13 0 -23.5 9zM112 697.5q-5 3.5 -5 9.5q0 5 5 10l16 14q5 5 56 49l59 51q4 2 9 2q12 0 22 -12t10 -25
q0 -12 -7 -16q-36 -28 -146 -84q-2 -2 -8 -2t-11 3.5z" />
    <glyph glyph-name="ecircumflex" unicode="&#xea;" horiz-adv-x="284" 
d="M179 666l-39 135l-51 -128q-3 -7 -14 -7q-10 0 -17.5 5.5t-7.5 14.5q0 6 2 9l35 88q4 8 12 27t12 26q11 18 23 24q8 2 14 2q8 0 14 -9q14 -22 25 -68l13 -48q9 -36 13 -48q1 -3 1 -9q0 -9 -7 -15t-16 -6q-10 0 -12 7zM83.5 -4q-10.5 9 -11.5 22v26v20q-1 9 -1 21
q0 21 -3 64l-2 64q0 49 3 146q4 87 4 146q0 14 -3 42q-3 29 -3 42q0 71 42 71q33 0 76.5 -13t43.5 -31q0 -10 -8.5 -18.5t-20.5 -13.5q-42 15 -76 20q1 -15 1 -43q0 -40 -1 -72q-3 -48 -3 -72l3 -16l16 1q8 1 20 1q48 0 48 -28q0 -11 -9 -18.5t-23 -7.5q-18 0 -28 2h-25
q2 -26 2 -76t-1 -90q-3 -61 -3 -91q0 -56 2 -56l33 1q17 1 41 1q38 0 38 -24q0 -14 -12.5 -21.5t-30.5 -7.5h-85q-13 0 -23.5 9z" />
    <glyph glyph-name="edieresis" unicode="&#xeb;" horiz-adv-x="284" 
d="M83.5 -4q-10.5 9 -11.5 22v26v20q-1 9 -1 21q0 21 -3 64l-2 64q0 49 3 146q4 87 4 146q0 14 -3 42q-3 29 -3 42q0 71 42 71q33 0 76.5 -13t43.5 -31q0 -10 -8.5 -18.5t-20.5 -13.5q-42 15 -76 20q1 -15 1 -43q0 -40 -1 -72q-3 -48 -3 -72l3 -16l16 1q8 1 20 1
q48 0 48 -28q0 -11 -9 -18.5t-23 -7.5q-18 0 -28 2h-25q2 -26 2 -76t-1 -90q-3 -61 -3 -91q0 -56 2 -56l33 1q17 1 41 1q38 0 38 -24q0 -14 -12.5 -21.5t-30.5 -7.5h-85q-13 0 -23.5 9zM25.5 729q-10.5 11 -10.5 25q0 15 11.5 26.5t26.5 11.5q14 0 24.5 -11.5t10.5 -25.5
q0 -16 -11 -26.5t-28 -10.5q-13 0 -23.5 11zM186.5 724q-10.5 11 -10.5 25q0 15 11.5 26.5t26.5 11.5q14 0 25 -11.5t11 -25.5q0 -16 -11.5 -26.5t-28.5 -10.5q-13 0 -23.5 11z" />
    <glyph glyph-name="igrave" unicode="&#xec;" horiz-adv-x="226" 
d="M24 31q0 24 31 24h11l10 -1q8 0 11 5t3 18q0 17 -2 53q-3 24 -7 86q-9 153 -9 231q0 28 1 51l1 51q0 33 -3 55q-16 -4 -23 -4q-24 0 -24 24q0 12 15 21t38 13q40 8 71 8q12 0 20.5 -8.5t8.5 -19.5t-6.5 -19t-16.5 -8q-6 0 -10 1h-8q-10 0 -14.5 -4.5t-4.5 -16.5
q0 -97 12 -292q2 -36 8 -106q5 -46 5 -94v-38q6 1 20 1q42 0 42 -35v-6l-25 -17q-1 0 -6.5 -0.5t-20.5 -0.5q-32 -2 -41 -2q-87 0 -87 30zM79.5 728.5q-46.5 13.5 -86.5 28.5t-40 21q0 12 11 25.5t22 13.5q6 0 47 -21t76 -43.5t35 -30.5q0 -7 -7 -7q-11 0 -57.5 13.5z" />
    <glyph glyph-name="iacute" unicode="&#xed;" horiz-adv-x="226" 
d="M24 31q0 24 31 24h11l10 -1q8 0 11 5t3 18q0 17 -2 53q-3 24 -7 86q-9 153 -9 231q0 28 1 51l1 51q0 33 -3 55q-16 -4 -23 -4q-24 0 -24 24q0 12 15 21t38 13q40 8 71 8q12 0 20.5 -8.5t8.5 -19.5t-6.5 -19t-16.5 -8q-6 0 -10 1h-8q-10 0 -14.5 -4.5t-4.5 -16.5
q0 -97 12 -292q2 -36 8 -106q5 -46 5 -94v-38q6 1 20 1q42 0 42 -35v-6l-25 -17q-1 0 -6.5 -0.5t-20.5 -0.5q-32 -2 -41 -2q-87 0 -87 30zM83 714.5q-5 3.5 -5 9.5q0 5 5 10l16 14q5 5 56 49l59 51q4 2 9 2q12 0 22 -12t10 -25q0 -12 -7 -16q-36 -28 -146 -84q-2 -2 -8 -2
t-11 3.5z" />
    <glyph glyph-name="icircumflex" unicode="&#xee;" horiz-adv-x="226" 
d="M150 683l-39 135l-51 -128q-3 -7 -14 -7q-10 0 -17.5 5.5t-7.5 14.5q0 6 2 9l35 88q4 8 12 27t12 26q11 18 23 24q8 2 14 2q8 0 14 -9q14 -22 25 -68l13 -48q9 -36 13 -48q1 -3 1 -9q0 -9 -7 -15t-16 -6q-10 0 -12 7zM24 31q0 24 31 24h11l10 -1q8 0 11 5t3 18
q0 17 -2 53q-3 24 -7 86q-9 153 -9 231q0 28 1 51l1 51q0 33 -3 55q-16 -4 -23 -4q-24 0 -24 24q0 12 15 21t38 13q40 8 71 8q12 0 20.5 -8.5t8.5 -19.5t-6.5 -19t-16.5 -8q-6 0 -10 1h-8q-10 0 -14.5 -4.5t-4.5 -16.5q0 -97 12 -292q2 -36 8 -106q5 -46 5 -94v-38q6 1 20 1
q42 0 42 -35v-6l-25 -17q-1 0 -6.5 -0.5t-20.5 -0.5q-32 -2 -41 -2q-87 0 -87 30z" />
    <glyph glyph-name="idieresis" unicode="&#xef;" horiz-adv-x="226" 
d="M24 31q0 24 31 24h11l10 -1q8 0 11 5t3 18q0 17 -2 53q-3 24 -7 86q-9 153 -9 231q0 28 1 51l1 51q0 33 -3 55q-16 -4 -23 -4q-24 0 -24 24q0 12 15 21t38 13q40 8 71 8q12 0 20.5 -8.5t8.5 -19.5t-6.5 -19t-16.5 -8q-6 0 -10 1h-8q-10 0 -14.5 -4.5t-4.5 -16.5
q0 -97 12 -292q2 -36 8 -106q5 -46 5 -94v-38q6 1 20 1q42 0 42 -35v-6l-25 -17q-1 0 -6.5 -0.5t-20.5 -0.5q-32 -2 -41 -2q-87 0 -87 30zM-3.5 746q-10.5 11 -10.5 25q0 15 11.5 26.5t26.5 11.5q14 0 24.5 -11.5t10.5 -25.5q0 -16 -11 -26.5t-28 -10.5q-13 0 -23.5 11z
M157.5 741q-10.5 11 -10.5 25q0 15 11.5 26.5t26.5 11.5q14 0 25 -11.5t11 -25.5q0 -16 -11.5 -26.5t-28.5 -10.5q-13 0 -23.5 11z" />
    <glyph glyph-name="eth" unicode="&#xf0;" horiz-adv-x="287" 
d="M80 20q-18 25 -23 61q-4 26 -4 68q-2 22 -2 46q0 69 11 134q6 41 17 69.5t30 48.5q22 20 47 20l12 -1q-11 87 -23 145q-45 -5 -82 -5q-4 0 -6.5 5t-2.5 10q0 23 81 33q-14 55 -27 65q-17 3 -28.5 11.5t-11.5 20.5q0 9 8.5 15t17.5 6q63 0 94 -112l54 2q4 0 6 -4.5
t2 -10.5q0 -19 -51 -28q26 -121 26 -306l-2 -87q-3 -58 -3 -88q0 -21 -1 -38.5t-5 -37.5q-5 -23 -13.5 -36.5t-24.5 -23.5q-16 -9 -40 -9q-40 0 -56 27zM159 47q6 9 8 27v16q0 11 1 13q10 129 10 230q0 81 -29 99q-48 -12 -48 -242v-12v-19q0 -124 33 -124q15 0 25 12z" />
    <glyph glyph-name="ntilde" unicode="&#xf1;" horiz-adv-x="479" 
d="M249 703.5q-18 6.5 -25 15.5t-17 15t-22 6q-7 -3 -10 -8t-1 -11v-2q0 -13 -15 -18q-16 0 -26 7.5t-10 21.5q0 25 20 41.5t53 16.5q11 0 43 -20t41 -20t14.5 6t6.5 14q2 8 7.5 14t14.5 6q16 0 24.5 -7.5t8.5 -18.5q0 -26 -19 -45.5t-45 -19.5q-25 0 -43 6.5zM316 3.5
q-6 6.5 -9 22.5l-6 19v2v3q0 33 -68.5 225t-107.5 284v-503l4 -7q1 -2 4 -7t3 -10q0 -13 -9 -22t-22 -9q-32 0 -32 61l-1 171q-1 77 -1 172q0 32 3 93q3 63 3 93q0 47 36 74v-6q6 2 8 2q23 0 58 -80q28 -64 50.5 -135t59.5 -202l10 -36q23 -81 35 -116q20 215 20 508v13
q-1 6 -1 13q0 30 24 30q14 0 21.5 -11t7.5 -28v-75q-2 -154 -12 -334t-24 -203q-29 -8 -36 -8q-12 0 -18 6.5z" />
    <glyph glyph-name="ograve" unicode="&#xf2;" horiz-adv-x="360" 
d="M130 -2.5q-22 16.5 -36 44.5q-29 61 -36 133q-9 68 -9 131q0 12 1 20v18q0 5 -1 5v18l1 70q1 32 8 102q5 48 23 93q7 20 18 30.5t25 10.5q40 0 72 -14.5t54 -40.5q20 -25 34 -61.5t20 -77.5q6 -42 6 -89v-8q0 -31 1 -56l1 -57q0 -288 -134 -288q-26 0 -48 16.5zM207 37.5
q15 14.5 23 39.5q19 51 23 110q5 51 5 88q0 45 -7 118q-6 77 -6 115v18q-2 38 -25.5 66t-57.5 28t-45 -39q-10 -31 -10 -80q0 -19 1 -32v-27l-2 -46q-2 -21 -2 -46q0 -54 3 -107q4 -75 20 -146q16 -74 47 -74q18 0 33 14.5zM132.5 716.5q-46.5 13.5 -86.5 28.5t-40 21
q0 12 11 25.5t22 13.5q6 0 47 -21t76 -43.5t35 -30.5q0 -7 -7 -7q-11 0 -57.5 13.5z" />
    <glyph glyph-name="oacute" unicode="&#xf3;" horiz-adv-x="360" 
d="M130 -2.5q-22 16.5 -36 44.5q-29 61 -36 133q-9 68 -9 131q0 12 1 20v18q0 5 -1 5v18l1 70q1 32 8 102q5 48 23 93q7 20 18 30.5t25 10.5q40 0 72 -14.5t54 -40.5q20 -25 34 -61.5t20 -77.5q6 -42 6 -89v-8q0 -31 1 -56l1 -57q0 -288 -134 -288q-26 0 -48 16.5zM207 37.5
q15 14.5 23 39.5q19 51 23 110q5 51 5 88q0 45 -7 118q-6 77 -6 115v18q-2 38 -25.5 66t-57.5 28t-45 -39q-10 -31 -10 -80q0 -19 1 -32v-27l-2 -46q-2 -21 -2 -46q0 -54 3 -107q4 -75 20 -146q16 -74 47 -74q18 0 33 14.5zM136 702.5q-5 3.5 -5 9.5q0 5 5 10l16 14
q5 5 56 49l59 51q4 2 9 2q12 0 22 -12t10 -25q0 -12 -7 -16q-36 -28 -146 -84q-2 -2 -8 -2t-11 3.5z" />
    <glyph glyph-name="ocircumflex" unicode="&#xf4;" horiz-adv-x="360" 
d="M203 671l-39 135l-51 -128q-3 -7 -14 -7q-10 0 -17.5 5.5t-7.5 14.5q0 6 2 9l35 88q4 8 12 27t12 26q11 18 23 24q8 2 14 2q8 0 14 -9q14 -22 25 -68l13 -48q9 -36 13 -48q1 -3 1 -9q0 -9 -7 -15t-16 -6q-10 0 -12 7zM130 -2.5q-22 16.5 -36 44.5q-29 61 -36 133
q-9 68 -9 131q0 12 1 20v18q0 5 -1 5v18l1 70q1 32 8 102q5 48 23 93q7 20 18 30.5t25 10.5q40 0 72 -14.5t54 -40.5q20 -25 34 -61.5t20 -77.5q6 -42 6 -89v-8q0 -31 1 -56l1 -57q0 -288 -134 -288q-26 0 -48 16.5zM207 37.5q15 14.5 23 39.5q19 51 23 110q5 51 5 88
q0 45 -7 118q-6 77 -6 115v18q-2 38 -25.5 66t-57.5 28t-45 -39q-10 -31 -10 -80q0 -19 1 -32v-27l-2 -46q-2 -21 -2 -46q0 -54 3 -107q4 -75 20 -146q16 -74 47 -74q18 0 33 14.5z" />
    <glyph glyph-name="otilde" unicode="&#xf5;" horiz-adv-x="360" 
d="M165 708.5q-18 6.5 -25 15.5t-17 15t-22 6q-7 -3 -10 -8t-1 -11v-2q0 -13 -15 -18q-16 0 -26 7.5t-10 21.5q0 25 20 41.5t53 16.5q11 0 43 -20t41 -20t14.5 6t6.5 14q2 8 7.5 14t14.5 6q16 0 24.5 -7.5t8.5 -18.5q0 -26 -19 -45.5t-45 -19.5q-25 0 -43 6.5zM130 -2.5
q-22 16.5 -36 44.5q-29 61 -36 133q-9 68 -9 131q0 12 1 20v18q0 5 -1 5v18l1 70q1 32 8 102q5 48 23 93q7 20 18 30.5t25 10.5q40 0 72 -14.5t54 -40.5q20 -25 34 -61.5t20 -77.5q6 -42 6 -89v-8q0 -31 1 -56l1 -57q0 -288 -134 -288q-26 0 -48 16.5zM207 37.5
q15 14.5 23 39.5q19 51 23 110q5 51 5 88q0 45 -7 118q-6 77 -6 115v18q-2 38 -25.5 66t-57.5 28t-45 -39q-10 -31 -10 -80q0 -19 1 -32v-27l-2 -46q-2 -21 -2 -46q0 -54 3 -107q4 -75 20 -146q16 -74 47 -74q18 0 33 14.5z" />
    <glyph glyph-name="odieresis" unicode="&#xf6;" horiz-adv-x="360" 
d="M130 -2.5q-22 16.5 -36 44.5q-29 61 -36 133q-9 68 -9 131q0 12 1 20v18q0 5 -1 5v18l1 70q1 32 8 102q5 48 23 93q7 20 18 30.5t25 10.5q40 0 72 -14.5t54 -40.5q20 -25 34 -61.5t20 -77.5q6 -42 6 -89v-8q0 -31 1 -56l1 -57q0 -288 -134 -288q-26 0 -48 16.5zM207 37.5
q15 14.5 23 39.5q19 51 23 110q5 51 5 88q0 45 -7 118q-6 77 -6 115v18q-2 38 -25.5 66t-57.5 28t-45 -39q-10 -31 -10 -80q0 -19 1 -32v-27l-2 -46q-2 -21 -2 -46q0 -54 3 -107q4 -75 20 -146q16 -74 47 -74q18 0 33 14.5zM49.5 734q-10.5 11 -10.5 25q0 15 11.5 26.5
t26.5 11.5q14 0 24.5 -11.5t10.5 -25.5q0 -16 -11 -26.5t-28 -10.5q-13 0 -23.5 11zM210.5 729q-10.5 11 -10.5 25q0 15 11.5 26.5t26.5 11.5q14 0 25 -11.5t11 -25.5q0 -16 -11.5 -26.5t-28.5 -10.5q-13 0 -23.5 11z" />
    <glyph glyph-name="divide" unicode="&#xf7;" horiz-adv-x="439" 
d="M191 396q-11 11 -11 25q0 13 10.5 23t24.5 10q15 0 25 -11t10 -26q0 -13 -10 -22.5t-24 -9.5t-25 11zM77 320q0 10 6.5 16t16.5 6h147l30 2l31 2q48 0 48 -30q0 -11 -7.5 -17t-20.5 -6l-105 -2q-72 -3 -106 -3q-40 0 -40 32zM191.5 190q-10.5 10 -10.5 24t10 24.5
t24 10.5t24.5 -12.5t10.5 -27.5q0 -13 -9 -21t-24 -8t-25.5 10z" />
    <glyph glyph-name="oslash" unicode="&#xf8;" horiz-adv-x="365" 
d="M93 -111l18 127q-18 22 -31.5 59.5t-19.5 81.5q-11 78 -11 149q0 12 1 20v18q0 5 -1 5v18l1 70q1 32 8 102q5 48 23 93q7 20 18 30.5t25 10.5q50 0 83 -20l18 109h29l-19 -129q75 -69 75 -243v-8q0 -31 1 -56l1 -57q0 -288 -134 -288q-22 0 -39 11l-22 -126zM200 609
q-19 11 -38 11q-34 0 -45 -39q-10 -31 -10 -80q0 -19 1 -32v-27l-2 -46q-2 -21 -2 -46q0 -147 21 -245zM207 37.5q15 14.5 23 39.5q19 51 23 110q5 51 5 88q0 45 -7 118q-6 77 -6 115v18q-1 30 -17 56l-82 -539q14 -20 28 -20q18 0 33 14.5z" />
    <glyph glyph-name="ugrave" unicode="&#xf9;" horiz-adv-x="361" 
d="M125 -4.5q-19 10.5 -31 30.5q-24 42 -31 95q-7 46 -7 110q-3 108 -3 264l-1 77q-1 6 -1 20q-2 38 -2 46q9 21 21 21t21.5 -18t9.5 -39v-272q0 -40 7 -106q7 -82 7 -106q0 -74 63 -74q72 0 72 538v56v9q-1 3 -1 8q0 12 5.5 17.5t21.5 5.5q13 0 20.5 -7.5t9.5 -17.5
q1 -6 1 -23q0 -16 -3 -51q-4 -29 -4 -50q0 -23 -2 -41l-2 -42v-8q1 -4 1 -9q0 -444 -129 -444q-24 0 -43 10.5zM142.5 731.5q-46.5 13.5 -86.5 28.5t-40 21q0 12 11 25.5t22 13.5q6 0 47 -21t76 -43.5t35 -30.5q0 -7 -7 -7q-11 0 -57.5 13.5z" />
    <glyph glyph-name="uacute" unicode="&#xfa;" horiz-adv-x="361" 
d="M125 -4.5q-19 10.5 -31 30.5q-24 42 -31 95q-7 46 -7 110q-3 108 -3 264l-1 77q-1 6 -1 20q-2 38 -2 46q9 21 21 21t21.5 -18t9.5 -39v-272q0 -40 7 -106q7 -82 7 -106q0 -74 63 -74q72 0 72 538v56v9q-1 3 -1 8q0 12 5.5 17.5t21.5 5.5q13 0 20.5 -7.5t9.5 -17.5
q1 -6 1 -23q0 -16 -3 -51q-4 -29 -4 -50q0 -23 -2 -41l-2 -42v-8q1 -4 1 -9q0 -444 -129 -444q-24 0 -43 10.5zM146 717.5q-5 3.5 -5 9.5q0 5 5 10l16 14q5 5 56 49l59 51q4 2 9 2q12 0 22 -12t10 -25q0 -12 -7 -16q-36 -28 -146 -84q-2 -2 -8 -2t-11 3.5z" />
    <glyph glyph-name="ucircumflex" unicode="&#xfb;" horiz-adv-x="361" 
d="M213 686l-39 135l-51 -128q-3 -7 -14 -7q-10 0 -17.5 5.5t-7.5 14.5q0 6 2 9l35 88q4 8 12 27t12 26q11 18 23 24q8 2 14 2q8 0 14 -9q14 -22 25 -68l13 -48q9 -36 13 -48q1 -3 1 -9q0 -9 -7 -15t-16 -6q-10 0 -12 7zM125 -4.5q-19 10.5 -31 30.5q-24 42 -31 95
q-7 46 -7 110q-3 108 -3 264l-1 77q-1 6 -1 20q-2 38 -2 46q9 21 21 21t21.5 -18t9.5 -39v-272q0 -40 7 -106q7 -82 7 -106q0 -74 63 -74q72 0 72 538v56v9q-1 3 -1 8q0 12 5.5 17.5t21.5 5.5q13 0 20.5 -7.5t9.5 -17.5q1 -6 1 -23q0 -16 -3 -51q-4 -29 -4 -50q0 -23 -2 -41
l-2 -42v-8q1 -4 1 -9q0 -444 -129 -444q-24 0 -43 10.5z" />
    <glyph glyph-name="udieresis" unicode="&#xfc;" horiz-adv-x="361" 
d="M125 -4.5q-19 10.5 -31 30.5q-24 42 -31 95q-7 46 -7 110q-3 108 -3 264l-1 77q-1 6 -1 20q-2 38 -2 46q9 21 21 21t21.5 -18t9.5 -39v-272q0 -40 7 -106q7 -82 7 -106q0 -74 63 -74q72 0 72 538v56v9q-1 3 -1 8q0 12 5.5 17.5t21.5 5.5q13 0 20.5 -7.5t9.5 -17.5
q1 -6 1 -23q0 -16 -3 -51q-4 -29 -4 -50q0 -23 -2 -41l-2 -42v-8q1 -4 1 -9q0 -444 -129 -444q-24 0 -43 10.5zM59.5 749q-10.5 11 -10.5 25q0 15 11.5 26.5t26.5 11.5q14 0 24.5 -11.5t10.5 -25.5q0 -16 -11 -26.5t-28 -10.5q-13 0 -23.5 11zM220.5 744q-10.5 11 -10.5 25
q0 15 11.5 26.5t26.5 11.5q14 0 25 -11.5t11 -25.5q0 -16 -11.5 -26.5t-28.5 -10.5q-13 0 -23.5 11z" />
    <glyph glyph-name="yacute" unicode="&#xfd;" horiz-adv-x="283" 
d="M115 8q11 21 11 170q0 35 -5 76l-3 29q-3 27 -3 41v26q-10 25 -36.5 93t-42.5 114q-19 53 -19 72v5l23 17q17 -2 36 -44q16 -37 35.5 -106t19.5 -73q4 11 16 75t27 113q17 49 35 49q10 0 17.5 -6t7.5 -15q0 -51 -28 -144q-30 -101 -30 -146v-301q0 -67 -33 -67
q-17 0 -28 22zM122 697.5q-5 3.5 -5 9.5q0 5 5 10l16 14q5 5 56 49l59 51q4 2 9 2q12 0 22 -12t10 -25q0 -12 -7 -16q-36 -28 -146 -84q-2 -2 -8 -2t-11 3.5z" />
    <glyph glyph-name="thorn" unicode="&#xfe;" horiz-adv-x="284" 
d="M76.5 4.5q-6.5 9.5 -6.5 23.5q0 72 -5 274q-5 203 -5 273l-1 151q0 30 24 30q37 0 37 -82q0 -26 -1 -43q-2 -17 -2 -29q40 -6 70.5 -36t44.5 -72q13 -42 13 -81q0 -62 -33 -109.5t-92 -73.5q0 -38 4 -95q3 -66 3 -99q0 -41 -33 -41q-11 0 -17.5 9.5zM174.5 335
q18.5 30 18.5 69q0 34 -2.5 52t-11.5 35q-9 15 -20 25.5t-41 34.5h-3l1 -136q1 -61 1 -136q39 26 57.5 56z" />
    <glyph glyph-name="ydieresis" unicode="&#xff;" horiz-adv-x="283" 
d="M115 8q11 21 11 170q0 35 -5 76l-3 29q-3 27 -3 41v26q-10 25 -36.5 93t-42.5 114q-19 53 -19 72v5l23 17q17 -2 36 -44q16 -37 35.5 -106t19.5 -73q4 11 16 75t27 113q17 49 35 49q10 0 17.5 -6t7.5 -15q0 -51 -28 -144q-30 -101 -30 -146v-301q0 -67 -33 -67
q-17 0 -28 22zM35.5 729q-10.5 11 -10.5 25q0 15 11.5 26.5t26.5 11.5q14 0 24.5 -11.5t10.5 -25.5q0 -16 -11 -26.5t-28 -10.5q-13 0 -23.5 11zM196.5 724q-10.5 11 -10.5 25q0 15 11.5 26.5t26.5 11.5q14 0 25 -11.5t11 -25.5q0 -16 -11.5 -26.5t-28.5 -10.5
q-13 0 -23.5 11z" />
    <glyph glyph-name="Amacron" unicode="&#x100;" horiz-adv-x="350" 
d="M234.5 6q-7.5 6 -7.5 20v131q-13 9 -49 16t-68 9q-11 -21 -16 -51l-4 -20q-1 -7 -6 -31t-11 -41.5t-12 -27.5q-38 0 -44 20q11 16 25 94l33 183q22 130 40.5 222t39.5 154q23 69 44 69t32 -8q0 -40 19 -193q20 -150 20 -205q0 -53 11 -152q10 -101 10 -161q0 -34 -33 -34
q-16 0 -23.5 6zM226 218q-3 44 -10 109q-23 226 -23 277v8q-10 -10 -27.5 -90.5t-32.5 -172.5t-16 -122q42 -12 89 -12q8 0 20 3zM54 834q0 10 6.5 16t16.5 6h147l30 2q14 1 31 1q48 0 48 -29q0 -11 -7.5 -17t-20.5 -6q-34 0 -105 -3l-106 -2q-40 0 -40 32z" />
    <glyph glyph-name="amacron" unicode="&#x101;" horiz-adv-x="299" 
d="M224 -2q-11 7 -11 26q0 30 -10 102l-4 21l-99 15q-6 -23 -17 -93q-6 -49 -19 -65q-7 -9 -20 -9q-12 0 -22 7.5t-10 18.5l2 5l1 4q66 257 100 507q0 4 1 13.5t2 27.5q3 37 6.5 59t11.5 33h34q14 0 24 -6.5t10 -18.5q0 -76 21 -226q20 -154 20 -216q0 -6 5 -31q5 -23 5 -30
t10 -60q9 -48 9 -62v-1q0 -22 -16 -28q-23 0 -34 7zM189 220q0 90 -16 230l-10 104q-43 -235 -59 -355q15 -10 88 -16q-3 15 -3 37zM34 746q0 10 6.5 16t16.5 6h147l30 2q14 1 31 1q48 0 48 -29q0 -11 -7.5 -17t-20.5 -6q-34 0 -105 -3l-106 -2q-40 0 -40 32z" />
    <glyph glyph-name="Abreve" unicode="&#x102;" horiz-adv-x="350" 
d="M177.5 801.5q-17.5 10.5 -26.5 29.5q-18 35 -18 79q0 6 5.5 10.5t13.5 4.5q11 0 20 -13t14 -31t13 -31t16 -13q16 0 25 15t9 31q0 20 6 29t22 9q11 0 19 -7.5t8 -17.5q0 -13 -2 -25q-8 -36 -29 -58t-55 -22q-23 0 -40.5 10.5zM234.5 6q-7.5 6 -7.5 20v131q-13 9 -49 16
t-68 9q-11 -21 -16 -51l-4 -20q-1 -7 -6 -31t-11 -41.5t-12 -27.5q-38 0 -44 20q11 16 25 94l33 183q22 130 40.5 222t39.5 154q23 69 44 69t32 -8q0 -40 19 -193q20 -150 20 -205q0 -53 11 -152q10 -101 10 -161q0 -34 -33 -34q-16 0 -23.5 6zM226 218q-3 44 -10 109
q-23 226 -23 277v8q-10 -10 -27.5 -90.5t-32.5 -172.5t-16 -122q42 -12 89 -12q8 0 20 3z" />
    <glyph glyph-name="abreve" unicode="&#x103;" horiz-adv-x="299" 
d="M132.5 732.5q-17.5 10.5 -26.5 29.5q-18 35 -18 79q0 6 5.5 10.5t13.5 4.5q11 0 20 -13t14 -31t13 -31t16 -13q16 0 25 15t9 31q0 20 6 29t22 9q11 0 19 -7.5t8 -17.5q0 -13 -2 -25q-8 -36 -29 -58t-55 -22q-23 0 -40.5 10.5zM224 -2q-11 7 -11 26q0 30 -10 102l-4 21
l-99 15q-6 -23 -17 -93q-6 -49 -19 -65q-7 -9 -20 -9q-12 0 -22 7.5t-10 18.5l2 5l1 4q66 257 100 507q0 4 1 13.5t2 27.5q3 37 6.5 59t11.5 33h34q14 0 24 -6.5t10 -18.5q0 -76 21 -226q20 -154 20 -216q0 -6 5 -31q5 -23 5 -30t10 -60q9 -48 9 -62v-1q0 -22 -16 -28
q-23 0 -34 7zM189 220q0 90 -16 230l-10 104q-43 -235 -59 -355q15 -10 88 -16q-3 15 -3 37z" />
    <glyph glyph-name="Aogonek" unicode="&#x104;" horiz-adv-x="350" 
d="M158 -160.5q-14 18.5 -14 41.5q0 37 25 69.5t65 55.5h41q-87 -67 -87 -118q0 -25 18 -25q15 0 37 16l11 -29q-7 -10 -24.5 -19.5t-31.5 -9.5q-26 0 -40 18.5zM234.5 6q-7.5 6 -7.5 20v131q-13 9 -49 16t-68 9q-11 -21 -16 -51l-4 -20q-1 -7 -6 -31t-11 -41.5t-12 -27.5
q-38 0 -44 20q11 16 25 94l33 183q22 130 40.5 222t39.5 154q23 69 44 69t32 -8q0 -40 19 -193q20 -150 20 -205q0 -53 11 -152q10 -101 10 -161q0 -34 -33 -34q-16 0 -23.5 6zM226 218q-3 44 -10 109q-23 226 -23 277v8q-10 -10 -27.5 -90.5t-32.5 -172.5t-16 -122
q42 -12 89 -12q8 0 20 3z" />
    <glyph glyph-name="aogonek" unicode="&#x105;" horiz-adv-x="299" 
d="M152 -160.5q-14 18.5 -14 41.5q0 37 25 69.5t65 55.5h41q-87 -67 -87 -118q0 -25 18 -25q15 0 37 16l11 -29q-7 -10 -24.5 -19.5t-31.5 -9.5q-26 0 -40 18.5zM224 -2q-11 7 -11 26q0 30 -10 102l-4 21l-99 15q-6 -23 -17 -93q-6 -49 -19 -65q-7 -9 -20 -9q-12 0 -22 7.5
t-10 18.5l2 5l1 4q66 257 100 507q0 4 1 13.5t2 27.5q3 37 6.5 59t11.5 33h34q14 0 24 -6.5t10 -18.5q0 -76 21 -226q20 -154 20 -216q0 -6 5 -31q5 -23 5 -30t10 -60q9 -48 9 -62v-1q0 -22 -16 -28q-23 0 -34 7zM189 220q0 90 -16 230l-10 104q-43 -235 -59 -355
q15 -10 88 -16q-3 15 -3 37z" />
    <glyph glyph-name="Cacute" unicode="&#x106;" horiz-adv-x="337" 
d="M146.5 -3q-23.5 13 -40.5 35q-15 21 -27 53.5t-18 67.5q-12 59 -16 155q-1 23 -1 79v63q1 27 1 56q0 59 7 93q-3 15 -3 31q0 60 45 97t114 37q26 0 48 -14t22 -35q0 -10 -8 -16t-20 -6q-10 0 -21.5 3t-14.5 9h-13v2q-37 0 -62 -16q-18 -13 -28 -43q-4 -11 -6 -28t-2 -31
q-1 -8 -1 -32l2 -35l1 -34q0 -15 -4 -35q-5 -25 -5 -35v-24q0 -39 3 -107q1 -57 13 -114q9 -53 34 -90q24 -38 65 -38q17 0 42 18q27 18 38 18q14 0 29 -15q0 -37 -28 -57q-26 -18 -62 -23q-20 -2 -32 -2q-28 0 -51.5 13zM145 778.5q-5 3.5 -5 9.5q0 5 5 10l16 14q5 5 56 49
l59 51q4 2 9 2q12 0 22 -12t10 -25q0 -12 -7 -16q-36 -28 -146 -84q-2 -2 -8 -2t-11 3.5z" />
    <glyph glyph-name="cacute" unicode="&#x107;" horiz-adv-x="279" 
d="M148.5 -7.5q-24.5 6.5 -37.5 14.5q-67 43 -67 235v27v31v24q0 40 1 71.5t4 68.5q3 39 9 63.5t20 55.5q12 29 29.5 45t45.5 27q25 11 62 11q15 0 23 -7t8 -18q0 -10 -6.5 -18t-15.5 -9h-47q-20 0 -35 -25t-21 -65q-13 -74 -13 -120v-5l-2 -96q-2 -43 -2 -97q0 -38 3 -62
q5 -36 17 -60q12 -27 41 -39q15 -6 33 -6q11 0 22 8q13 0 21.5 -5.5t8.5 -16.5q0 -39 -55 -39q-22 0 -46.5 6.5zM120 697.5q-5 3.5 -5 9.5q0 5 5 10l16 14q5 5 56 49l59 51q4 2 9 2q12 0 22 -12t10 -25q0 -12 -7 -16q-36 -28 -146 -84q-2 -2 -8 -2t-11 3.5z" />
    <glyph glyph-name="Ccircumflex" unicode="&#x108;" horiz-adv-x="337" 
d="M240 781l-39 135l-51 -128q-3 -7 -14 -7q-10 0 -17.5 5.5t-7.5 14.5q0 6 2 9l35 88q4 8 12 27t12 26q11 18 23 24q8 2 14 2q8 0 14 -9q14 -22 25 -68l13 -48q9 -36 13 -48q1 -3 1 -9q0 -9 -7 -15t-16 -6q-10 0 -12 7zM146.5 -3q-23.5 13 -40.5 35q-15 21 -27 53.5
t-18 67.5q-12 59 -16 155q-1 23 -1 79v63q1 27 1 56q0 59 7 93q-3 15 -3 31q0 60 45 97t114 37q26 0 48 -14t22 -35q0 -10 -8 -16t-20 -6q-10 0 -21.5 3t-14.5 9h-13v2q-37 0 -62 -16q-18 -13 -28 -43q-4 -11 -6 -28t-2 -31q-1 -8 -1 -32l2 -35l1 -34q0 -15 -4 -35
q-5 -25 -5 -35v-24q0 -39 3 -107q1 -57 13 -114q9 -53 34 -90q24 -38 65 -38q17 0 42 18q27 18 38 18q14 0 29 -15q0 -37 -28 -57q-26 -18 -62 -23q-20 -2 -32 -2q-28 0 -51.5 13z" />
    <glyph glyph-name="ccircumflex" unicode="&#x109;" horiz-adv-x="279" 
d="M187 666l-39 135l-51 -128q-3 -7 -14 -7q-10 0 -17.5 5.5t-7.5 14.5q0 6 2 9l35 88q4 8 12 27t12 26q11 18 23 24q8 2 14 2q8 0 14 -9q14 -22 25 -68l13 -48q9 -36 13 -48q1 -3 1 -9q0 -9 -7 -15t-16 -6q-10 0 -12 7zM148.5 -7.5q-24.5 6.5 -37.5 14.5q-67 43 -67 235v27
v31v24q0 40 1 71.5t4 68.5q3 39 9 63.5t20 55.5q12 29 29.5 45t45.5 27q25 11 62 11q15 0 23 -7t8 -18q0 -10 -6.5 -18t-15.5 -9h-47q-20 0 -35 -25t-21 -65q-13 -74 -13 -120v-5l-2 -96q-2 -43 -2 -97q0 -38 3 -62q5 -36 17 -60q12 -27 41 -39q15 -6 33 -6q11 0 22 8
q13 0 21.5 -5.5t8.5 -16.5q0 -39 -55 -39q-22 0 -46.5 6.5z" />
    <glyph glyph-name="Cdotaccent" unicode="&#x10a;" horiz-adv-x="337" 
d="M143 810q-10 11 -10 25q0 15 11 26.5t26 11.5q14 0 25 -11.5t11 -25.5q0 -16 -11.5 -26.5t-28.5 -10.5q-13 0 -23 11zM146.5 -3q-23.5 13 -40.5 35q-15 21 -27 53.5t-18 67.5q-12 59 -16 155q-1 23 -1 79v63q1 27 1 56q0 59 7 93q-3 15 -3 31q0 60 45 97t114 37
q26 0 48 -14t22 -35q0 -10 -8 -16t-20 -6q-10 0 -21.5 3t-14.5 9h-13v2q-37 0 -62 -16q-18 -13 -28 -43q-4 -11 -6 -28t-2 -31q-1 -8 -1 -32l2 -35l1 -34q0 -15 -4 -35q-5 -25 -5 -35v-24q0 -39 3 -107q1 -57 13 -114q9 -53 34 -90q24 -38 65 -38q17 0 42 18q27 18 38 18
q14 0 29 -15q0 -37 -28 -57q-26 -18 -62 -23q-20 -2 -32 -2q-28 0 -51.5 13z" />
    <glyph glyph-name="cdotaccent" unicode="&#x10b;" horiz-adv-x="279" 
d="M113.5 716q-10.5 11 -10.5 25q0 15 11.5 26.5t26.5 11.5q14 0 24.5 -11.5t10.5 -26.5q0 -16 -11 -26t-28 -10q-13 0 -23.5 11zM148.5 -7.5q-24.5 6.5 -37.5 14.5q-67 43 -67 235v27v31v24q0 40 1 71.5t4 68.5q3 39 9 63.5t20 55.5q12 29 29.5 45t45.5 27q25 11 62 11
q15 0 23 -7t8 -18q0 -10 -6.5 -18t-15.5 -9h-47q-20 0 -35 -25t-21 -65q-13 -74 -13 -120v-5l-2 -96q-2 -43 -2 -97q0 -38 3 -62q5 -36 17 -60q12 -27 41 -39q15 -6 33 -6q11 0 22 8q13 0 21.5 -5.5t8.5 -16.5q0 -39 -55 -39q-22 0 -46.5 6.5z" />
    <glyph glyph-name="Ccaron" unicode="&#x10c;" horiz-adv-x="337" 
d="M150 821.5q-22 38.5 -39.5 85.5t-17.5 65q0 8 7.5 14t16.5 6q11 0 25 -29q10 -23 25 -74l13 -46q3 24 4 33t4 33.5t8 44.5q8 41 28 41q9 0 15 -6t6 -15q0 -3 -4 -8l-4 -7v-18l-14 -55q-14 -58 -14 -71q0 -32 -25 -32q-12 0 -34 38.5zM146.5 -3q-23.5 13 -40.5 35
q-15 21 -27 53.5t-18 67.5q-12 59 -16 155q-1 23 -1 79v63q1 27 1 56q0 59 7 93q-3 15 -3 31q0 60 45 97t114 37q26 0 48 -14t22 -35q0 -10 -8 -16t-20 -6q-10 0 -21.5 3t-14.5 9h-13v2q-37 0 -62 -16q-18 -13 -28 -43q-4 -11 -6 -28t-2 -31q-1 -8 -1 -32l2 -35l1 -34
q0 -15 -4 -35q-5 -25 -5 -35v-24q0 -39 3 -107q1 -57 13 -114q9 -53 34 -90q24 -38 65 -38q17 0 42 18q27 18 38 18q14 0 29 -15q0 -37 -28 -57q-26 -18 -62 -23q-20 -2 -32 -2q-28 0 -51.5 13z" />
    <glyph glyph-name="ccaron" unicode="&#x10d;" horiz-adv-x="279" 
d="M121 725.5q-22 38.5 -39.5 85.5t-17.5 65q0 8 7.5 14t16.5 6q11 0 25 -29q10 -23 25 -74l13 -46q3 24 4 33t4 33.5t8 44.5q8 41 28 41q9 0 15 -6t6 -15q0 -3 -4 -8l-4 -7v-18l-14 -55q-14 -58 -14 -71q0 -32 -25 -32q-12 0 -34 38.5zM148.5 -7.5q-24.5 6.5 -37.5 14.5
q-67 43 -67 235v27v31v24q0 40 1 71.5t4 68.5q3 39 9 63.5t20 55.5q12 29 29.5 45t45.5 27q25 11 62 11q15 0 23 -7t8 -18q0 -10 -6.5 -18t-15.5 -9h-47q-20 0 -35 -25t-21 -65q-13 -74 -13 -120v-5l-2 -96q-2 -43 -2 -97q0 -38 3 -62q5 -36 17 -60q12 -27 41 -39
q15 -6 33 -6q11 0 22 8q13 0 21.5 -5.5t8.5 -16.5q0 -39 -55 -39q-22 0 -46.5 6.5z" />
    <glyph glyph-name="Dcaron" unicode="&#x10e;" horiz-adv-x="379" 
d="M142 821.5q-22 38.5 -39.5 85.5t-17.5 65q0 8 7.5 14t16.5 6q11 0 25 -29q10 -23 25 -74l13 -46q3 24 4 33t4 33.5t8 44.5q8 41 28 41q9 0 15 -6t6 -15q0 -3 -4 -8l-4 -7v-18l-14 -55q-14 -58 -14 -71q0 -32 -25 -32q-12 0 -34 38.5zM76.5 7q-14.5 9 -14.5 25
q22 22 22 117q0 57 -9 166q-10 104 -10 164l2 55q1 24 1 55q0 28 -10 71q-12 45 -12 63q0 35 77 35h15q54 0 94 -33q32 -28 54 -81q15 -36 26 -100q6 -56 6 -88v-32v-47q-2 -4 -2 -8q0 -8 1 -12t1 -10q0 -32 -9.5 -76.5t-27.5 -90.5q-45 -110 -101 -156q-33 -26 -69 -26
q-20 0 -34.5 9zM197 122.5q28 43.5 43 96.5q27 98 27 198q0 54 -10 118q-11 62 -47 112q-17 24 -43 37.5t-59 13.5v-1q0 -90 12 -272q12 -181 12 -274v-95q37 23 65 66.5z" />
    <glyph glyph-name="dcaron" unicode="&#x10f;" horiz-adv-x="346" 
d="M101 725.5q-22 38.5 -39.5 85.5t-17.5 65q0 8 7.5 14t16.5 6q11 0 25 -29q10 -23 25 -74l13 -46q3 24 4 33t4 33.5t8 44.5q8 41 28 41q9 0 15 -6t6 -15q0 -3 -4 -8l-4 -7v-18l-14 -55q-14 -58 -14 -71q0 -32 -25 -32q-12 0 -34 38.5zM67 125l2 158q1 70 1 157q0 32 -6 99
q-5 73 -5 89q0 13 11 23t24 10q35 0 67.5 -15.5t57.5 -43.5q53 -61 70 -134q9 -37 9 -73q0 -13 -1 -24l-1 -27v-55q0 -64 -4 -101q-6 -50 -23 -89q-20 -42 -58 -75q-18 -15 -46 -30h-72q-26 0 -26 131zM174 55.5q17 10.5 29 28.5q10 16 18.5 40.5t12.5 47.5q9 45 11 92
q1 12 1 35q0 302 -117 315q-7 -45 -7 -104q0 -63 8 -220q7 -139 7 -221v-24q20 0 37 10.5z" />
    <glyph glyph-name="Dcroat" unicode="&#x110;" horiz-adv-x="421" 
d="M336 456v-32v-47q-2 -4 -2 -8q0 -8 1 -12t1 -10q0 -32 -9.5 -76.5t-27.5 -90.5q-45 -110 -101 -156q-33 -26 -69 -26q-20 0 -34.5 9t-14.5 25q22 22 22 117q0 57 -9 166q-2 16 -4 48l-13 -1q-34 -2 -42 -2q-13 0 -23 8.5t-10 20.5t24 21q20 8 60 13q-2 44 -2 56l2 55
q1 24 1 55q0 28 -10 71q-12 45 -12 63q0 35 77 35h15q28 0 52.5 -9t41.5 -24q32 -28 54 -81q15 -36 26 -100q6 -56 6 -88zM285 417q0 54 -10 118q-11 60 -46 112q-17 24 -43.5 37.5t-59.5 13.5v-1q0 -90 12 -269h5q34 2 41 2q13 0 23 -8.5t10 -20.5t-23 -21q-19 -7 -52 -12
q8 -149 8 -217v-95q37 23 65 66.5t43 96.5q27 98 27 198z" />
    <glyph glyph-name="dcroat" unicode="&#x111;" horiz-adv-x="421" 
d="M105 125l2 204q-66 3 -66 16q0 22 44 22q25 0 25 33q0 11 -1 20l-1 20q0 24 -5 99q-6 66 -6 89q0 13 11 23t24 10q35 0 67.5 -15.5t57.5 -43.5q52 -59 70 -134q9 -37 9 -73q0 -13 -1 -24l-1 -27v-55q0 -64 -4 -101q-6 -50 -23 -89q-20 -42 -57 -75q-20 -16 -47 -30h-72
q-26 0 -26 131zM212 55.5q17 10.5 29 28.5q10 16 18.5 40.5t12.5 47.5q9 45 11 92q1 12 1 35q0 302 -117 315q-7 -45 -7 -104l2 -93l2 -48q68 -2 68 -27q0 -12 -32 -12h-13q-6 -1 -11 -1t-10 -1q9 -192 9 -259v-24q20 0 37 10.5z" />
    <glyph glyph-name="Emacron" unicode="&#x112;" horiz-adv-x="278" 
d="M84 -1q-17 5 -17 28v581q0 17 -6 51q-7 31 -7 51v3q17 28 25 36q14 0 37 4q21 4 37 4t31 -9.5t15 -22.5q0 -30 -46 -30h-14q-6 1 -14 1q-9 0 -11 -1q0 -34 4 -82l2 -28l2 -55q0 -19 -3 -58l-2 -56l14 3q20 6 33 6q11 0 20 -8.5t9 -19.5q0 -12 -7.5 -21.5t-18.5 -9.5
l-12 1h-13q-15 0 -21 -7v-309l56 3q57 0 57 -26v-4q-6 -12 -22 -19.5t-31 -9.5l-33 -1h-31q-19 0 -33 5zM-20 848q0 10 6.5 16t16.5 6h147l30 2q14 1 31 1q48 0 48 -29q0 -11 -7.5 -17t-20.5 -6q-34 0 -105 -3l-106 -2q-40 0 -40 32z" />
    <glyph glyph-name="emacron" unicode="&#x113;" horiz-adv-x="284" 
d="M83.5 -4q-10.5 9 -11.5 22v26v20q-1 9 -1 21q0 21 -3 64l-2 64q0 49 3 146q4 87 4 146q0 14 -3 42q-3 29 -3 42q0 71 42 71q33 0 76.5 -13t43.5 -31q0 -10 -8.5 -18.5t-20.5 -13.5q-42 15 -76 20q1 -15 1 -43q0 -40 -1 -72q-3 -48 -3 -72l3 -16l16 1q8 1 20 1
q48 0 48 -28q0 -11 -9 -18.5t-23 -7.5q-18 0 -28 2h-25q2 -26 2 -76t-1 -90q-3 -61 -3 -91q0 -56 2 -56l33 1q17 1 41 1q38 0 38 -24q0 -14 -12.5 -21.5t-30.5 -7.5h-85q-13 0 -23.5 9zM-8 726q0 10 6.5 16t16.5 6h147l30 2q14 1 31 1q48 0 48 -29q0 -11 -7.5 -17t-20.5 -6
q-34 0 -105 -3l-106 -2q-40 0 -40 32z" />
    <glyph glyph-name="Ebreve" unicode="&#x114;" horiz-adv-x="278" 
d="M103.5 815.5q-17.5 10.5 -26.5 29.5q-18 35 -18 79q0 6 5.5 10.5t13.5 4.5q11 0 20 -13t14 -31t13 -31t16 -13q16 0 25 15t9 31q0 20 6 29t22 9q11 0 19 -7.5t8 -17.5q0 -13 -2 -25q-8 -36 -29 -58t-55 -22q-23 0 -40.5 10.5zM84 -1q-17 5 -17 28v581q0 17 -6 51
q-7 31 -7 51v3q17 28 25 36q14 0 37 4q21 4 37 4t31 -9.5t15 -22.5q0 -30 -46 -30h-14q-6 1 -14 1q-9 0 -11 -1q0 -34 4 -82l2 -28l2 -55q0 -19 -3 -58l-2 -56l14 3q20 6 33 6q11 0 20 -8.5t9 -19.5q0 -12 -7.5 -21.5t-18.5 -9.5l-12 1h-13q-15 0 -21 -7v-309l56 3
q57 0 57 -26v-4q-6 -12 -22 -19.5t-31 -9.5l-33 -1h-31q-19 0 -33 5z" />
    <glyph glyph-name="ebreve" unicode="&#x115;" horiz-adv-x="284" 
d="M90.5 712.5q-17.5 10.5 -26.5 29.5q-18 35 -18 79q0 6 5.5 10.5t13.5 4.5q11 0 20 -13t14 -31t13 -31t16 -13q16 0 25 15t9 31q0 20 6 29t22 9q11 0 19 -7.5t8 -17.5q0 -13 -2 -25q-8 -36 -29 -58t-55 -22q-23 0 -40.5 10.5zM83.5 -4q-10.5 9 -11.5 22v26v20q-1 9 -1 21
q0 21 -3 64l-2 64q0 49 3 146q4 87 4 146q0 14 -3 42q-3 29 -3 42q0 71 42 71q33 0 76.5 -13t43.5 -31q0 -10 -8.5 -18.5t-20.5 -13.5q-42 15 -76 20q1 -15 1 -43q0 -40 -1 -72q-3 -48 -3 -72l3 -16l16 1q8 1 20 1q48 0 48 -28q0 -11 -9 -18.5t-23 -7.5q-18 0 -28 2h-25
q2 -26 2 -76t-1 -90q-3 -61 -3 -91q0 -56 2 -56l33 1q17 1 41 1q38 0 38 -24q0 -14 -12.5 -21.5t-30.5 -7.5h-85q-13 0 -23.5 9z" />
    <glyph glyph-name="Edotaccent" unicode="&#x116;" horiz-adv-x="278" 
d="M94 824q-10 11 -10 25q0 15 11 26.5t26 11.5q14 0 25 -11.5t11 -25.5q0 -16 -11.5 -26.5t-28.5 -10.5q-13 0 -23 11zM84 -1q-17 5 -17 28v581q0 17 -6 51q-7 31 -7 51v3q17 28 25 36q14 0 37 4q21 4 37 4t31 -9.5t15 -22.5q0 -30 -46 -30h-14q-6 1 -14 1q-9 0 -11 -1
q0 -34 4 -82l2 -28l2 -55q0 -19 -3 -58l-2 -56l14 3q20 6 33 6q11 0 20 -8.5t9 -19.5q0 -12 -7.5 -21.5t-18.5 -9.5l-12 1h-13q-15 0 -21 -7v-309l56 3q57 0 57 -26v-4q-6 -12 -22 -19.5t-31 -9.5l-33 -1h-31q-19 0 -33 5z" />
    <glyph glyph-name="edotaccent" unicode="&#x117;" horiz-adv-x="284" 
d="M105.5 716q-10.5 11 -10.5 25q0 15 11.5 26.5t26.5 11.5q14 0 24.5 -11.5t10.5 -26.5q0 -16 -11 -26t-28 -10q-13 0 -23.5 11zM83.5 -4q-10.5 9 -11.5 22v26v20q-1 9 -1 21q0 21 -3 64l-2 64q0 49 3 146q4 87 4 146q0 14 -3 42q-3 29 -3 42q0 71 42 71q33 0 76.5 -13
t43.5 -31q0 -10 -8.5 -18.5t-20.5 -13.5q-42 15 -76 20q1 -15 1 -43q0 -40 -1 -72q-3 -48 -3 -72l3 -16l16 1q8 1 20 1q48 0 48 -28q0 -11 -9 -18.5t-23 -7.5q-18 0 -28 2h-25q2 -26 2 -76t-1 -90q-3 -61 -3 -91q0 -56 2 -56l33 1q17 1 41 1q38 0 38 -24q0 -14 -12.5 -21.5
t-30.5 -7.5h-85q-13 0 -23.5 9z" />
    <glyph glyph-name="Eogonek" unicode="&#x118;" horiz-adv-x="278" 
d="M133 -160.5q-14 18.5 -14 41.5q0 37 25 69.5t65 55.5h41q-87 -67 -87 -118q0 -25 18 -25q15 0 37 16l11 -29q-7 -10 -24.5 -19.5t-31.5 -9.5q-26 0 -40 18.5zM84 -1q-17 5 -17 28v581q0 17 -6 51q-7 31 -7 51v3q17 28 25 36q14 0 37 4q21 4 37 4t31 -9.5t15 -22.5
q0 -30 -46 -30h-14q-6 1 -14 1q-9 0 -11 -1q0 -34 4 -82l2 -28l2 -55q0 -19 -3 -58l-2 -56l14 3q20 6 33 6q11 0 20 -8.5t9 -19.5q0 -12 -7.5 -21.5t-18.5 -9.5l-12 1h-13q-15 0 -21 -7v-309l56 3q57 0 57 -26v-4q-6 -12 -22 -19.5t-31 -9.5l-33 -1h-31q-19 0 -33 5z" />
    <glyph glyph-name="eogonek" unicode="&#x119;" horiz-adv-x="284" 
d="M138 -160.5q-14 18.5 -14 41.5q0 37 25 69.5t65 55.5h41q-87 -67 -87 -118q0 -25 18 -25q15 0 37 16l11 -29q-7 -10 -24.5 -19.5t-31.5 -9.5q-26 0 -40 18.5zM83.5 -4q-10.5 9 -11.5 22v26v20q-1 9 -1 21q0 21 -3 64l-2 64q0 49 3 146q4 87 4 146q0 14 -3 42q-3 29 -3 42
q0 71 42 71q33 0 76.5 -13t43.5 -31q0 -10 -8.5 -18.5t-20.5 -13.5q-42 15 -76 20q1 -15 1 -43q0 -40 -1 -72q-3 -48 -3 -72l3 -16l16 1q8 1 20 1q48 0 48 -28q0 -11 -9 -18.5t-23 -7.5q-18 0 -28 2h-25q2 -26 2 -76t-1 -90q-3 -61 -3 -91q0 -56 2 -56l33 1q17 1 41 1
q38 0 38 -24q0 -14 -12.5 -21.5t-30.5 -7.5h-85q-13 0 -23.5 9z" />
    <glyph glyph-name="Ecaron" unicode="&#x11a;" horiz-adv-x="278" 
d="M101 835.5q-22 38.5 -39.5 85.5t-17.5 65q0 8 7.5 14t16.5 6q11 0 25 -29q10 -23 25 -74l13 -46q3 24 4 33t4 33.5t8 44.5q8 41 28 41q9 0 15 -6t6 -15q0 -3 -4 -8l-4 -7v-18l-14 -55q-14 -58 -14 -71q0 -32 -25 -32q-12 0 -34 38.5zM84 -1q-17 5 -17 28v581q0 17 -6 51
q-7 31 -7 51v3q17 28 25 36q14 0 37 4q21 4 37 4t31 -9.5t15 -22.5q0 -30 -46 -30h-14q-6 1 -14 1q-9 0 -11 -1q0 -34 4 -82l2 -28l2 -55q0 -19 -3 -58l-2 -56l14 3q20 6 33 6q11 0 20 -8.5t9 -19.5q0 -12 -7.5 -21.5t-18.5 -9.5l-12 1h-13q-15 0 -21 -7v-309l56 3
q57 0 57 -26v-4q-6 -12 -22 -19.5t-31 -9.5l-33 -1h-31q-19 0 -33 5z" />
    <glyph glyph-name="ecaron" unicode="&#x11b;" horiz-adv-x="284" 
d="M113 725.5q-22 38.5 -39.5 85.5t-17.5 65q0 8 7.5 14t16.5 6q11 0 25 -29q10 -23 25 -74l13 -46q3 24 4 33t4 33.5t8 44.5q8 41 28 41q9 0 15 -6t6 -15q0 -3 -4 -8l-4 -7v-18l-14 -55q-14 -58 -14 -71q0 -32 -25 -32q-12 0 -34 38.5zM83.5 -4q-10.5 9 -11.5 22v26v20
q-1 9 -1 21q0 21 -3 64l-2 64q0 49 3 146q4 87 4 146q0 14 -3 42q-3 29 -3 42q0 71 42 71q33 0 76.5 -13t43.5 -31q0 -10 -8.5 -18.5t-20.5 -13.5q-42 15 -76 20q1 -15 1 -43q0 -40 -1 -72q-3 -48 -3 -72l3 -16l16 1q8 1 20 1q48 0 48 -28q0 -11 -9 -18.5t-23 -7.5
q-18 0 -28 2h-25q2 -26 2 -76t-1 -90q-3 -61 -3 -91q0 -56 2 -56l33 1q17 1 41 1q38 0 38 -24q0 -14 -12.5 -21.5t-30.5 -7.5h-85q-13 0 -23.5 9z" />
    <glyph glyph-name="Gcircumflex" unicode="&#x11c;" horiz-adv-x="371" 
d="M232 791l-39 135l-51 -128q-3 -7 -14 -7q-10 0 -17.5 5.5t-7.5 14.5q0 6 2 9l35 88q4 8 12 27t12 26q11 18 23 24q8 2 14 2q8 0 14 -9q14 -22 25 -68l13 -48q9 -36 13 -48q1 -3 1 -9q0 -9 -7 -15t-16 -6q-10 0 -12 7zM129 7q-29 24 -53 82q-15 38 -24 107q-7 56 -7 106
q-1 13 -1 45v34v40q0 43 3 103q4 51 16 104q13 52 38 88q25 38 67 54q25 7 47 7q42 0 42 -28q0 -11 -7.5 -17.5t-19.5 -6.5q-4 0 -14 3l-14 2q-19 0 -34 -11.5t-25 -33.5q-23 -48 -31 -105q-11 -70 -12 -122q-2 -45 -2 -95v-27q-1 -14 -1 -35q0 -51 5 -100q4 -58 22 -100
q16 -47 52 -66q17 -10 42 -10q44 0 74 42q-1 35 -5 68.5t-12 45.5q-1 0 -4.5 -0.5l-10.5 -1.5l-24 -2q-34 0 -34 29q0 9 10 16t27 10q28 7 50 7q20 0 31 -15t11 -38q0 -33 10 -90q10 -56 10 -89q0 -11 -7 -19t-17 -8q-25 0 -34 21v1l-22 -11q-30 -17 -51 -17q-55 0 -91 33z
" />
    <glyph glyph-name="gcircumflex" unicode="&#x11d;" horiz-adv-x="346" 
d="M220 666l-39 135l-51 -128q-3 -7 -14 -7q-10 0 -17.5 5.5t-7.5 14.5q0 6 2 9l35 88q4 8 12 27t12 26q11 18 23 24q8 2 14 2q8 0 14 -9q14 -22 25 -68l13 -48q9 -36 13 -48q1 -3 1 -9q0 -9 -7 -15t-16 -6q-10 0 -12 7zM140 2.5q-23 10.5 -39 27.5q-13 14 -24 41t-16 52
q-5 19 -8 55t-4 62v58v40q0 58 2 95q2 45 13 95q9 45 31 79q21 34 59 47q18 7 42 7q43 0 43 -25q0 -12 -9.5 -19.5t-22.5 -7.5q-6 0 -11 1q-4 1 -10 1q-17 0 -30 -18t-22 -50q-16 -62 -22 -135q-4 -68 -4 -101q0 -34 3 -93q4 -55 17 -96q7 -24 16.5 -38.5t24.5 -24.5
q17 -11 35 -11q48 0 48 160v46q-7 3 -23 3h-9h-11q-35 0 -35 23q0 14 9.5 21.5t24.5 7.5v-1h14q90 0 90 -31q0 -9 -5 -36q-6 -24 -6 -36q0 -17 3 -53l2 -53q0 -48 -33.5 -75.5t-81.5 -27.5q-28 0 -51 10.5z" />
    <glyph glyph-name="Gbreve" unicode="&#x11e;" horiz-adv-x="371" 
d="M144.5 811.5q-17.5 10.5 -26.5 29.5q-18 35 -18 79q0 6 5.5 10.5t13.5 4.5q11 0 20 -13t14 -31t13 -31t16 -13q16 0 25 15t9 31q0 20 6 29t22 9q11 0 19 -7.5t8 -17.5q0 -13 -2 -25q-8 -36 -29 -58t-55 -22q-23 0 -40.5 10.5zM129 7q-29 24 -53 82q-15 38 -24 107
q-7 56 -7 106q-1 13 -1 45v34v40q0 43 3 103q4 51 16 104q13 52 38 88q25 38 67 54q25 7 47 7q42 0 42 -28q0 -11 -7.5 -17.5t-19.5 -6.5q-4 0 -14 3l-14 2q-19 0 -34 -11.5t-25 -33.5q-23 -48 -31 -105q-11 -70 -12 -122q-2 -45 -2 -95v-27q-1 -14 -1 -35q0 -51 5 -100
q4 -58 22 -100q16 -47 52 -66q17 -10 42 -10q44 0 74 42q-1 35 -5 68.5t-12 45.5q-1 0 -4.5 -0.5l-10.5 -1.5l-24 -2q-34 0 -34 29q0 9 10 16t27 10q28 7 50 7q20 0 31 -15t11 -38q0 -33 10 -90q10 -56 10 -89q0 -11 -7 -19t-17 -8q-25 0 -34 21v1l-22 -11q-30 -17 -51 -17
q-55 0 -91 33z" />
    <glyph glyph-name="gbreve" unicode="&#x11f;" horiz-adv-x="346" 
d="M131.5 712.5q-17.5 10.5 -26.5 29.5q-18 35 -18 79q0 6 5.5 10.5t13.5 4.5q11 0 20 -13t14 -31t13 -31t16 -13q16 0 25 15t9 31q0 20 6 29t22 9q11 0 19 -7.5t8 -17.5q0 -13 -2 -25q-8 -36 -29 -58t-55 -22q-23 0 -40.5 10.5zM140 2.5q-23 10.5 -39 27.5q-13 14 -24 41
t-16 52q-5 19 -8 55t-4 62v58v40q0 58 2 95q2 45 13 95q9 45 31 79q21 34 59 47q18 7 42 7q43 0 43 -25q0 -12 -9.5 -19.5t-22.5 -7.5q-6 0 -11 1q-4 1 -10 1q-17 0 -30 -18t-22 -50q-16 -62 -22 -135q-4 -68 -4 -101q0 -34 3 -93q4 -55 17 -96q7 -24 16.5 -38.5t24.5 -24.5
q17 -11 35 -11q48 0 48 160v46q-7 3 -23 3h-9h-11q-35 0 -35 23q0 14 9.5 21.5t24.5 7.5v-1h14q90 0 90 -31q0 -9 -5 -36q-6 -24 -6 -36q0 -17 3 -53l2 -53q0 -48 -33.5 -75.5t-81.5 -27.5q-28 0 -51 10.5z" />
    <glyph glyph-name="Gdotaccent" unicode="&#x120;" horiz-adv-x="371" 
d="M135 820q-10 11 -10 25q0 15 11 26.5t26 11.5q14 0 25 -11.5t11 -25.5q0 -16 -11.5 -26.5t-28.5 -10.5q-13 0 -23 11zM129 7q-29 24 -53 82q-15 38 -24 107q-7 56 -7 106q-1 13 -1 45v34v40q0 43 3 103q4 51 16 104q13 52 38 88q25 38 67 54q25 7 47 7q42 0 42 -28
q0 -11 -7.5 -17.5t-19.5 -6.5q-4 0 -14 3l-14 2q-19 0 -34 -11.5t-25 -33.5q-23 -48 -31 -105q-11 -70 -12 -122q-2 -45 -2 -95v-27q-1 -14 -1 -35q0 -51 5 -100q4 -58 22 -100q16 -47 52 -66q17 -10 42 -10q44 0 74 42q-1 35 -5 68.5t-12 45.5q-1 0 -4.5 -0.5l-10.5 -1.5
l-24 -2q-34 0 -34 29q0 9 10 16t27 10q28 7 50 7q20 0 31 -15t11 -38q0 -33 10 -90q10 -56 10 -89q0 -11 -7 -19t-17 -8q-25 0 -34 21v1l-22 -11q-30 -17 -51 -17q-55 0 -91 33z" />
    <glyph glyph-name="gdotaccent" unicode="&#x121;" horiz-adv-x="346" 
d="M146.5 716q-10.5 11 -10.5 25q0 15 11.5 26.5t26.5 11.5q14 0 24.5 -11.5t10.5 -26.5q0 -16 -11 -26t-28 -10q-13 0 -23.5 11zM140 2.5q-23 10.5 -39 27.5q-13 14 -24 41t-16 52q-5 19 -8 55t-4 62v58v40q0 58 2 95q2 45 13 95q9 45 31 79q21 34 59 47q18 7 42 7
q43 0 43 -25q0 -12 -9.5 -19.5t-22.5 -7.5q-6 0 -11 1q-4 1 -10 1q-17 0 -30 -18t-22 -50q-16 -62 -22 -135q-4 -68 -4 -101q0 -34 3 -93q4 -55 17 -96q7 -24 16.5 -38.5t24.5 -24.5q17 -11 35 -11q48 0 48 160v46q-7 3 -23 3h-9h-11q-35 0 -35 23q0 14 9.5 21.5t24.5 7.5
v-1h14q90 0 90 -31q0 -9 -5 -36q-6 -24 -6 -36q0 -17 3 -53l2 -53q0 -48 -33.5 -75.5t-81.5 -27.5q-28 0 -51 10.5z" />
    <glyph glyph-name="Gcommaaccent" unicode="&#x122;" horiz-adv-x="371" 
d="M128 -257q0 7 32.5 70.5t56.5 101.5q1 2 5 2q7 0 15 -7t8 -15q0 -20 -18 -53t-42.5 -63.5t-40.5 -41.5q-4 -2 -6 -2h-2q-8 0 -8 8zM129 7q-29 24 -53 82q-15 38 -24 107q-7 56 -7 106q-1 13 -1 45v34v40q0 43 3 103q4 51 16 104q13 52 38 88q25 38 67 54q25 7 47 7
q42 0 42 -28q0 -11 -7.5 -17.5t-19.5 -6.5q-4 0 -14 3l-14 2q-19 0 -34 -11.5t-25 -33.5q-23 -48 -31 -105q-11 -70 -12 -122q-2 -45 -2 -95v-27q-1 -14 -1 -35q0 -51 5 -100q4 -58 22 -100q16 -47 52 -66q17 -10 42 -10q44 0 74 42q-1 35 -5 68.5t-12 45.5q-1 0 -4.5 -0.5
l-10.5 -1.5l-24 -2q-34 0 -34 29q0 9 10 16t27 10q28 7 50 7q20 0 31 -15t11 -38q0 -33 10 -90q10 -56 10 -89q0 -11 -7 -19t-17 -8q-25 0 -34 21v1l-22 -11q-30 -17 -51 -17q-55 0 -91 33z" />
    <glyph glyph-name="gcommaaccent" unicode="&#x123;" horiz-adv-x="346" 
d="M142 707q-8 7 -8 15q0 20 18 53t42 63t40 41q5 3 6 3h2q9 0 9 -8q0 -7 -33 -70.5t-57 -101.5q-1 -2 -4 -2q-7 0 -15 7zM140 2.5q-23 10.5 -39 27.5q-13 14 -24 41t-16 52q-5 19 -8 55t-4 62v58v40q0 58 2 95q2 45 13 95q9 45 31 79q21 34 59 47q18 7 42 7q43 0 43 -25
q0 -12 -9.5 -19.5t-22.5 -7.5q-6 0 -11 1q-4 1 -10 1q-17 0 -30 -18t-22 -50q-16 -62 -22 -135q-4 -68 -4 -101q0 -34 3 -93q4 -55 17 -96q7 -24 16.5 -38.5t24.5 -24.5q17 -11 35 -11q48 0 48 160v46q-7 3 -23 3h-9h-11q-35 0 -35 23q0 14 9.5 21.5t24.5 7.5v-1h14
q90 0 90 -31q0 -9 -5 -36q-6 -24 -6 -36q0 -17 3 -53l2 -53q0 -48 -33.5 -75.5t-81.5 -27.5q-28 0 -51 10.5z" />
    <glyph glyph-name="Hcircumflex" unicode="&#x124;" horiz-adv-x="330" 
d="M217 781l-39 135l-51 -128q-3 -7 -14 -7q-10 0 -17.5 5.5t-7.5 14.5q0 6 2 9l35 88q4 8 12 27t12 26q11 18 23 24q8 2 14 2q8 0 14 -9q14 -22 25 -68l13 -48q9 -36 13 -48q1 -3 1 -9q0 -9 -7 -15t-16 -6q-10 0 -12 7zM215.5 -5.5q-6.5 9.5 -6.5 23.5q0 209 -8 353
q-24 4 -34 4q-41 0 -59 -7q0 -56 9 -169q8 -120 8 -170q0 -10 -6 -18.5t-15 -8.5q-13 0 -24 46q-16 68 -26 285q-7 147 -7 316q-1 31 -1 88q0 18 17 18q10 0 20.5 -5t15.5 -11q-4 -32 -4 -75q0 -42 4 -102q3 -69 3 -104v-18q-1 -8 -1 -19q0 -10 2 -26q6 0 20 1t28 3
q33 3 49 3q0 87 -2 161l-2 167v27q13 0 23 -4.5t15 -11.5q9 -11 11 -38v-23q0 -86 10 -329q9 -220 9 -330q0 -14 -8.5 -25t-20.5 -11q-13 0 -19.5 9.5z" />
    <glyph glyph-name="hcircumflex" unicode="&#x125;" horiz-adv-x="331" 
d="M212 690l-39 135l-51 -128q-3 -7 -14 -7q-10 0 -17.5 5.5t-7.5 14.5q0 6 2 9l35 88q4 8 12 27t12 26q11 18 23 24q8 2 14 2q8 0 14 -9q14 -22 25 -68l13 -48q9 -36 13 -48q1 -3 1 -9q0 -9 -7 -15t-16 -6q-10 0 -12 7zM203 165l1 57l1 46v3v10q1 8 1 19q0 2 -3 5t-3 5v1
q-5 -2 -18 -2t-32 4q-6 1 -32 5v-115q0 -26 3 -82q3 -55 3 -82q0 -15 -8 -26t-21 -11q-19 0 -27 37q-8 38 -8 99l2 81q1 34 1 72v17v14q0 16 -1 21v5l3 58q0 38 -3 113t-3 113q0 12 8 21t20 9q32 0 32 -60l-2 -124q-2 -56 -2 -125q15 -5 54 -5h37q2 6 2 12q0 48 -6 142
q-7 88 -7 143q0 11 8.5 18.5t20.5 7.5q7 0 20 -5l9 -4q0 -142 10 -379l9 -253q0 -14 -10.5 -22t-24.5 -8q-34 0 -34 165z" />
    <glyph glyph-name="Hbar" unicode="&#x126;" horiz-adv-x="330" 
d="M285.5 603q6.5 -9 3.5 -19h-27q1 -123 8 -328q6 -184 6 -231q5 -8 5 -15q0 -12 -8 -22.5t-18 -10.5t-15.5 7.5t-5.5 21.5v12q1 5 1 11q0 128 -10 335l-19 2l-18 3q-44 0 -63 -10q0 -69 8 -168q9 -120 9 -173q0 -10 -5 -16t-13 -6q-19 0 -22 15q-6 12 -7 72q-2 54 -2 83
l-1 41q0 59 -2 85q-9 130 -16 290h6q-18 0 -28 7t-10 17q0 5 6 6.5t26 2.5q-2 41 -2 137l24 13l20 -17q-5 -43 -5 -77q0 -13 2 -55q11 1 54 1l53 1q-3 83 -3 124q0 11 3 21q14 2 23.5 -6.5t13.5 -25.5q5 -21 5 -56v-59q17 -4 23.5 -13zM226 408q0 38 -5 176l-106 -2
q5 -92 5 -114q0 -11 -1 -21v-19q0 -10 2 -28l52 4q33 4 53 4z" />
    <glyph glyph-name="hbar" unicode="&#x127;" horiz-adv-x="331" 
d="M270 499q-4 -2 -14 -4q1 -30 5 -169l2 -43l9 -253q0 -14 -10.5 -22t-24.5 -8q-34 0 -34 165l1 57l1 46v3v10q1 8 1 19q0 2 -3 5t-3 5v1q-5 -2 -18 -2t-32 4q-6 1 -32 5v-115q0 -26 3 -82q3 -55 3 -82q0 -15 -8 -26t-21 -11q-19 0 -27 37q-8 38 -8 99l2 81q1 34 1 72v17
v14q0 16 -1 21v5l3 58l-2 73h-7q-13 0 -23 5.5t-10 13.5q0 7 5.5 11t11 5.5t7.5 2.5l15 3q-3 75 -3 112q0 12 8 21t20 9q32 0 32 -60q0 -44 -1 -76l82 5q-5 61 -5 114q0 11 8.5 18.5t20.5 7.5q7 0 20 -5l9 -4q0 -25 2 -105v-23h5q11 0 22 -6t11 -8q0 -13 -23 -21zM203 486
q-49 -4 -86 -5v-3q-2 -56 -2 -125q15 -5 54 -5h37q2 6 2 12q0 34 -5 126z" />
    <glyph glyph-name="Itilde" unicode="&#x128;" horiz-adv-x="257" 
d="M104 794.5q-18 6.5 -25 15.5t-17 15t-22 6q-7 -3 -10 -8t-1 -11v-2q0 -13 -15 -18q-16 0 -26 7.5t-10 21.5q0 25 20 41.5t53 16.5q11 0 43 -20t41 -20t14.5 6t6.5 14q2 8 7.5 14t14.5 6q16 0 24.5 -7.5t8.5 -18.5q0 -26 -19 -45.5t-45 -19.5q-25 0 -43 6.5zM37 31
q0 24 30 24h12q4 -1 9 -1q8 0 11.5 5t3.5 18q0 85 -10 232q-9 153 -9 231q0 28 1 51l1 51q0 33 -3 55q-11 -4 -23 -4q-23 0 -23 24q0 12 14.5 21t37.5 13q42 7 71 7q12 0 20.5 -8t8.5 -19t-6.5 -19t-16.5 -8q-6 0 -10 1h-8q-10 0 -14.5 -4.5t-4.5 -16.5q0 -106 13 -292
q12 -195 12 -293v-38q7 1 20 1q42 0 42 -35v-6l-25 -17q-1 0 -6 -0.5t-20 -0.5q-34 -2 -42 -2q-86 0 -86 30z" />
    <glyph glyph-name="itilde" unicode="&#x129;" horiz-adv-x="226" 
d="M112 720.5q-18 6.5 -25 15.5t-17 15t-22 6q-7 -3 -10 -8t-1 -11v-2q0 -13 -15 -18q-16 0 -26 7.5t-10 21.5q0 25 20 41.5t53 16.5q11 0 43 -20t41 -20t14.5 6t6.5 14q2 8 7.5 14t14.5 6q16 0 24.5 -7.5t8.5 -18.5q0 -26 -19 -45.5t-45 -19.5q-25 0 -43 6.5zM24 31
q0 24 31 24h11l10 -1q8 0 11 5t3 18q0 17 -2 53q-3 24 -7 86q-9 153 -9 231q0 28 1 51l1 51q0 33 -3 55q-16 -4 -23 -4q-24 0 -24 24q0 12 15 21t38 13q40 8 71 8q12 0 20.5 -8.5t8.5 -19.5t-6.5 -19t-16.5 -8q-6 0 -10 1h-8q-10 0 -14.5 -4.5t-4.5 -16.5q0 -97 12 -292
q2 -36 8 -106q5 -46 5 -94v-38q6 1 20 1q42 0 42 -35v-6l-25 -17q-1 0 -6.5 -0.5t-20.5 -0.5q-32 -2 -41 -2q-87 0 -87 30z" />
    <glyph glyph-name="Imacron" unicode="&#x12a;" horiz-adv-x="257" 
d="M37 31q0 24 30 24h12q4 -1 9 -1q8 0 11.5 5t3.5 18q0 85 -10 232q-9 153 -9 231q0 28 1 51l1 51q0 33 -3 55q-11 -4 -23 -4q-23 0 -23 24q0 12 14.5 21t37.5 13q42 7 71 7q12 0 20.5 -8t8.5 -19t-6.5 -19t-16.5 -8q-6 0 -10 1h-8q-10 0 -14.5 -4.5t-4.5 -16.5
q0 -106 13 -292q12 -195 12 -293v-38q7 1 20 1q42 0 42 -35v-6l-25 -17q-1 0 -6 -0.5t-20 -0.5q-34 -2 -42 -2q-86 0 -86 30zM-45 844q0 10 6.5 16t16.5 6h147l30 2q14 1 31 1q48 0 48 -29q0 -11 -7.5 -17t-20.5 -6q-34 0 -105 -3l-106 -2q-40 0 -40 32z" />
    <glyph glyph-name="imacron" unicode="&#x12b;" horiz-adv-x="226" 
d="M24 31q0 24 31 24h11l10 -1q8 0 11 5t3 18q0 17 -2 53q-3 24 -7 86q-9 153 -9 231q0 28 1 51l1 51q0 33 -3 55q-16 -4 -23 -4q-24 0 -24 24q0 12 15 21t38 13q40 8 71 8q12 0 20.5 -8.5t8.5 -19.5t-6.5 -19t-16.5 -8q-6 0 -10 1h-8q-10 0 -14.5 -4.5t-4.5 -16.5
q0 -97 12 -292q2 -36 8 -106q5 -46 5 -94v-38q6 1 20 1q42 0 42 -35v-6l-25 -17q-1 0 -6.5 -0.5t-20.5 -0.5q-32 -2 -41 -2q-87 0 -87 30zM-37 743q0 10 6.5 16t16.5 6h147l30 2q14 1 31 1q48 0 48 -29q0 -11 -7.5 -17t-20.5 -6q-34 0 -105 -3l-106 -2q-40 0 -40 32z" />
    <glyph glyph-name="Ibreve" unicode="&#x12c;" horiz-adv-x="257" 
d="M78.5 811.5q-17.5 10.5 -26.5 29.5q-18 35 -18 79q0 6 5.5 10.5t13.5 4.5q11 0 20 -13t14 -31t13 -31t16 -13q16 0 25 15t9 31q0 20 6 29t22 9q11 0 19 -7.5t8 -17.5q0 -13 -2 -25q-8 -36 -29 -58t-55 -22q-23 0 -40.5 10.5zM37 31q0 24 30 24h12q4 -1 9 -1q8 0 11.5 5
t3.5 18q0 85 -10 232q-9 153 -9 231q0 28 1 51l1 51q0 33 -3 55q-11 -4 -23 -4q-23 0 -23 24q0 12 14.5 21t37.5 13q42 7 71 7q12 0 20.5 -8t8.5 -19t-6.5 -19t-16.5 -8q-6 0 -10 1h-8q-10 0 -14.5 -4.5t-4.5 -16.5q0 -106 13 -292q12 -195 12 -293v-38q7 1 20 1
q42 0 42 -35v-6l-25 -17q-1 0 -6 -0.5t-20 -0.5q-34 -2 -42 -2q-86 0 -86 30z" />
    <glyph glyph-name="ibreve" unicode="&#x12d;" horiz-adv-x="226" 
d="M61.5 729.5q-17.5 10.5 -26.5 29.5q-18 35 -18 79q0 6 5.5 10.5t13.5 4.5q11 0 20 -13t14 -31t13 -31t16 -13q16 0 25 15t9 31q0 20 6 29t22 9q11 0 19 -7.5t8 -17.5q0 -13 -2 -25q-8 -36 -29 -58t-55 -22q-23 0 -40.5 10.5zM24 31q0 24 31 24h11l10 -1q8 0 11 5t3 18
q0 17 -2 53q-3 24 -7 86q-9 153 -9 231q0 28 1 51l1 51q0 33 -3 55q-16 -4 -23 -4q-24 0 -24 24q0 12 15 21t38 13q40 8 71 8q12 0 20.5 -8.5t8.5 -19.5t-6.5 -19t-16.5 -8q-6 0 -10 1h-8q-10 0 -14.5 -4.5t-4.5 -16.5q0 -97 12 -292q2 -36 8 -106q5 -46 5 -94v-38q6 1 20 1
q42 0 42 -35v-6l-25 -17q-1 0 -6.5 -0.5t-20.5 -0.5q-32 -2 -41 -2q-87 0 -87 30z" />
    <glyph glyph-name="Iogonek" unicode="&#x12e;" horiz-adv-x="257" 
d="M75 -160.5q-14 18.5 -14 41.5q0 37 25 69.5t65 55.5h41q-87 -67 -87 -118q0 -25 18 -25q15 0 37 16l11 -29q-7 -10 -24.5 -19.5t-31.5 -9.5q-26 0 -40 18.5zM37 31q0 24 30 24h12q4 -1 9 -1q8 0 11.5 5t3.5 18q0 85 -10 232q-9 153 -9 231q0 28 1 51l1 51q0 33 -3 55
q-11 -4 -23 -4q-23 0 -23 24q0 12 14.5 21t37.5 13q42 7 71 7q12 0 20.5 -8t8.5 -19t-6.5 -19t-16.5 -8q-6 0 -10 1h-8q-10 0 -14.5 -4.5t-4.5 -16.5q0 -106 13 -292q12 -195 12 -293v-38q7 1 20 1q42 0 42 -35v-6l-25 -17q-1 0 -6 -0.5t-20 -0.5q-34 -2 -42 -2
q-86 0 -86 30z" />
    <glyph glyph-name="iogonek" unicode="&#x12f;" horiz-adv-x="226" 
d="M152 -144.5q-14 18.5 -14 41.5q0 37 25 69.5t65 55.5h41q-87 -67 -87 -118q0 -25 18 -25q15 0 37 16l11 -29q-7 -10 -24.5 -19.5t-31.5 -9.5q-26 0 -40 18.5zM24 31q0 24 31 24h11l10 -1q8 0 11 5t3 18q0 17 -2 53q-3 24 -7 86q-9 153 -9 231q0 28 1 51l1 51q0 33 -3 55
q-16 -4 -23 -4q-24 0 -24 24q0 12 15 21t38 13q40 8 71 8q12 0 20.5 -8.5t8.5 -19.5t-6.5 -19t-16.5 -8q-6 0 -10 1h-8q-10 0 -14.5 -4.5t-4.5 -16.5q0 -97 12 -292q2 -36 8 -106q5 -46 5 -94v-38q6 1 20 1q42 0 42 -35v-6l-25 -17q-1 0 -6.5 -0.5t-20.5 -0.5q-32 -2 -41 -2
q-87 0 -87 30z" />
    <glyph glyph-name="Idotaccent" unicode="&#x130;" horiz-adv-x="257" 
d="M69 820q-10 11 -10 25q0 15 11 26.5t26 11.5q14 0 25 -11.5t11 -25.5q0 -16 -11.5 -26.5t-28.5 -10.5q-13 0 -23 11zM37 31q0 24 30 24h12q4 -1 9 -1q8 0 11.5 5t3.5 18q0 85 -10 232q-9 153 -9 231q0 28 1 51l1 51q0 33 -3 55q-11 -4 -23 -4q-23 0 -23 24q0 12 14.5 21
t37.5 13q42 7 71 7q12 0 20.5 -8t8.5 -19t-6.5 -19t-16.5 -8q-6 0 -10 1h-8q-10 0 -14.5 -4.5t-4.5 -16.5q0 -106 13 -292q12 -195 12 -293v-38q7 1 20 1q42 0 42 -35v-6l-25 -17q-1 0 -6 -0.5t-20 -0.5q-34 -2 -42 -2q-86 0 -86 30z" />
    <glyph glyph-name="dotlessi" unicode="&#x131;" horiz-adv-x="226" 
d="M24 31q0 24 31 24h11l10 -1q8 0 11 5t3 18q0 17 -2 53q-3 24 -7 86q-9 153 -9 231q0 28 1 51l1 51q0 33 -3 55q-16 -4 -23 -4q-24 0 -24 24q0 12 15 21t38 13q40 8 71 8q12 0 20.5 -8.5t8.5 -19.5t-6.5 -19t-16.5 -8q-6 0 -10 1h-8q-10 0 -14.5 -4.5t-4.5 -16.5
q0 -97 12 -292q2 -36 8 -106q5 -46 5 -94v-38q6 1 20 1q42 0 42 -35v-6l-25 -17q-1 0 -6.5 -0.5t-20.5 -0.5q-32 -2 -41 -2q-87 0 -87 30z" />
    <glyph glyph-name="IJ" unicode="&#x132;" horiz-adv-x="525" 
d="M37 31q0 24 30 24h12q4 -1 9 -1q8 0 11.5 5t3.5 18q0 85 -10 232q-9 153 -9 231q0 28 1 51l1 51q0 33 -3 55q-11 -4 -23 -4q-23 0 -23 24q0 12 14.5 21t37.5 13q42 7 71 7q12 0 20.5 -8t8.5 -19t-6.5 -19t-16.5 -8q-6 0 -10 1h-8q-10 0 -14.5 -4.5t-4.5 -16.5
q0 -106 13 -292q12 -195 12 -293v-38q7 1 20 1q42 0 42 -35v-6l-25 -17q-1 0 -6 -0.5t-20 -0.5q-34 -2 -42 -2q-86 0 -86 30zM302 -87q-10 8 -10 23q0 11 12 23t27 18q15 19 27.5 59t12.5 82l1 49q1 21 1 48l-1 41l-5 101q-7 198 -22 349q-3 -2 -13 -3q-16 -5 -30 -5
q-10 0 -17.5 7.5t-7.5 17.5q0 35 119 35h13q14 0 22 -1.5t15 -7.5q8 -6 8 -18q0 -26 -42 -26h-0.5t-0.5 1h-2h-13v-8q0 -26 6 -77q5 -58 5 -78q0 -71 10 -194q8 -116 8 -195v-40v-40q0 -60 -25.5 -106.5t-71.5 -62.5q-16 0 -26 8z" />
    <glyph glyph-name="ij" unicode="&#x133;" horiz-adv-x="480" 
d="M24 31q0 24 31 24h11l10 -1q8 0 11 5t3 18q0 17 -2 53q-3 24 -7 86q-9 153 -9 231q0 28 1 51l1 51q0 33 -3 55q-16 -4 -23 -4q-24 0 -24 24q0 12 15 21t38 13q40 8 71 8q12 0 20.5 -8.5t8.5 -19.5t-6.5 -19t-16.5 -8q-6 0 -10 1h-8q-10 0 -14.5 -4.5t-4.5 -16.5
q0 -97 12 -292q2 -36 8 -106q5 -46 5 -94v-38q6 1 20 1q42 0 42 -35v-6l-25 -17q-1 0 -6.5 -0.5t-20.5 -0.5q-32 -2 -41 -2q-87 0 -87 30zM224 -82v8q1 4 1 9q0 4 14 10q48 15 65 33q28 31 28 113q0 66 -5 256q-6 167 -6 255v4q-3 0 -9.5 1t-14.5 1q-18 2 -29 5
q-15 4 -21 10q-2 4 -2 8q0 9 10.5 16t21.5 7q50 0 114 -7t64 -16q0 -10 -7.5 -16.5t-19.5 -6.5h-51q0 -53 5 -211q5 -117 5 -210v-107q0 -35 -5 -59q-7 -37 -28 -64q-22 -31 -66 -44q-22 -7 -53 -7q-11 0 -11 12z" />
    <glyph glyph-name="Jcircumflex" unicode="&#x134;" horiz-adv-x="268" 
d="M175 781l-39 135l-51 -128q-3 -7 -14 -7q-10 0 -17.5 5.5t-7.5 14.5q0 6 2 9l35 88q4 8 12 27t12 26q11 18 23 24q8 2 14 2q8 0 14 -9q14 -22 25 -68l13 -48q9 -36 13 -48q1 -3 1 -9q0 -9 -7 -15t-16 -6q-10 0 -12 7zM45 -87q-10 8 -10 23q0 11 12 23t27 18
q15 19 27.5 59t12.5 82l1 49q1 21 1 48l-1 41l-5 101q-7 198 -22 349q-3 -2 -13 -3q-16 -5 -30 -5q-10 0 -17.5 7.5t-7.5 17.5q0 35 119 35h13q14 0 22 -1.5t15 -7.5q8 -6 8 -18q0 -26 -42 -26h-0.5t-0.5 1h-2h-13v-8q0 -26 6 -77q5 -58 5 -78q0 -71 10 -194q8 -116 8 -195
v-40v-40q0 -60 -25.5 -106.5t-71.5 -62.5q-16 0 -26 8z" />
    <glyph glyph-name="jcircumflex" unicode="&#x135;" horiz-adv-x="254" 
d="M168 666l-39 135l-51 -128q-3 -7 -14 -7q-10 0 -17.5 5.5t-7.5 14.5q0 6 2 9l35 88q4 8 12 27t12 26q11 18 23 24q8 2 14 2q8 0 14 -9q14 -22 25 -68l13 -48q9 -36 13 -48q1 -3 1 -9q0 -9 -7 -15t-16 -6q-10 0 -12 7zM-2 -82v8q1 4 1 9q0 4 14 10q48 15 65 33
q28 31 28 113q0 66 -5 256q-6 167 -6 255v4q-3 0 -9.5 1t-14.5 1q-18 2 -29 5q-15 4 -21 10q-2 4 -2 8q0 9 10.5 16t21.5 7q50 0 114 -7t64 -16q0 -10 -7.5 -16.5t-19.5 -6.5h-51q0 -53 5 -211q5 -117 5 -210v-107q0 -35 -5 -59q-7 -37 -28 -64q-22 -31 -66 -44
q-22 -7 -53 -7q-11 0 -11 12z" />
    <glyph glyph-name="Kcommaaccent" unicode="&#x136;" horiz-adv-x="356" 
d="M120 -257q0 7 32.5 70.5t56.5 101.5q1 2 5 2q7 0 15 -7t8 -15q0 -20 -18 -53t-42.5 -63.5t-40.5 -41.5q-4 -2 -6 -2h-2q-8 0 -8 8zM283 -21q-5 1 -11 1q-27 153 -54 256t-68 194l-21 -39q-9 -17 -10 -30q-3 -30 -3 -44q0 -30 3 -92q3 -61 3 -93v-82q0 -53 -34 -53
q-29 0 -29 56q0 44 6 135q7 84 7 134l1 86v104q0 55 -7 115q-7 62 -7 94q0 13 8 22t20 9q37 0 37 -81l-4 -205l19 49q33 84 68 166q20 45 36 71q17 27 27 27q11 0 19.5 -7.5t8.5 -18.5q0 -10 -54 -124q-53 -109 -62 -145v-18q15 -38 80 -243.5t65 -217.5t-9.5 -20t-22.5 -8
q-6 0 -12 2z" />
    <glyph glyph-name="kcommaaccent" unicode="&#x137;" horiz-adv-x="350" 
d="M117 -257q0 7 32.5 70.5t56.5 101.5q1 2 5 2q7 0 15 -7t8 -15q0 -20 -18 -53t-42.5 -63.5t-40.5 -41.5q-4 -2 -6 -2h-2q-8 0 -8 8zM248 33q-39 75 -77 247q-11 47 -18 87q-36 -72 -36 -174v-185q0 -23 -20 -23q-15 0 -24.5 8.5t-9.5 23.5v303q0 44 10 162q10 103 10 162
q8 19 29 19q13 0 22 -9t9 -22v-3q-13 -22 -13 -182v-36l37 73q34 71 64 122q28 50 41 50q16 0 27.5 -7t11.5 -20l-24 -40q-75 -121 -84 -140q0 -17 -1 -30l-1 -30q0 -43 34.5 -160.5t57.5 -155.5l13 -18q19 -26 19 -46q0 -11 -8.5 -18.5t-19.5 -7.5q-23 0 -49 50z" />
    <glyph glyph-name="kgreenlandic" unicode="&#x138;" horiz-adv-x="412" 
d="M269 33q-39 75 -77 247q-11 47 -18 87q-36 -72 -36 -174v-185q0 -23 -21 -23q-15 0 -24 8.5t-9 23.5v303q0 61 10 162q9 108 9 162q10 19 30 19q13 0 22 -9t9 -22v-3q-14 -23 -14 -182v-36q0 1 8.5 17t28.5 56q25 52 64 122q29 50 41 50q16 0 27.5 -7t11.5 -20l-24 -40
q-75 -122 -83 -140l-1 -30q-1 -13 -1 -30q0 -42 34 -159.5t57 -156.5l14 -18q19 -26 19 -46q0 -11 -8.5 -18.5t-20.5 -7.5q-22 0 -48 50z" />
    <glyph glyph-name="Lacute" unicode="&#x139;" horiz-adv-x="250" 
d="M82.5 -1.5q-10.5 9.5 -10.5 22.5q0 9 4 22q3 14 3 21q0 89 -10 342q-10 216 -10 341q0 9 7 14.5t17 5.5q12 0 21 -8.5t9 -20.5q0 -60 6 -180q5 -133 5 -180l1 -12v-12v-7v-5q3 -87 3 -260v-26h77q21 -15 21 -30q0 -11 -7.5 -19.5t-17.5 -8.5q-3 0 -11 2l-4 1
q-6 -1 -19 -1h-17q-7 1 -16 1q-10 -12 -28 -12q-13 0 -23.5 9.5zM58 778.5q-5 3.5 -5 9.5q0 5 5 10l16 14q5 5 56 49l59 51q4 2 9 2q12 0 22 -12t10 -25q0 -12 -7 -16q-36 -28 -146 -84q-2 -2 -8 -2t-11 3.5z" />
    <glyph glyph-name="lacute" unicode="&#x13a;" horiz-adv-x="268" 
d="M126 -4q-16 -10 -34 -10q-12 0 -20.5 10.5t-8.5 22.5q0 84 7 224q6 149 6 223v7q-6 63 -6 94q0 95 35 95q10 0 17.5 -7.5t7.5 -17.5q0 -12 -3 -38q-3 -25 -3 -38q0 -67 1 -121q1 -53 1 -120q-5 -15 -5 -42v-12l-2 -79q-2 -35 -2 -80q0 -69 33 -69q2 0 6.5 0.5t12.5 0.5
q9 1 23 1q54 0 54 -30q0 -10 -9 -17t-22 -9q-36 12 -89 12zM90 687.5q-5 3.5 -5 9.5q0 5 5 10l16 14q5 5 56 49l59 51q4 2 9 2q12 0 22 -12t10 -25q0 -12 -7 -16q-36 -28 -146 -84q-2 -2 -8 -2t-11 3.5z" />
    <glyph glyph-name="Lcommaaccent" unicode="&#x13b;" horiz-adv-x="250" 
d="M67 -257q0 7 32.5 70.5t56.5 101.5q1 2 5 2q7 0 15 -7t8 -15q0 -20 -18 -53t-42.5 -63.5t-40.5 -41.5q-4 -2 -6 -2h-2q-8 0 -8 8zM82.5 -1.5q-10.5 9.5 -10.5 22.5q0 9 4 22q3 14 3 21q0 89 -10 342q-10 216 -10 341q0 9 7 14.5t17 5.5q12 0 21 -8.5t9 -20.5
q0 -60 6 -180q5 -133 5 -180l1 -12v-12v-7v-5q3 -87 3 -260v-26h77q21 -15 21 -30q0 -11 -7.5 -19.5t-17.5 -8.5q-3 0 -11 2l-4 1q-6 -1 -19 -1h-17q-7 1 -16 1q-10 -12 -28 -12q-13 0 -23.5 9.5z" />
    <glyph glyph-name="lcommaaccent" unicode="&#x13c;" horiz-adv-x="268" 
d="M76 -257q0 7 32.5 70.5t56.5 101.5q1 2 5 2q7 0 15 -7t8 -15q0 -20 -18 -53t-42.5 -63.5t-40.5 -41.5q-4 -2 -6 -2h-2q-8 0 -8 8zM126 -4q-16 -10 -34 -10q-12 0 -20.5 10.5t-8.5 22.5q0 84 7 224q6 149 6 223v7q-6 63 -6 94q0 95 35 95q10 0 17.5 -7.5t7.5 -17.5
q0 -12 -3 -38q-3 -25 -3 -38q0 -67 1 -121q1 -53 1 -120q-5 -15 -5 -42v-12l-2 -79q-2 -35 -2 -80q0 -69 33 -69q2 0 6.5 0.5t12.5 0.5q9 1 23 1q54 0 54 -30q0 -10 -9 -17t-22 -9q-36 12 -89 12z" />
    <glyph glyph-name="Lcaron" unicode="&#x13d;" horiz-adv-x="250" 
d="M63 821.5q-22 38.5 -39.5 85.5t-17.5 65q0 8 7.5 14t16.5 6q11 0 25 -29q10 -23 25 -74l13 -46q3 24 4 33t4 33.5t8 44.5q8 41 28 41q9 0 15 -6t6 -15q0 -3 -4 -8l-4 -7v-18l-14 -55q-14 -58 -14 -71q0 -32 -25 -32q-12 0 -34 38.5zM82.5 -1.5q-10.5 9.5 -10.5 22.5
q0 9 4 22q3 14 3 21q0 89 -10 342q-10 216 -10 341q0 9 7 14.5t17 5.5q12 0 21 -8.5t9 -20.5q0 -60 6 -180q5 -133 5 -180l1 -12v-12v-7v-5q3 -87 3 -260v-26h77q21 -15 21 -30q0 -11 -7.5 -19.5t-17.5 -8.5q-3 0 -11 2l-4 1q-6 -1 -19 -1h-17q-7 1 -16 1q-10 -12 -28 -12
q-13 0 -23.5 9.5z" />
    <glyph glyph-name="lcaron" unicode="&#x13e;" horiz-adv-x="268" 
d="M95 725.5q-22 38.5 -39.5 85.5t-17.5 65q0 8 7.5 14t16.5 6q11 0 25 -29q10 -23 25 -74l13 -46q3 24 4 33t4 33.5t8 44.5q8 41 28 41q9 0 15 -6t6 -15q0 -3 -4 -8l-4 -7v-18l-14 -55q-14 -58 -14 -71q0 -32 -25 -32q-12 0 -34 38.5zM126 -4q-16 -10 -34 -10
q-12 0 -20.5 10.5t-8.5 22.5q0 84 7 224q6 149 6 223v7q-6 63 -6 94q0 95 35 95q10 0 17.5 -7.5t7.5 -17.5q0 -12 -3 -38q-3 -25 -3 -38q0 -67 1 -121q1 -53 1 -120q-5 -15 -5 -42v-12l-2 -79q-2 -35 -2 -80q0 -69 33 -69q2 0 6.5 0.5t12.5 0.5q9 1 23 1q54 0 54 -30
q0 -10 -9 -17t-22 -9q-36 12 -89 12z" />
    <glyph glyph-name="Ldot" unicode="&#x13f;" horiz-adv-x="329" 
d="M82.5 -1.5q-10.5 9.5 -10.5 22.5q0 9 4 22q3 14 3 21q0 89 -10 342q-10 216 -10 341q0 9 7 14.5t17 5.5q12 0 21 -8.5t9 -20.5q0 -60 6 -180q5 -133 5 -180l1 -12v-12v-7v-5q3 -87 3 -260v-26h77q21 -15 21 -30q0 -11 -7.5 -19.5t-17.5 -8.5q-3 0 -11 2l-4 1
q-6 -1 -19 -1h-17q-7 1 -16 1q-10 -12 -28 -12q-13 0 -23.5 9.5zM261 320q-10 11 -10 25q0 15 11 26.5t26 11.5q14 0 25 -11.5t11 -25.5q0 -16 -11.5 -26.5t-28.5 -10.5q-13 0 -23 11z" />
    <glyph glyph-name="ldot" unicode="&#x140;" horiz-adv-x="338" 
d="M126 -4q-16 -10 -34 -10q-12 0 -20.5 10.5t-8.5 22.5q0 84 7 224q6 149 6 223v7q-6 63 -6 94q0 95 35 95q10 0 17.5 -7.5t7.5 -17.5q0 -12 -3 -38q-3 -25 -3 -38q0 -67 1 -121q1 -53 1 -120q-5 -15 -5 -42v-12l-2 -79q-2 -35 -2 -80q0 -69 33 -69q2 0 6.5 0.5t12.5 0.5
q9 1 23 1q54 0 54 -30q0 -10 -9 -17t-22 -9q-36 12 -89 12zM260 320q-10 11 -10 25q0 15 11 26.5t26 11.5q14 0 25 -11.5t11 -25.5q0 -16 -11.5 -26.5t-28.5 -10.5q-13 0 -23 11z" />
    <glyph glyph-name="Lslash" unicode="&#x141;" horiz-adv-x="279" 
d="M201 0q-2 0 -3 0.5t-2 0.5q-6 -1 -19 -1h-16l-16 1l-16 1h-18q-11 0 -19.5 6t-8.5 13q0 12 3 22q3 14 3 21q0 104 -9 311q-17 -7 -25 -7q-13 0 -23 7t-10 17q0 22 56 34q-9 215 -9 321q0 9 7 14.5t17 5.5q12 0 21.5 -8.5t9.5 -20.5q0 -68 4 -160q5 -115 5 -137
q50 22 86 22q8 0 13.5 -7t5.5 -18q0 -34 -104 -49v-1q0 -9 1 -15v-17v-9v-5q4 -116 4 -260v-26h76q21 -15 21 -30q0 -11 -7.5 -19.5t-17.5 -8.5q-2 0 -10 2z" />
    <glyph glyph-name="lslash" unicode="&#x142;" horiz-adv-x="286" 
d="M142 -4q-16 -10 -35 -10q-11 0 -19.5 10.5t-8.5 22.5q0 63 9 298q-33 -15 -53 -15q-5 0 -9 5.5t-4 13.5q0 25 68 38l2 107v7q-6 63 -6 94q0 95 35 95q10 0 17.5 -7.5t7.5 -17.5q0 -12 -3 -38q-4 -23 -4 -38l2 -96l1 -87q42 16 78 16q7 0 12.5 -5t5.5 -13t-9 -16
q-8 -4 -26 -10q-21 -6 -38 -10l-23 -5q-6 -19 -6 -57v-12q0 -44 -2 -79l-2 -80q0 -17 3 -59q0 -10 1 -10q2 0 9 0.5t22 0.5q17 1 41 1q53 0 53 -30q0 -10 -8.5 -17t-21.5 -9q-36 12 -89 12z" />
    <glyph glyph-name="Nacute" unicode="&#x143;" horiz-adv-x="412" 
d="M225 191q-70 241 -121 443v-328q0 -42 8 -143q7 -110 7 -142q0 -9 -11 -15.5t-25 -6.5q-21 0 -21 16l2 29q2 32 2 42q0 53 -6 168q-6 117 -6 142v128q0 31 3 92q4 53 4 92v6q0 50 22 50q13 0 33 -44q33 -72 84 -258q29 -108 68 -278q-1 4 16 -69l1 -5q0 97 2 174l2 174
v296q4 25 32 25q27 0 27 -39v-6q-6 -12 -6 -29q0 -61 -3 -184q-3 -124 -3 -186v-305q0 -16 -8.5 -30.5t-20.5 -14.5q-20 0 -82 206zM182 778.5q-5 3.5 -5 9.5q0 5 5 10l16 14q5 5 56 49l59 51q4 2 9 2q12 0 22 -12t10 -25q0 -12 -7 -16q-36 -28 -146 -84q-2 -2 -8 -2
t-11 3.5z" />
    <glyph glyph-name="nacute" unicode="&#x144;" horiz-adv-x="479" 
d="M316 3.5q-6 6.5 -9 22.5l-6 19v2v3q0 33 -68.5 225t-107.5 284v-503l4 -7q1 -2 4 -7t3 -10q0 -13 -9 -22t-22 -9q-32 0 -32 61l-1 171q-1 77 -1 172q0 32 3 93q3 63 3 93q0 47 36 74v-6q6 2 8 2q23 0 58 -80q28 -64 50.5 -135t59.5 -202l10 -36q23 -81 35 -116
q20 215 20 508v13q-1 6 -1 13q0 30 24 30q14 0 21.5 -11t7.5 -28v-75q-2 -154 -12 -334t-24 -203q-29 -8 -36 -8q-12 0 -18 6.5zM220 697.5q-5 3.5 -5 9.5q0 5 5 10l16 14q5 5 56 49l59 51q4 2 9 2q12 0 22 -12t10 -25q0 -12 -7 -16q-36 -28 -146 -84q-2 -2 -8 -2t-11 3.5z
" />
    <glyph glyph-name="Ncommaaccent" unicode="&#x145;" horiz-adv-x="412" 
d="M148 -257q0 7 32.5 70.5t56.5 101.5q1 2 5 2q7 0 15 -7t8 -15q0 -20 -18 -53t-42.5 -63.5t-40.5 -41.5q-4 -2 -6 -2h-2q-8 0 -8 8zM225 191q-70 241 -121 443v-328q0 -42 8 -143q7 -110 7 -142q0 -9 -11 -15.5t-25 -6.5q-21 0 -21 16l2 29q2 32 2 42q0 53 -6 168
q-6 117 -6 142v128q0 31 3 92q4 53 4 92v6q0 50 22 50q13 0 33 -44q33 -72 84 -258q29 -108 68 -278q-1 4 16 -69l1 -5q0 97 2 174l2 174v296q4 25 32 25q27 0 27 -39v-6q-6 -12 -6 -29q0 -61 -3 -184q-3 -124 -3 -186v-305q0 -16 -8.5 -30.5t-20.5 -14.5q-20 0 -82 206z
" />
    <glyph glyph-name="ncommaaccent" unicode="&#x146;" horiz-adv-x="479" 
d="M182 -257q0 7 32.5 70.5t56.5 101.5q1 2 5 2q7 0 15 -7t8 -15q0 -20 -18 -53t-42.5 -63.5t-40.5 -41.5q-4 -2 -6 -2h-2q-8 0 -8 8zM316 3.5q-6 6.5 -9 22.5l-6 19v2v3q0 33 -68.5 225t-107.5 284v-503l4 -7q1 -2 4 -7t3 -10q0 -13 -9 -22t-22 -9q-32 0 -32 61l-1 171
q-1 77 -1 172q0 32 3 93q3 63 3 93q0 47 36 74v-6q6 2 8 2q23 0 58 -80q28 -64 50.5 -135t59.5 -202l10 -36q23 -81 35 -116q20 215 20 508v13q-1 6 -1 13q0 30 24 30q14 0 21.5 -11t7.5 -28v-75q-2 -154 -12 -334t-24 -203q-29 -8 -36 -8q-12 0 -18 6.5z" />
    <glyph glyph-name="Ncaron" unicode="&#x147;" horiz-adv-x="412" 
d="M187 821.5q-22 38.5 -39.5 85.5t-17.5 65q0 8 7.5 14t16.5 6q11 0 25 -29q10 -23 25 -74l13 -46q3 24 4 33t4 33.5t8 44.5q8 41 28 41q9 0 15 -6t6 -15q0 -3 -4 -8l-4 -7v-18l-14 -55q-14 -58 -14 -71q0 -32 -25 -32q-12 0 -34 38.5zM225 191q-70 241 -121 443v-328
q0 -42 8 -143q7 -110 7 -142q0 -9 -11 -15.5t-25 -6.5q-21 0 -21 16l2 29q2 32 2 42q0 53 -6 168q-6 117 -6 142v128q0 31 3 92q4 53 4 92v6q0 50 22 50q13 0 33 -44q33 -72 84 -258q29 -108 68 -278q-1 4 16 -69l1 -5q0 97 2 174l2 174v296q4 25 32 25q27 0 27 -39v-6
q-6 -12 -6 -29q0 -61 -3 -184q-3 -124 -3 -186v-305q0 -16 -8.5 -30.5t-20.5 -14.5q-20 0 -82 206z" />
    <glyph glyph-name="ncaron" unicode="&#x148;" horiz-adv-x="479" 
d="M221 725.5q-22 38.5 -39.5 85.5t-17.5 65q0 8 7.5 14t16.5 6q11 0 25 -29q10 -23 25 -74l13 -46q3 24 4 33t4 33.5t8 44.5q8 41 28 41q9 0 15 -6t6 -15q0 -3 -4 -8l-4 -7v-18l-14 -55q-14 -58 -14 -71q0 -32 -25 -32q-12 0 -34 38.5zM316 3.5q-6 6.5 -9 22.5l-6 19v2v3
q0 33 -68.5 225t-107.5 284v-503l4 -7q1 -2 4 -7t3 -10q0 -13 -9 -22t-22 -9q-32 0 -32 61l-1 171q-1 77 -1 172q0 32 3 93q3 63 3 93q0 47 36 74v-6q6 2 8 2q23 0 58 -80q28 -64 50.5 -135t59.5 -202l10 -36q23 -81 35 -116q20 215 20 508v13q-1 6 -1 13q0 30 24 30
q14 0 21.5 -11t7.5 -28v-75q-2 -154 -12 -334t-24 -203q-29 -8 -36 -8q-12 0 -18 6.5z" />
    <glyph glyph-name="napostrophe" unicode="&#x149;" horiz-adv-x="479" 
d="M80.5 729.5q-4.5 3.5 -4.5 9.5q0 12 12 22q12 13 20 39.5t13 54.5q3 25 13 42.5t26 17.5q34 0 34 -53q0 -24 -15 -55.5t-39 -56.5q-26 -24 -49 -24q-6 0 -10.5 3.5zM329 3.5q-6 6.5 -9 22.5l-6 19v2v3q0 33 -68 225.5t-107 283.5v-503q0 -1 4 -7q1 -3 3.5 -8t2.5 -9
q0 -13 -9 -22t-21 -9q-33 0 -33 61l-1 171q-1 77 -1 172q0 32 3 93q3 63 3 93q0 47 36 74v-6q6 2 8 2q23 0 58 -80q27 -62 48.5 -130t57.5 -190l15 -53q21 -77 34 -116q20 215 20 508v13q-1 6 -1 13q0 30 25 30q14 0 21 -11t7 -28v-75q-2 -154 -12 -334t-24 -203
q-29 -8 -35 -8q-13 0 -19 6.5z" />
    <glyph glyph-name="Eng" unicode="&#x14a;" horiz-adv-x="465" 
d="M237 -181.5q-10 7.5 -10 22.5q0 13 8.5 23.5t22.5 16.5q19 10 30 17t19 18q9 12 9 29v35v36q-29 63 -80 239t-101 379v-328q0 -55 7 -143q7 -110 7 -142q0 -9 -11 -15.5t-24 -6.5q-22 0 -22 16l2 29q3 24 3 42q0 60 -7 168q-6 117 -6 142v128q0 31 3 92q4 53 4 92v6
q0 50 22 50q13 0 33 -44q33 -72 84 -258q29 -108 68 -278l16 -69l1 -5q0 97 2 174l2 174v296q6 25 33 25q26 0 26 -39v-6l-4 -8q-8 -14 -8 -21v-684v-37q0 -30 -2 -43q-2 -15 -4 -26t-7 -20q-5 -11 -9 -16.5t-14 -14.5q-9 -9 -17 -14l-50 -39q-16 0 -26 7.5z" />
    <glyph glyph-name="eng" unicode="&#x14b;" horiz-adv-x="509" 
d="M249 -242q-10 8 -10 23q0 12 7 18t21 9q17 4 27.5 9.5t19.5 20.5q24 38 24 112q0 13 -2 29q-1 8 -1 21q-21 52 -99 281q-76 227 -97 278v-503q0 -1 4 -7q1 -3 3.5 -8t2.5 -9q0 -13 -9 -22t-21 -9q-33 0 -33 61l-1 171q-1 77 -1 172q0 32 3 93q3 63 3 93q0 47 36 74v-6
q6 2 8 2q23 0 58 -80q27 -62 48.5 -130t57.5 -190l15 -53q21 -77 34 -116q20 215 20 508v13q-1 6 -1 13q0 30 25 30q14 0 21 -11t7 -28v-75v-53q0 -229 -9.5 -384.5t-41 -255t-93.5 -99.5q-16 0 -26 8z" />
    <glyph glyph-name="Omacron" unicode="&#x14c;" horiz-adv-x="355" 
d="M142 -10q-22 18 -38 49q-29 54 -43 148q-10 65 -15 150l-1 53v54q-1 26 -1 63q0 60 5 106q4 48 20 95q16 41 46 58q18 8 36 8q53 0 84 -42q34 -47 45 -105q16 -70 18 -134q4 -71 4 -134v-57q0 -17 -5 -64q-4 -37 -4 -63v-4q-6 -28 -6 -66q0 -28 -12 -58t-34 -51
q-22 -24 -50 -24q-27 0 -49 18zM227 64q12 33 17.5 80.5t9.5 107.5q2 26 2 67l-1 92q-2 54 -12 135q-8 69 -30 122q-10 25 -25 39t-32 14q-25 0 -37 -39q-15 -41 -20 -90q-6 -53 -7 -101l-1 -33q-1 -14 -1 -38v-4q0 -67 14 -165q16 -133 47 -189q20 -35 42 -35q20 0 34 37z
M13 848q0 10 6.5 16t16.5 6h147l30 2q14 1 31 1q48 0 48 -29q0 -11 -7.5 -17t-20.5 -6q-34 0 -105 -3l-106 -2q-40 0 -40 32z" />
    <glyph glyph-name="omacron" unicode="&#x14d;" horiz-adv-x="360" 
d="M130 -2.5q-22 16.5 -36 44.5q-29 61 -36 133q-9 68 -9 131q0 12 1 20v18q0 5 -1 5v18l1 70q1 32 8 102q5 48 23 93q7 20 18 30.5t25 10.5q40 0 72 -14.5t54 -40.5q20 -25 34 -61.5t20 -77.5q6 -42 6 -89v-8q0 -31 1 -56l1 -57q0 -288 -134 -288q-26 0 -48 16.5zM207 37.5
q15 14.5 23 39.5q19 51 23 110q5 51 5 88q0 45 -7 118q-6 77 -6 115v18q-2 38 -25.5 66t-57.5 28t-45 -39q-10 -31 -10 -80q0 -19 1 -32v-27l-2 -46q-2 -21 -2 -46q0 -54 3 -107q4 -75 20 -146q16 -74 47 -74q18 0 33 14.5zM16 731q0 10 6.5 16t16.5 6h147l30 2q14 1 31 1
q48 0 48 -29q0 -11 -7.5 -17t-20.5 -6q-34 0 -105 -3l-106 -2q-40 0 -40 32z" />
    <glyph glyph-name="Obreve" unicode="&#x14e;" horiz-adv-x="355" 
d="M136.5 815.5q-17.5 10.5 -26.5 29.5q-18 35 -18 79q0 6 5.5 10.5t13.5 4.5q11 0 20 -13t14 -31t13 -31t16 -13q16 0 25 15t9 31q0 20 6 29t22 9q11 0 19 -7.5t8 -17.5q0 -13 -2 -25q-8 -36 -29 -58t-55 -22q-23 0 -40.5 10.5zM142 -10q-22 18 -38 49q-29 54 -43 148
q-10 65 -15 150l-1 53v54q-1 26 -1 63q0 60 5 106q4 48 20 95q16 41 46 58q18 8 36 8q53 0 84 -42q34 -47 45 -105q16 -70 18 -134q4 -71 4 -134v-57q0 -17 -5 -64q-4 -37 -4 -63v-4q-6 -28 -6 -66q0 -28 -12 -58t-34 -51q-22 -24 -50 -24q-27 0 -49 18zM227 64
q12 33 17.5 80.5t9.5 107.5q2 26 2 67l-1 92q-2 54 -12 135q-8 69 -30 122q-10 25 -25 39t-32 14q-25 0 -37 -39q-15 -41 -20 -90q-6 -53 -7 -101l-1 -33q-1 -14 -1 -38v-4q0 -67 14 -165q16 -133 47 -189q20 -35 42 -35q20 0 34 37z" />
    <glyph glyph-name="obreve" unicode="&#x14f;" horiz-adv-x="360" 
d="M114.5 717.5q-17.5 10.5 -26.5 29.5q-18 35 -18 79q0 6 5.5 10.5t13.5 4.5q11 0 20 -13t14 -31t13 -31t16 -13q16 0 25 15t9 31q0 20 6 29t22 9q11 0 19 -7.5t8 -17.5q0 -13 -2 -25q-8 -36 -29 -58t-55 -22q-23 0 -40.5 10.5zM130 -2.5q-22 16.5 -36 44.5q-29 61 -36 133
q-9 68 -9 131q0 12 1 20v18q0 5 -1 5v18l1 70q1 32 8 102q5 48 23 93q7 20 18 30.5t25 10.5q40 0 72 -14.5t54 -40.5q20 -25 34 -61.5t20 -77.5q6 -42 6 -89v-8q0 -31 1 -56l1 -57q0 -288 -134 -288q-26 0 -48 16.5zM207 37.5q15 14.5 23 39.5q19 51 23 110q5 51 5 88
q0 45 -7 118q-6 77 -6 115v18q-2 38 -25.5 66t-57.5 28t-45 -39q-10 -31 -10 -80q0 -19 1 -32v-27l-2 -46q-2 -21 -2 -46q0 -54 3 -107q4 -75 20 -146q16 -74 47 -74q18 0 33 14.5z" />
    <glyph glyph-name="Ohungarumlaut" unicode="&#x150;" horiz-adv-x="355" 
d="M83 794q1 14 33 65t70 99q36 44 44 44q9 0 16.5 -5.5t7.5 -12.5q0 -21 -35 -67t-80 -87q-40 -37 -56 -42v6zM209 807q0 12 42 60q47 53 88 92q46 43 57 43q10 0 19 -7t12 -16q-6 -15 -48 -55t-91 -79.5t-69 -50.5q-10 0 -10 13zM142 -10q-22 18 -38 49q-29 54 -43 148
q-10 65 -15 150l-1 53v54q-1 26 -1 63q0 60 5 106q4 48 20 95q16 41 46 58q18 8 36 8q53 0 84 -42q34 -47 45 -105q16 -70 18 -134q4 -71 4 -134v-57q0 -17 -5 -64q-4 -37 -4 -63v-4q-6 -28 -6 -66q0 -28 -12 -58t-34 -51q-22 -24 -50 -24q-27 0 -49 18zM227 64
q12 33 17.5 80.5t9.5 107.5q2 26 2 67l-1 92q-2 54 -12 135q-8 69 -30 122q-10 25 -25 39t-32 14q-25 0 -37 -39q-15 -41 -20 -90q-6 -53 -7 -101l-1 -33q-1 -14 -1 -38v-4q0 -67 14 -165q16 -133 47 -189q20 -35 42 -35q20 0 34 37z" />
    <glyph glyph-name="ohungarumlaut" unicode="&#x151;" horiz-adv-x="360" 
d="M72 690q1 14 33 65t70 99q36 44 44 44q9 0 16.5 -5.5t7.5 -12.5q0 -21 -35 -67t-80 -87q-40 -37 -56 -42v6zM198 703q0 12 42 60q47 53 88 92q46 43 57 43q10 0 19 -7t12 -16q-6 -15 -48 -55t-91 -79.5t-69 -50.5q-10 0 -10 13zM130 -2.5q-22 16.5 -36 44.5
q-29 61 -36 133q-9 68 -9 131q0 12 1 20v18q0 5 -1 5v18l1 70q1 32 8 102q5 48 23 93q7 20 18 30.5t25 10.5q40 0 72 -14.5t54 -40.5q20 -25 34 -61.5t20 -77.5q6 -42 6 -89v-8q0 -31 1 -56l1 -57q0 -288 -134 -288q-26 0 -48 16.5zM207 37.5q15 14.5 23 39.5q19 51 23 110
q5 51 5 88q0 45 -7 118q-6 77 -6 115v18q-2 38 -25.5 66t-57.5 28t-45 -39q-10 -31 -10 -80q0 -19 1 -32v-27l-2 -46q-2 -21 -2 -46q0 -54 3 -107q4 -75 20 -146q16 -74 47 -74q18 0 33 14.5z" />
    <glyph glyph-name="OE" unicode="&#x152;" horiz-adv-x="569" 
d="M357.5 -4q-11.5 7 -11.5 17v3q-37 -12 -53 -12q-71 0 -126 29q-44 24 -74 74q-12 21 -21.5 49.5t-14.5 56.5q-10 50 -12 121q-1 18 -1 61q0 47 2 89q2 51 12 107q5 28 12.5 49.5t20.5 47.5q12 22 27 36.5t36 23.5t47 9q47 0 78.5 -6t56.5 -22l15 21q12 0 22 -2
q15 -3 23 -3h74q8 0 13 1l12 1q23 -14 23 -29q0 -10 -9 -16t-21 -6l-54 2l-52 2q0 -38 7 -101q7 -79 7 -102l-1 -26q-1 -11 -1 -25q0 -12 2 -28l30 -1h5h11h11q22 0 34 -18q0 -31 -28 -31l-24 1q-11 1 -24 1h-14q0 -57 3 -168q4 -99 4 -163q34 3 65 3h16q66 0 66 -30v-3
l-11 -17q-44 0 -79 -1l-79 -2q-13 0 -24.5 7zM335 65q20 7 20 17q0 105 -9 303q-9 170 -11 284q-34 39 -119 39q-26 0 -47.5 -11.5t-35.5 -32.5q-28 -44 -35 -98q-8 -52 -8 -99v-33v-34v-33q8 -17 14 -137q3 -41 14 -79q11 -37 27 -38q23 -27 55 -42.5t67 -15.5q36 0 68 10z
" />
    <glyph glyph-name="oe" unicode="&#x153;" horiz-adv-x="460" 
d="M130 -2.5q-22 16.5 -36 44.5q-29 61 -36 133q-9 68 -9 131q0 12 1 20v18q0 5 -1 5v18q0 42 5 104q5 63 31 126q12 29 33 45t48 16q32 0 59.5 -23.5t40.5 -59.5q0 38 3 56t9 23.5t19 5.5q33 0 76.5 -13t43.5 -31q0 -9 -5.5 -16t-14.5 -7q-16 0 -43 10q-26 8 -41 10v-62
l-3 -60l-1 -68q0 -13 3 -34l22 1q11 1 23 1q39 0 39 -16q0 -10 -6 -17t-16 -7h-64q3 -39 3 -76q0 -50 -2 -90l-2 -91q0 -63 2 -63l32 2l41 1q32 0 32 -25q0 -11 -11 -16.5t-26 -5.5h-84q-14 0 -24.5 9t-10.5 22v44q-8 -38 -30.5 -59.5t-51.5 -21.5q-26 0 -48 16.5zM207 37.5
q15 14.5 23 39.5q19 51 23 110q5 51 5 88q0 45 -7 118q-6 77 -6 115v18q-2 38 -25.5 66t-57.5 28q-37 0 -50 -58q-10 -46 -10 -118l1 -51l1 -43q0 -54 3 -107q4 -75 20 -146q16 -74 47 -74q18 0 33 14.5z" />
    <glyph glyph-name="Racute" unicode="&#x154;" horiz-adv-x="289" 
d="M208 17v3q-3 53 -18 118t-44 157q-22 69 -37 124v-394q0 -16 -5.5 -23.5t-21.5 -7.5q-12 0 -19 7.5t-7 19.5v8l2 294q2 130 2 293v123q0 12 5 16.5t21 4.5q25 0 46 -9.5t36 -26.5q31 -35 40 -84q4 -20 4 -46q0 -15 -2.5 -33t-3.5 -23q-2 -10 -9 -30t-9 -26l-12 -28
l-10 -26q1 -36 12.5 -91t25.5 -102q10 -33 36 -110l29 -88v-2q0 -17 -3 -29q-3 -16 -21 -16q-19 0 -37 27zM141 503l15 86q1 5 1 14q0 29 -11 67q-6 18 -15.5 30.5t-19.5 13.5l-2 -100q-3 -67 -3 -104q0 -35 1 -46q14 14 34 39zM67 778.5q-5 3.5 -5 9.5q0 5 5 10l16 14
q5 5 56 49l59 51q4 2 9 2q12 0 22 -12t10 -25q0 -12 -7 -16q-36 -28 -146 -84q-2 -2 -8 -2t-11 3.5z" />
    <glyph glyph-name="racute" unicode="&#x155;" horiz-adv-x="295" 
d="M196 31q-21 52 -31 107l-7 34q-29 143 -37 163h-12q0 -29 -1 -53v-55q0 -134 19 -209l-11 -27h-28l-13 15l1 67q0 90 -9 273q-8 195 -8 273q0 48 33 48q54 0 88.5 -28t34.5 -78v-70q0 -15 -5 -34.5t-11 -31.5l-19 -36l-16 -30l5 -24l14 -71q14 -77 27 -125t32 -87l6 -12
q10 -20 10 -32q0 -10 -6 -17.5t-16 -7.5q-22 0 -40 48zM150.5 444.5q15.5 49.5 15.5 91.5q0 32 -8 60q-5 16 -16.5 24.5t-28.5 8.5l-2 -5l-2 -9l2 -118q2 -52 2 -113q22 11 37.5 60.5zM127 697.5q-5 3.5 -5 9.5q0 5 5 10l16 14q5 5 56 49l59 51q4 2 9 2q12 0 22 -12t10 -25
q0 -12 -7 -16q-36 -28 -146 -84q-2 -2 -8 -2t-11 3.5z" />
    <glyph glyph-name="Rcommaaccent" unicode="&#x156;" horiz-adv-x="289" 
d="M87 -257q0 7 32.5 70.5t56.5 101.5q1 2 5 2q7 0 15 -7t8 -15q0 -20 -18 -53t-42.5 -63.5t-40.5 -41.5q-4 -2 -6 -2h-2q-8 0 -8 8zM208 17v3q-3 53 -18 118t-44 157q-22 69 -37 124v-394q0 -16 -5.5 -23.5t-21.5 -7.5q-12 0 -19 7.5t-7 19.5v8l2 294q2 130 2 293v123
q0 12 5 16.5t21 4.5q25 0 46 -9.5t36 -26.5q31 -35 40 -84q4 -20 4 -46q0 -15 -2.5 -33t-3.5 -23q-2 -10 -9 -30t-9 -26l-12 -28l-10 -26q1 -36 12.5 -91t25.5 -102q10 -33 36 -110l29 -88v-2q0 -17 -3 -29q-3 -16 -21 -16q-19 0 -37 27zM141 503l15 86q1 5 1 14
q0 29 -11 67q-6 18 -15.5 30.5t-19.5 13.5l-2 -100q-3 -67 -3 -104q0 -35 1 -46q14 14 34 39z" />
    <glyph glyph-name="rcommaaccent" unicode="&#x157;" horiz-adv-x="295" 
d="M89 -257q0 7 32.5 70.5t56.5 101.5q1 2 5 2q7 0 15 -7t8 -15q0 -20 -18 -53t-42.5 -63.5t-40.5 -41.5q-4 -2 -6 -2h-2q-8 0 -8 8zM196 31q-21 52 -31 107l-7 34q-29 143 -37 163h-12q0 -29 -1 -53v-55q0 -134 19 -209l-11 -27h-28l-13 15l1 67q0 90 -9 273q-8 195 -8 273
q0 48 33 48q54 0 88.5 -28t34.5 -78v-70q0 -15 -5 -34.5t-11 -31.5l-19 -36l-16 -30l5 -24l14 -71q14 -77 27 -125t32 -87l6 -12q10 -20 10 -32q0 -10 -6 -17.5t-16 -7.5q-22 0 -40 48zM150.5 444.5q15.5 49.5 15.5 91.5q0 32 -8 60q-5 16 -16.5 24.5t-28.5 8.5l-2 -5l-2 -9
l2 -118q2 -52 2 -113q22 11 37.5 60.5z" />
    <glyph glyph-name="Rcaron" unicode="&#x158;" horiz-adv-x="289" 
d="M72 821.5q-22 38.5 -39.5 85.5t-17.5 65q0 8 7.5 14t16.5 6q11 0 25 -29q10 -23 25 -74l13 -46q3 24 4 33t4 33.5t8 44.5q8 41 28 41q9 0 15 -6t6 -15q0 -3 -4 -8l-4 -7v-18l-14 -55q-14 -58 -14 -71q0 -32 -25 -32q-12 0 -34 38.5zM208 17v3q-3 53 -18 118t-44 157
q-22 69 -37 124v-394q0 -16 -5.5 -23.5t-21.5 -7.5q-12 0 -19 7.5t-7 19.5v8l2 294q2 130 2 293v123q0 12 5 16.5t21 4.5q25 0 46 -9.5t36 -26.5q31 -35 40 -84q4 -20 4 -46q0 -15 -2.5 -33t-3.5 -23q-2 -10 -9 -30t-9 -26l-12 -28l-10 -26q1 -36 12.5 -91t25.5 -102
q10 -33 36 -110l29 -88v-2q0 -17 -3 -29q-3 -16 -21 -16q-19 0 -37 27zM141 503l15 86q1 5 1 14q0 29 -11 67q-6 18 -15.5 30.5t-19.5 13.5l-2 -100q-3 -67 -3 -104q0 -35 1 -46q14 14 34 39z" />
    <glyph glyph-name="rcaron" unicode="&#x159;" horiz-adv-x="295" 
d="M128 725.5q-22 38.5 -39.5 85.5t-17.5 65q0 8 7.5 14t16.5 6q11 0 25 -29q10 -23 25 -74l13 -46q3 24 4 33t4 33.5t8 44.5q8 41 28 41q9 0 15 -6t6 -15q0 -3 -4 -8l-4 -7v-18l-14 -55q-14 -58 -14 -71q0 -32 -25 -32q-12 0 -34 38.5zM196 31q-21 52 -31 107l-7 34
q-29 143 -37 163h-12q0 -29 -1 -53v-55q0 -134 19 -209l-11 -27h-28l-13 15l1 67q0 90 -9 273q-8 195 -8 273q0 48 33 48q54 0 88.5 -28t34.5 -78v-70q0 -15 -5 -34.5t-11 -31.5l-19 -36l-16 -30l5 -24l14 -71q14 -77 27 -125t32 -87l6 -12q10 -20 10 -32q0 -10 -6 -17.5
t-16 -7.5q-22 0 -40 48zM150.5 444.5q15.5 49.5 15.5 91.5q0 32 -8 60q-5 16 -16.5 24.5t-28.5 8.5l-2 -5l-2 -9l2 -118q2 -52 2 -113q22 11 37.5 60.5z" />
    <glyph glyph-name="Sacute" unicode="&#x15a;" horiz-adv-x="307" 
d="M55 -9q-16 9 -16 21t6 19.5t17 7.5q10 0 29 -8q21 -8 26 -8q19 0 34.5 16.5t24.5 43.5q18 50 18 90q0 43 -13.5 90.5t-36.5 92.5l-16 32q-25 50 -38.5 79t-23.5 63q-15 48 -15 93q0 36 12.5 68t37.5 54q25 24 62 24q18 0 35 -10.5t24 -26.5l-17 -21q-26 0 -39 10
q-18 -2 -31.5 -17.5t-20.5 -35.5q-6 -19 -6 -38q0 -38 10.5 -77.5t27.5 -74.5l70 -140q17 -36 27 -81t10 -90q0 -66 -32 -124q-17 -30 -44 -47.5t-60 -17.5q-36 0 -62 13zM120 797.5q-5 3.5 -5 9.5q0 5 5 10l16 14q5 5 56 49l59 51q4 2 9 2q12 0 22 -12t10 -25q0 -12 -7 -16
q-36 -28 -146 -84q-2 -2 -8 -2t-11 3.5z" />
    <glyph glyph-name="sacute" unicode="&#x15b;" horiz-adv-x="247" 
d="M48.5 -1q-12.5 10 -14.5 26l11 17q6 0 19 -4q15 -3 23 -3q18 0 32.5 16t21.5 42q13 48 13 86q0 66 -42 139l-11 19q-19 33 -32 59t-22 56q-12 39 -12 78q0 44 20 92q10 23 28.5 37.5t41.5 14.5q18 0 33.5 -11.5t15.5 -27.5q0 -9 -7 -14t-17 -5q-11 0 -21 6
q-22 -1 -35 -39q-11 -35 -11 -58q0 -29 9 -58.5t23 -53.5l22 -40l35 -66q14 -28 22.5 -65t8.5 -75q0 -61 -28 -116q-14 -28 -39.5 -45t-56.5 -17v-3q-18 3 -30.5 13zM94 707.5q-5 3.5 -5 9.5q0 5 5 10l16 14q5 5 56 49l59 51q4 2 9 2q12 0 22 -12t10 -25q0 -12 -7 -16
q-36 -28 -146 -84q-2 -2 -8 -2t-11 3.5z" />
    <glyph glyph-name="Scircumflex" unicode="&#x15c;" horiz-adv-x="307" 
d="M215 800l-39 135l-51 -128q-3 -7 -14 -7q-10 0 -17.5 5.5t-7.5 14.5q0 6 2 9l35 88q4 8 12 27t12 26q11 18 23 24q8 2 14 2q8 0 14 -9q14 -22 25 -68l13 -48q9 -36 13 -48q1 -3 1 -9q0 -9 -7 -15t-16 -6q-10 0 -12 7zM55 -9q-16 9 -16 21t6 19.5t17 7.5q10 0 29 -8
q21 -8 26 -8q19 0 34.5 16.5t24.5 43.5q18 50 18 90q0 43 -13.5 90.5t-36.5 92.5l-16 32q-25 50 -38.5 79t-23.5 63q-15 48 -15 93q0 36 12.5 68t37.5 54q25 24 62 24q18 0 35 -10.5t24 -26.5l-17 -21q-26 0 -39 10q-18 -2 -31.5 -17.5t-20.5 -35.5q-6 -19 -6 -38
q0 -38 10.5 -77.5t27.5 -74.5l70 -140q17 -36 27 -81t10 -90q0 -66 -32 -124q-17 -30 -44 -47.5t-60 -17.5q-36 0 -62 13z" />
    <glyph glyph-name="scircumflex" unicode="&#x15d;" horiz-adv-x="247" 
d="M161 676l-39 135l-51 -128q-3 -7 -14 -7q-10 0 -17.5 5.5t-7.5 14.5q0 6 2 9l35 88q4 8 12 27t12 26q11 18 23 24q8 2 14 2q8 0 14 -9q14 -22 25 -68l13 -48q9 -36 13 -48q1 -3 1 -9q0 -9 -7 -15t-16 -6q-10 0 -12 7zM48.5 -1q-12.5 10 -14.5 26l11 17q6 0 19 -4
q15 -3 23 -3q18 0 32.5 16t21.5 42q13 48 13 86q0 66 -42 139l-11 19q-19 33 -32 59t-22 56q-12 39 -12 78q0 44 20 92q10 23 28.5 37.5t41.5 14.5q18 0 33.5 -11.5t15.5 -27.5q0 -9 -7 -14t-17 -5q-11 0 -21 6q-22 -1 -35 -39q-11 -35 -11 -58q0 -29 9 -58.5t23 -53.5
l22 -40l35 -66q14 -28 22.5 -65t8.5 -75q0 -61 -28 -116q-14 -28 -39.5 -45t-56.5 -17v-3q-18 3 -30.5 13z" />
    <glyph glyph-name="Scedilla" unicode="&#x15e;" horiz-adv-x="307" 
d="M55 -9q-16 9 -16 21t6 19.5t17 7.5q10 0 29 -8q21 -8 26 -8q19 0 34.5 16.5t24.5 43.5q18 50 18 90q0 43 -13.5 90.5t-36.5 92.5l-16 32q-25 50 -38.5 79t-23.5 63q-15 48 -15 93q0 36 12.5 68t37.5 54q25 24 62 24q18 0 35 -10.5t24 -26.5l-17 -21q-26 0 -39 10
q-18 -2 -31.5 -17.5t-20.5 -35.5q-6 -19 -6 -38q0 -38 10.5 -77.5t27.5 -74.5l70 -140q17 -36 27 -81t10 -90q0 -66 -32 -124q-17 -30 -44 -47.5t-60 -17.5q-36 0 -62 13zM88.5 -211.5q-13.5 7.5 -13.5 19.5q0 10 11 10q4 0 16 -5t16 -5q17 0 28 20.5t11 48.5q0 33 -15 45
l-13 -2l-14 -2q-15 0 -27 20q8 21 8 58v11l29 4q-4 -30 -4 -51q73 -4 73 -100q0 -16 -10.5 -34.5t-28.5 -31.5t-37 -13q-16 0 -29.5 7.5z" />
    <glyph glyph-name="scedilla" unicode="&#x15f;" horiz-adv-x="247" 
d="M48.5 -1q-12.5 10 -14.5 26l11 17q6 0 19 -4q15 -3 23 -3q18 0 32.5 16t21.5 42q13 48 13 86q0 66 -42 139l-11 19q-19 33 -32 59t-22 56q-12 39 -12 78q0 44 20 92q10 23 28.5 37.5t41.5 14.5q18 0 33.5 -11.5t15.5 -27.5q0 -9 -7 -14t-17 -5q-11 0 -21 6
q-22 -1 -35 -39q-11 -35 -11 -58q0 -29 9 -58.5t23 -53.5l22 -40l35 -66q14 -28 22.5 -65t8.5 -75q0 -61 -28 -116q-14 -28 -39.5 -45t-56.5 -17v-3q-18 3 -30.5 13zM76.5 -207.5q-13.5 7.5 -13.5 19.5q0 10 11 10q4 0 16 -5t16 -5q17 0 28 20.5t11 48.5q0 33 -15 45l-13 -2
l-14 -2q-15 0 -27 20q8 21 8 58v11l29 4q-4 -30 -4 -51q73 -4 73 -100q0 -16 -10.5 -34.5t-28.5 -31.5t-37 -13q-16 0 -29.5 7.5z" />
    <glyph glyph-name="Scaron" unicode="&#x160;" horiz-adv-x="307" 
d="M125 840.5q-22 38.5 -39.5 85.5t-17.5 65q0 8 7.5 14t16.5 6q11 0 25 -29q10 -23 25 -74l13 -46q3 24 4 33t4 33.5t8 44.5q8 41 28 41q9 0 15 -6t6 -15q0 -3 -4 -8l-4 -7v-18l-14 -55q-14 -58 -14 -71q0 -32 -25 -32q-12 0 -34 38.5zM55 -9q-16 9 -16 21t6 19.5t17 7.5
q10 0 29 -8q21 -8 26 -8q19 0 34.5 16.5t24.5 43.5q18 50 18 90q0 43 -13.5 90.5t-36.5 92.5l-16 32q-25 50 -38.5 79t-23.5 63q-15 48 -15 93q0 36 12.5 68t37.5 54q25 24 62 24q18 0 35 -10.5t24 -26.5l-17 -21q-26 0 -39 10q-18 -2 -31.5 -17.5t-20.5 -35.5
q-6 -19 -6 -38q0 -38 10.5 -77.5t27.5 -74.5l70 -140q17 -36 27 -81t10 -90q0 -66 -32 -124q-17 -30 -44 -47.5t-60 -17.5q-36 0 -62 13z" />
    <glyph glyph-name="scaron" unicode="&#x161;" horiz-adv-x="247" 
d="M95 735.5q-22 38.5 -39.5 85.5t-17.5 65q0 8 7.5 14t16.5 6q11 0 25 -29q10 -23 25 -74l13 -46q3 24 4 33t4 33.5t8 44.5q8 41 28 41q9 0 15 -6t6 -15q0 -3 -4 -8l-4 -7v-18l-14 -55q-14 -58 -14 -71q0 -32 -25 -32q-12 0 -34 38.5zM48.5 -1q-12.5 10 -14.5 26l11 17
q6 0 19 -4q15 -3 23 -3q18 0 32.5 16t21.5 42q13 48 13 86q0 66 -42 139l-11 19q-19 33 -32 59t-22 56q-12 39 -12 78q0 44 20 92q10 23 28.5 37.5t41.5 14.5q18 0 33.5 -11.5t15.5 -27.5q0 -9 -7 -14t-17 -5q-11 0 -21 6q-22 -1 -35 -39q-11 -35 -11 -58q0 -29 9 -58.5
t23 -53.5l22 -40l35 -66q14 -28 22.5 -65t8.5 -75q0 -61 -28 -116q-14 -28 -39.5 -45t-56.5 -17v-3q-18 3 -30.5 13z" />
    <glyph glyph-name="uni0162" unicode="&#x162;" horiz-adv-x="262" 
d="M111.5 7.5q-8.5 14.5 -8.5 35.5q0 33 4 81l2 26l2 53q0 35 -7 156t-7 156q0 3 0.5 11.5t0.5 26.5q1 20 1 49q0 73 -10 93q-6 0 -26 -3l-28 -2q-13 0 -23 7.5t-10 19.5t24 21q35 12 119 17q34 2 41 2q12 0 22 -8t10 -20t-8.5 -19.5t-21.5 -7.5l-18 1q-8 1 -18 1h-10
q7 -68 7 -123l-1 -64q-1 -29 -1 -65q0 -48 4 -115q5 -83 5 -115q0 -38 4 -90q4 -53 4 -90q0 -49 -29 -49q-15 0 -23.5 14.5zM109.5 -211.5q-13.5 7.5 -13.5 19.5q0 10 11 10q4 0 16 -5t16 -5q17 0 28 20.5t11 48.5q0 33 -15 45l-13 -2l-14 -2q-15 0 -27 20q8 21 8 58v11
l29 4q-4 -30 -4 -51q73 -4 73 -100q0 -16 -10.5 -34.5t-28.5 -31.5t-37 -13q-16 0 -29.5 7.5z" />
    <glyph glyph-name="uni0163" unicode="&#x163;" horiz-adv-x="256" 
d="M117 16l-1 39q-1 17 -1 38l1 34q-3 11 -15 219t-14 267q-58 2 -74 12q-11 8 -11 18q0 8 10.5 14.5t21.5 6.5q28 0 68 -4q38 -5 68 -5h8h8q31 0 31 -24q0 -12 -10 -19.5t-23 -7.5q-9 0 -26 3l-20 4l-1 -5l-1 -5q0 -89 17 -284q16 -183 16 -284q0 -12 -10.5 -21t-23.5 -9z
M120.5 -207.5q-13.5 7.5 -13.5 19.5q0 10 11 10q4 0 16 -5t16 -5q17 0 28 20.5t11 48.5q0 33 -15 45l-13 -2l-14 -2q-15 0 -27 20q8 21 8 58v11l29 4q-4 -30 -4 -51q73 -4 73 -100q0 -16 -10.5 -34.5t-28.5 -31.5t-37 -13q-16 0 -29.5 7.5z" />
    <glyph glyph-name="Tcaron" unicode="&#x164;" horiz-adv-x="262" 
d="M112 821.5q-22 38.5 -39.5 85.5t-17.5 65q0 8 7.5 14t16.5 6q11 0 25 -29q10 -23 25 -74l13 -46q3 24 4 33t4 33.5t8 44.5q8 41 28 41q9 0 15 -6t6 -15q0 -3 -4 -8l-4 -7v-18l-14 -55q-14 -58 -14 -71q0 -32 -25 -32q-12 0 -34 38.5zM111.5 7.5q-8.5 14.5 -8.5 35.5
q0 33 4 81l2 26l2 53q0 35 -7 156t-7 156q0 3 0.5 11.5t0.5 26.5q1 20 1 49q0 73 -10 93q-6 0 -26 -3l-28 -2q-13 0 -23 7.5t-10 19.5t24 21q35 12 119 17q34 2 41 2q12 0 22 -8t10 -20t-8.5 -19.5t-21.5 -7.5l-18 1q-8 1 -18 1h-10q7 -68 7 -123l-1 -64q-1 -29 -1 -65
q0 -48 4 -115q5 -83 5 -115q0 -38 4 -90q4 -53 4 -90q0 -49 -29 -49q-15 0 -23.5 14.5z" />
    <glyph glyph-name="tcaron" unicode="&#x165;" horiz-adv-x="256" 
d="M85 725.5q-22 38.5 -39.5 85.5t-17.5 65q0 8 7.5 14t16.5 6q11 0 25 -29q10 -23 25 -74l13 -46q3 24 4 33t4 33.5t8 44.5q8 41 28 41q9 0 15 -6t6 -15q0 -3 -4 -8l-4 -7v-18l-14 -55q-14 -58 -14 -71q0 -32 -25 -32q-12 0 -34 38.5zM117 16l-1 39q-1 17 -1 38l1 34
q-3 11 -15 219t-14 267q-58 2 -74 12q-11 8 -11 18q0 8 10.5 14.5t21.5 6.5q28 0 68 -4q38 -5 68 -5h8h8q31 0 31 -24q0 -12 -10 -19.5t-23 -7.5q-9 0 -26 3l-20 4l-1 -5l-1 -5q0 -89 17 -284q16 -183 16 -284q0 -12 -10.5 -21t-23.5 -9z" />
    <glyph glyph-name="Tbar" unicode="&#x166;" horiz-adv-x="342" 
d="M334 419q0 -11 -7.5 -17t-20.5 -6l-94 -2l3 -57q4 -67 4 -115q0 -25 5 -90l2 -30l2 -60q0 -49 -29 -49q-15 0 -23.5 14.5t-8.5 35.5q0 27 3 81q4 47 4 79q0 59 -7 156l-2 34l-70 -2q-40 0 -40 32q0 22 22 22h86q-2 56 -2 70l1 38v49q0 72 -9 93q-8 0 -26 -3l-28 -2
q-13 0 -23 7.5t-10 19.5t24 21q35 12 118 17q34 2 42 2q12 0 22 -8t10 -20q0 -13 -8.5 -20t-22.5 -7l-18 1q-7 1 -17 1h-10q6 -58 6 -123q0 -36 -1 -64l-1 -65v-7h14l31 2l31 2q48 0 48 -30z" />
    <glyph glyph-name="tbar" unicode="&#x167;" horiz-adv-x="342" 
d="M163 16l-1 39q-1 17 -1 38l1 34q-4 12 -14 195q-38 -2 -47 -2q-14 0 -23.5 8.5t-9.5 20.5q0 23 77 33q-10 183 -12 231q-58 2 -74 12q-11 8 -11 18q0 9 10.5 15t21.5 6q28 0 68 -4q38 -5 68 -5h8h8q31 0 31 -24q0 -12 -10 -19.5t-23 -7.5q-9 0 -26 3l-20 4l-1 -5l-1 -5
q0 -77 11 -214q33 3 57 3q14 0 24 -8.5t10 -20.5q0 -23 -86 -34q17 -202 17 -294q0 -12 -10.5 -21t-23.5 -9z" />
    <glyph glyph-name="Utilde" unicode="&#x168;" horiz-adv-x="401" 
d="M190 784.5q-18 6.5 -25 15.5t-17 15t-22 6q-7 -3 -10 -8t-1 -11v-2q0 -13 -15 -18q-16 0 -26 7.5t-10 21.5q0 25 20 41.5t53 16.5q11 0 43 -20t41 -20t14.5 6t6.5 14q2 8 7.5 14t14.5 6q16 0 24.5 -7.5t8.5 -18.5q0 -26 -19 -45.5t-45 -19.5q-25 0 -43 6.5zM136 36
q-39 55 -55 135q-18 85 -23 182q-5 88 -5 191v83q1 35 1 74q-8 8 -8 20t9 21.5t20 9.5q36 0 36 -71q0 -46 5 -174t5 -174q5 -13 9.5 -52t4.5 -64q0 -22 7 -54.5t20 -65.5q13 -35 34 -57.5t44 -22.5q14 0 23.5 9t12.5 26q6 28 6 55v195q0 37 -7 94q-6 63 -6 95v7q0 16 -1 29
l-1 29q0 28 -3 85q-4 51 -4 86q0 11 11.5 19t25.5 8l25 -23v-17q0 -12 -4 -29q-4 -28 -4 -32q0 -91 10 -251q9 -168 9 -261q0 -50 -10 -88q-6 -23 -16.5 -37t-28.5 -24q-17 -10 -44 -10q-62 0 -98 54z" />
    <glyph glyph-name="utilde" unicode="&#x169;" horiz-adv-x="361" 
d="M175 723.5q-18 6.5 -25 15.5t-17 15t-22 6q-7 -3 -10 -8t-1 -11v-2q0 -13 -15 -18q-16 0 -26 7.5t-10 21.5q0 25 20 41.5t53 16.5q11 0 43 -20t41 -20t14.5 6t6.5 14q2 8 7.5 14t14.5 6q16 0 24.5 -7.5t8.5 -18.5q0 -26 -19 -45.5t-45 -19.5q-25 0 -43 6.5zM125 -4.5
q-19 10.5 -31 30.5q-24 42 -31 95q-7 46 -7 110q-3 108 -3 264l-1 77q-1 6 -1 20q-2 38 -2 46q9 21 21 21t21.5 -18t9.5 -39v-272q0 -40 7 -106q7 -82 7 -106q0 -74 63 -74q72 0 72 538v56v9q-1 3 -1 8q0 12 5.5 17.5t21.5 5.5q13 0 20.5 -7.5t9.5 -17.5q1 -6 1 -23
q0 -16 -3 -51q-4 -29 -4 -50q0 -23 -2 -41l-2 -42v-8q1 -4 1 -9q0 -444 -129 -444q-24 0 -43 10.5z" />
    <glyph glyph-name="Umacron" unicode="&#x16a;" horiz-adv-x="401" 
d="M136 36q-39 55 -55 135q-18 85 -23 182q-5 88 -5 191v83q1 35 1 74q-8 8 -8 20t9 21.5t20 9.5q36 0 36 -71q0 -46 5 -174t5 -174q5 -13 9.5 -52t4.5 -64q0 -22 7 -54.5t20 -65.5q13 -35 34 -57.5t44 -22.5q14 0 23.5 9t12.5 26q6 28 6 55v195q0 37 -7 94q-6 63 -6 95v7
q0 16 -1 29l-1 29q0 28 -3 85q-4 51 -4 86q0 11 11.5 19t25.5 8l25 -23v-17q0 -12 -4 -29q-4 -28 -4 -32q0 -91 10 -251q9 -168 9 -261q0 -50 -10 -88q-6 -23 -16.5 -37t-28.5 -24q-17 -10 -44 -10q-62 0 -98 54zM41 834q0 10 6.5 16t16.5 6h147l30 2q14 1 31 1q48 0 48 -29
q0 -11 -7.5 -17t-20.5 -6q-34 0 -105 -3l-106 -2q-40 0 -40 32z" />
    <glyph glyph-name="umacron" unicode="&#x16b;" horiz-adv-x="361" 
d="M125 -4.5q-19 10.5 -31 30.5q-24 42 -31 95q-7 46 -7 110q-3 108 -3 264l-1 77q-1 6 -1 20q-2 38 -2 46q9 21 21 21t21.5 -18t9.5 -39v-272q0 -40 7 -106q7 -82 7 -106q0 -74 63 -74q72 0 72 538v56v9q-1 3 -1 8q0 12 5.5 17.5t21.5 5.5q13 0 20.5 -7.5t9.5 -17.5
q1 -6 1 -23q0 -16 -3 -51q-4 -29 -4 -50q0 -23 -2 -41l-2 -42v-8q1 -4 1 -9q0 -444 -129 -444q-24 0 -43 10.5zM26 746q0 10 6.5 16t16.5 6h147l30 2q14 1 31 1q48 0 48 -29q0 -11 -7.5 -17t-20.5 -6q-34 0 -105 -3l-106 -2q-40 0 -40 32z" />
    <glyph glyph-name="Ubreve" unicode="&#x16c;" horiz-adv-x="401" 
d="M164.5 801.5q-17.5 10.5 -26.5 29.5q-18 35 -18 79q0 6 5.5 10.5t13.5 4.5q11 0 20 -13t14 -31t13 -31t16 -13q16 0 25 15t9 31q0 20 6 29t22 9q11 0 19 -7.5t8 -17.5q0 -13 -2 -25q-8 -36 -29 -58t-55 -22q-23 0 -40.5 10.5zM136 36q-39 55 -55 135q-18 85 -23 182
q-5 88 -5 191v83q1 35 1 74q-8 8 -8 20t9 21.5t20 9.5q36 0 36 -71q0 -46 5 -174t5 -174q5 -13 9.5 -52t4.5 -64q0 -22 7 -54.5t20 -65.5q13 -35 34 -57.5t44 -22.5q14 0 23.5 9t12.5 26q6 28 6 55v195q0 37 -7 94q-6 63 -6 95v7q0 16 -1 29l-1 29q0 28 -3 85q-4 51 -4 86
q0 11 11.5 19t25.5 8l25 -23v-17q0 -12 -4 -29q-4 -28 -4 -32q0 -91 10 -251q9 -168 9 -261q0 -50 -10 -88q-6 -23 -16.5 -37t-28.5 -24q-17 -10 -44 -10q-62 0 -98 54z" />
    <glyph glyph-name="ubreve" unicode="&#x16d;" horiz-adv-x="361" 
d="M124.5 732.5q-17.5 10.5 -26.5 29.5q-18 35 -18 79q0 6 5.5 10.5t13.5 4.5q11 0 20 -13t14 -31t13 -31t16 -13q16 0 25 15t9 31q0 20 6 29t22 9q11 0 19 -7.5t8 -17.5q0 -13 -2 -25q-8 -36 -29 -58t-55 -22q-23 0 -40.5 10.5zM125 -4.5q-19 10.5 -31 30.5q-24 42 -31 95
q-7 46 -7 110q-3 108 -3 264l-1 77q-1 6 -1 20q-2 38 -2 46q9 21 21 21t21.5 -18t9.5 -39v-272q0 -40 7 -106q7 -82 7 -106q0 -74 63 -74q72 0 72 538v56v9q-1 3 -1 8q0 12 5.5 17.5t21.5 5.5q13 0 20.5 -7.5t9.5 -17.5q1 -6 1 -23q0 -16 -3 -51q-4 -29 -4 -50q0 -23 -2 -41
l-2 -42v-8q1 -4 1 -9q0 -444 -129 -444q-24 0 -43 10.5z" />
    <glyph glyph-name="Uring" unicode="&#x16e;" horiz-adv-x="401" 
d="M141.5 767.5q-16.5 9.5 -24.5 25.5q-16 32 -16 65q0 35 22.5 58t57.5 23q46 0 70 -19q21 -17 28 -42q2 -14 2 -20q0 -24 -11 -47q-14 -32 -47 -46q-17 -7 -42 -7q-23 0 -39.5 9.5zM215 802.5q13 6.5 20 17.5q10 16 10 36q0 19 -15 33t-44 14q-23 0 -34.5 -18t-11.5 -47
q0 -14 14 -28t31 -14t30 6.5zM136 36q-39 55 -55 135q-18 85 -23 182q-5 88 -5 191v83q1 35 1 74q-8 8 -8 20t9 21.5t20 9.5q36 0 36 -71q0 -46 5 -174t5 -174q5 -13 9.5 -52t4.5 -64q0 -22 7 -54.5t20 -65.5q13 -35 34 -57.5t44 -22.5q14 0 23.5 9t12.5 26q6 28 6 55v195
q0 37 -7 94q-6 63 -6 95v7q0 16 -1 29l-1 29q0 28 -3 85q-4 51 -4 86q0 11 11.5 19t25.5 8l25 -23v-17q0 -12 -4 -29q-4 -28 -4 -32q0 -91 10 -251q9 -168 9 -261q0 -50 -10 -88q-6 -23 -16.5 -37t-28.5 -24q-17 -10 -44 -10q-62 0 -98 54z" />
    <glyph glyph-name="uring" unicode="&#x16f;" horiz-adv-x="361" 
d="M116.5 718.5q-16.5 9.5 -24.5 25.5q-16 32 -16 65q0 35 22.5 58t57.5 23q46 0 70 -19q21 -17 28 -42q2 -14 2 -20q0 -24 -11 -47q-14 -32 -47 -46q-17 -7 -42 -7q-23 0 -39.5 9.5zM190 753.5q13 6.5 20 17.5q10 16 10 36q0 19 -15 33t-44 14q-23 0 -34.5 -18t-11.5 -47
q0 -14 14 -28t31 -14t30 6.5zM125 -4.5q-19 10.5 -31 30.5q-24 42 -31 95q-7 46 -7 110q-3 108 -3 264l-1 77q-1 6 -1 20q-2 38 -2 46q9 21 21 21t21.5 -18t9.5 -39v-272q0 -40 7 -106q7 -82 7 -106q0 -74 63 -74q72 0 72 538v56v9q-1 3 -1 8q0 12 5.5 17.5t21.5 5.5
q13 0 20.5 -7.5t9.5 -17.5q1 -6 1 -23q0 -16 -3 -51q-4 -29 -4 -50q0 -23 -2 -41l-2 -42v-8q1 -4 1 -9q0 -444 -129 -444q-24 0 -43 10.5z" />
    <glyph glyph-name="Uhungarumlaut" unicode="&#x170;" horiz-adv-x="401" 
d="M99 779q1 14 33 65t70 99q36 44 44 44q9 0 16.5 -5.5t7.5 -12.5q0 -21 -35 -67t-80 -87q-40 -37 -56 -42v6zM225 792q0 12 42 60q47 53 88 92q46 43 57 43q10 0 19 -7t12 -16q-6 -15 -48 -55t-91 -79.5t-69 -50.5q-10 0 -10 13zM136 36q-39 55 -55 135q-18 85 -23 182
q-5 88 -5 191v83q1 35 1 74q-8 8 -8 20t9 21.5t20 9.5q36 0 36 -71q0 -46 5 -174t5 -174q5 -13 9.5 -52t4.5 -64q0 -22 7 -54.5t20 -65.5q13 -35 34 -57.5t44 -22.5q14 0 23.5 9t12.5 26q6 28 6 55v195q0 37 -7 94q-6 63 -6 95v7q0 16 -1 29l-1 29q0 28 -3 85q-4 51 -4 86
q0 11 11.5 19t25.5 8l25 -23v-17q0 -12 -4 -29q-4 -28 -4 -32q0 -91 10 -251q9 -168 9 -261q0 -50 -10 -88q-6 -23 -16.5 -37t-28.5 -24q-17 -10 -44 -10q-62 0 -98 54z" />
    <glyph glyph-name="uhungarumlaut" unicode="&#x171;" horiz-adv-x="361" 
d="M82 705q1 14 33 65t70 99q36 44 44 44q9 0 16.5 -5.5t7.5 -12.5q0 -21 -35 -67t-80 -87q-40 -37 -56 -42v6zM208 718q0 12 42 60q47 53 88 92q46 43 57 43q10 0 19 -7t12 -16q-6 -15 -48 -55t-91 -79.5t-69 -50.5q-10 0 -10 13zM125 -4.5q-19 10.5 -31 30.5
q-24 42 -31 95q-7 46 -7 110q-3 108 -3 264l-1 77q-1 6 -1 20q-2 38 -2 46q9 21 21 21t21.5 -18t9.5 -39v-272q0 -40 7 -106q7 -82 7 -106q0 -74 63 -74q72 0 72 538v56v9q-1 3 -1 8q0 12 5.5 17.5t21.5 5.5q13 0 20.5 -7.5t9.5 -17.5q1 -6 1 -23q0 -16 -3 -51
q-4 -29 -4 -50q0 -23 -2 -41l-2 -42v-8q1 -4 1 -9q0 -444 -129 -444q-24 0 -43 10.5z" />
    <glyph glyph-name="Uogonek" unicode="&#x172;" horiz-adv-x="401" 
d="M244 -160.5q-14 18.5 -14 41.5q0 37 25 69.5t65 55.5h41q-87 -67 -87 -118q0 -25 18 -25q15 0 37 16l11 -29q-7 -10 -24.5 -19.5t-31.5 -9.5q-26 0 -40 18.5zM136 36q-39 55 -55 135q-18 85 -23 182q-5 88 -5 191v83q1 35 1 74q-8 8 -8 20t9 21.5t20 9.5q36 0 36 -71
q0 -46 5 -174t5 -174q5 -13 9.5 -52t4.5 -64q0 -22 7 -54.5t20 -65.5q13 -35 34 -57.5t44 -22.5q14 0 23.5 9t12.5 26q6 28 6 55v195q0 37 -7 94q-6 63 -6 95v7q0 16 -1 29l-1 29q0 28 -3 85q-4 51 -4 86q0 11 11.5 19t25.5 8l25 -23v-17q0 -12 -4 -29q-4 -28 -4 -32
q0 -91 10 -251q9 -168 9 -261q0 -50 -10 -88q-6 -23 -16.5 -37t-28.5 -24q-17 -10 -44 -10q-62 0 -98 54z" />
    <glyph glyph-name="uogonek" unicode="&#x173;" horiz-adv-x="361" 
d="M93 -160.5q-14 18.5 -14 41.5q0 37 25 69.5t65 55.5h41q-87 -67 -87 -118q0 -25 18 -25q15 0 37 16l11 -29q-7 -10 -24.5 -19.5t-31.5 -9.5q-26 0 -40 18.5zM125 -4.5q-19 10.5 -31 30.5q-24 42 -31 95q-7 46 -7 110q-3 108 -3 264l-1 77q-1 6 -1 20q-2 38 -2 46
q9 21 21 21t21.5 -18t9.5 -39v-272q0 -40 7 -106q7 -82 7 -106q0 -74 63 -74q72 0 72 538v56v9q-1 3 -1 8q0 12 5.5 17.5t21.5 5.5q13 0 20.5 -7.5t9.5 -17.5q1 -6 1 -23q0 -16 -3 -51q-4 -29 -4 -50q0 -23 -2 -41l-2 -42v-8q1 -4 1 -9q0 -444 -129 -444q-24 0 -43 10.5z
" />
    <glyph glyph-name="Wcircumflex" unicode="&#x174;" horiz-adv-x="494" 
d="M289 781l-39 135l-51 -128q-3 -7 -14 -7q-10 0 -17.5 5.5t-7.5 14.5q0 6 2 9l35 88q4 8 12 27t12 26q11 18 23 24q8 2 14 2q8 0 14 -9q14 -22 25 -68l13 -48q9 -36 13 -48q1 -3 1 -9q0 -9 -7 -15t-16 -6q-10 0 -12 7zM123 62q0 48 -41.5 343.5t-52.5 322.5q13 24 35 24
q23 0 43 -104q19 -110 32 -252l7 -81q6 -68 7 -69l10 84l6 52q13 114 17 161q5 62 5 85v19q0 11 8 21t18 10q36 0 36 -30v-15q0 -57 11.5 -122.5t33.5 -156.5q14 -53 28 -129q3 33 19 160q16 116 23.5 197.5t7.5 152.5q0 23 7.5 32.5t28.5 9.5q12 0 21.5 -7.5t9.5 -19.5
q0 -11 -10 -23q0 -72 -11 -168.5t-27 -183.5q-16 -85 -27 -182.5t-11 -171.5q0 -16 -7.5 -25.5t-22.5 -9.5q-11 0 -26 41q-19 57 -47 227l-18 117l-9 65q-13 -91 -19.5 -146.5t-12.5 -131.5q-7 -73 -7 -144q0 -10 -8.5 -19t-19.5 -9q-37 0 -37 76z" />
    <glyph glyph-name="wcircumflex" unicode="&#x175;" horiz-adv-x="429" 
d="M261 666l-39 135l-51 -128q-3 -7 -14 -7q-10 0 -17.5 5.5t-7.5 14.5q0 6 2 9l35 88q4 8 12 27t12 26q11 18 23 24q8 2 14 2q8 0 14 -9q14 -22 25 -68l13 -48q9 -36 13 -48q1 -3 1 -9q0 -9 -7 -15t-16 -6q-10 0 -12 7zM99 39q-13 53 -21.5 131.5t-17.5 198.5
q-5 78 -14 167q-7 74 -17 95q9 18 29 18q32 0 32 -66q0 -78 21 -228q21 -149 24 -217l5 34q10 67 17.5 126.5t12.5 128.5q7 77 7 152l27 12q13 0 21.5 -6.5t8.5 -18.5v-8q16 -56 26.5 -122.5t18.5 -156.5q6 -69 14 -129q19 134 19 330q0 31 8 76q7 46 7 75q-3 9 -3 17
q0 24 30 24q12 0 19 -6t7 -17v-15q0 -15 -3 -26v-5q-13 -40 -13 -92v-73q0 -63 -15 -188q-16 -122 -16 -182v-18q0 -23 -5 -39q-6 -20 -29 -20q-16 0 -24.5 10.5t-8.5 26.5q0 81 -17 210q-9 58 -19 117l-16 105q-4 -29 -4 -57q0 -56 -8 -148t-25 -179q-19 -97 -43 -97
q-20 0 -35 60z" />
    <glyph glyph-name="Ycircumflex" unicode="&#x176;" horiz-adv-x="265" 
d="M204 781l-39 135l-51 -128q-3 -7 -14 -7q-10 0 -17.5 5.5t-7.5 14.5q0 6 2 9l35 88q4 8 12 27t12 26q11 18 23 24q8 2 14 2q8 0 14 -9q14 -22 25 -68l13 -48q9 -36 13 -48q1 -3 1 -9q0 -9 -7 -15t-16 -6q-10 0 -12 7zM113.5 -5q-7.5 7 -7.5 17l2 97q3 65 3 97q0 29 -9 86
q-10 56 -10 87q0 38 -11 87t-28 94q-16 43 -27 92.5t-11 86.5q0 7 8 12t17 5q11 0 21 -23q12 -26 23 -73t13 -56l13 -69l10 -44q3 16 5 42q6 83 15 138q7 38 16 58q10 22 24 22q27 0 27 -10q0 -57 -24 -168t-24 -169l-2 -16q-2 -15 -1 -18v-16q0 -43 3 -132l2 -133l2 -23
l2 -24v-25q0 -12 -10 -20.5t-24 -8.5q-10 0 -17.5 7z" />
    <glyph glyph-name="ycircumflex" unicode="&#x177;" horiz-adv-x="283" 
d="M189 666l-39 135l-51 -128q-3 -7 -14 -7q-10 0 -17.5 5.5t-7.5 14.5q0 6 2 9l35 88q4 8 12 27t12 26q11 18 23 24q8 2 14 2q8 0 14 -9q14 -22 25 -68l13 -48q9 -36 13 -48q1 -3 1 -9q0 -9 -7 -15t-16 -6q-10 0 -12 7zM115 8q11 21 11 170q0 35 -5 76l-3 29q-3 27 -3 41
v26q-10 25 -36.5 93t-42.5 114q-19 53 -19 72v5l23 17q17 -2 36 -44q16 -37 35.5 -106t19.5 -73q4 11 16 75t27 113q17 49 35 49q10 0 17.5 -6t7.5 -15q0 -51 -28 -144q-30 -101 -30 -146v-301q0 -67 -33 -67q-17 0 -28 22z" />
    <glyph glyph-name="Ydieresis" unicode="&#x178;" horiz-adv-x="265" 
d="M113.5 -5q-7.5 7 -7.5 17l2 97q3 65 3 97q0 29 -9 86q-10 56 -10 87q0 38 -11 87t-28 94q-16 43 -27 92.5t-11 86.5q0 7 8 12t17 5q11 0 21 -23q12 -26 23 -73t13 -56l13 -69l10 -44q3 16 5 42q6 83 15 138q7 38 16 58q10 22 24 22q27 0 27 -10q0 -57 -24 -168t-24 -169
l-2 -16q-2 -15 -1 -18v-16q0 -43 3 -132l2 -133l2 -23l2 -24v-25q0 -12 -10 -20.5t-24 -8.5q-10 0 -17.5 7zM50.5 795q-10.5 11 -10.5 25q0 15 11.5 26.5t26.5 11.5q14 0 24.5 -11.5t10.5 -25.5q0 -16 -11 -26.5t-28 -10.5q-13 0 -23.5 11zM211.5 790q-10.5 11 -10.5 25
q0 15 11.5 26.5t26.5 11.5q14 0 25 -11.5t11 -25.5q0 -16 -11.5 -26.5t-28.5 -10.5q-13 0 -23.5 11z" />
    <glyph glyph-name="Zacute" unicode="&#x179;" horiz-adv-x="261" 
d="M24 15q22 34 50.5 181.5t48.5 305.5q20 155 22 206l-36 -3q-7 -1 -21 -1q-54 0 -54 31v5l13 16v1q12 -4 29 -4q16 0 47 6q35 5 47 5t19.5 -8.5t7.5 -20.5q0 -263 -111 -693l22 1q13 2 31 2q53 0 53 -30v-5l-16 -15l-61 -2q-28 -2 -62 -2q-18 0 -29 24zM106 778.5
q-5 3.5 -5 9.5q0 5 5 10l16 14q5 5 56 49l59 51q4 2 9 2q12 0 22 -12t10 -25q0 -12 -7 -16q-36 -28 -146 -84q-2 -2 -8 -2t-11 3.5z" />
    <glyph glyph-name="zacute" unicode="&#x17a;" horiz-adv-x="292" 
d="M57 4.5q-8 6.5 -8 16.5q0 60 23.5 158t68.5 242q45 149 56 192q-12 0 -39 -3t-43 -3q-10 0 -18 8.5t-8 19.5q0 29 110 29q50 0 50 -28q0 -32 -22 -95q-21 -56 -26 -85q-10 -71 -52 -232l-44 -173h18l21 2q9 1 21 1v1q40 0 40 -25q0 -11 -10 -17.5t-25 -6.5q-16 0 -29 1
l-30 2q-6 0 -17 -6q-13 -5 -18 -5q-11 0 -19 6.5zM156 697.5q-5 3.5 -5 9.5q0 5 5 10l16 14q5 5 56 49l59 51q4 2 9 2q12 0 22 -12t10 -25q0 -12 -7 -16q-36 -28 -146 -84q-2 -2 -8 -2t-11 3.5z" />
    <glyph glyph-name="Zdotaccent" unicode="&#x17b;" horiz-adv-x="261" 
d="M104 810q-10 11 -10 25q0 15 11 26.5t26 11.5q14 0 25 -11.5t11 -25.5q0 -16 -11.5 -26.5t-28.5 -10.5q-13 0 -23 11zM24 15q22 34 50.5 181.5t48.5 305.5q20 155 22 206l-36 -3q-7 -1 -21 -1q-54 0 -54 31v5l13 16v1q12 -4 29 -4q16 0 47 6q35 5 47 5t19.5 -8.5
t7.5 -20.5q0 -263 -111 -693l22 1q13 2 31 2q53 0 53 -30v-5l-16 -15l-61 -2q-28 -2 -62 -2q-18 0 -29 24z" />
    <glyph glyph-name="zdotaccent" unicode="&#x17c;" horiz-adv-x="292" 
d="M149.5 716q-10.5 11 -10.5 25q0 15 11.5 26.5t26.5 11.5q14 0 24.5 -11.5t10.5 -26.5q0 -16 -11 -26t-28 -10q-13 0 -23.5 11zM57 4.5q-8 6.5 -8 16.5q0 60 23.5 158t68.5 242q45 149 56 192q-12 0 -39 -3t-43 -3q-10 0 -18 8.5t-8 19.5q0 29 110 29q50 0 50 -28
q0 -32 -22 -95q-21 -56 -26 -85q-10 -71 -52 -232l-44 -173h18l21 2q9 1 21 1v1q40 0 40 -25q0 -11 -10 -17.5t-25 -6.5q-16 0 -29 1l-30 2q-6 0 -17 -6q-13 -5 -18 -5q-11 0 -19 6.5z" />
    <glyph glyph-name="Zcaron" unicode="&#x17d;" horiz-adv-x="261" 
d="M111 821.5q-22 38.5 -39.5 85.5t-17.5 65q0 8 7.5 14t16.5 6q11 0 25 -29q10 -23 25 -74l13 -46q3 24 4 33t4 33.5t8 44.5q8 41 28 41q9 0 15 -6t6 -15q0 -3 -4 -8l-4 -7v-18l-14 -55q-14 -58 -14 -71q0 -32 -25 -32q-12 0 -34 38.5zM24 15q22 34 50.5 181.5t48.5 305.5
q20 155 22 206l-36 -3q-7 -1 -21 -1q-54 0 -54 31v5l13 16v1q12 -4 29 -4q16 0 47 6q35 5 47 5t19.5 -8.5t7.5 -20.5q0 -263 -111 -693l22 1q13 2 31 2q53 0 53 -30v-5l-16 -15l-61 -2q-28 -2 -62 -2q-18 0 -29 24z" />
    <glyph glyph-name="zcaron" unicode="&#x17e;" horiz-adv-x="292" 
d="M157 725.5q-22 38.5 -39.5 85.5t-17.5 65q0 8 7.5 14t16.5 6q11 0 25 -29q10 -23 25 -74l13 -46q3 24 4 33t4 33.5t8 44.5q8 41 28 41q9 0 15 -6t6 -15q0 -3 -4 -8l-4 -7v-18l-14 -55q-14 -58 -14 -71q0 -32 -25 -32q-12 0 -34 38.5zM57 4.5q-8 6.5 -8 16.5
q0 60 23.5 158t68.5 242q45 149 56 192q-12 0 -39 -3t-43 -3q-10 0 -18 8.5t-8 19.5q0 29 110 29q50 0 50 -28q0 -32 -22 -95q-21 -56 -26 -85q-10 -71 -52 -232l-44 -173h18l21 2q9 1 21 1v1q40 0 40 -25q0 -11 -10 -17.5t-25 -6.5q-16 0 -29 1l-30 2q-6 0 -17 -6
q-13 -5 -18 -5q-11 0 -19 6.5z" />
    <glyph glyph-name="longs" unicode="&#x17f;" horiz-adv-x="382" 
d="M289 647q-62 0 -62 -67v-580h-149v586q0 93 46 136t146 43q77 0 136 -23l-35 -109q-45 14 -82 14z" />
    <glyph glyph-name="uni0180" unicode="&#x180;" horiz-adv-x="632" 
d="M382 546q102 0 154 -69t52 -203q0 -135 -56.5 -209.5t-153.5 -74.5q-96 0 -151 70h-10l-25 -60h-114v584h-76v97h76v79h149v-79h154v-97h-154v-11q0 -32 -6 -108h6q52 81 155 81zM334 427q-104 0 -107 -146v-6q0 -88 26 -126t83 -38q46 0 73 42t27 123q0 151 -102 151z
" />
    <glyph glyph-name="uni0181" unicode="&#x181;" horiz-adv-x="793" 
d="M212 590h-26q-32 0 -46.5 -16.5t-14.5 -39.5q0 -22 10 -48h-118q-12 26 -12 58q0 82 47.5 126t137.5 44h244q152 0 220.5 -43.5t68.5 -137.5q0 -63 -30 -104.5t-80 -49.5v-5q68 -15 98 -56.5t30 -110.5q0 -98 -70.5 -152.5t-191.5 -54.5h-267v590zM363 311v-186h99
q62 0 92 24t30 73q0 89 -127 89h-94zM363 431h88q62 0 89.5 19t27.5 63q0 41 -30.5 59t-94.5 18h-80v-159z" />
    <glyph glyph-name="uni0182" unicode="&#x182;" horiz-adv-x="638" 
d="M66 5q-10 3 -13.5 11t-3.5 22q-1 21 -1 59q0 30 2 82l1 80q1 22 1 65q0 32 -1 48l-2 124q0 96 -2 144q-1 27 -1 80q0 19 6.5 25t26.5 7l35 1q42 3 82 3q15 0 28 -10q7 -6 7 -16q0 -11 -11 -17q-18 -9 -35 -9q-65 0 -76.5 -4t-11.5 -19.5v-24.5l1 -42q2 -56 2 -84
q0 -35 -1 -53q-1 -6 -0.5 -11t0.5 -9q1 -7 1 -26q53 3 84 -22q30 -25 52 -83t22 -121q0 -19 -1 -28q-7 -59 -36 -104q-23 -33 -50 -49q-5 -3 -16 -9.5t-21 -10.5t-20 -4q-32 0 -48 5zM164.5 87q23.5 23 30.5 59q9 32 9 72q0 45 -11 89q-4 16 -13 31t-18.5 28t-13.5 19
q-11 4 -22 4l-25 -1q2 -62 4 -188l3 -141q33 5 56.5 28z" />
    <glyph glyph-name="uni0183" unicode="&#x183;" horiz-adv-x="632" 
d="M382 546q102 0 154 -69t52 -203q0 -135 -56.5 -209.5t-153.5 -74.5q-96 0 -151 70h-10l-25 -60h-114v760h456v-112h-307v-75q0 -32 -6 -108h6q52 81 155 81zM334 427q-104 0 -107 -146v-6q0 -88 26 -126t83 -38q46 0 73 42t27 123q0 151 -102 151z" />
    <glyph glyph-name="uni0184" unicode="&#x184;" horiz-adv-x="661" 
d="M616 218q0 -109 -69 -168.5t-198 -59.5q-264 0 -264 220v504h151v-274h88q140 0 216 -57.5t76 -164.5zM236 218q0 -104 109 -104q58 0 88 26.5t30 77.5q0 52 -35 75t-125 23h-67v-98z" />
    <glyph glyph-name="uni0185" unicode="&#x185;" horiz-adv-x="633" 
d="M589 273q0 -133 -67.5 -208t-186.5 -75q-125 0 -192.5 72t-67.5 205v493h149v-177q0 -27 -6 -108h6q26 40 67 60.5t92 20.5q97 0 151.5 -75t54.5 -208zM335 437q-59 0 -85 -37.5t-26 -108.5v-26q0 -80 26.5 -117.5t81.5 -37.5q53 0 79 39.5t26 123.5q0 83 -27.5 123.5
t-74.5 40.5z" />
    <glyph glyph-name="uni0186" unicode="&#x186;" horiz-adv-x="637" 
d="M239 598q-42 0 -80.5 -14t-74.5 -33l-49 123q99 50 220 50q153 0 238.5 -96.5t85.5 -266.5q0 -175 -86.5 -273t-245.5 -98q-54 0 -99 8.5t-92 28.5v127q64 -22 101.5 -30t75.5 -8q93 0 141.5 63.5t48.5 178.5q0 114 -48.5 177t-135.5 63z" />
    <glyph glyph-name="uni0187" unicode="&#x187;" horiz-adv-x="637" 
d="M393 598q-85 0 -132 -64t-47 -179q0 -239 179 -239q75 0 182 38v-127q-88 -37 -196 -37q-156 0 -238.5 94.5t-82.5 271.5q0 111 40.5 195t116.5 128.5t178 44.5q46 0 89 -11q1 81 40.5 123.5t113.5 42.5q22 0 41.5 -5t28.5 -10v-114q-28 10 -55 10q-49 0 -49 -56v-40
l-49 -113q-40 19 -80.5 33t-79.5 14z" />
    <glyph glyph-name="uni0188" unicode="&#x188;" horiz-adv-x="514" 
d="M300 -10q-255 0 -255 280q0 139 69.5 212.5t198.5 73.5q29 0 50 -4v41q0 84 39 128t116 44q39 0 69 -15v-114q-28 10 -55 10q-49 0 -49 -56v-76l-44 -110q-35 14 -65.5 23t-60.5 9q-116 0 -116 -165q0 -160 116 -160q43 0 79.5 11.5t73.5 35.5v-127q-36 -23 -73 -32
t-93 -9z" />
    <glyph glyph-name="uni0189" unicode="&#x189;" horiz-adv-x="740" 
d="M336 456v-32v-47q-2 -4 -2 -8q0 -8 1 -12t1 -10q0 -32 -9.5 -76.5t-27.5 -90.5q-45 -110 -101 -156q-33 -26 -69 -26q-20 0 -34.5 9t-14.5 25q22 22 22 117q0 57 -9 166q-2 16 -4 48l-13 -1q-34 -2 -42 -2q-13 0 -23 8.5t-10 20.5t24 21q20 8 60 13q-2 44 -2 56l2 55
q1 24 1 55q0 28 -10 71q-12 45 -12 63q0 35 77 35h15q28 0 52.5 -9t41.5 -24q32 -28 54 -81q15 -36 26 -100q6 -56 6 -88zM285 417q0 54 -10 118q-11 60 -46 112q-17 24 -43.5 37.5t-59.5 13.5v-1q0 -90 12 -269h5q34 2 41 2q13 0 23 -8.5t10 -20.5t-23 -21q-19 -7 -52 -12
q8 -149 8 -217v-95q37 23 65 66.5t43 96.5q27 98 27 198z" />
    <glyph glyph-name="uni018A" unicode="&#x18a;" horiz-adv-x="861" 
d="M804 364q0 -176 -100 -270t-290 -94h-202v590h-26q-32 0 -46.5 -16.5t-14.5 -39.5q0 -22 10 -48h-118q-12 26 -12 58q0 82 47.5 126t137.5 44h246q175 0 271.5 -92t96.5 -258zM647 360q0 230 -203 230h-81v-465h65q219 0 219 235z" />
    <glyph glyph-name="uni018B" unicode="&#x18b;" horiz-adv-x="638" 
d="M397 589h-300v125h451v-714h-220q-142 0 -212.5 54t-70.5 165q0 104 77.5 162.5t219.5 58.5h55v149zM397 316h-39q-88 0 -124 -22.5t-36 -71.5q0 -50 36 -74t112 -24h51v192z" />
    <glyph glyph-name="uni018C" unicode="&#x18c;" horiz-adv-x="632" 
d="M251 -10q-96 0 -151 75t-55 207q0 129 57 201.5t153 72.5q104 0 157 -80h5q-11 62 -11 109v73h-307v112h456v-760h-114l-29 71h-6q-51 -81 -155 -81zM303 109q57 0 84 33t29 113v16q0 83 -27.5 118.5t-87.5 35.5q-50 0 -77.5 -39.5t-27.5 -115.5q0 -81 27.5 -121
t79.5 -40z" />
    <glyph glyph-name="uni018D" unicode="&#x18d;" horiz-adv-x="619" 
d="M382 307q116 -74 116 -167q0 -70 -59 -110t-163 -40q-53 0 -104 11t-121 43l59 105q45 -22 87 -35.5t85 -13.5q36 0 54 13t18 36q0 26 -33.5 52t-101.5 60q-90 45 -132 105.5t-42 138.5q0 126 69 193t198 67q119 0 190.5 -60.5t71.5 -163.5q0 -89 -46.5 -147.5
t-145.5 -86.5zM197 515q0 -95 98 -147q58 15 92 59.5t34 107.5q0 50 -30 80t-80 30q-55 0 -84.5 -33.5t-29.5 -96.5z" />
    <glyph glyph-name="uni018E" unicode="&#x18e;" horiz-adv-x="560" 
d="M59 125h260v184h-242v124h242v157h-260v124h411v-714h-411v125z" />
    <glyph glyph-name="uni018F" unicode="&#x18f;" horiz-adv-x="446" 
d="M83.5 47q-39.5 57 -39.5 174v31q0 87 37 136.5t107 49.5h7l137 -6q1 35 1 83q0 95 -31.5 157t-86.5 62q-57 0 -130 -69q-3 -4 -9 -4q-9 0 -14 8t-5 19v3q2 6 8 11q85 69 159 69q53 0 92.5 -36.5t60.5 -99.5q20 -62 20 -137v-184q0 -103 -23 -176t-65.5 -110.5
t-98.5 -37.5q-87 0 -126.5 57zM225 33q52 14 78 76.5t26 179.5v4q0 41 2 101h-140q-19 0 -28.5 -2.5t-21.5 -11.5q-23 -18 -30 -93q-4 -46 -4 -85q0 -173 89 -173q14 0 29 4z" />
    <glyph glyph-name="uni0190" unicode="&#x190;" horiz-adv-x="647" 
d="M65 537q0 85 73 136t193 51q75 0 139 -17.5t132 -60.5l-66 -101q-94 58 -194 58q-65 0 -97.5 -21.5t-32.5 -58.5q0 -48 51.5 -70.5t165.5 -22.5h60v-118h-67q-112 0 -170.5 -23.5t-58.5 -74.5q0 -105 180 -105q52 0 114 12t109 35v-127q-95 -39 -256 -39
q-142 0 -219.5 56.5t-77.5 155.5q0 73 53 117.5t149 53.5v3q-180 27 -180 161z" />
    <glyph glyph-name="uni0191" unicode="&#x191;" horiz-adv-x="548" 
d="M239 -64q0 -87 -45 -131.5t-132 -44.5q-43 0 -80 15v114q25 -10 55 -10q23 0 38 15t15 45v775h409v-124h-260v-184h242v-124h-242v-346z" />
    <glyph glyph-name="florin" unicode="&#x192;" horiz-adv-x="640" 
d="M153 -81q0 14 11 22l41 5v7q4 1 15 3t17 4t11 5q8 6 11.5 11.5t7.5 19.5q3 16 4.5 38t1.5 31q0 19 2 48l5 105l4 104l-39 -2q-13 0 -23 8.5t-10 20.5q0 23 75 33v27l1 68q3 102 6 128l1 22q0 30 2 49.5t8 38.5q10 35 42 54q16 8 41 13.5t41 5.5l8 1h6q10 0 17.5 -7
t7.5 -19q0 -31 -49 -37q-30 -4 -45 -14t-20 -30.5t-5 -60.5q0 -3 -0.5 -13t-0.5 -33q-2 -52 -2 -64l-4 -123q42 2 53 2q13 0 23 -8.5t10 -20.5q0 -24 -89 -35v-13l-10 -217q-2 -22 -2 -39q0 -74 -20.5 -112t-71.5 -49q-29 -6 -42 -6q-40 0 -40 29z" />
    <glyph glyph-name="uni0193" unicode="&#x193;" horiz-adv-x="724" 
d="M361 401h283v-370q-69 -22 -129.5 -31.5t-124.5 -9.5q-162 0 -247 95t-85 273q0 173 99 269.5t274 96.5q50 0 93 -9q1 80 41 122t113 42q22 0 41.5 -5t28.5 -10v-114q-28 10 -55 10q-49 0 -49 -56v-33l-51 -112q-78 39 -163 39q-98 0 -157 -66t-59 -177
q0 -116 47.5 -177.5t138.5 -61.5q47 0 96 10v149h-135v126z" />
    <glyph glyph-name="uni0194" unicode="&#x194;" horiz-adv-x="649" 
d="M494 714h156l-257 -591q69 -138 69 -220q0 -65 -39 -104t-104 -39t-103 38t-38 106q0 50 18.5 103.5t47.5 117.5l-244 589h156l121 -311q10 -23 23 -68t19 -71q9 37 23.5 77.5t23.5 60.5zM354 -97q0 22 -9 56.5t-25 65.5q-18 -34 -26 -66t-8 -54q0 -56 34 -56t34 54z" />
    <glyph glyph-name="uni0195" unicode="&#x195;" horiz-adv-x="986" 
d="M572 238q0 -66 23 -97t72 -31t72.5 33t23.5 109v294h149v-307q0 -249 -245 -249q-129 0 -186.5 54.5t-57.5 171.5v103q0 118 -84 118q-58 0 -85 -43t-27 -137v-257h-149v760h149v-155q0 -18 -3 -85l-4 -44h8q52 80 155 80q91 0 140 -52.5t49 -152.5v-113z" />
    <glyph glyph-name="uni0196" unicode="&#x196;" horiz-adv-x="402" 
d="M243 714v-524q0 -35 18 -54t47 -19q38 0 85 17v-119q-53 -25 -129 -25q-179 0 -179 187v537h158z" />
    <glyph glyph-name="uni0197" unicode="&#x197;" horiz-adv-x="389" 
d="M27 419h92v169l-87 40v86h325v-86l-87 -40v-169h92v-124h-92v-169l87 -40v-86h-325v86l87 40v169h-92v124z" />
    <glyph glyph-name="uni0198" unicode="&#x198;" horiz-adv-x="664" 
d="M664 0h-172l-187 301l-64 -46v-255h-151v714h151v-329l64 91l81 108q46 62 73.5 88t56.5 39.5t63 13.5q43 0 75 -15v-119q-22 9 -48 9q-42 0 -74 -43l-120 -159z" />
    <glyph glyph-name="uni0199" unicode="&#x199;" horiz-adv-x="620" 
d="M221 297l65 83l153 166h168l-217 -237l230 -309h-172l-157 221l-64 -51v-170h-149v595q0 84 44 128t131 44q41 0 78 -15v-114q-28 10 -55 10q-49 0 -49 -56v-171l-8 -124h2z" />
    <glyph glyph-name="uni019A" unicode="&#x19a;" horiz-adv-x="330" 
d="M239 420h81v-112h-81v-308h-149v308h-80v112h80v340h149v-340z" />
    <glyph glyph-name="uni019B" unicode="&#x19b;" horiz-adv-x="615" 
d="M4 0l231 516l-11 28l-100 -30l-25 82l83 25q-15 12 -32.5 16t-40.5 4q-24 0 -50 -6v123q39 8 81 8q65 0 109 -24t75 -77l93 29l25 -83l-83 -25l135 -372q18 -51 36.5 -75t45.5 -24q16 0 34 5v-115q-11 -6 -39 -10.5t-47 -4.5q-54 0 -88 26.5t-54 84.5
q-56 158 -66.5 190.5t-16.5 57.5h-3q-22 -75 -37 -112l-101 -237h-154z" />
    <glyph glyph-name="uni019C" unicode="&#x19c;" horiz-adv-x="1035" 
d="M439 714h151v-477q0 -120 87 -120q60 0 88 42t28 141v414h152v-714h-114l-21 76h-9q-24 -42 -68.5 -64t-99.5 -22q-115 0 -167 90h-7q-55 -90 -171 -90q-99 0 -151 52t-52 152v520h151v-477q0 -120 87 -120q61 0 88.5 41t27.5 125v431z" />
    <glyph glyph-name="uni019D" unicode="&#x19d;" horiz-adv-x="412" 
d="M-10.5 -181q-10.5 8 -10.5 22q0 13 9 23.5t23 16.5q3 2 14.5 7.5t20 12.5t14.5 15q8 13 8 29l1 35v36l-3 70q0 53 -6 168q-6 117 -6 142v128q0 31 3 92q4 53 4 92v6q0 50 22 50q13 0 33 -44q33 -72 84 -258q29 -108 68 -278q-1 4 16 -69l1 -5q0 97 2 174l2 174v296
q4 25 32 25q27 0 27 -39v-6q-6 -12 -6 -29q0 -61 -3 -184q-3 -124 -3 -186v-305q0 -16 -8.5 -30.5t-20.5 -14.5q-20 0 -82 206q-70 241 -121 443v-328q0 -42 8 -143q7 -110 7 -142q0 -58 -3 -80q-1 -5 -2 -15.5t-3 -17t-6 -13.5q-6 -12 -9.5 -17t-12.5 -14q-12 -11 -18 -14
l-49 -39q-16 0 -26.5 8z" />
    <glyph glyph-name="uni019E" unicode="&#x19e;" horiz-adv-x="657" 
d="M582 -240h-149v559q0 59 -21 88.5t-67 29.5q-62 0 -90 -41.5t-28 -138.5v-257h-149v546h114l20 -70h8q25 40 69 60t99 20q95 0 144.5 -51.5t49.5 -148.5v-596z" />
    <glyph glyph-name="uni019F" unicode="&#x19f;" horiz-adv-x="795" 
d="M738 358q0 -177 -88 -272.5t-252 -95.5t-252 95.5t-88 273.5t88 272t253 94t252 -94.5t87 -272.5zM398 117q80 0 126 47t55 139h-363q10 -88 54.5 -137t127.5 -49zM399 599q-154 0 -181 -170h359q-12 83 -56.5 126.5t-121.5 43.5z" />
    <glyph glyph-name="Ohorn" unicode="&#x1a0;" horiz-adv-x="372" 
d="M321 746.5q-31 -24.5 -70 -24.5h-9q27 -40 38 -95q16 -70 18 -134q4 -71 4 -134v-57q0 -17 -5 -64q-4 -37 -4 -63v-4q-6 -28 -6 -66q0 -28 -12 -58t-34 -51q-22 -24 -50 -24q-27 0 -49 18t-38 49q-29 54 -43 148q-10 65 -15 150l-1 53v54q-1 26 -1 63q0 60 5 106
q4 48 20 95q16 41 46 58q18 8 36 8q17 0 29 -4v1q9 -2 29.5 -4t32.5 -2q27 0 36 8t9 24q0 9 -4 21.5t-4 16.5q0 9 9.5 13.5t24.5 4.5q21 0 30 -10t9 -31q0 -41 -31 -65.5zM243 546q-8 69 -30 122q-10 25 -25 39t-32 14q-25 0 -37 -39q-15 -41 -20 -90q-6 -53 -7 -101l-1 -33
q-1 -14 -1 -38v-4q0 -67 14 -165q16 -133 47 -189q20 -35 42 -35q20 0 34 37q12 33 17.5 80.5t9.5 107.5q2 26 2 67l-1 92q-2 54 -12 135z" />
    <glyph glyph-name="ohorn" unicode="&#x1a1;" horiz-adv-x="360" 
d="M311 326l1 -57q0 -288 -134 -288q-26 0 -48 16.5t-36 44.5q-29 61 -36 133q-9 68 -9 131q0 12 1 20v18q0 5 -1 5v18l1 70q1 32 8 102q5 48 23 93q7 20 18 30.5t25 10.5q25 0 46 -6q24 -4 44 -4t33 9t13 23q0 9 -4 21.5t-4 16.5q0 18 35 18q38 0 38 -41q0 -34 -23.5 -57.5
t-56.5 -29.5l5 -5q20 -25 34 -61.5t20 -77.5q6 -42 6 -89v-8q0 -31 1 -56zM258 275q0 45 -7 118q-6 77 -6 115v18q-2 38 -25.5 66t-57.5 28t-45 -39q-10 -31 -10 -80q0 -19 1 -32v-27l-2 -46q-2 -21 -2 -46q0 -54 3 -107q4 -75 20 -146q16 -74 47 -74q18 0 33 14.5t23 39.5
q19 51 23 110q5 51 5 88z" />
    <glyph glyph-name="uni01A2" unicode="&#x1a2;" horiz-adv-x="1130" 
d="M718 358q0 -178 -85 -273t-245 -95q-161 0 -245.5 95t-84.5 274q0 177 85.5 271.5t245.5 94.5q154 0 239 -90q82 90 205 90q102 0 157.5 -60.5t55.5 -174.5v-490h-151v478q0 60 -26.5 90.5t-76.5 30.5q-36 0 -62.5 -10t-48.5 -34q37 -82 37 -197zM217 358
q0 -121 43.5 -181t127.5 -60q171 0 171 241t-170 241q-172 0 -172 -241z" />
    <glyph glyph-name="uni01A3" unicode="&#x1a3;" horiz-adv-x="929" 
d="M554 274q0 -134 -68 -209t-188 -75q-117 0 -185 75.5t-68 208.5q0 134 67.5 208t188.5 74q118 0 186 -78q62 78 173 78q95 0 144.5 -51.5t49.5 -148.5v-596h-149v559q0 59 -21 88.5t-67 29.5q-56 0 -85 -35q22 -58 22 -128zM197 274q0 -82 24.5 -123t78.5 -41t78 41
t24 123q0 81 -24.5 121.5t-78.5 40.5q-53 0 -77.5 -40t-24.5 -122z" />
    <glyph glyph-name="uni01A4" unicode="&#x1a4;" horiz-adv-x="750" 
d="M705 491q0 -115 -72 -176t-205 -61h-65v-254h-151v590h-26q-32 0 -46.5 -16.5t-14.5 -39.5q0 -22 10 -48h-118q-12 26 -12 58q0 82 47.5 126t137.5 44h250q130 0 197.5 -56t67.5 -167zM363 378h50q69 0 104 27.5t35 80.5t-29 78.5t-91 25.5h-69v-212z" />
    <glyph glyph-name="uni01A5" unicode="&#x1a5;" horiz-adv-x="632" 
d="M227 583q0 -44 -6 -108h6q24 40 64 60.5t91 20.5q97 0 151.5 -75.5t54.5 -206.5q0 -133 -54.5 -208.5t-151.5 -75.5q-104 0 -155 67h-7l4 -30l3 -46v-221h-149v833q0 83 44 127.5t131 44.5q41 0 78 -15v-114q-28 10 -55 10q-23 0 -35 -13t-14 -43v-7zM334 437
q-55 0 -80.5 -34t-26.5 -112v-16q0 -88 26 -126t83 -38q100 0 100 165q0 81 -24.5 121t-77.5 40z" />
    <glyph glyph-name="uni01A6" unicode="&#x1a6;" horiz-adv-x="660" 
d="M241 174v-174h-151v714h151v-100h57q146 0 215.5 -53t69.5 -161q0 -62 -33.5 -110.5t-99.5 -78.5l210 -311h-168l-170 274h-81zM241 297h49q72 0 106 24t34 75t-35 72.5t-108 21.5h-46v-193z" />
    <glyph glyph-name="uni01A7" unicode="&#x1a7;" horiz-adv-x="550" 
d="M42 193q0 74 40.5 126t133.5 92q67 28 94 44.5t38.5 33.5t11.5 41q0 33 -23.5 50.5t-67.5 17.5q-41 0 -81.5 -11t-89.5 -31l-45 118q111 50 228 50q106 0 166.5 -51.5t60.5 -145.5q0 -75 -40 -125.5t-139 -91.5q-61 -25 -87 -41.5t-39 -34.5t-13 -41q0 -37 26 -57.5
t78 -20.5q100 0 210 46v-126q-92 -45 -219 -45q-117 0 -180 51.5t-63 151.5z" />
    <glyph glyph-name="uni01A8" unicode="&#x1a8;" horiz-adv-x="497" 
d="M38 152q0 62 34.5 103.5t118.5 73.5q76 29 97 43t21 33q0 20 -19 30.5t-52 10.5q-37 0 -72.5 -11.5t-75.5 -28.5l-40 107q94 43 203 43q96 0 150 -39t54 -110q0 -62 -33 -100.5t-120 -72.5q-47 -19 -72 -32t-36 -24t-11 -29q0 -50 88 -50q91 0 174 43v-113
q-79 -39 -186 -39q-111 0 -167 41.5t-56 120.5z" />
    <glyph glyph-name="uni01A9" unicode="&#x1a9;" horiz-adv-x="592" 
d="M183 -21q-64 4 -113 11q-9 1 -17 7q-10 5 -2 5q-11 0 -17.5 10t-6.5 23q0 6 1 9q2 8 10 18l9 10q8 8 36 50q22 35 34 47q16 19 74.5 102t58.5 90q0 6 -4 11q-21 37 -67.5 113.5t-82.5 132.5q-21 34 -41 73q-6 11 -6 22q0 10 7 17t18 7q116 0 158 9h2q13 0 22 -1t19 -1
q18 0 31 8q-1 0 -1 1q5 5 15 5q12 0 19 -10t7 -28q0 -11 -16 -15q-13 -4 -22 -4h-26q-12 0 -22 1h-22q-25 0 -42 -4q-20 -5 -34 -5q-12 0 -22 -2q-24 -2 -27 -2h-2q14 -31 80 -140t80 -127q0 -2 11 -10q22 -20 22 -35q0 -11 -12.5 -41t-20.5 -37q-12 -10 -90 -114.5
t-104 -145.5q147 -21 204 -21l13 1h8q13 -10 13 -29q0 -9 -5 -16t-14 -7h-1q-43 6 -112 12z" />
    <glyph glyph-name="uni01AA" unicode="&#x1aa;" horiz-adv-x="367" 
d="M290 -240q-92 0 -136 45t-44 136v589h-27q-68 0 -105 32t-37 91q0 53 40 85t107 32q171 0 171 -179v-650q0 -32 18 -47t47 -15q39 0 94 17v-111q-53 -25 -128 -25zM67 688q-17 0 -26.5 -10.5t-9.5 -25.5q0 -19 14 -32t41 -13h24v31q0 25 -11.5 37.5t-31.5 12.5z" />
    <glyph glyph-name="uni01AB" unicode="&#x1ab;" horiz-adv-x="434" 
d="M260 -240q-42 0 -80 13v104q23 -9 48 -9q27 0 38.5 14t11.5 44v64h-13q-89 0 -130 45.5t-41 135.5v263h-71v63l82 50l43 115h95v-116h153v-112h-153v-263q0 -32 18 -47t47 -15q39 0 94 17v-200q0 -86 -36 -126t-106 -40z" />
    <glyph glyph-name="uni01AC" unicode="&#x1ac;" horiz-adv-x="618" 
d="M404 0h-151v588h-67q-32 0 -46.5 -16.5t-14.5 -39.5q0 -21 10 -46h-118q-12 26 -12 58q0 82 47.5 126t137.5 44h408v-126h-194v-588z" />
    <glyph glyph-name="uni01AD" unicode="&#x1ad;" horiz-adv-x="434" 
d="M308 109q39 0 94 17v-111q-56 -25 -137 -25q-89 0 -130 45.5t-41 135.5v263h-71v63l71 43v53q0 84 47 128t142 44q49 0 92 -16v-114q-37 11 -75 11q-30 0 -43.5 -14t-13.5 -42v-44h153v-112h-153v-263q0 -32 18 -47t47 -15z" />
    <glyph glyph-name="uni01AE" unicode="&#x1ae;" horiz-adv-x="579" 
d="M365 -61q0 -31 15 -45.5t38 -14.5q30 0 55 10v-114q-12 -5 -35 -10t-49 -5q-175 0 -175 176v652h-194v126h539v-126h-194v-649z" />
    </font>
</defs>
</svg>
