<?xml version="1.0" standalone="no"?>
<!DOCTYPE svg PUBLIC "-//W3C//DTD SVG 1.1//EN" "http://www.w3.org/Graphics/SVG/1.1/DTD/svg11.dtd" >
<svg xmlns="http://www.w3.org/2000/svg" xmlns:xlink="http://www.w3.org/1999/xlink" version="1.1">
<metadata>
Created by FontForge 20190801 at Mon Feb  8 12:12:32 2021
 By root
Copyright 2018 The Asap Project Authors (https://github.com/Omnibus-Type/Asap) with Reserved Font Name "Asap".
</metadata>
<defs>
<font id="Asap-Bold" horiz-adv-x="240" >
  <font-face 
    font-family="Asap"
    font-weight="700"
    font-stretch="normal"
    units-per-em="1000"
    panose-1="2 15 8 4 3 2 2 6 2 3"
    ascent="800"
    descent="-200"
    x-height="523"
    cap-height="703"
    bbox="-213 -242 1275 1027"
    underline-thickness="50"
    underline-position="-100"
    unicode-range="U+0001-206F"
  />
<missing-glyph horiz-adv-x="364" 
d="M33 0v666h265v-666h-265zM66 33h199v600h-199v-600z" />
    <glyph glyph-name=".notdef" horiz-adv-x="364" 
d="M33 0v666h265v-666h-265zM66 33h199v600h-199v-600z" />
    <glyph glyph-name=".null" horiz-adv-x="0" 
 />
    <glyph glyph-name="nonmarkingreturn" unicode="&#xd;" 
 />
    <glyph glyph-name="NULL" 
 />
    <glyph glyph-name="NULL" 
 />
    <glyph glyph-name="uni0001" 
 />
    <glyph glyph-name="uni0002" 
 />
    <glyph glyph-name="uni0003" 
 />
    <glyph glyph-name="uni0004" 
 />
    <glyph glyph-name="uni0005" 
 />
    <glyph glyph-name="uni0006" 
 />
    <glyph glyph-name="uni0007" 
 />
    <glyph glyph-name="uni0008" 
 />
    <glyph glyph-name="uni0009" unicode="&#x9;" 
 />
    <glyph glyph-name="uni000A" unicode="&#xa;" 
 />
    <glyph glyph-name="uni000B" 
 />
    <glyph glyph-name="uni000C" 
 />
    <glyph glyph-name="uni000E" 
 />
    <glyph glyph-name="uni000F" 
 />
    <glyph glyph-name="uni0010" 
 />
    <glyph glyph-name="uni0011" 
 />
    <glyph glyph-name="uni0012" 
 />
    <glyph glyph-name="uni0013" 
 />
    <glyph glyph-name="uni0014" 
 />
    <glyph glyph-name="uni0015" 
 />
    <glyph glyph-name="uni0016" 
 />
    <glyph glyph-name="uni0017" 
 />
    <glyph glyph-name="uni0018" 
 />
    <glyph glyph-name="uni0019" 
 />
    <glyph glyph-name="uni001A" 
 />
    <glyph glyph-name="uni001B" 
 />
    <glyph glyph-name="uni001C" 
 />
    <glyph glyph-name="uni001D" 
 />
    <glyph glyph-name="uni001E" 
 />
    <glyph glyph-name="uni001F" 
 />
    <glyph glyph-name="space" unicode=" " 
 />
    <glyph glyph-name="exclam" unicode="!" horiz-adv-x="294" 
d="M102 229.5q-11 7.5 -11 24.5v416q0 32 60 32h43q29 0 44.5 -7t15.5 -21l-50 -420q-2 -17 -12 -24.5t-39 -7.5h-11q-29 0 -40 7.5zM71 30v92q0 32 60 32h32q60 0 60 -32v-92q0 -32 -60 -32h-32q-60 0 -60 32z" />
    <glyph glyph-name="quotedbl" unicode="&#x22;" horiz-adv-x="320" 
d="M52 471q-8 7 -10 23l-22 176q-5 32 60 32h10q65 0 60 -32l-22 -176q-2 -16 -10 -23t-24 -7h-18q-16 0 -24 7zM202 471q-8 7 -10 23l-22 176q-5 32 60 32h10q65 0 60 -32l-22 -176q-2 -16 -10 -23t-24 -7h-18q-16 0 -24 7z" />
    <glyph glyph-name="numbersign" unicode="#" horiz-adv-x="534" 
d="M63 3q-11 5 -11 18l5 31q2 11 25 131h-43q-16 0 -23 12t-7 38v10q0 26 7 38t23 12h63l21 110h-48q-16 0 -23 12t-7 38v10q0 26 7 38t23 12h68l26 142q6 31 56 31h13q45 0 45 -22l-27 -151h94l26 142q6 31 56 31h13q45 0 45 -22l-27 -151h33q16 0 23 -12t7 -38v-10
q0 -26 -7 -38t-23 -12h-53l-21 -110h42q16 0 23 -12t7 -38v-10q0 -26 -7 -38t-23 -12h-62l-29 -154q-6 -31 -55 -31h-13q-24 0 -35 5t-11 18l5 31q2 11 25 131h-94l-29 -154q-6 -31 -55 -31h-13q-24 0 -35 5zM309 293l21 110h-94l-21 -110h94z" />
    <glyph glyph-name="dollar" unicode="$" horiz-adv-x="500" 
d="M434.5 58.5q-47.5 -54.5 -143.5 -63.5v-51q0 -25 -26 -25h-5q-26 0 -26 25v49q-105 4 -169 38q-21 12 -32.5 25t-11.5 24q0 15 11 36t26 37t25 16q9 0 29 -11q29 -16 61 -25t61 -10v164q-3 1 -14 5q-76 30 -130.5 83.5t-54.5 127.5q0 84 54 138t145 65v37q0 25 26 25h5
q26 0 26 -25v-35q44 -2 79.5 -12t56.5 -24q25 -17 25 -34q0 -14 -9 -35t-22 -36.5t-24 -15.5q-5 0 -40 11q-30 9 -66 12v-150l5 -2q186 -80 186 -215q0 -94 -47.5 -148.5zM196 480.5q13 -15.5 38 -29.5v123q-24 -5 -37.5 -20t-13.5 -37q0 -21 13 -36.5zM336 196
q0 22 -11.5 37.5t-33.5 27.5v-131q45 14 45 66z" />
    <glyph glyph-name="percent" unicode="%" horiz-adv-x="765" 
d="M82 409q-43 37 -43 131t43 131t107 37t107 -37t43 -131t-43 -131t-107 -37t-107 37zM152.5 1.5q-5.5 3.5 -5.5 9.5q0 5 5 15l357 648q16 28 44 28h44q10 0 15.5 -4t5.5 -10q0 -4 -5 -14l-357 -648q-16 -28 -44 -28h-44q-10 0 -15.5 3.5zM236 540q0 82 -47 82
q-27 0 -37.5 -23.5t-10.5 -58.5q0 -36 11 -61t37 -25q47 0 47 86zM469 29q-43 37 -43 131t43 131t107 37t107 -37t43 -131t-43 -131t-107 -37t-107 37zM623 160q0 82 -47 82q-27 0 -37.5 -23.5t-10.5 -58.5q0 -36 11 -61t37 -25q47 0 47 86z" />
    <glyph glyph-name="ampersand" unicode="&#x26;" horiz-adv-x="624" 
d="M620 98q7 -15 11 -33t4 -24q0 -49 -96 -49q-72 0 -109 40q-43 -22 -83 -31t-98 -9q-101 0 -163.5 57t-62.5 155q0 63 29 110t87 69v4q-43 18 -68 56.5t-25 89.5q0 80 55.5 127.5t149.5 47.5q48 0 79 -8t31 -34q0 -35 -11 -58.5t-24 -23.5q-4 0 -18.5 3.5t-30.5 3.5
q-40 0 -60.5 -22t-20.5 -60t27.5 -60.5t75.5 -22.5h94l13 95q5 32 54 32h31q50 0 50 -32v-95h49q16 0 23 -12t7 -38v-17q0 -26 -7 -38t-23 -12h-49v-157q0 -23 8.5 -33t27.5 -10q5 0 13.5 2t13.5 2q9 0 16 -15zM200 134.5q27 -25.5 72 -25.5q59 0 121 27v173h-103
q-61 0 -89 -26t-28 -77q0 -46 27 -71.5z" />
    <glyph glyph-name="quotesingle" unicode="'" horiz-adv-x="192" 
d="M63 471q-8 7 -10 23l-22 176q-5 32 60 32h10q65 0 60 -32l-22 -176q-2 -16 -10 -23t-24 -7h-18q-16 0 -24 7z" />
    <glyph glyph-name="parenleft" unicode="(" horiz-adv-x="301" 
d="M201 -192q-73 105 -111.5 227t-38.5 252q0 132 38 255t112 225q12 16 27 16q16 0 36.5 -15t20.5 -31q0 -11 -5 -20q-60 -112 -86 -214t-26 -216q0 -116 25.5 -217.5t86.5 -211.5q5 -9 5 -20q0 -16 -20.5 -31t-36.5 -15q-15 0 -27 16z" />
    <glyph glyph-name="parenright" unicode=")" horiz-adv-x="301" 
d="M33.5 -193q-20.5 15 -20.5 31q0 11 5 20q60 112 86 213.5t26 215.5q0 117 -25.5 219t-86.5 211q-5 9 -5 20q0 16 20.5 31t36.5 15q15 0 27 -16q73 -105 111.5 -227.5t38.5 -252.5q0 -131 -38 -254t-112 -225q-12 -16 -27 -16q-16 0 -36.5 15z" />
    <glyph glyph-name="asterisk" unicode="*" horiz-adv-x="373" 
d="M82.5 421q-11.5 10 -11.5 19q0 10 9 20l56 79l-75 24q-22 7 -22 23q0 13 7 25t21 12q9 0 14 -2l77 -25v82q0 16 7 23t23 7t23 -7t7 -23v-82l75 25q5 2 13 2q11 0 20 -10t9 -27q0 -9 -5 -14t-17 -9l-76 -24l57 -79q8 -9 8 -20q0 -9 -11.5 -19t-21.5 -10q-12 0 -23 15
l-59 83l-59 -83q-11 -15 -23 -15q-11 0 -22.5 10z" />
    <glyph glyph-name="plus" unicode="+" horiz-adv-x="560" 
d="M234 7q-12 7 -12 23v152h-152q-16 0 -23 12t-7 38v7q0 26 7 38t23 12h152v154q0 16 12 23t38 7h14q26 0 38 -7t12 -23v-154h154q16 0 23 -12t7 -38v-7q0 -26 -7 -38t-23 -12h-154v-152q0 -16 -12 -23t-38 -7h-14q-26 0 -38 7z" />
    <glyph glyph-name="comma" unicode="," horiz-adv-x="198" 
d="M2.5 -119.5q-14.5 5.5 -14.5 16.5q0 10 9 33q17 45 26 81t9 99q0 44 60 44h19q30 0 45 -12t15 -32q0 -53 -24.5 -107.5t-58 -91t-55.5 -36.5q-16 0 -30.5 5.5z" />
    <glyph glyph-name="hyphen" unicode="-" horiz-adv-x="320" 
d="M35 224q-7 12 -7 38v7q0 26 7 38t23 12h204q16 0 23 -12t7 -38v-7q0 -26 -7 -38t-23 -12h-204q-16 0 -23 12z" />
    <glyph glyph-name="period" unicode="." horiz-adv-x="198" 
d="M23 30v92q0 32 60 32h32q60 0 60 -32v-92q0 -32 -60 -32h-32q-60 0 -60 32z" />
    <glyph glyph-name="slash" unicode="/" horiz-adv-x="422" 
d="M0 -63q0 2 8 22l289 718q6 14 20.5 19.5t38.5 5.5h13q53 0 53 -16q0 -6 -7 -22l-290 -718q-6 -15 -19.5 -20t-38.5 -5h-18q-49 0 -49 16z" />
    <glyph glyph-name="zero" unicode="0" horiz-adv-x="535" 
d="M141 34.5q-53 42.5 -81.5 123t-28.5 192.5t28.5 192.5t81.5 123t127 42.5t127 -42.5t81.5 -123t28.5 -192.5t-28.5 -192.5t-81.5 -123t-127 -42.5t-127 42.5zM332.5 170q22.5 61 22.5 180t-22.5 180t-64.5 61t-64.5 -61t-22.5 -180t22.5 -180t64.5 -61t64.5 61z" />
    <glyph glyph-name="one" unicode="1" horiz-adv-x="535" 
d="M61 12q-7 12 -7 38v17q0 26 7 38t23 12h133v449l-136 -20q-17 0 -24.5 27.5t-7.5 56.5q0 23 26 28l249 46q13 0 27 -7.5t14 -16.5v-563h97q16 0 23 -12t7 -38v-17q0 -26 -7 -38t-23 -12h-378q-16 0 -23 12z" />
    <glyph glyph-name="two" unicode="2" horiz-adv-x="535" 
d="M44 31.5q-9 31.5 -9 56.5q0 11 3 15l253 310q38 47 38 96q0 39 -26 60t-67 21q-28 0 -48.5 -8.5t-43.5 -22.5q-17 -12 -25 -12q-22 0 -39.5 24t-17.5 45q0 42 61 67t138 25q103 0 160.5 -54t57.5 -142t-61 -163l-188 -232h231q16 0 23 -12t7 -38v-17q0 -26 -7 -38
t-23 -12h-398q-10 0 -19 31.5z" />
    <glyph glyph-name="three" unicode="3" horiz-adv-x="535" 
d="M158.5 0q-50.5 8 -86.5 26.5t-36 47.5q0 10 8 28.5t19 33t22 14.5q6 0 26 -10q29 -14 56 -22.5t63 -8.5q45 0 72 25.5t27 71.5q0 51 -28 76.5t-89 25.5h-28q-16 0 -23 12t-7 38v18q0 26 7 38t23 12h19q48 0 75.5 22.5t27.5 60.5t-20.5 59.5t-60.5 21.5q-33 0 -55 -6.5
t-42 -16.5q-14 -8 -21 -8q-15 0 -32.5 27.5t-17.5 48.5q0 35 56.5 54t137.5 19q94 0 149.5 -47.5t55.5 -127.5q0 -51 -25 -89.5t-68 -56.5v-4q58 -22 87 -69t29 -110q0 -98 -62.5 -155t-163.5 -57q-44 0 -94.5 8z" />
    <glyph glyph-name="four" unicode="4" horiz-adv-x="535" 
d="M302 30v112h-262q-12 0 -24.5 35t-12.5 58q0 7 2 11l297 437q8 12 22 15.5t39 3.5h27q60 0 60 -32v-411h38q16 0 23 -12t7 -38v-17q0 -26 -7 -38t-23 -12h-38v-112q0 -32 -60 -32h-28q-60 0 -60 32zM302 259v154q0 23 3 49.5t8 43.5l-4 1l-157 -248h150z" />
    <glyph glyph-name="five" unicode="5" horiz-adv-x="535" 
d="M134 1.5q-45 9.5 -70.5 26t-25.5 36.5q0 9 9 28.5t21.5 35t23.5 15.5q3 0 25.5 -9.5t51.5 -17t64 -7.5q49 0 78 27.5t29 75.5q0 55 -29 83t-96 28h-109q-21 0 -29 9t-8 31l19 297q2 21 11.5 30.5t30.5 9.5h295q16 0 23 -12t7 -38v-27q0 -21 -7 -30.5t-23 -9.5h-202
l-10 -143h26q122 0 186.5 -51t64.5 -173q0 -80 -37 -130t-95 -72t-124 -22q-55 0 -100 9.5z" />
    <glyph glyph-name="six" unicode="6" horiz-adv-x="535" 
d="M154.5 18.5q-53.5 26.5 -87.5 85t-34 149.5q0 171 76.5 271.5t162.5 140t115 39.5q16 0 27 -15.5t17 -35.5t6 -32q0 -11 -2.5 -15t-10.5 -6q-76 -23 -134.5 -74t-82.5 -123q46 25 100 25q43 0 88 -21t77 -68.5t32 -122.5q0 -77 -34 -127t-87 -73.5t-114 -23.5
t-114.5 26.5zM330.5 138q24.5 29 24.5 74q0 46 -24 72.5t-67 26.5q-36 0 -79 -24q-1 -15 -1 -46q0 -70 23.5 -101t62.5 -31q36 0 60.5 29z" />
    <glyph glyph-name="seven" unicode="7" horiz-adv-x="535" 
d="M85 17q0 7 6 19l248 547h-261q-16 0 -23 12t-7 38v17q0 26 7 38t23 12h396q8 0 19 -33t11 -57q0 -7 -2 -13l-263 -579q-5 -11 -19.5 -15.5t-38.5 -4.5h-37q-59 0 -59 19z" />
    <glyph glyph-name="eight" unicode="8" horiz-adv-x="535" 
d="M134.5 20q-54.5 28 -80 75.5t-25.5 105.5q0 67 28.5 112t72.5 62q-35 24 -54.5 58t-19.5 86q0 51 24.5 94t74.5 69t121 26q63 0 110 -23.5t72 -63t25 -87.5q0 -59 -22.5 -92.5t-64.5 -56.5q110 -50 110 -193q0 -50 -24.5 -95.5t-77 -75t-133.5 -29.5q-82 0 -136.5 28z
M339 524q0 30 -20 48.5t-48 18.5q-29 0 -49 -18t-20 -49q0 -35 21 -55t62 -37q54 36 54 92zM333 137q23 28 23 63q0 37 -16 60.5t-40.5 37t-66.5 28.5q-27 -20 -41 -47.5t-14 -68.5q0 -46 24 -73.5t67 -27.5q41 0 64 28z" />
    <glyph glyph-name="nine" unicode="9" horiz-adv-x="535" 
d="M120 10.5q-11 15.5 -17 35.5t-6 32q0 11 2.5 15t10.5 6q76 21 134.5 73t82.5 124q-46 -25 -100 -25q-43 0 -88 21t-77 68.5t-32 122.5q0 77 34 127t87 73.5t114 23.5t114.5 -26.5t87.5 -85t34 -149.5q0 -171 -76.5 -271.5t-162.5 -140t-115 -39.5q-16 0 -27 15.5z
M349 412q1 15 1 46q0 70 -23.5 101t-62.5 31q-36 0 -60.5 -29t-24.5 -74q0 -46 24 -72.5t67 -26.5q36 0 79 24z" />
    <glyph glyph-name="colon" unicode=":" horiz-adv-x="198" 
d="M23 401v92q0 32 60 32h32q60 0 60 -32v-92q0 -32 -60 -32h-32q-60 0 -60 32zM23 30v92q0 32 60 32h32q60 0 60 -32v-92q0 -32 -60 -32h-32q-60 0 -60 32z" />
    <glyph glyph-name="semicolon" unicode=";" horiz-adv-x="198" 
d="M23 401v92q0 32 60 32h32q60 0 60 -32v-92q0 -32 -60 -32h-32q-60 0 -60 32zM2.5 -119.5q-14.5 5.5 -14.5 16.5q0 10 9 33q17 45 26 81t9 99q0 44 60 44h19q30 0 45 -12t15 -32q0 -53 -24.5 -107.5t-58 -91t-55.5 -36.5q-16 0 -30.5 5.5z" />
    <glyph glyph-name="less" unicode="&#x3c;" horiz-adv-x="560" 
d="M489 14l-420 180q-15 7 -21.5 16.5t-6.5 25.5v19q0 16 6.5 25.5t21.5 16.5l419 179q6 3 15 3q15 0 15 -41v-16q0 -49 -30 -61l-292 -116l293 -116q30 -12 30 -61v-16q0 -42 -15 -42q-7 0 -15 4z" />
    <glyph glyph-name="equal" unicode="=" horiz-adv-x="560" 
d="M47 279q-7 12 -7 38v7q0 26 7 38t23 12h420q16 0 23 -12t7 -38v-7q0 -26 -7 -38t-23 -12h-420q-16 0 -23 12zM47 99q-7 12 -7 38v7q0 26 7 38t23 12h420q16 0 23 -12t7 -38v-7q0 -26 -7 -38t-23 -12h-420q-16 0 -23 12z" />
    <glyph glyph-name="greater" unicode="&#x3e;" horiz-adv-x="560" 
d="M40 52v16q0 49 30 61l293 116l-292 116q-30 12 -30 61v16q0 41 15 41q9 0 15 -3l419 -179q15 -7 21.5 -16.5t6.5 -25.5v-19q0 -16 -6.5 -25.5t-21.5 -16.5l-420 -180q-8 -4 -15 -4q-15 0 -15 42z" />
    <glyph glyph-name="question" unicode="?" horiz-adv-x="445" 
d="M129.5 228.5q-11.5 6.5 -11.5 22.5q0 40 18.5 75.5t49.5 72.5q15 18 30 33q29 32 43 51.5t14 36.5q0 56 -74 56q-26 0 -46.5 -6.5t-43.5 -16.5q-16 -8 -22 -8q-13 0 -27.5 15.5t-25 35.5t-10.5 31q0 40 59 60.5t129 20.5q101 0 159 -48t58 -130q0 -54 -24.5 -91
t-69.5 -77l-17 -15q-35 -31 -52.5 -51.5t-22.5 -46.5q-3 -15 -15 -21t-38 -6h-23q-26 0 -37.5 6.5zM102 30v92q0 32 60 32h32q60 0 60 -32v-92q0 -32 -60 -32h-32q-60 0 -60 32z" />
    <glyph glyph-name="at" unicode="@" horiz-adv-x="974" 
d="M719 667.5q75 -40.5 116.5 -114t41.5 -170.5q0 -89 -31 -163.5t-84.5 -118t-117.5 -43.5q-44 0 -74 19t-40 46q-17 -29 -47 -47t-66 -18q-62 0 -98.5 47t-36.5 134q0 79 23.5 140.5t65.5 95t96 33.5q32 0 58.5 -14t43.5 -31q6 23 16 31.5t36 8.5h12q47 0 47 -26l-9 -81
q-22 -205 -22 -219q0 -36 35 -36q34 0 64 33t47.5 89t17.5 120q0 81 -33.5 142.5t-94.5 95t-141 33.5q-106 0 -194.5 -55t-140 -150t-51.5 -209q0 -91 33 -161t92.5 -109t136.5 -39q43 0 71 6t54 16q21 7 29 7q14 0 14 -33q0 -26 -56.5 -38t-111.5 -12q-96 0 -170 45.5
t-115 128t-41 189.5q0 130 59.5 237t162.5 169t228 62q100 0 175 -40.5zM537 307q4 40 13 80q-25 23 -54 23q-42 0 -65.5 -42t-23.5 -121q0 -88 57 -88q34 0 65 48q4 60 8 100z" />
    <glyph glyph-name="A" unicode="A" horiz-adv-x="613" 
d="M0 20q0 4 4 18l220 643q8 21 57 21h52q50 0 57 -21l220 -643q3 -10 3 -18q0 -22 -50 -22h-44q-49 0 -56 21l-40 122h-236l-40 -122q-7 -21 -46 -21h-40q-61 0 -61 22zM380 273l-57 178q-7 20 -15 64h-4q-1 -6 -4.5 -26.5t-10.5 -37.5l-59 -178h150z" />
    <glyph glyph-name="B" unicode="B" horiz-adv-x="593" 
d="M85.5 9.5q-9.5 9.5 -9.5 30.5v620q0 21 9.5 30.5t30.5 9.5h198q122 0 179 -47t57 -130q0 -50 -30.5 -91.5t-77.5 -60.5l1 -4q59 -12 97 -59t38 -105q0 -98 -62.5 -150.5t-187.5 -52.5h-212q-21 0 -30.5 9.5zM299 421q44 0 68.5 21t24.5 54q0 74 -91 74h-71v-149h69z
M328 131q44 0 68 21t24 60t-28 58.5t-80 19.5h-82v-159h98z" />
    <glyph glyph-name="C" unicode="C" horiz-adv-x="619" 
d="M125.5 79.5q-80.5 87.5 -80.5 272.5q0 356 334 356q50 0 102 -10.5t81 -27.5q26 -15 26 -32q0 -14 -11 -36.5t-26.5 -40t-27.5 -17.5q-3 0 -24 9t-51 16t-72 7q-88 0 -130.5 -56t-42.5 -169q0 -228 171 -228q45 0 78 9t64 23q16 8 22 8q15 0 28.5 -17t22 -38.5t8.5 -31.5
q0 -26 -35 -46q-33 -19 -87 -28.5t-101 -9.5q-168 0 -248.5 87.5z" />
    <glyph glyph-name="D" unicode="D" horiz-adv-x="695" 
d="M85.5 9.5q-9.5 9.5 -9.5 30.5v620q0 21 9.5 30.5t30.5 9.5h214q155 0 237.5 -90.5t82.5 -259.5t-82.5 -259.5t-237.5 -90.5h-214q-21 0 -30.5 9.5zM330 131q80 0 121 56t41 163t-41 163t-121 56h-99v-438h99z" />
    <glyph glyph-name="E" unicode="E" horiz-adv-x="546" 
d="M86.5 9.5q-9.5 9.5 -9.5 30.5v620q0 21 9.5 30.5t30.5 9.5h351q16 0 23 -12t7 -38v-31q0 -26 -7 -38t-23 -12h-237v-145h210q16 0 23 -12t7 -38v-31q0 -26 -7 -38t-23 -12h-210v-162h238q16 0 23 -12t7 -38v-31q0 -26 -7 -38t-23 -12h-352q-21 0 -30.5 9.5z" />
    <glyph glyph-name="F" unicode="F" horiz-adv-x="503" 
d="M76 30v630q0 21 9.5 30.5t30.5 9.5h329q16 0 23 -12t7 -38v-31q0 -26 -7 -38t-23 -12h-215v-176h208q16 0 23 -12t7 -38v-31q0 -26 -7 -38t-23 -12h-208v-232q0 -32 -60 -32h-34q-60 0 -60 32z" />
    <glyph glyph-name="G" unicode="G" horiz-adv-x="672" 
d="M597.5 379.5q9.5 -9.5 9.5 -30.5v-278q0 -45 -75 -62t-158 -17q-168 0 -248.5 87.5t-80.5 272.5q0 356 334 356q46 0 96 -9t84 -25t34 -36q0 -14 -11 -36.5t-26.5 -40t-27.5 -17.5q-3 0 -25 9t-53.5 16t-73.5 7q-88 0 -130.5 -56t-42.5 -169q0 -228 171 -228q40 0 78 7
v127h-88q-16 0 -23 12t-7 38v32q0 26 7 38t23 12h203q21 0 30.5 -9.5z" />
    <glyph glyph-name="H" unicode="H" horiz-adv-x="733" 
d="M77 30v640q0 32 60 32h35q60 0 60 -32v-247h270v247q0 32 60 32h35q60 0 60 -32v-640q0 -32 -60 -32h-35q-60 0 -60 32v261h-270v-261q0 -32 -60 -32h-35q-60 0 -60 32z" />
    <glyph glyph-name="I" unicode="I" horiz-adv-x="283" 
d="M64 30v640q0 33 60 33h35q60 0 60 -33v-640q0 -33 -60 -33h-35q-60 0 -60 33z" />
    <glyph glyph-name="J" unicode="J" horiz-adv-x="402" 
d="M42 1q-42 9 -42 37q0 23 10.5 57t30.5 36q4 0 19.5 -4t36.5 -4q45 0 64.5 24.5t19.5 79.5v443q0 33 60 33h35q60 0 60 -33v-468q0 -99 -52 -154.5t-160 -55.5q-40 0 -82 9z" />
    <glyph glyph-name="K" unicode="K" horiz-adv-x="576" 
d="M69 30v640q0 32 60 32h35q60 0 60 -32v-268l4 -1l174 282q11 19 60 19h47q56 0 56 -15q0 -9 -8 -21l-193 -296l219 -336q8 -12 8 -21q0 -15 -56 -15h-58q-50 0 -61 19l-188 304l-4 -1v-290q0 -32 -60 -32h-35q-60 0 -60 32z" />
    <glyph glyph-name="L" unicode="L" horiz-adv-x="484" 
d="M85.5 9.5q-9.5 9.5 -9.5 30.5v630q0 32 60 32h34q60 0 60 -32v-539h216q16 0 23 -12t7 -38v-31q0 -26 -7 -38t-23 -12h-330q-21 0 -30.5 9.5z" />
    <glyph glyph-name="M" unicode="M" horiz-adv-x="843" 
d="M367 186l-123 220q-13 22 -22 39l-4 -1v-49v-365q0 -32 -60 -32h-29q-60 0 -60 32v640q0 32 60 32h53q48 0 63 -27l166 -296l10 -17l9 17l169 296q15 27 63 27h52q60 0 60 -32v-640q0 -32 -60 -32h-29q-60 0 -60 32v365v49l-4 1q-9 -17 -22 -39l-123 -220
q-14 -19 -40 -19h-29q-26 0 -40 19z" />
    <glyph glyph-name="N" unicode="N" horiz-adv-x="719" 
d="M69 30v640q0 32 60 32h43q24 0 40 -5.5t26 -21.5l225 -347q20 -29 36 -59l4 1q-2 23 -2 68v332q0 32 60 32h29q60 0 60 -32v-640q0 -32 -60 -32h-38q-24 0 -40 5.5t-26 21.5l-230 352q-20 29 -36 59l-4 -1q2 -23 2 -68v-337q0 -32 -60 -32h-29q-60 0 -60 32z" />
    <glyph glyph-name="O" unicode="O" horiz-adv-x="731" 
d="M128 84.5q-83 92.5 -83 265.5t83 265.5t238 92.5t237.5 -92.5t82.5 -265.5t-82.5 -265.5t-237.5 -92.5t-238 92.5zM487 181q41 58 41 169t-41 168.5t-121 57.5t-121.5 -57.5t-41.5 -168.5t41.5 -169t121.5 -58t121 58z" />
    <glyph glyph-name="P" unicode="P" horiz-adv-x="570" 
d="M69 30v630q0 21 9.5 30.5t30.5 9.5h210q94 0 166 -45.5t72 -173.5q0 -88 -42 -136.5t-94 -65.5t-92 -17h-106v-232q0 -32 -60 -32h-34q-60 0 -60 32zM312 394q36 0 61.5 19t25.5 68t-25.5 68.5t-61.5 19.5h-89v-175h89z" />
    <glyph glyph-name="Q" unicode="Q" horiz-adv-x="731" 
d="M610.5 -135.5q-26.5 10.5 -35.5 13.5q-71 29 -348 138q-89 35 -135.5 120t-46.5 214q0 173 83 265.5t238 92.5t237.5 -92.5t82.5 -265.5q0 -118 -40.5 -199t-116.5 -120v-4l153 -55q14 -5 14 -16q0 -10 -8 -35.5t-20.5 -46t-26.5 -20.5q-4 0 -30.5 10.5zM487 178
q41 59 41 172q0 111 -41 168.5t-121 57.5t-121.5 -57.5t-41.5 -168.5q0 -113 41.5 -172t121.5 -59t121 59z" />
    <glyph glyph-name="R" unicode="R" horiz-adv-x="610" 
d="M69 30v630q0 21 9.5 30.5t30.5 9.5h195q249 0 249 -188q0 -56 -31.5 -97.5t-85.5 -61.5v-4q19 -7 39 -33.5t33 -58.5l88 -220q5 -13 5 -19q0 -9 -15 -14.5t-45 -5.5h-41q-49 0 -58 21l-79 195q-17 33 -36.5 46.5t-64.5 13.5h-39v-244q0 -32 -60 -32h-34q-60 0 -60 32z
M318 407q31 0 54 25t23 61q0 35 -22.5 55.5t-61.5 20.5h-88v-162h95z" />
    <glyph glyph-name="S" unicode="S" horiz-adv-x="500" 
d="M133 6q-53 14 -83 36q-28 19 -28 38q0 15 11 36t26 37t25 16q6 0 28 -12q32 -16 58 -25t61 -9q39 0 66.5 15.5t27.5 54.5q0 32 -25.5 50.5t-82.5 41.5l-46 20q-63 30 -99 74.5t-36 126.5q0 68 33.5 113.5t87.5 67t116 21.5q51 0 92.5 -10.5t65.5 -27.5q22 -16 22 -32
q0 -14 -9 -35t-22 -36.5t-24 -15.5q-5 0 -16.5 5t-19.5 8q-36 12 -75 12q-52 0 -72.5 -17t-20.5 -39q0 -26 14 -43t34 -27.5t59 -27.5q57 -24 93 -45.5t62.5 -62t26.5 -103.5q0 -77 -32.5 -126t-83.5 -71t-110 -22q-71 0 -124 14z" />
    <glyph glyph-name="T" unicode="T" horiz-adv-x="549" 
d="M197 30v539h-159q-16 0 -23 12t-7 38v31q0 26 7 38t23 12h473q16 0 23 -12t7 -38v-31q0 -26 -7 -38t-23 -12h-159v-539q0 -32 -60 -32h-35q-60 0 -60 32z" />
    <glyph glyph-name="U" unicode="U" horiz-adv-x="712" 
d="M142 55.5q-76 63.5 -76 178.5v436q0 32 60 32h34q60 0 60 -32v-426q0 -53 38 -87t98 -34t98.5 34t38.5 87v426q0 32 60 32h33q60 0 60 -32v-436q0 -115 -76 -178.5t-214 -63.5t-214 63.5z" />
    <glyph glyph-name="V" unicode="V" horiz-adv-x="617" 
d="M227 19l-216 643q-4 14 -4 18q0 22 61 22h35q50 0 59 -29l124 -397q19 -61 22 -91h4q3 30 22 91l128 397q10 29 59 29h29q60 0 60 -22q0 -7 -3 -18l-216 -643q-7 -21 -56 -21h-52q-49 0 -56 21z" />
    <glyph glyph-name="W" unicode="W" horiz-adv-x="910" 
d="M186.5 4q-13.5 6 -17.5 20l-157 637q-2 12 -2 15q0 26 62 26h26q60 0 67 -31l75 -322q9 -41 16.5 -95.5t9.5 -95.5h4q6 47 16 102t19 90l82 331q3 12 16.5 16.5t38.5 4.5h38q25 0 38.5 -4.5t16.5 -16.5l79 -332q11 -50 20 -104.5t11 -86.5h4q4 37 13.5 92t20.5 101
l77 320q7 31 67 31h11q62 0 62 -26q0 -9 -2 -15l-161 -637q-7 -26 -57 -26h-73q-51 0 -56 26l-74 313l-21 126h-4q-16 -100 -22 -126l-76 -312q-7 -27 -57 -27h-72q-25 0 -38.5 6z" />
    <glyph glyph-name="X" unicode="X" horiz-adv-x="611" 
d="M8 17q0 9 10 25l206 323l-183 293q-10 17 -10 25q0 9 16 14t48 5h41q49 0 60 -19l114 -186l120 186q8 12 22 15.5t39 3.5h39q63 0 63 -19q0 -11 -10 -25l-189 -295l200 -321q9 -15 9 -25q0 -19 -63 -19h-39q-49 0 -60 19l-133 215l-138 -215q-8 -12 -21.5 -15.5
t-39.5 -3.5h-38q-63 0 -63 19z" />
    <glyph glyph-name="Y" unicode="Y" horiz-adv-x="559" 
d="M203 30v306l-199 321q-10 17 -10 25q0 20 64 20h43q49 0 60 -19l122 -214l123 214q11 19 60 19h36q63 0 63 -20q0 -10 -9 -25l-199 -324v-303q0 -32 -60 -32h-34q-60 0 -60 32z" />
    <glyph glyph-name="Z" unicode="Z" horiz-adv-x="616" 
d="M40.5 33.5q-13.5 33.5 -13.5 55.5q0 6 2 10l335 470h-278q-16 0 -23 12t-7 38v31q0 26 7 38t23 12h457q11 0 24 -35t13 -57q0 -8 -5 -14l-330 -463h305q16 0 23 -12t7 -38v-31q0 -26 -7 -38t-23 -12h-484q-12 0 -25.5 33.5z" />
    <glyph glyph-name="bracketleft" unicode="[" horiz-adv-x="291" 
d="M74.5 -128.5q-9.5 9.5 -9.5 30.5v826q0 21 9.5 30.5t30.5 9.5h126q16 0 23 -9.5t7 -30.5v-15q0 -21 -7 -30.5t-23 -9.5h-51v-716h51q16 0 23 -9.5t7 -30.5v-15q0 -21 -7 -30.5t-23 -9.5h-126q-21 0 -30.5 9.5z" />
    <glyph glyph-name="backslash" unicode="\" horiz-adv-x="422" 
d="M316.5 -74q-13.5 5 -19.5 20l-290 718q-7 16 -7 22q0 16 53 16h13q24 0 38.5 -5.5t20.5 -19.5l289 -718q8 -20 8 -22q0 -16 -49 -16h-18q-25 0 -38.5 5z" />
    <glyph glyph-name="bracketright" unicode="]" horiz-adv-x="291" 
d="M38 -128.5q-7 9.5 -7 30.5v15q0 21 7 30.5t23 9.5h51v716h-51q-16 0 -23 9.5t-7 30.5v15q0 21 7 30.5t23 9.5h126q21 0 30.5 -9.5t9.5 -30.5v-826q0 -21 -9.5 -30.5t-30.5 -9.5h-126q-16 0 -23 9.5z" />
    <glyph glyph-name="asciicircum" unicode="^" horiz-adv-x="450" 
d="M35 333q0 3 4 15l129 308q12 30 42 30h31q30 0 42 -30l129 -308q4 -8 4 -15q0 -15 -32 -15h-21q-39 0 -52 30l-86 207l-86 -207q-13 -30 -51 -30h-21q-32 0 -32 15z" />
    <glyph glyph-name="underscore" unicode="_" horiz-adv-x="535" 
d="M-13 -126q-7 12 -7 38v7q0 26 7 38t23 12h515q16 0 23 -12t7 -38v-7q0 -26 -7 -38t-23 -12h-515q-16 0 -23 12z" />
    <glyph glyph-name="grave" unicode="`" horiz-adv-x="191" 
d="M109 579q-18 7 -33 23l-57 63q-19 21 -19 36q0 10 11.5 13.5t41.5 3.5q45 0 60 -6t25 -25l40 -72q3 -6 8 -14.5t5 -13.5q0 -7 -8.5 -11t-32.5 -4q-23 0 -41 7z" />
    <glyph glyph-name="a" unicode="a" horiz-adv-x="545" 
d="M77.5 32q-35.5 40 -35.5 106q0 80 58.5 133t228.5 53v33q0 29 -18.5 43t-59.5 14q-34 0 -59.5 -7t-45.5 -16t-23 -9q-10 0 -22 15t-21 34.5t-9 30.5q0 17 25 33t69 26t97 10q113 0 164 -44.5t51 -122.5v-188q0 -46 2.5 -70t6.5 -53q3 -13 3 -22q0 -16 -40.5 -24t-71.5 -8
q-18 0 -25 14.5t-10.5 31.5t-4.5 23q-6 -11 -24 -28.5t-50 -32.5t-73 -15q-77 0 -112.5 40zM292 127q25 18 37 45v55q-140 0 -140 -74q0 -20 13 -32t37 -12q28 0 53 18z" />
    <glyph glyph-name="b" unicode="b" horiz-adv-x="569" 
d="M259.5 13q-35.5 21 -53.5 54q-4 -21 -14 -43q-7 -15 -19 -20.5t-35 -5.5h-12q-60 0 -60 32v692q0 32 60 32h28q60 0 60 -32v-222q43 31 102 31q100 0 155.5 -72.5t55.5 -196.5q0 -85 -24 -146t-66.5 -92.5t-96.5 -31.5q-45 0 -80.5 21zM377 262q0 152 -93 152
q-36 0 -70 -19v-223q34 -59 82 -59q81 0 81 149z" />
    <glyph glyph-name="c" unicode="c" horiz-adv-x="485" 
d="M104 57.5q-62 65.5 -62 200.5q0 136 62.5 204.5t194.5 68.5q61 0 113.5 -18.5t52.5 -50.5q0 -15 -20.5 -46t-32.5 -31q-4 0 -18 7q-20 10 -39.5 16t-47.5 6q-59 0 -86 -37t-27 -115t25.5 -115.5t81.5 -37.5q26 0 46.5 5.5t34 10.5t17.5 7q16 6 18 6q10 0 22.5 -14.5
t21 -33t8.5 -28.5q0 -25 -33.5 -41t-75.5 -22.5t-66 -6.5q-128 0 -190 65.5z" />
    <glyph glyph-name="d" unicode="d" horiz-adv-x="565" 
d="M132.5 23.5q-42.5 31.5 -66.5 92.5t-24 146q0 124 55.5 196.5t155.5 72.5q59 0 102 -31v222q0 32 60 32h28q60 0 60 -32v-546q0 -46 2.5 -70t6.5 -53q3 -13 3 -22q0 -16 -40.5 -24t-71.5 -8q-18 0 -25 14.5t-10.5 31t-4.5 22.5q-18 -33 -53.5 -54t-80.5 -21
q-54 0 -96.5 31.5zM355 172v223q-34 19 -70 19q-93 0 -93 -152q0 -149 81 -149q48 0 82 59z" />
    <glyph glyph-name="e" unicode="e" horiz-adv-x="539" 
d="M106.5 62.5q-64.5 70.5 -64.5 195.5q0 141 64.5 207t178.5 66q111 0 163.5 -72t52.5 -186q0 -12 -20.5 -35.5t-30.5 -23.5h-255q5 -57 34 -81t81 -24q28 0 51 6.5t48 16.5q16 8 22 8q10 0 22.5 -14.5t21 -33t8.5 -28.5q0 -23 -31 -39.5t-74 -24.5t-75 -8
q-132 0 -196.5 70.5zM357 313q0 46 -18 73.5t-54 27.5q-74 0 -90 -101h162z" />
    <glyph glyph-name="f" unicode="f" horiz-adv-x="325" 
d="M79 30v376h-18q-16 0 -23 12t-7 38v17q0 26 7 38t23 12h18v75q0 162 146 162q100 0 100 -49q0 -6 -4 -24t-11 -33t-16 -15q-6 0 -16 2t-15 2q-19 0 -27.5 -10t-8.5 -33v-77h50q16 0 23 -12t7 -38v-17q0 -26 -7 -38t-23 -12h-50v-376q0 -32 -60 -32h-28q-60 0 -60 32z" />
    <glyph glyph-name="g" unicode="g" horiz-adv-x="546" 
d="M24 -74q0 39 23.5 69t67.5 47l1 4q-21 10 -32 30t-11 45q0 55 60 90q-81 43 -81 142q0 91 59.5 134.5t155.5 43.5q39 0 77 -8h161q16 0 23 -12t7 -38v-17q0 -47 -24 -47q-10 0 -25.5 3t-22.5 6l-2 -4q9 -10 15 -27.5t6 -33.5q0 -86 -56.5 -128t-147.5 -42q-44 0 -57 -7.5
t-13 -24.5q0 -18 23 -25t78 -15q18 -2 56 -8q71 -14 113 -45.5t42 -99.5q0 -51 -32 -89.5t-90.5 -59.5t-135.5 -21q-238 0 -238 138zM321 306.5q21 16.5 21 50.5q0 33 -21 50t-54 17t-54 -17t-21 -50q0 -34 21 -50.5t54 -16.5t54 16.5zM350 -82q26 13 26 36t-33.5 33.5
t-120.5 16.5q-25 -9 -39.5 -23.5t-14.5 -30.5q0 -21 25.5 -33t79.5 -12q51 0 77 13z" />
    <glyph glyph-name="h" unicode="h" horiz-adv-x="565" 
d="M66 30v692q0 32 60 32h28q60 0 60 -32v-259q25 30 61.5 49t79.5 19q76 0 113.5 -39.5t37.5 -122.5v-339q0 -32 -60 -32h-28q-60 0 -60 32v317q0 62 -64 62q-27 0 -47.5 -17.5t-32.5 -40.5v-321q0 -32 -60 -32h-28q-60 0 -60 32z" />
    <glyph glyph-name="i" unicode="i" horiz-adv-x="265" 
d="M59 606v78q0 32 74 32t74 -32v-78q0 -32 -74 -32t-74 32zM59 30v463q0 32 60 32h28q60 0 60 -32v-463q0 -32 -60 -32h-28q-60 0 -60 32z" />
    <glyph glyph-name="j" unicode="j" horiz-adv-x="276" 
d="M70 606v78q0 32 74 32t74 -32v-78q0 -32 -74 -32t-74 32zM-9.5 -200.5q-22.5 11.5 -22.5 40.5q0 20 11 44.5t25 24.5q5 0 14.5 -2t15.5 -2q19 0 27.5 10t8.5 33v545q0 32 60 32h28q60 0 60 -32v-543q0 -79 -40.5 -120.5t-105.5 -41.5q-59 0 -81.5 11.5z" />
    <glyph glyph-name="k" unicode="k" horiz-adv-x="521" 
d="M516 13q0 -15 -57 -15h-42q-49 0 -60 19l-139 230l-4 -1v-216q0 -32 -60 -32h-28q-60 0 -60 32v692q0 32 60 32h28q60 0 60 -32v-396l4 -1l121 181q8 12 22 15.5t39 3.5h37q56 0 56 -15q0 -8 -9 -20l-139 -198l163 -258q8 -12 8 -21z" />
    <glyph glyph-name="l" unicode="l" horiz-adv-x="297" 
d="M63 154v568q0 32 60 32h28q60 0 60 -32v-570q0 -23 8.5 -33t27.5 -10q5 0 13.5 2t13.5 2q9 0 16 -15t11 -33t4 -24q0 -49 -96 -49q-146 0 -146 162z" />
    <glyph glyph-name="m" unicode="m" horiz-adv-x="848" 
d="M746.5 491.5q35.5 -39.5 35.5 -122.5v-339q0 -32 -60 -32h-28q-60 0 -60 32v317q0 31 -13.5 46.5t-45.5 15.5q-46 0 -79 -57v-322q0 -32 -60 -32h-28q-60 0 -60 32v317q0 31 -13.5 46.5t-45.5 15.5q-27 0 -47 -17.5t-32 -40.5v-321q0 -32 -60 -32h-28q-60 0 -60 32v317
q0 44 -2.5 67.5t-6.5 52.5q-3 14 -3 21q0 16 40.5 24t71.5 8q18 0 25 -13.5t10.5 -29.5t4.5 -22q24 32 63.5 54t84.5 22q52 0 84.5 -18.5t47.5 -57.5q25 32 66 54t88 22q75 0 110.5 -39.5z" />
    <glyph glyph-name="n" unicode="n" horiz-adv-x="557" 
d="M62 30v317q0 44 -2.5 67.5t-6.5 52.5q-3 14 -3 21q0 16 40.5 24t71.5 8q18 0 25 -13.5t10.5 -29.5t4.5 -22q24 32 64 54t85 22q75 0 111 -39.5t36 -122.5v-339q0 -32 -60 -32h-28q-60 0 -60 32v317q0 31 -14 46.5t-46 15.5q-27 0 -47.5 -17.5t-32.5 -40.5v-321
q0 -32 -60 -32h-28q-60 0 -60 32z" />
    <glyph glyph-name="o" unicode="o" horiz-adv-x="569" 
d="M104 61.5q-62 69.5 -62 200.5t62 200t181 69t180.5 -69t61.5 -200t-61.5 -200.5t-180.5 -69.5t-181 69.5zM354.5 147.5q22.5 38.5 22.5 114.5t-22.5 114t-69.5 38t-70 -38t-23 -114q0 -153 93 -153q47 0 69.5 38.5z" />
    <glyph glyph-name="p" unicode="p" horiz-adv-x="573" 
d="M70 -174v521q0 44 -2.5 67.5t-6.5 52.5q-3 14 -3 21q0 16 40.5 24t71.5 8q18 0 25 -13.5t10.5 -29t4.5 -21.5q18 33 53.5 54t80.5 21q54 0 96.5 -31.5t66.5 -92.5t24 -146q0 -124 -55.5 -196.5t-155.5 -72.5q-59 0 -102 31v-197q0 -32 -60 -32h-28q-60 0 -60 32zM381 261
q0 149 -81 149q-48 0 -82 -59v-223q34 -19 70 -19q93 0 93 152z" />
    <glyph glyph-name="q" unicode="q" horiz-adv-x="566" 
d="M360 -174v197q-43 -31 -102 -31q-102 0 -159 72.5t-57 196.5q0 85 24.5 146t68 92.5t99.5 31.5q45 0 80.5 -21t53.5 -54l10 43q4 15 17.5 20.5t40.5 5.5h12q60 0 60 -32v-667q0 -32 -60 -32h-28q-60 0 -60 32zM360 128v223q-34 59 -82 59q-86 0 -86 -149q0 -152 98 -152
q36 0 70 19z" />
    <glyph glyph-name="r" unicode="r" horiz-adv-x="366" 
d="M62 30v317q0 44 -2.5 67.5t-6.5 52.5q-3 14 -3 21q0 16 40.5 24t71.5 8q18 0 25 -13.5t10.5 -29.5t4.5 -22q19 35 44.5 55.5t64.5 20.5q34 0 45.5 -13.5t11.5 -40.5q0 -21 -9 -52.5t-22 -31.5q-6 0 -21 4t-26 4q-27 0 -47.5 -15.5t-32.5 -34.5v-321q0 -32 -60 -32h-28
q-60 0 -60 32z" />
    <glyph glyph-name="s" unicode="s" horiz-adv-x="413" 
d="M80 11q-52 19 -52 49q0 20 19 48.5t34 28.5q8 0 22 -8q21 -9 38.5 -14.5t40.5 -5.5q30 0 45.5 11t15.5 31t-17 31t-64 31q-35 15 -60 30.5t-43.5 46t-18.5 77.5q0 77 49 120.5t133 43.5q53 0 101.5 -15t48.5 -43q0 -19 -15 -49t-28 -30q-4 0 -30 10.5t-59 10.5
q-53 0 -53 -37q0 -22 18 -33.5t65 -28.5q52 -19 86 -52.5t34 -100.5q0 -78 -52 -124.5t-144 -46.5q-62 0 -114 19z" />
    <glyph glyph-name="t" unicode="t" horiz-adv-x="342" 
d="M77 154v252h-16q-16 0 -23 12t-7 38v17q0 26 7 38t23 12h16l13 95q5 32 54 32h31q50 0 50 -32v-95h49q16 0 23 -12t7 -38v-17q0 -26 -7 -38t-23 -12h-49v-254q0 -23 8.5 -33t27.5 -10q5 0 13.5 2t13.5 2q9 0 16 -15t11 -33t4 -24q0 -49 -96 -49q-146 0 -146 162z" />
    <glyph glyph-name="u" unicode="u" horiz-adv-x="557" 
d="M95 31.5q-36 39.5 -36 122.5v339q0 32 60 32h28q60 0 60 -32v-317q0 -31 14 -46.5t46 -15.5q27 0 47.5 17.5t32.5 40.5v321q0 32 60 32h28q60 0 60 -32v-317q0 -46 2.5 -70t6.5 -53q3 -13 3 -22q0 -16 -40.5 -24t-71.5 -8q-18 0 -25 14.5t-10.5 31.5t-4.5 23
q-24 -32 -63.5 -54t-85.5 -22q-75 0 -111 39.5z" />
    <glyph glyph-name="v" unicode="v" horiz-adv-x="485" 
d="M171 19l-159 466q-4 14 -4 18q0 22 61 22h33q49 0 56 -21l50 -158q26 -80 37 -158h4q9 72 37 158l50 158q7 21 56 21h25q60 0 60 -22q0 -7 -3 -18l-159 -466q-7 -21 -56 -21h-32q-48 0 -56 21z" />
    <glyph glyph-name="w" unicode="w" horiz-adv-x="747" 
d="M146 19l-126 465q-2 6 -2 15q0 26 62 26q40 0 58 -5t21 -16l59 -246q13 -52 15 -83h4q3 27 18 86l59 243q6 21 55 21h24q22 0 37.5 -5.5t17.5 -15.5l60 -248q14 -60 16 -85h2q8 52 17 88l60 245q5 21 59 21q62 0 62 -26q0 -9 -2 -15l-118 -465q-2 -10 -17.5 -15.5
t-37.5 -5.5h-49q-49 0 -55 21l-56 220q-10 42 -14 84h-4q-2 -37 -13 -85l-53 -219q-2 -10 -17.5 -15.5t-37.5 -5.5h-49q-49 0 -55 21z" />
    <glyph glyph-name="x" unicode="x" horiz-adv-x="485" 
d="M5 16q0 8 11 25l151 224l-142 216q-11 17 -11 26q0 18 63 18h32q26 0 39.5 -3.5t21.5 -15.5l61 -99l15 -24l17 26l62 97q8 12 21.5 15.5t39.5 3.5h29q63 0 63 -18q0 -8 -11 -25l-146 -216l148 -224q11 -17 11 -26q0 -18 -63 -18h-32q-26 0 -39.5 3.5t-21.5 15.5l-69 110
l-13 21l-13 -21l-70 -110q-8 -12 -21.5 -15.5t-39.5 -3.5h-30q-63 0 -63 18z" />
    <glyph glyph-name="y" unicode="y" horiz-adv-x="481" 
d="M477 503q0 -7 -3 -18l-229 -670q-7 -21 -56 -21h-17q-60 0 -60 21q0 9 4 18l63 169l-165 483q-4 14 -4 18q0 22 61 22h32q49 0 56 -21l59 -185q9 -28 28 -121h4q20 96 28 121l59 185q7 21 56 21h24q60 0 60 -22z" />
    <glyph glyph-name="z" unicode="z" horiz-adv-x="489" 
d="M37 27.5q-10 27.5 -10 48.5q0 10 3 14l229 316h-186q-16 0 -23 12t-7 38v17q0 26 7 38t23 12h354q8 0 18.5 -28t10.5 -49q0 -10 -3 -15l-228 -314h205q16 0 23 -12t7 -38v-17q0 -26 -7 -38t-23 -12h-374q-9 0 -19 27.5z" />
    <glyph glyph-name="braceleft" unicode="{" horiz-adv-x="274" 
d="M121.5 -105.5q-27.5 32.5 -27.5 83.5v168q0 50 -10.5 76t-36.5 37q-15 9 -22 20t-7 30v12q0 19 7 30t22 20q26 11 36.5 37t10.5 76v168q0 51 27.5 83.5t71.5 32.5h39q16 0 23 -9.5t7 -30.5v-14q0 -40 -26 -40h2q-16 0 -22.5 -8t-6.5 -28v-170q0 -55 -17.5 -94.5
t-50.5 -58.5q33 -19 50.5 -58t17.5 -95v-170q0 -36 24 -36h1q14 -1 21 -10.5t7 -29.5v-14q0 -21 -7 -30.5t-23 -9.5h-39q-44 0 -71.5 32.5z" />
    <glyph glyph-name="bar" unicode="|" horiz-adv-x="250" 
d="M80 -131q-12 7 -12 23v846q0 16 12 23t38 7h15q26 0 38 -7t12 -23v-846q0 -16 -12 -23t-38 -7h-15q-26 0 -38 7z" />
    <glyph glyph-name="braceright" unicode="}" horiz-adv-x="274" 
d="M26 -128.5q-7 9.5 -7 30.5v14q0 21 6.5 30.5t21.5 9.5h1q24 0 24 36v170q0 56 17.5 95t50.5 58q-33 19 -50.5 58.5t-17.5 94.5v170q0 20 -6 28t-21 8h-1q-25 0 -25 40v14q0 21 7 30.5t23 9.5h39q44 0 71.5 -32.5t27.5 -83.5v-168q0 -50 10.5 -76t36.5 -37q15 -9 22 -20
t7 -30v-12q0 -19 -7 -30t-22 -20q-26 -11 -36.5 -37t-10.5 -76v-168q0 -51 -27.5 -83.5t-71.5 -32.5h-39q-16 0 -23 9.5z" />
    <glyph glyph-name="asciitilde" unicode="~" horiz-adv-x="560" 
d="M79.5 214.5q-13.5 6.5 -13.5 16.5q0 13 5 28q12 33 43.5 56.5t73.5 23.5q44 0 103 -21q6 -2 25 -7.5t36 -8.5t33 -3q18 0 29.5 7.5t23.5 20.5q12 14 19 14q9 0 23 -7.5t14 -16.5q0 -16 -6 -30q-14 -34 -41.5 -55t-66.5 -21q-32 0 -58.5 6t-59.5 17q-25 9 -41.5 13
t-32.5 4q-22 0 -37 -8.5t-30 -22.5q-14 -12 -19 -12q-9 0 -22.5 6.5z" />
    <glyph glyph-name="uni007F" 
 />
    <glyph glyph-name="uni00A0" unicode="&#xa0;" 
 />
    <glyph glyph-name="exclamdown" unicode="&#xa1;" horiz-adv-x="294" 
d="M75 401v92q0 32 60 32h32q60 0 60 -32v-92q0 -32 -60 -32h-32q-60 0 -60 32zM59.5 -173q-15.5 7 -15.5 21q0 13 34 291q13 105 16 129q2 17 12 24.5t39 7.5h11q29 0 40 -7.5t11 -24.5v-416q0 -32 -60 -32h-43q-29 0 -44.5 7z" />
    <glyph glyph-name="cent" unicode="&#xa2;" horiz-adv-x="470" 
d="M414 19q-38 -16 -89 -23v-52q0 -25 -26 -25h-5q-26 0 -26 25v48q-123 2 -183 68t-60 198t59 200.5t184 72.5v31q0 25 26 25h5q26 0 26 -25v-34q51 -6 87 -23t36 -43q0 -15 -20.5 -46t-32.5 -31q-4 0 -18 7q-27 14 -52 19v-298q20 4 36.5 10.5t20.5 8.5q16 6 18 6
q10 0 22.5 -14.5t21 -33t8.5 -28.5q0 -27 -38 -43zM199 152.5q22 -37.5 69 -42.5v303q-47 -7 -69 -44t-22 -107q0 -72 22 -109.5z" />
    <glyph glyph-name="sterling" unicode="&#xa3;" horiz-adv-x="530" 
d="M64.5 9.5q-9.5 9.5 -9.5 30.5v19q0 12 7 20t24 22q22 18 33.5 33.5t11.5 40.5v136h-33q-16 0 -23 12t-7 38v17q0 26 7 38t23 12h33v74q0 206 230 206q110 0 110 -45q0 -26 -13.5 -50.5t-26.5 -24.5q-3 0 -21 4t-43 4q-46 0 -68.5 -21.5t-22.5 -67.5v-79h108q16 0 23 -12
t7 -38v-17q0 -26 -7 -38t-23 -12h-108v-60q0 -93 -41 -134h223q16 0 23 -12t7 -38v-17q0 -26 -7 -38t-23 -12h-363q-21 0 -30.5 9.5z" />
    <glyph glyph-name="currency" unicode="&#xa4;" horiz-adv-x="550" 
d="M98 84l-30 30q-12 12 -12 25t12 25l22 22q-27 48 -27 103q0 59 29 106l-27 27q-12 12 -12 25t12 25l30 30q12 12 25 12t25 -12l28 -28q49 26 101 26q54 0 103 -27l29 29q12 12 25 12t25 -12l30 -30q12 -12 12 -25t-12 -25l-29 -29q28 -48 28 -104q0 -52 -26 -101l24 -24
q12 -12 12 -25t-12 -25l-30 -30q-12 -12 -25 -12t-25 12l-23 23q-47 -29 -106 -29q-56 0 -105 27l-21 -21q-12 -12 -25 -12t-25 12zM343 220.5q28 28.5 28 68.5q0 41 -28 69t-69 28q-40 0 -68.5 -28t-28.5 -69q0 -40 28.5 -68.5t68.5 -28.5q41 0 69 28.5z" />
    <glyph glyph-name="yen" unicode="&#xa5;" horiz-adv-x="600" 
d="M577 657l-154 -251h85q16 0 23 -7t7 -23v-14q0 -31 -30 -31h-130v-62h130q16 0 23 -7t7 -23v-15q0 -16 -7 -23t-23 -7h-130v-164q0 -32 -60 -32h-34q-60 0 -60 32v164h-133q-16 0 -23 7t-7 23v15q0 16 7 23t23 7h133v63h-133q-16 0 -23 7t-7 23v14q0 16 7 23t23 7h90
l-156 251q-10 17 -10 25q0 20 64 20h43q49 0 60 -19l122 -214l123 214q11 19 60 19h36q63 0 63 -20q0 -10 -9 -25z" />
    <glyph glyph-name="brokenbar" unicode="&#xa6;" horiz-adv-x="250" 
d="M68 412v326q0 32 50 32h15q50 0 50 -32v-326q0 -32 -50 -32h-15q-50 0 -50 32zM68 -108v326q0 32 50 32h15q50 0 50 -32v-326q0 -32 -50 -32h-15q-50 0 -50 32z" />
    <glyph glyph-name="section" unicode="&#xa7;" horiz-adv-x="429" 
d="M110.5 6.5q-50.5 13.5 -50.5 49.5q0 7 7 25.5t17 33.5t19 15q3 0 28.5 -10.5t56.5 -10.5q54 0 54 31q0 18 -16 28t-52 23q-5 3 -10.5 4.5t-9.5 3.5q-51 21 -81.5 54t-30.5 97t37 109q-38 33 -38 95q0 72 49.5 113t134.5 41q47 0 97.5 -13.5t50.5 -49.5q0 -7 -7 -25.5
t-17 -33.5t-19 -15q-3 0 -28.5 10.5t-56.5 10.5q-54 0 -54 -31q0 -18 15.5 -28t48.5 -22l27 -11q50 -21 79.5 -53.5t29.5 -95.5q0 -66 -37 -109q38 -36 38 -95q0 -72 -49.5 -113t-134.5 -41q-47 0 -97.5 13.5zM261 335q0 29 -20 44.5t-60 29.5q-9 -17 -9 -43q0 -29 20 -44.5
t60 -29.5q9 20 9 43z" />
    <glyph glyph-name="dieresis" unicode="&#xa8;" horiz-adv-x="306" 
d="M14.5 588.5q-14.5 7.5 -14.5 24.5v64q0 17 14.5 24.5t47.5 7.5t47.5 -7.5t14.5 -24.5v-64q0 -17 -14.5 -24.5t-47.5 -7.5t-47.5 7.5zM196.5 588.5q-14.5 7.5 -14.5 24.5v64q0 17 14.5 24.5t47.5 7.5t47.5 -7.5t14.5 -24.5v-64q0 -17 -14.5 -24.5t-47.5 -7.5t-47.5 7.5z
" />
    <glyph glyph-name="copyright" unicode="&#xa9;" horiz-adv-x="739" 
d="M190.5 40q-82.5 48 -130.5 130.5t-48 179.5t48 179.5t130.5 130.5t179.5 48t179.5 -48t130.5 -130.5t48 -179.5t-48 -179.5t-130.5 -130.5t-179.5 -48t-179.5 48zM517.5 95.5q67.5 39.5 107 107t39.5 147.5t-39.5 147.5t-107 107t-147.5 39.5t-147.5 -39.5t-107 -107
t-39.5 -147.5t39.5 -147.5t107 -107t147.5 -39.5t147.5 39.5zM244 201q-45 49 -45 152q0 199 186 199q41 0 79 -11.5t38 -27.5q0 -13 -13 -33t-23 -20q-2 0 -22.5 9t-59.5 9q-97 0 -97 -125q0 -128 96 -128q38 0 63.5 11.5t27.5 11.5q12 0 22.5 -19.5t10.5 -29.5
q0 -23 -41 -35t-83 -12q-94 0 -139 49z" />
    <glyph glyph-name="ordfeminine" unicode="&#xaa;" horiz-adv-x="319" 
d="M58.5 460q-17.5 20 -17.5 54q0 91 141 91v16q0 13 -8.5 19t-27.5 6q-25 0 -43 -6.5t-21 -6.5q-8 0 -16.5 16t-8.5 25q0 13 28 23.5t70 10.5q54 0 79.5 -22.5t25.5 -60.5v-94q0 -37 3 -52.5t3 -19.5q0 -8 -21 -12.5t-37 -4.5q-8 0 -11.5 7.5t-5 16t-2.5 11.5
q-5 -10 -25 -23.5t-51 -13.5q-37 0 -54.5 20zM165 509.5q12 7.5 17 19.5v27q-63 0 -63 -34q0 -9 5.5 -14.5t15.5 -5.5q13 0 25 7.5z" />
    <glyph glyph-name="guillemotleft" unicode="&#xab;" horiz-adv-x="470" 
d="M165 61l-127 153q-9 10 -12.5 20t-3.5 24t3.5 24t12.5 20l127 153q13 14 27 14q16 0 37.5 -16.5t21.5 -32.5q0 -10 -9 -22l-110 -140l110 -140q9 -12 9 -23q0 -15 -21 -32t-38 -17q-13 0 -27 15zM364 61l-127 153q-9 10 -12.5 20t-3.5 24t3.5 24t12.5 20l127 153
q13 14 27 14q16 0 37.5 -16.5t21.5 -32.5q0 -10 -9 -22l-110 -140l110 -140q9 -12 9 -23q0 -15 -21 -32t-38 -17q-13 0 -27 15z" />
    <glyph glyph-name="logicalnot" unicode="&#xac;" horiz-adv-x="560" 
d="M415 104v138h-355q-16 0 -23 12t-7 38v7q0 26 7 38t23 12h430q21 0 30.5 -9.5t9.5 -30.5v-205q0 -32 -50 -32h-15q-50 0 -50 32z" />
    <glyph glyph-name="uni00AD" unicode="&#xad;" horiz-adv-x="320" 
d="M35 224q-7 12 -7 38v7q0 26 7 38t23 12h204q16 0 23 -12t7 -38v-7q0 -26 -7 -38t-23 -12h-204q-16 0 -23 12z" />
    <glyph glyph-name="registered" unicode="&#xae;" horiz-adv-x="739" 
d="M190.5 40q-82.5 48 -130.5 130.5t-48 179.5t48 179.5t130.5 130.5t179.5 48t179.5 -48t130.5 -130.5t48 -179.5t-48 -179.5t-130.5 -130.5t-179.5 -48t-179.5 48zM517.5 95.5q67.5 39.5 107 107t39.5 147.5t-39.5 147.5t-107 107t-147.5 39.5t-147.5 -39.5t-107 -107
t-39.5 -147.5t39.5 -147.5t107 -107t147.5 -39.5t147.5 39.5zM243 174v352q0 22 22 22h109q139 0 139 -105q0 -31 -18 -54t-48 -35v-4q11 -5 23 -18.5t18 -30.5l49 -123q3 -7 3 -11q0 -11 -33 -11h-23q-28 0 -33 12l-44 109q-9 18 -20 25.5t-36 7.5h-22v-136q0 -18 -34 -18
h-18q-34 0 -34 18zM382 384q17 0 30 14.5t13 33.5q0 20 -12.5 31.5t-34.5 11.5h-49v-91h53z" />
    <glyph glyph-name="macron" unicode="&#xaf;" horiz-adv-x="305" 
d="M7 606.5q-7 9.5 -7 30.5v15q0 21 7 30.5t23 9.5h245q16 0 23 -9.5t7 -30.5v-15q0 -21 -7 -30.5t-23 -9.5h-245q-16 0 -23 9.5z" />
    <glyph glyph-name="degree" unicode="&#xb0;" horiz-adv-x="345" 
d="M105.5 460.5q-30.5 17.5 -48 48t-17.5 66.5t18 66.5t48 48.5t66 18t66.5 -18t48.5 -48.5t18 -66.5t-18 -66t-48.5 -48t-66.5 -18t-66.5 17.5zM220 525.5q20 20.5 20 49.5t-20 50t-48 21t-47.5 -21t-19.5 -50t19.5 -49.5t47.5 -20.5t48 20.5z" />
    <glyph glyph-name="plusminus" unicode="&#xb1;" horiz-adv-x="560" 
d="M234 147q-12 7 -12 23v142h-152q-16 0 -23 12t-7 38v7q0 26 7 38t23 12h152v154q0 16 12 23t38 7h14q26 0 38 -7t12 -23v-154h154q16 0 23 -12t7 -38v-7q0 -26 -7 -38t-23 -12h-154v-142q0 -16 -12 -23t-38 -7h-14q-26 0 -38 7zM47 12q-7 12 -7 38v7q0 26 7 38t23 12h420
q16 0 23 -12t7 -38v-7q0 -26 -7 -38t-23 -12h-420q-16 0 -23 12z" />
    <glyph glyph-name="uni00B2" unicode="&#xb2;" horiz-adv-x="310" 
d="M25.5 368q-5.5 18 -5.5 33q0 6 7 15l143 175q22 27 22 56q0 23 -15 35.5t-39 12.5q-16 0 -28.5 -5t-24.5 -13t-16 -8q-13 0 -23 14t-10 27q0 24 35.5 38.5t80.5 14.5q61 0 94.5 -31t33.5 -83q0 -50 -36 -95l-110 -136h135q18 0 18 -29v-10q0 -29 -18 -29h-230
q-8 0 -13.5 18z" />
    <glyph glyph-name="uni00B3" unicode="&#xb3;" horiz-adv-x="310" 
d="M61 355q-42 12 -42 36q0 11 9.5 28t19.5 17q3 0 17.5 -7t30.5 -12t37 -5q27 0 42.5 15t15.5 42q0 30 -16 45t-53 15h-16q-18 0 -18 29v11q0 29 18 29h11q28 0 44.5 13t16.5 36q0 22 -12 34.5t-36 12.5q-31 0 -48.5 -9t-20.5 -9q-9 0 -19.5 16.5t-10.5 28.5q0 21 33.5 32
t80.5 11q56 0 88.5 -28t32.5 -75q0 -30 -14.5 -52.5t-40.5 -33.5v-2q34 -13 51 -40.5t17 -64.5q0 -58 -36.5 -91.5t-95.5 -33.5q-44 0 -86 12z" />
    <glyph glyph-name="acute" unicode="&#xb4;" horiz-adv-x="191" 
d="M8.5 576q-8.5 4 -8.5 11q0 5 5 13.5t8 14.5l40 72q10 19 25 25t60 6q30 0 41.5 -3.5t11.5 -13.5q0 -14 -19 -36l-57 -63q-15 -16 -33 -23t-41 -7q-24 0 -32.5 4z" />
    <glyph glyph-name="uni00B5" unicode="&#xb5;" horiz-adv-x="566" 
d="M503.5 106q2.5 -24 6.5 -53q3 -13 3 -22q0 -16 -40.5 -24t-71.5 -8q-18 0 -25 14.5t-10.5 31.5t-4.5 23q-23 -31 -62 -53.5t-78 -22.5q-7 0 -19 2q7 -37 9 -74.5t2 -93.5q0 -32 -60 -32h-28q-60 0 -60 32v667q0 32 60 32h28q60 0 60 -32v-317q0 -31 14 -46.5t46 -15.5
q27 0 47.5 17.5t32.5 40.5v321q0 32 60 32h28q60 0 60 -32v-317q0 -46 2.5 -70z" />
    <glyph glyph-name="paragraph" unicode="&#xb6;" horiz-adv-x="515" 
d="M250 -164q-7 7 -7 23v388q-56 6 -102 38t-73 81.5t-27 106.5q0 66 30.5 118t82.5 80.5t114 28.5h203q16 0 23 -7.5t7 -24.5v-1q0 -15 -7 -22t-23 -7h-26v-779q0 -15 -7 -22.5t-23 -7.5h-2q-16 0 -23 7t-7 23v779h-78v-779q0 -15 -7 -22.5t-23 -7.5h-2q-16 0 -23 7z" />
    <glyph glyph-name="periodcentered" unicode="&#xb7;" horiz-adv-x="267" 
d="M84.5 309.5q-20.5 20.5 -20.5 49.5t20.5 49.5t49.5 20.5t49.5 -20.5t20.5 -49.5t-20.5 -49.5t-49.5 -20.5t-49.5 20.5z" />
    <glyph glyph-name="cedilla" unicode="&#xb8;" horiz-adv-x="250" 
d="M228 -71q22 -19 22 -49q0 -45 -30 -68.5t-89 -23.5q-47 0 -89 14t-42 36q0 18 10 29t18 11t29 -7q43 -15 72 -15q19 0 27 5.5t8 17.5t-11.5 18.5t-30.5 11.5q-3 1 -11.5 3.5t-12.5 5.5t-4 7q0 8 25 85h64l-15 -57q38 -5 60 -24z" />
    <glyph glyph-name="uni00B9" unicode="&#xb9;" horiz-adv-x="310" 
d="M123 368v314l-79 -13q-10 0 -14.5 16.5t-4.5 33.5q0 14 15 17l146 26q7 0 15 -4.5t8 -9.5v-380q0 -19 -35 -19h-16q-35 0 -35 19z" />
    <glyph glyph-name="ordmasculine" unicode="&#xba;" horiz-adv-x="337" 
d="M79 475.5q-31 34.5 -31 99.5t31 99t90 34t89.5 -34t30.5 -99t-30.5 -99.5t-89.5 -34.5t-90 34.5zM199.5 521.5q9.5 17.5 9.5 53.5q0 70 -40 70q-21 0 -31 -17.5t-10 -52.5q0 -36 10 -53.5t31 -17.5t30.5 17.5z" />
    <glyph glyph-name="guillemotright" unicode="&#xbb;" horiz-adv-x="470" 
d="M41 63q-21 17 -21 32q0 11 9 23l110 140l-110 140q-9 12 -9 22q0 16 21.5 32.5t37.5 16.5t27 -14l127 -153q9 -10 12.5 -20t3.5 -24t-3.5 -24t-12.5 -20l-127 -153q-12 -15 -27 -15q-17 0 -38 17zM240 63q-21 17 -21 32q0 11 9 23l110 140l-110 140q-9 12 -9 22
q0 16 21.5 32.5t37.5 16.5t27 -14l127 -153q9 -10 12.5 -20t3.5 -24t-3.5 -24t-12.5 -20l-127 -153q-12 -15 -27 -15q-17 0 -38 17z" />
    <glyph glyph-name="onequarter" unicode="&#xbc;" horiz-adv-x="750" 
d="M98 308v314l-79 -13q-10 0 -14.5 16.5t-4.5 33.5q0 14 15 17l146 26q7 0 15 -4.5t8 -9.5v-380q0 -19 -35 -19h-16q-35 0 -35 19zM600 17v65h-148q-9 0 -17 19.5t-8 31.5q0 6 4 12l169 252q5 7 13 9t22 2h16q35 0 35 -19v-239h22q17 0 17 -29v-10q0 -29 -17 -29h-22v-65
q0 -18 -35 -18h-16q-35 0 -35 18zM601 150v84q0 50 11 69l-3 1l-101 -154h93zM136 11q0 3 6 15l362 653q7 12 16 16.5t24 4.5h16q11 0 17.5 -3t6.5 -8q0 -3 -6 -15l-359 -648q-8 -14 -17 -20t-24 -6h-21q-21 0 -21 11z" />
    <glyph glyph-name="onehalf" unicode="&#xbd;" horiz-adv-x="750" 
d="M98 308v314l-79 -13q-10 0 -14.5 16.5t-4.5 33.5q0 14 15 17l146 26q7 0 15 -4.5t8 -9.5v-380q0 -19 -35 -19h-16q-35 0 -35 19zM446.5 18q-5.5 18 -5.5 33q0 6 7 15l143 175q22 27 22 56q0 23 -15 35.5t-39 12.5q-16 0 -28.5 -5t-24.5 -13t-16 -8q-13 0 -23 14t-10 27
q0 24 35.5 38.5t80.5 14.5q61 0 94.5 -31t33.5 -83q0 -50 -36 -95l-110 -136h135q18 0 18 -29v-10q0 -29 -18 -29h-230q-8 0 -13.5 18zM112 11q0 3 6 15l362 653q7 12 16 16.5t24 4.5h16q11 0 17.5 -3t6.5 -8q0 -3 -6 -15l-359 -648q-8 -14 -17 -20t-24 -6h-21q-21 0 -21 11
z" />
    <glyph glyph-name="threequarters" unicode="&#xbe;" horiz-adv-x="750" 
d="M51 295q-42 12 -42 36q0 11 9.5 28t19.5 17q3 0 17.5 -7t30.5 -12t37 -5q27 0 42.5 15t15.5 42q0 30 -16 45t-53 15h-16q-18 0 -18 29v11q0 29 18 29h11q28 0 44.5 13t16.5 36q0 22 -12 34.5t-36 12.5q-31 0 -48.5 -9t-20.5 -9q-9 0 -19.5 16.5t-10.5 28.5q0 21 33.5 32
t80.5 11q56 0 88.5 -28t32.5 -75q0 -30 -14.5 -52.5t-40.5 -33.5v-2q34 -13 51 -40.5t17 -64.5q0 -58 -36.5 -91.5t-95.5 -33.5q-44 0 -86 12zM600 17v65h-148q-9 0 -17 19.5t-8 31.5q0 6 4 12l169 252q5 7 13 9t22 2h16q35 0 35 -19v-239h22q17 0 17 -29v-10q0 -29 -17 -29
h-22v-65q0 -18 -35 -18h-16q-35 0 -35 18zM601 150v84q0 50 11 69l-3 1l-101 -154h93zM166 11q0 3 6 15l362 653q7 12 16 16.5t24 4.5h16q11 0 17.5 -3t6.5 -8q0 -3 -6 -15l-359 -648q-8 -14 -17 -20t-24 -6h-21q-21 0 -21 11z" />
    <glyph glyph-name="questiondown" unicode="&#xbf;" horiz-adv-x="425" 
d="M353 493v-92q0 -32 -60 -32h-32q-60 0 -60 32v92q0 32 60 32h32q60 0 60 -32zM325.5 294.5q11.5 -6.5 11.5 -22.5q0 -40 -18.5 -75.5t-49.5 -72.5q-15 -18 -30 -33q-29 -32 -43 -51.5t-14 -36.5q0 -56 74 -56q26 0 46.5 6.5t43.5 16.5q16 8 22 8q13 0 27.5 -15.5
t25 -35.5t10.5 -31q0 -40 -59 -60.5t-129 -20.5q-101 0 -159 48t-58 130q0 54 24.5 91t69.5 77l17 15q35 31 52.5 51.5t22.5 46.5q3 15 15 21t38 6h23q26 0 37.5 -6.5z" />
    <glyph glyph-name="Agrave" unicode="&#xc0;" horiz-adv-x="613" 
d="M321 753q-14 4 -31 15l-86 57q-30 19 -30 32q0 11 16.5 14.5t54.5 3.5q34 0 52 -6.5t34 -23.5l54 -60q13 -14 13 -23q0 -13 -38 -13q-25 0 -39 4zM0 20q0 4 4 18l220 643q8 21 57 21h52q50 0 57 -21l220 -643q3 -10 3 -18q0 -22 -50 -22h-44q-49 0 -56 21l-40 122h-236
l-40 -122q-7 -21 -46 -21h-40q-61 0 -61 22zM380 273l-57 178q-7 20 -15 64h-4q-1 -6 -4.5 -26.5t-10.5 -37.5l-59 -178h150z" />
    <glyph glyph-name="Aacute" unicode="&#xc1;" horiz-adv-x="613" 
d="M215 762q0 9 13 23l54 60q16 17 34 23.5t52 6.5q38 0 54.5 -3.5t16.5 -14.5q0 -13 -30 -33l-86 -56q-16 -11 -30 -15t-40 -4q-38 0 -38 13zM0 20q0 4 4 18l220 643q8 21 57 21h52q50 0 57 -21l220 -643q3 -10 3 -18q0 -22 -50 -22h-44q-49 0 -56 21l-40 122h-236
l-40 -122q-7 -21 -46 -21h-40q-61 0 -61 22zM380 273l-57 178q-7 20 -15 64h-4q-1 -6 -4.5 -26.5t-10.5 -37.5l-59 -178h150z" />
    <glyph glyph-name="Acircumflex" unicode="&#xc2;" horiz-adv-x="613" 
d="M167 736q-8 2 -8 8q0 7 21 30l56 63q12 14 24.5 18.5t35.5 4.5h20q23 0 35.5 -5t25.5 -19l55 -62q21 -23 21 -30q0 -6 -8 -8t-32 -2q-29 0 -58 17l-49 28l-49 -28q-31 -17 -58 -17q-24 0 -32 2zM0 20q0 4 4 18l220 643q8 21 57 21h52q50 0 57 -21l220 -643q3 -10 3 -18
q0 -22 -50 -22h-44q-49 0 -56 21l-40 122h-236l-40 -122q-7 -21 -46 -21h-40q-61 0 -61 22zM380 273l-57 178q-7 20 -15 64h-4q-1 -6 -4.5 -26.5t-10.5 -37.5l-59 -178h150z" />
    <glyph glyph-name="Atilde" unicode="&#xc3;" horiz-adv-x="613" 
d="M143 759q-16 9 -16 19q0 11 8 27q13 28 38.5 47t64.5 19q26 0 80 -16q45 -13 61 -13q21 0 42 19q1 1 8.5 6.5t14.5 5.5q12 0 27.5 -11.5t15.5 -21.5q0 -9 -8 -23q-14 -25 -40 -44.5t-64 -19.5q-26 0 -80 16q-45 13 -64 13q-13 0 -22.5 -5.5t-18.5 -14.5q-12 -12 -20 -12
q-11 0 -27 9zM0 20q0 4 4 18l220 643q8 21 57 21h52q50 0 57 -21l220 -643q3 -10 3 -18q0 -22 -50 -22h-44q-49 0 -56 21l-40 122h-236l-40 -122q-7 -21 -46 -21h-40q-61 0 -61 22zM380 273l-57 178q-7 20 -15 64h-4q-1 -6 -4.5 -26.5t-10.5 -37.5l-59 -178h150z" />
    <glyph glyph-name="Adieresis" unicode="&#xc4;" horiz-adv-x="613" 
d="M165 753.5q-15 7.5 -15 24.5v68q0 17 15 24.5t49 7.5t49 -7.5t15 -24.5v-68q0 -17 -15 -24.5t-49 -7.5t-49 7.5zM351 753.5q-15 7.5 -15 24.5v68q0 17 15 24.5t49 7.5t49 -7.5t15 -24.5v-68q0 -17 -15 -24.5t-49 -7.5t-49 7.5zM0 20q0 4 4 18l220 643q8 21 57 21h52
q50 0 57 -21l220 -643q3 -10 3 -18q0 -22 -50 -22h-44q-49 0 -56 21l-40 122h-236l-40 -122q-7 -21 -46 -21h-40q-61 0 -61 22zM380 273l-57 178q-7 20 -15 64h-4q-1 -6 -4.5 -26.5t-10.5 -37.5l-59 -178h150z" />
    <glyph glyph-name="Aring" unicode="&#xc5;" horiz-adv-x="613" 
d="M235.5 746.5q-28.5 28.5 -28.5 70.5q0 43 28.5 71.5t70.5 28.5q43 0 71.5 -28.5t28.5 -71.5q0 -42 -28.5 -70.5t-71.5 -28.5q-42 0 -70.5 28.5zM331 792q10 10 10 24q0 15 -10 25t-25 10q-14 0 -24 -10t-10 -25q0 -14 10 -24t24 -10q15 0 25 10zM0 20q0 4 4 18l220 643
q8 21 57 21h52q50 0 57 -21l220 -643q3 -10 3 -18q0 -22 -50 -22h-44q-49 0 -56 21l-40 122h-236l-40 -122q-7 -21 -46 -21h-40q-61 0 -61 22zM380 273l-57 178q-7 20 -15 64h-4q-1 -6 -4.5 -26.5t-10.5 -37.5l-59 -178h150z" />
    <glyph glyph-name="AE" unicode="&#xc6;" horiz-adv-x="915" 
d="M1 20q0 10 4 18l321 635q8 14 18 20.5t26 6.5h464q16 0 23 -12t7 -38v-31q0 -26 -7 -38t-23 -12h-317l28 -145h262q16 0 23 -12t7 -38v-31q0 -26 -7 -38t-23 -12h-236l31 -162h233q16 0 23 -12t7 -38v-31q0 -26 -7 -38t-23 -12h-331q-16 0 -24 7t-11 23l-21 111h-243
l-60 -122q-10 -21 -46 -21h-37q-61 0 -61 22zM424 273l-33 181v83h-4l-28 -82l-89 -182h154z" />
    <glyph glyph-name="Ccedilla" unicode="&#xc7;" horiz-adv-x="619" 
d="M566.5 146q13.5 -17 22 -38.5t8.5 -31.5q0 -26 -35 -46q-33 -19 -87 -28.5t-101 -9.5h-1l-10 -39q38 -5 60 -24t22 -49q0 -45 -30 -68.5t-89 -23.5q-47 0 -89 14t-42 36q0 18 10 29t18 11t29 -7q43 -15 72 -15q19 0 27 5.5t8 17.5t-11.5 18.5t-30.5 11.5q-3 1 -11.5 3.5
t-12.5 5.5t-4 7q0 7 20 71q-134 15 -199 102.5t-65 253.5q0 356 334 356q50 0 102 -10.5t81 -27.5q26 -15 26 -32q0 -14 -11 -36.5t-26.5 -40t-27.5 -17.5q-3 0 -24 9t-51 16t-72 7q-88 0 -130.5 -56t-42.5 -169q0 -228 171 -228q45 0 78 9t64 23q16 8 22 8q15 0 28.5 -17z
" />
    <glyph glyph-name="Egrave" unicode="&#xc8;" horiz-adv-x="546" 
d="M300 753q-14 4 -31 15l-86 57q-30 19 -30 32q0 11 16.5 14.5t54.5 3.5q34 0 52 -6.5t34 -23.5l54 -60q13 -14 13 -23q0 -13 -38 -13q-25 0 -39 4zM86.5 9.5q-9.5 9.5 -9.5 30.5v620q0 21 9.5 30.5t30.5 9.5h351q16 0 23 -12t7 -38v-31q0 -26 -7 -38t-23 -12h-237v-145
h210q16 0 23 -12t7 -38v-31q0 -26 -7 -38t-23 -12h-210v-162h238q16 0 23 -12t7 -38v-31q0 -26 -7 -38t-23 -12h-352q-21 0 -30.5 9.5z" />
    <glyph glyph-name="Eacute" unicode="&#xc9;" horiz-adv-x="546" 
d="M194 762q0 9 13 23l54 60q16 17 34 23.5t52 6.5q38 0 54.5 -3.5t16.5 -14.5q0 -13 -30 -33l-86 -56q-16 -11 -30 -15t-40 -4q-38 0 -38 13zM86.5 9.5q-9.5 9.5 -9.5 30.5v620q0 21 9.5 30.5t30.5 9.5h351q16 0 23 -12t7 -38v-31q0 -26 -7 -38t-23 -12h-237v-145h210
q16 0 23 -12t7 -38v-31q0 -26 -7 -38t-23 -12h-210v-162h238q16 0 23 -12t7 -38v-31q0 -26 -7 -38t-23 -12h-352q-21 0 -30.5 9.5z" />
    <glyph glyph-name="Ecircumflex" unicode="&#xca;" horiz-adv-x="546" 
d="M146 736q-8 2 -8 8q0 7 21 30l56 63q12 14 24.5 18.5t35.5 4.5h20q23 0 35.5 -5t25.5 -19l55 -62q21 -23 21 -30q0 -6 -8 -8t-32 -2q-29 0 -58 17l-49 28l-49 -28q-31 -17 -58 -17q-24 0 -32 2zM86.5 9.5q-9.5 9.5 -9.5 30.5v620q0 21 9.5 30.5t30.5 9.5h351q16 0 23 -12
t7 -38v-31q0 -26 -7 -38t-23 -12h-237v-145h210q16 0 23 -12t7 -38v-31q0 -26 -7 -38t-23 -12h-210v-162h238q16 0 23 -12t7 -38v-31q0 -26 -7 -38t-23 -12h-352q-21 0 -30.5 9.5z" />
    <glyph glyph-name="Edieresis" unicode="&#xcb;" horiz-adv-x="546" 
d="M144 753.5q-15 7.5 -15 24.5v68q0 17 15 24.5t49 7.5t49 -7.5t15 -24.5v-68q0 -17 -15 -24.5t-49 -7.5t-49 7.5zM330 753.5q-15 7.5 -15 24.5v68q0 17 15 24.5t49 7.5t49 -7.5t15 -24.5v-68q0 -17 -15 -24.5t-49 -7.5t-49 7.5zM86.5 9.5q-9.5 9.5 -9.5 30.5v620
q0 21 9.5 30.5t30.5 9.5h351q16 0 23 -12t7 -38v-31q0 -26 -7 -38t-23 -12h-237v-145h210q16 0 23 -12t7 -38v-31q0 -26 -7 -38t-23 -12h-210v-162h238q16 0 23 -12t7 -38v-31q0 -26 -7 -38t-23 -12h-352q-21 0 -30.5 9.5z" />
    <glyph glyph-name="Igrave" unicode="&#xcc;" horiz-adv-x="283" 
d="M156 753q-14 4 -31 15l-86 57q-30 19 -30 32q0 11 16.5 14.5t54.5 3.5q34 0 52 -6.5t34 -23.5l54 -60q13 -14 13 -23q0 -13 -38 -13q-25 0 -39 4zM64 30v640q0 33 60 33h35q60 0 60 -33v-640q0 -33 -60 -33h-35q-60 0 -60 33z" />
    <glyph glyph-name="Iacute" unicode="&#xcd;" horiz-adv-x="283" 
d="M50 762q0 9 13 23l54 60q16 17 34 23.5t52 6.5q38 0 54.5 -3.5t16.5 -14.5q0 -13 -30 -33l-86 -56q-16 -11 -30 -15t-40 -4q-38 0 -38 13zM64 30v640q0 33 60 33h35q60 0 60 -33v-640q0 -33 -60 -33h-35q-60 0 -60 33z" />
    <glyph glyph-name="Icircumflex" unicode="&#xce;" horiz-adv-x="283" 
d="M2 736q-8 2 -8 8q0 7 21 30l56 63q12 14 24.5 18.5t35.5 4.5h20q23 0 35.5 -5t25.5 -19l55 -62q21 -23 21 -30q0 -6 -8 -8t-32 -2q-29 0 -58 17l-49 28l-49 -28q-31 -17 -58 -17q-24 0 -32 2zM64 30v640q0 33 60 33h35q60 0 60 -33v-640q0 -33 -60 -33h-35q-60 0 -60 33z
" />
    <glyph glyph-name="Idieresis" unicode="&#xcf;" horiz-adv-x="283" 
d="M0 753.5q-15 7.5 -15 24.5v68q0 17 15 24.5t49 7.5t49 -7.5t15 -24.5v-68q0 -17 -15 -24.5t-49 -7.5t-49 7.5zM186 753.5q-15 7.5 -15 24.5v68q0 17 15 24.5t49 7.5t49 -7.5t15 -24.5v-68q0 -17 -15 -24.5t-49 -7.5t-49 7.5zM64 30v640q0 33 60 33h35q60 0 60 -33v-640
q0 -33 -60 -33h-35q-60 0 -60 33z" />
    <glyph glyph-name="Eth" unicode="&#xd0;" horiz-adv-x="696" 
d="M567.5 609.5q82.5 -90.5 82.5 -259.5t-82.5 -259.5t-237.5 -90.5h-214q-21 0 -30.5 9.5t-9.5 30.5v251h-34q-16 0 -23 12t-7 38v30q0 26 7 38t23 12h34v239q0 21 9.5 30.5t30.5 9.5h214q155 0 237.5 -90.5zM451 187q41 56 41 163t-41 163t-121 56h-99v-148h94
q16 0 23 -12t7 -38v-30q0 -26 -7 -38t-23 -12h-94v-160h99q80 0 121 56z" />
    <glyph glyph-name="Ntilde" unicode="&#xd1;" horiz-adv-x="719" 
d="M196 759q-16 9 -16 19q0 11 8 27q13 28 38.5 47t64.5 19q26 0 80 -16q45 -13 61 -13q21 0 42 19q1 1 8.5 6.5t14.5 5.5q12 0 27.5 -11.5t15.5 -21.5q0 -9 -8 -23q-14 -25 -40 -44.5t-64 -19.5q-26 0 -80 16q-45 13 -64 13q-13 0 -22.5 -5.5t-18.5 -14.5q-12 -12 -20 -12
q-11 0 -27 9zM69 30v640q0 32 60 32h43q24 0 40 -5.5t26 -21.5l225 -347q20 -29 36 -59l4 1q-2 23 -2 68v332q0 32 60 32h29q60 0 60 -32v-640q0 -32 -60 -32h-38q-24 0 -40 5.5t-26 21.5l-230 352q-20 29 -36 59l-4 -1q2 -23 2 -68v-337q0 -32 -60 -32h-29q-60 0 -60 32z
" />
    <glyph glyph-name="Ograve" unicode="&#xd2;" horiz-adv-x="731" 
d="M380 753q-14 4 -31 15l-86 57q-30 19 -30 32q0 11 16.5 14.5t54.5 3.5q34 0 52 -6.5t34 -23.5l54 -60q13 -14 13 -23q0 -13 -38 -13q-25 0 -39 4zM128 84.5q-83 92.5 -83 265.5t83 265.5t238 92.5t237.5 -92.5t82.5 -265.5t-82.5 -265.5t-237.5 -92.5t-238 92.5zM487 181
q41 58 41 169t-41 168.5t-121 57.5t-121.5 -57.5t-41.5 -168.5t41.5 -169t121.5 -58t121 58z" />
    <glyph glyph-name="Oacute" unicode="&#xd3;" horiz-adv-x="731" 
d="M274 762q0 9 13 23l54 60q16 17 34 23.5t52 6.5q38 0 54.5 -3.5t16.5 -14.5q0 -13 -30 -33l-86 -56q-16 -11 -30 -15t-40 -4q-38 0 -38 13zM128 84.5q-83 92.5 -83 265.5t83 265.5t238 92.5t237.5 -92.5t82.5 -265.5t-82.5 -265.5t-237.5 -92.5t-238 92.5zM487 181
q41 58 41 169t-41 168.5t-121 57.5t-121.5 -57.5t-41.5 -168.5t41.5 -169t121.5 -58t121 58z" />
    <glyph glyph-name="Ocircumflex" unicode="&#xd4;" horiz-adv-x="731" 
d="M226 736q-8 2 -8 8q0 7 21 30l56 63q12 14 24.5 18.5t35.5 4.5h20q23 0 35.5 -5t25.5 -19l55 -62q21 -23 21 -30q0 -6 -8 -8t-32 -2q-29 0 -58 17l-49 28l-49 -28q-31 -17 -58 -17q-24 0 -32 2zM128 84.5q-83 92.5 -83 265.5t83 265.5t238 92.5t237.5 -92.5t82.5 -265.5
t-82.5 -265.5t-237.5 -92.5t-238 92.5zM487 181q41 58 41 169t-41 168.5t-121 57.5t-121.5 -57.5t-41.5 -168.5t41.5 -169t121.5 -58t121 58z" />
    <glyph glyph-name="Otilde" unicode="&#xd5;" horiz-adv-x="731" 
d="M202 759q-16 9 -16 19q0 11 8 27q13 28 38.5 47t64.5 19q26 0 80 -16q45 -13 61 -13q21 0 42 19q1 1 8.5 6.5t14.5 5.5q12 0 27.5 -11.5t15.5 -21.5q0 -9 -8 -23q-14 -25 -40 -44.5t-64 -19.5q-26 0 -80 16q-45 13 -64 13q-13 0 -22.5 -5.5t-18.5 -14.5q-12 -12 -20 -12
q-11 0 -27 9zM128 84.5q-83 92.5 -83 265.5t83 265.5t238 92.5t237.5 -92.5t82.5 -265.5t-82.5 -265.5t-237.5 -92.5t-238 92.5zM487 181q41 58 41 169t-41 168.5t-121 57.5t-121.5 -57.5t-41.5 -168.5t41.5 -169t121.5 -58t121 58z" />
    <glyph glyph-name="Odieresis" unicode="&#xd6;" horiz-adv-x="731" 
d="M224 753.5q-15 7.5 -15 24.5v68q0 17 15 24.5t49 7.5t49 -7.5t15 -24.5v-68q0 -17 -15 -24.5t-49 -7.5t-49 7.5zM410 753.5q-15 7.5 -15 24.5v68q0 17 15 24.5t49 7.5t49 -7.5t15 -24.5v-68q0 -17 -15 -24.5t-49 -7.5t-49 7.5zM128 84.5q-83 92.5 -83 265.5t83 265.5
t238 92.5t237.5 -92.5t82.5 -265.5t-82.5 -265.5t-237.5 -92.5t-238 92.5zM487 181q41 58 41 169t-41 168.5t-121 57.5t-121.5 -57.5t-41.5 -168.5t41.5 -169t121.5 -58t121 58z" />
    <glyph glyph-name="multiply" unicode="&#xd7;" horiz-adv-x="560" 
d="M89 23q-16 12 -28 28t-12 26q0 9 9 18l147 147l-147 148q-9 9 -9 18q0 10 12 26t28 28t26 12q9 0 18 -9l147 -147l148 147q9 9 18 9t25 -12t28.5 -28t12.5 -26q0 -9 -9 -18l-147 -148l147 -147q9 -9 9 -18q0 -11 -12.5 -27t-28.5 -27.5t-25 -11.5t-18 9l-148 147
l-147 -147q-9 -9 -18 -9q-10 0 -26 12z" />
    <glyph glyph-name="Oslash" unicode="&#xd8;" horiz-adv-x="731" 
d="M686 350q0 -173 -82.5 -265.5t-237.5 -92.5q-137 0 -219 74l-58 -66q-10 -12 -22 -12q-13 0 -30.5 16t-17.5 30q0 8 10 20l67 75q-51 86 -51 221q0 173 83 265.5t238 92.5q119 0 194 -54l52 58q11 12 22 12q13 0 30.5 -16.5t17.5 -29.5q0 -9 -10 -20l-54 -61
q68 -89 68 -247zM212 260l251 284q-38 32 -97 32q-80 0 -121.5 -57.5t-41.5 -168.5q0 -49 9 -90zM487 181q41 58 41 169q0 74 -18 125l-263 -297q41 -55 119 -55q80 0 121 58z" />
    <glyph glyph-name="Ugrave" unicode="&#xd9;" horiz-adv-x="712" 
d="M370 753q-14 4 -31 15l-86 57q-30 19 -30 32q0 11 16.5 14.5t54.5 3.5q34 0 52 -6.5t34 -23.5l54 -60q13 -14 13 -23q0 -13 -38 -13q-25 0 -39 4zM142 55.5q-76 63.5 -76 178.5v436q0 32 60 32h34q60 0 60 -32v-426q0 -53 38 -87t98 -34t98.5 34t38.5 87v426q0 32 60 32
h33q60 0 60 -32v-436q0 -115 -76 -178.5t-214 -63.5t-214 63.5z" />
    <glyph glyph-name="Uacute" unicode="&#xda;" horiz-adv-x="712" 
d="M264 762q0 9 13 23l54 60q16 17 34 23.5t52 6.5q38 0 54.5 -3.5t16.5 -14.5q0 -13 -30 -33l-86 -56q-16 -11 -30 -15t-40 -4q-38 0 -38 13zM142 55.5q-76 63.5 -76 178.5v436q0 32 60 32h34q60 0 60 -32v-426q0 -53 38 -87t98 -34t98.5 34t38.5 87v426q0 32 60 32h33
q60 0 60 -32v-436q0 -115 -76 -178.5t-214 -63.5t-214 63.5z" />
    <glyph glyph-name="Ucircumflex" unicode="&#xdb;" horiz-adv-x="712" 
d="M216 736q-8 2 -8 8q0 7 21 30l56 63q12 14 24.5 18.5t35.5 4.5h20q23 0 35.5 -5t25.5 -19l55 -62q21 -23 21 -30q0 -6 -8 -8t-32 -2q-29 0 -58 17l-49 28l-49 -28q-31 -17 -58 -17q-24 0 -32 2zM142 55.5q-76 63.5 -76 178.5v436q0 32 60 32h34q60 0 60 -32v-426
q0 -53 38 -87t98 -34t98.5 34t38.5 87v426q0 32 60 32h33q60 0 60 -32v-436q0 -115 -76 -178.5t-214 -63.5t-214 63.5z" />
    <glyph glyph-name="Udieresis" unicode="&#xdc;" horiz-adv-x="712" 
d="M214 753.5q-15 7.5 -15 24.5v68q0 17 15 24.5t49 7.5t49 -7.5t15 -24.5v-68q0 -17 -15 -24.5t-49 -7.5t-49 7.5zM400 753.5q-15 7.5 -15 24.5v68q0 17 15 24.5t49 7.5t49 -7.5t15 -24.5v-68q0 -17 -15 -24.5t-49 -7.5t-49 7.5zM142 55.5q-76 63.5 -76 178.5v436
q0 32 60 32h34q60 0 60 -32v-426q0 -53 38 -87t98 -34t98.5 34t38.5 87v426q0 32 60 32h33q60 0 60 -32v-436q0 -115 -76 -178.5t-214 -63.5t-214 63.5z" />
    <glyph glyph-name="Yacute" unicode="&#xdd;" horiz-adv-x="559" 
d="M188 762q0 9 13 23l54 60q16 17 34 23.5t52 6.5q38 0 54.5 -3.5t16.5 -14.5q0 -13 -30 -33l-86 -56q-16 -11 -30 -15t-40 -4q-38 0 -38 13zM203 30v306l-199 321q-10 17 -10 25q0 20 64 20h43q49 0 60 -19l122 -214l123 214q11 19 60 19h36q63 0 63 -20q0 -10 -9 -25
l-199 -324v-303q0 -32 -60 -32h-34q-60 0 -60 32z" />
    <glyph glyph-name="Thorn" unicode="&#xde;" horiz-adv-x="570" 
d="M69 30v640q0 32 60 32h34q60 0 60 -32v-77h96q94 0 166 -45.5t72 -173.5q0 -88 -42 -136.5t-94 -65.5t-92 -17h-106v-125q0 -32 -60 -32h-34q-60 0 -60 32zM312 287q36 0 61.5 19t25.5 68t-25.5 68.5t-61.5 19.5h-89v-175h89z" />
    <glyph glyph-name="germandbls" unicode="&#xdf;" horiz-adv-x="554" 
d="M58 30v460q0 65 29.5 114.5t81.5 76.5t118 27q63 0 113.5 -21.5t79 -62t28.5 -94.5q0 -50 -24 -87t-69 -56v-4q62 -24 90 -66t28 -107q0 -60 -28.5 -108t-81.5 -75t-124 -27h-23q-16 0 -23 12t-7 38v17q0 26 7 38t23 12h14q42 0 67.5 25.5t25.5 67.5q0 46 -28 73.5
t-77 27.5h-2q-16 0 -23 12t-7 38v17q0 50 27 50h3q37 0 59.5 24t22.5 59q0 27 -18.5 49.5t-54.5 22.5t-57.5 -22.5t-21.5 -58.5v-472q0 -32 -60 -32h-28q-60 0 -60 32z" />
    <glyph glyph-name="agrave" unicode="&#xe0;" horiz-adv-x="545" 
d="M247 579q-18 7 -33 23l-57 63q-19 21 -19 36q0 10 11.5 13.5t41.5 3.5q45 0 60 -6t25 -25l40 -72q3 -6 8 -14.5t5 -13.5q0 -7 -8.5 -11t-32.5 -4q-23 0 -41 7zM77.5 32q-35.5 40 -35.5 106q0 80 58.5 133t228.5 53v33q0 29 -18.5 43t-59.5 14q-34 0 -59.5 -7t-45.5 -16
t-23 -9q-10 0 -22 15t-21 34.5t-9 30.5q0 17 25 33t69 26t97 10q113 0 164 -44.5t51 -122.5v-188q0 -46 2.5 -70t6.5 -53q3 -13 3 -22q0 -16 -40.5 -24t-71.5 -8q-18 0 -25 14.5t-10.5 31.5t-4.5 23q-6 -11 -24 -28.5t-50 -32.5t-73 -15q-77 0 -112.5 40zM292 127
q25 18 37 45v55q-140 0 -140 -74q0 -20 13 -32t37 -12q28 0 53 18z" />
    <glyph glyph-name="aacute" unicode="&#xe1;" horiz-adv-x="545" 
d="M203.5 576q-8.5 4 -8.5 11q0 5 5 13.5t8 14.5l40 72q10 19 25 25t60 6q30 0 41.5 -3.5t11.5 -13.5q0 -14 -19 -36l-57 -63q-15 -16 -33 -23t-41 -7q-24 0 -32.5 4zM77.5 32q-35.5 40 -35.5 106q0 80 58.5 133t228.5 53v33q0 29 -18.5 43t-59.5 14q-34 0 -59.5 -7
t-45.5 -16t-23 -9q-10 0 -22 15t-21 34.5t-9 30.5q0 17 25 33t69 26t97 10q113 0 164 -44.5t51 -122.5v-188q0 -46 2.5 -70t6.5 -53q3 -13 3 -22q0 -16 -40.5 -24t-71.5 -8q-18 0 -25 14.5t-10.5 31.5t-4.5 23q-6 -11 -24 -28.5t-50 -32.5t-73 -15q-77 0 -112.5 40zM292 127
q25 18 37 45v55q-140 0 -140 -74q0 -20 13 -32t37 -12q28 0 53 18z" />
    <glyph glyph-name="acircumflex" unicode="&#xe2;" horiz-adv-x="545" 
d="M144.5 575.5q-9.5 3.5 -9.5 11.5q0 5 6 15.5t7 12.5l44 77q8 15 22 20.5t44 5.5h28q30 0 44 -5.5t22 -20.5l44 -77q1 -2 7 -12.5t6 -15.5q0 -8 -9.5 -11.5t-31.5 -3.5q-24 0 -36.5 6t-23.5 19l-36 39l-36 -39q-11 -13 -23.5 -19t-36.5 -6q-22 0 -31.5 3.5zM77.5 32
q-35.5 40 -35.5 106q0 80 58.5 133t228.5 53v33q0 29 -18.5 43t-59.5 14q-34 0 -59.5 -7t-45.5 -16t-23 -9q-10 0 -22 15t-21 34.5t-9 30.5q0 17 25 33t69 26t97 10q113 0 164 -44.5t51 -122.5v-188q0 -46 2.5 -70t6.5 -53q3 -13 3 -22q0 -16 -40.5 -24t-71.5 -8
q-18 0 -25 14.5t-10.5 31.5t-4.5 23q-6 -11 -24 -28.5t-50 -32.5t-73 -15q-77 0 -112.5 40zM292 127q25 18 37 45v55q-140 0 -140 -74q0 -20 13 -32t37 -12q28 0 53 18z" />
    <glyph glyph-name="atilde" unicode="&#xe3;" horiz-adv-x="545" 
d="M110.5 591.5q-17.5 9.5 -17.5 20.5t5 23q13 30 39 49.5t62 19.5q27 0 81 -15q35 -11 51 -11t26 5t19 13q1 1 7.5 5.5t13.5 4.5q9 0 27.5 -12.5t18.5 -22.5q0 -8 -8 -25q-11 -24 -36.5 -42t-67.5 -18q-15 0 -34.5 4.5t-37.5 10.5q-37 11 -52 11t-26 -5.5t-22 -14.5
q-1 -1 -7.5 -5.5t-12.5 -4.5q-11 0 -28.5 9.5zM77.5 32q-35.5 40 -35.5 106q0 80 58.5 133t228.5 53v33q0 29 -18.5 43t-59.5 14q-34 0 -59.5 -7t-45.5 -16t-23 -9q-10 0 -22 15t-21 34.5t-9 30.5q0 17 25 33t69 26t97 10q113 0 164 -44.5t51 -122.5v-188q0 -46 2.5 -70
t6.5 -53q3 -13 3 -22q0 -16 -40.5 -24t-71.5 -8q-18 0 -25 14.5t-10.5 31.5t-4.5 23q-6 -11 -24 -28.5t-50 -32.5t-73 -15q-77 0 -112.5 40zM292 127q25 18 37 45v55q-140 0 -140 -74q0 -20 13 -32t37 -12q28 0 53 18z" />
    <glyph glyph-name="adieresis" unicode="&#xe4;" horiz-adv-x="545" 
d="M134.5 588.5q-14.5 7.5 -14.5 24.5v64q0 17 14.5 24.5t47.5 7.5t47.5 -7.5t14.5 -24.5v-64q0 -17 -14.5 -24.5t-47.5 -7.5t-47.5 7.5zM316.5 588.5q-14.5 7.5 -14.5 24.5v64q0 17 14.5 24.5t47.5 7.5t47.5 -7.5t14.5 -24.5v-64q0 -17 -14.5 -24.5t-47.5 -7.5t-47.5 7.5z
M77.5 32q-35.5 40 -35.5 106q0 80 58.5 133t228.5 53v33q0 29 -18.5 43t-59.5 14q-34 0 -59.5 -7t-45.5 -16t-23 -9q-10 0 -22 15t-21 34.5t-9 30.5q0 17 25 33t69 26t97 10q113 0 164 -44.5t51 -122.5v-188q0 -46 2.5 -70t6.5 -53q3 -13 3 -22q0 -16 -40.5 -24t-71.5 -8
q-18 0 -25 14.5t-10.5 31.5t-4.5 23q-6 -11 -24 -28.5t-50 -32.5t-73 -15q-77 0 -112.5 40zM292 127q25 18 37 45v55q-140 0 -140 -74q0 -20 13 -32t37 -12q28 0 53 18z" />
    <glyph glyph-name="aring" unicode="&#xe5;" horiz-adv-x="545" 
d="M199.5 569.5q-29.5 28.5 -29.5 70.5q0 43 29 71.5t73 28.5t73.5 -28.5t29.5 -71.5q0 -42 -29.5 -70.5t-73.5 -28.5q-43 0 -72.5 28.5zM297 615q10 10 10 24q0 15 -10 25t-25 10q-14 0 -24 -10t-10 -25q0 -14 10 -24t24 -10q15 0 25 10zM77.5 32q-35.5 40 -35.5 106
q0 80 58.5 133t228.5 53v33q0 29 -18.5 43t-59.5 14q-34 0 -59.5 -7t-45.5 -16t-23 -9q-10 0 -22 15t-21 34.5t-9 30.5q0 17 25 33t69 26t97 10q113 0 164 -44.5t51 -122.5v-188q0 -46 2.5 -70t6.5 -53q3 -13 3 -22q0 -16 -40.5 -24t-71.5 -8q-18 0 -25 14.5t-10.5 31.5
t-4.5 23q-6 -11 -24 -28.5t-50 -32.5t-73 -15q-77 0 -112.5 40zM292 127q25 18 37 45v55q-140 0 -140 -74q0 -20 13 -32t37 -12q28 0 53 18z" />
    <glyph glyph-name="ae" unicode="&#xe6;" horiz-adv-x="819" 
d="M86 33q-44 41 -44 105q0 79 58 131.5t226 53.5q4 35 15 64q-21 27 -90 27q-43 0 -101 -24q-24 -8 -27 -8q-10 0 -22 15t-21 34.5t-9 30.5q0 17 25 33t69 26t97 10q108 0 161 -36q59 36 142 36q112 0 164 -68t52 -180q0 -13 -19.5 -36t-29.5 -23h-255q0 -61 32 -88t81 -27
q28 0 51 6.5t48 16.5q16 8 22 8q10 0 22.5 -14.5t21 -33t8.5 -28.5q0 -23 -31 -39.5t-74 -24.5t-75 -8q-127 0 -195 68q-24 -24 -71.5 -46t-108.5 -22q-78 0 -122 41zM637 323q0 43 -19.5 67t-52.5 24q-76 0 -90 -91h162zM294 121.5q27 12.5 41 34.5q-9 32 -12 69
q-134 -1 -134 -72q0 -20 13 -32t37 -12q28 0 55 12.5z" />
    <glyph glyph-name="ccedilla" unicode="&#xe7;" horiz-adv-x="485" 
d="M423.5 15.5q-45.5 -16.5 -99.5 -21.5l-11 -41q38 -5 60 -24t22 -49q0 -45 -30 -68.5t-89 -23.5q-47 0 -89 14t-42 36q0 18 10 29t18 11t29 -7q43 -15 72 -15q19 0 27 5.5t8 17.5t-11.5 18.5t-30.5 11.5q-3 1 -11.5 3.5t-12.5 5.5t-4 7q0 7 20 68q-110 9 -163.5 74.5
t-53.5 190.5q0 136 62.5 204.5t194.5 68.5q61 0 113.5 -18.5t52.5 -50.5q0 -15 -20.5 -46t-32.5 -31q-4 0 -18 7q-20 10 -39.5 16t-47.5 6q-59 0 -86 -37t-27 -115t25.5 -115.5t81.5 -37.5q26 0 46.5 5.5t34 10.5t17.5 7q16 6 18 6q10 0 22.5 -14.5t21 -33t8.5 -28.5
q0 -30 -45.5 -46.5z" />
    <glyph glyph-name="egrave" unicode="&#xe8;" horiz-adv-x="539" 
d="M254 579q-18 7 -33 23l-57 63q-19 21 -19 36q0 10 11.5 13.5t41.5 3.5q45 0 60 -6t25 -25l40 -72q3 -6 8 -14.5t5 -13.5q0 -7 -8.5 -11t-32.5 -4q-23 0 -41 7zM106.5 62.5q-64.5 70.5 -64.5 195.5q0 141 64.5 207t178.5 66q111 0 163.5 -72t52.5 -186q0 -12 -20.5 -35.5
t-30.5 -23.5h-255q5 -57 34 -81t81 -24q28 0 51 6.5t48 16.5q16 8 22 8q10 0 22.5 -14.5t21 -33t8.5 -28.5q0 -23 -31 -39.5t-74 -24.5t-75 -8q-132 0 -196.5 70.5zM357 313q0 46 -18 73.5t-54 27.5q-74 0 -90 -101h162z" />
    <glyph glyph-name="eacute" unicode="&#xe9;" horiz-adv-x="539" 
d="M210.5 576q-8.5 4 -8.5 11q0 5 5 13.5t8 14.5l40 72q10 19 25 25t60 6q30 0 41.5 -3.5t11.5 -13.5q0 -14 -19 -36l-57 -63q-15 -16 -33 -23t-41 -7q-24 0 -32.5 4zM106.5 62.5q-64.5 70.5 -64.5 195.5q0 141 64.5 207t178.5 66q111 0 163.5 -72t52.5 -186
q0 -12 -20.5 -35.5t-30.5 -23.5h-255q5 -57 34 -81t81 -24q28 0 51 6.5t48 16.5q16 8 22 8q10 0 22.5 -14.5t21 -33t8.5 -28.5q0 -23 -31 -39.5t-74 -24.5t-75 -8q-132 0 -196.5 70.5zM357 313q0 46 -18 73.5t-54 27.5q-74 0 -90 -101h162z" />
    <glyph glyph-name="ecircumflex" unicode="&#xea;" horiz-adv-x="539" 
d="M151.5 575.5q-9.5 3.5 -9.5 11.5q0 5 6 15.5t7 12.5l44 77q8 15 22 20.5t44 5.5h28q30 0 44 -5.5t22 -20.5l44 -77q1 -2 7 -12.5t6 -15.5q0 -8 -9.5 -11.5t-31.5 -3.5q-24 0 -36.5 6t-23.5 19l-36 39l-36 -39q-11 -13 -23.5 -19t-36.5 -6q-22 0 -31.5 3.5zM106.5 62.5
q-64.5 70.5 -64.5 195.5q0 141 64.5 207t178.5 66q111 0 163.5 -72t52.5 -186q0 -12 -20.5 -35.5t-30.5 -23.5h-255q5 -57 34 -81t81 -24q28 0 51 6.5t48 16.5q16 8 22 8q10 0 22.5 -14.5t21 -33t8.5 -28.5q0 -23 -31 -39.5t-74 -24.5t-75 -8q-132 0 -196.5 70.5zM357 313
q0 46 -18 73.5t-54 27.5q-74 0 -90 -101h162z" />
    <glyph glyph-name="edieresis" unicode="&#xeb;" horiz-adv-x="539" 
d="M141.5 588.5q-14.5 7.5 -14.5 24.5v64q0 17 14.5 24.5t47.5 7.5t47.5 -7.5t14.5 -24.5v-64q0 -17 -14.5 -24.5t-47.5 -7.5t-47.5 7.5zM323.5 588.5q-14.5 7.5 -14.5 24.5v64q0 17 14.5 24.5t47.5 7.5t47.5 -7.5t14.5 -24.5v-64q0 -17 -14.5 -24.5t-47.5 -7.5t-47.5 7.5z
M106.5 62.5q-64.5 70.5 -64.5 195.5q0 141 64.5 207t178.5 66q111 0 163.5 -72t52.5 -186q0 -12 -20.5 -35.5t-30.5 -23.5h-255q5 -57 34 -81t81 -24q28 0 51 6.5t48 16.5q16 8 22 8q10 0 22.5 -14.5t21 -33t8.5 -28.5q0 -23 -31 -39.5t-74 -24.5t-75 -8q-132 0 -196.5 70.5
zM357 313q0 46 -18 73.5t-54 27.5q-74 0 -90 -101h162z" />
    <glyph glyph-name="igrave" unicode="&#xec;" horiz-adv-x="265" 
d="M107 579q-18 7 -33 23l-57 63q-19 21 -19 36q0 10 11.5 13.5t41.5 3.5q45 0 60 -6t25 -25l40 -72q3 -6 8 -14.5t5 -13.5q0 -7 -8.5 -11t-32.5 -4q-23 0 -41 7zM59 30v463q0 32 60 32h28q60 0 60 -32v-463q0 -32 -60 -32h-28q-60 0 -60 32z" />
    <glyph glyph-name="iacute" unicode="&#xed;" horiz-adv-x="265" 
d="M63.5 576q-8.5 4 -8.5 11q0 5 5 13.5t8 14.5l40 72q10 19 25 25t60 6q30 0 41.5 -3.5t11.5 -13.5q0 -14 -19 -36l-57 -63q-15 -16 -33 -23t-41 -7q-24 0 -32.5 4zM59 30v463q0 32 60 32h28q60 0 60 -32v-463q0 -32 -60 -32h-28q-60 0 -60 32z" />
    <glyph glyph-name="icircumflex" unicode="&#xee;" horiz-adv-x="265" 
d="M4.5 575.5q-9.5 3.5 -9.5 11.5q0 5 6 15.5t7 12.5l44 77q8 15 22 20.5t44 5.5h28q30 0 44 -5.5t22 -20.5l44 -77q1 -2 7 -12.5t6 -15.5q0 -8 -9.5 -11.5t-31.5 -3.5q-24 0 -36.5 6t-23.5 19l-36 39l-36 -39q-11 -13 -23.5 -19t-36.5 -6q-22 0 -31.5 3.5zM59 30v463
q0 32 60 32h28q60 0 60 -32v-463q0 -32 -60 -32h-28q-60 0 -60 32z" />
    <glyph glyph-name="idieresis" unicode="&#xef;" horiz-adv-x="265" 
d="M-5.5 588.5q-14.5 7.5 -14.5 24.5v64q0 17 14.5 24.5t47.5 7.5t47.5 -7.5t14.5 -24.5v-64q0 -17 -14.5 -24.5t-47.5 -7.5t-47.5 7.5zM176.5 588.5q-14.5 7.5 -14.5 24.5v64q0 17 14.5 24.5t47.5 7.5t47.5 -7.5t14.5 -24.5v-64q0 -17 -14.5 -24.5t-47.5 -7.5t-47.5 7.5z
M59 30v463q0 32 60 32h28q60 0 60 -32v-463q0 -32 -60 -32h-28q-60 0 -60 32z" />
    <glyph glyph-name="eth" unicode="&#xf0;" horiz-adv-x="569" 
d="M498 449.5q29 -92.5 29 -187.5q0 -131 -61.5 -200.5t-180.5 -69.5t-181 69.5t-62 200.5t62 200t181 69q19 0 51 -4q-12 27 -32 62q-55 -8 -61 -8q-15 0 -27 13t-12 29q0 13 21 16l43 6l-14 18q-24 26 -24 33q0 11 19 12l62 7q24 0 38 -11q15 -11 40 -43l68 9
q13 0 25 -13.5t12 -28.5q0 -13 -21 -16l-46 -6q42 -64 71 -156.5zM354.5 147.5q22.5 38.5 22.5 114.5t-22.5 114t-69.5 38t-70 -38t-23 -114q0 -153 93 -153q47 0 69.5 38.5z" />
    <glyph glyph-name="ntilde" unicode="&#xf1;" horiz-adv-x="557" 
d="M116.5 591.5q-17.5 9.5 -17.5 20.5t5 23q13 30 39 49.5t62 19.5q27 0 81 -15q35 -11 51 -11t26 5t19 13q1 1 7.5 5.5t13.5 4.5q9 0 27.5 -12.5t18.5 -22.5q0 -8 -8 -25q-11 -24 -36.5 -42t-67.5 -18q-15 0 -34.5 4.5t-37.5 10.5q-37 11 -52 11t-26 -5.5t-22 -14.5
q-1 -1 -7.5 -5.5t-12.5 -4.5q-11 0 -28.5 9.5zM62 30v317q0 44 -2.5 67.5t-6.5 52.5q-3 14 -3 21q0 16 40.5 24t71.5 8q18 0 25 -13.5t10.5 -29.5t4.5 -22q24 32 64 54t85 22q75 0 111 -39.5t36 -122.5v-339q0 -32 -60 -32h-28q-60 0 -60 32v317q0 31 -14 46.5t-46 15.5
q-27 0 -47.5 -17.5t-32.5 -40.5v-321q0 -32 -60 -32h-28q-60 0 -60 32z" />
    <glyph glyph-name="ograve" unicode="&#xf2;" horiz-adv-x="569" 
d="M259 579q-18 7 -33 23l-57 63q-19 21 -19 36q0 10 11.5 13.5t41.5 3.5q45 0 60 -6t25 -25l40 -72q3 -6 8 -14.5t5 -13.5q0 -7 -8.5 -11t-32.5 -4q-23 0 -41 7zM104 61.5q-62 69.5 -62 200.5t62 200t181 69t180.5 -69t61.5 -200t-61.5 -200.5t-180.5 -69.5t-181 69.5z
M354.5 147.5q22.5 38.5 22.5 114.5t-22.5 114t-69.5 38t-70 -38t-23 -114q0 -153 93 -153q47 0 69.5 38.5z" />
    <glyph glyph-name="oacute" unicode="&#xf3;" horiz-adv-x="569" 
d="M215.5 576q-8.5 4 -8.5 11q0 5 5 13.5t8 14.5l40 72q10 19 25 25t60 6q30 0 41.5 -3.5t11.5 -13.5q0 -14 -19 -36l-57 -63q-15 -16 -33 -23t-41 -7q-24 0 -32.5 4zM104 61.5q-62 69.5 -62 200.5t62 200t181 69t180.5 -69t61.5 -200t-61.5 -200.5t-180.5 -69.5t-181 69.5z
M354.5 147.5q22.5 38.5 22.5 114.5t-22.5 114t-69.5 38t-70 -38t-23 -114q0 -153 93 -153q47 0 69.5 38.5z" />
    <glyph glyph-name="ocircumflex" unicode="&#xf4;" horiz-adv-x="569" 
d="M156.5 575.5q-9.5 3.5 -9.5 11.5q0 5 6 15.5t7 12.5l44 77q8 15 22 20.5t44 5.5h28q30 0 44 -5.5t22 -20.5l44 -77q1 -2 7 -12.5t6 -15.5q0 -8 -9.5 -11.5t-31.5 -3.5q-24 0 -36.5 6t-23.5 19l-36 39l-36 -39q-11 -13 -23.5 -19t-36.5 -6q-22 0 -31.5 3.5zM104 61.5
q-62 69.5 -62 200.5t62 200t181 69t180.5 -69t61.5 -200t-61.5 -200.5t-180.5 -69.5t-181 69.5zM354.5 147.5q22.5 38.5 22.5 114.5t-22.5 114t-69.5 38t-70 -38t-23 -114q0 -153 93 -153q47 0 69.5 38.5z" />
    <glyph glyph-name="otilde" unicode="&#xf5;" horiz-adv-x="569" 
d="M122.5 591.5q-17.5 9.5 -17.5 20.5t5 23q13 30 39 49.5t62 19.5q27 0 81 -15q35 -11 51 -11t26 5t19 13q1 1 7.5 5.5t13.5 4.5q9 0 27.5 -12.5t18.5 -22.5q0 -8 -8 -25q-11 -24 -36.5 -42t-67.5 -18q-15 0 -34.5 4.5t-37.5 10.5q-37 11 -52 11t-26 -5.5t-22 -14.5
q-1 -1 -7.5 -5.5t-12.5 -4.5q-11 0 -28.5 9.5zM104 61.5q-62 69.5 -62 200.5t62 200t181 69t180.5 -69t61.5 -200t-61.5 -200.5t-180.5 -69.5t-181 69.5zM354.5 147.5q22.5 38.5 22.5 114.5t-22.5 114t-69.5 38t-70 -38t-23 -114q0 -153 93 -153q47 0 69.5 38.5z" />
    <glyph glyph-name="odieresis" unicode="&#xf6;" horiz-adv-x="569" 
d="M146.5 588.5q-14.5 7.5 -14.5 24.5v64q0 17 14.5 24.5t47.5 7.5t47.5 -7.5t14.5 -24.5v-64q0 -17 -14.5 -24.5t-47.5 -7.5t-47.5 7.5zM328.5 588.5q-14.5 7.5 -14.5 24.5v64q0 17 14.5 24.5t47.5 7.5t47.5 -7.5t14.5 -24.5v-64q0 -17 -14.5 -24.5t-47.5 -7.5t-47.5 7.5z
M104 61.5q-62 69.5 -62 200.5t62 200t181 69t180.5 -69t61.5 -200t-61.5 -200.5t-180.5 -69.5t-181 69.5zM354.5 147.5q22.5 38.5 22.5 114.5t-22.5 114t-69.5 38t-70 -38t-23 -114q0 -153 93 -153q47 0 69.5 38.5z" />
    <glyph glyph-name="divide" unicode="&#xf7;" horiz-adv-x="560" 
d="M214 350v71q0 32 60 32h11q60 0 60 -32v-71q0 -32 -60 -32h-11q-60 0 -60 32zM37 184q-7 12 -7 38v7q0 26 7 38t23 12h440q16 0 23 -12t7 -38v-7q0 -26 -7 -38t-23 -12h-440q-16 0 -23 12zM214 30v71q0 32 60 32h11q60 0 60 -32v-71q0 -32 -60 -32h-11q-60 0 -60 32z" />
    <glyph glyph-name="oslash" unicode="&#xf8;" horiz-adv-x="569" 
d="M484 437q43 -65 43 -175q0 -131 -61.5 -200.5t-180.5 -69.5q-91 0 -149 41l-28 -32q-10 -13 -21 -13q-13 0 -30.5 15t-17.5 29q0 10 10 21l33 38q-40 68 -40 171q0 131 62 200t181 69q86 0 143 -37l32 37q11 13 22 13q12 0 30 -16t18 -28q0 -9 -10 -21zM194 221l147 172
q-21 21 -56 21q-47 0 -70 -38t-23 -114q0 -15 2 -41zM374 310l-150 -175q23 -26 61 -26q47 0 69.5 38.5t22.5 114.5q0 27 -3 48z" />
    <glyph glyph-name="ugrave" unicode="&#xf9;" horiz-adv-x="557" 
d="M253 579q-18 7 -33 23l-57 63q-19 21 -19 36q0 10 11.5 13.5t41.5 3.5q45 0 60 -6t25 -25l40 -72q3 -6 8 -14.5t5 -13.5q0 -7 -8.5 -11t-32.5 -4q-23 0 -41 7zM95 31.5q-36 39.5 -36 122.5v339q0 32 60 32h28q60 0 60 -32v-317q0 -31 14 -46.5t46 -15.5q27 0 47.5 17.5
t32.5 40.5v321q0 32 60 32h28q60 0 60 -32v-317q0 -46 2.5 -70t6.5 -53q3 -13 3 -22q0 -16 -40.5 -24t-71.5 -8q-18 0 -25 14.5t-10.5 31.5t-4.5 23q-24 -32 -63.5 -54t-85.5 -22q-75 0 -111 39.5z" />
    <glyph glyph-name="uacute" unicode="&#xfa;" horiz-adv-x="557" 
d="M209.5 576q-8.5 4 -8.5 11q0 5 5 13.5t8 14.5l40 72q10 19 25 25t60 6q30 0 41.5 -3.5t11.5 -13.5q0 -14 -19 -36l-57 -63q-15 -16 -33 -23t-41 -7q-24 0 -32.5 4zM95 31.5q-36 39.5 -36 122.5v339q0 32 60 32h28q60 0 60 -32v-317q0 -31 14 -46.5t46 -15.5
q27 0 47.5 17.5t32.5 40.5v321q0 32 60 32h28q60 0 60 -32v-317q0 -46 2.5 -70t6.5 -53q3 -13 3 -22q0 -16 -40.5 -24t-71.5 -8q-18 0 -25 14.5t-10.5 31.5t-4.5 23q-24 -32 -63.5 -54t-85.5 -22q-75 0 -111 39.5z" />
    <glyph glyph-name="ucircumflex" unicode="&#xfb;" horiz-adv-x="557" 
d="M150.5 575.5q-9.5 3.5 -9.5 11.5q0 5 6 15.5t7 12.5l44 77q8 15 22 20.5t44 5.5h28q30 0 44 -5.5t22 -20.5l44 -77q1 -2 7 -12.5t6 -15.5q0 -8 -9.5 -11.5t-31.5 -3.5q-24 0 -36.5 6t-23.5 19l-36 39l-36 -39q-11 -13 -23.5 -19t-36.5 -6q-22 0 -31.5 3.5zM95 31.5
q-36 39.5 -36 122.5v339q0 32 60 32h28q60 0 60 -32v-317q0 -31 14 -46.5t46 -15.5q27 0 47.5 17.5t32.5 40.5v321q0 32 60 32h28q60 0 60 -32v-317q0 -46 2.5 -70t6.5 -53q3 -13 3 -22q0 -16 -40.5 -24t-71.5 -8q-18 0 -25 14.5t-10.5 31.5t-4.5 23q-24 -32 -63.5 -54
t-85.5 -22q-75 0 -111 39.5z" />
    <glyph glyph-name="udieresis" unicode="&#xfc;" horiz-adv-x="557" 
d="M140.5 588.5q-14.5 7.5 -14.5 24.5v64q0 17 14.5 24.5t47.5 7.5t47.5 -7.5t14.5 -24.5v-64q0 -17 -14.5 -24.5t-47.5 -7.5t-47.5 7.5zM322.5 588.5q-14.5 7.5 -14.5 24.5v64q0 17 14.5 24.5t47.5 7.5t47.5 -7.5t14.5 -24.5v-64q0 -17 -14.5 -24.5t-47.5 -7.5t-47.5 7.5z
M95 31.5q-36 39.5 -36 122.5v339q0 32 60 32h28q60 0 60 -32v-317q0 -31 14 -46.5t46 -15.5q27 0 47.5 17.5t32.5 40.5v321q0 32 60 32h28q60 0 60 -32v-317q0 -46 2.5 -70t6.5 -53q3 -13 3 -22q0 -16 -40.5 -24t-71.5 -8q-18 0 -25 14.5t-10.5 31.5t-4.5 23
q-24 -32 -63.5 -54t-85.5 -22q-75 0 -111 39.5z" />
    <glyph glyph-name="yacute" unicode="&#xfd;" horiz-adv-x="481" 
d="M171.5 576q-8.5 4 -8.5 11q0 5 5 13.5t8 14.5l40 72q10 19 25 25t60 6q30 0 41.5 -3.5t11.5 -13.5q0 -14 -19 -36l-57 -63q-15 -16 -33 -23t-41 -7q-24 0 -32.5 4zM477 503q0 -7 -3 -18l-229 -670q-7 -21 -56 -21h-17q-60 0 -60 21q0 9 4 18l63 169l-165 483q-4 14 -4 18
q0 22 61 22h32q49 0 56 -21l59 -185q9 -28 28 -121h4q20 96 28 121l59 185q7 21 56 21h24q60 0 60 -22z" />
    <glyph glyph-name="thorn" unicode="&#xfe;" horiz-adv-x="573" 
d="M70 -174v896q0 32 60 32h28q60 0 60 -32v-252q19 28 52.5 44.5t73.5 16.5q54 0 96.5 -31.5t66.5 -92.5t24 -146q0 -124 -55.5 -196.5t-155.5 -72.5q-59 0 -102 31v-197q0 -32 -60 -32h-28q-60 0 -60 32zM381 261q0 149 -81 149q-48 0 -82 -59v-223q34 -19 70 -19
q93 0 93 152z" />
    <glyph glyph-name="ydieresis" unicode="&#xff;" horiz-adv-x="481" 
d="M102.5 588.5q-14.5 7.5 -14.5 24.5v64q0 17 14.5 24.5t47.5 7.5t47.5 -7.5t14.5 -24.5v-64q0 -17 -14.5 -24.5t-47.5 -7.5t-47.5 7.5zM284.5 588.5q-14.5 7.5 -14.5 24.5v64q0 17 14.5 24.5t47.5 7.5t47.5 -7.5t14.5 -24.5v-64q0 -17 -14.5 -24.5t-47.5 -7.5t-47.5 7.5z
M477 503q0 -7 -3 -18l-229 -670q-7 -21 -56 -21h-17q-60 0 -60 21q0 9 4 18l63 169l-165 483q-4 14 -4 18q0 22 61 22h32q49 0 56 -21l59 -185q9 -28 28 -121h4q20 96 28 121l59 185q7 21 56 21h24q60 0 60 -22z" />
    <glyph glyph-name="Amacron" unicode="&#x100;" horiz-adv-x="613" 
d="M148 775.5q-7 9.5 -7 30.5v15q0 21 7 30.5t23 9.5h271q16 0 23 -9.5t7 -30.5v-15q0 -21 -7 -30.5t-23 -9.5h-271q-16 0 -23 9.5zM0 20q0 4 4 18l220 643q8 21 57 21h52q50 0 57 -21l220 -643q3 -10 3 -18q0 -22 -50 -22h-44q-49 0 -56 21l-40 122h-236l-40 -122
q-7 -21 -46 -21h-40q-61 0 -61 22zM380 273l-57 178q-7 20 -15 64h-4q-1 -6 -4.5 -26.5t-10.5 -37.5l-59 -178h150z" />
    <glyph glyph-name="amacron" unicode="&#x101;" horiz-adv-x="545" 
d="M127 606.5q-7 9.5 -7 30.5v15q0 21 7 30.5t23 9.5h245q16 0 23 -9.5t7 -30.5v-15q0 -21 -7 -30.5t-23 -9.5h-245q-16 0 -23 9.5zM77.5 32q-35.5 40 -35.5 106q0 80 58.5 133t228.5 53v33q0 29 -18.5 43t-59.5 14q-34 0 -59.5 -7t-45.5 -16t-23 -9q-10 0 -22 15t-21 34.5
t-9 30.5q0 17 25 33t69 26t97 10q113 0 164 -44.5t51 -122.5v-188q0 -46 2.5 -70t6.5 -53q3 -13 3 -22q0 -16 -40.5 -24t-71.5 -8q-18 0 -25 14.5t-10.5 31.5t-4.5 23q-6 -11 -24 -28.5t-50 -32.5t-73 -15q-77 0 -112.5 40zM292 127q25 18 37 45v55q-140 0 -140 -74
q0 -20 13 -32t37 -12q28 0 53 18z" />
    <glyph glyph-name="Abreve" unicode="&#x102;" horiz-adv-x="613" 
d="M226 757q-36 16 -56 41.5t-20 54.5q0 13 9 20.5t26 7.5q11 0 17.5 -4t15.5 -14q13 -14 32 -22.5t57 -8.5q40 0 59 9t32 24q7 8 13.5 12t17.5 4q17 0 26 -7.5t9 -20.5q0 -29 -20 -54.5t-56 -41.5t-81 -16t-81 16zM0 20q0 4 4 18l220 643q8 21 57 21h52q50 0 57 -21
l220 -643q3 -10 3 -18q0 -22 -50 -22h-44q-49 0 -56 21l-40 122h-236l-40 -122q-7 -21 -46 -21h-40q-61 0 -61 22zM380 273l-57 178q-7 20 -15 64h-4q-1 -6 -4.5 -26.5t-10.5 -37.5l-59 -178h150z" />
    <glyph glyph-name="abreve" unicode="&#x103;" horiz-adv-x="545" 
d="M202.5 591q-31.5 16 -49 41.5t-17.5 54.5q0 13 9 20.5t26 7.5q11 0 17.5 -4t15.5 -14q14 -15 28 -23t41 -8q31 0 44 8t27 25q7 8 13.5 12t17.5 4q17 0 26 -7.5t9 -20.5q0 -29 -17.5 -54.5t-49 -41.5t-70.5 -16t-70.5 16zM77.5 32q-35.5 40 -35.5 106q0 80 58.5 133
t228.5 53v33q0 29 -18.5 43t-59.5 14q-34 0 -59.5 -7t-45.5 -16t-23 -9q-10 0 -22 15t-21 34.5t-9 30.5q0 17 25 33t69 26t97 10q113 0 164 -44.5t51 -122.5v-188q0 -46 2.5 -70t6.5 -53q3 -13 3 -22q0 -16 -40.5 -24t-71.5 -8q-18 0 -25 14.5t-10.5 31.5t-4.5 23
q-6 -11 -24 -28.5t-50 -32.5t-73 -15q-77 0 -112.5 40zM292 127q25 18 37 45v55q-140 0 -140 -74q0 -20 13 -32t37 -12q28 0 53 18z" />
    <glyph glyph-name="Aogonek" unicode="&#x104;" horiz-adv-x="613" 
d="M615.5 -116q5.5 -17 5.5 -35q0 -21 -24.5 -33t-63.5 -12q-51 0 -79 24t-28 69q0 28 17 55.5t49 47.5q-25 5 -29 19l-40 122h-236l-40 -122q-7 -21 -46 -21h-40q-61 0 -61 22q0 4 4 18l220 643q8 21 57 21h52q50 0 57 -21l220 -643q3 -10 3 -18q0 -22 -50 -22h-2
q-24 -17 -37 -38.5t-13 -38.5q0 -13 9 -21t26 -8q15 0 31 4.5t22 4.5q11 0 16.5 -17zM380 273l-57 178q-7 20 -15 64h-4q-1 -6 -4.5 -26.5t-10.5 -37.5l-59 -178h150z" />
    <glyph glyph-name="aogonek" unicode="&#x105;" horiz-adv-x="545" 
d="M496.5 -115q5.5 -17 5.5 -35q0 -21 -24.5 -33t-63.5 -12q-51 0 -79 24t-28 69q0 27 16.5 54.5t47.5 47.5q-14 3 -20 16.5t-9 29t-5 22.5q-6 -11 -24 -28.5t-50 -32.5t-73 -15q-77 0 -112.5 40t-35.5 106q0 80 58.5 133t228.5 53v33q0 29 -18.5 43t-59.5 14
q-34 0 -59.5 -7t-45.5 -16t-23 -9q-10 0 -22 15t-21 34.5t-9 30.5q0 17 25 33t69 26t97 10q113 0 164 -44.5t51 -122.5v-188q0 -46 2.5 -70t6.5 -53q3 -13 3 -22q0 -12 -30 -21q-31 -18 -49 -42.5t-18 -45.5q0 -13 9 -21t26 -8q15 0 31 4.5t22 4.5q11 0 16.5 -17zM329 227
q-140 0 -140 -74q0 -20 13 -32t37 -12q28 0 53 18t37 45v55z" />
    <glyph glyph-name="Cacute" unicode="&#x106;" horiz-adv-x="619" 
d="M276 762q0 9 13 23l54 60q16 17 34 23.5t52 6.5q38 0 54.5 -3.5t16.5 -14.5q0 -13 -30 -33l-86 -56q-16 -11 -30 -15t-40 -4q-38 0 -38 13zM125.5 79.5q-80.5 87.5 -80.5 272.5q0 356 334 356q50 0 102 -10.5t81 -27.5q26 -15 26 -32q0 -14 -11 -36.5t-26.5 -40
t-27.5 -17.5q-3 0 -24 9t-51 16t-72 7q-88 0 -130.5 -56t-42.5 -169q0 -228 171 -228q45 0 78 9t64 23q16 8 22 8q15 0 28.5 -17t22 -38.5t8.5 -31.5q0 -26 -35 -46q-33 -19 -87 -28.5t-101 -9.5q-168 0 -248.5 87.5z" />
    <glyph glyph-name="cacute" unicode="&#x107;" horiz-adv-x="485" 
d="M205.5 576q-8.5 4 -8.5 11q0 5 5 13.5t8 14.5l40 72q10 19 25 25t60 6q30 0 41.5 -3.5t11.5 -13.5q0 -14 -19 -36l-57 -63q-15 -16 -33 -23t-41 -7q-24 0 -32.5 4zM104 57.5q-62 65.5 -62 200.5q0 136 62.5 204.5t194.5 68.5q61 0 113.5 -18.5t52.5 -50.5
q0 -15 -20.5 -46t-32.5 -31q-4 0 -18 7q-20 10 -39.5 16t-47.5 6q-59 0 -86 -37t-27 -115t25.5 -115.5t81.5 -37.5q26 0 46.5 5.5t34 10.5t17.5 7q16 6 18 6q10 0 22.5 -14.5t21 -33t8.5 -28.5q0 -25 -33.5 -41t-75.5 -22.5t-66 -6.5q-128 0 -190 65.5z" />
    <glyph glyph-name="Ccircumflex" unicode="&#x108;" horiz-adv-x="619" 
d="M228 736q-8 2 -8 8q0 7 21 30l56 63q12 14 24.5 18.5t35.5 4.5h20q23 0 35.5 -5t25.5 -19l55 -62q21 -23 21 -30q0 -6 -8 -8t-32 -2q-29 0 -58 17l-49 28l-49 -28q-31 -17 -58 -17q-24 0 -32 2zM125.5 79.5q-80.5 87.5 -80.5 272.5q0 356 334 356q50 0 102 -10.5
t81 -27.5q26 -15 26 -32q0 -14 -11 -36.5t-26.5 -40t-27.5 -17.5q-3 0 -24 9t-51 16t-72 7q-88 0 -130.5 -56t-42.5 -169q0 -228 171 -228q45 0 78 9t64 23q16 8 22 8q15 0 28.5 -17t22 -38.5t8.5 -31.5q0 -26 -35 -46q-33 -19 -87 -28.5t-101 -9.5q-168 0 -248.5 87.5z" />
    <glyph glyph-name="ccircumflex" unicode="&#x109;" horiz-adv-x="485" 
d="M146.5 575.5q-9.5 3.5 -9.5 11.5q0 5 6 15.5t7 12.5l44 77q8 15 22 20.5t44 5.5h28q30 0 44 -5.5t22 -20.5l44 -77q1 -2 7 -12.5t6 -15.5q0 -8 -9.5 -11.5t-31.5 -3.5q-24 0 -36.5 6t-23.5 19l-36 39l-36 -39q-11 -13 -23.5 -19t-36.5 -6q-22 0 -31.5 3.5zM104 57.5
q-62 65.5 -62 200.5q0 136 62.5 204.5t194.5 68.5q61 0 113.5 -18.5t52.5 -50.5q0 -15 -20.5 -46t-32.5 -31q-4 0 -18 7q-20 10 -39.5 16t-47.5 6q-59 0 -86 -37t-27 -115t25.5 -115.5t81.5 -37.5q26 0 46.5 5.5t34 10.5t17.5 7q16 6 18 6q10 0 22.5 -14.5t21 -33t8.5 -28.5
q0 -25 -33.5 -41t-75.5 -22.5t-66 -6.5q-128 0 -190 65.5z" />
    <glyph glyph-name="Cdotaccent" unicode="&#x10a;" horiz-adv-x="619" 
d="M294 773v78q0 32 74 32t74 -32v-78q0 -32 -74 -32t-74 32zM125.5 79.5q-80.5 87.5 -80.5 272.5q0 356 334 356q50 0 102 -10.5t81 -27.5q26 -15 26 -32q0 -14 -11 -36.5t-26.5 -40t-27.5 -17.5q-3 0 -24 9t-51 16t-72 7q-88 0 -130.5 -56t-42.5 -169q0 -228 171 -228
q45 0 78 9t64 23q16 8 22 8q15 0 28.5 -17t22 -38.5t8.5 -31.5q0 -26 -35 -46q-33 -19 -87 -28.5t-101 -9.5q-168 0 -248.5 87.5z" />
    <glyph glyph-name="cdotaccent" unicode="&#x10b;" horiz-adv-x="485" 
d="M201 606v78q0 32 74 32t74 -32v-78q0 -32 -74 -32t-74 32zM104 57.5q-62 65.5 -62 200.5q0 136 62.5 204.5t194.5 68.5q61 0 113.5 -18.5t52.5 -50.5q0 -15 -20.5 -46t-32.5 -31q-4 0 -18 7q-20 10 -39.5 16t-47.5 6q-59 0 -86 -37t-27 -115t25.5 -115.5t81.5 -37.5
q26 0 46.5 5.5t34 10.5t17.5 7q16 6 18 6q10 0 22.5 -14.5t21 -33t8.5 -28.5q0 -25 -33.5 -41t-75.5 -22.5t-66 -6.5q-128 0 -190 65.5z" />
    <glyph glyph-name="Ccaron" unicode="&#x10c;" horiz-adv-x="619" 
d="M306.5 755q-14.5 6 -28.5 23l-48 64q-9 12 -9 19q0 8 10 11t35 3q22 0 36 -3.5t27 -13.5l39 -32l39 32q13 10 27 13.5t36 3.5q25 0 35 -3t10 -11q0 -7 -9 -19l-48 -64q-14 -17 -28.5 -23t-47.5 -6h-28q-33 0 -47.5 6zM125.5 79.5q-80.5 87.5 -80.5 272.5q0 356 334 356
q50 0 102 -10.5t81 -27.5q26 -15 26 -32q0 -14 -11 -36.5t-26.5 -40t-27.5 -17.5q-3 0 -24 9t-51 16t-72 7q-88 0 -130.5 -56t-42.5 -169q0 -228 171 -228q45 0 78 9t64 23q16 8 22 8q15 0 28.5 -17t22 -38.5t8.5 -31.5q0 -26 -35 -46q-33 -19 -87 -28.5t-101 -9.5
q-168 0 -248.5 87.5z" />
    <glyph glyph-name="ccaron" unicode="&#x10d;" horiz-adv-x="485" 
d="M217 577.5q-14 5.5 -22 20.5l-44 77q-1 2 -7 12.5t-6 15.5q0 8 9.5 11.5t31.5 3.5q24 0 36.5 -6t23.5 -19l36 -39l36 39q11 13 23.5 19t36.5 6q22 0 31.5 -3.5t9.5 -11.5q0 -5 -6 -15.5t-7 -12.5l-44 -77q-8 -15 -22 -20.5t-44 -5.5h-28q-30 0 -44 5.5zM104 57.5
q-62 65.5 -62 200.5q0 136 62.5 204.5t194.5 68.5q61 0 113.5 -18.5t52.5 -50.5q0 -15 -20.5 -46t-32.5 -31q-4 0 -18 7q-20 10 -39.5 16t-47.5 6q-59 0 -86 -37t-27 -115t25.5 -115.5t81.5 -37.5q26 0 46.5 5.5t34 10.5t17.5 7q16 6 18 6q10 0 22.5 -14.5t21 -33t8.5 -28.5
q0 -25 -33.5 -41t-75.5 -22.5t-66 -6.5q-128 0 -190 65.5z" />
    <glyph glyph-name="Dcaron" unicode="&#x10e;" horiz-adv-x="695" 
d="M278.5 755q-14.5 6 -28.5 23l-48 64q-9 12 -9 19q0 8 10 11t35 3q22 0 36 -3.5t27 -13.5l39 -32l39 32q13 10 27 13.5t36 3.5q25 0 35 -3t10 -11q0 -7 -9 -19l-48 -64q-14 -17 -28.5 -23t-47.5 -6h-28q-33 0 -47.5 6zM85.5 9.5q-9.5 9.5 -9.5 30.5v620q0 21 9.5 30.5
t30.5 9.5h214q155 0 237.5 -90.5t82.5 -259.5t-82.5 -259.5t-237.5 -90.5h-214q-21 0 -30.5 9.5zM330 131q80 0 121 56t41 163t-41 163t-121 56h-99v-438h99z" />
    <glyph glyph-name="dcaron" unicode="&#x10f;" horiz-adv-x="565" 
d="M532.5 568.5q-14.5 5.5 -14.5 16.5q0 31 2 73q2 36 2 50q0 44 50 44h19q25 0 37.5 -12t12.5 -32q0 -32 -13.5 -65.5t-32.5 -56.5t-32 -23q-16 0 -30.5 5.5zM132.5 23.5q-42.5 31.5 -66.5 92.5t-24 146q0 124 55.5 196.5t155.5 72.5q59 0 102 -31v222q0 32 60 32h28
q60 0 60 -32v-546q0 -46 2.5 -70t6.5 -53q3 -13 3 -22q0 -16 -40.5 -24t-71.5 -8q-18 0 -25 14.5t-10.5 31t-4.5 22.5q-18 -33 -53.5 -54t-80.5 -21q-54 0 -96.5 31.5zM355 172v223q-34 19 -70 19q-93 0 -93 -152q0 -149 81 -149q48 0 82 59z" />
    <glyph glyph-name="Dcroat" unicode="&#x110;" horiz-adv-x="695" 
d="M567.5 609.5q82.5 -90.5 82.5 -259.5t-82.5 -259.5t-237.5 -90.5h-214q-21 0 -30.5 9.5t-9.5 30.5v251h-34q-16 0 -23 12t-7 38v30q0 26 7 38t23 12h34v239q0 21 9.5 30.5t30.5 9.5h214q155 0 237.5 -90.5zM451 187q41 56 41 163t-41 163t-121 56h-99v-148h94
q16 0 23 -12t7 -38v-30q0 -26 -7 -38t-23 -12h-94v-160h99q80 0 121 56z" />
    <glyph glyph-name="dcroat" unicode="&#x111;" horiz-adv-x="565" 
d="M558 670.5q7 -9.5 7 -30.5v-15q0 -21 -7 -30.5t-23 -9.5h-32v-409q0 -46 2.5 -70t6.5 -53q3 -13 3 -22q0 -16 -40.5 -24t-71.5 -8q-18 0 -25 14.5t-10.5 31t-4.5 22.5q-18 -33 -53.5 -54t-80.5 -21q-54 0 -96.5 31.5t-66.5 92.5t-24 146q0 124 55.5 196.5t155.5 72.5
q59 0 102 -31v85h-150q-16 0 -23 9.5t-7 30.5v15q0 21 7 30.5t23 9.5h150v42q0 32 60 32h28q60 0 60 -32v-42h32q16 0 23 -9.5zM355 395q-34 19 -70 19q-93 0 -93 -152q0 -149 81 -149q48 0 82 59v223z" />
    <glyph glyph-name="Emacron" unicode="&#x112;" horiz-adv-x="546" 
d="M127 775.5q-7 9.5 -7 30.5v15q0 21 7 30.5t23 9.5h271q16 0 23 -9.5t7 -30.5v-15q0 -21 -7 -30.5t-23 -9.5h-271q-16 0 -23 9.5zM86.5 9.5q-9.5 9.5 -9.5 30.5v620q0 21 9.5 30.5t30.5 9.5h351q16 0 23 -12t7 -38v-31q0 -26 -7 -38t-23 -12h-237v-145h210q16 0 23 -12
t7 -38v-31q0 -26 -7 -38t-23 -12h-210v-162h238q16 0 23 -12t7 -38v-31q0 -26 -7 -38t-23 -12h-352q-21 0 -30.5 9.5z" />
    <glyph glyph-name="emacron" unicode="&#x113;" horiz-adv-x="539" 
d="M134 606.5q-7 9.5 -7 30.5v15q0 21 7 30.5t23 9.5h245q16 0 23 -9.5t7 -30.5v-15q0 -21 -7 -30.5t-23 -9.5h-245q-16 0 -23 9.5zM106.5 62.5q-64.5 70.5 -64.5 195.5q0 141 64.5 207t178.5 66q111 0 163.5 -72t52.5 -186q0 -12 -20.5 -35.5t-30.5 -23.5h-255
q5 -57 34 -81t81 -24q28 0 51 6.5t48 16.5q16 8 22 8q10 0 22.5 -14.5t21 -33t8.5 -28.5q0 -23 -31 -39.5t-74 -24.5t-75 -8q-132 0 -196.5 70.5zM357 313q0 46 -18 73.5t-54 27.5q-74 0 -90 -101h162z" />
    <glyph glyph-name="Ebreve" unicode="&#x114;" horiz-adv-x="546" 
d="M205 757q-36 16 -56 41.5t-20 54.5q0 13 9 20.5t26 7.5q11 0 17.5 -4t15.5 -14q13 -14 32 -22.5t57 -8.5q40 0 59 9t32 24q7 8 13.5 12t17.5 4q17 0 26 -7.5t9 -20.5q0 -29 -20 -54.5t-56 -41.5t-81 -16t-81 16zM86.5 9.5q-9.5 9.5 -9.5 30.5v620q0 21 9.5 30.5t30.5 9.5
h351q16 0 23 -12t7 -38v-31q0 -26 -7 -38t-23 -12h-237v-145h210q16 0 23 -12t7 -38v-31q0 -26 -7 -38t-23 -12h-210v-162h238q16 0 23 -12t7 -38v-31q0 -26 -7 -38t-23 -12h-352q-21 0 -30.5 9.5z" />
    <glyph glyph-name="ebreve" unicode="&#x115;" horiz-adv-x="539" 
d="M209.5 591q-31.5 16 -49 41.5t-17.5 54.5q0 13 9 20.5t26 7.5q11 0 17.5 -4t15.5 -14q14 -15 28 -23t41 -8q31 0 44 8t27 25q7 8 13.5 12t17.5 4q17 0 26 -7.5t9 -20.5q0 -29 -17.5 -54.5t-49 -41.5t-70.5 -16t-70.5 16zM106.5 62.5q-64.5 70.5 -64.5 195.5
q0 141 64.5 207t178.5 66q111 0 163.5 -72t52.5 -186q0 -12 -20.5 -35.5t-30.5 -23.5h-255q5 -57 34 -81t81 -24q28 0 51 6.5t48 16.5q16 8 22 8q10 0 22.5 -14.5t21 -33t8.5 -28.5q0 -23 -31 -39.5t-74 -24.5t-75 -8q-132 0 -196.5 70.5zM357 313q0 46 -18 73.5t-54 27.5
q-74 0 -90 -101h162z" />
    <glyph glyph-name="Edotaccent" unicode="&#x116;" horiz-adv-x="546" 
d="M212 773v78q0 32 74 32t74 -32v-78q0 -32 -74 -32t-74 32zM86.5 9.5q-9.5 9.5 -9.5 30.5v620q0 21 9.5 30.5t30.5 9.5h351q16 0 23 -12t7 -38v-31q0 -26 -7 -38t-23 -12h-237v-145h210q16 0 23 -12t7 -38v-31q0 -26 -7 -38t-23 -12h-210v-162h238q16 0 23 -12t7 -38v-31
q0 -26 -7 -38t-23 -12h-352q-21 0 -30.5 9.5z" />
    <glyph glyph-name="edotaccent" unicode="&#x117;" horiz-adv-x="539" 
d="M206 606v78q0 32 74 32t74 -32v-78q0 -32 -74 -32t-74 32zM106.5 62.5q-64.5 70.5 -64.5 195.5q0 141 64.5 207t178.5 66q111 0 163.5 -72t52.5 -186q0 -12 -20.5 -35.5t-30.5 -23.5h-255q5 -57 34 -81t81 -24q28 0 51 6.5t48 16.5q16 8 22 8q10 0 22.5 -14.5t21 -33
t8.5 -28.5q0 -23 -31 -39.5t-74 -24.5t-75 -8q-132 0 -196.5 70.5zM357 313q0 46 -18 73.5t-54 27.5q-74 0 -90 -101h162z" />
    <glyph glyph-name="Eogonek" unicode="&#x118;" horiz-adv-x="546" 
d="M500.5 -116q5.5 -17 5.5 -35q0 -21 -24.5 -33t-63.5 -12q-51 0 -79 24t-28 69q0 28 17 55.5t49 47.5h-260q-21 0 -30.5 9.5t-9.5 30.5v620q0 21 9.5 30.5t30.5 9.5h351q16 0 23 -12t7 -38v-31q0 -26 -7 -38t-23 -12h-237v-145h210q16 0 23 -12t7 -38v-31q0 -26 -7 -38
t-23 -12h-210v-162h238q16 0 23 -12t7 -38v-31q0 -26 -7 -38t-23 -12h-20q-25 -17 -39 -39t-14 -40q0 -13 9 -21t26 -8q15 0 31 4.5t22 4.5q11 0 16.5 -17z" />
    <glyph glyph-name="eogonek" unicode="&#x119;" horiz-adv-x="539" 
d="M453.5 125.5q12.5 -14.5 21 -33t8.5 -28.5q0 -18 -18.5 -31.5t-49.5 -22.5q-32 -18 -50 -43t-18 -46q0 -13 9 -21t26 -8q15 0 31 4.5t22 4.5q11 0 16.5 -17t5.5 -35q0 -21 -24.5 -33t-63.5 -12q-51 0 -79 24t-28 69q0 25 14 50t41 45h-14q-132 0 -196.5 70.5t-64.5 195.5
q0 141 64.5 207t178.5 66q111 0 163.5 -72t52.5 -186q0 -12 -20.5 -35.5t-30.5 -23.5h-255q5 -57 34 -81t81 -24q28 0 51 6.5t48 16.5q16 8 22 8q10 0 22.5 -14.5zM195 313h162q0 46 -18 73.5t-54 27.5q-74 0 -90 -101z" />
    <glyph glyph-name="Ecaron" unicode="&#x11a;" horiz-adv-x="546" 
d="M224.5 755q-14.5 6 -28.5 23l-48 64q-9 12 -9 19q0 8 10 11t35 3q22 0 36 -3.5t27 -13.5l39 -32l39 32q13 10 27 13.5t36 3.5q25 0 35 -3t10 -11q0 -7 -9 -19l-48 -64q-14 -17 -28.5 -23t-47.5 -6h-28q-33 0 -47.5 6zM86.5 9.5q-9.5 9.5 -9.5 30.5v620q0 21 9.5 30.5
t30.5 9.5h351q16 0 23 -12t7 -38v-31q0 -26 -7 -38t-23 -12h-237v-145h210q16 0 23 -12t7 -38v-31q0 -26 -7 -38t-23 -12h-210v-162h238q16 0 23 -12t7 -38v-31q0 -26 -7 -38t-23 -12h-352q-21 0 -30.5 9.5z" />
    <glyph glyph-name="ecaron" unicode="&#x11b;" horiz-adv-x="539" 
d="M222 577.5q-14 5.5 -22 20.5l-44 77q-1 2 -7 12.5t-6 15.5q0 8 9.5 11.5t31.5 3.5q24 0 36.5 -6t23.5 -19l36 -39l36 39q11 13 23.5 19t36.5 6q22 0 31.5 -3.5t9.5 -11.5q0 -5 -6 -15.5t-7 -12.5l-44 -77q-8 -15 -22 -20.5t-44 -5.5h-28q-30 0 -44 5.5zM106.5 62.5
q-64.5 70.5 -64.5 195.5q0 141 64.5 207t178.5 66q111 0 163.5 -72t52.5 -186q0 -12 -20.5 -35.5t-30.5 -23.5h-255q5 -57 34 -81t81 -24q28 0 51 6.5t48 16.5q16 8 22 8q10 0 22.5 -14.5t21 -33t8.5 -28.5q0 -23 -31 -39.5t-74 -24.5t-75 -8q-132 0 -196.5 70.5zM357 313
q0 46 -18 73.5t-54 27.5q-74 0 -90 -101h162z" />
    <glyph glyph-name="Gcircumflex" unicode="&#x11c;" horiz-adv-x="672" 
d="M215 736q-8 2 -8 8q0 7 21 30l56 63q12 14 24.5 18.5t35.5 4.5h20q23 0 35.5 -5t25.5 -19l55 -62q21 -23 21 -30q0 -6 -8 -8t-32 -2q-29 0 -58 17l-49 28l-49 -28q-31 -17 -58 -17q-24 0 -32 2zM597.5 379.5q9.5 -9.5 9.5 -30.5v-278q0 -45 -75 -62t-158 -17
q-168 0 -248.5 87.5t-80.5 272.5q0 356 334 356q46 0 96 -9t84 -25t34 -36q0 -14 -11 -36.5t-26.5 -40t-27.5 -17.5q-3 0 -25 9t-53.5 16t-73.5 7q-88 0 -130.5 -56t-42.5 -169q0 -228 171 -228q40 0 78 7v127h-88q-16 0 -23 12t-7 38v32q0 26 7 38t23 12h203
q21 0 30.5 -9.5z" />
    <glyph glyph-name="gcircumflex" unicode="&#x11d;" horiz-adv-x="546" 
d="M144.5 575.5q-9.5 3.5 -9.5 11.5q0 5 6 15.5t7 12.5l44 77q8 15 22 20.5t44 5.5h28q30 0 44 -5.5t22 -20.5l44 -77q1 -2 7 -12.5t6 -15.5q0 -8 -9.5 -11.5t-31.5 -3.5q-24 0 -36.5 6t-23.5 19l-36 39l-36 -39q-11 -13 -23.5 -19t-36.5 -6q-22 0 -31.5 3.5zM24 -74
q0 39 23.5 69t67.5 47l1 4q-21 10 -32 30t-11 45q0 55 60 90q-81 43 -81 142q0 91 59.5 134.5t155.5 43.5q39 0 77 -8h161q16 0 23 -12t7 -38v-17q0 -47 -24 -47q-10 0 -25.5 3t-22.5 6l-2 -4q9 -10 15 -27.5t6 -33.5q0 -86 -56.5 -128t-147.5 -42q-44 0 -57 -7.5t-13 -24.5
q0 -18 23 -25t78 -15q18 -2 56 -8q71 -14 113 -45.5t42 -99.5q0 -51 -32 -89.5t-90.5 -59.5t-135.5 -21q-238 0 -238 138zM321 306.5q21 16.5 21 50.5q0 33 -21 50t-54 17t-54 -17t-21 -50q0 -34 21 -50.5t54 -16.5t54 16.5zM350 -82q26 13 26 36t-33.5 33.5t-120.5 16.5
q-25 -9 -39.5 -23.5t-14.5 -30.5q0 -21 25.5 -33t79.5 -12q51 0 77 13z" />
    <glyph glyph-name="Gbreve" unicode="&#x11e;" horiz-adv-x="672" 
d="M274 757q-36 16 -56 41.5t-20 54.5q0 13 9 20.5t26 7.5q11 0 17.5 -4t15.5 -14q13 -14 32 -22.5t57 -8.5q40 0 59 9t32 24q7 8 13.5 12t17.5 4q17 0 26 -7.5t9 -20.5q0 -29 -20 -54.5t-56 -41.5t-81 -16t-81 16zM597.5 379.5q9.5 -9.5 9.5 -30.5v-278q0 -45 -75 -62
t-158 -17q-168 0 -248.5 87.5t-80.5 272.5q0 356 334 356q46 0 96 -9t84 -25t34 -36q0 -14 -11 -36.5t-26.5 -40t-27.5 -17.5q-3 0 -25 9t-53.5 16t-73.5 7q-88 0 -130.5 -56t-42.5 -169q0 -228 171 -228q40 0 78 7v127h-88q-16 0 -23 12t-7 38v32q0 26 7 38t23 12h203
q21 0 30.5 -9.5z" />
    <glyph glyph-name="gbreve" unicode="&#x11f;" horiz-adv-x="546" 
d="M202.5 591q-31.5 16 -49 41.5t-17.5 54.5q0 13 9 20.5t26 7.5q11 0 17.5 -4t15.5 -14q14 -15 28 -23t41 -8q31 0 44 8t27 25q7 8 13.5 12t17.5 4q17 0 26 -7.5t9 -20.5q0 -29 -17.5 -54.5t-49 -41.5t-70.5 -16t-70.5 16zM24 -74q0 39 23.5 69t67.5 47l1 4q-21 10 -32 30
t-11 45q0 55 60 90q-81 43 -81 142q0 91 59.5 134.5t155.5 43.5q39 0 77 -8h161q16 0 23 -12t7 -38v-17q0 -47 -24 -47q-10 0 -25.5 3t-22.5 6l-2 -4q9 -10 15 -27.5t6 -33.5q0 -86 -56.5 -128t-147.5 -42q-44 0 -57 -7.5t-13 -24.5q0 -18 23 -25t78 -15q18 -2 56 -8
q71 -14 113 -45.5t42 -99.5q0 -51 -32 -89.5t-90.5 -59.5t-135.5 -21q-238 0 -238 138zM321 306.5q21 16.5 21 50.5q0 33 -21 50t-54 17t-54 -17t-21 -50q0 -34 21 -50.5t54 -16.5t54 16.5zM350 -82q26 13 26 36t-33.5 33.5t-120.5 16.5q-25 -9 -39.5 -23.5t-14.5 -30.5
q0 -21 25.5 -33t79.5 -12q51 0 77 13z" />
    <glyph glyph-name="Gdotaccent" unicode="&#x120;" horiz-adv-x="672" 
d="M281 773v78q0 32 74 32t74 -32v-78q0 -32 -74 -32t-74 32zM597.5 379.5q9.5 -9.5 9.5 -30.5v-278q0 -45 -75 -62t-158 -17q-168 0 -248.5 87.5t-80.5 272.5q0 356 334 356q46 0 96 -9t84 -25t34 -36q0 -14 -11 -36.5t-26.5 -40t-27.5 -17.5q-3 0 -25 9t-53.5 16t-73.5 7
q-88 0 -130.5 -56t-42.5 -169q0 -228 171 -228q40 0 78 7v127h-88q-16 0 -23 12t-7 38v32q0 26 7 38t23 12h203q21 0 30.5 -9.5z" />
    <glyph glyph-name="gdotaccent" unicode="&#x121;" horiz-adv-x="546" 
d="M199 606v78q0 32 74 32t74 -32v-78q0 -32 -74 -32t-74 32zM24 -74q0 39 23.5 69t67.5 47l1 4q-21 10 -32 30t-11 45q0 55 60 90q-81 43 -81 142q0 91 59.5 134.5t155.5 43.5q39 0 77 -8h161q16 0 23 -12t7 -38v-17q0 -47 -24 -47q-10 0 -25.5 3t-22.5 6l-2 -4
q9 -10 15 -27.5t6 -33.5q0 -86 -56.5 -128t-147.5 -42q-44 0 -57 -7.5t-13 -24.5q0 -18 23 -25t78 -15q18 -2 56 -8q71 -14 113 -45.5t42 -99.5q0 -51 -32 -89.5t-90.5 -59.5t-135.5 -21q-238 0 -238 138zM321 306.5q21 16.5 21 50.5q0 33 -21 50t-54 17t-54 -17t-21 -50
q0 -34 21 -50.5t54 -16.5t54 16.5zM350 -82q26 13 26 36t-33.5 33.5t-120.5 16.5q-25 -9 -39.5 -23.5t-14.5 -30.5q0 -21 25.5 -33t79.5 -12q51 0 77 13z" />
    <glyph glyph-name="uni0122" unicode="&#x122;" horiz-adv-x="672" 
d="M283.5 -234.5q-15.5 5.5 -15.5 16.5q1 4 8.5 21.5t12.5 41.5t3 60q0 44 60 44h23q25 0 37.5 -12t12.5 -32q0 -32 -19 -65.5t-45 -56.5t-44 -23t-33.5 5.5zM597.5 379.5q9.5 -9.5 9.5 -30.5v-278q0 -45 -75 -62t-158 -17q-168 0 -248.5 87.5t-80.5 272.5q0 356 334 356
q46 0 96 -9t84 -25t34 -36q0 -14 -11 -36.5t-26.5 -40t-27.5 -17.5q-3 0 -25 9t-53.5 16t-73.5 7q-88 0 -130.5 -56t-42.5 -169q0 -228 171 -228q40 0 78 7v127h-88q-16 0 -23 12t-7 38v32q0 26 7 38t23 12h203q21 0 30.5 -9.5z" />
    <glyph glyph-name="uni0123" unicode="&#x123;" horiz-adv-x="546" 
d="M208.5 590q-12.5 12 -12.5 32q0 32 19 65.5t45 56.5t44 23q16 0 30.5 -5.5t14.5 -16.5q0 -7 -6 -21q-8 -22 -13 -44.5t-5 -57.5q0 -44 -60 -44h-19q-25 0 -37.5 12zM24 -74q0 39 23.5 69t67.5 47l1 4q-21 10 -32 30t-11 45q0 55 60 90q-81 43 -81 142q0 91 59.5 134.5
t155.5 43.5q39 0 77 -8h161q16 0 23 -12t7 -38v-17q0 -47 -24 -47q-10 0 -25.5 3t-22.5 6l-2 -4q9 -10 15 -27.5t6 -33.5q0 -86 -56.5 -128t-147.5 -42q-44 0 -57 -7.5t-13 -24.5q0 -18 23 -25t78 -15q18 -2 56 -8q71 -14 113 -45.5t42 -99.5q0 -51 -32 -89.5t-90.5 -59.5
t-135.5 -21q-238 0 -238 138zM321 306.5q21 16.5 21 50.5q0 33 -21 50t-54 17t-54 -17t-21 -50q0 -34 21 -50.5t54 -16.5t54 16.5zM350 -82q26 13 26 36t-33.5 33.5t-120.5 16.5q-25 -9 -39.5 -23.5t-14.5 -30.5q0 -21 25.5 -33t79.5 -12q51 0 77 13z" />
    <glyph glyph-name="Hcircumflex" unicode="&#x124;" horiz-adv-x="733" 
d="M226 736q-8 2 -8 8q0 7 21 30l56 63q12 14 24.5 18.5t35.5 4.5h20q23 0 35.5 -5t25.5 -19l55 -62q21 -23 21 -30q0 -6 -8 -8t-32 -2q-29 0 -58 17l-49 28l-49 -28q-31 -17 -58 -17q-24 0 -32 2zM77 30v640q0 32 60 32h35q60 0 60 -32v-247h270v247q0 32 60 32h35
q60 0 60 -32v-640q0 -32 -60 -32h-35q-60 0 -60 32v261h-270v-261q0 -32 -60 -32h-35q-60 0 -60 32z" />
    <glyph glyph-name="hcircumflex" unicode="&#x125;" horiz-adv-x="565" 
d="M1 771q-8 2 -8 8q0 7 21 30l56 63q12 14 24.5 18.5t35.5 4.5h20q23 0 35.5 -5t25.5 -19l55 -62q21 -23 21 -30q0 -6 -8 -8t-32 -2q-29 0 -58 17l-49 28l-49 -28q-31 -17 -58 -17q-24 0 -32 2zM66 30v692q0 32 60 32h28q60 0 60 -32v-259q25 30 61.5 49t79.5 19
q76 0 113.5 -39.5t37.5 -122.5v-339q0 -32 -60 -32h-28q-60 0 -60 32v317q0 62 -64 62q-27 0 -47.5 -17.5t-32.5 -40.5v-321q0 -32 -60 -32h-28q-60 0 -60 32z" />
    <glyph glyph-name="Hbar" unicode="&#x126;" horiz-adv-x="733" 
d="M696 580.5q7 -9.5 7 -30.5v-15q0 -21 -7 -30.5t-23 -9.5h-16v-465q0 -32 -60 -32h-35q-60 0 -60 32v261h-270v-261q0 -32 -60 -32h-35q-60 0 -60 32v465h-19q-16 0 -23 9.5t-7 30.5v15q0 21 7 30.5t23 9.5h19v80q0 32 60 32h35q60 0 60 -32v-80h270v80q0 32 60 32h35
q60 0 60 -32v-80h16q16 0 23 -9.5zM502 495h-270v-72h270v72z" />
    <glyph glyph-name="hbar" unicode="&#x127;" horiz-adv-x="565" 
d="M468.5 491.5q37.5 -39.5 37.5 -122.5v-339q0 -32 -60 -32h-28q-60 0 -60 32v317q0 62 -64 62q-27 0 -47.5 -17.5t-32.5 -40.5v-321q0 -32 -60 -32h-28q-60 0 -60 32v555h-29q-19 0 -28 9.5t-9 30.5v15q0 21 9 30.5t28 9.5h29v42q0 32 60 32h28q60 0 60 -32v-42h126
q19 0 28 -9.5t9 -30.5v-15q0 -21 -9 -30.5t-28 -9.5h-126v-122q25 30 61.5 49t79.5 19q76 0 113.5 -39.5z" />
    <glyph glyph-name="Itilde" unicode="&#x128;" horiz-adv-x="283" 
d="M-22 759q-16 9 -16 19q0 11 8 27q13 28 38.5 47t64.5 19q26 0 80 -16q45 -13 61 -13q21 0 42 19q1 1 8.5 6.5t14.5 5.5q12 0 27.5 -11.5t15.5 -21.5q0 -9 -8 -23q-14 -25 -40 -44.5t-64 -19.5q-26 0 -80 16q-45 13 -64 13q-13 0 -22.5 -5.5t-18.5 -14.5q-12 -12 -20 -12
q-11 0 -27 9zM64 30v640q0 33 60 33h35q60 0 60 -33v-640q0 -33 -60 -33h-35q-60 0 -60 33z" />
    <glyph glyph-name="itilde" unicode="&#x129;" horiz-adv-x="265" 
d="M-29.5 591.5q-17.5 9.5 -17.5 20.5t5 23q13 30 39 49.5t62 19.5q27 0 81 -15q35 -11 51 -11t26 5t19 13q1 1 7.5 5.5t13.5 4.5q9 0 27.5 -12.5t18.5 -22.5q0 -8 -8 -25q-11 -24 -36.5 -42t-67.5 -18q-15 0 -34.5 4.5t-37.5 10.5q-37 11 -52 11t-26 -5.5t-22 -14.5
q-1 -1 -7.5 -5.5t-12.5 -4.5q-11 0 -28.5 9.5zM59 30v463q0 32 60 32h28q60 0 60 -32v-463q0 -32 -60 -32h-28q-60 0 -60 32z" />
    <glyph glyph-name="Imacron" unicode="&#x12a;" horiz-adv-x="283" 
d="M-17 775.5q-7 9.5 -7 30.5v15q0 21 7 30.5t23 9.5h271q16 0 23 -9.5t7 -30.5v-15q0 -21 -7 -30.5t-23 -9.5h-271q-16 0 -23 9.5zM64 30v640q0 33 60 33h35q60 0 60 -33v-640q0 -33 -60 -33h-35q-60 0 -60 33z" />
    <glyph glyph-name="imacron" unicode="&#x12b;" horiz-adv-x="265" 
d="M-13 606.5q-7 9.5 -7 30.5v15q0 21 7 30.5t23 9.5h245q16 0 23 -9.5t7 -30.5v-15q0 -21 -7 -30.5t-23 -9.5h-245q-16 0 -23 9.5zM59 30v463q0 32 60 32h28q60 0 60 -32v-463q0 -32 -60 -32h-28q-60 0 -60 32z" />
    <glyph glyph-name="Ibreve" unicode="&#x12c;" horiz-adv-x="283" 
d="M61 757q-36 16 -56 41.5t-20 54.5q0 13 9 20.5t26 7.5q11 0 17.5 -4t15.5 -14q13 -14 32 -22.5t57 -8.5q40 0 59 9t32 24q7 8 13.5 12t17.5 4q17 0 26 -7.5t9 -20.5q0 -29 -20 -54.5t-56 -41.5t-81 -16t-81 16zM64 30v640q0 33 60 33h35q60 0 60 -33v-640q0 -33 -60 -33
h-35q-60 0 -60 33z" />
    <glyph glyph-name="ibreve" unicode="&#x12d;" horiz-adv-x="265" 
d="M62.5 591q-31.5 16 -49 41.5t-17.5 54.5q0 13 9 20.5t26 7.5q11 0 17.5 -4t15.5 -14q14 -15 28 -23t41 -8q31 0 44 8t27 25q7 8 13.5 12t17.5 4q17 0 26 -7.5t9 -20.5q0 -29 -17.5 -54.5t-49 -41.5t-70.5 -16t-70.5 16zM59 30v463q0 32 60 32h28q60 0 60 -32v-463
q0 -32 -60 -32h-28q-60 0 -60 32z" />
    <glyph glyph-name="Iogonek" unicode="&#x12e;" horiz-adv-x="283" 
d="M215.5 -116q5.5 -17 5.5 -35q0 -21 -24.5 -33t-63.5 -12q-51 0 -79 24t-28 69q0 28 17 55.5t49 47.5q-28 7 -28 30v640q0 33 60 33h35q60 0 60 -33v-640q0 -33 -59 -33q-23 -17 -36 -38t-13 -38q0 -13 9 -21t26 -8q15 0 31 4.5t22 4.5q11 0 16.5 -17z" />
    <glyph glyph-name="iogonek" unicode="&#x12f;" horiz-adv-x="265" 
d="M59 606v78q0 32 74 32t74 -32v-78q0 -32 -74 -32t-74 32zM221.5 -116q5.5 -17 5.5 -35q0 -21 -24.5 -33t-63.5 -12q-51 0 -79 24t-28 69q0 27 16.5 54.5t48.5 47.5q-38 6 -38 31v463q0 32 60 32h28q60 0 60 -32v-463q0 -25 -38 -31q-25 -17 -38.5 -38.5t-13.5 -39.5
q0 -13 9 -21t26 -8q15 0 31 4.5t22 4.5q11 0 16.5 -17z" />
    <glyph glyph-name="Idotaccent" unicode="&#x130;" horiz-adv-x="283" 
d="M68 773v78q0 32 74 32t74 -32v-78q0 -32 -74 -32t-74 32zM64 30v640q0 33 60 33h35q60 0 60 -33v-640q0 -33 -60 -33h-35q-60 0 -60 33z" />
    <glyph glyph-name="dotlessi" unicode="&#x131;" horiz-adv-x="265" 
d="M59 30v463q0 32 60 32h28q60 0 60 -32v-463q0 -32 -60 -32h-28q-60 0 -60 32z" />
    <glyph glyph-name="IJ" unicode="&#x132;" horiz-adv-x="684" 
d="M64 30v640q0 33 60 33h35q60 0 60 -33v-640q0 -33 -60 -33h-35q-60 0 -60 33zM324 1q-42 9 -42 37q0 23 10.5 57t30.5 36q4 0 19.5 -4t36.5 -4q45 0 64.5 24.5t19.5 79.5v443q0 33 60 33h35q60 0 60 -33v-468q0 -99 -52 -154.5t-160 -55.5q-40 0 -82 9z" />
    <glyph glyph-name="ij" unicode="&#x133;" horiz-adv-x="541" 
d="M59 606v78q0 32 74 32t74 -32v-78q0 -32 -74 -32t-74 32zM59 30v463q0 32 60 32h28q60 0 60 -32v-463q0 -32 -60 -32h-28q-60 0 -60 32zM335 606v78q0 32 74 32t74 -32v-78q0 -32 -74 -32t-74 32zM255.5 -200.5q-22.5 11.5 -22.5 40.5q0 20 11 44.5t25 24.5q5 0 14.5 -2
t15.5 -2q19 0 27.5 10t8.5 33v545q0 32 60 32h28q60 0 60 -32v-543q0 -79 -40.5 -120.5t-105.5 -41.5q-59 0 -81.5 11.5z" />
    <glyph glyph-name="Jcircumflex" unicode="&#x134;" horiz-adv-x="402" 
d="M118 736q-8 2 -8 8q0 7 21 30l56 63q12 14 24.5 18.5t35.5 4.5h20q23 0 35.5 -5t25.5 -19l55 -62q21 -23 21 -30q0 -6 -8 -8t-32 -2q-29 0 -58 17l-49 28l-49 -28q-31 -17 -58 -17q-24 0 -32 2zM42 1q-42 9 -42 37q0 23 10.5 57t30.5 36q4 0 19.5 -4t36.5 -4
q45 0 64.5 24.5t19.5 79.5v443q0 33 60 33h35q60 0 60 -33v-468q0 -99 -52 -154.5t-160 -55.5q-40 0 -82 9z" />
    <glyph glyph-name="jcircumflex" unicode="&#x135;" horiz-adv-x="276" 
d="M15.5 575.5q-9.5 3.5 -9.5 11.5q0 5 6 15.5t7 12.5l44 77q8 15 22 20.5t44 5.5h28q30 0 44 -5.5t22 -20.5l44 -77q1 -2 7 -12.5t6 -15.5q0 -8 -9.5 -11.5t-31.5 -3.5q-24 0 -36.5 6t-23.5 19l-36 39l-36 -39q-11 -13 -23.5 -19t-36.5 -6q-22 0 -31.5 3.5zM-9.5 -200.5
q-22.5 11.5 -22.5 40.5q0 20 11 44.5t25 24.5q5 0 14.5 -2t15.5 -2q19 0 27.5 10t8.5 33v545q0 32 60 32h28q60 0 60 -32v-543q0 -79 -40.5 -120.5t-105.5 -41.5q-59 0 -81.5 11.5z" />
    <glyph glyph-name="uni0136" unicode="&#x136;" horiz-adv-x="576" 
d="M226.5 -234.5q-15.5 5.5 -15.5 16.5q1 4 8.5 21.5t12.5 41.5t3 60q0 44 60 44h23q25 0 37.5 -12t12.5 -32q0 -32 -19 -65.5t-45 -56.5t-44 -23t-33.5 5.5zM69 30v640q0 32 60 32h35q60 0 60 -32v-268l4 -1l174 282q11 19 60 19h47q56 0 56 -15q0 -9 -8 -21l-193 -296
l219 -336q8 -12 8 -21q0 -15 -56 -15h-58q-50 0 -61 19l-188 304l-4 -1v-290q0 -32 -60 -32h-35q-60 0 -60 32z" />
    <glyph glyph-name="uni0137" unicode="&#x137;" horiz-adv-x="521" 
d="M188.5 -234.5q-14.5 5.5 -14.5 16.5q0 7 6 21q8 22 13 44.5t5 57.5q0 44 60 44h19q25 0 37.5 -12t12.5 -32q0 -32 -19 -65.5t-45 -56.5t-44 -23q-16 0 -30.5 5.5zM516 13q0 -15 -57 -15h-42q-49 0 -60 19l-139 230l-4 -1v-216q0 -32 -60 -32h-28q-60 0 -60 32v692
q0 32 60 32h28q60 0 60 -32v-396l4 -1l121 181q8 12 22 15.5t39 3.5h37q56 0 56 -15q0 -8 -9 -20l-139 -198l163 -258q8 -12 8 -21z" />
    <glyph glyph-name="kgreenlandic" unicode="&#x138;" horiz-adv-x="521" 
d="M66 30v463q0 32 60 32h28q60 0 60 -32v-167l4 -1l136 181q8 12 22 15.5t39 3.5h37q56 0 56 -15q0 -8 -9 -20l-151 -195l165 -261q8 -12 8 -21q0 -15 -57 -15h-42q-49 0 -60 19l-144 230l-4 -1v-216q0 -32 -60 -32h-28q-60 0 -60 32z" />
    <glyph glyph-name="Lacute" unicode="&#x139;" horiz-adv-x="484" 
d="M65 762q0 9 13 23l54 60q16 17 34 23.5t52 6.5q38 0 54.5 -3.5t16.5 -14.5q0 -13 -30 -33l-86 -56q-16 -11 -30 -15t-40 -4q-38 0 -38 13zM85.5 9.5q-9.5 9.5 -9.5 30.5v630q0 32 60 32h34q60 0 60 -32v-539h216q16 0 23 -12t7 -38v-31q0 -26 -7 -38t-23 -12h-330
q-21 0 -30.5 9.5z" />
    <glyph glyph-name="lacute" unicode="&#x13a;" horiz-adv-x="297" 
d="M44 782q0 9 13 23l54 60q16 17 34 23.5t52 6.5q38 0 54.5 -3.5t16.5 -14.5q0 -13 -30 -33l-86 -56q-16 -11 -30 -15t-40 -4q-38 0 -38 13zM63 154v568q0 32 60 32h28q60 0 60 -32v-570q0 -23 8.5 -33t27.5 -10q5 0 13.5 2t13.5 2q9 0 16 -15t11 -33t4 -24q0 -49 -96 -49
q-146 0 -146 162z" />
    <glyph glyph-name="uni013B" unicode="&#x13b;" horiz-adv-x="484" 
d="M205.5 -234.5q-15.5 5.5 -15.5 16.5q1 4 8.5 21.5t12.5 41.5t3 60q0 44 60 44h23q25 0 37.5 -12t12.5 -32q0 -32 -19 -65.5t-45 -56.5t-44 -23t-33.5 5.5zM85.5 9.5q-9.5 9.5 -9.5 30.5v630q0 32 60 32h34q60 0 60 -32v-539h216q16 0 23 -12t7 -38v-31q0 -26 -7 -38
t-23 -12h-330q-21 0 -30.5 9.5z" />
    <glyph glyph-name="uni013C" unicode="&#x13c;" horiz-adv-x="297" 
d="M110.5 -234.5q-14.5 5.5 -14.5 16.5q0 7 6 21q8 22 13 44.5t5 57.5q0 44 60 44h19q25 0 37.5 -12t12.5 -32q0 -32 -19 -65.5t-45 -56.5t-44 -23q-16 0 -30.5 5.5zM63 154v568q0 32 60 32h28q60 0 60 -32v-570q0 -23 8.5 -33t27.5 -10q5 0 13.5 2t13.5 2q9 0 16 -15
t11 -33t4 -24q0 -49 -96 -49q-146 0 -146 162z" />
    <glyph glyph-name="Lcaron" unicode="&#x13d;" horiz-adv-x="484" 
d="M358.5 518.5q-14.5 5.5 -14.5 16.5q0 31 2 73q2 36 2 50q0 44 50 44h19q25 0 37.5 -12t12.5 -32q0 -32 -13.5 -65.5t-32.5 -56.5t-32 -23q-16 0 -30.5 5.5zM85.5 9.5q-9.5 9.5 -9.5 30.5v630q0 32 60 32h34q60 0 60 -32v-539h216q16 0 23 -12t7 -38v-31q0 -26 -7 -38
t-23 -12h-330q-21 0 -30.5 9.5z" />
    <glyph glyph-name="lcaron" unicode="&#x13e;" horiz-adv-x="297" 
d="M254.5 570.5q-14.5 5.5 -14.5 16.5q0 31 2 73q2 36 2 50q0 44 50 44h19q25 0 37.5 -12t12.5 -32q0 -32 -13.5 -65.5t-32.5 -56.5t-32 -23q-16 0 -30.5 5.5zM63 154v568q0 32 60 32h28q60 0 60 -32v-570q0 -23 8.5 -33t27.5 -10q5 0 13.5 2t13.5 2q9 0 16 -15t11 -33
t4 -24q0 -49 -96 -49q-146 0 -146 162z" />
    <glyph glyph-name="Ldot" unicode="&#x13f;" horiz-adv-x="484" 
d="M85.5 9.5q-9.5 9.5 -9.5 30.5v630q0 32 60 32h34q60 0 60 -32v-539h216q16 0 23 -12t7 -38v-31q0 -26 -7 -38t-23 -12h-330q-21 0 -30.5 9.5zM338.5 285.5q-20.5 20.5 -20.5 49.5t20.5 49.5t49.5 20.5t49.5 -20.5t20.5 -49.5t-20.5 -49.5t-49.5 -20.5t-49.5 20.5z" />
    <glyph glyph-name="ldot" unicode="&#x140;" horiz-adv-x="297" 
d="M63 154v568q0 32 60 32h28q60 0 60 -32v-570q0 -23 8.5 -33t27.5 -10q5 0 13.5 2t13.5 2q9 0 16 -15t11 -33t4 -24q0 -49 -96 -49q-146 0 -146 162zM246.5 335.5q-16.5 16.5 -16.5 39.5t16.5 39.5t39.5 16.5t39.5 -16.5t16.5 -39.5t-16.5 -39.5t-39.5 -16.5t-39.5 16.5z
" />
    <glyph glyph-name="Lslash" unicode="&#x141;" horiz-adv-x="486" 
d="M469 119q7 -12 7 -38v-31q0 -26 -7 -38t-23 -12h-330q-21 0 -30.5 9.5t-9.5 30.5v198l-50 -31q-7 -5 -15 -5q-11 0 -11 20v20q0 16 6 26.5t20 18.5l50 31v352q0 32 60 32h34q60 0 60 -32v-258l98 60q9 6 15 6q11 0 11 -20v-20q0 -30 -26 -46l-98 -60v-201h216
q16 0 23 -12z" />
    <glyph glyph-name="lslash" unicode="&#x142;" horiz-adv-x="297" 
d="M290 98q7 -15 11 -33t4 -24q0 -49 -96 -49q-146 0 -146 162v172l-26 -16q-10 -6 -16 -6q-10 0 -10 20v20q0 30 26 46l26 16v316q0 32 60 32h28q60 0 60 -32v-226l30 18q7 5 15 5q11 0 11 -20v-20q0 -16 -6 -26.5t-20 -18.5l-30 -18v-264q0 -23 8.5 -33t27.5 -10
q5 0 13.5 2t13.5 2q9 0 16 -15z" />
    <glyph glyph-name="Nacute" unicode="&#x143;" horiz-adv-x="719" 
d="M268 762q0 9 13 23l54 60q16 17 34 23.5t52 6.5q38 0 54.5 -3.5t16.5 -14.5q0 -13 -30 -33l-86 -56q-16 -11 -30 -15t-40 -4q-38 0 -38 13zM69 30v640q0 32 60 32h43q24 0 40 -5.5t26 -21.5l225 -347q20 -29 36 -59l4 1q-2 23 -2 68v332q0 32 60 32h29q60 0 60 -32v-640
q0 -32 -60 -32h-38q-24 0 -40 5.5t-26 21.5l-230 352q-20 29 -36 59l-4 -1q2 -23 2 -68v-337q0 -32 -60 -32h-29q-60 0 -60 32z" />
    <glyph glyph-name="nacute" unicode="&#x144;" horiz-adv-x="557" 
d="M209.5 576q-8.5 4 -8.5 11q0 5 5 13.5t8 14.5l40 72q10 19 25 25t60 6q30 0 41.5 -3.5t11.5 -13.5q0 -14 -19 -36l-57 -63q-15 -16 -33 -23t-41 -7q-24 0 -32.5 4zM62 30v317q0 44 -2.5 67.5t-6.5 52.5q-3 14 -3 21q0 16 40.5 24t71.5 8q18 0 25 -13.5t10.5 -29.5
t4.5 -22q24 32 64 54t85 22q75 0 111 -39.5t36 -122.5v-339q0 -32 -60 -32h-28q-60 0 -60 32v317q0 31 -14 46.5t-46 15.5q-27 0 -47.5 -17.5t-32.5 -40.5v-321q0 -32 -60 -32h-28q-60 0 -60 32z" />
    <glyph glyph-name="uni0145" unicode="&#x145;" horiz-adv-x="719" 
d="M288.5 -234.5q-15.5 5.5 -15.5 16.5q1 4 8.5 21.5t12.5 41.5t3 60q0 44 60 44h23q25 0 37.5 -12t12.5 -32q0 -32 -19 -65.5t-45 -56.5t-44 -23t-33.5 5.5zM69 30v640q0 32 60 32h43q24 0 40 -5.5t26 -21.5l225 -347q20 -29 36 -59l4 1q-2 23 -2 68v332q0 32 60 32h29
q60 0 60 -32v-640q0 -32 -60 -32h-38q-24 0 -40 5.5t-26 21.5l-230 352q-20 29 -36 59l-4 -1q2 -23 2 -68v-337q0 -32 -60 -32h-29q-60 0 -60 32z" />
    <glyph glyph-name="uni0146" unicode="&#x146;" horiz-adv-x="557" 
d="M206.5 -234.5q-14.5 5.5 -14.5 16.5q0 7 6 21q8 22 13 44.5t5 57.5q0 44 60 44h19q25 0 37.5 -12t12.5 -32q0 -32 -19 -65.5t-45 -56.5t-44 -23q-16 0 -30.5 5.5zM62 30v317q0 44 -2.5 67.5t-6.5 52.5q-3 14 -3 21q0 16 40.5 24t71.5 8q18 0 25 -13.5t10.5 -29.5t4.5 -22
q24 32 64 54t85 22q75 0 111 -39.5t36 -122.5v-339q0 -32 -60 -32h-28q-60 0 -60 32v317q0 31 -14 46.5t-46 15.5q-27 0 -47.5 -17.5t-32.5 -40.5v-321q0 -32 -60 -32h-28q-60 0 -60 32z" />
    <glyph glyph-name="Ncaron" unicode="&#x147;" horiz-adv-x="719" 
d="M298.5 755q-14.5 6 -28.5 23l-48 64q-9 12 -9 19q0 8 10 11t35 3q22 0 36 -3.5t27 -13.5l39 -32l39 32q13 10 27 13.5t36 3.5q25 0 35 -3t10 -11q0 -7 -9 -19l-48 -64q-14 -17 -28.5 -23t-47.5 -6h-28q-33 0 -47.5 6zM69 30v640q0 32 60 32h43q24 0 40 -5.5t26 -21.5
l225 -347q20 -29 36 -59l4 1q-2 23 -2 68v332q0 32 60 32h29q60 0 60 -32v-640q0 -32 -60 -32h-38q-24 0 -40 5.5t-26 21.5l-230 352q-20 29 -36 59l-4 -1q2 -23 2 -68v-337q0 -32 -60 -32h-29q-60 0 -60 32z" />
    <glyph glyph-name="ncaron" unicode="&#x148;" horiz-adv-x="557" 
d="M221 577.5q-14 5.5 -22 20.5l-44 77q-1 2 -7 12.5t-6 15.5q0 8 9.5 11.5t31.5 3.5q24 0 36.5 -6t23.5 -19l36 -39l36 39q11 13 23.5 19t36.5 6q22 0 31.5 -3.5t9.5 -11.5q0 -5 -6 -15.5t-7 -12.5l-44 -77q-8 -15 -22 -20.5t-44 -5.5h-28q-30 0 -44 5.5zM62 30v317
q0 44 -2.5 67.5t-6.5 52.5q-3 14 -3 21q0 16 40.5 24t71.5 8q18 0 25 -13.5t10.5 -29.5t4.5 -22q24 32 64 54t85 22q75 0 111 -39.5t36 -122.5v-339q0 -32 -60 -32h-28q-60 0 -60 32v317q0 31 -14 46.5t-46 15.5q-27 0 -47.5 -17.5t-32.5 -40.5v-321q0 -32 -60 -32h-28
q-60 0 -60 32z" />
    <glyph glyph-name="napostrophe" unicode="&#x149;" horiz-adv-x="557" 
d="M-5.5 550.5q-14.5 5.5 -14.5 16.5q0 7 6 21q8 22 13 44.5t5 57.5q0 44 60 44h19q25 0 37.5 -12t12.5 -32q0 -32 -19 -65.5t-45 -56.5t-44 -23q-16 0 -30.5 5.5zM62 30v317q0 44 -2.5 67.5t-6.5 52.5q-3 14 -3 21q0 16 40.5 24t71.5 8q18 0 25 -13.5t10.5 -29.5t4.5 -22
q24 32 64 54t85 22q75 0 111 -39.5t36 -122.5v-339q0 -32 -60 -32h-28q-60 0 -60 32v317q0 31 -14 46.5t-46 15.5q-27 0 -47.5 -17.5t-32.5 -40.5v-321q0 -32 -60 -32h-28q-60 0 -60 32z" />
    <glyph glyph-name="Eng" unicode="&#x14a;" horiz-adv-x="719" 
d="M422.5 -200.5q-22.5 11.5 -22.5 40.5q0 20 11 44.5t25 24.5q5 0 14.5 -2t15.5 -2q19 0 27.5 10t8.5 33v53l-246 376q-26 40 -36 59l-4 -1q2 -23 2 -68v-337q0 -32 -60 -32h-29q-60 0 -60 32v640q0 32 60 32h43q24 0 40 -5.5t26 -21.5l225 -347q20 -29 36 -59l4 1
q-2 23 -2 68v332q0 32 60 32h29q60 0 60 -32v-720q0 -79 -40.5 -120.5t-105.5 -41.5q-59 0 -81.5 11.5z" />
    <glyph glyph-name="eng" unicode="&#x14b;" horiz-adv-x="557" 
d="M272.5 -200.5q-22.5 11.5 -22.5 40.5q0 20 11 44.5t25 24.5q5 0 14.5 -2t15.5 -2q19 0 27.5 10t8.5 33v399q0 31 -14 46.5t-46 15.5q-27 0 -47.5 -17.5t-32.5 -40.5v-321q0 -32 -60 -32h-28q-60 0 -60 32v317q0 44 -2.5 67.5t-6.5 52.5q-3 14 -3 21q0 16 40.5 24t71.5 8
q18 0 25 -13.5t10.5 -29.5t4.5 -22q24 32 64 54t85 22q75 0 111 -39.5t36 -122.5v-419q0 -79 -40.5 -120.5t-105.5 -41.5q-59 0 -81.5 11.5z" />
    <glyph glyph-name="Omacron" unicode="&#x14c;" horiz-adv-x="731" 
d="M207 775.5q-7 9.5 -7 30.5v15q0 21 7 30.5t23 9.5h271q16 0 23 -9.5t7 -30.5v-15q0 -21 -7 -30.5t-23 -9.5h-271q-16 0 -23 9.5zM128 84.5q-83 92.5 -83 265.5t83 265.5t238 92.5t237.5 -92.5t82.5 -265.5t-82.5 -265.5t-237.5 -92.5t-238 92.5zM487 181q41 58 41 169
t-41 168.5t-121 57.5t-121.5 -57.5t-41.5 -168.5t41.5 -169t121.5 -58t121 58z" />
    <glyph glyph-name="omacron" unicode="&#x14d;" horiz-adv-x="569" 
d="M139 606.5q-7 9.5 -7 30.5v15q0 21 7 30.5t23 9.5h245q16 0 23 -9.5t7 -30.5v-15q0 -21 -7 -30.5t-23 -9.5h-245q-16 0 -23 9.5zM104 61.5q-62 69.5 -62 200.5t62 200t181 69t180.5 -69t61.5 -200t-61.5 -200.5t-180.5 -69.5t-181 69.5zM354.5 147.5
q22.5 38.5 22.5 114.5t-22.5 114t-69.5 38t-70 -38t-23 -114q0 -153 93 -153q47 0 69.5 38.5z" />
    <glyph glyph-name="Obreve" unicode="&#x14e;" horiz-adv-x="731" 
d="M285 757q-36 16 -56 41.5t-20 54.5q0 13 9 20.5t26 7.5q11 0 17.5 -4t15.5 -14q13 -14 32 -22.5t57 -8.5q40 0 59 9t32 24q7 8 13.5 12t17.5 4q17 0 26 -7.5t9 -20.5q0 -29 -20 -54.5t-56 -41.5t-81 -16t-81 16zM128 84.5q-83 92.5 -83 265.5t83 265.5t238 92.5
t237.5 -92.5t82.5 -265.5t-82.5 -265.5t-237.5 -92.5t-238 92.5zM487 181q41 58 41 169t-41 168.5t-121 57.5t-121.5 -57.5t-41.5 -168.5t41.5 -169t121.5 -58t121 58z" />
    <glyph glyph-name="obreve" unicode="&#x14f;" horiz-adv-x="569" 
d="M214.5 591q-31.5 16 -49 41.5t-17.5 54.5q0 13 9 20.5t26 7.5q11 0 17.5 -4t15.5 -14q14 -15 28 -23t41 -8q31 0 44 8t27 25q7 8 13.5 12t17.5 4q17 0 26 -7.5t9 -20.5q0 -29 -17.5 -54.5t-49 -41.5t-70.5 -16t-70.5 16zM104 61.5q-62 69.5 -62 200.5t62 200t181 69
t180.5 -69t61.5 -200t-61.5 -200.5t-180.5 -69.5t-181 69.5zM354.5 147.5q22.5 38.5 22.5 114.5t-22.5 114t-69.5 38t-70 -38t-23 -114q0 -153 93 -153q47 0 69.5 38.5z" />
    <glyph glyph-name="Ohungarumlaut" unicode="&#x150;" horiz-adv-x="731" 
d="M183 762q0 9 13 23l54 60q16 17 34 23.5t52 6.5q38 0 54.5 -3.5t16.5 -14.5q0 -13 -30 -33l-86 -56q-16 -11 -30 -15t-40 -4q-38 0 -38 13zM377 762q0 9 13 23l54 60q16 17 34 23.5t52 6.5q38 0 54.5 -3.5t16.5 -14.5q0 -13 -30 -33l-86 -56q-16 -11 -30 -15t-40 -4
q-38 0 -38 13zM128 84.5q-83 92.5 -83 265.5t83 265.5t238 92.5t237.5 -92.5t82.5 -265.5t-82.5 -265.5t-237.5 -92.5t-238 92.5zM487 181q41 58 41 169t-41 168.5t-121 57.5t-121.5 -57.5t-41.5 -168.5t41.5 -169t121.5 -58t121 58z" />
    <glyph glyph-name="ohungarumlaut" unicode="&#x151;" horiz-adv-x="569" 
d="M134.5 576q-8.5 4 -8.5 11q0 5 5 13.5t8 14.5l40 72q10 19 25 25t60 6q30 0 41.5 -3.5t11.5 -13.5q0 -14 -19 -36l-57 -63q-15 -16 -33 -23t-41 -7q-24 0 -32.5 4zM317.5 576q-8.5 4 -8.5 11q0 5 5 13.5t8 14.5l40 72q10 19 25 25t60 6q30 0 41.5 -3.5t11.5 -13.5
q0 -14 -19 -36l-57 -63q-15 -16 -33 -23t-41 -7q-24 0 -32.5 4zM104 61.5q-62 69.5 -62 200.5t62 200t181 69t180.5 -69t61.5 -200t-61.5 -200.5t-180.5 -69.5t-181 69.5zM354.5 147.5q22.5 38.5 22.5 114.5t-22.5 114t-69.5 38t-70 -38t-23 -114q0 -153 93 -153
q47 0 69.5 38.5z" />
    <glyph glyph-name="OE" unicode="&#x152;" horiz-adv-x="1015" 
d="M960 119q7 -12 7 -38v-31q0 -26 -7 -38t-23 -12h-367q-20 0 -29.5 9t-10.5 28q-73 -45 -174 -45q-150 0 -230.5 92.5t-80.5 265.5t80.5 265.5t230.5 92.5q101 0 174 -46q0 20 9.5 29t30.5 9h366q16 0 23 -12t7 -38v-31q0 -26 -7 -38t-23 -12h-252v-145h225q16 0 23 -12
t7 -38v-31q0 -26 -7 -38t-23 -12h-225v-162h253q16 0 23 -12zM487 181q41 58 41 169t-41 168.5t-121 57.5t-121.5 -57.5t-41.5 -168.5t41.5 -169t121.5 -58t121 58z" />
    <glyph glyph-name="oe" unicode="&#x153;" horiz-adv-x="875" 
d="M789.5 125.5q12.5 -14.5 21 -33t8.5 -28.5q0 -23 -31 -39.5t-74 -24.5t-75 -8q-118 0 -186 60q-66 -60 -168 -60q-119 0 -181 69.5t-62 200.5t62 200t181 69q99 0 165 -59q60 59 171 59t163.5 -72t52.5 -186q0 -12 -20.5 -35.5t-30.5 -23.5h-255q5 -57 34 -81t81 -24
q28 0 51 6.5t48 16.5q16 8 22 8q10 0 22.5 -14.5zM354.5 147.5q22.5 38.5 22.5 114.5t-22.5 114t-69.5 38t-70 -38t-23 -114q0 -153 93 -153q47 0 69.5 38.5zM531 313h162q0 46 -18 73.5t-54 27.5q-74 0 -90 -101z" />
    <glyph glyph-name="Racute" unicode="&#x154;" horiz-adv-x="610" 
d="M198 762q0 9 13 23l54 60q16 17 34 23.5t52 6.5q38 0 54.5 -3.5t16.5 -14.5q0 -13 -30 -33l-86 -56q-16 -11 -30 -15t-40 -4q-38 0 -38 13zM69 30v630q0 21 9.5 30.5t30.5 9.5h195q249 0 249 -188q0 -56 -31.5 -97.5t-85.5 -61.5v-4q19 -7 39 -33.5t33 -58.5l88 -220
q5 -13 5 -19q0 -9 -15 -14.5t-45 -5.5h-41q-49 0 -58 21l-79 195q-17 33 -36.5 46.5t-64.5 13.5h-39v-244q0 -32 -60 -32h-34q-60 0 -60 32zM318 407q31 0 54 25t23 61q0 35 -22.5 55.5t-61.5 20.5h-88v-162h95z" />
    <glyph glyph-name="racute" unicode="&#x155;" horiz-adv-x="366" 
d="M126.5 576q-8.5 4 -8.5 11q0 5 5 13.5t8 14.5l40 72q10 19 25 25t60 6q30 0 41.5 -3.5t11.5 -13.5q0 -14 -19 -36l-57 -63q-15 -16 -33 -23t-41 -7q-24 0 -32.5 4zM62 30v317q0 44 -2.5 67.5t-6.5 52.5q-3 14 -3 21q0 16 40.5 24t71.5 8q18 0 25 -13.5t10.5 -29.5
t4.5 -22q19 35 44.5 55.5t64.5 20.5q34 0 45.5 -13.5t11.5 -40.5q0 -21 -9 -52.5t-22 -31.5q-6 0 -21 4t-26 4q-27 0 -47.5 -15.5t-32.5 -34.5v-321q0 -32 -60 -32h-28q-60 0 -60 32z" />
    <glyph glyph-name="uni0156" unicode="&#x156;" horiz-adv-x="610" 
d="M243.5 -234.5q-15.5 5.5 -15.5 16.5q1 4 8.5 21.5t12.5 41.5t3 60q0 44 60 44h23q25 0 37.5 -12t12.5 -32q0 -32 -19 -65.5t-45 -56.5t-44 -23t-33.5 5.5zM69 30v630q0 21 9.5 30.5t30.5 9.5h195q249 0 249 -188q0 -56 -31.5 -97.5t-85.5 -61.5v-4q19 -7 39 -33.5
t33 -58.5l88 -220q5 -13 5 -19q0 -9 -15 -14.5t-45 -5.5h-41q-49 0 -58 21l-79 195q-17 33 -36.5 46.5t-64.5 13.5h-39v-244q0 -32 -60 -32h-34q-60 0 -60 32zM318 407q31 0 54 25t23 61q0 35 -22.5 55.5t-61.5 20.5h-88v-162h95z" />
    <glyph glyph-name="uni0157" unicode="&#x157;" horiz-adv-x="366" 
d="M65.5 -236.5q-14.5 5.5 -14.5 16.5q0 7 6 21q8 22 13 44.5t5 57.5q0 44 60 44h19q25 0 37.5 -12t12.5 -32q0 -32 -19 -65.5t-45 -56.5t-44 -23q-16 0 -30.5 5.5zM62 30v317q0 44 -2.5 67.5t-6.5 52.5q-3 14 -3 21q0 16 40.5 24t71.5 8q18 0 25 -13.5t10.5 -29.5t4.5 -22
q19 35 44.5 55.5t64.5 20.5q34 0 45.5 -13.5t11.5 -40.5q0 -21 -9 -52.5t-22 -31.5q-6 0 -21 4t-26 4q-27 0 -47.5 -15.5t-32.5 -34.5v-321q0 -32 -60 -32h-28q-60 0 -60 32z" />
    <glyph glyph-name="Rcaron" unicode="&#x158;" horiz-adv-x="610" 
d="M228.5 755q-14.5 6 -28.5 23l-48 64q-9 12 -9 19q0 8 10 11t35 3q22 0 36 -3.5t27 -13.5l39 -32l39 32q13 10 27 13.5t36 3.5q25 0 35 -3t10 -11q0 -7 -9 -19l-48 -64q-14 -17 -28.5 -23t-47.5 -6h-28q-33 0 -47.5 6zM69 30v630q0 21 9.5 30.5t30.5 9.5h195
q249 0 249 -188q0 -56 -31.5 -97.5t-85.5 -61.5v-4q19 -7 39 -33.5t33 -58.5l88 -220q5 -13 5 -19q0 -9 -15 -14.5t-45 -5.5h-41q-49 0 -58 21l-79 195q-17 33 -36.5 46.5t-64.5 13.5h-39v-244q0 -32 -60 -32h-34q-60 0 -60 32zM318 407q31 0 54 25t23 61q0 35 -22.5 55.5
t-61.5 20.5h-88v-162h95z" />
    <glyph glyph-name="rcaron" unicode="&#x159;" horiz-adv-x="366" 
d="M138 577.5q-14 5.5 -22 20.5l-44 77q-1 2 -7 12.5t-6 15.5q0 8 9.5 11.5t31.5 3.5q24 0 36.5 -6t23.5 -19l36 -39l36 39q11 13 23.5 19t36.5 6q22 0 31.5 -3.5t9.5 -11.5q0 -5 -6 -15.5t-7 -12.5l-44 -77q-8 -15 -22 -20.5t-44 -5.5h-28q-30 0 -44 5.5zM62 30v317
q0 44 -2.5 67.5t-6.5 52.5q-3 14 -3 21q0 16 40.5 24t71.5 8q18 0 25 -13.5t10.5 -29.5t4.5 -22q19 35 44.5 55.5t64.5 20.5q34 0 45.5 -13.5t11.5 -40.5q0 -21 -9 -52.5t-22 -31.5q-6 0 -21 4t-26 4q-27 0 -47.5 -15.5t-32.5 -34.5v-321q0 -32 -60 -32h-28q-60 0 -60 32z
" />
    <glyph glyph-name="Sacute" unicode="&#x15a;" horiz-adv-x="500" 
d="M158 762q0 9 13 23l54 60q16 17 34 23.5t52 6.5q38 0 54.5 -3.5t16.5 -14.5q0 -13 -30 -33l-86 -56q-16 -11 -30 -15t-40 -4q-38 0 -38 13zM133 6q-53 14 -83 36q-28 19 -28 38q0 15 11 36t26 37t25 16q6 0 28 -12q32 -16 58 -25t61 -9q39 0 66.5 15.5t27.5 54.5
q0 32 -25.5 50.5t-82.5 41.5l-46 20q-63 30 -99 74.5t-36 126.5q0 68 33.5 113.5t87.5 67t116 21.5q51 0 92.5 -10.5t65.5 -27.5q22 -16 22 -32q0 -14 -9 -35t-22 -36.5t-24 -15.5q-5 0 -16.5 5t-19.5 8q-36 12 -75 12q-52 0 -72.5 -17t-20.5 -39q0 -26 14 -43t34 -27.5
t59 -27.5q57 -24 93 -45.5t62.5 -62t26.5 -103.5q0 -77 -32.5 -126t-83.5 -71t-110 -22q-71 0 -124 14z" />
    <glyph glyph-name="sacute" unicode="&#x15b;" horiz-adv-x="413" 
d="M137.5 576q-8.5 4 -8.5 11q0 5 5 13.5t8 14.5l40 72q10 19 25 25t60 6q30 0 41.5 -3.5t11.5 -13.5q0 -14 -19 -36l-57 -63q-15 -16 -33 -23t-41 -7q-24 0 -32.5 4zM80 11q-52 19 -52 49q0 20 19 48.5t34 28.5q8 0 22 -8q21 -9 38.5 -14.5t40.5 -5.5q30 0 45.5 11t15.5 31
t-17 31t-64 31q-35 15 -60 30.5t-43.5 46t-18.5 77.5q0 77 49 120.5t133 43.5q53 0 101.5 -15t48.5 -43q0 -19 -15 -49t-28 -30q-4 0 -30 10.5t-59 10.5q-53 0 -53 -37q0 -22 18 -33.5t65 -28.5q52 -19 86 -52.5t34 -100.5q0 -78 -52 -124.5t-144 -46.5q-62 0 -114 19z" />
    <glyph glyph-name="Scircumflex" unicode="&#x15c;" horiz-adv-x="500" 
d="M110 736q-8 2 -8 8q0 7 21 30l56 63q12 14 24.5 18.5t35.5 4.5h20q23 0 35.5 -5t25.5 -19l55 -62q21 -23 21 -30q0 -6 -8 -8t-32 -2q-29 0 -58 17l-49 28l-49 -28q-31 -17 -58 -17q-24 0 -32 2zM133 6q-53 14 -83 36q-28 19 -28 38q0 15 11 36t26 37t25 16q6 0 28 -12
q32 -16 58 -25t61 -9q39 0 66.5 15.5t27.5 54.5q0 32 -25.5 50.5t-82.5 41.5l-46 20q-63 30 -99 74.5t-36 126.5q0 68 33.5 113.5t87.5 67t116 21.5q51 0 92.5 -10.5t65.5 -27.5q22 -16 22 -32q0 -14 -9 -35t-22 -36.5t-24 -15.5q-5 0 -16.5 5t-19.5 8q-36 12 -75 12
q-52 0 -72.5 -17t-20.5 -39q0 -26 14 -43t34 -27.5t59 -27.5q57 -24 93 -45.5t62.5 -62t26.5 -103.5q0 -77 -32.5 -126t-83.5 -71t-110 -22q-71 0 -124 14z" />
    <glyph glyph-name="scircumflex" unicode="&#x15d;" horiz-adv-x="413" 
d="M78.5 575.5q-9.5 3.5 -9.5 11.5q0 5 6 15.5t7 12.5l44 77q8 15 22 20.5t44 5.5h28q30 0 44 -5.5t22 -20.5l44 -77q1 -2 7 -12.5t6 -15.5q0 -8 -9.5 -11.5t-31.5 -3.5q-24 0 -36.5 6t-23.5 19l-36 39l-36 -39q-11 -13 -23.5 -19t-36.5 -6q-22 0 -31.5 3.5zM80 11
q-52 19 -52 49q0 20 19 48.5t34 28.5q8 0 22 -8q21 -9 38.5 -14.5t40.5 -5.5q30 0 45.5 11t15.5 31t-17 31t-64 31q-35 15 -60 30.5t-43.5 46t-18.5 77.5q0 77 49 120.5t133 43.5q53 0 101.5 -15t48.5 -43q0 -19 -15 -49t-28 -30q-4 0 -30 10.5t-59 10.5q-53 0 -53 -37
q0 -22 18 -33.5t65 -28.5q52 -19 86 -52.5t34 -100.5q0 -78 -52 -124.5t-144 -46.5q-62 0 -114 19z" />
    <glyph glyph-name="Scedilla" unicode="&#x15e;" horiz-adv-x="500" 
d="M424.5 53q-58.5 -53 -144.5 -60l-10 -40q38 -5 60 -24t22 -49q0 -45 -30 -68.5t-89 -23.5q-47 0 -89 14t-42 36q0 18 10 29t18 11t29 -7q43 -15 72 -15q19 0 27 5.5t8 17.5t-11.5 18.5t-30.5 11.5q-3 1 -11.5 3.5t-12.5 5.5t-4 7q0 7 20 68q-56 4 -98.5 17.5t-67.5 31.5
q-28 19 -28 38q0 15 11 36t26 37t25 16q6 0 28 -12q32 -16 58 -25t61 -9q39 0 66.5 15.5t27.5 54.5q0 32 -25.5 50.5t-82.5 41.5l-46 20q-63 30 -99 74.5t-36 126.5q0 68 33.5 113.5t87.5 67t116 21.5q51 0 92.5 -10.5t65.5 -27.5q22 -16 22 -32q0 -14 -9 -35t-22 -36.5
t-24 -15.5q-5 0 -16.5 5t-19.5 8q-36 12 -75 12q-52 0 -72.5 -17t-20.5 -39q0 -26 14 -43t34 -27.5t59 -27.5q57 -24 93 -45.5t62.5 -62t26.5 -103.5q0 -105 -58.5 -158z" />
    <glyph glyph-name="scedilla" unicode="&#x15f;" horiz-adv-x="413" 
d="M350.5 51q-39.5 -45 -111.5 -56l-11 -42q38 -5 60 -24t22 -49q0 -45 -30 -68.5t-89 -23.5q-47 0 -89 14t-42 36q0 18 10 29t18 11t29 -7q43 -15 72 -15q19 0 27 5.5t8 17.5t-11.5 18.5t-30.5 11.5q-3 1 -11.5 3.5t-12.5 5.5t-4 7q0 7 19 68q-57 3 -101 21.5t-44 45.5
q0 20 19 48.5t34 28.5q8 0 22 -8q21 -9 38.5 -14.5t40.5 -5.5q30 0 45.5 11t15.5 31t-17 31t-64 31q-35 15 -60 30.5t-43.5 46t-18.5 77.5q0 77 49 120.5t133 43.5q53 0 101.5 -15t48.5 -43q0 -19 -15 -49t-28 -30q-4 0 -30 10.5t-59 10.5q-53 0 -53 -37q0 -22 18 -33.5
t65 -28.5q52 -19 86 -52.5t34 -100.5t-39.5 -112z" />
    <glyph glyph-name="Scaron" unicode="&#x160;" horiz-adv-x="500" 
d="M188.5 755q-14.5 6 -28.5 23l-48 64q-9 12 -9 19q0 8 10 11t35 3q22 0 36 -3.5t27 -13.5l39 -32l39 32q13 10 27 13.5t36 3.5q25 0 35 -3t10 -11q0 -7 -9 -19l-48 -64q-14 -17 -28.5 -23t-47.5 -6h-28q-33 0 -47.5 6zM133 6q-53 14 -83 36q-28 19 -28 38q0 15 11 36
t26 37t25 16q6 0 28 -12q32 -16 58 -25t61 -9q39 0 66.5 15.5t27.5 54.5q0 32 -25.5 50.5t-82.5 41.5l-46 20q-63 30 -99 74.5t-36 126.5q0 68 33.5 113.5t87.5 67t116 21.5q51 0 92.5 -10.5t65.5 -27.5q22 -16 22 -32q0 -14 -9 -35t-22 -36.5t-24 -15.5q-5 0 -16.5 5
t-19.5 8q-36 12 -75 12q-52 0 -72.5 -17t-20.5 -39q0 -26 14 -43t34 -27.5t59 -27.5q57 -24 93 -45.5t62.5 -62t26.5 -103.5q0 -77 -32.5 -126t-83.5 -71t-110 -22q-71 0 -124 14z" />
    <glyph glyph-name="scaron" unicode="&#x161;" horiz-adv-x="413" 
d="M149 577.5q-14 5.5 -22 20.5l-44 77q-1 2 -7 12.5t-6 15.5q0 8 9.5 11.5t31.5 3.5q24 0 36.5 -6t23.5 -19l36 -39l36 39q11 13 23.5 19t36.5 6q22 0 31.5 -3.5t9.5 -11.5q0 -5 -6 -15.5t-7 -12.5l-44 -77q-8 -15 -22 -20.5t-44 -5.5h-28q-30 0 -44 5.5zM80 11
q-52 19 -52 49q0 20 19 48.5t34 28.5q8 0 22 -8q21 -9 38.5 -14.5t40.5 -5.5q30 0 45.5 11t15.5 31t-17 31t-64 31q-35 15 -60 30.5t-43.5 46t-18.5 77.5q0 77 49 120.5t133 43.5q53 0 101.5 -15t48.5 -43q0 -19 -15 -49t-28 -30q-4 0 -30 10.5t-59 10.5q-53 0 -53 -37
q0 -22 18 -33.5t65 -28.5q52 -19 86 -52.5t34 -100.5q0 -78 -52 -124.5t-144 -46.5q-62 0 -114 19z" />
    <glyph glyph-name="uni0162" unicode="&#x162;" horiz-adv-x="549" 
d="M534 688q7 -12 7 -38v-31q0 -26 -7 -38t-23 -12h-159v-539q0 -31 -55 -32l-12 -45q38 -5 60 -24t22 -49q0 -45 -30 -68.5t-89 -23.5q-47 0 -89 14t-42 36q0 18 10 29t18 11t29 -7q43 -15 72 -15q19 0 27 5.5t8 17.5t-11.5 18.5t-30.5 11.5q-3 1 -11.5 3.5t-12.5 5.5t-4 7
q0 8 22 75q-36 4 -36 30v539h-159q-16 0 -23 12t-7 38v31q0 26 7 38t23 12h473q16 0 23 -12z" />
    <glyph glyph-name="uni0163" unicode="&#x163;" horiz-adv-x="342" 
d="M232 -8l-10 -39q38 -5 60 -24t22 -49q0 -45 -30 -68.5t-89 -23.5q-47 0 -89 14t-42 36q0 18 10 29t18 11t29 -7q43 -15 72 -15q19 0 27 5.5t8 17.5t-11.5 18.5t-30.5 11.5q-3 1 -11.5 3.5t-12.5 5.5t-4 7q0 7 21 74q-92 26 -92 155v252h-16q-16 0 -23 12t-7 38v17
q0 26 7 38t23 12h16l13 95q5 32 54 32h31q50 0 50 -32v-95h49q16 0 23 -12t7 -38v-17q0 -26 -7 -38t-23 -12h-49v-254q0 -23 8.5 -33t27.5 -10q5 0 13.5 2t13.5 2q9 0 16 -15t11 -33t4 -24q0 -46 -87 -49z" />
    <glyph glyph-name="Tcaron" unicode="&#x164;" horiz-adv-x="549" 
d="M213.5 755q-14.5 6 -28.5 23l-48 64q-9 12 -9 19q0 8 10 11t35 3q22 0 36 -3.5t27 -13.5l39 -32l39 32q13 10 27 13.5t36 3.5q25 0 35 -3t10 -11q0 -7 -9 -19l-48 -64q-14 -17 -28.5 -23t-47.5 -6h-28q-33 0 -47.5 6zM197 30v539h-159q-16 0 -23 12t-7 38v31q0 26 7 38
t23 12h473q16 0 23 -12t7 -38v-31q0 -26 -7 -38t-23 -12h-159v-539q0 -32 -60 -32h-35q-60 0 -60 32z" />
    <glyph glyph-name="tcaron" unicode="&#x165;" horiz-adv-x="342" 
d="M272.5 568.5q-14.5 5.5 -14.5 16.5q0 31 2 73q2 36 2 50q0 44 50 44h19q25 0 37.5 -12t12.5 -32q0 -32 -13.5 -65.5t-32.5 -56.5t-32 -23q-16 0 -30.5 5.5zM77 154v252h-16q-16 0 -23 12t-7 38v17q0 26 7 38t23 12h16l13 95q5 32 54 32h31q50 0 50 -32v-95h49
q16 0 23 -12t7 -38v-17q0 -26 -7 -38t-23 -12h-49v-254q0 -23 8.5 -33t27.5 -10q5 0 13.5 2t13.5 2q9 0 16 -15t11 -33t4 -24q0 -49 -96 -49q-146 0 -146 162z" />
    <glyph glyph-name="Tbar" unicode="&#x166;" horiz-adv-x="549" 
d="M534 688q7 -12 7 -38v-31q0 -26 -7 -38t-23 -12h-159v-169h95q16 0 23 -9.5t7 -30.5v-15q0 -21 -7 -30.5t-23 -9.5h-95v-275q0 -32 -60 -32h-35q-60 0 -60 32v275h-93q-16 0 -23 9.5t-7 30.5v15q0 21 7 30.5t23 9.5h93v169h-159q-16 0 -23 12t-7 38v31q0 26 7 38t23 12
h473q16 0 23 -12z" />
    <glyph glyph-name="tbar" unicode="&#x167;" horiz-adv-x="342" 
d="M304 98q7 -15 11 -33t4 -24q0 -49 -96 -49q-146 0 -146 162v66h-16q-16 0 -23 9.5t-7 30.5v15q0 21 7 30.5t23 9.5h16v91h-16q-16 0 -23 12t-7 38v17q0 26 7 38t23 12h16l13 95q5 32 54 32h31q50 0 50 -32v-95h49q16 0 23 -12t7 -38v-17q0 -26 -7 -38t-23 -12h-49v-91h42
q16 0 23 -9.5t7 -30.5v-15q0 -21 -7 -30.5t-23 -9.5h-42v-68q0 -23 8.5 -33t27.5 -10q5 0 13.5 2t13.5 2q9 0 16 -15z" />
    <glyph glyph-name="Utilde" unicode="&#x168;" horiz-adv-x="712" 
d="M192 759q-16 9 -16 19q0 11 8 27q13 28 38.5 47t64.5 19q26 0 80 -16q45 -13 61 -13q21 0 42 19q1 1 8.5 6.5t14.5 5.5q12 0 27.5 -11.5t15.5 -21.5q0 -9 -8 -23q-14 -25 -40 -44.5t-64 -19.5q-26 0 -80 16q-45 13 -64 13q-13 0 -22.5 -5.5t-18.5 -14.5q-12 -12 -20 -12
q-11 0 -27 9zM142 55.5q-76 63.5 -76 178.5v436q0 32 60 32h34q60 0 60 -32v-426q0 -53 38 -87t98 -34t98.5 34t38.5 87v426q0 32 60 32h33q60 0 60 -32v-436q0 -115 -76 -178.5t-214 -63.5t-214 63.5z" />
    <glyph glyph-name="utilde" unicode="&#x169;" horiz-adv-x="557" 
d="M116.5 591.5q-17.5 9.5 -17.5 20.5t5 23q13 30 39 49.5t62 19.5q27 0 81 -15q35 -11 51 -11t26 5t19 13q1 1 7.5 5.5t13.5 4.5q9 0 27.5 -12.5t18.5 -22.5q0 -8 -8 -25q-11 -24 -36.5 -42t-67.5 -18q-15 0 -34.5 4.5t-37.5 10.5q-37 11 -52 11t-26 -5.5t-22 -14.5
q-1 -1 -7.5 -5.5t-12.5 -4.5q-11 0 -28.5 9.5zM95 31.5q-36 39.5 -36 122.5v339q0 32 60 32h28q60 0 60 -32v-317q0 -31 14 -46.5t46 -15.5q27 0 47.5 17.5t32.5 40.5v321q0 32 60 32h28q60 0 60 -32v-317q0 -46 2.5 -70t6.5 -53q3 -13 3 -22q0 -16 -40.5 -24t-71.5 -8
q-18 0 -25 14.5t-10.5 31.5t-4.5 23q-24 -32 -63.5 -54t-85.5 -22q-75 0 -111 39.5z" />
    <glyph glyph-name="Umacron" unicode="&#x16a;" horiz-adv-x="712" 
d="M197 775.5q-7 9.5 -7 30.5v15q0 21 7 30.5t23 9.5h271q16 0 23 -9.5t7 -30.5v-15q0 -21 -7 -30.5t-23 -9.5h-271q-16 0 -23 9.5zM142 55.5q-76 63.5 -76 178.5v436q0 32 60 32h34q60 0 60 -32v-426q0 -53 38 -87t98 -34t98.5 34t38.5 87v426q0 32 60 32h33q60 0 60 -32
v-436q0 -115 -76 -178.5t-214 -63.5t-214 63.5z" />
    <glyph glyph-name="umacron" unicode="&#x16b;" horiz-adv-x="557" 
d="M133 606.5q-7 9.5 -7 30.5v15q0 21 7 30.5t23 9.5h245q16 0 23 -9.5t7 -30.5v-15q0 -21 -7 -30.5t-23 -9.5h-245q-16 0 -23 9.5zM95 31.5q-36 39.5 -36 122.5v339q0 32 60 32h28q60 0 60 -32v-317q0 -31 14 -46.5t46 -15.5q27 0 47.5 17.5t32.5 40.5v321q0 32 60 32h28
q60 0 60 -32v-317q0 -46 2.5 -70t6.5 -53q3 -13 3 -22q0 -16 -40.5 -24t-71.5 -8q-18 0 -25 14.5t-10.5 31.5t-4.5 23q-24 -32 -63.5 -54t-85.5 -22q-75 0 -111 39.5z" />
    <glyph glyph-name="Ubreve" unicode="&#x16c;" horiz-adv-x="712" 
d="M275 757q-36 16 -56 41.5t-20 54.5q0 13 9 20.5t26 7.5q11 0 17.5 -4t15.5 -14q13 -14 32 -22.5t57 -8.5q40 0 59 9t32 24q7 8 13.5 12t17.5 4q17 0 26 -7.5t9 -20.5q0 -29 -20 -54.5t-56 -41.5t-81 -16t-81 16zM142 55.5q-76 63.5 -76 178.5v436q0 32 60 32h34
q60 0 60 -32v-426q0 -53 38 -87t98 -34t98.5 34t38.5 87v426q0 32 60 32h33q60 0 60 -32v-436q0 -115 -76 -178.5t-214 -63.5t-214 63.5z" />
    <glyph glyph-name="ubreve" unicode="&#x16d;" horiz-adv-x="557" 
d="M208.5 591q-31.5 16 -49 41.5t-17.5 54.5q0 13 9 20.5t26 7.5q11 0 17.5 -4t15.5 -14q14 -15 28 -23t41 -8q31 0 44 8t27 25q7 8 13.5 12t17.5 4q17 0 26 -7.5t9 -20.5q0 -29 -17.5 -54.5t-49 -41.5t-70.5 -16t-70.5 16zM95 31.5q-36 39.5 -36 122.5v339q0 32 60 32h28
q60 0 60 -32v-317q0 -31 14 -46.5t46 -15.5q27 0 47.5 17.5t32.5 40.5v321q0 32 60 32h28q60 0 60 -32v-317q0 -46 2.5 -70t6.5 -53q3 -13 3 -22q0 -16 -40.5 -24t-71.5 -8q-18 0 -25 14.5t-10.5 31.5t-4.5 23q-24 -32 -63.5 -54t-85.5 -22q-75 0 -111 39.5z" />
    <glyph glyph-name="Uring" unicode="&#x16e;" horiz-adv-x="712" 
d="M284.5 746.5q-28.5 28.5 -28.5 70.5q0 43 28.5 71.5t70.5 28.5q43 0 71.5 -28.5t28.5 -71.5q0 -42 -28.5 -70.5t-71.5 -28.5q-42 0 -70.5 28.5zM380 792q10 10 10 24q0 15 -10 25t-25 10q-14 0 -24 -10t-10 -25q0 -14 10 -24t24 -10q15 0 25 10zM142 55.5
q-76 63.5 -76 178.5v436q0 32 60 32h34q60 0 60 -32v-426q0 -53 38 -87t98 -34t98.5 34t38.5 87v426q0 32 60 32h33q60 0 60 -32v-436q0 -115 -76 -178.5t-214 -63.5t-214 63.5z" />
    <glyph glyph-name="uring" unicode="&#x16f;" horiz-adv-x="557" 
d="M205.5 569.5q-29.5 28.5 -29.5 70.5q0 43 29 71.5t73 28.5t73.5 -28.5t29.5 -71.5q0 -42 -29.5 -70.5t-73.5 -28.5q-43 0 -72.5 28.5zM303 615q10 10 10 24q0 15 -10 25t-25 10q-14 0 -24 -10t-10 -25q0 -14 10 -24t24 -10q15 0 25 10zM95 31.5q-36 39.5 -36 122.5v339
q0 32 60 32h28q60 0 60 -32v-317q0 -31 14 -46.5t46 -15.5q27 0 47.5 17.5t32.5 40.5v321q0 32 60 32h28q60 0 60 -32v-317q0 -46 2.5 -70t6.5 -53q3 -13 3 -22q0 -16 -40.5 -24t-71.5 -8q-18 0 -25 14.5t-10.5 31.5t-4.5 23q-24 -32 -63.5 -54t-85.5 -22q-75 0 -111 39.5z
" />
    <glyph glyph-name="Uhungarumlaut" unicode="&#x170;" horiz-adv-x="712" 
d="M173 762q0 9 13 23l54 60q16 17 34 23.5t52 6.5q38 0 54.5 -3.5t16.5 -14.5q0 -13 -30 -33l-86 -56q-16 -11 -30 -15t-40 -4q-38 0 -38 13zM367 762q0 9 13 23l54 60q16 17 34 23.5t52 6.5q38 0 54.5 -3.5t16.5 -14.5q0 -13 -30 -33l-86 -56q-16 -11 -30 -15t-40 -4
q-38 0 -38 13zM142 55.5q-76 63.5 -76 178.5v436q0 32 60 32h34q60 0 60 -32v-426q0 -53 38 -87t98 -34t98.5 34t38.5 87v426q0 32 60 32h33q60 0 60 -32v-436q0 -115 -76 -178.5t-214 -63.5t-214 63.5z" />
    <glyph glyph-name="uhungarumlaut" unicode="&#x171;" horiz-adv-x="557" 
d="M128.5 576q-8.5 4 -8.5 11q0 5 5 13.5t8 14.5l40 72q10 19 25 25t60 6q30 0 41.5 -3.5t11.5 -13.5q0 -14 -19 -36l-57 -63q-15 -16 -33 -23t-41 -7q-24 0 -32.5 4zM311.5 576q-8.5 4 -8.5 11q0 5 5 13.5t8 14.5l40 72q10 19 25 25t60 6q30 0 41.5 -3.5t11.5 -13.5
q0 -14 -19 -36l-57 -63q-15 -16 -33 -23t-41 -7q-24 0 -32.5 4zM95 31.5q-36 39.5 -36 122.5v339q0 32 60 32h28q60 0 60 -32v-317q0 -31 14 -46.5t46 -15.5q27 0 47.5 17.5t32.5 40.5v321q0 32 60 32h28q60 0 60 -32v-317q0 -46 2.5 -70t6.5 -53q3 -13 3 -22
q0 -16 -40.5 -24t-71.5 -8q-18 0 -25 14.5t-10.5 31.5t-4.5 23q-24 -32 -63.5 -54t-85.5 -22q-75 0 -111 39.5z" />
    <glyph glyph-name="Uogonek" unicode="&#x172;" horiz-adv-x="712" 
d="M646 670v-436q0 -108 -66.5 -170.5t-188.5 -70.5q-21 -17 -32.5 -36.5t-11.5 -35.5q0 -13 9 -21t26 -8q15 0 31 4.5t22 4.5q11 0 16.5 -17t5.5 -35q0 -21 -24.5 -33t-63.5 -12q-51 0 -79 24t-28 69q0 25 14.5 51t41.5 45q-120 9 -186 71.5t-66 169.5v436q0 32 60 32h34
q60 0 60 -32v-426q0 -53 38 -87t98 -34t98.5 34t38.5 87v426q0 32 60 32h33q60 0 60 -32z" />
    <glyph glyph-name="uogonek" unicode="&#x173;" horiz-adv-x="557" 
d="M512.5 -116q5.5 -17 5.5 -35q0 -21 -24.5 -33t-63.5 -12q-51 0 -79 24t-28 69q0 28 16.5 55.5t48.5 47.5q-14 3 -19.5 16.5t-8.5 29t-5 22.5q-24 -32 -63.5 -54t-85.5 -22q-75 0 -111 39.5t-36 122.5v339q0 32 60 32h28q60 0 60 -32v-317q0 -31 14 -46.5t46 -15.5
q27 0 47.5 17.5t32.5 40.5v321q0 32 60 32h28q60 0 60 -32v-317q0 -46 2.5 -70t6.5 -53q3 -13 3 -22q0 -12 -30 -21q-32 -18 -50.5 -43t-18.5 -46q0 -13 9 -21t26 -8q15 0 31 4.5t22 4.5q11 0 16.5 -17z" />
    <glyph glyph-name="Wcircumflex" unicode="&#x174;" horiz-adv-x="910" 
d="M319 736q-8 2 -8 8q0 7 21 30l56 63q12 14 24.5 18.5t35.5 4.5h20q23 0 35.5 -5t25.5 -19l55 -62q21 -23 21 -30q0 -6 -8 -8t-32 -2q-29 0 -58 17l-49 28l-49 -28q-31 -17 -58 -17q-24 0 -32 2zM186.5 4q-13.5 6 -17.5 20l-157 637q-2 12 -2 15q0 26 62 26h26
q60 0 67 -31l75 -322q9 -41 16.5 -95.5t9.5 -95.5h4q6 47 16 102t19 90l82 331q3 12 16.5 16.5t38.5 4.5h38q25 0 38.5 -4.5t16.5 -16.5l79 -332q11 -50 20 -104.5t11 -86.5h4q4 37 13.5 92t20.5 101l77 320q7 31 67 31h11q62 0 62 -26q0 -9 -2 -15l-161 -637
q-7 -26 -57 -26h-73q-51 0 -56 26l-74 313l-21 126h-4q-16 -100 -22 -126l-76 -312q-7 -27 -57 -27h-72q-25 0 -38.5 6z" />
    <glyph glyph-name="wcircumflex" unicode="&#x175;" horiz-adv-x="747" 
d="M245.5 575.5q-9.5 3.5 -9.5 11.5q0 5 6 15.5t7 12.5l44 77q8 15 22 20.5t44 5.5h28q30 0 44 -5.5t22 -20.5l44 -77q1 -2 7 -12.5t6 -15.5q0 -8 -9.5 -11.5t-31.5 -3.5q-24 0 -36.5 6t-23.5 19l-36 39l-36 -39q-11 -13 -23.5 -19t-36.5 -6q-22 0 -31.5 3.5zM146 19
l-126 465q-2 6 -2 15q0 26 62 26q40 0 58 -5t21 -16l59 -246q13 -52 15 -83h4q3 27 18 86l59 243q6 21 55 21h24q22 0 37.5 -5.5t17.5 -15.5l60 -248q14 -60 16 -85h2q8 52 17 88l60 245q5 21 59 21q62 0 62 -26q0 -9 -2 -15l-118 -465q-2 -10 -17.5 -15.5t-37.5 -5.5h-49
q-49 0 -55 21l-56 220q-10 42 -14 84h-4q-2 -37 -13 -85l-53 -219q-2 -10 -17.5 -15.5t-37.5 -5.5h-49q-49 0 -55 21z" />
    <glyph glyph-name="Ycircumflex" unicode="&#x176;" horiz-adv-x="559" 
d="M140 736q-8 2 -8 8q0 7 21 30l56 63q12 14 24.5 18.5t35.5 4.5h20q23 0 35.5 -5t25.5 -19l55 -62q21 -23 21 -30q0 -6 -8 -8t-32 -2q-29 0 -58 17l-49 28l-49 -28q-31 -17 -58 -17q-24 0 -32 2zM203 30v306l-199 321q-10 17 -10 25q0 20 64 20h43q49 0 60 -19l122 -214
l123 214q11 19 60 19h36q63 0 63 -20q0 -10 -9 -25l-199 -324v-303q0 -32 -60 -32h-34q-60 0 -60 32z" />
    <glyph glyph-name="ycircumflex" unicode="&#x177;" horiz-adv-x="481" 
d="M112.5 575.5q-9.5 3.5 -9.5 11.5q0 5 6 15.5t7 12.5l44 77q8 15 22 20.5t44 5.5h28q30 0 44 -5.5t22 -20.5l44 -77q1 -2 7 -12.5t6 -15.5q0 -8 -9.5 -11.5t-31.5 -3.5q-24 0 -36.5 6t-23.5 19l-36 39l-36 -39q-11 -13 -23.5 -19t-36.5 -6q-22 0 -31.5 3.5zM477 503
q0 -7 -3 -18l-229 -670q-7 -21 -56 -21h-17q-60 0 -60 21q0 9 4 18l63 169l-165 483q-4 14 -4 18q0 22 61 22h32q49 0 56 -21l59 -185q9 -28 28 -121h4q20 96 28 121l59 185q7 21 56 21h24q60 0 60 -22z" />
    <glyph glyph-name="Ydieresis" unicode="&#x178;" horiz-adv-x="559" 
d="M138 753.5q-15 7.5 -15 24.5v68q0 17 15 24.5t49 7.5t49 -7.5t15 -24.5v-68q0 -17 -15 -24.5t-49 -7.5t-49 7.5zM324 753.5q-15 7.5 -15 24.5v68q0 17 15 24.5t49 7.5t49 -7.5t15 -24.5v-68q0 -17 -15 -24.5t-49 -7.5t-49 7.5zM203 30v306l-199 321q-10 17 -10 25
q0 20 64 20h43q49 0 60 -19l122 -214l123 214q11 19 60 19h36q63 0 63 -20q0 -10 -9 -25l-199 -324v-303q0 -32 -60 -32h-34q-60 0 -60 32z" />
    <glyph glyph-name="Zacute" unicode="&#x179;" horiz-adv-x="616" 
d="M216 762q0 9 13 23l54 60q16 17 34 23.5t52 6.5q38 0 54.5 -3.5t16.5 -14.5q0 -13 -30 -33l-86 -56q-16 -11 -30 -15t-40 -4q-38 0 -38 13zM40.5 33.5q-13.5 33.5 -13.5 55.5q0 6 2 10l335 470h-278q-16 0 -23 12t-7 38v31q0 26 7 38t23 12h457q11 0 24 -35t13 -57
q0 -8 -5 -14l-330 -463h305q16 0 23 -12t7 -38v-31q0 -26 -7 -38t-23 -12h-484q-12 0 -25.5 33.5z" />
    <glyph glyph-name="zacute" unicode="&#x17a;" horiz-adv-x="489" 
d="M175.5 576q-8.5 4 -8.5 11q0 5 5 13.5t8 14.5l40 72q10 19 25 25t60 6q30 0 41.5 -3.5t11.5 -13.5q0 -14 -19 -36l-57 -63q-15 -16 -33 -23t-41 -7q-24 0 -32.5 4zM37 27.5q-10 27.5 -10 48.5q0 10 3 14l229 316h-186q-16 0 -23 12t-7 38v17q0 26 7 38t23 12h354
q8 0 18.5 -28t10.5 -49q0 -10 -3 -15l-228 -314h205q16 0 23 -12t7 -38v-17q0 -26 -7 -38t-23 -12h-374q-9 0 -19 27.5z" />
    <glyph glyph-name="Zdotaccent" unicode="&#x17b;" horiz-adv-x="616" 
d="M234 773v78q0 32 74 32t74 -32v-78q0 -32 -74 -32t-74 32zM40.5 33.5q-13.5 33.5 -13.5 55.5q0 6 2 10l335 470h-278q-16 0 -23 12t-7 38v31q0 26 7 38t23 12h457q11 0 24 -35t13 -57q0 -8 -5 -14l-330 -463h305q16 0 23 -12t7 -38v-31q0 -26 -7 -38t-23 -12h-484
q-12 0 -25.5 33.5z" />
    <glyph glyph-name="zdotaccent" unicode="&#x17c;" horiz-adv-x="489" 
d="M171 606v78q0 32 74 32t74 -32v-78q0 -32 -74 -32t-74 32zM37 27.5q-10 27.5 -10 48.5q0 10 3 14l229 316h-186q-16 0 -23 12t-7 38v17q0 26 7 38t23 12h354q8 0 18.5 -28t10.5 -49q0 -10 -3 -15l-228 -314h205q16 0 23 -12t7 -38v-17q0 -26 -7 -38t-23 -12h-374
q-9 0 -19 27.5z" />
    <glyph glyph-name="Zcaron" unicode="&#x17d;" horiz-adv-x="616" 
d="M246.5 755q-14.5 6 -28.5 23l-48 64q-9 12 -9 19q0 8 10 11t35 3q22 0 36 -3.5t27 -13.5l39 -32l39 32q13 10 27 13.5t36 3.5q25 0 35 -3t10 -11q0 -7 -9 -19l-48 -64q-14 -17 -28.5 -23t-47.5 -6h-28q-33 0 -47.5 6zM40.5 33.5q-13.5 33.5 -13.5 55.5q0 6 2 10l335 470
h-278q-16 0 -23 12t-7 38v31q0 26 7 38t23 12h457q11 0 24 -35t13 -57q0 -8 -5 -14l-330 -463h305q16 0 23 -12t7 -38v-31q0 -26 -7 -38t-23 -12h-484q-12 0 -25.5 33.5z" />
    <glyph glyph-name="zcaron" unicode="&#x17e;" horiz-adv-x="489" 
d="M187 577.5q-14 5.5 -22 20.5l-44 77q-1 2 -7 12.5t-6 15.5q0 8 9.5 11.5t31.5 3.5q24 0 36.5 -6t23.5 -19l36 -39l36 39q11 13 23.5 19t36.5 6q22 0 31.5 -3.5t9.5 -11.5q0 -5 -6 -15.5t-7 -12.5l-44 -77q-8 -15 -22 -20.5t-44 -5.5h-28q-30 0 -44 5.5zM37 27.5
q-10 27.5 -10 48.5q0 10 3 14l229 316h-186q-16 0 -23 12t-7 38v17q0 26 7 38t23 12h354q8 0 18.5 -28t10.5 -49q0 -10 -3 -15l-228 -314h205q16 0 23 -12t7 -38v-17q0 -26 -7 -38t-23 -12h-374q-9 0 -19 27.5z" />
    <glyph glyph-name="longs" unicode="&#x17f;" horiz-adv-x="325" 
d="M79 30v376h-18q-16 0 -23 12t-7 38v17q0 26 7 38t23 12h18v75q0 162 146 162q100 0 100 -49q0 -6 -4 -24t-11 -33t-16 -15q-6 0 -16 2t-15 2q-19 0 -27.5 -10t-8.5 -33v-570q0 -32 -60 -32h-28q-60 0 -60 32z" />
    <glyph glyph-name="uni0180" unicode="&#x180;" horiz-adv-x="632" 
d="M382 546q102 0 154 -69t52 -203q0 -135 -56.5 -209.5t-153.5 -74.5q-96 0 -151 70h-10l-25 -60h-114v584h-76v97h76v79h149v-79h154v-97h-154v-11q0 -32 -6 -108h6q52 81 155 81zM334 427q-104 0 -107 -146v-6q0 -88 26 -126t83 -38q46 0 73 42t27 123q0 151 -102 151z
" />
    <glyph glyph-name="uni0181" unicode="&#x181;" horiz-adv-x="793" 
d="M212 590h-26q-32 0 -46.5 -16.5t-14.5 -39.5q0 -22 10 -48h-118q-12 26 -12 58q0 82 47.5 126t137.5 44h244q152 0 220.5 -43.5t68.5 -137.5q0 -63 -30 -104.5t-80 -49.5v-5q68 -15 98 -56.5t30 -110.5q0 -98 -70.5 -152.5t-191.5 -54.5h-267v590zM363 311v-186h99
q62 0 92 24t30 73q0 89 -127 89h-94zM363 431h88q62 0 89.5 19t27.5 63q0 41 -30.5 59t-94.5 18h-80v-159z" />
    <glyph glyph-name="uni0182" unicode="&#x182;" horiz-adv-x="638" 
d="M241 440h60q140 0 216 -56.5t76 -160.5q0 -223 -295 -223h-208v714h451v-125h-300v-149zM241 124h51q77 0 112.5 24.5t35.5 74.5q0 49 -36 71t-124 22h-39v-192z" />
    <glyph glyph-name="uni0183" unicode="&#x183;" horiz-adv-x="632" 
d="M382 546q102 0 154 -69t52 -203q0 -135 -56.5 -209.5t-153.5 -74.5q-96 0 -151 70h-10l-25 -60h-114v760h456v-112h-307v-75q0 -32 -6 -108h6q52 81 155 81zM334 427q-104 0 -107 -146v-6q0 -88 26 -126t83 -38q46 0 73 42t27 123q0 151 -102 151z" />
    <glyph glyph-name="uni0184" unicode="&#x184;" horiz-adv-x="661" 
d="M616 218q0 -109 -69 -168.5t-198 -59.5q-264 0 -264 220v504h151v-274h88q140 0 216 -57.5t76 -164.5zM236 218q0 -104 109 -104q58 0 88 26.5t30 77.5q0 52 -35 75t-125 23h-67v-98z" />
    <glyph glyph-name="uni0185" unicode="&#x185;" horiz-adv-x="633" 
d="M589 273q0 -133 -67.5 -208t-186.5 -75q-125 0 -192.5 72t-67.5 205v493h149v-177q0 -27 -6 -108h6q26 40 67 60.5t92 20.5q97 0 151.5 -75t54.5 -208zM335 437q-59 0 -85 -37.5t-26 -108.5v-26q0 -80 26.5 -117.5t81.5 -37.5q53 0 79 39.5t26 123.5q0 83 -27.5 123.5
t-74.5 40.5z" />
    <glyph glyph-name="uni0186" unicode="&#x186;" horiz-adv-x="637" 
d="M239 598q-42 0 -80.5 -14t-74.5 -33l-49 123q99 50 220 50q153 0 238.5 -96.5t85.5 -266.5q0 -175 -86.5 -273t-245.5 -98q-54 0 -99 8.5t-92 28.5v127q64 -22 101.5 -30t75.5 -8q93 0 141.5 63.5t48.5 178.5q0 114 -48.5 177t-135.5 63z" />
    <glyph glyph-name="uni0187" unicode="&#x187;" horiz-adv-x="637" 
d="M393 598q-85 0 -132 -64t-47 -179q0 -239 179 -239q75 0 182 38v-127q-88 -37 -196 -37q-156 0 -238.5 94.5t-82.5 271.5q0 111 40.5 195t116.5 128.5t178 44.5q46 0 89 -11q1 81 40.5 123.5t113.5 42.5q22 0 41.5 -5t28.5 -10v-114q-28 10 -55 10q-49 0 -49 -56v-40
l-49 -113q-40 19 -80.5 33t-79.5 14z" />
    <glyph glyph-name="uni0188" unicode="&#x188;" horiz-adv-x="514" 
d="M300 -10q-255 0 -255 280q0 139 69.5 212.5t198.5 73.5q29 0 50 -4v41q0 84 39 128t116 44q39 0 69 -15v-114q-28 10 -55 10q-49 0 -49 -56v-76l-44 -110q-35 14 -65.5 23t-60.5 9q-116 0 -116 -165q0 -160 116 -160q43 0 79.5 11.5t73.5 35.5v-127q-36 -23 -73 -32
t-93 -9z" />
    <glyph glyph-name="uni0189" unicode="&#x189;" horiz-adv-x="740" 
d="M567.5 609.5q82.5 -90.5 82.5 -259.5t-82.5 -259.5t-237.5 -90.5h-214q-21 0 -30.5 9.5t-9.5 30.5v251h-34q-16 0 -23 12t-7 38v30q0 26 7 38t23 12h34v239q0 21 9.5 30.5t30.5 9.5h214q155 0 237.5 -90.5zM451 187q41 56 41 163t-41 163t-121 56h-99v-148h94
q16 0 23 -12t7 -38v-30q0 -26 -7 -38t-23 -12h-94v-160h99q80 0 121 56z" />
    <glyph glyph-name="uni018A" unicode="&#x18a;" horiz-adv-x="861" 
d="M804 364q0 -176 -100 -270t-290 -94h-202v590h-26q-32 0 -46.5 -16.5t-14.5 -39.5q0 -22 10 -48h-118q-12 26 -12 58q0 82 47.5 126t137.5 44h246q175 0 271.5 -92t96.5 -258zM647 360q0 230 -203 230h-81v-465h65q219 0 219 235z" />
    <glyph glyph-name="uni018B" unicode="&#x18b;" horiz-adv-x="638" 
d="M397 589h-300v125h451v-714h-220q-142 0 -212.5 54t-70.5 165q0 104 77.5 162.5t219.5 58.5h55v149zM397 316h-39q-88 0 -124 -22.5t-36 -71.5q0 -50 36 -74t112 -24h51v192z" />
    <glyph glyph-name="uni018C" unicode="&#x18c;" horiz-adv-x="632" 
d="M251 -10q-96 0 -151 75t-55 207q0 129 57 201.5t153 72.5q104 0 157 -80h5q-11 62 -11 109v73h-307v112h456v-760h-114l-29 71h-6q-51 -81 -155 -81zM303 109q57 0 84 33t29 113v16q0 83 -27.5 118.5t-87.5 35.5q-50 0 -77.5 -39.5t-27.5 -115.5q0 -81 27.5 -121
t79.5 -40z" />
    <glyph glyph-name="uni018D" unicode="&#x18d;" horiz-adv-x="619" 
d="M382 307q116 -74 116 -167q0 -70 -59 -110t-163 -40q-53 0 -104 11t-121 43l59 105q45 -22 87 -35.5t85 -13.5q36 0 54 13t18 36q0 26 -33.5 52t-101.5 60q-90 45 -132 105.5t-42 138.5q0 126 69 193t198 67q119 0 190.5 -60.5t71.5 -163.5q0 -89 -46.5 -147.5
t-145.5 -86.5zM197 515q0 -95 98 -147q58 15 92 59.5t34 107.5q0 50 -30 80t-80 30q-55 0 -84.5 -33.5t-29.5 -96.5z" />
    <glyph glyph-name="uni018E" unicode="&#x18e;" horiz-adv-x="560" 
d="M59 125h260v184h-242v124h242v157h-260v124h411v-714h-411v125z" />
    <glyph glyph-name="uni018F" unicode="&#x18f;" horiz-adv-x="672" 
d="M123.5 88.5q-65.5 89.5 -65.5 228.5q0 12 20.5 35.5t30.5 23.5h355q-8 120 -46 167.5t-109 47.5q-42 0 -75.5 -10.5t-72.5 -28.5q-27 -12 -33 -12q-10 0 -22.5 14.5t-21 33t-8.5 28.5q0 29 42 50t98.5 31.5t99.5 10.5q152 0 226.5 -99.5t74.5 -276.5q0 -172 -78 -252.5
t-215 -80.5q-135 0 -200.5 89.5zM415.5 152.5q36.5 36.5 48.5 124.5h-262q0 -74 30.5 -117.5t91.5 -43.5q55 0 91.5 36.5z" />
    <glyph glyph-name="uni0190" unicode="&#x190;" horiz-adv-x="647" 
d="M65 537q0 85 73 136t193 51q75 0 139 -17.5t132 -60.5l-66 -101q-94 58 -194 58q-65 0 -97.5 -21.5t-32.5 -58.5q0 -48 51.5 -70.5t165.5 -22.5h60v-118h-67q-112 0 -170.5 -23.5t-58.5 -74.5q0 -105 180 -105q52 0 114 12t109 35v-127q-95 -39 -256 -39
q-142 0 -219.5 56.5t-77.5 155.5q0 73 53 117.5t149 53.5v3q-180 27 -180 161z" />
    <glyph glyph-name="uni0191" unicode="&#x191;" horiz-adv-x="548" 
d="M239 -64q0 -87 -45 -131.5t-132 -44.5q-43 0 -80 15v114q25 -10 55 -10q23 0 38 15t15 45v775h409v-124h-260v-184h242v-124h-242v-346z" />
    <glyph glyph-name="florin" unicode="&#x192;" horiz-adv-x="370" 
d="M26.5 -199.5q-11.5 7.5 -11.5 24.5q0 10 47 337l34 244h-18q-13 0 -19 7.5t-6 23.5q0 24 8 55t34 31h18l10 75q11 82 54.5 122t114.5 40q39 0 66 -9.5t27 -39.5q0 -9 -6.5 -26.5t-16 -31.5t-18.5 -14q-6 0 -15.5 2t-14.5 2q-19 0 -29 -10t-13 -33l-11 -77h50q24 0 24 -31
q0 -23 -7.5 -54.5t-33.5 -31.5h-50l-81 -581q-5 -32 -64 -32h-28q-33 0 -44.5 7.5z" />
    <glyph glyph-name="uni0193" unicode="&#x193;" horiz-adv-x="724" 
d="M361 401h283v-370q-69 -22 -129.5 -31.5t-124.5 -9.5q-162 0 -247 95t-85 273q0 173 99 269.5t274 96.5q50 0 93 -9q1 80 41 122t113 42q22 0 41.5 -5t28.5 -10v-114q-28 10 -55 10q-49 0 -49 -56v-33l-51 -112q-78 39 -163 39q-98 0 -157 -66t-59 -177
q0 -116 47.5 -177.5t138.5 -61.5q47 0 96 10v149h-135v126z" />
    <glyph glyph-name="uni0194" unicode="&#x194;" horiz-adv-x="649" 
d="M494 714h156l-257 -591q69 -138 69 -220q0 -65 -39 -104t-104 -39t-103 38t-38 106q0 50 18.5 103.5t47.5 117.5l-244 589h156l121 -311q10 -23 23 -68t19 -71q9 37 23.5 77.5t23.5 60.5zM354 -97q0 22 -9 56.5t-25 65.5q-18 -34 -26 -66t-8 -54q0 -56 34 -56t34 54z" />
    <glyph glyph-name="uni0195" unicode="&#x195;" horiz-adv-x="986" 
d="M572 238q0 -66 23 -97t72 -31t72.5 33t23.5 109v294h149v-307q0 -249 -245 -249q-129 0 -186.5 54.5t-57.5 171.5v103q0 118 -84 118q-58 0 -85 -43t-27 -137v-257h-149v760h149v-155q0 -18 -3 -85l-4 -44h8q52 80 155 80q91 0 140 -52.5t49 -152.5v-113z" />
    <glyph glyph-name="uni0196" unicode="&#x196;" horiz-adv-x="402" 
d="M243 714v-524q0 -35 18 -54t47 -19q38 0 85 17v-119q-53 -25 -129 -25q-179 0 -179 187v537h158z" />
    <glyph glyph-name="uni0197" unicode="&#x197;" horiz-adv-x="389" 
d="M27 419h92v169l-87 40v86h325v-86l-87 -40v-169h92v-124h-92v-169l87 -40v-86h-325v86l87 40v169h-92v124z" />
    <glyph glyph-name="uni0198" unicode="&#x198;" horiz-adv-x="664" 
d="M664 0h-172l-187 301l-64 -46v-255h-151v714h151v-329l64 91l81 108q46 62 73.5 88t56.5 39.5t63 13.5q43 0 75 -15v-119q-22 9 -48 9q-42 0 -74 -43l-120 -159z" />
    <glyph glyph-name="uni0199" unicode="&#x199;" horiz-adv-x="620" 
d="M221 297l65 83l153 166h168l-217 -237l230 -309h-172l-157 221l-64 -51v-170h-149v595q0 84 44 128t131 44q41 0 78 -15v-114q-28 10 -55 10q-49 0 -49 -56v-171l-8 -124h2z" />
    <glyph glyph-name="uni019A" unicode="&#x19a;" horiz-adv-x="330" 
d="M239 420h81v-112h-81v-308h-149v308h-80v112h80v340h149v-340z" />
    <glyph glyph-name="uni019B" unicode="&#x19b;" horiz-adv-x="615" 
d="M4 0l231 516l-11 28l-100 -30l-25 82l83 25q-15 12 -32.5 16t-40.5 4q-24 0 -50 -6v123q39 8 81 8q65 0 109 -24t75 -77l93 29l25 -83l-83 -25l135 -372q18 -51 36.5 -75t45.5 -24q16 0 34 5v-115q-11 -6 -39 -10.5t-47 -4.5q-54 0 -88 26.5t-54 84.5
q-56 158 -66.5 190.5t-16.5 57.5h-3q-22 -75 -37 -112l-101 -237h-154z" />
    <glyph glyph-name="uni019C" unicode="&#x19c;" horiz-adv-x="1035" 
d="M439 714h151v-477q0 -120 87 -120q60 0 88 42t28 141v414h152v-714h-114l-21 76h-9q-24 -42 -68.5 -64t-99.5 -22q-115 0 -167 90h-7q-55 -90 -171 -90q-99 0 -151 52t-52 152v520h151v-477q0 -120 87 -120q61 0 88.5 41t27.5 125v431z" />
    <glyph glyph-name="uni019D" unicode="&#x19d;" horiz-adv-x="719" 
d="M-52.5 -202.5q-39.5 9.5 -39.5 36.5q0 23 10.5 57t30.5 36q4 0 19.5 -4t36.5 -4q34 0 49 24.5t15 79.5v647q0 32 60 32h43q24 0 40 -5.5t26 -21.5l225 -347q20 -29 36 -59l4 1q-2 23 -2 68v332q0 32 60 32h29q60 0 60 -32v-640q0 -32 -60 -32h-38q-24 0 -40 5.5t-26 21.5
l-230 352q-20 29 -36 59l-4 -1q2 -23 2 -68v-369q0 -99 -50.5 -154.5t-155.5 -55.5q-25 0 -64.5 9.5z" />
    <glyph glyph-name="uni019E" unicode="&#x19e;" horiz-adv-x="657" 
d="M582 -240h-149v559q0 59 -21 88.5t-67 29.5q-62 0 -90 -41.5t-28 -138.5v-257h-149v546h114l20 -70h8q25 40 69 60t99 20q95 0 144.5 -51.5t49.5 -148.5v-596z" />
    <glyph glyph-name="uni019F" unicode="&#x19f;" horiz-adv-x="795" 
d="M738 358q0 -177 -88 -272.5t-252 -95.5t-252 95.5t-88 273.5t88 272t253 94t252 -94.5t87 -272.5zM398 117q80 0 126 47t55 139h-363q10 -88 54.5 -137t127.5 -49zM399 599q-154 0 -181 -170h359q-12 83 -56.5 126.5t-121.5 43.5z" />
    <glyph glyph-name="Ohorn" unicode="&#x1a0;" horiz-adv-x="731" 
d="M658.5 521q27.5 -73 27.5 -171q0 -173 -82.5 -265.5t-237.5 -92.5t-238 92.5t-83 265.5t83 265.5t238 92.5q58 0 108 -14q44 -12 63 -12q42 0 42 36q0 13 -16 33q-1 1 -5.5 7.5t-4.5 11.5q0 12 11 19l32 22q6 5 16 5q22 0 39.5 -29t17.5 -54q0 -77 -90 -94
q52 -45 79.5 -118zM487 181q41 58 41 169t-41 168.5t-121 57.5t-121.5 -57.5t-41.5 -168.5t41.5 -169t121.5 -58t121 58z" />
    <glyph glyph-name="ohorn" unicode="&#x1a1;" horiz-adv-x="569" 
d="M104 61.5q-62 69.5 -62 200.5t62 200t181 69q50 0 94 -14q42 -12 66 -12q47 0 47 36q0 13 -16 33q-1 1 -5.5 7.5t-4.5 11.5q0 12 11 19l32 22q6 5 16 5q18 0 32.5 -29t14.5 -54q0 -40 -26.5 -64.5t-80.5 -28.5q62 -70 62 -201t-61.5 -200.5t-180.5 -69.5t-181 69.5z
M354.5 147.5q22.5 38.5 22.5 114.5t-22.5 114t-69.5 38t-70 -38t-23 -114q0 -153 93 -153q47 0 69.5 38.5z" />
    <glyph glyph-name="uni01A2" unicode="&#x1a2;" horiz-adv-x="1130" 
d="M718 358q0 -178 -85 -273t-245 -95q-161 0 -245.5 95t-84.5 274q0 177 85.5 271.5t245.5 94.5q154 0 239 -90q82 90 205 90q102 0 157.5 -60.5t55.5 -174.5v-490h-151v478q0 60 -26.5 90.5t-76.5 30.5q-36 0 -62.5 -10t-48.5 -34q37 -82 37 -197zM217 358
q0 -121 43.5 -181t127.5 -60q171 0 171 241t-170 241q-172 0 -172 -241z" />
    <glyph glyph-name="uni01A3" unicode="&#x1a3;" horiz-adv-x="929" 
d="M554 274q0 -134 -68 -209t-188 -75q-117 0 -185 75.5t-68 208.5q0 134 67.5 208t188.5 74q118 0 186 -78q62 78 173 78q95 0 144.5 -51.5t49.5 -148.5v-596h-149v559q0 59 -21 88.5t-67 29.5q-56 0 -85 -35q22 -58 22 -128zM197 274q0 -82 24.5 -123t78.5 -41t78 41
t24 123q0 81 -24.5 121.5t-78.5 40.5q-53 0 -77.5 -40t-24.5 -122z" />
    <glyph glyph-name="uni01A4" unicode="&#x1a4;" horiz-adv-x="750" 
d="M705 491q0 -115 -72 -176t-205 -61h-65v-254h-151v590h-26q-32 0 -46.5 -16.5t-14.5 -39.5q0 -22 10 -48h-118q-12 26 -12 58q0 82 47.5 126t137.5 44h250q130 0 197.5 -56t67.5 -167zM363 378h50q69 0 104 27.5t35 80.5t-29 78.5t-91 25.5h-69v-212z" />
    <glyph glyph-name="uni01A5" unicode="&#x1a5;" horiz-adv-x="632" 
d="M227 583q0 -44 -6 -108h6q24 40 64 60.5t91 20.5q97 0 151.5 -75.5t54.5 -206.5q0 -133 -54.5 -208.5t-151.5 -75.5q-104 0 -155 67h-7l4 -30l3 -46v-221h-149v833q0 83 44 127.5t131 44.5q41 0 78 -15v-114q-28 10 -55 10q-23 0 -35 -13t-14 -43v-7zM334 437
q-55 0 -80.5 -34t-26.5 -112v-16q0 -88 26 -126t83 -38q100 0 100 165q0 81 -24.5 121t-77.5 40z" />
    <glyph glyph-name="uni01A6" unicode="&#x1a6;" horiz-adv-x="660" 
d="M241 174v-174h-151v714h151v-100h57q146 0 215.5 -53t69.5 -161q0 -62 -33.5 -110.5t-99.5 -78.5l210 -311h-168l-170 274h-81zM241 297h49q72 0 106 24t34 75t-35 72.5t-108 21.5h-46v-193z" />
    <glyph glyph-name="uni01A7" unicode="&#x1a7;" horiz-adv-x="550" 
d="M42 193q0 74 40.5 126t133.5 92q67 28 94 44.5t38.5 33.5t11.5 41q0 33 -23.5 50.5t-67.5 17.5q-41 0 -81.5 -11t-89.5 -31l-45 118q111 50 228 50q106 0 166.5 -51.5t60.5 -145.5q0 -75 -40 -125.5t-139 -91.5q-61 -25 -87 -41.5t-39 -34.5t-13 -41q0 -37 26 -57.5
t78 -20.5q100 0 210 46v-126q-92 -45 -219 -45q-117 0 -180 51.5t-63 151.5z" />
    <glyph glyph-name="uni01A8" unicode="&#x1a8;" horiz-adv-x="497" 
d="M38 152q0 62 34.5 103.5t118.5 73.5q76 29 97 43t21 33q0 20 -19 30.5t-52 10.5q-37 0 -72.5 -11.5t-75.5 -28.5l-40 107q94 43 203 43q96 0 150 -39t54 -110q0 -62 -33 -100.5t-120 -72.5q-47 -19 -72 -32t-36 -24t-11 -29q0 -50 88 -50q91 0 174 43v-113
q-79 -39 -186 -39q-111 0 -167 41.5t-56 120.5z" />
    <glyph glyph-name="uni01A9" unicode="&#x1a9;" horiz-adv-x="592" 
d="M38 0v119l230 255l-224 224v116h486v-124h-214q-25 0 -111 5l222 -220l-233 -256q117 6 139 6h226v-125h-521z" />
    <glyph glyph-name="uni01AA" unicode="&#x1aa;" horiz-adv-x="367" 
d="M290 -240q-92 0 -136 45t-44 136v589h-27q-68 0 -105 32t-37 91q0 53 40 85t107 32q171 0 171 -179v-650q0 -32 18 -47t47 -15q39 0 94 17v-111q-53 -25 -128 -25zM67 688q-17 0 -26.5 -10.5t-9.5 -25.5q0 -19 14 -32t41 -13h24v31q0 25 -11.5 37.5t-31.5 12.5z" />
    <glyph glyph-name="uni01AB" unicode="&#x1ab;" horiz-adv-x="434" 
d="M260 -240q-42 0 -80 13v104q23 -9 48 -9q27 0 38.5 14t11.5 44v64h-13q-89 0 -130 45.5t-41 135.5v263h-71v63l82 50l43 115h95v-116h153v-112h-153v-263q0 -32 18 -47t47 -15q39 0 94 17v-200q0 -86 -36 -126t-106 -40z" />
    <glyph glyph-name="uni01AC" unicode="&#x1ac;" horiz-adv-x="618" 
d="M404 0h-151v588h-67q-32 0 -46.5 -16.5t-14.5 -39.5q0 -21 10 -46h-118q-12 26 -12 58q0 82 47.5 126t137.5 44h408v-126h-194v-588z" />
    <glyph glyph-name="uni01AD" unicode="&#x1ad;" horiz-adv-x="434" 
d="M308 109q39 0 94 17v-111q-56 -25 -137 -25q-89 0 -130 45.5t-41 135.5v263h-71v63l71 43v53q0 84 47 128t142 44q49 0 92 -16v-114q-37 11 -75 11q-30 0 -43.5 -14t-13.5 -42v-44h153v-112h-153v-263q0 -32 18 -47t47 -15z" />
    <glyph glyph-name="uni01AE" unicode="&#x1ae;" horiz-adv-x="579" 
d="M365 -61q0 -31 15 -45.5t38 -14.5q30 0 55 10v-114q-12 -5 -35 -10t-49 -5q-175 0 -175 176v652h-194v126h539v-126h-194v-649z" />
    <glyph glyph-name="Uhorn" unicode="&#x1af;" horiz-adv-x="712" 
d="M723 688.5q-25 -24.5 -77 -31.5v-423q0 -115 -76 -178.5t-214 -63.5t-214 63.5t-76 178.5v436q0 32 60 32h34q60 0 60 -32v-426q0 -53 38 -87t98 -34t98.5 34t38.5 87v426q0 32 60 32h58q47 0 47 36q0 13 -16 33q-1 1 -5.5 7.5t-4.5 11.5q0 12 11 19l32 22q6 5 16 5
q22 0 39.5 -29t17.5 -54q0 -40 -25 -64.5z" />
    <glyph glyph-name="uhorn" unicode="&#x1b0;" horiz-adv-x="557" 
d="M568 514.5q-24 -23.5 -73 -30.5v-308q0 -46 2.5 -70t6.5 -53q3 -13 3 -22q0 -16 -40.5 -24t-71.5 -8q-18 0 -25 14.5t-10.5 31.5t-4.5 23q-24 -32 -63.5 -54t-85.5 -22q-75 0 -111 39.5t-36 122.5v339q0 32 60 32h28q60 0 60 -32v-317q0 -31 14 -46.5t46 -15.5
q27 0 47.5 17.5t32.5 40.5v321q0 32 60 32h58q47 0 47 36q0 13 -16 33q-1 1 -5.5 7.5t-4.5 11.5q0 12 11 19l32 22q6 5 16 5q18 0 32.5 -29t14.5 -54q0 -38 -24 -61.5z" />
    <glyph glyph-name="uni01B1" unicode="&#x1b1;" horiz-adv-x="786" 
d="M393 116q88 0 136 53t48 151t-31.5 159.5t-98.5 98.5v136h312v-127h-181q73 -45 114 -123.5t41 -175.5q0 -89 -41.5 -157t-119 -104.5t-179.5 -36.5q-103 0 -180 36.5t-118.5 104.5t-41.5 158q0 97 40.5 174.5t116.5 123.5h-183v127h314v-136q-66 -35 -99 -98t-33 -161
q0 -97 47.5 -150t136.5 -53z" />
    <glyph glyph-name="uni01B2" unicode="&#x1b2;" horiz-adv-x="649" 
d="M410 0h-155l-255 714h153l144 -425q7 -19 20.5 -74t17.5 -83q3 25 18.5 79.5t23.5 72.5l70 168q21 49 26 68t5 33q0 23 -13 34.5t-32 11.5q-26 0 -43 -9v117q35 17 83 17q71 0 109.5 -38.5t38.5 -105.5q0 -58 -37 -156z" />
    <glyph glyph-name="uni01B3" unicode="&#x1b3;" horiz-adv-x="624" 
d="M78 724q50 0 84.5 -26t65.5 -93l86 -183l147 292h163l-237 -436v-278h-150v272l-110 231q-20 42 -32.5 61t-24.5 27t-33 8q-20 0 -37 -9v117q37 17 78 17z" />
    <glyph glyph-name="uni01B4" unicode="&#x1b4;" horiz-adv-x="615" 
d="M172 546l86 -254q22 -63 32 -125h3q18 73 34 119l54 148q24 65 60.5 93.5t88.5 28.5q21 0 44 -4.5t36 -10.5v-115q-19 5 -34 5q-26 0 -44.5 -22.5t-37.5 -76.5l-144 -397q-64 -175 -234 -175q-34 0 -72 8v118q6 -1 23.5 -3.5t33.5 -2.5q83 0 116 95l10 29l-217 542h162z
" />
    <glyph glyph-name="uni01B5" unicode="&#x1b5;" horiz-adv-x="579" 
d="M62 415h183l121 174h-333v125h513v-98l-140 -201h93v-124h-180l-115 -166h351v-125h-531v98l135 193h-97v124z" />
    <glyph glyph-name="uni01B6" unicode="&#x1b6;" horiz-adv-x="487" 
d="M458 0h-431v88l105 142h-79v97h150l77 105h-238v114h407v-97l-90 -122h76v-97h-147l-85 -116h255v-114z" />
    <glyph glyph-name="uni01B7" unicode="&#x1b7;" horiz-adv-x="590" 
d="M138 419l176 170h-262v125h468v-97l-211 -201q118 -5 180.5 -58.5t62.5 -149.5q0 -102 -79.5 -160t-224.5 -58q-126 0 -220 39v128q45 -21 102.5 -34t108.5 -13q82 0 122 25.5t40 81.5q0 50 -51 73t-152 23h-60v106z" />
    <glyph glyph-name="uni01B8" unicode="&#x1b8;" horiz-adv-x="590" 
d="M453 313h-60q-102 0 -152.5 -23.5t-50.5 -74.5q0 -53 40.5 -79t121.5 -26q53 0 110 13t101 34v-128q-94 -39 -225 -39q-141 0 -220 56t-79 157q0 96 61.5 150t181.5 63l-211 201v97h468v-125h-263l177 -170v-106z" />
    <glyph glyph-name="uni01B9" unicode="&#x1b9;" horiz-adv-x="581" 
d="M443 139h-58q-97 0 -146 -31.5t-49 -98.5q0 -62 39.5 -95.5t113.5 -33.5q49 0 102.5 12.5t97.5 34.5v-126q-96 -41 -221 -41q-134 0 -208.5 63.5t-74.5 176.5q0 104 61 167t177 80l-211 202v97h472v-114h-288l193 -187v-106z" />
    <glyph glyph-name="uni01BA" unicode="&#x1ba;" horiz-adv-x="581" 
d="M371 143q0 31 -31.5 43.5t-116.5 12.5h-68v100l150 133h-247v114h443v-96l-177 -144q98 -8 148 -50.5t50 -115.5q0 -88 -65 -131.5t-201 -53.5q-43 -3 -62 -13t-19 -27q0 -45 100 -45q92 0 203 39v-110q-43 -18 -101.5 -28.5t-120.5 -10.5q-96 0 -152 40.5t-56 115.5
q0 147 193 162q75 5 102.5 19t27.5 46z" />
    <glyph glyph-name="uni01BB" unicode="&#x1bb;" horiz-adv-x="569" 
d="M387 322l-185 -201v-7h324v-114h-499v111l193 211h-176v97h257q26 32 35.5 64.5t9.5 68.5q0 42 -26 68t-68 26q-38 0 -71.5 -16t-76.5 -58l-73 91q46 42 78.5 60.5t71.5 30t87 11.5q103 0 165.5 -57t62.5 -148q0 -77 -39 -141h69v-97h-139z" />
    <glyph glyph-name="uni01BC" unicode="&#x1bc;" horiz-adv-x="578" 
d="M289 456q114 0 182 -60.5t68 -164.5q0 -118 -80 -179.5t-229 -61.5q-58 0 -112 10t-90 29v130q37 -20 92.5 -33t104.5 -13q81 0 121.5 27.5t40.5 80.5q0 109 -147 109h-127v258h-79v126h484v-126h-256v-132h27z" />
    <glyph glyph-name="uni01BD" unicode="&#x1bd;" horiz-adv-x="555" 
d="M283 337q116 0 175 -42.5t59 -122.5q0 -89 -72.5 -135.5t-211.5 -46.5q-58 0 -110.5 9.5t-84.5 24.5v123q35 -18 90 -30t99 -12q145 0 145 65q0 63 -149 63h-95v201h-84v112h454v-112h-230v-97h15z" />
    <glyph glyph-name="uni01BE" unicode="&#x1be;" horiz-adv-x="497" 
d="M271 399q0 -27 9.5 -41t35.5 -29l53 -31q46 -26 68 -60t22 -81q0 -80 -60 -123.5t-173 -43.5q-56 0 -107.5 9.5t-82.5 24.5v123q37 -20 86.5 -34t90.5 -14q54 0 77.5 13.5t23.5 40.5q0 17 -11 29t-35 26q-84 43 -110.5 83t-26.5 103v40h-95v63l97 50l43 115h95v-116h138
v-112h-138v-35z" />
    <glyph glyph-name="uni01BF" unicode="&#x1bf;" horiz-adv-x="632" 
d="M227 -240h-149v786h121l21 -71h7q52 81 155 81q60 0 107.5 -31t73 -88.5t25.5 -132.5q0 -135 -94.5 -219.5t-266.5 -103.5v-221zM334 437q-59 0 -83 -37.5t-24 -111.5v-180q95 12 152 65.5t57 132.5q0 61 -27 96t-75 35z" />
    <glyph glyph-name="uni01C0" unicode="&#x1c0;" horiz-adv-x="516" 
d="M204 760h107v-1000h-107v1000z" />
    <glyph glyph-name="uni01C1" unicode="&#x1c1;" horiz-adv-x="516" 
d="M76 760h107v-1000h-107v1000zM334 760h107v-1000h-107v1000z" />
    <glyph glyph-name="uni01C2" unicode="&#x1c2;" horiz-adv-x="516" 
d="M204 121h-154v97h154v112h-154v97h154v333h107v-333h155v-97h-155v-112h155v-97h-155v-361h-107v361z" />
    <glyph glyph-name="uni01C3" unicode="&#x1c3;" horiz-adv-x="286" 
d="M203 237h-119l-25 477h169zM57 70q0 41 22 62t64 21q41 0 63 -21.5t22 -61.5q0 -39 -22.5 -61t-62.5 -22q-41 0 -63.5 21.5t-22.5 61.5z" />
    <glyph glyph-name="uni01C4" unicode="&#x1c4;" horiz-adv-x="1311" 
d="M949.5 755q-14.5 6 -28.5 23l-48 64q-9 12 -9 19q0 8 10 11t35 3q22 0 36 -3.5t27 -13.5l39 -32l39 32q13 10 27 13.5t36 3.5q25 0 35 -3t10 -11q0 -7 -9 -19l-48 -64q-14 -17 -28.5 -23t-47.5 -6h-28q-33 0 -47.5 6zM85.5 9.5q-9.5 9.5 -9.5 30.5v620q0 21 9.5 30.5
t30.5 9.5h214q155 0 237.5 -90.5t82.5 -259.5t-82.5 -259.5t-237.5 -90.5h-214q-21 0 -30.5 9.5zM330 131q80 0 121 56t41 163t-41 163t-121 56h-99v-438h99zM735.5 33.5q-13.5 33.5 -13.5 55.5q0 6 2 10l335 470h-278q-16 0 -23 12t-7 38v31q0 26 7 38t23 12h457
q11 0 24 -35t13 -57q0 -8 -5 -14l-330 -463h305q16 0 23 -12t7 -38v-31q0 -26 -7 -38t-23 -12h-484q-12 0 -25.5 33.5z" />
    <glyph glyph-name="uni01C5" unicode="&#x1c5;" horiz-adv-x="1184" 
d="M882 577.5q-14 5.5 -22 20.5l-44 77q-1 2 -7 12.5t-6 15.5q0 8 9.5 11.5t31.5 3.5q24 0 36.5 -6t23.5 -19l36 -39l36 39q11 13 23.5 19t36.5 6q22 0 31.5 -3.5t9.5 -11.5q0 -5 -6 -15.5t-7 -12.5l-44 -77q-8 -15 -22 -20.5t-44 -5.5h-28q-30 0 -44 5.5zM85.5 9.5
q-9.5 9.5 -9.5 30.5v620q0 21 9.5 30.5t30.5 9.5h214q155 0 237.5 -90.5t82.5 -259.5t-82.5 -259.5t-237.5 -90.5h-214q-21 0 -30.5 9.5zM330 131q80 0 121 56t41 163t-41 163t-121 56h-99v-438h99zM732 27.5q-10 27.5 -10 48.5q0 10 3 14l229 316h-186q-16 0 -23 12t-7 38
v17q0 26 7 38t23 12h354q8 0 18.5 -28t10.5 -49q0 -10 -3 -15l-228 -314h205q16 0 23 -12t7 -38v-17q0 -26 -7 -38t-23 -12h-374q-9 0 -19 27.5z" />
    <glyph glyph-name="uni01C6" unicode="&#x1c6;" horiz-adv-x="1054" 
d="M752 577.5q-14 5.5 -22 20.5l-44 77q-1 2 -7 12.5t-6 15.5q0 8 9.5 11.5t31.5 3.5q24 0 36.5 -6t23.5 -19l36 -39l36 39q11 13 23.5 19t36.5 6q22 0 31.5 -3.5t9.5 -11.5q0 -5 -6 -15.5t-7 -12.5l-44 -77q-8 -15 -22 -20.5t-44 -5.5h-28q-30 0 -44 5.5zM132.5 23.5
q-42.5 31.5 -66.5 92.5t-24 146q0 124 55.5 196.5t155.5 72.5q59 0 102 -31v222q0 32 60 32h28q60 0 60 -32v-546q0 -46 2.5 -70t6.5 -53q3 -13 3 -22q0 -16 -40.5 -24t-71.5 -8q-18 0 -25 14.5t-10.5 31t-4.5 22.5q-18 -33 -53.5 -54t-80.5 -21q-54 0 -96.5 31.5zM355 172
v223q-34 19 -70 19q-93 0 -93 -152q0 -149 81 -149q48 0 82 59zM602 27.5q-10 27.5 -10 48.5q0 10 3 14l229 316h-186q-16 0 -23 12t-7 38v17q0 26 7 38t23 12h354q8 0 18.5 -28t10.5 -49q0 -10 -3 -15l-228 -314h205q16 0 23 -12t7 -38v-17q0 -26 -7 -38t-23 -12h-374
q-9 0 -19 27.5z" />
    <glyph glyph-name="uni01C7" unicode="&#x1c7;" horiz-adv-x="725" 
d="M373 -172q-42 9 -42 37q0 23 10.5 57t30.5 36q4 0 19.5 -4t36.5 -4q45 0 64.5 24.5t19.5 79.5v616q0 33 60 33h35q60 0 60 -33v-628q0 -101 -52.5 -162t-159.5 -61q-40 0 -82 9zM85.5 9.5q-9.5 9.5 -9.5 30.5v630q0 32 60 32h34q60 0 60 -32v-539h153q16 0 23 -12t7 -38
v-31q0 -26 -7 -38t-23 -12h-267q-21 0 -30.5 9.5z" />
    <glyph glyph-name="uni01C8" unicode="&#x1c8;" horiz-adv-x="760" 
d="M85.5 9.5q-9.5 9.5 -9.5 30.5v630q0 32 60 32h34q60 0 60 -32v-539h216q16 0 23 -12t7 -38v-31q0 -26 -7 -38t-23 -12h-330q-21 0 -30.5 9.5zM554 606v78q0 32 74 32t74 -32v-78q0 -32 -74 -32t-74 32zM474.5 -200.5q-22.5 11.5 -22.5 40.5q0 20 11 44.5t25 24.5
q5 0 14.5 -2t15.5 -2q19 0 27.5 10t8.5 33v545q0 32 60 32h28q60 0 60 -32v-543q0 -79 -40.5 -120.5t-105.5 -41.5q-59 0 -81.5 11.5z" />
    <glyph glyph-name="uni01C9" unicode="&#x1c9;" horiz-adv-x="573" 
d="M63 154v568q0 32 60 32h28q60 0 60 -32v-570q0 -23 8.5 -33t27.5 -10q5 0 13.5 2t13.5 2q9 0 16 -15t11 -33t4 -24q0 -49 -96 -49q-146 0 -146 162zM367 606v78q0 32 74 32t74 -32v-78q0 -32 -74 -32t-74 32zM287.5 -200.5q-22.5 11.5 -22.5 40.5q0 20 11 44.5t25 24.5
q5 0 14.5 -2t15.5 -2q19 0 27.5 10t8.5 33v545q0 32 60 32h28q60 0 60 -32v-543q0 -79 -40.5 -120.5t-105.5 -41.5q-59 0 -81.5 11.5z" />
    <glyph glyph-name="uni01CA" unicode="&#x1ca;" horiz-adv-x="1121" 
d="M69 30v640q0 32 60 32h43q24 0 40 -5.5t26 -21.5l225 -347q20 -29 36 -59l4 1q-2 23 -2 68v332q0 32 60 32h29q60 0 60 -32v-640q0 -32 -60 -32h-38q-24 0 -40 5.5t-26 21.5l-230 352q-20 29 -36 59l-4 -1q2 -23 2 -68v-337q0 -32 -60 -32h-29q-60 0 -60 32zM761 1
q-42 9 -42 37q0 23 10.5 57t30.5 36q4 0 19.5 -4t36.5 -4q45 0 64.5 24.5t19.5 79.5v443q0 33 60 33h35q60 0 60 -33v-468q0 -99 -52 -154.5t-160 -55.5q-40 0 -82 9z" />
    <glyph glyph-name="uni01CB" unicode="&#x1cb;" horiz-adv-x="995" 
d="M69 30v640q0 32 60 32h43q24 0 40 -5.5t26 -21.5l225 -347q20 -29 36 -59l4 1q-2 23 -2 68v332q0 32 60 32h29q60 0 60 -32v-640q0 -32 -60 -32h-38q-24 0 -40 5.5t-26 21.5l-230 352q-20 29 -36 59l-4 -1q2 -23 2 -68v-337q0 -32 -60 -32h-29q-60 0 -60 32zM789 606v78
q0 32 74 32t74 -32v-78q0 -32 -74 -32t-74 32zM709.5 -200.5q-22.5 11.5 -22.5 40.5q0 20 11 44.5t25 24.5q5 0 14.5 -2t15.5 -2q19 0 27.5 10t8.5 33v545q0 32 60 32h28q60 0 60 -32v-543q0 -79 -40.5 -120.5t-105.5 -41.5q-59 0 -81.5 11.5z" />
    <glyph glyph-name="uni01CC" unicode="&#x1cc;" horiz-adv-x="833" 
d="M62 30v317q0 44 -2.5 67.5t-6.5 52.5q-3 14 -3 21q0 16 40.5 24t71.5 8q18 0 25 -13.5t10.5 -29.5t4.5 -22q24 32 64 54t85 22q75 0 111 -39.5t36 -122.5v-339q0 -32 -60 -32h-28q-60 0 -60 32v317q0 31 -14 46.5t-46 15.5q-27 0 -47.5 -17.5t-32.5 -40.5v-321
q0 -32 -60 -32h-28q-60 0 -60 32zM627 606v78q0 32 74 32t74 -32v-78q0 -32 -74 -32t-74 32zM547.5 -200.5q-22.5 11.5 -22.5 40.5q0 20 11 44.5t25 24.5q5 0 14.5 -2t15.5 -2q19 0 27.5 10t8.5 33v545q0 32 60 32h28q60 0 60 -32v-543q0 -79 -40.5 -120.5t-105.5 -41.5
q-59 0 -81.5 11.5z" />
    <glyph glyph-name="uni01CD" unicode="&#x1cd;" horiz-adv-x="613" 
d="M245.5 755q-14.5 6 -28.5 23l-48 64q-9 12 -9 19q0 8 10 11t35 3q22 0 36 -3.5t27 -13.5l39 -32l39 32q13 10 27 13.5t36 3.5q25 0 35 -3t10 -11q0 -7 -9 -19l-48 -64q-14 -17 -28.5 -23t-47.5 -6h-28q-33 0 -47.5 6zM0 20q0 4 4 18l220 643q8 21 57 21h52q50 0 57 -21
l220 -643q3 -10 3 -18q0 -22 -50 -22h-44q-49 0 -56 21l-40 122h-236l-40 -122q-7 -21 -46 -21h-40q-61 0 -61 22zM380 273l-57 178q-7 20 -15 64h-4q-1 -6 -4.5 -26.5t-10.5 -37.5l-59 -178h150z" />
    <glyph glyph-name="uni01CE" unicode="&#x1ce;" horiz-adv-x="545" 
d="M215 577.5q-14 5.5 -22 20.5l-44 77q-1 2 -7 12.5t-6 15.5q0 8 9.5 11.5t31.5 3.5q24 0 36.5 -6t23.5 -19l36 -39l36 39q11 13 23.5 19t36.5 6q22 0 31.5 -3.5t9.5 -11.5q0 -5 -6 -15.5t-7 -12.5l-44 -77q-8 -15 -22 -20.5t-44 -5.5h-28q-30 0 -44 5.5zM77.5 32
q-35.5 40 -35.5 106q0 80 58.5 133t228.5 53v33q0 29 -18.5 43t-59.5 14q-34 0 -59.5 -7t-45.5 -16t-23 -9q-10 0 -22 15t-21 34.5t-9 30.5q0 17 25 33t69 26t97 10q113 0 164 -44.5t51 -122.5v-188q0 -46 2.5 -70t6.5 -53q3 -13 3 -22q0 -16 -40.5 -24t-71.5 -8
q-18 0 -25 14.5t-10.5 31.5t-4.5 23q-6 -11 -24 -28.5t-50 -32.5t-73 -15q-77 0 -112.5 40zM292 127q25 18 37 45v55q-140 0 -140 -74q0 -20 13 -32t37 -12q28 0 53 18z" />
    <glyph glyph-name="uni01CF" unicode="&#x1cf;" horiz-adv-x="283" 
d="M80.5 755q-14.5 6 -28.5 23l-48 64q-9 12 -9 19q0 8 10 11t35 3q22 0 36 -3.5t27 -13.5l39 -32l39 32q13 10 27 13.5t36 3.5q25 0 35 -3t10 -11q0 -7 -9 -19l-48 -64q-14 -17 -28.5 -23t-47.5 -6h-28q-33 0 -47.5 6zM64 30v640q0 33 60 33h35q60 0 60 -33v-640
q0 -33 -60 -33h-35q-60 0 -60 33z" />
    <glyph glyph-name="uni01D0" unicode="&#x1d0;" horiz-adv-x="265" 
d="M75 577.5q-14 5.5 -22 20.5l-44 77q-1 2 -7 12.5t-6 15.5q0 8 9.5 11.5t31.5 3.5q24 0 36.5 -6t23.5 -19l36 -39l36 39q11 13 23.5 19t36.5 6q22 0 31.5 -3.5t9.5 -11.5q0 -5 -6 -15.5t-7 -12.5l-44 -77q-8 -15 -22 -20.5t-44 -5.5h-28q-30 0 -44 5.5zM59 30v463
q0 32 60 32h28q60 0 60 -32v-463q0 -32 -60 -32h-28q-60 0 -60 32z" />
    <glyph glyph-name="uni01D1" unicode="&#x1d1;" horiz-adv-x="731" 
d="M304.5 755q-14.5 6 -28.5 23l-48 64q-9 12 -9 19q0 8 10 11t35 3q22 0 36 -3.5t27 -13.5l39 -32l39 32q13 10 27 13.5t36 3.5q25 0 35 -3t10 -11q0 -7 -9 -19l-48 -64q-14 -17 -28.5 -23t-47.5 -6h-28q-33 0 -47.5 6zM128 84.5q-83 92.5 -83 265.5t83 265.5t238 92.5
t237.5 -92.5t82.5 -265.5t-82.5 -265.5t-237.5 -92.5t-238 92.5zM487 181q41 58 41 169t-41 168.5t-121 57.5t-121.5 -57.5t-41.5 -168.5t41.5 -169t121.5 -58t121 58z" />
    <glyph glyph-name="uni01D2" unicode="&#x1d2;" horiz-adv-x="569" 
d="M227 577.5q-14 5.5 -22 20.5l-44 77q-1 2 -7 12.5t-6 15.5q0 8 9.5 11.5t31.5 3.5q24 0 36.5 -6t23.5 -19l36 -39l36 39q11 13 23.5 19t36.5 6q22 0 31.5 -3.5t9.5 -11.5q0 -5 -6 -15.5t-7 -12.5l-44 -77q-8 -15 -22 -20.5t-44 -5.5h-28q-30 0 -44 5.5zM104 61.5
q-62 69.5 -62 200.5t62 200t181 69t180.5 -69t61.5 -200t-61.5 -200.5t-180.5 -69.5t-181 69.5zM354.5 147.5q22.5 38.5 22.5 114.5t-22.5 114t-69.5 38t-70 -38t-23 -114q0 -153 93 -153q47 0 69.5 38.5z" />
    <glyph glyph-name="uni01D3" unicode="&#x1d3;" horiz-adv-x="712" 
d="M294.5 755q-14.5 6 -28.5 23l-48 64q-9 12 -9 19q0 8 10 11t35 3q22 0 36 -3.5t27 -13.5l39 -32l39 32q13 10 27 13.5t36 3.5q25 0 35 -3t10 -11q0 -7 -9 -19l-48 -64q-14 -17 -28.5 -23t-47.5 -6h-28q-33 0 -47.5 6zM142 55.5q-76 63.5 -76 178.5v436q0 32 60 32h34
q60 0 60 -32v-426q0 -53 38 -87t98 -34t98.5 34t38.5 87v426q0 32 60 32h33q60 0 60 -32v-436q0 -115 -76 -178.5t-214 -63.5t-214 63.5z" />
    <glyph glyph-name="uni01D4" unicode="&#x1d4;" horiz-adv-x="557" 
d="M221 577.5q-14 5.5 -22 20.5l-44 77q-1 2 -7 12.5t-6 15.5q0 8 9.5 11.5t31.5 3.5q24 0 36.5 -6t23.5 -19l36 -39l36 39q11 13 23.5 19t36.5 6q22 0 31.5 -3.5t9.5 -11.5q0 -5 -6 -15.5t-7 -12.5l-44 -77q-8 -15 -22 -20.5t-44 -5.5h-28q-30 0 -44 5.5zM95 31.5
q-36 39.5 -36 122.5v339q0 32 60 32h28q60 0 60 -32v-317q0 -31 14 -46.5t46 -15.5q27 0 47.5 17.5t32.5 40.5v321q0 32 60 32h28q60 0 60 -32v-317q0 -46 2.5 -70t6.5 -53q3 -13 3 -22q0 -16 -40.5 -24t-71.5 -8q-18 0 -25 14.5t-10.5 31.5t-4.5 23q-24 -32 -63.5 -54
t-85.5 -22q-75 0 -111 39.5z" />
    <glyph glyph-name="uni01D5" unicode="&#x1d5;" horiz-adv-x="712" 
d="M197 927.5q-7 9.5 -7 30.5v15q0 21 7 30.5t23 9.5h271q16 0 23 -9.5t7 -30.5v-15q0 -21 -7 -30.5t-23 -9.5h-271q-16 0 -23 9.5zM214 753.5q-15 7.5 -15 24.5v68q0 17 15 24.5t49 7.5t49 -7.5t15 -24.5v-68q0 -17 -15 -24.5t-49 -7.5t-49 7.5zM400 753.5
q-15 7.5 -15 24.5v68q0 17 15 24.5t49 7.5t49 -7.5t15 -24.5v-68q0 -17 -15 -24.5t-49 -7.5t-49 7.5zM142 55.5q-76 63.5 -76 178.5v436q0 32 60 32h34q60 0 60 -32v-426q0 -53 38 -87t98 -34t98.5 34t38.5 87v426q0 32 60 32h33q60 0 60 -32v-436q0 -115 -76 -178.5
t-214 -63.5t-214 63.5z" />
    <glyph glyph-name="uni01D6" unicode="&#x1d6;" horiz-adv-x="557" 
d="M140.5 588.5q-14.5 7.5 -14.5 24.5v64q0 17 14.5 24.5t47.5 7.5t47.5 -7.5t14.5 -24.5v-64q0 -17 -14.5 -24.5t-47.5 -7.5t-47.5 7.5zM322.5 588.5q-14.5 7.5 -14.5 24.5v64q0 17 14.5 24.5t47.5 7.5t47.5 -7.5t14.5 -24.5v-64q0 -17 -14.5 -24.5t-47.5 -7.5t-47.5 7.5z
M133 768.5q-7 9.5 -7 30.5v15q0 21 7 30.5t23 9.5h245q16 0 23 -9.5t7 -30.5v-15q0 -21 -7 -30.5t-23 -9.5h-245q-16 0 -23 9.5zM95 31.5q-36 39.5 -36 122.5v339q0 32 60 32h28q60 0 60 -32v-317q0 -31 14 -46.5t46 -15.5q27 0 47.5 17.5t32.5 40.5v321q0 32 60 32h28
q60 0 60 -32v-317q0 -46 2.5 -70t6.5 -53q3 -13 3 -22q0 -16 -40.5 -24t-71.5 -8q-18 0 -25 14.5t-10.5 31.5t-4.5 23q-24 -32 -63.5 -54t-85.5 -22q-75 0 -111 39.5z" />
    <glyph glyph-name="uni01D7" unicode="&#x1d7;" horiz-adv-x="712" 
d="M264 914q0 9 13 23l54 60q16 17 34 23.5t52 6.5q38 0 54.5 -3.5t16.5 -14.5q0 -13 -30 -33l-86 -56q-16 -11 -30 -15t-40 -4q-38 0 -38 13zM214 753.5q-15 7.5 -15 24.5v68q0 17 15 24.5t49 7.5t49 -7.5t15 -24.5v-68q0 -17 -15 -24.5t-49 -7.5t-49 7.5zM400 753.5
q-15 7.5 -15 24.5v68q0 17 15 24.5t49 7.5t49 -7.5t15 -24.5v-68q0 -17 -15 -24.5t-49 -7.5t-49 7.5zM142 55.5q-76 63.5 -76 178.5v436q0 32 60 32h34q60 0 60 -32v-426q0 -53 38 -87t98 -34t98.5 34t38.5 87v426q0 32 60 32h33q60 0 60 -32v-436q0 -115 -76 -178.5
t-214 -63.5t-214 63.5z" />
    <glyph glyph-name="uni01D8" unicode="&#x1d8;" horiz-adv-x="557" 
d="M140.5 588.5q-14.5 7.5 -14.5 24.5v64q0 17 14.5 24.5t47.5 7.5t47.5 -7.5t14.5 -24.5v-64q0 -17 -14.5 -24.5t-47.5 -7.5t-47.5 7.5zM322.5 588.5q-14.5 7.5 -14.5 24.5v64q0 17 14.5 24.5t47.5 7.5t47.5 -7.5t14.5 -24.5v-64q0 -17 -14.5 -24.5t-47.5 -7.5t-47.5 7.5z
M209.5 738q-8.5 4 -8.5 11q0 5 5 13.5t8 14.5l40 72q10 19 25 25t60 6q30 0 41.5 -3.5t11.5 -13.5q0 -14 -19 -36l-57 -63q-15 -16 -33 -23t-41 -7q-24 0 -32.5 4zM95 31.5q-36 39.5 -36 122.5v339q0 32 60 32h28q60 0 60 -32v-317q0 -31 14 -46.5t46 -15.5q27 0 47.5 17.5
t32.5 40.5v321q0 32 60 32h28q60 0 60 -32v-317q0 -46 2.5 -70t6.5 -53q3 -13 3 -22q0 -16 -40.5 -24t-71.5 -8q-18 0 -25 14.5t-10.5 31.5t-4.5 23q-24 -32 -63.5 -54t-85.5 -22q-75 0 -111 39.5z" />
    <glyph glyph-name="uni01D9" unicode="&#x1d9;" horiz-adv-x="712" 
d="M294.5 907q-14.5 6 -28.5 23l-48 64q-9 12 -9 19q0 8 10 11t35 3q22 0 36 -3.5t27 -13.5l39 -32l39 32q13 10 27 13.5t36 3.5q25 0 35 -3t10 -11q0 -7 -9 -19l-48 -64q-14 -17 -28.5 -23t-47.5 -6h-28q-33 0 -47.5 6zM214 753.5q-15 7.5 -15 24.5v68q0 17 15 24.5t49 7.5
t49 -7.5t15 -24.5v-68q0 -17 -15 -24.5t-49 -7.5t-49 7.5zM400 753.5q-15 7.5 -15 24.5v68q0 17 15 24.5t49 7.5t49 -7.5t15 -24.5v-68q0 -17 -15 -24.5t-49 -7.5t-49 7.5zM142 55.5q-76 63.5 -76 178.5v436q0 32 60 32h34q60 0 60 -32v-426q0 -53 38 -87t98 -34t98.5 34
t38.5 87v426q0 32 60 32h33q60 0 60 -32v-436q0 -115 -76 -178.5t-214 -63.5t-214 63.5z" />
    <glyph glyph-name="uni01DA" unicode="&#x1da;" horiz-adv-x="557" 
d="M221 739.5q-14 5.5 -22 20.5l-44 77q-1 2 -7 12.5t-6 15.5q0 8 9.5 11.5t31.5 3.5q24 0 36.5 -6t23.5 -19l36 -39l36 39q11 13 23.5 19t36.5 6q22 0 31.5 -3.5t9.5 -11.5q0 -5 -6 -15.5t-7 -12.5l-44 -77q-8 -15 -22 -20.5t-44 -5.5h-28q-30 0 -44 5.5zM140.5 588.5
q-14.5 7.5 -14.5 24.5v64q0 17 14.5 24.5t47.5 7.5t47.5 -7.5t14.5 -24.5v-64q0 -17 -14.5 -24.5t-47.5 -7.5t-47.5 7.5zM322.5 588.5q-14.5 7.5 -14.5 24.5v64q0 17 14.5 24.5t47.5 7.5t47.5 -7.5t14.5 -24.5v-64q0 -17 -14.5 -24.5t-47.5 -7.5t-47.5 7.5zM95 31.5
q-36 39.5 -36 122.5v339q0 32 60 32h28q60 0 60 -32v-317q0 -31 14 -46.5t46 -15.5q27 0 47.5 17.5t32.5 40.5v321q0 32 60 32h28q60 0 60 -32v-317q0 -46 2.5 -70t6.5 -53q3 -13 3 -22q0 -16 -40.5 -24t-71.5 -8q-18 0 -25 14.5t-10.5 31.5t-4.5 23q-24 -32 -63.5 -54
t-85.5 -22q-75 0 -111 39.5z" />
    <glyph glyph-name="uni01DB" unicode="&#x1db;" horiz-adv-x="712" 
d="M370 905q-14 4 -31 15l-86 57q-30 19 -30 32q0 11 16.5 14.5t54.5 3.5q34 0 52 -6.5t34 -23.5l54 -60q13 -14 13 -23q0 -13 -38 -13q-25 0 -39 4zM214 753.5q-15 7.5 -15 24.5v68q0 17 15 24.5t49 7.5t49 -7.5t15 -24.5v-68q0 -17 -15 -24.5t-49 -7.5t-49 7.5zM400 753.5
q-15 7.5 -15 24.5v68q0 17 15 24.5t49 7.5t49 -7.5t15 -24.5v-68q0 -17 -15 -24.5t-49 -7.5t-49 7.5zM142 55.5q-76 63.5 -76 178.5v436q0 32 60 32h34q60 0 60 -32v-426q0 -53 38 -87t98 -34t98.5 34t38.5 87v426q0 32 60 32h33q60 0 60 -32v-436q0 -115 -76 -178.5
t-214 -63.5t-214 63.5z" />
    <glyph glyph-name="uni01DC" unicode="&#x1dc;" horiz-adv-x="557" 
d="M140.5 588.5q-14.5 7.5 -14.5 24.5v64q0 17 14.5 24.5t47.5 7.5t47.5 -7.5t14.5 -24.5v-64q0 -17 -14.5 -24.5t-47.5 -7.5t-47.5 7.5zM322.5 588.5q-14.5 7.5 -14.5 24.5v64q0 17 14.5 24.5t47.5 7.5t47.5 -7.5t14.5 -24.5v-64q0 -17 -14.5 -24.5t-47.5 -7.5t-47.5 7.5z
M253 741q-18 7 -33 23l-57 63q-19 21 -19 36q0 10 11.5 13.5t41.5 3.5q45 0 60 -6t25 -25l40 -72q3 -6 8 -14.5t5 -13.5q0 -7 -8.5 -11t-32.5 -4q-23 0 -41 7zM95 31.5q-36 39.5 -36 122.5v339q0 32 60 32h28q60 0 60 -32v-317q0 -31 14 -46.5t46 -15.5q27 0 47.5 17.5
t32.5 40.5v321q0 32 60 32h28q60 0 60 -32v-317q0 -46 2.5 -70t6.5 -53q3 -13 3 -22q0 -16 -40.5 -24t-71.5 -8q-18 0 -25 14.5t-10.5 31.5t-4.5 23q-24 -32 -63.5 -54t-85.5 -22q-75 0 -111 39.5z" />
    <glyph glyph-name="uni01DD" unicode="&#x1dd;" horiz-adv-x="590" 
d="M287 96q43 0 72 27.5t33 87.5h-209q1 -55 28 -85t76 -30zM266 556q133 0 206.5 -73.5t73.5 -205.5q0 -137 -68 -212t-190 -75q-115 0 -180 65.5t-65 182.5v72h352q-2 63 -37.5 99t-98.5 36q-46 0 -90 -9.5t-95 -33.5v115q42 21 88.5 30t103.5 9z" />
    <glyph glyph-name="uni01DE" unicode="&#x1de;" horiz-adv-x="689" 
d="M180 1020h331v-93h-331v93zM183 824q0 31 17 46t46 15q28 0 46 -15t18 -46q0 -29 -18 -44.5t-46 -15.5q-29 0 -46 15.5t-17 44.5zM380 824q0 31 17 46t46 15q28 0 46 -15t18 -46q0 -29 -18 -44.5t-46 -15.5q-29 0 -46 15.5t-17 44.5zM0 20q0 4 4 18l220 643q8 21 57 21
h52q50 0 57 -21l220 -643q3 -10 3 -18q0 -22 -50 -22h-44q-49 0 -56 21l-40 122h-236l-40 -122q-7 -21 -46 -21h-40q-61 0 -61 22zM380 273l-57 178q-7 20 -15 64h-4q-1 -6 -4.5 -26.5t-10.5 -37.5l-59 -178h150z" />
    <glyph glyph-name="uni01DF" unicode="&#x1df;" horiz-adv-x="604" 
d="M143 855h331v-93h-331v93zM146 659q0 31 17 46t46 15q28 0 46 -15t18 -46q0 -29 -18 -44.5t-46 -15.5q-29 0 -46 15.5t-17 44.5zM343 659q0 31 17 46t46 15q28 0 46 -15t18 -46q0 -29 -18 -44.5t-46 -15.5q-29 0 -46 15.5t-17 44.5zM77.5 32q-35.5 40 -35.5 106
q0 80 58.5 133t228.5 53v33q0 29 -18.5 43t-59.5 14q-34 0 -59.5 -7t-45.5 -16t-23 -9q-10 0 -22 15t-21 34.5t-9 30.5q0 17 25 33t69 26t97 10q113 0 164 -44.5t51 -122.5v-188q0 -46 2.5 -70t6.5 -53q3 -13 3 -22q0 -16 -40.5 -24t-71.5 -8q-18 0 -25 14.5t-10.5 31.5
t-4.5 23q-6 -11 -24 -28.5t-50 -32.5t-73 -15q-77 0 -112.5 40zM292 127q25 18 37 45v55q-140 0 -140 -74q0 -20 13 -32t37 -12q28 0 53 18z" />
    <glyph glyph-name="uni01E0" unicode="&#x1e0;" horiz-adv-x="689" 
d="M180 1020h331v-93h-331v93zM282 824q0 31 17 46t46 15q28 0 46 -15t18 -46q0 -29 -18 -44.5t-46 -15.5q-29 0 -46 15.5t-17 44.5zM0 20q0 4 4 18l220 643q8 21 57 21h52q50 0 57 -21l220 -643q3 -10 3 -18q0 -22 -50 -22h-44q-49 0 -56 21l-40 122h-236l-40 -122
q-7 -21 -46 -21h-40q-61 0 -61 22zM380 273l-57 178q-7 20 -15 64h-4q-1 -6 -4.5 -26.5t-10.5 -37.5l-59 -178h150z" />
    <glyph glyph-name="uni01E1" unicode="&#x1e1;" horiz-adv-x="604" 
d="M143 855h331v-93h-331v93zM245 659q0 31 17 46t46 15q28 0 46 -15t18 -46q0 -29 -18 -44.5t-46 -15.5q-29 0 -46 15.5t-17 44.5zM77.5 32q-35.5 40 -35.5 106q0 80 58.5 133t228.5 53v33q0 29 -18.5 43t-59.5 14q-34 0 -59.5 -7t-45.5 -16t-23 -9q-10 0 -22 15t-21 34.5
t-9 30.5q0 17 25 33t69 26t97 10q113 0 164 -44.5t51 -122.5v-188q0 -46 2.5 -70t6.5 -53q3 -13 3 -22q0 -16 -40.5 -24t-71.5 -8q-18 0 -25 14.5t-10.5 31.5t-4.5 23q-6 -11 -24 -28.5t-50 -32.5t-73 -15q-77 0 -112.5 40zM292 127q25 18 37 45v55q-140 0 -140 -74
q0 -20 13 -32t37 -12q28 0 53 18z" />
    <glyph glyph-name="uni01E2" unicode="&#x1e2;" horiz-adv-x="952" 
d="M244 771.5q-7 9.5 -7 30.5v15q0 21 7 30.5t23 9.5h245q16 0 23 -9.5t7 -30.5v-15q0 -21 -7 -30.5t-23 -9.5h-245q-16 0 -23 9.5zM1 20q0 10 4 18l321 635q8 14 18 20.5t26 6.5h464q16 0 23 -12t7 -38v-31q0 -26 -7 -38t-23 -12h-317l28 -145h262q16 0 23 -12t7 -38v-31
q0 -26 -7 -38t-23 -12h-236l31 -162h233q16 0 23 -12t7 -38v-31q0 -26 -7 -38t-23 -12h-331q-16 0 -24 7t-11 23l-21 111h-243l-60 -122q-10 -21 -46 -21h-37q-61 0 -61 22zM424 273l-33 181v83h-4l-28 -82l-89 -182h154z" />
    <glyph glyph-name="uni01E3" unicode="&#x1e3;" horiz-adv-x="916" 
d="M162 606.5q-7 9.5 -7 30.5v15q0 21 7 30.5t23 9.5h245q16 0 23 -9.5t7 -30.5v-15q0 -21 -7 -30.5t-23 -9.5h-245q-16 0 -23 9.5zM86 33q-44 41 -44 105q0 79 58 131.5t226 53.5q4 35 15 64q-21 27 -90 27q-43 0 -101 -24q-24 -8 -27 -8q-10 0 -22 15t-21 34.5t-9 30.5
q0 17 25 33t69 26t97 10q108 0 161 -36q59 36 142 36q112 0 164 -68t52 -180q0 -13 -19.5 -36t-29.5 -23h-255q0 -61 32 -88t81 -27q28 0 51 6.5t48 16.5q16 8 22 8q10 0 22.5 -14.5t21 -33t8.5 -28.5q0 -23 -31 -39.5t-74 -24.5t-75 -8q-127 0 -195 68q-24 -24 -71.5 -46
t-108.5 -22q-78 0 -122 41zM637 323q0 43 -19.5 67t-52.5 24q-76 0 -90 -91h162zM294 121.5q27 12.5 41 34.5q-9 32 -12 69q-134 -1 -134 -72q0 -20 13 -32t37 -12q28 0 55 12.5z" />
    <glyph glyph-name="uni01E4" unicode="&#x1e4;" horiz-adv-x="724" 
d="M361 421h283v-164h65v-97h-65v-129q-69 -22 -129.5 -31.5t-124.5 -9.5q-162 0 -247 95t-85 273q0 173 99 269.5t274 96.5q110 0 212 -44l-50 -121q-78 39 -163 39q-98 0 -157 -66t-59 -177q0 -249 191 -249q48 0 91 10v44h-125v97h125v48h-135v116z" />
    <glyph glyph-name="uni01E5" unicode="&#x1e5;" horiz-adv-x="632" 
d="M543 -91q-44 -149 -261 -149q-120 0 -204 32v114q101 -42 213 -42q35 0 61.5 11t36.5 34h-146v77h163v55l4 67h-4q-53 -81 -155 -81q-99 0 -152.5 68t-53.5 191q0 127 55.5 198.5t154.5 71.5q101 0 158 -80h4l12 70h126v-560h60v-77h-72zM304 139q61 0 86.5 30.5
t25.5 100.5v12q0 81 -27 117t-87 36q-52 0 -78.5 -36t-26.5 -113q0 -76 26 -111.5t81 -35.5z" />
    <glyph glyph-name="Gcaron" unicode="&#x1e6;" horiz-adv-x="672" 
d="M293.5 755q-14.5 6 -28.5 23l-48 64q-9 12 -9 19q0 8 10 11t35 3q22 0 36 -3.5t27 -13.5l39 -32l39 32q13 10 27 13.5t36 3.5q25 0 35 -3t10 -11q0 -7 -9 -19l-48 -64q-14 -17 -28.5 -23t-47.5 -6h-28q-33 0 -47.5 6zM597.5 379.5q9.5 -9.5 9.5 -30.5v-278q0 -45 -75 -62
t-158 -17q-168 0 -248.5 87.5t-80.5 272.5q0 356 334 356q46 0 96 -9t84 -25t34 -36q0 -14 -11 -36.5t-26.5 -40t-27.5 -17.5q-3 0 -25 9t-53.5 16t-73.5 7q-88 0 -130.5 -56t-42.5 -169q0 -228 171 -228q40 0 78 7v127h-88q-16 0 -23 12t-7 38v32q0 26 7 38t23 12h203
q21 0 30.5 -9.5z" />
    <glyph glyph-name="gcaron" unicode="&#x1e7;" horiz-adv-x="546" 
d="M215 577.5q-14 5.5 -22 20.5l-44 77q-1 2 -7 12.5t-6 15.5q0 8 9.5 11.5t31.5 3.5q24 0 36.5 -6t23.5 -19l36 -39l36 39q11 13 23.5 19t36.5 6q22 0 31.5 -3.5t9.5 -11.5q0 -5 -6 -15.5t-7 -12.5l-44 -77q-8 -15 -22 -20.5t-44 -5.5h-28q-30 0 -44 5.5zM24 -74
q0 39 23.5 69t67.5 47l1 4q-21 10 -32 30t-11 45q0 55 60 90q-81 43 -81 142q0 91 59.5 134.5t155.5 43.5q39 0 77 -8h161q16 0 23 -12t7 -38v-17q0 -47 -24 -47q-10 0 -25.5 3t-22.5 6l-2 -4q9 -10 15 -27.5t6 -33.5q0 -86 -56.5 -128t-147.5 -42q-44 0 -57 -7.5t-13 -24.5
q0 -18 23 -25t78 -15q18 -2 56 -8q71 -14 113 -45.5t42 -99.5q0 -51 -32 -89.5t-90.5 -59.5t-135.5 -21q-238 0 -238 138zM321 306.5q21 16.5 21 50.5q0 33 -21 50t-54 17t-54 -17t-21 -50q0 -34 21 -50.5t54 -16.5t54 16.5zM350 -82q26 13 26 36t-33.5 33.5t-120.5 16.5
q-25 -9 -39.5 -23.5t-14.5 -30.5q0 -21 25.5 -33t79.5 -12q51 0 77 13z" />
    <glyph glyph-name="uni01E8" unicode="&#x1e8;" horiz-adv-x="664" 
d="M124 742.5q-14 5.5 -22 20.5l-44 77q-1 2 -7 12.5t-6 15.5q0 8 9.5 11.5t31.5 3.5q24 0 36.5 -6t23.5 -19l36 -39l36 39q11 13 23.5 19t36.5 6q22 0 31.5 -3.5t9.5 -11.5q0 -5 -6 -15.5t-7 -12.5l-44 -77q-8 -15 -22 -20.5t-44 -5.5h-28q-30 0 -44 5.5zM69 30v640
q0 32 60 32h35q60 0 60 -32v-268l4 -1l174 282q11 19 60 19h47q56 0 56 -15q0 -9 -8 -21l-193 -296l219 -336q8 -12 8 -21q0 -15 -56 -15h-58q-50 0 -61 19l-188 304l-4 -1v-290q0 -32 -60 -32h-35q-60 0 -60 32z" />
    <glyph glyph-name="uni01E9" unicode="&#x1e9;" horiz-adv-x="620" 
d="M113 762.5q-14 5.5 -22 20.5l-44 77q-1 2 -7 12.5t-6 15.5q0 8 9.5 11.5t31.5 3.5q24 0 36.5 -6t23.5 -19l36 -39l36 39q11 13 23.5 19t36.5 6q22 0 31.5 -3.5t9.5 -11.5q0 -5 -6 -15.5t-7 -12.5l-44 -77q-8 -15 -22 -20.5t-44 -5.5h-28q-30 0 -44 5.5zM516 13
q0 -15 -57 -15h-42q-49 0 -60 19l-139 230l-4 -1v-216q0 -32 -60 -32h-28q-60 0 -60 32v692q0 32 60 32h28q60 0 60 -32v-396l4 -1l121 181q8 12 22 15.5t39 3.5h37q56 0 56 -15q0 -8 -9 -20l-139 -198l163 -258q8 -12 8 -21z" />
    <glyph glyph-name="uni01EA" unicode="&#x1ea;" horiz-adv-x="731" 
d="M363.5 -43.5q-11.5 -19.5 -11.5 -35.5q0 -13 9 -21t26 -8q15 0 31 4.5t22 4.5q11 0 16.5 -17t5.5 -35q0 -21 -24.5 -33t-63.5 -12q-51 0 -79 24t-28 69q0 26 14.5 51.5t42.5 45.5q-135 13 -207 104t-72 252q0 173 83 265.5t238 92.5t237.5 -92.5t82.5 -265.5
q0 -165 -74.5 -256.5t-215.5 -100.5q-21 -17 -32.5 -36.5zM244.5 181q41.5 -58 121.5 -58t121 58t41 169t-41 168.5t-121 57.5t-121.5 -57.5t-41.5 -168.5t41.5 -169z" />
    <glyph glyph-name="uni01EB" unicode="&#x1eb;" horiz-adv-x="569" 
d="M278.5 -43.5q-11.5 -19.5 -11.5 -35.5q0 -13 9 -21t26 -8q15 0 31 4.5t22 4.5q11 0 16.5 -17t5.5 -35q0 -21 -24.5 -33t-63.5 -12q-51 0 -79 24t-28 69q0 26 15 52t43 46q-97 13 -147.5 81t-50.5 186q0 131 62 200t181 69t180.5 -69t61.5 -200q0 -124 -55 -193t-161 -76
q-21 -17 -32.5 -36.5zM285 109q47 0 69.5 38.5t22.5 114.5t-22.5 114t-69.5 38t-70 -38t-23 -114q0 -153 93 -153z" />
    <glyph glyph-name="uni01EC" unicode="&#x1ec;" horiz-adv-x="795" 
d="M325 -172q-28 24 -28 69q0 34 25.5 67.5t73.5 52.5l55 -7q-32 -18 -50.5 -43t-18.5 -46q0 -13 9 -21t26 -8q15 0 31 4.5t22 4.5q11 0 16.5 -17t5.5 -35q0 -21 -24.5 -33t-63.5 -12q-51 0 -79 24zM102 784.5q-7 9.5 -7 30.5v15q0 21 7 30.5t23 9.5h245q16 0 23 -9.5
t7 -30.5v-15q0 -21 -7 -30.5t-23 -9.5h-245q-16 0 -23 9.5zM128 84.5q-83 92.5 -83 265.5t83 265.5t238 92.5t237.5 -92.5t82.5 -265.5t-82.5 -265.5t-237.5 -92.5t-238 92.5zM487 181q41 58 41 169t-41 168.5t-121 57.5t-121.5 -57.5t-41.5 -168.5t41.5 -169t121.5 -58
t121 58z" />
    <glyph glyph-name="uni01ED" unicode="&#x1ed;" horiz-adv-x="619" 
d="M226 -172q-28 24 -28 69q0 34 25.5 67.5t73.5 52.5l55 -7q-32 -18 -50.5 -43t-18.5 -46q0 -13 9 -21t26 -8q15 0 31 4.5t22 4.5q11 0 16.5 -17t5.5 -35q0 -21 -24.5 -33t-63.5 -12q-51 0 -79 24zM13 606.5q-7 9.5 -7 30.5v15q0 21 7 30.5t23 9.5h245q16 0 23 -9.5
t7 -30.5v-15q0 -21 -7 -30.5t-23 -9.5h-245q-16 0 -23 9.5zM104 61.5q-62 69.5 -62 200.5t62 200t181 69t180.5 -69t61.5 -200t-61.5 -200.5t-180.5 -69.5t-181 69.5zM354.5 147.5q22.5 38.5 22.5 114.5t-22.5 114t-69.5 38t-70 -38t-23 -114q0 -153 93 -153q47 0 69.5 38.5
z" />
    <glyph glyph-name="uni01EE" unicode="&#x1ee;" horiz-adv-x="590" 
d="M138 419l176 170h-262v125h468v-97l-211 -201q118 -5 180.5 -58.5t62.5 -149.5q0 -102 -79.5 -160t-224.5 -58q-126 0 -220 39v128q45 -21 102.5 -34t108.5 -13q82 0 122 25.5t40 81.5q0 50 -51 73t-152 23h-60v106zM58 741.5q-14 5.5 -22 20.5l-44 77q-1 2 -7 12.5
t-6 15.5q0 8 9.5 11.5t31.5 3.5q24 0 36.5 -6t23.5 -19l36 -39l36 39q11 13 23.5 19t36.5 6q22 0 31.5 -3.5t9.5 -11.5q0 -5 -6 -15.5t-7 -12.5l-44 -77q-8 -15 -22 -20.5t-44 -5.5h-28q-30 0 -44 5.5z" />
    <glyph glyph-name="uni01EF" unicode="&#x1ef;" horiz-adv-x="581" 
d="M138 245l198 187h-288v114h472v-97l-216 -202q116 -13 177 -75t61 -171q0 -74 -35 -128.5t-102 -83.5t-161 -29q-123 0 -216 39v128q45 -22 100.5 -34.5t104.5 -12.5q77 0 117.5 33t40.5 95q0 67 -49.5 99t-145.5 32h-58v106zM55 577.5q-14 5.5 -22 20.5l-44 77
q-1 2 -7 12.5t-6 15.5q0 8 9.5 11.5t31.5 3.5q24 0 36.5 -6t23.5 -19l36 -39l36 39q11 13 23.5 19t36.5 6q22 0 31.5 -3.5t9.5 -11.5q0 -5 -6 -15.5t-7 -12.5l-44 -77q-8 -15 -22 -20.5t-44 -5.5h-28q-30 0 -44 5.5z" />
    <glyph glyph-name="uni01F0" unicode="&#x1f0;" horiz-adv-x="305" 
d="M-70 577.5q-14 5.5 -22 20.5l-44 77q-1 2 -7 12.5t-6 15.5q0 8 9.5 11.5t31.5 3.5q24 0 36.5 -6t23.5 -19l36 -39l36 39q11 13 23.5 19t36.5 6q22 0 31.5 -3.5t9.5 -11.5q0 -5 -6 -15.5t-7 -12.5l-44 -77q-8 -15 -22 -20.5t-44 -5.5h-28q-30 0 -44 5.5zM-9.5 -200.5
q-22.5 11.5 -22.5 40.5q0 20 11 44.5t25 24.5q5 0 14.5 -2t15.5 -2q19 0 27.5 10t8.5 33v545q0 32 60 32h28q60 0 60 -32v-543q0 -79 -40.5 -120.5t-105.5 -41.5q-59 0 -81.5 11.5z" />
    <glyph glyph-name="uni01F1" unicode="&#x1f1;" horiz-adv-x="1311" 
d="M85.5 9.5q-9.5 9.5 -9.5 30.5v620q0 21 9.5 30.5t30.5 9.5h214q155 0 237.5 -90.5t82.5 -259.5t-82.5 -259.5t-237.5 -90.5h-214q-21 0 -30.5 9.5zM330 131q80 0 121 56t41 163t-41 163t-121 56h-99v-438h99zM735.5 33.5q-13.5 33.5 -13.5 55.5q0 6 2 10l335 470h-278
q-16 0 -23 12t-7 38v31q0 26 7 38t23 12h457q11 0 24 -35t13 -57q0 -8 -5 -14l-330 -463h305q16 0 23 -12t7 -38v-31q0 -26 -7 -38t-23 -12h-484q-12 0 -25.5 33.5z" />
    <glyph glyph-name="uni01F2" unicode="&#x1f2;" horiz-adv-x="1184" 
d="M85.5 9.5q-9.5 9.5 -9.5 30.5v620q0 21 9.5 30.5t30.5 9.5h214q155 0 237.5 -90.5t82.5 -259.5t-82.5 -259.5t-237.5 -90.5h-214q-21 0 -30.5 9.5zM330 131q80 0 121 56t41 163t-41 163t-121 56h-99v-438h99zM732 27.5q-10 27.5 -10 48.5q0 10 3 14l229 316h-186
q-16 0 -23 12t-7 38v17q0 26 7 38t23 12h354q8 0 18.5 -28t10.5 -49q0 -10 -3 -15l-228 -314h205q16 0 23 -12t7 -38v-17q0 -26 -7 -38t-23 -12h-374q-9 0 -19 27.5z" />
    <glyph glyph-name="uni01F3" unicode="&#x1f3;" horiz-adv-x="1054" 
d="M132.5 23.5q-42.5 31.5 -66.5 92.5t-24 146q0 124 55.5 196.5t155.5 72.5q59 0 102 -31v222q0 32 60 32h28q60 0 60 -32v-546q0 -46 2.5 -70t6.5 -53q3 -13 3 -22q0 -16 -40.5 -24t-71.5 -8q-18 0 -25 14.5t-10.5 31t-4.5 22.5q-18 -33 -53.5 -54t-80.5 -21
q-54 0 -96.5 31.5zM355 172v223q-34 19 -70 19q-93 0 -93 -152q0 -149 81 -149q48 0 82 59zM602 27.5q-10 27.5 -10 48.5q0 10 3 14l229 316h-186q-16 0 -23 12t-7 38v17q0 26 7 38t23 12h354q8 0 18.5 -28t10.5 -49q0 -10 -3 -15l-228 -314h205q16 0 23 -12t7 -38v-17
q0 -26 -7 -38t-23 -12h-374q-9 0 -19 27.5z" />
    <glyph glyph-name="uni01F4" unicode="&#x1f4;" horiz-adv-x="724" 
d="M597.5 379.5q9.5 -9.5 9.5 -30.5v-278q0 -45 -75 -62t-158 -17q-168 0 -248.5 87.5t-80.5 272.5q0 356 334 356q46 0 96 -9t84 -25t34 -36q0 -14 -11 -36.5t-26.5 -40t-27.5 -17.5q-3 0 -25 9t-53.5 16t-73.5 7q-88 0 -130.5 -56t-42.5 -169q0 -228 171 -228q40 0 78 7
v127h-88q-16 0 -23 12t-7 38v32q0 26 7 38t23 12h203q21 0 30.5 -9.5zM158.5 741q-8.5 4 -8.5 11q0 5 5 13.5t8 14.5l40 72q10 19 25 25t60 6q30 0 41.5 -3.5t11.5 -13.5q0 -14 -19 -36l-57 -63q-15 -16 -33 -23t-41 -7q-24 0 -32.5 4z" />
    <glyph glyph-name="uni01F5" unicode="&#x1f5;" horiz-adv-x="632" 
d="M24 -74q0 39 23.5 69t67.5 47l1 4q-21 10 -32 30t-11 45q0 55 60 90q-81 43 -81 142q0 91 59.5 134.5t155.5 43.5q39 0 77 -8h161q16 0 23 -12t7 -38v-17q0 -47 -24 -47q-10 0 -25.5 3t-22.5 6l-2 -4q9 -10 15 -27.5t6 -33.5q0 -86 -56.5 -128t-147.5 -42q-44 0 -57 -7.5
t-13 -24.5q0 -18 23 -25t78 -15q18 -2 56 -8q71 -14 113 -45.5t42 -99.5q0 -51 -32 -89.5t-90.5 -59.5t-135.5 -21q-238 0 -238 138zM321 306.5q21 16.5 21 50.5q0 33 -21 50t-54 17t-54 -17t-21 -50q0 -34 21 -50.5t54 -16.5t54 16.5zM350 -82q26 13 26 36t-33.5 33.5
t-120.5 16.5q-25 -9 -39.5 -23.5t-14.5 -30.5q0 -21 25.5 -33t79.5 -12q51 0 77 13zM37.5 576q-8.5 4 -8.5 11q0 5 5 13.5t8 14.5l40 72q10 19 25 25t60 6q30 0 41.5 -3.5t11.5 -13.5q0 -14 -19 -36l-57 -63q-15 -16 -33 -23t-41 -7q-24 0 -32.5 4z" />
    <glyph glyph-name="uni01F6" unicode="&#x1f6;" horiz-adv-x="1047" 
d="M627 234q0 -64 21 -93t71 -29t71.5 30.5t21.5 102.5v301h151v-303q0 -253 -244 -253q-126 0 -184.5 55.5t-58.5 174.5v88h-235v-308h-151v714h151v-280h235v280h151v-480z" />
    <glyph glyph-name="uni01F7" unicode="&#x1f7;" horiz-adv-x="675" 
d="M241 -240h-151v954h115l24 -92h4q32 48 82.5 75.5t103.5 27.5q95 0 151 -70t56 -193q0 -103 -45 -193.5t-132 -158.5t-208 -106v-244zM375 599q-62 0 -98 -55t-36 -153v-246q104 42 168 129.5t64 186.5q0 67 -25.5 102.5t-72.5 35.5z" />
    <glyph glyph-name="uni01F8" unicode="&#x1f8;" horiz-adv-x="812" 
d="M69 30v640q0 32 60 32h43q24 0 40 -5.5t26 -21.5l225 -347q20 -29 36 -59l4 1q-2 23 -2 68v332q0 32 60 32h29q60 0 60 -32v-640q0 -32 -60 -32h-38q-24 0 -40 5.5t-26 21.5l-230 352q-20 29 -36 59l-4 -1q2 -23 2 -68v-337q0 -32 -60 -32h-29q-60 0 -60 32zM170 744
q-18 7 -33 23l-57 63q-19 21 -19 36q0 10 11.5 13.5t41.5 3.5q45 0 60 -6t25 -25l40 -72q3 -6 8 -14.5t5 -13.5q0 -7 -8.5 -11t-32.5 -4q-23 0 -41 7z" />
    <glyph glyph-name="uni01F9" unicode="&#x1f9;" horiz-adv-x="657" 
d="M62 30v317q0 44 -2.5 67.5t-6.5 52.5q-3 14 -3 21q0 16 40.5 24t71.5 8q18 0 25 -13.5t10.5 -29.5t4.5 -22q24 32 64 54t85 22q75 0 111 -39.5t36 -122.5v-339q0 -32 -60 -32h-28q-60 0 -60 32v317q0 31 -14 46.5t-46 15.5q-27 0 -47.5 -17.5t-32.5 -40.5v-321
q0 -32 -60 -32h-28q-60 0 -60 32zM92 579q-18 7 -33 23l-57 63q-19 21 -19 36q0 10 11.5 13.5t41.5 3.5q45 0 60 -6t25 -25l40 -72q3 -6 8 -14.5t5 -13.5q0 -7 -8.5 -11t-32.5 -4q-23 0 -41 7z" />
    <glyph glyph-name="Aringacute" unicode="&#x1fa;" horiz-adv-x="613" 
d="M227 835q0 9 13 23l54 60q16 17 34 23.5t52 6.5q38 0 54.5 -3.5t16.5 -14.5q0 -13 -30 -33l-86 -56q-16 -11 -30 -15t-40 -4q-38 0 -38 13zM613 20q0 -22 -50 -22h-44q-49 0 -56 21l-40 122h-236l-40 -122q-7 -21 -46 -21h-40q-61 0 -61 22q0 4 4 18l212 621q-7 15 -7 36
q0 43 28.5 71.5t70.5 28.5q43 0 71.5 -28.5t28.5 -71.5q0 -22 -9 -42l211 -615q3 -10 3 -18zM284 719q-10 -10 -10 -25q0 -14 10 -24t24 -10q15 0 25 10t10 24q0 15 -10 25t-25 10q-14 0 -24 -10zM380 273l-57 178q-7 20 -15 64h-4q-1 -6 -4.5 -26.5t-10.5 -37.5l-59 -178
h150z" />
    <glyph glyph-name="aringacute" unicode="&#x1fb;" horiz-adv-x="545" 
d="M199.5 569.5q-29.5 28.5 -29.5 70.5q0 43 29 71.5t73 28.5t73.5 -28.5t29.5 -71.5q0 -42 -29.5 -70.5t-73.5 -28.5q-43 0 -72.5 28.5zM297 615q10 10 10 24q0 15 -10 25t-25 10q-14 0 -24 -10t-10 -25q0 -14 10 -24t24 -10q15 0 25 10zM203.5 768q-8.5 4 -8.5 11
q0 5 5 13.5t8 14.5l40 72q10 19 25 25t60 6q30 0 41.5 -3.5t11.5 -13.5q0 -14 -19 -36l-57 -63q-15 -16 -33 -23t-41 -7q-24 0 -32.5 4zM77.5 32q-35.5 40 -35.5 106q0 80 58.5 133t228.5 53v33q0 29 -18.5 43t-59.5 14q-34 0 -59.5 -7t-45.5 -16t-23 -9q-10 0 -22 15
t-21 34.5t-9 30.5q0 17 25 33t69 26t97 10q113 0 164 -44.5t51 -122.5v-188q0 -46 2.5 -70t6.5 -53q3 -13 3 -22q0 -16 -40.5 -24t-71.5 -8q-18 0 -25 14.5t-10.5 31.5t-4.5 23q-6 -11 -24 -28.5t-50 -32.5t-73 -15q-77 0 -112.5 40zM292 127q25 18 37 45v55
q-140 0 -140 -74q0 -20 13 -32t37 -12q28 0 53 18z" />
    <glyph glyph-name="AEacute" unicode="&#x1fc;" horiz-adv-x="915" 
d="M465 762q0 9 13 23l54 60q16 17 34 23.5t52 6.5q38 0 54.5 -3.5t16.5 -14.5q0 -13 -30 -33l-86 -56q-16 -11 -30 -15t-40 -4q-38 0 -38 13zM1 20q0 10 4 18l321 635q8 14 18 20.5t26 6.5h464q16 0 23 -12t7 -38v-31q0 -26 -7 -38t-23 -12h-317l28 -145h262q16 0 23 -12
t7 -38v-31q0 -26 -7 -38t-23 -12h-236l31 -162h233q16 0 23 -12t7 -38v-31q0 -26 -7 -38t-23 -12h-331q-16 0 -24 7t-11 23l-21 111h-243l-60 -122q-10 -21 -46 -21h-37q-61 0 -61 22zM424 273l-33 181v83h-4l-28 -82l-89 -182h154z" />
    <glyph glyph-name="aeacute" unicode="&#x1fd;" horiz-adv-x="819" 
d="M356.5 576q-8.5 4 -8.5 11q0 5 5 13.5t8 14.5l40 72q10 19 25 25t60 6q30 0 41.5 -3.5t11.5 -13.5q0 -14 -19 -36l-57 -63q-15 -16 -33 -23t-41 -7q-24 0 -32.5 4zM86 33q-44 41 -44 105q0 79 58 131.5t226 53.5q4 35 15 64q-21 27 -90 27q-43 0 -101 -24q-24 -8 -27 -8
q-10 0 -22 15t-21 34.5t-9 30.5q0 17 25 33t69 26t97 10q108 0 161 -36q59 36 142 36q112 0 164 -68t52 -180q0 -13 -19.5 -36t-29.5 -23h-255q0 -61 32 -88t81 -27q28 0 51 6.5t48 16.5q16 8 22 8q10 0 22.5 -14.5t21 -33t8.5 -28.5q0 -23 -31 -39.5t-74 -24.5t-75 -8
q-127 0 -195 68q-24 -24 -71.5 -46t-108.5 -22q-78 0 -122 41zM637 323q0 43 -19.5 67t-52.5 24q-76 0 -90 -91h162zM294 121.5q27 12.5 41 34.5q-9 32 -12 69q-134 -1 -134 -72q0 -20 13 -32t37 -12q28 0 55 12.5z" />
    <glyph glyph-name="Oslashacute" unicode="&#x1fe;" horiz-adv-x="731" 
d="M274 762q0 9 13 23l54 60q16 17 34 23.5t52 6.5q38 0 54.5 -3.5t16.5 -14.5q0 -13 -30 -33l-86 -56q-16 -11 -30 -15t-40 -4q-38 0 -38 13zM686 350q0 -173 -82.5 -265.5t-237.5 -92.5q-137 0 -219 74l-58 -66q-10 -12 -22 -12q-13 0 -30.5 16t-17.5 30q0 8 10 20l67 75
q-51 86 -51 221q0 173 83 265.5t238 92.5q119 0 194 -54l52 58q11 12 22 12q13 0 30.5 -16.5t17.5 -29.5q0 -9 -10 -20l-54 -61q68 -89 68 -247zM212 260l251 284q-38 32 -97 32q-80 0 -121.5 -57.5t-41.5 -168.5q0 -49 9 -90zM487 181q41 58 41 169q0 74 -18 125l-263 -297
q41 -55 119 -55q80 0 121 58z" />
    <glyph glyph-name="oslashacute" unicode="&#x1ff;" horiz-adv-x="569" 
d="M215.5 576q-8.5 4 -8.5 11q0 5 5 13.5t8 14.5l40 72q10 19 25 25t60 6q30 0 41.5 -3.5t11.5 -13.5q0 -14 -19 -36l-57 -63q-15 -16 -33 -23t-41 -7q-24 0 -32.5 4zM484 437q43 -65 43 -175q0 -131 -61.5 -200.5t-180.5 -69.5q-91 0 -149 41l-28 -32q-10 -13 -21 -13
q-13 0 -30.5 15t-17.5 29q0 10 10 21l33 38q-40 68 -40 171q0 131 62 200t181 69q86 0 143 -37l32 37q11 13 22 13q12 0 30 -16t18 -28q0 -9 -10 -21zM194 221l147 172q-21 21 -56 21q-47 0 -70 -38t-23 -114q0 -15 2 -41zM374 310l-150 -175q23 -26 61 -26q47 0 69.5 38.5
t22.5 114.5q0 27 -3 48z" />
    <glyph glyph-name="uni0200" unicode="&#x200;" horiz-adv-x="613" 
d="M216 753q-14 4 -31 15l-86 57q-30 19 -30 32q0 11 16.5 14.5t54.5 3.5q34 0 52 -6.5t34 -23.5l54 -60q13 -14 13 -23q0 -13 -38 -13q-25 0 -39 4zM410 753q-14 4 -31 15l-86 57q-30 19 -30 32q0 11 16.5 14.5t54.5 3.5q34 0 52 -6.5t34 -23.5l54 -60q13 -14 13 -23
q0 -13 -38 -13q-25 0 -39 4zM0 20q0 4 4 18l220 643q8 21 57 21h52q50 0 57 -21l220 -643q3 -10 3 -18q0 -22 -50 -22h-44q-49 0 -56 21l-40 122h-236l-40 -122q-7 -21 -46 -21h-40q-61 0 -61 22zM380 273l-57 178q-7 20 -15 64h-4q-1 -6 -4.5 -26.5t-10.5 -37.5l-59 -178
h150z" />
    <glyph glyph-name="uni0201" unicode="&#x201;" horiz-adv-x="545" 
d="M171 579q-18 7 -33 23l-57 63q-19 21 -19 36q0 10 11.5 13.5t41.5 3.5q45 0 60 -6t25 -25l40 -72q3 -6 8 -14.5t5 -13.5q0 -7 -8.5 -11t-32.5 -4q-23 0 -41 7zM352 579q-18 7 -33 23l-57 63q-19 21 -19 36q0 10 11.5 13.5t41.5 3.5q45 0 60 -6t25 -25l40 -72
q3 -6 8 -14.5t5 -13.5q0 -7 -8.5 -11t-32.5 -4q-23 0 -41 7zM77.5 32q-35.5 40 -35.5 106q0 80 58.5 133t228.5 53v33q0 29 -18.5 43t-59.5 14q-34 0 -59.5 -7t-45.5 -16t-23 -9q-10 0 -22 15t-21 34.5t-9 30.5q0 17 25 33t69 26t97 10q113 0 164 -44.5t51 -122.5v-188
q0 -46 2.5 -70t6.5 -53q3 -13 3 -22q0 -16 -40.5 -24t-71.5 -8q-18 0 -25 14.5t-10.5 31.5t-4.5 23q-6 -11 -24 -28.5t-50 -32.5t-73 -15q-77 0 -112.5 40zM292 127q25 18 37 45v55q-140 0 -140 -74q0 -20 13 -32t37 -12q28 0 53 18z" />
    <glyph glyph-name="uni0202" unicode="&#x202;" horiz-adv-x="613" 
d="M388 869q36 -16 56 -41.5t20 -54.5q0 -13 -9 -20.5t-26 -7.5q-11 0 -17.5 4t-13.5 12q-13 15 -32 24t-59 9q-38 0 -57 -8.5t-32 -22.5q-9 -10 -15.5 -14t-17.5 -4q-17 0 -26 7.5t-9 20.5q0 29 20 54.5t56 41.5t81 16t81 -16zM0 20q0 4 4 18l220 643q8 21 57 21h52
q50 0 57 -21l220 -643q3 -10 3 -18q0 -22 -50 -22h-44q-49 0 -56 21l-40 122h-236l-40 -122q-7 -21 -46 -21h-40q-61 0 -61 22zM380 273l-57 178q-7 20 -15 64h-4q-1 -6 -4.5 -26.5t-10.5 -37.5l-59 -178h150z" />
    <glyph glyph-name="uni0203" unicode="&#x203;" horiz-adv-x="545" 
d="M343.5 699q31.5 -16 49 -41.5t17.5 -54.5q0 -13 -9 -20.5t-26 -7.5q-11 0 -17.5 4t-13.5 12q-14 17 -27 25t-44 8q-27 0 -41 -8t-28 -23q-9 -10 -15.5 -14t-17.5 -4q-17 0 -26 7.5t-9 20.5q0 29 17.5 54.5t49 41.5t70.5 16t70.5 -16zM77.5 32q-35.5 40 -35.5 106
q0 80 58.5 133t228.5 53v33q0 29 -18.5 43t-59.5 14q-34 0 -59.5 -7t-45.5 -16t-23 -9q-10 0 -22 15t-21 34.5t-9 30.5q0 17 25 33t69 26t97 10q113 0 164 -44.5t51 -122.5v-188q0 -46 2.5 -70t6.5 -53q3 -13 3 -22q0 -16 -40.5 -24t-71.5 -8q-18 0 -25 14.5t-10.5 31.5
t-4.5 23q-6 -11 -24 -28.5t-50 -32.5t-73 -15q-77 0 -112.5 40zM292 127q25 18 37 45v55q-140 0 -140 -74q0 -20 13 -32t37 -12q28 0 53 18z" />
    <glyph glyph-name="uni0204" unicode="&#x204;" horiz-adv-x="546" 
d="M195 753q-14 4 -31 15l-86 57q-30 19 -30 32q0 11 16.5 14.5t54.5 3.5q34 0 52 -6.5t34 -23.5l54 -60q13 -14 13 -23q0 -13 -38 -13q-25 0 -39 4zM389 753q-14 4 -31 15l-86 57q-30 19 -30 32q0 11 16.5 14.5t54.5 3.5q34 0 52 -6.5t34 -23.5l54 -60q13 -14 13 -23
q0 -13 -38 -13q-25 0 -39 4zM86.5 9.5q-9.5 9.5 -9.5 30.5v620q0 21 9.5 30.5t30.5 9.5h351q16 0 23 -12t7 -38v-31q0 -26 -7 -38t-23 -12h-237v-145h210q16 0 23 -12t7 -38v-31q0 -26 -7 -38t-23 -12h-210v-162h238q16 0 23 -12t7 -38v-31q0 -26 -7 -38t-23 -12h-352
q-21 0 -30.5 9.5z" />
    <glyph glyph-name="uni0205" unicode="&#x205;" horiz-adv-x="539" 
d="M178 579q-18 7 -33 23l-57 63q-19 21 -19 36q0 10 11.5 13.5t41.5 3.5q45 0 60 -6t25 -25l40 -72q3 -6 8 -14.5t5 -13.5q0 -7 -8.5 -11t-32.5 -4q-23 0 -41 7zM359 579q-18 7 -33 23l-57 63q-19 21 -19 36q0 10 11.5 13.5t41.5 3.5q45 0 60 -6t25 -25l40 -72
q3 -6 8 -14.5t5 -13.5q0 -7 -8.5 -11t-32.5 -4q-23 0 -41 7zM106.5 62.5q-64.5 70.5 -64.5 195.5q0 141 64.5 207t178.5 66q111 0 163.5 -72t52.5 -186q0 -12 -20.5 -35.5t-30.5 -23.5h-255q5 -57 34 -81t81 -24q28 0 51 6.5t48 16.5q16 8 22 8q10 0 22.5 -14.5t21 -33
t8.5 -28.5q0 -23 -31 -39.5t-74 -24.5t-75 -8q-132 0 -196.5 70.5zM357 313q0 46 -18 73.5t-54 27.5q-74 0 -90 -101h162z" />
    <glyph glyph-name="uni0206" unicode="&#x206;" horiz-adv-x="546" 
d="M367 869q36 -16 56 -41.5t20 -54.5q0 -13 -9 -20.5t-26 -7.5q-11 0 -17.5 4t-13.5 12q-13 15 -32 24t-59 9q-38 0 -57 -8.5t-32 -22.5q-9 -10 -15.5 -14t-17.5 -4q-17 0 -26 7.5t-9 20.5q0 29 20 54.5t56 41.5t81 16t81 -16zM86.5 9.5q-9.5 9.5 -9.5 30.5v620
q0 21 9.5 30.5t30.5 9.5h351q16 0 23 -12t7 -38v-31q0 -26 -7 -38t-23 -12h-237v-145h210q16 0 23 -12t7 -38v-31q0 -26 -7 -38t-23 -12h-210v-162h238q16 0 23 -12t7 -38v-31q0 -26 -7 -38t-23 -12h-352q-21 0 -30.5 9.5z" />
    <glyph glyph-name="uni0207" unicode="&#x207;" horiz-adv-x="539" 
d="M350.5 699q31.5 -16 49 -41.5t17.5 -54.5q0 -13 -9 -20.5t-26 -7.5q-11 0 -17.5 4t-13.5 12q-14 17 -27 25t-44 8q-27 0 -41 -8t-28 -23q-9 -10 -15.5 -14t-17.5 -4q-17 0 -26 7.5t-9 20.5q0 29 17.5 54.5t49 41.5t70.5 16t70.5 -16zM106.5 62.5q-64.5 70.5 -64.5 195.5
q0 141 64.5 207t178.5 66q111 0 163.5 -72t52.5 -186q0 -12 -20.5 -35.5t-30.5 -23.5h-255q5 -57 34 -81t81 -24q28 0 51 6.5t48 16.5q16 8 22 8q10 0 22.5 -14.5t21 -33t8.5 -28.5q0 -23 -31 -39.5t-74 -24.5t-75 -8q-132 0 -196.5 70.5zM357 313q0 46 -18 73.5t-54 27.5
q-74 0 -90 -101h162z" />
    <glyph glyph-name="uni0208" unicode="&#x208;" horiz-adv-x="283" 
d="M51 753q-14 4 -31 15l-86 57q-30 19 -30 32q0 11 16.5 14.5t54.5 3.5q34 0 52 -6.5t34 -23.5l54 -60q13 -14 13 -23q0 -13 -38 -13q-25 0 -39 4zM245 753q-14 4 -31 15l-86 57q-30 19 -30 32q0 11 16.5 14.5t54.5 3.5q34 0 52 -6.5t34 -23.5l54 -60q13 -14 13 -23
q0 -13 -38 -13q-25 0 -39 4zM64 30v640q0 33 60 33h35q60 0 60 -33v-640q0 -33 -60 -33h-35q-60 0 -60 33z" />
    <glyph glyph-name="uni0209" unicode="&#x209;" horiz-adv-x="265" 
d="M31 579q-18 7 -33 23l-57 63q-19 21 -19 36q0 10 11.5 13.5t41.5 3.5q45 0 60 -6t25 -25l40 -72q3 -6 8 -14.5t5 -13.5q0 -7 -8.5 -11t-32.5 -4q-23 0 -41 7zM212 579q-18 7 -33 23l-57 63q-19 21 -19 36q0 10 11.5 13.5t41.5 3.5q45 0 60 -6t25 -25l40 -72q3 -6 8 -14.5
t5 -13.5q0 -7 -8.5 -11t-32.5 -4q-23 0 -41 7zM59 30v463q0 32 60 32h28q60 0 60 -32v-463q0 -32 -60 -32h-28q-60 0 -60 32z" />
    <glyph glyph-name="uni020A" unicode="&#x20a;" horiz-adv-x="283" 
d="M223 869q36 -16 56 -41.5t20 -54.5q0 -13 -9 -20.5t-26 -7.5q-11 0 -17.5 4t-13.5 12q-13 15 -32 24t-59 9q-38 0 -57 -8.5t-32 -22.5q-9 -10 -15.5 -14t-17.5 -4q-17 0 -26 7.5t-9 20.5q0 29 20 54.5t56 41.5t81 16t81 -16zM64 30v640q0 33 60 33h35q60 0 60 -33v-640
q0 -33 -60 -33h-35q-60 0 -60 33z" />
    <glyph glyph-name="uni020B" unicode="&#x20b;" horiz-adv-x="265" 
d="M203.5 699q31.5 -16 49 -41.5t17.5 -54.5q0 -13 -9 -20.5t-26 -7.5q-11 0 -17.5 4t-13.5 12q-14 17 -27 25t-44 8q-27 0 -41 -8t-28 -23q-9 -10 -15.5 -14t-17.5 -4q-17 0 -26 7.5t-9 20.5q0 29 17.5 54.5t49 41.5t70.5 16t70.5 -16zM59 30v463q0 32 60 32h28
q60 0 60 -32v-463q0 -32 -60 -32h-28q-60 0 -60 32z" />
    <glyph glyph-name="uni020C" unicode="&#x20c;" horiz-adv-x="731" 
d="M275 753q-14 4 -31 15l-86 57q-30 19 -30 32q0 11 16.5 14.5t54.5 3.5q34 0 52 -6.5t34 -23.5l54 -60q13 -14 13 -23q0 -13 -38 -13q-25 0 -39 4zM469 753q-14 4 -31 15l-86 57q-30 19 -30 32q0 11 16.5 14.5t54.5 3.5q34 0 52 -6.5t34 -23.5l54 -60q13 -14 13 -23
q0 -13 -38 -13q-25 0 -39 4zM128 84.5q-83 92.5 -83 265.5t83 265.5t238 92.5t237.5 -92.5t82.5 -265.5t-82.5 -265.5t-237.5 -92.5t-238 92.5zM487 181q41 58 41 169t-41 168.5t-121 57.5t-121.5 -57.5t-41.5 -168.5t41.5 -169t121.5 -58t121 58z" />
    </font>
</defs>
</svg>
