<?xml version="1.0" standalone="no"?>
<!DOCTYPE svg PUBLIC "-//W3C//DTD SVG 1.1//EN" "http://www.w3.org/Graphics/SVG/1.1/DTD/svg11.dtd" >
<svg xmlns="http://www.w3.org/2000/svg" xmlns:xlink="http://www.w3.org/1999/xlink" version="1.1">
<metadata>
Created by FontForge 20190801 at Wed Jan 24 10:27:49 2024
 By root
Copyright 2020 The Bodoni Moda Project Authors (https://github.com/indestructible-type)
</metadata>
<defs>
<font id="BodoniModa-Regular" horiz-adv-x="500" >
  <font-face 
    font-family="Bodoni Moda"
    font-weight="400"
    font-stretch="normal"
    units-per-em="2000"
    panose-1="0 0 0 0 0 0 0 0 0 0"
    ascent="1600"
    descent="-400"
    x-height="920"
    cap-height="1500"
    bbox="-350 -629 2870 2118"
    underline-thickness="50"
    underline-position="-125"
    unicode-range="U+0001-2215"
  />
<missing-glyph horiz-adv-x="728" 
d="M66 0v1333h530v-1333h-530zM132 66h398v1201h-398v-1201z" />
    <glyph glyph-name=".notdef" horiz-adv-x="728" 
d="M66 0v1333h530v-1333h-530zM132 66h398v1201h-398v-1201z" />
    <glyph glyph-name="uni0000" 
 />
    <glyph glyph-name="uni0000" 
 />
    <glyph glyph-name="nonmarkingreturn" horiz-adv-x="666" 
 />
    <glyph glyph-name="uni0001" 
 />
    <glyph glyph-name="uni0002" 
 />
    <glyph glyph-name="uni0003" 
 />
    <glyph glyph-name="uni0004" 
 />
    <glyph glyph-name="uni0005" 
 />
    <glyph glyph-name="uni0006" 
 />
    <glyph glyph-name="uni0007" 
 />
    <glyph glyph-name="uni0008" 
 />
    <glyph glyph-name="uni0009" unicode="&#x9;" 
 />
    <glyph glyph-name="uni000A" unicode="&#xa;" 
 />
    <glyph glyph-name="uni000B" 
 />
    <glyph glyph-name="uni000C" 
 />
    <glyph glyph-name="CR" unicode="&#xd;" 
 />
    <glyph glyph-name="uni000E" 
 />
    <glyph glyph-name="uni000F" 
 />
    <glyph glyph-name="uni0010" 
 />
    <glyph glyph-name="uni0011" 
 />
    <glyph glyph-name="uni0012" 
 />
    <glyph glyph-name="uni0013" 
 />
    <glyph glyph-name="uni0014" 
 />
    <glyph glyph-name="uni0015" 
 />
    <glyph glyph-name="uni0016" 
 />
    <glyph glyph-name="uni0017" 
 />
    <glyph glyph-name="uni0018" 
 />
    <glyph glyph-name="uni0019" 
 />
    <glyph glyph-name="uni001A" 
 />
    <glyph glyph-name="uni001B" 
 />
    <glyph glyph-name="uni001C" 
 />
    <glyph glyph-name="uni001D" 
 />
    <glyph glyph-name="uni001E" 
 />
    <glyph glyph-name="uni001F" 
 />
    <glyph glyph-name="space" unicode=" " 
 />
    <glyph glyph-name="exclam" unicode="!" horiz-adv-x="633" 
d="M303 416q0 113 -13.5 218.5t-32 213t-35.5 223t-25 247.5v19.5v17.5q0 69 23.5 115t94.5 46q70 0 95 -46t25 -115q0 -9 -1 -17.5t-1 -19.5q-8 -132 -25.5 -247.5t-36 -223t-31.5 -213t-13 -218.5h-24zM317 -20q-33 0 -60.5 16t-43.5 43.5t-16 60.5t16 60.5t43.5 44
t60.5 16.5t60 -16.5t43.5 -44t16.5 -60.5t-16.5 -60.5t-43.5 -43.5t-60 -16z" />
    <glyph glyph-name="quotedbl" unicode="&#x22;" horiz-adv-x="739" 
d="M528 977q0 82 -10 132.5t-25 86t-29 72.5t-22 93q-1 11 -1.5 19.5t-0.5 17.5q0 59 28 90.5t72 31.5t72 -31.5t28 -90.5v-17.5t-2 -19.5q-8 -56 -22 -93t-29 -72.5t-25 -86t-10 -132.5h-24zM188 977q0 82 -10 132.5t-25 86t-29 72.5t-22 93q-1 11 -1.5 19.5t-0.5 17.5
q0 59 28 90.5t72 31.5t72 -31.5t28 -90.5v-17.5t-2 -19.5q-8 -56 -22 -93t-29 -72.5t-25 -86t-10 -132.5h-24z" />
    <glyph glyph-name="numbersign" unicode="#" horiz-adv-x="1269" 
d="M704 -12l200 1520l25 2l-200 -1520zM61 490v24h1089v-24h-1089zM321 -10l200 1520h25l-200 -1520h-25zM120 1016v25h1090v-25h-1090z" />
    <glyph glyph-name="dollar" unicode="$" horiz-adv-x="1109" 
d="M570 -29q-166 0 -279.5 52.5t-171.5 127t-58 139.5q0 69 36.5 116.5t102.5 47.5q31 0 60 -14.5t48.5 -44t19.5 -73.5q0 -40 -19.5 -69.5t-50.5 -45.5t-65 -16q-32 0 -62 10t-49 32t-19 57h23q0 -61 55 -130.5t162 -118t264 -48.5q169 0 246.5 87.5t77.5 235.5
q0 88 -42 147.5t-110.5 102.5t-150.5 79t-164.5 75.5t-151 92.5t-110.5 129.5t-42 187.5q0 90 36.5 162t100 123t145 78t172.5 27q108 0 203 -47t154 -121.5t59 -155.5q0 -58 -37 -104t-103 -46q-30 0 -59.5 14.5t-48.5 44t-19 73.5q0 60 40.5 95.5t91.5 35.5q34 0 64 -15.5
t49.5 -41t19.5 -56.5h-23q0 76 -55 144.5t-144 112.5t-190 44q-113 0 -182.5 -35.5t-101.5 -99t-32 -145.5q0 -79 41.5 -133t110 -93t151 -73.5t164.5 -74t150.5 -94t110 -134t41.5 -195.5q0 -139 -56 -240t-159 -155t-244 -54zM443 -160v1820h25v-1820h-25zM626 -160v1820
h25v-1820h-25z" />
    <glyph glyph-name="percent" unicode="%" horiz-adv-x="2000" 
d="M465 0l1041 1500h29l-1041 -1500h-29zM471 641q-85 0 -158 28t-127.5 84t-85 138t-30.5 189t30.5 189t85 138t127.5 84.5t158 28.5q84 0 157 -28.5t127 -84.5t84.5 -138t30.5 -189t-35.5 -189t-94.5 -138t-129.5 -84t-139.5 -28zM471 665q55 0 90 35.5t54.5 95t27 134
t7.5 150.5q0 77 -7.5 151t-27 133.5t-54.5 95t-90 35.5q-56 0 -91.5 -35.5t-55 -95t-27 -133.5t-7.5 -151q0 -76 7.5 -150.5t27 -134t55 -95t91.5 -35.5zM1529 -20q-84 0 -157 28.5t-127 84.5t-84.5 138t-30.5 189t30.5 189t84.5 138t127 84t157 28q85 0 158 -28t127.5 -84
t85 -138t30.5 -189t-36 -189t-94.5 -138t-129.5 -84.5t-141 -28.5zM1529 5q56 0 91.5 35.5t55 95t27 134t7.5 150.5q0 77 -7.5 151t-27 133.5t-55 95t-91.5 35.5q-55 0 -90 -35.5t-54.5 -95t-27 -133.5t-7.5 -151q0 -76 7.5 -150.5t27 -134t54.5 -95t90 -35.5z" />
    <glyph glyph-name="ampersand" unicode="&#x26;" horiz-adv-x="1607" 
d="M1070 0l-662 980q-39 57 -65.5 125.5t-26.5 121.5q0 90 52 155.5t143 101.5t207 36q107 0 192.5 -33t135 -92.5t49.5 -139.5q0 -81 -32 -137t-88 -97t-128 -76.5t-151 -76.5l-13 16q48 30 99 79t85.5 122t34.5 175q0 47 -15 102.5t-54.5 95.5t-114.5 40q-77 0 -122 -32.5
t-64.5 -83t-19.5 -103.5q0 -52 36 -127.5t100 -171.5l628 -955h262v-25h-468zM538 -20q-133 0 -236.5 43.5t-162.5 125t-59 197.5q0 87 41 156t104 121.5t130.5 90t122.5 60.5t77 34l9 -17q-85 -46 -144 -105.5t-89.5 -140t-30.5 -190.5q0 -60 23 -117.5t65.5 -104
t101 -73.5t128.5 -27q116 0 220 50.5t191 139t153 201.5t107 239t53 251h25q-14 -134 -59.5 -268t-118.5 -253.5t-171.5 -212.5t-219 -146.5t-260.5 -53.5zM1088 895v25h480v-25h-480z" />
    <glyph glyph-name="quotesingle" unicode="'" horiz-adv-x="399" 
d="M188 977q0 82 -10 132.5t-25 86t-29 72.5t-22 93q-1 11 -1.5 19.5t-0.5 17.5q0 59 28 90.5t72 31.5t72 -31.5t28 -90.5v-17.5t-2 -19.5q-8 -56 -22 -93t-29 -72.5t-25 -86t-10 -132.5h-24z" />
    <glyph glyph-name="parenleft" unicode="(" horiz-adv-x="723" 
d="M686 -340q-122 53 -224 148t-176.5 225t-115 286t-40.5 331q0 233 71 422t196.5 323.5t288.5 204.5l11 -19q-93 -60 -163.5 -158.5t-118 -223t-71.5 -265t-24 -284.5t24 -290.5t71.5 -279t118 -237t163.5 -164.5z" />
    <glyph glyph-name="parenright" unicode=")" horiz-adv-x="723" 
d="M39 -340l-12 19q93 60 163.5 158.5t118 223t72 265t24.5 284.5t-24.5 290.5t-72 279t-118 237t-163.5 164.5l12 19q122 -53 223.5 -148t176 -225t115.5 -286t41 -331q0 -233 -71.5 -422t-196.5 -323.5t-288 -204.5z" />
    <glyph glyph-name="asterisk" unicode="*" horiz-adv-x="1264" 
d="M632 434q-44 0 -72 32t-28 90q0 9 0.5 18t1.5 19q7 54 21 90t28.5 70t24.5 80.5t11 121.5q-64 -38 -99.5 -70.5t-58 -61.5t-46.5 -59t-67 -64q-8 -7 -15.5 -11t-15.5 -9q-51 -29 -91.5 -20.5t-63.5 46.5q-22 38 -9 78t64 69q8 5 15.5 9t17.5 8q50 20 88 27t75 11
t82.5 18.5t111.5 50.5q-66 36 -111.5 50.5t-82.5 18.5t-75 11t-88 27q-10 4 -17.5 8.5t-15.5 8.5q-51 29 -64 69t9 78q23 38 63.5 46.5t91.5 -20.5q8 -4 15.5 -8.5t15.5 -11.5q43 -34 67 -64t46.5 -59t58 -61.5t99.5 -70.5q-1 75 -11 121.5t-24.5 80.5t-28.5 70t-21 90
q-1 11 -1.5 19.5t-0.5 17.5q0 59 28 90.5t72 31.5t72 -31.5t28 -90.5v-17.5t-2 -19.5q-7 -54 -21 -90t-28.5 -70t-24.5 -80.5t-11 -121.5q64 38 99.5 70.5t58 61.5t46.5 59t67 64q8 7 16 11.5t15 8.5q51 29 92 20.5t63 -46.5q23 -38 9.5 -78t-64.5 -69q-7 -4 -15 -8.5
t-18 -8.5q-50 -20 -88 -27t-75 -11t-82.5 -18.5t-111.5 -50.5q66 -36 111.5 -50.5t82.5 -18.5t75 -11t88 -27q10 -4 18 -8t15 -9q51 -29 64.5 -69t-9.5 -78q-22 -38 -63 -46.5t-92 20.5q-7 5 -15 9t-16 11q-43 34 -67 64t-46.5 59t-58 61.5t-99.5 70.5q1 -75 11 -121.5
t24.5 -80.5t28.5 -70t21 -90q2 -10 2 -19v-18q0 -58 -28 -90t-72 -32z" />
    <glyph glyph-name="plus" unicode="+" horiz-adv-x="901" 
d="M435 134v337h-335v26h335v337h30v-337h335v-26h-335v-337h-30z" />
    <glyph glyph-name="comma" unicode="," horiz-adv-x="429" 
d="M76 -299v25q66 0 117 31t83.5 83t44 116.5t-2.5 131.5h8q4 -22 -10.5 -47t-43 -43t-66.5 -18q-64 0 -95 34.5t-31 83.5q0 33 17.5 60t48 42.5t68.5 15.5q39 0 71 -22.5t50.5 -66t18.5 -106.5q0 -78 -32 -151.5t-94 -121t-152 -47.5z" />
    <glyph glyph-name="hyphen" unicode="-" horiz-adv-x="901" 
d="M800 453h-700v26h700v-26z" />
    <glyph glyph-name="period" unicode="." horiz-adv-x="399" 
d="M200 -20q-33 0 -60 16t-43.5 43.5t-16.5 60.5t16.5 60.5t43.5 44t60 16.5t60.5 -16.5t43.5 -44t16 -60.5t-16 -60.5t-43.5 -43.5t-60.5 -16z" />
    <glyph glyph-name="slash" unicode="/" horiz-adv-x="1049" 
d="M80 -300l865 1861h25l-865 -1861h-25z" />
    <glyph glyph-name="zero" unicode="0" horiz-adv-x="1239" 
d="M620 -20q-122 0 -221.5 59.5t-170.5 165.5t-109.5 245.5t-38.5 299.5t41 299.5t114 245.5t171.5 165.5t213.5 59.5t213.5 -59.5t171.5 -165.5t114 -245.5t41 -299.5t-38.5 -299.5t-109.5 -245.5t-170.5 -165.5t-221.5 -59.5zM620 3q101 0 162 64.5t93.5 172.5t43.5 241
t11 269t-14 269t-48 241t-94.5 172.5t-153.5 64.5t-153.5 -64.5t-94.5 -172.5t-47.5 -241t-13.5 -269t11 -269t43 -241t93.5 -172.5t161.5 -64.5z" />
    <glyph glyph-name="one" unicode="1" horiz-adv-x="869" 
d="M359 7v1468h-225v25h416v-1493h-191zM100 0v25h670v-25h-670z" />
    <glyph glyph-name="two" unicode="2" horiz-adv-x="1099" 
d="M80 0v130l467 427q125 114 183 258t58 285q0 107 -39 193t-106.5 136.5t-153.5 50.5q-113 0 -198.5 -50.5t-129 -144t-29.5 -222.5h-23q0 27 18 50t46.5 37t61.5 14q30 0 57.5 -13.5t45 -38.5t17.5 -60q0 -40 -16.5 -68.5t-45 -44t-63.5 -15.5t-61.5 17.5t-42.5 49
t-19 72.5q-14 138 35.5 240.5t154 159.5t253.5 57q141 0 239 -53.5t148.5 -140t50.5 -186.5q0 -75 -20.5 -137.5t-54.5 -114t-75.5 -95t-82.5 -82.5l-581 -531h830v150h25v-330h-949z" />
    <glyph glyph-name="three" unicode="3" horiz-adv-x="1041" 
d="M462 -20q-142 0 -233 42t-135 108t-44 138q0 62 34 95t86 33q46 0 76.5 -28.5t30.5 -82.5q0 -32 -16 -55.5t-41.5 -36.5t-55.5 -13q-29 0 -54.5 11.5t-41.5 31.5t-16 45h23q0 -68 40.5 -127t118 -94.5t188.5 -35.5q119 0 193.5 53.5t109.5 142.5t35 193q0 63 -14.5 132.5
t-55.5 130t-119 98.5t-205 38v15q181 0 297.5 -33t181.5 -90.5t91 -132.5t26 -158q0 -97 -38 -175t-106 -132.5t-159 -83.5t-197 -29zM366 808v15q119 0 187 32.5t99.5 86t39.5 116.5t8 124q0 69 -16.5 125.5t-48.5 97t-78 63t-105 22.5q-61 0 -118 -19t-102 -52
t-71.5 -77.5t-26.5 -96.5h-23q0 30 18 51t44.5 31.5t51.5 10.5q30 0 55.5 -12t41.5 -35.5t16 -58.5q0 -40 -18 -64.5t-44 -35.5t-51 -11q-30 0 -56.5 14t-43 41.5t-16.5 68.5q0 54 29 103.5t81 87.5t119.5 60t143.5 22q84 0 159.5 -21.5t134 -63.5t92.5 -105t34 -146
q0 -75 -19.5 -142.5t-75 -120t-162 -82t-279.5 -29.5z" />
    <glyph glyph-name="four" unicode="4" horiz-adv-x="1189" 
d="M570 0v25h190v1383l-647 -965h1057v-25h-1104l724 1082h160v-1475h150v-25h-530z" />
    <glyph glyph-name="five" unicode="5" horiz-adv-x="1000" 
d="M432 -20q-102 0 -186 39.5t-134.5 103t-50.5 135.5q0 62 33.5 93t79.5 31q38 0 76 -26t38 -86q0 -35 -16 -59.5t-42 -37.5t-56 -13q-19 0 -39 7t-36 19.5t-26 31t-10 40.5h25q0 -48 25.5 -93t72 -81t108 -57.5t132.5 -21.5q97 0 157 41t92 108.5t43.5 147.5t11.5 158
q0 129 -35.5 227.5t-101 154t-154.5 55.5q-72 0 -128.5 -23t-93 -56.5t-53.5 -63.5h-23q16 37 63.5 80t123 74t176.5 31q131 0 229 -57.5t152 -164.5t54 -257q0 -97 -36.5 -184t-104 -153.5t-160.5 -104.5t-206 -38zM134 754v746h711v109h25v-289h-711v-566h-25z" />
    <glyph glyph-name="six" unicode="6" horiz-adv-x="1119" 
d="M588 -20q-151 0 -260.5 72.5t-168.5 215t-59 352.5q0 182 63 344.5t175 287.5t258.5 196.5t313.5 71.5v-23q-130 0 -241 -67t-193 -182.5t-127 -262.5t-45 -308l-4 -116q0 -101 15.5 -200t50 -179t90.5 -128.5t138 -48.5t134 44.5t80.5 117.5t39.5 160t11 173
q0 134 -33 233.5t-96 154.5t-152 55q-98 0 -159.5 -50t-90 -136t-28.5 -196h-22q0 117 31.5 212t106.5 151t206 56q76 0 153 -27.5t142 -85t104.5 -148.5t39.5 -219q0 -150 -55.5 -267.5t-161 -185t-256.5 -67.5z" />
    <glyph glyph-name="seven" unicode="7" horiz-adv-x="1009" 
d="M468 -20q-58 0 -95 39.5t-37 132.5q0 59 22.5 127t59.5 142.5t80.5 153.5t85.5 161q39 75 89 176t101 206.5t92 192.5h-761v-151h-25v340h910l-25 -52t-66.5 -137.5t-91 -187.5t-100 -204.5t-92.5 -185.5q-46 -93 -76 -151t-44 -99t-14 -85q0 -55 17.5 -91.5t40 -65
t40 -57t17.5 -68.5q0 -55 -31 -95.5t-97 -40.5z" />
    <glyph glyph-name="eight" unicode="8" horiz-adv-x="1099" 
d="M550 -20q-241 0 -355.5 110t-114.5 290q0 167 98 271.5t305 118.5q-178 16 -270.5 107t-92.5 243q0 110 48.5 201t144.5 145t237 54t237 -54t144.5 -145t48.5 -201q0 -152 -92 -243t-271 -107q207 -14 305 -118.5t98 -271.5q0 -180 -114 -290t-356 -110zM550 5
q99 0 158.5 54.5t85.5 140.5t26 180t-26 180.5t-85.5 141.5t-158.5 55t-158.5 -55t-86 -141.5t-26.5 -180.5t26.5 -180t86 -140.5t158.5 -54.5zM550 784q89 0 139 49t70 126t20 161q0 63 -11 129t-36.5 121.5t-70 90t-111.5 34.5t-111.5 -34.5t-70.5 -90t-37 -121.5
t-11 -129q0 -84 20.5 -161t70.5 -126t139 -49z" />
    <glyph glyph-name="nine" unicode="9" horiz-adv-x="1119" 
d="M210 -20v23q131 0 241.5 67t192.5 182.5t127 262.5t45 308l4 116q0 101 -15.5 200t-50 179t-90.5 128.5t-138 48.5t-134 -44.5t-80.5 -117.5t-39.5 -160t-11 -173q0 -134 33 -233.5t96 -154.5t152 -55q98 0 159.5 50t90 136t28.5 196h22q0 -117 -31.5 -212t-106.5 -151
t-206 -56q-76 0 -153 27.5t-142 85t-104.5 149t-39.5 218.5q0 150 55.5 267.5t161 185t256.5 67.5t260.5 -72.5t168.5 -215t59 -352.5q0 -182 -63 -344.5t-175 -287.5t-258.5 -196.5t-313.5 -71.5z" />
    <glyph glyph-name="colon" unicode=":" horiz-adv-x="395" 
d="M200 820q-33 0 -60 16t-43.5 43.5t-16.5 60.5t16.5 60.5t43.5 44t60 16.5t60.5 -16.5t43.5 -44t16 -60.5t-16 -60.5t-43.5 -43.5t-60.5 -16zM200 -20q-33 0 -60 16t-43.5 43.5t-16.5 60.5t16.5 60.5t43.5 44t60 16.5t60.5 -16.5t43.5 -44t16 -60.5t-16 -60.5t-43.5 -43.5
t-60.5 -16z" />
    <glyph glyph-name="semicolon" unicode=";" horiz-adv-x="429" 
d="M200 820q-33 0 -60 16t-43.5 43.5t-16.5 60.5t16.5 60.5t43.5 44t60 16.5t60.5 -16.5t43.5 -44t16 -60.5t-16 -60.5t-43.5 -43.5t-60.5 -16zM76 -299v25q66 0 117 31t83.5 83t44 116.5t-2.5 131.5h8q4 -22 -10.5 -47t-43 -43t-66.5 -18q-64 0 -95 34.5t-31 83.5
q0 33 17.5 60t48 42.5t68.5 15.5q39 0 71 -22.5t50.5 -66t18.5 -106.5q0 -78 -32 -151.5t-94 -121t-152 -47.5z" />
    <glyph glyph-name="less" unicode="&#x3c;" horiz-adv-x="1074" 
d="M108 765v27l880 416v-27zM988 343l-880 415v27l880 -416v-26z" />
    <glyph glyph-name="equal" unicode="=" horiz-adv-x="800" 
d="M50 582v26h700v-26h-700zM50 331v26h700v-26h-700z" />
    <glyph glyph-name="greater" unicode="&#x3e;" horiz-adv-x="1026" 
d="M102 1181v26l880 -415v-34l-880 -416v27l859 406z" />
    <glyph glyph-name="question" unicode="?" horiz-adv-x="1099" 
d="M481 418v283q111 28 181 91.5t103 149t33 178.5q0 71 -10 137.5t-39 119.5t-85 85t-147 32q-76 0 -143 -27t-118.5 -72.5t-81 -101t-29.5 -111.5h-23q0 30 16 52t42 33.5t54 11.5q30 0 56 -12.5t42 -37t16 -59.5q0 -40 -18 -64.5t-44.5 -35.5t-51.5 -11q-46 0 -80 31
t-34 92q0 62 32.5 122t89.5 108.5t131.5 78t158.5 29.5q141 0 246.5 -50t163.5 -140t58 -210q0 -115 -64.5 -210t-176 -154t-252.5 -68v-270h-26zM498 -20q-33 0 -60 16t-43.5 43.5t-16.5 60.5t16.5 60.5t43.5 44t60 16.5t60.5 -16.5t43.5 -44t16 -60.5t-16 -60.5
t-43.5 -43.5t-60.5 -16z" />
    <glyph glyph-name="at" unicode="@" horiz-adv-x="2019" 
d="M838 -428q-137 0 -267 45t-234.5 144.5t-166 262.5t-61.5 398q0 188 53.5 360.5t151 317.5t230 253t291.5 167.5t335 59.5q190 0 329.5 -69t230.5 -183t135.5 -251.5t44.5 -274.5q0 -120 -34.5 -238t-101.5 -214.5t-165.5 -154.5t-226.5 -58q-67 0 -111 26t-67.5 68.5
t-29 92.5t5.5 96l144 620h180l-145 -620q-2 -12 -10 -41t-13.5 -64.5t-2 -69t24 -55.5t64.5 -22q104 0 189 54t146.5 145t94.5 204t33 231q0 134 -42.5 267t-130.5 243t-223 176.5t-320 66.5q-170 0 -325 -58.5t-284.5 -164t-224.5 -247.5t-147.5 -311t-52.5 -352
q0 -229 59.5 -387t160 -254.5t226 -140t257.5 -43.5q161 0 291 32t234.5 96.5t189.5 162.5l17 -16q-126 -147 -306.5 -223.5t-425.5 -76.5zM868 141q-79 0 -147.5 36.5t-110.5 107.5t-42 175q0 113 39 219.5t105.5 192t150.5 136.5t173 51q63 0 103.5 -33t64.5 -86.5
t33.5 -116.5t9.5 -125q0 -111 -30 -211.5t-82.5 -178.5t-121 -122.5t-145.5 -44.5zM900 173q60 0 118.5 42.5t105 115.5t74.5 166.5t28 193.5q0 32 -5 87t-21.5 112t-51 96.5t-94.5 39.5q-55 0 -106.5 -54t-91 -140.5t-63 -186.5t-23.5 -193q0 -67 11.5 -131t40 -106
t78.5 -42z" />
    <glyph glyph-name="A" unicode="A" horiz-adv-x="1515" 
d="M419 476v25h643v-25h-643zM792 1529l521 -1504h151v-25h-580v25h210l-397 1231l-430 -1231h225v-25h-440v25h187l527 1504h26z" />
    <glyph glyph-name="B" unicode="B" horiz-adv-x="1290" 
d="M52 0v25h599q86 0 159 49t117.5 138t44.5 208t-44.5 193.5t-117.5 109.5t-158 35h-240v16h260q141 0 259 -34.5t189 -112t71 -207.5q0 -225 -138.5 -322.5t-380.5 -97.5h-620zM231 10v1480h191v-1480h-191zM412 766v17h220q76 0 144.5 32t112 103.5t43.5 190.5
t-43.5 200.5t-112 123.5t-144.5 42h-580v25h580q227 0 363.5 -87.5t136.5 -282.5t-129 -279.5t-371 -84.5h-220z" />
    <glyph glyph-name="C" unicode="C" horiz-adv-x="1392" 
d="M779 -20q-203 0 -356 99.5t-238 273.5t-85 397t85 397t238 273.5t356 99.5q100 0 190 -35t157 -98l111 113h23v-410h-26q-3 119 -65.5 208.5t-160.5 139.5t-209 50q-130 0 -220 -63t-145 -169t-80 -238t-25 -268t25 -268t80 -238t145 -169t220 -63q101 0 183.5 31t143 86
t93.5 127t35 154h26v-410h-23l-101 121q-68 -65 -165 -103t-212 -38z" />
    <glyph glyph-name="D" unicode="D" horiz-adv-x="1430" 
d="M611 1500q223 0 384.5 -98.5t249 -268.5t87.5 -383q0 -160 -52.5 -296.5t-148 -238.5t-228 -158.5t-292.5 -56.5h-559v25h179v1450h-179v25h559zM422 25h189q138 0 232 61t151 164.5t82 233.5t25 266t-28 266t-86.5 233.5t-151.5 164.5t-223 61h-190v-1450z" />
    <glyph glyph-name="E" unicode="E" horiz-adv-x="1207" 
d="M52 0v25h179v1450h-179v25h1059v-410h-24q0 107 -32.5 194.5t-104 139t-188.5 51.5h-340v-1450h320q137 0 216.5 53.5t114 149t34.5 222.5h25v-450h-1080zM747 557q0 67 -27.5 113t-74 69.5t-103.5 23.5h-181v25h181q57 0 103.5 21.5t74 65.5t27.5 111h25v-429h-25z" />
    <glyph glyph-name="F" unicode="F" horiz-adv-x="1167" 
d="M766 536q0 67 -27.5 111t-83.5 65.5t-142 21.5h-131v24h131q86 0 142 19t83.5 60t27.5 108h25v-409h-25zM1092 1500v-410h-25q0 107 -32.5 194.5t-104 139t-188.5 51.5h-320v-1450h200v-25h-570v25h179v1450h-179v25h1040z" />
    <glyph glyph-name="G" unicode="G" horiz-adv-x="1455" 
d="M879 584h541v-28h-121v-226q-23 -47 -66 -107t-109.5 -115.5t-159 -91.5t-214.5 -36q-208 0 -353.5 99.5t-221 273.5t-75.5 397q0 167 48.5 307.5t138.5 244.5t215 161t277 57q100 0 190 -35t156 -97l112 112h23v-410h-26q-2 91 -38.5 164t-97.5 125.5t-138 80.5t-161 28
q-130 0 -220 -63t-145 -169.5t-80 -238t-25 -267.5t18.5 -269t65 -240t128.5 -171.5t209 -64.5q93 0 155 31.5t100 74.5t57.5 83t27.5 56v306h-211v28z" />
    <glyph glyph-name="H" unicode="H" horiz-adv-x="1503" 
d="M1452 1500v-25h-181v-1450h181v-25h-570v25h200v702h-660v-702h200v-25h-570v25h179v1450h-179v25h570v-25h-200v-722h660v722h-200v25h570z" />
    <glyph glyph-name="I" unicode="I" horiz-adv-x="753" 
d="M52 0v25h219v1450h-219v25h650v-25h-240v-1450h240v-25h-650z" />
    <glyph glyph-name="J" unicode="J" horiz-adv-x="877" 
d="M826 1500v-25h-200v-1135q-15 -53 -40 -121t-64.5 -132t-99.5 -106t-146 -42q-77 0 -131 33t-82.5 83t-28.5 100q0 42 16 71t42 44t56 15q25 0 51 -12t44 -38t18 -67q0 -39 -17 -64t-44 -36t-57 -9q-22 1 -43.5 15.5t-28.5 37.5q10 -36 36 -69.5t66.5 -54.5t93.5 -21
q72 0 108.5 45t49 137t12.5 231v1095h-260v25h649z" />
    <glyph glyph-name="K" unicode="K" horiz-adv-x="1387" 
d="M246 434l772 1041h-226v25h479v-25h-216l-773 -1041h-36zM52 0v25h179v1450h-179v25h570v-25h-200v-1450h200v-25h-570zM742 0v25h210l-433 764l123 158l549 -922h170v-25h-619z" />
    <glyph glyph-name="L" unicode="L" horiz-adv-x="1178" 
d="M52 0v25h179v1450h-179v25h549v-25h-179v-1450h309q118 0 190.5 30.5t110.5 86.5t51 134.5t13 173.5h25v-450h-1069z" />
    <glyph glyph-name="M" unicode="M" horiz-adv-x="1707" 
d="M774 -20l-556 1520h191l462 -1247l436 1247h27l-530 -1520h-30zM230 1500v-1475h151v-25h-320v25h144v1450h-153v25h178zM1657 1500v-25h-140v-1450h140v-25h-491v25h161v1475h330z" />
    <glyph glyph-name="N" unicode="N" horiz-adv-x="1512" 
d="M280 1500v-1475h238v-25h-466v25h202v1450h-202v25h228zM1461 1500v-25h-210v-1495h-34l-955 1520h229l735 -1193v1168h-235v25h470z" />
    <glyph glyph-name="O" unicode="O" horiz-adv-x="1478" 
d="M740 -20q-153 0 -271.5 59.5t-201 165.5t-125 245.5t-42.5 299.5t45 299.5t129.5 245.5t202.5 165.5t263 59.5t262.5 -59.5t202 -165.5t129.5 -245.5t45 -299.5t-42.5 -299.5t-125 -245.5t-201 -165.5t-270.5 -59.5zM740 3q130 0 211 64.5t124 172.5t59 241t16 269
t-18.5 269t-64 241t-125 172.5t-202.5 64.5t-203 -64.5t-125.5 -172.5t-64 -241t-18.5 -269t16 -269t59 -241t124 -172.5t212 -64.5z" />
    <glyph glyph-name="P" unicode="P" horiz-adv-x="1257" 
d="M641 1500q181 0 296 -52.5t170 -148t55 -225.5t-55 -222.5t-170 -142t-296 -49.5h-219v-635h179v-25h-549v25h179v1450h-179v25h589zM422 685h219q72 0 128 35t94 92.5t58 126t20 135.5t-20 137t-58 130t-94 97t-128 37h-219v-790z" />
    <glyph glyph-name="Q" unicode="Q" horiz-adv-x="1478" 
d="M1079 -500q-160 0 -252.5 29.5t-137 90t-57 154t-12.5 223.5q59 -10 114.5 -10t115.5 10q0 -136 7.5 -227.5t31 -145t69 -76.5t121.5 -23v-25zM740 -20q-153 0 -271.5 59.5t-201 165.5t-125 245.5t-42.5 299.5t45 299.5t129.5 245.5t202.5 165.5t263 59.5t262.5 -59.5
t202 -165.5t129.5 -245.5t45 -299.5t-42.5 -299.5t-125 -245.5t-201 -165.5t-270.5 -59.5zM740 3q130 0 211 64.5t124 172.5t59 241t16 269t-18.5 269t-64 241t-125 172.5t-202.5 64.5t-203 -64.5t-125.5 -172.5t-64 -241t-18.5 -269t16 -269t59 -241t124 -172.5t212 -64.5z
" />
    <glyph glyph-name="R" unicode="R" horiz-adv-x="1422" 
d="M412 760v15h300q96 0 163 41.5t102 119t35 186.5t-35 188.5t-102 122t-163 42.5h-660v25h660q151 0 263.5 -40.5t174.5 -124t62 -213.5t-58 -209.5t-169.5 -116t-272.5 -36.5h-300zM52 0v25h630v-25h-630zM271 13v1470h191v-1470h-191zM1202 -10q-87 0 -135.5 32
t-70.5 86.5t-27.5 122t-6.5 139.5t-8 139.5t-31 122t-76.5 86.5t-144.5 32h-290v14h330q144 0 229.5 -40.5t128.5 -106.5t57.5 -145.5t15.5 -159t4 -145.5t21.5 -106t69.5 -40q32 0 58 6.5t47 16.5l9 -23q-24 -13 -71 -22t-109 -9z" />
    <glyph glyph-name="S" unicode="S" horiz-adv-x="1137" 
d="M603 -29q-132 0 -225 41t-154 111l-100 -143h-21v411h24q17 -85 52 -157t91 -125t134 -82.5t182 -29.5q106 0 184.5 37t121.5 108t43 174q0 88 -43.5 148.5t-115 105.5t-157 83t-171.5 79.5t-157 96.5t-115 132.5t-44 188.5q0 110 56.5 193.5t150.5 130t208 46.5
q100 0 182.5 -31.5t142.5 -97.5l99 129h21v-411h-24q-20 131 -76 215.5t-139 125.5t-187 41q-143 0 -217 -69.5t-74 -183.5q0 -79 42.5 -134.5t112.5 -97t154 -79t168.5 -81t154.5 -102.5t112.5 -142t42.5 -202q0 -130 -56 -226.5t-159 -149.5t-244 -53z" />
    <glyph glyph-name="T" unicode="T" horiz-adv-x="1313" 
d="M342 0v25h220v1450h-200q-89 0 -144.5 -30.5t-86.5 -86.5t-42.5 -134.5t-11.5 -173.5h-25v450h1210v-450h-25q0 95 -12 173.5t-43 134.5t-87 86.5t-143 30.5h-200v-1450h220v-25h-630z" />
    <glyph glyph-name="U" unicode="U" horiz-adv-x="1428" 
d="M1373 1500v-25h-193v-1015q0 -247 -108 -368t-345 -121q-259 0 -379.5 115t-120.5 374v1015h-179v25h570v-25h-200v-995q0 -99 14.5 -186t52 -152.5t106 -102.5t176.5 -37q128 0 214.5 48.5t130.5 149.5t44 260v1015h-186v25h403z" />
    <glyph glyph-name="V" unicode="V" horiz-adv-x="1517" 
d="M1466 1500v-25h-173l-542 -1504h-29l-523 1504h-147v25h580v-25h-213l402 -1237l442 1237h-251v25h454z" />
    <glyph glyph-name="W" unicode="W" horiz-adv-x="1980" 
d="M686 -20l-465 1495h-185v25h1414v-25h-493l370 -1195l424 1195h-200v25h394v-25h-165l-531 -1495h-27l-464 1495h-337l372 -1195l203 557l14 -44l-297 -813h-27zM1107 947l-22 21l175 522l27 -7z" />
    <glyph glyph-name="X" unicode="X" horiz-adv-x="1502" 
d="M896 0v25h184l-842 1450h-135v25h560v-25h-193l851 -1450h142v-25h-567zM34 0v25h207l511 809l19 -17l-499 -792h236v-25h-474zM754 793l403 682h-239v25h435v-25h-167l-413 -701z" />
    <glyph glyph-name="Y" unicode="Y" horiz-adv-x="1443" 
d="M463 0v25h180v695l-461 755h-148v25h580v-25h-212l415 -687l394 687h-220v25h413v-25h-163l-408 -709v-741h201v-25h-571z" />
    <glyph glyph-name="Z" unicode="Z" horiz-adv-x="1131" 
d="M40 0v25l790 1450h-376q-137 0 -211.5 -34t-104.5 -104t-30 -177h-24v340h956v-25l-790 -1450h435q137 0 212 36t104 114t29 205h25v-380h-1015z" />
    <glyph glyph-name="bracketleft" unicode="[" horiz-adv-x="649" 
d="M109 -300v1861h181v-1861h-181zM109 -300v25h481v-25h-481zM109 1535v26h481v-26h-481z" />
    <glyph glyph-name="backslash" unicode="\" horiz-adv-x="1049" 
d="M942 -300l-862 1861h28l862 -1861h-28z" />
    <glyph glyph-name="bracketright" unicode="]" horiz-adv-x="649" 
d="M360 -301v1861h181v-1861h-181zM60 -301v26h481v-26h-481zM60 1535v25h481v-25h-481z" />
    <glyph glyph-name="asciicircum" unicode="^" horiz-adv-x="1089" 
d="M215 1246l-15 14l280 280h129l282 -280l-16 -14l-331 199z" />
    <glyph glyph-name="underscore" unicode="_" horiz-adv-x="1119" 
d="M-11 -312v24h1140v-24h-1140z" />
    <glyph glyph-name="grave" unicode="`" horiz-adv-x="1000" 
d="M644 1686l-268 131q-16 9 -25.5 25.5t-10 36.5t8.5 36q10 17 29 27t42 8t41 -24l198 -223z" />
    <glyph glyph-name="a" unicode="a" horiz-adv-x="1046" 
d="M841 -20q-47 0 -87.5 15t-65.5 52.5t-25 105.5v456q0 72 -11.5 141t-49.5 114t-118 45q-50 0 -101 -11.5t-94 -34t-69.5 -55.5t-26.5 -76h-29q0 51 33.5 80.5t73.5 29.5q43 0 78.5 -27.5t35.5 -78.5q0 -60 -36.5 -87t-77.5 -27q-46 0 -77.5 28t-31.5 82q0 47 30 84.5
t81 64t115.5 41t132.5 14.5q138 0 206 -48t90.5 -123t22.5 -156v-503q0 -34 12.5 -58.5t52.5 -24.5q30 0 66 26.5t56 69.5l12 -22q-26 -51 -77.5 -84t-120.5 -33zM377 -20q-130 0 -207.5 66.5t-77.5 180.5q0 134 114 208.5t327 74.5h223v-22h-223q-88 0 -140.5 -39.5
t-76 -97t-23.5 -112.5q0 -50 14 -99.5t45.5 -82.5t84.5 -33q57 0 109 36.5t84.5 111.5t32.5 192h15q0 -114 -33 -200.5t-99.5 -135t-168.5 -48.5z" />
    <glyph glyph-name="b" unicode="b" horiz-adv-x="1208" 
d="M693 -20q-127 0 -209 91.5t-109 250.5v-322h-306v25h127v1450h-127v25h306v-902q27 160 109 250t209 90q107 0 202 -57t154.5 -164t59.5 -257t-59.5 -257.5t-154.5 -165t-202 -57.5zM659 18q80 0 134 54.5t81.5 154t27.5 233.5t-27.5 233t-81.5 153t-134 54
q-76 0 -140.5 -50.5t-104 -148.5t-39.5 -241t39.5 -241.5t104 -149.5t140.5 -51z" />
    <glyph glyph-name="c" unicode="c" horiz-adv-x="1017" 
d="M555 -20q-131 0 -234 57.5t-162 165t-59 257.5q0 130 53.5 239t157 175t254.5 66q102 0 176 -35.5t114 -93t40 -125.5q0 -54 -31 -84t-77 -30q-25 0 -51.5 11.5t-44.5 36t-18 64.5q0 53 34 80.5t80 27.5q43 0 74.5 -26.5t31.5 -79.5h-24q0 54 -24.5 96t-66 71.5t-92 44.5
t-101.5 15q-87 0 -141.5 -43.5t-84 -112.5t-40 -147.5t-10.5 -149.5q0 -86 11.5 -166.5t40 -144t79 -101t129.5 -37.5q86 0 147.5 33.5t103 92.5t68.5 134h27q-39 -124 -123.5 -207.5t-236.5 -83.5z" />
    <glyph glyph-name="d" unicode="d" horiz-adv-x="1208" 
d="M517 -19q-107 0 -202 57t-155 164t-60 257t60 257.5t155 165t202 57.5q127 0 208 -91t107 -250v877h-126v25h307v-1475h126v-25h-307v321q-26 -159 -107 -249.5t-208 -90.5zM550 19q76 0 140 51t103 149t39 240q0 143 -39 241.5t-103 150t-140 51.5q-81 0 -135 -55
t-81 -154.5t-27 -233.5t27 -232.5t81 -153t135 -54.5z" />
    <glyph glyph-name="e" unicode="e" horiz-adv-x="1050" 
d="M559 -20q-130 0 -233.5 57.5t-164.5 165t-61 257.5t58.5 257.5t159.5 164.5t231 57q147 0 235 -58t128 -153t40 -204h-718v25h506q0 53 -6 116.5t-25 120t-57 93t-103 36.5q-73 0 -120 -38.5t-73.5 -103.5t-37.5 -146t-11 -167t11.5 -167t40.5 -145t80.5 -102t130.5 -38
q143 0 234.5 76t128.5 187h29q-39 -124 -139 -207.5t-264 -83.5z" />
    <glyph glyph-name="f" unicode="f" horiz-adv-x="785" 
d="M226 0v1023q0 131 44.5 244.5t132 183t217.5 69.5q81 0 135.5 -30t82.5 -75.5t28 -92.5q0 -61 -34.5 -92.5t-80.5 -31.5q-25 0 -50.5 10.5t-43 34.5t-17.5 64q0 53 37 82t74 29q27 0 53 -11.5t43 -33t17 -51.5h-23q0 45 -27 84.5t-76.5 64t-117.5 24.5q-80 0 -127 -51
t-67 -144t-20 -220v-1080h-180zM60 0v25h572v-25h-572zM60 895v25h612v-25h-612z" />
    <glyph glyph-name="g" unicode="g" horiz-adv-x="1180" 
d="M507 -520q-89 0 -168 15.5t-140.5 48.5t-96 84t-34.5 122q0 68 31 114t77 73.5t94 39.5t82 12h18q-68 -37 -91.5 -91t-23.5 -127q0 -63 30.5 -123.5t92 -100t154.5 -39.5q77 0 143.5 20t116.5 57.5t78.5 90t28.5 117.5q0 61 -34 103t-89.5 64t-120.5 22h-66.5h-91.5h-68
q-135 0 -216 37.5t-81 125.5q0 52 29 91t79 65t114 39t135 13l-1 -18q-32 0 -69.5 -7.5t-71.5 -23t-55.5 -38.5t-21.5 -54q0 -52 55 -62.5t137 -10.5q35 0 61.5 0.5t51 1t52.5 0.5q56 0 113 -10t104.5 -41t76 -91.5t28.5 -162.5q0 -93 -36.5 -160t-99.5 -110t-142 -64.5
t-164 -21.5zM476 330q-61 0 -124 16.5t-116 53t-85.5 94.5t-32.5 141t32.5 141t85.5 93.5t116 52.5t124 17t122.5 -17t112.5 -52.5t82 -93.5t31 -141t-31 -141t-82 -94.5t-112.5 -53t-122.5 -16.5zM476 355q59 0 97 39t56 103t18 138t-18 137.5t-56 102.5t-97 39t-96.5 -39
t-56 -102.5t-18.5 -137.5t10 -138t46 -103t115 -39zM1015 669q-37 0 -69 26t-32 75q0 50 32.5 71.5t68.5 21.5q37 0 70.5 -21.5t33.5 -62.5h-23q0 46 -34.5 86.5t-100.5 40.5q-39 0 -86.5 -19t-89 -66.5t-61.5 -133.5l-18 12q20 90 65 140t96.5 70.5t91.5 20.5
q49 0 85.5 -22t56.5 -56.5t20 -72.5q0 -64 -34 -87t-72 -23z" />
    <glyph glyph-name="h" unicode="h" horiz-adv-x="1177" 
d="M69 0v25h127v1450h-127v25h306v-1475h126v-25h-432zM680 0v25h125v587q0 84 -7 151t-33 106t-81 39q-92 0 -152 -46.5t-94.5 -118.5t-48.5 -151t-14 -144l-16 -7q0 68 13.5 153t50 164t105 130t176.5 51q116 0 176 -39t81.5 -106.5t21.5 -154.5v-614h127v-25h-430z" />
    <glyph glyph-name="i" unicode="i" horiz-adv-x="590" 
d="M296 1276q-49 0 -84.5 35.5t-35.5 85.5q0 49 35.5 84.5t84.5 35.5q50 0 85 -35.5t35 -84.5q0 -50 -35 -85.5t-85 -35.5zM385 920v-895h127v-25h-433v25h126v870h-126v25h306z" />
    <glyph glyph-name="j" unicode="j" horiz-adv-x="599" 
d="M102 -520q-81 0 -135.5 31t-82.5 81t-28 106q0 62 34 93t80 31q25 0 50.5 -10.5t43 -34t17.5 -63.5q0 -38 -32 -73.5t-82 -35.5q-29 0 -54 11t-40 31.5t-15 50.5h23q0 -52 25.5 -96t72.5 -70.5t112 -26.5q68 0 99.5 47t40.5 125t7 173t-2 190v855h-167v25h346v-943
q0 -98 -12.5 -187.5t-46.5 -159t-95 -110t-159 -40.5zM310 1279q-49 0 -84.5 36t-35.5 85q0 50 35.5 85t84.5 35q50 0 84.5 -35t34.5 -85q0 -49 -34.5 -85t-84.5 -36z" />
    <glyph glyph-name="k" unicode="k" horiz-adv-x="1197" 
d="M69 0v25h167v1450h-167v25h346v-1475h140v-25h-486zM688 0v25h141l-426 499l470 371h-212v25h418v-25h-172l-356 -284l501 -586h96v-25h-460z" />
    <glyph glyph-name="l" unicode="l" horiz-adv-x="650" 
d="M415 1500v-1475h166v-25h-512v25h167v1450h-167v25h346z" />
    <glyph glyph-name="m" unicode="m" horiz-adv-x="1707" 
d="M373 920v-895h125v-25h-429v25h127v870h-127v25h304zM943 639v-614h126v-25h-429v25h126v591q0 84 -6 150t-30 104t-78 38q-79 0 -133 -47t-86 -118.5t-46 -149.5t-14 -141l-15 -7q0 68 13.5 152.5t48.5 163t98.5 128.5t163.5 50q101 0 158 -39t80 -106.5t23 -154.5z
M1513 639v-614h126v-25h-430v25h126v591q0 84 -7 150t-32 104t-79 38q-81 0 -134.5 -47t-83.5 -118.5t-43 -149.5t-13 -141l-16 -7q0 68 12 152.5t45.5 163t97 128.5t164.5 50t159.5 -39t83 -106.5t24.5 -154.5z" />
    <glyph glyph-name="n" unicode="n" horiz-adv-x="1177" 
d="M373 920v-895h125v-25h-429v25h127v870h-127v25h304zM983 639v-614h127v-25h-430v25h125v587q0 84 -7 151t-33 106t-81 39q-92 0 -152.5 -46.5t-95 -118.5t-49 -151t-14.5 -144l-17 -7q0 68 14 153t50.5 164t105.5 130t180 51q116 0 175.5 -39t80.5 -106.5t21 -154.5z
" />
    <glyph glyph-name="o" unicode="o" horiz-adv-x="1115" 
d="M558 -20q-141 0 -243.5 66t-158.5 175t-56 239t56 239t158.5 174.5t243.5 65.5t244 -65.5t158.5 -174.5t55.5 -239t-55.5 -239t-158.5 -175t-244 -66zM558 5q81 0 131 44t76 113t35 148.5t9 149.5q0 71 -9 150t-35 148t-76 113t-131 44t-131 -44t-75.5 -113t-35 -148
t-9.5 -150q0 -70 9.5 -149.5t35 -148.5t75.5 -113t131 -44z" />
    <glyph glyph-name="p" unicode="p" horiz-adv-x="1208" 
d="M69 -500v25h127v1370h-127v25h306v-322q27 160 109 250t209 90q107 0 202 -57t154.5 -164t59.5 -257t-59.5 -257.5t-154.5 -165t-202 -57.5q-127 0 -209 91.5t-109 250.5v-797h126v-25h-432zM659 18q80 0 134 54.5t81.5 154t27.5 233.5t-27.5 233t-81.5 153t-134 54
q-76 0 -140.5 -50.5t-104 -148.5t-39.5 -241t39.5 -241.5t104 -149.5t140.5 -51z" />
    <glyph glyph-name="q" unicode="q" horiz-adv-x="1208" 
d="M706 -500v25h126v796q-26 -159 -107 -249.5t-208 -90.5q-107 0 -202 57t-155 164t-60 257t60 257.5t155 165t202 57.5q127 0 208 -91t107 -250v322h307v-25h-126v-1370h126v-25h-433zM550 19q76 0 140 51t103 149t39 240q0 143 -39 241.5t-103 150t-140 51.5
q-81 0 -135 -55t-81 -154.5t-27 -233.5t27 -232.5t81 -153t135 -54.5z" />
    <glyph glyph-name="r" unicode="r" horiz-adv-x="869" 
d="M358 436q0 90 15 179.5t49 162.5t88 117t132 44q55 0 95 -21.5t60.5 -56.5t20.5 -76q0 -51 -30.5 -86.5t-84.5 -35.5t-85.5 30t-31.5 75q0 58 37 86.5t80 28.5q32 0 58 -13t41 -35.5t15 -49.5h-25q0 36 -19.5 65.5t-54 46.5t-78.5 17q-68 0 -118.5 -41t-83.5 -110.5
t-49 -154.5t-16 -172h-15zM373 920v-895h133v-25h-437v25h127v870h-127v25h304z" />
    <glyph glyph-name="s" unicode="s" horiz-adv-x="882" 
d="M98 -20v287h25q7 -71 53 -130t115.5 -94.5t149.5 -35.5q57 0 110 18t86 57t33 103q0 63 -39 99.5t-101.5 60t-132 45.5t-132 54t-102 86.5t-39.5 144.5q0 64 29.5 124t90.5 99.5t156 39.5q70 0 128 -23t101 -60l81 84h23v-279h-26q-3 61 -42.5 119t-107.5 95.5t-155 37.5
q-52 0 -94.5 -17t-67.5 -49t-25 -78q0 -57 41.5 -92t107 -60t138.5 -49t138.5 -58.5t107 -89t41.5 -139.5q0 -89 -44 -156.5t-119.5 -105.5t-170.5 -38q-72 0 -136 24.5t-113 66.5l-87 -91h-21z" />
    <glyph glyph-name="t" unicode="t" horiz-adv-x="674" 
d="M377 -14q-82 0 -122 36.5t-53.5 91t-13.5 109.5v897q45 0 97.5 19t82.5 41v-1017q0 -75 18 -100.5t59 -25.5q52 0 99.5 48t75.5 110l21 -13q-38 -87 -103.5 -141.5t-160.5 -54.5zM49 895v25h533v-25h-533z" />
    <glyph glyph-name="u" unicode="u" horiz-adv-x="1180" 
d="M475 -20q-116 0 -176 39.5t-81.5 107.5t-21.5 155v613h-127v25h306v-612q0 -84 7.5 -151t33.5 -106t82 -39q91 0 151.5 46.5t94.5 118.5t47.5 151t13.5 144l16 7q0 -68 -12.5 -153t-48 -164t-104 -130.5t-181.5 -51.5zM805 0v895h-140v25h321v-895h126v-25h-307z" />
    <glyph glyph-name="v" unicode="v" horiz-adv-x="1093" 
d="M1050 920v-25h-130l-376 -915h-27l-375 915h-113v25h481v-25h-170l266 -690l283 690h-183v25h344z" />
    <glyph glyph-name="w" unicode="w" horiz-adv-x="1529" 
d="M1486 920v-25h-159l-307 -915h-24l-242 697l-295 -697h-27l-290 915h-113v25h446v-25h-155l212 -676l305 720h28l218 -687l215 643h-186v25h374z" />
    <glyph glyph-name="x" unicode="x" horiz-adv-x="1138" 
d="M670 0v25h110l-598 870h-113v25h465v-25h-135l597 -870h94v-25h-420zM49 0v25h133l696 870h-164v25h346v-25h-151l-696 -870h193v-25h-357z" />
    <glyph glyph-name="y" unicode="y" horiz-adv-x="1098" 
d="M320 895l344 -709l-95 -227l-449 936h-91v25h449v-25h-158zM1089 920v-25h-121l-537 -1291q-27 -61 -57 -96t-87 -35q-25 0 -51 11t-44 34.5t-18 61.5q0 33 14.5 58t39.5 39t57 14q27 0 51 -12.5t40 -34.5t20 -51l541 1302h-163v25h315z" />
    <glyph glyph-name="z" unicode="z" horiz-adv-x="932" 
d="M60 0v25l556 870h-195q-114 0 -174.5 -37.5t-83 -109t-22.5 -172.5h-25v344h714v-25l-558 -870h238q103 0 167.5 18.5t99.5 59.5t48 106.5t13 158.5h24v-368h-802z" />
    <glyph glyph-name="braceleft" unicode="{" horiz-adv-x="543" 
d="M484 1561v-26q-62 0 -104 -34t-63 -89t-21 -118q0 -76 17 -136t33.5 -128.5t16.5 -168.5q0 -79 -30.5 -122.5t-84.5 -66t-124 -41.5q70 -19 124 -42t84.5 -65.5t30.5 -123.5q0 -100 -16.5 -168t-33.5 -128t-17 -136q0 -63 21 -118.5t63 -90t104 -34.5v-25
q-145 0 -226.5 33t-115 95.5t-33.5 151.5q0 103 18.5 175t42.5 125.5t42 98t18 92.5q0 61 -37.5 96.5t-83.5 50.5v25q46 15 83.5 51.5t37.5 97.5q0 47 -18 91.5t-42 98t-42.5 125.5t-18.5 175q0 89 33.5 151t115 95t226.5 33z" />
    <glyph glyph-name="bar" unicode="|" horiz-adv-x="469" 
d="M223 -500v2061h24v-2061h-24z" />
    <glyph glyph-name="braceright" unicode="}" horiz-adv-x="543" 
d="M435 625q-74 20 -131.5 42.5t-90 66t-32.5 126.5q0 100 16.5 168t33.5 128t17 136q0 63 -21 118.5t-63 90t-104 34.5v25q145 0 226.5 -33t115 -95.5t33.5 -151.5q0 -103 -18.5 -175t-42.5 -125.5t-42 -98t-18 -92.5q0 -61 37.5 -96.5t83.5 -50.5v-17zM60 -301v26
q62 0 104 34t63 89t21 118q0 76 -17 136t-33.5 128.5t-16.5 168.5q0 83 32.5 126t90 65.5t131.5 42.5v-16q-46 -15 -83.5 -51t-37.5 -98q0 -47 18 -91.5t42 -98t42.5 -125.5t18.5 -175q0 -89 -33.5 -151t-115 -95t-226.5 -33z" />
    <glyph glyph-name="asciitilde" unicode="~" horiz-adv-x="1375" 
d="M878 686q-76 0 -124.5 19t-82 47t-64 56t-70 47t-101.5 19q-53 0 -101.5 -17t-79 -58t-30.5 -113h-25q0 115 41.5 189t109.5 109.5t147 35.5q66 0 110.5 -19t78 -47t65 -56t71 -47t97.5 -19q63 0 115.5 17t84 58t31.5 113h25q0 -115 -41.5 -189t-109.5 -109.5t-147 -35.5
z" />
    <glyph glyph-name="uni007F" 
 />
    <glyph glyph-name="uni00A0" unicode="&#xa0;" 
 />
    <glyph glyph-name="exclamdown" unicode="&#xa1;" horiz-adv-x="637" 
d="M324 -476q-70 0 -95 46t-25 115q0 9 1 18t1 19q8 132 25.5 247.5t36 223t31.5 213.5t13 218h24q0 -112 13.5 -218t32 -213.5t35.5 -223t25 -247.5v-19v-18q0 -69 -23.5 -115t-94.5 -46zM322 819q-33 0 -60 16.5t-43.5 44t-16.5 60.5t16.5 60.5t43.5 43.5t60 16t60.5 -16
t43.5 -43.5t16 -60.5t-16 -60.5t-43.5 -44t-60.5 -16.5z" />
    <glyph glyph-name="cent" unicode="&#xa2;" horiz-adv-x="1017" 
d="M555 -20q-131 0 -234 57.5t-162 165t-59 257.5q0 130 53.5 239t157 175t254.5 66q102 0 176 -35.5t114 -93t40 -125.5q0 -54 -31 -84t-77 -30q-25 0 -51.5 11.5t-44.5 36t-18 64.5q0 53 34 80.5t80 27.5q43 0 74.5 -26.5t31.5 -79.5h-24q0 54 -24.5 96t-66 71.5t-92 44.5
t-101.5 15q-87 0 -141.5 -43.5t-84 -112.5t-40 -147.5t-10.5 -149.5q0 -86 11.5 -166.5t40 -144t79 -101t129.5 -37.5q86 0 147.5 33.5t103 92.5t68.5 134h27q-39 -124 -123.5 -207.5t-236.5 -83.5zM550 -170v1279h25v-1279h-25z" />
    <glyph glyph-name="sterling" unicode="&#xa3;" horiz-adv-x="1250" 
d="M145 -40q-12 83 10.5 152.5t61.5 128t81 107.5t71 92t29 81q0 86 -24.5 155.5t-56.5 134t-56.5 134t-24.5 155.5q0 140 66 233t185.5 140t280.5 47q122 0 208.5 -28t141.5 -75t81 -105.5t26 -120.5q0 -41 -17.5 -68.5t-44.5 -41t-58 -13.5q-25 0 -51 11.5t-44 36
t-18 64.5q0 35 16 59.5t42 37.5t55 13t56 -12t44.5 -34.5t17.5 -52.5h-22q0 60 -25 114.5t-76.5 98t-130.5 69t-189 25.5q-104 0 -167.5 -37.5t-97 -96t-45.5 -123.5t-12 -121q0 -74 17 -137.5t39 -120t39 -111t17 -110.5q0 -90 -30.5 -154t-78.5 -113t-101 -91.5
t-98.5 -87.5t-72 -101t-20.5 -134h-24zM863 -61q-102 0 -174 18.5t-125.5 42.5t-98 42.5t-91.5 18.5q-41 0 -84.5 -12.5t-76.5 -35t-43 -53.5h-14q15 56 38.5 99t58 73t81.5 45.5t109 15.5q75 0 131 -10t103.5 -23.5t94.5 -23.5t104 -10q47 0 100 6.5t99 26t75 57t29 98.5
h25q0 -145 -48 -226.5t-126 -115t-167 -33.5zM29 785v26h901v-26h-901z" />
    <glyph glyph-name="currency" unicode="&#xa4;" horiz-adv-x="1140" 
d="M94 275l-18 18l157 157q-121 129 -121 320t121 319l-158 157l19 19l157 -158q59 57 140 89.5t180 32.5t180 -32.5t139 -88.5l157 156l18 -18l-157 -157q120 -127 120 -319q0 -190 -119 -320l156 -156l-19 -19l-155 157q-59 -56 -140 -89t-180 -33t-180.5 32.5
t-139.5 89.5zM571 338q133 0 228.5 59.5t147 158t51.5 214.5t-51.5 214.5t-147 157.5t-228.5 59t-229 -59t-148 -157.5t-52 -214.5t52 -214.5t148 -158t229 -59.5z" />
    <glyph glyph-name="yen" unicode="&#xa5;" horiz-adv-x="1443" 
d="M643 0v721l-476 779h220l430 -712l408 708h30l-422 -730v-766h-190zM463 0v25h571v-25h-571zM333 329v24h880v-24h-880zM333 630v24h880v-24h-880zM34 1475v25h580v-25h-580zM991 1475v25h413v-25h-413z" />
    <glyph glyph-name="brokenbar" unicode="&#xa6;" horiz-adv-x="439" 
d="M213 -500v832h24v-832h-24zM213 818v742h24v-742h-24z" />
    <glyph glyph-name="section" unicode="&#xa7;" horiz-adv-x="893" 
d="M228 1309q0 -63 43.5 -107t112.5 -77.5t146.5 -65t146.5 -69.5t112.5 -90.5t43.5 -129.5q0 -62 -31 -107.5t-80 -82t-103 -72.5l-19 4q52 38 80.5 73t28.5 81q0 66 -42.5 107.5t-109 71.5t-141.5 58.5t-142 66.5t-109 96.5t-42 149.5q0 104 51.5 171.5t127.5 100
t151 32.5q66 0 128 -16.5t112 -51.5t79 -91t29 -136q0 -61 -33.5 -103t-86.5 -42q-46 0 -77 28.5t-31 82.5q0 48 35 79.5t79 31.5q27 0 52 -13t34 -32q-8 85 -54.5 137.5t-116.5 76.5t-149 24q-63 0 -114 -27t-81 -69.5t-30 -89.5zM191 834q0 -66 45.5 -104.5t116.5 -63.5
t151 -48.5t151.5 -57.5t116.5 -89.5t45 -146.5q0 -104 -49.5 -181.5t-137.5 -120t-203 -42.5q-66 0 -131 15t-118.5 49t-85.5 92.5t-32 145.5q0 62 33.5 103t85.5 41q46 0 77 -29t31 -83q0 -48 -35 -79t-79 -31q-27 0 -51.5 11.5t-33.5 31.5q7 -69 38.5 -116t79.5 -74.5
t105 -39.5t116 -12q89 0 144 29.5t80.5 75t25.5 92.5q0 63 -43.5 106t-112 75t-145.5 61t-145.5 63.5t-112 83t-43.5 119.5q0 73 32.5 128.5t76 95.5t77.5 66h22q-12 -11 -33.5 -35t-40 -57.5t-18.5 -73.5z" />
    <glyph glyph-name="dieresis" unicode="&#xa8;" horiz-adv-x="1000" 
d="M660 1690q-40 0 -68 28t-28 68t28 68.5t68 28.5t68 -28.5t28 -68.5t-28 -68t-68 -28zM340 1690q-40 0 -68 28t-28 68t28 68.5t68 28.5t68 -28.5t28 -68.5t-28 -68t-68 -28z" />
    <glyph glyph-name="copyright" unicode="&#xa9;" horiz-adv-x="1739" 
d="M890 307q81 0 141.5 32.5t95 87t36.5 119.5h15v-246h-13l-61 73q-41 -40 -99 -62.5t-127 -22.5q-122 0 -214 60t-143 164t-51 238t51 238t143 164t214 60q60 0 114 -21t95 -58l66 67h13v-246h-15q-2 71 -39 125t-96 84t-126 30q-78 0 -132 -38t-87 -102t-48 -142.5
t-15 -160.5t15 -160.5t48 -142.5t87 -102t132 -38zM870 1520q160 0 299.5 -59.5t245.5 -165.5t166 -245.5t60 -299.5t-60 -299.5t-166 -245.5t-245.5 -165.5t-299.5 -59.5t-299.5 59.5t-245.5 165.5t-165.5 245.5t-59.5 299.5t59.5 299.5t165.5 245.5t245.5 165.5
t299.5 59.5zM870 5q154 0 289 58t237.5 160.5t160.5 237.5t58 289t-58 289t-160.5 237.5t-237.5 160.5t-289 58t-289 -58t-237.5 -160.5t-160.5 -237.5t-58 -289t58 -289t160.5 -237.5t237.5 -160.5t289 -58z" />
    <glyph glyph-name="ordfeminine" unicode="&#xaa;" horiz-adv-x="619" 
d="M497 952q-42 0 -74.5 21.5t-32.5 82.5v273q0 44 -7 85t-29.5 68t-70.5 27q-40 0 -80.5 -12t-67.5 -36t-27 -58h-18q0 31 20.5 48.5t44.5 17.5q25 0 46.5 -16.5t21.5 -46.5q0 -36 -22 -52.5t-46 -16.5q-28 0 -47 17t-19 49q0 37 31.5 64.5t80.5 43t104 15.5q82 0 123 -29
t54.5 -74t13.5 -94v-301q0 -21 7.5 -35.5t31.5 -14.5q18 0 39.5 16t33.5 42l8 -14q-16 -30 -47 -50t-72 -20zM218 952q-78 0 -124.5 40t-46.5 108q0 80 68.5 125t196.5 45h133v-13h-133q-53 0 -85 -23.5t-45.5 -58.5t-13.5 -67q0 -45 19.5 -87t66.5 -42q51 0 93.5 49
t42.5 155h9q0 -103 -44.5 -167t-136.5 -64z" />
    <glyph glyph-name="guillemotleft" unicode="&#xab;" horiz-adv-x="1389" 
d="M1270 290l-661 460v50l661 460l13 -12l-422 -473l422 -473zM710 290l-660 460v50l660 460l12 -12l-420 -473l420 -473z" />
    <glyph glyph-name="logicalnot" unicode="&#xac;" horiz-adv-x="971" 
d="M827 406v354h-707v25h732v-379h-25z" />
    <glyph glyph-name="uni00AD" unicode="&#xad;" horiz-adv-x="901" 
d="M800 453h-700v26h700v-26z" />
    <glyph glyph-name="registered" unicode="&#xae;" horiz-adv-x="1739" 
d="M870 -20q-160 0 -299.5 59.5t-245.5 165.5t-165.5 245.5t-59.5 299.5t59.5 299.5t165.5 245.5t245.5 165.5t299.5 59.5t299.5 -59.5t245.5 -165.5t166 -245.5t60 -299.5t-60 -299.5t-166 -245.5t-245.5 -165.5t-299.5 -59.5zM870 5q154 0 289 58t237.5 160.5t160.5 237.5
t58 289t-58 289t-160.5 237.5t-237.5 160.5t-289 58t-289 -58t-237.5 -160.5t-160.5 -237.5t-58 -289t58 -289t160.5 -237.5t237.5 -160.5t289 -58zM1186 290q-69 0 -99 33t-37.5 85t-7.5 110.5t-8.5 110.5t-41 84.5t-106.5 32.5h-144v-435h132v-15h-378v15h132v870h-132v15
h396q136 0 218 -55t82 -172q0 -106 -64 -157t-185 -59q89 -5 136.5 -40t66 -85t21.5 -105.5t3.5 -104.5t11 -79.5t44.5 -30.5q19 0 35 4t28 10l5 -13q-14 -8 -42 -13.5t-66 -5.5zM742 761h150q86 0 133 55t47 153q0 99 -47 155.5t-133 56.5h-150v-420z" />
    <glyph glyph-name="macron" unicode="&#xaf;" horiz-adv-x="1000" 
d="M260 1700v25h480v-25h-480z" />
    <glyph glyph-name="degree" unicode="&#xb0;" horiz-adv-x="639" 
d="M320 1120q-66 0 -120.5 32.5t-87 86.5t-32.5 120t32.5 121t87 87.5t120.5 32.5t120.5 -32.5t87.5 -87.5t33 -121t-33 -120t-87.5 -86.5t-120.5 -32.5zM320 1181q76 0 127.5 51t51.5 127q0 78 -51.5 129t-127.5 51t-127.5 -51t-51.5 -129q0 -76 51.5 -127t127.5 -51z" />
    <glyph glyph-name="plusminus" unicode="&#xb1;" horiz-adv-x="1059" 
d="M233 647v250h593v-250h-593zM121 9v24h819v-24h-819zM404 474v594h250v-594h-250z" />
    <glyph glyph-name="uni00B2" unicode="&#xb2;" horiz-adv-x="939" 
d="M200 914v78l280 256q75 69 110 155t35 171q0 96 -51 162t-129 66q-68 0 -119 -30t-77 -86.5t-18 -133.5h-14q0 24 23.5 42t52.5 18q27 0 49.5 -17.5t22.5 -49.5q0 -36 -21.5 -56.5t-53.5 -20.5q-31 0 -51 23.5t-23 60.5q-13 124 59 199t207 75q127 0 195 -69t68 -159
q0 -45 -12 -82.5t-33 -68.5t-45.5 -57t-49.5 -49l-349 -319h499v90h14v-198h-569z" />
    <glyph glyph-name="uni00B3" unicode="&#xb3;" horiz-adv-x="899" 
d="M407 902q-85 0 -139.5 25t-81 64.5t-26.5 83.5q0 37 20.5 57t51.5 20q27 0 45.5 -17.5t18.5 -49.5q0 -29 -20.5 -46t-47.5 -17q-26 0 -46.5 15t-20.5 38h14q0 -41 24.5 -76.5t70.5 -57t113 -21.5q107 0 155 70t48 164q0 51 -17 106.5t-67.5 94t-151.5 38.5v10
q144 0 221.5 -34.5t106.5 -91.5t29 -123q0 -78 -39.5 -134.5t-107.5 -87t-153 -30.5zM350 1399v9q95 0 137 33.5t52.5 83t10.5 98.5q0 55 -17.5 96.5t-50.5 65t-81 23.5q-36 0 -70 -11.5t-61.5 -31.5t-43 -46.5t-15.5 -57.5h-14q0 27 22.5 41.5t45.5 14.5q27 0 47.5 -16
t20.5 -48q0 -36 -22.5 -51t-45.5 -15q-27 0 -48.5 18.5t-21.5 55.5q0 44 30.5 81t81.5 60t112 23q67 0 124.5 -23t92.5 -68t35 -111q0 -60 -22.5 -111t-91.5 -82t-207 -31z" />
    <glyph glyph-name="acute" unicode="&#xb4;" horiz-adv-x="1000" 
d="M356 1686l-15 17l198 223q19 22 41.5 24t41.5 -8t29 -27q9 -16 8.5 -36t-10 -36.5t-25.5 -25.5z" />
    <glyph glyph-name="uni00B5" unicode="&#xb5;" horiz-adv-x="1180" 
d="M986 920v-895h126v-25h-307v324q-13 -83 -47.5 -162t-101.5 -130.5t-181 -51.5q-124 0 -180.5 48.5t-73.5 126.5v-397q0 -77 32 -131.5t84.5 -84.5t112.5 -37q-24 13 -38.5 50t-14.5 73q0 50 37 88t86 38q50 0 86.5 -38.5t36.5 -95.5q0 -58 -40 -99t-127 -41
q-70 0 -134.5 32t-105 94t-40.5 152v1137h-127v25h306v-612q0 -84 7.5 -151t33.5 -106t82 -39q91 0 151.5 46.5t94.5 118.5t47.5 151t13.5 144v423h-140v25h321z" />
    <glyph glyph-name="paragraph" unicode="&#xb6;" horiz-adv-x="1191" 
d="M596 779q-140 0 -246 42t-165 122.5t-59 195.5t59 195.5t165 123t246 42.5h509v-25h-349v-696h-160zM556 -300v25h549v-25h-549zM742 -300v1800h25v-1800h-25zM901 -300v1800h25v-1800h-25z" />
    <glyph glyph-name="periodcentered" unicode="&#xb7;" horiz-adv-x="395" 
d="M200 680q-33 0 -60 16t-43.5 43.5t-16.5 60.5t16.5 60.5t43.5 44t60 16.5t60.5 -16.5t43.5 -44t16 -60.5t-16 -60.5t-43.5 -43.5t-60.5 -16z" />
    <glyph glyph-name="cedilla" unicode="&#xb8;" horiz-adv-x="1000" 
d="M345 -485v25q89 0 142.5 32.5t53.5 81.5q0 50 -29 75t-79.5 34t-115.5 9l173 233h32l-114 -153q72 -3 134.5 -20t101.5 -51.5t39 -90.5q0 -50 -34 -89.5t-108.5 -62.5t-195.5 -23z" />
    <glyph glyph-name="uni00B9" unicode="&#xb9;" horiz-adv-x="1059" 
d="M430 917v880h-136v15h250v-895h-114zM274 912v15h402v-15h-402z" />
    <glyph glyph-name="ordmasculine" unicode="&#xba;" horiz-adv-x="1115" 
d="M564 950q-85 0 -146.5 39.5t-95 105t-33.5 143.5t33.5 143.5t95 105t146.5 39.5t146.5 -39.5t95 -105t33.5 -143.5t-33.5 -143.5t-95 -105t-146.5 -39.5zM564 965q65 0 97.5 44.5t43 108.5t10.5 120t-10.5 120t-43 108.5t-97.5 44.5t-97.5 -44.5t-43 -108.5t-10.5 -120
t10.5 -120t43 -108.5t97.5 -44.5z" />
    <glyph glyph-name="guillemotright" unicode="&#xbb;" horiz-adv-x="1389" 
d="M681 290l-13 12l421 473l-421 473l13 12l660 -460v-50zM121 290l-13 12l421 473l-421 473l13 12l660 -460v-50z" />
    <glyph glyph-name="onequarter" unicode="&#xbc;" horiz-adv-x="1281" 
d="M75 -200l957 1500h25l-957 -1500h-25zM44 712v15h402v-15h-402zM882 -206v15h114v830l-388 -580h634v-14h-662l434 649h96v-885h90v-15h-318zM200 717v880h-136v15h250v-895h-114z" />
    <glyph glyph-name="onehalf" unicode="&#xbd;" horiz-adv-x="1339" 
d="M75 -200l957 1500h25l-957 -1500h-25zM44 712v15h402v-15h-402zM730 -202v78l280 256q75 69 110 155t35 171q0 96 -51 162t-129 66q-68 0 -119 -30t-77 -86.5t-18 -133.5h-14q0 24 23.5 42t52.5 18q27 0 49.5 -17.5t22.5 -49.5q0 -36 -21.5 -56.5t-53.5 -20.5
q-31 0 -51 23.5t-23 60.5q-13 124 59 199t207 75q127 0 195 -69t68 -159q0 -45 -12 -82.5t-33 -68.5t-45.5 -57t-49.5 -49l-349 -319h499v90h14v-198h-569zM200 717v880h-136v15h250v-895h-114z" />
    <glyph glyph-name="threequarters" unicode="&#xbe;" horiz-adv-x="1401" 
d="M195 -200l957 1500h25l-957 -1500h-25zM287 696q-85 0 -139.5 25t-81 64.5t-26.5 83.5q0 37 20.5 57t51.5 20q27 0 45.5 -17.5t18.5 -49.5q0 -29 -20.5 -46t-47.5 -17q-26 0 -46.5 15t-20.5 38h14q0 -41 24.5 -76.5t70.5 -57t113 -21.5q107 0 155 70t48 164
q0 51 -17 106.5t-67.5 94t-151.5 38.5v10q144 0 221.5 -34.5t106.5 -91.5t29 -123q0 -78 -39.5 -134.5t-107.5 -87t-153 -30.5zM1002 -206v15h114v830l-388 -580h634v-14h-662l434 649h96v-885h90v-15h-318zM230 1193v9q95 0 137 33.5t52.5 83t10.5 98.5q0 55 -17.5 96.5
t-50.5 65t-81 23.5q-36 0 -70 -11.5t-61.5 -31.5t-43 -46.5t-15.5 -57.5h-14q0 27 22.5 41.5t45.5 14.5q27 0 47.5 -16t20.5 -48q0 -36 -22.5 -51t-45.5 -15q-27 0 -48.5 18.5t-21.5 55.5q0 44 30.5 81t81.5 60t112 23q67 0 124.5 -23t92.5 -68t35 -111q0 -60 -22.5 -111
t-91.5 -82t-207 -31z" />
    <glyph glyph-name="questiondown" unicode="&#xbf;" horiz-adv-x="1099" 
d="M558 -480q-141 0 -246 50t-163.5 140t-58.5 210q0 115 65 210t176 154t252 68v270h26v-283q-111 -28 -181 -91.5t-103 -149t-33 -178.5q0 -70 10 -137t39 -120t85 -85t147 -32q76 0 143 27t118.5 72.5t81 101t29.5 111.5h23q0 -30 -16 -51.5t-41.5 -33.5t-54.5 -12
t-55.5 12.5t-42.5 37t-16 59.5q0 40 18 64.5t44.5 35.5t51.5 11q46 0 80 -30.5t34 -92.5q0 -61 -32.5 -121.5t-89.5 -109t-131.5 -78t-158.5 -29.5zM592 819q-33 0 -60.5 16.5t-43.5 44t-16 60.5t16 60.5t43.5 43.5t60.5 16t60.5 -16t43.5 -43.5t16 -60.5t-16 -60.5
t-43.5 -44t-60.5 -16.5z" />
    <glyph glyph-name="Agrave" unicode="&#xc0;" horiz-adv-x="1515" 
d="M844 1686l-268 131q-16 9 -25.5 25.5t-10 36.5t8.5 36q10 17 29 27t42 8t41 -24l198 -223zM419 476v25h643v-25h-643zM792 1529l521 -1504h151v-25h-580v25h210l-397 1231l-430 -1231h225v-25h-440v25h187l527 1504h26z" />
    <glyph glyph-name="Aacute" unicode="&#xc1;" horiz-adv-x="1515" 
d="M714 1686l-15 17l198 223q19 22 41.5 24t41.5 -8t29 -27q9 -16 8.5 -36t-10 -36.5t-25.5 -25.5zM419 476v25h643v-25h-643zM792 1529l521 -1504h151v-25h-580v25h210l-397 1231l-430 -1231h225v-25h-440v25h187l527 1504h26z" />
    <glyph glyph-name="Acircumflex" unicode="&#xc2;" horiz-adv-x="1515" 
d="M508 1705l-13 14l220 220h130l220 -220l-13 -14l-273 144zM419 476v25h643v-25h-643zM792 1529l521 -1504h151v-25h-580v25h210l-397 1231l-430 -1231h225v-25h-440v25h187l527 1504h26z" />
    <glyph glyph-name="Atilde" unicode="&#xc3;" horiz-adv-x="1515" 
d="M946 1680q-54 0 -99.5 24t-86.5 55t-82 55t-85 24q-50 0 -91.5 -30t-41.5 -108h-25q0 85 31 141.5t78 84.5t96 28q57 0 101 -24t82 -55t74.5 -55t75.5 -24q60 0 96.5 30t36.5 108h25q0 -95 -22 -150.5t-63 -79.5t-100 -24zM419 476v25h643v-25h-643zM792 1529l521 -1504
h151v-25h-580v25h210l-397 1231l-430 -1231h225v-25h-440v25h187l527 1504h26z" />
    <glyph glyph-name="Adieresis" unicode="&#xc4;" horiz-adv-x="1515" 
d="M938 1690q-40 0 -68 28t-28 68t28 68.5t68 28.5t68 -28.5t28 -68.5t-28 -68t-68 -28zM618 1690q-40 0 -68 28t-28 68t28 68.5t68 28.5t68 -28.5t28 -68.5t-28 -68t-68 -28zM419 476v25h643v-25h-643zM792 1529l521 -1504h151v-25h-580v25h210l-397 1231l-430 -1231h225
v-25h-440v25h187l527 1504h26z" />
    <glyph glyph-name="Aring" unicode="&#xc5;" horiz-adv-x="1515" 
d="M779 1680q-76 0 -127.5 51.5t-51.5 127.5q0 77 51.5 129t127.5 52q77 0 128.5 -52t51.5 -129q0 -76 -51.5 -127.5t-128.5 -51.5zM779 1705q41 0 64.5 22t33.5 57.5t10 74.5q0 41 -10 76.5t-33.5 57.5t-64.5 22t-64.5 -22t-33 -57.5t-9.5 -76.5q0 -39 9.5 -74.5t33 -57.5
t64.5 -22zM419 476v25h643v-25h-643zM792 1529l521 -1504h151v-25h-580v25h210l-397 1231l-430 -1231h225v-25h-440v25h187l527 1504h26z" />
    <glyph glyph-name="AE" unicode="&#xc6;" horiz-adv-x="2010" 
d="M205 0l845 1500h25l-842 -1500h-28zM29 0v25h442v-25h-442zM493 477v25h577v-25h-577zM870 0v25h691q136 0 216 53.5t114 149t34 222.5h25v-450h-1080zM1050 0v1500h190v-1500h-190zM1565 557q0 67 -27.5 113t-74.5 69.5t-104 23.5h-119v25h119q57 0 104 21.5t74.5 65.5
t27.5 111h25v-429h-25zM1905 1090q0 107 -32.5 194.5t-104 139t-188.5 51.5h-530v25h880v-410h-25z" />
    <glyph glyph-name="Ccedilla" unicode="&#xc7;" horiz-adv-x="1392" 
d="M647 -495v25q89 0 142.5 32.5t53.5 81.5q0 50 -29 75t-79.5 34t-115.5 9l173 233h32l-114 -153q72 -3 134.5 -20t101.5 -51.5t39 -90.5q0 -50 -34 -89.5t-108.5 -62.5t-195.5 -23zM779 -20q-203 0 -356 99.5t-238 273.5t-85 397t85 397t238 273.5t356 99.5q100 0 190 -35
t157 -98l111 113h23v-410h-26q-3 119 -65.5 208.5t-160.5 139.5t-209 50q-130 0 -220 -63t-145 -169t-80 -238t-25 -268t25 -268t80 -238t145 -169t220 -63q101 0 183.5 31t143 86t93.5 127t35 154h26v-410h-23l-101 121q-68 -65 -165 -103t-212 -38z" />
    <glyph glyph-name="Egrave" unicode="&#xc8;" horiz-adv-x="1207" 
d="M704 1686l-268 131q-16 9 -25.5 25.5t-10 36.5t8.5 36q10 17 29 27t42 8t41 -24l198 -223zM52 0v25h179v1450h-179v25h1059v-410h-24q0 107 -32.5 194.5t-104 139t-188.5 51.5h-340v-1450h320q137 0 216.5 53.5t114 149t34.5 222.5h25v-450h-1080zM747 557
q0 67 -27.5 113t-74 69.5t-103.5 23.5h-181v25h181q57 0 103.5 21.5t74 65.5t27.5 111h25v-429h-25z" />
    <glyph glyph-name="Eacute" unicode="&#xc9;" horiz-adv-x="1207" 
d="M574 1686l-15 17l198 223q19 22 41.5 24t41.5 -8t29 -27q9 -16 8.5 -36t-10 -36.5t-25.5 -25.5zM52 0v25h179v1450h-179v25h1059v-410h-24q0 107 -32.5 194.5t-104 139t-188.5 51.5h-340v-1450h320q137 0 216.5 53.5t114 149t34.5 222.5h25v-450h-1080zM747 557
q0 67 -27.5 113t-74 69.5t-103.5 23.5h-181v25h181q57 0 103.5 21.5t74 65.5t27.5 111h25v-429h-25z" />
    <glyph glyph-name="Ecircumflex" unicode="&#xca;" horiz-adv-x="1207" 
d="M368 1705l-13 14l220 220h130l220 -220l-13 -14l-273 144zM52 0v25h179v1450h-179v25h1059v-410h-24q0 107 -32.5 194.5t-104 139t-188.5 51.5h-340v-1450h320q137 0 216.5 53.5t114 149t34.5 222.5h25v-450h-1080zM747 557q0 67 -27.5 113t-74 69.5t-103.5 23.5h-181v25
h181q57 0 103.5 21.5t74 65.5t27.5 111h25v-429h-25z" />
    <glyph glyph-name="Edieresis" unicode="&#xcb;" horiz-adv-x="1207" 
d="M798 1690q-40 0 -68 28t-28 68t28 68.5t68 28.5t68 -28.5t28 -68.5t-28 -68t-68 -28zM478 1690q-40 0 -68 28t-28 68t28 68.5t68 28.5t68 -28.5t28 -68.5t-28 -68t-68 -28zM52 0v25h179v1450h-179v25h1059v-410h-24q0 107 -32.5 194.5t-104 139t-188.5 51.5h-340v-1450
h320q137 0 216.5 53.5t114 149t34.5 222.5h25v-450h-1080zM747 557q0 67 -27.5 113t-74 69.5t-103.5 23.5h-181v25h181q57 0 103.5 21.5t74 65.5t27.5 111h25v-429h-25z" />
    <glyph glyph-name="Igrave" unicode="&#xcc;" horiz-adv-x="753" 
d="M434 1686l-268 131q-16 9 -25.5 25.5t-10 36.5t8.5 36q10 17 29 27t42 8t41 -24l198 -223zM52 0v25h219v1450h-219v25h650v-25h-240v-1450h240v-25h-650z" />
    <glyph glyph-name="Iacute" unicode="&#xcd;" horiz-adv-x="753" 
d="M304 1686l-15 17l198 223q19 22 41.5 24t41.5 -8t29 -27q9 -16 8.5 -36t-10 -36.5t-25.5 -25.5zM52 0v25h219v1450h-219v25h650v-25h-240v-1450h240v-25h-650z" />
    <glyph glyph-name="Icircumflex" unicode="&#xce;" horiz-adv-x="753" 
d="M98 1705l-13 14l220 220h130l220 -220l-13 -14l-273 144zM52 0v25h219v1450h-219v25h650v-25h-240v-1450h240v-25h-650z" />
    <glyph glyph-name="Idieresis" unicode="&#xcf;" horiz-adv-x="753" 
d="M528 1690q-40 0 -68 28t-28 68t28 68.5t68 28.5t68 -28.5t28 -68.5t-28 -68t-68 -28zM208 1690q-40 0 -68 28t-28 68t28 68.5t68 28.5t68 -28.5t28 -68.5t-28 -68t-68 -28zM52 0v25h219v1450h-219v25h650v-25h-240v-1450h240v-25h-650z" />
    <glyph glyph-name="Eth" unicode="&#xd0;" horiz-adv-x="1430" 
d="M86 738v24h605v-24h-605zM611 1500q223 0 384.5 -98.5t249 -268.5t87.5 -383q0 -160 -52.5 -296.5t-148 -238.5t-228 -158.5t-292.5 -56.5h-559v25h179v1450h-179v25h559zM422 25h189q138 0 232 61t151 164.5t82 233.5t25 266t-28 266t-86.5 233.5t-151.5 164.5t-223 61
h-190v-1450z" />
    <glyph glyph-name="Ntilde" unicode="&#xd1;" horiz-adv-x="1512" 
d="M953 1680q-54 0 -99.5 24t-86.5 55t-82 55t-85 24q-50 0 -91.5 -30t-41.5 -108h-25q0 85 31 141.5t78 84.5t96 28q57 0 101 -24t82 -55t74.5 -55t75.5 -24q60 0 96.5 30t36.5 108h25q0 -95 -22 -150.5t-63 -79.5t-100 -24zM280 1500v-1475h238v-25h-466v25h202v1450h-202
v25h228zM1461 1500v-25h-210v-1495h-34l-955 1520h229l735 -1193v1168h-235v25h470z" />
    <glyph glyph-name="Ograve" unicode="&#xd2;" horiz-adv-x="1478" 
d="M805 1686l-268 131q-16 9 -25.5 25.5t-10 36.5t8.5 36q10 17 29 27t42 8t41 -24l198 -223zM740 -20q-153 0 -271.5 59.5t-201 165.5t-125 245.5t-42.5 299.5t45 299.5t129.5 245.5t202.5 165.5t263 59.5t262.5 -59.5t202 -165.5t129.5 -245.5t45 -299.5t-42.5 -299.5
t-125 -245.5t-201 -165.5t-270.5 -59.5zM740 3q130 0 211 64.5t124 172.5t59 241t16 269t-18.5 269t-64 241t-125 172.5t-202.5 64.5t-203 -64.5t-125.5 -172.5t-64 -241t-18.5 -269t16 -269t59 -241t124 -172.5t212 -64.5z" />
    <glyph glyph-name="Oacute" unicode="&#xd3;" horiz-adv-x="1478" 
d="M674 1686l-15 17l198 223q19 22 41.5 24t41.5 -8t29 -27q9 -16 8.5 -36t-10 -36.5t-25.5 -25.5zM740 -20q-153 0 -271.5 59.5t-201 165.5t-125 245.5t-42.5 299.5t45 299.5t129.5 245.5t202.5 165.5t263 59.5t262.5 -59.5t202 -165.5t129.5 -245.5t45 -299.5
t-42.5 -299.5t-125 -245.5t-201 -165.5t-270.5 -59.5zM740 3q130 0 211 64.5t124 172.5t59 241t16 269t-18.5 269t-64 241t-125 172.5t-202.5 64.5t-203 -64.5t-125.5 -172.5t-64 -241t-18.5 -269t16 -269t59 -241t124 -172.5t212 -64.5z" />
    <glyph glyph-name="Ocircumflex" unicode="&#xd4;" horiz-adv-x="1478" 
d="M469 1705l-13 14l220 220h130l220 -220l-13 -14l-273 144zM740 -20q-153 0 -271.5 59.5t-201 165.5t-125 245.5t-42.5 299.5t45 299.5t129.5 245.5t202.5 165.5t263 59.5t262.5 -59.5t202 -165.5t129.5 -245.5t45 -299.5t-42.5 -299.5t-125 -245.5t-201 -165.5
t-270.5 -59.5zM740 3q130 0 211 64.5t124 172.5t59 241t16 269t-18.5 269t-64 241t-125 172.5t-202.5 64.5t-203 -64.5t-125.5 -172.5t-64 -241t-18.5 -269t16 -269t59 -241t124 -172.5t212 -64.5z" />
    <glyph glyph-name="Otilde" unicode="&#xd5;" horiz-adv-x="1478" 
d="M907 1680q-54 0 -99.5 24t-86.5 55t-82 55t-85 24q-50 0 -91.5 -30t-41.5 -108h-25q0 85 31 141.5t78 84.5t96 28q57 0 101 -24t82 -55t74.5 -55t75.5 -24q60 0 96.5 30t36.5 108h25q0 -95 -22 -150.5t-63 -79.5t-100 -24zM740 -20q-153 0 -271.5 59.5t-201 165.5
t-125 245.5t-42.5 299.5t45 299.5t129.5 245.5t202.5 165.5t263 59.5t262.5 -59.5t202 -165.5t129.5 -245.5t45 -299.5t-42.5 -299.5t-125 -245.5t-201 -165.5t-270.5 -59.5zM740 3q130 0 211 64.5t124 172.5t59 241t16 269t-18.5 269t-64 241t-125 172.5t-202.5 64.5
t-203 -64.5t-125.5 -172.5t-64 -241t-18.5 -269t16 -269t59 -241t124 -172.5t212 -64.5z" />
    <glyph glyph-name="Odieresis" unicode="&#xd6;" horiz-adv-x="1478" 
d="M899 1690q-40 0 -68 28t-28 68t28 68.5t68 28.5t68 -28.5t28 -68.5t-28 -68t-68 -28zM579 1690q-40 0 -68 28t-28 68t28 68.5t68 28.5t68 -28.5t28 -68.5t-28 -68t-68 -28zM740 -20q-153 0 -271.5 59.5t-201 165.5t-125 245.5t-42.5 299.5t45 299.5t129.5 245.5
t202.5 165.5t263 59.5t262.5 -59.5t202 -165.5t129.5 -245.5t45 -299.5t-42.5 -299.5t-125 -245.5t-201 -165.5t-270.5 -59.5zM740 3q130 0 211 64.5t124 172.5t59 241t16 269t-18.5 269t-64 241t-125 172.5t-202.5 64.5t-203 -64.5t-125.5 -172.5t-64 -241t-18.5 -269
t16 -269t59 -241t124 -172.5t212 -64.5z" />
    <glyph glyph-name="multiply" unicode="&#xd7;" horiz-adv-x="922" 
d="M309 472l-177 177l420 420l177 -177zM552 472l-419 420l177 177l419 -420z" />
    <glyph glyph-name="Oslash" unicode="&#xd8;" horiz-adv-x="1478" 
d="M322 -200l865 1861h25l-865 -1861h-25zM740 -20q-153 0 -271.5 59.5t-201 165.5t-125 245.5t-42.5 299.5t45 299.5t129.5 245.5t202.5 165.5t263 59.5t262.5 -59.5t202 -165.5t129.5 -245.5t45 -299.5t-42.5 -299.5t-125 -245.5t-201 -165.5t-270.5 -59.5zM740 3
q130 0 211 64.5t124 172.5t59 241t16 269t-18.5 269t-64 241t-125 172.5t-202.5 64.5t-203 -64.5t-125.5 -172.5t-64 -241t-18.5 -269t16 -269t59 -241t124 -172.5t212 -64.5z" />
    <glyph glyph-name="Ugrave" unicode="&#xd9;" horiz-adv-x="1428" 
d="M823 1686l-268 131q-16 9 -25.5 25.5t-10 36.5t8.5 36q10 17 29 27t42 8t41 -24l198 -223zM1373 1500v-25h-193v-1015q0 -247 -108 -368t-345 -121q-259 0 -379.5 115t-120.5 374v1015h-179v25h570v-25h-200v-995q0 -99 14.5 -186t52 -152.5t106 -102.5t176.5 -37
q128 0 214.5 48.5t130.5 149.5t44 260v1015h-186v25h403z" />
    <glyph glyph-name="Uacute" unicode="&#xda;" horiz-adv-x="1428" 
d="M693 1686l-15 17l198 223q19 22 41.5 24t41.5 -8t29 -27q9 -16 8.5 -36t-10 -36.5t-25.5 -25.5zM1373 1500v-25h-193v-1015q0 -247 -108 -368t-345 -121q-259 0 -379.5 115t-120.5 374v1015h-179v25h570v-25h-200v-995q0 -99 14.5 -186t52 -152.5t106 -102.5t176.5 -37
q128 0 214.5 48.5t130.5 149.5t44 260v1015h-186v25h403z" />
    <glyph glyph-name="Ucircumflex" unicode="&#xdb;" horiz-adv-x="1428" 
d="M487 1705l-13 14l220 220h130l220 -220l-13 -14l-273 144zM1373 1500v-25h-193v-1015q0 -247 -108 -368t-345 -121q-259 0 -379.5 115t-120.5 374v1015h-179v25h570v-25h-200v-995q0 -99 14.5 -186t52 -152.5t106 -102.5t176.5 -37q128 0 214.5 48.5t130.5 149.5t44 260
v1015h-186v25h403z" />
    <glyph glyph-name="Udieresis" unicode="&#xdc;" horiz-adv-x="1428" 
d="M917 1690q-40 0 -68 28t-28 68t28 68.5t68 28.5t68 -28.5t28 -68.5t-28 -68t-68 -28zM597 1690q-40 0 -68 28t-28 68t28 68.5t68 28.5t68 -28.5t28 -68.5t-28 -68t-68 -28zM1373 1500v-25h-193v-1015q0 -247 -108 -368t-345 -121q-259 0 -379.5 115t-120.5 374v1015h-179
v25h570v-25h-200v-995q0 -99 14.5 -186t52 -152.5t106 -102.5t176.5 -37q128 0 214.5 48.5t130.5 149.5t44 260v1015h-186v25h403z" />
    <glyph glyph-name="Yacute" unicode="&#xdd;" horiz-adv-x="1443" 
d="M703 1686l-15 17l198 223q19 22 41.5 24t41.5 -8t29 -27q9 -16 8.5 -36t-10 -36.5t-25.5 -25.5zM463 0v25h180v695l-461 755h-148v25h580v-25h-212l415 -687l394 687h-220v25h413v-25h-163l-408 -709v-741h201v-25h-571z" />
    <glyph glyph-name="Thorn" unicode="&#xde;" horiz-adv-x="1209" 
d="M359 359v26h261q72 0 127.5 36t94 94.5t58.5 128t20 135.5q0 67 -20 137t-58.5 128.5t-94 94.5t-127.5 36h-261v25h261q271 0 396 -113t125 -308t-125 -307.5t-396 -112.5h-261zM29 0v25h551v-25h-551zM210 0v1500h190v-1500h-190zM29 1475v25h551v-25h-551z" />
    <glyph glyph-name="germandbls" unicode="&#xdf;" horiz-adv-x="1361" 
d="M210 0v982q0 130 37.5 230t108 168.5t169.5 104t221 35.5q107 0 195 -29.5t151 -80t97 -114.5t34 -134q0 -100 -50.5 -180t-168 -127t-318.5 -47v15q97 0 161.5 31.5t102.5 81t54 104.5t16 103q0 54 -14 115.5t-45 115.5t-84 88.5t-131 34.5q-100 0 -168.5 -43
t-109.5 -118t-59 -171t-18 -203v-962h-181zM29 0v25h541v-25h-541zM902 -20q-107 0 -181.5 76.5t-74.5 214.5q0 62 36 96.5t88 34.5q46 0 77 -29t31 -83q0 -32 -16 -57t-42 -39t-56 -14q-22 0 -48.5 10t-46.5 30.5t-21 50.5h23q0 -89 31.5 -148t82.5 -88t108 -29q59 0 96 30
t56.5 78.5t27 103t7.5 102.5q0 71 -14.5 153.5t-55.5 156.5t-119 121.5t-205 47.5v15q181 0 297.5 -40t181.5 -109t91 -158t26 -187q0 -75 -30.5 -137.5t-83.5 -107.5t-121.5 -70t-144.5 -25z" />
    <glyph glyph-name="agrave" unicode="&#xe0;" horiz-adv-x="1046" 
d="M579 1106l-268 131q-16 9 -25.5 25.5t-10 36.5t8.5 36q10 17 29 27t42 8t41 -24l198 -223zM841 -20q-47 0 -87.5 15t-65.5 52.5t-25 105.5v456q0 72 -11.5 141t-49.5 114t-118 45q-50 0 -101 -11.5t-94 -34t-69.5 -55.5t-26.5 -76h-29q0 51 33.5 80.5t73.5 29.5
q43 0 78.5 -27.5t35.5 -78.5q0 -60 -36.5 -87t-77.5 -27q-46 0 -77.5 28t-31.5 82q0 47 30 84.5t81 64t115.5 41t132.5 14.5q138 0 206 -48t90.5 -123t22.5 -156v-503q0 -34 12.5 -58.5t52.5 -24.5q30 0 66 26.5t56 69.5l12 -22q-26 -51 -77.5 -84t-120.5 -33zM377 -20
q-130 0 -207.5 66.5t-77.5 180.5q0 134 114 208.5t327 74.5h223v-22h-223q-88 0 -140.5 -39.5t-76 -97t-23.5 -112.5q0 -50 14 -99.5t45.5 -82.5t84.5 -33q57 0 109 36.5t84.5 111.5t32.5 192h15q0 -114 -33 -200.5t-99.5 -135t-168.5 -48.5z" />
    <glyph glyph-name="aacute" unicode="&#xe1;" horiz-adv-x="1046" 
d="M448 1106l-15 17l198 223q19 22 41.5 24t41.5 -8t29 -27q9 -16 8.5 -36t-10 -36.5t-25.5 -25.5zM841 -20q-47 0 -87.5 15t-65.5 52.5t-25 105.5v456q0 72 -11.5 141t-49.5 114t-118 45q-50 0 -101 -11.5t-94 -34t-69.5 -55.5t-26.5 -76h-29q0 51 33.5 80.5t73.5 29.5
q43 0 78.5 -27.5t35.5 -78.5q0 -60 -36.5 -87t-77.5 -27q-46 0 -77.5 28t-31.5 82q0 47 30 84.5t81 64t115.5 41t132.5 14.5q138 0 206 -48t90.5 -123t22.5 -156v-503q0 -34 12.5 -58.5t52.5 -24.5q30 0 66 26.5t56 69.5l12 -22q-26 -51 -77.5 -84t-120.5 -33zM377 -20
q-130 0 -207.5 66.5t-77.5 180.5q0 134 114 208.5t327 74.5h223v-22h-223q-88 0 -140.5 -39.5t-76 -97t-23.5 -112.5q0 -50 14 -99.5t45.5 -82.5t84.5 -33q57 0 109 36.5t84.5 111.5t32.5 192h15q0 -114 -33 -200.5t-99.5 -135t-168.5 -48.5z" />
    <glyph glyph-name="acircumflex" unicode="&#xe2;" horiz-adv-x="1046" 
d="M242 1125l-13 14l220 220h130l220 -220l-13 -14l-273 144zM841 -20q-47 0 -87.5 15t-65.5 52.5t-25 105.5v456q0 72 -11.5 141t-49.5 114t-118 45q-50 0 -101 -11.5t-94 -34t-69.5 -55.5t-26.5 -76h-29q0 51 33.5 80.5t73.5 29.5q43 0 78.5 -27.5t35.5 -78.5
q0 -60 -36.5 -87t-77.5 -27q-46 0 -77.5 28t-31.5 82q0 47 30 84.5t81 64t115.5 41t132.5 14.5q138 0 206 -48t90.5 -123t22.5 -156v-503q0 -34 12.5 -58.5t52.5 -24.5q30 0 66 26.5t56 69.5l12 -22q-26 -51 -77.5 -84t-120.5 -33zM377 -20q-130 0 -207.5 66.5t-77.5 180.5
q0 134 114 208.5t327 74.5h223v-22h-223q-88 0 -140.5 -39.5t-76 -97t-23.5 -112.5q0 -50 14 -99.5t45.5 -82.5t84.5 -33q57 0 109 36.5t84.5 111.5t32.5 192h15q0 -114 -33 -200.5t-99.5 -135t-168.5 -48.5z" />
    <glyph glyph-name="atilde" unicode="&#xe3;" horiz-adv-x="1046" 
d="M680 1100q-54 0 -99.5 24t-86.5 55t-82 55t-85 24q-50 0 -91.5 -30t-41.5 -108h-25q0 85 31 141.5t78 84.5t96 28q57 0 101 -24t82 -55t74.5 -55t75.5 -24q60 0 96.5 30t36.5 108h25q0 -95 -22 -150.5t-63 -79.5t-100 -24zM841 -20q-47 0 -87.5 15t-65.5 52.5t-25 105.5
v456q0 72 -11.5 141t-49.5 114t-118 45q-50 0 -101 -11.5t-94 -34t-69.5 -55.5t-26.5 -76h-29q0 51 33.5 80.5t73.5 29.5q43 0 78.5 -27.5t35.5 -78.5q0 -60 -36.5 -87t-77.5 -27q-46 0 -77.5 28t-31.5 82q0 47 30 84.5t81 64t115.5 41t132.5 14.5q138 0 206 -48t90.5 -123
t22.5 -156v-503q0 -34 12.5 -58.5t52.5 -24.5q30 0 66 26.5t56 69.5l12 -22q-26 -51 -77.5 -84t-120.5 -33zM377 -20q-130 0 -207.5 66.5t-77.5 180.5q0 134 114 208.5t327 74.5h223v-22h-223q-88 0 -140.5 -39.5t-76 -97t-23.5 -112.5q0 -50 14 -99.5t45.5 -82.5t84.5 -33
q57 0 109 36.5t84.5 111.5t32.5 192h15q0 -114 -33 -200.5t-99.5 -135t-168.5 -48.5z" />
    <glyph glyph-name="adieresis" unicode="&#xe4;" horiz-adv-x="1046" 
d="M672 1110q-40 0 -68 28t-28 68t28 68.5t68 28.5t68 -28.5t28 -68.5t-28 -68t-68 -28zM352 1110q-40 0 -68 28t-28 68t28 68.5t68 28.5t68 -28.5t28 -68.5t-28 -68t-68 -28zM841 -20q-47 0 -87.5 15t-65.5 52.5t-25 105.5v456q0 72 -11.5 141t-49.5 114t-118 45
q-50 0 -101 -11.5t-94 -34t-69.5 -55.5t-26.5 -76h-29q0 51 33.5 80.5t73.5 29.5q43 0 78.5 -27.5t35.5 -78.5q0 -60 -36.5 -87t-77.5 -27q-46 0 -77.5 28t-31.5 82q0 47 30 84.5t81 64t115.5 41t132.5 14.5q138 0 206 -48t90.5 -123t22.5 -156v-503q0 -34 12.5 -58.5
t52.5 -24.5q30 0 66 26.5t56 69.5l12 -22q-26 -51 -77.5 -84t-120.5 -33zM377 -20q-130 0 -207.5 66.5t-77.5 180.5q0 134 114 208.5t327 74.5h223v-22h-223q-88 0 -140.5 -39.5t-76 -97t-23.5 -112.5q0 -50 14 -99.5t45.5 -82.5t84.5 -33q57 0 109 36.5t84.5 111.5
t32.5 192h15q0 -114 -33 -200.5t-99.5 -135t-168.5 -48.5z" />
    <glyph glyph-name="aring" unicode="&#xe5;" horiz-adv-x="1046" 
d="M513 1100q-76 0 -127.5 51.5t-51.5 127.5q0 77 51.5 129t127.5 52q77 0 128.5 -52t51.5 -129q0 -76 -51.5 -127.5t-128.5 -51.5zM513 1125q41 0 64.5 22t33.5 57.5t10 74.5q0 41 -10 76.5t-33.5 57.5t-64.5 22t-64.5 -22t-33 -57.5t-9.5 -76.5q0 -39 9.5 -74.5t33 -57.5
t64.5 -22zM841 -20q-47 0 -87.5 15t-65.5 52.5t-25 105.5v456q0 72 -11.5 141t-49.5 114t-118 45q-50 0 -101 -11.5t-94 -34t-69.5 -55.5t-26.5 -76h-29q0 51 33.5 80.5t73.5 29.5q43 0 78.5 -27.5t35.5 -78.5q0 -60 -36.5 -87t-77.5 -27q-46 0 -77.5 28t-31.5 82
q0 47 30 84.5t81 64t115.5 41t132.5 14.5q138 0 206 -48t90.5 -123t22.5 -156v-503q0 -34 12.5 -58.5t52.5 -24.5q30 0 66 26.5t56 69.5l12 -22q-26 -51 -77.5 -84t-120.5 -33zM377 -20q-130 0 -207.5 66.5t-77.5 180.5q0 134 114 208.5t327 74.5h223v-22h-223
q-88 0 -140.5 -39.5t-76 -97t-23.5 -112.5q0 -50 14 -99.5t45.5 -82.5t84.5 -33q57 0 109 36.5t84.5 111.5t32.5 192h15q0 -114 -33 -200.5t-99.5 -135t-168.5 -48.5z" />
    <glyph glyph-name="ae" unicode="&#xe6;" horiz-adv-x="1607" 
d="M422 -20q-59 0 -117.5 12.5t-106.5 40.5t-77 76t-29 118q0 84 50 148.5t147.5 102t239.5 37.5h124v94q0 50 -5.5 103t-22.5 97.5t-52.5 72t-95.5 27.5q-41 0 -83 -9t-80 -25.5t-67 -40.5t-47 -54q15 23 36.5 38.5t41.5 21.5q40 0 72.5 -29.5t32.5 -74.5q0 -60 -40 -87
t-78 -27q-46 0 -74.5 28t-28.5 82q0 62 51 108t132 71t172 25q96 0 151 -27t82 -72.5t35 -100.5l-19 -1q48 99 135.5 151.5t211.5 52.5q147 0 236 -58t129.5 -153t40.5 -204h-647q-1 -15 -1 -31.5v-32.5q0 -86 11.5 -167t40.5 -145t80.5 -102t131.5 -38q143 0 235.5 76
t129.5 187h29q-39 -124 -140.5 -207.5t-265.5 -83.5q-146 0 -244 73t-140 207l17 3q-14 -93 -56.5 -156t-112 -95t-165.5 -32zM461 18q57 0 100.5 43.5t67.5 121t24 178.5v129h-124q-76 0 -128 -35t-79 -91.5t-27 -121.5q0 -116 47 -170t119 -54zM874 549h433q0 53 -6 116.5
t-26 120t-58.5 93t-103.5 36.5q-84 0 -134 -51.5t-74.5 -135t-30.5 -179.5z" />
    <glyph glyph-name="ccedilla" unicode="&#xe7;" horiz-adv-x="1017" 
d="M396 -495v25q89 0 142.5 32.5t53.5 81.5q0 50 -29 75t-79.5 34t-115.5 9l173 233h32l-114 -153q72 -3 134.5 -20t101.5 -51.5t39 -90.5q0 -50 -34 -89.5t-108.5 -62.5t-195.5 -23zM555 -20q-131 0 -234 57.5t-162 165t-59 257.5q0 130 53.5 239t157 175t254.5 66
q102 0 176 -35.5t114 -93t40 -125.5q0 -54 -31 -84t-77 -30q-25 0 -51.5 11.5t-44.5 36t-18 64.5q0 53 34 80.5t80 27.5q43 0 74.5 -26.5t31.5 -79.5h-24q0 54 -24.5 96t-66 71.5t-92 44.5t-101.5 15q-87 0 -141.5 -43.5t-84 -112.5t-40 -147.5t-10.5 -149.5
q0 -86 11.5 -166.5t40 -144t79 -101t129.5 -37.5q86 0 147.5 33.5t103 92.5t68.5 134h27q-39 -124 -123.5 -207.5t-236.5 -83.5z" />
    <glyph glyph-name="egrave" unicode="&#xe8;" horiz-adv-x="1050" 
d="M601 1106l-268 131q-16 9 -25.5 25.5t-10 36.5t8.5 36q10 17 29 27t42 8t41 -24l198 -223zM559 -20q-130 0 -233.5 57.5t-164.5 165t-61 257.5t58.5 257.5t159.5 164.5t231 57q147 0 235 -58t128 -153t40 -204h-718v25h506q0 53 -6 116.5t-25 120t-57 93t-103 36.5
q-73 0 -120 -38.5t-73.5 -103.5t-37.5 -146t-11 -167t11.5 -167t40.5 -145t80.5 -102t130.5 -38q143 0 234.5 76t128.5 187h29q-39 -124 -139 -207.5t-264 -83.5z" />
    <glyph glyph-name="eacute" unicode="&#xe9;" horiz-adv-x="1050" 
d="M469 1106l-15 17l198 223q19 22 41.5 24t41.5 -8t29 -27q9 -16 8.5 -36t-10 -36.5t-25.5 -25.5zM559 -20q-130 0 -233.5 57.5t-164.5 165t-61 257.5t58.5 257.5t159.5 164.5t231 57q147 0 235 -58t128 -153t40 -204h-718v25h506q0 53 -6 116.5t-25 120t-57 93t-103 36.5
q-73 0 -120 -38.5t-73.5 -103.5t-37.5 -146t-11 -167t11.5 -167t40.5 -145t80.5 -102t130.5 -38q143 0 234.5 76t128.5 187h29q-39 -124 -139 -207.5t-264 -83.5z" />
    <glyph glyph-name="ecircumflex" unicode="&#xea;" horiz-adv-x="1050" 
d="M264 1125l-13 14l220 220h130l220 -220l-13 -14l-273 144zM559 -20q-130 0 -233.5 57.5t-164.5 165t-61 257.5t58.5 257.5t159.5 164.5t231 57q147 0 235 -58t128 -153t40 -204h-718v25h506q0 53 -6 116.5t-25 120t-57 93t-103 36.5q-73 0 -120 -38.5t-73.5 -103.5
t-37.5 -146t-11 -167t11.5 -167t40.5 -145t80.5 -102t130.5 -38q143 0 234.5 76t128.5 187h29q-39 -124 -139 -207.5t-264 -83.5z" />
    <glyph glyph-name="edieresis" unicode="&#xeb;" horiz-adv-x="1050" 
d="M694 1110q-40 0 -68 28t-28 68t28 68.5t68 28.5t68 -28.5t28 -68.5t-28 -68t-68 -28zM374 1110q-40 0 -68 28t-28 68t28 68.5t68 28.5t68 -28.5t28 -68.5t-28 -68t-68 -28zM559 -20q-130 0 -233.5 57.5t-164.5 165t-61 257.5t58.5 257.5t159.5 164.5t231 57
q147 0 235 -58t128 -153t40 -204h-718v25h506q0 53 -6 116.5t-25 120t-57 93t-103 36.5q-73 0 -120 -38.5t-73.5 -103.5t-37.5 -146t-11 -167t11.5 -167t40.5 -145t80.5 -102t130.5 -38q143 0 234.5 76t128.5 187h29q-39 -124 -139 -207.5t-264 -83.5z" />
    <glyph glyph-name="igrave" unicode="&#xec;" horiz-adv-x="590" 
d="M366 1106l-268 131q-16 9 -25.5 25.5t-10 36.5t8.5 36q10 17 29 27t42 8t41 -24l198 -223zM385 920v-895h127v-25h-433v25h126v870h-126v25h306z" />
    <glyph glyph-name="iacute" unicode="&#xed;" horiz-adv-x="590" 
d="M235 1106l-15 17l198 223q19 22 41.5 24t41.5 -8t29 -27q9 -16 8.5 -36t-10 -36.5t-25.5 -25.5zM385 920v-895h127v-25h-433v25h126v870h-126v25h306z" />
    <glyph glyph-name="icircumflex" unicode="&#xee;" horiz-adv-x="590" 
d="M29 1125l-13 14l220 220h130l220 -220l-13 -14l-273 144zM385 920v-895h127v-25h-433v25h126v870h-126v25h306z" />
    <glyph glyph-name="idieresis" unicode="&#xef;" horiz-adv-x="590" 
d="M459 1110q-40 0 -68 28t-28 68t28 68.5t68 28.5t68 -28.5t28 -68.5t-28 -68t-68 -28zM139 1110q-40 0 -68 28t-28 68t28 68.5t68 28.5t68 -28.5t28 -68.5t-28 -68t-68 -28zM385 920v-895h127v-25h-433v25h126v870h-126v25h306z" />
    <glyph glyph-name="eth" unicode="&#xf0;" horiz-adv-x="1119" 
d="M532 -20q-151 0 -256 67.5t-160 185t-55 267.5q0 128 39 219t103.5 148.5t141.5 85t153 27.5q131 0 206 -56t106 -151t31 -212h-21q0 111 -28 195.5t-89 133t-161 48.5q-67 0 -119 -30.5t-88.5 -88t-55.5 -138t-19 -181.5q0 -86 11 -173t39.5 -160t80.5 -117t134 -44
t138.5 48t91 128.5t50 179.5t15.5 199l-9 179q0 103 -29 210t-82.5 205t-128 175t-166 122t-195.5 45v23q164 0 310.5 -69.5t259 -193t176.5 -286.5t64 -351q0 -210 -59 -352.5t-168.5 -215t-260.5 -72.5zM222 1236v25h840v-26z" />
    <glyph glyph-name="ntilde" unicode="&#xf1;" horiz-adv-x="1177" 
d="M780 1100q-54 0 -99.5 24t-86.5 55t-82 55t-85 24q-50 0 -91.5 -30t-41.5 -108h-25q0 85 31 141.5t78 84.5t96 28q57 0 101 -24t82 -55t74.5 -55t75.5 -24q60 0 96.5 30t36.5 108h25q0 -95 -22 -150.5t-63 -79.5t-100 -24zM373 920v-895h125v-25h-429v25h127v870h-127v25
h304zM983 639v-614h127v-25h-430v25h125v587q0 84 -7 151t-33 106t-81 39q-92 0 -152.5 -46.5t-95 -118.5t-49 -151t-14.5 -144l-17 -7q0 68 14 153t50.5 164t105.5 130t180 51q116 0 175.5 -39t80.5 -106.5t21 -154.5z" />
    <glyph glyph-name="ograve" unicode="&#xf2;" horiz-adv-x="1115" 
d="M623 1106l-268 131q-16 9 -25.5 25.5t-10 36.5t8.5 36q10 17 29 27t42 8t41 -24l198 -223zM558 -20q-141 0 -243.5 66t-158.5 175t-56 239t56 239t158.5 174.5t243.5 65.5t244 -65.5t158.5 -174.5t55.5 -239t-55.5 -239t-158.5 -175t-244 -66zM558 5q81 0 131 44t76 113
t35 148.5t9 149.5q0 71 -9 150t-35 148t-76 113t-131 44t-131 -44t-75.5 -113t-35 -148t-9.5 -150q0 -70 9.5 -149.5t35 -148.5t75.5 -113t131 -44z" />
    <glyph glyph-name="oacute" unicode="&#xf3;" horiz-adv-x="1115" 
d="M493 1106l-15 17l198 223q19 22 41.5 24t41.5 -8t29 -27q9 -16 8.5 -36t-10 -36.5t-25.5 -25.5zM558 -20q-141 0 -243.5 66t-158.5 175t-56 239t56 239t158.5 174.5t243.5 65.5t244 -65.5t158.5 -174.5t55.5 -239t-55.5 -239t-158.5 -175t-244 -66zM558 5q81 0 131 44
t76 113t35 148.5t9 149.5q0 71 -9 150t-35 148t-76 113t-131 44t-131 -44t-75.5 -113t-35 -148t-9.5 -150q0 -70 9.5 -149.5t35 -148.5t75.5 -113t131 -44z" />
    <glyph glyph-name="ocircumflex" unicode="&#xf4;" horiz-adv-x="1115" 
d="M287 1125l-13 14l220 220h130l220 -220l-13 -14l-273 144zM558 -20q-141 0 -243.5 66t-158.5 175t-56 239t56 239t158.5 174.5t243.5 65.5t244 -65.5t158.5 -174.5t55.5 -239t-55.5 -239t-158.5 -175t-244 -66zM558 5q81 0 131 44t76 113t35 148.5t9 149.5q0 71 -9 150
t-35 148t-76 113t-131 44t-131 -44t-75.5 -113t-35 -148t-9.5 -150q0 -70 9.5 -149.5t35 -148.5t75.5 -113t131 -44z" />
    <glyph glyph-name="otilde" unicode="&#xf5;" horiz-adv-x="1115" 
d="M725 1100q-54 0 -99.5 24t-86.5 55t-82 55t-85 24q-50 0 -91.5 -30t-41.5 -108h-25q0 85 31 141.5t78 84.5t96 28q57 0 101 -24t82 -55t74.5 -55t75.5 -24q60 0 96.5 30t36.5 108h25q0 -95 -22 -150.5t-63 -79.5t-100 -24zM558 -20q-141 0 -243.5 66t-158.5 175t-56 239
t56 239t158.5 174.5t243.5 65.5t244 -65.5t158.5 -174.5t55.5 -239t-55.5 -239t-158.5 -175t-244 -66zM558 5q81 0 131 44t76 113t35 148.5t9 149.5q0 71 -9 150t-35 148t-76 113t-131 44t-131 -44t-75.5 -113t-35 -148t-9.5 -150q0 -70 9.5 -149.5t35 -148.5t75.5 -113
t131 -44z" />
    <glyph glyph-name="odieresis" unicode="&#xf6;" horiz-adv-x="1115" 
d="M717 1110q-40 0 -68 28t-28 68t28 68.5t68 28.5t68 -28.5t28 -68.5t-28 -68t-68 -28zM397 1110q-40 0 -68 28t-28 68t28 68.5t68 28.5t68 -28.5t28 -68.5t-28 -68t-68 -28zM558 -20q-141 0 -243.5 66t-158.5 175t-56 239t56 239t158.5 174.5t243.5 65.5t244 -65.5
t158.5 -174.5t55.5 -239t-55.5 -239t-158.5 -175t-244 -66zM558 5q81 0 131 44t76 113t35 148.5t9 149.5q0 71 -9 150t-35 148t-76 113t-131 44t-131 -44t-75.5 -113t-35 -148t-9.5 -150q0 -70 9.5 -149.5t35 -148.5t75.5 -113t131 -44z" />
    <glyph glyph-name="divide" unicode="&#xf7;" horiz-adv-x="1119" 
d="M561 990q-49 0 -85.5 35.5t-36.5 84.5q0 50 36.5 85t85.5 35q50 0 84.5 -35t34.5 -85q0 -49 -34.5 -84.5t-84.5 -35.5zM100 758v24h920v-24h-920zM561 280q-49 0 -85.5 35.5t-36.5 84.5q0 50 36.5 85t85.5 35q50 0 84.5 -35t34.5 -85q0 -49 -34.5 -84.5t-84.5 -35.5z" />
    <glyph glyph-name="oslash" unicode="&#xf8;" horiz-adv-x="1115" 
d="M112 -246l865 1404h25l-865 -1404h-25zM558 -20q-141 0 -243.5 66t-158.5 175t-56 239t56 239t158.5 174.5t243.5 65.5t244 -65.5t158.5 -174.5t55.5 -239t-55.5 -239t-158.5 -175t-244 -66zM558 5q81 0 131 44t76 113t35 148.5t9 149.5q0 71 -9 150t-35 148t-76 113
t-131 44t-131 -44t-75.5 -113t-35 -148t-9.5 -150q0 -70 9.5 -149.5t35 -148.5t75.5 -113t131 -44z" />
    <glyph glyph-name="ugrave" unicode="&#xf9;" horiz-adv-x="1180" 
d="M603 1106l-268 131q-16 9 -25.5 25.5t-10 36.5t8.5 36q10 17 29 27t42 8t41 -24l198 -223zM475 -20q-116 0 -176 39.5t-81.5 107.5t-21.5 155v613h-127v25h306v-612q0 -84 7.5 -151t33.5 -106t82 -39q91 0 151.5 46.5t94.5 118.5t47.5 151t13.5 144l16 7
q0 -68 -12.5 -153t-48 -164t-104 -130.5t-181.5 -51.5zM805 0v895h-140v25h321v-895h126v-25h-307z" />
    <glyph glyph-name="uacute" unicode="&#xfa;" horiz-adv-x="1180" 
d="M473 1106l-15 17l198 223q19 22 41.5 24t41.5 -8t29 -27q9 -16 8.5 -36t-10 -36.5t-25.5 -25.5zM475 -20q-116 0 -176 39.5t-81.5 107.5t-21.5 155v613h-127v25h306v-612q0 -84 7.5 -151t33.5 -106t82 -39q91 0 151.5 46.5t94.5 118.5t47.5 151t13.5 144l16 7
q0 -68 -12.5 -153t-48 -164t-104 -130.5t-181.5 -51.5zM805 0v895h-140v25h321v-895h126v-25h-307z" />
    <glyph glyph-name="ucircumflex" unicode="&#xfb;" horiz-adv-x="1180" 
d="M267 1125l-13 14l220 220h130l220 -220l-13 -14l-273 144zM475 -20q-116 0 -176 39.5t-81.5 107.5t-21.5 155v613h-127v25h306v-612q0 -84 7.5 -151t33.5 -106t82 -39q91 0 151.5 46.5t94.5 118.5t47.5 151t13.5 144l16 7q0 -68 -12.5 -153t-48 -164t-104 -130.5
t-181.5 -51.5zM805 0v895h-140v25h321v-895h126v-25h-307z" />
    <glyph glyph-name="udieresis" unicode="&#xfc;" horiz-adv-x="1180" 
d="M697 1110q-40 0 -68 28t-28 68t28 68.5t68 28.5t68 -28.5t28 -68.5t-28 -68t-68 -28zM377 1110q-40 0 -68 28t-28 68t28 68.5t68 28.5t68 -28.5t28 -68.5t-28 -68t-68 -28zM475 -20q-116 0 -176 39.5t-81.5 107.5t-21.5 155v613h-127v25h306v-612q0 -84 7.5 -151
t33.5 -106t82 -39q91 0 151.5 46.5t94.5 118.5t47.5 151t13.5 144l16 7q0 -68 -12.5 -153t-48 -164t-104 -130.5t-181.5 -51.5zM805 0v895h-140v25h321v-895h126v-25h-307z" />
    <glyph glyph-name="yacute" unicode="&#xfd;" horiz-adv-x="1098" 
d="M545 1106l-15 17l198 223q19 22 41.5 24t41.5 -8t29 -27q9 -16 8.5 -36t-10 -36.5t-25.5 -25.5zM320 895l344 -709l-95 -227l-449 936h-91v25h449v-25h-158zM1089 920v-25h-121l-537 -1291q-27 -61 -57 -96t-87 -35q-25 0 -51 11t-44 34.5t-18 61.5q0 33 14.5 58t39.5 39
t57 14q27 0 51 -12.5t40 -34.5t20 -51l541 1302h-163v25h315z" />
    <glyph glyph-name="thorn" unicode="&#xfe;" horiz-adv-x="1173" 
d="M46 -500v25h140v1950h-140v25h320v-902q26 160 107.5 250t208.5 90q107 0 202.5 -57t155 -164t59.5 -257t-59.5 -257.5t-155 -165t-202.5 -57.5q-127 0 -208.5 91.5t-107.5 250.5v-797h139v-25h-459zM649 18q81 0 135 54.5t81 154t27 233.5t-27 233t-81 153t-135 54
q-76 0 -140.5 -50.5t-103.5 -148.5t-39 -241t39 -241.5t103.5 -149.5t140.5 -51z" />
    <glyph glyph-name="ydieresis" unicode="&#xff;" horiz-adv-x="1098" 
d="M769 1110q-40 0 -68 28t-28 68t28 68.5t68 28.5t68 -28.5t28 -68.5t-28 -68t-68 -28zM449 1110q-40 0 -68 28t-28 68t28 68.5t68 28.5t68 -28.5t28 -68.5t-28 -68t-68 -28zM320 895l344 -709l-95 -227l-449 936h-91v25h449v-25h-158zM1089 920v-25h-121l-537 -1291
q-27 -61 -57 -96t-87 -35q-25 0 -51 11t-44 34.5t-18 61.5q0 33 14.5 58t39.5 39t57 14q27 0 51 -12.5t40 -34.5t20 -51l541 1302h-163v25h315z" />
    <glyph glyph-name="Amacron" unicode="&#x100;" horiz-adv-x="1515" 
d="M539 1700v25h480v-25h-480zM419 476v25h643v-25h-643zM792 1529l521 -1504h151v-25h-580v25h210l-397 1231l-430 -1231h225v-25h-440v25h187l527 1504h26z" />
    <glyph glyph-name="amacron" unicode="&#x101;" horiz-adv-x="1046" 
d="M273 1120v25h480v-25h-480zM841 -20q-47 0 -87.5 15t-65.5 52.5t-25 105.5v456q0 72 -11.5 141t-49.5 114t-118 45q-50 0 -101 -11.5t-94 -34t-69.5 -55.5t-26.5 -76h-29q0 51 33.5 80.5t73.5 29.5q43 0 78.5 -27.5t35.5 -78.5q0 -60 -36.5 -87t-77.5 -27q-46 0 -77.5 28
t-31.5 82q0 47 30 84.5t81 64t115.5 41t132.5 14.5q138 0 206 -48t90.5 -123t22.5 -156v-503q0 -34 12.5 -58.5t52.5 -24.5q30 0 66 26.5t56 69.5l12 -22q-26 -51 -77.5 -84t-120.5 -33zM377 -20q-130 0 -207.5 66.5t-77.5 180.5q0 134 114 208.5t327 74.5h223v-22h-223
q-88 0 -140.5 -39.5t-76 -97t-23.5 -112.5q0 -50 14 -99.5t45.5 -82.5t84.5 -33q57 0 109 36.5t84.5 111.5t32.5 192h15q0 -114 -33 -200.5t-99.5 -135t-168.5 -48.5z" />
    <glyph glyph-name="Abreve" unicode="&#x102;" horiz-adv-x="1515" 
d="M778 1680q-90 0 -137 39t-64 98.5t-17 120.5h14q0 -49 28.5 -82t75.5 -49.5t100 -16.5q54 0 101 16.5t76 49.5t29 82h15q0 -61 -17.5 -120.5t-65.5 -98.5t-138 -39zM419 476v25h643v-25h-643zM792 1529l521 -1504h151v-25h-580v25h210l-397 1231l-430 -1231h225v-25h-440
v25h187l527 1504h26z" />
    <glyph glyph-name="abreve" unicode="&#x103;" horiz-adv-x="1046" 
d="M512 1100q-90 0 -137 39t-64 98.5t-17 120.5h14q0 -49 28.5 -82t75.5 -49.5t100 -16.5q54 0 101 16.5t76 49.5t29 82h15q0 -61 -17.5 -120.5t-65.5 -98.5t-138 -39zM841 -20q-47 0 -87.5 15t-65.5 52.5t-25 105.5v456q0 72 -11.5 141t-49.5 114t-118 45q-50 0 -101 -11.5
t-94 -34t-69.5 -55.5t-26.5 -76h-29q0 51 33.5 80.5t73.5 29.5q43 0 78.5 -27.5t35.5 -78.5q0 -60 -36.5 -87t-77.5 -27q-46 0 -77.5 28t-31.5 82q0 47 30 84.5t81 64t115.5 41t132.5 14.5q138 0 206 -48t90.5 -123t22.5 -156v-503q0 -34 12.5 -58.5t52.5 -24.5
q30 0 66 26.5t56 69.5l12 -22q-26 -51 -77.5 -84t-120.5 -33zM377 -20q-130 0 -207.5 66.5t-77.5 180.5q0 134 114 208.5t327 74.5h223v-22h-223q-88 0 -140.5 -39.5t-76 -97t-23.5 -112.5q0 -50 14 -99.5t45.5 -82.5t84.5 -33q57 0 109 36.5t84.5 111.5t32.5 192h15
q0 -114 -33 -200.5t-99.5 -135t-168.5 -48.5z" />
    <glyph glyph-name="Aogonek" unicode="&#x104;" horiz-adv-x="1515" 
d="M1194 -419q-51 0 -101 18t-82.5 56t-32.5 98t25.5 106.5t67.5 81t90.5 58.5t95.5 39l8 -14q-31 -17 -53.5 -50.5t-35 -80.5t-12.5 -104q0 -66 28.5 -110t79.5 -44q50 0 80.5 30.5t54.5 72.5l16 -12q-15 -28 -41.5 -62t-71.5 -58.5t-116 -24.5zM419 476v25h643v-25h-643z
M792 1529l521 -1504h151v-25h-580v25h210l-397 1231l-430 -1231h225v-25h-440v25h187l527 1504h26z" />
    <glyph glyph-name="aogonek" unicode="&#x105;" horiz-adv-x="1046" 
d="M906 -419q-51 0 -101 18t-82.5 56t-32.5 98t25.5 106.5t67.5 81t90.5 58.5t95.5 39l8 -14q-31 -17 -53.5 -50.5t-35 -80.5t-12.5 -104q0 -66 28.5 -110t79.5 -44q50 0 80.5 30.5t54.5 72.5l16 -12q-15 -28 -41.5 -62t-71.5 -58.5t-116 -24.5zM841 -20q-47 0 -87.5 15
t-65.5 52.5t-25 105.5v456q0 72 -11.5 141t-49.5 114t-118 45q-50 0 -101 -11.5t-94 -34t-69.5 -55.5t-26.5 -76h-29q0 51 33.5 80.5t73.5 29.5q43 0 78.5 -27.5t35.5 -78.5q0 -60 -36.5 -87t-77.5 -27q-46 0 -77.5 28t-31.5 82q0 47 30 84.5t81 64t115.5 41t132.5 14.5
q138 0 206 -48t90.5 -123t22.5 -156v-503q0 -34 12.5 -58.5t52.5 -24.5q30 0 66 26.5t56 69.5l12 -22q-26 -51 -77.5 -84t-120.5 -33zM377 -20q-130 0 -207.5 66.5t-77.5 180.5q0 134 114 208.5t327 74.5h223v-22h-223q-88 0 -140.5 -39.5t-76 -97t-23.5 -112.5
q0 -50 14 -99.5t45.5 -82.5t84.5 -33q57 0 109 36.5t84.5 111.5t32.5 192h15q0 -114 -33 -200.5t-99.5 -135t-168.5 -48.5z" />
    <glyph glyph-name="Cacute" unicode="&#x106;" horiz-adv-x="1392" 
d="M716 1686l-15 17l198 223q19 22 41.5 24t41.5 -8t29 -27q9 -16 8.5 -36t-10 -36.5t-25.5 -25.5zM779 -20q-203 0 -356 99.5t-238 273.5t-85 397t85 397t238 273.5t356 99.5q100 0 190 -35t157 -98l111 113h23v-410h-26q-3 119 -65.5 208.5t-160.5 139.5t-209 50
q-130 0 -220 -63t-145 -169t-80 -238t-25 -268t25 -268t80 -238t145 -169t220 -63q101 0 183.5 31t143 86t93.5 127t35 154h26v-410h-23l-101 121q-68 -65 -165 -103t-212 -38z" />
    <glyph glyph-name="cacute" unicode="&#x107;" horiz-adv-x="1017" 
d="M500 1106l-15 17l198 223q19 22 41.5 24t41.5 -8t29 -27q9 -16 8.5 -36t-10 -36.5t-25.5 -25.5zM555 -20q-131 0 -234 57.5t-162 165t-59 257.5q0 130 53.5 239t157 175t254.5 66q102 0 176 -35.5t114 -93t40 -125.5q0 -54 -31 -84t-77 -30q-25 0 -51.5 11.5t-44.5 36
t-18 64.5q0 53 34 80.5t80 27.5q43 0 74.5 -26.5t31.5 -79.5h-24q0 54 -24.5 96t-66 71.5t-92 44.5t-101.5 15q-87 0 -141.5 -43.5t-84 -112.5t-40 -147.5t-10.5 -149.5q0 -86 11.5 -166.5t40 -144t79 -101t129.5 -37.5q86 0 147.5 33.5t103 92.5t68.5 134h27
q-39 -124 -123.5 -207.5t-236.5 -83.5z" />
    <glyph glyph-name="Ccircumflex" unicode="&#x108;" horiz-adv-x="1392" 
d="M510 1705l-13 14l220 220h130l220 -220l-13 -14l-273 144zM779 -20q-203 0 -356 99.5t-238 273.5t-85 397t85 397t238 273.5t356 99.5q100 0 190 -35t157 -98l111 113h23v-410h-26q-3 119 -65.5 208.5t-160.5 139.5t-209 50q-130 0 -220 -63t-145 -169t-80 -238t-25 -268
t25 -268t80 -238t145 -169t220 -63q101 0 183.5 31t143 86t93.5 127t35 154h26v-410h-23l-101 121q-68 -65 -165 -103t-212 -38z" />
    <glyph glyph-name="ccircumflex" unicode="&#x109;" horiz-adv-x="1017" 
d="M294 1125l-13 14l220 220h130l220 -220l-13 -14l-273 144zM555 -20q-131 0 -234 57.5t-162 165t-59 257.5q0 130 53.5 239t157 175t254.5 66q102 0 176 -35.5t114 -93t40 -125.5q0 -54 -31 -84t-77 -30q-25 0 -51.5 11.5t-44.5 36t-18 64.5q0 53 34 80.5t80 27.5
q43 0 74.5 -26.5t31.5 -79.5h-24q0 54 -24.5 96t-66 71.5t-92 44.5t-101.5 15q-87 0 -141.5 -43.5t-84 -112.5t-40 -147.5t-10.5 -149.5q0 -86 11.5 -166.5t40 -144t79 -101t129.5 -37.5q86 0 147.5 33.5t103 92.5t68.5 134h27q-39 -124 -123.5 -207.5t-236.5 -83.5z" />
    <glyph glyph-name="Cdotaccent" unicode="&#x10a;" horiz-adv-x="1392" 
d="M782 1856q-50 0 -85 35.5t-35 85.5q0 49 35 84.5t85 35.5q49 0 84.5 -35.5t35.5 -84.5q0 -50 -35.5 -85.5t-84.5 -35.5zM779 -20q-203 0 -356 99.5t-238 273.5t-85 397t85 397t238 273.5t356 99.5q100 0 190 -35t157 -98l111 113h23v-410h-26q-3 119 -65.5 208.5
t-160.5 139.5t-209 50q-130 0 -220 -63t-145 -169t-80 -238t-25 -268t25 -268t80 -238t145 -169t220 -63q101 0 183.5 31t143 86t93.5 127t35 154h26v-410h-23l-101 121q-68 -65 -165 -103t-212 -38z" />
    <glyph glyph-name="cdotaccent" unicode="&#x10b;" horiz-adv-x="1017" 
d="M566 1276q-50 0 -85 35.5t-35 85.5q0 49 35 84.5t85 35.5q49 0 84.5 -35.5t35.5 -84.5q0 -50 -35.5 -85.5t-84.5 -35.5zM555 -20q-131 0 -234 57.5t-162 165t-59 257.5q0 130 53.5 239t157 175t254.5 66q102 0 176 -35.5t114 -93t40 -125.5q0 -54 -31 -84t-77 -30
q-25 0 -51.5 11.5t-44.5 36t-18 64.5q0 53 34 80.5t80 27.5q43 0 74.5 -26.5t31.5 -79.5h-24q0 54 -24.5 96t-66 71.5t-92 44.5t-101.5 15q-87 0 -141.5 -43.5t-84 -112.5t-40 -147.5t-10.5 -149.5q0 -86 11.5 -166.5t40 -144t79 -101t129.5 -37.5q86 0 147.5 33.5t103 92.5
t68.5 134h27q-39 -124 -123.5 -207.5t-236.5 -83.5z" />
    <glyph glyph-name="Ccaron" unicode="&#x10c;" horiz-adv-x="1392" 
d="M717 1700l-220 221l14 12l270 -143l272 143l14 -12l-220 -221h-130zM779 -20q-203 0 -356 99.5t-238 273.5t-85 397t85 397t238 273.5t356 99.5q100 0 190 -35t157 -98l111 113h23v-410h-26q-3 119 -65.5 208.5t-160.5 139.5t-209 50q-130 0 -220 -63t-145 -169t-80 -238
t-25 -268t25 -268t80 -238t145 -169t220 -63q101 0 183.5 31t143 86t93.5 127t35 154h26v-410h-23l-101 121q-68 -65 -165 -103t-212 -38z" />
    <glyph glyph-name="ccaron" unicode="&#x10d;" horiz-adv-x="1017" 
d="M501 1120l-220 221l14 12l270 -143l272 143l14 -12l-220 -221h-130zM555 -20q-131 0 -234 57.5t-162 165t-59 257.5q0 130 53.5 239t157 175t254.5 66q102 0 176 -35.5t114 -93t40 -125.5q0 -54 -31 -84t-77 -30q-25 0 -51.5 11.5t-44.5 36t-18 64.5q0 53 34 80.5
t80 27.5q43 0 74.5 -26.5t31.5 -79.5h-24q0 54 -24.5 96t-66 71.5t-92 44.5t-101.5 15q-87 0 -141.5 -43.5t-84 -112.5t-40 -147.5t-10.5 -149.5q0 -86 11.5 -166.5t40 -144t79 -101t129.5 -37.5q86 0 147.5 33.5t103 92.5t68.5 134h27q-39 -124 -123.5 -207.5t-236.5 -83.5
z" />
    <glyph glyph-name="Dcaron" unicode="&#x10e;" horiz-adv-x="1430" 
d="M535 1700l-220 221l14 12l270 -143l272 143l14 -12l-220 -221h-130zM611 1500q223 0 384.5 -98.5t249 -268.5t87.5 -383q0 -160 -52.5 -296.5t-148 -238.5t-228 -158.5t-292.5 -56.5h-559v25h179v1450h-179v25h559zM422 25h189q138 0 232 61t151 164.5t82 233.5t25 266
t-28 266t-86.5 233.5t-151.5 164.5t-223 61h-190v-1450z" />
    <glyph glyph-name="dcaron" unicode="&#x10f;" horiz-adv-x="1208" 
d="M1152 985v25q66 0 117 31t83.5 83t44 116.5t-2.5 131.5h8q4 -22 -10.5 -47t-43 -43t-66.5 -18q-64 0 -95 34.5t-31 83.5q0 50 38.5 84t95.5 34q59 0 99.5 -50t40.5 -145q0 -78 -32 -151.5t-94 -121t-152 -47.5zM517 -19q-107 0 -202 57t-155 164t-60 257t60 257.5
t155 165t202 57.5q127 0 208 -91t107 -250v877h-126v25h307v-1475h126v-25h-307v321q-26 -159 -107 -249.5t-208 -90.5zM550 19q76 0 140 51t103 149t39 240q0 143 -39 241.5t-103 150t-140 51.5q-81 0 -135 -55t-81 -154.5t-27 -233.5t27 -232.5t81 -153t135 -54.5z" />
    <glyph glyph-name="Dcroat" unicode="&#x110;" horiz-adv-x="1430" 
d="M86 738v24h605v-24h-605zM611 1500q223 0 384.5 -98.5t249 -268.5t87.5 -383q0 -160 -52.5 -296.5t-148 -238.5t-228 -158.5t-292.5 -56.5h-559v25h179v1450h-179v25h559zM422 25h189q138 0 232 61t151 164.5t82 233.5t25 266t-28 266t-86.5 233.5t-151.5 164.5t-223 61
h-190v-1450z" />
    <glyph glyph-name="dcroat" unicode="&#x111;" horiz-adv-x="1208" 
d="M571 1128v24h589v-24h-589zM517 -19q-107 0 -202 57t-155 164t-60 257t60 257.5t155 165t202 57.5q127 0 208 -91t107 -250v877h-126v25h307v-1475h126v-25h-307v321q-26 -159 -107 -249.5t-208 -90.5zM550 19q76 0 140 51t103 149t39 240q0 143 -39 241.5t-103 150
t-140 51.5q-81 0 -135 -55t-81 -154.5t-27 -233.5t27 -232.5t81 -153t135 -54.5z" />
    <glyph glyph-name="Emacron" unicode="&#x112;" horiz-adv-x="1207" 
d="M399 1700v25h480v-25h-480zM52 0v25h179v1450h-179v25h1059v-410h-24q0 107 -32.5 194.5t-104 139t-188.5 51.5h-340v-1450h320q137 0 216.5 53.5t114 149t34.5 222.5h25v-450h-1080zM747 557q0 67 -27.5 113t-74 69.5t-103.5 23.5h-181v25h181q57 0 103.5 21.5t74 65.5
t27.5 111h25v-429h-25z" />
    <glyph glyph-name="emacron" unicode="&#x113;" horiz-adv-x="1050" 
d="M295 1120v25h480v-25h-480zM559 -20q-130 0 -233.5 57.5t-164.5 165t-61 257.5t58.5 257.5t159.5 164.5t231 57q147 0 235 -58t128 -153t40 -204h-718v25h506q0 53 -6 116.5t-25 120t-57 93t-103 36.5q-73 0 -120 -38.5t-73.5 -103.5t-37.5 -146t-11 -167t11.5 -167
t40.5 -145t80.5 -102t130.5 -38q143 0 234.5 76t128.5 187h29q-39 -124 -139 -207.5t-264 -83.5z" />
    <glyph glyph-name="Ebreve" unicode="&#x114;" horiz-adv-x="1207" 
d="M638 1680q-90 0 -137 39t-64 98.5t-17 120.5h14q0 -49 28.5 -82t75.5 -49.5t100 -16.5q54 0 101 16.5t76 49.5t29 82h15q0 -61 -17.5 -120.5t-65.5 -98.5t-138 -39zM52 0v25h179v1450h-179v25h1059v-410h-24q0 107 -32.5 194.5t-104 139t-188.5 51.5h-340v-1450h320
q137 0 216.5 53.5t114 149t34.5 222.5h25v-450h-1080zM747 557q0 67 -27.5 113t-74 69.5t-103.5 23.5h-181v25h181q57 0 103.5 21.5t74 65.5t27.5 111h25v-429h-25z" />
    <glyph glyph-name="ebreve" unicode="&#x115;" horiz-adv-x="1050" 
d="M535 1100q-90 0 -137 39t-64 98.5t-17 120.5h14q0 -49 28.5 -82t75.5 -49.5t100 -16.5q54 0 101 16.5t76 49.5t29 82h15q0 -61 -17.5 -120.5t-65.5 -98.5t-138 -39zM559 -20q-130 0 -233.5 57.5t-164.5 165t-61 257.5t58.5 257.5t159.5 164.5t231 57q147 0 235 -58
t128 -153t40 -204h-718v25h506q0 53 -6 116.5t-25 120t-57 93t-103 36.5q-73 0 -120 -38.5t-73.5 -103.5t-37.5 -146t-11 -167t11.5 -167t40.5 -145t80.5 -102t130.5 -38q143 0 234.5 76t128.5 187h29q-39 -124 -139 -207.5t-264 -83.5z" />
    <glyph glyph-name="Edotaccent" unicode="&#x116;" horiz-adv-x="1207" 
d="M640 1856q-50 0 -85 35.5t-35 85.5q0 49 35 84.5t85 35.5q49 0 84.5 -35.5t35.5 -84.5q0 -50 -35.5 -85.5t-84.5 -35.5zM52 0v25h179v1450h-179v25h1059v-410h-24q0 107 -32.5 194.5t-104 139t-188.5 51.5h-340v-1450h320q137 0 216.5 53.5t114 149t34.5 222.5h25v-450
h-1080zM747 557q0 67 -27.5 113t-74 69.5t-103.5 23.5h-181v25h181q57 0 103.5 21.5t74 65.5t27.5 111h25v-429h-25z" />
    <glyph glyph-name="edotaccent" unicode="&#x117;" horiz-adv-x="1050" 
d="M536 1276q-50 0 -85 35.5t-35 85.5q0 49 35 84.5t85 35.5q49 0 84.5 -35.5t35.5 -84.5q0 -50 -35.5 -85.5t-84.5 -35.5zM559 -20q-130 0 -233.5 57.5t-164.5 165t-61 257.5t58.5 257.5t159.5 164.5t231 57q147 0 235 -58t128 -153t40 -204h-718v25h506q0 53 -6 116.5
t-25 120t-57 93t-103 36.5q-73 0 -120 -38.5t-73.5 -103.5t-37.5 -146t-11 -167t11.5 -167t40.5 -145t80.5 -102t130.5 -38q143 0 234.5 76t128.5 187h29q-39 -124 -139 -207.5t-264 -83.5z" />
    <glyph glyph-name="Eogonek" unicode="&#x118;" horiz-adv-x="1207" 
d="M905 -419q-51 0 -101 18t-82.5 56t-32.5 98t25.5 106.5t67.5 81t90.5 58.5t95.5 39l8 -14q-31 -17 -53.5 -50.5t-35 -80.5t-12.5 -104q0 -66 28.5 -110t79.5 -44q50 0 80.5 30.5t54.5 72.5l16 -12q-15 -28 -41.5 -62t-71.5 -58.5t-116 -24.5zM52 0v25h179v1450h-179v25
h1059v-410h-24q0 107 -32.5 194.5t-104 139t-188.5 51.5h-340v-1450h320q137 0 216.5 53.5t114 149t34.5 222.5h25v-450h-1080zM747 557q0 67 -27.5 113t-74 69.5t-103.5 23.5h-181v25h181q57 0 103.5 21.5t74 65.5t27.5 111h25v-429h-25z" />
    <glyph glyph-name="eogonek" unicode="&#x119;" horiz-adv-x="1050" 
d="M684 -419q-51 0 -101 18t-82.5 56t-32.5 98t25.5 106.5t67.5 81t90.5 58.5t95.5 39l8 -14q-31 -17 -53.5 -50.5t-35 -80.5t-12.5 -104q0 -66 28.5 -110t79.5 -44q50 0 80.5 30.5t54.5 72.5l16 -12q-15 -28 -41.5 -62t-71.5 -58.5t-116 -24.5zM559 -20q-130 0 -233.5 57.5
t-164.5 165t-61 257.5t58.5 257.5t159.5 164.5t231 57q147 0 235 -58t128 -153t40 -204h-718v25h506q0 53 -6 116.5t-25 120t-57 93t-103 36.5q-73 0 -120 -38.5t-73.5 -103.5t-37.5 -146t-11 -167t11.5 -167t40.5 -145t80.5 -102t130.5 -38q143 0 234.5 76t128.5 187h29
q-39 -124 -139 -207.5t-264 -83.5z" />
    <glyph glyph-name="Ecaron" unicode="&#x11a;" horiz-adv-x="1207" 
d="M575 1700l-220 221l14 12l270 -143l272 143l14 -12l-220 -221h-130zM52 0v25h179v1450h-179v25h1059v-410h-24q0 107 -32.5 194.5t-104 139t-188.5 51.5h-340v-1450h320q137 0 216.5 53.5t114 149t34.5 222.5h25v-450h-1080zM747 557q0 67 -27.5 113t-74 69.5
t-103.5 23.5h-181v25h181q57 0 103.5 21.5t74 65.5t27.5 111h25v-429h-25z" />
    <glyph glyph-name="ecaron" unicode="&#x11b;" horiz-adv-x="1050" 
d="M471 1120l-220 221l14 12l270 -143l272 143l14 -12l-220 -221h-130zM559 -20q-130 0 -233.5 57.5t-164.5 165t-61 257.5t58.5 257.5t159.5 164.5t231 57q147 0 235 -58t128 -153t40 -204h-718v25h506q0 53 -6 116.5t-25 120t-57 93t-103 36.5q-73 0 -120 -38.5
t-73.5 -103.5t-37.5 -146t-11 -167t11.5 -167t40.5 -145t80.5 -102t130.5 -38q143 0 234.5 76t128.5 187h29q-39 -124 -139 -207.5t-264 -83.5z" />
    <glyph glyph-name="Gcircumflex" unicode="&#x11c;" horiz-adv-x="1455" 
d="M510 1705l-13 14l220 220h130l220 -220l-13 -14l-273 144zM879 584h541v-28h-121v-226q-23 -47 -66 -107t-109.5 -115.5t-159 -91.5t-214.5 -36q-208 0 -353.5 99.5t-221 273.5t-75.5 397q0 167 48.5 307.5t138.5 244.5t215 161t277 57q100 0 190 -35t156 -97l112 112h23
v-410h-26q-2 91 -38.5 164t-97.5 125.5t-138 80.5t-161 28q-130 0 -220 -63t-145 -169.5t-80 -238t-25 -267.5t18.5 -269t65 -240t128.5 -171.5t209 -64.5q93 0 155 31.5t100 74.5t57.5 83t27.5 56v306h-211v28z" />
    <glyph glyph-name="gcircumflex" unicode="&#x11d;" horiz-adv-x="1180" 
d="M261 1125l-13 14l220 220h130l220 -220l-13 -14l-273 144zM507 -520q-89 0 -168 15.5t-140.5 48.5t-96 84t-34.5 122q0 68 31 114t77 73.5t94 39.5t82 12h18q-68 -37 -91.5 -91t-23.5 -127q0 -63 30.5 -123.5t92 -100t154.5 -39.5q77 0 143.5 20t116.5 57.5t78.5 90
t28.5 117.5q0 61 -34 103t-89.5 64t-120.5 22h-66.5h-91.5h-68q-135 0 -216 37.5t-81 125.5q0 52 29 91t79 65t114 39t135 13l-1 -18q-32 0 -69.5 -7.5t-71.5 -23t-55.5 -38.5t-21.5 -54q0 -52 55 -62.5t137 -10.5q35 0 61.5 0.5t51 1t52.5 0.5q56 0 113 -10t104.5 -41
t76 -91.5t28.5 -162.5q0 -93 -36.5 -160t-99.5 -110t-142 -64.5t-164 -21.5zM476 330q-61 0 -124 16.5t-116 53t-85.5 94.5t-32.5 141t32.5 141t85.5 93.5t116 52.5t124 17t122.5 -17t112.5 -52.5t82 -93.5t31 -141t-31 -141t-82 -94.5t-112.5 -53t-122.5 -16.5zM476 355
q59 0 97 39t56 103t18 138t-18 137.5t-56 102.5t-97 39t-96.5 -39t-56 -102.5t-18.5 -137.5t10 -138t46 -103t115 -39zM1015 669q-37 0 -69 26t-32 75q0 50 32.5 71.5t68.5 21.5q37 0 70.5 -21.5t33.5 -62.5h-23q0 46 -34.5 86.5t-100.5 40.5q-39 0 -86.5 -19t-89 -66.5
t-61.5 -133.5l-18 12q20 90 65 140t96.5 70.5t91.5 20.5q49 0 85.5 -22t56.5 -56.5t20 -72.5q0 -64 -34 -87t-72 -23z" />
    <glyph glyph-name="Gbreve" unicode="&#x11e;" horiz-adv-x="1455" 
d="M780 1680q-90 0 -137 39t-64 98.5t-17 120.5h14q0 -49 28.5 -82t75.5 -49.5t100 -16.5q54 0 101 16.5t76 49.5t29 82h15q0 -61 -17.5 -120.5t-65.5 -98.5t-138 -39zM879 584h541v-28h-121v-226q-23 -47 -66 -107t-109.5 -115.5t-159 -91.5t-214.5 -36q-208 0 -353.5 99.5
t-221 273.5t-75.5 397q0 167 48.5 307.5t138.5 244.5t215 161t277 57q100 0 190 -35t156 -97l112 112h23v-410h-26q-2 91 -38.5 164t-97.5 125.5t-138 80.5t-161 28q-130 0 -220 -63t-145 -169.5t-80 -238t-25 -267.5t18.5 -269t65 -240t128.5 -171.5t209 -64.5
q93 0 155 31.5t100 74.5t57.5 83t27.5 56v306h-211v28z" />
    <glyph glyph-name="gbreve" unicode="&#x11f;" horiz-adv-x="1180" 
d="M531 1100q-90 0 -137 39t-64 98.5t-17 120.5h14q0 -49 28.5 -82t75.5 -49.5t100 -16.5q54 0 101 16.5t76 49.5t29 82h15q0 -61 -17.5 -120.5t-65.5 -98.5t-138 -39zM507 -520q-89 0 -168 15.5t-140.5 48.5t-96 84t-34.5 122q0 68 31 114t77 73.5t94 39.5t82 12h18
q-68 -37 -91.5 -91t-23.5 -127q0 -63 30.5 -123.5t92 -100t154.5 -39.5q77 0 143.5 20t116.5 57.5t78.5 90t28.5 117.5q0 61 -34 103t-89.5 64t-120.5 22h-66.5h-91.5h-68q-135 0 -216 37.5t-81 125.5q0 52 29 91t79 65t114 39t135 13l-1 -18q-32 0 -69.5 -7.5t-71.5 -23
t-55.5 -38.5t-21.5 -54q0 -52 55 -62.5t137 -10.5q35 0 61.5 0.5t51 1t52.5 0.5q56 0 113 -10t104.5 -41t76 -91.5t28.5 -162.5q0 -93 -36.5 -160t-99.5 -110t-142 -64.5t-164 -21.5zM476 330q-61 0 -124 16.5t-116 53t-85.5 94.5t-32.5 141t32.5 141t85.5 93.5t116 52.5
t124 17t122.5 -17t112.5 -52.5t82 -93.5t31 -141t-31 -141t-82 -94.5t-112.5 -53t-122.5 -16.5zM476 355q59 0 97 39t56 103t18 138t-18 137.5t-56 102.5t-97 39t-96.5 -39t-56 -102.5t-18.5 -137.5t10 -138t46 -103t115 -39zM1015 669q-37 0 -69 26t-32 75q0 50 32.5 71.5
t68.5 21.5q37 0 70.5 -21.5t33.5 -62.5h-23q0 46 -34.5 86.5t-100.5 40.5q-39 0 -86.5 -19t-89 -66.5t-61.5 -133.5l-18 12q20 90 65 140t96.5 70.5t91.5 20.5q49 0 85.5 -22t56.5 -56.5t20 -72.5q0 -64 -34 -87t-72 -23z" />
    <glyph glyph-name="Gdotaccent" unicode="&#x120;" horiz-adv-x="1455" 
d="M782 1856q-50 0 -85 35.5t-35 85.5q0 49 35 84.5t85 35.5q49 0 84.5 -35.5t35.5 -84.5q0 -50 -35.5 -85.5t-84.5 -35.5zM879 584h541v-28h-121v-226q-23 -47 -66 -107t-109.5 -115.5t-159 -91.5t-214.5 -36q-208 0 -353.5 99.5t-221 273.5t-75.5 397q0 167 48.5 307.5
t138.5 244.5t215 161t277 57q100 0 190 -35t156 -97l112 112h23v-410h-26q-2 91 -38.5 164t-97.5 125.5t-138 80.5t-161 28q-130 0 -220 -63t-145 -169.5t-80 -238t-25 -267.5t18.5 -269t65 -240t128.5 -171.5t209 -64.5q93 0 155 31.5t100 74.5t57.5 83t27.5 56v306h-211
v28z" />
    <glyph glyph-name="gdotaccent" unicode="&#x121;" horiz-adv-x="1180" 
d="M533 1276q-50 0 -85 35.5t-35 85.5q0 49 35 84.5t85 35.5q49 0 84.5 -35.5t35.5 -84.5q0 -50 -35.5 -85.5t-84.5 -35.5zM507 -520q-89 0 -168 15.5t-140.5 48.5t-96 84t-34.5 122q0 68 31 114t77 73.5t94 39.5t82 12h18q-68 -37 -91.5 -91t-23.5 -127q0 -63 30.5 -123.5
t92 -100t154.5 -39.5q77 0 143.5 20t116.5 57.5t78.5 90t28.5 117.5q0 61 -34 103t-89.5 64t-120.5 22h-66.5h-91.5h-68q-135 0 -216 37.5t-81 125.5q0 52 29 91t79 65t114 39t135 13l-1 -18q-32 0 -69.5 -7.5t-71.5 -23t-55.5 -38.5t-21.5 -54q0 -52 55 -62.5t137 -10.5
q35 0 61.5 0.5t51 1t52.5 0.5q56 0 113 -10t104.5 -41t76 -91.5t28.5 -162.5q0 -93 -36.5 -160t-99.5 -110t-142 -64.5t-164 -21.5zM476 330q-61 0 -124 16.5t-116 53t-85.5 94.5t-32.5 141t32.5 141t85.5 93.5t116 52.5t124 17t122.5 -17t112.5 -52.5t82 -93.5t31 -141
t-31 -141t-82 -94.5t-112.5 -53t-122.5 -16.5zM476 355q59 0 97 39t56 103t18 138t-18 137.5t-56 102.5t-97 39t-96.5 -39t-56 -102.5t-18.5 -137.5t10 -138t46 -103t115 -39zM1015 669q-37 0 -69 26t-32 75q0 50 32.5 71.5t68.5 21.5q37 0 70.5 -21.5t33.5 -62.5h-23
q0 46 -34.5 86.5t-100.5 40.5q-39 0 -86.5 -19t-89 -66.5t-61.5 -133.5l-18 12q20 90 65 140t96.5 70.5t91.5 20.5q49 0 85.5 -22t56.5 -56.5t20 -72.5q0 -64 -34 -87t-72 -23z" />
    <glyph glyph-name="uni0122" unicode="&#x122;" horiz-adv-x="1455" 
d="M645 -613v21q71 0 119.5 42.5t68.5 109t5 137.5h8q3 -18 -9 -38t-35 -34t-53 -14q-52 0 -76.5 27.5t-24.5 66.5q0 27 14 48.5t38.5 34t54.5 12.5q47 0 79.5 -40.5t32.5 -116.5q0 -62 -25.5 -121t-75 -97t-121.5 -38zM879 584h541v-28h-121v-226q-23 -47 -66 -107
t-109.5 -115.5t-159 -91.5t-214.5 -36q-208 0 -353.5 99.5t-221 273.5t-75.5 397q0 167 48.5 307.5t138.5 244.5t215 161t277 57q100 0 190 -35t156 -97l112 112h23v-410h-26q-2 91 -38.5 164t-97.5 125.5t-138 80.5t-161 28q-130 0 -220 -63t-145 -169.5t-80 -238
t-25 -267.5t18.5 -269t65 -240t128.5 -171.5t209 -64.5q93 0 155 31.5t100 74.5t57.5 83t27.5 56v306h-211v28z" />
    <glyph glyph-name="uni0123" unicode="&#x123;" horiz-adv-x="1180" 
d="M536 1099q-47 0 -79.5 40.5t-32.5 116.5q0 62 25.5 121t75 97t121.5 38v-21q-70 0 -119 -42.5t-69 -108.5t-5 -138h-8q-3 18 9 38.5t35 34t53 13.5q52 0 76.5 -27.5t24.5 -66.5q0 -26 -14 -48t-38 -34.5t-55 -12.5zM507 -520q-89 0 -168 15.5t-140.5 48.5t-96 84
t-34.5 122q0 68 31 114t77 73.5t94 39.5t82 12h18q-68 -37 -91.5 -91t-23.5 -127q0 -63 30.5 -123.5t92 -100t154.5 -39.5q77 0 143.5 20t116.5 57.5t78.5 90t28.5 117.5q0 61 -34 103t-89.5 64t-120.5 22h-66.5h-91.5h-68q-135 0 -216 37.5t-81 125.5q0 52 29 91t79 65
t114 39t135 13l-1 -18q-32 0 -69.5 -7.5t-71.5 -23t-55.5 -38.5t-21.5 -54q0 -52 55 -62.5t137 -10.5q35 0 61.5 0.5t51 1t52.5 0.5q56 0 113 -10t104.5 -41t76 -91.5t28.5 -162.5q0 -93 -36.5 -160t-99.5 -110t-142 -64.5t-164 -21.5zM476 330q-61 0 -124 16.5t-116 53
t-85.5 94.5t-32.5 141t32.5 141t85.5 93.5t116 52.5t124 17t122.5 -17t112.5 -52.5t82 -93.5t31 -141t-31 -141t-82 -94.5t-112.5 -53t-122.5 -16.5zM476 355q59 0 97 39t56 103t18 138t-18 137.5t-56 102.5t-97 39t-96.5 -39t-56 -102.5t-18.5 -137.5t10 -138t46 -103
t115 -39zM1015 669q-37 0 -69 26t-32 75q0 50 32.5 71.5t68.5 21.5q37 0 70.5 -21.5t33.5 -62.5h-23q0 46 -34.5 86.5t-100.5 40.5q-39 0 -86.5 -19t-89 -66.5t-61.5 -133.5l-18 12q20 90 65 140t96.5 70.5t91.5 20.5q49 0 85.5 -22t56.5 -56.5t20 -72.5q0 -64 -34 -87
t-72 -23z" />
    <glyph glyph-name="Hcircumflex" unicode="&#x124;" horiz-adv-x="1503" 
d="M484 1705l-13 14l220 220h130l220 -220l-13 -14l-273 144zM1452 1500v-25h-181v-1450h181v-25h-570v25h200v702h-660v-702h200v-25h-570v25h179v1450h-179v25h570v-25h-200v-722h660v722h-200v25h570z" />
    <glyph glyph-name="hcircumflex" unicode="&#x125;" horiz-adv-x="1177" 
d="M344 1625l-13 14l220 220h130l220 -220l-13 -14l-273 144zM69 0v25h127v1450h-127v25h306v-1475h126v-25h-432zM680 0v25h125v587q0 84 -7 151t-33 106t-81 39q-92 0 -152 -46.5t-94.5 -118.5t-48.5 -151t-14 -144l-16 -7q0 68 13.5 153t50 164t105 130t176.5 51
q116 0 176 -39t81.5 -106.5t21.5 -154.5v-614h127v-25h-430z" />
    <glyph glyph-name="Hbar" unicode="&#x126;" horiz-adv-x="1503" 
d="M51 1103v25h1400v-25h-1400zM1452 1500v-25h-181v-1450h181v-25h-570v25h200v702h-660v-702h200v-25h-570v25h179v1450h-179v25h570v-25h-200v-722h660v722h-200v25h570z" />
    <glyph glyph-name="hbar" unicode="&#x127;" horiz-adv-x="1177" 
d="M62 1178v24h584v-24h-584zM69 0v25h127v1450h-127v25h306v-1475h126v-25h-432zM680 0v25h125v587q0 84 -7 151t-33 106t-81 39q-92 0 -152 -46.5t-94.5 -118.5t-48.5 -151t-14 -144l-16 -7q0 68 13.5 153t50 164t105 130t176.5 51q116 0 176 -39t81.5 -106.5t21.5 -154.5
v-614h127v-25h-430z" />
    <glyph glyph-name="Itilde" unicode="&#x128;" horiz-adv-x="753" 
d="M536 1680q-54 0 -99.5 24t-86.5 55t-82 55t-85 24q-50 0 -91.5 -30t-41.5 -108h-25q0 85 31 141.5t78 84.5t96 28q57 0 101 -24t82 -55t74.5 -55t75.5 -24q60 0 96.5 30t36.5 108h25q0 -95 -22 -150.5t-63 -79.5t-100 -24zM52 0v25h219v1450h-219v25h650v-25h-240v-1450
h240v-25h-650z" />
    <glyph glyph-name="itilde" unicode="&#x129;" horiz-adv-x="590" 
d="M467 1100q-54 0 -99.5 24t-86.5 55t-82 55t-85 24q-50 0 -91.5 -30t-41.5 -108h-25q0 85 31 141.5t78 84.5t96 28q57 0 101 -24t82 -55t74.5 -55t75.5 -24q60 0 96.5 30t36.5 108h25q0 -95 -22 -150.5t-63 -79.5t-100 -24zM385 920v-895h127v-25h-433v25h126v870h-126v25
h306z" />
    <glyph glyph-name="Imacron" unicode="&#x12a;" horiz-adv-x="753" 
d="M129 1700v25h480v-25h-480zM52 0v25h219v1450h-219v25h650v-25h-240v-1450h240v-25h-650z" />
    <glyph glyph-name="imacron" unicode="&#x12b;" horiz-adv-x="590" 
d="M60 1120v25h480v-25h-480zM385 920v-895h127v-25h-433v25h126v870h-126v25h306z" />
    <glyph glyph-name="Ibreve" unicode="&#x12c;" horiz-adv-x="753" 
d="M369 1680q-90 0 -137 39t-64 98.5t-17 120.5h14q0 -49 28.5 -82t75.5 -49.5t100 -16.5q54 0 101 16.5t76 49.5t29 82h15q0 -61 -17.5 -120.5t-65.5 -98.5t-138 -39zM52 0v25h219v1450h-219v25h650v-25h-240v-1450h240v-25h-650z" />
    <glyph glyph-name="ibreve" unicode="&#x12d;" horiz-adv-x="590" 
d="M299 1100q-90 0 -137 39t-64 98.5t-17 120.5h14q0 -49 28.5 -82t75.5 -49.5t100 -16.5q54 0 101 16.5t76 49.5t29 82h15q0 -61 -17.5 -120.5t-65.5 -98.5t-138 -39zM385 920v-895h127v-25h-433v25h126v870h-126v25h306z" />
    <glyph glyph-name="Iogonek" unicode="&#x12e;" horiz-adv-x="753" 
d="M371 -419q-51 0 -101 18t-82.5 56t-32.5 98t25.5 106.5t67.5 81t90.5 58.5t95.5 39l8 -14q-31 -17 -53.5 -50.5t-35 -80.5t-12.5 -104q0 -66 28.5 -110t79.5 -44q50 0 80.5 30.5t54.5 72.5l16 -12q-15 -28 -41.5 -62t-71.5 -58.5t-116 -24.5zM52 0v25h219v1450h-219v25
h650v-25h-240v-1450h240v-25h-650z" />
    <glyph glyph-name="iogonek" unicode="&#x12f;" horiz-adv-x="590" 
d="M308 -419q-51 0 -101 18t-82.5 56t-32.5 98t25.5 106.5t67.5 81t90.5 58.5t95.5 39l8 -14q-31 -17 -53.5 -50.5t-35 -80.5t-12.5 -104q0 -66 28.5 -110t79.5 -44q50 0 80.5 30.5t54.5 72.5l16 -12q-15 -28 -41.5 -62t-71.5 -58.5t-116 -24.5zM301 1276q-50 0 -85 35.5
t-35 85.5q0 49 35 84.5t85 35.5q49 0 84.5 -35.5t35.5 -84.5q0 -50 -35.5 -85.5t-84.5 -35.5zM385 920v-895h127v-25h-433v25h126v870h-126v25h306z" />
    <glyph glyph-name="Idotaccent" unicode="&#x130;" horiz-adv-x="753" 
d="M370 1856q-50 0 -85 35.5t-35 85.5q0 49 35 84.5t85 35.5q49 0 84.5 -35.5t35.5 -84.5q0 -50 -35.5 -85.5t-84.5 -35.5zM52 0v25h219v1450h-219v25h650v-25h-240v-1450h240v-25h-650z" />
    <glyph glyph-name="dotlessi" unicode="&#x131;" horiz-adv-x="590" 
d="M385 920v-895h127v-25h-433v25h126v870h-126v25h306z" />
    <glyph glyph-name="IJ" unicode="&#x132;" horiz-adv-x="1713" 
d="M52 0v25h219v1450h-219v25h650v-25h-240v-1450h240v-25h-650zM1586 1500v-25h-200v-1135q-15 -53 -40 -121t-64.5 -132t-99.5 -106t-146 -42q-77 0 -131 33t-82.5 83t-28.5 100q0 42 16 71t42 44t56 15q25 0 51 -12t44 -38t18 -67q0 -39 -17 -64t-44 -36t-57 -9
q-22 1 -43.5 15.5t-28.5 37.5q10 -36 36 -69.5t66.5 -54.5t93.5 -21q72 0 108.5 45t49 137t12.5 231v1095h-260v25h649z" />
    <glyph glyph-name="ij" unicode="&#x133;" horiz-adv-x="1097" 
d="M296 1276q-49 0 -84.5 35.5t-35.5 85.5q0 49 35.5 84.5t84.5 35.5q50 0 85 -35.5t35 -84.5q0 -50 -35 -85.5t-85 -35.5zM385 920v-895h127v-25h-433v25h126v870h-126v25h306zM562 -520q-81 0 -135.5 31t-82.5 81t-28 106q0 62 34 93t80 31q25 0 50.5 -10.5t43 -34
t17.5 -63.5q0 -38 -32 -73.5t-82 -35.5q-29 0 -54 11t-40 31.5t-15 50.5h23q0 -52 25.5 -96t72.5 -70.5t112 -26.5q68 0 99.5 47t40.5 125t7 173t-2 190v855h-167v25h346v-943q0 -98 -12.5 -187.5t-46.5 -159t-95 -110t-159 -40.5zM770 1279q-49 0 -84.5 36t-35.5 85
q0 50 35.5 85t84.5 35q50 0 84.5 -35t34.5 -85q0 -49 -34.5 -85t-84.5 -36z" />
    <glyph glyph-name="Jcircumflex" unicode="&#x134;" horiz-adv-x="877" 
d="M233 1705l-13 14l220 220h130l220 -220l-13 -14l-273 144zM826 1500v-25h-200v-1135q-15 -53 -40 -121t-64.5 -132t-99.5 -106t-146 -42q-77 0 -131 33t-82.5 83t-28.5 100q0 42 16 71t42 44t56 15q25 0 51 -12t44 -38t18 -67q0 -39 -17 -64t-44 -36t-57 -9
q-22 1 -43.5 15.5t-28.5 37.5q10 -36 36 -69.5t66.5 -54.5t93.5 -21q72 0 108.5 45t49 137t12.5 231v1095h-260v25h649z" />
    <glyph glyph-name="jcircumflex" unicode="&#x135;" horiz-adv-x="599" 
d="M28 1125l-13 14l220 220h130l220 -220l-13 -14l-273 144zM102 -520q-81 0 -135.5 31t-82.5 81t-28 106q0 62 34 93t80 31q25 0 50.5 -10.5t43 -34t17.5 -63.5q0 -38 -32 -73.5t-82 -35.5q-29 0 -54 11t-40 31.5t-15 50.5h23q0 -52 25.5 -96t72.5 -70.5t112 -26.5
q68 0 99.5 47t40.5 125t7 173t-2 190v855h-167v25h346v-943q0 -98 -12.5 -187.5t-46.5 -159t-95 -110t-159 -40.5z" />
    <glyph glyph-name="uni0136" unicode="&#x136;" horiz-adv-x="1387" 
d="M571 -613v21q71 0 119.5 42.5t68.5 109t5 137.5h8q3 -18 -9 -38t-35 -34t-53 -14q-52 0 -76.5 27.5t-24.5 66.5q0 27 14 48.5t38.5 34t54.5 12.5q47 0 79.5 -40.5t32.5 -116.5q0 -62 -25.5 -121t-75 -97t-121.5 -38zM246 434l772 1041h-226v25h479v-25h-216l-773 -1041
h-36zM52 0v25h179v1450h-179v25h570v-25h-200v-1450h200v-25h-570zM742 0v25h210l-433 764l123 158l549 -922h170v-25h-619z" />
    <glyph glyph-name="uni0137" unicode="&#x137;" horiz-adv-x="1197" 
d="M508 -613v21q71 0 119.5 42.5t68.5 109t5 137.5h8q3 -18 -9 -38t-35 -34t-53 -14q-52 0 -76.5 27.5t-24.5 66.5q0 27 14 48.5t38.5 34t54.5 12.5q47 0 79.5 -40.5t32.5 -116.5q0 -62 -25.5 -121t-75 -97t-121.5 -38zM69 0v25h167v1450h-167v25h346v-1475h140v-25h-486z
M688 0v25h141l-426 499l470 371h-212v25h418v-25h-172l-356 -284l501 -586h96v-25h-460z" />
    <glyph glyph-name="kgreenlandic" unicode="&#x138;" horiz-adv-x="1190" 
d="M854 0l-448 524l501 396h35l-387 -309l520 -611h-221zM59 0v25h500v-25h-500zM239 0v895h-180v25h360v-920h-180zM677 0v25h474v-25h-474zM637 895v25h446v-25h-446z" />
    <glyph glyph-name="Lacute" unicode="&#x139;" horiz-adv-x="1178" 
d="M264 1686l-15 17l198 223q19 22 41.5 24t41.5 -8t29 -27q9 -16 8.5 -36t-10 -36.5t-25.5 -25.5zM52 0v25h179v1450h-179v25h549v-25h-179v-1450h309q118 0 190.5 30.5t110.5 86.5t51 134.5t13 173.5h25v-450h-1069z" />
    <glyph glyph-name="lacute" unicode="&#x13a;" horiz-adv-x="650" 
d="M269 1686l-15 17l198 223q19 22 41.5 24t41.5 -8t29 -27q9 -16 8.5 -36t-10 -36.5t-25.5 -25.5zM415 1500v-1475h166v-25h-512v25h167v1450h-167v25h346z" />
    <glyph glyph-name="uni013B" unicode="&#x13b;" horiz-adv-x="1178" 
d="M474 -613v21q71 0 119.5 42.5t68.5 109t5 137.5h8q3 -18 -9 -38t-35 -34t-53 -14q-52 0 -76.5 27.5t-24.5 66.5q0 27 14 48.5t38.5 34t54.5 12.5q47 0 79.5 -40.5t32.5 -116.5q0 -62 -25.5 -121t-75 -97t-121.5 -38zM52 0v25h179v1450h-179v25h549v-25h-179v-1450h309
q118 0 190.5 30.5t110.5 86.5t51 134.5t13 173.5h25v-450h-1069z" />
    <glyph glyph-name="uni013C" unicode="&#x13c;" horiz-adv-x="650" 
d="M233 -613v21q71 0 119.5 42.5t68.5 109t5 137.5h8q3 -18 -9 -38t-35 -34t-53 -14q-52 0 -76.5 27.5t-24.5 66.5q0 27 14 48.5t38.5 34t54.5 12.5q47 0 79.5 -40.5t32.5 -116.5q0 -62 -25.5 -121t-75 -97t-121.5 -38zM415 1500v-1475h166v-25h-512v25h167v1450h-167v25
h346z" />
    <glyph glyph-name="Lcaron" unicode="&#x13d;" horiz-adv-x="1178" 
d="M767 1007v25q66 0 117 31t83.5 83t44 116.5t-2.5 131.5h8q4 -22 -10.5 -47t-43 -43t-66.5 -18q-64 0 -95 34.5t-31 83.5q0 50 38.5 84t95.5 34q59 0 99.5 -50t40.5 -145q0 -78 -32 -151.5t-94 -121t-152 -47.5zM52 0v25h179v1450h-179v25h549v-25h-179v-1450h309
q118 0 190.5 30.5t110.5 86.5t51 134.5t13 173.5h25v-450h-1069z" />
    <glyph glyph-name="lcaron" unicode="&#x13e;" horiz-adv-x="650" 
d="M548 985v25q66 0 117 31t83.5 83t44 116.5t-2.5 131.5h8q4 -22 -10.5 -47t-43 -43t-66.5 -18q-64 0 -95 34.5t-31 83.5q0 50 38.5 84t95.5 34q59 0 99.5 -50t40.5 -145q0 -78 -32 -151.5t-94 -121t-152 -47.5zM415 1500v-1475h166v-25h-512v25h167v1450h-167v25h346z" />
    <glyph glyph-name="Ldot" unicode="&#x13f;" horiz-adv-x="1178" 
d="M52 0v25h179v1450h-179v25h549v-25h-179v-1450h309q118 0 190.5 30.5t110.5 86.5t51 134.5t13 173.5h25v-450h-1069zM935 680q-33 0 -60 16t-43.5 43.5t-16.5 60.5t16.5 60.5t43.5 44t60 16.5t60.5 -16.5t43.5 -44t16 -60.5t-16 -60.5t-43.5 -43.5t-60.5 -16z" />
    <glyph glyph-name="ldot" unicode="&#x140;" horiz-adv-x="678" 
d="M415 1500v-1475h166v-25h-512v25h167v1450h-167v25h346zM674 680q-33 0 -60 16t-43.5 43.5t-16.5 60.5t16.5 60.5t43.5 44t60 16.5t60.5 -16.5t43.5 -44t16 -60.5t-16 -60.5t-43.5 -43.5t-60.5 -16z" />
    <glyph glyph-name="Lslash" unicode="&#x141;" horiz-adv-x="1178" 
d="M55 690v31l690 439v-30zM52 0v25h179v1450h-179v25h549v-25h-179v-1450h309q118 0 190.5 30.5t110.5 86.5t51 134.5t13 173.5h25v-450h-1069z" />
    <glyph glyph-name="lslash" unicode="&#x142;" horiz-adv-x="650" 
d="M59 771v29l570 360v-29zM415 1500v-1475h166v-25h-512v25h167v1450h-167v25h346z" />
    <glyph glyph-name="Nacute" unicode="&#x143;" horiz-adv-x="1512" 
d="M721 1686l-15 17l198 223q19 22 41.5 24t41.5 -8t29 -27q9 -16 8.5 -36t-10 -36.5t-25.5 -25.5zM280 1500v-1475h238v-25h-466v25h202v1450h-202v25h228zM1461 1500v-25h-210v-1495h-34l-955 1520h229l735 -1193v1168h-235v25h470z" />
    <glyph glyph-name="nacute" unicode="&#x144;" horiz-adv-x="1177" 
d="M548 1106l-15 17l198 223q19 22 41.5 24t41.5 -8t29 -27q9 -16 8.5 -36t-10 -36.5t-25.5 -25.5zM373 920v-895h125v-25h-429v25h127v870h-127v25h304zM983 639v-614h127v-25h-430v25h125v587q0 84 -7 151t-33 106t-81 39q-92 0 -152.5 -46.5t-95 -118.5t-49 -151
t-14.5 -144l-17 -7q0 68 14 153t50.5 164t105.5 130t180 51q116 0 175.5 -39t80.5 -106.5t21 -154.5z" />
    <glyph glyph-name="uni0145" unicode="&#x145;" horiz-adv-x="1512" 
d="M599 -613v21q71 0 119.5 42.5t68.5 109t5 137.5h8q3 -18 -9 -38t-35 -34t-53 -14q-52 0 -76.5 27.5t-24.5 66.5q0 27 14 48.5t38.5 34t54.5 12.5q47 0 79.5 -40.5t32.5 -116.5q0 -62 -25.5 -121t-75 -97t-121.5 -38zM280 1500v-1475h238v-25h-466v25h202v1450h-202v25
h228zM1461 1500v-25h-210v-1495h-34l-955 1520h229l735 -1193v1168h-235v25h470z" />
    <glyph glyph-name="uni0146" unicode="&#x146;" horiz-adv-x="1177" 
d="M482 -613v21q71 0 119.5 42.5t68.5 109t5 137.5h8q3 -18 -9 -38t-35 -34t-53 -14q-52 0 -76.5 27.5t-24.5 66.5q0 27 14 48.5t38.5 34t54.5 12.5q47 0 79.5 -40.5t32.5 -116.5q0 -62 -25.5 -121t-75 -97t-121.5 -38zM373 920v-895h125v-25h-429v25h127v870h-127v25h304z
M983 639v-614h127v-25h-430v25h125v587q0 84 -7 151t-33 106t-81 39q-92 0 -152.5 -46.5t-95 -118.5t-49 -151t-14.5 -144l-17 -7q0 68 14 153t50.5 164t105.5 130t180 51q116 0 175.5 -39t80.5 -106.5t21 -154.5z" />
    <glyph glyph-name="Ncaron" unicode="&#x147;" horiz-adv-x="1512" 
d="M722 1700l-220 221l14 12l270 -143l272 143l14 -12l-220 -221h-130zM280 1500v-1475h238v-25h-466v25h202v1450h-202v25h228zM1461 1500v-25h-210v-1495h-34l-955 1520h229l735 -1193v1168h-235v25h470z" />
    <glyph glyph-name="ncaron" unicode="&#x148;" horiz-adv-x="1177" 
d="M549 1120l-220 221l14 12l270 -143l272 143l14 -12l-220 -221h-130zM373 920v-895h125v-25h-429v25h127v870h-127v25h304zM983 639v-614h127v-25h-430v25h125v587q0 84 -7 151t-33 106t-81 39q-92 0 -152.5 -46.5t-95 -118.5t-49 -151t-14.5 -144l-17 -7q0 68 14 153
t50.5 164t105.5 130t180 51q116 0 175.5 -39t80.5 -106.5t21 -154.5z" />
    <glyph glyph-name="napostrophe" unicode="&#x149;" horiz-adv-x="1404" 
d="M553 920v-895h125v-25h-429v25h127v870h-127v25h304zM1163 639v-614h127v-25h-430v25h125v587q0 84 -7 151t-33 106t-81 39q-92 0 -152.5 -46.5t-95 -118.5t-49 -151t-14.5 -144l-17 -7q0 68 14 153t50.5 164t105.5 130t180 51q116 0 175.5 -39t80.5 -106.5t21 -154.5z
M15 941v25q66 0 117 31t83.5 83t44 116.5t-2.5 131.5h8q4 -22 -10.5 -47t-43 -43t-66.5 -18q-64 0 -95 34.5t-31 83.5q0 33 17.5 60t48 42.5t68.5 15.5q39 0 71 -22.5t50.5 -66t18.5 -106.5q0 -78 -32 -151.5t-94 -121t-152 -47.5z" />
    <glyph glyph-name="Eng" unicode="&#x14a;" horiz-adv-x="1553" 
d="M978 -520q-96 0 -162 33.5t-100 86t-34 108.5q0 62 34 93t80 31q25 0 50.5 -10.5t43 -34t17.5 -63.5q0 -38 -28.5 -73.5t-78.5 -35.5q-29 0 -55.5 11t-43.5 31.5t-17 50.5h23q0 -48 30.5 -94.5t88 -76.5t141.5 -30q68 0 107 46.5t58 124.5t24.5 172.5t5.5 189.5v952
q0 93 -22.5 179.5t-67.5 155t-110.5 108.5t-152.5 40q-109 0 -188 -45t-129 -114.5t-74.5 -145.5t-24.5 -139h-16q0 50 15 113.5t48.5 129t87.5 121.5t132 90t182 34q170 0 280.5 -69.5t165 -181.5t54.5 -239l-1 -1052q0 -97 -16.5 -186.5t-56.5 -159.5t-110.5 -110.5
t-179.5 -40.5zM82 0v25h449v-25h-449zM222 0v1475h-140v25h311v-1500h-171z" />
    <glyph glyph-name="eng" unicode="&#x14b;" horiz-adv-x="1223" 
d="M698 -520q-81 0 -135.5 31t-82.5 81t-28 106q0 62 34 93t80 31q25 0 50.5 -10.5t43 -34t17.5 -63.5q0 -38 -28.5 -73.5t-78.5 -35.5q-29 0 -55.5 11t-43.5 31.5t-17 50.5h23q0 -50 25.5 -94.5t73.5 -72.5t118 -28q68 0 99 47.5t38 126t4 173.5t-3 190v562l180 37l-1 -662
q0 -97 -12.5 -186.5t-46.5 -159.5t-95 -110.5t-159 -40.5zM82 0v25h449v-25h-449zM222 0v895h-140v25h311v-920h-171zM377 451q0 62 22 144.5t67 161t114 130.5t162 52q115 0 172.5 -38.5t77.5 -106.5t20 -155l-180 -37q0 84 -8.5 151.5t-34.5 107.5t-80 40q-72 0 -130 -46
t-99.5 -116.5t-64 -147.5t-22.5 -140h-16z" />
    <glyph glyph-name="Omacron" unicode="&#x14c;" horiz-adv-x="1478" 
d="M500 1700v25h480v-25h-480zM740 -20q-153 0 -271.5 59.5t-201 165.5t-125 245.5t-42.5 299.5t45 299.5t129.5 245.5t202.5 165.5t263 59.5t262.5 -59.5t202 -165.5t129.5 -245.5t45 -299.5t-42.5 -299.5t-125 -245.5t-201 -165.5t-270.5 -59.5zM740 3q130 0 211 64.5
t124 172.5t59 241t16 269t-18.5 269t-64 241t-125 172.5t-202.5 64.5t-203 -64.5t-125.5 -172.5t-64 -241t-18.5 -269t16 -269t59 -241t124 -172.5t212 -64.5z" />
    <glyph glyph-name="omacron" unicode="&#x14d;" horiz-adv-x="1115" 
d="M318 1120v25h480v-25h-480zM558 -20q-141 0 -243.5 66t-158.5 175t-56 239t56 239t158.5 174.5t243.5 65.5t244 -65.5t158.5 -174.5t55.5 -239t-55.5 -239t-158.5 -175t-244 -66zM558 5q81 0 131 44t76 113t35 148.5t9 149.5q0 71 -9 150t-35 148t-76 113t-131 44
t-131 -44t-75.5 -113t-35 -148t-9.5 -150q0 -70 9.5 -149.5t35 -148.5t75.5 -113t131 -44z" />
    <glyph glyph-name="Obreve" unicode="&#x14e;" horiz-adv-x="1478" 
d="M739 1680q-90 0 -137 39t-64 98.5t-17 120.5h14q0 -49 28.5 -82t75.5 -49.5t100 -16.5q54 0 101 16.5t76 49.5t29 82h15q0 -61 -17.5 -120.5t-65.5 -98.5t-138 -39zM740 -20q-153 0 -271.5 59.5t-201 165.5t-125 245.5t-42.5 299.5t45 299.5t129.5 245.5t202.5 165.5
t263 59.5t262.5 -59.5t202 -165.5t129.5 -245.5t45 -299.5t-42.5 -299.5t-125 -245.5t-201 -165.5t-270.5 -59.5zM740 3q130 0 211 64.5t124 172.5t59 241t16 269t-18.5 269t-64 241t-125 172.5t-202.5 64.5t-203 -64.5t-125.5 -172.5t-64 -241t-18.5 -269t16 -269t59 -241
t124 -172.5t212 -64.5z" />
    <glyph glyph-name="obreve" unicode="&#x14f;" horiz-adv-x="1115" 
d="M557 1100q-90 0 -137 39t-64 98.5t-17 120.5h14q0 -49 28.5 -82t75.5 -49.5t100 -16.5q54 0 101 16.5t76 49.5t29 82h15q0 -61 -17.5 -120.5t-65.5 -98.5t-138 -39zM558 -20q-141 0 -243.5 66t-158.5 175t-56 239t56 239t158.5 174.5t243.5 65.5t244 -65.5t158.5 -174.5
t55.5 -239t-55.5 -239t-158.5 -175t-244 -66zM558 5q81 0 131 44t76 113t35 148.5t9 149.5q0 71 -9 150t-35 148t-76 113t-131 44t-131 -44t-75.5 -113t-35 -148t-9.5 -150q0 -70 9.5 -149.5t35 -148.5t75.5 -113t131 -44z" />
    <glyph glyph-name="Ohungarumlaut" unicode="&#x150;" horiz-adv-x="1478" 
d="M474 1686l-15 17l198 223q19 22 41 24t41.5 -8t29.5 -27q9 -16 8.5 -36t-10 -36.5t-25.5 -25.5zM884 1686l-15 17l198 223q19 22 41.5 24t41.5 -8t29 -27q9 -16 8.5 -36t-10 -36.5t-25.5 -25.5zM740 -20q-153 0 -271.5 59.5t-201 165.5t-125 245.5t-42.5 299.5t45 299.5
t129.5 245.5t202.5 165.5t263 59.5t262.5 -59.5t202 -165.5t129.5 -245.5t45 -299.5t-42.5 -299.5t-125 -245.5t-201 -165.5t-270.5 -59.5zM740 3q130 0 211 64.5t124 172.5t59 241t16 269t-18.5 269t-64 241t-125 172.5t-202.5 64.5t-203 -64.5t-125.5 -172.5t-64 -241
t-18.5 -269t16 -269t59 -241t124 -172.5t212 -64.5z" />
    <glyph glyph-name="ohungarumlaut" unicode="&#x151;" horiz-adv-x="1115" 
d="M293 1106l-15 17l198 223q19 22 41 24t41.5 -8t29.5 -27q9 -16 8.5 -36t-10 -36.5t-25.5 -25.5zM703 1106l-15 17l198 223q19 22 41.5 24t41.5 -8t29 -27q9 -16 8.5 -36t-10 -36.5t-25.5 -25.5zM558 -20q-141 0 -243.5 66t-158.5 175t-56 239t56 239t158.5 174.5
t243.5 65.5t244 -65.5t158.5 -174.5t55.5 -239t-55.5 -239t-158.5 -175t-244 -66zM558 5q81 0 131 44t76 113t35 148.5t9 149.5q0 71 -9 150t-35 148t-76 113t-131 44t-131 -44t-75.5 -113t-35 -148t-9.5 -150q0 -70 9.5 -149.5t35 -148.5t75.5 -113t131 -44z" />
    <glyph glyph-name="OE" unicode="&#x152;" horiz-adv-x="1923" 
d="M311 750q0 136 22.5 266t77 233.5t146 164.5t229.5 61l-19 25q-203 0 -358 -94.5t-242 -263.5t-87 -392t87 -392t242 -263.5t358 -94.5l19 25q-138 0 -229.5 61t-146 164.5t-77 233.5t-22.5 266zM765 0v25h179v1450h-179v25h1059v-410h-24q0 107 -32.5 194.5t-104 139
t-188.5 51.5h-340v-1450h320q137 0 216.5 53.5t114 149t34.5 222.5h25v-450h-1080zM1460 557q0 67 -27.5 113t-74 69.5t-103.5 23.5h-180v25h180q57 0 103.5 21.5t74 65.5t27.5 111h25v-429h-25z" />
    <glyph glyph-name="oe" unicode="&#x153;" horiz-adv-x="1762" 
d="M558 -20q-141 0 -243.5 66t-158.5 175t-56 239t56 239t158.5 174.5t243.5 65.5t244 -65.5t158.5 -174.5t55.5 -239t-55.5 -239t-158.5 -175t-244 -66zM558 5q81 0 131 44t76 113t35 148.5t9 149.5q0 71 -9 150t-35 148t-76 113t-131 44t-131 -44t-75.5 -113t-35 -148
t-9.5 -150q0 -70 9.5 -149.5t35 -148.5t75.5 -113t131 -44zM1271 -20q-130 0 -233.5 57.5t-164.5 165t-61 257.5t58.5 257.5t159.5 164.5t231 57q147 0 235 -58t128 -153t40 -204h-718v25h506q0 53 -6 116.5t-25 120t-57 93t-103 36.5q-73 0 -120 -38.5t-73.5 -103.5
t-37.5 -146t-11 -167t11.5 -167t40.5 -145t80.5 -102t130.5 -38q143 0 234.5 76t128.5 187h29q-39 -124 -139 -207.5t-264 -83.5z" />
    <glyph glyph-name="Racute" unicode="&#x154;" horiz-adv-x="1422" 
d="M586 1686l-15 17l198 223q19 22 41.5 24t41.5 -8t29 -27q9 -16 8.5 -36t-10 -36.5t-25.5 -25.5zM412 760v15h300q96 0 163 41.5t102 119t35 186.5t-35 188.5t-102 122t-163 42.5h-660v25h660q151 0 263.5 -40.5t174.5 -124t62 -213.5t-58 -209.5t-169.5 -116
t-272.5 -36.5h-300zM52 0v25h630v-25h-630zM271 13v1470h191v-1470h-191zM1202 -10q-87 0 -135.5 32t-70.5 86.5t-27.5 122t-6.5 139.5t-8 139.5t-31 122t-76.5 86.5t-144.5 32h-290v14h330q144 0 229.5 -40.5t128.5 -106.5t57.5 -145.5t15.5 -159t4 -145.5t21.5 -106
t69.5 -40q32 0 58 6.5t47 16.5l9 -23q-24 -13 -71 -22t-109 -9z" />
    <glyph glyph-name="racute" unicode="&#x155;" horiz-adv-x="869" 
d="M419 1106l-15 17l198 223q19 22 41.5 24t41.5 -8t29 -27q9 -16 8.5 -36t-10 -36.5t-25.5 -25.5zM358 436q0 90 15 179.5t49 162.5t88 117t132 44q55 0 95 -21.5t60.5 -56.5t20.5 -76q0 -51 -30.5 -86.5t-84.5 -35.5t-85.5 30t-31.5 75q0 58 37 86.5t80 28.5q32 0 58 -13
t41 -35.5t15 -49.5h-25q0 36 -19.5 65.5t-54 46.5t-78.5 17q-68 0 -118.5 -41t-83.5 -110.5t-49 -154.5t-16 -172h-15zM373 920v-895h133v-25h-437v25h127v870h-127v25h304z" />
    <glyph glyph-name="uni0156" unicode="&#x156;" horiz-adv-x="1422" 
d="M627 -613v21q71 0 119.5 42.5t68.5 109t5 137.5h8q3 -18 -9 -38t-35 -34t-53 -14q-52 0 -76.5 27.5t-24.5 66.5q0 27 14 48.5t38.5 34t54.5 12.5q47 0 79.5 -40.5t32.5 -116.5q0 -62 -25.5 -121t-75 -97t-121.5 -38zM412 760v15h300q96 0 163 41.5t102 119t35 186.5
t-35 188.5t-102 122t-163 42.5h-660v25h660q151 0 263.5 -40.5t174.5 -124t62 -213.5t-58 -209.5t-169.5 -116t-272.5 -36.5h-300zM52 0v25h630v-25h-630zM271 13v1470h191v-1470h-191zM1202 -10q-87 0 -135.5 32t-70.5 86.5t-27.5 122t-6.5 139.5t-8 139.5t-31 122
t-76.5 86.5t-144.5 32h-290v14h330q144 0 229.5 -40.5t128.5 -106.5t57.5 -145.5t15.5 -159t4 -145.5t21.5 -106t69.5 -40q32 0 58 6.5t47 16.5l9 -23q-24 -13 -71 -22t-109 -9z" />
    <glyph glyph-name="uni0157" unicode="&#x157;" horiz-adv-x="869" 
d="M185 -613v21q71 0 119.5 42.5t68.5 109t5 137.5h8q3 -18 -9 -38t-35 -34t-53 -14q-52 0 -76.5 27.5t-24.5 66.5q0 27 14 48.5t38.5 34t54.5 12.5q47 0 79.5 -40.5t32.5 -116.5q0 -62 -25.5 -121t-75 -97t-121.5 -38zM358 436q0 90 15 179.5t49 162.5t88 117t132 44
q55 0 95 -21.5t60.5 -56.5t20.5 -76q0 -51 -30.5 -86.5t-84.5 -35.5t-85.5 30t-31.5 75q0 58 37 86.5t80 28.5q32 0 58 -13t41 -35.5t15 -49.5h-25q0 36 -19.5 65.5t-54 46.5t-78.5 17q-68 0 -118.5 -41t-83.5 -110.5t-49 -154.5t-16 -172h-15zM373 920v-895h133v-25h-437
v25h127v870h-127v25h304z" />
    <glyph glyph-name="Rcaron" unicode="&#x158;" horiz-adv-x="1422" 
d="M587 1700l-220 221l14 12l270 -143l272 143l14 -12l-220 -221h-130zM412 760v15h300q96 0 163 41.5t102 119t35 186.5t-35 188.5t-102 122t-163 42.5h-660v25h660q151 0 263.5 -40.5t174.5 -124t62 -213.5t-58 -209.5t-169.5 -116t-272.5 -36.5h-300zM52 0v25h630v-25
h-630zM271 13v1470h191v-1470h-191zM1202 -10q-87 0 -135.5 32t-70.5 86.5t-27.5 122t-6.5 139.5t-8 139.5t-31 122t-76.5 86.5t-144.5 32h-290v14h330q144 0 229.5 -40.5t128.5 -106.5t57.5 -145.5t15.5 -159t4 -145.5t21.5 -106t69.5 -40q32 0 58 6.5t47 16.5l9 -23
q-24 -13 -71 -22t-109 -9z" />
    <glyph glyph-name="rcaron" unicode="&#x159;" horiz-adv-x="869" 
d="M420 1120l-220 221l14 12l270 -143l272 143l14 -12l-220 -221h-130zM358 436q0 90 15 179.5t49 162.5t88 117t132 44q55 0 95 -21.5t60.5 -56.5t20.5 -76q0 -51 -30.5 -86.5t-84.5 -35.5t-85.5 30t-31.5 75q0 58 37 86.5t80 28.5q32 0 58 -13t41 -35.5t15 -49.5h-25
q0 36 -19.5 65.5t-54 46.5t-78.5 17q-68 0 -118.5 -41t-83.5 -110.5t-49 -154.5t-16 -172h-15zM373 920v-895h133v-25h-437v25h127v870h-127v25h304z" />
    <glyph glyph-name="Sacute" unicode="&#x15a;" horiz-adv-x="1137" 
d="M492 1686l-15 17l198 223q19 22 41.5 24t41.5 -8t29 -27q9 -16 8.5 -36t-10 -36.5t-25.5 -25.5zM603 -29q-132 0 -225 41t-154 111l-100 -143h-21v411h24q17 -85 52 -157t91 -125t134 -82.5t182 -29.5q106 0 184.5 37t121.5 108t43 174q0 88 -43.5 148.5t-115 105.5
t-157 83t-171.5 79.5t-157 96.5t-115 132.5t-44 188.5q0 110 56.5 193.5t150.5 130t208 46.5q100 0 182.5 -31.5t142.5 -97.5l99 129h21v-411h-24q-20 131 -76 215.5t-139 125.5t-187 41q-143 0 -217 -69.5t-74 -183.5q0 -79 42.5 -134.5t112.5 -97t154 -79t168.5 -81
t154.5 -102.5t112.5 -142t42.5 -202q0 -130 -56 -226.5t-159 -149.5t-244 -53z" />
    <glyph glyph-name="sacute" unicode="&#x15b;" horiz-adv-x="882" 
d="M372 1106l-15 17l198 223q19 22 41.5 24t41.5 -8t29 -27q9 -16 8.5 -36t-10 -36.5t-25.5 -25.5zM98 -20v287h25q7 -71 53 -130t115.5 -94.5t149.5 -35.5q57 0 110 18t86 57t33 103q0 63 -39 99.5t-101.5 60t-132 45.5t-132 54t-102 86.5t-39.5 144.5q0 64 29.5 124
t90.5 99.5t156 39.5q70 0 128 -23t101 -60l81 84h23v-279h-26q-3 61 -42.5 119t-107.5 95.5t-155 37.5q-52 0 -94.5 -17t-67.5 -49t-25 -78q0 -57 41.5 -92t107 -60t138.5 -49t138.5 -58.5t107 -89t41.5 -139.5q0 -89 -44 -156.5t-119.5 -105.5t-170.5 -38q-72 0 -136 24.5
t-113 66.5l-87 -91h-21z" />
    <glyph glyph-name="Scircumflex" unicode="&#x15c;" horiz-adv-x="1137" 
d="M286 1705l-13 14l220 220h130l220 -220l-13 -14l-273 144zM603 -29q-132 0 -225 41t-154 111l-100 -143h-21v411h24q17 -85 52 -157t91 -125t134 -82.5t182 -29.5q106 0 184.5 37t121.5 108t43 174q0 88 -43.5 148.5t-115 105.5t-157 83t-171.5 79.5t-157 96.5
t-115 132.5t-44 188.5q0 110 56.5 193.5t150.5 130t208 46.5q100 0 182.5 -31.5t142.5 -97.5l99 129h21v-411h-24q-20 131 -76 215.5t-139 125.5t-187 41q-143 0 -217 -69.5t-74 -183.5q0 -79 42.5 -134.5t112.5 -97t154 -79t168.5 -81t154.5 -102.5t112.5 -142t42.5 -202
q0 -130 -56 -226.5t-159 -149.5t-244 -53z" />
    <glyph glyph-name="scircumflex" unicode="&#x15d;" horiz-adv-x="882" 
d="M166 1125l-13 14l220 220h130l220 -220l-13 -14l-273 144zM98 -20v287h25q7 -71 53 -130t115.5 -94.5t149.5 -35.5q57 0 110 18t86 57t33 103q0 63 -39 99.5t-101.5 60t-132 45.5t-132 54t-102 86.5t-39.5 144.5q0 64 29.5 124t90.5 99.5t156 39.5q70 0 128 -23t101 -60
l81 84h23v-279h-26q-3 61 -42.5 119t-107.5 95.5t-155 37.5q-52 0 -94.5 -17t-67.5 -49t-25 -78q0 -57 41.5 -92t107 -60t138.5 -49t138.5 -58.5t107 -89t41.5 -139.5q0 -89 -44 -156.5t-119.5 -105.5t-170.5 -38q-72 0 -136 24.5t-113 66.5l-87 -91h-21z" />
    <glyph glyph-name="Scedilla" unicode="&#x15e;" horiz-adv-x="1137" 
d="M468 -504v25q89 0 142.5 32.5t53.5 81.5q0 50 -29 75t-79.5 34t-115.5 9l173 233h32l-114 -153q72 -3 134.5 -20t101.5 -51.5t39 -90.5q0 -50 -34 -89.5t-108.5 -62.5t-195.5 -23zM603 -29q-132 0 -225 41t-154 111l-100 -143h-21v411h24q17 -85 52 -157t91 -125
t134 -82.5t182 -29.5q106 0 184.5 37t121.5 108t43 174q0 88 -43.5 148.5t-115 105.5t-157 83t-171.5 79.5t-157 96.5t-115 132.5t-44 188.5q0 110 56.5 193.5t150.5 130t208 46.5q100 0 182.5 -31.5t142.5 -97.5l99 129h21v-411h-24q-20 131 -76 215.5t-139 125.5t-187 41
q-143 0 -217 -69.5t-74 -183.5q0 -79 42.5 -134.5t112.5 -97t154 -79t168.5 -81t154.5 -102.5t112.5 -142t42.5 -202q0 -130 -56 -226.5t-159 -149.5t-244 -53z" />
    <glyph glyph-name="scedilla" unicode="&#x15f;" horiz-adv-x="882" 
d="M288 -500v25q89 0 142.5 32.5t53.5 81.5q0 50 -29 75t-79.5 34t-115.5 9l173 233h32l-114 -153q72 -3 134.5 -20t101.5 -51.5t39 -90.5q0 -50 -34 -89.5t-108.5 -62.5t-195.5 -23zM98 -20v287h25q7 -71 53 -130t115.5 -94.5t149.5 -35.5q57 0 110 18t86 57t33 103
q0 63 -39 99.5t-101.5 60t-132 45.5t-132 54t-102 86.5t-39.5 144.5q0 64 29.5 124t90.5 99.5t156 39.5q70 0 128 -23t101 -60l81 84h23v-279h-26q-3 61 -42.5 119t-107.5 95.5t-155 37.5q-52 0 -94.5 -17t-67.5 -49t-25 -78q0 -57 41.5 -92t107 -60t138.5 -49t138.5 -58.5
t107 -89t41.5 -139.5q0 -89 -44 -156.5t-119.5 -105.5t-170.5 -38q-72 0 -136 24.5t-113 66.5l-87 -91h-21z" />
    <glyph glyph-name="Scaron" unicode="&#x160;" horiz-adv-x="1137" 
d="M493 1700l-220 221l14 12l270 -143l272 143l14 -12l-220 -221h-130zM603 -29q-132 0 -225 41t-154 111l-100 -143h-21v411h24q17 -85 52 -157t91 -125t134 -82.5t182 -29.5q106 0 184.5 37t121.5 108t43 174q0 88 -43.5 148.5t-115 105.5t-157 83t-171.5 79.5t-157 96.5
t-115 132.5t-44 188.5q0 110 56.5 193.5t150.5 130t208 46.5q100 0 182.5 -31.5t142.5 -97.5l99 129h21v-411h-24q-20 131 -76 215.5t-139 125.5t-187 41q-143 0 -217 -69.5t-74 -183.5q0 -79 42.5 -134.5t112.5 -97t154 -79t168.5 -81t154.5 -102.5t112.5 -142t42.5 -202
q0 -130 -56 -226.5t-159 -149.5t-244 -53z" />
    <glyph glyph-name="scaron" unicode="&#x161;" horiz-adv-x="882" 
d="M373 1120l-220 221l14 12l270 -143l272 143l14 -12l-220 -221h-130zM98 -20v287h25q7 -71 53 -130t115.5 -94.5t149.5 -35.5q57 0 110 18t86 57t33 103q0 63 -39 99.5t-101.5 60t-132 45.5t-132 54t-102 86.5t-39.5 144.5q0 64 29.5 124t90.5 99.5t156 39.5q70 0 128 -23
t101 -60l81 84h23v-279h-26q-3 61 -42.5 119t-107.5 95.5t-155 37.5q-52 0 -94.5 -17t-67.5 -49t-25 -78q0 -57 41.5 -92t107 -60t138.5 -49t138.5 -58.5t107 -89t41.5 -139.5q0 -89 -44 -156.5t-119.5 -105.5t-170.5 -38q-72 0 -136 24.5t-113 66.5l-87 -91h-21z" />
    <glyph glyph-name="uni0162" unicode="&#x162;" horiz-adv-x="1313" 
d="M513 -488v25q89 0 142.5 32.5t53.5 81.5q0 50 -29 75t-79.5 34t-115.5 9l173 233h32l-114 -153q72 -3 134.5 -20t101.5 -51.5t39 -90.5q0 -50 -34 -89.5t-108.5 -62.5t-195.5 -23zM342 0v25h220v1450h-200q-89 0 -144.5 -30.5t-86.5 -86.5t-42.5 -134.5t-11.5 -173.5h-25
v450h1210v-450h-25q0 95 -12 173.5t-43 134.5t-87 86.5t-143 30.5h-200v-1450h220v-25h-630z" />
    <glyph glyph-name="uni0163" unicode="&#x163;" horiz-adv-x="674" 
d="M227 -488v25q89 0 142.5 32.5t53.5 81.5q0 50 -29 75t-79.5 34t-115.5 9l173 233h32l-114 -153q72 -3 134.5 -20t101.5 -51.5t39 -90.5q0 -50 -34 -89.5t-108.5 -62.5t-195.5 -23zM377 -14q-82 0 -122 36.5t-53.5 91t-13.5 109.5v897q45 0 97.5 19t82.5 41v-1017
q0 -75 18 -100.5t59 -25.5q52 0 99.5 48t75.5 110l21 -13q-38 -87 -103.5 -141.5t-160.5 -54.5zM49 895v25h533v-25h-533z" />
    <glyph glyph-name="Tcaron" unicode="&#x164;" horiz-adv-x="1313" 
d="M594 1700l-220 221l14 12l270 -143l272 143l14 -12l-220 -221h-130zM342 0v25h220v1450h-200q-89 0 -144.5 -30.5t-86.5 -86.5t-42.5 -134.5t-11.5 -173.5h-25v450h1210v-450h-25q0 95 -12 173.5t-43 134.5t-87 86.5t-143 30.5h-200v-1450h220v-25h-630z" />
    <glyph glyph-name="tcaron" unicode="&#x165;" horiz-adv-x="674" 
d="M473 1085v25q66 0 117 31t83.5 83t44 116.5t-2.5 131.5h8q4 -22 -10.5 -47t-43 -43t-66.5 -18q-64 0 -95 34.5t-31 83.5q0 50 38.5 84t95.5 34q59 0 99.5 -50t40.5 -145q0 -78 -32 -151.5t-94 -121t-152 -47.5zM377 -14q-82 0 -122 36.5t-53.5 91t-13.5 109.5v897
q45 0 97.5 19t82.5 41v-1017q0 -75 18 -100.5t59 -25.5q52 0 99.5 48t75.5 110l21 -13q-38 -87 -103.5 -141.5t-160.5 -54.5zM49 895v25h533v-25h-533z" />
    <glyph glyph-name="Tbar" unicode="&#x166;" horiz-adv-x="1313" 
d="M367 738v24h584v-24h-584zM342 0v25h220v1450h-200q-89 0 -144.5 -30.5t-86.5 -86.5t-42.5 -134.5t-11.5 -173.5h-25v450h1210v-450h-25q0 95 -12 173.5t-43 134.5t-87 86.5t-143 30.5h-200v-1450h220v-25h-630z" />
    <glyph glyph-name="tbar" unicode="&#x167;" horiz-adv-x="674" 
d="M47 598v24h540v-24h-540zM377 -14q-82 0 -122 36.5t-53.5 91t-13.5 109.5v897q45 0 97.5 19t82.5 41v-1017q0 -75 18 -100.5t59 -25.5q52 0 99.5 48t75.5 110l21 -13q-38 -87 -103.5 -141.5t-160.5 -54.5zM49 895v25h533v-25h-533z" />
    <glyph glyph-name="Utilde" unicode="&#x168;" horiz-adv-x="1428" 
d="M925 1680q-54 0 -99.5 24t-86.5 55t-82 55t-85 24q-50 0 -91.5 -30t-41.5 -108h-25q0 85 31 141.5t78 84.5t96 28q57 0 101 -24t82 -55t74.5 -55t75.5 -24q60 0 96.5 30t36.5 108h25q0 -95 -22 -150.5t-63 -79.5t-100 -24zM1373 1500v-25h-193v-1015q0 -247 -108 -368
t-345 -121q-259 0 -379.5 115t-120.5 374v1015h-179v25h570v-25h-200v-995q0 -99 14.5 -186t52 -152.5t106 -102.5t176.5 -37q128 0 214.5 48.5t130.5 149.5t44 260v1015h-186v25h403z" />
    <glyph glyph-name="utilde" unicode="&#x169;" horiz-adv-x="1180" 
d="M705 1100q-54 0 -99.5 24t-86.5 55t-82 55t-85 24q-50 0 -91.5 -30t-41.5 -108h-25q0 85 31 141.5t78 84.5t96 28q57 0 101 -24t82 -55t74.5 -55t75.5 -24q60 0 96.5 30t36.5 108h25q0 -95 -22 -150.5t-63 -79.5t-100 -24zM475 -20q-116 0 -176 39.5t-81.5 107.5
t-21.5 155v613h-127v25h306v-612q0 -84 7.5 -151t33.5 -106t82 -39q91 0 151.5 46.5t94.5 118.5t47.5 151t13.5 144l16 7q0 -68 -12.5 -153t-48 -164t-104 -130.5t-181.5 -51.5zM805 0v895h-140v25h321v-895h126v-25h-307z" />
    <glyph glyph-name="Umacron" unicode="&#x16a;" horiz-adv-x="1428" 
d="M518 1700v25h480v-25h-480zM1373 1500v-25h-193v-1015q0 -247 -108 -368t-345 -121q-259 0 -379.5 115t-120.5 374v1015h-179v25h570v-25h-200v-995q0 -99 14.5 -186t52 -152.5t106 -102.5t176.5 -37q128 0 214.5 48.5t130.5 149.5t44 260v1015h-186v25h403z" />
    <glyph glyph-name="umacron" unicode="&#x16b;" horiz-adv-x="1180" 
d="M298 1120v25h480v-25h-480zM475 -20q-116 0 -176 39.5t-81.5 107.5t-21.5 155v613h-127v25h306v-612q0 -84 7.5 -151t33.5 -106t82 -39q91 0 151.5 46.5t94.5 118.5t47.5 151t13.5 144l16 7q0 -68 -12.5 -153t-48 -164t-104 -130.5t-181.5 -51.5zM805 0v895h-140v25h321
v-895h126v-25h-307z" />
    <glyph glyph-name="Ubreve" unicode="&#x16c;" horiz-adv-x="1428" 
d="M757 1680q-90 0 -137 39t-64 98.5t-17 120.5h14q0 -49 28.5 -82t75.5 -49.5t100 -16.5q54 0 101 16.5t76 49.5t29 82h15q0 -61 -17.5 -120.5t-65.5 -98.5t-138 -39zM1373 1500v-25h-193v-1015q0 -247 -108 -368t-345 -121q-259 0 -379.5 115t-120.5 374v1015h-179v25h570
v-25h-200v-995q0 -99 14.5 -186t52 -152.5t106 -102.5t176.5 -37q128 0 214.5 48.5t130.5 149.5t44 260v1015h-186v25h403z" />
    <glyph glyph-name="ubreve" unicode="&#x16d;" horiz-adv-x="1180" 
d="M537 1100q-90 0 -137 39t-64 98.5t-17 120.5h14q0 -49 28.5 -82t75.5 -49.5t100 -16.5q54 0 101 16.5t76 49.5t29 82h15q0 -61 -17.5 -120.5t-65.5 -98.5t-138 -39zM475 -20q-116 0 -176 39.5t-81.5 107.5t-21.5 155v613h-127v25h306v-612q0 -84 7.5 -151t33.5 -106
t82 -39q91 0 151.5 46.5t94.5 118.5t47.5 151t13.5 144l16 7q0 -68 -12.5 -153t-48 -164t-104 -130.5t-181.5 -51.5zM805 0v895h-140v25h321v-895h126v-25h-307z" />
    <glyph glyph-name="Uring" unicode="&#x16e;" horiz-adv-x="1428" 
d="M758 1680q-76 0 -127.5 51.5t-51.5 127.5q0 77 51.5 129t127.5 52q77 0 128.5 -52t51.5 -129q0 -76 -51.5 -127.5t-128.5 -51.5zM758 1705q41 0 64.5 22t33.5 57.5t10 74.5q0 41 -10 76.5t-33.5 57.5t-64.5 22t-64.5 -22t-33 -57.5t-9.5 -76.5q0 -39 9.5 -74.5t33 -57.5
t64.5 -22zM1373 1500v-25h-193v-1015q0 -247 -108 -368t-345 -121q-259 0 -379.5 115t-120.5 374v1015h-179v25h570v-25h-200v-995q0 -99 14.5 -186t52 -152.5t106 -102.5t176.5 -37q128 0 214.5 48.5t130.5 149.5t44 260v1015h-186v25h403z" />
    <glyph glyph-name="uring" unicode="&#x16f;" horiz-adv-x="1180" 
d="M538 1100q-76 0 -127.5 51.5t-51.5 127.5q0 77 51.5 129t127.5 52q77 0 128.5 -52t51.5 -129q0 -76 -51.5 -127.5t-128.5 -51.5zM538 1125q41 0 64.5 22t33.5 57.5t10 74.5q0 41 -10 76.5t-33.5 57.5t-64.5 22t-64.5 -22t-33 -57.5t-9.5 -76.5q0 -39 9.5 -74.5t33 -57.5
t64.5 -22zM475 -20q-116 0 -176 39.5t-81.5 107.5t-21.5 155v613h-127v25h306v-612q0 -84 7.5 -151t33.5 -106t82 -39q91 0 151.5 46.5t94.5 118.5t47.5 151t13.5 144l16 7q0 -68 -12.5 -153t-48 -164t-104 -130.5t-181.5 -51.5zM805 0v895h-140v25h321v-895h126v-25h-307z
" />
    <glyph glyph-name="Uhungarumlaut" unicode="&#x170;" horiz-adv-x="1428" 
d="M493 1686l-15 17l198 223q19 22 41 24t41.5 -8t29.5 -27q9 -16 8.5 -36t-10 -36.5t-25.5 -25.5zM903 1686l-15 17l198 223q19 22 41.5 24t41.5 -8t29 -27q9 -16 8.5 -36t-10 -36.5t-25.5 -25.5zM1373 1500v-25h-193v-1015q0 -247 -108 -368t-345 -121q-259 0 -379.5 115
t-120.5 374v1015h-179v25h570v-25h-200v-995q0 -99 14.5 -186t52 -152.5t106 -102.5t176.5 -37q128 0 214.5 48.5t130.5 149.5t44 260v1015h-186v25h403z" />
    <glyph glyph-name="uhungarumlaut" unicode="&#x171;" horiz-adv-x="1180" 
d="M273 1106l-15 17l198 223q19 22 41 24t41.5 -8t29.5 -27q9 -16 8.5 -36t-10 -36.5t-25.5 -25.5zM683 1106l-15 17l198 223q19 22 41.5 24t41.5 -8t29 -27q9 -16 8.5 -36t-10 -36.5t-25.5 -25.5zM475 -20q-116 0 -176 39.5t-81.5 107.5t-21.5 155v613h-127v25h306v-612
q0 -84 7.5 -151t33.5 -106t82 -39q91 0 151.5 46.5t94.5 118.5t47.5 151t13.5 144l16 7q0 -68 -12.5 -153t-48 -164t-104 -130.5t-181.5 -51.5zM805 0v895h-140v25h321v-895h126v-25h-307z" />
    <glyph glyph-name="Uogonek" unicode="&#x172;" horiz-adv-x="1428" 
d="M910 -419q-51 0 -101 18t-82.5 56t-32.5 98t25.5 106.5t67.5 81t90.5 58.5t95.5 39l8 -14q-31 -17 -53.5 -50.5t-35 -80.5t-12.5 -104q0 -66 28.5 -110t79.5 -44q50 0 80.5 30.5t54.5 72.5l16 -12q-15 -28 -41.5 -62t-71.5 -58.5t-116 -24.5zM1373 1500v-25h-193v-1015
q0 -247 -108 -368t-345 -121q-259 0 -379.5 115t-120.5 374v1015h-179v25h570v-25h-200v-995q0 -99 14.5 -186t52 -152.5t106 -102.5t176.5 -37q128 0 214.5 48.5t130.5 149.5t44 260v1015h-186v25h403z" />
    <glyph glyph-name="uogonek" unicode="&#x173;" horiz-adv-x="1180" 
d="M892 -419q-51 0 -101 18t-82.5 56t-32.5 98t25.5 106.5t67.5 81t90.5 58.5t95.5 39l8 -14q-31 -17 -53.5 -50.5t-35 -80.5t-12.5 -104q0 -66 28.5 -110t79.5 -44q50 0 80.5 30.5t54.5 72.5l16 -12q-15 -28 -41.5 -62t-71.5 -58.5t-116 -24.5zM475 -20q-116 0 -176 39.5
t-81.5 107.5t-21.5 155v613h-127v25h306v-612q0 -84 7.5 -151t33.5 -106t82 -39q91 0 151.5 46.5t94.5 118.5t47.5 151t13.5 144l16 7q0 -68 -12.5 -153t-48 -164t-104 -130.5t-181.5 -51.5zM805 0v895h-140v25h321v-895h126v-25h-307z" />
    <glyph glyph-name="Wcircumflex" unicode="&#x174;" horiz-adv-x="1980" 
d="M776 1705l-13 14l220 220h130l220 -220l-13 -14l-273 144zM686 -20l-465 1495h-185v25h1414v-25h-493l370 -1195l424 1195h-200v25h394v-25h-165l-531 -1495h-27l-464 1495h-337l372 -1195l203 557l14 -44l-297 -813h-27zM1107 947l-22 21l175 522l27 -7z" />
    <glyph glyph-name="wcircumflex" unicode="&#x175;" horiz-adv-x="1529" 
d="M477 1125l-13 14l220 220h130l220 -220l-13 -14l-273 144zM1486 920v-25h-159l-307 -915h-24l-242 697l-295 -697h-27l-290 915h-113v25h446v-25h-155l212 -676l305 720h28l218 -687l215 643h-186v25h374z" />
    <glyph glyph-name="Ycircumflex" unicode="&#x176;" horiz-adv-x="1443" 
d="M498 1705l-13 14l220 220h130l220 -220l-13 -14l-273 144zM463 0v25h180v695l-461 755h-148v25h580v-25h-212l415 -687l394 687h-220v25h413v-25h-163l-408 -709v-741h201v-25h-571z" />
    <glyph glyph-name="ycircumflex" unicode="&#x177;" horiz-adv-x="1098" 
d="M339 1125l-13 14l220 220h130l220 -220l-13 -14l-273 144zM320 895l344 -709l-95 -227l-449 936h-91v25h449v-25h-158zM1089 920v-25h-121l-537 -1291q-27 -61 -57 -96t-87 -35q-25 0 -51 11t-44 34.5t-18 61.5q0 33 14.5 58t39.5 39t57 14q27 0 51 -12.5t40 -34.5
t20 -51l541 1302h-163v25h315z" />
    <glyph glyph-name="Ydieresis" unicode="&#x178;" horiz-adv-x="1443" 
d="M928 1690q-40 0 -68 28t-28 68t28 68.5t68 28.5t68 -28.5t28 -68.5t-28 -68t-68 -28zM608 1690q-40 0 -68 28t-28 68t28 68.5t68 28.5t68 -28.5t28 -68.5t-28 -68t-68 -28zM463 0v25h180v695l-461 755h-148v25h580v-25h-212l415 -687l394 687h-220v25h413v-25h-163
l-408 -709v-741h201v-25h-571z" />
    <glyph glyph-name="Zacute" unicode="&#x179;" horiz-adv-x="1131" 
d="M456 1686l-15 17l198 223q19 22 41.5 24t41.5 -8t29 -27q9 -16 8.5 -36t-10 -36.5t-25.5 -25.5zM40 0v25l790 1450h-376q-137 0 -211.5 -34t-104.5 -104t-30 -177h-24v340h956v-25l-790 -1450h435q137 0 212 36t104 114t29 205h25v-380h-1015z" />
    <glyph glyph-name="zacute" unicode="&#x17a;" horiz-adv-x="932" 
d="M410 1106l-15 17l198 223q19 22 41.5 24t41.5 -8t29 -27q9 -16 8.5 -36t-10 -36.5t-25.5 -25.5zM60 0v25l556 870h-195q-114 0 -174.5 -37.5t-83 -109t-22.5 -172.5h-25v344h714v-25l-558 -870h238q103 0 167.5 18.5t99.5 59.5t48 106.5t13 158.5h24v-368h-802z" />
    <glyph glyph-name="Zdotaccent" unicode="&#x17b;" horiz-adv-x="1131" 
d="M522 1856q-50 0 -85 35.5t-35 85.5q0 49 35 84.5t85 35.5q49 0 84.5 -35.5t35.5 -84.5q0 -50 -35.5 -85.5t-84.5 -35.5zM40 0v25l790 1450h-376q-137 0 -211.5 -34t-104.5 -104t-30 -177h-24v340h956v-25l-790 -1450h435q137 0 212 36t104 114t29 205h25v-380h-1015z" />
    <glyph glyph-name="zdotaccent" unicode="&#x17c;" horiz-adv-x="932" 
d="M477 1276q-50 0 -85 35.5t-35 85.5q0 49 35 84.5t85 35.5q49 0 84.5 -35.5t35.5 -84.5q0 -50 -35.5 -85.5t-84.5 -35.5zM60 0v25l556 870h-195q-114 0 -174.5 -37.5t-83 -109t-22.5 -172.5h-25v344h714v-25l-558 -870h238q103 0 167.5 18.5t99.5 59.5t48 106.5t13 158.5
h24v-368h-802z" />
    <glyph glyph-name="Zcaron" unicode="&#x17d;" horiz-adv-x="1131" 
d="M457 1700l-220 221l14 12l270 -143l272 143l14 -12l-220 -221h-130zM40 0v25l790 1450h-376q-137 0 -211.5 -34t-104.5 -104t-30 -177h-24v340h956v-25l-790 -1450h435q137 0 212 36t104 114t29 205h25v-380h-1015z" />
    <glyph glyph-name="zcaron" unicode="&#x17e;" horiz-adv-x="932" 
d="M412 1120l-220 221l14 12l270 -143l272 143l14 -12l-220 -221h-130zM60 0v25l556 870h-195q-114 0 -174.5 -37.5t-83 -109t-22.5 -172.5h-25v344h714v-25l-558 -870h238q103 0 167.5 18.5t99.5 59.5t48 106.5t13 158.5h24v-368h-802z" />
    <glyph glyph-name="longs" unicode="&#x17f;" horiz-adv-x="785" 
d="M620 1520q81 0 135.5 -30t82.5 -75.5t28 -92.5q0 -61 -34.5 -92.5t-80.5 -31.5q-25 0 -50.5 10.5t-43 34.5t-17.5 64q0 36 18 61t44 38t51 12q24 -1 46 -15.5t29 -38.5q-10 36 -38 65.5t-71 47.5t-99 18q-80 0 -127 -51t-67 -144t-20 -220v-1055h226v-25h-572v25h166v998
q0 131 44.5 244.5t132 183t217.5 69.5z" />
    <glyph glyph-name="uni0180" unicode="&#x180;" horiz-adv-x="615" 
d="M339 545q106 0 163.5 -73t57.5 -204q0 -133 -58.5 -205.5t-162.5 -72.5q-54 0 -96.5 19.5t-69.5 58.5h-7q-15 -59 -18 -68h-63v605h-76v66h76v89h88v-89h213v-66h-213v-30q0 -55 -5 -110h5q54 80 166 80zM324 472q-81 0 -116 -46t-35 -155v-4q0 -110 36 -157t117 -47
q72 0 107.5 53t35.5 153q0 102 -35.5 152.5t-109.5 50.5z" />
    <glyph glyph-name="uni0181" unicode="&#x181;" horiz-adv-x="729" 
d="M151 637q-61 0 -61 -50q0 -30 10 -54h-79q-4 10 -7.5 26.5t-3.5 28.5q0 65 34.5 95.5t106.5 30.5h230q144 0 207.5 -43t63.5 -134q0 -63 -34.5 -104.5t-101.5 -53.5v-5q82 -14 121 -57t39 -114q0 -96 -66 -149.5t-182 -53.5h-251v637h-26zM267 410h132q84 0 122 27t38 90
q0 59 -41.5 84.5t-132.5 25.5h-118v-227zM267 335v-259h144q86 0 127.5 33.5t41.5 100.5q0 64 -44 94.5t-132 30.5h-137z" />
    <glyph glyph-name="uni0182" unicode="&#x182;" horiz-adv-x="615" 
d="M564 209q0 -105 -63.5 -157t-194.5 -52h-209v714h424v-79h-334v-223h106q137 0 204 -48.5t67 -154.5zM187 77h110q92 0 133 31t41 101q0 68 -43 96.5t-146 28.5h-95v-257z" />
    <glyph glyph-name="uni0183" unicode="&#x183;" horiz-adv-x="615" 
d="M339 545q106 0 163.5 -73t57.5 -204q0 -133 -58.5 -205.5t-162.5 -72.5q-54 0 -96.5 19.5t-69.5 58.5h-7q-15 -59 -18 -68h-63v760h421v-74h-333v-111q0 -55 -5 -110h5q54 80 166 80zM324 472q-81 0 -116 -46t-35 -155v-4q0 -110 36 -157t117 -47q72 0 107.5 53t35.5 153
q0 102 -35.5 152.5t-109.5 50.5z" />
    <glyph glyph-name="uni0184" unicode="&#x184;" horiz-adv-x="634" 
d="M180 210q0 -77 37.5 -110t122.5 -33q80 0 115.5 35.5t35.5 102.5q0 69 -48 99t-140 30h-123v-124zM90 714h90v-302h134q129 0 199.5 -53t70.5 -154t-63.5 -158t-179.5 -57q-251 0 -251 220v504z" />
    <glyph glyph-name="uni0185" unicode="&#x185;" horiz-adv-x="611" 
d="M322 -10q-115 0 -177.5 72.5t-62.5 204.5v493h88v-185q0 -55 -5 -110h5q54 80 166 80q106 0 163.5 -73t57.5 -204q0 -134 -61 -206t-174 -72zM170 265q0 -96 40.5 -149t112.5 -53t107.5 53t35.5 153q0 102 -35.5 152.5t-109.5 50.5q-81 0 -116 -46t-35 -155v-6z" />
    <glyph glyph-name="uni0186" unicode="&#x186;" horiz-adv-x="631" 
d="M243 724q158 0 243 -96t85 -272q0 -110 -39.5 -192.5t-114.5 -128t-174 -45.5q-55 0 -98 6.5t-86 22.5v78q94 -28 170 -28q115 0 181 77t66 211q0 137 -63.5 212.5t-183.5 75.5q-77 0 -162 -39l-36 76q84 42 212 42z" />
    <glyph glyph-name="uni0187" unicode="&#x187;" horiz-adv-x="631" 
d="M403 645q-115 0 -181 -77t-66 -211q0 -138 64 -213t182 -75q76 0 171 28v-78q-45 -17 -87 -23t-97 -6q-158 0 -243 96t-85 272q0 110 41 193t118.5 128t183.5 45q61 0 117 -14v14q0 64 27 99t88 35q30 0 60 -13v-72q-24 10 -52 10q-47 0 -47 -48v-51l-36 -78
q-33 15 -71.5 27t-86.5 12z" />
    <glyph glyph-name="uni0188" unicode="&#x188;" horiz-adv-x="502" 
d="M300 -10q-116 0 -180.5 71t-64.5 204q0 135 65.5 208t185.5 73q27 0 65 -6v91q0 64 26.5 99t88.5 35q29 0 60 -13v-73q-23 10 -52 10q-47 0 -47 -48v-124l-27 -73q-68 25 -116 25q-81 0 -119.5 -51t-38.5 -152q0 -97 38.5 -148.5t114.5 -51.5q71 0 139 31v-78
q-55 -29 -138 -29z" />
    <glyph glyph-name="uni0189" unicode="&#x189;" horiz-adv-x="729" 
d="M86 738v24h605v-24h-605zM611 1500q223 0 384.5 -98.5t249 -268.5t87.5 -383q0 -160 -52.5 -296.5t-148 -238.5t-228 -158.5t-292.5 -56.5h-559v25h179v1450h-179v25h559zM422 25h189q138 0 232 61t151 164.5t82 233.5t25 266t-28 266t-86.5 233.5t-151.5 164.5t-223 61
h-190v-1450z" />
    <glyph glyph-name="uni018A" unicode="&#x18a;" horiz-adv-x="810" 
d="M654 361q0 136 -67 206t-203 70h-117v-560h97q290 0 290 284zM397 714q168 0 260 -92.5t92 -257.5q0 -177 -96.5 -270.5t-276.5 -93.5h-199v637h-26q-61 0 -61 -50q0 -30 10 -54h-79q-4 10 -7.5 26.5t-3.5 28.5q0 65 34.5 95.5t106.5 30.5h246z" />
    <glyph glyph-name="uni018B" unicode="&#x18b;" horiz-adv-x="615" 
d="M428 335h-82q-106 0 -154 -32t-48 -101q0 -63 44 -94t139 -31h101v258zM518 714v-714h-199q-268 0 -268 198q0 103 73.5 158.5t211.5 55.5h92v223h-334v79h424z" />
    <glyph glyph-name="uni018C" unicode="&#x18c;" horiz-adv-x="615" 
d="M289 63q80 0 117 43.5t37 143.5v16q0 112 -37.5 159.5t-117.5 47.5q-68 0 -105 -54t-37 -154t37 -151t106 -51zM530 0h-71l-13 72h-4q-56 -82 -167 -82q-104 0 -162 72.5t-58 204.5q0 131 58 205t163 74q108 0 166 -79h6q-1 10 -3.5 39.5t-2.5 39.5v140h-333v74h421v-760
z" />
    <glyph glyph-name="uni018D" unicode="&#x18d;" horiz-adv-x="604" 
d="M341 294q66 -38 95 -77t29 -87q0 -64 -48 -102t-132 -38q-51 0 -97 11.5t-109 42.5l38 69q37 -21 79 -36t93 -15q40 0 63.5 18.5t23.5 50.5q0 34 -26.5 60t-107.5 70q-104 57 -146 117t-42 136q0 115 66 180.5t184 65.5q112 0 179 -60.5t67 -163.5q0 -87 -54 -149.5
t-155 -92.5zM145 515q0 -62 30 -105.5t96 -77.5q92 22 139.5 74t47.5 131q0 67 -41.5 108.5t-112.5 41.5q-77 0 -118 -44.5t-41 -127.5z" />
    <glyph glyph-name="uni018E" unicode="&#x18e;" horiz-adv-x="556" 
d="M60 79h309v255h-291v78h291v223h-309v79h399v-714h-399v79z" />
    <glyph glyph-name="uni018F" unicode="&#x18f;" horiz-adv-x="738" 
d="M332 646q-110 0 -228 -41v82q61 21 114 29.5t116 8.5q162 0 252.5 -97.5t90.5 -271.5q0 -171 -85 -268.5t-237 -97.5q-147 0 -221.5 92t-74.5 275v34h523q-8 126 -71 190.5t-179 64.5zM355 69q100 0 159.5 63.5t67.5 179.5h-427q0 -125 49 -184t151 -59z" />
    <glyph glyph-name="uni0190" unicode="&#x190;" horiz-adv-x="587" 
d="M87 547q0 82 60.5 129.5t166.5 47.5q64 0 124 -18.5t109 -55.5l-43 -61q-52 36 -94 48.5t-94 12.5q-63 0 -99.5 -30.5t-36.5 -81.5q0 -60 48 -95.5t145 -35.5h97v-75h-102q-110 0 -165 -33t-55 -97q0 -67 48.5 -102.5t139.5 -35.5q105 0 214 52v-82q-90 -44 -219 -44
q-135 0 -206 52t-71 153q0 76 46.5 121t137.5 57v4q-72 12 -111.5 56.5t-39.5 113.5z" />
    <glyph glyph-name="uni0191" unicode="&#x191;" horiz-adv-x="519" 
d="M45 -240q-32 0 -56 13v76q21 -10 45 -10q35 0 49 20t14 62v793h399v-79h-309v-253h290v-79h-290v-386q0 -157 -142 -157z" />
    <glyph glyph-name="florin" unicode="&#x192;" horiz-adv-x="691" 
d="M-124 -520q-81 0 -130.5 32t-72.5 78t-23 88q0 41 16 68.5t42 41.5t56 14q25 0 51 -10.5t43.5 -34.5t17.5 -64q0 -35 -17 -60t-41.5 -38t-49.5 -13q-22 0 -49 9.5t-47 30.5t-20 56h23q0 -30 12.5 -60.5t37 -56t62 -41t89.5 -15.5q71 0 122.5 53t83.5 146.5t45 215.5
l113 1103q13 127 69 240.5t151 185t225 71.5q81 0 131 -32t73 -78t23 -88q0 -61 -33.5 -92.5t-79.5 -31.5q-25 0 -51.5 10.5t-45 34.5t-18.5 64q0 35 17 60t42.5 38t49.5 13q22 0 49.5 -9.5t47.5 -30.5t20 -56h-23q0 30 -12.5 61t-37.5 56t-62.5 40.5t-89.5 15.5
q-70 0 -121.5 -53t-83.5 -146t-46 -216l-122 -1103q-14 -125 -67.5 -239t-146 -186t-222.5 -72zM63 895v25h641v-25h-641z" />
    <glyph glyph-name="uni0193" unicode="&#x193;" horiz-adv-x="728" 
d="M407 377h247v-350q-57 -18 -115.5 -27.5t-135.5 -9.5q-163 0 -252.5 97t-89.5 270q0 112 44.5 195.5t128 127.5t197.5 44q71 0 137 -17v17q0 64 27 99t88 35q29 0 60 -13v-72q-24 10 -52 10q-47 0 -47 -48v-53l-34 -78q-94 41 -184 41q-127 0 -199 -77t-72 -211
q0 -142 68.5 -215.5t200.5 -73.5q72 0 140 17v212h-157v80z" />
    <glyph glyph-name="uni0194" unicode="&#x194;" horiz-adv-x="569" 
d="M334 108q33 -65 50 -121t17 -94q0 -59 -32 -96t-84 -37q-54 0 -85 37.5t-31 95.5q0 78 67 214l-236 607h94q89 -237 136.5 -362t54.5 -167q10 51 50 158l140 371h95zM319 -105q0 26 -8.5 62t-25.5 68q-19 -38 -26.5 -72t-7.5 -56q0 -31 9.5 -45t24.5 -14q34 0 34 57z" />
    <glyph glyph-name="uni0195" unicode="&#x195;" horiz-adv-x="934" 
d="M639 63q67 0 96.5 36t29.5 113v324h88v-327q0 -114 -51 -166.5t-163 -52.5q-110 0 -162 48.5t-52 147.5v157q0 65 -26 97t-83 32q-74 0 -108.5 -45.5t-34.5 -149.5v-277h-88v760h88v-223q0 -44 -5 -75h6q24 42 66 62.5t90 20.5q91 0 137 -46.5t46 -149.5v-157
q0 -65 30.5 -97t95.5 -32z" />
    <glyph glyph-name="uni0196" unicode="&#x196;" horiz-adv-x="348" 
d="M179 714v-549q0 -48 18 -72t59 -24q21 0 44 3.5t38 7.5v-74q-13 -6 -40 -11t-55 -5q-80 0 -116.5 41.5t-36.5 125.5v557h89z" />
    <glyph glyph-name="uni0197" unicode="&#x197;" horiz-adv-x="338" 
d="M298 0h-258v52l84 19v256h-90v78h90v237l-84 20v52h258v-52l-84 -20v-237h90v-78h-90v-256l84 -19v-52z" />
    <glyph glyph-name="uni0198" unicode="&#x198;" horiz-adv-x="619" 
d="M327 405l292 -405h-106q-30 40 -121 172q-71 103 -126 170l-79 -77v-265h-90v714h90v-360q28 35 60 72q21 24 185 225q29 38 54.5 53.5t66.5 15.5q30 0 50 -8v-70q-21 3 -44 3q-17 0 -31.5 -10t-36.5 -36z" />
    <glyph glyph-name="uni0199" unicode="&#x199;" horiz-adv-x="534" 
d="M172 363l-4 -87h4l30 38l34 41l171 181h103l-217 -229l232 -307h-106l-186 250l-61 -53v-197h-87v625q0 140 121 140q33 0 65 -13v-73q-23 10 -52 10q-23 0 -35 -13t-12 -45v-268z" />
    <glyph glyph-name="uni019A" unicode="&#x19a;" horiz-adv-x="257" 
d="M173 420h70v-66h-70v-354h-88v354h-70v66h70v340h88v-340z" />
    <glyph glyph-name="uni019B" unicode="&#x19b;" horiz-adv-x="541" 
d="M-6 0l231 526l-23 64l-106 -32l-19 63l99 30q-13 22 -29.5 32t-45.5 10q-30 0 -56 -6v71q33 8 66 8q53 0 87 -21t59 -69l109 33l19 -63l-102 -32l179 -498q10 -28 21.5 -41t28.5 -13q12 0 30 5v-65q-24 -12 -57 -12q-36 0 -58 18t-38 63l-73 205q-42 119 -50 159h-4
q-16 -62 -55 -154l-122 -281h-91z" />
    <glyph glyph-name="uni019C" unicode="&#x19c;" horiz-adv-x="1029" 
d="M180 714v-506q0 -70 29 -105t92 -35q84 0 124.5 47t40.5 147v452h90v-506q0 -70 29 -105t94 -35q84 0 123.5 49.5t39.5 164.5v432h90v-714h-71l-15 82h-5q-25 -42 -74 -67t-107 -25q-68 0 -110.5 24.5t-64.5 75.5h-5q-28 -48 -79.5 -74t-113.5 -26q-103 0 -150 53
t-47 165v506h90z" />
    <glyph glyph-name="uni019D" unicode="&#x19d;" horiz-adv-x="759" 
d="M97 714h104l22 -35l235 -362l124 -194h4q-1 12 -4 84t-3 104v403h84v-714h-105l-382 593h-4l2 -40q6 -89 6 -154v-482q0 -83 -34 -120t-101 -37q-32 0 -56 13v76q21 -10 45 -10q35 0 49 20t14 62v793z" />
    <glyph glyph-name="uni019E" unicode="&#x19e;" horiz-adv-x="618" 
d="M450 -240v583q0 64 -28.5 96.5t-91.5 32.5q-83 0 -120 -46.5t-37 -147.5v-278h-88v536h71l13 -73h5q25 40 70 61.5t99 21.5q99 0 146.5 -48t47.5 -149v-589h-87z" />
    <glyph glyph-name="uni019F" unicode="&#x19f;" horiz-adv-x="782" 
d="M720 358q0 -171 -86.5 -269.5t-242.5 -98.5q-158 0 -244 96.5t-86 272.5q0 174 85.5 270t245.5 96q155 0 241.5 -97.5t86.5 -269.5zM391 68q108 0 167.5 65t65.5 192h-467q6 -127 65.5 -192t168.5 -65zM392 646q-106 0 -165.5 -61.5t-69.5 -181.5h466q-9 121 -67.5 182
t-163.5 61z" />
    <glyph glyph-name="Ohorn" unicode="&#x1a0;" horiz-adv-x="784" 
d="M719 358q0 -173 -86.5 -270.5t-241.5 -97.5q-158 0 -244 96t-86 273q0 176 86 271t245 95t247 -104q33 9 48.5 39.5t15.5 99.5h95l7 -11q-15 -78 -47.5 -120.5t-83.5 -61.5q45 -85 45 -209zM156 358q0 -142 59.5 -216t175.5 -74t174.5 73t58.5 217q0 143 -58.5 215.5
t-173.5 72.5q-118 0 -177 -73.5t-59 -214.5z" />
    <glyph glyph-name="ohorn" unicode="&#x1a1;" horiz-adv-x="616" 
d="M551 269q0 -131 -66.5 -205t-183.5 -74q-73 0 -129 34t-86.5 97.5t-30.5 147.5q0 131 65.5 204t183.5 73q53 0 97.5 -18t76.5 -51q24 7 38.5 23.5t21.5 41t7 76.5h94l7 -11q-16 -79 -46.5 -121.5t-82.5 -61.5q34 -69 34 -155zM146 269q0 -105 38.5 -155.5t118.5 -50.5
q83 0 120 52t37 154q0 100 -38 151.5t-120 51.5q-83 0 -119.5 -51.5t-36.5 -151.5z" />
    <glyph glyph-name="uni01A2" unicode="&#x1a2;" horiz-adv-x="1075" 
d="M688 358q0 -173 -82.5 -270.5t-230.5 -97.5q-150 0 -232 96.5t-82 272.5q0 174 82 270t233 96q142 0 224 -91q28 43 78 67t110 24q102 0 149.5 -52.5t47.5 -165.5v-507h-90v507q0 70 -29 105t-92 35q-53 0 -86.5 -15t-52.5 -46q53 -92 53 -228zM156 358q0 -142 56 -216
t163 -74t162.5 73t55.5 217q0 143 -55 215.5t-162 72.5q-108 0 -164 -73.5t-56 -214.5z" />
    <glyph glyph-name="uni01A3" unicode="&#x1a3;" horiz-adv-x="845" 
d="M526 269q0 -132 -63.5 -205.5t-173.5 -73.5q-69 0 -122.5 34t-82.5 98t-29 147q0 130 62.5 203.5t173.5 73.5q106 0 169 -72q26 37 64 54.5t80 17.5q80 0 120 -47t40 -150v-589h-87v585q0 127 -92 127q-63 0 -94 -44q35 -63 35 -159zM146 269q0 -101 36.5 -153.5
t107.5 -52.5t108 52t37 154q0 101 -37 152t-108 51q-144 0 -144 -203z" />
    <glyph glyph-name="uni01A4" unicode="&#x1a4;" horiz-adv-x="685" 
d="M267 355h72q106 0 154 34.5t48 110.5q0 69 -44.5 103t-138.5 34h-91v-282zM366 714q268 0 268 -210q0 -109 -74.5 -167.5t-210.5 -58.5h-82v-278h-90v637h-26q-61 0 -61 -50q0 -30 10 -54h-79q-4 10 -7.5 26.5t-3.5 28.5q0 65 34.5 95.5t106.5 30.5h215z" />
    <glyph glyph-name="uni01A5" unicode="&#x1a5;" horiz-adv-x="615" 
d="M207 765q33 0 65 -13v-73q-23 10 -52 10q-23 0 -35 -13t-12 -45v-80q0 -30 -4 -68l-2 -20h6q31 44 72 63.5t95 19.5q104 0 162 -72.5t58 -204.5q0 -131 -58 -205t-163 -74q-108 0 -166 78h-6l2 -20q4 -38 4 -68v-220h-88l1 865q0 140 121 140zM324 472q-80 0 -115 -45
t-36 -141v-17q0 -109 36 -157.5t117 -48.5q67 0 105 54.5t38 152.5t-38 150t-107 52z" />
    <glyph glyph-name="uni01A6" unicode="&#x1a6;" horiz-adv-x="622" 
d="M187 271h107q87 0 127 34t40 102q0 67 -40.5 98t-131.5 31h-102v-265zM187 195v-195h-90v714h90v-100h107q133 0 196.5 -50.5t63.5 -152.5q0 -142 -143 -191l196 -320h-105l-173 295h-142z" />
    <glyph glyph-name="uni01A7" unicode="&#x1a7;" horiz-adv-x="548" 
d="M47 191q0 48 20 84t61 63.5t124 58.5q68 25 98.5 44t44 42t13.5 58q0 49 -36 76.5t-99 27.5q-72 0 -154 -38l-28 77q85 40 180 40q102 0 165 -49.5t63 -132.5q0 -76 -41.5 -125.5t-142.5 -86.5q-78 -28 -113 -48t-50 -43t-15 -56q0 -54 40.5 -84.5t120.5 -30.5
q91 0 200 47v-86q-34 -17 -85 -28t-111 -11q-120 0 -187.5 54t-67.5 147z" />
    <glyph glyph-name="uni01A8" unicode="&#x1a8;" horiz-adv-x="479" 
d="M45 148q0 37 15 64t46.5 48.5t99.5 46.5q88 34 113 53t25 49t-28 47.5t-83 17.5q-50 0 -132 -34l-30 70q81 36 156 36q98 0 149.5 -36.5t51.5 -105.5q0 -37 -14.5 -63t-45 -47t-106.5 -50q-53 -20 -81 -35.5t-39.5 -31t-11.5 -37.5q0 -39 32 -59t95 -20q84 0 170 43v-80
q-62 -34 -168 -34q-214 0 -214 158z" />
    <glyph glyph-name="uni01A9" unicode="&#x1a9;" horiz-adv-x="569" 
d="M36 0v74l234 299l-228 266v75h475v-80h-325l-47 1l225 -261l-235 -296l163 1h248v-79h-510z" />
    <glyph glyph-name="uni01AA" unicode="&#x1aa;" horiz-adv-x="309" 
d="M67 542q-60 0 -91.5 29.5t-31.5 82.5q0 54 32.5 82.5t92.5 28.5q63 0 96.5 -36t33.5 -105v-696q0 -49 18 -72.5t59 -23.5q19 0 43.5 3t38.5 8v-67q-15 -7 -41.5 -11.5t-52.5 -4.5q-80 0 -116 41t-36 126v615h-45zM63 693q-21 0 -30 -12t-9 -27q0 -40 49 -40h39v13
q0 35 -12.5 50.5t-36.5 15.5z" />
    <glyph glyph-name="uni01AB" unicode="&#x1ab;" horiz-adv-x="360" 
d="M222 -240q-29 0 -60 12v73q22 -9 50 -9q48 0 48 52v102h-11q-157 0 -157 166v312h-76v42l77 35l35 114h52v-123h155v-68h-155v-310q0 -46 22.5 -71t61.5 -25q17 0 40 3.5t35 7.5v-180q0 -133 -117 -133z" />
    <glyph glyph-name="uni01AC" unicode="&#x1ac;" horiz-adv-x="576" 
d="M151 635q-61 0 -61 -48q0 -30 10 -54h-79q-4 10 -7.5 26.5t-3.5 28.5q0 65 34.5 95.5t106.5 30.5h414v-79h-222v-635h-90v635h-102z" />
    <glyph glyph-name="uni01AD" unicode="&#x1ad;" horiz-adv-x="360" 
d="M180 536h155v-68h-155v-310q0 -46 22.5 -71t61.5 -25q17 0 40 3.5t35 7.5v-67q-12 -5 -38 -10.5t-52 -5.5q-157 0 -157 166v312h-76v42l77 35v66q0 154 147 154q39 0 77 -13v-73q-11 4 -34.5 7t-42.5 3q-32 0 -46 -17t-14 -51v-85z" />
    <glyph glyph-name="uni01AE" unicode="&#x1ae;" horiz-adv-x="556" 
d="M233 635h-223v79h535v-79h-222v-714q0 -42 14.5 -62t48.5 -20q24 0 45 10v-76q-24 -13 -63 -13q-68 0 -101.5 37t-33.5 120v718z" />
    <glyph glyph-name="Uhorn" unicode="&#x1af;" horiz-adv-x="779" 
d="M640 714v-97q40 5 59 37t19 106h93l7 -11q-16 -90 -59 -135.5t-119 -58.5v-303q0 -125 -70.5 -193.5t-200.5 -68.5q-133 0 -206 70.5t-73 193.5v460h90v-464q0 -86 47.5 -134t143.5 -48q88 0 134 46.5t46 136.5v463h89z" />
    <glyph glyph-name="uhorn" unicode="&#x1b0;" horiz-adv-x="673" 
d="M168 535v-344q0 -65 29 -96.5t90 -31.5q83 0 120.5 46t37.5 148v278h88v-59q39 6 57 37.5t18 105.5h93l7 -11q-16 -93 -59 -139.5t-116 -54.5v-414h-72l-13 71h-4q-24 -39 -67.5 -60t-100.5 -21q-98 0 -147.5 46.5t-49.5 148.5v350h89z" />
    <glyph glyph-name="uni01B1" unicode="&#x1b1;" horiz-adv-x="782" 
d="M391 68q114 0 173 62t59 183q0 110 -40.5 189t-126.5 140v72h288v-79h-178q74 -57 113 -141t39 -184q0 -150 -87 -235.5t-240 -85.5q-155 0 -241.5 85t-86.5 235q0 100 39 185t112 141h-177v79h288v-72q-87 -62 -127.5 -142t-40.5 -187q0 -120 59.5 -182.5t174.5 -62.5z
" />
    <glyph glyph-name="uni01B2" unicode="&#x1b2;" horiz-adv-x="600" 
d="M571 580q0 -53 -45 -157l-181 -423h-90l-255 714h94l162 -466q31 -88 45 -156q8 30 27 73q21 50 32 81l85 203q36 88 36 125q0 39 -16 55t-47 16q-24 0 -45 -10v76q22 13 63 13q135 0 135 -144z" />
    <glyph glyph-name="uni01B3" unicode="&#x1b3;" horiz-adv-x="565" 
d="M39 649q-21 0 -39 -8v73q28 11 60 11q37 0 59.5 -17.5t40.5 -57.5l128 -287l181 351h97l-233 -437v-277h-90v273l-162 341q-18 35 -42 35z" />
    <glyph glyph-name="uni01B4" unicode="&#x1b4;" horiz-adv-x="541" 
d="M485 546q33 0 57 -12v-65q-18 5 -30 5q-18 0 -28.5 -13t-21.5 -41l-183 -494q-32 -87 -79 -126.5t-116 -39.5q-37 0 -73 8v70q24 -6 59 -6q85 0 121 95l26 71l-216 538h94l116 -305q37 -100 45 -146h4q8 36 48 147l76 217q19 54 41 75.5t60 21.5z" />
    <glyph glyph-name="uni01B5" unicode="&#x1b5;" horiz-adv-x="571" 
d="M79 407h184l151 227h-364v80h473v-68l-159 -239h122v-71h-169l-170 -256h386v-80h-495v68l178 268h-137v71z" />
    <glyph glyph-name="uni01B6" unicode="&#x1b6;" horiz-adv-x="470" 
d="M57 313h161l109 155h-271v68h368v-66l-111 -157h101v-70h-151l-123 -175h291v-68h-392v58l130 185h-112v70z" />
    <glyph glyph-name="uni01B7" unicode="&#x1b7;" horiz-adv-x="583" 
d="M291 440q68 -2 122.5 -30t85 -76.5t30.5 -112.5q0 -109 -76 -170t-212 -61q-126 0 -206 39v82q49 -23 104 -35t103 -12q97 0 145 41t48 117q0 69 -49.5 107t-143.5 38h-62v65l206 202h-331v80h444v-71z" />
    <glyph glyph-name="uni01B8" unicode="&#x1b8;" horiz-adv-x="583" 
d="M85 643v71h444v-80h-330l205 -202v-65h-78q-84 0 -130.5 -40.5t-46.5 -113.5q0 -71 49.5 -110t143.5 -39q49 0 103.5 11.5t103.5 35.5v-82q-45 -21 -98.5 -30t-119.5 -9q-87 0 -149 27t-94.5 77t-32.5 117q0 68 30 119t84.5 79.5t123.5 30.5z" />
    <glyph glyph-name="uni01B9" unicode="&#x1b9;" horiz-adv-x="498" 
d="M61 472v64h409v-74h-306l219 -243v-61h-59q-101 0 -151.5 -42.5t-50.5 -124.5q0 -71 47 -114.5t126 -43.5q100 0 189 42v-80q-68 -35 -196 -35q-113 0 -183.5 63t-70.5 166q0 105 64.5 168t181.5 71z" />
    <glyph glyph-name="uni01BA" unicode="&#x1ba;" horiz-adv-x="498" 
d="M216 -167q84 0 160 36v-80q-60 -29 -161 -29q-90 0 -138.5 31t-48.5 88q0 62 46.5 91.5t137.5 29.5q80 0 114.5 27.5t34.5 94.5q0 60 -44.5 88t-142.5 28h-59v61l183 163h-270v74h394v-64l-187 -164q104 -5 159 -51.5t55 -133.5q0 -95 -59.5 -145.5t-175.5 -50.5
q-53 0 -78 -10.5t-25 -37.5q0 -21 26.5 -33.5t78.5 -12.5z" />
    <glyph glyph-name="uni01BB" unicode="&#x1bb;" horiz-adv-x="569" 
d="M78 419h241q27 44 39 82t12 81q0 50 -29.5 78t-82.5 28q-45 0 -81.5 -16.5t-73.5 -49.5l-47 59q93 84 204 84q94 0 147.5 -48.5t53.5 -132.5q0 -42 -10.5 -81.5t-35.5 -83.5h100v-70h-144q-11 -16 -23.5 -32.5t-201.5 -242.5v-4h374v-70h-472v73l175 215l47 61h-192v70z
" />
    <glyph glyph-name="uni01BC" unicode="&#x1bc;" horiz-adv-x="583" 
d="M224 634v-193h42q77 0 137 -27t93 -76.5t33 -116.5q0 -109 -76 -170t-212 -61q-126 0 -206 39v82q49 -23 104 -35t103 -12q97 0 145 41t48 117q0 68 -47 106.5t-130 38.5h-124v267h-79v80h444v-80h-275z" />
    <glyph glyph-name="uni01BD" unicode="&#x1bd;" horiz-adv-x="490" 
d="M198 462v-117h23q107 0 165.5 -46.5t58.5 -135.5q0 -82 -60.5 -127.5t-168.5 -45.5q-118 0 -183 35v79q89 -42 182 -42q69 0 106 26.5t37 79.5t-37.5 79t-115.5 26h-95v189h-62v74h364v-74h-214z" />
    <glyph glyph-name="uni01BE" unicode="&#x1be;" horiz-adv-x="462" 
d="M136 378v90h-91v42l92 35l35 114h52v-123h155v-68h-155v-92q0 -34 10.5 -49.5t36.5 -24.5q83 -31 115 -66.5t32 -87.5q0 -75 -56 -116.5t-158 -41.5q-105 0 -168 34v80q86 -43 170 -43q66 0 96.5 21.5t30.5 57.5q0 29 -24 49.5t-90 47.5q-47 20 -65 52t-18 89z" />
    <glyph glyph-name="uni01BF" unicode="&#x1bf;" horiz-adv-x="586" 
d="M173 -240h-88v776h72l12 -73h4q55 83 158 83q96 0 152 -59t56 -164q0 -91 -45.5 -164.5t-130 -117.5t-190.5 -51v-230zM173 62q131 17 203 85.5t72 173.5q0 69 -36 110t-99 41q-73 0 -106.5 -44t-33.5 -142v-224z" />
    <glyph glyph-name="uni01C0" unicode="&#x1c0;" horiz-adv-x="516" 
d="M297 -240h-78v1000h78v-1000z" />
    <glyph glyph-name="uni01C1" unicode="&#x1c1;" horiz-adv-x="516" 
d="M169 -240h-78v1000h78v-1000zM426 -240h-78v1000h78v-1000z" />
    <glyph glyph-name="uni01C2" unicode="&#x1c2;" horiz-adv-x="516" 
d="M65 402h154v358h78v-358h154v-72h-154v-124h154v-72h-154v-374h-78v374h-154v72h154v124h-154v72z" />
    <glyph glyph-name="uni01C3" unicode="&#x1c3;" horiz-adv-x="269" 
d="M163 201h-57l-25 513h107zM72 54q0 32 16 49.5t46 17.5t46 -18t16 -49t-16.5 -49.5t-45.5 -18.5q-30 0 -46 18t-16 50z" />
    <glyph glyph-name="uni01C4" unicode="&#x1c4;" horiz-adv-x="1291" 
d="M1135 1865l-220 221l14 12l270 -143l272 143l14 -12l-220 -221h-130zM611 1500q223 0 384.5 -98.5t249 -268.5t87.5 -383q0 -160 -52.5 -296.5t-148 -238.5t-228 -158.5t-292.5 -56.5h-559v25h179v1450h-179v25h559zM422 25h189q138 0 232 61t151 164.5t82 233.5t25 266
t-28 266t-86.5 233.5t-151.5 164.5t-223 61h-190v-1450zM760 0v25l790 1450h-376q-137 0 -211.5 -34t-104.5 -104t-30 -177h-24v340h956v-25l-790 -1450h435q137 0 212 36t104 114t29 205h25v-380h-1015z" />
    <glyph glyph-name="uni01C5" unicode="&#x1c5;" horiz-adv-x="1200" 
d="M1108 1700l-220 221l14 12l270 -143l272 143l14 -12l-220 -221h-130zM611 1500q223 0 384.5 -98.5t249 -268.5t87.5 -383q0 -160 -52.5 -296.5t-148 -238.5t-228 -158.5t-292.5 -56.5h-559v25h179v1450h-179v25h559zM422 25h189q138 0 232 61t151 164.5t82 233.5t25 266
t-28 266t-86.5 233.5t-151.5 164.5t-223 61h-190v-1450zM790 0v25l556 870h-195q-114 0 -174.5 -37.5t-83 -109t-22.5 -172.5h-25v344h714v-25l-558 -870h238q103 0 167.5 18.5t99.5 59.5t48 106.5t13 158.5h24v-368h-802z" />
    <glyph glyph-name="uni01C6" unicode="&#x1c6;" horiz-adv-x="1084" 
d="M995 1700l-220 221l14 12l270 -143l272 143l14 -12l-220 -221h-130zM517 -19q-107 0 -202 57t-155 164t-60 257t60 257.5t155 165t202 57.5q127 0 208 -91t107 -250v877h-126v25h307v-1475h126v-25h-307v321q-26 -159 -107 -249.5t-208 -90.5zM550 19q76 0 140 51
t103 149t39 240q0 143 -39 241.5t-103 150t-140 51.5q-81 0 -135 -55t-81 -154.5t-27 -233.5t27 -232.5t81 -153t135 -54.5zM675 0v25l556 870h-195q-114 0 -174.5 -37.5t-83 -109t-22.5 -172.5h-25v344h714v-25l-558 -870h238q103 0 167.5 18.5t99.5 59.5t48 106.5
t13 158.5h24v-368h-802z" />
    <glyph glyph-name="uni01C7" unicode="&#x1c7;" horiz-adv-x="796" 
d="M52 0v25h179v1450h-179v25h549v-25h-179v-1450h309q118 0 190.5 30.5t110.5 86.5t51 134.5t13 173.5h25v-450h-1069zM1350 1500v-25h-200v-1135q-15 -53 -40 -121t-64.5 -132t-99.5 -106t-146 -42q-77 0 -131 33t-82.5 83t-28.5 100q0 42 16 71t42 44t56 15q25 0 51 -12
t44 -38t18 -67q0 -39 -17 -64t-44 -36t-57 -9q-22 1 -43.5 15.5t-28.5 37.5q10 -36 36 -69.5t66.5 -54.5t93.5 -21q72 0 108.5 45t49 137t12.5 231v1095h-260v25h649z" />
    <glyph glyph-name="uni01C8" unicode="&#x1c8;" horiz-adv-x="782" 
d="M52 0v25h179v1450h-179v25h549v-25h-179v-1450h309q118 0 190.5 30.5t110.5 86.5t51 134.5t13 173.5h25v-450h-1069zM626 -520q-81 0 -135.5 31t-82.5 81t-28 106q0 62 34 93t80 31q25 0 50.5 -10.5t43 -34t17.5 -63.5q0 -38 -32 -73.5t-82 -35.5q-29 0 -54 11t-40 31.5
t-15 50.5h23q0 -52 25.5 -96t72.5 -70.5t112 -26.5q68 0 99.5 47t40.5 125t7 173t-2 190v855h-167v25h346v-943q0 -98 -12.5 -187.5t-46.5 -159t-95 -110t-159 -40.5zM834 1279q-49 0 -84.5 36t-35.5 85q0 50 35.5 85t84.5 35q50 0 84.5 -35t34.5 -85q0 -49 -34.5 -85
t-84.5 -36z" />
    <glyph glyph-name="uni01C9" unicode="&#x1c9;" horiz-adv-x="516" 
d="M415 1500v-1475h166v-25h-512v25h167v1450h-167v25h346zM360 -520q-81 0 -135.5 31t-82.5 81t-28 106q0 62 34 93t80 31q25 0 50.5 -10.5t43 -34t17.5 -63.5q0 -38 -32 -73.5t-82 -35.5q-29 0 -54 11t-40 31.5t-15 50.5h23q0 -52 25.5 -96t72.5 -70.5t112 -26.5
q68 0 99.5 47t40.5 125t7 173t-2 190v855h-167v25h346v-943q0 -98 -12.5 -187.5t-46.5 -159t-95 -110t-159 -40.5zM568 1279q-49 0 -84.5 36t-35.5 85q0 50 35.5 85t84.5 35q50 0 84.5 -35t34.5 -85q0 -49 -34.5 -85t-84.5 -36z" />
    <glyph glyph-name="uni01CA" unicode="&#x1ca;" horiz-adv-x="1033" 
d="M280 1500v-1475h238v-25h-466v25h202v1450h-202v25h228zM1461 1500v-25h-210v-1495h-34l-955 1520h229l735 -1193v1168h-235v25h470zM1586 1500v-25h-200v-1135q-15 -53 -40 -121t-64.5 -132t-99.5 -106t-146 -42q-77 0 -131 33t-82.5 83t-28.5 100q0 42 16 71t42 44
t56 15q25 0 51 -12t44 -38t18 -67q0 -39 -17 -64t-44 -36t-57 -9q-22 1 -43.5 15.5t-28.5 37.5q10 -36 36 -69.5t66.5 -54.5t93.5 -21q72 0 108.5 45t49 137t12.5 231v1095h-260v25h649z" />
    <glyph glyph-name="uni01CB" unicode="&#x1cb;" horiz-adv-x="1018" 
d="M280 1500v-1475h238v-25h-466v25h202v1450h-202v25h228zM1461 1500v-25h-210v-1495h-34l-955 1520h229l735 -1193v1168h-235v25h470zM862 -520q-81 0 -135.5 31t-82.5 81t-28 106q0 62 34 93t80 31q25 0 50.5 -10.5t43 -34t17.5 -63.5q0 -38 -32 -73.5t-82 -35.5
q-29 0 -54 11t-40 31.5t-15 50.5h23q0 -52 25.5 -96t72.5 -70.5t112 -26.5q68 0 99.5 47t40.5 125t7 173t-2 190v855h-167v25h346v-943q0 -98 -12.5 -187.5t-46.5 -159t-95 -110t-159 -40.5zM1070 1279q-49 0 -84.5 36t-35.5 85q0 50 35.5 85t84.5 35q50 0 84.5 -35
t34.5 -85q0 -49 -34.5 -85t-84.5 -36z" />
    <glyph glyph-name="uni01CC" unicode="&#x1cc;" horiz-adv-x="875" 
d="M373 920v-895h125v-25h-429v25h127v870h-127v25h304zM983 639v-614h127v-25h-430v25h125v587q0 84 -7 151t-33 106t-81 39q-92 0 -152.5 -46.5t-95 -118.5t-49 -151t-14.5 -144l-17 -7q0 68 14 153t50.5 164t105.5 130t180 51q116 0 175.5 -39t80.5 -106.5t21 -154.5z
M720 -520q-81 0 -135.5 31t-82.5 81t-28 106q0 62 34 93t80 31q25 0 50.5 -10.5t43 -34t17.5 -63.5q0 -38 -32 -73.5t-82 -35.5q-29 0 -54 11t-40 31.5t-15 50.5h23q0 -52 25.5 -96t72.5 -70.5t112 -26.5q68 0 99.5 47t40.5 125t7 173t-2 190v855h-167v25h346v-943
q0 -98 -12.5 -187.5t-46.5 -159t-95 -110t-159 -40.5zM928 1279q-49 0 -84.5 36t-35.5 85q0 50 35.5 85t84.5 35q50 0 84.5 -35t34.5 -85q0 -49 -34.5 -85t-84.5 -36z" />
    <glyph glyph-name="uni01CD" unicode="&#x1cd;" horiz-adv-x="639" 
d="M458 1878l-220 221l14 12l270 -143l272 143l14 -12l-220 -221h-130zM419 476v25h643v-25h-643zM792 1529l521 -1504h151v-25h-580v25h210l-397 1231l-430 -1231h225v-25h-440v25h187l527 1504h26z" />
    <glyph glyph-name="uni01CE" unicode="&#x1ce;" horiz-adv-x="561" 
d="M420 1700l-220 221l14 12l270 -143l272 143l14 -12l-220 -221h-130zM841 -20q-47 0 -87.5 15t-65.5 52.5t-25 105.5v456q0 72 -11.5 141t-49.5 114t-118 45q-50 0 -101 -11.5t-94 -34t-69.5 -55.5t-26.5 -76h-29q0 51 33.5 80.5t73.5 29.5q43 0 78.5 -27.5t35.5 -78.5
q0 -60 -36.5 -87t-77.5 -27q-46 0 -77.5 28t-31.5 82q0 47 30 84.5t81 64t115.5 41t132.5 14.5q138 0 206 -48t90.5 -123t22.5 -156v-503q0 -34 12.5 -58.5t52.5 -24.5q30 0 66 26.5t56 69.5l12 -22q-26 -51 -77.5 -84t-120.5 -33zM377 -20q-130 0 -207.5 66.5t-77.5 180.5
q0 134 114 208.5t327 74.5h223v-22h-223q-88 0 -140.5 -39.5t-76 -97t-23.5 -112.5q0 -50 14 -99.5t45.5 -82.5t84.5 -33q57 0 109 36.5t84.5 111.5t32.5 192h15q0 -114 -33 -200.5t-99.5 -135t-168.5 -48.5z" />
    <glyph glyph-name="uni01CF" unicode="&#x1cf;" horiz-adv-x="338" 
d="M310 1878l-220 221l14 12l270 -143l272 143l14 -12l-220 -221h-130zM52 0v25h219v1450h-219v25h650v-25h-240v-1450h240v-25h-650z" />
    <glyph glyph-name="uni01D0" unicode="&#x1d0;" horiz-adv-x="257" 
d="M268 1700l-220 221l14 12l270 -143l272 143l14 -12l-220 -221h-130zM385 920v-895h127v-25h-433v25h126v870h-126v25h306z" />
    <glyph glyph-name="uni01D1" unicode="&#x1d1;" horiz-adv-x="780" 
d="M529 1878l-220 221l14 12l270 -143l272 143l14 -12l-220 -221h-130zM740 -20q-153 0 -271.5 59.5t-201 165.5t-125 245.5t-42.5 299.5t45 299.5t129.5 245.5t202.5 165.5t263 59.5t262.5 -59.5t202 -165.5t129.5 -245.5t45 -299.5t-42.5 -299.5t-125 -245.5t-201 -165.5
t-270.5 -59.5zM740 3q130 0 211 64.5t124 172.5t59 241t16 269t-18.5 269t-64 241t-125 172.5t-202.5 64.5t-203 -64.5t-125.5 -172.5t-64 -241t-18.5 -269t16 -269t59 -241t124 -172.5t212 -64.5z" />
    <glyph glyph-name="uni01D2" unicode="&#x1d2;" horiz-adv-x="604" 
d="M441 1700l-220 221l14 12l270 -143l272 143l14 -12l-220 -221h-130zM558 -20q-141 0 -243.5 66t-158.5 175t-56 239t56 239t158.5 174.5t243.5 65.5t244 -65.5t158.5 -174.5t55.5 -239t-55.5 -239t-158.5 -175t-244 -66zM558 5q81 0 131 44t76 113t35 148.5t9 149.5
q0 71 -9 150t-35 148t-76 113t-131 44t-131 -44t-75.5 -113t-35 -148t-9.5 -150q0 -70 9.5 -149.5t35 -148.5t75.5 -113t131 -44z" />
    <glyph glyph-name="uni01D3" unicode="&#x1d3;" horiz-adv-x="730" 
d="M504 1878l-220 221l14 12l270 -143l272 143l14 -12l-220 -221h-130zM1373 1500v-25h-193v-1015q0 -247 -108 -368t-345 -121q-259 0 -379.5 115t-120.5 374v1015h-179v25h570v-25h-200v-995q0 -99 14.5 -186t52 -152.5t106 -102.5t176.5 -37q128 0 214.5 48.5
t130.5 149.5t44 260v1015h-186v25h403z" />
    <glyph glyph-name="uni01D4" unicode="&#x1d4;" horiz-adv-x="618" 
d="M448 1700l-220 221l14 12l270 -143l272 143l14 -12l-220 -221h-130zM475 -20q-116 0 -176 39.5t-81.5 107.5t-21.5 155v613h-127v25h306v-612q0 -84 7.5 -151t33.5 -106t82 -39q91 0 151.5 46.5t94.5 118.5t47.5 151t13.5 144l16 7q0 -68 -12.5 -153t-48 -164
t-104 -130.5t-181.5 -51.5zM805 0v895h-140v25h321v-895h126v-25h-307z" />
    <glyph glyph-name="uni01D5" unicode="&#x1d5;" horiz-adv-x="730" 
d="M508 815q0 -23 -12.5 -36t-34.5 -13t-34.5 13t-12.5 36q0 26 14 38t33 12q20 0 33.5 -12t13.5 -38zM320 815q0 -26 -13.5 -37.5t-32.5 -11.5q-22 0 -34.5 13t-12.5 36q0 26 14 38t33 12t32.5 -12t13.5 -38zM219 1001h297v-71h-297v71zM1373 1500v-25h-193v-1015
q0 -247 -108 -368t-345 -121q-259 0 -379.5 115t-120.5 374v1015h-179v25h570v-25h-200v-995q0 -99 14.5 -186t52 -152.5t106 -102.5t176.5 -37q128 0 214.5 48.5t130.5 149.5t44 260v1015h-186v25h403z" />
    <glyph glyph-name="uni01D6" unicode="&#x1d6;" horiz-adv-x="618" 
d="M447 650q0 -23 -12.5 -36t-34.5 -13t-34.5 13t-12.5 36q0 26 14 38t33 12q20 0 33.5 -12t13.5 -38zM259 650q0 -26 -13.5 -37.5t-32.5 -11.5q-22 0 -34.5 13t-12.5 36q0 26 14 38t33 12t32.5 -12t13.5 -38zM158 836h297v-71h-297v71zM475 -20q-116 0 -176 39.5
t-81.5 107.5t-21.5 155v613h-127v25h306v-612q0 -84 7.5 -151t33.5 -106t82 -39q91 0 151.5 46.5t94.5 118.5t47.5 151t13.5 144l16 7q0 -68 -12.5 -153t-48 -164t-104 -130.5t-181.5 -51.5zM805 0v895h-140v25h321v-895h126v-25h-307z" />
    <glyph glyph-name="uni01D7" unicode="&#x1d7;" horiz-adv-x="730" 
d="M499 815q0 -23 -12.5 -36t-34.5 -13t-34.5 13t-12.5 36q0 26 14 38t33 12q20 0 33.5 -12t13.5 -38zM311 815q0 -26 -13.5 -37.5t-32.5 -11.5q-22 0 -34.5 13t-12.5 36q0 26 14 38t33 12t32.5 -12t13.5 -38zM305 903q73 84 96 133h105v-10q-28 -43 -142 -135h-59v12z
M1373 1500v-25h-193v-1015q0 -247 -108 -368t-345 -121q-259 0 -379.5 115t-120.5 374v1015h-179v25h570v-25h-200v-995q0 -99 14.5 -186t52 -152.5t106 -102.5t176.5 -37q128 0 214.5 48.5t130.5 149.5t44 260v1015h-186v25h403z" />
    <glyph glyph-name="uni01D8" unicode="&#x1d8;" horiz-adv-x="618" 
d="M446 650q0 -23 -12.5 -36t-34.5 -13t-34.5 13t-12.5 36q0 26 14 38t33 12q20 0 33.5 -12t13.5 -38zM258 650q0 -26 -13.5 -37.5t-32.5 -11.5q-22 0 -34.5 13t-12.5 36q0 26 14 38t33 12t32.5 -12t13.5 -38zM252 738q73 84 96 133h105v-10q-28 -43 -142 -135h-59v12z
M475 -20q-116 0 -176 39.5t-81.5 107.5t-21.5 155v613h-127v25h306v-612q0 -84 7.5 -151t33.5 -106t82 -39q91 0 151.5 46.5t94.5 118.5t47.5 151t13.5 144l16 7q0 -68 -12.5 -153t-48 -164t-104 -130.5t-181.5 -51.5zM805 0v895h-140v25h321v-895h126v-25h-307z" />
    <glyph glyph-name="uni01D9" unicode="&#x1d9;" horiz-adv-x="730" 
d="M504 815q0 -23 -12.5 -36t-34.5 -13t-34.5 13t-12.5 36q0 26 14 38t33 12q20 0 33.5 -12t13.5 -38zM316 815q0 -26 -13.5 -37.5t-32.5 -11.5q-22 0 -34.5 13t-12.5 36q0 26 14 38t33 12t32.5 -12t13.5 -38zM195 1046h60q26 -17 54 -36t53 -46q27 27 55 46t54 36h62v-13
l-32 -31q-73 -69 -93 -106h-90q-21 36 -92 106l-31 31v13zM1373 1500v-25h-193v-1015q0 -247 -108 -368t-345 -121q-259 0 -379.5 115t-120.5 374v1015h-179v25h570v-25h-200v-995q0 -99 14.5 -186t52 -152.5t106 -102.5t176.5 -37q128 0 214.5 48.5t130.5 149.5t44 260
v1015h-186v25h403z" />
    <glyph glyph-name="uni01DA" unicode="&#x1da;" horiz-adv-x="618" 
d="M444 650q0 -23 -12.5 -36t-34.5 -13t-34.5 13t-12.5 36q0 26 14 38t33 12q20 0 33.5 -12t13.5 -38zM256 650q0 -26 -13.5 -37.5t-32.5 -11.5q-22 0 -34.5 13t-12.5 36q0 26 14 38t33 12t32.5 -12t13.5 -38zM135 881h60q26 -17 54 -36t53 -46q27 27 55 46t54 36h62v-13
l-32 -31q-73 -69 -93 -106h-90q-21 36 -92 106l-31 31v13zM475 -20q-116 0 -176 39.5t-81.5 107.5t-21.5 155v613h-127v25h306v-612q0 -84 7.5 -151t33.5 -106t82 -39q91 0 151.5 46.5t94.5 118.5t47.5 151t13.5 144l16 7q0 -68 -12.5 -153t-48 -164t-104 -130.5
t-181.5 -51.5zM805 0v895h-140v25h321v-895h126v-25h-307z" />
    <glyph glyph-name="uni01DB" unicode="&#x1db;" horiz-adv-x="730" 
d="M500 815q0 -23 -12.5 -36t-34.5 -13t-34.5 13t-12.5 36q0 26 14 38t33 12q20 0 33.5 -12t13.5 -38zM312 815q0 -26 -13.5 -37.5t-32.5 -11.5q-22 0 -34.5 13t-12.5 36q0 26 14 38t33 12t32.5 -12t13.5 -38zM414 891h-59q-114 91 -142 135v10h105q23 -49 96 -133v-12z
M1373 1500v-25h-193v-1015q0 -247 -108 -368t-345 -121q-259 0 -379.5 115t-120.5 374v1015h-179v25h570v-25h-200v-995q0 -99 14.5 -186t52 -152.5t106 -102.5t176.5 -37q128 0 214.5 48.5t130.5 149.5t44 260v1015h-186v25h403z" />
    <glyph glyph-name="uni01DC" unicode="&#x1dc;" horiz-adv-x="618" 
d="M447 650q0 -23 -12.5 -36t-34.5 -13t-34.5 13t-12.5 36q0 26 14 38t33 12q20 0 33.5 -12t13.5 -38zM259 650q0 -26 -13.5 -37.5t-32.5 -11.5q-22 0 -34.5 13t-12.5 36q0 26 14 38t33 12t32.5 -12t13.5 -38zM361 726h-59q-114 91 -142 135v10h105q23 -49 96 -133v-12z
M475 -20q-116 0 -176 39.5t-81.5 107.5t-21.5 155v613h-127v25h306v-612q0 -84 7.5 -151t33.5 -106t82 -39q91 0 151.5 46.5t94.5 118.5t47.5 151t13.5 144l16 7q0 -68 -12.5 -153t-48 -164t-104 -130.5t-181.5 -51.5zM805 0v895h-140v25h321v-895h126v-25h-307z" />
    <glyph glyph-name="uni01DD" unicode="&#x1dd;" horiz-adv-x="563" 
d="M251 546q121 0 189.5 -73t68.5 -201q0 -129 -64 -205.5t-173 -76.5q-101 0 -161 65.5t-60 176.5v53h367q-2 91 -46 138.5t-125 47.5q-43 0 -81.5 -7.5t-90.5 -29.5v77q44 19 83.5 27t92.5 8zM273 62q63 0 99.5 40.5t43.5 112.5h-273q1 -74 34.5 -113.5t95.5 -39.5z" />
    <glyph glyph-name="uni01DE" unicode="&#x1de;" horiz-adv-x="639" 
d="M460 815q0 -23 -12.5 -36t-34.5 -13t-34.5 13t-12.5 36q0 26 14 38t33 12q20 0 33.5 -12t13.5 -38zM272 815q0 -26 -13.5 -37.5t-32.5 -11.5q-22 0 -34.5 13t-12.5 36q0 26 14 38t33 12t32.5 -12t13.5 -38zM171 1001h297v-71h-297v71zM419 476v25h643v-25h-643zM792 1529
l521 -1504h151v-25h-580v25h210l-397 1231l-430 -1231h225v-25h-440v25h187l527 1504h26z" />
    <glyph glyph-name="uni01DF" unicode="&#x1df;" horiz-adv-x="561" 
d="M426 650q0 -23 -12.5 -36t-34.5 -13t-34.5 13t-12.5 36q0 26 14 38t33 12q20 0 33.5 -12t13.5 -38zM238 650q0 -26 -13.5 -37.5t-32.5 -11.5q-22 0 -34.5 13t-12.5 36q0 26 14 38t33 12t32.5 -12t13.5 -38zM137 836h297v-71h-297v71zM841 -20q-47 0 -87.5 15t-65.5 52.5
t-25 105.5v456q0 72 -11.5 141t-49.5 114t-118 45q-50 0 -101 -11.5t-94 -34t-69.5 -55.5t-26.5 -76h-29q0 51 33.5 80.5t73.5 29.5q43 0 78.5 -27.5t35.5 -78.5q0 -60 -36.5 -87t-77.5 -27q-46 0 -77.5 28t-31.5 82q0 47 30 84.5t81 64t115.5 41t132.5 14.5q138 0 206 -48
t90.5 -123t22.5 -156v-503q0 -34 12.5 -58.5t52.5 -24.5q30 0 66 26.5t56 69.5l12 -22q-26 -51 -77.5 -84t-120.5 -33zM377 -20q-130 0 -207.5 66.5t-77.5 180.5q0 134 114 208.5t327 74.5h223v-22h-223q-88 0 -140.5 -39.5t-76 -97t-23.5 -112.5q0 -50 14 -99.5t45.5 -82.5
t84.5 -33q57 0 109 36.5t84.5 111.5t32.5 192h15q0 -114 -33 -200.5t-99.5 -135t-168.5 -48.5z" />
    <glyph glyph-name="uni01E0" unicode="&#x1e0;" horiz-adv-x="639" 
d="M269 826q0 29 15 42.5t37 13.5q23 0 37 -15t14 -41t-14.5 -41t-36.5 -15t-37 13.5t-15 42.5zM171 1001h297v-71h-297v71zM419 476v25h643v-25h-643zM792 1529l521 -1504h151v-25h-580v25h210l-397 1231l-430 -1231h225v-25h-440v25h187l527 1504h26z" />
    <glyph glyph-name="uni01E1" unicode="&#x1e1;" horiz-adv-x="561" 
d="M235 662q0 29 15 42.5t37 13.5q23 0 37 -15t14 -41t-14.5 -41t-36.5 -15t-37 13.5t-15 42.5zM137 837h297v-71h-297v71zM841 -20q-47 0 -87.5 15t-65.5 52.5t-25 105.5v456q0 72 -11.5 141t-49.5 114t-118 45q-50 0 -101 -11.5t-94 -34t-69.5 -55.5t-26.5 -76h-29
q0 51 33.5 80.5t73.5 29.5q43 0 78.5 -27.5t35.5 -78.5q0 -60 -36.5 -87t-77.5 -27q-46 0 -77.5 28t-31.5 82q0 47 30 84.5t81 64t115.5 41t132.5 14.5q138 0 206 -48t90.5 -123t22.5 -156v-503q0 -34 12.5 -58.5t52.5 -24.5q30 0 66 26.5t56 69.5l12 -22q-26 -51 -77.5 -84
t-120.5 -33zM377 -20q-130 0 -207.5 66.5t-77.5 180.5q0 134 114 208.5t327 74.5h223v-22h-223q-88 0 -140.5 -39.5t-76 -97t-23.5 -112.5q0 -50 14 -99.5t45.5 -82.5t84.5 -33q57 0 109 36.5t84.5 111.5t32.5 192h15q0 -114 -33 -200.5t-99.5 -135t-168.5 -48.5z" />
    <glyph glyph-name="uni01E2" unicode="&#x1e2;" horiz-adv-x="880" 
d="M347 842h297v-71h-297v71zM205 0l845 1500h25l-842 -1500h-28zM29 0v25h442v-25h-442zM493 477v25h577v-25h-577zM870 0v25h691q136 0 216 53.5t114 149t34 222.5h25v-450h-1080zM1050 0v1500h190v-1500h-190zM1565 557q0 67 -27.5 113t-74.5 69.5t-104 23.5h-119v25h119
q57 0 104 21.5t74.5 65.5t27.5 111h25v-429h-25zM1905 1090q0 107 -32.5 194.5t-104 139t-188.5 51.5h-530v25h880v-410h-25z" />
    <glyph glyph-name="uni01E3" unicode="&#x1e3;" horiz-adv-x="863" 
d="M283 677h297v-71h-297v71zM422 -20q-59 0 -117.5 12.5t-106.5 40.5t-77 76t-29 118q0 84 50 148.5t147.5 102t239.5 37.5h124v94q0 50 -5.5 103t-22.5 97.5t-52.5 72t-95.5 27.5q-41 0 -83 -9t-80 -25.5t-67 -40.5t-47 -54q15 23 36.5 38.5t41.5 21.5q40 0 72.5 -29.5
t32.5 -74.5q0 -60 -40 -87t-78 -27q-46 0 -74.5 28t-28.5 82q0 62 51 108t132 71t172 25q96 0 151 -27t82 -72.5t35 -100.5l-19 -1q48 99 135.5 151.5t211.5 52.5q147 0 236 -58t129.5 -153t40.5 -204h-647q-1 -15 -1 -31.5v-32.5q0 -86 11.5 -167t40.5 -145t80.5 -102
t131.5 -38q143 0 235.5 76t129.5 187h29q-39 -124 -140.5 -207.5t-265.5 -83.5q-146 0 -244 73t-140 207l17 3q-14 -93 -56.5 -156t-112 -95t-165.5 -32zM461 18q57 0 100.5 43.5t67.5 121t24 178.5v129h-124q-76 0 -128 -35t-79 -91.5t-27 -121.5q0 -116 47 -170t119 -54z
M874 549h433q0 53 -6 116.5t-26 120t-58.5 93t-103.5 36.5q-84 0 -134 -51.5t-74.5 -135t-30.5 -179.5z" />
    <glyph glyph-name="uni01E4" unicode="&#x1e4;" horiz-adv-x="728" 
d="M407 377h247v-150h64v-71h-64v-129q-57 -18 -115.5 -27.5t-135.5 -9.5q-163 0 -252.5 97t-89.5 270q0 112 44.5 195.5t128 127.5t197.5 44t213 -42l-34 -78q-94 41 -184 41q-127 0 -199 -77t-72 -211q0 -142 68.5 -215.5t200.5 -73.5q72 0 140 17v71h-147v71h147v70h-157
v80z" />
    <glyph glyph-name="uni01E5" unicode="&#x1e5;" horiz-adv-x="615" 
d="M443 15l3 66h-4q-54 -81 -166 -81q-105 0 -163 71t-58 201q0 128 58 201t162 73q109 0 168 -81h5l12 71h70v-545q0 -20 -2 -37h57v-71h-72q-47 -123 -223 -123q-117 0 -193 34v81q78 -42 198 -42q77 0 117 50h-149v71h178l2 30v31zM289 72q83 0 119 42.5t36 136.5v16
q0 107 -37 156t-120 49q-68 0 -104.5 -50.5t-36.5 -150.5q0 -199 143 -199z" />
    <glyph glyph-name="Gcaron" unicode="&#x1e6;" horiz-adv-x="728" 
d="M556 1865l-220 221l14 12l270 -143l272 143l14 -12l-220 -221h-130zM879 584h541v-28h-121v-226q-23 -47 -66 -107t-109.5 -115.5t-159 -91.5t-214.5 -36q-208 0 -353.5 99.5t-221 273.5t-75.5 397q0 167 48.5 307.5t138.5 244.5t215 161t277 57q100 0 190 -35t156 -97
l112 112h23v-410h-26q-2 91 -38.5 164t-97.5 125.5t-138 80.5t-161 28q-130 0 -220 -63t-145 -169.5t-80 -238t-25 -267.5t18.5 -269t65 -240t128.5 -171.5t209 -64.5q93 0 155 31.5t100 74.5t57.5 83t27.5 56v306h-211v28z" />
    <glyph glyph-name="gcaron" unicode="&#x1e7;" horiz-adv-x="615" 
d="M446 1700l-220 221l14 12l270 -143l272 143l14 -12l-220 -221h-130zM507 -520q-89 0 -168 15.5t-140.5 48.5t-96 84t-34.5 122q0 68 31 114t77 73.5t94 39.5t82 12h18q-68 -37 -91.5 -91t-23.5 -127q0 -63 30.5 -123.5t92 -100t154.5 -39.5q77 0 143.5 20t116.5 57.5
t78.5 90t28.5 117.5q0 61 -34 103t-89.5 64t-120.5 22h-66.5h-91.5h-68q-135 0 -216 37.5t-81 125.5q0 52 29 91t79 65t114 39t135 13l-1 -18q-32 0 -69.5 -7.5t-71.5 -23t-55.5 -38.5t-21.5 -54q0 -52 55 -62.5t137 -10.5q35 0 61.5 0.5t51 1t52.5 0.5q56 0 113 -10
t104.5 -41t76 -91.5t28.5 -162.5q0 -93 -36.5 -160t-99.5 -110t-142 -64.5t-164 -21.5zM476 330q-61 0 -124 16.5t-116 53t-85.5 94.5t-32.5 141t32.5 141t85.5 93.5t116 52.5t124 17t122.5 -17t112.5 -52.5t82 -93.5t31 -141t-31 -141t-82 -94.5t-112.5 -53t-122.5 -16.5z
M476 355q59 0 97 39t56 103t18 138t-18 137.5t-56 102.5t-97 39t-96.5 -39t-56 -102.5t-18.5 -137.5t10 -138t46 -103t115 -39zM1015 669q-37 0 -69 26t-32 75q0 50 32.5 71.5t68.5 21.5q37 0 70.5 -21.5t33.5 -62.5h-23q0 46 -34.5 86.5t-100.5 40.5q-39 0 -86.5 -19
t-89 -66.5t-61.5 -133.5l-18 12q20 90 65 140t96.5 70.5t91.5 20.5q49 0 85.5 -22t56.5 -56.5t20 -72.5q0 -64 -34 -87t-72 -23z" />
    <glyph glyph-name="uni01E8" unicode="&#x1e8;" horiz-adv-x="619" 
d="M472 1865l-220 221l14 12l270 -143l272 143l14 -12l-220 -221h-130zM246 434l772 1041h-226v25h479v-25h-216l-773 -1041h-36zM52 0v25h179v1450h-179v25h570v-25h-200v-1450h200v-25h-570zM742 0v25h210l-433 764l123 158l549 -922h170v-25h-619z" />
    <glyph glyph-name="uni01E9" unicode="&#x1e9;" horiz-adv-x="534" 
d="M436 1885l-220 221l14 12l270 -143l272 143l14 -12l-220 -221h-130zM69 0v25h167v1450h-167v25h346v-1475h140v-25h-486zM688 0v25h141l-426 499l470 371h-212v25h418v-25h-172l-356 -284l501 -586h96v-25h-460z" />
    <glyph glyph-name="uni01EA" unicode="&#x1ea;" horiz-adv-x="780" 
d="M805 -372q-51 0 -101 18t-82.5 56t-32.5 98t25.5 106.5t67.5 81t90.5 58.5t95.5 39l8 -14q-31 -17 -53.5 -50.5t-35 -80.5t-12.5 -104q0 -66 28.5 -110t79.5 -44q50 0 80.5 30.5t54.5 72.5l16 -12q-15 -28 -41.5 -62t-71.5 -58.5t-116 -24.5zM740 -20q-153 0 -271.5 59.5
t-201 165.5t-125 245.5t-42.5 299.5t45 299.5t129.5 245.5t202.5 165.5t263 59.5t262.5 -59.5t202 -165.5t129.5 -245.5t45 -299.5t-42.5 -299.5t-125 -245.5t-201 -165.5t-270.5 -59.5zM740 3q130 0 211 64.5t124 172.5t59 241t16 269t-18.5 269t-64 241t-125 172.5
t-202.5 64.5t-203 -64.5t-125.5 -172.5t-64 -241t-18.5 -269t16 -269t59 -241t124 -172.5t212 -64.5z" />
    <glyph glyph-name="uni01EB" unicode="&#x1eb;" horiz-adv-x="604" 
d="M707 -372q-51 0 -101 18t-82.5 56t-32.5 98t25.5 106.5t67.5 81t90.5 58.5t95.5 39l8 -14q-31 -17 -53.5 -50.5t-35 -80.5t-12.5 -104q0 -66 28.5 -110t79.5 -44q50 0 80.5 30.5t54.5 72.5l16 -12q-15 -28 -41.5 -62t-71.5 -58.5t-116 -24.5zM558 -20q-141 0 -243.5 66
t-158.5 175t-56 239t56 239t158.5 174.5t243.5 65.5t244 -65.5t158.5 -174.5t55.5 -239t-55.5 -239t-158.5 -175t-244 -66zM558 5q81 0 131 44t76 113t35 148.5t9 149.5q0 71 -9 150t-35 148t-76 113t-131 44t-131 -44t-75.5 -113t-35 -148t-9.5 -150q0 -70 9.5 -149.5
t35 -148.5t75.5 -113t131 -44z" />
    <glyph glyph-name="uni01EC" unicode="&#x1ec;" horiz-adv-x="780" 
d="M805 -372q-51 0 -101 18t-82.5 56t-32.5 98t25.5 106.5t67.5 81t90.5 58.5t95.5 39l8 -14q-31 -17 -53.5 -50.5t-35 -80.5t-12.5 -104q0 -66 28.5 -110t79.5 -44q50 0 80.5 30.5t54.5 72.5l16 -12q-15 -28 -41.5 -62t-71.5 -58.5t-116 -24.5zM242 842h297v-71h-297v71z
M740 -20q-153 0 -271.5 59.5t-201 165.5t-125 245.5t-42.5 299.5t45 299.5t129.5 245.5t202.5 165.5t263 59.5t262.5 -59.5t202 -165.5t129.5 -245.5t45 -299.5t-42.5 -299.5t-125 -245.5t-201 -165.5t-270.5 -59.5zM740 3q130 0 211 64.5t124 172.5t59 241t16 269
t-18.5 269t-64 241t-125 172.5t-202.5 64.5t-203 -64.5t-125.5 -172.5t-64 -241t-18.5 -269t16 -269t59 -241t124 -172.5t212 -64.5z" />
    <glyph glyph-name="uni01ED" unicode="&#x1ed;" horiz-adv-x="604" 
d="M707 -372q-51 0 -101 18t-82.5 56t-32.5 98t25.5 106.5t67.5 81t90.5 58.5t95.5 39l8 -14q-31 -17 -53.5 -50.5t-35 -80.5t-12.5 -104q0 -66 28.5 -110t79.5 -44q50 0 80.5 30.5t54.5 72.5l16 -12q-15 -28 -41.5 -62t-71.5 -58.5t-116 -24.5zM154 677h297v-71h-297v71z
M558 -20q-141 0 -243.5 66t-158.5 175t-56 239t56 239t158.5 174.5t243.5 65.5t244 -65.5t158.5 -174.5t55.5 -239t-55.5 -239t-158.5 -175t-244 -66zM558 5q81 0 131 44t76 113t35 148.5t9 149.5q0 71 -9 150t-35 148t-76 113t-131 44t-131 -44t-75.5 -113t-35 -148
t-9.5 -150q0 -70 9.5 -149.5t35 -148.5t75.5 -113t131 -44z" />
    <glyph glyph-name="uni01EE" unicode="&#x1ee;" horiz-adv-x="583" 
d="M411 1865l-220 221l14 12l270 -143l272 143l14 -12l-220 -221h-130zM291 440q68 -2 122.5 -30t85 -76.5t30.5 -112.5q0 -109 -76 -170t-212 -61q-126 0 -206 39v82q49 -23 104 -35t103 -12q97 0 145 41t48 117q0 69 -49.5 107t-143.5 38h-62v65l206 202h-331v80h444v-71z
" />
    <glyph glyph-name="uni01EF" unicode="&#x1ef;" horiz-adv-x="498" 
d="M218 228q115 -8 180.5 -68.5t65.5 -158.5q0 -70 -33 -125.5t-93.5 -85.5t-138.5 -30q-117 0 -185 35v80q89 -42 189 -42q79 0 126 45t47 121q0 77 -51 118t-151 41h-59v61l219 243h-306v74h409v-64zM366 1700l-220 221l14 12l270 -143l272 143l14 -12l-220 -221h-130z
" />
    <glyph glyph-name="uni01F0" unicode="&#x1f0;" horiz-adv-x="257" 
d="M268 1700l-220 221l14 12l270 -143l272 143l14 -12l-220 -221h-130zM102 -520q-81 0 -135.5 31t-82.5 81t-28 106q0 62 34 93t80 31q25 0 50.5 -10.5t43 -34t17.5 -63.5q0 -38 -32 -73.5t-82 -35.5q-29 0 -54 11t-40 31.5t-15 50.5h23q0 -52 25.5 -96t72.5 -70.5
t112 -26.5q68 0 99.5 47t40.5 125t7 173t-2 190v855h-167v25h346v-943q0 -98 -12.5 -187.5t-46.5 -159t-95 -110t-159 -40.5z" />
    <glyph glyph-name="uni01F1" unicode="&#x1f1;" horiz-adv-x="1291" 
d="M611 1500q223 0 384.5 -98.5t249 -268.5t87.5 -383q0 -160 -52.5 -296.5t-148 -238.5t-228 -158.5t-292.5 -56.5h-559v25h179v1450h-179v25h559zM422 25h189q138 0 232 61t151 164.5t82 233.5t25 266t-28 266t-86.5 233.5t-151.5 164.5t-223 61h-190v-1450zM760 0v25
l790 1450h-376q-137 0 -211.5 -34t-104.5 -104t-30 -177h-24v340h956v-25l-790 -1450h435q137 0 212 36t104 114t29 205h25v-380h-1015z" />
    <glyph glyph-name="uni01F2" unicode="&#x1f2;" horiz-adv-x="1200" 
d="M611 1500q223 0 384.5 -98.5t249 -268.5t87.5 -383q0 -160 -52.5 -296.5t-148 -238.5t-228 -158.5t-292.5 -56.5h-559v25h179v1450h-179v25h559zM422 25h189q138 0 232 61t151 164.5t82 233.5t25 266t-28 266t-86.5 233.5t-151.5 164.5t-223 61h-190v-1450zM790 0v25
l556 870h-195q-114 0 -174.5 -37.5t-83 -109t-22.5 -172.5h-25v344h714v-25l-558 -870h238q103 0 167.5 18.5t99.5 59.5t48 106.5t13 158.5h24v-368h-802z" />
    <glyph glyph-name="uni01F3" unicode="&#x1f3;" horiz-adv-x="1084" 
d="M517 -19q-107 0 -202 57t-155 164t-60 257t60 257.5t155 165t202 57.5q127 0 208 -91t107 -250v877h-126v25h307v-1475h126v-25h-307v321q-26 -159 -107 -249.5t-208 -90.5zM550 19q76 0 140 51t103 149t39 240q0 143 -39 241.5t-103 150t-140 51.5q-81 0 -135 -55
t-81 -154.5t-27 -233.5t27 -232.5t81 -153t135 -54.5zM675 0v25l556 870h-195q-114 0 -174.5 -37.5t-83 -109t-22.5 -172.5h-25v344h714v-25l-558 -870h238q103 0 167.5 18.5t99.5 59.5t48 106.5t13 158.5h24v-368h-802z" />
    <glyph glyph-name="uni01F4" unicode="&#x1f4;" horiz-adv-x="728" 
d="M879 584h541v-28h-121v-226q-23 -47 -66 -107t-109.5 -115.5t-159 -91.5t-214.5 -36q-208 0 -353.5 99.5t-221 273.5t-75.5 397q0 167 48.5 307.5t138.5 244.5t215 161t277 57q100 0 190 -35t156 -97l112 112h23v-410h-26q-2 91 -38.5 164t-97.5 125.5t-138 80.5t-161 28
q-130 0 -220 -63t-145 -169.5t-80 -238t-25 -267.5t18.5 -269t65 -240t128.5 -171.5t209 -64.5q93 0 155 31.5t100 74.5t57.5 83t27.5 56v306h-211v28zM530 1851l-15 17l198 223q19 22 41.5 24t41.5 -8t29 -27q9 -16 8.5 -36t-10 -36.5t-25.5 -25.5z" />
    <glyph glyph-name="uni01F5" unicode="&#x1f5;" horiz-adv-x="615" 
d="M507 -520q-89 0 -168 15.5t-140.5 48.5t-96 84t-34.5 122q0 68 31 114t77 73.5t94 39.5t82 12h18q-68 -37 -91.5 -91t-23.5 -127q0 -63 30.5 -123.5t92 -100t154.5 -39.5q77 0 143.5 20t116.5 57.5t78.5 90t28.5 117.5q0 61 -34 103t-89.5 64t-120.5 22h-66.5h-91.5h-68
q-135 0 -216 37.5t-81 125.5q0 52 29 91t79 65t114 39t135 13l-1 -18q-32 0 -69.5 -7.5t-71.5 -23t-55.5 -38.5t-21.5 -54q0 -52 55 -62.5t137 -10.5q35 0 61.5 0.5t51 1t52.5 0.5q56 0 113 -10t104.5 -41t76 -91.5t28.5 -162.5q0 -93 -36.5 -160t-99.5 -110t-142 -64.5
t-164 -21.5zM476 330q-61 0 -124 16.5t-116 53t-85.5 94.5t-32.5 141t32.5 141t85.5 93.5t116 52.5t124 17t122.5 -17t112.5 -52.5t82 -93.5t31 -141t-31 -141t-82 -94.5t-112.5 -53t-122.5 -16.5zM476 355q59 0 97 39t56 103t18 138t-18 137.5t-56 102.5t-97 39t-96.5 -39
t-56 -102.5t-18.5 -137.5t10 -138t46 -103t115 -39zM1015 669q-37 0 -69 26t-32 75q0 50 32.5 71.5t68.5 21.5q37 0 70.5 -21.5t33.5 -62.5h-23q0 46 -34.5 86.5t-100.5 40.5q-39 0 -86.5 -19t-89 -66.5t-61.5 -133.5l-18 12q20 90 65 140t96.5 70.5t91.5 20.5
q49 0 85.5 -22t56.5 -56.5t20 -72.5q0 -64 -34 -87t-72 -23zM392 1686l-15 17l198 223q19 22 41.5 24t41.5 -8t29 -27q9 -16 8.5 -36t-10 -36.5t-25.5 -25.5z" />
    <glyph glyph-name="uni01F6" unicode="&#x1f6;" horiz-adv-x="937" 
d="M187 333v-333h-90v714h90v-302h296v302h90v-550q0 -45 23 -70t70 -25q44 0 68 25t24 71v371h90v-371q0 -81 -49 -127.5t-136 -46.5q-85 0 -132.5 46t-47.5 129v167h-296z" />
    <glyph glyph-name="uni01F7" unicode="&#x1f7;" horiz-adv-x="661" 
d="M389 725q103 0 160 -64t57 -179q0 -161 -106.5 -284.5t-312.5 -207.5v-230h-90v955h71l15 -97h5q37 55 86.5 81t114.5 26zM187 74q161 67 245 171.5t84 235.5q0 81 -37 123.5t-106 42.5q-94 0 -140 -55.5t-46 -173.5v-344z" />
    <glyph glyph-name="uni01F8" unicode="&#x1f8;" horiz-adv-x="759" 
d="M280 1500v-1475h238v-25h-466v25h202v1450h-202v25h228zM1461 1500v-25h-210v-1495h-34l-955 1520h229l735 -1193v1168h-235v25h470zM694 1851l-268 131q-16 9 -25.5 25.5t-10 36.5t8.5 36q10 17 29 27t42 8t41 -24l198 -223z" />
    <glyph glyph-name="uni01F9" unicode="&#x1f9;" horiz-adv-x="618" 
d="M373 920v-895h125v-25h-429v25h127v870h-127v25h304zM983 639v-614h127v-25h-430v25h125v587q0 84 -7 151t-33 106t-81 39q-92 0 -152.5 -46.5t-95 -118.5t-49 -151t-14.5 -144l-17 -7q0 68 14 153t50.5 164t105.5 130t180 51q116 0 175.5 -39t80.5 -106.5t21 -154.5z
M633 1686l-268 131q-16 9 -25.5 25.5t-10 36.5t8.5 36q10 17 29 27t42 8t41 -24l198 -223z" />
    <glyph glyph-name="Aringacute" unicode="&#x1fa;" horiz-adv-x="640" 
d="M430 699q0 -32 -13 -54.5t-35 -35.5l258 -609h-93l-82 192h-295l-78 -192h-92l258 608q-49 26 -49 90q0 48 29.5 77t79.5 29t81 -29.5t31 -75.5zM439 272l-84 207q-13 30 -36 101q-15 -52 -35 -103l-83 -205h238zM271 838q28 33 51 67t34 53h106v-8q-15 -21 -58 -60.5
t-74 -60.5h-59v9zM374 698q0 27 -15.5 41.5t-40.5 14.5q-24 0 -40 -14.5t-16 -41.5q0 -26 14.5 -41t41.5 -15q25 0 40.5 14.5t15.5 41.5z" />
    <glyph glyph-name="aringacute" unicode="&#x1fb;" horiz-adv-x="561" 
d="M416 0l-17 76h-4q-40 -50 -80 -68t-100 -18q-79 0 -124 41.5t-45 117.5q0 163 257 171l91 3v32q0 61 -26.5 90t-84.5 29q-42 0 -80 -12.5t-71 -28.5l-27 66q41 21 88.5 33.5t94.5 12.5q97 0 144.5 -43t47.5 -137v-365h-64zM235 61q74 0 116 40t42 113v48l-79 -3
q-92 -3 -134.5 -29t-42.5 -82q0 -42 26 -64.5t72 -22.5zM396 713q0 -49 -30.5 -78t-80.5 -29t-79.5 29t-29.5 77q0 47 29 76t80 29q49 0 80 -29t31 -75zM341 712q0 26 -16 41t-40 15t-40 -15t-16 -41t14.5 -41t41.5 -15q25 0 40.5 15t15.5 41zM230 856v8q22 21 48 50t37 44
h131v-6q-10 -12 -50.5 -37.5t-102.5 -58.5h-63z" />
    <glyph glyph-name="AEacute" unicode="&#x1fc;" horiz-adv-x="880" 
d="M205 0l845 1500h25l-842 -1500h-28zM29 0v25h442v-25h-442zM493 477v25h577v-25h-577zM870 0v25h691q136 0 216 53.5t114 149t34 222.5h25v-450h-1080zM1050 0v1500h190v-1500h-190zM1565 557q0 67 -27.5 113t-74.5 69.5t-104 23.5h-119v25h119q57 0 104 21.5t74.5 65.5
t27.5 111h25v-429h-25zM1905 1090q0 107 -32.5 194.5t-104 139t-188.5 51.5h-530v25h880v-410h-25zM647 1851l-15 17l198 223q19 22 41.5 24t41.5 -8t29 -27q9 -16 8.5 -36t-10 -36.5t-25.5 -25.5z" />
    <glyph glyph-name="aeacute" unicode="&#x1fd;" horiz-adv-x="863" 
d="M422 -20q-59 0 -117.5 12.5t-106.5 40.5t-77 76t-29 118q0 84 50 148.5t147.5 102t239.5 37.5h124v94q0 50 -5.5 103t-22.5 97.5t-52.5 72t-95.5 27.5q-41 0 -83 -9t-80 -25.5t-67 -40.5t-47 -54q15 23 36.5 38.5t41.5 21.5q40 0 72.5 -29.5t32.5 -74.5q0 -60 -40 -87
t-78 -27q-46 0 -74.5 28t-28.5 82q0 62 51 108t132 71t172 25q96 0 151 -27t82 -72.5t35 -100.5l-19 -1q48 99 135.5 151.5t211.5 52.5q147 0 236 -58t129.5 -153t40.5 -204h-647q-1 -15 -1 -31.5v-32.5q0 -86 11.5 -167t40.5 -145t80.5 -102t131.5 -38q143 0 235.5 76
t129.5 187h29q-39 -124 -140.5 -207.5t-265.5 -83.5q-146 0 -244 73t-140 207l17 3q-14 -93 -56.5 -156t-112 -95t-165.5 -32zM461 18q57 0 100.5 43.5t67.5 121t24 178.5v129h-124q-76 0 -128 -35t-79 -91.5t-27 -121.5q0 -116 47 -170t119 -54zM874 549h433q0 53 -6 116.5
t-26 120t-58.5 93t-103.5 36.5q-84 0 -134 -51.5t-74.5 -135t-30.5 -179.5zM549 1686l-15 17l198 223q19 22 41.5 24t41.5 -8t29 -27q9 -16 8.5 -36t-10 -36.5t-25.5 -25.5z" />
    <glyph glyph-name="Oslashacute" unicode="&#x1fe;" horiz-adv-x="780" 
d="M322 -200l865 1861h25l-865 -1861h-25zM740 -20q-153 0 -271.5 59.5t-201 165.5t-125 245.5t-42.5 299.5t45 299.5t129.5 245.5t202.5 165.5t263 59.5t262.5 -59.5t202 -165.5t129.5 -245.5t45 -299.5t-42.5 -299.5t-125 -245.5t-201 -165.5t-270.5 -59.5zM740 3
q130 0 211 64.5t124 172.5t59 241t16 269t-18.5 269t-64 241t-125 172.5t-202.5 64.5t-203 -64.5t-125.5 -172.5t-64 -241t-18.5 -269t16 -269t59 -241t124 -172.5t212 -64.5zM494 1851l-15 17l198 223q19 22 41.5 24t41.5 -8t29 -27q9 -16 8.5 -36t-10 -36.5t-25.5 -25.5z
" />
    <glyph glyph-name="oslashacute" unicode="&#x1ff;" horiz-adv-x="604" 
d="M112 -246l865 1404h25l-865 -1404h-25zM558 -20q-141 0 -243.5 66t-158.5 175t-56 239t56 239t158.5 174.5t243.5 65.5t244 -65.5t158.5 -174.5t55.5 -239t-55.5 -239t-158.5 -175t-244 -66zM558 5q81 0 131 44t76 113t35 148.5t9 149.5q0 71 -9 150t-35 148t-76 113
t-131 44t-131 -44t-75.5 -113t-35 -148t-9.5 -150q0 -70 9.5 -149.5t35 -148.5t75.5 -113t131 -44zM399 1686l-15 17l198 223q19 22 41.5 24t41.5 -8t29 -27q9 -16 8.5 -36t-10 -36.5t-25.5 -25.5z" />
    <glyph glyph-name="uni0200" unicode="&#x200;" horiz-adv-x="639" 
d="M449 771h-50q-29 23 -72 72t-61 78v10h97q14 -30 38 -72.5t48 -75.5v-12zM273 771h-50q-32 25 -74.5 74t-58.5 76v10h97q14 -30 38 -72.5t48 -75.5v-12zM419 476v25h643v-25h-643zM792 1529l521 -1504h151v-25h-580v25h210l-397 1231l-430 -1231h225v-25h-440v25h187
l527 1504h26z" />
    <glyph glyph-name="uni0201" unicode="&#x201;" horiz-adv-x="561" 
d="M415 606h-50q-29 23 -72 72t-61 78v10h97q14 -30 38 -72.5t48 -75.5v-12zM239 606h-50q-32 25 -74.5 74t-58.5 76v10h97q14 -30 38 -72.5t48 -75.5v-12zM841 -20q-47 0 -87.5 15t-65.5 52.5t-25 105.5v456q0 72 -11.5 141t-49.5 114t-118 45q-50 0 -101 -11.5t-94 -34
t-69.5 -55.5t-26.5 -76h-29q0 51 33.5 80.5t73.5 29.5q43 0 78.5 -27.5t35.5 -78.5q0 -60 -36.5 -87t-77.5 -27q-46 0 -77.5 28t-31.5 82q0 47 30 84.5t81 64t115.5 41t132.5 14.5q138 0 206 -48t90.5 -123t22.5 -156v-503q0 -34 12.5 -58.5t52.5 -24.5q30 0 66 26.5
t56 69.5l12 -22q-26 -51 -77.5 -84t-120.5 -33zM377 -20q-130 0 -207.5 66.5t-77.5 180.5q0 134 114 208.5t327 74.5h223v-22h-223q-88 0 -140.5 -39.5t-76 -97t-23.5 -112.5q0 -50 14 -99.5t45.5 -82.5t84.5 -33q57 0 109 36.5t84.5 111.5t32.5 192h15q0 -114 -33 -200.5
t-99.5 -135t-168.5 -48.5z" />
    <glyph glyph-name="uni0202" unicode="&#x202;" horiz-adv-x="639" 
d="M601 1845q0 61 17.5 120.5t65 98.5t137.5 39t137.5 -39t64.5 -98.5t17 -120.5h-15q0 49 -28.5 82t-75 49.5t-100.5 16.5t-101 -16.5t-76 -49.5t-29 -82h-14zM419 476v25h643v-25h-643zM792 1529l521 -1504h151v-25h-580v25h210l-397 1231l-430 -1231h225v-25h-440v25h187
l527 1504h26z" />
    <glyph glyph-name="uni0203" unicode="&#x203;" horiz-adv-x="561" 
d="M572 1680q0 61 17.5 120.5t65 98.5t137.5 39t137.5 -39t64.5 -98.5t17 -120.5h-15q0 49 -28.5 82t-75 49.5t-100.5 16.5t-101 -16.5t-76 -49.5t-29 -82h-14zM841 -20q-47 0 -87.5 15t-65.5 52.5t-25 105.5v456q0 72 -11.5 141t-49.5 114t-118 45q-50 0 -101 -11.5
t-94 -34t-69.5 -55.5t-26.5 -76h-29q0 51 33.5 80.5t73.5 29.5q43 0 78.5 -27.5t35.5 -78.5q0 -60 -36.5 -87t-77.5 -27q-46 0 -77.5 28t-31.5 82q0 47 30 84.5t81 64t115.5 41t132.5 14.5q138 0 206 -48t90.5 -123t22.5 -156v-503q0 -34 12.5 -58.5t52.5 -24.5
q30 0 66 26.5t56 69.5l12 -22q-26 -51 -77.5 -84t-120.5 -33zM377 -20q-130 0 -207.5 66.5t-77.5 180.5q0 134 114 208.5t327 74.5h223v-22h-223q-88 0 -140.5 -39.5t-76 -97t-23.5 -112.5q0 -50 14 -99.5t45.5 -82.5t84.5 -33q57 0 109 36.5t84.5 111.5t32.5 192h15
q0 -114 -33 -200.5t-99.5 -135t-168.5 -48.5z" />
    <glyph glyph-name="uni0204" unicode="&#x204;" horiz-adv-x="556" 
d="M437 771h-50q-29 23 -72 72t-61 78v10h97q14 -30 38 -72.5t48 -75.5v-12zM261 771h-50q-32 25 -74.5 74t-58.5 76v10h97q14 -30 38 -72.5t48 -75.5v-12zM52 0v25h179v1450h-179v25h1059v-410h-24q0 107 -32.5 194.5t-104 139t-188.5 51.5h-340v-1450h320
q137 0 216.5 53.5t114 149t34.5 222.5h25v-450h-1080zM747 557q0 67 -27.5 113t-74 69.5t-103.5 23.5h-181v25h181q57 0 103.5 21.5t74 65.5t27.5 111h25v-429h-25z" />
    <glyph glyph-name="uni0205" unicode="&#x205;" horiz-adv-x="563" 
d="M431 606h-50q-29 23 -72 72t-61 78v10h97q14 -30 38 -72.5t48 -75.5v-12zM255 606h-50q-32 25 -74.5 74t-58.5 76v10h97q14 -30 38 -72.5t48 -75.5v-12zM559 -20q-130 0 -233.5 57.5t-164.5 165t-61 257.5t58.5 257.5t159.5 164.5t231 57q147 0 235 -58t128 -153t40 -204
h-718v25h506q0 53 -6 116.5t-25 120t-57 93t-103 36.5q-73 0 -120 -38.5t-73.5 -103.5t-37.5 -146t-11 -167t11.5 -167t40.5 -145t80.5 -102t130.5 -38q143 0 234.5 76t128.5 187h29q-39 -124 -139 -207.5t-264 -83.5z" />
    <glyph glyph-name="uni0206" unicode="&#x206;" horiz-adv-x="556" 
d="M579 1845q0 61 17.5 120.5t65 98.5t137.5 39t137.5 -39t64.5 -98.5t17 -120.5h-15q0 49 -28.5 82t-75 49.5t-100.5 16.5t-101 -16.5t-76 -49.5t-29 -82h-14zM52 0v25h179v1450h-179v25h1059v-410h-24q0 107 -32.5 194.5t-104 139t-188.5 51.5h-340v-1450h320
q137 0 216.5 53.5t114 149t34.5 222.5h25v-450h-1080zM747 557q0 67 -27.5 113t-74 69.5t-103.5 23.5h-181v25h181q57 0 103.5 21.5t74 65.5t27.5 111h25v-429h-25z" />
    <glyph glyph-name="uni0207" unicode="&#x207;" horiz-adv-x="563" 
d="M573 1680q0 61 17.5 120.5t65 98.5t137.5 39t137.5 -39t64.5 -98.5t17 -120.5h-15q0 49 -28.5 82t-75 49.5t-100.5 16.5t-101 -16.5t-76 -49.5t-29 -82h-14zM559 -20q-130 0 -233.5 57.5t-164.5 165t-61 257.5t58.5 257.5t159.5 164.5t231 57q147 0 235 -58t128 -153
t40 -204h-718v25h506q0 53 -6 116.5t-25 120t-57 93t-103 36.5q-73 0 -120 -38.5t-73.5 -103.5t-37.5 -146t-11 -167t11.5 -167t40.5 -145t80.5 -102t130.5 -38q143 0 234.5 76t128.5 187h29q-39 -124 -139 -207.5t-264 -83.5z" />
    <glyph glyph-name="uni0208" unicode="&#x208;" horiz-adv-x="338" 
d="M299 771h-50q-29 23 -72 72t-61 78v10h97q14 -30 38 -72.5t48 -75.5v-12zM123 771h-50q-32 25 -74.5 74t-58.5 76v10h97q14 -30 38 -72.5t48 -75.5v-12zM52 0v25h219v1450h-219v25h650v-25h-240v-1450h240v-25h-650z" />
    <glyph glyph-name="uni0209" unicode="&#x209;" horiz-adv-x="257" 
d="M258 606h-50q-29 23 -72 72t-61 78v10h97q14 -30 38 -72.5t48 -75.5v-12zM82 606h-50q-32 25 -74.5 74t-58.5 76v10h97q14 -30 38 -72.5t48 -75.5v-12zM385 920v-895h127v-25h-433v25h126v870h-126v25h306z" />
    <glyph glyph-name="uni020A" unicode="&#x20a;" horiz-adv-x="338" 
d="M451 1845q0 61 17.5 120.5t65 98.5t137.5 39t137.5 -39t64.5 -98.5t17 -120.5h-15q0 49 -28.5 82t-75 49.5t-100.5 16.5t-101 -16.5t-76 -49.5t-29 -82h-14zM52 0v25h219v1450h-219v25h650v-25h-240v-1450h240v-25h-650z" />
    <glyph glyph-name="uni020B" unicode="&#x20b;" horiz-adv-x="257" 
d="M410 1680q0 61 17.5 120.5t65 98.5t137.5 39t137.5 -39t64.5 -98.5t17 -120.5h-15q0 49 -28.5 82t-75 49.5t-100.5 16.5t-101 -16.5t-76 -49.5t-29 -82h-14zM385 920v-895h127v-25h-433v25h126v870h-126v25h306z" />
    <glyph glyph-name="uni020C" unicode="&#x20c;" horiz-adv-x="780" 
d="M521 771h-50q-29 23 -72 72t-61 78v10h97q14 -30 38 -72.5t48 -75.5v-12zM345 771h-50q-32 25 -74.5 74t-58.5 76v10h97q14 -30 38 -72.5t48 -75.5v-12zM740 -20q-153 0 -271.5 59.5t-201 165.5t-125 245.5t-42.5 299.5t45 299.5t129.5 245.5t202.5 165.5t263 59.5
t262.5 -59.5t202 -165.5t129.5 -245.5t45 -299.5t-42.5 -299.5t-125 -245.5t-201 -165.5t-270.5 -59.5zM740 3q130 0 211 64.5t124 172.5t59 241t16 269t-18.5 269t-64 241t-125 172.5t-202.5 64.5t-203 -64.5t-125.5 -172.5t-64 -241t-18.5 -269t16 -269t59 -241
t124 -172.5t212 -64.5z" />
    <glyph glyph-name="uni020D" unicode="&#x20d;" horiz-adv-x="604" 
d="M438 606h-50q-29 23 -72 72t-61 78v10h97q14 -30 38 -72.5t48 -75.5v-12zM262 606h-50q-32 25 -74.5 74t-58.5 76v10h97q14 -30 38 -72.5t48 -75.5v-12zM558 -20q-141 0 -243.5 66t-158.5 175t-56 239t56 239t158.5 174.5t243.5 65.5t244 -65.5t158.5 -174.5t55.5 -239
t-55.5 -239t-158.5 -175t-244 -66zM558 5q81 0 131 44t76 113t35 148.5t9 149.5q0 71 -9 150t-35 148t-76 113t-131 44t-131 -44t-75.5 -113t-35 -148t-9.5 -150q0 -70 9.5 -149.5t35 -148.5t75.5 -113t131 -44z" />
    <glyph glyph-name="uni020E" unicode="&#x20e;" horiz-adv-x="780" 
d="M672 1845q0 61 17.5 120.5t65 98.5t137.5 39t137.5 -39t64.5 -98.5t17 -120.5h-15q0 49 -28.5 82t-75 49.5t-100.5 16.5t-101 -16.5t-76 -49.5t-29 -82h-14zM740 -20q-153 0 -271.5 59.5t-201 165.5t-125 245.5t-42.5 299.5t45 299.5t129.5 245.5t202.5 165.5t263 59.5
t262.5 -59.5t202 -165.5t129.5 -245.5t45 -299.5t-42.5 -299.5t-125 -245.5t-201 -165.5t-270.5 -59.5zM740 3q130 0 211 64.5t124 172.5t59 241t16 269t-18.5 269t-64 241t-125 172.5t-202.5 64.5t-203 -64.5t-125.5 -172.5t-64 -241t-18.5 -269t16 -269t59 -241
t124 -172.5t212 -64.5z" />
    <glyph glyph-name="uni020F" unicode="&#x20f;" horiz-adv-x="604" 
d="M584 1680q0 61 17.5 120.5t65 98.5t137.5 39t137.5 -39t64.5 -98.5t17 -120.5h-15q0 49 -28.5 82t-75 49.5t-100.5 16.5t-101 -16.5t-76 -49.5t-29 -82h-14zM558 -20q-141 0 -243.5 66t-158.5 175t-56 239t56 239t158.5 174.5t243.5 65.5t244 -65.5t158.5 -174.5
t55.5 -239t-55.5 -239t-158.5 -175t-244 -66zM558 5q81 0 131 44t76 113t35 148.5t9 149.5q0 71 -9 150t-35 148t-76 113t-131 44t-131 -44t-75.5 -113t-35 -148t-9.5 -150q0 -70 9.5 -149.5t35 -148.5t75.5 -113t131 -44z" />
    <glyph glyph-name="uni0210" unicode="&#x210;" horiz-adv-x="622" 
d="M440 771h-50q-29 23 -72 72t-61 78v10h97q14 -30 38 -72.5t48 -75.5v-12zM264 771h-50q-32 25 -74.5 74t-58.5 76v10h97q14 -30 38 -72.5t48 -75.5v-12zM412 760v15h300q96 0 163 41.5t102 119t35 186.5t-35 188.5t-102 122t-163 42.5h-660v25h660q151 0 263.5 -40.5
t174.5 -124t62 -213.5t-58 -209.5t-169.5 -116t-272.5 -36.5h-300zM52 0v25h630v-25h-630zM271 13v1470h191v-1470h-191zM1202 -10q-87 0 -135.5 32t-70.5 86.5t-27.5 122t-6.5 139.5t-8 139.5t-31 122t-76.5 86.5t-144.5 32h-290v14h330q144 0 229.5 -40.5t128.5 -106.5
t57.5 -145.5t15.5 -159t4 -145.5t21.5 -106t69.5 -40q32 0 58 6.5t47 16.5l9 -23q-24 -13 -71 -22t-109 -9z" />
    <glyph glyph-name="uni0211" unicode="&#x211;" horiz-adv-x="413" 
d="M376 606h-50q-29 23 -72 72t-61 78v10h97q14 -30 38 -72.5t48 -75.5v-12zM200 606h-50q-32 25 -74.5 74t-58.5 76v10h97q14 -30 38 -72.5t48 -75.5v-12zM358 436q0 90 15 179.5t49 162.5t88 117t132 44q55 0 95 -21.5t60.5 -56.5t20.5 -76q0 -51 -30.5 -86.5t-84.5 -35.5
t-85.5 30t-31.5 75q0 58 37 86.5t80 28.5q32 0 58 -13t41 -35.5t15 -49.5h-25q0 36 -19.5 65.5t-54 46.5t-78.5 17q-68 0 -118.5 -41t-83.5 -110.5t-49 -154.5t-16 -172h-15zM373 920v-895h133v-25h-437v25h127v870h-127v25h304z" />
    <glyph glyph-name="uni0212" unicode="&#x212;" horiz-adv-x="1422" 
d="M435 1680q0 61 17.5 120.5t65 98.5t137.5 39t137.5 -39t64.5 -98.5t17 -120.5h-15q0 49 -28.5 82t-75 49.5t-100.5 16.5t-101 -16.5t-76 -49.5t-29 -82h-14zM412 760v15h300q96 0 163 41.5t102 119t35 186.5t-35 188.5t-102 122t-163 42.5h-660v25h660q151 0 263.5 -40.5
t174.5 -124t62 -213.5t-58 -209.5t-169.5 -116t-272.5 -36.5h-300zM52 0v25h630v-25h-630zM271 13v1470h191v-1470h-191zM1202 -10q-87 0 -135.5 32t-70.5 86.5t-27.5 122t-6.5 139.5t-8 139.5t-31 122t-76.5 86.5t-144.5 32h-290v14h330q144 0 229.5 -40.5t128.5 -106.5
t57.5 -145.5t15.5 -159t4 -145.5t21.5 -106t69.5 -40q32 0 58 6.5t47 16.5l9 -23q-24 -13 -71 -22t-109 -9z" />
    <glyph glyph-name="uni0213" unicode="&#x213;" horiz-adv-x="869" 
d="M267 1100q0 61 17.5 120.5t65 98.5t137.5 39t137.5 -39t64.5 -98.5t17 -120.5h-15q0 49 -28.5 82t-75 49.5t-100.5 16.5t-101 -16.5t-76 -49.5t-29 -82h-14zM358 436q0 90 15 179.5t49 162.5t88 117t132 44q55 0 95 -21.5t60.5 -56.5t20.5 -76q0 -51 -30.5 -86.5
t-84.5 -35.5t-85.5 30t-31.5 75q0 58 37 86.5t80 28.5q32 0 58 -13t41 -35.5t15 -49.5h-25q0 36 -19.5 65.5t-54 46.5t-78.5 17q-68 0 -118.5 -41t-83.5 -110.5t-49 -154.5t-16 -172h-15zM373 920v-895h133v-25h-437v25h127v870h-127v25h304z" />
    </font>
</defs>
</svg>
