<?xml version="1.0" standalone="no"?>
<!DOCTYPE svg PUBLIC "-//W3C//DTD SVG 1.1//EN" "http://www.w3.org/Graphics/SVG/1.1/DTD/svg11.dtd" >
<svg xmlns="http://www.w3.org/2000/svg" xmlns:xlink="http://www.w3.org/1999/xlink" version="1.1">
<metadata>
Created by FontForge 20190801 at Wed Jan 24 10:27:43 2024
 By root
Copyright 2020 The Bodoni Moda Project Authors (https://github.com/indestructible-type)
</metadata>
<defs>
<font id="BodoniModa-SemiBoldItalic" horiz-adv-x="500" >
  <font-face 
    font-family="Bodoni Moda SemiBold"
    font-weight="600"
    font-style="italic"
    font-stretch="normal"
    units-per-em="2000"
    panose-1="0 0 0 0 0 0 0 0 0 0"
    ascent="1600"
    descent="-400"
    x-height="920"
    cap-height="1500"
    bbox="-450 -674 3910 2337"
    underline-thickness="50"
    underline-position="-125"
    slope="-13"
    unicode-range="U+0001-2215"
  />
<missing-glyph horiz-adv-x="728" 
d="M66 0v1333h530v-1333h-530zM132 66h398v1201h-398v-1201z" />
    <glyph glyph-name=".notdef" horiz-adv-x="728" 
d="M66 0v1333h530v-1333h-530zM132 66h398v1201h-398v-1201z" />
    <glyph glyph-name="uni0000" 
 />
    <glyph glyph-name="uni0000" 
 />
    <glyph glyph-name="nonmarkingreturn" horiz-adv-x="666" 
 />
    <glyph glyph-name="uni0001" 
 />
    <glyph glyph-name="uni0002" 
 />
    <glyph glyph-name="uni0003" 
 />
    <glyph glyph-name="uni0004" 
 />
    <glyph glyph-name="uni0005" 
 />
    <glyph glyph-name="uni0006" 
 />
    <glyph glyph-name="uni0007" 
 />
    <glyph glyph-name="uni0008" 
 />
    <glyph glyph-name="uni0009" unicode="&#x9;" 
 />
    <glyph glyph-name="uni000A" unicode="&#xa;" 
 />
    <glyph glyph-name="uni000B" 
 />
    <glyph glyph-name="uni000C" 
 />
    <glyph glyph-name="CR" unicode="&#xd;" 
 />
    <glyph glyph-name="uni000E" 
 />
    <glyph glyph-name="uni000F" 
 />
    <glyph glyph-name="uni0010" 
 />
    <glyph glyph-name="uni0011" 
 />
    <glyph glyph-name="uni0012" 
 />
    <glyph glyph-name="uni0013" 
 />
    <glyph glyph-name="uni0014" 
 />
    <glyph glyph-name="uni0015" 
 />
    <glyph glyph-name="uni0016" 
 />
    <glyph glyph-name="uni0017" 
 />
    <glyph glyph-name="uni0018" 
 />
    <glyph glyph-name="uni0019" 
 />
    <glyph glyph-name="uni001A" 
 />
    <glyph glyph-name="uni001B" 
 />
    <glyph glyph-name="uni001C" 
 />
    <glyph glyph-name="uni001D" 
 />
    <glyph glyph-name="uni001E" 
 />
    <glyph glyph-name="uni001F" 
 />
    <glyph glyph-name="space" unicode=" " 
 />
    <glyph glyph-name="exclam" unicode="!" horiz-adv-x="709" 
d="M375 476q18 90 27.5 175t12.5 166t2.5 159t-2 154t-1.5 152q0 65 20.5 118t59.5 84.5t94 31.5q67 0 107.5 -44.5t32.5 -111.5q-8 -68 -36.5 -149t-68 -171.5t-82.5 -185t-81 -190.5t-63 -188h-22zM303 -20q-43 0 -78 20.5t-55.5 56t-20.5 78.5t20.5 78t55.5 55.5t78 20.5
t78 -20.5t56 -55.5t21 -78t-21 -78.5t-56 -56t-78 -20.5z" />
    <glyph glyph-name="quotedbl" unicode="&#x22;" horiz-adv-x="870" 
d="M712 934q19 70 20 121t-8 93t-21.5 86t-20.5 100q-1 11 -1.5 21t-0.5 19q0 68 44 107t105 39q57 0 94 -36.5t37 -89.5q0 -11 -1.5 -23t-4.5 -23q-14 -56 -41 -100.5t-59.5 -88t-63.5 -97t-54 -128.5h-24zM309 934q19 70 20 121t-8 93t-21.5 86t-20.5 100q-1 11 -1.5 21
t-0.5 19q0 68 44 107t105 39q57 0 94 -36.5t37 -89.5q0 -11 -1.5 -23t-4.5 -23q-14 -56 -41 -100.5t-59.5 -88t-63.5 -97t-54 -128.5h-24z" />
    <glyph glyph-name="numbersign" unicode="#" horiz-adv-x="1259" 
d="M739 -12l350 1520l26 2l-350 -1520zM132 489v26h1080v-26h-1080zM339 -10l351 1520h25l-350 -1520h-26zM232 1015v26h1080v-26h-1080z" />
    <glyph glyph-name="dollar" unicode="$" horiz-adv-x="1163" 
d="M546 -29q-126 0 -218.5 33.5t-151 86.5t-87 110.5t-28.5 106.5q0 76 42 129t115 53q53 0 99.5 -38.5t46.5 -111.5q0 -45 -22 -78.5t-57.5 -52t-73.5 -18.5q-56 0 -102 28.5t-46 88.5h23q0 -46 26.5 -100t82 -103.5t142 -80.5t206.5 -31q99 0 171 43.5t111 117.5t39 167
q0 85 -33.5 138.5t-88.5 89.5t-120.5 64.5t-132 61t-121.5 80t-88.5 121t-33.5 184.5q0 96 44.5 179.5t119.5 146.5t167.5 98.5t190.5 35.5q108 0 203 -43t154 -113t59 -151q0 -78 -42.5 -130t-115.5 -52q-53 0 -99 37.5t-46 112.5q0 67 46 108t104 41q36 0 71 -19
t57.5 -46.5t22.5 -51.5h-23q0 72 -53 137t-141.5 106t-194.5 41q-92 0 -159 -35t-103.5 -94.5t-36.5 -133.5q0 -81 33.5 -133.5t88.5 -89.5t121 -68.5t132 -68t121 -88.5t88.5 -130t33.5 -194q0 -112 -43.5 -202t-119 -154.5t-173.5 -99.5t-207 -35zM317 -160l415 1820h25
l-415 -1820h-25zM486 -160l415 1820h25l-415 -1820h-25z" />
    <glyph glyph-name="percent" unicode="%" horiz-adv-x="2000" 
d="M387 0l1370 1500h33l-1372 -1500h-31zM550 641q-99 0 -173 31.5t-115.5 97.5t-41.5 169q0 123 40 228.5t110.5 184.5t163 123.5t196.5 44.5q99 0 173 -32t115.5 -98t41.5 -169q0 -123 -40 -228.5t-110.5 -184.5t-163 -123t-196.5 -44zM545 665q32 0 64.5 31t63 83.5
t56 119t45 138.5t30 142t10.5 128q0 83 -18.5 135.5t-60.5 52.5q-32 0 -64.5 -30.5t-63.5 -83t-57 -118.5t-45.5 -138t-30.5 -141.5t-11 -127.5q0 -83 20 -137t62 -54zM1460 -20q-99 0 -173 32t-115.5 98t-41.5 169q0 123 40 228.5t111 184.5t163 123t197 44q99 0 173 -31.5
t115 -97.5t41 -169q0 -123 -40 -228.5t-110.5 -184.5t-163 -123.5t-196.5 -44.5zM1455 5q32 0 64.5 29.5t63 80t56 115t45 134.5t30.5 138.5t11 127.5q0 55 -8 101.5t-25.5 75.5t-45.5 29q-33 0 -65.5 -31t-63 -83.5t-57 -118.5t-46.5 -137.5t-31 -141.5t-11 -128
q0 -83 20.5 -137t62.5 -54z" />
    <glyph glyph-name="ampersand" unicode="&#x26;" horiz-adv-x="1634" 
d="M1196 -20q-120 0 -200.5 51.5t-125.5 150.5l-355 757q-28 61 -42 118t-14 109q0 100 63.5 180t172 127t243.5 47q69 0 135.5 -17t119.5 -50t84.5 -80t31.5 -107q0 -76 -41 -133.5t-110.5 -102t-156 -82t-178.5 -75.5l-9 23q79 35 132 91t79.5 125t26.5 144
q0 62 -11.5 117t-39.5 89.5t-77 34.5q-66 0 -109.5 -38.5t-65 -96.5t-21.5 -118q0 -52 19 -127t65 -178l353 -778q15 -34 33 -64.5t44.5 -49.5t65.5 -19q50 0 98 34.5t73 85.5l21 -7q-28 -66 -103 -113.5t-201 -47.5zM509 -20q-143 0 -248.5 39.5t-163 115.5t-57.5 185
q0 114 44.5 189.5t122 127t175.5 92t206 83.5l9 -21q-83 -40 -146 -103t-98.5 -144t-35.5 -178q0 -53 15.5 -111.5t49.5 -111t91 -85.5t141 -33q141 0 281 46t264.5 121.5t221 166.5t152.5 183.5t56 171.5h23q0 -31 -24.5 -56.5t-63 -40t-80.5 -14.5q-51 0 -88 21t-57.5 56
t-20.5 76q0 37 20.5 69t55.5 52.5t78 20.5q55 0 96 -24.5t63.5 -66t22.5 -93.5q0 -89 -59.5 -189t-165 -196.5t-245 -175t-302 -126t-333.5 -47.5z" />
    <glyph glyph-name="quotesingle" unicode="'" horiz-adv-x="467" 
d="M309 934q19 70 20 121t-8 93t-21.5 86t-20.5 100q-1 11 -1.5 21t-0.5 19q0 68 44 107t105 39q57 0 94 -36.5t37 -89.5q0 -11 -1.5 -23t-4.5 -23q-14 -56 -41 -100.5t-59.5 -88t-63.5 -97t-54 -128.5h-24z" />
    <glyph glyph-name="parenleft" unicode="(" horiz-adv-x="737" 
d="M554 -340q-113 50 -200.5 151.5t-137.5 243.5t-50 315q0 176 46.5 337.5t128 302.5t186 256.5t221 200.5t232.5 133l12 -22q-77 -46 -150.5 -130.5t-139.5 -195.5t-120.5 -239.5t-95 -263.5t-62.5 -267t-22 -250q0 -112 9.5 -196t30 -147.5t51.5 -113t73 -93.5z" />
    <glyph glyph-name="parenright" unicode=")" horiz-adv-x="737" 
d="M-127 -340l-11 22q77 46 150 130.5t139 195.5t121 239.5t95 263.5t62 267t22 250q0 112 -9.5 196t-30 147.5t-51 113t-73.5 93.5l12 22q113 -50 200.5 -151t137.5 -243.5t50 -315.5q0 -176 -46.5 -337.5t-128 -302.5t-186 -256.5t-221 -200.5t-232.5 -133z" />
    <glyph glyph-name="asterisk" unicode="*" horiz-adv-x="1269" 
d="M764 986l-13 21q71 41 118.5 82t83.5 80.5t70.5 78t79.5 74.5q40 30 83 40.5t80 -2t61 -52.5q23 -38 15 -81t-40.5 -79t-82.5 -52q-53 -18 -104.5 -22.5t-105.5 -9t-114 -21t-131 -57.5zM412 674q-40 -30 -83 -40.5t-80.5 2t-60.5 52.5q-23 38 -15 81t40.5 79t82.5 52
q54 18 105 22.5t104.5 8.5t113.5 20t131 57l13 -21q-71 -41 -118.5 -82t-83 -80t-70.5 -77t-79 -74zM661 412q-41 0 -72.5 22t-44 63t2.5 97q16 57 44.5 100.5t59.5 86t57 94t37 123.5h25q-15 -87 -10.5 -142t18 -94t25.5 -78.5t12 -95.5q0 -50 -20 -90t-55 -63t-79 -23z
M750 987q-71 41 -120 53t-88.5 12t-79 3t-91.5 25q-45 20 -70 55t-28 76t19 79q23 41 63.5 58t86.5 11t88 -34q36 -28 54 -59t28.5 -64t24.5 -66t43 -65.5t84 -64.5zM988 675q-37 29 -55 59.5t-29 62t-26 63.5t-44 64t-84 63l14 20q71 -41 120 -53t88 -11.5t79 -2t92 -24.5
q45 -20 70.5 -55t28.5 -76t-19 -79q-24 -40 -64 -56t-85.5 -9t-85.5 34zM745 998q15 88 10.5 142.5t-18 93.5t-25.5 78.5t-12 95.5q0 50 20 90t54.5 63t78.5 23q41 0 72 -21.5t43.5 -62.5t-1.5 -98t-42 -100.5t-59.5 -86t-58 -93.5t-37.5 -124h-25z" />
    <glyph glyph-name="plus" unicode="+" horiz-adv-x="901" 
d="M435 134v337h-335v26h335v337h30v-337h335v-26h-335v-337h-30z" />
    <glyph glyph-name="comma" unicode="," horiz-adv-x="509" 
d="M-71 -312v25q77 0 154 32t140.5 88t99.5 129.5t30 157.5h23q0 -44 -26 -75.5t-66 -48t-82 -16.5q-80 0 -122 43t-42 105q0 42 23 78.5t61.5 59t85.5 22.5q48 0 87 -22t62 -64t23 -104q0 -84 -39 -158.5t-104 -131t-145.5 -88.5t-162.5 -32z" />
    <glyph glyph-name="hyphen" unicode="-" horiz-adv-x="901" 
d="M800 453h-700v26h700v-26z" />
    <glyph glyph-name="period" unicode="." horiz-adv-x="471" 
d="M195 -20q-43 0 -78.5 21t-57 57t-21.5 78q0 43 21.5 78.5t57 57t78.5 21.5t78 -21.5t56 -57t21 -78.5t-21 -78.5t-56 -56.5t-78 -21z" />
    <glyph glyph-name="slash" unicode="/" horiz-adv-x="1039" 
d="M-61 -300l1268 1861h33l-1267 -1861h-34z" />
    <glyph glyph-name="zero" unicode="0" horiz-adv-x="1287" 
d="M568 -20q-134 0 -229 64.5t-145.5 169t-50.5 226.5q0 173 41 333.5t114 296t170 236.5t209 157.5t231 56.5q134 0 229.5 -64t146 -169t50.5 -227q0 -173 -41.5 -333.5t-114.5 -296t-170.5 -236.5t-209 -157.5t-230.5 -56.5zM568 3q63 0 120 46t108.5 125.5t95 181.5
t78 214.5t58.5 225t37 212.5t13 175q0 60 -6.5 116t-24 100.5t-51.5 71t-88 26.5q-63 0 -120.5 -45.5t-108.5 -124.5t-94.5 -180t-78 -213t-58.5 -224.5t-37 -213.5t-13 -179q0 -59 6.5 -115.5t24 -101t51.5 -71t88 -26.5z" />
    <glyph glyph-name="one" unicode="1" horiz-adv-x="941" 
d="M157 0l333 1475h-229v25h498l-340 -1500h-262zM-58 0v25h701v-25h-701z" />
    <glyph glyph-name="two" unicode="2" horiz-adv-x="1165" 
d="M-39 0l38 172l536 405q74 55 141.5 125.5t120 151.5t82.5 168t30 173q0 78 -22 141.5t-71.5 101.5t-130.5 38q-77 0 -153 -32.5t-139 -90t-100.5 -132t-37.5 -158.5h-22q0 34 24 64t61 48.5t78 18.5q60 0 104.5 -36.5t44.5 -102.5q0 -71 -45.5 -116t-114.5 -45
q-63 0 -108.5 44t-45.5 125q0 88 41 170t114.5 146.5t173 102.5t217.5 38q121 0 212 -39t141.5 -109.5t50.5 -165.5q0 -66 -33.5 -128.5t-87 -119t-116 -106t-121.5 -90.5t-102 -72l-567 -438h819l33 150h25l-89 -402h-981z" />
    <glyph glyph-name="three" unicode="3" horiz-adv-x="1107" 
d="M421 -20q-142 0 -234 48t-137 122t-45 150q0 73 43 115.5t107 42.5q57 0 97 -37.5t40 -103.5q0 -39 -20.5 -69.5t-53 -48t-69.5 -17.5t-69 16t-52.5 43t-20.5 59h23q0 -83 48 -149.5t128 -104.5t175 -38q97 0 167 40.5t115 107.5t67 148t22 163q0 56 -9.5 114t-39.5 108
t-89.5 80.5t-159.5 30.5v16q162 0 271 -26.5t174 -75t93 -116t28 -150.5q0 -106 -51 -192t-137 -148t-192.5 -95t-218.5 -33zM454 809v16q116 0 194 46t124 115.5t66 142.5t20 127q0 69 -20 121t-67 81t-128 29q-52 0 -110 -19t-108.5 -54.5t-83 -85t-32.5 -109.5h-23
q0 38 22.5 65.5t55.5 42.5t66 15q37 0 69.5 -16t53 -46.5t20.5 -73.5q0 -47 -22.5 -78.5t-55 -47t-65.5 -15.5q-38 0 -71.5 18.5t-54 53t-20.5 82.5q0 61 34.5 115t93.5 95.5t132.5 65t152.5 23.5q83 0 160.5 -15t137.5 -48.5t95.5 -89.5t35.5 -139q0 -75 -40 -149
t-122.5 -134.5t-209.5 -97t-300 -36.5z" />
    <glyph glyph-name="four" unicode="4" horiz-adv-x="1268" 
d="M631 0l309 1392l-822 -949h1095v-25h-1149l939 1082h235l-345 -1500h-262zM461 0v25h602v-25h-602z" />
    <glyph glyph-name="five" unicode="5" horiz-adv-x="1076" 
d="M148 736l263 764h733l24 109h24l-77 -361h-763l-179 -512h-25zM389 -20q-110 0 -197.5 39t-138.5 106t-51 151q0 47 20 81.5t53.5 53.5t72.5 19q34 0 68 -16.5t56 -48t22 -77.5q0 -43 -20 -74t-52 -48.5t-69 -17.5q-38 0 -71.5 18.5t-55.5 47.5t-22 62h23
q0 -61 28.5 -110.5t76.5 -84.5t105.5 -53.5t116.5 -18.5q80 0 142 36.5t107.5 98t74.5 136.5t43 152.5t14 146.5q0 88 -23 158.5t-68 111.5t-111 41q-68 0 -133.5 -18.5t-120.5 -53t-90 -82.5h-25q36 57 98.5 98.5t143 64t171.5 22.5q130 0 228 -37.5t152 -118t54 -210.5
q0 -116 -52 -219.5t-140 -183.5t-199.5 -126t-230.5 -46z" />
    <glyph glyph-name="six" unicode="6" horiz-adv-x="1179" 
d="M504 -20q-118 0 -211 48t-147 149.5t-54 261.5q0 136 54.5 285t155 290t236.5 255.5t299.5 182.5t344.5 68v-23q-122 0 -230 -49.5t-200 -136.5t-165 -198t-124.5 -235t-78.5 -248.5t-27 -237.5l-3 -106q0 -79 16.5 -142.5t51.5 -101t90 -37.5q58 0 110.5 43.5t96 115.5
t75 158t49 172t17.5 157q0 133 -31 207t-102 74q-76 0 -136 -46t-105 -119.5t-74.5 -160.5t-43.5 -171t-14 -149h-24q0 56 10.5 128t33 151t58 153t85 134t115.5 95.5t149 35.5q65 0 127.5 -20.5t112.5 -66t80.5 -118.5t30.5 -178q0 -121 -53.5 -232.5t-143 -199t-202 -138
t-229.5 -50.5z" />
    <glyph glyph-name="seven" unicode="7" horiz-adv-x="1071" 
d="M444 -20q-65 0 -111 44.5t-46 131.5q0 64 37.5 139t97.5 155.5t129 163t132 162.5q52 66 110.5 143.5t120.5 159t124 159.5h-753l-34 -150h-24l89 412h959l-36.5 -48t-97 -126.5t-132 -172.5t-143 -187t-129.5 -168q-70 -91 -128.5 -167t-94.5 -137t-36 -106
q0 -36 20.5 -59.5t47 -45.5t47 -53.5t20.5 -83.5q0 -69 -45 -117.5t-124 -48.5z" />
    <glyph glyph-name="eight" unicode="8" horiz-adv-x="1171" 
d="M520 -20q-225 0 -342 85t-117 235q0 120 59.5 227.5t179.5 174.5t300 67q225 0 342.5 -79.5t117.5 -229.5q0 -120 -60 -230t-180 -180t-300 -70zM502 5q54 0 99.5 29.5t81 79.5t60.5 113t38 130t13 129q0 75 -19 134.5t-59 94t-104 34.5q-54 0 -99.5 -29t-81 -78
t-60.5 -111t-38 -128t-13 -128q0 -75 18.5 -136t59 -97.5t104.5 -36.5zM640 761q-121 0 -211 39t-139.5 104.5t-49.5 145.5q0 90 40.5 174t113 151t169 106t209.5 39q130 0 219 -49.5t135 -125.5t46 -156q0 -92 -43 -170t-117.5 -136t-170 -90t-201.5 -32zM638 781
q48 0 89 27t74 73.5t56.5 105.5t36 123.5t12.5 126.5q0 52 -10 112t-39.5 103t-85.5 43q-44 0 -84 -29.5t-73 -79.5t-57.5 -113t-37.5 -130t-13 -129q0 -55 10.5 -108.5t38.5 -89t83 -35.5z" />
    <glyph glyph-name="nine" unicode="9" horiz-adv-x="1179" 
d="M73 -20v23q121 0 229 49.5t200 136.5t165 198t124 235t78.5 248.5t27.5 237.5l4 106q0 79 -17 142.5t-52 101t-90 37.5q-58 0 -110.5 -43.5t-96 -115.5t-75 -158t-48.5 -172t-17 -157q0 -133 30.5 -207t101.5 -74q76 0 136 46t105 119.5t74 160.5t44 171t15 149h22
q0 -55 -10 -127.5t-32.5 -151.5t-58 -153t-85.5 -134t-115.5 -95.5t-147.5 -35.5q-66 0 -128.5 20.5t-113 66t-80 118.5t-29.5 178q0 122 53 233t143 198.5t202 138t230 50.5q117 0 210 -48t147.5 -149.5t54.5 -261.5q0 -136 -55.5 -285t-155 -290t-236 -255.5t-300 -182.5
t-343.5 -68z" />
    <glyph glyph-name="colon" unicode=":" horiz-adv-x="467" 
d="M366 820q-43 0 -78.5 21t-57 57t-21.5 78q0 43 21.5 78.5t57 57t78.5 21.5t78 -21.5t56 -57t21 -78.5t-21 -78.5t-56 -56.5t-78 -21zM177 -20q-43 0 -78.5 21t-57 57t-21.5 78q0 43 21.5 78.5t57 57t78.5 21.5t78 -21.5t56 -57t21 -78.5t-21 -78.5t-56 -56.5t-78 -21z
" />
    <glyph glyph-name="semicolon" unicode=";" horiz-adv-x="509" 
d="M369 820q-43 0 -78.5 21t-57 57t-21.5 78q0 43 21.5 78.5t57 57t78.5 21.5t78 -21.5t56 -57t21 -78.5t-21 -78.5t-56 -56.5t-78 -21zM-92 -312v25q77 0 154 32t140.5 88t99.5 129.5t30 157.5h23q0 -44 -26 -75.5t-66 -48t-82 -16.5q-80 0 -122 43t-42 105q0 42 23 78.5
t61.5 59t85.5 22.5q48 0 87 -22t62 -64t23 -104q0 -84 -39 -158.5t-104 -131t-145.5 -88.5t-162.5 -32z" />
    <glyph glyph-name="less" unicode="&#x3c;" horiz-adv-x="1074" 
d="M108 765v27l880 416v-27zM988 343l-880 415v27l880 -416v-26z" />
    <glyph glyph-name="equal" unicode="=" horiz-adv-x="800" 
d="M50 582v26h700v-26h-700zM50 331v26h700v-26h-700z" />
    <glyph glyph-name="greater" unicode="&#x3e;" horiz-adv-x="1026" 
d="M102 1181v26l880 -415v-34l-880 -416v27l859 406z" />
    <glyph glyph-name="question" unicode="?" horiz-adv-x="1141" 
d="M522 460l55 255q107 31 194.5 103t140 173t52.5 219q0 78 -15 142.5t-61 102.5t-140 38q-76 0 -146.5 -27.5t-126.5 -74.5t-89 -105t-33 -119h-23q0 36 20 64t52 44t67 16q37 0 69 -17t52 -47.5t20 -71.5q0 -46 -22 -76.5t-54.5 -46t-64.5 -15.5q-37 0 -69 18t-52 51.5
t-20 80.5q0 64 34.5 126.5t96 113.5t142 82t172.5 31q96 0 179.5 -21t146.5 -63t98 -105t35 -148q0 -90 -38.5 -164.5t-104 -131.5t-148 -98t-171.5 -64t-174 -28l-49 -237h-25zM493 -20q-43 0 -78.5 21t-57 56.5t-21.5 78.5t21.5 78.5t57 57t78.5 21.5t78 -21.5t56 -57
t21 -78.5t-21 -78.5t-56 -56.5t-78 -21z" />
    <glyph glyph-name="at" unicode="@" horiz-adv-x="2019" 
d="M838 -428q-137 0 -267 45t-234.5 144.5t-166 262.5t-61.5 398q0 188 53.5 360.5t151 317.5t230 253t291.5 167.5t335 59.5q190 0 329.5 -69t230.5 -183t135.5 -251.5t44.5 -274.5q0 -122 -35 -240.5t-103.5 -214.5t-170.5 -153t-237 -57q-80 0 -129.5 26t-73.5 68.5
t-27.5 92.5t6.5 96l144 620h250l-151 -630q-4 -18 -11.5 -46t-11.5 -60t0.5 -60.5t23.5 -46.5t59 -18q93 0 173.5 50.5t140.5 138t94 199.5t34 235q0 134 -42.5 267t-130.5 243t-223 176.5t-320 66.5q-170 0 -325 -58.5t-284 -164t-224.5 -247.5t-148 -310.5t-52.5 -352.5
q0 -230 59.5 -388t160 -254.5t226 -139.5t257.5 -43q161 0 291 32t234.5 96.5t189.5 162.5l17 -16q-126 -147 -306.5 -223.5t-425.5 -76.5zM826 141q-85 0 -152.5 37.5t-106 109t-38.5 173.5q0 110 38.5 216t104.5 192t150 138t176 52q65 0 106.5 -30t64 -80t31.5 -110.5
t9 -122.5q0 -110 -29.5 -213t-81 -185t-121.5 -129.5t-151 -47.5zM902 204q53 0 104 42t92 113t65 161t24 186q0 32 -3 79.5t-15 95.5t-38 80t-74 32t-94.5 -50.5t-84.5 -132.5t-61 -180t-23 -193q0 -62 11 -115t35 -85.5t62 -32.5z" />
    <glyph glyph-name="A" unicode="A" horiz-adv-x="1506" 
d="M71 0l882 1529h84l190 -1529h-282l-128 1248l-718 -1248h-28zM-93 0v25h440v-25h-440zM715 0v25h652v-25h-652zM370 477v25h657v-25h-657z" />
    <glyph glyph-name="B" unicode="B" horiz-adv-x="1319" 
d="M-93 0v25h186l338 1450h-174v25h596q251 0 363.5 -71.5t112.5 -230.5q0 -85 -42 -157.5t-115.5 -128.5t-168.5 -92t-201 -48q124 -7 218 -40.5t146.5 -98.5t52.5 -165q0 -112 -53 -199.5t-144.5 -147.5t-210 -90.5t-248.5 -30.5h-656zM355 25h208q79 0 146 39
t115.5 107.5t75.5 158t27 190.5q0 89 -27 141t-77 74t-120 22h-227l6 26h221q57 0 119 31t115.5 91t86.5 144.5t33 192.5q0 66 -21 119t-66.5 83.5t-119.5 30.5h-157z" />
    <glyph glyph-name="C" unicode="C" horiz-adv-x="1371" 
d="M647 -20q-162 0 -283.5 64.5t-189 183.5t-67.5 282q0 205 69.5 387.5t192 322.5t281.5 220t339 80q124 0 217.5 -52.5t144 -152.5t45.5 -243h-15q2 109 -27 187.5t-79.5 129t-114.5 74.5t-133 24q-103 0 -189.5 -51.5t-157 -139.5t-124.5 -200.5t-90 -237t-54.5 -248
t-18.5 -232.5q0 -99 28 -182t90.5 -133.5t166.5 -50.5q125 0 233.5 55t195 149.5t143.5 211.5h15q-52 -123 -142.5 -225t-211.5 -162.5t-264 -60.5zM1143 0l-95 138q41 39 83.5 85.5t81.5 115.5l37 89h25l-110 -428h-22zM1381 1072l3 78q-8 63 -23.5 112.5t-46.5 95.5
l169 142h22l-99 -428h-25z" />
    <glyph glyph-name="D" unicode="D" horiz-adv-x="1464" 
d="M-73 0v25h618q102 0 188.5 50.5t156.5 137t123 196t88.5 229t54 235.5t18.5 215q0 69 -14 137.5t-47.5 125t-90.5 90.5t-143 34h-632v25h650q163 0 291.5 -59t203 -175t74.5 -288q0 -198 -69 -374.5t-191 -312.5t-285 -213.5t-352 -77.5h-642zM107 0l340 1500h262
l-340 -1500h-262z" />
    <glyph glyph-name="E" unicode="E" horiz-adv-x="1208" 
d="M77 0l348 1500h262l-348 -1500h-262zM-93 0v25h702q137 0 235 53.5t163 149t103 222.5h25l-104 -450h-1124zM790 538q5 67 -16.5 118t-63.5 79t-99 28h-136v25h136q57 0 113.5 26t102.5 74.5t70 115.5h24l-107 -466h-24zM1238 1090q16 107 -7 194.5t-90 139t-184 51.5
h-712v25h1114l-96 -410h-25z" />
    <glyph glyph-name="F" unicode="F" horiz-adv-x="1162" 
d="M77 0l348 1500h262l-348 -1500h-262zM-93 0v25h632v-25h-632zM791 512q6 67 -15.5 117t-71.5 77.5t-131 27.5h-98v25h98q80 0 145 24.5t111 71.5t68 114h25l-106 -457h-25zM1212 1090q16 107 -5.5 194.5t-87 139t-182.5 51.5h-692v25h1088l-96 -410h-25z" />
    <glyph glyph-name="G" unicode="G" horiz-adv-x="1525" 
d="M647 -20q-159 0 -281 62t-190.5 180.5t-68.5 287.5q0 168 47.5 319t133 277.5t199 219t246 143.5t274.5 51q124 0 220 -52.5t148 -152.5t44 -243h-14q4 104 -24.5 181.5t-79 128.5t-116.5 76.5t-140 25.5q-125 0 -227.5 -69.5t-181.5 -186.5t-133.5 -260.5t-82 -293.5
t-27.5 -283q0 -102 21.5 -190t75 -142t148.5 -54q77 0 136.5 28t103.5 69t73 82t44 66l83 317h280l-61 -237q-34 -47 -93.5 -107t-143 -115.5t-187.5 -91.5t-226 -36zM889 557v25h600v-25h-600zM1406 1072l3 72q-5 55 -23.5 114t-53.5 108l175 134h22l-100 -428h-23z" />
    <glyph glyph-name="H" unicode="H" horiz-adv-x="1508" 
d="M424 727v25h720v-25h-720zM853 1475h-170l-328 -1450h168v-25h-606v25h176l328 1450h-174v25h606v-25zM1699 1500v-25h-176l-328 -1450h174v-25h-606v25h170l328 1450h-168v25h606z" />
    <glyph glyph-name="I" unicode="I" horiz-adv-x="768" 
d="M137 0l340 1500h262l-340 -1500h-262zM-83 0v25h712v-25h-712zM247 1475v25h712v-25h-712z" />
    <glyph glyph-name="J" unicode="J" horiz-adv-x="974" 
d="M226 -61q-88 0 -153 34.5t-101 90.5t-36 121q0 51 21.5 88t56 56.5t73.5 19.5q34 0 69 -16.5t58.5 -50.5t23.5 -84q0 -46 -21.5 -78t-56 -49t-73.5 -17q-35 0 -69.5 17t-57 46.5t-22.5 67.5h23q1 -46 20.5 -85t53 -69t78 -46.5t93.5 -16.5q60 0 102 47.5t74 139.5t63 225
l260 1120h261l-260 -1160q-38 -63 -87.5 -132.5t-109.5 -130.5t-131 -99.5t-152 -38.5zM440 1475v25h726v-25h-726z" />
    <glyph glyph-name="K" unicode="K" horiz-adv-x="1448" 
d="M276 434l1078 1064h36l-1077 -1064h-37zM-83 0v25h606v-25h-606zM645 0v25h678v-25h-678zM87 0l340 1500h262l-340 -1500h-262zM864 0l-251 759l211 195l333 -954h-293zM247 1475v25h618v-25h-618zM1089 1475v25h480v-25h-480z" />
    <glyph glyph-name="L" unicode="L" horiz-adv-x="1187" 
d="M77 0l348 1500h262l-348 -1500h-262zM-93 0v25h683q157 0 256.5 53.5t159 149t97.5 222.5h25l-104 -450h-1117zM245 1475v25h622v-25h-622z" />
    <glyph glyph-name="M" unicode="M" horiz-adv-x="1758" 
d="M649 -20l-236 1520h264l186 -1140l636 1140h27l-848 -1520h-29zM-53 0v25h321v-25h-321zM83 0l314 1475h-150v25h180l-318 -1500h-26zM1057 0v25h562v-25h-562zM1197 0l320 1500h382v-25h-126l-314 -1475h-262z" />
    <glyph glyph-name="N" unicode="N" horiz-adv-x="1479" 
d="M1089 -20l-632 1520h314l435 -1065l243 1065h26l-346 -1520h-40zM-73 0v25h452v-25h-452zM116 0l330 1475h-199v25h230l-335 -1500h-26zM1209 1475v25h464v-25h-464z" />
    <glyph glyph-name="O" unicode="O" horiz-adv-x="1474" 
d="M621 -20q-243 0 -378.5 143t-135.5 387q0 171 47 323.5t130.5 278t192 217t232.5 141.5t252 50q152 0 267.5 -64.5t181 -183.5t65.5 -282q0 -214 -69.5 -397.5t-190 -321t-274 -214.5t-320.5 -77zM621 3q88 0 164.5 51.5t140.5 141t114 205t84.5 243.5t52.5 257t18 245
q0 63 -11.5 125t-38.5 113t-72.5 82t-111.5 31q-83 0 -157.5 -51.5t-139 -141t-115.5 -205t-87 -243.5t-55.5 -257t-19.5 -245q0 -104 21.5 -183t72.5 -123.5t140 -44.5z" />
    <glyph glyph-name="P" unicode="P" horiz-adv-x="1287" 
d="M403 663l5 24h251q97 0 171.5 48.5t125 126t76 166.5t25.5 171q0 44 -8.5 92.5t-30 90t-60 67.5t-99.5 26h-176l-338 -1450h194v-25h-622v25h166l338 1450h-174v25h642q131 0 234.5 -34.5t164 -109.5t60.5 -195q0 -150 -81 -262t-229 -174t-349 -62h-286z" />
    <glyph glyph-name="Q" unicode="Q" horiz-adv-x="1456" 
d="M621 -20q-243 0 -378.5 143t-135.5 387q0 171 47 323.5t130.5 278t192 217t232.5 141.5t252 50q152 0 267.5 -64.5t181 -183.5t65.5 -282q0 -214 -69.5 -397.5t-190 -321t-274 -214.5t-320.5 -77zM913 -500q-211 0 -323.5 54.5t-138.5 166.5t24 285q72 -19 149.5 -18.5
t152.5 18.5q-37 -136 -44 -229t12.5 -148t62.5 -79.5t105 -24.5v-25zM621 3q88 0 164.5 51.5t140.5 141t114 205t84.5 243.5t52.5 257t18 245q0 62 -11.5 123.5t-38.5 113t-72.5 83t-111.5 31.5q-83 0 -157.5 -51.5t-139 -141t-115.5 -205t-87 -243.5t-55.5 -257t-19.5 -245
q0 -102 21.5 -181.5t72.5 -124.5t140 -45z" />
    <glyph glyph-name="R" unicode="R" horiz-adv-x="1492" 
d="M117 0l350 1500h262l-350 -1500h-262zM-77 0v25h676v-25h-676zM1141 -13q-97 0 -149.5 32.5t-72.5 87.5t-21 123.5t5.5 141.5t7 141.5t-17.5 123.5t-66 87.5t-140 32.5h-188v14h258q153 0 241 -40t128.5 -107t49.5 -146.5t3.5 -159t-9.5 -146t10 -107t64 -40.5q28 0 52 7
t47 16l8 -25q-54 -20 -100.5 -28t-109.5 -8zM499 767v16h236q84 0 148.5 29t111 77.5t76.5 108t44.5 122t14.5 118.5q0 37 -7 78.5t-28 77.5t-62.5 58.5t-109.5 22.5h-670v25h712q131 0 232 -29t158.5 -95t57.5 -176q0 -140 -78 -236.5t-223.5 -146.5t-346.5 -50h-266z" />
    <glyph glyph-name="S" unicode="S" horiz-adv-x="1156" 
d="M493 -29q-117 0 -198 36.5t-132 100.5t-78 146t-36 172h25q7 -82 31.5 -159t71.5 -137.5t121.5 -96.5t183.5 -36q103 0 185 39t129 108.5t47 161.5q0 87 -33.5 145.5t-88.5 99t-120.5 73t-131 66.5t-120.5 79.5t-88.5 112t-33.5 164.5q0 118 48.5 206t125 148t164.5 90
t166 30q128 0 216 -54t136 -152t57 -229h-25q-9 124 -52.5 215.5t-123.5 141.5t-198 50q-74 0 -143.5 -32t-114 -90.5t-44.5 -137.5q0 -76 33.5 -126.5t89 -87t121.5 -68.5t132.5 -68.5t122 -88.5t89 -128.5t33.5 -188.5q0 -105 -44.5 -197t-123 -161t-181 -108t-218.5 -39z
M-53 -20l102 446h25l9 -104q16 -58 35 -106.5t45 -88.5l-194 -147h-22zM1115 1085v79q-14 56 -31.5 109t-55.5 111l187 136h22l-97 -435h-25z" />
    <glyph glyph-name="T" unicode="T" horiz-adv-x="1323" 
d="M410 0l348 1500h262l-348 -1500h-262zM200 0v25h702v-25h-702zM147 1032l107 468h1270l-107 -468h-25q20 127 8.5 227t-66.5 158t-166 58h-578q-83 0 -148.5 -33.5t-115.5 -93.5t-88 -140.5t-66 -175.5h-25z" />
    <glyph glyph-name="U" unicode="U" horiz-adv-x="1409" 
d="M632 -29q-163 0 -275 54t-156.5 162.5t-6.5 272.5l240 1040h262l-240 -1020q-22 -94 -25.5 -179t19.5 -151.5t78.5 -104.5t151.5 -38q129 0 224.5 50.5t159.5 151.5t98 251l240 1040h26l-241 -1040q-36 -157 -106 -266.5t-180.5 -166t-268.5 -56.5zM244 1475v25h642v-25
h-642zM1200 1475v25h400v-25h-400z" />
    <glyph glyph-name="V" unicode="V" horiz-adv-x="1506" 
d="M567 -23l-190 1523h282l126 -1241l717 1241h28l-878 -1523h-85zM237 1475v25h652v-25h-652zM1257 1475v25h450v-25h-450z" />
    <glyph glyph-name="W" unicode="W" horiz-adv-x="2087" 
d="M1171 -20l-163 1520h265l123 -1188l694 1188h27l-887 -1520h-59zM572 -20l-163 1520h284l121 -1189l324 559h27l-516 -890h-77zM237 1475v25h1582v-25h-1582zM1236 834l389 666h27l-389 -666h-27zM1909 1475v25h386v-25h-386z" />
    <glyph glyph-name="X" unicode="X" horiz-adv-x="1515" 
d="M959 0l-512 1500h294l520 -1500h-302zM-103 0v25h480v-25h-480zM99 0l704 834h32l-703 -834h-33zM767 0v25h632v-25h-632zM307 1475v25h632v-25h-632zM799 754l612 742h31l-609 -742h-34zM1193 1475v25h440v-25h-440z" />
    <glyph glyph-name="Y" unicode="Y" horiz-adv-x="1482" 
d="M495 0l170 754l-288 746h296l251 -720l573 716h31l-607 -758l-164 -738h-262zM315 0v25h642v-25h-642zM237 1475v25h650v-25h-650zM1263 1475v25h420v-25h-420z" />
    <glyph glyph-name="Z" unicode="Z" horiz-adv-x="1166" 
d="M-103 0v25l1073 1450h-309q-137 0 -224 -38.5t-141 -113t-91 -181.5h-24l84 358h1032v-25l-1073 -1450h369q137 0 223 40.5t141 123.5t100 209h24l-92 -398h-1092z" />
    <glyph glyph-name="bracketleft" unicode="[" horiz-adv-x="711" 
d="M-20 -300l420 1861h522v-26h-289l-406 -1810h275v-25h-522z" />
    <glyph glyph-name="backslash" unicode="\" horiz-adv-x="1039" 
d="M793 -300l-434 1861h27l434 -1861h-27z" />
    <glyph glyph-name="bracketright" unicode="]" horiz-adv-x="691" 
d="M-191 -301v26h288l407 1810h-275v25h522l-420 -1861h-522z" />
    <glyph glyph-name="asciicircum" unicode="^" horiz-adv-x="1089" 
d="M440 1240l-20 20l340 280h131l218 -280l-18 -19l-275 204z" />
    <glyph glyph-name="underscore" unicode="_" horiz-adv-x="1119" 
d="M-10 -312v24h1140v-24h-1140z" />
    <glyph glyph-name="grave" unicode="`" horiz-adv-x="1000" 
d="M978 1683l-272 104q-35 11 -55 37.5t-22.5 58.5t13.5 58q11 17 31.5 28.5t45 13t49 -9.5t44.5 -38l179 -236z" />
    <glyph glyph-name="a" unicode="a" horiz-adv-x="1115" 
d="M311 -20q-135 0 -196 87.5t-61 237.5q0 115 42.5 227.5t114.5 204.5t159.5 147.5t176.5 55.5q67 0 105.5 -36t54.5 -96t16 -132q0 -57 -12.5 -130.5t-37.5 -151.5t-60.5 -151.5t-81.5 -133t-101 -94.5t-119 -35zM376 42q48 0 95 41t89 110t74 152.5t50.5 170t18.5 162.5
q0 61 -10.5 106.5t-34.5 71.5t-63 26q-45 0 -91 -45.5t-88 -119.5t-74.5 -163t-51.5 -178t-19 -163q0 -84 28 -127.5t77 -43.5zM762 -20q-81 0 -119.5 41t-38.5 107q0 19 1.5 33t3.5 24l28 148l49 155l27 165l65 267h229l-221 -831q-4 -16 -4 -32q0 -14 7.5 -24t26.5 -10
q38 0 77 27.5t80.5 92t87.5 176.5l24 -8q-46 -114 -92.5 -187t-102 -108.5t-128.5 -35.5z" />
    <glyph glyph-name="b" unicode="b" horiz-adv-x="1017" 
d="M386 -20q-81 0 -146 36t-113 95.5t-77 128.5l332 1235h-158v25h383l-361 -1343q0 -65 23.5 -106.5t85.5 -41.5q59 0 114 46t101.5 121.5t82 166.5t55 184t19.5 172q0 91 -30 140.5t-82 49.5q-54 0 -98.5 -40t-81 -107.5t-65.5 -148.5t-52 -163h-22q34 117 70 211
t79 160.5t98.5 101.5t126.5 35q130 0 204.5 -97t74.5 -254q0 -117 -44.5 -226t-123 -194.5t-180 -136t-215.5 -50.5z" />
    <glyph glyph-name="c" unicode="c" horiz-adv-x="927" 
d="M371 -20q-152 0 -233.5 86t-81.5 228q0 117 45.5 231.5t125.5 208t183 150t218 56.5q87 0 150 -32t98 -80t35 -96q0 -62 -37.5 -100t-92.5 -38q-48 0 -87 29t-39 90q0 53 36 88.5t86 35.5q33 0 63 -10.5t49.5 -33.5t19.5 -61h-22q0 43 -31.5 83t-82 66t-110.5 26
q-71 0 -132.5 -50t-110 -132t-83.5 -178.5t-53.5 -192t-18.5 -169.5q0 -79 36 -124.5t104 -45.5q82 0 154 35.5t130.5 94t101.5 127.5l22 -13q-43 -72 -106.5 -136t-147 -103.5t-188.5 -39.5z" />
    <glyph glyph-name="d" unicode="d" horiz-adv-x="1133" 
d="M762 -20q-81 0 -119.5 41t-38.5 107q0 11 1 26.5t4 30.5l28 148l58 165l10 121l230 856h-163v25h389l-375 -1411q-4 -15 -4 -31q0 -13 7.5 -24t26.5 -11q39 0 77.5 27t80 92t87.5 177l24 -8q-46 -114 -92.5 -187t-102 -108.5t-128.5 -35.5zM312 -20q-135 0 -196.5 87.5
t-61.5 237.5q0 115 42.5 227.5t114.5 204.5t159.5 147.5t176.5 55.5q66 0 104.5 -35t55 -95t16.5 -134q0 -57 -12.5 -130t-37 -151t-60 -152t-81.5 -133.5t-101 -94.5t-119 -35zM376 42q48 0 95.5 41t89 109.5t73.5 152.5t50.5 170.5t18.5 162.5q0 60 -10.5 106t-34.5 72
t-63 26q-45 0 -91 -45.5t-88 -119.5t-74.5 -163.5t-51.5 -178.5t-19 -162q0 -84 27 -127.5t78 -43.5z" />
    <glyph glyph-name="e" unicode="e" horiz-adv-x="962" 
d="M367 -20q-104 0 -173.5 41.5t-105 114t-35.5 164.5q0 120 44 234t123.5 206t185.5 146t229 54q128 0 199 -58.5t71 -144.5q0 -76 -49.5 -137t-137.5 -105t-203.5 -70t-247.5 -33v20q78 6 146.5 30.5t124 64.5t95 90t61 106.5t21.5 114.5q0 38 -15.5 67.5t-56.5 29.5
q-49 0 -96.5 -36.5t-90.5 -99t-78.5 -139.5t-62 -160.5t-40.5 -163t-14 -143.5q0 -90 38.5 -124.5t99.5 -34.5q77 0 147.5 32t131.5 90t109 136l22 -14q-44 -72 -107 -135.5t-146 -103t-189 -39.5z" />
    <glyph glyph-name="f" unicode="f" horiz-adv-x="755" 
d="M-152 -520q-84 0 -141 30t-86 76t-29 94q0 65 39.5 103t94.5 38t94 -34t39 -95q0 -40 -19.5 -69.5t-51 -45.5t-66.5 -16q-32 0 -61 15.5t-48 42t-19 61.5h23q0 -39 24.5 -79t72 -67t116.5 -27q60 0 101 36t70 100t51.5 149t44.5 182l242 1049q24 103 63 193t94.5 158.5
t132 107t175.5 38.5q84 0 141 -30t86 -75.5t29 -94.5q0 -63 -38 -102t-95 -39q-53 0 -94 34t-41 95q0 39 19 68t50.5 46t67.5 17q22 0 45 -9t42 -25t30.5 -37.5t11.5 -47.5h-23q0 39 -24 79t-71 67t-117 27q-59 0 -99 -36t-68 -100t-50.5 -149t-44.5 -183l-246 -1048
q-24 -103 -62.5 -193t-94.5 -158t-133 -107t-177 -39zM118 895v25h686v-25h-686z" />
    <glyph glyph-name="g" unicode="g" horiz-adv-x="1204" 
d="M296 -520q-140 0 -231 31t-134 85.5t-43 123.5q0 54 32.5 101t84 82.5t110 56t110.5 20.5h31q-56 -10 -98.5 -47t-67.5 -93t-25 -123q0 -98 61 -152.5t185 -54.5q109 0 206.5 26t172 72.5t116.5 107t42 128.5q0 57 -36.5 82.5t-102.5 25.5h-60h-94.5h-103.5h-90h-52
q-90 0 -158.5 24.5t-107.5 69.5t-39 106q0 53 30.5 95t82.5 72.5t119.5 46t142.5 15.5l-1 -15q-99 0 -149 -39.5t-50 -82.5q0 -40 28 -61t72 -29t91 -8q35 0 85.5 0.5t99.5 1t77 0.5q120 0 198.5 -51.5t78.5 -180.5q0 -109 -54 -191t-144 -136.5t-198.5 -81.5t-216.5 -27z
M514 320q-91 0 -163.5 33t-114 94t-41.5 146q0 96 58 174.5t154 125t207 46.5q92 0 164 -35t113.5 -98.5t41.5 -148.5q0 -95 -58 -171.5t-153 -121t-208 -44.5zM488 346q34 0 69 31.5t67 83.5t57 112.5t39.5 118.5t14.5 102q0 51 -22.5 85t-72.5 34q-34 0 -69 -31.5t-67 -83
t-57 -111.5t-39.5 -118.5t-14.5 -101.5q0 -51 23 -86t72 -35zM1061 930q62 0 104 -38.5t42 -102.5q0 -50 -30 -85.5t-82 -35.5q-45 0 -78 29.5t-33 78.5q0 44 29 71.5t68 31.5q27 -2 50 -16.5t34 -40.5q-9 39 -40.5 61t-72.5 22q-48 0 -88.5 -23.5t-76.5 -69.5t-69 -113
l-18 10q53 111 116 166t145 55z" />
    <glyph glyph-name="h" unicode="h" horiz-adv-x="1149" 
d="M23 0l395 1475h-156v25h386l-400 -1500h-225zM768 -20q-78 0 -123 38.5t-45 102.5q0 18 5 41.5t12 48.5l120 413q23 83 31.5 139t-4 84.5t-52.5 28.5t-94 -49t-110.5 -133.5t-106.5 -194.5t-83 -233h-15q22 84 58 177t83 181t103 159t118 113.5t128 42.5q84 0 130 -40.5
t55.5 -108t-14.5 -151.5l-154 -536q-2 -7 -3.5 -17.5t-1.5 -18.5q0 -37 34 -37q63 0 122 69t120 220l24 -8q-47 -119 -96 -191.5t-107.5 -106t-133.5 -33.5z" />
    <glyph glyph-name="i" unicode="i" horiz-adv-x="613" 
d="M238 -20q-89 0 -129.5 36.5t-40.5 97.5q0 22 4 43t8 37l197 701h-146v25h369l-230 -829q-2 -8 -3 -16.5t-1 -16.5q0 -14 7 -24.5t25 -10.5q40 0 79 27t80 92t88 177l24 -8q-46 -114 -92.5 -187t-103.5 -108.5t-135 -35.5zM481 1212q-42 0 -76 21t-53.5 55.5t-19.5 74.5
q0 41 19.5 75t53.5 54.5t76 20.5t76 -20.5t54.5 -54.5t20.5 -75q0 -40 -20.5 -74.5t-54.5 -55.5t-76 -21z" />
    <glyph glyph-name="j" unicode="j" horiz-adv-x="552" 
d="M-221 -520q-64 0 -116 23.5t-82.5 62.5t-30.5 87q0 43 18.5 74.5t49 48t67.5 16.5q57 0 95 -35t38 -93q0 -47 -34.5 -85t-95.5 -38q-54 0 -95 32t-41 80h23q0 -40 28 -74t75 -55t103 -21q70 0 116 53.5t78.5 146t61.5 210.5l242 982h-133v25h362l-242 -943
q-27 -104 -75.5 -194.5t-113 -158.5t-140 -106t-158.5 -38zM476 1219q-62 0 -106 44.5t-44 106.5q0 64 44 107t106 43q64 0 106.5 -43t42.5 -107q0 -62 -42.5 -106.5t-106.5 -44.5z" />
    <glyph glyph-name="k" unicode="k" horiz-adv-x="1049" 
d="M23 0l396 1475h-180v25h409l-412 -1500h-213zM662 -20q-70 0 -109.5 34t-39.5 102q0 15 3 34.5t8 34.5l26 103q10 42 24 90t17.5 91t-13 70.5t-65.5 27.5q-57 0 -90.5 -29.5t-52 -73t-30.5 -84.5h-15q22 87 53.5 132t71 61t83.5 16q54 0 101 -20t78.5 -61.5t41.5 -104.5
t-6 -151l-37 -166q-1 -5 -1.5 -11.5t-0.5 -9.5q0 -30 33 -30q35 0 75.5 29.5t83 94.5t84.5 170l24 -9q-67 -169 -149.5 -254.5t-197.5 -85.5zM438 461q-21 0 -39 5.5t-29 14.5l9 24q10 -10 24 -15t35 -5q39 0 67.5 33t53.5 86.5t51 115.5q44 102 101.5 160.5t146.5 58.5
q50 0 87 -22t57.5 -60t20.5 -85q0 -60 -38.5 -96.5t-89.5 -36.5q-53 0 -88.5 33t-35.5 91q0 51 34.5 85t85.5 34q28 0 58.5 -13.5t51 -38t20.5 -58.5h-24q0 40 -16.5 72.5t-48 52t-75.5 19.5q-76 0 -128.5 -53t-92.5 -149q-28 -65 -56 -123t-62 -94t-80 -36z" />
    <glyph glyph-name="l" unicode="l" horiz-adv-x="598" 
d="M222 -20q-89 0 -131 37t-42 97q0 25 4 45.5t8 34.5l346 1281h-179v25h403l-380 -1410q-2 -9 -3 -17.5t-1 -15.5q0 -34 33 -34q39 0 78 27.5t80.5 92t87.5 176.5l24 -8q-46 -114 -92.5 -187t-103 -108.5t-132.5 -35.5z" />
    <glyph glyph-name="m" unicode="m" horiz-adv-x="1654" 
d="M1278 -20q-89 0 -128 40.5t-39 104.5q0 22 4.5 45t9.5 41l119 405q38 130 40.5 196.5t-42.5 66.5q-50 0 -106 -52t-109.5 -139.5t-98.5 -197t-75 -224.5h-17q29 114 75.5 232.5t107.5 218.5t134.5 161t157.5 61q89 0 131 -41.5t46.5 -109.5t-18.5 -149l-158 -544
q-3 -10 -5 -22t-2 -22q0 -13 8 -21.5t24 -8.5q38 0 78 27t82.5 92t87.5 179l23 -8q-46 -119 -93 -191.5t-104 -106t-133 -33.5zM37 0l222 895h-134v25h360l-228 -920h-220zM567 0l155 616q32 132 38 198.5t-40 66.5q-50 0 -107.5 -52t-112.5 -140.5t-101.5 -198
t-76.5 -224.5h-17q30 113 77.5 231.5t110 218.5t138 161.5t159.5 61.5q81 0 122 -41.5t48.5 -109.5t-12.5 -149l-162 -639h-219z" />
    <glyph glyph-name="n" unicode="n" horiz-adv-x="1157" 
d="M767 -20q-84 0 -126 37t-42 106q0 21 5 43.5t10 39.5l126 418q23 78 32 134.5t-4 87t-54 30.5q-40 0 -94 -50t-110.5 -136t-106.5 -195.5t-81 -228.5h-18q22 83 57.5 175t83 180.5t104 160.5t118.5 114.5t126 42.5q85 0 131.5 -40.5t57 -108.5t-14.5 -151l-157 -536
q-3 -9 -4.5 -19t-1.5 -18q0 -16 7 -26t25 -10q66 0 125 69t120 220l23 -8q-46 -119 -95.5 -191.5t-108 -106t-133.5 -33.5zM30 0l230 895h-137v25h368l-238 -920h-223z" />
    <glyph glyph-name="o" unicode="o" horiz-adv-x="1017" 
d="M377 -20q-158 0 -239.5 86t-81.5 230q0 128 46 244t126 206t183 142t217 52q159 0 241.5 -88t82.5 -232q0 -127 -45.5 -242t-125 -205t-183.5 -141.5t-221 -51.5zM366 5q47 0 93 37.5t89 102t80 145.5t65 168.5t43.5 172t15.5 154.5q0 60 -27 95t-86 35q-46 0 -92.5 -38
t-89.5 -102t-80 -145t-65 -169t-43.5 -172t-15.5 -154q0 -60 27.5 -95t85.5 -35z" />
    <glyph glyph-name="p" unicode="p" horiz-adv-x="1114" 
d="M-74 -500l374 1395h-134v25h336l-83 -350l-45 -165l-10 -83l-218 -822h-220zM-219 -500v25h535v-25h-535zM471 38q45 0 91 45.5t88 119.5t74.5 164t51.5 180t19 165q0 77 -25.5 121.5t-77.5 44.5q-49 0 -96 -41t-89 -109.5t-74 -152.5t-50.5 -170.5t-18.5 -162.5
q0 -91 25 -147.5t82 -56.5zM520 -20q-67 0 -105.5 36t-54.5 96t-16 132q0 57 12.5 130t37 151t60 152t81.5 133.5t101 94.5t119 35q134 0 196 -87.5t62 -237.5q0 -115 -43 -227.5t-115 -204.5t-159 -147.5t-176 -55.5z" />
    <glyph glyph-name="q" unicode="q" horiz-adv-x="1028" 
d="M404 -500l223 823q16 42 36 91.5t31 93.5l6 89l81 303l227 40l-387 -1440h-217zM249 -500v25h546v-25h-546zM306 -20q-135 0 -196 87.5t-61 237.5q0 115 43 227.5t114.5 204.5t159 147.5t176.5 55.5q66 0 104.5 -35t55 -95t16.5 -134q0 -57 -12.5 -131t-37.5 -152
t-60.5 -151.5t-81.5 -132.5t-100.5 -94t-119.5 -35zM371 41q48 0 95 41t89 109.5t74 152.5t50.5 171t18.5 163q0 61 -10.5 106.5t-34.5 71.5t-63 26q-45 0 -91 -46t-87.5 -120.5t-74.5 -164.5t-52 -179.5t-19 -163.5q0 -77 27 -122t78 -45z" />
    <glyph glyph-name="r" unicode="r" horiz-adv-x="898" 
d="M30 0l226 895h-157v25h372l-223 -920h-218zM306 305q18 77 44.5 164t61.5 170t79 151t97.5 108.5t116.5 40.5q72 0 116 -41t44 -104q0 -59 -36 -100t-95 -41q-56 0 -93.5 36t-37.5 91q0 54 36.5 88.5t95.5 34.5q54 0 91 -29t37 -80l-24 1q0 52 -36 86t-98 34
q-59 0 -110 -40t-93.5 -106.5t-76.5 -147t-60 -163t-44 -153.5h-15z" />
    <glyph glyph-name="s" unicode="s" horiz-adv-x="866" 
d="M378 -20q-97 0 -177.5 28.5t-129 81.5t-48.5 127q0 54 34.5 93t92.5 39q52 0 86 -34t34 -90q0 -57 -36.5 -86.5t-85.5 -29.5q-34 0 -62 13t-44.5 37t-16.5 58h33q0 -67 42.5 -114.5t112.5 -72t152 -24.5q55 0 107 20.5t87 59t35 94.5q0 54 -32 95t-82.5 75t-107 66.5
t-107 69t-82.5 82.5t-32 107q0 76 45.5 136t127.5 95t190 35q103 0 170 -29.5t100 -74t33 -89.5q0 -60 -35 -90.5t-79 -30.5q-48 0 -86 31t-38 89q0 46 33 79t85 33q48 0 83 -31t35 -80h-28q0 42 -31 80t-88.5 62t-138.5 24q-52 0 -99.5 -17.5t-77.5 -51.5t-30 -82
q0 -50 32 -88t82.5 -70t107.5 -63.5t108 -69.5t83 -88t32 -120q0 -88 -53.5 -151.5t-142 -98t-193.5 -34.5z" />
    <glyph glyph-name="t" unicode="t" horiz-adv-x="677" 
d="M282 -20q-71 0 -114 20.5t-62 53.5t-19 68q0 21 6.5 52t14.5 61l237 885h220l-277 -1016q-3 -11 -6 -24t-3 -27q0 -34 50 -34q36 0 73.5 17.5t75.5 54.5t75 97t72 145l24 -7q-46 -113 -98.5 -190.5t-118 -116.5t-150.5 -39zM93 895v25h600v-25h-600z" />
    <glyph glyph-name="u" unicode="u" horiz-adv-x="1155" 
d="M254 -20q-91 0 -137 40.5t-53.5 109t13.5 152.5l154 613h-132v25h367l-161 -624q-21 -78 -29.5 -135t3.5 -87.5t55 -30.5q39 0 94 50t113.5 136t109 196t80.5 229h20q-20 -83 -57 -175.5t-85.5 -181t-106 -160.5t-120.5 -114.5t-128 -42.5zM777 -20q-89 0 -131.5 40.5
t-42.5 95.5q0 14 2.5 33.5t7.5 35.5l186 735h227l-222 -829q-2 -9 -3 -18t-1 -17q0 -32 30 -32q40 0 79.5 27t81 91.5t87.5 176.5l24 -8q-46 -114 -93 -187t-103 -108.5t-129 -35.5z" />
    <glyph glyph-name="v" unicode="v" horiz-adv-x="1052" 
d="M435 -20q-96 0 -157.5 32.5t-83.5 95.5t0 154l135 564q2 9 4 20t2 18q0 15 -8.5 24t-25.5 9q-30 0 -59.5 -17t-58.5 -51.5t-58.5 -88t-58.5 -127.5l-23 7q28 70 58 128.5t67 101t83 66t104 23.5q84 0 133 -45t49 -109q0 -22 -4 -43.5t-7 -38.5l-103 -440
q-20 -89 -26 -143t10.5 -78t64.5 -24q63 0 131 45t132 120.5t115 168.5t81.5 191.5t30.5 187.5q0 57 -18 97.5t-50 62.5t-73 22v23q41 0 73 -19t50.5 -51.5t18.5 -75.5q0 -59 -42 -99.5t-100 -40.5q-65 0 -103.5 39.5t-38.5 104.5q0 60 40.5 102t101.5 42q50 0 87.5 -25.5
t58 -72t20.5 -109.5q0 -91 -31.5 -194t-86.5 -201.5t-125.5 -179t-150 -128.5t-158.5 -48z" />
    <glyph glyph-name="w" unicode="w" horiz-adv-x="1513" 
d="M936 -20q-67 0 -122 21t-92 67.5t-49.5 122t6.5 185.5l135 544h220l-134 -548q-16 -63 -32 -127t-19.5 -117t19 -85.5t83.5 -32.5q96 0 174 54.5t136.5 142t98 188t59 194.5t19.5 159q0 71 -34 117.5t-91 47.5v23q43 0 74.5 -22t48 -55t16.5 -65q0 -68 -42 -106t-102 -38
q-61 0 -102.5 38.5t-41.5 100.5q0 64 42.5 106.5t106.5 42.5q66 0 109 -53.5t43 -136.5q0 -66 -19.5 -163.5t-60 -202t-103 -196t-149 -149t-197.5 -57.5zM339 -20q-94 0 -146.5 39.5t-64.5 107.5t17 155l184 540q3 9 6 20.5t3 20.5q0 31 -34 31q-49 0 -92 -34.5t-81.5 -100
t-74.5 -158.5l-24 8q38 100 83.5 174.5t106.5 115.5t146 41q83 0 128.5 -34t45.5 -89q0 -23 -4.5 -49t-11.5 -47l-161 -465q-41 -118 -34.5 -175t59.5 -57q57 0 107 42.5t92 117.5t77 175t63 215h20q-21 -86 -47 -171t-60 -161t-77 -135t-99 -93t-127 -34z" />
    <glyph glyph-name="x" unicode="x" horiz-adv-x="1094" 
d="M733 -20q-89 0 -139.5 49t-75.5 132q-19 64 -45.5 156t-56.5 191t-57 186t-47 141q-6 16 -15.5 34.5t-37.5 18.5q-26 0 -56.5 -23.5t-61.5 -69t-56 -112.5l-23 10q52 131 121 188.5t170 57.5q88 0 133 -49t70 -132q20 -67 45.5 -153t54.5 -179t58 -182t55 -161
q6 -16 19.5 -32t39.5 -16q22 0 52.5 22.5t61.5 66t54 106.5l23 -10q-52 -132 -125 -186t-161 -54zM110 -20q-60 0 -99 25.5t-57.5 64t-18.5 78.5q0 64 38.5 104t104.5 40t100 -42t34 -93q0 -34 -15.5 -63.5t-46 -48t-73.5 -18.5q-32 0 -64.5 15t-54 42.5t-21.5 63.5h23
q0 -56 40.5 -97.5t115.5 -41.5q37 0 69 15.5t57.5 39t43.5 46.5q29 35 55.5 77t60 103t80.5 152l25 -11q-42 -80 -85.5 -159.5t-92 -146t-103 -106t-116.5 -39.5zM575 478l-25 12q50 88 95.5 169t92 144.5t98.5 100t115 36.5q58 0 95.5 -23.5t55.5 -60.5t18 -75
q0 -63 -37 -102.5t-102 -39.5q-67 0 -100.5 43t-33.5 93q0 48 34.5 88t97.5 40q31 0 63 -17t54 -44.5t22 -60.5h-23q0 53 -39.5 92.5t-114.5 39.5q-37 0 -69 -16.5t-58 -40t-44 -46.5q-27 -35 -54 -77.5t-60.5 -103t-80.5 -151.5z" />
    <glyph glyph-name="y" unicode="y" horiz-adv-x="1108" 
d="M144 -520q-73 0 -126.5 30.5t-83 83.5t-29.5 122q0 40 18.5 75.5t51.5 58t77 22.5q31 0 62.5 -14.5t52.5 -43.5t21 -73q0 -60 -38.5 -97t-88.5 -37q-34 0 -69.5 13t-60 37t-24.5 59h24q0 -63 25.5 -110.5t73.5 -74.5t114 -27q80 0 172 54t186.5 145.5t185 205t169.5 235
t139.5 235.5t94.5 205t34 144q0 42 -16 85t-49.5 72t-87.5 29v23q45 0 80 -20t54.5 -51.5t19.5 -65.5q0 -39 -21 -70t-55 -48.5t-74 -17.5q-69 0 -110.5 40.5t-41.5 97.5t42 97t106 40q66 0 105.5 -33.5t56.5 -82.5t17 -94q0 -56 -34.5 -150.5t-95.5 -210.5t-141.5 -239
t-173 -239t-189.5 -208.5t-192.5 -147t-180.5 -54.5zM649 -159q-36 63 -73 150t-71.5 186t-66.5 199t-59.5 190t-49 159.5t-35.5 105.5q-6 16 -19 32t-45 16q-37 0 -83.5 -42t-87.5 -154l-24 10q33 90 76 144t98 78t121 24q103 0 151 -50.5t71 -129.5q20 -67 45 -159.5
t56.5 -193t70 -195t87.5 -166.5q-19 -27 -37.5 -51.5t-37.5 -48.5t-40.5 -49.5t-46.5 -54.5z" />
    <glyph glyph-name="z" unicode="z" horiz-adv-x="897" 
d="M-78 -2l463 454l467 469l-452 -443zM-63 -20l-16 19q100 81 181 134t147.5 78.5t123.5 25.5q45 0 77.5 -16.5t61 -37.5t60.5 -37.5t75 -16.5q49 0 84 35t53.5 86t18.5 100h24q-3 -31 -22.5 -55.5t-49.5 -38.5t-62 -14q-30 0 -58.5 15.5t-47 43t-18.5 63.5q0 57 39 90.5
t88 33.5q36 0 66 -15.5t48.5 -46.5t18.5 -76q0 -51 -24 -114t-67.5 -122t-101.5 -96.5t-126 -37.5q-50 0 -88.5 15t-74 35t-74 35t-88.5 15q-72 0 -136 -26t-112 -74zM49 520l99 419q54 -30 113 -47t115.5 -24.5t102.5 -7.5q36 0 86 4t102.5 12t97.5 23.5t71 39.5l18 -19
q-62 -49 -128 -97.5t-132.5 -87t-129 -62t-116.5 -23.5q-66 0 -126 24t-99 52l-49 -206h-25z" />
    <glyph glyph-name="braceleft" unicode="{" horiz-adv-x="603" 
d="M170 623v25q30 10 71.5 31t73 55.5t31.5 85.5q0 43 -6.5 74.5t-14.5 63.5t-14 75.5t-6 109.5q0 93 34.5 170t101 132t163 85.5t220.5 30.5v-34q-83 0 -144 -40t-94 -107.5t-33 -149.5q0 -56 5 -99.5t10.5 -93t5.5 -123.5q0 -69 -39 -120.5t-101 -86.5t-131.5 -56
t-132.5 -28zM404 -300q-137 0 -224 22.5t-128.5 75t-41.5 140.5q0 72 26.5 137t65 122.5t77 108.5t65 95.5t26.5 82.5q0 61 -27.5 87.5t-72.5 41.5v25q83 -10 144.5 -31.5t95.5 -64t34 -114.5q0 -75 -28.5 -144t-65.5 -132.5t-65.5 -122.5t-28.5 -115q0 -45 11 -86.5
t43 -68.5t94 -27v-32z" />
    <glyph glyph-name="bar" unicode="|" horiz-adv-x="459" 
d="M20 -500l480 2061h24l-481 -2061h-23z" />
    <glyph glyph-name="braceright" unicode="}" horiz-adv-x="603" 
d="M-80 -301v34q83 0 144 40t94 107.5t33 149.5q0 56 -5 99.5t-10.5 93t-5.5 123.5q0 69 39 120.5t100.5 86.5t132 56t132.5 28v-25q-30 -10 -71.5 -31t-73 -55.5t-31.5 -85.5q0 -43 6.5 -74.5t14.5 -63.5t14 -75.5t6 -109.5q0 -93 -34.5 -170t-101 -132t-163 -85.5
t-220.5 -30.5zM574 622q-83 10 -145 31.5t-95.5 64t-33.5 114.5q0 75 28.5 144t65.5 132.5t65.5 122.5t28.5 115q0 45 -11 86.5t-43 68.5t-94 27v32q137 0 224 -22.5t128.5 -75t41.5 -140.5q0 -72 -26.5 -137t-65 -122.5t-77 -108.5t-65 -95.5t-26.5 -82.5q0 -61 27.5 -87.5
t72.5 -41.5v-25z" />
    <glyph glyph-name="asciitilde" unicode="~" horiz-adv-x="1375" 
d="M992 668q-72 0 -122 19t-87.5 47t-70.5 56t-71 47t-90 19q-84 0 -137.5 -37.5t-81.5 -132.5h-36q23 115 68 193.5t110 118.5t150 40q66 0 111 -19t79 -47t65.5 -56t70 -47t95.5 -19q100 0 155.5 37.5t83.5 132.5h35q-23 -115 -67.5 -193.5t-109.5 -118.5t-150 -40z" />
    <glyph glyph-name="uni007F" 
 />
    <glyph glyph-name="uni00A0" unicode="&#xa0;" 
 />
    <glyph glyph-name="exclamdown" unicode="&#xa1;" horiz-adv-x="637" 
d="M130 -476q-66 0 -107 45t-33 111q8 68 36.5 149t68 171.5t82.5 185t81 190.5t63 188h22q-18 -90 -27.5 -175t-12.5 -166t-2.5 -159t2 -154t1.5 -152q0 -65 -20.5 -118t-59.5 -84.5t-94 -31.5zM415 751q-43 0 -78 20.5t-56 55.5t-21 78t21 78.5t56 56t78 20.5t78 -20.5
t55.5 -56t20.5 -78.5t-20.5 -78t-55.5 -55.5t-78 -20.5z" />
    <glyph glyph-name="cent" unicode="&#xa2;" horiz-adv-x="953" 
d="M371 -20q-152 0 -233.5 86t-81.5 228q0 117 45.5 231.5t125.5 208t183 150t218 56.5q87 0 150 -32t98 -80t35 -96q0 -62 -37.5 -100t-92.5 -38q-48 0 -87 29t-39 90q0 53 36 88.5t86 35.5q33 0 63 -10.5t49.5 -33.5t19.5 -61h-22q0 43 -31.5 83t-82 66t-110.5 26
q-71 0 -132.5 -50t-110 -132t-83.5 -178.5t-53.5 -192t-18.5 -169.5q0 -79 36 -124.5t104 -45.5q82 0 154 35.5t130.5 94t101.5 127.5l22 -13q-43 -72 -106.5 -136t-147 -103.5t-188.5 -39.5zM327 -170l340 1279h23l-340 -1279h-23z" />
    <glyph glyph-name="sterling" unicode="&#xa3;" horiz-adv-x="1267" 
d="M64 -40q-9 83 25 153t90.5 132.5t115 122t99 122t40.5 132.5q0 57 -15.5 118t-31 131t-15.5 155q0 113 50 203.5t138.5 156t206.5 100t254 34.5q141 0 231.5 -48.5t134.5 -126t44 -165.5q0 -50 -21.5 -85.5t-56 -55t-73.5 -19.5q-55 0 -102.5 37.5t-47.5 110.5
q0 44 22 75t56 48t72 17q46 0 78.5 -26.5t39.5 -57.5q-4 68 -44.5 129t-115 99t-180.5 38q-95 0 -166.5 -36.5t-118.5 -94t-71 -121.5t-24 -120q0 -66 10.5 -119t21 -111t10.5 -140q0 -84 -35.5 -149t-93 -118t-126 -98.5t-137 -89.5t-124 -92.5t-88 -107t-28.5 -133.5h-24z
M810 -61q-103 0 -179.5 18.5t-136 42.5t-108.5 42.5t-96 18.5q-64 0 -118.5 -28t-81.5 -73h-16q26 65 68 120.5t97.5 97t120 65t134.5 23.5q74 0 122 -10.5t86.5 -23.5t82.5 -23.5t110 -10.5q75 0 141.5 13t114.5 53t68 122h25q-15 -110 -54.5 -193.5t-98 -139.5t-130 -85
t-151.5 -29zM130 785v26h960v-26h-960z" />
    <glyph glyph-name="currency" unicode="&#xa4;" horiz-adv-x="1140" 
d="M365 310q-141 0 -229.5 63t-120.5 167.5t-3 229.5t109 229.5t197.5 167t258.5 62.5t229 -62.5t119.5 -167t2.5 -229.5t-108.5 -229.5t-196.5 -167.5t-258 -63zM-122 275l-12 18l212 172l14 -18zM832 275l-132 172l23 18l131 -171zM371 338q133 0 242.5 59.5t183.5 158
t101 214.5t-2 214.5t-111 157.5t-215 59q-132 0 -242 -59t-184.5 -157.5t-102.5 -214.5q-26 -116 3.5 -214.5t112 -158t214.5 -59.5zM218 1074l-133 172l23 19l132 -173zM863 1075l-14 18l212 171l14 -18z" />
    <glyph glyph-name="yen" unicode="&#xa5;" horiz-adv-x="1482" 
d="M495 0l170 754l-288 746h296l251 -720l573 716h31l-607 -758l-164 -738h-262zM315 0v25h642v-25h-642zM286 329v24h880v-24h-880zM286 630v24h880v-24h-880zM237 1475v25h650v-25h-650zM1263 1475v25h420v-25h-420z" />
    <glyph glyph-name="brokenbar" unicode="&#xa6;" horiz-adv-x="439" 
d="M13 -500l192 832h23l-191 -832h-24zM317 818l172 743h24l-172 -743h-24z" />
    <glyph glyph-name="section" unicode="&#xa7;" horiz-adv-x="947" 
d="M364 -20q-88 0 -170.5 29.5t-136 91t-53.5 157.5q0 66 44 118t113 52q54 0 90.5 -32t36.5 -90q0 -57 -41 -93.5t-101 -36.5q-41 0 -71 18t-40 46q4 -81 51.5 -133t121.5 -77t156 -25q101 0 166.5 37t97.5 89t32 97q0 56 -37.5 91.5t-97 60.5t-126.5 49t-126 54.5
t-96.5 77t-37.5 117.5q0 54 26 103.5t67 91t85 73t79 48.5l22 -4q-15 -11 -34.5 -33.5t-34 -54.5t-14.5 -72q0 -60 35.5 -96.5t91 -61.5t118 -48.5t118 -57t91 -86.5t35.5 -138q0 -78 -37.5 -144t-102 -115t-147 -76t-173.5 -27zM658 514l-22 7q31 22 59.5 47.5t47 57.5
t18.5 72q0 53 -34.5 85.5t-89 56t-115.5 47.5t-115.5 58t-89 89t-34.5 141q0 78 36 141.5t96.5 109t134 70t149.5 24.5q98 0 169 -38t109.5 -98t38.5 -126q0 -91 -39.5 -134.5t-100.5 -43.5q-54 0 -90 33.5t-36 96.5q0 52 39.5 87t90.5 35q44 0 69.5 -19t34.5 -33
q-3 50 -35 99.5t-94 82.5t-157 33q-72 0 -131 -29t-94 -78.5t-35 -110.5q0 -55 36 -90t92.5 -60.5t119.5 -51t119.5 -58t92.5 -82t36 -125.5q0 -58 -28 -103t-71 -79t-90.5 -61.5t-86.5 -52.5z" />
    <glyph glyph-name="dieresis" unicode="&#xa8;" horiz-adv-x="1000" 
d="M992 1688q-49 0 -83.5 34t-34.5 83t34.5 83.5t83.5 34.5t83 -34.5t34 -83.5t-34 -83t-83 -34zM630 1688q-49 0 -83.5 34t-34.5 83t34.5 83.5t83.5 34.5t83 -34.5t34 -83.5t-34 -83t-83 -34z" />
    <glyph glyph-name="copyright" unicode="&#xa9;" horiz-adv-x="1739" 
d="M840 -20q-193 0 -344.5 77t-238.5 218t-87 334q0 140 49.5 273.5t136.5 248.5t202.5 202.5t248.5 137t273 49.5q193 0 344.5 -77t238.5 -218t87 -334q0 -140 -49.5 -273.5t-136.5 -248.5t-202.5 -202.5t-248.5 -137t-273 -49.5zM1140 300l-58 82q25 24 50 52t49 70l23 53
h14l-66 -257h-12zM842 288q-146 0 -235 85.5t-89 232.5q0 123 41.5 232.5t115 193.5t169 132t203.5 48q111 0 180 -70t64 -199h-9q1 88 -29 142.5t-79 80.5t-104 26q-74 0 -134.5 -43.5t-106 -115.5t-77 -160t-47.5 -178t-16 -168q0 -59 17 -109t54.5 -80.5t99.5 -30.5
q75 0 140.5 33t117 90t86.5 127h8q-31 -74 -85 -135t-127 -97.5t-158 -36.5zM840 5q135 0 264.5 48t241.5 133t197.5 197t133.5 242t48 266q0 185 -83.5 320.5t-229.5 209.5t-332 74q-135 0 -264.5 -48t-241.5 -133t-197.5 -197t-133.5 -242t-48 -266q0 -186 83.5 -321.5
t229 -209t332.5 -73.5zM1282 943l2 47q-5 38 -14.5 67.5t-27.5 57.5l101 85h14l-60 -257h-15z" />
    <glyph glyph-name="ordfeminine" unicode="&#xaa;" horiz-adv-x="705" 
d="M639 952q-81 0 -118 52.5t-37 142.5q0 69 26 136.5t69 123t95.5 88.5t105.5 33q41 0 63.5 -21.5t32.5 -57.5t10 -80q0 -40 -11 -94.5t-32 -110.5t-51 -104.5t-68.5 -78t-84.5 -29.5zM678 989q36 0 70.5 37.5t62.5 96.5t45.5 125t17.5 123q0 54 -15 88t-50 34
q-34 0 -68 -41t-63 -104.5t-46.5 -132t-17.5 -123.5q0 -51 17 -77t47 -26zM910 952q-50 0 -72.5 24.5t-22.5 64.5q0 10 0.5 19t2.5 15l16 89l30 93l16 99l39 160h137l-132 -499q-3 -9 -3 -19q0 -20 20 -20q23 0 46.5 16.5t48.5 55t53 105.5l14 -4q-41 -103 -84.5 -151
t-108.5 -48z" />
    <glyph glyph-name="guillemotleft" unicode="&#xab;" horiz-adv-x="1389" 
d="M1270 290l-560 460v50l780 460l13 -13l-481 -472l261 -472zM710 290l-560 460v50l780 460l13 -13l-481 -472l261 -472z" />
    <glyph glyph-name="logicalnot" unicode="&#xac;" horiz-adv-x="971" 
d="M827 406v354h-707v25h732v-379h-25z" />
    <glyph glyph-name="uni00AD" unicode="&#xad;" horiz-adv-x="919" 
d="M800 453h-700v26h700v-26z" />
    <glyph glyph-name="registered" unicode="&#xae;" horiz-adv-x="1739" 
d="M840 -20q-193 0 -344.5 77t-238.5 218t-87 334q0 140 49.5 273.5t136.5 248.5t202.5 202.5t248.5 137t273 49.5q193 0 344.5 -77t238.5 -218t87 -334q0 -140 -49.5 -273.5t-136.5 -248.5t-202.5 -202.5t-248.5 -137t-273 -49.5zM452 296v15h406v-15h-406zM568 296
l210 900h158l-210 -900h-158zM1183 288q-67 0 -99 25t-40.5 66.5t-6 90.5t5.5 98.5t-4 91t-36.5 66.5t-92.5 25h-112v8h154q108 0 162.5 -32.5t74 -83.5t18.5 -108t-6 -108t1.5 -83.5t41.5 -32.5q18 0 32 4t28 10l5 -15q-32 -12 -60.5 -17t-65.5 -5zM840 5q135 0 264.5 48
t241.5 133t197.5 197t133.5 242t48 266q0 185 -83.5 320.5t-229.5 209.5t-332 74q-135 0 -264.5 -48t-241.5 -133t-197.5 -197t-133.5 -242t-48 -266q0 -186 83.5 -321.5t229 -209t332.5 -73.5zM798 756v9h141q63 0 107.5 26.5t73.5 68.5t42.5 89.5t13.5 89.5q0 29 -8 62
t-34.5 56.5t-81.5 23.5h-402v15h427q79 0 139.5 -17.5t95 -57t34.5 -105.5q0 -126 -104 -193t-285 -67h-159z" />
    <glyph glyph-name="macron" unicode="&#xaf;" horiz-adv-x="1000" 
d="M549 1700v25h480v-25h-480z" />
    <glyph glyph-name="degree" unicode="&#xb0;" horiz-adv-x="639" 
d="M628 1120q-66 0 -120.5 32.5t-86.5 86.5t-32 120t32 121t86.5 87.5t120.5 32.5t120.5 -32.5t87 -87.5t32.5 -121t-32.5 -120t-87 -86.5t-120.5 -32.5zM628 1196q70 0 117 46.5t47 116.5q0 71 -47 118t-117 47t-117 -47t-47 -118q0 -70 47 -116.5t117 -46.5z" />
    <glyph glyph-name="plusminus" unicode="&#xb1;" horiz-adv-x="1059" 
d="M119 9v24h820v-24h-820zM517 361v819h25v-819h-25zM120 760v24h819v-24h-819z" />
    <glyph glyph-name="uni00B2" unicode="&#xb2;" horiz-adv-x="939" 
d="M379 914l23 103l321 243q60 44 111 104t82 129t31 138q0 46 -13 84.5t-42.5 61.5t-78.5 23q-46 0 -92 -19.5t-83.5 -54t-60 -79.5t-22.5 -95h-14q0 30 31 54t68 24q35 0 62 -21.5t27 -61.5q0 -43 -27.5 -70t-68.5 -27q-38 0 -65.5 26.5t-27.5 75.5q0 71 42.5 133.5
t117 101.5t168.5 39q73 0 127.5 -23.5t84.5 -65.5t30 -99q0 -50 -30 -96t-75.5 -86t-91.5 -72.5t-78 -55.5l-340 -263h491l20 90h15l-54 -241h-588z" />
    <glyph glyph-name="uni00B3" unicode="&#xb3;" horiz-adv-x="899" 
d="M582 902q-85 0 -140 29t-82 73t-27 90q0 44 26 69.5t64 25.5q34 0 58 -22.5t24 -62.5q0 -35 -26 -58t-60 -23q-33 0 -59 21t-26 50h14q0 -50 29 -89.5t76.5 -62.5t104.5 -23q59 0 101 24t69 64.5t40 89t13 97.5q0 44 -11 90.5t-49 78t-118 31.5v10q129 0 203 -28
t105 -77.5t31 -115.5q0 -64 -30.5 -115.5t-82.5 -88.5t-115.5 -57t-131.5 -20zM603 1399v10q69 0 115.5 27.5t74.5 69.5t40 85.5t12 75.5q0 63 -28 101t-101 38q-42 0 -88.5 -20t-79 -56t-32.5 -84h-14q0 34 28 53.5t58 19.5q33 0 59.5 -21.5t26.5 -59.5q0 -43 -28.5 -64
t-57.5 -21q-34 0 -61 24.5t-27 68.5q0 49 36 89.5t92.5 65t119.5 24.5q67 0 126 -16.5t95 -55t36 -104.5q0 -60 -42.5 -117.5t-132 -95t-227.5 -37.5z" />
    <glyph glyph-name="acute" unicode="&#xb4;" horiz-adv-x="1000" 
d="M639 1683l-13 16l178 236q20 27 44.5 38t49 9.5t45 -13t31.5 -28.5q17 -26 14 -58t-23 -58.5t-55 -37.5z" />
    <glyph glyph-name="uni00B5" unicode="&#xb5;" horiz-adv-x="1155" 
d="M1078 319l24 -8q-46 -114 -93 -187t-103 -108.5t-129 -35.5q-89 0 -131.5 40.5t-42.5 95.5q0 15 3 34.5t7 35.5l73 287q-35 -87 -82 -174t-104 -159.5t-119.5 -116t-126.5 -43.5q-69 0 -109 24.5t-56.5 68.5t-14.5 101l-104 -416q-20 -78 1 -132t69 -83.5t110 -35.5
q-30 12 -52.5 47.5t-22.5 83.5q0 60 44 103t102 43q59 0 100 -42.5t41 -106.5q0 -65 -43.5 -110t-137.5 -45q-56 0 -106 18t-85.5 53t-48.5 87t4 120l286 1137h-132v25h367l-161 -624q-21 -78 -29.5 -135t3.5 -87.5t55 -30.5q38 0 91.5 47.5t110.5 129.5t106.5 187t81.5 220
l75 293h227l-222 -829q-2 -9 -3 -18t-1 -17q0 -32 30 -32q40 0 79.5 27t81 91.5t87.5 176.5z" />
    <glyph glyph-name="paragraph" unicode="&#xb6;" horiz-adv-x="1279" 
d="M336 -300v25h204l216 934h-150q-87 0 -166 18.5t-139.5 57t-95.5 98t-35 141.5q0 122 49 219t136.5 165.5t203 105t248.5 36.5h511v-25h-196l-403 -1750h194v-25h-577zM565 -275h129l403 1750h-128z" />
    <glyph glyph-name="periodcentered" unicode="&#xb7;" horiz-adv-x="395" 
d="M361 680q-43 0 -78.5 21t-57 57t-21.5 78q0 43 21.5 78.5t57 57t78.5 21.5t78 -21.5t56 -57t21 -78.5t-21 -78.5t-56 -56.5t-78 -21z" />
    <glyph glyph-name="cedilla" unicode="&#xb8;" horiz-adv-x="1000" 
d="M122 -509v24q85 0 145.5 39t60.5 115q0 59 -49 81t-138 22l225 238h32l-149 -158q80 -1 142 -15t97.5 -46t35.5 -85q0 -64 -53 -113t-144 -75.5t-205 -26.5z" />
    <glyph glyph-name="uni00B9" unicode="&#xb9;" horiz-adv-x="1059" 
d="M569 912l200 885h-138v15h300l-204 -900h-158zM440 912v15h421v-15h-421z" />
    <glyph glyph-name="ordmasculine" unicode="&#xba;" horiz-adv-x="1017" 
d="M674 950q-95 0 -143.5 51.5t-48.5 137.5q0 77 27.5 146.5t75.5 124t109.5 85.5t130.5 31q95 0 144.5 -53t49.5 -139q0 -101 -47 -188.5t-125.5 -141.5t-172.5 -54zM667 964q34 0 67 32.5t63 84.5t52.5 114.5t36 124.5t13.5 113q0 36 -16 57t-51 21q-34 0 -67 -32
t-63 -84.5t-53 -114.5t-36 -124.5t-13 -113.5q0 -36 16.5 -57t50.5 -21z" />
    <glyph glyph-name="guillemotright" unicode="&#xbb;" horiz-adv-x="1389" 
d="M660 290l-13 13l481 472l-261 472l13 13l560 -460v-50zM100 290l-13 13l481 472l-261 472l13 13l560 -460v-50z" />
    <glyph glyph-name="onequarter" unicode="&#xbc;" horiz-adv-x="1281" 
d="M-34 -200l1283 1500h22l-1282 -1500h-23zM360 1612h300l-202 -885h132v-15h-421v15h132l197 870h-138v15zM1081 694h142l-146 -635h131v-14h-135l-54 -236h99v-15h-361v15h105l53 236h-397zM1044 629l-493 -570h367z" />
    <glyph glyph-name="onehalf" unicode="&#xbd;" horiz-adv-x="1339" 
d="M-34 -200l1283 1500h22l-1282 -1500h-23zM169 712v15h421v-15h-421zM659 -202l23 103l321 243q60 44 111 104t82 129t31 138q0 46 -13 84.5t-42.5 61.5t-78.5 23q-46 0 -92 -19.5t-83.5 -54t-60 -79.5t-22.5 -95h-14q0 30 31 54t68 24q35 0 62 -21.5t27 -61.5
q0 -43 -27.5 -70t-68.5 -27q-38 0 -65.5 26.5t-27.5 75.5q0 71 42.5 133.5t117 101.5t168.5 39q73 0 127.5 -23.5t84.5 -65.5t30 -99q0 -50 -30 -96t-75.5 -86t-91.5 -72.5t-78 -55.5l-340 -263h491l20 90h15l-54 -241h-588zM298 712l200 885h-138v15h300l-204 -900h-158z
" />
    <glyph glyph-name="threequarters" unicode="&#xbe;" horiz-adv-x="1401" 
d="M86 -200l1283 1500h24l-1284 -1500h-23zM877 -206v15h361v-15h-361zM979 -206l185 835l-493 -570h657v-14h-690l563 649h142l-207 -900h-157zM422 696q-85 0 -140 29t-82 73t-27 90q0 44 26 69.5t64 25.5q34 0 58 -22.5t24 -62.5q0 -35 -26 -58t-60 -23q-33 0 -59 21
t-26 50h14q0 -50 29 -89.5t76.5 -62.5t104.5 -23q59 0 101 24t69 64.5t40 89t13 97.5q0 44 -11 90.5t-49 78t-118 31.5v10q129 0 203 -27.5t105 -77.5t31 -116q0 -64 -30.5 -115.5t-82.5 -88.5t-115.5 -57t-131.5 -20zM443 1193v10q69 0 115.5 27.5t74.5 69.5t40 85.5
t12 75.5q0 63 -28 101t-101 38q-42 0 -88.5 -20t-79 -56t-32.5 -84h-14q0 34 28 53.5t58 19.5q33 0 59.5 -21.5t26.5 -59.5q0 -43 -28.5 -64t-57.5 -21q-34 0 -61 24.5t-27 68.5q0 49 36 89.5t92.5 65t119.5 24.5q67 0 126 -16.5t95 -55t36 -104.5q0 -60 -42.5 -117
t-132 -95t-227.5 -38z" />
    <glyph glyph-name="questiondown" unicode="&#xbf;" horiz-adv-x="1147" 
d="M479 -480q-96 0 -179.5 21t-146.5 63t-98 105.5t-35 147.5q0 90 38.5 164.5t104 131.5t148 98t171.5 64t174 28l49 237h25l-55 -255q-107 -31 -194.5 -103t-140 -173t-52.5 -219q0 -78 15 -142.5t61 -102.5t140 -38q76 0 146.5 27.5t126.5 74.5t89 105t33 119h23
q0 -36 -20 -64t-51.5 -44t-67.5 -16t-68.5 17t-52.5 47.5t-20 71.5q0 46 22 77t54.5 46t64.5 15q38 0 69.5 -18t51.5 -51.5t20 -80.5q0 -63 -34.5 -126t-96 -114t-142 -82t-172.5 -31zM759 747q-43 0 -78 21.5t-56 57t-21 78.5t21 78.5t56 56.5t78 21t78.5 -21t57 -56.5
t21.5 -78.5t-21.5 -78.5t-57 -57t-78.5 -21.5z" />
    <glyph glyph-name="Agrave" unicode="&#xc0;" horiz-adv-x="1506" 
d="M1143 1683l-272 104q-35 11 -55 37.5t-22.5 58.5t13.5 58q11 17 31.5 28.5t45 13t49 -9.5t44.5 -38l179 -236zM71 0l882 1529h84l190 -1529h-282l-128 1248l-718 -1248h-28zM-93 0v25h440v-25h-440zM715 0v25h652v-25h-652zM370 477v25h657v-25h-657z" />
    <glyph glyph-name="Aacute" unicode="&#xc1;" horiz-adv-x="1506" 
d="M896 1683l-13 16l178 236q20 27 44.5 38t49 9.5t45 -13t31.5 -28.5q17 -26 14 -58t-23 -58.5t-55 -37.5zM71 0l882 1529h84l190 -1529h-282l-128 1248l-718 -1248h-28zM-93 0v25h440v-25h-440zM715 0v25h652v-25h-652zM370 477v25h657v-25h-657z" />
    <glyph glyph-name="Acircumflex" unicode="&#xc2;" horiz-adv-x="1506" 
d="M704 1705l-14 14l282 250h154l195 -250l-15 -15l-261 145zM71 0l882 1529h84l190 -1529h-282l-128 1248l-718 -1248h-28zM-93 0v25h440v-25h-440zM715 0v25h652v-25h-652zM370 477v25h657v-25h-657z" />
    <glyph glyph-name="Atilde" unicode="&#xc3;" horiz-adv-x="1506" 
d="M1200 1662q-59 0 -104 24t-83.5 55t-76.5 55t-83 24q-52 0 -87 -26.5t-64 -93.5h-25q20 85 59 146t91 93.5t110 32.5q53 0 96 -24t81 -55t74 -55t75 -24q53 0 88 27t64 93h25q-20 -95 -54.5 -155t-81 -88.5t-104.5 -28.5zM71 0l882 1529h84l190 -1529h-282l-128 1248
l-718 -1248h-28zM-93 0v25h440v-25h-440zM715 0v25h652v-25h-652zM370 477v25h657v-25h-657z" />
    <glyph glyph-name="Adieresis" unicode="&#xc4;" horiz-adv-x="1506" 
d="M1177 1688q-49 0 -83.5 34t-34.5 83t34.5 83.5t83.5 34.5t83 -34.5t34 -83.5t-34 -83t-83 -34zM815 1688q-49 0 -83.5 34t-34.5 83t34.5 83.5t83.5 34.5t83 -34.5t34 -83.5t-34 -83t-83 -34zM71 0l882 1529h84l190 -1529h-282l-128 1248l-718 -1248h-28zM-93 0v25h440
v-25h-440zM715 0v25h652v-25h-652zM370 477v25h657v-25h-657z" />
    <glyph glyph-name="Aring" unicode="&#xc5;" horiz-adv-x="1506" 
d="M1008 1680q-85 0 -140 51.5t-55 127.5q0 77 55 129t140 52q86 0 140.5 -52t54.5 -129q0 -76 -54.5 -127.5t-140.5 -51.5zM994 1702q24 0 44 21.5t34.5 54.5t22.5 68.5t8 63.5q0 47 -18.5 77t-62.5 30q-24 0 -44 -21.5t-34 -54.5t-22 -68.5t-8 -64.5q0 -47 18.5 -76.5
t61.5 -29.5zM71 0l882 1529h84l190 -1529h-282l-128 1248l-718 -1248h-28zM-93 0v25h440v-25h-440zM715 0v25h652v-25h-652zM370 477v25h657v-25h-657z" />
    <glyph glyph-name="AE" unicode="&#xc6;" horiz-adv-x="2064" 
d="M82 0l1205 1500h30l-1203 -1500h-32zM-62 0v25h441v-25h-441zM514 501l1 25h582v-25h-583zM788 0v25h675q137 0 242 53.5t176.5 149t108.5 222.5h25l-105 -450h-1122zM959 0l347 1500h262l-348 -1500h-261zM1652 539q7 67 -10 117.5t-55 78.5t-95 28h-133v25h133
q57 0 109.5 26t94 74.5t63.5 115.5h25l-108 -465h-24zM2118 1090q18 107 -11.5 194.5t-104 139t-191.5 51.5h-466v25h894l-96 -410h-25z" />
    <glyph glyph-name="Ccedilla" unicode="&#xc7;" horiz-adv-x="1371" 
d="M414 -509v24q85 0 145.5 39t60.5 115q0 59 -49 81t-138 22l225 238h32l-149 -158q80 -1 142 -15t97.5 -46t35.5 -85q0 -64 -53 -113t-144 -75.5t-205 -26.5zM647 -20q-162 0 -283.5 64.5t-189 183.5t-67.5 282q0 205 69.5 387.5t192 322.5t281.5 220t339 80
q124 0 217.5 -52.5t144 -152.5t45.5 -243h-15q2 109 -27 187.5t-79.5 129t-114.5 74.5t-133 24q-103 0 -189.5 -51.5t-157 -139.5t-124.5 -200.5t-90 -237t-54.5 -248t-18.5 -232.5q0 -99 28 -182t90.5 -133.5t166.5 -50.5q125 0 233.5 55t195 149.5t143.5 211.5h15
q-52 -123 -142.5 -225t-211.5 -162.5t-264 -60.5zM1143 0l-95 138q41 39 83.5 85.5t81.5 115.5l37 89h25l-110 -428h-22zM1381 1072l3 78q-8 63 -23.5 112.5t-46.5 95.5l169 142h22l-99 -428h-25z" />
    <glyph glyph-name="Egrave" unicode="&#xc8;" horiz-adv-x="1208" 
d="M1040 1683l-272 104q-35 11 -55 37.5t-22.5 58.5t13.5 58q11 17 31.5 28.5t45 13t49 -9.5t44.5 -38l179 -236zM77 0l348 1500h262l-348 -1500h-262zM-93 0v25h702q137 0 235 53.5t163 149t103 222.5h25l-104 -450h-1124zM790 538q5 67 -16.5 118t-63.5 79t-99 28h-136v25
h136q57 0 113.5 26t102.5 74.5t70 115.5h24l-107 -466h-24zM1238 1090q16 107 -7 194.5t-90 139t-184 51.5h-712v25h1114l-96 -410h-25z" />
    <glyph glyph-name="Eacute" unicode="&#xc9;" horiz-adv-x="1208" 
d="M793 1683l-13 16l178 236q20 27 44.5 38t49 9.5t45 -13t31.5 -28.5q17 -26 14 -58t-23 -58.5t-55 -37.5zM77 0l348 1500h262l-348 -1500h-262zM-93 0v25h702q137 0 235 53.5t163 149t103 222.5h25l-104 -450h-1124zM790 538q5 67 -16.5 118t-63.5 79t-99 28h-136v25h136
q57 0 113.5 26t102.5 74.5t70 115.5h24l-107 -466h-24zM1238 1090q16 107 -7 194.5t-90 139t-184 51.5h-712v25h1114l-96 -410h-25z" />
    <glyph glyph-name="Ecircumflex" unicode="&#xca;" horiz-adv-x="1208" 
d="M601 1705l-14 14l282 250h154l195 -250l-15 -15l-261 145zM77 0l348 1500h262l-348 -1500h-262zM-93 0v25h702q137 0 235 53.5t163 149t103 222.5h25l-104 -450h-1124zM790 538q5 67 -16.5 118t-63.5 79t-99 28h-136v25h136q57 0 113.5 26t102.5 74.5t70 115.5h24
l-107 -466h-24zM1238 1090q16 107 -7 194.5t-90 139t-184 51.5h-712v25h1114l-96 -410h-25z" />
    <glyph glyph-name="Edieresis" unicode="&#xcb;" horiz-adv-x="1208" 
d="M1074 1688q-49 0 -83.5 34t-34.5 83t34.5 83.5t83.5 34.5t83 -34.5t34 -83.5t-34 -83t-83 -34zM712 1688q-49 0 -83.5 34t-34.5 83t34.5 83.5t83.5 34.5t83 -34.5t34 -83.5t-34 -83t-83 -34zM77 0l348 1500h262l-348 -1500h-262zM-93 0v25h702q137 0 235 53.5t163 149
t103 222.5h25l-104 -450h-1124zM790 538q5 67 -16.5 118t-63.5 79t-99 28h-136v25h136q57 0 113.5 26t102.5 74.5t70 115.5h24l-107 -466h-24zM1238 1090q16 107 -7 194.5t-90 139t-184 51.5h-712v25h1114l-96 -410h-25z" />
    <glyph glyph-name="Igrave" unicode="&#xcc;" horiz-adv-x="768" 
d="M790 1683l-272 104q-35 11 -55 37.5t-22.5 58.5t13.5 58q11 17 31.5 28.5t45 13t49 -9.5t44.5 -38l179 -236zM137 0l340 1500h262l-340 -1500h-262zM-83 0v25h712v-25h-712zM247 1475v25h712v-25h-712z" />
    <glyph glyph-name="Iacute" unicode="&#xcd;" horiz-adv-x="768" 
d="M543 1683l-13 16l178 236q20 27 44.5 38t49 9.5t45 -13t31.5 -28.5q17 -26 14 -58t-23 -58.5t-55 -37.5zM137 0l340 1500h262l-340 -1500h-262zM-83 0v25h712v-25h-712zM247 1475v25h712v-25h-712z" />
    <glyph glyph-name="Icircumflex" unicode="&#xce;" horiz-adv-x="768" 
d="M351 1705l-14 14l282 250h154l195 -250l-15 -15l-261 145zM137 0l340 1500h262l-340 -1500h-262zM-83 0v25h712v-25h-712zM247 1475v25h712v-25h-712z" />
    <glyph glyph-name="Idieresis" unicode="&#xcf;" horiz-adv-x="768" 
d="M824 1688q-49 0 -83.5 34t-34.5 83t34.5 83.5t83.5 34.5t83 -34.5t34 -83.5t-34 -83t-83 -34zM462 1688q-49 0 -83.5 34t-34.5 83t34.5 83.5t83.5 34.5t83 -34.5t34 -83.5t-34 -83t-83 -34zM137 0l340 1500h262l-340 -1500h-262zM-83 0v25h712v-25h-712zM247 1475v25h712
v-25h-712z" />
    <glyph glyph-name="Eth" unicode="&#xd0;" horiz-adv-x="1464" 
d="M136 718v24h646v-24h-646zM-73 0v25h618q102 0 188.5 50.5t156.5 137t123 196t88.5 229t54 235.5t18.5 215q0 69 -14 137.5t-47.5 125t-90.5 90.5t-143 34h-632v25h650q163 0 291.5 -59t203 -175t74.5 -288q0 -198 -69 -374.5t-191 -312.5t-285 -213.5t-352 -77.5h-642z
M107 0l340 1500h262l-340 -1500h-262z" />
    <glyph glyph-name="Ntilde" unicode="&#xd1;" horiz-adv-x="1479" 
d="M1187 1662q-59 0 -104 24t-83.5 55t-76.5 55t-83 24q-52 0 -87 -26.5t-64 -93.5h-25q20 85 59 146t91 93.5t110 32.5q53 0 96 -24t81 -55t74 -55t75 -24q53 0 88 27t64 93h25q-20 -95 -54.5 -155t-81 -88.5t-104.5 -28.5zM1089 -20l-632 1520h314l435 -1065l243 1065h26
l-346 -1520h-40zM-73 0v25h452v-25h-452zM116 0l330 1475h-199v25h230l-335 -1500h-26zM1209 1475v25h464v-25h-464z" />
    <glyph glyph-name="Ograve" unicode="&#xd2;" horiz-adv-x="1474" 
d="M1142 1683l-272 104q-35 11 -55 37.5t-22.5 58.5t13.5 58q11 17 31.5 28.5t45 13t49 -9.5t44.5 -38l179 -236zM621 -20q-243 0 -378.5 143t-135.5 387q0 171 47 323.5t130.5 278t192 217t232.5 141.5t252 50q152 0 267.5 -64.5t181 -183.5t65.5 -282q0 -214 -69.5 -397.5
t-190 -321t-274 -214.5t-320.5 -77zM621 3q88 0 164.5 51.5t140.5 141t114 205t84.5 243.5t52.5 257t18 245q0 63 -11.5 125t-38.5 113t-72.5 82t-111.5 31q-83 0 -157.5 -51.5t-139 -141t-115.5 -205t-87 -243.5t-55.5 -257t-19.5 -245q0 -104 21.5 -183t72.5 -123.5
t140 -44.5z" />
    <glyph glyph-name="Oacute" unicode="&#xd3;" horiz-adv-x="1474" 
d="M895 1683l-13 16l178 236q20 27 44.5 38t49 9.5t45 -13t31.5 -28.5q17 -26 14 -58t-23 -58.5t-55 -37.5zM621 -20q-243 0 -378.5 143t-135.5 387q0 171 47 323.5t130.5 278t192 217t232.5 141.5t252 50q152 0 267.5 -64.5t181 -183.5t65.5 -282q0 -214 -69.5 -397.5
t-190 -321t-274 -214.5t-320.5 -77zM621 3q88 0 164.5 51.5t140.5 141t114 205t84.5 243.5t52.5 257t18 245q0 63 -11.5 125t-38.5 113t-72.5 82t-111.5 31q-83 0 -157.5 -51.5t-139 -141t-115.5 -205t-87 -243.5t-55.5 -257t-19.5 -245q0 -104 21.5 -183t72.5 -123.5
t140 -44.5z" />
    <glyph glyph-name="Ocircumflex" unicode="&#xd4;" horiz-adv-x="1474" 
d="M703 1705l-14 14l282 250h154l195 -250l-15 -15l-261 145zM621 -20q-243 0 -378.5 143t-135.5 387q0 171 47 323.5t130.5 278t192 217t232.5 141.5t252 50q152 0 267.5 -64.5t181 -183.5t65.5 -282q0 -214 -69.5 -397.5t-190 -321t-274 -214.5t-320.5 -77zM621 3
q88 0 164.5 51.5t140.5 141t114 205t84.5 243.5t52.5 257t18 245q0 63 -11.5 125t-38.5 113t-72.5 82t-111.5 31q-83 0 -157.5 -51.5t-139 -141t-115.5 -205t-87 -243.5t-55.5 -257t-19.5 -245q0 -104 21.5 -183t72.5 -123.5t140 -44.5z" />
    <glyph glyph-name="Otilde" unicode="&#xd5;" horiz-adv-x="1474" 
d="M1199 1662q-59 0 -104 24t-83.5 55t-76.5 55t-83 24q-52 0 -87 -26.5t-64 -93.5h-25q20 85 59 146t91 93.5t110 32.5q53 0 96 -24t81 -55t74 -55t75 -24q53 0 88 27t64 93h25q-20 -95 -54.5 -155t-81 -88.5t-104.5 -28.5zM621 -20q-243 0 -378.5 143t-135.5 387
q0 171 47 323.5t130.5 278t192 217t232.5 141.5t252 50q152 0 267.5 -64.5t181 -183.5t65.5 -282q0 -214 -69.5 -397.5t-190 -321t-274 -214.5t-320.5 -77zM621 3q88 0 164.5 51.5t140.5 141t114 205t84.5 243.5t52.5 257t18 245q0 63 -11.5 125t-38.5 113t-72.5 82
t-111.5 31q-83 0 -157.5 -51.5t-139 -141t-115.5 -205t-87 -243.5t-55.5 -257t-19.5 -245q0 -104 21.5 -183t72.5 -123.5t140 -44.5z" />
    <glyph glyph-name="Odieresis" unicode="&#xd6;" horiz-adv-x="1474" 
d="M1176 1688q-49 0 -83.5 34t-34.5 83t34.5 83.5t83.5 34.5t83 -34.5t34 -83.5t-34 -83t-83 -34zM814 1688q-49 0 -83.5 34t-34.5 83t34.5 83.5t83.5 34.5t83 -34.5t34 -83.5t-34 -83t-83 -34zM621 -20q-243 0 -378.5 143t-135.5 387q0 171 47 323.5t130.5 278t192 217
t232.5 141.5t252 50q152 0 267.5 -64.5t181 -183.5t65.5 -282q0 -214 -69.5 -397.5t-190 -321t-274 -214.5t-320.5 -77zM621 3q88 0 164.5 51.5t140.5 141t114 205t84.5 243.5t52.5 257t18 245q0 63 -11.5 125t-38.5 113t-72.5 82t-111.5 31q-83 0 -157.5 -51.5t-139 -141
t-115.5 -205t-87 -243.5t-55.5 -257t-19.5 -245q0 -104 21.5 -183t72.5 -123.5t140 -44.5z" />
    <glyph glyph-name="multiply" unicode="&#xd7;" horiz-adv-x="922" 
d="M309 472l-177 177l420 420l177 -177zM552 472l-419 420l177 177l419 -420z" />
    <glyph glyph-name="Oslash" unicode="&#xd8;" horiz-adv-x="1474" 
d="M119 -200l1268 1861h33l-1267 -1861h-34zM621 -20q-243 0 -378.5 143t-135.5 387q0 171 47 323.5t130.5 278t192 217t232.5 141.5t252 50q152 0 267.5 -64.5t181 -183.5t65.5 -282q0 -214 -69.5 -397.5t-190 -321t-274 -214.5t-320.5 -77zM621 3q88 0 164.5 51.5
t140.5 141t114 205t84.5 243.5t52.5 257t18 245q0 63 -11.5 125t-38.5 113t-72.5 82t-111.5 31q-83 0 -157.5 -51.5t-139 -141t-115.5 -205t-87 -243.5t-55.5 -257t-19.5 -245q0 -104 21.5 -183t72.5 -123.5t140 -44.5z" />
    <glyph glyph-name="Ugrave" unicode="&#xd9;" horiz-adv-x="1409" 
d="M1160 1683l-272 104q-35 11 -55 37.5t-22.5 58.5t13.5 58q11 17 31.5 28.5t45 13t49 -9.5t44.5 -38l179 -236zM632 -29q-163 0 -275 54t-156.5 162.5t-6.5 272.5l240 1040h262l-240 -1020q-22 -94 -25.5 -179t19.5 -151.5t78.5 -104.5t151.5 -38q129 0 224.5 50.5
t159.5 151.5t98 251l240 1040h26l-241 -1040q-36 -157 -106 -266.5t-180.5 -166t-268.5 -56.5zM244 1475v25h642v-25h-642zM1200 1475v25h400v-25h-400z" />
    <glyph glyph-name="Uacute" unicode="&#xda;" horiz-adv-x="1409" 
d="M913 1683l-13 16l178 236q20 27 44.5 38t49 9.5t45 -13t31.5 -28.5q17 -26 14 -58t-23 -58.5t-55 -37.5zM632 -29q-163 0 -275 54t-156.5 162.5t-6.5 272.5l240 1040h262l-240 -1020q-22 -94 -25.5 -179t19.5 -151.5t78.5 -104.5t151.5 -38q129 0 224.5 50.5t159.5 151.5
t98 251l240 1040h26l-241 -1040q-36 -157 -106 -266.5t-180.5 -166t-268.5 -56.5zM244 1475v25h642v-25h-642zM1200 1475v25h400v-25h-400z" />
    <glyph glyph-name="Ucircumflex" unicode="&#xdb;" horiz-adv-x="1409" 
d="M721 1705l-14 14l282 250h154l195 -250l-15 -15l-261 145zM632 -29q-163 0 -275 54t-156.5 162.5t-6.5 272.5l240 1040h262l-240 -1020q-22 -94 -25.5 -179t19.5 -151.5t78.5 -104.5t151.5 -38q129 0 224.5 50.5t159.5 151.5t98 251l240 1040h26l-241 -1040
q-36 -157 -106 -266.5t-180.5 -166t-268.5 -56.5zM244 1475v25h642v-25h-642zM1200 1475v25h400v-25h-400z" />
    <glyph glyph-name="Udieresis" unicode="&#xdc;" horiz-adv-x="1409" 
d="M1194 1688q-49 0 -83.5 34t-34.5 83t34.5 83.5t83.5 34.5t83 -34.5t34 -83.5t-34 -83t-83 -34zM832 1688q-49 0 -83.5 34t-34.5 83t34.5 83.5t83.5 34.5t83 -34.5t34 -83.5t-34 -83t-83 -34zM632 -29q-163 0 -275 54t-156.5 162.5t-6.5 272.5l240 1040h262l-240 -1020
q-22 -94 -25.5 -179t19.5 -151.5t78.5 -104.5t151.5 -38q129 0 224.5 50.5t159.5 151.5t98 251l240 1040h26l-241 -1040q-36 -157 -106 -266.5t-180.5 -166t-268.5 -56.5zM244 1475v25h642v-25h-642zM1200 1475v25h400v-25h-400z" />
    <glyph glyph-name="Yacute" unicode="&#xdd;" horiz-adv-x="1482" 
d="M940 1683l-13 16l178 236q20 27 44.5 38t49 9.5t45 -13t31.5 -28.5q17 -26 14 -58t-23 -58.5t-55 -37.5zM495 0l170 754l-288 746h296l251 -720l573 716h31l-607 -758l-164 -738h-262zM315 0v25h642v-25h-642zM237 1475v25h650v-25h-650zM1263 1475v25h420v-25h-420z" />
    <glyph glyph-name="Thorn" unicode="&#xde;" horiz-adv-x="1287" 
d="M112 0l348 1500h261l-347 -1500h-262zM-62 0v25h622v-25h-622zM425 359v26h190q97 0 171.5 49t125 127t76 168t25.5 172q0 44 -8.5 92t-30 89.5t-60 67t-99.5 25.5h-302v25h332q131 0 234.5 -33.5t164 -107t60.5 -193.5q0 -150 -81 -264t-229 -178.5t-349 -64.5h-220z
M282 1475v25h622v-25h-622z" />
    <glyph glyph-name="germandbls" unicode="&#xdf;" horiz-adv-x="1463" 
d="M130 0l223 982q39 173 128.5 293.5t229 182.5t327.5 62q100 0 188.5 -19t156 -58t106 -99.5t38.5 -141.5q0 -87 -47.5 -159.5t-136 -125.5t-211.5 -82t-274 -29v18q97 0 171 37.5t125 97.5t76.5 129t25.5 132q0 72 -20 135.5t-69 102.5t-135 39q-108 0 -180.5 -45
t-119.5 -121.5t-77 -172t-53 -196.5l-220 -962h-252zM-46 0v25h612v-25h-612zM922 -20q-95 0 -157.5 38t-93.5 100.5t-31 137.5q0 59 21 102.5t57 67.5t80 24q58 0 98 -36.5t40 -99.5q0 -38 -22.5 -68.5t-56.5 -48t-69 -17.5q-46 0 -77 22.5t-43 54.5q-4 -67 23 -123.5
t80.5 -91t130.5 -34.5q67 0 112 36.5t71.5 97t38.5 132.5t12 142q0 71 -15.5 138.5t-48 123t-86 88t-128.5 32.5v18q181 0 302.5 -47.5t182.5 -138t61 -220.5q0 -116 -44.5 -198t-117 -133t-156.5 -75t-164 -24z" />
    <glyph glyph-name="agrave" unicode="&#xe0;" horiz-adv-x="1115" 
d="M832 1103l-272 104q-35 11 -55 37.5t-22.5 58.5t13.5 58q11 17 31.5 28.5t45 13t49 -9.5t44.5 -38l179 -236zM311 -20q-135 0 -196 87.5t-61 237.5q0 115 42.5 227.5t114.5 204.5t159.5 147.5t176.5 55.5q67 0 105.5 -36t54.5 -96t16 -132q0 -57 -12.5 -130.5
t-37.5 -151.5t-60.5 -151.5t-81.5 -133t-101 -94.5t-119 -35zM376 42q48 0 95 41t89 110t74 152.5t50.5 170t18.5 162.5q0 61 -10.5 106.5t-34.5 71.5t-63 26q-45 0 -91 -45.5t-88 -119.5t-74.5 -163t-51.5 -178t-19 -163q0 -84 28 -127.5t77 -43.5zM762 -20
q-81 0 -119.5 41t-38.5 107q0 19 1.5 33t3.5 24l28 148l49 155l27 165l65 267h229l-221 -831q-4 -16 -4 -32q0 -14 7.5 -24t26.5 -10q38 0 77 27.5t80.5 92t87.5 176.5l24 -8q-46 -114 -92.5 -187t-102 -108.5t-128.5 -35.5z" />
    <glyph glyph-name="aacute" unicode="&#xe1;" horiz-adv-x="1115" 
d="M585 1103l-13 16l178 236q20 27 44.5 38t49 9.5t45 -13t31.5 -28.5q17 -26 14 -58t-23 -58.5t-55 -37.5zM311 -20q-135 0 -196 87.5t-61 237.5q0 115 42.5 227.5t114.5 204.5t159.5 147.5t176.5 55.5q67 0 105.5 -36t54.5 -96t16 -132q0 -57 -12.5 -130.5t-37.5 -151.5
t-60.5 -151.5t-81.5 -133t-101 -94.5t-119 -35zM376 42q48 0 95 41t89 110t74 152.5t50.5 170t18.5 162.5q0 61 -10.5 106.5t-34.5 71.5t-63 26q-45 0 -91 -45.5t-88 -119.5t-74.5 -163t-51.5 -178t-19 -163q0 -84 28 -127.5t77 -43.5zM762 -20q-81 0 -119.5 41t-38.5 107
q0 19 1.5 33t3.5 24l28 148l49 155l27 165l65 267h229l-221 -831q-4 -16 -4 -32q0 -14 7.5 -24t26.5 -10q38 0 77 27.5t80.5 92t87.5 176.5l24 -8q-46 -114 -92.5 -187t-102 -108.5t-128.5 -35.5z" />
    <glyph glyph-name="acircumflex" unicode="&#xe2;" horiz-adv-x="1115" 
d="M393 1125l-14 14l282 250h154l195 -250l-15 -15l-261 145zM311 -20q-135 0 -196 87.5t-61 237.5q0 115 42.5 227.5t114.5 204.5t159.5 147.5t176.5 55.5q67 0 105.5 -36t54.5 -96t16 -132q0 -57 -12.5 -130.5t-37.5 -151.5t-60.5 -151.5t-81.5 -133t-101 -94.5t-119 -35z
M376 42q48 0 95 41t89 110t74 152.5t50.5 170t18.5 162.5q0 61 -10.5 106.5t-34.5 71.5t-63 26q-45 0 -91 -45.5t-88 -119.5t-74.5 -163t-51.5 -178t-19 -163q0 -84 28 -127.5t77 -43.5zM762 -20q-81 0 -119.5 41t-38.5 107q0 19 1.5 33t3.5 24l28 148l49 155l27 165l65 267
h229l-221 -831q-4 -16 -4 -32q0 -14 7.5 -24t26.5 -10q38 0 77 27.5t80.5 92t87.5 176.5l24 -8q-46 -114 -92.5 -187t-102 -108.5t-128.5 -35.5z" />
    <glyph glyph-name="atilde" unicode="&#xe3;" horiz-adv-x="1115" 
d="M889 1082q-59 0 -104 24t-83.5 55t-76.5 55t-83 24q-52 0 -87 -26.5t-64 -93.5h-25q20 85 59 146t91 93.5t110 32.5q53 0 96 -24t81 -55t74 -55t75 -24q53 0 88 27t64 93h25q-20 -95 -54.5 -155t-81 -88.5t-104.5 -28.5zM311 -20q-135 0 -196 87.5t-61 237.5
q0 115 42.5 227.5t114.5 204.5t159.5 147.5t176.5 55.5q67 0 105.5 -36t54.5 -96t16 -132q0 -57 -12.5 -130.5t-37.5 -151.5t-60.5 -151.5t-81.5 -133t-101 -94.5t-119 -35zM376 42q48 0 95 41t89 110t74 152.5t50.5 170t18.5 162.5q0 61 -10.5 106.5t-34.5 71.5t-63 26
q-45 0 -91 -45.5t-88 -119.5t-74.5 -163t-51.5 -178t-19 -163q0 -84 28 -127.5t77 -43.5zM762 -20q-81 0 -119.5 41t-38.5 107q0 19 1.5 33t3.5 24l28 148l49 155l27 165l65 267h229l-221 -831q-4 -16 -4 -32q0 -14 7.5 -24t26.5 -10q38 0 77 27.5t80.5 92t87.5 176.5l24 -8
q-46 -114 -92.5 -187t-102 -108.5t-128.5 -35.5z" />
    <glyph glyph-name="adieresis" unicode="&#xe4;" horiz-adv-x="1115" 
d="M866 1108q-49 0 -83.5 34t-34.5 83t34.5 83.5t83.5 34.5t83 -34.5t34 -83.5t-34 -83t-83 -34zM504 1108q-49 0 -83.5 34t-34.5 83t34.5 83.5t83.5 34.5t83 -34.5t34 -83.5t-34 -83t-83 -34zM311 -20q-135 0 -196 87.5t-61 237.5q0 115 42.5 227.5t114.5 204.5
t159.5 147.5t176.5 55.5q67 0 105.5 -36t54.5 -96t16 -132q0 -57 -12.5 -130.5t-37.5 -151.5t-60.5 -151.5t-81.5 -133t-101 -94.5t-119 -35zM376 42q48 0 95 41t89 110t74 152.5t50.5 170t18.5 162.5q0 61 -10.5 106.5t-34.5 71.5t-63 26q-45 0 -91 -45.5t-88 -119.5
t-74.5 -163t-51.5 -178t-19 -163q0 -84 28 -127.5t77 -43.5zM762 -20q-81 0 -119.5 41t-38.5 107q0 19 1.5 33t3.5 24l28 148l49 155l27 165l65 267h229l-221 -831q-4 -16 -4 -32q0 -14 7.5 -24t26.5 -10q38 0 77 27.5t80.5 92t87.5 176.5l24 -8q-46 -114 -92.5 -187
t-102 -108.5t-128.5 -35.5z" />
    <glyph glyph-name="aring" unicode="&#xe5;" horiz-adv-x="1115" 
d="M697 1100q-85 0 -140 51.5t-55 127.5q0 77 55 129t140 52q86 0 140.5 -52t54.5 -129q0 -76 -54.5 -127.5t-140.5 -51.5zM683 1122q24 0 44 21.5t34.5 54.5t22.5 68.5t8 63.5q0 47 -18.5 77t-62.5 30q-24 0 -44 -21.5t-34 -54.5t-22 -68.5t-8 -64.5q0 -47 18.5 -76.5
t61.5 -29.5zM311 -20q-135 0 -196 87.5t-61 237.5q0 115 42.5 227.5t114.5 204.5t159.5 147.5t176.5 55.5q67 0 105.5 -36t54.5 -96t16 -132q0 -57 -12.5 -130.5t-37.5 -151.5t-60.5 -151.5t-81.5 -133t-101 -94.5t-119 -35zM376 42q48 0 95 41t89 110t74 152.5t50.5 170
t18.5 162.5q0 61 -10.5 106.5t-34.5 71.5t-63 26q-45 0 -91 -45.5t-88 -119.5t-74.5 -163t-51.5 -178t-19 -163q0 -84 28 -127.5t77 -43.5zM762 -20q-81 0 -119.5 41t-38.5 107q0 19 1.5 33t3.5 24l28 148l49 155l27 165l65 267h229l-221 -831q-4 -16 -4 -32q0 -14 7.5 -24
t26.5 -10q38 0 77 27.5t80.5 92t87.5 176.5l24 -8q-46 -114 -92.5 -187t-102 -108.5t-128.5 -35.5z" />
    <glyph glyph-name="ae" unicode="&#xe6;" horiz-adv-x="1615" 
d="M1022 -20q-81 0 -150 35t-111.5 110t-42.5 195l40 -9q2 142 47 258t120.5 198.5t172 127t200.5 44.5q82 0 152.5 -19t114 -63t43.5 -119t-38 -127.5t-101 -86.5t-139 -53.5t-153 -28.5t-144 -11t-111 -2v22q64 0 141 10.5t147 42t115 92.5t45 160q0 64 -18.5 112
t-65.5 48q-56 0 -116 -54.5t-112.5 -146.5t-85 -208t-32.5 -239q0 -70 16 -126.5t51 -89t91 -32.5q78 0 150.5 36.5t133.5 96.5t104 133h26q-42 -77 -111 -147t-164 -114.5t-215 -44.5zM352 -20q-85 0 -157 20.5t-115.5 66t-43.5 119.5q0 94 60.5 168t175 116.5t276.5 42.5
h160v-25h-124q-77 0 -142.5 -42t-105.5 -114.5t-40 -164.5q0 -78 28.5 -119.5t71.5 -41.5q54 0 103.5 48t88 129t60.5 178l56 248q10 48 13 101t-8 98t-42 74t-89 29q-45 0 -94.5 -10t-92.5 -31t-69 -52q50 23 92.5 16.5t68 -34t25.5 -64.5q0 -64 -46 -101t-102 -37
q-63 0 -98 31.5t-35 90.5q0 62 52 111t137 77t182 28q130 0 201 -41.5t93 -115.5t6 -170l-80 -248q-17 -93 -59 -164t-103.5 -119.5t-139 -73t-164.5 -24.5z" />
    <glyph glyph-name="ccedilla" unicode="&#xe7;" horiz-adv-x="927" 
d="M155 -509v24q85 0 145.5 39t60.5 115q0 59 -49 81t-138 22l225 238h32l-149 -158q80 -1 142 -15t97.5 -46t35.5 -85q0 -64 -53 -113t-144 -75.5t-205 -26.5zM371 -20q-152 0 -233.5 86t-81.5 228q0 117 45.5 231.5t125.5 208t183 150t218 56.5q87 0 150 -32t98 -80
t35 -96q0 -62 -37.5 -100t-92.5 -38q-48 0 -87 29t-39 90q0 53 36 88.5t86 35.5q33 0 63 -10.5t49.5 -33.5t19.5 -61h-22q0 43 -31.5 83t-82 66t-110.5 26q-71 0 -132.5 -50t-110 -132t-83.5 -178.5t-53.5 -192t-18.5 -169.5q0 -79 36 -124.5t104 -45.5q82 0 154 35.5
t130.5 94t101.5 127.5l22 -13q-43 -72 -106.5 -136t-147 -103.5t-188.5 -39.5z" />
    <glyph glyph-name="egrave" unicode="&#xe8;" horiz-adv-x="962" 
d="M771 1103l-272 104q-35 11 -55 37.5t-22.5 58.5t13.5 58q11 17 31.5 28.5t45 13t49 -9.5t44.5 -38l179 -236zM367 -20q-104 0 -173.5 41.5t-105 114t-35.5 164.5q0 120 44 234t123.5 206t185.5 146t229 54q128 0 199 -58.5t71 -144.5q0 -76 -49.5 -137t-137.5 -105
t-203.5 -70t-247.5 -33v20q78 6 146.5 30.5t124 64.5t95 90t61 106.5t21.5 114.5q0 38 -15.5 67.5t-56.5 29.5q-49 0 -96.5 -36.5t-90.5 -99t-78.5 -139.5t-62 -160.5t-40.5 -163t-14 -143.5q0 -90 38.5 -124.5t99.5 -34.5q77 0 147.5 32t131.5 90t109 136l22 -14
q-44 -72 -107 -135.5t-146 -103t-189 -39.5z" />
    <glyph glyph-name="eacute" unicode="&#xe9;" horiz-adv-x="962" 
d="M523 1103l-13 16l178 236q20 27 44.5 38t49 9.5t45 -13t31.5 -28.5q17 -26 14 -58t-23 -58.5t-55 -37.5zM367 -20q-104 0 -173.5 41.5t-105 114t-35.5 164.5q0 120 44 234t123.5 206t185.5 146t229 54q128 0 199 -58.5t71 -144.5q0 -76 -49.5 -137t-137.5 -105
t-203.5 -70t-247.5 -33v20q78 6 146.5 30.5t124 64.5t95 90t61 106.5t21.5 114.5q0 38 -15.5 67.5t-56.5 29.5q-49 0 -96.5 -36.5t-90.5 -99t-78.5 -139.5t-62 -160.5t-40.5 -163t-14 -143.5q0 -90 38.5 -124.5t99.5 -34.5q77 0 147.5 32t131.5 90t109 136l22 -14
q-44 -72 -107 -135.5t-146 -103t-189 -39.5z" />
    <glyph glyph-name="ecircumflex" unicode="&#xea;" horiz-adv-x="962" 
d="M332 1125l-14 14l282 250h154l195 -250l-15 -15l-261 145zM367 -20q-104 0 -173.5 41.5t-105 114t-35.5 164.5q0 120 44 234t123.5 206t185.5 146t229 54q128 0 199 -58.5t71 -144.5q0 -76 -49.5 -137t-137.5 -105t-203.5 -70t-247.5 -33v20q78 6 146.5 30.5t124 64.5
t95 90t61 106.5t21.5 114.5q0 38 -15.5 67.5t-56.5 29.5q-49 0 -96.5 -36.5t-90.5 -99t-78.5 -139.5t-62 -160.5t-40.5 -163t-14 -143.5q0 -90 38.5 -124.5t99.5 -34.5q77 0 147.5 32t131.5 90t109 136l22 -14q-44 -72 -107 -135.5t-146 -103t-189 -39.5z" />
    <glyph glyph-name="edieresis" unicode="&#xeb;" horiz-adv-x="962" 
d="M805 1108q-49 0 -83.5 34t-34.5 83t34.5 83.5t83.5 34.5t83 -34.5t34 -83.5t-34 -83t-83 -34zM443 1108q-49 0 -83.5 34t-34.5 83t34.5 83.5t83.5 34.5t83 -34.5t34 -83.5t-34 -83t-83 -34zM367 -20q-104 0 -173.5 41.5t-105 114t-35.5 164.5q0 120 44 234t123.5 206
t185.5 146t229 54q128 0 199 -58.5t71 -144.5q0 -76 -49.5 -137t-137.5 -105t-203.5 -70t-247.5 -33v20q78 6 146.5 30.5t124 64.5t95 90t61 106.5t21.5 114.5q0 38 -15.5 67.5t-56.5 29.5q-49 0 -96.5 -36.5t-90.5 -99t-78.5 -139.5t-62 -160.5t-40.5 -163t-14 -143.5
q0 -90 38.5 -124.5t99.5 -34.5q77 0 147.5 32t131.5 90t109 136l22 -14q-44 -72 -107 -135.5t-146 -103t-189 -39.5z" />
    <glyph glyph-name="igrave" unicode="&#xec;" horiz-adv-x="700" 
d="M576 1103l-272 104q-35 11 -55 37.5t-22.5 58.5t13.5 58q11 17 31.5 28.5t45 13t49 -9.5t44.5 -38l179 -236zM269 -20q-85 0 -127.5 37t-42.5 117q0 11 1 25.5t3 24.5l167 711h-142v25h386l-195 -816q-2 -9 -3.5 -18.5t-1.5 -17.5q0 -16 8.5 -28t26.5 -12
q50 0 101.5 39.5t97 108.5t78.5 156l24 -8q-60 -153 -154 -248.5t-227 -95.5z" />
    <glyph glyph-name="iacute" unicode="&#xed;" horiz-adv-x="700" 
d="M329 1103l-13 16l178 236q20 27 44.5 38t49 9.5t45 -13t31.5 -28.5q17 -26 14 -58t-23 -58.5t-55 -37.5zM269 -20q-85 0 -127.5 37t-42.5 117q0 11 1 25.5t3 24.5l167 711h-142v25h386l-195 -816q-2 -9 -3.5 -18.5t-1.5 -17.5q0 -16 8.5 -28t26.5 -12q50 0 101.5 39.5
t97 108.5t78.5 156l24 -8q-60 -153 -154 -248.5t-227 -95.5z" />
    <glyph glyph-name="icircumflex" unicode="&#xee;" horiz-adv-x="700" 
d="M137 1125l-14 14l282 250h154l195 -250l-15 -15l-261 145zM269 -20q-85 0 -127.5 37t-42.5 117q0 11 1 25.5t3 24.5l167 711h-142v25h386l-195 -816q-2 -9 -3.5 -18.5t-1.5 -17.5q0 -16 8.5 -28t26.5 -12q50 0 101.5 39.5t97 108.5t78.5 156l24 -8q-60 -153 -154 -248.5
t-227 -95.5z" />
    <glyph glyph-name="idieresis" unicode="&#xef;" horiz-adv-x="700" 
d="M610 1108q-49 0 -83.5 34t-34.5 83t34.5 83.5t83.5 34.5t83 -34.5t34 -83.5t-34 -83t-83 -34zM248 1108q-49 0 -83.5 34t-34.5 83t34.5 83.5t83.5 34.5t83 -34.5t34 -83.5t-34 -83t-83 -34zM269 -20q-85 0 -127.5 37t-42.5 117q0 11 1 25.5t3 24.5l167 711h-142v25h386
l-195 -816q-2 -9 -3.5 -18.5t-1.5 -17.5q0 -16 8.5 -28t26.5 -12q50 0 101.5 39.5t97 108.5t78.5 156l24 -8q-60 -153 -154 -248.5t-227 -95.5z" />
    <glyph glyph-name="eth" unicode="&#xf0;" horiz-adv-x="1179" 
d="M502 -20q-195 0 -308.5 88.5t-113.5 283.5q0 153 57 270t147.5 197t193 120.5t193.5 40.5q101 0 150 -43t63.5 -125t11.5 -199l-20 92q0 61 -15 114.5t-48 87t-87 33.5q-60 0 -116.5 -40t-104.5 -108.5t-84.5 -155.5t-56.5 -182.5t-20 -186.5q0 -71 12.5 -130.5
t46.5 -95.5t96 -36q56 0 110.5 47t102.5 124.5t85 171t58 187t21 170.5l8 9q3 122 -0.5 237t-22.5 214.5t-63.5 173.5t-122.5 116t-199 42v23q179 0 310.5 -57t217.5 -157.5t128 -233t42 -284.5q0 -157 -55.5 -302t-150 -259.5t-215 -180.5t-251.5 -66zM450 1235v25h864v-25
h-864z" />
    <glyph glyph-name="ntilde" unicode="&#xf1;" horiz-adv-x="1157" 
d="M885 1082q-59 0 -104 24t-83.5 55t-76.5 55t-83 24q-52 0 -87 -26.5t-64 -93.5h-25q20 85 59 146t91 93.5t110 32.5q53 0 96 -24t81 -55t74 -55t75 -24q53 0 88 27t64 93h25q-20 -95 -54.5 -155t-81 -88.5t-104.5 -28.5zM767 -20q-84 0 -126 37t-42 106q0 21 5 43.5
t10 39.5l126 418q23 78 32 134.5t-4 87t-54 30.5q-40 0 -94 -50t-110.5 -136t-106.5 -195.5t-81 -228.5h-18q22 83 57.5 175t83 180.5t104 160.5t118.5 114.5t126 42.5q85 0 131.5 -40.5t57 -108.5t-14.5 -151l-157 -536q-3 -9 -4.5 -19t-1.5 -18q0 -16 7 -26t25 -10
q66 0 125 69t120 220l23 -8q-46 -119 -95.5 -191.5t-108 -106t-133.5 -33.5zM30 0l230 895h-137v25h368l-238 -920h-223z" />
    <glyph glyph-name="ograve" unicode="&#xf2;" horiz-adv-x="1017" 
d="M807 1103l-272 104q-35 11 -55 37.5t-22.5 58.5t13.5 58q11 17 31.5 28.5t45 13t49 -9.5t44.5 -38l179 -236zM377 -20q-158 0 -239.5 86t-81.5 230q0 128 46 244t126 206t183 142t217 52q159 0 241.5 -88t82.5 -232q0 -127 -45.5 -242t-125 -205t-183.5 -141.5
t-221 -51.5zM366 5q47 0 93 37.5t89 102t80 145.5t65 168.5t43.5 172t15.5 154.5q0 60 -27 95t-86 35q-46 0 -92.5 -38t-89.5 -102t-80 -145t-65 -169t-43.5 -172t-15.5 -154q0 -60 27.5 -95t85.5 -35z" />
    <glyph glyph-name="oacute" unicode="&#xf3;" horiz-adv-x="1017" 
d="M560 1103l-13 16l178 236q20 27 44.5 38t49 9.5t45 -13t31.5 -28.5q17 -26 14 -58t-23 -58.5t-55 -37.5zM377 -20q-158 0 -239.5 86t-81.5 230q0 128 46 244t126 206t183 142t217 52q159 0 241.5 -88t82.5 -232q0 -127 -45.5 -242t-125 -205t-183.5 -141.5t-221 -51.5z
M366 5q47 0 93 37.5t89 102t80 145.5t65 168.5t43.5 172t15.5 154.5q0 60 -27 95t-86 35q-46 0 -92.5 -38t-89.5 -102t-80 -145t-65 -169t-43.5 -172t-15.5 -154q0 -60 27.5 -95t85.5 -35z" />
    <glyph glyph-name="ocircumflex" unicode="&#xf4;" horiz-adv-x="1017" 
d="M368 1125l-14 14l282 250h154l195 -250l-15 -15l-261 145zM377 -20q-158 0 -239.5 86t-81.5 230q0 128 46 244t126 206t183 142t217 52q159 0 241.5 -88t82.5 -232q0 -127 -45.5 -242t-125 -205t-183.5 -141.5t-221 -51.5zM366 5q47 0 93 37.5t89 102t80 145.5t65 168.5
t43.5 172t15.5 154.5q0 60 -27 95t-86 35q-46 0 -92.5 -38t-89.5 -102t-80 -145t-65 -169t-43.5 -172t-15.5 -154q0 -60 27.5 -95t85.5 -35z" />
    <glyph glyph-name="otilde" unicode="&#xf5;" horiz-adv-x="1017" 
d="M864 1082q-59 0 -104 24t-83.5 55t-76.5 55t-83 24q-52 0 -87 -26.5t-64 -93.5h-25q20 85 59 146t91 93.5t110 32.5q53 0 96 -24t81 -55t74 -55t75 -24q53 0 88 27t64 93h25q-20 -95 -54.5 -155t-81 -88.5t-104.5 -28.5zM377 -20q-158 0 -239.5 86t-81.5 230
q0 128 46 244t126 206t183 142t217 52q159 0 241.5 -88t82.5 -232q0 -127 -45.5 -242t-125 -205t-183.5 -141.5t-221 -51.5zM366 5q47 0 93 37.5t89 102t80 145.5t65 168.5t43.5 172t15.5 154.5q0 60 -27 95t-86 35q-46 0 -92.5 -38t-89.5 -102t-80 -145t-65 -169
t-43.5 -172t-15.5 -154q0 -60 27.5 -95t85.5 -35z" />
    <glyph glyph-name="odieresis" unicode="&#xf6;" horiz-adv-x="1017" 
d="M841 1108q-49 0 -83.5 34t-34.5 83t34.5 83.5t83.5 34.5t83 -34.5t34 -83.5t-34 -83t-83 -34zM479 1108q-49 0 -83.5 34t-34.5 83t34.5 83.5t83.5 34.5t83 -34.5t34 -83.5t-34 -83t-83 -34zM377 -20q-158 0 -239.5 86t-81.5 230q0 128 46 244t126 206t183 142t217 52
q159 0 241.5 -88t82.5 -232q0 -127 -45.5 -242t-125 -205t-183.5 -141.5t-221 -51.5zM366 5q47 0 93 37.5t89 102t80 145.5t65 168.5t43.5 172t15.5 154.5q0 60 -27 95t-86 35q-46 0 -92.5 -38t-89.5 -102t-80 -145t-65 -169t-43.5 -172t-15.5 -154q0 -60 27.5 -95t85.5 -35
z" />
    <glyph glyph-name="divide" unicode="&#xf7;" horiz-adv-x="1119" 
d="M561 972q-56 0 -98 41t-42 97q0 57 42 97.5t98 40.5q58 0 97.5 -40.5t39.5 -97.5q0 -56 -39.5 -97t-97.5 -41zM561 262q-56 0 -98 41t-42 97q0 57 42 97.5t98 40.5q58 0 97.5 -40.5t39.5 -97.5q0 -56 -39.5 -97t-97.5 -41zM100 758v24h920v-24h-920z" />
    <glyph glyph-name="oslash" unicode="&#xf8;" horiz-adv-x="1017" 
d="M-127 -246l1268 1404h32l-1267 -1404h-33zM377 -20q-158 0 -239.5 86t-81.5 230q0 128 46 244t126 206t183 142t217 52q159 0 241.5 -88t82.5 -232q0 -127 -45.5 -242t-125 -205t-183.5 -141.5t-221 -51.5zM366 5q47 0 93 37.5t89 102t80 145.5t65 168.5t43.5 172
t15.5 154.5q0 60 -27 95t-86 35q-46 0 -92.5 -38t-89.5 -102t-80 -145t-65 -169t-43.5 -172t-15.5 -154q0 -60 27.5 -95t85.5 -35z" />
    <glyph glyph-name="ugrave" unicode="&#xf9;" horiz-adv-x="1155" 
d="M743 1103l-272 104q-35 11 -55 37.5t-22.5 58.5t13.5 58q11 17 31.5 28.5t45 13t49 -9.5t44.5 -38l179 -236zM254 -20q-91 0 -137 40.5t-53.5 109t13.5 152.5l154 613h-132v25h367l-161 -624q-21 -78 -29.5 -135t3.5 -87.5t55 -30.5q39 0 94 50t113.5 136t109 196
t80.5 229h20q-20 -83 -57 -175.5t-85.5 -181t-106 -160.5t-120.5 -114.5t-128 -42.5zM777 -20q-89 0 -131.5 40.5t-42.5 95.5q0 14 2.5 33.5t7.5 35.5l186 735h227l-222 -829q-2 -9 -3 -18t-1 -17q0 -32 30 -32q40 0 79.5 27t81 91.5t87.5 176.5l24 -8q-46 -114 -93 -187
t-103 -108.5t-129 -35.5z" />
    <glyph glyph-name="uacute" unicode="&#xfa;" horiz-adv-x="1155" 
d="M496 1103l-13 16l178 236q20 27 44.5 38t49 9.5t45 -13t31.5 -28.5q17 -26 14 -58t-23 -58.5t-55 -37.5zM254 -20q-91 0 -137 40.5t-53.5 109t13.5 152.5l154 613h-132v25h367l-161 -624q-21 -78 -29.5 -135t3.5 -87.5t55 -30.5q39 0 94 50t113.5 136t109 196t80.5 229
h20q-20 -83 -57 -175.5t-85.5 -181t-106 -160.5t-120.5 -114.5t-128 -42.5zM777 -20q-89 0 -131.5 40.5t-42.5 95.5q0 14 2.5 33.5t7.5 35.5l186 735h227l-222 -829q-2 -9 -3 -18t-1 -17q0 -32 30 -32q40 0 79.5 27t81 91.5t87.5 176.5l24 -8q-46 -114 -93 -187t-103 -108.5
t-129 -35.5z" />
    <glyph glyph-name="ucircumflex" unicode="&#xfb;" horiz-adv-x="1155" 
d="M304 1125l-14 14l282 250h154l195 -250l-15 -15l-261 145zM254 -20q-91 0 -137 40.5t-53.5 109t13.5 152.5l154 613h-132v25h367l-161 -624q-21 -78 -29.5 -135t3.5 -87.5t55 -30.5q39 0 94 50t113.5 136t109 196t80.5 229h20q-20 -83 -57 -175.5t-85.5 -181t-106 -160.5
t-120.5 -114.5t-128 -42.5zM777 -20q-89 0 -131.5 40.5t-42.5 95.5q0 14 2.5 33.5t7.5 35.5l186 735h227l-222 -829q-2 -9 -3 -18t-1 -17q0 -32 30 -32q40 0 79.5 27t81 91.5t87.5 176.5l24 -8q-46 -114 -93 -187t-103 -108.5t-129 -35.5z" />
    <glyph glyph-name="udieresis" unicode="&#xfc;" horiz-adv-x="1155" 
d="M777 1108q-49 0 -83.5 34t-34.5 83t34.5 83.5t83.5 34.5t83 -34.5t34 -83.5t-34 -83t-83 -34zM415 1108q-49 0 -83.5 34t-34.5 83t34.5 83.5t83.5 34.5t83 -34.5t34 -83.5t-34 -83t-83 -34zM254 -20q-91 0 -137 40.5t-53.5 109t13.5 152.5l154 613h-132v25h367l-161 -624
q-21 -78 -29.5 -135t3.5 -87.5t55 -30.5q39 0 94 50t113.5 136t109 196t80.5 229h20q-20 -83 -57 -175.5t-85.5 -181t-106 -160.5t-120.5 -114.5t-128 -42.5zM777 -20q-89 0 -131.5 40.5t-42.5 95.5q0 14 2.5 33.5t7.5 35.5l186 735h227l-222 -829q-2 -9 -3 -18t-1 -17
q0 -32 30 -32q40 0 79.5 27t81 91.5t87.5 176.5l24 -8q-46 -114 -93 -187t-103 -108.5t-129 -35.5z" />
    <glyph glyph-name="yacute" unicode="&#xfd;" horiz-adv-x="1108" 
d="M547 1103l-13 16l178 236q20 27 44.5 38t49 9.5t45 -13t31.5 -28.5q17 -26 14 -58t-23 -58.5t-55 -37.5zM144 -520q-73 0 -126.5 30.5t-83 83.5t-29.5 122q0 40 18.5 75.5t51.5 58t77 22.5q31 0 62.5 -14.5t52.5 -43.5t21 -73q0 -60 -38.5 -97t-88.5 -37q-34 0 -69.5 13
t-60 37t-24.5 59h24q0 -63 25.5 -110.5t73.5 -74.5t114 -27q80 0 172 54t186.5 145.5t185 205t169.5 235t139.5 235.5t94.5 205t34 144q0 42 -16 85t-49.5 72t-87.5 29v23q45 0 80 -20t54.5 -51.5t19.5 -65.5q0 -39 -21 -70t-55 -48.5t-74 -17.5q-69 0 -110.5 40.5
t-41.5 97.5t42 97t106 40q66 0 105.5 -33.5t56.5 -82.5t17 -94q0 -56 -34.5 -150.5t-95.5 -210.5t-141.5 -239t-173 -239t-189.5 -208.5t-192.5 -147t-180.5 -54.5zM649 -159q-36 63 -73 150t-71.5 186t-66.5 199t-59.5 190t-49 159.5t-35.5 105.5q-6 16 -19 32t-45 16
q-37 0 -83.5 -42t-87.5 -154l-24 10q33 90 76 144t98 78t121 24q103 0 151 -50.5t71 -129.5q20 -67 45 -159.5t56.5 -193t70 -195t87.5 -166.5q-19 -27 -37.5 -51.5t-37.5 -48.5t-40.5 -49.5t-46.5 -54.5z" />
    <glyph glyph-name="thorn" unicode="&#xfe;" horiz-adv-x="1191" 
d="M-32 -500l453 1978h-138v22h384l-210 -917l-40 -141l-15 -112l-194 -830h-240zM-160 -500v22h510v-22h-510zM534 48q61 0 119.5 56t106 146t76 196.5t28.5 205.5q0 102 -34 163.5t-98 61.5q-58 0 -108 -39.5t-90 -103.5t-69 -141.5t-44.5 -156t-15.5 -143.5
q0 -67 15 -122.5t43.5 -89t70.5 -33.5zM608 -20q-116 0 -168.5 87.5t-52.5 225.5q0 65 16.5 149.5t50 171.5t84 160.5t118.5 119t155 45.5q69 0 143 -31t124.5 -104.5t50.5 -200.5q0 -145 -49.5 -259.5t-129 -196t-170 -124.5t-172.5 -43z" />
    <glyph glyph-name="ydieresis" unicode="&#xff;" horiz-adv-x="1108" 
d="M828 1108q-49 0 -83.5 34t-34.5 83t34.5 83.5t83.5 34.5t83 -34.5t34 -83.5t-34 -83t-83 -34zM466 1108q-49 0 -83.5 34t-34.5 83t34.5 83.5t83.5 34.5t83 -34.5t34 -83.5t-34 -83t-83 -34zM144 -520q-73 0 -126.5 30.5t-83 83.5t-29.5 122q0 40 18.5 75.5t51.5 58
t77 22.5q31 0 62.5 -14.5t52.5 -43.5t21 -73q0 -60 -38.5 -97t-88.5 -37q-34 0 -69.5 13t-60 37t-24.5 59h24q0 -63 25.5 -110.5t73.5 -74.5t114 -27q80 0 172 54t186.5 145.5t185 205t169.5 235t139.5 235.5t94.5 205t34 144q0 42 -16 85t-49.5 72t-87.5 29v23q45 0 80 -20
t54.5 -51.5t19.5 -65.5q0 -39 -21 -70t-55 -48.5t-74 -17.5q-69 0 -110.5 40.5t-41.5 97.5t42 97t106 40q66 0 105.5 -33.5t56.5 -82.5t17 -94q0 -56 -34.5 -150.5t-95.5 -210.5t-141.5 -239t-173 -239t-189.5 -208.5t-192.5 -147t-180.5 -54.5zM649 -159q-36 63 -73 150
t-71.5 186t-66.5 199t-59.5 190t-49 159.5t-35.5 105.5q-6 16 -19 32t-45 16q-37 0 -83.5 -42t-87.5 -154l-24 10q33 90 76 144t98 78t121 24q103 0 151 -50.5t71 -129.5q20 -67 45 -159.5t56.5 -193t70 -195t87.5 -166.5q-19 -27 -37.5 -51.5t-37.5 -48.5t-40.5 -49.5
t-46.5 -54.5z" />
    <glyph glyph-name="Amacron" unicode="&#x100;" horiz-adv-x="1506" 
d="M718 1700v25h480v-25h-480zM71 0l882 1529h84l190 -1529h-282l-128 1248l-718 -1248h-28zM-93 0v25h440v-25h-440zM715 0v25h652v-25h-652zM370 477v25h657v-25h-657z" />
    <glyph glyph-name="amacron" unicode="&#x101;" horiz-adv-x="1115" 
d="M406 1120v25h480v-25h-480zM311 -20q-135 0 -196 87.5t-61 237.5q0 115 42.5 227.5t114.5 204.5t159.5 147.5t176.5 55.5q67 0 105.5 -36t54.5 -96t16 -132q0 -57 -12.5 -130.5t-37.5 -151.5t-60.5 -151.5t-81.5 -133t-101 -94.5t-119 -35zM376 42q48 0 95 41t89 110
t74 152.5t50.5 170t18.5 162.5q0 61 -10.5 106.5t-34.5 71.5t-63 26q-45 0 -91 -45.5t-88 -119.5t-74.5 -163t-51.5 -178t-19 -163q0 -84 28 -127.5t77 -43.5zM762 -20q-81 0 -119.5 41t-38.5 107q0 19 1.5 33t3.5 24l28 148l49 155l27 165l65 267h229l-221 -831
q-4 -16 -4 -32q0 -14 7.5 -24t26.5 -10q38 0 77 27.5t80.5 92t87.5 176.5l24 -8q-46 -114 -92.5 -187t-102 -108.5t-128.5 -35.5z" />
    <glyph glyph-name="Abreve" unicode="&#x102;" horiz-adv-x="1506" 
d="M1001 1682q-67 0 -105.5 28.5t-55 73t-17.5 95.5t6 97h24q-6 -46 15.5 -76t62.5 -45t90 -15t101.5 13.5t93 43.5t52.5 79h25q-7 -46 -26 -97t-53.5 -95.5t-86.5 -73t-126 -28.5zM71 0l882 1529h84l190 -1529h-282l-128 1248l-718 -1248h-28zM-93 0v25h440v-25h-440z
M715 0v25h652v-25h-652zM370 477v25h657v-25h-657z" />
    <glyph glyph-name="abreve" unicode="&#x103;" horiz-adv-x="1115" 
d="M690 1102q-67 0 -105.5 28.5t-55 73t-17.5 95.5t6 97h24q-6 -46 15.5 -76t62.5 -45t90 -15t101.5 13.5t93 43.5t52.5 79h25q-7 -46 -26 -97t-53.5 -95.5t-86.5 -73t-126 -28.5zM311 -20q-135 0 -196 87.5t-61 237.5q0 115 42.5 227.5t114.5 204.5t159.5 147.5t176.5 55.5
q67 0 105.5 -36t54.5 -96t16 -132q0 -57 -12.5 -130.5t-37.5 -151.5t-60.5 -151.5t-81.5 -133t-101 -94.5t-119 -35zM376 42q48 0 95 41t89 110t74 152.5t50.5 170t18.5 162.5q0 61 -10.5 106.5t-34.5 71.5t-63 26q-45 0 -91 -45.5t-88 -119.5t-74.5 -163t-51.5 -178
t-19 -163q0 -84 28 -127.5t77 -43.5zM762 -20q-81 0 -119.5 41t-38.5 107q0 19 1.5 33t3.5 24l28 148l49 155l27 165l65 267h229l-221 -831q-4 -16 -4 -32q0 -14 7.5 -24t26.5 -10q38 0 77 27.5t80.5 92t87.5 176.5l24 -8q-46 -114 -92.5 -187t-102 -108.5t-128.5 -35.5z
" />
    <glyph glyph-name="Aogonek" unicode="&#x104;" horiz-adv-x="1506" 
d="M967 -451q-57 0 -107 13.5t-81.5 47t-31.5 90.5q0 60 39 110.5t99.5 91t127 70.5t122.5 47l7 -11q-33 -21 -69.5 -61.5t-61.5 -97t-25 -126.5q0 -60 21 -91t54 -31q35 0 63.5 19t49.5 45.5t33 50.5l20 -10q-15 -28 -45.5 -65t-82.5 -64.5t-132 -27.5zM71 0l882 1529h84
l190 -1529h-282l-128 1248l-718 -1248h-28zM-93 0v25h440v-25h-440zM715 0v25h652v-25h-652zM370 477v25h657v-25h-657z" />
    <glyph glyph-name="aogonek" unicode="&#x105;" horiz-adv-x="1115" 
d="M700 -451q-57 0 -107 13.5t-81.5 47t-31.5 90.5q0 60 39 110.5t99.5 91t127 70.5t122.5 47l7 -11q-33 -21 -69.5 -61.5t-61.5 -97t-25 -126.5q0 -60 21 -91t54 -31q35 0 63.5 19t49.5 45.5t33 50.5l20 -10q-15 -28 -45.5 -65t-82.5 -64.5t-132 -27.5zM311 -20
q-135 0 -196 87.5t-61 237.5q0 115 42.5 227.5t114.5 204.5t159.5 147.5t176.5 55.5q67 0 105.5 -36t54.5 -96t16 -132q0 -57 -12.5 -130.5t-37.5 -151.5t-60.5 -151.5t-81.5 -133t-101 -94.5t-119 -35zM376 42q48 0 95 41t89 110t74 152.5t50.5 170t18.5 162.5
q0 61 -10.5 106.5t-34.5 71.5t-63 26q-45 0 -91 -45.5t-88 -119.5t-74.5 -163t-51.5 -178t-19 -163q0 -84 28 -127.5t77 -43.5zM762 -20q-81 0 -119.5 41t-38.5 107q0 19 1.5 33t3.5 24l28 148l49 155l27 165l65 267h229l-221 -831q-4 -16 -4 -32q0 -14 7.5 -24t26.5 -10
q38 0 77 27.5t80.5 92t87.5 176.5l24 -8q-46 -114 -92.5 -187t-102 -108.5t-128.5 -35.5z" />
    <glyph glyph-name="Cacute" unicode="&#x106;" horiz-adv-x="1371" 
d="M916 1683l-13 16l178 236q20 27 44.5 38t49 9.5t45 -13t31.5 -28.5q17 -26 14 -58t-23 -58.5t-55 -37.5zM647 -20q-162 0 -283.5 64.5t-189 183.5t-67.5 282q0 205 69.5 387.5t192 322.5t281.5 220t339 80q124 0 217.5 -52.5t144 -152.5t45.5 -243h-15q2 109 -27 187.5
t-79.5 129t-114.5 74.5t-133 24q-103 0 -189.5 -51.5t-157 -139.5t-124.5 -200.5t-90 -237t-54.5 -248t-18.5 -232.5q0 -99 28 -182t90.5 -133.5t166.5 -50.5q125 0 233.5 55t195 149.5t143.5 211.5h15q-52 -123 -142.5 -225t-211.5 -162.5t-264 -60.5zM1143 0l-95 138
q41 39 83.5 85.5t81.5 115.5l37 89h25l-110 -428h-22zM1381 1072l3 78q-8 63 -23.5 112.5t-46.5 95.5l169 142h22l-99 -428h-25z" />
    <glyph glyph-name="cacute" unicode="&#x107;" horiz-adv-x="927" 
d="M560 1103l-13 16l178 236q20 27 44.5 38t49 9.5t45 -13t31.5 -28.5q17 -26 14 -58t-23 -58.5t-55 -37.5zM371 -20q-152 0 -233.5 86t-81.5 228q0 117 45.5 231.5t125.5 208t183 150t218 56.5q87 0 150 -32t98 -80t35 -96q0 -62 -37.5 -100t-92.5 -38q-48 0 -87 29t-39 90
q0 53 36 88.5t86 35.5q33 0 63 -10.5t49.5 -33.5t19.5 -61h-22q0 43 -31.5 83t-82 66t-110.5 26q-71 0 -132.5 -50t-110 -132t-83.5 -178.5t-53.5 -192t-18.5 -169.5q0 -79 36 -124.5t104 -45.5q82 0 154 35.5t130.5 94t101.5 127.5l22 -13q-43 -72 -106.5 -136t-147 -103.5
t-188.5 -39.5z" />
    <glyph glyph-name="Ccircumflex" unicode="&#x108;" horiz-adv-x="1371" 
d="M724 1705l-14 14l282 250h154l195 -250l-15 -15l-261 145zM647 -20q-162 0 -283.5 64.5t-189 183.5t-67.5 282q0 205 69.5 387.5t192 322.5t281.5 220t339 80q124 0 217.5 -52.5t144 -152.5t45.5 -243h-15q2 109 -27 187.5t-79.5 129t-114.5 74.5t-133 24
q-103 0 -189.5 -51.5t-157 -139.5t-124.5 -200.5t-90 -237t-54.5 -248t-18.5 -232.5q0 -99 28 -182t90.5 -133.5t166.5 -50.5q125 0 233.5 55t195 149.5t143.5 211.5h15q-52 -123 -142.5 -225t-211.5 -162.5t-264 -60.5zM1143 0l-95 138q41 39 83.5 85.5t81.5 115.5l37 89
h25l-110 -428h-22zM1381 1072l3 78q-8 63 -23.5 112.5t-46.5 95.5l169 142h22l-99 -428h-25z" />
    <glyph glyph-name="ccircumflex" unicode="&#x109;" horiz-adv-x="927" 
d="M368 1125l-14 14l282 250h154l195 -250l-15 -15l-261 145zM371 -20q-152 0 -233.5 86t-81.5 228q0 117 45.5 231.5t125.5 208t183 150t218 56.5q87 0 150 -32t98 -80t35 -96q0 -62 -37.5 -100t-92.5 -38q-48 0 -87 29t-39 90q0 53 36 88.5t86 35.5q33 0 63 -10.5
t49.5 -33.5t19.5 -61h-22q0 43 -31.5 83t-82 66t-110.5 26q-71 0 -132.5 -50t-110 -132t-83.5 -178.5t-53.5 -192t-18.5 -169.5q0 -79 36 -124.5t104 -45.5q82 0 154 35.5t130.5 94t101.5 127.5l22 -13q-43 -72 -106.5 -136t-147 -103.5t-188.5 -39.5z" />
    <glyph glyph-name="Cdotaccent" unicode="&#x10a;" horiz-adv-x="1371" 
d="M1080 1793q-42 0 -76 21t-53.5 55.5t-19.5 74.5q0 41 19.5 75t53.5 54.5t76 20.5t76 -20.5t54.5 -54.5t20.5 -75q0 -40 -20.5 -74.5t-54.5 -55.5t-76 -21zM647 -20q-162 0 -283.5 64.5t-189 183.5t-67.5 282q0 205 69.5 387.5t192 322.5t281.5 220t339 80
q124 0 217.5 -52.5t144 -152.5t45.5 -243h-15q2 109 -27 187.5t-79.5 129t-114.5 74.5t-133 24q-103 0 -189.5 -51.5t-157 -139.5t-124.5 -200.5t-90 -237t-54.5 -248t-18.5 -232.5q0 -99 28 -182t90.5 -133.5t166.5 -50.5q125 0 233.5 55t195 149.5t143.5 211.5h15
q-52 -123 -142.5 -225t-211.5 -162.5t-264 -60.5zM1143 0l-95 138q41 39 83.5 85.5t81.5 115.5l37 89h25l-110 -428h-22zM1381 1072l3 78q-8 63 -23.5 112.5t-46.5 95.5l169 142h22l-99 -428h-25z" />
    <glyph glyph-name="cdotaccent" unicode="&#x10b;" horiz-adv-x="927" 
d="M724 1213q-42 0 -76 21t-53.5 55.5t-19.5 74.5q0 41 19.5 75t53.5 54.5t76 20.5t76 -20.5t54.5 -54.5t20.5 -75q0 -40 -20.5 -74.5t-54.5 -55.5t-76 -21zM371 -20q-152 0 -233.5 86t-81.5 228q0 117 45.5 231.5t125.5 208t183 150t218 56.5q87 0 150 -32t98 -80t35 -96
q0 -62 -37.5 -100t-92.5 -38q-48 0 -87 29t-39 90q0 53 36 88.5t86 35.5q33 0 63 -10.5t49.5 -33.5t19.5 -61h-22q0 43 -31.5 83t-82 66t-110.5 26q-71 0 -132.5 -50t-110 -132t-83.5 -178.5t-53.5 -192t-18.5 -169.5q0 -79 36 -124.5t104 -45.5q82 0 154 35.5t130.5 94
t101.5 127.5l22 -13q-43 -72 -106.5 -136t-147 -103.5t-188.5 -39.5z" />
    <glyph glyph-name="Ccaron" unicode="&#x10c;" horiz-adv-x="1371" 
d="M952 1700l-195 251l16 16l260 -147l340 145l14 -14l-283 -251h-152zM647 -20q-162 0 -283.5 64.5t-189 183.5t-67.5 282q0 205 69.5 387.5t192 322.5t281.5 220t339 80q124 0 217.5 -52.5t144 -152.5t45.5 -243h-15q2 109 -27 187.5t-79.5 129t-114.5 74.5t-133 24
q-103 0 -189.5 -51.5t-157 -139.5t-124.5 -200.5t-90 -237t-54.5 -248t-18.5 -232.5q0 -99 28 -182t90.5 -133.5t166.5 -50.5q125 0 233.5 55t195 149.5t143.5 211.5h15q-52 -123 -142.5 -225t-211.5 -162.5t-264 -60.5zM1143 0l-95 138q41 39 83.5 85.5t81.5 115.5l37 89
h25l-110 -428h-22zM1381 1072l3 78q-8 63 -23.5 112.5t-46.5 95.5l169 142h22l-99 -428h-25z" />
    <glyph glyph-name="ccaron" unicode="&#x10d;" horiz-adv-x="927" 
d="M596 1120l-195 251l16 16l260 -147l340 145l14 -14l-283 -251h-152zM371 -20q-152 0 -233.5 86t-81.5 228q0 117 45.5 231.5t125.5 208t183 150t218 56.5q87 0 150 -32t98 -80t35 -96q0 -62 -37.5 -100t-92.5 -38q-48 0 -87 29t-39 90q0 53 36 88.5t86 35.5
q33 0 63 -10.5t49.5 -33.5t19.5 -61h-22q0 43 -31.5 83t-82 66t-110.5 26q-71 0 -132.5 -50t-110 -132t-83.5 -178.5t-53.5 -192t-18.5 -169.5q0 -79 36 -124.5t104 -45.5q82 0 154 35.5t130.5 94t101.5 127.5l22 -13q-43 -72 -106.5 -136t-147 -103.5t-188.5 -39.5z" />
    <glyph glyph-name="Dcaron" unicode="&#x10e;" horiz-adv-x="1464" 
d="M759 1700l-195 251l16 16l260 -147l340 145l14 -14l-283 -251h-152zM-73 0v25h618q102 0 188.5 50.5t156.5 137t123 196t88.5 229t54 235.5t18.5 215q0 69 -14 137.5t-47.5 125t-90.5 90.5t-143 34h-632v25h650q163 0 291.5 -59t203 -175t74.5 -288q0 -198 -69 -374.5
t-191 -312.5t-285 -213.5t-352 -77.5h-642zM107 0l340 1500h262l-340 -1500h-262z" />
    <glyph glyph-name="dcaron" unicode="&#x10f;" horiz-adv-x="1133" 
d="M1190 966v24q70 0 140.5 30t128.5 82.5t90.5 121t26.5 144.5h22q0 -39 -24 -68t-60 -44t-75 -15q-73 0 -110.5 39t-37.5 95q0 38 20.5 71.5t56 53.5t77.5 20q67 0 111.5 -44t44.5 -129q0 -77 -35.5 -146t-94.5 -122t-132 -83t-149 -30zM762 -20q-81 0 -119.5 41
t-38.5 107q0 11 1 26.5t4 30.5l28 148l58 165l10 121l230 856h-163v25h389l-375 -1411q-4 -15 -4 -31q0 -13 7.5 -24t26.5 -11q39 0 77.5 27t80 92t87.5 177l24 -8q-46 -114 -92.5 -187t-102 -108.5t-128.5 -35.5zM312 -20q-135 0 -196.5 87.5t-61.5 237.5q0 115 42.5 227.5
t114.5 204.5t159.5 147.5t176.5 55.5q66 0 104.5 -35t55 -95t16.5 -134q0 -57 -12.5 -130t-37 -151t-60 -152t-81.5 -133.5t-101 -94.5t-119 -35zM376 42q48 0 95.5 41t89 109.5t73.5 152.5t50.5 170.5t18.5 162.5q0 60 -10.5 106t-34.5 72t-63 26q-45 0 -91 -45.5
t-88 -119.5t-74.5 -163.5t-51.5 -178.5t-19 -162q0 -84 27 -127.5t78 -43.5z" />
    <glyph glyph-name="Dcroat" unicode="&#x110;" horiz-adv-x="1464" 
d="M136 718v24h646v-24h-646zM-73 0v25h618q102 0 188.5 50.5t156.5 137t123 196t88.5 229t54 235.5t18.5 215q0 69 -14 137.5t-47.5 125t-90.5 90.5t-143 34h-632v25h650q163 0 291.5 -59t203 -175t74.5 -288q0 -198 -69 -374.5t-191 -312.5t-285 -213.5t-352 -77.5h-642z
M107 0l340 1500h262l-340 -1500h-262z" />
    <glyph glyph-name="dcroat" unicode="&#x111;" horiz-adv-x="1133" 
d="M557 1128v24h638v-24h-638zM762 -20q-81 0 -119.5 41t-38.5 107q0 11 1 26.5t4 30.5l28 148l58 165l10 121l230 856h-163v25h389l-375 -1411q-4 -15 -4 -31q0 -13 7.5 -24t26.5 -11q39 0 77.5 27t80 92t87.5 177l24 -8q-46 -114 -92.5 -187t-102 -108.5t-128.5 -35.5z
M312 -20q-135 0 -196.5 87.5t-61.5 237.5q0 115 42.5 227.5t114.5 204.5t159.5 147.5t176.5 55.5q66 0 104.5 -35t55 -95t16.5 -134q0 -57 -12.5 -130t-37 -151t-60 -152t-81.5 -133.5t-101 -94.5t-119 -35zM376 42q48 0 95.5 41t89 109.5t73.5 152.5t50.5 170.5t18.5 162.5
q0 60 -10.5 106t-34.5 72t-63 26q-45 0 -91 -45.5t-88 -119.5t-74.5 -163.5t-51.5 -178.5t-19 -162q0 -84 27 -127.5t78 -43.5z" />
    <glyph glyph-name="Emacron" unicode="&#x112;" horiz-adv-x="1208" 
d="M615 1700v25h480v-25h-480zM77 0l348 1500h262l-348 -1500h-262zM-93 0v25h702q137 0 235 53.5t163 149t103 222.5h25l-104 -450h-1124zM790 538q5 67 -16.5 118t-63.5 79t-99 28h-136v25h136q57 0 113.5 26t102.5 74.5t70 115.5h24l-107 -466h-24zM1238 1090
q16 107 -7 194.5t-90 139t-184 51.5h-712v25h1114l-96 -410h-25z" />
    <glyph glyph-name="emacron" unicode="&#x113;" horiz-adv-x="962" 
d="M345 1120v25h480v-25h-480zM367 -20q-104 0 -173.5 41.5t-105 114t-35.5 164.5q0 120 44 234t123.5 206t185.5 146t229 54q128 0 199 -58.5t71 -144.5q0 -76 -49.5 -137t-137.5 -105t-203.5 -70t-247.5 -33v20q78 6 146.5 30.5t124 64.5t95 90t61 106.5t21.5 114.5
q0 38 -15.5 67.5t-56.5 29.5q-49 0 -96.5 -36.5t-90.5 -99t-78.5 -139.5t-62 -160.5t-40.5 -163t-14 -143.5q0 -90 38.5 -124.5t99.5 -34.5q77 0 147.5 32t131.5 90t109 136l22 -14q-44 -72 -107 -135.5t-146 -103t-189 -39.5z" />
    <glyph glyph-name="Ebreve" unicode="&#x114;" horiz-adv-x="1208" 
d="M898 1682q-67 0 -105.5 28.5t-55 73t-17.5 95.5t6 97h24q-6 -46 15.5 -76t62.5 -45t90 -15t101.5 13.5t93 43.5t52.5 79h25q-7 -46 -26 -97t-53.5 -95.5t-86.5 -73t-126 -28.5zM77 0l348 1500h262l-348 -1500h-262zM-93 0v25h702q137 0 235 53.5t163 149t103 222.5h25
l-104 -450h-1124zM790 538q5 67 -16.5 118t-63.5 79t-99 28h-136v25h136q57 0 113.5 26t102.5 74.5t70 115.5h24l-107 -466h-24zM1238 1090q16 107 -7 194.5t-90 139t-184 51.5h-712v25h1114l-96 -410h-25z" />
    <glyph glyph-name="ebreve" unicode="&#x115;" horiz-adv-x="962" 
d="M629 1102q-67 0 -105.5 28.5t-55 73t-17.5 95.5t6 97h24q-6 -46 15.5 -76t62.5 -45t90 -15t101.5 13.5t93 43.5t52.5 79h25q-7 -46 -26 -97t-53.5 -95.5t-86.5 -73t-126 -28.5zM367 -20q-104 0 -173.5 41.5t-105 114t-35.5 164.5q0 120 44 234t123.5 206t185.5 146
t229 54q128 0 199 -58.5t71 -144.5q0 -76 -49.5 -137t-137.5 -105t-203.5 -70t-247.5 -33v20q78 6 146.5 30.5t124 64.5t95 90t61 106.5t21.5 114.5q0 38 -15.5 67.5t-56.5 29.5q-49 0 -96.5 -36.5t-90.5 -99t-78.5 -139.5t-62 -160.5t-40.5 -163t-14 -143.5
q0 -90 38.5 -124.5t99.5 -34.5q77 0 147.5 32t131.5 90t109 136l22 -14q-44 -72 -107 -135.5t-146 -103t-189 -39.5z" />
    <glyph glyph-name="Edotaccent" unicode="&#x116;" horiz-adv-x="1208" 
d="M957 1793q-42 0 -76 21t-53.5 55.5t-19.5 74.5q0 41 19.5 75t53.5 54.5t76 20.5t76 -20.5t54.5 -54.5t20.5 -75q0 -40 -20.5 -74.5t-54.5 -55.5t-76 -21zM77 0l348 1500h262l-348 -1500h-262zM-93 0v25h702q137 0 235 53.5t163 149t103 222.5h25l-104 -450h-1124z
M790 538q5 67 -16.5 118t-63.5 79t-99 28h-136v25h136q57 0 113.5 26t102.5 74.5t70 115.5h24l-107 -466h-24zM1238 1090q16 107 -7 194.5t-90 139t-184 51.5h-712v25h1114l-96 -410h-25z" />
    <glyph glyph-name="edotaccent" unicode="&#x117;" horiz-adv-x="962" 
d="M688 1213q-42 0 -76 21t-53.5 55.5t-19.5 74.5q0 41 19.5 75t53.5 54.5t76 20.5t76 -20.5t54.5 -54.5t20.5 -75q0 -40 -20.5 -74.5t-54.5 -55.5t-76 -21zM367 -20q-104 0 -173.5 41.5t-105 114t-35.5 164.5q0 120 44 234t123.5 206t185.5 146t229 54q128 0 199 -58.5
t71 -144.5q0 -76 -49.5 -137t-137.5 -105t-203.5 -70t-247.5 -33v20q78 6 146.5 30.5t124 64.5t95 90t61 106.5t21.5 114.5q0 38 -15.5 67.5t-56.5 29.5q-49 0 -96.5 -36.5t-90.5 -99t-78.5 -139.5t-62 -160.5t-40.5 -163t-14 -143.5q0 -90 38.5 -124.5t99.5 -34.5
q77 0 147.5 32t131.5 90t109 136l22 -14q-44 -72 -107 -135.5t-146 -103t-189 -39.5z" />
    <glyph glyph-name="Eogonek" unicode="&#x118;" horiz-adv-x="1208" 
d="M736 -451q-57 0 -107 13.5t-81.5 47t-31.5 90.5q0 60 39 110.5t99.5 91t127 70.5t122.5 47l7 -11q-33 -21 -69.5 -61.5t-61.5 -97t-25 -126.5q0 -60 21 -91t54 -31q35 0 63.5 19t49.5 45.5t33 50.5l20 -10q-15 -28 -45.5 -65t-82.5 -64.5t-132 -27.5zM77 0l348 1500h262
l-348 -1500h-262zM-93 0v25h702q137 0 235 53.5t163 149t103 222.5h25l-104 -450h-1124zM790 538q5 67 -16.5 118t-63.5 79t-99 28h-136v25h136q57 0 113.5 26t102.5 74.5t70 115.5h24l-107 -466h-24zM1238 1090q16 107 -7 194.5t-90 139t-184 51.5h-712v25h1114l-96 -410
h-25z" />
    <glyph glyph-name="eogonek" unicode="&#x119;" horiz-adv-x="962" 
d="M350 -451q-57 0 -107 13.5t-81.5 47t-31.5 90.5q0 60 39 110.5t99.5 91t127 70.5t122.5 47l7 -11q-33 -21 -69.5 -61.5t-61.5 -97t-25 -126.5q0 -60 21 -91t54 -31q35 0 63.5 19t49.5 45.5t33 50.5l20 -10q-15 -28 -45.5 -65t-82.5 -64.5t-132 -27.5zM367 -20
q-104 0 -173.5 41.5t-105 114t-35.5 164.5q0 120 44 234t123.5 206t185.5 146t229 54q128 0 199 -58.5t71 -144.5q0 -76 -49.5 -137t-137.5 -105t-203.5 -70t-247.5 -33v20q78 6 146.5 30.5t124 64.5t95 90t61 106.5t21.5 114.5q0 38 -15.5 67.5t-56.5 29.5
q-49 0 -96.5 -36.5t-90.5 -99t-78.5 -139.5t-62 -160.5t-40.5 -163t-14 -143.5q0 -90 38.5 -124.5t99.5 -34.5q77 0 147.5 32t131.5 90t109 136l22 -14q-44 -72 -107 -135.5t-146 -103t-189 -39.5z" />
    <glyph glyph-name="Ecaron" unicode="&#x11a;" horiz-adv-x="1208" 
d="M829 1700l-195 251l16 16l260 -147l340 145l14 -14l-283 -251h-152zM77 0l348 1500h262l-348 -1500h-262zM-93 0v25h702q137 0 235 53.5t163 149t103 222.5h25l-104 -450h-1124zM790 538q5 67 -16.5 118t-63.5 79t-99 28h-136v25h136q57 0 113.5 26t102.5 74.5t70 115.5
h24l-107 -466h-24zM1238 1090q16 107 -7 194.5t-90 139t-184 51.5h-712v25h1114l-96 -410h-25z" />
    <glyph glyph-name="ecaron" unicode="&#x11b;" horiz-adv-x="962" 
d="M560 1120l-195 251l16 16l260 -147l340 145l14 -14l-283 -251h-152zM367 -20q-104 0 -173.5 41.5t-105 114t-35.5 164.5q0 120 44 234t123.5 206t185.5 146t229 54q128 0 199 -58.5t71 -144.5q0 -76 -49.5 -137t-137.5 -105t-203.5 -70t-247.5 -33v20q78 6 146.5 30.5
t124 64.5t95 90t61 106.5t21.5 114.5q0 38 -15.5 67.5t-56.5 29.5q-49 0 -96.5 -36.5t-90.5 -99t-78.5 -139.5t-62 -160.5t-40.5 -163t-14 -143.5q0 -90 38.5 -124.5t99.5 -34.5q77 0 147.5 32t131.5 90t109 136l22 -14q-44 -72 -107 -135.5t-146 -103t-189 -39.5z" />
    <glyph glyph-name="Gcircumflex" unicode="&#x11c;" horiz-adv-x="1525" 
d="M752 1705l-14 14l282 250h154l195 -250l-15 -15l-261 145zM647 -20q-159 0 -281 62t-190.5 180.5t-68.5 287.5q0 168 47.5 319t133 277.5t199 219t246 143.5t274.5 51q124 0 220 -52.5t148 -152.5t44 -243h-14q4 104 -24.5 181.5t-79 128.5t-116.5 76.5t-140 25.5
q-125 0 -227.5 -69.5t-181.5 -186.5t-133.5 -260.5t-82 -293.5t-27.5 -283q0 -102 21.5 -190t75 -142t148.5 -54q77 0 136.5 28t103.5 69t73 82t44 66l83 317h280l-61 -237q-34 -47 -93.5 -107t-143 -115.5t-187.5 -91.5t-226 -36zM889 557v25h600v-25h-600zM1406 1072l3 72
q-5 55 -23.5 114t-53.5 108l175 134h22l-100 -428h-23z" />
    <glyph glyph-name="gcircumflex" unicode="&#x11d;" horiz-adv-x="1204" 
d="M379 1135l-14 14l282 250h154l195 -250l-15 -15l-261 145zM296 -520q-140 0 -231 31t-134 85.5t-43 123.5q0 54 32.5 101t84 82.5t110 56t110.5 20.5h31q-56 -10 -98.5 -47t-67.5 -93t-25 -123q0 -98 61 -152.5t185 -54.5q109 0 206.5 26t172 72.5t116.5 107t42 128.5
q0 57 -36.5 82.5t-102.5 25.5h-60h-94.5h-103.5h-90h-52q-90 0 -158.5 24.5t-107.5 69.5t-39 106q0 53 30.5 95t82.5 72.5t119.5 46t142.5 15.5l-1 -15q-99 0 -149 -39.5t-50 -82.5q0 -40 28 -61t72 -29t91 -8q35 0 85.5 0.5t99.5 1t77 0.5q120 0 198.5 -51.5t78.5 -180.5
q0 -109 -54 -191t-144 -136.5t-198.5 -81.5t-216.5 -27zM514 320q-91 0 -163.5 33t-114 94t-41.5 146q0 96 58 174.5t154 125t207 46.5q92 0 164 -35t113.5 -98.5t41.5 -148.5q0 -95 -58 -171.5t-153 -121t-208 -44.5zM488 346q34 0 69 31.5t67 83.5t57 112.5t39.5 118.5
t14.5 102q0 51 -22.5 85t-72.5 34q-34 0 -69 -31.5t-67 -83t-57 -111.5t-39.5 -118.5t-14.5 -101.5q0 -51 23 -86t72 -35zM1061 930q62 0 104 -38.5t42 -102.5q0 -50 -30 -85.5t-82 -35.5q-45 0 -78 29.5t-33 78.5q0 44 29 71.5t68 31.5q27 -2 50 -16.5t34 -40.5
q-9 39 -40.5 61t-72.5 22q-48 0 -88.5 -23.5t-76.5 -69.5t-69 -113l-18 10q53 111 116 166t145 55z" />
    <glyph glyph-name="Gbreve" unicode="&#x11e;" horiz-adv-x="1525" 
d="M1049 1682q-67 0 -105.5 28.5t-55 73t-17.5 95.5t6 97h24q-6 -46 15.5 -76t62.5 -45t90 -15t101.5 13.5t93 43.5t52.5 79h25q-7 -46 -26 -97t-53.5 -95.5t-86.5 -73t-126 -28.5zM647 -20q-159 0 -281 62t-190.5 180.5t-68.5 287.5q0 168 47.5 319t133 277.5t199 219
t246 143.5t274.5 51q124 0 220 -52.5t148 -152.5t44 -243h-14q4 104 -24.5 181.5t-79 128.5t-116.5 76.5t-140 25.5q-125 0 -227.5 -69.5t-181.5 -186.5t-133.5 -260.5t-82 -293.5t-27.5 -283q0 -102 21.5 -190t75 -142t148.5 -54q77 0 136.5 28t103.5 69t73 82t44 66
l83 317h280l-61 -237q-34 -47 -93.5 -107t-143 -115.5t-187.5 -91.5t-226 -36zM889 557v25h600v-25h-600zM1406 1072l3 72q-5 55 -23.5 114t-53.5 108l175 134h22l-100 -428h-23z" />
    <glyph glyph-name="gbreve" unicode="&#x11f;" horiz-adv-x="1204" 
d="M676 1112q-67 0 -105.5 28.5t-55 73t-17.5 95.5t6 97h24q-6 -46 15.5 -76t62.5 -45t90 -15t101.5 13.5t93 43.5t52.5 79h25q-7 -46 -26 -97t-53.5 -95.5t-86.5 -73t-126 -28.5zM296 -520q-140 0 -231 31t-134 85.5t-43 123.5q0 54 32.5 101t84 82.5t110 56t110.5 20.5h31
q-56 -10 -98.5 -47t-67.5 -93t-25 -123q0 -98 61 -152.5t185 -54.5q109 0 206.5 26t172 72.5t116.5 107t42 128.5q0 57 -36.5 82.5t-102.5 25.5h-60h-94.5h-103.5h-90h-52q-90 0 -158.5 24.5t-107.5 69.5t-39 106q0 53 30.5 95t82.5 72.5t119.5 46t142.5 15.5l-1 -15
q-99 0 -149 -39.5t-50 -82.5q0 -40 28 -61t72 -29t91 -8q35 0 85.5 0.5t99.5 1t77 0.5q120 0 198.5 -51.5t78.5 -180.5q0 -109 -54 -191t-144 -136.5t-198.5 -81.5t-216.5 -27zM514 320q-91 0 -163.5 33t-114 94t-41.5 146q0 96 58 174.5t154 125t207 46.5q92 0 164 -35
t113.5 -98.5t41.5 -148.5q0 -95 -58 -171.5t-153 -121t-208 -44.5zM488 346q34 0 69 31.5t67 83.5t57 112.5t39.5 118.5t14.5 102q0 51 -22.5 85t-72.5 34q-34 0 -69 -31.5t-67 -83t-57 -111.5t-39.5 -118.5t-14.5 -101.5q0 -51 23 -86t72 -35zM1061 930q62 0 104 -38.5
t42 -102.5q0 -50 -30 -85.5t-82 -35.5q-45 0 -78 29.5t-33 78.5q0 44 29 71.5t68 31.5q27 -2 50 -16.5t34 -40.5q-9 39 -40.5 61t-72.5 22q-48 0 -88.5 -23.5t-76.5 -69.5t-69 -113l-18 10q53 111 116 166t145 55z" />
    <glyph glyph-name="Gdotaccent" unicode="&#x120;" horiz-adv-x="1525" 
d="M1108 1793q-42 0 -76 21t-53.5 55.5t-19.5 74.5q0 41 19.5 75t53.5 54.5t76 20.5t76 -20.5t54.5 -54.5t20.5 -75q0 -40 -20.5 -74.5t-54.5 -55.5t-76 -21zM647 -20q-159 0 -281 62t-190.5 180.5t-68.5 287.5q0 168 47.5 319t133 277.5t199 219t246 143.5t274.5 51
q124 0 220 -52.5t148 -152.5t44 -243h-14q4 104 -24.5 181.5t-79 128.5t-116.5 76.5t-140 25.5q-125 0 -227.5 -69.5t-181.5 -186.5t-133.5 -260.5t-82 -293.5t-27.5 -283q0 -102 21.5 -190t75 -142t148.5 -54q77 0 136.5 28t103.5 69t73 82t44 66l83 317h280l-61 -237
q-34 -47 -93.5 -107t-143 -115.5t-187.5 -91.5t-226 -36zM889 557v25h600v-25h-600zM1406 1072l3 72q-5 55 -23.5 114t-53.5 108l175 134h22l-100 -428h-23z" />
    <glyph glyph-name="gdotaccent" unicode="&#x121;" horiz-adv-x="1204" 
d="M735 1223q-42 0 -76 21t-53.5 55.5t-19.5 74.5q0 41 19.5 75t53.5 54.5t76 20.5t76 -20.5t54.5 -54.5t20.5 -75q0 -40 -20.5 -74.5t-54.5 -55.5t-76 -21zM296 -520q-140 0 -231 31t-134 85.5t-43 123.5q0 54 32.5 101t84 82.5t110 56t110.5 20.5h31q-56 -10 -98.5 -47
t-67.5 -93t-25 -123q0 -98 61 -152.5t185 -54.5q109 0 206.5 26t172 72.5t116.5 107t42 128.5q0 57 -36.5 82.5t-102.5 25.5h-60h-94.5h-103.5h-90h-52q-90 0 -158.5 24.5t-107.5 69.5t-39 106q0 53 30.5 95t82.5 72.5t119.5 46t142.5 15.5l-1 -15q-99 0 -149 -39.5
t-50 -82.5q0 -40 28 -61t72 -29t91 -8q35 0 85.5 0.5t99.5 1t77 0.5q120 0 198.5 -51.5t78.5 -180.5q0 -109 -54 -191t-144 -136.5t-198.5 -81.5t-216.5 -27zM514 320q-91 0 -163.5 33t-114 94t-41.5 146q0 96 58 174.5t154 125t207 46.5q92 0 164 -35t113.5 -98.5
t41.5 -148.5q0 -95 -58 -171.5t-153 -121t-208 -44.5zM488 346q34 0 69 31.5t67 83.5t57 112.5t39.5 118.5t14.5 102q0 51 -22.5 85t-72.5 34q-34 0 -69 -31.5t-67 -83t-57 -111.5t-39.5 -118.5t-14.5 -101.5q0 -51 23 -86t72 -35zM1061 930q62 0 104 -38.5t42 -102.5
q0 -50 -30 -85.5t-82 -35.5q-45 0 -78 29.5t-33 78.5q0 44 29 71.5t68 31.5q27 -2 50 -16.5t34 -40.5q-9 39 -40.5 61t-72.5 22q-48 0 -88.5 -23.5t-76.5 -69.5t-69 -113l-18 10q53 111 116 166t145 55z" />
    <glyph glyph-name="uni0122" unicode="&#x122;" horiz-adv-x="1525" 
d="M363 -674v21q61 0 123 25.5t112.5 70t79 103.5t23.5 126h20q0 -35 -21 -60.5t-53 -38.5t-65 -13q-65 0 -98.5 34.5t-33.5 84.5q0 33 18.5 62t49.5 47t68 18q58 0 97.5 -39t39.5 -112q0 -68 -31 -127.5t-83 -105t-116 -71t-130 -25.5zM647 -20q-159 0 -281 62
t-190.5 180.5t-68.5 287.5q0 168 47.5 319t133 277.5t199 219t246 143.5t274.5 51q124 0 220 -52.5t148 -152.5t44 -243h-14q4 104 -24.5 181.5t-79 128.5t-116.5 76.5t-140 25.5q-125 0 -227.5 -69.5t-181.5 -186.5t-133.5 -260.5t-82 -293.5t-27.5 -283q0 -102 21.5 -190
t75 -142t148.5 -54q77 0 136.5 28t103.5 69t73 82t44 66l83 317h280l-61 -237q-34 -47 -93.5 -107t-143 -115.5t-187.5 -91.5t-226 -36zM889 557v25h600v-25h-600zM1406 1072l3 72q-5 55 -23.5 114t-53.5 108l175 134h22l-100 -428h-23z" />
    <glyph glyph-name="uni0123" unicode="&#x123;" horiz-adv-x="1204" 
d="M688 1115q-57 0 -97 39t-40 113q0 68 31 127.5t83.5 105t116.5 71t130 25.5v-21q-62 0 -123.5 -25.5t-112 -70.5t-79.5 -104t-24 -126h-19q0 36 21 61.5t53 38.5t65 13q65 0 98 -34.5t33 -84.5q0 -33 -18 -62t-49 -47.5t-69 -18.5zM296 -520q-140 0 -231 31t-134 85.5
t-43 123.5q0 54 32.5 101t84 82.5t110 56t110.5 20.5h31q-56 -10 -98.5 -47t-67.5 -93t-25 -123q0 -98 61 -152.5t185 -54.5q109 0 206.5 26t172 72.5t116.5 107t42 128.5q0 57 -36.5 82.5t-102.5 25.5h-60h-94.5h-103.5h-90h-52q-90 0 -158.5 24.5t-107.5 69.5t-39 106
q0 53 30.5 95t82.5 72.5t119.5 46t142.5 15.5l-1 -15q-99 0 -149 -39.5t-50 -82.5q0 -40 28 -61t72 -29t91 -8q35 0 85.5 0.5t99.5 1t77 0.5q120 0 198.5 -51.5t78.5 -180.5q0 -109 -54 -191t-144 -136.5t-198.5 -81.5t-216.5 -27zM514 320q-91 0 -163.5 33t-114 94
t-41.5 146q0 96 58 174.5t154 125t207 46.5q92 0 164 -35t113.5 -98.5t41.5 -148.5q0 -95 -58 -171.5t-153 -121t-208 -44.5zM488 346q34 0 69 31.5t67 83.5t57 112.5t39.5 118.5t14.5 102q0 51 -22.5 85t-72.5 34q-34 0 -69 -31.5t-67 -83t-57 -111.5t-39.5 -118.5
t-14.5 -101.5q0 -51 23 -86t72 -35zM1061 930q62 0 104 -38.5t42 -102.5q0 -50 -30 -85.5t-82 -35.5q-45 0 -78 29.5t-33 78.5q0 44 29 71.5t68 31.5q27 -2 50 -16.5t34 -40.5q-9 39 -40.5 61t-72.5 22q-48 0 -88.5 -23.5t-76.5 -69.5t-69 -113l-18 10q53 111 116 166
t145 55z" />
    <glyph glyph-name="Hcircumflex" unicode="&#x124;" horiz-adv-x="1508" 
d="M718 1705l-14 14l282 250h154l195 -250l-15 -15l-261 145zM424 727v25h720v-25h-720zM853 1475h-170l-328 -1450h168v-25h-606v25h176l328 1450h-174v25h606v-25zM1699 1500v-25h-176l-328 -1450h174v-25h-606v25h170l328 1450h-168v25h606z" />
    <glyph glyph-name="hcircumflex" unicode="&#x125;" horiz-adv-x="1149" 
d="M578 1604l-14 14l282 250h154l195 -250l-15 -15l-261 145zM23 0l395 1475h-156v25h386l-400 -1500h-225zM768 -20q-78 0 -123 38.5t-45 102.5q0 18 5 41.5t12 48.5l120 413q23 83 31.5 139t-4 84.5t-52.5 28.5t-94 -49t-110.5 -133.5t-106.5 -194.5t-83 -233h-15
q22 84 58 177t83 181t103 159t118 113.5t128 42.5q84 0 130 -40.5t55.5 -108t-14.5 -151.5l-154 -536q-2 -7 -3.5 -17.5t-1.5 -18.5q0 -37 34 -37q63 0 122 69t120 220l24 -8q-47 -119 -96 -191.5t-107.5 -106t-133.5 -33.5z" />
    <glyph glyph-name="Hbar" unicode="&#x126;" horiz-adv-x="1508" 
d="M214 1098v24h1441v-24h-1441zM424 727v25h720v-25h-720zM853 1475h-170l-328 -1450h168v-25h-606v25h176l328 1450h-174v25h606v-25zM1699 1500v-25h-176l-328 -1450h174v-25h-606v25h170l328 1450h-168v25h606z" />
    <glyph glyph-name="hbar" unicode="&#x127;" horiz-adv-x="1149" 
d="M136 1178v24h612v-24h-612zM23 0l395 1475h-156v25h386l-400 -1500h-225zM768 -20q-78 0 -123 38.5t-45 102.5q0 18 5 41.5t12 48.5l120 413q23 83 31.5 139t-4 84.5t-52.5 28.5t-94 -49t-110.5 -133.5t-106.5 -194.5t-83 -233h-15q22 84 58 177t83 181t103 159
t118 113.5t128 42.5q84 0 130 -40.5t55.5 -108t-14.5 -151.5l-154 -536q-2 -7 -3.5 -17.5t-1.5 -18.5q0 -37 34 -37q63 0 122 69t120 220l24 -8q-47 -119 -96 -191.5t-107.5 -106t-133.5 -33.5z" />
    <glyph glyph-name="Itilde" unicode="&#x128;" horiz-adv-x="768" 
d="M847 1662q-59 0 -104 24t-83.5 55t-76.5 55t-83 24q-52 0 -87 -26.5t-64 -93.5h-25q20 85 59 146t91 93.5t110 32.5q53 0 96 -24t81 -55t74 -55t75 -24q53 0 88 27t64 93h25q-20 -95 -54.5 -155t-81 -88.5t-104.5 -28.5zM137 0l340 1500h262l-340 -1500h-262zM-83 0v25
h712v-25h-712zM247 1475v25h712v-25h-712z" />
    <glyph glyph-name="itilde" unicode="&#x129;" horiz-adv-x="700" 
d="M633 1082q-59 0 -104 24t-83.5 55t-76.5 55t-83 24q-52 0 -87 -26.5t-64 -93.5h-25q20 85 59 146t91 93.5t110 32.5q53 0 96 -24t81 -55t74 -55t75 -24q53 0 88 27t64 93h25q-20 -95 -54.5 -155t-81 -88.5t-104.5 -28.5zM269 -20q-85 0 -127.5 37t-42.5 117q0 11 1 25.5
t3 24.5l167 711h-142v25h386l-195 -816q-2 -9 -3.5 -18.5t-1.5 -17.5q0 -16 8.5 -28t26.5 -12q50 0 101.5 39.5t97 108.5t78.5 156l24 -8q-60 -153 -154 -248.5t-227 -95.5z" />
    <glyph glyph-name="Imacron" unicode="&#x12a;" horiz-adv-x="768" 
d="M365 1700v25h480v-25h-480zM137 0l340 1500h262l-340 -1500h-262zM-83 0v25h712v-25h-712zM247 1475v25h712v-25h-712z" />
    <glyph glyph-name="imacron" unicode="&#x12b;" horiz-adv-x="700" 
d="M150 1120v25h480v-25h-480zM269 -20q-85 0 -127.5 37t-42.5 117q0 11 1 25.5t3 24.5l167 711h-142v25h386l-195 -816q-2 -9 -3.5 -18.5t-1.5 -17.5q0 -16 8.5 -28t26.5 -12q50 0 101.5 39.5t97 108.5t78.5 156l24 -8q-60 -153 -154 -248.5t-227 -95.5z" />
    <glyph glyph-name="Ibreve" unicode="&#x12c;" horiz-adv-x="768" 
d="M648 1682q-67 0 -105.5 28.5t-55 73t-17.5 95.5t6 97h24q-6 -46 15.5 -76t62.5 -45t90 -15t101.5 13.5t93 43.5t52.5 79h25q-7 -46 -26 -97t-53.5 -95.5t-86.5 -73t-126 -28.5zM137 0l340 1500h262l-340 -1500h-262zM-83 0v25h712v-25h-712zM247 1475v25h712v-25h-712z
" />
    <glyph glyph-name="ibreve" unicode="&#x12d;" horiz-adv-x="700" 
d="M434 1102q-67 0 -105.5 28.5t-55 73t-17.5 95.5t6 97h24q-6 -46 15.5 -76t62.5 -45t90 -15t101.5 13.5t93 43.5t52.5 79h25q-7 -46 -26 -97t-53.5 -95.5t-86.5 -73t-126 -28.5zM269 -20q-85 0 -127.5 37t-42.5 117q0 11 1 25.5t3 24.5l167 711h-142v25h386l-195 -816
q-2 -9 -3.5 -18.5t-1.5 -17.5q0 -16 8.5 -28t26.5 -12q50 0 101.5 39.5t97 108.5t78.5 156l24 -8q-60 -153 -154 -248.5t-227 -95.5z" />
    <glyph glyph-name="Iogonek" unicode="&#x12e;" horiz-adv-x="768" 
d="M147 -451q-57 0 -107 13.5t-81.5 47t-31.5 90.5q0 60 39 110.5t99.5 91t127 70.5t122.5 47l7 -11q-33 -21 -69.5 -61.5t-61.5 -97t-25 -126.5q0 -60 21 -91t54 -31q35 0 63.5 19t49.5 45.5t33 50.5l20 -10q-15 -28 -45.5 -65t-82.5 -64.5t-132 -27.5zM137 0l340 1500h262
l-340 -1500h-262zM-83 0v25h712v-25h-712zM247 1475v25h712v-25h-712z" />
    <glyph glyph-name="iogonek" unicode="&#x12f;" horiz-adv-x="700" 
d="M223 -451q-57 0 -107 13.5t-81.5 47t-31.5 90.5q0 60 39 110.5t99.5 91t127 70.5t122.5 47l7 -11q-33 -21 -69.5 -61.5t-61.5 -97t-25 -126.5q0 -60 21 -91t54 -31q35 0 63.5 19t49.5 45.5t33 50.5l20 -10q-15 -28 -45.5 -65t-82.5 -64.5t-132 -27.5zM493 1213
q-42 0 -76 21t-53.5 55.5t-19.5 74.5q0 41 19.5 75t53.5 54.5t76 20.5t76 -20.5t54.5 -54.5t20.5 -75q0 -40 -20.5 -74.5t-54.5 -55.5t-76 -21zM269 -20q-85 0 -127.5 37t-42.5 117q0 11 1 25.5t3 24.5l167 711h-142v25h386l-195 -816q-2 -9 -3.5 -18.5t-1.5 -17.5
q0 -16 8.5 -28t26.5 -12q50 0 101.5 39.5t97 108.5t78.5 156l24 -8q-60 -153 -154 -248.5t-227 -95.5z" />
    <glyph glyph-name="Idotaccent" unicode="&#x130;" horiz-adv-x="768" 
d="M707 1793q-42 0 -76 21t-53.5 55.5t-19.5 74.5q0 41 19.5 75t53.5 54.5t76 20.5t76 -20.5t54.5 -54.5t20.5 -75q0 -40 -20.5 -74.5t-54.5 -55.5t-76 -21zM137 0l340 1500h262l-340 -1500h-262zM-83 0v25h712v-25h-712zM247 1475v25h712v-25h-712z" />
    <glyph glyph-name="dotlessi" unicode="&#x131;" horiz-adv-x="700" 
d="M269 -20q-85 0 -127.5 37t-42.5 117q0 11 1 25.5t3 24.5l167 711h-142v25h386l-195 -816q-2 -9 -3.5 -18.5t-1.5 -17.5q0 -16 8.5 -28t26.5 -12q50 0 101.5 39.5t97 108.5t78.5 156l24 -8q-60 -153 -154 -248.5t-227 -95.5z" />
    <glyph glyph-name="IJ" unicode="&#x132;" horiz-adv-x="1844" 
d="M137 0l340 1500h262l-340 -1500h-262zM-83 0v25h712v-25h-712zM247 1475v25h712v-25h-712zM1028 -61q-88 0 -153 34.5t-101 90.5t-36 121q0 51 21.5 88t56 56.5t73.5 19.5q34 0 69 -16.5t58.5 -50.5t23.5 -84q0 -46 -21.5 -78t-56 -49t-73.5 -17q-35 0 -69.5 17t-57 46.5
t-22.5 67.5h23q1 -46 20.5 -85t53 -69t78 -46.5t93.5 -16.5q60 0 102 47.5t74 139.5t63 225l260 1120h261l-260 -1160q-38 -63 -87.5 -132.5t-109.5 -130.5t-131 -99.5t-152 -38.5zM1242 1475v25h726v-25h-726z" />
    <glyph glyph-name="ij" unicode="&#x133;" horiz-adv-x="1204" 
d="M238 -20q-89 0 -129.5 36.5t-40.5 97.5q0 22 4 43t8 37l197 701h-146v25h369l-230 -829q-2 -8 -3 -16.5t-1 -16.5q0 -14 7 -24.5t25 -10.5q40 0 79 27t80 92t88 177l24 -8q-46 -114 -92.5 -187t-103.5 -108.5t-135 -35.5zM481 1212q-42 0 -76 21t-53.5 55.5t-19.5 74.5
q0 41 19.5 75t53.5 54.5t76 20.5t76 -20.5t54.5 -54.5t20.5 -75q0 -40 -20.5 -74.5t-54.5 -55.5t-76 -21zM335 -520q-64 0 -116 23.5t-82.5 62.5t-30.5 87q0 43 18.5 74.5t49 48t67.5 16.5q57 0 95 -35t38 -93q0 -47 -34.5 -85t-95.5 -38q-54 0 -95 32t-41 80h23
q0 -40 28 -74t75 -55t103 -21q70 0 116 53.5t78.5 146t61.5 210.5l242 982h-133v25h362l-242 -943q-27 -104 -75.5 -194.5t-113 -158.5t-140 -106t-158.5 -38zM1032 1219q-62 0 -106 44.5t-44 106.5q0 64 44 107t106 43q64 0 106.5 -43t42.5 -107q0 -62 -42.5 -106.5
t-106.5 -44.5z" />
    <glyph glyph-name="Jcircumflex" unicode="&#x134;" horiz-adv-x="974" 
d="M556 1705l-14 14l282 250h154l195 -250l-15 -15l-261 145zM226 -61q-88 0 -153 34.5t-101 90.5t-36 121q0 51 21.5 88t56 56.5t73.5 19.5q34 0 69 -16.5t58.5 -50.5t23.5 -84q0 -46 -21.5 -78t-56 -49t-73.5 -17q-35 0 -69.5 17t-57 46.5t-22.5 67.5h23q1 -46 20.5 -85
t53 -69t78 -46.5t93.5 -16.5q60 0 102 47.5t74 139.5t63 225l260 1120h261l-260 -1160q-38 -63 -87.5 -132.5t-109.5 -130.5t-131 -99.5t-152 -38.5zM440 1475v25h726v-25h-726z" />
    <glyph glyph-name="jcircumflex" unicode="&#x135;" horiz-adv-x="650" 
d="M178 1125l-14 14l282 250h154l195 -250l-15 -15l-261 145zM-111 -520q-84 0 -142.5 31t-90 82t-31.5 110q0 47 21 82t54 54t69 19q31 0 63.5 -14t55 -43t22.5 -75q0 -33 -18 -64t-49 -51t-72 -20q-35 0 -68 13.5t-54.5 38.5t-21.5 60h24q0 -54 28 -99.5t80 -72.5t124 -27
q68 0 109 48.5t64.5 127.5t39 173.5t32.5 186.5l170 855h-188v25h430l-188 -943q-19 -95 -57 -183.5t-96 -159.5t-135 -112.5t-175 -41.5z" />
    <glyph glyph-name="uni0136" unicode="&#x136;" horiz-adv-x="1448" 
d="M314 -674v21q61 0 123 25.5t112.5 70t79 103.5t23.5 126h20q0 -35 -21 -60.5t-53 -38.5t-65 -13q-65 0 -98.5 34.5t-33.5 84.5q0 33 18.5 62t49.5 47t68 18q58 0 97.5 -39t39.5 -112q0 -68 -31 -127.5t-83 -105t-116 -71t-130 -25.5zM276 434l1078 1064h36l-1077 -1064
h-37zM-83 0v25h606v-25h-606zM645 0v25h678v-25h-678zM87 0l340 1500h262l-340 -1500h-262zM864 0l-251 759l211 195l333 -954h-293zM247 1475v25h618v-25h-618zM1089 1475v25h480v-25h-480z" />
    <glyph glyph-name="uni0137" unicode="&#x137;" horiz-adv-x="1049" 
d="M206 -674v21q61 0 123 25.5t112.5 70t79 103.5t23.5 126h20q0 -35 -21 -60.5t-53 -38.5t-65 -13q-65 0 -98.5 34.5t-33.5 84.5q0 33 18.5 62t49.5 47t68 18q58 0 97.5 -39t39.5 -112q0 -68 -31 -127.5t-83 -105t-116 -71t-130 -25.5zM23 0l396 1475h-180v25h409
l-412 -1500h-213zM662 -20q-70 0 -109.5 34t-39.5 102q0 15 3 34.5t8 34.5l26 103q10 42 24 90t17.5 91t-13 70.5t-65.5 27.5q-57 0 -90.5 -29.5t-52 -73t-30.5 -84.5h-15q22 87 53.5 132t71 61t83.5 16q54 0 101 -20t78.5 -61.5t41.5 -104.5t-6 -151l-37 -166
q-1 -5 -1.5 -11.5t-0.5 -9.5q0 -30 33 -30q35 0 75.5 29.5t83 94.5t84.5 170l24 -9q-67 -169 -149.5 -254.5t-197.5 -85.5zM438 461q-21 0 -39 5.5t-29 14.5l9 24q10 -10 24 -15t35 -5q39 0 67.5 33t53.5 86.5t51 115.5q44 102 101.5 160.5t146.5 58.5q50 0 87 -22t57.5 -60
t20.5 -85q0 -60 -38.5 -96.5t-89.5 -36.5q-53 0 -88.5 33t-35.5 91q0 51 34.5 85t85.5 34q28 0 58.5 -13.5t51 -38t20.5 -58.5h-24q0 40 -16.5 72.5t-48 52t-75.5 19.5q-76 0 -128.5 -53t-92.5 -149q-28 -65 -56 -123t-62 -94t-80 -36z" />
    <glyph glyph-name="kgreenlandic" unicode="&#x138;" horiz-adv-x="1170" 
d="M84 0l206 886h-171v34h422l-220 -920h-237zM749 -20q-80 0 -123.5 37t-43.5 115q0 11 1.5 26t3.5 25l24 107q9 44 22.5 91t17.5 87.5t-11.5 66t-62.5 25.5q-60 0 -92.5 -30.5t-48.5 -72.5t-25 -77h-20q22 92 56.5 136.5t77.5 58.5t90 14q53 0 101 -18t81.5 -57.5
t44 -104.5t-11.5 -160l-37 -169q-2 -8 -2 -17q0 -32 38 -32q43 0 91 34t94 101t85 166l23 -8q-64 -166 -155.5 -255t-217.5 -89zM511 462q-21 0 -39.5 6.5t-29.5 14.5l9 24q10 -10 24.5 -15.5t35.5 -5.5q40 0 68.5 32.5t53 86t50.5 117.5q43 102 100.5 159.5t142.5 57.5
q35 0 67.5 -12t58 -36t40.5 -59t15 -79q0 -65 -40 -101.5t-90 -36.5q-31 0 -59.5 15.5t-46.5 43.5t-18 66q0 53 37.5 86t89.5 33q25 0 54 -12t50 -35.5t21 -58.5h-23q0 39 -13 69t-34.5 51t-49.5 31.5t-58 10.5q-72 0 -126 -51.5t-93 -148.5q-27 -68 -54.5 -125.5t-61 -92.5
t-81.5 -35z" />
    <glyph glyph-name="Lacute" unicode="&#x139;" horiz-adv-x="1187" 
d="M482 1683l-13 16l178 236q20 27 44.5 38t49 9.5t45 -13t31.5 -28.5q17 -26 14 -58t-23 -58.5t-55 -37.5zM77 0l348 1500h262l-348 -1500h-262zM-93 0v25h683q157 0 256.5 53.5t159 149t97.5 222.5h25l-104 -450h-1117zM245 1475v25h622v-25h-622z" />
    <glyph glyph-name="lacute" unicode="&#x13a;" horiz-adv-x="598" 
d="M373 1683l-13 16l178 236q20 27 44.5 38t49 9.5t45 -13t31.5 -28.5q17 -26 14 -58t-23 -58.5t-55 -37.5zM222 -20q-89 0 -131 37t-42 97q0 25 4 45.5t8 34.5l346 1281h-179v25h403l-380 -1410q-2 -9 -3 -17.5t-1 -15.5q0 -34 33 -34q39 0 78 27.5t80.5 92t87.5 176.5
l24 -8q-46 -114 -92.5 -187t-103 -108.5t-132.5 -35.5z" />
    <glyph glyph-name="uni013B" unicode="&#x13b;" horiz-adv-x="1187" 
d="M183 -674v21q61 0 123 25.5t112.5 70t79 103.5t23.5 126h20q0 -35 -21 -60.5t-53 -38.5t-65 -13q-65 0 -98.5 34.5t-33.5 84.5q0 33 18.5 62t49.5 47t68 18q58 0 97.5 -39t39.5 -112q0 -68 -31 -127.5t-83 -105t-116 -71t-130 -25.5zM77 0l348 1500h262l-348 -1500h-262z
M-93 0v25h683q157 0 256.5 53.5t159 149t97.5 222.5h25l-104 -450h-1117zM245 1475v25h622v-25h-622z" />
    <glyph glyph-name="uni013C" unicode="&#x13c;" horiz-adv-x="598" 
d="M-61 -674v21q61 0 123 25.5t112.5 70t79 103.5t23.5 126h20q0 -35 -21 -60.5t-53 -38.5t-65 -13q-65 0 -98.5 34.5t-33.5 84.5q0 33 18.5 62t49.5 47t68 18q58 0 97.5 -39t39.5 -112q0 -68 -31 -127.5t-83 -105t-116 -71t-130 -25.5zM222 -20q-89 0 -131 37t-42 97
q0 25 4 45.5t8 34.5l346 1281h-179v25h403l-380 -1410q-2 -9 -3 -17.5t-1 -15.5q0 -34 33 -34q39 0 78 27.5t80.5 92t87.5 176.5l24 -8q-46 -114 -92.5 -187t-103 -108.5t-132.5 -35.5z" />
    <glyph glyph-name="Lcaron" unicode="&#x13d;" horiz-adv-x="1187" 
d="M865 966v24q70 0 140.5 30t128.5 82.5t90.5 121t26.5 144.5h22q0 -39 -24 -68t-60 -44t-75 -15q-73 0 -110.5 39t-37.5 95q0 38 20.5 71.5t56 53.5t77.5 20q67 0 111.5 -44t44.5 -129q0 -77 -35.5 -146t-94.5 -122t-132 -83t-149 -30zM77 0l348 1500h262l-348 -1500h-262
zM-93 0v25h683q157 0 256.5 53.5t159 149t97.5 222.5h25l-104 -450h-1117zM245 1475v25h622v-25h-622z" />
    <glyph glyph-name="lcaron" unicode="&#x13e;" horiz-adv-x="598" 
d="M637 966v24q70 0 140.5 30t128.5 82.5t90.5 121t26.5 144.5h22q0 -39 -24 -68t-60 -44t-75 -15q-73 0 -110.5 39t-37.5 95q0 38 20.5 71.5t56 53.5t77.5 20q67 0 111.5 -44t44.5 -129q0 -77 -35.5 -146t-94.5 -122t-132 -83t-149 -30zM222 -20q-89 0 -131 37t-42 97
q0 25 4 45.5t8 34.5l346 1281h-179v25h403l-380 -1410q-2 -9 -3 -17.5t-1 -15.5q0 -34 33 -34q39 0 78 27.5t80.5 92t87.5 176.5l24 -8q-46 -114 -92.5 -187t-103 -108.5t-132.5 -35.5z" />
    <glyph glyph-name="Ldot" unicode="&#x13f;" horiz-adv-x="1187" 
d="M77 0l348 1500h262l-348 -1500h-262zM-93 0v25h683q157 0 256.5 53.5t159 149t97.5 222.5h25l-104 -450h-1117zM245 1475v25h622v-25h-622zM1008 680q-43 0 -78.5 21t-57 57t-21.5 78q0 43 21.5 78.5t57 57t78.5 21.5t78 -21.5t56 -57t21 -78.5t-21 -78.5t-56 -56.5
t-78 -21z" />
    <glyph glyph-name="ldot" unicode="&#x140;" horiz-adv-x="749" 
d="M222 -20q-89 0 -131 37t-42 97q0 25 4 45.5t8 34.5l346 1281h-179v25h403l-380 -1410q-2 -9 -3 -17.5t-1 -15.5q0 -34 33 -34q39 0 78 27.5t80.5 92t87.5 176.5l24 -8q-46 -114 -92.5 -187t-103 -108.5t-132.5 -35.5zM723 677q-43 0 -78.5 21t-57 57t-21.5 78
q0 43 21.5 78.5t57 57t78.5 21.5t78 -21.5t56 -57t21 -78.5t-21 -78.5t-56 -56.5t-78 -21z" />
    <glyph glyph-name="Lslash" unicode="&#x141;" horiz-adv-x="1187" 
d="M87 692v29l756 439v-28zM77 0l348 1500h262l-348 -1500h-262zM-93 0v25h683q157 0 256.5 53.5t159 149t97.5 222.5h25l-104 -450h-1117zM245 1475v25h622v-25h-622z" />
    <glyph glyph-name="lslash" unicode="&#x142;" horiz-adv-x="598" 
d="M70 770v30l618 360v-30zM222 -20q-89 0 -131 37t-42 97q0 25 4 45.5t8 34.5l346 1281h-179v25h403l-380 -1410q-2 -9 -3 -17.5t-1 -15.5q0 -34 33 -34q39 0 78 27.5t80.5 92t87.5 176.5l24 -8q-46 -114 -92.5 -187t-103 -108.5t-132.5 -35.5z" />
    <glyph glyph-name="Nacute" unicode="&#x143;" horiz-adv-x="1479" 
d="M883 1683l-13 16l178 236q20 27 44.5 38t49 9.5t45 -13t31.5 -28.5q17 -26 14 -58t-23 -58.5t-55 -37.5zM1089 -20l-632 1520h314l435 -1065l243 1065h26l-346 -1520h-40zM-73 0v25h452v-25h-452zM116 0l330 1475h-199v25h230l-335 -1500h-26zM1209 1475v25h464v-25h-464
z" />
    <glyph glyph-name="nacute" unicode="&#x144;" horiz-adv-x="1157" 
d="M581 1103l-13 16l178 236q20 27 44.5 38t49 9.5t45 -13t31.5 -28.5q17 -26 14 -58t-23 -58.5t-55 -37.5zM767 -20q-84 0 -126 37t-42 106q0 21 5 43.5t10 39.5l126 418q23 78 32 134.5t-4 87t-54 30.5q-40 0 -94 -50t-110.5 -136t-106.5 -195.5t-81 -228.5h-18
q22 83 57.5 175t83 180.5t104 160.5t118.5 114.5t126 42.5q85 0 131.5 -40.5t57 -108.5t-14.5 -151l-157 -536q-3 -9 -4.5 -19t-1.5 -18q0 -16 7 -26t25 -10q66 0 125 69t120 220l23 -8q-46 -119 -95.5 -191.5t-108 -106t-133.5 -33.5zM30 0l230 895h-137v25h368l-238 -920
h-223z" />
    <glyph glyph-name="uni0145" unicode="&#x145;" horiz-adv-x="1479" 
d="M365 -674v21q61 0 123 25.5t112.5 70t79 103.5t23.5 126h20q0 -35 -21 -60.5t-53 -38.5t-65 -13q-65 0 -98.5 34.5t-33.5 84.5q0 33 18.5 62t49.5 47t68 18q58 0 97.5 -39t39.5 -112q0 -68 -31 -127.5t-83 -105t-116 -71t-130 -25.5zM1089 -20l-632 1520h314l435 -1065
l243 1065h26l-346 -1520h-40zM-73 0v25h452v-25h-452zM116 0l330 1475h-199v25h230l-335 -1500h-26zM1209 1475v25h464v-25h-464z" />
    <glyph glyph-name="uni0146" unicode="&#x146;" horiz-adv-x="1157" 
d="M209 -674v21q61 0 123 25.5t112.5 70t79 103.5t23.5 126h20q0 -35 -21 -60.5t-53 -38.5t-65 -13q-65 0 -98.5 34.5t-33.5 84.5q0 33 18.5 62t49.5 47t68 18q58 0 97.5 -39t39.5 -112q0 -68 -31 -127.5t-83 -105t-116 -71t-130 -25.5zM767 -20q-84 0 -126 37t-42 106
q0 21 5 43.5t10 39.5l126 418q23 78 32 134.5t-4 87t-54 30.5q-40 0 -94 -50t-110.5 -136t-106.5 -195.5t-81 -228.5h-18q22 83 57.5 175t83 180.5t104 160.5t118.5 114.5t126 42.5q85 0 131.5 -40.5t57 -108.5t-14.5 -151l-157 -536q-3 -9 -4.5 -19t-1.5 -18q0 -16 7 -26
t25 -10q66 0 125 69t120 220l23 -8q-46 -119 -95.5 -191.5t-108 -106t-133.5 -33.5zM30 0l230 895h-137v25h368l-238 -920h-223z" />
    <glyph glyph-name="Ncaron" unicode="&#x147;" horiz-adv-x="1479" 
d="M919 1700l-195 251l16 16l260 -147l340 145l14 -14l-283 -251h-152zM1089 -20l-632 1520h314l435 -1065l243 1065h26l-346 -1520h-40zM-73 0v25h452v-25h-452zM116 0l330 1475h-199v25h230l-335 -1500h-26zM1209 1475v25h464v-25h-464z" />
    <glyph glyph-name="ncaron" unicode="&#x148;" horiz-adv-x="1157" 
d="M617 1120l-195 251l16 16l260 -147l340 145l14 -14l-283 -251h-152zM767 -20q-84 0 -126 37t-42 106q0 21 5 43.5t10 39.5l126 418q23 78 32 134.5t-4 87t-54 30.5q-40 0 -94 -50t-110.5 -136t-106.5 -195.5t-81 -228.5h-18q22 83 57.5 175t83 180.5t104 160.5
t118.5 114.5t126 42.5q85 0 131.5 -40.5t57 -108.5t-14.5 -151l-157 -536q-3 -9 -4.5 -19t-1.5 -18q0 -16 7 -26t25 -10q66 0 125 69t120 220l23 -8q-46 -119 -95.5 -191.5t-108 -106t-133.5 -33.5zM30 0l230 895h-137v25h368l-238 -920h-223z" />
    <glyph glyph-name="napostrophe" unicode="&#x149;" horiz-adv-x="1494" 
d="M1037 -20q-84 0 -126 37t-42 106q0 21 5 43.5t10 39.5l126 418q23 78 32 134.5t-4 87t-54 30.5q-40 0 -94 -50t-110.5 -136t-106.5 -195.5t-81 -228.5h-18q22 83 57.5 175t83 180.5t104 160.5t118.5 114.5t126 42.5q85 0 131.5 -40.5t57 -108.5t-14.5 -151l-157 -536
q-3 -9 -4.5 -19t-1.5 -18q0 -16 7 -26t25 -10q66 0 125 69t120 220l23 -8q-46 -119 -95.5 -191.5t-108 -106t-133.5 -33.5zM300 0l230 895h-137v25h368l-238 -920h-223zM118 928v25q77 0 154 32t140.5 88t99.5 129.5t30 157.5h23q0 -44 -26 -75.5t-66 -48t-82 -16.5
q-80 0 -122 43t-42 105q0 42 23 78.5t61.5 59t85.5 22.5q48 0 87 -22t62 -64t23 -104q0 -84 -39 -158.5t-104 -131t-145.5 -88.5t-162.5 -32z" />
    <glyph glyph-name="Eng" unicode="&#x14a;" horiz-adv-x="1563" 
d="M651 -520q-96 0 -158.5 33t-88.5 87.5t-12 116.5q11 45 38 78.5t64 51.5t76 18q51 0 88 -34t21 -101q-12 -51 -58 -92t-109 -41q-36 1 -61 21t-28 48q1 -64 59 -113t170 -49q69 0 118.5 47t84.5 125.5t61 173.5t48 190l223 964q21 94 16.5 176t-33 143.5t-80.5 96.5
t-124 35q-96 0 -176.5 -44.5t-142.5 -116t-103 -153t-59 -155.5h-17q17 73 60.5 164t116 175.5t175.5 139t238 54.5q168 0 261 -65.5t120 -174t-3 -238.5l-247 -1064q-22 -97 -69.5 -186.5t-116.5 -159.5t-157.5 -110.5t-194.5 -40.5zM-116 0l5 25h141l334 1450h-139l5 25
h374l-340 -1475h137l-5 -25h-512z" />
    <glyph glyph-name="eng" unicode="&#x14b;" horiz-adv-x="1242" 
d="M365 -520q-85 0 -140.5 31.5t-77.5 84t-8 114.5q11 45 38 78.5t64 51.5t76 18q52 0 89 -34t21 -101q-12 -51 -58 -92t-110 -41q-38 0 -67 16.5t-44 43.5t-7 60h23q-13 -56 7.5 -103t70 -75.5t124.5 -28.5q69 0 113.5 47.5t72.5 126t48.5 173.5t42.5 190l130 562l249 37
l-154 -662q-22 -97 -67 -186.5t-109.5 -159.5t-146.5 -110.5t-180 -40.5zM-116 0l5 25h512l-5 -25h-512zM24 0l207 895h-140l5 25h374l-212 -920h-234zM345 451q14 62 51.5 144.5t97 161t138.5 130.5t177 52q115 0 167 -38.5t59 -106.5t-13 -155l-249 -37q19 83 23 144.5
t-12 96t-61 34.5q-61 0 -119.5 -42t-108 -108t-84 -139.5t-49.5 -136.5h-17z" />
    <glyph glyph-name="Omacron" unicode="&#x14c;" horiz-adv-x="1474" 
d="M717 1700v25h480v-25h-480zM621 -20q-243 0 -378.5 143t-135.5 387q0 171 47 323.5t130.5 278t192 217t232.5 141.5t252 50q152 0 267.5 -64.5t181 -183.5t65.5 -282q0 -214 -69.5 -397.5t-190 -321t-274 -214.5t-320.5 -77zM621 3q88 0 164.5 51.5t140.5 141t114 205
t84.5 243.5t52.5 257t18 245q0 63 -11.5 125t-38.5 113t-72.5 82t-111.5 31q-83 0 -157.5 -51.5t-139 -141t-115.5 -205t-87 -243.5t-55.5 -257t-19.5 -245q0 -104 21.5 -183t72.5 -123.5t140 -44.5z" />
    <glyph glyph-name="omacron" unicode="&#x14d;" horiz-adv-x="1017" 
d="M382 1120v25h480v-25h-480zM377 -20q-158 0 -239.5 86t-81.5 230q0 128 46 244t126 206t183 142t217 52q159 0 241.5 -88t82.5 -232q0 -127 -45.5 -242t-125 -205t-183.5 -141.5t-221 -51.5zM366 5q47 0 93 37.5t89 102t80 145.5t65 168.5t43.5 172t15.5 154.5
q0 60 -27 95t-86 35q-46 0 -92.5 -38t-89.5 -102t-80 -145t-65 -169t-43.5 -172t-15.5 -154q0 -60 27.5 -95t85.5 -35z" />
    <glyph glyph-name="Obreve" unicode="&#x14e;" horiz-adv-x="1474" 
d="M1000 1682q-67 0 -105.5 28.5t-55 73t-17.5 95.5t6 97h24q-6 -46 15.5 -76t62.5 -45t90 -15t101.5 13.5t93 43.5t52.5 79h25q-7 -46 -26 -97t-53.5 -95.5t-86.5 -73t-126 -28.5zM621 -20q-243 0 -378.5 143t-135.5 387q0 171 47 323.5t130.5 278t192 217t232.5 141.5
t252 50q152 0 267.5 -64.5t181 -183.5t65.5 -282q0 -214 -69.5 -397.5t-190 -321t-274 -214.5t-320.5 -77zM621 3q88 0 164.5 51.5t140.5 141t114 205t84.5 243.5t52.5 257t18 245q0 63 -11.5 125t-38.5 113t-72.5 82t-111.5 31q-83 0 -157.5 -51.5t-139 -141t-115.5 -205
t-87 -243.5t-55.5 -257t-19.5 -245q0 -104 21.5 -183t72.5 -123.5t140 -44.5z" />
    <glyph glyph-name="obreve" unicode="&#x14f;" horiz-adv-x="1017" 
d="M665 1102q-67 0 -105.5 28.5t-55 73t-17.5 95.5t6 97h24q-6 -46 15.5 -76t62.5 -45t90 -15t101.5 13.5t93 43.5t52.5 79h25q-7 -46 -26 -97t-53.5 -95.5t-86.5 -73t-126 -28.5zM377 -20q-158 0 -239.5 86t-81.5 230q0 128 46 244t126 206t183 142t217 52q159 0 241.5 -88
t82.5 -232q0 -127 -45.5 -242t-125 -205t-183.5 -141.5t-221 -51.5zM366 5q47 0 93 37.5t89 102t80 145.5t65 168.5t43.5 172t15.5 154.5q0 60 -27 95t-86 35q-46 0 -92.5 -38t-89.5 -102t-80 -145t-65 -169t-43.5 -172t-15.5 -154q0 -60 27.5 -95t85.5 -35z" />
    <glyph glyph-name="Ohungarumlaut" unicode="&#x150;" horiz-adv-x="1474" 
d="M1108 1683l-13 16l178 236q20 27 44.5 38t49 9.5t45 -13t31.5 -28.5q17 -26 14 -58t-23 -58.5t-55 -37.5zM668 1683l-13 16l178 236q20 27 44.5 38t49 9.5t45 -13t31.5 -28.5q17 -26 14 -58t-23 -58.5t-55 -37.5zM621 -20q-243 0 -378.5 143t-135.5 387q0 171 47 323.5
t130.5 278t192 217t232.5 141.5t252 50q152 0 267.5 -64.5t181 -183.5t65.5 -282q0 -214 -69.5 -397.5t-190 -321t-274 -214.5t-320.5 -77zM621 3q88 0 164.5 51.5t140.5 141t114 205t84.5 243.5t52.5 257t18 245q0 63 -11.5 125t-38.5 113t-72.5 82t-111.5 31
q-83 0 -157.5 -51.5t-139 -141t-115.5 -205t-87 -243.5t-55.5 -257t-19.5 -245q0 -104 21.5 -183t72.5 -123.5t140 -44.5z" />
    <glyph glyph-name="ohungarumlaut" unicode="&#x151;" horiz-adv-x="1017" 
d="M773 1103l-13 16l178 236q20 27 44.5 38t49 9.5t45 -13t31.5 -28.5q17 -26 14 -58t-23 -58.5t-55 -37.5zM333 1103l-13 16l178 236q20 27 44.5 38t49 9.5t45 -13t31.5 -28.5q17 -26 14 -58t-23 -58.5t-55 -37.5zM377 -20q-158 0 -239.5 86t-81.5 230q0 128 46 244
t126 206t183 142t217 52q159 0 241.5 -88t82.5 -232q0 -127 -45.5 -242t-125 -205t-183.5 -141.5t-221 -51.5zM366 5q47 0 93 37.5t89 102t80 145.5t65 168.5t43.5 172t15.5 154.5q0 60 -27 95t-86 35q-46 0 -92.5 -38t-89.5 -102t-80 -145t-65 -169t-43.5 -172t-15.5 -154
q0 -60 27.5 -95t85.5 -35z" />
    <glyph glyph-name="OE" unicode="&#x152;" horiz-adv-x="1976" 
d="M1009 1500q-169 0 -326 -75t-281 -209.5t-196.5 -316t-72.5 -395.5q0 -129 40.5 -224t113 -157.5t171 -92.5t213.5 -30v58q-143 0 -197.5 80.5t-54.5 228.5q0 139 27 289t78 289.5t123.5 252t163.5 178.5t198 66v58zM840 0l348 1500h262l-348 -1500h-262zM670 0v25h702
q137 0 235 53.5t163 149t103 222.5h25l-104 -450h-1124zM1553 538q5 67 -16.5 118t-63.5 79t-99 28h-136v25h136q57 0 113.5 26t102.5 74.5t70 115.5h24l-107 -466h-24zM2001 1090q16 107 -7 194.5t-90 139t-184 51.5h-712v25h1114l-96 -410h-25z" />
    <glyph glyph-name="oe" unicode="&#x153;" horiz-adv-x="1584" 
d="M377 -20q-158 0 -239.5 86t-81.5 230q0 128 46 244t126 206t183 142t217 52q159 0 241.5 -88t82.5 -232q0 -127 -45.5 -242t-125 -205t-183.5 -141.5t-221 -51.5zM366 5q47 0 93 37.5t89 102t80 145.5t65 168.5t43.5 172t15.5 154.5q0 60 -27 95t-86 35q-46 0 -92.5 -38
t-89.5 -102t-80 -145t-65 -169t-43.5 -172t-15.5 -154q0 -60 27.5 -95t85.5 -35zM989 -20q-104 0 -173.5 41.5t-105 114t-35.5 164.5q0 120 44 234t123.5 206t185.5 146t229 54q128 0 199 -58.5t71 -144.5q0 -76 -49.5 -137t-137.5 -105t-203.5 -70t-247.5 -33v20
q78 6 146.5 30.5t124 64.5t95 90t61 106.5t21.5 114.5q0 38 -15.5 67.5t-56.5 29.5q-49 0 -96.5 -36.5t-90.5 -99t-78.5 -139.5t-62 -160.5t-40.5 -163t-14 -143.5q0 -90 38.5 -124.5t99.5 -34.5q77 0 147.5 32t131.5 90t109 136l22 -14q-44 -72 -107 -135.5t-146 -103
t-189 -39.5z" />
    <glyph glyph-name="Racute" unicode="&#x154;" horiz-adv-x="1492" 
d="M777 1683l-13 16l178 236q20 27 44.5 38t49 9.5t45 -13t31.5 -28.5q17 -26 14 -58t-23 -58.5t-55 -37.5zM117 0l350 1500h262l-350 -1500h-262zM-77 0v25h676v-25h-676zM1141 -13q-97 0 -149.5 32.5t-72.5 87.5t-21 123.5t5.5 141.5t7 141.5t-17.5 123.5t-66 87.5
t-140 32.5h-188v14h258q153 0 241 -40t128.5 -107t49.5 -146.5t3.5 -159t-9.5 -146t10 -107t64 -40.5q28 0 52 7t47 16l8 -25q-54 -20 -100.5 -28t-109.5 -8zM499 767v16h236q84 0 148.5 29t111 77.5t76.5 108t44.5 122t14.5 118.5q0 37 -7 78.5t-28 77.5t-62.5 58.5
t-109.5 22.5h-670v25h712q131 0 232 -29t158.5 -95t57.5 -176q0 -140 -78 -236.5t-223.5 -146.5t-346.5 -50h-266z" />
    <glyph glyph-name="racute" unicode="&#x155;" horiz-adv-x="898" 
d="M489 1103l-13 16l178 236q20 27 44.5 38t49 9.5t45 -13t31.5 -28.5q17 -26 14 -58t-23 -58.5t-55 -37.5zM30 0l226 895h-157v25h372l-223 -920h-218zM306 305q18 77 44.5 164t61.5 170t79 151t97.5 108.5t116.5 40.5q72 0 116 -41t44 -104q0 -59 -36 -100t-95 -41
q-56 0 -93.5 36t-37.5 91q0 54 36.5 88.5t95.5 34.5q54 0 91 -29t37 -80l-24 1q0 52 -36 86t-98 34q-59 0 -110 -40t-93.5 -106.5t-76.5 -147t-60 -163t-44 -153.5h-15z" />
    <glyph glyph-name="uni0156" unicode="&#x156;" horiz-adv-x="1492" 
d="M420 -674v21q61 0 123 25.5t112.5 70t79 103.5t23.5 126h20q0 -35 -21 -60.5t-53 -38.5t-65 -13q-65 0 -98.5 34.5t-33.5 84.5q0 33 18.5 62t49.5 47t68 18q58 0 97.5 -39t39.5 -112q0 -68 -31 -127.5t-83 -105t-116 -71t-130 -25.5zM117 0l350 1500h262l-350 -1500h-262
zM-77 0v25h676v-25h-676zM1141 -13q-97 0 -149.5 32.5t-72.5 87.5t-21 123.5t5.5 141.5t7 141.5t-17.5 123.5t-66 87.5t-140 32.5h-188v14h258q153 0 241 -40t128.5 -107t49.5 -146.5t3.5 -159t-9.5 -146t10 -107t64 -40.5q28 0 52 7t47 16l8 -25q-54 -20 -100.5 -28
t-109.5 -8zM499 767v16h236q84 0 148.5 29t111 77.5t76.5 108t44.5 122t14.5 118.5q0 37 -7 78.5t-28 77.5t-62.5 58.5t-109.5 22.5h-670v25h712q131 0 232 -29t158.5 -95t57.5 -176q0 -140 -78 -236.5t-223.5 -146.5t-346.5 -50h-266z" />
    <glyph glyph-name="uni0157" unicode="&#x157;" horiz-adv-x="898" 
d="M-125 -674v21q61 0 123 25.5t112.5 70t79 103.5t23.5 126h20q0 -35 -21 -60.5t-53 -38.5t-65 -13q-65 0 -98.5 34.5t-33.5 84.5q0 33 18.5 62t49.5 47t68 18q58 0 97.5 -39t39.5 -112q0 -68 -31 -127.5t-83 -105t-116 -71t-130 -25.5zM30 0l226 895h-157v25h372
l-223 -920h-218zM306 305q18 77 44.5 164t61.5 170t79 151t97.5 108.5t116.5 40.5q72 0 116 -41t44 -104q0 -59 -36 -100t-95 -41q-56 0 -93.5 36t-37.5 91q0 54 36.5 88.5t95.5 34.5q54 0 91 -29t37 -80l-24 1q0 52 -36 86t-98 34q-59 0 -110 -40t-93.5 -106.5t-76.5 -147
t-60 -163t-44 -153.5h-15z" />
    <glyph glyph-name="Rcaron" unicode="&#x158;" horiz-adv-x="1492" 
d="M813 1700l-195 251l16 16l260 -147l340 145l14 -14l-283 -251h-152zM117 0l350 1500h262l-350 -1500h-262zM-77 0v25h676v-25h-676zM1141 -13q-97 0 -149.5 32.5t-72.5 87.5t-21 123.5t5.5 141.5t7 141.5t-17.5 123.5t-66 87.5t-140 32.5h-188v14h258q153 0 241 -40
t128.5 -107t49.5 -146.5t3.5 -159t-9.5 -146t10 -107t64 -40.5q28 0 52 7t47 16l8 -25q-54 -20 -100.5 -28t-109.5 -8zM499 767v16h236q84 0 148.5 29t111 77.5t76.5 108t44.5 122t14.5 118.5q0 37 -7 78.5t-28 77.5t-62.5 58.5t-109.5 22.5h-670v25h712q131 0 232 -29
t158.5 -95t57.5 -176q0 -140 -78 -236.5t-223.5 -146.5t-346.5 -50h-266z" />
    <glyph glyph-name="rcaron" unicode="&#x159;" horiz-adv-x="898" 
d="M526 1120l-195 251l16 16l260 -147l340 145l14 -14l-283 -251h-152zM30 0l226 895h-157v25h372l-223 -920h-218zM306 305q18 77 44.5 164t61.5 170t79 151t97.5 108.5t116.5 40.5q72 0 116 -41t44 -104q0 -59 -36 -100t-95 -41q-56 0 -93.5 36t-37.5 91q0 54 36.5 88.5
t95.5 34.5q54 0 91 -29t37 -80l-24 1q0 52 -36 86t-98 34q-59 0 -110 -40t-93.5 -106.5t-76.5 -147t-60 -163t-44 -153.5h-15z" />
    <glyph glyph-name="Sacute" unicode="&#x15a;" horiz-adv-x="1156" 
d="M688 1683l-13 16l178 236q20 27 44.5 38t49 9.5t45 -13t31.5 -28.5q17 -26 14 -58t-23 -58.5t-55 -37.5zM493 -29q-117 0 -198 36.5t-132 100.5t-78 146t-36 172h25q7 -82 31.5 -159t71.5 -137.5t121.5 -96.5t183.5 -36q103 0 185 39t129 108.5t47 161.5
q0 87 -33.5 145.5t-88.5 99t-120.5 73t-131 66.5t-120.5 79.5t-88.5 112t-33.5 164.5q0 118 48.5 206t125 148t164.5 90t166 30q128 0 216 -54t136 -152t57 -229h-25q-9 124 -52.5 215.5t-123.5 141.5t-198 50q-74 0 -143.5 -32t-114 -90.5t-44.5 -137.5q0 -76 33.5 -126.5
t89 -87t121.5 -68.5t132.5 -68.5t122 -88.5t89 -128.5t33.5 -188.5q0 -105 -44.5 -197t-123 -161t-181 -108t-218.5 -39zM-53 -20l102 446h25l9 -104q16 -58 35 -106.5t45 -88.5l-194 -147h-22zM1115 1085v79q-14 56 -31.5 109t-55.5 111l187 136h22l-97 -435h-25z" />
    <glyph glyph-name="sacute" unicode="&#x15b;" horiz-adv-x="866" 
d="M447 1103l-13 16l178 236q20 27 44.5 38t49 9.5t45 -13t31.5 -28.5q17 -26 14 -58t-23 -58.5t-55 -37.5zM378 -20q-97 0 -177.5 28.5t-129 81.5t-48.5 127q0 54 34.5 93t92.5 39q52 0 86 -34t34 -90q0 -57 -36.5 -86.5t-85.5 -29.5q-34 0 -62 13t-44.5 37t-16.5 58h33
q0 -67 42.5 -114.5t112.5 -72t152 -24.5q55 0 107 20.5t87 59t35 94.5q0 54 -32 95t-82.5 75t-107 66.5t-107 69t-82.5 82.5t-32 107q0 76 45.5 136t127.5 95t190 35q103 0 170 -29.5t100 -74t33 -89.5q0 -60 -35 -90.5t-79 -30.5q-48 0 -86 31t-38 89q0 46 33 79t85 33
q48 0 83 -31t35 -80h-28q0 42 -31 80t-88.5 62t-138.5 24q-52 0 -99.5 -17.5t-77.5 -51.5t-30 -82q0 -50 32 -88t82.5 -70t107.5 -63.5t108 -69.5t83 -88t32 -120q0 -88 -53.5 -151.5t-142 -98t-193.5 -34.5z" />
    <glyph glyph-name="Scircumflex" unicode="&#x15c;" horiz-adv-x="1156" 
d="M496 1705l-14 14l282 250h154l195 -250l-15 -15l-261 145zM493 -29q-117 0 -198 36.5t-132 100.5t-78 146t-36 172h25q7 -82 31.5 -159t71.5 -137.5t121.5 -96.5t183.5 -36q103 0 185 39t129 108.5t47 161.5q0 87 -33.5 145.5t-88.5 99t-120.5 73t-131 66.5t-120.5 79.5
t-88.5 112t-33.5 164.5q0 118 48.5 206t125 148t164.5 90t166 30q128 0 216 -54t136 -152t57 -229h-25q-9 124 -52.5 215.5t-123.5 141.5t-198 50q-74 0 -143.5 -32t-114 -90.5t-44.5 -137.5q0 -76 33.5 -126.5t89 -87t121.5 -68.5t132.5 -68.5t122 -88.5t89 -128.5
t33.5 -188.5q0 -105 -44.5 -197t-123 -161t-181 -108t-218.5 -39zM-53 -20l102 446h25l9 -104q16 -58 35 -106.5t45 -88.5l-194 -147h-22zM1115 1085v79q-14 56 -31.5 109t-55.5 111l187 136h22l-97 -435h-25z" />
    <glyph glyph-name="scircumflex" unicode="&#x15d;" horiz-adv-x="866" 
d="M255 1125l-14 14l282 250h154l195 -250l-15 -15l-261 145zM378 -20q-97 0 -177.5 28.5t-129 81.5t-48.5 127q0 54 34.5 93t92.5 39q52 0 86 -34t34 -90q0 -57 -36.5 -86.5t-85.5 -29.5q-34 0 -62 13t-44.5 37t-16.5 58h33q0 -67 42.5 -114.5t112.5 -72t152 -24.5
q55 0 107 20.5t87 59t35 94.5q0 54 -32 95t-82.5 75t-107 66.5t-107 69t-82.5 82.5t-32 107q0 76 45.5 136t127.5 95t190 35q103 0 170 -29.5t100 -74t33 -89.5q0 -60 -35 -90.5t-79 -30.5q-48 0 -86 31t-38 89q0 46 33 79t85 33q48 0 83 -31t35 -80h-28q0 42 -31 80
t-88.5 62t-138.5 24q-52 0 -99.5 -17.5t-77.5 -51.5t-30 -82q0 -50 32 -88t82.5 -70t107.5 -63.5t108 -69.5t83 -88t32 -120q0 -88 -53.5 -151.5t-142 -98t-193.5 -34.5z" />
    <glyph glyph-name="Scedilla" unicode="&#x15e;" horiz-adv-x="1156" 
d="M238 -509v24q85 0 145.5 39t60.5 115q0 59 -49 81t-138 22l225 238h32l-149 -158q80 -1 142 -15t97.5 -46t35.5 -85q0 -64 -53 -113t-144 -75.5t-205 -26.5zM493 -29q-117 0 -198 36.5t-132 100.5t-78 146t-36 172h25q7 -82 31.5 -159t71.5 -137.5t121.5 -96.5t183.5 -36
q103 0 185 39t129 108.5t47 161.5q0 87 -33.5 145.5t-88.5 99t-120.5 73t-131 66.5t-120.5 79.5t-88.5 112t-33.5 164.5q0 118 48.5 206t125 148t164.5 90t166 30q128 0 216 -54t136 -152t57 -229h-25q-9 124 -52.5 215.5t-123.5 141.5t-198 50q-74 0 -143.5 -32t-114 -90.5
t-44.5 -137.5q0 -76 33.5 -126.5t89 -87t121.5 -68.5t132.5 -68.5t122 -88.5t89 -128.5t33.5 -188.5q0 -105 -44.5 -197t-123 -161t-181 -108t-218.5 -39zM-53 -20l102 446h25l9 -104q16 -58 35 -106.5t45 -88.5l-194 -147h-22zM1115 1085v79q-14 56 -31.5 109t-55.5 111
l187 136h22l-97 -435h-25z" />
    <glyph glyph-name="scedilla" unicode="&#x15f;" horiz-adv-x="866" 
d="M121 -509v24q85 0 145.5 39t60.5 115q0 59 -49 81t-138 22l225 238h32l-149 -158q80 -1 142 -15t97.5 -46t35.5 -85q0 -64 -53 -113t-144 -75.5t-205 -26.5zM378 -20q-97 0 -177.5 28.5t-129 81.5t-48.5 127q0 54 34.5 93t92.5 39q52 0 86 -34t34 -90q0 -57 -36.5 -86.5
t-85.5 -29.5q-34 0 -62 13t-44.5 37t-16.5 58h33q0 -67 42.5 -114.5t112.5 -72t152 -24.5q55 0 107 20.5t87 59t35 94.5q0 54 -32 95t-82.5 75t-107 66.5t-107 69t-82.5 82.5t-32 107q0 76 45.5 136t127.5 95t190 35q103 0 170 -29.5t100 -74t33 -89.5q0 -60 -35 -90.5
t-79 -30.5q-48 0 -86 31t-38 89q0 46 33 79t85 33q48 0 83 -31t35 -80h-28q0 42 -31 80t-88.5 62t-138.5 24q-52 0 -99.5 -17.5t-77.5 -51.5t-30 -82q0 -50 32 -88t82.5 -70t107.5 -63.5t108 -69.5t83 -88t32 -120q0 -88 -53.5 -151.5t-142 -98t-193.5 -34.5z" />
    <glyph glyph-name="Scaron" unicode="&#x160;" horiz-adv-x="1156" 
d="M724 1700l-195 251l16 16l260 -147l340 145l14 -14l-283 -251h-152zM493 -29q-117 0 -198 36.5t-132 100.5t-78 146t-36 172h25q7 -82 31.5 -159t71.5 -137.5t121.5 -96.5t183.5 -36q103 0 185 39t129 108.5t47 161.5q0 87 -33.5 145.5t-88.5 99t-120.5 73t-131 66.5
t-120.5 79.5t-88.5 112t-33.5 164.5q0 118 48.5 206t125 148t164.5 90t166 30q128 0 216 -54t136 -152t57 -229h-25q-9 124 -52.5 215.5t-123.5 141.5t-198 50q-74 0 -143.5 -32t-114 -90.5t-44.5 -137.5q0 -76 33.5 -126.5t89 -87t121.5 -68.5t132.5 -68.5t122 -88.5
t89 -128.5t33.5 -188.5q0 -105 -44.5 -197t-123 -161t-181 -108t-218.5 -39zM-53 -20l102 446h25l9 -104q16 -58 35 -106.5t45 -88.5l-194 -147h-22zM1115 1085v79q-14 56 -31.5 109t-55.5 111l187 136h22l-97 -435h-25z" />
    <glyph glyph-name="scaron" unicode="&#x161;" horiz-adv-x="866" 
d="M483 1120l-195 251l16 16l260 -147l340 145l14 -14l-283 -251h-152zM378 -20q-97 0 -177.5 28.5t-129 81.5t-48.5 127q0 54 34.5 93t92.5 39q52 0 86 -34t34 -90q0 -57 -36.5 -86.5t-85.5 -29.5q-34 0 -62 13t-44.5 37t-16.5 58h33q0 -67 42.5 -114.5t112.5 -72
t152 -24.5q55 0 107 20.5t87 59t35 94.5q0 54 -32 95t-82.5 75t-107 66.5t-107 69t-82.5 82.5t-32 107q0 76 45.5 136t127.5 95t190 35q103 0 170 -29.5t100 -74t33 -89.5q0 -60 -35 -90.5t-79 -30.5q-48 0 -86 31t-38 89q0 46 33 79t85 33q48 0 83 -31t35 -80h-28
q0 42 -31 80t-88.5 62t-138.5 24q-52 0 -99.5 -17.5t-77.5 -51.5t-30 -82q0 -50 32 -88t82.5 -70t107.5 -63.5t108 -69.5t83 -88t32 -120q0 -88 -53.5 -151.5t-142 -98t-193.5 -34.5z" />
    <glyph glyph-name="uni0162" unicode="&#x162;" horiz-adv-x="1323" 
d="M326 -509v24q85 0 145.5 39t60.5 115q0 59 -49 81t-138 22l225 238h32l-149 -158q80 -1 142 -15t97.5 -46t35.5 -85q0 -64 -53 -113t-144 -75.5t-205 -26.5zM410 0l348 1500h262l-348 -1500h-262zM200 0v25h702v-25h-702zM147 1032l107 468h1270l-107 -468h-25
q20 127 8.5 227t-66.5 158t-166 58h-578q-83 0 -148.5 -33.5t-115.5 -93.5t-88 -140.5t-66 -175.5h-25z" />
    <glyph glyph-name="uni0163" unicode="&#x163;" horiz-adv-x="677" 
d="M41 -509v24q85 0 145.5 39t60.5 115q0 59 -49 81t-138 22l225 238h32l-149 -158q80 -1 142 -15t97.5 -46t35.5 -85q0 -64 -53 -113t-144 -75.5t-205 -26.5zM282 -20q-71 0 -114 20.5t-62 53.5t-19 68q0 21 6.5 52t14.5 61l237 885h220l-277 -1016q-3 -11 -6 -24t-3 -27
q0 -34 50 -34q36 0 73.5 17.5t75.5 54.5t75 97t72 145l24 -7q-46 -113 -98.5 -190.5t-118 -116.5t-150.5 -39zM93 895v25h600v-25h-600z" />
    <glyph glyph-name="Tcaron" unicode="&#x164;" horiz-adv-x="1323" 
d="M876 1700l-195 251l16 16l260 -147l340 145l14 -14l-283 -251h-152zM410 0l348 1500h262l-348 -1500h-262zM200 0v25h702v-25h-702zM147 1032l107 468h1270l-107 -468h-25q20 127 8.5 227t-66.5 158t-166 58h-578q-83 0 -148.5 -33.5t-115.5 -93.5t-88 -140.5t-66 -175.5
h-25z" />
    <glyph glyph-name="tcaron" unicode="&#x165;" horiz-adv-x="677" 
d="M642 1023v24q70 0 140.5 30t128.5 82.5t90.5 121t26.5 144.5h22q0 -39 -24 -68t-60 -44t-75 -15q-73 0 -110.5 39t-37.5 95q0 38 20.5 71.5t56 53.5t77.5 20q67 0 111.5 -44t44.5 -129q0 -77 -35.5 -146t-94.5 -122t-132 -83t-149 -30zM282 -20q-71 0 -114 20.5t-62 53.5
t-19 68q0 21 6.5 52t14.5 61l237 885h220l-277 -1016q-3 -11 -6 -24t-3 -27q0 -34 50 -34q36 0 73.5 17.5t75.5 54.5t75 97t72 145l24 -7q-46 -113 -98.5 -190.5t-118 -116.5t-150.5 -39zM93 895v25h600v-25h-600z" />
    <glyph glyph-name="Tbar" unicode="&#x166;" horiz-adv-x="1323" 
d="M386 751v25h670v-25h-670zM410 2l348 1500h262l-348 -1500h-262zM200 2v25h702v-25h-702zM147 1034l107 468h1270l-107 -468h-25q20 127 8.5 227.5t-66.5 158.5t-166 58h-578q-83 0 -148.5 -33.5t-115.5 -94t-88 -141t-66 -175.5h-25z" />
    <glyph glyph-name="tbar" unicode="&#x167;" horiz-adv-x="677" 
d="M42 598v24h598v-24h-598zM282 -20q-71 0 -114 20.5t-62 53.5t-19 68q0 21 6.5 52t14.5 61l237 885h220l-277 -1016q-3 -11 -6 -24t-3 -27q0 -34 50 -34q36 0 73.5 17.5t75.5 54.5t75 97t72 145l24 -7q-46 -113 -98.5 -190.5t-118 -116.5t-150.5 -39zM93 895v25h600v-25
h-600z" />
    <glyph glyph-name="Utilde" unicode="&#x168;" horiz-adv-x="1409" 
d="M1217 1662q-59 0 -104 24t-83.5 55t-76.5 55t-83 24q-52 0 -87 -26.5t-64 -93.5h-25q20 85 59 146t91 93.5t110 32.5q53 0 96 -24t81 -55t74 -55t75 -24q53 0 88 27t64 93h25q-20 -95 -54.5 -155t-81 -88.5t-104.5 -28.5zM632 -29q-163 0 -275 54t-156.5 162.5
t-6.5 272.5l240 1040h262l-240 -1020q-22 -94 -25.5 -179t19.5 -151.5t78.5 -104.5t151.5 -38q129 0 224.5 50.5t159.5 151.5t98 251l240 1040h26l-241 -1040q-36 -157 -106 -266.5t-180.5 -166t-268.5 -56.5zM244 1475v25h642v-25h-642zM1200 1475v25h400v-25h-400z" />
    <glyph glyph-name="utilde" unicode="&#x169;" horiz-adv-x="1155" 
d="M801 1082q-59 0 -104 24t-83.5 55t-76.5 55t-83 24q-52 0 -87 -26.5t-64 -93.5h-25q20 85 59 146t91 93.5t110 32.5q53 0 96 -24t81 -55t74 -55t75 -24q53 0 88 27t64 93h25q-20 -95 -54.5 -155t-81 -88.5t-104.5 -28.5zM254 -20q-91 0 -137 40.5t-53.5 109t13.5 152.5
l154 613h-132v25h367l-161 -624q-21 -78 -29.5 -135t3.5 -87.5t55 -30.5q39 0 94 50t113.5 136t109 196t80.5 229h20q-20 -83 -57 -175.5t-85.5 -181t-106 -160.5t-120.5 -114.5t-128 -42.5zM777 -20q-89 0 -131.5 40.5t-42.5 95.5q0 14 2.5 33.5t7.5 35.5l186 735h227
l-222 -829q-2 -9 -3 -18t-1 -17q0 -32 30 -32q40 0 79.5 27t81 91.5t87.5 176.5l24 -8q-46 -114 -93 -187t-103 -108.5t-129 -35.5z" />
    <glyph glyph-name="Umacron" unicode="&#x16a;" horiz-adv-x="1409" 
d="M735 1700v25h480v-25h-480zM632 -29q-163 0 -275 54t-156.5 162.5t-6.5 272.5l240 1040h262l-240 -1020q-22 -94 -25.5 -179t19.5 -151.5t78.5 -104.5t151.5 -38q129 0 224.5 50.5t159.5 151.5t98 251l240 1040h26l-241 -1040q-36 -157 -106 -266.5t-180.5 -166
t-268.5 -56.5zM244 1475v25h642v-25h-642zM1200 1475v25h400v-25h-400z" />
    <glyph glyph-name="umacron" unicode="&#x16b;" horiz-adv-x="1155" 
d="M318 1120v25h480v-25h-480zM254 -20q-91 0 -137 40.5t-53.5 109t13.5 152.5l154 613h-132v25h367l-161 -624q-21 -78 -29.5 -135t3.5 -87.5t55 -30.5q39 0 94 50t113.5 136t109 196t80.5 229h20q-20 -83 -57 -175.5t-85.5 -181t-106 -160.5t-120.5 -114.5t-128 -42.5z
M777 -20q-89 0 -131.5 40.5t-42.5 95.5q0 14 2.5 33.5t7.5 35.5l186 735h227l-222 -829q-2 -9 -3 -18t-1 -17q0 -32 30 -32q40 0 79.5 27t81 91.5t87.5 176.5l24 -8q-46 -114 -93 -187t-103 -108.5t-129 -35.5z" />
    <glyph glyph-name="Ubreve" unicode="&#x16c;" horiz-adv-x="1409" 
d="M1018 1682q-67 0 -105.5 28.5t-55 73t-17.5 95.5t6 97h24q-6 -46 15.5 -76t62.5 -45t90 -15t101.5 13.5t93 43.5t52.5 79h25q-7 -46 -26 -97t-53.5 -95.5t-86.5 -73t-126 -28.5zM632 -29q-163 0 -275 54t-156.5 162.5t-6.5 272.5l240 1040h262l-240 -1020
q-22 -94 -25.5 -179t19.5 -151.5t78.5 -104.5t151.5 -38q129 0 224.5 50.5t159.5 151.5t98 251l240 1040h26l-241 -1040q-36 -157 -106 -266.5t-180.5 -166t-268.5 -56.5zM244 1475v25h642v-25h-642zM1200 1475v25h400v-25h-400z" />
    <glyph glyph-name="ubreve" unicode="&#x16d;" horiz-adv-x="1155" 
d="M601 1102q-67 0 -105.5 28.5t-55 73t-17.5 95.5t6 97h24q-6 -46 15.5 -76t62.5 -45t90 -15t101.5 13.5t93 43.5t52.5 79h25q-7 -46 -26 -97t-53.5 -95.5t-86.5 -73t-126 -28.5zM254 -20q-91 0 -137 40.5t-53.5 109t13.5 152.5l154 613h-132v25h367l-161 -624
q-21 -78 -29.5 -135t3.5 -87.5t55 -30.5q39 0 94 50t113.5 136t109 196t80.5 229h20q-20 -83 -57 -175.5t-85.5 -181t-106 -160.5t-120.5 -114.5t-128 -42.5zM777 -20q-89 0 -131.5 40.5t-42.5 95.5q0 14 2.5 33.5t7.5 35.5l186 735h227l-222 -829q-2 -9 -3 -18t-1 -17
q0 -32 30 -32q40 0 79.5 27t81 91.5t87.5 176.5l24 -8q-46 -114 -93 -187t-103 -108.5t-129 -35.5z" />
    <glyph glyph-name="Uring" unicode="&#x16e;" horiz-adv-x="1409" 
d="M1025 1680q-85 0 -140 51.5t-55 127.5q0 77 55 129t140 52q86 0 140.5 -52t54.5 -129q0 -76 -54.5 -127.5t-140.5 -51.5zM1011 1702q24 0 44 21.5t34.5 54.5t22.5 68.5t8 63.5q0 47 -18.5 77t-62.5 30q-24 0 -44 -21.5t-34 -54.5t-22 -68.5t-8 -64.5q0 -47 18.5 -76.5
t61.5 -29.5zM632 -29q-163 0 -275 54t-156.5 162.5t-6.5 272.5l240 1040h262l-240 -1020q-22 -94 -25.5 -179t19.5 -151.5t78.5 -104.5t151.5 -38q129 0 224.5 50.5t159.5 151.5t98 251l240 1040h26l-241 -1040q-36 -157 -106 -266.5t-180.5 -166t-268.5 -56.5zM244 1475v25
h642v-25h-642zM1200 1475v25h400v-25h-400z" />
    <glyph glyph-name="uring" unicode="&#x16f;" horiz-adv-x="1155" 
d="M608 1100q-85 0 -140 51.5t-55 127.5q0 77 55 129t140 52q86 0 140.5 -52t54.5 -129q0 -76 -54.5 -127.5t-140.5 -51.5zM594 1122q24 0 44 21.5t34.5 54.5t22.5 68.5t8 63.5q0 47 -18.5 77t-62.5 30q-24 0 -44 -21.5t-34 -54.5t-22 -68.5t-8 -64.5q0 -47 18.5 -76.5
t61.5 -29.5zM254 -20q-91 0 -137 40.5t-53.5 109t13.5 152.5l154 613h-132v25h367l-161 -624q-21 -78 -29.5 -135t3.5 -87.5t55 -30.5q39 0 94 50t113.5 136t109 196t80.5 229h20q-20 -83 -57 -175.5t-85.5 -181t-106 -160.5t-120.5 -114.5t-128 -42.5zM777 -20
q-89 0 -131.5 40.5t-42.5 95.5q0 14 2.5 33.5t7.5 35.5l186 735h227l-222 -829q-2 -9 -3 -18t-1 -17q0 -32 30 -32q40 0 79.5 27t81 91.5t87.5 176.5l24 -8q-46 -114 -93 -187t-103 -108.5t-129 -35.5z" />
    <glyph glyph-name="Uhungarumlaut" unicode="&#x170;" horiz-adv-x="1409" 
d="M1126 1683l-13 16l178 236q20 27 44.5 38t49 9.5t45 -13t31.5 -28.5q17 -26 14 -58t-23 -58.5t-55 -37.5zM686 1683l-13 16l178 236q20 27 44.5 38t49 9.5t45 -13t31.5 -28.5q17 -26 14 -58t-23 -58.5t-55 -37.5zM632 -29q-163 0 -275 54t-156.5 162.5t-6.5 272.5
l240 1040h262l-240 -1020q-22 -94 -25.5 -179t19.5 -151.5t78.5 -104.5t151.5 -38q129 0 224.5 50.5t159.5 151.5t98 251l240 1040h26l-241 -1040q-36 -157 -106 -266.5t-180.5 -166t-268.5 -56.5zM244 1475v25h642v-25h-642zM1200 1475v25h400v-25h-400z" />
    <glyph glyph-name="uhungarumlaut" unicode="&#x171;" horiz-adv-x="1155" 
d="M709 1103l-13 16l178 236q20 27 44.5 38t49 9.5t45 -13t31.5 -28.5q17 -26 14 -58t-23 -58.5t-55 -37.5zM269 1103l-13 16l178 236q20 27 44.5 38t49 9.5t45 -13t31.5 -28.5q17 -26 14 -58t-23 -58.5t-55 -37.5zM254 -20q-91 0 -137 40.5t-53.5 109t13.5 152.5l154 613
h-132v25h367l-161 -624q-21 -78 -29.5 -135t3.5 -87.5t55 -30.5q39 0 94 50t113.5 136t109 196t80.5 229h20q-20 -83 -57 -175.5t-85.5 -181t-106 -160.5t-120.5 -114.5t-128 -42.5zM777 -20q-89 0 -131.5 40.5t-42.5 95.5q0 14 2.5 33.5t7.5 35.5l186 735h227l-222 -829
q-2 -9 -3 -18t-1 -17q0 -32 30 -32q40 0 79.5 27t81 91.5t87.5 176.5l24 -8q-46 -114 -93 -187t-103 -108.5t-129 -35.5z" />
    <glyph glyph-name="Uogonek" unicode="&#x172;" horiz-adv-x="1409" 
d="M679 -451q-57 0 -107 13.5t-81.5 47t-31.5 90.5q0 60 39 110.5t99.5 91t127 70.5t122.5 47l7 -11q-33 -21 -69.5 -61.5t-61.5 -97t-25 -126.5q0 -60 21 -91t54 -31q35 0 63.5 19t49.5 45.5t33 50.5l20 -10q-15 -28 -45.5 -65t-82.5 -64.5t-132 -27.5zM632 -29
q-163 0 -275 54t-156.5 162.5t-6.5 272.5l240 1040h262l-240 -1020q-22 -94 -25.5 -179t19.5 -151.5t78.5 -104.5t151.5 -38q129 0 224.5 50.5t159.5 151.5t98 251l240 1040h26l-241 -1040q-36 -157 -106 -266.5t-180.5 -166t-268.5 -56.5zM244 1475v25h642v-25h-642z
M1200 1475v25h400v-25h-400z" />
    <glyph glyph-name="uogonek" unicode="&#x173;" horiz-adv-x="1155" 
d="M716 -451q-57 0 -107 13.5t-81.5 47t-31.5 90.5q0 60 39 110.5t99.5 91t127 70.5t122.5 47l7 -11q-33 -21 -69.5 -61.5t-61.5 -97t-25 -126.5q0 -60 21 -91t54 -31q35 0 63.5 19t49.5 45.5t33 50.5l20 -10q-15 -28 -45.5 -65t-82.5 -64.5t-132 -27.5zM254 -20
q-91 0 -137 40.5t-53.5 109t13.5 152.5l154 613h-132v25h367l-161 -624q-21 -78 -29.5 -135t3.5 -87.5t55 -30.5q39 0 94 50t113.5 136t109 196t80.5 229h20q-20 -83 -57 -175.5t-85.5 -181t-106 -160.5t-120.5 -114.5t-128 -42.5zM777 -20q-89 0 -131.5 40.5t-42.5 95.5
q0 14 2.5 33.5t7.5 35.5l186 735h227l-222 -829q-2 -9 -3 -18t-1 -17q0 -32 30 -32q40 0 79.5 27t81 91.5t87.5 176.5l24 -8q-46 -114 -93 -187t-103 -108.5t-129 -35.5z" />
    <glyph glyph-name="Wcircumflex" unicode="&#x174;" horiz-adv-x="2087" 
d="M1041 1705l-14 14l282 250h154l195 -250l-15 -15l-261 145zM1171 -20l-163 1520h265l123 -1188l694 1188h27l-887 -1520h-59zM572 -20l-163 1520h284l121 -1189l324 559h27l-516 -890h-77zM237 1475v25h1582v-25h-1582zM1236 834l389 666h27l-389 -666h-27zM1909 1475v25
h386v-25h-386z" />
    <glyph glyph-name="wcircumflex" unicode="&#x175;" horiz-adv-x="1513" 
d="M668 1125l-14 14l282 250h154l195 -250l-15 -15l-261 145zM936 -20q-67 0 -122 21t-92 67.5t-49.5 122t6.5 185.5l135 544h220l-134 -548q-16 -63 -32 -127t-19.5 -117t19 -85.5t83.5 -32.5q96 0 174 54.5t136.5 142t98 188t59 194.5t19.5 159q0 71 -34 117.5t-91 47.5
v23q43 0 74.5 -22t48 -55t16.5 -65q0 -68 -42 -106t-102 -38q-61 0 -102.5 38.5t-41.5 100.5q0 64 42.5 106.5t106.5 42.5q66 0 109 -53.5t43 -136.5q0 -66 -19.5 -163.5t-60 -202t-103 -196t-149 -149t-197.5 -57.5zM339 -20q-94 0 -146.5 39.5t-64.5 107.5t17 155l184 540
q3 9 6 20.5t3 20.5q0 31 -34 31q-49 0 -92 -34.5t-81.5 -100t-74.5 -158.5l-24 8q38 100 83.5 174.5t106.5 115.5t146 41q83 0 128.5 -34t45.5 -89q0 -23 -4.5 -49t-11.5 -47l-161 -465q-41 -118 -34.5 -175t59.5 -57q57 0 107 42.5t92 117.5t77 175t63 215h20
q-21 -86 -47 -171t-60 -161t-77 -135t-99 -93t-127 -34z" />
    <glyph glyph-name="Ycircumflex" unicode="&#x176;" horiz-adv-x="1482" 
d="M748 1705l-14 14l282 250h154l195 -250l-15 -15l-261 145zM495 0l170 754l-288 746h296l251 -720l573 716h31l-607 -758l-164 -738h-262zM315 0v25h642v-25h-642zM237 1475v25h650v-25h-650zM1263 1475v25h420v-25h-420z" />
    <glyph glyph-name="ycircumflex" unicode="&#x177;" horiz-adv-x="1108" 
d="M355 1125l-14 14l282 250h154l195 -250l-15 -15l-261 145zM144 -520q-73 0 -126.5 30.5t-83 83.5t-29.5 122q0 40 18.5 75.5t51.5 58t77 22.5q31 0 62.5 -14.5t52.5 -43.5t21 -73q0 -60 -38.5 -97t-88.5 -37q-34 0 -69.5 13t-60 37t-24.5 59h24q0 -63 25.5 -110.5
t73.5 -74.5t114 -27q80 0 172 54t186.5 145.5t185 205t169.5 235t139.5 235.5t94.5 205t34 144q0 42 -16 85t-49.5 72t-87.5 29v23q45 0 80 -20t54.5 -51.5t19.5 -65.5q0 -39 -21 -70t-55 -48.5t-74 -17.5q-69 0 -110.5 40.5t-41.5 97.5t42 97t106 40q66 0 105.5 -33.5
t56.5 -82.5t17 -94q0 -56 -34.5 -150.5t-95.5 -210.5t-141.5 -239t-173 -239t-189.5 -208.5t-192.5 -147t-180.5 -54.5zM649 -159q-36 63 -73 150t-71.5 186t-66.5 199t-59.5 190t-49 159.5t-35.5 105.5q-6 16 -19 32t-45 16q-37 0 -83.5 -42t-87.5 -154l-24 10
q33 90 76 144t98 78t121 24q103 0 151 -50.5t71 -129.5q20 -67 45 -159.5t56.5 -193t70 -195t87.5 -166.5q-19 -27 -37.5 -51.5t-37.5 -48.5t-40.5 -49.5t-46.5 -54.5z" />
    <glyph glyph-name="Ydieresis" unicode="&#x178;" horiz-adv-x="1482" 
d="M1221 1688q-49 0 -83.5 34t-34.5 83t34.5 83.5t83.5 34.5t83 -34.5t34 -83.5t-34 -83t-83 -34zM859 1688q-49 0 -83.5 34t-34.5 83t34.5 83.5t83.5 34.5t83 -34.5t34 -83.5t-34 -83t-83 -34zM495 0l170 754l-288 746h296l251 -720l573 716h31l-607 -758l-164 -738h-262z
M315 0v25h642v-25h-642zM237 1475v25h650v-25h-650zM1263 1475v25h420v-25h-420z" />
    <glyph glyph-name="Zacute" unicode="&#x179;" horiz-adv-x="1166" 
d="M650 1683l-13 16l178 236q20 27 44.5 38t49 9.5t45 -13t31.5 -28.5q17 -26 14 -58t-23 -58.5t-55 -37.5zM-103 0v25l1073 1450h-309q-137 0 -224 -38.5t-141 -113t-91 -181.5h-24l84 358h1032v-25l-1073 -1450h369q137 0 223 40.5t141 123.5t100 209h24l-92 -398h-1092z
" />
    <glyph glyph-name="zacute" unicode="&#x17a;" horiz-adv-x="897" 
d="M440 1103l-13 16l178 236q20 27 44.5 38t49 9.5t45 -13t31.5 -28.5q17 -26 14 -58t-23 -58.5t-55 -37.5zM-78 -2l463 454l467 469l-452 -443zM-63 -20l-16 19q100 81 181 134t147.5 78.5t123.5 25.5q45 0 77.5 -16.5t61 -37.5t60.5 -37.5t75 -16.5q49 0 84 35t53.5 86
t18.5 100h24q-3 -31 -22.5 -55.5t-49.5 -38.5t-62 -14q-30 0 -58.5 15.5t-47 43t-18.5 63.5q0 57 39 90.5t88 33.5q36 0 66 -15.5t48.5 -46.5t18.5 -76q0 -51 -24 -114t-67.5 -122t-101.5 -96.5t-126 -37.5q-50 0 -88.5 15t-74 35t-74 35t-88.5 15q-72 0 -136 -26t-112 -74z
M49 520l99 419q54 -30 113 -47t115.5 -24.5t102.5 -7.5q36 0 86 4t102.5 12t97.5 23.5t71 39.5l18 -19q-62 -49 -128 -97.5t-132.5 -87t-129 -62t-116.5 -23.5q-66 0 -126 24t-99 52l-49 -206h-25z" />
    <glyph glyph-name="Zdotaccent" unicode="&#x17b;" horiz-adv-x="1166" 
d="M814 1793q-42 0 -76 21t-53.5 55.5t-19.5 74.5q0 41 19.5 75t53.5 54.5t76 20.5t76 -20.5t54.5 -54.5t20.5 -75q0 -40 -20.5 -74.5t-54.5 -55.5t-76 -21zM-103 0v25l1073 1450h-309q-137 0 -224 -38.5t-141 -113t-91 -181.5h-24l84 358h1032v-25l-1073 -1450h369
q137 0 223 40.5t141 123.5t100 209h24l-92 -398h-1092z" />
    <glyph glyph-name="zdotaccent" unicode="&#x17c;" horiz-adv-x="897" 
d="M604 1213q-42 0 -76 21t-53.5 55.5t-19.5 74.5q0 41 19.5 75t53.5 54.5t76 20.5t76 -20.5t54.5 -54.5t20.5 -75q0 -40 -20.5 -74.5t-54.5 -55.5t-76 -21zM-78 -2l463 454l467 469l-452 -443zM-63 -20l-16 19q100 81 181 134t147.5 78.5t123.5 25.5q45 0 77.5 -16.5
t61 -37.5t60.5 -37.5t75 -16.5q49 0 84 35t53.5 86t18.5 100h24q-3 -31 -22.5 -55.5t-49.5 -38.5t-62 -14q-30 0 -58.5 15.5t-47 43t-18.5 63.5q0 57 39 90.5t88 33.5q36 0 66 -15.5t48.5 -46.5t18.5 -76q0 -51 -24 -114t-67.5 -122t-101.5 -96.5t-126 -37.5q-50 0 -88.5 15
t-74 35t-74 35t-88.5 15q-72 0 -136 -26t-112 -74zM49 520l99 419q54 -30 113 -47t115.5 -24.5t102.5 -7.5q36 0 86 4t102.5 12t97.5 23.5t71 39.5l18 -19q-62 -49 -128 -97.5t-132.5 -87t-129 -62t-116.5 -23.5q-66 0 -126 24t-99 52l-49 -206h-25z" />
    <glyph glyph-name="Zcaron" unicode="&#x17d;" horiz-adv-x="1166" 
d="M686 1700l-195 251l16 16l260 -147l340 145l14 -14l-283 -251h-152zM-103 0v25l1073 1450h-309q-137 0 -224 -38.5t-141 -113t-91 -181.5h-24l84 358h1032v-25l-1073 -1450h369q137 0 223 40.5t141 123.5t100 209h24l-92 -398h-1092z" />
    <glyph glyph-name="zcaron" unicode="&#x17e;" horiz-adv-x="897" 
d="M476 1120l-195 251l16 16l260 -147l340 145l14 -14l-283 -251h-152zM-78 -2l463 454l467 469l-452 -443zM-63 -20l-16 19q100 81 181 134t147.5 78.5t123.5 25.5q45 0 77.5 -16.5t61 -37.5t60.5 -37.5t75 -16.5q49 0 84 35t53.5 86t18.5 100h24q-3 -31 -22.5 -55.5
t-49.5 -38.5t-62 -14q-30 0 -58.5 15.5t-47 43t-18.5 63.5q0 57 39 90.5t88 33.5q36 0 66 -15.5t48.5 -46.5t18.5 -76q0 -51 -24 -114t-67.5 -122t-101.5 -96.5t-126 -37.5q-50 0 -88.5 15t-74 35t-74 35t-88.5 15q-72 0 -136 -26t-112 -74zM49 520l99 419q54 -30 113 -47
t115.5 -24.5t102.5 -7.5q36 0 86 4t102.5 12t97.5 23.5t71 39.5l18 -19q-62 -49 -128 -97.5t-132.5 -87t-129 -62t-116.5 -23.5q-66 0 -126 24t-99 52l-49 -206h-25z" />
    <glyph glyph-name="longs" unicode="&#x17f;" horiz-adv-x="764" 
d="M-147 -520q-84 0 -141 30t-86 76t-29 94q0 65 39.5 103t94.5 38t94 -34t39 -95q0 -40 -19.5 -69.5t-51 -45.5t-67.5 -16q-31 0 -60.5 15.5t-48 42t-18.5 61.5h23q0 -39 24 -79t72 -67t117 -27q60 0 101 36t69.5 100t51 149t45.5 182l242 1049q24 103 62.5 193t94.5 158.5
t132.5 107t174.5 38.5q85 0 142 -30t86 -75.5t29 -94.5q0 -63 -38.5 -102t-94.5 -39q-53 0 -94 34t-41 95q0 39 19 68t50 46t68 17q22 0 44.5 -9t42 -25t31 -37.5t11.5 -47.5h-23q0 39 -24 79t-71 67t-117 27q-59 0 -99 -36t-68.5 -100t-50.5 -149t-44 -183l-246 -1048
q-24 -103 -62.5 -193t-94.5 -158t-133 -107t-177 -39z" />
    <glyph glyph-name="uni0180" unicode="&#x180;" horiz-adv-x="1190" 
d="M596 -20q-189 0 -270 160h-8l-56 -140h-226l248 1168h-140l40 194h140l34 158h294l-34 -158h284l-40 -194h-286q-37 -140 -66 -222h8q69 79 136 112.5t140 33.5q142 0 225 -100.5t83 -275.5q0 -186 -66.5 -359t-182.5 -275t-257 -102zM676 854q-72 0 -131 -60t-97 -175
t-38 -229q0 -78 36 -125t100 -47q65 0 124.5 67.5t96.5 185t37 231.5q0 78 -32 115t-96 37z" />
    <glyph glyph-name="uni0181" unicode="&#x181;" horiz-adv-x="1459" 
d="M990 1428q226 0 339 -80.5t113 -237.5q0 -146 -81.5 -240.5t-230.5 -125.5v-8q98 -25 156 -94t58 -176q0 -224 -149.5 -345t-412.5 -121h-510l250 1180h-50q-66 0 -107 -44.5t-41 -113.5q0 -27 6 -50h-222q-9 28 -8 76q0 178 110.5 279t309.5 101h470zM622 250h176
q114 0 179 56.5t65 157.5q0 158 -178 158h-162zM752 862h146q118 0 177 48t59 136q0 134 -166 134h-148z" />
    <glyph glyph-name="uni0182" unicode="&#x182;" horiz-adv-x="1183" 
d="M598 880q232 0 355 -102t123 -298q0 -231 -154 -355.5t-446 -124.5h-424l302 1428h802l-52 -248h-508l-64 -300h66zM496 248q136 0 207 57t71 161q0 166 -188 166h-106l-82 -384h98z" />
    <glyph glyph-name="uni0183" unicode="&#x183;" horiz-adv-x="1190" 
d="M596 -20q-189 0 -270 160h-8l-56 -140h-226l322 1520h836l-48 -224h-542q-43 -211 -94 -350h8q70 81 135 113.5t141 32.5q142 0 225 -100.5t83 -275.5q0 -186 -66.5 -359t-182.5 -275t-257 -102zM676 854q-72 0 -131 -60t-97 -175t-38 -229q0 -78 36 -125t100 -47
q65 0 124.5 67.5t96.5 185t37 231.5q0 79 -32 115.5t-96 36.5z" />
    <glyph glyph-name="uni0184" unicode="&#x184;" horiz-adv-x="1282" 
d="M1172 488q0 -240 -157 -374t-435 -134q-209 0 -333.5 95.5t-124.5 262.5q0 48 12 102l210 988h298l-116 -548h152q240 0 367 -100.5t127 -291.5zM424 366q0 -73 46 -105.5t136 -32.5q125 0 194.5 63t69.5 177q0 87 -55.5 125.5t-182.5 38.5h-158l-42 -196q-8 -32 -8 -70z
" />
    <glyph glyph-name="uni0185" unicode="&#x185;" horiz-adv-x="1179" 
d="M1092 712q0 -204 -73.5 -379t-198.5 -264t-288 -89q-196 0 -303 105t-107 295q0 85 20 170l206 970h294l-76 -350q-26 -107 -66 -220h12q59 71 96.5 100.5t80.5 45.5t99 16q142 0 223 -106.5t81 -293.5zM664 874q-74 0 -131.5 -64.5t-95 -186t-37.5 -229.5
q0 -176 134 -176q67 0 124.5 62t96.5 184t39 234q0 176 -130 176z" />
    <glyph glyph-name="uni0186" unicode="&#x186;" horiz-adv-x="1223" 
d="M398 232q132 0 234.5 80.5t164 234t61.5 327.5q0 163 -66.5 242.5t-213.5 79.5q-140 0 -330 -76v254q196 76 390 76q250 0 387 -147t137 -413q0 -251 -100 -468t-272 -329.5t-392 -112.5q-124 0 -220.5 23t-199.5 79l116 244q68 -39 141 -66.5t163 -27.5z" />
    <glyph glyph-name="uni0187" unicode="&#x187;" horiz-adv-x="1223" 
d="M884 1198q-129 0 -232 -79t-165.5 -233.5t-62.5 -329.5q0 -163 67 -242.5t213 -79.5q143 0 330 76v-254q-194 -75 -390 -76q-248 0 -386 146t-138 414q0 256 101.5 471.5t271.5 327t391 111.5q104 0 196 -20q39 169 115 248.5t203 79.5q69 0 136 -28v-228q-51 18 -102 18
q-44 0 -73 -30.5t-47 -103.5l-74 -288q-187 100 -354 100z" />
    <glyph glyph-name="uni0188" unicode="&#x188;" horiz-adv-x="965" 
d="M494 -20q-196 0 -301 105t-105 297q0 207 72.5 376.5t204.5 261.5t301 92q39 0 90 -8l18 82q41 184 118 264t208 80q73 0 132 -28v-228q-47 18 -100 18q-95 0 -120 -112l-82 -378q-145 72 -252 72q-83 0 -150 -62.5t-104.5 -171.5t-37.5 -234q0 -94 44.5 -141t123.5 -47
q74 0 137.5 23t130.5 57v-240q-148 -78 -328 -78z" />
    <glyph glyph-name="uni0189" unicode="&#x189;" horiz-adv-x="1353" 
d="M136 718v24h646v-24h-646zM-73 0v25h618q102 0 188.5 50.5t156.5 137t123 196t88.5 229t54 235.5t18.5 215q0 69 -14 137.5t-47.5 125t-90.5 90.5t-143 34h-632v25h650q163 0 291.5 -59t203 -175t74.5 -288q0 -198 -69 -374.5t-191 -312.5t-285 -213.5t-352 -77.5h-642z
M107 0l340 1500h262l-340 -1500h-262z" />
    <glyph glyph-name="uni018A" unicode="&#x18a;" horiz-adv-x="1574" 
d="M1512 888q0 -273 -96 -475t-277 -307.5t-427 -105.5h-440l250 1180h-50q-66 0 -107 -44.5t-41 -113.5q0 -27 6 -50h-222q-9 28 -8 76q0 178 110.5 279t309.5 101h440q264 0 408 -139.5t144 -400.5zM726 250q145 0 252 74t167.5 218.5t60.5 329.5q0 150 -71 229t-203 79
h-112l-198 -930h104z" />
    <glyph glyph-name="uni018B" unicode="&#x18b;" horiz-adv-x="1183" 
d="M62 406q0 224 167 349t455 125h98l62 298h-542l52 250h840l-302 -1428h-344q-239 0 -362.5 104t-123.5 302zM728 632h-68q-135 0 -216.5 -58t-81.5 -158q0 -83 51.5 -125.5t146.5 -42.5h86z" />
    <glyph glyph-name="uni018C" unicode="&#x18c;" horiz-adv-x="1188" 
d="M396 -20q-144 0 -226 104.5t-82 293.5q0 191 65.5 356.5t179.5 261.5t257 96q166 0 252 -140h8q0 13 2.5 49t9 84.5t40.5 210.5h-536l48 224h830l-322 -1520h-224l18 142h-8q-69 -85 -145 -123.5t-167 -38.5zM520 218q68 0 125.5 62t96 185t38.5 237q0 70 -35 111
t-103 41q-67 0 -126.5 -63.5t-94.5 -172.5t-35 -228q0 -172 134 -172z" />
    <glyph glyph-name="uni018D" unicode="&#x18d;" horiz-adv-x="1188" 
d="M704 606q147 -125 148 -278q0 -163 -118 -255.5t-316 -92.5q-218 0 -398 110l116 210q155 -100 280 -100q65 0 104.5 31.5t39.5 86.5q0 29 -11 53.5t-35 50t-120 104.5q-228 181 -228 426q0 269 154.5 423.5t419.5 154.5q134 0 230 -47.5t147 -134.5t51 -202
q0 -199 -121 -341t-343 -199zM706 1290q-101 0 -165.5 -94.5t-64.5 -235.5q0 -145 100 -222q126 43 204 147t78 231q0 83 -38 128.5t-114 45.5z" />
    <glyph glyph-name="uni018E" unicode="&#x18e;" horiz-adv-x="1083" 
d="M46 250h508l78 368h-472l52 248h474l66 314h-508l52 248h798l-302 -1428h-798z" />
    <glyph glyph-name="uni018F" unicode="&#x18f;" horiz-adv-x="1320" 
d="M678 1196q-106 0 -194 -21.5t-170 -52.5v252q175 76 400 76q261 0 402.5 -144.5t141.5 -415.5q0 -251 -99 -467t-270 -329.5t-389 -113.5q-207 0 -320.5 96t-113.5 272q0 241 198.5 359.5t583.5 118.5h104q4 23 4 64q0 145 -69 225.5t-209 80.5zM502 232q136 0 239 88
t165 262h-150q-188 0 -289 -58t-101 -166q0 -59 38 -92.5t98 -33.5z" />
    <glyph glyph-name="uni0190" unicode="&#x190;" horiz-adv-x="1192" 
d="M776 1448q155 0 275 -37.5t221 -116.5l-132 -204q-149 116 -348 116q-264 0 -264 -178q0 -87 88 -127.5t262 -40.5h114l-50 -236h-128q-241 0 -355.5 -56.5t-114.5 -171.5q0 -92 76.5 -135t213.5 -43q205 0 408 92v-246q-98 -45 -210.5 -64.5t-263.5 -19.5
q-250 0 -389 100.5t-139 281.5q0 175 120.5 275t347.5 119v8q-134 21 -208 95t-74 185q0 122 64 212.5t191.5 141t294.5 50.5z" />
    <glyph glyph-name="uni0191" unicode="&#x191;" horiz-adv-x="1061" 
d="M-42 -480q-90 0 -158 28v228q48 -19 100 -18q47 0 80.5 29.5t45.5 90.5l328 1550h794l-52 -248h-496l-78 -368h462l-54 -248h-462l-146 -692q-42 -192 -122 -272t-242 -80z" />
    <glyph glyph-name="florin" unicode="&#x192;" horiz-adv-x="764" 
d="M-147 -520q-84 0 -141 30t-86 76t-29 94q0 65 39.5 103t94.5 38t94 -34t39 -95q0 -40 -19.5 -69.5t-51 -45.5t-67.5 -16q-31 0 -60.5 15.5t-48 42t-18.5 61.5h23q0 -39 24 -79t72 -67t117 -27q60 0 101 36t69.5 100t51 149t45.5 182l242 1049q24 103 62.5 193t94.5 158.5
t132.5 107t174.5 38.5q85 0 142 -30t86 -75.5t29 -94.5q0 -63 -38.5 -102t-94.5 -39q-53 0 -94 34t-41 95q0 39 19 68t50 46t68 17q22 0 44.5 -9t42 -25t31 -37.5t11.5 -47.5h-23q0 39 -24 79t-71 67t-117 27q-59 0 -99 -36t-68.5 -100t-50.5 -149t-44 -183l-246 -1048
q-24 -103 -62.5 -193t-94.5 -158t-133 -107t-177 -39zM123 895v25h686v-25h-686z" />
    <glyph glyph-name="uni0193" unicode="&#x193;" horiz-adv-x="1379" 
d="M736 802h550l-158 -744q-131 -45 -243 -61.5t-237 -16.5q-253 0 -390.5 144t-137.5 412q0 260 103 471t291.5 327t441.5 116q88 0 174 -20q39 169 114.5 248.5t203.5 79.5q69 0 136 -28v-228q-51 18 -102 18q-44 0 -73 -30.5t-47 -103.5l-74 -288q-94 46 -177 71t-169 25
q-149 0 -266.5 -81t-184.5 -231t-67 -322q0 -168 70.5 -247t217.5 -79q74 0 166 24l64 292h-260z" />
    <glyph glyph-name="uni0194" unicode="&#x194;" horiz-adv-x="1179" 
d="M1058 1428h312l-684 -1188q49 -178 48 -342q0 -185 -81.5 -281.5t-236.5 -96.5q-110 0 -178 65.5t-68 172.5q0 87 44.5 189.5t183.5 302.5l-228 1178h290l100 -600q12 -72 21.5 -167t10.5 -137q65 180 130 296zM440 -302q44 0 68 51.5t24 136.5q0 84 -20 164
q-52 -68 -87 -151.5t-35 -134.5q-1 -66 50 -66z" />
    <glyph glyph-name="uni0195" unicode="&#x195;" horiz-adv-x="1830" 
d="M1036 356q0 -137 136 -136q84 0 133 64t83 222l122 586h292l-128 -618q-55 -262 -176.5 -378t-341.5 -116q-201 0 -309.5 85t-108.5 249q0 59 20 152l36 172q16 68 16 118q0 118 -104 118q-90 0 -162.5 -108.5t-111.5 -287.5l-102 -478h-294l322 1520h294l-66 -310
q-32 -135 -76 -264h8q119 166 304 166q130 0 208 -82t78 -224q0 -48 -12 -114l-44 -222q-16 -69 -16 -114z" />
    <glyph glyph-name="uni0196" unicode="&#x196;" horiz-adv-x="765" 
d="M492 218q30 0 60 6t92 28v-220q-108 -52 -260 -52q-145 0 -214.5 61.5t-69.5 190.5q0 51 22 154l222 1042h298l-224 -1060q-12 -58 -12 -80q0 -70 86 -70z" />
    <glyph glyph-name="uni0197" unicode="&#x197;" horiz-adv-x="765" 
d="M112 838h172l72 338l-148 80l36 172h632l-36 -172l-186 -80l-72 -338h180l-54 -248h-178l-72 -338l152 -80l-36 -172h-632l36 172l182 80l72 338h-174z" />
    <glyph glyph-name="uni0198" unicode="&#x198;" horiz-adv-x="1225" 
d="M1114 0h-330l-206 578l-122 -68l-106 -510h-298l302 1428h298l-150 -690l156 206l188 232q104 128 160 177t114 73t128 24q65 0 130 -28v-240q-46 19 -94 18q-73 0 -146 -88l-308 -368z" />
    <glyph glyph-name="uni0199" unicode="&#x199;" horiz-adv-x="1135" 
d="M898 1092h336l-486 -492l278 -600h-328l-178 410l-118 -70l-72 -340h-294l252 1190q35 172 123 258t239 86q89 0 150 -30v-228q-49 20 -100 20q-44 0 -76 -28.5t-44 -85.5l-72 -340q-11 -56 -47 -171l-13 -43h8z" />
    <glyph glyph-name="uni019A" unicode="&#x19a;" horiz-adv-x="593" 
d="M508 840h156l-48 -224h-156l-130 -616h-294l130 616h-152l48 224h152l144 680h294z" />
    <glyph glyph-name="uni019B" unicode="&#x19b;" horiz-adv-x="1143" 
d="M508 1036l-6 52l-184 -56l-46 156l188 56q-30 36 -92 36q-43 0 -98 -12l-36 240q85 22 188 22q125 0 200.5 -51t115.5 -149l152 48l44 -158l-158 -48l100 -744q15 -112 39.5 -155t72.5 -43q31 0 66 10v-228q-71 -31 -186 -32q-112 0 -171 64.5t-79 201.5l-28 196
q-11 71 -18 234q-22 -47 -46.5 -108t-55.5 -120l-240 -448h-320z" />
    <glyph glyph-name="uni019C" unicode="&#x19c;" horiz-adv-x="1988" 
d="M1022 1428h298l-202 -954q-12 -53 -12 -98q0 -142 140 -142q100 0 168.5 84.5t111.5 281.5l176 828h296l-302 -1428h-222v152h-16q-67 -86 -158 -129t-194 -43q-204 0 -280 180h-12q-149 -180 -370 -180q-149 0 -237.5 89.5t-88.5 240.5q0 62 14 120l212 998h298
l-202 -954q-13 -55 -12 -102q0 -138 134 -138q205 0 278 332z" />
    <glyph glyph-name="uni019D" unicode="&#x19d;" horiz-adv-x="1509" 
d="M1218 0h-334l-348 1080h-10l-7 -58q-26 -209 -57 -350l-168 -800q-39 -187 -115 -269.5t-221 -82.5q-84 0 -158 28v228q48 -19 100 -18q47 0 80.5 29.5t45.5 90.5l328 1550h348l332 -1052h8q34 218 66 376l144 676h268z" />
    <glyph glyph-name="uni019E" unicode="&#x19e;" horiz-adv-x="1208" 
d="M852 -480h-294l236 1118q16 66 16 116q0 120 -106 120q-90 0 -163 -111.5t-115 -310.5l-96 -452h-294l232 1092h222l-20 -202h8q143 223 346 222q135 0 208.5 -81.5t73.5 -232.5q0 -71 -22 -176z" />
    <glyph glyph-name="uni019F" unicode="&#x19f;" horiz-adv-x="1459" 
d="M1398 916q0 -276 -96.5 -494.5t-264.5 -330t-387 -111.5q-250 0 -390 144.5t-140 399.5q0 259 96.5 476.5t266.5 333.5t393 116q249 0 385.5 -140.5t136.5 -393.5zM672 234q126 0 229.5 98.5t154.5 273.5h-630q-4 -27 -4 -82q0 -144 66 -217t184 -73zM852 1198
q-117 0 -217 -89t-159 -251h618l2 50q0 136 -63.5 213t-180.5 77z" />
    <glyph glyph-name="Ohorn" unicode="&#x1a0;" horiz-adv-x="1543" 
d="M1398 916q0 -276 -96.5 -494.5t-264.5 -330t-387 -111.5q-250 0 -390 144.5t-140 399.5q0 259 96.5 476.5t266.5 333.5t393 116q299 0 434 -202q109 72 140 272h296l10 -24q-46 -155 -137.5 -257t-238.5 -159q18 -82 18 -164zM852 1198q-118 0 -217 -89t-155 -245.5
t-56 -339.5q0 -144 65 -217t183 -73t215 85t152 240.5t55 348.5q0 139 -63.5 214.5t-178.5 75.5z" />
    <glyph glyph-name="ohorn" unicode="&#x1a1;" horiz-adv-x="1286" 
d="M668 1112q214 0 326 -142q66 26 107.5 93.5t62.5 192.5h288l10 -24q-47 -176 -137.5 -272t-256.5 -154q14 -50 14 -126q0 -206 -69 -365.5t-198.5 -247t-308.5 -87.5q-190 0 -304 115t-114 305q0 208 70 371t201.5 252t308.5 89zM786 680q0 192 -140 192
q-73 0 -131 -59.5t-94.5 -175t-36.5 -237.5q0 -181 146 -180q73 0 132 60t91.5 167t32.5 233z" />
    <glyph glyph-name="uni01A2" unicode="&#x1a2;" horiz-adv-x="2171" 
d="M1382 916q0 -273 -94.5 -490t-262.5 -331.5t-391 -114.5q-250 0 -390 144.5t-140 399.5q0 260 97 478t267.5 333t391.5 115q143 0 247.5 -48t168.5 -132q109 102 202.5 141t201.5 39q163 0 266.5 -99t103.5 -261q0 -50 -18 -140l-202 -950h-290l204 956q10 43 10 80
q0 78 -44 120t-124 42q-64 0 -125 -27.5t-103 -68.5q24 -87 24 -186zM836 1198q-118 0 -216.5 -89t-155 -245.5t-56.5 -339.5q0 -144 65 -217t183 -73t216 86.5t152 240.5t54 347q0 139 -63.5 214.5t-178.5 75.5z" />
    <glyph glyph-name="uni01A3" unicode="&#x1a3;" horiz-adv-x="1784" 
d="M1082 680q0 -206 -69 -365.5t-198.5 -247t-308.5 -87.5q-190 0 -304 115t-114 305q0 208 70 371t201.5 252t308.5 89q220 0 332 -150q77 77 155 113.5t183 36.5q158 0 251 -88.5t93 -239.5q0 -66 -20 -152l-234 -1112h-294l236 1118q14 66 14 98q0 138 -140 138
q-94 0 -176 -70q14 -48 14 -124zM786 680q0 192 -140 192q-73 0 -131 -59.5t-94.5 -175t-36.5 -237.5q0 -181 146 -180q73 0 132 60t91.5 167t32.5 233z" />
    <glyph glyph-name="uni01A4" unicode="&#x1a4;" horiz-adv-x="1440" 
d="M1450 1012q0 -235 -165.5 -369.5t-456.5 -134.5h-152l-106 -508h-298l250 1180h-50q-66 0 -107 -44.5t-41 -113.5q0 -27 6 -50h-222q-9 28 -8 76q0 178 110.5 279t309.5 101h452q236 0 357 -104t121 -312zM730 756h122q138 0 218 67t80 181q0 176 -190 176h-140z" />
    <glyph glyph-name="uni01A5" unicode="&#x1a5;" horiz-adv-x="1190" 
d="M794 1112q146 0 227 -104t81 -294q0 -194 -67.5 -372t-178 -270t-244.5 -92q-174 0 -264 160h-8q-12 -155 -42 -288l-70 -332h-294l354 1670q35 172 123 258t239 86q89 0 150 -30v-228q-49 20 -100 20q-93 0 -118 -100q-43 -168 -72 -250h8q128 166 276 166zM666 874
q-69 0 -127 -63.5t-93.5 -180t-35.5 -240.5q0 -78 33 -125t103 -47q69 0 129 68t94.5 181.5t34.5 234.5q0 86 -37 129t-101 43z" />
    <glyph glyph-name="uni01A6" unicode="&#x1a6;" horiz-adv-x="1217" 
d="M424 348l-74 -348h-298l302 1428h298l-42 -200h52q230 0 347 -99t117 -293q0 -152 -81 -264.5t-233 -165.5l254 -606h-324l-202 548h-116zM476 594h76q127 0 198.5 56t71.5 170q0 160 -192 160h-72z" />
    <glyph glyph-name="uni01A7" unicode="&#x1a7;" horiz-adv-x="1059" 
d="M782 1078q0 56 -40.5 87t-113.5 31q-58 0 -122 -16.5t-178 -65.5l-84 234q123 56 221 78t203 22q180 0 291 -99.5t111 -260.5q0 -116 -42.5 -199t-128.5 -145t-275 -134q-64 -25 -118.5 -47.5t-93 -49.5t-60.5 -60.5t-22 -80.5q0 -67 46 -104.5t132 -37.5q79 0 155.5 17
t222.5 75v-252q-186 -90 -410 -90q-201 0 -318.5 99t-117.5 271q0 118 44.5 207t127.5 153t240 122q69 25 130 48t105 50.5t69.5 62.5t25.5 85z" />
    <glyph glyph-name="uni01A8" unicode="&#x1a8;" horiz-adv-x="946" 
d="M632 820q0 71 -122 72q-90 0 -215 -50l-67 -28l-74 210q194 88 386 88q180 0 279 -75t99 -209q0 -95 -33.5 -161t-102 -113.5t-220.5 -99.5q-106 -37 -156 -60t-71 -45t-21 -57q0 -94 146 -94q151 0 324 84v-224q-100 -45 -180 -61.5t-176 -16.5q-190 0 -295 82.5
t-105 231.5q0 129 83 216t273 148q104 34 154.5 57t72 46.5t21.5 58.5z" />
    <glyph glyph-name="uni01A9" unicode="&#x1a9;" horiz-adv-x="1085" 
d="M-42 0l48 236l530 494l-314 470l48 228h884l-52 -248h-546l310 -470l-488 -460h582l-52 -250h-950z" />
    <glyph glyph-name="uni01AA" unicode="&#x1aa;" horiz-adv-x="677" 
d="M352 -480q-144 0 -225 69.5t-81 196.5q0 55 12 108l246 1156h-14q-114 0 -181 59t-67 163q0 121 82 189.5t218 68.5t212 -64t76 -180q0 -56 -14 -114l-274 -1290q-4 -19 -4 -40q0 -84 106 -84q74 0 172 34v-222q-115 -50 -264 -50zM286 1366q-33 0 -58.5 -22t-25.5 -64
q0 -36 25 -56t73 -20h38q16 82 16 96q0 31 -19 48.5t-49 17.5z" />
    <glyph glyph-name="uni01AB" unicode="&#x1ab;" horiz-adv-x="820" 
d="M502 218q78 0 206 34l-84 -400q-37 -177 -115 -254.5t-209 -77.5q-79 0 -148 26v208q44 -18 102 -18q107 0 132 118l26 126h-12q-146 0 -215 62t-69 190q0 49 12 110l112 526h-148l28 144l192 82l128 230h190l-48 -232h276l-48 -224h-276l-112 -526q-6 -29 -6 -52
q0 -72 86 -72z" />
    <glyph glyph-name="uni01AC" unicode="&#x1ac;" horiz-adv-x="1152" 
d="M648 0h-298l248 1176h-126q-69 0 -108.5 -41.5t-39.5 -112.5q0 -27 6 -50h-222q-9 28 -8 76q0 178 110.5 279t309.5 101h774l-54 -252h-344z" />
    <glyph glyph-name="uni01AD" unicode="&#x1ad;" horiz-adv-x="820" 
d="M502 218q63 0 158 34v-220q-108 -52 -260 -52q-146 0 -215 62t-69 190q0 49 12 110l112 526h-148l28 144l172 74l24 102q40 179 129.5 260.5t246.5 81.5q104 0 180 -32v-228q-67 24 -138 24q-58 0 -90 -29t-44 -87l-18 -86h276l-48 -224h-276l-112 -526q-6 -29 -6 -52
q0 -72 86 -72z" />
    <glyph glyph-name="uni01AE" unicode="&#x1ae;" horiz-adv-x="1061" 
d="M528 -162q0 -80 82 -80q58 0 108 20v-228q-32 -13 -85 -21.5t-105 -8.5q-149 0 -227.5 67.5t-78.5 190.5q0 49 12 102l274 1296h-344l54 252h986l-54 -252h-344l-272 -1288q-6 -28 -6 -50z" />
    <glyph glyph-name="Uhorn" unicode="&#x1af;" horiz-adv-x="1549" 
d="M1400 1428l-38 -180q74 23 115.5 84.5t60.5 187.5h296l10 -24q-59 -199 -192.5 -309t-329.5 -123l-118 -560q-56 -260 -213 -392t-409 -132q-207 0 -325.5 111t-118.5 301q0 70 14 134l192 902h298l-190 -898q-17 -72 -16 -122q0 -174 184 -174q120 0 190.5 75t101.5 223
l190 896h298z" />
    <glyph glyph-name="uhorn" unicode="&#x1b0;" horiz-adv-x="1421" 
d="M550 1092l-134 -638q-16 -66 -16 -116q0 -120 106 -120q90 0 163 111t115 311l96 452h294l-24 -110q50 13 83.5 43.5t54.5 77.5t40 151h296l10 -24q-57 -196 -189.5 -306.5t-332.5 -125.5l-170 -798h-222l20 202h-8q-142 -222 -346 -222q-134 0 -208 81t-74 233
q0 66 28 208l124 590h294z" />
    <glyph glyph-name="uni01B1" unicode="&#x1b1;" horiz-adv-x="1448" 
d="M664 230q110 0 198 64t140 186.5t52 253.5q0 146 -36.5 247t-115.5 177l58 270h596l-52 -254h-364q102 -65 158 -182t56 -266q0 -218 -91 -392.5t-251 -265t-370 -90.5q-251 0 -392.5 136t-141.5 372q0 240 106 416t302 272h-356l54 254h634l-58 -270
q-378 -221 -378 -636q0 -139 63.5 -215.5t188.5 -76.5z" />
    <glyph glyph-name="uni01B2" unicode="&#x1b2;" horiz-adv-x="1240" 
d="M682 0h-308l-194 1428h284l98 -850q9 -73 10 -235l-2 -79q17 54 70 161.5t78 144.5l202 334q52 85 79 141t27 89t-20 48.5t-50 15.5q-53 0 -90 -18v234q78 34 176 34q123 0 198.5 -66t75.5 -184q0 -79 -27.5 -159.5t-106.5 -210.5z" />
    <glyph glyph-name="uni01B3" unicode="&#x1b3;" horiz-adv-x="1196" 
d="M328 1450q112 0 174.5 -59.5t91.5 -180.5l86 -360l366 578h334l-604 -882l-116 -546h-296l116 544l-114 462q-19 76 -36 117.5t-37 59t-57 17.5t-76 -18v234q26 11 75 22.5t93 11.5z" />
    <glyph glyph-name="uni01B4" unicode="&#x1b4;" horiz-adv-x="1116" 
d="M462 300l4 10l18 56q40 120 82 202l152 290q70 136 150 195t190 59q77 0 158 -26l-42 -234q-34 11 -66 10q-55 0 -97 -45t-97 -147l-440 -826q-173 -324 -468 -324q-88 0 -144 18v234q66 -13 114 -12q82 0 144 47t114 145l26 48l-160 1092h288l54 -506q12 -103 12 -286h8
z" />
    <glyph glyph-name="uni01B5" unicode="&#x1b5;" horiz-adv-x="1072" 
d="M146 830h322l268 348h-530l52 250h914l-40 -198l-312 -400h194l-54 -248h-334l-258 -332h582l-52 -250h-958l38 196l298 386h-184z" />
    <glyph glyph-name="uni01B6" unicode="&#x1b6;" horiz-adv-x="910" 
d="M730 0h-776l34 176l232 284h-148l42 194h264l172 210h-388l50 228h732l-42 -196l-200 -242h150l-42 -194h-268l-192 -232h428z" />
    <glyph glyph-name="uni01B7" unicode="&#x1b7;" horiz-adv-x="1110" 
d="M634 824q167 -19 259.5 -110.5t92.5 -251.5q0 -229 -161.5 -355.5t-448.5 -126.5q-236 0 -380 78v256q73 -41 178 -68.5t178 -27.5q156 0 243 62.5t87 175.5q0 95 -62.5 138.5t-189.5 43.5h-150l44 200l370 340h-452l54 250h838l-42 -192z" />
    <glyph glyph-name="uni01B8" unicode="&#x1b8;" horiz-adv-x="1110" 
d="M878 626h-106q-210 0 -309 -55t-99 -167q0 -87 66 -135.5t190 -48.5q96 0 185 22.5t193 67.5v-250q-181 -79 -422 -80q-241 0 -378.5 108t-137.5 290q0 209 142.5 325.5t413.5 128.5l-342 402l40 194h898l-52 -250h-536l300 -340zM569 821z" />
    <glyph glyph-name="uni01B9" unicode="&#x1b9;" horiz-adv-x="1097" 
d="M812 278h-104q-214 0 -329 -78.5t-115 -221.5q0 -101 67.5 -159.5t180.5 -58.5q152 0 352 86v-246q-111 -46 -199 -63t-197 -17q-151 0 -268 55.5t-179.5 158t-62.5 232.5q0 220 156.5 362t431.5 166l-318 406l42 192h858l-50 -228h-522l302 -374z" />
    <glyph glyph-name="uni01BA" unicode="&#x1ba;" horiz-adv-x="1061" 
d="M638 306q0 53 -65 72.5t-193 19.5h-130l42 200l312 266h-422l50 228h810l-42 -192l-360 -288q146 -24 220 -101.5t74 -196.5q0 -137 -61 -215t-189 -124t-336 -67q-103 -10 -142.5 -31.5t-39.5 -58.5q0 -78 174 -78q178 0 406 78v-220q-87 -34 -207 -56t-237 -22
q-176 0 -279 74t-103 212q0 312 442 350q159 16 217.5 49.5t58.5 100.5z" />
    <glyph glyph-name="uni01BB" unicode="&#x1bb;" horiz-adv-x="1099" 
d="M786 644l-386 -380v-10h566l-52 -254h-960l42 208l446 436h-328l42 194h480q170 158 170 290q0 150 -148 150q-64 0 -132 -32.5t-168 -115.5l-142 198q124 107 243.5 154.5t246.5 47.5q185 0 293.5 -97.5t108.5 -268.5q0 -92 -40.5 -177.5t-107.5 -148.5h136l-42 -194
h-268z" />
    <glyph glyph-name="uni01BC" unicode="&#x1bc;" horiz-adv-x="1116" 
d="M598 912q197 0 310.5 -108t113.5 -290q0 -262 -165.5 -398t-482.5 -136q-119 0 -217 22t-157 60v256q67 -40 167.5 -66t192.5 -26q168 0 263 68.5t95 195.5q0 89 -62.5 129.5t-195.5 40.5h-224l116 516h-158l54 252h928l-54 -252h-482l-64 -264h22z" />
    <glyph glyph-name="uni01BD" unicode="&#x1bd;" horiz-adv-x="1070" 
d="M552 674q188 0 292 -76t104 -212q0 -199 -143 -302.5t-429 -103.5q-102 0 -207.5 20t-168.5 54v240q67 -36 165.5 -60t180.5 -24q305 0 304 150q0 57 -63.5 81.5t-194.5 24.5h-182l88 402h-164l48 224h880l-48 -224h-448l-44 -194h30z" />
    <glyph glyph-name="uni01BE" unicode="&#x1be;" horiz-adv-x="944" 
d="M540 748q0 -62 66 -110q96 -68 132.5 -108t57 -85.5t20.5 -102.5q0 -174 -121 -268t-349 -94q-105 0 -198.5 19t-147.5 49v236q71 -40 155.5 -63t156.5 -23q219 0 218 128q0 25 -20.5 49.5t-59.5 53.5q-107 74 -143.5 135t-36.5 140q0 19 2.5 44t23.5 120h-184l28 144
l192 82l128 230h190l-48 -232h276l-48 -224h-268q-22 -97 -22 -120z" />
    <glyph glyph-name="uni01BF" unicode="&#x1bf;" horiz-adv-x="1190" 
d="M228 -480h-294l334 1572h224l-16 -166h8q134 187 314 186q138 0 221 -105t83 -287q0 -210 -90 -371t-266.5 -262t-423.5 -125zM674 874q-82 0 -141 -94.5t-99 -289.5l-58 -274q193 27 310.5 161.5t117.5 324.5q0 90 -32.5 131t-97.5 41z" />
    <glyph glyph-name="uni01C0" unicode="&#x1c0;" horiz-adv-x="1032" 
d="M408 1520h214v-2000h-214v2000z" />
    <glyph glyph-name="uni01C1" unicode="&#x1c1;" horiz-adv-x="1032" 
d="M668 1520h214v-2000h-214v2000zM151 1520h214v-2000h-214v2000z" />
    <glyph glyph-name="uni01C2" unicode="&#x1c2;" horiz-adv-x="1032" 
d="M408 242h-308v194h308v224h-308v194h308v666h214v-666h310v-194h-310v-224h310v-194h-310v-722h-214v722z" />
    <glyph glyph-name="uni01C3" unicode="&#x1c3;" horiz-adv-x="572" 
d="M375 476q18 90 27.5 175t12.5 166t2.5 159t-2 154t-1.5 152q0 65 20.5 118t59.5 84.5t94 31.5q67 0 107.5 -44.5t32.5 -111.5q-8 -68 -36.5 -149t-68 -171.5t-82.5 -185t-81 -190.5t-63 -188h-22zM303 -20q-43 0 -78 20.5t-55.5 56t-20.5 78.5t20.5 78t55.5 55.5t78 20.5
t78 -20.5t56 -55.5t21 -78t-21 -78.5t-56 -56t-78 -20.5z" />
    <glyph glyph-name="uni01C4" unicode="&#x1c4;" horiz-adv-x="2425" 
d="M2088 2030l-195 251l16 16l260 -147l340 145l14 -14l-283 -251h-152zM-73 0v25h618q102 0 188.5 50.5t156.5 137t123 196t88.5 229t54 235.5t18.5 215q0 69 -14 137.5t-47.5 125t-90.5 90.5t-143 34h-632v25h650q163 0 291.5 -59t203 -175t74.5 -288q0 -198 -69 -374.5
t-191 -312.5t-285 -213.5t-352 -77.5h-642zM107 0l340 1500h262l-340 -1500h-262zM1251 0v25l1073 1450h-309q-137 0 -224 -38.5t-141 -113t-91 -181.5h-24l84 358h1032v-25l-1073 -1450h369q137 0 223 40.5t141 123.5t100 209h24l-92 -398h-1092z" />
    <glyph glyph-name="uni01C5" unicode="&#x1c5;" horiz-adv-x="2263" 
d="M1968 1700l-195 251l16 16l260 -147l340 145l14 -14l-283 -251h-152zM-73 0v25h618q102 0 188.5 50.5t156.5 137t123 196t88.5 229t54 235.5t18.5 215q0 69 -14 137.5t-47.5 125t-90.5 90.5t-143 34h-632v25h650q163 0 291.5 -59t203 -175t74.5 -288q0 -198 -69 -374.5
t-191 -312.5t-285 -213.5t-352 -77.5h-642zM107 0l340 1500h262l-340 -1500h-262zM1276 -2l463 454l467 469l-452 -443zM1291 -20l-16 19q100 81 181 134t147.5 78.5t123.5 25.5q45 0 77.5 -16.5t61 -37.5t60.5 -37.5t75 -16.5q49 0 84 35t53.5 86t18.5 100h24
q-3 -31 -22.5 -55.5t-49.5 -38.5t-62 -14q-30 0 -58.5 15.5t-47 43t-18.5 63.5q0 57 39 90.5t88 33.5q36 0 66 -15.5t48.5 -46.5t18.5 -76q0 -51 -24 -114t-67.5 -122t-101.5 -96.5t-126 -37.5q-50 0 -88.5 15t-74 35t-74 35t-88.5 15q-72 0 -136 -26t-112 -74zM1403 520
l99 419q54 -30 113 -47t115.5 -24.5t102.5 -7.5q36 0 86 4t102.5 12t97.5 23.5t71 39.5l18 -19q-62 -49 -128 -97.5t-132.5 -87t-129 -62t-116.5 -23.5q-66 0 -126 24t-99 52l-49 -206h-25z" />
    <glyph glyph-name="uni01C6" unicode="&#x1c6;" horiz-adv-x="2097" 
d="M1802 1700l-195 251l16 16l260 -147l340 145l14 -14l-283 -251h-152zM762 -20q-81 0 -119.5 41t-38.5 107q0 11 1 26.5t4 30.5l28 148l58 165l10 121l230 856h-163v25h389l-375 -1411q-4 -15 -4 -31q0 -13 7.5 -24t26.5 -11q39 0 77.5 27t80 92t87.5 177l24 -8
q-46 -114 -92.5 -187t-102 -108.5t-128.5 -35.5zM312 -20q-135 0 -196.5 87.5t-61.5 237.5q0 115 42.5 227.5t114.5 204.5t159.5 147.5t176.5 55.5q66 0 104.5 -35t55 -95t16.5 -134q0 -57 -12.5 -130t-37 -151t-60 -152t-81.5 -133.5t-101 -94.5t-119 -35zM376 42
q48 0 95.5 41t89 109.5t73.5 152.5t50.5 170.5t18.5 162.5q0 60 -10.5 106t-34.5 72t-63 26q-45 0 -91 -45.5t-88 -119.5t-74.5 -163.5t-51.5 -178.5t-19 -162q0 -84 27 -127.5t78 -43.5zM1110 -2l463 454l467 469l-452 -443zM1125 -20l-16 19q100 81 181 134t147.5 78.5
t123.5 25.5q45 0 77.5 -16.5t61 -37.5t60.5 -37.5t75 -16.5q49 0 84 35t53.5 86t18.5 100h24q-3 -31 -22.5 -55.5t-49.5 -38.5t-62 -14q-30 0 -58.5 15.5t-47 43t-18.5 63.5q0 57 39 90.5t88 33.5q36 0 66 -15.5t48.5 -46.5t18.5 -76q0 -51 -24 -114t-67.5 -122
t-101.5 -96.5t-126 -37.5q-50 0 -88.5 15t-74 35t-74 35t-88.5 15q-72 0 -136 -26t-112 -74zM1237 520l99 419q54 -30 113 -47t115.5 -24.5t102.5 -7.5q36 0 86 4t102.5 12t97.5 23.5t71 39.5l18 -19q-62 -49 -128 -97.5t-132.5 -87t-129 -62t-116.5 -23.5q-66 0 -126 24
t-99 52l-49 -206h-25z" />
    <glyph glyph-name="uni01C7" unicode="&#x1c7;" horiz-adv-x="1698" 
d="M77 0l348 1500h262l-348 -1500h-262zM-93 0v25h683q157 0 256.5 53.5t159 149t97.5 222.5h25l-104 -450h-1117zM245 1475v25h622v-25h-622zM1262 -61q-88 0 -153 34.5t-101 90.5t-36 121q0 51 21.5 88t56 56.5t73.5 19.5q34 0 69 -16.5t58.5 -50.5t23.5 -84
q0 -46 -21.5 -78t-56 -49t-73.5 -17q-35 0 -69.5 17t-57 46.5t-22.5 67.5h23q1 -46 20.5 -85t53 -69t78 -46.5t93.5 -16.5q60 0 102 47.5t74 139.5t63 225l260 1120h261l-260 -1160q-38 -63 -87.5 -132.5t-109.5 -130.5t-131 -99.5t-152 -38.5zM1476 1475v25h726v-25h-726z
" />
    <glyph glyph-name="uni01C8" unicode="&#x1c8;" horiz-adv-x="1629" 
d="M77 0l348 1500h262l-348 -1500h-262zM-93 0v25h683q157 0 256.5 53.5t159 149t97.5 222.5h25l-104 -450h-1117zM245 1475v25h622v-25h-622zM815 -520q-64 0 -116 23.5t-82.5 62.5t-30.5 87q0 43 18.5 74.5t49 48t67.5 16.5q57 0 95 -35t38 -93q0 -47 -34.5 -85t-95.5 -38
q-54 0 -95 32t-41 80h23q0 -40 28 -74t75 -55t103 -21q70 0 116 53.5t78.5 146t61.5 210.5l242 982h-133v25h362l-242 -943q-27 -104 -75.5 -194.5t-113 -158.5t-140 -106t-158.5 -38zM1512 1219q-62 0 -106 44.5t-44 106.5q0 64 44 107t106 43q64 0 106.5 -43t42.5 -107
q0 -62 -42.5 -106.5t-106.5 -44.5z" />
    <glyph glyph-name="uni01C9" unicode="&#x1c9;" horiz-adv-x="1188" 
d="M222 -20q-89 0 -131 37t-42 97q0 25 4 45.5t8 34.5l346 1281h-179v25h403l-380 -1410q-2 -9 -3 -17.5t-1 -15.5q0 -34 33 -34q39 0 78 27.5t80.5 92t87.5 176.5l24 -8q-46 -114 -92.5 -187t-103 -108.5t-132.5 -35.5zM373 -520q-64 0 -116 23.5t-82.5 62.5t-30.5 87
q0 43 18.5 74.5t49 48t67.5 16.5q57 0 95 -35t38 -93q0 -47 -34.5 -85t-95.5 -38q-54 0 -95 32t-41 80h23q0 -40 28 -74t75 -55t103 -21q70 0 116 53.5t78.5 146t61.5 210.5l242 982h-133v25h362l-242 -943q-27 -104 -75.5 -194.5t-113 -158.5t-140 -106t-158.5 -38z
M1070 1219q-62 0 -106 44.5t-44 106.5q0 64 44 107t106 43q64 0 106.5 -43t42.5 -107q0 -62 -42.5 -106.5t-106.5 -44.5z" />
    <glyph glyph-name="uni01CA" unicode="&#x1ca;" horiz-adv-x="2171" 
d="M1089 -20l-632 1520h314l435 -1065l243 1065h26l-346 -1520h-40zM-73 0v25h452v-25h-452zM116 0l330 1475h-199v25h230l-335 -1500h-26zM1209 1475v25h464v-25h-464zM1736 -61q-88 0 -153 34.5t-101 90.5t-36 121q0 51 21.5 88t56 56.5t73.5 19.5q34 0 69 -16.5
t58.5 -50.5t23.5 -84q0 -46 -21.5 -78t-56 -49t-73.5 -17q-35 0 -69.5 17t-57 46.5t-22.5 67.5h23q1 -46 20.5 -85t53 -69t78 -46.5t93.5 -16.5q60 0 102 47.5t74 139.5t63 225l260 1120h261l-260 -1160q-38 -63 -87.5 -132.5t-109.5 -130.5t-131 -99.5t-152 -38.5z
M1950 1475v25h726v-25h-726z" />
    <glyph glyph-name="uni01CB" unicode="&#x1cb;" horiz-adv-x="2103" 
d="M1089 -20l-632 1520h314l435 -1065l243 1065h26l-346 -1520h-40zM-73 0v25h452v-25h-452zM116 0l330 1475h-199v25h230l-335 -1500h-26zM1209 1475v25h464v-25h-464zM1289 -520q-64 0 -116 23.5t-82.5 62.5t-30.5 87q0 43 18.5 74.5t49 48t67.5 16.5q57 0 95 -35t38 -93
q0 -47 -34.5 -85t-95.5 -38q-54 0 -95 32t-41 80h23q0 -40 28 -74t75 -55t103 -21q70 0 116 53.5t78.5 146t61.5 210.5l242 982h-133v25h362l-242 -943q-27 -104 -75.5 -194.5t-113 -158.5t-140 -106t-158.5 -38zM1986 1219q-62 0 -106 44.5t-44 106.5q0 64 44 107t106 43
q64 0 106.5 -43t42.5 -107q0 -62 -42.5 -106.5t-106.5 -44.5z" />
    <glyph glyph-name="uni01CC" unicode="&#x1cc;" horiz-adv-x="1801" 
d="M767 -20q-84 0 -126 37t-42 106q0 21 5 43.5t10 39.5l126 418q23 78 32 134.5t-4 87t-54 30.5q-40 0 -94 -50t-110.5 -136t-106.5 -195.5t-81 -228.5h-18q22 83 57.5 175t83 180.5t104 160.5t118.5 114.5t126 42.5q85 0 131.5 -40.5t57 -108.5t-14.5 -151l-157 -536
q-3 -9 -4.5 -19t-1.5 -18q0 -16 7 -26t25 -10q66 0 125 69t120 220l23 -8q-46 -119 -95.5 -191.5t-108 -106t-133.5 -33.5zM30 0l230 895h-137v25h368l-238 -920h-223zM987 -520q-64 0 -116 23.5t-82.5 62.5t-30.5 87q0 43 18.5 74.5t49 48t67.5 16.5q57 0 95 -35t38 -93
q0 -47 -34.5 -85t-95.5 -38q-54 0 -95 32t-41 80h23q0 -40 28 -74t75 -55t103 -21q70 0 116 53.5t78.5 146t61.5 210.5l242 982h-133v25h362l-242 -943q-27 -104 -75.5 -194.5t-113 -158.5t-140 -106t-158.5 -38zM1684 1219q-62 0 -106 44.5t-44 106.5q0 64 44 107t106 43
q64 0 106.5 -43t42.5 -107q0 -62 -42.5 -106.5t-106.5 -44.5z" />
    <glyph glyph-name="uni01CD" unicode="&#x1cd;" horiz-adv-x="1255" 
d="M846 2056l-195 251l16 16l260 -147l340 145l14 -14l-283 -251h-152zM71 0l882 1529h84l190 -1529h-282l-128 1248l-718 -1248h-28zM-93 0v25h440v-25h-440zM715 0v25h652v-25h-652zM370 477v25h657v-25h-657z" />
    <glyph glyph-name="uni01CE" unicode="&#x1ce;" horiz-adv-x="1188" 
d="M738 1700l-195 251l16 16l260 -147l340 145l14 -14l-283 -251h-152zM311 -20q-135 0 -196 87.5t-61 237.5q0 115 42.5 227.5t114.5 204.5t159.5 147.5t176.5 55.5q67 0 105.5 -36t54.5 -96t16 -132q0 -57 -12.5 -130.5t-37.5 -151.5t-60.5 -151.5t-81.5 -133t-101 -94.5
t-119 -35zM376 42q48 0 95 41t89 110t74 152.5t50.5 170t18.5 162.5q0 61 -10.5 106.5t-34.5 71.5t-63 26q-45 0 -91 -45.5t-88 -119.5t-74.5 -163t-51.5 -178t-19 -163q0 -84 28 -127.5t77 -43.5zM762 -20q-81 0 -119.5 41t-38.5 107q0 19 1.5 33t3.5 24l28 148l49 155
l27 165l65 267h229l-221 -831q-4 -16 -4 -32q0 -14 7.5 -24t26.5 -10q38 0 77 27.5t80.5 92t87.5 176.5l24 -8q-46 -114 -92.5 -187t-102 -108.5t-128.5 -35.5z" />
    <glyph glyph-name="uni01CF" unicode="&#x1cf;" horiz-adv-x="765" 
d="M591 2056l-195 251l16 16l260 -147l340 145l14 -14l-283 -251h-152zM137 0l340 1500h262l-340 -1500h-262zM-83 0v25h712v-25h-712zM247 1475v25h712v-25h-712z" />
    <glyph glyph-name="uni01D0" unicode="&#x1d0;" horiz-adv-x="593" 
d="M453 1700l-195 251l16 16l260 -147l340 145l14 -14l-283 -251h-152zM269 -20q-85 0 -127.5 37t-42.5 117q0 11 1 25.5t3 24.5l167 711h-142v25h386l-195 -816q-2 -9 -3.5 -18.5t-1.5 -17.5q0 -16 8.5 -28t26.5 -12q50 0 101.5 39.5t97 108.5t78.5 156l24 -8
q-60 -153 -154 -248.5t-227 -95.5z" />
    <glyph glyph-name="uni01D1" unicode="&#x1d1;" horiz-adv-x="1459" 
d="M922 2056l-195 251l16 16l260 -147l340 145l14 -14l-283 -251h-152zM621 -20q-243 0 -378.5 143t-135.5 387q0 171 47 323.5t130.5 278t192 217t232.5 141.5t252 50q152 0 267.5 -64.5t181 -183.5t65.5 -282q0 -214 -69.5 -397.5t-190 -321t-274 -214.5t-320.5 -77z
M621 3q88 0 164.5 51.5t140.5 141t114 205t84.5 243.5t52.5 257t18 245q0 63 -11.5 125t-38.5 113t-72.5 82t-111.5 31q-83 0 -157.5 -51.5t-139 -141t-115.5 -205t-87 -243.5t-55.5 -257t-19.5 -245q0 -104 21.5 -183t72.5 -123.5t140 -44.5z" />
    <glyph glyph-name="uni01D2" unicode="&#x1d2;" horiz-adv-x="1169" 
d="M723 1700l-195 251l16 16l260 -147l340 145l14 -14l-283 -251h-152zM377 -20q-158 0 -239.5 86t-81.5 230q0 128 46 244t126 206t183 142t217 52q159 0 241.5 -88t82.5 -232q0 -127 -45.5 -242t-125 -205t-183.5 -141.5t-221 -51.5zM366 5q47 0 93 37.5t89 102t80 145.5
t65 168.5t43.5 172t15.5 154.5q0 60 -27 95t-86 35q-46 0 -92.5 -38t-89.5 -102t-80 -145t-65 -169t-43.5 -172t-15.5 -154q0 -60 27.5 -95t85.5 -35z" />
    <glyph glyph-name="uni01D3" unicode="&#x1d3;" horiz-adv-x="1381" 
d="M900 2056l-195 251l16 16l260 -147l340 145l14 -14l-283 -251h-152zM632 -29q-163 0 -275 54t-156.5 162.5t-6.5 272.5l240 1040h262l-240 -1020q-22 -94 -25.5 -179t19.5 -151.5t78.5 -104.5t151.5 -38q129 0 224.5 50.5t159.5 151.5t98 251l240 1040h26l-241 -1040
q-36 -157 -106 -266.5t-180.5 -166t-268.5 -56.5zM244 1475v25h642v-25h-642zM1200 1475v25h400v-25h-400z" />
    <glyph glyph-name="uni01D4" unicode="&#x1d4;" horiz-adv-x="1208" 
d="M740 1700l-195 251l16 16l260 -147l340 145l14 -14l-283 -251h-152zM254 -20q-91 0 -137 40.5t-53.5 109t13.5 152.5l154 613h-132v25h367l-161 -624q-21 -78 -29.5 -135t3.5 -87.5t55 -30.5q39 0 94 50t113.5 136t109 196t80.5 229h20q-20 -83 -57 -175.5t-85.5 -181
t-106 -160.5t-120.5 -114.5t-128 -42.5zM777 -20q-89 0 -131.5 40.5t-42.5 95.5q0 14 2.5 33.5t7.5 35.5l186 735h227l-222 -829q-2 -9 -3 -18t-1 -17q0 -32 30 -32q40 0 79.5 27t81 91.5t87.5 176.5l24 -8q-46 -114 -93 -187t-103 -108.5t-129 -35.5z" />
    <glyph glyph-name="uni01D5" unicode="&#x1d5;" horiz-adv-x="1381" 
d="M576 1626q0 70 38.5 107t107.5 37q60 0 90 -25.5t30 -72.5q0 -66 -35 -105t-109 -39q-122 0 -122 98zM946 1626q0 70 38.5 107t107.5 37q60 0 90 -25.5t30 -72.5q0 -66 -35 -105t-109 -39q-122 0 -122 98zM652 2040h636l-38 -186h-636zM632 -29q-163 0 -275 54
t-156.5 162.5t-6.5 272.5l240 1040h262l-240 -1020q-22 -94 -25.5 -179t19.5 -151.5t78.5 -104.5t151.5 -38q129 0 224.5 50.5t159.5 151.5t98 251l240 1040h26l-241 -1040q-36 -157 -106 -266.5t-180.5 -166t-268.5 -56.5zM244 1475v25h642v-25h-642zM1200 1475v25h400v-25
h-400z" />
    <glyph glyph-name="uni01D6" unicode="&#x1d6;" horiz-adv-x="1208" 
d="M428 1296q0 70 38.5 107t107.5 37q60 0 90 -25.5t30 -72.5q0 -66 -35 -105t-109 -39q-122 0 -122 98zM798 1296q0 70 38.5 107t107.5 37q60 0 90 -25.5t30 -72.5q0 -66 -35 -105t-109 -39q-122 0 -122 98zM504 1710h636l-38 -186h-636zM254 -20q-91 0 -137 40.5
t-53.5 109t13.5 152.5l154 613h-132v25h367l-161 -624q-21 -78 -29.5 -135t3.5 -87.5t55 -30.5q39 0 94 50t113.5 136t109 196t80.5 229h20q-20 -83 -57 -175.5t-85.5 -181t-106 -160.5t-120.5 -114.5t-128 -42.5zM777 -20q-89 0 -131.5 40.5t-42.5 95.5q0 14 2.5 33.5
t7.5 35.5l186 735h227l-222 -829q-2 -9 -3 -18t-1 -17q0 -32 30 -32q40 0 79.5 27t81 91.5t87.5 176.5l24 -8q-46 -114 -93 -187t-103 -108.5t-129 -35.5z" />
    </font>
</defs>
</svg>
