<?xml version="1.0" standalone="no"?>
<!DOCTYPE svg PUBLIC "-//W3C//DTD SVG 1.1//EN" "http://www.w3.org/Graphics/SVG/1.1/DTD/svg11.dtd" >
<svg xmlns="http://www.w3.org/2000/svg" xmlns:xlink="http://www.w3.org/1999/xlink" version="1.1">
<metadata>
Created by FontForge 20190801 at Mon Feb  8 12:13:31 2021
 By root
Copyright 2015 Google Inc. All Rights Reserved.
</metadata>
<defs>
<font id="CaveatBrush-Regular" horiz-adv-x="212" >
  <font-face 
    font-family="Caveat Brush"
    font-weight="400"
    font-stretch="normal"
    units-per-em="1000"
    panose-1="0 0 0 0 0 0 0 0 0 0"
    ascent="800"
    descent="-200"
    x-height="412"
    cap-height="622"
    bbox="-213 -272 1035.43 1046"
    underline-thickness="54"
    underline-position="-162"
    unicode-range="U+0001-206F"
  />
<missing-glyph horiz-adv-x="364" 
d="M33 0v666h265v-666h-265zM66 33h199v600h-199v-600z" />
    <glyph glyph-name=".notdef" horiz-adv-x="364" 
d="M33 0v666h265v-666h-265zM66 33h199v600h-199v-600z" />
    <glyph glyph-name="uni0000" 
 />
    <glyph glyph-name="uni0000" 
 />
    <glyph glyph-name="uni000D" unicode="&#xd;" 
 />
    <glyph glyph-name="uni0001" 
 />
    <glyph glyph-name="uni0002" 
 />
    <glyph glyph-name="uni0003" 
 />
    <glyph glyph-name="uni0004" 
 />
    <glyph glyph-name="uni0005" 
 />
    <glyph glyph-name="uni0006" 
 />
    <glyph glyph-name="uni0007" 
 />
    <glyph glyph-name="uni0008" 
 />
    <glyph glyph-name="uni0009" unicode="&#x9;" 
 />
    <glyph glyph-name="uni000A" unicode="&#xa;" 
 />
    <glyph glyph-name="uni000B" 
 />
    <glyph glyph-name="uni000C" 
 />
    <glyph glyph-name="uni000E" 
 />
    <glyph glyph-name="uni000F" 
 />
    <glyph glyph-name="uni0010" 
 />
    <glyph glyph-name="uni0011" 
 />
    <glyph glyph-name="uni0012" 
 />
    <glyph glyph-name="uni0013" 
 />
    <glyph glyph-name="uni0014" 
 />
    <glyph glyph-name="uni0015" 
 />
    <glyph glyph-name="uni0016" 
 />
    <glyph glyph-name="uni0017" 
 />
    <glyph glyph-name="uni0018" 
 />
    <glyph glyph-name="uni0019" 
 />
    <glyph glyph-name="uni001A" 
 />
    <glyph glyph-name="uni001B" 
 />
    <glyph glyph-name="uni001C" 
 />
    <glyph glyph-name="uni001D" 
 />
    <glyph glyph-name="uni001E" 
 />
    <glyph glyph-name="uni001F" 
 />
    <glyph glyph-name="space" unicode=" " 
 />
    <glyph glyph-name="exclam" unicode="!" horiz-adv-x="221" 
d="M34.5 71.5q12.5 11.5 25.5 11.5t23 4t18.5 4t27 -4.5t25 -5.5t11 -2t9 -7t4.5 -15q-15 -67 -48 -85l-30 -5q-13 0 -29 14q-32 3 -32 15q0 2 -11 15t-11 21t2.5 18t15 21.5zM190 711l-9 -75q-4 -51 -19 -191t-15 -190.5t6 -65.5q-11 -19 -28 -19q-9 0 -15 2t-8 2h-4l-4 1
q-23 36 -26 64q-17 41 -18.5 52.5t-4.5 15.5q-3 42 -3 45v42q4 25 4 52v15q0 20 8 58.5t8 64t15.5 59.5t21 48t7.5 20t5 11q5 8 13 8q15 6 21 6q45 0 45 -25z" />
    <glyph glyph-name="quotedbl" unicode="&#x22;" horiz-adv-x="350" 
d="M199 593l-3 23q0 16 10 30t26 19q26 8 48 8q34 0 34 -27q0 -9 -4 -35l-14 -90q-22 -141 -46 -141q-18 37 -21 60q-23 54 -23 63q0 12 -4 16q-4 28 -4 51zM40 593l-3 23q0 16 10 30t26 19q26 8 49 8q33 0 33 -27q-23 -169 -32 -204q-16 -62 -32 -62q-18 37 -21 60
q-23 54 -23 63q0 12 -4 16q-4 28 -4 51z" />
    <glyph glyph-name="numbersign" unicode="#" horiz-adv-x="553" 
d="M173 256q45 6 47.5 7.5t5.5 2.5q9 2 24 11q5 1 13 5t20.5 7t17.5 6t20 8q2 2 10 26.5t10 28.5l-9 6q-14 0 -58 -8q-6 -3 -69 -13q-21 -48 -21 -56t-11 -31zM-54 198q0 8 12 12q0 2 14 6q46 10 47 13q4 2 59 17q8 3 11.5 8t16.5 34q7 8 7.5 15t-4 7t-42.5 -9.5t-71 -9.5
t-37 20q-5 4 -5 17.5t5 18.5t29 8l68 17q51 19 62 24.5t13.5 6.5t9 4t13.5 6q1 5 15 47t18 56q4 8 12 14q23 64 24.5 65.5t8.5 18.5q10 30 28 37q15 0 23 -7q7 -4 19 -17t11.5 -20.5t-17.5 -30.5q-3 -9 -9 -27.5t-9 -24.5q-4 -10 -14 -46q-22 -32 -22 -46q4 -2 16.5 0
t14.5 5q5 0 15 7q4 0 9.5 3.5t6.5 5.5q17 3 18 4q46 6 54 27q0 16 8 32t7.5 19t5.5 25q10 27 12.5 38t7.5 14q6 10 6 16q4 10 13 16q24 12 41 0q8 -4 19 -14q5 0 21 -13l11 -23q-2 -2 -4.5 -9t-4.5 -10.5t-11 -25.5q-20 -53 -16 -54l51 9l15 -6q41 -17 47 -64q5 -14 -5 -19
q-6 7 -48 -2l-104 -17q-22 -84 -21 -85q43 0 72 2q21 4 47 -13q13 -13 16 -37t-4 -38q-23 0 -66 -10q-74 -8 -84 -8t-10.5 -1.5t-30.5 -101.5q-18 -83 -20 -98.5t-5 -22.5t-13.5 -7t-24 2.5t-22.5 5.5t-9 5t-14 7q0 1 -8 25q-1 4 1 23q-2 31 8 56q8 2 8 20q4 23 8 31.5
t3 18.5t-7 10t-27.5 -6t-38.5 -10q-39 -9 -44 -9q-13 -2 -16.5 -5.5t-6.5 -18.5t-10 -37q0 -4 -6 -26q-6 -35 -18 -60l-2 -14q0 -2 -2.5 -7t-5.5 -10.5t-10.5 -5.5t-17 3.5t-16.5 1.5q-1 1 -4 2q-9 5 -17 13q-3 0 -11 10q-14 15 -1 49q9 28 8 33q2 5 13 45q2 2 -28 -3
t-31 -5q-14 0 -28 25q-9 18 -9.5 24t4.5 14z" />
    <glyph glyph-name="dollar" unicode="$" horiz-adv-x="432" 
d="M272 124q1 8 1 21t-2 37q0 8 -24 37l-6 6q-4 -26 -5 -29q-2 -4 -8 -100q20 0 31 8zM221 551h-3q-15 -6 -32 -25q-9 -16 -9 -24l-9 -39q-3 -37 3 -52q0 -8 16 -24q2 -5 16 -18q1 8 8 44q-2 -4 -2 4q2 41 9 59q1 33 -0.5 33.5t1 19.5t2.5 22zM193 242l-19 9q-3 0 -20.5 14
t-20.5 17.5t-5 5.5l-13 7q-11 5 -18 18l-23 31q-2 3 -7 22q-4 4 -8 16t-3 20q-4 7 -2.5 31t1.5 34t1 17q7 8 8 36q1 1 2 5q2 3 16 33q4 4 10 8.5t14 14.5q2 0 12 11.5t22 18.5q8 0 18 2q45 8 77 12l8 33q0 24 20 36l7 4q25 4 27.5 -17t-8.5 -63l28 -5q25 -14 32 -24
q17 -13 32 -40q19 -58 14 -80q-2 -19 2 -23q4 -9 -9 -16.5t-32.5 -12t-24.5 0.5q-18 0 -23 22l-9 12q-5 10 -5 17.5t-3 40.5q-6 4 -17 31l-12 -95q1 -1 -3 -21t-3 -33.5t-7 -48.5q10 -8 46 -26.5t43 -29.5l23 -25l13 -28q2 -4 5.5 -28.5t1.5 -35.5q5 -5 -1 -26q1 -3 -1 -20
q-7 -21 -11 -27q0 -5 -15 -20q-11 -18 -22 -28.5t-36 -25.5q-5 -10 -40 -14q-14 -6 -24 2q-6 -2 -16 0l-7 -41q-18 -55 -24 -57q-14 -8 -17 5.5t-1.5 25.5t1.5 14l1 6v5q0 3 0.5 6.5t1 8.5t3.5 17t3 20l-12 4l-24 2l-15 6q-4 5 -39 26q-8 0 -15 17l-9 12q-12 14 -12 28
q-5 12 0 25q17 33 61 17q1 -1 7 -4q10 -7 33 -27t25 -20.5t8 -3.5q0 4 1 6q2 0 5 5q2 6 -1 19q0 2 1.5 43.5t1.5 50t2 11.5q-1 1 -1 4z" />
    <glyph glyph-name="percent" unicode="%" horiz-adv-x="803" 
d="M566 610h4q2 -1 7 -1.5t8 -1.5q31 -23 8 -56q-44 -55 -57.5 -81t-29.5 -52q-8 -13 -137 -225l-31 -61q-37 -72 -54 -126q-12 -19 -36 -3q-1 1 -2 1.5t-2 2.5t-2.5 4t-5.5 5q-11 12 -16 46q0 18 4 27q11 24 31 76q9 12 23 40q5 14 20 36l63 115q20 32 35 59q6 6 20 28
l20 40q42 53 51 68t19 23q1 3 8 11.5t22 17.5t30 7zM655 97q9 33 14 38q1 5 1 9v9q3 21 -3 58q-1 20 -5 31t-19 31q-12 9 -12 12q-7 6 -17 -9q-3 -8 -14 -28t-12 -22q2 -4 -4 -10q-1 -2 -0.5 -6t0 -9t-3.5 -51q0 -24 4 -34q0 -18 3 -32q-1 -19 3 -25q9 -19 19.5 -19t23.5 15
t20 37q-2 5 2 5zM511 245l6 22v3.5t4 7.5q5 5 7 12q-2 17 23 39q3 2 4.5 4.5t2 4.5t4.5 6q14 10 35 5q19 -4 21 -2.5t17 5.5q36 2 71 -42q23 -28 32 -60q14 -34 11 -74.5t-9 -48.5q-1 -11 -15.5 -49t-18.5 -44q-7 -12 -8 -16t-10 -13q-14 -14 -28.5 -19t-31.5 -5t-20 -1
q-7 1 -10 1h-7q-11 0 -26.5 8t-26.5 24l-14 27q-7 4 -9 25q-8 23 -14 79q-1 17 4 87q0 7 5 7q2 2 1 7zM215 417q9 33 14 38q1 5 1 9v9q3 21 -3 58q-1 20 -5 31t-19 31q-12 9 -12 12q-7 6 -17 -9q-3 -8 -14 -28t-12 -22q2 -4 -4 -10q-1 -2 -0.5 -6t0 -9t-3.5 -51q0 -24 4 -34
q0 -18 3 -32q-1 -19 3 -25q9 -19 19.5 -19t23.5 15t20 37q-2 5 2 5zM71 565l6 22v3.5t4 7.5q5 5 7 12q-2 17 23 39q3 2 4.5 4.5t2 4.5t4.5 6q14 10 35 5q19 -4 21 -2.5t17 5.5q36 2 71 -42q23 -28 32 -60q14 -34 11 -74.5t-9 -48.5q-1 -11 -15.5 -49t-18.5 -44
q-6 -12 -7.5 -16t-10.5 -13q-14 -14 -28.5 -19t-31.5 -5t-20 -1q-7 1 -10 1h-7q-11 0 -26.5 8t-26.5 24l-14 27q-7 4 -9 25q-8 23 -14 79q-1 17 4 87q0 7 5 7q2 2 1 7z" />
    <glyph glyph-name="ampersand" unicode="&#x26;" horiz-adv-x="490" 
d="M209 577q-16 -2 -20 -24q-7 -45 -1 -69q8 -48 22 -59q12 10 17 27q13 27 16 46q5 30 -16 63q-4 12 -18 16zM111 180v-16q1 -44 9 -58.5t34 -26.5q63 0 83 40q3 6 5.5 10.5t2.5 7t-5 8t-10 12.5q-13 16 -15 25.5t-15 22.5q0 1 -9.5 15t-11.5 26l-16 38q0 -8 -35 -43
q-17 -38 -17 -61zM333 492l-11 -43q-1 0 -2 -3q-1 -1 -5 -8q-8 -14 -12 -23q0 -4 -8 -13t-16 -13q-6 -6 -14 -13q-15 -12 -14 -16q-2 -13 17 -44.5t20 -35.5t8 -13t10 -17t13 -14q6 25 10.5 35t8.5 31q8 18 8 35q12 26 20 30q5 0 18.5 2.5t51.5 -7.5q0 -1 3 -2q11 -6 19 -14
q4 -7 -0.5 -48t-20.5 -86q-31 -69 -45 -75q-8 -2 28.5 -37.5t44.5 -41.5t8 -8q37 -27 39 -39q5 -19 -7 -35q-2 -2 -7.5 -3t-13.5 -1.5t-16.5 -4.5t-35.5 -1q-2 -5 -19.5 -2.5t-26 5t-13.5 4t-12 8t-9 8.5q-9 9 -20.5 24t-14 16.5t-17.5 22.5q-18 -15 -57 -44q-4 -1 -12.5 -6
t-12.5 -7q-11 -13 -30 -11.5t-33.5 -2t-23 -1.5t-27 8.5t-25.5 7.5q-22 11 -48 39q0 2 -9 17q-10 5 -12 15t-3 17t-1.5 13t-4.5 12q1 3 -0.5 16t-3.5 17q0 54 12 62l6 38q3 7 6 24q-4 11 16 31q15 26 36 45q0 6 13 9q4 2 13 11q2 4 14 12q6 11 -1.5 27.5t-5.5 25.5
q0 15 -4.5 22.5t-5.5 13t-1.5 14.5t-2.5 19q1 5 -1 19q-7 33 22 72q3 14 8 16.5t10 6.5t9.5 8t25 15t54.5 9q60 -3 63 -15q8 -2 19 -15q9 -4 20.5 -23t11.5 -25t5 -25q2 -22 -6 -47z" />
    <glyph glyph-name="quotesingle" unicode="'" horiz-adv-x="190" 
d="M40 593l-3 23q0 16 10 30t26 19q26 8 48 8q34 0 34 -27q0 -9 -5 -35l-13 -90q-22 -141 -46 -141q-18 37 -21 60q-23 54 -23 63q0 12 -4 16q-4 28 -4 51z" />
    <glyph glyph-name="parenleft" unicode="(" horiz-adv-x="283" 
d="M66 343l6 95q0 61 6 71v19q0 12 4 18q7 13 22 62q5 0 28 65q0 2 9 11t25.5 19t30.5 11l23 5h4q4 0 14.5 0.5t14 0t11.5 -1.5t14 -4q12 -7 31 -22q0 -8 -35 -23q-2 0 -12 -14l-18 -39l-24 -68q-16 -44 -28.5 -113t-14.5 -78q-6 -27 -6 -80t2 -79q8 -83 35 -140
q7 -14 10 -22.5t4 -10.5t3 -7q9 -20 49 -72l8 -15q11 -10 37 -47q3 -5 7 -30q-16 2 -21 4t-22 13l-1 -1q1 2 -4.5 5t-13.5 3l-42 31q-15 15 -25 23l-21 24l-17 28l-7 15q-3 3 -5 19q-5 3 -26 33l-13 26l-5 19q-14 35 -17 46l-11 44q0 2 -3 17t-3 45l-4 26q0 14 4 27
q-4 4 -3 21v21z" />
    <glyph glyph-name="parenright" unicode=")" horiz-adv-x="301" 
d="M141 252q-4 3 -4 35.5t-4 84t-5.5 61.5t-3.5 19q-5 21 -15 112l-7 24q-3 14 -17 37q0 6 -11.5 19.5t-11.5 23.5q0 4 22 18h8h14.5t22.5 -2.5t26 -21.5t33 -58l19 -43q-1 0 1 -2q7 -10 14 -40l6 -20l16 -84q2 -10 2 -26v-19q6 -12 6 -68q0 -64 -12 -109l-7 -29
q-3 -18 -29 -75t-60 -97l-41 -41q-2 -7 -22 -20l-49 -20l-29 -5q-31 0 -36 15l41 24q0 2 22 27v3q5 -3 26 32l12 21q0 3 16 24h2q1 1 1 6t16 33q1 0 8 23t8 30t2 8v-1q10 15 10 26.5t-3 23.5q0 23 13 51z" />
    <glyph glyph-name="asterisk" unicode="*" horiz-adv-x="366" 
d="M148 612l-1 8q0 2 -3 20q-12 18 -4 31q9 6 23 4q17 0 58 -29l-1 -29q2 -16 3 -24.5t3 -16.5t4 -10.5t5 -0.5q2 4 28.5 14.5t48.5 15.5q13 7 19 3q4 -1 16.5 -22t12.5 -26v-22q-5 1 -72 -22l-57 -34q5 -14 9.5 -44t6 -42t-3.5 -16t-36 -4l-13 1h-3q-1 1 -26 8
q-1 2 -5.5 31t-4.5 36q-4 0 -13 -7q-10 -9 -24 -18q-5 0 -17 -12q-44 -26 -48 -24.5t-10 8t-5 8.5q0 2 -10 12q-8 10 -8 15.5t20.5 13.5t20.5 12l17 11q0 3 13 8q0 3 12 9q1 2 2.5 3t3.5 2.5t4.5 4t5.5 4.5q-2 0 -54 19q-28 11 -43 50q-7 18 -6 22q2 4 16.5 -1t38.5 -11
q8 1 33 -2.5t42 -4.5q-1 10 0 27t1.5 18.5t0.5 2.5z" />
    <glyph glyph-name="plus" unicode="+" horiz-adv-x="516" 
d="M217 60q-8 16 -8 34.5t-2 28.5v1q-6 24 -6 57v36q-21 -2 -32 0q-10 -5 -20.5 -4.5t-13.5 -2.5q-8 -6 -38 -6q-6 0 -28 17l-11 19q-1 1 -1 16q-3 8 -3 31q4 6 4 28q16 8 34.5 8t28.5 2h1q24 6 48 6t35 -1q2 74 2 80l2 15q0 20 14 35t20.5 15t13 -0.5t9.5 -1t7.5 -2.5
t6.5 -5q7 -8 14 -48q0 -4 7 -90q72 -3 107 -3l15 -2q20 0 35 -14t15 -20.5t-0.5 -13t-1 -9.5t-2.5 -7.5t-5 -6.5q-8 -7 -48 -14q-10 0 -104 -9q3 -33 3 -58q5 -10 4.5 -20.5t2.5 -13.5q6 -8 6 -38q0 -6 -17 -28l-19 -11q-1 -1 -16 -1q-8 -3 -31 -3q-6 4 -28 4z" />
    <glyph glyph-name="comma" unicode="," horiz-adv-x="203" 
d="M153 98q15 -2 16.5 -17.5t1.5 -42t-15 -71.5q-3 -14 -11 -22q0 -3 -10 -26q-6 -30 -45 -50q-8 -6 -14 -7q-23 -5 -38 6q-6 3 -3 7q0 7 11.5 23.5t14.5 23t8 25.5v38q0 35 -16 48.5t-14 40.5q-1 1 0 9.5t7 20t15 17.5l15 -1q21 2 37 -4l16 -4q1 0 24 -14z" />
    <glyph glyph-name="hyphen" unicode="-" horiz-adv-x="407" 
d="M36 265q19 8 41.5 8t35.5 2h1q32 6 72 6l120 -6l17 -2q26 0 44.5 -14t18 -21.5t-1.5 -16.5t-2 -13q-3 -9 -22 -13l-16 -3q-18 0 -30 -4q-15 0 -26 -4.5t-39 -4.5l-16 -3q-32 -10 -60 -9q-12 -5 -25 -4.5t-16 -2.5q-10 -6 -47 -6q-9 0 -35 17l-14 19q-2 2 -1 16
q-4 7 -4 31q5 7 5 28z" />
    <glyph glyph-name="period" unicode="." horiz-adv-x="200" 
d="M89 140h1q19 3 38 -11l10 -11q1 -4 13 -12q1 -3 -3 -26q7 -5 12 -27q1 -21 -7 -70q2 -5 -3 -10q-11 -11 -42 -1q0 -1 -1.5 -0.5t-8 2t-10 2t-24.5 5.5q-18 7 -18 10q-11 11 -11 18q-6 12 -2 28t6 26l9 17q0 7 11 30q2 13 5 16q16 10 25 14z" />
    <glyph glyph-name="slash" unicode="/" horiz-adv-x="279" 
d="M-6 -103l-2 20q0 9 18 90l111 339q18 41 21 55q29 63 30.5 67t3.5 7q11 23 36 104q1 1 5.5 10t6.5 11l23 16q18 13 32.5 13t21.5 -9l12 -25q0 -17 -21 -54q-49 -125 -51 -131.5t-9 -22.5q-1 -7 -12 -37l-23 -66q-17 -37 -17 -44q-27 -89 -34 -93q0 -1 -4 -9
q-12 -30 -13 -46q-2 -16 -26 -117q0 -6 -9 -38q0 -9 -4.5 -37.5t-10.5 -45.5q-16 -43 -43 -43q-14 0 -30.5 18t-16.5 48z" />
    <glyph glyph-name="zero" unicode="0" horiz-adv-x="447" 
d="M291 263l2 32q4 35 -5 100q-1 35 -8 53.5t-29 52.5q-18 16 -18 21q-11 11 -26 -16q-4 -15 -39 -86q3 -8 -6 -17q-2 -3 -2 -12q3 -6 2 -17q-3 -10 -6 -84q0 -42 7 -60q0 -34 4 -54q-1 -28 4 -44q14 -33 30 -33t35.5 26t30.5 64q-1 8 3 8q0 7 5.5 23.5t5.5 22.5zM58 474
l3 21q0 7 10 19q6 16 5.5 21t10 26.5t19.5 30t17 20.5q0 5 6.5 11t13.5 7q23 8 35 4q31 -12 37 -5q2 3 20.5 6.5t26 3t16.5 -7.5q35 -17 69.5 -66t48.5 -103q22 -68 15 -134q-7 -75 -32 -151t-30.5 -87t-9 -16.5t-4.5 -12t-15 -22.5t-21 -18q-28 -22 -50 -23
q-5 -1 -16.5 -0.5t-20.5 0.5t-14 -2q-18 2 -28.5 1.5t-29.5 8.5q-30 19 -48 47q-4 17 -11 24l-10 22q-11 7 -13 43q-31 90 -15 286q0 13 7 13q3 5 2 12q0 7 6 21z" />
    <glyph glyph-name="one" unicode="1" horiz-adv-x="348" 
d="M230 -6l-20 2q-21 4 -25 19q0 4 -8 8q-6 0 -15 10.5t-9.5 39t-0.5 58.5t1 33q3 0 0 12q-4 39 -1 53.5t4 98.5t-7 88q-1 2 -7 0.5t-9 -4.5q-8 -16 -10 -16q-4 -4 -10 -8q-18 -21 -56 -12q-27 4 -34.5 11t-9.5 20.5t11 22.5q26 18 37 40l14 16l11 8q0 2 6 7t12.5 10.5
t6.5 10.5l10 16q10 10 10 18q1 0 7 6t11 9q7 14 28 37q13 19 13.5 19.5t4 2.5t9.5 4.5t12.5 6.5t11 4.5t21.5 -1.5t17 -4t3 -6.5t7 -4.5t9 -7q4 0 18 -7q8 -10 9 -15q-6 -3 -6 -12l-9 -82q-13 -56 -19 -263q-4 -30 -4 -47.5t-4 -54.5t-4 -73t-2 -48q-7 -29 -34 -26z" />
    <glyph glyph-name="two" unicode="2" horiz-adv-x="416" 
d="M121 0l-12 2q-5 0 -14 7.5t-10.5 4t-10.5 3.5q-23 17 -38.5 46t-3.5 49q5 13 21 34.5t21 30.5t18 24.5t17 25.5q4 16 27 31q6 12 10 18.5t8 14.5q12 23 15.5 27.5t6.5 9.5q5 7 18 17q3 10 9.5 22.5t8.5 16.5q36 44 52 97q4 22 -5 35t-33 3q-69 -32 -120 -123
q-11 -5 -20 4q-8 3 -20 15q-13 8 -17 20t-4 41.5t8 44.5t13 18q6 6 6 18q6 12 12 14q4 11 2 14l6 8l12 22q12 18 30 22q4 4 7 6.5t7 6.5q4 0 12 4q8 0 26 3q4 4 19 3.5t25 -6.5q18 -2 23.5 -3t7.5 -1t11 -11l10 -8q2 0 24.5 -23.5t26 -32t8 -11.5t17.5 -21t17 -27
q12 -23 8.5 -67t-25.5 -84t-88 -132q-25 -35 -101 -118q149 0 152 -2t33 -27q5 -6 17 -29.5t13 -33.5q5 -13 7 -13q3 -4 2 -13.5t-9 -9.5q-7 8 -34.5 10.5t-83.5 2.5t-80 -2q-65 0 -65 2z" />
    <glyph glyph-name="three" unicode="3" horiz-adv-x="426" 
d="M193 -11q-9 -4 -30 -4t-49 5q-56 12 -73 39q-22 36 -22 77q-4 36 37 36q9 0 21.5 -6t17.5 -11q6 -3 25 -5q59 -8 111 34q34 25 40.5 41.5t6.5 39.5t-20 27.5t-42.5 -2t-46.5 -9.5q-24 -9 -40.5 10t-9.5 70q4 21 14 31q29 10 57 14q8 1 25.5 17t40 48.5t15.5 56.5t-35 18
q-20 -2 -28.5 -4.5t-39.5 -16.5q-44 -13 -62.5 -13t-27.5 12q-25 44 -28.5 64t3.5 37q1 10 6.5 15t21.5 4q10 5 26 0q26 -5 35 0l18 6q20 1 27.5 8.5t42.5 5.5l16 6q14 2 23 -3q33 -12 51 -20q-1 -3 17 -8q18 -15 21 -36q16 -40 23.5 -69t-0.5 -48t-20.5 -32.5t-21.5 -23.5
q-14 -16 -41 -38q27 -8 36 -25q3 -1 11 -11t11 -18q14 -20 16 -40q6 -20 8.5 -58t-15.5 -77l-11 -33q-7 -25 -17.5 -38t-42.5 -29.5t-39 -17.5q-23 -16 -62 -26z" />
    <glyph glyph-name="four" unicode="4" horiz-adv-x="460" 
d="M288 536v7q-5 -7 -13 -17q-2 -6 -13 -22q-54 -78 -59 -92l-14 -25q-54 -76 -60 -91q-3 -4 -7 -7.5t-6 -6t0.5 -3t7.5 1t15 1.5l52 10q31 0 47 11q7 2 15 37q0 21 4 29l6 51q6 6 6 10v5q4 44 5 53zM225 159l2 31q3 19 0 19q-17 0 -62 -20t-51 -22l-9 -3q-9 -5 -14 -5
q-8 -5 -21 -3.5t-17.5 6t-9 7t-8 3t-4.5 -0.5t-8 5t-11 10.5t-13 8.5l-9 10q0 4 -7 10q-4 12 -4.5 19.5t16.5 55.5q10 10 13 23q4 2 6 8q5 0 14 16q13 25 14 26l12 14q0 4 8.5 16t12.5 14q-4 0 7.5 17.5t14.5 21t9 15.5q4 5 6.5 10.5t11.5 14.5q4 4 19 31l28 36q6 15 22 31
q2 5 22.5 27t31.5 27q8 6 8 9q1 1 12.5 1t17 -1.5t30.5 -23.5q3 2 14 2q30 0 50 -20l23 -16q5 -2 -2 -22q-23 -60 -41 -179q-6 -50 -6 -53q1 -1 17 -1l48 3q15 0 21 -2t16.5 -9t15.5 -15q0 -4 7 -8q0 -6 4 -10l8 -4q0 -2 11 -18q23 -17 -2 -21q-18 8 -47 3q-6 0 -26 -6
q-76 -10 -85 -16q-1 0 -5 -18q0 -19 -3 -23q-2 -27 -2.5 -86.5t0.5 -68.5q2 -2 2 -20q3 -6 3 -15q2 -4 -3 -13q-2 -6 -10 -4q-18 0 -26 2q-26 0 -32 7q-4 0 -20 8q0 4 -8 9.5t-10 3.5l-8 2q-4 12 -4 30q5 78 8 81v15q2 5 2 18z" />
    <glyph glyph-name="five" unicode="5" horiz-adv-x="440" 
d="M55 108l37 11q7 0 14 7q11 7 22 6l44 22l14 5q33 17 37 18q12 9 18 10q5 1 16 9q10 10 21 14q4 4 18 14q32 32 19 52q-5 7 -17 11q-30 2 -52 2t-67 -10l-62 -8q-9 -7 -28 14q-6 0 -30 18q-8 10 -14 15q-14 8 -19 20q-1 6 7.5 49t10.5 49t3 14l10 27q28 62 28 76l-4 12
q-12 18 -12 34.5t2 18.5t13 0q2 1 13 8q9 20 23 9q4 -6 11.5 -8.5t15.5 2.5t22 -4q5 1 21 0q5 -3 11 1q7 7 25.5 8t27.5 4.5t28 0.5q12 4 24 4q2 -2 13 2h1q27 2 45 -9q7 -2 11 -8q4 -9 19 -16q-2 -5 9 -20.5t14 -32t-2.5 -21.5t-13.5 -8.5t-24 -0.5t-41 3q-37 -3 -98 -12
q-23 -6 -57 -9q-1 -1 -4.5 -16t-5.5 -18q-8 -46 -15 -64.5t-7 -21.5q63 9 66 8h39q47 -2 67 -17l11 -8q20 -12 33 -26l57 -73q15 -24 18 -36q11 -14 8 -32q-4 0 -5.5 -2.5t-2.5 -4.5q-4 -5 -5 -9l-27 -33l-15 -16q-1 -5 -50.5 -39t-72.5 -44q-71 -33 -100.5 -43.5
t-74.5 -15.5q-8 -6 -32 -1.5t-50 35.5q-12 13 -13.5 16.5t4.5 11.5q-4 20 -9 28q2 4 8 9q9 4 26 7q11 -3 25 2z" />
    <glyph glyph-name="six" unicode="6" horiz-adv-x="470" 
d="M315 260q0 8 2 14q-2 19 -14.5 31.5t-28.5 3.5q-29 -16 -57.5 -41t-44.5 -45q-6 -16 -7.5 -31.5t-2.5 -23.5q-2 -16 -2 -17v-21q-3 -48 1 -55t13 -7.5t14 3.5q25 23 53 60q15 13 63 97zM86.5 396.5q12.5 41.5 15 50t6 14.5t4.5 10q11 13 15 30q2 0 8 16t7 18q6 6 11 21
q4 7 28 34.5t28 28.5l11 8q29 10 32.5 12.5t5.5 3.5t26.5 1t24.5 -2q0 -6 17 -11q20 -15 23 -18q13 -14 1 -33q-11 -11 -15 -13q-36 -18 -91 -129l-3 -11q0 -3 -4 -11.5t-15 -34.5t-17 -38l2 -1q26 18 48.5 37t44 23t59.5 -21.5t75 -74.5q14 -14 14 -53q3 -32 -11 -59
q-6 -8 -5.5 -14t-32.5 -48t-67 -80q-52 -39 -92 -44q-16 -1 -21 -8.5t-5 -13.5q-5 -9 -33 -13q-6 2 -17.5 7.5t-18.5 7.5t-13.5 6t-12.5 4q-3 0 -23 6q-6 -1 -25.5 16t-25.5 28q-21 33 -17.5 108t19.5 120q3 6 3.5 16t5.5 15q0 7 8 21t9 20.5t13.5 48z" />
    <glyph glyph-name="seven" unicode="7" horiz-adv-x="394" 
d="M71.5 183.5q7.5 28.5 13 38t5.5 17.5t8.5 25.5t9.5 19.5q2 2 4 13q4 4 9 27q1 0 12 16q2 14 4.5 17t3 5.5t7 20t7.5 18.5t3 5q8 16 10 22q5 20 13 36t8 26q4 16 1.5 19.5t-40 -1.5t-77.5 4q-14 2 -20 10q-9 16 -17 19q-15 6 -32 36q-9 20 -7.5 34.5t16.5 32.5q13 0 17 -3
q18 -2 52 -3q29 0 38 1.5t13 1.5h13q11 6 22 8t17.5 7t13.5 3.5t43 -4.5q8 4 16 2q6 1 53 -3q5 -1 13.5 -9t12.5 -22t3 -17.5t0 -5.5q3 -5 18 -9q10 -16 28 -28q1 -1 3 -4t4.5 -6t3.5 -6q15 -12 -12 -17q-19 -3 -60 -68q-36 -67 -79 -155q-21 -38 -47.5 -124.5t-21.5 -154.5
q-3 -13 -9.5 -23.5t-13.5 -5.5q-9 10 -24.5 5.5t-23 -3.5t-29 23t-14.5 111q1 20 8.5 48.5z" />
    <glyph glyph-name="eight" unicode="8" horiz-adv-x="454" 
d="M314 563l-5 16q-21 12 -49 15q-5 2 -16.5 -4.5t-13.5 -14.5q-29 -56 -11 -90l4 -14q2 -2 11 -17q24 -36 36 -38q25 25 42 98q2 12 2 49zM248 83q2 2 3 5t6 5q7 1 12 14.5t3.5 22.5t0.5 15v5q-2 0 -5.5 5.5t-8.5 9.5q3 15 1 20q-5 19 -5 20q-3 1 -4.5 4t-4.5 3t-8 14
q1 5 -1.5 17.5t-6.5 12.5l-5 7l-10 9q-1 1 -7 -4q-17 -16 -38 -62q-4 -4 -1 -4q1 -3 -9.5 -34t-10.5 -38q-24 -38 -3 -60q7 -14 12 -17.5t7.5 -5t10 -2.5t10.5 -1q7 -2 28 -2v2l-1 2q3 1 18 16t15 18q2 1 2 3zM73 531l2 18q2 32 36 62q10 5 13 17q3 2 12 10t14 11
q19 11 44 13q7 3 24 2t24 -4h23l23 -1l12 -5q69 -15 91 -53q22 -31 18 -94q-3 -5 -6 -11q-24 -73 -60 -113l-15 -18l12 -11q6 -3 8 -12t1 -14q12 -10 28 -37t20 -30q2 -8 9 -15q15 -34 18.5 -48t5.5 -39.5t-3 -48.5t-9 -24q-3 -7 -3.5 -13t-16.5 -28q-20 -29 -35 -34
q-3 -1 -8 -6q-3 0 -3 -5q-10 -8 -81 -34q-77 0 -81 1q-23 6 -32 4.5t-39 19.5q-14 7 -22 15q-9 4 -23 18q-11 5 -22.5 22.5t-11.5 29.5q-4 10 -8 15q-9 22 -8.5 44.5t5.5 29t6.5 10t2.5 5.5q4 5 4 7l28 55q2 0 7.5 3t8.5 4q27 27 29 27q-3 6 8.5 15.5t14 10t4.5 2.5
q8 4 16 4q4 -2 4 2t7 8q1 3 0.5 9.5t-2.5 6.5q-4 0 -4 23q-19 32 -25 31q-3 -1 -8.5 4t-6.5 8q4 8 0 10q-4 4 -4 8q0 1 -12 17q1 2 -10 14t-13 12l-2 6q0 11 -2 14q-9 4 -5 8q0 7 -4 10.5t-4 11.5z" />
    <glyph glyph-name="nine" unicode="9" horiz-adv-x="462" 
d="M301 484l-1 13q0 21 -9 44t-16 24q-21 5 -24 -3q-37 -48 -49 -74l-15 -29q-5 -15 -16 -37.5t-16 -36.5q-6 -36 -5 -38q1 -7 0 -14q1 -15 16 -25q15 -15 31 -2q27 19 61 61q28 30 39 70q8 45 4 47zM248 191l24 90l-2 1l-10 -10q-18 -16 -29 -27q-16 -26 -47 -39
q-20 -6 -52 12q-49 25 -92 69q-15 14 -21 55q-7 30 0 49.5t7 23.5q-4 17 80 148q48 48 70 60q54 30 93 28h41q6 2 10 -2l13 -2q6 3 28 -11.5t30 -24.5q27 -35 31 -109q9 -75 -2 -127v-22q0 -2 -4 -10q1 -9 -5 -24.5t-5 -22.5l-8 -58q-13 -50 -13 -52l-7 -21q-9 -18 -11 -33
q-3 -2 -3 -13q-2 -4 -3.5 -13t-5.5 -15t-6 -16.5t-20 -42t-22 -34.5l-11 -10l-24 -11q-38 -8 -93 0q-9 5 -7 19q2 16 16.5 38t23.5 43t12.5 30.5t13 39.5t9.5 31z" />
    <glyph glyph-name="colon" unicode=":" horiz-adv-x="207" 
d="M157 412l7 -60q0 -23 -14 -45q5 -5 5 -11q0 -8 -13 -19l-10 -10q-9 -12 -38 -11h-1q-12 4 -17 6q-11 6 -17 34q-7 16 -7 18l-9 18q-2 27 -10 35q0 21 20 39q19 17 59 17q18 6 27 6q18 -5 18 -17zM139 -34q-7 0 -47 10q-19 0 -30.5 5.5t-11.5 9.5q-17 17 -17 38
q8 24 10 34l9 17q0 7 6 20.5t7 16.5t2 5.5t3 4.5q6 7 10 8q11 3 13 5l13 1q18 0 26 -12l10 -11q13 -10 13 -14l-3 -24q12 -8 12 -31t-7 -68q0 -12 -18 -15z" />
    <glyph glyph-name="semicolon" unicode=";" horiz-adv-x="214" 
d="M98 256h-1q-13 5 -25 13l-16 45l-9 18q-1 7 -10 35q0 15 15 36q2 8 48 17q36 9 43 9q20 -4 20 -29q6 -36 5 -57q-4 -21 -14 -36q8 -8 5 -18q-12 -8 -13 -12l-19 -18q-10 -6 -29 -3zM157 98q15 -2 16.5 -17.5t1.5 -42t-15 -71.5q-3 -14 -11 -22q0 -3 -10 -26
q-6 -29 -45 -50q-8 -6 -14 -7q-23 -5 -38 6q-6 3 -3 7q0 7 11.5 23.5t14.5 23t8 25.5v38q0 35 -16 48.5t-14 40.5q-1 1 0 9.5t7 20t15 17.5l15 -1q21 2 37 -4l16 -4q1 0 24 -14z" />
    <glyph glyph-name="less" unicode="&#x3c;" horiz-adv-x="516" 
d="M347 467q2 1 19.5 2t23.5 -9q8 6 35 -15t21 -30q-9 0 -47 -24t-63 -42q-10 -5 -138 -80q-19 -8 -4 -14q3 -2 36 -27.5t33 -26.5q49 -29 54 -35t15 -12.5t12 -9.5q65 -57 66 -73q-1 -5 -20.5 -14t-42.5 -12q-32 -1 -49 10q-10 1 -20 9.5t-12 15.5q-18 0 -29 20
q-8 4 -21 20q-3 1 -10 7.5t-12 8.5q-9 18 -26 25l-13 17q-18 11 -18 16q-6 14 -29 22q-5 11 -27 22q-7 1 -8.5 5t-1.5 24q-2 4 11 29q23 16 48 30q23 18 58 44t35 29q5 2 24.5 13t24.5 16q23 2 27 15q18 11 30.5 13t13.5 3q2 7 4 8z" />
    <glyph glyph-name="equal" unicode="=" horiz-adv-x="383" 
d="M366 84q-14 -6 -39 -7t-39 -4h-1q-31 -6 -71 -6q-53 0 -150 10q-26 8 -39.5 16.5t-11.5 17t2.5 15.5t1.5 11q3 10 22 14q34 5 46 5h15q18 0 27 3t13 3l57 9q10 8 29 4q9 4 21 5t14 0t14.5 2.5t34.5 5.5q15 0 39 -17l13 -16q4 -12 3 -15q2 -3 2.5 -17t-1.5 -22
q-2 0 -2 -17zM16 353q14 6 38.5 7t38.5 4h1q32 6 72 6q52 0 149 -10q27 -8 40.5 -16.5t11.5 -17t-2.5 -15.5t-1.5 -11q-3 -10 -23 -14q-34 -5 -46 -5h-15l-14 -1l-52 -9q-11 -4 -31 -5q-11 -7 -29 -4q-17 -8 -36 -5q-28 -6 -48 -8q-11 -3 -38 17l-13 16q-4 12 -3 15
q-2 3 -3 14.5t2 24.5q2 0 2 17z" />
    <glyph glyph-name="greater" unicode="&#x3e;" horiz-adv-x="516" 
d="M116 460q6 10 23.5 9t19.5 -2t4 -8q1 -1 11 -3q15 -2 33 -13q4 -13 27 -15q5 -5 24.5 -16t24.5 -13q0 -3 15 -15q55 -40 78 -58l48 -30q13 -25 11 -29q0 -23 -2.5 -25.5t-7.5 -3.5q-22 -11 -27 -22q-23 -8 -29 -22q0 -5 -18 -16l-13 -17q-17 -7 -26 -25q-5 -2 -12 -8.5
t-10 -7.5q-13 -16 -21 -20q-11 -20 -29 -20q-2 -7 -12 -15.5t-20 -9.5q-17 -11 -49 -10q-23 3 -42.5 12t-20.5 14q1 16 66 73q2 3 12 9.5t12 9.5q4 6 57 38q0 1 33 26.5t36 27.5q15 6 -4 14q-128 75 -138 80q-58 42 -83 54t-27 12q-6 9 21 30t35 15z" />
    <glyph glyph-name="question" unicode="?" horiz-adv-x="439" 
d="M122 80q1 14 5 16t7.5 0.5t36.5 -4.5q9 -11 15 -13q24 -24 32 -24q8 -1 7.5 -14.5t-9.5 -24.5q-14 -31 -37 -48q-11 -4 -17 -4t-32.5 4t-30.5 16v23q0 19 4.5 22t4.5 16l3 21q7 5 11 14zM276 549q5 17 5.5 19.5t2.5 6.5q8 16 8 22v14q0 7 -1 8t-9 1q-15 -3 -40.5 -14.5
t-36 -21t-27.5 -37t-18.5 -36.5t-5 -14t-7 -23.5t-3.5 -24t5 -5.5q11 -2 -7 -8q-3 -2 -11 -2t-10 2q-19 0 -22 5q-11 0 -24 8.5t-17 19.5q-14 41 9 77q13 38 28 49q17 36 20.5 39.5t6.5 4.5q4 10 4 12.5t9 8t14 9.5q10 8 10 12q7 0 13 3q14 3 18 10q6 0 25 6t51 3
q5 -2 19 -9.5t16 -9t5 -2.5q8 -3 14 -11q9 -2 17 -7q10 -9 25 -14l17 -10q12 -2 20 -3q4 0 10 -14q2 -52 -46 -140q-3 -7 -10.5 -21.5t-8.5 -20.5q-10 -22 -54 -114t-51 -105q-1 0 -5 -5.5t-6 -6.5l-5 -11q0 -5 -10.5 -7.5t-16.5 -1.5h-32q-24 5 -28 9t-4 25q0 66 27 109
q10 25 18.5 39.5t10.5 22.5t16 22q6 16 12 24q5 2 14.5 19t9.5 22.5t9 11.5q0 4 6 13q0 14 6 20.5t6 15.5q0 6 9 6z" />
    <glyph glyph-name="at" unicode="@" horiz-adv-x="645" 
d="M377 295q-6 13 -30 -11q-17 -9 -46 -67.5t-32 -63.5q-26 -52 -2 -51q23 2 52 41q14 17 17 19q9 26 15 30q10 52 35 79q4 11 -9 24zM436 297.5q3 -3.5 9 -3.5t17 -4.5t11 -7.5q-4 -9 -12 -16q-1 -3 -15 -28q-36 -62 -33.5 -79.5t23 -20.5t35.5 24q0 1 34 59q28 83 23 121
q-4 39 -21 68q-2 3 -33 32l-20 10q-21 18 -50.5 17t-51.5 -10q-76 -41 -97.5 -60.5t-46.5 -55t-38 -61t-27 -66.5t-20 -56.5t-6 -40t-2 -35.5t-1 -17q0 -43 21 -96q6 -15 12.5 -20t17.5 -8t21.5 -9.5t59.5 1.5q6 3 13 4.5t13 2t19 8.5t29 19.5t25 15.5q30 32 66 3
q13 -16 11 -44q-3 -62 -62 -84q-14 -5 -19.5 -8t-10.5 -5q-20 -8 -26 -10q-104 -5 -114 5t-14.5 13t-7.5 7q-7 9 -15 11q-8 8 -17 10t-31 21q-3 0 -8.5 6.5t-5.5 11.5q-3 -1 -15 10q-26 24 -38 80.5t-14 88.5q0 47 6.5 77.5t20 73t30.5 74.5l30 58l28 33q16 12 19 21
q3 2 11 8.5t11 7.5q36 36 103 72q21 13 41.5 17.5t60 3t47.5 -3.5q32 -7 137 -95q33 -43 39 -85.5t-6 -139.5q-2 -2 -10.5 -26t-14 -31t-18.5 -30q-30 -52 -40 -56q-18 -9 -33 -22q-7 2 -20.5 -3.5t-38 1t-46.5 23.5t-17 33q-21 -29 -52.5 -53.5t-56.5 -15.5q-13 0 -24 3
q-25 0 -39 32q-9 27 -2 76q47 104 58 119q12 15 20 31q27 53 72 62q27 6 56 -8q22 -13 35 -44q2 -13 5 -16.5z" />
    <glyph glyph-name="A" unicode="A" horiz-adv-x="467" 
d="M190 270q2 2 23.5 4.5t50.5 17.5q1 0 -1 24q-3 42 -5 60q-2 24 -4 34q0 19 -15 79l-44 -149q-14 -62 -11 -76zM55 241l6 44q0 13 4 26q0 17 17 51q0 2 9 26q0 2 19 59l12 29q0 4 5 15.5t7.5 23t6.5 22.5q14 27 25 46q21 40 78 36l32 -3q30 -8 46 -17q23 -9 31 -19.5
t7 -34.5q1 -12 6 -104t5 -93l5 -43q0 -6 22 -144l22 -70q20 -56 21.5 -58.5t8.5 -21.5q11 -33 -19 -44q-27 -4 -40 5q-5 0 -23 9q-2 5 -11.5 9.5t-12.5 7.5q-11 3 -20 31q-3 2 -11 16q-7 14 -4 23q-7 9 -7 37q-9 15 -9 47t-10 50q-51 -23 -109 -25q-11 0 -11 -4q0 -9 -6 -32
l-17 -110q10 -74 -18 -78q-8 0 -26.5 -4t-30.5 7q-23 13 -32.5 26.5t-8.5 30.5q1 14 5 60q2 2 1.5 22.5t2.5 31.5l16 62q3 2 8 30q-1 2 -1 10z" />
    <glyph glyph-name="B" unicode="B" horiz-adv-x="482" 
d="M290 414l16 34q5 14 4.5 22t-0.5 13t-1 12.5t-6.5 15t-11 10t-20.5 8.5l-22 1q-30 6 -51 -5q0 -22 -11 -92l-6 -69l-5 -36q7 0 36 11l14 12q4 1 25 22q5 2 11 10l10 12q3 -1 11 10zM174 147l2 -24q4 -9 0 -26t-1 -26q0 -17 1 -20q9 0 27.5 8t23.5 9t13 8q25 13 52 30
l23 21q29 35 40 51l6 18q13 28 -25 53q-8 12 -33 16h-1q-35 10 -41 8l-44 -10q-12 -6 -21.5 -6t-20.5 9l1 -28q-7 -19 -4 -37q4 -18 2 -54zM218 -31h-9q-10 -2 -39 3q-51 8 -82 32q-9 8 -20.5 21.5t-11.5 18.5t0.5 13t-1.5 16v8q-3 6 1 21.5t2 25.5q-2 13 -3 28q-3 4 3 22
q8 135 8 148l5 30q-5 30 2 52v22q-1 14 8 81q-4 12 -27 31q-5 5 -10 15.5t4 33.5q6 8 35 26q2 6 54 23l19 8q14 5 56 4q23 -3 37 -9q51 -25 94 -57q13 -6 18 -16q18 -12 33.5 -38.5t17.5 -33.5q5 -32 -10 -77q-7 -23 -66 -96q10 -3 34 -17q3 -4 21 -14q2 -3 5.5 -7t5.5 -7
l8 -5l10 -15l15 -13q10 -10 16 -22q15 -14 16 -23l2 -19q-1 -11 -30 -72q-11 -22 -28 -34l-15 -18q-6 -8 -22.5 -20t-27.5 -23q-5 -2 -15.5 -9t-31 -17t-27.5 -12q-20 -6 -54 -9z" />
    <glyph glyph-name="C" unicode="C" horiz-adv-x="443" 
d="M187 612q14 6 58 4.5t63 -8.5l25 -8q31 -21 35 -21q41 -32 47 -84q6 -22 2 -40q0 -6 -4 -26l-10 -23l-12 -17q-6 -1 -7 -1q-37 -6 -57 -1.5t-35 21.5q-3 6 -3 11q1 5 3 9l5 16q13 32 -2 54q0 3 -10 11t-15.5 12t-19.5 1q-24 -10 -41 -61q-20 -26 -28 -68q-12 -75 -12 -85
l-1 -22v-9q-2 -2 2 -87q1 -5 4 -14q3 -11 9 -36l13 -22q5 -3 13 -18q5 0 8 -7q7 -7 6 -8q5 -1 15 -6q27 -14 47 6q7 7 17.5 19.5t16 20t17.5 14.5q33 25 57 -2q5 -8 1.5 -38.5t-28.5 -63.5q-2 -6 -13 -19.5t-23 -21.5q-2 -7 -76 -10q-4 0 -16 2q-11 -3 -29.5 3t-20.5 6
l-13 3q-8 0 -16 5t-26.5 17.5t-28.5 20.5q-30 24 -43 55q-4 7 -5 19.5t-4 18.5q-8 8 -7.5 26t-2.5 44q0 12 1 14q-5 5 -4 17.5t1 34.5q3 6 2.5 35.5t1.5 44.5q-4 9 -1 26l1 30q1 18 9 38q1 9 4 21.5t26 50.5q0 8 15 20q0 4 8 12t18 20q14 17 31 25t32 19z" />
    <glyph glyph-name="D" unicode="D" horiz-adv-x="534" 
d="M389 286q6 12 8 44t4 44q0 117 -64 153q-26 15 -50 8q-11 0 -34 -14q-1 -14 -1 -47l-5 -37l-9 -92q0 -2 -2 -29q-15 -157 -15 -235q18 4 31 17q35 29 39 31l14 13q5 1 26 24v1l19 25l20 41q8 11 19 53zM100 135q-2 4 -2 14.5t3 24.5t3 33t6 49q-4 6 1 45q5 9 4 24t-1 24
q0 43 2 49t1 24q6 6 10 47q-34 -1 -51 18.5t-28 55.5q1 6 2.5 11.5t2.5 9.5t4 8.5t4.5 7t6.5 7t7 6t9 6t9 6t10.5 7t11.5 7.5q3 5 16 7.5t39 13.5q4 4 47 13.5t84 -7.5q23 0 33 -4q10 -9 27 -13l51 -27q11 -11 45 -52q37 -66 47 -134q1 -19 1 -67q-9 -91 -33 -132
q-2 -12 -11 -30q0 -2 -13.5 -24.5t-30.5 -44t-22 -28.5q-41 -38 -46 -42q-23 -17 -26 -18q-76 -38 -80.5 -41t-24.5 -7q-29 -3 -36 3q-16 7 -29 21q-4 1 -16 16q-16 12 -18 14q-13 19 -19 72q-1 4 0 27z" />
    <glyph glyph-name="E" unicode="E" horiz-adv-x="401" 
d="M161 233v-40q0 -62 7 -69q-1 -1 5 -24q0 -8 8 -25q0 -5 28 -24q12 0 59 20l71 27q13 4 24.5 -3.5t14 -26t-1 -26.5t-17 -20t-17.5 -17t-15 -10.5t-24.5 -11.5t-18.5 -9q-39 -18 -60 -14q-13 0 -26.5 5t-15 4.5t-8 1t-12.5 3t-31 6.5q0 4 -14 8l-27 22q-7 4 -15 25l-9 15
q-4 3 -11 23q-4 5 -5 18q-5 11 -5 31q-4 5 -9 38q-7 43 -1 77q0 19 7 37l2 16q5 26 7 40q-4 14 13 67q0 8 6.5 23.5t7.5 32.5l8 19q0 8 15 59q8 19 8 22l25 53l12 16q7 7 21 12q6 5 32 -1q16 -6 22 -12q7 -3 17 -3l77 5q29 -2 39 -6.5t19.5 -15.5t7 -22t-8.5 -17
q-13 -11 -48 -26q-61 -33 -66 -35l-24 -11q-15 -10 -19 -21q-31 -112 -33.5 -124.5l-3 -15t-0.5 -3.5l20 2q44 14 52 9q4 0 11 3q37 13 65 11q5 3 11 -4t9 -17q6 -25 -15 -39q-42 -28 -100 -45q-19 -15 -53 -19z" />
    <glyph glyph-name="F" unicode="F" horiz-adv-x="470" 
d="M244 500l-7 -119q5 3 40 4.5t46 -0.5l37 -17q14 -9 33 -31q12 -26 -29 -40q-39 -6 -50 -6l-79 -4v-46q6 -123 6 -143q5 -30 5 -36v-22q0 -19 -5 -24q-12 -15 -15 -16q-41 -16 -87 20l-16 21q0 4 -6 30q1 3 -8 33q0 6 2.5 15t2.5 20t-5 23q0 13 -2 23v10q2 11 2.5 23.5
t3 25t0.5 23.5v3q-14 7 -20.5 6t-14 6.5t-8.5 14.5t21 28q2 4 24 14v20l5 56q-3 27 0 41t1 23l6 22q-50 -9 -72 -4q-19 9 -20 29q-1 1 5 29q-3 14 24 35q22 10 42 14q38 13 68 17q59 10 95 17l47 17q16 9 22.5 8t19.5 4q2 5 23 9q43 8 50 -9q9 -2 24 -14q3 -1 23 -39
q3 -8 -3 -16.5t-19 -9.5l-27 -10q-12 -1 -34 -11q-41 -11 -46 -11t-10 -1q-15 -3 -32 -8t-29 -5q-28 -6 -31 -14q-1 -2 -1 -6l-2 -12v-10z" />
    <glyph glyph-name="G" unicode="G" horiz-adv-x="520" 
d="M167 5l-19 -1q-2 2 -22 3q-2 4 -15 9q-6 0 -25 19q-17 14 -18 16q-1 4 -7 10q-4 6 -9 28q-16 49 -17 64t2 42q-4 5 1 25q0 11 3 50v6l4 45q-1 20 6 41t10 39q3 1 6 26q15 47 18 52l16 28q3 3 9 13l30 39q6 7 26 17q11 11 26 17q38 16 65 19q12 -9 33 6q60 -5 80.5 -5
t40.5 -7q30 -6 31 -23q2 -25 -7 -38t-23 -11q-41 6 -67 4t-49 -15q-2 -1 -9 -4q-16 -7 -26 -15q-37 -31 -69 -117l-3 -17q1 1 0.5 -0.5l-2 -6t-2 -7.5t-3.5 -10q-10 -27 -17.5 -75.5t-7.5 -80.5t11 -51l16 -18q4 -8 24 -19q9 -11 27 -22q16 -7 54 15q4 3 8 7l24 16
q22 23 27 31l12 10l4 31q0 1 2 6q4 15 4 26v14l-2 31q1 14 -4 19q-15 0 -56 -28q-3 -2 -13.5 -1.5t-16.5 3.5q-17 10 -17 25t3 24t3.5 12t4 6.5t9.5 7.5t14.5 12.5t35.5 21.5t61 13t55 -19.5t36 -72.5q2 -12 2 -52.5t-19 -150.5q-5 -48 -11.5 -64.5t-8.5 -34t-3.5 -24.5
t-2 -9.5t-1 -4.5t-3.5 -11.5t-15 -19.5t-22 -11q-33 6 -44 21q-4 6 -11 22t-7.5 27.5t0 15.5t3.5 24.5t4 31.5l-27 -33q0 -4 -18 -14q-8 -8 -46 -6h-9q-1 -8 -47 1q-6 -1 -30 7z" />
    <glyph glyph-name="H" unicode="H" horiz-adv-x="553" 
d="M66 171q2 3 0 14q-4 36 -1 50q-4 54 -2.5 63t5.5 10q-4 6 -7.5 44t-1.5 51q-2 8 -1 19.5t3 15.5q-2 2 -3 15v45l2 26v22l6 31q-3 5 5 18q-10 21 21 52q1 2 23 13q18 1 24.5 0t20 -2t20.5 -3q18 -6 18 -32v-17q2 -36 2 -54v-22q0 -13 -2 -15q1 -4 0 -19v-17q-3 -31 -2 -36
l-7 -53q8 -3 57 -3h50q44 0 55.5 0.5t15 6.5t5.5 16t3 23t2 16q6 5 3 43q0 3 4 15q0 14 4 32q0 19 6.5 33.5t9.5 24.5q5 17 24 29q25 18 48 23h18q27 -5 18 -51q0 -15 -8 -39q-9 -47 -9 -61t-8 -51q2 -19 0.5 -25t-1.5 -15q-2 -22 -2 -30q-2 -30 -2 -48t-3 -39q0 -21 -7 -43
l-3 -64q0 -7 7 -103q6 -6 4 -23.5t-7 -24.5t-10.5 -8t-16.5 -1q-23 -13 -37 -10q-12 0 -25 8q-21 11 -27 27q0 7 -2.5 17t-0.5 21.5t1.5 24.5t-0.5 30l1 12q-2 4 2 13t1 14v27l5 51q-10 7 -1 33l2 8q-12 -3 -22 -3q-28 -7 -62 -7l-90 3v-11q-2 -16 -1 -48v-19q1 -26 1 -74
q4 -52 4 -75l-1 -7q0 -8 -2 -14q0 -19 -9.5 -26t-30.5 -9t-38 11q-24 12 -25 20t-6 21q-5 8 -7 19q0 32 -1 36q-3 4 -3 14q0 13 -6 41z" />
    <glyph glyph-name="I" unicode="I" horiz-adv-x="380" 
d="M372 532.5q-8 -4.5 -16.5 -4.5t-44.5 -2q-23 -5 -46 -13h-1q0 -18 -10 -53q0 -12 -5 -39q0 -8 -3 -16t-3 -25q-7 -41 -6 -45t0 -11t-4 -21t-3 -33t-5 -34v-11q2 -36 -2.5 -51t-4.5 -25.5t-5 -32.5t-3 -52h6q25 2 26.5 1.5t13.5 2.5l16 -1h10q3 0 13 -7.5t14 -14.5
q7 -7 4.5 -13.5t-22.5 -21.5l-19 -6q-3 -3 -14 -7t-19 -4q-23 -5 -27 -17q-4 -8 -48 -6h-34l-19 -6q-25 -10 -44 -5t-25.5 7.5t-15.5 10t-7.5 17t6.5 27.5q17 14 24 18q48 15 61 20q0 33 -2 39q3 1 7 43q1 4 -5 19v6q3 28 -1 51q0 1 4 35q5 6 0 32q4 19 7 30l1 14q0 6 6 36
v10l2 8q18 74 24 108q-8 -2 -10 -2l-33 -5q-38 -10 -67 17q-25 34 -1 58q15 13 46 18q27 9 35 13q10 0 47 22q37 5 43 5l47 6q9 1 24 -1.5t18 -6.5q13 -3 32 -12l24 -22q14 -20 19 -30q3 -13 -5 -17.5z" />
    <glyph glyph-name="J" unicode="J" horiz-adv-x="412" 
d="M220 451q5 15 -1 64q0 16 -9 47q-68 -11 -72 -11q-35 -5 -48.5 -5t-17.5 1q-8 2 -8 17.5t8 28t15 15.5q15 9 44 19q0 2 49 16q31 14 79 20q4 1 6 1l17 3h29l23 -7q13 -4 41 -29l2 -6q8 -6 8 -8t1 -6q0 -25 -14 -30q-4 -1 -22 1q-34 4 -43 -2q0 -10 3 -17q3 -6 12 -53
q0 -7 8.5 -42.5t10.5 -79.5q11 -24 11 -133q1 -6 1 -17q-3 -6 -3 -30q-2 -8 -2 -20q-2 -7 -3 -17.5t-2 -16.5q-3 -17 -8.5 -22.5t-8.5 -29.5q0 -2 -7.5 -14t-13.5 -16l-8 -9q0 -6 -20 -26l-7 -8q-6 -4 -26 -26q-1 -4 -23.5 -11t-48.5 0q-14 2 -30 18q-4 -1 -5 0q-8 8 -32 18
q-2 -2 -24 18q-5 1 -37 38q-1 5 -10 23q0 1 -4.5 16.5t-6.5 44.5v7q0 6 12 36q20 23 50 1q3 -16 11 -28.5t11 -23.5q7 -25 36 -58q11 -11 30 -12q4 1 31 24q4 4 8 14q10 14 10.5 17t4.5 14q0 1 8 22q9 16 4 48q-1 1 -1 7q-3 24 -4 29v9q-1 1 -1 3l2 20q-4 6 -9 32
q-10 43 -2 70q0 1 -2 8.5t-1 14.5z" />
    <glyph glyph-name="K" unicode="K" horiz-adv-x="496" 
d="M186 619q47 -6 51.5 -7.5t5.5 -4t2.5 -6.5t0.5 -11q-3 -17 -13.5 -46t-7.5 -53q-13 -50 -17 -111v-13q25 46 28 50q12 14 42 61l31 32q1 1 5.5 9t5.5 12q60 66 91 70q20 4 40 1q24 -5 24 -23.5t-24 -41.5l-55 -74q-4 -11 -14 -21q-4 -5 -17 -19q-10 -12 -43 -60l-23 -24
q-6 -6 -14 -21q-20 -30 -19 -38.5t8 -20.5q15 -15 37 -51q17 -16 36 -48l24 -19q7 -4 16 -16q38 -38 48.5 -47.5t20.5 -14.5q3 -3 19.5 -17t18.5 -21t-9 -19q-5 0 -52 -9h-27q-4 2 -14 3q-31 1 -45 8l-33 27l-22 16q-3 9 -16 28l-7 14q-15 15 -19 22q-24 37 -37 51l-11 19
q-4 4 -13 16l-5 4q0 -17 -4 -28t-6.5 -18t-0.5 -36q-2 -8 -3 -26q-3 -15 0 -20q-1 -2 -7 -37q-5 -11 -2 -31q-2 -34 -35 -40q-16 -1 -32 -1q-11 2 -37 23q-16 9 -19 26t2 32q0 9 2 35q-3 15 3 30q9 17 9 34.5t-3 35.5q-7 23 0 45l2 24q0 32 6 49q7 75 15 96l4 15q0 16 13 43
q3 -1 3 8q4 32 9.5 41t3.5 39q0 16 9 33q11 23 14.5 25.5t4.5 3.5t6 3.5t6 3.5v-1q6 6 39 7z" />
    <glyph glyph-name="L" unicode="L" horiz-adv-x="362" 
d="M163 206q-1 -4 -1 -16t-2 -21t0 -22q4 -18 17 -44q0 -3 15 -16q4 -1 8.5 -2t7.5 -2.5t14 1t14.5 5t14.5 11.5q11 14 24 19q19 18 36 31q16 3 21 2t11 -8q14 -16 8 -41q-8 -28 -30 -53q-4 -7 -15 -13q-2 -2 -6 -9l-19 -19q-6 0 -8 -6t-26 -15q-30 0 -53 6q-50 11 -71 27
l-19 12q-2 4 -19 11l-13 16l-15 16l-10 18q-3 4 -4 15.5t-3 19.5q1 3 1 22q2 9 2 22q2 3 0 21l1 9v14q0 16 4 34t8 38q0 13 3 23q-3 9 1 44v6q0 10 1 16v7l2 61q0 3 5 26q0 12 9 39q6 10 6 17q0 5 3 20q5 6 7 27q1 0 5 22q0 12 11 27q2 6 18 14h1q4 2 30 5q12 0 31 -8
q5 0 28 -15q12 -14 -7 -64q0 -9 -8 -27q0 -9 -3 -21q0 -9 -12.5 -71.5t-23.5 -230.5z" />
    <glyph glyph-name="M" unicode="M" horiz-adv-x="675" 
d="M298 454q1 -17 8 -79q11 -110 13 -134l10 -47l8 -47q22 44 21 51q0 7 17 52q24 43 31 76q1 6 11 29q-3 3 5 19q8 17 12.5 36t5 20t1.5 2q3 3 8 18q3 14 3 22v31q0 3 5 21l-1 23q0 24 23 62l20 17q0 9 15.5 11t27.5 -2t16 -4q4 -4 29 -10q12 -4 15.5 -15t3.5 -30l-7 -78
q0 -7 -6 -97l1 -32q-1 -2 -1 -34v-52v-19l3 -38q-4 0 12 -89q0 -14 10.5 -60.5t5.5 -77.5q0 -16 -29 -29q-22 4 -27 13q-9 5 -11 8l-8 10q-16 13 -26 31q-7 7 -10 20q-10 14 -12 35t-7.5 29.5t-8.5 16.5q-11 11 -14 39.5t-6 49.5q0 12 1 18q-3 8 -3.5 12t-1.5 9l-4 -19
q-3 -5 -13 -39l-21 -65l-18 -63q-5 -3 -12 -24q-9 -23 -10.5 -25t-3.5 -6q-8 -16 -18 -26q-27 -25 -55.5 -14.5t-41.5 40.5q-7 17 -11 22q-1 8 -11 28q-7 19 -11 48q-5 9 -7 31q-5 9 -7 26t-6 33q-5 17 -7 41q-2 18 -15 66q-3 3 -8 20q-2 -16 -2 -17.5t-8 -49.5q2 -2 -1 -30
q-6 -19 -7 -40q-8 -54 -7 -81q3 -9 0.5 -21.5t-4 -25t-4.5 -22.5v-7q-3 -31 -1 -35q0 -11 -8.5 -27t-26.5 -12q-32 8 -37 12q-11 18 -11 32v48l2 18q-1 3 1 23q-1 1 -1 16.5t-3 23.5v10q-2 34 -0.5 39.5t-0.5 24.5q4 0 5 15.5t3 33.5l7 3q-2 1 -1 28q1 7 5 36t3.5 39.5
t10.5 33.5q21 63 22.5 80t5.5 30q4 33 19 55q7 22 26 26l12 9h1q19 14 68 4q42 -19 46 -47q-4 -14 3 -97v-9z" />
    <glyph glyph-name="N" unicode="N" horiz-adv-x="536" 
d="M362 224q-2 5 -0.5 17t3.5 32q0 31 1 38l-1 20q0 16 1 27v29q2 9 0.5 30t1.5 53.5t5 39.5v20q0 3 1 21v7q1 15 -1 18l9 37l4 21q2 4 15 17q3 3 23 3t30 -1t13 -5.5t6 -18.5q6 -13 3 -33q1 -6 1 -9v-10q3 -20 -1 -41q0 -8 1 -16v-9q0 -20 -3 -35v-25q1 -13 -3 -25
q0 -4 -1 -24q-2 -7 -4 -17q3 -8 0 -21q-3 -3 2 -24q-4 -13 1 -47v-20q3 -32 -1 -63v-6q0 -20 -2 -29q2 -17 0 -43v-6l-2 -24q-11 -71 -64 -81q-65 -12 -103 35l-6 15q-11 2 -29 46q-28 67 -31 74q-14 39 -14 42l-2 19l-4 8t-5 12q0 7 -7 30q0 2 -5 25l-12 89q0 3 -1 10
l-4 -22q-7 -67 -10 -81l-5 -101v-40l-3 -49q0 -37 3 -69q-1 -29 -11 -38.5t-30 -10.5q-14 4 -38 15q-7 4 -9.5 16.5t-11.5 21.5t-10 20l-12 76q0 16 1.5 33.5t0 36.5t5 44t5.5 42.5t2 45t3 40t3 19.5q0 16 2 25q-1 3 6 30q0 7 3 21t6 38t11 39t25 34q9 5 16 26q7 10 26 19
q7 5 18.5 5t21.5 -7q39 -15 48 -53l4 -25q0 -6 9 -27q0 -10 4 -29q0 -14 7 -29q10 -51 15 -71q5 -7 8 -19q2 -9 8 -27q2 -17 9 -39q41 -134 51 -151q2 4 2 25z" />
    <glyph glyph-name="O" unicode="O" horiz-adv-x="488" 
d="M162 227l3 -90q16 -57 47 -80q5 -5 23 -11l25 -6q5 0 11 4q7 2 10 5q7 9 14 16t6 7q4 4 3 13q3 3 8 13q11 56 22 72q4 44 4 56q0 42 -22 103q-12 14 -12 89q-6 15 -7 27.5t-6.5 27t-8.5 19.5t-3.5 9.5t-4.5 11.5q-16 24 -49 -26l-17 -30q0 -2 -10 -37
q-16 -56 -15.5 -62.5t-11.5 -41.5q-1 -3 -0.5 -14t-4 -30.5t-4.5 -44.5zM48 300l7 74q0 6 4.5 18t5.5 15q0 2 2 7q0 27 15 47q23 53 35 79t26 43q1 5 21 16q41 22 77 22t69 -11q11 -2 29.5 -15t21.5 -14q17 -10 35.5 -42.5t20 -47.5t12 -47.5t10.5 -48t5.5 -46.5t4.5 -50
q-6 -141 -36 -204q-6 -44 -23 -56l-2 -14q-1 -12 -11.5 -27t-26.5 -23q-3 -3 -40 -9q-53 -10 -70 -10q-22 -7 -55.5 2.5t-38.5 10t-21.5 11t-21.5 16.5q-16 12 -19 19l-14 28q-13 13 -18 37.5t-10 31.5q-5 11 -9 23q1 7 1 25v10q-4 15 2 29q1 7 1.5 17.5t2.5 30.5v13
q9 30 8 40z" />
    <glyph glyph-name="P" unicode="P" horiz-adv-x="466" 
d="M308 539q-26 15 -101 15l6 -62q8 -54 14 -202q9 2 12 5q8 6 17 6q13 3 25 18q30 25 46 42l33 38q3 1 10 22.5t9 35.5q0 29 -6 33q0 2 -12 25q-4 3 -24 15zM101 654l56 8l72 5l38 -5q4 -4 19 -5q29 1 78 -33q12 -4 20 -14l38 -46q2 -2 6 -10.5t11 -19.5q-2 0 3 -8
q13 -22 12 -26q5 -4 10 -26t3 -30q1 -1 -2 -23q-7 -48 -25 -71l-13 -24l-22 -32l-13 -12q-36 -40 -88 -62q-2 -1 -6 -2l-24 -8l-39 -10q0 -29 7 -134q4 -36 6 -40q0 -33 -4 -44.5t-13 -17t-31 -6.5q-6 -2 -21 3.5t-24 16.5l-6 32q2 2 -6 19q-7 8 -11 28l-7 95l-1 32
q-58 -4 -70 32q-10 19 -4 25l5 13q12 19 46 19h21q-2 2 -2 14l-4 42v18l-1 13q1 9 -1 20v6l-2 25v19l-1 10q0 71 -8 90q-33 -19 -44 -20.5t-37 14.5q-11 9 -12 20q-18 25 -12 41q2 8 16 25q1 4 24 18q18 18 63 26z" />
    <glyph glyph-name="Q" unicode="Q" horiz-adv-x="485" 
d="M203 359q-15 -92 -26.5 -131t-14.5 -80q0 -65 23 -93q4 -7 20 -14q9 0 20 2l-16 19q-18 20 16 48q9 7 32.5 4.5t47.5 -30.5q0 -2 2 -2l18 35q4 2 8.5 26.5t9.5 41.5q0 8 2 20v10q2 19 -5 30q-5 47 -4 90l-2 24q-5 5 -7 58l-11 45q0 5 -12 58q-4 7 -20.5 1t-29.5 -19
q-11 -24 -14 -31.5t-12 -25t-12 -42.5q-6 -25 -13 -44zM429 479q18 -129 12 -153q-3 -4 -3 -20l-1 -11v-31q-2 -2 -2 -10l-2 -22l-2 -7l2 -3l-1 -4q0 -2 -2 -8t-4 -34l-13 -56q0 -2 -6.5 -20.5t-9.5 -23.5q0 -8 -18 -28l-24 -32q10 -11 58 -54q3 -4 20 -12q44 -21 59.5 -24
t19.5 -9t3 -10.5t-6 -13.5q1 -9 -10.5 -20.5t-22.5 -11.5q-32 3 -55 11t-26 12q-43 21 -114 85q-45 -17 -74 -9q-4 -1 -25 4q-3 0 -57 14l-21 9q-8 2 -22 13q-8 9 -21 21.5t-17 22.5q-8 22 -5.5 53t2.5 37.5t-1 20t1 20.5q2 6 0 35q1 2 1 21q8 115 10 122q12 41 16 60
q0 17 13 52q5 20 34 75q5 2 13 18q5 5 12 20l16 18q1 2 14 8q16 8 28.5 11t53.5 3q15 -2 30 4h32q22 -2 59 -15q16 -11 25 -21t12 -27q0 -14 17 -61q2 -6 2 -19z" />
    <glyph glyph-name="R" unicode="R" horiz-adv-x="493" 
d="M199 477q0 -47 -13 -125q6 5 18 17q14 14 56 41l15 11l30 15l33 22q-2 2 5 10q19 33 22 58q0 13 -4 19.5t-25 8.5q-2 2 -19 5q-41 0 -54.5 -5t-20.5 -5l-15 -4l-17 -1l-4 -27q0 -1 -4 -20q0 -7 -3 -20zM369 35q-15 5 -42 29q-5 7 -26 24q-20 12 -50 47q0 1 -7 16
q-12 11 -23 44q-1 1 -3 4t-6.5 9.5t-9.5 22.5t-20 35h-4q0 -6 -3 -17v-20l-6 -58l-15 -97q4 -8 0 -27q0 -8 -5 -26t-15 -24t-39 -2q-10 4 -28 28q-7 3 -20 32q2 18 1 22.5t-1 11.5t1 9q-2 -2 0 20v7q0 4 6 32q0 21 0.5 29.5t6.5 20.5v27l1 27q6 18 6 42q2 12 2.5 23.5
t3.5 25.5q0 22 3 33.5t3.5 16t1.5 14.5l7 43l3 63l-12 8q-32 13 -45 26q-5 3 -3.5 15.5t13.5 20.5q14 0 41 17q3 0 18 10l18 6q3 3 25 11q5 0 16 5.5t23 6.5q10 1 40.5 5.5t51.5 -1.5q13 0 28 -5q24 0 54 -16q7 0 20 -9l19 -9l25 -20q21 -17 38 -43q12 -12 9 -31
q-14 -87 -121 -173l-29 -13l-49 -31q25 -35 65 -82q3 -7 23 -28l34 -42l12 -18l27 -30q3 -7 17 -17l17 -16q23 -18 19 -41t-28 -24l-24 2l-48 13z" />
    <glyph glyph-name="S" unicode="S" horiz-adv-x="432" 
d="M260 -27q-7 -7 -43 -7q-25 -5 -59 8l-21 7l-31 15q-4 0 -5 -0.5t-5 2.5q-6 5 -14 8q-20 14 -28 25q-32 51 -32 85q0 4 10 15q20 24 50 24q12 -1 19 -8l33 -43q8 -8 18 -16l13 -14l20 -17q4 -2 8 -2q4 -2 22 -5q20 5 34 11q9 9 16 14l14 16q2 2 7 16q0 13 0.5 17.5
t-3.5 24.5q-1 3 -14 16q-6 12 -17 26q-6 6 -58 32l-19 11l-18 16q-13 4 -37 27q-10 7 -15 11q-6 2 -33 34q0 2 -17 38l-9 39l4 26q-6 26 -4 39q4 6 10 24q-3 15 27 59q0 6 44 48l34 18l16 7q9 1 24.5 3t46.5 0t39 -8q7 -3 40 -27q44 -39 48 -70q17 -51 2 -109q0 -4 -28 -16
l-25 1q-32 4 -61 33q-8 5 -12 28q-1 24 -10 29q-1 1 -8 18q-17 22 -22.5 22t-12.5 -3q-36 -29 -38 -65q-7 -29 18 -71q11 -16 14 -16q6 -10 23 -25l14 -15l42 -31l17 -17l19 -12q16 -7 31 -19q20 -15 49 -56q6 -9 16 -54v-39l-5 -23q-5 -5 -11 -20q0 -1 -11 -27
q-3 -5 -24 -21q-30 -24 -67 -36q-8 -2 -25 -1z" />
    <glyph glyph-name="T" unicode="T" horiz-adv-x="477" 
d="M328 541q-2 -18 -2 -37q0 -36 -4 -65t-5 -39.5t-3 -20.5v-7q0 -18 -8 -36l-3 -45l-4 -95v-50q0 -38 -4 -41l1 -26v-11l-1 -12q0 -4 -2 -4q2 -12 -9.5 -25.5t-28.5 -17.5l-18 -3q-4 0 -11 -0.5t-12 1.5t-10 5q-10 6 -14 23q-3 5 -12 61q0 12 -2 30l3 24v19q0 18 4 25
q-4 6 5 26q-7 9 1 40q-4 13 0 17q2 6 2 28l1 10q0 29 6 53q-2 3 0 16t3 31v7q1 15 1 32l1 9q0 6 2.5 24t4.5 38h-2q-106 -29 -130 -29l-17 -1q-15 0 -31 5q-8 4 -12 21q0 33 14.5 48t54.5 28q10 1 124 42l43 10q12 4 38 4t43.5 6.5t38.5 10t44 7.5q11 4 40 -2q11 0 35 -23
l6 -14q0 -6 3 -9q4 -27 -12 -35q-6 -3 -21 -8q-20 0 -100 -20q-4 0 -40 -6l-1 -13v-6z" />
    <glyph glyph-name="U" unicode="U" horiz-adv-x="508" 
d="M65 85q-4 4 -7.5 19t-3 28t-2.5 34q1 4 1 22.5t-2 37t-1.5 30t-0.5 25.5q1 7 4 24q-1 1 -1 25.5t4 39.5q0 28 5 61v17q7 43 9 61q1 22 6 36q-4 13 9 56q4 10 27 19l-1 -1q6 4 25 3t25.5 -4t23.5 -8q23 -6 12 -111q0 -10 -6 -50q0 -20 -3 -41v-19l-2 -25q0 -9 -0.5 -17
t-1 -24.5t-3 -25.5t-2.5 -12q-3 -3 -4 -17q-1 -17 -6 -41q-5 -9 4 -105q2 -30 14 -39.5t33 5.5q6 6 7 8l4 15q4 0 11 20l11 20l3 12q0 8 8.5 22.5t10.5 19.5l15 50l6 25q0 6 8 22q0 5 5 26q0 19 -1 27q1 0 1.5 6t5 19.5t4.5 33.5q0 3 9 20q0 26 19 69q-1 -1 0 2q1 4 1.5 6.5
t1.5 5.5t1 6q-3 6 1 15t7 19t7 20l24 16q5 0 13.5 1.5t39.5 -0.5q12 -4 19 -22q11 -17 3 -50q0 -7 -8 -49q0 -7 -6 -33t-8.5 -46.5t-5.5 -27.5q-2 -14 -1 -23l-6 -43q0 -16 -3 -48t-6.5 -49.5t9.5 -69.5l12 -65q0 -15 5 -25.5l5 -10.5v-5q28 -55 -19 -64q-23 -6 -28 -8.5
t-21.5 2t-30.5 18.5q-4 6 -11 36q-3 6 -7 35q-3 3 -7 23q2 4 -4 13q-7 -14 -10 -18q-7 -11 -8.5 -15.5t-7.5 -20.5l-18 -32q-21 -39 -52 -35q-1 1 -20 2q-4 4 -28 7q-4 1 -10 1.5t-16 1.5q-2 3 -15 11q-30 11 -41 30q-9 2 -13 14q-2 6 -13 28z" />
    <glyph glyph-name="V" unicode="V" horiz-adv-x="474" 
d="M173 458l9 -48v-23q9 -27 13 -55q16 -92 18 -106t4.5 -26t0.5 -14q1 -8 1.5 -13.5t2 -9t3 -4.5t3.5 1q6 4 17 41q12 25 16 46q2 12 9 38q7 21 13 40q7 17 10 36.5t3.5 22t3.5 9.5q10 29 10 44.5t4 33.5q0 25 14 67q0 2 6 24.5t15 41.5q16 42 58 57q17 5 37.5 5t28 -5
t8.5 -22q-2 -6 -3 -19l-31 -96l-13 -33l-12 -24q0 -2 -5 -12l-10 -33q-2 -15 -5 -20l-17 -56q-4 -4 -7 -24q-8 -27 -14 -38q-7 -20 -7 -28t-5 -22.5t-6.5 -16t-4.5 -13.5t-3 -24q-4 -2 -4 -18q-6 -13 -8 -37q-5 -9 -6 -26q-10 -38 -26 -59.5t-46 -26.5q-30 -7 -42 0
q-4 -1 -13 2q-5 0 -7 2q-7 0 -22 9q-11 4 -19.5 13.5t-18.5 22.5q-2 5 -12 20q-3 26 -8 31q-2 5 -2 7l-6 24q1 -1 2 -4q-2 29 -1 48q-4 10 0 30q0 16 -3 28q-11 28 -11.5 39t-3.5 35q0 26 -2 45l-17 96q-6 32 -5 37.5t0.5 7t-1 6.5t-1.5 13q-7 16 -8 26q-36 88 14 98
q6 2 26.5 2t26.5 -1.5t15 -7.5q23 -14 33 -112q8 -52 9.5 -58.5t1.5 -13.5z" />
    <glyph glyph-name="W" unicode="W" horiz-adv-x="660" 
d="M442 601q4 -24 -2 -61q0 -11 -2 -22q-7 -30 -7 -40q0 -14 -6 -60q-2 -34 -2 -105t8 -122t15.5 -52.5t14.5 11.5q-1 5 6 26q9 53 20 94t12 53q1 7 6 38q9 32 11 67v8q4 54 4 76t-1 37l1 37q1 13 9 22q1 0 7.5 3t13 5.5t21.5 -1t20 -7t8 -8.5t5 -8.5t4 -11.5q3 -17 6 -66
t2 -64t-1 -37l-1 -14q0 -13 -5 -71.5t-9 -72.5q-2 -18 -2 -22l-3 -17q0 -3 -1 -6t-6 -23.5t-6 -22.5l-5 -22q-20 -46 -25 -52q0 -5 -20 -27l-16 -21l-8 -6q-39 -39 -87 -6l-25 18q-6 9 -16 18q-1 3 -9 11.5t-14 18t-6 13t-9 22.5q-6 8 -11 22q-2 2 -8 22q-4 7 -6 26l-12 -46
q0 -8 -7 -24l-6 -20q-40 -96 -46 -105q-18 -22 -30 -28.5t-36 -3.5q-19 1 -62 14l-16 17q-10 10 -12 24q-10 23 -13.5 32t-7.5 34v25q-2 3 -3 41q-2 16 -2 19l1 7q-6 6 -8 55l-1 7q0 3 -1 10t-4 34l-3 52q2 10 0 26v19q0 57 8 81l4 20q0 4 2 11q3 13 7 26.5t6 30t7 24
t16 18.5t19 14q18 3 23 3q11 4 37 -2q8 0 24 -8q10 -7 11 -20q2 -14 -3 -47.5t-8 -36.5q5 -5 1 -25q0 -25 -2.5 -51.5t-2.5 -33.5v-12q-1 -9 -1 -23q-3 -16 -3 -50q-2 -23 -1 -30l-2 -20v-14q0 -12 1 -17q-2 -23 -0.5 -60t5.5 -37l33 56q4 9 15 47l36 68q11 32 13 36l7 17
q5 2 7.5 13t7 27t5.5 46.5t9 46.5q0 21 11 73q2 16 2 24q10 27 21 37.5t41.5 4t37.5 -25.5z" />
    <glyph glyph-name="X" unicode="X" horiz-adv-x="507" 
d="M158 78q-2 -4 -2 -7t-2 -6.5t-3 -5.5q-30 -40 -47 -48.5t-39 -0.5q-11 4 -31 34q-20 39 8 81q6 17 14 30.5t16 33.5l12 21q8 24 12.5 31.5t13.5 18.5t15 20q19 35 55 74q-21 45 -27 64l-12 25q-9 7 -15 23q-42 71 -44 77t-12 22q-21 34 -21 56t11.5 33t32.5 9q3 0 12 0.5
t12.5 0t11 -3t12.5 -8.5q14 -14 26 -41l13 -20l20 -38l12 -28q26 -38 42 -73q4 7 16.5 24.5t13.5 19.5q2 4 18 27l21 19q1 1 8 15l19 26q4 2 13 10q2 8 34 50q17 12 33 13.5t29.5 -1.5t35.5 -19q15 -19 0 -58q-20 -35 -32 -47l-29 -51l-38 -59q-17 -22 -84 -98q7 -13 46 -82
l19 -38q9 -12 15 -24l30 -72q10 -15 13 -23q2 -6 13 -28q10 -37 -30 -50q-16 -6 -23.5 -2t-9.5 4.5t-3.5 1t-2.5 1t-2 0.5q-19 5 -30 20l-7 8l-9 15q-14 14 -18 24l-7 14q-9 7 -27 59q-1 1 -35 83l-11 -22l-27 -52q-3 -9 -18 -29q0 -8 -30 -53z" />
    <glyph glyph-name="Y" unicode="Y" horiz-adv-x="457" 
d="M264 312q0 14 1 23q5 49 7.5 62t2.5 16v43q3 4 6 49q0 48 4 71q0 15 10 28q13 22 31 31h1q15 4 30.5 -1t17.5 -5.5t5.5 -2t5 -2t4 -2t4 -3t3.5 -3t3 -3.5q10 -20 14 -132q3 -18 3 -57.5t-1 -53.5v-10q-2 -18 -2 -27v-7q0 -19 -3 -29q0 -23 -5 -43q0 -8 -4.5 -25.5
t-4.5 -28.5q1 -5 -9 -42q2 -4 -7 -31q0 -11 -7 -25.5t-12 -28t-6 -15.5q-6 -31 -32 -67l-16 -16q2 -2 -5 -9q-6 -7 -60 -36q-1 -1 -20.5 -6t-44.5 -5t-48 8q-14 3 -25 10q-5 5 -14 10q-5 0 -29 18q-4 3 -26 37q-7 16 -7.5 17.5t-3 6.5t-3.5 23q-2 40 27 40q30 0 56 -30
q8 -8 10 -10.5t9.5 -9.5t12 -9t12 -5t14.5 -3t18.5 4.5t15.5 11.5q0 10 11.5 26t12.5 18q3 14 6 20q6 17 10 45q2 2 -4 25q0 4 -16.5 9.5t-28.5 6.5q-20 -4 -51 20q-13 10 -16 15.5t-5.5 7.5t-4.5 7q-21 35 -21 45l-4 10q0 10 -8 18q0 2 -3 36q-7 26 -7 47v16l1 21
q-2 8 1 32v38l1 15v21q1 1 1 10l1 10q0 10 1 16q0 42 44 49q34 3 46 -7q23 -20 20 -83q0 -18 -2 -30q6 -19 3 -33q2 -7 2 -14v-15q0 -4 3.5 -37t7.5 -45q0 -13 4 -25q0 -8 11 -30q9 -45 34 -42q10 2 16 34q3 3 1 17z" />
    <glyph glyph-name="Z" unicode="Z" horiz-adv-x="496" 
d="M192 359q1 0 22 34q3 0 11 13q9 9 9 18l16 22q0 4 12 18q13 25 35 55q12 18 16.5 24.5t7 10.5t5.5 7h-8l-20 -2q-4 0 -12 -2q-78 -21 -95 -20t-28 -5q-17 0 -42 -5q-42 0 -58 19l-10 13l-14 27q-3 11 1 35q4 10 17.5 16.5t32.5 6.5q31 0 76 3t99 5q59 0 171 18
q10 1 25 -8t23 -20q6 -15 14 -26q12 -29 -18 -64l-24 -21q-1 0 -13 -20q-81 -113 -88 -120q-2 -4 -10.5 -17.5t-12.5 -20.5l-34 -41q0 -5 -9 -21l-6 -4l-30 -41l-28 -41l-18 -23l-12 -20q0 -6 -11.5 -23t-19 -30.5t-14.5 -24.5l25 4l46 12q14 0 36 9q10 0 17 1q2 2 19 3
q3 2 27 6t30 4q13 0 46 5q28 2 36 -6q23 -23 8 -60q0 -2 -8 -6q-58 -19 -69 -22q-26 -5 -43 -13q-4 0 -12 -4q-17 -8 -45 -15q-59 -17 -69.5 -20.5t-41 -12t-50.5 -10.5t-50 19q-8 5 -10 9l-12 18q-25 35 -3 69q0 2 5 10l25 59l4 19q0 4 11 17q4 9 10 18t6 10q13 20 25 30
l13 20l13 16q0 8 27 37q2 5 17 25z" />
    <glyph glyph-name="bracketleft" unicode="[" horiz-adv-x="283" 
d="M96 535q0 6 6 48v11l1 31q0 15 3 20v1q-3 3 -3 33q3 5 3 22q14 7 31 7t32.5 3.5t50.5 3.5l89 -5l12 -2q20 0 34 -10.5t13.5 -17t-1 -12.5t-1.5 -8q-3 -7 -17 -9l-11 -3q-11 0 -23 -4q-11 0 -19 -4t-28 -4l-15 -2q-16 -5 -46 -4q-2 -2 -8 -4l-3 -18l-9 -84l-8 -136l-5 -27
q0 -13 1 -15v-18l-3 -36q1 -2 1 -15t-2 -17l-2 -76q0 -29 1.5 -37.5t1.5 -14.5v-23l2 -38v-15q2 -18 2 -29l5 -52q6 -38 4 -51q11 1 35 1l89 -5l12 -2q20 0 34 -10.5t13.5 -17t-1 -12.5t-1.5 -8q-3 -7 -17 -9l-11 -3q-11 0 -23 -4q-11 0 -19 -4t-28 -4l-15 -2q-16 -5 -46 -4
q-6 -6 -16 -5t-13 -1q-9 -6 -35 -6q-7 0 -27 14l-10 14q-3 3 -3 33q3 5 3 14t1 9h-5q-7 8 -11 22q-8 4 -6 19l-7 28q0 12 -2 22l1 8q-3 3 -3 9l-2 18v8q0 8 -0.5 11t2.5 10q-3 4 0 39q4 124 4 156l1 24v29q1 24 1 61t2 40v23z" />
    <glyph glyph-name="backslash" unicode="\" horiz-adv-x="279" 
d="M308 -103l5 -20q0 -30 -16.5 -48t-30.5 -18q-23 0 -37.5 31.5t-17.5 63.5l-3 31q0 1 -4.5 15.5t-4.5 22.5q-24 101 -25 111.5t-6 26.5t-8.5 24.5t-3.5 9.5q-7 4 -34 93q0 7 -17 44q-35 102 -38.5 110.5t-6.5 19.5q-1 2 -50 127q-21 37 -21 54l12 25q7 9 21.5 9t32.5 -13
l23 -16q2 -2 6.5 -11t5.5 -10q22 -73 31 -93q14 -30 39 -85q56 -148 87.5 -252.5t44.5 -141.5q18 -81 18 -90z" />
    <glyph glyph-name="bracketright" unicode="]" horiz-adv-x="301" 
d="M226 18q0 -6 -6 -48v-11l-1 -31q0 -16 -3 -20h-1q4 -4 4 -34q-3 -4 -3 -22q-14 -7 -31 -7t-32.5 -3.5t-50.5 -3.5l-89 5l-12 2q-20 0 -34 10.5t-13.5 17t1 12.5t1.5 9q3 6 17 8l11 3q11 0 23 4q11 0 19 4t28 4l15 2q16 5 46 4q1 2 7 4l4 18l9 84l8 136l5 27q0 13 -1 15
v18l3 36q-1 2 -1 15t2 17l2 75q0 30 -3 45v31l-2 38v15q-2 18 -2 29l-5 52l-4 27q-3 12 0 24q-11 -1 -35 -1l-89 5l-12 2q-20 0 -34 10.5t-13.5 17t1 12.5t1.5 9q3 6 17 8l11 3q11 0 23 4q11 0 19 4t28 4l15 2q16 5 46 4q6 6 16 5t13 1q9 6 35 6q7 0 27 -14l10 -14
q3 -3 3 -33q-3 -4 -3 -22l-1 -1h5q7 -8 11 -22q8 -4 6 -19l7 -28q0 -12 2 -22l-1 -8q3 -3 3 -9l2 -18v-8q0 -8 0.5 -11t-2.5 -10q3 -4 0 -39q-4 -124 -4 -156l-1 -24v-29q-1 -24 -1 -61t-2 -40v-23z" />
    <glyph glyph-name="asciicircum" unicode="^" horiz-adv-x="482" 
d="M407 440q0 -7 -6 -13q2 -2 -3.5 -19t-5.5 -20q-7 -8 -33 -27q-7 -9 -7 -13q-7 -5 -12 -2.5t-9 17.5q-7 14 -7 15q-12 17 -15 19q-32 53 -27 62q-6 5 -10 7q-9 7 -15 19q3 1 -8.5 24t-16.5 27q-6 26 -9 27t-10 -7.5t-15 -30.5q-3 -2 -17 -24q-2 -9 -10 -21t-11.5 -19
t-8.5 -14q2 -12 -15 -22q-5 -15 -13 -23l-16 -5h-17l-23 1q0 4 1 17l9 27q15 12 15 19q0 17 15 25q9 21 9 23q-4 5 12 17q1 1 2.5 7t4.5 11.5t14 20t14 20.5q19 16 19 19q1 12 24 35.5t40 37t32 6.5l10 -13q0 -1 2 -4q5 -5 -1 -11q1 -2 4 -4q6 -4 10 -8q10 -21 17 -27
q2 -3 2 -7t-2 -9q0 -9 15 -14q8 -13 1 -17q0 -1 8 -11t11 -21q14 -11 17 -22t5 -13t5 -9t2 -8q10 -9 12 -12q5 -12 9 -14q-6 -9 2 -19z" />
    <glyph glyph-name="underscore" unicode="_" horiz-adv-x="640" 
d="M46 -55q19 8 41.5 8t35.5 2h1q32 6 72 6l320 -6l17 -2q26 0 44.5 -14t18 -21.5t-1.5 -16.5t-2 -13q-3 -9 -22 -13l-16 -3q-18 0 -30 -4l-175 -9q-35 -7 -89.5 -10t-76.5 -2q-12 -5 -25 -4.5t-16 -2.5q-10 -6 -47 -6q-9 0 -35 17l-14 19q-2 2 -1 16q-4 7 -4 31q5 7 5 28z
" />
    <glyph glyph-name="grave" unicode="`" horiz-adv-x="313" 
d="M107 657l16 1q47 -16 78 -56q16 -23 16 -26q29 -35 34 -51q6 -25 -6.5 -37.5t-25.5 -12.5q-39 6 -59 47q-11 10 -32 32q-19 20 -32 30q-19 14 -20 17q-21 7 -13 17q21 28 44 39z" />
    <glyph glyph-name="a" unicode="a" horiz-adv-x="431" 
d="M238 287q-1 22 -10 33.5t-33 13.5q-7 -5 -18.5 -33.5t-14.5 -60.5q-10 -48 -10 -96q1 -49 16 -72q2 -4 4 -3q5 0 16 20q53 96 50 198zM269 96l-15 -39q0 -2 -29 -43q-9 -19 -33.5 -21t-47.5 5q-31 11 -47 26t-31.5 50.5t-16.5 58.5q-5 33 -5 42v24q0 36 3 42q1 4 5 21
q5 42 24 80q37 73 76 75h5q2 -1 6 -1h13q35 -3 43 -6q15 -4 26 -4l26 -5q12 1 31.5 -5t21 -9t5.5 -22t5.5 -27.5t2.5 -17.5q8 -73 26 -136q1 -3 2 -9t7 -23.5t9 -29.5t11 -32q6 -15 18 -35q22 -31 -23 -48q-6 -2 -21 -2q-3 0 -19 10q-10 0 -19 11l-8 2q-7 7 -12 7
q-2 2 -36 81q-3 -11 -3 -20z" />
    <glyph glyph-name="b" unicode="b" horiz-adv-x="432" 
d="M271 314l-3 1q2 -1 3 -1zM145 58v-9q23 -31 24 -31q5 0 23 6q1 0 10.5 9.5t13.5 12.5q12 7 16 9q0 8 7 16.5t12.5 17t7.5 12.5q6 8 4 8q2 4 6 17l10 23l11 50q2 7 -5 44v9q-2 3 -2 6v1l-1 10q0 5 -3 17q-2 9 -12 29h-11q-18 -9 -27 -19q-11 -14 -28 -50t-23 -65l-6 -24
q-13 -27 -17 -62l-5 -14zM373 345q20 -43 20 -72q0 -58 -10 -88q0 -11 -2 -17q-9 -66 -23 -98q-5 -7 -11 -22q-6 -17 -30 -39q0 -3 -15 -18.5t-47 -25.5q-37 -12 -48 -12q-57 -9 -83 17l-1 -1q-20 -35 -48 -21q-17 9 -19.5 12t-3.5 13q-7 18 -5 42l5 33q-3 17 -1 30v7
q2 20 3 76.5t3.5 69t2.5 23.5q12 137 13.5 146.5t1.5 64.5v55q0 16 -0.5 24t3.5 11q-8 23 -3 52v12q-2 19 8 36q7 9 28 17t35 9h5q13 0 23 -7q12 -5 12 -24q2 -6 0 -13q1 -7 -9.5 -141.5t-10.5 -147t-0.5 -16t-0.5 -4.5q5 2 6 7t4 7q17 12 17 17q0 1 5 5t6 4q2 3 7 4l18 9
q1 6 29 5.5t34 -4.5q10 -5 13.5 -6.5t7 -2t27.5 -8.5q11 0 11 -3q4 -2 6 -2q17 -10 17 -15z" />
    <glyph glyph-name="c" unicode="c" horiz-adv-x="360" 
d="M71 334q0 13 13 22v2q0 7 15.5 25t17.5 22q22 13 29 15q8 -2 11 -2h2q29 7 66.5 -2t52.5 -32q8 -15 16 -40q12 -35 12 -51q6 -26 1 -48l-1 -10q0 -4 -5 -8t-11.5 -3.5t-11.5 -5t-20.5 -5.5t-16.5 9q-3 1 -9.5 7t-6.5 9l-5 7q0 2 -4 6q-9 18 -7 28q5 26 3 28q0 15 -10 30
q-1 1 -3.5 1.5t-6.5 1.5q-2 7 -4 7q-7 -2 -15 -11q-14 -39 -17 -52l-6 -61v-46q2 -36 8 -44q0 -4 4 -14q1 -13 21 -46l5 -6q5 -14 17 -14t34 28q-1 3 13 24q14 19 44 15q13 -2 13 -15q1 -9 -6 -45q-10 -10 -10 -20q-7 -18 -7 -20q-3 0 -6 -3l-5 -10q-4 0 -5 -4
q-11 -13 -15 -13q-3 -3 -16 -3q-19 -8 -28 -8l-17 -1l-11 4l-9 1q-12 5 -18.5 4.5t-9.5 1t-8 5.5q-12 10 -15.5 10t-11.5 6q-8 2 -13 7l-4 10q2 7 -2 8q-13 0 -15 5l-6 8q0 8 -8 21l-12 36q-2 2 0 7v18l-12 78v14q9 33 9 34q-1 22 10 39q0 19 13 39z" />
    <glyph glyph-name="d" unicode="d" horiz-adv-x="436" 
d="M248 254l-2 15q-3 4 -3.5 10.5t-3.5 20.5q0 18 -9 32q-3 8 -24 5q-14 -14 -33 -79q0 -1 -3 -8q-4 -9 -8 -29.5t-5 -23.5q-2 -6 -2 -11q-2 -4 -2 -13l-4 -19q-4 -6 -2 -15v-14q1 -3 -1 -17v-14l2 -34q0 -12 20 -39q8 -2 10 1q20 20 22 41l3 13q5 5 8 30l5 17q0 9 4 19
t5 15q0 8 13 40q-1 3 -1 6v7q11 43 11 44zM375 577q0 -35 -4 -43l-7 -65v-34q-1 -17 -1 -51t1.5 -56.5t-2.5 -37.5q2 -2 2 -7l1 -8l-1 -23v-42q1 -11 1 -38q2 -23 2 -37t3 -28v-13l4 -41v-34q2 -7 2 -13.5t4.5 -22t3.5 -28.5q-28 -33 -71 -16q-9 1 -18.5 10t-11.5 18l-1 20
q-5 1 -6 17q-4 6 -3 10q3 5 -5 17l-11 -19q-5 -8 -11 -10l-4 -12q-14 -15 -21 -25l-12 -12q-24 -5 -66 4q-10 0 -16 2h-7q-2 -2 -22 9q-17 7 -18 13l6 -1q-14 6 -10 19q-12 5 -15 22l-9 34q-2 13 1 28q-2 4 5 27l-3 9l-2 18q-3 4 1 18l-6 10q0 40 3 49l1 13q-5 8 3 34l14 46
q0 2 3 18q5 25 12 32l18 30q5 5 11 15q10 18 42 18q33 5 106 -8v35l-3 42q0 30 -1.5 55t0.5 40q1 1 10 41t30 60q7 4 25.5 5t22.5 -2t11 -5q28 -8 28 -51z" />
    <glyph glyph-name="e" unicode="e" horiz-adv-x="380" 
d="M247 320q4 15 -1 38q-7 6 -19 6q-15 0 -27 -28q-16 -24 -24 -53h-1q-11 -42 -11 -45q16 -4 26 -3.5t23 10.5q23 22 34 75zM244 176l-37 -3q-31 0 -49 6l3 -19q3 -83 46 -109q12 -5 20 -5t21 8q4 4 7 11q1 9 10 8q41 52 62 41q21 -14 21 -22q0 -4 -5 -9v-6
q0 -10 -12.5 -36t-26.5 -44q-7 -15 -18 -21q-32 -20 -68 -16q-8 1 -11 4q-8 2 -12 1l-8 1q-9 0 -15 4q-10 6 -14 6q-26 10 -31.5 15t-9.5 7t-19 21q-13 11 -15 14q-6 9 -10.5 13t-5.5 18q-4 5 -4 13l-4 8q0 7 -6 11q-6 6 -6 15v8q-4 2 -2 12v26l-1 9v7q-1 4 2 17l-1 9
q1 1 3 16q4 21 9 26v9q1 3 1 8t2.5 11t15.5 45l16 35q7 15 22 33q1 5 8 18l13 12q6 9 18 13q14 7 21 7l28 4q5 -1 7 -1h13q22 -2 36 -9q30 -9 44 -23q31 -35 31 -67t-10 -55q-25 -57 -36 -72q-18 -33 -43 -33z" />
    <glyph glyph-name="f" unicode="f" horiz-adv-x="327" 
d="M61 347l-10 1h-12q-28 0 -33 7q-11 19 -2 38q6 15 20 17.5t24 5.5q5 0 24.5 3t22.5 6v8q0 6 9 30q0 5 4 15q3 10 7 28l14 48q0 4 7 15q-2 3 1.5 11t3.5 13l6 16l9 13q0 8 6 20q6 6 8 11q51 34 58 35h28q23 0 32 1q33 -2 54 -12l10 -3q41 -34 37 -68q0 -7 -10.5 -17
t-23.5 -12q-27 0 -52 11t-38.5 11t-22.5 -16q-10 -23 -22 -93q-13 -62 -11 -64h9q10 -2 21 -2l35 -5q18 0 46.5 -10.5t24 -31t-27.5 -22.5q-65 3 -105 -10q-8 -3 -8 -49l-4 -90q0 -15 -2 -16q-5 -4 1 -14q-1 -2 -1.5 -15.5t0.5 -18.5q-2 -4 -1 -36.5t2 -41.5q-2 0 0 -14v-15
q0 -42 -1 -50q-4 -37 -46 -44q-21 -3 -35 4.5t-19 16.5q-7 13 -16 43v11l-2 17q0 7 2 17q-2 10 -2 13v26q1 16 -1 37v23q0 7 2 39q-1 14 -1 28q3 61 1 80q2 6 2 14v14q2 6 2 11t-2 12q-14 2 -22 0z" />
    <glyph glyph-name="g" unicode="g" horiz-adv-x="401" 
d="M161 195l2 -39l7 -19l10 -20q3 -21 20 -25q12 -2 23 13q6 5 9 7q6 5 6 22.5t3 28.5q-1 5 1.5 35.5t5 47t1.5 22.5q-7 9 -13 37q-20 20 -27 22q-22 8 -27 2q-7 -7 -15 -66q-6 -10 -5.5 -25.5t-0.5 -23.5v-19zM347 222q4 -50 4 -78l1 -13l-2 -61q0 -14 -1 -26v-16l-4 -26
v-10q0 -37 -34 -105q-12 -25 -37 -51q-42 -45 -103 -47q-51 0 -75 21l-10 5q-12 6 -27 38q0 3 -5 13q0 14 6 22q4 8 27 14q10 2 37 -20q20 -22 47 -23q28 -4 43 26t23 80q4 19 4 43t-2 32q-27 -14 -48 -12h-9q-8 -2 -24 0.5t-30 12.5l-19 13q1 -1 -1 -1l-5 3l-14 11
q-9 5 -9 19q-7 4 -10 10q-8 3 -8 14l-5 20q0 5 -5 25q-5 8 -2.5 16t2.5 13l3 34v7q-3 3 0 19q3 6 3 9q6 32 9 40.5t4.5 19.5t7.5 20l10 23q6 11 32 31q10 10 25 13l28 -2l29 -7q1 0 37 -15q0 19 19 32q8 8 35 1h9q11 1 24 -9q6 -7 13 -32q7 -93 7 -146z" />
    <glyph glyph-name="h" unicode="h" horiz-adv-x="426" 
d="M166 389l-11 -136l6 14q4 9 29 42q0 3 31 53l17 20l9 14q19 15 32 15q27 4 58 -16q7 -1 18 -15q17 -13 15 -37q0 -2 -1 -6q-19 -156 -20 -218.5t10 -104.5q8 -35 -26 -49q-9 -6 -28 -2q-17 0 -25.5 4.5t-17.5 20.5l-5 20q-4 8 -4 22l-4 29q1 2 1 26l1 26q-3 14 1 55l2 43
v25q1 3 -6 14q-26 -20 -58 -134l-26 -80q-18 -64 -39 -69l-11 -2q-14 0 -38 8q-19 21 -19 42q2 4 1 9q-3 13 2 36q-1 3 -1 8l1 15q-2 5 -4 28.5t0 35.5q-2 4 6 27q-8 12 -9 27q-4 41 -2.5 61.5t1.5 38.5q-2 18 -1 43l7 81l7 58q0 7 -4.5 21.5t-2.5 34.5t4.5 25.5t7.5 29.5
q0 20 4 30l6 18q1 7 26 23h11q39 -3 57 -13q8 -5 4 -35q-2 -42 -3 -52t-5 -87t-4 -87z" />
    <glyph glyph-name="i" unicode="i" horiz-adv-x="227" 
d="M100 627q67 0 94 -27q0 -17 -23 -69q-4 -17 -13 -27l-13 -13q-5 -3 -10 -3q-36 -9 -56 14q-4 6 -9.5 9t-8.5 18q-9 13 -9 20q-2 62 45 78h3zM92 391q10 5 47 -10q4 -4 12 -8l16 -13q4 -4 4 -13v-88q0 -20 -2 -36v-6q-3 -41 5 -185q3 -28 -13 -34q-17 0 -22 5q-4 2 -7 2
h-7l-6 -2q-3 0 -11 4.5t-10.5 9.5t-8.5 6q-11 4 -12 15q-14 27 -14.5 32t-3.5 11l-5 87q0 15 2 23v24q1 11 2 40.5t3 47.5q-2 26 -2 35t1 13q-11 11 1 30q13 10 25 10h6z" />
    <glyph glyph-name="j" unicode="j" horiz-adv-x="235" 
d="M150 648q10 0 38.5 -8.5t28.5 -18.5q0 -1 -4 -9q-6 -6 -7 -27t-2.5 -25.5t-4 -16.5t-6.5 -23q-2 -18 -32 -42q-13 -11 -17 -11q-9 0 -9 7q-13 4 -18 16q-7 10 -9 11l-25 5q-7 7 -15 33q0 17 9 44t27 48q3 9 19.5 13t26.5 4zM62 249q-2 2 -3.5 15.5t-2.5 21t-2 18.5v33
q0 16 17 32q28 14 42.5 14t36.5 -12l17 -8q5 -13 9 -81v-30q0 -250 -38 -367l-2 -15q-8 -25 -29 -60l-4 -8q-5 -11 -37 -34q-15 -14 -41 -12q-49 0 -66 13q-4 3 -9 7q-7 7 -25 14q-4 4 -8 15t-6 15t-6 20l6 26q9 23 24.5 23t18.5 -15q0 -9 4 -17q15 -19 31 -21q19 2 35 34
q7 7 7 11.5t7 16.5q11 11 15 43q0 1 -1 3q0 3 7 20q7 7 7 23l9 66l1 31l-11 126q0 11 -3 26v13z" />
    <glyph glyph-name="k" unicode="k" horiz-adv-x="416" 
d="M64 371l-3 13q0 1 0.5 8.5t-1.5 18.5q0 25 -1 37q-3 4 -3 39q-3 35 1 67q0 10 11 53q11 22 11 25q5 10 20 24l20 10q15 6 52 -3l22 -5q0 -17 -4 -43q-1 -28 -8 -79q-14 -102 -14 -221l4 -16q29 22 52.5 45t30.5 27q1 1 23 19q26 21 29 26q19 25 46 38q18 0 32 -9
q16 -14 16 -24t-2.5 -15.5t-8.5 -13.5t-11 -18q-13 -23 -54 -64q-28 -30 -43 -43q-9 -10 -44 -33q1 -2 4.5 -7.5t7.5 -13.5q42 -46 72 -62q12 -12 25 -15q0 -1 11 -8l6 -2q22 -11 29 -11q32 -6 32 -21.5t-16 -23.5q0 -2 -30 -20q-4 1 -17 -6q-37 -12 -85 10q-27 12 -45 38
l-23 18q-1 3 -34 38l4 -31l5 -30q0 -32 4 -51t-7.5 -27t-41 -9t-44.5 14q-4 3 -7.5 25.5t-6.5 31.5q-20 61 -16 105l-1 30q1 4 1 23q10 55 0 142z" />
    <glyph glyph-name="l" unicode="l" horiz-adv-x="240" 
d="M78 535l7 59l1 31q0 13 5 20l10 14q27 21 35 24t23.5 -0.5t18.5 -6.5l11 -9q9 -5 9 -16q5 -6 3 -9q-6 -7 -20 -118l-8 -136l-5 -27q0 -13 1 -15v-18q-2 -20 -4 -25q0 -5 -2 -11q2 -2 2 -15.5t-3 -16.5q-2 -16 -2 -30.5t2.5 -30t1.5 -30.5l4 -38v-15q2 -18 2 -29l5 -52
l4 -27q3 -17 -2.5 -33t-16.5 -20q-31 -13 -68 17h-8q-7 8 -11 22q-8 4 -7 14t-4 18t-5 14q0 13 -2 23l1 8q-3 3 -3 9l-2 18v8q0 8 -0.5 11t2.5 10q-3 4 -1 29q6 77 6 106l1 24v29q1 24 1.5 61t3.5 40l-1 9q0 24 7.5 65.5t7.5 44.5z" />
    <glyph glyph-name="m" unicode="m" horiz-adv-x="588" 
d="M95 413h2q13 4 42 -3q10 -3 12 -57q4 -41 4 -56.5t1 -18.5v-67l5 -1q0 1 2 12q5 28 11 43q4 4 4.5 10t5.5 13q6 28 30 73q8 19 15.5 28.5t23 6.5t25.5 -11q8 -1 19 -3l29 -6q4 -1 11 -6.5t6 -13.5t-2 -47v-16l-4 -39q0 -16 2 -19l4 -3l8 46q0 7 6 13l12 29q0 3 6 13
q2 7 9.5 20t19.5 25q0 8 18 11q14 15 46 1q6 0 11 -2q0 -2 7.5 -3t18.5 -13v-11q0 -10 1 -15q-1 -7 1 -18v-12q1 -8 5 -50v-11q3 -6 2.5 -12.5t-0.5 -13.5q3 -3 5 -16.5t-2 -26.5l2 -9v-28q5 -4 5 -12l3 -17q0 -18 5 -36v-11l5 -26v-6l-1 -10q0 -11 -12 -16q-2 -1 -5.5 -3
t-11.5 -2l-21 7l-10 7q-8 -2 -21 7q0 9 -7 16q-12 4 -9 16q1 1 -5 11q2 2 -3 22q0 9 -1.5 17.5t-2 17.5t-3.5 16q1 0 1 7t-2 13v23l-5 40l-15 -46q-15 -39 -15 -42l-32 -100q-3 -6 -11.5 -13.5t-14.5 -7.5q-2 3 -10.5 3t-20.5 -5q-34 -4 -39 21l-2 23l1 23q-2 3 -2 14l-1 14
v43l-2 51v49q-29 -79 -36 -103l-37 -119q-11 -29 -40 -31l-11 -2q-22 -5 -29 7l-10 17q-4 22 -8 25q-2 14 -10 29l-5 24q0 3 -2 9v18q-3 8 -5 32.5t-1 39.5q-4 12 -2 30v18q-5 23 -5 70v14q5 30 5 40.5t5 16t32 21.5z" />
    <glyph glyph-name="n" unicode="n" horiz-adv-x="444" 
d="M280 37l-6 17l-11 67q-5 19 -5 34l4 44q0 11 1 12q-12 0 -36 -29q-2 -3 -6 -10q-42 -67 -50 -161q-8 -17 -21 -17q-27 6 -30 6l-7 -1h-13q-23 2 -30 18q-4 5 -4 26v14l-3 55v82q0 14 -2 35q-2 23 -1 72.5t-1 53t-2 9.5t3 12t27 13q13 8 22 8q14 -3 36 -12q15 -3 15 -29
q2 -43 0.5 -62t0.5 -77q74 142 132 171q5 5 15 5t23 -10t18 -13t11.5 -10t10.5 -9q12 -20 5 -94q-1 -11 -2 -19.5t-1 -36.5t1 -39q3 -35 3 -41l5 -38q10 -23 10.5 -35.5t17.5 -39.5q7 -15 -6 -24q-20 -10 -21.5 -8.5t-11.5 -2t-36 -1.5q-13 3 -26 16l-15 15q-8 12 -11 26
q-5 5 -3 8z" />
    <glyph glyph-name="o" unicode="o" horiz-adv-x="383" 
d="M228 295q-7 40 -39 37q-18 -1 -31 -24q-18 -35 -15.5 -90.5t8 -80t19.5 -42.5q8 -14 24 -13q28 0 41 47l8 24q5 5 2 10q10 25 11 59q-10 7 -12 13q-6 17 -6 23q-7 5 -8 19t-2 18zM45 201l4 51q7 69 42 118q34 41 96 42h6q58 0 84 -25q28 -22 41.5 -48t17.5 -38t5 -35
q2 -43 -17 -49q14 -95 -17 -151q-10 -23 -29 -50q-14 -18 -50 -20q-36 0 -62.5 4t-58.5 25.5t-45 70.5q-14 47 -17 105z" />
    <glyph glyph-name="p" unicode="p" horiz-adv-x="436" 
d="M289 294q5 39 3 42q-5 -2 -12 -11l-33 -37q-52 -65 -52 -77q0 -2 -7 -16l1 -16l-2 -43v-11q0 -43 3 -62q1 3 17 13l17 23q26 32 33 46q22 67 22 76q0 14 8 40q0 9 2 21v12zM75 310l4 46q3 8 1 21l7 41q0 9 -1 19.5t1 14.5q4 8 21 14h-4q10 6 28 1t30 -9q7 -9 18 -20
l1 -32q0 -25 3 -52q-1 -11 0 -14l17 18q1 2 22.5 22t27.5 25q0 5 12 8q26 6 44 0.5t20 -5.5l37 -16q0 -4 10 -7l9 -5q5 0 13 -7q12 -2 9 -17q0 -4 3 -8v-24q0 -16 -9.5 -56.5t-12 -47.5t-6 -18t-7.5 -21q-5 -17 -20 -46.5t-30 -46.5q-35 -49 -78 -78q-47 -18 -59 -21
q-3 0 0 -36v-72l3 -44l1 -45q2 -33 -2 -37l-12 -10q-13 -5 -23 -1q-20 6 -24 9q-4 0 -13 8l-11 4q-14 -2 -17 7q-10 8 -10 14l-15 22q-6 15 -6 28q-6 22 -4 34l-2 38v53q0 27 -2 35q-2 6 2 106q3 20 3 25l15 123l3 34v8q3 12 3 18z" />
    <glyph glyph-name="q" unicode="q" horiz-adv-x="438" 
d="M245 326l-6 1q-11 5 -18 0l-27 -16q-42 -47 -51 -78q-2 -9 -8 -55q-2 -42 7 -63q0 -5 9 -9q13 3 30 27l11 20q20 28 21.5 31.5t7.5 9.5l4 14q0 1 4 5q7 17 19 46q0 9 8 25q7 8 5 33l-5 4q-7 0 -11 5zM149 400q10 -1 19 2t26 3q30 -2 44.5 -7t14.5 -6l25 -15q8 -7 14 -2
q16 12 31 8q13 0 22 -14q12 -10 17 -14.5t4 -14t-1 -95.5q2 -57 -0.5 -66.5t0.5 -53.5q3 -18 3 -26t-1 -15l1 -40q-4 -45 1 -89l1 -32l15 7q29 11 48 -45q-8 -16 -11 -21q-1 -1 -17 -33q0 -4 -6 -12q-18 -23 -43.5 -24t-43.5 6q-5 0 -7 5l-15 26v2l-1 9q-7 2 -8 11
q-1 3 -1 6v5q-9 25 -6 35q5 19 -2.5 34t-7.5 26.5t3.5 21t1.5 18.5v11l-3 29q-11 18 -1 44v18l1 14v6l-8 -15l-42 -60q-9 -9 -12 -11q-3 -1 -21 1t-24 6q-4 0 -21 5q-13 0 -23 5.5t-13 6.5q-5 2 -21 11q-13 0 -24 24l-5 9q-7 6 -7 17q-4 4 -5 21q-3 3 -1 12q-2 16 -2 57.5
t13 90.5q0 17 23 43l4 5q3 10 22 23q7 8 30 17z" />
    <glyph glyph-name="r" unicode="r" horiz-adv-x="340" 
d="M52 295q0 9 -2 21v7q1 7 -1 15q0 10 2 18q0 20 5 26q0 5 14 23q4 4 15 13q16 5 22 6q4 4 27 -3q10 -1 31 -7q7 -2 18 -16q-2 -4 -6.5 -29.5t-3.5 -41.5q6 5 21 21t16 17q26 12 51 17q36 3 47 -5q9 -3 14 -9q9 -8 15 -27.5t-1 -24.5q-6 -5 -40 -8q-2 0 -14 -8l-52 -41
q-16 -8 -22 -14l-19 -35q-1 -2 -2 -26t0 -34.5t0 -67.5v-43q0 -35 -1 -40.5t-8 -19.5q-3 -5 -19 -5q-39 -29 -50 3l-13 8q-8 4 -10 10q-8 11 -8 13l-4 14l-6 12q-3 1 -5 38.5t-2 46t-2 18.5q7 7 6.5 24t-2.5 26.5t0 12t-1 27.5q-3 4 -1 15z" />
    <glyph glyph-name="s" unicode="s" horiz-adv-x="340" 
d="M78 388q27 33 74 35q77 3 114.5 -38t40 -81t-20.5 -43q-33 -1 -43 9q-9 -1 -23 13q-6 3 -16 23l-11 25q-8 18 -20 20q-15 -6 -15 -30q4 -47 45 -90l1.5 -2.5t14.5 -16.5q79 -87 82 -140q0 -34 -14 -45q-43 -51 -112 -53t-114 43q-12 12 -12 23q-6 19 -4 25q-3 28 0 42
q6 32 47 33q15 0 19 -18q13 -51 24.5 -67t37.5 -15q33 2 31.5 37t-33.5 65q-10 12 -19.5 18.5t-12.5 9.5q-1 3 -5 6q-20 16 -50.5 53t-32.5 69q-4 57 27 90z" />
    <glyph glyph-name="t" unicode="t" horiz-adv-x="349" 
d="M114 353l1 9q-21 2 -29.5 3.5t-27.5 3.5t-30 6q-21 7 -24 36.5t19 36.5q20 5 28 5t30 2q11 6 30 7l15 4q0 -1 8 2l5 21q0 16 9 32q0 7 13 39q0 4 18 58q4 5 30 23q16 8 45 -11q16 -7 22 -19q-6 -6 -6 -28q-1 -7 -14 -74v-28q8 -1 26.5 -5t44.5 -9q50 -10 63 -40
q5 -22 -2 -31t-34 -13q-22 -1 -57.5 -1t-52.5 -5q-2 -18 -2 -28l-1 -15q0 -7 -9 -74q-6 -9 -10 -93v-73q0 -18 3 -34q1 -22 5 -31q0 -9 5 -38q-12 -29 -39.5 -29t-48.5 20l-11 16q-3 8 -4.5 11t-2.5 7q-7 20 -11 25q-6 8 -6 12v10q-2 17 -5 29q-5 5 -5 34q2 53 0 61
q3 3 1 38l3 22q0 4 4 30q-2 4 -1 21.5t3 24.5q2 12 2 30z" />
    <glyph glyph-name="u" unicode="u" horiz-adv-x="439" 
d="M366 277l1 -19q0 -3 6 -63v-12q0 -24 8 -72q0 -21 21 -73q5 -3 7 -14l-1 -10q2 -5 -5 -11q0 -7 -19 -7t-24 -2t-16 2q-4 -2 -24 8q-9 2 -14 18l-8 19q0 18 -10 32q0 5 -4.5 18t-6.5 14q-10 -40 -25 -62q0 -5 -6 -12l-10 -19q0 -2 -9 -11q-6 -13 -27 -13q-19 0 -46 10
q-7 1 -28 9q-6 -1 -18.5 3.5t-14.5 4.5q-3 3 -14 10l-17 18q-1 1 -3.5 9.5t-1.5 12t0 10.5t1 14q0 20 4 44q-1 3 -1 7t4 15q-1 5 -1 7l5 39q0 14 1 20v15q1 4 1 11l5 48q0 11 1 14v10q2 2 2 16l9 28l7 12q1 4 11 9q16 10 46 10q12 -2 26 -10q3 1 14 -4q20 -9 2 -51
q-4 -27 -4 -28q-4 -8 -4 -13q-6 -32 -6 -34q4 4 -3 -12l-4 -37q-7 -24 -6 -53l-4 -13q1 -5 -1 -31q2 -3 2 -7l1 -8q-1 -3 1 -5.5t11.5 -2t16.5 4.5q14 17 19 35.5t5 21.5q17 43 21 50q5 27 17 62q-2 5 0 20l13 53q9 15 9 18.5t12 27.5q0 4 6 16q7 11 25 21h3q22 2 38 -6
q2 -4 2 -14q2 -10 4 -36v-10l-4 -22q8 -25 2 -50z" />
    <glyph glyph-name="v" unicode="v" horiz-adv-x="387" 
d="M182 108l13 75q0 6 1.5 9.5t1.5 9.5q1 8 5 26q0 8 4 13q2 16 25 63q4 14 13 24q0 6 6 14l12 21q0 2 7 15q6 3 8 10.5t12 21.5q3 9 23 17h16l22 -7l15 -10q5 -5 7 -14q2 2 2 0q-1 -9 -12 -45q-10 -33 -14 -46.5t-9 -27.5q0 -1 -8 -28.5t-14 -37.5l-19 -70q-11 -26 -14 -46
q-22 -98 -22 -102t-8 -25q-2 -16 -35 -16q-5 5 -13 9q-3 -4 -27 -1q-43 -5 -73 12q-7 12 -12 38q-13 22 -14 35l-10 18q0 13 -4.5 24t-5.5 22q-3 7 -3 16q-2 8 -2 17q-4 19 -3 39.5t-2 49.5q0 17 -1 21l1 26q0 19 1 23q-4 16 -4 28l-1 19q0 12 -2 23t2 22q7 8 15 13
q12 10 36 1l25 -11l9 -7q2 -2 -1 -10l5 -48q0 -23 6 -58.5t8 -59t7.5 -65t6.5 -51.5q0 -19 4 -21q9 15 14 32z" />
    <glyph glyph-name="w" unicode="w" horiz-adv-x="527" 
d="M163 284l-1 -42v-32l2 -38q0 -42 10 -92l5 -9q0 11 3.5 19t3.5 19l14 52q0 3 5 13q4 10 12.5 37.5t10.5 48t4 28.5t-1 22l5 41q0 14 4 20q42 6 55 7q0 -6 7 -16q0 -4 7 -18l4 -18q6 -14 15 -123q1 -35 19 -97q5 8 4 19q6 6 6 32l10 27l19 103l4 44l8 31q2 13 8.5 18.5
t21.5 4.5h25q7 -5 19 -5l12 -3q-1 -12 -2 -27q-1 -12 -8 -55q-12 -143 -18 -172q0 -7 -3 -11q-1 -14 -14 -68q0 -8 -21 -29q-7 -12 -21 -15q-5 -5 -19 -6q-14 -2 -29 3.5t-17 8.5q-10 9 -25 13l-15 6q-12 13 -14 15q-4 6 -7 29q-2 1 -5 27q-12 -44 -12 -49
q-5 -17 -6.5 -19.5t-2 -7t-2.5 -8.5q0 -6 -6.5 -13t-24.5 -11q-18 -5 -47 -1l-12 -1q-7 0 -15 2q-12 8 -17 20q-12 17 -21 37q-6 6 -16 40q-9 21 -9 24v9q-4 4 -8.5 24t-2.5 30q-3 4 -3 21q-2 10 -2 32q-3 37 -7 48q1 13 -8 36q-8 45 -5 52q-3 8 5 25q0 5 25 28
q13 4 21 -0.5t18 -5.5l35 -10q29 -8 24 -67l-4 -39v-4v-4z" />
    <glyph glyph-name="x" unicode="x" horiz-adv-x="405" 
d="M282 123l4 -20l27 -49q0 -2 5.5 -12t8 -13t7.5 -11q3 -4 13 -16q20 -15 1 -36q-34 -35 -72 -2q-22 17 -38 44q-6 8 -21 32l-23 49l-7 11q0 1 -2 6.5t-3 10.5q-5 1 -8 8q-5 -7 -34 -48.5t-32 -45.5q-5 -6 -8 -12t-8 -15t-7.5 -12.5t-7.5 -10t-9 -7.5t-10 -2q-11 -2 -28 15
q-9 12 -9 37q2 11 5.5 19t5.5 19q20 56 28.5 65.5t12.5 22t9 22.5q13 22 32 59l-21 53q-8 14 -11 28t-9 28q-14 31 5 57q12 12 22 14t37.5 1t50.5 -24q0 -7 10 -24q11 -39 12.5 -42t1.5 -5l43 39q4 6 23 14l10 6q6 5 44 9q33 -9 42 -18q0 -1 8 -20q-2 -23 -38 -37l-42 -32
q-14 -9 -26 -22l-35 -34q9 -19 24 -59q7 -25 17 -40z" />
    <glyph glyph-name="y" unicode="y" horiz-adv-x="411" 
d="M157 315q0 -16 -1.5 -28t-1.5 -15q0 -31 -2.5 -45.5t-2.5 -23.5v-45q0 -58 4 -69.5t14 -15.5q11 -3 17 1.5t11.5 14t9 22t10.5 27t8.5 21t8.5 16.5q14 54 16 125v32q2 40 15 67q7 16 41 26l15 1q20 0 26 -6q6 -29 1 -82v-69q2 -50 2 -69q-1 -7 1 -118q-1 -1 0 -26
q1 -16 -2.5 -70t-3.5 -65q-11 -61 -24.5 -84t-36.5 -40q-16 -16 -57 -22q-3 1 -16 1q-60 6 -78 24q-53 27 -61.5 39.5t-10.5 23.5t6 37q15 19 39 7q10 -5 36 -20l33 -16q7 -6 14 -1q10 6 12 6q17 14 33 44q0 10 10 30q0 20 12 59v11q0 15 2 25.5t2 16.5q-8 -15 -13 -28
t-12 -22q-1 -6 -21 -12l-37 -1q0 1 -6 1l-15 1q-53 0 -67 14q-7 9 -17 17q-9 11 -11 28q-3 3 -4 17v11l-2 12q1 2 -2 14q-2 12 -2 39v12q0 89 2 93q3 6 3 11q-2 5 1 11l2 14l10 31q0 4 6 25q6 6 7 14q4 19 4.5 26t8.5 19q12 9 35.5 6.5t40.5 -20.5l-11 -44q1 -7 1 -12z" />
    <glyph glyph-name="z" unicode="z" horiz-adv-x="408" 
d="M393 49l1 -13q0 -8 -8 -12q-14 -12 -103 -42q-23 -7 -121 -20q-37 -13 -60.5 -12.5t-30.5 3.5q-7 1 -22 27q0 7 -10 28q-5 5 -10 23q-9 33 -11 45v14q0 13 21 38q3 3 5 8.5t23 26.5l49 42q5 7 14 12q5 3 26 20l36 23q31 23 32 24.5t2 3.5q2 6 -9 6h-24q-88 0 -96 4
q-14 8 -25 37q-1 2 -7.5 9.5t-7.5 25.5q2 12 22 24l20 8q2 2 42 9q17 0 21 1h1q5 1 56.5 -6t60.5 -12q2 0 7 -1t10 -1q24 -3 36 -17q11 -15 24.5 -50t13.5 -48q-2 -7 -7 -12l-12 -9q-10 -10 -15 -10.5t-30.5 -19.5t-37.5 -30q-3 0 -64 -45q-13 -7 -49 -45q-10 -9 -18.5 -22
t-8.5 -23t5 -11q48 -4 68 5q12 7 29 7q37 3 58.5 8.5t33.5 5.5q37 4 41.5 3t9 -4.5t8.5 -4.5q11 -15 11 -21z" />
    <glyph glyph-name="braceleft" unicode="{" horiz-adv-x="283" 
d="M298 649l-27 1q-16 0 -27 -9q-5 -15 -1 -90.5t-5 -104.5q0 -68 -5 -109q-1 -2 -6.5 -26t-8 -28.5t-9.5 -15.5q-13 -20 -21 -47q12 -7 24.5 -28.5t16.5 -36.5l4 -57q0 -29 -11 -55q-15 -88 14 -145q4 0 35 -15q8 0 34 -11q8 -8 20 -18t16.5 -16t1 -9.5t-18.5 -7.5t-17 -3
q-10 5 -62 5q-8 2 -32.5 11t-39.5 13l-30 18q-10 3 -28 27q-11 11 -21 28q-10 22 -11 42.5t0 54.5q2 3 6.5 17.5t6 19t2.5 6.5q3 5 8 32q-2 1 5 19t7 21q2 11 4.5 22.5t0.5 19.5q-6 25 -17 31q-21 0 -36 -4q-11 -5 -38 11q-7 1 -5 41q7 2 32 3q0 1 33 17q13 0 30 46v1l1 2
t1.5 4t2 7t3.5 11t4 45q2 5 5 53q0 51 -6.5 85.5t-10.5 76.5t8 81q7 10 40 29q31 10 77 3l36 -14q0 -1 23 -13q9 0 19.5 -14t13.5 -28q-4 -4 -41 1z" />
    <glyph glyph-name="bar" unicode="|" horiz-adv-x="252" 
d="M99 526l7 57l2 49v13q23 20 36 24q12 6 25 -7l11 -9q9 -5 9 -16q4 -5 3 -7q-5 -7 -20 -114l-3 -40q0 -8 -3.5 -48.5t-3.5 -91.5l-1 -21l-5 -27q0 -13 1 -15v-16q-2 -22 -3 -25v-41q2 -46 2 -75l1 -62v-46l2 -19v-15q2 -18 2 -28l5 -49l4 -27q3 -15 -1.5 -30.5t-11.5 -21
t-24 0t-21 12t-7 5.5q-7 8 -11 20q-8 4 -7 14t-4 17.5t-5 13.5q0 12 -2 22l1 8q-3 3 -3 9l-1 10v14q0 8 -0.5 11t1.5 10q0 1 2 208l1 24v27q1 24 1 59q6 78 6 103q0 38 15 120z" />
    <glyph glyph-name="braceright" unicode="}" horiz-adv-x="301" 
d="M212 50l1 -35q7 -25 -1 -75q-7 -29 -7 -33q-15 -27 -15 -38q-2 -8 -32 -23q-17 -13 -64.5 -12.5t-58.5 2.5q-23 3 -23 18q-22 42 -18 42q27 9 27 -6q32 -23 40.5 -24t27.5 13q9 10 16 28l6 31q-5 5 4 29q-3 48 -6 73.5t0 44.5q-14 20 -2 71q0 31 2 41q-1 21 4 37.5
t27 25.5q-42 40 -44 74q-10 28 -2 53q19 75 20 77q10 73 11 81q9 49 -4 91l-21 24q-58 0 -70 8q2 22 9 37q1 1 20.5 5.5t33.5 13.5q11 2 27 2q34 0 41.5 -3.5t16.5 -10.5q14 -12 14 -18q25 -38 27 -49.5t2 -15.5t6 -62q-10 -62 -11 -64.5t-1 -3.5l1 -3q-4 -14 -5 -31.5
t0 -20.5q-13 -30 -15 -61q-8 -27 -7 -37.5t5 -25.5q10 -30 17 -30q24 -9 30.5 -7.5t20 0t15.5 -3.5q11 -20 -8 -33q-3 -2 -18 -4q-33 -6 -43 -20q-3 -4 -3 -12l-5 -33q1 -17 0 -27q-1 -30 -1 -32q5 -55 13 -68z" />
    <glyph glyph-name="asciitilde" unicode="~" horiz-adv-x="516" 
d="M298 299h50.5t48.5 4t38 12q3 1 21 16q7 0 12 -61q-1 -6 -1 -14t1 -9q-2 -8 -2 -15q-5 -3 -11 -21q-5 0 -17 -6q-8 -4 -41 -11q0 -3 -17 -4q-42 -2 -42 4h-4.5t-16.5 9q-5 -1 -23 5q-2 -2 -6 0q-14 11 -21 11t-19 14q-4 -2 -29 11q-2 -2 -10 3t-9 4t-29 10q-11 6 -20 5
q-15 5 -29 7t-38 -6q-20 -14 -26 -3q-2 2 -5.5 24.5t0 34t23.5 20.5q39 9 75 2q44 -14 71 -14q1 -2 32 -13q29 -10 34.5 -13.5t9.5 -5.5z" />
    <glyph glyph-name="uni007F" 
 />
    <glyph glyph-name="uni00A0" unicode="&#xa0;" 
 />
    <glyph glyph-name="exclamdown" unicode="&#xa1;" horiz-adv-x="221" 
d="M152 403q-6 0 -16 -4t-18 -4q-48 9 -55.5 10t-12.5 3q-9 6 -9 21q14 72 48 85l29 5q12 0 30 -14q10 -1 21 -5.5t11 -7.5t10.5 -16t10.5 -26.5t-12 -24.5q0 -22 -37 -22zM57 41q15 139 15 188.5t-6 67.5q11 19 23 19q13 0 19.5 -2t8.5 -2h4l4 -1q23 -36 26 -63
q16 -44 17.5 -52.5t5.5 -16.5q3 -41 3 -44l-1 -8v-9l1 -26q-4 -25 -4 -51v-15q0 -22 -8 -61.5t-8 -62.5t-15.5 -58t-21 -48.5t-7.5 -19.5t-5 -12q-5 -8 -13 -8q-15 -6 -21 -6q-46 0 -46 24l10 76q4 52 19 191z" />
    <glyph glyph-name="cent" unicode="&#xa2;" horiz-adv-x="383" 
d="M198 347l1 1q-6 3 19 60q-2 -2 -1 0q0 7 13 38q0 5 4 11q-22 18 -52 -6l-7 -13q-2 -4 -16 -57.5t-19 -98.5q0 -41 4 -64.5t4 -25.5q13 47 13 50q11 32 14 36q6 8 6 21.5t17 47.5zM68 -35q0 6 10 36q0 15 32 79q1 0 2 20v1l-15 9l-14 14q-4 1 -13.5 11t-14.5 22
q-8 13 -8 21l-5 20q0 8 -6 26q0 18 -2 34q-3 27 5 35q1 0 -2 18v36q0 16 9 43q1 11 17 48q2 15 32 51l12 20q12 16 32 23q17 14 54 17q54 0 73 -2q16 39 38 77h1q8 28 32 31q30 -3 18 -36q-1 -4 -20.5 -45.5t-21.5 -45.5q2 -1 3.5 -3t8.5 -9q7 -11 11 -35t1.5 -50t-14 -44.5
t-40.5 -24.5q-21 0 -26 13l-3 5q-7 -24 -23 -61q-3 -23 -6 -28q-7 -12 -18 -57q-12 -29 -13.5 -31t-7.5 -20.5t-11 -32.5q4 -1 16 -1q29 0 56 37q0 3 25 20q37 4 39 -32q2 -10 -6 -22q-6 -14 -34 -59q-10 0 -14 -4q-18 -14 -52 -10q-9 1 -31 5h-14q-3 1 -7 2q-2 -4 -37 -84
q-26 -47 -33 -47q-4 0 -7 -0.5t-5 1.5q-3 3 -3 9z" />
    <glyph glyph-name="sterling" unicode="&#xa3;" horiz-adv-x="362" 
d="M217 138q4 4 17.5 5.5t17 3.5t41.5 8q10 -5 17 -5.5t16 -12.5l8 -10l19 -18q0 -3 9 -16q14 -15 -6 -27q-2 -1 -12 -4q-43 -12 -51 -18q-32 -12 -48 -12l-14 -5q-26 -15 -51 -20q-13 -9 -35 -16l-30 -13l-18 -5q-14 -11 -19 -2q0 1 -1 2.5t-2 3.5l-42 39q-6 4 -6 9
q0 13 -4 20.5t3 23.5q40 15 43 16v9q-6 19 2 39q0 2 2 14q-1 6 1 11q2 0 0.5 7.5t-1.5 14.5q5 13 4.5 39t5.5 35q0 5 1 11q-2 -1 -22 -5q-29 -5 -63 15l-8 16q-2 11 -2 32q11 7 40 16q19 0 33 10h1q10 3 32 7q2 2 0.5 5.5t2 9t5.5 16.5q-2 7 -1 10t3.5 22t5.5 20
q2 16 5 25.5t3 12t5 12.5q2 11 3.5 12.5t0.5 3.5q-2 3 9 39q11 39 10 39v5q2 7 0.5 11t4.5 17.5t11 14.5q7 7 8 7q23 3 36 -4l13 -10q0 -5 6 -5q5 -1 17.5 -10t16.5 -14q2 -4 2 -15.5t-10 -55.5q-15 -62 -15 -73l-6 -20q0 -9 -10 -57l51 7l35 -2q17 0 17 -8q2 -8 2 -14
q0 -16 -24 -25l-22 -9q-6 0 -18 -6h-16q-5 0 -16 -8q-1 -1 -17 -1l-5 -2l-4 -39q-7 -26 -8 -37q-2 -11 -10 -105l-7 -3q12 0 14 2z" />
    <glyph glyph-name="currency" unicode="&#xa4;" horiz-adv-x="572" 
d="M177 296q0 -29 -5 -42q0 -31 23 -56.5t65 -25.5t63 28q3 0 8 7t8 16q3 1 7 10q11 29 23 38q25 31 26 84v10q0 21 -19 50.5t-59 29.5q-38 0 -59 -16q-6 -5 -23 -24q-13 -11 -19 -22q-7 -13 -11 -15.5t-6.5 -4.5t-4.5 -5q-7 -8 -11 -23zM345 499q18 0 45 -22l26 40
q31 52 48 52q7 0 16.5 -7.5t9.5 -17.5t-12 -34q-13 -26 -49 -75q25 -35 25 -65t-11 -71.5t-22 -56.5q2 -2 -14 -25l40 -54l12 -24l9 -13q12 -8 12 -24.5t-9 -24.5t-17 -8q-17 0 -47 50q-21 30 -26 37.5t-10 10.5l-6 -8q-12 -11 -43.5 -26.5t-54 -15.5t-56.5 18q-12 3 -19 7
q-13 -18 -32.5 -50t-31.5 -45.5t-20.5 -13.5t-17.5 7t-9 18t14.5 40t19.5 31l31 46q-33 35 -33 79q0 64 24.5 107t28.5 47q0 4 5 11l-41 56l-20 38q-11 15 -11 29t9.5 21.5t17 7.5t19.5 -15.5t30.5 -46t34.5 -50.5l2 -3q35 22 51 30q29 13 82 13z" />
    <glyph glyph-name="yen" unicode="&#xa5;" horiz-adv-x="474" 
d="M137 226q-20 -5 -48.5 -5t-55.5 14l-18 8l-6 21q0 11 4 29q17 3 53 6q27 0 44 2h1l17 1v5q-4 3 -3.5 17t-3.5 23q-12 12 -20 48q-5 38 -7 42t-5.5 13t-9 23t-7.5 25q-8 24 -6 28q-2 2 -5 16q-32 54 -29 67.5t27 19.5q4 1 35 5h22q11 0 22 -10q20 -18 24 -49q9 -35 13 -43
q8 -20 8 -26l12 -30l2 -22q2 -4 5 -8q9 -12 11 -29l8 -19q12 -38 14.5 -42.5t4.5 -12.5q2 2 2 5l8 15q0 8 19 38q21 52 32 88q11 40 24 70q-2 3 11 24l11 22q18 28 60 35l15 4q42 0 50 -7t5 -27l-10 -22l-25 -46l-19 -29q-7 -3 -14 -19l-11 -19l-25 -53q-2 -2 -6.5 -16.5
t-16.5 -27.5l-9 -27q0 -1 -5 -10t-6.5 -10.5t-4.5 -8.5q-4 -9 -4 -10.5t-3 -10.5h9l41 -2q13 0 46 -7t33 -14q-2 -4 -2 -14q0 -13 -37 -17q-32 -5 -52 -5h-21q-3 0 -13 -2t-30 -2h-25q0 -4 -2 -16q0 -14 -3 -17l-2 -32l108 -5q12 0 44 -6t35 -12q0 -2 -1 -4.5t-1 -12.5
q0 -13 -37 -17q-32 -5 -52 -5h-21q-3 0 -13 -2t-30 -2h-24l2 -30q4 -13 2 -17q-1 -5 4 -30q10 -43 -16 -50q-27 -8 -76 12q-8 6 -11 15q-8 4 -6 16q0 3 -5 8.5t-5 10t-2 17.5l-4 31v4q-11 0 -14 1q-20 -5 -48.5 -5t-55.5 14l-18 8l-6 21q0 11 4 29q17 3 53 6q27 0 44 2h1
l45 3l3 49v4q-15 -2 -22 0z" />
    <glyph glyph-name="brokenbar" unicode="&#xa6;" horiz-adv-x="252" 
d="M75 119q6 6 6 22v4l1 12q0 1 1 8l-2 5q29 12 40.5 14.5t19.5 -1.5l11 -3q9 0 9 -1v-3l5 -2l-1 -1q0 -1 -7 -14l-3 -20l-5 -14q0 -7 -1 -10q2 -1 1.5 -3t-0.5 -4.5t-1 -9.5t-1 -15t1 -30l-1 -9l-5 -11q3 -5 4 -6v-6q-2 -9 -3 -10v-6l3 -10q0 -16 9 -55v-19l5 -10v-3
q1 -3 1.5 -4t0.5 -7q4 -6 2.5 -8.5t5.5 -10.5l4 -10q3 -5 0 -12.5t-10 -9.5t-24 -2t-25 4h-3q-5 1 -13 7q-9 0 -7 7q0 2 -2.5 3t-5 2.5t-2.5 3.5t-1 3q0 1 -2 9q-5 0 -5 6v6q0 3 -0.5 4t1.5 4q-2 2 -5 46q-2 47 -4 58q1 12 -2 22q2 15 3 16t0.5 5.5t-0.5 10.5v17
q-2 8 0 12.5t2 7.5l4 9zM125 636l-1 5q26 10 37.5 12t23.5 -7q20 -5 20 -6v-3q5 -2 3 -3l-3 -5l-9 -8l-10 -33q0 -7 -1 -10v-3l-3 -9q-7 -13 -7 -50l-3 -8l-7 -8q1 -5 2 -6v-6q-2 -9 -3 -10v-6l1 -10q0 -42 0.5 -52t-3.5 -15v-7l3 -8v-6q2 -6 2 -12q3 -9 2 -10t4 -12
q-1 -5 1 -10.5t-2 -11.5t-12 -7t-24 1t-24 7q-6 2 -15 11q-8 0 -6 7q2 3 -2 5.5t-4 4.5q0 4 -2 8v4q-4 1 -4 7v6q0 3 -0.5 4t1.5 4q-2 2 -0.5 11.5t3 37.5t4.5 34v43q8 17 8 20v7.5t0.5 9t0.5 8.5v6l12 27l5 14q0 6 1.5 6t1.5 4q1 4 4.5 13t4.5 15z" />
    <glyph glyph-name="section" unicode="&#xa7;" horiz-adv-x="368" 
d="M147 331q4 -48 44 -90q29 5 27.5 38.5t-33.5 63.5q-8 10 -23 18q-15 -6 -15 -30zM55 308q-4 66 44 107q-42 48 -44 81q-4 59 27 92q27 33 74 35q77 3 114.5 -38t40 -81t-20.5 -43q-26 -2 -43 9q-9 -1 -23 13q-6 3 -11 14t-14.5 31.5t-21.5 22.5q-15 -6 -15 -30
q4 -47 49 -95q24 -27 46 -54q46 -60 47 -97t-13 -48q-33 -38 -36 -42q48 -63 49 -100t-13 -48q-43 -51 -112 -53t-114 43q-12 12 -12 23q-6 19 -4 25q-3 28 0 42q6 32 47 33q15 0 19 -18q13 -51 24.5 -67t37.5 -15q33 2 31.5 37t-33.5 65q-10 12 -19.5 18.5t-12.5 9.5
q-1 3 -5 6q-21 16 -51 53t-32 69z" />
    <glyph glyph-name="dieresis" unicode="&#xa8;" horiz-adv-x="436" 
d="M332 616q35 0 44 -38q0 -34 -21 -54.5t-39.5 -20.5t-46 17t-27.5 37q0 50 43 60q13 1 37 -3q0 2 10 2zM129 510q-23 0 -46 14t-23 44q0 55 50 64q49 -17 55 -23l15 -34q-3 -21 -21 -43t-30 -22z" />
    <glyph glyph-name="copyright" unicode="&#xa9;" horiz-adv-x="572" 
d="M223.5 377.5q23.5 30.5 41 39.5t44.5 -2q56 -19 53 -55q-3 -13 -17.5 -15t-27.5 6l-19 12l-25 -5q-20 -22 -28 -46q-11 -34 0.5 -43t32.5 -2q10 -5 24 -2q40 9 45 -7q6 -8 -1 -17.5t-16 -14t-14.5 -7t-15 -6t-13.5 -5.5q-17 -1 -51 4q-43 0 -54 46q-3 8 -1.5 31t7.5 27
q12 31 35.5 61.5zM121 308q3 -24 -2 -36v-12l-3 -24v-1q-2 -6 5 -32q15 -56 62 -84q27 -16 73 -8q31 3 48.5 10.5t36.5 30.5q10 0 23 33q11 6 14 27q12 12 18 27t12 19q36 51 38 123q3 35 -9 61.5t-49.5 53.5t-122.5 9q-38 -24 -57 -52q-10 -14 -16.5 -19.5t-10.5 -13.5
q-6 -16 -15.5 -22t-13.5 -10q-11 -11 -19 -40q-2 -1 -5 -18.5t-7 -21.5zM60 150q-23 23 -23.5 83.5t23.5 125.5q0 8 5 17t7 11q9 9 11 13l9 18q8 24 21 37q1 3 5 7.5t5 8.5l16 16l10 14q4 0 14.5 10t25.5 16q3 5 13 10q0 8 21.5 15t34.5 17q2 5 29 7l15 4q7 3 48 4.5
t54.5 -6t42.5 -33.5q12 -8 17 -13t7 -6.5t5.5 -6t4.5 -6t5 -8.5t6 -9q40 -64 35 -117q0 -13 -4 -35t-9 -28q-5 -25 -16 -58t-19 -43q1 -3 -24.5 -42.5t-37.5 -52.5q-10 -15 -28 -32t-72 -38q-62 -34 -142 12q-27 10 -63 38t-52 50z" />
    <glyph glyph-name="ordfeminine" unicode="&#xaa;" horiz-adv-x="435" 
d="M164 549q-8 -27 -8 -65.5t5 -49.5t7 -13.5t4 -1.5q4 0 14 16q46 67 43 155q-2 14 -8 24t-28 12q-7 -4 -16 -26q-11 -19 -13 -51zM131 297q10 5 60.5 5t137.5 -7q12 0 20.5 -7.5t8.5 -12.5v-11q0 -14 -6 -17q-4 -1 -27 -8q-8 0 -39 -5q-91 -13 -127 -9q-35 -1 -49.5 4.5
t-17.5 19.5q-2 25 5 33.5t33 14.5h1zM126 373q-26 11 -44 45t-18.5 46t-4.5 36v19q0 24 2 28t2 5q0 3 4 17q4 33 26 69q10 21 26.5 35t36.5 15h4q1 -1 4 -1h20q46 -6 54 -7.5t11 -1.5l11 -2q8 1 27.5 -4t20 -6.5t2.5 -12.5l8 -52q0 -1 6 -31q19 -70 23 -74l2 -24
q0 -15 10 -21q12 -29 18 -35l6 -6q23 -26 -23 -38q-3 -1 -11 -1t-23 7q-11 0 -16 8l-16 8q-6 0 -33 62q-2 -6 -3 -15.5t-7 -21t-18 -24.5t-15 -18q-7 -15 -28.5 -16t-41.5 4.5t-22 7.5z" />
    <glyph glyph-name="guillemotleft" unicode="&#xab;" horiz-adv-x="556" 
d="M491 341l-33 -37q0 -2 -20 -22q-4 -3 -25 -20t-33 -24q6 -1 19 -9q7 -7 42 -37q23 -23 27 -35q11 -4 13.5 -9.5t5.5 -10t4 -7.5q10 -7 22 -22t12 -17.5t7 -19.5q0 -4 -11 -11q-9 -1 -12.5 -4t-10.5 -16q-8 0 -18 -14q0 -4 -8 -4q-23 0 -37 14q-7 5 -26 32t-24 31.5
t-22 28.5q-61 75 -84 80q-1 4 9 15q-1 12 8 14q0 9 22 23q1 1 4 6q13 21 24 30q41 30 44 31q3 6 26.5 23t24.5 22q36 19 40 19q12 6 26 4t14 -11q0 -12 -28 -40q-2 -2 -2 -3zM248 341l-33 -37q0 -2 -20 -22q-4 -3 -25 -20t-33 -24q6 -1 19 -9q7 -7 42 -37q23 -23 27 -35
q11 -4 13.5 -9.5t5.5 -10t4 -7.5q10 -7 22 -22t12 -17.5t7 -19.5q0 -4 -11 -11q-9 -1 -12.5 -4t-10.5 -16q-8 0 -18 -14q0 -4 -8 -4q-23 0 -37 14q-7 5 -26 32t-24 31.5t-22 28.5q-61 75 -84 80q-1 4 9 15q-1 12 8 14q0 9 22 23q1 1 4 6q13 21 24 30q41 30 44 31
q3 6 26.5 23t24.5 22q36 19 40 19q12 6 26 4t14 -11q0 -12 -28 -40q-2 -2 -2 -3z" />
    <glyph glyph-name="logicalnot" unicode="&#xac;" horiz-adv-x="640" 
d="M476 133q-8 11 -8 24.5t-4.5 29t-3.5 31t0.5 23.5t-3.5 13.5t-5 9.5t-8.5 6.5t-11.5 3.5t-16 1.5t-19 0t-25 -0.5h-28l-136 -2q-24 -7 -105 -7q-22 0 -29.5 16t-7.5 43.5t15 30.5q17 7 36 7t41 4t63 4l260 -6l17 -2q26 0 44.5 -14t18.5 -24q-5 -24 -5 -33.5t4.5 -26.5
t9 -28.5t4.5 -21.5q5 -8 4.5 -15.5t1.5 -9.5q7 -7 7 -28q0 -6 -17 -21l-19 -8q-2 -2 -16 -1q-5 -2 -31 -2q-9 3 -28 3z" />
    <glyph glyph-name="uni00AD" unicode="&#xad;" horiz-adv-x="407" 
d="M36 265q19 8 41.5 8t45.5 4t63 4l120 -6l17 -2q26 0 44.5 -14t18 -21.5t-1.5 -16.5t-2 -13q-3 -9 -22 -13l-16 -3q-18 0 -30 -4q-15 0 -26 -4.5t-39 -4.5l-16 -3q-32 -10 -60 -9q-12 -5 -25 -4.5t-16 -2.5q-10 -6 -47 -6q-9 0 -35 17l-14 19q-2 2 -1 16q-4 7 -4 31
q5 7 5 28z" />
    <glyph glyph-name="registered" unicode="&#xae;" horiz-adv-x="428" 
d="M245 530q-20 8 -25.5 6.5t-9.5 -4t-6 -7t-3 -8t-2 -11t-2 -10.5q30 9 37.5 10.5t11.5 10.5t-1 13zM181 468q0 -1 -9 -16t-11 -20q-13 -10 -19.5 -8.5t-20.5 20.5q1 1 2 6.5t2.5 11.5t1.5 7q6 5 9.5 17t12.5 26q10 10 14 17.5t16 19.5q7 15 25 15q14 2 38 0q4 -3 14.5 -5
t23 -12.5t15.5 -23.5q3 -4 -4.5 -8.5t-7.5 -5.5q-6 -11 -53 -30l-16 -8q43 -36 35 -45q-1 -2 -2.5 -2t-7.5 -2q-13 -3 -22 0q-8 21 -11 22q-4 16 -20 23q-5 2 -5 1zM327 584q-15 22 -43 25t-44 3q-51 2 -112 -51q-24 -22 -40 -63q-5 -13 -7 -16q-11 -23 2 -70q3 -10 13 -19
q0 -2 10 -13q1 -7 6 -10t20 -7q46 -23 70 -11q13 0 17 5l29 21q2 2 8.5 9.5t12.5 13t15.5 16.5t16.5 15q12 23 18 26t15 24t11 33q4 46 -18 69zM203 657q66 0 122 -14q3 0 22.5 -21t29.5 -37q0 -7 7 -14q9 -34 5.5 -60.5t-12.5 -40.5q-5 -16 -18 -37q-14 -29 -40 -58
q-24 -29 -31 -31q-5 -7 -54 -41q-32 -12 -48 -11q-30 13 -33 14.5t-12 4.5q-19 6 -32 15q-17 17 -20 17q-14 9 -19 19q-7 8 -17 14l-15 26q-2 0 -8 16q-1 2 -3 11.5t-4 16.5q0 16 2 31q0 21 14 45q3 15 36 53q3 4 19 15q0 4 11 15t12 11l32 25q3 1 11 3q19 6 25 10
q17 0 18 3z" />
    <glyph glyph-name="macron" unicode="&#xaf;" horiz-adv-x="444" 
d="M136 605q34 4 68 4q32 0 84 -4t56 -5q39 -11 38.5 -16.5t-1 -13t-1.5 -9.5q-3 -6 -25 -10q-25 -5 -39 -5h-16q-2 0 -9 -2t-23 -2h-23q-8 -1 -31 -3q-11 -7 -24 -4q-6 -3 -30.5 -6.5t-43 -3.5t-38.5 14l-13 8l-5 21q0 16 3 29q13 4 35.5 5t36.5 3h1z" />
    <glyph glyph-name="degree" unicode="&#xb0;" horiz-adv-x="403" 
d="M252 695.5q-17 10.5 -31 10t-30 -7t-20 -16.5q-26 -46 -5 -134q3 -13 20 -27q28 -14 39 -13.5t29.5 13.5t22.5 22l7 23q5 3 3 10q8 5 10 46q-9 7 -11 7l-4 4q0 3 -3 12q-5 5 -6 16t-2 13q-2 11 -19 21.5zM215 764h5q18 0 39 -1.5t45 -16.5t38.5 -35t20.5 -30.5t7 -30.5
t-4.5 -24.5t-17.5 -8.5q4 -12 4 -32q5 -35 -6 -53q-2 -17 -14 -38t-26 -35q-18 -13 -49 -15q-38 0 -65 3t-53 16q-39 25 -51 59q-13 52 -13.5 70.5t1.5 36.5q2 0 2 10q8 62 42 92q30 33 95 33z" />
    <glyph glyph-name="plusminus" unicode="&#xb1;" horiz-adv-x="516" 
d="M179 145l229 -6l15 -2q20 0 35 -12.5t15 -18.5t-0.5 -11.5t-1 -8t-2.5 -6.5t-5 -6q-7 -6 -48 -13q-15 0 -67.5 -5t-77.5 -6q-9 -2 -47.5 -5.5t-54.5 -2.5q-7 -4 -19 -4t-15 -2q-9 -6 -38 -6q-6 0 -28 16l-11 17q-1 1 -1 14q-3 7 -3 28q4 6 4 25q13 6 33 7t30 2h1
q24 6 57 6zM217 220q-8 13 -8 27t-2 23v1q-6 19 -6 47v14q-21 -2 -32 0q-7 -4 -19 -4t-15 -2q-9 -6 -38 -6q-6 0 -28 16l-11 17q-1 1 -1 14q-3 7 -3 28q4 6 4 25q13 6 33 7t30 2h1q24 6 48 6t35 -1q1 38 4 81q0 16 14 28t20.5 12t13 -0.5t9.5 -1t7.5 -1.5t6.5 -4
q8 -8 14 -39q0 -13 8 -77q70 -3 106 -3l15 -2q20 0 35 -12.5t15 -18.5t-0.5 -11.5t-1 -8t-2.5 -6.5t-5 -6q-7 -6 -48 -13l-103 -8q2 -28 2 -33q5 -9 4.5 -17.5t2.5 -10.5q6 -5 6 -31q0 -7 -17 -22l-19 -9q-1 -1 -16 -1q-8 -3 -31 -3q-6 4 -28 4z" />
    <glyph glyph-name="uni00B2" unicode="&#xb2;" horiz-adv-x="343" 
d="M139 762l29 3l34 -6h3q3 0 7 -6l7 -5q1 0 16 -13.5t17 -18t8.5 -8t17.5 -22.5t8 -44t-17.5 -48.5t-57.5 -76.5q-15 -18 -67 -68q99 0 101.5 -1.5t21.5 -15.5q3 -3 10.5 -16.5t8.5 -17.5q2 -5 4 -8.5t2 -6.5q2 -8 -6 -8q-7 7 -60.5 7t-83 -0.5t-29.5 0.5l-8 1q-3 0 -9 4.5
t-7.5 2.5t-7.5 2q-16 10 -23 25q-12 19 -6 28t16 22t13.5 18.5t12 14.5t11.5 14q3 9 18 18q23 40 38 50q2 7 12 23q24 26 34 56q3 13 -3 20.5t-22 1.5q-45 -18 -79 -71q-7 -2 -11.5 0.5t-15.5 10.5q-13 7 -13 30t6 33q11 14 11 19q3 7 8 8q4 6 2 9q3 3 12 17q8 10 15.5 12.5
t13.5 7.5q2 0 8 3z" />
    <glyph glyph-name="uni00B3" unicode="&#xb3;" horiz-adv-x="343" 
d="M158 524q-25 -9 -36 26q-8 30 8 44q18 6 29.5 7t13 1.5t3.5 2.5q5 3 14 8q13 13 19 16q24 21 18 36q-2 8 -13 11q-22 8 -65 -11q-49 -13 -60 2q-26 46 -17 55q2 0 1 6q2 11 11 10h7q6 4 17 0q17 -2 23 0l12 4q13 0 18 4t10 4h9q5 -1 17 2t17 0l13 -4q3 0 7 -2t5.5 -2.5
t4 -1t5.5 -1.5q-1 -1 1 -2t10 -3q12 -10 14 -21q12 -28 17.5 -47t-17.5 -41q-2 -1 -8 -8q-9 -9 -33 -27q20 -3 25 -15q2 0 6 -5q6 -10 10 -34l8 -26q8 -31 -4 -53l-7 -19q-7 -25 -33 -36l-33 -13q-17 -11 -33 -14.5t-53 -1.5q-44 9 -56 26.5t-12 41.5q-3 20 23 20
q14 0 26 -9q15 -8 45.5 -4t54.5 21.5t27 25.5q5 6 4 21t-12 16q-6 2 -30 -4q-16 -6 -31 -6z" />
    <glyph glyph-name="acute" unicode="&#xb4;" horiz-adv-x="313" 
d="M190 661l16 -1q23 -11 44 -39q8 -10 -13 -17q-1 -3 -11 -10q-22 -17 -42 -38t-31 -31q-20 -41 -59 -47q-13 0 -25.5 12.5t-6.5 37.5q5 16 34 51q0 3 16 26q31 40 78 56z" />
    <glyph glyph-name="mu" unicode="&#xb5;" horiz-adv-x="460" 
d="M55 288l4 42l8 36q0 15 10 31t14 19q4 8 28 13q5 -1 13 -1.5t15 -2t25 -15.5q10 -9 13 -19t4 -25t0 -19t-2 -9q-5 -27 -8 -58q-3 -7 -3 -19l-10 -89q0 -53 1 -62t4 -14q1 -4 9 -6t11 4q0 9 6 14q0 2 13 28q0 4 3.5 11t5 12.5t2.5 7.5q4 3 10 22q0 11 12 23q0 3 10 24l2 9
q18 38 17 53l5 49l10 40q14 32 40 39q12 5 32.5 -4t26 -17.5t5.5 -16.5v-18l-1 -11v-54q0 -60 2 -91q6 -90 35 -154q14 -32 -12 -49q-15 -10 -35 -10q-34 0 -47 26q-7 10 -13 27t-8 22q-6 20 -8 22l-8 19q-16 -51 -55 -120q-8 -13 -28 -22q-20 5 -52 16v-118q0 -38 4 -45
q-15 -26 -49 -21q-14 2 -18 6v-1q-14 8 -26 24.5t-12 31.5q4 26 -1 35q-2 32 -1 40t-2 17q0 24 -3 39q3 8 3 11q-7 53 -7 70q0 18 3 51v15q-3 65 -1.5 80t1.5 25q-2 4 1 18t2 19z" />
    <glyph glyph-name="paragraph" unicode="&#xb6;" horiz-adv-x="520" 
d="M339 289l-1 43q0 42 10 82q0 6 2 16q3 26 5 115q1 32 19 84q18 2 30 2q45 0 47 -35q-10 -96 -15 -194t-11 -130q4 -24 4 -78q0 -202 -51 -202q-30 0 -33 28q-6 39 -6 119t2 92l-4 25zM192 163l2 34q0 17 -8 77q-8 0 -40 15q-91 0 -96 87q0 55 17 77q0 7 17.5 41t25.5 42
t44 40q5 16 22 20q4 0 16.5 12t25.5 22l31 3q11 -11 39 -8q6 -1 10.5 -1.5t9.5 -2.5q10 -5 10 -14q0 -2 -3 -9q-9 -19 -9 -61l1 -22q0 -4 -3.5 -22t-3.5 -27.5t-10 -83.5t-10 -132t4.5 -85.5t4.5 -60.5q0 -99 -13 -100q-6 0 -10.5 2t-17.5 2l-35 -1q-9 0 -12 5t-5 24v70
q0 25 -2 38t-2 19z" />
    <glyph glyph-name="periodcentered" unicode="&#xb7;" horiz-adv-x="200" 
d="M135 134q-10 0 -30 5t-41 10q-18 7 -18 10q-11 11 -11 18q-6 12 -2 28t6 26l9 17q0 7 11 30q2 13 5 16q16 10 25 14h1q19 3 38 -11l10 -11q1 -4 13 -12q1 -3 -3 -26q7 -5 12 -27q1 -21 -7 -70q2 -5 -3 -10t-15 -7z" />
    <glyph glyph-name="cedilla" unicode="&#xb8;" horiz-adv-x="321" 
d="M64 -154.5q-4 9.5 -4 26.5t11.5 34t26.5 17q20 0 20 -20q0 -10 -1 -16q4 -6 8 -19t8.5 -18t6.5 -5h5q16 0 35 15q5 9 5 34t-14 35l-11 22q-9 14 -38 47l70 9q2 -2 44 -66q21 -45 24 -65.5t-19 -51.5q-18 -28 -68 -31q-25 -3 -77 19q-2 2 -10.5 8.5t-13 11t-8.5 14z" />
    <glyph glyph-name="uni00B9" unicode="&#xb9;" horiz-adv-x="298" 
d="M220 467q-2 -24 -2 -50t-6.5 -32.5t-30.5 -4.5q-13 3 -17 11q0 3 -4 4q-17 4 -18 40.5t1 41.5q3 0 0 7q-2 23 0 32t2.5 57t-4.5 51t-11 -3q-8 -10 -13 -14q-12 -12 -33.5 -8t-26.5 8t-6 11.5t7 13.5q18 11 25 23l9 9q15 12 19.5 15t6 7.5t6.5 9.5t5 9l12 8q5 9 18 22
l9 11q5 3 9 4.5t8.5 4t18 1.5t14 -2.5t2 -4t4.5 -2.5t6 -4l12 -4l6 -9q-4 -2 -4 -7l-6 -47q-9 -30 -12 -153q-3 -12 -3 -27.5t-3 -28.5z" />
    <glyph glyph-name="ordmasculine" unicode="&#xba;" horiz-adv-x="395" 
d="M206 625q-18 0 -28 -23q-26 -46 -5 -134q2 -10 14 -27q6 -14 27 -13q19 0 37 58q5 3 3 10q8 5 10 46q-9 7 -11 7l-4 4q0 3 -3 12q-5 5 -6 16q-4 45 -34 44zM121 306q10 5 60.5 5t137.5 -7q12 0 20.5 -7.5t8.5 -12.5v-11q0 -13 -6 -17q-4 -1 -27 -8q-8 0 -39 -4
q-91 -14 -127 -10q-35 -1 -49.5 4.5t-17.5 19.5q-2 25 5 33.5t33 14.5h1zM202 684h5q52 0 75 -17.5t35 -35.5q21 -31 22 -56t-4 -28q-3 -6 -12 -10q3 -13 4.5 -41.5t-6.5 -43.5q-4 -31 -38 -73q-17 -19 -93 -14q-36 6 -54 18q-39 27 -46 59q-10 57 -10.5 73t1.5 34q2 0 2 10
q6 63 36 92q27 33 83 33z" />
    <glyph glyph-name="guillemotright" unicode="&#xbb;" horiz-adv-x="556" 
d="M342 304l-33 37q0 1 -2 3t-5 6q-23 26 -23 34.5t14 10.5t26 -4q4 0 40 -19q1 -5 14 -14t20 -15q16 -14 17 -16q3 -1 44 -31q11 -9 19 -22t9 -14q22 -14 22 -23q9 -2 8 -14q10 -11 9 -15q-23 -5 -84 -80q-17 -24 -22 -28.5t-16 -19.5q-27 -39 -34 -45t-18 -9.5t-19 -3.5
t-8 4q-10 14 -18 14q-7 13 -10.5 16t-12.5 4q-11 7 -11 11q7 17 7 19.5t12 17.5t22 22q1 3 4 7.5t5 10t14 9.5q5 16 34 41t35 31q13 8 19 9q-12 7 -33 24t-25 20q-20 20 -20 22zM99 304l-33 37q0 1 -2 3t-5 6q-23 26 -23 34.5t14 10.5t26 -4q4 0 40 -19q1 -5 14 -14t20 -15
q16 -13 17 -16q3 -1 44 -31q11 -9 19 -22t9 -14q22 -14 22 -23q9 -2 8 -14q10 -11 9 -15q-23 -5 -84 -80q-17 -24 -22 -28.5t-16 -19.5q-27 -39 -34 -45t-18 -9.5t-19 -3.5t-8 4q-10 14 -18 14q-7 13 -10.5 16t-12.5 4q-11 7 -11 11q7 17 7 19.5t12 17.5t22 22q1 3 4 7.5
t5 10t14 9.5q5 16 34 41t35 31q13 8 19 9q-12 7 -33 24t-25 20q-20 20 -20 22z" />
    <glyph glyph-name="onequarter" unicode="&#xbc;" horiz-adv-x="803" 
d="M612 235q2 13 3 21.5t10 36.5v4q-4 -4 -7 -8.5t-7 -9.5t-7 -9q-29 -37 -32.5 -43.5t-12.5 -19.5l-43 -57q-5 -4 -5 -5t4.5 0t10.5 1l10 1q5 0 25 5q21 0 31 6q4 1 10 21q0 5 3 22t3 25q4 2 4 8v1zM220 387q-2 -24 -2 -50t-6.5 -32.5t-30.5 -4.5q-13 3 -17 11q0 3 -4 4
q-17 4 -18 40.5t1 41.5q3 0 0 7q-2 23 0 32t2.5 57t-4.5 51t-11 -3q-8 -10 -13 -14q-12 -12 -33.5 -8t-26.5 8t-6 11.5t7 13.5q18 11 25 23l9 9q15 12 19.5 15t6 7.5t6.5 9.5t5 9l12 8q5 9 18 22l9 11q5 3 9 4.5t8.5 4t18 1.5t14 -2.5t2 -4t4.5 -2.5t6 -4l12 -4l6 -9
q-4 -2 -4 -7l-6 -47q-9 -30 -12 -153q-3 -12 -3 -27.5t-3 -28.5zM536 610h4q2 -1 7 -1.5t8 -1.5q31 -23 8 -56q-44 -55 -57.5 -81t-29.5 -52q-8 -13 -137 -225l-31 -61q-37 -72 -54 -126q-12 -19 -36 -3q-1 1 -2 1.5t-2 2.5t-2.5 4t-5.5 5q-11 12 -16 46q0 18 4 27
q11 24 31 76q9 12 23 40q5 14 20 36l63 115q20 32 35 59q6 6 20 28l20 40q42 53 51 68t19 23q1 3 8 11.5t22 17.5t30 7zM423 107l-2 8q-1 8 10 35l5 5q0 1 1.5 3.5t2.5 5.5q3 1 4 4q2 0 7 8q9 13 11 17q3 1 5.5 5.5t8.5 11.5t8 8q-2 0 5 10q1 2 9.5 13.5t10.5 15.5l7 7
l13 18l19 21q2 6 14 18q1 3 15 15.5t21 15.5q5 5 5 6q1 1 8 1t10 -1t22 -14q2 1 11 1q11 0 46 -21q3 0 -1 -13q-15 -35 -23 -82t-8 -52q1 -1 12 -1l31 2q9 0 15 -3q11 0 20 -12q0 -3 4 -5q0 -4 3 -6l5 -2l7 -11q7 -3 7 -6.5t-8 -5.5q-14 5 -32 2t-22 -3q-42 -7 -50 -10
l-4 -10q0 -11 -2 -14q-5 -71 -2.5 -81t2.5 -20q2 -3 2 -9q2 -2 -2 -7q-1 -4 -9.5 -3.5t-13.5 2.5q-17 0 -21 4q-5 0 -14 4q0 2 -5 5.5t-7 3.5h-5q-2 6 -2 17q2 35 5 47v9q1 3 1 11l1 17q3 12 0 12q-13 0 -42 -12t-32.5 -13t-5.5 -2q-4 -2 -9 -2q-15 -7 -28 2q0 3 -6 4
t-6.5 0t-5 3t-7 7t-8.5 4l-6 6q0 3 -5 6z" />
    <glyph glyph-name="onehalf" unicode="&#xbd;" horiz-adv-x="803" 
d="M220 387q-2 -24 -2 -50t-6.5 -32.5t-30.5 -4.5q-13 3 -17 11q0 3 -4 4q-17 4 -18 40.5t1 41.5q3 0 0 7q-2 23 0 32t2.5 57t-4.5 51t-11 -3q-8 -10 -13 -14q-12 -12 -33.5 -8t-26.5 8t-6 11.5t7 13.5q18 11 25 23l9 9q15 12 19.5 15t6 7.5t6.5 9.5t5 9l12 8q5 9 18 22
l9 11q5 3 9 4.5t8.5 4t18 1.5t14 -2.5t2 -4t4.5 -2.5t6 -4l12 -4l6 -9q-4 -2 -4 -7l-6 -47q-9 -30 -12 -153q-3 -12 -3 -27.5t-3 -28.5zM569 362l29 3l34 -6h3q3 0 7 -6l7 -5q1 0 16 -13.5t17 -18t8.5 -8t17.5 -22.5t8 -44t-17.5 -48.5t-57.5 -76.5q-15 -18 -67 -68
q99 0 101.5 -1.5t21.5 -15.5q3 -3 10.5 -16.5t8.5 -17.5q2 -5 4 -8.5t2 -6.5q2 -8 -6 -8q-7 7 -60.5 7t-83 -0.5t-29.5 0.5l-8 1q-3 0 -9 4.5t-7.5 2.5t-7.5 2q-16 10 -23 25q-12 19 -6 28t16 22t13.5 18.5t12 14.5t11.5 14q3 9 18 18q23 40 38 50q2 7 12 23q24 26 34 56
q3 13 -3 20.5t-22 1.5q-45 -18 -79 -71q-7 -2 -11.5 0.5t-15.5 10.5q-13 7 -13 30t6 33q11 14 11 19q3 7 8 8q4 6 2 9q3 3 12 17q8 10 15.5 12.5t13.5 7.5q2 0 8 3zM526 610h4q2 -1 7 -1.5t8 -1.5q31 -23 8 -56q-44 -55 -57.5 -81t-29.5 -52q-8 -13 -137 -225l-31 -61
q-37 -72 -54 -126q-12 -19 -36 -3q-1 1 -2 1.5t-2 2.5t-2.5 4t-5.5 5q-11 12 -16 46q0 18 4 27q11 24 31 76q9 12 23 40q5 14 20 36l63 115q20 32 35 59q6 6 20 28l20 40q42 53 51 68t19 23q1 3 8 11.5t22 17.5t30 7z" />
    <glyph glyph-name="threequarters" unicode="&#xbe;" horiz-adv-x="803" 
d="M612 235q2 13 3 21.5t10 36.5v4q-4 -4 -7 -8.5t-7 -9.5t-7 -9q-29 -37 -32.5 -43.5t-12.5 -19.5l-43 -57q-5 -4 -5 -5t4.5 0t10.5 1l10 1q5 0 25 5q21 0 31 6q4 1 10 21q0 5 3 22t3 25q4 2 4 8v1zM158 444q-25 -9 -36 26q-8 30 8 44q18 6 29.5 7t13 1.5t3.5 2.5q5 3 14 8
q13 13 19 16q24 21 18 36q-2 8 -13 11q-22 8 -65 -11q-49 -13 -60 2q-26 46 -17 55q2 0 1 6q2 11 11 10h7q6 4 17 0q17 -2 23 0l12 4q13 0 18 4t10 4h9q5 -1 17 2t17 0l13 -4q3 0 7 -2t5.5 -2.5t4 -1t5.5 -1.5q-1 -1 1 -2t10 -3q12 -10 14 -21q12 -28 17.5 -47t-17.5 -41
q-2 -1 -8 -8q-9 -9 -33 -27q20 -3 25 -15q2 0 6 -5q6 -10 10 -34l8 -26q8 -31 -4 -53l-7 -19q-7 -25 -33 -36l-33 -13q-17 -11 -33 -14.5t-53 -1.5q-44 9 -56 26.5t-12 41.5q-3 20 23 20q14 0 26 -9q15 -8 45.5 -4t54.5 21.5t27 25.5q5 6 4 21t-12 16q-6 2 -30 -4
q-16 -6 -31 -6zM555 610h4q3 -1 8 -1.5t7 -1.5q31 -23 8 -56q-44 -55 -57.5 -81t-30.5 -52q-7 -13 -136 -225l-31 -61q-37 -72 -54 -126q-12 -19 -36 -3q-1 1 -2 1.5t-2 2.5t-2.5 4t-4.5 5q-12 12 -17 46q0 18 4 27q11 24 31 76q9 12 23 40q5 14 20 36l63 115q20 32 35 59
q6 6 20 28l20 40q42 53 51 68t19 23q1 3 8 11.5t22 17.5t30 7zM423 107l-2 8q-1 8 10 35l5 5q0 1 1.5 3.5t2.5 5.5q3 1 4 4q2 0 7 8q9 13 11 17q3 1 5.5 5.5t8.5 11.5t8 8q-2 0 5 10q1 2 9.5 13.5t10.5 15.5l7 7l13 18l19 21q2 6 14 18q1 3 15 15.5t21 15.5q5 5 5 6q1 1 8 1
t10 -1t22 -14q2 1 11 1q11 0 46 -21q3 0 -1 -13q-15 -35 -23 -82t-8 -52q1 -1 12 -1l31 2q9 0 15 -3q11 0 20 -12q0 -3 4 -5q0 -4 3 -6l5 -2l7 -11q7 -3 7 -6.5t-8 -5.5q-14 5 -32 2t-22 -3q-42 -7 -50 -10l-4 -10q0 -11 -2 -14q-5 -71 -2.5 -81t2.5 -20q2 -3 2 -9
q2 -2 -2 -7q-1 -4 -9.5 -3.5t-13.5 2.5q-17 0 -21 4q-5 0 -14 4q0 2 -5 5.5t-7 3.5h-5q-2 6 -2 17q2 35 5 47v9q1 3 1 11l1 17q3 12 0 12q-13 0 -42 -12t-32.5 -13t-5.5 -2q-4 -2 -9 -2q-15 -7 -28 2q0 3 -6 4t-6.5 0t-5 3t-7 7t-8.5 4l-6 6q0 3 -5 6z" />
    <glyph glyph-name="questiondown" unicode="&#xbf;" horiz-adv-x="439" 
d="M301 362l-33 3q-9 11 -15 13q-24 24 -32 24q-8 1 -7.5 14.5t9.5 24.5q14 31 37 48q11 5 17 5t32.5 -4.5t30.5 -16.5v-23q0 -19 -4.5 -22.5t-4.5 -15.5l-3 -21q-7 -5 -11 -14q-1 -14 -5 -16t-11 1zM163 -92q-5 -17 -5.5 -19.5t-2.5 -6.5q-8 -16 -8 -22v-14q0 -9 10 -9
q15 3 40.5 14.5t36 21t27.5 37t18.5 36.5t5 14t7 23.5t3.5 24t-5 5.5q-11 2 7 8q3 1 11 1q28 0 32 -6q11 0 24 -8.5t17 -19.5q14 -41 -9 -77q-13 -38 -28 -49q-17 -36 -20.5 -39.5t-6.5 -4.5q-4 -10 -4 -12.5t-9 -8t-14 -9.5q-10 -8 -10 -12q-7 0 -13 -3q-14 -3 -18 -10
q-6 0 -22 -6q-23 -6 -54 -3q-5 2 -19 9.5t-16 9t-5 2.5q-8 3 -14 11q-9 2 -17 7q-10 9 -25 14l-17 10q-12 2 -20 3q-4 0 -10 14q-2 52 46 140q3 7 10.5 21.5t8.5 20.5q10 22 54 114t51 105q1 0 5 5.5t6 6.5l5 11q0 5 10.5 7.5t16.5 1.5h32q24 -4 28 -8.5t4 -25.5
q0 -66 -27 -109q-10 -25 -18.5 -39.5t-10.5 -22.5t-16 -22q-6 -16 -12 -24q-5 -2 -14.5 -19t-9.5 -22.5t-9 -11.5q0 -4 -6 -13q0 -14 -6 -20.5t-6 -15.5q0 -6 -9 -6z" />
    <glyph glyph-name="Agrave" unicode="&#xc0;" horiz-adv-x="467" 
d="M190 270q2 2 23.5 4.5t50.5 17.5q1 0 -1 24q-3 42 -5 60q-2 24 -4 34q0 19 -15 79l-44 -149q-14 -62 -11 -76zM128 857l16 1q47 -16 78 -56q16 -23 16 -26q29 -35 34 -51q6 -25 -6.5 -37.5t-25.5 -12.5q-39 6 -59 47q-11 10 -31 32q-20 20 -33 30q-19 14 -20 17
q-21 7 -13 17q21 28 44 39zM55 241l6 44q0 13 4 26q0 17 17 51q0 2 9 26q0 2 19 59l12 29q0 4 5 15.5t7.5 23t6.5 22.5q14 27 25 46q21 40 78 36l32 -3q30 -8 46 -17q23 -9 31 -19.5t7 -34.5q1 -12 6 -104t5 -93l5 -43q0 -6 22 -144l22 -70q20 -56 21.5 -58.5t8.5 -21.5
q11 -33 -19 -44q-27 -4 -40 5q-5 0 -23 9q-2 5 -11.5 9.5t-12.5 7.5q-11 3 -20 31q-3 2 -11 16q-7 14 -4 23q-7 9 -7 37q-9 15 -9 47t-10 50q-51 -23 -109 -25q-11 0 -11 -4q0 -9 -6 -32l-17 -110q10 -74 -18 -78q-8 0 -26.5 -4t-30.5 7q-23 13 -32.5 26.5t-8.5 30.5
q1 14 5 60q2 2 1.5 22.5t2.5 31.5l16 62q3 2 8 30q-1 2 -1 10z" />
    <glyph glyph-name="Aacute" unicode="&#xc1;" horiz-adv-x="467" 
d="M361 861l16 -1q23 -11 44 -39q8 -10 -13 -17q-1 -3 -11 -10q-22 -17 -42 -38t-31 -31q-20 -41 -59 -47q-13 0 -25.5 12.5t-6.5 37.5q5 16 34 51q0 3 16 26q31 40 78 56zM190 270q2 2 23.5 4.5t50.5 17.5q1 0 -1 24q-3 42 -5 60q-2 24 -4 34q0 19 -15 79l-44 -149
q-14 -62 -11 -76zM55 241l6 44q0 13 4 26q0 17 17 51q0 2 9 26q0 2 19 59l12 29q0 4 5 15.5t7.5 23t6.5 22.5q14 27 25 46q21 40 78 36l32 -3q30 -8 46 -17q23 -9 31 -19.5t7 -34.5q1 -12 6 -104t5 -93l5 -43q0 -6 22 -144l22 -70q20 -56 21.5 -58.5t8.5 -21.5
q11 -33 -19 -44q-27 -4 -40 5q-5 0 -23 9q-2 5 -11.5 9.5t-12.5 7.5q-11 3 -20 31q-3 2 -11 16q-7 14 -4 23q-7 9 -7 37q-9 15 -9 47t-10 50q-51 -23 -109 -25q-11 0 -11 -4q0 -9 -6 -32l-17 -110q10 -74 -18 -78q-8 0 -26.5 -4t-30.5 7q-23 13 -32.5 26.5t-8.5 30.5
q1 14 5 60q2 2 1.5 22.5t2.5 31.5l16 62q3 2 8 30q-1 2 -1 10z" />
    <glyph glyph-name="Acircumflex" unicode="&#xc2;" horiz-adv-x="467" 
d="M221 842q25 0 33 -5q23 -16 48 -42q41 -43 53 -52.5t17.5 -21t4.5 -17.5t-5 -9.5t-12.5 -6t-15.5 -6.5t-31 3q-10 0 -22 21q-12 3 -24 17.5t-25 23.5q-6 9 -11 8.5t-9.5 -7.5t-10 -15t-8 -11.5t-5.5 -7.5q-5 -9 -7 -11q-16 -17 -46 -4q-9 2 -16.5 11.5t1.5 26.5
q0 5 34 47t38 46q5 8 19 12zM190 270q2 2 23.5 4.5t50.5 17.5q1 0 -1 24q-3 42 -5 60q-2 24 -4 34q0 19 -15 79l-44 -149q-14 -62 -11 -76zM55 241l6 44q0 13 4 26q0 17 17 51q0 2 9 26q0 2 19 59l12 29q0 4 5 15.5t7.5 23t6.5 22.5q14 27 25 46q21 40 78 36l32 -3
q30 -8 46 -17q23 -9 31 -19.5t7 -34.5q1 -12 6 -104t5 -93l5 -43q0 -6 22 -144l22 -70q20 -56 21.5 -58.5t8.5 -21.5q11 -33 -19 -44q-27 -4 -40 5q-5 0 -23 9q-2 5 -11.5 9.5t-12.5 7.5q-11 3 -20 31q-3 2 -11 16q-7 14 -4 23q-7 9 -7 37q-9 15 -9 47t-10 50
q-51 -23 -109 -25q-11 0 -11 -4q0 -9 -6 -32l-17 -110q10 -74 -18 -78q-8 0 -26.5 -4t-30.5 7q-23 13 -32.5 26.5t-8.5 30.5q1 14 5 60q2 2 1.5 22.5t2.5 31.5l16 62q3 2 8 30q-1 2 -1 10z" />
    <glyph glyph-name="Atilde" unicode="&#xc3;" horiz-adv-x="467" 
d="M180 812l76 -5q11 -1 56 -8.5t50 -7.5t19.5 6t26.5 6q4 -5 4 -12q0 -25 -26.5 -50t-72.5 -25q-7 0 -27 4q-62 12 -152 12l-41 -10q-5 0 -5 21.5t15.5 42t76.5 26.5zM190 270q2 2 23.5 4.5t50.5 17.5q1 0 -1 24q-3 42 -5 60q-2 24 -4 34q0 19 -15 79l-44 -149
q-14 -62 -11 -76zM55 241l6 44q0 13 4 26q0 17 17 51q0 2 9 26q0 2 19 59l12 29q0 4 5 15.5t7.5 23t6.5 22.5q14 27 25 46q21 40 78 36l32 -3q30 -8 46 -17q23 -9 31 -19.5t7 -34.5q1 -12 6 -104t5 -93l5 -43q0 -6 22 -144l22 -70q20 -56 21.5 -58.5t8.5 -21.5
q11 -33 -19 -44q-27 -4 -40 5q-5 0 -23 9q-2 5 -11.5 9.5t-12.5 7.5q-11 3 -20 31q-3 2 -11 16q-7 14 -4 23q-7 9 -7 37q-9 15 -9 47t-10 50q-51 -23 -109 -25q-11 0 -11 -4q0 -9 -6 -32l-17 -110q10 -74 -18 -78q-8 0 -26.5 -4t-30.5 7q-23 13 -32.5 26.5t-8.5 30.5
q1 14 5 60q2 2 1.5 22.5t2.5 31.5l16 62q3 2 8 30q-1 2 -1 10z" />
    <glyph glyph-name="Adieresis" unicode="&#xc4;" horiz-adv-x="467" 
d="M364 816q35 0 44 -38q0 -34 -21 -54.5t-39.5 -20.5t-46 17t-27.5 37q0 50 43 60q13 1 37 -3q0 2 10 2zM161 710q-23 0 -46 14t-23 44q0 55 50 64q49 -17 55 -23l15 -34q-3 -21 -21 -43t-30 -22zM190 270q2 2 23.5 4.5t50.5 17.5q1 0 -1 24q-3 42 -5 60q-2 24 -4 34
q0 19 -15 79l-44 -149q-14 -62 -11 -76zM55 241l6 44q0 13 4 26q0 17 17 51q0 2 9 26q0 2 19 59l12 29q0 4 5 15.5t7.5 23t6.5 22.5q14 27 25 46q21 40 78 36l32 -3q30 -8 46 -17q23 -9 31 -19.5t7 -34.5q1 -12 6 -104t5 -93l5 -43q0 -6 22 -144l22 -70q20 -56 21.5 -58.5
t8.5 -21.5q11 -33 -19 -44q-27 -4 -40 5q-5 0 -23 9q-2 5 -11.5 9.5t-12.5 7.5q-11 3 -20 31q-3 2 -11 16q-7 14 -4 23q-7 9 -7 37q-9 15 -9 47t-10 50q-51 -23 -109 -25q-11 0 -11 -4q0 -9 -6 -32l-17 -110q10 -74 -18 -78q-8 0 -26.5 -4t-30.5 7q-23 13 -32.5 26.5
t-8.5 30.5q1 14 5 60q2 2 1.5 22.5t2.5 31.5l16 62q3 2 8 30q-1 2 -1 10z" />
    <glyph glyph-name="Aring" unicode="&#xc5;" horiz-adv-x="467" 
d="M274 805q-38 0 -57 -19t-21 -40q18 -31 52 -33q22 0 32 21q21 21 21 31.5t-9.5 25t-17.5 14.5zM190 270q2 2 23.5 4.5t50.5 17.5q1 0 -1 24q-3 42 -5 60q-2 24 -4 34q0 19 -15 79l-44 -149q-14 -62 -11 -76zM243 869q24 0 59 -22q2 -2 17 -12q28 -19 28 -28.5t5.5 -26.5
t5.5 -22q0 -27 -16 -57q-22 -44 -46 -44q-74 0 -96 12q-13 6 -25.5 20.5t-17.5 19t-10 20t-5 37t7 43.5q1 2 12 15t20 31q5 14 62 14zM55 241l6 44q0 13 4 26q0 17 17 51q0 2 9 26q0 2 19 59l12 29q0 4 5 15.5t7.5 23t6.5 22.5q14 27 25 46q21 40 78 36l32 -3q30 -8 46 -17
q23 -9 31 -19.5t7 -34.5q1 -12 6 -104t5 -93l5 -43q0 -6 22 -144l22 -70q20 -56 21.5 -58.5t8.5 -21.5q11 -33 -19 -44q-27 -4 -40 5q-5 0 -23 9q-2 5 -11.5 9.5t-12.5 7.5q-11 3 -20 31q-3 2 -11 16q-7 14 -4 23q-7 9 -7 37q-9 15 -9 47t-10 50q-51 -23 -109 -25
q-11 0 -11 -4q0 -9 -6 -32l-17 -110q10 -74 -18 -78q-8 0 -26.5 -4t-30.5 7q-23 13 -32.5 26.5t-8.5 30.5q1 14 5 60q2 2 1.5 22.5t2.5 31.5l16 62q3 2 8 30q-1 2 -1 10z" />
    <glyph glyph-name="AE" unicode="&#xc6;" horiz-adv-x="648" 
d="M190 290q2 2 23.5 4.5t50.5 17.5q1 0 -1 24q-3 42 -5 60q-2 24 -4 34q0 19 -15 79l-44 -149q-14 -62 -11 -76zM55 261l6 44q0 13 4 26q0 17 17 51q0 2 9 26q0 2 19 59l12 29q0 1 5 14.5t7.5 24.5t6.5 22q14 27 25 46q21 40 78 36l32 -3q30 -8 46 -17q23 -9 31 -19.5
t7 -34.5v-3l21 42l12 16q19 19 46 12q18 -3 29 -12q7 -4 25 -4q4 2 24 2q24 5 49.5 3t35 -6.5t19 -15.5t7 -22t-8.5 -17q-13 -11 -48 -26q-55 -30 -63 -33q-6 -3 -27 -13q-15 -10 -19 -21q-15 -51 -18 -63q-1 -7 -8 -32.5t-8.5 -33.5t-2 -10.5t-0.5 -3.5q10 5 22 5l12 3
q1 0 15 6q24 3 28 2q5 -1 13 1t10 2l36 9t26 1q4 2 11.5 -2.5t9 -13.5t-2.5 -15q-12 -18 -88 -56l-57 -29q-16 -10 -35 -12l-15 6v-6q-3 -21 -1 -45v-21q2 -33 6 -37q-1 -1 5 -23q0 -16 22 -46l14 -4q11 0 53 17l45 18q4 0 27 16t36 3t3 -36q-10 -24 -35 -51t-54 -44
q-42 -18 -60 -14q-12 0 -39 10q0 -1 -2 -1l-52 11q0 4 -14 9l-18 11q0 4 -9 11q-7 3 -11 12t-4 12l-9 15q-4 2 -11 23q-4 5 -5 18q-5 11 -5 31q-6 9 -10 39.5t-3 51.5v9q-41 -20 -105 -23q-11 0 -11 -4q0 -9 -6 -32l-17 -110q10 -74 -18 -78q-8 0 -26.5 -4t-30.5 7
q-23 13 -32.5 26.5t-8.5 30.5q1 14 5 60q2 2 1.5 22.5t2.5 31.5l16 62q3 2 8 30q-1 2 -1 10z" />
    <glyph glyph-name="Ccedilla" unicode="&#xc7;" horiz-adv-x="443" 
d="M187 612q14 6 58 4.5t63 -8.5l25 -8q31 -21 35 -21q41 -32 47 -84q6 -22 2 -40q0 -6 -4 -26l-10 -23l-12 -17q-6 -1 -7 -1q-37 -6 -57 -1.5t-35 21.5q-3 6 -3 11q1 5 2 9l6 16q13 32 -2 54q0 3 -10 11t-15.5 12t-19.5 1q-24 -10 -41 -61q-20 -26 -28 -68q-12 -75 -12 -85
l-1 -22v-9q-2 -2 2 -87q1 -5 4 -14q3 -11 9 -36l13 -22q5 -3 13 -18q5 0 8 -7q7 -7 6 -8q5 -1 15 -6q27 -14 47 6q7 7 17.5 19.5t16 20t17.5 14.5q33 25 57 -2q5 -8 1.5 -38.5t-28.5 -63.5q-2 -6 -13 -19.5t-23 -21.5q-2 -5 -52 -8l29 -45q21 -45 24 -65.5t-19 -51.5
q-18 -28 -68 -31q-25 -3 -77 19q-2 2 -10.5 8.5t-12.5 11.5q-13 12 -13 34.5t11.5 39.5t26.5 17q20 0 20 -20q0 -10 -1 -16q4 -6 8 -19t8.5 -18t5.5 -5h6q16 0 35 15q5 9 5 34t-14 35l-11 22q-6 9 -34 42q-8 2 -9 2l-13 3q-8 0 -16 5t-26.5 17.5t-28.5 20.5q-30 24 -43 55
q-4 7 -5 19.5t-4 18.5q-8 8 -7.5 26t-2.5 44q0 12 1 14q-5 5 -4 17.5t1 34.5q3 6 2.5 35.5t1.5 44.5q-4 9 -1 26l1 30q1 18 9 38q1 9 4 21.5t26 50.5q0 8 15 20q0 4 8 12t18 20q14 17 31 25t32 19z" />
    <glyph glyph-name="Egrave" unicode="&#xc8;" horiz-adv-x="401" 
d="M120 857l16 1q47 -16 78 -56q16 -23 16 -26q29 -35 34 -51q6 -25 -6.5 -37.5t-25.5 -12.5q-39 6 -59 47q-11 10 -31 32q-20 20 -33 30q-19 14 -20 17q-21 7 -13 17q21 28 44 39zM161 233v-40q0 -62 7 -69q-1 -1 5 -24q0 -8 8 -25q0 -5 28 -24q12 0 59 20l71 27
q13 4 24.5 -3.5t14 -26t-1 -26.5t-17 -20t-17.5 -17t-15 -10.5t-24.5 -11.5t-18.5 -9q-39 -18 -60 -14q-13 0 -26.5 5t-15 4.5t-8 1t-12.5 3t-31 6.5q0 4 -14 8l-27 22q-7 4 -15 25l-9 15q-4 3 -11 23q-4 5 -5 18q-5 11 -5 31q-4 5 -9 38q-7 43 -1 77q0 19 7 37l2 16
q5 26 7 40q-4 14 13 67q0 8 6.5 23.5t7.5 32.5l8 19q0 8 15 59q8 19 8 22l25 53l12 16q7 7 21 12q6 5 32 -1q16 -6 22 -12q7 -3 17 -3l77 5q29 -2 39 -6.5t19.5 -15.5t7 -22t-8.5 -17q-13 -11 -48 -26q-61 -33 -66 -35l-24 -11q-15 -10 -19 -21q-31 -112 -33.5 -124.5
l-3 -15t-0.5 -3.5l20 2q44 14 52 9q4 0 11 3q37 13 65 11q5 3 11 -4t9 -17q6 -25 -15 -39q-42 -28 -100 -45q-19 -15 -53 -19z" />
    <glyph glyph-name="Eacute" unicode="&#xc9;" horiz-adv-x="401" 
d="M353 861l16 -1q23 -11 44 -39q8 -10 -13 -17q-1 -3 -11 -10q-22 -17 -42 -38t-31 -31q-20 -41 -59 -47q-13 0 -25.5 12.5t-6.5 37.5q5 16 34 51q0 3 16 26q31 40 78 56zM161 233v-40q0 -62 7 -69q-1 -1 5 -24q0 -8 8 -25q0 -5 28 -24q12 0 59 20l71 27q13 4 24.5 -3.5
t14 -26t-1 -26.5t-17 -20t-17.5 -17t-15 -10.5t-24.5 -11.5t-18.5 -9q-39 -18 -60 -14q-13 0 -26.5 5t-15 4.5t-8 1t-12.5 3t-31 6.5q0 4 -14 8l-27 22q-7 4 -15 25l-9 15q-4 3 -11 23q-4 5 -5 18q-5 11 -5 31q-4 5 -9 38q-7 43 -1 77q0 19 7 37l2 16q5 26 7 40q-4 14 13 67
q0 8 6.5 23.5t7.5 32.5l8 19q0 8 15 59q8 19 8 22l25 53l12 16q7 7 21 12q6 5 32 -1q16 -6 22 -12q7 -3 17 -3l77 5q29 -2 39 -6.5t19.5 -15.5t7 -22t-8.5 -17q-13 -11 -48 -26q-61 -33 -66 -35l-24 -11q-15 -10 -19 -21q-31 -112 -33.5 -124.5l-3 -15t-0.5 -3.5l20 2
q44 14 52 9q4 0 11 3q37 13 65 11q5 3 11 -4t9 -17q6 -25 -15 -39q-42 -28 -100 -45q-19 -15 -53 -19z" />
    <glyph glyph-name="Ecircumflex" unicode="&#xca;" horiz-adv-x="401" 
d="M213 842q25 0 32 -5q24 -16 49 -42q41 -43 53 -52.5t17.5 -21t4.5 -17.5t-5 -9.5t-12.5 -6t-15.5 -6.5t-31 3q-10 0 -22 21q-12 3 -24 17.5t-25 23.5q-6 9 -11 8.5t-9.5 -7.5t-10 -15t-8 -11.5t-5.5 -7.5q-5 -9 -7 -11q-16 -17 -46 -4q-9 2 -16.5 11.5t1.5 26.5
q0 5 34 47t38 46q5 8 19 12zM161 233v-40q0 -62 7 -69q-1 -1 5 -24q0 -8 8 -25q0 -5 28 -24q12 0 59 20l71 27q13 4 24.5 -3.5t14 -26t-1 -26.5t-17 -20t-17.5 -17t-15 -10.5t-24.5 -11.5t-18.5 -9q-39 -18 -60 -14q-13 0 -26.5 5t-15 4.5t-8 1t-12.5 3t-31 6.5q0 4 -14 8
l-27 22q-7 4 -15 25l-9 15q-4 3 -11 23q-4 5 -5 18q-5 11 -5 31q-4 5 -9 38q-7 43 -1 77q0 19 7 37l2 16q5 26 7 40q-4 14 13 67q0 8 6.5 23.5t7.5 32.5l8 19q0 8 15 59q8 19 8 22l25 53l12 16q7 7 21 12q6 5 32 -1q16 -6 22 -12q7 -3 17 -3l77 5q29 -2 39 -6.5t19.5 -15.5
t7 -22t-8.5 -17q-13 -11 -48 -26q-61 -33 -66 -35l-24 -11q-15 -10 -19 -21q-31 -112 -33.5 -124.5l-3 -15t-0.5 -3.5l20 2q44 14 52 9q4 0 11 3q37 13 65 11q5 3 11 -4t9 -17q6 -25 -15 -39q-42 -28 -100 -45q-19 -15 -53 -19z" />
    <glyph glyph-name="Edieresis" unicode="&#xcb;" horiz-adv-x="401" 
d="M356 816q35 0 44 -38q0 -34 -21 -54.5t-39.5 -20.5t-46 17t-27.5 37q0 50 43 60q13 1 37 -3q0 2 10 2zM153 710q-23 0 -46 14t-23 44q0 55 50 64q49 -17 55 -23l15 -34q-3 -21 -21 -43t-30 -22zM161 233v-40q0 -62 7 -69q-1 -1 5 -24q0 -8 8 -25q0 -5 28 -24q12 0 59 20
l71 27q13 4 24.5 -3.5t14 -26t-1 -26.5t-17 -20t-17.5 -17t-15 -10.5t-24.5 -11.5t-18.5 -9q-39 -18 -60 -14q-13 0 -26.5 5t-15 4.5t-8 1t-12.5 3t-31 6.5q0 4 -14 8l-27 22q-7 4 -15 25l-9 15q-4 3 -11 23q-4 5 -5 18q-5 11 -5 31q-4 5 -9 38q-7 43 -1 77q0 19 7 37l2 16
q5 26 7 40q-4 14 13 67q0 8 6.5 23.5t7.5 32.5l8 19q0 8 15 59q8 19 8 22l25 53l12 16q7 7 21 12q6 5 32 -1q16 -6 22 -12q7 -3 17 -3l77 5q29 -2 39 -6.5t19.5 -15.5t7 -22t-8.5 -17q-13 -11 -48 -26q-61 -33 -66 -35l-24 -11q-15 -10 -19 -21q-31 -112 -33.5 -124.5
l-3 -15t-0.5 -3.5l20 2q44 14 52 9q4 0 11 3q37 13 65 11q5 3 11 -4t9 -17q6 -25 -15 -39q-42 -28 -100 -45q-19 -15 -53 -19z" />
    <glyph glyph-name="Igrave" unicode="&#xcc;" horiz-adv-x="380" 
d="M91 857l16 1q47 -16 78 -56q16 -23 16 -26q29 -35 34 -51q6 -25 -6.5 -37.5t-25.5 -12.5q-39 6 -59 47q-11 10 -32 32q-19 20 -32 30q-19 14 -20 17q-21 7 -13 17q21 28 44 39zM372 532.5q-8 -4.5 -16.5 -4.5t-44.5 -2q-23 -5 -46 -13h-1q0 -18 -10 -53q0 -12 -5 -39
q0 -8 -3 -16t-3 -25q-7 -41 -6 -45t0 -11t-4 -21t-3 -33t-5 -34v-11q2 -36 -2.5 -51t-4.5 -25.5t-5 -32.5t-3 -52h6q25 2 26.5 1.5t13.5 2.5l16 -1h10q3 0 13 -7.5t14 -14.5q7 -7 4.5 -13.5t-22.5 -21.5l-19 -6q-3 -3 -14 -7t-19 -4q-23 -5 -27 -17q-4 -8 -48 -6h-34l-19 -6
q-25 -10 -44 -5t-25.5 7.5t-15.5 10t-7.5 17t6.5 27.5q17 14 24 18q48 15 61 20q0 33 -2 39q3 1 7 43q1 4 -5 19v6q3 28 -1 51q0 1 4 35q5 6 0 32q4 19 7 30l1 14q0 6 6 36v10l2 8q18 74 24 108q-8 -2 -10 -2l-33 -5q-38 -10 -67 17q-25 34 -1 58q15 13 46 18q27 9 35 13
q10 0 47 22q37 5 43 5l47 6q9 1 24 -1.5t18 -6.5q13 -3 32 -12l24 -22q14 -20 19 -30q3 -13 -5 -17.5z" />
    <glyph glyph-name="Iacute" unicode="&#xcd;" horiz-adv-x="380" 
d="M324 861l16 -1q23 -11 44 -39q8 -10 -13 -17q-1 -3 -11 -10q-22 -17 -42 -38t-31 -31q-20 -41 -59 -47q-13 0 -25.5 12.5t-6.5 37.5q5 16 34 51q0 3 16 26q31 40 78 56zM372 532.5q-8 -4.5 -16.5 -4.5t-44.5 -2q-23 -5 -46 -13h-1q0 -18 -10 -53q0 -12 -5 -39
q0 -8 -3 -16t-3 -25q-7 -41 -6 -45t0 -11t-4 -21t-3 -33t-5 -34v-11q2 -36 -2.5 -51t-4.5 -25.5t-5 -32.5t-3 -52h6q25 2 26.5 1.5t13.5 2.5l16 -1h10q3 0 13 -7.5t14 -14.5q7 -7 4.5 -13.5t-22.5 -21.5l-19 -6q-3 -3 -14 -7t-19 -4q-23 -5 -27 -17q-4 -8 -48 -6h-34l-19 -6
q-25 -10 -44 -5t-25.5 7.5t-15.5 10t-7.5 17t6.5 27.5q17 14 24 18q48 15 61 20q0 33 -2 39q3 1 7 43q1 4 -5 19v6q3 28 -1 51q0 1 4 35q5 6 0 32q4 19 7 30l1 14q0 6 6 36v10l2 8q18 74 24 108q-8 -2 -10 -2l-33 -5q-38 -10 -67 17q-25 34 -1 58q15 13 46 18q27 9 35 13
q10 0 47 22q37 5 43 5l47 6q9 1 24 -1.5t18 -6.5q13 -3 32 -12l24 -22q14 -20 19 -30q3 -13 -5 -17.5z" />
    <glyph glyph-name="Icircumflex" unicode="&#xce;" horiz-adv-x="380" 
d="M184 842q25 0 32 -5q24 -16 49 -42q41 -43 53 -52.5t17.5 -21t4.5 -17.5t-5 -9.5t-12.5 -6t-15.5 -6.5t-31 3q-10 0 -22 21q-12 3 -24 17.5t-25 23.5q-6 9 -11 8.5t-9.5 -7.5t-10 -15t-8 -11.5t-4.5 -7.5q-6 -9 -8 -11q-16 -17 -46 -4q-9 2 -16.5 11.5t1.5 26.5
q0 5 34 47t38 46q5 8 19 12zM372 532.5q-8 -4.5 -16.5 -4.5t-44.5 -2q-23 -5 -46 -13h-1q0 -18 -10 -53q0 -12 -5 -39q0 -8 -3 -16t-3 -25q-7 -41 -6 -45t0 -11t-4 -21t-3 -33t-5 -34v-11q2 -36 -2.5 -51t-4.5 -25.5t-5 -32.5t-3 -52h6q25 2 26.5 1.5t13.5 2.5l16 -1h10
q3 0 13 -7.5t14 -14.5q7 -7 4.5 -13.5t-22.5 -21.5l-19 -6q-3 -3 -14 -7t-19 -4q-23 -5 -27 -17q-4 -8 -48 -6h-34l-19 -6q-25 -10 -44 -5t-25.5 7.5t-15.5 10t-7.5 17t6.5 27.5q17 14 24 18q48 15 61 20q0 33 -2 39q3 1 7 43q1 4 -5 19v6q3 28 -1 51q0 1 4 35q5 6 0 32
q4 19 7 30l1 14q0 6 6 36v10l2 8q18 74 24 108q-8 -2 -10 -2l-33 -5q-38 -10 -67 17q-25 34 -1 58q15 13 46 18q27 9 35 13q10 0 47 22q37 5 43 5l47 6q9 1 24 -1.5t18 -6.5q13 -3 32 -12l24 -22q14 -20 19 -30q3 -13 -5 -17.5z" />
    <glyph glyph-name="Idieresis" unicode="&#xcf;" horiz-adv-x="380" 
d="M327 816q35 0 44 -38q0 -34 -21 -54.5t-39.5 -20.5t-46 17t-27.5 37q0 50 43 60q13 1 37 -3q0 2 10 2zM124 710q-23 0 -46 14t-23 44q0 55 50 64q49 -17 55 -23l15 -34q-3 -21 -21 -43t-30 -22zM372 532.5q-8 -4.5 -16.5 -4.5t-44.5 -2q-23 -5 -46 -13h-1q0 -18 -10 -53
q0 -12 -5 -39q0 -8 -3 -16t-3 -25q-7 -41 -6 -45t0 -11t-4 -21t-3 -33t-5 -34v-11q2 -36 -2.5 -51t-4.5 -25.5t-5 -32.5t-3 -52h6q25 2 26.5 1.5t13.5 2.5l16 -1h10q3 0 13 -7.5t14 -14.5q7 -7 4.5 -13.5t-22.5 -21.5l-19 -6q-3 -3 -14 -7t-19 -4q-23 -5 -27 -17
q-4 -8 -48 -6h-34l-19 -6q-25 -10 -44 -5t-25.5 7.5t-15.5 10t-7.5 17t6.5 27.5q17 14 24 18q48 15 61 20q0 33 -2 39q3 1 7 43q1 4 -5 19v6q3 28 -1 51q0 1 4 35q5 6 0 32q4 19 7 30l1 14q0 6 6 36v10l2 8q18 74 24 108q-8 -2 -10 -2l-33 -5q-38 -10 -67 17q-25 34 -1 58
q15 13 46 18q27 9 35 13q10 0 47 22q37 5 43 5l47 6q9 1 24 -1.5t18 -6.5q13 -3 32 -12l24 -22q14 -20 19 -30q3 -13 -5 -17.5z" />
    <glyph glyph-name="Eth" unicode="&#xd0;" horiz-adv-x="534" 
d="M237 332q10 0 68 -4q44 -11 46 -17q0 -2 -0.5 -4.5t-1 -10t-1.5 -9.5q-3 -6 -25 -10q-25 -5 -39 -5h-16q-2 0 -9 -2t-23 -2h-5v-5q-13 -171 -10 -182q4 2 10 4q8 0 21 13q35 29 39 31l14 13q12 2 26 24v1l19 25l20 41q9 12 15 35t12 44v15l2 27q0 8 2 20q0 117 -64 153
q-26 15 -50 8q-9 0 -34 -14v-11q-1 -14 -1 -36l-5 -37zM104 331l10 1v20q0 40 2 46t1 24q3 3 3 35l-11 -8q-4 -3 -15.5 -17.5t-23.5 -26t-37.5 -4.5t-28.5 24q8 26 17.5 45t22.5 52q20 20 24 41l7 10l16 18q0 7 24 28q3 5 16 7.5t39 13.5q4 4 16.5 7.5t17.5 3.5q56 12 97 -5
q23 0 33 -4q10 -9 27 -13l51 -27q11 -11 45 -52q37 -66 47 -134q1 -19 1 -67q-9 -91 -33 -132q-2 -12 -11 -30q0 -2 -13.5 -24.5t-30.5 -44t-22 -28.5q-54 -50 -59.5 -53t-8 -4.5t-5.5 -2.5q-75 -38 -79.5 -41t-24.5 -7q-29 -3 -36 3q-16 7 -29 21q-4 1 -16 16
q-16 12 -18 14q-9 13 -13 33t-4 21q-3 26 -2 45q-2 4 -2 14.5t3 24.5t3 34t5 44q-7 -1 -25 -1t-38 14l-13 8l-5 21q0 16 3 29q13 4 35.5 5t36.5 3h1z" />
    <glyph glyph-name="Ntilde" unicode="&#xd1;" horiz-adv-x="536" 
d="M225 812l76 -5q11 -1 56 -8.5t50 -7.5t19.5 6t26.5 6q4 -5 4 -12q0 -25 -26.5 -50t-72.5 -25q-7 0 -28 4q-61 12 -151 12l-41 -10q-5 0 -5 21.5t15.5 42t76.5 26.5zM362 224q-2 5 -0.5 17t3.5 32q0 31 1 38l-1 20q0 16 1 27v29q2 9 0.5 30t1.5 53.5t5 39.5v20q0 3 1 21v7
q1 15 -1 18l9 37l4 21q2 4 15 17q3 3 23 3t30 -1t13 -5.5t6 -18.5q6 -13 3 -33q1 -6 1 -9v-10q3 -20 -1 -41q0 -8 1 -16v-9q0 -20 -3 -35v-25q1 -13 -3 -25q0 -4 -1 -24q-2 -7 -4 -17q3 -8 0 -21q-3 -3 2 -24q-4 -13 1 -47v-20q3 -32 -1 -63v-6q0 -20 -2 -29q2 -17 0 -43v-6
l-2 -24q-11 -71 -64 -81q-65 -12 -103 35l-6 15q-11 2 -29 46q-28 67 -31 74q-14 39 -14 42l-2 19l-4 8t-5 12q0 7 -7 30q0 2 -5 25l-12 89q0 3 -1 10l-4 -22q-7 -67 -10 -81l-5 -101v-40l-3 -49q0 -37 3 -69q-1 -29 -11 -38.5t-30 -10.5q-14 4 -38 15q-7 4 -9.5 16.5
t-11.5 21.5t-10 20l-12 76q0 16 1.5 33.5t0 36.5t5 44t5.5 42.5t2 45t3 40t3 19.5q0 16 2 25q-1 3 6 30q0 7 3 21t6 38t11 39t25 34q9 5 16 26q7 10 26 19q7 5 18.5 5t21.5 -7q39 -15 48 -53l4 -25q0 -6 9 -27q0 -10 4 -29q0 -14 7 -29q10 -51 15 -71q5 -7 8 -19q2 -9 8 -27
q2 -17 9 -39q41 -134 51 -151q2 4 2 25z" />
    <glyph glyph-name="Ograve" unicode="&#xd2;" horiz-adv-x="488" 
d="M122 857l16 1q47 -16 78 -56q16 -23 16 -26q29 -35 34 -51q6 -25 -6.5 -37.5t-25.5 -12.5q-39 6 -59 47q-11 10 -31 32q-20 20 -33 30q-19 14 -20 17q-21 7 -13 17q21 28 44 39zM162 227l3 -90q16 -57 47 -80q5 -5 23 -11l25 -6q5 0 11 4q7 2 10 5q7 9 14 16t6 7
q4 4 3 13q3 3 8 13q11 56 22 72q4 44 4 56q0 42 -22 103q-12 14 -12 89q-6 15 -7 27.5t-6.5 27t-8.5 19.5t-3.5 9.5t-4.5 11.5q-16 24 -49 -26l-17 -30q0 -2 -10 -37q-16 -56 -15.5 -62.5t-11.5 -41.5q-1 -3 -0.5 -14t-4 -30.5t-4.5 -44.5zM48 300l7 74q0 6 4.5 18t5.5 15
q0 2 2 7q0 27 15 47q23 53 35 79t26 43q1 5 21 16q41 22 77 22t69 -11q11 -2 29.5 -15t21.5 -14q17 -10 35.5 -42.5t20 -47.5t12 -47.5t10.5 -48t5.5 -46.5t4.5 -50q-6 -141 -36 -204q-6 -44 -23 -56l-2 -14q-1 -12 -11.5 -27t-26.5 -23q-3 -3 -40 -9q-53 -10 -70 -10
q-22 -7 -55.5 2.5t-38.5 10t-21.5 11t-21.5 16.5q-16 12 -19 19l-14 28q-13 13 -18 37.5t-10 31.5q-5 11 -9 23q1 7 1 25v10q-4 15 2 29q1 7 1.5 17.5t2.5 30.5v13q9 30 8 40z" />
    <glyph glyph-name="Oacute" unicode="&#xd3;" horiz-adv-x="488" 
d="M355 861l16 -1q23 -11 44 -39q8 -10 -13 -17q-1 -3 -11 -10q-22 -17 -42 -38t-31 -31q-20 -41 -59 -47q-13 0 -25.5 12.5t-6.5 37.5q5 16 34 51q0 3 16 26q31 40 78 56zM162 227l3 -90q16 -57 47 -80q5 -5 23 -11l25 -6q5 0 11 4q7 2 10 5q7 9 14 16t6 7q4 4 3 13
q3 3 8 13q11 56 22 72q4 44 4 56q0 42 -22 103q-12 14 -12 89q-6 15 -7 27.5t-6.5 27t-8.5 19.5t-3.5 9.5t-4.5 11.5q-16 24 -49 -26l-17 -30q0 -2 -10 -37q-16 -56 -15.5 -62.5t-11.5 -41.5q-1 -3 -0.5 -14t-4 -30.5t-4.5 -44.5zM48 300l7 74q0 6 4.5 18t5.5 15q0 2 2 7
q0 27 15 47q23 53 35 79t26 43q1 5 21 16q41 22 77 22t69 -11q11 -2 29.5 -15t21.5 -14q17 -10 35.5 -42.5t20 -47.5t12 -47.5t10.5 -48t5.5 -46.5t4.5 -50q-6 -141 -36 -204q-6 -44 -23 -56l-2 -14q-1 -12 -11.5 -27t-26.5 -23q-3 -3 -40 -9q-53 -10 -70 -10
q-22 -7 -55.5 2.5t-38.5 10t-21.5 11t-21.5 16.5q-16 12 -19 19l-14 28q-13 13 -18 37.5t-10 31.5q-5 11 -9 23q1 7 1 25v10q-4 15 2 29q1 7 1.5 17.5t2.5 30.5v13q9 30 8 40z" />
    <glyph glyph-name="Ocircumflex" unicode="&#xd4;" horiz-adv-x="488" 
d="M215 842q25 0 33 -5q23 -16 48 -42q41 -43 53 -52.5t17.5 -21t4.5 -17.5t-5 -9.5t-12.5 -6t-15.5 -6.5t-31 3q-10 0 -22 21q-12 3 -24 17.5t-25 23.5q-6 9 -11 8.5t-9.5 -7.5t-10 -15t-8 -11.5t-5.5 -7.5q-5 -9 -7 -11q-16 -17 -46 -4q-9 2 -16.5 11.5t1.5 26.5
q0 5 34 47t38 46q5 8 19 12zM162 227l3 -90q16 -57 47 -80q5 -5 23 -11l25 -6q5 0 11 4q7 2 10 5q7 9 14 16t6 7q4 4 3 13q3 3 8 13q11 56 22 72q4 44 4 56q0 42 -22 103q-12 14 -12 89q-6 15 -7 27.5t-6.5 27t-8.5 19.5t-3.5 9.5t-4.5 11.5q-16 24 -49 -26l-17 -30
q0 -2 -10 -37q-16 -56 -15.5 -62.5t-11.5 -41.5q-1 -3 -0.5 -14t-4 -30.5t-4.5 -44.5zM48 300l7 74q0 6 4.5 18t5.5 15q0 2 2 7q0 27 15 47q23 53 35 79t26 43q1 5 21 16q41 22 77 22t69 -11q11 -2 29.5 -15t21.5 -14q17 -10 35.5 -42.5t20 -47.5t12 -47.5t10.5 -48
t5.5 -46.5t4.5 -50q-6 -141 -36 -204q-6 -44 -23 -56l-2 -14q-1 -12 -11.5 -27t-26.5 -23q-3 -3 -40 -9q-53 -10 -70 -10q-22 -7 -55.5 2.5t-38.5 10t-21.5 11t-21.5 16.5q-16 12 -19 19l-14 28q-13 13 -18 37.5t-10 31.5q-5 11 -9 23q1 7 1 25v10q-4 15 2 29q1 7 1.5 17.5
t2.5 30.5v13q9 30 8 40z" />
    <glyph glyph-name="Otilde" unicode="&#xd5;" horiz-adv-x="488" 
d="M174 812l76 -5q11 -1 56 -8.5t50 -7.5t19.5 6t26.5 6q4 -5 4 -12q0 -25 -26.5 -50t-72.5 -25q-7 0 -27 4q-62 12 -152 12l-41 -10q-5 0 -5 21.5t15.5 42t76.5 26.5zM162 227l3 -90q16 -57 47 -80q5 -5 23 -11l25 -6q5 0 11 4q7 2 10 5q7 9 14 16t6 7q4 4 3 13q3 3 8 13
q11 56 22 72q4 44 4 56q0 42 -22 103q-12 14 -12 89q-6 15 -7 27.5t-6.5 27t-8.5 19.5t-3.5 9.5t-4.5 11.5q-16 24 -49 -26l-17 -30q0 -2 -10 -37q-16 -56 -15.5 -62.5t-11.5 -41.5q-1 -3 -0.5 -14t-4 -30.5t-4.5 -44.5zM48 300l7 74q0 6 4.5 18t5.5 15q0 2 2 7q0 27 15 47
q23 53 35 79t26 43q1 5 21 16q41 22 77 22t69 -11q11 -2 29.5 -15t21.5 -14q17 -10 35.5 -42.5t20 -47.5t12 -47.5t10.5 -48t5.5 -46.5t4.5 -50q-6 -141 -36 -204q-6 -44 -23 -56l-2 -14q-1 -12 -11.5 -27t-26.5 -23q-3 -3 -40 -9q-53 -10 -70 -10q-22 -7 -55.5 2.5
t-38.5 10t-21.5 11t-21.5 16.5q-16 12 -19 19l-14 28q-13 13 -18 37.5t-10 31.5q-5 11 -9 23q1 7 1 25v10q-4 15 2 29q1 7 1.5 17.5t2.5 30.5v13q9 30 8 40z" />
    <glyph glyph-name="Odieresis" unicode="&#xd6;" horiz-adv-x="488" 
d="M155 710q-23 0 -46 14t-23 44q0 55 50 64q49 -17 55 -23l15 -34q-3 -21 -21 -43t-30 -22zM358 816q35 0 44 -38q0 -34 -21 -54.5t-39.5 -20.5t-46 17t-27.5 37q0 50 43 60q13 1 37 -3q0 2 10 2zM162 227l3 -90q16 -57 47 -80q5 -5 23 -11l25 -6q5 0 11 4q7 2 10 5
q7 9 14 16t6 7q4 4 3 13q3 3 8 13q11 56 22 72q4 44 4 56q0 42 -22 103q-12 14 -12 89q-6 15 -7 27.5t-6.5 27t-8.5 19.5t-3.5 9.5t-4.5 11.5q-16 24 -49 -26l-17 -30q0 -2 -10 -37q-16 -56 -15.5 -62.5t-11.5 -41.5q-1 -3 -0.5 -14t-4 -30.5t-4.5 -44.5zM48 300l7 74
q0 6 4.5 18t5.5 15q0 2 2 7q0 27 15 47q23 53 35 79t26 43q1 5 21 16q41 22 77 22t69 -11q11 -2 29.5 -15t21.5 -14q17 -10 35.5 -42.5t20 -47.5t12 -47.5t10.5 -48t5.5 -46.5t4.5 -50q-6 -141 -36 -204q-6 -44 -23 -56l-2 -14q-1 -12 -11.5 -27t-26.5 -23q-3 -3 -40 -9
q-53 -10 -70 -10q-22 -7 -55.5 2.5t-38.5 10t-21.5 11t-21.5 16.5q-16 12 -19 19l-14 28q-13 13 -18 37.5t-10 31.5q-5 11 -9 23q1 7 1 25v10q-4 15 2 29q1 7 1.5 17.5t2.5 30.5v13q9 30 8 40z" />
    <glyph glyph-name="multiply" unicode="&#xd7;" horiz-adv-x="516" 
d="M359 96l-34 29q-22 13 -33.5 25t-16.5 16.5t-10 10t-10 10.5l-23 -23q-3 -11 -10.5 -18t-7.5 -10q-2 -11 -23 -32q-4 -5 -32 -8l-21 6q-2 0 -12 10q-7 3 -24 20q-3 9 -17 23q4 15 18 29l20 23q13 22 36 44l18 18l-54 58l-9 12q-15 14 -16 36t7 26q12 12 16 13.5t10 3.5
q10 2 28 -10l20 -14q8 -9 68 -58q58 53 78 73l12 9q14 15 36 16t26 -7q12 -12 13.5 -16t3.5 -10q2 -10 -10 -28l-14 -20q-9 -8 -67 -80q31 -26 43 -39q11 -3 18 -10.5t10 -7.5q11 -2 32 -23q5 -4 8 -32l-6 -21q0 -2 -10 -12q-3 -7 -20 -24q-9 -3 -23 -17q-11 3 -18 9z" />
    <glyph glyph-name="Oslash" unicode="&#xd8;" horiz-adv-x="488" 
d="M193 463q-26 -63 -41 -173q1 -4 -2 -29l101 160q26 37 33 53l47 48q-4 6 -13 14l-10 2q-16 2 -57 -22q-2 0 -16.5 -12t-17.5 -16q-3 -1 -11.5 -9t-12.5 -16zM298 145q36 75 36 77q0 3 5 20.5t6.5 25t3.5 12.5t2 23q2 1 7 45v30q0 8 -0.5 22.5t-0.5 20.5q-21 -29 -30 -46
l-12 -35l-29 -16q-4 -8 -4 -15l-13 -16q-4 -11 -19.5 -37.5t-18.5 -26.5q0 -1 -5 -7q-14 -19 -25 -44q-17 -19 -33 -58q0 -3 9 -13t15 -19q1 0 8 -6q17 -13 28 -8q1 0 11 5q0 3 12 6q1 0 6 8q2 0 8 7q0 3 6 8.5t10 9.5q-1 2 10 19q2 0 7 8zM440 545q3 -6 7 -16v-1q0 -2 1 -6
q6 -18 11 -59q8 -39 2 -84q0 -15 -2 -23q1 -11 -3 -33q3 -8 -6 -25q0 -12 -9 -43q3 -6 -17 -57t-51 -106q-14 -28 -45 -63q-6 -9 -29 -28q-25 -27 -46 -34q-3 -1 -15 -0.5t-15 3.5q-13 0 -16.5 2t-4.5 2q-5 2 -11.5 3.5t-13.5 4.5t-9 3t-3.5 1t-9 3t-39.5 18
q-29 -65 -67 -58q-12 3 -22 22.5t-3 46.5l8 22q0 20 21 61q-2 6 -2 10q-5 28 -8 62q-2 4 -2 14q-3 18 -3 34q-2 8 -2 21t-1 14t-1.5 24t0.5 24.5t2 18.5l2 52v18l2 40q0 5 3 20q2 2 6 29q8 34 11.5 40.5t5 10.5t4.5 8t10 18l18 27q0 2 6.5 8t10.5 7q2 6 8 7q7 2 21 11
q11 4 11 6q18 12 42 12l15 -1l29 -11q36 14 43 14q2 3 13 6h22l31 -7q11 -2 20 -12l14 -11l2 5q2 1 9 6.5t10 6.5l30 9q18 8 31.5 4t15.5 -11l5 -24q-1 -3 -14 -27l-15 -15z" />
    <glyph glyph-name="Ugrave" unicode="&#xd9;" horiz-adv-x="508" 
d="M167 857l16 1q47 -16 78 -56q16 -23 16 -26q29 -35 34 -51q6 -25 -6.5 -37.5t-25.5 -12.5q-39 6 -59 47q-11 10 -32 32q-19 20 -32 30q-19 14 -20 17q-21 7 -13 17q21 28 44 39zM65 85q-4 4 -7.5 19t-3 28t-2.5 34q1 4 1 22.5t-2 37t-1.5 30t-0.5 25.5q1 7 4 24
q-1 1 -1 25.5t4 39.5q0 28 5 61v17q7 43 9 61q1 22 6 36q-4 13 9 56q4 10 27 19l-1 -1q6 4 25 3t25.5 -4t23.5 -8q23 -6 12 -111q0 -10 -6 -50q0 -20 -3 -41v-19l-2 -25q0 -9 -0.5 -17t-1 -24.5t-3 -25.5t-2.5 -12q-3 -3 -4 -17q-1 -17 -6 -41q-5 -9 4 -105q2 -30 14 -39.5
t33 5.5q6 6 7 8l4 15q4 0 11 20l11 20l3 12q0 8 8.5 22.5t10.5 19.5l15 50l6 25q0 6 8 22q0 5 5 26q0 19 -1 27q1 0 1.5 6t5 19.5t4.5 33.5q0 3 9 20q0 26 19 69q-1 -1 0 2q1 4 1.5 6.5t1.5 5.5t1 6q-3 6 1 15t7 19t7 20l24 16q5 0 13.5 1.5t39.5 -0.5q12 -4 19 -22
q11 -17 3 -50q0 -7 -8 -49q0 -7 -6 -33t-8.5 -46.5t-5.5 -27.5q-2 -14 -1 -23l-6 -43q0 -16 -3 -48t-6.5 -49.5t9.5 -69.5l12 -65q0 -15 5 -25.5l5 -10.5v-5q28 -55 -19 -64q-23 -6 -28 -8.5t-21.5 2t-30.5 18.5q-4 6 -11 36q-3 6 -7 35q-3 3 -7 23q2 4 -4 13
q-7 -14 -10 -18q-7 -11 -8.5 -15.5t-7.5 -20.5l-18 -32q-21 -39 -52 -35q-1 1 -20 2q-4 4 -28 7q-4 1 -10 1.5t-16 1.5q-2 3 -15 11q-30 11 -41 30q-9 2 -13 14q-2 6 -13 28z" />
    <glyph glyph-name="Uacute" unicode="&#xda;" horiz-adv-x="508" 
d="M400 861l16 -1q23 -11 44 -39q8 -10 -13 -17q-1 -3 -11 -10q-22 -17 -42 -38t-31 -31q-20 -41 -59 -47q-13 0 -25.5 12.5t-6.5 37.5q5 16 34 51q0 3 16 26q31 40 78 56zM65 85q-4 4 -7.5 19t-3 28t-2.5 34q1 4 1 22.5t-2 37t-1.5 30t-0.5 25.5q1 7 4 24q-1 1 -1 25.5
t4 39.5q0 28 5 61v17q7 43 9 61q1 22 6 36q-4 13 9 56q4 10 27 19l-1 -1q6 4 25 3t25.5 -4t23.5 -8q23 -6 12 -111q0 -10 -6 -50q0 -20 -3 -41v-19l-2 -25q0 -9 -0.5 -17t-1 -24.5t-3 -25.5t-2.5 -12q-3 -3 -4 -17q-1 -17 -6 -41q-5 -9 4 -105q2 -30 14 -39.5t33 5.5
q6 6 7 8l4 15q4 0 11 20l11 20l3 12q0 8 8.5 22.5t10.5 19.5l15 50l6 25q0 6 8 22q0 5 5 26q0 19 -1 27q1 0 1.5 6t5 19.5t4.5 33.5q0 3 9 20q0 26 19 69q-1 -1 0 2q1 4 1.5 6.5t1.5 5.5t1 6q-3 6 1 15t7 19t7 20l24 16q5 0 13.5 1.5t39.5 -0.5q12 -4 19 -22q11 -17 3 -50
q0 -7 -8 -49q0 -7 -6 -33t-8.5 -46.5t-5.5 -27.5q-2 -14 -1 -23l-6 -43q0 -16 -3 -48t-6.5 -49.5t9.5 -69.5l12 -65q0 -15 5 -25.5l5 -10.5v-5q28 -55 -19 -64q-23 -6 -28 -8.5t-21.5 2t-30.5 18.5q-4 6 -11 36q-3 6 -7 35q-3 3 -7 23q2 4 -4 13q-7 -14 -10 -18
q-7 -11 -8.5 -15.5t-7.5 -20.5l-18 -32q-21 -39 -52 -35q-1 1 -20 2q-4 4 -28 7q-4 1 -10 1.5t-16 1.5q-2 3 -15 11q-30 11 -41 30q-9 2 -13 14q-2 6 -13 28z" />
    <glyph glyph-name="Ucircumflex" unicode="&#xdb;" horiz-adv-x="508" 
d="M260 842q25 0 32 -5q24 -16 49 -42q41 -43 53 -52.5t17.5 -21t4.5 -17.5t-5 -9.5t-12.5 -6t-15.5 -6.5t-31 3q-10 0 -22 21q-12 3 -24 17.5t-25 23.5q-6 9 -11 8.5t-9.5 -7.5t-10 -15t-8 -11.5t-4.5 -7.5q-6 -9 -8 -11q-16 -17 -46 -4q-9 2 -16.5 11.5t1.5 26.5
q0 5 34 47t38 46q5 8 19 12zM65 85q-4 4 -7.5 19t-3 28t-2.5 34q1 4 1 22.5t-2 37t-1.5 30t-0.5 25.5q1 7 4 24q-1 1 -1 25.5t4 39.5q0 28 5 61v17q7 43 9 61q1 22 6 36q-4 13 9 56q4 10 27 19l-1 -1q6 4 25 3t25.5 -4t23.5 -8q23 -6 12 -111q0 -10 -6 -50q0 -20 -3 -41v-19
l-2 -25q0 -9 -0.5 -17t-1 -24.5t-3 -25.5t-2.5 -12q-3 -3 -4 -17q-1 -17 -6 -41q-5 -9 4 -105q2 -30 14 -39.5t33 5.5q6 6 7 8l4 15q4 0 11 20l11 20l3 12q0 8 8.5 22.5t10.5 19.5l15 50l6 25q0 6 8 22q0 5 5 26q0 19 -1 27q1 0 1.5 6t5 19.5t4.5 33.5q0 3 9 20q0 26 19 69
q-1 -1 0 2q1 4 1.5 6.5t1.5 5.5t1 6q-3 6 1 15t7 19t7 20l24 16q5 0 13.5 1.5t39.5 -0.5q12 -4 19 -22q11 -17 3 -50q0 -7 -8 -49q0 -7 -6 -33t-8.5 -46.5t-5.5 -27.5q-2 -14 -1 -23l-6 -43q0 -16 -3 -48t-6.5 -49.5t9.5 -69.5l12 -65q0 -15 5 -25.5l5 -10.5v-5
q28 -55 -19 -64q-23 -6 -28 -8.5t-21.5 2t-30.5 18.5q-4 6 -11 36q-3 6 -7 35q-3 3 -7 23q2 4 -4 13q-7 -14 -10 -18q-7 -11 -8.5 -15.5t-7.5 -20.5l-18 -32q-21 -39 -52 -35q-1 1 -20 2q-4 4 -28 7q-4 1 -10 1.5t-16 1.5q-2 3 -15 11q-30 11 -41 30q-9 2 -13 14
q-2 6 -13 28z" />
    <glyph glyph-name="Udieresis" unicode="&#xdc;" horiz-adv-x="508" 
d="M200 710q-23 0 -46 14t-23 44q0 55 50 64q49 -17 55 -23l15 -34q-3 -21 -21 -43t-30 -22zM403 816q35 0 44 -38q0 -34 -21 -54.5t-39.5 -20.5t-46 17t-27.5 37q0 50 43 60q13 1 37 -3q0 2 10 2zM65 85q-4 4 -7.5 19t-3 28t-2.5 34q1 4 1 22.5t-2 37t-1.5 30t-0.5 25.5
q1 7 4 24q-1 1 -1 25.5t4 39.5q0 28 5 61v17q7 43 9 61q1 22 6 36q-4 13 9 56q4 10 27 19l-1 -1q6 4 25 3t25.5 -4t23.5 -8q23 -6 12 -111q0 -10 -6 -50q0 -20 -3 -41v-19l-2 -25q0 -9 -0.5 -17t-1 -24.5t-3 -25.5t-2.5 -12q-3 -3 -4 -17q-1 -17 -6 -41q-5 -9 4 -105
q2 -30 14 -39.5t33 5.5q6 6 7 8l4 15q4 0 11 20l11 20l3 12q0 8 8.5 22.5t10.5 19.5l15 50l6 25q0 6 8 22q0 5 5 26q0 19 -1 27q1 0 1.5 6t5 19.5t4.5 33.5q0 3 9 20q0 26 19 69q-1 -1 0 2q1 4 1.5 6.5t1.5 5.5t1 6q-3 6 1 15t7 19t7 20l24 16q5 0 13.5 1.5t39.5 -0.5
q12 -4 19 -22q11 -17 3 -50q0 -7 -8 -49q0 -7 -6 -33t-8.5 -46.5t-5.5 -27.5q-2 -14 -1 -23l-6 -43q0 -16 -3 -48t-6.5 -49.5t9.5 -69.5l12 -65q0 -15 5 -25.5l5 -10.5v-5q28 -55 -19 -64q-23 -6 -28 -8.5t-21.5 2t-30.5 18.5q-4 6 -11 36q-3 6 -7 35q-3 3 -7 23q2 4 -4 13
q-7 -14 -10 -18q-7 -11 -8.5 -15.5t-7.5 -20.5l-18 -32q-21 -39 -52 -35q-1 1 -20 2q-4 4 -28 7q-4 1 -10 1.5t-16 1.5q-2 3 -15 11q-30 11 -41 30q-9 2 -13 14q-2 6 -13 28z" />
    <glyph glyph-name="Yacute" unicode="&#xdd;" horiz-adv-x="457" 
d="M338 861l16 -1q23 -11 44 -39q8 -10 -13 -17q-1 -3 -11 -10q-22 -17 -42 -38t-31 -31q-20 -41 -59 -47q-13 0 -25.5 12.5t-6.5 37.5q5 16 34 51q0 3 16 26q31 40 78 56zM264 312q0 14 1 23q5 49 7.5 62t2.5 16v43q3 4 6 49q0 48 4 71q0 15 10 28q13 22 31 31h1
q15 4 30.5 -1t17.5 -5.5t5.5 -2t5 -2t4 -2t4 -3t3.5 -3t3 -3.5q10 -20 14 -132q3 -18 3 -57.5t-1 -53.5v-10q-2 -18 -2 -27v-7q0 -19 -3 -29q0 -23 -5 -43q0 -8 -4.5 -25.5t-4.5 -28.5q1 -5 -9 -42q2 -4 -7 -31q0 -11 -7 -25.5t-12 -28t-6 -15.5q-6 -31 -32 -67l-16 -16
q2 -2 -5 -9q-6 -7 -60 -36q-1 -1 -20.5 -6t-44.5 -5t-48 8q-14 3 -25 10q-5 5 -14 10q-5 0 -29 18q-4 3 -26 37q-7 16 -7.5 17.5t-3 6.5t-3.5 23q-2 40 27 40q30 0 56 -30q8 -8 10 -10.5t9.5 -9.5t12 -9t12 -5t14.5 -3t18.5 4.5t15.5 11.5q0 10 11.5 26t12.5 18q3 14 6 20
q6 17 10 45q2 2 -4 25q0 4 -16.5 9.5t-28.5 6.5q-20 -4 -51 20q-13 10 -16 15.5t-5.5 7.5t-4.5 7q-21 35 -21 45l-4 10q0 10 -8 18q0 2 -3 36q-7 26 -7 47v16l1 21q-2 8 1 32v38l1 15v21q1 1 1 10l1 10q0 10 1 16q0 42 44 49q34 3 46 -7q23 -20 20 -83q0 -18 -2 -30
q6 -19 3 -33q2 -7 2 -14v-15q0 -4 3.5 -37t7.5 -45q0 -13 4 -25q0 -8 11 -30q9 -45 34 -42q10 2 16 34q3 3 1 17z" />
    <glyph glyph-name="Thorn" unicode="&#xde;" horiz-adv-x="466" 
d="M184 393q1 -12 1 -19l1 -17l7 -156l-1 -18q2 -2 8 -2q19 0 35 9q3 6 23 16q0 2 10 7q9 11 15 14q1 2 4 4.5t5 3.5q4 3 16 28t12 39q2 0 4.5 11t2.5 22q2 10 0 23t-3 28q0 15 -6 33q-5 6 -7 17q-15 24 -41 33q-7 3 -20 2l-11 2q-23 0 -40.5 -4t-19.5 -5q0 -2 -2 -16l4 -5
l3 -23v-27zM68 386q-2 21 -2 27v1q-1 1 -1 6v7q0 9 -3 14q-32 14 -37 17q-13 12 -12 26q1 19 30 34q-1 0 7 7q0 2 8 5q-1 10 0 14q2 8 -6 46q-6 53 18 62q31 13 68 -17h8q7 -8 11 -22q8 -4 7 -14t4 -18t5 -15v-8h4q6 0 16 -2q14 0 32 -3q45 0 73 -9q13 -6 37.5 -10.5
t72.5 -35.5l11 -10q1 0 4.5 -3t6.5 -5q19 -33 22 -69q2 -7 1 -13v-14q6 -16 -1 -37l-5 -23q0 -3 -6 -26.5t-9 -30.5t-37 -46q-20 -20 -25 -27l-13 -20q-46 -64 -148 -58q-2 1 -15 1l1 -39l-1 -47v-15q0 -12 -1.5 -19.5t-2.5 -14.5q0 -14 -2 -17q-8 -17 -29 -17q-39 0 -43 5
q-3 0 -9 3t-17 8q-19 11 -21 65q-1 6 0 11q1 4 -1 47q-3 8 -3 14q8 66 8 77t2 15.5t2 52.5q0 54 -6 90l-1 15q0 14 -2 26v9z" />
    <glyph glyph-name="germandbls" unicode="&#xdf;" horiz-adv-x="500" 
d="M40 310l8 33q-3 19 4 24q3 6 1 27q1 3 1.5 12.5t6 22t10.5 34.5q2 2 4.5 8.5t4.5 9.5q5 23 7 27.5t3 11.5q2 12 5 18q4 20 11 33q9 17 9 20t12 14t20 14t19 10q4 1 10 5q15 8 19 8q18 8 47 1q45 -4 90 -24q10 -8 39.5 -13.5t38.5 -18t10 -45.5q9 -90 -59 -213
q-9 -19 -10 -25t4 -19q2 -17 10 -29q7 -19 53 -51q15 -16 35 -30q30 -37 36 -48t6 -35q-2 -94 -81 -115q-25 -7 -44.5 -3.5t-37.5 4.5t-23 2q-30 -1 -41.5 2t-25.5 14q-38 23 -39 57q-4 33 6 33q3 3 24.5 4t33.5 -2q8 1 15 -6.5t19 -26.5q17 -17 29.5 -17t18 10.5t5.5 16.5
t1 32q2 1 0.5 7t-1.5 7q-7 0 -10 16q0 11 -16 22.5t-16 18.5q-4 4 -17 10q-4 5 -13.5 11t-10.5 9.5t-7 5.5q-12 5 -19 8.5t-19 15.5q-11 19 0 43q-5 12 4 19l11 10q5 1 15.5 11.5t10.5 15t12 30.5q8 28 8 32q-4 11 8 36q14 14 17 45q14 65 -25 79.5t-61 -11.5
q-9 -9 -12.5 -15t-4.5 -7.5t-2.5 -6t-2 -6.5t-2 -8.5t-2.5 -9.5q-22 -67 -31 -146.5t-17 -93.5v-7l-1 -30q-9 -54 9 -223q1 -7 30 -151q10 -13 17 -17q20 2 10 -23q-14 -6 -36.5 0.5t-30.5 6t-15.5 5.5t-15.5 4.5t-24.5 6t-20.5 17.5l-7 35q0 17 -14 55q-16 92 -15 104t1 20
q0 7 -6 57q8 8 1 64q0 33 6 78v63z" />
    <glyph glyph-name="agrave" unicode="&#xe0;" horiz-adv-x="431" 
d="M238 287q-1 22 -10 33.5t-33 13.5q-7 -5 -18.5 -33.5t-14.5 -60.5q-10 -48 -10 -96q1 -49 16 -72q2 -4 4 -3q5 0 16 20q53 96 50 198zM106 657l16 1q47 -16 78 -56q16 -23 16 -26q29 -35 34 -51q6 -25 -6.5 -37.5t-25.5 -12.5q-39 6 -59 47q-11 10 -31 32q-20 20 -33 30
q-19 14 -20 17q-21 7 -13 17q21 28 44 39zM269 96l-15 -39q0 -2 -29 -43q-9 -19 -33.5 -21t-47.5 5q-31 11 -47 26t-31.5 50.5t-16.5 58.5q-5 33 -5 42v24q0 36 3 42q1 4 5 21q5 42 24 80q37 73 76 75h5q2 -1 6 -1h13q35 -3 43 -6q15 -4 26 -4l26 -5q12 1 31.5 -5t21 -9
t5.5 -22t5.5 -27.5t2.5 -17.5q8 -73 26 -136q1 -3 2 -9t7 -23.5t9 -29.5t11 -32q6 -15 18 -35q22 -31 -23 -48q-6 -2 -21 -2q-3 0 -19 10q-10 0 -19 11l-8 2q-7 7 -12 7q-2 2 -36 81q-3 -11 -3 -20z" />
    <glyph glyph-name="aacute" unicode="&#xe1;" horiz-adv-x="431" 
d="M312 661l16 -1q23 -11 44 -39q8 -10 -13 -17q-1 -3 -11 -10q-22 -17 -42 -38t-31 -31q-20 -41 -59 -47q-13 0 -25.5 12.5t-6.5 37.5q5 16 34 51q0 3 16 26q31 40 78 56zM238 287q-1 22 -10 33.5t-33 13.5q-7 -5 -18.5 -33.5t-14.5 -60.5q-10 -48 -10 -96q1 -49 16 -72
q2 -4 4 -3q5 0 16 20q53 96 50 198zM269 96l-15 -39q0 -2 -29 -43q-9 -19 -33.5 -21t-47.5 5q-31 11 -47 26t-31.5 50.5t-16.5 58.5q-5 33 -5 42v24q0 36 3 42q1 4 5 21q5 42 24 80q37 73 76 75h5q2 -1 6 -1h13q35 -3 43 -6q15 -4 26 -4l26 -5q12 1 31.5 -5t21 -9t5.5 -22
t5.5 -27.5t2.5 -17.5q8 -73 26 -136q1 -3 2 -9t7 -23.5t9 -29.5t11 -32q6 -15 18 -35q22 -31 -23 -48q-6 -2 -21 -2q-3 0 -19 10q-10 0 -19 11l-8 2q-7 7 -12 7q-2 2 -36 81q-3 -11 -3 -20z" />
    <glyph glyph-name="acircumflex" unicode="&#xe2;" horiz-adv-x="431" 
d="M238 287q-1 22 -10 33.5t-33 13.5q-7 -5 -18.5 -33.5t-14.5 -60.5q-10 -48 -10 -96q1 -49 16 -72q2 -4 4 -3q5 0 16 20q53 96 50 198zM203 642q25 0 33 -5q23 -16 48 -42q41 -43 53 -52.5t17.5 -21t4.5 -17.5t-5 -9.5t-12.5 -6t-15.5 -6.5t-31 3q-10 0 -22 21
q-12 3 -24 17.5t-25 23.5q-6 9 -11 8.5t-9.5 -7.5t-10 -15t-8 -11.5t-5.5 -7.5q-5 -9 -7 -11q-16 -17 -46 -4q-9 2 -16.5 11.5t1.5 26.5q0 5 34 47t38 46q5 8 19 12zM269 96l-15 -39q0 -2 -29 -43q-9 -19 -33.5 -21t-47.5 5q-31 11 -47 26t-31.5 50.5t-16.5 58.5
q-5 33 -5 42v24q0 36 3 42q1 4 5 21q5 42 24 80q37 73 76 75h5q2 -1 6 -1h13q35 -3 43 -6q15 -4 26 -4l26 -5q12 1 31.5 -5t21 -9t5.5 -22t5.5 -27.5t2.5 -17.5q8 -73 26 -136q1 -3 2 -9t7 -23.5t9 -29.5t11 -32q6 -15 18 -35q22 -31 -23 -48q-6 -2 -21 -2q-3 0 -19 10
q-10 0 -19 11l-8 2q-7 7 -12 7q-2 2 -36 81q-3 -11 -3 -20z" />
    <glyph glyph-name="atilde" unicode="&#xe3;" horiz-adv-x="431" 
d="M145 612l76 -5q11 -1 56 -8.5t50 -7.5t19.5 6t26.5 6q4 -5 4 -12q0 -25 -26.5 -50t-72.5 -25q-7 0 -28 4q-61 12 -151 12l-41 -10q-5 0 -5 21.5t15.5 42t76.5 26.5zM238 287q-1 22 -10 33.5t-33 13.5q-7 -5 -18.5 -33.5t-14.5 -60.5q-10 -48 -10 -96q1 -49 16 -72
q2 -4 4 -3q5 0 16 20q53 96 50 198zM269 96l-15 -39q0 -2 -29 -43q-9 -19 -33.5 -21t-47.5 5q-31 11 -47 26t-31.5 50.5t-16.5 58.5q-5 33 -5 42v24q0 36 3 42q1 4 5 21q5 42 24 80q37 73 76 75h5q2 -1 6 -1h13q35 -3 43 -6q15 -4 26 -4l26 -5q12 1 31.5 -5t21 -9t5.5 -22
t5.5 -27.5t2.5 -17.5q8 -73 26 -136q1 -3 2 -9t7 -23.5t9 -29.5t11 -32q6 -15 18 -35q22 -31 -23 -48q-6 -2 -21 -2q-3 0 -19 10q-10 0 -19 11l-8 2q-7 7 -12 7q-2 2 -36 81q-3 -11 -3 -20z" />
    <glyph glyph-name="adieresis" unicode="&#xe4;" horiz-adv-x="431" 
d="M329 616q35 0 44 -38q0 -34 -21 -54.5t-39.5 -20.5t-46 17t-27.5 37q0 50 43 60q13 1 37 -3q0 2 10 2zM126 510q-23 0 -46 14t-23 44q0 55 50 64q49 -17 55 -23l15 -34q-3 -21 -21 -43t-30 -22zM238 287q-1 22 -10 33.5t-33 13.5q-7 -5 -18.5 -33.5t-14.5 -60.5
q-10 -48 -10 -96q1 -49 16 -72q2 -4 4 -3q5 0 16 20q53 96 50 198zM269 96l-15 -39q0 -2 -29 -43q-9 -19 -33.5 -21t-47.5 5q-31 11 -47 26t-31.5 50.5t-16.5 58.5q-5 33 -5 42v24q0 36 3 42q1 4 5 21q5 42 24 80q37 73 76 75h5q2 -1 6 -1h13q35 -3 43 -6q15 -4 26 -4l26 -5
q12 1 31.5 -5t21 -9t5.5 -22t5.5 -27.5t2.5 -17.5q8 -73 26 -136q1 -3 2 -9t7 -23.5t9 -29.5t11 -32q6 -15 18 -35q22 -31 -23 -48q-6 -2 -21 -2q-3 0 -19 10q-10 0 -19 11l-8 2q-7 7 -12 7q-2 2 -36 81q-3 -11 -3 -20z" />
    <glyph glyph-name="aring" unicode="&#xe5;" horiz-adv-x="431" 
d="M239 605q-38 0 -57 -19t-21 -40q18 -31 52 -33q22 0 32 21q21 21 21 31.5t-9.5 25t-17.5 14.5zM238 287q-1 22 -10 33.5t-33 13.5q-7 -5 -18.5 -33.5t-14.5 -60.5q-10 -48 -10 -96q1 -49 16 -72q2 -4 4 -3q5 0 16 20q53 96 50 198zM208 669q24 0 59 -22q2 -2 17 -12
q28 -19 28 -28.5t5.5 -26.5t5.5 -22q0 -27 -16 -57q-22 -44 -46 -44q-74 0 -96 12q-13 6 -25.5 20.5t-17.5 19t-10 20t-5 37t7 43.5q1 2 12 15t20 31q5 14 62 14zM269 96l-15 -39q0 -2 -29 -43q-9 -19 -33.5 -21t-47.5 5q-31 11 -47 26t-31.5 50.5t-16.5 58.5q-5 33 -5 42
v24q0 36 3 42q1 4 5 21q5 42 24 80q37 73 76 75h5q2 -1 6 -1h13q35 -3 43 -6q15 -4 26 -4l26 -5q12 1 31.5 -5t21 -9t5.5 -22t5.5 -27.5t2.5 -17.5q8 -73 26 -136q1 -3 2 -9t7 -23.5t9 -29.5t11 -32q6 -15 18 -35q22 -31 -23 -48q-6 -2 -21 -2q-3 0 -19 10q-10 0 -19 11
l-8 2q-7 7 -12 7q-2 2 -36 81q-3 -11 -3 -20z" />
    <glyph glyph-name="ae" unicode="&#xe6;" horiz-adv-x="571" 
d="M438 320q4 15 -1 38q-7 6 -19 6q-15 0 -27 -28q-16 -24 -24 -53h-1q-11 -42 -11 -45q16 -4 26 -3.5t23 10.5q23 22 34 75zM238 287q-1 22 -10 33.5t-33 13.5q-7 -5 -18.5 -33.5t-14.5 -60.5q-10 -48 -10 -96q1 -49 16 -72q2 -4 4 -3q5 0 16 20q53 96 50 198zM435 176
l-37 -3q-31 0 -49 6l3 -19q3 -83 46 -109q12 -5 20 -5t21 8q4 4 7 11q1 9 10 8q41 52 62 41q21 -14 21 -22q0 -4 -5 -9v-6q0 -10 -12.5 -36t-26.5 -44q-7 -15 -18 -21q-32 -20 -68 -16q-8 1 -11 4q-8 2 -12 1l-8 1q-9 0 -15 4q-10 6 -14 6q-26 10 -31.5 15t-9.5 7t-19 21
q-13 11 -15 14q-6 9 -10 13q-7 7 -7 19l-3 -8q0 -2 -29 -43q-9 -19 -33.5 -21t-47.5 5q-31 11 -47 26t-31.5 50.5t-16.5 58.5q-5 33 -5 42v24q0 36 3 42q1 4 5 21q5 42 24 80q37 73 76 75h5q2 -1 6 -1h13q35 -3 43 -6q15 -4 26 -4l26 -5q12 1 23.5 -3t15.5 -4l3 6l13 12
q6 9 18 13q14 7 21 7l28 4q5 -1 7 -1h13q22 -2 36 -9q30 -9 44 -23q31 -35 31 -67t-10 -55q-25 -57 -36 -72q-18 -33 -43 -33z" />
    <glyph glyph-name="ccedilla" unicode="&#xe7;" horiz-adv-x="360" 
d="M58 295q0 15 7.5 33.5t12.5 23.5q2 3 22 32l17 21l13 8q7 5 27 5h2q29 7 66.5 -2t52.5 -32q23 -42 28 -91q6 -26 1 -48q0 -2 -7 -18q-3 -3 -20 -7q-7 -7 -22.5 -7t-16.5 9q-3 1 -9.5 7t-6.5 9l-9 13q-9 18 -7 28q5 26 3 28q0 15 -10 30q-1 1 -4 1q-6 2 -10 9
q-7 -2 -15 -11q-14 -38 -17 -55q-6 -44 -6 -58v-46q2 -36 8 -44q0 -4 4 -14q1 -16 26 -52q5 -14 16 -14q14 0 38 37l10 15q14 19 44 15q13 -2 13 -15q1 -9 -6 -45q-6 -6 -10 -20l-13 -23q-19 -27 -25 -27q-2 -2 -26 -7l27 -42q21 -45 24 -65.5t-19 -51.5q-18 -28 -68 -31
q-25 -3 -77 19q-2 2 -10.5 8.5t-13.5 11.5q-12 12 -12 34.5t11.5 39.5t26.5 17q20 0 20 -20q0 -10 -1 -16q4 -6 8 -19t8.5 -18t6.5 -5h5q16 0 35 15q5 9 5 34t-14 35l-11 22q-7 11 -21.5 25t-20.5 18q-19 12 -27 15t-13 8l-6 18q-13 0 -21 13q0 7 -12 31l-5 15l-3 18v18
l-12 78v14l9 34q-1 22 10 39z" />
    <glyph glyph-name="egrave" unicode="&#xe8;" horiz-adv-x="380" 
d="M247 320q4 15 -1 38q-7 6 -19 6q-15 0 -27 -28q-16 -24 -24 -53h-1q-11 -42 -11 -45q16 -4 26 -3.5t23 10.5q23 22 34 75zM121 657l16 1q47 -16 78 -56q16 -23 16 -26q29 -35 34 -51q6 -25 -6.5 -37.5t-25.5 -12.5q-39 6 -59 47q-11 10 -32 32q-19 20 -32 30
q-19 14 -20 17q-21 7 -13 17q21 28 44 39zM244 176l-37 -3q-31 0 -49 6l3 -19q3 -83 46 -109q12 -5 20 -5t21 8q4 4 7 11q1 9 10 8q41 52 62 41q21 -14 21 -22q0 -4 -5 -9v-6q0 -10 -12.5 -36t-26.5 -44q-7 -15 -18 -21q-32 -20 -68 -16q-8 1 -11 4q-8 2 -12 1l-8 1
q-9 0 -15 4q-10 6 -14 6q-26 10 -31.5 15t-9.5 7t-19 21q-13 11 -15 14q-6 9 -10.5 13t-5.5 18q-4 5 -4 13l-4 8q0 7 -6 11q-6 6 -6 15v8q-4 2 -2 12v26l-1 9v7q-1 4 2 17l-1 9q1 1 3 16q4 21 9 26v9q1 3 1 8t2.5 11t15.5 45l16 35q7 15 22 33q1 5 8 18l13 12q6 9 18 13
q14 7 21 7l28 4q5 -1 7 -1h13q22 -2 36 -9q30 -9 44 -23q31 -35 31 -67t-10 -55q-25 -57 -36 -72q-18 -33 -43 -33z" />
    <glyph glyph-name="eacute" unicode="&#xe9;" horiz-adv-x="380" 
d="M247 320q4 15 -1 38q-7 6 -19 6q-15 0 -27 -28q-16 -24 -24 -53h-1q-11 -42 -11 -45q16 -4 26 -3.5t23 10.5q23 22 34 75zM327 661l16 -1q23 -11 44 -39q8 -10 -13 -17q-1 -3 -11 -10q-22 -17 -42 -38t-31 -31q-20 -41 -59 -47q-13 0 -25.5 12.5t-6.5 37.5q5 16 34 51
q0 3 16 26q31 40 78 56zM244 176l-37 -3q-31 0 -49 6l3 -19q3 -83 46 -109q12 -5 20 -5t21 8q4 4 7 11q1 9 10 8q41 52 62 41q21 -14 21 -22q0 -4 -5 -9v-6q0 -10 -12.5 -36t-26.5 -44q-7 -15 -18 -21q-32 -20 -68 -16q-8 1 -11 4q-8 2 -12 1l-8 1q-9 0 -15 4q-10 6 -14 6
q-26 10 -31.5 15t-9.5 7t-19 21q-13 11 -15 14q-6 9 -10.5 13t-5.5 18q-4 5 -4 13l-4 8q0 7 -6 11q-6 6 -6 15v8q-4 2 -2 12v26l-1 9v7q-1 4 2 17l-1 9q1 1 3 16q4 21 9 26v9q1 3 1 8t2.5 11t15.5 45l16 35q7 15 22 33q1 5 8 18l13 12q6 9 18 13q14 7 21 7l28 4q5 -1 7 -1
h13q22 -2 36 -9q30 -9 44 -23q31 -35 31 -67t-10 -55q-25 -57 -36 -72q-18 -33 -43 -33z" />
    <glyph glyph-name="ecircumflex" unicode="&#xea;" horiz-adv-x="380" 
d="M247 320q4 15 -1 38q-7 6 -19 6q-15 0 -27 -28q-16 -24 -24 -53h-1q-11 -42 -11 -45q16 -4 26 -3.5t23 10.5q23 22 34 75zM218 642q25 0 32 -5q24 -16 49 -42q41 -43 53 -52.5t17.5 -21t4.5 -17.5t-5 -9.5t-12.5 -6t-15.5 -6.5t-31 3q-10 0 -22 21q-12 3 -24 17.5
t-25 23.5q-6 9 -11 8.5t-9.5 -7.5t-10 -15t-8 -11.5t-4.5 -7.5q-6 -9 -8 -11q-16 -17 -46 -4q-9 2 -16.5 11.5t1.5 26.5q0 5 34 47t38 46q5 8 19 12zM244 176l-37 -3q-31 0 -49 6l3 -19q3 -83 46 -109q12 -5 20 -5t21 8q4 4 7 11q1 9 10 8q41 52 62 41q21 -14 21 -22
q0 -4 -5 -9v-6q0 -10 -12.5 -36t-26.5 -44q-7 -15 -18 -21q-32 -20 -68 -16q-8 1 -11 4q-8 2 -12 1l-8 1q-9 0 -15 4q-10 6 -14 6q-26 10 -31.5 15t-9.5 7t-19 21q-13 11 -15 14q-6 9 -10.5 13t-5.5 18q-4 5 -4 13l-4 8q0 7 -6 11q-6 6 -6 15v8q-4 2 -2 12v26l-1 9v7
q-1 4 2 17l-1 9q1 1 3 16q4 21 9 26v9q1 3 1 8t2.5 11t15.5 45l16 35q7 15 22 33q1 5 8 18l13 12q6 9 18 13q14 7 21 7l28 4q5 -1 7 -1h13q22 -2 36 -9q30 -9 44 -23q31 -35 31 -67t-10 -55q-25 -57 -36 -72q-18 -33 -43 -33z" />
    <glyph glyph-name="edieresis" unicode="&#xeb;" horiz-adv-x="380" 
d="M247 320q4 15 -1 38q-7 6 -19 6q-15 0 -27 -28q-16 -24 -24 -53h-1q-11 -42 -11 -45q16 -4 26 -3.5t23 10.5q23 22 34 75zM141 510q-23 0 -46 14t-23 44q0 55 50 64q49 -17 55 -23l15 -34q-3 -21 -21 -43t-30 -22zM344 616q35 0 44 -38q0 -34 -21 -54.5t-39.5 -20.5
t-46 17t-27.5 37q0 50 43 60q13 1 37 -3q0 2 10 2zM244 176l-37 -3q-31 0 -49 6l3 -19q3 -83 46 -109q12 -5 20 -5t21 8q4 4 7 11q1 9 10 8q41 52 62 41q21 -14 21 -22q0 -4 -5 -9v-6q0 -10 -12.5 -36t-26.5 -44q-7 -15 -18 -21q-32 -20 -68 -16q-8 1 -11 4q-8 2 -12 1l-8 1
q-9 0 -15 4q-10 6 -14 6q-26 10 -31.5 15t-9.5 7t-19 21q-13 11 -15 14q-6 9 -10.5 13t-5.5 18q-4 5 -4 13l-4 8q0 7 -6 11q-6 6 -6 15v8q-4 2 -2 12v26l-1 9v7q-1 4 2 17l-1 9q1 1 3 16q4 21 9 26v9q1 3 1 8t2.5 11t15.5 45l16 35q7 15 22 33q1 5 8 18l13 12q6 9 18 13
q14 7 21 7l28 4q5 -1 7 -1h13q22 -2 36 -9q30 -9 44 -23q31 -35 31 -67t-10 -55q-25 -57 -36 -72q-18 -33 -43 -33z" />
    <glyph glyph-name="igrave" unicode="&#xec;" horiz-adv-x="227" 
d="M4 657l16 1q47 -16 78 -56q16 -23 16 -26q29 -35 34 -51q6 -25 -6.5 -37.5t-25.5 -12.5q-39 6 -59 47q-11 10 -31 32q-20 20 -33 30q-19 14 -20 17q-21 7 -13 17q21 28 44 39zM55 361q0 30 37 30h15q2 0 32 -10q4 -4 12 -8l20 -26v-88q0 -14 -1 -36q-4 -46 4 -191
q2 -18 -13 -34q-17 0 -22 5q-4 2 -18 1t-32 19q-11 4 -12 15l-8 15q-5 6 -8 18.5t-7 96.5q0 15 2 23v24q1 11 2 40.5t3 47.5q-2 26 -2 35t-4 23z" />
    <glyph glyph-name="iacute" unicode="&#xed;" horiz-adv-x="227" 
d="M210 661l16 -1q23 -11 44 -39q8 -10 -13 -17q-1 -3 -11 -10q-22 -17 -42 -38t-31 -31q-20 -41 -59 -47q-13 0 -25.5 12.5t-6.5 37.5q5 16 34 51q0 3 16 26q31 40 78 56zM55 361q0 30 37 30h15q2 0 32 -10q4 -4 12 -8l20 -26v-88q0 -14 -1 -36q-4 -46 4 -191
q2 -18 -13 -34q-17 0 -22 5q-4 2 -18 1t-32 19q-11 4 -12 15l-8 15q-5 6 -8 18.5t-7 96.5q0 15 2 23v24q1 11 2 40.5t3 47.5q-2 26 -2 35t-4 23z" />
    <glyph glyph-name="icircumflex" unicode="&#xee;" horiz-adv-x="227" 
d="M101 642q25 0 33 -5q23 -16 48 -42q41 -43 53 -52.5t17.5 -21t4.5 -17.5t-5 -9.5t-12.5 -6t-15.5 -6.5t-31 3q-10 0 -22 21q-12 3 -24 17.5t-25 23.5q-6 9 -11 8.5t-9.5 -7.5t-10 -15t-8 -11.5t-5.5 -7.5q-5 -9 -7 -11q-16 -17 -46 -4q-9 2 -16.5 11.5t1.5 26.5
q0 5 34 47t38 46q5 8 19 12zM55 361q0 30 37 30h15q2 0 32 -10q4 -4 12 -8l20 -26v-88q0 -14 -1 -36q-4 -46 4 -191q2 -18 -13 -34q-17 0 -22 5q-4 2 -18 1t-32 19q-11 4 -12 15l-8 15q-5 6 -8 18.5t-7 96.5q0 15 2 23v24q1 11 2 40.5t3 47.5q-2 26 -2 35t-4 23z" />
    <glyph glyph-name="idieresis" unicode="&#xef;" horiz-adv-x="227" 
d="M34 510q-23 0 -46 14t-23 44q0 55 50 64q49 -17 55 -23l15 -34q-3 -21 -21 -43t-30 -22zM217 616q35 0 44 -38q0 -34 -21 -54.5t-39.5 -20.5t-46 17t-27.5 37q0 50 43 60q13 1 37 -3q0 2 10 2zM55 361q0 30 37 30h15q2 0 32 -10q4 -4 12 -8l20 -26v-88q0 -14 -1 -36
q-4 -46 4 -191q2 -18 -13 -34q-17 0 -22 5q-4 2 -18 1t-32 19q-11 4 -12 15l-8 15q-5 6 -8 18.5t-7 96.5q0 15 2 23v24q1 11 2 40.5t3 47.5q-2 26 -2 35t-4 23z" />
    <glyph glyph-name="eth" unicode="&#xf0;" horiz-adv-x="383" 
d="M253 160q9 55 6.5 92.5t-23.5 65.5q-4 4 -27.5 -3.5t-30.5 -14.5q-22 -29 -26.5 -39.5t-7.5 -16.5q-10 -20 -11 -23q-10 -39 -9 -65q-3 -11 9 -35t19 -30.5t24.5 -15.5t24.5 -10q9 1 21 9.5t12 12.5q18 42 19 73zM47 52q-7 23 -13 21q-5 8 -5 20q-13 105 0 129
q2 10 10 35t10 27q9 9 28 34t21 26l17 6q36 32 109 32q-6 54 -38 96q-16 -9 -39.5 -20.5t-32.5 -16.5q-23 -19 -52 -2q-9 -4 -32 0.5t-25 8.5q-6 11 7.5 22.5t36 22t28 14t11.5 6.5t9.5 4t12.5 6t15 8q14 7 1 24q-7 2 -9 13t-6.5 19.5t-5.5 12.5q-15 18 -12.5 28t20.5 10
q30 4 40 0.5t24 -14.5t20.5 -15.5t12 -8t7.5 -6t12 -9.5q2 1 10 4.5t14 7.5q9 10 35 21q50 22 85 10.5t37 -22.5q0 -8 -18 -16.5t-42 -22.5t-29 -14q0 -4 -12 -14q-13 -4 -15 -7q-4 0 -14 -3.5t-10 -5.5q30 -38 50 -89l22 -55q31 -85 22 -138q0 -44 -2.5 -54.5t-5 -31
t-3.5 -27t-4 -19.5q-7 -31 -49 -83q-16 -38 -53 -44q-49 -6 -108 9q-5 2 -14 2q-7 -2 -20 9q-4 0 -14 5q-8 -1 -18 6t-10 15t-6 9q-2 1 -6 6.5t-4 8.5z" />
    <glyph glyph-name="ntilde" unicode="&#xf1;" horiz-adv-x="444" 
d="M152 612l76 -5q11 -1 56 -8.5t50 -7.5t19.5 6t26.5 6q4 -5 4 -12q0 -25 -26.5 -50t-72.5 -25q-7 0 -27 4q-62 12 -152 12l-41 -10q-5 0 -5 21.5t15.5 42t76.5 26.5zM280 37l-6 17l-11 67q-5 19 -5 34l4 44q0 11 1 12q-12 0 -36 -29q-2 -3 -6 -10q-42 -67 -50 -161
q-8 -17 -21 -17q-27 6 -30 6l-7 -1h-13q-23 2 -30 18q-4 5 -4 26v14l-3 55v82q0 14 -2 35q-2 23 -1 72.5t-1 53t-2 9.5t3 12t27 13q13 8 22 8q14 -3 36 -12q15 -3 15 -29q2 -43 0.5 -62t0.5 -77q74 142 132 171q5 5 15 5t23 -10t18 -13t11.5 -10t10.5 -9q12 -20 5 -94
q-1 -11 -2 -19.5t-1 -36.5t1 -39q3 -35 3 -41l5 -38q10 -23 10.5 -35.5t17.5 -39.5q7 -15 -6 -24q-20 -10 -21.5 -8.5t-11.5 -2t-36 -1.5q-13 3 -26 16l-15 15q-8 12 -11 26q-5 5 -3 8z" />
    <glyph glyph-name="ograve" unicode="&#xf2;" horiz-adv-x="383" 
d="M82 657l16 1q47 -16 78 -56q16 -23 16 -26q29 -35 34 -51q6 -25 -6.5 -37.5t-25.5 -12.5q-39 6 -59 47q-11 10 -31 32q-20 20 -33 30q-19 14 -20 17q-21 7 -13 17q21 28 44 39zM228 295q-7 40 -39 37q-18 -1 -31 -24q-18 -35 -15.5 -90.5t8 -80t19.5 -42.5q8 -14 24 -13
q28 0 41 47l8 24q5 5 2 10q10 25 11 59q-10 7 -12 13q-6 17 -6 23q-7 5 -8 19t-2 18zM45 201l4 51q7 69 42 118q34 41 96 42h6q58 0 84 -25q28 -22 41.5 -48t17.5 -38t5 -35q2 -43 -17 -49q14 -95 -17 -151q-10 -23 -29 -50q-14 -18 -50 -20q-36 0 -62.5 4t-58.5 25.5
t-45 70.5q-14 47 -17 105z" />
    <glyph glyph-name="oacute" unicode="&#xf3;" horiz-adv-x="383" 
d="M288 661l16 -1q23 -11 44 -39q8 -10 -13 -17q-1 -3 -11 -10q-22 -17 -42 -38t-31 -31q-20 -41 -59 -47q-13 0 -25.5 12.5t-6.5 37.5q5 16 34 51q0 3 16 26q31 40 78 56zM228 295q-7 40 -39 37q-18 -1 -31 -24q-18 -35 -15.5 -90.5t8 -80t19.5 -42.5q8 -14 24 -13
q28 0 41 47l8 24q5 5 2 10q10 25 11 59q-10 7 -12 13q-6 17 -6 23q-7 5 -8 19t-2 18zM45 201l4 51q7 69 42 118q34 41 96 42h6q58 0 84 -25q28 -22 41.5 -48t17.5 -38t5 -35q2 -43 -17 -49q14 -95 -17 -151q-10 -23 -29 -50q-14 -18 -50 -20q-36 0 -62.5 4t-58.5 25.5
t-45 70.5q-14 47 -17 105z" />
    <glyph glyph-name="ocircumflex" unicode="&#xf4;" horiz-adv-x="383" 
d="M179 642q25 0 33 -5q23 -16 48 -42q41 -43 53 -52.5t17.5 -21t4.5 -17.5t-5 -9.5t-12.5 -6t-15.5 -6.5t-31 3q-10 0 -22 21q-12 3 -24 17.5t-25 23.5q-6 9 -11 8.5t-9.5 -7.5t-10 -15t-8 -11.5t-5.5 -7.5q-5 -9 -7 -11q-16 -17 -46 -4q-9 2 -16.5 11.5t1.5 26.5
q0 5 34 47t38 46q5 8 19 12zM228 295q-7 40 -39 37q-18 -1 -31 -24q-18 -35 -15.5 -90.5t8 -80t19.5 -42.5q8 -14 24 -13q28 0 41 47l8 24q5 5 2 10q10 25 11 59q-10 7 -12 13q-6 17 -6 23q-7 5 -8 19t-2 18zM45 201l4 51q7 69 42 118q34 41 96 42h6q58 0 84 -25
q28 -22 41.5 -48t17.5 -38t5 -35q2 -43 -17 -49q14 -95 -17 -151q-10 -23 -29 -50q-14 -18 -50 -20q-36 0 -62.5 4t-58.5 25.5t-45 70.5q-14 47 -17 105z" />
    <glyph glyph-name="otilde" unicode="&#xf5;" horiz-adv-x="383" 
d="M121 612l76 -5q11 -1 56 -8.5t50 -7.5t19.5 6t26.5 6q4 -5 4 -12q0 -25 -26.5 -50t-72.5 -25q-7 0 -28 4q-61 12 -151 12l-41 -10q-5 0 -5 21.5t15.5 42t76.5 26.5zM228 295q-7 40 -39 37q-18 -1 -31 -24q-18 -35 -15.5 -90.5t8 -80t19.5 -42.5q8 -14 24 -13q28 0 41 47
l8 24q5 5 2 10q10 25 11 59q-10 7 -12 13q-6 17 -6 23q-7 5 -8 19t-2 18zM45 201l4 51q7 69 42 118q34 41 96 42h6q58 0 84 -25q28 -22 41.5 -48t17.5 -38t5 -35q2 -43 -17 -49q14 -95 -17 -151q-10 -23 -29 -50q-14 -18 -50 -20q-36 0 -62.5 4t-58.5 25.5t-45 70.5
q-14 47 -17 105z" />
    <glyph glyph-name="odieresis" unicode="&#xf6;" horiz-adv-x="383" 
d="M305 616q35 0 44 -38q0 -34 -21 -54.5t-39.5 -20.5t-46 17t-27.5 37q0 50 43 60q13 1 37 -3q0 2 10 2zM102 510q-23 0 -46 14t-23 44q0 55 50 64q49 -17 55 -23l15 -34q-3 -21 -21 -43t-30 -22zM228 295q-7 40 -39 37q-18 -1 -31 -24q-18 -35 -15.5 -90.5t8 -80
t19.5 -42.5q8 -14 24 -13q28 0 41 47l8 24q5 5 2 10q10 25 11 59q-10 7 -12 13q-6 17 -6 23q-7 5 -8 19t-2 18zM45 201l4 51q7 69 42 118q34 41 96 42h6q58 0 84 -25q28 -22 41.5 -48t17.5 -38t5 -35q2 -43 -17 -49q14 -95 -17 -151q-10 -23 -29 -50q-14 -18 -50 -20
q-36 0 -62.5 4t-58.5 25.5t-45 70.5q-14 47 -17 105z" />
    <glyph glyph-name="divide" unicode="&#xf7;" horiz-adv-x="516" 
d="M236 142l22 -1q18 -5 39 -15q3 -4 3 -29t-2.5 -31t-16.5 -16h-1l-14 -1h-1l-7 1q-31 0 -53 11q-12 0 -20 6q-2 -1 -1 3q0 4 3 20q9 11 11.5 27t13.5 18q4 0 17 6zM265 542l26 -4q1 2 15 0q25 -10 27 -28q4 -39 1 -49q-7 -23 -7 -31q0 -21 -36 -19q-45 12 -47 18
q-1 1 -15 7q-14 11 -13 33.5t28 58.5q0 10 14 12zM58 315q16 8 34.5 8t28.5 2h1q24 6 57 6l229 -6l15 -2q20 0 35 -14t15 -20.5t-0.5 -13t-1 -9.5t-2.5 -7.5t-5 -6.5q-8 -7 -48 -14q-14 0 -66.5 -5.5t-78.5 -6.5q-8 -3 -46.5 -6.5t-55.5 -2.5q-10 -5 -20.5 -4.5t-13.5 -2.5
q-8 -6 -38 -6q-6 0 -28 17l-11 19q-1 1 -1 16q-3 8 -3 31q4 6 4 28z" />
    <glyph glyph-name="oslash" unicode="&#xf8;" horiz-adv-x="383" 
d="M227 300q-10 34 -33 32.5t-36 -24.5q-18 -35 -15 -97q0 -18 1 -27l49 62q0 12 34 54zM252 248q-56 -93 -94 -134q4 -9 12 -19q8 -14 24 -13q28 0 41 47l8 24q5 5 2 10q10 25 11 49t-4 36zM45 201l4 51q7 69 42 118q34 41 96 42h6q58 0 84 -25l14 -13q8 8 18 19.5t14 15.5
q18 20 41 23q24 -3 27 -12q5 -12 -6 -25t-62 -64q17 -30 17 -60q-12 -135 -17 -160q-9 -43 -45 -95q-14 -18 -50 -20q-36 0 -62.5 4t-46 17t-27.5 23l-20 -28q-10 -13 -29 -23t-31 -9q-11 15 -6.5 30.5t23.5 44.5q9 8 35 34q-2 4 -2 7q-14 47 -17 105z" />
    <glyph glyph-name="ugrave" unicode="&#xf9;" horiz-adv-x="439" 
d="M146 657l16 1q47 -16 78 -56q16 -23 16 -26q29 -35 34 -51q6 -25 -6.5 -37.5t-25.5 -12.5q-39 6 -59 47q-11 10 -31 32q-20 20 -33 30q-19 14 -20 17q-21 7 -13 17q21 28 44 39zM366 277l1 -19q0 -3 6 -63v-12q0 -24 8 -72q0 -21 21 -73q5 -3 7 -14l-1 -10q2 -5 -5 -11
q0 -7 -19 -7t-24 -2t-16 2q-4 -2 -24 8q-9 2 -14 18l-8 19q0 18 -10 32q0 5 -4.5 18t-6.5 14q-10 -40 -25 -62q0 -5 -6 -12l-10 -19q0 -2 -9 -11q-6 -13 -27 -13q-19 0 -46 10q-7 1 -28 9q-6 -1 -18.5 3.5t-14.5 4.5q-3 3 -14 10l-17 18q-1 1 -3.5 9.5t-1.5 12t0 10.5t1 14
q0 20 4 44q-1 3 -1 7t4 15q-1 5 -1 7l5 39q0 14 1 20v15q1 4 1 11l5 48q0 11 1 14v10q2 2 2 16l9 28l7 12q1 4 11 9q16 10 46 10q12 -2 26 -10q3 1 14 -4q20 -9 2 -51q-4 -27 -4 -28q-4 -8 -4 -13q-6 -32 -6 -34q4 4 -3 -12l-4 -37q-7 -24 -6 -53l-4 -13q1 -5 -1 -31
q2 -3 2 -7l1 -8q-1 -3 1 -5.5t11.5 -2t16.5 4.5q14 17 19 35.5t5 21.5q17 43 21 50q5 27 17 62q-2 5 0 20l13 53q9 15 9 18.5t12 27.5q0 4 6 16q7 11 25 21h3q22 2 38 -6q2 -4 2 -14q2 -10 4 -36v-10l-4 -22q8 -25 2 -50z" />
    <glyph glyph-name="uacute" unicode="&#xfa;" horiz-adv-x="439" 
d="M352 661l16 -1q23 -11 44 -39q8 -10 -13 -17q-1 -3 -11 -10q-22 -17 -42 -38t-31 -31q-20 -41 -59 -47q-13 0 -25.5 12.5t-6.5 37.5q5 16 34 51q0 3 16 26q31 40 78 56zM366 277l1 -19q0 -3 6 -63v-12q0 -24 8 -72q0 -21 21 -73q5 -3 7 -14l-1 -10q2 -5 -5 -11
q0 -7 -19 -7t-24 -2t-16 2q-4 -2 -24 8q-9 2 -14 18l-8 19q0 18 -10 32q0 5 -4.5 18t-6.5 14q-10 -40 -25 -62q0 -5 -6 -12l-10 -19q0 -2 -9 -11q-6 -13 -27 -13q-19 0 -46 10q-7 1 -28 9q-6 -1 -18.5 3.5t-14.5 4.5q-3 3 -14 10l-17 18q-1 1 -3.5 9.5t-1.5 12t0 10.5t1 14
q0 20 4 44q-1 3 -1 7t4 15q-1 5 -1 7l5 39q0 14 1 20v15q1 4 1 11l5 48q0 11 1 14v10q2 2 2 16l9 28l7 12q1 4 11 9q16 10 46 10q12 -2 26 -10q3 1 14 -4q20 -9 2 -51q-4 -27 -4 -28q-4 -8 -4 -13q-6 -32 -6 -34q4 4 -3 -12l-4 -37q-7 -24 -6 -53l-4 -13q1 -5 -1 -31
q2 -3 2 -7l1 -8q-1 -3 1 -5.5t11.5 -2t16.5 4.5q14 17 19 35.5t5 21.5q17 43 21 50q5 27 17 62q-2 5 0 20l13 53q9 15 9 18.5t12 27.5q0 4 6 16q7 11 25 21h3q22 2 38 -6q2 -4 2 -14q2 -10 4 -36v-10l-4 -22q8 -25 2 -50z" />
    <glyph glyph-name="ucircumflex" unicode="&#xfb;" horiz-adv-x="439" 
d="M243 642q25 0 33 -5q23 -16 48 -42q41 -43 53 -52.5t17.5 -21t4.5 -17.5t-5 -9.5t-12.5 -6t-15.5 -6.5t-31 3q-10 0 -22 21q-12 3 -24 17.5t-25 23.5q-6 9 -11 8.5t-9.5 -7.5t-10 -15t-8 -11.5t-5.5 -7.5q-5 -9 -7 -11q-16 -17 -46 -4q-9 2 -16.5 11.5t1.5 26.5
q0 5 34 47t38 46q5 8 19 12zM366 277l1 -19q0 -3 6 -63v-12q0 -24 8 -72q0 -21 21 -73q5 -3 7 -14l-1 -10q2 -5 -5 -11q0 -7 -19 -7t-24 -2t-16 2q-4 -2 -24 8q-9 2 -14 18l-8 19q0 18 -10 32q0 5 -4.5 18t-6.5 14q-10 -40 -25 -62q0 -5 -6 -12l-10 -19q0 -2 -9 -11
q-6 -13 -27 -13q-19 0 -46 10q-7 1 -28 9q-6 -1 -18.5 3.5t-14.5 4.5q-3 3 -14 10l-17 18q-1 1 -3.5 9.5t-1.5 12t0 10.5t1 14q0 20 4 44q-1 3 -1 7t4 15q-1 5 -1 7l5 39q0 14 1 20v15q1 4 1 11l5 48q0 11 1 14v10q2 2 2 16l9 28l7 12q1 4 11 9q16 10 46 10q12 -2 26 -10
q3 1 14 -4q20 -9 2 -51q-4 -27 -4 -28q-4 -8 -4 -13q-6 -32 -6 -34q4 4 -3 -12l-4 -37q-7 -24 -6 -53l-4 -13q1 -5 -1 -31q2 -3 2 -7l1 -8q-1 -3 1 -5.5t11.5 -2t16.5 4.5q14 17 19 35.5t5 21.5q17 43 21 50q5 27 17 62q-2 5 0 20l13 53q9 15 9 18.5t12 27.5q0 4 6 16
q7 11 25 21h3q22 2 38 -6q2 -4 2 -14q2 -10 4 -36v-10l-4 -22q8 -25 2 -50z" />
    <glyph glyph-name="udieresis" unicode="&#xfc;" horiz-adv-x="439" 
d="M369 616q35 0 44 -38q0 -34 -21 -54.5t-39.5 -20.5t-46 17t-27.5 37q0 50 43 60q13 1 37 -3q0 2 10 2zM166 510q-23 0 -46 14t-23 44q0 55 50 64q49 -17 55 -23l15 -34q-3 -21 -21 -43t-30 -22zM366 277l1 -19q0 -3 6 -63v-12q0 -24 8 -72q0 -21 21 -73q5 -3 7 -14
l-1 -10q2 -5 -5 -11q0 -7 -19 -7t-24 -2t-16 2q-4 -2 -24 8q-9 2 -14 18l-8 19q0 18 -10 32q0 5 -4.5 18t-6.5 14q-10 -40 -25 -62q0 -5 -6 -12l-10 -19q0 -2 -9 -11q-6 -13 -27 -13q-19 0 -46 10q-7 1 -28 9q-6 -1 -18.5 3.5t-14.5 4.5q-3 3 -14 10l-17 18q-1 1 -3.5 9.5
t-1.5 12t0 10.5t1 14q0 20 4 44q-1 3 -1 7t4 15q-1 5 -1 7l5 39q0 14 1 20v15q1 4 1 11l5 48q0 11 1 14v10q2 2 2 16l9 28l7 12q1 4 11 9q16 10 46 10q12 -2 26 -10q3 1 14 -4q20 -9 2 -51q-4 -27 -4 -28q-4 -8 -4 -13q-6 -32 -6 -34q4 4 -3 -12l-4 -37q-7 -24 -6 -53
l-4 -13q1 -5 -1 -31q2 -3 2 -7l1 -8q-1 -3 1 -5.5t11.5 -2t16.5 4.5q14 17 19 35.5t5 21.5q17 43 21 50q5 27 17 62q-2 5 0 20l13 53q9 15 9 18.5t12 27.5q0 4 6 16q7 11 25 21h3q22 2 38 -6q2 -4 2 -14q2 -10 4 -36v-10l-4 -22q8 -25 2 -50z" />
    <glyph glyph-name="yacute" unicode="&#xfd;" horiz-adv-x="411" 
d="M302 661l16 -1q23 -11 44 -39q8 -10 -13 -17q-1 -3 -11 -10q-22 -17 -42 -38t-31 -31q-20 -41 -59 -47q-13 0 -25.5 12.5t-6.5 37.5q5 16 34 51q0 3 16 26q31 40 78 56zM157 315q0 -16 -1.5 -28t-1.5 -15q0 -31 -2.5 -45.5t-2.5 -23.5v-45q0 -58 4 -69.5t14 -15.5
q11 -3 17 1.5t11.5 14t9 22t10.5 27t8.5 21t8.5 16.5q14 54 16 125v32q2 40 15 67q7 16 41 26l15 1q20 0 26 -6q6 -29 1 -82v-69q2 -50 2 -69q-1 -7 1 -118q-1 -1 0 -26q1 -16 -2.5 -70t-3.5 -65q-11 -61 -24.5 -84t-36.5 -40q-16 -16 -57 -22q-3 1 -16 1q-60 6 -78 24
q-53 27 -61.5 39.5t-10.5 23.5t6 37q15 19 39 7q10 -5 36 -20l33 -16q7 -6 14 -1q10 6 12 6q17 14 33 44q0 10 10 30q0 20 12 59v11q0 15 2 25.5t2 16.5q-8 -15 -13 -28t-12 -22q-1 -6 -21 -12l-37 -1q0 1 -6 1l-15 1q-53 0 -67 14q-7 9 -17 17q-9 11 -11 28q-3 3 -4 17v11
l-2 12q1 2 -2 14q-2 12 -2 39v12q0 89 2 93q3 6 3 11q-2 5 1 11l2 14l10 31q0 4 6 25q6 6 7 14q4 19 4.5 26t8.5 19q12 9 35.5 6.5t40.5 -20.5l-11 -44q1 -7 1 -12z" />
    <glyph glyph-name="thorn" unicode="&#xfe;" horiz-adv-x="419" 
d="M296 294l-9 26v1q-2 2 -13 2q-26 0 -30 -3q-15 -11 -30 -19q-1 -1 -21 -20l-9 -21q-5 -46 -4 -52q-6 -35 -4 -42t1 -14.5t-4 -32.5q2 -9 1 -31t1 -27q9 0 23 12q2 -1 10.5 7.5t12.5 16.5q2 1 6 6q7 8 10 13q5 1 8 9q0 5 12 21q25 44 29 74v6q2 6 2 11l4 14q0 5 2 7z
M108 535l7 59l1 31q0 13 5 20l15 21q15 13 24.5 16.5t22.5 0.5t17 -7l11 -9q9 -5 9 -16q5 -6 3 -9q-6 -7 -20 -118l-8 -136l-4 -19l1 -2q20 20 63 20q7 -1 16 3t23 5l8 -2q7 0 19 -6t27 -11l9 -9l13 -9q11 -3 11 -11l2 -8q10 -13 7 -31q9 -21 3 -60q-2 -57 -12 -87l-6 -9
l-28 -56q-16 -22 -31 -33q-2 -9 -29 -26l-12 -8q-18 -15 -72 -29q-8 -2 -12.5 -2t-8.5 -1h-16q3 -1 1 -9v-13l1 -25q-2 -7 -2 -21t1 -18l-3 -28v-29q-6 -21 -5 -28.5t-1 -11.5q2 -4 2 -9t-4.5 -16.5t-6 -14t-2.5 -2.5q-2 -1 -13 -9l-6 -1q-32 0 -47.5 11t-17.5 43
q2 2 -0.5 8t-5.5 17q0 6 -3 14l2 22q-3 32 -2.5 36.5t1 8.5t-1 16.5t4.5 40.5q-2 8 0 33q5 28 5 52q3 6 3 16v14q1 1 1 7l1 6q0 7 3.5 34t6 37t4 36.5t0.5 33.5q-2 7 6 43q-2 10 -2 36l4 19v26q1 41 4 44l-1 9q0 24 7.5 65.5t7.5 44.5z" />
    <glyph glyph-name="ydieresis" unicode="&#xff;" horiz-adv-x="411" 
d="M116 510q-23 0 -46 14t-23 44q0 55 50 64q49 -17 55 -23l15 -34q-3 -21 -21 -43t-30 -22zM319 616q35 0 44 -38q0 -34 -21 -54.5t-39.5 -20.5t-46 17t-27.5 37q0 50 43 60q13 1 37 -3q0 2 10 2zM157 315q0 -16 -1.5 -28t-1.5 -15q0 -31 -2.5 -45.5t-2.5 -23.5v-45
q0 -58 4 -69.5t14 -15.5q11 -3 17 1.5t11.5 14t9 22t10.5 27t8.5 21t8.5 16.5q14 54 16 125v32q2 40 15 67q7 16 41 26l15 1q20 0 26 -6q6 -29 1 -82v-69q2 -50 2 -69q-1 -7 1 -118q-1 -1 0 -26q1 -16 -2.5 -70t-3.5 -65q-11 -61 -24.5 -84t-36.5 -40q-16 -16 -57 -22
q-3 1 -16 1q-60 6 -78 24q-53 27 -61.5 39.5t-10.5 23.5t6 37q15 19 39 7q10 -5 36 -20l33 -16q7 -6 14 -1q10 6 12 6q17 14 33 44q0 10 10 30q0 20 12 59v11q0 15 2 25.5t2 16.5q-8 -15 -13 -28t-12 -22q-1 -6 -21 -12l-37 -1q0 1 -6 1l-15 1q-53 0 -67 14q-7 9 -17 17
q-9 11 -11 28q-3 3 -4 17v11l-2 12q1 2 -2 14q-2 12 -2 39v12q0 89 2 93q3 6 3 11q-2 5 1 11l2 14l10 31q0 4 6 25q6 6 7 14q4 19 4.5 26t8.5 19q12 9 35.5 6.5t40.5 -20.5l-11 -44q1 -7 1 -12z" />
    <glyph glyph-name="Amacron" unicode="&#x100;" horiz-adv-x="467" 
d="M164 805q34 4 68 4q32 0 84 -4t56 -5q39 -11 38.5 -16.5t-1 -13t-1.5 -9.5q-3 -6 -25 -10q-25 -5 -39 -5h-16q-2 0 -9 -2t-23 -2h-23q-8 -1 -31 -3q-11 -7 -24 -4q-6 -3 -30.5 -6.5t-43 -3.5t-38.5 14l-13 8l-5 21q0 16 3 29q13 4 35.5 5t36.5 3h1zM190 270q2 2 23.5 4.5
t50.5 17.5q1 0 -1 24q-3 42 -5 60q-2 24 -4 34q0 19 -15 79l-44 -149q-14 -62 -11 -76zM55 241l6 44q0 13 4 26q0 17 17 51q0 2 9 26q0 2 19 59l12 29q0 4 5 15.5t7.5 23t6.5 22.5q14 27 25 46q21 40 78 36l32 -3q30 -8 46 -17q23 -9 31 -19.5t7 -34.5q1 -12 6 -104t5 -93
l5 -43q0 -6 22 -144l22 -70q20 -56 21.5 -58.5t8.5 -21.5q11 -33 -19 -44q-27 -4 -40 5q-5 0 -23 9q-2 5 -11.5 9.5t-12.5 7.5q-11 3 -20 31q-3 2 -11 16q-7 14 -4 23q-7 9 -7 37q-9 15 -9 47t-10 50q-51 -23 -109 -25q-11 0 -11 -4q0 -9 -6 -32l-17 -110q10 -74 -18 -78
q-8 0 -26.5 -4t-30.5 7q-23 13 -32.5 26.5t-8.5 30.5q1 14 5 60q2 2 1.5 22.5t2.5 31.5l16 62q3 2 8 30q-1 2 -1 10z" />
    <glyph glyph-name="amacron" unicode="&#x101;" horiz-adv-x="431" 
d="M238 287q-1 22 -10 33.5t-33 13.5q-7 -5 -18.5 -33.5t-14.5 -60.5q-10 -48 -10 -96q1 -49 16 -72q2 -4 4 -3q5 0 16 20q53 96 50 198zM129 605q34 4 68 4q31 0 83.5 -4t56.5 -5q39 -11 38.5 -16.5t-1 -13t-1.5 -9.5q-3 -6 -25 -10q-25 -5 -39 -5h-16q-2 0 -9 -2t-23 -2
h-23q-8 -1 -31 -3q-11 -7 -24 -4q-6 -3 -30.5 -6.5t-43 -3.5t-38.5 14l-13 8l-5 21q0 16 3 29q13 4 35.5 5t36.5 3h1zM269 96l-15 -39q0 -2 -29 -43q-9 -19 -33.5 -21t-47.5 5q-31 11 -47 26t-31.5 50.5t-16.5 58.5q-5 33 -5 42v24q0 36 3 42q1 4 5 21q5 42 24 80
q37 73 76 75h5q2 -1 6 -1h13q35 -3 43 -6q15 -4 26 -4l26 -5q12 1 31.5 -5t21 -9t5.5 -22t5.5 -27.5t2.5 -17.5q8 -73 26 -136q1 -3 2 -9t7 -23.5t9 -29.5t11 -32q6 -15 18 -35q22 -31 -23 -48q-6 -2 -21 -2q-3 0 -19 10q-10 0 -19 11l-8 2q-7 7 -12 7q-2 2 -36 81
q-3 -11 -3 -20z" />
    <glyph glyph-name="Abreve" unicode="&#x102;" horiz-adv-x="467" 
d="M190 270q2 2 23.5 4.5t50.5 17.5q1 0 -1 24q-3 42 -5 60q-2 24 -4 34q0 19 -15 79l-44 -149q-14 -62 -11 -76zM386 806q0 -19 -21 -63q-41 -49 -63 -56.5t-64.5 -2.5t-59.5 19q-45 35 -48.5 37.5t-8.5 20.5t-6 32q-2 34 12 40q10 3 29 1q31 -5 33 -16q1 -6 0 -16t0.5 -18
t12.5 -16.5t20 -10.5t22.5 -3.5t30.5 6t27.5 26t9.5 30.5q11 11 26.5 10.5t22.5 -6.5q25 -11 25 -14zM55 241l6 44q0 13 4 26q0 17 17 51q0 2 9 26q0 2 19 59l12 29q0 4 5 15.5t7.5 23t6.5 22.5q14 27 25 46q21 40 78 36l32 -3q30 -8 46 -17q23 -9 31 -19.5t7 -34.5
q1 -12 6 -104t5 -93l5 -43q0 -6 22 -144l22 -70q20 -56 21.5 -58.5t8.5 -21.5q11 -33 -19 -44q-27 -4 -40 5q-5 0 -23 9q-2 5 -11.5 9.5t-12.5 7.5q-11 3 -20 31q-3 2 -11 16q-7 14 -4 23q-7 9 -7 37q-9 15 -9 47t-10 50q-51 -23 -109 -25q-11 0 -11 -4q0 -9 -6 -32
l-17 -110q10 -74 -18 -78q-8 0 -26.5 -4t-30.5 7q-23 13 -32.5 26.5t-8.5 30.5q1 14 5 60q2 2 1.5 22.5t2.5 31.5l16 62q3 2 8 30q-1 2 -1 10z" />
    <glyph glyph-name="abreve" unicode="&#x103;" horiz-adv-x="431" 
d="M351 606q0 -19 -21 -63q-41 -49 -63 -56.5t-64.5 -2.5t-59.5 19q-45 35 -48.5 37.5t-8.5 20.5t-6 32q-2 34 12 40q10 3 29 1q31 -5 33 -16q1 -6 0 -16t0.5 -18t12.5 -16.5t20 -10.5t22.5 -3.5t30.5 6t27.5 26t9.5 30.5q11 11 26.5 10.5t22.5 -6.5q25 -11 25 -14zM238 287
q-1 22 -10 33.5t-33 13.5q-7 -5 -18.5 -33.5t-14.5 -60.5q-10 -48 -10 -96q1 -49 16 -72q2 -4 4 -3q5 0 16 20q53 96 50 198zM269 96l-15 -39q0 -2 -29 -43q-9 -19 -33.5 -21t-47.5 5q-31 11 -47 26t-31.5 50.5t-16.5 58.5q-5 33 -5 42v24q0 36 3 42q1 4 5 21q5 42 24 80
q37 73 76 75h5q2 -1 6 -1h13q35 -3 43 -6q15 -4 26 -4l26 -5q12 1 31.5 -5t21 -9t5.5 -22t5.5 -27.5t2.5 -17.5q8 -73 26 -136q1 -3 2 -9t7 -23.5t9 -29.5t11 -32q6 -15 18 -35q22 -31 -23 -48q-6 -2 -21 -2q-3 0 -19 10q-10 0 -19 11l-8 2q-7 7 -12 7q-2 2 -36 81
q-3 -11 -3 -20z" />
    <glyph glyph-name="Aogonek" unicode="&#x104;" horiz-adv-x="467" 
d="M190 270q2 2 23.5 4.5t50.5 17.5q1 0 -1 24q-3 42 -5 60q-2 24 -4 34q0 19 -15 79l-44 -149q-14 -62 -11 -76zM55 241l6 44q0 13 4 26q0 17 17 51q0 2 9 26q0 2 19 59l12 29q0 4 5 15.5t7.5 23t6.5 22.5q14 27 25 46q21 40 78 36l32 -3q30 -8 46 -17q23 -9 31 -19.5
t7 -34.5q1 -12 6 -104t5 -93l5 -43q0 -6 22 -144l22 -70q20 -56 21.5 -58.5t8.5 -21.5q11 -33 -19 -44l-11 -1q-32 -16 -39 -26l-22 -16q-7 -2 -16 -11t-9 -12t-3 -9q-6 -14 -3 -26q8 -37 56 -22q19 5 28 13q27 18 39 -4t-1 -39q-25 -33 -68.5 -33t-75.5 18q-43 20 -51 53
q-3 14 -3 27q0 25 5 28q15 28 48 53l30 20q2 3 15 13l-6 5q-11 3 -20 31q-3 2 -11 16q-7 14 -4 23q-7 9 -7 37q-9 15 -9 47t-10 50q-51 -23 -109 -25q-11 0 -11 -4q0 -9 -6 -32l-17 -110q10 -74 -18 -78q-8 0 -26.5 -4t-30.5 7q-23 13 -32.5 26.5t-8.5 30.5q1 14 5 60
q2 2 1.5 22.5t2.5 31.5l16 62q3 2 8 30q-1 2 -1 10z" />
    <glyph glyph-name="aogonek" unicode="&#x105;" horiz-adv-x="431" 
d="M238 287q-1 22 -10 33.5t-33 13.5q-7 -5 -18.5 -33.5t-14.5 -60.5q-10 -48 -10 -96q1 -49 16 -72q2 -4 4 -3q5 0 16 20q53 96 50 198zM269 96l-15 -39q0 -2 -29 -43q-9 -19 -33.5 -21t-47.5 5q-31 11 -47 26t-31.5 50.5t-16.5 58.5q-5 33 -5 42v24q0 36 3 42q1 4 5 21
q5 42 24 80q37 73 76 75h5q2 -1 6 -1h13q35 -3 43 -6q15 -4 26 -4l26 -5q12 1 31.5 -5t21 -9t5.5 -22t5.5 -27.5t2.5 -17.5q8 -73 26 -136q1 -3 2 -9t7 -23.5t9 -29.5t11 -32q6 -15 18 -35q17 -25 -9 -42l-46 -28l-22 -16q-7 -2 -16 -11t-9 -12t-3 -10q-6 -13 -3 -25
q8 -37 56 -23q19 6 28 14q27 18 39 -4t-1 -39q-25 -33 -68.5 -33t-75.5 18q-43 20 -51 53q-3 14 -3 27q0 26 5 28q15 28 48 53l30 20l7 6q-6 4 -8 4q-2 2 -36 81q-3 -11 -3 -20z" />
    <glyph glyph-name="Cacute" unicode="&#x106;" horiz-adv-x="443" 
d="M358 861l16 -1q23 -11 44 -39q8 -10 -13 -17q-1 -3 -11 -10q-22 -17 -42 -38t-31 -31q-20 -41 -59 -47q-13 0 -25.5 12.5t-6.5 37.5q5 16 34 51q0 3 16 26q31 40 78 56zM187 612q14 6 58 4.5t63 -8.5l25 -8q31 -21 35 -21q41 -32 47 -84q6 -22 2 -40q0 -6 -4 -26l-10 -23
l-12 -17q-6 -1 -7 -1q-37 -6 -57 -1.5t-35 21.5q-3 6 -3 11q1 5 3 9l5 16q13 32 -2 54q0 3 -10 11t-15.5 12t-19.5 1q-24 -10 -41 -61q-20 -26 -28 -68q-12 -75 -12 -85l-1 -22v-9q-2 -2 2 -87q1 -5 4 -14q3 -11 9 -36l13 -22q5 -3 13 -18q5 0 8 -7q7 -7 6 -8q5 -1 15 -6
q27 -14 47 6q7 7 17.5 19.5t16 20t17.5 14.5q33 25 57 -2q5 -8 1.5 -38.5t-28.5 -63.5q-2 -6 -13 -19.5t-23 -21.5q-2 -7 -76 -10q-4 0 -16 2q-11 -3 -29.5 3t-20.5 6l-13 3q-8 0 -16 5t-26.5 17.5t-28.5 20.5q-30 24 -43 55q-4 7 -5 19.5t-4 18.5q-8 8 -7.5 26t-2.5 44
q0 12 1 14q-5 5 -4 17.5t1 34.5q3 6 2.5 35.5t1.5 44.5q-4 9 -1 26l1 30q1 18 9 38q1 9 4 21.5t26 50.5q0 8 15 20q0 4 8 12t18 20q14 17 31 25t32 19z" />
    <glyph glyph-name="cacute" unicode="&#x107;" horiz-adv-x="360" 
d="M277 661l16 -1q23 -11 44 -39q8 -10 -13 -17q-1 -3 -11 -10q-22 -17 -42 -38t-31 -31q-20 -41 -59 -47q-13 0 -25.5 12.5t-6.5 37.5q5 16 34 51q0 3 16 26q31 40 78 56zM71 334q0 13 13 22v2q0 7 15.5 25t17.5 22q22 13 29 15q8 -2 11 -2h2q29 7 66.5 -2t52.5 -32
q8 -15 16 -40q12 -35 12 -51q6 -26 1 -48l-1 -10q0 -4 -5 -8t-11.5 -3.5t-11.5 -5t-20.5 -5.5t-16.5 9q-3 1 -9.5 7t-6.5 9l-5 7q0 2 -4 6q-9 18 -7 28q5 26 3 28q0 15 -10 30q-1 1 -3.5 1.5t-6.5 1.5q-2 7 -4 7q-7 -2 -15 -11q-14 -39 -17 -52l-6 -61v-46q2 -36 8 -44
q0 -4 4 -14q1 -13 21 -46l5 -6q5 -14 17 -14t34 28q-1 3 13 24q14 19 44 15q13 -2 13 -15q1 -9 -6 -45q-10 -10 -10 -20q-7 -18 -7 -20q-3 0 -6 -3l-5 -10q-4 0 -5 -4q-11 -13 -15 -13q-3 -3 -16 -3q-19 -8 -28 -8l-17 -1l-11 4l-9 1q-12 5 -18.5 4.5t-9.5 1t-8 5.5
q-12 10 -15.5 10t-11.5 6q-8 2 -13 7l-4 10q2 7 -2 8q-13 0 -15 5l-6 8q0 8 -8 21l-12 36q-2 2 0 7v18l-12 78v14q9 33 9 34q-1 22 10 39q0 19 13 39z" />
    <glyph glyph-name="Ccircumflex" unicode="&#x108;" horiz-adv-x="443" 
d="M218 842q25 0 32 -5q24 -16 49 -42q41 -43 53 -52.5t17.5 -21t4.5 -17.5t-5 -9.5t-12.5 -6t-15.5 -6.5t-31 3q-10 0 -22 21q-12 3 -24 17.5t-25 23.5q-6 9 -11 8.5t-9.5 -7.5t-10 -15t-8 -11.5t-4.5 -7.5q-6 -9 -8 -11q-16 -17 -46 -4q-9 2 -16.5 11.5t1.5 26.5
q0 5 34 47t38 46q5 8 19 12zM187 612q14 6 58 4.5t63 -8.5l25 -8q31 -21 35 -21q41 -32 47 -84q6 -22 2 -40q0 -6 -4 -26l-10 -23l-12 -17q-6 -1 -7 -1q-37 -6 -57 -1.5t-35 21.5q-3 6 -3 11q1 5 2 9l6 16q13 32 -2 54q0 3 -10 11t-15.5 12t-19.5 1q-24 -10 -41 -61
q-20 -26 -28 -68q-12 -75 -12 -85l-1 -22v-9q-2 -2 2 -87q1 -5 4 -14q3 -11 9 -36l13 -22q5 -3 13 -18q5 0 8 -7q7 -7 6 -8q5 -1 15 -6q27 -14 47 6q7 7 17.5 19.5t16 20t17.5 14.5q33 25 57 -2q5 -8 1.5 -38.5t-28.5 -63.5q-2 -6 -13 -19.5t-23 -21.5q-2 -7 -76 -10
q-4 0 -16 2q-11 -3 -29.5 3t-20.5 6l-13 3q-8 0 -16 5t-26.5 17.5t-28.5 20.5q-30 24 -43 55q-4 7 -5 19.5t-4 18.5q-8 8 -7.5 26t-2.5 44q0 12 1 14q-5 5 -4 17.5t1 34.5q3 6 2.5 35.5t1.5 44.5q-4 9 -1 26l1 30q1 18 9 38q1 9 4 21.5t26 50.5q0 8 15 20q0 4 8 12t18 20
q14 17 31 25t32 19z" />
    <glyph glyph-name="ccircumflex" unicode="&#x109;" horiz-adv-x="360" 
d="M168 642q25 0 32 -5q24 -16 49 -42q41 -43 53 -52.5t17.5 -21t4.5 -17.5t-5 -9.5t-12.5 -6t-15.5 -6.5t-31 3q-10 0 -22 21q-12 3 -24 17.5t-25 23.5q-6 9 -11 8.5t-9.5 -7.5t-10 -15t-8 -11.5t-4.5 -7.5q-6 -9 -8 -11q-16 -17 -46 -4q-9 2 -16.5 11.5t1.5 26.5
q0 5 34 47t38 46q5 8 19 12zM71 334q0 13 13 22v2q0 7 15.5 25t17.5 22q22 13 29 15q8 -2 11 -2h2q29 7 66.5 -2t52.5 -32q8 -15 16 -40q12 -35 12 -51q6 -26 1 -48l-1 -10q0 -4 -5 -8t-11.5 -3.5t-11.5 -5t-20.5 -5.5t-16.5 9q-3 1 -9.5 7t-6.5 9l-5 7q0 2 -4 6
q-9 18 -7 28q5 26 3 28q0 15 -10 30q-1 1 -3.5 1.5t-6.5 1.5q-2 7 -4 7q-7 -2 -15 -11q-14 -39 -17 -52l-6 -61v-46q2 -36 8 -44q0 -4 4 -14q1 -13 21 -46l5 -6q5 -14 17 -14t34 28q-1 3 13 24q14 19 44 15q13 -2 13 -15q1 -9 -6 -45q-10 -10 -10 -20q-7 -18 -7 -20
q-3 0 -6 -3l-5 -10q-4 0 -5 -4q-11 -13 -15 -13q-3 -3 -16 -3q-19 -8 -28 -8l-17 -1l-11 4l-9 1q-12 5 -18.5 4.5t-9.5 1t-8 5.5q-12 10 -15.5 10t-11.5 6q-8 2 -13 7l-4 10q2 7 -2 8q-13 0 -15 5l-6 8q0 8 -8 21l-12 36q-2 2 0 7v18l-12 78v14q9 33 9 34q-1 22 10 39
q0 19 13 39z" />
    <glyph glyph-name="Cdotaccent" unicode="&#x10a;" horiz-adv-x="443" 
d="M270 820q39 0 48 -42q0 -37 -22.5 -58t-42 -21t-48.5 18t-29 40q0 55 47 64q13 1 37 -3q0 2 10 2zM187 612q14 6 58 4.5t63 -8.5l25 -8q31 -21 35 -21q41 -32 47 -84q6 -22 2 -40q0 -6 -4 -26l-10 -23l-12 -17q-6 -1 -7 -1q-37 -6 -57 -1.5t-35 21.5q-3 6 -3 11q1 5 3 9
l5 16q13 32 -2 54q0 3 -10 11t-15.5 12t-19.5 1q-24 -10 -41 -61q-20 -26 -28 -68q-12 -75 -12 -85l-1 -22v-9q-2 -2 2 -87q1 -5 4 -14q3 -11 9 -36l13 -22q5 -3 13 -18q5 0 8 -7q7 -7 6 -8q5 -1 15 -6q27 -14 47 6q7 7 17.5 19.5t16 20t17.5 14.5q33 25 57 -2
q5 -8 1.5 -38.5t-28.5 -63.5q-2 -6 -13 -19.5t-23 -21.5q-2 -7 -76 -10q-4 0 -16 2q-11 -3 -29.5 3t-20.5 6l-13 3q-8 0 -16 5t-26.5 17.5t-28.5 20.5q-30 24 -43 55q-4 7 -5 19.5t-4 18.5q-8 8 -7.5 26t-2.5 44q0 12 1 14q-5 5 -4 17.5t1 34.5q3 6 2.5 35.5t1.5 44.5
q-4 9 -1 26l1 30q1 18 9 38q1 9 4 21.5t26 50.5q0 8 15 20q0 4 8 12t18 20q14 17 31 25t32 19z" />
    <glyph glyph-name="cdotaccent" unicode="&#x10b;" horiz-adv-x="360" 
d="M203 620q39 0 48 -42q0 -37 -22.5 -58t-42 -21t-48.5 18t-29 40q0 55 47 64q13 1 37 -3q0 2 10 2zM71 334q0 13 13 22v2q0 7 15.5 25t17.5 22q22 13 29 15q8 -2 11 -2h2q29 7 66.5 -2t52.5 -32q8 -15 16 -40q12 -35 12 -51q6 -26 1 -48l-1 -10q0 -4 -5 -8t-11.5 -3.5
t-11.5 -5t-20.5 -5.5t-16.5 9q-3 1 -9.5 7t-6.5 9l-5 7q0 2 -4 6q-9 18 -7 28q5 26 3 28q0 15 -10 30q-1 1 -3.5 1.5t-6.5 1.5q-2 7 -4 7q-7 -2 -15 -11q-14 -39 -17 -52l-6 -61v-46q2 -36 8 -44q0 -4 4 -14q1 -13 21 -46l5 -6q5 -14 17 -14t34 28q-1 3 13 24q14 19 44 15
q13 -2 13 -15q1 -9 -6 -45q-10 -10 -10 -20q-7 -18 -7 -20q-3 0 -6 -3l-5 -10q-4 0 -5 -4q-11 -13 -15 -13q-3 -3 -16 -3q-19 -8 -28 -8l-17 -1l-11 4l-9 1q-12 5 -18.5 4.5t-9.5 1t-8 5.5q-12 10 -15.5 10t-11.5 6q-8 2 -13 7l-4 10q2 7 -2 8q-13 0 -15 5l-6 8q0 8 -8 21
l-12 36q-2 2 0 7v18l-12 78v14q9 33 9 34q-1 22 10 39q0 19 13 39z" />
    <glyph glyph-name="Ccaron" unicode="&#x10c;" horiz-adv-x="443" 
d="M272 688h-1q-21 -8 -37 -8q-14 4 -19 12q-8 8 -33 40q-39 50 -39 53q-9 17 -1.5 26.5t16.5 11.5q34 15 49 -8q2 -3 4.5 -7t4.5 -8q14 -18 18 -26q10 -15 21 1q13 9 25 23.5t24 17.5q12 21 22 21q24 7 31 3t15 -6q26 -8 14 -34q-6 -11 -14 -18q-16 -12 -35 -32
q-59 -62 -65 -62zM187 612q14 6 58 4.5t63 -8.5l25 -8q31 -21 35 -21q41 -32 47 -84q6 -22 2 -40q0 -6 -4 -26l-10 -23l-12 -17q-6 -1 -7 -1q-37 -6 -57 -1.5t-35 21.5q-3 6 -3 11q1 5 2 9l6 16q13 32 -2 54q0 3 -10 11t-15.5 12t-19.5 1q-24 -10 -41 -61q-20 -26 -28 -68
q-12 -75 -12 -85l-1 -22v-9q-2 -2 2 -87q1 -5 4 -14q3 -11 9 -36l13 -22q5 -3 13 -18q5 0 8 -7q7 -7 6 -8q5 -1 15 -6q27 -14 47 6q7 7 17.5 19.5t16 20t17.5 14.5q33 25 57 -2q5 -8 1.5 -38.5t-28.5 -63.5q-2 -6 -13 -19.5t-23 -21.5q-2 -7 -76 -10q-4 0 -16 2
q-11 -3 -29.5 3t-20.5 6l-13 3q-8 0 -16 5t-26.5 17.5t-28.5 20.5q-30 24 -43 55q-4 7 -5 19.5t-4 18.5q-8 8 -7.5 26t-2.5 44q0 12 1 14q-5 5 -4 17.5t1 34.5q3 6 2.5 35.5t1.5 44.5q-4 9 -1 26l1 30q1 18 9 38q1 9 4 21.5t26 50.5q0 8 15 20q0 4 8 12t18 20q14 17 31 25
t32 19z" />
    <glyph glyph-name="ccaron" unicode="&#x10d;" horiz-adv-x="360" 
d="M208 488h-1q-21 -8 -37 -8q-14 4 -19 12q-8 8 -33 40q-39 50 -39 53q-9 17 -1.5 26.5t16.5 11.5q34 15 49 -8q2 -3 4.5 -7t4.5 -8q14 -18 18 -26q10 -15 21 1q13 9 25 23.5t24 17.5q12 21 22 21q24 7 31 3t15 -6q26 -8 14 -34q-6 -11 -14 -18q-16 -12 -35 -32
q-59 -62 -65 -62zM71 334q0 13 13 22v2q0 7 15.5 25t17.5 22q22 13 29 15q8 -2 11 -2h2q29 7 66.5 -2t52.5 -32q8 -15 16 -40q12 -35 12 -51q6 -26 1 -48l-1 -10q0 -4 -5 -8t-11.5 -3.5t-11.5 -5t-20.5 -5.5t-16.5 9q-3 1 -9.5 7t-6.5 9l-5 7q0 2 -4 6q-9 18 -7 28
q5 26 3 28q0 15 -10 30q-1 1 -3.5 1.5t-6.5 1.5q-2 7 -4 7q-7 -2 -15 -11q-14 -39 -17 -52l-6 -61v-46q2 -36 8 -44q0 -4 4 -14q1 -13 21 -46l5 -6q5 -14 17 -14t34 28q-1 3 13 24q14 19 44 15q13 -2 13 -15q1 -9 -6 -45q-10 -10 -10 -20q-7 -18 -7 -20q-3 0 -6 -3l-5 -10
q-4 0 -5 -4q-11 -13 -15 -13q-3 -3 -16 -3q-19 -8 -28 -8l-17 -1l-11 4l-9 1q-12 5 -18.5 4.5t-9.5 1t-8 5.5q-12 10 -15.5 10t-11.5 6q-8 2 -13 7l-4 10q2 7 -2 8q-13 0 -15 5l-6 8q0 8 -8 21l-12 36q-2 2 0 7v18l-12 78v14q9 33 9 34q-1 22 10 39q0 19 13 39z" />
    <glyph glyph-name="Dcaron" unicode="&#x10e;" horiz-adv-x="534" 
d="M292 688h-1q-21 -8 -37 -8q-14 4 -19 12q-8 8 -33 40q-39 50 -39 53q-9 17 -1.5 26.5t16.5 11.5q34 15 49 -8q2 -3 4.5 -7t4.5 -8q14 -18 18 -26q10 -15 21 1q13 9 25 23.5t24 17.5q12 21 22 21q24 7 31 3t15 -6q26 -8 14 -34q-6 -11 -14 -18q-16 -12 -35 -32
q-59 -62 -65 -62zM389 286q6 12 8 44t4 44q0 117 -64 153q-26 15 -50 8q-11 0 -34 -14q-1 -14 -1 -47l-5 -37l-9 -92q0 -2 -2 -29q-15 -157 -15 -235q18 4 31 17q35 29 39 31l14 13q5 1 26 24v1l19 25l20 41q8 11 19 53zM100 135q-2 4 -2 14.5t3 24.5t3 33t6 49q-4 6 1 45
q5 9 4 24t-1 24q0 43 2 49t1 24q6 6 10 47q-34 -1 -51 18.5t-28 55.5q1 6 2.5 11.5t2.5 9.5t4 8.5t4.5 7t6.5 7t7 6t9 6t9 6t10.5 7t11.5 7.5q3 5 16 7.5t39 13.5q4 4 47 13.5t84 -7.5q23 0 33 -4q10 -9 27 -13l51 -27q11 -11 45 -52q37 -66 47 -134q1 -19 1 -67
q-9 -91 -33 -132q-2 -12 -11 -30q0 -2 -13.5 -24.5t-30.5 -44t-22 -28.5q-41 -38 -46 -42q-23 -17 -26 -18q-76 -38 -80.5 -41t-24.5 -7q-29 -3 -36 3q-16 7 -29 21q-4 1 -16 16q-16 12 -18 14q-13 19 -19 72q-1 4 0 27z" />
    <glyph glyph-name="dcaron" unicode="&#x10f;" horiz-adv-x="508" 
d="M487 688q4 -2 9 -0.5t12.5 1.5t13.5 -1q10 0 19 -17q0 -8 1 -31t-2 -48t-8.5 -35t-13 -18.5t-17.5 -21.5q-27 -37 -74 -30q-18 2 -18 21q0 3 2 3h2q6 0 22 25l17 25v4q0 10 -1 59l-16 42q10 20 29 22h23zM248 254l-2 15q-3 4 -3.5 10.5t-3.5 20.5q0 18 -9 32q-3 8 -24 5
q-14 -14 -33 -79q0 -1 -3 -8q-4 -9 -8 -29.5t-5 -23.5q-2 -6 -2 -11q-2 -4 -2 -13l-4 -19q-4 -6 -2 -15v-14q1 -3 -1 -17v-14l2 -34q0 -12 20 -39q8 -2 10 1q20 20 22 41l3 13q5 5 8 30l5 17q0 9 4 19t5 15q0 8 13 40q-1 3 -1 6v7q11 43 11 44zM375 577q0 -35 -4 -43l-7 -65
v-34q-1 -17 -1 -51t1.5 -56.5t-2.5 -37.5q2 -2 2 -7l1 -8l-1 -23v-42q1 -11 1 -38q2 -23 2 -37t3 -28v-13l4 -41v-34q2 -7 2 -13.5t4.5 -22t3.5 -28.5q-28 -33 -71 -16q-9 1 -18.5 10t-11.5 18l-1 20q-5 1 -6 17q-4 6 -3 10q3 5 -5 17l-11 -19q-5 -8 -11 -10l-4 -12
q-14 -15 -21 -25l-12 -12q-24 -5 -66 4q-10 0 -16 2h-7q-2 -2 -22 9q-17 7 -18 13l6 -1q-14 6 -10 19q-12 5 -15 22l-9 34q-2 13 1 28q-2 4 5 27l-3 9l-2 18q-3 4 1 18l-6 10q0 40 3 49l1 13q-5 8 3 34l14 46q0 2 3 18q5 25 12 32l18 30q5 5 11 15q10 18 42 18q33 5 106 -8
v35l-3 42q0 30 -1.5 55t0.5 40q1 1 10 41t30 60q7 4 25.5 5t22.5 -2t11 -5q28 -8 28 -51z" />
    <glyph glyph-name="Dcroat" unicode="&#x110;" horiz-adv-x="534" 
d="M237 332q10 0 68 -4q44 -11 46 -17q0 -2 -0.5 -4.5t-1 -10t-1.5 -9.5q-3 -6 -25 -10q-25 -5 -39 -5h-16q-2 0 -9 -2t-23 -2h-5v-5q-13 -171 -10 -182q4 2 10 4q8 0 21 13q35 29 39 31l14 13q12 2 26 24v1l19 25l20 41q9 12 15 35t12 44v15l2 27q0 8 2 20q0 117 -64 153
q-26 15 -50 8q-9 0 -34 -14v-11q-1 -14 -1 -36l-5 -37zM104 331l10 1v20q0 40 2 46t1 24q3 3 3 35l-11 -8q-4 -3 -15.5 -17.5t-23.5 -26t-37.5 -4.5t-28.5 24q8 26 17.5 45t22.5 52q20 20 24 41l7 10l16 18q0 7 24 28q3 5 16 7.5t39 13.5q4 4 16.5 7.5t17.5 3.5q56 12 97 -5
q23 0 33 -4q10 -9 27 -13l51 -27q11 -11 45 -52q37 -66 47 -134q1 -19 1 -67q-9 -91 -33 -132q-2 -12 -11 -30q0 -2 -13.5 -24.5t-30.5 -44t-22 -28.5q-54 -50 -59.5 -53t-8 -4.5t-5.5 -2.5q-75 -38 -79.5 -41t-24.5 -7q-29 -3 -36 3q-16 7 -29 21q-4 1 -16 16
q-16 12 -18 14q-9 13 -13 33t-4 21q-3 26 -2 45q-2 4 -2 14.5t3 24.5t3 34t5 44q-7 -1 -25 -1t-38 14l-13 8l-5 21q0 16 3 29q13 4 35.5 5t36.5 3h1z" />
    <glyph glyph-name="dcroat" unicode="&#x111;" horiz-adv-x="444" 
d="M163 171q0 -13 -2 -32t10 -61q5 -29 10 -37q7 0 13 15q0 1 7 14q3 1 20 28l12 24q3 21 14 37.5t17 29t5 33.5q0 8 -7 48q-2 5 -7.5 22.5t-14 25t-17.5 6.5t-22 -28q-16 -32 -23 -62t-9 -36q-3 -9 -3 -16zM368 629q8 -8 8.5 -18t3.5 -22h10q27 -2 40 -6q3 -13 3 -29
l-5 -21l-13 -8q-20 -14 -33 -14h-3v-8q-8 -127 -18 -192l6 -55q15 -82 19 -89q6 -38 25 -70l2 -8l15 -25q7 -15 6.5 -30t-3.5 -21q-14 -28 -28 -30q-7 -3 -22 0q-13 0 -19 6q-3 0 -8 1q-15 -3 -19 7q-6 6 -13.5 21.5t-17.5 26.5l-5 11q-4 18 -4.5 18.5t-1.5 4.5l-35 -55
q-2 -7 -26 -40l-13 -11q-12 -6 -35 -3q-2 -1 -17 -1l-56 10q-18 12 -31 38q-8 14 -8 23q0 10 -9 39l-2 15v6l-1 14q2 4 -2 17l-1 9v17q0 6 3 23q1 13 0.5 29.5t0.5 23.5q-2 10 1 17q-2 7 1 24q0 11 17 50q-3 16 14 36q0 1 10 15q3 3 15 8l24 16q38 11 70 4l40 -14
q2 15 0.5 70t-0.5 68q-3 0 -5 1h-23q-16 0 -23 2t-9 2h-16q-14 0 -35 4t-25.5 7.5t-5 12t-1.5 13.5t7 8t21 6.5t14.5 4t3.5 0.5q62 4 104 6q0 16 1 25l12 42q0 11 4 16l12 10q21 3 25.5 2.5t20.5 2.5q21 -25 26 -37z" />
    <glyph glyph-name="Emacron" unicode="&#x112;" horiz-adv-x="401" 
d="M156 805q34 4 68 4q32 0 84 -4t56 -5q39 -11 38.5 -16.5t-1 -13t-1.5 -9.5q-3 -6 -25 -10q-25 -5 -39 -5h-16q-2 0 -9 -2t-23 -2h-23q-8 -1 -31 -3q-11 -7 -24 -4q-6 -3 -30.5 -6.5t-43 -3.5t-38.5 14l-13 8l-5 21q0 16 3 29q13 4 35.5 5t36.5 3h1zM161 233v-40
q0 -62 7 -69q-1 -1 5 -24q0 -8 8 -25q0 -5 28 -24q12 0 59 20l71 27q13 4 24.5 -3.5t14 -26t-1 -26.5t-17 -20t-17.5 -17t-15 -10.5t-24.5 -11.5t-18.5 -9q-39 -18 -60 -14q-13 0 -26.5 5t-15 4.5t-8 1t-12.5 3t-31 6.5q0 4 -14 8l-27 22q-7 4 -15 25l-9 15q-4 3 -11 23
q-4 5 -5 18q-5 11 -5 31q-4 5 -9 38q-7 43 -1 77q0 19 7 37l2 16q5 26 7 40q-4 14 13 67q0 8 6.5 23.5t7.5 32.5l8 19q0 8 15 59q8 19 8 22l25 53l12 16q7 7 21 12q6 5 32 -1q16 -6 22 -12q7 -3 17 -3l77 5q29 -2 39 -6.5t19.5 -15.5t7 -22t-8.5 -17q-13 -11 -48 -26
q-61 -33 -66 -35l-24 -11q-15 -10 -19 -21q-31 -112 -33.5 -124.5l-3 -15t-0.5 -3.5l20 2q44 14 52 9q4 0 11 3q37 13 65 11q5 3 11 -4t9 -17q6 -25 -15 -39q-42 -28 -100 -45q-19 -15 -53 -19z" />
    <glyph glyph-name="emacron" unicode="&#x113;" horiz-adv-x="380" 
d="M247 320q4 15 -1 38q-7 6 -19 6q-15 0 -27 -28q-16 -24 -24 -53h-1q-11 -42 -11 -45q16 -4 26 -3.5t23 10.5q23 22 34 75zM144 605q34 4 68 4q31 0 83.5 -4t56.5 -5q39 -11 38.5 -16.5t-1 -13t-1.5 -9.5q-3 -6 -25 -10q-25 -5 -39 -5h-16q-2 0 -9 -2t-23 -2h-23
q-8 -1 -31 -3q-11 -7 -24 -4q-6 -3 -30.5 -6.5t-43 -3.5t-38.5 14l-13 8l-5 21q0 16 3 29q13 4 35.5 5t36.5 3h1zM244 176l-37 -3q-31 0 -49 6l3 -19q3 -83 46 -109q12 -5 20 -5t21 8q4 4 7 11q1 9 10 8q41 52 62 41q21 -14 21 -22q0 -4 -5 -9v-6q0 -10 -12.5 -36t-26.5 -44
q-7 -15 -18 -21q-32 -20 -68 -16q-8 1 -11 4q-8 2 -12 1l-8 1q-9 0 -15 4q-10 6 -14 6q-26 10 -31.5 15t-9.5 7t-19 21q-13 11 -15 14q-6 9 -10.5 13t-5.5 18q-4 5 -4 13l-4 8q0 7 -6 11q-6 6 -6 15v8q-4 2 -2 12v26l-1 9v7q-1 4 2 17l-1 9q1 1 3 16q4 21 9 26v9q1 3 1 8
t2.5 11t15.5 45l16 35q7 15 22 33q1 5 8 18l13 12q6 9 18 13q14 7 21 7l28 4q5 -1 7 -1h13q22 -2 36 -9q30 -9 44 -23q31 -35 31 -67t-10 -55q-25 -57 -36 -72q-18 -33 -43 -33z" />
    <glyph glyph-name="Ebreve" unicode="&#x114;" horiz-adv-x="401" 
d="M378 806q0 -19 -21 -63q-41 -49 -63 -56.5t-64.5 -2.5t-59.5 19q-45 35 -48.5 37.5t-8.5 20.5t-6 32q-2 34 12 40q10 3 29 1q31 -5 33 -16q1 -6 0 -16t0.5 -18t12.5 -16.5t20 -10.5t22.5 -3.5t30.5 6t27.5 26t9.5 30.5q11 11 26.5 10.5t22.5 -6.5q25 -11 25 -14zM161 233
v-40q0 -62 7 -69q-1 -1 5 -24q0 -8 8 -25q0 -5 28 -24q12 0 59 20l71 27q13 4 24.5 -3.5t14 -26t-1 -26.5t-17 -20t-17.5 -17t-15 -10.5t-24.5 -11.5t-18.5 -9q-39 -18 -60 -14q-13 0 -26.5 5t-15 4.5t-8 1t-12.5 3t-31 6.5q0 4 -14 8l-27 22q-7 4 -15 25l-9 15q-4 3 -11 23
q-4 5 -5 18q-5 11 -5 31q-4 5 -9 38q-7 43 -1 77q0 19 7 37l2 16q5 26 7 40q-4 14 13 67q0 8 6.5 23.5t7.5 32.5l8 19q0 8 15 59q8 19 8 22l25 53l12 16q7 7 21 12q6 5 32 -1q16 -6 22 -12q7 -3 17 -3l77 5q29 -2 39 -6.5t19.5 -15.5t7 -22t-8.5 -17q-13 -11 -48 -26
q-61 -33 -66 -35l-24 -11q-15 -10 -19 -21q-31 -112 -33.5 -124.5l-3 -15t-0.5 -3.5l20 2q44 14 52 9q4 0 11 3q37 13 65 11q5 3 11 -4t9 -17q6 -25 -15 -39q-42 -28 -100 -45q-19 -15 -53 -19z" />
    <glyph glyph-name="ebreve" unicode="&#x115;" horiz-adv-x="380" 
d="M247 320q4 15 -1 38q-7 6 -19 6q-15 0 -27 -28q-16 -24 -24 -53h-1q-11 -42 -11 -45q16 -4 26 -3.5t23 10.5q23 22 34 75zM366 606q0 -19 -21 -63q-41 -49 -63 -56.5t-64.5 -2.5t-59.5 19q-45 35 -48.5 37.5t-8.5 20.5t-6 32q-2 34 12 40q10 3 29 1q31 -5 33 -16
q1 -6 0 -16t0.5 -18t12.5 -16.5t20 -10.5t22.5 -3.5t30.5 6t27.5 26t9.5 30.5q11 11 26.5 10.5t22.5 -6.5q25 -11 25 -14zM244 176l-37 -3q-31 0 -49 6l3 -19q3 -83 46 -109q12 -5 20 -5t21 8q4 4 7 11q1 9 10 8q41 52 62 41q21 -14 21 -22q0 -4 -5 -9v-6q0 -10 -12.5 -36
t-26.5 -44q-7 -15 -18 -21q-32 -20 -68 -16q-8 1 -11 4q-8 2 -12 1l-8 1q-9 0 -15 4q-10 6 -14 6q-26 10 -31.5 15t-9.5 7t-19 21q-13 11 -15 14q-6 9 -10.5 13t-5.5 18q-4 5 -4 13l-4 8q0 7 -6 11q-6 6 -6 15v8q-4 2 -2 12v26l-1 9v7q-1 4 2 17l-1 9q1 1 3 16q4 21 9 26v9
q1 3 1 8t2.5 11t15.5 45l16 35q7 15 22 33q1 5 8 18l13 12q6 9 18 13q14 7 21 7l28 4q5 -1 7 -1h13q22 -2 36 -9q30 -9 44 -23q31 -35 31 -67t-10 -55q-25 -57 -36 -72q-18 -33 -43 -33z" />
    <glyph glyph-name="Edotaccent" unicode="&#x116;" horiz-adv-x="401" 
d="M265 820q39 0 48 -42q0 -37 -22.5 -58t-42 -21t-48.5 18t-29 40q0 55 47 64q13 1 37 -3q0 2 10 2zM161 233v-40q0 -62 7 -69q-1 -1 5 -24q0 -8 8 -25q0 -5 28 -24q12 0 59 20l71 27q13 4 24.5 -3.5t14 -26t-1 -26.5t-17 -20t-17.5 -17t-15 -10.5t-24.5 -11.5t-18.5 -9
q-39 -18 -60 -14q-13 0 -26.5 5t-15 4.5t-8 1t-12.5 3t-31 6.5q0 4 -14 8l-27 22q-7 4 -15 25l-9 15q-4 3 -11 23q-4 5 -5 18q-5 11 -5 31q-4 5 -9 38q-7 43 -1 77q0 19 7 37l2 16q5 26 7 40q-4 14 13 67q0 8 6.5 23.5t7.5 32.5l8 19q0 8 15 59q8 19 8 22l25 53l12 16
q7 7 21 12q6 5 32 -1q16 -6 22 -12q7 -3 17 -3l77 5q29 -2 39 -6.5t19.5 -15.5t7 -22t-8.5 -17q-13 -11 -48 -26q-61 -33 -66 -35l-24 -11q-15 -10 -19 -21q-31 -112 -33.5 -124.5l-3 -15t-0.5 -3.5l20 2q44 14 52 9q4 0 11 3q37 13 65 11q5 3 11 -4t9 -17q6 -25 -15 -39
q-42 -28 -100 -45q-19 -15 -53 -19z" />
    <glyph glyph-name="edotaccent" unicode="&#x117;" horiz-adv-x="380" 
d="M247 320q4 15 -1 38q-7 6 -19 6q-15 0 -27 -28q-16 -24 -24 -53h-1q-11 -42 -11 -45q16 -4 26 -3.5t23 10.5q23 22 34 75zM253 620q39 0 48 -42q0 -37 -22.5 -58t-42 -21t-48.5 18t-29 40q0 55 47 64q13 1 37 -3q0 2 10 2zM244 176l-37 -3q-31 0 -49 6l3 -19
q3 -83 46 -109q12 -5 20 -5t21 8q4 4 7 11q1 9 10 8q41 52 62 41q21 -14 21 -22q0 -4 -5 -9v-6q0 -10 -12.5 -36t-26.5 -44q-7 -15 -18 -21q-32 -20 -68 -16q-8 1 -11 4q-8 2 -12 1l-8 1q-9 0 -15 4q-10 6 -14 6q-26 10 -31.5 15t-9.5 7t-19 21q-13 11 -15 14q-6 9 -10.5 13
t-5.5 18q-4 5 -4 13l-4 8q0 7 -6 11q-6 6 -6 15v8q-4 2 -2 12v26l-1 9v7q-1 4 2 17l-1 9q1 1 3 16q4 21 9 26v9q1 3 1 8t2.5 11t15.5 45l16 35q7 15 22 33q1 5 8 18l13 12q6 9 18 13q14 7 21 7l28 4q5 -1 7 -1h13q22 -2 36 -9q30 -9 44 -23q31 -35 31 -67t-10 -55
q-25 -57 -36 -72q-18 -33 -43 -33z" />
    <glyph glyph-name="Eogonek" unicode="&#x118;" horiz-adv-x="401" 
d="M163 225q-3 -21 -1 -45v-21q2 -33 6 -37q-1 -1 5 -23q0 -16 22 -46l14 -4q11 0 53 17l45 18q4 0 27 16t36 3t4.5 -32t-13.5 -26q-10 -35 -46 -71l-22 -16q-7 -2 -16 -11t-9 -12t-3 -9q-6 -14 -3 -26q8 -37 56 -22q19 5 28 13q27 18 39 -4t-1 -39q-25 -33 -68.5 -33
t-75.5 18q-46 21 -52 47q-9 42 3 50q8 16 22 30q-7 0 -28 8q0 -1 -2 -1l-52 11q0 4 -14 9l-18 11q0 4 -9 11q-7 3 -11 12t-4 12l-9 15q-4 2 -11 23q-4 5 -5 18q-5 11 -5 31q-6 9 -10 39q-6 46 -4 55t4 21q0 20 7 37q1 7 2 12t1 8l5 29q0 5 1 7q-3 14 11 61q0 1 1 4t2 8t2 7
t4 14q6 12 7 29l8 19q0 17 10 42l13 40l25 52l12 16q19 19 46 12q18 -3 29 -12q7 -4 25 -4q4 2 24 2q24 5 49.5 3t35 -6.5t19 -15.5t7 -22t-8.5 -17q-13 -11 -48 -26q-55 -30 -63 -33q-6 -3 -27 -13q-15 -10 -19 -21q-15 -51 -18 -63q-1 -7 -8 -32.5t-8.5 -33.5t-2 -10.5
t-0.5 -3.5q10 5 22 5l12 3q2 0 15 6q24 3 29 2q4 -1 12 1t10 2l36 9t26 1q4 2 11.5 -2.5t9 -13.5t-2.5 -15q-12 -18 -88 -56l-57 -29q-16 -10 -35 -12l-15 6v-6z" />
    <glyph glyph-name="eogonek" unicode="&#x119;" horiz-adv-x="380" 
d="M247 320q4 15 -1 38q-7 6 -19 6q-15 0 -27 -28q-16 -24 -24 -53h-1q-11 -42 -11 -45q16 -4 26 -3.5t23 10.5q23 22 34 75zM244 176l-37 -3q-31 0 -49 6l3 -19q3 -83 46 -109q12 -5 20 -5t21 8q4 4 7 11q1 9 10 8q41 52 62 41q21 -14 21 -22q0 -4 -5 -9v-6q0 -10 -21 -52
q0 -1 -23 -31q-47 -43 -47 -53q0 -1 -3 -7q-6 -14 -3 -26q8 -37 56 -22q19 5 28 13q27 18 39 -4t-1 -39q-25 -33 -68.5 -33t-75.5 18q-43 20 -51 53q-3 14 -3 27q0 25 5 28q4 9 11 17q-8 0 -14 4q-10 6 -14 6q-26 10 -31.5 15t-9.5 7t-19 21q-13 11 -15 14q-6 9 -10.5 13
t-5.5 18q-4 5 -4 13l-4 8q0 7 -6 11q-6 6 -6 15v8q-4 2 -2 12v26l-1 9v7q-1 4 2 17l-1 9q1 1 3 16q4 21 9 26v9q1 3 1 8t2.5 11t15.5 45l16 35q7 15 22 33q1 5 8 18l13 12q6 9 18 13q14 7 21 7l28 4q5 -1 7 -1h13q22 -2 36 -9q30 -9 44 -23q31 -35 31 -67t-10 -55
q-25 -57 -36 -72q-18 -33 -43 -33z" />
    <glyph glyph-name="Ecaron" unicode="&#x11a;" horiz-adv-x="401" 
d="M229 680q-14 4 -19 12q-8 8 -33 40q-39 50 -39 53q-9 17 -1.5 26.5t16.5 11.5q34 15 49 -8q2 -3 4.5 -7t5.5 -8q13 -18 18 -26q9 -15 20 1q13 9 25 23.5t24 17.5q12 21 22 21q24 7 31 3t16 -6q25 -8 12 -34q-5 -11 -13 -18q-16 -12 -35 -32q-59 -62 -66 -62
q-21 -8 -37 -8zM161 233v-40q0 -62 7 -69q-1 -1 5 -24q0 -8 8 -25q0 -5 28 -24q12 0 59 20l71 27q13 4 24.5 -3.5t14 -26t-1 -26.5t-17 -20t-17.5 -17t-15 -10.5t-24.5 -11.5t-18.5 -9q-39 -18 -60 -14q-13 0 -26.5 5t-15 4.5t-8 1t-12.5 3t-31 6.5q0 4 -14 8l-27 22
q-7 4 -15 25l-9 15q-4 3 -11 23q-4 5 -5 18q-5 11 -5 31q-4 5 -9 38q-7 43 -1 77q0 19 7 37l2 16q5 26 7 40q-4 14 13 67q0 8 6.5 23.5t7.5 32.5l8 19q0 8 15 59q8 19 8 22l25 53l12 16q7 7 21 12q6 5 32 -1q16 -6 22 -12q7 -3 17 -3l77 5q29 -2 39 -6.5t19.5 -15.5t7 -22
t-8.5 -17q-13 -11 -48 -26q-61 -33 -66 -35l-24 -11q-15 -10 -19 -21q-31 -112 -33.5 -124.5l-3 -15t-0.5 -3.5l20 2q44 14 52 9q4 0 11 3q37 13 65 11q5 3 11 -4t9 -17q6 -25 -15 -39q-42 -28 -100 -45q-19 -15 -53 -19z" />
    <glyph glyph-name="ecaron" unicode="&#x11b;" horiz-adv-x="380" 
d="M247 320q4 15 -1 38q-7 6 -19 6q-15 0 -27 -28q-16 -24 -24 -53h-1q-11 -42 -11 -45q16 -4 26 -3.5t23 10.5q23 22 34 75zM258 488h-1q-21 -8 -37 -8q-14 4 -19 12q-8 8 -33 40q-39 50 -39 53q-9 17 -1.5 26.5t16.5 11.5q34 15 49 -8q2 -3 4.5 -7t4.5 -8q14 -18 18 -26
q10 -15 21 1q13 9 25 23.5t24 17.5q12 21 22 21q24 7 31 3t15 -6q26 -8 14 -34q-6 -11 -14 -18q-16 -12 -35 -32q-59 -62 -65 -62zM244 176l-37 -3q-31 0 -49 6l3 -19q3 -83 46 -109q12 -5 20 -5t21 8q4 4 7 11q1 9 10 8q41 52 62 41q21 -14 21 -22q0 -4 -5 -9v-6
q0 -10 -12.5 -36t-26.5 -44q-7 -15 -18 -21q-32 -20 -68 -16q-8 1 -11 4q-8 2 -12 1l-8 1q-9 0 -15 4q-10 6 -14 6q-26 10 -31.5 15t-9.5 7t-19 21q-13 11 -15 14q-6 9 -10.5 13t-5.5 18q-4 5 -4 13l-4 8q0 7 -6 11q-6 6 -6 15v8q-4 2 -2 12v26l-1 9v7q-1 4 2 17l-1 9
q1 1 3 16q4 21 9 26v9q1 3 1 8t2.5 11t15.5 45l16 35q7 15 22 33q1 5 8 18l13 12q6 9 18 13q14 7 21 7l28 4q5 -1 7 -1h13q22 -2 36 -9q30 -9 44 -23q31 -35 31 -67t-10 -55q-25 -57 -36 -72q-18 -33 -43 -33z" />
    <glyph glyph-name="Gcircumflex" unicode="&#x11c;" horiz-adv-x="520" 
d="M231 842q25 0 33 -5q23 -16 48 -42q41 -43 53 -52.5t17.5 -21t4.5 -17.5t-5 -9.5t-12.5 -6t-15.5 -6.5t-31 3q-10 0 -22 21q-12 3 -24 17.5t-25 23.5q-6 9 -11 8.5t-9.5 -7.5t-10 -15t-8 -11.5t-5.5 -7.5q-5 -9 -7 -11q-16 -17 -46 -4q-9 2 -16.5 11.5t1.5 26.5
q0 5 34 47t38 46q5 8 19 12zM167 5l-19 -1q-2 2 -22 3q-2 4 -15 9q-6 0 -25 19q-17 14 -18 16q-1 4 -7 10q-4 6 -9 28q-16 49 -17 64t2 42q-4 5 1 25q0 11 3 50v6l4 45q-1 20 6 41t10 39q3 1 6 26q15 47 18 52l16 28q3 3 9 13l30 39q6 7 26 17q11 11 26 17q38 16 65 19
q12 -9 33 6q60 -5 80.5 -5t40.5 -7q30 -6 31 -23q2 -25 -7 -38t-23 -11q-41 6 -67 4t-49 -15q-2 -1 -9 -4q-16 -7 -26 -15q-37 -31 -69 -117l-3 -17q1 1 0.5 -0.5l-2 -6t-2 -7.5t-3.5 -10q-10 -27 -17.5 -75.5t-7.5 -80.5t11 -51l16 -18q4 -8 24 -19q9 -11 27 -22
q16 -7 54 15q4 3 8 7l24 16q22 23 27 31l12 10l4 31q0 1 2 6q4 15 4 26v14l-2 31q1 14 -4 19q-15 0 -56 -28q-3 -2 -13.5 -1.5t-16.5 3.5q-17 10 -17 25t3 24t3.5 12t4 6.5t9.5 7.5t14.5 12.5t35.5 21.5t61 13t55 -19.5t36 -72.5q2 -12 2 -52.5t-19 -150.5
q-5 -48 -11.5 -64.5t-8.5 -34t-3.5 -24.5t-2 -9.5t-1 -4.5t-3.5 -11.5t-15 -19.5t-22 -11q-33 6 -44 21q-4 6 -11 22t-7.5 27.5t0 15.5t3.5 24.5t4 31.5l-27 -33q0 -4 -18 -14q-8 -8 -46 -6h-9q-1 -8 -47 1q-6 -1 -30 7z" />
    <glyph glyph-name="gcircumflex" unicode="&#x11d;" horiz-adv-x="401" 
d="M161 195l2 -39l7 -19l10 -20q3 -21 20 -25q12 -2 23 13q6 5 9 7q6 5 6 22.5t3 28.5q-1 5 1.5 35.5t5 47t1.5 22.5q-7 9 -13 37q-20 20 -27 22q-22 8 -27 2q-7 -7 -15 -66q-6 -10 -5.5 -25.5t-0.5 -23.5v-19zM188 642q25 0 32 -5q24 -16 49 -42q41 -43 53 -52.5t17.5 -21
t4.5 -17.5t-5 -9.5t-12.5 -6t-15.5 -6.5t-31 3q-10 0 -22 21q-12 3 -24 17.5t-25 23.5q-6 9 -11 8.5t-9.5 -7.5t-10 -15t-8 -11.5t-4.5 -7.5q-6 -9 -8 -11q-16 -17 -46 -4q-9 2 -16.5 11.5t1.5 26.5q0 5 34 47t38 46q5 8 19 12zM347 222q4 -50 4 -78l1 -13l-2 -61
q0 -14 -1 -26v-16l-4 -26v-10q0 -37 -34 -105q-12 -25 -37 -51q-42 -45 -103 -47q-51 0 -75 21l-10 5q-12 6 -27 38q0 3 -5 13q0 14 6 22q4 8 27 14q10 2 37 -20q20 -22 47 -23q28 -4 43 26t23 80q4 19 4 43t-2 32q-27 -14 -48 -12h-9q-8 -2 -24 0.5t-30 12.5l-19 13
q1 -1 -1 -1l-5 3l-14 11q-9 5 -9 19q-7 4 -10 10q-8 3 -8 14l-5 20q0 5 -5 25q-5 8 -2.5 16t2.5 13l3 34v7q-3 3 0 19q3 6 3 9q6 32 9 40.5t4.5 19.5t7.5 20l10 23q6 11 32 31q10 10 25 13l28 -2l29 -7q1 0 37 -15q0 19 19 32q8 8 35 1h9q11 1 24 -9q6 -7 13 -32
q7 -93 7 -146z" />
    <glyph glyph-name="Gbreve" unicode="&#x11e;" horiz-adv-x="520" 
d="M396 806q0 -19 -21 -63q-41 -49 -63 -56.5t-64.5 -2.5t-59.5 19q-45 35 -48.5 37.5t-8.5 20.5t-6 32q-2 34 12 40q10 3 29 1q31 -5 33 -16q1 -6 0 -16t0.5 -18t12.5 -16.5t20 -10.5t22.5 -3.5t30.5 6t27.5 26t9.5 30.5q11 11 26.5 10.5t22.5 -6.5q25 -11 25 -14zM167 5
l-19 -1q-2 2 -22 3q-2 4 -15 9q-6 0 -25 19q-17 14 -18 16q-1 4 -7 10q-4 6 -9 28q-16 49 -17 64t2 42q-4 5 1 25q0 11 3 50v6l4 45q-1 20 6 41t10 39q3 1 6 26q15 47 18 52l16 28q3 3 9 13l30 39q6 7 26 17q11 11 26 17q38 16 65 19q12 -9 33 6q60 -5 80.5 -5t40.5 -7
q30 -6 31 -23q2 -25 -7 -38t-23 -11q-41 6 -67 4t-49 -15q-2 -1 -9 -4q-16 -7 -26 -15q-37 -31 -69 -117l-3 -17q1 1 0.5 -0.5l-2 -6t-2 -7.5t-3.5 -10q-10 -27 -17.5 -75.5t-7.5 -80.5t11 -51l16 -18q4 -8 24 -19q9 -11 27 -22q16 -7 54 15q4 3 8 7l24 16q22 23 27 31
l12 10l4 31q0 1 2 6q4 15 4 26v14l-2 31q1 14 -4 19q-15 0 -56 -28q-3 -2 -13.5 -1.5t-16.5 3.5q-17 10 -17 25t3 24t3.5 12t4 6.5t9.5 7.5t14.5 12.5t35.5 21.5t61 13t55 -19.5t36 -72.5q2 -12 2 -52.5t-19 -150.5q-5 -48 -11.5 -64.5t-8.5 -34t-3.5 -24.5t-2 -9.5t-1 -4.5
t-3.5 -11.5t-15 -19.5t-22 -11q-33 6 -44 21q-4 6 -11 22t-7.5 27.5t0 15.5t3.5 24.5t4 31.5l-27 -33q0 -4 -18 -14q-8 -8 -46 -6h-9q-1 -8 -47 1q-6 -1 -30 7z" />
    <glyph glyph-name="gbreve" unicode="&#x11f;" horiz-adv-x="401" 
d="M336 606q0 -19 -21 -63q-41 -49 -63 -56.5t-64.5 -2.5t-59.5 19q-45 35 -48.5 37.5t-8.5 20.5t-6 32q-2 34 12 40q10 3 29 1q31 -5 33 -16q1 -6 0 -16t0.5 -18t12.5 -16.5t20 -10.5t22.5 -3.5t30.5 6t27.5 26t9.5 30.5q11 11 26.5 10.5t22.5 -6.5q25 -11 25 -14zM161 195
l2 -39l7 -19l10 -20q3 -21 20 -25q12 -2 23 13q6 5 9 7q6 5 6 22.5t3 28.5q-1 5 1.5 35.5t5 47t1.5 22.5q-7 9 -13 37q-20 20 -27 22q-22 8 -27 2q-7 -7 -15 -66q-6 -10 -5.5 -25.5t-0.5 -23.5v-19zM347 222q4 -50 4 -78l1 -13l-2 -61q0 -14 -1 -26v-16l-4 -26v-10
q0 -37 -34 -105q-12 -25 -37 -51q-42 -45 -103 -47q-51 0 -75 21l-10 5q-12 6 -27 38q0 3 -5 13q0 14 6 22q4 8 27 14q10 2 37 -20q20 -22 47 -23q28 -4 43 26t23 80q4 19 4 43t-2 32q-27 -14 -48 -12h-9q-8 -2 -24 0.5t-30 12.5l-19 13q1 -1 -1 -1l-5 3l-14 11q-9 5 -9 19
q-7 4 -10 10q-8 3 -8 14l-5 20q0 5 -5 25q-5 8 -2.5 16t2.5 13l3 34v7q-3 3 0 19q3 6 3 9q6 32 9 40.5t4.5 19.5t7.5 20l10 23q6 11 32 31q10 10 25 13l28 -2l29 -7q1 0 37 -15q0 19 19 32q8 8 35 1h9q11 1 24 -9q6 -7 13 -32q7 -93 7 -146z" />
    <glyph glyph-name="Gdotaccent" unicode="&#x120;" horiz-adv-x="520" 
d="M283 820q39 0 48 -42q0 -37 -22.5 -58t-42 -21t-48.5 18t-29 40q0 55 47 64q13 1 37 -3q0 2 10 2zM167 5l-19 -1q-2 2 -22 3q-2 4 -15 9q-6 0 -25 19q-17 14 -18 16q-1 4 -7 10q-4 6 -9 28q-16 49 -17 64t2 42q-4 5 1 25q0 11 3 50v6l4 45q-1 20 6 41t10 39q3 1 6 26
q15 47 18 52l16 28q3 3 9 13l30 39q6 7 26 17q11 11 26 17q38 16 65 19q12 -9 33 6q60 -5 80.5 -5t40.5 -7q30 -6 31 -23q2 -25 -7 -38t-23 -11q-41 6 -67 4t-49 -15q-2 -1 -9 -4q-16 -7 -26 -15q-37 -31 -69 -117l-3 -17q1 1 0.5 -0.5l-2 -6t-2 -7.5t-3.5 -10
q-10 -27 -17.5 -75.5t-7.5 -80.5t11 -51l16 -18q4 -8 24 -19q9 -11 27 -22q16 -7 54 15q4 3 8 7l24 16q22 23 27 31l12 10l4 31q0 1 2 6q4 15 4 26v14l-2 31q1 14 -4 19q-15 0 -56 -28q-3 -2 -13.5 -1.5t-16.5 3.5q-17 10 -17 25t3 24t3.5 12t4 6.5t9.5 7.5t14.5 12.5
t35.5 21.5t61 13t55 -19.5t36 -72.5q2 -12 2 -52.5t-19 -150.5q-5 -48 -11.5 -64.5t-8.5 -34t-3.5 -24.5t-2 -9.5t-1 -4.5t-3.5 -11.5t-15 -19.5t-22 -11q-33 6 -44 21q-4 6 -11 22t-7.5 27.5t0 15.5t3.5 24.5t4 31.5l-27 -33q0 -4 -18 -14q-8 -8 -46 -6h-9q-1 -8 -47 1
q-6 -1 -30 7z" />
    <glyph glyph-name="gdotaccent" unicode="&#x121;" horiz-adv-x="401" 
d="M223 620q39 0 48 -42q0 -37 -22.5 -58t-42 -21t-48.5 18t-29 40q0 55 47 64q13 1 37 -3q0 2 10 2zM161 195l2 -39l7 -19l10 -20q3 -21 20 -25q12 -2 23 13q6 5 9 7q6 5 6 22.5t3 28.5q-1 5 1.5 35.5t5 47t1.5 22.5q-7 9 -13 37q-20 20 -27 22q-22 8 -27 2q-7 -7 -15 -66
q-6 -10 -5.5 -25.5t-0.5 -23.5v-19zM347 222q4 -50 4 -78l1 -13l-2 -61q0 -14 -1 -26v-16l-4 -26v-10q0 -37 -34 -105q-12 -25 -37 -51q-42 -45 -103 -47q-51 0 -75 21l-10 5q-12 6 -27 38q0 3 -5 13q0 14 6 22q4 8 27 14q10 2 37 -20q20 -22 47 -23q28 -4 43 26t23 80
q4 19 4 43t-2 32q-27 -14 -48 -12h-9q-8 -2 -24 0.5t-30 12.5l-19 13q1 -1 -1 -1l-5 3l-14 11q-9 5 -9 19q-7 4 -10 10q-8 3 -8 14l-5 20q0 5 -5 25q-5 8 -2.5 16t2.5 13l3 34v7q-3 3 0 19q3 6 3 9q6 32 9 40.5t4.5 19.5t7.5 20l10 23q6 11 32 31q10 10 25 13l28 -2l29 -7
q1 0 37 -15q0 19 19 32q8 8 35 1h9q11 1 24 -9q6 -7 13 -32q7 -93 7 -146z" />
    <glyph glyph-name="uni0122" unicode="&#x122;" horiz-adv-x="520" 
d="M231 -88l30 3q56 0 56 -48q0 -38 -39 -116q-7 -7 -24.5 -15t-23.5 -8q-26 0 -26 10q0 7 14.5 29t14.5 45t-1.5 28t-9.5 7q-14 10 -14 32.5t23 32.5zM167 5l-19 -1q-2 2 -22 3q-2 4 -15 9q-6 0 -25 19q-17 14 -18 16q-1 4 -7 10q-4 6 -9 28q-16 49 -17 64t2 42q-4 5 1 25
q0 11 3 50v6l4 45q-1 20 6 41t10 39q3 1 6 26q15 47 18 52l16 28q3 3 9 13l30 39q6 7 26 17q11 11 26 17q38 16 65 19q12 -9 33 6q60 -5 80.5 -5t40.5 -7q30 -6 31 -23q2 -25 -7 -38t-23 -11q-41 6 -67 4t-49 -15q-2 -1 -9 -4q-16 -7 -26 -15q-37 -31 -69 -117l-3 -17
q1 1 0.5 -0.5l-2 -6t-2 -7.5t-3.5 -10q-10 -27 -17.5 -75.5t-7.5 -80.5t11 -51l16 -18q4 -8 24 -19q9 -11 27 -22q16 -7 54 15q4 3 8 7l24 16q22 23 27 31l12 10l4 31q0 1 2 6q4 15 4 26v14l-2 31q1 14 -4 19q-15 0 -56 -28q-3 -2 -13.5 -1.5t-16.5 3.5q-17 10 -17 25t3 24
t3.5 12t4 6.5t9.5 7.5t14.5 12.5t35.5 21.5t61 13t55 -19.5t36 -72.5q2 -12 2 -52.5t-19 -150.5q-5 -48 -11.5 -64.5t-8.5 -34t-3.5 -24.5t-2 -9.5t-1 -4.5t-3.5 -11.5t-15 -19.5t-22 -11q-33 6 -44 21q-4 6 -11 22t-7.5 27.5t0 15.5t3.5 24.5t4 31.5l-27 -33q0 -4 -18 -14
q-8 -8 -46 -6h-9q-1 -8 -47 1q-6 -1 -30 7z" />
    <glyph glyph-name="uni0123" unicode="&#x123;" horiz-adv-x="395" 
d="M250 464l-30 -1q-24 0 -39 15t-14 37q4 39 47 113q40 20 49 20q26 -3 26 -12q-1 -7 -17 -28t-17.5 -44t-0.5 -28t9 -7q12 -11 12 -37q0 -6 -6.5 -15t-18.5 -13zM187 271q-2 -7 -12 -30l-7 -22l-8 -17q-3 -6 -3 -17q-8 -19 -8 -24q-6 -7 -9 -40.5t3 -49.5l23 -27l15 -1
l10 10q14 19 14 24q1 1 10 19q5 4 8.5 9.5t10.5 12.5q1 3 3 10q5 5 2.5 17.5t2.5 31.5q13 57 2 79q-3 17 -10.5 26t-13.5 10q-26 6 -33 -21zM171 388q43 -4 60 -9t39 -19q20 -9 33 -20.5t18 -15.5q35 -24 26 -75q-6 -31 -6 -74v-31l1 -16q-2 -24 -2 -57q-2 -22 -2 -24
q-5 -12 -8 -41t-7 -41l-12 -43q-7 -18 -25 -57q-5 -7 -5 -9t-9 -15.5t-13 -17t-9 -9.5q0 -3 -7.5 -9.5t-14.5 -9.5q-7 -9 -25 -14q-7 -4 -49 -9q-58 3 -117 41q-23 15 -20.5 47.5t34.5 26.5q13 -3 35 -23q21 -7 31.5 -8.5t13.5 -2.5q13 -5 36 12q29 19 48 53q3 26 15 57
q8 26 11 44l-10 -10q0 -3 -8 -8t-13 -6l-27 -7q-12 -2 -24.5 -0.5t-14.5 1.5l-14 3q-11 4 -43 24q-5 5 -9 7q-18 16 -26 29q1 1 -2 11q-5 5 -5 30l8 64q0 9 3 18q-3 9 0 20l6 37q-3 -1 -2 3t3 9.5t3 10.5q0 16 3.5 25.5t7.5 21.5q8 24 14 35q0 3 5 12.5t12 14.5q31 24 63 24
z" />
    <glyph glyph-name="Hcircumflex" unicode="&#x124;" horiz-adv-x="553" 
d="M247 842q25 0 32 -5q24 -16 49 -42q41 -43 53 -52.5t17.5 -21t4.5 -17.5t-5 -9.5t-12.5 -6t-15.5 -6.5t-31 3q-10 0 -22 21q-12 3 -24 17.5t-25 23.5q-6 9 -11 8.5t-9.5 -7.5t-10 -15t-8 -11.5t-5.5 -7.5q-5 -9 -7 -11q-16 -17 -46 -4q-9 2 -16.5 11.5t1.5 26.5
q0 5 34 47t38 46q5 8 19 12zM66 171q2 3 0 14q-4 36 -1 50q-4 54 -2.5 63t5.5 10q-4 6 -7.5 44t-1.5 51q-2 8 -1 19.5t3 15.5q-2 2 -3 15v45l2 26v22l6 31q-3 5 5 18q-10 21 21 52q1 2 23 13q18 1 24.5 0t20 -2t20.5 -3q18 -6 18 -32v-17q2 -36 2 -54v-22q0 -13 -2 -15
q1 -4 0 -19v-17q-3 -31 -2 -36l-7 -53q8 -3 57 -3h50q44 0 55.5 0.5t15 6.5t5.5 16t3 23t2 16q6 5 3 43q0 3 4 15q0 14 4 32q0 19 6.5 33.5t9.5 24.5q5 17 24 29q25 18 48 23h18q27 -5 18 -51q0 -15 -8 -39q-9 -47 -9 -61t-8 -51q2 -19 0.5 -25t-1.5 -15q-2 -22 -2 -30
q-2 -30 -2 -48t-3 -39q0 -21 -7 -43l-3 -64q0 -7 7 -103q6 -6 4 -23.5t-7 -24.5t-10.5 -8t-16.5 -1q-23 -13 -37 -10q-12 0 -25 8q-21 11 -27 27q0 7 -2.5 17t-0.5 21.5t1.5 24.5t-0.5 30l1 12q-2 4 2 13t1 14v27l5 51q-10 7 -1 33l2 8q-12 -3 -22 -3q-28 -7 -62 -7l-90 3
v-11q-2 -16 -1 -48v-19q1 -26 1 -74q4 -52 4 -75l-1 -7q0 -8 -2 -14q0 -19 -9.5 -26t-30.5 -9t-38 11q-24 12 -25 20t-6 21q-5 8 -7 19q0 32 -1 36q-3 4 -3 14q0 13 -6 41z" />
    <glyph glyph-name="hcircumflex" unicode="&#x125;" horiz-adv-x="426" 
d="M200 862q25 0 32 -5q24 -16 49 -42q41 -43 53 -52.5t17.5 -21t4.5 -17.5t-5 -9.5t-12.5 -6t-15.5 -6.5t-31 3q-10 0 -22 21q-12 3 -24 17.5t-25 23.5q-6 9 -11 8.5t-9.5 -7.5t-10 -15t-8 -11.5t-5.5 -7.5q-5 -9 -7 -11q-16 -17 -46 -4q-9 2 -16.5 11.5t1.5 26.5
q0 5 34 47t38 46q5 8 19 12zM166 389l-11 -136l6 14q4 9 29 42q0 3 31 53l17 20l9 14q19 15 32 15q27 4 58 -16q7 -1 18 -15q17 -13 15 -37q0 -2 -1 -6q-19 -156 -20 -218.5t10 -104.5q8 -35 -26 -49q-9 -6 -28 -2q-17 0 -25.5 4.5t-17.5 20.5l-5 20q-4 8 -4 22l-4 29
q1 2 1 26l1 26q-3 14 1 55l2 43v25q1 3 -6 14q-26 -20 -58 -134l-26 -80q-18 -64 -39 -69l-11 -2q-14 0 -38 8q-19 21 -19 42q2 4 1 9q-3 13 2 36q-1 3 -1 8l1 15q-2 5 -4 28.5t0 35.5q-2 4 6 27q-8 12 -9 27q-4 41 -2.5 61.5t1.5 38.5q-2 18 -1 43l7 81l7 58q0 7 -4.5 21.5
t-2.5 34.5t4.5 25.5t7.5 29.5q0 20 4 30l6 18q1 7 26 23h11q39 -3 57 -13q8 -5 4 -35q-2 -42 -3 -52t-5 -87t-4 -87z" />
    <glyph glyph-name="Hbar" unicode="&#x126;" horiz-adv-x="553" 
d="M377 439q6 5 3 44h-114q-33 -2 -40 -1q-18 -4 -27 -5v-7q-3 -32 -2 -37l-7 -52q7 -5 20 -5q12 2 68 1l55 2h13q19 0 26 5q0 23 5 55zM67 151q2 3 1 15q-6 38 -2 51q-4 55 -2.5 65t5.5 11q-4 6 -7.5 45.5t-1.5 52.5q-5 22 2 36q-2 2 -3 16v33q-2 0 -22 7l-22 5
q-6 15 -8 21q0 18 5 23q26 4 49 5v2l6 32q-3 6 5 19q-11 22 21 54q1 2 23 13q18 1 24.5 0t20 -2t19.5 -3q19 -6 19 -33v-18q2 -36 2 -55v-3q12 1 56.5 1t130.5 -4q0 13 6.5 28t9.5 25q4 17 23 29q27 20 48 24h18q27 -5 18 -53q0 -16 -8 -40l-4 -17v-2q47 -6 48 -11
q-4 -4 -4 -14q0 -13 -45 -17l-4 -1v-11q0 -6 -8 -43q2 -21 0.5 -26.5t-1.5 -15.5q-2 -22 -2 -31q-2 -30 -2 -49t-3 -41q0 -22 -7 -44l-3 -67q0 -8 7 -106q6 -7 4 -25t-7 -25t-10.5 -8t-16.5 -1q-22 -14 -37 -11q-11 0 -28 10t-23 26q0 8 -2.5 18t-0.5 22t1.5 25.5t-0.5 31.5
l1 12q-2 4 2 13.5t1 14.5v28l5 53q-10 8 -1 34l2 8q-12 -3 -22 -3q-28 -7 -62 -7l-90 2q0 -8 1 -10q-2 -16 -1 -50v-20q1 -27 1 -76q4 -56 4 -78l-1 -7q0 -9 -2 -15q0 -20 -9.5 -27t-30.5 -9t-38 11q-23 12 -26 23q0 7 -5 20q-5 8 -7 20q0 33 -1 37q-3 4 -3 15q0 13 -6 42z
" />
    <glyph glyph-name="hbar" unicode="&#x127;" horiz-adv-x="437" 
d="M61 335l9 91v37q0 18 1 28q-3 1 -38 22l-5 21q0 16 3 29q13 4 40 6h9q7 28 12 33q3 5 4 10q1 16 11 26l-2 -1q2 7 11 13q17 9 53 -4q7 -5 10 -6q6 -3 12 -3q18 -12 16 -22l-10 -41q108 -6 115 -8q39 -11 38.5 -16.5t-1 -13t-1.5 -9.5q-3 -6 -25 -10q-25 -5 -39 -5h-16
q-2 0 -9 -2t-23 -2h-23q-8 -1 -30 -3q-12 -56 -18 -132q13 13 30 21q39 15 62 14q72 -5 99 -58q26 -43 19 -123q-1 -18 -18 -166l-1 -30q0 -17 2.5 -25.5t2.5 -15.5q0 -16 -56 5q-2 -1 -10 0.5t-10.5 3.5t-6.5 4q-15 4 -14 17q-1 5 -3.5 11t-2 17t-1.5 32.5t-1 24.5
q8 47 12 64q10 52 2.5 100t-37.5 50q-24 0 -43 -31q-31 -61 -31 -213q0 -25 6 -48t4.5 -38.5t-28 -13t-34.5 8.5l-12 6q-12 0 -15 11q-2 4 -9 12l-18 23q-7 8 -6 14v18l-1 7q-7 7 -5.5 27t9.5 76q11 78 11 119q-1 38 0 38z" />
    <glyph glyph-name="Itilde" unicode="&#x128;" horiz-adv-x="380" 
d="M143 812l76 -5q11 -1 56 -8.5t50 -7.5t19.5 6t26.5 6q4 -5 4 -12q0 -25 -26.5 -50t-72.5 -25q-7 0 -28 4q-61 12 -151 12l-41 -10q-5 0 -5 21.5t15.5 42t76.5 26.5zM372 532.5q-8 -4.5 -16.5 -4.5t-44.5 -2q-23 -5 -46 -13h-1q0 -18 -10 -53q0 -12 -5 -39q0 -8 -3 -16
t-3 -25q-7 -41 -6 -45t0 -11t-4 -21t-3 -33t-5 -34v-11q2 -36 -2.5 -51t-4.5 -25.5t-5 -32.5t-3 -52h6q25 2 26.5 1.5t13.5 2.5l16 -1h10q3 0 13 -7.5t14 -14.5q7 -7 4.5 -13.5t-22.5 -21.5l-19 -6q-3 -3 -14 -7t-19 -4q-23 -5 -27 -17q-4 -8 -48 -6h-34l-19 -6
q-25 -10 -44 -5t-25.5 7.5t-15.5 10t-7.5 17t6.5 27.5q17 14 24 18q48 15 61 20q0 33 -2 39q3 1 7 43q1 4 -5 19v6q3 28 -1 51q0 1 4 35q5 6 0 32q4 19 7 30l1 14q0 6 6 36v10l2 8q18 74 24 108q-8 -2 -10 -2l-33 -5q-38 -10 -67 17q-25 34 -1 58q15 13 46 18q27 9 35 13
q10 0 47 22q37 5 43 5l47 6q9 1 24 -1.5t18 -6.5q13 -3 32 -12l24 -22q14 -20 19 -30q3 -13 -5 -17.5z" />
    <glyph glyph-name="itilde" unicode="&#x129;" horiz-adv-x="227" 
d="M43 612l76 -5q11 -1 56 -8.5t50 -7.5t19.5 6t26.5 6q4 -5 4 -12q0 -25 -26.5 -50t-72.5 -25q-7 0 -28 4q-61 12 -151 12l-41 -10q-5 0 -5 21.5t15.5 42t76.5 26.5zM55 361q0 30 37 30h15q2 0 32 -10q4 -4 12 -8l20 -26v-88q0 -14 -1 -36q-4 -46 4 -191q2 -18 -13 -34
q-17 0 -22 5q-4 2 -18 1t-32 19q-11 4 -12 15l-8 15q-5 6 -8 18.5t-7 96.5q0 15 2 23v24q1 11 2 40.5t3 47.5q-2 26 -2 35t-4 23z" />
    <glyph glyph-name="Imacron" unicode="&#x12a;" horiz-adv-x="380" 
d="M127 805q34 4 68 4q32 0 84 -4t56 -5q39 -11 38.5 -16.5t-1 -13t-1.5 -9.5q-3 -6 -25 -10q-25 -5 -39 -5h-16q-2 0 -9 -2t-23 -2h-23q-8 -1 -31 -3q-11 -7 -24 -4q-6 -3 -30.5 -6.5t-43 -3.5t-38.5 14l-13 8l-5 21q0 16 3 29q13 4 35.5 5t36.5 3h1zM372 532.5
q-8 -4.5 -16.5 -4.5t-44.5 -2q-23 -5 -46 -13h-1q0 -18 -10 -53q0 -12 -5 -39q0 -8 -3 -16t-3 -25q-7 -41 -6 -45t0 -11t-4 -21t-3 -33t-5 -34v-11q2 -36 -2.5 -51t-4.5 -25.5t-5 -32.5t-3 -52h6q25 2 26.5 1.5t13.5 2.5l16 -1h10q3 0 13 -7.5t14 -14.5q7 -7 4.5 -13.5
t-22.5 -21.5l-19 -6q-3 -3 -14 -7t-19 -4q-23 -5 -27 -17q-4 -8 -48 -6h-34l-19 -6q-25 -10 -44 -5t-25.5 7.5t-15.5 10t-7.5 17t6.5 27.5q17 14 24 18q48 15 61 20q0 33 -2 39q3 1 7 43q1 4 -5 19v6q3 28 -1 51q0 1 4 35q5 6 0 32q4 19 7 30l1 14q0 6 6 36v10l2 8
q18 74 24 108q-8 -2 -10 -2l-33 -5q-38 -10 -67 17q-25 34 -1 58q15 13 46 18q27 9 35 13q10 0 47 22q37 5 43 5l47 6q9 1 24 -1.5t18 -6.5q13 -3 32 -12l24 -22q14 -20 19 -30q3 -13 -5 -17.5z" />
    <glyph glyph-name="imacron" unicode="&#x12b;" horiz-adv-x="227" 
d="M27 605q34 4 68 4q32 0 84 -4t56 -5q39 -11 38.5 -16.5t-1 -13t-1.5 -9.5q-3 -6 -25 -10q-25 -5 -39 -5h-16q-2 0 -9 -2t-23 -2h-23q-8 -1 -31 -3q-11 -7 -24 -4q-6 -3 -30.5 -6.5t-43 -3.5t-38.5 14l-13 8l-5 21q0 16 3 29q13 4 35.5 5t36.5 3h1zM55 361q0 30 37 30h15
q2 0 32 -10q4 -4 12 -8l20 -26v-88q0 -14 -1 -36q-4 -46 4 -191q2 -18 -13 -34q-17 0 -22 5q-4 2 -18 1t-32 19q-11 4 -12 15l-8 15q-5 6 -8 18.5t-7 96.5q0 15 2 23v24q1 11 2 40.5t3 47.5q-2 26 -2 35t-4 23z" />
    <glyph glyph-name="Ibreve" unicode="&#x12c;" horiz-adv-x="380" 
d="M349 806q0 -19 -21 -63q-41 -49 -63 -56.5t-64.5 -2.5t-59.5 19q-45 35 -48.5 37.5t-8.5 20.5t-6 32q-2 34 12 40q10 3 29 1q31 -5 33 -16q1 -6 0 -16t0.5 -18t12.5 -16.5t20 -10.5t22.5 -3.5t30.5 6t27.5 26t9.5 30.5q11 11 26.5 10.5t22.5 -6.5q25 -11 25 -14z
M372 532.5q-8 -4.5 -16.5 -4.5t-44.5 -2q-23 -5 -46 -13h-1q0 -18 -10 -53q0 -12 -5 -39q0 -8 -3 -16t-3 -25q-7 -41 -6 -45t0 -11t-4 -21t-3 -33t-5 -34v-11q2 -36 -2.5 -51t-4.5 -25.5t-5 -32.5t-3 -52h6q25 2 26.5 1.5t13.5 2.5l16 -1h10q3 0 13 -7.5t14 -14.5
q7 -7 4.5 -13.5t-22.5 -21.5l-19 -6q-3 -3 -14 -7t-19 -4q-23 -5 -27 -17q-4 -8 -48 -6h-34l-19 -6q-25 -10 -44 -5t-25.5 7.5t-15.5 10t-7.5 17t6.5 27.5q17 14 24 18q48 15 61 20q0 33 -2 39q3 1 7 43q1 4 -5 19v6q3 28 -1 51q0 1 4 35q5 6 0 32q4 19 7 30l1 14q0 6 6 36
v10l2 8q18 74 24 108q-8 -2 -10 -2l-33 -5q-38 -10 -67 17q-25 34 -1 58q15 13 46 18q27 9 35 13q10 0 47 22q37 5 43 5l47 6q9 1 24 -1.5t18 -6.5q13 -3 32 -12l24 -22q14 -20 19 -30q3 -13 -5 -17.5z" />
    <glyph glyph-name="ibreve" unicode="&#x12d;" horiz-adv-x="227" 
d="M249 606q0 -19 -21 -63q-41 -49 -63 -56.5t-64.5 -2.5t-59.5 19q-45 35 -48.5 37.5t-8.5 20.5t-6 32q-2 34 12 40q10 3 29 1q31 -5 33 -16q1 -6 0 -16t0.5 -18t12.5 -16.5t20 -10.5t22.5 -3.5t30.5 6t27.5 26t9.5 30.5q11 11 26.5 10.5t22.5 -6.5q25 -11 25 -14zM55 361
q0 30 37 30h15q2 0 32 -10q4 -4 12 -8l20 -26v-88q0 -14 -1 -36q-4 -46 4 -191q2 -18 -13 -34q-17 0 -22 5q-4 2 -18 1t-32 19q-11 4 -12 15l-8 15q-5 6 -8 18.5t-7 96.5q0 15 2 23v24q1 11 2 40.5t3 47.5q-2 26 -2 35t-4 23z" />
    <glyph glyph-name="Iogonek" unicode="&#x12e;" horiz-adv-x="380" 
d="M372 532.5q-8 -4.5 -16.5 -4.5t-44.5 -2q-23 -5 -46 -13h-1q0 -18 -10 -53q0 -12 -5 -39q0 -8 -3 -16t-3 -25q-7 -41 -6 -45t0 -11t-4 -21t-3 -33t-5 -34v-11q2 -36 -2.5 -51t-4.5 -25.5t-5 -32.5t-3 -52h6q25 2 26.5 1.5t13.5 2.5l16 -1h10q3 0 13 -7.5t14 -14.5
q7 -7 4.5 -13.5t-22.5 -21.5l-19 -6q-6 -6 -16 -8q-38 -10 -56 -31l-22 -16q-8 -2 -16.5 -11t-8.5 -12t-3 -10q-6 -13 -3 -25q8 -37 57 -23q18 6 27 14q27 18 39 -4t-1 -39q-25 -33 -68.5 -33t-75.5 18q-43 20 -51 53q-3 14 -3 27q0 26 5 28q8 16 20 28q-24 -5 -54 6
q-7 3 -16 10.5t-7.5 17t6.5 27.5q17 14 24 18q48 15 61 20q0 33 -2 39q3 1 7 43q1 4 -5 19v6q3 28 -1 51q0 1 4 35q5 6 0 32q4 19 7 30l1 14q0 6 6 36v10l2 8q18 74 24 108q-8 -2 -10 -2l-33 -5q-38 -10 -67 17q-25 34 -1 58q15 13 46 18q27 9 35 13q10 0 47 22q37 5 43 5
l47 6q9 1 24 -1.5t18 -6.5q13 -3 32 -12l24 -22q14 -20 19 -30q3 -13 -5 -17.5z" />
    <glyph glyph-name="iogonek" unicode="&#x12f;" horiz-adv-x="227" 
d="M100 627q67 0 94 -27q0 -17 -23 -69q-4 -17 -13 -27l-13 -13q-5 -3 -10 -3q-36 -9 -56 14q-4 6 -9.5 9t-8.5 18q-9 13 -9 20q-2 62 45 78h3zM92 391q10 5 47 -10q4 -4 12 -8l16 -13q4 -4 4 -13v-88q0 -20 -2 -36v-6q-3 -41 5 -185q3 -28 -13 -34h-7q-25 -13 -34 -23
l-22 -16q-8 -2 -16.5 -11t-8.5 -12t-3 -10q-6 -13 -3 -25q8 -37 57 -23q18 6 27 14q27 18 39 -4t-1 -39q-25 -33 -68.5 -33t-75.5 18q-43 20 -51 53q-3 14 -3 27q0 26 5 28q15 28 48 53l30 20l11 10q-7 3 -8 13q-14 27 -14.5 32t-3.5 11l-5 87q0 15 2 23v24q1 11 2 40.5
t3 47.5q-2 26 -2 35t1 13q-11 11 1 30q13 10 25 10h6z" />
    <glyph glyph-name="Idotaccent" unicode="&#x130;" horiz-adv-x="380" 
d="M236 820q39 0 48 -42q0 -37 -22.5 -58t-42 -21t-48.5 18t-29 40q0 55 47 64q13 1 37 -3q0 2 10 2zM372 532.5q-8 -4.5 -16.5 -4.5t-44.5 -2q-23 -5 -46 -13h-1q0 -18 -10 -53q0 -12 -5 -39q0 -8 -3 -16t-3 -25q-7 -41 -6 -45t0 -11t-4 -21t-3 -33t-5 -34v-11
q2 -36 -2.5 -51t-4.5 -25.5t-5 -32.5t-3 -52h6q25 2 26.5 1.5t13.5 2.5l16 -1h10q3 0 13 -7.5t14 -14.5q7 -7 4.5 -13.5t-22.5 -21.5l-19 -6q-3 -3 -14 -7t-19 -4q-23 -5 -27 -17q-4 -8 -48 -6h-34l-19 -6q-25 -10 -44 -5t-25.5 7.5t-15.5 10t-7.5 17t6.5 27.5q17 14 24 18
q48 15 61 20q0 33 -2 39q3 1 7 43q1 4 -5 19v6q3 28 -1 51q0 1 4 35q5 6 0 32q4 19 7 30l1 14q0 6 6 36v10l2 8q18 74 24 108q-8 -2 -10 -2l-33 -5q-38 -10 -67 17q-25 34 -1 58q15 13 46 18q27 9 35 13q10 0 47 22q37 5 43 5l47 6q9 1 24 -1.5t18 -6.5q13 -3 32 -12l24 -22
q14 -20 19 -30q3 -13 -5 -17.5z" />
    <glyph glyph-name="dotlessi" unicode="&#x131;" horiz-adv-x="227" 
d="M55 361q0 30 37 30h15q2 0 32 -10q4 -4 12 -8l20 -26v-88q0 -14 -1 -36q-4 -46 4 -191q2 -18 -13 -34q-17 0 -22 5q-4 2 -18 1t-32 19q-11 4 -12 15l-8 15q-5 6 -8 18.5t-7 96.5q0 15 2 23v24q1 11 2 40.5t3 47.5q-2 26 -2 35t-4 23z" />
    </font>
</defs>
</svg>
