<?xml version="1.0" standalone="no"?>
<!DOCTYPE svg PUBLIC "-//W3C//DTD SVG 1.1//EN" "http://www.w3.org/Graphics/SVG/1.1/DTD/svg11.dtd" >
<svg xmlns="http://www.w3.org/2000/svg" xmlns:xlink="http://www.w3.org/1999/xlink" version="1.1">
<metadata>
Created by FontForge 20190801 at Wed Jan 18 09:25:03 2023
 By root
Decorative
</metadata>
<defs>
<font id="Cinzel-Bold" horiz-adv-x="250" >
  <font-face 
    font-family="Cinzel"
    font-weight="700"
    font-stretch="normal"
    units-per-em="1000"
    panose-1="0 0 0 0 0 0 0 0 0 0"
    ascent="800"
    descent="-200"
    x-height="600"
    cap-height="700"
    bbox="-213 -278.094 1363 1081"
    underline-thickness="50"
    underline-position="-125"
    unicode-range="U+0001-206F"
  />
<missing-glyph horiz-adv-x="364" 
d="M33 0v666h265v-666h-265zM66 33h199v600h-199v-600z" />
    <glyph glyph-name=".notdef" horiz-adv-x="364" 
d="M33 0v666h265v-666h-265zM66 33h199v600h-199v-600z" />
    <glyph glyph-name="uni0000" 
 />
    <glyph glyph-name="uni0000" 
 />
    <glyph glyph-name="uni000D" unicode="&#xd;" 
 />
    <glyph glyph-name="uni0001" 
 />
    <glyph glyph-name="uni0002" 
 />
    <glyph glyph-name="uni0003" 
 />
    <glyph glyph-name="uni0004" 
 />
    <glyph glyph-name="uni0005" 
 />
    <glyph glyph-name="uni0006" 
 />
    <glyph glyph-name="uni0007" 
 />
    <glyph glyph-name="uni0008" 
 />
    <glyph glyph-name="uni0009" unicode="&#x9;" 
 />
    <glyph glyph-name="uni000A" unicode="&#xa;" 
 />
    <glyph glyph-name="uni000B" 
 />
    <glyph glyph-name="uni000C" 
 />
    <glyph glyph-name="uni000E" 
 />
    <glyph glyph-name="uni000F" 
 />
    <glyph glyph-name="uni0010" 
 />
    <glyph glyph-name="uni0011" 
 />
    <glyph glyph-name="uni0012" 
 />
    <glyph glyph-name="uni0013" 
 />
    <glyph glyph-name="uni0014" 
 />
    <glyph glyph-name="uni0015" 
 />
    <glyph glyph-name="uni0016" 
 />
    <glyph glyph-name="uni0017" 
 />
    <glyph glyph-name="uni0018" 
 />
    <glyph glyph-name="uni0019" 
 />
    <glyph glyph-name="uni001A" 
 />
    <glyph glyph-name="uni001B" 
 />
    <glyph glyph-name="uni001C" 
 />
    <glyph glyph-name="uni001D" 
 />
    <glyph glyph-name="uni001E" 
 />
    <glyph glyph-name="uni001F" 
 />
    <glyph glyph-name="space" unicode=" " 
 />
    <glyph glyph-name="space" unicode="&#xa0;" 
 />
    <glyph glyph-name="exclam" unicode="!" horiz-adv-x="269" 
d="M133 -10q-30 0 -51 21t-21 51q0 31 21 52t51 21q31 0 52 -21t21 -52q0 -30 -21 -51t-52 -21zM157 206h-46l-35 173l-18 323h153l-18 -323z" />
    <glyph glyph-name="quotedbl" unicode="&#x22;" horiz-adv-x="363" 
d="M62 700l107 14q1 -19 -4 -50t-18 -63.5t-36 -60t-59 -40.5l-14 5q15 44 21 74t6.5 57.5t-3.5 63.5zM218 700l107 14q1 -19 -4 -50t-17.5 -63.5t-35.5 -60t-60 -40.5l-13 5q14 44 20.5 74t7 57.5t-4.5 63.5z" />
    <glyph glyph-name="numbersign" unicode="#" horiz-adv-x="575" 
d="M212 700h50l-123 -700h-50zM412 700h50l-123 -700h-50zM534 497v-48h-470v48h470zM490 265v-48h-470v48h470z" />
    <glyph glyph-name="dollar" unicode="$" horiz-adv-x="558" 
d="M266 714q22 0 52.5 -2t62 -5.5t55 -7t32.5 -7.5l-12 -135h-10q0 52 -38.5 83.5t-104.5 31.5q-37 0 -65.5 -13t-45.5 -34.5t-18 -48.5q-2 -30 18.5 -52t51.5 -41l191 -124q45 -26 68.5 -67.5t20.5 -98.5q-4 -98 -73.5 -152.5t-188.5 -54.5q-72 0 -128.5 17t-83.5 44
q-8 22 -7 53t9.5 63t21.5 53h9q-4 -52 18 -95t65.5 -68t104.5 -25q44 1 75 16t47 40.5t16 55.5t-18.5 55t-60.5 49l-175 116q-54 31 -77.5 77.5t-18.5 101.5q5 53 32 92.5t71.5 61t103.5 21.5zM469 704l-2 -21h-118v21h120zM301 788l41 -1l-68 -889l-41 3z" />
    <glyph glyph-name="percent" unicode="%" horiz-adv-x="740" 
d="M224 714q72 0 107 -47t24 -130t-63 -129.5t-131 -46.5q-72 0 -106.5 48t-21.5 134q13 81 64.5 126t126.5 45zM220 682q-28 0 -50 -38.5t-32 -106.5q-11 -68 -1.5 -106t36.5 -38q30 1 52.5 38.5t31.5 104.5q10 69 0 107.5t-37 38.5zM194 -16l-37 16l350 662
q-26 -15 -54.5 -23t-57.5 -5q-33 4 -59.5 17.5t-51 24.5t-53.5 9l-8 29q35 0 58.5 -7t40.5 -17t34.5 -18t39.5 -10q29 -2 54 6.5t46.5 20.5t37.5 20l32 -14zM567 339q70 0 105.5 -47t25.5 -130t-62 -129.5t-132 -46.5q-72 0 -107 48t-21 134q13 81 64 126t127 45zM559 307
q-29 0 -50.5 -38.5t-31.5 -106.5q-11 -68 -1.5 -106t35.5 -38q30 0 52.5 38t32.5 105q10 69 0 107.5t-37 38.5z" />
    <glyph glyph-name="ampersand" unicode="&#x26;" horiz-adv-x="807" 
d="M372 714q40 0 78.5 -8t70.5 -23.5t49 -39.5l-36 -143h-9q0 45 -13 84t-40.5 63.5t-73.5 24.5q-50 0 -81.5 -33t-31.5 -84q0 -58 43.5 -110.5t125.5 -124.5q21 -18 47.5 -42t53 -46t44.5 -38q54 -46 98 -84t81 -63.5t70 -35.5v-11q-39 -4 -90 -5t-105 10.5t-105 47.5
q-26 19 -56 43t-59.5 48.5t-54 45.5t-39.5 34q-58 50 -105.5 99t-75.5 101.5t-28 111.5q0 46 20 79.5t54.5 55.5t78 32.5t89.5 10.5zM708 346q2 -54 -7 -105.5t-31.5 -96.5t-61 -80t-96 -54.5t-137.5 -19.5q-45 0 -94 7t-94 22.5t-81.5 42t-57.5 64.5t-21 90q0 41 14 71.5
t37.5 53t50.5 36.5t53.5 22t46.5 9l19 -19q-8 -8 -19 -20t-22 -30.5t-17.5 -43.5t-4.5 -59q2 -50 22 -88.5t51.5 -64t71.5 -38.5t83 -13q53 0 92.5 22.5t65.5 58.5t38 79t10 85t-18 76q-12 24 -27 35t-35 11h-15v10h234v-10h-14q-23 0 -29.5 -14.5t-6.5 -38.5z" />
    <glyph glyph-name="quotesingle" unicode="'" horiz-adv-x="200" 
d="M56 700l107 14q1 -19 -4 -50t-18 -63.5t-36 -60t-59 -40.5l-14 5q15 44 21 74t6.5 57.5t-3.5 63.5z" />
    <glyph glyph-name="parenleft" unicode="(" horiz-adv-x="423" 
d="M394 724q-48 -23 -83.5 -76.5t-54 -132.5t-17.5 -179q2 -108 21.5 -193t53.5 -144t78 -90l-6 -9q-72 22 -127.5 65t-92.5 101.5t-56.5 127t-19.5 140.5q0 76 19 143t56.5 120t93.5 88t129 47z" />
    <glyph glyph-name="parenright" unicode=")" horiz-adv-x="423" 
d="M30 724l6 8q73 -12 128.5 -47t93.5 -88t57 -120t19 -143q0 -72 -19.5 -140.5t-57 -127t-92.5 -101.5t-127 -65l-6 9q44 31 78 90t53.5 144t21.5 193q2 100 -17 179t-54.5 132.5t-83.5 76.5z" />
    <glyph glyph-name="asterisk" unicode="*" horiz-adv-x="388" 
d="M292 474l-44 -15l-43 79l-10 62l6 5l56 -29l64 -64zM98 473l-28 38l62 65l56 29l7 -5l-11 -62l-41 -79zM37 658l28 39l80 -40l46 -44l-3 -8l-63 -9l-88 15v47zM195 773l45 -14l-13 -89l-28 -57h-8l-28 57l-14 89zM352 659l1 -48l-89 -15l-63 9l-2 8l45 44l81 41zM198 614
l3 -2l1 -6l-1 -2l-5 -4h-2h-1l-5 4v3l1 6l3 1h6z" />
    <glyph glyph-name="plus" unicode="+" horiz-adv-x="481" 
d="M40 338h402v-57h-402v57zM212 109v402h57v-402h-57z" />
    <glyph glyph-name="comma" unicode="," horiz-adv-x="231" 
d="M63 116q17 16 39.5 17.5t44.5 -10t32 -36.5q17 -38 12.5 -75.5t-25.5 -67.5t-52 -46t-68 -11l-3 11q22 9 34 26.5t10.5 40.5t-21.5 45q-13 16 -18.5 35t-2 38.5t17.5 32.5z" />
    <glyph glyph-name="hyphen" unicode="-" horiz-adv-x="380" 
d="M40 325h300l8 -33l-8 -34h-300l-8 34z" />
    <glyph glyph-name="period" unicode="." horiz-adv-x="222" 
d="M111 -10q-30 0 -51 21t-21 51q0 31 21 52t51 21q31 0 52 -21t21 -52q0 -30 -21 -51t-52 -21z" />
    <glyph glyph-name="slash" unicode="/" horiz-adv-x="426" 
d="M369 719l49 -22l-361 -711l-48 24z" />
    <glyph glyph-name="slash" unicode="&#x2215;" horiz-adv-x="426" 
d="M369 719l49 -22l-361 -711l-48 24z" />
    <glyph glyph-name="zero" unicode="0" horiz-adv-x="653" 
d="M327 714q88 0 150.5 -45t96 -126.5t33.5 -192.5t-33.5 -192.5t-96 -126.5t-150.5 -45t-151 45t-96.5 126.5t-33.5 192.5t33.5 192.5t96.5 126.5t151 45zM327 672q-62 0 -94 -81.5t-32 -240.5t32 -240.5t94 -81.5q61 0 93 81.5t32 240.5t-32 240.5t-93 81.5z" />
    <glyph glyph-name="one" unicode="1" horiz-adv-x="393" 
d="M351 0v10h-21q-22 0 -38.5 15.5t-16.5 37.5v651h-10q-23 -16 -52.5 -27.5t-61 -19t-60.5 -11.5t-49 -6v-10h26q27 0 42.5 -14t15.5 -47v-515q0 -22 -16 -38t-39 -16h-21l-1 -10h302z" />
    <glyph glyph-name="two" unicode="2" horiz-adv-x="617" 
d="M95 487l-48 154q26 23 63.5 39t81 25t85.5 9q75 0 134 -24.5t92 -69t33 -108.5q0 -49 -21 -95.5t-55.5 -88t-74.5 -78.5t-79 -67t-69 -54h206q30 0 52.5 10t41 31.5t35.5 55.5h10l-59 -226h-478v10q40 45 85.5 95.5t88.5 103.5t79 107t57 106t21 101q0 71 -36 112t-98 37
q-66 -4 -101.5 -50.5t-35.5 -134.5h-10z" />
    <glyph glyph-name="three" unicode="3" horiz-adv-x="563" 
d="M255 712q72 1 123.5 -19t79.5 -56.5t28 -87.5q0 -40 -16 -71t-42.5 -51.5t-57.5 -28t-59 0.5q31 0 65.5 -10.5t65.5 -33t50 -59.5t19 -90q0 -61 -27 -110t-74 -83t-107 -51.5t-126 -16.5t-130 23l2 10q61 -1 115.5 15.5t96.5 48t66 76.5t24 99q0 60 -27.5 96.5
t-71.5 53.5t-94 17l2 10q46 -1 86.5 20.5t65 60.5t19.5 90q-2 34 -18 58t-42.5 36.5t-61.5 10.5q-61 -3 -89.5 -46.5t-26.5 -124.5h-10l-41 142q33 30 86.5 50t126.5 21z" />
    <glyph glyph-name="four" unicode="4" horiz-adv-x="619" 
d="M324 544l140 170h10v-713h-150v543zM464 714l9 -59l-334 -357h378q28 0 40 8.5t21 23.5h10l-27 -117h-554v10zM474 64q0 -22 16.5 -38t38.5 -16h11v-10h-283l1 10h10q23 0 39.5 15.5t16.5 38.5h150z" />
    <glyph glyph-name="five" unicode="5" horiz-adv-x="554" 
d="M443 568l-279 -21l-29 -112q83 20 150.5 12.5t115.5 -37.5t72.5 -79t21.5 -113q-3 -74 -38.5 -127t-90 -86t-117 -47.5t-121 -11t-102.5 22.5l2 10q25 -1 62.5 6.5t78 24.5t76.5 43.5t60 64t27 86.5q5 61 -31 97t-98.5 42t-140.5 -24l-9 5l81 340l258 21q32 0 50 14
t29 36h10z" />
    <glyph glyph-name="six" unicode="6" horiz-adv-x="630" 
d="M497 734l4 -7q-93 -29 -149.5 -71.5t-86 -98t-39.5 -123.5t-10 -149q0 -80 9 -136t32.5 -86t65.5 -30q41 0 64 25.5t33 66.5t10 87q0 54 -10 88t-28.5 51.5t-44.5 20.5q-26 6 -49.5 -3t-39.5 -24l-7 9q18 31 49.5 50.5t69.5 26t75 -2.5t68.5 -33.5t51 -66.5t19.5 -104
q0 -64 -28.5 -118t-86 -86.5t-144.5 -34.5q-86 -1 -148 33.5t-95 104.5t-32 175q0 96 27.5 177.5t83 141.5t139.5 91.5t197 25.5z" />
    <glyph glyph-name="seven" unicode="7" horiz-adv-x="544" 
d="M17 512h10q11 30 28 45t47 15h305l-66 -158q-13 -29 -32.5 -70.5t-42.5 -88.5t-46.5 -94t-45 -89t-37.5 -72h131q7 29 20 71t28.5 89t31.5 94t30.5 86.5t25.5 65.5l120 294l-479 -2z" />
    <glyph glyph-name="eight" unicode="8" horiz-adv-x="603" 
d="M79 522q0 59 28 102t78 66.5t114 23.5q61 0 111 -20.5t80 -58.5t30 -91q0 -45 -24.5 -78.5t-65 -53t-87.5 -24.5l-31 6q30 14 47.5 42.5t24.5 61t6 60.5q-1 48 -25 80t-67 33t-66 -28t-23 -71q0 -30 12.5 -54t41 -46.5t76.5 -48.5l80 -42t73 -46t52.5 -59.5t19.5 -85.5
q0 -64 -34 -110t-96 -70t-145 -24q-47 0 -92.5 10t-81 31.5t-56.5 56t-20 84.5q0 39 15 68t38.5 49.5t50.5 34.5t53 22.5t45 13.5l39 -1q-46 -19 -77.5 -61t-31.5 -112q-1 -70 32.5 -110.5t91.5 -43.5q39 -2 67.5 12.5t44.5 40t16 55.5q0 26 -10 45.5t-29.5 36.5t-48 33.5
t-65.5 35.5q-31 17 -64.5 37t-62 47.5t-46.5 65t-18 85.5z" />
    <glyph glyph-name="nine" unicode="9" horiz-adv-x="630" 
d="M133 -38l-4 7q93 28 149.5 70.5t86 98t39.5 123t10 147.5q0 83 -9 140t-32 86t-66 29q-41 0 -64.5 -25t-33 -65.5t-9.5 -87.5q1 -54 11 -88t28.5 -52t44.5 -21q26 -5 49.5 3.5t38.5 23.5l7 -8q-19 -32 -50 -51.5t-69 -25.5t-75.5 3t-69 34t-50.5 67t-19 103
q1 68 30.5 121.5t87 84.5t141.5 32q131 2 203 -76t72 -237q0 -95 -27.5 -176.5t-83 -142t-139 -92t-197.5 -25.5z" />
    <glyph glyph-name="colon" unicode=":" horiz-adv-x="222" 
d="M111 373q-30 0 -51 21t-21 51q0 31 21 52t51 21q31 0 52 -21t21 -52q0 -30 -21 -51t-52 -21zM111 -10q-30 0 -51 21t-21 51q0 31 21 52t51 21q31 0 52 -21t21 -52q0 -30 -21 -51t-52 -21z" />
    <glyph glyph-name="semicolon" unicode=";" horiz-adv-x="231" 
d="M63 116q17 16 39.5 17.5t44.5 -10t32 -36.5q17 -38 12.5 -75.5t-25.5 -67.5t-52 -46t-68 -11l-3 11q22 9 34 26.5t10.5 40.5t-21.5 45q-13 16 -18.5 35t-2 38.5t17.5 32.5zM111 401q-30 0 -51 21t-21 51q0 31 21 52t51 21q31 0 52 -21t21 -52q0 -30 -21 -51t-52 -21z" />
    <glyph glyph-name="less" unicode="&#x3c;" horiz-adv-x="493" 
d="M442 463l-372 -177l1 47l371 -177v-62l-402 189v53l402 189v-62z" />
    <glyph glyph-name="equal" unicode="=" horiz-adv-x="481" 
d="M40 415h402v-57h-402v57zM40 240h402v-57h-402v57z" />
    <glyph glyph-name="greater" unicode="&#x3e;" horiz-adv-x="481" 
d="M40 463v62l402 -189v-53l-402 -189v62l371 177l1 -47z" />
    <glyph glyph-name="question" unicode="?" horiz-adv-x="462" 
d="M8 625q23 40 73 64.5t119 24.5q108 0 166 -46t58 -128q0 -32 -9.5 -56.5t-26 -46t-37 -41.5t-43 -41t-43.5 -46q-14 -15 -25.5 -30.5t-13.5 -33.5t12 -42l-8 -6q-36 16 -58.5 45t-19.5 68q2 26 13.5 46t28 38.5t33 38.5t27 47.5t10.5 64.5q-1 61 -27.5 94t-75.5 33
q-51 0 -80 -38.5t-29 -115.5h-10zM208 -10q-30 0 -51.5 21t-21.5 51q0 31 21.5 52t51.5 21t51 -21t21 -52q0 -30 -21 -51t-51 -21z" />
    <glyph glyph-name="at" unicode="@" horiz-adv-x="990" 
d="M625 688q112 -15 186.5 -68t110 -132.5t29.5 -175.5q-5 -90 -41.5 -171t-101.5 -143t-155 -94.5t-203 -27t-248 60.5l-4 10q103 -41 195 -44t169 26t134.5 85t92.5 133t42 169q8 90 -15 160t-72 114.5t-122 57.5q-61 12 -123.5 2t-121 -42t-108 -86t-85.5 -132
q-23 -50 -35 -99.5t-11.5 -89t16 -64t45.5 -25.5q28 -1 54 17.5t50 46.5t45.5 59t40.5 56l127 173l12 15t25.5 33.5t17.5 28.5h7l-14 -70l-135 -191q-48 -69 -85 -114.5t-70.5 -68.5t-74.5 -24q-47 -2 -84.5 22.5t-58.5 69t-20.5 103.5t28.5 127q32 76 88 136t130.5 99
t162 55t180.5 3zM546 238l-12 -31h-188l12 31h188zM645 137q4 -25 14.5 -36t25.5 -11q-1 0 2 0h3l-2 -7h-206l1 7h7q12 0 28 12.5t13 34.5h114zM578 541l75 -454h-116l-36 330z" />
    <glyph glyph-name="A" unicode="A" horiz-adv-x="717" 
d="M354 720l326 -714h-179l-208 521zM139 73q-8 -20 -3 -34t17 -21.5t24 -7.5h9v-10h-214v10h4.5h4.5q23 0 47.5 14.5t40.5 48.5h70zM354 720l4 -122l-248 -595h-73l259 586q3 6 10.5 22.5t16 37.5t15.5 40.5t7 30.5h9zM459 238v-42h-294v42h294zM474 73h175
q17 -34 41 -48.5t47 -14.5h4h4v-10h-318v10h9q20 0 35 16.5t3 46.5z" />
    <glyph glyph-name="B" unicode="B" horiz-adv-x="674" 
d="M158 700h173q73 0 130.5 -17.5t90.5 -55t33 -98.5q0 -46 -17.5 -77.5t-45.5 -49t-59 -21.5q50 -4 90.5 -28t63.5 -64t23 -94q0 -64 -35 -107.5t-98.5 -65.5t-147.5 -22h-99l0.5 11.5t0.5 22.5v11h54q45 0 79.5 17t54 53t19.5 92q0 44 -13.5 75t-36 50.5t-52.5 28.5t-63 9
v9q23 0 45 7.5t39.5 23.5t27.5 42.5t10 63.5q0 51 -16 82t-44.5 45t-67.5 14h-129q0 1 -2.5 11.5l-5 21zM269 700v-700h-150v700h150zM122 73v-73h-80v10h7h6q26 0 44.5 18.5t19.5 44.5h3zM122 627h-3q-1 26 -19.5 44.5t-44.5 18.5h-6h-7v10h80v-73z" />
    <glyph glyph-name="C" unicode="C" horiz-adv-x="780" 
d="M722 292l9 -172q-22 -37 -59 -67t-92 -48.5t-130 -18.5q-122 1 -213.5 44.5t-141.5 124.5t-50 196q0 112 49 193.5t140.5 125.5t218.5 44q80 0 143.5 -16t105.5 -39l2 -171h-9q-27 99 -88 141.5t-143 42.5q-80 0 -137 -39t-88 -110t-31 -170t29.5 -171t84 -112t128.5 -42
q77 0 130 25t85.5 83t48.5 156h8z" />
    <glyph glyph-name="D" unicode="D" horiz-adv-x="828" 
d="M405 700q118 0 204 -42.5t132.5 -121t46.5 -186.5t-46.5 -186.5t-132.5 -121t-204 -42.5h-238l-1 42h60.5h61h53.5h38h14q72 0 124 37.5t80 106.5t28 164t-28 164t-80 106.5t-124 37.5h-14.5h-39.5h-56h-64h-63v42h249zM269 700v-700h-150v700h150zM122 73v-73h-80v10
h6.5h6.5q26 0 44.5 18.5t19.5 44.5h3zM122 627h-3q0 26 -19 44.5t-45 18.5h-6h-6l-1 10h80v-73z" />
    <glyph glyph-name="E" unicode="E" horiz-adv-x="632" 
d="M269 700v-700h-150v700h150zM533 43l24 -43h-291v43h267zM496 366v-42h-230v42h230zM545 700v-43h-279v43h279zM606 204l-46 -204h-196l36 43q50 0 88 19.5t65 56t43 85.5h10zM496 326v-96h-10v9q0 36 -24 60t-61 25v2h95zM496 460v-96h-95v2q37 1 61 25.5t24 60.5v8h10z
M545 660v-117h-10v12q0 46 -27.5 74t-74.5 29v2h112zM545 718v-29l-122 11q22 0 46.5 3t45.5 7t30 8zM122 73v-73h-80v10h6.5h6.5q26 0 44.5 18.5t19.5 44.5h3zM122 627h-3q-1 26 -19.5 44.5t-44.5 18.5h-6.5h-6.5v10h80v-73z" />
    <glyph glyph-name="F" unicode="F" horiz-adv-x="596" 
d="M269 700v-700h-150v700h150zM496 366v-42h-230v42h230zM545 700v-43h-279v43h279zM496 326v-96h-10v9q0 36 -24 60t-61 25v2h95zM496 460v-96h-95v2q37 1 61 25.5t24 60.5v8h10zM545 660v-111h-10v10q0 45 -26.5 71.5t-71.5 26.5v3h108zM545 718v-29l-122 11q22 0 46.5 3
t45.5 7t30 8zM122 73v-73h-80v10h6.5h6.5q26 0 44.5 18.5t19.5 44.5h3zM122 627h-3q-1 26 -19.5 44.5t-44.5 18.5h-6.5h-6.5v10h80v-73zM266 73h3q1 -26 19.5 -44.5t44.5 -18.5h6h7v-10h-80v73z" />
    <glyph glyph-name="G" unicode="G" horiz-adv-x="836" 
d="M755 280v-165q-24 -30 -71.5 -60t-114 -49.5t-146.5 -19.5q-114 0 -199 44.5t-132 126.5t-47 194t46.5 193t133 125.5t204.5 44.5q55 0 107 -7.5t96 -19.5t73 -28l2 -171h-9q-19 68 -55 108.5t-83.5 58t-100.5 17.5q-82 0 -138 -39.5t-84.5 -112.5t-28.5 -175
q0 -96 26.5 -167.5t77.5 -110t124 -39.5q37 0 71.5 11.5t60.5 33.5t37 54l1 153q0 45 -51 45h-16v10h281v-10h-15q-52 0 -50 -45z" />
    <glyph glyph-name="H" unicode="H" horiz-adv-x="862" 
d="M743 700v-700h-150v700h150zM269 700v-700h-150v700h150zM602 369v-42h-343v42h343zM122 73v-73h-80v10h6.5h6.5q26 0 44.5 18.5t19.5 44.5h3zM122 627h-3q-1 26 -19.5 44.5t-44.5 18.5h-6.5h-6.5v10h80v-73zM266 73h3q1 -26 19.5 -44.5t44.5 -18.5h6h7v-10h-80v73z
M266 627v73h80v-10h-7h-6q-26 0 -44.5 -18.5t-19.5 -44.5h-3zM596 73v-73h-80v10h7h6q26 0 45 18.5t19 44.5h3zM596 627h-3q0 26 -19 44.5t-45 18.5h-6h-7v10h80v-73zM740 73h3q1 -26 19.5 -44.5t44.5 -18.5h6.5h6.5v-10h-80v73zM740 627v73h80v-10h-6.5h-6.5
q-26 0 -44.5 -18.5t-19.5 -44.5h-3z" />
    <glyph glyph-name="I" unicode="I" horiz-adv-x="387" 
d="M269 700v-700h-150v700h150zM122 73v-73h-80v10h6.5h6.5q26 0 44.5 18.5t19.5 44.5h3zM122 627h-3q-1 26 -19.5 44.5t-44.5 18.5h-6.5h-6.5v10h80v-73zM266 73h3q1 -26 19.5 -44.5t44.5 -18.5h6h7v-10h-80v73zM266 627v73h80v-10h-7h-6q-26 0 -44.5 -18.5t-19.5 -44.5h-3
z" />
    <glyph glyph-name="J" unicode="J" horiz-adv-x="385" 
d="M272 700v-670q0 -55 -22 -99.5t-59.5 -75.5t-85.5 -45.5t-100 -9.5v9q42 18 68 53.5t37.5 80t11.5 90.5v667h150zM125 627h-3q-1 26 -19.5 44.5t-44.5 18.5h-6.5h-6.5v10h80v-73zM269 627v73h80v-10h-6.5h-6.5q-26 0 -44.5 -18.5t-19.5 -44.5h-3z" />
    <glyph glyph-name="K" unicode="K" horiz-adv-x="757" 
d="M413 431l262 -359q23 -30 47 -45.5t55 -16.5v-10h-82q-11 0 -36.5 1t-57.5 8t-64.5 24.5t-56.5 49.5q-5 7 -20 27t-35 48t-41.5 57.5t-40.5 55.5t-30.5 42.5l-11.5 16.5zM664 693l-301 -357l-62 -6l275 363h88zM734 700v-9h-4q-33 0 -61.5 -13.5t-48.5 -35.5l-81 2
q12 17 4 32t-28 15h-10v9h225h4zM269 700v-700h-150v700h150zM122 73v-73h-80v10h6.5h6.5q26 0 44.5 18.5t19.5 44.5h3zM122 627h-3q-1 26 -19.5 44.5t-44.5 18.5h-6.5h-6.5v10h80v-73zM266 73h3q1 -26 19.5 -44.5t44.5 -18.5h6.5h6.5v-10h-80v73zM266 627v73h80v-10h-6.5
h-6.5q-26 0 -44.5 -18.5t-19.5 -44.5h-3z" />
    <glyph glyph-name="L" unicode="L" horiz-adv-x="617" 
d="M269 700v-700h-150v700h150zM533 43l24 -43h-291v43h267zM606 204l-46 -204h-196l36 43q50 0 88 19.5t65 56t43 85.5h10zM122 73v-73h-80v10h6.5h6.5q26 0 44.5 18.5t19.5 44.5h3zM122 627h-3q-1 26 -19.5 44.5t-44.5 18.5h-6.5h-6.5v10h80v-73zM266 627v73h80v-10h-7h-6
q-26 0 -44.5 -18.5t-19.5 -44.5h-3z" />
    <glyph glyph-name="M" unicode="M" horiz-adv-x="953" 
d="M780 714l8 -109l-297 -515l-10 -17.5t-19.5 -42.5t-9.5 -50h-10l-39 87zM102 73v-73h-111v10h8.5h7.5q27 0 48 16.5t25 46.5h22zM146 57v-2v-3q0 -16 11.5 -29.5t27.5 -13.5h16v-9h-62v57h7zM163 714h9l35 -100l-67 -614h-69zM172 714l327 -537l-57 -197l-296 497z
M789 714l95 -714h-161l-50 460l107 254h9zM853 73h21q5 -30 26 -46.5t47 -16.5h8h8v-10h-110v73zM717 57h7v-57h-61v9h15q17 0 28 13.5t11 29.5v3v2z" />
    <glyph glyph-name="N" unicode="N" horiz-adv-x="865" 
d="M108 715l638 -608l12 -121l-638 607zM113 71v-71h-83v10h9h10q25 0 43 18t18 43h3zM253 71q0 -25 18 -43t43 -18h10h9v-10h-83v71h3zM108 715l144 -153l1 -562h-143v590q0 56 -6 90.5l-6 34.5h10zM755 700v-586q0 -37 3 -66.5t6 -45.5l3 -16h-9l-145 162v552h142z
M835 700v-10h-9h-9q-25 0 -43 -17.5t-19 -43.5h-3v71h83zM532 700h83v-71h-2q-1 26 -18.5 43.5t-43.5 17.5h-9h-10v10z" />
    <glyph glyph-name="O" unicode="O" horiz-adv-x="879" 
d="M442 714q120 0 208.5 -44.5t137 -125.5t48.5 -194q0 -112 -48.5 -193.5t-137 -126t-208.5 -44.5t-208.5 44.5t-136.5 125.5t-48 194q0 112 48 193.5t136.5 126t208.5 44.5zM442 28q71 0 122.5 39.5t79 111.5t27.5 171t-27.5 171t-79 111.5t-122.5 39.5
q-70 0 -121.5 -39.5t-79.5 -111.5t-28 -171t28 -171t79.5 -111.5t121.5 -39.5z" />
    <glyph glyph-name="P" unicode="P" horiz-adv-x="656" 
d="M259 700h120q86 0 139.5 -25t80 -68.5t28.5 -98.5q2 -51 -17 -93t-52.5 -70t-75.5 -40.5t-87.5 -6t-88.5 34.5v10h12.5t32 4t41 15t40.5 34t29 61q4 13 5.5 29.5t0.5 30.5q-1 64 -34.5 102.5t-94.5 38.5h-69l-2.5 10.5l-5 21zM272 700v-700h-150v700h150zM125 73v-73h-80
v10h6.5h6.5q26 0 44.5 18.5t19.5 44.5h3zM125 627h-3q0 26 -19 44.5t-45 18.5h-6h-6l-1 10h80v-73zM269 73h3q1 -26 19.5 -44.5t44.5 -18.5h6.5h6.5v-10h-80v73z" />
    <glyph glyph-name="Q" unicode="Q" horiz-adv-x="883" 
d="M435 -14l-29 40q58 -4 105 -10.5t89 -16t84.5 -23.5t92 -32t111.5 -42q67 -26 132.5 -38t125.5 -9t112 21t93 52l6 -4q-3 -47 -30 -88t-75 -70t-113.5 -39.5t-144.5 3t-168 58.5q-56 28 -106 60.5t-97.5 62.5t-93.5 50.5t-94 24.5zM441 714q120 0 208.5 -44.5
t136.5 -125.5t48 -194q0 -112 -48 -193.5t-137 -126t-208 -44.5q-120 0 -208.5 44.5t-136.5 125.5t-48 194q0 112 48 193.5t136.5 126t208.5 44.5zM441 28q71 0 122.5 39.5t79 111.5t27.5 171t-27.5 171t-79 111.5t-122.5 39.5t-122.5 -39.5t-79.5 -111.5t-28 -171
t28.5 -171t80 -111.5t121.5 -39.5z" />
    <glyph glyph-name="R" unicode="R" horiz-adv-x="747" 
d="M259 700h129q45 0 88 -10t76.5 -32t53.5 -58t20 -89q0 -42 -17.5 -83.5t-53.5 -71t-93 -35.5q32 -10 58.5 -36t43.5 -52q1 -2 11.5 -18t26 -39.5t32.5 -47.5t31 -42q22 -27 40 -43.5t38 -24t46 -8.5v-10h-98q-54 0 -98 10t-78 32.5t-59 61.5q-8 12 -17.5 30.5t-19.5 39.5
t-19.5 40.5t-16.5 35.5t-10 25q-13 32 -30.5 48t-37.5 19v10h12h19q27 0 52.5 11t45.5 36t28 69q2 9 3.5 21t0.5 27q-3 72 -36 105.5t-82 34.5q-14 1 -30.5 0.5t-30 -0.5h-18.5q0 1 -2.5 11.5t-5 21.5zM272 700v-700h-150v700h150zM125 73v-73h-80v10h6.5h6.5
q26 0 44.5 18.5t19.5 44.5h3zM125 627h-3q-1 26 -19.5 44.5t-44.5 18.5h-6.5h-6.5v10h80v-73zM269 73h3q0 -26 19 -44.5t45 -18.5h7h5v-10h-79v73z" />
    <glyph glyph-name="S" unicode="S" horiz-adv-x="578" 
d="M277 714q20 0 49.5 -2t61 -5.5t55 -7t32.5 -7.5l-12 -135h-10q0 52 -38.5 83.5t-102.5 31.5q-58 0 -93.5 -28t-37.5 -68q-1 -30 19 -52t51 -41l191 -124q46 -26 69.5 -68t20.5 -98q-5 -98 -75 -152.5t-190 -54.5q-44 0 -85.5 7.5t-73.5 21t-51 32.5q-8 22 -7 53t9.5 63
t21.5 53h9q-4 -51 18.5 -94.5t66 -69t103.5 -24.5q66 1 102 33.5t36 78.5q0 31 -18.5 56t-60.5 48l-175 116q-53 30 -77 77t-18 102q4 52 30 91.5t71.5 61.5t108.5 22zM476 704l-2 -21h-118v21h120z" />
    <glyph glyph-name="T" unicode="T" horiz-adv-x="667" 
d="M409 697v-697h-150v697h150zM654 701v-42h-640v42h640zM654 662v-118l-10 1v11q0 47 -27.5 74.5t-74.5 28.5v3h112zM654 719v-29l-122 11q22 0 46.5 3t45.5 7t30 8zM262 73v-73h-80v10h6.5h6.5q26 0 44.5 18.5t19.5 44.5h3zM406 73h3q1 -26 19.5 -44.5t44.5 -18.5h6.5
h6.5v-10h-80v73zM125 662v-3q-46 -1 -73.5 -28.5t-27.5 -74.5v-11l-10 -1v118h111zM14 719q10 -4 30.5 -8t45.5 -7t46 -3l-122 -11v29z" />
    <glyph glyph-name="U" unicode="U" horiz-adv-x="821" 
d="M257 700v-440q0 -71 23.5 -123t67 -80t103.5 -28q61 0 105.5 26.5t68.5 75.5t24 116v453h72v-447q0 -82 -34.5 -142t-99 -92.5t-155.5 -32.5q-106 0 -179 32.5t-109.5 92t-36.5 141.5v448h150zM110 700v-60h-3q0 22 -15.5 36t-37.5 14h-8h-8v10h72zM326 700v-10h-8h-8
q-22 0 -37.5 -14t-15.5 -36h-2v60h71zM652 700v-60h-3q0 22 -15.5 36t-37.5 14h-8h-8v10h72zM790 700v-10h-8h-8q-22 0 -37.5 -14t-15.5 -36h-2v60h71z" />
    <glyph glyph-name="V" unicode="V" horiz-adv-x="728" 
d="M368 -20l-331 714h179l213 -521zM368 -20l-3 122l254 595h72l-265 -586q-2 -6 -9.5 -22.5t-16.5 -37.5t-15.5 -40.5t-7.5 -30.5h-9zM589 627q13 30 -3 46.5t-35 16.5h-9v10h214v-10h-4.5h-4.5q-22 0 -46.5 -14.5t-40.5 -48.5h-71zM244 627h-176q-16 34 -40.5 48.5
t-47.5 14.5h-4h-4v10h318v-10h-9q-19 0 -33.5 -16.5t-3.5 -46.5z" />
    <glyph glyph-name="W" unicode="W" horiz-adv-x="971" 
d="M38 694h162l160 -452l-60 -260zM537 716l18 -99l-222 -524l-6 -17t-11.5 -42t-6.5 -52h-9l-28 119l256 615h9zM537 715l220 -486l-48 -247l-241 533zM924 694l-188 -601l-5 -17.5t-9.5 -43t-2.5 -50.5h-10l-28 99l175 613h68zM837 628q8 30 -5 46t-33 16h-9v10h209v-10
h-4h-4q-23 0 -50 -14.5t-38 -47.5h-66zM224 628h-162q-13 33 -39 47.5t-49 14.5h-4h-4v10h305v-10h-9q-19 0 -33.5 -16t-4.5 -46z" />
    <glyph glyph-name="X" unicode="X" horiz-adv-x="729" 
d="M232 700l453 -699h-177l-451 699h175zM175 72q-9 -14 -5.5 -28.5t15.5 -24t25 -9.5h6.5h6.5v-10h-247v10h14q32 0 58 18t43 41zM298 362l49 -38l-221 -324h-84zM462 72l179 -4q16 -23 43 -40.5t58 -17.5h14v-10h-341v10h6.5h6.5q20 0 33.5 20t0.5 42zM325 700v-10h-6h-6
q-13 0 -24.5 -9.5t-15 -24t5.5 -28.5l-178 3q-16 23 -42.5 41t-58.5 18h-14v10h339zM656 700l-242 -359l-41 49l198 310h85zM724 700v-10h-14q-31 0 -57.5 -18t-43.5 -41l-84 -3q9 14 5.5 28.5t-14.5 24t-25 9.5h-6h-6l-1 10h246z" />
    <glyph glyph-name="Y" unicode="Y" horiz-adv-x="702" 
d="M213 699l205 -372l-142 -14l-234 386h171zM423 322v-322h-150v322h150zM584 699h78l-250 -397l-50 10zM543 628q9 14 5 28.5t-15 24t-25 9.5h-6h-6v10h239v-10h-14q-31 0 -58.5 -18t-42.5 -41zM252 628l-169 3q-14 23 -41 41t-59 18h-14v10h331v-10h-6.5h-6.5
q-22 0 -33.5 -20.5t-1.5 -41.5zM276 73v-73h-80v10h6h7q26 0 44.5 18.5t19.5 44.5h3zM420 73h3q0 -26 19 -44.5t45 -18.5h6h6v-10h-79v73z" />
    <glyph glyph-name="Z" unicode="Z" horiz-adv-x="661" 
d="M605 714v-4.5v-4.5l-395 -705h-165v9l366 650h-352v42h440q20 0 42.5 2t40 5t23.5 6zM594 42l-6 -42h-473v42h479zM633 201l-36 -201h-183l13 32l16 10q66 0 113.5 43.5t66.5 115.5h10zM170 659q-47 -1 -74 -28.5t-27 -74.5v-12h-10v118h111v-3zM59 719q10 -4 30.5 -8
t45.5 -7t46 -3l-122 -11v29z" />
    <glyph glyph-name="bracketleft" unicode="[" horiz-adv-x="417" 
d="M120 722h254v-10l-104 -38v-716l107 -38v-10h-257v812z" />
    <glyph glyph-name="backslash" unicode="\" horiz-adv-x="426" 
d="M57 719l361 -709l-48 -24l-361 711z" />
    <glyph glyph-name="bracketright" unicode="]" horiz-adv-x="417" 
d="M297 722v-812h-257v10l107 38v716l-104 38v10h254z" />
    <glyph glyph-name="asciicircum" unicode="^" horiz-adv-x="553" 
d="M35 176h79l163 153l163 -153h78l-208 201h-65z" />
    <glyph glyph-name="underscore" unicode="_" horiz-adv-x="500" 
d="M0 -60h500v-42h-500v42z" />
    <glyph glyph-name="grave" unicode="`" horiz-adv-x="537" 
d="M273 751l-7 -7q-33 8 -69.5 22t-71 31.5t-64.5 36.5q9 28 25 48t43 34q21 -20 48.5 -47t53 -57.5t42.5 -60.5z" />
    <glyph glyph-name="a" unicode="a" horiz-adv-x="644" 
d="M319 627l296 -622h-169l-186 439zM131 66q-11 -27 3 -41.5t31 -14.5h8v-10h-200v10h4h4q20 0 42 12.5t36 43.5h72zM319 627l2 -120l-217 -504h-74l234 503q2 6 9 21.5t15 35t15 37t8 27.5h8zM406 196v-39h-255v39h255zM421 66h165q15 -31 37 -43.5t42 -12.5h4h4v-10h-294
v10h8q17 0 31 14.5t3 41.5z" />
    <glyph glyph-name="b" unicode="b" horiz-adv-x="604" 
d="M139 600h166q39 0 79 -6t73 -22t53 -45t20 -76q0 -38 -16 -65t-41 -42t-53 -17q44 -3 79 -23t56.5 -54t21.5 -79q0 -47 -20 -79.5t-55 -53t-80.5 -29.5t-95.5 -9h-90v10v20v10h48q36 0 65.5 13.5t47.5 44.5t18 82q0 35 -10.5 61.5t-29.5 43t-45 24.5t-57 8v9q22 0 42 6.5
t34.5 20t23 35.5t8.5 53q0 67 -31 93.5t-78 26.5h-124q0 1 -2.5 10.5t-4.5 19zM243 600v-600h-141v600h141zM105 63v-63h-69v10h5.5h5.5q24 0 39.5 15.5t15.5 37.5h3zM105 537h-3q0 24 -15.5 38.5t-39.5 14.5h-5.5h-5.5v10h69v-63z" />
    <glyph glyph-name="c" unicode="c" horiz-adv-x="683" 
d="M634 251l11 -151q-19 -32 -53 -57.5t-83 -40.5t-114 -15q-112 1 -193 38t-124.5 106.5t-43.5 169.5q0 98 43 167.5t124 107t194 37.5q68 0 126.5 -13t97.5 -33l1 -159h-8q-25 92 -79 129t-129 37q-72 0 -120.5 -34t-73 -95t-24.5 -143q0 -83 24.5 -144t71.5 -95t113 -36
q71 0 117.5 22t74 71t39.5 131h8z" />
    <glyph glyph-name="d" unicode="d" horiz-adv-x="748" 
d="M371 600q107 0 184 -35.5t118 -103t41 -161.5t-41 -161t-118 -103t-184 -36h-222l-2 40h122.5h68h21.5q94 0 148.5 69t54.5 191t-54.5 191.5t-148.5 69.5h-22h-71h-129v39h234zM246 600v-600h-144v600h144zM105 64v-64h-72v10h6h7q23 0 39.5 16t16.5 38h3zM104 537h-2
q-1 23 -17.5 38t-39.5 15h-6h-6v10h71v-63z" />
    <glyph glyph-name="e" unicode="e" horiz-adv-x="564" 
d="M245 600v-600h-144v600h144zM479 40l23 -40h-259v40h236zM445 317v-40h-202v40h202zM490 600v-40h-247v40h247zM543 184l-38 -184h-173l31 40q43 0 76.5 17.5t57.5 50t37 76.5h9zM445 279v-88h-10v8q0 33 -20.5 55.5t-55.5 22.5v2h86zM445 403v-88h-86v2q35 1 55.5 23.5
t20.5 55.5v7h10zM490 562v-106h-10v9q0 44 -23.5 69t-67.5 26v2h101zM490 615v-24l-105 9q29 0 61 5.5t44 9.5zM104 63l4 -63h-74v10h6h7q22 0 38 15.5t16 37.5h3zM104 537h-3q0 23 -16 38t-38 15h-7h-6v10h74z" />
    <glyph glyph-name="f" unicode="f" horiz-adv-x="535" 
d="M245 600v-600h-144v600h144zM446 317v-40h-203v40h203zM492 600v-40h-249v40h249zM446 279v-88h-10v8q0 33 -20.5 55.5t-56.5 22.5v2h87zM446 403v-88h-87v2q36 1 56.5 23.5t20.5 55.5v7h10zM492 563v-108h-11v10q0 43 -24 68.5t-68 26.5v3h103zM492 615v-24l-106 9
q19 0 40.5 2.5t39.5 6t26 6.5zM104 63l4 -63h-74v10h6h7q22 0 38 15.5t16 37.5h3zM104 537h-3q0 23 -16 38t-38 15h-7h-6v10h74zM243 63h2q1 -22 16.5 -37.5t38.5 -15.5h6h7l-1 -10h-73z" />
    <glyph glyph-name="g" unicode="g" horiz-adv-x="730" 
d="M370 613q46 0 92.5 -5.5t87 -16t68.5 -24.5v-159h-8q-16 64 -47.5 100t-72.5 51t-89 15q-70 0 -118 -33t-72.5 -95.5t-24.5 -150.5q0 -83 22 -143t65 -93t104 -33q32 0 61 10.5t51 31t31 50.5l1 120q0 20 -11.5 30t-32.5 10h-14v9h257v-9h-13q-44 0 -43 -40v-133
q-21 -27 -65 -54.5t-104 -45.5t-131 -18q-100 1 -174 38.5t-115 107.5t-41 168t41 167.5t116 107t179 37.5z" />
    <glyph glyph-name="h" unicode="h" horiz-adv-x="751" 
d="M651 600v-600h-143v600h143zM244 600v-600h-144v600h144zM516 319v-40h-281v40h281zM103 63v-63h-69v10h5.5h6.5q22 0 38 15.5t16 37.5h3zM242 63h2q1 -22 17 -37.5t38 -15.5h5.5h5.5v-10h-68v63zM242 537v63h68v-10h-5.5h-5.5q-22 0 -38 -15t-17 -38h-2zM103 537h-3
q0 23 -16 38t-38 15h-6.5h-5.5v10h69v-63zM510 63v-63h-68v10h5.5h5.5q22 0 38 15.5t16 37.5h3zM648 63h3q1 -22 16.5 -37.5t38.5 -15.5h5.5h5.5v-10h-69v63zM649 537v63h68v-10h-5.5h-5.5q-23 0 -38.5 -15t-15.5 -38h-3zM510 537h-3q0 23 -16 38t-38 15h-5.5h-5.5v10h68
v-63z" />
    <glyph glyph-name="i" unicode="i" horiz-adv-x="352" 
d="M248 600v-600h-144v600h144zM107 63v-63h-73v10h6h7q23 0 40 15.5t17 37.5h3zM246 63h2q1 -22 17.5 -37.5t40.5 -15.5h5.5h6.5v-10h-72v63zM246 537v63h72l-1 -10h-5h-6q-24 0 -40.5 -15t-17.5 -38h-2zM107 537h-3q0 23 -17 38t-41 15h-6h-6v10h73v-63z" />
    <glyph glyph-name="j" unicode="j" horiz-adv-x="341" 
d="M245 600v-569q0 -49 -21 -89.5t-56 -68t-79 -40t-92 -7.5v9q39 17 61.5 48t32 70.5t9.5 79.5v567h145zM104 600v-65h-3q-1 23 -17.5 39t-41.5 16h-11l-1 10h74zM315 600v-10h-12q-24 0 -40.5 -16t-17.5 -39h-3v65h73z" />
    <glyph glyph-name="k" unicode="k" horiz-adv-x="673" 
d="M382 377l224 -310q19 -28 40 -42.5t49 -15.5v-9h-77q-10 0 -33 1t-52.5 7.5t-59.5 22.5t-53 46q-5 7 -17 24t-28.5 40t-34 47t-32.5 45t-24 34l-9 13zM594 594l-261 -308l-58 -6l237 314h82zM655 601v-10h-4q-28 0 -53 -11t-41 -30l-77 2q11 14 4 26.5t-24 12.5h-9v10
h200h4zM246 601v-601h-144v601h144zM104 63v-63h-68v10h4.5h5.5q23 0 39 15.5t17 37.5h2zM243 63h3q0 -22 16 -37.5t39 -15.5h6h5v-10h-69v63zM243 537v64h69v-10h-5.5h-5.5q-23 0 -39 -15.5t-16 -38.5h-3zM104 537h-2q-1 23 -17 38.5t-39 15.5h-5h-6v10h69v-64z" />
    <glyph glyph-name="l" unicode="l" horiz-adv-x="549" 
d="M245 600v-600h-144v600h144zM478 40l24 -40h-259v40h235zM544 184l-39 -184h-173l31 40q43 0 76.5 17.5t57.5 50t37 76.5h10zM104 63l4 -63h-74v10h6h7q22 0 38 15.5t16 37.5h3zM243 537v63h69v-10h-6.5h-5.5q-22 0 -38 -15t-17 -38h-2zM104 537h-3q0 23 -16.5 38
t-38.5 15h-6.5h-5.5v10h70v-63z" />
    <glyph glyph-name="m" unicode="m" horiz-adv-x="863" 
d="M705 613l8 -103l-269 -427l-9 -16.5t-17.5 -39.5t-9.5 -46h-9l-39 82zM90 64v-64h-98v10h6.5h6.5q25 0 43.5 14t22.5 40h19zM134 50q-1 -11 6.5 -25.5t27.5 -14.5h14v-10h-60l6 50h6zM149 613h8l34 -96l-63 -517h-65zM157 613l296 -443l-54 -189l-266 403zM714 613
l88 -613h-153l-49 365l105 248h9zM774 64h19q5 -26 23.5 -40t41.5 -14h7h7v-10h-98v64zM642 50h6l6 -50h-60v10h14q22 0 29 14.5t5 25.5z" />
    <glyph glyph-name="n" unicode="n" horiz-adv-x="779" 
d="M91 614l587 -516l10 -111l-586 516zM95 61v-61h-74v10h8h8q23 0 39 14.5t16 36.5h3zM229 61q1 -22 17 -36.5t38 -14.5h8h8v-10h-73v61h2zM91 614l138 -150v-464h-137v500q0 51 -5 82.5l-5 31.5h9zM687 600v-496q0 -35 2.5 -61.5t5 -41l2.5 -14.5h-9l-138 159v454h137z
M684 539v61h75v-10h-8.5h-8.5q-22 0 -38.5 -14.5t-16.5 -36.5h-3zM550 539q-1 22 -16.5 36.5t-38.5 14.5h-8.5h-8.5v10h74v-61h-2z" />
    <glyph glyph-name="o" unicode="o" horiz-adv-x="777" 
d="M388 613q80 0 145 -21.5t112 -62.5t72.5 -99t25.5 -131q0 -72 -25.5 -129.5t-72.5 -98.5t-112 -62.5t-145 -21.5q-79 0 -144 21.5t-112 62.5t-72 98.5t-25 129.5q0 73 25 131t72 99t112 62.5t144 21.5zM388 26q61 0 106.5 33.5t70 94.5t24.5 145q0 85 -24.5 146.5t-70 95
t-106.5 33.5q-60 0 -105 -33.5t-70 -95t-25 -146.5q0 -84 25 -145t70 -94.5t105 -33.5z" />
    <glyph glyph-name="p" unicode="p" horiz-adv-x="586" 
d="M234 600h96q81 0 131 -22t75 -59.5t27 -84.5q2 -59 -23.5 -103t-68.5 -67t-94 -20.5t-101 35.5v9h10.5t26.5 3.5t33.5 13.5t33.5 30t25 54q3 12 4.5 26.5t0.5 25.5q-1 55 -32.5 87.5t-87.5 32.5h-47l-2 9.5t-4.5 19.5zM245 600v-600h-144v600h144zM104 63l3 -63h-72v10h6
h6q22 0 38 15.5t16 37.5h3zM103 538h-2q0 23 -16 37.5t-38 14.5h-6.5h-6.5v10h73zM243 63h2q1 -22 16 -37.5t38 -15.5h6.5h5.5v-10h-73z" />
    <glyph glyph-name="q" unicode="q" horiz-adv-x="767" 
d="M380 613q78 0 141.5 -21.5t109 -62.5t70 -99t24.5 -131q0 -72 -24.5 -129.5t-70 -98.5t-109 -62.5t-141.5 -21.5t-141.5 21.5t-109 62.5t-70 98.5t-24.5 129.5q0 73 24.5 131t70 99t109 62.5t141.5 21.5zM380 26q58 0 101.5 33.5t67 94.5t23.5 145q0 85 -23.5 146.5
t-67 95t-101.5 33.5t-101.5 -33.5t-67 -95t-23.5 -146.5q0 -84 23.5 -145t67 -94.5t101.5 -33.5zM378 -12l-30 36q55 -4 98 -9.5t79 -13.5t72 -19t77 -25.5t94 -35.5q59 -22 114.5 -32.5t105.5 -8t93.5 17.5t77.5 42l5 -3q-2 -45 -25 -83t-64.5 -63.5t-98 -34.5t-125 4
t-145.5 53q-48 25 -90.5 54t-81.5 55.5t-77 44t-79 21.5z" />
    <glyph glyph-name="r" unicode="r" horiz-adv-x="658" 
d="M241 600h107q42 0 81 -8.5t70 -27t49.5 -50t18.5 -78.5q0 -35 -14.5 -69.5t-45 -59.5t-79.5 -33q29 -9 55.5 -35t40.5 -49q5 -8 15 -25.5t25.5 -40t32.5 -46.5q20 -27 35 -41.5t31 -20.5t37 -6v-10h-84q-54 0 -91.5 8t-64.5 29.5t-51 58.5q-9 13 -19 31.5t-20 37.5
t-17.5 37t-10.5 30q-13 32 -29.5 46.5t-30.5 14.5v9h7h18q21 0 41.5 7.5t37.5 29t25 63.5q2 6 3.5 17t0.5 25q-2 37 -13.5 59t-28.5 34t-34.5 16.5t-30.5 4.5q-19 1 -34.5 0.5t-23.5 0.5q-1 0 -3 10.5t-4 20.5zM251 600v-600h-145v600h145zM109 63l4 -63h-72v10h5.5h6.5
q22 0 37.5 15.5t16.5 37.5h2zM109 538h-2q-1 23 -16.5 37.5t-36.5 14.5h-7.5h-5.5v10h72zM249 63h2q0 -25 17.5 -39t36.5 -14h4.5h6.5v-10h-72z" />
    <glyph glyph-name="s" unicode="s" horiz-adv-x="515" 
d="M238 613q20 0 48.5 -2t56.5 -4.5t49.5 -6t29.5 -6.5l-13 -122h-9q0 46 -32 73t-92 27q-48 0 -77.5 -21t-31.5 -56q-2 -18 6.5 -32.5t24 -25.5t34.5 -22l157 -97q40 -20 63 -58t20 -92q-3 -56 -32.5 -97t-81 -62.5t-121.5 -21.5q-43 0 -80 7t-63.5 19t-40.5 27
q-8 20 -7 48.5t9 57t20 47.5h8q-3 -45 16 -83t57.5 -60.5t91.5 -22.5q58 0 87 27t29 64q0 26 -17.5 47.5t-57.5 42.5l-142 90q-50 26 -72.5 69t-16.5 94q5 48 28.5 82t62.5 52t89 18zM422 604l-1 -18h-107v18h108z" />
    <glyph glyph-name="t" unicode="t" horiz-adv-x="599" 
d="M372 597v-597h-145v597h145zM589 601v-40h-579v40h579zM589 564v-106h-10v9q1 43 -23.5 68t-67.5 26v3h101zM589 616v-25l-105 10q19 0 41 2.5t40 6t24 6.5zM229 63v-63h-67v10h5.5h5.5q22 0 37.5 15.5t16.5 37.5h2zM369 63h3q0 -22 16 -37.5t39 -15.5h5.5h5.5v-10h-69
v63zM112 564v-3q-44 -1 -67.5 -26t-23.5 -68v-9h-11v106h102zM10 616q9 -2 26.5 -6t39 -6.5t39.5 -2.5l-105 -10v25z" />
    <glyph glyph-name="u" unicode="u" horiz-adv-x="705" 
d="M231 600v-377q0 -92 42.5 -144t118.5 -52q79 0 122.5 49t44.5 136v388h66v-382q0 -107 -65.5 -169t-185.5 -62q-144 0 -215.5 61.5t-71.5 168.5v383h144zM89 600v-52h-2q-1 19 -14 31t-32 12h-7h-7v9h62zM290 600v-9h-7h-7q-19 0 -32 -12t-13 -31h-2v52h61zM561 600v-52
h-2q-1 19 -14 31t-31 12h-7h-7v9h61zM684 600v-9h-6.5h-6.5q-19 0 -32.5 -12t-13.5 -31h-2v52h61z" />
    <glyph glyph-name="v" unicode="v" horiz-adv-x="637" 
d="M322 -13l-294 608h170l182 -424zM322 -13l-4 117l217 493h73l-231 -488q-2 -5 -9 -20.5t-15 -35t-14.5 -37.5t-7.5 -29h-9zM507 534q11 27 -2.5 42t-31.5 15h-7v9h199v-10h-4h-4q-20 0 -42 -12.5t-37 -43.5h-71zM224 534h-166q-15 31 -36.5 43.5t-41.5 12.5h-3.5h-3.5v10
h293v-9h-8q-16 0 -30 -15t-4 -42z" />
    <glyph glyph-name="w" unicode="w" horiz-adv-x="870" 
d="M40 594h155l135 -356l-56 -249zM487 614l18 -92l-199 -432l-5.5 -15t-11.5 -38t-6 -48h-9l-27 111l232 514h8zM487 614l196 -395l-47 -230l-215 433zM825 594l-164 -504l-4.5 -16t-8.5 -39.5t-3 -45.5h-9l-27 90l152 515h64zM743 535q8 29 -3.5 42t-28.5 13h-8v10h188
v-10h-3.5h-3.5q-23 0 -46 -13.5t-32 -41.5h-63zM218 535h-155q-11 28 -32 41.5t-46 13.5h-4h-4v10h281v-10h-9q-16 0 -28.5 -13t-2.5 -42z" />
    <glyph glyph-name="x" unicode="x" horiz-adv-x="650" 
d="M220 600l387 -599h-167l-385 599h165zM160 62q-13 -19 -0.5 -35.5t30.5 -16.5h5.5h5.5v-10h-220v10h13q27 0 49.5 14.5t38.5 34.5zM271 306l42 -35l-197 -270l-76 2zM401 61l168 -3q14 -19 37.5 -33.5t51.5 -14.5h12v-10h-310v10h5.5h5.5q18 0 30 16.5t0 34.5zM300 601
v-10h-5.5h-5.5q-17 0 -29 -17t-1 -34l-166 3q-14 19 -37.5 33.5t-51.5 14.5h-12v10h308zM587 600l-211 -309l-33 52l167 257h77zM649 601v-10h-13q-27 0 -50.5 -14t-37.5 -34l-77 -3q11 17 -0.5 34t-29.5 17h-5.5h-5.5v10h219z" />
    <glyph glyph-name="y" unicode="y" horiz-adv-x="636" 
d="M196 599l188 -325l-133 -15l-219 340h164zM390 272v-272h-144v270zM532 599h73l-225 -347l-47 9zM496 538q11 19 0 35.5t-30 16.5h-6h-6v10h215v-10h-13q-27 0 -50.5 -14.5t-37.5 -34.5zM231 538l-162 3q-14 21 -37 35t-51 14h-12v10h304v-10h-5.5h-5.5q-20 0 -30.5 -17
t-0.5 -35zM249 63v-63h-71v10h6.5h5.5q23 0 39 15.5t17 37.5h3zM388 63h2q1 -22 17.5 -37.5t38.5 -15.5h6h6v-10h-70v63z" />
    <glyph glyph-name="z" unicode="z" horiz-adv-x="607" 
d="M555 613v-4v-4l-348 -605h-172v8l329 553h-315v40h404q19 0 40.5 1.5t38.5 4.5t23 6zM545 39l-7 -39h-437v39h444zM592 184l-43 -184h-181l34 39q47 0 82 17.5t59.5 50t38.5 77.5h10zM49 564h102v-3q-43 0 -67.5 -25.5t-24.5 -69.5v-8h-10v106zM49 616q8 -3 26.5 -6.5
t41 -6t41.5 -2.5l-109 -10v25z" />
    <glyph glyph-name="braceleft" unicode="{" horiz-adv-x="379" 
d="M132 340q5 13 -0.5 42t-12.5 66t-7 71q0 58 24.5 106.5t77 78t137.5 29.5l2 -8q-46 -12 -65 -39.5t-22.5 -67.5t-3.5 -89q0 -60 -6 -97.5t-18.5 -60t-31.5 -34.5t-47 -21q28 -7 47.5 -21t32 -38t18 -59t5.5 -86q0 -38 -0.5 -71.5t5 -60t22 -45t51.5 -27.5l-2 -8
q-84 0 -133.5 29.5t-71 77.5t-21.5 105q0 36 6.5 72.5t11.5 65t-1 42.5q-4 12 -18 16.5t-26 5.5v10q14 1 27.5 3t19.5 13z" />
    <glyph glyph-name="bar" unicode="|" horiz-adv-x="257" 
d="M100 700h57v-880h-57v880z" />
    <glyph glyph-name="braceright" unicode="}" horiz-adv-x="379" 
d="M30 733q85 0 137 -29.5t76.5 -78t24.5 -106.5q1 -34 -6.5 -71t-12.5 -66t0 -42q5 -11 19 -13t27 -3v-10q-12 -1 -25 -5.5t-18 -16.5q-5 -14 -0.5 -42.5t11 -65t5.5 -72.5q0 -57 -21.5 -105t-70.5 -77.5t-134 -29.5l-2 8q35 9 52 27.5t22 45t4.5 60t-0.5 71.5q0 51 6 86
t18.5 59t32 38t46.5 21q-27 9 -46.5 21t-32 34.5t-18.5 60t-6 97.5q0 49 -3.5 89t-22 67.5t-64.5 39.5z" />
    <glyph glyph-name="asciitilde" unicode="~" horiz-adv-x="494" 
d="M92 213h-57q-10 50 3.5 83t41.5 50t60 18q27 0 55.5 -14.5t56 -34t52 -35t42.5 -15.5q20 -1 36.5 10t22.5 32.5t-6 51.5h59q14 -52 -1 -85.5t-45.5 -49.5t-65.5 -16q-27 0 -54.5 14.5t-54 34t-51 34.5t-46.5 16q-26 1 -42.5 -20.5t-5.5 -73.5z" />
    <glyph glyph-name="uni007F" 
 />
    <glyph glyph-name="exclamdown" unicode="&#xa1;" horiz-adv-x="269" 
d="M136 712q30 0 51.5 -21.5t21.5 -50.5q0 -30 -21.5 -51.5t-51.5 -21.5t-51 21.5t-21 51.5q0 29 21 50.5t51 21.5zM112 494h47l35 -171l18 -323h-154l19 323z" />
    <glyph glyph-name="cent" unicode="&#xa2;" horiz-adv-x="587" 
d="M545 304l11 -130q-25 -41 -77 -69t-135 -28q-97 1 -167.5 33t-109 92.5t-38.5 144.5q0 85 38.5 145.5t109 92.5t167.5 32q58 0 108 -11.5t82 -27.5v-137h-6q-15 54 -41 84t-60 42t-74 12q-92 0 -137 -60.5t-45 -169.5t44.5 -170.5t128.5 -63.5q61 0 100 18t62 59.5
t33 111.5h6zM358 701l40 -1l-58 -709l-39 3z" />
    <glyph glyph-name="sterling" unicode="&#xa3;" horiz-adv-x="603" 
d="M589 195l-45 -171q-33 -15 -73.5 -23t-78.5 -10t-65 1q-44 6 -77.5 15t-62.5 14.5t-61 2.5q-9 0 -25 -5.5t-30.5 -12.5t-19.5 -12h-10v10q20 25 41.5 73t36.5 121t11 172q-1 68 9.5 128t38.5 107t76.5 75.5t122.5 33.5q66 5 112 -12.5t67 -44.5l-40 -121h-10
q1 49 -11 79.5t-36 44.5t-60 12q-56 -3 -82 -40.5t-32.5 -102.5t-2.5 -152q5 -84 -4 -139t-28 -88t-45.5 -52.5t-56.5 -31.5q40 14 83.5 6.5t97.5 -12.5q47 -3 94 7.5t88 41.5t68 86h10zM54 371h411l-19 -48h-408z" />
    <glyph glyph-name="currency" unicode="&#xa4;" horiz-adv-x="541" 
d="M119 503q42 42 96.5 55.5t109 0t95.5 -55.5q42 -42 55.5 -96.5t0 -109t-55.5 -96.5q-41 -41 -95.5 -55t-109 0t-96.5 55q-41 42 -55 96.5t0 109t55 96.5zM140 481q-36 -35 -48 -82t0 -93.5t48 -82.5t82.5 -48t93.5 0t83 48t47.5 82.5t0 93.5t-47.5 82q-36 36 -83 48
t-93.5 0t-82.5 -48zM50 553l21 21l72 -71l-22 -22zM399 204l21 21l72 -71l-22 -22zM71 132l-21 22l71 71l22 -21zM420 481l-21 22l71 71l22 -21z" />
    <glyph glyph-name="yen" unicode="&#xa5;" horiz-adv-x="702" 
d="M213 699l205 -372l-142 -14l-234 386h171zM423 322v-322h-150v322h150zM584 699h78l-250 -397l-50 10zM543 628q9 14 5 28.5t-15 24t-25 9.5h-6h-6v10h239v-10h-14q-31 0 -58.5 -18t-42.5 -41zM252 628l-169 3q-14 23 -41 41t-59 18h-14v10h331v-10h-6.5h-6.5
q-22 0 -33.5 -20.5t-1.5 -41.5zM276 73v-73h-80v10h6h7q26 0 44.5 18.5t19.5 44.5h3zM420 73h3q0 -26 19 -44.5t45 -18.5h6h6v-10h-79v73zM100 307h494v-42h-494v42zM100 421h202v-42h-202v42zM435 421h159v-42h-159v42z" />
    <glyph glyph-name="brokenbar" unicode="&#xa6;" horiz-adv-x="257" 
d="M100 170h57v-350h-57v350zM100 700h57v-350h-57v350z" />
    <glyph glyph-name="section" unicode="&#xa7;" horiz-adv-x="526" 
d="M310 713q44 3 76.5 -7t51.5 -28t22 -38.5t-12 -39.5q-14 -19 -30.5 -20t-34 10.5t-35.5 27t-37 28t-38 16t-39 -10.5q-19 -14 -20.5 -33.5t11 -43.5t34.5 -51.5t49.5 -57.5t57.5 -62q67 -73 96 -150.5t24 -149t-38 -129t-89 -92.5t-129 -38q-45 -3 -79.5 7t-57 27.5
t-27 39t10.5 41.5q16 21 32.5 22t35 -10t38.5 -27.5t40 -29.5t40.5 -16.5t39.5 11.5q29 22 18 55.5t-53 81.5t-110 114q-60 60 -88 122.5t-29 124t20 115.5t58.5 96t86.5 67t104 28zM143 583q-22 -46 -26.5 -88.5t8.5 -81.5t41 -78.5t71 -81.5q50 -47 86.5 -92t54 -89.5
t8.5 -90.5q22 42 25 82.5t-11 80.5t-43 81.5t-72 84.5q-42 44 -70.5 77t-44.5 62.5t-22.5 61t-4.5 72.5z" />
    <glyph glyph-name="dieresis" unicode="&#xa8;" horiz-adv-x="600" 
d="M164 679q-25 0 -42.5 17.5t-17.5 42.5t17.5 42.5t42.5 17.5t42.5 -17.5t17.5 -42.5t-17.5 -42.5t-42.5 -17.5zM397 679q-25 0 -42.5 17.5t-17.5 42.5t17.5 42.5t42.5 17.5t42.5 -17.5t17.5 -42.5t-17.5 -42.5t-42.5 -17.5z" />
    <glyph glyph-name="copyright" unicode="&#xa9;" horiz-adv-x="848" 
d="M424 714q75 0 141 -28.5t116 -78.5t78.5 -116t28.5 -141t-28.5 -141t-78.5 -116t-116 -78.5t-141 -28.5t-141 28.5t-116 78.5t-78.5 116t-28.5 141t28.5 141t78.5 116t116 78.5t141 28.5zM424 668q-66 0 -123.5 -25t-101 -68.5t-68.5 -101t-25 -123.5t25 -123.5
t68.5 -101t101 -68.5t123.5 -25t123.5 25t101 68.5t68.5 101t25 123.5t-25 123.5t-68.5 101t-101 68.5t-123.5 25zM618 322l12 -104q-32 -42 -82.5 -66.5t-115.5 -24.5q-69 1 -123.5 30t-86 79.5t-31.5 113.5q0 64 31.5 114.5t86.5 79.5t125 29q43 0 90 -11t82 -32l1 -112
h-6q-20 56 -61 88t-103 32q-41 0 -72 -23.5t-48 -65.5t-17 -99q0 -56 17 -98t48.5 -65.5t73.5 -23.5q71 0 117.5 39t55.5 120h6z" />
    <glyph glyph-name="ordfeminine" unicode="&#xaa;" horiz-adv-x="381" 
d="M188 712l166 -332h-105l-96 221zM87 413q-7 -15 1 -23t18 -8h4v-5h-113v5h2h2q12 0 24 7.5t20 23.5h42zM188 712l1 -77l-118 -257h-43l129 265q2 5 8 18t12 28t6 23h5zM234 483v-26h-141v26h141zM235 413h102q9 -16 20.5 -23.5t22.5 -7.5h2h2v-5h-172v5h5q9 0 17 8t1 23z
" />
    <glyph glyph-name="guillemotleft" unicode="&#xab;" horiz-adv-x="506" 
d="M40 292l205 -203l9 6l-94 197l93 193l-8 5zM233 292l205 -203l9 6l-94 197l93 193l-8 5z" />
    <glyph glyph-name="logicalnot" unicode="&#xac;" horiz-adv-x="600" 
d="M40 403h522v-57h-522v57zM505 403h57v-208h-57v208z" />
    <glyph glyph-name="uni00AD" unicode="&#xad;" horiz-adv-x="380" 
d="M40 325h300l8 -33l-8 -34h-300l-8 34z" />
    <glyph glyph-name="registered" unicode="&#xae;" horiz-adv-x="245" 
d="M123 701q31 0 56.5 -15.5t41 -41t15.5 -56.5t-15.5 -56.5t-41 -41t-56.5 -15.5t-56.5 15.5t-41 41t-15.5 56.5t15.5 56.5t41 41t56.5 15.5zM81 531h-16v2h1h1q11 0 11 11zM106 544q0 -11 10 -11h1.5h1.5v-2h-16zM106 651v-120h-28v120h28zM81 651l-3 -13q0 11 -11 11h-1
h-1v2h16zM126 651q18 0 30.5 -8.5t12.5 -24.5q0 -15 -8.5 -23t-21.5 -10q7 -1 15.5 -13t13.5 -20q2 -3 7.5 -9.5t13.5 -9.5v-2h-16q-25 0 -34.5 14.5t-16.5 30.5q-3 5 -5 9t-6 4v2h3.5h7.5q3 0 8 3t8 13q2 6 1 13q0 22 -22 21l-13 1l-1 4.5l-1 4.5h24zM123 679
q-38 0 -64.5 -26.5t-26.5 -64.5t26.5 -64.5t64.5 -26.5t64.5 26.5t26.5 64.5t-26.5 64.5t-64.5 26.5z" />
    <glyph glyph-name="macron" unicode="&#xaf;" horiz-adv-x="600" 
d="M158 768h274v-65h-274v65z" />
    <glyph glyph-name="degree" unicode="&#xb0;" horiz-adv-x="245" 
d="M123 664q41 0 69.5 -28.5t28.5 -69.5t-28.5 -70t-69.5 -29t-70 29t-29 70t29 69.5t70 28.5zM123 613q-20 0 -34.5 -13.5t-14.5 -33.5t14.5 -33.5t34.5 -13.5t33.5 13.5t13.5 33.5t-13.5 33.5t-33.5 13.5z" />
    <glyph glyph-name="plusminus" unicode="&#xb1;" horiz-adv-x="481" 
d="M40 111h402v-57h-402v57zM212 179v402h57v-402h-57zM40 408h402v-57h-402v57z" />
    <glyph glyph-name="uni00B2" unicode="&#xb2;" horiz-adv-x="402" 
d="M68 573l-34 99q24 22 63.5 33.5t79.5 11.5q46 0 82.5 -14t58.5 -40t22 -62t-18 -67t-44 -56.5t-54.5 -44.5t-50.5 -32h111q26 0 44.5 14.5t33.5 45.5h6l-37 -153h-296v6q30 36 63.5 73.5t62 75t47 75t18.5 73.5q0 37 -21 58t-56 19q-34 -3 -54.5 -32t-20.5 -83h-6z" />
    <glyph glyph-name="uni00B3" unicode="&#xb3;" horiz-adv-x="348" 
d="M159 713q64 0 102 -25t38 -69q0 -30 -17.5 -49.5t-42 -27t-47.5 -1.5q25 1 53.5 -8.5t49 -32.5t20.5 -63q0 -50 -26.5 -84t-69 -50.5t-92.5 -15t-99 20.5l1 6q48 -1 88 13t64 43.5t24 71.5q0 34 -16 53t-40.5 28t-52.5 9l1 5q41 0 70 27t26 66q-3 31 -23 44t-45 11
q-33 -2 -48.5 -25.5t-14.5 -75.5h-6l-28 92q20 17 54 27.5t77 9.5z" />
    <glyph glyph-name="acute" unicode="&#xb4;" horiz-adv-x="537" 
d="M203 751q17 29 42 60t52.5 58t48.5 47q27 -15 43 -35t26 -47q-31 -19 -66 -36.5t-70.5 -31.5t-68.5 -22z" />
    <glyph glyph-name="uni00B5" unicode="&#xb5;" horiz-adv-x="863" 
d="M705 613l8 -103l-269 -427l-9 -16.5t-17.5 -39.5t-9.5 -46h-9l-39 82zM90 64v-64h-98v10h6.5h6.5q25 0 43.5 14t22.5 40h19zM134 50q-1 -11 6.5 -25.5t27.5 -14.5h14v-10h-60l6 50h6zM149 613h8l34 -96l-63 -517h-65zM157 613l296 -443l-54 -189l-266 403zM714 613
l88 -613h-153l-49 365l105 248h9zM774 64h19q5 -26 23.5 -40t41.5 -14h7h7v-10h-98v64zM642 50h6l6 -50h-60v10h14q22 0 29 14.5t5 25.5z" />
    <glyph glyph-name="paragraph" unicode="&#xb6;" horiz-adv-x="532" 
d="M515 743l7 -6q-5 -18 -18.5 -36t-35 -30t-51.5 -13h-126v-658q0 -38 -7.5 -77t-28.5 -70.5t-62 -51.5l-7 9q28 29 41.5 54t17.5 56.5t4 79.5l-3 333q-55 0 -99.5 22.5t-70.5 63.5t-26 98q1 57 27 98t70.5 63t98.5 22h173q11 0 25.5 1t32.5 9.5t38 32.5zM416 687v-540
q0 -38 -7 -67.5t-20 -52t-33 -40.5l-9 8q15 25 20.5 46.5t6 46t0.5 57.5v542h42z" />
    <glyph glyph-name="periodcentered" unicode="&#xb7;" horiz-adv-x="219" 
d="M109 281q-30 0 -51 21t-21 51q0 31 21 51.5t51 20.5q31 0 52 -20.5t21 -51.5q0 -30 -21 -51t-52 -21z" />
    <glyph glyph-name="cedilla" unicode="&#xb8;" horiz-adv-x="600" 
d="M277 1h48l-42 -49q14 5 33 5.5t38 -5.5t31.5 -20.5t11.5 -40.5q-2 -33 -28 -56t-65 -30t-77 6l1 10q21 0 43 7t38 22.5t17 41.5q2 21 -14 31.5t-38 11.5t-40 -7l-2.5 5l-2.5 5z" />
    <glyph glyph-name="uni00B9" unicode="&#xb9;" horiz-adv-x="260" 
d="M235 308v6h-13q-13 0 -22.5 9t-9.5 23v369h-6q-15 -10 -35.5 -17t-42.5 -11.5t-41 -7t-31 -3.5v-5h12q18 0 27.5 -8.5t9.5 -30.5v-286q0 -13 -9.5 -22.5t-22.5 -9.5h-13v-6h197z" />
    <glyph glyph-name="ordmasculine" unicode="&#xba;" horiz-adv-x="405" 
d="M202 712q55 0 95 -21t62 -59t22 -89t-22 -89.5t-62 -59t-95 -20.5q-54 0 -94 20.5t-62 59t-22 89.5t22 89t62 59t94 21zM202 398q41 0 62.5 39.5t21.5 105.5t-21.5 105.5t-62.5 39.5q-26 0 -45 -18t-29 -50.5t-10 -76.5q0 -45 10 -77t29 -50t45 -18z" />
    <glyph glyph-name="guillemotright" unicode="&#xbb;" horiz-adv-x="506" 
d="M467 292l-205 198l-8 -5l94 -193l-95 -197l9 -6zM274 292l-205 198l-8 -5l94 -193l-95 -197l9 -6z" />
    <glyph glyph-name="onequarter" unicode="&#xbc;" horiz-adv-x="745" 
d="M541 295l99 113h6v-407h-105v294zM639 408l6 -42l-201 -201h229q18 0 25.5 5.5t13.5 15.5h6l-18 -79h-348v7zM646 41q0 -14 10 -24.5t24 -10.5h7v-6h-188v6h7q15 0 25 10t10 25h105zM235 308v6h-13q-13 0 -22.5 9t-9.5 23v369h-6q-15 -10 -35.5 -17t-42.5 -11.5t-41 -7
t-31 -3.5v-5h12q18 0 27.5 -8.5t9.5 -30.5v-286q0 -13 -9.5 -22.5t-22.5 -9.5h-13v-6h197zM110 7l39 -25l477 711l-38 26z" />
    <glyph glyph-name="onehalf" unicode="&#xbd;" horiz-adv-x="832" 
d="M237 308v6h-13q-13 0 -22.5 9t-9.5 23v369h-6q-15 -10 -35.5 -17t-42.5 -11.5t-41 -7t-31 -3.5v-5h12q18 0 27.5 -8.5t9.5 -30.5v-286q0 -13 -9.5 -22.5t-22.5 -9.5h-13v-6h197zM98 7l39 -25l477 711l-38 26zM493 265l-34 99q24 22 63.5 33.5t79.5 11.5q46 0 82.5 -14
t58.5 -40t22 -62t-18 -67t-44 -56.5t-54.5 -44.5t-50.5 -32h111q26 0 44.5 14.5t33.5 45.5h6l-37 -153h-296v6q30 36 63.5 73.5t62 75t47 75t18.5 73.5q0 37 -21 58t-56 19q-34 -3 -54.5 -32t-20.5 -83h-6z" />
    <glyph glyph-name="threequarters" unicode="&#xbe;" horiz-adv-x="786" 
d="M590 295l99 113h6v-407h-105v294zM688 408l6 -42l-201 -201h229q18 0 25.5 5.5t13.5 15.5h6l-18 -79h-348v7zM695 41q0 -14 10 -24.5t24 -10.5h7v-6h-188v6h7q15 0 25 10t10 25h105zM159 713q64 0 102 -25t38 -69q0 -30 -17.5 -49.5t-42 -27t-47.5 -1.5q25 1 53.5 -8.5
t49 -32.5t20.5 -63q0 -50 -26.5 -84t-69 -50.5t-92.5 -15t-99 20.5l1 6q48 -1 88 13t64 43.5t24 71.5q0 34 -16 53t-40.5 28t-52.5 9l1 5q41 0 70 27t26 66q-3 31 -23 44t-45 11q-33 -2 -48.5 -25.5t-14.5 -75.5h-6l-28 92q20 17 54 27.5t77 9.5zM167 7l39 -25l477 711
l-38 26z" />
    <glyph glyph-name="questiondown" unicode="&#xbf;" horiz-adv-x="488" 
d="M454 75q-22 -40 -72.5 -64.5t-119.5 -24.5q-108 0 -166 46t-58 128q0 31 9.5 56t25.5 46.5t36.5 41.5t43 41t44.5 46q14 15 25.5 30.5t13.5 33.5t-12 42l7 6q37 -16 59.5 -45t19.5 -68q-2 -26 -13.5 -46t-28 -38.5t-33 -38.5t-27.5 -47t-10 -65q0 -61 27.5 -94t75.5 -33
q51 0 80 38.5t28 115.5h10zM254 710q30 0 51.5 -21t21.5 -51t-21.5 -51.5t-51.5 -21.5t-51 21.5t-21 51.5t21 51t51 21z" />
    <glyph glyph-name="Agrave" unicode="&#xc0;" horiz-adv-x="717" 
d="M372 771l-7 -7q-33 8 -69.5 22t-71 31.5t-64.5 36.5q9 28 25 48t43 34q21 -20 48.5 -47t53 -57.5t42.5 -60.5zM354 720l326 -714h-179l-208 521zM139 73q-8 -20 -3 -34t17 -21.5t24 -7.5h9v-10h-214v10h4.5h4.5q23 0 47.5 14.5t40.5 48.5h70zM354 720l4 -122l-248 -595
h-73l259 586q3 6 10.5 22.5t16 37.5t15.5 40.5t7 30.5h9zM459 238v-42h-294v42h294zM474 73h175q17 -34 41 -48.5t47 -14.5h4h4v-10h-318v10h9q20 0 35 16.5t3 46.5z" />
    <glyph glyph-name="Aacute" unicode="&#xc1;" horiz-adv-x="717" 
d="M335 769q17 29 42 60t52.5 58t48.5 47q27 -15 43 -35t26 -47q-31 -19 -66 -36.5t-70.5 -31.5t-68.5 -22zM354 720l326 -714h-179l-208 521zM139 73q-8 -20 -3 -34t17 -21.5t24 -7.5h9v-10h-214v10h4.5h4.5q23 0 47.5 14.5t40.5 48.5h70zM354 720l4 -122l-248 -595h-73
l259 586q3 6 10.5 22.5t16 37.5t15.5 40.5t7 30.5h9zM459 238v-42h-294v42h294zM474 73h175q17 -34 41 -48.5t47 -14.5h4h4v-10h-318v10h9q20 0 35 16.5t3 46.5z" />
    <glyph glyph-name="Acircumflex" unicode="&#xc2;" horiz-adv-x="717" 
d="M202 763l6 -8l143 65l152 -65l7 8l-153 153h-11zM354 720l326 -714h-179l-208 521zM139 73q-8 -20 -3 -34t17 -21.5t24 -7.5h9v-10h-214v10h4.5h4.5q23 0 47.5 14.5t40.5 48.5h70zM354 720l4 -122l-248 -595h-73l259 586q3 6 10.5 22.5t16 37.5t15.5 40.5t7 30.5h9z
M459 238v-42h-294v42h294zM474 73h175q17 -34 41 -48.5t47 -14.5h4h4v-10h-318v10h9q20 0 35 16.5t3 46.5z" />
    <glyph glyph-name="Atilde" unicode="&#xc3;" horiz-adv-x="717" 
d="M201 767h11q6 13 16.5 24.5t26.5 18.5t34 4q27 -3 49.5 -15t45.5 -23t50 -12q29 0 49 12.5t32 32t16 41.5t0 40h-11q-4 -9 -15 -19.5t-27 -16.5t-35 -4q-29 3 -51.5 15.5t-45 23t-49.5 10.5t-46.5 -13t-31 -33t-16.5 -43t-2 -43zM354 720l326 -714h-179l-208 521zM139 73
q-8 -20 -3 -34t17 -21.5t24 -7.5h9v-10h-214v10h4.5h4.5q23 0 47.5 14.5t40.5 48.5h70zM354 720l4 -122l-248 -595h-73l259 586q3 6 10.5 22.5t16 37.5t15.5 40.5t7 30.5h9zM459 238v-42h-294v42h294zM474 73h175q17 -34 41 -48.5t47 -14.5h4h4v-10h-318v10h9q20 0 35 16.5
t3 46.5z" />
    <glyph glyph-name="Adieresis" unicode="&#xc4;" horiz-adv-x="717" 
d="M233 759q-25 0 -42.5 17.5t-17.5 42.5t17.5 42.5t42.5 17.5t42.5 -17.5t17.5 -42.5t-17.5 -42.5t-42.5 -17.5zM466 759q-25 0 -42.5 17.5t-17.5 42.5t17.5 42.5t42.5 17.5t42.5 -17.5t17.5 -42.5t-17.5 -42.5t-42.5 -17.5zM354 720l326 -714h-179l-208 521zM139 73
q-8 -20 -3 -34t17 -21.5t24 -7.5h9v-10h-214v10h4.5h4.5q23 0 47.5 14.5t40.5 48.5h70zM354 720l4 -122l-248 -595h-73l259 586q3 6 10.5 22.5t16 37.5t15.5 40.5t7 30.5h9zM459 238v-42h-294v42h294zM474 73h175q17 -34 41 -48.5t47 -14.5h4h4v-10h-318v10h9q20 0 35 16.5
t3 46.5z" />
    <glyph glyph-name="Aring" unicode="&#xc5;" horiz-adv-x="717" 
d="M354 714l326 -708h-179l-208 515zM139 73q-8 -20 -3 -34t17 -21.5t24 -7.5h9v-10h-214v10h4.5h4.5q23 0 47.5 14.5t40.5 48.5h70zM354 714l4 -122l-248 -589h-73l259 580q3 6 10.5 22.5t16 37.5t15.5 40.5t7 30.5h9zM459 238v-42h-294v42h294zM474 73h175
q17 -34 41 -48.5t47 -14.5h4h4v-10h-318v10h9q20 0 35 16.5t3 46.5zM351 841q39 0 66 -19.5t27 -52.5q0 -31 -27 -52t-66 -21t-66.5 20.5t-26.5 51.5q-1 33 26.5 53t66.5 20zM351 821q-19 0 -31.5 -14t-12.5 -39q0 -23 12.5 -37.5t31.5 -14.5t31.5 14.5t11.5 37.5
q1 25 -11.5 39t-31.5 14z" />
    <glyph glyph-name="AE" unicode="&#xc6;" horiz-adv-x="972" 
d="M156 71q-10 -18 -7 -31.5t15 -21.5t25 -8h10v-10h-223v10h4h4q24 0 46.5 16.5t43.5 45.5zM616 700v-700h-150v654zM468 58v-58h-62l1 10h4.5h4.5q20 0 34.5 14.5t15.5 33.5h2zM886 43v-43h-273v43h273zM837 360v-42h-544l5 42h539zM885 700v-43h-358l-39 -40l-373 -614
h-87l429 644q11 17 3.5 30t-24.5 13h-5v10h454zM945 195l-45 -195h-185l33 43q68 0 116.5 41t70.5 111h10zM837 321v-97h-10v9q0 36 -24 60.5t-61 24.5v3h95zM837 455v-97h-95v2q37 1 61 25.5t24 60.5v9h10zM885 660v-111h-10v10q1 45 -25.5 71.5t-71.5 26.5v3h107zM885 718
v-29l-122 11q22 0 46.5 3t45.5 7t30 8z" />
    <glyph glyph-name="Ccedilla" unicode="&#xc7;" horiz-adv-x="780" 
d="M405 -8h48l-42 -49q14 5 33 5.5t38 -5.5t31.5 -20.5t11.5 -40.5q-2 -33 -28 -56t-65 -30t-77 6l1 10q21 0 43 7t38 22.5t17 41.5q2 21 -14 31.5t-38 11.5t-40 -7l-2.5 5l-2.5 5zM722 292l9 -172q-22 -37 -59 -67t-92 -48.5t-130 -18.5q-122 1 -213.5 44.5t-141.5 124.5
t-50 196q0 112 49 193.5t140.5 125.5t218.5 44q80 0 143.5 -16t105.5 -39l2 -171h-9q-27 99 -88 141.5t-143 42.5q-80 0 -137 -39t-88 -110t-31 -170t29.5 -171t84 -112t128.5 -42q77 0 130 25t85.5 83t48.5 156h8z" />
    <glyph glyph-name="Egrave" unicode="&#xc8;" horiz-adv-x="632" 
d="M343 771l-7 -7q-33 8 -69.5 22t-71 31.5t-64.5 36.5q9 28 25 48t43 34q21 -20 48.5 -47t53 -57.5t42.5 -60.5zM269 700v-700h-150v700h150zM533 43l24 -43h-291v43h267zM496 366v-42h-230v42h230zM545 700v-43h-279v43h279zM606 204l-46 -204h-196l36 43q50 0 88 19.5
t65 56t43 85.5h10zM496 326v-96h-10v9q0 36 -24 60t-61 25v2h95zM496 460v-96h-95v2q37 1 61 25.5t24 60.5v8h10zM545 660v-117h-10v12q0 46 -27.5 74t-74.5 29v2h112zM545 718v-29l-122 11q22 0 46.5 3t45.5 7t30 8zM122 73v-73h-80v10h6.5h6.5q26 0 44.5 18.5t19.5 44.5h3
zM122 627h-3q-1 26 -19.5 44.5t-44.5 18.5h-6.5h-6.5v10h80v-73z" />
    <glyph glyph-name="Eacute" unicode="&#xc9;" horiz-adv-x="632" 
d="M306 769q17 29 42 60t52.5 58t48.5 47q27 -15 43 -35t26 -47q-31 -19 -66 -36.5t-70.5 -31.5t-68.5 -22zM269 700v-700h-150v700h150zM533 43l24 -43h-291v43h267zM496 366v-42h-230v42h230zM545 700v-43h-279v43h279zM606 204l-46 -204h-196l36 43q50 0 88 19.5t65 56
t43 85.5h10zM496 326v-96h-10v9q0 36 -24 60t-61 25v2h95zM496 460v-96h-95v2q37 1 61 25.5t24 60.5v8h10zM545 660v-117h-10v12q0 46 -27.5 74t-74.5 29v2h112zM545 718v-29l-122 11q22 0 46.5 3t45.5 7t30 8zM122 73v-73h-80v10h6.5h6.5q26 0 44.5 18.5t19.5 44.5h3z
M122 627h-3q-1 26 -19.5 44.5t-44.5 18.5h-6.5h-6.5v10h80v-73z" />
    <glyph glyph-name="Ecircumflex" unicode="&#xca;" horiz-adv-x="632" 
d="M173 763l6 -8l143 65l152 -65l7 8l-153 153h-11zM269 700v-700h-150v700h150zM533 43l24 -43h-291v43h267zM496 366v-42h-230v42h230zM545 700v-43h-279v43h279zM606 204l-46 -204h-196l36 43q50 0 88 19.5t65 56t43 85.5h10zM496 326v-96h-10v9q0 36 -24 60t-61 25v2h95
zM496 460v-96h-95v2q37 1 61 25.5t24 60.5v8h10zM545 660v-117h-10v12q0 46 -27.5 74t-74.5 29v2h112zM545 718v-29l-122 11q22 0 46.5 3t45.5 7t30 8zM122 73v-73h-80v10h6.5h6.5q26 0 44.5 18.5t19.5 44.5h3zM122 627h-3q-1 26 -19.5 44.5t-44.5 18.5h-6.5h-6.5v10h80v-73
z" />
    <glyph glyph-name="Edieresis" unicode="&#xcb;" horiz-adv-x="632" 
d="M204 759q-25 0 -42.5 17.5t-17.5 42.5t17.5 42.5t42.5 17.5t42.5 -17.5t17.5 -42.5t-17.5 -42.5t-42.5 -17.5zM437 759q-25 0 -42.5 17.5t-17.5 42.5t17.5 42.5t42.5 17.5t42.5 -17.5t17.5 -42.5t-17.5 -42.5t-42.5 -17.5zM269 700v-700h-150v700h150zM533 43l24 -43
h-291v43h267zM496 366v-42h-230v42h230zM545 700v-43h-279v43h279zM606 204l-46 -204h-196l36 43q50 0 88 19.5t65 56t43 85.5h10zM496 326v-96h-10v9q0 36 -24 60t-61 25v2h95zM496 460v-96h-95v2q37 1 61 25.5t24 60.5v8h10zM545 660v-117h-10v12q0 46 -27.5 74t-74.5 29
v2h112zM545 718v-29l-122 11q22 0 46.5 3t45.5 7t30 8zM122 73v-73h-80v10h6.5h6.5q26 0 44.5 18.5t19.5 44.5h3zM122 627h-3q-1 26 -19.5 44.5t-44.5 18.5h-6.5h-6.5v10h80v-73z" />
    <glyph glyph-name="Igrave" unicode="&#xcc;" horiz-adv-x="387" 
d="M269 700v-700h-150v700h150zM122 73v-73h-80v10h6.5h6.5q26 0 44.5 18.5t19.5 44.5h3zM122 627h-3q-1 26 -19.5 44.5t-44.5 18.5h-6.5h-6.5v10h80v-73zM266 73h3q1 -26 19.5 -44.5t44.5 -18.5h6h7v-10h-80v73zM266 627v73h80v-10h-7h-6q-26 0 -44.5 -18.5t-19.5 -44.5h-3
zM218 771l-7 -7q-32 8 -68 22t-71.5 31.5t-65.5 36.5q10 27 26 47t42 34q22 -19 49.5 -46.5t52.5 -58t42 -59.5z" />
    <glyph glyph-name="Iacute" unicode="&#xcd;" horiz-adv-x="387" 
d="M177 769q17 29 42 60t52.5 58t48.5 47q27 -15 43 -35t26 -47q-31 -19 -66 -36.5t-70.5 -31.5t-68.5 -22zM269 700v-700h-150v700h150zM122 73v-73h-80v10h6.5h6.5q26 0 44.5 18.5t19.5 44.5h3zM122 627h-3q-1 26 -19.5 44.5t-44.5 18.5h-6.5h-6.5v10h80v-73zM266 73h3
q1 -26 19.5 -44.5t44.5 -18.5h6h7v-10h-80v73zM266 627v73h80v-10h-7h-6q-26 0 -44.5 -18.5t-19.5 -44.5h-3z" />
    <glyph glyph-name="Icircumflex" unicode="&#xce;" horiz-adv-x="387" 
d="M43 763l6 -8l143 65l152 -65l7 8l-153 153h-11zM269 700v-700h-150v700h150zM122 73v-73h-80v10h6.5h6.5q26 0 44.5 18.5t19.5 44.5h3zM122 627h-3q-1 26 -19.5 44.5t-44.5 18.5h-6.5h-6.5v10h80v-73zM266 73h3q1 -26 19.5 -44.5t44.5 -18.5h6h7v-10h-80v73zM266 627v73
h80v-10h-7h-6q-26 0 -44.5 -18.5t-19.5 -44.5h-3z" />
    <glyph glyph-name="Idieresis" unicode="&#xcf;" horiz-adv-x="387" 
d="M74 759q-25 0 -42.5 17.5t-17.5 42.5t17.5 42.5t42.5 17.5t42.5 -17.5t17.5 -42.5t-17.5 -42.5t-42.5 -17.5zM307 759q-25 0 -42.5 17.5t-17.5 42.5t17.5 42.5t42.5 17.5t42.5 -17.5t17.5 -42.5t-17.5 -42.5t-42.5 -17.5zM269 700v-700h-150v700h150zM122 73v-73h-80v10
h6.5h6.5q26 0 44.5 18.5t19.5 44.5h3zM122 627h-3q-1 26 -19.5 44.5t-44.5 18.5h-6.5h-6.5v10h80v-73zM266 73h3q1 -26 19.5 -44.5t44.5 -18.5h6h7v-10h-80v73zM266 627v73h80v-10h-7h-6q-26 0 -44.5 -18.5t-19.5 -44.5h-3z" />
    <glyph glyph-name="Eth" unicode="&#xd0;" horiz-adv-x="828" 
d="M42 371h358v-42h-358v42zM407 700q118 0 203.5 -42.5t131.5 -121t46 -186.5t-46 -186.5t-131.5 -121t-203.5 -42.5h-238l-1 42h60.5h61h53.5h38h14q72 0 124.5 37.5t81.5 106.5t29 164t-29 164t-81.5 106.5t-124.5 37.5h-15h-40h-55.5h-63.5h-63v42h249zM271 700v-700
h-150v700h150zM124 73v-73h-80v10h6.5h6.5q26 0 44.5 18.5t19.5 44.5h3zM124 627h-3q-1 26 -19.5 44.5t-44.5 18.5h-6h-7v10h80v-73z" />
    <glyph glyph-name="Ntilde" unicode="&#xd1;" horiz-adv-x="865" 
d="M266 767h11q6 13 16.5 24.5t26.5 18.5t34 4q27 -3 49.5 -15t45.5 -23t50 -12q29 0 49 12.5t32 32t16 41.5t0 40h-11q-4 -9 -15 -19.5t-27 -16.5t-35 -4q-29 3 -51.5 15.5t-45 23t-49.5 10.5t-46.5 -13t-31 -33t-16.5 -43t-2 -43zM108 715l638 -608l12 -121l-638 607z
M113 71v-71h-83v10h9h10q25 0 43 18t18 43h3zM253 71q0 -25 18 -43t43 -18h10h9v-10h-83v71h3zM108 715l144 -153l1 -562h-143v590q0 56 -6 90.5l-6 34.5h10zM755 700v-586q0 -37 3 -66.5t6 -45.5l3 -16h-9l-145 162v552h142zM835 700v-10h-9h-9q-25 0 -43 -17.5t-19 -43.5
h-3v71h83zM532 700h83v-71h-2q-1 26 -18.5 43.5t-43.5 17.5h-9h-10v10z" />
    <glyph glyph-name="Ograve" unicode="&#xd2;" horiz-adv-x="879" 
d="M442 714q120 0 208.5 -44.5t137 -125.5t48.5 -194q0 -112 -48.5 -193.5t-137 -126t-208.5 -44.5t-208.5 44.5t-136.5 125.5t-48 194q0 112 48 193.5t136.5 126t208.5 44.5zM442 28q73 0 125 39.5t79.5 111.5t27.5 171t-27.5 171t-79.5 111.5t-125 39.5q-72 0 -124 -39.5
t-80 -111.5t-28 -171t28 -171t80 -111.5t124 -39.5zM461 779l-7 -7q-33 9 -68.5 22.5t-71 31.5t-65.5 36q10 28 25.5 48t42.5 34q22 -20 49.5 -47t52.5 -57.5t42 -60.5z" />
    <glyph glyph-name="Oacute" unicode="&#xd3;" horiz-adv-x="879" 
d="M425 777q17 29 42 60t52.5 58t48.5 47q27 -15 43 -35t26 -47q-31 -19 -66 -36.5t-70.5 -31.5t-68.5 -22zM442 714q120 0 208.5 -44.5t137 -125.5t48.5 -194q0 -112 -48.5 -193.5t-137 -126t-208.5 -44.5t-208.5 44.5t-136.5 125.5t-48 194q0 112 48 193.5t136.5 126
t208.5 44.5zM442 28q71 0 122.5 39.5t79 111.5t27.5 171t-27.5 171t-79 111.5t-122.5 39.5q-70 0 -121.5 -39.5t-79.5 -111.5t-28 -171t28 -171t79.5 -111.5t121.5 -39.5z" />
    <glyph glyph-name="Ocircumflex" unicode="&#xd4;" horiz-adv-x="879" 
d="M292 771l6 -8l143 65l152 -65l7 8l-153 153h-11zM442 714q120 0 208.5 -44.5t137 -125.5t48.5 -194q0 -112 -48.5 -193.5t-137 -126t-208.5 -44.5t-208.5 44.5t-136.5 125.5t-48 194q0 112 48 193.5t136.5 126t208.5 44.5zM442 28q71 0 122.5 39.5t79 111.5t27.5 171
t-27.5 171t-79 111.5t-122.5 39.5q-70 0 -121.5 -39.5t-79.5 -111.5t-28 -171t28 -171t79.5 -111.5t121.5 -39.5z" />
    <glyph glyph-name="Otilde" unicode="&#xd5;" horiz-adv-x="879" 
d="M291 775h11q6 13 16.5 24.5t26.5 18.5t34 4q27 -3 49.5 -15t45.5 -23t50 -12q29 0 49 12.5t32 32t16 41.5t0 40h-11q-4 -9 -15 -19.5t-27 -16.5t-35 -4q-29 3 -51.5 15.5t-45 23t-49.5 10.5t-46.5 -13t-31 -33t-16.5 -43t-2 -43zM442 714q120 0 208.5 -44.5t137 -125.5
t48.5 -194q0 -112 -48.5 -193.5t-137 -126t-208.5 -44.5t-208.5 44.5t-136.5 125.5t-48 194q0 112 48 193.5t136.5 126t208.5 44.5zM442 28q71 0 122.5 39.5t79 111.5t27.5 171t-27.5 171t-79 111.5t-122.5 39.5q-70 0 -121.5 -39.5t-79.5 -111.5t-28 -171t28 -171
t79.5 -111.5t121.5 -39.5z" />
    <glyph glyph-name="Odieresis" unicode="&#xd6;" horiz-adv-x="879" 
d="M323 767q-25 0 -42.5 17.5t-17.5 42.5t17.5 42.5t42.5 17.5t42.5 -17.5t17.5 -42.5t-17.5 -42.5t-42.5 -17.5zM556 767q-25 0 -42.5 17.5t-17.5 42.5t17.5 42.5t42.5 17.5t42.5 -17.5t17.5 -42.5t-17.5 -42.5t-42.5 -17.5zM442 714q120 0 208.5 -44.5t137 -125.5
t48.5 -194q0 -112 -48.5 -193.5t-137 -126t-208.5 -44.5t-208.5 44.5t-136.5 125.5t-48 194q0 112 48 193.5t136.5 126t208.5 44.5zM442 28q71 0 122.5 39.5t79 111.5t27.5 171t-27.5 171t-79 111.5t-122.5 39.5q-70 0 -121.5 -39.5t-79.5 -111.5t-28 -171t28 -171
t79.5 -111.5t121.5 -39.5z" />
    <glyph glyph-name="multiply" unicode="&#xd7;" horiz-adv-x="412" 
d="M84 472l284 -284l-40 -40l-284 284zM368 432l-284 -284l-40 40l284 284z" />
    <glyph glyph-name="Oslash" unicode="&#xd8;" horiz-adv-x="875" 
d="M440 714q120 0 208 -44.5t136 -125.5t48 -194q0 -112 -48 -193.5t-136 -126t-208 -44.5t-208 44.5t-135.5 125.5t-47.5 194q0 112 47.5 193.5t135.5 126t208 44.5zM440 28q73 0 125 39.5t79.5 111.5t27.5 171t-27.5 171t-79.5 111.5t-125 39.5q-72 0 -124 -39.5
t-80 -111.5t-28 -171t28 -171t80 -111.5t124 -39.5zM717 724l37 -29l-609 -718l-36 30z" />
    <glyph glyph-name="Ugrave" unicode="&#xd9;" horiz-adv-x="821" 
d="M471 771l-7 -7q-33 8 -69.5 22t-71 31.5t-64.5 36.5q9 28 25 48t43 34q21 -20 48.5 -47t53 -57.5t42.5 -60.5zM257 700v-440q0 -71 23.5 -123t67 -80t103.5 -28q61 0 105.5 26.5t68.5 75.5t24 116v453h72v-447q0 -82 -34.5 -142t-99 -92.5t-155.5 -32.5q-106 0 -179 32.5
t-109.5 92t-36.5 141.5v448h150zM110 700v-60h-3q0 22 -15.5 36t-37.5 14h-8h-8v10h72zM326 700v-10h-8h-8q-22 0 -37.5 -14t-15.5 -36h-2v60h71zM652 700v-60h-3q0 22 -15.5 36t-37.5 14h-8h-8v10h72zM790 700v-10h-8h-8q-22 0 -37.5 -14t-15.5 -36h-2v60h71z" />
    <glyph glyph-name="Uacute" unicode="&#xda;" horiz-adv-x="821" 
d="M434 769q17 29 42 60t52.5 58t48.5 47q27 -15 43 -35t26 -47q-31 -19 -66 -36.5t-70.5 -31.5t-68.5 -22zM257 700v-440q0 -71 23.5 -123t67 -80t103.5 -28q61 0 105.5 26.5t68.5 75.5t24 116v453h72v-447q0 -82 -34.5 -142t-99 -92.5t-155.5 -32.5q-106 0 -179 32.5
t-109.5 92t-36.5 141.5v448h150zM110 700v-60h-3q0 22 -15.5 36t-37.5 14h-8h-8v10h72zM326 700v-10h-8h-8q-22 0 -37.5 -14t-15.5 -36h-2v60h71zM652 700v-60h-3q0 22 -15.5 36t-37.5 14h-8h-8v10h72zM790 700v-10h-8h-8q-22 0 -37.5 -14t-15.5 -36h-2v60h71z" />
    <glyph glyph-name="Ucircumflex" unicode="&#xdb;" horiz-adv-x="821" 
d="M301 763l6 -8l143 65l152 -65l7 8l-153 153h-11zM257 700v-440q0 -71 23.5 -123t67 -80t103.5 -28q61 0 105.5 26.5t68.5 75.5t24 116v453h72v-447q0 -82 -34.5 -142t-99 -92.5t-155.5 -32.5q-106 0 -179 32.5t-109.5 92t-36.5 141.5v448h150zM110 700v-60h-3
q0 22 -15.5 36t-37.5 14h-8h-8v10h72zM326 700v-10h-8h-8q-22 0 -37.5 -14t-15.5 -36h-2v60h71zM652 700v-60h-3q0 22 -15.5 36t-37.5 14h-8h-8v10h72zM790 700v-10h-8h-8q-22 0 -37.5 -14t-15.5 -36h-2v60h71z" />
    <glyph glyph-name="Udieresis" unicode="&#xdc;" horiz-adv-x="821" 
d="M332 759q-25 0 -42.5 17.5t-17.5 42.5t17.5 42.5t42.5 17.5t42.5 -17.5t17.5 -42.5t-17.5 -42.5t-42.5 -17.5zM565 759q-25 0 -42.5 17.5t-17.5 42.5t17.5 42.5t42.5 17.5t42.5 -17.5t17.5 -42.5t-17.5 -42.5t-42.5 -17.5zM257 700v-440q0 -71 23.5 -123t67 -80
t103.5 -28q61 0 105.5 26.5t68.5 75.5t24 116v453h72v-447q0 -82 -34.5 -142t-99 -92.5t-155.5 -32.5q-106 0 -179 32.5t-109.5 92t-36.5 141.5v448h150zM110 700v-60h-3q0 22 -15.5 36t-37.5 14h-8h-8v10h72zM326 700v-10h-8h-8q-22 0 -37.5 -14t-15.5 -36h-2v60h71z
M652 700v-60h-3q0 22 -15.5 36t-37.5 14h-8h-8v10h72zM790 700v-10h-8h-8q-22 0 -37.5 -14t-15.5 -36h-2v60h71z" />
    <glyph glyph-name="Yacute" unicode="&#xdd;" horiz-adv-x="702" 
d="M381 769q17 29 42 60t52.5 58t48.5 47q27 -15 43 -35t26 -47q-31 -19 -66 -36.5t-70.5 -31.5t-68.5 -22zM213 699l205 -372l-142 -14l-234 386h171zM423 322v-322h-150v322h150zM584 699h78l-250 -397l-50 10zM543 628q9 14 5 28.5t-15 24t-25 9.5h-6h-6v10h239v-10h-14
q-31 0 -58.5 -18t-42.5 -41zM252 628l-169 3q-14 23 -41 41t-59 18h-14v10h331v-10h-6.5h-6.5q-22 0 -33.5 -20.5t-1.5 -41.5zM276 73v-73h-80v10h6h7q26 0 44.5 18.5t19.5 44.5h3zM420 73h3q0 -26 19 -44.5t45 -18.5h6h6v-10h-79v73z" />
    <glyph glyph-name="Thorn" unicode="&#xde;" horiz-adv-x="647" 
d="M270 700v-700h-150v700h150zM122 73v-73h-79v10h6h7q26 0 44.5 18.5t19.5 44.5h2zM122 627h-2q-1 26 -19.5 44.5t-44.5 18.5h-7h-6v10h79v-73zM267 73h3q0 -26 19 -44.5t45 -18.5h6h6v-10h-79v73zM267 627v73h79v-10h-6h-6q-26 0 -45 -18.5t-19 -44.5h-3zM252 554h120
q87 0 140.5 -25.5t79 -68.5t27.5 -98q1 -51 -17.5 -92.5t-51.5 -70t-75 -41t-87.5 -6t-88.5 34.5v10h12.5t32 4t41 15t40.5 34.5t29 60.5q4 13 5.5 29.5t0.5 30.5q-2 64 -35 102.5t-93 38.5h-70l-2.5 10.5l-5 21z" />
    <glyph glyph-name="germandbls" unicode="&#xdf;" horiz-adv-x="1030" 
d="M238 613q20 0 48.5 -2t56.5 -4.5t49.5 -6t29.5 -6.5l-13 -122h-9q0 46 -32 73t-92 27q-48 0 -77.5 -21t-31.5 -56q-2 -18 6.5 -32.5t24 -25.5t34.5 -22l157 -97q40 -20 63 -58t20 -92q-3 -56 -32.5 -97t-81 -62.5t-121.5 -21.5q-43 0 -80 7t-63.5 19t-40.5 27
q-8 20 -7 48.5t9 57t20 47.5h8q-3 -45 16 -83t57.5 -60.5t91.5 -22.5q58 0 87 27t29 64q0 26 -17.5 47.5t-57.5 42.5l-142 90q-50 26 -72.5 69t-16.5 94q5 48 28.5 82t62.5 52t89 18zM422 604l-1 -18h-107v18h108zM753 613q20 0 48.5 -2t56.5 -4.5t49.5 -6t29.5 -6.5
l-13 -122h-9q0 46 -32 73t-92 27q-48 0 -77.5 -21t-31.5 -56q-2 -18 6.5 -32.5t24 -25.5t34.5 -22l157 -97q40 -20 63 -58t20 -92q-3 -56 -32.5 -97t-81 -62.5t-121.5 -21.5q-43 0 -80 7t-63.5 19t-40.5 27q-8 20 -7 48.5t9 57t20 47.5h8q-3 -45 16 -83t57.5 -60.5
t91.5 -22.5q58 0 87 27t29 64q0 26 -17.5 47.5t-57.5 42.5l-142 90q-50 26 -72.5 69t-16.5 94q5 48 28.5 82t62.5 52t89 18zM937 604l-1 -18h-107v18h108z" />
    <glyph glyph-name="agrave" unicode="&#xe0;" horiz-adv-x="644" 
d="M335 671l-7 -7q-33 8 -69.5 22t-71 31.5t-64.5 36.5q9 28 25 48t43 34q21 -20 48.5 -47t53 -57.5t42.5 -60.5zM319 627l296 -622h-169l-186 439zM131 66q-11 -27 3 -41.5t31 -14.5h8v-10h-200v10h4h4q20 0 42 12.5t36 43.5h72zM319 627l2 -120l-217 -504h-74l234 503
q2 6 9 21.5t15 35t15 37t8 27.5h8zM406 196v-39h-255v39h255zM421 66h165q15 -31 37 -43.5t42 -12.5h4h4v-10h-294v10h8q17 0 31 14.5t3 41.5z" />
    <glyph glyph-name="aacute" unicode="&#xe1;" horiz-adv-x="644" 
d="M298 669q17 29 42 60t52.5 58t48.5 47q27 -15 43 -35t26 -47q-31 -19 -66 -36.5t-70.5 -31.5t-68.5 -22zM319 627l296 -622h-169l-186 439zM131 66q-11 -27 3 -41.5t31 -14.5h8v-10h-200v10h4h4q20 0 42 12.5t36 43.5h72zM319 627l2 -120l-217 -504h-74l234 503
q2 6 9 21.5t15 35t15 37t8 27.5h8zM406 196v-39h-255v39h255zM421 66h165q15 -31 37 -43.5t42 -12.5h4h4v-10h-294v10h8q17 0 31 14.5t3 41.5z" />
    <glyph glyph-name="acircumflex" unicode="&#xe2;" horiz-adv-x="644" 
d="M165 663l6 -8l143 65l152 -65l7 8l-153 153h-11zM319 627l296 -622h-169l-186 439zM131 66q-11 -27 3 -41.5t31 -14.5h8v-10h-200v10h4h4q20 0 42 12.5t36 43.5h72zM319 627l2 -120l-217 -504h-74l234 503q2 6 9 21.5t15 35t15 37t8 27.5h8zM406 196v-39h-255v39h255z
M421 66h165q15 -31 37 -43.5t42 -12.5h4h4v-10h-294v10h8q17 0 31 14.5t3 41.5z" />
    <glyph glyph-name="atilde" unicode="&#xe3;" horiz-adv-x="644" 
d="M165 667h11q6 13 16.5 24.5t26.5 18.5t34 4q27 -3 49.5 -15t45.5 -23t50 -12q29 0 49 12.5t32 32t16 41.5t0 40h-11q-4 -9 -15 -19.5t-27 -16.5t-35 -4q-29 3 -51.5 15.5t-45 23t-49.5 10.5t-46.5 -13t-31 -33t-16.5 -43t-2 -43zM319 627l296 -622h-169l-186 439zM131 66
q-11 -27 3 -41.5t31 -14.5h8v-10h-200v10h4h4q20 0 42 12.5t36 43.5h72zM319 627l2 -120l-217 -504h-74l234 503q2 6 9 21.5t15 35t15 37t8 27.5h8zM406 196v-39h-255v39h255zM421 66h165q15 -31 37 -43.5t42 -12.5h4h4v-10h-294v10h8q17 0 31 14.5t3 41.5z" />
    <glyph glyph-name="adieresis" unicode="&#xe4;" horiz-adv-x="644" 
d="M197 659q-25 0 -42.5 17.5t-17.5 42.5t17.5 42.5t42.5 17.5t42.5 -17.5t17.5 -42.5t-17.5 -42.5t-42.5 -17.5zM430 659q-25 0 -42.5 17.5t-17.5 42.5t17.5 42.5t42.5 17.5t42.5 -17.5t17.5 -42.5t-17.5 -42.5t-42.5 -17.5zM319 627l296 -622h-169l-186 439zM131 66
q-11 -27 3 -41.5t31 -14.5h8v-10h-200v10h4h4q20 0 42 12.5t36 43.5h72zM319 627l2 -120l-217 -504h-74l234 503q2 6 9 21.5t15 35t15 37t8 27.5h8zM406 196v-39h-255v39h255zM421 66h165q15 -31 37 -43.5t42 -12.5h4h4v-10h-294v10h8q17 0 31 14.5t3 41.5z" />
    <glyph glyph-name="aring" unicode="&#xe5;" horiz-adv-x="644" 
d="M315 831q46 0 77 -23t31 -59q0 -38 -31 -62t-78 -24q-46 0 -77 24t-31 60t31 60t78 24zM314 806q-21 0 -35.5 -16t-14.5 -43q0 -26 14.5 -42t35.5 -16q23 0 37 16t14 42q0 27 -14 43t-37 16zM319 627l296 -622h-169l-186 439zM131 66q-11 -27 3 -41.5t31 -14.5h8v-10
h-200v10h4h4q20 0 42 12.5t36 43.5h72zM319 627l2 -120l-217 -504h-74l234 503q2 6 9 21.5t15 35t15 37t8 27.5h8zM406 196v-39h-255v39h255zM421 66h165q15 -31 37 -43.5t42 -12.5h4h4v-10h-294v10h8q17 0 31 14.5t3 41.5z" />
    <glyph glyph-name="ae" unicode="&#xe6;" horiz-adv-x="867" 
d="M139 61q-10 -16 -6.5 -27t14 -17.5t21.5 -6.5h8v-10h-197v10h3.5h3.5q21 0 40.5 13t36.5 40zM555 599v-599h-142v560zM415 50v-50h-53v10h5h4q17 0 29.5 11.5t12.5 28.5h2zM795 40v-40h-243v40h243zM753 310v-39h-496l4 39h492zM795 599v-40h-325l-38 -34l-330 -522h-80
l384 550q9 15 2.5 26.5t-21.5 11.5h-4v8h412zM847 176l-39 -176h-164l29 40q59 0 102 36t62 100h10zM753 273v-86h-9v6q0 34 -22 55.5t-55 22.5v2h86zM753 395v-87h-86v2q33 1 55 23t22 55v7h9zM795 562v-101h-9v9q0 40 -24.5 64.5t-64.5 25.5v2h98zM795 615v-25l-105 9
q28 0 60 5.5t45 10.5z" />
    <glyph glyph-name="ccedilla" unicode="&#xe7;" horiz-adv-x="683" 
d="M355 -10h48l-42 -49q14 5 33 5.5t38 -5.5t31.5 -20.5t11.5 -40.5q-2 -33 -28 -56t-65 -30t-77 6l1 10q21 0 43 7t38 22.5t17 41.5q2 21 -14 31.5t-38 11.5t-40 -7l-2.5 5l-2.5 5zM634 251l11 -151q-19 -32 -53 -57.5t-83 -40.5t-114 -15q-112 1 -193 38t-124.5 106.5
t-43.5 169.5q0 98 43 167.5t124 107t194 37.5q68 0 126.5 -13t97.5 -33l1 -159h-8q-25 92 -79 129t-129 37q-72 0 -120.5 -34t-73 -95t-24.5 -143q0 -83 24.5 -144t71.5 -95t113 -36q71 0 117.5 22t74 71t39.5 131h8z" />
    <glyph glyph-name="egrave" unicode="&#xe8;" horiz-adv-x="564" 
d="M311 671l-7 -7q-33 8 -69.5 22t-71 31.5t-64.5 36.5q9 28 25 48t43 34q21 -20 48.5 -47t53 -57.5t42.5 -60.5zM245 600v-600h-144v600h144zM479 40l23 -40h-259v40h236zM445 317v-40h-202v40h202zM490 600v-40h-247v40h247zM543 184l-38 -184h-173l31 40q43 0 76.5 17.5
t57.5 50t37 76.5h9zM445 279v-88h-10v8q0 33 -20.5 55.5t-55.5 22.5v2h86zM445 403v-88h-86v2q35 1 55.5 23.5t20.5 55.5v7h10zM490 562v-106h-10v9q0 44 -23.5 69t-67.5 26v2h101zM490 615v-24l-105 9q29 0 61 5.5t44 9.5zM104 63l4 -63h-74v10h6h7q22 0 38 15.5t16 37.5h3
zM104 537h-3q0 23 -16 38t-38 15h-7h-6v10h74z" />
    <glyph glyph-name="eacute" unicode="&#xe9;" horiz-adv-x="564" 
d="M274 669q17 29 42 60t52.5 58t48.5 47q27 -15 43 -35t26 -47q-31 -19 -66 -36.5t-70.5 -31.5t-68.5 -22zM245 600v-600h-144v600h144zM479 40l23 -40h-259v40h236zM445 317v-40h-202v40h202zM490 600v-40h-247v40h247zM543 184l-38 -184h-173l31 40q43 0 76.5 17.5
t57.5 50t37 76.5h9zM445 279v-88h-10v8q0 33 -20.5 55.5t-55.5 22.5v2h86zM445 403v-88h-86v2q35 1 55.5 23.5t20.5 55.5v7h10zM490 562v-106h-10v9q0 44 -23.5 69t-67.5 26v2h101zM490 615v-24l-105 9q29 0 61 5.5t44 9.5zM104 63l4 -63h-74v10h6h7q22 0 38 15.5t16 37.5h3
zM104 537h-3q0 23 -16 38t-38 15h-7h-6v10h74z" />
    <glyph glyph-name="ecircumflex" unicode="&#xea;" horiz-adv-x="564" 
d="M141 663l6 -8l143 65l152 -65l7 8l-153 153h-11zM245 600v-600h-144v600h144zM479 40l23 -40h-259v40h236zM445 317v-40h-202v40h202zM490 600v-40h-247v40h247zM543 184l-38 -184h-173l31 40q43 0 76.5 17.5t57.5 50t37 76.5h9zM445 279v-88h-10v8q0 33 -20.5 55.5
t-55.5 22.5v2h86zM445 403v-88h-86v2q35 1 55.5 23.5t20.5 55.5v7h10zM490 562v-106h-10v9q0 44 -23.5 69t-67.5 26v2h101zM490 615v-24l-105 9q29 0 61 5.5t44 9.5zM104 63l4 -63h-74v10h6h7q22 0 38 15.5t16 37.5h3zM104 537h-3q0 23 -16 38t-38 15h-7h-6v10h74z" />
    <glyph glyph-name="edieresis" unicode="&#xeb;" horiz-adv-x="564" 
d="M173 659q-25 0 -42.5 17.5t-17.5 42.5t17.5 42.5t42.5 17.5t42.5 -17.5t17.5 -42.5t-17.5 -42.5t-42.5 -17.5zM406 659q-25 0 -42.5 17.5t-17.5 42.5t17.5 42.5t42.5 17.5t42.5 -17.5t17.5 -42.5t-17.5 -42.5t-42.5 -17.5zM245 600v-600h-144v600h144zM479 40l23 -40
h-259v40h236zM445 317v-40h-202v40h202zM490 600v-40h-247v40h247zM543 184l-38 -184h-173l31 40q43 0 76.5 17.5t57.5 50t37 76.5h9zM445 279v-88h-10v8q0 33 -20.5 55.5t-55.5 22.5v2h86zM445 403v-88h-86v2q35 1 55.5 23.5t20.5 55.5v7h10zM490 562v-106h-10v9
q0 44 -23.5 69t-67.5 26v2h101zM490 615v-24l-105 9q29 0 61 5.5t44 9.5zM104 63l4 -63h-74v10h6h7q22 0 38 15.5t16 37.5h3zM104 537h-3q0 23 -16 38t-38 15h-7h-6v10h74z" />
    <glyph glyph-name="igrave" unicode="&#xec;" horiz-adv-x="341" 
d="M189 671l-7 -7q-33 8 -69.5 22t-71 31.5t-64.5 36.5q9 28 25 48t43 34q21 -20 48.5 -47t53 -57.5t42.5 -60.5zM242 600v-600h-144v600h144zM101 63v-63h-67v10h5.5h5.5q22 0 37.5 15.5t15.5 37.5h3zM240 63h2q1 -22 16.5 -37.5t37.5 -15.5h5h5l1 -10h-67v63zM240 537v63
h66v-10h-5h-5q-22 0 -37.5 -15t-16.5 -38h-2zM101 537h-3q0 23 -15.5 38t-37.5 15h-5.5h-5.5v10h67v-63z" />
    <glyph glyph-name="iacute" unicode="&#xed;" horiz-adv-x="340" 
d="M152 670q17 29 42 60t52.5 58t48.5 47q27 -15 43 -35t26 -47q-31 -19 -66 -36.5t-70.5 -31.5t-68.5 -22zM242 600v-600h-144v600h144zM101 63v-63h-67v10h5.5h5.5q22 0 37.5 15.5t15.5 37.5h3zM240 63h2q1 -22 16.5 -37.5t37.5 -15.5h5h5l1 -10h-67v63zM240 537v63h66
v-10h-5h-5q-22 0 -37.5 -15t-16.5 -38h-2zM101 537h-3q0 23 -15.5 38t-37.5 15h-5.5h-5.5v10h67v-63z" />
    <glyph glyph-name="icircumflex" unicode="&#xee;" horiz-adv-x="340" 
d="M19 663l6 -8l143 65l152 -65l7 8l-153 153h-11zM242 600v-600h-144v600h144zM101 63v-63h-67v10h5.5h5.5q22 0 37.5 15.5t15.5 37.5h3zM240 63h2q1 -22 16.5 -37.5t37.5 -15.5h5h5l1 -10h-67v63zM240 537v63h66v-10h-5h-5q-22 0 -37.5 -15t-16.5 -38h-2zM101 537h-3
q0 23 -15.5 38t-37.5 15h-5.5h-5.5v10h67v-63z" />
    <glyph glyph-name="idieresis" unicode="&#xef;" horiz-adv-x="340" 
d="M50 659q-25 0 -42.5 17.5t-17.5 42.5t17.5 42.5t42.5 17.5t42.5 -17.5t17.5 -42.5t-17.5 -42.5t-42.5 -17.5zM283 659q-25 0 -42.5 17.5t-17.5 42.5t17.5 42.5t42.5 17.5t42.5 -17.5t17.5 -42.5t-17.5 -42.5t-42.5 -17.5zM242 600v-600h-144v600h144zM101 63v-63h-67v10
h5.5h5.5q22 0 37.5 15.5t15.5 37.5h3zM240 63h2q1 -22 16.5 -37.5t37.5 -15.5h5h5l1 -10h-67v63zM240 537v63h66v-10h-5h-5q-22 0 -37.5 -15t-16.5 -38h-2zM101 537h-3q0 23 -15.5 38t-37.5 15h-5.5h-5.5v10h67v-63z" />
    <glyph glyph-name="eth" unicode="&#xf0;" horiz-adv-x="748" 
d="M371 600q107 0 184 -35.5t118 -103t41 -161.5t-41 -161t-118 -103t-184 -36h-222l-2 40h122.5h68h21.5q94 0 148.5 69t54.5 191t-54.5 191.5t-148.5 69.5h-22h-71h-129v39h234zM246 600v-600h-144v600h144zM105 63v-63h-72v10h6h7q23 0 39.5 15.5t16.5 37.5h3zM104 537
h-2q0 23 -17 38t-40 15h-6h-6v10h71v-63zM37 320h335v-39h-335v39z" />
    <glyph glyph-name="ntilde" unicode="&#xf1;" horiz-adv-x="779" 
d="M221 667h11q6 13 16.5 24.5t26.5 18.5t34 4q27 -3 49.5 -15t45.5 -23t50 -12q29 0 49 12.5t32 32t16 41.5t0 40h-11q-4 -9 -15 -19.5t-27 -16.5t-35 -4q-29 3 -51.5 15.5t-45 23t-49.5 10.5t-46.5 -13t-31 -33t-16.5 -43t-2 -43zM91 614l587 -516l10 -111l-586 516z
M95 61v-61h-74v10h8h8q23 0 39 14.5t16 36.5h3zM229 61q1 -22 17 -36.5t38 -14.5h8h8v-10h-73v61h2zM91 614l138 -150v-464h-137v500q0 51 -5 82.5l-5 31.5h9zM687 600v-496q0 -35 2.5 -61.5t5 -41l2.5 -14.5h-9l-138 159v454h137zM684 539v61h75v-10h-8.5h-8.5
q-22 0 -38.5 -14.5t-16.5 -36.5h-3zM550 539q-1 22 -16.5 36.5t-38.5 14.5h-8.5h-8.5v10h74v-61h-2z" />
    <glyph glyph-name="ograve" unicode="&#xf2;" horiz-adv-x="777" 
d="M409 671l-7 -7q-33 8 -69.5 22t-71 31.5t-64.5 36.5q9 28 25 48t43 34q21 -20 48.5 -47t53 -57.5t42.5 -60.5zM388 613q80 0 145 -21.5t112 -62.5t72.5 -99t25.5 -131q0 -72 -25.5 -129.5t-72.5 -98.5t-112 -62.5t-145 -21.5q-79 0 -144 21.5t-112 62.5t-72 98.5
t-25 129.5q0 73 25 131t72 99t112 62.5t144 21.5zM388 26q61 0 106.5 33.5t70 94.5t24.5 145q0 85 -24.5 146.5t-70 95t-106.5 33.5q-60 0 -105 -33.5t-70 -95t-25 -146.5q0 -84 25 -145t70 -94.5t105 -33.5z" />
    <glyph glyph-name="oacute" unicode="&#xf3;" horiz-adv-x="777" 
d="M372 670q17 29 42 60t52.5 58t48.5 47q27 -15 43 -35t26 -47q-31 -19 -66 -36.5t-70.5 -31.5t-68.5 -22zM388 613q80 0 145 -21.5t112 -62.5t72.5 -99t25.5 -131q0 -72 -25.5 -129.5t-72.5 -98.5t-112 -62.5t-145 -21.5q-79 0 -144 21.5t-112 62.5t-72 98.5t-25 129.5
q0 73 25 131t72 99t112 62.5t144 21.5zM388 26q61 0 106.5 33.5t70 94.5t24.5 145q0 85 -24.5 146.5t-70 95t-106.5 33.5q-60 0 -105 -33.5t-70 -95t-25 -146.5q0 -84 25 -145t70 -94.5t105 -33.5z" />
    <glyph glyph-name="ocircumflex" unicode="&#xf4;" horiz-adv-x="777" 
d="M239 663l6 -8l143 65l152 -65l7 8l-153 153h-11zM388 613q80 0 145 -21.5t112 -62.5t72.5 -99t25.5 -131q0 -72 -25.5 -129.5t-72.5 -98.5t-112 -62.5t-145 -21.5q-79 0 -144 21.5t-112 62.5t-72 98.5t-25 129.5q0 73 25 131t72 99t112 62.5t144 21.5zM388 26
q61 0 106.5 33.5t70 94.5t24.5 145q0 85 -24.5 146.5t-70 95t-106.5 33.5q-60 0 -105 -33.5t-70 -95t-25 -146.5q0 -84 25 -145t70 -94.5t105 -33.5z" />
    <glyph glyph-name="otilde" unicode="&#xf5;" horiz-adv-x="777" 
d="M238 667h11q6 13 16.5 24.5t26.5 18.5t34 4q27 -3 49.5 -15t45.5 -23t50 -12q29 0 49 12.5t32 32t16 41.5t0 40h-11q-4 -9 -15 -19.5t-27 -16.5t-35 -4q-29 3 -51.5 15.5t-45 23t-49.5 10.5t-46.5 -13t-31 -33t-16.5 -43t-2 -43zM388 613q80 0 145 -21.5t112 -62.5
t72.5 -99t25.5 -131q0 -72 -25.5 -129.5t-72.5 -98.5t-112 -62.5t-145 -21.5q-79 0 -144 21.5t-112 62.5t-72 98.5t-25 129.5q0 73 25 131t72 99t112 62.5t144 21.5zM388 26q61 0 106.5 33.5t70 94.5t24.5 145q0 85 -24.5 146.5t-70 95t-106.5 33.5q-60 0 -105 -33.5
t-70 -95t-25 -146.5q0 -84 25 -145t70 -94.5t105 -33.5z" />
    <glyph glyph-name="odieresis" unicode="&#xf6;" horiz-adv-x="777" 
d="M270 659q-25 0 -42.5 17.5t-17.5 42.5t17.5 42.5t42.5 17.5t42.5 -17.5t17.5 -42.5t-17.5 -42.5t-42.5 -17.5zM503 659q-25 0 -42.5 17.5t-17.5 42.5t17.5 42.5t42.5 17.5t42.5 -17.5t17.5 -42.5t-17.5 -42.5t-42.5 -17.5zM388 613q80 0 145 -21.5t112 -62.5t72.5 -99
t25.5 -131q0 -72 -25.5 -129.5t-72.5 -98.5t-112 -62.5t-145 -21.5q-79 0 -144 21.5t-112 62.5t-72 98.5t-25 129.5q0 73 25 131t72 99t112 62.5t144 21.5zM388 26q61 0 106.5 33.5t70 94.5t24.5 145q0 85 -24.5 146.5t-70 95t-106.5 33.5q-60 0 -105 -33.5t-70 -95
t-25 -146.5q0 -84 25 -145t70 -94.5t105 -33.5z" />
    <glyph glyph-name="divide" unicode="&#xf7;" horiz-adv-x="481" 
d="M40 338h402v-57h-402v57zM241 107q-19 0 -32.5 13t-13.5 32t13.5 32t32.5 13q18 0 31.5 -13t13.5 -32t-13.5 -32t-31.5 -13zM241 423q-19 0 -32.5 13t-13.5 32t13.5 32t32.5 13q18 0 31.5 -13t13.5 -32t-13.5 -32t-31.5 -13z" />
    <glyph glyph-name="oslash" unicode="&#xf8;" horiz-adv-x="777" 
d="M630 638l36 -30l-535 -637l-36 30zM388 613q77 0 142 -21.5t113 -62.5t74 -99t26 -131q0 -72 -25.5 -129.5t-72.5 -98.5t-112 -62.5t-145 -21.5q-79 0 -144 21.5t-112 62.5t-72 98.5t-25 129.5q0 73 25 131t72 99t112 62.5t144 21.5zM388 26q61 0 106.5 33.5t70 94.5
t24.5 145q0 85 -24.5 146.5t-70 95t-106.5 33.5q-60 0 -105 -33.5t-70 -95t-25 -146.5q0 -84 25 -145t70 -94.5t105 -33.5z" />
    <glyph glyph-name="ugrave" unicode="&#xf9;" horiz-adv-x="705" 
d="M399 671l-7 -7q-33 8 -69.5 22t-71 31.5t-64.5 36.5q9 28 25 48t43 34q21 -20 48.5 -47t53 -57.5t42.5 -60.5zM231 600v-377q0 -92 42.5 -144t118.5 -52q79 0 122.5 49t44.5 136v388h66v-382q0 -107 -65.5 -169t-185.5 -62q-144 0 -215.5 61.5t-71.5 168.5v383h144z
M89 600v-52h-2q-1 19 -14 31t-32 12h-7h-7v9h62zM290 600v-9h-7h-7q-19 0 -32 -12t-13 -31h-2v52h61zM561 600v-52h-2q-1 19 -14 31t-31 12h-7h-7v9h61zM684 600v-9h-6.5h-6.5q-19 0 -32.5 -12t-13.5 -31h-2v52h61z" />
    <glyph glyph-name="uacute" unicode="&#xfa;" horiz-adv-x="705" 
d="M362 669q17 29 42 60t52.5 58t48.5 47q27 -15 43 -35t26 -47q-31 -19 -66 -36.5t-70.5 -31.5t-68.5 -22zM231 600v-377q0 -92 42.5 -144t118.5 -52q79 0 122.5 49t44.5 136v388h66v-382q0 -107 -65.5 -169t-185.5 -62q-144 0 -215.5 61.5t-71.5 168.5v383h144zM89 600
v-52h-2q-1 19 -14 31t-32 12h-7h-7v9h62zM290 600v-9h-7h-7q-19 0 -32 -12t-13 -31h-2v52h61zM561 600v-52h-2q-1 19 -14 31t-31 12h-7h-7v9h61zM684 600v-9h-6.5h-6.5q-19 0 -32.5 -12t-13.5 -31h-2v52h61z" />
    <glyph glyph-name="ucircumflex" unicode="&#xfb;" horiz-adv-x="705" 
d="M229 663l6 -8l143 65l152 -65l7 8l-153 153h-11zM231 600v-377q0 -92 42.5 -144t118.5 -52q79 0 122.5 49t44.5 136v388h66v-382q0 -107 -65.5 -169t-185.5 -62q-144 0 -215.5 61.5t-71.5 168.5v383h144zM89 600v-52h-2q-1 19 -14 31t-32 12h-7h-7v9h62zM290 600v-9h-7
h-7q-19 0 -32 -12t-13 -31h-2v52h61zM561 600v-52h-2q-1 19 -14 31t-31 12h-7h-7v9h61zM684 600v-9h-6.5h-6.5q-19 0 -32.5 -12t-13.5 -31h-2v52h61z" />
    <glyph glyph-name="udieresis" unicode="&#xfc;" horiz-adv-x="705" 
d="M261 659q-25 0 -42.5 17.5t-17.5 42.5t17.5 42.5t42.5 17.5t42.5 -17.5t17.5 -42.5t-17.5 -42.5t-42.5 -17.5zM494 659q-25 0 -42.5 17.5t-17.5 42.5t17.5 42.5t42.5 17.5t42.5 -17.5t17.5 -42.5t-17.5 -42.5t-42.5 -17.5zM231 600v-377q0 -92 42.5 -144t118.5 -52
q79 0 122.5 49t44.5 136v388h66v-382q0 -107 -65.5 -169t-185.5 -62q-144 0 -215.5 61.5t-71.5 168.5v383h144zM89 600v-52h-2q-1 19 -14 31t-32 12h-7h-7v9h62zM290 600v-9h-7h-7q-19 0 -32 -12t-13 -31h-2v52h61zM561 600v-52h-2q-1 19 -14 31t-31 12h-7h-7v9h61zM684 600
v-9h-6.5h-6.5q-19 0 -32.5 -12t-13.5 -31h-2v52h61z" />
    <glyph glyph-name="yacute" unicode="&#xfd;" horiz-adv-x="636" 
d="M341 669q17 29 42 60t52.5 58t48.5 47q27 -15 43 -35t26 -47q-31 -19 -66 -36.5t-70.5 -31.5t-68.5 -22zM196 599l188 -325l-133 -15l-219 340h164zM390 272v-272h-144v270zM532 599h73l-225 -347l-47 9zM496 538q11 19 0 35.5t-30 16.5h-6h-6v10h215v-10h-13
q-27 0 -50.5 -14.5t-37.5 -34.5zM231 538l-162 3q-14 21 -37 35t-51 14h-12v10h304v-10h-5.5h-5.5q-20 0 -30.5 -17t-0.5 -35zM249 63v-63h-71v10h6.5h5.5q23 0 39 15.5t17 37.5h3zM388 63h2q1 -22 17.5 -37.5t38.5 -15.5h6h6v-10h-70v63z" />
    <glyph glyph-name="thorn" unicode="&#xfe;" horiz-adv-x="571" 
d="M235 479h101q80 0 130.5 -22t75 -60t25.5 -85q3 -60 -22.5 -103.5t-68.5 -66.5t-93.5 -20.5t-100.5 35.5v8h10t26.5 3.5t34.5 13.5t34 30.5t26 54.5q3 13 4.5 27.5t1.5 25.5q-2 55 -33.5 87.5t-87.5 32.5h-53l-2.5 9.5t-5 19.5zM251 600v-600h-141v600h141zM112 63l5 -63
h-74l1 10h5.5h5.5q23 0 38.5 15.5t16.5 37.5h2zM112 537h-2q-1 23 -16.5 38t-38.5 15h-5.5h-5.5l-1 10h74zM248 63h3q0 -22 16 -37.5t39 -15.5h5.5h5.5v-10h-73zM248 537l-4 63h73v-10h-5.5h-5.5q-23 0 -39 -15t-16 -38h-3z" />
    <glyph glyph-name="ydieresis" unicode="&#xff;" horiz-adv-x="636" 
d="M239 659q-25 0 -42.5 17.5t-17.5 42.5t17.5 42.5t42.5 17.5t42.5 -17.5t17.5 -42.5t-17.5 -42.5t-42.5 -17.5zM472 659q-25 0 -42.5 17.5t-17.5 42.5t17.5 42.5t42.5 17.5t42.5 -17.5t17.5 -42.5t-17.5 -42.5t-42.5 -17.5zM196 599l188 -325l-133 -15l-219 340h164z
M390 272v-272h-144v270zM532 599h73l-225 -347l-47 9zM496 538q11 19 0 35.5t-30 16.5h-6h-6v10h215v-10h-13q-27 0 -50.5 -14.5t-37.5 -34.5zM231 538l-162 3q-14 21 -37 35t-51 14h-12v10h304v-10h-5.5h-5.5q-20 0 -30.5 -17t-0.5 -35zM249 63v-63h-71v10h6.5h5.5
q23 0 39 15.5t17 37.5h3zM388 63h2q1 -22 17.5 -37.5t38.5 -15.5h6h6v-10h-70v63z" />
    <glyph glyph-name="Amacron" unicode="&#x100;" horiz-adv-x="717" 
d="M217 860h274v-65h-274v65zM354 720l326 -714h-179l-208 521zM139 73q-8 -20 -3 -34t17 -21.5t24 -7.5h9v-10h-214v10h4.5h4.5q23 0 47.5 14.5t40.5 48.5h70zM354 720l4 -122l-248 -595h-73l259 586q3 6 10.5 22.5t16 37.5t15.5 40.5t7 30.5h9zM459 238v-42h-294v42h294z
M474 73h175q17 -34 41 -48.5t47 -14.5h4h4v-10h-318v10h9q20 0 35 16.5t3 46.5z" />
    <glyph glyph-name="amacron" unicode="&#x101;" horiz-adv-x="644" 
d="M181 760h274v-65h-274v65zM319 627l296 -622h-169l-186 439zM131 66q-11 -27 3 -41.5t31 -14.5h8v-10h-200v10h4h4q20 0 42 12.5t36 43.5h72zM319 627l2 -120l-217 -504h-74l234 503q2 6 9 21.5t15 35t15 37t8 27.5h8zM406 196v-39h-255v39h255zM421 66h165
q15 -31 37 -43.5t42 -12.5h4h4v-10h-294v10h8q17 0 31 14.5t3 41.5z" />
    <glyph glyph-name="Abreve" unicode="&#x102;" horiz-adv-x="717" 
d="M477 904q7 -37 -9.5 -69t-47 -51.5t-68.5 -19.5t-68.5 19.5t-46 52t-10.5 68.5h11q11 -24 42.5 -42t71.5 -18t72 17.5t42 42.5h11zM354 720l326 -714h-179l-208 521zM139 73q-8 -20 -3 -34t17 -21.5t24 -7.5h9v-10h-214v10h4.5h4.5q23 0 47.5 14.5t40.5 48.5h70zM354 720
l4 -122l-248 -595h-73l259 586q3 6 10.5 22.5t16 37.5t15.5 40.5t7 30.5h9zM459 238v-42h-294v42h294zM474 73h175q17 -34 41 -48.5t47 -14.5h4h4v-10h-318v10h9q20 0 35 16.5t3 46.5z" />
    <glyph glyph-name="abreve" unicode="&#x103;" horiz-adv-x="644" 
d="M440 804q7 -37 -9.5 -69t-47 -51.5t-68.5 -19.5t-68.5 19.5t-46 52t-10.5 68.5h11q11 -24 42.5 -42t71.5 -18t72 17.5t42 42.5h11zM319 627l296 -622h-169l-186 439zM131 66q-11 -27 3 -41.5t31 -14.5h8v-10h-200v10h4h4q20 0 42 12.5t36 43.5h72zM319 627l2 -120
l-217 -504h-74l234 503q2 6 9 21.5t15 35t15 37t8 27.5h8zM406 196v-39h-255v39h255zM421 66h165q15 -31 37 -43.5t42 -12.5h4h4v-10h-294v10h8q17 0 31 14.5t3 41.5z" />
    <glyph glyph-name="Aogonek" unicode="&#x104;" horiz-adv-x="727" 
d="M360 714l322 -689l-174 -10l-209 506zM360 714l3 -122l-254 -589h-72l265 580q3 6 10 22.5t16 37.5t15.5 40.5t7.5 30.5h9zM464 238v-42h-294v42h294zM139 73q-8 -20 -3 -34t17 -21.5t24 -7.5h9v-10h-214v10h4.5h4.5q23 0 47.5 14.5t40.5 48.5h70zM545 0q-37 -7 -51 -28
t-13 -44q2 -29 21 -46.5t45.5 -17.5t50.5 22l6 -6q-5 -35 -27 -53t-51.5 -21t-57 9t-45 37t-12.5 64q3 31 21 49t40 32q19 11 21.5 28t-9.5 48l177 -2q16 -33 39.5 -45t46.5 -15l4 -0.5l4 -0.5v-10q-18 0 -44 2t-56 3.5t-59 0.5t-51 -6z" />
    <glyph glyph-name="aogonek" unicode="&#x105;" horiz-adv-x="633" 
d="M125 66q-12 -27 2.5 -41.5t31.5 -14.5h8v-10h-194v10h4h4q20 0 41.5 13t36.5 43h66zM315 621l3 -112l-220 -506h-69l232 498q3 6 9.5 21t14.5 34t14.5 36.5t7.5 28.5h8zM315 621l293 -616h-162l-185 440zM404 199v-38h-254v38h254zM459 -4q-36 -8 -48 -28.5t-11 -43.5
q2 -30 20.5 -47.5t45 -17t50.5 22.5l6 -6q-5 -35 -27 -53t-51.5 -21t-57 9t-44 37.5t-12.5 64.5q3 32 22.5 52t49.5 35q17 9 23 24t-6 45l161 -4q11 -23 28 -35.5t32 -17t22 -4.5v-10q-14 0 -38.5 2t-54 3t-59 -0.5t-51.5 -6.5z" />
    <glyph glyph-name="Cacute" unicode="&#x106;" horiz-adv-x="780" 
d="M411 769q17 29 42 60t52.5 58t48.5 47q27 -15 43 -35t26 -47q-31 -19 -66 -36.5t-70.5 -31.5t-68.5 -22zM722 292l9 -172q-22 -37 -59 -67t-92 -48.5t-130 -18.5q-122 1 -213.5 44.5t-141.5 124.5t-50 196q0 112 49 193.5t140.5 125.5t218.5 44q80 0 143.5 -16t105.5 -39
l2 -171h-9q-27 99 -88 141.5t-143 42.5q-80 0 -137 -39t-88 -110t-31 -170t29.5 -171t84 -112t128.5 -42q77 0 130 25t85.5 83t48.5 156h8z" />
    <glyph glyph-name="cacute" unicode="&#x107;" horiz-adv-x="683" 
d="M361 678q17 29 42 60t52.5 58t48.5 47q27 -15 43 -35t26 -47q-31 -19 -66 -36.5t-70.5 -31.5t-68.5 -22zM634 251l11 -151q-19 -32 -53 -57.5t-83 -40.5t-114 -15q-112 1 -193 38t-124.5 106.5t-43.5 169.5q0 98 43 167.5t124 107t194 37.5q68 0 126.5 -13t97.5 -33
l1 -159h-8q-25 92 -79 129t-129 37q-72 0 -120.5 -34t-73 -95t-24.5 -143q0 -83 24.5 -144t71.5 -95t113 -36q71 0 117.5 22t74 71t39.5 131h8z" />
    <glyph glyph-name="Ccircumflex" unicode="&#x108;" horiz-adv-x="637" 
d="M210 861l6 -8l143 65l152 -65l7 8l-153 153h-11zM722 292l9 -172q-22 -37 -59 -67t-92 -48.5t-130 -18.5q-122 1 -213.5 44.5t-141.5 124.5t-50 196q0 112 49 193.5t140.5 125.5t218.5 44q80 0 143.5 -16t105.5 -39l2 -171h-9q-27 99 -88 141.5t-143 42.5q-80 0 -137 -39
t-88 -110t-31 -170t29.5 -171t84 -112t128.5 -42q77 0 130 25t85.5 83t48.5 156h8z" />
    <glyph glyph-name="ccircumflex" unicode="&#x109;" horiz-adv-x="514" 
d="M119 696l6 -8l143 65l152 -65l7 8l-153 153h-11zM634 251l11 -151q-19 -32 -53 -57.5t-83 -40.5t-114 -15q-112 1 -193 38t-124.5 106.5t-43.5 169.5q0 98 43 167.5t124 107t194 37.5q68 0 126.5 -13t97.5 -33l1 -159h-8q-25 92 -79 129t-129 37q-72 0 -120.5 -34
t-73 -95t-24.5 -143q0 -83 24.5 -144t71.5 -95t113 -36q71 0 117.5 22t74 71t39.5 131h8z" />
    <glyph glyph-name="Cdotaccent" unicode="&#x10a;" horiz-adv-x="780" 
d="M428 764q-26 0 -44 18t-18 44q0 25 18 43.5t44 18.5t44 -18.5t18 -43.5q0 -26 -18 -44t-44 -18zM722 292l9 -172q-22 -37 -59 -67t-92 -48.5t-130 -18.5q-122 1 -213.5 44.5t-141.5 124.5t-50 196q0 112 49 193.5t140.5 125.5t218.5 44q80 0 143.5 -16t105.5 -39l2 -171
h-9q-27 99 -88 141.5t-143 42.5q-80 0 -137 -39t-88 -110t-31 -170t29.5 -171t84 -112t128.5 -42q77 0 130 25t85.5 83t48.5 156h8z" />
    <glyph glyph-name="cdotaccent" unicode="&#x10b;" horiz-adv-x="683" 
d="M378 673q-26 0 -44 18t-18 44q0 25 18 43.5t44 18.5t44 -18.5t18 -43.5q0 -26 -18 -44t-44 -18zM634 251l11 -151q-19 -32 -53 -57.5t-83 -40.5t-114 -15q-112 1 -193 38t-124.5 106.5t-43.5 169.5q0 98 43 167.5t124 107t194 37.5q68 0 126.5 -13t97.5 -33l1 -159h-8
q-25 92 -79 129t-129 37q-72 0 -120.5 -34t-73 -95t-24.5 -143q0 -83 24.5 -144t71.5 -95t113 -36q71 0 117.5 22t74 71t39.5 131h8z" />
    <glyph glyph-name="Ccaron" unicode="&#x10c;" horiz-adv-x="780" 
d="M573 917l-6 8l-137 -65l-147 65l-6 -8l147 -153h11zM722 292l9 -172q-22 -37 -59 -67t-92 -48.5t-130 -18.5q-122 1 -213.5 44.5t-141.5 124.5t-50 196q0 112 49 193.5t140.5 125.5t218.5 44q80 0 143.5 -16t105.5 -39l2 -171h-9q-27 99 -88 141.5t-143 42.5
q-80 0 -137 -39t-88 -110t-31 -170t29.5 -171t84 -112t128.5 -42q77 0 130 25t85.5 83t48.5 156h8z" />
    <glyph glyph-name="ccaron" unicode="&#x10d;" horiz-adv-x="683" 
d="M522 827l-6 8l-137 -65l-147 65l-6 -8l147 -153h11zM634 251l11 -151q-19 -32 -53 -57.5t-83 -40.5t-114 -15q-112 1 -193 38t-124.5 106.5t-43.5 169.5q0 98 43 167.5t124 107t194 37.5q68 0 126.5 -13t97.5 -33l1 -159h-8q-25 92 -79 129t-129 37q-72 0 -120.5 -34
t-73 -95t-24.5 -143q0 -83 24.5 -144t71.5 -95t113 -36q71 0 117.5 22t74 71t39.5 131h8z" />
    <glyph glyph-name="Dcaron" unicode="&#x10e;" horiz-adv-x="828" 
d="M556 917l-6 8l-137 -65l-147 65l-6 -8l147 -153h11zM405 700q118 0 204 -42.5t132.5 -121t46.5 -186.5t-46.5 -186.5t-132.5 -121t-204 -42.5h-238l-1 42h60.5h61h53.5h38h14q72 0 124 37.5t80 106.5t28 164t-28 164t-80 106.5t-124 37.5h-14.5h-39.5h-56h-64h-63v42h249
zM269 700v-700h-150v700h150zM122 73v-73h-80v10h6.5h6.5q26 0 44.5 18.5t19.5 44.5h3zM122 627h-3q0 26 -19 44.5t-45 18.5h-6h-6l-1 10h80v-73z" />
    <glyph glyph-name="dcaron" unicode="&#x10f;" horiz-adv-x="748" 
d="M514 818l-6 8l-137 -65l-147 65l-6 -8l147 -153h11zM371 600q107 0 184 -35.5t118 -103t41 -161.5t-41 -161t-118 -103t-184 -36h-222l-2 40h122.5h68h21.5q94 0 148.5 69t54.5 191t-54.5 191.5t-148.5 69.5h-22h-71h-129v39h234zM246 600v-600h-144v600h144zM105 64v-64
h-72v10h6h7q23 0 39.5 16t16.5 38h3zM104 537h-2q-1 23 -17.5 38t-39.5 15h-6h-6v10h71v-63z" />
    <glyph glyph-name="Dcroat" unicode="&#x110;" horiz-adv-x="828" 
d="M278 860h274v-65h-274v65zM405 700q118 0 204 -42.5t132.5 -121t46.5 -186.5t-46.5 -186.5t-132.5 -121t-204 -42.5h-238l-1 42h60.5h61h53.5h38h14q72 0 124 37.5t80 106.5t28 164t-28 164t-80 106.5t-124 37.5h-14.5h-39.5h-56h-64h-63v42h249zM269 700v-700h-150v700
h150zM122 73v-73h-80v10h6.5h6.5q26 0 44.5 18.5t19.5 44.5h3zM122 627h-3q0 26 -19 44.5t-45 18.5h-6h-6l-1 10h80v-73z" />
    <glyph glyph-name="dcroat" unicode="&#x111;" horiz-adv-x="748" 
d="M236 761h274v-65h-274v65zM371 600q107 0 184 -35.5t118 -103t41 -161.5t-41 -161t-118 -103t-184 -36h-222l-2 40h122.5h68h21.5q94 0 148.5 69t54.5 191t-54.5 191.5t-148.5 69.5h-22h-71h-129v39h234zM246 600v-600h-144v600h144zM105 64v-64h-72v10h6h7q23 0 39.5 16
t16.5 38h3zM104 537h-2q-1 23 -17.5 38t-39.5 15h-6h-6v10h71v-63z" />
    <glyph glyph-name="Emacron" unicode="&#x112;" horiz-adv-x="632" 
d="M189 860h274v-65h-274v65zM269 700v-700h-150v700h150zM533 43l24 -43h-291v43h267zM496 366v-42h-230v42h230zM545 700v-43h-279v43h279zM606 204l-46 -204h-196l36 43q50 0 88 19.5t65 56t43 85.5h10zM496 326v-96h-10v9q0 36 -24 60t-61 25v2h95zM496 460v-96h-95v2
q37 1 61 25.5t24 60.5v8h10zM545 660v-117h-10v12q0 46 -27.5 74t-74.5 29v2h112zM545 718v-29l-122 11q22 0 46.5 3t45.5 7t30 8zM122 73v-73h-80v10h6.5h6.5q26 0 44.5 18.5t19.5 44.5h3zM122 627h-3q-1 26 -19.5 44.5t-44.5 18.5h-6.5h-6.5v10h80v-73z" />
    <glyph glyph-name="emacron" unicode="&#x113;" horiz-adv-x="564" 
d="M157 761h274v-65h-274v65zM245 600v-600h-144v600h144zM479 40l23 -40h-259v40h236zM445 317v-40h-202v40h202zM490 600v-40h-247v40h247zM543 184l-38 -184h-173l31 40q43 0 76.5 17.5t57.5 50t37 76.5h9zM445 279v-88h-10v8q0 33 -20.5 55.5t-55.5 22.5v2h86zM445 403
v-88h-86v2q35 1 55.5 23.5t20.5 55.5v7h10zM490 562v-106h-10v9q0 44 -23.5 69t-67.5 26v2h101zM490 615v-24l-105 9q29 0 61 5.5t44 9.5zM104 63l4 -63h-74v10h6h7q22 0 38 15.5t16 37.5h3zM104 537h-3q0 23 -16 38t-38 15h-7h-6v10h74z" />
    <glyph glyph-name="Ebreve" unicode="&#x114;" horiz-adv-x="560" 
d="M334 1031q7 -37 -9.5 -69t-47 -51.5t-68.5 -19.5t-68.5 19.5t-46 52t-10.5 68.5h11q11 -24 42.5 -42t71.5 -18t72 17.5t42 42.5h11zM269 700v-700h-150v700h150zM533 43l24 -43h-291v43h267zM496 366v-42h-230v42h230zM545 700v-43h-279v43h279zM606 204l-46 -204h-196
l36 43q50 0 88 19.5t65 56t43 85.5h10zM496 326v-96h-10v9q0 36 -24 60t-61 25v2h95zM496 460v-96h-95v2q37 1 61 25.5t24 60.5v8h10zM545 660v-117h-10v12q0 46 -27.5 74t-74.5 29v2h112zM545 718v-29l-122 11q22 0 46.5 3t45.5 7t30 8zM122 73v-73h-80v10h6.5h6.5
q26 0 44.5 18.5t19.5 44.5h3zM122 627h-3q-1 26 -19.5 44.5t-44.5 18.5h-6.5h-6.5v10h80v-73z" />
    <glyph glyph-name="ebreve" unicode="&#x115;" horiz-adv-x="590" 
d="M345 866q7 -37 -9.5 -69t-47 -51.5t-68.5 -19.5t-68.5 19.5t-46 52t-10.5 68.5h11q11 -24 42.5 -42t71.5 -18t72 17.5t42 42.5h11zM245 600v-600h-144v600h144zM479 40l23 -40h-259v40h236zM445 317v-40h-202v40h202zM490 600v-40h-247v40h247zM543 184l-38 -184h-173
l31 40q43 0 76.5 17.5t57.5 50t37 76.5h9zM445 279v-88h-10v8q0 33 -20.5 55.5t-55.5 22.5v2h86zM445 403v-88h-86v2q35 1 55.5 23.5t20.5 55.5v7h10zM490 562v-106h-10v9q0 44 -23.5 69t-67.5 26v2h101zM490 615v-24l-105 9q29 0 61 5.5t44 9.5zM104 63l4 -63h-74v10h6h7
q22 0 38 15.5t16 37.5h3zM104 537h-3q0 23 -16 38t-38 15h-7h-6v10h74z" />
    <glyph glyph-name="Edotaccent" unicode="&#x116;" horiz-adv-x="632" 
d="M323 764q-26 0 -44 18t-18 44q0 25 18 43.5t44 18.5t44 -18.5t18 -43.5q0 -26 -18 -44t-44 -18zM269 700v-700h-150v700h150zM533 43l24 -43h-291v43h267zM496 366v-42h-230v42h230zM545 700v-43h-279v43h279zM606 204l-46 -204h-196l36 43q50 0 88 19.5t65 56t43 85.5
h10zM496 326v-96h-10v9q0 36 -24 60t-61 25v2h95zM496 460v-96h-95v2q37 1 61 25.5t24 60.5v8h10zM545 660v-117h-10v12q0 46 -27.5 74t-74.5 29v2h112zM545 718v-29l-122 11q22 0 46.5 3t45.5 7t30 8zM122 73v-73h-80v10h6.5h6.5q26 0 44.5 18.5t19.5 44.5h3zM122 627h-3
q-1 26 -19.5 44.5t-44.5 18.5h-6.5h-6.5v10h80v-73z" />
    <glyph glyph-name="edotaccent" unicode="&#x117;" horiz-adv-x="564" 
d="M291 664q-26 0 -44 18t-18 44q0 25 18 43.5t44 18.5t44 -18.5t18 -43.5q0 -26 -18 -44t-44 -18zM245 600v-600h-144v600h144zM479 40l23 -40h-259v40h236zM445 317v-40h-202v40h202zM490 600v-40h-247v40h247zM543 184l-38 -184h-173l31 40q43 0 76.5 17.5t57.5 50
t37 76.5h9zM445 279v-88h-10v8q0 33 -20.5 55.5t-55.5 22.5v2h86zM445 403v-88h-86v2q35 1 55.5 23.5t20.5 55.5v7h10zM490 562v-106h-10v9q0 44 -23.5 69t-67.5 26v2h101zM490 615v-24l-105 9q29 0 61 5.5t44 9.5zM104 63l4 -63h-74v10h6h7q22 0 38 15.5t16 37.5h3z
M104 537h-3q0 23 -16 38t-38 15h-7h-6v10h74z" />
    <glyph glyph-name="Eogonek" unicode="&#x118;" horiz-adv-x="632" 
d="M549 3l10 -3q-41 -9 -56 -30t-13 -48q2 -29 20.5 -46.5t44.5 -17.5t51 22l6 -6q-5 -35 -27 -53t-51 -21t-56.5 8.5t-44.5 37.5t-13 65q3 34 23 54.5t48.5 30t57.5 7.5zM269 700v-700h-150v700h150zM533 43l24 -43h-291v43h267zM496 366v-42h-230v42h230zM545 700v-43
h-279v43h279zM606 204l-46 -204h-196l36 43q50 0 88 19.5t65 56t43 85.5h10zM496 326v-96h-10v9q0 36 -24 60t-61 25v2h95zM496 460v-96h-95v2q37 1 61 25.5t24 60.5v8h10zM545 660v-117h-10v12q0 46 -27.5 74t-74.5 29v2h112zM545 718v-29l-122 11q22 0 46.5 3t45.5 7t30 8
zM122 73v-73h-80v10h6.5h6.5q26 0 44.5 18.5t19.5 44.5h3zM122 627h-3q-1 26 -19.5 44.5t-44.5 18.5h-6.5h-6.5v10h80v-73z" />
    <glyph glyph-name="eogonek" unicode="&#x119;" horiz-adv-x="564" 
d="M492 3l10 -3q-41 -9 -56 -30t-13 -48q2 -29 20.5 -46.5t44.5 -17.5t51 22l6 -6q-5 -35 -27 -53t-51 -21t-56.5 8.5t-44.5 37.5t-13 65q3 34 23 54.5t48.5 30t57.5 7.5zM245 600v-600h-144v600h144zM479 40l23 -40h-259v40h236zM445 317v-40h-202v40h202zM490 600v-40
h-247v40h247zM543 184l-38 -184h-173l31 40q43 0 76.5 17.5t57.5 50t37 76.5h9zM445 279v-88h-10v8q0 33 -20.5 55.5t-55.5 22.5v2h86zM445 403v-88h-86v2q35 1 55.5 23.5t20.5 55.5v7h10zM490 562v-106h-10v9q0 44 -23.5 69t-67.5 26v2h101zM490 615v-24l-105 9
q29 0 61 5.5t44 9.5zM104 63l4 -63h-74v10h6h7q22 0 38 15.5t16 37.5h3zM104 537h-3q0 23 -16 38t-38 15h-7h-6v10h74z" />
    <glyph glyph-name="Ecaron" unicode="&#x11a;" horiz-adv-x="632" 
d="M467 917l-6 8l-137 -65l-147 65l-6 -8l147 -153h11zM269 700v-700h-150v700h150zM533 43l24 -43h-291v43h267zM496 366v-42h-230v42h230zM545 700v-43h-279v43h279zM606 204l-46 -204h-196l36 43q50 0 88 19.5t65 56t43 85.5h10zM496 326v-96h-10v9q0 36 -24 60t-61 25v2
h95zM496 460v-96h-95v2q37 1 61 25.5t24 60.5v8h10zM545 660v-117h-10v12q0 46 -27.5 74t-74.5 29v2h112zM545 718v-29l-122 11q22 0 46.5 3t45.5 7t30 8zM122 73v-73h-80v10h6.5h6.5q26 0 44.5 18.5t19.5 44.5h3zM122 627h-3q-1 26 -19.5 44.5t-44.5 18.5h-6.5h-6.5v10h80
v-73z" />
    <glyph glyph-name="ecaron" unicode="&#x11b;" horiz-adv-x="564" 
d="M436 818l-6 8l-137 -65l-147 65l-6 -8l147 -153h11zM245 600v-600h-144v600h144zM479 40l23 -40h-259v40h236zM445 317v-40h-202v40h202zM490 600v-40h-247v40h247zM543 184l-38 -184h-173l31 40q43 0 76.5 17.5t57.5 50t37 76.5h9zM445 279v-88h-10v8q0 33 -20.5 55.5
t-55.5 22.5v2h86zM445 403v-88h-86v2q35 1 55.5 23.5t20.5 55.5v7h10zM490 562v-106h-10v9q0 44 -23.5 69t-67.5 26v2h101zM490 615v-24l-105 9q29 0 61 5.5t44 9.5zM104 63l4 -63h-74v10h6h7q22 0 38 15.5t16 37.5h3zM104 537h-3q0 23 -16 38t-38 15h-7h-6v10h74z" />
    <glyph glyph-name="Gcircumflex" unicode="&#x11c;" horiz-adv-x="724" 
d="M217 861l6 -8l143 65l152 -65l7 8l-153 153h-11zM755 280v-165q-24 -30 -71.5 -60t-114 -49.5t-146.5 -19.5q-114 0 -199 44.5t-132 126.5t-47 194t46.5 193t133 125.5t204.5 44.5q55 0 107 -7.5t96 -19.5t73 -28l2 -171h-9q-19 68 -55 108.5t-83.5 58t-100.5 17.5
q-82 0 -138 -39.5t-84.5 -112.5t-28.5 -175q0 -96 26.5 -167.5t77.5 -110t124 -39.5q37 0 71.5 11.5t60.5 33.5t37 54l1 153q0 45 -51 45h-16v10h281v-10h-15q-52 0 -50 -45z" />
    <glyph glyph-name="gcircumflex" unicode="&#x11d;" horiz-adv-x="632" 
d="M129 696l6 -8l143 65l152 -65l7 8l-153 153h-11zM370 613q46 0 92.5 -5.5t87 -16t68.5 -24.5v-159h-8q-16 64 -47.5 100t-72.5 51t-89 15q-70 0 -118 -33t-72.5 -95.5t-24.5 -150.5q0 -83 22 -143t65 -93t104 -33q32 0 61 10.5t51 31t31 50.5l1 120q0 20 -11.5 30
t-32.5 10h-14v9h257v-9h-13q-44 0 -43 -40v-133q-21 -27 -65 -54.5t-104 -45.5t-131 -18q-100 1 -174 38.5t-115 107.5t-41 168t41 167.5t116 107t179 37.5z" />
    <glyph glyph-name="Gbreve" unicode="&#x11e;" horiz-adv-x="836" 
d="M548 904q7 -37 -9.5 -69t-47 -51.5t-68.5 -19.5t-68.5 19.5t-46 52t-10.5 68.5h11q11 -24 42.5 -42t71.5 -18t72 17.5t42 42.5h11zM755 280v-165q-24 -30 -71.5 -60t-114 -49.5t-146.5 -19.5q-114 0 -199 44.5t-132 126.5t-47 194t46.5 193t133 125.5t204.5 44.5
q55 0 107 -7.5t96 -19.5t73 -28l2 -171h-9q-19 68 -55 108.5t-83.5 58t-100.5 17.5q-82 0 -138 -39.5t-84.5 -112.5t-28.5 -175q0 -96 26.5 -167.5t77.5 -110t124 -39.5q37 0 71.5 11.5t60.5 33.5t37 54l1 153q0 45 -51 45h-16v10h281v-10h-15q-52 0 -50 -45z" />
    <glyph glyph-name="gbreve" unicode="&#x11f;" horiz-adv-x="730" 
d="M495 812q7 -37 -9.5 -69t-47 -51.5t-68.5 -19.5t-68.5 19.5t-46 52t-10.5 68.5h11q11 -24 42.5 -42t71.5 -18t72 17.5t42 42.5h11zM370 613q46 0 92.5 -5.5t87 -16t68.5 -24.5v-159h-8q-16 64 -47.5 100t-72.5 51t-89 15q-70 0 -118 -33t-72.5 -95.5t-24.5 -150.5
q0 -83 22 -143t65 -93t104 -33q32 0 61 10.5t51 31t31 50.5l1 120q0 20 -11.5 30t-32.5 10h-14v9h257v-9h-13q-44 0 -43 -40v-133q-21 -27 -65 -54.5t-104 -45.5t-131 -18q-100 1 -174 38.5t-115 107.5t-41 168t41 167.5t116 107t179 37.5z" />
    <glyph glyph-name="Gdotaccent" unicode="&#x120;" horiz-adv-x="836" 
d="M423 764q-26 0 -44 18t-18 44q0 25 18 43.5t44 18.5t44 -18.5t18 -43.5q0 -26 -18 -44t-44 -18zM755 280v-165q-24 -30 -71.5 -60t-114 -49.5t-146.5 -19.5q-114 0 -199 44.5t-132 126.5t-47 194t46.5 193t133 125.5t204.5 44.5q55 0 107 -7.5t96 -19.5t73 -28l2 -171h-9
q-19 68 -55 108.5t-83.5 58t-100.5 17.5q-82 0 -138 -39.5t-84.5 -112.5t-28.5 -175q0 -96 26.5 -167.5t77.5 -110t124 -39.5q37 0 71.5 11.5t60.5 33.5t37 54l1 153q0 45 -51 45h-16v10h281v-10h-15q-52 0 -50 -45z" />
    <glyph glyph-name="gdotaccent" unicode="&#x121;" horiz-adv-x="730" 
d="M370 671q-26 0 -44 18t-18 44q0 25 18 43.5t44 18.5t44 -18.5t18 -43.5q0 -26 -18 -44t-44 -18zM370 613q46 0 92.5 -5.5t87 -16t68.5 -24.5v-159h-8q-16 64 -47.5 100t-72.5 51t-89 15q-70 0 -118 -33t-72.5 -95.5t-24.5 -150.5q0 -83 22 -143t65 -93t104 -33
q32 0 61 10.5t51 31t31 50.5l1 120q0 20 -11.5 30t-32.5 10h-14v9h257v-9h-13q-44 0 -43 -40v-133q-21 -27 -65 -54.5t-104 -45.5t-131 -18q-100 1 -174 38.5t-115 107.5t-41 168t41 167.5t116 107t179 37.5z" />
    <glyph glyph-name="uni0122" unicode="&#x122;" horiz-adv-x="836" 
d="M382 -113q0 23 14.5 36t34.5 13q31 0 46.5 -24.5t15.5 -55.5q0 -46 -30.5 -75t-77.5 -30l-3 10q16 6 25.5 18t9.5 27q0 10 -3.5 19.5t-12.5 18.5q-8 9 -13.5 20t-5.5 23zM755 280v-165q-24 -30 -71.5 -60t-114 -49.5t-146.5 -19.5q-114 0 -199 44.5t-132 126.5t-47 194
t46.5 193t133 125.5t204.5 44.5q55 0 107 -7.5t96 -19.5t73 -28l2 -171h-9q-19 68 -55 108.5t-83.5 58t-100.5 17.5q-82 0 -138 -39.5t-84.5 -112.5t-28.5 -175q0 -96 26.5 -167.5t77.5 -110t124 -39.5q37 0 71.5 11.5t60.5 33.5t37 54l1 153q0 45 -51 45h-16v10h281v-10
h-15q-52 0 -50 -45z" />
    <glyph glyph-name="uni0123" unicode="&#x123;" horiz-adv-x="730" 
d="M336 -78q12 12 29 13.5t33 -7t25 -27.5q12 -28 9 -56t-19 -50t-39 -34t-50 -8l-3 8q18 7 27 20t7.5 30t-15.5 33q-15 17 -17 40t13 38zM370 613q46 0 92.5 -5.5t87 -16t68.5 -24.5v-159h-8q-16 64 -47.5 100t-72.5 51t-89 15q-70 0 -118 -33t-72.5 -95.5t-24.5 -150.5
q0 -83 22 -143t65 -93t104 -33q32 0 61 10.5t51 31t31 50.5l1 120q0 20 -11.5 30t-32.5 10h-14v9h257v-9h-13q-44 0 -43 -40v-133q-21 -27 -65 -54.5t-104 -45.5t-131 -18q-100 1 -174 38.5t-115 107.5t-41 168t41 167.5t116 107t179 37.5z" />
    <glyph glyph-name="Hcircumflex" unicode="&#x124;" horiz-adv-x="765" 
d="M205 861l6 -8l143 65l152 -65l7 8l-153 153h-11zM743 700v-700h-150v700h150zM269 700v-700h-150v700h150zM602 369v-42h-343v42h343zM122 73v-73h-80v10h6.5h6.5q26 0 44.5 18.5t19.5 44.5h3zM122 627h-3q-1 26 -19.5 44.5t-44.5 18.5h-6.5h-6.5v10h80v-73zM266 73h3
q1 -26 19.5 -44.5t44.5 -18.5h6h7v-10h-80v73zM266 627v73h80v-10h-7h-6q-26 0 -44.5 -18.5t-19.5 -44.5h-3zM596 73v-73h-80v10h7h6q26 0 45 18.5t19 44.5h3zM596 627h-3q0 26 -19 44.5t-45 18.5h-6h-7v10h80v-73zM740 73h3q1 -26 19.5 -44.5t44.5 -18.5h6.5h6.5v-10h-80
v73zM740 627v73h80v-10h-6.5h-6.5q-26 0 -44.5 -18.5t-19.5 -44.5h-3z" />
    <glyph glyph-name="hcircumflex" unicode="&#x125;" horiz-adv-x="657" 
d="M153 888l6 -8l143 65l152 -65l7 8l-153 153h-11zM651 600v-600h-143v600h143zM244 600v-600h-144v600h144zM516 319v-40h-281v40h281zM103 63v-63h-69v10h5.5h6.5q22 0 38 15.5t16 37.5h3zM242 63h2q1 -22 17 -37.5t38 -15.5h5.5h5.5v-10h-68v63zM242 537v63h68v-10h-5.5
h-5.5q-22 0 -38 -15t-17 -38h-2zM103 537h-3q0 23 -16 38t-38 15h-6.5h-5.5v10h69v-63zM510 63v-63h-68v10h5.5h5.5q22 0 38 15.5t16 37.5h3zM648 63h3q1 -22 16.5 -37.5t38.5 -15.5h5.5h5.5v-10h-69v63zM649 537v63h68v-10h-5.5h-5.5q-23 0 -38.5 -15t-15.5 -38h-3z
M510 537h-3q0 23 -16 38t-38 15h-5.5h-5.5v10h68v-63z" />
    <glyph glyph-name="Hbar" unicode="&#x126;" horiz-adv-x="848" 
d="M803 534v-42h-755v42h755zM736 700v-700h-150v700h150zM262 700v-700h-150v700h150zM595 369v-42h-343v42h343zM115 73v-73h-80v10h6.5h6.5q26 0 44.5 18.5t19.5 44.5h3zM115 627h-3q-1 26 -19.5 44.5t-44.5 18.5h-6.5h-6.5v10h80v-73zM259 73h3q1 -26 19.5 -44.5
t44.5 -18.5h6h7v-10h-80v73zM259 627v73h80v-10h-7h-6q-26 0 -44.5 -18.5t-19.5 -44.5h-3zM589 73v-73h-80v10h7h6q26 0 45 18.5t19 44.5h3zM589 627h-3q0 26 -19 44.5t-45 18.5h-6h-7v10h80v-73zM733 73h3q1 -26 19.5 -44.5t44.5 -18.5h6.5h6.5v-10h-80v73zM733 627v73h80
v-10h-6.5h-6.5q-26 0 -44.5 -18.5t-19.5 -44.5h-3z" />
    <glyph glyph-name="hbar" unicode="&#x127;" horiz-adv-x="752" 
d="M716 459v-39h-678v39h678zM651 600v-600h-143v600h143zM244 600v-600h-144v600h144zM516 319v-40h-281v40h281zM103 63v-63h-69v10h5.5h6.5q22 0 38 15.5t16 37.5h3zM242 63h2q1 -22 17 -37.5t38 -15.5h5.5h5.5v-10h-68v63zM242 537v63h68v-10h-5.5h-5.5q-22 0 -38 -15
t-17 -38h-2zM103 537h-3q0 23 -16 38t-38 15h-6.5h-5.5v10h69v-63zM510 63v-63h-68v10h5.5h5.5q22 0 38 15.5t16 37.5h3zM648 63h3q1 -22 16.5 -37.5t38.5 -15.5h5.5h5.5v-10h-69v63zM649 537v63h68v-10h-5.5h-5.5q-23 0 -38.5 -15t-15.5 -38h-3zM510 537h-3q0 23 -16 38
t-38 15h-5.5h-5.5v10h68v-63z" />
    <glyph glyph-name="Itilde" unicode="&#x128;" horiz-adv-x="389" 
d="M14 833h11q6 13 16.5 24.5t26.5 18.5t34 4q27 -3 49.5 -15t45.5 -23t50 -12q29 0 49 12.5t32 32t16 41.5t0 40h-11q-4 -9 -15 -19.5t-27 -16.5t-35 -4q-29 3 -51.5 15.5t-45 23t-49.5 10.5t-46.5 -13t-31 -33t-16.5 -43t-2 -43zM269 700v-700h-150v700h150zM122 73v-73
h-80v10h6.5h6.5q26 0 44.5 18.5t19.5 44.5h3zM122 627h-3q-1 26 -19.5 44.5t-44.5 18.5h-6.5h-6.5v10h80v-73zM266 73h3q1 -26 19.5 -44.5t44.5 -18.5h6h7v-10h-80v73zM266 627v73h80v-10h-7h-6q-26 0 -44.5 -18.5t-19.5 -44.5h-3z" />
    <glyph glyph-name="itilde" unicode="&#x129;" horiz-adv-x="305" 
d="M-28 668h11q6 13 16.5 24.5t26.5 18.5t34 4q27 -3 49.5 -15t45.5 -23t50 -12q29 0 49 12.5t32 32t16 41.5t0 40h-11q-4 -9 -15 -19.5t-27 -16.5t-35 -4q-29 3 -51.5 15.5t-45 23t-49.5 10.5t-46.5 -13t-31 -33t-16.5 -43t-2 -43zM242 600v-600h-144v600h144zM101 63v-63
h-67v10h5.5h5.5q22 0 37.5 15.5t15.5 37.5h3zM240 63h2q1 -22 16.5 -37.5t37.5 -15.5h5h5l1 -10h-67v63zM240 537v63h66v-10h-5h-5q-22 0 -37.5 -15t-16.5 -38h-2zM101 537h-3q0 23 -15.5 38t-37.5 15h-5.5h-5.5v10h67v-63z" />
    <glyph glyph-name="Imacron" unicode="&#x12a;" horiz-adv-x="387" 
d="M59 860h274v-65h-274v65zM269 700v-700h-150v700h150zM122 73v-73h-80v10h6.5h6.5q26 0 44.5 18.5t19.5 44.5h3zM122 627h-3q-1 26 -19.5 44.5t-44.5 18.5h-6.5h-6.5v10h80v-73zM266 73h3q1 -26 19.5 -44.5t44.5 -18.5h6h7v-10h-80v73zM266 627v73h80v-10h-7h-6
q-26 0 -44.5 -18.5t-19.5 -44.5h-3z" />
    <glyph glyph-name="imacron" unicode="&#x12b;" horiz-adv-x="361" 
d="M44 761h274v-65h-274v65zM251 600v-600h-144v600h144zM110 63v-63h-67v10h5.5h5.5q22 0 37.5 15.5t15.5 37.5h3zM249 63h2q1 -22 16.5 -37.5t37.5 -15.5h5h5l1 -10h-67v63zM249 537v63h66v-10h-5h-5q-22 0 -37.5 -15t-16.5 -38h-2zM110 537h-3q0 23 -15.5 38t-37.5 15
h-5.5h-5.5v10h67v-63z" />
    <glyph glyph-name="Ibreve" unicode="&#x12c;" horiz-adv-x="389" 
d="M238 1031q7 -37 -9.5 -69t-47 -51.5t-68.5 -19.5t-68.5 19.5t-46 52t-10.5 68.5h11q11 -24 42.5 -42t71.5 -18t72 17.5t42 42.5h11zM269 700v-700h-150v700h150zM122 73v-73h-80v10h6.5h6.5q26 0 44.5 18.5t19.5 44.5h3zM122 627h-3q-1 26 -19.5 44.5t-44.5 18.5h-6.5
h-6.5v10h80v-73zM266 73h3q1 -26 19.5 -44.5t44.5 -18.5h6h7v-10h-80v73zM266 627v73h80v-10h-7h-6q-26 0 -44.5 -18.5t-19.5 -44.5h-3z" />
    <glyph glyph-name="ibreve" unicode="&#x12d;" horiz-adv-x="305" 
d="M195 866q7 -37 -9.5 -69t-47 -51.5t-68.5 -19.5t-68.5 19.5t-46 52t-10.5 68.5h11q11 -24 42.5 -42t71.5 -18t72 17.5t42 42.5h11zM242 600v-600h-144v600h144zM101 63v-63h-67v10h5.5h5.5q22 0 37.5 15.5t15.5 37.5h3zM240 63h2q1 -22 16.5 -37.5t37.5 -15.5h5h5l1 -10
h-67v63zM240 537v63h66v-10h-5h-5q-22 0 -37.5 -15t-16.5 -38h-2zM101 537h-3q0 23 -15.5 38t-37.5 15h-5.5h-5.5v10h67v-63z" />
    <glyph glyph-name="Iogonek" unicode="&#x12e;" horiz-adv-x="387" 
d="M219 2l10 -3q-41 -9 -56 -30t-13 -48q2 -29 20.5 -46.5t44.5 -17.5t51 22l6 -6q-5 -35 -27 -53t-51 -21t-56.5 8.5t-44.5 37.5t-13 65q3 34 23 54.5t48.5 30t57.5 7.5zM269 700v-700h-150v700h150zM122 73v-73h-80v10h6.5h6.5q26 0 44.5 18.5t19.5 44.5h3zM122 627h-3
q-1 26 -19.5 44.5t-44.5 18.5h-6.5h-6.5v10h80v-73zM266 73h3q1 -26 19.5 -44.5t44.5 -18.5h6h7v-10h-80v73zM266 627v73h80v-10h-7h-6q-26 0 -44.5 -18.5t-19.5 -44.5h-3z" />
    <glyph glyph-name="iogonek" unicode="&#x12f;" horiz-adv-x="341" 
d="M243 600v-600h-144v600h144zM102 63v-63h-67v9h5.5h5.5q21 0 37 16t16 38h3zM241 63h2q1 -22 16.5 -38t36.5 -16h5h6v-9h-66v63zM241 537v63h66l-1 -9h-5h-5q-21 0 -36.5 -15.5t-16.5 -38.5h-2zM102 537h-3q0 23 -16 38.5t-37 15.5h-5.5h-5.5v9h67v-63zM207 3l10 -3
q-42 -9 -56.5 -30t-12.5 -48q2 -29 20.5 -46.5t45 -17.5t50.5 22l6 -6q-5 -35 -27 -53t-51 -21t-56.5 8.5t-44.5 37.5t-14 65q4 34 24 54.5t48.5 30t57.5 7.5z" />
    <glyph glyph-name="Idotaccent" unicode="&#x130;" horiz-adv-x="387" 
d="M193 764q-26 0 -44 18t-18 44q0 25 18 43.5t44 18.5t44 -18.5t18 -43.5q0 -26 -18 -44t-44 -18zM269 700v-700h-150v700h150zM122 73v-73h-80v10h6.5h6.5q26 0 44.5 18.5t19.5 44.5h3zM122 627h-3q-1 26 -19.5 44.5t-44.5 18.5h-6.5h-6.5v10h80v-73zM266 73h3
q1 -26 19.5 -44.5t44.5 -18.5h6h7v-10h-80v73zM266 627v73h80v-10h-7h-6q-26 0 -44.5 -18.5t-19.5 -44.5h-3z" />
    <glyph glyph-name="dotlessi" unicode="&#x131;" horiz-adv-x="341" 
d="M242 600v-600h-144v600h144zM101 63v-63h-67v10h5.5h5.5q22 0 37.5 15.5t15.5 37.5h3zM240 63h2q1 -22 16.5 -37.5t37.5 -15.5h5h5l1 -10h-67v63zM240 537v63h66v-10h-5h-5q-22 0 -37.5 -15t-16.5 -38h-2zM101 537h-3q0 23 -15.5 38t-37.5 15h-5.5h-5.5v10h67v-63z" />
    <glyph glyph-name="IJ" unicode="&#x132;" horiz-adv-x="771" 
d="M269 700v-700h-150v700h150zM122 73v-73h-80v10h6.5h6.5q26 0 44.5 18.5t19.5 44.5h3zM122 627h-3q-1 26 -19.5 44.5t-44.5 18.5h-6.5h-6.5v10h80v-73zM266 73h3q1 -26 19.5 -44.5t44.5 -18.5h6h7v-10h-80v73zM266 627v73h80v-10h-7h-6q-26 0 -44.5 -18.5t-19.5 -44.5h-3
zM659 700v-670q0 -55 -22 -99.5t-59.5 -75.5t-85.5 -45.5t-100 -9.5v9q42 18 68 53.5t37.5 80t11.5 90.5v667h150zM512 627h-3q-1 26 -19.5 44.5t-44.5 18.5h-6.5h-6.5v10h80v-73zM656 627v73h80v-10h-6.5h-6.5q-26 0 -44.5 -18.5t-19.5 -44.5h-3z" />
    <glyph glyph-name="ij" unicode="&#x133;" horiz-adv-x="693" 
d="M248 600v-600h-144v600h144zM107 63v-63h-73v10h6h7q23 0 40 15.5t17 37.5h3zM246 63h2q1 -22 17.5 -37.5t40.5 -15.5h5.5h6.5v-10h-72v63zM246 537v63h72l-1 -10h-5h-6q-24 0 -40.5 -15t-17.5 -38h-2zM107 537h-3q0 23 -17 38t-41 15h-6h-6v10h73v-63zM597 600v-569
q0 -49 -21 -89.5t-56 -68t-79 -40t-92 -7.5v9q39 17 61.5 48t32 70.5t9.5 79.5v567h145zM456 600v-65h-3q-1 23 -17.5 39t-41.5 16h-11l-1 10h74zM667 600v-10h-12q-24 0 -40.5 -16t-17.5 -39h-3v65h73z" />
    <glyph glyph-name="Jcircumflex" unicode="&#x134;" horiz-adv-x="331" 
d="M-9 861l6 -8l143 65l152 -65l7 8l-153 153h-11zM272 700v-670q0 -55 -22 -99.5t-59.5 -75.5t-85.5 -45.5t-100 -9.5v9q42 18 68 53.5t37.5 80t11.5 90.5v667h150zM125 627h-3q-1 26 -19.5 44.5t-44.5 18.5h-6.5h-6.5v10h80v-73zM269 627v73h80v-10h-6.5h-6.5
q-26 0 -44.5 -18.5t-19.5 -44.5h-3z" />
    <glyph glyph-name="jcircumflex" unicode="&#x135;" horiz-adv-x="305" 
d="M-25 696l6 -8l143 65l152 -65l7 8l-153 153h-11zM34 -240q-57 0 -98 12v117q34 -9 70 -9q38 0 55 21t17 62v583h149v-605q0 -87 -50.5 -134t-142.5 -47z" />
    <glyph glyph-name="uni0136" unicode="&#x136;" horiz-adv-x="757" 
d="M385 -113q0 23 14.5 36t34.5 13q31 0 46.5 -24.5t15.5 -55.5q0 -46 -30.5 -75t-77.5 -30l-3 10q16 6 25.5 18t9.5 27q0 10 -3.5 19.5t-12.5 18.5q-8 9 -13.5 20t-5.5 23zM413 431l262 -359q23 -30 47 -45.5t55 -16.5v-10h-82q-11 0 -36.5 1t-57.5 8t-64.5 24.5
t-56.5 49.5q-5 7 -20 27t-35 48t-41.5 57.5t-40.5 55.5t-30.5 42.5l-11.5 16.5zM664 693l-301 -357l-62 -6l275 363h88zM734 700v-9h-4q-33 0 -61.5 -13.5t-48.5 -35.5l-81 2q12 17 4 32t-28 15h-10v9h225h4zM269 700v-700h-150v700h150zM122 73v-73h-80v10h6.5h6.5
q26 0 44.5 18.5t19.5 44.5h3zM122 627h-3q-1 26 -19.5 44.5t-44.5 18.5h-6.5h-6.5v10h80v-73zM266 73h3q1 -26 19.5 -44.5t44.5 -18.5h6.5h6.5v-10h-80v73zM266 627v73h80v-10h-6.5h-6.5q-26 0 -44.5 -18.5t-19.5 -44.5h-3z" />
    <glyph glyph-name="uni0137" unicode="&#x137;" horiz-adv-x="673" 
d="M324 -113q0 23 14.5 36t34.5 13q31 0 46.5 -24.5t15.5 -55.5q0 -46 -30.5 -75t-77.5 -30l-3 10q16 6 25.5 18t9.5 27q0 10 -3.5 19.5t-12.5 18.5q-8 9 -13.5 20t-5.5 23zM382 377l224 -310q19 -28 40 -42.5t49 -15.5v-9h-77q-10 0 -33 1t-52.5 7.5t-59.5 22.5t-53 46
q-5 7 -17 24t-28.5 40t-34 47t-32.5 45t-24 34l-9 13zM594 594l-261 -308l-58 -6l237 314h82zM655 601v-10h-4q-28 0 -53 -11t-41 -30l-77 2q11 14 4 26.5t-24 12.5h-9v10h200h4zM246 601v-601h-144v601h144zM104 63v-63h-68v10h4.5h5.5q23 0 39 15.5t17 37.5h2zM243 63h3
q0 -22 16 -37.5t39 -15.5h6h5v-10h-69v63zM243 537v64h69v-10h-5.5h-5.5q-23 0 -39 -15.5t-16 -38.5h-3zM104 537h-2q-1 23 -17 38.5t-39 15.5h-5h-6v10h69v-64z" />
    <glyph glyph-name="kgreenlandic" unicode="&#x138;" horiz-adv-x="620" 
d="M226 284l69 83l153 179h159l-215 -250l228 -296h-170l-153 208l-70 -44v-164h-149v546h149v-143l-1 -79l-2 -40h2z" />
    <glyph glyph-name="Lacute" unicode="&#x139;" horiz-adv-x="617" 
d="M177 769q17 29 42 60t52.5 58t48.5 47q27 -15 43 -35t26 -47q-31 -19 -66 -36.5t-70.5 -31.5t-68.5 -22zM269 700v-700h-150v700h150zM533 43l24 -43h-291v43h267zM606 204l-46 -204h-196l36 43q50 0 88 19.5t65 56t43 85.5h10zM122 73v-73h-80v10h6.5h6.5
q26 0 44.5 18.5t19.5 44.5h3zM122 627h-3q-1 26 -19.5 44.5t-44.5 18.5h-6.5h-6.5v10h80v-73zM266 627v73h80v-10h-7h-6q-26 0 -44.5 -18.5t-19.5 -44.5h-3z" />
    <glyph glyph-name="lacute" unicode="&#x13a;" horiz-adv-x="549" 
d="M158 669q17 29 42 60t52.5 58t48.5 47q27 -15 43 -35t26 -47q-31 -19 -66 -36.5t-70.5 -31.5t-68.5 -22zM245 600v-600h-144v600h144zM478 40l24 -40h-259v40h235zM544 184l-39 -184h-173l31 40q43 0 76.5 17.5t57.5 50t37 76.5h10zM104 63l4 -63h-74v10h6h7
q22 0 38 15.5t16 37.5h3zM243 537v63h69v-10h-6.5h-5.5q-22 0 -38 -15t-17 -38h-2zM104 537h-3q0 23 -16.5 38t-38.5 15h-6.5h-5.5v10h70v-63z" />
    <glyph glyph-name="uni013B" unicode="&#x13b;" horiz-adv-x="617" 
d="M283 -113q0 23 14.5 36t34.5 13q31 0 46.5 -24.5t15.5 -55.5q0 -46 -30.5 -75t-77.5 -30l-3 10q16 6 25.5 18t9.5 27q0 10 -3.5 19.5t-12.5 18.5q-8 9 -13.5 20t-5.5 23zM269 700v-700h-150v700h150zM533 43l24 -43h-291v43h267zM606 204l-46 -204h-196l36 43
q50 0 88 19.5t65 56t43 85.5h10zM122 73v-73h-80v10h6.5h6.5q26 0 44.5 18.5t19.5 44.5h3zM122 627h-3q-1 26 -19.5 44.5t-44.5 18.5h-6.5h-6.5v10h80v-73zM266 627v73h80v-10h-7h-6q-26 0 -44.5 -18.5t-19.5 -44.5h-3z" />
    <glyph glyph-name="uni013C" unicode="&#x13c;" horiz-adv-x="549" 
d="M245 -113q0 23 14.5 36t34.5 13q31 0 46.5 -24.5t15.5 -55.5q0 -46 -30.5 -75t-77.5 -30l-3 10q16 6 25.5 18t9.5 27q0 10 -3.5 19.5t-12.5 18.5q-8 9 -13.5 20t-5.5 23zM245 600v-600h-144v600h144zM478 40l24 -40h-259v40h235zM544 184l-39 -184h-173l31 40
q43 0 76.5 17.5t57.5 50t37 76.5h10zM104 63l4 -63h-74v10h6h7q22 0 38 15.5t16 37.5h3zM243 537v63h69v-10h-6.5h-5.5q-22 0 -38 -15t-17 -38h-2zM104 537h-3q0 23 -16.5 38t-38.5 15h-6.5h-5.5v10h70v-63z" />
    <glyph glyph-name="Lcaron" unicode="&#x13d;" horiz-adv-x="617" 
d="M269 700v-700h-150v700h150zM533 43l24 -43h-291v43h267zM606 204l-46 -204h-196l36 43q50 0 88 19.5t65 56t43 85.5h10zM122 73v-73h-80v10h6.5h6.5q26 0 44.5 18.5t19.5 44.5h3zM122 627h-3q-1 26 -19.5 44.5t-44.5 18.5h-6.5h-6.5v10h80v-73zM266 627v73h80v-10h-7h-6
q-26 0 -44.5 -18.5t-19.5 -44.5h-3zM419 693q12 12 29 14t33 -6.5t24 -27.5q13 -28 9.5 -56t-19 -50.5t-38.5 -34t-51 -8.5l-2 8q18 7 26.5 20.5t7.5 30.5t-16 33q-14 17 -16 39.5t13 37.5z" />
    <glyph glyph-name="lcaron" unicode="&#x13e;" horiz-adv-x="549" 
d="M245 600v-600h-144v600h144zM478 40l24 -40h-259v40h235zM544 184l-39 -184h-173l31 40q43 0 76.5 17.5t57.5 50t37 76.5h10zM104 63l4 -63h-74v10h6h7q22 0 38 15.5t16 37.5h3zM243 537v63h69v-10h-6.5h-5.5q-22 0 -38 -15t-17 -38h-2zM104 537h-3q0 23 -16.5 38
t-38.5 15h-6.5h-5.5v10h70v-63zM392 586q12 12 29 13.5t33 -7t24 -26.5q12 -28 9 -56t-18.5 -50.5t-39 -34.5t-50.5 -8l-2 8q17 7 26 20.5t7.5 30.5t-15.5 33q-15 17 -17 39.5t14 37.5z" />
    <glyph glyph-name="Ldot" unicode="&#x13f;" horiz-adv-x="617" 
d="M269 700v-700h-150v700h150zM122 73v-73h-80v10h6.5h6.5q26 0 44.5 18.5t19.5 44.5h3zM533 43l24 -43h-291v43h267zM606 204l-46 -204h-196l36 43q50 0 88 19.5t65 56t43 85.5h10zM122 700v-73h-3q-1 26 -19.5 44.5t-44.5 18.5h-6.5h-6.5v10h80zM346 700v-10h-7h-6
q-26 0 -44.5 -18.5t-19.5 -44.5h-3v73h80zM416 357q-26 0 -44.5 18t-18.5 45q0 26 18.5 44t44.5 18t44 -18t18 -44q0 -27 -18 -45t-44 -18z" />
    <glyph glyph-name="ldot" unicode="&#x140;" horiz-adv-x="549" 
d="M387 324q-26 0 -44.5 18t-18.5 44t18.5 44.5t44.5 18.5t44 -18.5t18 -44.5t-18 -44t-44 -18zM245 600v-600h-144v600h144zM478 40l24 -40h-259v40h235zM544 184l-39 -184h-173l31 40q43 0 76.5 17.5t57.5 50t37 76.5h10zM104 63l4 -63h-74v10h6h7q22 0 38 15.5t16 37.5h3
zM243 537v63h69v-10h-6.5h-5.5q-22 0 -38 -15t-17 -38h-2zM104 537h-3q0 23 -16.5 38t-38.5 15h-6.5h-5.5v10h70v-63z" />
    <glyph glyph-name="Lslash" unicode="&#x141;" horiz-adv-x="617" 
d="M269 700v-700h-150v700h150zM122 700v-73h-3q-1 26 -19.5 44.5t-44.5 18.5h-6.5h-6.5v10h80zM346 700v-10h-7h-6q-26 0 -44.5 -18.5t-19.5 -44.5h-3v73h80zM122 73v-73h-80v10h6.5h6.5q26 0 44.5 18.5t19.5 44.5h3zM533 43l24 -43h-291v43h267zM606 204l-46 -204h-196
l36 43q50 0 88 19.5t65 56t43 85.5h10zM18 274l346 200l22 -38l-346 -200z" />
    <glyph glyph-name="lslash" unicode="&#x142;" horiz-adv-x="549" 
d="M25 256l323 176l22 -37l-324 -177zM245 600v-600h-144v600h144zM478 40l24 -40h-259v40h235zM544 184l-39 -184h-173l31 40q43 0 76.5 17.5t57.5 50t37 76.5h10zM104 63l4 -63h-74v10h6h7q22 0 38 15.5t16 37.5h3zM243 537v63h69v-10h-6.5h-5.5q-22 0 -38 -15t-17 -38h-2
zM104 537h-3q0 23 -16.5 38t-38.5 15h-6.5h-5.5v10h70v-63z" />
    <glyph glyph-name="Nacute" unicode="&#x143;" horiz-adv-x="865" 
d="M400 769q17 29 42 60t52.5 58t48.5 47q27 -15 43 -35t26 -47q-31 -19 -66 -36.5t-70.5 -31.5t-68.5 -22zM108 715l638 -608l12 -121l-638 607zM113 71v-71h-83v10h9h10q25 0 43 18t18 43h3zM253 71q0 -25 18 -43t43 -18h10h9v-10h-83v71h3zM108 715l144 -153l1 -562h-143
v590q0 56 -6 90.5l-6 34.5h10zM755 700v-586q0 -37 3 -66.5t6 -45.5l3 -16h-9l-145 162v552h142zM835 700v-10h-9h-9q-25 0 -43 -17.5t-19 -43.5h-3v71h83zM532 700h83v-71h-2q-1 26 -18.5 43.5t-43.5 17.5h-9h-10v10z" />
    <glyph glyph-name="nacute" unicode="&#x144;" horiz-adv-x="779" 
d="M355 669q17 29 42 60t52.5 58t48.5 47q27 -15 43 -35t26 -47q-31 -19 -66 -36.5t-70.5 -31.5t-68.5 -22zM91 614l587 -516l10 -111l-586 516zM95 61v-61h-74v10h8h8q23 0 39 14.5t16 36.5h3zM229 61q1 -22 17 -36.5t38 -14.5h8h8v-10h-73v61h2zM91 614l138 -150v-464
h-137v500q0 51 -5 82.5l-5 31.5h9zM687 600v-496q0 -35 2.5 -61.5t5 -41l2.5 -14.5h-9l-138 159v454h137zM684 539v61h75v-10h-8.5h-8.5q-22 0 -38.5 -14.5t-16.5 -36.5h-3zM550 539q-1 22 -16.5 36.5t-38.5 14.5h-8.5h-8.5v10h74v-61h-2z" />
    <glyph glyph-name="uni0145" unicode="&#x145;" horiz-adv-x="865" 
d="M424 -113q0 23 14.5 36t34.5 13q31 0 46.5 -24.5t15.5 -55.5q0 -46 -30.5 -75t-77.5 -30l-3 10q16 6 25.5 18t9.5 27q0 10 -3.5 19.5t-12.5 18.5q-8 9 -13.5 20t-5.5 23zM108 715l638 -608l12 -121l-638 607zM113 71v-71h-83v10h9h10q25 0 43 18t18 43h3zM253 71
q0 -25 18 -43t43 -18h10h9v-10h-83v71h3zM108 715l144 -153l1 -562h-143v590q0 56 -6 90.5l-6 34.5h10zM755 700v-586q0 -37 3 -66.5t6 -45.5l3 -16h-9l-145 162v552h142zM835 700v-10h-9h-9q-25 0 -43 -17.5t-19 -43.5h-3v71h83zM532 700h83v-71h-2q-1 26 -18.5 43.5
t-43.5 17.5h-9h-10v10z" />
    <glyph glyph-name="uni0146" unicode="&#x146;" horiz-adv-x="779" 
d="M383 -113q0 23 14.5 36t34.5 13q31 0 46.5 -24.5t15.5 -55.5q0 -46 -30.5 -75t-77.5 -30l-3 10q16 6 25.5 18t9.5 27q0 10 -3.5 19.5t-12.5 18.5q-8 9 -13.5 20t-5.5 23zM91 614l587 -516l10 -111l-586 516zM95 61v-61h-74v10h8h8q23 0 39 14.5t16 36.5h3zM229 61
q1 -22 17 -36.5t38 -14.5h8h8v-10h-73v61h2zM91 614l138 -150v-464h-137v500q0 51 -5 82.5l-5 31.5h9zM687 600v-496q0 -35 2.5 -61.5t5 -41l2.5 -14.5h-9l-138 159v454h137zM684 539v61h75v-10h-8.5h-8.5q-22 0 -38.5 -14.5t-16.5 -36.5h-3zM550 539q-1 22 -16.5 36.5
t-38.5 14.5h-8.5h-8.5v10h74v-61h-2z" />
    <glyph glyph-name="Ncaron" unicode="&#x147;" horiz-adv-x="865" 
d="M562 917l-6 8l-137 -65l-147 65l-6 -8l147 -153h11zM108 715l638 -608l12 -121l-638 607zM113 71v-71h-83v10h9h10q25 0 43 18t18 43h3zM253 71q0 -25 18 -43t43 -18h10h9v-10h-83v71h3zM108 715l144 -153l1 -562h-143v590q0 56 -6 90.5l-6 34.5h10zM755 700v-586
q0 -37 3 -66.5t6 -45.5l3 -16h-9l-145 162v552h142zM835 700v-10h-9h-9q-25 0 -43 -17.5t-19 -43.5h-3v71h83zM532 700h83v-71h-2q-1 26 -18.5 43.5t-43.5 17.5h-9h-10v10z" />
    <glyph glyph-name="ncaron" unicode="&#x148;" horiz-adv-x="779" 
d="M516 817l-6 8l-137 -65l-147 65l-6 -8l147 -153h11zM91 614l587 -516l10 -111l-586 516zM95 61v-61h-74v10h8h8q23 0 39 14.5t16 36.5h3zM229 61q1 -22 17 -36.5t38 -14.5h8h8v-10h-73v61h2zM91 614l138 -150v-464h-137v500q0 51 -5 82.5l-5 31.5h9zM687 600v-496
q0 -35 2.5 -61.5t5 -41l2.5 -14.5h-9l-138 159v454h137zM684 539v61h75v-10h-8.5h-8.5q-22 0 -38.5 -14.5t-16.5 -36.5h-3zM550 539q-1 22 -16.5 36.5t-38.5 14.5h-8.5h-8.5v10h74v-61h-2z" />
    <glyph glyph-name="napostrophe" unicode="&#x149;" horiz-adv-x="778" 
d="M189 714l7 -11q-24 -96 -86 -234h-107q34 145 49 245h137zM213 614l587 -516l10 -111l-586 516zM217 61v-61h-74v10h8h8q23 0 39 14.5t16 36.5h3zM351 61q1 -22 17 -36.5t38 -14.5h8h8v-10h-73v61h2zM213 614l138 -150v-464h-137v500q0 51 -5 82.5l-5 31.5h9zM809 600
v-496q0 -35 2.5 -61.5t5 -41l2.5 -14.5h-9l-138 159v454h137zM806 539v61h75v-10h-8.5h-8.5q-22 0 -38.5 -14.5t-16.5 -36.5h-3zM672 539q-1 22 -16.5 36.5t-38.5 14.5h-8.5h-8.5v10h74v-61h-2z" />
    <glyph glyph-name="Eng" unicode="&#x14a;" horiz-adv-x="863" 
d="M104 715l138 -153l1 -562h-137v590q0 56 -6 90.5l-6 34.5h10zM109 69v-69h-79v11h8.5h9.5q24 0 41 17t17 41h3zM243 69q0 -24 16.5 -41t40.5 -17h9.5h8.5v-11h-78v69h3zM753 -14l-637 607l-12 122l638 -607zM754 -15q0 -49 -18.5 -86.5t-49.5 -61.5t-70.5 -33.5
t-83.5 -3.5l-5 8q21 15 37.5 31t28 37.5t17 54.5t5.5 83v686h136zM538 700h79v-69h-2q-1 25 -18 41.5t-41 16.5h-8.5h-9.5v11zM827 700v-11h-8.5h-8.5q-24 0 -41 -16.5t-18 -41.5h-3v69h79z" />
    <glyph glyph-name="eng" unicode="&#x14b;" horiz-adv-x="788" 
d="M95 61v-61h-74v10h8h8q23 0 39 14.5t16 36.5h3zM224 61q1 -22 17 -36.5t38 -14.5h8.5h8.5v-10h-74v61h2zM91 614l133 -150v-464h-132v500q0 51 -5 82.5l-5 31.5h9zM91 614l587 -516l10 -111l-586 516zM699 3q0 -64 -29 -107t-77 -62.5t-105 -10.5l-5 8q21 14 36.5 30
t26.5 37.5t16 54t5 79.5v568h130zM567 539q-1 22 -16.5 36.5t-37.5 14.5h-8h-9v10h73v-61h-2zM694 539v61h74v-10h-8.5h-8.5q-22 0 -38 -14.5t-16 -36.5h-3z" />
    <glyph glyph-name="Omacron" unicode="&#x14c;" horiz-adv-x="879" 
d="M308 868h274v-65h-274v65zM442 714q120 0 208.5 -44.5t137 -125.5t48.5 -194q0 -112 -48.5 -193.5t-137 -126t-208.5 -44.5t-208.5 44.5t-136.5 125.5t-48 194q0 112 48 193.5t136.5 126t208.5 44.5zM442 28q71 0 122.5 39.5t79 111.5t27.5 171t-27.5 171t-79 111.5
t-122.5 39.5q-70 0 -121.5 -39.5t-79.5 -111.5t-28 -171t28 -171t79.5 -111.5t121.5 -39.5z" />
    <glyph glyph-name="omacron" unicode="&#x14d;" horiz-adv-x="777" 
d="M255 761h274v-65h-274v65zM388 613q80 0 145 -21.5t112 -62.5t72.5 -99t25.5 -131q0 -72 -25.5 -129.5t-72.5 -98.5t-112 -62.5t-145 -21.5q-79 0 -144 21.5t-112 62.5t-72 98.5t-25 129.5q0 73 25 131t72 99t112 62.5t144 21.5zM388 26q61 0 106.5 33.5t70 94.5
t24.5 145q0 85 -24.5 146.5t-70 95t-106.5 33.5q-60 0 -105 -33.5t-70 -95t-25 -146.5q0 -84 25 -145t70 -94.5t105 -33.5z" />
    <glyph glyph-name="Obreve" unicode="&#x14e;" horiz-adv-x="795" 
d="M440 1031q7 -37 -9.5 -69t-47 -51.5t-68.5 -19.5t-68.5 19.5t-46 52t-10.5 68.5h11q11 -24 42.5 -42t71.5 -18t72 17.5t42 42.5h11zM442 714q120 0 208.5 -44.5t137 -125.5t48.5 -194q0 -112 -48.5 -193.5t-137 -126t-208.5 -44.5t-208.5 44.5t-136.5 125.5t-48 194
q0 112 48 193.5t136.5 126t208.5 44.5zM442 28q71 0 122.5 39.5t79 111.5t27.5 171t-27.5 171t-79 111.5t-122.5 39.5q-70 0 -121.5 -39.5t-79.5 -111.5t-28 -171t28 -171t79.5 -111.5t121.5 -39.5z" />
    <glyph glyph-name="obreve" unicode="&#x14f;" horiz-adv-x="619" 
d="M351 866q7 -37 -9.5 -69t-47 -51.5t-68.5 -19.5t-68.5 19.5t-46 52t-10.5 68.5h11q11 -24 42.5 -42t71.5 -18t72 17.5t42 42.5h11zM388 613q80 0 145 -21.5t112 -62.5t72.5 -99t25.5 -131q0 -72 -25.5 -129.5t-72.5 -98.5t-112 -62.5t-145 -21.5q-79 0 -144 21.5
t-112 62.5t-72 98.5t-25 129.5q0 73 25 131t72 99t112 62.5t144 21.5zM388 26q61 0 106.5 33.5t70 94.5t24.5 145q0 85 -24.5 146.5t-70 95t-106.5 33.5q-60 0 -105 -33.5t-70 -95t-25 -146.5q0 -84 25 -145t70 -94.5t105 -33.5z" />
    <glyph glyph-name="Ohungarumlaut" unicode="&#x150;" horiz-adv-x="879" 
d="M335 779q13 29 34 59.5t44.5 57.5t41.5 48q28 -11 46 -27t30 -39q-26 -21 -58 -40.5t-65 -36t-64 -27.5zM511 779q12 29 33 59.5t44.5 57.5t42.5 48q28 -10 46 -26.5t30 -39.5q-27 -21 -59 -40.5t-65 -36t-64 -27.5zM442 714q120 0 208.5 -44.5t137 -125.5t48.5 -194
q0 -112 -48.5 -193.5t-137 -126t-208.5 -44.5t-208.5 44.5t-136.5 125.5t-48 194q0 112 48 193.5t136.5 126t208.5 44.5zM442 28q71 0 122.5 39.5t79 111.5t27.5 171t-27.5 171t-79 111.5t-122.5 39.5q-70 0 -121.5 -39.5t-79.5 -111.5t-28 -171t28 -171t79.5 -111.5
t121.5 -39.5z" />
    <glyph glyph-name="ohungarumlaut" unicode="&#x151;" horiz-adv-x="777" 
d="M283 671q13 29 34 59.5t44.5 57.5t41.5 48q28 -11 46 -27t30 -39q-26 -21 -58 -40.5t-65 -36t-64 -27.5zM459 671q12 29 33 59.5t44.5 57.5t42.5 48q28 -10 46 -26.5t30 -39.5q-27 -21 -59 -40.5t-65 -36t-64 -27.5zM388 613q80 0 145 -21.5t112 -62.5t72.5 -99
t25.5 -131q0 -72 -25.5 -129.5t-72.5 -98.5t-112 -62.5t-145 -21.5q-79 0 -144 21.5t-112 62.5t-72 98.5t-25 129.5q0 73 25 131t72 99t112 62.5t144 21.5zM388 26q61 0 106.5 33.5t70 94.5t24.5 145q0 85 -24.5 146.5t-70 95t-106.5 33.5q-60 0 -105 -33.5t-70 -95
t-25 -146.5q0 -84 25 -145t70 -94.5t105 -33.5z" />
    <glyph glyph-name="OE" unicode="&#x152;" horiz-adv-x="1075" 
d="M445 714q31 0 58.5 -2.5t54.5 -6.5q16 -2 32.5 -3.5t35.5 -1.5l1 -700h-21t-33 -2q-19 -1 -40.5 -4t-45 -5.5t-49.5 -2.5q-117 0 -204.5 44.5t-136 126.5t-48.5 194t48 193.5t137 125.5t211 44zM446 28q34 0 61 8.5t43.5 22.5t16.5 29v524q0 16 -16 29t-43 22t-61 9
q-70 0 -124.5 -38t-85.5 -110t-31 -174q0 -99 30 -171t84.5 -111.5t125.5 -39.5zM716 700v-700l-148 2v698h148zM982 43l24 -43h-292l-3 43h271zM945 366v-42h-232v42h232zM994 700v-43h-281v43h281zM1055 204l-46 -204h-196l36 43q50 0 88.5 19.5t65.5 56t42 85.5h10z
M945 326v-96h-10v9q0 36 -24 60t-61 25v2h95zM945 460v-96h-95v2q37 1 61.5 25.5t23.5 60.5v8h10zM994 660v-117h-11v12q0 46 -27.5 74t-73.5 29v2h112zM994 718v-29l-122 11q22 0 46.5 3t45.5 7t30 8z" />
    <glyph glyph-name="oe" unicode="&#x153;" horiz-adv-x="955" 
d="M384 614q25 0 49 -2.5t50 -5.5q14 -2 29.5 -3.5t32.5 -1.5l1 -601h-20t-30 -2q-18 -1 -36 -4t-38 -5t-45 -2q-103 0 -180 37.5t-119.5 108t-42.5 169.5q0 97 42.5 167t120.5 107.5t186 37.5zM385 26q31 0 54.5 8t37.5 21.5t14 27.5v436q0 14 -13.5 27t-37 21t-54.5 8
q-59 0 -104.5 -31.5t-72 -92.5t-27.5 -150q0 -87 25.5 -148.5t71.5 -94t106 -32.5zM632 601v-601l-140 1v600h140zM870 40l23 -40h-263l-2 40h242zM837 317v-39h-208v39h208zM881 601v-40h-252v40h252zM935 182l-39 -182h-172l31 40q43 0 76 17.5t57 49t37 75.5h10zM837 280
v-86h-10v7q0 33 -20.5 54.5t-55.5 22.5v2h86zM837 402v-86h-86v1q35 2 55.5 23.5t20.5 54.5v7h10zM881 564v-104h-10v9q0 42 -23 67t-66 25v3h99zM881 617v-26l-105 10q29 0 61 5.5t44 10.5z" />
    <glyph glyph-name="Racute" unicode="&#x154;" horiz-adv-x="747" 
d="M348 769q17 29 42 60t52.5 58t48.5 47q27 -15 43 -35t26 -47q-31 -19 -66 -36.5t-70.5 -31.5t-68.5 -22zM259 700h129q45 0 88 -10t76.5 -32t53.5 -58t20 -89q0 -42 -17.5 -83.5t-53.5 -71t-93 -35.5q32 -10 58.5 -36t43.5 -52q1 -2 11.5 -18t26 -39.5t32.5 -47.5t31 -42
q22 -27 40 -43.5t38 -24t46 -8.5v-10h-98q-54 0 -98 10t-78 32.5t-59 61.5q-8 12 -17.5 30.5t-19.5 39.5t-19.5 40.5t-16.5 35.5t-10 25q-13 32 -30.5 48t-37.5 19v10h12h19q27 0 52.5 11t45.5 36t28 69q2 9 3.5 21t0.5 27q-3 72 -36 105.5t-82 34.5q-14 1 -30.5 0.5
t-30 -0.5h-18.5q0 1 -2.5 11.5t-5 21.5zM272 700v-700h-150v700h150zM125 73v-73h-80v10h6.5h6.5q26 0 44.5 18.5t19.5 44.5h3zM125 627h-3q-1 26 -19.5 44.5t-44.5 18.5h-6.5h-6.5v10h80v-73zM269 73h3q0 -26 19 -44.5t45 -18.5h7h5v-10h-79v73z" />
    <glyph glyph-name="racute" unicode="&#x155;" horiz-adv-x="658" 
d="M305 669q17 29 42 60t52.5 58t48.5 47q27 -15 43 -35t26 -47q-31 -19 -66 -36.5t-70.5 -31.5t-68.5 -22zM241 600h107q42 0 81 -8.5t70 -27t49.5 -50t18.5 -78.5q0 -35 -14.5 -69.5t-45 -59.5t-79.5 -33q29 -9 55.5 -35t40.5 -49q5 -8 15 -25.5t25.5 -40t32.5 -46.5
q20 -27 35 -41.5t31 -20.5t37 -6v-10h-84q-54 0 -91.5 8t-64.5 29.5t-51 58.5q-9 13 -19 31.5t-20 37.5t-17.5 37t-10.5 30q-13 32 -29.5 46.5t-30.5 14.5v9h7h18q21 0 41.5 7.5t37.5 29t25 63.5q2 6 3.5 17t0.5 25q-2 37 -13.5 59t-28.5 34t-34.5 16.5t-30.5 4.5
q-19 1 -34.5 0.5t-23.5 0.5q-1 0 -3 10.5t-4 20.5zM251 600v-600h-145v600h145zM109 63l4 -63h-72v10h5.5h6.5q22 0 37.5 15.5t16.5 37.5h2zM109 538h-2q-1 23 -16.5 37.5t-36.5 14.5h-7.5h-5.5v10h72zM249 63h2q0 -25 17.5 -39t36.5 -14h4.5h6.5v-10h-72z" />
    <glyph glyph-name="uni0156" unicode="&#x156;" horiz-adv-x="747" 
d="M388 -113q0 23 14.5 36t34.5 13q31 0 46.5 -24.5t15.5 -55.5q0 -46 -30.5 -75t-77.5 -30l-3 10q16 6 25.5 18t9.5 27q0 10 -3.5 19.5t-12.5 18.5q-8 9 -13.5 20t-5.5 23zM259 700h129q45 0 88 -10t76.5 -32t53.5 -58t20 -89q0 -42 -17.5 -83.5t-53.5 -71t-93 -35.5
q32 -10 58.5 -36t43.5 -52q1 -2 11.5 -18t26 -39.5t32.5 -47.5t31 -42q22 -27 40 -43.5t38 -24t46 -8.5v-10h-98q-54 0 -98 10t-78 32.5t-59 61.5q-8 12 -17.5 30.5t-19.5 39.5t-19.5 40.5t-16.5 35.5t-10 25q-13 32 -30.5 48t-37.5 19v10h12h19q27 0 52.5 11t45.5 36t28 69
q2 9 3.5 21t0.5 27q-3 72 -36 105.5t-82 34.5q-14 1 -30.5 0.5t-30 -0.5h-18.5q0 1 -2.5 11.5t-5 21.5zM272 700v-700h-150v700h150zM125 73v-73h-80v10h6.5h6.5q26 0 44.5 18.5t19.5 44.5h3zM125 627h-3q-1 26 -19.5 44.5t-44.5 18.5h-6.5h-6.5v10h80v-73zM269 73h3
q0 -26 19 -44.5t45 -18.5h7h5v-10h-79v73z" />
    <glyph glyph-name="uni0157" unicode="&#x157;" horiz-adv-x="658" 
d="M348 -113q0 23 14.5 36t34.5 13q31 0 46.5 -24.5t15.5 -55.5q0 -46 -30.5 -75t-77.5 -30l-3 10q16 6 25.5 18t9.5 27q0 10 -3.5 19.5t-12.5 18.5q-8 9 -13.5 20t-5.5 23zM241 600h107q42 0 81 -8.5t70 -27t49.5 -50t18.5 -78.5q0 -35 -14.5 -69.5t-45 -59.5t-79.5 -33
q29 -9 55.5 -35t40.5 -49q5 -8 15 -25.5t25.5 -40t32.5 -46.5q20 -27 35 -41.5t31 -20.5t37 -6v-10h-84q-54 0 -91.5 8t-64.5 29.5t-51 58.5q-9 13 -19 31.5t-20 37.5t-17.5 37t-10.5 30q-13 32 -29.5 46.5t-30.5 14.5v9h7h18q21 0 41.5 7.5t37.5 29t25 63.5q2 6 3.5 17
t0.5 25q-2 37 -13.5 59t-28.5 34t-34.5 16.5t-30.5 4.5q-19 1 -34.5 0.5t-23.5 0.5q-1 0 -3 10.5t-4 20.5zM251 600v-600h-145v600h145zM109 63l4 -63h-72v10h5.5h6.5q22 0 37.5 15.5t16.5 37.5h2zM109 538h-2q-1 23 -16.5 37.5t-36.5 14.5h-7.5h-5.5v10h72zM249 63h2
q0 -25 17.5 -39t36.5 -14h4.5h6.5v-10h-72z" />
    <glyph glyph-name="Rcaron" unicode="&#x158;" horiz-adv-x="747" 
d="M509 917l-6 8l-137 -65l-147 65l-6 -8l147 -153h11zM259 700h129q45 0 88 -10t76.5 -32t53.5 -58t20 -89q0 -42 -17.5 -83.5t-53.5 -71t-93 -35.5q32 -10 58.5 -36t43.5 -52q1 -2 11.5 -18t26 -39.5t32.5 -47.5t31 -42q22 -27 40 -43.5t38 -24t46 -8.5v-10h-98
q-54 0 -98 10t-78 32.5t-59 61.5q-8 12 -17.5 30.5t-19.5 39.5t-19.5 40.5t-16.5 35.5t-10 25q-13 32 -30.5 48t-37.5 19v10h12h19q27 0 52.5 11t45.5 36t28 69q2 9 3.5 21t0.5 27q-3 72 -36 105.5t-82 34.5q-14 1 -30.5 0.5t-30 -0.5h-18.5q0 1 -2.5 11.5t-5 21.5zM272 700
v-700h-150v700h150zM125 73v-73h-80v10h6.5h6.5q26 0 44.5 18.5t19.5 44.5h3zM125 627h-3q-1 26 -19.5 44.5t-44.5 18.5h-6.5h-6.5v10h80v-73zM269 73h3q0 -26 19 -44.5t45 -18.5h7h5v-10h-79v73z" />
    <glyph glyph-name="rcaron" unicode="&#x159;" horiz-adv-x="658" 
d="M466 818l-6 8l-137 -65l-147 65l-6 -8l147 -153h11zM241 600h107q42 0 81 -8.5t70 -27t49.5 -50t18.5 -78.5q0 -35 -14.5 -69.5t-45 -59.5t-79.5 -33q29 -9 55.5 -35t40.5 -49q5 -8 15 -25.5t25.5 -40t32.5 -46.5q20 -27 35 -41.5t31 -20.5t37 -6v-10h-84q-54 0 -91.5 8
t-64.5 29.5t-51 58.5q-9 13 -19 31.5t-20 37.5t-17.5 37t-10.5 30q-13 32 -29.5 46.5t-30.5 14.5v9h7h18q21 0 41.5 7.5t37.5 29t25 63.5q2 6 3.5 17t0.5 25q-2 37 -13.5 59t-28.5 34t-34.5 16.5t-30.5 4.5q-19 1 -34.5 0.5t-23.5 0.5q-1 0 -3 10.5t-4 20.5zM251 600v-600
h-145v600h145zM109 63l4 -63h-72v10h5.5h6.5q22 0 37.5 15.5t16.5 37.5h2zM109 538h-2q-1 23 -16.5 37.5t-36.5 14.5h-7.5h-5.5v10h72zM249 63h2q0 -25 17.5 -39t36.5 -14h4.5h6.5v-10h-72z" />
    <glyph glyph-name="Sacute" unicode="&#x15a;" horiz-adv-x="578" 
d="M271 769q17 29 42 60t52.5 58t48.5 47q27 -15 43 -35t26 -47q-31 -19 -66 -36.5t-70.5 -31.5t-68.5 -22zM277 714q20 0 49.5 -2t61 -5.5t55 -7t32.5 -7.5l-12 -135h-10q0 52 -38.5 83.5t-102.5 31.5q-58 0 -93.5 -28t-37.5 -68q-1 -30 19 -52t51 -41l191 -124
q46 -26 69.5 -68t20.5 -98q-5 -98 -75 -152.5t-190 -54.5q-44 0 -85.5 7.5t-73.5 21t-51 32.5q-8 22 -7 53t9.5 63t21.5 53h9q-4 -51 18.5 -94.5t66 -69t103.5 -24.5q66 1 102 33.5t36 78.5q0 31 -18.5 56t-60.5 48l-175 116q-53 30 -77 77t-18 102q4 52 30 91.5t71.5 61.5
t108.5 22zM476 704l-2 -21h-118v21h120z" />
    <glyph glyph-name="sacute" unicode="&#x15b;" horiz-adv-x="515" 
d="M249 669q17 29 42 60t52.5 58t48.5 47q27 -15 43 -35t26 -47q-31 -19 -66 -36.5t-70.5 -31.5t-68.5 -22zM238 613q20 0 48.5 -2t56.5 -4.5t49.5 -6t29.5 -6.5l-13 -122h-9q0 46 -32 73t-92 27q-48 0 -77.5 -21t-31.5 -56q-2 -18 6.5 -32.5t24 -25.5t34.5 -22l157 -97
q40 -20 63 -58t20 -92q-3 -56 -32.5 -97t-81 -62.5t-121.5 -21.5q-43 0 -80 7t-63.5 19t-40.5 27q-8 20 -7 48.5t9 57t20 47.5h8q-3 -45 16 -83t57.5 -60.5t91.5 -22.5q58 0 87 27t29 64q0 26 -17.5 47.5t-57.5 42.5l-142 90q-50 26 -72.5 69t-16.5 94q5 48 28.5 82t62.5 52
t89 18zM422 604l-1 -18h-107v18h108z" />
    <glyph glyph-name="Scircumflex" unicode="&#x15c;" horiz-adv-x="550" 
d="M116 861l6 -8l143 65l152 -65l7 8l-153 153h-11zM277 714q20 0 49.5 -2t61 -5.5t55 -7t32.5 -7.5l-12 -135h-10q0 52 -38.5 83.5t-102.5 31.5q-58 0 -93.5 -28t-37.5 -68q-1 -30 19 -52t51 -41l191 -124q46 -26 69.5 -68t20.5 -98q-5 -98 -75 -152.5t-190 -54.5
q-44 0 -85.5 7.5t-73.5 21t-51 32.5q-8 22 -7 53t9.5 63t21.5 53h9q-4 -51 18.5 -94.5t66 -69t103.5 -24.5q66 1 102 33.5t36 78.5q0 31 -18.5 56t-60.5 48l-175 116q-53 30 -77 77t-18 102q4 52 30 91.5t71.5 61.5t108.5 22zM476 704l-2 -21h-118v21h120z" />
    <glyph glyph-name="scircumflex" unicode="&#x15d;" horiz-adv-x="497" 
d="M82 696l6 -8l143 65l152 -65l7 8l-153 153h-11zM238 613q20 0 48.5 -2t56.5 -4.5t49.5 -6t29.5 -6.5l-13 -122h-9q0 46 -32 73t-92 27q-48 0 -77.5 -21t-31.5 -56q-2 -18 6.5 -32.5t24 -25.5t34.5 -22l157 -97q40 -20 63 -58t20 -92q-3 -56 -32.5 -97t-81 -62.5
t-121.5 -21.5q-43 0 -80 7t-63.5 19t-40.5 27q-8 20 -7 48.5t9 57t20 47.5h8q-3 -45 16 -83t57.5 -60.5t91.5 -22.5q58 0 87 27t29 64q0 26 -17.5 47.5t-57.5 42.5l-142 90q-50 26 -72.5 69t-16.5 94q5 48 28.5 82t62.5 52t89 18zM422 604l-1 -18h-107v18h108z" />
    <glyph glyph-name="Scedilla" unicode="&#x15e;" horiz-adv-x="578" 
d="M254 -12h48l-42 -49q14 5 33 5.5t38 -5.5t31.5 -20.5t11.5 -40.5q-2 -33 -28 -56t-65 -30t-77 6l1 10q21 0 43 7t38 22.5t17 41.5q2 21 -14 31.5t-38 11.5t-40 -7l-2.5 5l-2.5 5zM277 714q20 0 49.5 -2t61 -5.5t55 -7t32.5 -7.5l-12 -135h-10q0 52 -38.5 83.5
t-102.5 31.5q-58 0 -93.5 -28t-37.5 -68q-1 -30 19 -52t51 -41l191 -124q46 -26 69.5 -68t20.5 -98q-5 -98 -75 -152.5t-190 -54.5q-44 0 -85.5 7.5t-73.5 21t-51 32.5q-8 22 -7 53t9.5 63t21.5 53h9q-4 -51 18.5 -94.5t66 -69t103.5 -24.5q66 1 102 33.5t36 78.5
q0 31 -18.5 56t-60.5 48l-175 116q-53 30 -77 77t-18 102q4 52 30 91.5t71.5 61.5t108.5 22zM476 704l-2 -21h-118v21h120z" />
    <glyph glyph-name="scedilla" unicode="&#x15f;" horiz-adv-x="515" 
d="M228 -9h48l-42 -49q13 5 32.5 5.5t38.5 -5.5t31 -20.5t11 -40.5q-1 -33 -27.5 -56t-65 -30t-76.5 6v10q21 0 43 7t38 22.5t17 41.5q2 21 -13.5 31.5t-37.5 11.5t-40 -7l-2.5 5l-2.5 5zM238 613q20 0 48.5 -2t56.5 -4.5t49.5 -6t29.5 -6.5l-13 -122h-9q0 46 -32 73t-92 27
q-48 0 -78 -21t-31 -56q-2 -18 6.5 -32.5t23.5 -25.5t34 -22l159 -97q39 -20 62 -58t20 -92q-3 -56 -32.5 -97t-81.5 -62.5t-122 -21.5q-42 0 -79 7t-63.5 19t-41.5 27q-7 20 -6 48.5t9 57t20 47.5h7q-2 -45 17 -83t57.5 -60.5t91.5 -22.5q58 0 86.5 27t28.5 64
q0 26 -17 47.5t-57 42.5l-142 90q-50 26 -72.5 69t-16.5 94q5 48 28 82t62 52t90 18zM423 604l-2 -18h-106v18h108z" />
    <glyph glyph-name="Scaron" unicode="&#x160;" horiz-adv-x="578" 
d="M432 917l-6 8l-137 -65l-147 65l-6 -8l147 -153h11zM277 714q20 0 49.5 -2t61 -5.5t55 -7t32.5 -7.5l-12 -135h-10q0 52 -38.5 83.5t-102.5 31.5q-58 0 -93.5 -28t-37.5 -68q-1 -30 19 -52t51 -41l191 -124q46 -26 69.5 -68t20.5 -98q-5 -98 -75 -152.5t-190 -54.5
q-44 0 -85.5 7.5t-73.5 21t-51 32.5q-8 22 -7 53t9.5 63t21.5 53h9q-4 -51 18.5 -94.5t66 -69t103.5 -24.5q66 1 102 33.5t36 78.5q0 31 -18.5 56t-60.5 48l-175 116q-53 30 -77 77t-18 102q4 52 30 91.5t71.5 61.5t108.5 22zM476 704l-2 -21h-118v21h120z" />
    <glyph glyph-name="scaron" unicode="&#x161;" horiz-adv-x="515" 
d="M409 817l-6 8l-137 -65l-147 65l-6 -8l147 -153h11zM238 613q20 0 48.5 -2t56.5 -4.5t49.5 -6t29.5 -6.5l-13 -122h-9q0 46 -32 73t-92 27q-48 0 -77.5 -21t-31.5 -56q-2 -18 6.5 -32.5t24 -25.5t34.5 -22l157 -97q40 -20 63 -58t20 -92q-3 -56 -32.5 -97t-81 -62.5
t-121.5 -21.5q-43 0 -80 7t-63.5 19t-40.5 27q-8 20 -7 48.5t9 57t20 47.5h8q-3 -45 16 -83t57.5 -60.5t91.5 -22.5q58 0 87 27t29 64q0 26 -17.5 47.5t-57.5 42.5l-142 90q-50 26 -72.5 69t-16.5 94q5 48 28.5 82t62.5 52t89 18zM422 604l-1 -18h-107v18h108z" />
    <glyph glyph-name="uni0162" unicode="&#x162;" horiz-adv-x="667" 
d="M304 1h48l-42 -49q14 5 33 5.5t38 -5.5t31.5 -20.5t11.5 -40.5q-2 -33 -28 -56t-65 -30t-77 6l1 10q21 0 43 7t38 22.5t17 41.5q2 21 -14 31.5t-38 11.5t-40 -7l-2.5 5l-2.5 5zM409 697v-697h-150v697h150zM654 701v-42h-640v42h640zM654 662v-118l-10 1v11
q0 47 -27.5 74.5t-74.5 28.5v3h112zM654 719v-29l-122 11q22 0 46.5 3t45.5 7t30 8zM262 73v-73h-80v10h6.5h6.5q26 0 44.5 18.5t19.5 44.5h3zM406 73h3q1 -26 19.5 -44.5t44.5 -18.5h6.5h6.5v-10h-80v73zM125 662v-3q-46 -1 -73.5 -28.5t-27.5 -74.5v-11l-10 -1v118h111z
M14 719q10 -4 30.5 -8t45.5 -7t46 -3l-122 -11v29z" />
    <glyph glyph-name="uni0163" unicode="&#x163;" horiz-adv-x="599" 
d="M272 2h48l-42 -49q14 5 33 5.5t38 -5.5t31.5 -20.5t11.5 -40.5q-2 -33 -28 -56t-65 -30t-77 6l1 10q21 0 43 7t38 22.5t17 41.5q2 21 -14 31.5t-38 11.5t-40 -7l-2.5 5l-2.5 5zM372 597v-597h-145v597h145zM589 601v-40h-579v40h579zM589 564v-106h-10v9q1 43 -23.5 68
t-67.5 26v3h101zM589 616v-25l-105 10q19 0 41 2.5t40 6t24 6.5zM229 63v-63h-67v10h5.5h5.5q22 0 37.5 15.5t16.5 37.5h2zM369 63h3q0 -22 16 -37.5t39 -15.5h5.5h5.5v-10h-69v63zM112 564v-3q-44 -1 -67.5 -26t-23.5 -68v-9h-11v106h102zM10 616q9 -2 26.5 -6t39 -6.5
t39.5 -2.5l-105 -10v25z" />
    <glyph glyph-name="Tcaron" unicode="&#x164;" horiz-adv-x="667" 
d="M478 917l-6 8l-137 -65l-147 65l-6 -8l147 -153h11zM409 697v-697h-150v697h150zM654 701v-42h-640v42h640zM654 662v-118l-10 1v11q0 47 -27.5 74.5t-74.5 28.5v3h112zM654 719v-29l-122 11q22 0 46.5 3t45.5 7t30 8zM262 73v-73h-80v10h6.5h6.5q26 0 44.5 18.5
t19.5 44.5h3zM406 73h3q1 -26 19.5 -44.5t44.5 -18.5h6.5h6.5v-10h-80v73zM125 662v-3q-46 -1 -73.5 -28.5t-27.5 -74.5v-11l-10 -1v118h111zM14 719q10 -4 30.5 -8t45.5 -7t46 -3l-122 -11v29z" />
    <glyph glyph-name="tcaron" unicode="&#x165;" horiz-adv-x="599" 
d="M447 822l-7 8l-137 -65l-147 65l-7 -8l148 -153h11zM372 597v-597h-145v597h145zM589 601v-40h-579v40h579zM589 564v-106h-10v9q1 43 -23.5 68t-67.5 26v3h101zM589 616v-25l-105 10q19 0 41 2.5t40 6t24 6.5zM229 63v-63h-67v10h5.5h5.5q22 0 37.5 15.5t16.5 37.5h2z
M369 63h3q0 -22 16 -37.5t39 -15.5h5.5h5.5v-10h-69v63zM112 564v-3q-44 -1 -67.5 -26t-23.5 -68v-9h-11v106h102zM10 616q9 -3 26.5 -6.5t39 -6t39.5 -2.5l-105 -10v25z" />
    <glyph glyph-name="Tbar" unicode="&#x166;" horiz-adv-x="667" 
d="M409 697v-697h-150v697h150zM654 701v-42h-640v42h640zM654 662v-118l-10 1v11q0 47 -27.5 74.5t-74.5 28.5v3h112zM654 719v-29l-122 11q22 0 46.5 3t45.5 7t30 8zM262 73v-73h-80v10h6.5h6.5q26 0 44.5 18.5t19.5 44.5h3zM406 73h3q1 -26 19.5 -44.5t44.5 -18.5h6.5
h6.5v-10h-80v73zM125 662v-3q-46 -1 -73.5 -28.5t-27.5 -74.5v-11l-10 -1v118h111zM14 719q10 -4 30.5 -8t45.5 -7t46 -3l-122 -11v29zM563 402v-42h-459v42h459z" />
    <glyph glyph-name="tbar" unicode="&#x167;" horiz-adv-x="599" 
d="M372 597v-597h-145v597h145zM589 601v-40h-579v40h579zM589 564v-106h-10v9q1 43 -23.5 68t-67.5 26v3h101zM589 616v-25l-105 10q19 0 41 2.5t40 6t24 6.5zM229 63v-63h-67v10h5.5h5.5q22 0 37.5 15.5t16.5 37.5h2zM369 63h3q0 -22 16 -37.5t39 -15.5h5.5h5.5v-10h-69
v63zM112 564v-3q-44 -1 -67.5 -26t-23.5 -68v-9h-11v106h102zM10 616q9 -2 26.5 -6t39 -6.5t39.5 -2.5l-105 -10v25zM506 343v-39h-409v39h409z" />
    <glyph glyph-name="Utilde" unicode="&#x168;" horiz-adv-x="755" 
d="M198 833h11q6 13 16.5 24.5t26.5 18.5t34 4q27 -3 49.5 -15t45.5 -23t50 -12q29 0 49 12.5t32 32t16 41.5t0 40h-11q-4 -9 -15 -19.5t-27 -16.5t-35 -4q-29 3 -51.5 15.5t-45 23t-49.5 10.5t-46.5 -13t-31 -33t-16.5 -43t-2 -43zM257 700v-440q0 -71 23.5 -123t67 -80
t103.5 -28q61 0 105.5 26.5t68.5 75.5t24 116v453h72v-447q0 -82 -34.5 -142t-99 -92.5t-155.5 -32.5q-106 0 -179 32.5t-109.5 92t-36.5 141.5v448h150zM110 700v-60h-3q0 22 -15.5 36t-37.5 14h-8h-8v10h72zM326 700v-10h-8h-8q-22 0 -37.5 -14t-15.5 -36h-2v60h71z
M652 700v-60h-3q0 22 -15.5 36t-37.5 14h-8h-8v10h72zM790 700v-10h-8h-8q-22 0 -37.5 -14t-15.5 -36h-2v60h71z" />
    <glyph glyph-name="utilde" unicode="&#x169;" horiz-adv-x="657" 
d="M146 668h11q6 13 16.5 24.5t26.5 18.5t34 4q27 -3 49.5 -15t45.5 -23t50 -12q29 0 49 12.5t32 32t16 41.5t0 40h-11q-4 -9 -15 -19.5t-27 -16.5t-35 -4q-29 3 -51.5 15.5t-45 23t-49.5 10.5t-46.5 -13t-31 -33t-16.5 -43t-2 -43zM231 600v-377q0 -92 42.5 -144t118.5 -52
q79 0 122.5 49t44.5 136v388h66v-382q0 -107 -65.5 -169t-185.5 -62q-144 0 -215.5 61.5t-71.5 168.5v383h144zM89 600v-52h-2q-1 19 -14 31t-32 12h-7h-7v9h62zM290 600v-9h-7h-7q-19 0 -32 -12t-13 -31h-2v52h61zM561 600v-52h-2q-1 19 -14 31t-31 12h-7h-7v9h61zM684 600
v-9h-6.5h-6.5q-19 0 -32.5 -12t-13.5 -31h-2v52h61z" />
    <glyph glyph-name="Umacron" unicode="&#x16a;" horiz-adv-x="821" 
d="M317 860h274v-65h-274v65zM257 700v-440q0 -71 23.5 -123t67 -80t103.5 -28q61 0 105.5 26.5t68.5 75.5t24 116v453h72v-447q0 -82 -34.5 -142t-99 -92.5t-155.5 -32.5q-106 0 -179 32.5t-109.5 92t-36.5 141.5v448h150zM110 700v-60h-3q0 22 -15.5 36t-37.5 14h-8h-8v10
h72zM326 700v-10h-8h-8q-22 0 -37.5 -14t-15.5 -36h-2v60h71zM652 700v-60h-3q0 22 -15.5 36t-37.5 14h-8h-8v10h72zM790 700v-10h-8h-8q-22 0 -37.5 -14t-15.5 -36h-2v60h71z" />
    <glyph glyph-name="umacron" unicode="&#x16b;" horiz-adv-x="705" 
d="M245 760h274v-65h-274v65zM231 600v-377q0 -92 42.5 -144t118.5 -52q79 0 122.5 49t44.5 136v388h66v-382q0 -107 -65.5 -169t-185.5 -62q-144 0 -215.5 61.5t-71.5 168.5v383h144zM89 600v-52h-2q-1 19 -14 31t-32 12h-7h-7v9h62zM290 600v-9h-7h-7q-19 0 -32 -12
t-13 -31h-2v52h61zM561 600v-52h-2q-1 19 -14 31t-31 12h-7h-7v9h61zM684 600v-9h-6.5h-6.5q-19 0 -32.5 -12t-13.5 -31h-2v52h61z" />
    <glyph glyph-name="Ubreve" unicode="&#x16c;" horiz-adv-x="755" 
d="M420 1031q7 -37 -9.5 -69t-47 -51.5t-68.5 -19.5t-68.5 19.5t-46 52t-10.5 68.5h11q11 -24 42.5 -42t71.5 -18t72 17.5t42 42.5h11zM257 700v-440q0 -71 23.5 -123t67 -80t103.5 -28q61 0 105.5 26.5t68.5 75.5t24 116v453h72v-447q0 -82 -34.5 -142t-99 -92.5
t-155.5 -32.5q-106 0 -179 32.5t-109.5 92t-36.5 141.5v448h150zM110 700v-60h-3q0 22 -15.5 36t-37.5 14h-8h-8v10h72zM326 700v-10h-8h-8q-22 0 -37.5 -14t-15.5 -36h-2v60h71zM652 700v-60h-3q0 22 -15.5 36t-37.5 14h-8h-8v10h72zM790 700v-10h-8h-8q-22 0 -37.5 -14
t-15.5 -36h-2v60h71z" />
    <glyph glyph-name="ubreve" unicode="&#x16d;" horiz-adv-x="657" 
d="M369 866q7 -37 -9.5 -69t-47 -51.5t-68.5 -19.5t-68.5 19.5t-46 52t-10.5 68.5h11q11 -24 42.5 -42t71.5 -18t72 17.5t42 42.5h11zM231 600v-377q0 -92 42.5 -144t118.5 -52q79 0 122.5 49t44.5 136v388h66v-382q0 -107 -65.5 -169t-185.5 -62q-144 0 -215.5 61.5
t-71.5 168.5v383h144zM89 600v-52h-2q-1 19 -14 31t-32 12h-7h-7v9h62zM290 600v-9h-7h-7q-19 0 -32 -12t-13 -31h-2v52h61zM561 600v-52h-2q-1 19 -14 31t-31 12h-7h-7v9h61zM684 600v-9h-6.5h-6.5q-19 0 -32.5 -12t-13.5 -31h-2v52h61z" />
    <glyph glyph-name="Uring" unicode="&#x16e;" horiz-adv-x="821" 
d="M451 931q46 0 77 -23t31 -59q0 -38 -31 -62t-78 -24q-46 0 -77 24t-31 60t31 60t78 24zM450 906q-21 0 -35.5 -16t-14.5 -43q0 -26 14.5 -42t35.5 -16q23 0 37 16t14 42q0 27 -14 43t-37 16zM257 700v-440q0 -71 23.5 -123t67 -80t103.5 -28q61 0 105.5 26.5t68.5 75.5
t24 116v453h72v-447q0 -82 -34.5 -142t-99 -92.5t-155.5 -32.5q-106 0 -179 32.5t-109.5 92t-36.5 141.5v448h150zM110 700v-60h-3q0 22 -15.5 36t-37.5 14h-8h-8v10h72zM326 700v-10h-8h-8q-22 0 -37.5 -14t-15.5 -36h-2v60h71zM652 700v-60h-3q0 22 -15.5 36t-37.5 14h-8
h-8v10h72zM790 700v-10h-8h-8q-22 0 -37.5 -14t-15.5 -36h-2v60h71z" />
    <glyph glyph-name="uring" unicode="&#x16f;" horiz-adv-x="705" 
d="M379 831q46 0 77 -23t31 -59q0 -38 -31 -62t-78 -24q-46 0 -77 24t-31 60t31 60t78 24zM378 806q-21 0 -35.5 -16t-14.5 -43q0 -26 14.5 -42t35.5 -16q23 0 37 16t14 42q0 27 -14 43t-37 16zM231 600v-377q0 -92 42.5 -144t118.5 -52q79 0 122.5 49t44.5 136v388h66v-382
q0 -107 -65.5 -169t-185.5 -62q-144 0 -215.5 61.5t-71.5 168.5v383h144zM89 600v-52h-2q-1 19 -14 31t-32 12h-7h-7v9h62zM290 600v-9h-7h-7q-19 0 -32 -12t-13 -31h-2v52h61zM561 600v-52h-2q-1 19 -14 31t-31 12h-7h-7v9h61zM684 600v-9h-6.5h-6.5q-19 0 -32.5 -12
t-13.5 -31h-2v52h61z" />
    <glyph glyph-name="Uhungarumlaut" unicode="&#x170;" horiz-adv-x="821" 
d="M345 770q13 29 34 59.5t44.5 57.5t41.5 48q28 -11 46 -27t30 -39q-26 -21 -58 -40.5t-65 -36t-64 -27.5zM521 770q12 29 33 59.5t44.5 57.5t42.5 48q28 -10 46 -26.5t30 -39.5q-27 -21 -59 -40.5t-65 -36t-64 -27.5zM257 700v-440q0 -71 23.5 -123t67 -80t103.5 -28
q61 0 105.5 26.5t68.5 75.5t24 116v453h72v-447q0 -82 -34.5 -142t-99 -92.5t-155.5 -32.5q-106 0 -179 32.5t-109.5 92t-36.5 141.5v448h150zM110 700v-60h-3q0 22 -15.5 36t-37.5 14h-8h-8v10h72zM326 700v-10h-8h-8q-22 0 -37.5 -14t-15.5 -36h-2v60h71zM652 700v-60h-3
q0 22 -15.5 36t-37.5 14h-8h-8v10h72zM790 700v-10h-8h-8q-22 0 -37.5 -14t-15.5 -36h-2v60h71z" />
    <glyph glyph-name="uhungarumlaut" unicode="&#x171;" horiz-adv-x="705" 
d="M273 670q13 29 34 59.5t44.5 57.5t41.5 48q28 -11 46 -27t30 -39q-26 -21 -58 -40.5t-65 -36t-64 -27.5zM449 670q12 29 33 59.5t44.5 57.5t42.5 48q28 -10 46 -26.5t30 -39.5q-27 -21 -59 -40.5t-65 -36t-64 -27.5zM231 600v-377q0 -92 42.5 -144t118.5 -52
q79 0 122.5 49t44.5 136v388h66v-382q0 -107 -65.5 -169t-185.5 -62q-144 0 -215.5 61.5t-71.5 168.5v383h144zM89 600v-52h-2q-1 19 -14 31t-32 12h-7h-7v9h62zM290 600v-9h-7h-7q-19 0 -32 -12t-13 -31h-2v52h61zM561 600v-52h-2q-1 19 -14 31t-31 12h-7h-7v9h61zM684 600
v-9h-6.5h-6.5q-19 0 -32.5 -12t-13.5 -31h-2v52h61z" />
    <glyph glyph-name="Uogonek" unicode="&#x172;" horiz-adv-x="821" 
d="M462 -9l10 -3q-41 -9 -56 -30t-13 -48q2 -29 20.5 -46.5t44.5 -17.5t51 22l6 -6q-5 -35 -27 -53t-51 -21t-56.5 8.5t-44.5 37.5t-13 65q3 34 23 54.5t48.5 30t57.5 7.5zM257 700v-440q0 -71 23.5 -123t67 -80t103.5 -28q61 0 105.5 26.5t68.5 75.5t24 116v453h72v-447
q0 -82 -34.5 -142t-99 -92.5t-155.5 -32.5q-106 0 -179 32.5t-109.5 92t-36.5 141.5v448h150zM110 700v-60h-3q0 22 -15.5 36t-37.5 14h-8h-8v10h72zM326 700v-10h-8h-8q-22 0 -37.5 -14t-15.5 -36h-2v60h71zM652 700v-60h-3q0 22 -15.5 36t-37.5 14h-8h-8v10h72zM790 700
v-10h-8h-8q-22 0 -37.5 -14t-15.5 -36h-2v60h71z" />
    <glyph glyph-name="uogonek" unicode="&#x173;" horiz-adv-x="705" 
d="M405 -8l10 -3q-41 -9 -56 -30t-13 -48q2 -29 20.5 -46.5t44.5 -17.5t51 22l6 -6q-5 -35 -27 -53t-51 -21t-56.5 8.5t-44.5 37.5t-13 65q3 34 23 54.5t48.5 30t57.5 7.5zM231 600v-377q0 -92 42.5 -144t118.5 -52q79 0 122.5 49t44.5 136v388h66v-382q0 -107 -65.5 -169
t-185.5 -62q-144 0 -215.5 61.5t-71.5 168.5v383h144zM89 600v-52h-2q-1 19 -14 31t-32 12h-7h-7v9h62zM290 600v-9h-7h-7q-19 0 -32 -12t-13 -31h-2v52h61zM561 600v-52h-2q-1 19 -14 31t-31 12h-7h-7v9h61zM684 600v-9h-6.5h-6.5q-19 0 -32.5 -12t-13.5 -31h-2v52h61z" />
    <glyph glyph-name="Wcircumflex" unicode="&#x174;" horiz-adv-x="971" 
d="M379 763l6 -8l143 65l152 -65l7 8l-153 153h-11zM38 694h162l160 -452l-60 -260zM537 716l18 -99l-222 -524l-6 -17t-11.5 -42t-6.5 -52h-9l-28 119l256 615h9zM537 715l220 -486l-48 -247l-241 533zM924 694l-188 -601l-5 -17.5t-9.5 -43t-2.5 -50.5h-10l-28 99l175 613
h68zM837 628q8 30 -5 46t-33 16h-9v10h209v-10h-4h-4q-23 0 -50 -14.5t-38 -47.5h-66zM224 628h-162q-13 33 -39 47.5t-49 14.5h-4h-4v10h305v-10h-9q-19 0 -33.5 -16t-4.5 -46z" />
    <glyph glyph-name="wcircumflex" unicode="&#x175;" horiz-adv-x="870" 
d="M328 664l6 -8l143 65l152 -65l7 8l-153 153h-11zM40 594h155l135 -356l-56 -249zM487 614l18 -92l-199 -432l-5.5 -15t-11.5 -38t-6 -48h-9l-27 111l232 514h8zM487 614l196 -395l-47 -230l-215 433zM825 594l-164 -504l-4.5 -16t-8.5 -39.5t-3 -45.5h-9l-27 90l152 515
h64zM743 535q8 29 -3.5 42t-28.5 13h-8v10h188v-10h-3.5h-3.5q-23 0 -46 -13.5t-32 -41.5h-63zM218 535h-155q-11 28 -32 41.5t-46 13.5h-4h-4v10h281v-10h-9q-16 0 -28.5 -13t-2.5 -42z" />
    <glyph glyph-name="Ycircumflex" unicode="&#x176;" horiz-adv-x="702" 
d="M248 763l6 -8l143 65l152 -65l7 8l-153 153h-11zM213 699l205 -372l-142 -14l-234 386h171zM423 322v-322h-150v322h150zM584 699h78l-250 -397l-50 10zM543 628q9 14 5 28.5t-15 24t-25 9.5h-6h-6v10h239v-10h-14q-31 0 -58.5 -18t-42.5 -41zM252 628l-169 3
q-14 23 -41 41t-59 18h-14v10h331v-10h-6.5h-6.5q-22 0 -33.5 -20.5t-1.5 -41.5zM276 73v-73h-80v10h6h7q26 0 44.5 18.5t19.5 44.5h3zM420 73h3q0 -26 19 -44.5t45 -18.5h6h6v-10h-79v73z" />
    <glyph glyph-name="ycircumflex" unicode="&#x177;" horiz-adv-x="636" 
d="M207 663l6 -8l143 65l152 -65l7 8l-153 153h-11zM196 599l188 -325l-133 -15l-219 340h164zM390 272v-272h-144v270zM532 599h73l-225 -347l-47 9zM496 538q11 19 0 35.5t-30 16.5h-6h-6v10h215v-10h-13q-27 0 -50.5 -14.5t-37.5 -34.5zM231 538l-162 3q-14 21 -37 35
t-51 14h-12v10h304v-10h-5.5h-5.5q-20 0 -30.5 -17t-0.5 -35zM249 63v-63h-71v10h6.5h5.5q23 0 39 15.5t17 37.5h3zM388 63h2q1 -22 17.5 -37.5t38.5 -15.5h6h6v-10h-70v63z" />
    <glyph glyph-name="Ydieresis" unicode="&#x178;" horiz-adv-x="702" 
d="M279 759q-25 0 -42.5 17.5t-17.5 42.5t17.5 42.5t42.5 17.5t42.5 -17.5t17.5 -42.5t-17.5 -42.5t-42.5 -17.5zM512 759q-25 0 -42.5 17.5t-17.5 42.5t17.5 42.5t42.5 17.5t42.5 -17.5t17.5 -42.5t-17.5 -42.5t-42.5 -17.5zM213 699l205 -372l-142 -14l-234 386h171z
M423 322v-322h-150v322h150zM584 699h78l-250 -397l-50 10zM543 628q9 14 5 28.5t-15 24t-25 9.5h-6h-6v10h239v-10h-14q-31 0 -58.5 -18t-42.5 -41zM252 628l-169 3q-14 23 -41 41t-59 18h-14v10h331v-10h-6.5h-6.5q-22 0 -33.5 -20.5t-1.5 -41.5zM276 73v-73h-80v10h6h7
q26 0 44.5 18.5t19.5 44.5h3zM420 73h3q0 -26 19 -44.5t45 -18.5h6h6v-10h-79v73z" />
    <glyph glyph-name="Zacute" unicode="&#x179;" horiz-adv-x="661" 
d="M314 769q17 29 42 60t52.5 58t48.5 47q27 -15 43 -35t26 -47q-31 -19 -66 -36.5t-70.5 -31.5t-68.5 -22zM605 714v-4.5v-4.5l-395 -705h-165v9l366 650h-352v42h440q20 0 42.5 2t40 5t23.5 6zM594 42l-6 -42h-473v42h479zM633 201l-36 -201h-183l13 32l16 10
q66 0 113.5 43.5t66.5 115.5h10zM170 659q-47 -1 -74 -28.5t-27 -74.5v-12h-10v118h111v-3zM59 719q10 -4 30.5 -8t45.5 -7t46 -3l-122 -11v29z" />
    <glyph glyph-name="zacute" unicode="&#x17a;" horiz-adv-x="607" 
d="M294 669q17 29 42 60t52.5 58t48.5 47q27 -15 43 -35t26 -47q-31 -19 -66 -36.5t-70.5 -31.5t-68.5 -22zM555 613v-4v-4l-348 -605h-172v8l329 553h-315v40h404q19 0 40.5 1.5t38.5 4.5t23 6zM545 39l-7 -39h-437v39h444zM592 184l-43 -184h-181l34 39q47 0 82 17.5
t59.5 50t38.5 77.5h10zM49 564h102v-3q-43 0 -67.5 -25.5t-24.5 -69.5v-8h-10v106zM49 616q8 -3 26.5 -6.5t41 -6t41.5 -2.5l-109 -10v25z" />
    <glyph glyph-name="Zdotaccent" unicode="&#x17b;" horiz-adv-x="661" 
d="M331 764q-26 0 -44 18t-18 44q0 25 18 43.5t44 18.5t44 -18.5t18 -43.5q0 -26 -18 -44t-44 -18zM605 714v-4.5v-4.5l-395 -705h-165v9l366 650h-352v42h440q20 0 42.5 2t40 5t23.5 6zM594 42l-6 -42h-473v42h479zM633 201l-36 -201h-183l13 32l16 10q66 0 113.5 43.5
t66.5 115.5h10zM170 659q-47 -1 -74 -28.5t-27 -74.5v-12h-10v118h111v-3zM59 719q10 -4 30.5 -8t45.5 -7t46 -3l-122 -11v29z" />
    <glyph glyph-name="zdotaccent" unicode="&#x17c;" horiz-adv-x="607" 
d="M311 664q-26 0 -44 18t-18 44q0 25 18 43.5t44 18.5t44 -18.5t18 -43.5q0 -26 -18 -44t-44 -18zM555 613v-4v-4l-348 -605h-172v8l329 553h-315v40h404q19 0 40.5 1.5t38.5 4.5t23 6zM545 39l-7 -39h-437v39h444zM592 184l-43 -184h-181l34 39q47 0 82 17.5t59.5 50
t38.5 77.5h10zM49 564h102v-3q-43 0 -67.5 -25.5t-24.5 -69.5v-8h-10v106zM49 616q8 -3 26.5 -6.5t41 -6t41.5 -2.5l-109 -10v25z" />
    <glyph glyph-name="Zcaron" unicode="&#x17d;" horiz-adv-x="661" 
d="M475 917l-6 8l-137 -65l-147 65l-6 -8l147 -153h11zM605 714v-4.5v-4.5l-395 -705h-165v9l366 650h-352v42h440q20 0 42.5 2t40 5t23.5 6zM594 42l-6 -42h-473v42h479zM633 201l-36 -201h-183l13 32l16 10q66 0 113.5 43.5t66.5 115.5h10zM170 659q-47 -1 -74 -28.5
t-27 -74.5v-12h-10v118h111v-3zM59 719q10 -4 30.5 -8t45.5 -7t46 -3l-122 -11v29z" />
    <glyph glyph-name="zcaron" unicode="&#x17e;" horiz-adv-x="607" 
d="M455 817l-6 8l-137 -65l-147 65l-6 -8l147 -153h11zM555 613v-4v-4l-348 -605h-172v8l329 553h-315v40h404q19 0 40.5 1.5t38.5 4.5t23 6zM545 39l-7 -39h-437v39h444zM592 184l-43 -184h-181l34 39q47 0 82 17.5t59.5 50t38.5 77.5h10zM49 564h102v-3q-43 0 -67.5 -25.5
t-24.5 -69.5v-8h-10v106zM49 616q8 -3 26.5 -6.5t41 -6t41.5 -2.5l-109 -10v25z" />
    <glyph glyph-name="longs" unicode="&#x17f;" horiz-adv-x="382" 
d="M289 647q-62 0 -62 -67v-580h-149v586q0 93 46 136t146 43q77 0 136 -23l-35 -109q-45 14 -82 14z" />
    <glyph glyph-name="uni0180" unicode="&#x180;" horiz-adv-x="632" 
d="M382 546q102 0 154 -69t52 -203q0 -135 -56.5 -209.5t-153.5 -74.5q-96 0 -151 70h-10l-25 -60h-114v584h-76v97h76v79h149v-79h154v-97h-154v-11q0 -32 -6 -108h6q52 81 155 81zM334 427q-104 0 -107 -146v-6q0 -88 26 -126t83 -38q46 0 73 42t27 123q0 151 -102 151z
" />
    <glyph glyph-name="uni0181" unicode="&#x181;" horiz-adv-x="793" 
d="M212 590h-26q-32 0 -46.5 -16.5t-14.5 -39.5q0 -22 10 -48h-118q-12 26 -12 58q0 82 47.5 126t137.5 44h244q152 0 220.5 -43.5t68.5 -137.5q0 -63 -30 -104.5t-80 -49.5v-5q68 -15 98 -56.5t30 -110.5q0 -98 -70.5 -152.5t-191.5 -54.5h-267v590zM363 311v-186h99
q62 0 92 24t30 73q0 89 -127 89h-94zM363 431h88q62 0 89.5 19t27.5 63q0 41 -30.5 59t-94.5 18h-80v-159z" />
    <glyph glyph-name="uni0182" unicode="&#x182;" horiz-adv-x="638" 
d="M241 440h60q140 0 216 -56.5t76 -160.5q0 -223 -295 -223h-208v714h451v-125h-300v-149zM241 124h51q77 0 112.5 24.5t35.5 74.5q0 49 -36 71t-124 22h-39v-192z" />
    <glyph glyph-name="uni0183" unicode="&#x183;" horiz-adv-x="632" 
d="M382 546q102 0 154 -69t52 -203q0 -135 -56.5 -209.5t-153.5 -74.5q-96 0 -151 70h-10l-25 -60h-114v760h456v-112h-307v-75q0 -32 -6 -108h6q52 81 155 81zM334 427q-104 0 -107 -146v-6q0 -88 26 -126t83 -38q46 0 73 42t27 123q0 151 -102 151z" />
    <glyph glyph-name="uni0184" unicode="&#x184;" horiz-adv-x="661" 
d="M616 218q0 -109 -69 -168.5t-198 -59.5q-264 0 -264 220v504h151v-274h88q140 0 216 -57.5t76 -164.5zM236 218q0 -104 109 -104q58 0 88 26.5t30 77.5q0 52 -35 75t-125 23h-67v-98z" />
    <glyph glyph-name="uni0185" unicode="&#x185;" horiz-adv-x="633" 
d="M589 273q0 -133 -67.5 -208t-186.5 -75q-125 0 -192.5 72t-67.5 205v493h149v-177q0 -27 -6 -108h6q26 40 67 60.5t92 20.5q97 0 151.5 -75t54.5 -208zM335 437q-59 0 -85 -37.5t-26 -108.5v-26q0 -80 26.5 -117.5t81.5 -37.5q53 0 79 39.5t26 123.5q0 83 -27.5 123.5
t-74.5 40.5z" />
    <glyph glyph-name="uni0186" unicode="&#x186;" horiz-adv-x="637" 
d="M239 598q-42 0 -80.5 -14t-74.5 -33l-49 123q99 50 220 50q153 0 238.5 -96.5t85.5 -266.5q0 -175 -86.5 -273t-245.5 -98q-54 0 -99 8.5t-92 28.5v127q64 -22 101.5 -30t75.5 -8q93 0 141.5 63.5t48.5 178.5q0 114 -48.5 177t-135.5 63z" />
    <glyph glyph-name="uni0187" unicode="&#x187;" horiz-adv-x="637" 
d="M393 598q-85 0 -132 -64t-47 -179q0 -239 179 -239q75 0 182 38v-127q-88 -37 -196 -37q-156 0 -238.5 94.5t-82.5 271.5q0 111 40.5 195t116.5 128.5t178 44.5q46 0 89 -11q1 81 40.5 123.5t113.5 42.5q22 0 41.5 -5t28.5 -10v-114q-28 10 -55 10q-49 0 -49 -56v-40
l-49 -113q-40 19 -80.5 33t-79.5 14z" />
    <glyph glyph-name="uni0188" unicode="&#x188;" horiz-adv-x="514" 
d="M300 -10q-255 0 -255 280q0 139 69.5 212.5t198.5 73.5q29 0 50 -4v41q0 84 39 128t116 44q39 0 69 -15v-114q-28 10 -55 10q-49 0 -49 -56v-76l-44 -110q-35 14 -65.5 23t-60.5 9q-116 0 -116 -165q0 -160 116 -160q43 0 79.5 11.5t73.5 35.5v-127q-36 -23 -73 -32
t-93 -9z" />
    <glyph glyph-name="uni0189" unicode="&#x189;" horiz-adv-x="740" 
d="M42 371h358v-42h-358v42zM407 700q118 0 203.5 -42.5t131.5 -121t46 -186.5t-46 -186.5t-131.5 -121t-203.5 -42.5h-238l-1 42h60.5h61h53.5h38h14q72 0 124.5 37.5t81.5 106.5t29 164t-29 164t-81.5 106.5t-124.5 37.5h-15h-40h-55.5h-63.5h-63v42h249zM271 700v-700
h-150v700h150zM124 73v-73h-80v10h6.5h6.5q26 0 44.5 18.5t19.5 44.5h3zM124 627h-3q-1 26 -19.5 44.5t-44.5 18.5h-6h-7v10h80v-73z" />
    <glyph glyph-name="uni018A" unicode="&#x18a;" horiz-adv-x="861" 
d="M804 364q0 -176 -100 -270t-290 -94h-202v590h-26q-32 0 -46.5 -16.5t-14.5 -39.5q0 -22 10 -48h-118q-12 26 -12 58q0 82 47.5 126t137.5 44h246q175 0 271.5 -92t96.5 -258zM647 360q0 230 -203 230h-81v-465h65q219 0 219 235z" />
    <glyph glyph-name="uni018B" unicode="&#x18b;" horiz-adv-x="638" 
d="M397 589h-300v125h451v-714h-220q-142 0 -212.5 54t-70.5 165q0 104 77.5 162.5t219.5 58.5h55v149zM397 316h-39q-88 0 -124 -22.5t-36 -71.5q0 -50 36 -74t112 -24h51v192z" />
    <glyph glyph-name="uni018C" unicode="&#x18c;" horiz-adv-x="632" 
d="M251 -10q-96 0 -151 75t-55 207q0 129 57 201.5t153 72.5q104 0 157 -80h5q-11 62 -11 109v73h-307v112h456v-760h-114l-29 71h-6q-51 -81 -155 -81zM303 109q57 0 84 33t29 113v16q0 83 -27.5 118.5t-87.5 35.5q-50 0 -77.5 -39.5t-27.5 -115.5q0 -81 27.5 -121
t79.5 -40z" />
    <glyph glyph-name="uni018D" unicode="&#x18d;" horiz-adv-x="619" 
d="M382 307q116 -74 116 -167q0 -70 -59 -110t-163 -40q-53 0 -104 11t-121 43l59 105q45 -22 87 -35.5t85 -13.5q36 0 54 13t18 36q0 26 -33.5 52t-101.5 60q-90 45 -132 105.5t-42 138.5q0 126 69 193t198 67q119 0 190.5 -60.5t71.5 -163.5q0 -89 -46.5 -147.5
t-145.5 -86.5zM197 515q0 -95 98 -147q58 15 92 59.5t34 107.5q0 50 -30 80t-80 30q-55 0 -84.5 -33.5t-29.5 -96.5z" />
    <glyph glyph-name="uni018E" unicode="&#x18e;" horiz-adv-x="560" 
d="M59 125h260v184h-242v124h242v157h-260v124h411v-714h-411v125z" />
    <glyph glyph-name="uni018F" unicode="&#x18f;" horiz-adv-x="816" 
d="M400 599q-72 0 -150 -22t-133 -57v131q68 41 136 57.5t148 16.5q169 0 263.5 -98t94.5 -271t-89 -269.5t-251 -96.5q-168 0 -253.5 95.5t-85.5 286.5v35h521q-6 94 -57.5 143t-143.5 49zM419 116q80 0 127.5 44.5t52.5 120.5h-362q0 -85 44 -125t138 -40z" />
    <glyph glyph-name="uni0190" unicode="&#x190;" horiz-adv-x="647" 
d="M65 537q0 85 73 136t193 51q75 0 139 -17.5t132 -60.5l-66 -101q-94 58 -194 58q-65 0 -97.5 -21.5t-32.5 -58.5q0 -48 51.5 -70.5t165.5 -22.5h60v-118h-67q-112 0 -170.5 -23.5t-58.5 -74.5q0 -105 180 -105q52 0 114 12t109 35v-127q-95 -39 -256 -39
q-142 0 -219.5 56.5t-77.5 155.5q0 73 53 117.5t149 53.5v3q-180 27 -180 161z" />
    <glyph glyph-name="uni0191" unicode="&#x191;" horiz-adv-x="548" 
d="M239 -64q0 -87 -45 -131.5t-132 -44.5q-43 0 -80 15v114q25 -10 55 -10q23 0 38 15t15 45v775h409v-124h-260v-184h242v-124h-242v-346z" />
    <glyph glyph-name="florin" unicode="&#x192;" horiz-adv-x="545" 
d="M459 317v-40h-196v40h196zM503 600v-40h-240v40h240zM459 279v-88l-9 1v7q0 33 -21 55.5t-56 22.5v2h86zM459 403v-88h-86v2q35 1 56 23.5t21 55.5v7h9zM503 563v-108h-9v10q0 43 -24 68.5t-69 26.5v3h102zM503 615v-24l-102 9q27 0 58.5 5.5t43.5 9.5zM124 537h-3
q0 23 -15.5 38.5t-36.5 15.5h-6.5h-5.5v9h71zM270 600v-551q0 -62 -21.5 -105.5t-58 -70.5t-80.5 -39t-90 -12v10q37 18 59 47.5t32 67.5t10 83v570h149z" />
    <glyph glyph-name="uni0193" unicode="&#x193;" horiz-adv-x="724" 
d="M361 401h283v-370q-69 -22 -129.5 -31.5t-124.5 -9.5q-162 0 -247 95t-85 273q0 173 99 269.5t274 96.5q50 0 93 -9q1 80 41 122t113 42q22 0 41.5 -5t28.5 -10v-114q-28 10 -55 10q-49 0 -49 -56v-33l-51 -112q-78 39 -163 39q-98 0 -157 -66t-59 -177
q0 -116 47.5 -177.5t138.5 -61.5q47 0 96 10v149h-135v126z" />
    <glyph glyph-name="uni0194" unicode="&#x194;" horiz-adv-x="649" 
d="M494 714h156l-257 -591q69 -138 69 -220q0 -65 -39 -104t-104 -39t-103 38t-38 106q0 50 18.5 103.5t47.5 117.5l-244 589h156l121 -311q10 -23 23 -68t19 -71q9 37 23.5 77.5t23.5 60.5zM354 -97q0 22 -9 56.5t-25 65.5q-18 -34 -26 -66t-8 -54q0 -56 34 -56t34 54z" />
    <glyph glyph-name="uni0195" unicode="&#x195;" horiz-adv-x="986" 
d="M572 238q0 -66 23 -97t72 -31t72.5 33t23.5 109v294h149v-307q0 -249 -245 -249q-129 0 -186.5 54.5t-57.5 171.5v103q0 118 -84 118q-58 0 -85 -43t-27 -137v-257h-149v760h149v-155q0 -18 -3 -85l-4 -44h8q52 80 155 80q91 0 140 -52.5t49 -152.5v-113z" />
    <glyph glyph-name="uni0196" unicode="&#x196;" horiz-adv-x="402" 
d="M243 714v-524q0 -35 18 -54t47 -19q38 0 85 17v-119q-53 -25 -129 -25q-179 0 -179 187v537h158z" />
    <glyph glyph-name="uni0197" unicode="&#x197;" horiz-adv-x="389" 
d="M27 419h92v169l-87 40v86h325v-86l-87 -40v-169h92v-124h-92v-169l87 -40v-86h-325v86l87 40v169h-92v124z" />
    <glyph glyph-name="uni0198" unicode="&#x198;" horiz-adv-x="664" 
d="M664 0h-172l-187 301l-64 -46v-255h-151v714h151v-329l64 91l81 108q46 62 73.5 88t56.5 39.5t63 13.5q43 0 75 -15v-119q-22 9 -48 9q-42 0 -74 -43l-120 -159z" />
    <glyph glyph-name="uni0199" unicode="&#x199;" horiz-adv-x="620" 
d="M221 297l65 83l153 166h168l-217 -237l230 -309h-172l-157 221l-64 -51v-170h-149v595q0 84 44 128t131 44q41 0 78 -15v-114q-28 10 -55 10q-49 0 -49 -56v-171l-8 -124h2z" />
    <glyph glyph-name="uni019A" unicode="&#x19a;" horiz-adv-x="330" 
d="M239 420h81v-112h-81v-308h-149v308h-80v112h80v340h149v-340z" />
    <glyph glyph-name="uni019B" unicode="&#x19b;" horiz-adv-x="615" 
d="M4 0l231 516l-11 28l-100 -30l-25 82l83 25q-15 12 -32.5 16t-40.5 4q-24 0 -50 -6v123q39 8 81 8q65 0 109 -24t75 -77l93 29l25 -83l-83 -25l135 -372q18 -51 36.5 -75t45.5 -24q16 0 34 5v-115q-11 -6 -39 -10.5t-47 -4.5q-54 0 -88 26.5t-54 84.5
q-56 158 -66.5 190.5t-16.5 57.5h-3q-22 -75 -37 -112l-101 -237h-154z" />
    <glyph glyph-name="uni019C" unicode="&#x19c;" horiz-adv-x="1035" 
d="M439 714h151v-477q0 -120 87 -120q60 0 88 42t28 141v414h152v-714h-114l-21 76h-9q-24 -42 -68.5 -64t-99.5 -22q-115 0 -167 90h-7q-55 -90 -171 -90q-99 0 -151 52t-52 152v520h151v-477q0 -120 87 -120q61 0 88.5 41t27.5 125v431z" />
    <glyph glyph-name="uni019D" unicode="&#x19d;" horiz-adv-x="812" 
d="M723 0h-192l-311 540h-4q9 -143 9 -204v-400q0 -85 -44 -130.5t-126 -45.5q-36 0 -73 15v114q25 -10 55 -10q23 0 38 15t15 45v775h191l310 -535h3q-7 139 -7 197v338h136v-714z" />
    <glyph glyph-name="uni019E" unicode="&#x19e;" horiz-adv-x="657" 
d="M582 -240h-149v559q0 59 -21 88.5t-67 29.5q-62 0 -90 -41.5t-28 -138.5v-257h-149v546h114l20 -70h8q25 40 69 60t99 20q95 0 144.5 -51.5t49.5 -148.5v-596z" />
    <glyph glyph-name="uni019F" unicode="&#x19f;" horiz-adv-x="795" 
d="M738 358q0 -177 -88 -272.5t-252 -95.5t-252 95.5t-88 273.5t88 272t253 94t252 -94.5t87 -272.5zM398 117q80 0 126 47t55 139h-363q10 -88 54.5 -137t127.5 -49zM399 599q-154 0 -181 -170h359q-12 83 -56.5 126.5t-121.5 43.5z" />
    <glyph glyph-name="Ohorn" unicode="&#x1a0;" horiz-adv-x="825" 
d="M738 358q0 -177 -88 -272.5t-252 -95.5t-252 95.5t-88 273.5q0 177 88.5 271.5t253.5 94.5q169 0 256 -99q45 30 45 134h147l7 -11q-18 -86 -52.5 -135.5t-94.5 -73.5q30 -78 30 -182zM217 358q0 -120 45.5 -180.5t135.5 -60.5q181 0 181 241t-180 241q-90 0 -136 -60.5
t-46 -180.5z" />
    <glyph glyph-name="ohorn" unicode="&#x1a1;" horiz-adv-x="679" 
d="M574 274q0 -133 -70 -208.5t-196 -75.5q-79 0 -139 34.5t-92 99t-32 150.5q0 134 70 208t196 74q55 0 103.5 -17t83.5 -50q73 22 73 139h147l7 -11q-13 -65 -34.5 -103.5t-56 -64.5t-85.5 -39q25 -61 25 -136zM197 274q0 -81 26.5 -122.5t86.5 -41.5t86 41t26 123
q0 81 -26.5 121.5t-86.5 40.5t-86 -40t-26 -122z" />
    <glyph glyph-name="uni01A2" unicode="&#x1a2;" horiz-adv-x="1130" 
d="M718 358q0 -178 -85 -273t-245 -95q-161 0 -245.5 95t-84.5 274q0 177 85.5 271.5t245.5 94.5q154 0 239 -90q82 90 205 90q102 0 157.5 -60.5t55.5 -174.5v-490h-151v478q0 60 -26.5 90.5t-76.5 30.5q-36 0 -62.5 -10t-48.5 -34q37 -82 37 -197zM217 358
q0 -121 43.5 -181t127.5 -60q171 0 171 241t-170 241q-172 0 -172 -241z" />
    <glyph glyph-name="uni01A3" unicode="&#x1a3;" horiz-adv-x="929" 
d="M554 274q0 -134 -68 -209t-188 -75q-117 0 -185 75.5t-68 208.5q0 134 67.5 208t188.5 74q118 0 186 -78q62 78 173 78q95 0 144.5 -51.5t49.5 -148.5v-596h-149v559q0 59 -21 88.5t-67 29.5q-56 0 -85 -35q22 -58 22 -128zM197 274q0 -82 24.5 -123t78.5 -41t78 41
t24 123q0 81 -24.5 121.5t-78.5 40.5q-53 0 -77.5 -40t-24.5 -122z" />
    <glyph glyph-name="uni01A4" unicode="&#x1a4;" horiz-adv-x="750" 
d="M705 491q0 -115 -72 -176t-205 -61h-65v-254h-151v590h-26q-32 0 -46.5 -16.5t-14.5 -39.5q0 -22 10 -48h-118q-12 26 -12 58q0 82 47.5 126t137.5 44h250q130 0 197.5 -56t67.5 -167zM363 378h50q69 0 104 27.5t35 80.5t-29 78.5t-91 25.5h-69v-212z" />
    <glyph glyph-name="uni01A5" unicode="&#x1a5;" horiz-adv-x="632" 
d="M227 583q0 -44 -6 -108h6q24 40 64 60.5t91 20.5q97 0 151.5 -75.5t54.5 -206.5q0 -133 -54.5 -208.5t-151.5 -75.5q-104 0 -155 67h-7l4 -30l3 -46v-221h-149v833q0 83 44 127.5t131 44.5q41 0 78 -15v-114q-28 10 -55 10q-23 0 -35 -13t-14 -43v-7zM334 437
q-55 0 -80.5 -34t-26.5 -112v-16q0 -88 26 -126t83 -38q100 0 100 165q0 81 -24.5 121t-77.5 40z" />
    <glyph glyph-name="uni01A6" unicode="&#x1a6;" horiz-adv-x="660" 
d="M241 174v-174h-151v714h151v-100h57q146 0 215.5 -53t69.5 -161q0 -62 -33.5 -110.5t-99.5 -78.5l210 -311h-168l-170 274h-81zM241 297h49q72 0 106 24t34 75t-35 72.5t-108 21.5h-46v-193z" />
    <glyph glyph-name="uni01A7" unicode="&#x1a7;" horiz-adv-x="550" 
d="M42 193q0 74 40.5 126t133.5 92q67 28 94 44.5t38.5 33.5t11.5 41q0 33 -23.5 50.5t-67.5 17.5q-41 0 -81.5 -11t-89.5 -31l-45 118q111 50 228 50q106 0 166.5 -51.5t60.5 -145.5q0 -75 -40 -125.5t-139 -91.5q-61 -25 -87 -41.5t-39 -34.5t-13 -41q0 -37 26 -57.5
t78 -20.5q100 0 210 46v-126q-92 -45 -219 -45q-117 0 -180 51.5t-63 151.5z" />
    <glyph glyph-name="uni01A8" unicode="&#x1a8;" horiz-adv-x="497" 
d="M38 152q0 62 34.5 103.5t118.5 73.5q76 29 97 43t21 33q0 20 -19 30.5t-52 10.5q-37 0 -72.5 -11.5t-75.5 -28.5l-40 107q94 43 203 43q96 0 150 -39t54 -110q0 -62 -33 -100.5t-120 -72.5q-47 -19 -72 -32t-36 -24t-11 -29q0 -50 88 -50q91 0 174 43v-113
q-79 -39 -186 -39q-111 0 -167 41.5t-56 120.5z" />
    <glyph glyph-name="uni01A9" unicode="&#x1a9;" horiz-adv-x="592" 
d="M38 0v119l230 255l-224 224v116h486v-124h-214q-25 0 -111 5l222 -220l-233 -256q117 6 139 6h226v-125h-521z" />
    <glyph glyph-name="uni01AA" unicode="&#x1aa;" horiz-adv-x="367" 
d="M290 -240q-92 0 -136 45t-44 136v589h-27q-68 0 -105 32t-37 91q0 53 40 85t107 32q171 0 171 -179v-650q0 -32 18 -47t47 -15q39 0 94 17v-111q-53 -25 -128 -25zM67 688q-17 0 -26.5 -10.5t-9.5 -25.5q0 -19 14 -32t41 -13h24v31q0 25 -11.5 37.5t-31.5 12.5z" />
    <glyph glyph-name="uni01AB" unicode="&#x1ab;" horiz-adv-x="434" 
d="M260 -240q-42 0 -80 13v104q23 -9 48 -9q27 0 38.5 14t11.5 44v64h-13q-89 0 -130 45.5t-41 135.5v263h-71v63l82 50l43 115h95v-116h153v-112h-153v-263q0 -32 18 -47t47 -15q39 0 94 17v-200q0 -86 -36 -126t-106 -40z" />
    <glyph glyph-name="uni01AC" unicode="&#x1ac;" horiz-adv-x="618" 
d="M404 0h-151v588h-67q-32 0 -46.5 -16.5t-14.5 -39.5q0 -21 10 -46h-118q-12 26 -12 58q0 82 47.5 126t137.5 44h408v-126h-194v-588z" />
    <glyph glyph-name="uni01AD" unicode="&#x1ad;" horiz-adv-x="434" 
d="M308 109q39 0 94 17v-111q-56 -25 -137 -25q-89 0 -130 45.5t-41 135.5v263h-71v63l71 43v53q0 84 47 128t142 44q49 0 92 -16v-114q-37 11 -75 11q-30 0 -43.5 -14t-13.5 -42v-44h153v-112h-153v-263q0 -32 18 -47t47 -15z" />
    <glyph glyph-name="uni01AE" unicode="&#x1ae;" horiz-adv-x="579" 
d="M365 -61q0 -31 15 -45.5t38 -14.5q30 0 55 10v-114q-12 -5 -35 -10t-49 -5q-175 0 -175 176v652h-194v126h539v-126h-194v-649z" />
    <glyph glyph-name="Uhorn" unicode="&#x1af;" horiz-adv-x="884" 
d="M671 714v-92q36 13 53 49.5t17 88.5h147l7 -11q-16 -75 -42 -116t-70.5 -66t-111.5 -35v-280q0 -79 -35.5 -138.5t-102.5 -91.5t-158 -32q-138 0 -214 70.5t-76 193.5v460h151v-449q0 -76 34.5 -112t108.5 -36t107.5 37.5t33.5 111.5v448h151z" />
    <glyph glyph-name="uhorn" unicode="&#x1b0;" horiz-adv-x="759" 
d="M465 0l-20 70h-9q-23 -38 -67 -59t-100 -21q-96 0 -145 51.5t-49 148.5v356h149v-319q0 -59 21 -88.5t67 -29.5q62 0 90 41.5t28 138.5v257h149v-57q35 11 54 46.5t19 92.5h147l7 -11q-16 -76 -42 -117t-71 -66t-114 -35v-399h-114z" />
    <glyph glyph-name="uni01B1" unicode="&#x1b1;" horiz-adv-x="786" 
d="M393 116q88 0 136 53t48 151t-31.5 159.5t-98.5 98.5v136h312v-127h-181q73 -45 114 -123.5t41 -175.5q0 -89 -41.5 -157t-119 -104.5t-179.5 -36.5q-103 0 -180 36.5t-118.5 104.5t-41.5 158q0 97 40.5 174.5t116.5 123.5h-183v127h314v-136q-66 -35 -99 -98t-33 -161
q0 -97 47.5 -150t136.5 -53z" />
    <glyph glyph-name="uni01B2" unicode="&#x1b2;" horiz-adv-x="649" 
d="M410 0h-155l-255 714h153l144 -425q7 -19 20.5 -74t17.5 -83q3 25 18.5 79.5t23.5 72.5l70 168q21 49 26 68t5 33q0 23 -13 34.5t-32 11.5q-26 0 -43 -9v117q35 17 83 17q71 0 109.5 -38.5t38.5 -105.5q0 -58 -37 -156z" />
    <glyph glyph-name="uni01B3" unicode="&#x1b3;" horiz-adv-x="624" 
d="M78 724q50 0 84.5 -26t65.5 -93l86 -183l147 292h163l-237 -436v-278h-150v272l-110 231q-20 42 -32.5 61t-24.5 27t-33 8q-20 0 -37 -9v117q37 17 78 17z" />
    <glyph glyph-name="uni01B4" unicode="&#x1b4;" horiz-adv-x="615" 
d="M172 546l86 -254q22 -63 32 -125h3q18 73 34 119l54 148q24 65 60.5 93.5t88.5 28.5q21 0 44 -4.5t36 -10.5v-115q-19 5 -34 5q-26 0 -44.5 -22.5t-37.5 -76.5l-144 -397q-64 -175 -234 -175q-34 0 -72 8v118q6 -1 23.5 -3.5t33.5 -2.5q83 0 116 95l10 29l-217 542h162z
" />
    <glyph glyph-name="uni01B5" unicode="&#x1b5;" horiz-adv-x="579" 
d="M62 415h183l121 174h-333v125h513v-98l-140 -201h93v-124h-180l-115 -166h351v-125h-531v98l135 193h-97v124z" />
    <glyph glyph-name="uni01B6" unicode="&#x1b6;" horiz-adv-x="487" 
d="M458 0h-431v88l105 142h-79v97h150l77 105h-238v114h407v-97l-90 -122h76v-97h-147l-85 -116h255v-114z" />
    <glyph glyph-name="uni01B7" unicode="&#x1b7;" horiz-adv-x="590" 
d="M138 419l176 170h-262v125h468v-97l-211 -201q118 -5 180.5 -58.5t62.5 -149.5q0 -102 -79.5 -160t-224.5 -58q-126 0 -220 39v128q45 -21 102.5 -34t108.5 -13q82 0 122 25.5t40 81.5q0 50 -51 73t-152 23h-60v106z" />
    <glyph glyph-name="uni01B8" unicode="&#x1b8;" horiz-adv-x="590" 
d="M453 313h-60q-102 0 -152.5 -23.5t-50.5 -74.5q0 -53 40.5 -79t121.5 -26q53 0 110 13t101 34v-128q-94 -39 -225 -39q-141 0 -220 56t-79 157q0 96 61.5 150t181.5 63l-211 201v97h468v-125h-263l177 -170v-106z" />
    <glyph glyph-name="uni01B9" unicode="&#x1b9;" horiz-adv-x="581" 
d="M443 139h-58q-97 0 -146 -31.5t-49 -98.5q0 -62 39.5 -95.5t113.5 -33.5q49 0 102.5 12.5t97.5 34.5v-126q-96 -41 -221 -41q-134 0 -208.5 63.5t-74.5 176.5q0 104 61 167t177 80l-211 202v97h472v-114h-288l193 -187v-106z" />
    <glyph glyph-name="uni01BA" unicode="&#x1ba;" horiz-adv-x="581" 
d="M371 143q0 31 -31.5 43.5t-116.5 12.5h-68v100l150 133h-247v114h443v-96l-177 -144q98 -8 148 -50.5t50 -115.5q0 -88 -65 -131.5t-201 -53.5q-43 -3 -62 -13t-19 -27q0 -45 100 -45q92 0 203 39v-110q-43 -18 -101.5 -28.5t-120.5 -10.5q-96 0 -152 40.5t-56 115.5
q0 147 193 162q75 5 102.5 19t27.5 46z" />
    <glyph glyph-name="uni01BB" unicode="&#x1bb;" horiz-adv-x="569" 
d="M387 322l-185 -201v-7h324v-114h-499v111l193 211h-176v97h257q26 32 35.5 64.5t9.5 68.5q0 42 -26 68t-68 26q-38 0 -71.5 -16t-76.5 -58l-73 91q46 42 78.5 60.5t71.5 30t87 11.5q103 0 165.5 -57t62.5 -148q0 -77 -39 -141h69v-97h-139z" />
    <glyph glyph-name="uni01BC" unicode="&#x1bc;" horiz-adv-x="578" 
d="M289 456q114 0 182 -60.5t68 -164.5q0 -118 -80 -179.5t-229 -61.5q-58 0 -112 10t-90 29v130q37 -20 92.5 -33t104.5 -13q81 0 121.5 27.5t40.5 80.5q0 109 -147 109h-127v258h-79v126h484v-126h-256v-132h27z" />
    <glyph glyph-name="uni01BD" unicode="&#x1bd;" horiz-adv-x="555" 
d="M283 337q116 0 175 -42.5t59 -122.5q0 -89 -72.5 -135.5t-211.5 -46.5q-58 0 -110.5 9.5t-84.5 24.5v123q35 -18 90 -30t99 -12q145 0 145 65q0 63 -149 63h-95v201h-84v112h454v-112h-230v-97h15z" />
    <glyph glyph-name="uni01BE" unicode="&#x1be;" horiz-adv-x="497" 
d="M271 399q0 -27 9.5 -41t35.5 -29l53 -31q46 -26 68 -60t22 -81q0 -80 -60 -123.5t-173 -43.5q-56 0 -107.5 9.5t-82.5 24.5v123q37 -20 86.5 -34t90.5 -14q54 0 77.5 13.5t23.5 40.5q0 17 -11 29t-35 26q-84 43 -110.5 83t-26.5 103v40h-95v63l97 50l43 115h95v-116h138
v-112h-138v-35z" />
    <glyph glyph-name="uni01BF" unicode="&#x1bf;" horiz-adv-x="632" 
d="M227 -240h-149v786h121l21 -71h7q52 81 155 81q60 0 107.5 -31t73 -88.5t25.5 -132.5q0 -135 -94.5 -219.5t-266.5 -103.5v-221zM334 437q-59 0 -83 -37.5t-24 -111.5v-180q95 12 152 65.5t57 132.5q0 61 -27 96t-75 35z" />
    <glyph glyph-name="uni01C0" unicode="&#x1c0;" horiz-adv-x="516" 
d="M204 760h107v-1000h-107v1000z" />
    <glyph glyph-name="uni01C1" unicode="&#x1c1;" horiz-adv-x="516" 
d="M76 760h107v-1000h-107v1000zM334 760h107v-1000h-107v1000z" />
    <glyph glyph-name="uni01C2" unicode="&#x1c2;" horiz-adv-x="516" 
d="M204 121h-154v97h154v112h-154v97h154v333h107v-333h155v-97h-155v-112h155v-97h-155v-361h-107v361z" />
    <glyph glyph-name="uni01C3" unicode="&#x1c3;" horiz-adv-x="286" 
d="M203 237h-119l-25 477h169zM57 70q0 41 22 62t64 21q41 0 63 -21.5t22 -61.5q0 -39 -22.5 -61t-62.5 -22q-41 0 -63.5 21.5t-22.5 61.5z" />
    <glyph glyph-name="uni01C4" unicode="&#x1c4;" horiz-adv-x="1309" 
d="M1151 1012l-6 8l-137 -65l-147 65l-6 -8l147 -153h11zM405 700q118 0 204 -42.5t132.5 -121t46.5 -186.5t-46.5 -186.5t-132.5 -121t-204 -42.5h-238l-1 42h60.5h61h53.5h38h14q72 0 124 37.5t80 106.5t28 164t-28 164t-80 106.5t-124 37.5h-14.5h-39.5h-56h-64h-63v42
h249zM269 700v-700h-150v700h150zM122 73v-73h-80v10h6.5h6.5q26 0 44.5 18.5t19.5 44.5h3zM122 627h-3q0 26 -19 44.5t-45 18.5h-6h-6l-1 10h80v-73zM1335 714v-4.5v-4.5l-395 -705h-165v9l366 650h-352v42h440q20 0 42.5 2t40 5t23.5 6zM1324 42l-6 -42h-473v42h479z
M1363 201l-36 -201h-183l13 32l16 10q66 0 113.5 43.5t66.5 115.5h10zM900 659q-47 -1 -74 -28.5t-27 -74.5v-12h-10v118h111v-3zM789 719q10 -4 30.5 -8t45.5 -7t46 -3l-122 -11v29z" />
    <glyph glyph-name="uni01C5" unicode="&#x1c5;" horiz-adv-x="1228" 
d="M1118 847l-6 8l-137 -65l-147 65l-6 -8l147 -153h11zM405 700q118 0 204 -42.5t132.5 -121t46.5 -186.5t-46.5 -186.5t-132.5 -121t-204 -42.5h-238l-1 42h60.5h61h53.5h38h14q72 0 124 37.5t80 106.5t28 164t-28 164t-80 106.5t-124 37.5h-14.5h-39.5h-56h-64h-63v42
h249zM269 700v-700h-150v700h150zM122 73v-73h-80v10h6.5h6.5q26 0 44.5 18.5t19.5 44.5h3zM122 627h-3q0 26 -19 44.5t-45 18.5h-6h-6l-1 10h80v-73zM1295 613v-4v-4l-348 -605h-172v8l329 553h-315v40h404q19 0 40.5 1.5t38.5 4.5t23 6zM1285 39l-7 -39h-437v39h444z
M1332 184l-43 -184h-181l34 39q47 0 82 17.5t59.5 50t38.5 77.5h10zM789 564h102v-3q-43 0 -67.5 -25.5t-24.5 -69.5v-8h-10v106zM789 616q8 -3 26.5 -6.5t41 -6t41.5 -2.5l-109 -10v25z" />
    <glyph glyph-name="uni01C6" unicode="&#x1c6;" horiz-adv-x="1121" 
d="M1011 847l-6 8l-137 -65l-147 65l-6 -8l147 -153h11zM371 600q107 0 184 -35.5t118 -103t41 -161.5t-41 -161t-118 -103t-184 -36h-222l-2 40h122.5h68h21.5q94 0 148.5 69t54.5 191t-54.5 191.5t-148.5 69.5h-22h-71h-129v39h234zM246 600v-600h-144v600h144zM105 64
v-64h-72v10h6h7q23 0 39.5 16t16.5 38h3zM104 537h-2q-1 23 -17.5 38t-39.5 15h-6h-6v10h71v-63zM1188 613v-4v-4l-348 -605h-172v8l329 553h-315v40h404q19 0 40.5 1.5t38.5 4.5t23 6zM1178 39l-7 -39h-437v39h444zM1225 184l-43 -184h-181l34 39q47 0 82 17.5t59.5 50
t38.5 77.5h10zM682 564h102v-3q-43 0 -67.5 -25.5t-24.5 -69.5v-8h-10v106zM682 616q8 -3 26.5 -6.5t41 -6t41.5 -2.5l-109 -10v25z" />
    <glyph glyph-name="uni01C7" unicode="&#x1c7;" horiz-adv-x="895" 
d="M269 700v-700h-150v700h150zM533 43l24 -43h-291v43h267zM606 204l-46 -204h-196l36 43q50 0 88 19.5t65 56t43 85.5h10zM122 73v-73h-80v10h6.5h6.5q26 0 44.5 18.5t19.5 44.5h3zM122 627h-3q-1 26 -19.5 44.5t-44.5 18.5h-6.5h-6.5v10h80v-73zM266 627v73h80v-10h-7h-6
q-26 0 -44.5 -18.5t-19.5 -44.5h-3zM837 700v-670q0 -55 -22 -99.5t-59.5 -75.5t-85.5 -45.5t-100 -9.5v9q42 18 68 53.5t37.5 80t11.5 90.5v667h150zM690 627h-3q-1 26 -19.5 44.5t-44.5 18.5h-6.5h-6.5v10h80v-73zM834 627v73h80v-10h-6.5h-6.5q-26 0 -44.5 -18.5
t-19.5 -44.5h-3z" />
    <glyph glyph-name="uni01C8" unicode="&#x1c8;" horiz-adv-x="870" 
d="M269 700v-700h-150v700h150zM533 43l24 -43h-291v43h267zM606 204l-46 -204h-196l36 43q50 0 88 19.5t65 56t43 85.5h10zM122 73v-73h-80v10h6.5h6.5q26 0 44.5 18.5t19.5 44.5h3zM122 627h-3q-1 26 -19.5 44.5t-44.5 18.5h-6.5h-6.5v10h80v-73zM266 627v73h80v-10h-7h-6
q-26 0 -44.5 -18.5t-19.5 -44.5h-3zM810 600v-569q0 -49 -21 -89.5t-56 -68t-79 -40t-92 -7.5v9q39 17 61.5 48t32 70.5t9.5 79.5v567h145zM669 600v-65h-3q-1 23 -17.5 39t-41.5 16h-11l-1 10h74zM880 600v-10h-12q-24 0 -40.5 -16t-17.5 -39h-3v65h73z" />
    <glyph glyph-name="uni01C9" unicode="&#x1c9;" horiz-adv-x="609" 
d="M245 600v-600h-144v600h144zM478 40l24 -40h-259v40h235zM544 184l-39 -184h-173l31 40q43 0 76.5 17.5t57.5 50t37 76.5h10zM104 63l4 -63h-74v10h6h7q22 0 38 15.5t16 37.5h3zM243 537v63h69v-10h-6.5h-5.5q-22 0 -38 -15t-17 -38h-2zM104 537h-3q0 23 -16.5 38
t-38.5 15h-6.5h-5.5v10h70v-63zM550 600v-569q0 -49 -21 -89.5t-56 -68t-79 -40t-92 -7.5v9q39 17 61.5 48t32 70.5t9.5 79.5v567h145zM409 600v-65h-3q-1 23 -17.5 39t-41.5 16h-11l-1 10h74zM620 600v-10h-12q-24 0 -40.5 -16t-17.5 -39h-3v65h73z" />
    <glyph glyph-name="uni01CA" unicode="&#x1ca;" horiz-adv-x="1144" 
d="M108 715l638 -608l12 -121l-638 607zM113 71v-71h-83v10h9h10q25 0 43 18t18 43h3zM253 71q0 -25 18 -43t43 -18h10h9v-10h-83v71h3zM108 715l144 -153l1 -562h-143v590q0 56 -6 90.5l-6 34.5h10zM755 700v-586q0 -37 3 -66.5t6 -45.5l3 -16h-9l-145 162v552h142z
M835 700v-10h-9h-9q-25 0 -43 -17.5t-19 -43.5h-3v71h83zM532 700h83v-71h-2q-1 26 -18.5 43.5t-43.5 17.5h-9h-10v10zM1085 700v-670q0 -55 -22 -99.5t-59.5 -75.5t-85.5 -45.5t-100 -9.5v9q42 18 68 53.5t37.5 80t11.5 90.5v667h150zM938 627h-3q-1 26 -19.5 44.5
t-44.5 18.5h-6.5h-6.5v10h80v-73zM1082 627v73h80v-10h-6.5h-6.5q-26 0 -44.5 -18.5t-19.5 -44.5h-3z" />
    <glyph glyph-name="uni01CB" unicode="&#x1cb;" horiz-adv-x="1118" 
d="M108 715l638 -608l12 -121l-638 607zM113 71v-71h-83v10h9h10q25 0 43 18t18 43h3zM253 71q0 -25 18 -43t43 -18h10h9v-10h-83v71h3zM108 715l144 -153l1 -562h-143v590q0 56 -6 90.5l-6 34.5h10zM755 700v-586q0 -37 3 -66.5t6 -45.5l3 -16h-9l-145 162v552h142z
M835 700v-10h-9h-9q-25 0 -43 -17.5t-19 -43.5h-3v71h83zM532 700h83v-71h-2q-1 26 -18.5 43.5t-43.5 17.5h-9h-10v10zM1058 600v-569q0 -49 -21 -89.5t-56 -68t-79 -40t-92 -7.5v9q39 17 61.5 48t32 70.5t9.5 79.5v567h145zM917 600v-65h-3q-1 23 -17.5 39t-41.5 16h-11
l-1 10h74zM1128 600v-10h-12q-24 0 -40.5 -16t-17.5 -39h-3v65h73z" />
    <glyph glyph-name="uni01CC" unicode="&#x1cc;" horiz-adv-x="961" 
d="M91 614l587 -516l10 -111l-586 516zM95 61v-61h-74v10h8h8q23 0 39 14.5t16 36.5h3zM229 61q1 -22 17 -36.5t38 -14.5h8h8v-10h-73v61h2zM91 614l138 -150v-464h-137v500q0 51 -5 82.5l-5 31.5h9zM687 600v-496q0 -35 2.5 -61.5t5 -41l2.5 -14.5h-9l-138 159v454h137z
M684 539v61h75v-10h-8.5h-8.5q-22 0 -38.5 -14.5t-16.5 -36.5h-3zM550 539q-1 22 -16.5 36.5t-38.5 14.5h-8.5h-8.5v10h74v-61h-2zM902 600v-569q0 -49 -21 -89.5t-56 -68t-79 -40t-92 -7.5v9q39 17 61.5 48t32 70.5t9.5 79.5v567h145zM761 600v-65h-3q-1 23 -17.5 39
t-41.5 16h-11l-1 10h74zM972 600v-10h-12q-24 0 -40.5 -16t-17.5 -39h-3v65h73z" />
    <glyph glyph-name="uni01CD" unicode="&#x1cd;" horiz-adv-x="689" 
d="M471 1025l-6 8l-137 -65l-147 65l-6 -8l147 -153h11zM354 720l326 -714h-179l-208 521zM139 73q-8 -20 -3 -34t17 -21.5t24 -7.5h9v-10h-214v10h4.5h4.5q23 0 47.5 14.5t40.5 48.5h70zM354 720l4 -122l-248 -595h-73l259 586q3 6 10.5 22.5t16 37.5t15.5 40.5t7 30.5h9z
M459 238v-42h-294v42h294zM474 73h175q17 -34 41 -48.5t47 -14.5h4h4v-10h-318v10h9q20 0 35 16.5t3 46.5z" />
    <glyph glyph-name="uni01CE" unicode="&#x1ce;" horiz-adv-x="604" 
d="M434 847l-6 8l-137 -65l-147 65l-6 -8l147 -153h11zM319 627l296 -622h-169l-186 439zM131 66q-11 -27 3 -41.5t31 -14.5h8v-10h-200v10h4h4q20 0 42 12.5t36 43.5h72zM319 627l2 -120l-217 -504h-74l234 503q2 6 9 21.5t15 35t15 37t8 27.5h8zM406 196v-39h-255v39h255z
M421 66h165q15 -31 37 -43.5t42 -12.5h4h4v-10h-294v10h8q17 0 31 14.5t3 41.5z" />
    <glyph glyph-name="uni01CF" unicode="&#x1cf;" horiz-adv-x="389" 
d="M321 1025l-6 8l-137 -65l-147 65l-6 -8l147 -153h11zM269 700v-700h-150v700h150zM122 73v-73h-80v10h6.5h6.5q26 0 44.5 18.5t19.5 44.5h3zM122 627h-3q-1 26 -19.5 44.5t-44.5 18.5h-6.5h-6.5v10h80v-73zM266 73h3q1 -26 19.5 -44.5t44.5 -18.5h6h7v-10h-80v73z
M266 627v73h80v-10h-7h-6q-26 0 -44.5 -18.5t-19.5 -44.5h-3z" />
    <glyph glyph-name="uni01D0" unicode="&#x1d0;" horiz-adv-x="305" 
d="M279 847l-6 8l-137 -65l-147 65l-6 -8l147 -153h11zM242 600v-600h-144v600h144zM101 63v-63h-67v10h5.5h5.5q22 0 37.5 15.5t15.5 37.5h3zM240 63h2q1 -22 16.5 -37.5t37.5 -15.5h5h5l1 -10h-67v63zM240 537v63h66v-10h-5h-5q-22 0 -37.5 -15t-16.5 -38h-2zM101 537h-3
q0 23 -15.5 38t-37.5 15h-5.5h-5.5v10h67v-63z" />
    <glyph glyph-name="uni01D1" unicode="&#x1d1;" horiz-adv-x="795" 
d="M524 1025l-6 8l-137 -65l-147 65l-6 -8l147 -153h11zM442 714q120 0 208.5 -44.5t137 -125.5t48.5 -194q0 -112 -48.5 -193.5t-137 -126t-208.5 -44.5t-208.5 44.5t-136.5 125.5t-48 194q0 112 48 193.5t136.5 126t208.5 44.5zM442 28q71 0 122.5 39.5t79 111.5t27.5 171
t-27.5 171t-79 111.5t-122.5 39.5q-70 0 -121.5 -39.5t-79.5 -111.5t-28 -171t28 -171t79.5 -111.5t121.5 -39.5z" />
    <glyph glyph-name="uni01D2" unicode="&#x1d2;" horiz-adv-x="619" 
d="M435 847l-6 8l-137 -65l-147 65l-6 -8l147 -153h11zM388 613q80 0 145 -21.5t112 -62.5t72.5 -99t25.5 -131q0 -72 -25.5 -129.5t-72.5 -98.5t-112 -62.5t-145 -21.5q-79 0 -144 21.5t-112 62.5t-72 98.5t-25 129.5q0 73 25 131t72 99t112 62.5t144 21.5zM388 26
q61 0 106.5 33.5t70 94.5t24.5 145q0 85 -24.5 146.5t-70 95t-106.5 33.5q-60 0 -105 -33.5t-70 -95t-25 -146.5q0 -84 25 -145t70 -94.5t105 -33.5z" />
    <glyph glyph-name="uni01D3" unicode="&#x1d3;" horiz-adv-x="755" 
d="M504 1025l-6 8l-137 -65l-147 65l-6 -8l147 -153h11zM257 700v-440q0 -71 23.5 -123t67 -80t103.5 -28q61 0 105.5 26.5t68.5 75.5t24 116v453h72v-447q0 -82 -34.5 -142t-99 -92.5t-155.5 -32.5q-106 0 -179 32.5t-109.5 92t-36.5 141.5v448h150zM110 700v-60h-3
q0 22 -15.5 36t-37.5 14h-8h-8v10h72zM326 700v-10h-8h-8q-22 0 -37.5 -14t-15.5 -36h-2v60h71zM652 700v-60h-3q0 22 -15.5 36t-37.5 14h-8h-8v10h72zM790 700v-10h-8h-8q-22 0 -37.5 -14t-15.5 -36h-2v60h71z" />
    <glyph glyph-name="uni01D4" unicode="&#x1d4;" horiz-adv-x="657" 
d="M454 847l-6 8l-137 -65l-147 65l-6 -8l147 -153h11zM231 600v-377q0 -92 42.5 -144t118.5 -52q79 0 122.5 49t44.5 136v388h66v-382q0 -107 -65.5 -169t-185.5 -62q-144 0 -215.5 61.5t-71.5 168.5v383h144zM89 600v-52h-2q-1 19 -14 31t-32 12h-7h-7v9h62zM290 600v-9
h-7h-7q-19 0 -32 -12t-13 -31h-2v52h61zM561 600v-52h-2q-1 19 -14 31t-31 12h-7h-7v9h61zM684 600v-9h-6.5h-6.5q-19 0 -32.5 -12t-13.5 -31h-2v52h61z" />
    <glyph glyph-name="uni01D5" unicode="&#x1d5;" horiz-adv-x="755" 
d="M213 1020h331v-93h-331v93zM216 824q0 31 17 46t46 15q28 0 46 -15t18 -46q0 -29 -18 -44.5t-46 -15.5q-29 0 -46 15.5t-17 44.5zM413 824q0 31 17 46t46 15q28 0 46 -15t18 -46q0 -29 -18 -44.5t-46 -15.5q-29 0 -46 15.5t-17 44.5zM257 700v-440q0 -71 23.5 -123
t67 -80t103.5 -28q61 0 105.5 26.5t68.5 75.5t24 116v453h72v-447q0 -82 -34.5 -142t-99 -92.5t-155.5 -32.5q-106 0 -179 32.5t-109.5 92t-36.5 141.5v448h150zM110 700v-60h-3q0 22 -15.5 36t-37.5 14h-8h-8v10h72zM326 700v-10h-8h-8q-22 0 -37.5 -14t-15.5 -36h-2v60h71
zM652 700v-60h-3q0 22 -15.5 36t-37.5 14h-8h-8v10h72zM790 700v-10h-8h-8q-22 0 -37.5 -14t-15.5 -36h-2v60h71z" />
    <glyph glyph-name="uni01D6" unicode="&#x1d6;" horiz-adv-x="657" 
d="M163 855h331v-93h-331v93zM166 659q0 31 17 46t46 15q28 0 46 -15t18 -46q0 -29 -18 -44.5t-46 -15.5q-29 0 -46 15.5t-17 44.5zM363 659q0 31 17 46t46 15q28 0 46 -15t18 -46q0 -29 -18 -44.5t-46 -15.5q-29 0 -46 15.5t-17 44.5zM231 600v-377q0 -92 42.5 -144
t118.5 -52q79 0 122.5 49t44.5 136v388h66v-382q0 -107 -65.5 -169t-185.5 -62q-144 0 -215.5 61.5t-71.5 168.5v383h144zM89 600v-52h-2q-1 19 -14 31t-32 12h-7h-7v9h62zM290 600v-9h-7h-7q-19 0 -32 -12t-13 -31h-2v52h61zM561 600v-52h-2q-1 19 -14 31t-31 12h-7h-7v9
h61zM684 600v-9h-6.5h-6.5q-19 0 -32.5 -12t-13.5 -31h-2v52h61z" />
    <glyph glyph-name="uni01D7" unicode="&#x1d7;" horiz-adv-x="755" 
d="M313 901v13q52 59 92 132h162v-10q-24 -28 -72 -70t-82 -65h-100zM216 824q0 31 17 46t46 15q28 0 46 -15t18 -46q0 -29 -18 -44.5t-46 -15.5q-29 0 -46 15.5t-17 44.5zM413 824q0 31 17 46t46 15q28 0 46 -15t18 -46q0 -29 -18 -44.5t-46 -15.5q-29 0 -46 15.5t-17 44.5
zM257 700v-440q0 -71 23.5 -123t67 -80t103.5 -28q61 0 105.5 26.5t68.5 75.5t24 116v453h72v-447q0 -82 -34.5 -142t-99 -92.5t-155.5 -32.5q-106 0 -179 32.5t-109.5 92t-36.5 141.5v448h150zM110 700v-60h-3q0 22 -15.5 36t-37.5 14h-8h-8v10h72zM326 700v-10h-8h-8
q-22 0 -37.5 -14t-15.5 -36h-2v60h71zM652 700v-60h-3q0 22 -15.5 36t-37.5 14h-8h-8v10h72zM790 700v-10h-8h-8q-22 0 -37.5 -14t-15.5 -36h-2v60h71z" />
    <glyph glyph-name="uni01D8" unicode="&#x1d8;" horiz-adv-x="657" 
d="M262 736v13q52 59 92 132h162v-10q-24 -28 -72 -70t-82 -65h-100zM165 659q0 31 17 46t46 15q28 0 46 -15t18 -46q0 -29 -18 -44.5t-46 -15.5q-29 0 -46 15.5t-17 44.5zM362 659q0 31 17 46t46 15q28 0 46 -15t18 -46q0 -29 -18 -44.5t-46 -15.5q-29 0 -46 15.5t-17 44.5
zM231 600v-377q0 -92 42.5 -144t118.5 -52q79 0 122.5 49t44.5 136v388h66v-382q0 -107 -65.5 -169t-185.5 -62q-144 0 -215.5 61.5t-71.5 168.5v383h144zM89 600v-52h-2q-1 19 -14 31t-32 12h-7h-7v9h62zM290 600v-9h-7h-7q-19 0 -32 -12t-13 -31h-2v52h61zM561 600v-52h-2
q-1 19 -14 31t-31 12h-7h-7v9h61zM684 600v-9h-6.5h-6.5q-19 0 -32.5 -12t-13.5 -31h-2v52h61z" />
    <glyph glyph-name="uni01D9" unicode="&#x1d9;" horiz-adv-x="755" 
d="M216 824q0 31 17 46t46 15q28 0 46 -15t18 -46q0 -29 -18 -44.5t-46 -15.5q-29 0 -46 15.5t-17 44.5zM413 824q0 31 17 46t46 15q28 0 46 -15t18 -46q0 -29 -18 -44.5t-46 -15.5q-29 0 -46 15.5t-17 44.5zM196 1047h69q71 -36 113 -74q38 34 113 74h69v-13
q-62 -62 -82 -85t-33 -42h-134q-23 34 -54.5 66t-60.5 61v13zM257 700v-440q0 -71 23.5 -123t67 -80t103.5 -28q61 0 105.5 26.5t68.5 75.5t24 116v453h72v-447q0 -82 -34.5 -142t-99 -92.5t-155.5 -32.5q-106 0 -179 32.5t-109.5 92t-36.5 141.5v448h150zM110 700v-60h-3
q0 22 -15.5 36t-37.5 14h-8h-8v10h72zM326 700v-10h-8h-8q-22 0 -37.5 -14t-15.5 -36h-2v60h71zM652 700v-60h-3q0 22 -15.5 36t-37.5 14h-8h-8v10h72zM790 700v-10h-8h-8q-22 0 -37.5 -14t-15.5 -36h-2v60h71z" />
    <glyph glyph-name="uni01DA" unicode="&#x1da;" horiz-adv-x="657" 
d="M166 659q0 31 17 46t46 15q28 0 46 -15t18 -46q0 -29 -18 -44.5t-46 -15.5q-29 0 -46 15.5t-17 44.5zM363 659q0 31 17 46t46 15q28 0 46 -15t18 -46q0 -29 -18 -44.5t-46 -15.5q-29 0 -46 15.5t-17 44.5zM146 882h69q71 -36 113 -74q38 34 113 74h69v-13
q-62 -62 -82 -85t-33 -42h-134q-23 34 -54.5 66t-60.5 61v13zM231 600v-377q0 -92 42.5 -144t118.5 -52q79 0 122.5 49t44.5 136v388h66v-382q0 -107 -65.5 -169t-185.5 -62q-144 0 -215.5 61.5t-71.5 168.5v383h144zM89 600v-52h-2q-1 19 -14 31t-32 12h-7h-7v9h62z
M290 600v-9h-7h-7q-19 0 -32 -12t-13 -31h-2v52h61zM561 600v-52h-2q-1 19 -14 31t-31 12h-7h-7v9h61zM684 600v-9h-6.5h-6.5q-19 0 -32.5 -12t-13.5 -31h-2v52h61z" />
    <glyph glyph-name="uni01DB" unicode="&#x1db;" horiz-adv-x="755" 
d="M343 901q-34 23 -81.5 64.5t-72.5 70.5v10h162q40 -73 92 -132v-13h-100zM216 824q0 31 17 46t46 15q28 0 46 -15t18 -46q0 -29 -18 -44.5t-46 -15.5q-29 0 -46 15.5t-17 44.5zM413 824q0 31 17 46t46 15q28 0 46 -15t18 -46q0 -29 -18 -44.5t-46 -15.5q-29 0 -46 15.5
t-17 44.5zM257 700v-440q0 -71 23.5 -123t67 -80t103.5 -28q61 0 105.5 26.5t68.5 75.5t24 116v453h72v-447q0 -82 -34.5 -142t-99 -92.5t-155.5 -32.5q-106 0 -179 32.5t-109.5 92t-36.5 141.5v448h150zM110 700v-60h-3q0 22 -15.5 36t-37.5 14h-8h-8v10h72zM326 700v-10
h-8h-8q-22 0 -37.5 -14t-15.5 -36h-2v60h71zM652 700v-60h-3q0 22 -15.5 36t-37.5 14h-8h-8v10h72zM790 700v-10h-8h-8q-22 0 -37.5 -14t-15.5 -36h-2v60h71z" />
    <glyph glyph-name="uni01DC" unicode="&#x1dc;" horiz-adv-x="657" 
d="M292 736q-34 23 -81.5 64.5t-72.5 70.5v10h162q40 -73 92 -132v-13h-100zM165 659q0 31 17 46t46 15q28 0 46 -15t18 -46q0 -29 -18 -44.5t-46 -15.5q-29 0 -46 15.5t-17 44.5zM362 659q0 31 17 46t46 15q28 0 46 -15t18 -46q0 -29 -18 -44.5t-46 -15.5q-29 0 -46 15.5
t-17 44.5zM231 600v-377q0 -92 42.5 -144t118.5 -52q79 0 122.5 49t44.5 136v388h66v-382q0 -107 -65.5 -169t-185.5 -62q-144 0 -215.5 61.5t-71.5 168.5v383h144zM89 600v-52h-2q-1 19 -14 31t-32 12h-7h-7v9h62zM290 600v-9h-7h-7q-19 0 -32 -12t-13 -31h-2v52h61z
M561 600v-52h-2q-1 19 -14 31t-31 12h-7h-7v9h61zM684 600v-9h-6.5h-6.5q-19 0 -32.5 -12t-13.5 -31h-2v52h61z" />
    <glyph glyph-name="uni01DD" unicode="&#x1dd;" horiz-adv-x="590" 
d="M287 96q43 0 72 27.5t33 87.5h-209q1 -55 28 -85t76 -30zM266 556q133 0 206.5 -73.5t73.5 -205.5q0 -137 -68 -212t-190 -75q-115 0 -180 65.5t-65 182.5v72h352q-2 63 -37.5 99t-98.5 36q-46 0 -90 -9.5t-95 -33.5v115q42 21 88.5 30t103.5 9z" />
    <glyph glyph-name="uni01DE" unicode="&#x1de;" horiz-adv-x="689" 
d="M180 1020h331v-93h-331v93zM183 824q0 31 17 46t46 15q28 0 46 -15t18 -46q0 -29 -18 -44.5t-46 -15.5q-29 0 -46 15.5t-17 44.5zM380 824q0 31 17 46t46 15q28 0 46 -15t18 -46q0 -29 -18 -44.5t-46 -15.5q-29 0 -46 15.5t-17 44.5zM354 720l326 -714h-179l-208 521z
M139 73q-8 -20 -3 -34t17 -21.5t24 -7.5h9v-10h-214v10h4.5h4.5q23 0 47.5 14.5t40.5 48.5h70zM354 720l4 -122l-248 -595h-73l259 586q3 6 10.5 22.5t16 37.5t15.5 40.5t7 30.5h9zM459 238v-42h-294v42h294zM474 73h175q17 -34 41 -48.5t47 -14.5h4h4v-10h-318v10h9
q20 0 35 16.5t3 46.5z" />
    <glyph glyph-name="uni01DF" unicode="&#x1df;" horiz-adv-x="604" 
d="M143 855h331v-93h-331v93zM146 659q0 31 17 46t46 15q28 0 46 -15t18 -46q0 -29 -18 -44.5t-46 -15.5q-29 0 -46 15.5t-17 44.5zM343 659q0 31 17 46t46 15q28 0 46 -15t18 -46q0 -29 -18 -44.5t-46 -15.5q-29 0 -46 15.5t-17 44.5zM319 627l296 -622h-169l-186 439z
M131 66q-11 -27 3 -41.5t31 -14.5h8v-10h-200v10h4h4q20 0 42 12.5t36 43.5h72zM319 627l2 -120l-217 -504h-74l234 503q2 6 9 21.5t15 35t15 37t8 27.5h8zM406 196v-39h-255v39h255zM421 66h165q15 -31 37 -43.5t42 -12.5h4h4v-10h-294v10h8q17 0 31 14.5t3 41.5z" />
    <glyph glyph-name="uni01E0" unicode="&#x1e0;" horiz-adv-x="689" 
d="M180 1020h331v-93h-331v93zM282 824q0 31 17 46t46 15q28 0 46 -15t18 -46q0 -29 -18 -44.5t-46 -15.5q-29 0 -46 15.5t-17 44.5zM354 720l326 -714h-179l-208 521zM139 73q-8 -20 -3 -34t17 -21.5t24 -7.5h9v-10h-214v10h4.5h4.5q23 0 47.5 14.5t40.5 48.5h70zM354 720
l4 -122l-248 -595h-73l259 586q3 6 10.5 22.5t16 37.5t15.5 40.5t7 30.5h9zM459 238v-42h-294v42h294zM474 73h175q17 -34 41 -48.5t47 -14.5h4h4v-10h-318v10h9q20 0 35 16.5t3 46.5z" />
    <glyph glyph-name="uni01E1" unicode="&#x1e1;" horiz-adv-x="604" 
d="M143 855h331v-93h-331v93zM245 659q0 31 17 46t46 15q28 0 46 -15t18 -46q0 -29 -18 -44.5t-46 -15.5q-29 0 -46 15.5t-17 44.5zM319 627l296 -622h-169l-186 439zM131 66q-11 -27 3 -41.5t31 -14.5h8v-10h-200v10h4h4q20 0 42 12.5t36 43.5h72zM319 627l2 -120
l-217 -504h-74l234 503q2 6 9 21.5t15 35t15 37t8 27.5h8zM406 196v-39h-255v39h255zM421 66h165q15 -31 37 -43.5t42 -12.5h4h4v-10h-294v10h8q17 0 31 14.5t3 41.5z" />
    <glyph glyph-name="uni01E2" unicode="&#x1e2;" horiz-adv-x="952" 
d="M375 874h331v-103h-331v103zM156 71q-10 -18 -7 -31.5t15 -21.5t25 -8h10v-10h-223v10h4h4q24 0 46.5 16.5t43.5 45.5zM616 700v-700h-150v654zM468 58v-58h-62l1 10h4.5h4.5q20 0 34.5 14.5t15.5 33.5h2zM886 43v-43h-273v43h273zM837 360v-42h-544l5 42h539zM885 700
v-43h-358l-39 -40l-373 -614h-87l429 644q11 17 3.5 30t-24.5 13h-5v10h454zM945 195l-45 -195h-185l33 43q68 0 116.5 41t70.5 111h10zM837 321v-97h-10v9q0 36 -24 60.5t-61 24.5v3h95zM837 455v-97h-95v2q37 1 61 25.5t24 60.5v9h10zM885 660v-111h-10v10
q1 45 -25.5 71.5t-71.5 26.5v3h107zM885 718v-29l-122 11q22 0 46.5 3t45.5 7t30 8z" />
    <glyph glyph-name="uni01E3" unicode="&#x1e3;" horiz-adv-x="916" 
d="M293 709h331v-103h-331v103zM139 61q-10 -16 -6.5 -27t14 -17.5t21.5 -6.5h8v-10h-197v10h3.5h3.5q21 0 40.5 13t36.5 40zM555 599v-599h-142v560zM415 50v-50h-53v10h5h4q17 0 29.5 11.5t12.5 28.5h2zM795 40v-40h-243v40h243zM753 310v-39h-496l4 39h492zM795 599v-40
h-325l-38 -34l-330 -522h-80l384 550q9 15 2.5 26.5t-21.5 11.5h-4v8h412zM847 176l-39 -176h-164l29 40q59 0 102 36t62 100h10zM753 273v-86h-9v6q0 34 -22 55.5t-55 22.5v2h86zM753 395v-87h-86v2q33 1 55 23t22 55v7h9zM795 562v-101h-9v9q0 40 -24.5 64.5t-64.5 25.5v2
h98zM795 615v-25l-105 9q28 0 60 5.5t45 10.5z" />
    <glyph glyph-name="uni01E4" unicode="&#x1e4;" horiz-adv-x="724" 
d="M361 421h283v-164h65v-97h-65v-129q-69 -22 -129.5 -31.5t-124.5 -9.5q-162 0 -247 95t-85 273q0 173 99 269.5t274 96.5q110 0 212 -44l-50 -121q-78 39 -163 39q-98 0 -157 -66t-59 -177q0 -249 191 -249q48 0 91 10v44h-125v97h125v48h-135v116z" />
    <glyph glyph-name="uni01E5" unicode="&#x1e5;" horiz-adv-x="632" 
d="M543 -91q-44 -149 -261 -149q-120 0 -204 32v114q101 -42 213 -42q35 0 61.5 11t36.5 34h-146v77h163v55l4 67h-4q-53 -81 -155 -81q-99 0 -152.5 68t-53.5 191q0 127 55.5 198.5t154.5 71.5q101 0 158 -80h4l12 70h126v-560h60v-77h-72zM304 139q61 0 86.5 30.5
t25.5 100.5v12q0 81 -27 117t-87 36q-52 0 -78.5 -36t-26.5 -113q0 -76 26 -111.5t81 -35.5z" />
    <glyph glyph-name="Gcaron" unicode="&#x1e6;" horiz-adv-x="724" 
d="M511 1012l-6 8l-137 -65l-147 65l-6 -8l147 -153h11zM755 280v-165q-24 -30 -71.5 -60t-114 -49.5t-146.5 -19.5q-114 0 -199 44.5t-132 126.5t-47 194t46.5 193t133 125.5t204.5 44.5q55 0 107 -7.5t96 -19.5t73 -28l2 -171h-9q-19 68 -55 108.5t-83.5 58t-100.5 17.5
q-82 0 -138 -39.5t-84.5 -112.5t-28.5 -175q0 -96 26.5 -167.5t77.5 -110t124 -39.5q37 0 71.5 11.5t60.5 33.5t37 54l1 153q0 45 -51 45h-16v10h281v-10h-15q-52 0 -50 -45z" />
    <glyph glyph-name="gcaron" unicode="&#x1e7;" horiz-adv-x="632" 
d="M412 847l-6 8l-137 -65l-147 65l-6 -8l147 -153h11zM370 613q46 0 92.5 -5.5t87 -16t68.5 -24.5v-159h-8q-16 64 -47.5 100t-72.5 51t-89 15q-70 0 -118 -33t-72.5 -95.5t-24.5 -150.5q0 -83 22 -143t65 -93t104 -33q32 0 61 10.5t51 31t31 50.5l1 120q0 20 -11.5 30
t-32.5 10h-14v9h257v-9h-13q-44 0 -43 -40v-133q-21 -27 -65 -54.5t-104 -45.5t-131 -18q-100 1 -174 38.5t-115 107.5t-41 168t41 167.5t116 107t179 37.5z" />
    <glyph glyph-name="uni01E8" unicode="&#x1e8;" horiz-adv-x="664" 
d="M474 1012l-6 8l-137 -65l-147 65l-6 -8l147 -153h11zM413 431l262 -359q23 -30 47 -45.5t55 -16.5v-10h-82q-11 0 -36.5 1t-57.5 8t-64.5 24.5t-56.5 49.5q-5 7 -20 27t-35 48t-41.5 57.5t-40.5 55.5t-30.5 42.5l-11.5 16.5zM664 693l-301 -357l-62 -6l275 363h88z
M734 700v-9h-4q-33 0 -61.5 -13.5t-48.5 -35.5l-81 2q12 17 4 32t-28 15h-10v9h225h4zM269 700v-700h-150v700h150zM122 73v-73h-80v10h6.5h6.5q26 0 44.5 18.5t19.5 44.5h3zM122 627h-3q-1 26 -19.5 44.5t-44.5 18.5h-6.5h-6.5v10h80v-73zM266 73h3q1 -26 19.5 -44.5
t44.5 -18.5h6.5h6.5v-10h-80v73zM266 627v73h80v-10h-6.5h-6.5q-26 0 -44.5 -18.5t-19.5 -44.5h-3z" />
    <glyph glyph-name="uni01E9" unicode="&#x1e9;" horiz-adv-x="620" 
d="M463 1032l-6 8l-137 -65l-147 65l-6 -8l147 -153h11zM382 377l224 -310q19 -28 40 -42.5t49 -15.5v-9h-77q-10 0 -33 1t-52.5 7.5t-59.5 22.5t-53 46q-5 7 -17 24t-28.5 40t-34 47t-32.5 45t-24 34l-9 13zM594 594l-261 -308l-58 -6l237 314h82zM655 601v-10h-4
q-28 0 -53 -11t-41 -30l-77 2q11 14 4 26.5t-24 12.5h-9v10h200h4zM246 601v-601h-144v601h144zM104 63v-63h-68v10h4.5h5.5q23 0 39 15.5t17 37.5h2zM243 63h3q0 -22 16 -37.5t39 -15.5h6h5v-10h-69v63zM243 537v64h69v-10h-5.5h-5.5q-23 0 -39 -15.5t-16 -38.5h-3z
M104 537h-2q-1 23 -17 38.5t-39 15.5h-5h-6v10h69v-64z" />
    <glyph glyph-name="uni01EA" unicode="&#x1ea;" horiz-adv-x="795" 
d="M665 16l10 -3q-41 -9 -56 -30t-13 -48q2 -29 20.5 -46.5t44.5 -17.5t51 22l6 -6q-5 -35 -27 -53t-51 -21t-56.5 8.5t-44.5 37.5t-13 65q3 34 23 54.5t48.5 30t57.5 7.5zM442 714q120 0 208.5 -44.5t137 -125.5t48.5 -194q0 -112 -48.5 -193.5t-137 -126t-208.5 -44.5
t-208.5 44.5t-136.5 125.5t-48 194q0 112 48 193.5t136.5 126t208.5 44.5zM442 28q71 0 122.5 39.5t79 111.5t27.5 171t-27.5 171t-79 111.5t-122.5 39.5q-70 0 -121.5 -39.5t-79.5 -111.5t-28 -171t28 -171t79.5 -111.5t121.5 -39.5z" />
    <glyph glyph-name="uni01EB" unicode="&#x1eb;" horiz-adv-x="619" 
d="M566 16l10 -3q-41 -9 -56 -30t-13 -48q2 -29 20.5 -46.5t44.5 -17.5t51 22l6 -6q-5 -35 -27 -53t-51 -21t-56.5 8.5t-44.5 37.5t-13 65q3 34 23 54.5t48.5 30t57.5 7.5zM388 613q80 0 145 -21.5t112 -62.5t72.5 -99t25.5 -131q0 -72 -25.5 -129.5t-72.5 -98.5t-112 -62.5
t-145 -21.5q-79 0 -144 21.5t-112 62.5t-72 98.5t-25 129.5q0 73 25 131t72 99t112 62.5t144 21.5zM388 26q61 0 106.5 33.5t70 94.5t24.5 145q0 85 -24.5 146.5t-70 95t-106.5 33.5q-60 0 -105 -33.5t-70 -95t-25 -146.5q0 -84 25 -145t70 -94.5t105 -33.5z" />
    <glyph glyph-name="uni01EC" unicode="&#x1ec;" horiz-adv-x="795" 
d="M665 16l10 -3q-41 -9 -56 -30t-13 -48q2 -29 20.5 -46.5t44.5 -17.5t51 22l6 -6q-5 -35 -27 -53t-51 -21t-56.5 8.5t-44.5 37.5t-13 65q3 34 23 54.5t48.5 30t57.5 7.5zM233 887h331v-103h-331v103zM442 714q120 0 208.5 -44.5t137 -125.5t48.5 -194q0 -112 -48.5 -193.5
t-137 -126t-208.5 -44.5t-208.5 44.5t-136.5 125.5t-48 194q0 112 48 193.5t136.5 126t208.5 44.5zM442 28q71 0 122.5 39.5t79 111.5t27.5 171t-27.5 171t-79 111.5t-122.5 39.5q-70 0 -121.5 -39.5t-79.5 -111.5t-28 -171t28 -171t79.5 -111.5t121.5 -39.5z" />
    <glyph glyph-name="uni01ED" unicode="&#x1ed;" horiz-adv-x="619" 
d="M566 16l10 -3q-41 -9 -56 -30t-13 -48q2 -29 20.5 -46.5t44.5 -17.5t51 22l6 -6q-5 -35 -27 -53t-51 -21t-56.5 8.5t-44.5 37.5t-13 65q3 34 23 54.5t48.5 30t57.5 7.5zM144 709h331v-103h-331v103zM388 613q80 0 145 -21.5t112 -62.5t72.5 -99t25.5 -131
q0 -72 -25.5 -129.5t-72.5 -98.5t-112 -62.5t-145 -21.5q-79 0 -144 21.5t-112 62.5t-72 98.5t-25 129.5q0 73 25 131t72 99t112 62.5t144 21.5zM388 26q61 0 106.5 33.5t70 94.5t24.5 145q0 85 -24.5 146.5t-70 95t-106.5 33.5q-60 0 -105 -33.5t-70 -95t-25 -146.5
q0 -84 25 -145t70 -94.5t105 -33.5z" />
    <glyph glyph-name="uni01EE" unicode="&#x1ee;" horiz-adv-x="590" 
d="M138 419l176 170h-262v125h468v-97l-211 -201q118 -5 180.5 -58.5t62.5 -149.5q0 -102 -79.5 -160t-224.5 -58q-126 0 -220 39v128q45 -21 102.5 -34t108.5 -13q82 0 122 25.5t40 81.5q0 50 -51 73t-152 23h-60v106zM408 1011l-6 8l-137 -65l-147 65l-6 -8l147 -153h11z
" />
    <glyph glyph-name="uni01EF" unicode="&#x1ef;" horiz-adv-x="581" 
d="M138 245l198 187h-288v114h472v-97l-216 -202q116 -13 177 -75t61 -171q0 -74 -35 -128.5t-102 -83.5t-161 -29q-123 0 -216 39v128q45 -22 100.5 -34.5t104.5 -12.5q77 0 117.5 33t40.5 95q0 67 -49.5 99t-145.5 32h-58v106zM405 847l-6 8l-137 -65l-147 65l-6 -8
l147 -153h11z" />
    <glyph glyph-name="uni01F0" unicode="&#x1f0;" horiz-adv-x="305" 
d="M280 847l-6 8l-137 -65l-147 65l-6 -8l147 -153h11zM34 -240q-57 0 -98 12v117q34 -9 70 -9q38 0 55 21t17 62v583h149v-605q0 -87 -50.5 -134t-142.5 -47z" />
    <glyph glyph-name="uni01F1" unicode="&#x1f1;" horiz-adv-x="1309" 
d="M405 700q118 0 204 -42.5t132.5 -121t46.5 -186.5t-46.5 -186.5t-132.5 -121t-204 -42.5h-238l-1 42h60.5h61h53.5h38h14q72 0 124 37.5t80 106.5t28 164t-28 164t-80 106.5t-124 37.5h-14.5h-39.5h-56h-64h-63v42h249zM269 700v-700h-150v700h150zM122 73v-73h-80v10
h6.5h6.5q26 0 44.5 18.5t19.5 44.5h3zM122 627h-3q0 26 -19 44.5t-45 18.5h-6h-6l-1 10h80v-73zM1335 714v-4.5v-4.5l-395 -705h-165v9l366 650h-352v42h440q20 0 42.5 2t40 5t23.5 6zM1324 42l-6 -42h-473v42h479zM1363 201l-36 -201h-183l13 32l16 10q66 0 113.5 43.5
t66.5 115.5h10zM900 659q-47 -1 -74 -28.5t-27 -74.5v-12h-10v118h111v-3zM789 719q10 -4 30.5 -8t45.5 -7t46 -3l-122 -11v29z" />
    <glyph glyph-name="uni01F2" unicode="&#x1f2;" horiz-adv-x="1228" 
d="M405 700q118 0 204 -42.5t132.5 -121t46.5 -186.5t-46.5 -186.5t-132.5 -121t-204 -42.5h-238l-1 42h60.5h61h53.5h38h14q72 0 124 37.5t80 106.5t28 164t-28 164t-80 106.5t-124 37.5h-14.5h-39.5h-56h-64h-63v42h249zM269 700v-700h-150v700h150zM122 73v-73h-80v10
h6.5h6.5q26 0 44.5 18.5t19.5 44.5h3zM122 627h-3q0 26 -19 44.5t-45 18.5h-6h-6l-1 10h80v-73zM1295 613v-4v-4l-348 -605h-172v8l329 553h-315v40h404q19 0 40.5 1.5t38.5 4.5t23 6zM1285 39l-7 -39h-437v39h444zM1332 184l-43 -184h-181l34 39q47 0 82 17.5t59.5 50
t38.5 77.5h10zM789 564h102v-3q-43 0 -67.5 -25.5t-24.5 -69.5v-8h-10v106zM789 616q8 -3 26.5 -6.5t41 -6t41.5 -2.5l-109 -10v25z" />
    <glyph glyph-name="uni01F3" unicode="&#x1f3;" horiz-adv-x="1121" 
d="M371 600q107 0 184 -35.5t118 -103t41 -161.5t-41 -161t-118 -103t-184 -36h-222l-2 40h122.5h68h21.5q94 0 148.5 69t54.5 191t-54.5 191.5t-148.5 69.5h-22h-71h-129v39h234zM246 600v-600h-144v600h144zM105 64v-64h-72v10h6h7q23 0 39.5 16t16.5 38h3zM104 537h-2
q-1 23 -17.5 38t-39.5 15h-6h-6v10h71v-63zM1188 613v-4v-4l-348 -605h-172v8l329 553h-315v40h404q19 0 40.5 1.5t38.5 4.5t23 6zM1178 39l-7 -39h-437v39h444zM1225 184l-43 -184h-181l34 39q47 0 82 17.5t59.5 50t38.5 77.5h10zM682 564h102v-3q-43 0 -67.5 -25.5
t-24.5 -69.5v-8h-10v106zM682 616q8 -3 26.5 -6.5t41 -6t41.5 -2.5l-109 -10v25z" />
    <glyph glyph-name="uni01F4" unicode="&#x1f4;" horiz-adv-x="724" 
d="M755 280v-165q-24 -30 -71.5 -60t-114 -49.5t-146.5 -19.5q-114 0 -199 44.5t-132 126.5t-47 194t46.5 193t133 125.5t204.5 44.5q55 0 107 -7.5t96 -19.5t73 -28l2 -171h-9q-19 68 -55 108.5t-83.5 58t-100.5 17.5q-82 0 -138 -39.5t-84.5 -112.5t-28.5 -175
q0 -96 26.5 -167.5t77.5 -110t124 -39.5q37 0 71.5 11.5t60.5 33.5t37 54l1 153q0 45 -51 45h-16v10h281v-10h-15q-52 0 -50 -45zM353 916q17 29 42 60t52.5 58t48.5 47q27 -15 43 -35t26 -47q-31 -19 -66 -36.5t-70.5 -31.5t-68.5 -22z" />
    <glyph glyph-name="uni01F5" unicode="&#x1f5;" horiz-adv-x="632" 
d="M370 613q46 0 92.5 -5.5t87 -16t68.5 -24.5v-159h-8q-16 64 -47.5 100t-72.5 51t-89 15q-70 0 -118 -33t-72.5 -95.5t-24.5 -150.5q0 -83 22 -143t65 -93t104 -33q32 0 61 10.5t51 31t31 50.5l1 120q0 20 -11.5 30t-32.5 10h-14v9h257v-9h-13q-44 0 -43 -40v-133
q-21 -27 -65 -54.5t-104 -45.5t-131 -18q-100 1 -174 38.5t-115 107.5t-41 168t41 167.5t116 107t179 37.5zM232 751q17 29 42 60t52.5 58t48.5 47q27 -15 43 -35t26 -47q-31 -19 -66 -36.5t-70.5 -31.5t-68.5 -22z" />
    <glyph glyph-name="uni01F6" unicode="&#x1f6;" horiz-adv-x="1047" 
d="M627 234q0 -64 21 -93t71 -29t71.5 30.5t21.5 102.5v301h151v-303q0 -253 -244 -253q-126 0 -184.5 55.5t-58.5 174.5v88h-235v-308h-151v714h151v-280h235v280h151v-480z" />
    <glyph glyph-name="uni01F7" unicode="&#x1f7;" horiz-adv-x="675" 
d="M241 -240h-151v954h115l24 -92h4q32 48 82.5 75.5t103.5 27.5q95 0 151 -70t56 -193q0 -103 -45 -193.5t-132 -158.5t-208 -106v-244zM375 599q-62 0 -98 -55t-36 -153v-246q104 42 168 129.5t64 186.5q0 67 -25.5 102.5t-72.5 35.5z" />
    <glyph glyph-name="uni01F8" unicode="&#x1f8;" horiz-adv-x="812" 
d="M108 715l638 -608l12 -121l-638 607zM113 71v-71h-83v10h9h10q25 0 43 18t18 43h3zM253 71q0 -25 18 -43t43 -18h10h9v-10h-83v71h3zM108 715l144 -153l1 -562h-143v590q0 56 -6 90.5l-6 34.5h10zM755 700v-586q0 -37 3 -66.5t6 -45.5l3 -16h-9l-145 162v552h142z
M835 700v-10h-9h-9q-25 0 -43 -17.5t-19 -43.5h-3v71h83zM532 700h83v-71h-2q-1 26 -18.5 43.5t-43.5 17.5h-9h-10v10zM334 916l-7 -7q-33 8 -69.5 22t-71 31.5t-64.5 36.5q9 28 25 48t43 34q21 -20 48.5 -47t53 -57.5t42.5 -60.5z" />
    <glyph glyph-name="uni01F9" unicode="&#x1f9;" horiz-adv-x="657" 
d="M91 614l587 -516l10 -111l-586 516zM95 61v-61h-74v10h8h8q23 0 39 14.5t16 36.5h3zM229 61q1 -22 17 -36.5t38 -14.5h8h8v-10h-73v61h2zM91 614l138 -150v-464h-137v500q0 51 -5 82.5l-5 31.5h9zM687 600v-496q0 -35 2.5 -61.5t5 -41l2.5 -14.5h-9l-138 159v454h137z
M684 539v61h75v-10h-8.5h-8.5q-22 0 -38.5 -14.5t-16.5 -36.5h-3zM550 539q-1 22 -16.5 36.5t-38.5 14.5h-8.5h-8.5v10h74v-61h-2zM256 751l-7 -7q-33 8 -69.5 22t-71 31.5t-64.5 36.5q9 28 25 48t43 34q21 -20 48.5 -47t53 -57.5t42.5 -60.5z" />
    <glyph glyph-name="Aringacute" unicode="&#x1fa;" horiz-adv-x="689" 
d="M468 714q0 -42 -23 -72l245 -642h-162l-52 161h-261l-53 -161h-162l244 642q-21 28 -21 71q0 54 33.5 85t87.5 31q53 0 88.5 -31.5t35.5 -83.5zM444 288l-50 141q-42 112 -49 146q-9 -35 -42 -130l-55 -157h196zM285 856v8q22 21 48 50t37 44h167v-6q-11 -13 -55.5 -41
t-97.5 -55h-99zM391 713q0 22 -13 34.5t-34 12.5t-34 -12.5t-13 -34.5q0 -45 42 -47h9q19 1 31 13.5t12 33.5z" />
    </font>
</defs>
</svg>
