<?xml version="1.0" standalone="no"?>
<!DOCTYPE svg PUBLIC "-//W3C//DTD SVG 1.1//EN" "http://www.w3.org/Graphics/SVG/1.1/DTD/svg11.dtd" >
<svg xmlns="http://www.w3.org/2000/svg" xmlns:xlink="http://www.w3.org/1999/xlink" version="1.1">
<metadata>
Created by FontForge 20190801 at Mon Feb  8 12:13:37 2021
 By root
Copyright (c) 2010 by Open Window. All rights reserved.
</metadata>
<defs>
<font id="ComingSoon-Regular" horiz-adv-x="340" >
  <font-face 
    font-family="Coming Soon"
    font-weight="400"
    font-stretch="normal"
    units-per-em="1024"
    panose-1="2 0 0 0 0 0 0 0 0 0"
    ascent="819"
    descent="-205"
    x-height="546"
    cap-height="765"
    bbox="-225 -498 1443.12 1071"
    underline-thickness="51"
    underline-position="-151"
    unicode-range="U+0001-206F"
  />
<missing-glyph horiz-adv-x="374" 
d="M34 0v682h272v-682h-272zM68 34h204v614h-204v-614z" />
    <glyph glyph-name=".notdef" horiz-adv-x="374" 
d="M34 0v682h272v-682h-272zM68 34h204v614h-204v-614z" />
    <glyph glyph-name="uni0000" 
 />
    <glyph glyph-name="uni0000" 
 />
    <glyph glyph-name="uni000D" unicode="&#xd;" 
 />
    <glyph glyph-name="uni0001" 
 />
    <glyph glyph-name="uni0002" 
 />
    <glyph glyph-name="uni0003" 
 />
    <glyph glyph-name="uni0004" 
 />
    <glyph glyph-name="uni0005" 
 />
    <glyph glyph-name="uni0006" 
 />
    <glyph glyph-name="uni0007" 
 />
    <glyph glyph-name="uni0008" 
 />
    <glyph glyph-name="uni0009" unicode="&#x9;" 
 />
    <glyph glyph-name="uni000A" unicode="&#xa;" 
 />
    <glyph glyph-name="uni000B" 
 />
    <glyph glyph-name="uni000C" 
 />
    <glyph glyph-name="uni000E" 
 />
    <glyph glyph-name="uni000F" 
 />
    <glyph glyph-name="uni0010" 
 />
    <glyph glyph-name="uni0011" 
 />
    <glyph glyph-name="uni0012" 
 />
    <glyph glyph-name="uni0013" 
 />
    <glyph glyph-name="uni0014" 
 />
    <glyph glyph-name="uni0015" 
 />
    <glyph glyph-name="uni0016" 
 />
    <glyph glyph-name="uni0017" 
 />
    <glyph glyph-name="uni0018" 
 />
    <glyph glyph-name="uni0019" 
 />
    <glyph glyph-name="uni001A" 
 />
    <glyph glyph-name="uni001B" 
 />
    <glyph glyph-name="uni001C" 
 />
    <glyph glyph-name="uni001D" 
 />
    <glyph glyph-name="uni001E" 
 />
    <glyph glyph-name="uni001F" 
 />
    <glyph glyph-name="space" unicode=" " 
 />
    <glyph glyph-name="exclam" unicode="!" horiz-adv-x="275" 
d="M164 72q17 0 28.5 -11.5t11.5 -28.5q0 -16 -11.5 -27.5t-28.5 -11.5t-28 11.5t-11 27.5q0 17 11 28.5t28 11.5zM150 99q-11 -1 -19 6.5t-9 18.5q-2 15 -3.5 30.5t-3.5 31.5q-6 57 -10.5 107.5t-4.5 80.5q0 31 -2.5 78t-6.5 96.5t-9 94.5t-10 72q0 10 7 18t21 10
q22 0 27 -23q6 -27 11 -74t9 -97.5t6.5 -98t2.5 -76.5q0 -28 4.5 -78t10.5 -104q2 -16 3.5 -32t3.5 -33q0 -11 -7.5 -19.5t-20.5 -8.5z" />
    <glyph glyph-name="quotedbl" unicode="&#x22;" horiz-adv-x="265" 
d="M197 660l2 -16t3 -16q2 -11 3.5 -23.5t2.5 -26.5q0 -11 -7.5 -19t-20.5 -9q-11 -1 -19 7t-9 19q-2 22 -6 43q-2 8 -3 17t-2 17q-2 23 -5 43t-6 39q0 22 28 28q10 0 17.5 -6.5t9.5 -16.5q3 -16 6 -36.5t6 -43.5zM84 660q2 -13 2.5 -26t2.5 -27l2 -29q0 -11 -7.5 -19.5
t-20.5 -8.5q-11 -1 -19 6.5t-9 18.5l-2 28q-2 13 -2.5 25.5t-2.5 25.5q-1 8 -1 16v16v16v12v10t-1 12q0 10 7 18t21 10q22 0 27 -22q2 -7 2 -13.5v-14.5v-13v-15v-13t1 -13z" />
    <glyph glyph-name="numbersign" unicode="#" horiz-adv-x="544" 
d="M343 287q8 23 18.5 57t21.5 70q-11 1 -24 1h-27q-47 0 -93 -3q-12 -42 -24 -81t-21 -63q-2 -7 -5.5 -18t-8.5 -25q20 1 40 1.5t40 0.5h33.5t30.5 -1q6 21 10.5 36t8.5 25zM500 460q11 -2 17.5 -10.5t5.5 -22.5q-2 -10 -10 -16.5t-22 -5.5q-1 0 -14 1.5t-37 3.5
q-11 -42 -23.5 -80t-20.5 -62q-7 -16 -15 -46q22 -2 33.5 -4t13.5 -2q10 -2 16.5 -10t5.5 -22q-3 -23 -32 -23q-6 1 -14 2q-7 1 -16.5 1.5t-22.5 2.5q-6 -23 -13.5 -49.5t-15.5 -57.5q-7 -21 -35 -20q-9 2 -14.5 11t-4.5 23q7 28 13.5 52t12.5 45h-48q-50 0 -96 -3
q-7 -23 -14.5 -50.5t-15.5 -59.5q-3 -9 -11.5 -15t-23.5 -5q-9 3 -15 11.5t-5 23.5q6 21 12.5 44t12.5 46q-27 -2 -45 -4t-21 -2q-11 0 -18.5 7t-9.5 21q0 11 7 18.5t18 9.5q2 0 26 2.5t60 5.5q6 21 11 38t9 28q8 22 18 53.5t21 66.5q-29 -2 -47.5 -4t-21.5 -2
q-11 0 -18.5 7t-9.5 21q0 11 7 18.5t18 8.5q2 1 26.5 3.5t61.5 5.5q8 30 14.5 55t9.5 41q3 23 32 23q23 -5 23 -33q-3 -15 -8 -36t-12 -46q20 1 39 1.5t38 0.5t35.5 -0.5t31.5 -1.5q8 29 14 53t8 39q5 23 33 23q10 -2 16.5 -10.5t5.5 -22.5q-2 -15 -7.5 -37.5t-12.5 -48.5
q20 -2 31.5 -3.5t12.5 -1.5z" />
    <glyph glyph-name="dollar" unicode="$" horiz-adv-x="446" 
d="M359 285q0 15 -5.5 36t-17 41t-29 36.5t-41.5 23.5q-11 4 -20 0q0 -24 1.5 -57.5t3.5 -70t4.5 -75t5.5 -72.5q3 1 11 3q29 9 45.5 21t24.5 27t11 32t5 36l1 11v8zM106 518q0 -13 19.5 -18t63.5 -10l-2 58t-3 55q-32 -12 -55 -31t-23 -54zM282 476q33 -9 57.5 -31
t41.5 -49t25.5 -56.5t8.5 -54.5v-14l-1 -11q-2 -19 -6 -42t-16.5 -46t-37 -43t-66.5 -33q-6 -2 -11.5 -3t-11.5 -3q3 -33 5 -54t2 -23q0 -11 -7.5 -19t-20.5 -9q-11 -1 -19 6.5t-9 18.5q0 3 -2 23t-4 51q-21 1 -42 6.5t-50 13.5q-29 9 -49 26.5t-33 36t-19 34t-7 20.5
q0 9 6.5 16.5t21.5 11.5q20 0 27 -20q6 -16 16 -30q8 -12 21.5 -24.5t33.5 -17.5q23 -7 39 -11t30 -5q-3 35 -5.5 73.5t-4.5 76t-3.5 71.5t-1.5 60l-3 12q-23 2 -47 5.5t-44 12t-33 24t-13 42.5q0 33 12.5 56t29.5 38.5t36 25.5t33 16q5 2 10.5 4t11.5 4q-1 20 -1.5 31.5
t-0.5 13.5q0 11 7.5 19t20.5 9q11 0 19 -7.5t9 -18.5q0 -1 0.5 -11.5t1.5 -28.5q3 1 6.5 1h6.5q26 0 50.5 -3.5t45.5 -8.5q21 -7 20 -34q-5 -22 -34 -20q-20 5 -41 7.5t-41 2.5h-11q2 -29 2.5 -63t1.5 -68q10 -2 19 -3.5t18 -3.5z" />
    <glyph glyph-name="percent" unicode="%" horiz-adv-x="676" 
d="M604 74q8 8 17.5 25.5t8.5 46.5q-2 21 -10 38t-17.5 29t-19.5 19.5t-16 10.5q-7 -4 -15 -4q-6 0 -19 3q-6 0 -14 4q-5 -2 -11.5 -6.5t-12.5 -11.5q-19 -21 -31 -53t-12 -64q2 -18 12 -31t24 -21.5t30 -12.5t30 -4q11 0 26.5 8t29.5 24zM563 301q14 0 33.5 -10.5t38 -30
t33 -47t18.5 -61.5q0 -4 0.5 -7.5t0.5 -7.5q0 -27 -10.5 -53t-30.5 -48q-21 -23 -47.5 -36.5t-50.5 -13.5q-25 0 -50.5 7.5t-47 22.5t-36.5 37.5t-18 51.5v14q0 36 16 76.5t42 69.5q35 40 75 40q7 0 12.5 -1t10.5 -3h11zM56 564q2 -18 12 -31t24 -21.5t30 -12.5t30 -4
q11 0 27 8t30 24q8 8 17 25.5t8 46.5q-2 21 -10 38t-17.5 29t-19.5 19.5t-16 10.5q-7 -4 -14 -4t-20 3q-6 0 -14 4q-11 -5 -23 -18q-20 -21 -32 -53t-12 -64zM250 489q-20 -23 -47 -36.5t-51 -13.5q-25 0 -50.5 7.5t-47 22.5t-36 37.5t-17.5 51.5q-1 5 -1 14q0 36 16 76.5
t42 69.5q35 40 75 40q7 0 12.5 -1t10.5 -3h12q13 0 32.5 -10.5t38.5 -30t33.5 -47t17.5 -61.5q1 -5 1 -15q0 -27 -10.5 -53t-30.5 -48zM522 735q17 -9 17 -26q0 -5 -3 -11q-12 -27 -35.5 -72.5t-50.5 -94t-53.5 -93t-43.5 -71.5q-12 -18 -31 -51.5t-40.5 -73.5t-44 -82
t-41 -76t-30 -56t-11.5 -23q-8 -15 -25 -15q-7 0 -13 3q-8 4 -11.5 10.5t-3.5 14.5q0 7 3 13q1 3 13.5 26t30.5 57.5t40.5 76t44.5 81.5t41 73t31 52t28 45.5t33.5 57t35.5 62.5t33.5 61.5t28.5 54.5t20 42q8 17 26 17q3 0 11 -2z" />
    <glyph glyph-name="ampersand" unicode="&#x26;" horiz-adv-x="635" 
d="M403 69q26 16 48 34t40 35q-17 27 -42 65.5t-52 77.5t-52.5 73.5t-41.5 52.5l-22 25q-3 3 -5.5 6.5t-5.5 6.5q-44 -41 -84 -83.5t-61 -93.5q-8 -20 -13 -39t-5 -45q0 -18 3 -40q9 -88 63 -115q13 -7 28.5 -9.5t32.5 -2.5q42 0 86.5 15t82.5 37zM207 693q-3 -6 -3 -15
q0 -15 6.5 -33t17 -38t24 -40.5t26.5 -38.5q39 36 65.5 70.5t26.5 74.5q-2 14 -12 23.5t-20 14.5q-26 13 -54 13h-11q-19 -2 -39.5 -9t-26.5 -22zM561 131q9 -14 21 -31.5t28 -40.5q5 -8 5 -16q0 -14 -12 -23q-8 -5 -16 -5q-16 0 -23 12q-13 19 -23.5 34t-19.5 28
q-19 -17 -41 -34.5t-48 -33.5q-41 -24 -93.5 -42t-105.5 -18q-23 0 -44 4t-41 14q-82 41 -94 159q-3 25 -3 46q0 32 5.5 56t16.5 50q25 60 70.5 108.5t92.5 91.5q-41 56 -64.5 103t-23.5 85q0 22 7 37q23 55 113 64q5 1 16 1q42 0 80 -19q56 -30 61 -82q1 -4 1 -7.5v-6.5
q0 -26 -9 -49.5t-24.5 -46t-36.5 -44t-44 -42.5q3 -5 6 -8.5t6 -7.5l21 -23q17 -20 41.5 -52.5t51 -70t51 -75t41.5 -65.5q14 16 20.5 26t7.5 11q8 13 23 13q8 0 15 -5q13 -7 13 -23q0 -10 -4 -15q-1 -2 -12.5 -18t-31.5 -39z" />
    <glyph glyph-name="quotesingle" unicode="'" horiz-adv-x="147" 
d="M84 660q2 -13 2.5 -26t2.5 -27l2 -29q0 -11 -7.5 -19.5t-20.5 -8.5q-11 -1 -19 6.5t-9 18.5l-2 28q-2 13 -2.5 25.5t-2.5 25.5q-1 8 -1 16v16v16v12v10t-1 12q0 10 7 18t21 10q22 0 27 -22q2 -7 2 -13.5v-14.5v-13v-15v-13t1 -13z" />
    <glyph glyph-name="parenleft" unicode="(" horiz-adv-x="338" 
d="M301 19q22 -5 20 -34q-5 -21 -34 -20q-41 11 -85.5 39.5t-81.5 75.5t-60.5 112.5t-23.5 150.5q0 26 2.5 52.5t7.5 55.5q6 34 12.5 59.5t14 44.5t16 34t19.5 29q1 1 9 11.5t21 25.5t29.5 32.5t35.5 33.5t38.5 28t38.5 17q9 0 17 -6.5t11 -21.5q0 -9 -5.5 -16.5
t-15.5 -10.5q-13 -3 -30.5 -17t-36.5 -32.5t-36.5 -39t-30.5 -37.5q-9 -12 -16 -24t-13.5 -28.5t-12 -38.5t-10.5 -53q-9 -53 -9 -98q0 -81 23.5 -139.5t57 -97.5t69 -60t59.5 -27z" />
    <glyph glyph-name="parenright" unicode=")" horiz-adv-x="341" 
d="M178 646q12 -12 23 -26t21 -32t20.5 -42t21.5 -57q17 -50 24 -95t7 -87q0 -68 -17.5 -124.5t-45.5 -99.5t-62.5 -73t-68.5 -45q-6 -3 -12 -3q-17 0 -25 16q-3 6 -3 12q0 19 17 25q20 9 47.5 31.5t53 58.5t43.5 86.5t18 115.5q0 37 -7 77.5t-22 87.5q-10 30 -19 50.5
t-17.5 36t-17.5 26.5t-19 21q-15 15 -35 32.5t-41 33.5t-40.5 26.5t-32.5 12.5q-11 1 -18 9t-7 21q3 25 31 25q26 -3 57 -21t58.5 -39.5t46.5 -39.5t21 -20z" />
    <glyph glyph-name="asterisk" unicode="*" horiz-adv-x="462" 
d="M274 525q67 -45 102 -77t37 -34q8 -8 8 -20q0 -10 -8 -20q-10 -8 -20 -8q-11 0 -20 9q-12 12 -29 26q-14 12 -35 28.5t-47 35.5q-1 -75 -7.5 -118.5t-7.5 -45.5q-2 -10 -10.5 -16t-22.5 -5q-10 2 -16 10.5t-5 22.5q3 20 6 46q2 22 3.5 52.5t-0.5 68.5q-65 -42 -99 -73.5
t-35 -31.5q-8 -9 -20 -9q-11 0 -19 8q-9 9 -9 20q0 10 8 20q2 2 37.5 34t102.5 77q-26 15 -49.5 27.5t-41.5 22t-29 15.5l-12 5q-16 8 -16 26q0 6 3 12q8 16 25 16q7 0 13 -3q1 -1 13.5 -7t32 -16.5t44.5 -24t52 -28.5q-2 29 -5 55t-5 46.5t-4 33t-2 14.5q0 11 7 18.5
t21 9.5q11 0 18.5 -6.5t9.5 -17.5q0 -1 2 -13t4 -31t4.5 -44.5t4.5 -53.5q24 13 46 25t38.5 20.5t27 13.5t11.5 6q6 3 12 3q19 0 25 -16q3 -6 3 -12q0 -18 -16 -26l-11 -5q-12 -6 -30 -15.5t-41.5 -22t-48.5 -27.5z" />
    <glyph glyph-name="plus" unicode="+" horiz-adv-x="489" 
d="M456 352q22 -5 22 -33q-5 -22 -33 -22q-1 0 -46.5 7.5t-123.5 6.5l-11 -1q1 -34 4 -67t6 -59t5.5 -42.5t2.5 -18.5q0 -11 -7 -18.5t-21 -9.5q-11 0 -18.5 6.5t-9.5 17.5q0 2 -2.5 18.5t-5.5 43t-6 59.5t-4 68q-32 -2 -62 -4.5t-53 -5t-38 -4.5t-17 -2q-23 0 -28 28
q0 11 6.5 18.5t17.5 9.5q2 0 17 2t39 4.5t54 5.5t63 5q0 80 7 127t8 49q3 22 33 22q10 -2 16 -10.5t5 -22.5q0 -1 -6 -45t-7 -119l12 1q82 1 130.5 -6.5t50.5 -8.5z" />
    <glyph glyph-name="comma" unicode="," horiz-adv-x="126" 
d="M93 121q22 -3 22 -33q-5 -22 -9.5 -62t-8.5 -92q-1 -11 -9.5 -18.5t-20.5 -6.5q-11 0 -18.5 8.5t-7.5 21.5q1 15 3 36t4.5 43.5t5.5 43.5t6 37q5 23 33 22z" />
    <glyph glyph-name="hyphen" unicode="-" horiz-adv-x="402" 
d="M355 352q17 -5 16 -33q-3 -22 -25 -22q-16 3 -35 7q-17 2 -40 4.5t-52 2.5t-60 -3t-56.5 -6.5t-43 -6.5t-18.5 -3q-8 0 -13.5 7t-7.5 21q0 11 5 18.5t13 9.5q2 0 19 3t43 6.5t57.5 6.5t61.5 3q62 0 98 -7t38 -8z" />
    <glyph glyph-name="period" unicode="." horiz-adv-x="130" 
d="M80 55q17 0 28.5 -11.5t11.5 -28.5t-11.5 -28t-28.5 -11q-16 0 -27.5 11t-11.5 28t11.5 28.5t27.5 11.5z" />
    <glyph glyph-name="slash" unicode="/" horiz-adv-x="309" 
d="M186 397q-6 -19 -16 -54t-20.5 -76.5t-21.5 -84.5t-19.5 -78.5t-14 -58t-5.5 -23.5q-2 -11 -13 -20t-25 -11q-11 0 -16.5 7t-3.5 18q1 3 6.5 27t14.5 59.5t19.5 78.5t21.5 84.5t20.5 76.5t16.5 55q11 31 25 78t27 95.5t23 92.5t14 69q2 11 11.5 21t21.5 12
q13 2 20.5 -4.5t5.5 -17.5q-4 -27 -15 -74t-25 -97.5t-28 -98t-24 -76.5z" />
    <glyph glyph-name="zero" unicode="0" horiz-adv-x="584" 
d="M420 124q33 47 50 104t17 118q0 20 -1.5 39t-5.5 38q-14 70 -39.5 122.5t-53.5 88t-53 54t-37 20.5q-4 -11 -13 -16q-7 -4 -14 -4q-6 0 -12 2t-14 5q-4 -2 -12 -2q-14 0 -21 10q-17 -11 -32 -33q-19 -26 -34 -63.5t-25.5 -81t-16.5 -89.5t-6 -90q0 -25 1.5 -48t6.5 -44
q10 -56 34 -94t53.5 -61.5t62 -33.5t60.5 -10h11.5t11.5 2q14 2 36 17.5t46 49.5zM292 765q25 0 60 -22t70.5 -64.5t66.5 -104t46 -140.5q8 -46 8 -88q0 -69 -19.5 -134.5t-57.5 -119.5q-27 -38 -58.5 -62t-61.5 -29q-8 -2 -16.5 -2h-17.5q-41 0 -83 15t-78 45.5t-62.5 76
t-38.5 107.5q-9 46 -9 102q0 48 6.5 99t18.5 98.5t29 88.5t38 71q37 54 85 62q3 1 6.5 1h6.5q17 0 29 -6q6 2 12 3t13 2z" />
    <glyph glyph-name="one" unicode="1" horiz-adv-x="329" 
d="M215 389q0 -19 2.5 -54t6 -76.5t7.5 -85t8 -79t6.5 -59t2.5 -24.5q0 -11 -7.5 -18.5t-20.5 -9.5q-11 0 -19 7t-9 18q-1 3 -3.5 27t-6 60t-7.5 79t-7.5 84t-6 76t-2.5 55q0 27 -2 67t-5 83t-7.5 85t-8.5 72q-20 -14 -38.5 -27t-32 -23t-21.5 -16l-9 -7q-7 -7 -17 -7
q-13 0 -21 10q-7 7 -7 18q0 12 8 20q1 1 13 10.5t30.5 23t41.5 30t47 31.5q7 4 15 4t16 -5q9 -1 16 -7t9 -15q6 -28 11 -74.5t9 -97.5t6.5 -98.5t2.5 -76.5z" />
    <glyph glyph-name="two" unicode="2" horiz-adv-x="571" 
d="M528 34q22 -5 22 -34q-2 -10 -11 -16t-23 -5q-20 3 -46 7q-22 3 -53.5 5.5t-69.5 3.5h-14q-38 0 -77 -2.5t-70.5 -5.5t-52.5 -5.5t-23 -2.5q-3 0 -6.5 0.5t-13.5 0.5q-12 0 -20 8.5t-8 19.5q1 84 23.5 142t70.5 106q29 29 64 52.5t70 46.5q31 19 60 38.5t51 40.5
t35.5 44.5t13.5 50.5q0 30 -3 56.5t-14 49.5t-33 41t-61 32q-22 8 -38.5 11.5t-31.5 3.5q-21 0 -44 -6t-58 -17q-25 -8 -42 -24.5t-28 -33.5q-13 -20 -22 -43q-7 -20 -35 -19q-9 3 -14.5 11.5t-3.5 23.5q0 2 7 20t22.5 40.5t40.5 45t61 33.5q35 11 62 17.5t54 6.5
q19 0 40.5 -4t48.5 -13q55 -19 85.5 -48.5t44 -61.5t16 -64.5t2.5 -57.5q0 -39 -16 -70t-42.5 -57.5t-60 -49t-67.5 -44.5l-66 -44t-59 -48q-36 -35 -54 -77t-22 -102q13 1 36 3.5t52 5t61.5 4t65.5 1.5h14q82 -2 130 -9.5t50 -7.5z" />
    <glyph glyph-name="three" unicode="3" horiz-adv-x="577" 
d="M304 495q32 -5 58.5 -15.5t48.5 -24t39.5 -28.5t30.5 -30q40 -44 57.5 -91t17.5 -79v-12l-2 -15q-3 -26 -8 -55.5t-22 -57.5t-49.5 -52.5t-89.5 -40.5q-29 -8 -52.5 -11.5t-43.5 -3.5q-31 0 -61.5 7t-72.5 18q-39 10 -66.5 32t-44.5 45t-25 42.5t-9 24.5q0 9 6 16t22 12
q9 0 16.5 -5t10.5 -14q9 -23 24 -42q13 -17 33.5 -33.5t49.5 -24.5q39 -11 65 -16.5t52 -5.5q33 0 81 13q43 12 67.5 29t37 37.5t16.5 44t7 47.5l2 21q0 22 -14 59t-47 73q-13 15 -30.5 30t-41 27t-52.5 19.5t-65 7.5q-2 0 -5 1t-11 5l-8 7q0 1 -0.5 2.5l-2.5 7.5
q-1 1 -1 2.5t1 8.5q0 1 0.5 2.5t4.5 8.5q14 19 32.5 43t39.5 50q24 29 48 59.5t42 55.5q-21 2 -48.5 3.5t-60.5 1.5q-39 0 -80 -3t-75.5 -6t-57 -6t-24.5 -3q-11 0 -18.5 7t-9.5 21q0 11 6.5 18t17.5 9q2 0 24.5 3t57 6.5t76.5 6.5t83 3q49 0 86.5 -3t60.5 -6q6 5 16 5
q6 0 14 -3q2 -2 4.5 -4t4.5 -5q17 -7 17 -31q-5 -22 -31 -22q-18 -27 -47.5 -65t-61.5 -77q-11 -14 -21 -26.5t-19 -24.5z" />
    <glyph glyph-name="four" unicode="4" horiz-adv-x="550" 
d="M502 333q22 -5 22 -33q-5 -22 -33 -22q-1 0 -10 2t-26 4q3 -43 7.5 -90.5t8.5 -87t7 -66.5t3 -29q0 -11 -7 -18.5t-21 -9.5q-11 0 -18.5 7t-8.5 18q0 3 -3 31.5t-7.5 69.5t-9 89t-8.5 91q-17 1 -36 2t-41 1q-39 0 -80 -3t-75.5 -6.5t-57.5 -6.5t-26 -3q-12 0 -20 8t-8 20
q0 31 -2.5 78t-6.5 96.5t-9 94.5t-10 72q0 22 28 28q10 0 17.5 -6.5t9.5 -16.5q5 -24 9.5 -64t8 -84.5t6.5 -88.5t4 -78q17 2 41 5t52.5 5.5t59 4t59.5 1.5q41 0 73 -3q-1 14 -1 25v19q0 31 -2.5 78t-6.5 96.5t-9 94.5t-10 72q0 10 7 18t21 10q10 0 17.5 -6t9.5 -16
q6 -28 11 -74.5t9 -97.5t6.5 -98.5t2.5 -76.5q0 -8 0.5 -20.5t1.5 -27.5q23 -3 36 -5.5t15 -2.5z" />
    <glyph glyph-name="five" unicode="5" horiz-adv-x="604" 
d="M398 482q43 -12 75.5 -38.5t54.5 -60.5t33.5 -71t11.5 -69v-9t-1 -8l-1 -15q-3 -26 -8 -55.5t-21.5 -57.5t-48.5 -52.5t-87 -40.5q-28 -8 -50.5 -11.5t-42.5 -3.5q-30 0 -59 7t-71 18q-38 10 -64.5 32t-43 45.5t-24.5 42.5t-9 24q0 9 6.5 16.5t21.5 11.5q9 0 16.5 -5
t10.5 -14l6 -13q5 -13 17.5 -29.5t32 -33t47.5 -24.5q38 -11 63.5 -16.5t49.5 -5.5q32 0 78 13q42 12 65.5 29t35.5 37.5t16 44t7 47.5l2 15v10q0 21 -8 49.5t-24.5 55.5t-42 49.5t-59.5 31.5q-24 7 -49.5 10t-51.5 3q-53 0 -99.5 -9.5t-73.5 -20.5q-3 -2 -10 -2h-5t-11 -1
q-11 0 -19 8t-9 19q-2 30 -4.5 64t-5.5 67t-6.5 62.5t-7.5 50.5q0 7 2.5 13.5t7.5 14.5q0 10 6.5 17.5t17.5 9.5q2 0 23.5 3t54.5 6.5t73.5 6.5t79.5 3q78 0 124.5 -7t48.5 -7q10 -2 16 -11t5 -23q-5 -22 -33 -21q-1 0 -44.5 6.5t-116.5 6.5q-30 0 -61.5 -2t-60 -4.5
t-51.5 -5t-36 -4.5q3 -18 6.5 -42t6 -52t5 -58t4.5 -59q32 11 77 19t96 8q29 0 58 -3.5t58 -11.5z" />
    <glyph glyph-name="six" unicode="6" horiz-adv-x="652" 
d="M454 70q53 28 83 72.5t30 101.5q0 12 -1.5 24t-3.5 24q-13 54 -47 93t-89 53q-34 8 -70 8q-39 0 -79.5 -9.5t-73.5 -30t-55 -51t-25 -72.5q-1 -11 -8 -17.5t-15 -8.5q9 -43 27 -81t48 -65q35 -32 80 -50t93 -18q27 0 53.5 6.5t52.5 20.5zM474 480q37 -15 65 -39t46 -53.5
t27 -63.5t9 -68q0 -38 -10 -74.5t-30.5 -69t-50 -58.5t-68.5 -42q-29 -12 -59.5 -17.5t-60.5 -5.5q-63 0 -120.5 23.5t-99.5 72.5q-24 28 -41.5 62t-28.5 71.5t-16 77t-5 78.5q0 54 9 102q8 47 24 88t41.5 73.5t61.5 55.5t84 35q22 5 44 7.5t44 2.5q60 0 113.5 -23.5
t88.5 -78.5q5 -6 5 -15q0 -11 -9.5 -18.5t-20.5 -7.5q-14 0 -23 13q-26 41 -67.5 58.5t-87.5 17.5q-53 0 -101 -20q-38 -15 -64.5 -38.5t-44 -54t-26.5 -66.5t-12 -75q-1 -12 -1.5 -25t-0.5 -27v-16q18 34 46.5 60.5t64 44t75.5 26.5t80 9q32 0 62 -5.5t58 -16.5z" />
    <glyph glyph-name="seven" unicode="7" horiz-adv-x="499" 
d="M420 739q22 -5 22 -37q-5 -29 -17 -74.5t-27 -94t-30 -93t-25 -71.5q-7 -18 -17.5 -51.5t-22.5 -73.5t-23.5 -81.5t-21.5 -75.5t-16 -56t-6 -23q-2 -9 -10.5 -15t-23.5 -5q-9 3 -15 11.5t-5 23.5q1 3 7.5 26t16 57.5t21.5 76t23.5 81t22 73t18.5 52.5q10 26 23 65
t25.5 81t24 83t18.5 70q-21 3 -57.5 6t-84.5 3q-39 0 -80 -3t-75.5 -6t-57.5 -6t-25 -3q-10 0 -18 7t-10 21q0 10 6.5 17.5t17.5 9.5q2 0 25 3t57.5 6.5t76.5 6.5t83 3q81 0 129.5 -7t50.5 -7z" />
    <glyph glyph-name="eight" unicode="8" horiz-adv-x="642" 
d="M550 220q0 16 -9.5 40t-28.5 46.5t-47 40.5t-65 24q-15 2 -30.5 3t-30.5 1q-66 0 -121.5 -22t-87.5 -61q-28 -34 -28 -67q0 -8 1 -12q5 -25 15.5 -50t28 -46.5t41 -37t55.5 -20.5q33 -5 56 -8.5t44 -3.5q22 0 44 4.5t52 13.5q41 13 63 29t32.5 33.5t13 37t2.5 40.5v15z
M122 566q4 -20 12.5 -40.5t22 -38t32.5 -30t45 -16.5q27 -5 46 -7t36 -2q18 0 36 3t42 11q33 11 51 23.5t26.5 26.5t10 29.5t2.5 32.5v12q0 13 -7.5 32t-23 37t-38 32.5t-52.5 19.5q-13 2 -25.5 3t-24.5 1q-54 0 -99 -18t-71 -50q-22 -25 -21 -61zM458 413q35 -14 62.5 -37
t46.5 -50t29 -56t10 -54v-12q-1 -23 -3.5 -49t-17 -52t-44.5 -49.5t-85 -41.5q-34 -11 -60.5 -16t-52.5 -5q-24 0 -50 4t-61 9q-42 7 -73.5 27t-54 47.5t-36.5 60t-20 64.5q-1 5 -1.5 11t-0.5 12q0 52 41 101q36 45 94 71q-25 11 -44.5 28.5t-33.5 38.5t-23 44t-13 46
q-2 5 -2 10v10q0 45 34 87q35 42 92 65.5t124 23.5q14 0 28 -1.5t29 -3.5q40 -6 71 -25.5t52.5 -45.5t33 -54.5t11.5 -53.5v-10q0 -16 -2 -34.5t-10 -37.5t-24 -37.5t-46 -34.5z" />
    <glyph glyph-name="nine" unicode="9" horiz-adv-x="659" 
d="M525 442q1 11 8 17.5t15 8.5q-9 42 -27 79t-48 64q-37 32 -82 50t-93 18q-47 0 -94 -19q-59 -25 -94.5 -72t-35.5 -107q0 -11 1.5 -22.5t3.5 -23.5q13 -54 48 -92t90 -52q17 -5 35 -6.5t38 -1.5q39 0 79.5 9t74 28.5t56 49.5t25.5 72zM189 714q27 10 55.5 14.5t57.5 4.5
q63 0 121.5 -23.5t102.5 -72.5q24 -27 41.5 -60.5t29 -70.5t16.5 -76t5 -78q0 -32 -3 -62t-10 -58q-20 -91 -73 -151t-147 -79q-20 -4 -39 -6t-39 -2q-62 0 -116 23t-91 78q-5 8 -5 15q0 11 9.5 18.5t20.5 7.5q15 0 23 -12q27 -41 69.5 -58.5t89.5 -17.5q27 0 54.5 5.5
t52.5 15.5q37 14 63 37t43.5 53t26.5 65t12 73q1 12 1 24.5v26.5v17q-17 -35 -46 -61t-65 -43.5t-76.5 -26.5t-81.5 -9q-69 0 -129 26q-72 33 -107 93.5t-35 127.5q0 38 11 75t32.5 69t53 57.5t72.5 40.5z" />
    <glyph glyph-name="colon" unicode=":" horiz-adv-x="166" 
d="M91 367q16 0 27.5 -11.5t11.5 -27.5q0 -17 -11.5 -28.5t-27.5 -11.5q-17 0 -28.5 11.5t-11.5 28.5q0 16 11.5 27.5t28.5 11.5zM91 55q16 0 27.5 -11.5t11.5 -28.5t-11.5 -28t-27.5 -11q-17 0 -28.5 11t-11.5 28t11.5 28.5t28.5 11.5z" />
    <glyph glyph-name="semicolon" unicode=";" horiz-adv-x="173" 
d="M103 121q11 -2 17 -10.5t5 -22.5q-5 -22 -9 -62t-9 -92q-1 -11 -9 -18.5t-21 -6.5q-11 0 -18.5 8.5t-7.5 21.5q1 15 3.5 36t4.5 43.5t5 43.5t6 37q2 11 10.5 17t22.5 5zM98 367q17 0 28 -11.5t11 -27.5q0 -17 -11 -28.5t-28 -11.5t-28.5 11.5t-11.5 28.5q0 16 11.5 27.5
t28.5 11.5z" />
    <glyph glyph-name="less" unicode="&#x3c;" horiz-adv-x="469" 
d="M421 536q10 0 17.5 -7t9.5 -21q0 -10 -6 -17.5t-17 -9.5l-12 -2q-12 -3 -33.5 -9t-51.5 -15.5t-66 -23.5q-42 -16 -84 -36t-74 -37q34 -14 78 -34.5t86 -43.5q72 -39 111 -68.5t41 -31.5q9 -8 9 -21q0 -11 -6 -18q-10 -10 -22 -10q-10 0 -18 7q-16 13 -37 28
q-18 13 -44.5 29.5t-60.5 35.5t-71.5 36.5t-69 31t-53 22t-23.5 9.5t-3.5 2.5l-6.5 6.5l-3 10q-1 1 -1 2.5t1 8.5l4 10l2 2t7 6q2 1 22 12t51 27t69 34t76 33q76 29 124 40t50 12h5z" />
    <glyph glyph-name="equal" unicode="=" horiz-adv-x="540" 
d="M482 254q22 -5 21 -33q-3 -22 -33 -22q-20 3 -46 7q-22 2 -53.5 4.5t-69.5 2.5q-39 0 -80 -3t-75.5 -6.5t-57 -6.5t-24.5 -3q-11 0 -18.5 7t-9.5 21q0 11 6.5 18.5t17.5 9.5q2 0 24.5 3t57 6.5t76.5 6.5t83 3q82 0 130.5 -7t50.5 -8zM482 442q22 -5 21 -33
q-3 -22 -33 -22q-20 3 -46 7q-22 2 -53.5 4.5t-69.5 2.5q-39 0 -80 -3t-75.5 -6.5t-57 -6.5t-24.5 -3q-11 0 -18.5 7t-9.5 21q0 11 6.5 18.5t17.5 9.5q2 0 24.5 3t57 6.5t76.5 6.5t83 3q82 0 130.5 -7t50.5 -8z" />
    <glyph glyph-name="greater" unicode="&#x3e;" horiz-adv-x="469" 
d="M43 536q1 0 14 -3t36 -9t54.5 -15.5t69.5 -24.5q37 -15 75.5 -33t69 -34t50.5 -27t22 -12l8 -6l5 -9l1 -11l-3 -11q-5 -7 -6.5 -8.5t-3.5 -2.5t-23.5 -9.5t-53.5 -22t-69.5 -31t-71.5 -36.5q-68 -37 -104.5 -65t-37.5 -28q-7 -7 -18 -7t-21 10q-7 7 -7 18q0 13 10 21
q2 2 40.5 31.5t110.5 68.5q42 23 86.5 43.5t78.5 34.5q-32 17 -74.5 37t-84.5 36q-36 14 -65.5 23.5t-51 15.5t-33.5 9l-12 2q-11 2 -17.5 9.5t-6.5 17.5q2 14 10 21t18 7h5z" />
    <glyph glyph-name="question" unicode="?" horiz-adv-x="506" 
d="M263 73q16 0 27 -11t13 -29q0 -15 -11 -26.5t-29 -12.5q-15 0 -26.5 11t-12.5 28q0 16 10.5 27t25.5 13h3zM302 743q56 -15 88 -42t48 -58.5t20.5 -63t6.5 -55.5v-12q0 -26 -7.5 -47.5t-19.5 -40t-27 -34.5l-30 -32q-18 -18 -35.5 -37.5t-31.5 -42.5t-22.5 -51.5
t-8.5 -65.5q0 -5 0.5 -11t0.5 -14q0 -11 -7.5 -19t-20.5 -9q-11 0 -19 7.5t-9 18.5q0 7 -0.5 13.5t-0.5 13.5q0 46 10.5 81.5t27 63.5t37 50t39.5 41q14 14 26.5 27.5t21.5 28t14.5 31t5.5 36.5q-2 28 -7 54.5t-17.5 48.5t-35 39t-61.5 27q-35 9 -57 9q-23 0 -46 -7.5
t-60 -23.5q-23 -9 -38.5 -27t-24.5 -36t-13 -31l-4 -14q-5 -22 -33 -22q-22 5 -22 34q0 1 5.5 19.5t18.5 42.5t35 48.5t56 38.5q38 16 66 25t59 9q16 0 33.5 -2.5t38.5 -8.5z" />
    <glyph glyph-name="at" unicode="@" horiz-adv-x="661" 
d="M419 377q2 17 2.5 40t0.5 45v20.5t-2 17.5q-11 0 -36.5 -8t-53 -26t-51 -48t-30.5 -73q-6 -36 -6 -59t4 -36t9 -19q4 -5 12.5 -9t28.5 -4q11 0 28 12.5t34.5 34t34 50.5t25.5 62zM399 706q107 0 173 -64q34 -35 51.5 -83.5t17.5 -113.5q-1 -66 -12.5 -116t-30 -84
t-42.5 -51.5t-49 -20.5q-23 0 -46.5 19t-34.5 69q-28 -44 -62.5 -71.5t-66.5 -27.5q-56 0 -83 33q-27 31 -27 92q0 32 7 67q9 54 38 92.5t63.5 62.5t69 35.5t55.5 11.5q5 0 9.5 -0.5t9.5 -1.5q2 1 4.5 1t6.5 1q11 0 18 -7t9 -18q14 -17 20 -41q0 -12 -8 -20q0 -14 -1.5 -32
t-6.5 -43q-2 -8 -3.5 -15.5t-4.5 -19.5q0 -4 -0.5 -8.5t-0.5 -9.5q0 -15 3 -34t8 -43q3 -13 9 -24.5t16 -11.5q10 1 23 14.5t25 40t20.5 67.5t8.5 97q0 103 -53 154q-29 29 -66.5 38.5t-70.5 9.5q-42 -1 -93.5 -28t-98 -76t-81.5 -117t-44 -151q-1 -10 -1.5 -19t-0.5 -18
q0 -82 42 -125q29 -30 71.5 -40.5t82.5 -10.5q8 0 14.5 0.5t13.5 0.5q22 1 47 12t48.5 24.5t42 27.5t28.5 23q7 6 18 6q13 0 21 -9q7 -8 7 -19q0 -12 -10 -21q-2 -2 -20.5 -16.5t-47 -32.5t-63 -33.5t-68.5 -17.5q-8 0 -15.5 -0.5t-15.5 -0.5q-128 0 -194 69q-58 60 -58 163
q0 20 3 43q10 95 50 172.5t95 133t115.5 85.5t110.5 31h5z" />
    <glyph glyph-name="A" unicode="A" horiz-adv-x="660" 
d="M306 341q54 0 93 -3.5t62 -6.5q-5 14 -8.5 25t-6.5 19q-6 24 -17 58.5t-24.5 73t-27.5 77t-27 70.5q-15 -32 -31.5 -70.5t-32 -77t-29 -73.5t-21.5 -59q-2 -8 -5.5 -16.5t-7.5 -19.5q40 3 83 3zM500 390q5 -19 17.5 -54t27.5 -76.5t31.5 -84.5t29.5 -78.5t22 -58t9 -23.5
q2 -4 2 -10q0 -19 -18 -26q-3 -2 -10 -2q-8 0 -15.5 4.5t-10.5 13.5q-1 3 -12 30.5t-26.5 67.5t-34.5 87.5t-37 90.5q-20 3 -46 7q-22 2 -53.5 4.5t-69.5 2.5q-26 0 -53.5 -1.5t-53.5 -3.5q-18 -43 -39 -92t-40 -91t-32 -71.5t-14 -32.5q-8 -16 -26 -16q-7 0 -11 2
q-17 8 -17 26q0 5 3 11q0 1 11 25.5t27.5 62t36.5 83t38 87.5q-28 -3 -46 -5.5t-21 -2.5q-11 0 -18.5 7t-9.5 21q0 11 6.5 18.5t17.5 9.5q2 0 28.5 3.5t66.5 7.5q8 18 13.5 33t9.5 26q9 27 26.5 71.5t37.5 93t40.5 94t35.5 75.5q2 16 16 23q4 2 13 2q8 0 14 -3q13 -7 15 -23
q13 -30 30.5 -76t35 -94.5t31.5 -93t22 -71.5z" />
    <glyph glyph-name="B" unicode="B" horiz-adv-x="616" 
d="M519 208q0 17 -8.5 39.5t-28.5 44.5q-11 11 -26 22t-35.5 20.5t-47.5 16t-61 7.5q-16 -1 -32.5 -1.5t-33.5 -0.5q-20 0 -40 0.5t-40 1.5h-38q2 -34 6 -80t8.5 -92.5t8.5 -86t6 -60.5q33 1 70.5 2.5t71.5 3.5t61 5t39 6q40 12 63 26t34.5 30.5t15 35.5t6.5 42l1 11v7z
M361 682q-48 13 -82.5 18t-62.5 5q-29 0 -55 -4.5t-55 -11.5q4 -31 7.5 -68.5t6 -75t4.5 -72t2 -59.5h42q19 -1 38 -1.5t39 -0.5h13t18 2q5 0 9.5 0.5t9.5 0.5q4 0 7.5 -0.5t8.5 -0.5q16 2 30.5 3.5t25.5 5.5q30 8 47 19.5t26 26t12 30.5t5 34l1 18q0 15 -5.5 35t-17.5 39
t-30.5 34.5t-43.5 22.5zM434 390q31 -13 52.5 -28.5t36.5 -31.5q29 -32 40.5 -64.5t11.5 -58.5v-12l-2 -11q-2 -24 -7 -49.5t-21 -50t-46.5 -46t-84.5 -36.5q-13 -4 -37.5 -6.5t-54 -5t-61 -4t-58.5 -2t-46.5 -1t-25.5 -0.5q-11 0 -19.5 8.5t-8.5 24.5q0 3 -2.5 24.5
t-5.5 54t-7 72.5t-7.5 80.5t-6.5 77t-4 62.5v10q0 25 -2 62t-4.5 77.5t-6 80t-7.5 71.5q-3 2 -5 6.5t-4 13.5q0 9 4 14q-2 5 -3 15q0 10 7 18t21 10q22 0 27 -21q30 8 58 12.5t60 4.5q31 0 69.5 -5.5t90.5 -19.5q34 -9 60 -30t43.5 -47t26.5 -54.5t9 -53.5v-6.5t-1 -6.5
l-1 -10q-2 -16 -4.5 -34t-10.5 -36.5t-23 -36t-40 -31.5z" />
    <glyph glyph-name="C" unicode="C" horiz-adv-x="590" 
d="M537 118q8 8 20 8t19 -7q9 -9 9 -21q0 -11 -8 -19q-1 -1 -15.5 -14t-40 -28t-61.5 -27.5t-81 -12.5q-53 0 -113.5 20.5t-113 66.5t-87 119.5t-34.5 180.5q0 33 2 57.5t6.5 44t11 35.5t15.5 31q1 2 14.5 24.5t33.5 51.5t45.5 56.5t50.5 39.5q29 13 58 19t55 6q28 0 49 -6
q10 -2 26 -7.5t32.5 -12.5t30.5 -15t20 -15q8 -11 10.5 -26.5t2.5 -29.5q0 -11 -8 -19.5t-20 -8.5q-11 0 -19.5 8.5t-8.5 19.5v11t-1 10q-10 5 -33.5 15.5t-44.5 15.5q-8 2 -16.5 3t-18.5 1q-21 0 -44.5 -4.5t-44.5 -15.5q-14 -6 -30.5 -23t-33 -38.5t-31.5 -44.5t-25 -42
q-7 -13 -12.5 -26t-9 -29t-5 -37t-1.5 -49q0 -68 16 -118.5t41.5 -87.5t58 -61t65 -38.5t62 -20t49.5 -5.5q36 0 65 10t49.5 22t32.5 23z" />
    <glyph glyph-name="D" unicode="D" horiz-adv-x="676" 
d="M389 42q56 16 91 52.5t55 84.5t27 101.5t7 103.5q0 66 -22.5 117.5t-55.5 89t-71 60.5t-69 31q-48 13 -82.5 18t-63.5 5t-54.5 -4.5t-54.5 -11.5q4 -34 7.5 -75.5t6.5 -82t4.5 -76t1.5 -58.5q0 -17 2 -45.5t4.5 -63.5t6 -72.5t7 -72t6.5 -62.5t5 -43q29 -2 61.5 -2.5
t64.5 -0.5q40 0 71 1.5t45 5.5zM365 736q39 -11 84.5 -38t84.5 -70.5t65 -104.5t26 -139q0 -103 -20.5 -174t-52.5 -116.5t-71 -70t-77 -35.5q-18 -5 -54.5 -7t-77.5 -2q-26 0 -51.5 0.5t-46.5 1t-35.5 1.5t-19.5 1q-11 0 -18.5 9t-7.5 24q-1 3 -3.5 27t-6 59.5t-7.5 78.5
t-7.5 84.5t-6 76.5t-2.5 55q0 25 -1.5 62t-4.5 77.5t-7 80t-8 71.5q-2 2 -4 6.5t-4 13.5q0 8 3 14q0 2 -0.5 5.5t-1.5 9.5q0 10 7 18t21 10q22 0 27 -21q30 8 57.5 12.5t60.5 4.5q31 0 69.5 -5.5t90.5 -19.5z" />
    <glyph glyph-name="E" unicode="E" horiz-adv-x="589" 
d="M567 51q22 -5 22 -33q-2 -11 -10.5 -17t-22.5 -5q-1 0 -46.5 6.5t-123.5 6.5q-39 0 -80 -3t-75.5 -6t-57 -6t-24.5 -3h-19q-11 0 -19 7t-9 18q-1 3 -3.5 27t-6 59.5t-7.5 78.5t-7.5 84.5t-6 76.5t-2.5 55q0 30 -2.5 77t-6.5 96.5t-9 94.5t-10 72q0 10 7 18t21 10
q22 0 27 -21q7 10 19 12q2 0 24.5 3t57 6.5t76.5 6.5t83 3q82 0 130.5 -7t50.5 -8q22 -5 22 -33q-5 -22 -34 -22q-20 3 -46 7q-22 2 -53.5 4.5t-69.5 2.5q-39 0 -80 -3t-75.5 -6.5t-57 -6.5t-24.5 -3q-9 0 -17 5q5 -33 9 -76t7 -86t5 -81.5t2 -63.5q9 1 29 3.5t47.5 5
t60.5 4.5t68 4q11 0 19.5 -8t8.5 -20q0 -11 -8 -19.5t-19 -8.5q-36 -2 -71.5 -4.5t-63.5 -5t-47 -5t-22 -2.5q2 -34 6 -75.5l8 -83t7.5 -77.5t6.5 -58q12 1 36.5 4t56.5 6t67.5 5t70.5 2q82 0 130.5 -7t50.5 -7z" />
    <glyph glyph-name="F" unicode="F" horiz-adv-x="482" 
d="M325 415q11 0 19 -8t9 -20q0 -11 -8 -19.5t-19 -8.5q-36 -2 -71.5 -4.5t-63.5 -5t-47 -5t-22 -2.5q2 -28 5 -62.5t6.5 -70t7 -69.5t6 -60.5t4.5 -43t2 -17.5q0 -11 -7.5 -19t-21.5 -9q-11 0 -18.5 7t-8.5 18q-1 3 -3.5 27t-6 59.5t-7.5 78.5t-7.5 84.5t-6 76.5t-2.5 55
q0 30 -2.5 77t-6.5 96.5t-9 94.5t-10 72q0 10 7 18t21 10q22 0 27 -21q7 10 19 12q2 0 24.5 3t57 6.5t76.5 6.5t83 3q82 0 130.5 -7t50.5 -8q22 -5 21 -33q-3 -22 -33 -22q-20 3 -46 7q-22 2 -53.5 4.5t-69.5 2.5q-39 0 -80 -3t-75.5 -6.5t-57 -6.5t-24.5 -3q-9 0 -17 5
q5 -33 9 -76t7 -86t5 -81.5t2 -63.5q9 1 29 3.5t47.5 5t60.5 4.5t67 4h1z" />
    <glyph glyph-name="G" unicode="G" horiz-adv-x="665" 
d="M579 380q22 0 27 -23q6 -27 11 -74t9 -97.5t6.5 -98t2.5 -76.5q0 -11 -8.5 -19.5t-19.5 -8.5q-12 0 -20 8.5t-8 19.5t-0.5 24.5t-1.5 28.5q-11 -9 -29 -20.5t-42 -22t-54 -17.5t-64 -7q-36 0 -77 9t-81.5 28.5t-77 49.5t-65 73t-45 99.5t-16.5 127.5q0 33 2 57.5t6.5 44
t11.5 35.5t16 31q1 2 15 25t35.5 51.5t48 56t52.5 39.5q29 13 59.5 18.5t57.5 5.5q28 0 50 -5q10 -2 27 -7.5t34 -12.5t32 -15t21 -15q6 -8 6 -18q0 -14 -10 -21q-7 -7 -18 -7t-20 9q-3 2 -12.5 6.5t-21.5 9.5t-25.5 9.5t-25.5 7.5q-8 2 -17 3t-20 1q-22 0 -46.5 -4.5
t-47.5 -15.5q-14 -6 -31 -23t-34.5 -38.5t-33 -45t-26.5 -42.5q-8 -12 -13 -25t-9 -29t-5.5 -37t-1.5 -49q0 -68 17 -118.5t43.5 -87.5t60.5 -61t68 -38.5t65 -20t52 -5.5q38 0 68.5 10t52.5 22t34 23l11 10q8 8 20 8q-3 51 -8 103.5t-10 88.5q-38 -2 -74 -4.5t-64.5 -5.5
t-47 -5t-19.5 -2q-11 0 -18.5 7t-9.5 21q0 11 6.5 18.5t17.5 9.5q1 0 19.5 2t48.5 5t68 5.5t79 4.5q3 3 11 5z" />
    <glyph glyph-name="H" unicode="H" horiz-adv-x="636" 
d="M552 397q0 -19 2.5 -54t6 -76.5t7.5 -85t7.5 -79t6 -59t2.5 -24.5q0 -11 -7 -19t-21 -9q-11 0 -18.5 7t-8.5 18q0 3 -2.5 22.5t-5.5 49t-7 66.5t-7.5 75t-6.5 73t-4 62q-1 0 -46.5 7t-123.5 7q-29 0 -59.5 -2t-58.5 -4.5t-52 -5t-40 -4.5q1 -26 4 -61.5t6.5 -73.5
t7 -74.5t6.5 -66t5 -48t2 -19.5q0 -11 -7 -19t-21 -9q-11 0 -18.5 7t-8.5 18q-1 3 -3.5 27t-6 59.5t-7.5 78.5t-7.5 84.5t-6 76.5t-2.5 55q0 30 -2.5 77t-6.5 96.5t-9 94.5t-10 72q0 10 7 18t21 10q10 0 17.5 -6t9.5 -16q5 -26 10 -67.5t8.5 -88t6 -91.5t3.5 -77
q17 2 41 4.5t52.5 5t59 4t59.5 1.5q64 0 107.5 -5t61.5 -8q-1 34 -3.5 78.5t-6.5 89t-8.5 84.5t-8.5 64q0 10 7 18t21 10q10 0 17.5 -6t9.5 -16q6 -28 11 -74.5t9 -97.5t6.5 -98.5t2.5 -75.5z" />
    <glyph glyph-name="I" unicode="I" horiz-adv-x="240" 
d="M135 397q0 -19 2.5 -54t6 -76.5t7.5 -85t8 -79t6.5 -59t2.5 -24.5q0 -11 -7.5 -19t-20.5 -9q-11 0 -18.5 7t-9.5 18q0 3 -2.5 27t-6.5 59.5t-8 78.5t-7.5 84.5t-6 76.5t-2.5 55q0 30 -2.5 77t-6.5 96.5t-9 94.5t-10 72q0 10 7 18t21 10q10 0 18 -6t10 -16q5 -28 10 -74.5
t9 -97.5t6.5 -98.5t2.5 -75.5z" />
    <glyph glyph-name="J" unicode="J" horiz-adv-x="564" 
d="M469 753q5 -28 9.5 -76t8 -100t6 -100.5t2.5 -78.5q0 -6 1 -36t1 -70q0 -38 -2 -77.5t-10 -68.5q-13 -55 -39 -87t-57 -48.5t-64 -22t-60 -8.5q-4 0 -7 -0.5t-7 -0.5q-31 0 -71.5 14.5t-78.5 50.5q-15 14 -30.5 34t-27.5 47.5t-20 62t-8 78.5q0 5 0.5 10.5t0.5 10.5
q1 11 9 19t20 8q11 -1 19 -9t8 -21q0 -5 -0.5 -9t-0.5 -9q0 -36 6.5 -65t16 -51t21.5 -38.5t24 -27.5q28 -26 59 -37.5t61 -10.5q27 3 53.5 7t49.5 16.5t41 35.5t28 64q6 26 8.5 63t2.5 72q0 41 -1.5 71t-1.5 32q-1 32 -3.5 80.5t-6 99.5t-7.5 97.5t-9 74.5q0 10 7.5 18
t21.5 10q10 0 17.5 -6.5t9.5 -17.5z" />
    <glyph glyph-name="K" unicode="K" horiz-adv-x="672" 
d="M461 316q9 -15 29 -41.5t43.5 -57t49 -62.5t46 -58.5t34 -43t13.5 -17.5q7 -7 7 -17q0 -14 -11 -22q-8 -6 -17 -6q-15 0 -22 10q-2 2 -16.5 19.5t-35.5 44t-46 58.5t-48.5 63t-43 57.5t-29.5 42.5q-14 23 -31.5 50.5t-36 54.5t-37 51.5t-35.5 42.5q-29 -33 -54.5 -64
t-45.5 -55.5t-32 -39.5l-12 -16q-4 -5 -10 -8q3 -44 8 -92.5t9 -90.5t7 -70t3 -30q0 -11 -7 -19t-21 -9q-11 0 -18.5 7t-8.5 18q-1 3 -3.5 27t-6 59.5t-7.5 78.5t-7.5 84.5t-6 76.5t-2.5 55q0 30 -2.5 77t-6.5 96.5t-9 94.5t-10 72q0 10 7 18t21 10q10 0 17.5 -6t9.5 -16
q6 -28 11 -74.5t9 -97.5t6.5 -98.5t2.5 -75.5v-16q14 18 34 42.5t42.5 51.5t47.5 55.5t49 54.5q36 39 66.5 69t53 50.5t35.5 31.5t14 12q7 6 18 6q13 0 22 -10q6 -8 6 -18q0 -13 -10 -21q-1 -1 -47 -42t-117 -116q-5 -5 -9 -10t-9 -10q19 -19 39.5 -45.5t40 -55.5
t37.5 -57.5t33 -52.5z" />
    <glyph glyph-name="L" unicode="L" horiz-adv-x="574" 
d="M577 51q11 -2 17 -10.5t5 -22.5q-5 -23 -33 -22q-1 0 -46.5 6.5t-122.5 6.5q-39 0 -80 -3t-75 -6t-56 -6t-23 -3h-3t-10 1q-2 0 -4 -0.5t-6 -0.5q-11 0 -18.5 7t-9.5 18q0 3 -2.5 27t-6.5 59.5t-8 78.5t-7.5 84.5t-6 76.5t-2.5 55q0 30 -2.5 77t-6.5 96.5t-9 94.5t-10 72
q0 10 7 18t21 10q10 0 18 -6t10 -16q5 -28 10 -74.5t9 -97.5t6.5 -98.5t2.5 -75.5q0 -24 3.5 -71t8.5 -99.5t10 -101.5t8 -77q12 1 36.5 4t56.5 6t68 5t71 2q81 0 129.5 -7t50.5 -7z" />
    <glyph glyph-name="M" unicode="M" horiz-adv-x="911" 
d="M807 397q0 -19 2.5 -54t6 -76.5t7.5 -85t7.5 -79t6 -59t2.5 -24.5q0 -11 -7 -19t-21 -9q-11 0 -18.5 7t-9.5 18q0 3 -2.5 27t-6 59.5t-7.5 78.5t-7.5 84.5t-6 76.5t-2.5 55q0 21 -1 51t-3.5 64t-5.5 69t-6 66q-24 -41 -53 -82.5t-52 -74.5q-10 -14 -27 -42t-36.5 -62
t-39 -69.5t-36 -64.5t-27 -48t-10.5 -20q-8 -14 -24 -14q-7 0 -14 3q-14 8 -14 25q0 7 3 13l15 34q-2 2 -16 19.5t-35 44t-46.5 58.5t-49 63t-43 57.5t-29.5 42.5q-17 28 -38.5 62t-44.5 66q4 -33 7 -70.5t5 -73t3.5 -66t1.5 -51.5q0 -19 2.5 -54t6 -76.5t7.5 -85t8 -79
t6.5 -59t2.5 -24.5q0 -11 -7.5 -19t-20.5 -9q-11 0 -18.5 7t-9.5 18q0 3 -2.5 27t-6.5 59.5t-8 78.5t-7.5 84.5t-6 76.5t-2.5 55q0 30 -2.5 77t-6.5 96.5t-9 94.5t-10 72q0 2 0.5 4.5t-0.5 9.5q0 12 8 20q10 8 20 8q12 0 20 -8q19 -19 39 -45.5t39.5 -55t38 -57.5t33.5 -53
q12 -19 39 -55.5t58 -76.5t60.5 -76.5t44.5 -55.5q16 30 35.5 63.5t37.5 65t34 58t26 40.5q16 22 35 49t37 54.5t34 54.5t25 50q2 5 8 11q3 19 28 23q22 0 27 -22q6 -28 11 -74.5t9 -97.5t6.5 -98.5t2.5 -75.5z" />
    <glyph glyph-name="N" unicode="N" horiz-adv-x="696" 
d="M581 397q0 -19 2.5 -54t6 -76.5t7.5 -85t8 -79t6.5 -59t2.5 -24.5q0 -19 -21 -29q-7 -4 -15 -4q-15 0 -24 12l-18 27t-39 59.5t-51.5 78.5t-54.5 84t-48 76t-33 55q-16 28 -41.5 70.5t-54 87.5t-56.5 88t-49 72q4 -33 8 -75t7 -84t4.5 -79t1.5 -61q0 -19 2.5 -54t6 -76.5
t7.5 -85t8 -79t6.5 -59t2.5 -24.5q0 -11 -7.5 -19t-20.5 -9q-11 0 -19 7t-9 18q0 3 -2.5 27t-6.5 59.5t-8 78.5t-7.5 84.5t-6 76.5t-2.5 55q0 30 -2.5 77t-6.5 96.5t-9 94.5t-10 72q0 10 7 18t21 10q8 0 14.5 -3t11.5 -7q8 5 17 5q14 0 23 -11q14 -18 32.5 -45.5t39.5 -59.5
t42.5 -66t41.5 -66t36 -60t27 -47q11 -20 33 -55t49 -77t55.5 -85.5t51.5 -78.5q-4 36 -8 78t-7.5 82t-5.5 74t-2 54q0 30 -2.5 77t-6.5 96.5t-9 94.5t-10 72q0 10 7 18t21 10q10 0 18 -6t10 -16q5 -28 10 -74.5t9 -97.5t6.5 -98.5t2.5 -75.5z" />
    <glyph glyph-name="O" unicode="O" horiz-adv-x="726" 
d="M578 219q14 28 30 73.5t16 102.5q0 44 -13 89q-12 39 -28.5 70.5t-35.5 56t-38.5 42.5t-36.5 30q-37 26 -68.5 36t-52.5 10q-29 -9 -48 -18t-20 -9q-6 -3 -13 -3q-13 0 -20 9q-35 -19 -67 -69t-53 -122q-14 -47 -21 -94t-7 -92q0 -63 14 -111q10 -32 25 -56t33 -40.5
t37.5 -27t36.5 -16.5q46 -17 98 -17q45 0 86 12q31 9 71.5 45t74.5 99zM504 728q20 -14 42.5 -35t44.5 -49t41 -63.5t33 -80.5q15 -51 15 -105q0 -51 -13.5 -102t-39.5 -100q-35 -64 -83 -110.5t-96 -60.5q-50 -15 -102 -15q-60 0 -117 20q-22 8 -46 21.5t-47 34.5
t-42.5 50.5t-31.5 70.5q-16 54 -16 127q0 48 7.5 99.5t22.5 102.5q28 96 73.5 157t99.5 78q15 4 31 4h10t10 -2q13 5 35 12q10 3 24 3q30 0 68.5 -15t76.5 -42z" />
    <glyph glyph-name="P" unicode="P" horiz-adv-x="596" 
d="M510 526q0 17 -6.5 39.5t-20.5 44.5t-35 40t-49 26q-54 14 -93 20t-71 6q-35 0 -64.5 -6t-64.5 -14q4 -34 7.5 -74.5t6 -79.5t4 -74t1.5 -57v-12t1 -15h27.5t27.5 -1q22 -1 43.5 -1h43.5q40 0 75.5 2t61.5 9q34 10 54 23.5t30 29.5t13.5 35t5.5 39l1 12zM413 730
q37 -10 66 -33t48 -52t29 -60.5t10 -58.5q0 -4 -0.5 -7t-0.5 -7l-1 -12q-2 -21 -7 -45.5t-19 -48.5t-42 -45.5t-76 -34.5q-30 -9 -68.5 -11.5t-82.5 -2.5h-44t-45 1q-13 1 -25.5 1h-25.5q3 -44 8 -94.5t9.5 -94.5t8 -74t3.5 -32q0 -11 -7.5 -19t-20.5 -9q-11 0 -19 7t-9 18
q-1 3 -3.5 27t-6 59.5t-7.5 78.5t-7.5 84.5t-6 76.5t-2.5 55q0 25 -1.5 61t-4.5 76t-6.5 79.5t-7.5 71.5q-2 2 -3 5.5t-3 11.5q0 4 2 10q-1 5 -1.5 11t-2.5 14q0 10 7 18t21 10q10 0 18 -7t10 -21q36 9 68 15t69 6q35 0 77.5 -6.5t101.5 -21.5z" />
    <glyph glyph-name="Q" unicode="Q" horiz-adv-x="744" 
d="M427 52q18 5 40.5 20t45.5 40q-23 14 -44 26t-36.5 21t-25.5 14l-10 5q-8 4 -11.5 10.5t-3.5 14.5q0 7 3 13q4 8 10.5 11.5t14.5 3.5q7 0 13 -3q1 -1 11.5 -6.5t28 -15t39.5 -22.5t46 -28q14 19 24 40q15 28 31 73.5t16 102.5q0 21 -3 43t-10 45q-12 39 -28.5 70.5
t-35.5 56t-38.5 42.5t-36.5 31q-37 26 -68.5 36t-52.5 9q-29 -8 -48.5 -17t-19.5 -10q-6 -3 -13 -3q-12 0 -21 9q-35 -18 -66.5 -68t-52.5 -122q-14 -47 -21 -94.5t-7 -92.5q0 -62 14 -110q9 -32 24.5 -56t33.5 -40.5t37.5 -27.5t36.5 -17q23 -8 47.5 -12t50.5 -4
q45 0 86 12zM629 102q67 -48 101.5 -82t36.5 -36q8 -8 8 -19q0 -13 -9 -20q-10 -8 -19 -8q-14 0 -21 9q0 1 -33 33t-96 78l-36 24q-28 -31 -58.5 -52.5t-59.5 -30.5q-51 -14 -102 -14q-30 0 -60 4.5t-57 15.5q-22 8 -46 21.5t-47 34.5t-42.5 50.5t-31.5 70.5q-16 54 -16 127
q0 48 7.5 99t22.5 102q28 97 73 158t100 77q8 3 16 4t15 1q5 0 10 -0.5t10 -1.5q13 5 35 12q10 3 24 3q30 0 68.5 -15t76.5 -42q20 -14 42.5 -35t44.5 -49t41 -64t33 -81q15 -51 15 -104q0 -103 -53 -203q-11 -21 -27 -43q9 -6 17.5 -12t16.5 -12z" />
    <glyph glyph-name="R" unicode="R" horiz-adv-x="665" 
d="M192 369q21 -1 43 -1h43q41 0 76.5 2t60.5 9q35 10 54.5 23.5t29.5 29.5t13.5 35t5.5 39l2 20q0 17 -6.5 39.5t-20.5 44.5t-35 40t-49 26q-54 14 -93 20t-71 6q-35 0 -64.5 -6t-64.5 -14q4 -34 7.5 -74.5t6 -79.5t4 -74t1.5 -57v-12t1 -15h28t28 -1zM533 168
q52 -63 77 -105t26 -44q3 -6 3 -13q0 -8 -3.5 -14.5t-11.5 -10.5q-6 -3 -13 -3q-17 0 -24 15q-1 0 -24.5 40t-72.5 100q-25 30 -53 60t-52 54l-40 40l-17 15q-4 4 -7 10h-41h-45t-45 1q-13 1 -25.5 1h-24.5q3 -44 7.5 -94.5t9 -94.5t8 -74t3.5 -32q0 -11 -7.5 -19t-20.5 -9
q-11 0 -18.5 7t-9.5 18q0 3 -2.5 27t-6.5 59.5t-8 78.5t-7.5 84.5t-6 76.5t-2.5 55q0 25 -1.5 61t-4.5 76t-6.5 79.5t-7.5 71.5q-2 2 -3 5.5t-3 11.5q0 4 2 10q-1 5 -1.5 11t-2.5 14q0 10 7 18t21 10q10 0 18 -7t11 -21q35 9 67 15t70 6q35 0 77 -6.5t101 -21.5
q37 -10 66 -33t48 -52t29 -60.5t10 -58.5q0 -9 -1 -14l-1 -12q-2 -21 -7 -45.5t-19 -48.5t-42 -45.5t-76 -34.5q-8 -3 -17.5 -4.5t-20.5 -3.5q13 -12 30 -29t35.5 -36.5t38 -41t37.5 -43.5z" />
    <glyph glyph-name="S" unicode="S" horiz-adv-x="624" 
d="M369 497q48 -13 86 -42.5t64 -67t40 -78t14 -75.5l-1 -15q-1 -27 -4 -57.5t-18 -60t-47.5 -55t-90.5 -41.5q-29 -9 -52.5 -12.5t-45.5 -3.5q-32 0 -63.5 7t-76.5 19q-41 10 -70 32.5t-48 45t-28 40t-10 19.5q-3 4 -3 11q0 17 17 26q8 2 11 2q8 0 15.5 -4.5t10.5 -12.5
l7 -13q7 -14 22 -31.5t38 -35t55 -26.5q42 -11 69.5 -17t53.5 -6q34 0 83 13q43 13 67 30t35 38t13.5 45t3.5 50l1 18q0 21 -10.5 52t-30.5 61t-50.5 55t-70.5 35q-27 8 -57.5 11t-60.5 6q-35 3 -68.5 7t-60.5 14.5t-44.5 29t-20.5 50.5q0 4 -0.5 7t-0.5 6q0 39 15.5 66.5
t38 46.5t47 31t42.5 20q23 11 55.5 15.5t70.5 4.5q34 0 68.5 -4t67.5 -12q22 -5 21 -33q-2 -10 -11 -16t-23 -5q-29 8 -61.5 11t-62.5 3q-32 0 -58.5 -3.5t-44.5 -11.5q-21 -9 -41 -19.5t-35 -24.5t-23.5 -33t-8.5 -45q2 -26 39.5 -35t102.5 -14q32 -3 64.5 -6.5t63.5 -11.5
z" />
    <glyph glyph-name="T" unicode="T" horiz-adv-x="491" 
d="M553 741q11 -1 18 -9.5t6 -21.5q-1 -11 -9 -17.5t-22 -6.5l-19 2q-20 2 -56 5t-86.5 5t-112.5 2h-15t-15 -1q4 -33 8.5 -76.5t7.5 -87.5t5 -83.5t2 -64.5q0 -19 2.5 -54t6 -76.5t7.5 -85t8 -79t6.5 -59t2.5 -24.5q0 -11 -7.5 -18.5t-20.5 -9.5q-11 0 -19 7t-9 18
q0 3 -3 27t-6.5 59.5t-7.5 78.5t-7.5 84.5t-6 76.5t-2.5 55q0 27 -2 68t-5.5 85t-7.5 86t-8 72q-54 -2 -106 -4.5t-92.5 -5.5t-66 -5t-26.5 -2q-11 -1 -19 7t-9 21q0 11 7 19t18 9q1 0 28 2t71 5t99.5 6t112.5 5q2 0 4 0.5t8 -0.5q14 0 28.5 0.5t28.5 0.5q64 0 115 -2
t87.5 -5t56.5 -5.5t22 -2.5z" />
    <glyph glyph-name="U" unicode="U" horiz-adv-x="675" 
d="M580 733q6 -28 11.5 -74.5t9.5 -97t6.5 -97.5t2.5 -76q0 -6 2 -35.5t2 -67.5q0 -37 -3 -75.5t-12 -67.5q-16 -53 -46 -84t-67 -47t-75.5 -21t-70.5 -8q-5 -1 -8.5 -1h-8.5q-45 0 -98.5 19t-98.5 62q-42 42 -59 97t-19 120l-3 107q-1 31 -3.5 78.5t-6.5 97t-9 94.5t-11 72
q0 22 28 28q10 0 18 -6t10 -17q6 -29 11 -75.5t9 -97t6.5 -97.5t3.5 -76l3 -110v-18q0 -96 62 -157q18 -17 38 -29t41 -20t41 -12t37 -4h12q38 3 71.5 8.5t60.5 18.5t47 35t31 59q8 25 10.5 59.5t2.5 68.5q0 40 -2 69.5t-2 31.5q-1 30 -4 77t-6.5 96.5t-8.5 95t-11 72.5
q0 22 28 28q10 0 18 -6t10 -17z" />
    <glyph glyph-name="V" unicode="V" horiz-adv-x="638" 
d="M623 762q15 -8 15 -25q0 -6 -4 -13q-13 -25 -32 -69t-38.5 -93t-37 -96t-27.5 -78q-7 -20 -20.5 -55t-30.5 -76.5t-34.5 -84t-33 -78t-26 -59.5t-11.5 -27q-6 -15 -22 -17q-6 -6 -10 -8q-8 -2 -11 -2q-8 0 -15.5 4.5t-10.5 12.5q-1 3 -11.5 27t-25.5 59.5t-33 78.5
t-35 84t-30.5 76t-19.5 55q-10 31 -28 78t-37.5 96t-38.5 93.5t-32 69.5q-3 6 -3 13q0 16 15 24q5 4 13 4q16 0 24 -15q15 -28 35 -74.5t40 -97t38 -98t27 -75.5q7 -23 24 -65.5t37 -91t39.5 -96t33.5 -79.5q9 20 21.5 49t26 61.5t28 67t27 65.5t22 57t14.5 41q9 29 27 76
t38 98t40.5 97.5t34.5 73.5q4 8 10.5 11.5t14.5 3.5q5 0 13 -3z" />
    <glyph glyph-name="W" unicode="W" horiz-adv-x="1209" 
d="M1204 762q15 -8 15 -25q0 -6 -3 -13q-13 -25 -32 -69t-39 -93t-37.5 -96t-27.5 -78q-6 -20 -19.5 -55t-30.5 -76.5t-35 -84t-33 -78t-25.5 -59.5t-11.5 -27q-6 -15 -22 -17q-5 -5 -11 -8q-6 -2 -11 -2q-18 0 -26 17q-1 3 -11.5 27t-25.5 59.5t-33 78.5t-34.5 84t-30.5 76
t-20 55q-8 25 -21 61.5t-29 76.5t-32.5 79.5t-30.5 71.5q-14 -32 -30 -70.5t-31 -76.5t-27.5 -73t-20.5 -59q-6 -20 -20 -55t-30.5 -76.5t-34.5 -84t-33 -78t-25.5 -59.5t-11.5 -27q-6 -15 -23 -17q-3 -5 -10 -8q-3 -1 -5.5 -1.5t-5.5 -0.5q-18 0 -26 17q-1 3 -11.5 27
t-25.5 59.5t-33 78.5t-34.5 84t-30.5 76t-20 55q-10 31 -27.5 78t-37 96t-39 93.5t-32.5 69.5q-3 6 -3 13q0 16 15 24q5 4 13 4q17 0 25 -15q14 -28 34 -74.5t40.5 -97t38 -98t26.5 -75.5q7 -23 24 -65.5t37 -91t40 -96t34 -79.5q13 30 33.5 78.5t41.5 99t38.5 95.5t25.5 68
q9 29 26.5 76t37.5 98t40.5 97.5t34.5 73.5q4 8 10.5 11.5t14.5 3.5q7 0 13 -3q15 -8 15 -27q15 -29 34.5 -75.5t39 -95.5t36.5 -94.5t26 -73.5q7 -23 24 -65.5t37 -91t40 -96t34 -79.5q13 30 33.5 78.5t41.5 99t38.5 95.5t25.5 68q9 29 26.5 76t37.5 98t40.5 97.5
t34.5 73.5q4 8 10.5 11.5t14.5 3.5q7 0 13 -3z" />
    <glyph glyph-name="X" unicode="X" horiz-adv-x="611" 
d="M380 346.5q22 -34.5 48 -76t54 -84t51 -77.5t37.5 -57.5t15.5 -23.5q5 -7 5 -15q0 -15 -13 -23q-7 -5 -15 -5q-15 0 -23 13l-16 24t-35 53t-46.5 71l-51 78t-47.5 74t-36 59q-14 -24 -36 -59t-47 -74t-51 -78t-47 -71t-35 -53l-16 -24q-8 -13 -23 -13q-7 0 -15 5
q-12 7 -12 23q0 10 4 15q0 1 15 23.5t38 57.5t51 77.5t54.5 83.5t48 76t32.5 54l7 12q-20 34 -46.5 76.5t-53 83.5t-50.5 77t-40 57q-5 8 -5 17q0 13 11 22q8 5 17 5q13 0 22 -11q16 -21 38 -53.5t46 -70t48.5 -76.5t44.5 -72q20 33 44.5 72t49 76.5t46.5 70t38 53.5
q8 11 22 11q9 0 17 -5q10 -9 10 -22q0 -11 -5 -17q-16 -21 -40 -57t-50.5 -77t-53 -83.5t-46.5 -76.5l7 -12q11 -19 33 -53.5z" />
    <glyph glyph-name="Y" unicode="Y" horiz-adv-x="531" 
d="M520 760q11 -8 11 -23q0 -10 -5 -17q-19 -25 -48.5 -69t-61 -93.5t-60.5 -96.5t-46 -78q-5 -11 -14.5 -26.5t-23.5 -37.5q1 -24 4 -56t6.5 -66t7 -67t7 -59.5t5.5 -43.5t2 -18q0 -11 -7.5 -18.5t-20.5 -9.5q-11 0 -18.5 6.5t-9.5 17.5q0 2 -2 18t-5 40.5t-6.5 55.5t-7 63
t-6.5 63.5t-4 57.5q-6 6 -6 16q0 9 4 14q-3 2 -7 8q-17 30 -49.5 83t-69.5 110.5t-71 108.5t-53 77q-6 9 -6 17q0 14 11 23q8 5 17 5q6 0 12 -2.5t10 -8.5q19 -25 51 -72.5t67 -101.5t67.5 -106.5t52.5 -87.5q9 15 15 24q10 19 26.5 47t36.5 60t41.5 66t42.5 66t39.5 59.5
t32.5 45.5q8 11 23 11q8 0 16 -5z" />
    <glyph glyph-name="Z" unicode="Z" horiz-adv-x="644" 
d="M681 29q11 -2 18 -10t6 -22q-1 -11 -9 -17.5t-22 -6.5l-19 2q-20 2 -56 5t-86.5 5t-112.5 2q-42 0 -86 -1.5t-85.5 -3.5t-78.5 -4.5t-65 -4.5t-44.5 -3.5t-17.5 -1.5q-11 0 -19 7.5t-9 20.5q0 11 7 19t18 9l16 10q0 1 15 23.5t38.5 58t51.5 78.5t54.5 84.5t48.5 77
t33 54.5q13 24 35 60t47.5 77t52.5 82.5t50 74.5q-21 3 -58 6.5t-88 3.5q-39 0 -80 -3t-75.5 -6.5t-57 -6.5t-24.5 -3q-11 0 -18.5 7t-9.5 21q0 11 6.5 18.5t17.5 9.5q2 0 24.5 3t57 6.5t76.5 6.5t83 3q82 0 130.5 -7t51.5 -8q7 10 21 10q9 0 17 -5q11 -9 11 -23
q0 -7 -5 -17q-19 -25 -48.5 -69t-61 -93.5t-60.5 -96.5t-46 -78q-9 -16 -26 -43.5t-38 -60t-44 -68.5t-45 -69.5t-41 -62.5t-32 -48q29 2 64.5 4t75 4t80.5 3t80 1q64 0 115 -2t87.5 -5t56.5 -5t22 -2z" />
    <glyph glyph-name="bracketleft" unicode="[" horiz-adv-x="354" 
d="M95 755q3 1 17.5 3t36.5 5t49.5 5.5t56.5 4.5q11 0 19 -8t8 -20q0 -11 -7.5 -19t-18.5 -9q-28 -2 -54.5 -4.5t-48.5 -5.5t-36 -5t-16 -2q5 -33 9.5 -77t7.5 -89t5 -86t2 -67q0 -16 1.5 -44t4.5 -61.5t6.5 -70.5t6.5 -70.5t6 -62t5 -45.5q23 3 57 7t71 6h2q11 0 19 -8
t9 -20q0 -11 -8 -19t-19 -9q-28 -2 -54.5 -4.5t-48 -5.5t-36 -5t-17.5 -2q-11 0 -19 8t-9 25q-1 3 -3.5 27t-6 59.5t-7.5 78.5t-7.5 84.5t-6 76.5t-2.5 55q0 31 -2.5 78t-6.5 96.5t-9 94.5t-10 72q0 10 7 18t21 10q5 0 11 -2q8 6 15 7v0z" />
    <glyph glyph-name="backslash" unicode="\" horiz-adv-x="389" 
d="M215 397q5 -19 17.5 -54t28 -76.5t32.5 -84.5t30.5 -78.5t22.5 -58t10 -23.5q5 -11 0 -20t-19 -11q-11 0 -20.5 7t-14.5 18q-1 3 -10.5 27t-23.5 59.5t-30.5 78.5t-32 84.5t-28 76.5t-18.5 55q-9 31 -25 78t-34.5 95.5t-36 92.5t-29.5 69q-5 11 -2 21t14 12t22.5 -4.5
t17.5 -17.5q13 -27 32 -74t37.5 -97.5t34.5 -98t25 -76.5z" />
    <glyph glyph-name="bracketright" unicode="]" horiz-adv-x="391" 
d="M348 42q2 -3 2 -11q0 -11 -8.5 -19.5t-23.5 -8.5h-21t-35.5 -1t-45.5 -2.5t-50 -4.5q-11 0 -19 7.5t-9 20.5q0 11 7 18.5t18 9.5q36 4 70 5.5t57 2.5q-2 17 -5.5 45.5t-8 62t-9.5 69.5t-10 69t-9.5 60.5t-8.5 43.5q-6 25 -13.5 65.5t-15.5 85.5t-15.5 89t-13.5 76
q-13 0 -57 -1t-96 -7q-11 0 -18.5 7.5t-9.5 20.5q0 11 7 19t18 9q26 3 51 4.5t47 2.5t38 1h24t16 -5q7 5 15 5q11 0 19 -8t9 -19q1 -25 6 -69t12.5 -92.5t15.5 -95t15 -76.5q5 -19 10.5 -54t12 -76t12 -84t10 -78t7.5 -59t3 -27v-1z" />
    <glyph glyph-name="asciicircum" unicode="^" horiz-adv-x="487" 
d="M383 514q30 -76 41 -124t12 -54q0 -10 -7 -18t-21 -10q-11 0 -18.5 6.5t-9.5 16.5q0 1 -10.5 46t-38.5 117q-17 42 -37 84t-37 74q-14 -33 -34 -77.5t-43 -86.5q-40 -72 -69 -110.5t-31 -40.5q-9 -10 -21 -10q-11 0 -18 7q-10 7 -10 21q0 10 6 18q1 1 28.5 37.5
t65.5 104.5q19 34 36 71.5t30.5 69t21.5 52.5l8 20l5 9l9 6l10 3l12 -1l9 -5l6 -8q1 -2 12 -22t27 -51t33.5 -69t32.5 -76z" />
    <glyph glyph-name="underscore" unicode="_" horiz-adv-x="685" 
d="M585.5 46q71.5 -7 75.5 -8q11 -2 17.5 -10t6.5 -21q-2 -11 -10 -17.5t-22 -6.5l-19 2q-19 2 -53.5 5t-82.5 5t-108 2t-123.5 -3t-116 -6.5t-86.5 -6.5t-36 -3q-11 -1 -19 7t-9 21q0 11 7 18.5t18 9.5q1 0 35 3t87 6.5t117.5 6.5t125.5 3q124 0 195.5 -7z" />
    <glyph glyph-name="grave" unicode="`" horiz-adv-x="717" 
d="M426 554q5 -8 11 -16t19 -20q9 -8 9 -20t-7 -19q-9 -9 -21 -9q-11 0 -19 7q-16 15 -24 26t-14 20l-12 16t-20 20q-14 13 -23 19t-17 11q-9 5 -19.5 12t-27.5 21q-9 9 -9 22q0 9 6 18q10 10 22 10q7 0 18 -7q14 -12 22.5 -18t16.5 -11q10 -5 20.5 -12.5t27.5 -22.5
q17 -16 26 -27t15 -20z" />
    <glyph glyph-name="a" unicode="a" horiz-adv-x="560" 
d="M246 38q21 0 46 19.5t48.5 52.5t42.5 77.5t28 94.5q-7 48 -11 101t-5 113q-11 9 -11 22q-7 3 -14.5 5t-16.5 2q-13 0 -37 -5.5t-52 -18t-56.5 -32.5t-52 -49t-38.5 -67t-15 -86q0 -76 12.5 -121t33 -69t46 -31.5t52.5 -7.5zM468 282q9 -62 21 -111t22.5 -83t18 -52.5
t7.5 -19.5q1 -3 1.5 -5.5t0.5 -5.5q0 -18 -16 -26q-8 -2 -12 -2q-19 0 -25 16q-2 4 -18.5 47.5t-34.5 121.5q-16 -39 -37.5 -72t-46 -57t-51 -37.5t-52.5 -13.5q-102 0 -151 70t-49 215q0 60 18 106.5t46.5 81.5t64 59t69.5 39t63 21.5t46 6.5q30 0 52 -11.5t36.5 -26
t21.5 -27t7 -13.5q3 -5 3 -11q0 -10 -9 -21q9 -47 9 -124q0 -16 -1.5 -32t-3.5 -33z" />
    <glyph glyph-name="b" unicode="b" horiz-adv-x="564" 
d="M403 81q64 49 64 146q0 80 -14.5 132t-37 84t-50 48t-54.5 24q-4 2 -8 2h-8q-14 0 -27.5 -6t-23.5 -14q-18 -14 -36.5 -37t-33 -54.5t-23.5 -70t-9 -82.5q5 -42 11 -82t12 -75q11 -8 11 -26q8 -8 18 -14t22 -9q18 -6 50 -6t69 8.5t68 31.5zM327 569q100 -30 148 -113.5
t48 -228.5q0 -127 -87 -191q-38 -29 -83.5 -40t-86.5 -11q-39 0 -66 8q-6 2 -12 4.5t-11 4.5q0 -22 -28 -27q-10 0 -17.5 6.5t-9.5 17.5q-1 2 -3.5 18t-6.5 42q-12 16 -17.5 28t-6.5 13q-1 3 -1.5 5.5t-0.5 5.5q0 12 9 20q-4 22 -5 51t-4 67q-5 57 -10.5 110.5t-5.5 91.5
q0 48 -3 102t-6.5 100.5t-6.5 77.5t-3 33q0 11 7.5 18.5t20.5 9.5q11 0 19 -7.5t9 -18.5q0 -3 3 -34t6.5 -77t6.5 -100.5t3 -103.5v-16q16 33 37 60.5t47 46.5q41 31 86 31q8 0 15.5 -1t15.5 -3z" />
    <glyph glyph-name="c" unicode="c" horiz-adv-x="421" 
d="M327 56q7 4 16 4q15 0 23 -12q5 -8 5 -16q0 -13 -13 -23l-7 -5q-8 -5 -21 -10t-29.5 -9.5t-35.5 -4.5q-24 0 -58 14.5t-66.5 49t-57.5 91t-31 139.5q-1 6 -1 11.5v11.5q0 65 23.5 117t56.5 88.5t68.5 57t60.5 22.5q5 1 10.5 1h10.5q29 0 50.5 -5.5t29.5 -9.5
q11 -2 23 -15.5t12 -51.5q0 -12 -8.5 -20t-19.5 -8q-12 0 -20 8t-8 20q0 8 -2 16q-6 2 -21 6t-36 4h-7.5t-8.5 -1q-16 -2 -42.5 -18t-52 -45.5t-44.5 -71.5t-19 -95v-9t1 -9q4 -68 23 -114t43.5 -74.5t49 -41t41.5 -12.5q12 0 23 3t20 6.5t14 7.5z" />
    <glyph glyph-name="d" unicode="d" horiz-adv-x="541" 
d="M405 118q5 7 15 10q-6 39 -11.5 83.5t-10 88t-7.5 83t-3 68.5v14t-1 15q-16 5 -19 23q0 2 -2.5 6.5t-10.5 8.5t-19 4t-22 -3.5t-20 -7.5q-28 -13 -57 -38t-54.5 -56t-45 -65.5t-28.5 -66.5q-7 -27 -7 -55q0 -35 11.5 -65t29 -54t38.5 -40.5t40 -25.5q12 -6 31 -6
q33 0 75.5 18.5t77.5 60.5zM444 451q0 -32 3.5 -77t9.5 -94t12.5 -97.5t12 -88t9.5 -64.5t4 -27q0 -10 -7 -18t-21 -10q-10 0 -18 6.5t-10 17.5q0 2 -2.5 19t-6.5 45q-41 -42 -88 -61t-89 -19q-34 0 -55 11q-30 14 -57.5 37.5t-48.5 54t-33.5 67.5t-12.5 78q0 33 9 69
q10 38 32.5 78t51.5 75t63 63.5t68 44.5q36 17 66 17q12 0 23 -2.5t25 -9.5q-2 37 -4.5 72t-5 62.5t-4 44.5t-1.5 19q0 11 7.5 18.5t20.5 9.5q11 0 18.5 -7.5t9.5 -18.5q0 -3 3 -34t6.5 -77t6.5 -100.5t3 -103.5z" />
    <glyph glyph-name="e" unicode="e" horiz-adv-x="505" 
d="M278 504q-9 0 -35.5 -9.5t-55 -34t-53 -68t-30.5 -111.5q17 4 38.5 9t43 9.5t41 7.5t31.5 3q14 0 35.5 6.5t42.5 13.5q17 6 32 10.5t29 8.5q-4 40 -17 69t-30 48t-36 28.5t-36 9.5zM467 46q11 0 18.5 -7t9.5 -21q0 -11 -6.5 -18.5t-17.5 -9.5q-2 0 -18 -2.5t-38 -5.5
t-46 -5t-41 -2q-133 0 -204 70.5t-78 198.5q-2 65 11.5 114t36 84t50.5 58t54.5 36t48 18.5t31.5 5.5q26 0 55.5 -13t55 -39.5t43.5 -67.5t22 -97q6 -8 6 -18t-6 -17q-5 -20 -27 -20q-10 0 -17 6q-27 -6 -56 -17q-26 -9 -51 -16t-45 -7q-11 0 -29.5 -3t-40.5 -8t-44.5 -10.5
t-40.5 -10.5q4 -62 28.5 -99.5t58 -58t71 -27t67.5 -6.5q16 0 39 2t44 5t37 5l15 2z" />
    <glyph glyph-name="f" unicode="f" horiz-adv-x="410" 
d="M459 561q-9 0 -17 6t-10 16q0 2 -7 22.5t-22.5 44t-42.5 42.5t-67 19q-35 0 -64 -29q-14 -15 -22.5 -34t-8.5 -39l4 -152q29 2 60.5 4t64.5 4q11 0 19 -8t9 -20q0 -11 -8 -19.5t-19 -8.5q-32 -2 -63 -4t-60 -4q4 -55 13.5 -120.5t18.5 -123.5t16 -97.5t7 -42.5
q0 -23 -28 -28q-23 0 -28 23q0 3 -3.5 22t-9 49.5t-11.5 69t-12 80.5t-11 84t-8 79q-43 -4 -70 -7t-31 -4q-10 0 -18 7t-10 21q0 11 7 18.5t18 9.5q1 0 28.5 3t72.5 8v13l-4 146q0 29 12.5 58t34.5 52q22 22 48.5 34t55.5 12q46 0 80 -18.5t57.5 -45.5t37.5 -58t19 -56
q0 -22 -21 -27z" />
    <glyph glyph-name="g" unicode="g" horiz-adv-x="548" 
d="M418 149q3 9 13 14q-7 69 -11.5 128t-4.5 96v12q-10 5 -14 13q-21 39 -41.5 56t-26.5 18q-17 0 -30.5 -2t-18.5 -3q-13 0 -21 10q-25 -10 -52.5 -45t-50.5 -81.5t-38 -99t-15 -96.5q0 -47 16 -79t40 -52.5t51.5 -29.5t50.5 -9q15 0 35.5 10.5t42 30t41.5 47t34 62.5z
M471 387q0 -23 2 -57.5t5.5 -75t7.5 -86t9 -91.5q4 -45 8.5 -87.5t7.5 -80t5 -68.5t2 -52q0 -36 -14 -71.5t-41 -63.5t-66.5 -45.5t-91.5 -17.5q-148 0 -212 162q-2 4 -2 11q0 18 17 26q3 1 5.5 1.5t5.5 0.5q18 0 26 -19q5 -13 15.5 -34.5t28.5 -41.5t46.5 -35t69.5 -15
q43 0 73 14t48.5 35.5t27 46.5t8.5 46q0 20 -2 50.5t-5 67.5t-7 78.5t-8 83.5q-19 -30 -41.5 -53t-46 -39.5t-46 -25t-41.5 -8.5q-39 0 -77.5 14.5t-68.5 43t-49 71t-19 97.5q0 35 9 77t24.5 84t37 82t46.5 70.5t53 49t57 18.5q21 0 35 -9q5 1 10 1h11q18 0 40 -14t42 -39
q2 12 6.5 22t20.5 11l26 2l4 -26v-3.5t-1 -8.5q0 -6 -0.5 -27t-0.5 -72z" />
    <glyph glyph-name="h" unicode="h" horiz-adv-x="579" 
d="M521 109q0 -13 3.5 -27.5t8 -27t9.5 -23t8 -15.5q2 -4 3 -7t1 -7q0 -16 -15 -24q-5 -4 -13 -4q-17 0 -25 14q0 1 -6 12t-12.5 28.5t-12 38.5t-5.5 42q0 5 -0.5 11t-1.5 14q-1 13 -2 29t-1 38q0 14 -2 30t-4 34q-3 24 -5.5 51t-2.5 58q0 19 -8 41t-24 40.5t-39 31
t-53 12.5q-38 0 -67.5 -13.5t-51.5 -34t-37 -45t-24 -45.5q5 -55 13 -117t16.5 -115.5t14.5 -89.5t6 -39q0 -10 -7 -18t-21 -10q-11 0 -18.5 6.5t-9.5 16.5q0 3 -4.5 30t-11 68t-14.5 91.5t-15 101.5q-22 5 -21 33q4 22 15 51q-2 22 -3 41.5t-1 36.5q0 48 -3 102t-6.5 100.5
t-7 77.5t-3.5 33q0 11 7.5 18.5t20.5 9.5q11 0 19 -7t9 -18q0 -3 3 -32.5t7 -73.5t7 -96.5t3 -100.5q31 39 76.5 66.5t108.5 27.5q40 0 73.5 -16t57 -41.5t36.5 -58t13 -65.5q0 -29 2.5 -54t5.5 -48q2 -19 4 -36.5t2 -34.5q0 -39 3 -61q1 -9 1.5 -16t0.5 -15z" />
    <glyph glyph-name="i" unicode="i" horiz-adv-x="245" 
d="M86 598q-17 0 -28.5 11.5t-11.5 28.5t11.5 28t28.5 11q16 0 27.5 -11t11.5 -28t-11.5 -28.5t-27.5 -11.5zM99 556q11 0 18.5 -6.5t9.5 -16.5q0 -3 4.5 -31t10.5 -68t11.5 -85.5t7.5 -81.5q2 -35 7 -82t11 -89.5t10.5 -73t4.5 -32.5q0 -11 -7 -18.5t-21 -9.5
q-11 0 -18.5 6.5t-9.5 17.5q0 3 -4.5 33t-10.5 72.5t-11 89.5t-7 83q-2 35 -7.5 80t-11 85t-10 68.5t-4.5 30.5q0 10 6 18t17 10h4z" />
    <glyph glyph-name="j" unicode="j" horiz-adv-x="253" 
d="M131 598q-16 0 -27.5 11.5t-11.5 28.5t11.5 28t27.5 11q17 0 28.5 -11t11.5 -28t-11.5 -28.5t-28.5 -11.5zM155 387q0 -23 2 -57.5t5.5 -75t7.5 -86t9 -91.5q4 -45 8.5 -87.5t7.5 -80t5 -68.5t2 -52q0 -36 -14 -71.5t-41 -63.5t-66.5 -45.5t-91.5 -17.5q-148 0 -212 162
q-2 4 -2 11q0 18 17 26q3 1 5.5 1.5t5.5 0.5q18 0 26 -19q5 -13 15.5 -34.5t28.5 -41.5t46.5 -35t69.5 -15q43 0 73 14t48.5 35.5t27 46.5t8.5 46q0 20 -2 51t-5.5 68.5t-7.5 79.5l-8 84q-5 46 -9 92t-7.5 87.5t-5.5 76.5t-2 59v54.5t1 36.5q0 7 0.5 14.5t3 14t8 11
t15.5 4.5l26 2l4 -26v-3.5t-1 -8.5q0 -6 -0.5 -27t-0.5 -72z" />
    <glyph glyph-name="k" unicode="k" horiz-adv-x="557" 
d="M365 269q11 -14 33.5 -38t49.5 -52t55.5 -57t52 -52.5t38.5 -39t16 -15.5q9 -8 9 -20q0 -10 -8 -20q-10 -8 -20 -8q-12 0 -20 8l-18 18t-40 39.5t-52.5 52.5t-56 57.5t-50 52.5t-33.5 39q-22 27 -49 61t-56 65q-17 -15 -32.5 -30t-28.5 -27q-5 -5 -13 -8q6 -51 13 -102.5
t13 -93.5t10 -69t4 -30q0 -11 -7 -18.5t-21 -9.5q-10 0 -17.5 6.5t-9.5 17.5q0 3 -4.5 29t-10 65t-12 87.5t-12.5 98t-9.5 94.5t-3.5 78q0 48 -3 102t-6.5 100.5t-6.5 77.5t-3 33q0 11 7.5 18.5t20.5 9.5q11 0 19 -7.5t9 -18.5q0 -3 3 -34t6.5 -77.5t6.5 -100.5t3 -103
q0 -18 1.5 -39.5t3.5 -47.5q12 11 28 26t32.5 29.5t32.5 27t27 18.5t25.5 21t28.5 31q18 20 35.5 37t34.5 26q6 3 13 3q16 0 25 -14q3 -6 3 -14q0 -7 -3.5 -13.5t-11.5 -10.5q-11 -6 -25.5 -21t-28.5 -31q-18 -20 -35 -37t-34 -26q-7 -4 -24 -17q29 -32 56.5 -66t49.5 -61z
" />
    <glyph glyph-name="l" unicode="l" horiz-adv-x="249" 
d="M146 448q0 -32 4 -77t9.5 -94t12 -97.5t12.5 -88t10 -64.5t4 -27q0 -23 -28 -28q-11 0 -18.5 6.5t-9.5 17.5q-1 3 -5 29t-9.5 65t-12 87.5t-12.5 98t-9.5 94.5t-3.5 78q0 48 -3 102t-6 100.5t-6 77.5t-3 33q0 11 7 18.5t21 9.5q11 0 18.5 -7.5t9.5 -18.5q0 -3 3 -34
t6 -77.5t6 -100.5t3 -103z" />
    <glyph glyph-name="m" unicode="m" horiz-adv-x="982" 
d="M916 131q0 -12 -1 -24t-3 -23t-3 -21t-1 -20q0 -18 6 -33q1 -3 1.5 -5.5t0.5 -5.5q0 -18 -18 -26q-8 -2 -10 -2q-19 0 -27 18q-5 14 -7 27t-2 27q0 13 1 25t3 23t3 20.5t1 19.5q0 14 -2 26t-5 25q-2 15 -4.5 31t-2.5 35q0 14 0.5 25t1.5 22q1 18 2 47t1 86q0 46 -22 68
q-18 18 -44 21t-41 3q-14 0 -31 -6t-34.5 -15t-32.5 -18l-25 -15q-5 -3 -9 -5t-7 -4q-5 -3 -16 -17.5t-20 -31.5q-6 -9 -15 -12q0 -26 2.5 -49t4.5 -43t4 -38.5t2 -35.5q0 -21 1 -36.5t2 -28.5q3 -18 3 -32t3.5 -29t8 -28.5t9.5 -24.5t8 -17q4 -5 4 -13t-3.5 -14.5
t-11.5 -10.5q-6 -3 -13 -3q-17 0 -25 14q0 1 -6 12.5t-12.5 29.5t-12 40t-5.5 44q0 5 -0.5 12t-1.5 15q-2 13 -3 30t-1 40q0 14 -2 31t-4 36q-2 26 -5 54t-3 61q0 20 -8.5 43.5t-24.5 43t-39.5 32.5t-54.5 13q-39 0 -69.5 -15t-53 -37t-37.5 -48t-24.5 -48.5t-13.5 -37.5
l-4 -16q-1 -8 -8 -15v-17q0 -25 7.5 -56t15.5 -66q12 -45 22.5 -94t10.5 -100q0 -11 -8.5 -19.5t-19.5 -8.5q-12 0 -20 8.5t-8 19.5q0 46 -10 92t-21 88q-10 38 -17.5 72t-7.5 64q0 29 -4 72.5t-9.5 85t-9.5 72t-4 32.5q0 11 7 18.5t21 9.5q10 0 17.5 -6.5t9.5 -17.5
q0 -2 2 -12.5t4.5 -27.5t5 -39.5t5.5 -46.5q15 28 36 55t48.5 48t61.5 34t75 13q32 0 60 -10.5t50 -28t38 -41t25 -49.5q8 11 17 20.5t18 14.5q5 2 13 8q13 8 31.5 18.5t39 20.5t42.5 16.5t42 6.5q9 0 23.5 -0.5t31.5 -4.5t35 -12t33 -23q38 -40 38 -108q0 -59 -1.5 -88.5
t-2.5 -48.5q-1 -11 -1 -20.5v-22.5q0 -15 2 -28t4 -27q3 -14 5.5 -29.5t2.5 -32.5z" />
    <glyph glyph-name="n" unicode="n" horiz-adv-x="611" 
d="M552 120q0 -14 3.5 -29t8.5 -28.5t10 -24.5t8 -17t3 -14q0 -16 -14 -24q-4 -2 -7 -3t-7 -1q-16 0 -24 15q-1 1 -7 12.5t-12.5 29.5t-12 40t-5.5 44q0 5 -0.5 11.5t-1.5 14.5q-1 14 -2 30.5t-1 39.5q0 15 -2 31.5t-4 36.5q-3 25 -5.5 53.5t-2.5 60.5q0 20 -8.5 43.5
t-24.5 43.5t-39.5 33t-54.5 13q-39 0 -69.5 -14.5t-52.5 -36.5t-37.5 -47.5t-24.5 -48t-13.5 -38.5t-4.5 -18q-3 -9 -8 -14v-18q0 -24 7 -55t16 -66q11 -45 21.5 -94t10.5 -100q0 -12 -8 -20t-20 -8q-11 0 -19.5 8t-8.5 20q0 46 -9.5 92t-20.5 88q-10 37 -17.5 71.5
t-7.5 63.5t-4 73t-9.5 85.5t-10 72t-4.5 32.5q0 10 7 18t21 10q11 0 18.5 -6.5t9.5 -17.5q0 -2 2 -12.5t4 -28t5 -39.5t6 -46q15 28 35.5 55t48 48t61.5 34t76 13q41 0 74.5 -16.5t57.5 -43.5t37.5 -61t13.5 -68q0 -30 2.5 -57t5.5 -50q2 -20 4 -39t2 -36q0 -40 3 -64
q1 -9 1.5 -16.5t0.5 -15.5z" />
    <glyph glyph-name="o" unicode="o" horiz-adv-x="520" 
d="M259 35q19 0 48.5 18.5t57.5 52t48 80.5t20 105q0 56 -13.5 98.5t-31 72t-35 44.5t-25.5 17q-17 0 -30.5 -2.5t-18.5 -3.5q-12 0 -22 10q-25 -10 -52 -45t-50 -81.5t-38 -99t-15 -96.5q0 -46 16 -78.5t40 -52.5t51 -29.5t50 -9.5zM329 579q21 0 48.5 -20.5t52 -58
t42 -90.5t17.5 -119q0 -67 -23 -124t-57.5 -99t-75 -65.5t-74.5 -23.5q-39 0 -77 15t-68 43.5t-49 70.5t-19 97q0 35 9 77t24.5 84.5t37 82t46.5 70.5t53 49.5t57 18.5q11 0 19.5 -2.5t15.5 -6.5q5 0 10 0.5t11 0.5z" />
    <glyph glyph-name="p" unicode="p" horiz-adv-x="549" 
d="M449 229q5 13 6.5 26t1.5 26q0 32 -10.5 62t-27.5 55.5t-38 46t-42 33.5q-25 14 -60 14q-31 0 -65 -12t-61 -38q-10 -8 -19 -8q-6 0 -12 3q5 -31 11 -71.5t12 -85.5t12 -92t10 -90q14 -6 17 -23q0 -1 2.5 -7t12.5 -12q16 -9 35 -9q12 0 23.5 3t21.5 6q27 10 53.5 28.5
t49.5 42t40.5 50t26.5 52.5zM368 525q29 -18 55.5 -44t46.5 -58t31.5 -68t11.5 -74q0 -37 -11 -69t-31.5 -64t-47.5 -60t-59.5 -50t-65.5 -34q-33 -13 -64 -13q-32 0 -61 16v-24q0 -55 3.5 -117t7.5 -115t7.5 -88.5t3.5 -37.5q0 -11 -7 -19t-21 -9q-11 0 -18.5 7t-9.5 18
q0 1 -3.5 36.5t-7.5 89t-7.5 116.5t-3.5 119q0 36 -4.5 88t-11 108.5t-14.5 112.5t-15 101t-11.5 73.5t-4.5 30.5q0 23 28 28q11 0 18.5 -6t9.5 -17l3 -19q36 34 79 49.5t84 15.5q53 0 90 -23z" />
    <glyph glyph-name="q" unicode="q" horiz-adv-x="541" 
d="M270 14q14 0 33.5 9.5t40 27t40 43t33.5 57.5q-5 70 -8.5 130t-3.5 98v50q-21 38 -41 54.5t-26 17.5q-17 0 -30.5 -2t-18.5 -3q-13 0 -21 10q-25 -10 -52.5 -45t-50.5 -81.5t-38 -99t-15 -96.5q0 -47 16 -79t40 -52.5t51.5 -29.5t50.5 -9zM746 -302l26 -10
q-49 -132 -159 -132q-39 0 -68 14t-48.5 36.5t-30 51.5t-12.5 59q-2 26 -6 73t-9 107q-3 37 -6.5 77.5t-7.5 82.5q-36 -48 -78.5 -73.5t-76.5 -25.5q-39 0 -77.5 14.5t-68.5 43t-49 71t-19 97.5q0 35 9 77t24.5 84t37 82t47 70.5t53 49t56.5 18.5q21 0 35 -9q5 1 10.5 1
h10.5q33 0 72 -41q5 14 22 15l26 2l4 -26q0 -2 0.5 -3.5t-1.5 -9.5q0 -7 -0.5 -31.5t-0.5 -83.5q0 -35 3 -90t8 -120q5 -7 5 -15q0 -3 -0.5 -5.5t-2.5 -6.5q5 -61 10.5 -123t10.5 -117l9 -108t6 -74q0 -4 3 -21.5t13.5 -36.5t31 -34.5t55.5 -15.5q24 0 41.5 8.5t29.5 22.5
t20.5 30.5t14.5 33.5z" />
    <glyph glyph-name="r" unicode="r" horiz-adv-x="443" 
d="M349 571q22 0 37 -3.5t24.5 -8t15 -9.5t7.5 -8q5 -7 5 -15q0 -16 -12 -23q-6 -5 -16 -5q-12 0 -21 9q-2 1 -10.5 4t-29.5 3q-12 0 -43 -15t-63 -49t-57.5 -88.5t-25.5 -133.5q3 -13 6 -26.5t7 -27.5q11 -45 22 -94t11 -100q0 -12 -8.5 -20t-19.5 -8q-12 0 -20 8t-8 20
q0 46 -10 92t-21 88q-10 37 -17.5 71.5t-7.5 63.5t-4 73t-9.5 85.5t-9.5 72t-4 32.5q0 10 7 18t21 10q10 0 17.5 -6.5t9.5 -17.5q0 -2 2.5 -16.5t5.5 -36.5t6.5 -50t6.5 -56q20 41 47.5 72.5t56.5 52.5t56 31.5t46 10.5z" />
    <glyph glyph-name="s" unicode="s" horiz-adv-x="520" 
d="M313 342q177 -86 177 -181q0 -29 -13 -57t-31 -51.5t-37.5 -41t-32.5 -24.5q-12 -7 -31.5 -13.5t-40 -11.5t-39 -8t-30.5 -3q-26 0 -55.5 8.5t-56.5 28t-48.5 51.5t-33.5 79q0 22 28 28q9 0 17 -5.5t10 -15.5q11 -42 31.5 -65.5t42 -35.5t40 -14.5t25.5 -2.5q9 0 25 2.5
t32.5 7t32 9.5t23.5 10q9 5 24 18.5t28.5 31t23.5 37.5t10 38q0 10 -6 23.5t-21.5 30t-44 35.5t-73.5 41q-29 14 -60.5 29t-58.5 27.5t-45 21.5l-18 8l-16 7v18q0 46 23 80.5t56 58t69.5 35.5t64.5 12q29 0 49 -7t33 -15.5t19.5 -16t7.5 -9.5q5 -7 5 -15q0 -15 -13 -23
q-8 -5 -15 -5q-15 0 -23 13q-1 0 -4.5 3.5t-11 7.5t-19 7.5t-28.5 3.5t-41 -7t-48 -21.5t-43 -35.5t-24 -49q13 -6 32 -14.5t41.5 -19t46.5 -22t45 -21.5z" />
    <glyph glyph-name="t" unicode="t" horiz-adv-x="422" 
d="M391 522q9 -2 15 -11t5 -23q-5 -21 -34 -21q0 1 -37 7t-99 7q3 -57 3 -94q0 -19 2.5 -54t6 -76.5t7.5 -85t8 -79t6.5 -59t2.5 -24.5q0 -11 -7.5 -18.5t-20.5 -9.5q-11 0 -19 7t-9 18q0 3 -3 27t-6.5 59.5t-7.5 78.5t-7.5 84.5t-6 76.5t-2.5 55q0 38 -3 92q-26 -2 -51 -5
t-44.5 -5.5t-32 -4.5t-14.5 -2q-10 0 -18 7t-10 21q0 10 6.5 17.5t17.5 9.5q1 0 13.5 2.5t32 5t44.5 5t52 4.5q-2 28 -4.5 55.5t-5 53t-5.5 47.5t-6 38q0 10 7 18t21 10q10 0 17.5 -6t9.5 -17q7 -31 13 -85t11 -111q34 0 61.5 -2t47 -5t31 -5.5t12.5 -2.5z" />
    <glyph glyph-name="u" unicode="u" horiz-adv-x="580" 
d="M522 246q22 -5 22 -33q-5 -20 -13.5 -45.5t-22.5 -51.5q6 -48 11 -83t6 -39q0 -11 -7 -18.5t-21 -9.5q-11 0 -18.5 6.5t-9.5 17.5q0 2 -2.5 17.5t-5.5 39.5q-31 -35 -74 -58t-100 -23q-41 0 -75 16.5t-58 43.5t-37 60.5t-13 68.5q0 30 -2.5 57t-5.5 50q-2 20 -4 38.5
t-2 36.5q0 20 -1 36t-3 28q-1 9 -1.5 16.5t-0.5 15.5q0 14 -3.5 29t-8 28.5t-9.5 24.5t-8 17q-4 5 -4 13q0 17 15 25q6 3 13 3q17 0 25 -14q0 -1 6 -12.5t12.5 -29.5t12 -40t5.5 -44q0 -5 0.5 -12t1.5 -15q2 -13 3 -29.5t1 -39.5q0 -15 2 -31.5t4 -36.5q2 -26 5 -54t3 -60
q0 -21 8.5 -44t24.5 -43t39.5 -33t54.5 -13t56 9t45 24t35.5 33.5t26.5 38.5q-5 37 -8.5 74t-5.5 67q-2 35 -7.5 80t-11 85t-10 68.5t-4.5 30.5q0 10 7 18t21 10q10 0 17.5 -6.5t9.5 -16.5q0 -3 4.5 -31t10.5 -68t11.5 -85.5t7.5 -81.5q0 -8 0.5 -16.5t1.5 -18.5q5 5 11 8
t17 2z" />
    <glyph glyph-name="v" unicode="v" horiz-adv-x="487" 
d="M431 550q9 -3 15 -11.5t5 -23.5q-1 -2 -8.5 -29.5t-18.5 -66.5t-24.5 -82.5t-26.5 -77.5q-13 -33 -27.5 -78t-26.5 -86t-20 -69.5t-8 -29.5q-7 -21 -35 -20q-20 7 -19 35l4 15q-2 3 -24 37.5t-53 97.5t-64.5 154t-58.5 208q0 9 7 17t21 11q22 0 27 -22q18 -81 40.5 -149
t45.5 -122.5t44 -94.5t36 -65q13 43 28.5 93t29.5 88q13 33 26.5 76t24.5 81.5t18 65.5t7 28q3 9 11.5 15t23.5 5z" />
    <glyph glyph-name="w" unicode="w" horiz-adv-x="827" 
d="M780 550q21 -7 20 -35q-1 -2 -8 -29.5t-18.5 -66.5t-25 -82.5t-26.5 -77.5q-13 -33 -27 -78t-26 -86t-20.5 -69.5t-8.5 -29.5q-5 -21 -34 -20q-21 7 -20 35l5 15l-20 30t-43.5 76t-47.5 102q-37 89 -63 179q-11 -38 -24 -79.5t-26 -74.5q-12 -33 -26.5 -78t-26.5 -86
t-20 -69.5t-8 -29.5q-7 -21 -35 -20q-20 7 -19 35l4 15q-2 3 -24 37.5t-53 97.5t-64 154q-34 91 -59 208q0 22 28 28q22 0 27 -22q18 -81 52 -183q11 -34 34 -88q22 -55 43 -95t36 -65q13 43 29 93t30 88q13 33 26.5 76t24.5 82.5t19 67.5t9 31l7 9l10 5h10q2 0 3.5 -0.5
l7.5 -2.5q1 -1 2 -1.5t6 -5.5l6 -11q17 -80 39.5 -148t45.5 -123t44 -95t36 -65q13 43 29 93t30 88q12 33 25.5 76t24.5 81.5t18.5 65.5t7.5 28q2 9 10.5 15t23.5 5z" />
    <glyph glyph-name="x" unicode="x" horiz-adv-x="495" 
d="M398 113q12 -18 25 -35.5t24 -31.5t19 -23l7 -9q7 -7 7 -18q0 -14 -10 -21q-7 -7 -18 -7q-14 0 -21 10q-1 1 -8.5 10t-19.5 24t-25.5 33t-26.5 37q-8 11 -20 28t-26 36t-29.5 39t-29.5 38q-28 -47 -48.5 -87t-34 -69.5t-20.5 -45.5l-7 -17q-7 -18 -26 -18q-7 0 -10 2
q-18 7 -18 26q0 4 2 10q1 3 9 22.5t23.5 52t38.5 76.5t54 95l-7 9q-7 8 -17.5 31t-32.5 71q-9 19 -18 39t-18 38.5t-16.5 33t-12.5 22.5t-5 16q0 15 12 23q8 5 16 5q15 0 23 -12q13 -19 31.5 -59t38.5 -83q10 -23 20.5 -46t17.5 -36q32 51 71 105t87 110q7 10 21 10
q10 0 18 -6q10 -9 10 -22q0 -11 -7 -18q-49 -59 -90 -116t-74 -111l31.5 -40.5t34.5 -45t31.5 -42.5t23.5 -33z" />
    <glyph glyph-name="y" unicode="y" horiz-adv-x="535" 
d="M531 569q14 -8 14 -24q0 -9 -4 -14l-8 -14l-20 -37.5t-26 -49t-26 -51.5q-10 -21 -13 -34.5t-5 -28.5q-2 -10 -3.5 -21t-5 -25.5t-9.5 -32.5t-16 -41q-22 -50 -28 -82.5t-10 -64.5l-2 -27q0 -7 -3 -13q-2 -11 -4 -22.5t-5 -25.5q-8 -34 -14.5 -55.5t-13.5 -41.5
q-8 -23 -16.5 -51t-18.5 -77q-9 -45 -16 -83.5t-11 -66.5t-6 -44l-2 -16q-2 -11 -10 -17.5t-21 -6.5q-25 3 -25 31q0 1 2.5 17.5t6.5 45t11 67t16 84.5q5 26 10 46t9.5 36t9 29t8.5 25q7 19 13 39t13 51q3 12 4.5 22.5t3.5 20.5q-10 14 -27.5 39.5t-33.5 53.5
q-9 16 -26 41.5t-35.5 52.5t-36 51.5t-27.5 39.5l-8 12q-6 8 -15.5 31t-28.5 71q-8 19 -16 39t-15.5 38.5t-14.5 33t-12 22.5q-4 10 -4 14q0 16 14 24q5 4 14 4q17 0 24 -13q11 -19 28 -58.5t34 -83.5q6 -14 11.5 -28.5t11 -27t9.5 -22.5t6 -13l8 -11q10 -15 27.5 -40
t36.5 -53t36 -54t27 -42q5 -10 11.5 -19.5t12.5 -19.5q5 24 12.5 52.5t23.5 66.5q17 42 22.5 65.5t8.5 41.5q2 17 6 35t16 44q12 25 26 52t26.5 49.5t21 37.5t9.5 17q8 14 24 14q9 0 14 -4z" />
    <glyph glyph-name="z" unicode="z" horiz-adv-x="496" 
d="M505 31q21 -5 21 -34q-3 -9 -11.5 -15t-22.5 -5q-1 0 -45.5 7.5t-119.5 7.5q-27 0 -55.5 -1.5t-55 -4.5t-49.5 -6t-39 -6q-9 -17 -26 -17q-5 0 -11 3q-13 5 -16 19q-3 3 -5 7.5t-3 12.5q0 10 6 17.5t17 9.5q12 27 35.5 74.5t57.5 108t77 130.5t96 142q-22 4 -55 6.5
t-75 2.5q-32 0 -71 -2.5t-86 -7.5q-11 0 -18.5 7t-9.5 21q0 11 7 18.5t18 8.5q46 6 86 8.5t74 2.5q80 0 128 -8t50 -8q21 -6 21 -28v-12q0 -8 -5 -16q-48 -65 -89.5 -129t-75 -121.5t-58.5 -106t-41 -81.5q35 5 80.5 8.5t90.5 3.5q80 0 128 -8t50 -9z" />
    <glyph glyph-name="braceleft" unicode="{" horiz-adv-x="334" 
d="M265 35q11 0 19 -8t9 -20q0 -11 -8 -19.5t-19 -8.5q-4 -1 -11 -1q-53 0 -83 22.5t-45 57t-19 75t-5 77.5q-1 22 -2.5 44.5t-5 42t-9.5 35.5t-16 26l-6 8q-1 1 -3 11q0 1 0.5 2.5t1.5 8.5q1 1 1.5 2t4.5 7q1 1 2 1.5t7 4.5q23 11 23 53q0 14 -2 31t-5 37q-2 20 -4.5 40.5
t-2.5 40.5q0 27 6.5 52.5t23.5 46.5q39 45 125 49q11 0 19.5 -8t9.5 -20q0 -11 -8 -19t-19 -9q-61 -3 -84 -29q-10 -12 -13.5 -28t-3.5 -35q0 -17 2 -35.5t5 -38.5q2 -18 4 -37t2 -37q0 -25 -5.5 -46.5t-21.5 -38.5q18 -32 22.5 -74t6.5 -85q2 -46 6.5 -80t15.5 -55.5
t30.5 -32t52.5 -10.5h2z" />
    <glyph glyph-name="bar" unicode="|" horiz-adv-x="281" 
d="M145 395q0 -19 2.5 -54t6 -76.5t8 -85t8 -79t6 -59t2.5 -24.5q0 -11 -7.5 -18.5t-20.5 -9.5q-11 0 -18.5 7t-9.5 18q0 3 -2.5 27t-6.5 59.5t-8 78.5t-7.5 84.5t-6 76.5t-2.5 55q0 31 -2.5 78t-6.5 96.5t-9 94.5t-10 72q0 22 29 28q10 0 17.5 -6.5t9.5 -16.5q6 -27 11 -74
t8.5 -98t6 -98.5t2.5 -75.5z" />
    <glyph glyph-name="braceright" unicode="}" horiz-adv-x="349" 
d="M256 243q2 -29 4 -58.5t-1 -56.5q-3 -26 -10.5 -48t-24.5 -39q-34 -39 -107 -40q-11 2 -18 9.5t-7 21.5q2 11 9.5 18t18.5 7q43 0 63 21q9 10 13.5 24.5t6.5 31.5q2 23 1 50t-3 55q-2 29 -3.5 57t0.5 54q3 28 12 50q-15 13 -23.5 31t-12.5 39t-4 43v44q0 20 -0.5 39.5
t-3 37.5t-8 33t-16.5 26q-19 21 -59 24q-7 1 -14.5 1.5t-17.5 0.5q-11 1 -18 9t-7 22q1 11 8.5 17.5t18.5 7.5q10 0 18.5 -0.5t16.5 -1.5q60 -6 94 -40q17 -17 26 -38t13 -44t4.5 -47.5t0.5 -47.5q-1 -51 4 -81.5t29 -39.5l1 -1l8 -4q0 -1 1 -2.5t5 -6.5q1 -1 1 -2.5t2 -7.5
v-2.5t-2 -8.5l-5 -9q-13 -16 -16 -47q-2 -22 -1 -48t3 -53z" />
    <glyph glyph-name="asciitilde" unicode="~" horiz-adv-x="509" 
d="M440 348q7 4 15 4q15 0 24 -12q5 -8 5 -16q0 -13 -13 -23q-1 0 -9 -5t-22.5 -10t-34.5 -9.5t-44 -4.5q-27 0 -58.5 7t-66.5 25q-23 13 -44.5 18t-40.5 5q-21 0 -37.5 -4.5t-28 -9.5t-17.5 -10l-7 -5q-8 -6 -18 -6q-14 0 -21 10q-7 7 -7 18q0 13 10 21q1 1 10.5 8t26 14.5
t39 13.5t50.5 6q25 0 53 -6t59 -23q28 -15 53 -20.5t45 -5.5q36 0 56.5 9.5t22.5 10.5z" />
    <glyph glyph-name="uni007F" 
 />
    <glyph glyph-name="uni00A0" unicode="&#xa0;" 
 />
    <glyph glyph-name="exclamdown" unicode="&#xa1;" horiz-adv-x="285" 
d="M111 664q-17 0 -28 11.5t-11 27.5q0 17 11 28.5t28 11.5t28.5 -11.5t11.5 -28.5q0 -16 -11.5 -27.5t-28.5 -11.5zM126 637q11 1 18.5 -6.5t8.5 -18.5q2 -15 3.5 -30.5t3.5 -31.5q6 -57 11 -107.5t5 -80.5q0 -31 2.5 -78t6.5 -96.5t9 -94.5t10 -72q0 -10 -7 -18t-21 -10
q-23 0 -28 23q-6 27 -11 74t-8.5 97.5t-6 98t-2.5 76.5q0 28 -5 78t-11 104q-2 16 -3 32t-3 33q0 11 7 19t21 9z" />
    <glyph glyph-name="cent" unicode="&#xa2;" horiz-adv-x="361" 
d="M87 357q0 -38 6.5 -67.5t18 -51t25.5 -36.5t29 -24q-2 27 -4 55t-3.5 55t-2 51t-0.5 42q0 35 -1 72.5t-3 72.5q-11 -12 -25.5 -36t-25.5 -47q-8 -15 -11 -33t-3 -53zM340 198q10 -9 10 -22q0 -9 -6 -18q-1 -1 -9.5 -10t-23.5 -19.5t-36 -19t-47 -7.5q2 -30 3.5 -49.5
t2.5 -21.5q0 -11 -7.5 -19.5t-20.5 -8.5q-11 -1 -19 6.5t-9 18.5q-1 3 -3 26.5t-4 58.5q-26 10 -51 29t-45 48.5t-32 71t-12 95.5q0 43 4.5 66t14.5 43q1 4 8.5 19t19 33.5t25.5 36t28 25.5q5 3 9 4.5t9 3.5q-1 17 -1 26.5t-1 11.5q0 11 8 19.5t20 8.5q11 0 19.5 -7.5
t8.5 -18.5l2 -30q16 -2 24 -4q3 -1 12 -4.5t19 -8.5t19.5 -11t14.5 -13q2 -2 5 -11t3 -29q0 -11 -8 -19.5t-20 -8.5q-11 0 -19.5 9.5t-8.5 26.5q-6 4 -16 8.5t-22 7.5q2 -36 3 -79t1 -81q0 -20 1 -46t3 -56t5 -61t7 -60q16 0 29.5 5.5t23 12t15.5 12.5l5 6q8 10 21 10
q10 0 18 -6z" />
    <glyph glyph-name="sterling" unicode="&#xa3;" horiz-adv-x="471" 
d="M484 71q11 0 19 -7.5t9 -20.5q0 -11 -8 -19t-19 -9h-27q-18 0 -42 1t-44 5q-19 4 -39 5t-42 1q-11 1 -22.5 1t-23.5 1q-17 1 -40.5 1h-48.5l-34 -1q-7 0 -10 1q-13 1 -25 1t-23 1q-11 0 -19 8.5t-8 20.5q1 11 9 19t21 7h19.5t22.5 -1q12 17 26 38.5t25.5 43.5t19 43
t7.5 36q-23 -2 -45.5 -4t-40 -4.5t-29 -4.5t-13.5 -2q-23 0 -28 28q0 11 6 18.5t17 9.5q2 0 31.5 4.5t70.5 8.5q-6 5 -12 11l-12 12q-14 13 -28 27t-25 29.5t-18 34t-7 39.5q0 40 21 73t51.5 56t64.5 35.5t59 12.5q27 0 46 -6.5t31 -14.5t18 -15.5t7 -9.5q4 -7 4 -15
q0 -14 -13 -24q-10 -4 -15 -4q-15 0 -23 13q-1 2 -13.5 11t-41.5 9q-18 0 -42 -9t-45.5 -25.5t-37 -38.5t-15.5 -48q0 -25 18.5 -46t41.5 -43l29 -29t28 -32q59 1 94 -5.5t37 -6.5q21 -7 20 -34q-5 -22 -34 -21q-12 2 -27 5q-14 2 -32.5 3.5t-41.5 1.5q1 -19 -5.5 -40.5
t-16 -42.5t-21.5 -41.5t-23 -36.5h38.5t32.5 -1q11 -1 22 -1t22 -1q24 0 46 -1t45 -6q17 -3 37.5 -4t37.5 -1h25h1z" />
    <glyph glyph-name="currency" unicode="&#xa4;" horiz-adv-x="430" 
d="M255 324q15 19 15 35q0 8 -2.5 17t-7.5 20q-11 27 -22 33t-32 6q-8 0 -18.5 -5t-20.5 -16q-7 -8 -12.5 -20.5t-5.5 -29.5q0 -8 1 -12q0 -5 2 -12.5t9 -15t21 -13t38 -5.5q8 0 18.5 6.5t16.5 11.5zM385 506q2 -4 3 -7t1 -7q0 -16 -15 -24q0 -1 -17.5 -12.5t-44.5 -38.5
q6 -14 9.5 -28.5t3.5 -30.5q0 -19 -7 -37q32 -32 47.5 -52t16.5 -21q5 -8 5 -16q0 -16 -12 -23q-8 -6 -16 -6q-13 0 -23 12q0 1 -13 17.5t-39 43.5q-10 -8 -26 -16.5t-35 -9.5h-11q-38 0 -64 13q-21 -25 -34 -41.5t-13 -17.5q-8 -11 -22 -11q-10 0 -17 6q-11 9 -11 22
q0 9 5 17q2 2 15.5 20t36.5 44q-11 19 -14 42q-1 5 -1 10v10q0 29 12 55q-26 17 -43 27.5t-18 10.5q-13 10 -13 25q0 7 4 14q7 13 24 13q8 0 14 -3q2 -2 20 -13t46 -29q30 27 71 27q20 0 37 -4.5t31 -17.5q30 23 48.5 35t20.5 13q6 3 14 3q16 0 24 -14z" />
    <glyph glyph-name="yen" unicode="&#xa5;" horiz-adv-x="390" 
d="M230 302q-1 -7 -5 -12.5t-10 -13.5q3 -5 3 -11q0 -2 0.5 -10t1.5 -18q58 0 92 -6t36 -7q22 -5 20 -34q-5 -21 -34 -20q-13 2 -29 5q-29 4 -78 6q1 -5 1 -13v-17q0 -17 -0.5 -37.5t-1.5 -41t-2 -37.5t-2 -27q-1 -11 -9 -19t-20 -8q-11 1 -19 9.5t-7 20.5q2 39 3.5 79.5
t1.5 64.5v12.5t-1 11.5q-23 -2 -44 -4t-37.5 -4.5t-27.5 -4t-13 -1.5q-10 0 -18 7t-10 21q0 10 6.5 17.5t16.5 9.5q1 0 11.5 2t27 4.5t37.5 4.5t44 4q-1 11 -1.5 19.5t0.5 16.5q-9 14 -19 35q-37 -4 -64 -8t-31 -4q-10 0 -18 7t-10 21q0 10 6.5 17.5t16.5 9.5q2 1 23.5 4
t52.5 7q-4 6 -8.5 12t-7.5 11q-6 8 -11 15t-8 13q-2 4 -10.5 18.5t-20.5 34.5l-25.5 42.5t-24.5 40.5q-4 7 -4 15q0 15 14 24q8 4 14 4q16 0 24 -14l15 -25t26.5 -43.5t26.5 -44.5t15 -27q2 -2 6 -8.5t8 -11.5q11 -15 19.5 -27.5t13.5 -23.5h14q7 15 15 30.5t15.5 29t14 24
t11.5 15.5t14 21t18 34.5t16 35.5t8 24q1 11 9 18t22 6q11 -1 17.5 -9t6.5 -22q-1 -11 -9 -32t-19 -44t-22.5 -43t-19.5 -28q-5 -5 -14.5 -22.5t-20.5 -37.5q42 -2 65 -7t25 -5q22 -5 20 -34q-5 -21 -34 -20q-12 2 -28 4q-14 1 -33 1t-43 -2z" />
    <glyph glyph-name="brokenbar" unicode="&#xa6;" horiz-adv-x="291" 
d="M137 401q-11 -1 -19 7t-9 20q-1 34 -3.5 76.5t-6.5 84.5t-8.5 79t-8.5 60q0 10 7 18t21 10q10 0 17.5 -6t9.5 -16q4 -23 9 -60t8.5 -79.5t6.5 -86t4 -79.5q0 -11 -8 -19.5t-20 -8.5zM170 311q3 -44 8 -95.5t9.5 -97t8 -76.5t3.5 -33q0 -11 -7.5 -18.5t-20.5 -9.5
q-11 0 -19 7t-9 18q0 1 -3.5 31.5t-8 76t-9.5 98t-8 97.5q0 11 7.5 19t20.5 9q11 0 19 -7.5t9 -18.5z" />
    <glyph glyph-name="section" unicode="&#xa7;" horiz-adv-x="499" 
d="M167 322q19 -5 33.5 -11t27.5 -12q16 -7 28 -11.5t26 -4.5q12 0 23 4q25 8 39 18t21 22t8.5 26.5t1.5 30.5v10v11q0 14 -7.5 35.5t-21.5 41.5q-26 19 -52.5 26t-50.5 7q-29 0 -52.5 -7t-37.5 -14q-10 -5 -20.5 -15.5t-19.5 -25t-15 -32t-6 -36.5q2 -15 5 -24.5t10.5 -16
t21.5 -11.5t38 -11zM443 88v-10q0 -19 -2.5 -40.5t-13.5 -42t-32.5 -38.5t-60.5 -30q-20 -7 -37 -9.5t-33 -2.5q-22 0 -44 5t-52 13q-29 7 -50 23.5t-35 33t-21 29.5t-7 14q-3 6 -3 12q0 17 17 25q4 3 11 3q17 0 26 -17l5 -9q5 -9 14.5 -21t24.5 -23.5t35 -16.5
q27 -7 45 -11t35 -4q20 0 53 9q24 8 38 18t21 22.5t8.5 26.5t1.5 30v10v12q0 6 -2 18t-13 28.5t-36 37.5t-70 45q-17 2 -32 8t-29 12q-12 5 -24.5 10.5t-27.5 9.5q-25 7 -45 14t-35 19t-24 30.5t-12 47.5q-1 5 -1 14q0 25 9 49.5t22.5 45t30 35.5t31.5 22l12.5 5t16.5 7
q-20 2 -39 6t-34 12t-25 21.5t-12 34.5q0 4 -0.5 7.5t-0.5 7.5q0 28 10.5 48t26 34t32 23t28.5 15q18 8 41.5 12t49.5 4q24 0 48 -3t44 -8q22 -5 20 -34q-5 -21 -33 -21q-19 5 -39 7.5t-40 2.5q-43 0 -67 -11q-32 -14 -48.5 -30.5t-15.5 -47.5q2 -14 25.5 -19t63.5 -8
q22 -2 44.5 -4.5t43.5 -8.5q33 -8 60 -29.5t50 -51.5q19 -28 29 -57.5t11 -53.5v-10v-10q0 -17 -2 -36t-10.5 -38t-25 -36.5t-45.5 -30.5q49 -33 72 -68.5t23 -76.5v-11z" />
    <glyph glyph-name="dieresis" unicode="&#xa8;" horiz-adv-x="717" 
d="M284 647q17 0 28 -11t11 -28t-11 -28.5t-28 -11.5t-28.5 11.5t-11.5 28.5t11.5 28t28.5 11zM433 647q17 0 28 -11t11 -28t-11 -28.5t-28 -11.5t-28 11.5t-11 28.5t11 28t28 11z" />
    <glyph glyph-name="copyright" unicode="&#xa9;" horiz-adv-x="633" 
d="M484 196q32 36 46 70t14 69q0 30 -9 62.5t-23 69.5q-19 48 -39 77.5t-44 46t-53.5 22t-66.5 5.5h-10q-38 -1 -81 -23.5t-75 -60.5q-66 -78 -66 -183v-21.5t2 -21.5q8 -57 32.5 -93t58.5 -56t73 -27.5t76 -7.5h27q23 1 46.5 11.5t43 23t32.5 23.5t16 14zM313 674
q43 0 79 -7.5t66.5 -28t56.5 -56.5t49 -94q14 -38 26 -77t12 -80q0 -42 -17 -85.5t-62 -89.5q-1 -2 -16 -15t-39.5 -28.5t-55 -29t-63.5 -15.5h-30q-128 0 -204 59.5t-91 173.5q-2 13 -3 25.5t-1 24.5q0 62 20.5 118t60.5 101q41 48 94 75.5t104 28.5h10h4zM392 275
q10 8 20 8t20 -8q8 -10 8 -20t-8 -20q-1 0 -8 -6.5t-20 -13.5t-30.5 -13t-39.5 -6q-26 0 -55.5 9.5t-54.5 31t-42 55.5t-17 83q0 27 4 44.5t13 34.5q3 4 9.5 15t16.5 23t21.5 23.5t23.5 17.5q28 12 56 12q14 0 25 -3l8 -2q7 -2 16 -5.5t18 -8t14 -10.5q10 -11 10 -34
q0 -12 -8.5 -20t-19.5 -8t-19 7t-9 18q-5 2 -11.5 4.5t-11.5 4.5q-2 0 -5 0.5t-7 0.5q-7 0 -16 -1.5t-17 -5.5q-7 -3 -20.5 -20t-24.5 -36q-5 -8 -7.5 -18t-2.5 -33q0 -45 17.5 -70t38.5 -37t39 -14l18 -2q13 0 23.5 3t18.5 8q9 5 16 12z" />
    <glyph glyph-name="ordfeminine" unicode="&#xaa;" horiz-adv-x="313" 
d="M117 426q7 0 17.5 9t21 25t19.5 37.5t14 46.5q-4 24 -6 51.5t-2 57.5q-4 4 -8 7q-6 0 -25 -5.5t-39.5 -19.5t-36.5 -38.5t-16 -61.5q0 -41 6.5 -63t16 -32.5t20 -12t18.5 -1.5zM245 544q10 -65 22.5 -101t12.5 -37q1 -3 1.5 -5.5t0.5 -5.5q0 -18 -17 -26q-6 -2 -11 -2
q-18 0 -26 17q0 2 -5.5 16t-12.5 40q-18 -31 -42.5 -50.5t-50.5 -19.5q-117 0 -117 165q0 48 20 82.5t47.5 56.5t57 32t48.5 10q15 0 27 -5t21 -12.5t15 -16t9 -15.5q3 -6 3 -12t-4 -14q2 -15 3 -31t1 -32q0 -18 -3 -34z" />
    <glyph glyph-name="guillemotleft" unicode="&#xab;" horiz-adv-x="364" 
d="M364 39q11 -9 11 -22q0 -9 -7 -18q-7 -10 -21 -10q-11 0 -18 6q-17 14 -38 27q-12 8 -23.5 16t-21.5 17q-14 13 -25 25t-20 23q-6 8 -12 14.5t-9 8.5t-6 5.5t-10 11.5q-4 7 -4 15q0 15 13 24l9 5q13 8 31 19.5t38 29.5q6 6 12.5 12t13.5 13l22.5 22.5t25.5 22.5q8 7 18 7
q13 0 22 -11q6 -8 6 -17q0 -14 -10 -22q-24 -20 -44 -41l-14.5 -14.5t-14.5 -13.5q-15 -14 -29 -23.5t-26 -17.5q2 -4 5 -7t6 -7q8 -10 18 -20.5t21 -21.5q17 -14 39 -28q11 -8 21 -15t21 -15zM223 39q10 -8 10 -21q0 -11 -6 -18q-9 -10 -22 -10q-9 0 -18 6
q-14 11 -26.5 22.5t-23.5 22.5q-6 7 -12.5 13t-12.5 11q-25 23 -45 37.5t-31 22.5q-6 4 -11 13q-5 7 -5 15q0 15 15 24q13 8 33 21.5t43 34.5q7 5 13 12.5t13 15.5q10 12 20.5 24t24.5 23q7 6 17 6q6 0 12 -2.5t10 -7.5q6 -8 6 -18q0 -14 -10 -21q-11 -8 -19.5 -18
t-17.5 -21q-8 -9 -15.5 -18t-15.5 -17q-14 -13 -27.5 -23t-24.5 -18q11 -8 24.5 -19t28.5 -24l12.5 -12.5t13.5 -12.5q11 -11 22.5 -21.5t24.5 -21.5z" />
    <glyph glyph-name="logicalnot" unicode="&#xac;" horiz-adv-x="620" 
d="M580 275q-3 -15 -3 -41q0 -14 1.5 -28.5t4 -27t4.5 -21.5t2 -12q0 -22 -28 -28q-22 0 -27 21q0 1 -2.5 10t-4.5 22.5t-4 30.5t-2 33q0 28 3 46q-25 3 -72 6.5t-113 3.5q-48 0 -99 -3t-93 -6t-69.5 -6t-29.5 -3q-11 0 -18.5 7t-9.5 21q0 11 7 18.5t18 8.5q3 0 30.5 3
t70 6.5t93.5 6.5t100 3q100 0 158.5 -7t61.5 -7q12 -3 18 -12q5 -5 7 -11t0 -19q-2 -6 -4 -15z" />
    <glyph glyph-name="sfthyphen" unicode="&#xad;" horiz-adv-x="519" 
d="M466 352q10 -2 16.5 -10.5t5.5 -22.5q-5 -22 -33 -22q-1 0 -46.5 7t-122.5 7q-39 0 -80 -3t-75.5 -6.5t-57.5 -6.5t-25 -3q-10 0 -18 7t-10 21q0 11 6.5 18.5t17.5 9.5q2 0 25 3t57.5 6.5t76.5 6.5t83 3q81 0 129.5 -7t50.5 -8z" />
    <glyph glyph-name="registered" unicode="&#xae;" horiz-adv-x="633" 
d="M484 196q32 36 46 70t14 69q0 30 -9 62.5t-23 69.5q-19 48 -39 77.5t-44 46t-53.5 22t-66.5 5.5h-10q-38 -1 -81 -23.5t-75 -60.5q-66 -78 -66 -183v-21.5t2 -21.5q8 -57 32.5 -93t58.5 -56t73 -27.5t76 -7.5h27q23 1 46.5 11.5t43 23t32.5 23.5t16 14zM313 674
q43 0 79 -7.5t66.5 -28t56.5 -56.5t49 -94q14 -38 26 -76.5t12 -80.5t-17 -85.5t-62 -89.5q-1 -2 -16 -15t-39.5 -28.5t-55 -29t-63.5 -15.5h-30q-128 0 -204 59.5t-91 173.5q-2 13 -3 25.5t-1 24.5q0 62 20.5 118t60.5 101q41 48 94 75.5t104 28.5h10h4zM347 390
q20 5 24 14t6 30q0 9 -8 24t-24 20q-40 10 -62 10q-9 0 -17 -1.5t-17 -3.5q2 -25 5 -52t8 -45h34q15 0 28.5 1t22.5 3zM412 299q22 -27 32.5 -44.5t11.5 -19.5q3 -6 3 -12q0 -18 -15 -25q-8 -4 -13 -4q-17 0 -25 16l-9 15q-5 7 -12 17t-16 21q-9 12 -20 23.5t-21.5 21
t-18.5 15.5t-12 7q-9 -1 -18.5 -0.5t-20.5 0.5q2 -26 5 -55.5t5 -46.5q0 -11 -7 -19t-21 -9q-11 0 -18.5 7t-9.5 18q0 2 -2 22t-4.5 45.5t-4.5 50.5t-2 38q0 9 -0.5 23t-2 29.5t-3.5 32t-4 31.5v12l-1 10q0 22 28 28q11 0 20 -9l22 4t24 2q15 0 33.5 -3t43.5 -9
q19 -5 33 -16.5t23 -25.5t13.5 -29t4.5 -28v-4.5t-1 -7.5q-1 -8 -2.5 -19t-7.5 -22.5t-17 -22t-30 -17.5q9 -9 19 -19.5t18 -21.5z" />
    <glyph glyph-name="macron" unicode="&#xaf;" horiz-adv-x="717" 
d="M485.5 593q8.5 -8 8.5 -20q0 -11 -8.5 -19.5t-19.5 -8.5l-215 1q-12 0 -20 8t-8 20q0 11 8 19.5t20 8.5l215 -1q11 0 19.5 -8z" />
    <glyph glyph-name="degree" unicode="&#xb0;" horiz-adv-x="346" 
d="M143 499q-22 0 -42 12t-35.5 31.5t-25 45t-9.5 52.5q0 66 35 105t95 39h12q61 -5 90 -52q21 -33 21.5 -71.5t-10.5 -67.5q-17 -42 -53 -68t-78 -26zM161 728q-39 0 -57 -25q-17 -23 -17 -63q0 -17 5.5 -32.5t14 -27t18.5 -18.5t18 -7q21 0 44.5 15t34.5 44q7 18 6.5 43
t-12.5 45q-14 23 -46 26h-9z" />
    <glyph glyph-name="plusminus" unicode="&#xb1;" horiz-adv-x="498" 
d="M456 160q10 -2 16 -10t6 -18v-5q-2 -10 -9.5 -16.5t-18.5 -6.5h-6q-20 3 -46 7q-22 2 -53.5 4.5t-69.5 2.5q-39 0 -80 -3t-75 -6t-55.5 -6t-22.5 -3q-1 -1 -4 -1q-11 0 -18.5 7t-9.5 18v4q0 10 7 18t18 10q2 0 24.5 3t57 6t76.5 6t82 3q82 0 130.5 -6.5t50.5 -7.5z
M466 354q22 -5 22 -27v-5q-5 -23 -27 -23h-6q-20 3 -46 7q-23 2 -54 4.5t-69 1.5h-12q0 -11 0.5 -23.5t0.5 -24v-19.5v-8v-5q0 -11 -6 -18t-17 -9h-4q-11 0 -18.5 6t-9.5 17q0 1 -0.5 10.5t-0.5 22t-0.5 26t-0.5 23.5q-32 -2 -61.5 -4.5t-52.5 -4.5t-37 -4l-15 -2
q-1 -1 -4 -1q-10 0 -18 6.5t-10 17.5v5q0 10 7 17.5t18 9.5q1 0 16 2t39 4.5t54 5.5t63 5q1 79 7.5 127t6.5 50q2 9 10.5 15t17.5 6h6q10 -2 16.5 -9.5t6.5 -17.5q0 -2 -0.5 -3.5t-0.5 -3.5q-4 -19 -7 -44q-3 -21 -5 -51t-2 -67h13q40 0 73 -2t56.5 -5t36.5 -5.5t14 -2.5z
" />
    <glyph glyph-name="twosuperior" unicode="&#xb2;" horiz-adv-x="328" 
d="M263 478q11 -2 17.5 -10t6.5 -22q-2 -11 -10 -17.5t-22 -6.5q-6 0 -14 1q-7 1 -16 1.5t-20 0.5h-21q-17 -1 -34 -3t-32 -4t-25.5 -3.5t-12.5 -1.5h-5t-10 1q-11 0 -19 8.5t-8 19.5q0 20 8 39.5t20.5 37.5t28 33t30.5 26q6 5 12.5 9t11.5 8q23 16 36.5 28t13.5 29
q0 20 -5.5 33.5t-30.5 23.5q-17 7 -27 7t-34 -6q-7 -2 -12 -6.5t-8 -9.5q-4 -5 -7 -12q-7 -20 -35 -19q-9 3 -14.5 11.5t-3.5 24.5q1 2 4.5 10.5t11 19t20 20.5t30.5 15q14 3 25 5.5t23 2.5q20 0 48 -11q25 -10 39.5 -24t21.5 -29.5t8.5 -31.5t1.5 -29q0 -18 -6.5 -32
t-17 -25.5t-24 -21.5t-26.5 -19q-5 -4 -11 -7.5t-11 -8.5q-18 -13 -32.5 -29t-22.5 -31q16 2 36.5 4.5t40.5 3.5h24q26 0 41.5 -1.5t16.5 -1.5z" />
    <glyph glyph-name="threesuperior" unicode="&#xb3;" horiz-adv-x="338" 
d="M190 645q20 -8 35 -19t25 -22q17 -19 27 -41t10 -42q0 -2 -0.5 -4.5t-0.5 -8.5q-2 -12 -4.5 -26.5t-11 -28.5t-25 -27t-44.5 -21q-25 -7 -45 -7q-15 0 -29 3t-32 8q-20 6 -34 17t-22.5 23t-13 22.5t-5.5 15.5q0 8 6.5 15.5t21.5 12.5q9 0 16.5 -5t10.5 -14q4 -10 10 -16
t11 -10q6 -4 13 -6q17 -5 27.5 -7.5t19.5 -2.5q7 0 14 1.5t16 3.5q15 4 23 9.5t12.5 13t6 17t3.5 22.5q0 5 -4.5 18t-17.5 28q-10 11 -27 20.5t-43 9.5q-2 0 -5 1t-11 5q-1 0 -1.5 1.5t-5.5 6.5q-1 0 -1.5 1.5t-2.5 8.5v11q0 -1 5 10q6 8 14 18t16 21l19 23h-14
q-16 0 -32.5 -1t-30.5 -2.5t-24 -2.5t-11 -1q-11 0 -18.5 7t-9.5 21q0 10 6.5 17.5t17.5 9.5q1 0 10.5 1.5t24 3t32.5 2.5t35 1q38 0 58 -3q6 2 10 2q3 0 7.5 -1.5t12.5 -7.5q13 -8 12 -29q-3 -16 -19 -21q-8 -10 -18.5 -23.5z" />
    <glyph glyph-name="acute" unicode="&#xb4;" horiz-adv-x="717" 
d="M418 668q9 6 19 6q12 0 21 -9q7 -11 7 -19q0 -11 -10 -21q-14 -12 -23 -19t-16 -13q-9 -7 -18 -14.5t-26 -21.5q-14 -13 -21 -21t-13 -16q-7 -8 -15 -17.5t-24 -24.5q-7 -7 -19 -7q-13 0 -20 9q-8 8 -8 19q0 12 9 20q14 13 20.5 20.5t12.5 15.5q7 9 15.5 19t25.5 25
t27 23t19 15q8 6 16 13t21 18z" />
    <glyph glyph-name="mu" unicode="&#xb5;" horiz-adv-x="405" 
d="M355 342q8 -24 13.5 -51t5.5 -53q0 -22 -5 -42.5t-18 -37.5q-36 -48 -117 -48q-32 0 -56.5 9t-44.5 23q5 -36 8 -63.5t4 -32.5q0 -11 -7.5 -18.5t-20.5 -9.5q-11 0 -18.5 7t-9.5 18l-2 23q-3 22 -7.5 53.5l-9.5 66.5t-11 61q-6 27 -11 61t-8.5 64.5t-6 52.5t-2.5 25
q0 11 7.5 18.5t20.5 9.5q11 0 18.5 -7.5t9.5 -18.5l2 -18l5 -45t7.5 -58t9.5 -58q0 -2 6 -19t19.5 -36.5t37.5 -35.5t60 -16q53 0 72 25q7 9 9.5 21t2.5 26q0 26 -6 51t-10 37q-8 25 -10 41q-2 4 -2 7.5t-2 6.5q-4 15 -4 34q0 18 3 31.5t4 15.5q6 19 36 18q8 -3 13.5 -11.5
t3.5 -23.5q-1 -4 -2.5 -12.5t-1.5 -17.5v-9t2 -9t2.5 -9.5t2.5 -9.5q1 -8 3 -16.5t5 -19.5z" />
    <glyph glyph-name="paragraph" unicode="&#xb6;" horiz-adv-x="507" 
d="M314 473q11 1 20.5 1h20.5q-2 27 -4 57t-4.5 59t-5.5 56t-6 49q-18 5 -34 8t-32 5q3 -24 6 -53t5.5 -60.5t4.5 -63t4 -59.5zM152 479q16 -4 37 -5.5t44 -1.5q-2 29 -4 61.5t-4.5 63.5t-6 59.5t-6.5 50.5q-32 -3 -84 -18q-17 -5 -28.5 -16t-19 -24.5t-11 -28t-3.5 -26.5
q0 -6 4 -23q3 -15 7 -28.5t12 -25.5t23 -21.5t40 -16.5zM413 397q0 -19 2.5 -54t6 -76.5t7.5 -85t8 -79t6.5 -59t2.5 -24.5q0 -11 -7.5 -19t-20.5 -9q-11 0 -19 7t-9 18q0 3 -2.5 27t-6.5 59.5t-8 78.5t-7.5 84.5t-6 76.5t-2.5 55v21h-21t-21 -1l-24 -1v-19q0 -19 2.5 -54
t6 -76.5t8 -85t8 -79t6 -59t2.5 -24.5q0 -11 -7 -19t-21 -9q-11 0 -18.5 7t-9.5 18q0 3 -2.5 27t-6.5 59.5t-8 78.5t-7.5 84.5t-6 76.5t-2.5 55v19q-28 0 -53 2t-45 7q-38 10 -60.5 26.5t-35 36t-18.5 40.5t-10 40q-3 12 -3 26q0 21 6 44t19 44t32 37t45 24q38 11 67 15.5
t58 6.5h12q23 0 43 -3.5t42 -8.5q6 9 23 12q10 0 18 -7t11 -23q6 -8 6 -18v-3.5t-2 -6.5q5 -33 9 -76.5t7 -87t5 -82.5t2 -64z" />
    <glyph glyph-name="periodcentered" unicode="&#xb7;" horiz-adv-x="140" 
d="M70 362q17 0 28.5 -11.5t11.5 -28.5q0 -16 -11.5 -27.5t-28.5 -11.5t-28 11.5t-11 27.5q0 17 11 28.5t28 11.5z" />
    <glyph glyph-name="cedilla" unicode="&#xb8;" horiz-adv-x="717" 
d="M364 -20q28 -3 58.5 -12t50.5 -29q24 -24 24 -55q0 -45 -40 -67q-32 -18 -79 -18q-38 0 -76.5 10t-67.5 27q-14 8 -14 24q0 8 4 15q8 13 24 13q8 0 14 -3q24 -14 56 -22t61 -8q30 0 50 10q8 5 10 9.5t2 9.5q0 8 -7 15q-8 8 -23 13.5t-33 9t-37.5 5t-37.5 1.5l-67 -2
l46 49l10 10q9 10 21.5 23.5t25.5 28t21 24.5q10 10 22 10q11 0 18 -7q10 -7 10 -21q0 -11 -7 -18q-7 -9 -17.5 -21t-21.5 -24z" />
    <glyph glyph-name="onesuperior" unicode="&#xb9;" horiz-adv-x="222" 
d="M147 586q0 -10 1.5 -30.5t3.5 -44t4 -46t4 -36.5q0 -11 -7.5 -18.5t-20.5 -9.5q-11 0 -18.5 7t-9.5 18q0 2 -2 22.5t-4.5 46.5t-4.5 52t-2 39q0 17 -2 45t-4 53q-5 -3 -8.5 -5.5t-5.5 -4.5q-3 -3 -5 -4q-8 -6 -18 -6q-14 0 -21 10q-7 9 -7 18q0 13 11 21q1 1 17.5 13.5
t37.5 26.5q7 4 15 4q6 0 12 -3q18 -3 21 -21q3 -12 5 -32t4 -41.5t3 -41.5t1 -32z" />
    <glyph glyph-name="ordmasculine" unicode="&#xba;" horiz-adv-x="297" 
d="M124 422q7 0 20 9t25.5 25.5t21.5 39t9 50.5q0 43 -13.5 70t-24.5 36l-12 -2q-9 0 -17 4q-7 0 -11 3q-9 -7 -20.5 -24t-21.5 -38.5t-17 -46.5t-7 -48q0 -21 7 -36t17.5 -24.5t22 -13.5t21.5 -4zM160 713q14 0 31 -12t31.5 -34t24 -53t9.5 -68q0 -39 -13.5 -72t-33 -57
t-43 -37.5t-42.5 -13.5q-23 0 -45 9t-39.5 26.5t-28.5 42t-11 56.5q0 31 10.5 68.5t28.5 70.5t42 55.5t50 22.5q6 0 12 -1t17 -3z" />
    <glyph glyph-name="guillemotright" unicode="&#xbb;" horiz-adv-x="364" 
d="M31 30q21 16 42 30q11 8 21 14.5t18 13.5q11 11 21 21.5t18 20.5q3 4 6 7.5t5 6.5q-12 8 -26 18t-29 24q-8 6 -14.5 12.5l-14.5 14.5q-20 21 -44 41q-10 10 -10 22q0 9 6 17q9 11 22 11q9 0 18 -6q14 -11 25.5 -22.5l22.5 -22.5q7 -8 13.5 -14t12.5 -12q20 -17 38 -28.5
t31 -19.5l9 -6q7 -4 10 -10.5t3 -13.5q0 -8 -4 -15q-7 -8 -10 -11t-6 -5t-9 -9t-12 -15q-9 -10 -20 -22.5t-25 -24.5q-10 -9 -21.5 -17.5t-23.5 -16.5q-21 -13 -38 -27q-8 -6 -17 -6q-14 0 -22 10q-7 10 -7 18q0 13 11 22zM172 31q13 10 24.5 20.5t22.5 21.5q7 7 13.5 13
t12.5 12q15 14 28.5 24.5t24.5 19.5q-22 14 -52 40q-8 8 -15.5 17t-15.5 18q-9 11 -17.5 21t-19.5 18q-5 4 -7.5 10t-2.5 12q0 9 6 17q8 11 22 11q10 0 17 -7q14 -11 24.5 -23t20.5 -23q7 -8 13 -15.5t13 -13.5q23 -21 43 -34t33 -21q15 -11 15 -25q0 -7 -5 -15
q-5 -9 -11 -13q-11 -7 -31 -22t-45 -38q-6 -5 -12.5 -11t-12.5 -12q-11 -11 -23.5 -23t-26.5 -23q-9 -6 -18 -6q-13 0 -22 10q-6 9 -6 18q0 12 10 22z" />
    <glyph glyph-name="onequarter" unicode="&#xbc;" horiz-adv-x="622" 
d="M569 193q22 -5 21 -33q-2 -10 -9 -16t-17 -6q2 -26 4.5 -51.5t4.5 -42.5q0 -11 -7 -19t-21 -9q-11 0 -18.5 7t-9.5 18q0 1 -1 10.5t-2.5 24t-3.5 32.5t-3 35h-17q-15 0 -31.5 -1t-31 -2.5t-24.5 -2.5t-12 -1q-11 0 -19.5 8t-8.5 20t-1 31t-2.5 39.5t-3.5 39.5t-4 31
q0 10 7 18t21 10q22 0 27 -23q2 -9 3.5 -23t3 -29.5t2.5 -32t2 -30.5q15 2 34.5 3t37.5 1q9 0 14 1q0 12 -1.5 31.5t-3 40t-3.5 39.5t-4 31q0 22 28 28q10 0 18 -6.5t10 -16.5q2 -12 4 -32t3.5 -41.5t3 -41.5t1.5 -32zM482 722q17 -8 17 -26q0 -7 -2 -11q-12 -27 -36 -72.5
t-51 -94t-53 -93t-43 -71.5q-12 -18 -31 -51.5t-41 -73.5t-44.5 -82t-40.5 -76t-30 -56t-12 -23q-8 -15 -25 -15q-7 0 -13 3q-15 8 -15 25q0 7 3 13q2 3 14 26t30.5 57.5t41 76t44.5 81.5t41 73t31 52q18 29 44.5 73.5t52.5 92t48.5 90t33.5 67.5q6 17 25 17q8 0 11 -2z
M85 684q-5 -3 -8.5 -5.5t-5.5 -4.5q-3 -3 -5 -4q-8 -6 -18 -6q-14 0 -21 10q-7 9 -7 18q0 13 11 21q1 1 17.5 13.5t37.5 26.5q7 4 15 4q6 0 12 -3q18 -3 21 -21q3 -12 5 -32t4 -41.5t3 -41.5t1 -32q0 -10 1.5 -30.5t3.5 -44t4 -46t4 -36.5q0 -11 -7.5 -18.5t-20.5 -9.5
q-11 0 -18.5 7t-9.5 18q0 2 -2 22.5t-4.5 46.5t-4.5 52t-2 39q0 17 -2 45t-4 53z" />
    <glyph glyph-name="onehalf" unicode="&#xbd;" horiz-adv-x="646" 
d="M602 54q11 -2 17.5 -10t5.5 -22q-2 -10 -10 -16.5t-22 -6.5q-5 0 -13 1q-7 1 -16.5 1.5t-20.5 0.5h-10t-11 -1q-17 0 -34 -2t-32 -4t-25 -4t-12 -2q-3 0 -6 0.5t-9 0.5q-11 0 -19.5 8.5t-8.5 20.5q0 20 8.5 39.5t21 37t28 33t30.5 26.5q6 5 12 8.5t12 8.5q23 16 36.5 28
t13.5 29q0 20 -6 33.5t-30 23.5q-17 7 -27 7q-7 0 -14.5 -2t-19.5 -5q-8 -2 -13 -6.5t-8 -9.5q-4 -6 -6 -12q-6 -19 -35 -18q-20 7 -19 35q1 2 4.5 11t11.5 19.5t20 20.5t30 15q14 3 25.5 5.5t22.5 2.5q22 0 48 -11q25 -10 39.5 -24t22 -30t9 -31.5t1.5 -28.5
q-1 -36 -24 -58t-50 -40q-6 -4 -11.5 -8t-11.5 -8q-17 -14 -31.5 -29.5t-22.5 -31.5q34 6 77 8q6 1 12 1h12q26 0 41.5 -1.5t16.5 -2.5zM85 684q-5 -3 -8.5 -5.5t-5.5 -4.5q-3 -3 -5 -4q-8 -6 -18 -6q-14 0 -21 10q-7 9 -7 18q0 13 11 21q1 1 17.5 13.5t37.5 26.5q7 4 15 4
q6 0 12 -3q18 -3 21 -21q3 -12 5 -32t4 -41.5t3 -41.5t1 -32q0 -10 1.5 -30.5t3.5 -44t4 -46t4 -36.5q0 -11 -7.5 -18.5t-20.5 -9.5q-11 0 -18.5 7t-9.5 18q0 2 -2 22.5t-4.5 46.5t-4.5 52t-2 39q0 17 -2 45t-4 53zM482 722q17 -8 17 -26q0 -7 -2 -11q-12 -27 -36 -72.5
t-51 -94t-53 -93t-43 -71.5q-12 -18 -31 -51.5t-41 -73.5t-44.5 -82t-40.5 -76t-30 -56t-12 -23q-8 -15 -25 -15q-7 0 -13 3q-15 8 -15 25q0 7 3 13q2 3 14 26t30.5 57.5t41 76t44.5 81.5t41 73t31 52q18 29 44.5 73.5t52.5 92t48.5 90t33.5 67.5q6 17 25 17q8 0 11 -2z" />
    <glyph glyph-name="threequarters" unicode="&#xbe;" horiz-adv-x="659" 
d="M606 193q22 -5 22 -33q-2 -10 -9.5 -16t-16.5 -6q2 -26 4.5 -51.5t4.5 -42.5q0 -11 -7.5 -19t-20.5 -9q-11 0 -18.5 7t-9.5 18q0 1 -1 10.5t-2.5 24t-3.5 32.5t-3 35h-17q-16 0 -32.5 -1t-31 -2.5t-24 -2.5t-11.5 -1q-12 0 -20 8t-8 20t-1 31t-2.5 39.5t-4 39.5t-4.5 31
q0 10 7 18t21 10q10 0 18 -6t10 -17q1 -9 3 -23t3.5 -29.5t2.5 -32t2 -30.5q15 2 34 3t38 1q9 0 13 1q0 12 -1.5 31.5t-3 40t-3 39.5t-3.5 31q0 22 28 28q10 0 17.5 -6.5t9.5 -16.5q3 -12 5 -32t3.5 -41.5t2.5 -41.5t1 -32zM201 405q-25 -7 -45 -7q-15 0 -29 3t-32 8
q-20 6 -34 17t-22.5 23t-13 22.5t-5.5 15.5q0 8 6.5 15.5t21.5 12.5q9 0 16.5 -5t10.5 -14q4 -10 10 -16t11 -10q6 -4 13 -6q17 -5 27.5 -7.5t19.5 -2.5q7 0 14 1.5t16 3.5q15 4 23 9.5t12.5 13t6 17t3.5 22.5q0 5 -4.5 18t-17.5 28q-10 11 -27 20.5t-43 9.5q-2 0 -5 1
t-11 5q-1 0 -1.5 1.5t-5.5 6.5q-1 0 -1.5 1.5t-2.5 8.5v11q0 -1 5 10q6 8 14 18t16 21l19 23h-14q-16 0 -32.5 -1t-30.5 -2.5t-24 -2.5t-11 -1q-11 0 -18.5 7t-9.5 21q0 10 6.5 17.5t17.5 9.5q1 0 10.5 1.5t24 3t32.5 2.5t35 1q38 0 58 -3q6 2 10 2q3 0 7.5 -1.5t12.5 -7.5
q13 -8 12 -29q-3 -16 -19 -21q-8 -10 -18.5 -23.5l-24.5 -31.5q20 -8 35 -19t25 -22q17 -19 27 -41t10 -42q0 -2 -0.5 -4.5t-0.5 -8.5q-2 -12 -4.5 -26.5t-11 -28.5t-25 -27t-44.5 -21zM520 722q17 -9 17 -26q0 -3 -2 -11q-12 -27 -36 -72.5t-51 -94t-53.5 -93t-43.5 -71.5
q-12 -18 -31 -51.5t-40.5 -73.5t-44 -82t-41 -76t-30 -56t-11.5 -23q-8 -15 -25 -15q-7 0 -13 3q-8 4 -11.5 10.5t-3.5 14.5q0 7 3 13q1 3 13.5 26t30.5 57.5t40.5 76t44.5 81.5t41 73t31 52q18 29 44.5 73.5t52.5 92t48.5 90t33.5 67.5q8 17 26 17q7 0 11 -2z" />
    <glyph glyph-name="questiondown" unicode="&#xbf;" horiz-adv-x="506" 
d="M243 675q-16 0 -27 11t-13 29q0 15 11 26.5t29 12.5q15 0 26.5 -11t12.5 -28q0 -16 -10.5 -27t-25.5 -13h-3zM204 5q-56 15 -88 42t-48 58.5t-20.5 63t-6.5 55.5v12q0 26 7.5 47.5t19.5 40t27 35t30 31.5q18 18 35.5 37.5t31.5 42.5t22.5 51.5t8.5 65.5q0 6 -0.5 11.5
t-0.5 13.5q0 11 7.5 19t20.5 9q11 0 19 -7.5t9 -18.5q0 -7 0.5 -13.5t0.5 -13.5q0 -46 -10.5 -81.5t-27 -63.5t-37 -50t-39.5 -41q-14 -14 -26.5 -27.5t-21.5 -28t-14.5 -31t-5.5 -36.5q2 -29 7 -55t17.5 -48t35 -39t61.5 -27q34 -9 57 -9t46 8t60 23q23 9 38.5 27t24.5 36
t13 32l4 13q5 22 33 22q22 -5 22 -33q0 -2 -5.5 -20.5t-18.5 -42.5t-35 -48.5t-56 -38.5q-38 -16 -66 -25t-59 -9q-16 0 -33.5 2.5t-38.5 8.5z" />
    <glyph glyph-name="Agrave" unicode="&#xc0;" horiz-adv-x="660" 
d="M306 341q54 0 93 -3.5t62 -6.5q-5 14 -8.5 25t-6.5 19q-6 24 -17 58.5t-24.5 73t-27.5 77t-27 70.5q-15 -32 -31.5 -70.5t-32 -77t-29 -73.5t-21.5 -59q-2 -8 -5.5 -16.5t-7.5 -19.5q40 3 83 3zM500 390q5 -19 17.5 -54t27.5 -76.5t31.5 -84.5t29.5 -78.5t22 -58t9 -23.5
q2 -4 2 -10q0 -19 -18 -26q-3 -2 -10 -2q-8 0 -15.5 4.5t-10.5 13.5q-1 3 -12 30.5t-26.5 67.5t-34.5 87.5t-37 90.5q-20 3 -46 7q-22 2 -53.5 4.5t-69.5 2.5q-26 0 -53.5 -1.5t-53.5 -3.5q-18 -43 -39 -92t-40 -91t-32 -71.5t-14 -32.5q-8 -16 -26 -16q-7 0 -11 2
q-17 8 -17 26q0 5 3 11q0 1 11 25.5t27.5 62t36.5 83t38 87.5q-28 -3 -46 -5.5t-21 -2.5q-11 0 -18.5 7t-9.5 21q0 11 6.5 18.5t17.5 9.5q2 0 28.5 3.5t66.5 7.5q8 18 13.5 33t9.5 26q9 27 26.5 71.5t37.5 93t40.5 94t35.5 75.5q2 16 16 23q4 2 13 2q8 0 14 -3q13 -7 15 -23
q13 -30 30.5 -76t35 -94.5t31.5 -93t22 -71.5zM335 902q5 -8 11 -16t19 -20q9 -8 9 -20t-7 -19q-9 -9 -21 -9q-11 0 -19 7q-16 15 -24 26t-14 20l-12 16t-20 20q-14 13 -23 19t-17 11q-9 5 -19.5 12t-27.5 21q-9 9 -9 22q0 9 6 18q10 10 22 10q7 0 18 -7q14 -12 22.5 -18
t16.5 -11q10 -5 20.5 -12.5t27.5 -22.5q17 -16 26 -27t15 -20z" />
    <glyph glyph-name="Aacute" unicode="&#xc1;" horiz-adv-x="660" 
d="M306 341q54 0 93 -3.5t62 -6.5q-5 14 -8.5 25t-6.5 19q-6 24 -17 58.5t-24.5 73t-27.5 77t-27 70.5q-15 -32 -31.5 -70.5t-32 -77t-29 -73.5t-21.5 -59q-2 -8 -5.5 -16.5t-7.5 -19.5q40 3 83 3zM500 390q5 -19 17.5 -54t27.5 -76.5t31.5 -84.5t29.5 -78.5t22 -58t9 -23.5
q2 -4 2 -10q0 -19 -18 -26q-3 -2 -10 -2q-8 0 -15.5 4.5t-10.5 13.5q-1 3 -12 30.5t-26.5 67.5t-34.5 87.5t-37 90.5q-20 3 -46 7q-22 2 -53.5 4.5t-69.5 2.5q-26 0 -53.5 -1.5t-53.5 -3.5q-18 -43 -39 -92t-40 -91t-32 -71.5t-14 -32.5q-8 -16 -26 -16q-7 0 -11 2
q-17 8 -17 26q0 5 3 11q0 1 11 25.5t27.5 62t36.5 83t38 87.5q-28 -3 -46 -5.5t-21 -2.5q-11 0 -18.5 7t-9.5 21q0 11 6.5 18.5t17.5 9.5q2 0 28.5 3.5t66.5 7.5q8 18 13.5 33t9.5 26q9 27 26.5 71.5t37.5 93t40.5 94t35.5 75.5q2 16 16 23q4 2 13 2q8 0 14 -3q13 -7 15 -23
q13 -30 30.5 -76t35 -94.5t31.5 -93t22 -71.5zM409 1006q9 6 19 6q12 0 21 -9q7 -11 7 -19q0 -11 -10 -21q-14 -12 -23 -19t-16 -13q-9 -7 -18 -14.5t-26 -21.5q-14 -13 -21 -21t-13 -16q-7 -8 -15 -17.5t-24 -24.5q-7 -7 -19 -7q-13 0 -20 9q-8 8 -8 19q0 12 9 20
q14 13 20.5 20.5t12.5 15.5q7 9 15.5 19t25.5 25t27 23t19 15q8 6 16 13t21 18z" />
    <glyph glyph-name="Acircumflex" unicode="&#xc2;" horiz-adv-x="660" 
d="M527 836q0 -11 -7 -18q-7 -10 -21 -10q-11 0 -18 6l-71 57l-61 47l-50 -46l-61 -63q-8 -9 -20 -9q-11 0 -19 8q-9 9 -9 20q0 10 8 20l62 65l65 59q8 7 19 7q8 0 11 -2q9 0 17 -6l72 -56l72 -57q11 -9 11 -22zM306 341q54 0 93 -3.5t62 -6.5q-5 14 -8.5 25t-6.5 19
q-6 24 -17 58.5t-24.5 73t-27.5 77t-27 70.5q-15 -32 -31.5 -70.5t-32 -77t-29 -73.5t-21.5 -59q-2 -8 -5.5 -16.5t-7.5 -19.5q40 3 83 3zM500 390q5 -19 17.5 -54t27.5 -76.5t31.5 -84.5t29.5 -78.5t22 -58t9 -23.5q2 -4 2 -10q0 -19 -18 -26q-3 -2 -10 -2q-8 0 -15.5 4.5
t-10.5 13.5q-1 3 -12 30.5t-26.5 67.5t-34.5 87.5t-37 90.5q-20 3 -46 7q-22 2 -53.5 4.5t-69.5 2.5q-26 0 -53.5 -1.5t-53.5 -3.5q-18 -43 -39 -92t-40 -91t-32 -71.5t-14 -32.5q-8 -16 -26 -16q-7 0 -11 2q-17 8 -17 26q0 5 3 11q0 1 11 25.5t27.5 62t36.5 83t38 87.5
q-28 -3 -46 -5.5t-21 -2.5q-11 0 -18.5 7t-9.5 21q0 11 6.5 18.5t17.5 9.5q2 0 28.5 3.5t66.5 7.5q8 18 13.5 33t9.5 26q9 27 26.5 71.5t37.5 93t40.5 94t35.5 75.5q2 16 16 23q4 2 13 2q8 0 14 -3q13 -7 15 -23q13 -30 30.5 -76t35 -94.5t31.5 -93t22 -71.5z" />
    <glyph glyph-name="Atilde" unicode="&#xc3;" horiz-adv-x="660" 
d="M505 911q11 -8 11 -22q0 -9 -5 -17q-23 -30 -44.5 -42t-41.5 -12q-23 0 -44.5 10.5t-44.5 23.5q-15 8 -31 8q-37 0 -72 -50q-8 -12 -23 -12q-8 0 -16 5q-12 9 -12 23q0 8 6 16q52 75 117 75q29 0 58 -17q23 -12 36.5 -19t24.5 -7t20.5 7.5t21.5 24.5q8 11 22 11
q9 0 17 -6zM306 341q54 0 93 -3.5t62 -6.5q-5 14 -8.5 25t-6.5 19q-6 24 -17 58.5t-24.5 73t-27.5 77t-27 70.5q-15 -32 -31.5 -70.5t-32 -77t-29 -73.5t-21.5 -59q-2 -8 -5.5 -16.5t-7.5 -19.5q40 3 83 3zM500 390q5 -19 17.5 -54t27.5 -76.5t31.5 -84.5t29.5 -78.5t22 -58
t9 -23.5q2 -4 2 -10q0 -19 -18 -26q-3 -2 -10 -2q-8 0 -15.5 4.5t-10.5 13.5q-1 3 -12 30.5t-26.5 67.5t-34.5 87.5t-37 90.5q-20 3 -46 7q-22 2 -53.5 4.5t-69.5 2.5q-26 0 -53.5 -1.5t-53.5 -3.5q-18 -43 -39 -92t-40 -91t-32 -71.5t-14 -32.5q-8 -16 -26 -16q-7 0 -11 2
q-17 8 -17 26q0 5 3 11q0 1 11 25.5t27.5 62t36.5 83t38 87.5q-28 -3 -46 -5.5t-21 -2.5q-11 0 -18.5 7t-9.5 21q0 11 6.5 18.5t17.5 9.5q2 0 28.5 3.5t66.5 7.5q8 18 13.5 33t9.5 26q9 27 26.5 71.5t37.5 93t40.5 94t35.5 75.5q2 16 16 23q4 2 13 2q8 0 14 -3q13 -7 15 -23
q13 -30 30.5 -76t35 -94.5t31.5 -93t22 -71.5z" />
    <glyph glyph-name="Adieresis" unicode="&#xc4;" horiz-adv-x="660" 
d="M306 341q54 0 93 -3.5t62 -6.5q-5 14 -8.5 25t-6.5 19q-6 24 -17 58.5t-24.5 73t-27.5 77t-27 70.5q-15 -32 -31.5 -70.5t-32 -77t-29 -73.5t-21.5 -59q-2 -8 -5.5 -16.5t-7.5 -19.5q40 3 83 3zM500 390q5 -19 17.5 -54t27.5 -76.5t31.5 -84.5t29.5 -78.5t22 -58t9 -23.5
q2 -4 2 -10q0 -19 -18 -26q-3 -2 -10 -2q-8 0 -15.5 4.5t-10.5 13.5q-1 3 -12 30.5t-26.5 67.5t-34.5 87.5t-37 90.5q-20 3 -46 7q-22 2 -53.5 4.5t-69.5 2.5q-26 0 -53.5 -1.5t-53.5 -3.5q-18 -43 -39 -92t-40 -91t-32 -71.5t-14 -32.5q-8 -16 -26 -16q-7 0 -11 2
q-17 8 -17 26q0 5 3 11q0 1 11 25.5t27.5 62t36.5 83t38 87.5q-28 -3 -46 -5.5t-21 -2.5q-11 0 -18.5 7t-9.5 21q0 11 6.5 18.5t17.5 9.5q2 0 28.5 3.5t66.5 7.5q8 18 13.5 33t9.5 26q9 27 26.5 71.5t37.5 93t40.5 94t35.5 75.5q2 16 16 23q4 2 13 2q8 0 14 -3q13 -7 15 -23
q13 -30 30.5 -76t35 -94.5t31.5 -93t22 -71.5zM275 903q17 0 28 -11t11 -28t-11 -28.5t-28 -11.5t-28.5 11.5t-11.5 28.5t11.5 28t28.5 11zM424 903q17 0 28 -11t11 -28t-11 -28.5t-28 -11.5t-28 11.5t-11 28.5t11 28t28 11z" />
    <glyph glyph-name="Aring" unicode="&#xc5;" horiz-adv-x="660" 
d="M306 341q54 0 93 -3.5t62 -6.5q-5 14 -8.5 25t-6.5 19q-6 24 -17 58.5t-24.5 73t-27.5 77t-27 70.5q-15 -32 -31.5 -70.5t-32 -77t-29 -73.5t-21.5 -59q-2 -8 -5.5 -16.5t-7.5 -19.5q40 3 83 3zM405 810q6 12 6 30q0 21 -10 37q-11 16 -33 18q-20 0 -32 -5.5t-18.5 -15.5
t-9 -21.5t-2.5 -23.5q0 -14 4.5 -25.5t11 -19.5t13.5 -13t12 -5q15 0 32.5 11t25.5 33zM372 951q51 -3 77 -44q10 -15 14 -32.5t4 -34.5q0 -14 -2.5 -26.5t-6.5 -23.5q-22 -54 -74 -73q14 -32 31 -77t33.5 -91.5t30.5 -89t21 -69.5q5 -19 17.5 -54t27.5 -76.5t31.5 -84.5
t29.5 -78.5t22 -58t9 -23.5q2 -4 2 -10q0 -19 -18 -26q-3 -2 -10 -2q-8 0 -15.5 4.5t-10.5 13.5q-1 3 -11.5 30.5t-26 67.5t-33.5 87.5t-33 90.5q-5 0 -51 7t-124 7q-26 0 -53.5 -1.5t-53.5 -3.5q-18 -43 -39 -92t-40 -91t-32 -71.5t-14 -32.5q-8 -16 -26 -16q-7 0 -11 2
q-17 8 -17 26q0 5 3 11q0 1 11 25.5t27.5 62t36.5 83t38 87.5q-14 -2 -25.5 -3.5t-19.5 -2.5q-10 -2 -18 -2q-14 0 -22 6.5t-10 17.5q0 14 6.5 22t17.5 10q2 0 28.5 3.5t66.5 7.5q8 18 13.5 33t9.5 26q9 26 25.5 68t35.5 88.5t38.5 91t35.5 76.5q-29 13 -48.5 44.5
t-19.5 68.5q0 57 30 90t81 33q7 0 11 -1z" />
    <glyph glyph-name="AE" unicode="&#xc6;" horiz-adv-x="1018" 
d="M357 341q47 0 83 -3t59 -6q-1 16 -1.5 28.5t-0.5 22.5q0 24 -1.5 59.5t-4 74.5t-6 77.5t-7.5 70.5q-22 -32 -49 -72t-53 -81.5t-49 -79t-38 -63.5q-4 -6 -8.5 -14t-10.5 -17q43 3 87 3zM995 37q11 -2 17 -10.5t5 -22.5q-5 -23 -33 -22q-20 3 -46 6q-23 2 -54 4.5t-69 2.5
q-39 0 -80 -3t-75.5 -6t-57 -6t-24.5 -3q-7 0 -10 1q-2 0 -4 -0.5t-6 -0.5q-11 0 -18.5 7t-9.5 18q0 3 -3 30t-7 66.5t-8.5 86.5t-7.5 90q-21 3 -58.5 6.5t-88.5 3.5q-31 0 -63 -2t-61 -4q-28 -44 -60.5 -93t-61 -92t-48.5 -72.5t-22 -32.5q-8 -12 -23 -12q-9 0 -16 4
q-12 9 -12 24q0 10 5 15q0 1 16 24.5t40 60t53.5 80.5t56.5 86q-17 -2 -27.5 -3.5t-14.5 -1.5q-10 0 -17.5 7t-9.5 21q0 11 6.5 18.5t17.5 9.5q2 0 25.5 3t58.5 7q14 20 24 36.5t16 27.5q16 29 45 76t61.5 97.5t64 97t52.5 73.5q4 6 10 8.5t12 2.5h12q22 0 27 -21
q9 11 19 12q2 0 25 3t57.5 6.5t76 6.5t82.5 3q82 0 130.5 -7t50.5 -8q10 -2 16.5 -10.5t5.5 -22.5q-5 -22 -33 -22q-1 0 -46.5 7t-123.5 7q-39 0 -80 -3t-75 -6.5t-57 -6.5t-25 -3q-8 0 -16 5q4 -33 8 -76t7 -86t5 -81.5t2 -63.5q9 1 29 3.5t48 5t61 4.5t68 4q11 0 19 -8
t9 -20q0 -11 -8 -19.5t-19 -8.5q-37 -2 -72 -4.5t-63.5 -5t-47 -5t-21.5 -2.5l1 -17q2 -3 2.5 -7t-1.5 -13q3 -33 6.5 -70t7 -72.5t6.5 -65.5t5 -49q12 1 36.5 4t56.5 6t68 5t71 2q82 0 130 -7t50 -7z" />
    <glyph glyph-name="Ccedilla" unicode="&#xc7;" horiz-adv-x="590" 
d="M272 -50q28 -4 58.5 -13t50.5 -29q23 -23 23 -55q0 -44 -39 -67q-16 -9 -36 -13t-43 -4q-38 0 -76.5 10t-67.5 27q-14 8 -14 24q0 7 4 14q8 14 24 14q9 0 14 -4q24 -14 56 -21.5t61 -7.5q15 0 28 2.5t22 7.5q8 4 9.5 8.5t1.5 9.5q0 7 -6 15q-8 8 -23 14t-32 9.5t-35 4.5
t-33 1l-75 -2l46 49l8 8q7 8 18 19.5t23 24.5t21 24q-44 16 -85 46t-73 74.5t-51.5 105t-19.5 138.5q0 33 2 57.5t6.5 44t11 35.5t15.5 31q1 2 14.5 24.5t33.5 51.5t45.5 56.5t50.5 39.5q29 13 58 19t55 6q28 0 49 -6q10 -2 26 -7.5t32.5 -12.5t30.5 -15t20 -15
q8 -11 10.5 -26.5t2.5 -29.5q0 -11 -8 -19.5t-20 -8.5q-11 0 -19.5 8.5t-8.5 19.5v11t-1 10q-10 5 -33.5 15.5t-44.5 15.5q-8 2 -16.5 3t-18.5 1q-21 0 -44.5 -4.5t-44.5 -15.5q-14 -6 -30.5 -23t-33 -38.5t-31.5 -44.5t-25 -42q-7 -13 -12.5 -26t-9 -29t-5 -37t-1.5 -49
q0 -68 16 -118.5t41.5 -87.5t58 -61t65 -38.5t62 -20t49.5 -5.5q36 0 65 10t49.5 22t32.5 23l11 10q8 8 20 8t19 -7q9 -9 9 -21q0 -11 -8 -19q-1 -1 -15.5 -14t-40 -28t-61.5 -27.5t-81 -12.5q-15 0 -30.5 1.5t-31.5 5.5q-1 -5 -6 -10l-17.5 -20t-21.5 -24z" />
    <glyph glyph-name="Egrave" unicode="&#xc8;" horiz-adv-x="589" 
d="M567 51q22 -5 22 -33q-2 -11 -10.5 -17t-22.5 -5q-1 0 -46.5 6.5t-123.5 6.5q-39 0 -80 -3t-75.5 -6t-57 -6t-24.5 -3h-19q-11 0 -19 7t-9 18q-1 3 -3.5 27t-6 59.5t-7.5 78.5t-7.5 84.5t-6 76.5t-2.5 55q0 30 -2.5 77t-6.5 96.5t-9 94.5t-10 72q0 10 7 18t21 10
q22 0 27 -21q7 10 19 12q2 0 24.5 3t57 6.5t76.5 6.5t83 3q82 0 130.5 -7t50.5 -8q22 -5 22 -33q-5 -22 -34 -22q-20 3 -46 7q-22 2 -53.5 4.5t-69.5 2.5q-39 0 -80 -3t-75.5 -6.5t-57 -6.5t-24.5 -3q-9 0 -17 5q5 -33 9 -76t7 -86t5 -81.5t2 -63.5q9 1 29 3.5t47.5 5
t60.5 4.5t68 4q11 0 19.5 -8t8.5 -20q0 -11 -8 -19.5t-19 -8.5q-36 -2 -71.5 -4.5t-63.5 -5t-47 -5t-22 -2.5q2 -34 6 -75.5l8 -83t7.5 -77.5t6.5 -58q12 1 36.5 4t56.5 6t67.5 5t70.5 2q82 0 130.5 -7t50.5 -7zM345 923q5 -8 11 -16t19 -20q9 -8 9 -20t-7 -19q-9 -9 -21 -9
q-11 0 -19 7q-16 15 -24 26t-14 20l-12 16t-20 20q-14 13 -23 19t-17 11q-9 5 -19.5 12t-27.5 21q-9 9 -9 22q0 9 6 18q10 10 22 10q7 0 18 -7q14 -12 22.5 -18t16.5 -11q10 -5 20.5 -12.5t27.5 -22.5q17 -16 26 -27t15 -20z" />
    <glyph glyph-name="Eacute" unicode="&#xc9;" horiz-adv-x="589" 
d="M567 51q22 -5 22 -33q-2 -11 -10.5 -17t-22.5 -5q-1 0 -46.5 6.5t-123.5 6.5q-39 0 -80 -3t-75.5 -6t-57 -6t-24.5 -3h-19q-11 0 -19 7t-9 18q-1 3 -3.5 27t-6 59.5t-7.5 78.5t-7.5 84.5t-6 76.5t-2.5 55q0 30 -2.5 77t-6.5 96.5t-9 94.5t-10 72q0 10 7 18t21 10
q22 0 27 -21q7 10 19 12q2 0 24.5 3t57 6.5t76.5 6.5t83 3q82 0 130.5 -7t50.5 -8q22 -5 22 -33q-5 -22 -34 -22q-20 3 -46 7q-22 2 -53.5 4.5t-69.5 2.5q-39 0 -80 -3t-75.5 -6.5t-57 -6.5t-24.5 -3q-9 0 -17 5q5 -33 9 -76t7 -86t5 -81.5t2 -63.5q9 1 29 3.5t47.5 5
t60.5 4.5t68 4q11 0 19.5 -8t8.5 -20q0 -11 -8 -19.5t-19 -8.5q-36 -2 -71.5 -4.5t-63.5 -5t-47 -5t-22 -2.5q2 -34 6 -75.5l8 -83t7.5 -77.5t6.5 -58q12 1 36.5 4t56.5 6t67.5 5t70.5 2q82 0 130.5 -7t50.5 -7zM399 1047q9 6 19 6q12 0 21 -9q7 -11 7 -19q0 -11 -10 -21
q-14 -12 -23 -19t-16 -13q-9 -7 -18 -14.5t-26 -21.5q-14 -13 -21 -21t-13 -16q-7 -8 -15 -17.5t-24 -24.5q-7 -7 -19 -7q-13 0 -20 9q-8 8 -8 19q0 12 9 20q14 13 20.5 20.5t12.5 15.5q7 9 15.5 19t25.5 25t27 23t19 15q8 6 16 13t21 18z" />
    <glyph glyph-name="Ecircumflex" unicode="&#xca;" horiz-adv-x="589" 
d="M477 887q0 -11 -7 -18q-7 -10 -21 -10q-11 0 -18 6l-71 57l-61 47l-50 -46l-61 -63q-8 -9 -20 -9q-11 0 -19 8q-9 9 -9 20q0 10 8 20l62 65l65 59q8 7 19 7q8 0 11 -2q9 0 17 -6l72 -56l72 -57q11 -9 11 -22zM567 51q22 -5 22 -33q-2 -11 -10.5 -17t-22.5 -5
q-1 0 -46.5 6.5t-123.5 6.5q-39 0 -80 -3t-75.5 -6t-57 -6t-24.5 -3h-19q-11 0 -19 7t-9 18q-1 3 -3.5 27t-6 59.5t-7.5 78.5t-7.5 84.5t-6 76.5t-2.5 55q0 30 -2.5 77t-6.5 96.5t-9 94.5t-10 72q0 10 7 18t21 10q22 0 27 -21q7 10 19 12q2 0 24.5 3t57 6.5t76.5 6.5t83 3
q82 0 130.5 -7t50.5 -8q22 -5 22 -33q-5 -22 -34 -22q-20 3 -46 7q-22 2 -53.5 4.5t-69.5 2.5q-39 0 -80 -3t-75.5 -6.5t-57 -6.5t-24.5 -3q-9 0 -17 5q5 -33 9 -76t7 -86t5 -81.5t2 -63.5q9 1 29 3.5t47.5 5t60.5 4.5t68 4q11 0 19.5 -8t8.5 -20q0 -11 -8 -19.5t-19 -8.5
q-36 -2 -71.5 -4.5t-63.5 -5t-47 -5t-22 -2.5q2 -34 6 -75.5l8 -83t7.5 -77.5t6.5 -58q12 1 36.5 4t56.5 6t67.5 5t70.5 2q82 0 130.5 -7t50.5 -7z" />
    <glyph glyph-name="Edieresis" unicode="&#xcb;" horiz-adv-x="589" 
d="M567 51q22 -5 22 -33q-2 -11 -10.5 -17t-22.5 -5q-1 0 -46.5 6.5t-123.5 6.5q-39 0 -80 -3t-75.5 -6t-57 -6t-24.5 -3h-19q-11 0 -19 7t-9 18q-1 3 -3.5 27t-6 59.5t-7.5 78.5t-7.5 84.5t-6 76.5t-2.5 55q0 30 -2.5 77t-6.5 96.5t-9 94.5t-10 72q0 10 7 18t21 10
q22 0 27 -21q7 10 19 12q2 0 24.5 3t57 6.5t76.5 6.5t83 3q82 0 130.5 -7t50.5 -8q22 -5 22 -33q-5 -22 -34 -22q-20 3 -46 7q-22 2 -53.5 4.5t-69.5 2.5q-39 0 -80 -3t-75.5 -6.5t-57 -6.5t-24.5 -3q-9 0 -17 5q5 -33 9 -76t7 -86t5 -81.5t2 -63.5q9 1 29 3.5t47.5 5
t60.5 4.5t68 4q11 0 19.5 -8t8.5 -20q0 -11 -8 -19.5t-19 -8.5q-36 -2 -71.5 -4.5t-63.5 -5t-47 -5t-22 -2.5q2 -34 6 -75.5l8 -83t7.5 -77.5t6.5 -58q12 1 36.5 4t56.5 6t67.5 5t70.5 2q82 0 130.5 -7t50.5 -7zM234 934q17 0 28 -11t11 -28t-11 -28.5t-28 -11.5t-28.5 11.5
t-11.5 28.5t11.5 28t28.5 11zM383 934q17 0 28 -11t11 -28t-11 -28.5t-28 -11.5t-28 11.5t-11 28.5t11 28t28 11z" />
    <glyph glyph-name="Igrave" unicode="&#xcc;" horiz-adv-x="240" 
d="M135 397q0 -19 2.5 -54t6 -76.5t7.5 -85t8 -79t6.5 -59t2.5 -24.5q0 -11 -7.5 -19t-20.5 -9q-11 0 -18.5 7t-9.5 18q0 3 -2.5 27t-6.5 59.5t-8 78.5t-7.5 84.5t-6 76.5t-2.5 55q0 30 -2.5 77t-6.5 96.5t-9 94.5t-10 72q0 10 7 18t21 10q10 0 18 -6t10 -16q5 -28 10 -74.5
t9 -97.5t6.5 -98.5t2.5 -75.5zM120 902q5 -8 11 -16t19 -20q9 -8 9 -20t-7 -19q-9 -9 -21 -9q-11 0 -19 7q-16 15 -24 26t-14 20l-12 16t-20 20q-14 13 -23 19t-17 11q-9 5 -19.5 12t-27.5 21q-9 9 -9 22q0 9 6 18q10 10 22 10q7 0 18 -7q14 -12 22.5 -18t16.5 -11
q10 -5 20.5 -12.5t27.5 -22.5q17 -16 26 -27t15 -20z" />
    <glyph glyph-name="Iacute" unicode="&#xcd;" horiz-adv-x="240" 
d="M135 397q0 -19 2.5 -54t6 -76.5t7.5 -85t8 -79t6.5 -59t2.5 -24.5q0 -11 -7.5 -19t-20.5 -9q-11 0 -18.5 7t-9.5 18q0 3 -2.5 27t-6.5 59.5t-8 78.5t-7.5 84.5t-6 76.5t-2.5 55q0 30 -2.5 77t-6.5 96.5t-9 94.5t-10 72q0 10 7 18t21 10q10 0 18 -6t10 -16q5 -28 10 -74.5
t9 -97.5t6.5 -98.5t2.5 -75.5zM204 1047q9 6 19 6q12 0 21 -9q7 -11 7 -19q0 -11 -10 -21q-14 -12 -23 -19t-16 -13q-9 -7 -18 -14.5t-26 -21.5q-14 -13 -21 -21t-13 -16q-7 -8 -15 -17.5t-24 -24.5q-7 -7 -19 -7q-13 0 -20 9q-8 8 -8 19q0 12 9 20q14 13 20.5 20.5
t12.5 15.5q7 9 15.5 19t25.5 25t27 23t19 15q8 6 16 13t21 18z" />
    <glyph glyph-name="Icircumflex" unicode="&#xce;" horiz-adv-x="240" 
d="M241 856q0 -11 -7 -18q-7 -10 -21 -10q-11 0 -18 6l-71 57l-61 47l-50 -46l-61 -63q-8 -9 -20 -9q-11 0 -19 8q-9 9 -9 20q0 10 8 20l62 65l65 59q8 7 19 7q8 0 11 -2q9 0 17 -6l72 -56l72 -57q11 -9 11 -22zM135 397q0 -19 2.5 -54t6 -76.5t7.5 -85t8 -79t6.5 -59
t2.5 -24.5q0 -11 -7.5 -19t-20.5 -9q-11 0 -18.5 7t-9.5 18q0 3 -2.5 27t-6.5 59.5t-8 78.5t-7.5 84.5t-6 76.5t-2.5 55q0 30 -2.5 77t-6.5 96.5t-9 94.5t-10 72q0 10 7 18t21 10q10 0 18 -6t10 -16q5 -28 10 -74.5t9 -97.5t6.5 -98.5t2.5 -75.5z" />
    <glyph glyph-name="Idieresis" unicode="&#xcf;" horiz-adv-x="240" 
d="M135 397q0 -19 2.5 -54t6 -76.5t7.5 -85t8 -79t6.5 -59t2.5 -24.5q0 -11 -7.5 -19t-20.5 -9q-11 0 -18.5 7t-9.5 18q0 3 -2.5 27t-6.5 59.5t-8 78.5t-7.5 84.5t-6 76.5t-2.5 55q0 30 -2.5 77t-6.5 96.5t-9 94.5t-10 72q0 10 7 18t21 10q10 0 18 -6t10 -16q5 -28 10 -74.5
t9 -97.5t6.5 -98.5t2.5 -75.5zM-2 923q17 0 28 -11t11 -28t-11 -28.5t-28 -11.5t-28.5 11.5t-11.5 28.5t11.5 28t28.5 11zM147 923q17 0 28 -11t11 -28t-11 -28.5t-28 -11.5t-28 11.5t-11 28.5t11 28t28 11z" />
    <glyph glyph-name="Eth" unicode="&#xd0;" horiz-adv-x="676" 
d="M60 418q-1 27 -3 62t-4.5 72t-6 72t-7.5 64q-6 5 -7 13q-1 9 -0.5 13.5t2.5 7.5q0 2 -0.5 5t-0.5 5q-1 14 5 22.5t17 10.5q27 0 32 -21q30 8 57.5 12.5t60.5 4.5q31 0 69.5 -5.5t90.5 -19.5q39 -11 84.5 -38t84.5 -70.5t65 -104.5t26 -139q0 -103 -20.5 -174
t-52.5 -116.5t-71 -70t-77 -35.5q-18 -5 -54.5 -7t-77.5 -2q-26 0 -51.5 0.5t-46.5 1t-35.5 1.5t-19.5 1q-11 0 -19 8.5t-7 19.5q-1 6 -5 46t-9.5 94.5t-10.5 112t-7 98.5q-38 -5 -66 -9.5t-29 -4.5q-10 0 -16 6.5t-7 17.5q-1 14 4 22t13 10q2 0 31 4.5t69 9.5zM277 408
q17 -5 17 -27q-2 -14 -8 -21t-13 -7q-4 0 -39 7t-93 7q-6 0 -12 -0.5t-12 -0.5q2 -33 6 -81t8.5 -96t9 -89t6.5 -62q29 -2 61.5 -2.5t64.5 -0.5q40 0 71 1.5t45 5.5q56 16 91 52.5t55 84.5t27 101.5t7 103.5q0 66 -22.5 117.5t-55.5 89t-71 60.5t-69 31q-48 13 -82.5 18
t-63.5 5t-54.5 -4.5t-54.5 -11.5q4 -30 7 -66l6 -72t4.5 -69.5t2.5 -59.5q6 0 12.5 0.5t12.5 0.5q62 0 98 -7t38 -8z" />
    <glyph glyph-name="Ntilde" unicode="&#xd1;" horiz-adv-x="696" 
d="M464 932q11 -8 11 -22q0 -9 -5 -17q-23 -30 -44.5 -42t-41.5 -12q-23 0 -44.5 10.5t-44.5 23.5q-15 8 -31 8q-37 0 -72 -50q-8 -12 -23 -12q-8 0 -16 5q-12 9 -12 23q0 8 6 16q52 75 117 75q29 0 58 -17q23 -12 36.5 -19t24.5 -7t20.5 7.5t21.5 24.5q8 11 22 11
q9 0 17 -6zM581 397q0 -19 2.5 -54t6 -76.5t7.5 -85t8 -79t6.5 -59t2.5 -24.5q0 -19 -21 -29q-7 -4 -15 -4q-15 0 -24 12l-18 27t-39 59.5t-51.5 78.5t-54.5 84t-48 76t-33 55q-16 28 -41.5 70.5t-54 87.5t-56.5 88t-49 72q4 -33 8 -75t7 -84t4.5 -79t1.5 -61q0 -19 2.5 -54
t6 -76.5t7.5 -85t8 -79t6.5 -59t2.5 -24.5q0 -11 -7.5 -19t-20.5 -9q-11 0 -19 7t-9 18q0 3 -2.5 27t-6.5 59.5t-8 78.5t-7.5 84.5t-6 76.5t-2.5 55q0 30 -2.5 77t-6.5 96.5t-9 94.5t-10 72q0 10 7 18t21 10q8 0 14.5 -3t11.5 -7q8 5 17 5q14 0 23 -11q14 -18 32.5 -45.5
t39.5 -59.5t42.5 -66t41.5 -66t36 -60t27 -47q11 -20 33 -55t49 -77t55.5 -85.5t51.5 -78.5q-4 36 -8 78t-7.5 82t-5.5 74t-2 54q0 30 -2.5 77t-6.5 96.5t-9 94.5t-10 72q0 10 7 18t21 10q10 0 18 -6t10 -16q5 -28 10 -74.5t9 -97.5t6.5 -98.5t2.5 -75.5z" />
    <glyph glyph-name="Ograve" unicode="&#xd2;" horiz-adv-x="726" 
d="M578 219q14 28 30 73.5t16 102.5q0 44 -13 89q-12 39 -28.5 70.5t-35.5 56t-38.5 42.5t-36.5 30q-37 26 -68.5 36t-52.5 10q-29 -9 -48 -18t-20 -9q-6 -3 -13 -3q-13 0 -20 9q-35 -19 -67 -69t-53 -122q-14 -47 -21 -94t-7 -92q0 -63 14 -111q10 -32 25 -56t33 -40.5
t37.5 -27t36.5 -16.5q46 -17 98 -17q45 0 86 12q31 9 71.5 45t74.5 99zM504 728q20 -14 42.5 -35t44.5 -49t41 -63.5t33 -80.5q15 -51 15 -105q0 -51 -13.5 -102t-39.5 -100q-35 -64 -83 -110.5t-96 -60.5q-50 -15 -102 -15q-60 0 -117 20q-22 8 -46 21.5t-47 34.5
t-42.5 50.5t-31.5 70.5q-16 54 -16 127q0 48 7.5 99.5t22.5 102.5q28 96 73.5 157t99.5 78q15 4 31 4h10t10 -2q13 5 35 12q10 3 24 3q30 0 68.5 -15t76.5 -42zM417 912q5 -8 11 -16t19 -20q9 -8 9 -20t-7 -19q-9 -9 -21 -9q-11 0 -19 7q-16 15 -24 26t-14 20l-12 16t-20 20
q-14 13 -23 19t-17 11q-9 5 -19.5 12t-27.5 21q-9 9 -9 22q0 9 6 18q10 10 22 10q7 0 18 -7q14 -12 22.5 -18t16.5 -11q10 -5 20.5 -12.5t27.5 -22.5q17 -16 26 -27t15 -20z" />
    <glyph glyph-name="Oacute" unicode="&#xd3;" horiz-adv-x="726" 
d="M578 219q14 28 30 73.5t16 102.5q0 44 -13 89q-12 39 -28.5 70.5t-35.5 56t-38.5 42.5t-36.5 30q-37 26 -68.5 36t-52.5 10q-29 -9 -48 -18t-20 -9q-6 -3 -13 -3q-13 0 -20 9q-35 -19 -67 -69t-53 -122q-14 -47 -21 -94t-7 -92q0 -63 14 -111q10 -32 25 -56t33 -40.5
t37.5 -27t36.5 -16.5q46 -17 98 -17q45 0 86 12q31 9 71.5 45t74.5 99zM504 728q20 -14 42.5 -35t44.5 -49t41 -63.5t33 -80.5q15 -51 15 -105q0 -51 -13.5 -102t-39.5 -100q-35 -64 -83 -110.5t-96 -60.5q-50 -15 -102 -15q-60 0 -117 20q-22 8 -46 21.5t-47 34.5
t-42.5 50.5t-31.5 70.5q-16 54 -16 127q0 48 7.5 99.5t22.5 102.5q28 96 73.5 157t99.5 78q15 4 31 4h10t10 -2q13 5 35 12q10 3 24 3q30 0 68.5 -15t76.5 -42zM399 1037q9 6 19 6q12 0 21 -9q7 -11 7 -19q0 -11 -10 -21q-14 -12 -23 -19t-16 -13q-9 -7 -18 -14.5t-26 -21.5
q-14 -13 -21 -21t-13 -16q-7 -8 -15 -17.5t-24 -24.5q-7 -7 -19 -7q-13 0 -20 9q-8 8 -8 19q0 12 9 20q14 13 20.5 20.5t12.5 15.5q7 9 15.5 19t25.5 25t27 23t19 15q8 6 16 13t21 18z" />
    <glyph glyph-name="Ocircumflex" unicode="&#xd4;" horiz-adv-x="726" 
d="M508 867q0 -11 -7 -18q-7 -10 -21 -10q-11 0 -18 6l-71 57l-61 47l-50 -46l-61 -63q-8 -9 -20 -9q-11 0 -19 8q-9 9 -9 20q0 10 8 20l62 65l65 59q8 7 19 7q8 0 11 -2q9 0 17 -6l72 -56l72 -57q11 -9 11 -22zM578 219q14 28 30 73.5t16 102.5q0 44 -13 89
q-12 39 -28.5 70.5t-35.5 56t-38.5 42.5t-36.5 30q-37 26 -68.5 36t-52.5 10q-29 -9 -48 -18t-20 -9q-6 -3 -13 -3q-13 0 -20 9q-35 -19 -67 -69t-53 -122q-14 -47 -21 -94t-7 -92q0 -63 14 -111q10 -32 25 -56t33 -40.5t37.5 -27t36.5 -16.5q46 -17 98 -17q45 0 86 12
q31 9 71.5 45t74.5 99zM504 728q20 -14 42.5 -35t44.5 -49t41 -63.5t33 -80.5q15 -51 15 -105q0 -51 -13.5 -102t-39.5 -100q-35 -64 -83 -110.5t-96 -60.5q-50 -15 -102 -15q-60 0 -117 20q-22 8 -46 21.5t-47 34.5t-42.5 50.5t-31.5 70.5q-16 54 -16 127q0 48 7.5 99.5
t22.5 102.5q28 96 73.5 157t99.5 78q15 4 31 4h10t10 -2q13 5 35 12q10 3 24 3q30 0 68.5 -15t76.5 -42z" />
    <glyph glyph-name="Otilde" unicode="&#xd5;" horiz-adv-x="726" 
d="M495 952q11 -8 11 -22q0 -9 -5 -17q-23 -30 -44.5 -42t-41.5 -12q-23 0 -44.5 10.5t-44.5 23.5q-15 8 -31 8q-37 0 -72 -50q-8 -12 -23 -12q-8 0 -16 5q-12 9 -12 23q0 8 6 16q52 75 117 75q29 0 58 -17q23 -12 36.5 -19t24.5 -7t20.5 7.5t21.5 24.5q8 11 22 11
q9 0 17 -6zM578 219q14 28 30 73.5t16 102.5q0 44 -13 89q-12 39 -28.5 70.5t-35.5 56t-38.5 42.5t-36.5 30q-37 26 -68.5 36t-52.5 10q-29 -9 -48 -18t-20 -9q-6 -3 -13 -3q-13 0 -20 9q-35 -19 -67 -69t-53 -122q-14 -47 -21 -94t-7 -92q0 -63 14 -111q10 -32 25 -56
t33 -40.5t37.5 -27t36.5 -16.5q46 -17 98 -17q45 0 86 12q31 9 71.5 45t74.5 99zM504 728q20 -14 42.5 -35t44.5 -49t41 -63.5t33 -80.5q15 -51 15 -105q0 -51 -13.5 -102t-39.5 -100q-35 -64 -83 -110.5t-96 -60.5q-50 -15 -102 -15q-60 0 -117 20q-22 8 -46 21.5t-47 34.5
t-42.5 50.5t-31.5 70.5q-16 54 -16 127q0 48 7.5 99.5t22.5 102.5q28 96 73.5 157t99.5 78q15 4 31 4h10t10 -2q13 5 35 12q10 3 24 3q30 0 68.5 -15t76.5 -42z" />
    <glyph glyph-name="Odieresis" unicode="&#xd6;" horiz-adv-x="726" 
d="M578 219q14 28 30 73.5t16 102.5q0 44 -13 89q-12 39 -28.5 70.5t-35.5 56t-38.5 42.5t-36.5 30q-37 26 -68.5 36t-52.5 10q-29 -9 -48 -18t-20 -9q-6 -3 -13 -3q-13 0 -20 9q-35 -19 -67 -69t-53 -122q-14 -47 -21 -94t-7 -92q0 -63 14 -111q10 -32 25 -56t33 -40.5
t37.5 -27t36.5 -16.5q46 -17 98 -17q45 0 86 12q31 9 71.5 45t74.5 99zM504 728q20 -14 42.5 -35t44.5 -49t41 -63.5t33 -80.5q15 -51 15 -105q0 -51 -13.5 -102t-39.5 -100q-35 -64 -83 -110.5t-96 -60.5q-50 -15 -102 -15q-60 0 -117 20q-22 8 -46 21.5t-47 34.5
t-42.5 50.5t-31.5 70.5q-16 54 -16 127q0 48 7.5 99.5t22.5 102.5q28 96 73.5 157t99.5 78q15 4 31 4h10t10 -2q13 5 35 12q10 3 24 3q30 0 68.5 -15t76.5 -42zM284 934q17 0 28 -11t11 -28t-11 -28.5t-28 -11.5t-28.5 11.5t-11.5 28.5t11.5 28t28.5 11zM433 934
q17 0 28 -11t11 -28t-11 -28.5t-28 -11.5t-28 11.5t-11 28.5t11 28t28 11z" />
    <glyph glyph-name="multiply" unicode="&#xd7;" horiz-adv-x="422" 
d="M88 161q-20 -12 -39 8q-6 8 -4.5 18.5t12.5 20.5q17 12 37 28q17 14 41 34t51 48l8 8q-25 23 -50.5 44.5t-46 38t-34 26.5t-14.5 11q-8 8 -8 18.5t8 21.5q17 17 37 2q1 -1 14.5 -11t34 -26.5t46 -38t51.5 -45.5q21 24 40.5 47t34 41.5t23.5 30t11 13.5q7 8 17.5 8
t21.5 -8q8 -8 8.5 -18t-5.5 -19q-1 -1 -10 -13t-24 -31t-34.5 -42.5t-41.5 -47.5q56 -56 84.5 -94.5t29.5 -40.5q6 -8 4.5 -18.5t-12.5 -19.5q-19 -13 -39 7q0 1 -26.5 36.5t-79.5 88.5l-8 -8q-58 -59 -97 -87.5t-41 -30.5z" />
    <glyph glyph-name="Oslash" unicode="&#xd8;" horiz-adv-x="725" 
d="M608 484q-8 26 -18 48t-21 42q-24 -27 -48.5 -54t-47 -51.5t-42 -45.5t-34.5 -36q-16 -17 -42.5 -46t-58 -64t-65.5 -73.5t-65 -74.5q20 -19 40.5 -30.5t38.5 -18.5q46 -17 98 -17q45 0 86 12q31 9 72 45.5t74 98.5q14 28 30 73.5t16 102.5q0 44 -13 89zM113 220
q4 -13 9 -24t10 -21q31 35 64 72.5t63.5 71.5t56 62t41.5 45t36.5 39t44 47.5t48.5 53.5t49 55q-17 20 -34 35.5t-32 26.5q-37 26 -68.5 36t-52.5 10q-29 -9 -48 -18t-20 -9q-6 -3 -13 -3q-13 0 -20 9q-35 -19 -67 -69t-53 -122q-14 -47 -21 -94t-7 -92q0 -63 14 -111z
M709 784q11 -8 11 -22q0 -11 -6 -18q-17 -22 -45 -55t-62 -71q17 -25 30.5 -54t24.5 -64q15 -51 15 -105q0 -51 -13.5 -102t-39.5 -100q-17 -32 -38 -60t-44.5 -50.5t-48 -38t-48.5 -22.5q-50 -15 -102 -15q-60 0 -117 20q-23 8 -48 22.5t-49 37.5q-35 -40 -57 -66t-23 -27
q-8 -10 -21 -10q-9 0 -18 7q-10 9 -10 21q0 11 7 19q3 3 27 30.5t59 68.5q-10 16 -18.5 34.5t-15.5 39.5q-8 28 -12 60t-4 67q0 48 7.5 99.5t22.5 102.5q29 96 74 157t99 78q15 4 31 4h10t10 -2q13 5 35 12q10 3 24 3q30 0 68.5 -15t76.5 -42q35 -24 72 -64q31 35 56.5 65
t40.5 50q9 11 22 11q9 0 17 -6z" />
    <glyph glyph-name="Ugrave" unicode="&#xd9;" horiz-adv-x="675" 
d="M580 733q6 -28 11.5 -74.5t9.5 -97t6.5 -97.5t2.5 -76q0 -6 2 -35.5t2 -67.5q0 -37 -3 -75.5t-12 -67.5q-16 -53 -46 -84t-67 -47t-75.5 -21t-70.5 -8q-5 -1 -8.5 -1h-8.5q-45 0 -98.5 19t-98.5 62q-42 42 -59 97t-19 120l-3 107q-1 31 -3.5 78.5t-6.5 97t-9 94.5t-11 72
q0 22 28 28q10 0 18 -6t10 -17q6 -29 11 -75.5t9 -97t6.5 -97.5t3.5 -76l3 -110v-18q0 -96 62 -157q18 -17 38 -29t41 -20t41 -12t37 -4h12q38 3 71.5 8.5t60.5 18.5t47 35t31 59q8 25 10.5 59.5t2.5 68.5q0 40 -2 69.5t-2 31.5q-1 30 -4 77t-6.5 96.5t-8.5 95t-11 72.5
q0 22 28 28q10 0 18 -6t10 -17zM335 851q5 -8 11 -16t19 -20q9 -8 9 -20t-7 -19q-9 -9 -21 -9q-11 0 -19 7q-16 15 -24 26t-14 20l-12 16t-20 20q-14 13 -23 19t-17 11q-9 5 -19.5 12t-27.5 21q-9 9 -9 22q0 9 6 18q10 10 22 10q7 0 18 -7q14 -12 22.5 -18t16.5 -11
q10 -5 20.5 -12.5t27.5 -22.5q17 -16 26 -27t15 -20z" />
    <glyph glyph-name="Uacute" unicode="&#xda;" horiz-adv-x="675" 
d="M580 733q6 -28 11.5 -74.5t9.5 -97t6.5 -97.5t2.5 -76q0 -6 2 -35.5t2 -67.5q0 -37 -3 -75.5t-12 -67.5q-16 -53 -46 -84t-67 -47t-75.5 -21t-70.5 -8q-5 -1 -8.5 -1h-8.5q-45 0 -98.5 19t-98.5 62q-42 42 -59 97t-19 120l-3 107q-1 31 -3.5 78.5t-6.5 97t-9 94.5t-11 72
q0 22 28 28q10 0 18 -6t10 -17q6 -29 11 -75.5t9 -97t6.5 -97.5t3.5 -76l3 -110v-18q0 -96 62 -157q18 -17 38 -29t41 -20t41 -12t37 -4h12q38 3 71.5 8.5t60.5 18.5t47 35t31 59q8 25 10.5 59.5t2.5 68.5q0 40 -2 69.5t-2 31.5q-1 30 -4 77t-6.5 96.5t-8.5 95t-11 72.5
q0 22 28 28q10 0 18 -6t10 -17zM399 955q9 6 19 6q12 0 21 -9q7 -11 7 -19q0 -11 -10 -21q-14 -12 -23 -19t-16 -13q-9 -7 -18 -14.5t-26 -21.5q-14 -13 -21 -21t-13 -16q-7 -8 -15 -17.5t-24 -24.5q-7 -7 -19 -7q-13 0 -20 9q-8 8 -8 19q0 12 9 20q14 13 20.5 20.5
t12.5 15.5q7 9 15.5 19t25.5 25t27 23t19 15q8 6 16 13t21 18z" />
    <glyph glyph-name="Ucircumflex" unicode="&#xdb;" horiz-adv-x="675" 
d="M477 815q0 -11 -7 -18q-7 -10 -21 -10q-11 0 -18 6l-71 57l-61 47l-50 -46l-61 -63q-8 -9 -20 -9q-11 0 -19 8q-9 9 -9 20q0 10 8 20l62 65l65 59q8 7 19 7q8 0 11 -2q9 0 17 -6l72 -56l72 -57q11 -9 11 -22zM580 733q6 -28 11.5 -74.5t9.5 -97t6.5 -97.5t2.5 -76
q0 -6 2 -35.5t2 -67.5q0 -37 -3 -75.5t-12 -67.5q-16 -53 -46 -84t-67 -47t-75.5 -21t-70.5 -8q-5 -1 -8.5 -1h-8.5q-45 0 -98.5 19t-98.5 62q-42 42 -59 97t-19 120l-3 107q-1 31 -3.5 78.5t-6.5 97t-9 94.5t-11 72q0 22 28 28q10 0 18 -6t10 -17q6 -29 11 -75.5t9 -97
t6.5 -97.5t3.5 -76l3 -110v-18q0 -96 62 -157q18 -17 38 -29t41 -20t41 -12t37 -4h12q38 3 71.5 8.5t60.5 18.5t47 35t31 59q8 25 10.5 59.5t2.5 68.5q0 40 -2 69.5t-2 31.5q-1 30 -4 77t-6.5 96.5t-8.5 95t-11 72.5q0 22 28 28q10 0 18 -6t10 -17z" />
    <glyph glyph-name="Udieresis" unicode="&#xdc;" horiz-adv-x="675" 
d="M580 733q6 -28 11.5 -74.5t9.5 -97t6.5 -97.5t2.5 -76q0 -6 2 -35.5t2 -67.5q0 -37 -3 -75.5t-12 -67.5q-16 -53 -46 -84t-67 -47t-75.5 -21t-70.5 -8q-5 -1 -8.5 -1h-8.5q-45 0 -98.5 19t-98.5 62q-42 42 -59 97t-19 120l-3 107q-1 31 -3.5 78.5t-6.5 97t-9 94.5t-11 72
q0 22 28 28q10 0 18 -6t10 -17q6 -29 11 -75.5t9 -97t6.5 -97.5t3.5 -76l3 -110v-18q0 -96 62 -157q18 -17 38 -29t41 -20t41 -12t37 -4h12q38 3 71.5 8.5t60.5 18.5t47 35t31 59q8 25 10.5 59.5t2.5 68.5q0 40 -2 69.5t-2 31.5q-1 30 -4 77t-6.5 96.5t-8.5 95t-11 72.5
q0 22 28 28q10 0 18 -6t10 -17zM234 893q17 0 28 -11t11 -28t-11 -28.5t-28 -11.5t-28.5 11.5t-11.5 28.5t11.5 28t28.5 11zM383 893q17 0 28 -11t11 -28t-11 -28.5t-28 -11.5t-28 11.5t-11 28.5t11 28t28 11z" />
    <glyph glyph-name="Yacute" unicode="&#xdd;" horiz-adv-x="531" 
d="M520 760q11 -8 11 -23q0 -10 -5 -17q-19 -25 -48.5 -69t-61 -93.5t-60.5 -96.5t-46 -78q-5 -11 -14.5 -26.5t-23.5 -37.5q1 -24 4 -56t6.5 -66t7 -67t7 -59.5t5.5 -43.5t2 -18q0 -11 -7.5 -18.5t-20.5 -9.5q-11 0 -18.5 6.5t-9.5 17.5q0 2 -2 18t-5 40.5t-6.5 55.5t-7 63
t-6.5 63.5t-4 57.5q-6 6 -6 16q0 9 4 14q-3 2 -7 8q-17 30 -49.5 83t-69.5 110.5t-71 108.5t-53 77q-6 9 -6 17q0 14 11 23q8 5 17 5q6 0 12 -2.5t10 -8.5q19 -25 51 -72.5t67 -101.5t67.5 -106.5t52.5 -87.5q9 15 15 24q10 19 26.5 47t36.5 60t41.5 66t42.5 66t39.5 59.5
t32.5 45.5q8 11 23 11q8 0 16 -5zM378 955q9 6 19 6q12 0 21 -9q7 -11 7 -19q0 -11 -10 -21q-14 -12 -23 -19t-16 -13q-9 -7 -18 -14.5t-26 -21.5q-14 -13 -21 -21t-13 -16q-7 -8 -15 -17.5t-24 -24.5q-7 -7 -19 -7q-13 0 -20 9q-8 8 -8 19q0 12 9 20q14 13 20.5 20.5
t12.5 15.5q7 9 15.5 19t25.5 25t27 23t19 15q8 6 16 13t21 18z" />
    <glyph glyph-name="Thorn" unicode="&#xde;" horiz-adv-x="542" 
d="M375 505q36 -10 62.5 -32.5t43.5 -51t25 -58.5t5 -54l-1 -11q-2 -18 -6 -40.5t-17 -44t-38 -40.5t-68 -31q-26 -8 -61.5 -10.5t-73.5 -2.5q-20 0 -40 0.5t-40 1.5h-33q5 -49 8.5 -84.5t4.5 -36.5q1 -11 -6 -18.5t-19 -9.5q-10 0 -17 6.5t-8 15.5q-1 5 -5 43t-9 90
q-10 7 -10 20q0 9 6 17q-5 52 -8.5 100t-3.5 72q0 20 -1 48.5t-3 60.5q-15 3 -18 18q-3 10 1.5 18t12.5 11q-3 45 -7.5 84t-9.5 61q-2 11 4 19.5t16 10.5q11 2 19.5 -3.5t10.5 -16.5q5 -23 9 -61t7 -81q28 7 54.5 11t57 4t68 -6t88.5 -19zM461 315q1 14 -4 35.5t-17 42.5
t-31.5 38.5t-46.5 24.5q-48 13 -83 18t-63.5 5t-53 -4t-51.5 -11q2 -35 3.5 -66.5t1.5 -51.5q0 -23 3.5 -68.5t8.5 -95.5q10 -1 19.5 -1h19.5q27 -1 55 -1.5t54.5 0.5t50 3t41.5 7q31 9 48.5 21t26.5 26.5t12 31.5t5 35z" />
    <glyph glyph-name="germandbls" unicode="&#xdf;" horiz-adv-x="681" 
d="M559 282q34 -17 56.5 -39.5t34 -48.5t11.5 -51q0 -27 -13.5 -52.5t-32 -46.5t-37.5 -35.5t-29 -20.5q-12 -6 -31 -12t-39 -10t-38 -6.5t-29 -2.5q-9 0 -34.5 3.5t-55 18t-57.5 44.5t-43 83q0 9 6.5 16.5t21.5 11.5q20 0 27 -20q10 -36 30 -56.5t41 -30t39 -12t25 -2.5
q9 0 24.5 2t32 6t31.5 8t23 9q9 5 23 16.5t27 26.5t22.5 31t9.5 31q0 16 -8.5 33t-25.5 32t-42 26.5t-57 16.5l-20 3q-38 6 -77.5 13.5t-72 23.5t-53.5 43t-21 71q0 24 6.5 41t17 29t23 20.5t23.5 14.5q20 12 32 23.5t13 38.5q-2 7 -10.5 27.5t-25 42.5t-42.5 38.5t-65 16.5
q-37 0 -67 -30q-31 -31 -31 -71l4 -144q1 -32 5.5 -77t11 -94t14 -98t13.5 -88.5t10.5 -64.5t4.5 -27q0 -10 -7 -18t-21 -10q-10 0 -17.5 6t-9.5 17q-1 3 -5.5 29t-11 65.5t-13.5 88t-13.5 98t-11 94.5t-5.5 78l-4 146q0 29 12 57.5t35 51.5q45 47 107 47q47 0 82 -18.5
t59 -45.5t38 -58t20 -55q0 -27 -7 -45.5t-18 -31.5t-23.5 -21.5t-24.5 -15.5q-22 -13 -32 -23.5t-10 -33.5q0 -24 12.5 -39.5t35.5 -26t55.5 -17t72.5 -12.5l21 -4q44 -7 78 -24z" />
    <glyph glyph-name="agrave" unicode="&#xe0;" horiz-adv-x="560" 
d="M246 38q21 0 46 19.5t48.5 52.5t42.5 77.5t28 94.5q-7 48 -11 101t-5 113q-11 9 -11 22q-7 3 -14.5 5t-16.5 2q-13 0 -37 -5.5t-52 -18t-56.5 -32.5t-52 -49t-38.5 -67t-15 -86q0 -76 12.5 -121t33 -69t46 -31.5t52.5 -7.5zM468 282q9 -62 21 -111t22.5 -83t18 -52.5
t7.5 -19.5q1 -3 1.5 -5.5t0.5 -5.5q0 -18 -16 -26q-8 -2 -12 -2q-19 0 -25 16q-2 4 -18.5 47.5t-34.5 121.5q-16 -39 -37.5 -72t-46 -57t-51 -37.5t-52.5 -13.5q-102 0 -151 70t-49 215q0 60 18 106.5t46.5 81.5t64 59t69.5 39t63 21.5t46 6.5q30 0 52 -11.5t36.5 -26
t21.5 -27t7 -13.5q3 -5 3 -11q0 -10 -9 -21q9 -47 9 -124q0 -16 -1.5 -32t-3.5 -33zM355 749q5 -8 11 -16t19 -20q9 -8 9 -20t-7 -19q-9 -9 -21 -9q-11 0 -19 7q-16 15 -24 26t-14 20l-12 16t-20 20q-14 13 -23 19t-17 11q-9 5 -19.5 12t-27.5 21q-9 9 -9 22q0 9 6 18
q10 10 22 10q7 0 18 -7q14 -12 22.5 -18t16.5 -11q10 -5 20.5 -12.5t27.5 -22.5q17 -16 26 -27t15 -20z" />
    <glyph glyph-name="aacute" unicode="&#xe1;" horiz-adv-x="560" 
d="M246 38q21 0 46 19.5t48.5 52.5t42.5 77.5t28 94.5q-7 48 -11 101t-5 113q-11 9 -11 22q-7 3 -14.5 5t-16.5 2q-13 0 -37 -5.5t-52 -18t-56.5 -32.5t-52 -49t-38.5 -67t-15 -86q0 -76 12.5 -121t33 -69t46 -31.5t52.5 -7.5zM468 282q9 -62 21 -111t22.5 -83t18 -52.5
t7.5 -19.5q1 -3 1.5 -5.5t0.5 -5.5q0 -18 -16 -26q-8 -2 -12 -2q-19 0 -25 16q-2 4 -18.5 47.5t-34.5 121.5q-16 -39 -37.5 -72t-46 -57t-51 -37.5t-52.5 -13.5q-102 0 -151 70t-49 215q0 60 18 106.5t46.5 81.5t64 59t69.5 39t63 21.5t46 6.5q30 0 52 -11.5t36.5 -26
t21.5 -27t7 -13.5q3 -5 3 -11q0 -10 -9 -21q9 -47 9 -124q0 -16 -1.5 -32t-3.5 -33zM358 842q9 6 19 6q12 0 21 -9q7 -11 7 -19q0 -11 -10 -21q-14 -12 -23 -19t-16 -13q-9 -7 -18 -14.5t-26 -21.5q-14 -13 -21 -21t-13 -16q-7 -8 -15 -17.5t-24 -24.5q-7 -7 -19 -7
q-13 0 -20 9q-8 8 -8 19q0 12 9 20q14 13 20.5 20.5t12.5 15.5q7 9 15.5 19t25.5 25t27 23t19 15q8 6 16 13t21 18z" />
    <glyph glyph-name="acircumflex" unicode="&#xe2;" horiz-adv-x="560" 
d="M467 693q0 -11 -7 -18q-7 -10 -21 -10q-11 0 -18 6l-71 57l-61 47l-50 -46l-61 -63q-8 -9 -20 -9q-11 0 -19 8q-9 9 -9 20q0 10 8 20l62 65l65 59q8 7 19 7q8 0 11 -2q9 0 17 -6l72 -56l72 -57q11 -9 11 -22zM246 38q21 0 46 19.5t48.5 52.5t42.5 77.5t28 94.5
q-7 48 -11 101t-5 113q-11 9 -11 22q-7 3 -14.5 5t-16.5 2q-13 0 -37 -5.5t-52 -18t-56.5 -32.5t-52 -49t-38.5 -67t-15 -86q0 -76 12.5 -121t33 -69t46 -31.5t52.5 -7.5zM468 282q9 -62 21 -111t22.5 -83t18 -52.5t7.5 -19.5q1 -3 1.5 -5.5t0.5 -5.5q0 -18 -16 -26
q-8 -2 -12 -2q-19 0 -25 16q-2 4 -18.5 47.5t-34.5 121.5q-16 -39 -37.5 -72t-46 -57t-51 -37.5t-52.5 -13.5q-102 0 -151 70t-49 215q0 60 18 106.5t46.5 81.5t64 59t69.5 39t63 21.5t46 6.5q30 0 52 -11.5t36.5 -26t21.5 -27t7 -13.5q3 -5 3 -11q0 -10 -9 -21
q9 -47 9 -124q0 -16 -1.5 -32t-3.5 -33z" />
    <glyph glyph-name="atilde" unicode="&#xe3;" horiz-adv-x="560" 
d="M464 748q11 -8 11 -22q0 -9 -5 -17q-23 -30 -44.5 -42t-41.5 -12q-23 0 -44.5 10.5t-44.5 23.5q-15 8 -31 8q-37 0 -72 -50q-8 -12 -23 -12q-8 0 -16 5q-12 9 -12 23q0 8 6 16q52 75 117 75q29 0 58 -17q23 -12 36.5 -19t24.5 -7t20.5 7.5t21.5 24.5q8 11 22 11
q9 0 17 -6zM246 38q21 0 46 19.5t48.5 52.5t42.5 77.5t28 94.5q-7 48 -11 101t-5 113q-11 9 -11 22q-7 3 -14.5 5t-16.5 2q-13 0 -37 -5.5t-52 -18t-56.5 -32.5t-52 -49t-38.5 -67t-15 -86q0 -76 12.5 -121t33 -69t46 -31.5t52.5 -7.5zM468 282q9 -62 21 -111t22.5 -83
t18 -52.5t7.5 -19.5q1 -3 1.5 -5.5t0.5 -5.5q0 -18 -16 -26q-8 -2 -12 -2q-19 0 -25 16q-2 4 -18.5 47.5t-34.5 121.5q-16 -39 -37.5 -72t-46 -57t-51 -37.5t-52.5 -13.5q-102 0 -151 70t-49 215q0 60 18 106.5t46.5 81.5t64 59t69.5 39t63 21.5t46 6.5q30 0 52 -11.5
t36.5 -26t21.5 -27t7 -13.5q3 -5 3 -11q0 -10 -9 -21q9 -47 9 -124q0 -16 -1.5 -32t-3.5 -33z" />
    <glyph glyph-name="adieresis" unicode="&#xe4;" horiz-adv-x="560" 
d="M246 38q21 0 46 19.5t48.5 52.5t42.5 77.5t28 94.5q-7 48 -11 101t-5 113q-11 9 -11 22q-7 3 -14.5 5t-16.5 2q-13 0 -37 -5.5t-52 -18t-56.5 -32.5t-52 -49t-38.5 -67t-15 -86q0 -76 12.5 -121t33 -69t46 -31.5t52.5 -7.5zM468 282q9 -62 21 -111t22.5 -83t18 -52.5
t7.5 -19.5q1 -3 1.5 -5.5t0.5 -5.5q0 -18 -16 -26q-8 -2 -12 -2q-19 0 -25 16q-2 4 -18.5 47.5t-34.5 121.5q-16 -39 -37.5 -72t-46 -57t-51 -37.5t-52.5 -13.5q-102 0 -151 70t-49 215q0 60 18 106.5t46.5 81.5t64 59t69.5 39t63 21.5t46 6.5q30 0 52 -11.5t36.5 -26
t21.5 -27t7 -13.5q3 -5 3 -11q0 -10 -9 -21q9 -47 9 -124q0 -16 -1.5 -32t-3.5 -33zM224 739q17 0 28 -11t11 -28t-11 -28.5t-28 -11.5t-28.5 11.5t-11.5 28.5t11.5 28t28.5 11zM373 739q17 0 28 -11t11 -28t-11 -28.5t-28 -11.5t-28 11.5t-11 28.5t11 28t28 11z" />
    <glyph glyph-name="aring" unicode="&#xe5;" horiz-adv-x="560" 
d="M246 38q21 0 46 19.5t48.5 52.5t42.5 77.5t28 94.5q-7 48 -11 101t-5 113q-11 9 -11 22q-7 3 -14.5 5t-16.5 2q-13 0 -37 -5.5t-52 -18t-56.5 -32.5t-52 -49t-38.5 -67t-15 -86q0 -76 12.5 -121t33 -69t46 -31.5t52.5 -7.5zM344 656q5 15 5 31q0 10 -2 19t-7 17
q-10 18 -34 19q-20 0 -31.5 -6t-18.5 -15.5t-9 -21.5t-2 -23q0 -14 4.5 -25.5t10.5 -20t13 -13.5t12 -5q16 0 33.5 11t25.5 33zM310 798q52 -5 77 -45q10 -15 14 -32t4 -34q0 -30 -9 -51q-12 -32 -41 -55q30 0 51.5 -12t35.5 -26.5t21 -26.5t7 -13q3 -5 3 -11q0 -10 -9 -21
q9 -47 9 -124q0 -16 -1.5 -32t-3.5 -33q9 -62 21 -111t22.5 -83t18 -52.5t7.5 -19.5q1 -3 1.5 -5.5t0.5 -5.5q0 -18 -16 -26q-8 -2 -12 -2q-19 0 -25 16q-2 4 -18.5 47.5t-34.5 121.5q-16 -39 -37.5 -72t-46 -57t-51 -37.5t-52.5 -13.5q-102 0 -151 70t-49 215
q0 64 20.5 112.5t52 84t69.5 59t74 37.5q-30 11 -51.5 44t-21.5 72q0 56 30 89t81 33h10z" />
    <glyph glyph-name="ae" unicode="&#xe6;" horiz-adv-x="915" 
d="M237 52q19 0 43 19t46.5 51.5t40.5 76t26 92.5q-7 47 -11 99.5t-4 111.5q-11 8 -11 21q-14 7 -27 7t-35.5 -5.5t-49 -18t-53.5 -32t-49.5 -47.5t-36.5 -65.5t-14 -84.5q0 -74 11.5 -118.5t30.5 -68t43.5 -31t49.5 -7.5zM676 530q-10 0 -38 -10.5t-59 -38.5t-57 -76.5
t-32 -124.5q18 5 41.5 10.5t46.5 10.5t43.5 8.5t33.5 3.5q14 0 37 7t46 15q17 6 34 11.5t32 8.5q-4 45 -18 77.5t-32.5 54.5t-39 32.5t-38.5 10.5zM876 23q11 0 18.5 -7t9.5 -21q0 -10 -6.5 -17.5t-16.5 -9.5q-2 0 -19 -2.5t-40.5 -5.5t-49 -5.5t-43.5 -2.5
q-67 0 -120.5 17.5t-91.5 49.5q0 -18 -16 -26q-8 -2 -11 -2q-8 0 -15.5 4.5t-10.5 12.5q-2 3 -17 44.5t-32 116.5q-16 -37 -36 -68.5t-43.5 -55t-48.5 -36.5t-50 -13q-191 0 -191 281q0 59 17.5 104.5t44.5 80t60.5 58t66.5 38.5t61 21.5t44 6.5q29 0 50 -11.5t34.5 -26
t20.5 -26.5t7 -13q2 -4 2 -11q0 -11 -8 -21q3 -18 5 -40.5t3 -50.5q20 61 52.5 99.5t66.5 61t62.5 31t40.5 8.5q27 0 58 -14t58 -43.5t46 -74t23 -105.5q6 -6 6 -17t-6 -17q-5 -22 -27 -22q-9 0 -18 7q-14 -3 -29.5 -8t-29.5 -10q-29 -10 -54.5 -17.5t-47.5 -7.5
q-11 0 -31.5 -3.5t-44.5 -9t-48 -12t-42 -11.5q4 -69 29.5 -111t61.5 -64.5t76 -30t73 -7.5q17 0 41 2.5t46.5 5t39.5 5.5l16 2h4z" />
    <glyph glyph-name="ccedilla" unicode="&#xe7;" horiz-adv-x="421" 
d="M241 -71q28 -4 58.5 -13t50.5 -28q24 -23 24 -55q0 -45 -40 -67q-32 -18 -79 -18q-38 0 -76.5 10t-67.5 27q-14 8 -14 24q0 6 4 14q8 14 24 14q9 0 14 -4q24 -14 56 -21.5t61 -7.5q15 0 28.5 2.5t21.5 7.5t10 9.5t2 9.5q0 8 -7 15q-8 8 -23 13.5t-32 9t-35 5t-33 1.5
l-75 -2l46 49l6 6q6 6 15 16t20 21.5t20 22.5q-25 9 -53 30t-52 55t-41.5 83.5t-21.5 115.5q-1 6 -1 11.5v11.5q0 65 23.5 117t56.5 88.5t68.5 57t60.5 22.5q5 1 10.5 1h10.5q29 0 50.5 -5.5t29.5 -9.5q11 -2 23 -15.5t12 -51.5q0 -12 -8.5 -20t-19.5 -8q-12 0 -20 8t-8 20
q0 8 -2 16q-6 2 -21 6t-36 4h-7.5t-8.5 -1q-16 -2 -42.5 -18t-52 -45.5t-44.5 -71.5t-19 -95v-9t1 -9q4 -68 23 -114t43.5 -74.5t49 -41t41.5 -12.5q12 0 23 3t20 6.5t14 7.5l5 3q7 4 16 4q15 0 23 -12q5 -8 5 -16q0 -13 -13 -23q-1 -1 -21.5 -12t-51.5 -15q-11 -15 -22 -28
t-22 -25z" />
    <glyph glyph-name="egrave" unicode="&#xe8;" horiz-adv-x="505" 
d="M278 504q-9 0 -35.5 -9.5t-55 -34t-53 -68t-30.5 -111.5q17 4 38.5 9t43 9.5t41 7.5t31.5 3q14 0 35.5 6.5t42.5 13.5q17 6 32 10.5t29 8.5q-4 40 -17 69t-30 48t-36 28.5t-36 9.5zM467 46q11 0 18.5 -7t9.5 -21q0 -11 -6.5 -18.5t-17.5 -9.5q-2 0 -18 -2.5t-38 -5.5
t-46 -5t-41 -2q-133 0 -204 70.5t-78 198.5q-2 65 11.5 114t36 84t50.5 58t54.5 36t48 18.5t31.5 5.5q26 0 55.5 -13t55 -39.5t43.5 -67.5t22 -97q6 -8 6 -18t-6 -17q-5 -20 -27 -20q-10 0 -17 6q-27 -6 -56 -17q-26 -9 -51 -16t-45 -7q-11 0 -29.5 -3t-40.5 -8t-44.5 -10.5
t-40.5 -10.5q4 -62 28.5 -99.5t58 -58t71 -27t67.5 -6.5q16 0 39 2t44 5t37 5l15 2zM335 718q5 -8 11 -16t19 -20q9 -8 9 -20t-7 -19q-9 -9 -21 -9q-11 0 -19 7q-16 15 -24 26t-14 20l-12 16t-20 20q-14 13 -23 19t-17 11q-9 5 -19.5 12t-27.5 21q-9 9 -9 22q0 9 6 18
q10 10 22 10q7 0 18 -7q14 -12 22.5 -18t16.5 -11q10 -5 20.5 -12.5t27.5 -22.5q17 -16 26 -27t15 -20z" />
    <glyph glyph-name="eacute" unicode="&#xe9;" horiz-adv-x="505" 
d="M278 504q-9 0 -35.5 -9.5t-55 -34t-53 -68t-30.5 -111.5q17 4 38.5 9t43 9.5t41 7.5t31.5 3q14 0 35.5 6.5t42.5 13.5q17 6 32 10.5t29 8.5q-4 40 -17 69t-30 48t-36 28.5t-36 9.5zM467 46q11 0 18.5 -7t9.5 -21q0 -11 -6.5 -18.5t-17.5 -9.5q-2 0 -18 -2.5t-38 -5.5
t-46 -5t-41 -2q-133 0 -204 70.5t-78 198.5q-2 65 11.5 114t36 84t50.5 58t54.5 36t48 18.5t31.5 5.5q26 0 55.5 -13t55 -39.5t43.5 -67.5t22 -97q6 -8 6 -18t-6 -17q-5 -20 -27 -20q-10 0 -17 6q-27 -6 -56 -17q-26 -9 -51 -16t-45 -7q-11 0 -29.5 -3t-40.5 -8t-44.5 -10.5
t-40.5 -10.5q4 -62 28.5 -99.5t58 -58t71 -27t67.5 -6.5q16 0 39 2t44 5t37 5l15 2zM347 822q9 6 19 6q12 0 21 -9q7 -11 7 -19q0 -11 -10 -21q-14 -12 -23 -19t-16 -13q-9 -7 -18 -14.5t-26 -21.5q-14 -13 -21 -21t-13 -16q-7 -8 -15 -17.5t-24 -24.5q-7 -7 -19 -7
q-13 0 -20 9q-8 8 -8 19q0 12 9 20q14 13 20.5 20.5t12.5 15.5q7 9 15.5 19t25.5 25t27 23t19 15q8 6 16 13t21 18z" />
    <glyph glyph-name="ecircumflex" unicode="&#xea;" horiz-adv-x="505" 
d="M436 682q0 -11 -7 -18q-7 -10 -21 -10q-11 0 -18 6l-71 57l-61 47l-50 -46l-61 -63q-8 -9 -20 -9q-11 0 -19 8q-9 9 -9 20q0 10 8 20l62 65l65 59q8 7 19 7q8 0 11 -2q9 0 17 -6l72 -56l72 -57q11 -9 11 -22zM278 504q-9 0 -35.5 -9.5t-55 -34t-53 -68t-30.5 -111.5
q17 4 38.5 9t43 9.5t41 7.5t31.5 3q14 0 35.5 6.5t42.5 13.5q17 6 32 10.5t29 8.5q-4 40 -17 69t-30 48t-36 28.5t-36 9.5zM467 46q11 0 18.5 -7t9.5 -21q0 -11 -6.5 -18.5t-17.5 -9.5q-2 0 -18 -2.5t-38 -5.5t-46 -5t-41 -2q-133 0 -204 70.5t-78 198.5q-2 65 11.5 114
t36 84t50.5 58t54.5 36t48 18.5t31.5 5.5q26 0 55.5 -13t55 -39.5t43.5 -67.5t22 -97q6 -8 6 -18t-6 -17q-5 -20 -27 -20q-10 0 -17 6q-27 -6 -56 -17q-26 -9 -51 -16t-45 -7q-11 0 -29.5 -3t-40.5 -8t-44.5 -10.5t-40.5 -10.5q4 -62 28.5 -99.5t58 -58t71 -27t67.5 -6.5
q16 0 39 2t44 5t37 5l15 2z" />
    <glyph glyph-name="edieresis" unicode="&#xeb;" horiz-adv-x="505" 
d="M278 504q-9 0 -35.5 -9.5t-55 -34t-53 -68t-30.5 -111.5q17 4 38.5 9t43 9.5t41 7.5t31.5 3q14 0 35.5 6.5t42.5 13.5q17 6 32 10.5t29 8.5q-4 40 -17 69t-30 48t-36 28.5t-36 9.5zM467 46q11 0 18.5 -7t9.5 -21q0 -11 -6.5 -18.5t-17.5 -9.5q-2 0 -18 -2.5t-38 -5.5
t-46 -5t-41 -2q-133 0 -204 70.5t-78 198.5q-2 65 11.5 114t36 84t50.5 58t54.5 36t48 18.5t31.5 5.5q26 0 55.5 -13t55 -39.5t43.5 -67.5t22 -97q6 -8 6 -18t-6 -17q-5 -20 -27 -20q-10 0 -17 6q-27 -6 -56 -17q-26 -9 -51 -16t-45 -7q-11 0 -29.5 -3t-40.5 -8t-44.5 -10.5
t-40.5 -10.5q4 -62 28.5 -99.5t58 -58t71 -27t67.5 -6.5q16 0 39 2t44 5t37 5l15 2zM193 708q17 0 28 -11t11 -28t-11 -28.5t-28 -11.5t-28.5 11.5t-11.5 28.5t11.5 28t28.5 11zM342 708q17 0 28 -11t11 -28t-11 -28.5t-28 -11.5t-28 11.5t-11 28.5t11 28t28 11z" />
    <glyph glyph-name="igrave" unicode="&#xec;" horiz-adv-x="245" 
d="M99 556q11 0 18.5 -6.5t9.5 -16.5q0 -3 4.5 -31t10.5 -68t11.5 -85.5t7.5 -81.5q2 -35 7 -82t11 -89.5t10.5 -73t4.5 -32.5q0 -11 -7 -18.5t-21 -9.5q-11 0 -18.5 6.5t-9.5 17.5q0 3 -4.5 33t-10.5 72.5t-11 89.5t-7 83q-2 35 -7.5 80t-11 85t-10 68.5t-4.5 30.5
q0 10 6 18t17 10h4zM69 738q5 -8 11 -16t19 -20q9 -8 9 -20t-7 -19q-9 -9 -21 -9q-11 0 -19 7q-16 15 -24 26t-14 20l-12 16t-20 20q-14 13 -23 19t-17 11q-9 5 -19.5 12t-27.5 21q-9 9 -9 22q0 9 6 18q10 10 22 10q7 0 18 -7q14 -12 22.5 -18t16.5 -11q10 -5 20.5 -12.5
t27.5 -22.5q17 -16 26 -27t15 -20z" />
    <glyph glyph-name="iacute" unicode="&#xed;" horiz-adv-x="245" 
d="M99 556q11 0 18.5 -6.5t9.5 -16.5q0 -3 4.5 -31t10.5 -68t11.5 -85.5t7.5 -81.5q2 -35 7 -82t11 -89.5t10.5 -73t4.5 -32.5q0 -11 -7 -18.5t-21 -9.5q-11 0 -18.5 6.5t-9.5 17.5q0 3 -4.5 33t-10.5 72.5t-11 89.5t-7 83q-2 35 -7.5 80t-11 85t-10 68.5t-4.5 30.5
q0 10 6 18t17 10h4zM235 842q9 6 19 6q12 0 21 -9q7 -11 7 -19q0 -11 -10 -21q-14 -12 -23 -19t-16 -13q-9 -7 -18 -14.5t-26 -21.5q-14 -13 -21 -21t-13 -16q-7 -8 -15 -17.5t-24 -24.5q-7 -7 -19 -7q-13 0 -20 9q-8 8 -8 19q0 12 9 20q14 13 20.5 20.5t12.5 15.5
q7 9 15.5 19t25.5 25t27 23t19 15q8 6 16 13t21 18z" />
    <glyph glyph-name="icircumflex" unicode="&#xee;" horiz-adv-x="245" 
d="M262 672q0 -11 -7 -18q-7 -10 -21 -10q-11 0 -18 6l-71 57l-61 47l-50 -46l-61 -63q-8 -9 -20 -9q-11 0 -19 8q-9 9 -9 20q0 10 8 20l62 65l65 59q8 7 19 7q8 0 11 -2q9 0 17 -6l72 -56l72 -57q11 -9 11 -22zM99 556q11 0 18.5 -6.5t9.5 -16.5q0 -3 4.5 -31t10.5 -68
t11.5 -85.5t7.5 -81.5q2 -35 7 -82t11 -89.5t10.5 -73t4.5 -32.5q0 -11 -7 -18.5t-21 -9.5q-11 0 -18.5 6.5t-9.5 17.5q0 3 -4.5 33t-10.5 72.5t-11 89.5t-7 83q-2 35 -7.5 80t-11 85t-10 68.5t-4.5 30.5q0 10 6 18t17 10h4z" />
    <glyph glyph-name="idieresis" unicode="&#xef;" horiz-adv-x="245" 
d="M99 556q11 0 18.5 -6.5t9.5 -16.5q0 -3 4.5 -31t10.5 -68t11.5 -85.5t7.5 -81.5q2 -35 7 -82t11 -89.5t10.5 -73t4.5 -32.5q0 -11 -7 -18.5t-21 -9.5q-11 0 -18.5 6.5t-9.5 17.5q0 3 -4.5 33t-10.5 72.5t-11 89.5t-7 83q-2 35 -7.5 80t-11 85t-10 68.5t-4.5 30.5
q0 10 6 18t17 10h4zM9 719q17 0 28 -11t11 -28t-11 -28.5t-28 -11.5t-28.5 11.5t-11.5 28.5t11.5 28t28.5 11zM158 719q17 0 28 -11t11 -28t-11 -28.5t-28 -11.5t-28 11.5t-11 28.5t11 28t28 11z" />
    <glyph glyph-name="eth" unicode="&#xf0;" horiz-adv-x="527" 
d="M489 305q0 -73 -23 -133t-57.5 -103t-75 -66.5t-74.5 -23.5q-39 0 -77 15t-68 43.5t-49 70.5t-19 97q0 35 9 77t24.5 84.5t37 82t46.5 70.5t53 49.5t57 18.5q11 0 19.5 -2.5t15.5 -6.5q5 0 10 0.5t11 0.5q10 0 19 -3t18 -9.5t20 -17.5t25 -27q-1 13 -5.5 35t-13.5 48
t-22.5 54.5t-32.5 56.5q-41 -20 -66 -36t-26 -16q-9 -5 -17.5 -1t-13.5 13q-11 27 4 37q2 1 24.5 15.5t58.5 32.5q-15 16 -31.5 29t-36.5 24q-21 11 -13 33q6 11 16 15t21 0q25 -11 50 -29.5t48 -46.5q54 23 79.5 27.5t27.5 5.5q8 1 15.5 -4.5t11.5 -14.5q7 -27 -9 -34
q-3 -1 -25 -5t-67 -22q45 -72 73 -180t28 -254zM432 291q0 56 -13 98.5t-30.5 72t-35 44.5t-25.5 17q-17 0 -29.5 -2.5t-13.5 -2.5q-11 -1 -17 1.5t-11 7.5q-25 -10 -52 -45t-50 -81.5t-38 -99t-15 -96.5q0 -46 16 -78.5t40 -52.5t51 -29.5t50 -9.5q19 0 48.5 18.5t57 52
t47.5 80.5t20 105z" />
    <glyph glyph-name="ntilde" unicode="&#xf1;" horiz-adv-x="611" 
d="M454 778q11 -8 11 -22q0 -9 -5 -17q-23 -30 -44.5 -42t-41.5 -12q-23 0 -44.5 10.5t-44.5 23.5q-15 8 -31 8q-37 0 -72 -50q-8 -12 -23 -12q-8 0 -16 5q-12 9 -12 23q0 8 6 16q52 75 117 75q29 0 58 -17q23 -12 36.5 -19t24.5 -7t20.5 7.5t21.5 24.5q8 11 22 11
q9 0 17 -6zM552 120q0 -14 3.5 -29t8.5 -28.5t10 -24.5t8 -17t3 -14q0 -16 -14 -24q-4 -2 -7 -3t-7 -1q-16 0 -24 15q-1 1 -7 12.5t-12.5 29.5t-12 40t-5.5 44q0 5 -0.5 11.5t-1.5 14.5q-1 14 -2 30.5t-1 39.5q0 15 -2 31.5t-4 36.5q-3 25 -5.5 53.5t-2.5 60.5
q0 20 -8.5 43.5t-24.5 43.5t-39.5 33t-54.5 13q-39 0 -69.5 -14.5t-52.5 -36.5t-37.5 -47.5t-24.5 -48t-13.5 -38.5t-4.5 -18q-3 -9 -8 -14v-18q0 -24 7 -55t16 -66q11 -45 21.5 -94t10.5 -100q0 -12 -8 -20t-20 -8q-11 0 -19.5 8t-8.5 20q0 46 -9.5 92t-20.5 88
q-10 37 -17.5 71.5t-7.5 63.5t-4 73t-9.5 85.5t-10 72t-4.5 32.5q0 10 7 18t21 10q11 0 18.5 -6.5t9.5 -17.5q0 -2 2 -12.5t4 -28t5 -39.5t6 -46q15 28 35.5 55t48 48t61.5 34t76 13q41 0 74.5 -16.5t57.5 -43.5t37.5 -61t13.5 -68q0 -30 2.5 -57t5.5 -50q2 -20 4 -39t2 -36
q0 -40 3 -64q1 -9 1.5 -16.5t0.5 -15.5z" />
    <glyph glyph-name="ograve" unicode="&#xf2;" horiz-adv-x="520" 
d="M259 35q19 0 48.5 18.5t57.5 52t48 80.5t20 105q0 56 -13.5 98.5t-31 72t-35 44.5t-25.5 17q-17 0 -30.5 -2.5t-18.5 -3.5q-12 0 -22 10q-25 -10 -52 -45t-50 -81.5t-38 -99t-15 -96.5q0 -46 16 -78.5t40 -52.5t51 -29.5t50 -9.5zM329 579q21 0 48.5 -20.5t52 -58
t42 -90.5t17.5 -119q0 -67 -23 -124t-57.5 -99t-75 -65.5t-74.5 -23.5q-39 0 -77 15t-68 43.5t-49 70.5t-19 97q0 35 9 77t24.5 84.5t37 82t46.5 70.5t53 49.5t57 18.5q11 0 19.5 -2.5t15.5 -6.5q5 0 10 0.5t11 0.5zM335 728q5 -8 11 -16t19 -20q9 -8 9 -20t-7 -19
q-9 -9 -21 -9q-11 0 -19 7q-16 15 -24 26t-14 20l-12 16t-20 20q-14 13 -23 19t-17 11q-9 5 -19.5 12t-27.5 21q-9 9 -9 22q0 9 6 18q10 10 22 10q7 0 18 -7q14 -12 22.5 -18t16.5 -11q10 -5 20.5 -12.5t27.5 -22.5q17 -16 26 -27t15 -20z" />
    <glyph glyph-name="oacute" unicode="&#xf3;" horiz-adv-x="520" 
d="M259 35q19 0 48.5 18.5t57.5 52t48 80.5t20 105q0 56 -13.5 98.5t-31 72t-35 44.5t-25.5 17q-17 0 -30.5 -2.5t-18.5 -3.5q-12 0 -22 10q-25 -10 -52 -45t-50 -81.5t-38 -99t-15 -96.5q0 -46 16 -78.5t40 -52.5t51 -29.5t50 -9.5zM329 579q21 0 48.5 -20.5t52 -58
t42 -90.5t17.5 -119q0 -67 -23 -124t-57.5 -99t-75 -65.5t-74.5 -23.5q-39 0 -77 15t-68 43.5t-49 70.5t-19 97q0 35 9 77t24.5 84.5t37 82t46.5 70.5t53 49.5t57 18.5q11 0 19.5 -2.5t15.5 -6.5q5 0 10 0.5t11 0.5zM347 832q9 6 19 6q12 0 21 -9q7 -11 7 -19q0 -11 -10 -21
q-14 -12 -23 -19t-16 -13q-9 -7 -18 -14.5t-26 -21.5q-14 -13 -21 -21t-13 -16q-7 -8 -15 -17.5t-24 -24.5q-7 -7 -19 -7q-13 0 -20 9q-8 8 -8 19q0 12 9 20q14 13 20.5 20.5t12.5 15.5q7 9 15.5 19t25.5 25t27 23t19 15q8 6 16 13t21 18z" />
    <glyph glyph-name="ocircumflex" unicode="&#xf4;" horiz-adv-x="520" 
d="M467 682q0 -11 -7 -18q-7 -10 -21 -10q-11 0 -18 6l-71 57l-61 47l-50 -46l-61 -63q-8 -9 -20 -9q-11 0 -19 8q-9 9 -9 20q0 10 8 20l62 65l65 59q8 7 19 7q8 0 11 -2q9 0 17 -6l72 -56l72 -57q11 -9 11 -22zM259 35q19 0 48.5 18.5t57.5 52t48 80.5t20 105
q0 56 -13.5 98.5t-31 72t-35 44.5t-25.5 17q-17 0 -30.5 -2.5t-18.5 -3.5q-12 0 -22 10q-25 -10 -52 -45t-50 -81.5t-38 -99t-15 -96.5q0 -46 16 -78.5t40 -52.5t51 -29.5t50 -9.5zM329 579q21 0 48.5 -20.5t52 -58t42 -90.5t17.5 -119q0 -67 -23 -124t-57.5 -99t-75 -65.5
t-74.5 -23.5q-39 0 -77 15t-68 43.5t-49 70.5t-19 97q0 35 9 77t24.5 84.5t37 82t46.5 70.5t53 49.5t57 18.5q11 0 19.5 -2.5t15.5 -6.5q5 0 10 0.5t11 0.5z" />
    <glyph glyph-name="otilde" unicode="&#xf5;" horiz-adv-x="520" 
d="M443 758q11 -8 11 -22q0 -9 -5 -17q-23 -30 -44.5 -42t-41.5 -12q-23 0 -44.5 10.5t-44.5 23.5q-15 8 -31 8q-37 0 -72 -50q-8 -12 -23 -12q-8 0 -16 5q-12 9 -12 23q0 8 6 16q52 75 117 75q29 0 58 -17q23 -12 36.5 -19t24.5 -7t20.5 7.5t21.5 24.5q8 11 22 11
q9 0 17 -6zM259 35q19 0 48.5 18.5t57.5 52t48 80.5t20 105q0 56 -13.5 98.5t-31 72t-35 44.5t-25.5 17q-17 0 -30.5 -2.5t-18.5 -3.5q-12 0 -22 10q-25 -10 -52 -45t-50 -81.5t-38 -99t-15 -96.5q0 -46 16 -78.5t40 -52.5t51 -29.5t50 -9.5zM329 579q21 0 48.5 -20.5
t52 -58t42 -90.5t17.5 -119q0 -67 -23 -124t-57.5 -99t-75 -65.5t-74.5 -23.5q-39 0 -77 15t-68 43.5t-49 70.5t-19 97q0 35 9 77t24.5 84.5t37 82t46.5 70.5t53 49.5t57 18.5q11 0 19.5 -2.5t15.5 -6.5q5 0 10 0.5t11 0.5z" />
    <glyph glyph-name="odieresis" unicode="&#xf6;" horiz-adv-x="520" 
d="M259 35q19 0 48.5 18.5t57.5 52t48 80.5t20 105q0 56 -13.5 98.5t-31 72t-35 44.5t-25.5 17q-17 0 -30.5 -2.5t-18.5 -3.5q-12 0 -22 10q-25 -10 -52 -45t-50 -81.5t-38 -99t-15 -96.5q0 -46 16 -78.5t40 -52.5t51 -29.5t50 -9.5zM329 579q21 0 48.5 -20.5t52 -58
t42 -90.5t17.5 -119q0 -67 -23 -124t-57.5 -99t-75 -65.5t-74.5 -23.5q-39 0 -77 15t-68 43.5t-49 70.5t-19 97q0 35 9 77t24.5 84.5t37 82t46.5 70.5t53 49.5t57 18.5q11 0 19.5 -2.5t15.5 -6.5q5 0 10 0.5t11 0.5zM213 739q17 0 28 -11t11 -28t-11 -28.5t-28 -11.5
t-28.5 11.5t-11.5 28.5t11.5 28t28.5 11zM362 739q17 0 28 -11t11 -28t-11 -28.5t-28 -11.5t-28 11.5t-11 28.5t11 28t28 11z" />
    <glyph glyph-name="divide" unicode="&#xf7;" horiz-adv-x="519" 
d="M466 352q23 -5 22 -33q-5 -22 -33 -22q-1 0 -46.5 7t-122.5 7q-39 0 -80 -3t-75.5 -6.5t-57.5 -6.5t-25 -3q-10 0 -18 7t-10 21q0 11 7 18.5t18 9.5q2 0 24.5 3t57 6.5t76.5 6.5t83 3q82 0 130 -7t50 -8zM249 429q-17 0 -28.5 11t-11.5 28t11.5 28t28.5 11q16 0 27.5 -11
t11.5 -28t-11.5 -28t-27.5 -11zM249 195q16 0 27.5 -11.5t11.5 -27.5q0 -17 -11.5 -28.5t-27.5 -11.5q-17 0 -28.5 11.5t-11.5 28.5q0 16 11.5 27.5t28.5 11.5z" />
    <glyph glyph-name="oslash" unicode="&#xf8;" horiz-adv-x="543" 
d="M442 291q0 35 -5.5 64.5t-14.5 54.5q-28 -34 -59.5 -70.5t-59.5 -65.5q-17 -19 -37.5 -41.5t-41 -46.5t-40.5 -47.5t-37 -43.5q25 -32 59 -46t62 -14q19 0 48.5 18.5t57.5 52t48 80.5t20 105zM111 205q0 -29 8 -56q33 40 72 84.5t71 78.5q32 33 67.5 74.5t66.5 78.5
q-17 27 -34 41.5t-25 16.5q-17 0 -30.5 -2.5t-18.5 -3.5q-12 0 -22 10q-25 -10 -52 -45t-50 -81.5t-38 -99t-15 -96.5zM502 551q11 -9 11 -22q0 -9 -7 -18q-2 -2 -13.5 -16t-29.5 -37q16 -34 25.5 -76t9.5 -91q0 -67 -23 -124t-57.5 -99t-75 -65.5t-74.5 -23.5
q-43 0 -85 18.5t-73 53.5l-19 -23q-9 -10 -22 -10q-11 0 -18 6q-10 9 -10 22q0 9 6 17q1 1 9 10.5t22 26.5q-11 23 -17 49t-6 56q0 35 9 77t24.5 84.5t37 82t46.5 70.5t53 49.5t57 18.5q11 0 19.5 -2.5t15.5 -6.5q5 0 10 0.5t11 0.5q20 0 45 -18t49 -52q14 17 22 27t9 10
q8 11 22 11q9 0 17 -6z" />
    <glyph glyph-name="ugrave" unicode="&#xf9;" horiz-adv-x="580" 
d="M522 246q22 -5 22 -33q-5 -20 -13.5 -45.5t-22.5 -51.5q6 -48 11 -83t6 -39q0 -11 -7 -18.5t-21 -9.5q-11 0 -18.5 6.5t-9.5 17.5q0 2 -2.5 17.5t-5.5 39.5q-31 -35 -74 -58t-100 -23q-41 0 -75 16.5t-58 43.5t-37 60.5t-13 68.5q0 30 -2.5 57t-5.5 50q-2 20 -4 38.5
t-2 36.5q0 20 -1 36t-3 28q-1 9 -1.5 16.5t-0.5 15.5q0 14 -3.5 29t-8 28.5t-9.5 24.5t-8 17q-4 5 -4 13q0 17 15 25q6 3 13 3q17 0 25 -14q0 -1 6 -12.5t12.5 -29.5t12 -40t5.5 -44q0 -5 0.5 -12t1.5 -15q2 -13 3 -29.5t1 -39.5q0 -15 2 -31.5t4 -36.5q2 -26 5 -54t3 -60
q0 -21 8.5 -44t24.5 -43t39.5 -33t54.5 -13t56 9t45 24t35.5 33.5t26.5 38.5q-5 37 -8.5 74t-5.5 67q-2 35 -7.5 80t-11 85t-10 68.5t-4.5 30.5q0 10 7 18t21 10q10 0 17.5 -6.5t9.5 -16.5q0 -3 4.5 -31t10.5 -68t11.5 -85.5t7.5 -81.5q0 -8 0.5 -16.5t1.5 -18.5q5 5 11 8
t17 2zM304 677q5 -8 11 -16t19 -20q9 -8 9 -20t-7 -19q-9 -9 -21 -9q-11 0 -19 7q-16 15 -24 26t-14 20l-12 16t-20 20q-14 13 -23 19t-17 11q-9 5 -19.5 12t-27.5 21q-9 9 -9 22q0 9 6 18q10 10 22 10q7 0 18 -7q14 -12 22.5 -18t16.5 -11q10 -5 20.5 -12.5t27.5 -22.5
q17 -16 26 -27t15 -20z" />
    <glyph glyph-name="uacute" unicode="&#xfa;" horiz-adv-x="580" 
d="M522 246q22 -5 22 -33q-5 -20 -13.5 -45.5t-22.5 -51.5q6 -48 11 -83t6 -39q0 -11 -7 -18.5t-21 -9.5q-11 0 -18.5 6.5t-9.5 17.5q0 2 -2.5 17.5t-5.5 39.5q-31 -35 -74 -58t-100 -23q-41 0 -75 16.5t-58 43.5t-37 60.5t-13 68.5q0 30 -2.5 57t-5.5 50q-2 20 -4 38.5
t-2 36.5q0 20 -1 36t-3 28q-1 9 -1.5 16.5t-0.5 15.5q0 14 -3.5 29t-8 28.5t-9.5 24.5t-8 17q-4 5 -4 13q0 17 15 25q6 3 13 3q17 0 25 -14q0 -1 6 -12.5t12.5 -29.5t12 -40t5.5 -44q0 -5 0.5 -12t1.5 -15q2 -13 3 -29.5t1 -39.5q0 -15 2 -31.5t4 -36.5q2 -26 5 -54t3 -60
q0 -21 8.5 -44t24.5 -43t39.5 -33t54.5 -13t56 9t45 24t35.5 33.5t26.5 38.5q-5 37 -8.5 74t-5.5 67q-2 35 -7.5 80t-11 85t-10 68.5t-4.5 30.5q0 10 7 18t21 10q10 0 17.5 -6.5t9.5 -16.5q0 -3 4.5 -31t10.5 -68t11.5 -85.5t7.5 -81.5q0 -8 0.5 -16.5t1.5 -18.5q5 5 11 8
t17 2zM378 822q9 6 19 6q12 0 21 -9q7 -11 7 -19q0 -11 -10 -21q-14 -12 -23 -19t-16 -13q-9 -7 -18 -14.5t-26 -21.5q-14 -13 -21 -21t-13 -16q-7 -8 -15 -17.5t-24 -24.5q-7 -7 -19 -7q-13 0 -20 9q-8 8 -8 19q0 12 9 20q14 13 20.5 20.5t12.5 15.5q7 9 15.5 19t25.5 25
t27 23t19 15q8 6 16 13t21 18z" />
    <glyph glyph-name="ucircumflex" unicode="&#xfb;" horiz-adv-x="580" 
d="M426 682q0 -11 -7 -18q-7 -10 -21 -10q-11 0 -18 6l-71 57l-61 47l-50 -46l-61 -63q-8 -9 -20 -9q-11 0 -19 8q-9 9 -9 20q0 10 8 20l62 65l65 59q8 7 19 7q8 0 11 -2q9 0 17 -6l72 -56l72 -57q11 -9 11 -22zM522 246q22 -5 22 -33q-5 -20 -13.5 -45.5t-22.5 -51.5
q6 -48 11 -83t6 -39q0 -11 -7 -18.5t-21 -9.5q-11 0 -18.5 6.5t-9.5 17.5q0 2 -2.5 17.5t-5.5 39.5q-31 -35 -74 -58t-100 -23q-41 0 -75 16.5t-58 43.5t-37 60.5t-13 68.5q0 30 -2.5 57t-5.5 50q-2 20 -4 38.5t-2 36.5q0 20 -1 36t-3 28q-1 9 -1.5 16.5t-0.5 15.5
q0 14 -3.5 29t-8 28.5t-9.5 24.5t-8 17q-4 5 -4 13q0 17 15 25q6 3 13 3q17 0 25 -14q0 -1 6 -12.5t12.5 -29.5t12 -40t5.5 -44q0 -5 0.5 -12t1.5 -15q2 -13 3 -29.5t1 -39.5q0 -15 2 -31.5t4 -36.5q2 -26 5 -54t3 -60q0 -21 8.5 -44t24.5 -43t39.5 -33t54.5 -13t56 9t45 24
t35.5 33.5t26.5 38.5q-5 37 -8.5 74t-5.5 67q-2 35 -7.5 80t-11 85t-10 68.5t-4.5 30.5q0 10 7 18t21 10q10 0 17.5 -6.5t9.5 -16.5q0 -3 4.5 -31t10.5 -68t11.5 -85.5t7.5 -81.5q0 -8 0.5 -16.5t1.5 -18.5q5 5 11 8t17 2z" />
    <glyph glyph-name="udieresis" unicode="&#xfc;" horiz-adv-x="580" 
d="M522 246q22 -5 22 -33q-5 -20 -13.5 -45.5t-22.5 -51.5q6 -48 11 -83t6 -39q0 -11 -7 -18.5t-21 -9.5q-11 0 -18.5 6.5t-9.5 17.5q0 2 -2.5 17.5t-5.5 39.5q-31 -35 -74 -58t-100 -23q-41 0 -75 16.5t-58 43.5t-37 60.5t-13 68.5q0 30 -2.5 57t-5.5 50q-2 20 -4 38.5
t-2 36.5q0 20 -1 36t-3 28q-1 9 -1.5 16.5t-0.5 15.5q0 14 -3.5 29t-8 28.5t-9.5 24.5t-8 17q-4 5 -4 13q0 17 15 25q6 3 13 3q17 0 25 -14q0 -1 6 -12.5t12.5 -29.5t12 -40t5.5 -44q0 -5 0.5 -12t1.5 -15q2 -13 3 -29.5t1 -39.5q0 -15 2 -31.5t4 -36.5q2 -26 5 -54t3 -60
q0 -21 8.5 -44t24.5 -43t39.5 -33t54.5 -13t56 9t45 24t35.5 33.5t26.5 38.5q-5 37 -8.5 74t-5.5 67q-2 35 -7.5 80t-11 85t-10 68.5t-4.5 30.5q0 10 7 18t21 10q10 0 17.5 -6.5t9.5 -16.5q0 -3 4.5 -31t10.5 -68t11.5 -85.5t7.5 -81.5q0 -8 0.5 -16.5t1.5 -18.5q5 5 11 8
t17 2zM193 698q17 0 28 -11t11 -28t-11 -28.5t-28 -11.5t-28.5 11.5t-11.5 28.5t11.5 28t28.5 11zM342 698q17 0 28 -11t11 -28t-11 -28.5t-28 -11.5t-28 11.5t-11 28.5t11 28t28 11z" />
    <glyph glyph-name="yacute" unicode="&#xfd;" horiz-adv-x="535" 
d="M531 569q14 -8 14 -24q0 -9 -4 -14l-8 -14l-20 -37.5t-26 -49t-26 -51.5q-10 -21 -13 -34.5t-5 -28.5q-2 -10 -3.5 -21t-5 -25.5t-9.5 -32.5t-16 -41q-22 -50 -28 -82.5t-10 -64.5l-2 -27q0 -7 -3 -13q-2 -11 -4 -22.5t-5 -25.5q-8 -34 -14.5 -55.5t-13.5 -41.5
q-8 -23 -16.5 -51t-18.5 -77q-9 -45 -16 -83.5t-11 -66.5t-6 -44l-2 -16q-2 -11 -10 -17.5t-21 -6.5q-25 3 -25 31q0 1 2.5 17.5t6.5 45t11 67t16 84.5q5 26 10 46t9.5 36t9 29t8.5 25q7 19 13 39t13 51q3 12 4.5 22.5t3.5 20.5q-10 14 -27.5 39.5t-33.5 53.5
q-9 16 -26 41.5t-35.5 52.5t-36 51.5t-27.5 39.5l-8 12q-6 8 -15.5 31t-28.5 71q-8 19 -16 39t-15.5 38.5t-14.5 33t-12 22.5q-4 10 -4 14q0 16 14 24q5 4 14 4q17 0 24 -13q11 -19 28 -58.5t34 -83.5q6 -14 11.5 -28.5t11 -27t9.5 -22.5t6 -13l8 -11q10 -15 27.5 -40
t36.5 -53t36 -54t27 -42q5 -10 11.5 -19.5t12.5 -19.5q5 24 12.5 52.5t23.5 66.5q17 42 22.5 65.5t8.5 41.5q2 17 6 35t16 44q12 25 26 52t26.5 49.5t21 37.5t9.5 17q8 14 24 14q9 0 14 -4zM388 811q9 6 19 6q12 0 21 -9q7 -11 7 -19q0 -11 -10 -21q-14 -12 -23 -19t-16 -13
q-9 -7 -18 -14.5t-26 -21.5q-14 -13 -21 -21t-13 -16q-7 -8 -15 -17.5t-24 -24.5q-7 -7 -19 -7q-13 0 -20 9q-8 8 -8 19q0 12 9 20q14 13 20.5 20.5t12.5 15.5q7 9 15.5 19t25.5 25t27 23t19 15q8 6 16 13t21 18z" />
    <glyph glyph-name="thorn" unicode="&#xfe;" horiz-adv-x="483" 
d="M311 475q32 -20 60 -50.5t46 -68t23 -79.5t-8 -84q-9 -29 -28 -57.5t-43.5 -54t-53 -45t-58.5 -30.5q-33 -11 -58 -11q-29 0 -54 14v-16q1 -20 2.5 -48t3.5 -59t4 -61.5t3.5 -55t2.5 -39.5l1 -16q1 -11 -6 -18.5t-19 -8.5q-10 0 -17 6.5t-8 16.5l-1 16q-1 15 -2.5 40
t-3.5 55.5t-4 61.5t-3.5 60t-2.5 49q0 11 -0.5 21t-0.5 20q-2 46 -3.5 84t-6.5 78q-3 28 -6.5 57.5t-6 57t-4 52t-1.5 43.5q0 43 -2.5 91.5t-6 89.5t-6 68.5t-2.5 28.5q-1 11 5.5 18.5t17.5 8.5q10 2 18 -4.5t9 -17.5q0 -2 2.5 -23.5t5 -54.5t5 -74t3.5 -81q25 18 53.5 27.5
t56 11.5t52 -3t42.5 -16zM384 209q12 35 6 69t-22 63.5t-38.5 53t-44.5 37.5q-14 9 -35 11.5t-44 -1t-46 -14t-42 -28.5q-5 -5 -10 -6q1 -37 6.5 -90.5t11.5 -102.5q3 -29 4.5 -56t3.5 -56q10 -7 12 -19q0 -1 2.5 -6.5t11.5 -10.5q17 -10 36.5 -7.5t34.5 7.5q24 9 48.5 25.5
t45 37.5t36 45t23.5 48z" />
    <glyph glyph-name="ydieresis" unicode="&#xff;" horiz-adv-x="535" 
d="M531 569q14 -8 14 -24q0 -9 -4 -14l-8 -14l-20 -37.5t-26 -49t-26 -51.5q-10 -21 -13 -34.5t-5 -28.5q-2 -10 -3.5 -21t-5 -25.5t-9.5 -32.5t-16 -41q-22 -50 -28 -82.5t-10 -64.5l-2 -27q0 -7 -3 -13q-2 -11 -4 -22.5t-5 -25.5q-8 -34 -14.5 -55.5t-13.5 -41.5
q-8 -23 -16.5 -51t-18.5 -77q-9 -45 -16 -83.5t-11 -66.5t-6 -44l-2 -16q-2 -11 -10 -17.5t-21 -6.5q-25 3 -25 31q0 1 2.5 17.5t6.5 45t11 67t16 84.5q5 26 10 46t9.5 36t9 29t8.5 25q7 19 13 39t13 51q3 12 4.5 22.5t3.5 20.5q-10 14 -27.5 39.5t-33.5 53.5
q-9 16 -26 41.5t-35.5 52.5t-36 51.5t-27.5 39.5l-8 12q-6 8 -15.5 31t-28.5 71q-8 19 -16 39t-15.5 38.5t-14.5 33t-12 22.5q-4 10 -4 14q0 16 14 24q5 4 14 4q17 0 24 -13q11 -19 28 -58.5t34 -83.5q6 -14 11.5 -28.5t11 -27t9.5 -22.5t6 -13l8 -11q10 -15 27.5 -40
t36.5 -53t36 -54t27 -42q5 -10 11.5 -19.5t12.5 -19.5q5 24 12.5 52.5t23.5 66.5q17 42 22.5 65.5t8.5 41.5q2 17 6 35t16 44q12 25 26 52t26.5 49.5t21 37.5t9.5 17q8 14 24 14q9 0 14 -4zM213 698q17 0 28 -11t11 -28t-11 -28.5t-28 -11.5t-28.5 11.5t-11.5 28.5t11.5 28
t28.5 11zM362 698q17 0 28 -11t11 -28t-11 -28.5t-28 -11.5t-28 11.5t-11 28.5t11 28t28 11z" />
    <glyph glyph-name="Amacron" unicode="&#x100;" horiz-adv-x="654" 
d="M183 862h304v-73h-304v73zM306 341q54 0 93 -3.5t62 -6.5q-5 14 -8.5 25t-6.5 19q-6 24 -17 58.5t-24.5 73t-27.5 77t-27 70.5q-15 -32 -31.5 -70.5t-32 -77t-29 -73.5t-21.5 -59q-2 -8 -5.5 -16.5t-7.5 -19.5q40 3 83 3zM500 390q5 -19 17.5 -54t27.5 -76.5t31.5 -84.5
t29.5 -78.5t22 -58t9 -23.5q2 -4 2 -10q0 -19 -18 -26q-3 -2 -10 -2q-8 0 -15.5 4.5t-10.5 13.5q-1 3 -12 30.5t-26.5 67.5t-34.5 87.5t-37 90.5q-20 3 -46 7q-22 2 -53.5 4.5t-69.5 2.5q-26 0 -53.5 -1.5t-53.5 -3.5q-18 -43 -39 -92t-40 -91t-32 -71.5t-14 -32.5
q-8 -16 -26 -16q-7 0 -11 2q-17 8 -17 26q0 5 3 11q0 1 11 25.5t27.5 62t36.5 83t38 87.5q-28 -3 -46 -5.5t-21 -2.5q-11 0 -18.5 7t-9.5 21q0 11 6.5 18.5t17.5 9.5q2 0 28.5 3.5t66.5 7.5q8 18 13.5 33t9.5 26q9 27 26.5 71.5t37.5 93t40.5 94t35.5 75.5q2 16 16 23
q4 2 13 2q8 0 14 -3q13 -7 15 -23q13 -30 30.5 -76t35 -94.5t31.5 -93t22 -71.5z" />
    <glyph glyph-name="amacron" unicode="&#x101;" horiz-adv-x="574" 
d="M146 693h304v-73h-304v73zM246 38q21 0 46 19.5t48.5 52.5t42.5 77.5t28 94.5q-7 48 -11 101t-5 113q-11 9 -11 22q-7 3 -14.5 5t-16.5 2q-13 0 -37 -5.5t-52 -18t-56.5 -32.5t-52 -49t-38.5 -67t-15 -86q0 -76 12.5 -121t33 -69t46 -31.5t52.5 -7.5zM468 282
q9 -62 21 -111t22.5 -83t18 -52.5t7.5 -19.5q1 -3 1.5 -5.5t0.5 -5.5q0 -18 -16 -26q-8 -2 -12 -2q-19 0 -25 16q-2 4 -18.5 47.5t-34.5 121.5q-16 -39 -37.5 -72t-46 -57t-51 -37.5t-52.5 -13.5q-102 0 -151 70t-49 215q0 60 18 106.5t46.5 81.5t64 59t69.5 39t63 21.5
t46 6.5q30 0 52 -11.5t36.5 -26t21.5 -27t7 -13.5q3 -5 3 -11q0 -10 -9 -21q9 -47 9 -124q0 -16 -1.5 -32t-3.5 -33z" />
    <glyph glyph-name="Abreve" unicode="&#x102;" horiz-adv-x="654" 
d="M488 844q11 -1 18.5 -9t7.5 -21q0 -2 -2 -12.5t-7 -24t-14 -28.5t-25 -27q-14 -12 -31.5 -17.5t-37.5 -5.5h-12.5t-13.5 2q-37 6 -59.5 13.5t-35.5 19.5t-18 28.5t-6 39.5l-1 14q0 11 7.5 19t20.5 9q11 0 19 -7.5t9 -18.5l1 -13q1 -12 2.5 -20t8 -13t21 -8.5t40.5 -7.5
q5 -1 8.5 -1h8.5q21 0 34 10q9 7 14 16t8 17.5t4 14.5l1 6q1 11 9.5 18t20.5 7zM306 341q54 0 93 -3.5t62 -6.5q-5 14 -8.5 25t-6.5 19q-6 24 -17 58.5t-24.5 73t-27.5 77t-27 70.5q-15 -32 -31.5 -70.5t-32 -77t-29 -73.5t-21.5 -59q-2 -8 -5.5 -16.5t-7.5 -19.5q40 3 83 3
zM500 390q5 -19 17.5 -54t27.5 -76.5t31.5 -84.5t29.5 -78.5t22 -58t9 -23.5q2 -4 2 -10q0 -19 -18 -26q-3 -2 -10 -2q-8 0 -15.5 4.5t-10.5 13.5q-1 3 -12 30.5t-26.5 67.5t-34.5 87.5t-37 90.5q-20 3 -46 7q-22 2 -53.5 4.5t-69.5 2.5q-26 0 -53.5 -1.5t-53.5 -3.5
q-18 -43 -39 -92t-40 -91t-32 -71.5t-14 -32.5q-8 -16 -26 -16q-7 0 -11 2q-17 8 -17 26q0 5 3 11q0 1 11 25.5t27.5 62t36.5 83t38 87.5q-28 -3 -46 -5.5t-21 -2.5q-11 0 -18.5 7t-9.5 21q0 11 6.5 18.5t17.5 9.5q2 0 28.5 3.5t66.5 7.5q8 18 13.5 33t9.5 26
q9 27 26.5 71.5t37.5 93t40.5 94t35.5 75.5q2 16 16 23q4 2 13 2q8 0 14 -3q13 -7 15 -23q13 -30 30.5 -76t35 -94.5t31.5 -93t22 -71.5z" />
    <glyph glyph-name="abreve" unicode="&#x103;" horiz-adv-x="574" 
d="M452 675q11 -1 18.5 -9t7.5 -21q0 -2 -2 -12.5t-7 -24t-14 -28.5t-25 -27q-14 -12 -31.5 -17.5t-37.5 -5.5h-12.5t-13.5 2q-37 6 -59.5 13.5t-35.5 19.5t-18 28.5t-6 39.5l-1 14q0 11 7.5 19t20.5 9q11 0 19 -7.5t9 -18.5l1 -13q1 -12 2.5 -20t8 -13t21 -8.5t40.5 -7.5
q5 -1 8.5 -1h8.5q21 0 34 10q9 7 14 16t8 17.5t4 14.5l1 6q1 11 9.5 18t20.5 7zM246 38q21 0 46 19.5t48.5 52.5t42.5 77.5t28 94.5q-7 48 -11 101t-5 113q-11 9 -11 22q-7 3 -14.5 5t-16.5 2q-13 0 -37 -5.5t-52 -18t-56.5 -32.5t-52 -49t-38.5 -67t-15 -86
q0 -76 12.5 -121t33 -69t46 -31.5t52.5 -7.5zM468 282q9 -62 21 -111t22.5 -83t18 -52.5t7.5 -19.5q1 -3 1.5 -5.5t0.5 -5.5q0 -18 -16 -26q-8 -2 -12 -2q-19 0 -25 16q-2 4 -18.5 47.5t-34.5 121.5q-16 -39 -37.5 -72t-46 -57t-51 -37.5t-52.5 -13.5q-102 0 -151 70
t-49 215q0 60 18 106.5t46.5 81.5t64 59t69.5 39t63 21.5t46 6.5q30 0 52 -11.5t36.5 -26t21.5 -27t7 -13.5q3 -5 3 -11q0 -10 -9 -21q9 -47 9 -124q0 -16 -1.5 -32t-3.5 -33z" />
    <glyph glyph-name="Aogonek" unicode="&#x104;" horiz-adv-x="654" 
d="M875 -34q-17 0 -36.5 -2.5t-37.5 -7.5t-33 -14t-23 -21q-7 -11 -7 -24q0 -7 2 -14.5t10 -14.5q16 -15 50 -15q29 0 61 12t56 34q6 6 14 6q16 0 24 -17q4 -10 4 -18q0 -19 -14 -30q-29 -20 -67.5 -33t-76.5 -13q-23 0 -43 5.5t-36 16.5q-40 28 -40 84q0 40 24 69
q20 24 50 35.5t59 15.5zM306 341q54 0 93 -3.5t62 -6.5q-5 14 -8.5 25t-6.5 19q-6 24 -17 58.5t-24.5 73t-27.5 77t-27 70.5q-15 -32 -31.5 -70.5t-32 -77t-29 -73.5t-21.5 -59q-2 -8 -5.5 -16.5t-7.5 -19.5q40 3 83 3zM500 390q5 -19 17.5 -54t27.5 -76.5t31.5 -84.5
t29.5 -78.5t22 -58t9 -23.5q2 -4 2 -10q0 -19 -18 -26q-3 -2 -10 -2q-8 0 -15.5 4.5t-10.5 13.5q-1 3 -12 30.5t-26.5 67.5t-34.5 87.5t-37 90.5q-20 3 -46 7q-22 2 -53.5 4.5t-69.5 2.5q-26 0 -53.5 -1.5t-53.5 -3.5q-18 -43 -39 -92t-40 -91t-32 -71.5t-14 -32.5
q-8 -16 -26 -16q-7 0 -11 2q-17 8 -17 26q0 5 3 11q0 1 11 25.5t27.5 62t36.5 83t38 87.5q-28 -3 -46 -5.5t-21 -2.5q-11 0 -18.5 7t-9.5 21q0 11 6.5 18.5t17.5 9.5q2 0 28.5 3.5t66.5 7.5q8 18 13.5 33t9.5 26q9 27 26.5 71.5t37.5 93t40.5 94t35.5 75.5q2 16 16 23
q4 2 13 2q8 0 14 -3q13 -7 15 -23q13 -30 30.5 -76t35 -94.5t31.5 -93t22 -71.5z" />
    <glyph glyph-name="aogonek" unicode="&#x105;" horiz-adv-x="574" 
d="M741 -34q-17 0 -36.5 -2.5t-37.5 -7.5t-33 -14t-23 -21q-7 -11 -7 -24q0 -7 2 -14.5t10 -14.5q16 -15 50 -15q29 0 61 12t56 34q6 6 14 6q16 0 24 -17q4 -10 4 -18q0 -19 -14 -30q-29 -20 -67.5 -33t-76.5 -13q-23 0 -43 5.5t-36 16.5q-40 28 -40 84q0 40 24 69
q20 24 50 35.5t59 15.5zM246 38q21 0 46 19.5t48.5 52.5t42.5 77.5t28 94.5q-7 48 -11 101t-5 113q-11 9 -11 22q-7 3 -14.5 5t-16.5 2q-13 0 -37 -5.5t-52 -18t-56.5 -32.5t-52 -49t-38.5 -67t-15 -86q0 -76 12.5 -121t33 -69t46 -31.5t52.5 -7.5zM468 282q9 -62 21 -111
t22.5 -83t18 -52.5t7.5 -19.5q1 -3 1.5 -5.5t0.5 -5.5q0 -18 -16 -26q-8 -2 -12 -2q-19 0 -25 16q-2 4 -18.5 47.5t-34.5 121.5q-16 -39 -37.5 -72t-46 -57t-51 -37.5t-52.5 -13.5q-102 0 -151 70t-49 215q0 60 18 106.5t46.5 81.5t64 59t69.5 39t63 21.5t46 6.5
q30 0 52 -11.5t36.5 -26t21.5 -27t7 -13.5q3 -5 3 -11q0 -10 -9 -21q9 -47 9 -124q0 -16 -1.5 -32t-3.5 -33z" />
    <glyph glyph-name="Cacute" unicode="&#x106;" horiz-adv-x="647" 
d="M537 118q8 8 20 8t19 -7q9 -9 9 -21q0 -11 -8 -19q-1 -1 -15.5 -14t-40 -28t-61.5 -27.5t-81 -12.5q-53 0 -113.5 20.5t-113 66.5t-87 119.5t-34.5 180.5q0 33 2 57.5t6.5 44t11 35.5t15.5 31q1 2 14.5 24.5t33.5 51.5t45.5 56.5t50.5 39.5q29 13 58 19t55 6q28 0 49 -6
q10 -2 26 -7.5t32.5 -12.5t30.5 -15t20 -15q8 -11 10.5 -26.5t2.5 -29.5q0 -11 -8 -19.5t-20 -8.5q-11 0 -19.5 8.5t-8.5 19.5v11t-1 10q-10 5 -33.5 15.5t-44.5 15.5q-8 2 -16.5 3t-18.5 1q-21 0 -44.5 -4.5t-44.5 -15.5q-14 -6 -30.5 -23t-33 -38.5t-31.5 -44.5t-25 -42
q-7 -13 -12.5 -26t-9 -29t-5 -37t-1.5 -49q0 -68 16 -118.5t41.5 -87.5t58 -61t65 -38.5t62 -20t49.5 -5.5q36 0 65 10t49.5 22t32.5 23zM550 837q9 6 19 6q12 0 21 -9q7 -11 7 -19q0 -11 -10 -21q-14 -12 -23 -19t-16 -13q-9 -7 -18 -14.5t-26 -21.5q-14 -13 -21 -21
t-13 -16q-7 -8 -15 -17.5t-24 -24.5q-7 -7 -19 -7q-13 0 -20 9q-8 8 -8 19q0 12 9 20q14 13 20.5 20.5t12.5 15.5q7 9 15.5 19t25.5 25t27 23t19 15q8 6 16 13t21 18z" />
    <glyph glyph-name="cacute" unicode="&#x107;" horiz-adv-x="491" 
d="M327 56q7 4 16 4q15 0 23 -12q5 -8 5 -16q0 -13 -13 -23l-7 -5q-8 -5 -21 -10t-29.5 -9.5t-35.5 -4.5q-24 0 -58 14.5t-66.5 49t-57.5 91t-31 139.5q-1 6 -1 11.5v11.5q0 65 23.5 117t56.5 88.5t68.5 57t60.5 22.5q5 1 10.5 1h10.5q29 0 50.5 -5.5t29.5 -9.5
q11 -2 23 -15.5t12 -51.5q0 -12 -8.5 -20t-19.5 -8q-12 0 -20 8t-8 20q0 8 -2 16q-6 2 -21 6t-36 4h-7.5t-8.5 -1q-16 -2 -42.5 -18t-52 -45.5t-44.5 -71.5t-19 -95v-9t1 -9q4 -68 23 -114t43.5 -74.5t49 -41t41.5 -12.5q12 0 23 3t20 6.5t14 7.5zM454 668q9 6 19 6
q12 0 21 -9q7 -11 7 -19q0 -11 -10 -21q-14 -12 -23 -19t-16 -13q-9 -7 -18 -14.5t-26 -21.5q-14 -13 -21 -21t-13 -16q-7 -8 -15 -17.5t-24 -24.5q-7 -7 -19 -7q-13 0 -20 9q-8 8 -8 19q0 12 9 20q14 13 20.5 20.5t12.5 15.5q7 9 15.5 19t25.5 25t27 23t19 15q8 6 16 13
t21 18z" />
    <glyph glyph-name="Ccircumflex" unicode="&#x108;" horiz-adv-x="647" 
d="M622 667q0 -11 -7 -18q-7 -10 -21 -10q-11 0 -18 6l-71 57l-61 47l-50 -46l-61 -63q-8 -9 -20 -9q-11 0 -19 8q-9 9 -9 20q0 10 8 20l62 65l65 59q8 7 19 7q8 0 11 -2q9 0 17 -6l72 -56l72 -57q11 -9 11 -22zM537 118q8 8 20 8t19 -7q9 -9 9 -21q0 -11 -8 -19
q-1 -1 -15.5 -14t-40 -28t-61.5 -27.5t-81 -12.5q-53 0 -113.5 20.5t-113 66.5t-87 119.5t-34.5 180.5q0 33 2 57.5t6.5 44t11 35.5t15.5 31q1 2 14.5 24.5t33.5 51.5t45.5 56.5t50.5 39.5q29 13 58 19t55 6q28 0 49 -6q10 -2 26 -7.5t32.5 -12.5t30.5 -15t20 -15
q8 -11 10.5 -26.5t2.5 -29.5q0 -11 -8 -19.5t-20 -8.5q-11 0 -19.5 8.5t-8.5 19.5v11t-1 10q-10 5 -33.5 15.5t-44.5 15.5q-8 2 -16.5 3t-18.5 1q-21 0 -44.5 -4.5t-44.5 -15.5q-14 -6 -30.5 -23t-33 -38.5t-31.5 -44.5t-25 -42q-7 -13 -12.5 -26t-9 -29t-5 -37t-1.5 -49
q0 -68 16 -118.5t41.5 -87.5t58 -61t65 -38.5t62 -20t49.5 -5.5q36 0 65 10t49.5 22t32.5 23z" />
    <glyph glyph-name="ccircumflex" unicode="&#x109;" horiz-adv-x="491" 
d="M517 498q0 -11 -7 -18q-7 -10 -21 -10q-11 0 -18 6l-71 57l-61 47l-50 -46l-61 -63q-8 -9 -20 -9q-11 0 -19 8q-9 9 -9 20q0 10 8 20l62 65l65 59q8 7 19 7q8 0 11 -2q9 0 17 -6l72 -56l72 -57q11 -9 11 -22zM327 56q7 4 16 4q15 0 23 -12q5 -8 5 -16q0 -13 -13 -23
l-7 -5q-8 -5 -21 -10t-29.5 -9.5t-35.5 -4.5q-24 0 -58 14.5t-66.5 49t-57.5 91t-31 139.5q-1 6 -1 11.5v11.5q0 65 23.5 117t56.5 88.5t68.5 57t60.5 22.5q5 1 10.5 1h10.5q29 0 50.5 -5.5t29.5 -9.5q11 -2 23 -15.5t12 -51.5q0 -12 -8.5 -20t-19.5 -8q-12 0 -20 8t-8 20
q0 8 -2 16q-6 2 -21 6t-36 4h-7.5t-8.5 -1q-16 -2 -42.5 -18t-52 -45.5t-44.5 -71.5t-19 -95v-9t1 -9q4 -68 23 -114t43.5 -74.5t49 -41t41.5 -12.5q12 0 23 3t20 6.5t14 7.5z" />
    <glyph glyph-name="Cdotaccent" unicode="&#x10a;" horiz-adv-x="647" 
d="M623 838q17 0 28.5 -11.5t11.5 -27.5q0 -17 -11.5 -28.5t-28.5 -11.5q-16 0 -27.5 11.5t-11.5 28.5q0 16 11.5 27.5t27.5 11.5zM537 118q8 8 20 8t19 -7q9 -9 9 -21q0 -11 -8 -19q-1 -1 -15.5 -14t-40 -28t-61.5 -27.5t-81 -12.5q-53 0 -113.5 20.5t-113 66.5t-87 119.5
t-34.5 180.5q0 33 2 57.5t6.5 44t11 35.5t15.5 31q1 2 14.5 24.5t33.5 51.5t45.5 56.5t50.5 39.5q29 13 58 19t55 6q28 0 49 -6q10 -2 26 -7.5t32.5 -12.5t30.5 -15t20 -15q8 -11 10.5 -26.5t2.5 -29.5q0 -11 -8 -19.5t-20 -8.5q-11 0 -19.5 8.5t-8.5 19.5v11t-1 10
q-10 5 -33.5 15.5t-44.5 15.5q-8 2 -16.5 3t-18.5 1q-21 0 -44.5 -4.5t-44.5 -15.5q-14 -6 -30.5 -23t-33 -38.5t-31.5 -44.5t-25 -42q-7 -13 -12.5 -26t-9 -29t-5 -37t-1.5 -49q0 -68 16 -118.5t41.5 -87.5t58 -61t65 -38.5t62 -20t49.5 -5.5q36 0 65 10t49.5 22t32.5 23z
" />
    <glyph glyph-name="cdotaccent" unicode="&#x10b;" horiz-adv-x="491" 
d="M525 669q17 0 28.5 -11.5t11.5 -27.5q0 -17 -11.5 -28.5t-28.5 -11.5q-16 0 -27.5 11.5t-11.5 28.5q0 16 11.5 27.5t27.5 11.5zM327 56q7 4 16 4q15 0 23 -12q5 -8 5 -16q0 -13 -13 -23l-7 -5q-8 -5 -21 -10t-29.5 -9.5t-35.5 -4.5q-24 0 -58 14.5t-66.5 49t-57.5 91
t-31 139.5q-1 6 -1 11.5v11.5q0 65 23.5 117t56.5 88.5t68.5 57t60.5 22.5q5 1 10.5 1h10.5q29 0 50.5 -5.5t29.5 -9.5q11 -2 23 -15.5t12 -51.5q0 -12 -8.5 -20t-19.5 -8q-12 0 -20 8t-8 20q0 8 -2 16q-6 2 -21 6t-36 4h-7.5t-8.5 -1q-16 -2 -42.5 -18t-52 -45.5
t-44.5 -71.5t-19 -95v-9t1 -9q4 -68 23 -114t43.5 -74.5t49 -41t41.5 -12.5q12 0 23 3t20 6.5t14 7.5z" />
    <glyph glyph-name="Ccaron" unicode="&#x10c;" horiz-adv-x="647" 
d="M594 810q12 0 19 -7q9 -9 9 -21q0 -11 -8 -19l-62 -65l-66 -59q-8 -8 -18 -8q-7 0 -11 3q-9 0 -17 5l-72 57l-72 57q-11 9 -11 22q0 9 6 17q9 11 22 11q10 0 18 -6l71 -57l61 -47l50 46l60 63q10 8 21 8zM537 118q8 8 20 8t19 -7q9 -9 9 -21q0 -11 -8 -19
q-1 -1 -15.5 -14t-40 -28t-61.5 -27.5t-81 -12.5q-53 0 -113.5 20.5t-113 66.5t-87 119.5t-34.5 180.5q0 33 2 57.5t6.5 44t11 35.5t15.5 31q1 2 14.5 24.5t33.5 51.5t45.5 56.5t50.5 39.5q29 13 58 19t55 6q28 0 49 -6q10 -2 26 -7.5t32.5 -12.5t30.5 -15t20 -15
q8 -11 10.5 -26.5t2.5 -29.5q0 -11 -8 -19.5t-20 -8.5q-11 0 -19.5 8.5t-8.5 19.5v11t-1 10q-10 5 -33.5 15.5t-44.5 15.5q-8 2 -16.5 3t-18.5 1q-21 0 -44.5 -4.5t-44.5 -15.5q-14 -6 -30.5 -23t-33 -38.5t-31.5 -44.5t-25 -42q-7 -13 -12.5 -26t-9 -29t-5 -37t-1.5 -49
q0 -68 16 -118.5t41.5 -87.5t58 -61t65 -38.5t62 -20t49.5 -5.5q36 0 65 10t49.5 22t32.5 23z" />
    <glyph glyph-name="ccaron" unicode="&#x10d;" horiz-adv-x="491" 
d="M493 641q12 0 19 -7q9 -9 9 -21q0 -11 -8 -19l-62 -65l-66 -59q-8 -8 -18 -8q-7 0 -11 3q-9 0 -17 5l-72 57l-72 57q-11 9 -11 22q0 9 6 17q9 11 22 11q10 0 18 -6l71 -57l61 -47l50 46l60 63q10 8 21 8zM327 56q7 4 16 4q15 0 23 -12q5 -8 5 -16q0 -13 -13 -23l-7 -5
q-8 -5 -21 -10t-29.5 -9.5t-35.5 -4.5q-24 0 -58 14.5t-66.5 49t-57.5 91t-31 139.5q-1 6 -1 11.5v11.5q0 65 23.5 117t56.5 88.5t68.5 57t60.5 22.5q5 1 10.5 1h10.5q29 0 50.5 -5.5t29.5 -9.5q11 -2 23 -15.5t12 -51.5q0 -12 -8.5 -20t-19.5 -8q-12 0 -20 8t-8 20
q0 8 -2 16q-6 2 -21 6t-36 4h-7.5t-8.5 -1q-16 -2 -42.5 -18t-52 -45.5t-44.5 -71.5t-19 -95v-9t1 -9q4 -68 23 -114t43.5 -74.5t49 -41t41.5 -12.5q12 0 23 3t20 6.5t14 7.5z" />
    <glyph glyph-name="Dcaron" unicode="&#x10e;" horiz-adv-x="747" 
d="M543 810q12 0 19 -7q9 -9 9 -21q0 -11 -8 -19l-62 -65l-66 -59q-8 -8 -18 -8q-7 0 -11 3q-9 0 -17 5l-72 57l-72 57q-11 9 -11 22q0 9 6 17q9 11 22 11q10 0 18 -6l71 -57l61 -47l50 46l60 63q10 8 21 8zM389 42q56 16 91 52.5t55 84.5t27 101.5t7 103.5
q0 66 -22.5 117.5t-55.5 89t-71 60.5t-69 31q-48 13 -82.5 18t-63.5 5t-54.5 -4.5t-54.5 -11.5q4 -34 7.5 -75.5t6.5 -82t4.5 -76t1.5 -58.5q0 -17 2 -45.5t4.5 -63.5t6 -72.5t7 -72t6.5 -62.5t5 -43q29 -2 61.5 -2.5t64.5 -0.5q40 0 71 1.5t45 5.5zM365 736
q39 -11 84.5 -38t84.5 -70.5t65 -104.5t26 -139q0 -103 -20.5 -174t-52.5 -116.5t-71 -70t-77 -35.5q-18 -5 -54.5 -7t-77.5 -2q-26 0 -51.5 0.5t-46.5 1t-35.5 1.5t-19.5 1q-11 0 -18.5 9t-7.5 24q-1 3 -3.5 27t-6 59.5t-7.5 78.5t-7.5 84.5t-6 76.5t-2.5 55q0 25 -1.5 62
t-4.5 77.5t-7 80t-8 71.5q-2 2 -4 6.5t-4 13.5q0 8 3 14q0 2 -0.5 5.5t-1.5 9.5q0 10 7 18t21 10q22 0 27 -21q30 8 57.5 12.5t60.5 4.5q31 0 69.5 -5.5t90.5 -19.5z" />
    <glyph glyph-name="dcaron" unicode="&#x10f;" horiz-adv-x="630" 
d="M588 626q12 33 22 79.5t12 72.5h90v-9q-6 -26 -28 -72.5t-46 -82.5h-50v12zM405 118q5 7 15 10q-6 39 -11.5 83.5t-10 88t-7.5 83t-3 68.5v14t-1 15q-16 5 -19 23q0 2 -2.5 6.5t-10.5 8.5t-19 4t-22 -3.5t-20 -7.5q-28 -13 -57 -38t-54.5 -56t-45 -65.5t-28.5 -66.5
q-7 -27 -7 -55q0 -35 11.5 -65t29 -54t38.5 -40.5t40 -25.5q12 -6 31 -6q33 0 75.5 18.5t77.5 60.5zM444 451q0 -32 3.5 -77t9.5 -94t12.5 -97.5t12 -88t9.5 -64.5t4 -27q0 -10 -7 -18t-21 -10q-10 0 -18 6.5t-10 17.5q0 2 -2.5 19t-6.5 45q-41 -42 -88 -61t-89 -19
q-34 0 -55 11q-30 14 -57.5 37.5t-48.5 54t-33.5 67.5t-12.5 78q0 33 9 69q10 38 32.5 78t51.5 75t63 63.5t68 44.5q36 17 66 17q12 0 23 -2.5t25 -9.5q-2 37 -4.5 72t-5 62.5t-4 44.5t-1.5 19q0 11 7.5 18.5t20.5 9.5q11 0 18.5 -7.5t9.5 -18.5q0 -3 3 -34t6.5 -77
t6.5 -100.5t3 -103.5z" />
    <glyph glyph-name="Dcroat" unicode="&#x110;" horiz-adv-x="747" 
d="M60 418q-1 27 -3 62t-4.5 72t-6 72t-7.5 64q-6 5 -7 13q-1 9 -0.5 13.5t2.5 7.5q0 2 -0.5 5t-0.5 5q-1 14 5 22.5t17 10.5q27 0 32 -21q30 8 57.5 12.5t60.5 4.5q31 0 69.5 -5.5t90.5 -19.5q39 -11 84.5 -38t84.5 -70.5t65 -104.5t26 -139q0 -103 -20.5 -174
t-52.5 -116.5t-71 -70t-77 -35.5q-18 -5 -54.5 -7t-77.5 -2q-26 0 -51.5 0.5t-46.5 1t-35.5 1.5t-19.5 1q-11 0 -19 8.5t-7 19.5q-1 6 -5 46t-9.5 94.5t-10.5 112t-7 98.5q-38 -5 -66 -9.5t-29 -4.5q-10 0 -16 6.5t-7 17.5q-1 14 4 22t13 10q2 0 31 4.5t69 9.5zM277 408
q17 -5 17 -27q-2 -14 -8 -21t-13 -7q-4 0 -39 7t-93 7q-6 0 -12 -0.5t-12 -0.5q2 -33 6 -81t8.5 -96t9 -89t6.5 -62q29 -2 61.5 -2.5t64.5 -0.5q40 0 71 1.5t45 5.5q56 16 91 52.5t55 84.5t27 101.5t7 103.5q0 66 -22.5 117.5t-55.5 89t-71 60.5t-69 31q-48 13 -82.5 18
t-63.5 5t-54.5 -4.5t-54.5 -11.5q4 -30 7 -66l6 -72t4.5 -69.5t2.5 -59.5q6 0 12.5 0.5t12.5 0.5q62 0 98 -7t38 -8z" />
    <glyph glyph-name="dcroat" unicode="&#x111;" horiz-adv-x="632" 
d="M282 -10q-107 0 -166 74q-60 74 -60 208q0 136 59 210t167 74q112 0 170 -81h7q-2 7 -4.5 34.5t-2.5 47.5v63h-218v67h218v91h90v-91h78v-67h-78v-620h-73l-13 74h-4q-58 -84 -170 -84zM297 64q82 0 119.5 44.5t37.5 145.5v18q0 115 -38 162.5t-121 47.5
q-70 0 -107.5 -54t-37.5 -158q0 -98 36.5 -152t110.5 -54z" />
    <glyph glyph-name="Emacron" unicode="&#x112;" horiz-adv-x="569" 
d="M152 862h304v-73h-304v73zM567 51q22 -5 22 -33q-2 -11 -10.5 -17t-22.5 -5q-1 0 -46.5 6.5t-123.5 6.5q-39 0 -80 -3t-75.5 -6t-57 -6t-24.5 -3h-19q-11 0 -19 7t-9 18q-1 3 -3.5 27t-6 59.5t-7.5 78.5t-7.5 84.5t-6 76.5t-2.5 55q0 30 -2.5 77t-6.5 96.5t-9 94.5
t-10 72q0 10 7 18t21 10q22 0 27 -21q7 10 19 12q2 0 24.5 3t57 6.5t76.5 6.5t83 3q82 0 130.5 -7t50.5 -8q22 -5 22 -33q-5 -22 -34 -22q-20 3 -46 7q-22 2 -53.5 4.5t-69.5 2.5q-39 0 -80 -3t-75.5 -6.5t-57 -6.5t-24.5 -3q-9 0 -17 5q5 -33 9 -76t7 -86t5 -81.5t2 -63.5
q9 1 29 3.5t47.5 5t60.5 4.5t68 4q11 0 19.5 -8t8.5 -20q0 -11 -8 -19.5t-19 -8.5q-36 -2 -71.5 -4.5t-63.5 -5t-47 -5t-22 -2.5q2 -34 6 -75.5l8 -83t7.5 -77.5t6.5 -58q12 1 36.5 4t56.5 6t67.5 5t70.5 2q82 0 130.5 -7t50.5 -7z" />
    <glyph glyph-name="emacron" unicode="&#x113;" horiz-adv-x="577" 
d="M154 693h304v-73h-304v73zM278 504q-9 0 -35.5 -9.5t-55 -34t-53 -68t-30.5 -111.5q17 4 38.5 9t43 9.5t41 7.5t31.5 3q14 0 35.5 6.5t42.5 13.5q17 6 32 10.5t29 8.5q-4 40 -17 69t-30 48t-36 28.5t-36 9.5zM467 46q11 0 18.5 -7t9.5 -21q0 -11 -6.5 -18.5t-17.5 -9.5
q-2 0 -18 -2.5t-38 -5.5t-46 -5t-41 -2q-133 0 -204 70.5t-78 198.5q-2 65 11.5 114t36 84t50.5 58t54.5 36t48 18.5t31.5 5.5q26 0 55.5 -13t55 -39.5t43.5 -67.5t22 -97q6 -8 6 -18t-6 -17q-5 -20 -27 -20q-10 0 -17 6q-27 -6 -56 -17q-26 -9 -51 -16t-45 -7
q-11 0 -29.5 -3t-40.5 -8t-44.5 -10.5t-40.5 -10.5q4 -62 28.5 -99.5t58 -58t71 -27t67.5 -6.5q16 0 39 2t44 5t37 5l15 2z" />
    <glyph glyph-name="Ebreve" unicode="&#x114;" horiz-adv-x="569" 
d="M470 844q11 -1 18.5 -9t7.5 -21q0 -2 -2 -12.5t-7 -24t-14 -28.5t-25 -27q-14 -12 -31.5 -17.5t-37.5 -5.5h-12.5t-13.5 2q-37 6 -59.5 13.5t-35.5 19.5t-18 28.5t-6 39.5l-1 14q0 11 7.5 19t20.5 9q11 0 19 -7.5t9 -18.5l1 -13q1 -12 2.5 -20t8 -13t21 -8.5t40.5 -7.5
q5 -1 8.5 -1h8.5q21 0 34 10q9 7 14 16t8 17.5t4 14.5l1 6q1 11 9.5 18t20.5 7zM567 51q22 -5 22 -33q-2 -11 -10.5 -17t-22.5 -5q-1 0 -46.5 6.5t-123.5 6.5q-39 0 -80 -3t-75.5 -6t-57 -6t-24.5 -3h-19q-11 0 -19 7t-9 18q-1 3 -3.5 27t-6 59.5t-7.5 78.5t-7.5 84.5
t-6 76.5t-2.5 55q0 30 -2.5 77t-6.5 96.5t-9 94.5t-10 72q0 10 7 18t21 10q22 0 27 -21q7 10 19 12q2 0 24.5 3t57 6.5t76.5 6.5t83 3q82 0 130.5 -7t50.5 -8q22 -5 22 -33q-5 -22 -34 -22q-20 3 -46 7q-22 2 -53.5 4.5t-69.5 2.5q-39 0 -80 -3t-75.5 -6.5t-57 -6.5
t-24.5 -3q-9 0 -17 5q5 -33 9 -76t7 -86t5 -81.5t2 -63.5q9 1 29 3.5t47.5 5t60.5 4.5t68 4q11 0 19.5 -8t8.5 -20q0 -11 -8 -19.5t-19 -8.5q-36 -2 -71.5 -4.5t-63.5 -5t-47 -5t-22 -2.5q2 -34 6 -75.5l8 -83t7.5 -77.5t6.5 -58q12 1 36.5 4t56.5 6t67.5 5t70.5 2
q82 0 130.5 -7t50.5 -7z" />
    <glyph glyph-name="ebreve" unicode="&#x115;" horiz-adv-x="577" 
d="M462 675q11 -1 18.5 -9t7.5 -21q0 -2 -2 -12.5t-7 -24t-14 -28.5t-25 -27q-14 -12 -31.5 -17.5t-37.5 -5.5h-12.5t-13.5 2q-37 6 -59.5 13.5t-35.5 19.5t-18 28.5t-6 39.5l-1 14q0 11 7.5 19t20.5 9q11 0 19 -7.5t9 -18.5l1 -13q1 -12 2.5 -20t8 -13t21 -8.5t40.5 -7.5
q5 -1 8.5 -1h8.5q21 0 34 10q9 7 14 16t8 17.5t4 14.5l1 6q1 11 9.5 18t20.5 7zM278 504q-9 0 -35.5 -9.5t-55 -34t-53 -68t-30.5 -111.5q17 4 38.5 9t43 9.5t41 7.5t31.5 3q14 0 35.5 6.5t42.5 13.5q17 6 32 10.5t29 8.5q-4 40 -17 69t-30 48t-36 28.5t-36 9.5zM467 46
q11 0 18.5 -7t9.5 -21q0 -11 -6.5 -18.5t-17.5 -9.5q-2 0 -18 -2.5t-38 -5.5t-46 -5t-41 -2q-133 0 -204 70.5t-78 198.5q-2 65 11.5 114t36 84t50.5 58t54.5 36t48 18.5t31.5 5.5q26 0 55.5 -13t55 -39.5t43.5 -67.5t22 -97q6 -8 6 -18t-6 -17q-5 -20 -27 -20q-10 0 -17 6
q-27 -6 -56 -17q-26 -9 -51 -16t-45 -7q-11 0 -29.5 -3t-40.5 -8t-44.5 -10.5t-40.5 -10.5q4 -62 28.5 -99.5t58 -58t71 -27t67.5 -6.5q16 0 39 2t44 5t37 5l15 2z" />
    <glyph glyph-name="Edotaccent" unicode="&#x116;" horiz-adv-x="569" 
d="M537 823q17 0 28.5 -11.5t11.5 -27.5q0 -17 -11.5 -28.5t-28.5 -11.5q-16 0 -27.5 11.5t-11.5 28.5q0 16 11.5 27.5t27.5 11.5zM567 51q22 -5 22 -33q-2 -11 -10.5 -17t-22.5 -5q-1 0 -46.5 6.5t-123.5 6.5q-39 0 -80 -3t-75.5 -6t-57 -6t-24.5 -3h-19q-11 0 -19 7t-9 18
q-1 3 -3.5 27t-6 59.5t-7.5 78.5t-7.5 84.5t-6 76.5t-2.5 55q0 30 -2.5 77t-6.5 96.5t-9 94.5t-10 72q0 10 7 18t21 10q22 0 27 -21q7 10 19 12q2 0 24.5 3t57 6.5t76.5 6.5t83 3q82 0 130.5 -7t50.5 -8q22 -5 22 -33q-5 -22 -34 -22q-20 3 -46 7q-22 2 -53.5 4.5t-69.5 2.5
q-39 0 -80 -3t-75.5 -6.5t-57 -6.5t-24.5 -3q-9 0 -17 5q5 -33 9 -76t7 -86t5 -81.5t2 -63.5q9 1 29 3.5t47.5 5t60.5 4.5t68 4q11 0 19.5 -8t8.5 -20q0 -11 -8 -19.5t-19 -8.5q-36 -2 -71.5 -4.5t-63.5 -5t-47 -5t-22 -2.5q2 -34 6 -75.5l8 -83t7.5 -77.5t6.5 -58
q12 1 36.5 4t56.5 6t67.5 5t70.5 2q82 0 130.5 -7t50.5 -7z" />
    <glyph glyph-name="edotaccent" unicode="&#x117;" horiz-adv-x="577" 
d="M527 669q17 0 28.5 -11.5t11.5 -27.5q0 -17 -11.5 -28.5t-28.5 -11.5q-16 0 -27.5 11.5t-11.5 28.5q0 16 11.5 27.5t27.5 11.5zM278 504q-9 0 -35.5 -9.5t-55 -34t-53 -68t-30.5 -111.5q17 4 38.5 9t43 9.5t41 7.5t31.5 3q14 0 35.5 6.5t42.5 13.5q17 6 32 10.5t29 8.5
q-4 40 -17 69t-30 48t-36 28.5t-36 9.5zM467 46q11 0 18.5 -7t9.5 -21q0 -11 -6.5 -18.5t-17.5 -9.5q-2 0 -18 -2.5t-38 -5.5t-46 -5t-41 -2q-133 0 -204 70.5t-78 198.5q-2 65 11.5 114t36 84t50.5 58t54.5 36t48 18.5t31.5 5.5q26 0 55.5 -13t55 -39.5t43.5 -67.5t22 -97
q6 -8 6 -18t-6 -17q-5 -20 -27 -20q-10 0 -17 6q-27 -6 -56 -17q-26 -9 -51 -16t-45 -7q-11 0 -29.5 -3t-40.5 -8t-44.5 -10.5t-40.5 -10.5q4 -62 28.5 -99.5t58 -58t71 -27t67.5 -6.5q16 0 39 2t44 5t37 5l15 2z" />
    <glyph glyph-name="Eogonek" unicode="&#x118;" horiz-adv-x="569" 
d="M723 -34q-17 0 -36.5 -2.5t-37.5 -7.5t-33 -14t-23 -21q-7 -11 -7 -24q0 -7 2 -14.5t10 -14.5q16 -15 50 -15q29 0 61 12t56 34q6 6 14 6q16 0 24 -17q4 -10 4 -18q0 -19 -14 -30q-29 -20 -67.5 -33t-76.5 -13q-23 0 -43 5.5t-36 16.5q-40 28 -40 84q0 40 24 69
q20 24 50 35.5t59 15.5zM567 51q22 -5 22 -33q-2 -11 -10.5 -17t-22.5 -5q-1 0 -46.5 6.5t-123.5 6.5q-39 0 -80 -3t-75.5 -6t-57 -6t-24.5 -3h-19q-11 0 -19 7t-9 18q-1 3 -3.5 27t-6 59.5t-7.5 78.5t-7.5 84.5t-6 76.5t-2.5 55q0 30 -2.5 77t-6.5 96.5t-9 94.5t-10 72
q0 10 7 18t21 10q22 0 27 -21q7 10 19 12q2 0 24.5 3t57 6.5t76.5 6.5t83 3q82 0 130.5 -7t50.5 -8q22 -5 22 -33q-5 -22 -34 -22q-20 3 -46 7q-22 2 -53.5 4.5t-69.5 2.5q-39 0 -80 -3t-75.5 -6.5t-57 -6.5t-24.5 -3q-9 0 -17 5q5 -33 9 -76t7 -86t5 -81.5t2 -63.5
q9 1 29 3.5t47.5 5t60.5 4.5t68 4q11 0 19.5 -8t8.5 -20q0 -11 -8 -19.5t-19 -8.5q-36 -2 -71.5 -4.5t-63.5 -5t-47 -5t-22 -2.5q2 -34 6 -75.5l8 -83t7.5 -77.5t6.5 -58q12 1 36.5 4t56.5 6t67.5 5t70.5 2q82 0 130.5 -7t50.5 -7z" />
    <glyph glyph-name="eogonek" unicode="&#x119;" horiz-adv-x="577" 
d="M718 -20q-17 0 -36.5 -2.5t-37.5 -7.5t-33 -14t-23 -21q-7 -11 -7 -24q0 -7 2 -14.5t10 -14.5q16 -15 50 -15q29 0 61 12t56 34q6 6 14 6q16 0 24 -17q4 -10 4 -18q0 -19 -14 -30q-29 -20 -67.5 -33t-76.5 -13q-23 0 -43 5.5t-36 16.5q-40 28 -40 84q0 40 24 69
q20 24 50 35.5t59 15.5zM278 504q-9 0 -35.5 -9.5t-55 -34t-53 -68t-30.5 -111.5q17 4 38.5 9t43 9.5t41 7.5t31.5 3q14 0 35.5 6.5t42.5 13.5q17 6 32 10.5t29 8.5q-4 40 -17 69t-30 48t-36 28.5t-36 9.5zM467 46q11 0 18.5 -7t9.5 -21q0 -11 -6.5 -18.5t-17.5 -9.5
q-2 0 -18 -2.5t-38 -5.5t-46 -5t-41 -2q-133 0 -204 70.5t-78 198.5q-2 65 11.5 114t36 84t50.5 58t54.5 36t48 18.5t31.5 5.5q26 0 55.5 -13t55 -39.5t43.5 -67.5t22 -97q6 -8 6 -18t-6 -17q-5 -20 -27 -20q-10 0 -17 6q-27 -6 -56 -17q-26 -9 -51 -16t-45 -7
q-11 0 -29.5 -3t-40.5 -8t-44.5 -10.5t-40.5 -10.5q4 -62 28.5 -99.5t58 -58t71 -27t67.5 -6.5q16 0 39 2t44 5t37 5l15 2z" />
    <glyph glyph-name="Ecaron" unicode="&#x11a;" horiz-adv-x="569" 
d="M505 810q12 0 19 -7q9 -9 9 -21q0 -11 -8 -19l-62 -65l-66 -59q-8 -8 -18 -8q-7 0 -11 3q-9 0 -17 5l-72 57l-72 57q-11 9 -11 22q0 9 6 17q9 11 22 11q10 0 18 -6l71 -57l61 -47l50 46l60 63q10 8 21 8zM567 51q22 -5 22 -33q-2 -11 -10.5 -17t-22.5 -5q-1 0 -46.5 6.5
t-123.5 6.5q-39 0 -80 -3t-75.5 -6t-57 -6t-24.5 -3h-19q-11 0 -19 7t-9 18q-1 3 -3.5 27t-6 59.5t-7.5 78.5t-7.5 84.5t-6 76.5t-2.5 55q0 30 -2.5 77t-6.5 96.5t-9 94.5t-10 72q0 10 7 18t21 10q22 0 27 -21q7 10 19 12q2 0 24.5 3t57 6.5t76.5 6.5t83 3q82 0 130.5 -7
t50.5 -8q22 -5 22 -33q-5 -22 -34 -22q-20 3 -46 7q-22 2 -53.5 4.5t-69.5 2.5q-39 0 -80 -3t-75.5 -6.5t-57 -6.5t-24.5 -3q-9 0 -17 5q5 -33 9 -76t7 -86t5 -81.5t2 -63.5q9 1 29 3.5t47.5 5t60.5 4.5t68 4q11 0 19.5 -8t8.5 -20q0 -11 -8 -19.5t-19 -8.5
q-36 -2 -71.5 -4.5t-63.5 -5t-47 -5t-22 -2.5q2 -34 6 -75.5l8 -83t7.5 -77.5t6.5 -58q12 1 36.5 4t56.5 6t67.5 5t70.5 2q82 0 130.5 -7t50.5 -7z" />
    <glyph glyph-name="ecaron" unicode="&#x11b;" horiz-adv-x="577" 
d="M497 641q12 0 19 -7q9 -9 9 -21q0 -11 -8 -19l-62 -65l-66 -59q-8 -8 -18 -8q-7 0 -11 3q-9 0 -17 5l-72 57l-72 57q-11 9 -11 22q0 9 6 17q9 11 22 11q10 0 18 -6l71 -57l61 -47l50 46l60 63q10 8 21 8zM278 504q-9 0 -35.5 -9.5t-55 -34t-53 -68t-30.5 -111.5
q17 4 38.5 9t43 9.5t41 7.5t31.5 3q14 0 35.5 6.5t42.5 13.5q17 6 32 10.5t29 8.5q-4 40 -17 69t-30 48t-36 28.5t-36 9.5zM467 46q11 0 18.5 -7t9.5 -21q0 -11 -6.5 -18.5t-17.5 -9.5q-2 0 -18 -2.5t-38 -5.5t-46 -5t-41 -2q-133 0 -204 70.5t-78 198.5q-2 65 11.5 114
t36 84t50.5 58t54.5 36t48 18.5t31.5 5.5q26 0 55.5 -13t55 -39.5t43.5 -67.5t22 -97q6 -8 6 -18t-6 -17q-5 -20 -27 -20q-10 0 -17 6q-27 -6 -56 -17q-26 -9 -51 -16t-45 -7q-11 0 -29.5 -3t-40.5 -8t-44.5 -10.5t-40.5 -10.5q4 -62 28.5 -99.5t58 -58t71 -27t67.5 -6.5
q16 0 39 2t44 5t37 5l15 2z" />
    <glyph glyph-name="Gcircumflex" unicode="&#x11c;" horiz-adv-x="745" 
d="M651 667q0 -11 -7 -18q-7 -10 -21 -10q-11 0 -18 6l-71 57l-61 47l-50 -46l-61 -63q-8 -9 -20 -9q-11 0 -19 8q-9 9 -9 20q0 10 8 20l62 65l65 59q8 7 19 7q8 0 11 -2q9 0 17 -6l72 -56l72 -57q11 -9 11 -22zM579 380q22 0 27 -23q6 -27 11 -74t9 -97.5t6.5 -98
t2.5 -76.5q0 -11 -8.5 -19.5t-19.5 -8.5q-12 0 -20 8.5t-8 19.5t-0.5 24.5t-1.5 28.5q-11 -9 -29 -20.5t-42 -22t-54 -17.5t-64 -7q-36 0 -77 9t-81.5 28.5t-77 49.5t-65 73t-45 99.5t-16.5 127.5q0 33 2 57.5t6.5 44t11.5 35.5t16 31q1 2 15 25t35.5 51.5t48 56t52.5 39.5
q29 13 59.5 18.5t57.5 5.5q28 0 50 -5q10 -2 27 -7.5t34 -12.5t32 -15t21 -15q6 -8 6 -18q0 -14 -10 -21q-7 -7 -18 -7t-20 9q-3 2 -12.5 6.5t-21.5 9.5t-25.5 9.5t-25.5 7.5q-8 2 -17 3t-20 1q-22 0 -46.5 -4.5t-47.5 -15.5q-14 -6 -31 -23t-34.5 -38.5t-33 -45
t-26.5 -42.5q-8 -12 -13 -25t-9 -29t-5.5 -37t-1.5 -49q0 -68 17 -118.5t43.5 -87.5t60.5 -61t68 -38.5t65 -20t52 -5.5q38 0 68.5 10t52.5 22t34 23l11 10q8 8 20 8q-3 51 -8 103.5t-10 88.5q-38 -2 -74 -4.5t-64.5 -5.5t-47 -5t-19.5 -2q-11 0 -18.5 7t-9.5 21
q0 11 6.5 18.5t17.5 9.5q1 0 19.5 2t48.5 5t68 5.5t79 4.5q3 3 11 5z" />
    <glyph glyph-name="gcircumflex" unicode="&#x11d;" horiz-adv-x="630" 
d="M532 498q0 -11 -7 -18q-7 -10 -21 -10q-11 0 -18 6l-71 57l-61 47l-50 -46l-61 -63q-8 -9 -20 -9q-11 0 -19 8q-9 9 -9 20q0 10 8 20l62 65l65 59q8 7 19 7q8 0 11 -2q9 0 17 -6l72 -56l72 -57q11 -9 11 -22zM418 149q3 9 13 14q-7 69 -11.5 128t-4.5 96v12q-10 5 -14 13
q-21 39 -41.5 56t-26.5 18q-17 0 -30.5 -2t-18.5 -3q-13 0 -21 10q-25 -10 -52.5 -45t-50.5 -81.5t-38 -99t-15 -96.5q0 -47 16 -79t40 -52.5t51.5 -29.5t50.5 -9q15 0 35.5 10.5t42 30t41.5 47t34 62.5zM471 387q0 -23 2 -57.5t5.5 -75t7.5 -86t9 -91.5q4 -45 8.5 -87.5
t7.5 -80t5 -68.5t2 -52q0 -36 -14 -71.5t-41 -63.5t-66.5 -45.5t-91.5 -17.5q-148 0 -212 162q-2 4 -2 11q0 18 17 26q3 1 5.5 1.5t5.5 0.5q18 0 26 -19q5 -13 15.5 -34.5t28.5 -41.5t46.5 -35t69.5 -15q43 0 73 14t48.5 35.5t27 46.5t8.5 46q0 20 -2 50.5t-5 67.5t-7 78.5
t-8 83.5q-19 -30 -41.5 -53t-46 -39.5t-46 -25t-41.5 -8.5q-39 0 -77.5 14.5t-68.5 43t-49 71t-19 97.5q0 35 9 77t24.5 84t37 82t46.5 70.5t53 49t57 18.5q21 0 35 -9q5 1 10 1h11q18 0 40 -14t42 -39q2 12 6.5 22t20.5 11l26 2l4 -26v-3.5t-1 -8.5q0 -6 -0.5 -27t-0.5 -72
z" />
    <glyph glyph-name="Gbreve" unicode="&#x11e;" horiz-adv-x="745" 
d="M588 844q11 -1 18.5 -9t7.5 -21q0 -2 -2 -12.5t-7 -24t-14 -28.5t-25 -27q-14 -12 -31.5 -17.5t-37.5 -5.5h-12.5t-13.5 2q-37 6 -59.5 13.5t-35.5 19.5t-18 28.5t-6 39.5l-1 14q0 11 7.5 19t20.5 9q11 0 19 -7.5t9 -18.5l1 -13q1 -12 2.5 -20t8 -13t21 -8.5t40.5 -7.5
q5 -1 8.5 -1h8.5q21 0 34 10q9 7 14 16t8 17.5t4 14.5l1 6q1 11 9.5 18t20.5 7zM579 380q22 0 27 -23q6 -27 11 -74t9 -97.5t6.5 -98t2.5 -76.5q0 -11 -8.5 -19.5t-19.5 -8.5q-12 0 -20 8.5t-8 19.5t-0.5 24.5t-1.5 28.5q-11 -9 -29 -20.5t-42 -22t-54 -17.5t-64 -7
q-36 0 -77 9t-81.5 28.5t-77 49.5t-65 73t-45 99.5t-16.5 127.5q0 33 2 57.5t6.5 44t11.5 35.5t16 31q1 2 15 25t35.5 51.5t48 56t52.5 39.5q29 13 59.5 18.5t57.5 5.5q28 0 50 -5q10 -2 27 -7.5t34 -12.5t32 -15t21 -15q6 -8 6 -18q0 -14 -10 -21q-7 -7 -18 -7t-20 9
q-3 2 -12.5 6.5t-21.5 9.5t-25.5 9.5t-25.5 7.5q-8 2 -17 3t-20 1q-22 0 -46.5 -4.5t-47.5 -15.5q-14 -6 -31 -23t-34.5 -38.5t-33 -45t-26.5 -42.5q-8 -12 -13 -25t-9 -29t-5.5 -37t-1.5 -49q0 -68 17 -118.5t43.5 -87.5t60.5 -61t68 -38.5t65 -20t52 -5.5q38 0 68.5 10
t52.5 22t34 23l11 10q8 8 20 8q-3 51 -8 103.5t-10 88.5q-38 -2 -74 -4.5t-64.5 -5.5t-47 -5t-19.5 -2q-11 0 -18.5 7t-9.5 21q0 11 6.5 18.5t17.5 9.5q1 0 19.5 2t48.5 5t68 5.5t79 4.5q3 3 11 5z" />
    <glyph glyph-name="gbreve" unicode="&#x11f;" horiz-adv-x="630" 
d="M471 675q11 -1 18.5 -9t7.5 -21q0 -2 -2 -12.5t-7 -24t-14 -28.5t-25 -27q-14 -12 -31.5 -17.5t-37.5 -5.5h-12.5t-13.5 2q-37 6 -59.5 13.5t-35.5 19.5t-18 28.5t-6 39.5l-1 14q0 11 7.5 19t20.5 9q11 0 19 -7.5t9 -18.5l1 -13q1 -12 2.5 -20t8 -13t21 -8.5t40.5 -7.5
q5 -1 8.5 -1h8.5q21 0 34 10q9 7 14 16t8 17.5t4 14.5l1 6q1 11 9.5 18t20.5 7zM418 149q3 9 13 14q-7 69 -11.5 128t-4.5 96v12q-10 5 -14 13q-21 39 -41.5 56t-26.5 18q-17 0 -30.5 -2t-18.5 -3q-13 0 -21 10q-25 -10 -52.5 -45t-50.5 -81.5t-38 -99t-15 -96.5
q0 -47 16 -79t40 -52.5t51.5 -29.5t50.5 -9q15 0 35.5 10.5t42 30t41.5 47t34 62.5zM471 387q0 -23 2 -57.5t5.5 -75t7.5 -86t9 -91.5q4 -45 8.5 -87.5t7.5 -80t5 -68.5t2 -52q0 -36 -14 -71.5t-41 -63.5t-66.5 -45.5t-91.5 -17.5q-148 0 -212 162q-2 4 -2 11q0 18 17 26
q3 1 5.5 1.5t5.5 0.5q18 0 26 -19q5 -13 15.5 -34.5t28.5 -41.5t46.5 -35t69.5 -15q43 0 73 14t48.5 35.5t27 46.5t8.5 46q0 20 -2 50.5t-5 67.5t-7 78.5t-8 83.5q-19 -30 -41.5 -53t-46 -39.5t-46 -25t-41.5 -8.5q-39 0 -77.5 14.5t-68.5 43t-49 71t-19 97.5q0 35 9 77
t24.5 84t37 82t46.5 70.5t53 49t57 18.5q21 0 35 -9q5 1 10 1h11q18 0 40 -14t42 -39q2 12 6.5 22t20.5 11l26 2l4 -26v-3.5t-1 -8.5q0 -6 -0.5 -27t-0.5 -72z" />
    <glyph glyph-name="Gdotaccent" unicode="&#x120;" horiz-adv-x="745" 
d="M658 838q17 0 28.5 -11.5t11.5 -27.5q0 -17 -11.5 -28.5t-28.5 -11.5q-16 0 -27.5 11.5t-11.5 28.5q0 16 11.5 27.5t27.5 11.5zM579 380q22 0 27 -23q6 -27 11 -74t9 -97.5t6.5 -98t2.5 -76.5q0 -11 -8.5 -19.5t-19.5 -8.5q-12 0 -20 8.5t-8 19.5t-0.5 24.5t-1.5 28.5
q-11 -9 -29 -20.5t-42 -22t-54 -17.5t-64 -7q-36 0 -77 9t-81.5 28.5t-77 49.5t-65 73t-45 99.5t-16.5 127.5q0 33 2 57.5t6.5 44t11.5 35.5t16 31q1 2 15 25t35.5 51.5t48 56t52.5 39.5q29 13 59.5 18.5t57.5 5.5q28 0 50 -5q10 -2 27 -7.5t34 -12.5t32 -15t21 -15
q6 -8 6 -18q0 -14 -10 -21q-7 -7 -18 -7t-20 9q-3 2 -12.5 6.5t-21.5 9.5t-25.5 9.5t-25.5 7.5q-8 2 -17 3t-20 1q-22 0 -46.5 -4.5t-47.5 -15.5q-14 -6 -31 -23t-34.5 -38.5t-33 -45t-26.5 -42.5q-8 -12 -13 -25t-9 -29t-5.5 -37t-1.5 -49q0 -68 17 -118.5t43.5 -87.5
t60.5 -61t68 -38.5t65 -20t52 -5.5q38 0 68.5 10t52.5 22t34 23l11 10q8 8 20 8q-3 51 -8 103.5t-10 88.5q-38 -2 -74 -4.5t-64.5 -5.5t-47 -5t-19.5 -2q-11 0 -18.5 7t-9.5 21q0 11 6.5 18.5t17.5 9.5q1 0 19.5 2t48.5 5t68 5.5t79 4.5q3 3 11 5z" />
    <glyph glyph-name="gdotaccent" unicode="&#x121;" horiz-adv-x="630" 
d="M531 669q17 0 28.5 -11.5t11.5 -27.5q0 -17 -11.5 -28.5t-28.5 -11.5q-16 0 -27.5 11.5t-11.5 28.5q0 16 11.5 27.5t27.5 11.5zM418 149q3 9 13 14q-7 69 -11.5 128t-4.5 96v12q-10 5 -14 13q-21 39 -41.5 56t-26.5 18q-17 0 -30.5 -2t-18.5 -3q-13 0 -21 10
q-25 -10 -52.5 -45t-50.5 -81.5t-38 -99t-15 -96.5q0 -47 16 -79t40 -52.5t51.5 -29.5t50.5 -9q15 0 35.5 10.5t42 30t41.5 47t34 62.5zM471 387q0 -23 2 -57.5t5.5 -75t7.5 -86t9 -91.5q4 -45 8.5 -87.5t7.5 -80t5 -68.5t2 -52q0 -36 -14 -71.5t-41 -63.5t-66.5 -45.5
t-91.5 -17.5q-148 0 -212 162q-2 4 -2 11q0 18 17 26q3 1 5.5 1.5t5.5 0.5q18 0 26 -19q5 -13 15.5 -34.5t28.5 -41.5t46.5 -35t69.5 -15q43 0 73 14t48.5 35.5t27 46.5t8.5 46q0 20 -2 50.5t-5 67.5t-7 78.5t-8 83.5q-19 -30 -41.5 -53t-46 -39.5t-46 -25t-41.5 -8.5
q-39 0 -77.5 14.5t-68.5 43t-49 71t-19 97.5q0 35 9 77t24.5 84t37 82t46.5 70.5t53 49t57 18.5q21 0 35 -9q5 1 10 1h11q18 0 40 -14t42 -39q2 12 6.5 22t20.5 11l26 2l4 -26v-3.5t-1 -8.5q0 -6 -0.5 -27t-0.5 -72z" />
    <glyph glyph-name="uni0122" unicode="&#x122;" horiz-adv-x="745" 
d="M330 -214q11 26 24.5 72t17.5 80h88v-10q-8 -32 -32 -78t-50 -76h-48v12zM579 380q22 0 27 -23q6 -27 11 -74t9 -97.5t6.5 -98t2.5 -76.5q0 -11 -8.5 -19.5t-19.5 -8.5q-12 0 -20 8.5t-8 19.5t-0.5 24.5t-1.5 28.5q-11 -9 -29 -20.5t-42 -22t-54 -17.5t-64 -7
q-36 0 -77 9t-81.5 28.5t-77 49.5t-65 73t-45 99.5t-16.5 127.5q0 33 2 57.5t6.5 44t11.5 35.5t16 31q1 2 15 25t35.5 51.5t48 56t52.5 39.5q29 13 59.5 18.5t57.5 5.5q28 0 50 -5q10 -2 27 -7.5t34 -12.5t32 -15t21 -15q6 -8 6 -18q0 -14 -10 -21q-7 -7 -18 -7t-20 9
q-3 2 -12.5 6.5t-21.5 9.5t-25.5 9.5t-25.5 7.5q-8 2 -17 3t-20 1q-22 0 -46.5 -4.5t-47.5 -15.5q-14 -6 -31 -23t-34.5 -38.5t-33 -45t-26.5 -42.5q-8 -12 -13 -25t-9 -29t-5.5 -37t-1.5 -49q0 -68 17 -118.5t43.5 -87.5t60.5 -61t68 -38.5t65 -20t52 -5.5q38 0 68.5 10
t52.5 22t34 23l11 10q8 8 20 8q-3 51 -8 103.5t-10 88.5q-38 -2 -74 -4.5t-64.5 -5.5t-47 -5t-19.5 -2q-11 0 -18.5 7t-9.5 21q0 11 6.5 18.5t17.5 9.5q1 0 19.5 2t48.5 5t68 5.5t79 4.5q3 3 11 5z" />
    <glyph glyph-name="uni0123" unicode="&#x123;" horiz-adv-x="630" 
d="M388 772q-14 -30 -27 -76t-17 -76h-88v10q8 28 32 76t50 78h50v-12zM418 149q3 9 13 14q-7 69 -11.5 128t-4.5 96v12q-10 5 -14 13q-21 39 -41.5 56t-26.5 18q-17 0 -30.5 -2t-18.5 -3q-13 0 -21 10q-25 -10 -52.5 -45t-50.5 -81.5t-38 -99t-15 -96.5q0 -47 16 -79
t40 -52.5t51.5 -29.5t50.5 -9q15 0 35.5 10.5t42 30t41.5 47t34 62.5zM471 387q0 -23 2 -57.5t5.5 -75t7.5 -86t9 -91.5q4 -45 8.5 -87.5t7.5 -80t5 -68.5t2 -52q0 -36 -14 -71.5t-41 -63.5t-66.5 -45.5t-91.5 -17.5q-148 0 -212 162q-2 4 -2 11q0 18 17 26q3 1 5.5 1.5
t5.5 0.5q18 0 26 -19q5 -13 15.5 -34.5t28.5 -41.5t46.5 -35t69.5 -15q43 0 73 14t48.5 35.5t27 46.5t8.5 46q0 20 -2 50.5t-5 67.5t-7 78.5t-8 83.5q-19 -30 -41.5 -53t-46 -39.5t-46 -25t-41.5 -8.5q-39 0 -77.5 14.5t-68.5 43t-49 71t-19 97.5q0 35 9 77t24.5 84t37 82
t46.5 70.5t53 49t57 18.5q21 0 35 -9q5 1 10 1h11q18 0 40 -14t42 -39q2 12 6.5 22t20.5 11l26 2l4 -26v-3.5t-1 -8.5q0 -6 -0.5 -27t-0.5 -72z" />
    <glyph glyph-name="Hcircumflex" unicode="&#x124;" horiz-adv-x="759" 
d="M602 667q0 -11 -7 -18q-7 -10 -21 -10q-11 0 -18 6l-71 57l-61 47l-50 -46l-61 -63q-8 -9 -20 -9q-11 0 -19 8q-9 9 -9 20q0 10 8 20l62 65l65 59q8 7 19 7q8 0 11 -2q9 0 17 -6l72 -56l72 -57q11 -9 11 -22zM552 397q0 -19 2.5 -54t6 -76.5t7.5 -85t7.5 -79t6 -59
t2.5 -24.5q0 -11 -7 -19t-21 -9q-11 0 -18.5 7t-8.5 18q0 3 -2.5 22.5t-5.5 49t-7 66.5t-7.5 75t-6.5 73t-4 62q-1 0 -46.5 7t-123.5 7q-29 0 -59.5 -2t-58.5 -4.5t-52 -5t-40 -4.5q1 -26 4 -61.5t6.5 -73.5t7 -74.5t6.5 -66t5 -48t2 -19.5q0 -11 -7 -19t-21 -9
q-11 0 -18.5 7t-8.5 18q-1 3 -3.5 27t-6 59.5t-7.5 78.5t-7.5 84.5t-6 76.5t-2.5 55q0 30 -2.5 77t-6.5 96.5t-9 94.5t-10 72q0 10 7 18t21 10q10 0 17.5 -6t9.5 -16q5 -26 10 -67.5t8.5 -88t6 -91.5t3.5 -77q17 2 41 4.5t52.5 5t59 4t59.5 1.5q64 0 107.5 -5t61.5 -8
q-1 34 -3.5 78.5t-6.5 89t-8.5 84.5t-8.5 64q0 10 7 18t21 10q10 0 17.5 -6t9.5 -16q6 -28 11 -74.5t9 -97.5t6.5 -98.5t2.5 -75.5z" />
    <glyph glyph-name="hcircumflex" unicode="&#x125;" horiz-adv-x="633" 
d="M543 694q0 -11 -7 -18q-7 -10 -21 -10q-11 0 -18 6l-71 57l-61 47l-50 -46l-61 -63q-8 -9 -20 -9q-11 0 -19 8q-9 9 -9 20q0 10 8 20l62 65l65 59q8 7 19 7q8 0 11 -2q9 0 17 -6l72 -56l72 -57q11 -9 11 -22zM521 109q0 -13 3.5 -27.5t8 -27t9.5 -23t8 -15.5q2 -4 3 -7
t1 -7q0 -16 -15 -24q-5 -4 -13 -4q-17 0 -25 14q0 1 -6 12t-12.5 28.5t-12 38.5t-5.5 42q0 5 -0.5 11t-1.5 14q-1 13 -2 29t-1 38q0 14 -2 30t-4 34q-3 24 -5.5 51t-2.5 58q0 19 -8 41t-24 40.5t-39 31t-53 12.5q-38 0 -67.5 -13.5t-51.5 -34t-37 -45t-24 -45.5
q5 -55 13 -117t16.5 -115.5t14.5 -89.5t6 -39q0 -10 -7 -18t-21 -10q-11 0 -18.5 6.5t-9.5 16.5q0 3 -4.5 30t-11 68t-14.5 91.5t-15 101.5q-22 5 -21 33q4 22 15 51q-2 22 -3 41.5t-1 36.5q0 48 -3 102t-6.5 100.5t-7 77.5t-3.5 33q0 11 7.5 18.5t20.5 9.5q11 0 19 -7
t9 -18q0 -3 3 -32.5t7 -73.5t7 -96.5t3 -100.5q31 39 76.5 66.5t108.5 27.5q40 0 73.5 -16t57 -41.5t36.5 -58t13 -65.5q0 -29 2.5 -54t5.5 -48q2 -19 4 -36.5t2 -34.5q0 -39 3 -61q1 -9 1.5 -16t0.5 -15z" />
    <glyph glyph-name="Hbar" unicode="&#x126;" horiz-adv-x="759" 
d="M100 610v121h92v-121h374v121h92v-121h100v-74h-100v-536h-92v341h-374v-341h-92v536h-100v74h100zM566 422v114h-374v-114h374z" />
    <glyph glyph-name="hbar" unicode="&#x127;" horiz-adv-x="633" 
d="M461 0v331q0 66 -29.5 99t-93.5 33q-84 0 -122.5 -46.5t-38.5 -152.5v-264h-90v618h-78v68h78v92h90v-92h217v-68h-217v-88q0 -44 -5 -76h6q26 42 72 63t100 21q100 0 150 -48t50 -153v-337h-89z" />
    <glyph glyph-name="Itilde" unicode="&#x128;" horiz-adv-x="347" 
d="M371 804q11 -8 11 -22q0 -9 -5 -17q-23 -30 -44.5 -42t-41.5 -12q-23 0 -44.5 10.5t-44.5 23.5q-15 8 -31 8q-37 0 -72 -50q-8 -12 -23 -12q-8 0 -16 5q-12 9 -12 23q0 8 6 16q52 75 117 75q29 0 58 -17q23 -12 36.5 -19t24.5 -7t20.5 7.5t21.5 24.5q8 11 22 11
q9 0 17 -6zM135 397q0 -19 2.5 -54t6 -76.5t7.5 -85t8 -79t6.5 -59t2.5 -24.5q0 -11 -7.5 -19t-20.5 -9q-11 0 -18.5 7t-9.5 18q0 3 -2.5 27t-6.5 59.5t-8 78.5t-7.5 84.5t-6 76.5t-2.5 55q0 30 -2.5 77t-6.5 96.5t-9 94.5t-10 72q0 10 7 18t21 10q10 0 18 -6t10 -16
q5 -28 10 -74.5t9 -97.5t6.5 -98.5t2.5 -75.5z" />
    <glyph glyph-name="itilde" unicode="&#x129;" horiz-adv-x="264" 
d="M330 635q11 -8 11 -22q0 -9 -5 -17q-23 -30 -44.5 -42t-41.5 -12q-23 0 -44.5 10.5t-44.5 23.5q-15 8 -31 8q-37 0 -72 -50q-8 -12 -23 -12q-8 0 -16 5q-12 9 -12 23q0 8 6 16q52 75 117 75q29 0 58 -17q23 -12 36.5 -19t24.5 -7t20.5 7.5t21.5 24.5q8 11 22 11
q9 0 17 -6zM99 556q11 0 18.5 -6.5t9.5 -16.5q0 -3 4.5 -31t10.5 -68t11.5 -85.5t7.5 -81.5q2 -35 7 -82t11 -89.5t10.5 -73t4.5 -32.5q0 -11 -7 -18.5t-21 -9.5q-11 0 -18.5 6.5t-9.5 17.5q0 3 -4.5 33t-10.5 72.5t-11 89.5t-7 83q-2 35 -7.5 80t-11 85t-10 68.5t-4.5 30.5
q0 10 6 18t17 10h4z" />
    <glyph glyph-name="Imacron" unicode="&#x12a;" horiz-adv-x="347" 
d="M22 862h304v-73h-304v73zM135 397q0 -19 2.5 -54t6 -76.5t7.5 -85t8 -79t6.5 -59t2.5 -24.5q0 -11 -7.5 -19t-20.5 -9q-11 0 -18.5 7t-9.5 18q0 3 -2.5 27t-6.5 59.5t-8 78.5t-7.5 84.5t-6 76.5t-2.5 55q0 30 -2.5 77t-6.5 96.5t-9 94.5t-10 72q0 10 7 18t21 10
q10 0 18 -6t10 -16q5 -28 10 -74.5t9 -97.5t6.5 -98.5t2.5 -75.5z" />
    <glyph glyph-name="imacron" unicode="&#x12b;" horiz-adv-x="264" 
d="M-18 693h304v-73h-304v73zM99 556q11 0 18.5 -6.5t9.5 -16.5q0 -3 4.5 -31t10.5 -68t11.5 -85.5t7.5 -81.5q2 -35 7 -82t11 -89.5t10.5 -73t4.5 -32.5q0 -11 -7 -18.5t-21 -9.5q-11 0 -18.5 6.5t-9.5 17.5q0 3 -4.5 33t-10.5 72.5t-11 89.5t-7 83q-2 35 -7.5 80t-11 85
t-10 68.5t-4.5 30.5q0 10 6 18t17 10h4z" />
    <glyph glyph-name="Ibreve" unicode="&#x12c;" horiz-adv-x="347" 
d="M336 844q11 -1 18.5 -9t7.5 -21q0 -2 -2 -12.5t-7 -24t-14 -28.5t-25 -27q-14 -12 -31.5 -17.5t-37.5 -5.5h-12.5t-13.5 2q-37 6 -59.5 13.5t-35.5 19.5t-18 28.5t-6 39.5l-1 14q0 11 7.5 19t20.5 9q11 0 19 -7.5t9 -18.5l1 -13q1 -12 2.5 -20t8 -13t21 -8.5t40.5 -7.5
q5 -1 8.5 -1h8.5q21 0 34 10q9 7 14 16t8 17.5t4 14.5l1 6q1 11 9.5 18t20.5 7zM135 397q0 -19 2.5 -54t6 -76.5t7.5 -85t8 -79t6.5 -59t2.5 -24.5q0 -11 -7.5 -19t-20.5 -9q-11 0 -18.5 7t-9.5 18q0 3 -2.5 27t-6.5 59.5t-8 78.5t-7.5 84.5t-6 76.5t-2.5 55q0 30 -2.5 77
t-6.5 96.5t-9 94.5t-10 72q0 10 7 18t21 10q10 0 18 -6t10 -16q5 -28 10 -74.5t9 -97.5t6.5 -98.5t2.5 -75.5z" />
    <glyph glyph-name="ibreve" unicode="&#x12d;" horiz-adv-x="264" 
d="M294 675q11 -1 18.5 -9t7.5 -21q0 -2 -2 -12.5t-7 -24t-14 -28.5t-25 -27q-14 -12 -31.5 -17.5t-37.5 -5.5h-12.5t-13.5 2q-37 6 -59.5 13.5t-35.5 19.5t-18 28.5t-6 39.5l-1 14q0 11 7.5 19t20.5 9q11 0 19 -7.5t9 -18.5l1 -13q1 -12 2.5 -20t8 -13t21 -8.5t40.5 -7.5
q5 -1 8.5 -1h8.5q21 0 34 10q9 7 14 16t8 17.5t4 14.5l1 6q1 11 9.5 18t20.5 7zM99 556q11 0 18.5 -6.5t9.5 -16.5q0 -3 4.5 -31t10.5 -68t11.5 -85.5t7.5 -81.5q2 -35 7 -82t11 -89.5t10.5 -73t4.5 -32.5q0 -11 -7 -18.5t-21 -9.5q-11 0 -18.5 6.5t-9.5 17.5q0 3 -4.5 33
t-10.5 72.5t-11 89.5t-7 83q-2 35 -7.5 80t-11 85t-10 68.5t-4.5 30.5q0 10 6 18t17 10h4z" />
    <glyph glyph-name="Iogonek" unicode="&#x12e;" horiz-adv-x="347" 
d="M485 -34q-17 0 -36.5 -2.5t-37.5 -7.5t-33 -14t-23 -21q-7 -11 -7 -24q0 -7 2 -14.5t10 -14.5q16 -15 50 -15q29 0 61 12t56 34q6 6 14 6q16 0 24 -17q4 -10 4 -18q0 -19 -14 -30q-29 -20 -67.5 -33t-76.5 -13q-23 0 -43 5.5t-36 16.5q-40 28 -40 84q0 40 24 69
q20 24 50 35.5t59 15.5zM135 397q0 -19 2.5 -54t6 -76.5t7.5 -85t8 -79t6.5 -59t2.5 -24.5q0 -11 -7.5 -19t-20.5 -9q-11 0 -18.5 7t-9.5 18q0 3 -2.5 27t-6.5 59.5t-8 78.5t-7.5 84.5t-6 76.5t-2.5 55q0 30 -2.5 77t-6.5 96.5t-9 94.5t-10 72q0 10 7 18t21 10q10 0 18 -6
t10 -16q5 -28 10 -74.5t9 -97.5t6.5 -98.5t2.5 -75.5z" />
    <glyph glyph-name="iogonek" unicode="&#x12f;" horiz-adv-x="264" 
d="M421 -34q-17 0 -36.5 -2.5t-37.5 -7.5t-33 -14t-23 -21q-7 -11 -7 -24q0 -7 2 -14.5t10 -14.5q16 -15 50 -15q29 0 61 12t56 34q6 6 14 6q16 0 24 -17q4 -10 4 -18q0 -19 -14 -30q-29 -20 -67.5 -33t-76.5 -13q-23 0 -43 5.5t-36 16.5q-40 28 -40 84q0 40 24 69
q20 24 50 35.5t59 15.5zM86 598q-17 0 -28.5 11.5t-11.5 28.5t11.5 28t28.5 11q16 0 27.5 -11t11.5 -28t-11.5 -28.5t-27.5 -11.5zM99 556q11 0 18.5 -6.5t9.5 -16.5q0 -3 4.5 -31t10.5 -68t11.5 -85.5t7.5 -81.5q2 -35 7 -82t11 -89.5t10.5 -73t4.5 -32.5q0 -11 -7 -18.5
t-21 -9.5q-11 0 -18.5 6.5t-9.5 17.5q0 3 -4.5 33t-10.5 72.5t-11 89.5t-7 83q-2 35 -7.5 80t-11 85t-10 68.5t-4.5 30.5q0 10 6 18t17 10h4z" />
    <glyph glyph-name="Idotaccent" unicode="&#x130;" horiz-adv-x="347" 
d="M398 838q17 0 28.5 -11.5t11.5 -27.5q0 -17 -11.5 -28.5t-28.5 -11.5q-16 0 -27.5 11.5t-11.5 28.5q0 16 11.5 27.5t27.5 11.5zM135 397q0 -19 2.5 -54t6 -76.5t7.5 -85t8 -79t6.5 -59t2.5 -24.5q0 -11 -7.5 -19t-20.5 -9q-11 0 -18.5 7t-9.5 18q0 3 -2.5 27t-6.5 59.5
t-8 78.5t-7.5 84.5t-6 76.5t-2.5 55q0 30 -2.5 77t-6.5 96.5t-9 94.5t-10 72q0 10 7 18t21 10q10 0 18 -6t10 -16q5 -28 10 -74.5t9 -97.5t6.5 -98.5t2.5 -75.5z" />
    <glyph glyph-name="dotlessi" unicode="&#x131;" horiz-adv-x="245" 
d="M99 556q11 0 18.5 -6.5t9.5 -16.5q0 -3 4.5 -31t10.5 -68t11.5 -85.5t7.5 -81.5q2 -35 7 -82t11 -89.5t10.5 -73t4.5 -32.5q0 -11 -7 -18.5t-21 -9.5q-11 0 -18.5 6.5t-9.5 17.5q0 3 -4.5 33t-10.5 72.5t-11 89.5t-7 83q-2 35 -7.5 80t-11 85t-10 68.5t-4.5 30.5
q0 10 6 18t17 10h4z" />
    <glyph glyph-name="IJ" unicode="&#x132;" horiz-adv-x="626" 
d="M135 397q0 -19 2.5 -54t6 -76.5t7.5 -85t8 -79t6.5 -59t2.5 -24.5q0 -11 -7.5 -19t-20.5 -9q-11 0 -18.5 7t-9.5 18q0 3 -2.5 27t-6.5 59.5t-8 78.5t-7.5 84.5t-6 76.5t-2.5 55q0 30 -2.5 77t-6.5 96.5t-9 94.5t-10 72q0 10 7 18t21 10q10 0 18 -6t10 -16q5 -28 10 -74.5
t9 -97.5t6.5 -98.5t2.5 -75.5zM816 753q5 -28 9.5 -76t8 -100t6 -100.5t2.5 -78.5q0 -6 1 -36t1 -70q0 -38 -2 -77.5t-10 -68.5q-13 -55 -39 -87t-57 -48.5t-64 -22t-60 -8.5q-4 0 -7 -0.5t-7 -0.5q-31 0 -71.5 14.5t-78.5 50.5q-15 14 -30.5 34t-27.5 47.5t-20 62t-8 78.5
q0 5 0.5 10.5t0.5 10.5q1 11 9 19t20 8q11 -1 19 -9t8 -21q0 -5 -0.5 -9t-0.5 -9q0 -36 6.5 -65t16 -51t21.5 -38.5t24 -27.5q28 -26 59 -37.5t61 -10.5q27 3 53.5 7t49.5 16.5t41 35.5t28 64q6 26 8.5 63t2.5 72q0 41 -1.5 71t-1.5 32q-1 32 -3.5 80.5t-6 99.5t-7.5 97.5
t-9 74.5q0 10 7.5 18t21.5 10q10 0 17.5 -6.5t9.5 -17.5z" />
    <glyph glyph-name="ij" unicode="&#x133;" horiz-adv-x="526" 
d="M86 598q-17 0 -28.5 11.5t-11.5 28.5t11.5 28t28.5 11q16 0 27.5 -11t11.5 -28t-11.5 -28.5t-27.5 -11.5zM99 556q11 0 18.5 -6.5t9.5 -16.5q0 -3 4.5 -31t10.5 -68t11.5 -85.5t7.5 -81.5q2 -35 7 -82t11 -89.5t10.5 -73t4.5 -32.5q0 -11 -7 -18.5t-21 -9.5
q-11 0 -18.5 6.5t-9.5 17.5q0 3 -4.5 33t-10.5 72.5t-11 89.5t-7 83q-2 35 -7.5 80t-11 85t-10 68.5t-4.5 30.5q0 10 6 18t17 10h4zM393 598q-16 0 -27.5 11.5t-11.5 28.5t11.5 28t27.5 11q17 0 28.5 -11t11.5 -28t-11.5 -28.5t-28.5 -11.5zM417 387q0 -23 2 -57.5t5.5 -75
t7.5 -86t9 -91.5q4 -45 8.5 -87.5t7.5 -80t5 -68.5t2 -52q0 -36 -14 -71.5t-41 -63.5t-66.5 -45.5t-91.5 -17.5q-148 0 -212 162q-2 4 -2 11q0 18 17 26q3 1 5.5 1.5t5.5 0.5q18 0 26 -19q5 -13 15.5 -34.5t28.5 -41.5t46.5 -35t69.5 -15q43 0 73 14t48.5 35.5t27 46.5
t8.5 46q0 20 -2 51t-5.5 68.5t-7.5 79.5l-8 84q-5 46 -9 92t-7.5 87.5t-5.5 76.5t-2 59v54.5t1 36.5q0 7 0.5 14.5t3 14t8 11t15.5 4.5l26 2l4 -26v-3.5t-1 -8.5q0 -6 -0.5 -27t-0.5 -72z" />
    <glyph glyph-name="Jcircumflex" unicode="&#x134;" horiz-adv-x="279" 
d="M365 667q0 -11 -7 -18q-7 -10 -21 -10q-11 0 -18 6l-71 57l-61 47l-50 -46l-61 -63q-8 -9 -20 -9q-11 0 -19 8q-9 9 -9 20q0 10 8 20l62 65l65 59q8 7 19 7q8 0 11 -2q9 0 17 -6l72 -56l72 -57q11 -9 11 -22zM469 753q5 -28 9.5 -76t8 -100t6 -100.5t2.5 -78.5
q0 -6 1 -36t1 -70q0 -38 -2 -77.5t-10 -68.5q-13 -55 -39 -87t-57 -48.5t-64 -22t-60 -8.5q-4 0 -7 -0.5t-7 -0.5q-31 0 -71.5 14.5t-78.5 50.5q-15 14 -30.5 34t-27.5 47.5t-20 62t-8 78.5q0 5 0.5 10.5t0.5 10.5q1 11 9 19t20 8q11 -1 19 -9t8 -21q0 -5 -0.5 -9t-0.5 -9
q0 -36 6.5 -65t16 -51t21.5 -38.5t24 -27.5q28 -26 59 -37.5t61 -10.5q27 3 53.5 7t49.5 16.5t41 35.5t28 64q6 26 8.5 63t2.5 72q0 41 -1.5 71t-1.5 32q-1 32 -3.5 80.5t-6 99.5t-7.5 97.5t-9 74.5q0 10 7.5 18t21.5 10q10 0 17.5 -6.5t9.5 -17.5z" />
    <glyph glyph-name="jcircumflex" unicode="&#x135;" horiz-adv-x="264" 
d="M353 498q0 -11 -7 -18q-7 -10 -21 -10q-11 0 -18 6l-71 57l-61 47l-50 -46l-61 -63q-8 -9 -20 -9q-11 0 -19 8q-9 9 -9 20q0 10 8 20l62 65l65 59q8 7 19 7q8 0 11 -2q9 0 17 -6l72 -56l72 -57q11 -9 11 -22zM22 -246q-46 0 -78 12v73q34 -10 68 -10q39 0 57 21.5
t18 64.5v634h90v-631q0 -82 -39.5 -123t-115.5 -41z" />
    <glyph glyph-name="uni0136" unicode="&#x136;" horiz-adv-x="634" 
d="M252 -214q11 26 24.5 72t17.5 80h88v-10q-8 -32 -32 -78t-50 -76h-48v12zM461 316q9 -15 29 -41.5t43.5 -57t49 -62.5t46 -58.5t34 -43t13.5 -17.5q7 -7 7 -17q0 -14 -11 -22q-8 -6 -17 -6q-15 0 -22 10q-2 2 -16.5 19.5t-35.5 44t-46 58.5t-48.5 63t-43 57.5t-29.5 42.5
q-14 23 -31.5 50.5t-36 54.5t-37 51.5t-35.5 42.5q-29 -33 -54.5 -64t-45.5 -55.5t-32 -39.5l-12 -16q-4 -5 -10 -8q3 -44 8 -92.5t9 -90.5t7 -70t3 -30q0 -11 -7 -19t-21 -9q-11 0 -18.5 7t-8.5 18q-1 3 -3.5 27t-6 59.5t-7.5 78.5t-7.5 84.5t-6 76.5t-2.5 55q0 30 -2.5 77
t-6.5 96.5t-9 94.5t-10 72q0 10 7 18t21 10q10 0 17.5 -6t9.5 -16q6 -28 11 -74.5t9 -97.5t6.5 -98.5t2.5 -75.5v-16q14 18 34 42.5t42.5 51.5t47.5 55.5t49 54.5q36 39 66.5 69t53 50.5t35.5 31.5t14 12q7 6 18 6q13 0 22 -10q6 -8 6 -18q0 -13 -10 -21q-1 -1 -47 -42
t-117 -116q-5 -5 -9 -10t-9 -10q19 -19 39.5 -45.5t40 -55.5t37.5 -57.5t33 -52.5z" />
    <glyph glyph-name="uni0137" unicode="&#x137;" horiz-adv-x="547" 
d="M208 -214q11 26 24.5 72t17.5 80h88v-10q-8 -32 -32 -78t-50 -76h-48v12zM365 269q11 -14 33.5 -38t49.5 -52t55.5 -57t52 -52.5t38.5 -39t16 -15.5q9 -8 9 -20q0 -10 -8 -20q-10 -8 -20 -8q-12 0 -20 8l-18 18t-40 39.5t-52.5 52.5t-56 57.5t-50 52.5t-33.5 39
q-22 27 -49 61t-56 65q-17 -15 -32.5 -30t-28.5 -27q-5 -5 -13 -8q6 -51 13 -102.5t13 -93.5t10 -69t4 -30q0 -11 -7 -18.5t-21 -9.5q-10 0 -17.5 6.5t-9.5 17.5q0 3 -4.5 29t-10 65t-12 87.5t-12.5 98t-9.5 94.5t-3.5 78q0 48 -3 102t-6.5 100.5t-6.5 77.5t-3 33
q0 11 7.5 18.5t20.5 9.5q11 0 19 -7.5t9 -18.5q0 -3 3 -34t6.5 -77.5t6.5 -100.5t3 -103q0 -18 1.5 -39.5t3.5 -47.5q12 11 28 26t32.5 29.5t32.5 27t27 18.5t25.5 21t28.5 31q18 20 35.5 37t34.5 26q6 3 13 3q16 0 25 -14q3 -6 3 -14q0 -7 -3.5 -13.5t-11.5 -10.5
q-11 -6 -25.5 -21t-28.5 -31q-18 -20 -35 -37t-34 -26q-7 -4 -24 -17q29 -32 56.5 -66t49.5 -61z" />
    <glyph glyph-name="kgreenlandic" unicode="&#x138;" horiz-adv-x="547" 
d="M412 549h109l-207 -243l224 -306h-108l-180 248l-68 -56v-192h-95v549h95v-143q0 -70 -6 -138l42 52z" />
    <glyph glyph-name="Lacute" unicode="&#x139;" horiz-adv-x="536" 
d="M577 51q11 -2 17 -10.5t5 -22.5q-5 -23 -33 -22q-1 0 -46.5 6.5t-122.5 6.5q-39 0 -80 -3t-75 -6t-56 -6t-23 -3h-3t-10 1q-2 0 -4 -0.5t-6 -0.5q-11 0 -18.5 7t-9.5 18q0 3 -2.5 27t-6.5 59.5t-8 78.5t-7.5 84.5t-6 76.5t-2.5 55q0 30 -2.5 77t-6.5 96.5t-9 94.5t-10 72
q0 10 7 18t21 10q10 0 18 -6t10 -16q5 -28 10 -74.5t9 -97.5t6.5 -98.5t2.5 -75.5q0 -24 3.5 -71t8.5 -99.5t10 -101.5t8 -77q12 1 36.5 4t56.5 6t68 5t71 2q81 0 129.5 -7t50.5 -7zM345 837q9 6 19 6q12 0 21 -9q7 -11 7 -19q0 -11 -10 -21q-14 -12 -23 -19t-16 -13
q-9 -7 -18 -14.5t-26 -21.5q-14 -13 -21 -21t-13 -16q-7 -8 -15 -17.5t-24 -24.5q-7 -7 -19 -7q-13 0 -20 9q-8 8 -8 19q0 12 9 20q14 13 20.5 20.5t12.5 15.5q7 9 15.5 19t25.5 25t27 23t19 15q8 6 16 13t21 18z" />
    <glyph glyph-name="lacute" unicode="&#x13a;" horiz-adv-x="264" 
d="M146 448q0 -32 4 -77t9.5 -94t12 -97.5t12.5 -88t10 -64.5t4 -27q0 -23 -28 -28q-11 0 -18.5 6.5t-9.5 17.5q-1 3 -5 29t-9.5 65t-12 87.5t-12.5 98t-9.5 94.5t-3.5 78q0 48 -3 102t-6 100.5t-6 77.5t-3 33q0 11 7 18.5t21 9.5q11 0 18.5 -7.5t9.5 -18.5q0 -3 3 -34
t6 -77.5t6 -100.5t3 -103zM307 866q9 6 19 6q12 0 21 -9q7 -11 7 -19q0 -11 -10 -21q-14 -12 -23 -19t-16 -13q-9 -7 -18 -14.5t-26 -21.5q-14 -13 -21 -21t-13 -16q-7 -8 -15 -17.5t-24 -24.5q-7 -7 -19 -7q-13 0 -20 9q-8 8 -8 19q0 12 9 20q14 13 20.5 20.5t12.5 15.5
q7 9 15.5 19t25.5 25t27 23t19 15q8 6 16 13t21 18z" />
    <glyph glyph-name="uni013B" unicode="&#x13b;" horiz-adv-x="536" 
d="M210 -214q11 26 24.5 72t17.5 80h88v-10q-8 -32 -32 -78t-50 -76h-48v12zM577 51q11 -2 17 -10.5t5 -22.5q-5 -23 -33 -22q-1 0 -46.5 6.5t-122.5 6.5q-39 0 -80 -3t-75 -6t-56 -6t-23 -3h-3t-10 1q-2 0 -4 -0.5t-6 -0.5q-11 0 -18.5 7t-9.5 18q0 3 -2.5 27t-6.5 59.5
t-8 78.5t-7.5 84.5t-6 76.5t-2.5 55q0 30 -2.5 77t-6.5 96.5t-9 94.5t-10 72q0 10 7 18t21 10q10 0 18 -6t10 -16q5 -28 10 -74.5t9 -97.5t6.5 -98.5t2.5 -75.5q0 -24 3.5 -71t8.5 -99.5t10 -101.5t8 -77q12 1 36.5 4t56.5 6t68 5t71 2q81 0 129.5 -7t50.5 -7z" />
    <glyph glyph-name="uni013C" unicode="&#x13c;" horiz-adv-x="264" 
d="M46 -214q11 26 24.5 72t17.5 80h88v-10q-8 -32 -32 -78t-50 -76h-48v12zM146 448q0 -32 4 -77t9.5 -94t12 -97.5t12.5 -88t10 -64.5t4 -27q0 -23 -28 -28q-11 0 -18.5 6.5t-9.5 17.5q-1 3 -5 29t-9.5 65t-12 87.5t-12.5 98t-9.5 94.5t-3.5 78q0 48 -3 102t-6 100.5
t-6 77.5t-3 33q0 11 7 18.5t21 9.5q11 0 18.5 -7.5t9.5 -18.5q0 -3 3 -34t6 -77.5t6 -100.5t3 -103z" />
    <glyph glyph-name="Lcaron" unicode="&#x13d;" horiz-adv-x="536" 
d="M340 580q12 33 22 79.5t12 72.5h90v-9q-6 -26 -28 -72.5t-46 -82.5h-50v12zM577 51q11 -2 17 -10.5t5 -22.5q-5 -23 -33 -22q-1 0 -46.5 6.5t-122.5 6.5q-39 0 -80 -3t-75 -6t-56 -6t-23 -3h-3t-10 1q-2 0 -4 -0.5t-6 -0.5q-11 0 -18.5 7t-9.5 18q0 3 -2.5 27t-6.5 59.5
t-8 78.5t-7.5 84.5t-6 76.5t-2.5 55q0 30 -2.5 77t-6.5 96.5t-9 94.5t-10 72q0 10 7 18t21 10q10 0 18 -6t10 -16q5 -28 10 -74.5t9 -97.5t6.5 -98.5t2.5 -75.5q0 -24 3.5 -71t8.5 -99.5t10 -101.5t8 -77q12 1 36.5 4t56.5 6t68 5t71 2q81 0 129.5 -7t50.5 -7z" />
    <glyph glyph-name="lcaron" unicode="&#x13e;" horiz-adv-x="264" 
d="M224 626q12 33 22 79.5t12 72.5h90v-9q-6 -26 -28 -72.5t-46 -82.5h-50v12zM146 448q0 -32 4 -77t9.5 -94t12 -97.5t12.5 -88t10 -64.5t4 -27q0 -23 -28 -28q-11 0 -18.5 6.5t-9.5 17.5q-1 3 -5 29t-9.5 65t-12 87.5t-12.5 98t-9.5 94.5t-3.5 78q0 48 -3 102t-6 100.5
t-6 77.5t-3 33q0 11 7 18.5t21 9.5q11 0 18.5 -7.5t9.5 -18.5q0 -3 3 -34t6 -77.5t6 -100.5t3 -103z" />
    <glyph glyph-name="Ldot" unicode="&#x13f;" horiz-adv-x="536" 
d="M618 337q17 0 28.5 -11.5t11.5 -27.5q0 -17 -11.5 -28.5t-28.5 -11.5q-16 0 -27.5 11.5t-11.5 28.5q0 16 11.5 27.5t27.5 11.5zM577 51q11 -2 17 -10.5t5 -22.5q-5 -23 -33 -22q-1 0 -46.5 6.5t-122.5 6.5q-39 0 -80 -3t-75 -6t-56 -6t-23 -3h-3t-10 1q-2 0 -4 -0.5
t-6 -0.5q-11 0 -18.5 7t-9.5 18q0 3 -2.5 27t-6.5 59.5t-8 78.5t-7.5 84.5t-6 76.5t-2.5 55q0 30 -2.5 77t-6.5 96.5t-9 94.5t-10 72q0 10 7 18t21 10q10 0 18 -6t10 -16q5 -28 10 -74.5t9 -97.5t6.5 -98.5t2.5 -75.5q0 -24 3.5 -71t8.5 -99.5t10 -101.5t8 -77q12 1 36.5 4
t56.5 6t68 5t71 2q81 0 129.5 -7t50.5 -7z" />
    <glyph glyph-name="ldot" unicode="&#x140;" horiz-adv-x="333" 
d="M524 313q17 0 28.5 -11.5t11.5 -27.5q0 -17 -11.5 -28.5t-28.5 -11.5q-16 0 -27.5 11.5t-11.5 28.5q0 16 11.5 27.5t27.5 11.5zM146 448q0 -32 4 -77t9.5 -94t12 -97.5t12.5 -88t10 -64.5t4 -27q0 -23 -28 -28q-11 0 -18.5 6.5t-9.5 17.5q-1 3 -5 29t-9.5 65t-12 87.5
t-12.5 98t-9.5 94.5t-3.5 78q0 48 -3 102t-6 100.5t-6 77.5t-3 33q0 11 7 18.5t21 9.5q11 0 18.5 -7.5t9.5 -18.5q0 -3 3 -34t6 -77.5t6 -100.5t3 -103z" />
    <glyph glyph-name="Lslash" unicode="&#x141;" horiz-adv-x="574" 
d="M236 476q7 2 15 -2.5t13 -12.5q10 -26 -4 -35q-3 -2 -36.5 -13.5t-83.5 -41.5q0 -32 3 -77.5t7 -92t8 -88t7 -65.5q12 1 36.5 4t56.5 6t68 5t71 2q81 0 129.5 -7t50.5 -7q11 -2 17 -10t6 -18q-6 -28 -28 -28q-5 1 -51.5 7.5t-123.5 6.5q-39 0 -80 -3t-75 -6t-56 -6
t-23 -3q-10 0 -13 1q-6 -1 -7.5 -1h-2.5q-11 0 -18.5 7t-9.5 18q0 4 -4 37.5t-8.5 81.5t-9.5 101.5t-8 96.5q-35 -25 -59 -45.5t-24 -21.5q-18 -11 -33 9q-15 24 -1 36q1 1 11 9t25.5 21t35.5 28t42 30q0 31 -2.5 77.5t-6 95t-8.5 92t-10 68.5q-1 14 5 22.5t17 10.5
q28 0 33 -22q4 -24 9 -63t8.5 -83t6.5 -87.5t4 -77.5q44 24 71.5 33.5t29.5 10.5z" />
    <glyph glyph-name="lslash" unicode="&#x142;" horiz-adv-x="249" 
d="M256 476q8 2 15.5 -2.5t12.5 -12.5q6 -14 4.5 -22.5t-7.5 -12.5q-4 -2 -37 -14t-84 -41l-9 -6q4 -55 12 -117.5t15.5 -116.5t13 -90t5.5 -37q1 -14 -5.5 -22t-17.5 -10q-14 0 -22 6.5t-10 17.5q-1 3 -6 35.5t-12 80.5t-14 105.5t-12 111.5q-33 -24 -55.5 -43t-23.5 -20
q-8 -5 -17 -2.5t-15 11.5q-8 11 -7.5 21t6.5 15q1 1 10 8.5t23.5 19.5t33 26.5t39.5 28.5q-1 15 -1.5 28.5t-0.5 25.5q0 48 -3 102t-6 100t-6 76.5t-3 31.5q0 28 25 30q13 1 21 -6.5t10 -18.5q0 -3 3 -34t6 -77.5t6 -100.5t3 -103v-10t1 -10q47 26 77 36.5t32 11.5z" />
    <glyph glyph-name="Nacute" unicode="&#x143;" horiz-adv-x="778" 
d="M581 397q0 -19 2.5 -54t6 -76.5t7.5 -85t8 -79t6.5 -59t2.5 -24.5q0 -19 -21 -29q-7 -4 -15 -4q-15 0 -24 12l-18 27t-39 59.5t-51.5 78.5t-54.5 84t-48 76t-33 55q-16 28 -41.5 70.5t-54 87.5t-56.5 88t-49 72q4 -33 8 -75t7 -84t4.5 -79t1.5 -61q0 -19 2.5 -54t6 -76.5
t7.5 -85t8 -79t6.5 -59t2.5 -24.5q0 -11 -7.5 -19t-20.5 -9q-11 0 -19 7t-9 18q0 3 -2.5 27t-6.5 59.5t-8 78.5t-7.5 84.5t-6 76.5t-2.5 55q0 30 -2.5 77t-6.5 96.5t-9 94.5t-10 72q0 10 7 18t21 10q8 0 14.5 -3t11.5 -7q8 5 17 5q14 0 23 -11q14 -18 32.5 -45.5t39.5 -59.5
t42.5 -66t41.5 -66t36 -60t27 -47q11 -20 33 -55t49 -77t55.5 -85.5t51.5 -78.5q-4 36 -8 78t-7.5 82t-5.5 74t-2 54q0 30 -2.5 77t-6.5 96.5t-9 94.5t-10 72q0 10 7 18t21 10q10 0 18 -6t10 -16q5 -28 10 -74.5t9 -97.5t6.5 -98.5t2.5 -75.5zM550 837q9 6 19 6q12 0 21 -9
q7 -11 7 -19q0 -11 -10 -21q-14 -12 -23 -19t-16 -13q-9 -7 -18 -14.5t-26 -21.5q-14 -13 -21 -21t-13 -16q-7 -8 -15 -17.5t-24 -24.5q-7 -7 -19 -7q-13 0 -20 9q-8 8 -8 19q0 12 9 20q14 13 20.5 20.5t12.5 15.5q7 9 15.5 19t25.5 25t27 23t19 15q8 6 16 13t21 18z" />
    <glyph glyph-name="nacute" unicode="&#x144;" horiz-adv-x="633" 
d="M552 120q0 -14 3.5 -29t8.5 -28.5t10 -24.5t8 -17t3 -14q0 -16 -14 -24q-4 -2 -7 -3t-7 -1q-16 0 -24 15q-1 1 -7 12.5t-12.5 29.5t-12 40t-5.5 44q0 5 -0.5 11.5t-1.5 14.5q-1 14 -2 30.5t-1 39.5q0 15 -2 31.5t-4 36.5q-3 25 -5.5 53.5t-2.5 60.5q0 20 -8.5 43.5
t-24.5 43.5t-39.5 33t-54.5 13q-39 0 -69.5 -14.5t-52.5 -36.5t-37.5 -47.5t-24.5 -48t-13.5 -38.5t-4.5 -18q-3 -9 -8 -14v-18q0 -24 7 -55t16 -66q11 -45 21.5 -94t10.5 -100q0 -12 -8 -20t-20 -8q-11 0 -19.5 8t-8.5 20q0 46 -9.5 92t-20.5 88q-10 37 -17.5 71.5
t-7.5 63.5t-4 73t-9.5 85.5t-10 72t-4.5 32.5q0 10 7 18t21 10q11 0 18.5 -6.5t9.5 -17.5q0 -2 2 -12.5t4 -28t5 -39.5t6 -46q15 28 35.5 55t48 48t61.5 34t76 13q41 0 74.5 -16.5t57.5 -43.5t37.5 -61t13.5 -68q0 -30 2.5 -57t5.5 -50q2 -20 4 -39t2 -36q0 -40 3 -64
q1 -9 1.5 -16.5t0.5 -15.5zM480 668q9 6 19 6q12 0 21 -9q7 -11 7 -19q0 -11 -10 -21q-14 -12 -23 -19t-16 -13q-9 -7 -18 -14.5t-26 -21.5q-14 -13 -21 -21t-13 -16q-7 -8 -15 -17.5t-24 -24.5q-7 -7 -19 -7q-13 0 -20 9q-8 8 -8 19q0 12 9 20q14 13 20.5 20.5t12.5 15.5
q7 9 15.5 19t25.5 25t27 23t19 15q8 6 16 13t21 18z" />
    <glyph glyph-name="uni0145" unicode="&#x145;" horiz-adv-x="778" 
d="M288 -214q11 26 24.5 72t17.5 80h88v-10q-8 -32 -32 -78t-50 -76h-48v12zM581 397q0 -19 2.5 -54t6 -76.5t7.5 -85t8 -79t6.5 -59t2.5 -24.5q0 -19 -21 -29q-7 -4 -15 -4q-15 0 -24 12l-18 27t-39 59.5t-51.5 78.5t-54.5 84t-48 76t-33 55q-16 28 -41.5 70.5t-54 87.5
t-56.5 88t-49 72q4 -33 8 -75t7 -84t4.5 -79t1.5 -61q0 -19 2.5 -54t6 -76.5t7.5 -85t8 -79t6.5 -59t2.5 -24.5q0 -11 -7.5 -19t-20.5 -9q-11 0 -19 7t-9 18q0 3 -2.5 27t-6.5 59.5t-8 78.5t-7.5 84.5t-6 76.5t-2.5 55q0 30 -2.5 77t-6.5 96.5t-9 94.5t-10 72q0 10 7 18
t21 10q8 0 14.5 -3t11.5 -7q8 5 17 5q14 0 23 -11q14 -18 32.5 -45.5t39.5 -59.5t42.5 -66t41.5 -66t36 -60t27 -47q11 -20 33 -55t49 -77t55.5 -85.5t51.5 -78.5q-4 36 -8 78t-7.5 82t-5.5 74t-2 54q0 30 -2.5 77t-6.5 96.5t-9 94.5t-10 72q0 10 7 18t21 10q10 0 18 -6
t10 -16q5 -28 10 -74.5t9 -97.5t6.5 -98.5t2.5 -75.5z" />
    </font>
</defs>
</svg>
