<?xml version="1.0" standalone="no"?>
<!DOCTYPE svg PUBLIC "-//W3C//DTD SVG 1.1//EN" "http://www.w3.org/Graphics/SVG/1.1/DTD/svg11.dtd" >
<svg xmlns="http://www.w3.org/2000/svg" xmlns:xlink="http://www.w3.org/1999/xlink" version="1.1">
<metadata>
Created by FontForge 20190801 at Mon Feb  8 12:13:43 2021
 By root
Copyright 2015 The Courier Prime Project Authors (https://github.com/quoteunquoteapps/CourierPrime).
</metadata>
<defs>
<font id="CourierPrime-Regular" horiz-adv-x="1228" >
  <font-face 
    font-family="Courier Prime"
    font-weight="400"
    font-stretch="normal"
    units-per-em="2048"
    panose-1="0 0 5 9 0 0 0 0 0 0"
    ascent="1638"
    descent="-410"
    x-height="924"
    cap-height="1187"
    bbox="-436 -526 2714 2142"
    underline-thickness="130"
    underline-position="-250"
    unicode-range="U+0001-206F"
  />
<missing-glyph horiz-adv-x="748" 
d="M68 0v1365h544v-1365h-544zM136 68h408v1229h-408v-1229z" />
    <glyph glyph-name=".notdef" horiz-adv-x="748" 
d="M68 0v1365h544v-1365h-544zM136 68h408v1229h-408v-1229z" />
    <glyph glyph-name="uni0000" 
 />
    <glyph glyph-name="uni0000" 
 />
    <glyph glyph-name="nonmarkingreturn" unicode="&#xd;" 
 />
    <glyph glyph-name="uni0001" 
 />
    <glyph glyph-name="uni0002" 
 />
    <glyph glyph-name="uni0003" 
 />
    <glyph glyph-name="uni0004" 
 />
    <glyph glyph-name="uni0005" 
 />
    <glyph glyph-name="uni0006" 
 />
    <glyph glyph-name="uni0007" 
 />
    <glyph glyph-name="uni0008" 
 />
    <glyph glyph-name="uni0009" unicode="&#x9;" 
 />
    <glyph glyph-name="uni000A" unicode="&#xa;" 
 />
    <glyph glyph-name="uni000B" 
 />
    <glyph glyph-name="uni000C" 
 />
    <glyph glyph-name="uni000E" 
 />
    <glyph glyph-name="uni000F" 
 />
    <glyph glyph-name="uni0010" 
 />
    <glyph glyph-name="uni0011" 
 />
    <glyph glyph-name="uni0012" 
 />
    <glyph glyph-name="uni0013" 
 />
    <glyph glyph-name="uni0014" 
 />
    <glyph glyph-name="uni0015" 
 />
    <glyph glyph-name="uni0016" 
 />
    <glyph glyph-name="uni0017" 
 />
    <glyph glyph-name="uni0018" 
 />
    <glyph glyph-name="uni0019" 
 />
    <glyph glyph-name="uni001A" 
 />
    <glyph glyph-name="uni001B" 
 />
    <glyph glyph-name="uni001C" 
 />
    <glyph glyph-name="uni001D" 
 />
    <glyph glyph-name="uni001E" 
 />
    <glyph glyph-name="uni001F" 
 />
    <glyph glyph-name="space" unicode=" " 
 />
    <glyph glyph-name="exclam" unicode="!" 
d="M712 1257q10 -12 8 -38l-49 -707q-2 -23 -16.5 -35.5t-40.5 -12.5t-41.5 12.5t-16.5 35.5l-48 707q-2 26 8 38t33 12h130q23 0 33 -12zM709.5 255.5q29.5 -14.5 29.5 -48.5v-154q0 -34 -29.5 -48.5t-95.5 -14.5t-95.5 14.5t-29.5 48.5v154q0 34 29.5 48.5t95.5 14.5
t95.5 -14.5z" />
    <glyph glyph-name="quotedbl" unicode="&#x22;" 
d="M507 1219l-55 -450q-3 -26 -20.5 -40t-47.5 -14q-29 0 -47 14t-21 40l-55 450q-6 50 41 50h164q47 0 41 -50zM967 1219l-55 -450q-3 -26 -20.5 -40t-47.5 -14q-29 0 -47 14t-21 40l-55 450q-6 50 41 50h164q47 0 41 -50z" />
    <glyph glyph-name="numbersign" unicode="#" 
d="M1153.5 848.5q14.5 -16.5 14.5 -55.5t-14.5 -55.5t-48.5 -16.5h-194l-64 -245h188q34 0 48.5 -16.5t14.5 -55.5t-14.5 -55.5t-48.5 -16.5h-226l-83 -321q-4 -16 -19.5 -24.5t-34.5 -8.5q-28 0 -50 15t-22 39q0 3 2 13l75 287h-262l-83 -321q-4 -16 -19.5 -24.5
t-34.5 -8.5q-28 0 -50 15t-22 39q0 3 2 13l75 287h-160q-34 0 -48.5 16.5t-14.5 55.5t14.5 55.5t48.5 16.5h197l64 245h-191q-34 0 -48.5 16.5t-14.5 55.5t14.5 55.5t48.5 16.5h228l81 311q4 16 19.5 24.5t34.5 8.5q28 0 50 -15t22 -39q0 -3 -2 -13l-72 -277h261l81 311
q4 16 19.5 24.5t34.5 8.5q28 0 50 -15t22 -39q0 -3 -2 -13l-72 -277h157q34 0 48.5 -16.5zM714 476l64 245h-261l-64 -245h261z" />
    <glyph glyph-name="dollar" unicode="$" 
d="M661.5 1296.5q16.5 -15.5 16.5 -49.5v-174q95 -24 176 -97v45q0 35 17 50t58 15t58 -15t17 -50v-190q0 -35 -17 -50t-58 -15q-34 0 -48 26q-60 116 -203 143v-247q127 -14 203 -42q80 -29 124.5 -84t44.5 -145q0 -88 -43.5 -154.5t-127 -104.5t-201.5 -40v-178
q0 -34 -16.5 -49.5t-53.5 -15.5t-53.5 15.5t-16.5 49.5v189q-124 25 -209 110v-56q0 -35 -17 -50t-58 -15t-58 15t-17 50v240q0 35 17 50t58 15q21 0 33 -9.5t21 -31.5q28 -75 84.5 -118t145.5 -58v279q-130 16 -200 45q-73 29 -113.5 80.5t-40.5 134.5q0 87 45.5 149.5
t126 94.5t182.5 32v161q0 34 16.5 49.5t53.5 15.5t53.5 -15.5zM393.5 904.5q-51.5 -34.5 -51.5 -94.5q0 -32 20.5 -52t60.5 -33q35 -12 115 -23v239q-93 -2 -144.5 -36.5zM837 309.5q55 41.5 55 107.5q0 34 -22 56t-63 36q-44 15 -129 25v-271q104 5 159 46.5z" />
    <glyph glyph-name="percent" unicode="%" 
d="M461 1172q63 -37 100 -100t37 -137t-37 -137t-100 -100t-137 -37t-137 37t-100 100t-37 137t37 137t100 100t137 37t137 -37zM1048 1081q26 0 50 -27q25 -27 25 -49q0 -23 -24 -46l-874 -830q-22 -22 -45 -22q-26 0 -50 27q-25 27 -25 49q0 24 24 46l874 830q22 22 45 22
zM252 1059.5q-33 -19.5 -52.5 -52.5t-19.5 -72t19.5 -72t52.5 -52.5t72 -19.5t72 19.5t52.5 52.5t19.5 72t-19.5 72t-52.5 52.5t-72 19.5t-72 -19.5zM1041 489q63 -37 100 -100t37 -137t-37 -137t-100 -100t-137 -37t-137 37t-100 100t-37 137t37 137t100 100t137 37
t137 -37zM832 376.5q-33 -19.5 -52.5 -52.5t-19.5 -72t19.5 -72t52.5 -52.5t72 -19.5t72 19.5t52.5 52.5t19.5 72t-19.5 72t-52.5 52.5t-72 19.5t-72 -19.5z" />
    <glyph glyph-name="ampersand" unicode="&#x26;" 
d="M891 1105q21 -15 21 -54v-127q0 -35 -17 -50t-58 -15t-58 15t-17 50v90q-76 47 -185 47q-55 0 -95.5 -23t-61.5 -62t-21 -86q0 -52 20.5 -96.5t62.5 -91.5l293 -330q40 88 72 197q12 42 52 42h157q34 0 48.5 -15.5t14.5 -52.5t-14.5 -52.5t-48.5 -15.5h-93
q-36 -122 -86 -217l109 -122h84q34 0 48.5 -15.5t14.5 -52.5t-14.5 -52.5t-48.5 -15.5h-114q-48 0 -78 33l-87 97q-131 -152 -305 -152q-105 0 -181.5 45t-117 120.5t-40.5 166.5q0 101 51 180t144 144q-99 116 -99 256q0 89 41.5 162t117.5 115t176 42q162 0 313 -104z
M335.5 430.5q-30.5 -53.5 -30.5 -120.5q0 -52 23 -94t64 -66t94 -24q118 0 209 112l-261 294q-68 -48 -98.5 -101.5z" />
    <glyph glyph-name="quotesingle" unicode="'" 
d="M737 1219l-55 -450q-3 -26 -20.5 -40t-47.5 -14q-29 0 -47 14t-21 40l-55 450q-6 50 41 50h164q47 0 41 -50z" />
    <glyph glyph-name="parenleft" unicode="(" 
d="M792 1381q16 0 30.5 -11t25.5 -29q17 -29 17 -54q0 -20 -13 -29q-173 -114 -290 -300t-117 -441t116.5 -439t290.5 -298q13 -9 13 -29q0 -25 -17 -54q-11 -18 -25.5 -29t-30.5 -11q-10 0 -21 6q-122 73 -229.5 194.5t-176 290.5t-68.5 369t68.5 370t176.5 292.5
t229 195.5q11 6 21 6z" />
    <glyph glyph-name="parenright" unicode=")" 
d="M686 1179.5q108 -122.5 176.5 -292.5t68.5 -370t-68.5 -369t-176 -290.5t-229.5 -194.5q-11 -6 -21 -6q-16 0 -30.5 11t-25.5 29q-17 29 -17 54q0 20 13 29q174 114 290.5 298t116.5 439t-117 441t-290 300q-13 9 -13 29q0 25 17 54q11 18 25.5 29t30.5 11q10 0 21 -6
q121 -73 229 -195.5z" />
    <glyph glyph-name="asterisk" unicode="*" 
d="M682.5 1185q22.5 -24 17.5 -66l-36 -280l256 121q23 10 40 10q24 0 42.5 -16.5t28.5 -47.5q6 -19 6 -37q0 -28 -17 -47t-49 -25l-278 -53l196 -208q25 -25 25 -54q0 -37 -42 -67q-30 -21 -56 -21q-42 0 -67 46l-135 245l-135 -245q-25 -46 -67 -46q-26 0 -56 21
q-42 30 -42 67q0 29 25 54l194 208l-276 53q-32 6 -49 25t-17 47q0 18 6 37q10 31 28.5 47.5t42.5 16.5q17 0 40 -10l256 -121l-36 280q-1 5 -1 15q0 35 22.5 55t64.5 20q46 0 68.5 -24z" />
    <glyph glyph-name="plus" unicode="+" 
d="M666.5 1011.5q15.5 -14.5 15.5 -48.5v-313h313q34 0 48.5 -15.5t14.5 -52.5t-14.5 -52.5t-48.5 -15.5h-313v-313q0 -34 -15.5 -48.5t-52.5 -14.5t-52.5 14.5t-15.5 48.5v313h-313q-34 0 -48.5 15.5t-14.5 52.5t14.5 52.5t48.5 15.5h313v313q0 34 15.5 48.5t52.5 14.5
t52.5 -14.5z" />
    <glyph glyph-name="comma" unicode="," 
d="M740 284.5q9 -9.5 9 -24.5q0 -14 -7 -29l-212 -484q-18 -41 -86 -41q-72 0 -72 50q0 4 2 16l94 482q4 19 17.5 29.5t34.5 10.5h194q17 0 26 -9.5z" />
    <glyph glyph-name="hyphen" unicode="-" 
d="M1043.5 634.5q14.5 -15.5 14.5 -52.5t-14.5 -52.5t-48.5 -15.5h-762q-34 0 -48.5 15.5t-14.5 52.5t14.5 52.5t48.5 15.5h762q34 0 48.5 -15.5z" />
    <glyph glyph-name="period" unicode="." 
d="M717.5 285.5q31.5 -14.5 31.5 -48.5v-184q0 -34 -31.5 -48.5t-103.5 -14.5t-103.5 14.5t-31.5 48.5v184q0 34 31.5 48.5t103.5 14.5t103.5 -14.5z" />
    <glyph glyph-name="slash" unicode="/" 
d="M1004 1379q26 -15 26 -38q0 -8 -3 -17l-672 -1643q-7 -16 -24.5 -26t-40.5 -10q-40 0 -66 15t-26 38q0 8 3 17l672 1643q7 16 24.5 26t40.5 10q40 0 66 -15z" />
    <glyph glyph-name="zero" unicode="0" 
d="M838.5 1132.5q96.5 -76.5 149 -216t52.5 -323.5t-52.5 -323t-148.5 -215.5t-225 -76.5t-225 76.5t-148.5 215.5t-52.5 323t52.5 323.5t149 216t224.5 76.5t224.5 -76.5zM474.5 1005.5q-60.5 -55.5 -94.5 -161t-34 -251.5t34 -251.5t94.5 -160.5t139.5 -55t139.5 55
t94.5 160.5t34 251.5t-34 251.5t-94.5 161t-139.5 55.5t-139.5 -55.5z" />
    <glyph glyph-name="one" unicode="1" 
d="M1022.5 120.5q14.5 -15.5 14.5 -52.5t-14.5 -52.5t-48.5 -15.5h-674q-34 0 -48.5 15.5t-14.5 52.5t14.5 52.5t48.5 15.5h269v858l-249 -155q-17 -10 -31 -10q-32 0 -55 41q-14 24 -14 46q0 34 31 52l377 232q20 12 40 12q22 0 36.5 -14.5t14.5 -40.5v-1021h255
q34 0 48.5 -15.5z" />
    <glyph glyph-name="two" unicode="2" 
d="M783.5 1167.5q87.5 -41.5 135.5 -120.5t48 -188q0 -102 -50.5 -187.5t-157.5 -194.5l-336 -341h434v126q0 35 17 50t58 15t58 -15t17 -50v-194q0 -37 -14.5 -52.5t-48.5 -15.5h-694q-34 0 -48.5 15.5t-14.5 52.5q0 38 15 54l440 446q92 94 129.5 156.5t37.5 134.5
q0 93 -59.5 147.5t-168.5 54.5q-110 0 -207 -56v-110q0 -35 -17 -50t-58 -15t-58 15t-17 50v147q0 39 23 55q73 53 158 82.5t175 29.5q116 0 203.5 -41.5z" />
    <glyph glyph-name="three" unicode="3" 
d="M791 1168.5q86 -40.5 133 -115t47 -174.5q0 -86 -40 -148.5t-113 -99.5q91 -38 141.5 -111t50.5 -175q0 -109 -48.5 -192t-141.5 -129t-222 -46q-98 0 -198 34t-179 92q-30 22 -30 50q0 20 17 49q26 42 58 42q16 0 34 -13q66 -49 143 -77.5t155 -28.5q124 0 189 58.5
t65 160.5q0 103 -65.5 156.5t-183.5 53.5h-73q-34 0 -48.5 15.5t-14.5 52.5t14.5 52.5t48.5 15.5h55q114 0 173 48t59 140q0 85 -59 133.5t-167 48.5q-116 0 -197 -39v-67q0 -35 -17 -50t-58 -15t-58 15t-17 50v109q0 22 6.5 35t20.5 22q143 88 319 88q115 0 201 -40.5z" />
    <glyph glyph-name="four" unicode="4" 
d="M838 1131v-635h162q34 0 48.5 -15.5t14.5 -52.5t-14.5 -52.5t-48.5 -15.5h-162v-224h132q34 0 48.5 -15.5t14.5 -52.5t-14.5 -52.5t-48.5 -15.5h-430q-34 0 -48.5 15.5t-14.5 52.5t14.5 52.5t48.5 15.5h148v224h-478q-34 0 -48.5 15.5t-14.5 52.5q0 33 10 47l484 673
q22 31 47 46t63 15q87 0 87 -78zM346 496h342l8 496z" />
    <glyph glyph-name="five" unicode="5" 
d="M933.5 1171.5q14.5 -15.5 14.5 -52.5t-14.5 -52.5t-48.5 -15.5h-466l-13 -321q100 56 215 56q120 0 208 -51t134.5 -141.5t46.5 -207.5t-52 -209.5t-148 -145.5t-222 -53q-96 0 -193 32t-176 87q-31 21 -31 51q0 22 16 48q26 43 58 43q16 0 34 -13q65 -46 141 -73
t151 -27q81 0 141 32.5t91.5 91t31.5 136.5q0 74 -29.5 131t-85 89t-129.5 32q-68 0 -122 -17.5t-105 -53.5q-16 -10 -50 -10q-42 0 -59.5 15t-15.5 50l20 500q2 35 18 50t57 15h534q34 0 48.5 -15.5z" />
    <glyph glyph-name="six" unicode="6" 
d="M959.5 1191q15.5 -19 15.5 -70q0 -31 -9.5 -44.5t-27.5 -14.5q-266 -14 -409 -137.5t-171 -335.5q52 68 128 105t162 37q110 0 198.5 -47t139 -133t50.5 -198q0 -108 -51 -193.5t-144.5 -133.5t-214.5 -48q-109 0 -200.5 50t-147.5 145q-77 132 -77 339q0 173 73.5 327
t234 256.5t408.5 113.5q27 1 42.5 -18zM495 555.5q-58 -27.5 -90.5 -76t-32.5 -111.5q0 -70 31.5 -125t89 -86t133.5 -31t133 28t88 79.5t31 119.5q0 69 -30.5 121t-87 80.5t-134.5 28.5q-73 0 -131 -27.5z" />
    <glyph glyph-name="seven" unicode="7" 
d="M1014.5 1171.5q14.5 -15.5 14.5 -52.5q0 -24 -6 -40l-426 -1055q-9 -23 -28.5 -34.5t-46.5 -11.5q-36 0 -58.5 14.5t-22.5 38.5q0 14 5 25l407 995h-474v-146q0 -35 -17 -50t-58 -15t-58 15t-17 50v214q0 37 14.5 52.5t48.5 15.5h674q34 0 48.5 -15.5z" />
    <glyph glyph-name="eight" unicode="8" 
d="M802.5 1165.5q84.5 -43.5 132.5 -119.5t48 -167q0 -81 -46 -145t-120 -104q93 -42 149 -117t56 -173q0 -103 -53 -185.5t-146 -129.5t-209 -47t-209 47t-146 129.5t-53 185.5q0 98 56 173t148 117q-74 40 -119.5 104t-45.5 145q0 91 48 167t132.5 119.5t188.5 43.5
t188.5 -43.5zM503.5 1038.5q-48.5 -22.5 -76.5 -64.5t-28 -98q0 -51 28 -93t77.5 -66t109.5 -24t109.5 24t77.5 66t28 93q0 56 -28 98t-76.5 64.5t-110.5 22.5t-110.5 -22.5zM485 527q-56 -27 -87.5 -75.5t-31.5 -110.5t31.5 -111t87.5 -76.5t129 -27.5t129 27.5t87.5 76.5
t31.5 111t-31.5 110.5t-87.5 75.5t-129 27t-129 -27z" />
    <glyph glyph-name="nine" unicode="9" 
d="M802.5 1159q91.5 -50 147.5 -145q77 -132 77 -339q0 -173 -73.5 -327t-234 -256.5t-408.5 -113.5q-27 -1 -42.5 18t-15.5 70q0 31 9.5 44.5t27.5 14.5q266 14 409 137.5t171 335.5q-52 -68 -128 -105t-162 -37q-110 0 -198.5 47t-139 133t-50.5 198q0 108 51 193.5
t144.5 133.5t214.5 48q109 0 200.5 -50zM469 1033q-57 -28 -88 -79.5t-31 -119.5q0 -69 30.5 -121t87 -80.5t134.5 -28.5q73 0 131 27.5t90.5 76t32.5 111.5q0 70 -31.5 125t-89 86t-133.5 31t-133 -28z" />
    <glyph glyph-name="colon" unicode=":" 
d="M510.5 638.5q-31.5 14.5 -31.5 48.5v184q0 34 31.5 48.5t103.5 14.5t103.5 -14.5t31.5 -48.5v-184q0 -34 -31.5 -48.5t-103.5 -14.5t-103.5 14.5zM510.5 4.5q-31.5 14.5 -31.5 48.5v184q0 34 31.5 48.5t103.5 14.5t103.5 -14.5t31.5 -48.5v-184q0 -34 -31.5 -48.5
t-103.5 -14.5t-103.5 14.5z" />
    <glyph glyph-name="semicolon" unicode=";" 
d="M510.5 638.5q-31.5 14.5 -31.5 48.5v184q0 34 31.5 48.5t103.5 14.5t103.5 -14.5t31.5 -48.5v-184q0 -34 -31.5 -48.5t-103.5 -14.5t-103.5 14.5zM760 284.5q9 -9.5 9 -24.5q0 -14 -7 -29l-212 -484q-18 -41 -86 -41q-72 0 -72 50q0 4 2 16l94 482q4 19 17.5 29.5
t34.5 10.5h194q17 0 26 -9.5z" />
    <glyph glyph-name="less" unicode="&#x3c;" 
d="M986 1043q33 0 55 -43q12 -24 12 -42q0 -33 -41 -53l-672 -322l672 -322q41 -20 41 -53q0 -18 -12 -42q-22 -43 -55 -43q-17 0 -37 10l-777 381q-25 12 -36 28t-11 41t11 41t36 28l777 381q20 10 37 10z" />
    <glyph glyph-name="equal" unicode="=" 
d="M1043.5 834.5q14.5 -15.5 14.5 -52.5t-14.5 -52.5t-48.5 -15.5h-762q-34 0 -48.5 15.5t-14.5 52.5t14.5 52.5t48.5 15.5h762q34 0 48.5 -15.5zM1043.5 434.5q14.5 -15.5 14.5 -52.5t-14.5 -52.5t-48.5 -15.5h-762q-34 0 -48.5 15.5t-14.5 52.5t14.5 52.5t48.5 15.5h762
q34 0 48.5 -15.5z" />
    <glyph glyph-name="greater" unicode="&#x3e;" 
d="M1092 624q11 -16 11 -41t-11 -41t-36 -28l-777 -381q-20 -10 -37 -10q-33 0 -55 43q-12 24 -12 42q0 33 41 53l672 322l-672 322q-41 20 -41 53q0 18 12 42q22 43 55 43q17 0 37 -10l777 -381q25 -12 36 -28z" />
    <glyph glyph-name="question" unicode="?" 
d="M804.5 1229.5q78.5 -39.5 120 -110t41.5 -163.5q0 -86 -34.5 -147.5t-102 -107t-176.5 -90.5l-13 -144q-5 -48 -66 -48q-63 0 -66 48l-13 198q-2 20 5.5 32t24.5 19l69 28q80 33 126.5 62t69 65t22.5 85q0 75 -50.5 120t-142.5 45q-127 0 -215 -37v-89q0 -35 -17 -50
t-58 -15t-58 15t-17 50v127q0 21 6 34.5t19 21.5q151 91 339 91q108 0 186.5 -39.5zM662 215.5q27 -14.5 27 -48.5v-114q0 -34 -27 -48.5t-88 -14.5t-88 14.5t-27 48.5v114q0 34 27 48.5t88 14.5t88 -14.5z" />
    <glyph glyph-name="at" unicode="@" 
d="M928.5 1008.5q115.5 -69.5 178.5 -193.5t63 -284q0 -116 -35 -205.5t-99 -139t-147 -49.5q-65 0 -111.5 33t-69.5 96q-52 -67 -99 -100.5t-110 -33.5q-49 0 -89.5 27t-63.5 77.5t-23 120.5q0 91 43 192t116 168.5t158 67.5q86 0 128 -100l31 63q6 11 25 11q15 0 34 -7
q20 -7 31.5 -19.5t7.5 -26.5l-77 -302q-7 -27 -7 -52q0 -42 20 -65.5t55 -23.5q75 0 118 73.5t43 194.5q0 130 -48 225.5t-136.5 147t-209.5 51.5q-136 0 -246.5 -74.5t-173 -203.5t-62.5 -288q0 -128 45 -222.5t132 -145.5t210 -51q69 0 135.5 10t119.5 27q8 2 11 2
q28 0 41 -45q5 -18 5 -28q0 -27 -24 -37q-54 -24 -129.5 -38t-156.5 -14q-159 0 -274 65.5t-176.5 187.5t-61.5 289q0 194 79.5 351.5t218.5 247.5t312 90q153 0 268.5 -69.5zM557.5 613.5q-42.5 -44.5 -71 -114t-28.5 -140.5q0 -47 18 -70t48 -23q49 0 92.5 45.5
t69.5 114.5t26 135q0 46 -20 71.5t-56 25.5t-78.5 -44.5z" />
    <glyph glyph-name="A" unicode="A" 
d="M704.5 1171.5q24.5 -15.5 36.5 -49.5l353 -986h61q34 0 48.5 -15.5t14.5 -52.5t-14.5 -52.5t-48.5 -15.5h-354q-34 0 -48.5 15.5t-14.5 52.5t14.5 52.5t48.5 15.5h135l-82 238h-485l-83 -238h121q34 0 48.5 -15.5t14.5 -52.5t-14.5 -52.5t-48.5 -15.5h-334
q-34 0 -48.5 15.5t-14.5 52.5t14.5 52.5t48.5 15.5h56l331 915h-187q-34 0 -48.5 15.5t-14.5 52.5t14.5 52.5t48.5 15.5h367q40 0 64.5 -15.5zM603 1051l-187 -541h392l-186 541h-19z" />
    <glyph glyph-name="B" unicode="B" 
d="M843 1147q82 -40 123.5 -112.5t41.5 -169.5q0 -76 -34.5 -134.5t-98.5 -95.5q106 -34 162.5 -109.5t56.5 -186.5q0 -105 -45 -181t-131 -117t-208 -41h-567q-34 0 -48.5 15.5t-14.5 52.5t14.5 52.5t48.5 15.5h122v915h-122q-34 0 -48.5 15.5t-14.5 52.5t14.5 52.5
t48.5 15.5h501q117 0 199 -40zM415 681h207q115 0 174 48t59 136q0 92 -58 139t-175 47h-207v-370zM415 136h265q123 0 189.5 53t66.5 150q0 206 -251 206h-270v-409z" />
    <glyph glyph-name="C" unicode="C" 
d="M1057 1194q17 -15 17 -50v-330q0 -35 -17 -50t-58 -15t-58 15t-17 50q0 68 -30.5 124t-93.5 89.5t-156 33.5q-108 0 -191.5 -57t-130 -163t-46.5 -248t44 -247.5t125 -162.5t189 -57q99 0 189 29t162 84q17 14 37 14q30 0 53 -39q18 -30 18 -53q0 -30 -31 -52
q-93 -65 -202.5 -98t-225.5 -33q-156 0 -272.5 76.5t-180 215.5t-63.5 323q0 183 65 322.5t182.5 216.5t268.5 77q94 0 167 -32t123 -91v58q0 35 17 50t58 15t58 -15z" />
    <glyph glyph-name="D" unicode="D" 
d="M890 1115.5q119 -71.5 184.5 -206t65.5 -316.5t-65.5 -316t-184.5 -205.5t-276 -71.5h-471q-34 0 -48.5 15.5t-14.5 52.5t14.5 52.5t48.5 15.5h112v915h-112q-34 0 -48.5 15.5t-14.5 52.5t14.5 52.5t48.5 15.5h471q157 0 276 -71.5zM405 136h186q119 0 207 52.5t136 155
t48 249.5t-48 249.5t-136 155.5t-207 53h-186v-915z" />
    <glyph glyph-name="E" unicode="E" 
d="M1083 415q17 -15 17 -50v-297q0 -37 -14.5 -52.5t-48.5 -15.5h-894q-34 0 -48.5 15.5t-14.5 52.5t14.5 52.5t48.5 15.5h102v915h-102q-34 0 -48.5 15.5t-14.5 52.5t14.5 52.5t48.5 15.5h874q34 0 48.5 -15.5t14.5 -52.5v-254q0 -35 -17 -50t-58 -15t-58 15t-17 50v186
h-535v-371h258v91q0 35 15.5 50t55.5 15t55.5 -15t15.5 -50v-318q0 -35 -15.5 -50t-55.5 -15t-55.5 15t-15.5 50v91h-258v-408h555v229q0 35 17 50t58 15t58 -15z" />
    <glyph glyph-name="F" unicode="F" 
d="M1095.5 1171.5q14.5 -15.5 14.5 -52.5v-264q0 -35 -17 -50t-58 -15t-58 15t-17 50v196h-535v-391h254v91q0 35 15.5 50t55.5 15t55.5 -15t15.5 -50v-318q0 -35 -15.5 -50t-55.5 -15t-55.5 15t-15.5 50v91h-254v-388h232q34 0 48.5 -15.5t14.5 -52.5t-14.5 -52.5
t-48.5 -15.5h-514q-34 0 -48.5 15.5t-14.5 52.5t14.5 52.5t48.5 15.5h132v915h-132q-34 0 -48.5 15.5t-14.5 52.5t14.5 52.5t48.5 15.5h904q34 0 48.5 -15.5z" />
    <glyph glyph-name="G" unicode="G" 
d="M1045 1194q17 -15 17 -50v-290q0 -35 -17 -50t-58 -15t-58 15t-17 50q0 60 -32.5 107t-95.5 73.5t-150 26.5q-111 0 -196.5 -57t-133.5 -163t-48 -248t45.5 -247.5t129 -162.5t193.5 -57q175 0 299 57v227h-247q-34 0 -48.5 15.5t-14.5 52.5t14.5 52.5t48.5 15.5h429
q34 0 48.5 -15.5t14.5 -52.5t-14.5 -52.5t-48.5 -15.5h-32v-267q0 -49 -36 -69q-82 -47 -189 -71.5t-224 -24.5q-156 0 -275.5 76.5t-185 216t-65.5 322.5q0 182 67.5 322t187 217t271.5 77q94 0 166.5 -29.5t121.5 -84.5v49q0 35 17 50t58 15t58 -15z" />
    <glyph glyph-name="H" unicode="H" 
d="M1133.5 1171.5q14.5 -15.5 14.5 -52.5t-14.5 -52.5t-48.5 -15.5h-72v-915h72q34 0 48.5 -15.5t14.5 -52.5t-14.5 -52.5t-48.5 -15.5h-314q-34 0 -48.5 15.5t-14.5 52.5t14.5 52.5t48.5 15.5h92v408h-498v-408h92q34 0 48.5 -15.5t14.5 -52.5t-14.5 -52.5t-48.5 -15.5
h-314q-34 0 -48.5 15.5t-14.5 52.5t14.5 52.5t48.5 15.5h72v915h-72q-34 0 -48.5 15.5t-14.5 52.5t14.5 52.5t48.5 15.5h314q34 0 48.5 -15.5t14.5 -52.5t-14.5 -52.5t-48.5 -15.5h-92v-371h498v371h-92q-34 0 -48.5 15.5t-14.5 52.5t14.5 52.5t48.5 15.5h314
q34 0 48.5 -15.5z" />
    <glyph glyph-name="I" unicode="I" 
d="M993.5 1171.5q14.5 -15.5 14.5 -52.5t-14.5 -52.5t-48.5 -15.5h-256v-915h276q34 0 48.5 -15.5t14.5 -52.5t-14.5 -52.5t-48.5 -15.5h-702q-34 0 -48.5 15.5t-14.5 52.5t14.5 52.5t48.5 15.5h276v915h-256q-34 0 -48.5 15.5t-14.5 52.5t14.5 52.5t48.5 15.5h662
q34 0 48.5 -15.5z" />
    <glyph glyph-name="J" unicode="J" 
d="M1143.5 1171.5q14.5 -15.5 14.5 -52.5t-14.5 -52.5t-48.5 -15.5h-201v-718q0 -175 -102 -265t-298 -90q-114 0 -206.5 40.5t-156.5 110.5q-16 19 -16 51v285q0 35 17 50t58 15t58 -15t17 -50v-264q84 -75 230 -75q131 0 190 58t59 179v688h-341q-34 0 -48.5 15.5
t-14.5 52.5t14.5 52.5t48.5 15.5h692q34 0 48.5 -15.5z" />
    <glyph glyph-name="K" unicode="K" 
d="M1143.5 1171.5q14.5 -15.5 14.5 -52.5t-14.5 -52.5t-48.5 -15.5h-61l-419 -405q8 1 24 1q131 0 209 -100q31 -40 54.5 -90t51.5 -125q4 -10 20.5 -52.5t32.5 -71.5q39 -72 90 -72h28q34 0 48.5 -15.5t14.5 -52.5t-14.5 -52.5t-48.5 -15.5h-82q-101 0 -172 139
q-25 50 -59 137q-23 61 -42 103t-42 75q-24 34 -60.5 52t-82.5 18q-42 0 -81 -15t-69 -44l-30 -29v-300h162q34 0 48.5 -15.5t14.5 -52.5t-14.5 -52.5t-48.5 -15.5h-424q-34 0 -48.5 15.5t-14.5 52.5t14.5 52.5t48.5 15.5h112v915h-112q-34 0 -48.5 15.5t-14.5 52.5
t14.5 52.5t48.5 15.5h354q34 0 48.5 -15.5t14.5 -52.5t-14.5 -52.5t-48.5 -15.5h-92v-429l438 429h-72q-34 0 -48.5 15.5t-14.5 52.5t14.5 52.5t48.5 15.5h324q34 0 48.5 -15.5z" />
    <glyph glyph-name="L" unicode="L" 
d="M745.5 1171.5q14.5 -15.5 14.5 -52.5t-14.5 -52.5t-48.5 -15.5h-242v-915h495v329q0 35 17 50t58 15t58 -15t17 -50v-397q0 -37 -14.5 -52.5t-48.5 -15.5h-894q-34 0 -48.5 15.5t-14.5 52.5t14.5 52.5t48.5 15.5h162v915h-162q-34 0 -48.5 15.5t-14.5 52.5t14.5 52.5
t48.5 15.5h554q34 0 48.5 -15.5z" />
    <glyph glyph-name="M" unicode="M" 
d="M1153.5 1171.5q14.5 -15.5 14.5 -52.5t-14.5 -52.5t-48.5 -15.5h-50l26 -915h54q34 0 48.5 -15.5t14.5 -52.5t-14.5 -52.5t-48.5 -15.5h-314q-34 0 -48.5 15.5t-14.5 52.5t14.5 52.5t48.5 15.5h111l-22 819l-204 -570q-13 -35 -34.5 -50t-57.5 -15t-57.5 15t-34.5 50
l-205 570l-21 -819h111q34 0 48.5 -15.5t14.5 -52.5t-14.5 -52.5t-48.5 -15.5h-314q-34 0 -48.5 15.5t-14.5 52.5t14.5 52.5t48.5 15.5h54l25 915h-49q-34 0 -48.5 15.5t-14.5 52.5t14.5 52.5t48.5 15.5h211q24 0 38 -8t20 -25l222 -609l221 609q11 33 59 33h211
q34 0 48.5 -15.5z" />
    <glyph glyph-name="N" unicode="N" 
d="M1143.5 1171.5q14.5 -15.5 14.5 -52.5t-14.5 -52.5t-48.5 -15.5h-57v-1014q0 -27 -18.5 -43t-56.5 -16q-53 0 -84 55l-519 927h-4v-824h141q34 0 48.5 -15.5t14.5 -52.5t-14.5 -52.5t-48.5 -15.5h-354q-34 0 -48.5 15.5t-14.5 52.5t14.5 52.5t48.5 15.5h67v915h-77
q-34 0 -48.5 15.5t-14.5 52.5t14.5 52.5t48.5 15.5h224q22 0 35.5 -7t21.5 -21l474 -848h4v740h-121q-34 0 -48.5 15.5t-14.5 52.5t14.5 52.5t48.5 15.5h324q34 0 48.5 -15.5z" />
    <glyph glyph-name="O" unicode="O" 
d="M889.5 1132q119.5 -77 185 -216.5t65.5 -322.5t-65.5 -322.5t-185 -216t-275.5 -76.5t-275.5 76.5t-185 216t-65.5 322.5t65.5 322.5t185 216.5t275.5 77t275.5 -77zM420.5 1004q-83.5 -57 -129 -163t-45.5 -248t45.5 -247.5t129 -162.5t193.5 -57t193.5 57t129 162.5
t45.5 247.5t-45.5 248t-129 163t-193.5 57t-193.5 -57z" />
    <glyph glyph-name="P" unicode="P" 
d="M918 1140q95 -47 144.5 -133t49.5 -199t-49.5 -197.5t-144.5 -131t-228 -46.5h-235v-297h240q34 0 48.5 -15.5t14.5 -52.5t-14.5 -52.5t-48.5 -15.5h-552q-34 0 -48.5 15.5t-14.5 52.5t14.5 52.5t48.5 15.5h162v915h-162q-34 0 -48.5 15.5t-14.5 52.5t14.5 52.5
t48.5 15.5h547q133 0 228 -47zM455 569h214q139 0 212 63t73 176q0 115 -73.5 179t-211.5 64h-214v-482z" />
    <glyph glyph-name="Q" unicode="Q" 
d="M889.5 1136.5q119.5 -72.5 185 -206.5t65.5 -312t-65.5 -311.5t-185 -206t-275.5 -72.5q-28 0 -52 2l-129 -135q81 32 160 32q32 0 60.5 -4t71.5 -13q69 -15 108 -15q40 0 78.5 13t81.5 44q9 6 19 6q15 0 30.5 -12t27.5 -32q17 -29 17 -51q0 -26 -22 -42
q-58 -43 -109.5 -61t-102.5 -18q-26 0 -55.5 4t-48 7.5t-26.5 5.5q-52 11 -86.5 16t-74.5 5q-108 0 -225 -49q-7 -3 -15 -3q-33 0 -68 46q-26 34 -26 59q0 14 9 25l180 204q-154 58 -241.5 203.5t-87.5 352.5q0 178 65.5 312t185 206.5t275.5 72.5t275.5 -72.5zM420 1008
q-83 -53 -128.5 -153t-45.5 -237t45.5 -237t128.5 -152.5t194 -52.5t194 52.5t128.5 152.5t45.5 237t-45.5 237t-128.5 153t-194 53t-194 -53z" />
    <glyph glyph-name="R" unicode="R" 
d="M863.5 1145q89.5 -42 136 -118t46.5 -177q0 -114 -74 -193t-203 -108q56 -22 93 -71q31 -41 53 -81.5t49 -99.5q28 -61 43 -89q39 -72 90 -72h28q34 0 48.5 -15.5t14.5 -52.5t-14.5 -52.5t-48.5 -15.5h-72q-60 0 -101.5 31.5t-80.5 107.5q-22 44 -54 116
q-30 66 -48.5 102.5t-44.5 72.5q-30 42 -72 63.5t-101 21.5h-136v-379h130q34 0 48.5 -15.5t14.5 -52.5t-14.5 -52.5t-48.5 -15.5h-402q-34 0 -48.5 15.5t-14.5 52.5t14.5 52.5t48.5 15.5h122v915h-122q-34 0 -48.5 15.5t-14.5 52.5t14.5 52.5t48.5 15.5h506
q125 0 214.5 -42zM415 651h203q270 0 270 199q0 96 -68 148.5t-192 52.5h-213v-400z" />
    <glyph glyph-name="S" unicode="S" 
d="M1001 1194q17 -15 17 -50v-230q0 -35 -17 -50t-58 -15q-38 0 -52 26q-48 91 -135 138.5t-198 47.5q-110 0 -170.5 -51t-60.5 -137q0 -41 21 -69t60 -48q35 -18 82 -29.5t126 -26.5q86 -17 136.5 -28.5t99.5 -31.5q100 -41 156.5 -114.5t56.5 -198.5q0 -104 -49 -182.5
t-144.5 -122.5t-229.5 -44q-100 0 -185.5 36.5t-148.5 106.5v-78q0 -35 -17 -50t-58 -15t-58 15t-17 50v300q0 35 17 50t58 15q43 0 58 -42q41 -116 130.5 -178t220.5 -62q128 0 196.5 55t68.5 146q0 63 -31.5 102.5t-91.5 65.5q-38 17 -83 27.5t-123 26.5q-82 16 -137.5 30
t-102.5 35q-80 36 -124.5 97.5t-44.5 161.5q0 103 49.5 179t138 116.5t201.5 40.5q88 0 170 -34t140 -92v61q0 35 17 50t58 15t58 -15z" />
    <glyph glyph-name="T" unicode="T" 
d="M1091.5 1171.5q14.5 -15.5 14.5 -52.5v-377q0 -35 -17 -50t-58 -15t-58 15t-17 50v309h-267v-915h236q34 0 48.5 -15.5t14.5 -52.5t-14.5 -52.5t-48.5 -15.5h-622q-34 0 -48.5 15.5t-14.5 52.5t14.5 52.5t48.5 15.5h236v915h-267v-309q0 -35 -17 -50t-58 -15t-58 15
t-17 50v377q0 37 14.5 52.5t48.5 15.5h858q34 0 48.5 -15.5z" />
    <glyph glyph-name="U" unicode="U" 
d="M1143.5 1171.5q14.5 -15.5 14.5 -52.5t-14.5 -52.5t-48.5 -15.5h-62v-658q0 -209 -109.5 -312t-309.5 -103t-309.5 103t-109.5 312v658h-62q-34 0 -48.5 15.5t-14.5 52.5t14.5 52.5t48.5 15.5h324q34 0 48.5 -15.5t14.5 -52.5t-14.5 -52.5t-48.5 -15.5h-112v-638
q0 -153 65 -220t204 -67t204 67t65 220v638h-112q-34 0 -48.5 15.5t-14.5 52.5t14.5 52.5t48.5 15.5h324q34 0 48.5 -15.5z" />
    <glyph glyph-name="V" unicode="V" 
d="M1203.5 1171.5q14.5 -15.5 14.5 -52.5t-14.5 -52.5t-48.5 -15.5h-77l-359 -1008q-13 -35 -38.5 -50t-69.5 -15q-43 0 -68.5 15.5t-37.5 49.5l-356 1008h-76q-34 0 -48.5 15.5t-14.5 52.5t14.5 52.5t48.5 15.5h374q34 0 48.5 -15.5t14.5 -52.5t-14.5 -52.5t-48.5 -15.5
h-141l306 -884l309 884h-100q-34 0 -48.5 15.5t-14.5 52.5t14.5 52.5t48.5 15.5h334q34 0 48.5 -15.5z" />
    <glyph glyph-name="W" unicode="W" 
d="M1223.5 1171.5q14.5 -15.5 14.5 -52.5t-14.5 -52.5t-48.5 -15.5h-54l-138 -1008q-5 -36 -25.5 -50.5t-60.5 -14.5q-82 0 -102 65l-185 581l-187 -581q-21 -65 -104 -65q-39 0 -59.5 15t-24.5 50l-133 1008h-49q-34 0 -48.5 15.5t-14.5 52.5t14.5 52.5t48.5 15.5h344
q34 0 48.5 -15.5t14.5 -52.5t-14.5 -52.5t-48.5 -15.5h-146l100 -801l188 588q14 47 72 47q32 0 49.5 -10t23.5 -30l187 -595l104 801h-124q-34 0 -48.5 15.5t-14.5 52.5t14.5 52.5t48.5 15.5h324q34 0 48.5 -15.5z" />
    <glyph glyph-name="X" unicode="X" 
d="M1133.5 1171.5q14.5 -15.5 14.5 -52.5t-14.5 -52.5t-48.5 -15.5h-65l-309 -434l346 -481h58q34 0 48.5 -15.5t14.5 -52.5t-14.5 -52.5t-48.5 -15.5h-354q-34 0 -48.5 15.5t-14.5 52.5t14.5 52.5t48.5 15.5h109l-255 365l-261 -365h83q34 0 48.5 -15.5t14.5 -52.5
t-14.5 -52.5t-48.5 -15.5h-324q-34 0 -48.5 15.5t-14.5 52.5t14.5 52.5t48.5 15.5h62l349 483l-312 432h-69q-34 0 -48.5 15.5t-14.5 52.5t14.5 52.5t48.5 15.5h344q34 0 48.5 -15.5t14.5 -52.5t-14.5 -52.5t-48.5 -15.5h-89l221 -316l222 316h-60q-34 0 -48.5 15.5
t-14.5 52.5t14.5 52.5t48.5 15.5h304q34 0 48.5 -15.5z" />
    <glyph glyph-name="Y" unicode="Y" 
d="M1153.5 1171.5q14.5 -15.5 14.5 -52.5t-14.5 -52.5t-48.5 -15.5h-68l-348 -559v-356h226q34 0 48.5 -15.5t14.5 -52.5t-14.5 -52.5t-48.5 -15.5h-602q-34 0 -48.5 15.5t-14.5 52.5t14.5 52.5t48.5 15.5h226v356l-346 559h-70q-34 0 -48.5 15.5t-14.5 52.5t14.5 52.5
t48.5 15.5h334q34 0 48.5 -15.5t14.5 -52.5t-14.5 -52.5t-48.5 -15.5h-93l250 -409l252 409h-65q-34 0 -48.5 15.5t-14.5 52.5t14.5 52.5t48.5 15.5h304q34 0 48.5 -15.5z" />
    <glyph glyph-name="Z" unicode="Z" 
d="M1035.5 1171.5q14.5 -15.5 14.5 -52.5q0 -25 -10 -39l-663 -944h532v269q0 35 17 50t58 15t58 -15t17 -50v-337q0 -37 -14.5 -52.5t-48.5 -15.5h-766q-34 0 -48.5 15.5t-14.5 52.5q0 22 14 43l659 940h-502v-249q0 -35 -17 -50t-58 -15t-58 15t-17 50v317q0 37 14.5 52.5
t48.5 15.5h736q34 0 48.5 -15.5z" />
    <glyph glyph-name="bracketleft" unicode="[" 
d="M855.5 -205.5q14.5 -16.5 14.5 -55.5t-14.5 -55.5t-48.5 -16.5h-414q-34 0 -48.5 15.5t-14.5 52.5v1569q0 37 14.5 52.5t48.5 15.5h414q34 0 48.5 -16.5t14.5 -55.5t-14.5 -55.5t-48.5 -16.5h-327v-1417h327q34 0 48.5 -16.5z" />
    <glyph glyph-name="backslash" unicode="\" 
d="M330.5 1384q17.5 -10 24.5 -26l672 -1643q3 -9 3 -17q0 -23 -26 -38t-66 -15q-23 0 -40.5 10t-24.5 26l-672 1643q-3 9 -3 17q0 23 26 38t66 15q23 0 40.5 -10z" />
    <glyph glyph-name="bracketright" unicode="]" 
d="M883.5 1356.5q14.5 -15.5 14.5 -52.5v-1569q0 -37 -14.5 -52.5t-48.5 -15.5h-414q-34 0 -48.5 16.5t-14.5 55.5t14.5 55.5t48.5 16.5h327v1417h-327q-34 0 -48.5 16.5t-14.5 55.5t14.5 55.5t48.5 16.5h414q34 0 48.5 -15.5z" />
    <glyph glyph-name="asciicircum" unicode="^" 
d="M657 1200q15 -9 25 -28l308 -591q6 -10 6 -21q0 -17 -14 -30.5t-36 -20.5q-18 -7 -41 -7q-19 0 -33.5 6.5t-20.5 18.5l-237 480l-237 -480q-6 -12 -20.5 -18.5t-33.5 -6.5q-23 0 -41 7q-22 7 -36 20.5t-14 30.5q0 11 6 21l308 591q10 19 25 28t43 9t43 -9z" />
    <glyph glyph-name="underscore" unicode="_" 
d="M1250.5 -265q5.5 -13 5.5 -55t-5.5 -55t-17.5 -13h-1238q-12 0 -17.5 13t-5.5 55t5.5 55t17.5 13h1238q12 0 17.5 -13z" />
    <glyph glyph-name="grave" unicode="`" 
d="M811 1115q0 -25 -24 -52q-22 -25 -46 -25q-14 0 -32 10l-374 219q-22 13 -22 39q0 29 30 68q33 41 67 41q19 0 37 -13l348 -256q16 -12 16 -31z" />
    <glyph glyph-name="a" unicode="a" 
d="M900 862q94 -84 94 -249v-398q0 -79 66 -79h35q34 0 48.5 -15.5t14.5 -52.5t-14.5 -52.5t-48.5 -15.5h-64q-65 0 -111.5 32.5t-60.5 95.5q-82 -72 -177.5 -111t-202.5 -39q-101 0 -178.5 34.5t-121.5 100.5t-44 157q0 158 113 233.5t292 75.5q159 0 304 -51v85
q0 97 -54.5 142.5t-175.5 45.5q-75 0 -156 -21t-154 -58q-17 -9 -31 -9q-33 0 -55 48q-11 24 -11 40q0 35 37 54q84 44 180.5 67.5t193.5 23.5q188 0 282 -84zM359.5 398.5q-66.5 -39.5 -66.5 -125.5q0 -73 50.5 -113.5t141.5 -40.5q199 0 359 165v109q-68 22 -146 33.5
t-157 11.5q-115 0 -181.5 -39.5z" />
    <glyph glyph-name="b" unicode="b" 
d="M337.5 1296.5q14.5 -15.5 14.5 -52.5v-463q129 165 317 165q124 0 222 -58.5t154 -168t56 -257.5t-56 -257.5t-154 -168t-222 -58.5q-98 0 -181 44t-146 126v-80q0 -37 -14.5 -52.5t-48.5 -15.5h-159q-34 0 -48.5 15.5t-14.5 52.5t14.5 52.5t48.5 15.5h82v1040h-102
q-34 0 -48.5 15.5t-14.5 52.5t14.5 52.5t48.5 15.5h189q34 0 48.5 -15.5zM500.5 758q-69.5 -40 -109 -116t-39.5 -180t39.5 -180t109 -116t158.5 -40t153 42.5t97.5 118.5t33.5 175t-33.5 175t-97.5 118.5t-153 42.5t-158.5 -40z" />
    <glyph glyph-name="c" unicode="c" 
d="M1032 931q17 -15 17 -50v-290q0 -35 -17 -50t-58 -15t-58 15t-17 50q0 61 -32 108t-95.5 73t-152.5 26q-96 0 -172 -43t-119 -120t-43 -173q0 -97 40.5 -173.5t114 -119.5t169.5 -43q92 0 178.5 28.5t157.5 82.5q21 16 39 16q29 0 54 -41q15 -25 15 -48q0 -35 -32 -58
q-80 -60 -189 -94t-223 -34q-143 0 -252.5 63t-169.5 173t-60 248t61 248t170.5 173t250.5 63q89 0 163.5 -32.5t126.5 -92.5v60q0 35 17 50t58 15t58 -15z" />
    <glyph glyph-name="d" unicode="d" 
d="M1011.5 1296.5q14.5 -15.5 14.5 -52.5v-1108h82q34 0 48.5 -15.5t14.5 -52.5t-14.5 -52.5t-48.5 -15.5h-159q-34 0 -48.5 15.5t-14.5 52.5v80q-63 -82 -146 -126t-181 -44q-124 0 -222 58.5t-154 168t-56 257.5t56 257.5t154 168t222 58.5q188 0 317 -165v395h-162
q-34 0 -48.5 15.5t-14.5 52.5t14.5 52.5t48.5 15.5h249q34 0 48.5 -15.5zM416 755.5q-64 -42.5 -97.5 -118.5t-33.5 -175t33.5 -175t97.5 -118.5t153 -42.5t158.5 40t109 116t39.5 180t-39.5 180t-109 116t-158.5 40t-153 -42.5z" />
    <glyph glyph-name="e" unicode="e" 
d="M870.5 887.5q102.5 -58.5 157.5 -162t63 -238.5q0 -34 -14.5 -48t-48.5 -14h-724q7 -149 88.5 -225.5t230.5 -76.5q92 0 182 23.5t158 62.5q17 9 31 9q35 0 57 -53q9 -21 9 -38q0 -40 -44 -62q-77 -39 -182 -63t-211 -24q-151 0 -258 58t-163 167t-56 259q0 143 61 253
t169 170.5t247 60.5q145 0 247.5 -58.5zM419.5 738.5q-80.5 -62.5 -105.5 -173.5h611q-21 115 -96.5 175.5t-205.5 60.5q-123 0 -203.5 -62.5z" />
    <glyph glyph-name="f" unicode="f" 
d="M1066 1266q48 -18 48 -66q0 -11 -3 -26q-14 -57 -50 -57q-11 0 -24 5q-127 49 -237 49q-202 0 -202 -217v-110h346q34 0 48.5 -15.5t14.5 -52.5t-14.5 -52.5t-48.5 -15.5h-346v-572h346q34 0 48.5 -15.5t14.5 -52.5t-14.5 -52.5t-48.5 -15.5h-694q-34 0 -48.5 15.5
t-14.5 52.5t14.5 52.5t48.5 15.5h198v572h-198q-34 0 -48.5 15.5t-14.5 52.5t14.5 52.5t48.5 15.5h198v123q0 165 92.5 257.5t259.5 92.5q134 0 266 -51z" />
    <glyph glyph-name="g" unicode="g" 
d="M740 902q83 -44 146 -126v80q0 37 14.5 52.5t48.5 15.5h159q34 0 48.5 -15.5t14.5 -52.5t-14.5 -52.5t-48.5 -15.5h-82v-818q0 -119 -50.5 -204.5t-146.5 -130.5t-231 -45q-96 0 -194 16.5t-183 47.5q-39 14 -39 53q0 16 8 40q18 55 57 55q11 0 22 -4q78 -28 164 -44
t165 -16q138 0 208 65.5t70 179.5v201q-124 -156 -317 -156q-124 0 -222 55.5t-154 159.5t-56 244t56 244t154 159.5t222 55.5q98 0 181 -44zM416 758.5q-64 -39.5 -97.5 -110t-33.5 -161.5t33.5 -161.5t97.5 -110t153 -39.5t158.5 37t109 107.5t39.5 166.5t-39.5 166.5
t-109 107.5t-158.5 37t-153 -39.5z" />
    <glyph glyph-name="h" unicode="h" 
d="M367.5 1296.5q14.5 -15.5 14.5 -52.5v-498q65 97 150.5 148.5t184.5 51.5q91 0 158 -39.5t103 -113.5t36 -173v-484h82q34 0 48.5 -15.5t14.5 -52.5t-14.5 -52.5t-48.5 -15.5h-324q-34 0 -48.5 15.5t-14.5 52.5t14.5 52.5t48.5 15.5h92v469q0 89 -41 141t-121 52
q-85 0 -158.5 -49t-117.5 -135t-44 -192v-286h92q34 0 48.5 -15.5t14.5 -52.5t-14.5 -52.5t-48.5 -15.5h-324q-34 0 -48.5 15.5t-14.5 52.5t14.5 52.5t48.5 15.5h82v1040h-92q-34 0 -48.5 15.5t-14.5 52.5t14.5 52.5t48.5 15.5h179q34 0 48.5 -15.5z" />
    <glyph glyph-name="i" unicode="i" 
d="M693 1348.5q20 -14.5 20 -50.5v-130q0 -36 -20 -50.5t-75 -14.5t-75 14.5t-20 50.5v130q0 36 20 50.5t75 14.5t75 -14.5zM698.5 908.5q14.5 -15.5 14.5 -52.5v-720h321q34 0 48.5 -15.5t14.5 -52.5t-14.5 -52.5t-48.5 -15.5h-784q-34 0 -48.5 15.5t-14.5 52.5t14.5 52.5
t48.5 15.5h313v652h-253q-34 0 -48.5 15.5t-14.5 52.5t14.5 52.5t48.5 15.5h340q34 0 48.5 -15.5z" />
    <glyph glyph-name="j" unicode="j" 
d="M883 1348.5q20 -14.5 20 -50.5v-130q0 -36 -20 -50.5t-75 -14.5t-75 14.5t-20 50.5v130q0 36 20 50.5t75 14.5t75 -14.5zM888.5 908.5q14.5 -15.5 14.5 -52.5v-913q0 -176 -78.5 -264.5t-248.5 -88.5q-83 0 -179 31.5t-174 80.5q-33 20 -33 52q0 19 13 45q24 46 58 46
q17 0 31 -10q69 -45 143 -72t141 -27q98 0 137.5 53t39.5 167v832h-423q-34 0 -48.5 15.5t-14.5 52.5t14.5 52.5t48.5 15.5h510q34 0 48.5 -15.5z" />
    <glyph glyph-name="k" unicode="k" 
d="M1144.5 120.5q14.5 -15.5 14.5 -52.5t-14.5 -52.5t-48.5 -15.5h-324q-34 0 -48.5 15.5t-14.5 52.5t14.5 52.5t48.5 15.5h72l-251 298l-182 -160v-138h73q34 0 48.5 -15.5t14.5 -52.5t-14.5 -52.5t-48.5 -15.5h-334q-34 0 -48.5 15.5t-14.5 52.5t14.5 52.5t48.5 15.5h111
v1040h-131q-34 0 -48.5 15.5t-14.5 52.5t14.5 52.5t48.5 15.5h218q34 0 48.5 -15.5t14.5 -52.5v-792l381 336h-71q-34 0 -48.5 15.5t-14.5 52.5t14.5 52.5t48.5 15.5h334q34 0 48.5 -15.5t14.5 -52.5t-14.5 -52.5t-48.5 -15.5h-59l-294 -259l336 -393h58q34 0 48.5 -15.5z
" />
    <glyph glyph-name="l" unicode="l" 
d="M688.5 1296.5q14.5 -15.5 14.5 -52.5v-1108h321q34 0 48.5 -15.5t14.5 -52.5t-14.5 -52.5t-48.5 -15.5h-784q-34 0 -48.5 15.5t-14.5 52.5t14.5 52.5t48.5 15.5h313v1040h-273q-34 0 -48.5 15.5t-14.5 52.5t14.5 52.5t48.5 15.5h360q34 0 48.5 -15.5z" />
    <glyph glyph-name="m" unicode="m" 
d="M1239.5 120.5q14.5 -15.5 14.5 -52.5t-14.5 -52.5t-48.5 -15.5h-149q-34 0 -48.5 15.5t-14.5 52.5v592q0 69 -22.5 103.5t-72.5 34.5q-47 0 -87 -43.5t-63.5 -121t-23.5 -176.5v-321h57q34 0 48.5 -15.5t14.5 -52.5t-14.5 -52.5t-48.5 -15.5h-144q-34 0 -48.5 15.5
t-14.5 52.5v592q0 69 -22.5 103.5t-72.5 34.5q-47 0 -87 -43.5t-63.5 -121t-23.5 -176.5v-321h52q34 0 48.5 -15.5t14.5 -52.5t-14.5 -52.5t-48.5 -15.5h-284q-34 0 -48.5 15.5t-14.5 52.5t14.5 52.5t48.5 15.5h82v652h-82q-34 0 -48.5 15.5t-14.5 52.5t14.5 52.5t48.5 15.5
h149q34 0 48.5 -15.5t14.5 -52.5v-99q43 94 103 141.5t130 47.5q68 0 119 -46t69 -135q89 181 230 181q59 0 105.5 -29.5t74 -90t27.5 -148.5v-542h62q34 0 48.5 -15.5z" />
    <glyph glyph-name="n" unicode="n" 
d="M885 906.5q67 -39.5 103 -113.5t36 -173v-484h82q34 0 48.5 -15.5t14.5 -52.5t-14.5 -52.5t-48.5 -15.5h-324q-34 0 -48.5 15.5t-14.5 52.5t14.5 52.5t48.5 15.5h92v469q0 89 -41 141t-121 52q-85 0 -158.5 -49t-117.5 -135t-44 -192v-286h92q34 0 48.5 -15.5t14.5 -52.5
t-14.5 -52.5t-48.5 -15.5h-324q-34 0 -48.5 15.5t-14.5 52.5t14.5 52.5t48.5 15.5h82v652h-102q-34 0 -48.5 15.5t-14.5 52.5t14.5 52.5t48.5 15.5h179q34 0 48.5 -15.5t14.5 -52.5v-120q66 102 154.5 156t190.5 54q91 0 158 -39.5z" />
    <glyph glyph-name="o" unicode="o" 
d="M861 884q110 -62 172.5 -172.5t62.5 -249.5t-62.5 -249.5t-172.5 -172.5t-247 -62t-247 62t-172.5 172.5t-62.5 249.5t62.5 249.5t172.5 172.5t247 62t247 -62zM443.5 755.5q-73.5 -42.5 -113.5 -119t-40 -174.5t40 -174.5t113.5 -119t170.5 -42.5t170.5 42.5t113.5 119
t40 174.5t-40 174.5t-113.5 119t-170.5 42.5t-170.5 -42.5z" />
    <glyph glyph-name="p" unicode="p" 
d="M891 887.5q98 -58.5 154 -168t56 -257.5t-56 -257.5t-154 -168t-222 -58.5q-188 0 -317 165v-395h172q34 0 48.5 -15.5t14.5 -52.5t-14.5 -52.5t-48.5 -15.5h-424q-34 0 -48.5 15.5t-14.5 52.5t14.5 52.5t48.5 15.5h102v1040h-82q-34 0 -48.5 15.5t-14.5 52.5t14.5 52.5
t48.5 15.5h159q34 0 48.5 -15.5t14.5 -52.5v-80q63 82 146 126t181 44q124 0 222 -58.5zM500.5 758q-69.5 -40 -109 -116t-39.5 -180t39.5 -180t109 -116t158.5 -40t153 42.5t97.5 118.5t33.5 175t-33.5 175t-97.5 118.5t-153 42.5t-158.5 -40z" />
    <glyph glyph-name="q" unicode="q" 
d="M740 902q83 -44 146 -126v80q0 37 14.5 52.5t48.5 15.5h159q34 0 48.5 -15.5t14.5 -52.5t-14.5 -52.5t-48.5 -15.5h-82v-1040h102q34 0 48.5 -15.5t14.5 -52.5t-14.5 -52.5t-48.5 -15.5h-424q-34 0 -48.5 15.5t-14.5 52.5t14.5 52.5t48.5 15.5h172v395
q-129 -165 -317 -165q-124 0 -222 58.5t-154 168t-56 257.5t56 257.5t154 168t222 58.5q98 0 181 -44zM416 755.5q-64 -42.5 -97.5 -118.5t-33.5 -175t33.5 -175t97.5 -118.5t153 -42.5t158.5 40t109 116t39.5 180t-39.5 180t-109 116t-158.5 40t-153 -42.5z" />
    <glyph glyph-name="r" unicode="r" 
d="M1066 906q40 -24 40 -62q0 -18 -9 -42q-21 -57 -58 -57q-15 0 -28 8q-49 27 -105 27q-90 0 -181 -62.5t-149.5 -166.5t-58.5 -221v-194h337q34 0 48.5 -15.5t14.5 -52.5t-14.5 -52.5t-48.5 -15.5h-644q-34 0 -48.5 15.5t-14.5 52.5t14.5 52.5t48.5 15.5h157v652h-127
q-34 0 -48.5 15.5t-14.5 52.5t14.5 52.5t48.5 15.5h204q34 0 48.5 -15.5t14.5 -52.5v-202q48 88 116 154t145 102t152 36q78 0 146 -40z" />
    <glyph glyph-name="s" unicode="s" 
d="M987 931q17 -15 17 -50v-190q0 -35 -17 -50t-58 -15q-34 0 -48 26q-43 82 -125 115.5t-208 33.5q-97 0 -151.5 -34.5t-54.5 -96.5q0 -32 20.5 -52t60.5 -33q33 -11 76.5 -17t112.5 -13q97 -11 156.5 -20.5t112.5 -28.5q80 -29 124.5 -84t44.5 -145t-45.5 -157.5
t-133 -104.5t-209.5 -37q-108 0 -190 30t-143 91v-56q0 -35 -17 -50t-58 -15t-58 15t-17 50v240q0 35 17 50t58 15q21 0 33 -9.5t21 -31.5q36 -96 120 -140t224 -44q116 0 178 42t62 112q0 34 -22 56t-63 36q-35 11 -80.5 18.5t-115.5 14.5q-94 10 -157 21t-116 32
q-73 29 -113.5 80.5t-40.5 134.5q0 87 45.5 149.5t126 94.5t182.5 32q97 0 177.5 -29t138.5 -81v45q0 35 17 50t58 15t58 -15z" />
    <glyph glyph-name="t" unicode="t" 
d="M516 1194q17 -15 17 -50v-300h411q34 0 48.5 -15.5t14.5 -52.5t-14.5 -52.5t-48.5 -15.5h-411v-364q0 -114 39.5 -167t137.5 -53q67 0 141 27t143 72q14 10 31 10q34 0 58 -46q13 -26 13 -45q0 -32 -33 -52q-78 -49 -174 -80.5t-179 -31.5q-170 0 -248.5 88.5
t-78.5 264.5v377h-203q-34 0 -48.5 15.5t-14.5 52.5t14.5 52.5t48.5 15.5h203v300q0 35 17 50t58 15t58 -15z" />
    <glyph glyph-name="u" unicode="u" 
d="M984.5 908.5q14.5 -15.5 14.5 -52.5v-720h82q34 0 48.5 -15.5t14.5 -52.5t-14.5 -52.5t-48.5 -15.5h-159q-34 0 -48.5 15t-14.5 52v121q-66 -102 -154.5 -156t-190.5 -54q-91 0 -158 39.5t-103 113.5t-36 173v484h-82q-34 0 -48.5 15.5t-14.5 52.5t14.5 52.5t48.5 15.5
h169q34 0 48.5 -15.5t14.5 -52.5v-537q0 -89 41 -141t121 -52q85 0 158.5 49t117.5 135t44 192v286h-142q-34 0 -48.5 15.5t-14.5 52.5t14.5 52.5t48.5 15.5h229q34 0 48.5 -15.5z" />
    <glyph glyph-name="v" unicode="v" 
d="M1163.5 908.5q14.5 -15.5 14.5 -52.5t-14.5 -52.5t-48.5 -15.5h-63l-323 -745q-14 -34 -41.5 -49.5t-76.5 -15.5q-48 0 -74.5 15.5t-41.5 49.5l-320 745h-62q-34 0 -48.5 15.5t-14.5 52.5t14.5 52.5t48.5 15.5h354q34 0 48.5 -15.5t14.5 -52.5t-14.5 -52.5t-48.5 -15.5
h-128l273 -652l276 652h-87q-34 0 -48.5 15.5t-14.5 52.5t14.5 52.5t48.5 15.5h314q34 0 48.5 -15.5z" />
    <glyph glyph-name="w" unicode="w" 
d="M1223.5 908.5q14.5 -15.5 14.5 -52.5t-14.5 -52.5t-48.5 -15.5h-24l-197 -745q-10 -36 -29.5 -50.5t-57.5 -14.5q-43 0 -67.5 15.5t-36.5 49.5l-153 434l-155 -434q-12 -34 -37.5 -49.5t-68.5 -15.5q-38 0 -57 14.5t-28 50.5l-193 745h-18q-34 0 -48.5 15.5t-14.5 52.5
t14.5 52.5t48.5 15.5h294q34 0 48.5 -15.5t14.5 -52.5t-14.5 -52.5t-48.5 -15.5h-123l144 -582l167 464q7 21 26 34t50 13q63 0 77 -40l166 -471l148 582h-101q-34 0 -48.5 15.5t-14.5 52.5t14.5 52.5t48.5 15.5h274q34 0 48.5 -15.5z" />
    <glyph glyph-name="x" unicode="x" 
d="M1133.5 908.5q14.5 -15.5 14.5 -52.5t-14.5 -52.5t-48.5 -15.5h-65l-297 -313l321 -339h51q34 0 48.5 -15.5t14.5 -52.5t-14.5 -52.5t-48.5 -15.5h-344q-34 0 -48.5 15.5t-14.5 52.5t14.5 52.5t48.5 15.5h96l-240 258l-239 -258h79q34 0 48.5 -15.5t14.5 -52.5
t-14.5 -52.5t-48.5 -15.5h-314q-34 0 -48.5 15.5t-14.5 52.5t14.5 52.5t48.5 15.5h50l325 341l-294 311h-71q-34 0 -48.5 15.5t-14.5 52.5t14.5 52.5t48.5 15.5h344q34 0 48.5 -15.5t14.5 -52.5t-14.5 -52.5t-48.5 -15.5h-76l212 -230l213 230h-55q-34 0 -48.5 15.5
t-14.5 52.5t14.5 52.5t48.5 15.5h304q34 0 48.5 -15.5z" />
    <glyph glyph-name="y" unicode="y" 
d="M1163.5 908.5q14.5 -15.5 14.5 -52.5t-14.5 -52.5t-48.5 -15.5h-62l-409 -838q-65 -133 -127 -209t-139.5 -111.5t-188.5 -39.5q-35 -1 -54 17.5t-19 65.5q0 65 53 68q96 5 152.5 32t104 92.5t116.5 204.5l-366 718h-63q-34 0 -48.5 15.5t-14.5 52.5t14.5 52.5t48.5 15.5
h354q34 0 48.5 -15.5t14.5 -52.5t-14.5 -52.5t-48.5 -15.5h-128l282 -562l269 562h-89q-34 0 -48.5 15.5t-14.5 52.5t14.5 52.5t48.5 15.5h314q34 0 48.5 -15.5z" />
    <glyph glyph-name="z" unicode="z" 
d="M1025.5 908.5q14.5 -15.5 14.5 -52.5q0 -29 -15 -46l-610 -674h485v172q0 35 17 50t58 15t58 -15t17 -50v-240q0 -37 -14.5 -52.5t-48.5 -15.5h-746q-34 0 -48.5 15.5t-14.5 52.5q0 30 14 45l611 675h-455v-149q0 -35 -17 -50t-58 -15t-58 15t-17 50v217q0 37 14.5 52.5
t48.5 15.5h716q34 0 48.5 -15.5z" />
    <glyph glyph-name="braceleft" unicode="{" 
d="M975.5 1355.5q14.5 -16.5 14.5 -55.5t-14.5 -55.5t-48.5 -16.5q-106 0 -166.5 -29t-85 -90.5t-20.5 -161.5l3 -72q5 -120 -50.5 -198.5t-182.5 -130.5v-10q126 -37 182.5 -108.5t56.5 -181.5q0 -22 -1 -33l-8 -121q-1 -13 -1 -38q0 -127 65.5 -185t207.5 -58
q34 0 48.5 -16.5t14.5 -55.5t-14.5 -55.5t-48.5 -16.5q-201 0 -312.5 90t-111.5 270q0 35 2 53l11 123q2 28 2 40q0 113 -67 169.5t-211 56.5q-34 0 -48.5 16.5t-14.5 55.5t14.5 55.5t48.5 16.5q139 0 205 63t66 179q0 20 -1 30l-5 74q-2 30 -2 43q0 185 110.5 277.5
t313.5 92.5q34 0 48.5 -16.5z" />
    <glyph glyph-name="bar" unicode="|" 
d="M672 1379q17 -15 17 -50v-1619q0 -35 -17 -50t-58 -15t-58 15t-17 50v1619q0 35 17 50t58 15t58 -15z" />
    <glyph glyph-name="braceright" unicode="}" 
d="M614.5 1279.5q110.5 -92.5 110.5 -277.5q0 -13 -2 -43l-5 -74q-1 -10 -1 -30q0 -116 66 -179t205 -63q34 0 48.5 -16.5t14.5 -55.5t-14.5 -55.5t-48.5 -16.5q-144 0 -211 -56.5t-67 -169.5q0 -12 2 -40l11 -123q2 -18 2 -53q0 -180 -111.5 -270t-312.5 -90
q-34 0 -48.5 16.5t-14.5 55.5t14.5 55.5t48.5 16.5q142 0 207.5 58t65.5 185q0 25 -1 38l-8 121q-1 11 -1 33q0 110 56.5 181.5t182.5 108.5v10q-127 52 -182.5 130.5t-50.5 198.5l3 72q4 100 -20.5 161.5t-85 90.5t-166.5 29q-34 0 -48.5 16.5t-14.5 55.5t14.5 55.5
t48.5 16.5q203 0 313.5 -92.5z" />
    <glyph glyph-name="asciitilde" unicode="~" 
d="M526.5 714q50.5 -21 114.5 -61q58 -34 94 -50t75 -16q85 0 155 84q16 19 38 19t43 -17q32 -24 32 -52q0 -14 -7 -25q-47 -76 -115 -121.5t-146 -45.5q-58 0 -108 21t-116 61q-56 33 -93 49.5t-75 16.5q-85 0 -155 -84q-16 -19 -38 -19t-43 17q-32 24 -32 52q0 14 7 25
q47 76 115 121.5t146 45.5q58 0 108.5 -21z" />
    <glyph glyph-name="uni007F" 
 />
    <glyph glyph-name="uni00A0" unicode="&#xa0;" 
 />
    <glyph glyph-name="exclamdown" unicode="&#xa1;" 
d="M518.5 668.5q-29.5 14.5 -29.5 48.5v154q0 34 29.5 48.5t95.5 14.5t95.5 -14.5t29.5 -48.5v-154q0 -34 -29.5 -48.5t-95.5 -14.5t-95.5 14.5zM516 -333q-10 12 -8 38l49 707q2 23 16.5 35.5t40.5 12.5t41.5 -12.5t16.5 -35.5l48 -707q2 -26 -8 -38t-33 -12h-130
q-23 0 -33 12z" />
    <glyph glyph-name="cent" unicode="&#xa2;" 
d="M1053 304q0 -35 -32 -58q-66 -50 -154 -82t-183 -42v-182q0 -34 -16.5 -49.5t-53.5 -15.5t-53.5 15.5t-16.5 49.5v182q-126 14 -220.5 79t-145.5 169.5t-51 231.5t52 231t146.5 169.5t218.5 79.5v165q0 34 16.5 49.5t53.5 15.5t53.5 -15.5t16.5 -49.5v-167
q65 -11 120 -41.5t95 -77.5v60q0 35 17 50t58 15t58 -15t17 -50v-290q0 -35 -17 -50t-58 -15t-58 15t-17 50q0 81 -55.5 135.5t-159.5 67.5v-663q72 9 138.5 36t122.5 70q21 16 39 16q29 0 54 -41q15 -25 15 -48zM317 446.5q32 -70.5 90.5 -116t136.5 -58.5v659
q-77 -16 -135.5 -62t-91 -115t-32.5 -152q0 -85 32 -155.5z" />
    <glyph glyph-name="sterling" unicode="&#xa3;" 
d="M790 1181.5q82 -27.5 151 -76.5q21 -15 21 -54v-127q0 -35 -17 -50t-58 -15t-58 15t-17 50v90q-78 47 -195 47q-55 0 -97 -23.5t-64 -64t-22 -89.5q0 -42 14.5 -81t44.5 -97q24 -44 42 -86h310q34 0 48.5 -15.5t14.5 -52.5t-14.5 -52.5t-48.5 -15.5h-278q1 -12 1 -35
q0 -176 -142 -317q70 25 138 25q32 0 59.5 -5t67.5 -14q62 -15 98 -15q74 0 151 56q9 6 19 6q14 0 29 -10t27 -29q16 -23 16 -47q0 -13 -5.5 -24.5t-15.5 -18.5q-58 -43 -108.5 -61.5t-98.5 -18.5q-27 0 -52.5 4.5t-68.5 13.5q-50 11 -83 16t-71 5q-104 0 -221 -49
q-9 -3 -17 -3q-32 0 -61 37q-26 32 -26 61q0 19 12 31q111 101 156.5 179t45.5 164q0 24 -3 49h-141q-34 0 -48.5 15.5t-14.5 52.5t14.5 52.5t48.5 15.5h95l-18 35q-36 73 -54 122t-18 107q0 92 42.5 166t120 116.5t177.5 42.5q90 0 172 -27.5z" />
    <glyph glyph-name="currency" unicode="&#xa4;" 
d="M1094 224q23 -23 23 -44q0 -23 -29 -52t-52 -29q-21 0 -44 23l-143 143q-103 -67 -235 -67t-235 67l-143 -143q-23 -23 -44 -23q-23 0 -52 29t-29 52q0 21 23 44l142 142q-72 102 -72 236t72 236l-142 142q-23 23 -23 44q0 23 29 52t52 29q21 0 44 -23l143 -143
q103 67 235 67t235 -67l143 143q23 23 44 23q23 0 52 -29t29 -52q0 -21 -23 -44l-142 -142q72 -102 72 -236t-72 -236zM385 467q33 -60 92.5 -93.5t136.5 -33.5t136.5 33.5t92.5 93.5t33 135t-33 135t-92.5 93.5t-136.5 33.5t-136.5 -33.5t-92.5 -93.5t-33 -135t33 -135z
" />
    <glyph glyph-name="yen" unicode="&#xa5;" 
d="M1153.5 1171.5q14.5 -15.5 14.5 -52.5t-14.5 -52.5t-48.5 -15.5h-68l-144 -231h122q34 0 48.5 -15.5t14.5 -52.5t-14.5 -52.5t-48.5 -15.5h-207l-108 -174h295q34 0 48.5 -15.5t14.5 -52.5t-14.5 -52.5t-48.5 -15.5h-306v-238h226q34 0 48.5 -15.5t14.5 -52.5
t-14.5 -52.5t-48.5 -15.5h-602q-34 0 -48.5 15.5t-14.5 52.5t14.5 52.5t48.5 15.5h226v238h-306q-34 0 -48.5 15.5t-14.5 52.5t14.5 52.5t48.5 15.5h295l-108 174h-207q-34 0 -48.5 15.5t-14.5 52.5t14.5 52.5t48.5 15.5h123l-143 231h-70q-34 0 -48.5 15.5t-14.5 52.5
t14.5 52.5t48.5 15.5h334q34 0 48.5 -15.5t14.5 -52.5t-14.5 -52.5t-48.5 -15.5h-93l250 -409l252 409h-65q-34 0 -48.5 15.5t-14.5 52.5t14.5 52.5t48.5 15.5h304q34 0 48.5 -15.5z" />
    <glyph glyph-name="brokenbar" unicode="&#xa6;" 
d="M672 1379q17 -15 17 -50v-599q0 -35 -17 -50t-58 -15t-58 15t-17 50v599q0 35 17 50t58 15t58 -15zM672 359q17 -15 17 -50v-599q0 -35 -17 -50t-58 -15t-58 15t-17 50v599q0 35 17 50t58 15t58 -15z" />
    <glyph glyph-name="section" unicode="&#xa7;" 
d="M973.5 1171.5q14.5 -15.5 14.5 -52.5v-197q0 -35 -17 -50t-58 -15t-58 15t-17 50v129h-239q-141 0 -141 -108q0 -52 32.5 -94.5t97.5 -82.5l294 -182q83 -51 125 -112t42 -144q0 -64 -34 -114t-104 -101q17 -49 17 -103q0 -71 -32 -125t-94.5 -84.5t-152.5 -30.5h-346
q-34 0 -48.5 15.5t-14.5 52.5v217q0 35 17 50t58 15t58 -15t17 -50v-149h239q141 0 141 108q0 52 -32.5 94.5t-97.5 82.5l-294 182q-83 51 -125 112t-42 144q0 64 33.5 113.5t104.5 101.5q-17 48 -17 103q0 71 32 125t94.5 84.5t152.5 30.5h346q34 0 48.5 -15.5zM351 677
q-14 -24 -14 -52q0 -40 24 -68.5t76 -61.5l294 -182q57 -35 102 -80q29 23 43.5 47t14.5 52q0 40 -24 68.5t-76 61.5l-294 182q-62 38 -103 79q-29 -22 -43 -46z" />
    <glyph glyph-name="dieresis" unicode="&#xa8;" 
d="M479 1348.5q20 -14.5 20 -50.5v-130q0 -36 -20 -50.5t-75 -14.5t-75 14.5t-20 50.5v130q0 36 20 50.5t75 14.5t75 -14.5zM899 1348.5q20 -14.5 20 -50.5v-130q0 -36 -20 -50.5t-75 -14.5t-75 14.5t-20 50.5v130q0 36 20 50.5t75 14.5t75 -14.5z" />
    <glyph glyph-name="copyright" unicode="&#xa9;" 
d="M912.5 1127.5q131.5 -81.5 205.5 -222.5t74 -311t-74 -311t-206 -223t-298 -82t-298 82t-206 223t-74 311t74 311t205.5 222.5t298.5 81.5t298.5 -81.5zM377 1025q-104 -64 -161.5 -176.5t-57.5 -254.5t57.5 -255t161.5 -177t237 -64t237 64t161.5 177t57.5 255
t-57.5 254.5t-161.5 176.5t-237 64t-237 -64zM720.5 926.5q46.5 -10.5 88.5 -29.5q21 -10 31 -22.5t10 -30.5q0 -16 -7 -33q-16 -40 -44 -40q-12 0 -30 8q-37 17 -69.5 24.5t-70.5 7.5q-79 0 -130 -56.5t-51 -161.5t51 -161.5t130 -56.5q38 0 70.5 7.5t69.5 24.5q18 8 30 8
q28 0 44 -40q7 -17 7 -33q0 -18 -10 -30.5t-31 -22.5q-42 -19 -88.5 -29.5t-91.5 -10.5q-91 0 -162.5 41.5t-111.5 119t-40 183.5t40 183.5t111.5 119t162.5 41.5q45 0 91.5 -10.5z" />
    <glyph glyph-name="ordfeminine" unicode="&#xaa;" 
d="M841.5 1142.5q75.5 -66.5 75.5 -188.5v-297q0 -30 12 -42.5t38 -12.5h17q26 0 37.5 -14.5t11.5 -46.5q0 -31 -11.5 -44.5t-37.5 -13.5h-49q-50 0 -89.5 23.5t-51.5 67.5q-129 -109 -282 -109q-78 0 -139 25.5t-96 75.5t-35 121q0 122 85 181t221 59q132 0 234 -28v51
q0 62 -39 96t-121 34q-58 0 -125 -15t-129 -41q-9 -4 -19 -4q-33 0 -49 45q-7 20 -7 37q0 33 31 46q67 29 145 45t153 16q144 0 219.5 -66.5zM383 690q0 -48 35.5 -74t97.5 -26q147 0 266 117v69q-109 25 -223 25q-176 0 -176 -111z" />
    <glyph glyph-name="guillemotleft" unicode="&#xab;" 
d="M500 946q28 0 60 -28q31 -27 31 -51q0 -16 -14 -32l-246 -271l246 -271q14 -16 14 -32q0 -24 -31 -51q-32 -28 -60 -28q-20 0 -32 15l-306 343q-9 11 -9 24q0 15 9 24l306 343q12 15 32 15zM980 946q28 0 60 -28q31 -27 31 -51q0 -16 -14 -32l-246 -271l246 -271
q14 -16 14 -32q0 -24 -31 -51q-32 -28 -60 -28q-20 0 -32 15l-306 343q-9 11 -9 24q0 15 9 24l306 343q12 15 32 15z" />
    <glyph glyph-name="logicalnot" unicode="&#xac;" 
d="M1063.5 829.5q14.5 -15.5 14.5 -52.5v-394q0 -35 -17 -50t-58 -15t-58 15t-17 50v326h-725q-34 0 -48.5 15.5t-14.5 52.5t14.5 52.5t48.5 15.5h812q34 0 48.5 -15.5z" />
    <glyph glyph-name="uni00AD" unicode="&#xad;" 
d="M993.5 493.5q14.5 -15.5 14.5 -52.5t-14.5 -52.5t-48.5 -15.5h-662q-34 0 -48.5 15.5t-14.5 52.5t14.5 52.5t48.5 15.5h662q34 0 48.5 -15.5z" />
    <glyph glyph-name="registered" unicode="&#xae;" 
d="M863 1266q110 -68 171.5 -185t61.5 -259t-61.5 -259.5t-171.5 -186t-249 -68.5t-249 68.5t-171.5 186t-61.5 259.5t61.5 259t171.5 185t249 68t249 -68zM416.5 1181q-86.5 -53 -134.5 -147t-48 -212q0 -119 48 -213t134.5 -147.5t197.5 -53.5t197.5 53.5t134.5 147.5
t48 213q0 118 -48 212t-134.5 147t-197.5 53t-197.5 -53zM740 1067.5q46 -23.5 70.5 -65.5t24.5 -96q0 -62 -31.5 -105t-89.5 -63l89 -96q22 -24 22 -44q0 -18 -18 -35q-17 -16 -36 -16q-22 0 -39 20l-131 151h-74v-112q0 -29 -12 -41.5t-41 -12.5q-28 0 -39.5 12.5
t-11.5 41.5v432q0 28 13 40.5t41 12.5h156q61 0 107 -23.5zM527 816h88q56 0 84 23.5t28 66.5q0 41 -26.5 64t-78.5 23h-95v-177z" />
    <glyph glyph-name="macron" unicode="&#xaf;" 
d="M923.5 1233.5q14.5 -16.5 14.5 -55.5t-14.5 -55.5t-48.5 -16.5h-522q-34 0 -48.5 16.5t-14.5 55.5t14.5 55.5t48.5 16.5h522q34 0 48.5 -16.5z" />
    <glyph glyph-name="degree" unicode="&#xb0;" 
d="M666.5 1171.5q64.5 -37.5 102 -102t37.5 -140.5t-37.5 -140.5t-102 -102t-140.5 -37.5t-140.5 37.5t-102 102t-37.5 140.5t37.5 140.5t102 102t140.5 37.5t140.5 -37.5zM453.5 1054.5q-33.5 -19.5 -53 -53t-19.5 -72.5t19.5 -72.5t53 -53t72.5 -19.5t72.5 19.5t53 53
t19.5 72.5t-19.5 72.5t-53 53t-72.5 19.5t-72.5 -19.5z" />
    <glyph glyph-name="plusminus" unicode="&#xb1;" 
d="M666.5 1111.5q15.5 -14.5 15.5 -48.5v-253h313q34 0 48.5 -15.5t14.5 -52.5t-14.5 -52.5t-48.5 -15.5h-313v-253q0 -34 -15.5 -48.5t-52.5 -14.5t-52.5 14.5t-15.5 48.5v253h-313q-34 0 -48.5 15.5t-14.5 52.5t14.5 52.5t48.5 15.5h313v253q0 34 15.5 48.5t52.5 14.5
t52.5 -14.5zM1043.5 234.5q14.5 -15.5 14.5 -52.5t-14.5 -52.5t-48.5 -15.5h-762q-34 0 -48.5 15.5t-14.5 52.5t14.5 52.5t48.5 15.5h762q34 0 48.5 -15.5z" />
    <glyph glyph-name="uni00B2" unicode="&#xb2;" 
d="M768.5 1302.5q64.5 -31.5 98.5 -89.5t34 -135t-39.5 -139.5t-123.5 -132.5l-239 -198h322v78q0 26 16 38.5t52 12.5t51.5 -12.5t15.5 -38.5v-150q0 -26 -13 -39.5t-37 -13.5h-571q-47 0 -47 72q0 39 31 65l332 280q57 49 83.5 89t26.5 89q0 58 -40 92.5t-114 34.5
q-42 0 -84.5 -10.5t-76.5 -28.5v-103q0 -26 -16 -38.5t-52 -12.5t-51.5 12.5t-15.5 38.5v147q0 27 21 42q59 39 135 60.5t149 21.5q88 0 152.5 -31.5z" />
    <glyph glyph-name="uni00B3" unicode="&#xb3;" 
d="M761 1304q67 -30 102.5 -84t35.5 -124q0 -121 -112 -181q66 -22 102.5 -72t36.5 -124q0 -119 -81.5 -186.5t-239.5 -67.5q-74 0 -148 16.5t-133 48.5q-22 12 -22 39q0 17 8 38q18 47 49 47q10 0 19 -4q51 -26 108.5 -41t111.5 -15q90 0 139 32.5t49 93.5q0 66 -47.5 93
t-136.5 27h-52q-44 0 -44 62q0 28 10.5 45.5t33.5 17.5h39q84 0 127 29t43 92q0 58 -44 88.5t-122 30.5q-79 0 -147 -29v-63q0 -26 -16 -38.5t-52 -12.5t-51.5 12.5t-15.5 38.5v110q0 29 21 42q57 34 129 51.5t143 17.5q90 0 157 -30z" />
    <glyph glyph-name="acute" unicode="&#xb4;" 
d="M818 1415q34 0 67 -41q30 -39 30 -68q0 -26 -22 -39l-374 -219q-18 -10 -32 -10q-24 0 -46 25q-24 27 -24 52q0 19 16 31l348 256q18 13 37 13z" />
    <glyph glyph-name="uni00B5" unicode="&#xb5;" 
d="M1003.5 919q16.5 -15 16.5 -50v-814q0 -35 -15 -50t-54 -15h-2q-39 0 -54 15t-15 50v143q-63 -98 -153.5 -159t-191.5 -61q-100 0 -167 47v-358q0 -35 -16.5 -50t-57.5 -15h-2q-41 0 -57.5 15t-16.5 50v1202q0 35 16.5 50t57.5 15h2q41 0 57.5 -15t16.5 -50v-550
q0 -90 44.5 -141.5t137.5 -51.5q76 0 150.5 51t122 137.5t47.5 187.5v367q0 35 16.5 50t57.5 15h2q41 0 57.5 -15z" />
    <glyph glyph-name="paragraph" unicode="&#xb6;" 
d="M1102.5 1171.5q14.5 -15.5 14.5 -52.5t-14.5 -52.5t-48.5 -15.5h-68v-1396q0 -35 -17 -50t-58 -15t-58 15t-17 50v1396h-160v-1396q0 -35 -17 -50t-58 -15t-58 15t-17 50v847q-117 4 -206.5 45.5t-139 117.5t-49.5 179q0 106 52.5 183.5t147 118.5t217.5 41h506
q34 0 48.5 -15.5z" />
    <glyph glyph-name="periodcentered" unicode="&#xb7;" 
d="M717.5 720.5q31.5 -14.5 31.5 -48.5v-184q0 -34 -31.5 -48.5t-103.5 -14.5t-103.5 14.5t-31.5 48.5v184q0 34 31.5 48.5t103.5 14.5t103.5 -14.5z" />
    <glyph glyph-name="cedilla" unicode="&#xb8;" 
d="M815 -159q51 -47 51 -122q0 -87 -62 -139t-183 -52q-68 0 -132 12t-115 36q-23 10 -23 35q0 14 8 35q17 45 46 45q8 0 13 -2q43 -16 94.5 -27t98.5 -11q51 0 80 16.5t29 47.5q0 33 -27 49t-89 16l-39 -1q-15 0 -24.5 10.5t-9.5 33.5v205h132v-141q101 1 152 -46z" />
    <glyph glyph-name="uni00B9" unicode="&#xb9;" 
d="M935 593.5q12 -14.5 12 -47.5t-12 -48t-37 -15h-533q-50 0 -50 63q0 33 12.5 47.5t37.5 14.5h204v551l-169 -88q-18 -9 -31 -9q-25 0 -46 34q-15 27 -15 43q0 24 27 37l301 152q16 7 26 7q18 0 30 -11.5t12 -31.5v-684h194q25 0 37 -14.5z" />
    <glyph glyph-name="ordmasculine" unicode="&#xba;" 
d="M807.5 1161q86.5 -48 136 -133t49.5 -191q0 -107 -49.5 -191.5t-136 -132.5t-193.5 -48t-193.5 48t-136 132.5t-49.5 191.5q0 106 49.5 191t136 133t193.5 48t193.5 -48zM489.5 1046q-54.5 -31 -84.5 -85.5t-30 -123.5t30 -124t84.5 -85.5t124.5 -30.5q71 0 125 30.5
t84 85t30 124.5q0 69 -30 123.5t-84 85.5t-125 31q-70 0 -124.5 -31z" />
    <glyph glyph-name="guillemotright" unicode="&#xbb;" 
d="M595 564q0 -13 -9 -24l-306 -343q-12 -15 -32 -15q-28 0 -60 28q-31 27 -31 51q0 16 14 32l246 271l-246 271q-14 16 -14 32q0 24 31 51q32 28 60 28q20 0 32 -15l306 -343q9 -9 9 -24zM1075 564q0 -13 -9 -24l-306 -343q-12 -15 -32 -15q-28 0 -60 28q-31 27 -31 51
q0 16 14 32l246 271l-246 271q-14 16 -14 32q0 24 31 51q32 28 60 28q20 0 32 -15l306 -343q9 -9 9 -24z" />
    <glyph glyph-name="onequarter" unicode="&#xbc;" 
d="M519 695.5q-10 -12.5 -31 -12.5h-445q-42 0 -42 53q0 52 42 52h170v460l-141 -74q-14 -7 -26 -7q-23 0 -38 28q-13 21 -13 36q0 20 23 31l251 127q9 5 22 5q15 0 25 -9t10 -26v-571h162q21 0 31 -12.5t10 -39.5q0 -28 -10 -40.5zM1117 778q0 -19 -14 -27l-918 -561
q-7 -4 -16 -4q-23 0 -44 28q-14 20 -14 38t14 27l918 561q7 4 16 4q23 0 44 -28q14 -18 14 -38zM1223 64q10 -12 10 -40t-10 -40.5t-30 -12.5h-91v-153q0 -20 -13 -30t-43 -10t-43.5 10t-13.5 30v153h-314q-20 0 -32.5 16.5t-12.5 48.5q0 15 3 24.5t11 20.5l317 377
q15 19 30.5 28t36.5 9q29 0 51.5 -13.5t22.5 -33.5v-372h91q20 0 30 -12zM989 76l5 266l-221 -266h216z" />
    <glyph glyph-name="onehalf" unicode="&#xbd;" 
d="M519 695.5q-10 -12.5 -31 -12.5h-445q-42 0 -42 53q0 52 42 52h170v460l-141 -74q-14 -7 -26 -7q-23 0 -38 28q-13 21 -13 36q0 20 23 31l251 127q9 5 22 5q15 0 25 -9t10 -26v-571h162q21 0 31 -12.5t10 -39.5q0 -28 -10 -40.5zM1117 828q0 -19 -14 -27l-918 -561
q-7 -4 -16 -4q-23 0 -44 28q-14 20 -14 38t14 27l918 561q7 4 16 4q23 0 44 -28q14 -18 14 -38zM1214 -14.5q13 -10.5 13 -31.5v-125q0 -45 -41 -45h-477q-40 0 -40 60q0 32 26 55l278 233q48 40 69.5 74t21.5 75q0 49 -33 77.5t-95 28.5q-36 0 -71 -8.5t-64 -23.5v-86
q0 -22 -13 -32.5t-43 -10.5t-43 10.5t-13 32.5v122q0 24 17 35q49 33 112.5 51t124.5 18q111 0 174.5 -58t63.5 -156q0 -64 -33 -117t-103 -110l-199 -165h269v65q0 21 13 31.5t43 10.5t43 -10.5z" />
    <glyph glyph-name="threequarters" unicode="&#xbe;" 
d="M403.5 1370q55.5 -25 85.5 -70.5t30 -103.5q0 -100 -94 -151q55 -19 85.5 -60.5t30.5 -103.5q0 -99 -68 -155.5t-200 -56.5q-61 0 -123 14t-111 41q-19 10 -19 32q0 13 7 32q14 39 41 39q7 0 16 -3q42 -22 90 -34.5t93 -12.5q75 0 116 27.5t41 77.5q0 55 -39.5 77.5
t-113.5 22.5h-44q-36 0 -36 52q0 24 9 38.5t27 14.5h33q70 0 106 24t36 77q0 49 -37 74t-102 25q-67 0 -123 -24v-53q0 -21 -13 -31.5t-43 -10.5t-43 10.5t-13 31.5v92q0 26 17 35q48 29 108 43.5t119 14.5q76 0 131.5 -25zM1059 854q23 0 44 -28q14 -18 14 -38
q0 -19 -14 -27l-918 -561q-7 -4 -16 -4q-23 0 -44 28q-14 20 -14 38t14 27l918 561q7 4 16 4zM1079.5 481.5q22.5 -13.5 22.5 -33.5v-372h91q20 0 30 -12t10 -40t-10 -40.5t-30 -12.5h-91v-153q0 -20 -13 -30t-43 -10t-43.5 10t-13.5 30v153h-314q-20 0 -32.5 16.5
t-12.5 48.5q0 15 3 24.5t11 20.5l317 377q15 19 30.5 28t36.5 9q29 0 51.5 -13.5zM773 76h216l5 266z" />
    <glyph glyph-name="questiondown" unicode="&#xbf;" 
d="M566 708.5q-27 14.5 -27 48.5v114q0 34 27 48.5t88 14.5t88 -14.5t27 -48.5v-114q0 -34 -27 -48.5t-88 -14.5t-88 14.5zM423.5 -305.5q-78.5 39.5 -120 110t-41.5 163.5q0 86 34.5 147.5t102 107t176.5 90.5l13 144q5 48 66 48q63 0 66 -48l13 -198q2 -20 -5.5 -32
t-24.5 -19l-69 -28q-80 -33 -126.5 -62t-69 -65t-22.5 -85q0 -75 50.5 -120t142.5 -45q127 0 215 37v89q0 35 17 50t58 15t58 -15t17 -50v-127q0 -21 -6 -34.5t-19 -21.5q-151 -91 -339 -91q-108 0 -186.5 39.5z" />
    <glyph glyph-name="Agrave" unicode="&#xc0;" 
d="M704.5 1171.5q24.5 -15.5 36.5 -49.5l353 -986h61q34 0 48.5 -15.5t14.5 -52.5t-14.5 -52.5t-48.5 -15.5h-354q-34 0 -48.5 15.5t-14.5 52.5t14.5 52.5t48.5 15.5h135l-82 238h-485l-83 -238h121q34 0 48.5 -15.5t14.5 -52.5t-14.5 -52.5t-48.5 -15.5h-334
q-34 0 -48.5 15.5t-14.5 52.5t14.5 52.5t48.5 15.5h56l331 915h-187q-34 0 -48.5 15.5t-14.5 52.5t14.5 52.5t48.5 15.5h367q40 0 64.5 -15.5zM603 1051l-187 -541h392l-186 541h-19zM773 1385q0 -25 -24 -52q-22 -25 -46 -25q-14 0 -32 10l-374 219q-22 13 -22 39
q0 29 30 68q33 41 67 41q19 0 37 -13l348 -256q16 -12 16 -31z" />
    <glyph glyph-name="Aacute" unicode="&#xc1;" 
d="M704.5 1171.5q24.5 -15.5 36.5 -49.5l353 -986h61q34 0 48.5 -15.5t14.5 -52.5t-14.5 -52.5t-48.5 -15.5h-354q-34 0 -48.5 15.5t-14.5 52.5t14.5 52.5t48.5 15.5h135l-82 238h-485l-83 -238h121q34 0 48.5 -15.5t14.5 -52.5t-14.5 -52.5t-48.5 -15.5h-334
q-34 0 -48.5 15.5t-14.5 52.5t14.5 52.5t48.5 15.5h56l331 915h-187q-34 0 -48.5 15.5t-14.5 52.5t14.5 52.5t48.5 15.5h367q40 0 64.5 -15.5zM603 1051l-187 -541h392l-186 541h-19zM756 1685q34 0 67 -41q30 -39 30 -68q0 -26 -22 -39l-374 -219q-18 -10 -32 -10
q-24 0 -46 25q-24 27 -24 52q0 19 16 31l348 256q18 13 37 13z" />
    <glyph glyph-name="Acircumflex" unicode="&#xc2;" 
d="M652 1646l245 -233q16 -15 16 -33q0 -21 -23 -47q-21 -24 -44 -24q-16 0 -31 12l-221 173l-221 -173q-15 -12 -31 -12q-23 0 -44 24q-23 26 -23 47q0 18 16 33l245 233q22 20 58 20t58 -20zM704.5 1171.5q24.5 -15.5 36.5 -49.5l353 -986h61q34 0 48.5 -15.5t14.5 -52.5
t-14.5 -52.5t-48.5 -15.5h-354q-34 0 -48.5 15.5t-14.5 52.5t14.5 52.5t48.5 15.5h135l-82 238h-485l-83 -238h121q34 0 48.5 -15.5t14.5 -52.5t-14.5 -52.5t-48.5 -15.5h-334q-34 0 -48.5 15.5t-14.5 52.5t14.5 52.5t48.5 15.5h56l331 915h-187q-34 0 -48.5 15.5
t-14.5 52.5t14.5 52.5t48.5 15.5h367q40 0 64.5 -15.5zM603 1051l-187 -541h392l-186 541h-19z" />
    <glyph glyph-name="Atilde" unicode="&#xc3;" 
d="M517.5 1575.5q28.5 -9.5 68.5 -27.5q35 -17 59 -25t50 -8q32 0 62.5 17t63.5 51q12 12 29 12q25 0 47 -25q21 -22 21 -45q0 -19 -14 -36q-48 -62 -102.5 -92.5t-107.5 -30.5q-35 0 -63.5 9.5t-68.5 27.5q-35 17 -59 25t-50 8q-32 0 -62.5 -17t-63.5 -51q-12 -12 -29 -12
q-25 0 -47 25q-21 22 -21 45q0 19 14 36q48 62 102.5 92.5t107.5 30.5q35 0 63.5 -9.5zM704.5 1171.5q24.5 -15.5 36.5 -49.5l353 -986h61q34 0 48.5 -15.5t14.5 -52.5t-14.5 -52.5t-48.5 -15.5h-354q-34 0 -48.5 15.5t-14.5 52.5t14.5 52.5t48.5 15.5h135l-82 238h-485
l-83 -238h121q34 0 48.5 -15.5t14.5 -52.5t-14.5 -52.5t-48.5 -15.5h-334q-34 0 -48.5 15.5t-14.5 52.5t14.5 52.5t48.5 15.5h56l331 915h-187q-34 0 -48.5 15.5t-14.5 52.5t14.5 52.5t48.5 15.5h367q40 0 64.5 -15.5zM603 1051l-187 -541h392l-186 541h-19z" />
    <glyph glyph-name="Adieresis" unicode="&#xc4;" 
d="M704.5 1171.5q24.5 -15.5 36.5 -49.5l353 -986h61q34 0 48.5 -15.5t14.5 -52.5t-14.5 -52.5t-48.5 -15.5h-354q-34 0 -48.5 15.5t-14.5 52.5t14.5 52.5t48.5 15.5h135l-82 238h-485l-83 -238h121q34 0 48.5 -15.5t14.5 -52.5t-14.5 -52.5t-48.5 -15.5h-334
q-34 0 -48.5 15.5t-14.5 52.5t14.5 52.5t48.5 15.5h56l331 915h-187q-34 0 -48.5 15.5t-14.5 52.5t14.5 52.5t48.5 15.5h367q40 0 64.5 -15.5zM603 1051l-187 -541h392l-186 541h-19zM459 1618.5q20 -14.5 20 -50.5v-130q0 -36 -20 -50.5t-75 -14.5t-75 14.5t-20 50.5v130
q0 36 20 50.5t75 14.5t75 -14.5zM879 1618.5q20 -14.5 20 -50.5v-130q0 -36 -20 -50.5t-75 -14.5t-75 14.5t-20 50.5v130q0 36 20 50.5t75 14.5t75 -14.5z" />
    <glyph glyph-name="Aring" unicode="&#xc5;" 
d="M699.5 1795q56.5 -32 88.5 -88.5t32 -125.5t-32 -125.5t-88.5 -88.5t-125.5 -32t-125.5 32t-88.5 88.5t-32 125.5t32 125.5t88.5 88.5t125.5 32t125.5 -32zM491 1664q-31 -31 -31 -83t31 -83t83 -31t83 31t31 83t-31 83t-83 31t-83 -31zM704.5 1171.5
q24.5 -15.5 36.5 -49.5l353 -986h61q34 0 48.5 -15.5t14.5 -52.5t-14.5 -52.5t-48.5 -15.5h-354q-34 0 -48.5 15.5t-14.5 52.5t14.5 52.5t48.5 15.5h135l-82 238h-485l-83 -238h121q34 0 48.5 -15.5t14.5 -52.5t-14.5 -52.5t-48.5 -15.5h-334q-34 0 -48.5 15.5t-14.5 52.5
t14.5 52.5t48.5 15.5h56l331 915h-187q-34 0 -48.5 15.5t-14.5 52.5t14.5 52.5t48.5 15.5h367q40 0 64.5 -15.5zM603 1051l-187 -541h392l-186 541h-19z" />
    <glyph glyph-name="AE" unicode="&#xc6;" 
d="M1111.5 1171.5q14.5 -15.5 14.5 -52.5v-254q0 -35 -17 -50t-58 -15t-58 15t-17 50v186h-260v-366h192q34 0 48.5 -15.5t14.5 -52.5t-14.5 -52.5t-48.5 -15.5h-192v-413h272v229q0 35 17 50t58 15t58 -15t17 -50v-297q0 -37 -14.5 -52.5t-48.5 -15.5h-446
q-34 0 -48.5 15.5t-14.5 52.5v306h-225l-72 -238h88q34 0 48.5 -15.5t14.5 -52.5t-14.5 -52.5t-48.5 -15.5h-294q-34 0 -48.5 15.5t-14.5 52.5t14.5 52.5t48.5 15.5h50l280 915h-99q-34 0 -48.5 15.5t-14.5 52.5t14.5 52.5t48.5 15.5h769q34 0 48.5 -15.5zM546 1051
l-164 -541h184v541h-20z" />
    <glyph glyph-name="Ccedilla" unicode="&#xc7;" 
d="M1093 161q0 -30 -31 -52q-162 -113 -369 -129v-93q101 1 152 -46t51 -122q0 -87 -62 -139t-183 -52q-68 0 -132 12t-115 36q-23 10 -23 35q0 14 8 35q17 45 46 45q8 0 13 -2q43 -16 94.5 -27t98.5 -11q51 0 80 16.5t29 47.5q0 33 -27 49t-89 16l-39 -1q-15 0 -24.5 10.5
t-9.5 33.5v160q-135 17 -235 97t-154 212t-54 301q0 183 65 322.5t182.5 216.5t268.5 77q94 0 167 -32t123 -91v58q0 35 17 50t58 15t58 -15t17 -50v-330q0 -35 -17 -50t-58 -15t-58 15t-17 50q0 68 -30.5 124t-93.5 89.5t-156 33.5q-108 0 -191.5 -57t-130 -163t-46.5 -248
t44 -247.5t125 -162.5t189 -57q99 0 189 29t162 84q17 14 37 14q30 0 53 -39q18 -30 18 -53z" />
    <glyph glyph-name="Egrave" unicode="&#xc8;" 
d="M1083 415q17 -15 17 -50v-297q0 -37 -14.5 -52.5t-48.5 -15.5h-894q-34 0 -48.5 15.5t-14.5 52.5t14.5 52.5t48.5 15.5h102v915h-102q-34 0 -48.5 15.5t-14.5 52.5t14.5 52.5t48.5 15.5h874q34 0 48.5 -15.5t14.5 -52.5v-254q0 -35 -17 -50t-58 -15t-58 15t-17 50v186
h-535v-371h258v91q0 35 15.5 50t55.5 15t55.5 -15t15.5 -50v-318q0 -35 -15.5 -50t-55.5 -15t-55.5 15t-15.5 50v91h-258v-408h555v229q0 35 17 50t58 15t58 -15zM843 1385q0 -25 -24 -52q-22 -25 -46 -25q-14 0 -32 10l-374 219q-22 13 -22 39q0 29 30 68q33 41 67 41
q19 0 37 -13l348 -256q16 -12 16 -31z" />
    <glyph glyph-name="Eacute" unicode="&#xc9;" 
d="M1083 415q17 -15 17 -50v-297q0 -37 -14.5 -52.5t-48.5 -15.5h-894q-34 0 -48.5 15.5t-14.5 52.5t14.5 52.5t48.5 15.5h102v915h-102q-34 0 -48.5 15.5t-14.5 52.5t14.5 52.5t48.5 15.5h874q34 0 48.5 -15.5t14.5 -52.5v-254q0 -35 -17 -50t-58 -15t-58 15t-17 50v186
h-535v-371h258v91q0 35 15.5 50t55.5 15t55.5 -15t15.5 -50v-318q0 -35 -15.5 -50t-55.5 -15t-55.5 15t-15.5 50v91h-258v-408h555v229q0 35 17 50t58 15t58 -15zM786 1685q34 0 67 -41q30 -39 30 -68q0 -26 -22 -39l-374 -219q-18 -10 -32 -10q-24 0 -46 25q-24 27 -24 52
q0 19 16 31l348 256q18 13 37 13z" />
    <glyph glyph-name="Ecircumflex" unicode="&#xca;" 
d="M702 1646l245 -233q16 -15 16 -33q0 -21 -23 -47q-21 -24 -44 -24q-16 0 -31 12l-221 173l-221 -173q-15 -12 -31 -12q-23 0 -44 24q-23 26 -23 47q0 18 16 33l245 233q22 20 58 20t58 -20zM1083 415q17 -15 17 -50v-297q0 -37 -14.5 -52.5t-48.5 -15.5h-894
q-34 0 -48.5 15.5t-14.5 52.5t14.5 52.5t48.5 15.5h102v915h-102q-34 0 -48.5 15.5t-14.5 52.5t14.5 52.5t48.5 15.5h874q34 0 48.5 -15.5t14.5 -52.5v-254q0 -35 -17 -50t-58 -15t-58 15t-17 50v186h-535v-371h258v91q0 35 15.5 50t55.5 15t55.5 -15t15.5 -50v-318
q0 -35 -15.5 -50t-55.5 -15t-55.5 15t-15.5 50v91h-258v-408h555v229q0 35 17 50t58 15t58 -15z" />
    <glyph glyph-name="Edieresis" unicode="&#xcb;" 
d="M1083 415q17 -15 17 -50v-297q0 -37 -14.5 -52.5t-48.5 -15.5h-894q-34 0 -48.5 15.5t-14.5 52.5t14.5 52.5t48.5 15.5h102v915h-102q-34 0 -48.5 15.5t-14.5 52.5t14.5 52.5t48.5 15.5h874q34 0 48.5 -15.5t14.5 -52.5v-254q0 -35 -17 -50t-58 -15t-58 15t-17 50v186
h-535v-371h258v91q0 35 15.5 50t55.5 15t55.5 -15t15.5 -50v-318q0 -35 -15.5 -50t-55.5 -15t-55.5 15t-15.5 50v91h-258v-408h555v229q0 35 17 50t58 15t58 -15zM509 1618.5q20 -14.5 20 -50.5v-130q0 -36 -20 -50.5t-75 -14.5t-75 14.5t-20 50.5v130q0 36 20 50.5t75 14.5
t75 -14.5zM929 1618.5q20 -14.5 20 -50.5v-130q0 -36 -20 -50.5t-75 -14.5t-75 14.5t-20 50.5v130q0 36 20 50.5t75 14.5t75 -14.5z" />
    <glyph glyph-name="Igrave" unicode="&#xcc;" 
d="M993.5 1171.5q14.5 -15.5 14.5 -52.5t-14.5 -52.5t-48.5 -15.5h-256v-915h276q34 0 48.5 -15.5t14.5 -52.5t-14.5 -52.5t-48.5 -15.5h-702q-34 0 -48.5 15.5t-14.5 52.5t14.5 52.5t48.5 15.5h276v915h-256q-34 0 -48.5 15.5t-14.5 52.5t14.5 52.5t48.5 15.5h662
q34 0 48.5 -15.5zM811 1385q0 -25 -24 -52q-22 -25 -46 -25q-14 0 -32 10l-374 219q-22 13 -22 39q0 29 30 68q33 41 67 41q19 0 37 -13l348 -256q16 -12 16 -31z" />
    <glyph glyph-name="Iacute" unicode="&#xcd;" 
d="M993.5 1171.5q14.5 -15.5 14.5 -52.5t-14.5 -52.5t-48.5 -15.5h-256v-915h276q34 0 48.5 -15.5t14.5 -52.5t-14.5 -52.5t-48.5 -15.5h-702q-34 0 -48.5 15.5t-14.5 52.5t14.5 52.5t48.5 15.5h276v915h-256q-34 0 -48.5 15.5t-14.5 52.5t14.5 52.5t48.5 15.5h662
q34 0 48.5 -15.5zM818 1685q34 0 67 -41q30 -39 30 -68q0 -26 -22 -39l-374 -219q-18 -10 -32 -10q-24 0 -46 25q-24 27 -24 52q0 19 16 31l348 256q18 13 37 13z" />
    <glyph glyph-name="Icircumflex" unicode="&#xce;" 
d="M672 1646l245 -233q16 -15 16 -33q0 -21 -23 -47q-21 -24 -44 -24q-16 0 -31 12l-221 173l-221 -173q-15 -12 -31 -12q-23 0 -44 24q-23 26 -23 47q0 18 16 33l245 233q22 20 58 20t58 -20zM993.5 1171.5q14.5 -15.5 14.5 -52.5t-14.5 -52.5t-48.5 -15.5h-256v-915h276
q34 0 48.5 -15.5t14.5 -52.5t-14.5 -52.5t-48.5 -15.5h-702q-34 0 -48.5 15.5t-14.5 52.5t14.5 52.5t48.5 15.5h276v915h-256q-34 0 -48.5 15.5t-14.5 52.5t14.5 52.5t48.5 15.5h662q34 0 48.5 -15.5z" />
    <glyph glyph-name="Idieresis" unicode="&#xcf;" 
d="M993.5 1171.5q14.5 -15.5 14.5 -52.5t-14.5 -52.5t-48.5 -15.5h-256v-915h276q34 0 48.5 -15.5t14.5 -52.5t-14.5 -52.5t-48.5 -15.5h-702q-34 0 -48.5 15.5t-14.5 52.5t14.5 52.5t48.5 15.5h276v915h-256q-34 0 -48.5 15.5t-14.5 52.5t14.5 52.5t48.5 15.5h662
q34 0 48.5 -15.5zM479 1618.5q20 -14.5 20 -50.5v-130q0 -36 -20 -50.5t-75 -14.5t-75 14.5t-20 50.5v130q0 36 20 50.5t75 14.5t75 -14.5zM899 1618.5q20 -14.5 20 -50.5v-130q0 -36 -20 -50.5t-75 -14.5t-75 14.5t-20 50.5v130q0 36 20 50.5t75 14.5t75 -14.5z" />
    <glyph glyph-name="Eth" unicode="&#xd0;" 
d="M890 1115.5q119 -71.5 184.5 -206t65.5 -316.5t-65.5 -316t-184.5 -205.5t-276 -71.5h-471q-34 0 -48.5 15.5t-14.5 52.5t14.5 52.5t48.5 15.5h112v408h-142q-34 0 -48.5 15.5t-14.5 52.5t14.5 52.5t48.5 15.5h142v371h-112q-34 0 -48.5 15.5t-14.5 52.5t14.5 52.5
t48.5 15.5h471q157 0 276 -71.5zM798 188.5q88 52.5 136 155t48 249.5t-48 249.5t-136 155.5t-207 53h-186v-371h190q34 0 48.5 -15.5t14.5 -52.5t-14.5 -52.5t-48.5 -15.5h-190v-408h186q119 0 207 52.5z" />
    <glyph glyph-name="Ntilde" unicode="&#xd1;" 
d="M557.5 1575.5q28.5 -9.5 68.5 -27.5q35 -17 59 -25t50 -8q32 0 62.5 17t63.5 51q12 12 29 12q25 0 47 -25q21 -22 21 -45q0 -19 -14 -36q-48 -62 -102.5 -92.5t-107.5 -30.5q-35 0 -63.5 9.5t-68.5 27.5q-35 17 -59 25t-50 8q-32 0 -62.5 -17t-63.5 -51q-12 -12 -29 -12
q-25 0 -47 25q-21 22 -21 45q0 19 14 36q48 62 102.5 92.5t107.5 30.5q35 0 63.5 -9.5zM1143.5 1171.5q14.5 -15.5 14.5 -52.5t-14.5 -52.5t-48.5 -15.5h-57v-1014q0 -27 -18.5 -43t-56.5 -16q-53 0 -84 55l-519 927h-4v-824h141q34 0 48.5 -15.5t14.5 -52.5t-14.5 -52.5
t-48.5 -15.5h-354q-34 0 -48.5 15.5t-14.5 52.5t14.5 52.5t48.5 15.5h67v915h-77q-34 0 -48.5 15.5t-14.5 52.5t14.5 52.5t48.5 15.5h224q22 0 35.5 -7t21.5 -21l474 -848h4v740h-121q-34 0 -48.5 15.5t-14.5 52.5t14.5 52.5t48.5 15.5h324q34 0 48.5 -15.5z" />
    <glyph glyph-name="Ograve" unicode="&#xd2;" 
d="M889.5 1132q119.5 -77 185 -216.5t65.5 -322.5t-65.5 -322.5t-185 -216t-275.5 -76.5t-275.5 76.5t-185 216t-65.5 322.5t65.5 322.5t185 216.5t275.5 77t275.5 -77zM420.5 1004q-83.5 -57 -129 -163t-45.5 -248t45.5 -247.5t129 -162.5t193.5 -57t193.5 57t129 162.5
t45.5 247.5t-45.5 248t-129 163t-193.5 57t-193.5 -57zM833 1385q0 -25 -24 -52q-22 -25 -46 -25q-14 0 -32 10l-374 219q-22 13 -22 39q0 29 30 68q33 41 67 41q19 0 37 -13l348 -256q16 -12 16 -31z" />
    <glyph glyph-name="Oacute" unicode="&#xd3;" 
d="M889.5 1132q119.5 -77 185 -216.5t65.5 -322.5t-65.5 -322.5t-185 -216t-275.5 -76.5t-275.5 76.5t-185 216t-65.5 322.5t65.5 322.5t185 216.5t275.5 77t275.5 -77zM420.5 1004q-83.5 -57 -129 -163t-45.5 -248t45.5 -247.5t129 -162.5t193.5 -57t193.5 57t129 162.5
t45.5 247.5t-45.5 248t-129 163t-193.5 57t-193.5 -57zM796 1685q34 0 67 -41q30 -39 30 -68q0 -26 -22 -39l-374 -219q-18 -10 -32 -10q-24 0 -46 25q-24 27 -24 52q0 19 16 31l348 256q18 13 37 13z" />
    <glyph glyph-name="Ocircumflex" unicode="&#xd4;" 
d="M672 1646l245 -233q16 -15 16 -33q0 -21 -23 -47q-21 -24 -44 -24q-16 0 -31 12l-221 173l-221 -173q-15 -12 -31 -12q-23 0 -44 24q-23 26 -23 47q0 18 16 33l245 233q22 20 58 20t58 -20zM889.5 1132q119.5 -77 185 -216.5t65.5 -322.5t-65.5 -322.5t-185 -216
t-275.5 -76.5t-275.5 76.5t-185 216t-65.5 322.5t65.5 322.5t185 216.5t275.5 77t275.5 -77zM420.5 1004q-83.5 -57 -129 -163t-45.5 -248t45.5 -247.5t129 -162.5t193.5 -57t193.5 57t129 162.5t45.5 247.5t-45.5 248t-129 163t-193.5 57t-193.5 -57z" />
    <glyph glyph-name="Otilde" unicode="&#xd5;" 
d="M557.5 1575.5q28.5 -9.5 68.5 -27.5q35 -17 59 -25t50 -8q32 0 62.5 17t63.5 51q12 12 29 12q25 0 47 -25q21 -22 21 -45q0 -19 -14 -36q-48 -62 -102.5 -92.5t-107.5 -30.5q-35 0 -63.5 9.5t-68.5 27.5q-35 17 -59 25t-50 8q-32 0 -62.5 -17t-63.5 -51q-12 -12 -29 -12
q-25 0 -47 25q-21 22 -21 45q0 19 14 36q48 62 102.5 92.5t107.5 30.5q35 0 63.5 -9.5zM889.5 1132q119.5 -77 185 -216.5t65.5 -322.5t-65.5 -322.5t-185 -216t-275.5 -76.5t-275.5 76.5t-185 216t-65.5 322.5t65.5 322.5t185 216.5t275.5 77t275.5 -77zM420.5 1004
q-83.5 -57 -129 -163t-45.5 -248t45.5 -247.5t129 -162.5t193.5 -57t193.5 57t129 162.5t45.5 247.5t-45.5 248t-129 163t-193.5 57t-193.5 -57z" />
    <glyph glyph-name="Odieresis" unicode="&#xd6;" 
d="M889.5 1132q119.5 -77 185 -216.5t65.5 -322.5t-65.5 -322.5t-185 -216t-275.5 -76.5t-275.5 76.5t-185 216t-65.5 322.5t65.5 322.5t185 216.5t275.5 77t275.5 -77zM420.5 1004q-83.5 -57 -129 -163t-45.5 -248t45.5 -247.5t129 -162.5t193.5 -57t193.5 57t129 162.5
t45.5 247.5t-45.5 248t-129 163t-193.5 57t-193.5 -57zM479 1618.5q20 -14.5 20 -50.5v-130q0 -36 -20 -50.5t-75 -14.5t-75 14.5t-20 50.5v130q0 36 20 50.5t75 14.5t75 -14.5zM899 1618.5q20 -14.5 20 -50.5v-130q0 -36 -20 -50.5t-75 -14.5t-75 14.5t-20 50.5v130
q0 36 20 50.5t75 14.5t75 -14.5z" />
    <glyph glyph-name="multiply" unicode="&#xd7;" 
d="M919 963q22 0 49 -27t27 -49q0 -20 -24 -44l-261 -261l261 -261q24 -24 24 -44q0 -22 -27 -49t-49 -27q-20 0 -44 24l-261 261l-261 -261q-24 -24 -44 -24q-22 0 -49 27t-27 49q0 20 24 44l261 261l-261 261q-24 24 -24 44q0 22 27 49t49 27q20 0 44 -24l261 -261
l261 261q24 24 44 24z" />
    <glyph glyph-name="Oslash" unicode="&#xd8;" 
d="M1106 1200q0 -18 -15 -41l-89 -128q67 -81 102.5 -192.5t35.5 -245.5q0 -183 -65.5 -322.5t-185 -216t-275.5 -76.5q-162 0 -285 83l-77 -111q-23 -32 -47 -32q-18 0 -47 19q-37 25 -37 52q0 17 16 41l88 126q-66 81 -101.5 192.5t-35.5 244.5q0 183 65.5 322.5
t185 216.5t275.5 77q162 0 284 -82l78 112q23 32 48 32q19 0 47 -19q35 -25 35 -52zM420.5 1004q-83.5 -57 -129 -163t-45.5 -248q0 -181 73 -301l492 710q-85 59 -197 59q-110 0 -193.5 -57zM614 126q110 0 193.5 57t129 162.5t45.5 247.5q0 183 -74 303l-492 -710
q85 -60 198 -60z" />
    <glyph glyph-name="Ugrave" unicode="&#xd9;" 
d="M1143.5 1171.5q14.5 -15.5 14.5 -52.5t-14.5 -52.5t-48.5 -15.5h-62v-658q0 -209 -109.5 -312t-309.5 -103t-309.5 103t-109.5 312v658h-62q-34 0 -48.5 15.5t-14.5 52.5t14.5 52.5t48.5 15.5h324q34 0 48.5 -15.5t14.5 -52.5t-14.5 -52.5t-48.5 -15.5h-112v-638
q0 -153 65 -220t204 -67t204 67t65 220v638h-112q-34 0 -48.5 15.5t-14.5 52.5t14.5 52.5t48.5 15.5h324q34 0 48.5 -15.5zM811 1385q0 -25 -24 -52q-22 -25 -46 -25q-14 0 -32 10l-374 219q-22 13 -22 39q0 29 30 68q33 41 67 41q19 0 37 -13l348 -256q16 -12 16 -31z" />
    <glyph glyph-name="Uacute" unicode="&#xda;" 
d="M1143.5 1171.5q14.5 -15.5 14.5 -52.5t-14.5 -52.5t-48.5 -15.5h-62v-658q0 -209 -109.5 -312t-309.5 -103t-309.5 103t-109.5 312v658h-62q-34 0 -48.5 15.5t-14.5 52.5t14.5 52.5t48.5 15.5h324q34 0 48.5 -15.5t14.5 -52.5t-14.5 -52.5t-48.5 -15.5h-112v-638
q0 -153 65 -220t204 -67t204 67t65 220v638h-112q-34 0 -48.5 15.5t-14.5 52.5t14.5 52.5t48.5 15.5h324q34 0 48.5 -15.5zM818 1685q34 0 67 -41q30 -39 30 -68q0 -26 -22 -39l-374 -219q-18 -10 -32 -10q-24 0 -46 25q-24 27 -24 52q0 19 16 31l348 256q18 13 37 13z" />
    <glyph glyph-name="Ucircumflex" unicode="&#xdb;" 
d="M672 1646l245 -233q16 -15 16 -33q0 -21 -23 -47q-21 -24 -44 -24q-16 0 -31 12l-221 173l-221 -173q-15 -12 -31 -12q-23 0 -44 24q-23 26 -23 47q0 18 16 33l245 233q22 20 58 20t58 -20zM1143.5 1171.5q14.5 -15.5 14.5 -52.5t-14.5 -52.5t-48.5 -15.5h-62v-658
q0 -209 -109.5 -312t-309.5 -103t-309.5 103t-109.5 312v658h-62q-34 0 -48.5 15.5t-14.5 52.5t14.5 52.5t48.5 15.5h324q34 0 48.5 -15.5t14.5 -52.5t-14.5 -52.5t-48.5 -15.5h-112v-638q0 -153 65 -220t204 -67t204 67t65 220v638h-112q-34 0 -48.5 15.5t-14.5 52.5
t14.5 52.5t48.5 15.5h324q34 0 48.5 -15.5z" />
    <glyph glyph-name="Udieresis" unicode="&#xdc;" 
d="M1143.5 1171.5q14.5 -15.5 14.5 -52.5t-14.5 -52.5t-48.5 -15.5h-62v-658q0 -209 -109.5 -312t-309.5 -103t-309.5 103t-109.5 312v658h-62q-34 0 -48.5 15.5t-14.5 52.5t14.5 52.5t48.5 15.5h324q34 0 48.5 -15.5t14.5 -52.5t-14.5 -52.5t-48.5 -15.5h-112v-638
q0 -153 65 -220t204 -67t204 67t65 220v638h-112q-34 0 -48.5 15.5t-14.5 52.5t14.5 52.5t48.5 15.5h324q34 0 48.5 -15.5zM479 1618.5q20 -14.5 20 -50.5v-130q0 -36 -20 -50.5t-75 -14.5t-75 14.5t-20 50.5v130q0 36 20 50.5t75 14.5t75 -14.5zM899 1618.5
q20 -14.5 20 -50.5v-130q0 -36 -20 -50.5t-75 -14.5t-75 14.5t-20 50.5v130q0 36 20 50.5t75 14.5t75 -14.5z" />
    <glyph glyph-name="Yacute" unicode="&#xdd;" 
d="M828 1685q34 0 67 -41q30 -39 30 -68q0 -26 -22 -39l-374 -219q-18 -10 -32 -10q-24 0 -46 25q-24 27 -24 52q0 19 16 31l348 256q18 13 37 13zM1153.5 1171.5q14.5 -15.5 14.5 -52.5t-14.5 -52.5t-48.5 -15.5h-68l-348 -559v-356h226q34 0 48.5 -15.5t14.5 -52.5
t-14.5 -52.5t-48.5 -15.5h-602q-34 0 -48.5 15.5t-14.5 52.5t14.5 52.5t48.5 15.5h226v356l-346 559h-70q-34 0 -48.5 15.5t-14.5 52.5t14.5 52.5t48.5 15.5h334q34 0 48.5 -15.5t14.5 -52.5t-14.5 -52.5t-48.5 -15.5h-93l250 -409l252 409h-65q-34 0 -48.5 15.5t-14.5 52.5
t14.5 52.5t48.5 15.5h304q34 0 48.5 -15.5z" />
    <glyph glyph-name="Thorn" unicode="&#xde;" 
d="M743.5 1171.5q14.5 -15.5 14.5 -52.5t-14.5 -52.5t-48.5 -15.5h-216v-124h231q117 0 198.5 -42.5t122.5 -117t41 -169.5q0 -94 -41 -167.5t-122.5 -115.5t-198.5 -42h-231v-137h216q34 0 48.5 -15.5t14.5 -52.5t-14.5 -52.5t-48.5 -15.5h-522q-34 0 -48.5 15.5
t-14.5 52.5t14.5 52.5t48.5 15.5h156v915h-156q-34 0 -48.5 15.5t-14.5 52.5t14.5 52.5t48.5 15.5h522q34 0 48.5 -15.5zM479 409h210q109 0 167 49.5t58 139.5q0 88 -56 140.5t-169 52.5h-210v-382z" />
    <glyph glyph-name="germandbls" unicode="&#xdf;" 
d="M822.5 1271.5q85.5 -45.5 128.5 -124t43 -176.5q0 -91 -46 -158.5t-128 -110.5q108 -41 169.5 -130.5t61.5 -211.5q0 -118 -51 -204.5t-143 -132t-213 -45.5q-50 0 -66.5 16.5t-16.5 60.5q0 37 15 54t49 17q126 0 197 61t71 175q0 122 -69 189.5t-187 67.5
q-34 0 -48.5 16.5t-14.5 52.5t14.5 52t48.5 19q98 10 149.5 66t51.5 146q0 94 -58.5 147.5t-167.5 53.5q-102 0 -159.5 -64.5t-57.5 -175.5v-864q0 -37 -14.5 -52.5t-48.5 -15.5h-229q-34 0 -48.5 15.5t-14.5 52.5t14.5 52.5t48.5 15.5h142v807q0 110 44.5 194.5t128.5 132
t198 47.5q121 0 206.5 -45.5z" />
    <glyph glyph-name="agrave" unicode="&#xe0;" 
d="M900 862q94 -84 94 -249v-398q0 -79 66 -79h35q34 0 48.5 -15.5t14.5 -52.5t-14.5 -52.5t-48.5 -15.5h-64q-65 0 -111.5 32.5t-60.5 95.5q-82 -72 -177.5 -111t-202.5 -39q-101 0 -178.5 34.5t-121.5 100.5t-44 157q0 158 113 233.5t292 75.5q159 0 304 -51v85
q0 97 -54.5 142.5t-175.5 45.5q-75 0 -156 -21t-154 -58q-17 -9 -31 -9q-33 0 -55 48q-11 24 -11 40q0 35 37 54q84 44 180.5 67.5t193.5 23.5q188 0 282 -84zM359.5 398.5q-66.5 -39.5 -66.5 -125.5q0 -73 50.5 -113.5t141.5 -40.5q199 0 359 165v109q-68 22 -146 33.5
t-157 11.5q-115 0 -181.5 -39.5zM873 1115q0 -25 -24 -52q-22 -25 -46 -25q-14 0 -32 10l-374 219q-22 13 -22 39q0 29 30 68q33 41 67 41q19 0 37 -13l348 -256q16 -12 16 -31z" />
    <glyph glyph-name="aacute" unicode="&#xe1;" 
d="M900 862q94 -84 94 -249v-398q0 -79 66 -79h35q34 0 48.5 -15.5t14.5 -52.5t-14.5 -52.5t-48.5 -15.5h-64q-65 0 -111.5 32.5t-60.5 95.5q-82 -72 -177.5 -111t-202.5 -39q-101 0 -178.5 34.5t-121.5 100.5t-44 157q0 158 113 233.5t292 75.5q159 0 304 -51v85
q0 97 -54.5 142.5t-175.5 45.5q-75 0 -156 -21t-154 -58q-17 -9 -31 -9q-33 0 -55 48q-11 24 -11 40q0 35 37 54q84 44 180.5 67.5t193.5 23.5q188 0 282 -84zM359.5 398.5q-66.5 -39.5 -66.5 -125.5q0 -73 50.5 -113.5t141.5 -40.5q199 0 359 165v109q-68 22 -146 33.5
t-157 11.5q-115 0 -181.5 -39.5zM756 1415q34 0 67 -41q30 -39 30 -68q0 -26 -22 -39l-374 -219q-18 -10 -32 -10q-24 0 -46 25q-24 27 -24 52q0 19 16 31l348 256q18 13 37 13z" />
    <glyph glyph-name="acircumflex" unicode="&#xe2;" 
d="M672 1376l245 -233q16 -15 16 -33q0 -21 -23 -47q-21 -24 -44 -24q-16 0 -31 12l-221 173l-221 -173q-15 -12 -31 -12q-23 0 -44 24q-23 26 -23 47q0 18 16 33l245 233q22 20 58 20t58 -20zM900 862q94 -84 94 -249v-398q0 -79 66 -79h35q34 0 48.5 -15.5t14.5 -52.5
t-14.5 -52.5t-48.5 -15.5h-64q-65 0 -111.5 32.5t-60.5 95.5q-82 -72 -177.5 -111t-202.5 -39q-101 0 -178.5 34.5t-121.5 100.5t-44 157q0 158 113 233.5t292 75.5q159 0 304 -51v85q0 97 -54.5 142.5t-175.5 45.5q-75 0 -156 -21t-154 -58q-17 -9 -31 -9q-33 0 -55 48
q-11 24 -11 40q0 35 37 54q84 44 180.5 67.5t193.5 23.5q188 0 282 -84zM359.5 398.5q-66.5 -39.5 -66.5 -125.5q0 -73 50.5 -113.5t141.5 -40.5q199 0 359 165v109q-68 22 -146 33.5t-157 11.5q-115 0 -181.5 -39.5z" />
    <glyph glyph-name="atilde" unicode="&#xe3;" 
d="M557.5 1305.5q28.5 -9.5 68.5 -27.5q35 -17 59 -25t50 -8q32 0 62.5 17t63.5 51q12 12 29 12q25 0 47 -25q21 -22 21 -45q0 -19 -14 -36q-48 -62 -102.5 -92.5t-107.5 -30.5q-35 0 -63.5 9.5t-68.5 27.5q-35 17 -59 25t-50 8q-32 0 -62.5 -17t-63.5 -51q-12 -12 -29 -12
q-25 0 -47 25q-21 22 -21 45q0 19 14 36q48 62 102.5 92.5t107.5 30.5q35 0 63.5 -9.5zM900 862q94 -84 94 -249v-398q0 -79 66 -79h35q34 0 48.5 -15.5t14.5 -52.5t-14.5 -52.5t-48.5 -15.5h-64q-65 0 -111.5 32.5t-60.5 95.5q-82 -72 -177.5 -111t-202.5 -39
q-101 0 -178.5 34.5t-121.5 100.5t-44 157q0 158 113 233.5t292 75.5q159 0 304 -51v85q0 97 -54.5 142.5t-175.5 45.5q-75 0 -156 -21t-154 -58q-17 -9 -31 -9q-33 0 -55 48q-11 24 -11 40q0 35 37 54q84 44 180.5 67.5t193.5 23.5q188 0 282 -84zM359.5 398.5
q-66.5 -39.5 -66.5 -125.5q0 -73 50.5 -113.5t141.5 -40.5q199 0 359 165v109q-68 22 -146 33.5t-157 11.5q-115 0 -181.5 -39.5z" />
    <glyph glyph-name="adieresis" unicode="&#xe4;" 
d="M900 862q94 -84 94 -249v-398q0 -79 66 -79h35q34 0 48.5 -15.5t14.5 -52.5t-14.5 -52.5t-48.5 -15.5h-64q-65 0 -111.5 32.5t-60.5 95.5q-82 -72 -177.5 -111t-202.5 -39q-101 0 -178.5 34.5t-121.5 100.5t-44 157q0 158 113 233.5t292 75.5q159 0 304 -51v85
q0 97 -54.5 142.5t-175.5 45.5q-75 0 -156 -21t-154 -58q-17 -9 -31 -9q-33 0 -55 48q-11 24 -11 40q0 35 37 54q84 44 180.5 67.5t193.5 23.5q188 0 282 -84zM359.5 398.5q-66.5 -39.5 -66.5 -125.5q0 -73 50.5 -113.5t141.5 -40.5q199 0 359 165v109q-68 22 -146 33.5
t-157 11.5q-115 0 -181.5 -39.5zM479 1348.5q20 -14.5 20 -50.5v-130q0 -36 -20 -50.5t-75 -14.5t-75 14.5t-20 50.5v130q0 36 20 50.5t75 14.5t75 -14.5zM899 1348.5q20 -14.5 20 -50.5v-130q0 -36 -20 -50.5t-75 -14.5t-75 14.5t-20 50.5v130q0 36 20 50.5t75 14.5
t75 -14.5z" />
    <glyph glyph-name="aring" unicode="&#xe5;" 
d="M746.5 1525q56.5 -32 88.5 -88.5t32 -125.5t-32 -125.5t-88.5 -88.5t-125.5 -32t-125.5 32t-88.5 88.5t-32 125.5t32 125.5t88.5 88.5t125.5 32t125.5 -32zM538 1394q-31 -31 -31 -83t31 -83t83 -31t83 31t31 83t-31 83t-83 31t-83 -31zM900 862q94 -84 94 -249v-398
q0 -79 66 -79h35q34 0 48.5 -15.5t14.5 -52.5t-14.5 -52.5t-48.5 -15.5h-64q-65 0 -111.5 32.5t-60.5 95.5q-82 -72 -177.5 -111t-202.5 -39q-101 0 -178.5 34.5t-121.5 100.5t-44 157q0 158 113 233.5t292 75.5q159 0 304 -51v85q0 97 -54.5 142.5t-175.5 45.5
q-75 0 -156 -21t-154 -58q-17 -9 -31 -9q-33 0 -55 48q-11 24 -11 40q0 35 37 54q84 44 180.5 67.5t193.5 23.5q188 0 282 -84zM359.5 398.5q-66.5 -39.5 -66.5 -125.5q0 -73 50.5 -113.5t141.5 -40.5q199 0 359 165v109q-68 22 -146 33.5t-157 11.5q-115 0 -181.5 -39.5z
" />
    <glyph glyph-name="ae" unicode="&#xe6;" 
d="M1075 830q70 -116 76 -328q0 -34 -14.5 -48t-48.5 -14h-399q5 -317 164 -317q48 0 88 18.5t82 59.5q17 17 39 17q31 0 56 -31q21 -25 21 -50q0 -28 -27 -53q-55 -52 -121 -79t-138 -27q-163 0 -244 144q-48 -67 -120.5 -105.5t-153.5 -38.5q-78 0 -137 32t-91 91t-32 139
q0 167 124.5 253.5t339.5 86.5v22q0 101 -28 150t-103 49q-45 0 -88 -17t-89 -52q-19 -15 -42 -15q-28 0 -52 25q-21 24 -21 50q0 28 23 48q123 106 269 106q153 0 221 -116q40 57 96.5 86.5t127.5 29.5q152 0 222 -116zM745 749q-39 -52 -51 -169h300q-7 108 -40 164.5
t-99 56.5q-71 0 -110 -52zM303.5 390q-75.5 -50 -75.5 -150q0 -57 30 -89t81 -32q56 0 101.5 28.5t72 79t26.5 113.5v100q-160 0 -235.5 -50z" />
    <glyph glyph-name="ccedilla" unicode="&#xe7;" 
d="M1053 164q0 -35 -32 -58q-70 -53 -163.5 -85.5t-194.5 -40.5v-93q101 1 152 -46t51 -122q0 -87 -62 -139t-183 -52q-68 0 -132 12t-115 36q-23 10 -23 35q0 14 8 35q17 45 46 45q8 0 13 -2q43 -16 94.5 -27t98.5 -11q51 0 80 16.5t29 47.5q0 33 -27 49t-89 16l-39 -1
q-15 0 -24.5 10.5t-9.5 33.5v160q-122 17 -213.5 82.5t-141 168.5t-49.5 228q0 138 61 248t170.5 173t250.5 63q89 0 163.5 -32.5t126.5 -92.5v60q0 35 17 50t58 15t58 -15t17 -50v-290q0 -35 -17 -50t-58 -15t-58 15t-17 50q0 61 -32 108t-95.5 73t-152.5 26
q-96 0 -172 -43t-119 -120t-43 -173q0 -97 40.5 -173.5t114 -119.5t169.5 -43q92 0 178.5 28.5t157.5 82.5q21 16 39 16q29 0 54 -41q15 -25 15 -48z" />
    <glyph glyph-name="egrave" unicode="&#xe8;" 
d="M870.5 887.5q102.5 -58.5 157.5 -162t63 -238.5q0 -34 -14.5 -48t-48.5 -14h-724q7 -149 88.5 -225.5t230.5 -76.5q92 0 182 23.5t158 62.5q17 9 31 9q35 0 57 -53q9 -21 9 -38q0 -40 -44 -62q-77 -39 -182 -63t-211 -24q-151 0 -258 58t-163 167t-56 259q0 143 61 253
t169 170.5t247 60.5q145 0 247.5 -58.5zM419.5 738.5q-80.5 -62.5 -105.5 -173.5h611q-21 115 -96.5 175.5t-205.5 60.5q-123 0 -203.5 -62.5zM873 1115q0 -25 -24 -52q-22 -25 -46 -25q-14 0 -32 10l-374 219q-22 13 -22 39q0 29 30 68q33 41 67 41q19 0 37 -13l348 -256
q16 -12 16 -31z" />
    <glyph glyph-name="eacute" unicode="&#xe9;" 
d="M870.5 887.5q102.5 -58.5 157.5 -162t63 -238.5q0 -34 -14.5 -48t-48.5 -14h-724q7 -149 88.5 -225.5t230.5 -76.5q92 0 182 23.5t158 62.5q17 9 31 9q35 0 57 -53q9 -21 9 -38q0 -40 -44 -62q-77 -39 -182 -63t-211 -24q-151 0 -258 58t-163 167t-56 259q0 143 61 253
t169 170.5t247 60.5q145 0 247.5 -58.5zM419.5 738.5q-80.5 -62.5 -105.5 -173.5h611q-21 115 -96.5 175.5t-205.5 60.5q-123 0 -203.5 -62.5zM796 1415q34 0 67 -41q30 -39 30 -68q0 -26 -22 -39l-374 -219q-18 -10 -32 -10q-24 0 -46 25q-24 27 -24 52q0 19 16 31l348 256
q18 13 37 13z" />
    <glyph glyph-name="ecircumflex" unicode="&#xea;" 
d="M692 1376l245 -233q16 -15 16 -33q0 -21 -23 -47q-21 -24 -44 -24q-16 0 -31 12l-221 173l-221 -173q-15 -12 -31 -12q-23 0 -44 24q-23 26 -23 47q0 18 16 33l245 233q22 20 58 20t58 -20zM870.5 887.5q102.5 -58.5 157.5 -162t63 -238.5q0 -34 -14.5 -48t-48.5 -14
h-724q7 -149 88.5 -225.5t230.5 -76.5q92 0 182 23.5t158 62.5q17 9 31 9q35 0 57 -53q9 -21 9 -38q0 -40 -44 -62q-77 -39 -182 -63t-211 -24q-151 0 -258 58t-163 167t-56 259q0 143 61 253t169 170.5t247 60.5q145 0 247.5 -58.5zM419.5 738.5q-80.5 -62.5 -105.5 -173.5
h611q-21 115 -96.5 175.5t-205.5 60.5q-123 0 -203.5 -62.5z" />
    <glyph glyph-name="edieresis" unicode="&#xeb;" 
d="M870.5 887.5q102.5 -58.5 157.5 -162t63 -238.5q0 -34 -14.5 -48t-48.5 -14h-724q7 -149 88.5 -225.5t230.5 -76.5q92 0 182 23.5t158 62.5q17 9 31 9q35 0 57 -53q9 -21 9 -38q0 -40 -44 -62q-77 -39 -182 -63t-211 -24q-151 0 -258 58t-163 167t-56 259q0 143 61 253
t169 170.5t247 60.5q145 0 247.5 -58.5zM419.5 738.5q-80.5 -62.5 -105.5 -173.5h611q-21 115 -96.5 175.5t-205.5 60.5q-123 0 -203.5 -62.5zM489 1348.5q20 -14.5 20 -50.5v-130q0 -36 -20 -50.5t-75 -14.5t-75 14.5t-20 50.5v130q0 36 20 50.5t75 14.5t75 -14.5z
M909 1348.5q20 -14.5 20 -50.5v-130q0 -36 -20 -50.5t-75 -14.5t-75 14.5t-20 50.5v130q0 36 20 50.5t75 14.5t75 -14.5z" />
    <glyph glyph-name="igrave" unicode="&#xec;" 
d="M698.5 908.5q14.5 -15.5 14.5 -52.5v-720h321q34 0 48.5 -15.5t14.5 -52.5t-14.5 -52.5t-48.5 -15.5h-784q-34 0 -48.5 15.5t-14.5 52.5t14.5 52.5t48.5 15.5h313v652h-253q-34 0 -48.5 15.5t-14.5 52.5t14.5 52.5t48.5 15.5h340q34 0 48.5 -15.5zM773 1115
q0 -25 -24 -52q-22 -25 -46 -25q-14 0 -32 10l-374 219q-22 13 -22 39q0 29 30 68q33 41 67 41q19 0 37 -13l348 -256q16 -12 16 -31z" />
    <glyph glyph-name="iacute" unicode="&#xed;" 
d="M698.5 908.5q14.5 -15.5 14.5 -52.5v-720h321q34 0 48.5 -15.5t14.5 -52.5t-14.5 -52.5t-48.5 -15.5h-784q-34 0 -48.5 15.5t-14.5 52.5t14.5 52.5t48.5 15.5h313v652h-253q-34 0 -48.5 15.5t-14.5 52.5t14.5 52.5t48.5 15.5h340q34 0 48.5 -15.5zM756 1415q34 0 67 -41
q30 -39 30 -68q0 -26 -22 -39l-374 -219q-18 -10 -32 -10q-24 0 -46 25q-24 27 -24 52q0 19 16 31l348 256q18 13 37 13z" />
    <glyph glyph-name="icircumflex" unicode="&#xee;" 
d="M672 1376l245 -233q16 -15 16 -33q0 -21 -23 -47q-21 -24 -44 -24q-16 0 -31 12l-221 173l-221 -173q-15 -12 -31 -12q-23 0 -44 24q-23 26 -23 47q0 18 16 33l245 233q22 20 58 20t58 -20zM698.5 908.5q14.5 -15.5 14.5 -52.5v-720h321q34 0 48.5 -15.5t14.5 -52.5
t-14.5 -52.5t-48.5 -15.5h-784q-34 0 -48.5 15.5t-14.5 52.5t14.5 52.5t48.5 15.5h313v652h-253q-34 0 -48.5 15.5t-14.5 52.5t14.5 52.5t48.5 15.5h340q34 0 48.5 -15.5z" />
    <glyph glyph-name="idieresis" unicode="&#xef;" 
d="M698.5 908.5q14.5 -15.5 14.5 -52.5v-720h321q34 0 48.5 -15.5t14.5 -52.5t-14.5 -52.5t-48.5 -15.5h-784q-34 0 -48.5 15.5t-14.5 52.5t14.5 52.5t48.5 15.5h313v652h-253q-34 0 -48.5 15.5t-14.5 52.5t14.5 52.5t48.5 15.5h340q34 0 48.5 -15.5zM479 1348.5
q20 -14.5 20 -50.5v-130q0 -36 -20 -50.5t-75 -14.5t-75 14.5t-20 50.5v130q0 36 20 50.5t75 14.5t75 -14.5zM899 1348.5q20 -14.5 20 -50.5v-130q0 -36 -20 -50.5t-75 -14.5t-75 14.5t-20 50.5v130q0 36 20 50.5t75 14.5t75 -14.5z" />
    <glyph glyph-name="eth" unicode="&#xf0;" 
d="M1088 432q0 -134 -61.5 -237t-169.5 -160t-243 -57t-243 57t-169.5 160t-61.5 237t61.5 237t169.5 160t243 57q121 0 239 -77q-73 120 -209 227l-240 -90q-17 -7 -31 -7q-18 0 -30 11.5t-22 37.5q-8 19 -8 37q0 33 43 49l149 56q-45 26 -122 65q-37 18 -37 47q0 19 14 45
q24 45 58 45q17 0 35 -9q125 -61 221 -130l237 89q17 7 31 7q18 0 30 -11.5t22 -37.5q8 -19 8 -37q0 -33 -43 -49l-161 -60q290 -267 290 -662zM779.5 164q71.5 38 111 107t39.5 161t-39.5 161t-111 107t-165.5 38t-165.5 -38t-111 -107t-39.5 -161t39.5 -161t111 -107
t165.5 -38t165.5 38z" />
    <glyph glyph-name="ntilde" unicode="&#xf1;" 
d="M557.5 1305.5q28.5 -9.5 68.5 -27.5q35 -17 59 -25t50 -8q32 0 62.5 17t63.5 51q12 12 29 12q25 0 47 -25q21 -22 21 -45q0 -19 -14 -36q-48 -62 -102.5 -92.5t-107.5 -30.5q-35 0 -63.5 9.5t-68.5 27.5q-35 17 -59 25t-50 8q-32 0 -62.5 -17t-63.5 -51q-12 -12 -29 -12
q-25 0 -47 25q-21 22 -21 45q0 19 14 36q48 62 102.5 92.5t107.5 30.5q35 0 63.5 -9.5zM885 906.5q67 -39.5 103 -113.5t36 -173v-484h82q34 0 48.5 -15.5t14.5 -52.5t-14.5 -52.5t-48.5 -15.5h-324q-34 0 -48.5 15.5t-14.5 52.5t14.5 52.5t48.5 15.5h92v469q0 89 -41 141
t-121 52q-85 0 -158.5 -49t-117.5 -135t-44 -192v-286h92q34 0 48.5 -15.5t14.5 -52.5t-14.5 -52.5t-48.5 -15.5h-324q-34 0 -48.5 15.5t-14.5 52.5t14.5 52.5t48.5 15.5h82v652h-102q-34 0 -48.5 15.5t-14.5 52.5t14.5 52.5t48.5 15.5h179q34 0 48.5 -15.5t14.5 -52.5v-120
q66 102 154.5 156t190.5 54q91 0 158 -39.5z" />
    <glyph glyph-name="ograve" unicode="&#xf2;" 
d="M861 884q110 -62 172.5 -172.5t62.5 -249.5t-62.5 -249.5t-172.5 -172.5t-247 -62t-247 62t-172.5 172.5t-62.5 249.5t62.5 249.5t172.5 172.5t247 62t247 -62zM443.5 755.5q-73.5 -42.5 -113.5 -119t-40 -174.5t40 -174.5t113.5 -119t170.5 -42.5t170.5 42.5t113.5 119
t40 174.5t-40 174.5t-113.5 119t-170.5 42.5t-170.5 -42.5zM833 1115q0 -25 -24 -52q-22 -25 -46 -25q-14 0 -32 10l-374 219q-22 13 -22 39q0 29 30 68q33 41 67 41q19 0 37 -13l348 -256q16 -12 16 -31z" />
    <glyph glyph-name="oacute" unicode="&#xf3;" 
d="M861 884q110 -62 172.5 -172.5t62.5 -249.5t-62.5 -249.5t-172.5 -172.5t-247 -62t-247 62t-172.5 172.5t-62.5 249.5t62.5 249.5t172.5 172.5t247 62t247 -62zM443.5 755.5q-73.5 -42.5 -113.5 -119t-40 -174.5t40 -174.5t113.5 -119t170.5 -42.5t170.5 42.5t113.5 119
t40 174.5t-40 174.5t-113.5 119t-170.5 42.5t-170.5 -42.5zM796 1415q34 0 67 -41q30 -39 30 -68q0 -26 -22 -39l-374 -219q-18 -10 -32 -10q-24 0 -46 25q-24 27 -24 52q0 19 16 31l348 256q18 13 37 13z" />
    <glyph glyph-name="ocircumflex" unicode="&#xf4;" 
d="M672 1376l245 -233q16 -15 16 -33q0 -21 -23 -47q-21 -24 -44 -24q-16 0 -31 12l-221 173l-221 -173q-15 -12 -31 -12q-23 0 -44 24q-23 26 -23 47q0 18 16 33l245 233q22 20 58 20t58 -20zM861 884q110 -62 172.5 -172.5t62.5 -249.5t-62.5 -249.5t-172.5 -172.5
t-247 -62t-247 62t-172.5 172.5t-62.5 249.5t62.5 249.5t172.5 172.5t247 62t247 -62zM443.5 755.5q-73.5 -42.5 -113.5 -119t-40 -174.5t40 -174.5t113.5 -119t170.5 -42.5t170.5 42.5t113.5 119t40 174.5t-40 174.5t-113.5 119t-170.5 42.5t-170.5 -42.5z" />
    <glyph glyph-name="otilde" unicode="&#xf5;" 
d="M557.5 1305.5q28.5 -9.5 68.5 -27.5q35 -17 59 -25t50 -8q32 0 62.5 17t63.5 51q12 12 29 12q25 0 47 -25q21 -22 21 -45q0 -19 -14 -36q-48 -62 -102.5 -92.5t-107.5 -30.5q-35 0 -63.5 9.5t-68.5 27.5q-35 17 -59 25t-50 8q-32 0 -62.5 -17t-63.5 -51q-12 -12 -29 -12
q-25 0 -47 25q-21 22 -21 45q0 19 14 36q48 62 102.5 92.5t107.5 30.5q35 0 63.5 -9.5zM861 884q110 -62 172.5 -172.5t62.5 -249.5t-62.5 -249.5t-172.5 -172.5t-247 -62t-247 62t-172.5 172.5t-62.5 249.5t62.5 249.5t172.5 172.5t247 62t247 -62zM443.5 755.5
q-73.5 -42.5 -113.5 -119t-40 -174.5t40 -174.5t113.5 -119t170.5 -42.5t170.5 42.5t113.5 119t40 174.5t-40 174.5t-113.5 119t-170.5 42.5t-170.5 -42.5z" />
    <glyph glyph-name="odieresis" unicode="&#xf6;" 
d="M861 884q110 -62 172.5 -172.5t62.5 -249.5t-62.5 -249.5t-172.5 -172.5t-247 -62t-247 62t-172.5 172.5t-62.5 249.5t62.5 249.5t172.5 172.5t247 62t247 -62zM443.5 755.5q-73.5 -42.5 -113.5 -119t-40 -174.5t40 -174.5t113.5 -119t170.5 -42.5t170.5 42.5t113.5 119
t40 174.5t-40 174.5t-113.5 119t-170.5 42.5t-170.5 -42.5zM479 1348.5q20 -14.5 20 -50.5v-130q0 -36 -20 -50.5t-75 -14.5t-75 14.5t-20 50.5v130q0 36 20 50.5t75 14.5t75 -14.5zM899 1348.5q20 -14.5 20 -50.5v-130q0 -36 -20 -50.5t-75 -14.5t-75 14.5t-20 50.5v130
q0 36 20 50.5t75 14.5t75 -14.5z" />
    <glyph glyph-name="divide" unicode="&#xf7;" 
d="M694.5 1040.5q24.5 -14.5 24.5 -48.5v-104q0 -34 -24.5 -48.5t-80.5 -14.5t-80.5 14.5t-24.5 48.5v104q0 34 24.5 48.5t80.5 14.5t80.5 -14.5zM1043.5 634.5q14.5 -15.5 14.5 -52.5t-14.5 -52.5t-48.5 -15.5h-762q-34 0 -48.5 15.5t-14.5 52.5t14.5 52.5t48.5 15.5h762
q34 0 48.5 -15.5zM694.5 325.5q24.5 -14.5 24.5 -48.5v-104q0 -34 -24.5 -48.5t-80.5 -14.5t-80.5 14.5t-24.5 48.5v104q0 34 24.5 48.5t80.5 14.5t80.5 -14.5z" />
    <glyph glyph-name="oslash" unicode="&#xf8;" 
d="M1144 898q0 -22 -25 -46l-108 -105q85 -123 85 -285q0 -139 -62.5 -249.5t-172.5 -172.5t-247 -62q-86 0 -162 25.5t-138 72.5l-109 -105q-25 -23 -45 -23q-22 0 -50 28q-26 28 -26 50q0 21 24 45l109 106q-85 123 -85 285q0 139 62.5 249.5t172.5 172.5t247 62
q86 0 162.5 -25t137.5 -72l108 104q25 23 45 23q23 0 51 -28q26 -28 26 -50zM331 286l473 457q-80 55 -190 55q-97 0 -170.5 -42.5t-113.5 -119t-40 -174.5q0 -100 41 -176zM897 638l-473 -456q79 -56 190 -56q97 0 170.5 42.5t113.5 119t40 174.5q0 100 -41 176z" />
    <glyph glyph-name="ugrave" unicode="&#xf9;" 
d="M984.5 908.5q14.5 -15.5 14.5 -52.5v-720h82q34 0 48.5 -15.5t14.5 -52.5t-14.5 -52.5t-48.5 -15.5h-159q-34 0 -48.5 15t-14.5 52v121q-66 -102 -154.5 -156t-190.5 -54q-91 0 -158 39.5t-103 113.5t-36 173v484h-82q-34 0 -48.5 15.5t-14.5 52.5t14.5 52.5t48.5 15.5
h169q34 0 48.5 -15.5t14.5 -52.5v-537q0 -89 41 -141t121 -52q85 0 158.5 49t117.5 135t44 192v286h-142q-34 0 -48.5 15.5t-14.5 52.5t14.5 52.5t48.5 15.5h229q34 0 48.5 -15.5zM823 1115q0 -25 -24 -52q-22 -25 -46 -25q-14 0 -32 10l-374 219q-22 13 -22 39q0 29 30 68
q33 41 67 41q19 0 37 -13l348 -256q16 -12 16 -31z" />
    <glyph glyph-name="uacute" unicode="&#xfa;" 
d="M984.5 908.5q14.5 -15.5 14.5 -52.5v-720h82q34 0 48.5 -15.5t14.5 -52.5t-14.5 -52.5t-48.5 -15.5h-159q-34 0 -48.5 15t-14.5 52v121q-66 -102 -154.5 -156t-190.5 -54q-91 0 -158 39.5t-103 113.5t-36 173v484h-82q-34 0 -48.5 15.5t-14.5 52.5t14.5 52.5t48.5 15.5
h169q34 0 48.5 -15.5t14.5 -52.5v-537q0 -89 41 -141t121 -52q85 0 158.5 49t117.5 135t44 192v286h-142q-34 0 -48.5 15.5t-14.5 52.5t14.5 52.5t48.5 15.5h229q34 0 48.5 -15.5zM816 1415q34 0 67 -41q30 -39 30 -68q0 -26 -22 -39l-374 -219q-18 -10 -32 -10
q-24 0 -46 25q-24 27 -24 52q0 19 16 31l348 256q18 13 37 13z" />
    <glyph glyph-name="ucircumflex" unicode="&#xfb;" 
d="M662 1376l245 -233q16 -15 16 -33q0 -21 -23 -47q-21 -24 -44 -24q-16 0 -31 12l-221 173l-221 -173q-15 -12 -31 -12q-23 0 -44 24q-23 26 -23 47q0 18 16 33l245 233q22 20 58 20t58 -20zM984.5 908.5q14.5 -15.5 14.5 -52.5v-720h82q34 0 48.5 -15.5t14.5 -52.5
t-14.5 -52.5t-48.5 -15.5h-159q-34 0 -48.5 15t-14.5 52v121q-66 -102 -154.5 -156t-190.5 -54q-91 0 -158 39.5t-103 113.5t-36 173v484h-82q-34 0 -48.5 15.5t-14.5 52.5t14.5 52.5t48.5 15.5h169q34 0 48.5 -15.5t14.5 -52.5v-537q0 -89 41 -141t121 -52q85 0 158.5 49
t117.5 135t44 192v286h-142q-34 0 -48.5 15.5t-14.5 52.5t14.5 52.5t48.5 15.5h229q34 0 48.5 -15.5z" />
    <glyph glyph-name="udieresis" unicode="&#xfc;" 
d="M984.5 908.5q14.5 -15.5 14.5 -52.5v-720h82q34 0 48.5 -15.5t14.5 -52.5t-14.5 -52.5t-48.5 -15.5h-159q-34 0 -48.5 15t-14.5 52v121q-66 -102 -154.5 -156t-190.5 -54q-91 0 -158 39.5t-103 113.5t-36 173v484h-82q-34 0 -48.5 15.5t-14.5 52.5t14.5 52.5t48.5 15.5
h169q34 0 48.5 -15.5t14.5 -52.5v-537q0 -89 41 -141t121 -52q85 0 158.5 49t117.5 135t44 192v286h-142q-34 0 -48.5 15.5t-14.5 52.5t14.5 52.5t48.5 15.5h229q34 0 48.5 -15.5zM459 1348.5q20 -14.5 20 -50.5v-130q0 -36 -20 -50.5t-75 -14.5t-75 14.5t-20 50.5v130
q0 36 20 50.5t75 14.5t75 -14.5zM879 1348.5q20 -14.5 20 -50.5v-130q0 -36 -20 -50.5t-75 -14.5t-75 14.5t-20 50.5v130q0 36 20 50.5t75 14.5t75 -14.5z" />
    <glyph glyph-name="yacute" unicode="&#xfd;" 
d="M1163.5 908.5q14.5 -15.5 14.5 -52.5t-14.5 -52.5t-48.5 -15.5h-62l-409 -838q-65 -133 -127 -209t-139.5 -111.5t-188.5 -39.5q-35 -1 -54 17.5t-19 65.5q0 65 53 68q96 5 152.5 32t104 92.5t116.5 204.5l-366 718h-63q-34 0 -48.5 15.5t-14.5 52.5t14.5 52.5t48.5 15.5
h354q34 0 48.5 -15.5t14.5 -52.5t-14.5 -52.5t-48.5 -15.5h-128l282 -562l269 562h-89q-34 0 -48.5 15.5t-14.5 52.5t14.5 52.5t48.5 15.5h314q34 0 48.5 -15.5zM818 1415q34 0 67 -41q30 -39 30 -68q0 -26 -22 -39l-374 -219q-18 -10 -32 -10q-24 0 -46 25q-24 27 -24 52
q0 19 16 31l348 256q18 13 37 13z" />
    <glyph glyph-name="thorn" unicode="&#xfe;" 
d="M337.5 1296.5q14.5 -15.5 14.5 -52.5v-463q129 165 317 165q124 0 222 -58.5t154 -168t56 -257.5t-56 -257.5t-154 -168t-222 -58.5q-188 0 -317 165v-395h172q34 0 48.5 -15.5t14.5 -52.5t-14.5 -52.5t-48.5 -15.5h-424q-34 0 -48.5 15.5t-14.5 52.5t14.5 52.5
t48.5 15.5h102v1428h-82q-34 0 -48.5 15.5t-14.5 52.5t14.5 52.5t48.5 15.5h169q34 0 48.5 -15.5zM500.5 758q-69.5 -40 -109 -116t-39.5 -180t39.5 -180t109 -116t158.5 -40t153 42.5t97.5 118.5t33.5 175t-33.5 175t-97.5 118.5t-153 42.5t-158.5 -40z" />
    <glyph glyph-name="ydieresis" unicode="&#xff;" 
d="M1163.5 908.5q14.5 -15.5 14.5 -52.5t-14.5 -52.5t-48.5 -15.5h-62l-409 -838q-65 -133 -127 -209t-139.5 -111.5t-188.5 -39.5q-35 -1 -54 17.5t-19 65.5q0 65 53 68q96 5 152.5 32t104 92.5t116.5 204.5l-366 718h-63q-34 0 -48.5 15.5t-14.5 52.5t14.5 52.5t48.5 15.5
h354q34 0 48.5 -15.5t14.5 -52.5t-14.5 -52.5t-48.5 -15.5h-128l282 -562l269 562h-89q-34 0 -48.5 15.5t-14.5 52.5t14.5 52.5t48.5 15.5h314q34 0 48.5 -15.5zM479 1348.5q20 -14.5 20 -50.5v-130q0 -36 -20 -50.5t-75 -14.5t-75 14.5t-20 50.5v130q0 36 20 50.5t75 14.5
t75 -14.5zM899 1348.5q20 -14.5 20 -50.5v-130q0 -36 -20 -50.5t-75 -14.5t-75 14.5t-20 50.5v130q0 36 20 50.5t75 14.5t75 -14.5z" />
    <glyph glyph-name="Amacron" unicode="&#x100;" 
d="M873.5 1503.5q14.5 -16.5 14.5 -55.5t-14.5 -55.5t-48.5 -16.5h-522q-34 0 -48.5 16.5t-14.5 55.5t14.5 55.5t48.5 16.5h522q34 0 48.5 -16.5zM704.5 1171.5q24.5 -15.5 36.5 -49.5l353 -986h61q34 0 48.5 -15.5t14.5 -52.5t-14.5 -52.5t-48.5 -15.5h-354
q-34 0 -48.5 15.5t-14.5 52.5t14.5 52.5t48.5 15.5h135l-82 238h-485l-83 -238h121q34 0 48.5 -15.5t14.5 -52.5t-14.5 -52.5t-48.5 -15.5h-334q-34 0 -48.5 15.5t-14.5 52.5t14.5 52.5t48.5 15.5h56l331 915h-187q-34 0 -48.5 15.5t-14.5 52.5t14.5 52.5t48.5 15.5h367
q40 0 64.5 -15.5zM603 1051l-187 -541h392l-186 541h-19z" />
    <glyph glyph-name="amacron" unicode="&#x101;" 
d="M900 862q94 -84 94 -249v-398q0 -79 66 -79h35q34 0 48.5 -15.5t14.5 -52.5t-14.5 -52.5t-48.5 -15.5h-64q-65 0 -111.5 32.5t-60.5 95.5q-82 -72 -177.5 -111t-202.5 -39q-101 0 -178.5 34.5t-121.5 100.5t-44 157q0 158 113 233.5t292 75.5q159 0 304 -51v85
q0 97 -54.5 142.5t-175.5 45.5q-75 0 -156 -21t-154 -58q-17 -9 -31 -9q-33 0 -55 48q-11 24 -11 40q0 35 37 54q84 44 180.5 67.5t193.5 23.5q188 0 282 -84zM359.5 398.5q-66.5 -39.5 -66.5 -125.5q0 -73 50.5 -113.5t141.5 -40.5q199 0 359 165v109q-68 22 -146 33.5
t-157 11.5q-115 0 -181.5 -39.5zM923.5 1233.5q14.5 -16.5 14.5 -55.5t-14.5 -55.5t-48.5 -16.5h-522q-34 0 -48.5 16.5t-14.5 55.5t14.5 55.5t48.5 16.5h522q34 0 48.5 -16.5z" />
    <glyph glyph-name="Abreve" unicode="&#x102;" 
d="M909 1621.5q13 -11.5 13 -30.5q0 -8 -1 -13q-23 -113 -106.5 -175t-220.5 -62t-220.5 62t-106.5 175q-1 5 -1 13q0 19 13 30.5t41 17.5q15 3 28 3q34 0 43 -24q23 -71 73 -105t130 -34q81 0 131 34t72 105q9 24 43 24q13 0 28 -3q28 -6 41 -17.5zM704.5 1171.5
q24.5 -15.5 36.5 -49.5l353 -986h61q34 0 48.5 -15.5t14.5 -52.5t-14.5 -52.5t-48.5 -15.5h-354q-34 0 -48.5 15.5t-14.5 52.5t14.5 52.5t48.5 15.5h135l-82 238h-485l-83 -238h121q34 0 48.5 -15.5t14.5 -52.5t-14.5 -52.5t-48.5 -15.5h-334q-34 0 -48.5 15.5t-14.5 52.5
t14.5 52.5t48.5 15.5h56l331 915h-187q-34 0 -48.5 15.5t-14.5 52.5t14.5 52.5t48.5 15.5h367q40 0 64.5 -15.5zM603 1051l-187 -541h392l-186 541h-19z" />
    <glyph glyph-name="abreve" unicode="&#x103;" 
d="M932 1351.5q13 -11.5 13 -30.5q0 -8 -1 -13q-23 -113 -106.5 -175t-220.5 -62t-220.5 62t-106.5 175q-1 5 -1 13q0 19 13 30.5t41 17.5q15 3 28 3q34 0 43 -24q23 -71 73 -105t130 -34q81 0 131 34t72 105q9 24 43 24q13 0 28 -3q28 -6 41 -17.5zM900 862q94 -84 94 -249
v-398q0 -79 66 -79h35q34 0 48.5 -15.5t14.5 -52.5t-14.5 -52.5t-48.5 -15.5h-64q-65 0 -111.5 32.5t-60.5 95.5q-82 -72 -177.5 -111t-202.5 -39q-101 0 -178.5 34.5t-121.5 100.5t-44 157q0 158 113 233.5t292 75.5q159 0 304 -51v85q0 97 -54.5 142.5t-175.5 45.5
q-75 0 -156 -21t-154 -58q-17 -9 -31 -9q-33 0 -55 48q-11 24 -11 40q0 35 37 54q84 44 180.5 67.5t193.5 23.5q188 0 282 -84zM359.5 398.5q-66.5 -39.5 -66.5 -125.5q0 -73 50.5 -113.5t141.5 -40.5q199 0 359 165v109q-68 22 -146 33.5t-157 11.5q-115 0 -181.5 -39.5z
" />
    <glyph glyph-name="Aogonek" unicode="&#x104;" 
d="M965.5 -144q-38.5 -61 -38.5 -116q0 -35 21 -54t56 -19q52 0 113 17q8 2 11 2q30 0 39 -54q2 -18 2 -25q0 -22 -8.5 -34.5t-25.5 -18.5q-75 -26 -164 -26q-93 0 -146.5 52t-53.5 139q0 73 40 142t116 139h-126q-34 0 -48.5 15.5t-14.5 52.5t14.5 52.5t48.5 15.5h135
l-82 238h-485l-83 -238h121q34 0 48.5 -15.5t14.5 -52.5t-14.5 -52.5t-48.5 -15.5h-334q-34 0 -48.5 15.5t-14.5 52.5t14.5 52.5t48.5 15.5h56l331 915h-187q-34 0 -48.5 15.5t-14.5 52.5t14.5 52.5t48.5 15.5h367q40 0 64.5 -15.5t36.5 -49.5l353 -986h61q34 0 48.5 -15.5
t14.5 -52.5t-14.5 -52.5t-48.5 -15.5h-62q-89 -83 -127.5 -144zM416 510h392l-186 541h-19z" />
    <glyph glyph-name="aogonek" unicode="&#x105;" 
d="M1108 -314q30 0 39 -54q2 -18 2 -25q0 -22 -8.5 -34.5t-25.5 -18.5q-75 -26 -164 -26q-93 0 -146.5 52t-53.5 139q0 79 47 153.5t136 150.5q-59 34 -75 105q-82 -72 -177.5 -111t-202.5 -39q-101 0 -178.5 34.5t-121.5 100.5t-44 157q0 158 113 233.5t292 75.5
q159 0 304 -51v85q0 97 -54.5 142.5t-175.5 45.5q-75 0 -156 -21t-154 -58q-17 -9 -31 -9q-33 0 -55 48q-11 24 -11 40q0 35 37 54q84 44 180.5 67.5t193.5 23.5q188 0 282 -84t94 -249v-398q0 -79 66 -79h35q34 0 48.5 -15.5t14.5 -52.5t-14.5 -52.5t-48.5 -15.5h-22
q-89 -83 -127.5 -144t-38.5 -116q0 -35 21 -54t56 -19q52 0 113 17q8 2 11 2zM844 393q-68 22 -146 33.5t-157 11.5q-115 0 -181.5 -39.5t-66.5 -125.5q0 -73 50.5 -113.5t141.5 -40.5q199 0 359 165v109z" />
    <glyph glyph-name="Cacute" unicode="&#x106;" 
d="M836 1685q34 0 67 -41q30 -39 30 -68q0 -26 -22 -39l-374 -219q-18 -10 -32 -10q-24 0 -46 25q-24 27 -24 52q0 19 16 31l348 256q18 13 37 13zM1057 1194q17 -15 17 -50v-330q0 -35 -17 -50t-58 -15t-58 15t-17 50q0 68 -30.5 124t-93.5 89.5t-156 33.5
q-108 0 -191.5 -57t-130 -163t-46.5 -248t44 -247.5t125 -162.5t189 -57q99 0 189 29t162 84q17 14 37 14q30 0 53 -39q18 -30 18 -53q0 -30 -31 -52q-93 -65 -202.5 -98t-225.5 -33q-156 0 -272.5 76.5t-180 215.5t-63.5 323q0 183 65 322.5t182.5 216.5t268.5 77
q94 0 167 -32t123 -91v58q0 35 17 50t58 15t58 -15z" />
    <glyph glyph-name="cacute" unicode="&#x107;" 
d="M1032 931q17 -15 17 -50v-290q0 -35 -17 -50t-58 -15t-58 15t-17 50q0 61 -32 108t-95.5 73t-152.5 26q-96 0 -172 -43t-119 -120t-43 -173q0 -97 40.5 -173.5t114 -119.5t169.5 -43q92 0 178.5 28.5t157.5 82.5q21 16 39 16q29 0 54 -41q15 -25 15 -48q0 -35 -32 -58
q-80 -60 -189 -94t-223 -34q-143 0 -252.5 63t-169.5 173t-60 248t61 248t170.5 173t250.5 63q89 0 163.5 -32.5t126.5 -92.5v60q0 35 17 50t58 15t58 -15zM815 1415q34 0 67 -41q30 -39 30 -68q0 -26 -22 -39l-374 -219q-18 -10 -32 -10q-24 0 -46 25q-24 27 -24 52
q0 19 16 31l348 256q18 13 37 13z" />
    <glyph glyph-name="Ccircumflex" unicode="&#x108;" 
d="M712 1646l245 -233q16 -15 16 -33q0 -21 -23 -47q-21 -24 -44 -24q-16 0 -31 12l-221 173l-221 -173q-15 -12 -31 -12q-23 0 -44 24q-23 26 -23 47q0 18 16 33l245 233q22 20 58 20t58 -20zM1057 1194q17 -15 17 -50v-330q0 -35 -17 -50t-58 -15t-58 15t-17 50
q0 68 -30.5 124t-93.5 89.5t-156 33.5q-108 0 -191.5 -57t-130 -163t-46.5 -248t44 -247.5t125 -162.5t189 -57q99 0 189 29t162 84q17 14 37 14q30 0 53 -39q18 -30 18 -53q0 -30 -31 -52q-93 -65 -202.5 -98t-225.5 -33q-156 0 -272.5 76.5t-180 215.5t-63.5 323
q0 183 65 322.5t182.5 216.5t268.5 77q94 0 167 -32t123 -91v58q0 35 17 50t58 15t58 -15z" />
    <glyph glyph-name="ccircumflex" unicode="&#x109;" 
d="M682 1376l245 -233q16 -15 16 -33q0 -21 -23 -47q-21 -24 -44 -24q-16 0 -31 12l-221 173l-221 -173q-15 -12 -31 -12q-23 0 -44 24q-23 26 -23 47q0 18 16 33l245 233q22 20 58 20t58 -20zM1032 931q17 -15 17 -50v-290q0 -35 -17 -50t-58 -15t-58 15t-17 50
q0 61 -32 108t-95.5 73t-152.5 26q-96 0 -172 -43t-119 -120t-43 -173q0 -97 40.5 -173.5t114 -119.5t169.5 -43q92 0 178.5 28.5t157.5 82.5q21 16 39 16q29 0 54 -41q15 -25 15 -48q0 -35 -32 -58q-80 -60 -189 -94t-223 -34q-143 0 -252.5 63t-169.5 173t-60 248t61 248
t170.5 173t250.5 63q89 0 163.5 -32.5t126.5 -92.5v60q0 35 17 50t58 15t58 -15z" />
    <glyph glyph-name="Cdotaccent" unicode="&#x10a;" 
d="M709 1618.5q20 -14.5 20 -50.5v-130q0 -36 -20 -50.5t-75 -14.5t-75 14.5t-20 50.5v130q0 36 20 50.5t75 14.5t75 -14.5zM1057 1194q17 -15 17 -50v-330q0 -35 -17 -50t-58 -15t-58 15t-17 50q0 68 -30.5 124t-93.5 89.5t-156 33.5q-108 0 -191.5 -57t-130 -163
t-46.5 -248t44 -247.5t125 -162.5t189 -57q99 0 189 29t162 84q17 14 37 14q30 0 53 -39q18 -30 18 -53q0 -30 -31 -52q-93 -65 -202.5 -98t-225.5 -33q-156 0 -272.5 76.5t-180 215.5t-63.5 323q0 183 65 322.5t182.5 216.5t268.5 77q94 0 167 -32t123 -91v58q0 35 17 50
t58 15t58 -15z" />
    <glyph glyph-name="cdotaccent" unicode="&#x10b;" 
d="M699 1348.5q20 -14.5 20 -50.5v-130q0 -36 -20 -50.5t-75 -14.5t-75 14.5t-20 50.5v130q0 36 20 50.5t75 14.5t75 -14.5zM1032 931q17 -15 17 -50v-290q0 -35 -17 -50t-58 -15t-58 15t-17 50q0 61 -32 108t-95.5 73t-152.5 26q-96 0 -172 -43t-119 -120t-43 -173
q0 -97 40.5 -173.5t114 -119.5t169.5 -43q92 0 178.5 28.5t157.5 82.5q21 16 39 16q29 0 54 -41q15 -25 15 -48q0 -35 -32 -58q-80 -60 -189 -94t-223 -34q-143 0 -252.5 63t-169.5 173t-60 248t61 248t170.5 173t250.5 63q89 0 163.5 -32.5t126.5 -92.5v60q0 35 17 50
t58 15t58 -15z" />
    <glyph glyph-name="Ccaron" unicode="&#x10c;" 
d="M586 1331l-245 233q-16 15 -16 33q0 21 23 47q21 24 44 24q16 0 31 -12l221 -173l221 173q15 12 31 12q23 0 44 -24q23 -26 23 -47q0 -18 -16 -33l-245 -233q-22 -20 -58 -20t-58 20zM1057 1194q17 -15 17 -50v-330q0 -35 -17 -50t-58 -15t-58 15t-17 50q0 68 -30.5 124
t-93.5 89.5t-156 33.5q-108 0 -191.5 -57t-130 -163t-46.5 -248t44 -247.5t125 -162.5t189 -57q99 0 189 29t162 84q17 14 37 14q30 0 53 -39q18 -30 18 -53q0 -30 -31 -52q-93 -65 -202.5 -98t-225.5 -33q-156 0 -272.5 76.5t-180 215.5t-63.5 323q0 183 65 322.5
t182.5 216.5t268.5 77q94 0 167 -32t123 -91v58q0 35 17 50t58 15t58 -15z" />
    <glyph glyph-name="ccaron" unicode="&#x10d;" 
d="M566 1061l-245 233q-16 15 -16 33q0 21 23 47q21 24 44 24q16 0 31 -12l221 -173l221 173q15 12 31 12q23 0 44 -24q23 -26 23 -47q0 -18 -16 -33l-245 -233q-22 -20 -58 -20t-58 20zM1032 931q17 -15 17 -50v-290q0 -35 -17 -50t-58 -15t-58 15t-17 50q0 61 -32 108
t-95.5 73t-152.5 26q-96 0 -172 -43t-119 -120t-43 -173q0 -97 40.5 -173.5t114 -119.5t169.5 -43q92 0 178.5 28.5t157.5 82.5q21 16 39 16q29 0 54 -41q15 -25 15 -48q0 -35 -32 -58q-80 -60 -189 -94t-223 -34q-143 0 -252.5 63t-169.5 173t-60 248t61 248t170.5 173
t250.5 63q89 0 163.5 -32.5t126.5 -92.5v60q0 35 17 50t58 15t58 -15z" />
    <glyph glyph-name="Dcaron" unicode="&#x10e;" 
d="M526 1331l-245 233q-16 15 -16 33q0 21 23 47q21 24 44 24q16 0 31 -12l221 -173l221 173q15 12 31 12q23 0 44 -24q23 -26 23 -47q0 -18 -16 -33l-245 -233q-22 -20 -58 -20t-58 20zM890 1115.5q119 -71.5 184.5 -206t65.5 -316.5t-65.5 -316t-184.5 -205.5t-276 -71.5
h-471q-34 0 -48.5 15.5t-14.5 52.5t14.5 52.5t48.5 15.5h112v915h-112q-34 0 -48.5 15.5t-14.5 52.5t14.5 52.5t48.5 15.5h471q157 0 276 -71.5zM405 136h186q119 0 207 52.5t136 155t48 249.5t-48 249.5t-136 155.5t-207 53h-186v-915z" />
    <glyph glyph-name="dcaron" unicode="&#x10f;" 
d="M911.5 1296.5q14.5 -15.5 14.5 -52.5v-1108h82q34 0 48.5 -15.5t14.5 -52.5t-14.5 -52.5t-48.5 -15.5h-159q-34 0 -48.5 15.5t-14.5 52.5v75q-102 -165 -277 -165q-109 0 -196 58.5t-136.5 168t-49.5 257.5t49.5 257.5t136.5 168t196 58.5q169 0 267 -161v391h-162
q-34 0 -48.5 15.5t-14.5 52.5t14.5 52.5t48.5 15.5h249q34 0 48.5 -15.5zM1321 1304.5q7 -7.5 7 -19.5q0 -9 -5 -24l-134 -363q-13 -36 -74 -36q-28 0 -43 11t-15 31q0 4 2 14l82 362q8 32 42 32h118q13 0 20 -7.5zM392.5 755.5q-52.5 -42.5 -80 -118.5t-27.5 -175
t27.5 -175t80 -118.5t126.5 -42.5q78 0 136 40t89.5 115.5t31.5 180.5t-31.5 180.5t-89.5 115.5t-136 40q-74 0 -126.5 -42.5z" />
    <glyph glyph-name="Dcroat" unicode="&#x110;" 
d="M890 1115.5q119 -71.5 184.5 -206t65.5 -316.5t-65.5 -316t-184.5 -205.5t-276 -71.5h-471q-34 0 -48.5 15.5t-14.5 52.5t14.5 52.5t48.5 15.5h112v402h-98q-34 0 -48.5 16.5t-14.5 55.5t14.5 55.5t48.5 16.5h98v369h-112q-34 0 -48.5 15.5t-14.5 52.5t14.5 52.5
t48.5 15.5h471q157 0 276 -71.5zM798 188.5q88 52.5 136 155t48 249.5t-48 249.5t-136 155.5t-207 53h-186v-369h274q34 0 48.5 -16.5t14.5 -55.5t-14.5 -55.5t-48.5 -16.5h-274v-402h186q119 0 207 52.5z" />
    <glyph glyph-name="dcroat" unicode="&#x111;" 
d="M1006 970v-834h82q34 0 48.5 -15.5t14.5 -52.5t-14.5 -52.5t-48.5 -15.5h-159q-34 0 -48.5 15.5t-14.5 52.5v70q-60 -77 -137.5 -118.5t-169.5 -41.5q-118 0 -211 54.5t-146 157.5t-53 242t53 242t146 157.5t211 54.5q176 0 297 -147v231h-303q-34 0 -48.5 15.5
t-14.5 52.5t14.5 52.5t48.5 15.5h303v70h-162q-34 0 -48.5 15.5t-14.5 52.5t14.5 52.5t48.5 15.5h249q34 0 48.5 -15.5t14.5 -52.5v-138h109q34 0 48.5 -15.5t14.5 -52.5t-14.5 -52.5t-48.5 -15.5h-109zM717 162.5q65 36.5 102 105.5t37 164t-37 164t-102 105.5t-148 36.5
t-143 -39t-91.5 -108.5t-31.5 -158.5t31.5 -158.5t91.5 -108.5t143 -39t148 36.5z" />
    <glyph glyph-name="Emacron" unicode="&#x112;" 
d="M944.5 1503.5q14.5 -16.5 14.5 -55.5t-14.5 -55.5t-48.5 -16.5h-522q-34 0 -48.5 16.5t-14.5 55.5t14.5 55.5t48.5 16.5h522q34 0 48.5 -16.5zM1083 415q17 -15 17 -50v-297q0 -37 -14.5 -52.5t-48.5 -15.5h-894q-34 0 -48.5 15.5t-14.5 52.5t14.5 52.5t48.5 15.5h102
v915h-102q-34 0 -48.5 15.5t-14.5 52.5t14.5 52.5t48.5 15.5h874q34 0 48.5 -15.5t14.5 -52.5v-254q0 -35 -17 -50t-58 -15t-58 15t-17 50v186h-535v-371h258v91q0 35 15.5 50t55.5 15t55.5 -15t15.5 -50v-318q0 -35 -15.5 -50t-55.5 -15t-55.5 15t-15.5 50v91h-258v-408
h555v229q0 35 17 50t58 15t58 -15z" />
    <glyph glyph-name="emacron" unicode="&#x113;" 
d="M943.5 1233.5q14.5 -16.5 14.5 -55.5t-14.5 -55.5t-48.5 -16.5h-522q-34 0 -48.5 16.5t-14.5 55.5t14.5 55.5t48.5 16.5h522q34 0 48.5 -16.5zM870.5 887.5q102.5 -58.5 157.5 -162t63 -238.5q0 -34 -14.5 -48t-48.5 -14h-724q7 -149 88.5 -225.5t230.5 -76.5
q92 0 182 23.5t158 62.5q17 9 31 9q35 0 57 -53q9 -21 9 -38q0 -40 -44 -62q-77 -39 -182 -63t-211 -24q-151 0 -258 58t-163 167t-56 259q0 143 61 253t169 170.5t247 60.5q145 0 247.5 -58.5zM419.5 738.5q-80.5 -62.5 -105.5 -173.5h611q-21 115 -96.5 175.5t-205.5 60.5
q-123 0 -203.5 -62.5z" />
    <glyph glyph-name="Ebreve" unicode="&#x114;" 
d="M929 1621.5q13 -11.5 13 -30.5q0 -8 -1 -13q-23 -113 -106.5 -175t-220.5 -62t-220.5 62t-106.5 175q-1 5 -1 13q0 19 13 30.5t41 17.5q15 3 28 3q34 0 43 -24q23 -71 73 -105t130 -34q81 0 131 34t72 105q9 24 43 24q13 0 28 -3q28 -6 41 -17.5zM1083 415q17 -15 17 -50
v-297q0 -37 -14.5 -52.5t-48.5 -15.5h-894q-34 0 -48.5 15.5t-14.5 52.5t14.5 52.5t48.5 15.5h102v915h-102q-34 0 -48.5 15.5t-14.5 52.5t14.5 52.5t48.5 15.5h874q34 0 48.5 -15.5t14.5 -52.5v-254q0 -35 -17 -50t-58 -15t-58 15t-17 50v186h-535v-371h258v91
q0 35 15.5 50t55.5 15t55.5 -15t15.5 -50v-318q0 -35 -15.5 -50t-55.5 -15t-55.5 15t-15.5 50v91h-258v-408h555v229q0 35 17 50t58 15t58 -15z" />
    <glyph glyph-name="ebreve" unicode="&#x115;" 
d="M949 1351.5q13 -11.5 13 -30.5q0 -8 -1 -13q-23 -113 -106.5 -175t-220.5 -62t-220.5 62t-106.5 175q-1 5 -1 13q0 19 13 30.5t41 17.5q15 3 28 3q34 0 43 -24q23 -71 73 -105t130 -34q81 0 131 34t72 105q9 24 43 24q13 0 28 -3q28 -6 41 -17.5zM870.5 887.5
q102.5 -58.5 157.5 -162t63 -238.5q0 -34 -14.5 -48t-48.5 -14h-724q7 -149 88.5 -225.5t230.5 -76.5q92 0 182 23.5t158 62.5q17 9 31 9q35 0 57 -53q9 -21 9 -38q0 -40 -44 -62q-77 -39 -182 -63t-211 -24q-151 0 -258 58t-163 167t-56 259q0 143 61 253t169 170.5
t247 60.5q145 0 247.5 -58.5zM419.5 738.5q-80.5 -62.5 -105.5 -173.5h611q-21 115 -96.5 175.5t-205.5 60.5q-123 0 -203.5 -62.5z" />
    <glyph glyph-name="Edotaccent" unicode="&#x116;" 
d="M689 1618.5q20 -14.5 20 -50.5v-130q0 -36 -20 -50.5t-75 -14.5t-75 14.5t-20 50.5v130q0 36 20 50.5t75 14.5t75 -14.5zM1083 415q17 -15 17 -50v-297q0 -37 -14.5 -52.5t-48.5 -15.5h-894q-34 0 -48.5 15.5t-14.5 52.5t14.5 52.5t48.5 15.5h102v915h-102
q-34 0 -48.5 15.5t-14.5 52.5t14.5 52.5t48.5 15.5h874q34 0 48.5 -15.5t14.5 -52.5v-254q0 -35 -17 -50t-58 -15t-58 15t-17 50v186h-535v-371h258v91q0 35 15.5 50t55.5 15t55.5 -15t15.5 -50v-318q0 -35 -15.5 -50t-55.5 -15t-55.5 15t-15.5 50v91h-258v-408h555v229
q0 35 17 50t58 15t58 -15z" />
    <glyph glyph-name="edotaccent" unicode="&#x117;" 
d="M709 1348.5q20 -14.5 20 -50.5v-130q0 -36 -20 -50.5t-75 -14.5t-75 14.5t-20 50.5v130q0 36 20 50.5t75 14.5t75 -14.5zM870.5 887.5q102.5 -58.5 157.5 -162t63 -238.5q0 -34 -14.5 -48t-48.5 -14h-724q7 -149 88.5 -225.5t230.5 -76.5q92 0 182 23.5t158 62.5
q17 9 31 9q35 0 57 -53q9 -21 9 -38q0 -40 -44 -62q-77 -39 -182 -63t-211 -24q-151 0 -258 58t-163 167t-56 259q0 143 61 253t169 170.5t247 60.5q145 0 247.5 -58.5zM419.5 738.5q-80.5 -62.5 -105.5 -173.5h611q-21 115 -96.5 175.5t-205.5 60.5q-123 0 -203.5 -62.5z
" />
    <glyph glyph-name="Eogonek" unicode="&#x118;" 
d="M885.5 -144q-38.5 -61 -38.5 -116q0 -35 21 -54t56 -19q52 0 113 17q8 2 11 2q30 0 39 -54q2 -18 2 -25q0 -22 -8.5 -34.5t-25.5 -18.5q-75 -26 -164 -26q-93 0 -146.5 52t-53.5 139q0 73 40 142t116 139h-704q-34 0 -48.5 15.5t-14.5 52.5t14.5 52.5t48.5 15.5h102v915
h-102q-34 0 -48.5 15.5t-14.5 52.5t14.5 52.5t48.5 15.5h874q34 0 48.5 -15.5t14.5 -52.5v-254q0 -35 -17 -50t-58 -15t-58 15t-17 50v186h-535v-371h258v91q0 35 15.5 50t55.5 15t55.5 -15t15.5 -50v-318q0 -35 -15.5 -50t-55.5 -15t-55.5 15t-15.5 50v91h-258v-408h555
v229q0 35 17 50t58 15t58 -15t17 -50v-297q0 -37 -14.5 -52.5t-48.5 -15.5h-24q-89 -83 -127.5 -144z" />
    <glyph glyph-name="eogonek" unicode="&#x119;" 
d="M870.5 887.5q102.5 -58.5 157.5 -162t63 -238.5q0 -34 -14.5 -48t-48.5 -14h-724q7 -149 88.5 -225.5t230.5 -76.5q92 0 182 23.5t158 62.5q17 9 31 9q35 0 57 -53q9 -21 9 -38q0 -40 -44 -62q-27 -13 -88 -70q-86 -81 -123.5 -142t-37.5 -114q0 -36 21 -55.5t56 -19.5
q55 0 113 10q24 4 38 -13.5t14 -56.5q0 -20 -8.5 -32t-25.5 -18q-75 -26 -164 -26q-93 0 -146.5 52t-53.5 139q0 71 39.5 137.5t114.5 134.5q-75 -13 -142 -13q-151 0 -258 58t-163 167t-56 259q0 143 61 253t169 170.5t247 60.5q145 0 247.5 -58.5zM419.5 738.5
q-80.5 -62.5 -105.5 -173.5h611q-21 115 -96.5 175.5t-205.5 60.5q-123 0 -203.5 -62.5z" />
    <glyph glyph-name="Ecaron" unicode="&#x11a;" 
d="M556 1331l-245 233q-16 15 -16 33q0 21 23 47q21 24 44 24q16 0 31 -12l221 -173l221 173q15 12 31 12q23 0 44 -24q23 -26 23 -47q0 -18 -16 -33l-245 -233q-22 -20 -58 -20t-58 20zM1083 415q17 -15 17 -50v-297q0 -37 -14.5 -52.5t-48.5 -15.5h-894q-34 0 -48.5 15.5
t-14.5 52.5t14.5 52.5t48.5 15.5h102v915h-102q-34 0 -48.5 15.5t-14.5 52.5t14.5 52.5t48.5 15.5h874q34 0 48.5 -15.5t14.5 -52.5v-254q0 -35 -17 -50t-58 -15t-58 15t-17 50v186h-535v-371h258v91q0 35 15.5 50t55.5 15t55.5 -15t15.5 -50v-318q0 -35 -15.5 -50
t-55.5 -15t-55.5 15t-15.5 50v91h-258v-408h555v229q0 35 17 50t58 15t58 -15z" />
    <glyph glyph-name="ecaron" unicode="&#x11b;" 
d="M572 1061l-245 233q-16 15 -16 33q0 21 23 47q21 24 44 24q16 0 31 -12l221 -173l221 173q15 12 31 12q23 0 44 -24q23 -26 23 -47q0 -18 -16 -33l-245 -233q-22 -20 -58 -20t-58 20zM870.5 887.5q102.5 -58.5 157.5 -162t63 -238.5q0 -34 -14.5 -48t-48.5 -14h-724
q7 -149 88.5 -225.5t230.5 -76.5q92 0 182 23.5t158 62.5q17 9 31 9q35 0 57 -53q9 -21 9 -38q0 -40 -44 -62q-77 -39 -182 -63t-211 -24q-151 0 -258 58t-163 167t-56 259q0 143 61 253t169 170.5t247 60.5q145 0 247.5 -58.5zM419.5 738.5q-80.5 -62.5 -105.5 -173.5h611
q-21 115 -96.5 175.5t-205.5 60.5q-123 0 -203.5 -62.5z" />
    <glyph glyph-name="Gcircumflex" unicode="&#x11c;" 
d="M702 1646l245 -233q16 -15 16 -33q0 -21 -23 -47q-21 -24 -44 -24q-16 0 -31 12l-221 173l-221 -173q-15 -12 -31 -12q-23 0 -44 24q-23 26 -23 47q0 18 16 33l245 233q22 20 58 20t58 -20zM1045 1194q17 -15 17 -50v-290q0 -35 -17 -50t-58 -15t-58 15t-17 50
q0 60 -32.5 107t-95.5 73.5t-150 26.5q-111 0 -196.5 -57t-133.5 -163t-48 -248t45.5 -247.5t129 -162.5t193.5 -57q175 0 299 57v227h-247q-34 0 -48.5 15.5t-14.5 52.5t14.5 52.5t48.5 15.5h429q34 0 48.5 -15.5t14.5 -52.5t-14.5 -52.5t-48.5 -15.5h-32v-267
q0 -49 -36 -69q-82 -47 -189 -71.5t-224 -24.5q-156 0 -275.5 76.5t-185 216t-65.5 322.5q0 182 67.5 322t187 217t271.5 77q94 0 166.5 -29.5t121.5 -84.5v49q0 35 17 50t58 15t58 -15z" />
    <glyph glyph-name="gcircumflex" unicode="&#x11d;" 
d="M672 1376l245 -233q16 -15 16 -33q0 -21 -23 -47q-21 -24 -44 -24q-16 0 -31 12l-221 173l-221 -173q-15 -12 -31 -12q-23 0 -44 24q-23 26 -23 47q0 18 16 33l245 233q22 20 58 20t58 -20zM740 902q83 -44 146 -126v80q0 37 14.5 52.5t48.5 15.5h159q34 0 48.5 -15.5
t14.5 -52.5t-14.5 -52.5t-48.5 -15.5h-82v-818q0 -119 -50.5 -204.5t-146.5 -130.5t-231 -45q-96 0 -194 16.5t-183 47.5q-39 14 -39 53q0 16 8 40q18 55 57 55q11 0 22 -4q78 -28 164 -44t165 -16q138 0 208 65.5t70 179.5v201q-124 -156 -317 -156q-124 0 -222 55.5
t-154 159.5t-56 244t56 244t154 159.5t222 55.5q98 0 181 -44zM416 758.5q-64 -39.5 -97.5 -110t-33.5 -161.5t33.5 -161.5t97.5 -110t153 -39.5t158.5 37t109 107.5t39.5 166.5t-39.5 166.5t-109 107.5t-158.5 37t-153 -39.5z" />
    <glyph glyph-name="Gbreve" unicode="&#x11e;" 
d="M939 1621.5q13 -11.5 13 -30.5q0 -8 -1 -13q-23 -113 -106.5 -175t-220.5 -62t-220.5 62t-106.5 175q-1 5 -1 13q0 19 13 30.5t41 17.5q15 3 28 3q34 0 43 -24q23 -71 73 -105t130 -34q81 0 131 34t72 105q9 24 43 24q13 0 28 -3q28 -6 41 -17.5zM1045 1194
q17 -15 17 -50v-290q0 -35 -17 -50t-58 -15t-58 15t-17 50q0 60 -32.5 107t-95.5 73.5t-150 26.5q-111 0 -196.5 -57t-133.5 -163t-48 -248t45.5 -247.5t129 -162.5t193.5 -57q175 0 299 57v227h-247q-34 0 -48.5 15.5t-14.5 52.5t14.5 52.5t48.5 15.5h429q34 0 48.5 -15.5
t14.5 -52.5t-14.5 -52.5t-48.5 -15.5h-32v-267q0 -49 -36 -69q-82 -47 -189 -71.5t-224 -24.5q-156 0 -275.5 76.5t-185 216t-65.5 322.5q0 182 67.5 322t187 217t271.5 77q94 0 166.5 -29.5t121.5 -84.5v49q0 35 17 50t58 15t58 -15z" />
    <glyph glyph-name="gbreve" unicode="&#x11f;" 
d="M929 1351.5q13 -11.5 13 -30.5q0 -8 -1 -13q-23 -113 -106.5 -175t-220.5 -62t-220.5 62t-106.5 175q-1 5 -1 13q0 19 13 30.5t41 17.5q15 3 28 3q34 0 43 -24q23 -71 73 -105t130 -34q81 0 131 34t72 105q9 24 43 24q13 0 28 -3q28 -6 41 -17.5zM740 902
q83 -44 146 -126v80q0 37 14.5 52.5t48.5 15.5h159q34 0 48.5 -15.5t14.5 -52.5t-14.5 -52.5t-48.5 -15.5h-82v-818q0 -119 -50.5 -204.5t-146.5 -130.5t-231 -45q-96 0 -194 16.5t-183 47.5q-39 14 -39 53q0 16 8 40q18 55 57 55q11 0 22 -4q78 -28 164 -44t165 -16
q138 0 208 65.5t70 179.5v201q-124 -156 -317 -156q-124 0 -222 55.5t-154 159.5t-56 244t56 244t154 159.5t222 55.5q98 0 181 -44zM416 758.5q-64 -39.5 -97.5 -110t-33.5 -161.5t33.5 -161.5t97.5 -110t153 -39.5t158.5 37t109 107.5t39.5 166.5t-39.5 166.5t-109 107.5
t-158.5 37t-153 -39.5z" />
    <glyph glyph-name="Gdotaccent" unicode="&#x120;" 
d="M699 1618.5q20 -14.5 20 -50.5v-130q0 -36 -20 -50.5t-75 -14.5t-75 14.5t-20 50.5v130q0 36 20 50.5t75 14.5t75 -14.5zM1045 1194q17 -15 17 -50v-290q0 -35 -17 -50t-58 -15t-58 15t-17 50q0 60 -32.5 107t-95.5 73.5t-150 26.5q-111 0 -196.5 -57t-133.5 -163
t-48 -248t45.5 -247.5t129 -162.5t193.5 -57q175 0 299 57v227h-247q-34 0 -48.5 15.5t-14.5 52.5t14.5 52.5t48.5 15.5h429q34 0 48.5 -15.5t14.5 -52.5t-14.5 -52.5t-48.5 -15.5h-32v-267q0 -49 -36 -69q-82 -47 -189 -71.5t-224 -24.5q-156 0 -275.5 76.5t-185 216
t-65.5 322.5q0 182 67.5 322t187 217t271.5 77q94 0 166.5 -29.5t121.5 -84.5v49q0 35 17 50t58 15t58 -15z" />
    <glyph glyph-name="gdotaccent" unicode="&#x121;" 
d="M689 1348.5q20 -14.5 20 -50.5v-130q0 -36 -20 -50.5t-75 -14.5t-75 14.5t-20 50.5v130q0 36 20 50.5t75 14.5t75 -14.5zM740 902q83 -44 146 -126v80q0 37 14.5 52.5t48.5 15.5h159q34 0 48.5 -15.5t14.5 -52.5t-14.5 -52.5t-48.5 -15.5h-82v-818q0 -119 -50.5 -204.5
t-146.5 -130.5t-231 -45q-96 0 -194 16.5t-183 47.5q-39 14 -39 53q0 16 8 40q18 55 57 55q11 0 22 -4q78 -28 164 -44t165 -16q138 0 208 65.5t70 179.5v201q-124 -156 -317 -156q-124 0 -222 55.5t-154 159.5t-56 244t56 244t154 159.5t222 55.5q98 0 181 -44zM416 758.5
q-64 -39.5 -97.5 -110t-33.5 -161.5t33.5 -161.5t97.5 -110t153 -39.5t158.5 37t109 107.5t39.5 166.5t-39.5 166.5t-109 107.5t-158.5 37t-153 -39.5z" />
    <glyph glyph-name="uni0122" unicode="&#x122;" 
d="M496 -514q-17 12 -17 33q0 4 2 16l63 287q8 32 42 32h116q28 0 28 -26q0 -12 -6 -25l-117 -291q-15 -38 -59 -38q-35 0 -52 12zM1045 1194q17 -15 17 -50v-290q0 -35 -17 -50t-58 -15t-58 15t-17 50q0 60 -32.5 107t-95.5 73.5t-150 26.5q-111 0 -196.5 -57t-133.5 -163
t-48 -248t45.5 -247.5t129 -162.5t193.5 -57q175 0 299 57v227h-247q-34 0 -48.5 15.5t-14.5 52.5t14.5 52.5t48.5 15.5h429q34 0 48.5 -15.5t14.5 -52.5t-14.5 -52.5t-48.5 -15.5h-32v-267q0 -49 -36 -69q-82 -47 -189 -71.5t-224 -24.5q-156 0 -275.5 76.5t-185 216
t-65.5 322.5q0 182 67.5 322t187 217t271.5 77q94 0 166.5 -29.5t121.5 -84.5v49q0 35 17 50t58 15t58 -15z" />
    <glyph glyph-name="uni0123" unicode="&#x123;" 
d="M750 1432q17 -12 17 -33q0 -4 -2 -16l-63 -287q-8 -32 -42 -32h-116q-28 0 -28 26q0 12 6 25l117 291q15 38 59 38q35 0 52 -12zM740 902q83 -44 146 -126v80q0 37 14.5 52.5t48.5 15.5h159q34 0 48.5 -15.5t14.5 -52.5t-14.5 -52.5t-48.5 -15.5h-82v-818
q0 -119 -50.5 -204.5t-146.5 -130.5t-231 -45q-96 0 -194 16.5t-183 47.5q-39 14 -39 53q0 16 8 40q18 55 57 55q11 0 22 -4q78 -28 164 -44t165 -16q138 0 208 65.5t70 179.5v201q-124 -156 -317 -156q-124 0 -222 55.5t-154 159.5t-56 244t56 244t154 159.5t222 55.5
q98 0 181 -44zM416 758.5q-64 -39.5 -97.5 -110t-33.5 -161.5t33.5 -161.5t97.5 -110t153 -39.5t158.5 37t109 107.5t39.5 166.5t-39.5 166.5t-109 107.5t-158.5 37t-153 -39.5z" />
    <glyph glyph-name="Hcircumflex" unicode="&#x124;" 
d="M672 1646l245 -233q16 -15 16 -33q0 -21 -23 -47q-21 -24 -44 -24q-16 0 -31 12l-221 173l-221 -173q-15 -12 -31 -12q-23 0 -44 24q-23 26 -23 47q0 18 16 33l245 233q22 20 58 20t58 -20zM1133.5 1171.5q14.5 -15.5 14.5 -52.5t-14.5 -52.5t-48.5 -15.5h-72v-915h72
q34 0 48.5 -15.5t14.5 -52.5t-14.5 -52.5t-48.5 -15.5h-314q-34 0 -48.5 15.5t-14.5 52.5t14.5 52.5t48.5 15.5h92v408h-498v-408h92q34 0 48.5 -15.5t14.5 -52.5t-14.5 -52.5t-48.5 -15.5h-314q-34 0 -48.5 15.5t-14.5 52.5t14.5 52.5t48.5 15.5h72v915h-72
q-34 0 -48.5 15.5t-14.5 52.5t14.5 52.5t48.5 15.5h314q34 0 48.5 -15.5t14.5 -52.5t-14.5 -52.5t-48.5 -15.5h-92v-371h498v371h-92q-34 0 -48.5 15.5t-14.5 52.5t14.5 52.5t48.5 15.5h314q34 0 48.5 -15.5z" />
    <glyph glyph-name="hcircumflex" unicode="&#x125;" 
d="M662 1746l245 -233q16 -15 16 -33q0 -21 -23 -47q-21 -24 -44 -24q-16 0 -31 12l-221 173l-221 -173q-15 -12 -31 -12q-23 0 -44 24q-23 26 -23 47q0 18 16 33l245 233q22 20 58 20t58 -20zM367.5 1296.5q14.5 -15.5 14.5 -52.5v-498q65 97 150.5 148.5t184.5 51.5
q91 0 158 -39.5t103 -113.5t36 -173v-484h82q34 0 48.5 -15.5t14.5 -52.5t-14.5 -52.5t-48.5 -15.5h-324q-34 0 -48.5 15.5t-14.5 52.5t14.5 52.5t48.5 15.5h92v469q0 89 -41 141t-121 52q-85 0 -158.5 -49t-117.5 -135t-44 -192v-286h92q34 0 48.5 -15.5t14.5 -52.5
t-14.5 -52.5t-48.5 -15.5h-324q-34 0 -48.5 15.5t-14.5 52.5t14.5 52.5t48.5 15.5h82v1040h-92q-34 0 -48.5 15.5t-14.5 52.5t14.5 52.5t48.5 15.5h179q34 0 48.5 -15.5z" />
    <glyph glyph-name="Hbar" unicode="&#x126;" 
d="M1133.5 1171.5q14.5 -15.5 14.5 -52.5t-14.5 -52.5t-48.5 -15.5h-72v-127h122q34 0 48.5 -15.5t14.5 -52.5t-14.5 -52.5t-48.5 -15.5h-122v-652h72q34 0 48.5 -15.5t14.5 -52.5t-14.5 -52.5t-48.5 -15.5h-314q-34 0 -48.5 15.5t-14.5 52.5t14.5 52.5t48.5 15.5h92v408
h-498v-408h92q34 0 48.5 -15.5t14.5 -52.5t-14.5 -52.5t-48.5 -15.5h-314q-34 0 -48.5 15.5t-14.5 52.5t14.5 52.5t48.5 15.5h72v652h-122q-34 0 -48.5 15.5t-14.5 52.5t14.5 52.5t48.5 15.5h122v127h-72q-34 0 -48.5 15.5t-14.5 52.5t14.5 52.5t48.5 15.5h314
q34 0 48.5 -15.5t14.5 -52.5t-14.5 -52.5t-48.5 -15.5h-92v-127h498v127h-92q-34 0 -48.5 15.5t-14.5 52.5t14.5 52.5t48.5 15.5h314q34 0 48.5 -15.5zM365 788v-108h498v108h-498z" />
    <glyph glyph-name="hbar" unicode="&#x127;" 
d="M1144.5 120.5q14.5 -15.5 14.5 -52.5t-14.5 -52.5t-48.5 -15.5h-324q-34 0 -48.5 15.5t-14.5 52.5t14.5 52.5t48.5 15.5h92v409q0 89 -41 141t-121 52q-85 0 -158.5 -49t-117.5 -135t-44 -192v-226h92q34 0 48.5 -15.5t14.5 -52.5t-14.5 -52.5t-48.5 -15.5h-324
q-34 0 -48.5 15.5t-14.5 52.5t14.5 52.5t48.5 15.5h82v834h-149q-34 0 -48.5 15.5t-14.5 52.5t14.5 52.5t48.5 15.5h149v70h-92q-34 0 -48.5 15.5t-14.5 52.5t14.5 52.5t48.5 15.5h179q34 0 48.5 -15.5t14.5 -52.5v-138h243q34 0 48.5 -15.5t14.5 -52.5t-14.5 -52.5
t-48.5 -15.5h-243v-284q65 97 150.5 148.5t184.5 51.5q91 0 158 -39.5t103 -113.5t36 -173v-424h82q34 0 48.5 -15.5z" />
    <glyph glyph-name="Itilde" unicode="&#x128;" 
d="M557.5 1575.5q28.5 -9.5 68.5 -27.5q35 -17 59 -25t50 -8q32 0 62.5 17t63.5 51q12 12 29 12q25 0 47 -25q21 -22 21 -45q0 -19 -14 -36q-48 -62 -102.5 -92.5t-107.5 -30.5q-35 0 -63.5 9.5t-68.5 27.5q-35 17 -59 25t-50 8q-32 0 -62.5 -17t-63.5 -51q-12 -12 -29 -12
q-25 0 -47 25q-21 22 -21 45q0 19 14 36q48 62 102.5 92.5t107.5 30.5q35 0 63.5 -9.5zM993.5 1171.5q14.5 -15.5 14.5 -52.5t-14.5 -52.5t-48.5 -15.5h-256v-915h276q34 0 48.5 -15.5t14.5 -52.5t-14.5 -52.5t-48.5 -15.5h-702q-34 0 -48.5 15.5t-14.5 52.5t14.5 52.5
t48.5 15.5h276v915h-256q-34 0 -48.5 15.5t-14.5 52.5t14.5 52.5t48.5 15.5h662q34 0 48.5 -15.5z" />
    <glyph glyph-name="itilde" unicode="&#x129;" 
d="M537.5 1305.5q28.5 -9.5 68.5 -27.5q35 -17 59 -25t50 -8q32 0 62.5 17t63.5 51q12 12 29 12q25 0 47 -25q21 -22 21 -45q0 -19 -14 -36q-48 -62 -102.5 -92.5t-107.5 -30.5q-35 0 -63.5 9.5t-68.5 27.5q-35 17 -59 25t-50 8q-32 0 -62.5 -17t-63.5 -51q-12 -12 -29 -12
q-25 0 -47 25q-21 22 -21 45q0 19 14 36q48 62 102.5 92.5t107.5 30.5q35 0 63.5 -9.5zM698.5 908.5q14.5 -15.5 14.5 -52.5v-720h321q34 0 48.5 -15.5t14.5 -52.5t-14.5 -52.5t-48.5 -15.5h-784q-34 0 -48.5 15.5t-14.5 52.5t14.5 52.5t48.5 15.5h313v652h-253
q-34 0 -48.5 15.5t-14.5 52.5t14.5 52.5t48.5 15.5h340q34 0 48.5 -15.5z" />
    <glyph glyph-name="Imacron" unicode="&#x12a;" 
d="M993.5 1171.5q14.5 -15.5 14.5 -52.5t-14.5 -52.5t-48.5 -15.5h-256v-915h276q34 0 48.5 -15.5t14.5 -52.5t-14.5 -52.5t-48.5 -15.5h-702q-34 0 -48.5 15.5t-14.5 52.5t14.5 52.5t48.5 15.5h276v915h-256q-34 0 -48.5 15.5t-14.5 52.5t14.5 52.5t48.5 15.5h662
q34 0 48.5 -15.5zM923.5 1503.5q14.5 -16.5 14.5 -55.5t-14.5 -55.5t-48.5 -16.5h-522q-34 0 -48.5 16.5t-14.5 55.5t14.5 55.5t48.5 16.5h522q34 0 48.5 -16.5z" />
    <glyph glyph-name="imacron" unicode="&#x12b;" 
d="M698.5 908.5q14.5 -15.5 14.5 -52.5v-720h321q34 0 48.5 -15.5t14.5 -52.5t-14.5 -52.5t-48.5 -15.5h-784q-34 0 -48.5 15.5t-14.5 52.5t14.5 52.5t48.5 15.5h313v652h-253q-34 0 -48.5 15.5t-14.5 52.5t14.5 52.5t48.5 15.5h340q34 0 48.5 -15.5zM913.5 1233.5
q14.5 -16.5 14.5 -55.5t-14.5 -55.5t-48.5 -16.5h-522q-34 0 -48.5 16.5t-14.5 55.5t14.5 55.5t48.5 16.5h522q34 0 48.5 -16.5z" />
    <glyph glyph-name="Ibreve" unicode="&#x12c;" 
d="M929 1621.5q13 -11.5 13 -30.5q0 -8 -1 -13q-23 -113 -106.5 -175t-220.5 -62t-220.5 62t-106.5 175q-1 5 -1 13q0 19 13 30.5t41 17.5q15 3 28 3q34 0 43 -24q23 -71 73 -105t130 -34q81 0 131 34t72 105q9 24 43 24q13 0 28 -3q28 -6 41 -17.5zM993.5 1171.5
q14.5 -15.5 14.5 -52.5t-14.5 -52.5t-48.5 -15.5h-256v-915h276q34 0 48.5 -15.5t14.5 -52.5t-14.5 -52.5t-48.5 -15.5h-702q-34 0 -48.5 15.5t-14.5 52.5t14.5 52.5t48.5 15.5h276v915h-256q-34 0 -48.5 15.5t-14.5 52.5t14.5 52.5t48.5 15.5h662q34 0 48.5 -15.5z" />
    <glyph glyph-name="ibreve" unicode="&#x12d;" 
d="M919 1351.5q13 -11.5 13 -30.5q0 -8 -1 -13q-23 -113 -106.5 -175t-220.5 -62t-220.5 62t-106.5 175q-1 5 -1 13q0 19 13 30.5t41 17.5q15 3 28 3q34 0 43 -24q23 -71 73 -105t130 -34q81 0 131 34t72 105q9 24 43 24q13 0 28 -3q28 -6 41 -17.5zM698.5 908.5
q14.5 -15.5 14.5 -52.5v-720h321q34 0 48.5 -15.5t14.5 -52.5t-14.5 -52.5t-48.5 -15.5h-784q-34 0 -48.5 15.5t-14.5 52.5t14.5 52.5t48.5 15.5h313v652h-253q-34 0 -48.5 15.5t-14.5 52.5t14.5 52.5t48.5 15.5h340q34 0 48.5 -15.5z" />
    <glyph glyph-name="Iogonek" unicode="&#x12e;" 
d="M1013.5 120.5q14.5 -15.5 14.5 -52.5t-14.5 -52.5t-48.5 -15.5h-272q-89 -83 -127.5 -144t-38.5 -116q0 -35 21 -54t56 -19q52 0 113 17q8 2 11 2q30 0 39 -54q2 -18 2 -25q0 -22 -8.5 -34.5t-25.5 -18.5q-75 -26 -164 -26q-93 0 -146.5 52t-53.5 139q0 73 40 142
t116 139h-264q-34 0 -48.5 15.5t-14.5 52.5t14.5 52.5t48.5 15.5h276v915h-256q-34 0 -48.5 15.5t-14.5 52.5t14.5 52.5t48.5 15.5h662q34 0 48.5 -15.5t14.5 -52.5t-14.5 -52.5t-48.5 -15.5h-256v-915h276q34 0 48.5 -15.5z" />
    <glyph glyph-name="iogonek" unicode="&#x12f;" 
d="M543 1117.5q-20 14.5 -20 50.5v130q0 36 20 50.5t75 14.5t75 -14.5t20 -50.5v-130q0 -36 -20 -50.5t-75 -14.5t-75 14.5zM1082.5 120.5q14.5 -15.5 14.5 -52.5t-14.5 -52.5t-48.5 -15.5h-321q-89 -83 -127.5 -144t-38.5 -116q0 -35 21 -54t56 -19q52 0 113 17q8 2 11 2
q30 0 39 -54q2 -18 2 -25q0 -22 -8.5 -34.5t-25.5 -18.5q-75 -26 -164 -26q-93 0 -146.5 52t-53.5 139q0 73 40 142t116 139h-297q-34 0 -48.5 15.5t-14.5 52.5t14.5 52.5t48.5 15.5h313v652h-253q-34 0 -48.5 15.5t-14.5 52.5t14.5 52.5t48.5 15.5h340q34 0 48.5 -15.5
t14.5 -52.5v-720h321q34 0 48.5 -15.5z" />
    <glyph glyph-name="Idotaccent" unicode="&#x130;" 
d="M689 1618.5q20 -14.5 20 -50.5v-130q0 -36 -20 -50.5t-75 -14.5t-75 14.5t-20 50.5v130q0 36 20 50.5t75 14.5t75 -14.5zM993.5 1171.5q14.5 -15.5 14.5 -52.5t-14.5 -52.5t-48.5 -15.5h-256v-915h276q34 0 48.5 -15.5t14.5 -52.5t-14.5 -52.5t-48.5 -15.5h-702
q-34 0 -48.5 15.5t-14.5 52.5t14.5 52.5t48.5 15.5h276v915h-256q-34 0 -48.5 15.5t-14.5 52.5t14.5 52.5t48.5 15.5h662q34 0 48.5 -15.5z" />
    <glyph glyph-name="dotlessi" unicode="&#x131;" 
d="M698.5 908.5q14.5 -15.5 14.5 -52.5v-720h321q34 0 48.5 -15.5t14.5 -52.5t-14.5 -52.5t-48.5 -15.5h-784q-34 0 -48.5 15.5t-14.5 52.5t14.5 52.5t48.5 15.5h313v652h-253q-34 0 -48.5 15.5t-14.5 52.5t14.5 52.5t48.5 15.5h340q34 0 48.5 -15.5z" />
    <glyph glyph-name="IJ" unicode="&#x132;" 
d="M463.5 1171.5q14.5 -15.5 14.5 -52.5t-14.5 -52.5t-48.5 -15.5h-86v-915h96q34 0 48.5 -15.5t14.5 -52.5t-14.5 -52.5t-48.5 -15.5h-342q-34 0 -48.5 15.5t-14.5 52.5t14.5 52.5t48.5 15.5h96v915h-86q-34 0 -48.5 15.5t-14.5 52.5t14.5 52.5t48.5 15.5h322
q34 0 48.5 -15.5zM1193.5 1171.5q14.5 -15.5 14.5 -52.5t-14.5 -52.5t-48.5 -15.5h-71v-818q0 -123 -66 -189t-204 -66q-66 0 -127 27.5t-106 73.5q-16 16 -16 51v285q0 35 17 50t58 15t58 -15t17 -50v-254q38 -35 100 -35t90.5 32.5t28.5 104.5v788h-141q-34 0 -48.5 15.5
t-14.5 52.5t14.5 52.5t48.5 15.5h362q34 0 48.5 -15.5z" />
    <glyph glyph-name="ij" unicode="&#x133;" 
d="M413 1348.5q20 -14.5 20 -50.5v-130q0 -36 -20 -50.5t-75 -14.5t-75 14.5t-20 50.5v130q0 36 20 50.5t75 14.5t75 -14.5zM1053 1348.5q20 -14.5 20 -50.5v-130q0 -36 -20 -50.5t-75 -14.5t-75 14.5t-20 50.5v130q0 36 20 50.5t75 14.5t75 -14.5zM418.5 908.5
q14.5 -15.5 14.5 -52.5v-720h171q34 0 48.5 -15.5t14.5 -52.5t-14.5 -52.5t-48.5 -15.5h-484q-34 0 -48.5 15.5t-14.5 52.5t14.5 52.5t48.5 15.5h163v652h-123q-34 0 -48.5 15.5t-14.5 52.5t14.5 52.5t48.5 15.5h210q34 0 48.5 -15.5zM1058.5 908.5q14.5 -15.5 14.5 -52.5
v-913q0 -176 -78.5 -264.5t-248.5 -88.5q-74 0 -149.5 19.5t-139.5 49.5q-40 18 -40 56q0 18 8 38q20 52 57 52q13 0 26 -6q131 -63 238 -63q98 0 137.5 53t39.5 167v832h-223q-34 0 -48.5 15.5t-14.5 52.5t14.5 52.5t48.5 15.5h310q34 0 48.5 -15.5z" />
    <glyph glyph-name="Jcircumflex" unicode="&#x134;" 
d="M832 1646l245 -233q16 -15 16 -33q0 -21 -23 -47q-21 -24 -44 -24q-16 0 -31 12l-221 173l-221 -173q-15 -12 -31 -12q-23 0 -44 24q-23 26 -23 47q0 18 16 33l245 233q22 20 58 20t58 -20zM1143.5 1171.5q14.5 -15.5 14.5 -52.5t-14.5 -52.5t-48.5 -15.5h-201v-718
q0 -175 -102 -265t-298 -90q-114 0 -206.5 40.5t-156.5 110.5q-16 19 -16 51v285q0 35 17 50t58 15t58 -15t17 -50v-264q84 -75 230 -75q131 0 190 58t59 179v688h-341q-34 0 -48.5 15.5t-14.5 52.5t14.5 52.5t48.5 15.5h692q34 0 48.5 -15.5z" />
    <glyph glyph-name="jcircumflex" unicode="&#x135;" 
d="M782 1376l245 -233q16 -15 16 -33q0 -21 -23 -47q-21 -24 -44 -24q-16 0 -31 12l-221 173l-221 -173q-15 -12 -31 -12q-23 0 -44 24q-23 26 -23 47q0 18 16 33l245 233q22 20 58 20t58 -20zM888.5 908.5q14.5 -15.5 14.5 -52.5v-913q0 -176 -78.5 -264.5t-248.5 -88.5
q-83 0 -179 31.5t-174 80.5q-33 20 -33 52q0 19 13 45q24 46 58 46q17 0 31 -10q69 -45 143 -72t141 -27q98 0 137.5 53t39.5 167v832h-423q-34 0 -48.5 15.5t-14.5 52.5t14.5 52.5t48.5 15.5h510q34 0 48.5 -15.5z" />
    <glyph glyph-name="uni0136" unicode="&#x136;" 
d="M496 -514q-17 12 -17 33q0 4 2 16l63 287q8 32 42 32h116q28 0 28 -26q0 -12 -6 -25l-117 -291q-15 -38 -59 -38q-35 0 -52 12zM1143.5 1171.5q14.5 -15.5 14.5 -52.5t-14.5 -52.5t-48.5 -15.5h-61l-419 -405q8 1 24 1q131 0 209 -100q31 -40 54.5 -90t51.5 -125
q4 -10 20.5 -52.5t32.5 -71.5q39 -72 90 -72h28q34 0 48.5 -15.5t14.5 -52.5t-14.5 -52.5t-48.5 -15.5h-82q-101 0 -172 139q-25 50 -59 137q-23 61 -42 103t-42 75q-24 34 -60.5 52t-82.5 18q-42 0 -81 -15t-69 -44l-30 -29v-300h162q34 0 48.5 -15.5t14.5 -52.5
t-14.5 -52.5t-48.5 -15.5h-424q-34 0 -48.5 15.5t-14.5 52.5t14.5 52.5t48.5 15.5h112v915h-112q-34 0 -48.5 15.5t-14.5 52.5t14.5 52.5t48.5 15.5h354q34 0 48.5 -15.5t14.5 -52.5t-14.5 -52.5t-48.5 -15.5h-92v-429l438 429h-72q-34 0 -48.5 15.5t-14.5 52.5t14.5 52.5
t48.5 15.5h324q34 0 48.5 -15.5z" />
    <glyph glyph-name="uni0137" unicode="&#x137;" 
d="M466 -514q-17 12 -17 33q0 4 2 16l63 287q8 32 42 32h116q28 0 28 -26q0 -12 -6 -25l-117 -291q-15 -38 -59 -38q-35 0 -52 12zM1144.5 120.5q14.5 -15.5 14.5 -52.5t-14.5 -52.5t-48.5 -15.5h-324q-34 0 -48.5 15.5t-14.5 52.5t14.5 52.5t48.5 15.5h72l-251 298
l-182 -160v-138h73q34 0 48.5 -15.5t14.5 -52.5t-14.5 -52.5t-48.5 -15.5h-334q-34 0 -48.5 15.5t-14.5 52.5t14.5 52.5t48.5 15.5h111v1040h-131q-34 0 -48.5 15.5t-14.5 52.5t14.5 52.5t48.5 15.5h218q34 0 48.5 -15.5t14.5 -52.5v-792l381 336h-71q-34 0 -48.5 15.5
t-14.5 52.5t14.5 52.5t48.5 15.5h334q34 0 48.5 -15.5t14.5 -52.5t-14.5 -52.5t-48.5 -15.5h-59l-294 -259l336 -393h58q34 0 48.5 -15.5z" />
    <glyph glyph-name="kgreenlandic" unicode="&#x138;" horiz-adv-x="1094" 
d="M825 1098h217l-415 -486l448 -612h-215l-360 496l-135 -111v-385h-191v1098h191v-285q0 -139 -13 -276l84 102z" />
    <glyph glyph-name="Lacute" unicode="&#x139;" 
d="M616 1685q34 0 67 -41q30 -39 30 -68q0 -26 -22 -39l-374 -219q-18 -10 -32 -10q-24 0 -46 25q-24 27 -24 52q0 19 16 31l348 256q18 13 37 13zM745.5 1171.5q14.5 -15.5 14.5 -52.5t-14.5 -52.5t-48.5 -15.5h-242v-915h495v329q0 35 17 50t58 15t58 -15t17 -50v-397
q0 -37 -14.5 -52.5t-48.5 -15.5h-894q-34 0 -48.5 15.5t-14.5 52.5t14.5 52.5t48.5 15.5h162v915h-162q-34 0 -48.5 15.5t-14.5 52.5t14.5 52.5t48.5 15.5h554q34 0 48.5 -15.5z" />
    <glyph glyph-name="lacute" unicode="&#x13a;" 
d="M786 1785q34 0 67 -41q30 -39 30 -68q0 -26 -22 -39l-374 -219q-18 -10 -32 -10q-24 0 -46 25q-24 27 -24 52q0 19 16 31l348 256q18 13 37 13zM688.5 1296.5q14.5 -15.5 14.5 -52.5v-1108h321q34 0 48.5 -15.5t14.5 -52.5t-14.5 -52.5t-48.5 -15.5h-784
q-34 0 -48.5 15.5t-14.5 52.5t14.5 52.5t48.5 15.5h313v1040h-273q-34 0 -48.5 15.5t-14.5 52.5t14.5 52.5t48.5 15.5h360q34 0 48.5 -15.5z" />
    <glyph glyph-name="uni013B" unicode="&#x13b;" 
d="M486 -514q-17 12 -17 33q0 4 2 16l63 287q8 32 42 32h116q28 0 28 -26q0 -12 -6 -25l-117 -291q-15 -38 -59 -38q-35 0 -52 12zM745.5 1171.5q14.5 -15.5 14.5 -52.5t-14.5 -52.5t-48.5 -15.5h-242v-915h495v329q0 35 17 50t58 15t58 -15t17 -50v-397q0 -37 -14.5 -52.5
t-48.5 -15.5h-894q-34 0 -48.5 15.5t-14.5 52.5t14.5 52.5t48.5 15.5h162v915h-162q-34 0 -48.5 15.5t-14.5 52.5t14.5 52.5t48.5 15.5h554q34 0 48.5 -15.5z" />
    <glyph glyph-name="uni013C" unicode="&#x13c;" 
d="M486 -514q-17 12 -17 33q0 4 2 16l63 287q8 32 42 32h116q28 0 28 -26q0 -12 -6 -25l-117 -291q-15 -38 -59 -38q-35 0 -52 12zM688.5 1296.5q14.5 -15.5 14.5 -52.5v-1108h321q34 0 48.5 -15.5t14.5 -52.5t-14.5 -52.5t-48.5 -15.5h-784q-34 0 -48.5 15.5t-14.5 52.5
t14.5 52.5t48.5 15.5h313v1040h-273q-34 0 -48.5 15.5t-14.5 52.5t14.5 52.5t48.5 15.5h360q34 0 48.5 -15.5z" />
    <glyph glyph-name="Lcaron" unicode="&#x13d;" 
d="M1131 1179.5q7 -7.5 7 -19.5q0 -9 -5 -24l-134 -363q-13 -36 -74 -36q-28 0 -43 11t-15 31q0 4 2 14l82 362q8 32 42 32h118q13 0 20 -7.5zM745.5 1171.5q14.5 -15.5 14.5 -52.5t-14.5 -52.5t-48.5 -15.5h-242v-915h495v329q0 35 17 50t58 15t58 -15t17 -50v-397
q0 -37 -14.5 -52.5t-48.5 -15.5h-894q-34 0 -48.5 15.5t-14.5 52.5t14.5 52.5t48.5 15.5h162v915h-162q-34 0 -48.5 15.5t-14.5 52.5t14.5 52.5t48.5 15.5h554q34 0 48.5 -15.5z" />
    <glyph glyph-name="lcaron" unicode="&#x13e;" 
d="M1121 1304.5q7 -7.5 7 -19.5q0 -9 -5 -24l-134 -363q-13 -36 -74 -36q-28 0 -43 11t-15 31q0 4 2 14l82 362q8 32 42 32h118q13 0 20 -7.5zM658.5 1296.5q14.5 -15.5 14.5 -52.5v-1108h321q34 0 48.5 -15.5t14.5 -52.5t-14.5 -52.5t-48.5 -15.5h-784q-34 0 -48.5 15.5
t-14.5 52.5t14.5 52.5t48.5 15.5h313v1040h-273q-34 0 -48.5 15.5t-14.5 52.5t14.5 52.5t48.5 15.5h360q34 0 48.5 -15.5z" />
    <glyph glyph-name="Ldot" unicode="&#x13f;" 
d="M745.5 1171.5q14.5 -15.5 14.5 -52.5t-14.5 -52.5t-48.5 -15.5h-242v-915h495v329q0 35 17 50t58 15t58 -15t17 -50v-397q0 -37 -14.5 -52.5t-48.5 -15.5h-894q-34 0 -48.5 15.5t-14.5 52.5t14.5 52.5t48.5 15.5h162v915h-162q-34 0 -48.5 15.5t-14.5 52.5t14.5 52.5
t48.5 15.5h554q34 0 48.5 -15.5zM814.5 832q32.5 -19 51.5 -51.5t19 -70.5t-19 -70.5t-51.5 -51.5t-70.5 -19t-70.5 19t-51.5 51.5t-19 70.5t19 70.5t51.5 51.5t70.5 19t70.5 -19z" />
    <glyph glyph-name="ldot" unicode="&#x140;" 
d="M1049 848.5q20 -14.5 20 -50.5v-130q0 -36 -20 -50.5t-75 -14.5t-75 14.5t-20 50.5v130q0 36 20 50.5t75 14.5t75 -14.5zM658.5 1296.5q14.5 -15.5 14.5 -52.5v-1108h321q34 0 48.5 -15.5t14.5 -52.5t-14.5 -52.5t-48.5 -15.5h-784q-34 0 -48.5 15.5t-14.5 52.5
t14.5 52.5t48.5 15.5h313v1040h-273q-34 0 -48.5 15.5t-14.5 52.5t14.5 52.5t48.5 15.5h360q34 0 48.5 -15.5z" />
    <glyph glyph-name="Lslash" unicode="&#x141;" 
d="M745.5 1171.5q14.5 -15.5 14.5 -52.5t-14.5 -52.5t-48.5 -15.5h-242v-336l206 140q24 16 40 16q26 0 51 -37q18 -27 18 -45q0 -25 -32 -46l-283 -193v-414h495v329q0 35 17 50t58 15t58 -15t17 -50v-397q0 -37 -14.5 -52.5t-48.5 -15.5h-894q-34 0 -48.5 15.5t-14.5 52.5
t14.5 52.5t48.5 15.5h162v312l-136 -92q-24 -16 -40 -16q-26 0 -51 37q-18 27 -18 45q0 25 32 46l213 145v438h-162q-34 0 -48.5 15.5t-14.5 52.5t14.5 52.5t48.5 15.5h554q34 0 48.5 -15.5z" />
    <glyph glyph-name="lslash" unicode="&#x142;" 
d="M688.5 1296.5q14.5 -15.5 14.5 -52.5v-421l167 114q24 16 40 16q26 0 51 -37q18 -27 18 -45q0 -25 -32 -46l-244 -166v-523h321q34 0 48.5 -15.5t14.5 -52.5t-14.5 -52.5t-48.5 -15.5h-784q-34 0 -48.5 15.5t-14.5 52.5t14.5 52.5t48.5 15.5h313v421l-175 -119
q-24 -16 -40 -16q-26 0 -51 37q-18 27 -18 45q0 25 32 46l252 171v455h-273q-34 0 -48.5 15.5t-14.5 52.5t14.5 52.5t48.5 15.5h360q34 0 48.5 -15.5z" />
    <glyph glyph-name="Nacute" unicode="&#x143;" 
d="M816 1685q34 0 67 -41q30 -39 30 -68q0 -26 -22 -39l-374 -219q-18 -10 -32 -10q-24 0 -46 25q-24 27 -24 52q0 19 16 31l348 256q18 13 37 13zM1143.5 1171.5q14.5 -15.5 14.5 -52.5t-14.5 -52.5t-48.5 -15.5h-57v-1014q0 -27 -18.5 -43t-56.5 -16q-53 0 -84 55
l-519 927h-4v-824h141q34 0 48.5 -15.5t14.5 -52.5t-14.5 -52.5t-48.5 -15.5h-354q-34 0 -48.5 15.5t-14.5 52.5t14.5 52.5t48.5 15.5h67v915h-77q-34 0 -48.5 15.5t-14.5 52.5t14.5 52.5t48.5 15.5h224q22 0 35.5 -7t21.5 -21l474 -848h4v740h-121q-34 0 -48.5 15.5
t-14.5 52.5t14.5 52.5t48.5 15.5h324q34 0 48.5 -15.5z" />
    <glyph glyph-name="nacute" unicode="&#x144;" 
d="M885 906.5q67 -39.5 103 -113.5t36 -173v-484h82q34 0 48.5 -15.5t14.5 -52.5t-14.5 -52.5t-48.5 -15.5h-324q-34 0 -48.5 15.5t-14.5 52.5t14.5 52.5t48.5 15.5h92v469q0 89 -41 141t-121 52q-85 0 -158.5 -49t-117.5 -135t-44 -192v-286h92q34 0 48.5 -15.5t14.5 -52.5
t-14.5 -52.5t-48.5 -15.5h-324q-34 0 -48.5 15.5t-14.5 52.5t14.5 52.5t48.5 15.5h82v652h-102q-34 0 -48.5 15.5t-14.5 52.5t14.5 52.5t48.5 15.5h179q34 0 48.5 -15.5t14.5 -52.5v-120q66 102 154.5 156t190.5 54q91 0 158 -39.5zM816 1415q34 0 67 -41q30 -39 30 -68
q0 -26 -22 -39l-374 -219q-18 -10 -32 -10q-24 0 -46 25q-24 27 -24 52q0 19 16 31l348 256q18 13 37 13z" />
    <glyph glyph-name="uni0145" unicode="&#x145;" 
d="M486 -514q-17 12 -17 33q0 4 2 16l63 287q8 32 42 32h116q28 0 28 -26q0 -12 -6 -25l-117 -291q-15 -38 -59 -38q-35 0 -52 12zM1143.5 1171.5q14.5 -15.5 14.5 -52.5t-14.5 -52.5t-48.5 -15.5h-57v-1014q0 -27 -18.5 -43t-56.5 -16q-53 0 -84 55l-519 927h-4v-824h141
q34 0 48.5 -15.5t14.5 -52.5t-14.5 -52.5t-48.5 -15.5h-354q-34 0 -48.5 15.5t-14.5 52.5t14.5 52.5t48.5 15.5h67v915h-77q-34 0 -48.5 15.5t-14.5 52.5t14.5 52.5t48.5 15.5h224q22 0 35.5 -7t21.5 -21l474 -848h4v740h-121q-34 0 -48.5 15.5t-14.5 52.5t14.5 52.5
t48.5 15.5h324q34 0 48.5 -15.5z" />
    <glyph glyph-name="uni0146" unicode="&#x146;" 
d="M486 -514q-17 12 -17 33q0 4 2 16l63 287q8 32 42 32h116q28 0 28 -26q0 -12 -6 -25l-117 -291q-15 -38 -59 -38q-35 0 -52 12zM885 906.5q67 -39.5 103 -113.5t36 -173v-484h82q34 0 48.5 -15.5t14.5 -52.5t-14.5 -52.5t-48.5 -15.5h-324q-34 0 -48.5 15.5t-14.5 52.5
t14.5 52.5t48.5 15.5h92v469q0 89 -41 141t-121 52q-85 0 -158.5 -49t-117.5 -135t-44 -192v-286h92q34 0 48.5 -15.5t14.5 -52.5t-14.5 -52.5t-48.5 -15.5h-324q-34 0 -48.5 15.5t-14.5 52.5t14.5 52.5t48.5 15.5h82v652h-102q-34 0 -48.5 15.5t-14.5 52.5t14.5 52.5
t48.5 15.5h179q34 0 48.5 -15.5t14.5 -52.5v-120q66 102 154.5 156t190.5 54q91 0 158 -39.5z" />
    <glyph glyph-name="Ncaron" unicode="&#x147;" 
d="M556 1331l-245 233q-16 15 -16 33q0 21 23 47q21 24 44 24q16 0 31 -12l221 -173l221 173q15 12 31 12q23 0 44 -24q23 -26 23 -47q0 -18 -16 -33l-245 -233q-22 -20 -58 -20t-58 20zM1143.5 1171.5q14.5 -15.5 14.5 -52.5t-14.5 -52.5t-48.5 -15.5h-57v-1014
q0 -27 -18.5 -43t-56.5 -16q-53 0 -84 55l-519 927h-4v-824h141q34 0 48.5 -15.5t14.5 -52.5t-14.5 -52.5t-48.5 -15.5h-354q-34 0 -48.5 15.5t-14.5 52.5t14.5 52.5t48.5 15.5h67v915h-77q-34 0 -48.5 15.5t-14.5 52.5t14.5 52.5t48.5 15.5h224q22 0 35.5 -7t21.5 -21
l474 -848h4v740h-121q-34 0 -48.5 15.5t-14.5 52.5t14.5 52.5t48.5 15.5h324q34 0 48.5 -15.5z" />
    <glyph glyph-name="ncaron" unicode="&#x148;" 
d="M556 1061l-245 233q-16 15 -16 33q0 21 23 47q21 24 44 24q16 0 31 -12l221 -173l221 173q15 12 31 12q23 0 44 -24q23 -26 23 -47q0 -18 -16 -33l-245 -233q-22 -20 -58 -20t-58 20zM885 906.5q67 -39.5 103 -113.5t36 -173v-484h82q34 0 48.5 -15.5t14.5 -52.5
t-14.5 -52.5t-48.5 -15.5h-324q-34 0 -48.5 15.5t-14.5 52.5t14.5 52.5t48.5 15.5h92v469q0 89 -41 141t-121 52q-85 0 -158.5 -49t-117.5 -135t-44 -192v-286h92q34 0 48.5 -15.5t14.5 -52.5t-14.5 -52.5t-48.5 -15.5h-324q-34 0 -48.5 15.5t-14.5 52.5t14.5 52.5
t48.5 15.5h82v652h-102q-34 0 -48.5 15.5t-14.5 52.5t14.5 52.5t48.5 15.5h179q34 0 48.5 -15.5t14.5 -52.5v-120q66 102 154.5 156t190.5 54q91 0 158 -39.5z" />
    <glyph glyph-name="napostrophe" unicode="&#x149;" horiz-adv-x="1415" 
d="M297 1462l15 -22q-52 -199 -176 -479h-133q70 285 102 501h192zM1030 906.5q67 -39.5 103 -113.5t36 -173v-484h82q34 0 48.5 -15.5t14.5 -52.5t-14.5 -52.5t-48.5 -15.5h-324q-34 0 -48.5 15.5t-14.5 52.5t14.5 52.5t48.5 15.5h92v469q0 89 -41 141t-121 52
q-85 0 -158.5 -49t-117.5 -135t-44 -192v-286h92q34 0 48.5 -15.5t14.5 -52.5t-14.5 -52.5t-48.5 -15.5h-324q-34 0 -48.5 15.5t-14.5 52.5t14.5 52.5t48.5 15.5h82v652h-102q-34 0 -48.5 15.5t-14.5 52.5t14.5 52.5t48.5 15.5h179q34 0 48.5 -15.5t14.5 -52.5v-120
q66 102 154.5 156t190.5 54q91 0 158 -39.5z" />
    <glyph glyph-name="Eng" unicode="&#x14a;" 
d="M1143.5 1171.5q14.5 -15.5 14.5 -52.5t-14.5 -52.5t-48.5 -15.5h-57v-1186q0 -134 -70.5 -204.5t-202.5 -70.5q-58 0 -118 13.5t-113 36.5q-39 17 -39 52q0 16 11 43q21 47 55 47q15 0 28 -6q96 -40 177 -40q63 0 94.5 37t31.5 120v117l-532 950h-4v-824h141
q34 0 48.5 -15.5t14.5 -52.5t-14.5 -52.5t-48.5 -15.5h-354q-34 0 -48.5 15.5t-14.5 52.5t14.5 52.5t48.5 15.5h67v915h-77q-34 0 -48.5 15.5t-14.5 52.5t14.5 52.5t48.5 15.5h224q22 0 35.5 -7t21.5 -21l474 -848h4v740h-121q-34 0 -48.5 15.5t-14.5 52.5t14.5 52.5
t48.5 15.5h324q34 0 48.5 -15.5z" />
    <glyph glyph-name="eng" unicode="&#x14b;" 
d="M905 906.5q67 -39.5 103 -113.5t36 -173v-755q0 -134 -70.5 -204.5t-202.5 -70.5q-58 0 -118 13.5t-113 36.5q-39 17 -39 52q0 16 11 43q21 47 55 47q15 0 28 -6q96 -40 177 -40q63 0 92.5 37t29.5 120v712q0 89 -41 141t-121 52q-85 0 -158.5 -49t-117.5 -135t-44 -192
v-286h92q34 0 48.5 -15.5t14.5 -52.5t-14.5 -52.5t-48.5 -15.5h-324q-34 0 -48.5 15.5t-14.5 52.5t14.5 52.5t48.5 15.5h82v652h-102q-34 0 -48.5 15.5t-14.5 52.5t14.5 52.5t48.5 15.5h179q34 0 48.5 -15.5t14.5 -52.5v-120q66 102 154.5 156t190.5 54q91 0 158 -39.5z" />
    <glyph glyph-name="Omacron" unicode="&#x14c;" 
d="M889.5 1132q119.5 -77 185 -216.5t65.5 -322.5t-65.5 -322.5t-185 -216t-275.5 -76.5t-275.5 76.5t-185 216t-65.5 322.5t65.5 322.5t185 216.5t275.5 77t275.5 -77zM420.5 1004q-83.5 -57 -129 -163t-45.5 -248t45.5 -247.5t129 -162.5t193.5 -57t193.5 57t129 162.5
t45.5 247.5t-45.5 248t-129 163t-193.5 57t-193.5 -57zM923.5 1503.5q14.5 -16.5 14.5 -55.5t-14.5 -55.5t-48.5 -16.5h-522q-34 0 -48.5 16.5t-14.5 55.5t14.5 55.5t48.5 16.5h522q34 0 48.5 -16.5z" />
    <glyph glyph-name="omacron" unicode="&#x14d;" 
d="M923.5 1233.5q14.5 -16.5 14.5 -55.5t-14.5 -55.5t-48.5 -16.5h-522q-34 0 -48.5 16.5t-14.5 55.5t14.5 55.5t48.5 16.5h522q34 0 48.5 -16.5zM861 884q110 -62 172.5 -172.5t62.5 -249.5t-62.5 -249.5t-172.5 -172.5t-247 -62t-247 62t-172.5 172.5t-62.5 249.5
t62.5 249.5t172.5 172.5t247 62t247 -62zM443.5 755.5q-73.5 -42.5 -113.5 -119t-40 -174.5t40 -174.5t113.5 -119t170.5 -42.5t170.5 42.5t113.5 119t40 174.5t-40 174.5t-113.5 119t-170.5 42.5t-170.5 -42.5z" />
    <glyph glyph-name="Obreve" unicode="&#x14e;" 
d="M929 1621.5q13 -11.5 13 -30.5q0 -8 -1 -13q-23 -113 -106.5 -175t-220.5 -62t-220.5 62t-106.5 175q-1 5 -1 13q0 19 13 30.5t41 17.5q15 3 28 3q34 0 43 -24q23 -71 73 -105t130 -34q81 0 131 34t72 105q9 24 43 24q13 0 28 -3q28 -6 41 -17.5zM889.5 1132
q119.5 -77 185 -216.5t65.5 -322.5t-65.5 -322.5t-185 -216t-275.5 -76.5t-275.5 76.5t-185 216t-65.5 322.5t65.5 322.5t185 216.5t275.5 77t275.5 -77zM420.5 1004q-83.5 -57 -129 -163t-45.5 -248t45.5 -247.5t129 -162.5t193.5 -57t193.5 57t129 162.5t45.5 247.5
t-45.5 248t-129 163t-193.5 57t-193.5 -57z" />
    <glyph glyph-name="obreve" unicode="&#x14f;" 
d="M929 1351.5q13 -11.5 13 -30.5q0 -8 -1 -13q-23 -113 -106.5 -175t-220.5 -62t-220.5 62t-106.5 175q-1 5 -1 13q0 19 13 30.5t41 17.5q15 3 28 3q34 0 43 -24q23 -71 73 -105t130 -34q81 0 131 34t72 105q9 24 43 24q13 0 28 -3q28 -6 41 -17.5zM861 884
q110 -62 172.5 -172.5t62.5 -249.5t-62.5 -249.5t-172.5 -172.5t-247 -62t-247 62t-172.5 172.5t-62.5 249.5t62.5 249.5t172.5 172.5t247 62t247 -62zM443.5 755.5q-73.5 -42.5 -113.5 -119t-40 -174.5t40 -174.5t113.5 -119t170.5 -42.5t170.5 42.5t113.5 119t40 174.5
t-40 174.5t-113.5 119t-170.5 42.5t-170.5 -42.5z" />
    <glyph glyph-name="Ohungarumlaut" unicode="&#x150;" 
d="M723 1592q0 -19 -19 -36l-270 -233q-17 -14 -37 -14q-22 0 -50 17q-30 19 -30 41q0 13 10 23l237 253q23 25 55 25q28 0 59 -19q45 -28 45 -57zM1103 1592q0 -19 -19 -36l-270 -233q-17 -14 -37 -14q-22 0 -50 17q-30 19 -30 41q0 13 10 23l237 253q23 25 55 25
q28 0 59 -19q45 -28 45 -57zM889.5 1132q119.5 -77 185 -216.5t65.5 -322.5t-65.5 -322.5t-185 -216t-275.5 -76.5t-275.5 76.5t-185 216t-65.5 322.5t65.5 322.5t185 216.5t275.5 77t275.5 -77zM420.5 1004q-83.5 -57 -129 -163t-45.5 -248t45.5 -247.5t129 -162.5
t193.5 -57t193.5 57t129 162.5t45.5 247.5t-45.5 248t-129 163t-193.5 57t-193.5 -57z" />
    <glyph glyph-name="ohungarumlaut" unicode="&#x151;" 
d="M723 1322q0 -19 -19 -36l-270 -233q-17 -14 -37 -14q-22 0 -50 17q-30 19 -30 41q0 13 10 23l237 253q23 25 55 25q28 0 59 -19q45 -28 45 -57zM1103 1322q0 -19 -19 -36l-270 -233q-17 -14 -37 -14q-22 0 -50 17q-30 19 -30 41q0 13 10 23l237 253q23 25 55 25
q28 0 59 -19q45 -28 45 -57zM861 884q110 -62 172.5 -172.5t62.5 -249.5t-62.5 -249.5t-172.5 -172.5t-247 -62t-247 62t-172.5 172.5t-62.5 249.5t62.5 249.5t172.5 172.5t247 62t247 -62zM443.5 755.5q-73.5 -42.5 -113.5 -119t-40 -174.5t40 -174.5t113.5 -119
t170.5 -42.5t170.5 42.5t113.5 119t40 174.5t-40 174.5t-113.5 119t-170.5 42.5t-170.5 -42.5z" />
    <glyph glyph-name="OE" unicode="&#x152;" 
d="M1111.5 1171.5q14.5 -15.5 14.5 -52.5v-254q0 -35 -17 -50t-58 -15t-58 15t-17 50v186h-260v-366h192q34 0 48.5 -15.5t14.5 -52.5t-14.5 -52.5t-48.5 -15.5h-192v-413h272v229q0 35 17 50t58 15t58 -15t17 -50v-297q0 -37 -14.5 -52.5t-48.5 -15.5h-501
q-154 0 -270 71.5t-179 205t-63 316.5t63 317t179 205.5t270 71.5h489q34 0 48.5 -15.5zM383 992.5q-78 -53.5 -120.5 -155t-42.5 -244.5t42.5 -244.5t120.5 -155t183 -57.5v914q-105 -4 -183 -57.5z" />
    <glyph glyph-name="oe" unicode="&#x153;" 
d="M1075 830q70 -116 76 -328q0 -34 -14.5 -48t-48.5 -14h-399q5 -317 164 -317q48 0 88 18.5t82 59.5q17 17 39 17q31 0 56 -31q21 -25 21 -50q0 -28 -27 -53q-55 -52 -121 -79t-138 -27q-78 0 -139 34.5t-101 103.5q-75 -138 -231 -138q-154 0 -233 125.5t-79 358.5
t79 358.5t233 125.5q156 0 231 -140q40 70 101 105t139 35q152 0 222 -116zM745 749q-39 -52 -51 -169h300q-7 108 -40 164.5t-99 56.5q-71 0 -110 -52zM265.5 717.5q-37.5 -80.5 -37.5 -255.5t37.5 -255.5t116.5 -80.5t116.5 80.5t37.5 255.5t-37.5 255.5t-116.5 80.5
t-116.5 -80.5z" />
    <glyph glyph-name="Racute" unicode="&#x154;" 
d="M796 1685q34 0 67 -41q30 -39 30 -68q0 -26 -22 -39l-374 -219q-18 -10 -32 -10q-24 0 -46 25q-24 27 -24 52q0 19 16 31l348 256q18 13 37 13zM863.5 1145q89.5 -42 136 -118t46.5 -177q0 -114 -74 -193t-203 -108q56 -22 93 -71q31 -41 53 -81.5t49 -99.5
q28 -61 43 -89q39 -72 90 -72h28q34 0 48.5 -15.5t14.5 -52.5t-14.5 -52.5t-48.5 -15.5h-72q-60 0 -101.5 31.5t-80.5 107.5q-22 44 -54 116q-30 66 -48.5 102.5t-44.5 72.5q-30 42 -72 63.5t-101 21.5h-136v-379h130q34 0 48.5 -15.5t14.5 -52.5t-14.5 -52.5t-48.5 -15.5
h-402q-34 0 -48.5 15.5t-14.5 52.5t14.5 52.5t48.5 15.5h122v915h-122q-34 0 -48.5 15.5t-14.5 52.5t14.5 52.5t48.5 15.5h506q125 0 214.5 -42zM415 651h203q270 0 270 199q0 96 -68 148.5t-192 52.5h-213v-400z" />
    <glyph glyph-name="racute" unicode="&#x155;" 
d="M868 1415q34 0 67 -41q30 -39 30 -68q0 -26 -22 -39l-374 -219q-18 -10 -32 -10q-24 0 -46 25q-24 27 -24 52q0 19 16 31l348 256q18 13 37 13zM1066 906q40 -24 40 -62q0 -18 -9 -42q-21 -57 -58 -57q-15 0 -28 8q-49 27 -105 27q-90 0 -181 -62.5t-149.5 -166.5
t-58.5 -221v-194h337q34 0 48.5 -15.5t14.5 -52.5t-14.5 -52.5t-48.5 -15.5h-644q-34 0 -48.5 15.5t-14.5 52.5t14.5 52.5t48.5 15.5h157v652h-127q-34 0 -48.5 15.5t-14.5 52.5t14.5 52.5t48.5 15.5h204q34 0 48.5 -15.5t14.5 -52.5v-202q48 88 116 154t145 102t152 36
q78 0 146 -40z" />
    <glyph glyph-name="uni0156" unicode="&#x156;" 
d="M516 -514q-17 12 -17 33q0 4 2 16l63 287q8 32 42 32h116q28 0 28 -26q0 -12 -6 -25l-117 -291q-15 -38 -59 -38q-35 0 -52 12zM863.5 1145q89.5 -42 136 -118t46.5 -177q0 -114 -74 -193t-203 -108q56 -22 93 -71q31 -41 53 -81.5t49 -99.5q28 -61 43 -89q39 -72 90 -72
h28q34 0 48.5 -15.5t14.5 -52.5t-14.5 -52.5t-48.5 -15.5h-72q-60 0 -101.5 31.5t-80.5 107.5q-22 44 -54 116q-30 66 -48.5 102.5t-44.5 72.5q-30 42 -72 63.5t-101 21.5h-136v-379h130q34 0 48.5 -15.5t14.5 -52.5t-14.5 -52.5t-48.5 -15.5h-402q-34 0 -48.5 15.5
t-14.5 52.5t14.5 52.5t48.5 15.5h122v915h-122q-34 0 -48.5 15.5t-14.5 52.5t14.5 52.5t48.5 15.5h506q125 0 214.5 -42zM415 651h203q270 0 270 199q0 96 -68 148.5t-192 52.5h-213v-400z" />
    <glyph glyph-name="uni0157" unicode="&#x157;" 
d="M366 -514q-17 12 -17 33q0 4 2 16l63 287q8 32 42 32h116q28 0 28 -26q0 -12 -6 -25l-117 -291q-15 -38 -59 -38q-35 0 -52 12zM1066 906q40 -24 40 -62q0 -18 -9 -42q-21 -57 -58 -57q-15 0 -28 8q-49 27 -105 27q-90 0 -181 -62.5t-149.5 -166.5t-58.5 -221v-194h337
q34 0 48.5 -15.5t14.5 -52.5t-14.5 -52.5t-48.5 -15.5h-644q-34 0 -48.5 15.5t-14.5 52.5t14.5 52.5t48.5 15.5h157v652h-127q-34 0 -48.5 15.5t-14.5 52.5t14.5 52.5t48.5 15.5h204q34 0 48.5 -15.5t14.5 -52.5v-202q48 88 116 154t145 102t152 36q78 0 146 -40z" />
    <glyph glyph-name="Rcaron" unicode="&#x158;" 
d="M536 1331l-245 233q-16 15 -16 33q0 21 23 47q21 24 44 24q16 0 31 -12l221 -173l221 173q15 12 31 12q23 0 44 -24q23 -26 23 -47q0 -18 -16 -33l-245 -233q-22 -20 -58 -20t-58 20zM863.5 1145q89.5 -42 136 -118t46.5 -177q0 -114 -74 -193t-203 -108q56 -22 93 -71
q31 -41 53 -81.5t49 -99.5q28 -61 43 -89q39 -72 90 -72h28q34 0 48.5 -15.5t14.5 -52.5t-14.5 -52.5t-48.5 -15.5h-72q-60 0 -101.5 31.5t-80.5 107.5q-22 44 -54 116q-30 66 -48.5 102.5t-44.5 72.5q-30 42 -72 63.5t-101 21.5h-136v-379h130q34 0 48.5 -15.5t14.5 -52.5
t-14.5 -52.5t-48.5 -15.5h-402q-34 0 -48.5 15.5t-14.5 52.5t14.5 52.5t48.5 15.5h122v915h-122q-34 0 -48.5 15.5t-14.5 52.5t14.5 52.5t48.5 15.5h506q125 0 214.5 -42zM415 651h203q270 0 270 199q0 96 -68 148.5t-192 52.5h-213v-400z" />
    <glyph glyph-name="rcaron" unicode="&#x159;" 
d="M586 1061l-245 233q-16 15 -16 33q0 21 23 47q21 24 44 24q16 0 31 -12l221 -173l221 173q15 12 31 12q23 0 44 -24q23 -26 23 -47q0 -18 -16 -33l-245 -233q-22 -20 -58 -20t-58 20zM1066 906q40 -24 40 -62q0 -18 -9 -42q-21 -57 -58 -57q-15 0 -28 8q-49 27 -105 27
q-90 0 -181 -62.5t-149.5 -166.5t-58.5 -221v-194h337q34 0 48.5 -15.5t14.5 -52.5t-14.5 -52.5t-48.5 -15.5h-644q-34 0 -48.5 15.5t-14.5 52.5t14.5 52.5t48.5 15.5h157v652h-127q-34 0 -48.5 15.5t-14.5 52.5t14.5 52.5t48.5 15.5h204q34 0 48.5 -15.5t14.5 -52.5v-202
q48 88 116 154t145 102t152 36q78 0 146 -40z" />
    <glyph glyph-name="Sacute" unicode="&#x15a;" 
d="M1001 1194q17 -15 17 -50v-230q0 -35 -17 -50t-58 -15q-38 0 -52 26q-48 91 -135 138.5t-198 47.5q-110 0 -170.5 -51t-60.5 -137q0 -41 21 -69t60 -48q35 -18 82 -29.5t126 -26.5q86 -17 136.5 -28.5t99.5 -31.5q100 -41 156.5 -114.5t56.5 -198.5q0 -104 -49 -182.5
t-144.5 -122.5t-229.5 -44q-100 0 -185.5 36.5t-148.5 106.5v-78q0 -35 -17 -50t-58 -15t-58 15t-17 50v300q0 35 17 50t58 15q43 0 58 -42q41 -116 130.5 -178t220.5 -62q128 0 196.5 55t68.5 146q0 63 -31.5 102.5t-91.5 65.5q-38 17 -83 27.5t-123 26.5q-82 16 -137.5 30
t-102.5 35q-80 36 -124.5 97.5t-44.5 161.5q0 103 49.5 179t138 116.5t201.5 40.5q88 0 170 -34t140 -92v61q0 35 17 50t58 15t58 -15zM796 1685q34 0 67 -41q30 -39 30 -68q0 -26 -22 -39l-374 -219q-18 -10 -32 -10q-24 0 -46 25q-24 27 -24 52q0 19 16 31l348 256
q18 13 37 13z" />
    <glyph glyph-name="sacute" unicode="&#x15b;" 
d="M987 931q17 -15 17 -50v-190q0 -35 -17 -50t-58 -15q-34 0 -48 26q-43 82 -125 115.5t-208 33.5q-97 0 -151.5 -34.5t-54.5 -96.5q0 -32 20.5 -52t60.5 -33q33 -11 76.5 -17t112.5 -13q97 -11 156.5 -20.5t112.5 -28.5q80 -29 124.5 -84t44.5 -145t-45.5 -157.5
t-133 -104.5t-209.5 -37q-108 0 -190 30t-143 91v-56q0 -35 -17 -50t-58 -15t-58 15t-17 50v240q0 35 17 50t58 15q21 0 33 -9.5t21 -31.5q36 -96 120 -140t224 -44q116 0 178 42t62 112q0 34 -22 56t-63 36q-35 11 -80.5 18.5t-115.5 14.5q-94 10 -157 21t-116 32
q-73 29 -113.5 80.5t-40.5 134.5q0 87 45.5 149.5t126 94.5t182.5 32q97 0 177.5 -29t138.5 -81v45q0 35 17 50t58 15t58 -15zM796 1415q34 0 67 -41q30 -39 30 -68q0 -26 -22 -39l-374 -219q-18 -10 -32 -10q-24 0 -46 25q-24 27 -24 52q0 19 16 31l348 256q18 13 37 13z
" />
    <glyph glyph-name="Scircumflex" unicode="&#x15c;" 
d="M668 1646l245 -233q16 -15 16 -33q0 -21 -23 -47q-21 -24 -44 -24q-16 0 -31 12l-221 173l-221 -173q-15 -12 -31 -12q-23 0 -44 24q-23 26 -23 47q0 18 16 33l245 233q22 20 58 20t58 -20zM1001 1194q17 -15 17 -50v-230q0 -35 -17 -50t-58 -15q-38 0 -52 26
q-48 91 -135 138.5t-198 47.5q-110 0 -170.5 -51t-60.5 -137q0 -41 21 -69t60 -48q35 -18 82 -29.5t126 -26.5q86 -17 136.5 -28.5t99.5 -31.5q100 -41 156.5 -114.5t56.5 -198.5q0 -104 -49 -182.5t-144.5 -122.5t-229.5 -44q-100 0 -185.5 36.5t-148.5 106.5v-78
q0 -35 -17 -50t-58 -15t-58 15t-17 50v300q0 35 17 50t58 15q43 0 58 -42q41 -116 130.5 -178t220.5 -62q128 0 196.5 55t68.5 146q0 63 -31.5 102.5t-91.5 65.5q-38 17 -83 27.5t-123 26.5q-82 16 -137.5 30t-102.5 35q-80 36 -124.5 97.5t-44.5 161.5q0 103 49.5 179
t138 116.5t201.5 40.5q88 0 170 -34t140 -92v61q0 35 17 50t58 15t58 -15z" />
    <glyph glyph-name="scircumflex" unicode="&#x15d;" 
d="M662 1376l245 -233q16 -15 16 -33q0 -21 -23 -47q-21 -24 -44 -24q-16 0 -31 12l-221 173l-221 -173q-15 -12 -31 -12q-23 0 -44 24q-23 26 -23 47q0 18 16 33l245 233q22 20 58 20t58 -20zM987 931q17 -15 17 -50v-190q0 -35 -17 -50t-58 -15q-34 0 -48 26
q-43 82 -125 115.5t-208 33.5q-97 0 -151.5 -34.5t-54.5 -96.5q0 -32 20.5 -52t60.5 -33q33 -11 76.5 -17t112.5 -13q97 -11 156.5 -20.5t112.5 -28.5q80 -29 124.5 -84t44.5 -145t-45.5 -157.5t-133 -104.5t-209.5 -37q-108 0 -190 30t-143 91v-56q0 -35 -17 -50t-58 -15
t-58 15t-17 50v240q0 35 17 50t58 15q21 0 33 -9.5t21 -31.5q36 -96 120 -140t224 -44q116 0 178 42t62 112q0 34 -22 56t-63 36q-35 11 -80.5 18.5t-115.5 14.5q-94 10 -157 21t-116 32q-73 29 -113.5 80.5t-40.5 134.5q0 87 45.5 149.5t126 94.5t182.5 32q97 0 177.5 -29
t138.5 -81v45q0 35 17 50t58 15t58 -15z" />
    <glyph glyph-name="Scedilla" unicode="&#x15e;" 
d="M1021 153q-44 -76 -130 -121.5t-208 -52.5v-92q101 1 152 -46t51 -122q0 -87 -62 -139t-183 -52q-68 0 -132 12t-115 36q-23 10 -23 35q0 14 8 35q17 45 46 45q8 0 13 -2q43 -16 94.5 -27t98.5 -11q51 0 80 16.5t29 47.5q0 33 -27 49t-89 16l-39 -1q-15 0 -24.5 10.5
t-9.5 33.5v163q-148 28 -243 135v-78q0 -35 -17 -50t-58 -15t-58 15t-17 50v300q0 35 17 50t58 15q43 0 58 -42q41 -116 130.5 -178t220.5 -62q128 0 196.5 55t68.5 146q0 63 -31.5 102.5t-91.5 65.5q-38 17 -83 27.5t-123 26.5q-82 16 -137.5 30t-102.5 35
q-80 36 -124.5 97.5t-44.5 161.5q0 103 49.5 179t138 116.5t201.5 40.5q88 0 170 -34t140 -92v61q0 35 17 50t58 15t58 -15t17 -50v-230q0 -35 -17 -50t-58 -15q-38 0 -52 26q-48 91 -135 138.5t-198 47.5q-110 0 -170.5 -51t-60.5 -137q0 -41 21 -69t60 -48
q35 -18 82 -29.5t126 -26.5q86 -17 136.5 -28.5t99.5 -31.5q100 -41 156.5 -114.5t56.5 -198.5q0 -98 -44 -174z" />
    <glyph glyph-name="scedilla" unicode="&#x15f;" 
d="M1008.5 125.5q-41.5 -65.5 -122 -104t-193.5 -42.5v-92q101 1 152 -46t51 -122q0 -87 -62 -139t-183 -52q-68 0 -132 12t-115 36q-23 10 -23 35q0 14 8 35q17 45 46 45q8 0 13 -2q43 -16 94.5 -27t98.5 -11q51 0 80 16.5t29 47.5q0 33 -27 49t-89 16l-39 -1
q-15 0 -24.5 10.5t-9.5 33.5v162q-140 22 -232 114v-56q0 -35 -17 -50t-58 -15t-58 15t-17 50v240q0 35 17 50t58 15q21 0 33 -9.5t21 -31.5q36 -96 120 -140t224 -44q116 0 178 42t62 112q0 34 -22 56t-63 36q-35 11 -80.5 18.5t-115.5 14.5q-94 10 -157 21t-116 32
q-73 29 -113.5 80.5t-40.5 134.5q0 87 45.5 149.5t126 94.5t182.5 32q97 0 177.5 -29t138.5 -81v45q0 35 17 50t58 15t58 -15t17 -50v-190q0 -35 -17 -50t-58 -15q-34 0 -48 26q-43 82 -125 115.5t-208 33.5q-97 0 -151.5 -34.5t-54.5 -96.5q0 -32 20.5 -52t60.5 -33
q33 -11 76.5 -17t112.5 -13q97 -11 156.5 -20.5t112.5 -28.5q80 -29 124.5 -84t44.5 -145q0 -86 -41.5 -151.5z" />
    <glyph glyph-name="Scaron" unicode="&#x160;" 
d="M531 1331l-245 233q-16 15 -16 33q0 21 23 47q21 24 44 24q16 0 31 -12l221 -173l221 173q15 12 31 12q23 0 44 -24q23 -26 23 -47q0 -18 -16 -33l-245 -233q-22 -20 -58 -20t-58 20zM1001 1194q17 -15 17 -50v-230q0 -35 -17 -50t-58 -15q-38 0 -52 26
q-48 91 -135 138.5t-198 47.5q-110 0 -170.5 -51t-60.5 -137q0 -41 21 -69t60 -48q35 -18 82 -29.5t126 -26.5q86 -17 136.5 -28.5t99.5 -31.5q100 -41 156.5 -114.5t56.5 -198.5q0 -104 -49 -182.5t-144.5 -122.5t-229.5 -44q-100 0 -185.5 36.5t-148.5 106.5v-78
q0 -35 -17 -50t-58 -15t-58 15t-17 50v300q0 35 17 50t58 15q43 0 58 -42q41 -116 130.5 -178t220.5 -62q128 0 196.5 55t68.5 146q0 63 -31.5 102.5t-91.5 65.5q-38 17 -83 27.5t-123 26.5q-82 16 -137.5 30t-102.5 35q-80 36 -124.5 97.5t-44.5 161.5q0 103 49.5 179
t138 116.5t201.5 40.5q88 0 170 -34t140 -92v61q0 35 17 50t58 15t58 -15z" />
    <glyph glyph-name="scaron" unicode="&#x161;" 
d="M549 1061l-245 233q-16 15 -16 33q0 21 23 47q21 24 44 24q16 0 31 -12l221 -173l221 173q15 12 31 12q23 0 44 -24q23 -26 23 -47q0 -18 -16 -33l-245 -233q-22 -20 -58 -20t-58 20zM987 931q17 -15 17 -50v-190q0 -35 -17 -50t-58 -15q-34 0 -48 26q-43 82 -125 115.5
t-208 33.5q-97 0 -151.5 -34.5t-54.5 -96.5q0 -32 20.5 -52t60.5 -33q33 -11 76.5 -17t112.5 -13q97 -11 156.5 -20.5t112.5 -28.5q80 -29 124.5 -84t44.5 -145t-45.5 -157.5t-133 -104.5t-209.5 -37q-108 0 -190 30t-143 91v-56q0 -35 -17 -50t-58 -15t-58 15t-17 50v240
q0 35 17 50t58 15q21 0 33 -9.5t21 -31.5q36 -96 120 -140t224 -44q116 0 178 42t62 112q0 34 -22 56t-63 36q-35 11 -80.5 18.5t-115.5 14.5q-94 10 -157 21t-116 32q-73 29 -113.5 80.5t-40.5 134.5q0 87 45.5 149.5t126 94.5t182.5 32q97 0 177.5 -29t138.5 -81v45
q0 35 17 50t58 15t58 -15z" />
    <glyph glyph-name="uni0162" unicode="&#x162;" 
d="M1091.5 1171.5q14.5 -15.5 14.5 -52.5v-377q0 -35 -17 -50t-58 -15t-58 15t-17 50v309h-267v-915h236q34 0 48.5 -15.5t14.5 -52.5t-14.5 -52.5t-48.5 -15.5h-245v-113q101 1 152 -46t51 -122q0 -87 -62 -139t-183 -52q-68 0 -132 12t-115 36q-23 10 -23 35q0 14 8 35
q17 45 46 45q8 0 13 -2q43 -16 94.5 -27t98.5 -11q51 0 80 16.5t29 47.5q0 33 -27 49t-89 16l-39 -1q-15 0 -24.5 10.5t-9.5 33.5v177h-245q-34 0 -48.5 15.5t-14.5 52.5t14.5 52.5t48.5 15.5h236v915h-267v-309q0 -35 -17 -50t-58 -15t-58 15t-17 50v377q0 37 14.5 52.5
t48.5 15.5h858q34 0 48.5 -15.5z" />
    <glyph glyph-name="uni0163" unicode="&#x163;" 
d="M1096 142q0 -32 -33 -52q-78 -49 -174 -80.5t-179 -31.5h-7v-91q101 1 152 -46t51 -122q0 -87 -62 -139t-183 -52q-68 0 -132 12t-115 36q-23 10 -23 35q0 14 8 35q17 45 46 45q8 0 13 -2q43 -16 94.5 -27t98.5 -11q51 0 80 16.5t29 47.5q0 33 -27 49t-89 16l-39 -1
q-15 0 -24.5 10.5t-9.5 33.5v174q-97 32 -142.5 115.5t-45.5 218.5v377h-203q-34 0 -48.5 15.5t-14.5 52.5t14.5 52.5t48.5 15.5h203v300q0 35 17 50t58 15t58 -15t17 -50v-300h411q34 0 48.5 -15.5t14.5 -52.5t-14.5 -52.5t-48.5 -15.5h-411v-364q0 -114 39.5 -167
t137.5 -53q67 0 141 27t143 72q14 10 31 10q34 0 58 -46q13 -26 13 -45z" />
    <glyph glyph-name="Tcaron" unicode="&#x164;" 
d="M556 1331l-245 233q-16 15 -16 33q0 21 23 47q21 24 44 24q16 0 31 -12l221 -173l221 173q15 12 31 12q23 0 44 -24q23 -26 23 -47q0 -18 -16 -33l-245 -233q-22 -20 -58 -20t-58 20zM1091.5 1171.5q14.5 -15.5 14.5 -52.5v-377q0 -35 -17 -50t-58 -15t-58 15t-17 50v309
h-267v-915h236q34 0 48.5 -15.5t14.5 -52.5t-14.5 -52.5t-48.5 -15.5h-622q-34 0 -48.5 15.5t-14.5 52.5t14.5 52.5t48.5 15.5h236v915h-267v-309q0 -35 -17 -50t-58 -15t-58 15t-17 50v377q0 37 14.5 52.5t48.5 15.5h858q34 0 48.5 -15.5z" />
    <glyph glyph-name="tcaron" unicode="&#x165;" 
d="M766 1032q-17 12 -17 33q0 4 2 16l63 287q8 32 42 32h116q28 0 28 -26q0 -12 -6 -25l-117 -291q-15 -38 -59 -38q-35 0 -52 12zM516 1194q17 -15 17 -50v-300h411q34 0 48.5 -15.5t14.5 -52.5t-14.5 -52.5t-48.5 -15.5h-411v-364q0 -114 39.5 -167t137.5 -53q67 0 141 27
t143 72q14 10 31 10q34 0 58 -46q13 -26 13 -45q0 -32 -33 -52q-78 -49 -174 -80.5t-179 -31.5q-170 0 -248.5 88.5t-78.5 264.5v377h-203q-34 0 -48.5 15.5t-14.5 52.5t14.5 52.5t48.5 15.5h203v300q0 35 17 50t58 15t58 -15z" />
    <glyph glyph-name="Tbar" unicode="&#x166;" 
d="M1091.5 1171.5q14.5 -15.5 14.5 -52.5v-377q0 -35 -17 -50t-58 -15t-58 15t-17 50v309h-267v-465h206q34 0 48.5 -15.5t14.5 -52.5t-14.5 -52.5t-48.5 -15.5h-206v-314h236q34 0 48.5 -15.5t14.5 -52.5t-14.5 -52.5t-48.5 -15.5h-622q-34 0 -48.5 15.5t-14.5 52.5
t14.5 52.5t48.5 15.5h236v314h-206q-34 0 -48.5 15.5t-14.5 52.5t14.5 52.5t48.5 15.5h206v465h-267v-309q0 -35 -17 -50t-58 -15t-58 15t-17 50v377q0 37 14.5 52.5t48.5 15.5h858q34 0 48.5 -15.5z" />
    <glyph glyph-name="tbar" unicode="&#x167;" 
d="M1096 142q0 -32 -33 -52q-78 -49 -174 -80.5t-179 -31.5q-170 0 -248.5 88.5t-78.5 264.5v109h-140q-34 0 -48.5 15.5t-14.5 52.5t14.5 52.5t48.5 15.5h140v132h-203q-34 0 -48.5 15.5t-14.5 52.5t14.5 52.5t48.5 15.5h203v300q0 35 17 50t58 15t58 -15t17 -50v-300h411
q34 0 48.5 -15.5t14.5 -52.5t-14.5 -52.5t-48.5 -15.5h-411v-132h272q34 0 48.5 -15.5t14.5 -52.5t-14.5 -52.5t-48.5 -15.5h-272v-96q0 -114 39.5 -167t137.5 -53q67 0 141 27t143 72q14 10 31 10q34 0 58 -46q13 -26 13 -45z" />
    <glyph glyph-name="Utilde" unicode="&#x168;" 
d="M557.5 1575.5q28.5 -9.5 68.5 -27.5q35 -17 59 -25t50 -8q32 0 62.5 17t63.5 51q12 12 29 12q25 0 47 -25q21 -22 21 -45q0 -19 -14 -36q-48 -62 -102.5 -92.5t-107.5 -30.5q-35 0 -63.5 9.5t-68.5 27.5q-35 17 -59 25t-50 8q-32 0 -62.5 -17t-63.5 -51q-12 -12 -29 -12
q-25 0 -47 25q-21 22 -21 45q0 19 14 36q48 62 102.5 92.5t107.5 30.5q35 0 63.5 -9.5zM1143.5 1171.5q14.5 -15.5 14.5 -52.5t-14.5 -52.5t-48.5 -15.5h-62v-658q0 -209 -109.5 -312t-309.5 -103t-309.5 103t-109.5 312v658h-62q-34 0 -48.5 15.5t-14.5 52.5t14.5 52.5
t48.5 15.5h324q34 0 48.5 -15.5t14.5 -52.5t-14.5 -52.5t-48.5 -15.5h-112v-638q0 -153 65 -220t204 -67t204 67t65 220v638h-112q-34 0 -48.5 15.5t-14.5 52.5t14.5 52.5t48.5 15.5h324q34 0 48.5 -15.5z" />
    <glyph glyph-name="utilde" unicode="&#x169;" 
d="M529.5 1305.5q28.5 -9.5 68.5 -27.5q35 -17 59 -25t50 -8q32 0 62.5 17t63.5 51q12 12 29 12q25 0 47 -25q21 -22 21 -45q0 -19 -14 -36q-48 -62 -102.5 -92.5t-107.5 -30.5q-35 0 -63.5 9.5t-68.5 27.5q-35 17 -59 25t-50 8q-32 0 -62.5 -17t-63.5 -51q-12 -12 -29 -12
q-25 0 -47 25q-21 22 -21 45q0 19 14 36q48 62 102.5 92.5t107.5 30.5q35 0 63.5 -9.5zM984.5 908.5q14.5 -15.5 14.5 -52.5v-720h82q34 0 48.5 -15.5t14.5 -52.5t-14.5 -52.5t-48.5 -15.5h-159q-34 0 -48.5 15t-14.5 52v121q-66 -102 -154.5 -156t-190.5 -54
q-91 0 -158 39.5t-103 113.5t-36 173v484h-82q-34 0 -48.5 15.5t-14.5 52.5t14.5 52.5t48.5 15.5h169q34 0 48.5 -15.5t14.5 -52.5v-537q0 -89 41 -141t121 -52q85 0 158.5 49t117.5 135t44 192v286h-142q-34 0 -48.5 15.5t-14.5 52.5t14.5 52.5t48.5 15.5h229
q34 0 48.5 -15.5z" />
    <glyph glyph-name="Umacron" unicode="&#x16a;" 
d="M923.5 1503.5q14.5 -16.5 14.5 -55.5t-14.5 -55.5t-48.5 -16.5h-522q-34 0 -48.5 16.5t-14.5 55.5t14.5 55.5t48.5 16.5h522q34 0 48.5 -16.5zM1143.5 1171.5q14.5 -15.5 14.5 -52.5t-14.5 -52.5t-48.5 -15.5h-62v-658q0 -209 -109.5 -312t-309.5 -103t-309.5 103
t-109.5 312v658h-62q-34 0 -48.5 15.5t-14.5 52.5t14.5 52.5t48.5 15.5h324q34 0 48.5 -15.5t14.5 -52.5t-14.5 -52.5t-48.5 -15.5h-112v-638q0 -153 65 -220t204 -67t204 67t65 220v638h-112q-34 0 -48.5 15.5t-14.5 52.5t14.5 52.5t48.5 15.5h324q34 0 48.5 -15.5z" />
    <glyph glyph-name="umacron" unicode="&#x16b;" 
d="M923.5 1233.5q14.5 -16.5 14.5 -55.5t-14.5 -55.5t-48.5 -16.5h-522q-34 0 -48.5 16.5t-14.5 55.5t14.5 55.5t48.5 16.5h522q34 0 48.5 -16.5zM984.5 908.5q14.5 -15.5 14.5 -52.5v-720h82q34 0 48.5 -15.5t14.5 -52.5t-14.5 -52.5t-48.5 -15.5h-159q-34 0 -48.5 15
t-14.5 52v121q-66 -102 -154.5 -156t-190.5 -54q-91 0 -158 39.5t-103 113.5t-36 173v484h-82q-34 0 -48.5 15.5t-14.5 52.5t14.5 52.5t48.5 15.5h169q34 0 48.5 -15.5t14.5 -52.5v-537q0 -89 41 -141t121 -52q85 0 158.5 49t117.5 135t44 192v286h-142q-34 0 -48.5 15.5
t-14.5 52.5t14.5 52.5t48.5 15.5h229q34 0 48.5 -15.5z" />
    <glyph glyph-name="Ubreve" unicode="&#x16c;" 
d="M929 1621.5q13 -11.5 13 -30.5q0 -8 -1 -13q-23 -113 -106.5 -175t-220.5 -62t-220.5 62t-106.5 175q-1 5 -1 13q0 19 13 30.5t41 17.5q15 3 28 3q34 0 43 -24q23 -71 73 -105t130 -34q81 0 131 34t72 105q9 24 43 24q13 0 28 -3q28 -6 41 -17.5zM1143.5 1171.5
q14.5 -15.5 14.5 -52.5t-14.5 -52.5t-48.5 -15.5h-62v-658q0 -209 -109.5 -312t-309.5 -103t-309.5 103t-109.5 312v658h-62q-34 0 -48.5 15.5t-14.5 52.5t14.5 52.5t48.5 15.5h324q34 0 48.5 -15.5t14.5 -52.5t-14.5 -52.5t-48.5 -15.5h-112v-638q0 -153 65 -220t204 -67
t204 67t65 220v638h-112q-34 0 -48.5 15.5t-14.5 52.5t14.5 52.5t48.5 15.5h324q34 0 48.5 -15.5z" />
    <glyph glyph-name="ubreve" unicode="&#x16d;" 
d="M909 1351.5q13 -11.5 13 -30.5q0 -8 -1 -13q-23 -113 -106.5 -175t-220.5 -62t-220.5 62t-106.5 175q-1 5 -1 13q0 19 13 30.5t41 17.5q15 3 28 3q34 0 43 -24q23 -71 73 -105t130 -34q81 0 131 34t72 105q9 24 43 24q13 0 28 -3q28 -6 41 -17.5zM984.5 908.5
q14.5 -15.5 14.5 -52.5v-720h82q34 0 48.5 -15.5t14.5 -52.5t-14.5 -52.5t-48.5 -15.5h-159q-34 0 -48.5 15t-14.5 52v121q-66 -102 -154.5 -156t-190.5 -54q-91 0 -158 39.5t-103 113.5t-36 173v484h-82q-34 0 -48.5 15.5t-14.5 52.5t14.5 52.5t48.5 15.5h169
q34 0 48.5 -15.5t14.5 -52.5v-537q0 -89 41 -141t121 -52q85 0 158.5 49t117.5 135t44 192v286h-142q-34 0 -48.5 15.5t-14.5 52.5t14.5 52.5t48.5 15.5h229q34 0 48.5 -15.5z" />
    <glyph glyph-name="Uring" unicode="&#x16e;" 
d="M739.5 1795q56.5 -32 88.5 -88.5t32 -125.5t-32 -125.5t-88.5 -88.5t-125.5 -32t-125.5 32t-88.5 88.5t-32 125.5t32 125.5t88.5 88.5t125.5 32t125.5 -32zM531 1664q-31 -31 -31 -83t31 -83t83 -31t83 31t31 83t-31 83t-83 31t-83 -31zM1143.5 1171.5
q14.5 -15.5 14.5 -52.5t-14.5 -52.5t-48.5 -15.5h-62v-658q0 -209 -109.5 -312t-309.5 -103t-309.5 103t-109.5 312v658h-62q-34 0 -48.5 15.5t-14.5 52.5t14.5 52.5t48.5 15.5h324q34 0 48.5 -15.5t14.5 -52.5t-14.5 -52.5t-48.5 -15.5h-112v-638q0 -153 65 -220t204 -67
t204 67t65 220v638h-112q-34 0 -48.5 15.5t-14.5 52.5t14.5 52.5t48.5 15.5h324q34 0 48.5 -15.5z" />
    <glyph glyph-name="uring" unicode="&#x16f;" 
d="M709.5 1525q56.5 -32 88.5 -88.5t32 -125.5t-32 -125.5t-88.5 -88.5t-125.5 -32t-125.5 32t-88.5 88.5t-32 125.5t32 125.5t88.5 88.5t125.5 32t125.5 -32zM501 1394q-31 -31 -31 -83t31 -83t83 -31t83 31t31 83t-31 83t-83 31t-83 -31zM984.5 908.5
q14.5 -15.5 14.5 -52.5v-720h82q34 0 48.5 -15.5t14.5 -52.5t-14.5 -52.5t-48.5 -15.5h-159q-34 0 -48.5 15t-14.5 52v121q-66 -102 -154.5 -156t-190.5 -54q-91 0 -158 39.5t-103 113.5t-36 173v484h-82q-34 0 -48.5 15.5t-14.5 52.5t14.5 52.5t48.5 15.5h169
q34 0 48.5 -15.5t14.5 -52.5v-537q0 -89 41 -141t121 -52q85 0 158.5 49t117.5 135t44 192v286h-142q-34 0 -48.5 15.5t-14.5 52.5t14.5 52.5t48.5 15.5h229q34 0 48.5 -15.5z" />
    <glyph glyph-name="Uhungarumlaut" unicode="&#x170;" 
d="M723 1592q0 -19 -19 -36l-270 -233q-17 -14 -37 -14q-22 0 -50 17q-30 19 -30 41q0 13 10 23l237 253q23 25 55 25q28 0 59 -19q45 -28 45 -57zM1103 1592q0 -19 -19 -36l-270 -233q-17 -14 -37 -14q-22 0 -50 17q-30 19 -30 41q0 13 10 23l237 253q23 25 55 25
q28 0 59 -19q45 -28 45 -57zM1143.5 1171.5q14.5 -15.5 14.5 -52.5t-14.5 -52.5t-48.5 -15.5h-62v-658q0 -209 -109.5 -312t-309.5 -103t-309.5 103t-109.5 312v658h-62q-34 0 -48.5 15.5t-14.5 52.5t14.5 52.5t48.5 15.5h324q34 0 48.5 -15.5t14.5 -52.5t-14.5 -52.5
t-48.5 -15.5h-112v-638q0 -153 65 -220t204 -67t204 67t65 220v638h-112q-34 0 -48.5 15.5t-14.5 52.5t14.5 52.5t48.5 15.5h324q34 0 48.5 -15.5z" />
    <glyph glyph-name="uhungarumlaut" unicode="&#x171;" 
d="M683 1322q0 -19 -19 -36l-270 -233q-17 -14 -37 -14q-22 0 -50 17q-30 19 -30 41q0 13 10 23l237 253q23 25 55 25q28 0 59 -19q45 -28 45 -57zM1063 1322q0 -19 -19 -36l-270 -233q-17 -14 -37 -14q-22 0 -50 17q-30 19 -30 41q0 13 10 23l237 253q23 25 55 25
q28 0 59 -19q45 -28 45 -57zM984.5 908.5q14.5 -15.5 14.5 -52.5v-720h82q34 0 48.5 -15.5t14.5 -52.5t-14.5 -52.5t-48.5 -15.5h-159q-34 0 -48.5 15t-14.5 52v121q-66 -102 -154.5 -156t-190.5 -54q-91 0 -158 39.5t-103 113.5t-36 173v484h-82q-34 0 -48.5 15.5
t-14.5 52.5t14.5 52.5t48.5 15.5h169q34 0 48.5 -15.5t14.5 -52.5v-537q0 -89 41 -141t121 -52q85 0 158.5 49t117.5 135t44 192v286h-142q-34 0 -48.5 15.5t-14.5 52.5t14.5 52.5t48.5 15.5h229q34 0 48.5 -15.5z" />
    <glyph glyph-name="Uogonek" unicode="&#x172;" 
d="M1143.5 1171.5q14.5 -15.5 14.5 -52.5t-14.5 -52.5t-48.5 -15.5h-62v-658q0 -141 -50 -233.5t-146 -137.5q-102 -92 -146 -157.5t-44 -124.5q0 -35 21 -54t56 -19q52 0 113 17q8 2 11 2q30 0 39 -54q2 -18 2 -25q0 -22 -8.5 -34.5t-25.5 -18.5q-75 -26 -164 -26
q-93 0 -146.5 52t-53.5 139q0 68 34 131.5t99 127.5h-10q-200 0 -309.5 103t-109.5 312v658h-62q-34 0 -48.5 15.5t-14.5 52.5t14.5 52.5t48.5 15.5h324q34 0 48.5 -15.5t14.5 -52.5t-14.5 -52.5t-48.5 -15.5h-112v-638q0 -153 65 -220t204 -67t204 67t65 220v638h-112
q-34 0 -48.5 15.5t-14.5 52.5t14.5 52.5t48.5 15.5h324q34 0 48.5 -15.5z" />
    <glyph glyph-name="uogonek" unicode="&#x173;" 
d="M1102 -314q30 0 39 -54q2 -18 2 -25q0 -22 -8.5 -34.5t-25.5 -18.5q-75 -26 -164 -26q-93 0 -146.5 52t-53.5 139q0 74 40.5 143t117.5 139q-23 4 -33.5 19.5t-10.5 46.5v121q-66 -102 -154.5 -156t-190.5 -54q-91 0 -158 39.5t-103 113.5t-36 173v484h-82
q-34 0 -48.5 15.5t-14.5 52.5t14.5 52.5t48.5 15.5h169q34 0 48.5 -15.5t14.5 -52.5v-537q0 -89 41 -141t121 -52q85 0 158.5 49t117.5 135t44 192v286h-142q-34 0 -48.5 15.5t-14.5 52.5t14.5 52.5t48.5 15.5h229q34 0 48.5 -15.5t14.5 -52.5v-720h82q34 0 48.5 -15.5
t14.5 -52.5t-14.5 -52.5t-48.5 -15.5h-14q-89 -83 -127.5 -144t-38.5 -116q0 -35 21 -54t56 -19q52 0 113 17q8 2 11 2z" />
    <glyph glyph-name="Wcircumflex" unicode="&#x174;" 
d="M672 1646l245 -233q16 -15 16 -33q0 -21 -23 -47q-21 -24 -44 -24q-16 0 -31 12l-221 173l-221 -173q-15 -12 -31 -12q-23 0 -44 24q-23 26 -23 47q0 18 16 33l245 233q22 20 58 20t58 -20zM1223.5 1171.5q14.5 -15.5 14.5 -52.5t-14.5 -52.5t-48.5 -15.5h-54l-138 -1008
q-5 -36 -25.5 -50.5t-60.5 -14.5q-82 0 -102 65l-185 581l-187 -581q-21 -65 -104 -65q-39 0 -59.5 15t-24.5 50l-133 1008h-49q-34 0 -48.5 15.5t-14.5 52.5t14.5 52.5t48.5 15.5h344q34 0 48.5 -15.5t14.5 -52.5t-14.5 -52.5t-48.5 -15.5h-146l100 -801l188 588
q14 47 72 47q32 0 49.5 -10t23.5 -30l187 -595l104 801h-124q-34 0 -48.5 15.5t-14.5 52.5t14.5 52.5t48.5 15.5h324q34 0 48.5 -15.5z" />
    <glyph glyph-name="wcircumflex" unicode="&#x175;" 
d="M672 1376l245 -233q16 -15 16 -33q0 -21 -23 -47q-21 -24 -44 -24q-16 0 -31 12l-221 173l-221 -173q-15 -12 -31 -12q-23 0 -44 24q-23 26 -23 47q0 18 16 33l245 233q22 20 58 20t58 -20zM1223.5 908.5q14.5 -15.5 14.5 -52.5t-14.5 -52.5t-48.5 -15.5h-24l-197 -745
q-10 -36 -29.5 -50.5t-57.5 -14.5q-43 0 -67.5 15.5t-36.5 49.5l-153 434l-155 -434q-12 -34 -37.5 -49.5t-68.5 -15.5q-38 0 -57 14.5t-28 50.5l-193 745h-18q-34 0 -48.5 15.5t-14.5 52.5t14.5 52.5t48.5 15.5h294q34 0 48.5 -15.5t14.5 -52.5t-14.5 -52.5t-48.5 -15.5
h-123l144 -582l167 464q7 21 26 34t50 13q63 0 77 -40l166 -471l148 582h-101q-34 0 -48.5 15.5t-14.5 52.5t14.5 52.5t48.5 15.5h274q34 0 48.5 -15.5z" />
    <glyph glyph-name="Ycircumflex" unicode="&#x176;" 
d="M682 1646l245 -233q16 -15 16 -33q0 -21 -23 -47q-21 -24 -44 -24q-16 0 -31 12l-221 173l-221 -173q-15 -12 -31 -12q-23 0 -44 24q-23 26 -23 47q0 18 16 33l245 233q22 20 58 20t58 -20zM1153.5 1171.5q14.5 -15.5 14.5 -52.5t-14.5 -52.5t-48.5 -15.5h-68l-348 -559
v-356h226q34 0 48.5 -15.5t14.5 -52.5t-14.5 -52.5t-48.5 -15.5h-602q-34 0 -48.5 15.5t-14.5 52.5t14.5 52.5t48.5 15.5h226v356l-346 559h-70q-34 0 -48.5 15.5t-14.5 52.5t14.5 52.5t48.5 15.5h334q34 0 48.5 -15.5t14.5 -52.5t-14.5 -52.5t-48.5 -15.5h-93l250 -409
l252 409h-65q-34 0 -48.5 15.5t-14.5 52.5t14.5 52.5t48.5 15.5h304q34 0 48.5 -15.5z" />
    <glyph glyph-name="ycircumflex" unicode="&#x177;" 
d="M688 1376l245 -233q16 -15 16 -33q0 -21 -23 -47q-21 -24 -44 -24q-16 0 -31 12l-221 173l-221 -173q-15 -12 -31 -12q-23 0 -44 24q-23 26 -23 47q0 18 16 33l245 233q22 20 58 20t58 -20zM1163.5 908.5q14.5 -15.5 14.5 -52.5t-14.5 -52.5t-48.5 -15.5h-62l-409 -838
q-65 -133 -127 -209t-139.5 -111.5t-188.5 -39.5q-35 -1 -54 17.5t-19 65.5q0 65 53 68q96 5 152.5 32t104 92.5t116.5 204.5l-366 718h-63q-34 0 -48.5 15.5t-14.5 52.5t14.5 52.5t48.5 15.5h354q34 0 48.5 -15.5t14.5 -52.5t-14.5 -52.5t-48.5 -15.5h-128l282 -562
l269 562h-89q-34 0 -48.5 15.5t-14.5 52.5t14.5 52.5t48.5 15.5h314q34 0 48.5 -15.5z" />
    <glyph glyph-name="Ydieresis" unicode="&#x178;" 
d="M1153.5 1171.5q14.5 -15.5 14.5 -52.5t-14.5 -52.5t-48.5 -15.5h-68l-348 -559v-356h226q34 0 48.5 -15.5t14.5 -52.5t-14.5 -52.5t-48.5 -15.5h-602q-34 0 -48.5 15.5t-14.5 52.5t14.5 52.5t48.5 15.5h226v356l-346 559h-70q-34 0 -48.5 15.5t-14.5 52.5t14.5 52.5
t48.5 15.5h334q34 0 48.5 -15.5t14.5 -52.5t-14.5 -52.5t-48.5 -15.5h-93l250 -409l252 409h-65q-34 0 -48.5 15.5t-14.5 52.5t14.5 52.5t48.5 15.5h304q34 0 48.5 -15.5zM479 1618.5q20 -14.5 20 -50.5v-130q0 -36 -20 -50.5t-75 -14.5t-75 14.5t-20 50.5v130q0 36 20 50.5
t75 14.5t75 -14.5zM899 1618.5q20 -14.5 20 -50.5v-130q0 -36 -20 -50.5t-75 -14.5t-75 14.5t-20 50.5v130q0 36 20 50.5t75 14.5t75 -14.5z" />
    <glyph glyph-name="Zacute" unicode="&#x179;" 
d="M1035.5 1171.5q14.5 -15.5 14.5 -52.5q0 -25 -10 -39l-663 -944h532v269q0 35 17 50t58 15t58 -15t17 -50v-337q0 -37 -14.5 -52.5t-48.5 -15.5h-766q-34 0 -48.5 15.5t-14.5 52.5q0 22 14 43l659 940h-502v-249q0 -35 -17 -50t-58 -15t-58 15t-17 50v317q0 37 14.5 52.5
t48.5 15.5h736q34 0 48.5 -15.5zM816 1685q34 0 67 -41q30 -39 30 -68q0 -26 -22 -39l-374 -219q-18 -10 -32 -10q-24 0 -46 25q-24 27 -24 52q0 19 16 31l348 256q18 13 37 13z" />
    <glyph glyph-name="zacute" unicode="&#x17a;" 
d="M1025.5 908.5q14.5 -15.5 14.5 -52.5q0 -29 -15 -46l-610 -674h485v172q0 35 17 50t58 15t58 -15t17 -50v-240q0 -37 -14.5 -52.5t-48.5 -15.5h-746q-34 0 -48.5 15.5t-14.5 52.5q0 30 14 45l611 675h-455v-149q0 -35 -17 -50t-58 -15t-58 15t-17 50v217q0 37 14.5 52.5
t48.5 15.5h716q34 0 48.5 -15.5zM806 1415q34 0 67 -41q30 -39 30 -68q0 -26 -22 -39l-374 -219q-18 -10 -32 -10q-24 0 -46 25q-24 27 -24 52q0 19 16 31l348 256q18 13 37 13z" />
    <glyph glyph-name="Zdotaccent" unicode="&#x17b;" 
d="M689 1618.5q20 -14.5 20 -50.5v-130q0 -36 -20 -50.5t-75 -14.5t-75 14.5t-20 50.5v130q0 36 20 50.5t75 14.5t75 -14.5zM1035.5 1171.5q14.5 -15.5 14.5 -52.5q0 -25 -10 -39l-663 -944h532v269q0 35 17 50t58 15t58 -15t17 -50v-337q0 -37 -14.5 -52.5t-48.5 -15.5
h-766q-34 0 -48.5 15.5t-14.5 52.5q0 22 14 43l659 940h-502v-249q0 -35 -17 -50t-58 -15t-58 15t-17 50v317q0 37 14.5 52.5t48.5 15.5h736q34 0 48.5 -15.5z" />
    <glyph glyph-name="zdotaccent" unicode="&#x17c;" 
d="M699 1348.5q20 -14.5 20 -50.5v-130q0 -36 -20 -50.5t-75 -14.5t-75 14.5t-20 50.5v130q0 36 20 50.5t75 14.5t75 -14.5zM1025.5 908.5q14.5 -15.5 14.5 -52.5q0 -29 -15 -46l-610 -674h485v172q0 35 17 50t58 15t58 -15t17 -50v-240q0 -37 -14.5 -52.5t-48.5 -15.5h-746
q-34 0 -48.5 15.5t-14.5 52.5q0 30 14 45l611 675h-455v-149q0 -35 -17 -50t-58 -15t-58 15t-17 50v217q0 37 14.5 52.5t48.5 15.5h716q34 0 48.5 -15.5z" />
    <glyph glyph-name="Zcaron" unicode="&#x17d;" 
d="M564 1331l-245 233q-16 15 -16 33q0 21 23 47q21 24 44 24q16 0 31 -12l221 -173l221 173q15 12 31 12q23 0 44 -24q23 -26 23 -47q0 -18 -16 -33l-245 -233q-22 -20 -58 -20t-58 20zM1035.5 1171.5q14.5 -15.5 14.5 -52.5q0 -25 -10 -39l-663 -944h532v269q0 35 17 50
t58 15t58 -15t17 -50v-337q0 -37 -14.5 -52.5t-48.5 -15.5h-766q-34 0 -48.5 15.5t-14.5 52.5q0 22 14 43l659 940h-502v-249q0 -35 -17 -50t-58 -15t-58 15t-17 50v317q0 37 14.5 52.5t48.5 15.5h736q34 0 48.5 -15.5z" />
    <glyph glyph-name="zcaron" unicode="&#x17e;" 
d="M566 1051l-245 233q-16 15 -16 33q0 21 23 47q21 24 44 24q16 0 31 -12l221 -173l221 173q15 12 31 12q23 0 44 -24q23 -26 23 -47q0 -18 -16 -33l-245 -233q-22 -20 -58 -20t-58 20zM1025.5 908.5q14.5 -15.5 14.5 -52.5q0 -29 -15 -46l-610 -674h485v172q0 35 17 50
t58 15t58 -15t17 -50v-240q0 -37 -14.5 -52.5t-48.5 -15.5h-746q-34 0 -48.5 15.5t-14.5 52.5q0 30 14 45l611 675h-455v-149q0 -35 -17 -50t-58 -15t-58 15t-17 50v217q0 37 14.5 52.5t48.5 15.5h716q34 0 48.5 -15.5z" />
    <glyph glyph-name="longs" unicode="&#x17f;" horiz-adv-x="668" 
d="M535 1417q-94 0 -137.5 -58.5t-43.5 -176.5v-1182h-180v1182q0 385 363 385q100 0 204 -39l-47 -142q-90 31 -159 31z" />
    <glyph glyph-name="uni0180" unicode="&#x180;" horiz-adv-x="1260" 
d="M694 1116q217 0 335 -149.5t118 -417.5q0 -272 -120 -420.5t-333 -148.5q-111 0 -198 40t-142 119h-14q-31 -120 -37 -139h-129v1239h-156v135h156v182h180v-182h437v-135h-437v-61q0 -113 -10 -226h10q111 164 340 164zM664 967q-166 0 -238 -94t-72 -318v-8
q0 -225 73.5 -321.5t240.5 -96.5q148 0 220.5 108.5t72.5 313.5q0 208 -73 312t-224 104z" />
    <glyph glyph-name="uni0181" unicode="&#x181;" horiz-adv-x="1495" 
d="M309 1305q-125 0 -125 -103q0 -61 21 -110h-162q-9 21 -16 54t-7 58q0 133 70.5 195.5t218.5 62.5h471q294 0 424.5 -87.5t130.5 -274.5q0 -130 -71 -214.5t-207 -109.5v-10q167 -29 247 -116.5t80 -233.5q0 -197 -134.5 -306.5t-372.5 -109.5h-515v1305h-53zM547 840
h270q172 0 250 55t78 184q0 120 -85.5 173t-271.5 53h-241v-465zM547 686v-530h295q176 0 261 68t85 206q0 131 -90 193.5t-271 62.5h-280z" />
    <glyph glyph-name="uni0182" unicode="&#x182;" horiz-adv-x="1260" 
d="M1155 428q0 -216 -130 -322t-398 -106h-428v1462h868v-162h-684v-456h217q280 0 417.5 -99t137.5 -317zM383 158h225q188 0 272.5 63.5t84.5 206.5q0 140 -88 198t-299 58h-195v-526z" />
    <glyph glyph-name="uni0183" unicode="&#x183;" horiz-adv-x="1260" 
d="M694 1116q217 0 335 -149.5t118 -417.5q0 -272 -120 -420.5t-333 -148.5q-111 0 -198 40t-142 119h-14q-31 -120 -37 -139h-129v1556h862v-151h-682v-227q0 -113 -10 -226h10q111 164 340 164zM664 967q-166 0 -238 -94t-72 -318v-8q0 -225 73.5 -321.5t240.5 -96.5
q148 0 220.5 108.5t72.5 313.5q0 208 -73 312t-224 104z" />
    <glyph glyph-name="uni0184" unicode="&#x184;" horiz-adv-x="1300" 
d="M369 430q0 -158 76.5 -225.5t250.5 -67.5q163 0 236.5 73t73.5 210q0 141 -98.5 202.5t-286.5 61.5h-252v-254zM184 1462h185v-618h274q265 0 409 -108.5t144 -315.5t-130.5 -323.5t-367.5 -116.5q-514 0 -514 450v1032z" />
    <glyph glyph-name="uni0185" unicode="&#x185;" horiz-adv-x="1253" 
d="M659 -20q-235 0 -363 148t-128 419v1009h180v-378q0 -113 -10 -226h10q111 164 340 164q217 0 335 -149.5t118 -417.5q0 -274 -125.5 -421.5t-356.5 -147.5zM348 543q0 -196 83.5 -305t230.5 -109t219.5 109t72.5 313q0 208 -72.5 312t-224.5 104q-165 0 -237 -94.5
t-72 -317.5v-12z" />
    <glyph glyph-name="uni0186" unicode="&#x186;" horiz-adv-x="1294" 
d="M498 1483q324 0 497.5 -197t173.5 -557q0 -225 -81 -394.5t-234.5 -262t-355.5 -92.5q-113 0 -201.5 13t-175.5 46v160q193 -58 348 -58q236 0 371 158t135 432q0 281 -130.5 435.5t-375.5 154.5q-157 0 -332 -80l-74 156q172 86 435 86z" />
    <glyph glyph-name="uni0187" unicode="&#x187;" horiz-adv-x="1294" 
d="M825 1321q-236 0 -371 -158t-135 -432q0 -283 131 -436.5t373 -153.5q156 0 351 58v-160q-93 -34 -179 -46.5t-198 -12.5q-323 0 -497.5 196.5t-174.5 556.5q0 226 83.5 396t243 262t375.5 92q124 0 240 -29v29q0 132 55 203t181 71q61 0 122 -26v-148q-49 21 -106 21
q-96 0 -96 -99v-104l-74 -160q-68 31 -147 55.5t-177 24.5z" />
    <glyph glyph-name="uni0188" unicode="&#x188;" horiz-adv-x="1030" 
d="M614 -20q-237 0 -369 145.5t-132 417.5q0 276 133.5 425.5t380.5 149.5q56 0 133 -12v186q0 132 54.5 203.5t180.5 71.5q60 0 123 -27v-149q-47 20 -106 20q-97 0 -97 -98v-254l-55 -150q-139 52 -237 52q-166 0 -245 -104.5t-79 -311.5q0 -199 79 -304.5t234 -105.5
q145 0 285 64v-160q-114 -59 -283 -59z" />
    <glyph glyph-name="uni0189" unicode="&#x189;" horiz-adv-x="1495" 
d="M890 1115.5q119 -71.5 184.5 -206t65.5 -316.5t-65.5 -316t-184.5 -205.5t-276 -71.5h-471q-34 0 -48.5 15.5t-14.5 52.5t14.5 52.5t48.5 15.5h112v408h-142q-34 0 -48.5 15.5t-14.5 52.5t14.5 52.5t48.5 15.5h142v371h-112q-34 0 -48.5 15.5t-14.5 52.5t14.5 52.5
t48.5 15.5h471q157 0 276 -71.5zM798 188.5q88 52.5 136 155t48 249.5t-48 249.5t-136 155.5t-207 53h-186v-371h190q34 0 48.5 -15.5t14.5 -52.5t-14.5 -52.5t-48.5 -15.5h-190v-408h186q119 0 207 52.5z" />
    <glyph glyph-name="uni018A" unicode="&#x18a;" horiz-adv-x="1659" 
d="M1339 739q0 279 -137.5 422.5t-415.5 143.5h-239v-1147h198q594 0 594 581zM813 1462q344 0 532.5 -189.5t188.5 -527.5q0 -362 -197.5 -553.5t-566.5 -191.5h-408v1305h-53q-125 0 -125 -103q0 -61 21 -110h-162q-9 21 -16 54t-7 58q0 133 70.5 195.5t218.5 62.5h504z
" />
    <glyph glyph-name="uni018B" unicode="&#x18b;" horiz-adv-x="1260" 
d="M877 686h-168q-217 0 -315.5 -65t-98.5 -207q0 -129 90.5 -192.5t284.5 -63.5h207v528zM1061 1462v-1462h-408q-549 0 -549 406q0 210 151 324t433 114h189v456h-684v162h868z" />
    <glyph glyph-name="uni018C" unicode="&#x18c;" horiz-adv-x="1260" 
d="M592 129q164 0 239.5 89.5t75.5 293.5v33q0 229 -76.5 326.5t-240.5 97.5q-139 0 -215 -110.5t-76 -315.5q0 -204 75.5 -309t217.5 -105zM1085 0h-145l-27 147h-8q-115 -167 -342 -167q-214 0 -332 148t-118 419q0 269 118.5 420t333.5 151q221 0 340 -162h13
q-3 20 -8 80.5t-5 81.5v287h-682v151h862v-1556z" />
    <glyph glyph-name="uni018D" unicode="&#x18d;" horiz-adv-x="1237" 
d="M698 602q136 -77 195 -157t59 -179q0 -132 -98 -209t-270 -77q-104 0 -199 23t-223 87l78 141q76 -43 162 -73.5t190 -30.5q82 0 130 38t48 103q0 69 -54.5 122.5t-219.5 144.5q-213 117 -299 239t-86 279q0 236 135 369.5t377 133.5q229 0 366 -124t137 -334
q0 -179 -111 -307t-317 -189zM297 1055q0 -126 61.5 -216t196.5 -159q189 45 286 152t97 268q0 138 -85 222.5t-230 84.5q-158 0 -242 -90.5t-84 -261.5z" />
    <glyph glyph-name="uni018E" unicode="&#x18e;" horiz-adv-x="1139" 
d="M123 162h633v522h-596v160h596v456h-633v162h817v-1462h-817v162z" />
    <glyph glyph-name="uni018F" unicode="&#x18f;" horiz-adv-x="1513" 
d="M680 1323q-225 0 -467 -84v168q125 44 234 61t237 17q332 0 517 -200t185 -556q0 -350 -173.5 -549.5t-485.5 -199.5q-301 0 -453.5 188.5t-152.5 562.5v70h1071q-17 259 -146 390.5t-366 131.5zM727 141q205 0 327 130.5t138 367.5h-875q0 -255 100.5 -376.5
t309.5 -121.5z" />
    <glyph glyph-name="uni0190" unicode="&#x190;" horiz-adv-x="1204" 
d="M178 1120q0 167 124.5 265t340.5 98q132 0 254.5 -38.5t222.5 -113.5l-88 -125q-107 73 -193 99t-192 26q-130 0 -204 -62.5t-74 -166.5q0 -123 98.5 -195.5t296.5 -72.5h199v-154h-209q-225 0 -338 -67.5t-113 -198.5q0 -137 99 -210t286 -73q215 0 438 107v-168
q-184 -90 -448 -90q-276 0 -421.5 106t-145.5 313q0 156 95.5 248t280.5 117v8q-147 25 -228 115.5t-81 232.5z" />
    <glyph glyph-name="uni0191" unicode="&#x191;" horiz-adv-x="1063" 
d="M92 -492q-66 0 -115 27v156q42 -21 93 -21q72 0 100.5 41.5t28.5 126.5v1624h817v-162h-633v-518h594v-161h-594v-791q0 -322 -291 -322z" />
    <glyph glyph-name="florin" unicode="&#x192;" 
d="M1111 1286q41 -13 41 -52q0 -15 -6 -36q-17 -60 -57 -60q-6 0 -22 4q-91 29 -182 29q-76 0 -118.5 -46t-52.5 -141l-14 -140h234q34 0 48.5 -15.5t14.5 -52.5t-14.5 -52.5t-48.5 -15.5h-248l-67 -667q-16 -153 -104 -236.5t-230 -83.5q-114 0 -211 31q-41 13 -41 52
q0 15 6 36q17 60 57 60q6 0 22 -4q91 -29 182 -29q76 0 118.5 46t52.5 141l66 654h-197q-34 0 -48.5 15.5t-14.5 52.5t14.5 52.5t48.5 15.5h210l16 153q16 153 104 236.5t230 83.5q114 0 211 -31z" />
    <glyph glyph-name="uni0193" unicode="&#x193;" horiz-adv-x="1491" 
d="M834 772h505v-717q-116 -37 -236 -56t-278 -19q-334 0 -517 198t-183 553q0 229 91 400t262.5 261.5t404.5 90.5q146 0 280 -35v35q0 132 55 203t181 71q59 0 123 -26v-148q-49 21 -107 21q-96 0 -96 -99v-108l-70 -160q-193 84 -377 84q-261 0 -408 -158t-147 -432
q0 -290 141 -441t410 -151q147 0 287 35v434h-321v164z" />
    <glyph glyph-name="uni0194" unicode="&#x194;" horiz-adv-x="1167" 
d="M684 221q68 -134 102.5 -248.5t34.5 -191.5q0 -121 -65.5 -197t-171.5 -76q-110 0 -174 77.5t-64 195.5q0 159 137 438l-483 1243h193q183 -486 279.5 -742t111.5 -341q20 104 102 323l287 760h194zM653 -215q0 54 -17.5 127.5t-51.5 138.5q-39 -77 -54.5 -147
t-15.5 -115q0 -63 19.5 -92t50.5 -29q69 0 69 117z" />
    <glyph glyph-name="uni0195" unicode="&#x195;" horiz-adv-x="1913" 
d="M1309 129q137 0 197.5 73.5t60.5 231.5v664h180v-670q0 -234 -104 -341t-334 -107q-226 0 -332.5 99.5t-106.5 301.5v321q0 134 -53.5 199.5t-169.5 65.5q-152 0 -222.5 -93.5t-70.5 -306.5v-567h-180v1556h180v-456q0 -90 -10 -154h12q50 85 135.5 127.5t184.5 42.5
q186 0 280.5 -95.5t94.5 -305.5v-322q0 -133 62.5 -198.5t195.5 -65.5z" />
    <glyph glyph-name="uni0196" unicode="&#x196;" horiz-adv-x="713" 
d="M367 1462v-1124q0 -99 37 -148t120 -49q44 0 91 7t77 16v-152q-26 -12 -82 -22t-112 -10q-164 0 -239 84.5t-75 257.5v1140h183z" />
    <glyph glyph-name="uni0197" unicode="&#x197;" horiz-adv-x="694" 
d="M610 0h-528v106l172 39v525h-184v159h184v486l-172 41v106h528v-106l-172 -41v-486h185v-159h-185v-525l172 -39v-106z" />
    <glyph glyph-name="uni0198" unicode="&#x198;" horiz-adv-x="1268" 
d="M670 829l598 -829h-217q-61 81 -248 353q-146 211 -258 347l-162 -157v-543h-184v1462h184v-737q57 72 123 148q44 50 379 460q59 77 111.5 109.5t136.5 32.5q62 0 102 -17v-143q-42 6 -90 6q-34 0 -64 -20t-75 -74z" />
    <glyph glyph-name="uni0199" unicode="&#x199;" horiz-adv-x="1094" 
d="M352 743l-8 -178h8l61 78l70 84l351 371h210l-444 -469l475 -629h-217l-381 512l-125 -109v-403h-178v1280q0 287 248 287q67 0 133 -27v-149q-47 20 -106 20q-47 0 -72 -27t-25 -92v-549z" />
    <glyph glyph-name="uni019A" unicode="&#x19a;" horiz-adv-x="528" 
d="M354 860h144v-135h-144v-725h-180v725h-143v135h143v696h180v-696z" />
    <glyph glyph-name="uni019B" unicode="&#x19b;" horiz-adv-x="1110" 
d="M-12 0l473 1077l-47 131l-217 -65l-39 129l202 61q-26 46 -60 66t-93 20q-62 0 -115 -12v145q68 17 135 17q109 0 178.5 -43t120.5 -142l224 68l38 -129l-208 -66l366 -1019q20 -57 43.5 -84t59.5 -27q24 0 61 10v-133q-50 -24 -117 -24q-74 0 -119 37t-77 128l-150 420
q-85 243 -102 326h-8q-33 -126 -113 -316l-250 -575h-186z" />
    <glyph glyph-name="uni019C" unicode="&#x19c;" horiz-adv-x="2109" 
d="M369 1462v-1036q0 -143 59 -215t188 -72q173 0 255.5 96.5t82.5 301.5v925h185v-1036q0 -143 59.5 -215t192.5 -72q172 0 252.5 102t80.5 337v884h185v-1462h-146l-30 168h-11q-51 -87 -151 -137.5t-219 -50.5q-139 0 -226.5 50t-132.5 154h-10q-58 -98 -163.5 -151
t-231.5 -53q-211 0 -307.5 108t-96.5 338v1036h185z" />
    <glyph glyph-name="uni019D" unicode="&#x19d;" horiz-adv-x="1556" 
d="M199 1462h213l45 -71l480 -742l255 -397h8q-2 24 -8 171.5t-6 213.5v825h172v-1462h-215l-783 1214h-8l5 -81q12 -182 12 -316v-987q0 -169 -69.5 -245.5t-207.5 -76.5q-66 0 -115 27v156q42 -21 93 -21q72 0 100.5 41.5t28.5 126.5v1624z" />
    <glyph glyph-name="uni019E" unicode="&#x19e;" horiz-adv-x="1266" 
d="M922 -492v1194q0 132 -59 198.5t-187 66.5q-169 0 -245.5 -95.5t-76.5 -302.5v-569h-180v1098h145l27 -150h10q51 81 143 125.5t203 44.5q202 0 300 -98t98 -305v-1207h-178z" />
    <glyph glyph-name="uni019F" unicode="&#x19f;" horiz-adv-x="1602" 
d="M1475 733q0 -351 -177.5 -552t-496.5 -201q-323 0 -499.5 197.5t-176.5 557.5q0 357 175.5 553.5t502.5 196.5q318 0 495 -199.5t177 -552.5zM801 139q222 0 343.5 133.5t133.5 393.5h-956q13 -260 134.5 -393.5t344.5 -133.5zM803 1323q-218 0 -340 -125.5t-141 -372.5
h954q-19 248 -138.5 373t-334.5 125z" />
    <glyph glyph-name="Ohorn" unicode="&#x1a0;" horiz-adv-x="1606" 
d="M1473 733q0 -354 -177.5 -553.5t-494.5 -199.5q-323 0 -499.5 196.5t-176.5 558.5q0 360 176.5 555t501.5 195t506 -213q68 19 99.5 81t31.5 203h194l15 -22q-31 -160 -98 -247t-171 -126q93 -174 93 -428zM319 733q0 -291 122 -442.5t360 -151.5q237 0 357 149.5
t120 444.5q0 292 -119.5 441t-355.5 149q-241 0 -362.5 -151t-121.5 -439z" />
    <glyph glyph-name="ohorn" unicode="&#x1a1;" horiz-adv-x="1262" 
d="M1128 551q0 -269 -136 -420t-376 -151q-149 0 -264 69.5t-177 199.5t-62 302q0 268 134 417.5t376 149.5q108 0 199 -36.5t157 -104.5q50 15 79.5 48.5t43.5 84t14 156.5h193l14 -23q-32 -161 -95 -248.5t-169 -126.5q69 -140 69 -317zM299 551q0 -216 79 -319t243 -103
q169 0 245 107t76 315q0 205 -77.5 310.5t-246.5 105.5t-244 -105.5t-75 -310.5z" />
    <glyph glyph-name="uni01A2" unicode="&#x1a2;" horiz-adv-x="2202" 
d="M1409 733q0 -354 -169 -553.5t-472 -199.5q-307 0 -475 197t-168 558q0 357 167.5 553.5t477.5 196.5q291 0 459 -187q57 88 159.5 137.5t225.5 49.5q209 0 306 -108t97 -339v-1038h-184v1038q0 144 -59 215.5t-189 71.5q-108 0 -177 -31t-108 -94q109 -189 109 -467z
M319 733q0 -290 114.5 -442t334.5 -152q219 0 332.5 150t113.5 444q0 293 -112.5 441.5t-331.5 148.5q-222 0 -336.5 -150.5t-114.5 -439.5z" />
    <glyph glyph-name="uni01A3" unicode="&#x1a3;" horiz-adv-x="1731" 
d="M1077 551q0 -270 -129.5 -420.5t-355.5 -150.5q-142 0 -251.5 69.5t-168.5 200.5t-59 301q0 267 127.5 417t355.5 150q217 0 346 -147q53 75 130.5 111t164.5 36q164 0 246 -96t82 -307v-1207h-179v1199q0 260 -188 260q-130 0 -192 -90q71 -130 71 -326zM299 551
q0 -207 75 -314.5t220 -107.5t221 107t76 315q0 206 -75.5 311t-221.5 105q-295 0 -295 -416z" />
    <glyph glyph-name="uni01A4" unicode="&#x1a4;" horiz-adv-x="1403" 
d="M547 727h147q218 0 316 70.5t98 226.5q0 141 -91 211t-284 70h-186v-578zM750 1462q548 0 548 -430q0 -223 -152 -343t-431 -120h-168v-569h-185v1305h-53q-125 0 -125 -103q0 -61 21 -110h-162q-9 21 -16 54t-7 58q0 133 70.5 195.5t218.5 62.5h441z" />
    <glyph glyph-name="uni01A5" unicode="&#x1a5;" horiz-adv-x="1260" 
d="M424 1567q67 0 133 -27v-149q-47 20 -106 20q-47 0 -72 -27t-25 -92v-164q0 -61 -8 -139l-4 -41h12q64 90 148 130t194 40q214 0 332.5 -148.5t118.5 -418.5q0 -269 -119 -420t-334 -151q-221 0 -340 159h-12l4 -41q8 -78 8 -139v-451h-180l2 1772q0 287 248 287z
M664 967q-163 0 -235.5 -92t-74.5 -289v-35q0 -223 74 -322.5t240 -99.5q138 0 215.5 112t77.5 312q0 201 -77.5 307.5t-219.5 106.5z" />
    <glyph glyph-name="uni01A6" unicode="&#x1a6;" horiz-adv-x="1274" 
d="M383 555h219q178 0 260 70t82 209q0 138 -83 201t-269 63h-209v-543zM383 399v-399h-184v1462h184v-205h219q272 0 402.5 -103.5t130.5 -311.5q0 -290 -293 -391l401 -656h-215l-354 604h-291z" />
    <glyph glyph-name="uni01A7" unicode="&#x1a7;" horiz-adv-x="1124" 
d="M96 391q0 99 41 172t125 130t254 120q140 52 202.5 90.5t90 86t27.5 118.5q0 101 -73.5 157t-203.5 56q-147 0 -315 -78l-58 158q175 82 369 82q209 0 338 -101t129 -272q0 -156 -85 -257.5t-292 -176.5q-159 -58 -230.5 -99t-102.5 -88t-31 -114q0 -110 82.5 -173
t246.5 -63q186 0 410 97v-177q-69 -34 -174 -56.5t-228 -22.5q-245 0 -383.5 110t-138.5 301z" />
    <glyph glyph-name="uni01A8" unicode="&#x1a8;" horiz-adv-x="981" 
d="M92 303q0 76 31 131t95.5 99t203.5 96q181 69 232 108.5t51 100.5q0 62 -58 97.5t-170 35.5q-103 0 -270 -70l-62 143q165 74 320 74q201 0 306.5 -75t105.5 -216q0 -76 -29.5 -129t-92.5 -95.5t-218 -102.5q-108 -41 -165.5 -73t-81.5 -63.5t-24 -76.5q0 -80 65.5 -121
t194.5 -41q172 0 348 88v-164q-128 -69 -344 -69q-438 0 -438 323z" />
    <glyph glyph-name="uni01A9" unicode="&#x1a9;" horiz-adv-x="1167" 
d="M74 0v152l479 612l-467 545v153h973v-164h-666l-96 2l461 -534l-482 -606l334 2h508v-162h-1044z" />
    <glyph glyph-name="uni01AA" unicode="&#x1aa;" horiz-adv-x="633" 
d="M137 1110q-123 0 -187.5 60t-64.5 169q0 110 67 169t189 59q130 0 198.5 -74t68.5 -215v-1425q0 -100 37 -148.5t120 -48.5q39 0 89.5 6.5t78.5 15.5v-137q-31 -14 -85.5 -23.5t-106.5 -9.5q-163 0 -237.5 84.5t-74.5 257.5v1260h-92zM129 1419q-44 0 -62 -24.5
t-18 -55.5q0 -82 101 -82h79v27q0 72 -25 103.5t-75 31.5z" />
    <glyph glyph-name="uni01AB" unicode="&#x1ab;" horiz-adv-x="739" 
d="M455 -492q-60 0 -123 25v150q46 -19 102 -19q98 0 98 107v209h-22q-322 0 -322 339v639h-155v86l157 72l72 234h107v-252h317v-140h-317v-634q0 -95 45.5 -146t126.5 -51q35 0 82 7t71 16v-369q0 -273 -239 -273z" />
    <glyph glyph-name="uni01AC" unicode="&#x1ac;" horiz-adv-x="1180" 
d="M309 1300q-125 0 -125 -98q0 -61 21 -110h-162q-9 21 -16 54t-7 58q0 133 70.5 195.5t218.5 62.5h848v-162h-455v-1300h-184v1300h-209z" />
    <glyph glyph-name="uni01AD" unicode="&#x1ad;" horiz-adv-x="739" 
d="M369 1098h317v-140h-317v-634q0 -95 45.5 -146t126.5 -51q35 0 82 7t71 16v-138q-25 -11 -77.5 -21.5t-106.5 -10.5q-322 0 -322 339v639h-155v86l157 72v135q0 316 302 316q79 0 157 -27v-149q-23 8 -70.5 14t-86.5 6q-65 0 -94 -35t-29 -104v-174z" />
    <glyph glyph-name="uni01AE" unicode="&#x1ae;" horiz-adv-x="1139" 
d="M477 1300h-457v162h1096v-162h-454v-1462q0 -87 29 -127.5t100 -40.5q50 0 92 21v-156q-49 -27 -129 -27q-139 0 -208 76.5t-69 245.5v1470z" />
    <glyph glyph-name="Uhorn" unicode="&#x1af;" horiz-adv-x="1597" 
d="M1311 1462v-198q82 11 120.5 75.5t38.5 216.5h191l14 -22q-33 -185 -121 -278t-243 -119v-621q0 -256 -144.5 -396t-410.5 -140q-272 0 -422 144t-150 396v942h185v-950q0 -177 97 -275t294 -98q180 0 274 95t94 280v948h183z" />
    <glyph glyph-name="uhorn" unicode="&#x1b0;" horiz-adv-x="1380" 
d="M344 1096v-705q0 -133 59.5 -197.5t184.5 -64.5q169 0 246 94t77 303v570h181v-121q80 13 116.5 77t36.5 216h191l14 -23q-32 -191 -120.5 -285.5t-237.5 -111.5v-848h-148l-26 145h-9q-50 -79 -139 -122t-205 -43q-201 0 -302 95t-101 304v717h182z" />
    <glyph glyph-name="uni01B1" unicode="&#x1b1;" horiz-adv-x="1602" 
d="M801 139q234 0 354.5 127.5t120.5 374.5q0 225 -83 386.5t-259 287.5v147h590v-162h-365q151 -116 231 -288t80 -377q0 -308 -177.5 -483t-491.5 -175q-318 0 -495 174t-177 482q0 205 80 379t229 288h-362v162h590v-147q-179 -128 -261.5 -291t-82.5 -383
q0 -246 121.5 -374t357.5 -128z" />
    <glyph glyph-name="uni01B2" unicode="&#x1b2;" horiz-adv-x="1229" 
d="M1169 1188q0 -109 -92 -322l-370 -866h-185l-522 1462h193l331 -954q63 -180 92 -320q17 61 55 149q43 102 66 167l174 416q74 181 74 256q0 80 -33 112.5t-96 32.5q-50 0 -92 -21v156q46 27 129 27q276 0 276 -295z" />
    <glyph glyph-name="uni01B3" unicode="&#x1b3;" horiz-adv-x="1159" 
d="M80 1329q-43 0 -80 -16v149q58 23 123 23q75 0 121 -35.5t84 -118.5l262 -588l371 719h198l-477 -895v-567h-184v559l-332 698q-36 72 -86 72z" />
    <glyph glyph-name="uni01B4" unicode="&#x1b4;" horiz-adv-x="1110" 
d="M993 1118q67 0 117 -24v-133q-37 10 -61 10q-36 0 -58.5 -27t-44.5 -84l-375 -1012q-65 -179 -161.5 -259.5t-237.5 -80.5q-75 0 -149 17v143q50 -12 120 -12q174 0 248 194l53 146l-442 1102h193l237 -625q75 -204 92 -299h8q17 73 99 301l155 445q39 111 84.5 154.5
t122.5 43.5z" />
    <glyph glyph-name="uni01B5" unicode="&#x1b5;" horiz-adv-x="1171" 
d="M162 834h377l309 464h-746v164h969v-139l-326 -489h250v-146h-346l-348 -524h791v-164h-1014v139l364 549h-280v146z" />
    <glyph glyph-name="uni01B6" unicode="&#x1b6;" horiz-adv-x="963" 
d="M117 641h329l224 317h-555v140h753v-135l-227 -322h207v-143h-309l-252 -359h596v-139h-803v119l266 379h-229v143z" />
    <glyph glyph-name="uni01B7" unicode="&#x1b7;" horiz-adv-x="1196" 
d="M596 901q139 -4 251 -61t174 -156.5t62 -230.5q0 -224 -155 -348.5t-434 -124.5q-259 0 -422 79v168q100 -48 213 -72t211 -24q199 0 297 84t98 240q0 142 -101 219.5t-294 77.5h-127v133l422 413h-678v164h909v-145z" />
    <glyph glyph-name="uni01B8" unicode="&#x1b8;" horiz-adv-x="1196" 
d="M174 1317v145h909v-164h-675l419 -413v-133h-159q-173 0 -268 -83t-95 -233q0 -145 101 -225t294 -80q100 0 212.5 24t211.5 72v-168q-92 -44 -201 -61.5t-245 -17.5q-179 0 -306 55.5t-193 157.5t-66 239q0 139 61.5 243.5t172.5 163t253 62.5z" />
    <glyph glyph-name="uni01B9" unicode="&#x1b9;" horiz-adv-x="1020" 
d="M125 967v131h838v-152h-627l448 -497v-125h-120q-206 0 -310 -87t-104 -255q0 -146 96.5 -235t257.5 -89q204 0 387 86v-164q-140 -72 -401 -72q-232 0 -376 129.5t-144 339.5q0 216 131.5 344.5t371.5 145.5z" />
    <glyph glyph-name="uni01BA" unicode="&#x1ba;" horiz-adv-x="1020" 
d="M442 -342q172 0 328 74v-164q-122 -60 -330 -60q-185 0 -284 64t-99 180q0 128 95 188t282 60q163 0 234 56t71 194q0 122 -91 179.5t-292 57.5h-120v125l374 334h-553v152h807v-131l-383 -336q212 -10 325.5 -105.5t113.5 -273.5q0 -195 -122 -298.5t-360 -103.5
q-108 0 -159.5 -21t-51.5 -77q0 -43 54.5 -68.5t160.5 -25.5z" />
    <glyph glyph-name="uni01BB" unicode="&#x1bb;" horiz-adv-x="1167" 
d="M160 858h493q56 90 80.5 167.5t24.5 166.5q0 103 -61 160t-169 57q-93 0 -167.5 -34t-149.5 -101l-96 121q191 172 417 172q192 0 302 -99.5t110 -271.5q0 -86 -21.5 -166.5t-72.5 -171.5h205v-143h-295q-22 -33 -48 -66.5t-413 -496.5v-9h766v-143h-967v150l359 440
l96 125h-393v143z" />
    <glyph glyph-name="uni01BC" unicode="&#x1bc;" horiz-adv-x="1196" 
d="M459 1298v-395h86q158 0 281 -55t190 -157t67 -238q0 -224 -155 -348.5t-434 -124.5q-259 0 -422 79v168q100 -48 213 -72t211 -24q199 0 297 84t98 240q0 139 -96 218t-267 79h-254v546h-161v164h909v-164h-563z" />
    <glyph glyph-name="uni01BD" unicode="&#x1bd;" horiz-adv-x="1004" 
d="M406 946v-239h47q219 0 338.5 -95t119.5 -278q0 -167 -124 -260.5t-345 -93.5q-242 0 -374 71v162q183 -86 372 -86q141 0 217 54.5t76 162.5q0 109 -77 162t-236 53h-195v387h-127v152h746v-152h-438z" />
    <glyph glyph-name="uni01BE" unicode="&#x1be;" horiz-adv-x="948" 
d="M279 774v184h-187v86l189 72l71 234h107v-252h317v-140h-317v-188q0 -69 21 -101.5t75 -50.5q169 -63 235 -136t66 -179q0 -154 -115 -238.5t-323 -84.5q-216 0 -344 69v164q176 -88 348 -88q136 0 198 44t62 118q0 60 -49.5 102t-183.5 96q-97 41 -133.5 107t-36.5 182z
" />
    <glyph glyph-name="uni01BF" unicode="&#x1bf;" horiz-adv-x="1202" 
d="M354 -492h-180v1590h148l24 -150h8q112 170 324 170q196 0 311 -121t115 -335q0 -187 -93.5 -337.5t-266 -241t-390.5 -103.5v-472zM354 127q268 35 416 175t148 355q0 142 -74 226t-203 84q-149 0 -218 -90t-69 -291v-459z" />
    <glyph glyph-name="uni01C0" unicode="&#x1c0;" horiz-adv-x="1057" 
d="M608 -492h-159v2048h159v-2048z" />
    <glyph glyph-name="uni01C1" unicode="&#x1c1;" horiz-adv-x="1057" 
d="M345 -492h-159v2048h159v-2048zM872 -492h-159v2048h159v-2048z" />
    <glyph glyph-name="uni01C2" unicode="&#x1c2;" horiz-adv-x="1057" 
d="M133 823h316v733h159v-733h316v-147h-316v-254h316v-148h-316v-766h-159v766h-316v148h316v254h-316v147z" />
    <glyph glyph-name="uni01C3" unicode="&#x1c3;" horiz-adv-x="551" 
d="M334 412h-117l-51 1050h219zM147 111q0 66 32.5 101.5t94.5 35.5t94.5 -36.5t32.5 -100.5t-33.5 -102t-93.5 -38q-61 0 -94 37t-33 103z" />
    <glyph glyph-name="uni01C4" unicode="&#x1c4;" horiz-adv-x="2646" 
d="M1990 1399l-245 233q-16 15 -16 33q0 21 23 47q21 24 44 24q16 0 31 -12l221 -173l221 173q15 12 31 12q23 0 44 -24q23 -26 23 -47q0 -18 -16 -33l-245 -233q-22 -20 -58 -20t-58 20zM890 1115.5q119 -71.5 184.5 -206t65.5 -316.5t-65.5 -316t-184.5 -205.5t-276 -71.5
h-471q-34 0 -48.5 15.5t-14.5 52.5t14.5 52.5t48.5 15.5h112v915h-112q-34 0 -48.5 15.5t-14.5 52.5t14.5 52.5t48.5 15.5h471q157 0 276 -71.5zM405 136h186q119 0 207 52.5t136 155t48 249.5t-48 249.5t-136 155.5t-207 53h-186v-915zM2510.5 1171.5
q14.5 -15.5 14.5 -52.5q0 -25 -10 -39l-663 -944h532v269q0 35 17 50t58 15t58 -15t17 -50v-337q0 -37 -14.5 -52.5t-48.5 -15.5h-766q-34 0 -48.5 15.5t-14.5 52.5q0 22 14 43l659 940h-502v-249q0 -35 -17 -50t-58 -15t-58 15t-17 50v317q0 37 14.5 52.5t48.5 15.5h736
q34 0 48.5 -15.5z" />
    <glyph glyph-name="uni01C5" unicode="&#x1c5;" horiz-adv-x="2458" 
d="M1934 1061l-245 233q-16 15 -16 33q0 21 23 47q21 24 44 24q16 0 31 -12l221 -173l221 173q15 12 31 12q23 0 44 -24q23 -26 23 -47q0 -18 -16 -33l-245 -233q-22 -20 -58 -20t-58 20zM890 1115.5q119 -71.5 184.5 -206t65.5 -316.5t-65.5 -316t-184.5 -205.5t-276 -71.5
h-471q-34 0 -48.5 15.5t-14.5 52.5t14.5 52.5t48.5 15.5h112v915h-112q-34 0 -48.5 15.5t-14.5 52.5t14.5 52.5t48.5 15.5h471q157 0 276 -71.5zM405 136h186q119 0 207 52.5t136 155t48 249.5t-48 249.5t-136 155.5t-207 53h-186v-915zM2520.5 908.5q14.5 -15.5 14.5 -52.5
q0 -29 -15 -46l-610 -674h485v172q0 35 17 50t58 15t58 -15t17 -50v-240q0 -37 -14.5 -52.5t-48.5 -15.5h-746q-34 0 -48.5 15.5t-14.5 52.5q0 30 14 45l611 675h-455v-149q0 -35 -17 -50t-58 -15t-58 15t-17 50v217q0 37 14.5 52.5t48.5 15.5h716q34 0 48.5 -15.5z" />
    <glyph glyph-name="uni01C6" unicode="&#x1c6;" horiz-adv-x="2222" 
d="M1703 1061l-245 233q-16 15 -16 33q0 21 23 47q21 24 44 24q16 0 31 -12l221 -173l221 173q15 12 31 12q23 0 44 -24q23 -26 23 -47q0 -18 -16 -33l-245 -233q-22 -20 -58 -20t-58 20zM1011.5 1296.5q14.5 -15.5 14.5 -52.5v-1108h82q34 0 48.5 -15.5t14.5 -52.5
t-14.5 -52.5t-48.5 -15.5h-159q-34 0 -48.5 15.5t-14.5 52.5v80q-63 -82 -146 -126t-181 -44q-124 0 -222 58.5t-154 168t-56 257.5t56 257.5t154 168t222 58.5q188 0 317 -165v395h-162q-34 0 -48.5 15.5t-14.5 52.5t14.5 52.5t48.5 15.5h249q34 0 48.5 -15.5zM416 755.5
q-64 -42.5 -97.5 -118.5t-33.5 -175t33.5 -175t97.5 -118.5t153 -42.5t158.5 40t109 116t39.5 180t-39.5 180t-109 116t-158.5 40t-153 -42.5zM2285.5 908.5q14.5 -15.5 14.5 -52.5q0 -29 -15 -46l-610 -674h485v172q0 35 17 50t58 15t58 -15t17 -50v-240q0 -37 -14.5 -52.5
t-48.5 -15.5h-746q-34 0 -48.5 15.5t-14.5 52.5q0 30 14 45l611 675h-455v-149q0 -35 -17 -50t-58 -15t-58 15t-17 50v217q0 37 14.5 52.5t48.5 15.5h716q34 0 48.5 -15.5z" />
    <glyph glyph-name="uni01C7" unicode="&#x1c7;" horiz-adv-x="1632" 
d="M745.5 1171.5q14.5 -15.5 14.5 -52.5t-14.5 -52.5t-48.5 -15.5h-242v-915h495v329q0 35 17 50t58 15t58 -15t17 -50v-397q0 -37 -14.5 -52.5t-48.5 -15.5h-894q-34 0 -48.5 15.5t-14.5 52.5t14.5 52.5t48.5 15.5h162v915h-162q-34 0 -48.5 15.5t-14.5 52.5t14.5 52.5
t48.5 15.5h554q34 0 48.5 -15.5zM2216.5 1171.5q14.5 -15.5 14.5 -52.5t-14.5 -52.5t-48.5 -15.5h-201v-718q0 -175 -102 -265t-298 -90q-114 0 -206.5 40.5t-156.5 110.5q-16 19 -16 51v285q0 35 17 50t58 15t58 -15t17 -50v-264q84 -75 230 -75q131 0 190 58t59 179v688
h-341q-34 0 -48.5 15.5t-14.5 52.5t14.5 52.5t48.5 15.5h692q34 0 48.5 -15.5z" />
    <glyph glyph-name="uni01C8" unicode="&#x1c8;" horiz-adv-x="1602" 
d="M745.5 1171.5q14.5 -15.5 14.5 -52.5t-14.5 -52.5t-48.5 -15.5h-242v-915h495v329q0 35 17 50t58 15t58 -15t17 -50v-397q0 -37 -14.5 -52.5t-48.5 -15.5h-894q-34 0 -48.5 15.5t-14.5 52.5t14.5 52.5t48.5 15.5h162v915h-162q-34 0 -48.5 15.5t-14.5 52.5t14.5 52.5
t48.5 15.5h554q34 0 48.5 -15.5zM1956 1348.5q20 -14.5 20 -50.5v-130q0 -36 -20 -50.5t-75 -14.5t-75 14.5t-20 50.5v130q0 36 20 50.5t75 14.5t75 -14.5zM1961.5 908.5q14.5 -15.5 14.5 -52.5v-913q0 -176 -78.5 -264.5t-248.5 -88.5q-83 0 -179 31.5t-174 80.5
q-33 20 -33 52q0 19 13 45q24 46 58 46q17 0 31 -10q69 -45 143 -72t141 -27q98 0 137.5 53t39.5 167v832h-423q-34 0 -48.5 15.5t-14.5 52.5t14.5 52.5t48.5 15.5h510q34 0 48.5 -15.5z" />
    </font>
</defs>
</svg>
