<?xml version="1.0" standalone="no"?>
<!DOCTYPE svg PUBLIC "-//W3C//DTD SVG 1.1//EN" "http://www.w3.org/Graphics/SVG/1.1/DTD/svg11.dtd" >
<svg xmlns="http://www.w3.org/2000/svg" xmlns:xlink="http://www.w3.org/1999/xlink" version="1.1">
<metadata>
Created by FontForge 20190801 at Mon Feb  8 12:13:45 2021
 By root
Copyright (c) 2010, Kimberly Geswein (kimberlygeswein.com)
</metadata>
<defs>
<font id="CoveredByYourGrace" horiz-adv-x="410" >
  <font-face 
    font-family="Covered By Your Grace"
    font-weight="400"
    font-stretch="normal"
    units-per-em="1024"
    panose-1="0 0 0 0 0 0 0 0 0 0"
    ascent="819"
    descent="-205"
    x-height="435"
    cap-height="584"
    bbox="-218 -383.5 1487.2 1071"
    underline-thickness="0"
    underline-position="0"
    unicode-range="U+0001-206F"
  />
<missing-glyph horiz-adv-x="374" 
d="M34 0v682h272v-682h-272zM68 34h204v614h-204v-614z" />
    <glyph glyph-name=".notdef" horiz-adv-x="374" 
d="M34 0v682h272v-682h-272zM68 34h204v614h-204v-614z" />
    <glyph glyph-name="uni0000" 
 />
    <glyph glyph-name="uni0000" 
 />
    <glyph glyph-name="uni000D" unicode="&#xd;" 
 />
    <glyph glyph-name="uni0001" 
 />
    <glyph glyph-name="uni0002" 
 />
    <glyph glyph-name="uni0003" 
 />
    <glyph glyph-name="uni0004" 
 />
    <glyph glyph-name="uni0005" 
 />
    <glyph glyph-name="uni0006" 
 />
    <glyph glyph-name="uni0007" 
 />
    <glyph glyph-name="uni0008" 
 />
    <glyph glyph-name="uni0009" unicode="&#x9;" 
 />
    <glyph glyph-name="uni000A" unicode="&#xa;" 
 />
    <glyph glyph-name="uni000B" 
 />
    <glyph glyph-name="uni000C" 
 />
    <glyph glyph-name="uni000E" 
 />
    <glyph glyph-name="uni000F" 
 />
    <glyph glyph-name="uni0010" 
 />
    <glyph glyph-name="uni0011" 
 />
    <glyph glyph-name="uni0012" 
 />
    <glyph glyph-name="uni0013" 
 />
    <glyph glyph-name="uni0014" 
 />
    <glyph glyph-name="uni0015" 
 />
    <glyph glyph-name="uni0016" 
 />
    <glyph glyph-name="uni0017" 
 />
    <glyph glyph-name="uni0018" 
 />
    <glyph glyph-name="uni0019" 
 />
    <glyph glyph-name="uni001A" 
 />
    <glyph glyph-name="uni001B" 
 />
    <glyph glyph-name="uni001C" 
 />
    <glyph glyph-name="uni001D" 
 />
    <glyph glyph-name="uni001E" 
 />
    <glyph glyph-name="uni001F" 
 />
    <glyph glyph-name="space" unicode=" " 
 />
    <glyph glyph-name="space" unicode="&#xa0;" 
 />
    <glyph glyph-name="exclam" unicode="!" horiz-adv-x="121" 
d="M18 34q0 10 7.5 19t14.5 15h16q17 0 28.5 -7.5t11.5 -25.5q0 -6 -4 -12.5t-10.5 -12t-14.5 -8.5t-15 -2q-10 2 -22 12t-12 22zM18 367q0 11 0.5 19.5t4.5 19.5v342q0 3 4.5 6.5t10 6.5t11 5t7.5 2q17 0 25.5 -12t13.5 -25q0 -8 -0.5 -26.5t-0.5 -39t0.5 -39.5t0.5 -26
q0 -5 0.5 -21.5t1.5 -36t1.5 -36.5t0.5 -21q0 -5 -0.5 -21t-1 -34.5t-1.5 -36.5t-1 -26q-2 -18 -10 -32t-29 -14q-22 0 -30 12t-8 34z" />
    <glyph glyph-name="quotedbl" unicode="&#x22;" horiz-adv-x="253" 
d="M147 676q-4 16 6.5 23t23.5 7q17 0 26 -11.5t12 -26.5q1 -12 2.5 -40t3.5 -59.5t4 -60t2 -39.5v-23q0 -10 -0.5 -15.5t-2.5 -9.5t-7 -7.5t-14 -7.5h-3q-18 0 -26 15t-11 35.5t-2.5 40.5t-0.5 30q-1 9 -2.5 30t-3.5 44.5t-4 44.5t-3 30zM43 506q1 17 3 43t4 51t3.5 43
t1.5 19l8 25q0 1 6 1.5t9 0.5q29 0 35 -16t6 -42q0 -50 -4 -101t-10 -100q-1 -18 -19 -18q-13 0 -21.5 9.5t-13 22t-6.5 26.5t-2 23v13z" />
    <glyph glyph-name="numbersign" unicode="#" horiz-adv-x="441" 
d="M148 198q-1 4 -2 13.5t-2.5 19.5t-3 19t-1.5 12v10v12t-2 10.5t-6 5.5q-12 -6 -24.5 -10t-26.5 -4q-8 0 -20.5 3t-17.5 11q-2 23 10.5 32.5t28 14.5t29 11t13.5 21q0 16 -1 29.5t-3 30.5h-1q-1 0 -2 1q-9 0 -16.5 -4t-15 -9.5t-15 -9.5t-17.5 -4q-14 0 -27 9t-13 26
q0 5 8 12.5t10 8.5l76 43l9 8q1 12 2 23q1 9 1 19t1 16v73q3 11 11.5 13.5t20.5 2.5q10 0 15.5 -6t10.5 -14q0 -4 1 -14.5t1.5 -22t1 -22t0.5 -14.5q-1 -5 -1 -9t1 -7.5t4 -4.5l13.5 4.5t12.5 4.5q4 0 4 4q5 27 5.5 61t-0.5 57q4 11 11.5 14t18.5 3q18 0 26.5 -12.5
t10.5 -30t1 -35.5t-1 -30q13 0 25.5 3.5t25.5 3.5q6 0 9 -6t3 -11q0 -8 -7.5 -15.5t-17 -14t-19.5 -11.5t-15 -6q-5 -4 -4.5 -11.5t0.5 -12.5v-7t0.5 -13t1 -12.5t2.5 -5.5h4q4 2 14.5 7t22 11t21.5 11.5t15 8.5q10 5 21.5 10.5t22.5 5.5q8 0 9.5 -2.5t1.5 -9.5
q0 -1 -0.5 -1.5t-0.5 -2.5v-4q-2 -3 -6 -8.5t-8.5 -11.5t-9 -11.5t-5.5 -7.5l-5 -5t-3 -4l-90 -59q-4 -3 -4 -4.5v-7.5q0 -36 6.5 -71t6.5 -71v-31q-2 -11 -10.5 -12.5t-16.5 -1.5q-12 0 -19 2.5t-12 15.5q-6 33 -11.5 65.5t-10.5 65.5h-4q-8 0 -17 -5.5t-9 -13.5
q0 -25 4.5 -51t4.5 -52q0 -15 -7 -27t-24 -12q-11 0 -13 2.5t-11 5.5zM181 462v-12t1 -19t2.5 -17t4.5 -5l31 18v67q0 5 -7 5l-2 -1q-3 -2 -15 -8t-15 -8v-20z" />
    <glyph glyph-name="dollar" unicode="$" horiz-adv-x="342" 
d="M179 22q-1 4 -3 14t-5 21t-5 21t-3 14v5l-3.5 24.5t-5.5 37t-5.5 37t-3.5 23.5q-3 3 -10.5 4t-15.5 2t-14 2.5t-6 5.5q-12 7 -14 14.5t4.5 13.5t20 9t31.5 1q0 11 0.5 29t0 37.5t-2.5 38t-6 30.5q-11 -2 -31.5 1.5t-40.5 10.5t-35.5 18t-15.5 26q0 30 15 59.5t32 52.5
q4 5 15 18.5t23 28t22.5 28t15.5 18.5q0 3 1 11t1.5 16.5t1 16.5t0.5 11v13q1 8 3.5 27.5t5 42t5 42t3.5 27.5q3 13 11 27.5t22 14.5q13 0 21.5 -7.5t13.5 -17.5v-24q0 -35 -6 -70t-6 -70q16 0 29.5 6t30.5 6q16 0 26.5 -9t10.5 -24q0 -12 -3 -16.5t-8.5 -6t-12.5 -1.5
t-15 -2q-5 -1 -15.5 -5t-21 -10t-18.5 -13t-8 -15v-164l4 -4q12 0 30 -2t35.5 -7.5t31 -15.5t17.5 -26q1 -2 1 -12.5v-13.5q0 -22 -11 -42.5t-27 -39.5t-34.5 -35.5t-33.5 -29.5v-30l30 -185q0 -5 -3 -10t-8 -9.5t-10 -7.5t-8 -3q-12 0 -22 4t-18 18zM209 354q1 -3 2 -9.5
t2 -6.5h5q1 0 12.5 11t17.5 18q4 6 10 13.5t6 16.5v4q-3 0 -9.5 0.5t-14 1t-14 1.5t-8.5 2h-3q-4 0 -6 -5v-23v-24zM87 485q0 -6 4 -8.5t9 -3t11 -0.5h10q2 0 7 -0.5t5 4.5v82q-6 0 -13.5 -9t-15 -21t-12.5 -24.5t-5 -19.5z" />
    <glyph glyph-name="percent" unicode="%" horiz-adv-x="847" 
d="M132 462q0 -60 18 -90t56 -30q76 0 77 120q-1 120 -77 120q-39 0 -56.5 -30t-17.5 -90zM357 462q0 -43 -8.5 -77.5t-27.5 -58.5t-47 -36.5t-68 -12.5q-36 0 -63.5 12.5t-46.5 36.5t-28.5 59t-9.5 77q0 44 9 78.5t27 58t46 36t66 12.5q37 0 65.5 -12.5t47.5 -36t28.5 -58
t9.5 -78.5zM565 176q0 -60 17.5 -90t56.5 -30q77 0 77 120t-77 120q-39 0 -56.5 -30t-17.5 -90zM789 176q0 -44 -8.5 -78t-27 -58t-47 -37t-67.5 -13q-36 0 -64 13t-46.5 37t-28 58t-9.5 78t8.5 78t26.5 57.5t46 36t67 12.5q38 0 65.5 -12.5t46.5 -36t28.5 -57.5t9.5 -78z
M662 637l-394 -637h-80l395 637h79z" />
    <glyph glyph-name="ampersand" unicode="&#x26;" horiz-adv-x="348" 
d="M309 220q3 -5 0.5 -13.5t-7 -17.5t-10 -16t-10.5 -8q-26 -8 -56 -2q-57 10 -98.5 34.5t-69.5 70.5q-3 3 -8.5 14l-6.5 13q-11 29 0 55t41 36q4 2 12 3.5t18 3t19 3t15 3.5q-17 21 -40.5 36.5t-50.5 41.5q-2 2 -3.5 5t-2.5 4q-16 27 11 35q9 8 28.5 16.5t43.5 15t50.5 9
t49.5 -1t40.5 -15t23.5 -33.5q9 -11 1 -19.5t-18 -12.5q-13 -5 -25.5 -4.5t-26 1.5t-27.5 1t-30 -5l-6 -3q15 -12 33.5 -23.5t36 -23t32 -22.5t22.5 -22q6 -9 3.5 -19t-13.5 -13q-18 -6 -33 -8t-30 -3t-30 -2.5t-33 -7.5q-17 -8 -12 -22t21 -29t37 -27.5t37 -16.5q9 -3 31 0
q1 0 9.5 1t9.5 2q10 0 13.5 -3.5t8.5 -10.5zM159 -17q-4 20 -7 48t-8 48q2 13 10.5 22t21.5 12q25 4 38 -9t16 -34q2 -9 5.5 -28t4 -38t-4 -33.5t-17.5 -14.5h-26t-17 2t-10.5 8t-5.5 17zM119 667q-1 9 -1 14v9.5t0.5 10t-0.5 15.5q1 13 10 22.5t22 11.5q26 4 37.5 -8.5
t16.5 -32.5q1 -10 3 -29t1.5 -38.5t-6 -34t-18.5 -14.5q-17 0 -28 8t-18.5 19t-11.5 23.5t-7 23.5z" />
    <glyph glyph-name="quotesingle" unicode="'" horiz-adv-x="129" 
d="M23 505q0 7 1.5 25t3 38t2.5 38t1 26q7 25 32 25q22 0 31 -12.5t9 -32.5q0 -6 -0.5 -23.5t-2.5 -40t-4.5 -47t-6.5 -44.5t-10 -33t-13 -12q-14 2 -22 10.5t-13 19.5t-6.5 23.5t-1.5 23.5v16z" />
    <glyph glyph-name="parenleft" unicode="(" horiz-adv-x="257" 
d="M17 199q-2 -12 0 4.5t6.5 50t12 79t17 92t20.5 88.5t24 70q13 35 33.5 66.5t43.5 60.5q5 7 11 12t16 5q14 0 25 -10.5t11 -26.5q0 -13 -6.5 -27t-15.5 -27.5t-18.5 -26t-14.5 -22.5q-17 -36 -34.5 -87.5t-31.5 -105.5t-21.5 -103.5t-2.5 -80.5q0 -39 9 -75.5t43 -62.5
q4 -3 13.5 -10t20 -14t20 -13.5t13.5 -8.5q0 -2 0.5 -5t0.5 -4q0 -11 -9.5 -14t-18.5 -3q-37 0 -67.5 19t-52 48t-34 64t-13.5 68z" />
    <glyph glyph-name="parenright" unicode=")" horiz-adv-x="270" 
d="M17 26q0 8 10.5 19t15.5 18q20 29 38 52.5t34 53.5q6 13 11 29.5t13 28.5q15 53 23 102t8 103q0 60 -9 121t-26 119q-3 12 -11 23t-16 21.5t-14 20.5t-6 22q0 11 10 21t22 10q19 0 35 -12.5t29 -30.5t22 -37.5t13 -33.5q8 -25 13.5 -54t9.5 -59.5t5.5 -60.5t2.5 -57
q0 -59 -7.5 -116t-27.5 -114q0 -2 -4.5 -11.5t-9.5 -21.5t-10.5 -24t-8.5 -19q-6 -11 -20 -34.5t-31.5 -47t-36.5 -41t-34 -17.5q-5 0 -12.5 1.5t-14.5 4.5t-11.5 8t-4.5 13z" />
    <glyph glyph-name="asterisk" unicode="*" horiz-adv-x="437" 
d="M59 186q7 5 13.5 10t13.5 10q-20 -5 -38 -5q-34 0 -34 35q0 9 3.5 16t0.5 16q4 1 14 2.5t12 1.5h34q10 2 24.5 5.5t28.5 6.5q-17 17 -38.5 31t-36.5 34q-19 26 7 48q8 5 15.5 7.5t13.5 10.5q3 -2 10.5 -9.5l9.5 -9.5q0 -1 3 -4.5t6.5 -8t6.5 -8.5t4 -4q7 -8 19 -18.5
t23 -19.5l13 142q2 17 8 20t20 3q2 0 7.5 -0.5t7.5 -0.5q8 -6 14 -17v-36q0 -29 -1.5 -57t-2.5 -57l118 77q14 8 20.5 5t14.5 -14q2 -2 4.5 -6.5t3.5 -5.5q2 -12 -5 -20q-3 -3 -14 -12t-14 -11q-5 -4 -9.5 -7t-9.5 -6l38 6q8 -2 14.5 -3t11.5 -3.5t8 -8t3 -16.5v-3
q-9 -9 -19 -12.5t-20.5 -6t-20.5 -5.5t-20 -10l-70 -17l97 -87q6 -14 10 -25t-12 -24q-1 0 -2 -1q-12 1 -21.5 6.5t-17.5 12.5t-17 13.5t-20 10.5l-51 39q3 -18 5.5 -36t2.5 -35q0 -19 -13 -30.5t-31 -11.5h-3l-22 21q1 23 1 47.5t-4 48.5q-14 -14 -28.5 -28t-29.5 -27
q-15 -11 -32 -8.5t-28 17.5l-3 3l4 29v0z" />
    <glyph glyph-name="plus" unicode="+" horiz-adv-x="437" 
d="M179 104q2 29 1 59t-9 59h-4q-29 0 -58.5 -10.5t-60.5 -10.5q-34 0 -34 35q0 9 3.5 16t0.5 16q4 1 14 2.5t12 1.5h34q10 2 26 5.5t31 7t25.5 6.5l10.5 3l16 181q2 17 8 20t20 3q2 0 7.5 -0.5t7.5 -0.5q8 -6 14 -17v-36q0 -34 -2 -67t-2 -67h4l143 26q8 -2 14.5 -3
t11.5 -3.5t8 -8t3 -16.5v-3q-9 -9 -19 -12.5t-20.5 -6t-20.5 -5.5t-20 -10l-100 -24q-5 -2 -5 -5.5v-7.5q0 -26 4.5 -52.5t4.5 -53.5q0 -19 -13 -30.5t-31 -11.5h-3zM145 298v-4h-8v4h8z" />
    <glyph glyph-name="comma" unicode="," horiz-adv-x="133" 
d="M18 -10q1 4 3.5 20.5t5.5 36t6 36t3 20.5q1 7 2 15.5t4 15.5t9 11.5t16 4.5q19 0 30.5 -8.5t11.5 -28.5v-8t-1 -6q-1 -6 -3.5 -20.5t-5.5 -30.5t-5 -30.5t-3 -19.5q-7 -9 -8.5 -23t-3.5 -26.5t-8 -22t-23 -9.5q-9 0 -14.5 5.5t-9 13.5t-5 17t-1.5 16v21z" />
    <glyph glyph-name="hyphen" unicode="-" horiz-adv-x="409" 
d="M54 253q0 17 12 24.5t26 10.5l251 25q17 0 32 -6t15 -26q0 -5 -6.5 -11t-14.5 -11t-17 -8.5t-13 -1.5l-247 -27q-13 0 -25.5 8.5t-12.5 22.5z" />
    <glyph glyph-name="period" unicode="." horiz-adv-x="129" 
d="M22 38q0 14 10.5 26t24.5 12q17 0 27.5 -9t20.5 -20v-3q0 -17 -11.5 -30.5t-30.5 -13.5q-13 0 -27 12t-14 26z" />
    <glyph glyph-name="slash" unicode="/" horiz-adv-x="266" 
d="M20 -29q5 48 13 90.5t17 90.5v8l143 739q3 17 11 23.5t25 6.5h2q19 -10 24.5 -16.5t5.5 -26.5q0 -12 -3 -25t-5 -25q-1 -3 -3.5 -14t-5.5 -24t-5.5 -24t-3.5 -14v-4l-113 -566q-9 -57 -19.5 -113.5t-18.5 -113.5q-3 -12 -12.5 -17.5t-20.5 -5.5t-21 7.5t-10 20.5v3z" />
    <glyph glyph-name="zero" unicode="0" horiz-adv-x="336" 
d="M26 179q0 60 7 120.5t14 118.5q0 8 4 12t8 9q0 1 2 4t2 4q15 36 49 60.5t73 24.5q22 0 37 -5.5t26 -16t20 -25t20 -32.5q8 -18 13 -41t7.5 -47t3.5 -47.5t1 -43.5q-2 -33 -7.5 -69.5t-17.5 -71t-32.5 -63.5t-52.5 -48q-13 -8 -28.5 -15t-30.5 -7q-35 0 -57.5 17.5
t-36 44.5t-19 58.5t-5.5 58.5zM101 139q1 -7 3.5 -18t7 -22t11.5 -19t18 -8q8 0 15.5 4t12.5 8q26 20 41.5 48t23.5 59.5t10 64t2 62.5v13t-0.5 18.5t-0.5 18.5v12q-1 11 -5 29.5t-11 36t-18.5 30.5t-27.5 13q-9 0 -21 -5.5t-22.5 -13.5t-18 -18.5t-7.5 -20.5q0 -8 4.5 -13
t4.5 -15v-11q-1 -3 -3.5 -17.5t-5.5 -30.5t-5.5 -30.5t-3.5 -17.5q-4 -25 -4.5 -51t-0.5 -50v-11t0.5 -17t0.5 -17v-11z" />
    <glyph glyph-name="one" unicode="1" horiz-adv-x="141" 
d="M27 38q-2 23 -2.5 43t-1 39.5t-0.5 39v42.5q0 78 8.5 154.5t12.5 154.5q0 9 -0.5 23.5t2.5 28t11 22t25 7.5q16 -2 25 -13t14 -26q-10 -101 -18.5 -201.5t-8.5 -203.5q0 -24 2.5 -48t2.5 -48q0 -8 -1 -17t-4 -17t-9.5 -13.5t-16.5 -5.5q-18 0 -27 12t-14 27z" />
    <glyph glyph-name="two" unicode="2" horiz-adv-x="477" 
d="M82 38q0 8 1.5 12t7.5 13q27 42 54.5 84.5t50 87t36.5 91.5t14 98q-30 0 -53 -18t-44 -40t-41 -40t-43 -18q-7 0 -15 1.5t-15 5t-12 10t-5 15.5v2q6 13 17 25.5t24 24t26 21.5t23 18q14 12 32 25t37.5 24.5t40.5 19t42 7.5q36 0 50 -22.5t14 -57.5q0 -66 -22.5 -129.5
t-54.5 -120.5v-4l-26 -46h9q42 24 90.5 40.5t95.5 27.5h4q18 0 30 -6t12 -28q0 -15 -8 -26q-8 -2 -20.5 -6t-21.5 -2l-98 -35l-160 -84q-16 -8 -32 -8q-14 0 -27 11.5t-13 26.5z" />
    <glyph glyph-name="three" unicode="3" horiz-adv-x="399" 
d="M162 38q0 9 1.5 14.5t11.5 10.5q1 1 5 1.5t8.5 1.5t8 1.5t4.5 0.5q6 1 13.5 5.5t15 10t13.5 10.5t9 7q29 25 39.5 55t10.5 67v14t-0.5 18.5t-3.5 17t-9 10.5q-2 1 -9.5 1h-9.5q-23 0 -43.5 -9.5t-40 -21t-40 -21t-44.5 -9.5q-16 0 -25 10.5t-9 25.5q0 16 19 43t43 57
t47 59.5t32 50.5h-8q-23 0 -42 -9.5t-36 -20.5t-33.5 -20.5t-34.5 -9.5q-13 0 -27 6.5t-14 23.5q0 14 15 28.5t39 27t53.5 23.5t58 19t52.5 12.5t37 4.5q37 0 37 -39v-13q-17 -45 -41 -80.5t-48 -75.5h10q14 0 25.5 2t25.5 2q40 0 63 -25.5t33 -62.5q0 -5 0.5 -20.5
t0.5 -19.5q0 -67 -28 -114.5t-83 -85.5q-28 -22 -61 -22q-16 0 -28.5 11.5t-12.5 26.5z" />
    <glyph glyph-name="four" unicode="4" 
d="M215 245h-4q-21 0 -41.5 -4t-41 -9t-41 -9t-41.5 -4h-4q-11 8 -21.5 20t-8.5 27q1 6 10 13.5t12 12.5q1 2 6 10.5t10.5 18.5t10.5 18.5t7 10.5q0 4 4 4l93 161q0 1 1.5 2t2.5 2q3 4 10 13t15 19t15 19t10 13q5 7 11 8t14 1q7 0 15 -2t15 -6t12 -11t5 -16v-212
q18 0 32.5 9.5t33.5 9.5q35 0 35 -37q0 -8 -2.5 -16t-10.5 -11l-88 -34v-3q0 -56 10.5 -111t10.5 -109q0 -16 -8 -29.5t-25 -13.5q-6 0 -11.5 0.5t-10.5 3.5q-5 4 -13 12t-8 10v8zM130 300q4 0 13.5 2t20.5 4t20.5 3.5t14.5 2.5q1 1 5.5 2.5t6.5 2.5q1 0 2.5 2t1.5 3v125
l-4 6l-81 -145v-8z" />
    <glyph glyph-name="five" unicode="5" horiz-adv-x="427" 
d="M115 35q0 10 4.5 18t11 14.5t14 12.5t13.5 12q4 5 13 16t18.5 22.5t17.5 21.5t10 13q8 11 19 27t15 31q-1 0 -4 0.5t-4 0.5q-18 0 -38.5 -12t-34.5 -22h-4q-13 -9 -24 -18q-10 -8 -21 -16t-18 -13q-11 -8 -18 -10t-25 -2q-12 0 -19 6t-11 15t-5.5 19.5t-1.5 19.5
q0 19 3 38t1 37l25 156q7 13 8.5 25t4 21.5t10 15t26.5 5.5q15 0 22.5 -6t17.5 -18h6q19 0 37.5 5t36.5 3l135 25q1 1 6.5 1h7.5q17 0 27.5 -9t10.5 -28q0 -26 -26 -31l-122 -25h-9q-32 -5 -60.5 -9t-57.5 -13q-2 -1 -5 -2t-3 -2l-22 -127v-16q36 23 73 38.5t81 20.5
q12 0 25.5 -2.5t25.5 -8.5t20 -15.5t8 -24.5q0 -20 -6.5 -39t-17 -37.5t-23.5 -35.5t-25 -32q-5 -5 -16 -17.5t-24 -26.5t-24.5 -27t-16.5 -18q-5 -3 -15.5 -7.5t-17.5 -4.5q-14 0 -24.5 11t-10.5 24z" />
    <glyph glyph-name="six" unicode="6" horiz-adv-x="326" 
d="M69 -58q0 21 6.5 40.5t6.5 39.5q0 7 -4 12.5t-10 11t-11.5 11t-8.5 11.5q-14 23 -19.5 48.5t-5.5 51.5v6q19 97 32.5 158t22 96.5t13.5 51.5t7 23q4 10 9 21.5t11 20.5t15 15t23 6q13 0 22 -11t9 -25q5 10 1 -2t-12.5 -40t-20.5 -67.5t-23 -83t-20 -88t-11 -82.5
q0 -5 0.5 -20t0.5 -20q2 -6 4.5 -14t8.5 -12q2 4 7.5 13.5t11.5 20.5t11.5 20.5t8.5 14.5q7 12 21 29t30.5 32.5t34.5 27t33 11.5q12 0 20 -5.5t12.5 -14.5t6.5 -20t2 -21q0 -33 -11.5 -65t-32 -59t-48 -47t-60.5 -29q-3 -11 -10.5 -26.5t-7.5 -26.5q0 -9 2.5 -17.5
t2.5 -17.5q0 -17 -11 -28t-28 -11q-13 0 -21 6t-12.5 15t-6 19.5t-1.5 19.5zM211 132q-15 -19 -16.5 -28t3.5 -10.5t14 2.5t16 10q17 15 20.5 31t-1 24t-14.5 3t-22 -32z" />
    <glyph glyph-name="seven" unicode="7" horiz-adv-x="362" 
d="M199 46q0 37 2.5 74t1.5 75l42 294v12q0 2 0.5 7.5t-4.5 6.5q-40 -13 -89 -27.5t-93 -14.5h-21q-11 6 -19.5 15t-10.5 23q-2 15 9 23t26 11.5t30 4.5t23 3q27 5 50.5 10.5t46 12t45.5 14.5t49 18h6q17 0 31 -11t14 -29v-11l-51 -278q-1 -4 -2 -18t-2.5 -31t-2.5 -33
t-1 -24t-0.5 -29t-0.5 -44.5t0.5 -44.5t0.5 -29q-8 -17 -15.5 -21.5t-25.5 -4.5q-20 0 -29.5 14.5t-9.5 31.5z" />
    <glyph glyph-name="eight" unicode="8" horiz-adv-x="330" 
d="M96 105q0 42 10.5 76t24.5 72v13q-15 12 -30.5 25.5t-30.5 29.5t-27.5 32.5t-20.5 34.5q-2 2 -3 11t-2 11v2q0 28 16 55.5t41 49.5t53.5 35.5t54.5 13.5q26 -4 47 -16.5t33 -31t14 -41t-10 -46.5q-2 -7 -8.5 -25t-14 -38.5t-14.5 -38.5t-10 -25q-3 -9 -3.5 -8t-0.5 -7v-6
q15 -19 31 -37.5t29 -38t21.5 -41t8.5 -46.5q0 -23 -10.5 -44.5t-27.5 -38t-39 -27t-44 -10.5q-23 0 -39.5 9t-27.5 23.5t-16 33.5t-5 39zM157 109q0 -17 2.5 -31.5t22.5 -14.5q10 0 21 6.5t19.5 16.5t13 22t1.5 23q-2 7 -8.5 19t-14 24.5t-15.5 23t-13 13.5
q-7 -5 -12.5 -18.5t-9 -29.5t-5.5 -31t-2 -23zM88 420q0 -8 10 -22t23 -28.5t25 -25t17 -10.5h2q17 29 31.5 70.5t14.5 76.5v8q-2 1 -10 3t-11 2q-18 0 -30 -2t-21 -7t-17.5 -14t-20.5 -24q-4 -5 -8.5 -12t-4.5 -15z" />
    <glyph glyph-name="nine" unicode="9" horiz-adv-x="322" 
d="M177 43q0 1 1 8.5t2.5 16t3 15.5t1.5 9q0 1 0.5 9t1.5 18.5t1.5 21t0.5 16.5q5 79 11.5 158.5t6.5 159.5v19q-15 -12 -27 -28.5t-25 -32.5t-29 -27.5t-38 -13.5q-21 -2 -35.5 5.5t-24 20.5t-13.5 30t-4 35q-1 26 8 56t25.5 59t38.5 53t47.5 37.5t53.5 14t56 -18.5
q9 -8 12 -21t5 -21q11 -4 24.5 -14t13.5 -24q0 -74 -8 -147.5t-13 -148.5q-5 -71 -7.5 -141t-9.5 -141q-7 -14 -15 -20t-25 -6t-29.5 13.5t-10.5 29.5zM183 646q-21 0 -39.5 -21.5t-32 -50t-21.5 -57.5t-8 -44h6l26 25l81 114v5q0 5 -3.5 17t-8.5 12z" />
    <glyph glyph-name="colon" unicode=":" horiz-adv-x="135" 
d="M22 154q0 14 8.5 27.5t22.5 13.5q9 0 19.5 -4t19.5 -11t14 -16.5t4 -20.5q-2 -14 -15 -22t-24 -8q-18 0 -33.5 10.5t-15.5 30.5zM26 358q-2 20 16 29t34 9q4 0 9.5 -4.5t11 -11t9.5 -13t4 -9.5q4 -14 -9 -23.5t-25 -9.5q-14 0 -31 8t-19 25z" />
    <glyph glyph-name="semicolon" unicode=";" horiz-adv-x="135" 
d="M-19 -190q0 2 0.5 6t0.5 5l44 197v65q0 1 7 7.5t11 8.5q1 0 3.5 0.5t3.5 0.5q25 0 37 -15.5t12 -37.5q0 -25 -5 -53q-2 -9 -4.5 -23.5t-5 -28t-4.5 -23.5l-2 -10l-5 -8l-26 -114q-2 -10 -10.5 -16.5t-19.5 -4.5q-37 4 -37 44zM35 241q0 5 2.5 12.5t7 14.5t10.5 12t13 5
t15 -5t14.5 -12t11 -15t4.5 -14v-13q-2 -4 -10.5 -11.5t-11.5 -9.5h-4q-18 0 -35 8t-17 28z" />
    <glyph glyph-name="less" unicode="&#x3c;" horiz-adv-x="453" 
d="M190 119q-3 0 -13.5 -0.5t-23.5 -1.5t-23.5 -1.5t-13.5 -0.5h-30q-12 0 -25 1.5t-23.5 6t-17.5 13.5t-7 25q0 14 8.5 22.5t17.5 19.5q3 4 11.5 15t18 23t18 22.5t11.5 15.5q3 10 10.5 16.5t11.5 16.5l105 165q6 9 9.5 20.5t8 21.5t11.5 16.5t21 6.5q22 0 35.5 -16
t15.5 -36q1 -2 -0.5 -6.5t-3.5 -6.5l-126 -198q-5 -11 -15 -22.5l-20 -23t-17.5 -23.5t-7.5 -23q65 0 127 -3.5t127 -10.5q3 -6 9.5 -9.5t12.5 -7t10.5 -8.5t4.5 -15q0 -40 -41 -40q-14 0 -22.5 5t-20.5 7q-38 8 -76 11t-77 3z" />
    <glyph glyph-name="equal" unicode="=" horiz-adv-x="420" 
d="M63 170q21 22 48.5 35t58 23t62 19t60.5 23q22 7 33.5 9.5t28.5 2.5q13 0 29 -5t18 -20q-1 -4 -5.5 -15.5t-6.5 -13.5t-9.5 -7t-11.5 -7q-32 -5 -63.5 -17.5t-63 -26.5t-63 -25.5t-63.5 -14.5q-17 0 -34.5 10.5t-17.5 29.5zM17 290q-2 19 9 26.5t25 11.5q22 8 45.5 15
t57 14.5t80.5 18t116 25.5h5q4 0 9.5 -2t11 -5.5t9.5 -7.5t4 -8q0 -13 -7 -24.5t-18 -16.5q-72 -26 -142.5 -41.5t-142.5 -39.5q-7 0 -17.5 2t-20 6t-16.5 10.5t-8 15.5z" />
    <glyph glyph-name="greater" unicode="&#x3e;" horiz-adv-x="431" 
d="M106 109q0 7 4.5 14t11 13t13.5 11t13 8l160 224q4 6 4 11v3l-274 105q-2 0 -5.5 4.5t-7 10.5t-6.5 11.5t-3 7.5q-1 7 5.5 12.5t15 9t17.5 5t12 1.5q39 -23 80.5 -39t84 -30.5t85.5 -28.5t85 -33q7 -9 10 -14.5t3 -13.5q0 -20 -13.5 -34t-24.5 -30q-24 -34 -44.5 -65.5
t-41.5 -62t-45.5 -60.5t-55.5 -61q-2 -3 -11.5 -9t-13.5 -8q-8 -2 -18 0t-19 7t-15 13t-6 18z" />
    <glyph glyph-name="question" unicode="?" horiz-adv-x="366" 
d="M171 44q0 14 12 27t28 13q19 0 37 -10.5t18 -33.5q0 -21 -13 -28.5t-30 -7.5q-19 0 -35.5 9.5t-16.5 30.5zM104 283q6 27 19 50.5t28.5 45t32.5 42.5t31 44q2 3 7.5 12.5t11.5 21t11.5 22.5t7.5 16q5 11 4 14t-1 13q-40 0 -72.5 -15.5t-65.5 -37.5q-15 -10 -27 -22
t-31 -12q-15 0 -32 11.5t-17 29.5q0 6 1.5 7.5t7.5 5.5q29 23 57 42.5t57.5 34t62 23t70.5 8.5q32 0 55.5 -15t23.5 -50q0 -23 -8 -47t-20 -47t-26.5 -44t-26.5 -39q-8 -12 -21 -27t-25 -31.5t-21 -33t-9 -29.5q0 -8 7 -12t7 -12q0 -18 -11 -25.5t-27 -7.5q-26 0 -43.5 18.5
t-17.5 43.5v2z" />
    <glyph glyph-name="at" unicode="@" horiz-adv-x="762" 
d="M22 190q0 37 16 87.5t43 105t64 107.5t78 95t85 68t86 26q32 0 52.5 -19.5t33 -51t18.5 -70t8 -77t1.5 -72.5t-0.5 -55q0 -23 -4 -49t-15 -48.5t-29.5 -37t-46.5 -14.5q-38 0 -56 22.5t-30 54.5q-4 9 -4 13t-5 13l-2.5 -2.5t-1.5 -2.5q-9 -17 -19.5 -35.5t-24 -34.5
t-31 -26t-39.5 -10q-21 0 -36.5 15.5t-15.5 35.5q0 30 12 59t30.5 55t40 49.5t40.5 43.5q14 14 36.5 26t39.5 12q22 0 36 -13t28 -29q0 -3 0.5 -13t0.5 -12q0 -29 -5 -56.5t-5 -56.5q0 -7 2.5 -19t10.5 -17q11 9 16.5 22.5t7.5 29t2 30.5v27q2 33 4 70t-1.5 69t-17 56
t-41.5 31q-29 0 -61.5 -22t-62.5 -54t-54.5 -67t-36.5 -61q-3 -7 -11 -26t-17 -40.5t-16.5 -41t-10.5 -27.5q-3 -10 -5 -17t-3 -13.5t-1 -13v-15.5q0 -36 14.5 -60.5t38 -40.5t53.5 -23t61 -7h20q7 1 20.5 4t27 5.5t24 4.5t12.5 3l240 115q11 5 21 15.5t20.5 21t21.5 18.5
t23 8q13 0 29.5 -7t16.5 -23q0 -9 -5.5 -17.5t-14 -16.5t-17 -14.5t-14.5 -10.5t-16 -11t-20.5 -14t-18.5 -12t-9 -5q-8 -5 -28.5 -15t-44 -21.5t-45 -21.5t-30.5 -14q-12 -3 -22.5 -10t-23.5 -11q-45 -14 -86 -24t-89 -10q-41 0 -83.5 12t-78 36t-58 59.5t-22.5 82.5z
M233 310q-7 -16 -7 -23.5t4.5 -7.5t13 6t18.5 17q30 31 34.5 45t-4.5 13t-26.5 -14.5t-32.5 -35.5z" />
    <glyph glyph-name="A" unicode="A" horiz-adv-x="509" 
d="M25 63q0 60 8 119t14 118q0 3 1 13.5t2.5 22.5t3 22.5t1.5 13.5v4l42 312q-2 20 6.5 35.5t31.5 15.5q25 3 41.5 -6.5t27.5 -24.5t18 -33t15 -33q5 -14 12.5 -33t18 -48t25 -71t33.5 -102l4 -4q7 4 26.5 13t41 19t40.5 19t27 12q1 2 5.5 3.5t6.5 2.5h2q10 0 15 -7.5
t5 -14.5q0 -11 -5 -19t-11.5 -14.5t-14 -12.5t-11.5 -13l-99 -50q-4 -5 -4 -8q0 -8 8.5 -25l13.5 -27q3 -6 10 -22t15 -33t15.5 -32.5t10.5 -21.5v-3q0 -36 -36 -36q-11 0 -23 2.5t-18 14.5l-67 143h-9q-38 -29 -81 -57t-88 -48q-7 -36 -8.5 -73t0.5 -74q-8 -11 -16 -16.5
t-22 -5.5t-21 6.5t-10 16t-3 20.5v20zM114 257q30 12 58.5 32t54.5 37q3 2 7.5 4t8.5 5t10 7v8l-92 262l-4 4q-3 -6 -7.5 -34t-10 -72.5t-12 -102.5t-13.5 -124v-26z" />
    <glyph glyph-name="B" unicode="B" horiz-adv-x="515" 
d="M88 203q-2 42 -4.5 88t-7.5 89q-4 0 -13 0.5t-18 3.5t-16 7.5t-7 11.5q0 11 5.5 22.5t13.5 22t16.5 19l14.5 14.5v152q0 13 13 19.5t24 6.5q28 0 36 -13t9 -29.5t0.5 -31.5t10.5 -19q18 9 34 19t31.5 18t32 13t35.5 5q9 0 19.5 -2t19.5 -6.5t15 -12t6 -19.5
q0 -22 -6 -40.5t-15 -36t-19 -34.5t-18 -35q4 0 15 -1.5t23 -2.5t23 -2.5t15 -1.5q16 -3 37.5 -10t40 -19t31.5 -28.5t13 -37.5q0 -23 -8.5 -46t-20.5 -41q-4 -6 -12 -17l-16 -22t-14.5 -19.5t-7.5 -9.5l-191 -165q-10 -8 -17 -10.5t-17 -2.5q-7 0 -20.5 1.5t-27.5 4.5
t-24.5 8t-11.5 13l-22 169v8zM186 88h1q5 0 15 3t13 6q4 3 13.5 11t20.5 17t20.5 17t14.5 11q17 14 40.5 34t44.5 42.5t35.5 46.5t14.5 47q0 15 -10 23.5t-24.5 13.5t-30 6.5t-26.5 1.5q-21 0 -39 -7t-34 -18t-30.5 -24.5t-29.5 -26.5q-3 -3 -8.5 -6t-10.5 -7t-8.5 -8
t-2.5 -9zM262 541q-2 -1 -7 -4t-10 -7t-10 -7t-7 -4l-10.5 -8t-23 -18t-23 -18.5t-10.5 -9.5v-77h4l6 7t14.5 16.5t16.5 19.5t13 16q3 5 11.5 16t10.5 14q3 6 8 15t9.5 17.5t8 15l3.5 6.5v10h-4z" />
    <glyph glyph-name="C" unicode="C" horiz-adv-x="431" 
d="M23 153q12 100 19 154t10 80q4 30 4 35q9 31 19 67t26.5 67t42.5 52t67 21q18 0 32.5 -2.5t27.5 -8.5t25.5 -14.5t26.5 -20.5q10 -9 11.5 -11t1.5 -12q0 -13 -9 -25t-26 -12q-14 0 -23 6.5t-17.5 15t-18 15t-24.5 6.5q-16 0 -28 -8.5t-20.5 -21.5t-13 -29t-6.5 -30
l-47 -320q0 -2 -0.5 -9.5t-0.5 -11.5v-17.5t2 -21t7 -18t15 -7.5q6 0 11 4q48 32 82.5 74.5t65.5 90.5q1 2 5.5 9.5t9 16t8.5 17t6 12.5q6 13 9 27t7.5 26t13.5 19.5t28 7.5q14 0 27 -12t13 -28v-2q-25 -72 -64.5 -133t-87.5 -121q-30 -36 -69 -58t-87 -22h-5
q-45 17 -60.5 50.5t-15.5 78.5v24z" />
    <glyph glyph-name="D" unicode="D" horiz-adv-x="523" 
d="M141 32q0 9 6.5 16t6.5 15q0 2 -4 5t-5 4q-10 15 -11 34t-1 36q0 92 1 182t1 182q-10 0 -19 -4.5t-19 -10t-21 -10t-24 -4.5h-16q-2 3 -10 5.5t-8 6.5v30q5 3 8.5 8.5t5.5 9.5l101 50l4 5q-2 28 3 45t35 17q8 0 17.5 -3t18 -8t13 -13t2.5 -18q50 -2 99 -7.5t88 -24
t63.5 -54.5t24.5 -99q0 -57 -22 -114t-63 -98l-190 -189q-14 -14 -23.5 -20t-27.5 -6q-15 0 -24.5 8.5t-9.5 23.5zM226 122h-4l8 5q1 1 7.5 6.5t14.5 13t16 14.5t13 12q23 24 48.5 51t46.5 57.5t34.5 64t13.5 70.5q0 35 -13 59.5t-34.5 40t-50.5 22.5t-62 7q-3 0 -17.5 -1.5
t-20.5 -6.5v-415z" />
    <glyph glyph-name="E" unicode="E" horiz-adv-x="422" 
d="M78 22q-10 40 -15 75.5t-7 75.5q-1 23 0 39.5t-4 36.5q-1 4 -4.5 6t-7 5t-6.5 7.5t-3 14.5q0 8 3.5 14t7 11.5t7 12t3.5 15.5v15q0 10 -2 34t-4 51t-3.5 51t-2.5 33q-1 17 -9 30t-8 30q0 32 13 45t46 13q7 0 11.5 -6t10.5 -6h4q3 1 9 2.5t8 1.5q84 36 131 56t71 29
t32.5 10t14.5 -2q12 -2 16.5 -7.5t4.5 -16.5q0 -10 -3 -20t-14 -15l-131 -63l-4 -4l-110 -47q-6 -2 -7 -10t-1 -13q0 -8 2 -29t4 -43.5t4.5 -40t3.5 -17.5h1l1 1q11 8 35 27.5t49 39.5t44 35.5t20 15.5q11 0 20 -11t9 -23t-5 -27t-16 -23l-156 -139v-5t-0.5 -11t-0.5 -12.5
v-10.5q0 -36 5 -71.5t5 -71.5h4q1 0 9 8t12 13q2 3 9.5 13t25.5 33t48 61t77 96q4 4 11.5 12t9.5 8q3 3 12.5 2.5t13.5 -2.5q5 -2 13 -11t8 -17q0 -12 -12.5 -31.5t-29.5 -40.5t-34 -40.5t-26 -31.5q-14 -22 -33.5 -53.5t-42.5 -60t-50.5 -49t-58.5 -20.5q-15 0 -21.5 5
t-16.5 18z" />
    <glyph glyph-name="F" unicode="F" horiz-adv-x="427" 
d="M34 249q0 9 2.5 15t6 11.5t6 11t2.5 13.5q0 30 -4 59.5t-8.5 59.5t-8.5 59.5t-4 59.5q0 21 7.5 29t29.5 8q17 0 28.5 -8.5t22.5 -21.5h5q7 4 26 15t40.5 23t41 22.5t27.5 15.5q17 9 33 15t35 6q10 0 15 -3t5 -16v-2q-4 -20 -14 -32.5t-23.5 -21.5t-28 -15.5t-27.5 -14.5
q-30 -21 -50.5 -34t-35 -21t-23 -13.5t-13.5 -11.5q0 -3 -0.5 -11.5t-0.5 -10.5q0 -30 1 -60t12 -58l233 110q7 3 10.5 3.5t10.5 0.5q4 0 13 -3t9 -8q0 -23 -15.5 -41t-37.5 -33t-46 -26t-42 -20q-4 -2 -9 -3t-7 -5l-105 -55q-5 -3 -5.5 -5.5t-0.5 -7.5q0 -2 0.5 -5t0.5 -4
l21 -164q3 -24 -11.5 -38t-35.5 -14q-4 0 -10 1.5t-12 4t-10.5 7t-5.5 10.5l-25 197q0 4 -4 7t-8.5 6t-8.5 7t-4 10z" />
    <glyph glyph-name="G" unicode="G" horiz-adv-x="501" 
d="M374 -87q-15 60 -21.5 127.5t-8.5 126.5q-9 -5 -15 -15.5t-10.5 -22t-9.5 -23t-12 -19.5q-23 -26 -50 -47.5t-64 -21.5q-30 0 -59.5 13t-53 34.5t-38 49.5t-14.5 59q0 43 14 87.5t34 82.5q4 7 12.5 20.5t18 27.5t17.5 25.5t11 14.5l109 115q22 23 55.5 33.5t62.5 12.5
q15 2 25 -4.5t10 -21.5q0 -12 -9.5 -18.5t-22.5 -10.5t-27 -7.5t-22 -8.5q-53 -43 -96 -96.5t-77 -111.5q-11 -35 -23 -67t-12 -70q0 -3 0.5 -13.5t0.5 -13.5q10 -24 30.5 -44t48.5 -20q14 0 29 9t23 22q4 5 14 20t20.5 32t20 32t12.5 21t8.5 15.5t10 18.5t8 16.5t3.5 8.5v4
q-14 -4 -28 -6.5t-29 -2.5q-9 0 -19.5 1.5t-20 5.5t-16 11t-6.5 19q0 5 1 12t4 11q8 7 21.5 10.5t29 5l31 3t28.5 6.5q11 4 26 10.5t31.5 13t33.5 11.5t31 7q3 0 8.5 -2t11.5 -5t10 -6.5t4 -6.5q0 -22 -12 -30.5t-31 -20.5q3 -40 -2.5 -80t-5.5 -80q0 -48 2 -98t10 -97
q1 -2 3 -10.5t4.5 -17.5t4.5 -17t2 -10v-2q0 -14 -10.5 -27.5t-24.5 -13.5q-15 0 -28.5 10t-16.5 24z" />
    <glyph glyph-name="H" unicode="H" horiz-adv-x="367" 
d="M131 257h-3q0 -41 1.5 -80.5t1.5 -81.5q0 -12 -0.5 -23.5t-3.5 -21t-10.5 -15t-22.5 -5.5q-28 0 -39 29q-5 47 -6 92.5t-6 93.5q-2 14 -11.5 27t-9.5 25q0 9 6.5 15t6.5 17q0 78 -4.5 154.5t-4.5 153.5v17q7 10 14 12t19 2q29 0 37 -17.5t9 -42.5l9 -266q1 -3 3.5 -9.5
t7.5 -6.5q7 0 26 3.5t40 8t38 10t20 10.5q0 7 0.5 25t0.5 25q0 42 -1 83t-4 83q0 7 -3 33.5t-6 57.5t-5.5 57.5t-2.5 33.5q-1 1 -1 6.5v7.5q0 13 9.5 19t20.5 6q24 0 35.5 -15t16.5 -37q1 -11 3 -37t5 -56t5.5 -56.5t3.5 -36.5v-16q0 -5 1.5 -19.5t2.5 -19.5v-410
q5 -17 6.5 -28t1.5 -26q0 -12 -6.5 -25.5t-22.5 -13.5q-14 0 -25.5 7t-20 18t-13.5 24.5t-5 27.5v206z" />
    <glyph glyph-name="I" unicode="I" horiz-adv-x="154" 
d="M23 566q8 11 14.5 14.5t18.5 3.5q16 0 30.5 -9t16.5 -26q4 -28 4.5 -56.5t0 -57l-1 -57t1.5 -56.5q4 -68 12.5 -141t8.5 -141q0 -20 -8 -30t-31 -10q-19 0 -29 13t-14.5 31t-5.5 36.5t-1 29.5q0 8 -1.5 33.5t-3 60t-3.5 73t-4 73t-3.5 60t-1.5 33.5v62v61z" />
    <glyph glyph-name="J" unicode="J" horiz-adv-x="323" 
d="M10 255q0 13 7 25t23 12q9 0 15 -6t10.5 -14.5t8.5 -17t9 -13.5q7 -6 24.5 -26t35.5 -42t33 -40.5t17 -22.5q2 -2 6 -6.5t6 -6.5l4 4q0 1 0.5 10t0.5 20v22.5v18.5q0 86 -2.5 170.5t-2.5 170.5v141q3 14 12.5 20.5t22.5 6.5q14 0 27.5 -6t17.5 -21q-2 -125 3.5 -246
t5.5 -245v-42.5t-4.5 -54.5t-17 -47t-36.5 -20q-2 0 -5.5 0.5t-4.5 0.5q-5 2 -18 10t-15 12l-165 185q-12 13 -15 23.5t-3 24.5z" />
    <glyph glyph-name="K" unicode="K" horiz-adv-x="592" 
d="M76 143q-11 5 -20.5 16t-9.5 22q0 14 8.5 24t8.5 24q0 23 -5.5 46t-2.5 47l-29 282v2q0 12 10 25t23 11q3 0 8.5 -1.5t12.5 -4t12.5 -5.5t8.5 -6q2 -2 7 -12t6 -13q8 -29 7.5 -64.5t1.5 -66.5q1 -11 2.5 -34.5t4 -47t5.5 -41t6 -17.5l2 1q51 51 89.5 105.5t63.5 121.5
q0 2 2 8t4 12.5t3.5 13t2.5 9.5l1 6t3 12.5t4.5 12.5t5.5 6h46q7 0 11.5 -5t7.5 -12t4 -13.5t1 -10.5q0 -1 -1.5 -4.5t-2.5 -4.5v-8q-8 -28 -17 -51t-19.5 -45t-23.5 -44t-28 -47q-5 -8 -16 -17.5t-14 -20.5l-92 -109l-13 -26h4q43 11 82.5 16t78.5 7t79 2t85 1q1 0 7 0.5
t12 1.5t11.5 1.5t7.5 0.5h9q11 0 24.5 -4t17.5 -18q4 -11 -3.5 -23.5t-17.5 -17.5q-3 -1 -10.5 -2t-15.5 -2.5t-15 -3t-10 -1.5h-13q-21 -1 -52.5 -1t-60.5 -1q-34 -1 -72 -2l-148 -30v-6q0 -22 6.5 -43t6.5 -43q0 -20 -10 -35.5t-33 -15.5q-12 0 -26 13t-17 25l-16 105v0z
" />
    <glyph glyph-name="L" unicode="L" horiz-adv-x="447" 
d="M32 155q0 77 2.5 153t2.5 154q0 45 -4.5 90t-4.5 90q0 14 8.5 24t22.5 10q24 0 36 -10t17 -25t5 -34v-37q0 -4 0.5 -20t1.5 -34.5t1.5 -34.5t0.5 -20v-33q0 -65 -2 -129t-2 -130v-42q0 -5 1.5 -13.5t2.5 -8.5h8l237 94q8 7 14 7.5t14 0.5q5 0 13 -0.5t15.5 -3t13 -7
t5.5 -13.5q0 -23 -25 -40q-32 -17 -66 -31.5t-69 -23.5l-5 -4q-48 -13 -89.5 -38t-86.5 -46h-9q-27 0 -40 18t-17 42.5t-3 51t1 43.5z" />
    <glyph glyph-name="M" unicode="M" horiz-adv-x="585" 
d="M34 30q-2 111 -5.5 221.5t-3.5 221.5v28.5t0.5 43.5t0.5 43v28q4 16 12 25.5t25 9.5t30 -10.5t21 -24.5l144 -278q1 -2 7 -12t9 -14q1 -1 3 -2t2 -2l4 9l85 299q9 14 13.5 31.5t10 34.5t14 32t25.5 25h8q27 0 40 -15.5t18 -38t4.5 -47t0.5 -42.5q0 -7 1.5 -27t3.5 -47
t4 -57.5t3.5 -57.5t3 -47t1.5 -26v-4q1 -9 4 -30t6.5 -44.5t6.5 -44.5t5 -29q1 -5 3.5 -15t6 -21.5t6.5 -21.5t5 -14q-4 -23 -11.5 -35.5t-32.5 -12.5q-3 0 -9 0.5t-7 0.5q-3 2 -11.5 10t-9.5 11l-16 55l-30 228v9q-1 18 -1 38.5t-0.5 41.5t-2.5 42t-8 39l-5 -6l-72 -290
q-1 -11 -2 -23.5t-5 -24t-12 -19.5t-23 -9q-6 -1 -13 2t-14 8t-12.5 11.5t-6.5 12.5l-127 202l-21 42v-86q0 -61 2.5 -119.5t2.5 -119.5v-17.5t-0.5 -26.5t-0.5 -26.5v-17.5q-4 -12 -11.5 -21t-21.5 -9q-19 0 -29.5 6.5t-17.5 23.5z" />
    <glyph glyph-name="N" unicode="N" horiz-adv-x="445" 
d="M23 125q0 61 2.5 122.5t5.5 123t4.5 123t-0.5 122.5q3 11 11 16.5t19 5.5q21 0 32 -7.5t16 -20.5t6 -29l2 -32q12 -22 28.5 -42.5t29.5 -41.5q0 -1 1.5 -4.5t2.5 -3.5q6 -9 15.5 -23.5t18.5 -28t15.5 -23.5l6.5 -10l4 -5l58 -84q4 -4 7 -4h2q-13 106 -21 216.5t-8 218.5
v50q8 13 27 13t28 -9t12 -22.5t3 -29t1 -28.5q0 -1 1 -3.5t2.5 -11t3 -26t4 -48.5t5 -78t6.5 -115v-18l34 -223q1 -8 8.5 -24.5t7.5 -25.5q0 -21 -12 -34t-34 -13q-3 0 -8 2.5t-10 5.5t-9.5 6.5t-6.5 5.5l-161 229q-1 0 -2 3.5t-2 5.5q-6 9 -16 22.5t-19 27t-16 23.5t-7 11
l-5 4q-5 -95 -8 -191.5t0 -192.5q-2 -12 -12.5 -21t-21.5 -9q-20 0 -31.5 10.5t-19.5 27.5v87z" />
    <glyph glyph-name="O" unicode="O" horiz-adv-x="330" 
d="M22 177q1 6 0 32t-0.5 64.5t2 84.5t7 93t16 90.5t27.5 75.5q6 27 29 37.5t65 12.5q27 0 46 -14t32.5 -34.5t23.5 -44.5t18 -43v-5q7 -20 10.5 -59.5t5 -83t1.5 -83.5v-61q0 -30 -8 -71.5t-25.5 -78.5t-45.5 -63t-67 -26q-33 0 -58.5 17t-43 43.5t-26.5 57.5t-9 59z
M119 110q2 -11 11.5 -22.5t22.5 -11.5h8q42 38 55 87.5t13 104.5q0 13 -1 40t-3.5 60.5t-6.5 70.5t-10 69.5t-14 56.5t-19 33q-1 -1 -2.5 -4t-1.5 -4q-21 -26 -38 -71t-25.5 -106.5t-7 -138t18.5 -164.5z" />
    <glyph glyph-name="P" unicode="P" horiz-adv-x="526" 
d="M141 199q1 20 -0.5 40t-3.5 40q-1 5 -2.5 16t-1.5 13q0 1 -2 4.5t-2 4.5l2 2q3 3 2 3v193h-4q-12 -14 -28 -30t-38 -16q-16 0 -30.5 11t-14.5 29v2q0 1 1 3l2 4q1 3 2 5l112 98v55q0 10 12 15.5t20 5.5q13 0 24 -6.5t22 -6.5q10 0 18 6t16 11q38 23 73.5 35t79.5 12
q19 0 45.5 -3.5t51 -12.5t41.5 -25t17 -41q0 -45 -18 -86t-50 -73q-42 -40 -78.5 -71.5t-81.5 -63.5q-1 -1 -2 -2.5t-2 -2.5l-97 -67q-5 -4 -5 -14.5v-13.5q0 -29 3.5 -57.5t7.5 -57.5t7.5 -58t3.5 -58q0 -16 -7.5 -28.5t-26.5 -12.5q-14 0 -29.5 11.5t-17.5 26.5zM221 392
l182 139q12 9 24.5 23.5t23 31t17.5 34.5t7 34q0 10 -8.5 15.5t-19.5 8t-22.5 2.5h-18.5q-45 0 -82.5 -20.5t-71.5 -43.5q-2 -2 -8 -5.5t-12 -8t-10.5 -8.5t-4.5 -7v-190z" />
    <glyph glyph-name="Q" unicode="Q" horiz-adv-x="519" 
d="M322 80q-10 11 -19 22t-20 20l-2 1q-4 0 -15.5 -16.5t-30 -37t-43 -37t-55.5 -16.5q-30 0 -51 17t-34.5 42.5t-19.5 54.5t-6 53q0 15 2.5 29t1.5 28q3 13 10.5 46t16 70.5t16.5 70.5t11 46q1 6 6 20t10.5 30.5t10.5 30.5t7 20q5 4 7.5 8t5 7t6 5t10.5 2q15 0 31.5 -7
t20.5 -24q2 -8 0 -8.5t4 -7.5q14 5 29 6.5t29 1.5q27 0 42.5 -16.5t23 -40t9.5 -49t2 -44.5q0 -9 -1 -22t-2 -27t-1.5 -27.5t0.5 -22.5l-21 -97q-1 0 7.5 -10t13.5 -16l5.5 -5.5l9 -9t8.5 -9t5 -5.5q2 -1 3.5 -4l2.5 -5l206 -215q1 -1 4 -7t5 -9v-1q0 -1 1 -2
q0 -17 -11 -28.5t-26 -11.5q-8 0 -17.5 1.5t-14.5 6.5zM110 199q-5 -23 0 -44t13 -41q2 -4 5.5 -13t8.5 -9q9 0 21.5 9.5t24.5 23t20 28t8 24.5q0 13 -8.5 21t-8.5 21q0 15 5.5 21t13.5 8t16.5 3t15.5 6q5 4 9.5 22t8 39t5.5 40.5t2 27.5v25t-1 28.5t-3.5 28.5t-7.5 26h-6
q-20 0 -36.5 -11t-29 -27t-22.5 -34.5t-17 -33.5q-2 -5 -6 -14t-2 -16z" />
    <glyph glyph-name="R" unicode="R" horiz-adv-x="768" 
d="M76 232q-6 13 -9.5 21t-3.5 19q0 9 2.5 16.5t2.5 16.5q0 22 -1.5 41t-3.5 42q-1 3 -7 5t-13 5.5t-12.5 10.5t-5.5 20q0 12 5.5 20.5t11.5 16t11.5 16t5.5 20.5q0 5 -1 18.5t-1.5 28.5t-1 28.5t-0.5 18.5v2v2q4 9 6.5 15t5.5 9t8 4.5t13 1.5q21 0 31 -8t14 -18.5t5 -19.5
t5 -10l72 63h4q35 23 74 35.5t82 12.5q13 0 31.5 -3t35 -10.5t28 -19.5t11.5 -30q0 -20 -5 -41t-13.5 -41.5t-20 -39t-24.5 -31.5q-5 -11 -64 -56t-176 -134l480 -30q10 -1 27.5 -1.5t34 -3.5t28.5 -11.5t12 -25.5q0 -9 -2.5 -14.5t-6 -9t-8 -6.5t-8.5 -8h-17h-17
q-20 2 -41.5 5t-50 7t-66.5 8t-91 7t-123.5 5t-163.5 2q-1 0 -2.5 -3t-1.5 -5q0 -38 6.5 -74.5t6.5 -72.5q0 -7 -1.5 -15.5t-5.5 -16t-10 -12.5t-15 -5q-6 0 -14 2.5t-15.5 7.5t-13.5 11t-7 14zM143 453q0 -25 1 -47t3 -48h3q1 0 5 2t20 12.5t49 33t93 63.5q12 7 26 24
t26 37t20 39.5t8 32.5q0 10 -9.5 10h-16.5q-15 0 -34 -5t-45.5 -20t-63 -43t-85.5 -75v-16z" />
    <glyph glyph-name="S" unicode="S" horiz-adv-x="549" 
d="M173 36q16 22 35.5 33t40 18t41 13.5t40.5 21.5q11 6 31 18t39.5 26.5t34 28.5t14.5 24q0 1 -1 1q-2 0 -2 1l-2 2q-5 2 -16 5t-13 4q-129 15 -207.5 26.5t-121 24.5t-56.5 30t-14 43q0 10 4 22t9.5 24t11.5 22t11 16q16 20 42 36t56 28t60.5 21t55.5 16q28 2 56.5 13.5
t56.5 15.5q14 0 23 -11t9 -23q0 -17 -6.5 -25.5t-17 -13t-23.5 -7t-26 -5.5l-22 -5.5t-28 -7.5t-25 -7t-13 -4q-31 -13 -58.5 -24.5t-48 -23.5t-32 -25.5t-10.5 -29.5v-1q10 -14 45 -21t82.5 -12t100 -10t96.5 -15t73 -27t30 -46q0 -11 -4.5 -26t-12.5 -23
q-25 -28 -59.5 -58t-74.5 -55.5t-82.5 -43t-83.5 -20.5q-14 0 -26 10.5t-12 25.5z" />
    <glyph glyph-name="T" unicode="T" horiz-adv-x="449" 
d="M218 439q-1 8 -2.5 20.5t-3 24t-2.5 19.5l-1 8h-8l-114 -34q-5 -8 -16.5 -8h-17.5q-14 0 -28.5 12.5t-14.5 27.5q0 11 7.5 21.5t18.5 14.5l161 51q3 11 11.5 22.5t22.5 11.5t23.5 -7t21.5 -11q9 1 30 6t44.5 10.5t44.5 10.5t29 7q12 2 18 5t19 3q17 0 35 -10t18 -30
q0 -13 -9 -22.5t-22 -12.5l-190 -48v-9q0 -31 5.5 -61t3.5 -60l34 -309v-22q0 -12 -0.5 -24.5t-4 -22.5t-11.5 -16.5t-24 -6.5q-12 0 -25.5 10t-14.5 24l-38 397v8z" />
    <glyph glyph-name="U" unicode="U" horiz-adv-x="422" 
d="M297 141q-11 -21 -26.5 -47t-36 -49.5t-44 -39.5t-50.5 -16q-34 0 -54 20t-30.5 49.5t-13.5 62t-3 58.5v26q1 8 2.5 24t4 36.5t4.5 43t4.5 43t4 36.5t2.5 24q-4 10 -2.5 20.5t7 19t14.5 14t20 5.5q3 0 10.5 -2t15.5 -6t14 -8.5t6 -8.5v-38q-14 -108 -18 -172t-3 -99.5
t6 -48.5t10 -18q12 -5 23.5 -2.5t27.5 18.5t38.5 49.5t54.5 89.5q2 3 4.5 11t3.5 11q-2 66 -0.5 133t4.5 133q4 10 13 16t19 6q4 0 12 -3t16 -8.5t14 -11.5t6 -12v-295q7 -45 11 -90.5t11 -90.5q0 -5 2.5 -20.5t5.5 -33.5l5.5 -33t3.5 -19v-12q0 -36 -39 -39
q-17 -2 -28.5 14.5t-18.5 43t-11.5 59.5t-7.5 64t-6 56.5t-8 36.5z" />
    <glyph glyph-name="V" unicode="V" horiz-adv-x="522" 
d="M42 477q-11 8 -21 26t-10 32q0 15 12 23t25 8q16 0 27 -6t21.5 -20t24 -38t34.5 -60.5t53 -87t79 -117.5q3 -8 11 -19.5t10 -14.5l4 8l55 207l4 9l39 139q-3 18 8 32t28 14t34.5 -11.5t17.5 -30.5v-4l-114 -427q0 -2 -2 -12.5t-4 -23l-4 -25t-3 -19.5q-1 -9 -1.5 -19.5
t-4 -19t-10.5 -14.5t-21 -6q-24 0 -36 13t-18 31.5t-10 39t-13 34.5z" />
    <glyph glyph-name="W" unicode="W" horiz-adv-x="517" 
d="M243 342l-4 4q-6 -24 -7 -48t-2 -49q0 -8 -0.5 -27t-1.5 -40.5t-1.5 -41t-0.5 -26.5q-3 -12 -13 -21t-23 -9q-5 0 -12.5 1.5t-15 4t-14 6.5t-7.5 9l-63 221l-46 181q-1 1 -4 7t-6 13.5t-5.5 14.5t-2.5 11q0 14 13.5 22.5t24.5 8.5q37 0 47 -31l55 -199q5 2 6.5 11t1.5 11
q0 1 1.5 10t5.5 31.5t11.5 61.5t20.5 100q8 10 19 13.5t25 3.5q13 0 20.5 -4t10.5 -18l68 -286q2 -5 4 -11t4 -11q4 33 7 58.5t6 50t6 52t8 63.5t12 85t17 117q3 20 17.5 25t32.5 5q1 0 4.5 -1.5t4.5 -2.5q2 -1 8 -2t8 -2q4 -9 7 -15.5t3 -14.5q-2 10 -7 -9t-12.5 -62
t-16 -106.5t-16.5 -143t-14.5 -172t-10.5 -191.5q-3 0 -10 1t-14.5 3t-13.5 5t-8 8z" />
    <glyph glyph-name="X" unicode="X" horiz-adv-x="467" 
d="M203 169q-1 -2 -6 -10.5t-7 -11.5q-8 -11 -14.5 -33t-15.5 -43.5t-21 -38t-29 -16.5q-6 0 -14.5 2.5t-15.5 7t-12 11t-5 13.5q0 14 6.5 24t6.5 23l63 130q1 2 2.5 7t2.5 7v3v1q-20 28 -39.5 59.5t-35.5 58.5t-27.5 47.5t-15.5 28.5q-8 10 -8 21t5.5 19.5t15.5 14t22 5.5
q17 0 27 -6t17 -20q17 -36 34 -69t39 -66h1q6 7 11.5 21t12 41t16.5 69t26 105q2 9 12.5 17.5t18.5 8.5h4q14 -3 22 -4.5t12 -5t5.5 -11.5t2.5 -23q-1 -15 -6.5 -40t-13 -55t-16.5 -62t-18 -59.5t-16 -48.5t-11 -29v-9l194 -194q6 -6 7.5 -11.5t1.5 -12.5q0 -16 -9.5 -25.5
t-24.5 -9.5q-14 0 -29.5 7.5t-26.5 18.5l-143 143h-8z" />
    <glyph glyph-name="Y" unicode="Y" horiz-adv-x="424" 
d="M226 -6q1 5 2.5 19t4 29.5t4.5 29t3 19.5q5 45 12.5 89.5t7.5 89.5v15l-16 8q-4 2 -20 13t-35.5 25t-38.5 28.5t-29 23.5q-6 4 -19.5 15.5t-28 25t-27.5 26t-18 17.5q-8 8 -15 18.5t-7 21.5q0 17 13 24.5t28 7.5q10 0 21 -2.5t19 -10.5q38 -42 85 -84t96 -72l4 13l42 270
q2 11 12.5 14t19.5 3q26 0 39.5 -12.5t13.5 -41.5v-2q0 -1 -1.5 -5t-3 -9t-2.5 -9.5t-1 -5.5q-3 -12 -8 -46.5t-11 -82t-13 -104.5t-14 -114.5t-14 -111t-13 -94.5q1 -10 1.5 -23t-3.5 -25t-12.5 -20t-23.5 -8q-19 0 -33.5 10t-20.5 28z" />
    <glyph glyph-name="Z" unicode="Z" horiz-adv-x="748" 
d="M74 38q0 2 1.5 6.5t2.5 6.5q4 7 17 26t39.5 60t69.5 108.5t109 172.5h-28l-195 -30h-10q-7 0 -17 3.5t-19 9t-15 12.5t-6 15q0 15 8 22.5t20 11t25 3.5h23l215 29q1 0 13 0.5t17 0.5h28t27.5 -3.5t20.5 -12.5t8 -27q0 -10 -6.5 -19.5t-13.5 -14.5l-165 -265
q-15 -10 -23.5 -30.5t-19.5 -34.5q2 -3 5 -3.5t6 -0.5h6l469 64q13 0 29.5 -8t16.5 -25q0 -15 -6 -24.5t-19 -18.5q-26 0 -69.5 -1.5t-110 -9t-159.5 -22t-218 -39.5q-3 -1 -7 -1h-9q-7 0 -17.5 2t-20 6t-16 11t-6.5 18v2z" />
    <glyph glyph-name="bracketleft" unicode="[" horiz-adv-x="412" 
d="M47 -42q0 41 4 81t4 81q0 37 -3 74t-5 74q-2 48 -2 95t-2 95q-3 49 -5.5 102.5t-7.5 99.5q-2 17 -5 33t-3 33v7q1 3 9 11t12 10q14 7 35.5 9t35.5 8q35 15 69 30.5t66 32.5q3 8 14 8h19q27 0 27 -25q0 -10 -6 -18t-14.5 -14t-18 -10.5t-16.5 -7.5l-144 -64l-4 -4v-14v-20
q11 -168 22.5 -335t6.5 -336q-1 -3 0.5 -9.5t3.5 -8.5h7h7l173 77q6 -2 12.5 1.5t13.5 3.5q17 0 29 -7.5t12 -25.5q0 -6 -1 -15t-8 -12l-270 -110q-3 -1 -6 -1h-8q-32 0 -42.5 21t-10.5 50z" />
    <glyph glyph-name="backslash" unicode="\" horiz-adv-x="563" 
d="M10 879v1q0 17 14.5 26.5t28.5 9.5q17 0 27.5 -7.5t18.5 -21.5l427 -795q14 -15 19.5 -26t5.5 -30q0 -18 -8.5 -27.5t-28.5 -9.5q-12 0 -26.5 5.5t-20.5 17.5z" />
    <glyph glyph-name="bracketright" unicode="]" horiz-adv-x="420" 
d="M138 -57q-1 4 -5.5 15.5t-6.5 14.5v2q0 12 14 19t32.5 11t35.5 5t23 1h17.5t28.5 -0.5t28 -1t17 -0.5v8q-1 25 -7 70.5t-16 125t-25 199.5t-34 294q0 2 0.5 8.5t0.5 14t-0.5 14t-0.5 9.5q0 4 -0.5 11l-1 14t-1.5 12l-1 5l-5 4l-131 -13q-1 -1 -5.5 -2.5t-6.5 -1.5
q-8 0 -21 1.5t-25 6t-21 11.5t-9 19q0 23 16.5 30t34.5 8q5 0 23.5 1.5t40 3t39.5 3t23 1.5q19 1 39 4.5t37 3.5q19 0 36.5 -5.5t23.5 -27.5q0 -1 -0.5 -6t-1 -11t-1.5 -11t-1 -6v-22q0 -19 1.5 -40.5t5 -56t9.5 -87.5t15 -134.5t20.5 -197t27.5 -275.5q0 -1 0.5 -5t0.5 -6
q0 -14 -7 -25t-21 -11q-19 0 -36 2.5t-36 2.5q-23 0 -47 -2t-47 -7q-2 0 -6.5 -1.5t-9.5 -3t-9 -2.5t-5 -1q-2 0 -7.5 0.5t-11.5 1.5t-11.5 2.5t-8.5 3.5z" />
    <glyph glyph-name="asciicircum" unicode="^" horiz-adv-x="354" 
d="M115 821q1 2 3.5 8.5t5.5 13.5t6 13.5t4 9.5q4 8 14.5 9.5t20.5 1.5q8 0 14 -1.5t12 -7.5q3 -5 11.5 -17.5t18.5 -26t18.5 -26t11.5 -16.5q1 -1 4 -4.5t3 -4.5q3 -4 10 -14.5l15 -22.5t15 -23t10 -15q3 -5 3.5 -7.5t0.5 -7.5q0 -11 -9 -15t-24 -4q-13 0 -23.5 5.5
t-15.5 13.5l-67 99l-4 -3q-3 -4 -6 -11t-10.5 -21t-20.5 -36.5t-36 -58.5q-2 -2 -10.5 -5t-11.5 -3q-6 0 -15.5 2.5t-17.5 6.5t-12.5 9.5t-0.5 12.5z" />
    <glyph glyph-name="underscore" unicode="_" horiz-adv-x="596" 
d="M17 40q0 5 4 15.5t9 12.5l505 98q2 0 9.5 -0.5t9.5 -0.5q4 -7 8.5 -11t8.5 -8.5t6.5 -11t2.5 -18.5t-12 -21t-23 -11l-465 -84h-1q-24 0 -35 8t-27 26v6z" />
    <glyph glyph-name="grave" unicode="`" horiz-adv-x="250" 
d="M234 608q-11 -18 -28.5 -15t-35.5 15.5t-34.5 29t-24.5 25.5l-11 11t-9.5 13t-4 14t5.5 15q11 15 25 19t30 -7q15 -21 31 -33t29.5 -23.5t21.5 -25.5t5 -38z" />
    <glyph glyph-name="a" unicode="a" horiz-adv-x="399" 
d="M256 279q-9 -16 -20.5 -38.5t-24.5 -48t-28.5 -51t-32 -46.5t-34.5 -35.5t-37 -17.5q-8 0 -18 1.5t-20 5t-16.5 10t-6.5 17.5q1 102 15 185.5t44 147t77 105.5t114 60q2 0 7.5 0.5t7.5 0.5q30 1 43.5 -27.5t20 -90t9 -158t10.5 -231.5q3 -11 3.5 -19t0.5 -19
q0 -15 -9 -22.5t-23 -7.5q-29 0 -41 16t-16 43q0 1 -1.5 16t-4 34.5t-4.5 39.5t-3 33v4q-2 10 -2.5 25t-2.5 29q-2 17 -3 34zM234 477q-27 -20 -53 -54t-37 -66q-5 -15 -11 -41t-10.5 -51.5t-7.5 -47t-3 -27.5q1 0 2.5 2t2.5 3q62 60 87.5 129.5t29.5 152.5z" />
    <glyph glyph-name="b" unicode="b" horiz-adv-x="384" 
d="M26 334v2q0 8 5.5 16.5t11.5 14.5v51q0 83 -2.5 162t-10.5 163q0 13 9 19.5t19 6.5q28 5 42.5 -13t20.5 -49t6 -69.5t-1.5 -74.5t-1.5 -64t7 -38q13 5 13.5 4.5t0 -1t2 2t18.5 14.5q22 17 51.5 21.5t55.5 4.5q61 -9 85 -37.5t21 -70t-28.5 -92t-63.5 -104t-84 -106
t-89 -98.5q-9 0 -20.5 3t-21.5 9t-17 15t-7 21v261zM131 257q0 -3 0.5 -14t1.5 -23.5t1.5 -23.5t0.5 -14v-10.5t0.5 -16t0.5 -16v-10.5q11 2 31 28t41 60.5t39 69.5t27 55q4 10 8 24t5.5 28.5t-2 26.5t-14.5 19q-18 0 -38.5 -9t-40 -23t-35 -30.5t-22.5 -31.5
q-1 -5 -1.5 -17.5t-1 -26.5t-1 -27t-0.5 -18z" />
    <glyph glyph-name="c" unicode="c" horiz-adv-x="354" 
d="M23 120q-7 30 0.5 71t24 82.5t41 78.5t52 59t56 24.5t54.5 -25.5q0 -1 1 -5t2 -16.5t1.5 -35t0.5 -61.5q1 -2 2.5 -6.5t1.5 -6.5q-3 -11 -11.5 -20.5t-21.5 -9.5q-17 0 -27.5 5.5t-15.5 26.5q2 3 1 12.5t-3.5 21.5t-4.5 24t-2 19q-1 0 -2.5 -1.5l-2.5 -2.5
q-17 -30 -31.5 -66.5t-22 -74t-5 -74.5t21.5 -67q14 0 26 11.5t20 21.5q17 20 33.5 41t30.5 44q6 10 9 18t7.5 13t11.5 8t21 3q16 0 30 -7.5t14 -24.5q0 -23 -20.5 -57.5t-50 -66.5t-62.5 -54.5t-58 -22.5q-24 0 -46.5 9.5t-39 25.5t-26.5 38t-10 48z" />
    <glyph glyph-name="d" unicode="d" horiz-adv-x="412" 
d="M274 158q-1 0 -13.5 -22t-33.5 -48t-49.5 -48t-60.5 -22q-44 0 -73.5 27t-29.5 74q-2 24 6.5 57t25 68.5t40 69t50.5 58t56.5 36.5t59.5 4v14q0 26 -1.5 53.5t-3 63t-3 82t-1.5 111.5q3 11 10.5 14.5t16.5 3.5q23 0 36.5 -15t16.5 -37q-2 -34 -1.5 -69.5t3.5 -80.5
t9.5 -102t16.5 -134.5t24 -178t33 -232.5v-34q0 -6 -4.5 -9t-11 -4.5t-13 -2t-9.5 -0.5q-15 0 -32 8.5t-20 23.5l-37 267q0 3 -2.5 3.5t-4.5 0.5zM98 136q0 -3 -0.5 -10.5t0 -15.5t2.5 -14t8 -6q25 -1 51.5 19t48.5 49.5t36.5 63.5t16 61t-13 41.5t-49.5 6.5
q-43 -38 -71.5 -87t-28.5 -108z" />
    <glyph glyph-name="e" unicode="e" horiz-adv-x="445" 
d="M441 284q-2 -18 -4.5 -28t-8.5 -18t-17 -16.5t-30 -24t-47 -40.5t-68 -65q-16 -15 -33 -31t-35.5 -28.5t-38.5 -20.5t-42 -8q-43 0 -63 29t-20 67q0 25 1.5 42t7.5 44q-11 10 -19 17.5t-8 20.5q0 12 5.5 16t13 5.5t14.5 3.5t10 8q2 6 7.5 22t11.5 33.5t11.5 33t7.5 21.5
q7 17 15.5 34.5t20 31.5t27 23t36.5 9q12 0 29.5 -11t33.5 -26.5t27 -32.5t11 -29q0 -15 -7 -27.5t-17.5 -23t-22.5 -19.5t-22 -17q-1 0 -4 -2t-5 -3l-4.5 -4.5l-7.5 -7.5t-7.5 -8t-4.5 -5q-3 -3 -11.5 -9.5t-18.5 -14t-18.5 -14t-11.5 -8.5l-4 -8q-2 -4 -3.5 -17.5
t-3.5 -30.5t-3.5 -34.5t-1.5 -28.5q0 -1 1 -2q2 -2 3 -2q8 0 15 7t15 10l160 148l41 63q5 7 19.5 15.5t29.5 9t26.5 -9.5t11.5 -39zM221 362q5 4 4 12t-5.5 14t-11.5 7.5t-13 -7.5q-3 -4 -10.5 -16t-15 -24.5t-12.5 -21.5t-2 -7z" />
    <glyph glyph-name="f" unicode="f" horiz-adv-x="293" 
d="M66 216q-22 -4 -34.5 3.5t-17.5 19t-4.5 23t4.5 14.5q3 1 13.5 8t12.5 9q1 0 2.5 1.5l2.5 2.5v18q0 56 -6.5 110.5t-6.5 109.5q0 36 1.5 75t13 72t36.5 54t72 21h19t20.5 -2.5t16.5 -9t7 -18.5q0 -18 -8.5 -23.5t-21.5 -7t-27 -4t-24 -15.5q-2 -2 -5 -10.5t-3 -11.5
q-2 -7 -4 -19t-3.5 -24t-3 -21.5t-1.5 -10.5v-7.5t-0.5 -15.5t-0.5 -18.5v-15.5v-39t1 -35.5t3 -35.5t5 -40h8l135 80q14 3 25 10t25 7t29 -7t15 -22q0 -11 -5 -16t-8 -14q-4 -1 -15 -6t-15 -7q-8 -5 -25.5 -15.5t-36.5 -22t-35 -21.5t-21 -13q-7 -5 -17 -12t-19.5 -14.5
t-16.5 -13l-7 -5.5v-10l26 -85q-1 -3 -0.5 -6.5t4.5 -5.5l47 -143q5 -18 -7.5 -30t-28.5 -12q-18 0 -35 9.5t-22 28.5l-55 181l-4 8v0z" />
    <glyph glyph-name="g" unicode="g" horiz-adv-x="416" 
d="M72 -349q-4 11 0.5 25t18.5 18q23 -10 48 -13t50.5 -1t50.5 8t48 14q23 19 32 49.5t7 83t-13.5 131t-29.5 192.5q0 3 0.5 9t-0.5 11.5t-3.5 8.5t-6.5 0q-13 -25 -30.5 -54.5t-40 -55t-50 -42.5t-61.5 -17q-30 0 -52.5 17.5t-22.5 50.5q0 25 10.5 63t28.5 80.5t42 84.5
t50 76t53 55.5t52 21.5q10 0 26.5 -3.5t32 -10.5t27 -16t11.5 -21v-81l65 -472q0 -40 -1.5 -76.5t-13 -67.5t-36.5 -55t-72 -39q-6 -3 -25 -5t-43.5 -3t-52 0t-50 4.5t-36.5 10.5t-13 19zM228 378q-10 -11 -26.5 -35t-33.5 -53t-33.5 -60.5t-26.5 -58.5t-12.5 -46t8.5 -23
q21 11 45 36.5t45.5 57t38 65t23 60.5t1 43.5t-28.5 13.5z" />
    <glyph glyph-name="h" unicode="h" horiz-adv-x="388" 
d="M38 489q2 60 -5 120t-7 119q0 19 11 23.5t25 4.5q20 0 33 -11t15 -31q9 -109 10.5 -215.5t14.5 -215.5q30 57 62 94t61.5 49t54 -4.5t39.5 -65t18 -132t-10 -207.5q-7 0 -17 -0.5t-19.5 0.5t-16.5 4t-8 11q8 75 9 126t-3 84t-11 50.5t-15 25.5t-15.5 8.5t-11.5 -0.5
q-22 -8 -41.5 -39t-33.5 -72t-20.5 -86.5t-3.5 -81.5l-2 -16t-3.5 -15t-8 -11.5t-16.5 -4.5q-21 0 -33.5 7.5t-19 19.5t-8 28t0.5 33z" />
    <glyph glyph-name="i" unicode="i" horiz-adv-x="173" 
d="M70 38q-10 100 -17 171t-12 119t-8.5 76.5t-5.5 43t-3 19.5t-1 6v4q0 11 9.5 18.5t19.5 7.5q15 0 32.5 -5t23.5 -21q9 -49 12.5 -99t6 -99.5t7 -99.5t16.5 -99q0 -2 1.5 -8t3 -13t2.5 -13t1 -8v-2q0 -1 1 -2q0 -12 -11 -24t-23 -10q-3 1 -14.5 3.5t-15.5 4.5q-3 1 -8 4.5
t-9.5 7.5t-7.5 9t0 9zM14 767q0 7 11.5 12.5t17.5 5.5q15 0 33.5 -8.5t18.5 -25.5t-4.5 -23t-21.5 -6q-18 0 -36.5 12t-18.5 33z" />
    <glyph glyph-name="j" unicode="j" horiz-adv-x="201" 
d="M-116 -165q0 29 6 41.5t15 13t20.5 -7.5t25 -18t27 -19.5t26.5 -11.5q28 0 46 19.5t28.5 47t14 57.5t3.5 50v6.5t-1.5 19.5t-3.5 44.5t-6.5 79.5t-11 125.5t-16.5 183.5q0 15 7.5 25t23.5 10q20 0 33 -5.5t24 -24.5q0 -12 1 -26.5t3 -37t5.5 -56t8 -82t10 -116
t11.5 -157.5q0 -33 -5.5 -68t-19.5 -66.5t-38 -56t-60 -35.5q-6 2 -12 -1t-12 -3q-20 0 -43 4t-45 12t-39.5 21.5t-25.5 31.5zM10 728q0 16 12.5 21.5t24.5 5.5q19 0 36 -11t17 -34q0 -13 -13.5 -18.5t-23.5 -5.5q-7 0 -16 3.5t-17.5 9.5t-14 13.5t-5.5 15.5z" />
    <glyph glyph-name="k" unicode="k" horiz-adv-x="399" 
d="M37 -37q0 5 -1 17t-1.5 25.5t-1 25t-0.5 16.5q-1 28 -0.5 85t1 125.5t1.5 140.5t1 131.5t-0.5 98.5t-2.5 40q0 10 7 20.5t18 8.5q8 0 18.5 -2.5t19.5 -7.5t15.5 -12.5t6.5 -18.5v-292h4l115 131q7 9 13.5 21t13.5 23t16 20t23 12q21 -5 36 -14t15 -32q0 -2 -1.5 -6.5
t-2.5 -6.5q-3 -4 -12.5 -15.5t-31 -38t-58 -70t-93.5 -112.5l9 -5l194 -20q13 -2 23.5 -14.5t10.5 -23.5q0 -20 -14.5 -28.5t-31.5 -10.5q-1 4 -6.5 4.5l-27.5 2.5t-66.5 6.5t-123.5 16.5l4 -238q0 -20 -7 -30.5t-31 -10.5q-18 0 -31.5 11.5t-19.5 26.5z" />
    <glyph glyph-name="l" unicode="l" horiz-adv-x="153" 
d="M31 70q0 42 2 82t2 82q-3 114 -2 223.5t-10 224.5q0 19 9 25.5t27 6.5q23 0 39.5 -13.5t17.5 -37.5q-2 -142 3.5 -281.5t5.5 -282.5v-77q-6 -8 -17 -16t-22 -6q-29 5 -42 23.5t-13 46.5z" />
    <glyph glyph-name="m" unicode="m" horiz-adv-x="581" 
d="M38 326q-2 26 -4.5 52.5t-7.5 52.5q0 22 14.5 28t31.5 6h20q15 -7 21 -17t8 -22t1.5 -25t0.5 -25q1 -5 1 -17t0.5 -25t2 -24t4.5 -14l88 165q6 11 17.5 18.5t25.5 5.5q22 -2 33 -8.5t15.5 -17t5 -25.5t1.5 -33q0 -6 1 -22.5t2.5 -34.5t3 -34t2.5 -22h4q2 7 7.5 27
t12.5 42t13 42t9 28q1 2 4 8.5t6 14t6 14t4 9.5q7 11 14.5 11.5t16.5 0.5q25 0 38.5 -12.5t20 -31.5t9.5 -41.5t7 -41.5q1 0 1 -1.5t-1 -2.5l55 -291q4 -4 4.5 -7t0.5 -8q0 -11 -10.5 -21.5t-21.5 -10.5q-15 0 -34.5 11t-22.5 28l-46 237l-5 8q-2 -5 -8.5 -28.5t-15.5 -59
t-20.5 -79.5t-23.5 -90q-2 -9 -11.5 -13.5t-16.5 -4.5q-21 0 -34 5t-20 15t-10 24t-5 32q0 4 -2 28.5t-4.5 56t-5.5 63.5t-4 51v6v3.5t-1 4t-4 8.5l-29 -69l-46 -169l-10 -62q-1 -6 -5.5 -10.5t-10.5 -7t-12 -3.5t-10 -1q-22 0 -37.5 16t-16.5 35q-1 7 -2 27.5t-3 48.5
t-3.5 59t-3.5 59l-3.5 49t-1.5 28v4v0z" />
    <glyph glyph-name="n" unicode="n" horiz-adv-x="414" 
d="M308 34q-14 20 -23.5 55.5t-18 75t-15.5 77t-14.5 60t-16.5 25.5t-21 -27l-87 -268q-5 -14 -12 -19.5t-23 -5.5q-8 0 -17 2.5t-17 7.5t-13.5 12t-6.5 16q3 12 5.5 44t3.5 74t1.5 88.5t0 87t-1.5 70t-2 38.5q0 10 0.5 20.5t3 19.5t9 14.5t20.5 5.5q19 0 35.5 -16t16.5 -34
q0 -26 -2.5 -51.5t-2.5 -51.5v-27t4 -27q3 8 10 28t15.5 42t15.5 41.5t10 27.5q7 20 21 38.5t37 20.5q15 1 27.5 -8t21.5 -23.5t15 -30t9 -26.5l54 -249l42 -114q1 -1 1 -5.5v-6.5q0 -12 -5.5 -23.5t-19.5 -11.5q-17 0 -35 9.5t-25 24.5z" />
    <glyph glyph-name="o" unicode="o" horiz-adv-x="338" 
d="M26 153l37 257q2 13 11.5 19t21.5 6q22 0 35 -12.5t22 -30.5h1q12 0 21.5 4.5t23.5 4.5q32 0 54.5 -20t36.5 -48.5t20.5 -61.5t6.5 -58q0 -30 -15.5 -67t-41 -70t-57.5 -55t-65 -22q-30 0 -51.5 14t-35 35.5t-19.5 48.5t-6 53v3zM110 147q2 -10 4 -23t6 -23.5t11.5 -16
t21.5 -0.5q13 12 28 27t28.5 32t22.5 36t9 40q4 34 -5 62.5t-25.5 41t-37.5 3t-42 -51.5q-12 -26 -16.5 -60.5t-4.5 -63.5v-3z" />
    <glyph glyph-name="p" unicode="p" horiz-adv-x="422" 
d="M55 180q-19 7 -34.5 17t-15.5 33q0 6 3 8t5 6q2 3 8 11t13 17.5t13 18t8 11.5q0 13 -1.5 31.5t1 35t11.5 28t30 11.5q12 0 20 -8.5t20 -8.5h4q41 32 84.5 56.5t97.5 24.5q35 0 57.5 -20.5t22.5 -57.5q0 -46 -21 -95t-52.5 -95.5t-68 -87.5t-66.5 -71q-3 -4 -9 -8.5
t-11 -9.5q-6 -5 -13 -12l-8 -230q0 -9 -0.5 -19t-4 -18.5t-10 -14t-18.5 -5.5q-6 0 -16 2.5t-19 7.5t-15.5 12t-6.5 16zM148 117h4q1 0 6.5 6t13 14t15 16.5t11.5 13.5q30 22 55 55t40.5 66.5t19 60.5t-9 37.5t-43 -2.5t-82.5 -60q-12 -10 -22 -23t-12 -29z" />
    <glyph glyph-name="q" unicode="q" horiz-adv-x="395" 
d="M266 156q-16 -32 -32 -57.5t-30.5 -43.5t-25.5 -27.5t-17 -7.5q-11 -7 -20.5 -8t-20.5 -1q-26 0 -44.5 12t-30.5 30.5t-17.5 41.5t-5.5 46q0 44 15.5 89t42.5 84t63 69.5t76 46.5q11 4 35 9t49 4.5t44 -8t21 -27.5q0 -11 -3.5 -23.5t-6.5 -22.5q2 -75 -1 -149.5
t-3 -149.5q0 -84 7 -167t7 -167q0 -7 -2.5 -16t-7 -16.5t-11.5 -11.5t-17 -2q-28 -2 -41.5 30t-18 81.5t-3.5 109t3.5 113t3.5 93.5t-4 50zM110 190q-17 -60 -12 -77.5t23 -6t43.5 45t49 74.5t40 83t16.5 71q-30 -12 -54.5 -33t-44 -46.5t-34.5 -54t-27 -56.5z" />
    <glyph glyph-name="r" unicode="r" horiz-adv-x="357" 
d="M68 43q-2 36 -6.5 96.5t-10 125.5t-11.5 123t-10 90q0 13 12 17t23 4q14 0 29.5 -8t19.5 -22q0 -4 1 -14.5t1.5 -21.5t1.5 -21.5t1 -14.5v-9v-5.5t1 -5.5t3 -10q2 2 4.5 5t3.5 4q16 23 31 40.5t31 33t35.5 33t45.5 40.5l9 7.5t5.5 4t5.5 2t8 0.5q17 0 34.5 -11.5
t17.5 -31.5q0 -7 -5 -14.5t-12 -14t-14.5 -11.5t-13.5 -7q-26 -23 -55 -52.5t-54 -63.5t-41 -71t-16 -74q0 -34 5 -67t5 -67v-35q-8 -8 -14 -13t-17 -5q-17 0 -33 14.5t-21 29.5z" />
    <glyph glyph-name="s" unicode="s" horiz-adv-x="412" 
d="M174 38q0 5 0.5 9t4.5 8q12 15 27 31.5t29 33t26 34.5t20 36v6l-131 -27h-15q-14 0 -34.5 2t-40 8.5t-33 18.5t-13.5 32q1 23 24 51t54 55t62.5 50t50.5 36q21 12 50 19.5t53 7.5q20 0 35 -7.5t15 -29.5q0 -9 -1.5 -17t-12.5 -11q-32 3 -60 -4.5t-53 -22.5t-47 -35.5
t-43 -42.5q-6 -7 -15 -19.5t-9 -14.5v-1q26 0 51.5 5t51 10.5t51 10.5t52.5 5q10 0 22 -1.5t22.5 -6.5t17 -13.5t6.5 -21.5q0 -19 -9.5 -36.5t-28 -42t-47 -59.5t-67.5 -90q-2 -3 -9.5 -4t-12.5 -1q-14 0 -28.5 12t-14.5 27z" />
    <glyph glyph-name="t" unicode="t" horiz-adv-x="441" 
d="M119 292q-14 0 -25 -7t-26 -7q-2 0 -10.5 0.5t-10.5 0.5q-4 5 -9 8t-10 6.5t-8.5 8.5t-3.5 14q0 15 12 24.5t28 16.5t32.5 13t26.5 14v44q0 74 -7 148.5t-7 147.5q0 20 10 26t27 6q20 0 29.5 -11.5t13.5 -28t4 -35t1 -31.5q0 -13 2 -46t4 -70t4 -70t3 -46q4 1 15.5 5.5
t24.5 9t24.5 8.5t16.5 6q26 11 54 24.5t57 13.5q20 0 30.5 -13.5t10.5 -31.5q0 -13 -10 -19t-21 -11l-182 -68q-3 -2 -6 -3.5t-6 -4.5v-32q0 -35 1.5 -72.5t6.5 -72.5q5 -30 11 -59t6 -59q0 -9 -6 -24t-19 -15q-27 0 -44 16t-19 43q-5 52 -10.5 114t-10.5 119h-4z" />
    <glyph glyph-name="u" unicode="u" horiz-adv-x="350" 
d="M221 95q-7 -15 -14 -32.5t-16 -31.5t-22 -23.5t-33 -9.5q-35 0 -58 17.5t-37.5 44t-20.5 57.5t-6 58l8 242q-1 7 3.5 14.5t12 14t17 10.5t17.5 4q23 0 39 -14.5t16 -37.5v-10q-11 -18 -19 -47t-12.5 -62.5t-5.5 -68.5t2.5 -64t11.5 -49.5t21 -24.5q5 0 15.5 5t22.5 19
t25 39.5t23 67.5t15 102t3 144q4 11 11.5 12t15.5 1q9 0 15 -0.5t13 -7.5q5 -5 11 -15t6 -11l17 -443q0 -15 -8 -25t-23 -10q-5 0 -12 1t-14 4t-12.5 7.5t-6.5 10.5l-17 100z" />
    <glyph glyph-name="v" unicode="v" horiz-adv-x="388" 
d="M127 143l-110 267q-1 1 -1 2v4q0 9 5.5 15.5t13.5 11.5q2 0 8 0.5t8 0.5q19 0 27.5 -6t22.5 -16q4 -15 10.5 -31t16 -40.5t24.5 -61.5t38 -94l5 -5q3 5 5.5 13t9 28t18.5 58t34 103q8 13 11 30t7 32t12.5 25t26.5 10q17 0 33 -13.5t16 -32.5q0 -9 -6 -19.5t-12 -17.5
l-122 -406h-6q-4 0 -11.5 1t-15.5 3.5t-14 5.5t-7 7l-47 122v4z" />
    <glyph glyph-name="w" unicode="w" horiz-adv-x="507" 
d="M141 48q-6 23 -35 117.5t-81 273.5q0 2 -1.5 8.5t-1.5 8.5q2 12 18 14.5t24 1.5q22 -3 32.5 -14t17.5 -32l58 -191l4 -5q12 20 14 46t5.5 50.5t13.5 44.5t38 28q6 0 13 -2.5t13.5 -7t11.5 -10t7 -11.5l54 -173l11 -15q4 18 10.5 58t13 83.5t11.5 81t7 51.5q0 2 0.5 7
t0.5 7q8 9 22 13.5t25 2.5q4 -1 10.5 -4.5t12.5 -9t9.5 -11.5t3.5 -11l-57 -410q-1 -6 -7 -9.5t-13.5 -6t-15 -3t-11.5 -0.5q-24 9 -41.5 29.5t-31 45.5t-24 51.5t-22.5 47.5l-4 1q-7 -7 -11.5 -31t-7.5 -51t-5 -48.5t-2 -23.5q-2 -14 -18.5 -22t-29.5 -6q-14 2 -24.5 13.5
t-16.5 22.5z" />
    <glyph glyph-name="x" unicode="x" horiz-adv-x="431" 
d="M60 -97q-1 7 5.5 27.5t17 49t22.5 61.5t23.5 63.5t20 55t10.5 37.5q0 2 -0.5 6t-0.5 5q-18 11 -36.5 29.5t-36.5 39t-35 41.5t-32 37v4q0 16 11.5 25t26.5 9q23 0 42.5 -16.5t35 -36t28 -36t21.5 -16.5h4q1 5 4.5 15.5t10.5 32.5t19 58t30 92q2 9 13 11.5t19 2.5
q15 0 27.5 -10t12.5 -27v-6l-70 -240l163 -140l4 -12v-2q0 -17 -12.5 -25t-26.5 -8q-15 0 -36.5 16t-43.5 35t-40.5 35t-27.5 16h-4q-14 -13 -23 -36t-16 -50.5t-14 -56.5t-16.5 -53.5t-22.5 -42.5t-33 -23q-13 0 -28.5 9t-15.5 24z" />
    <glyph glyph-name="y" unicode="y" horiz-adv-x="342" 
d="M223 -275q-2 21 -2.5 51t-0.5 63t0.5 67t2.5 62v36q-5 7 -12 14.5t-24.5 30t-49.5 67t-86 124.5q-21 22 -27 36.5t-4 23.5t10.5 13t16.5 4q20 0 36 -9t29 -23t23.5 -30.5t20.5 -31.5q6 -9 15 -23t18 -27.5t15.5 -23.5l6.5 -10l12 -13v105q0 50 -2 97.5t-2 96.5
q0 14 10 23t24 8q17 -2 25.5 -6t17.5 -16q8 -11 7.5 -26t0.5 -29q4 -95 6.5 -189.5t2.5 -189.5q-1 -9 -1 -36.5t0.5 -62.5t1 -73t1 -69.5t1 -52t1.5 -19.5q0 -15 -10.5 -22t-25.5 -7q-20 0 -29.5 5.5t-14.5 15t-7 21.5t-7 25z" />
    <glyph glyph-name="z" unicode="z" horiz-adv-x="752" 
d="M125 40q0 2 0.5 6t1.5 5l143 271q3 7 7.5 19.5t8.5 25t7 22.5t3 12v11q-33 0 -72 -15.5t-77 -26.5t-71 -5.5t-54 47.5q0 12 14 19.5t23 7.5q2 0 12.5 -2t12.5 -2q29 3 58 12t57.5 18t57 15.5t56.5 4.5q12 0 26.5 -0.5t27 -4t21.5 -12.5t9 -25q0 -14 -4.5 -29t-12.5 -26
l-118 -274v-9l72 34h4l326 102h16q8 0 18.5 -1.5t19.5 -5t15 -10.5t6 -18q2 -13 -16 -23t-51 -19.5t-78.5 -20t-98.5 -26t-111.5 -37.5t-117.5 -54q-3 1 -15 -3t-26.5 -9.5t-28 -10t-19.5 -4.5q-16 0 -34 11.5t-18 29.5z" />
    <glyph glyph-name="braceleft" unicode="{" horiz-adv-x="391" 
d="M156 44q3 40 7.5 80t5.5 80.5t-3 80.5t-19 79q-11 -4 -21.5 -10.5t-21 -12.5t-21.5 -10.5t-23 -4.5q-17 0 -32.5 11t-15.5 31q0 9 10.5 18t24.5 18t27 17t18 14q10 13 11.5 31t1.5 32q-8 38 -10.5 82.5t3 89t19.5 87t38.5 76t60 56t83.5 27.5h19.5t24 -3t20 -10t8.5 -20
q3 -13 -3.5 -19.5t-19 -10t-30 -6t-35.5 -8t-35 -16t-29 -29.5q-29 -41 -38 -85t-8 -89.5t6.5 -92t5.5 -92.5q23 -7 36 -36.5t19 -71t7 -90t0 -93.5t-3 -82t-1 -56q9 0 18 7.5t18 17t18.5 17t20.5 7.5h3q13 -11 15 -14t2 -17q0 -18 -9 -37t-23.5 -34.5t-33 -26t-36.5 -10.5
q-25 0 -40.5 13t-24.5 32t-12 41.5t-3 41.5z" />
    <glyph glyph-name="bar" unicode="|" horiz-adv-x="165" 
d="M22 910q0 20 7.5 24t24.5 4q23 0 33 -9.5t18 -29.5q11 -130 15 -259t7 -260q2 -78 0.5 -158.5t11.5 -158.5q5 -5 5 -10.5v-10.5q0 -20 -14 -31t-31 -11q-11 0 -20 5.5t-16 14.5t-11 19.5t-5 19.5v14.5v24v23.5v14q-2 125 -3 247.5t-5 246.5q-3 71 -10 141t-7 140z" />
    <glyph glyph-name="braceright" unicode="}" horiz-adv-x="296" 
d="M18 -76q0 12 12.5 19t29 12t33 9t24.5 10q29 23 52.5 56t23.5 71q0 18 -10.5 30t-26.5 21t-34.5 18t-35 21t-28.5 29.5t-14 45.5q0 10 4 20.5t9 19.5t9 16t4 10v2l-4 4q-7 7 -8.5 17t-1.5 25q3 37 18 73t30 72.5t25 74.5t4 79q0 5 -1 18t-8.5 26t-24 23t-47.5 10
q-6 3 -15 11t-15 18t-6.5 20.5t9.5 17.5t33.5 8.5t66.5 -4.5q19 0 41 -13t38 -39.5t19.5 -68t-14.5 -98.5l-16 -76t-26 -71q-8 -15 -17 -30.5t-9 -33.5v-4q11 6 22 3t19.5 -11.5t13.5 -20t5 -22.5q-2 -14 -14 -21.5t-25.5 -15t-25 -18t-11.5 -29.5q0 -12 7 -19.5t17 -13
t20.5 -10t17.5 -8.5q15 -8 30.5 -16.5t27.5 -21.5t19.5 -31t7.5 -43q0 -33 -17.5 -69.5t-45.5 -68t-63 -52t-70 -20.5q-8 0 -18 2.5t-19 7.5t-15 12t-6 17z" />
    <glyph glyph-name="asciitilde" unicode="~" horiz-adv-x="408" 
d="M39 502q0 5 0.5 8.5t1.5 8.5q7 21 14.5 42t18 39.5t24 32.5t31.5 20q7 0 13 -1.5t12 -9.5l57 -72q8 -5 13.5 -12t15.5 -7q7 0 13 11t9 16q6 9 10.5 20t10 21t12 16.5t16.5 6.5q11 0 14.5 -9t3.5 -23q0 -21 -7 -44.5t-18.5 -42.5t-25.5 -31.5t-29 -12.5q-18 -1 -34 8
t-30.5 22.5t-28.5 28.5t-27 26q-10 0 -18.5 -14t-16 -30.5t-15 -30t-14.5 -13.5t-16.5 7t-9.5 19z" />
    <glyph glyph-name="uni007F" 
 />
    <glyph glyph-name="exclamdown" unicode="&#xa1;" horiz-adv-x="121" 
d="M26.4453 667.109q0 -8.79199 7.68457 -16.7041q7.68555 -7.91309 14.8584 -13.1875h16.3965q17.4199 0 29.2041 6.59375t11.7842 22.418q0 5.27539 -4.09863 10.9893q-4.09863 5.71484 -10.7598 10.5498q-6.66113 4.83594 -14.8584 7.47363
q-8.19824 2.63672 -15.3711 1.75781q-10.2471 -1.75781 -22.5439 -10.5498q-12.2959 -8.79199 -12.2959 -19.3408zM26.4453 374.352q0 -9.66992 0.511719 -17.1436q0.512695 -7.47266 4.61133 -17.1436v-300.669q0 -2.6377 4.61133 -5.71484t10.2471 -5.71387
q5.63574 -2.6377 11.2725 -4.39648q5.63574 -1.75781 7.68555 -1.75781q17.4199 0 26.1299 10.5498t13.834 21.9785q0 7.0332 -0.512695 23.2979q-0.512695 16.2637 -0.512695 34.2871q0 18.0225 0.512695 34.7266q0.512695 16.7031 0.512695 22.8574
q0 4.39551 0.511719 18.9014q0.512695 14.5068 1.53711 31.6494q1.02539 17.1436 1.53711 32.0898q0.512695 14.9453 0.512695 18.4619q0 4.39551 -0.512695 18.4619q-0.511719 14.0664 -1.02441 30.3311q-0.512695 16.2637 -1.53711 32.0889
q-1.02441 15.8242 -1.02441 22.8574q-2.0498 15.8252 -10.2471 28.1328q-8.19824 12.3086 -29.7168 12.3086q-22.5439 0 -30.7422 -10.5498q-8.19727 -10.5498 -8.19727 -29.8916z" />
    <glyph glyph-name="cent" unicode="&#xa2;" horiz-adv-x="354" 
d="M137 383q2 56 3 87t5 46t11.5 17t21.5 -1q19 -1 26.5 -6t9 -16t0 -30t0.5 -48q21 7 40 4.5t34.5 -16.5t26 -40.5t13.5 -68.5q1 -2 2.5 -6.5t1.5 -6.5q-2 -5 -9 -9t-17 -6t-20 -3t-16 -1q0 5 -2.5 13t-6 17t-8.5 17t-11 14q-2 2 -9 2.5t-16 1.5q-4 -70 -4.5 -126t7.5 -101
q5 1 9.5 3.5t9.5 10.5q6 10 9 18t7.5 13t11.5 8t21 3q16 0 30 -7.5t14 -24.5q0 -29 -28 -59t-65 -52q2 -18 3.5 -35.5t1.5 -20.5q0 -20 -14.5 -27t-31.5 -7q-12 0 -23.5 18.5t-19.5 41.5q-3 -1 -10 -1q-24 0 -46.5 9.5t-39 25.5t-26.5 38t-10 48q-8 30 -1.5 65.5t23 71
t41 68.5t51.5 58zM139 72v17t0.5 19.5t0.5 17v9.5q0 26 -0.5 66t-1.5 86q-11 -27 -18 -55.5t-9 -56.5t3 -54.5t19 -48.5h6z" />
    <glyph glyph-name="sterling" unicode="&#xa3;" horiz-adv-x="521" 
d="M-50 337q0 17 12 24.5t26 10.5l48 5q0 21 0.5 42t0.5 43q0 45 -4.5 90t-4.5 90q0 28 24 42t61.5 17t82 -3t85.5 -17t72.5 -24.5t42.5 -27t-4 -23.5t-67 -14q-39 -6 -78.5 2t-70.5 17t-50.5 13t-19.5 -11q0 -4 2.5 -27t5 -49.5t5 -49t2.5 -26.5v-33v-43l118 12q17 0 32 -6
t15 -26q0 -5 -6.5 -11t-14.5 -11t-17 -8.5t-13 -1.5l-116 -13q2 -18 0 -42.5t-2.5 -53t1.5 -59t11 -60.5q61 35 106 46.5t78 7.5t56 -18t39.5 -29.5t29 -27.5t25.5 -12q5 0 14 -3.5t17.5 -9.5t14.5 -13.5t6 -16.5q0 -23 -25 -40q-10 -4 -28.5 2t-40.5 17t-46 24t-47 23
t-42.5 14t-32.5 -3q-24 -6 -42.5 -13.5t-35.5 -15.5t-35 -17.5t-40 -19.5h-9q-27 0 -40 18t-17 42.5t-3 51t1 43.5q0 39 0.5 78t1.5 78l-46 -5q-13 0 -25.5 8.5t-12.5 22.5z" />
    <glyph glyph-name="currency" unicode="&#xa4;" horiz-adv-x="498" 
d="M46 70q1 5 8.5 18t19 30t26.5 38t30 43q-4 20 -4 45v3l29 202q-9 19 -16.5 36t-15.5 32l1 2v2q5 15 18.5 21t27.5 2q16 -5 26 -15q9 -37 22 -49.5t35 6.5h1q12 0 21.5 4.5t23.5 4.5q6 0 11.5 -1t11.5 -3q11 18 25.5 40.5t34.5 51.5q5 8 16 7.5t19 -2.5q14 -4 24 -16.5
t5 -29.5q0 -1 -0.5 -3t-1.5 -2l-60 -99q17 -30 25 -66.5t8 -64.5q0 -21 -7.5 -45.5t-21.5 -48.5l47 -68v-5q0 -2 0.5 -4t0.5 -3v-2q-5 -16 -19 -21t-28 -1q-11 3 -22 14.5t-23 27.5q-23 -26 -50.5 -42t-55.5 -16q-20 0 -35 5.5t-27 15.5q-20 -35 -43.5 -61.5t-52.5 -25.5
q-6 1 -13 5.5t-12 10.5t-8 13t-1 14zM200 239q2 -10 4 -23t6 -23.5t11.5 -16t21.5 -0.5q13 12 28 27t28.5 32t22.5 36t9 40q4 34 -5 62.5t-25.5 41t-37.5 3t-42 -51.5q-12 -26 -16.5 -60.5t-4.5 -63.5v-3z" />
    <glyph glyph-name="yen" unicode="&#xa5;" horiz-adv-x="446" 
d="M44 292q-2 19 9 26.5t25 11.5q23 8 47 15t59 15v33l-13 12q-3 3 -15 18.5t-26.5 35t-28 39t-20.5 30.5q-5 6 -14 21t-19.5 32t-19 32.5t-11.5 21.5q-5 10 -9 22.5t0 22.5q5 17 19.5 20t28.5 -2q10 -2 19.5 -7.5t15.5 -16.5q23 -51 55.5 -105t70.5 -97l8 11l120 245
q5 11 16 10t20 -3q50 -15 34 -67v-2l-11.5 -18.5t-29 -46t-37 -59.5t-37 -59.5t-29 -46t-11.5 -19.5q-8 -8 -10 -42q53 11 127 28h5q4 0 9.5 -2t11 -5.5t9.5 -7.5t4 -8q0 -13 -7 -24.5t-18 -16.5q-35 -13 -69 -22.5t-69 -18.5q1 -12 1.5 -24t1.5 -25q17 5 32.5 10t30.5 13
q22 7 33.5 9.5t28.5 2.5q13 0 29 -5t18 -20q-1 -4 -5.5 -15.5t-6.5 -13.5t-9.5 -7t-11.5 -7q-34 -5 -67 -19t-65 -28q2 -33 3 -71t-1.5 -70.5t-10 -54.5t-21.5 -22q-18 5 -29 19t-12 33l-6 137q-11 -3 -22 -5t-22 -3q-17 0 -34.5 10.5t-17.5 29.5q20 20 44 32.5t51 21.5v55
q-20 -5 -39.5 -10.5t-39.5 -12.5q-7 0 -17.5 2t-20 6t-16.5 10.5t-8 15.5z" />
    <glyph glyph-name="brokenbar" unicode="&#xa6;" horiz-adv-x="141" 
d="M31 348q4 41 7.5 81.5t5.5 81.5q0 9 -0.5 23.5t2.5 28t11 22t25 7.5q16 -2 25 -13t14 -26q-5 -51 -10 -102.5t-9 -102.5h-71zM94 313q-2 -25 -2 -44.5t0.5 -38t1 -38t0.5 -44.5q0 -24 2.5 -48t2.5 -48q0 -8 -1 -17t-4 -17t-9.5 -13.5t-16.5 -5.5q-18 0 -27 12t-14 27
q-2 23 -2.5 43t-1 39.5t-0.5 39v42.5q0 18 1.5 31t4 24.5t4.5 24.5t4 31h57z" />
    <glyph glyph-name="section" unicode="&#xa7;" horiz-adv-x="495" 
d="M41 15q0 5 0.5 9t4.5 8q28 8 69.5 24.5t80 38.5t64 46.5t21.5 48.5v6l-131 -27h-15q-14 0 -34.5 2t-40 8.5t-33 18.5t-13.5 32q-2 22 11 48t34.5 50t49.5 42.5t58 25.5q-14 2 -27.5 6t-24.5 10.5t-18 17t-7 24.5q1 23 24 51t54 55t62.5 50t50.5 36q21 12 50 19.5t53 7.5
q20 0 35 -7.5t15 -29.5q0 -9 -1.5 -17t-12.5 -11q-32 3 -60 -4.5t-53 -22.5t-47 -35.5t-43 -42.5q-6 -7 -15 -19.5t-9 -14.5v-1q26 0 51.5 5t51 10.5t51 10.5t52.5 5q10 0 22 -1.5t22.5 -6.5t17 -13.5t6.5 -21.5q8 -28 -0.5 -53t-29 -47t-50.5 -42t-65 -39h1q10 0 22 -1.5
t22.5 -6.5t17 -13.5t6.5 -21.5q12 -41 -11 -75.5t-66 -64.5t-98.5 -57t-109.5 -54q-2 -3 -9.5 -4t-12.5 -1q-14 0 -28.5 12t-14.5 27zM344 384q-49 16 -87.5 3t-66.5 -38t-44.5 -52.5t-21.5 -40.5q16 -10 50.5 -1t70.5 29.5t65 47t34 52.5z" />
    <glyph glyph-name="dieresis" unicode="&#xa8;" horiz-adv-x="302" 
d="M40 710q0 14 10.5 26t24.5 12q17 0 27.5 -9t20.5 -20v-3q0 -17 -11.5 -30.5t-30.5 -13.5q-13 0 -27 12t-14 26zM169 710q0 14 10.5 26t24.5 12q17 0 27.5 -9t20.5 -20v-3q0 -17 -11.5 -30.5t-30.5 -13.5q-13 0 -27 12t-14 26z" />
    <glyph glyph-name="copyright" unicode="&#xa9;" horiz-adv-x="716" 
d="M201 220q-7 30 0.5 71t24 82.5t41 78.5t52 59t56 24.5t54.5 -25.5q0 -1 1 -5t2 -16.5t1.5 -35t0.5 -61.5q1 -2 2.5 -6.5t1.5 -6.5q-3 -11 -11.5 -20.5t-21.5 -9.5q-17 0 -27.5 5.5t-15.5 26.5q2 3 1 12.5t-3.5 21.5t-4.5 24t-2 19q-1 0 -2.5 -1.5l-2.5 -2.5
q-17 -30 -31.5 -66.5t-22 -74t-5 -74.5t21.5 -67q14 0 26 11.5t20 21.5q17 20 33.5 41t30.5 44q6 10 9 18t7.5 13t11.5 8t21 3q16 0 30 -7.5t14 -24.5q0 -23 -20.5 -57.5t-50 -66.5t-62.5 -54.5t-58 -22.5q-24 0 -46.5 9.5t-39 25.5t-26.5 38t-10 48zM66 201q-2 9 -1.5 37
t5 67t15 84.5t29 90.5t46.5 85.5t68 68t93 38t122 -2.5q28 -1 52 -18t44 -42.5t35.5 -55.5t26.5 -56q7 -20 14 -55.5t12.5 -74.5t9 -75t3.5 -57q0 -30 -17.5 -70.5t-46 -76.5t-66 -61t-76.5 -25q-10 0 -37.5 -3t-64 -2.5t-77 8.5t-78 30t-67.5 62t-44 104zM163 134
q9 -19 33 -30.5t53.5 -18t61.5 -8t58 -1.5t43 1t16 1h8q21 19 43.5 40t41.5 44.5t31 49t12 52.5q0 12 -5.5 40.5t-14.5 65t-21 75.5t-25.5 71.5t-26.5 53.5t-25 22q-34 10 -76 3t-83.5 -30t-77 -62t-55.5 -93t-20.5 -123t29.5 -153z" />
    <glyph glyph-name="ordfeminine" unicode="&#xaa;" horiz-adv-x="279" 
d="M176.906 427.738q-6.00879 -8.01367 -13.6855 -19.2832q-7.67773 -11.2686 -16.3564 -24.041q-8.67871 -12.7715 -19.0264 -25.543q-10.3486 -12.7715 -21.3633 -23.29q-11.0156 -10.5176 -23.0332 -17.7803q-12.0166 -7.2627 -24.7012 -8.76465
q-5.34082 0 -12.0166 0.750977t-13.3516 2.50391q-6.67676 1.75391 -11.0156 5.00879q-4.33984 3.25586 -4.33984 8.76465q0.667969 51.0879 10.0146 92.9092q9.3457 41.8213 29.374 73.625q20.0283 31.8047 51.4053 52.8408q31.3779 21.0352 76.1074 30.0508
q1.33496 0 5.00684 0.250977q3.67188 0.25 5.00684 0.25q20.0283 0.500977 29.041 -13.7734q9.01172 -14.2744 13.3516 -45.0771t6.00879 -79.1348t7.00977 -115.947q2.00293 -5.50977 2.33594 -9.5166q0.333984 -4.00684 0.333984 -9.5166q0 -7.5127 -6.00781 -11.2686
q-6.00879 -3.75684 -15.3555 -3.75684q-19.3604 0 -27.3711 8.01367q-8.01172 8.01367 -10.6816 21.5371q0 0.5 -1.00195 8.01367q-1.00098 7.5127 -2.66992 17.2793t-3.00488 19.7832q-1.33496 10.0176 -2.00195 16.5283v2.00391q-1.33594 5.00879 -1.66992 12.5215
q-0.333008 7.5127 -1.66895 14.5244q-1.33496 8.51465 -2.00293 17.0293zM162.219 526.907q-18.0254 -10.0166 -35.3828 -27.0459t-24.7012 -33.0566q-3.33789 -7.5127 -7.34375 -20.5352q-4.00586 -13.0215 -7.00977 -25.7939q-3.00391 -12.7715 -5.00684 -23.54
q-2.00293 -10.7676 -2.00293 -13.7734q0.667969 0 1.66895 1.00195t1.66895 1.50293q41.3916 30.0508 58.415 64.8604q17.0244 34.8096 19.6943 76.3799z" />
    <glyph glyph-name="guillemotleft" unicode="&#xab;" horiz-adv-x="840" 
d="M224 223q-2 1 -12 5t-22 9t-22 9t-12 5t-12.5 6t-14.5 7q-11 5 -22.5 12t-19 15.5t-9.5 20t5 25.5q6 13 17 16.5t24 10.5q5 2 17.5 8t26 12.5t25.5 13t17 9.5q8 8 17 10.5t17 9.5l166 104q10 6 18 14.5t16 15.5t17.5 10t21.5 -3q20 -10 26 -30t-2 -39q0 -2 -3.5 -5
t-5.5 -5l-199 -124q-9 -8 -23 -14t-28 -12.5t-26 -14t-17 -17.5q59 -28 113 -58t110 -64q0 -7 4.5 -12.5t8.5 -11t5.5 -12.5t-2.5 -16q-8 -17 -22.5 -21.5t-31.5 3.5q-12 6 -17.5 14t-16.5 15q-30 24 -63.5 43t-68.5 36zM467 212q-2 1 -12 5t-22 9t-22 9t-12 5t-12.5 6
t-14.5 7q-11 5 -22.5 12t-19 15.5t-9.5 20t5 25.5q6 13 17 16.5t24 10.5q5 2 17.5 8t26 13t25.5 13t17 9q8 8 17 10.5t17 9.5l166 104q10 6 18 14.5t16 15.5t17.5 10t22.5 -3q20 -10 25.5 -30t-2.5 -39q0 -2 -3.5 -5t-5.5 -5l-199 -124q-9 -8 -23 -14l-28 -12t-26 -13.5
t-17 -17.5q59 -29 113 -58.5t110 -64.5q0 -7 4.5 -12.5t8.5 -11t5.5 -12.5t-2.5 -16q-8 -17 -22.5 -21.5t-31.5 3.5q-12 6 -17.5 14.5t-16.5 14.5q-30 24 -63.5 43t-68.5 36z" />
    <glyph glyph-name="logicalnot" unicode="&#xac;" horiz-adv-x="558" 
d="M60 371q0 17 12 24.5t26 10.5l368 34q17 0 32 -6t15 -26q0 -2 -1 -6.5t-1.5 -21.5t1 -51.5t6.5 -95.5q0 -17 -6 -32t-26 -15q-5 0 -11 6.5t-11 14.5t-8.5 16.5t-1.5 13.5l-9 137l-347 -34q-13 0 -25.5 8.5t-12.5 22.5z" />
    <glyph glyph-name="uni00AD" unicode="&#xad;" horiz-adv-x="329" 
d="M41 234v80h248v-80h-248z" />
    <glyph glyph-name="registered" unicode="&#xae;" horiz-adv-x="647" 
d="M43 230q-2 9 -1.5 37t5 67t15 84.5t29 90.5t46.5 85.5t68 68t93 38t122 -2.5q28 -1 52 -18t44 -42.5t35.5 -55.5t26.5 -56q7 -20 14 -55.5t12.5 -74.5t9 -75t3.5 -57q0 -30 -17.5 -70.5t-46 -76.5t-66 -61t-76.5 -25q-11 0 -38 -3t-63.5 -2.5t-77 8.5t-78 30t-67.5 62
t-44 104zM191 292q-4 6 -5.5 9.5t-1.5 8.5q0 4 1 7t1 7q0 10 -0.5 18t-1.5 18q-2 3 -11 5t-9 13q0 5 3 9t6 7t6 7t3 9q-1 5 -1.5 20.5t-0.5 20.5v2q4 8 14.5 11.5t19.5 3.5q11 0 16 -3.5t7.5 -8t3 -8.5t2.5 -5q9 15 25.5 33t35 32t38.5 22.5t36.5 6t27.5 -19.5t13 -53
q0 -32 -13 -57.5t-35 -44.5t-50.5 -31t-59.5 -16l251 -13q5 -1 12.5 -0.5t15.5 -1.5q-1 16 -7 45.5t-15.5 65t-21 72.5t-24 67.5t-25.5 50t-24 20.5q-34 10 -76 3t-83.5 -30t-77 -62t-55.5 -93t-20.5 -123t29.5 -153q9 -19 33 -30.5t53.5 -18t61.5 -8t58 -1.5t43 1t16 1h8
q16 15 34 31.5t34.5 34.5t30 37t21.5 40q-16 -4 -37.5 -5.5t-53.5 1.5t-77.5 11.5t-110.5 24.5q-1 -1 -1 -2q-1 -1 -1 -2q0 -8 1 -20.5t2.5 -26.5t2.5 -26.5t1 -20.5q0 -6 -3.5 -13.5t-13.5 -7.5q-3 0 -10 0.5t-14.5 1.5t-13 3t-6.5 5zM243 391q0 -11 0.5 -21t1.5 -21h1
q1 0 3 1t10.5 5.5t25.5 14.5t49 28q6 3 13 10.5t13.5 16t10.5 17t4 13.5t-5 5h-8q-8 0 -18 -2t-24 -8.5t-33 -19t-44 -32.5v-7z" />
    <glyph glyph-name="macron" unicode="&#xaf;" horiz-adv-x="406" 
d="M24 714q0 17 12 24.5t26 10.5l251 25q17 0 32 -6t15 -26q0 -5 -6.5 -11t-14.5 -11t-17 -8.5t-13 -1.5l-247 -27q-13 0 -25.5 8.5t-12.5 22.5z" />
    <glyph glyph-name="degree" unicode="&#xb0;" horiz-adv-x="279" 
d="M122 609q8 0 14.5 2t15.5 2q21 0 36 -9t24.5 -21.5t13.5 -27t4 -25.5q0 -13 -10.5 -29.5t-27 -30.5t-38 -24t-43.5 -10q-23 1 -46 12.5t-30 33t10.5 53.5t75.5 74h1zM172 532q-1 25 -13.5 31.5t-27.5 0.5t-27 -20.5t-13 -31.5q5 -15 18.5 -18.5t27.5 1t25 15t10 22.5z
" />
    <glyph glyph-name="plusminus" unicode="&#xb1;" horiz-adv-x="437" 
d="M42 75q0 17 12 24.5t26 10.5l100 10q1 25 -1 51t-8 51h-4q-15 0 -24.5 -2t-18.5 -4.5t-19.5 -4.5t-25.5 -2q-34 0 -34 35q0 21 16 28t37.5 9.5t42.5 3.5t30 9l16 181q2 17 8 20t20 3q2 0 7.5 -0.5t7.5 -0.5q8 -6 14 -17v-36q0 -34 -2 -67t-2 -67h4l110 15q8 -2 14.5 -3
t11.5 -3.5t8 -8t3 -16.5v-3q-9 -9 -20 -12.5t-27.5 -7.5t-40.5 -9.5t-59 -17.5q-5 -2 -5 -5.5v-7.5q0 -26 4 -52t5 -52l83 8q17 0 32 -6t15 -26q0 -5 -6.5 -11t-14.5 -11t-17 -8.5t-13 -1.5l-247 -27q-13 0 -25.5 8.5t-12.5 22.5z" />
    <glyph glyph-name="twosuperior" unicode="&#xb2;" horiz-adv-x="305" 
d="M55.6465 259.985q0 4.41797 0.871094 6.62695q0.87207 2.20898 4.3584 7.17871q15.6885 23.1953 31.667 46.665q15.9795 23.4707 29.0527 48.0459q13.0742 24.5742 21.209 50.5303t8.13477 54.1201q-17.4316 0 -30.7959 -9.94043t-25.5664 -22.0898t-23.8232 -22.0898
t-24.9854 -9.94043q-4.06738 0 -8.71582 0.828125t-8.71582 2.76172q-4.06738 1.93262 -6.97266 5.52246q-2.90527 3.58887 -2.90527 8.55957v1.10449q3.48633 7.17871 9.87793 14.082t13.9453 13.2539t15.1074 11.874q7.55371 5.52148 13.3643 9.93945
q8.13477 6.62695 18.5938 13.8066t21.7891 13.5303q11.3311 6.35059 23.5332 10.4922t24.4043 4.1416q20.918 0 29.0527 -12.4248q8.13477 -12.4258 8.13477 -31.7549q0 -36.4473 -13.0742 -71.5156q-13.0732 -35.0674 -31.667 -66.5449v-2.20898l-15.1074 -25.4043h5.22949
q24.4043 13.2539 52.5859 22.3662q28.1807 9.1123 55.4902 15.1865h2.32422q10.459 0 17.4316 -3.3125q6.97266 -3.31445 6.97266 -15.4629q0 -8.28418 -4.64844 -14.3594q-4.64844 -1.10352 -11.9121 -3.3125q-7.2627 -2.20898 -12.4922 -1.10547l-56.9434 -19.3281
l-92.9688 -46.3887q-9.29688 -4.41797 -18.5938 -4.41797q-8.13477 0 -15.6885 6.35059t-7.55371 14.6348z" />
    <glyph glyph-name="threesuperior" unicode="&#xb3;" horiz-adv-x="224" 
d="M83.2832 276.44q0 4.84082 0.707031 7.7998q0.706055 2.95801 5.41504 5.64746q0.470703 0.538086 2.35449 0.806641q1.88281 0.269531 4.00195 0.807617q2.11914 0.537109 3.76758 0.806641q1.64844 0.268555 2.11914 0.268555q2.8252 0.538086 6.35645 2.95898
q3.53223 2.41992 7.06348 5.37891q3.53125 2.95801 6.35742 5.64746q2.8252 2.68945 4.2373 3.76562q13.6562 13.4473 18.6006 29.585q4.94434 16.1367 4.94434 36.0391v7.53125q0 4.84082 -0.235352 9.95117q-0.236328 5.10938 -1.64844 9.14355
q-1.41309 4.03516 -4.23828 5.64844q-0.941406 0.538086 -4.47363 0.538086h-4.47266q-10.8311 0 -20.4844 -5.11035q-9.65234 -5.11035 -18.835 -11.2959t-18.8359 -11.2959q-9.65234 -5.11035 -20.9541 -5.11035q-7.53418 0 -11.7725 5.64844
q-4.2373 5.64746 -4.2373 13.7158q0 8.60645 8.94629 23.1299q8.94727 14.5234 20.248 30.6611q11.3018 16.1367 22.1318 32.0049q10.8311 15.8682 15.0684 27.1641h-3.7666q-10.8311 0 -19.7773 -5.11035q-8.94727 -5.10938 -16.9521 -11.0264t-15.7744 -11.0273
t-16.2461 -5.11035q-6.12109 0 -12.7139 3.49707q-6.5918 3.49609 -6.5918 12.6406q0 7.53027 7.0625 15.3301q7.06348 7.7998 18.3652 14.5234q11.3008 6.72363 25.1924 12.6406q13.8906 5.91699 27.3115 10.2197q13.4199 4.30371 24.7217 6.72363
q11.3008 2.4209 17.4219 2.4209q17.4229 0 17.4229 -20.9785v-6.99219q-8.00488 -24.2061 -19.3057 -43.3018q-11.3018 -19.0947 -22.6025 -40.6113h4.70898q6.5918 0 12.0068 1.07617q5.41602 1.0752 12.0078 1.0752q18.8359 0 29.666 -13.7158
q10.8301 -13.7168 15.5391 -33.6191q0 -2.68945 0.235352 -11.0273q0.235352 -8.33691 0.235352 -10.4893q0 -36.0391 -13.1846 -61.5898q-13.1846 -25.5498 -39.083 -45.9902q-13.1855 -11.834 -28.7246 -11.834q-7.53418 0 -13.4199 6.18555
q-5.88672 6.18652 -5.88672 14.2549z" />
    <glyph glyph-name="acute" unicode="&#xb4;" horiz-adv-x="250" 
d="M87 629q-3 26 4.5 41t20 27t27.5 25t29 36q15 12 28 8t24 -21q6 -9 5.5 -16.5t-4.5 -15t-9.5 -13.5t-9.5 -12q-8 -10 -23 -27.5t-32 -31t-33.5 -16.5t-26.5 16z" />
    <glyph glyph-name="mu" unicode="&#xb5;" horiz-adv-x="449" 
d="M129 95l-26 -167q-3 -12 -10 -16.5t-15 -5.5t-15.5 -1t-11.5 -1q-18 0 -27.5 10t-9.5 26l25 522q0 1 7.5 11.5t12.5 15.5q8 7 15 7.5t18 0.5q10 0 18.5 -1t13.5 -12q-3 -87 3.5 -149.5t18 -105.5t26.5 -69.5t29.5 -41t26.5 -19.5t18 -5q15 5 25 25.5t14 49.5t3.5 64
t-5.5 69t-14.5 63.5t-22.5 47.5v11q0 24 19 38.5t46 14.5q20 0 29 -14.5t6 -28.5l42 -227q6 -23 14 -52t13.5 -58t7.5 -54.5t-2.5 -42t-18 -20t-37.5 10.5q-8 4 -10 20t-3 31.5t-1.5 25t-5.5 1.5q-17 -26 -44.5 -44t-67.5 -18q-23 0 -38.5 9.5t-26 24.5t-18.5 32.5t-17 33.5
z" />
    <glyph glyph-name="paragraph" unicode="&#xb6;" horiz-adv-x="452" 
d="M330 53q-2 23 -2.5 43t-1 39.5t-0.5 39v42.5q0 39 4 91.5t9 107.5t10 107.5t7 91.5v7q-23 -3 -42 -7.5t-19 -10.5q0 -74 -8 -147.5t-13 -148.5q-5 -71 -7.5 -141t-9.5 -141q-7 -14 -15 -20t-25 -6t-29.5 13.5t-10.5 29.5q0 1 1 8.5t2.5 16t3 15.5t1.5 9q0 1 0.5 9
t1.5 18.5t1.5 21t0.5 16.5q5 79 11.5 158.5t6.5 159.5v19q-15 -12 -27 -28.5t-25 -32.5t-29 -27.5t-38 -13.5q-21 -2 -35.5 5.5t-24 20.5t-13.5 30t-4 35q0 55 17 93.5t45.5 64.5t65.5 40t78 19.5t83 3.5t80 -9q4 1 14 1q18 -3 29 -19q18 -13 9 -29q-5 -51 -11 -114
t-11.5 -129t-9 -129t-3.5 -113q0 -24 2.5 -48t2.5 -48q0 -8 -1 -17t-4 -17t-9.5 -13.5t-16.5 -5.5q-18 0 -27 12t-14 27z" />
    <glyph glyph-name="periodcentered" unicode="&#xb7;" horiz-adv-x="129" 
d="M25 284q0 14 10.5 26t24.5 12q17 0 27.5 -9t20.5 -20v-3q0 -17 -11.5 -30.5t-30.5 -13.5q-13 0 -27 12t-14 26z" />
    <glyph glyph-name="cedilla" unicode="&#xb8;" horiz-adv-x="414" 
d="M113 -270q0 5 0.5 9t4.5 8q12 15 34.5 20t46 8.5t43.5 10.5t28 28q8 18 -2.5 26t-28.5 10t-36 0.5t-25 -2.5q-14 0 -34.5 2t-40 8.5t-33 18.5t-13.5 32q6 33 20 60t31.5 45t35 25.5t30 2t16.5 -26t-6 -57.5q-6 -7 -15 -19.5t-9 -14.5v-1q26 -5 58 -3.5t62.5 -1.5t57 -17
t42.5 -51q9 -42 -1 -64.5t-37 -36t-69 -24t-95 -29.5q-2 -3 -9.5 -4t-12.5 -1q-14 0 -28.5 12t-14.5 27z" />
    <glyph glyph-name="onesuperior" unicode="&#xb9;" horiz-adv-x="141" 
d="M25.6641 316.095q-1.53125 11.5576 -1.91406 21.6084q-0.382812 10.0498 -0.764648 19.8486q-0.382812 9.79883 -0.382812 19.5977v21.3564q0 39.1953 6.50488 77.6367q6.50586 38.4414 9.56641 77.6357q0 4.52246 -0.382812 11.8096q-0.381836 7.28613 1.91406 14.0693
q2.2959 6.78418 8.41797 11.0557q6.12305 4.27148 19.1328 3.76855q12.2451 -1.00488 19.1338 -6.53223q6.8877 -5.52734 10.7139 -13.0654q-7.65332 -50.7529 -14.1582 -101.254q-6.50488 -50.502 -6.50488 -102.26q0 -12.0596 1.91309 -24.1201
q1.91309 -12.0596 1.91309 -24.1201q0 -4.01953 -0.765625 -8.54199q-0.764648 -4.52246 -3.06055 -8.54297q-2.2959 -4.01953 -7.27051 -6.7832q-4.97461 -2.76465 -12.6279 -2.76465q-13.7764 0 -20.6641 6.03027t-10.7139 13.5674z" />
    <glyph glyph-name="ordmasculine" unicode="&#xba;" horiz-adv-x="207" 
d="M25.5811 307.777l19.3262 115.527q1.04492 5.84375 6.00684 8.54102q4.96289 2.69727 11.2305 2.69727q11.4912 0 18.2822 -5.61914q6.79004 -5.61914 11.4912 -13.7109h0.522461q6.26758 0 11.2305 2.02344q4.96191 2.02246 12.2744 2.02246q16.7148 0 28.4678 -8.99023
t19.0654 -21.8018t10.708 -27.6455q3.39453 -14.835 3.39453 -26.0723q0 -13.4863 -8.0957 -30.1182q-8.09668 -16.6328 -21.416 -31.4668q-13.3193 -14.835 -30.0342 -24.7236q-16.7148 -9.88965 -33.9521 -9.88965q-15.6709 0 -26.9004 6.29297
q-11.2305 6.29297 -18.2822 15.958t-10.1855 21.8018q-3.13379 12.1377 -3.13379 23.8252v1.34863zM69.457 305.08q1.04492 -4.49512 2.08984 -10.3389t3.13379 -10.5645q2.08887 -4.71973 6.00684 -7.19238q3.91797 -2.47168 11.2305 -0.224609
q6.79004 5.39453 14.625 12.1377q7.83594 6.74219 14.8867 14.3848q7.05176 7.6416 11.7529 16.1826t4.70117 17.9805q2.08887 15.2842 -2.6123 28.0957q-4.7002 12.8115 -13.3193 18.4307q-8.61816 5.61914 -19.5879 1.34863q-10.9688 -4.27051 -21.9375 -23.1504
q-6.26855 -11.6875 -8.61914 -27.1963t-2.35059 -28.5449v-1.34863z" />
    <glyph glyph-name="guillemotright" unicode="&#xbb;" horiz-adv-x="659" 
d="M106 109q0 7 4.5 14t11 13t13.5 11t13 8l160 224q4 6 4 11v3l-274 105q-2 0 -5.5 4.5t-7 10.5t-6.5 11.5t-3 7.5q-1 7 5.5 12.5t15 9t17.5 5t12 1.5q39 -23 80.5 -39t84 -30.5t85.5 -28.5t85 -33q7 -9 10 -14.5t3 -13.5q0 -20 -13.5 -34t-24.5 -30q-24 -34 -44.5 -65.5
t-41.5 -62t-45.5 -60.5t-55.5 -61q-2 -3 -11.5 -9t-13.5 -8q-8 -2 -18 0t-19 7t-15 13t-6 18zM294 142q0 7 4.5 14t11 13t13.5 11t13 8l160 224q4 6 4 11v3l-274 105q-2 0 -5.5 4.5t-7 10.5t-6.5 11.5t-3 7.5q-1 7 5.5 12.5t15 9t17.5 5t12 1.5q39 -23 80.5 -39t84 -30.5
t85.5 -28.5t85 -33q7 -9 10 -14.5t3 -13.5q0 -20 -13.5 -34t-24.5 -30q-24 -34 -44.5 -65.5t-41.5 -62t-45.5 -60.5t-55.5 -61q-2 -3 -11.5 -9t-13.5 -8q-8 -2 -18 0t-19 7t-15 13t-6 18z" />
    <glyph glyph-name="onequarter" unicode="&#xbc;" horiz-adv-x="558" 
d="M26.5195 291.751q-1.81641 12.5596 -2.27051 23.4814t-0.907227 21.5703q-0.454102 10.6484 -0.454102 21.2969v23.209q0 42.5938 7.71875 84.3691q7.71973 41.7754 11.3516 84.3701q0 4.91504 -0.454102 12.833t2.27051 15.29t9.98926 12.0137
q7.26562 4.6416 22.7041 4.0957q14.5303 -1.0918 22.7031 -7.09863q8.17383 -6.00781 12.7139 -14.1982q-9.08105 -55.1543 -16.7998 -110.036q-7.71973 -54.8809 -7.71973 -111.127q0 -13.1064 2.27051 -26.2119q2.27051 -13.1064 2.27051 -26.2119
q0 -4.36914 -0.908203 -9.2832q-0.908203 -4.91504 -3.63281 -9.28418q-2.72461 -4.36816 -8.62695 -7.37207q-5.90332 -3.00293 -14.9844 -3.00293q-16.3467 0 -24.5205 6.55273q-8.17285 6.55273 -12.7139 14.7441zM57.249 -73.0439q5.0625 39.7969 13.1621 75.0342
q8.09961 35.2363 17.2119 75.0332v6.63281l144.78 612.706q3.03711 14.0947 11.1367 19.4834q8.09961 5.38965 25.3115 5.38965h2.02441q19.2373 -8.29102 24.8057 -13.6807q5.56836 -5.38867 5.56836 -21.9707q0 -9.94922 -3.03711 -20.7275
q-3.03809 -10.7783 -5.0625 -20.7275q-1.0127 -2.4873 -3.54395 -11.6074t-5.56836 -19.8984t-5.56836 -19.8984t-3.54395 -11.6074v-3.31641l-114.406 -469.271q-9.1123 -47.2588 -19.7432 -94.1035q-10.6309 -46.8438 -18.7305 -94.1025
q-3.03711 -9.94922 -12.6553 -14.5088q-9.61914 -4.56055 -20.7559 -4.56055t-21.2617 6.21875q-10.124 6.21777 -10.124 16.9961v2.4873zM395.283 173.019h-3.13086q-16.4365 0 -32.4824 -2.74316q-16.0449 -2.74316 -32.0908 -6.17188t-32.0918 -6.17188
t-32.4824 -2.74316h-3.13086q-8.61035 5.48633 -16.8281 13.7158q-8.21875 8.22949 -6.65332 18.5156q0.783203 4.11523 7.82715 9.25879t9.39258 8.57227q0.782227 1.37207 4.69629 7.20117t8.21875 12.6865q4.30469 6.8584 8.21875 12.6875
q3.91309 5.8291 5.47852 7.20117q0 2.74219 3.13086 2.74219l72.793 110.413q0 0.685547 1.17383 1.37109q1.17383 0.686523 1.95703 1.37207q2.34766 2.74316 7.82617 8.91504q5.47949 6.17188 11.7412 13.0303q6.26172 6.85742 11.7412 13.0293
q5.47852 6.17285 7.82617 8.91602q3.91406 4.80078 8.61035 5.48633t10.958 0.685547q5.47852 0 11.7402 -1.37109q6.26172 -1.37207 11.7412 -4.11523t9.39258 -7.54395q3.91309 -4.7998 3.91309 -10.9727v-145.388q14.0898 0 25.4385 6.51562
q11.3496 6.51465 26.2217 6.51465q27.3945 0 27.3945 -25.374q0 -5.48633 -1.95703 -10.9727t-8.21875 -7.54395l-68.8789 -23.3174v-2.05664q0 -38.4043 8.21875 -76.123t8.21875 -74.751q0 -10.9727 -6.26172 -20.2314q-6.26172 -9.25781 -19.5684 -9.25781
q-4.69531 0 -9.00098 0.342773q-4.30469 0.342773 -8.21777 2.40039q-3.91406 2.74316 -10.1758 8.22949t-6.26172 6.85742v5.48633zM328.753 210.737q3.13086 0 10.5664 1.37207q7.43652 1.37109 16.0459 2.74219q8.60938 1.37207 16.0459 2.40039
q7.43555 1.0293 11.3486 1.71484q0.783203 0.685547 4.30566 1.71484q3.52246 1.02832 5.08691 1.71387q0.783203 0 1.95703 1.37207q1.17383 1.37109 1.17383 2.05664v85.7246l-3.13086 4.11426l-63.3994 -99.4395v-5.48633z" />
    <glyph glyph-name="onehalf" unicode="&#xbd;" horiz-adv-x="601" 
d="M26.0107 257.105q-1.4082 13.9844 -1.76074 26.1455q-0.351562 12.1602 -0.703125 24.0166q-0.352539 11.8574 -0.352539 23.7139v25.8408q0 47.4268 5.98535 93.9414q5.98438 46.5146 8.80078 93.9404q0 5.47266 -0.351562 14.2891q-0.352539 8.81641 1.75977 17.0254
q2.1123 8.20801 7.74512 13.376q5.63281 5.16895 17.6025 4.56055q11.2656 -1.21582 17.6025 -7.9043t9.85742 -15.8086q-7.04102 -61.4121 -13.0264 -122.519q-5.98438 -61.1074 -5.98438 -123.735q0 -14.5918 1.75977 -29.1855q1.76074 -14.5918 1.76074 -29.1855
q0 -4.86328 -0.704102 -10.3359t-2.81641 -10.3369t-6.68945 -8.20801q-4.57617 -3.34473 -11.6172 -3.34473q-12.6738 0 -19.0107 7.29688q-6.33691 7.2959 -9.85742 16.417zM84.4277 -33.9072q4.35742 34.6055 11.3281 65.2451q6.97168 30.6406 14.8145 65.2461v5.76758
l124.609 532.78q2.61426 12.2559 9.58594 16.9424q6.9707 4.68555 21.7852 4.68555h1.74219q16.5566 -7.20898 21.3496 -11.8955t4.79297 -19.1045q0 -8.65234 -2.61426 -18.0244t-4.35742 -18.0234q-0.871094 -2.16309 -3.0498 -10.0928
q-2.17871 -7.93066 -4.79297 -17.3027q-2.61426 -9.37305 -4.79199 -17.3027q-2.17871 -7.93066 -3.05078 -10.0938v-2.88379l-98.4678 -408.056q-7.84277 -41.0947 -16.9922 -81.8281t-16.1211 -81.8271q-2.61426 -8.65137 -10.8926 -12.6172
q-8.27832 -3.96484 -17.8633 -3.96484q-9.58594 0 -18.2998 5.40723t-8.71387 14.7793v2.16309zM300.686 49.3086q0 5.53809 1.12793 8.30762q1.12891 2.76953 5.6416 9q20.3115 29.0771 40.998 58.501q20.6875 29.4238 37.6133 60.2324t27.457 63.3477
q10.5322 32.5391 10.5322 67.8477q-22.5674 0 -39.8701 -12.4619q-17.3018 -12.4619 -33.0986 -27.6934q-15.7979 -15.2314 -30.8428 -27.6924q-15.0449 -12.4619 -32.3477 -12.4619q-5.26562 0 -11.2832 1.03809q-6.01855 1.03906 -11.2842 3.46191t-9.02734 6.92285
q-3.76074 4.5 -3.76074 10.7314v1.38477q4.51367 9 12.7881 17.6543q8.27441 8.65332 18.0537 16.6152t19.5596 14.8848q9.7793 6.92383 17.3018 12.4619q10.5312 8.30762 24.0723 17.3086q13.54 9 28.209 16.9609q14.6699 7.96191 30.4668 13.1543
q15.7979 5.19238 31.5947 5.19238q27.0811 0 37.6133 -15.5771q10.5312 -15.5771 10.5312 -39.8086q0 -45.6934 -16.9258 -89.6553q-16.9258 -43.9629 -40.998 -83.4248v-2.76953l-19.5586 -31.8467h6.77051q31.5947 16.6162 68.0791 28.0391t71.8408 19.0391h3.00879
q13.541 0 22.5684 -4.1543q9.02637 -4.15332 9.02637 -19.3848q0 -10.3848 -6.01758 -18q-6.01855 -1.38477 -15.4219 -4.1543q-9.40234 -2.76953 -16.1729 -1.38477l-73.7217 -24.2314l-120.361 -58.1543q-12.0361 -5.53906 -24.0723 -5.53906q-10.5312 0 -20.3105 7.96191
t-9.7793 18.3467z" />
    <glyph glyph-name="threequarters" unicode="&#xbe;" horiz-adv-x="693" 
d="M115.286 246.635q0 5.36035 1.03027 8.63672q1.03027 3.27539 7.90039 6.25391q0.686523 0.595703 3.43457 0.893555q2.74707 0.297852 5.83887 0.893555q3.09082 0.595703 5.49512 0.893555q2.40527 0.297852 3.0918 0.297852q4.12207 0.595703 9.27344 3.27539
q5.15234 2.68066 10.3047 5.95703q5.15234 3.27539 9.27344 6.25391q4.12207 2.97852 6.18262 4.16992q19.9219 14.8906 27.1348 32.7598t7.21289 39.9082v8.33887q0 5.36133 -0.34375 11.0195q-0.342773 5.6582 -2.4043 10.126q-2.06055 4.4668 -6.18262 6.25391
q-1.37305 0.595703 -6.52539 0.595703h-6.52637q-15.7998 0 -29.8818 -5.6582q-14.083 -5.65918 -27.4785 -12.5088t-27.4775 -12.5088q-14.083 -5.6582 -30.5693 -5.6582q-10.9912 0 -17.1738 6.25391q-6.18262 6.25488 -6.18262 15.1895q0 9.53027 13.0518 25.6123
t29.5391 33.9521q16.4863 17.8691 32.2861 35.4404q15.8008 17.5713 21.9824 30.0801h-5.49512q-15.7998 0 -28.8516 -5.65918q-13.0527 -5.6582 -24.7305 -12.21q-11.6787 -6.55273 -23.0127 -12.2109q-11.335 -5.65918 -23.7002 -5.65918q-8.93066 0 -18.5479 3.87207
t-9.61719 13.998q0 8.33887 10.3047 16.9756q10.3037 8.63672 26.791 16.082q16.4863 7.44531 36.752 13.998q20.2646 6.55176 39.8428 11.3164q19.5781 4.76562 36.0654 7.44629q16.4863 2.67969 25.417 2.67969q25.417 0 25.417 -23.2295v-7.74316
q-11.6787 -26.8047 -28.165 -47.9492q-16.4873 -21.1455 -32.9736 -44.9717h6.86914q9.61719 0 17.5176 1.19141t17.5176 1.19141q27.4775 0 43.2773 -15.1885q15.7998 -15.1895 22.6699 -37.2275q0 -2.97852 0.342773 -12.2109q0.34375 -9.23242 0.34375 -11.6152
q0 -39.9082 -19.2344 -68.2012t-57.0166 -50.9268q-19.2354 -13.1045 -41.9043 -13.1045q-10.9912 0 -19.5781 6.84961q-8.58691 6.85059 -8.58691 15.7852zM202.008 -45.4668q4.50195 33.876 11.7051 63.8701q7.20312 29.9951 15.3066 63.8701v5.64648l128.756 521.549
q2.70117 11.998 9.9043 16.585q7.20312 4.58789 22.5098 4.58789h1.80078q17.1074 -7.05762 22.0596 -11.6455q4.95215 -4.58691 4.95215 -18.7021q0 -8.46875 -2.70117 -17.6436t-4.50195 -17.6436q-0.900391 -2.11719 -3.15137 -9.88086
q-2.25098 -7.7627 -4.95215 -16.9375t-4.95215 -16.9385q-2.25098 -7.7627 -3.15137 -9.88086v-2.82227l-101.744 -399.454q-8.10352 -40.2285 -17.5576 -80.1025q-9.4541 -39.875 -16.6572 -80.1025q-2.70117 -8.46973 -11.2549 -12.3506
q-8.55371 -3.88184 -18.458 -3.88184t-18.9082 5.29297t-9.00391 14.4678v2.11719zM523.46 187.295h-2.91016q-15.2822 0 -30.2012 -2.68164q-14.918 -2.68262 -29.8359 -6.03516q-14.9189 -3.35352 -29.8369 -6.03613q-14.918 -2.68164 -30.2002 -2.68164h-2.91113
q-8.00488 5.36426 -15.6465 13.4111q-7.64062 8.04785 -6.18555 18.1064q0.727539 4.02344 7.27734 9.05273t8.73242 8.38281q0.728516 1.34082 4.36719 7.04102q3.6377 5.7002 7.64062 12.4062q4.00195 6.70605 7.64062 12.4053q3.63867 5.7002 5.09473 7.04199
q0 2.68164 2.91113 2.68164l67.6777 107.966q0 0.670898 1.0918 1.34082q1.0918 0.670898 1.81934 1.3418q2.18262 2.68262 7.27734 8.71777q5.09375 6.03516 10.915 12.7412q5.82227 6.70605 10.916 12.7412t7.27734 8.71777q3.63867 4.69434 8.00488 5.36426
q4.36621 0.670898 10.1885 0.670898q5.09375 0 10.916 -1.34082q5.82129 -1.3418 10.915 -4.02344q5.09473 -2.68262 8.7334 -7.37695t3.63867 -10.7295v-142.166q13.0986 0 23.6504 6.37109q10.5518 6.37012 24.3789 6.37012q25.4707 0 25.4707 -24.8115
q0 -5.36523 -1.81934 -10.7295q-1.81934 -5.36523 -7.6416 -7.37695l-64.0391 -22.7998v-2.01172q0 -37.5537 7.64062 -74.4365q7.64062 -36.8818 7.64062 -73.0938q0 -10.7295 -5.82129 -19.7832q-5.82129 -9.05273 -18.1934 -9.05273q-4.36621 0 -8.36816 0.334961
q-4.00293 0.335938 -7.6416 2.34766q-3.63867 2.68262 -9.45996 8.04688q-5.82227 5.36426 -5.82227 6.70605v5.36426zM461.604 224.178q2.91113 0 9.82422 1.3418q6.91406 1.34082 14.9189 2.68164q8.00488 1.3418 14.918 2.34766t10.5518 1.67578
q0.728516 0.670898 4.00293 1.67676t4.73047 1.67676q0.727539 0 1.81934 1.34082q1.09082 1.3418 1.09082 2.01172v83.8242l-2.91016 4.02344l-58.9463 -97.2354v-5.36523z" />
    <glyph glyph-name="questiondown" unicode="&#xbf;" horiz-adv-x="366" 
d="M203.018 620.687q0 -14.418 -10.2441 -27.8057q-10.2451 -13.3877 -23.9043 -13.3877q-16.2197 0 -31.5859 10.8135q-15.3672 10.8135 -15.3672 34.5q0 21.626 11.0986 29.3506q11.0977 7.72363 25.6104 7.72363q16.2207 0 30.3066 -9.78418
q14.0859 -9.7832 14.0859 -31.4102zM260.215 374.554q-5.12207 -27.8057 -16.2197 -52.0078q-11.0986 -24.2012 -24.3301 -46.3428q-13.2324 -22.1416 -27.7451 -43.7686q-14.5137 -21.627 -26.4648 -45.3135q-1.70801 -3.08887 -6.40332 -12.873
q-4.69531 -9.7832 -9.81738 -21.626q-5.12207 -11.8438 -9.81738 -23.1719t-6.40234 -16.4775q-4.26855 -11.3281 -3.41504 -14.418t0.853516 -13.3877q34.1484 0 61.8936 15.9619q27.7451 15.9629 55.917 38.6201q12.8057 10.2979 23.0498 22.6562t26.4648 12.3584
q12.8057 0 27.3184 -11.8438q14.5127 -11.8428 14.5127 -30.3799q0 -6.17969 -1.28027 -7.72461q-1.28125 -1.54395 -6.40332 -5.66406q-24.7568 -23.6865 -48.6602 -43.7686q-23.9043 -20.082 -49.0879 -35.0146q-25.1846 -14.9326 -52.9297 -23.6865
q-27.7451 -8.75293 -60.1855 -8.75293q-27.3184 0 -47.3799 15.4473q-20.0625 15.4473 -20.0625 51.4922q0 23.6865 6.83008 48.4033q6.8291 24.7158 17.0732 48.4023q10.2451 23.6865 22.623 45.3135q12.3789 21.627 22.623 40.1641q6.83008 12.3574 17.9277 27.8057
q11.0986 15.4473 21.3428 32.4404q10.2441 16.9922 17.9277 33.9844t7.68359 30.3809q0 8.23828 -5.97656 12.3584q-5.97559 4.11914 -5.97559 12.3574q0 18.5371 9.39062 26.2617q9.39062 7.72363 23.0498 7.72363q22.1963 0 37.1357 -19.0527
q14.9395 -19.0518 14.9395 -44.7979v-2.05957z" />
    <glyph glyph-name="Agrave" unicode="&#xc0;" horiz-adv-x="509" 
d="M25 63q0 60 8 119t14 118q0 3 1 13.5t2.5 22.5t3 22.5t1.5 13.5v4l42 312q-2 20 6.5 35.5t31.5 15.5q25 3 41.5 -6.5t27.5 -24.5t18 -33t15 -33q5 -14 12.5 -33t18 -48t25 -71t33.5 -102l4 -4q7 4 26.5 13t41 19t40.5 19t27 12q1 2 5.5 3.5t6.5 2.5h2q10 0 15 -7.5
t5 -14.5q0 -11 -5 -19t-11.5 -14.5t-14 -12.5t-11.5 -13l-99 -50q-4 -5 -4 -8q0 -8 8.5 -25l13.5 -27q3 -6 10 -22t15 -33t15.5 -32.5t10.5 -21.5v-3q0 -36 -36 -36q-11 0 -23 2.5t-18 14.5l-67 143h-9q-38 -29 -81 -57t-88 -48q-7 -36 -8.5 -73t0.5 -74q-8 -11 -16 -16.5
t-22 -5.5t-21 6.5t-10 16t-3 20.5v20zM114 257q30 12 58.5 32t54.5 37q3 2 7.5 4t8.5 5t10 7v8l-92 262l-4 4q-3 -6 -7.5 -34t-10 -72.5t-12 -102.5t-13.5 -124v-26zM246 818q-11 -18 -28.5 -15t-35.5 15.5t-34.5 29t-24.5 25.5l-11 11t-9.5 13t-4 14t5.5 15q11 15 25 19
t30 -7q15 -21 31 -33t29.5 -23.5t21.5 -25.5t5 -38z" />
    <glyph glyph-name="Aacute" unicode="&#xc1;" horiz-adv-x="509" 
d="M25 63q0 60 8 119t14 118q0 3 1 13.5t2.5 22.5t3 22.5t1.5 13.5v4l42 312q-2 20 6.5 35.5t31.5 15.5q25 3 41.5 -6.5t27.5 -24.5t18 -33t15 -33q5 -14 12.5 -33t18 -48t25 -71t33.5 -102l4 -4q7 4 26.5 13t41 19t40.5 19t27 12q1 2 5.5 3.5t6.5 2.5h2q10 0 15 -7.5
t5 -14.5q0 -11 -5 -19t-11.5 -14.5t-14 -12.5t-11.5 -13l-99 -50q-4 -5 -4 -8q0 -8 8.5 -25l13.5 -27q3 -6 10 -22t15 -33t15.5 -32.5t10.5 -21.5v-3q0 -36 -36 -36q-11 0 -23 2.5t-18 14.5l-67 143h-9q-38 -29 -81 -57t-88 -48q-7 -36 -8.5 -73t0.5 -74q-8 -11 -16 -16.5
t-22 -5.5t-21 6.5t-10 16t-3 20.5v20zM114 257q30 12 58.5 32t54.5 37q3 2 7.5 4t8.5 5t10 7v8l-92 262l-4 4q-3 -6 -7.5 -34t-10 -72.5t-12 -102.5t-13.5 -124v-26zM44 776q-3 26 4.5 41t20 27t27.5 25t29 36q15 12 28 8t24 -21q6 -9 5.5 -16.5t-4.5 -15t-9.5 -13.5
t-9.5 -12q-8 -10 -23 -27.5t-32 -31t-33.5 -16.5t-26.5 16z" />
    <glyph glyph-name="Acircumflex" unicode="&#xc2;" horiz-adv-x="509" 
d="M71 939q1 2 3.5 8.5t5.5 13.5t6 13.5t4 9.5q4 8 14.5 9.5t20.5 1.5q8 0 14 -1.5t12 -7.5q3 -5 11.5 -17.5t18.5 -26t18.5 -26t11.5 -16.5q1 -1 4 -4.5t3 -4.5q3 -4 10 -14.5l15 -22.5t15 -23t10 -15q3 -5 3.5 -7.5t0.5 -7.5q0 -11 -9 -15t-24 -4q-13 0 -23.5 5.5
t-15.5 13.5l-67 99l-4 -3q-3 -4 -6 -11t-10.5 -21t-20.5 -36.5t-36 -58.5q-2 -2 -10.5 -5t-11.5 -3q-6 0 -15.5 2.5t-17.5 6.5t-12.5 9.5t-0.5 12.5zM25 63q0 60 8 119t14 118q0 3 1 13.5t2.5 22.5t3 22.5t1.5 13.5v4l42 312q-2 20 6.5 35.5t31.5 15.5q25 3 41.5 -6.5
t27.5 -24.5t18 -33t15 -33q5 -14 12.5 -33t18 -48t25 -71t33.5 -102l4 -4q7 4 26.5 13t41 19t40.5 19t27 12q1 2 5.5 3.5t6.5 2.5h2q10 0 15 -7.5t5 -14.5q0 -11 -5 -19t-11.5 -14.5t-14 -12.5t-11.5 -13l-99 -50q-4 -5 -4 -8q0 -8 8.5 -25l13.5 -27q3 -6 10 -22t15 -33
t15.5 -32.5t10.5 -21.5v-3q0 -36 -36 -36q-11 0 -23 2.5t-18 14.5l-67 143h-9q-38 -29 -81 -57t-88 -48q-7 -36 -8.5 -73t0.5 -74q-8 -11 -16 -16.5t-22 -5.5t-21 6.5t-10 16t-3 20.5v20zM114 257q30 12 58.5 32t54.5 37q3 2 7.5 4t8.5 5t10 7v8l-92 262l-4 4
q-3 -6 -7.5 -34t-10 -72.5t-12 -102.5t-13.5 -124v-26z" />
    <glyph glyph-name="Atilde" unicode="&#xc3;" horiz-adv-x="509" 
d="M38 784q0 5 0.5 8.5t1.5 8.5q7 21 14.5 42t18 39.5t24 32.5t31.5 20q7 0 13 -1.5t12 -9.5l57 -72q8 -5 13.5 -12t15.5 -7q7 0 13 11t9 16q6 9 10.5 20t10 21t12 16.5t16.5 6.5q11 0 14.5 -9t3.5 -23q0 -21 -7 -44.5t-18.5 -42.5t-25.5 -31.5t-29 -12.5q-18 -1 -34 8
t-30.5 22.5t-28.5 28.5t-27 26q-10 0 -18.5 -14t-16 -30.5t-15 -30t-14.5 -13.5t-16.5 7t-9.5 19zM25 63q0 60 8 119t14 118q0 3 1 13.5t2.5 22.5t3 22.5t1.5 13.5v4l42 312q-2 20 6.5 35.5t31.5 15.5q25 3 41.5 -6.5t27.5 -24.5t18 -33t15 -33q5 -14 12.5 -33t18 -48
t25 -71t33.5 -102l4 -4q7 4 26.5 13t41 19t40.5 19t27 12q1 2 5.5 3.5t6.5 2.5h2q10 0 15 -7.5t5 -14.5q0 -11 -5 -19t-11.5 -14.5t-14 -12.5t-11.5 -13l-99 -50q-4 -5 -4 -8q0 -8 8.5 -25l13.5 -27q3 -6 10 -22t15 -33t15.5 -32.5t10.5 -21.5v-3q0 -36 -36 -36
q-11 0 -23 2.5t-18 14.5l-67 143h-9q-38 -29 -81 -57t-88 -48q-7 -36 -8.5 -73t0.5 -74q-8 -11 -16 -16.5t-22 -5.5t-21 6.5t-10 16t-3 20.5v20zM114 257q30 12 58.5 32t54.5 37q3 2 7.5 4t8.5 5t10 7v8l-92 262l-4 4q-3 -6 -7.5 -34t-10 -72.5t-12 -102.5t-13.5 -124v-26z
" />
    <glyph glyph-name="Adieresis" unicode="&#xc4;" horiz-adv-x="509" 
d="M25 63q0 60 8 119t14 118q0 3 1 13.5t2.5 22.5t3 22.5t1.5 13.5v4l42 312q-2 20 6.5 35.5t31.5 15.5q25 3 41.5 -6.5t27.5 -24.5t18 -33t15 -33q5 -14 12.5 -33t18 -48t25 -71t33.5 -102l4 -4q7 4 26.5 13t41 19t40.5 19t27 12q1 2 5.5 3.5t6.5 2.5h2q10 0 15 -7.5
t5 -14.5q0 -11 -5 -19t-11.5 -14.5t-14 -12.5t-11.5 -13l-99 -50q-4 -5 -4 -8q0 -8 8.5 -25l13.5 -27q3 -6 10 -22t15 -33t15.5 -32.5t10.5 -21.5v-3q0 -36 -36 -36q-11 0 -23 2.5t-18 14.5l-67 143h-9q-38 -29 -81 -57t-88 -48q-7 -36 -8.5 -73t0.5 -74q-8 -11 -16 -16.5
t-22 -5.5t-21 6.5t-10 16t-3 20.5v20zM114 257q30 12 58.5 32t54.5 37q3 2 7.5 4t8.5 5t10 7v8l-92 262l-4 4q-3 -6 -7.5 -34t-10 -72.5t-12 -102.5t-13.5 -124v-26zM34 839q0 14 10.5 26t24.5 12q17 0 27.5 -9t20.5 -20v-3q0 -17 -11.5 -30.5t-30.5 -13.5q-13 0 -27 12
t-14 26zM163 839q0 14 10.5 26t24.5 12q17 0 27.5 -9t20.5 -20v-3q0 -17 -11.5 -30.5t-30.5 -13.5q-13 0 -27 12t-14 26z" />
    <glyph glyph-name="Aring" unicode="&#xc5;" horiz-adv-x="509" 
d="M127 865q8 0 14.5 2t15.5 2q21 0 36 -9t24.5 -21.5t13.5 -27t4 -25.5q0 -13 -10.5 -29.5t-27 -30.5t-38 -24t-43.5 -10q-23 1 -46 12.5t-30 33t10.5 53.5t75.5 74h1zM177 788q-1 25 -13.5 31.5t-27.5 0.5t-27 -20.5t-13 -31.5q5 -15 18.5 -18.5t27.5 1t25 15t10 22.5z
M25 63q0 60 8 119t14 118q0 3 1 13.5t2.5 22.5t3 22.5t1.5 13.5v4l42 312q-2 20 6.5 35.5t31.5 15.5q25 3 41.5 -6.5t27.5 -24.5t18 -33t15 -33q5 -14 12.5 -33t18 -48t25 -71t33.5 -102l4 -4q7 4 26.5 13t41 19t40.5 19t27 12q1 2 5.5 3.5t6.5 2.5h2q10 0 15 -7.5t5 -14.5
q0 -11 -5 -19t-11.5 -14.5t-14 -12.5t-11.5 -13l-99 -50q-4 -5 -4 -8q0 -8 8.5 -25l13.5 -27q3 -6 10 -22t15 -33t15.5 -32.5t10.5 -21.5v-3q0 -36 -36 -36q-11 0 -23 2.5t-18 14.5l-67 143h-9q-38 -29 -81 -57t-88 -48q-7 -36 -8.5 -73t0.5 -74q-8 -11 -16 -16.5t-22 -5.5
t-21 6.5t-10 16t-3 20.5v20zM114 257q30 12 58.5 32t54.5 37q3 2 7.5 4t8.5 5t10 7v8l-92 262l-4 4q-3 -6 -7.5 -34t-10 -72.5t-12 -102.5t-13.5 -124v-26z" />
    <glyph glyph-name="AE" unicode="&#xc6;" horiz-adv-x="710" 
d="M360 77q-4 15 -7.5 30t-5.5 29l-64 138h-9q-38 -29 -81 -57t-88 -48q-7 -36 -8.5 -73t0.5 -74q-8 -11 -16 -16.5t-22 -5.5t-21 6.5t-10 16t-3 20.5v20q0 60 8 119t14 118q0 3 1 13.5t2.5 22.5t3 22.5t1.5 13.5v4l42 312q-2 20 6.5 35.5t31.5 15.5q25 3 41.5 -6.5
t27.5 -24.5t18 -33t15 -33q5 -14 12.5 -33t18 -48t25 -71t33.5 -102l4 -4l4 2v4v15q0 10 -2 34t-4 51t-3.5 51t-2.5 33q-1 17 -9 30t-8 30q0 32 13 45t46 13q7 0 11.5 -6t10.5 -6h4q3 1 9 2.5t8 1.5q84 36 131 56t71 29t32.5 10t14.5 -2q12 -2 16.5 -7.5t4.5 -16.5
q0 -10 -3 -20t-14 -15l-131 -63l-4 -4l-110 -47q-6 -2 -7 -10t-1 -13q0 -8 2 -29t4 -43.5t4.5 -40t3.5 -17.5h1l1 1q11 8 35 27.5t49 39.5t44 35.5t20 15.5q11 0 20 -11t9 -23t-5 -27t-16 -23l-88 -79q-8 -10 -19.5 -18.5t-28.5 -23.5l-20 -18v-5t-0.5 -11t-0.5 -12.5v-10.5
q0 -36 5 -71.5t5 -71.5h4q1 0 9 8t12 13q2 3 9.5 13t25.5 33t48 61t77 96q4 4 11.5 12t9.5 8q3 3 12.5 2.5t13.5 -2.5q5 -2 13 -11t8 -17q0 -12 -12.5 -31.5t-29.5 -40.5t-34 -40.5t-26 -31.5q-14 -22 -33.5 -53.5t-42.5 -60t-50.5 -49t-58.5 -20.5q-15 0 -21.5 5t-16.5 18z
M114 257q30 12 58.5 32t54.5 37q3 2 7.5 4t8.5 5t10 7v8l-92 262l-4 4q-3 -6 -7.5 -34t-10 -72.5t-12 -102.5t-13.5 -124v-26z" />
    <glyph glyph-name="Ccedilla" unicode="&#xc7;" horiz-adv-x="431" 
d="M23 153q12 100 19 154t10 80q4 30 4 35q9 31 19 67t26.5 67t42.5 52t67 21q18 0 32.5 -2.5t27.5 -8.5t25.5 -14.5t26.5 -20.5q10 -9 11.5 -11t1.5 -12q0 -13 -9 -25t-26 -12q-14 0 -23 6.5t-17.5 15t-18 15t-24.5 6.5q-16 0 -28 -8.5t-20.5 -21.5t-13 -29t-6.5 -30
l-47 -320q0 -2 -0.5 -9.5t-0.5 -11.5v-17.5t2 -21t7 -18t15 -7.5q6 0 11 4q48 32 82.5 74.5t65.5 90.5q1 2 5.5 9.5t9 16t8.5 17t6 12.5q6 13 9 27t7.5 26t13.5 19.5t28 7.5q14 0 27 -12t13 -28v-2q-25 -72 -64.5 -133t-87.5 -121q-30 -36 -69 -58t-87 -22h-5
q-45 17 -60.5 50.5t-15.5 78.5v24zM99 -270q0 5 0.5 9t4.5 8q12 15 34.5 20t46 8.5t43.5 10.5t28 28q8 18 -2.5 26t-28.5 10t-36 0.5t-25 -2.5q-14 0 -34.5 2t-40 8.5t-33 18.5t-13.5 32q6 33 20 60t31.5 45t35 25.5t30 2t16.5 -26t-6 -57.5q-6 -7 -15 -19.5t-9 -14.5v-1
q26 -5 58 -3.5t62.5 -1.5t57 -17t42.5 -51q9 -42 -1 -64.5t-37 -36t-69 -24t-95 -29.5q-2 -3 -9.5 -4t-12.5 -1q-14 0 -28.5 12t-14.5 27z" />
    <glyph glyph-name="Egrave" unicode="&#xc8;" horiz-adv-x="422" 
d="M78 22q-10 40 -15 75.5t-7 75.5q-1 23 0 39.5t-4 36.5q-1 4 -4.5 6t-7 5t-6.5 7.5t-3 14.5q0 8 3.5 14t7 11.5t7 12t3.5 15.5v15q0 10 -2 34t-4 51t-3.5 51t-2.5 33q-1 17 -9 30t-8 30q0 32 13 45t46 13q7 0 11.5 -6t10.5 -6h4q3 1 9 2.5t8 1.5q84 36 131 56t71 29
t32.5 10t14.5 -2q12 -2 16.5 -7.5t4.5 -16.5q0 -10 -3 -20t-14 -15l-131 -63l-4 -4l-110 -47q-6 -2 -7 -10t-1 -13q0 -8 2 -29t4 -43.5t4.5 -40t3.5 -17.5h1l1 1q11 8 35 27.5t49 39.5t44 35.5t20 15.5q11 0 20 -11t9 -23t-5 -27t-16 -23l-156 -139v-5t-0.5 -11t-0.5 -12.5
v-10.5q0 -36 5 -71.5t5 -71.5h4q1 0 9 8t12 13q2 3 9.5 13t25.5 33t48 61t77 96q4 4 11.5 12t9.5 8q3 3 12.5 2.5t13.5 -2.5q5 -2 13 -11t8 -17q0 -12 -12.5 -31.5t-29.5 -40.5t-34 -40.5t-26 -31.5q-14 -22 -33.5 -53.5t-42.5 -60t-50.5 -49t-58.5 -20.5q-15 0 -21.5 5
t-16.5 18zM224 769q-11 -18 -28.5 -15t-35.5 15.5t-34.5 29t-24.5 25.5l-11 11t-9.5 13t-4 14t5.5 15q11 15 25 19t30 -7q15 -21 31 -33t29.5 -23.5t21.5 -25.5t5 -38z" />
    <glyph glyph-name="Eacute" unicode="&#xc9;" horiz-adv-x="422" 
d="M78 22q-10 40 -15 75.5t-7 75.5q-1 23 0 39.5t-4 36.5q-1 4 -4.5 6t-7 5t-6.5 7.5t-3 14.5q0 8 3.5 14t7 11.5t7 12t3.5 15.5v15q0 10 -2 34t-4 51t-3.5 51t-2.5 33q-1 17 -9 30t-8 30q0 32 13 45t46 13q7 0 11.5 -6t10.5 -6h4q3 1 9 2.5t8 1.5q84 36 131 56t71 29
t32.5 10t14.5 -2q12 -2 16.5 -7.5t4.5 -16.5q0 -10 -3 -20t-14 -15l-131 -63l-4 -4l-110 -47q-6 -2 -7 -10t-1 -13q0 -8 2 -29t4 -43.5t4.5 -40t3.5 -17.5h1l1 1q11 8 35 27.5t49 39.5t44 35.5t20 15.5q11 0 20 -11t9 -23t-5 -27t-16 -23l-156 -139v-5t-0.5 -11t-0.5 -12.5
v-10.5q0 -36 5 -71.5t5 -71.5h4q1 0 9 8t12 13q2 3 9.5 13t25.5 33t48 61t77 96q4 4 11.5 12t9.5 8q3 3 12.5 2.5t13.5 -2.5q5 -2 13 -11t8 -17q0 -12 -12.5 -31.5t-29.5 -40.5t-34 -40.5t-26 -31.5q-14 -22 -33.5 -53.5t-42.5 -60t-50.5 -49t-58.5 -20.5q-15 0 -21.5 5
t-16.5 18zM114 721q-3 26 4.5 41t20 27t27.5 25t29 36q15 12 28 8t24 -21q6 -9 5.5 -16.5t-4.5 -15t-9.5 -13.5t-9.5 -12q-8 -10 -23 -27.5t-32 -31t-33.5 -16.5t-26.5 16z" />
    <glyph glyph-name="Ecircumflex" unicode="&#xca;" horiz-adv-x="422" 
d="M146 913q1 2 3.5 8.5t5.5 13.5t6 13.5t4 9.5q4 8 14.5 9.5t20.5 1.5q8 0 14 -1.5t12 -7.5q3 -5 11.5 -17.5t18.5 -26t18.5 -26t11.5 -16.5q1 -1 4 -4.5t3 -4.5q3 -4 10 -14.5l15 -22.5t15 -23t10 -15q3 -5 3.5 -7.5t0.5 -7.5q0 -11 -9 -15t-24 -4q-13 0 -23.5 5.5
t-15.5 13.5l-67 99l-4 -3q-3 -4 -6 -11t-10.5 -21t-20.5 -36.5t-36 -58.5q-2 -2 -10.5 -5t-11.5 -3q-6 0 -15.5 2.5t-17.5 6.5t-12.5 9.5t-0.5 12.5zM78 22q-10 40 -15 75.5t-7 75.5q-1 23 0 39.5t-4 36.5q-1 4 -4.5 6t-7 5t-6.5 7.5t-3 14.5q0 8 3.5 14t7 11.5t7 12
t3.5 15.5v15q0 10 -2 34t-4 51t-3.5 51t-2.5 33q-1 17 -9 30t-8 30q0 32 13 45t46 13q7 0 11.5 -6t10.5 -6h4q3 1 9 2.5t8 1.5q84 36 131 56t71 29t32.5 10t14.5 -2q12 -2 16.5 -7.5t4.5 -16.5q0 -10 -3 -20t-14 -15l-131 -63l-4 -4l-110 -47q-6 -2 -7 -10t-1 -13
q0 -8 2 -29t4 -43.5t4.5 -40t3.5 -17.5h1l1 1q11 8 35 27.5t49 39.5t44 35.5t20 15.5q11 0 20 -11t9 -23t-5 -27t-16 -23l-156 -139v-5t-0.5 -11t-0.5 -12.5v-10.5q0 -36 5 -71.5t5 -71.5h4q1 0 9 8t12 13q2 3 9.5 13t25.5 33t48 61t77 96q4 4 11.5 12t9.5 8q3 3 12.5 2.5
t13.5 -2.5q5 -2 13 -11t8 -17q0 -12 -12.5 -31.5t-29.5 -40.5t-34 -40.5t-26 -31.5q-14 -22 -33.5 -53.5t-42.5 -60t-50.5 -49t-58.5 -20.5q-15 0 -21.5 5t-16.5 18z" />
    <glyph glyph-name="Edieresis" unicode="&#xcb;" horiz-adv-x="422" 
d="M78 22q-10 40 -15 75.5t-7 75.5q-1 23 0 39.5t-4 36.5q-1 4 -4.5 6t-7 5t-6.5 7.5t-3 14.5q0 8 3.5 14t7 11.5t7 12t3.5 15.5v15q0 10 -2 34t-4 51t-3.5 51t-2.5 33q-1 17 -9 30t-8 30q0 32 13 45t46 13q7 0 11.5 -6t10.5 -6h4q3 1 9 2.5t8 1.5q84 36 131 56t71 29
t32.5 10t14.5 -2q12 -2 16.5 -7.5t4.5 -16.5q0 -10 -3 -20t-14 -15l-131 -63l-4 -4l-110 -47q-6 -2 -7 -10t-1 -13q0 -8 2 -29t4 -43.5t4.5 -40t3.5 -17.5h1l1 1q11 8 35 27.5t49 39.5t44 35.5t20 15.5q11 0 20 -11t9 -23t-5 -27t-16 -23l-156 -139v-5t-0.5 -11t-0.5 -12.5
v-10.5q0 -36 5 -71.5t5 -71.5h4q1 0 9 8t12 13q2 3 9.5 13t25.5 33t48 61t77 96q4 4 11.5 12t9.5 8q3 3 12.5 2.5t13.5 -2.5q5 -2 13 -11t8 -17q0 -12 -12.5 -31.5t-29.5 -40.5t-34 -40.5t-26 -31.5q-14 -22 -33.5 -53.5t-42.5 -60t-50.5 -49t-58.5 -20.5q-15 0 -21.5 5
t-16.5 18zM82 776q0 14 10.5 26t24.5 12q17 0 27.5 -9t20.5 -20v-3q0 -17 -11.5 -30.5t-30.5 -13.5q-13 0 -27 12t-14 26zM211 776q0 14 10.5 26t24.5 12q17 0 27.5 -9t20.5 -20v-3q0 -17 -11.5 -30.5t-30.5 -13.5q-13 0 -27 12t-14 26z" />
    <glyph glyph-name="Igrave" unicode="&#xcc;" horiz-adv-x="154" 
d="M23 566q8 11 14.5 14.5t18.5 3.5q16 0 30.5 -9t16.5 -26q4 -28 4.5 -56.5t0 -57l-1 -57t1.5 -56.5q4 -68 12.5 -141t8.5 -141q0 -20 -8 -30t-31 -10q-19 0 -29 13t-14.5 31t-5.5 36.5t-1 29.5q0 8 -1.5 33.5t-3 60t-3.5 73t-4 73t-3.5 60t-1.5 33.5v62v61zM154 608
q-11 -18 -28.5 -15t-35.5 15.5t-34.5 29t-24.5 25.5l-11 11t-9.5 13t-4 14t5.5 15q11 15 25 19t30 -7q15 -21 31 -33t29.5 -23.5t21.5 -25.5t5 -38z" />
    <glyph glyph-name="Iacute" unicode="&#xcd;" horiz-adv-x="154" 
d="M23 566q8 11 14.5 14.5t18.5 3.5q16 0 30.5 -9t16.5 -26q4 -28 4.5 -56.5t0 -57l-1 -57t1.5 -56.5q4 -68 12.5 -141t8.5 -141q0 -20 -8 -30t-31 -10q-19 0 -29 13t-14.5 31t-5.5 36.5t-1 29.5q0 8 -1.5 33.5t-3 60t-3.5 73t-4 73t-3.5 60t-1.5 33.5v62v61zM8 629
q-3 26 4.5 41t20 27t27.5 25t29 36q15 12 28 8t24 -21q6 -9 5.5 -16.5t-4.5 -15t-9.5 -13.5t-9.5 -12q-8 -10 -23 -27.5t-32 -31t-33.5 -16.5t-26.5 16z" />
    <glyph glyph-name="Icircumflex" unicode="&#xce;" horiz-adv-x="154" 
d="M24 821q1 2 3.5 8.5t5.5 13.5t6 13.5t4 9.5q4 8 14.5 9.5t20.5 1.5q8 0 14 -1.5t12 -7.5q3 -5 11.5 -17.5t18.5 -26t18.5 -26t11.5 -16.5q1 -1 4 -4.5t3 -4.5q3 -4 10 -14.5l15 -22.5t15 -23t10 -15q3 -5 3.5 -7.5t0.5 -7.5q0 -11 -9 -15t-24 -4q-13 0 -23.5 5.5
t-15.5 13.5l-67 99l-4 -3q-3 -4 -6 -11t-10.5 -21t-20.5 -36.5t-36 -58.5q-2 -2 -10.5 -5t-11.5 -3q-6 0 -15.5 2.5t-17.5 6.5t-12.5 9.5t-0.5 12.5zM23 566q8 11 14.5 14.5t18.5 3.5q16 0 30.5 -9t16.5 -26q4 -28 4.5 -56.5t0 -57l-1 -57t1.5 -56.5q4 -68 12.5 -141
t8.5 -141q0 -20 -8 -30t-31 -10q-19 0 -29 13t-14.5 31t-5.5 36.5t-1 29.5q0 8 -1.5 33.5t-3 60t-3.5 73t-4 73t-3.5 60t-1.5 33.5v62v61z" />
    <glyph glyph-name="Idieresis" unicode="&#xcf;" horiz-adv-x="154" 
d="M23 566q8 11 14.5 14.5t18.5 3.5q16 0 30.5 -9t16.5 -26q4 -28 4.5 -56.5t0 -57l-1 -57t1.5 -56.5q4 -68 12.5 -141t8.5 -141q0 -20 -8 -30t-31 -10q-19 0 -29 13t-14.5 31t-5.5 36.5t-1 29.5q0 8 -1.5 33.5t-3 60t-3.5 73t-4 73t-3.5 60t-1.5 33.5v62v61zM-28 710
q0 14 10.5 26t24.5 12q17 0 27.5 -9t20.5 -20v-3q0 -17 -11.5 -30.5t-30.5 -13.5q-13 0 -27 12t-14 26zM101 710q0 14 10.5 26t24.5 12q17 0 27.5 -9t20.5 -20v-3q0 -17 -11.5 -30.5t-30.5 -13.5q-13 0 -27 12t-14 26z" />
    <glyph glyph-name="Eth" unicode="&#xd0;" horiz-adv-x="523" 
d="M52 259q0 9 10 14t23 8t26 4t20 3h2q1 55 1.5 109t0.5 109q-10 0 -19 -4.5t-19 -10t-21 -10t-24 -4.5h-16q-2 3 -10 5.5t-8 6.5v30q5 3 8.5 8.5t5.5 9.5l101 50l4 5q-2 28 3 45t35 17q8 0 17.5 -3t18 -8t13 -13t2.5 -18q50 -2 99 -7.5t88 -24t63.5 -54.5t24.5 -99
q0 -57 -22 -114t-63 -98l-190 -189q-14 -14 -23.5 -20t-27.5 -6q-15 0 -24.5 8.5t-9.5 23.5q0 9 6.5 16t6.5 15q0 2 -4 5t-5 4q-10 15 -11 34t-1 36v80h-2q-6 0 -19.5 3t-26.5 8.5t-23 12t-10 13.5zM226 302l40 6q17 0 32 -6t15 -26q0 -5 -6.5 -11t-14.5 -11t-17 -8.5
t-13 -1.5l-36 -6v-114l4 3q1 1 7.5 6.5t14.5 13t16 14.5t13 12q23 24 48.5 51t46.5 57.5t34.5 64t13.5 70.5q0 35 -13 59.5t-34.5 40t-50.5 22.5t-62 7q-3 0 -17.5 -1.5t-20.5 -6.5v-235z" />
    <glyph glyph-name="Ntilde" unicode="&#xd1;" horiz-adv-x="445" 
d="M-5 781q0 5 0.5 8.5t1.5 8.5q7 21 14.5 42t18 39.5t24 32.5t31.5 20q7 0 13 -1.5t12 -9.5l57 -72q8 -5 13.5 -12t15.5 -7q7 0 13 11t9 16q6 9 10.5 20t10 21t12 16.5t16.5 6.5q11 0 14.5 -9t3.5 -23q0 -21 -7 -44.5t-18.5 -42.5t-25.5 -31.5t-29 -12.5q-18 -1 -34 8
t-30.5 22.5t-28.5 28.5t-27 26q-10 0 -18.5 -14t-16 -30.5t-15 -30t-14.5 -13.5t-16.5 7t-9.5 19zM23 125q0 61 2.5 122.5t5.5 123t4.5 123t-0.5 122.5q3 11 11 16.5t19 5.5q21 0 32 -7.5t16 -20.5t6 -29l2 -32q12 -22 28.5 -42.5t29.5 -41.5q0 -1 1.5 -4.5t2.5 -3.5
q6 -9 15.5 -23.5t18.5 -28t15.5 -23.5l6.5 -10l4 -5l58 -84q4 -4 7 -4h2q-13 106 -21 216.5t-8 218.5v50q8 13 27 13t28 -9t12 -22.5t3 -29t1 -28.5q0 -1 1 -3.5t2.5 -11t3 -26t4 -48.5t5 -78t6.5 -115v-18l34 -223q1 -8 8.5 -24.5t7.5 -25.5q0 -21 -12 -34t-34 -13
q-3 0 -8 2.5t-10 5.5t-9.5 6.5t-6.5 5.5l-161 229q-1 0 -2 3.5t-2 5.5q-6 9 -16 22.5t-19 27t-16 23.5t-7 11l-5 4q-5 -95 -8 -191.5t0 -192.5q-2 -12 -12.5 -21t-21.5 -9q-20 0 -31.5 10.5t-19.5 27.5v87z" />
    <glyph glyph-name="Ograve" unicode="&#xd2;" horiz-adv-x="330" 
d="M22 177q1 6 0 32t-0.5 64.5t2 84.5t7 93t16 90.5t27.5 75.5q6 27 29 37.5t65 12.5q27 0 46 -14t32.5 -34.5t23.5 -44.5t18 -43v-5q7 -20 10.5 -59.5t5 -83t1.5 -83.5v-61q0 -30 -8 -71.5t-25.5 -78.5t-45.5 -63t-67 -26q-33 0 -58.5 17t-43 43.5t-26.5 57.5t-9 59z
M119 110q2 -11 11.5 -22.5t22.5 -11.5h8q42 38 55 87.5t13 104.5q0 13 -1 40t-3.5 60.5t-6.5 70.5t-10 69.5t-14 56.5t-19 33q-1 -1 -2.5 -4t-1.5 -4q-21 -26 -38 -71t-25.5 -106.5t-7 -138t18.5 -164.5zM223 720q-11 -18 -28.5 -15t-35.5 15.5t-34.5 29t-24.5 25.5l-11 11
t-9.5 13t-4 14t5.5 15q11 15 25 19t30 -7q15 -21 31 -33t29.5 -23.5t21.5 -25.5t5 -38z" />
    <glyph glyph-name="Oacute" unicode="&#xd3;" horiz-adv-x="330" 
d="M22 177q1 6 0 32t-0.5 64.5t2 84.5t7 93t16 90.5t27.5 75.5q6 27 29 37.5t65 12.5q27 0 46 -14t32.5 -34.5t23.5 -44.5t18 -43v-5q7 -20 10.5 -59.5t5 -83t1.5 -83.5v-61q0 -30 -8 -71.5t-25.5 -78.5t-45.5 -63t-67 -26q-33 0 -58.5 17t-43 43.5t-26.5 57.5t-9 59z
M119 110q2 -11 11.5 -22.5t22.5 -11.5h8q42 38 55 87.5t13 104.5q0 13 -1 40t-3.5 60.5t-6.5 70.5t-10 69.5t-14 56.5t-19 33q-1 -1 -2.5 -4t-1.5 -4q-21 -26 -38 -71t-25.5 -106.5t-7 -138t18.5 -164.5zM60 715q-3 26 4.5 41t20 27t27.5 25t29 36q15 12 28 8t24 -21
q6 -9 5.5 -16.5t-4.5 -15t-9.5 -13.5t-9.5 -12q-8 -10 -23 -27.5t-32 -31t-33.5 -16.5t-26.5 16z" />
    <glyph glyph-name="Ocircumflex" unicode="&#xd4;" horiz-adv-x="330" 
d="M91 887q1 2 3.5 8.5t5.5 13.5t6 13.5t4 9.5q4 8 14.5 9.5t20.5 1.5q8 0 14 -1.5t12 -7.5q3 -5 11.5 -17.5t18.5 -26t18.5 -26t11.5 -16.5q1 -1 4 -4.5t3 -4.5q3 -4 10 -14.5l15 -22.5t15 -23t10 -15q3 -5 3.5 -7.5t0.5 -7.5q0 -11 -9 -15t-24 -4q-13 0 -23.5 5.5
t-15.5 13.5l-67 99l-4 -3q-3 -4 -6 -11t-10.5 -21t-20.5 -36.5t-36 -58.5q-2 -2 -10.5 -5t-11.5 -3q-6 0 -15.5 2.5t-17.5 6.5t-12.5 9.5t-0.5 12.5zM22 177q1 6 0 32t-0.5 64.5t2 84.5t7 93t16 90.5t27.5 75.5q6 27 29 37.5t65 12.5q27 0 46 -14t32.5 -34.5t23.5 -44.5
t18 -43v-5q7 -20 10.5 -59.5t5 -83t1.5 -83.5v-61q0 -30 -8 -71.5t-25.5 -78.5t-45.5 -63t-67 -26q-33 0 -58.5 17t-43 43.5t-26.5 57.5t-9 59zM119 110q2 -11 11.5 -22.5t22.5 -11.5h8q42 38 55 87.5t13 104.5q0 13 -1 40t-3.5 60.5t-6.5 70.5t-10 69.5t-14 56.5t-19 33
q-1 -1 -2.5 -4t-1.5 -4q-21 -26 -38 -71t-25.5 -106.5t-7 -138t18.5 -164.5z" />
    <glyph glyph-name="Otilde" unicode="&#xd5;" horiz-adv-x="330" 
d="M38 712q0 5 0.5 8.5t1.5 8.5q7 21 14.5 42t18 39.5t24 32.5t31.5 20q7 0 13 -1.5t12 -9.5l57 -72q8 -5 13.5 -12t15.5 -7q7 0 13 11t9 16q6 9 10.5 20t10 21t12 16.5t16.5 6.5q11 0 14.5 -9t3.5 -23q0 -21 -7 -44.5t-18.5 -42.5t-25.5 -31.5t-29 -12.5q-18 -1 -34 8
t-30.5 22.5t-28.5 28.5t-27 26q-10 0 -18.5 -14t-16 -30.5t-15 -30t-14.5 -13.5t-16.5 7t-9.5 19zM22 177q1 6 0 32t-0.5 64.5t2 84.5t7 93t16 90.5t27.5 75.5q6 27 29 37.5t65 12.5q27 0 46 -14t32.5 -34.5t23.5 -44.5t18 -43v-5q7 -20 10.5 -59.5t5 -83t1.5 -83.5v-61
q0 -30 -8 -71.5t-25.5 -78.5t-45.5 -63t-67 -26q-33 0 -58.5 17t-43 43.5t-26.5 57.5t-9 59zM119 110q2 -11 11.5 -22.5t22.5 -11.5h8q42 38 55 87.5t13 104.5q0 13 -1 40t-3.5 60.5t-6.5 70.5t-10 69.5t-14 56.5t-19 33q-1 -1 -2.5 -4t-1.5 -4q-21 -26 -38 -71
t-25.5 -106.5t-7 -138t18.5 -164.5z" />
    <glyph glyph-name="Odieresis" unicode="&#xd6;" horiz-adv-x="330" 
d="M22 177q1 6 0 32t-0.5 64.5t2 84.5t7 93t16 90.5t27.5 75.5q6 27 29 37.5t65 12.5q27 0 46 -14t32.5 -34.5t23.5 -44.5t18 -43v-5q7 -20 10.5 -59.5t5 -83t1.5 -83.5v-61q0 -30 -8 -71.5t-25.5 -78.5t-45.5 -63t-67 -26q-33 0 -58.5 17t-43 43.5t-26.5 57.5t-9 59z
M119 110q2 -11 11.5 -22.5t22.5 -11.5h8q42 38 55 87.5t13 104.5q0 13 -1 40t-3.5 60.5t-6.5 70.5t-10 69.5t-14 56.5t-19 33q-1 -1 -2.5 -4t-1.5 -4q-21 -26 -38 -71t-25.5 -106.5t-7 -138t18.5 -164.5zM47 759q0 14 10.5 26t24.5 12q17 0 27.5 -9t20.5 -20v-3
q0 -17 -11.5 -30.5t-30.5 -13.5q-13 0 -27 12t-14 26zM176 759q0 14 10.5 26t24.5 12q17 0 27.5 -9t20.5 -20v-3q0 -17 -11.5 -30.5t-30.5 -13.5q-13 0 -27 12t-14 26z" />
    <glyph glyph-name="multiply" unicode="&#xd7;" horiz-adv-x="446" 
d="M102 88q0 13 11.5 26.5t25 27t23.5 28t7 29.5q-13 8 -26.5 20.5t-26.5 26t-25 27t-23 24.5v3q0 11 8 16.5t19 5.5q16 3 29 -1.5t24.5 -14t22 -21.5t20.5 -22q2 6 7 19.5t12 29t16 29t18 19t18 0t17 -29.5v-4l-35 -106l111 -107q0 -1 1 -3t1 -3t1 -2v-1q0 -11 -9 -16.5
t-19 -5.5q-11 0 -27 8.5t-32 19t-30 19.5t-20 9h-3q-15 -13 -22 -23.5t-13.5 -19.5t-17 -16t-31.5 -12q-10 0 -21 5.5t-11 15.5z" />
    <glyph glyph-name="Oslash" unicode="&#xd8;" horiz-adv-x="330" 
d="M22 177q1 6 0 32t-0.5 64.5t2 84.5t7 93t16 90.5t27.5 75.5q6 27 29 37.5t65 12.5q27 0 46 -14t32.5 -34.5t23.5 -44.5t18 -43v-5q7 -20 10.5 -59.5t5 -83t1.5 -83.5v-61q0 -30 -8 -71.5t-25.5 -78.5t-45.5 -63t-67 -26q-33 0 -58.5 17t-43 43.5t-26.5 57.5t-9 59z
M119 110q2 -11 11.5 -22.5t22.5 -11.5h8q42 38 55 87.5t13 104.5q0 13 -1 40t-3.5 60.5t-6.5 70.5t-10 69.5t-14 56.5t-19 33q-1 -1 -2.5 -4t-1.5 -4q-21 -26 -38 -71t-25.5 -106.5t-7 -138t18.5 -164.5zM50.9209 -58.6016q4.73047 40.7197 12.2988 76.7734
q7.56836 36.0547 16.083 76.7734v6.78711l135.284 626.914q2.83789 14.4219 10.4062 19.9355q7.56836 5.51465 23.6514 5.51465h1.8916q17.9756 -8.4834 23.1787 -13.998q5.20312 -5.51367 5.20312 -22.4805q0 -10.1797 -2.83789 -21.208
q-2.83887 -11.0283 -4.73047 -21.208q-0.946289 -2.54492 -3.31152 -11.877q-2.36523 -9.33105 -5.20312 -20.3594t-5.20312 -20.3604q-2.36523 -9.33105 -3.31152 -11.877v-3.39258l-106.902 -480.153q-8.51465 -48.3555 -18.4482 -96.2852
q-9.93359 -47.9307 -17.502 -96.2852q-2.83789 -10.1807 -11.8252 -14.8457q-8.98828 -4.66602 -19.3945 -4.66602t-19.8672 6.3623q-9.45996 6.3623 -9.45996 17.3906v2.54492z" />
    <glyph glyph-name="Ugrave" unicode="&#xd9;" horiz-adv-x="422" 
d="M297 141q-11 -21 -26.5 -47t-36 -49.5t-44 -39.5t-50.5 -16q-34 0 -54 20t-30.5 49.5t-13.5 62t-3 58.5v26q1 8 2.5 24t4 36.5t4.5 43t4.5 43t4 36.5t2.5 24q-4 10 -2.5 20.5t7 19t14.5 14t20 5.5q3 0 10.5 -2t15.5 -6t14 -8.5t6 -8.5v-38q-14 -108 -18 -172t-3 -99.5
t6 -48.5t10 -18q12 -5 23.5 -2.5t27.5 18.5t38.5 49.5t54.5 89.5q2 3 4.5 11t3.5 11q-2 66 -0.5 133t4.5 133q4 10 13 16t19 6q4 0 12 -3t16 -8.5t14 -11.5t6 -12v-295q7 -45 11 -90.5t11 -90.5q0 -5 2.5 -20.5t5.5 -33.5l5.5 -33t3.5 -19v-12q0 -36 -39 -39
q-17 -2 -28.5 14.5t-18.5 43t-11.5 59.5t-7.5 64t-6 56.5t-8 36.5zM286 608q-11 -18 -28.5 -15t-35.5 15.5t-34.5 29t-24.5 25.5l-11 11t-9.5 13t-4 14t5.5 15q11 15 25 19t30 -7q15 -21 31 -33t29.5 -23.5t21.5 -25.5t5 -38z" />
    <glyph glyph-name="Uacute" unicode="&#xda;" horiz-adv-x="422" 
d="M297 141q-11 -21 -26.5 -47t-36 -49.5t-44 -39.5t-50.5 -16q-34 0 -54 20t-30.5 49.5t-13.5 62t-3 58.5v26q1 8 2.5 24t4 36.5t4.5 43t4.5 43t4 36.5t2.5 24q-4 10 -2.5 20.5t7 19t14.5 14t20 5.5q3 0 10.5 -2t15.5 -6t14 -8.5t6 -8.5v-38q-14 -108 -18 -172t-3 -99.5
t6 -48.5t10 -18q12 -5 23.5 -2.5t27.5 18.5t38.5 49.5t54.5 89.5q2 3 4.5 11t3.5 11q-2 66 -0.5 133t4.5 133q4 10 13 16t19 6q4 0 12 -3t16 -8.5t14 -11.5t6 -12v-295q7 -45 11 -90.5t11 -90.5q0 -5 2.5 -20.5t5.5 -33.5l5.5 -33t3.5 -19v-12q0 -36 -39 -39
q-17 -2 -28.5 14.5t-18.5 43t-11.5 59.5t-7.5 64t-6 56.5t-8 36.5zM140 629q-3 26 4.5 41t20 27t27.5 25t29 36q15 12 28 8t24 -21q6 -9 5.5 -16.5t-4.5 -15t-9.5 -13.5t-9.5 -12q-8 -10 -23 -27.5t-32 -31t-33.5 -16.5t-26.5 16z" />
    <glyph glyph-name="Ucircumflex" unicode="&#xdb;" horiz-adv-x="422" 
d="M157 821q1 2 3.5 8.5t5.5 13.5t6 13.5t4 9.5q4 8 14.5 9.5t20.5 1.5q8 0 14 -1.5t12 -7.5q3 -5 11.5 -17.5t18.5 -26t18.5 -26t11.5 -16.5q1 -1 4 -4.5t3 -4.5q3 -4 10 -14.5l15 -22.5t15 -23t10 -15q3 -5 3.5 -7.5t0.5 -7.5q0 -11 -9 -15t-24 -4q-13 0 -23.5 5.5
t-15.5 13.5l-67 99l-4 -3q-3 -4 -6 -11t-10.5 -21t-20.5 -36.5t-36 -58.5q-2 -2 -10.5 -5t-11.5 -3q-6 0 -15.5 2.5t-17.5 6.5t-12.5 9.5t-0.5 12.5zM297 141q-11 -21 -26.5 -47t-36 -49.5t-44 -39.5t-50.5 -16q-34 0 -54 20t-30.5 49.5t-13.5 62t-3 58.5v26q1 8 2.5 24
t4 36.5t4.5 43t4.5 43t4 36.5t2.5 24q-4 10 -2.5 20.5t7 19t14.5 14t20 5.5q3 0 10.5 -2t15.5 -6t14 -8.5t6 -8.5v-38q-14 -108 -18 -172t-3 -99.5t6 -48.5t10 -18q12 -5 23.5 -2.5t27.5 18.5t38.5 49.5t54.5 89.5q2 3 4.5 11t3.5 11q-2 66 -0.5 133t4.5 133q4 10 13 16
t19 6q4 0 12 -3t16 -8.5t14 -11.5t6 -12v-295q7 -45 11 -90.5t11 -90.5q0 -5 2.5 -20.5t5.5 -33.5l5.5 -33t3.5 -19v-12q0 -36 -39 -39q-17 -2 -28.5 14.5t-18.5 43t-11.5 59.5t-7.5 64t-6 56.5t-8 36.5z" />
    <glyph glyph-name="Udieresis" unicode="&#xdc;" horiz-adv-x="422" 
d="M297 141q-11 -21 -26.5 -47t-36 -49.5t-44 -39.5t-50.5 -16q-34 0 -54 20t-30.5 49.5t-13.5 62t-3 58.5v26q1 8 2.5 24t4 36.5t4.5 43t4.5 43t4 36.5t2.5 24q-4 10 -2.5 20.5t7 19t14.5 14t20 5.5q3 0 10.5 -2t15.5 -6t14 -8.5t6 -8.5v-38q-14 -108 -18 -172t-3 -99.5
t6 -48.5t10 -18q12 -5 23.5 -2.5t27.5 18.5t38.5 49.5t54.5 89.5q2 3 4.5 11t3.5 11q-2 66 -0.5 133t4.5 133q4 10 13 16t19 6q4 0 12 -3t16 -8.5t14 -11.5t6 -12v-295q7 -45 11 -90.5t11 -90.5q0 -5 2.5 -20.5t5.5 -33.5l5.5 -33t3.5 -19v-12q0 -36 -39 -39
q-17 -2 -28.5 14.5t-18.5 43t-11.5 59.5t-7.5 64t-6 56.5t-8 36.5zM105 710q0 14 10.5 26t24.5 12q17 0 27.5 -9t20.5 -20v-3q0 -17 -11.5 -30.5t-30.5 -13.5q-13 0 -27 12t-14 26zM234 710q0 14 10.5 26t24.5 12q17 0 27.5 -9t20.5 -20v-3q0 -17 -11.5 -30.5t-30.5 -13.5
q-13 0 -27 12t-14 26z" />
    <glyph glyph-name="Yacute" unicode="&#xdd;" horiz-adv-x="424" 
d="M226 -6q1 5 2.5 19t4 29.5t4.5 29t3 19.5q5 45 12.5 89.5t7.5 89.5v15l-16 8q-4 2 -20 13t-35.5 25t-38.5 28.5t-29 23.5q-6 4 -19.5 15.5t-28 25t-27.5 26t-18 17.5q-8 8 -15 18.5t-7 21.5q0 17 13 24.5t28 7.5q10 0 21 -2.5t19 -10.5q38 -42 85 -84t96 -72l4 13l42 270
q2 11 12.5 14t19.5 3q26 0 39.5 -12.5t13.5 -41.5v-2q0 -1 -1.5 -5t-3 -9t-2.5 -9.5t-1 -5.5q-3 -12 -8 -46.5t-11 -82t-13 -104.5t-14 -114.5t-14 -111t-13 -94.5q1 -10 1.5 -23t-3.5 -25t-12.5 -20t-23.5 -8q-19 0 -33.5 10t-20.5 28zM141 629q-3 26 4.5 41t20 27t27.5 25
t29 36q15 12 28 8t24 -21q6 -9 5.5 -16.5t-4.5 -15t-9.5 -13.5t-9.5 -12q-8 -10 -23 -27.5t-32 -31t-33.5 -16.5t-26.5 16z" />
    <glyph glyph-name="Thorn" unicode="&#xde;" horiz-adv-x="384" 
d="M7 431v2q0 8 5.5 16.5t11.5 14.5v51v62t-1 38t-3 38l-6 63q0 13 9 19.5t19 6.5q28 5 42.5 -3.5t20 -26t5 -40t-2 -44.5t-2 -41t6.5 -29q13 5 13.5 4.5t0 -1t2 2t18.5 14.5q22 17 51.5 21.5t55.5 4.5q61 -9 85 -37.5t21 -70t-28.5 -92t-63.5 -104t-84 -106t-89 -98.5
q1 -13 1.5 -30t0 -33.5t-2 -30.5t-5.5 -21q-5 -10 -12.5 -14.5t-15.5 -3.5t-15 8t-11 21q-3 9 -4.5 25t-2.5 36.5t-0.5 43.5t1.5 47v261zM112 354q0 -3 0.5 -14t1.5 -23.5t1.5 -23.5t0.5 -14v-10.5t0.5 -16t0.5 -16v-10.5q11 2 31 28t41 60.5t39 69.5t27 55q4 10 8 24
t5.5 28.5t-2 26.5t-14.5 19q-18 0 -38.5 -9t-40 -23t-35 -30.5t-22.5 -31.5q-1 -5 -1.5 -17.5t-1 -26.5t-1 -27t-0.5 -18z" />
    <glyph glyph-name="germandbls" unicode="&#xdf;" horiz-adv-x="515" 
d="M191 -92q-7 0 -20.5 1.5t-27.5 4.5t-24.5 8t-11.5 13l-19 260v8q-2 42 -4.5 88t-7.5 89q-4 0 -7 12.5t-4.5 29t-2.5 33t-1 23.5q0 28 16.5 51t41.5 41t54 30.5t53 20t39 10.5t13 1q7 5 20.5 2t26.5 -11t23 -19t10 -23q0 -22 -6 -40.5t-15 -36t-19 -34.5t-18 -35
q4 0 15 -1.5t23 -2.5t23 -2.5t15 -1.5q16 -3 37.5 -10t40 -19t31.5 -28.5t13 -37.5q0 -23 -8.5 -46t-20.5 -41q-4 -6 -12 -17l-16 -22t-14.5 -19.5t-7.5 -9.5l-183 -158l-7 89q13 11 30 25.5t25 19.5q17 14 40.5 34t44.5 42.5t35.5 46.5t14.5 47q0 15 -10 23.5t-24.5 13.5
t-30 6.5t-26.5 1.5q-21 0 -35 -5t-25.5 -13.5t-22 -20t-25.5 -24.5q-1 0 -4.5 -2t-4.5 -2l-22 119q13 14 24.5 27t23.5 30q3 6 6 16t2.5 18.5t-6.5 13t-20 0.5l-9.5 -9t-20 -20t-19.5 -20.5t-9 -10.5l4 -203l21 -174h1z" />
    <glyph glyph-name="agrave" unicode="&#xe0;" horiz-adv-x="399" 
d="M256 279q-9 -16 -20.5 -38.5t-24.5 -48t-28.5 -51t-32 -46.5t-34.5 -35.5t-37 -17.5q-8 0 -18 1.5t-20 5t-16.5 10t-6.5 17.5q1 102 15 185.5t44 147t77 105.5t114 60q2 0 7.5 0.5t7.5 0.5q30 1 43.5 -27.5t20 -90t9 -158t10.5 -231.5q3 -11 3.5 -19t0.5 -19
q0 -15 -9 -22.5t-23 -7.5q-29 0 -41 16t-16 43q0 1 -1.5 16t-4 34.5t-4.5 39.5t-3 33v4q-2 10 -2.5 25t-2.5 29q-2 17 -3 34zM234 477q-27 -20 -53 -54t-37 -66q-5 -15 -11 -41t-10.5 -51.5t-7.5 -47t-3 -27.5q1 0 2.5 2t2.5 3q62 60 87.5 129.5t29.5 152.5zM275 608
q-11 -18 -28.5 -15t-35.5 15.5t-34.5 29t-24.5 25.5l-11 11t-9.5 13t-4 14t5.5 15q11 15 25 19t30 -7q15 -21 31 -33t29.5 -23.5t21.5 -25.5t5 -38z" />
    <glyph glyph-name="aacute" unicode="&#xe1;" horiz-adv-x="399" 
d="M256 279q-9 -16 -20.5 -38.5t-24.5 -48t-28.5 -51t-32 -46.5t-34.5 -35.5t-37 -17.5q-8 0 -18 1.5t-20 5t-16.5 10t-6.5 17.5q1 102 15 185.5t44 147t77 105.5t114 60q2 0 7.5 0.5t7.5 0.5q30 1 43.5 -27.5t20 -90t9 -158t10.5 -231.5q3 -11 3.5 -19t0.5 -19
q0 -15 -9 -22.5t-23 -7.5q-29 0 -41 16t-16 43q0 1 -1.5 16t-4 34.5t-4.5 39.5t-3 33v4q-2 10 -2.5 25t-2.5 29q-2 17 -3 34zM234 477q-27 -20 -53 -54t-37 -66q-5 -15 -11 -41t-10.5 -51.5t-7.5 -47t-3 -27.5q1 0 2.5 2t2.5 3q62 60 87.5 129.5t29.5 152.5zM129 629
q-3 26 4.5 41t20 27t27.5 25t29 36q15 12 28 8t24 -21q6 -9 5.5 -16.5t-4.5 -15t-9.5 -13.5t-9.5 -12q-8 -10 -23 -27.5t-32 -31t-33.5 -16.5t-26.5 16z" />
    <glyph glyph-name="acircumflex" unicode="&#xe2;" horiz-adv-x="399" 
d="M145 821q1 2 3.5 8.5t5.5 13.5t6 13.5t4 9.5q4 8 14.5 9.5t20.5 1.5q8 0 14 -1.5t12 -7.5q3 -5 11.5 -17.5t18.5 -26t18.5 -26t11.5 -16.5q1 -1 4 -4.5t3 -4.5q3 -4 10 -14.5l15 -22.5t15 -23t10 -15q3 -5 3.5 -7.5t0.5 -7.5q0 -11 -9 -15t-24 -4q-13 0 -23.5 5.5
t-15.5 13.5l-67 99l-4 -3q-3 -4 -6 -11t-10.5 -21t-20.5 -36.5t-36 -58.5q-2 -2 -10.5 -5t-11.5 -3q-6 0 -15.5 2.5t-17.5 6.5t-12.5 9.5t-0.5 12.5zM256 279q-9 -16 -20.5 -38.5t-24.5 -48t-28.5 -51t-32 -46.5t-34.5 -35.5t-37 -17.5q-8 0 -18 1.5t-20 5t-16.5 10
t-6.5 17.5q1 102 15 185.5t44 147t77 105.5t114 60q2 0 7.5 0.5t7.5 0.5q30 1 43.5 -27.5t20 -90t9 -158t10.5 -231.5q3 -11 3.5 -19t0.5 -19q0 -15 -9 -22.5t-23 -7.5q-29 0 -41 16t-16 43q0 1 -1.5 16t-4 34.5t-4.5 39.5t-3 33v4q-2 10 -2.5 25t-2.5 29q-2 17 -3 34z
M234 477q-27 -20 -53 -54t-37 -66q-5 -15 -11 -41t-10.5 -51.5t-7.5 -47t-3 -27.5q1 0 2.5 2t2.5 3q62 60 87.5 129.5t29.5 152.5z" />
    <glyph glyph-name="atilde" unicode="&#xe3;" horiz-adv-x="399" 
d="M94 620q0 5 0.5 8.5t1.5 8.5q7 21 14.5 42t18 39.5t24 32.5t31.5 20q7 0 13 -1.5t12 -9.5l57 -72q8 -5 13.5 -12t15.5 -7q7 0 13 11t9 16q6 9 10.5 20t10 21t12 16.5t16.5 6.5q11 0 14.5 -9t3.5 -23q0 -21 -7 -44.5t-18.5 -42.5t-25.5 -31.5t-29 -12.5q-18 -1 -34 8
t-30.5 22.5t-28.5 28.5t-27 26q-10 0 -18.5 -14t-16 -30.5t-15 -30t-14.5 -13.5t-16.5 7t-9.5 19zM256 279q-9 -16 -20.5 -38.5t-24.5 -48t-28.5 -51t-32 -46.5t-34.5 -35.5t-37 -17.5q-8 0 -18 1.5t-20 5t-16.5 10t-6.5 17.5q1 102 15 185.5t44 147t77 105.5t114 60
q2 0 7.5 0.5t7.5 0.5q30 1 43.5 -27.5t20 -90t9 -158t10.5 -231.5q3 -11 3.5 -19t0.5 -19q0 -15 -9 -22.5t-23 -7.5q-29 0 -41 16t-16 43q0 1 -1.5 16t-4 34.5t-4.5 39.5t-3 33v4q-2 10 -2.5 25t-2.5 29q-2 17 -3 34zM234 477q-27 -20 -53 -54t-37 -66q-5 -15 -11 -41
t-10.5 -51.5t-7.5 -47t-3 -27.5q1 0 2.5 2t2.5 3q62 60 87.5 129.5t29.5 152.5z" />
    <glyph glyph-name="adieresis" unicode="&#xe4;" horiz-adv-x="399" 
d="M256 279q-9 -16 -20.5 -38.5t-24.5 -48t-28.5 -51t-32 -46.5t-34.5 -35.5t-37 -17.5q-8 0 -18 1.5t-20 5t-16.5 10t-6.5 17.5q1 102 15 185.5t44 147t77 105.5t114 60q2 0 7.5 0.5t7.5 0.5q30 1 43.5 -27.5t20 -90t9 -158t10.5 -231.5q3 -11 3.5 -19t0.5 -19
q0 -15 -9 -22.5t-23 -7.5q-29 0 -41 16t-16 43q0 1 -1.5 16t-4 34.5t-4.5 39.5t-3 33v4q-2 10 -2.5 25t-2.5 29q-2 17 -3 34zM234 477q-27 -20 -53 -54t-37 -66q-5 -15 -11 -41t-10.5 -51.5t-7.5 -47t-3 -27.5q1 0 2.5 2t2.5 3q62 60 87.5 129.5t29.5 152.5zM93 710
q0 14 10.5 26t24.5 12q17 0 27.5 -9t20.5 -20v-3q0 -17 -11.5 -30.5t-30.5 -13.5q-13 0 -27 12t-14 26zM222 710q0 14 10.5 26t24.5 12q17 0 27.5 -9t20.5 -20v-3q0 -17 -11.5 -30.5t-30.5 -13.5q-13 0 -27 12t-14 26z" />
    <glyph glyph-name="aring" unicode="&#xe5;" horiz-adv-x="399" 
d="M223 716q8 0 14.5 2t15.5 2q21 0 36 -9t24.5 -21.5t13.5 -27t4 -25.5q0 -13 -10.5 -29.5t-27 -30.5t-38 -24t-43.5 -10q-23 1 -46 12.5t-30 33t10.5 53.5t75.5 74h1zM273 639q-1 25 -13.5 31.5t-27.5 0.5t-27 -20.5t-13 -31.5q5 -15 18.5 -18.5t27.5 1t25 15t10 22.5z
M256 279q-9 -16 -20.5 -38.5t-24.5 -48t-28.5 -51t-32 -46.5t-34.5 -35.5t-37 -17.5q-8 0 -18 1.5t-20 5t-16.5 10t-6.5 17.5q1 102 15 185.5t44 147t77 105.5t114 60q2 0 7.5 0.5t7.5 0.5q30 1 43.5 -27.5t20 -90t9 -158t10.5 -231.5q3 -11 3.5 -19t0.5 -19q0 -15 -9 -22.5
t-23 -7.5q-29 0 -41 16t-16 43q0 1 -1.5 16t-4 34.5t-4.5 39.5t-3 33v4q-2 10 -2.5 25t-2.5 29q-2 17 -3 34zM234 477q-27 -20 -53 -54t-37 -66q-5 -15 -11 -41t-10.5 -51.5t-7.5 -47t-3 -27.5q1 0 2.5 2t2.5 3q62 60 87.5 129.5t29.5 152.5z" />
    <glyph glyph-name="ae" unicode="&#xe6;" horiz-adv-x="722" 
d="M256 279q-9 -16 -20.5 -38.5t-24.5 -48t-28.5 -51t-32 -46.5t-34.5 -35.5t-37 -17.5q-8 0 -18 1.5t-20 5t-16.5 10t-6.5 17.5q1 102 15 185.5t44 147t77 105.5t114 60q2 0 7.5 0.5t7.5 0.5q30 1 43.5 -27.5t20 -90t9 -158t10.5 -231.5q3 -11 3.5 -19t0.5 -19
q0 -15 -9 -22.5t-23 -7.5q-29 0 -41 16t-16 43q0 1 -1.5 16t-4 34.5t-4.5 39.5t-3 33v4q-2 10 -2.5 25t-2.5 29q-2 17 -3 34zM234 477q-27 -20 -53 -54t-37 -66q-5 -15 -11 -41t-10.5 -51.5t-7.5 -47t-3 -27.5q1 0 2.5 2t2.5 3q62 60 87.5 129.5t29.5 152.5zM708 330
q-2 -18 -4.5 -28t-8.5 -18t-17 -16.5t-30 -24t-47 -40.5t-68 -65q-16 -15 -33 -31t-35.5 -28.5t-38.5 -20.5t-42 -8q-43 0 -63 29t-20 67q0 25 1.5 42t7.5 44q-11 10 -19 17.5t-8 20.5q0 12 5.5 16t13 5.5t14.5 3.5t10 8q2 6 7.5 22t11.5 33.5t11.5 33t7.5 21.5
q7 17 15.5 34.5t20 31.5t27 23t36.5 9q12 0 29.5 -11t33.5 -26.5t27 -32.5t11 -29q0 -15 -7 -27.5t-17.5 -23t-22.5 -19.5t-22 -17q-1 0 -4 -2t-5 -3l-4.5 -4.5l-7.5 -7.5t-7.5 -8t-4.5 -5q-3 -3 -11.5 -9.5t-18.5 -14t-18.5 -14t-11.5 -8.5l-4 -8q-2 -4 -3.5 -17.5
t-3.5 -30.5t-3.5 -34.5t-1.5 -28.5q0 -1 1 -2q2 -2 3 -2q8 0 15 7t15 10l160 148l41 63q5 7 19.5 15.5t29.5 9t26.5 -9.5t11.5 -39zM488 408q5 4 4 12t-5.5 14t-11.5 7.5t-13 -7.5q-3 -4 -10.5 -16t-15 -24.5t-12.5 -21.5t-2 -7z" />
    <glyph glyph-name="ccedilla" unicode="&#xe7;" horiz-adv-x="354" 
d="M23 120q-7 30 0.5 71t24 82.5t41 78.5t52 59t56 24.5t54.5 -25.5q0 -1 1 -5t2 -16.5t1.5 -35t0.5 -61.5q1 -2 2.5 -6.5t1.5 -6.5q-3 -11 -11.5 -20.5t-21.5 -9.5q-17 0 -27.5 5.5t-15.5 26.5q2 3 1 12.5t-3.5 21.5t-4.5 24t-2 19q-1 0 -2.5 -1.5l-2.5 -2.5
q-17 -30 -31.5 -66.5t-22 -74t-5 -74.5t21.5 -67q14 0 26 11.5t20 21.5q17 20 33.5 41t30.5 44q6 10 9 18t7.5 13t11.5 8t21 3q16 0 30 -7.5t14 -24.5q0 -23 -20.5 -57.5t-50 -66.5t-62.5 -54.5t-58 -22.5q-24 0 -46.5 9.5t-39 25.5t-26.5 38t-10 48zM106 -278q0 5 0.5 9
t4.5 8q12 15 34.5 20t46 8.5t43.5 10.5t28 28q8 18 -2.5 26t-28.5 10t-36 0.5t-25 -2.5q-14 0 -34.5 2t-40 8.5t-33 18.5t-13.5 32q6 33 20 60t31.5 45t35 25.5t30 2t16.5 -26t-6 -57.5q-6 -7 -15 -19.5t-9 -14.5v-1q26 -5 58 -3.5t62.5 -1.5t57 -17t42.5 -51
q9 -42 -1 -64.5t-37 -36t-69 -24t-95 -29.5q-2 -3 -9.5 -4t-12.5 -1q-14 0 -28.5 12t-14.5 27z" />
    <glyph glyph-name="egrave" unicode="&#xe8;" horiz-adv-x="445" 
d="M441 284q-2 -18 -4.5 -28t-8.5 -18t-17 -16.5t-30 -24t-47 -40.5t-68 -65q-16 -15 -33 -31t-35.5 -28.5t-38.5 -20.5t-42 -8q-43 0 -63 29t-20 67q0 25 1.5 42t7.5 44q-11 10 -19 17.5t-8 20.5q0 12 5.5 16t13 5.5t14.5 3.5t10 8q2 6 7.5 22t11.5 33.5t11.5 33t7.5 21.5
q7 17 15.5 34.5t20 31.5t27 23t36.5 9q12 0 29.5 -11t33.5 -26.5t27 -32.5t11 -29q0 -15 -7 -27.5t-17.5 -23t-22.5 -19.5t-22 -17q-1 0 -4 -2t-5 -3l-4.5 -4.5l-7.5 -7.5t-7.5 -8t-4.5 -5q-3 -3 -11.5 -9.5t-18.5 -14t-18.5 -14t-11.5 -8.5l-4 -8q-2 -4 -3.5 -17.5
t-3.5 -30.5t-3.5 -34.5t-1.5 -28.5q0 -1 1 -2q2 -2 3 -2q8 0 15 7t15 10l160 148l41 63q5 7 19.5 15.5t29.5 9t26.5 -9.5t11.5 -39zM221 362q5 4 4 12t-5.5 14t-11.5 7.5t-13 -7.5q-3 -4 -10.5 -16t-15 -24.5t-12.5 -21.5t-2 -7zM298 608q-11 -18 -28.5 -15t-35.5 15.5
t-34.5 29t-24.5 25.5l-11 11t-9.5 13t-4 14t5.5 15q11 15 25 19t30 -7q15 -21 31 -33t29.5 -23.5t21.5 -25.5t5 -38z" />
    <glyph glyph-name="eacute" unicode="&#xe9;" horiz-adv-x="445" 
d="M441 284q-2 -18 -4.5 -28t-8.5 -18t-17 -16.5t-30 -24t-47 -40.5t-68 -65q-16 -15 -33 -31t-35.5 -28.5t-38.5 -20.5t-42 -8q-43 0 -63 29t-20 67q0 25 1.5 42t7.5 44q-11 10 -19 17.5t-8 20.5q0 12 5.5 16t13 5.5t14.5 3.5t10 8q2 6 7.5 22t11.5 33.5t11.5 33t7.5 21.5
q7 17 15.5 34.5t20 31.5t27 23t36.5 9q12 0 29.5 -11t33.5 -26.5t27 -32.5t11 -29q0 -15 -7 -27.5t-17.5 -23t-22.5 -19.5t-22 -17q-1 0 -4 -2t-5 -3l-4.5 -4.5l-7.5 -7.5t-7.5 -8t-4.5 -5q-3 -3 -11.5 -9.5t-18.5 -14t-18.5 -14t-11.5 -8.5l-4 -8q-2 -4 -3.5 -17.5
t-3.5 -30.5t-3.5 -34.5t-1.5 -28.5q0 -1 1 -2q2 -2 3 -2q8 0 15 7t15 10l160 148l41 63q5 7 19.5 15.5t29.5 9t26.5 -9.5t11.5 -39zM221 362q5 4 4 12t-5.5 14t-11.5 7.5t-13 -7.5q-3 -4 -10.5 -16t-15 -24.5t-12.5 -21.5t-2 -7zM115 527q-3 26 4.5 41t20 27t27.5 25t29 36
q15 12 28 8t24 -21q6 -9 5.5 -16.5t-4.5 -15t-9.5 -13.5t-9.5 -12q-8 -10 -23 -27.5t-32 -31t-33.5 -16.5t-26.5 16z" />
    <glyph glyph-name="ecircumflex" unicode="&#xea;" horiz-adv-x="445" 
d="M125 678q1 2 3.5 8.5t5.5 13.5t6 13.5t4 9.5q4 8 14.5 9.5t20.5 1.5q8 0 14 -1.5t12 -7.5q3 -5 11.5 -17.5t18.5 -26t18.5 -26t11.5 -16.5q1 -1 4 -4.5t3 -4.5q3 -4 10 -14.5l15 -22.5t15 -23t10 -15q3 -5 3.5 -7.5t0.5 -7.5q0 -11 -9 -15t-24 -4q-13 0 -23.5 5.5
t-15.5 13.5l-67 99l-4 -3q-3 -4 -6 -11t-10.5 -21t-20.5 -36.5t-36 -58.5q-2 -2 -10.5 -5t-11.5 -3q-6 0 -15.5 2.5t-17.5 6.5t-12.5 9.5t-0.5 12.5zM441 284q-2 -18 -4.5 -28t-8.5 -18t-17 -16.5t-30 -24t-47 -40.5t-68 -65q-16 -15 -33 -31t-35.5 -28.5t-38.5 -20.5
t-42 -8q-43 0 -63 29t-20 67q0 25 1.5 42t7.5 44q-11 10 -19 17.5t-8 20.5q0 12 5.5 16t13 5.5t14.5 3.5t10 8q2 6 7.5 22t11.5 33.5t11.5 33t7.5 21.5q7 17 15.5 34.5t20 31.5t27 23t36.5 9q12 0 29.5 -11t33.5 -26.5t27 -32.5t11 -29q0 -15 -7 -27.5t-17.5 -23
t-22.5 -19.5t-22 -17q-1 0 -4 -2t-5 -3l-4.5 -4.5l-7.5 -7.5t-7.5 -8t-4.5 -5q-3 -3 -11.5 -9.5t-18.5 -14t-18.5 -14t-11.5 -8.5l-4 -8q-2 -4 -3.5 -17.5t-3.5 -30.5t-3.5 -34.5t-1.5 -28.5q0 -1 1 -2q2 -2 3 -2q8 0 15 7t15 10l160 148l41 63q5 7 19.5 15.5t29.5 9
t26.5 -9.5t11.5 -39zM221 362q5 4 4 12t-5.5 14t-11.5 7.5t-13 -7.5q-3 -4 -10.5 -16t-15 -24.5t-12.5 -21.5t-2 -7z" />
    <glyph glyph-name="edieresis" unicode="&#xeb;" horiz-adv-x="445" 
d="M441 284q-2 -18 -4.5 -28t-8.5 -18t-17 -16.5t-30 -24t-47 -40.5t-68 -65q-16 -15 -33 -31t-35.5 -28.5t-38.5 -20.5t-42 -8q-43 0 -63 29t-20 67q0 25 1.5 42t7.5 44q-11 10 -19 17.5t-8 20.5q0 12 5.5 16t13 5.5t14.5 3.5t10 8q2 6 7.5 22t11.5 33.5t11.5 33t7.5 21.5
q7 17 15.5 34.5t20 31.5t27 23t36.5 9q12 0 29.5 -11t33.5 -26.5t27 -32.5t11 -29q0 -15 -7 -27.5t-17.5 -23t-22.5 -19.5t-22 -17q-1 0 -4 -2t-5 -3l-4.5 -4.5l-7.5 -7.5t-7.5 -8t-4.5 -5q-3 -3 -11.5 -9.5t-18.5 -14t-18.5 -14t-11.5 -8.5l-4 -8q-2 -4 -3.5 -17.5
t-3.5 -30.5t-3.5 -34.5t-1.5 -28.5q0 -1 1 -2q2 -2 3 -2q8 0 15 7t15 10l160 148l41 63q5 7 19.5 15.5t29.5 9t26.5 -9.5t11.5 -39zM221 362q5 4 4 12t-5.5 14t-11.5 7.5t-13 -7.5q-3 -4 -10.5 -16t-15 -24.5t-12.5 -21.5t-2 -7zM67 564q0 14 10.5 26t24.5 12q17 0 27.5 -9
t20.5 -20v-3q0 -17 -11.5 -30.5t-30.5 -13.5q-13 0 -27 12t-14 26zM196 564q0 14 10.5 26t24.5 12q17 0 27.5 -9t20.5 -20v-3q0 -17 -11.5 -30.5t-30.5 -13.5q-13 0 -27 12t-14 26z" />
    <glyph glyph-name="igrave" unicode="&#xec;" horiz-adv-x="173" 
d="M70 38q-10 100 -17 171t-12 119t-8.5 76.5t-5.5 43t-3 19.5t-1 6v4q0 11 9.5 18.5t19.5 7.5q15 0 32.5 -5t23.5 -21q9 -49 12.5 -99t6 -99.5t7 -99.5t16.5 -99q0 -2 1.5 -8t3 -13t2.5 -13t1 -8v-2q0 -1 1 -2q0 -12 -11 -24t-23 -10q-3 1 -14.5 3.5t-15.5 4.5q-3 1 -8 4.5
t-9.5 7.5t-7.5 9t0 9zM162 608q-11 -18 -28.5 -15t-35.5 15.5t-34.5 29t-24.5 25.5l-11 11t-9.5 13t-4 14t5.5 15q11 15 25 19t30 -7q15 -21 31 -33t29.5 -23.5t21.5 -25.5t5 -38z" />
    <glyph glyph-name="iacute" unicode="&#xed;" horiz-adv-x="173" 
d="M70 38q-3 -4 0 -9t7.5 -9t9.5 -7.5t8 -4.5q4 -2 15.5 -4.5t14.5 -3.5q12 -2 23 10t11 24q-1 1 -1 2v2q0 2 -1 8t-2.5 13t-3 13t-1.5 8q-12 49 -16.5 99t-7 99.5t-6 99.5t-12.5 99q-6 16 -23.5 21t-32.5 5q-10 0 -19.5 -7.5t-9.5 -18.5v-4q0 -1 1 -6t3 -19.5t5.5 -43
t8.5 -76.5t12 -119t17 -171zM16 629q-3 26 4.5 41t20 27t27.5 25t29 36q15 12 28 8t24 -21q6 -9 5.5 -16.5t-4.5 -15t-9.5 -13.5t-9.5 -12q-8 -10 -23 -27.5t-32 -31t-33.5 -16.5t-26.5 16z" />
    <glyph glyph-name="icircumflex" unicode="&#xee;" horiz-adv-x="173" 
d="M70 38q-10 100 -17 171t-12 119t-8.5 76.5t-5.5 43t-3 19.5t-1 6v4q0 11 9.5 18.5t19.5 7.5q15 0 32.5 -5t23.5 -21q9 -49 12.5 -99t6 -99.5t7 -99.5t16.5 -99q0 -2 1.5 -8t3 -13t2.5 -13t1 -8v-2q0 -1 1 -2q0 -12 -11 -24t-23 -10q-3 1 -14.5 3.5t-15.5 4.5q-3 1 -8 4.5
t-9.5 7.5t-7.5 9t0 9zM33 821q1 2 3.5 8.5t5.5 13.5t6 13.5t4 9.5q4 8 14.5 9.5t20.5 1.5q8 0 14 -1.5t12 -7.5q3 -5 11.5 -17.5t18.5 -26t18.5 -26t11.5 -16.5q1 -1 4 -4.5t3 -4.5q3 -4 10 -14.5l15 -22.5t15 -23t10 -15q3 -5 3.5 -7.5t0.5 -7.5q0 -11 -9 -15t-24 -4
q-13 0 -23.5 5.5t-15.5 13.5l-67 99l-4 -3q-3 -4 -6 -11t-10.5 -21t-20.5 -36.5t-36 -58.5q-2 -2 -10.5 -5t-11.5 -3q-6 0 -15.5 2.5t-17.5 6.5t-12.5 9.5t-0.5 12.5z" />
    <glyph glyph-name="idieresis" unicode="&#xef;" horiz-adv-x="173" 
d="M70 38q-10 100 -17 171t-12 119t-8.5 76.5t-5.5 43t-3 19.5t-1 6v4q0 11 9.5 18.5t19.5 7.5q15 0 32.5 -5t23.5 -21q9 -49 12.5 -99t6 -99.5t7 -99.5t16.5 -99q0 -2 1.5 -8t3 -13t2.5 -13t1 -8v-2q0 -1 1 -2q0 -12 -11 -24t-23 -10q-3 1 -14.5 3.5t-15.5 4.5q-3 1 -8 4.5
t-9.5 7.5t-7.5 9t0 9zM-19 710q0 14 10.5 26t24.5 12q17 0 27.5 -9t20.5 -20v-3q0 -17 -11.5 -30.5t-30.5 -13.5q-13 0 -27 12t-14 26zM110 710q0 14 10.5 26t24.5 12q17 0 27.5 -9t20.5 -20v-3q0 -17 -11.5 -30.5t-30.5 -13.5q-13 0 -27 12t-14 26z" />
    <glyph glyph-name="eth" unicode="&#xf0;" horiz-adv-x="371" 
d="M201 1q-37 7 -68.5 25t-54.5 42t-36 52.5t-13 57.5q0 18 9 36t37 18q64 2 105 -26t60 -73l-69 200l-56 -21q-8 12 -11 30.5t-8 26.5q-1 2 5 4t13.5 4t13.5 4.5t3 4.5q-21 32 -21 56.5t12.5 32t32 -7t36.5 -60.5l61 33l33 -52q2 -3 -8.5 -6.5t-24 -7t-24 -7t-8.5 -6.5
q24 -35 46 -74.5t36.5 -79t19.5 -76t-5 -65t-38 -46t-78 -19.5zM175 129q-22 31 -42 35.5t-29.5 -6.5t-6 -32t29.5 -39q15 -11 33.5 -14.5t29.5 1.5t10 18.5t-25 36.5z" />
    <glyph glyph-name="ntilde" unicode="&#xf1;" horiz-adv-x="414" 
d="M48 591q0 5 0.5 8.5t1.5 8.5q7 21 14.5 42t18 39.5t24 32.5t31.5 20q7 0 13 -1.5t12 -9.5l57 -72q8 -5 13.5 -12t15.5 -7q7 0 13 11t9 16q6 9 10.5 20t10 21t12 16.5t16.5 6.5q11 0 14.5 -9t3.5 -23q0 -21 -7 -44.5t-18.5 -42.5t-25.5 -31.5t-29 -12.5q-18 -1 -34 8
t-30.5 22.5t-28.5 28.5t-27 26q-10 0 -18.5 -14t-16 -30.5t-15 -30t-14.5 -13.5t-16.5 7t-9.5 19zM308 34q-14 20 -23.5 55.5t-18 75t-15.5 77t-14.5 60t-16.5 25.5t-21 -27l-87 -268q-5 -14 -12 -19.5t-23 -5.5q-8 0 -17 2.5t-17 7.5t-13.5 12t-6.5 16q3 12 5.5 44t3.5 74
t1.5 88.5t0 87t-1.5 70t-2 38.5q0 10 0.5 20.5t3 19.5t9 14.5t20.5 5.5q19 0 35.5 -16t16.5 -34q0 -26 -2.5 -51.5t-2.5 -51.5v-27t4 -27q3 8 10 28t15.5 42t15.5 41.5t10 27.5q7 20 21 38.5t37 20.5q15 1 27.5 -8t21.5 -23.5t15 -30t9 -26.5l54 -249l42 -114q1 -1 1 -5.5
v-6.5q0 -12 -5.5 -23.5t-19.5 -11.5q-17 0 -35 9.5t-25 24.5z" />
    <glyph glyph-name="ograve" unicode="&#xf2;" horiz-adv-x="338" 
d="M26 153l37 257q2 13 11.5 19t21.5 6q22 0 35 -12.5t22 -30.5h1q12 0 21.5 4.5t23.5 4.5q32 0 54.5 -20t36.5 -48.5t20.5 -61.5t6.5 -58q0 -30 -15.5 -67t-41 -70t-57.5 -55t-65 -22q-30 0 -51.5 14t-35 35.5t-19.5 48.5t-6 53v3zM110 147q2 -10 4 -23t6 -23.5t11.5 -16
t21.5 -0.5q13 12 28 27t28.5 32t22.5 36t9 40q4 34 -5 62.5t-25.5 41t-37.5 3t-42 -51.5q-12 -26 -16.5 -60.5t-4.5 -63.5v-3zM228 511q-11 -18 -28.5 -15t-35.5 15.5t-34.5 29t-24.5 25.5l-11 11t-9.5 13t-4 14t5.5 15q11 15 25 19t30 -7q15 -21 31 -33t29.5 -23.5
t21.5 -25.5t5 -38z" />
    <glyph glyph-name="oacute" unicode="&#xf3;" horiz-adv-x="338" 
d="M26 153l37 257q2 13 11.5 19t21.5 6q22 0 35 -12.5t22 -30.5h1q12 0 21.5 4.5t23.5 4.5q32 0 54.5 -20t36.5 -48.5t20.5 -61.5t6.5 -58q0 -30 -15.5 -67t-41 -70t-57.5 -55t-65 -22q-30 0 -51.5 14t-35 35.5t-19.5 48.5t-6 53v3zM110 147q2 -10 4 -23t6 -23.5t11.5 -16
t21.5 -0.5q13 12 28 27t28.5 32t22.5 36t9 40q4 34 -5 62.5t-25.5 41t-37.5 3t-42 -51.5q-12 -26 -16.5 -60.5t-4.5 -63.5v-3zM98 535q-3 26 4.5 41t20 27t27.5 25t29 36q15 12 28 8t24 -21q6 -9 5.5 -16.5t-4.5 -15t-9.5 -13.5t-9.5 -12q-8 -10 -23 -27.5t-32 -31
t-33.5 -16.5t-26.5 16z" />
    <glyph glyph-name="ocircumflex" unicode="&#xf4;" horiz-adv-x="338" 
d="M121 692q1 2 3.5 8.5t5.5 13.5t6 13.5t4 9.5q4 8 14.5 9.5t20.5 1.5q8 0 14 -1.5t12 -7.5q3 -5 11.5 -17.5t18.5 -26t18.5 -26t11.5 -16.5q1 -1 4 -4.5t3 -4.5q3 -4 10 -14.5l15 -22.5t15 -23t10 -15q3 -5 3.5 -7.5t0.5 -7.5q0 -11 -9 -15t-24 -4q-13 0 -23.5 5.5
t-15.5 13.5l-67 99l-4 -3q-3 -4 -6 -11t-10.5 -21t-20.5 -36.5t-36 -58.5q-2 -2 -10.5 -5t-11.5 -3q-6 0 -15.5 2.5t-17.5 6.5t-12.5 9.5t-0.5 12.5zM26 153l37 257q2 13 11.5 19t21.5 6q22 0 35 -12.5t22 -30.5h1q12 0 21.5 4.5t23.5 4.5q32 0 54.5 -20t36.5 -48.5
t20.5 -61.5t6.5 -58q0 -30 -15.5 -67t-41 -70t-57.5 -55t-65 -22q-30 0 -51.5 14t-35 35.5t-19.5 48.5t-6 53v3zM110 147q2 -10 4 -23t6 -23.5t11.5 -16t21.5 -0.5q13 12 28 27t28.5 32t22.5 36t9 40q4 34 -5 62.5t-25.5 41t-37.5 3t-42 -51.5q-12 -26 -16.5 -60.5
t-4.5 -63.5v-3z" />
    <glyph glyph-name="otilde" unicode="&#xf5;" horiz-adv-x="338" 
d="M25 502q0 5 0.5 8.5t1.5 8.5q7 21 14.5 42t18 39.5t24 32.5t31.5 20q7 0 13 -1.5t12 -9.5l57 -72q8 -5 13.5 -12t15.5 -7q7 0 13 11t9 16q6 9 10.5 20t10 21t12 16.5t16.5 6.5q11 0 14.5 -9t3.5 -23q0 -21 -7 -44.5t-18.5 -42.5t-25.5 -31.5t-29 -12.5q-18 -1 -34 8
t-30.5 22.5t-28.5 28.5t-27 26q-10 0 -18.5 -14t-16 -30.5t-15 -30t-14.5 -13.5t-16.5 7t-9.5 19zM26 153l37 257q2 13 11.5 19t21.5 6q22 0 35 -12.5t22 -30.5h1q12 0 21.5 4.5t23.5 4.5q32 0 54.5 -20t36.5 -48.5t20.5 -61.5t6.5 -58q0 -30 -15.5 -67t-41 -70t-57.5 -55
t-65 -22q-30 0 -51.5 14t-35 35.5t-19.5 48.5t-6 53v3zM110 147q2 -10 4 -23t6 -23.5t11.5 -16t21.5 -0.5q13 12 28 27t28.5 32t22.5 36t9 40q4 34 -5 62.5t-25.5 41t-37.5 3t-42 -51.5q-12 -26 -16.5 -60.5t-4.5 -63.5v-3z" />
    <glyph glyph-name="odieresis" unicode="&#xf6;" horiz-adv-x="338" 
d="M26 153l37 257q2 13 11.5 19t21.5 6q22 0 35 -12.5t22 -30.5h1q12 0 21.5 4.5t23.5 4.5q32 0 54.5 -20t36.5 -48.5t20.5 -61.5t6.5 -58q0 -30 -15.5 -67t-41 -70t-57.5 -55t-65 -22q-30 0 -51.5 14t-35 35.5t-19.5 48.5t-6 53v3zM110 147q2 -10 4 -23t6 -23.5t11.5 -16
t21.5 -0.5q13 12 28 27t28.5 32t22.5 36t9 40q4 34 -5 62.5t-25.5 41t-37.5 3t-42 -51.5q-12 -26 -16.5 -60.5t-4.5 -63.5v-3zM66 527q0 14 10.5 26t24.5 12q17 0 27.5 -9t20.5 -20v-3q0 -17 -11.5 -30.5t-30.5 -13.5q-13 0 -27 12t-14 26zM195 527q0 14 10.5 26t24.5 12
q17 0 27.5 -9t20.5 -20v-3q0 -17 -11.5 -30.5t-30.5 -13.5q-13 0 -27 12t-14 26z" />
    <glyph glyph-name="divide" unicode="&#xf7;" horiz-adv-x="376" 
d="M113 154q0 14 8.5 27.5t22.5 13.5q9 0 19.5 -4t19.5 -11t14 -16.5t4 -20.5q-2 -14 -15 -22t-24 -8q-18 0 -33.5 10.5t-15.5 30.5zM117 358q-2 20 16 29t34 9q4 0 9.5 -4.5t11 -11t9.5 -13t4 -9.5q4 -14 -9 -23.5t-25 -9.5q-14 0 -31 8t-19 25zM14 252q0 17 12 24.5
t26 10.5l251 25q17 0 32 -6t15 -26q0 -5 -6.5 -11t-14.5 -11t-17 -8.5t-13 -1.5l-247 -27q-13 0 -25.5 8.5t-12.5 22.5z" />
    <glyph glyph-name="oslash" unicode="&#xf8;" horiz-adv-x="338" 
d="M26 153l37 257q2 13 11.5 19t21.5 6q22 0 35 -12.5t22 -30.5h1q12 0 21.5 4.5t23.5 4.5q32 0 54.5 -20t36.5 -48.5t20.5 -61.5t6.5 -58q0 -30 -15.5 -67t-41 -70t-57.5 -55t-65 -22q-30 0 -51.5 14t-35 35.5t-19.5 48.5t-6 53v3zM110 147q2 -10 4 -23t6 -23.5t11.5 -16
t21.5 -0.5q13 12 28 27t28.5 32t22.5 36t9 40q4 34 -5 62.5t-25.5 41t-37.5 3t-42 -51.5q-12 -26 -16.5 -60.5t-4.5 -63.5v-3zM92.3486 -40.6846q4.08789 27.6152 10.627 52.0664q6.54004 24.4512 13.8965 52.0664v4.60254l116.895 425.159q2.45215 9.78027 8.99219 13.5205
q6.53906 3.73926 20.4355 3.73926h1.63477q15.5322 -5.75293 20.0273 -9.49219q4.49609 -3.74023 4.49609 -15.2461q0 -6.9043 -2.45215 -14.3828q-2.45215 -7.47949 -4.08691 -14.3838q-0.817383 -1.72559 -2.86133 -8.05371q-2.04395 -6.3291 -4.49609 -13.8076
q-2.45215 -7.47949 -4.49609 -13.8076q-2.04297 -6.3291 -2.86035 -8.05469v-2.30176l-92.3711 -325.629q-7.35742 -32.793 -15.9404 -65.2988t-15.123 -65.2988q-2.45215 -6.90332 -10.2178 -10.0674q-7.76562 -3.16504 -16.7578 -3.16504t-17.166 4.31543
q-8.1748 4.31445 -8.1748 11.7939v1.72559z" />
    <glyph glyph-name="ugrave" unicode="&#xf9;" horiz-adv-x="350" 
d="M221 95q-7 -15 -14 -32.5t-16 -31.5t-22 -23.5t-33 -9.5q-35 0 -58 17.5t-37.5 44t-20.5 57.5t-6 58l8 242q-1 7 3.5 14.5t12 14t17 10.5t17.5 4q23 0 39 -14.5t16 -37.5v-10q-11 -18 -19 -47t-12.5 -62.5t-5.5 -68.5t2.5 -64t11.5 -49.5t21 -24.5q5 0 15.5 5t22.5 19
t25 39.5t23 67.5t15 102t3 144q4 11 11.5 12t15.5 1q9 0 15 -0.5t13 -7.5q5 -5 11 -15t6 -11l17 -443q0 -15 -8 -25t-23 -10q-5 0 -12 1t-14 4t-12.5 7.5t-6.5 10.5l-17 100zM250 608q-11 -18 -28.5 -15t-35.5 15.5t-34.5 29t-24.5 25.5l-11 11t-9.5 13t-4 14t5.5 15
q11 15 25 19t30 -7q15 -21 31 -33t29.5 -23.5t21.5 -25.5t5 -38z" />
    <glyph glyph-name="uacute" unicode="&#xfa;" horiz-adv-x="350" 
d="M221 95q-7 -15 -14 -32.5t-16 -31.5t-22 -23.5t-33 -9.5q-35 0 -58 17.5t-37.5 44t-20.5 57.5t-6 58l8 242q-1 7 3.5 14.5t12 14t17 10.5t17.5 4q23 0 39 -14.5t16 -37.5v-10q-11 -18 -19 -47t-12.5 -62.5t-5.5 -68.5t2.5 -64t11.5 -49.5t21 -24.5q5 0 15.5 5t22.5 19
t25 39.5t23 67.5t15 102t3 144q4 11 11.5 12t15.5 1q9 0 15 -0.5t13 -7.5q5 -5 11 -15t6 -11l17 -443q0 -15 -8 -25t-23 -10q-5 0 -12 1t-14 4t-12.5 7.5t-6.5 10.5l-17 100zM104 629q-3 26 4.5 41t20 27t27.5 25t29 36q15 12 28 8t24 -21q6 -9 5.5 -16.5t-4.5 -15
t-9.5 -13.5t-9.5 -12q-8 -10 -23 -27.5t-32 -31t-33.5 -16.5t-26.5 16z" />
    <glyph glyph-name="ucircumflex" unicode="&#xfb;" horiz-adv-x="350" 
d="M121 821q1 2 3.5 8.5t5.5 13.5t6 13.5t4 9.5q4 8 14.5 9.5t20.5 1.5q8 0 14 -1.5t12 -7.5q3 -5 11.5 -17.5t18.5 -26t18.5 -26t11.5 -16.5q1 -1 4 -4.5t3 -4.5q3 -4 10 -14.5l15 -22.5t15 -23t10 -15q3 -5 3.5 -7.5t0.5 -7.5q0 -11 -9 -15t-24 -4q-13 0 -23.5 5.5
t-15.5 13.5l-67 99l-4 -3q-3 -4 -6 -11t-10.5 -21t-20.5 -36.5t-36 -58.5q-2 -2 -10.5 -5t-11.5 -3q-6 0 -15.5 2.5t-17.5 6.5t-12.5 9.5t-0.5 12.5zM221 95q-7 -15 -14 -32.5t-16 -31.5t-22 -23.5t-33 -9.5q-35 0 -58 17.5t-37.5 44t-20.5 57.5t-6 58l8 242q-1 7 3.5 14.5
t12 14t17 10.5t17.5 4q23 0 39 -14.5t16 -37.5v-10q-11 -18 -19 -47t-12.5 -62.5t-5.5 -68.5t2.5 -64t11.5 -49.5t21 -24.5q5 0 15.5 5t22.5 19t25 39.5t23 67.5t15 102t3 144q4 11 11.5 12t15.5 1q9 0 15 -0.5t13 -7.5q5 -5 11 -15t6 -11l17 -443q0 -15 -8 -25t-23 -10
q-5 0 -12 1t-14 4t-12.5 7.5t-6.5 10.5l-17 100z" />
    <glyph glyph-name="udieresis" unicode="&#xfc;" horiz-adv-x="350" 
d="M221 95q-7 -15 -14 -32.5t-16 -31.5t-22 -23.5t-33 -9.5q-35 0 -58 17.5t-37.5 44t-20.5 57.5t-6 58l8 242q-1 7 3.5 14.5t12 14t17 10.5t17.5 4q23 0 39 -14.5t16 -37.5v-10q-11 -18 -19 -47t-12.5 -62.5t-5.5 -68.5t2.5 -64t11.5 -49.5t21 -24.5q5 0 15.5 5t22.5 19
t25 39.5t23 67.5t15 102t3 144q4 11 11.5 12t15.5 1q9 0 15 -0.5t13 -7.5q5 -5 11 -15t6 -11l17 -443q0 -15 -8 -25t-23 -10q-5 0 -12 1t-14 4t-12.5 7.5t-6.5 10.5l-17 100zM69 710q0 14 10.5 26t24.5 12q17 0 27.5 -9t20.5 -20v-3q0 -17 -11.5 -30.5t-30.5 -13.5
q-13 0 -27 12t-14 26zM198 710q0 14 10.5 26t24.5 12q17 0 27.5 -9t20.5 -20v-3q0 -17 -11.5 -30.5t-30.5 -13.5q-13 0 -27 12t-14 26z" />
    <glyph glyph-name="yacute" unicode="&#xfd;" horiz-adv-x="342" 
d="M223 -275q-2 21 -2.5 51t-0.5 63t0.5 67t2.5 62v36q-5 7 -12 14.5t-24.5 30t-49.5 67t-86 124.5q-21 22 -27 36.5t-4 23.5t10.5 13t16.5 4q20 0 36 -9t29 -23t23.5 -30.5t20.5 -31.5q6 -9 15 -23t18 -27.5t15.5 -23.5l6.5 -10l12 -13v105q0 50 -2 97.5t-2 96.5
q0 14 10 23t24 8q17 -2 25.5 -6t17.5 -16q8 -11 7.5 -26t0.5 -29q4 -95 6.5 -189.5t2.5 -189.5q-1 -9 -1 -36.5t0.5 -62.5t1 -73t1 -69.5t1 -52t1.5 -19.5q0 -15 -10.5 -22t-25.5 -7q-20 0 -29.5 5.5t-14.5 15t-7 21.5t-7 25zM100 629q-3 26 4.5 41t20 27t27.5 25t29 36
q15 12 28 8t24 -21q6 -9 5.5 -16.5t-4.5 -15t-9.5 -13.5t-9.5 -12q-8 -10 -23 -27.5t-32 -31t-33.5 -16.5t-26.5 16z" />
    <glyph glyph-name="thorn" unicode="&#xfe;" horiz-adv-x="394" 
d="M31 336q-19 7 -34.5 17t-15.5 33q0 6 3 8t5 6q2 3 8 11t13 17.5t13 18t8 11.5q-3 11 -7 34t-7 51t-2.5 56t6.5 49t19 31t37 2q6 0 10 -21t7.5 -46t7.5 -46t10 -21h4q41 32 84.5 56.5t97.5 24.5q35 0 57.5 -20.5t22.5 -57.5q0 -46 -21 -95t-52.5 -95.5t-68 -87.5
t-66.5 -71q-3 -4 -9 -8.5t-11 -9.5q-6 -5 -13 -12v-119q0 -9 -0.5 -19t-4 -18.5t-10 -14t-18.5 -5.5q-6 0 -16 2.5t-19 7.5t-15.5 12t-6.5 16zM124 273h4q1 0 6.5 6t13 14t15 16.5t11.5 13.5q30 22 55 55t40.5 66.5t19 60.5t-9 37.5t-43 -2.5t-82.5 -60q-12 -10 -22 -23
t-12 -29z" />
    <glyph glyph-name="ydieresis" unicode="&#xff;" horiz-adv-x="342" 
d="M223 -275q-2 21 -2.5 51t-0.5 63t0.5 67t2.5 62v36q-5 7 -12 14.5t-24.5 30t-49.5 67t-86 124.5q-21 22 -27 36.5t-4 23.5t10.5 13t16.5 4q20 0 36 -9t29 -23t23.5 -30.5t20.5 -31.5q6 -9 15 -23t18 -27.5t15.5 -23.5l6.5 -10l12 -13v105q0 50 -2 97.5t-2 96.5
q0 14 10 23t24 8q17 -2 25.5 -6t17.5 -16q8 -11 7.5 -26t0.5 -29q4 -95 6.5 -189.5t2.5 -189.5q-1 -9 -1 -36.5t0.5 -62.5t1 -73t1 -69.5t1 -52t1.5 -19.5q0 -15 -10.5 -22t-25.5 -7q-20 0 -29.5 5.5t-14.5 15t-7 21.5t-7 25zM65 710q0 14 10.5 26t24.5 12q17 0 27.5 -9
t20.5 -20v-3q0 -17 -11.5 -30.5t-30.5 -13.5q-13 0 -27 12t-14 26zM194 710q0 14 10.5 26t24.5 12q17 0 27.5 -9t20.5 -20v-3q0 -17 -11.5 -30.5t-30.5 -13.5q-13 0 -27 12t-14 26z" />
    <glyph glyph-name="Amacron" unicode="&#x100;" horiz-adv-x="509" 
d="M25 63q0 60 8 119t14 118q0 3 1 13.5t2.5 22.5t3 22.5t1.5 13.5v4l42 312q-2 20 6.5 35.5t31.5 15.5q25 3 41.5 -6.5t27.5 -24.5t18 -33t15 -33q5 -14 12.5 -33t18 -48t25 -71t33.5 -102l4 -4q7 4 26.5 13t41 19t40.5 19t27 12q1 2 5.5 3.5t6.5 2.5h2q10 0 15 -7.5
t5 -14.5q0 -11 -5 -19t-11.5 -14.5t-14 -12.5t-11.5 -13l-99 -50q-4 -5 -4 -8q0 -8 8.5 -25l13.5 -27q3 -6 10 -22t15 -33t15.5 -32.5t10.5 -21.5v-3q0 -36 -36 -36q-11 0 -23 2.5t-18 14.5l-67 143h-9q-38 -29 -81 -57t-88 -48q-7 -36 -8.5 -73t0.5 -74q-8 -11 -16 -16.5
t-22 -5.5t-21 6.5t-10 16t-3 20.5v20zM114 257q30 12 58.5 32t54.5 37q3 2 7.5 4t8.5 5t10 7v8l-92 262l-4 4q-3 -6 -7.5 -34t-10 -72.5t-12 -102.5t-13.5 -124v-26zM60 780q0 17 12 24.5t26 10.5l251 25q17 0 32 -6t15 -26q0 -5 -6.5 -11t-14.5 -11t-17 -8.5t-13 -1.5
l-247 -27q-13 0 -25.5 8.5t-12.5 22.5z" />
    <glyph glyph-name="amacron" unicode="&#x101;" horiz-adv-x="399" 
d="M256 279q-9 -16 -20.5 -38.5t-24.5 -48t-28.5 -51t-32 -46.5t-34.5 -35.5t-37 -17.5q-8 0 -18 1.5t-20 5t-16.5 10t-6.5 17.5q1 102 15 185.5t44 147t77 105.5t114 60q2 0 7.5 0.5t7.5 0.5q30 1 43.5 -27.5t20 -90t9 -158t10.5 -231.5q3 -11 3.5 -19t0.5 -19
q0 -15 -9 -22.5t-23 -7.5q-29 0 -41 16t-16 43q0 1 -1.5 16t-4 34.5t-4.5 39.5t-3 33v4q-2 10 -2.5 25t-2.5 29q-2 17 -3 34zM234 477q-27 -20 -53 -54t-37 -66q-5 -15 -11 -41t-10.5 -51.5t-7.5 -47t-3 -27.5q1 0 2.5 2t2.5 3q62 60 87.5 129.5t29.5 152.5zM31 714
q0 17 12 24.5t26 10.5l251 25q17 0 32 -6t15 -26q0 -5 -6.5 -11t-14.5 -11t-17 -8.5t-13 -1.5l-247 -27q-13 0 -25.5 8.5t-12.5 22.5z" />
    <glyph glyph-name="Abreve" unicode="&#x102;" horiz-adv-x="509" 
d="M136 800q-49 4 -69.5 22t-24 38t3.5 38.5t13 24.5q10 -39 37.5 -54.5t57.5 -12t55 23.5t31 52q4 -23 2 -47.5t-13.5 -44t-34 -31.5t-58.5 -9zM25 63q0 60 8 119t14 118q0 3 1 13.5t2.5 22.5t3 22.5t1.5 13.5v4l42 312q-2 20 6.5 35.5t31.5 15.5q25 3 41.5 -6.5
t27.5 -24.5t18 -33t15 -33q5 -14 12.5 -33t18 -48t25 -71t33.5 -102l4 -4q7 4 26.5 13t41 19t40.5 19t27 12q1 2 5.5 3.5t6.5 2.5h2q10 0 15 -7.5t5 -14.5q0 -11 -5 -19t-11.5 -14.5t-14 -12.5t-11.5 -13l-99 -50q-4 -5 -4 -8q0 -8 8.5 -25l13.5 -27q3 -6 10 -22t15 -33
t15.5 -32.5t10.5 -21.5v-3q0 -36 -36 -36q-11 0 -23 2.5t-18 14.5l-67 143h-9q-38 -29 -81 -57t-88 -48q-7 -36 -8.5 -73t0.5 -74q-8 -11 -16 -16.5t-22 -5.5t-21 6.5t-10 16t-3 20.5v20zM114 257q30 12 58.5 32t54.5 37q3 2 7.5 4t8.5 5t10 7v8l-92 262l-4 4
q-3 -6 -7.5 -34t-10 -72.5t-12 -102.5t-13.5 -124v-26z" />
    <glyph glyph-name="abreve" unicode="&#x103;" horiz-adv-x="399" 
d="M207 610q-49 4 -69.5 22t-24 38t3.5 38.5t13 24.5q10 -39 37.5 -54.5t57.5 -12t55 23.5t31 52q4 -23 2 -47.5t-13.5 -44t-34 -31.5t-58.5 -9zM256 279q-9 -16 -20.5 -38.5t-24.5 -48t-28.5 -51t-32 -46.5t-34.5 -35.5t-37 -17.5q-8 0 -18 1.5t-20 5t-16.5 10t-6.5 17.5
q1 102 15 185.5t44 147t77 105.5t114 60q2 0 7.5 0.5t7.5 0.5q30 1 43.5 -27.5t20 -90t9 -158t10.5 -231.5q3 -11 3.5 -19t0.5 -19q0 -15 -9 -22.5t-23 -7.5q-29 0 -41 16t-16 43q0 1 -1.5 16t-4 34.5t-4.5 39.5t-3 33v4q-2 10 -2.5 25t-2.5 29q-2 17 -3 34zM234 477
q-27 -20 -53 -54t-37 -66q-5 -15 -11 -41t-10.5 -51.5t-7.5 -47t-3 -27.5q1 0 2.5 2t2.5 3q62 60 87.5 129.5t29.5 152.5z" />
    <glyph glyph-name="Aogonek" unicode="&#x104;" horiz-adv-x="509" 
d="M303 -16q0 70 11 107t29 51t40.5 11.5t45.5 -10.5q-1 0 -2.5 -1.5l-2.5 -2.5q-33 -60 -43.5 -105t-0.5 -82q14 -14 32.5 -5.5t26.5 30.5q16 22 28 23.5t18 -9t5.5 -29.5t-9.5 -38t-27.5 -34.5t-48.5 -18.5q-49 0 -75.5 31t-26.5 82zM25 63q0 60 8 119t14 118q0 3 1 13.5
t2.5 22.5t3 22.5t1.5 13.5v4l42 312q-2 20 6.5 35.5t31.5 15.5q25 3 41.5 -6.5t27.5 -24.5t18 -33t15 -33q5 -14 12.5 -33t18 -48t25 -71t33.5 -102l4 -4q7 4 26.5 13t41 19t40.5 19t27 12q1 2 5.5 3.5t6.5 2.5h2q10 0 15 -7.5t5 -14.5q0 -11 -5 -19t-11.5 -14.5t-14 -12.5
t-11.5 -13l-99 -50q-4 -5 -4 -8q0 -8 8.5 -25l13.5 -27q3 -6 10 -22t15 -33t15.5 -32.5t10.5 -21.5v-3q0 -36 -36 -36q-11 0 -23 2.5t-18 14.5l-67 143h-9q-38 -29 -81 -57t-88 -48q-7 -36 -8.5 -73t0.5 -74q-8 -11 -16 -16.5t-22 -5.5t-21 6.5t-10 16t-3 20.5v20zM114 257
q30 12 58.5 32t54.5 37q3 2 7.5 4t8.5 5t10 7v8l-92 262l-4 4q-3 -6 -7.5 -34t-10 -72.5t-12 -102.5t-13.5 -124v-26z" />
    <glyph glyph-name="aogonek" unicode="&#x105;" horiz-adv-x="399" 
d="M229 -123q0 70 11 107t29 51t40.5 11.5t45.5 -10.5q-1 0 -2.5 -1.5l-2.5 -2.5q-33 -60 -43.5 -105t-0.5 -82q14 -14 32.5 -5.5t26.5 30.5q16 22 28 23.5t18 -9t5.5 -29.5t-9.5 -38t-27.5 -34.5t-48.5 -18.5q-49 0 -75.5 31t-26.5 82zM256 279q-9 -16 -20.5 -38.5
t-24.5 -48t-28.5 -51t-32 -46.5t-34.5 -35.5t-37 -17.5q-8 0 -18 1.5t-20 5t-16.5 10t-6.5 17.5q1 102 15 185.5t44 147t77 105.5t114 60q2 0 7.5 0.5t7.5 0.5q30 1 43.5 -27.5t20 -90t9 -158t10.5 -231.5q3 -11 3.5 -19t0.5 -19q0 -15 -9 -22.5t-23 -7.5q-29 0 -41 16
t-16 43q0 1 -1.5 16t-4 34.5t-4.5 39.5t-3 33v4q-2 10 -2.5 25t-2.5 29q-2 17 -3 34zM234 477q-27 -20 -53 -54t-37 -66q-5 -15 -11 -41t-10.5 -51.5t-7.5 -47t-3 -27.5q1 0 2.5 2t2.5 3q62 60 87.5 129.5t29.5 152.5z" />
    <glyph glyph-name="Cacute" unicode="&#x106;" horiz-adv-x="431" 
d="M23 153q12 100 19 154t10 80q4 30 4 35q9 31 19 67t26.5 67t42.5 52t67 21q18 0 32.5 -2.5t27.5 -8.5t25.5 -14.5t26.5 -20.5q10 -9 11.5 -11t1.5 -12q0 -13 -9 -25t-26 -12q-14 0 -23 6.5t-17.5 15t-18 15t-24.5 6.5q-16 0 -28 -8.5t-20.5 -21.5t-13 -29t-6.5 -30
l-47 -320q0 -2 -0.5 -9.5t-0.5 -11.5v-17.5t2 -21t7 -18t15 -7.5q6 0 11 4q48 32 82.5 74.5t65.5 90.5q1 2 5.5 9.5t9 16t8.5 17t6 12.5q6 13 9 27t7.5 26t13.5 19.5t28 7.5q14 0 27 -12t13 -28v-2q-25 -72 -64.5 -133t-87.5 -121q-30 -36 -69 -58t-87 -22h-5
q-45 17 -60.5 50.5t-15.5 78.5v24zM133 730q-3 26 4.5 41t20 27t27.5 25t29 36q15 12 28 8t24 -21q6 -9 5.5 -16.5t-4.5 -15t-9.5 -13.5t-9.5 -12q-8 -10 -23 -27.5t-32 -31t-33.5 -16.5t-26.5 16z" />
    <glyph glyph-name="cacute" unicode="&#x107;" horiz-adv-x="354" 
d="M23 120q-7 30 0.5 71t24 82.5t41 78.5t52 59t56 24.5t54.5 -25.5q0 -1 1 -5t2 -16.5t1.5 -35t0.5 -61.5q1 -2 2.5 -6.5t1.5 -6.5q-3 -11 -11.5 -20.5t-21.5 -9.5q-17 0 -27.5 5.5t-15.5 26.5q2 3 1 12.5t-3.5 21.5t-4.5 24t-2 19q-1 0 -2.5 -1.5l-2.5 -2.5
q-17 -30 -31.5 -66.5t-22 -74t-5 -74.5t21.5 -67q14 0 26 11.5t20 21.5q17 20 33.5 41t30.5 44q6 10 9 18t7.5 13t11.5 8t21 3q16 0 30 -7.5t14 -24.5q0 -23 -20.5 -57.5t-50 -66.5t-62.5 -54.5t-58 -22.5q-24 0 -46.5 9.5t-39 25.5t-26.5 38t-10 48zM106 629q-3 26 4.5 41
t20 27t27.5 25t29 36q15 12 28 8t24 -21q6 -9 5.5 -16.5t-4.5 -15t-9.5 -13.5t-9.5 -12q-8 -10 -23 -27.5t-32 -31t-33.5 -16.5t-26.5 16z" />
    <glyph glyph-name="Ccircumflex" unicode="&#x108;" horiz-adv-x="431" 
d="M161 821q1 2 3.5 8.5t5.5 13.5t6 13.5t4 9.5q4 8 14.5 9.5t20.5 1.5q8 0 14 -1.5t12 -7.5q3 -5 11.5 -17.5t18.5 -26t18.5 -26t11.5 -16.5q1 -1 4 -4.5t3 -4.5q3 -4 10 -14.5l15 -22.5t15 -23t10 -15q3 -5 3.5 -7.5t0.5 -7.5q0 -11 -9 -15t-24 -4q-13 0 -23.5 5.5
t-15.5 13.5l-67 99l-4 -3q-3 -4 -6 -11t-10.5 -21t-20.5 -36.5t-36 -58.5q-2 -2 -10.5 -5t-11.5 -3q-6 0 -15.5 2.5t-17.5 6.5t-12.5 9.5t-0.5 12.5zM23 153q12 100 19 154t10 80q4 30 4 35q9 31 19 67t26.5 67t42.5 52t67 21q18 0 32.5 -2.5t27.5 -8.5t25.5 -14.5
t26.5 -20.5q10 -9 11.5 -11t1.5 -12q0 -13 -9 -25t-26 -12q-14 0 -23 6.5t-17.5 15t-18 15t-24.5 6.5q-16 0 -28 -8.5t-20.5 -21.5t-13 -29t-6.5 -30l-47 -320q0 -2 -0.5 -9.5t-0.5 -11.5v-17.5t2 -21t7 -18t15 -7.5q6 0 11 4q48 32 82.5 74.5t65.5 90.5q1 2 5.5 9.5t9 16
t8.5 17t6 12.5q6 13 9 27t7.5 26t13.5 19.5t28 7.5q14 0 27 -12t13 -28v-2q-25 -72 -64.5 -133t-87.5 -121q-30 -36 -69 -58t-87 -22h-5q-45 17 -60.5 50.5t-15.5 78.5v24z" />
    <glyph glyph-name="ccircumflex" unicode="&#x109;" horiz-adv-x="354" 
d="M123 684q1 2 3.5 8.5t5.5 13.5t6 13.5t4 9.5q4 8 14.5 9.5t20.5 1.5q8 0 14 -1.5t12 -7.5q3 -5 11.5 -17.5t18.5 -26t18.5 -26t11.5 -16.5q1 -1 4 -4.5t3 -4.5q3 -4 10 -14.5l15 -22.5t15 -23t10 -15q3 -5 3.5 -7.5t0.5 -7.5q0 -11 -9 -15t-24 -4q-13 0 -23.5 5.5
t-15.5 13.5l-67 99l-4 -3q-3 -4 -6 -11t-10.5 -21t-20.5 -36.5t-36 -58.5q-2 -2 -10.5 -5t-11.5 -3q-6 0 -15.5 2.5t-17.5 6.5t-12.5 9.5t-0.5 12.5zM23 120q-7 30 0.5 71t24 82.5t41 78.5t52 59t56 24.5t54.5 -25.5q0 -1 1 -5t2 -16.5t1.5 -35t0.5 -61.5q1 -2 2.5 -6.5
t1.5 -6.5q-3 -11 -11.5 -20.5t-21.5 -9.5q-17 0 -27.5 5.5t-15.5 26.5q2 3 1 12.5t-3.5 21.5t-4.5 24t-2 19q-1 0 -2.5 -1.5l-2.5 -2.5q-17 -30 -31.5 -66.5t-22 -74t-5 -74.5t21.5 -67q14 0 26 11.5t20 21.5q17 20 33.5 41t30.5 44q6 10 9 18t7.5 13t11.5 8t21 3
q16 0 30 -7.5t14 -24.5q0 -23 -20.5 -57.5t-50 -66.5t-62.5 -54.5t-58 -22.5q-24 0 -46.5 9.5t-39 25.5t-26.5 38t-10 48z" />
    <glyph glyph-name="Cdotaccent" unicode="&#x10a;" horiz-adv-x="431" 
d="M136 738q0 11 4.5 22.5t12 20.5t17 15t19.5 6q25 0 41.5 -15t30.5 -34v-5q0 -28 -17 -51t-46 -23q-10 0 -21 6t-20 15t-15 20.5t-6 22.5zM23 153q12 100 19 154t10 80q4 30 4 35q9 31 19 67t26.5 67t42.5 52t67 21q18 0 32.5 -2.5t27.5 -8.5t25.5 -14.5t26.5 -20.5
q10 -9 11.5 -11t1.5 -12q0 -13 -9 -25t-26 -12q-14 0 -23 6.5t-17.5 15t-18 15t-24.5 6.5q-16 0 -28 -8.5t-20.5 -21.5t-13 -29t-6.5 -30l-47 -320q0 -2 -0.5 -9.5t-0.5 -11.5v-17.5t2 -21t7 -18t15 -7.5q6 0 11 4q48 32 82.5 74.5t65.5 90.5q1 2 5.5 9.5t9 16t8.5 17
t6 12.5q6 13 9 27t7.5 26t13.5 19.5t28 7.5q14 0 27 -12t13 -28v-2q-25 -72 -64.5 -133t-87.5 -121q-30 -36 -69 -58t-87 -22h-5q-45 17 -60.5 50.5t-15.5 78.5v24z" />
    <glyph glyph-name="cdotaccent" unicode="&#x10b;" horiz-adv-x="354" 
d="M114 577q0 11 4.5 22.5t12 20.5t17 15t19.5 6q25 0 41.5 -15t30.5 -34v-5q0 -28 -17 -51t-46 -23q-10 0 -21 6t-20 15t-15 20.5t-6 22.5zM23 120q-7 30 0.5 71t24 82.5t41 78.5t52 59t56 24.5t54.5 -25.5q0 -1 1 -5t2 -16.5t1.5 -35t0.5 -61.5q1 -2 2.5 -6.5t1.5 -6.5
q-3 -11 -11.5 -20.5t-21.5 -9.5q-17 0 -27.5 5.5t-15.5 26.5q2 3 1 12.5t-3.5 21.5t-4.5 24t-2 19q-1 0 -2.5 -1.5l-2.5 -2.5q-17 -30 -31.5 -66.5t-22 -74t-5 -74.5t21.5 -67q14 0 26 11.5t20 21.5q17 20 33.5 41t30.5 44q6 10 9 18t7.5 13t11.5 8t21 3q16 0 30 -7.5
t14 -24.5q0 -23 -20.5 -57.5t-50 -66.5t-62.5 -54.5t-58 -22.5q-24 0 -46.5 9.5t-39 25.5t-26.5 38t-10 48z" />
    <glyph glyph-name="Ccaron" unicode="&#x10c;" horiz-adv-x="431" 
d="M66 832q-3 4 1 8t11.5 6.5t16 4t14.5 1.5q2 0 10 -1.5t10 -3.5q21 -23 33 -37.5t19 -23.5t9.5 -13t5.5 -7l4 -2l62 63q10 12 36 12q14 0 22 -2t8 -10q0 -3 -0.5 -4.5t-3.5 -5.5q-2 -3 -8.5 -9.5l-14 -14t-14 -14.5t-9.5 -9q0 -1 -2.5 -3.5t-3.5 -2.5l-11 -11t-17 -16.5
t-17 -16.5l-11 -11q-5 -4 -10 -5t-13 -1q-9 0 -19 1t-14 6q-2 4 -8.5 15t-8.5 14zM23 153q12 100 19 154t10 80q4 30 4 35q9 31 19 67t26.5 67t42.5 52t67 21q18 0 32.5 -2.5t27.5 -8.5t25.5 -14.5t26.5 -20.5q10 -9 11.5 -11t1.5 -12q0 -13 -9 -25t-26 -12q-14 0 -23 6.5
t-17.5 15t-18 15t-24.5 6.5q-16 0 -28 -8.5t-20.5 -21.5t-13 -29t-6.5 -30l-47 -320q0 -2 -0.5 -9.5t-0.5 -11.5v-17.5t2 -21t7 -18t15 -7.5q6 0 11 4q48 32 82.5 74.5t65.5 90.5q1 2 5.5 9.5t9 16t8.5 17t6 12.5q6 13 9 27t7.5 26t13.5 19.5t28 7.5q14 0 27 -12t13 -28v-2
q-25 -72 -64.5 -133t-87.5 -121q-30 -36 -69 -58t-87 -22h-5q-45 17 -60.5 50.5t-15.5 78.5v24z" />
    <glyph glyph-name="ccaron" unicode="&#x10d;" horiz-adv-x="354" 
d="M52 663q-3 4 1 8t11.5 6.5t16 4t14.5 1.5q2 0 10 -1.5t10 -3.5q21 -23 33 -37.5t19 -23.5t9.5 -13t5.5 -7l4 -2l62 63q10 12 36 12q14 0 22 -2t8 -10q0 -3 -0.5 -4.5t-3.5 -5.5q-2 -3 -8.5 -9.5l-14 -14t-14 -14.5t-9.5 -9q0 -1 -2.5 -3.5t-3.5 -2.5l-11 -11t-17 -16.5
t-17 -16.5l-11 -11q-5 -4 -10 -5t-13 -1q-9 0 -19 1t-14 6q-2 4 -8.5 15t-8.5 14zM23 120q-7 30 0.5 71t24 82.5t41 78.5t52 59t56 24.5t54.5 -25.5q0 -1 1 -5t2 -16.5t1.5 -35t0.5 -61.5q1 -2 2.5 -6.5t1.5 -6.5q-3 -11 -11.5 -20.5t-21.5 -9.5q-17 0 -27.5 5.5t-15.5 26.5
q2 3 1 12.5t-3.5 21.5t-4.5 24t-2 19q-1 0 -2.5 -1.5l-2.5 -2.5q-17 -30 -31.5 -66.5t-22 -74t-5 -74.5t21.5 -67q14 0 26 11.5t20 21.5q17 20 33.5 41t30.5 44q6 10 9 18t7.5 13t11.5 8t21 3q16 0 30 -7.5t14 -24.5q0 -23 -20.5 -57.5t-50 -66.5t-62.5 -54.5t-58 -22.5
q-24 0 -46.5 9.5t-39 25.5t-26.5 38t-10 48z" />
    <glyph glyph-name="Dcaron" unicode="&#x10e;" horiz-adv-x="523" 
d="M167 846q-3 4 1 8t11.5 6.5t16 4t14.5 1.5q2 0 10 -1.5t10 -3.5q21 -23 33 -37.5t19 -23.5t9.5 -13t5.5 -7l4 -2l62 63q10 12 36 12q14 0 22 -2t8 -10q0 -3 -0.5 -4.5t-3.5 -5.5q-2 -3 -8.5 -9.5l-14 -14t-14 -14.5t-9.5 -9q0 -1 -2.5 -3.5t-3.5 -2.5l-11 -11t-17 -16.5
t-17 -16.5l-11 -11q-5 -4 -10 -5t-13 -1q-9 0 -19 1t-14 6q-2 4 -8.5 15t-8.5 14zM141 32q0 9 6.5 16t6.5 15q0 2 -4 5t-5 4q-10 15 -11 34t-1 36q0 92 1 182t1 182q-10 0 -19 -4.5t-19 -10t-21 -10t-24 -4.5h-16q-2 3 -10 5.5t-8 6.5v30q5 3 8.5 8.5t5.5 9.5l101 50l4 5
q-2 28 3 45t35 17q8 0 17.5 -3t18 -8t13 -13t2.5 -18q50 -2 99 -7.5t88 -24t63.5 -54.5t24.5 -99q0 -57 -22 -114t-63 -98l-190 -189q-14 -14 -23.5 -20t-27.5 -6q-15 0 -24.5 8.5t-9.5 23.5zM226 122h-4l8 5q1 1 7.5 6.5t14.5 13t16 14.5t13 12q23 24 48.5 51t46.5 57.5
t34.5 64t13.5 70.5q0 35 -13 59.5t-34.5 40t-50.5 22.5t-62 7q-3 0 -17.5 -1.5t-20.5 -6.5v-415z" />
    <glyph glyph-name="dcaron" unicode="&#x10f;" horiz-adv-x="630" 
d="M588 626q12 33 22 79.5t12 72.5h90v-9q-6 -26 -28 -72.5t-46 -82.5h-50v12zM274 158q-1 0 -13.5 -22t-33.5 -48t-49.5 -48t-60.5 -22q-44 0 -73.5 27t-29.5 74q-2 24 6.5 57t25 68.5t40 69t50.5 58t56.5 36.5t59.5 4v14q0 26 -1.5 53.5t-3 63t-3 82t-1.5 111.5
q3 11 10.5 14.5t16.5 3.5q23 0 36.5 -15t16.5 -37q-2 -34 -1.5 -69.5t3.5 -80.5t9.5 -102t16.5 -134.5t24 -178t33 -232.5v-34q0 -6 -4.5 -9t-11 -4.5t-13 -2t-9.5 -0.5q-15 0 -32 8.5t-20 23.5l-37 267q0 3 -2.5 3.5t-4.5 0.5zM98 136q0 -3 -0.5 -10.5t0 -15.5t2.5 -14
t8 -6q25 -1 51.5 19t48.5 49.5t36.5 63.5t16 61t-13 41.5t-49.5 6.5q-43 -38 -71.5 -87t-28.5 -108z" />
    <glyph glyph-name="Dcroat" unicode="&#x110;" horiz-adv-x="747" 
d="M52 259q0 9 10 14t23 8t26 4t20 3h2q1 55 1.5 109t0.5 109q-10 0 -19 -4.5t-19 -10t-21 -10t-24 -4.5h-16q-2 3 -10 5.5t-8 6.5v30q5 3 8.5 8.5t5.5 9.5l101 50l4 5q-2 28 3 45t35 17q8 0 17.5 -3t18 -8t13 -13t2.5 -18q50 -2 99 -7.5t88 -24t63.5 -54.5t24.5 -99
q0 -57 -22 -114t-63 -98l-190 -189q-14 -14 -23.5 -20t-27.5 -6q-15 0 -24.5 8.5t-9.5 23.5q0 9 6.5 16t6.5 15q0 2 -4 5t-5 4q-10 15 -11 34t-1 36v80h-2q-6 0 -19.5 3t-26.5 8.5t-23 12t-10 13.5zM226 302l40 6q17 0 32 -6t15 -26q0 -5 -6.5 -11t-14.5 -11t-17 -8.5
t-13 -1.5l-36 -6v-114l4 3q1 1 7.5 6.5t14.5 13t16 14.5t13 12q23 24 48.5 51t46.5 57.5t34.5 64t13.5 70.5q0 35 -13 59.5t-34.5 40t-50.5 22.5t-62 7q-3 0 -17.5 -1.5t-20.5 -6.5v-235z" />
    <glyph glyph-name="dcroat" unicode="&#x111;" horiz-adv-x="632" 
d="M282 -10q-107 0 -166 74q-60 74 -60 208q0 136 59 210t167 74q112 0 170 -81h7q-2 7 -4.5 34.5t-2.5 47.5v63h-218v67h218v91h90v-91h78v-67h-78v-620h-73l-13 74h-4q-58 -84 -170 -84zM297 64q82 0 119.5 44.5t37.5 145.5v18q0 115 -38 162.5t-121 47.5
q-70 0 -107.5 -54t-37.5 -158q0 -98 36.5 -152t110.5 -54z" />
    <glyph glyph-name="Emacron" unicode="&#x112;" horiz-adv-x="422" 
d="M78 22q-10 40 -15 75.5t-7 75.5q-1 23 0 39.5t-4 36.5q-1 4 -4.5 6t-7 5t-6.5 7.5t-3 14.5q0 8 3.5 14t7 11.5t7 12t3.5 15.5v15q0 10 -2 34t-4 51t-3.5 51t-2.5 33q-1 17 -9 30t-8 30q0 32 13 45t46 13q7 0 11.5 -6t10.5 -6h4q3 1 9 2.5t8 1.5q84 36 131 56t71 29
t32.5 10t14.5 -2q12 -2 16.5 -7.5t4.5 -16.5q0 -10 -3 -20t-14 -15l-131 -63l-4 -4l-110 -47q-6 -2 -7 -10t-1 -13q0 -8 2 -29t4 -43.5t4.5 -40t3.5 -17.5h1l1 1q11 8 35 27.5t49 39.5t44 35.5t20 15.5q11 0 20 -11t9 -23t-5 -27t-16 -23l-156 -139v-5t-0.5 -11t-0.5 -12.5
v-10.5q0 -36 5 -71.5t5 -71.5h4q1 0 9 8t12 13q2 3 9.5 13t25.5 33t48 61t77 96q4 4 11.5 12t9.5 8q3 3 12.5 2.5t13.5 -2.5q5 -2 13 -11t8 -17q0 -12 -12.5 -31.5t-29.5 -40.5t-34 -40.5t-26 -31.5q-14 -22 -33.5 -53.5t-42.5 -60t-50.5 -49t-58.5 -20.5q-15 0 -21.5 5
t-16.5 18zM40 774q0 17 12 24.5t26 10.5l251 25q17 0 32 -6t15 -26q0 -5 -6.5 -11t-14.5 -11t-17 -8.5t-13 -1.5l-247 -27q-13 0 -25.5 8.5t-12.5 22.5z" />
    <glyph glyph-name="emacron" unicode="&#x113;" horiz-adv-x="445" 
d="M441 284q-2 -18 -4.5 -28t-8.5 -18t-17 -16.5t-30 -24t-47 -40.5t-68 -65q-16 -15 -33 -31t-35.5 -28.5t-38.5 -20.5t-42 -8q-43 0 -63 29t-20 67q0 25 1.5 42t7.5 44q-11 10 -19 17.5t-8 20.5q0 12 5.5 16t13 5.5t14.5 3.5t10 8q2 6 7.5 22t11.5 33.5t11.5 33t7.5 21.5
q7 17 15.5 34.5t20 31.5t27 23t36.5 9q12 0 29.5 -11t33.5 -26.5t27 -32.5t11 -29q0 -15 -7 -27.5t-17.5 -23t-22.5 -19.5t-22 -17q-1 0 -4 -2t-5 -3l-4.5 -4.5l-7.5 -7.5t-7.5 -8t-4.5 -5q-3 -3 -11.5 -9.5t-18.5 -14t-18.5 -14t-11.5 -8.5l-4 -8q-2 -4 -3.5 -17.5
t-3.5 -30.5t-3.5 -34.5t-1.5 -28.5q0 -1 1 -2q2 -2 3 -2q8 0 15 7t15 10l160 148l41 63q5 7 19.5 15.5t29.5 9t26.5 -9.5t11.5 -39zM221 362q5 4 4 12t-5.5 14t-11.5 7.5t-13 -7.5q-3 -4 -10.5 -16t-15 -24.5t-12.5 -21.5t-2 -7zM37 543q0 17 12 24.5t26 10.5l251 25
q17 0 32 -6t15 -26q0 -5 -6.5 -11t-14.5 -11t-17 -8.5t-13 -1.5l-247 -27q-13 0 -25.5 8.5t-12.5 22.5z" />
    <glyph glyph-name="Ebreve" unicode="&#x114;" horiz-adv-x="422" 
d="M207 740q-49 4 -69.5 22t-24 38t3.5 38.5t13 24.5q10 -39 37.5 -54.5t57.5 -12t55 23.5t31 52q4 -23 2 -47.5t-13.5 -44t-34 -31.5t-58.5 -9zM78 22q-10 40 -15 75.5t-7 75.5q-1 23 0 39.5t-4 36.5q-1 4 -4.5 6t-7 5t-6.5 7.5t-3 14.5q0 8 3.5 14t7 11.5t7 12t3.5 15.5
v15q0 10 -2 34t-4 51t-3.5 51t-2.5 33q-1 17 -9 30t-8 30q0 32 13 45t46 13q7 0 11.5 -6t10.5 -6h4q3 1 9 2.5t8 1.5q84 36 131 56t71 29t32.5 10t14.5 -2q12 -2 16.5 -7.5t4.5 -16.5q0 -10 -3 -20t-14 -15l-131 -63l-4 -4l-110 -47q-6 -2 -7 -10t-1 -13q0 -8 2 -29t4 -43.5
t4.5 -40t3.5 -17.5h1l1 1q11 8 35 27.5t49 39.5t44 35.5t20 15.5q11 0 20 -11t9 -23t-5 -27t-16 -23l-156 -139v-5t-0.5 -11t-0.5 -12.5v-10.5q0 -36 5 -71.5t5 -71.5h4q1 0 9 8t12 13q2 3 9.5 13t25.5 33t48 61t77 96q4 4 11.5 12t9.5 8q3 3 12.5 2.5t13.5 -2.5
q5 -2 13 -11t8 -17q0 -12 -12.5 -31.5t-29.5 -40.5t-34 -40.5t-26 -31.5q-14 -22 -33.5 -53.5t-42.5 -60t-50.5 -49t-58.5 -20.5q-15 0 -21.5 5t-16.5 18z" />
    <glyph glyph-name="ebreve" unicode="&#x115;" horiz-adv-x="445" 
d="M230 610q-49 4 -69.5 22t-24 38t3.5 38.5t13 24.5q10 -39 37.5 -54.5t57.5 -12t55 23.5t31 52q4 -23 2 -47.5t-13.5 -44t-34 -31.5t-58.5 -9zM441 284q-2 -18 -4.5 -28t-8.5 -18t-17 -16.5t-30 -24t-47 -40.5t-68 -65q-16 -15 -33 -31t-35.5 -28.5t-38.5 -20.5t-42 -8
q-43 0 -63 29t-20 67q0 25 1.5 42t7.5 44q-11 10 -19 17.5t-8 20.5q0 12 5.5 16t13 5.5t14.5 3.5t10 8q2 6 7.5 22t11.5 33.5t11.5 33t7.5 21.5q7 17 15.5 34.5t20 31.5t27 23t36.5 9q12 0 29.5 -11t33.5 -26.5t27 -32.5t11 -29q0 -15 -7 -27.5t-17.5 -23t-22.5 -19.5
t-22 -17q-1 0 -4 -2t-5 -3l-4.5 -4.5l-7.5 -7.5t-7.5 -8t-4.5 -5q-3 -3 -11.5 -9.5t-18.5 -14t-18.5 -14t-11.5 -8.5l-4 -8q-2 -4 -3.5 -17.5t-3.5 -30.5t-3.5 -34.5t-1.5 -28.5q0 -1 1 -2q2 -2 3 -2q8 0 15 7t15 10l160 148l41 63q5 7 19.5 15.5t29.5 9t26.5 -9.5t11.5 -39
zM221 362q5 4 4 12t-5.5 14t-11.5 7.5t-13 -7.5q-3 -4 -10.5 -16t-15 -24.5t-12.5 -21.5t-2 -7z" />
    <glyph glyph-name="Edotaccent" unicode="&#x116;" horiz-adv-x="422" 
d="M122 784q0 11 4.5 22.5t12 20.5t17 15t19.5 6q25 0 41.5 -15t30.5 -34v-5q0 -28 -17 -51t-46 -23q-10 0 -21 6t-20 15t-15 20.5t-6 22.5zM78 22q-10 40 -15 75.5t-7 75.5q-1 23 0 39.5t-4 36.5q-1 4 -4.5 6t-7 5t-6.5 7.5t-3 14.5q0 8 3.5 14t7 11.5t7 12t3.5 15.5v15
q0 10 -2 34t-4 51t-3.5 51t-2.5 33q-1 17 -9 30t-8 30q0 32 13 45t46 13q7 0 11.5 -6t10.5 -6h4q3 1 9 2.5t8 1.5q84 36 131 56t71 29t32.5 10t14.5 -2q12 -2 16.5 -7.5t4.5 -16.5q0 -10 -3 -20t-14 -15l-131 -63l-4 -4l-110 -47q-6 -2 -7 -10t-1 -13q0 -8 2 -29t4 -43.5
t4.5 -40t3.5 -17.5h1l1 1q11 8 35 27.5t49 39.5t44 35.5t20 15.5q11 0 20 -11t9 -23t-5 -27t-16 -23l-156 -139v-5t-0.5 -11t-0.5 -12.5v-10.5q0 -36 5 -71.5t5 -71.5h4q1 0 9 8t12 13q2 3 9.5 13t25.5 33t48 61t77 96q4 4 11.5 12t9.5 8q3 3 12.5 2.5t13.5 -2.5
q5 -2 13 -11t8 -17q0 -12 -12.5 -31.5t-29.5 -40.5t-34 -40.5t-26 -31.5q-14 -22 -33.5 -53.5t-42.5 -60t-50.5 -49t-58.5 -20.5q-15 0 -21.5 5t-16.5 18z" />
    <glyph glyph-name="edotaccent" unicode="&#x117;" horiz-adv-x="445" 
d="M160 577q0 11 4.5 22.5t12 20.5t17 15t19.5 6q25 0 41.5 -15t30.5 -34v-5q0 -28 -17 -51t-46 -23q-10 0 -21 6t-20 15t-15 20.5t-6 22.5zM441 284q-2 -18 -4.5 -28t-8.5 -18t-17 -16.5t-30 -24t-47 -40.5t-68 -65q-16 -15 -33 -31t-35.5 -28.5t-38.5 -20.5t-42 -8
q-43 0 -63 29t-20 67q0 25 1.5 42t7.5 44q-11 10 -19 17.5t-8 20.5q0 12 5.5 16t13 5.5t14.5 3.5t10 8q2 6 7.5 22t11.5 33.5t11.5 33t7.5 21.5q7 17 15.5 34.5t20 31.5t27 23t36.5 9q12 0 29.5 -11t33.5 -26.5t27 -32.5t11 -29q0 -15 -7 -27.5t-17.5 -23t-22.5 -19.5
t-22 -17q-1 0 -4 -2t-5 -3l-4.5 -4.5l-7.5 -7.5t-7.5 -8t-4.5 -5q-3 -3 -11.5 -9.5t-18.5 -14t-18.5 -14t-11.5 -8.5l-4 -8q-2 -4 -3.5 -17.5t-3.5 -30.5t-3.5 -34.5t-1.5 -28.5q0 -1 1 -2q2 -2 3 -2q8 0 15 7t15 10l160 148l41 63q5 7 19.5 15.5t29.5 9t26.5 -9.5t11.5 -39
zM221 362q5 4 4 12t-5.5 14t-11.5 7.5t-13 -7.5q-3 -4 -10.5 -16t-15 -24.5t-12.5 -21.5t-2 -7z" />
    <glyph glyph-name="Eogonek" unicode="&#x118;" horiz-adv-x="422" 
d="M232 90q0 70 11 107t29 51t40.5 11.5t45.5 -10.5q-1 0 -2.5 -1.5l-2.5 -2.5q-33 -60 -43.5 -105t-0.5 -82q14 -14 32.5 -5.5t26.5 30.5q16 22 28 23.5t18 -9t5.5 -29.5t-9.5 -38t-27.5 -34.5t-48.5 -18.5q-49 0 -75.5 31t-26.5 82zM78 22q-10 40 -15 75.5t-7 75.5
q-1 23 0 39.5t-4 36.5q-1 4 -4.5 6t-7 5t-6.5 7.5t-3 14.5q0 8 3.5 14t7 11.5t7 12t3.5 15.5v15q0 10 -2 34t-4 51t-3.5 51t-2.5 33q-1 17 -9 30t-8 30q0 32 13 45t46 13q7 0 11.5 -6t10.5 -6h4q3 1 9 2.5t8 1.5q84 36 131 56t71 29t32.5 10t14.5 -2q12 -2 16.5 -7.5
t4.5 -16.5q0 -10 -3 -20t-14 -15l-131 -63l-4 -4l-110 -47q-6 -2 -7 -10t-1 -13q0 -8 2 -29t4 -43.5t4.5 -40t3.5 -17.5h1l1 1q11 8 35 27.5t49 39.5t44 35.5t20 15.5q11 0 20 -11t9 -23t-5 -27t-16 -23l-156 -139v-5t-0.5 -11t-0.5 -12.5v-10.5q0 -36 5 -71.5t5 -71.5h4
q1 0 9 8t12 13q2 3 9.5 13t25.5 33t48 61t77 96q4 4 11.5 12t9.5 8q3 3 12.5 2.5t13.5 -2.5q5 -2 13 -11t8 -17q0 -12 -12.5 -31.5t-29.5 -40.5t-34 -40.5t-26 -31.5q-14 -22 -33.5 -53.5t-42.5 -60t-50.5 -49t-58.5 -20.5q-15 0 -21.5 5t-16.5 18z" />
    <glyph glyph-name="eogonek" unicode="&#x119;" horiz-adv-x="445" 
d="M219 6q0 70 11 107t29 51t40.5 11.5t45.5 -10.5q-1 0 -2.5 -1.5l-2.5 -2.5q-33 -60 -43.5 -105t-0.5 -82q14 -14 32.5 -5.5t26.5 30.5q16 22 28 23.5t18 -9t5.5 -29.5t-9.5 -38t-27.5 -34.5t-48.5 -18.5q-49 0 -75.5 31t-26.5 82zM441 284q-2 -18 -4.5 -28t-8.5 -18
t-17 -16.5t-30 -24t-47 -40.5t-68 -65q-16 -15 -33 -31t-35.5 -28.5t-38.5 -20.5t-42 -8q-43 0 -63 29t-20 67q0 25 1.5 42t7.5 44q-11 10 -19 17.5t-8 20.5q0 12 5.5 16t13 5.5t14.5 3.5t10 8q2 6 7.5 22t11.5 33.5t11.5 33t7.5 21.5q7 17 15.5 34.5t20 31.5t27 23t36.5 9
q12 0 29.5 -11t33.5 -26.5t27 -32.5t11 -29q0 -15 -7 -27.5t-17.5 -23t-22.5 -19.5t-22 -17q-1 0 -4 -2t-5 -3l-4.5 -4.5l-7.5 -7.5t-7.5 -8t-4.5 -5q-3 -3 -11.5 -9.5t-18.5 -14t-18.5 -14t-11.5 -8.5l-4 -8q-2 -4 -3.5 -17.5t-3.5 -30.5t-3.5 -34.5t-1.5 -28.5q0 -1 1 -2
q2 -2 3 -2q8 0 15 7t15 10l160 148l41 63q5 7 19.5 15.5t29.5 9t26.5 -9.5t11.5 -39zM221 362q5 4 4 12t-5.5 14t-11.5 7.5t-13 -7.5q-3 -4 -10.5 -16t-15 -24.5t-12.5 -21.5t-2 -7z" />
    <glyph glyph-name="Ecaron" unicode="&#x11a;" horiz-adv-x="422" 
d="M36 869q-3 4 1 8t11.5 6.5t16 4t14.5 1.5q2 0 10 -1.5t10 -3.5q21 -23 33 -37.5t19 -23.5t9.5 -13t5.5 -7l4 -2l62 63q10 12 36 12q14 0 22 -2t8 -10q0 -3 -0.5 -4.5t-3.5 -5.5q-2 -3 -8.5 -9.5l-14 -14t-14 -14.5t-9.5 -9q0 -1 -2.5 -3.5t-3.5 -2.5l-11 -11t-17 -16.5
t-17 -16.5l-11 -11q-5 -4 -10 -5t-13 -1q-9 0 -19 1t-14 6q-2 4 -8.5 15t-8.5 14zM78 22q-10 40 -15 75.5t-7 75.5q-1 23 0 39.5t-4 36.5q-1 4 -4.5 6t-7 5t-6.5 7.5t-3 14.5q0 8 3.5 14t7 11.5t7 12t3.5 15.5v15q0 10 -2 34t-4 51t-3.5 51t-2.5 33q-1 17 -9 30t-8 30
q0 32 13 45t46 13q7 0 11.5 -6t10.5 -6h4q3 1 9 2.5t8 1.5q84 36 131 56t71 29t32.5 10t14.5 -2q12 -2 16.5 -7.5t4.5 -16.5q0 -10 -3 -20t-14 -15l-131 -63l-4 -4l-110 -47q-6 -2 -7 -10t-1 -13q0 -8 2 -29t4 -43.5t4.5 -40t3.5 -17.5h1l1 1q11 8 35 27.5t49 39.5t44 35.5
t20 15.5q11 0 20 -11t9 -23t-5 -27t-16 -23l-156 -139v-5t-0.5 -11t-0.5 -12.5v-10.5q0 -36 5 -71.5t5 -71.5h4q1 0 9 8t12 13q2 3 9.5 13t25.5 33t48 61t77 96q4 4 11.5 12t9.5 8q3 3 12.5 2.5t13.5 -2.5q5 -2 13 -11t8 -17q0 -12 -12.5 -31.5t-29.5 -40.5t-34 -40.5
t-26 -31.5q-14 -22 -33.5 -53.5t-42.5 -60t-50.5 -49t-58.5 -20.5q-15 0 -21.5 5t-16.5 18z" />
    <glyph glyph-name="ecaron" unicode="&#x11b;" horiz-adv-x="445" 
d="M51 625q-3 4 1 8t11.5 6.5t16 4t14.5 1.5q2 0 10 -1.5t10 -3.5q21 -23 33 -37.5t19 -23.5t9.5 -13t5.5 -7l4 -2l62 63q10 12 36 12q14 0 22 -2t8 -10q0 -3 -0.5 -4.5t-3.5 -5.5q-2 -3 -8.5 -9.5l-14 -14t-14 -14.5t-9.5 -9q0 -1 -2.5 -3.5t-3.5 -2.5l-11 -11t-17 -16.5
t-17 -16.5l-11 -11q-5 -4 -10 -5t-13 -1q-9 0 -19 1t-14 6q-2 4 -8.5 15t-8.5 14zM441 284q-2 -18 -4.5 -28t-8.5 -18t-17 -16.5t-30 -24t-47 -40.5t-68 -65q-16 -15 -33 -31t-35.5 -28.5t-38.5 -20.5t-42 -8q-43 0 -63 29t-20 67q0 25 1.5 42t7.5 44q-11 10 -19 17.5
t-8 20.5q0 12 5.5 16t13 5.5t14.5 3.5t10 8q2 6 7.5 22t11.5 33.5t11.5 33t7.5 21.5q7 17 15.5 34.5t20 31.5t27 23t36.5 9q12 0 29.5 -11t33.5 -26.5t27 -32.5t11 -29q0 -15 -7 -27.5t-17.5 -23t-22.5 -19.5t-22 -17q-1 0 -4 -2t-5 -3l-4.5 -4.5l-7.5 -7.5t-7.5 -8t-4.5 -5
q-3 -3 -11.5 -9.5t-18.5 -14t-18.5 -14t-11.5 -8.5l-4 -8q-2 -4 -3.5 -17.5t-3.5 -30.5t-3.5 -34.5t-1.5 -28.5q0 -1 1 -2q2 -2 3 -2q8 0 15 7t15 10l160 148l41 63q5 7 19.5 15.5t29.5 9t26.5 -9.5t11.5 -39zM221 362q5 4 4 12t-5.5 14t-11.5 7.5t-13 -7.5q-3 -4 -10.5 -16
t-15 -24.5t-12.5 -21.5t-2 -7z" />
    <glyph glyph-name="Gcircumflex" unicode="&#x11c;" horiz-adv-x="501" 
d="M196 821q1 2 3.5 8.5t5.5 13.5t6 13.5t4 9.5q4 8 14.5 9.5t20.5 1.5q8 0 14 -1.5t12 -7.5q3 -5 11.5 -17.5t18.5 -26t18.5 -26t11.5 -16.5q1 -1 4 -4.5t3 -4.5q3 -4 10 -14.5l15 -22.5t15 -23t10 -15q3 -5 3.5 -7.5t0.5 -7.5q0 -11 -9 -15t-24 -4q-13 0 -23.5 5.5
t-15.5 13.5l-67 99l-4 -3q-3 -4 -6 -11t-10.5 -21t-20.5 -36.5t-36 -58.5q-2 -2 -10.5 -5t-11.5 -3q-6 0 -15.5 2.5t-17.5 6.5t-12.5 9.5t-0.5 12.5zM374 -87q-15 60 -21.5 127.5t-8.5 126.5q-9 -5 -15 -15.5t-10.5 -22t-9.5 -23t-12 -19.5q-23 -26 -50 -47.5t-64 -21.5
q-30 0 -59.5 13t-53 34.5t-38 49.5t-14.5 59q0 43 14 87.5t34 82.5q4 7 12.5 20.5t18 27.5t17.5 25.5t11 14.5l109 115q22 23 55.5 33.5t62.5 12.5q15 2 25 -4.5t10 -21.5q0 -12 -9.5 -18.5t-22.5 -10.5t-27 -7.5t-22 -8.5q-53 -43 -96 -96.5t-77 -111.5q-11 -35 -23 -67
t-12 -70q0 -3 0.5 -13.5t0.5 -13.5q10 -24 30.5 -44t48.5 -20q14 0 29 9t23 22q4 5 14 20t20.5 32t20 32t12.5 21t8.5 15.5t10 18.5t8 16.5t3.5 8.5v4q-14 -4 -28 -6.5t-29 -2.5q-9 0 -19.5 1.5t-20 5.5t-16 11t-6.5 19q0 5 1 12t4 11q8 7 21.5 10.5t29 5l31 3t28.5 6.5
q11 4 26 10.5t31.5 13t33.5 11.5t31 7q3 0 8.5 -2t11.5 -5t10 -6.5t4 -6.5q0 -22 -12 -30.5t-31 -20.5q3 -40 -2.5 -80t-5.5 -80q0 -48 2 -98t10 -97q1 -2 3 -10.5t4.5 -17.5t4.5 -17t2 -10v-2q0 -14 -10.5 -27.5t-24.5 -13.5q-15 0 -28.5 10t-16.5 24z" />
    <glyph glyph-name="gcircumflex" unicode="&#x11d;" horiz-adv-x="416" 
d="M160 712q1 2 3.5 8.5t5.5 13.5t6 13.5t4 9.5q4 8 14.5 9.5t20.5 1.5q8 0 14 -1.5t12 -7.5q3 -5 11.5 -17.5t18.5 -26t18.5 -26t11.5 -16.5q1 -1 4 -4.5t3 -4.5q3 -4 10 -14.5l15 -22.5t15 -23t10 -15q3 -5 3.5 -7.5t0.5 -7.5q0 -11 -9 -15t-24 -4q-13 0 -23.5 5.5
t-15.5 13.5l-67 99l-4 -3q-3 -4 -6 -11t-10.5 -21t-20.5 -36.5t-36 -58.5q-2 -2 -10.5 -5t-11.5 -3q-6 0 -15.5 2.5t-17.5 6.5t-12.5 9.5t-0.5 12.5zM72 -349q-4 11 0.5 25t18.5 18q23 -10 48 -13t50.5 -1t50.5 8t48 14q23 19 32 49.5t7 83t-13.5 131t-29.5 192.5q0 3 0.5 9
t-0.5 11.5t-3.5 8.5t-6.5 0q-13 -25 -30.5 -54.5t-40 -55t-50 -42.5t-61.5 -17q-30 0 -52.5 17.5t-22.5 50.5q0 25 10.5 63t28.5 80.5t42 84.5t50 76t53 55.5t52 21.5q10 0 26.5 -3.5t32 -10.5t27 -16t11.5 -21v-81l65 -472q0 -40 -1.5 -76.5t-13 -67.5t-36.5 -55t-72 -39
q-6 -3 -25 -5t-43.5 -3t-52 0t-50 4.5t-36.5 10.5t-13 19zM228 378q-10 -11 -26.5 -35t-33.5 -53t-33.5 -60.5t-26.5 -58.5t-12.5 -46t8.5 -23q21 11 45 36.5t45.5 57t38 65t23 60.5t1 43.5t-28.5 13.5z" />
    <glyph glyph-name="Gbreve" unicode="&#x11e;" horiz-adv-x="501" 
d="M258 610q-49 4 -69.5 22t-24 38t3.5 38.5t13 24.5q10 -39 37.5 -54.5t57.5 -12t55 23.5t31 52q4 -23 2 -47.5t-13.5 -44t-34 -31.5t-58.5 -9zM374 -87q-15 60 -21.5 127.5t-8.5 126.5q-9 -5 -15 -15.5t-10.5 -22t-9.5 -23t-12 -19.5q-23 -26 -50 -47.5t-64 -21.5
q-30 0 -59.5 13t-53 34.5t-38 49.5t-14.5 59q0 43 14 87.5t34 82.5q4 7 12.5 20.5t18 27.5t17.5 25.5t11 14.5l109 115q22 23 55.5 33.5t62.5 12.5q15 2 25 -4.5t10 -21.5q0 -12 -9.5 -18.5t-22.5 -10.5t-27 -7.5t-22 -8.5q-53 -43 -96 -96.5t-77 -111.5q-11 -35 -23 -67
t-12 -70q0 -3 0.5 -13.5t0.5 -13.5q10 -24 30.5 -44t48.5 -20q14 0 29 9t23 22q4 5 14 20t20.5 32t20 32t12.5 21t8.5 15.5t10 18.5t8 16.5t3.5 8.5v4q-14 -4 -28 -6.5t-29 -2.5q-9 0 -19.5 1.5t-20 5.5t-16 11t-6.5 19q0 5 1 12t4 11q8 7 21.5 10.5t29 5l31 3t28.5 6.5
q11 4 26 10.5t31.5 13t33.5 11.5t31 7q3 0 8.5 -2t11.5 -5t10 -6.5t4 -6.5q0 -22 -12 -30.5t-31 -20.5q3 -40 -2.5 -80t-5.5 -80q0 -48 2 -98t10 -97q1 -2 3 -10.5t4.5 -17.5t4.5 -17t2 -10v-2q0 -14 -10.5 -27.5t-24.5 -13.5q-15 0 -28.5 10t-16.5 24z" />
    <glyph glyph-name="gbreve" unicode="&#x11f;" horiz-adv-x="416" 
d="M215 610q-49 4 -69.5 22t-24 38t3.5 38.5t13 24.5q10 -39 37.5 -54.5t57.5 -12t55 23.5t31 52q4 -23 2 -47.5t-13.5 -44t-34 -31.5t-58.5 -9zM72 -349q-4 11 0.5 25t18.5 18q23 -10 48 -13t50.5 -1t50.5 8t48 14q23 19 32 49.5t7 83t-13.5 131t-29.5 192.5q0 3 0.5 9
t-0.5 11.5t-3.5 8.5t-6.5 0q-13 -25 -30.5 -54.5t-40 -55t-50 -42.5t-61.5 -17q-30 0 -52.5 17.5t-22.5 50.5q0 25 10.5 63t28.5 80.5t42 84.5t50 76t53 55.5t52 21.5q10 0 26.5 -3.5t32 -10.5t27 -16t11.5 -21v-81l65 -472q0 -40 -1.5 -76.5t-13 -67.5t-36.5 -55t-72 -39
q-6 -3 -25 -5t-43.5 -3t-52 0t-50 4.5t-36.5 10.5t-13 19zM228 378q-10 -11 -26.5 -35t-33.5 -53t-33.5 -60.5t-26.5 -58.5t-12.5 -46t8.5 -23q21 11 45 36.5t45.5 57t38 65t23 60.5t1 43.5t-28.5 13.5z" />
    <glyph glyph-name="Gdotaccent" unicode="&#x120;" horiz-adv-x="501" 
d="M200 709q0 11 4.5 22.5t12 20.5t17 15t19.5 6q25 0 41.5 -15t30.5 -34v-5q0 -28 -17 -51t-46 -23q-10 0 -21 6t-20 15t-15 20.5t-6 22.5zM374 -87q-15 60 -21.5 127.5t-8.5 126.5q-9 -5 -15 -15.5t-10.5 -22t-9.5 -23t-12 -19.5q-23 -26 -50 -47.5t-64 -21.5
q-30 0 -59.5 13t-53 34.5t-38 49.5t-14.5 59q0 43 14 87.5t34 82.5q4 7 12.5 20.5t18 27.5t17.5 25.5t11 14.5l109 115q22 23 55.5 33.5t62.5 12.5q15 2 25 -4.5t10 -21.5q0 -12 -9.5 -18.5t-22.5 -10.5t-27 -7.5t-22 -8.5q-53 -43 -96 -96.5t-77 -111.5q-11 -35 -23 -67
t-12 -70q0 -3 0.5 -13.5t0.5 -13.5q10 -24 30.5 -44t48.5 -20q14 0 29 9t23 22q4 5 14 20t20.5 32t20 32t12.5 21t8.5 15.5t10 18.5t8 16.5t3.5 8.5v4q-14 -4 -28 -6.5t-29 -2.5q-9 0 -19.5 1.5t-20 5.5t-16 11t-6.5 19q0 5 1 12t4 11q8 7 21.5 10.5t29 5l31 3t28.5 6.5
q11 4 26 10.5t31.5 13t33.5 11.5t31 7q3 0 8.5 -2t11.5 -5t10 -6.5t4 -6.5q0 -22 -12 -30.5t-31 -20.5q3 -40 -2.5 -80t-5.5 -80q0 -48 2 -98t10 -97q1 -2 3 -10.5t4.5 -17.5t4.5 -17t2 -10v-2q0 -14 -10.5 -27.5t-24.5 -13.5q-15 0 -28.5 10t-16.5 24z" />
    <glyph glyph-name="gdotaccent" unicode="&#x121;" horiz-adv-x="416" 
d="M145 577q0 11 4.5 22.5t12 20.5t17 15t19.5 6q25 0 41.5 -15t30.5 -34v-5q0 -28 -17 -51t-46 -23q-10 0 -21 6t-20 15t-15 20.5t-6 22.5zM72 -349q-4 11 0.5 25t18.5 18q23 -10 48 -13t50.5 -1t50.5 8t48 14q23 19 32 49.5t7 83t-13.5 131t-29.5 192.5q0 3 0.5 9
t-0.5 11.5t-3.5 8.5t-6.5 0q-13 -25 -30.5 -54.5t-40 -55t-50 -42.5t-61.5 -17q-30 0 -52.5 17.5t-22.5 50.5q0 25 10.5 63t28.5 80.5t42 84.5t50 76t53 55.5t52 21.5q10 0 26.5 -3.5t32 -10.5t27 -16t11.5 -21v-81l65 -472q0 -40 -1.5 -76.5t-13 -67.5t-36.5 -55t-72 -39
q-6 -3 -25 -5t-43.5 -3t-52 0t-50 4.5t-36.5 10.5t-13 19zM228 378q-10 -11 -26.5 -35t-33.5 -53t-33.5 -60.5t-26.5 -58.5t-12.5 -46t8.5 -23q21 11 45 36.5t45.5 57t38 65t23 60.5t1 43.5t-28.5 13.5z" />
    <glyph glyph-name="Gcommaaccent" unicode="&#x122;" horiz-adv-x="501" 
d="M253 -181q-14 11 -11 27t8 32t4 30.5t-22 22.5q-14 8 -15.5 16.5t4.5 15.5t17.5 11t24.5 4q19 0 30.5 -8.5t11.5 -28.5v-8t-1 -6q-2 -25 -3.5 -46t-5.5 -35.5t-13.5 -22t-28.5 -4.5zM374 -87q-15 60 -21.5 127.5t-8.5 126.5q-9 -5 -15 -15.5t-10.5 -22t-9.5 -23
t-12 -19.5q-23 -26 -50 -47.5t-64 -21.5q-30 0 -59.5 13t-53 34.5t-38 49.5t-14.5 59q0 43 14 87.5t34 82.5q4 7 12.5 20.5t18 27.5t17.5 25.5t11 14.5l109 115q22 23 55.5 33.5t62.5 12.5q15 2 25 -4.5t10 -21.5q0 -12 -9.5 -18.5t-22.5 -10.5t-27 -7.5t-22 -8.5
q-53 -43 -96 -96.5t-77 -111.5q-11 -35 -23 -67t-12 -70q0 -3 0.5 -13.5t0.5 -13.5q10 -24 30.5 -44t48.5 -20q14 0 29 9t23 22q4 5 14 20t20.5 32t20 32t12.5 21t8.5 15.5t10 18.5t8 16.5t3.5 8.5v4q-14 -4 -28 -6.5t-29 -2.5q-9 0 -19.5 1.5t-20 5.5t-16 11t-6.5 19
q0 5 1 12t4 11q8 7 21.5 10.5t29 5l31 3t28.5 6.5q11 4 26 10.5t31.5 13t33.5 11.5t31 7q3 0 8.5 -2t11.5 -5t10 -6.5t4 -6.5q0 -22 -12 -30.5t-31 -20.5q3 -40 -2.5 -80t-5.5 -80q0 -48 2 -98t10 -97q1 -2 3 -10.5t4.5 -17.5t4.5 -17t2 -10v-2q0 -14 -10.5 -27.5
t-24.5 -13.5q-15 0 -28.5 10t-16.5 24z" />
    <glyph glyph-name="gcommaaccent" unicode="&#x123;" horiz-adv-x="416" 
d="M72 -349q-4 11 0.5 25t18.5 18q23 -10 48 -13t50.5 -1t50.5 8t48 14q23 19 32 49.5t7 83t-13.5 131t-29.5 192.5q0 3 0.5 9t-0.5 11.5t-3.5 8.5t-6.5 0q-13 -25 -30.5 -54.5t-40 -55t-50 -42.5t-61.5 -17q-30 0 -52.5 17.5t-22.5 50.5q0 25 10.5 63t28.5 80.5t42 84.5
t50 76t53 55.5t52 21.5q10 0 26.5 -3.5t32 -10.5t27 -16t11.5 -21v-81l65 -472q0 -40 -1.5 -76.5t-13 -67.5t-36.5 -55t-72 -39q-6 -3 -25 -5t-43.5 -3t-52 0t-50 4.5t-36.5 10.5t-13 19zM228 378q-10 -11 -26.5 -35t-33.5 -53t-33.5 -60.5t-26.5 -58.5t-12.5 -46t8.5 -23
q21 11 45 36.5t45.5 57t38 65t23 60.5t1 43.5t-28.5 13.5zM166 586q0 7 1.5 25t3 38t2.5 38t1 26q7 25 32 25q22 0 31 -12.5t9 -32.5q0 -6 -0.5 -23.5t-2.5 -40t-4.5 -47t-6.5 -44.5t-10 -33t-13 -12q-14 2 -22 10.5t-13 19.5t-6.5 23.5t-1.5 23.5v16z" />
    <glyph glyph-name="Hcircumflex" unicode="&#x124;" horiz-adv-x="367" 
d="M117 965q1 2 3.5 8.5t5.5 13.5t6 13.5t4 9.5q4 8 14.5 9.5t20.5 1.5q8 0 14 -1.5t12 -7.5q3 -5 11.5 -17.5t18.5 -26t18.5 -26t11.5 -16.5q1 -1 4 -4.5t3 -4.5q3 -4 10 -14.5l15 -22.5t15 -23t10 -15q3 -5 3.5 -7.5t0.5 -7.5q0 -11 -9 -15t-24 -4q-13 0 -23.5 5.5
t-15.5 13.5l-67 99l-4 -3q-3 -4 -6 -11t-10.5 -21t-20.5 -36.5t-36 -58.5q-2 -2 -10.5 -5t-11.5 -3q-6 0 -15.5 2.5t-17.5 6.5t-12.5 9.5t-0.5 12.5zM131 257h-3q0 -41 1.5 -80.5t1.5 -81.5q0 -12 -0.5 -23.5t-3.5 -21t-10.5 -15t-22.5 -5.5q-28 0 -39 29q-5 47 -6 92.5
t-6 93.5q-2 14 -11.5 27t-9.5 25q0 9 6.5 15t6.5 17q0 78 -4.5 154.5t-4.5 153.5v17q7 10 14 12t19 2q29 0 37 -17.5t9 -42.5l9 -266q1 -3 3.5 -9.5t7.5 -6.5q7 0 26 3.5t40 8t38 10t20 10.5q0 7 0.5 25t0.5 25q0 42 -1 83t-4 83q0 7 -3 33.5t-6 57.5t-5.5 57.5t-2.5 33.5
q-1 1 -1 6.5v7.5q0 13 9.5 19t20.5 6q24 0 35.5 -15t16.5 -37q1 -11 3 -37t5 -56t5.5 -56.5t3.5 -36.5v-16q0 -5 1.5 -19.5t2.5 -19.5v-410q5 -17 6.5 -28t1.5 -26q0 -12 -6.5 -25.5t-22.5 -13.5q-14 0 -25.5 7t-20 18t-13.5 24.5t-5 27.5v206z" />
    <glyph glyph-name="hcircumflex" unicode="&#x125;" horiz-adv-x="388" 
d="M220 807q1 2 3.5 8.5t5.5 13.5t6 13.5t4 9.5q4 8 14.5 9.5t20.5 1.5q8 0 14 -1.5t12 -7.5q3 -5 11.5 -17.5t18.5 -26t18.5 -26t11.5 -16.5q1 -1 4 -4.5t3 -4.5q3 -4 10 -14.5l15 -22.5t15 -23t10 -15q3 -5 3.5 -7.5t0.5 -7.5q0 -11 -9 -15t-24 -4q-13 0 -23.5 5.5
t-15.5 13.5l-67 99l-4 -3q-3 -4 -6 -11t-10.5 -21t-20.5 -36.5t-36 -58.5q-2 -2 -10.5 -5t-11.5 -3q-6 0 -15.5 2.5t-17.5 6.5t-12.5 9.5t-0.5 12.5zM38 489q2 60 -5 120t-7 119q0 19 11 23.5t25 4.5q20 0 33 -11t15 -31q9 -109 10.5 -215.5t14.5 -215.5q30 57 62 94
t61.5 49t54 -4.5t39.5 -65t18 -132t-10 -207.5q-7 0 -17 -0.5t-19.5 0.5t-16.5 4t-8 11q8 75 9 126t-3 84t-11 50.5t-15 25.5t-15.5 8.5t-11.5 -0.5q-22 -8 -41.5 -39t-33.5 -72t-20.5 -86.5t-3.5 -81.5l-2 -16t-3.5 -15t-8 -11.5t-16.5 -4.5q-21 0 -33.5 7.5t-19 19.5
t-8 28t0.5 33z" />
    <glyph glyph-name="Hbar" unicode="&#x126;" horiz-adv-x="759" 
d="M100 610v121h92v-121h374v121h92v-121h100v-74h-100v-536h-92v341h-374v-341h-92v536h-100v74h100zM566 422v114h-374v-114h374z" />
    <glyph glyph-name="hbar" unicode="&#x127;" horiz-adv-x="388" 
d="M38 489q2 60 -5 120t-7 119q0 19 11 23.5t25 4.5q20 0 33 -11t15 -31q9 -109 10.5 -215.5t14.5 -215.5q30 57 62 94t61.5 49t54 -4.5t39.5 -65t18 -132t-10 -207.5q-7 0 -17 -0.5t-19.5 0.5t-16.5 4t-8 11q8 75 9 126t-3 84t-11 50.5t-15 25.5t-15.5 8.5t-11.5 -0.5
q-22 -8 -41.5 -39t-33.5 -72t-20.5 -86.5t-3.5 -81.5l-2 -16t-3.5 -15t-8 -11.5t-16.5 -4.5q-21 0 -33.5 7.5t-19 19.5t-8 28t0.5 33zM-36 513q0 17 12 24.5t26 10.5l251 25q17 0 32 -6t15 -26q0 -5 -6.5 -11t-14.5 -11t-17 -8.5t-13 -1.5l-247 -27q-13 0 -25.5 8.5
t-12.5 22.5z" />
    <glyph glyph-name="Itilde" unicode="&#x128;" horiz-adv-x="154" 
d="M-55 623q0 5 0.5 8.5t1.5 8.5q7 21 14.5 42t18 39.5t24 32.5t31.5 20q7 0 13 -1.5t12 -9.5l57 -72q8 -5 13.5 -12t15.5 -7q7 0 13 11t9 16q6 9 10.5 20t10 21t12 16.5t16.5 6.5q11 0 14.5 -9t3.5 -23q0 -21 -7 -44.5t-18.5 -42.5t-25.5 -31.5t-29 -12.5q-18 -1 -34 8
t-30.5 22.5t-28.5 28.5t-27 26q-10 0 -18.5 -14t-16 -30.5t-15 -30t-14.5 -13.5t-16.5 7t-9.5 19zM23 566q8 11 14.5 14.5t18.5 3.5q16 0 30.5 -9t16.5 -26q4 -28 4.5 -56.5t0 -57l-1 -57t1.5 -56.5q4 -68 12.5 -141t8.5 -141q0 -20 -8 -30t-31 -10q-19 0 -29 13t-14.5 31
t-5.5 36.5t-1 29.5q0 8 -1.5 33.5t-3 60t-3.5 73t-4 73t-3.5 60t-1.5 33.5v62v61z" />
    <glyph glyph-name="itilde" unicode="&#x129;" horiz-adv-x="173" 
d="M70 38q-10 100 -17 171t-12 119t-8.5 76.5t-5.5 43t-3 19.5t-1 6v4q0 11 9.5 18.5t19.5 7.5q15 0 32.5 -5t23.5 -21q9 -49 12.5 -99t6 -99.5t7 -99.5t16.5 -99q0 -2 1.5 -8t3 -13t2.5 -13t1 -8v-2q0 -1 1 -2q0 -12 -11 -24t-23 -10q-3 1 -14.5 3.5t-15.5 4.5q-3 1 -8 4.5
t-9.5 7.5t-7.5 9t0 9zM-64 568q0 5 0.5 8.5t1.5 8.5q7 21 14.5 42t18 39.5t24 32.5t31.5 20q7 0 13 -1.5t12 -9.5l57 -72q8 -5 13.5 -12t15.5 -7q7 0 13 11t9 16q6 9 10.5 20t10 21t12 16.5t16.5 6.5q11 0 14.5 -9t3.5 -23q0 -21 -7 -44.5t-18.5 -42.5t-25.5 -31.5
t-29 -12.5q-18 -1 -34 8t-30.5 22.5t-28.5 28.5t-27 26q-10 0 -18.5 -14t-16 -30.5t-15 -30t-14.5 -13.5t-16.5 7t-9.5 19z" />
    <glyph glyph-name="Imacron" unicode="&#x12a;" horiz-adv-x="347" 
d="M22 862h304v-73h-304v73zM23 566q8 11 14.5 14.5t18.5 3.5q16 0 30.5 -9t16.5 -26q4 -28 4.5 -56.5t0 -57l-1 -57t1.5 -56.5q4 -68 12.5 -141t8.5 -141q0 -20 -8 -30t-31 -10q-19 0 -29 13t-14.5 31t-5.5 36.5t-1 29.5q0 8 -1.5 33.5t-3 60t-3.5 73t-4 73t-3.5 60
t-1.5 33.5v62v61z" />
    <glyph glyph-name="imacron" unicode="&#x12b;" horiz-adv-x="173" 
d="M70 38q-10 100 -17 171t-12 119t-8.5 76.5t-5.5 43t-3 19.5t-1 6v4q0 11 9.5 18.5t19.5 7.5q15 0 32.5 -5t23.5 -21q9 -49 12.5 -99t6 -99.5t7 -99.5t16.5 -99q0 -2 1.5 -8t3 -13t2.5 -13t1 -8v-2q0 -1 1 -2q0 -12 -11 -24t-23 -10q-3 1 -14.5 3.5t-15.5 4.5q-3 1 -8 4.5
t-9.5 7.5t-7.5 9t0 9zM-81 714q0 17 12 24.5t26 10.5l251 25q17 0 32 -6t15 -26q0 -5 -6.5 -11t-14.5 -11t-17 -8.5t-13 -1.5l-247 -27q-13 0 -25.5 8.5t-12.5 22.5z" />
    <glyph glyph-name="Ibreve" unicode="&#x12c;" horiz-adv-x="154" 
d="M86 610q-49 4 -69.5 22t-24 38t3.5 38.5t13 24.5q10 -39 37.5 -54.5t57.5 -12t55 23.5t31 52q4 -23 2 -47.5t-13.5 -44t-34 -31.5t-58.5 -9zM23 566q8 11 14.5 14.5t18.5 3.5q16 0 30.5 -9t16.5 -26q4 -28 4.5 -56.5t0 -57l-1 -57t1.5 -56.5q4 -68 12.5 -141t8.5 -141
q0 -20 -8 -30t-31 -10q-19 0 -29 13t-14.5 31t-5.5 36.5t-1 29.5q0 8 -1.5 33.5t-3 60t-3.5 73t-4 73t-3.5 60t-1.5 33.5v62v61z" />
    <glyph glyph-name="ibreve" unicode="&#x12d;" horiz-adv-x="264" 
d="M-32 610q-49 4 -69.5 22t-24 38t3.5 38.5t13 24.5q10 -39 37.5 -54.5t57.5 -12t55 23.5t31 52q4 -23 2 -47.5t-13.5 -44t-34 -31.5t-58.5 -9zM177 0h-90v549h90v-549z" />
    <glyph glyph-name="Iogonek" unicode="&#x12e;" horiz-adv-x="154" 
d="M-11 -133q0 70 11 107t29 51t40.5 11.5t45.5 -10.5q-1 0 -2.5 -1.5l-2.5 -2.5q-33 -60 -43.5 -105t-0.5 -82q14 -14 32.5 -5.5t26.5 30.5q16 22 28 23.5t18 -9t5.5 -29.5t-9.5 -38t-27.5 -34.5t-48.5 -18.5q-49 0 -75.5 31t-26.5 82zM23 566q8 11 14.5 14.5t18.5 3.5
q16 0 30.5 -9t16.5 -26q4 -28 4.5 -56.5t0 -57l-1 -57t1.5 -56.5q4 -68 12.5 -141t8.5 -141q0 -20 -8 -30t-31 -10q-19 0 -29 13t-14.5 31t-5.5 36.5t-1 29.5q0 8 -1.5 33.5t-3 60t-3.5 73t-4 73t-3.5 60t-1.5 33.5v62v61z" />
    <glyph glyph-name="iogonek" unicode="&#x12f;" horiz-adv-x="173" 
d="M12 -129q0 70 11 107t29 51t40.5 11.5t45.5 -10.5q-1 0 -2.5 -1.5l-2.5 -2.5q-33 -60 -43.5 -105t-0.5 -82q14 -14 32.5 -5.5t26.5 30.5q16 22 28 23.5t18 -9t5.5 -29.5t-9.5 -38t-27.5 -34.5t-48.5 -18.5q-49 0 -75.5 31t-26.5 82zM70 38q-10 100 -17 171t-12 119
t-8.5 76.5t-5.5 43t-3 19.5t-1 6v4q0 11 9.5 18.5t19.5 7.5q15 0 32.5 -5t23.5 -21q9 -49 12.5 -99t6 -99.5t7 -99.5t16.5 -99q0 -2 1.5 -8t3 -13t2.5 -13t1 -8v-2q0 -1 1 -2q0 -12 -11 -24t-23 -10q-3 1 -14.5 3.5t-15.5 4.5q-3 1 -8 4.5t-9.5 7.5t-7.5 9t0 9zM14 767
q0 7 11.5 12.5t17.5 5.5q15 0 33.5 -8.5t18.5 -25.5t-4.5 -23t-21.5 -6q-18 0 -36.5 12t-18.5 33z" />
    <glyph glyph-name="Idotaccent" unicode="&#x130;" horiz-adv-x="154" 
d="M10 703q0 11 4.5 22.5t12 20.5t17 15t19.5 6q25 0 41.5 -15t30.5 -34v-5q0 -28 -17 -51t-46 -23q-10 0 -21 6t-20 15t-15 20.5t-6 22.5zM23 566q8 11 14.5 14.5t18.5 3.5q16 0 30.5 -9t16.5 -26q4 -28 4.5 -56.5t0 -57l-1 -57t1.5 -56.5q4 -68 12.5 -141t8.5 -141
q0 -20 -8 -30t-31 -10q-19 0 -29 13t-14.5 31t-5.5 36.5t-1 29.5q0 8 -1.5 33.5t-3 60t-3.5 73t-4 73t-3.5 60t-1.5 33.5v62v61z" />
    <glyph glyph-name="dotlessi" unicode="&#x131;" horiz-adv-x="264" 
d="M177 0h-90v549h90v-549z" />
    <glyph glyph-name="IJ" unicode="&#x132;" horiz-adv-x="626" 
d="M23 566q8 11 14.5 14.5t18.5 3.5q16 0 30.5 -9t16.5 -26q4 -28 4.5 -56.5t0 -57l-1 -57t1.5 -56.5q4 -68 12.5 -141t8.5 -141q0 -20 -8 -30t-31 -10q-19 0 -29 13t-14.5 31t-5.5 36.5t-1 29.5q0 8 -1.5 33.5t-3 60t-3.5 73t-4 73t-3.5 60t-1.5 33.5v62v61zM357 255
q0 13 7 25t23 12q9 0 15 -6t10.5 -14.5t8.5 -17t9 -13.5q7 -6 24.5 -26t35.5 -42t33 -40.5t17 -22.5q2 -2 6 -6.5t6 -6.5l4 4q0 1 0.5 10t0.5 20v22.5v18.5q0 86 -2.5 170.5t-2.5 170.5v141q3 14 12.5 20.5t22.5 6.5q14 0 27.5 -6t17.5 -21q-2 -125 3.5 -246t5.5 -245v-42.5
t-4.5 -54.5t-17 -47t-36.5 -20q-2 0 -5.5 0.5t-4.5 0.5q-5 2 -18 10t-15 12l-165 185q-12 13 -15 23.5t-3 24.5z" />
    <glyph glyph-name="ij" unicode="&#x133;" horiz-adv-x="526" 
d="M70 38q-10 100 -17 171t-12 119t-8.5 76.5t-5.5 43t-3 19.5t-1 6v4q0 11 9.5 18.5t19.5 7.5q15 0 32.5 -5t23.5 -21q9 -49 12.5 -99t6 -99.5t7 -99.5t16.5 -99q0 -2 1.5 -8t3 -13t2.5 -13t1 -8v-2q0 -1 1 -2q0 -12 -11 -24t-23 -10q-3 1 -14.5 3.5t-15.5 4.5q-3 1 -8 4.5
t-9.5 7.5t-7.5 9t0 9zM14 767q0 7 11.5 12.5t17.5 5.5q15 0 33.5 -8.5t18.5 -25.5t-4.5 -23t-21.5 -6q-18 0 -36.5 12t-18.5 33zM146 -165q0 29 6 41.5t15 13t20.5 -7.5t25 -18t27 -19.5t26.5 -11.5q28 0 46 19.5t28.5 47t14 57.5t3.5 50v6.5t-1.5 19.5t-3.5 44.5t-6.5 79.5
t-11 125.5t-16.5 183.5q0 15 7.5 25t23.5 10q20 0 33 -5.5t24 -24.5q0 -12 1 -26.5t3 -37t5.5 -56t8 -82t10 -116t11.5 -157.5q0 -33 -5.5 -68t-19.5 -66.5t-38 -56t-60 -35.5q-6 2 -12 -1t-12 -3q-20 0 -43 4t-45 12t-39.5 21.5t-25.5 31.5zM272 728q0 16 12.5 21.5
t24.5 5.5q19 0 36 -11t17 -34q0 -13 -13.5 -18.5t-23.5 -5.5q-7 0 -16 3.5t-17.5 9.5t-14 13.5t-5.5 15.5z" />
    <glyph glyph-name="Jcircumflex" unicode="&#x134;" horiz-adv-x="323" 
d="M180 890q1 2 3.5 8.5t5.5 13.5t6 13.5t4 9.5q4 8 14.5 9.5t20.5 1.5q8 0 14 -1.5t12 -7.5q3 -5 11.5 -17.5t18.5 -26t18.5 -26t11.5 -16.5q1 -1 4 -4.5t3 -4.5q3 -4 10 -14.5l15 -22.5t15 -23t10 -15q3 -5 3.5 -7.5t0.5 -7.5q0 -11 -9 -15t-24 -4q-13 0 -23.5 5.5
t-15.5 13.5l-67 99l-4 -3q-3 -4 -6 -11t-10.5 -21t-20.5 -36.5t-36 -58.5q-2 -2 -10.5 -5t-11.5 -3q-6 0 -15.5 2.5t-17.5 6.5t-12.5 9.5t-0.5 12.5zM10 255q0 13 7 25t23 12q9 0 15 -6t10.5 -14.5t8.5 -17t9 -13.5q7 -6 24.5 -26t35.5 -42t33 -40.5t17 -22.5q2 -2 6 -6.5
t6 -6.5l4 4q0 1 0.5 10t0.5 20v22.5v18.5q0 86 -2.5 170.5t-2.5 170.5v141q3 14 12.5 20.5t22.5 6.5q14 0 27.5 -6t17.5 -21q-2 -125 3.5 -246t5.5 -245v-42.5t-4.5 -54.5t-17 -47t-36.5 -20q-2 0 -5.5 0.5t-4.5 0.5q-5 2 -18 10t-15 12l-165 185q-12 13 -15 23.5t-3 24.5z
" />
    <glyph glyph-name="jcircumflex" unicode="&#x135;" horiz-adv-x="201" 
d="M-116 -165q0 29 6 41.5t15 13t20.5 -7.5t25 -18t27 -19.5t26.5 -11.5q28 0 46 19.5t28.5 47t14 57.5t3.5 50v6.5t-1.5 19.5t-3.5 44.5t-6.5 79.5t-11 125.5t-16.5 183.5q0 15 7.5 25t23.5 10q20 0 33 -5.5t24 -24.5q0 -12 1 -26.5t3 -37t5.5 -56t8 -82t10 -116
t11.5 -157.5q0 -33 -5.5 -68t-19.5 -66.5t-38 -56t-60 -35.5q-6 2 -12 -1t-12 -3q-20 0 -43 4t-45 12t-39.5 21.5t-25.5 31.5zM47 821q1 2 3.5 8.5t5.5 13.5t6 13.5t4 9.5q4 8 14.5 9.5t20.5 1.5q8 0 14 -1.5t12 -7.5q3 -5 11.5 -17.5t18.5 -26t18.5 -26t11.5 -16.5
q1 -1 4 -4.5t3 -4.5q3 -4 10 -14.5l15 -22.5t15 -23t10 -15q3 -5 3.5 -7.5t0.5 -7.5q0 -11 -9 -15t-24 -4q-13 0 -23.5 5.5t-15.5 13.5l-67 99l-4 -3q-3 -4 -6 -11t-10.5 -21t-20.5 -36.5t-36 -58.5q-2 -2 -10.5 -5t-11.5 -3q-6 0 -15.5 2.5t-17.5 6.5t-12.5 9.5t-0.5 12.5z
" />
    <glyph glyph-name="Kcommaaccent" unicode="&#x136;" horiz-adv-x="592" 
d="M298 -181q-14 11 -11 27t8 32t4 30.5t-22 22.5q-14 8 -15.5 16.5t4.5 15.5t17.5 11t24.5 4q19 0 30.5 -8.5t11.5 -28.5v-8t-1 -6q-2 -25 -3.5 -46t-5.5 -35.5t-13.5 -22t-28.5 -4.5zM76 143q-11 5 -20.5 16t-9.5 22q0 14 8.5 24t8.5 24q0 23 -5.5 46t-2.5 47l-29 282v2
q0 12 10 25t23 11q3 0 8.5 -1.5t12.5 -4t12.5 -5.5t8.5 -6q2 -2 7 -12t6 -13q8 -29 7.5 -64.5t1.5 -66.5q1 -11 2.5 -34.5t4 -47t5.5 -41t6 -17.5l2 1q51 51 89.5 105.5t63.5 121.5q0 2 2 8t4 12.5t3.5 13t2.5 9.5l1 6t3 12.5t4.5 12.5t5.5 6h46q7 0 11.5 -5t7.5 -12
t4 -13.5t1 -10.5q0 -1 -1.5 -4.5t-2.5 -4.5v-8q-8 -28 -17 -51t-19.5 -45t-23.5 -44t-28 -47q-5 -8 -16 -17.5t-14 -20.5l-92 -109l-13 -26h4q43 11 82.5 16t78.5 7t79 2t85 1q1 0 7 0.5t12 1.5t11.5 1.5t7.5 0.5h9q11 0 24.5 -4t17.5 -18q4 -11 -3.5 -23.5t-17.5 -17.5
q-3 -1 -10.5 -2t-15.5 -2.5t-15 -3t-10 -1.5h-13q-21 -1 -52.5 -1t-60.5 -1q-34 -1 -72 -2l-148 -30v-6q0 -22 6.5 -43t6.5 -43q0 -20 -10 -35.5t-33 -15.5q-12 0 -26 13t-17 25l-16 105v0z" />
    <glyph glyph-name="kcommaaccent" unicode="&#x137;" horiz-adv-x="399" 
d="M202 -181q-14 11 -11 27t8 32t4 30.5t-22 22.5q-14 8 -15.5 16.5t4.5 15.5t17.5 11t24.5 4q19 0 30.5 -8.5t11.5 -28.5v-8t-1 -6q-2 -25 -3.5 -46t-5.5 -35.5t-13.5 -22t-28.5 -4.5zM37 -37q0 5 -1 17t-1.5 25.5t-1 25t-0.5 16.5q-1 28 -0.5 85t1 125.5t1.5 140.5
t1 131.5t-0.5 98.5t-2.5 40q0 10 7 20.5t18 8.5q8 0 18.5 -2.5t19.5 -7.5t15.5 -12.5t6.5 -18.5v-292h4l115 131q7 9 13.5 21t13.5 23t16 20t23 12q21 -5 36 -14t15 -32q0 -2 -1.5 -6.5t-2.5 -6.5q-3 -4 -12.5 -15.5t-31 -38t-58 -70t-93.5 -112.5l9 -5l194 -20
q13 -2 23.5 -14.5t10.5 -23.5q0 -20 -14.5 -28.5t-31.5 -10.5q-1 4 -6.5 4.5l-27.5 2.5t-66.5 6.5t-123.5 16.5l4 -238q0 -20 -7 -30.5t-31 -10.5q-18 0 -31.5 11.5t-19.5 26.5z" />
    <glyph glyph-name="kgreenlandic" unicode="&#x138;" horiz-adv-x="547" 
d="M412 549h109l-207 -243l224 -306h-108l-180 248l-68 -56v-192h-95v549h95v-143q0 -70 -6 -138l42 52z" />
    <glyph glyph-name="Lacute" unicode="&#x139;" horiz-adv-x="447" 
d="M32 155q0 77 2.5 153t2.5 154q0 45 -4.5 90t-4.5 90q0 14 8.5 24t22.5 10q24 0 36 -10t17 -25t5 -34v-37q0 -4 0.5 -20t1.5 -34.5t1.5 -34.5t0.5 -20v-33q0 -65 -2 -129t-2 -130v-42q0 -5 1.5 -13.5t2.5 -8.5h8l237 94q8 7 14 7.5t14 0.5q5 0 13 -0.5t15.5 -3t13 -7
t5.5 -13.5q0 -23 -25 -40q-32 -17 -66 -31.5t-69 -23.5l-5 -4q-48 -13 -89.5 -38t-86.5 -46h-9q-27 0 -40 18t-17 42.5t-3 51t1 43.5zM110 793q-3 26 4.5 41t20 27t27.5 25t29 36q15 12 28 8t24 -21q6 -9 5.5 -16.5t-4.5 -15t-9.5 -13.5t-9.5 -12q-8 -10 -23 -27.5t-32 -31
t-33.5 -16.5t-26.5 16z" />
    <glyph glyph-name="lacute" unicode="&#x13a;" horiz-adv-x="153" 
d="M31 70q0 42 2 82t2 82q-3 114 -2 223.5t-10 224.5q0 19 9 25.5t27 6.5q23 0 39.5 -13.5t17.5 -37.5q-2 -142 3.5 -281.5t5.5 -282.5v-77q-6 -8 -17 -16t-22 -6q-29 5 -42 23.5t-13 46.5zM21 773q-3 26 4.5 41t20 27t27.5 25t29 36q15 12 28 8t24 -21q6 -9 5.5 -16.5
t-4.5 -15t-9.5 -13.5t-9.5 -12q-8 -10 -23 -27.5t-32 -31t-33.5 -16.5t-26.5 16z" />
    <glyph glyph-name="Lcommaaccent" unicode="&#x13b;" horiz-adv-x="447" 
d="M226 -181q-14 11 -11 27t8 32t4 30.5t-22 22.5q-14 8 -15.5 16.5t4.5 15.5t17.5 11t24.5 4q19 0 30.5 -8.5t11.5 -28.5v-8t-1 -6q-2 -25 -3.5 -46t-5.5 -35.5t-13.5 -22t-28.5 -4.5zM32 155q0 77 2.5 153t2.5 154q0 45 -4.5 90t-4.5 90q0 14 8.5 24t22.5 10q24 0 36 -10
t17 -25t5 -34v-37q0 -4 0.5 -20t1.5 -34.5t1.5 -34.5t0.5 -20v-33q0 -65 -2 -129t-2 -130v-42q0 -5 1.5 -13.5t2.5 -8.5h8l237 94q8 7 14 7.5t14 0.5q5 0 13 -0.5t15.5 -3t13 -7t5.5 -13.5q0 -23 -25 -40q-32 -17 -66 -31.5t-69 -23.5l-5 -4q-48 -13 -89.5 -38t-86.5 -46h-9
q-27 0 -40 18t-17 42.5t-3 51t1 43.5z" />
    <glyph glyph-name="lcommaaccent" unicode="&#x13c;" horiz-adv-x="153" 
d="M80 -181q-14 11 -11 27t8 32t4 30.5t-22 22.5q-14 8 -15.5 16.5t4.5 15.5t17.5 11t24.5 4q19 0 30.5 -8.5t11.5 -28.5v-8t-1 -6q-2 -25 -3.5 -46t-5.5 -35.5t-13.5 -22t-28.5 -4.5zM31 70q0 42 2 82t2 82q-3 114 -2 223.5t-10 224.5q0 19 9 25.5t27 6.5q23 0 39.5 -13.5
t17.5 -37.5q-2 -142 3.5 -281.5t5.5 -282.5v-77q-6 -8 -17 -16t-22 -6q-29 5 -42 23.5t-13 46.5z" />
    <glyph glyph-name="Lcaron" unicode="&#x13d;" horiz-adv-x="536" 
d="M340 580q12 33 22 79.5t12 72.5h90v-9q-6 -26 -28 -72.5t-46 -82.5h-50v12zM32 155q0 77 2.5 153t2.5 154q0 45 -4.5 90t-4.5 90q0 14 8.5 24t22.5 10q24 0 36 -10t17 -25t5 -34v-37q0 -4 0.5 -20t1.5 -34.5t1.5 -34.5t0.5 -20v-33q0 -65 -2 -129t-2 -130v-42
q0 -5 1.5 -13.5t2.5 -8.5h8l237 94q8 7 14 7.5t14 0.5q5 0 13 -0.5t15.5 -3t13 -7t5.5 -13.5q0 -23 -25 -40q-32 -17 -66 -31.5t-69 -23.5l-5 -4q-48 -13 -89.5 -38t-86.5 -46h-9q-27 0 -40 18t-17 42.5t-3 51t1 43.5z" />
    <glyph glyph-name="lcaron" unicode="&#x13e;" horiz-adv-x="264" 
d="M224 626q12 33 22 79.5t12 72.5h90v-9q-6 -26 -28 -72.5t-46 -82.5h-50v12zM31 70q0 42 2 82t2 82q-3 114 -2 223.5t-10 224.5q0 19 9 25.5t27 6.5q23 0 39.5 -13.5t17.5 -37.5q-2 -142 3.5 -281.5t5.5 -282.5v-77q-6 -8 -17 -16t-22 -6q-29 5 -42 23.5t-13 46.5z" />
    <glyph glyph-name="Ldot" unicode="&#x13f;" horiz-adv-x="447" 
d="M32 155q0 77 2.5 153t2.5 154q0 45 -4.5 90t-4.5 90q0 14 8.5 24t22.5 10q24 0 36 -10t17 -25t5 -34v-37q0 -4 0.5 -20t1.5 -34.5t1.5 -34.5t0.5 -20v-33q0 -65 -2 -129t-2 -130v-42q0 -5 1.5 -13.5t2.5 -8.5h8l237 94q8 7 14 7.5t14 0.5q5 0 13 -0.5t15.5 -3t13 -7
t5.5 -13.5q0 -23 -25 -40q-32 -17 -66 -31.5t-69 -23.5l-5 -4q-48 -13 -89.5 -38t-86.5 -46h-9q-27 0 -40 18t-17 42.5t-3 51t1 43.5zM182 284q0 14 10.5 26t24.5 12q17 0 27.5 -9t20.5 -20v-3q0 -17 -11.5 -30.5t-30.5 -13.5q-13 0 -27 12t-14 26z" />
    <glyph glyph-name="ldot" unicode="&#x140;" horiz-adv-x="282" 
d="M31 70q0 42 2 82t2 82q-3 114 -2 223.5t-10 224.5q0 19 9 25.5t27 6.5q23 0 39.5 -13.5t17.5 -37.5q-2 -142 3.5 -281.5t5.5 -282.5v-77q-6 -8 -17 -16t-22 -6q-29 5 -42 23.5t-13 46.5zM178 284q0 14 10.5 26t24.5 12q17 0 27.5 -9t20.5 -20v-3q0 -17 -11.5 -30.5
t-30.5 -13.5q-13 0 -27 12t-14 26z" />
    <glyph glyph-name="Lslash" unicode="&#x141;" horiz-adv-x="447" 
d="M32 155q0 77 2.5 153t2.5 154q0 45 -4.5 90t-4.5 90q0 14 8.5 24t22.5 10q24 0 36 -10t17 -25t5 -34v-37q0 -4 0.5 -20t1.5 -34.5t1.5 -34.5t0.5 -20v-33q0 -65 -2 -129t-2 -130v-42q0 -5 1.5 -13.5t2.5 -8.5h8l237 94q8 7 14 7.5t14 0.5q5 0 13 -0.5t15.5 -3t13 -7
t5.5 -13.5q0 -23 -25 -40q-32 -17 -66 -31.5t-69 -23.5l-5 -4q-48 -13 -89.5 -38t-86.5 -46h-9q-27 0 -40 18t-17 42.5t-3 51t1 43.5zM-48 287q0 17 12 24.5t26 10.5l251 25q17 0 32 -6t15 -26q0 -5 -6.5 -11t-14.5 -11t-17 -8.5t-13 -1.5l-247 -27q-13 0 -25.5 8.5
t-12.5 22.5z" />
    <glyph glyph-name="lslash" unicode="&#x142;" horiz-adv-x="153" 
d="M31 70q0 42 2 82t2 82q-3 114 -2 223.5t-10 224.5q0 19 9 25.5t27 6.5q23 0 39.5 -13.5t17.5 -37.5q-2 -142 3.5 -281.5t5.5 -282.5v-77q-6 -8 -17 -16t-22 -6q-29 5 -42 23.5t-13 46.5zM-90 253q0 17 12 24.5t26 10.5l251 25q17 0 32 -6t15 -26q0 -5 -6.5 -11t-14.5 -11
t-17 -8.5t-13 -1.5l-247 -27q-13 0 -25.5 8.5t-12.5 22.5z" />
    <glyph glyph-name="Nacute" unicode="&#x143;" horiz-adv-x="445" 
d="M23 125q0 61 2.5 122.5t5.5 123t4.5 123t-0.5 122.5q3 11 11 16.5t19 5.5q21 0 32 -7.5t16 -20.5t6 -29l2 -32q12 -22 28.5 -42.5t29.5 -41.5q0 -1 1.5 -4.5t2.5 -3.5q6 -9 15.5 -23.5t18.5 -28t15.5 -23.5l6.5 -10l4 -5l58 -84q4 -4 7 -4h2q-13 106 -21 216.5t-8 218.5
v50q8 13 27 13t28 -9t12 -22.5t3 -29t1 -28.5q0 -1 1 -3.5t2.5 -11t3 -26t4 -48.5t5 -78t6.5 -115v-18l34 -223q1 -8 8.5 -24.5t7.5 -25.5q0 -21 -12 -34t-34 -13q-3 0 -8 2.5t-10 5.5t-9.5 6.5t-6.5 5.5l-161 229q-1 0 -2 3.5t-2 5.5q-6 9 -16 22.5t-19 27t-16 23.5t-7 11
l-5 4q-5 -95 -8 -191.5t0 -192.5q-2 -12 -12.5 -21t-21.5 -9q-20 0 -31.5 10.5t-19.5 27.5v87zM117 762q-3 26 4.5 41t20 27t27.5 25t29 36q15 12 28 8t24 -21q6 -9 5.5 -16.5t-4.5 -15t-9.5 -13.5t-9.5 -12q-8 -10 -23 -27.5t-32 -31t-33.5 -16.5t-26.5 16z" />
    <glyph glyph-name="nacute" unicode="&#x144;" horiz-adv-x="414" 
d="M308 34q-14 20 -23.5 55.5t-18 75t-15.5 77t-14.5 60t-16.5 25.5t-21 -27l-87 -268q-5 -14 -12 -19.5t-23 -5.5q-8 0 -17 2.5t-17 7.5t-13.5 12t-6.5 16q3 12 5.5 44t3.5 74t1.5 88.5t0 87t-1.5 70t-2 38.5q0 10 0.5 20.5t3 19.5t9 14.5t20.5 5.5q19 0 35.5 -16t16.5 -34
q0 -26 -2.5 -51.5t-2.5 -51.5v-27t4 -27q3 8 10 28t15.5 42t15.5 41.5t10 27.5q7 20 21 38.5t37 20.5q15 1 27.5 -8t21.5 -23.5t15 -30t9 -26.5l54 -249l42 -114q1 -1 1 -5.5v-6.5q0 -12 -5.5 -23.5t-19.5 -11.5q-17 0 -35 9.5t-25 24.5zM136 629q-3 26 4.5 41t20 27
t27.5 25t29 36q15 12 28 8t24 -21q6 -9 5.5 -16.5t-4.5 -15t-9.5 -13.5t-9.5 -12q-8 -10 -23 -27.5t-32 -31t-33.5 -16.5t-26.5 16z" />
    <glyph glyph-name="Ncommaaccent" unicode="&#x145;" horiz-adv-x="445" 
d="M225 -181q-14 11 -11 27t8 32t4 30.5t-22 22.5q-14 8 -15.5 16.5t4.5 15.5t17.5 11t24.5 4q19 0 30.5 -8.5t11.5 -28.5v-8t-1 -6q-2 -25 -3.5 -46t-5.5 -35.5t-13.5 -22t-28.5 -4.5zM23 125q0 61 2.5 122.5t5.5 123t4.5 123t-0.5 122.5q3 11 11 16.5t19 5.5q21 0 32 -7.5
t16 -20.5t6 -29l2 -32q12 -22 28.5 -42.5t29.5 -41.5q0 -1 1.5 -4.5t2.5 -3.5q6 -9 15.5 -23.5t18.5 -28t15.5 -23.5l6.5 -10l4 -5l58 -84q4 -4 7 -4h2q-13 106 -21 216.5t-8 218.5v50q8 13 27 13t28 -9t12 -22.5t3 -29t1 -28.5q0 -1 1 -3.5t2.5 -11t3 -26t4 -48.5t5 -78
t6.5 -115v-18l34 -223q1 -8 8.5 -24.5t7.5 -25.5q0 -21 -12 -34t-34 -13q-3 0 -8 2.5t-10 5.5t-9.5 6.5t-6.5 5.5l-161 229q-1 0 -2 3.5t-2 5.5q-6 9 -16 22.5t-19 27t-16 23.5t-7 11l-5 4q-5 -95 -8 -191.5t0 -192.5q-2 -12 -12.5 -21t-21.5 -9q-20 0 -31.5 10.5
t-19.5 27.5v87z" />
    <glyph glyph-name="ncommaaccent" unicode="&#x146;" horiz-adv-x="414" 
d="M209 -181q-14 11 -11 27t8 32t4 30.5t-22 22.5q-14 8 -15.5 16.5t4.5 15.5t17.5 11t24.5 4q19 0 30.5 -8.5t11.5 -28.5v-8t-1 -6q-2 -25 -3.5 -46t-5.5 -35.5t-13.5 -22t-28.5 -4.5zM308 34q-14 20 -23.5 55.5t-18 75t-15.5 77t-14.5 60t-16.5 25.5t-21 -27l-87 -268
q-5 -14 -12 -19.5t-23 -5.5q-8 0 -17 2.5t-17 7.5t-13.5 12t-6.5 16q3 12 5.5 44t3.5 74t1.5 88.5t0 87t-1.5 70t-2 38.5q0 10 0.5 20.5t3 19.5t9 14.5t20.5 5.5q19 0 35.5 -16t16.5 -34q0 -26 -2.5 -51.5t-2.5 -51.5v-27t4 -27q3 8 10 28t15.5 42t15.5 41.5t10 27.5
q7 20 21 38.5t37 20.5q15 1 27.5 -8t21.5 -23.5t15 -30t9 -26.5l54 -249l42 -114q1 -1 1 -5.5v-6.5q0 -12 -5.5 -23.5t-19.5 -11.5q-17 0 -35 9.5t-25 24.5z" />
    <glyph glyph-name="Ncaron" unicode="&#x147;" horiz-adv-x="445" 
d="M57 872q-3 4 1 8t11.5 6.5t16 4t14.5 1.5q2 0 10 -1.5t10 -3.5q21 -23 33 -37.5t19 -23.5t9.5 -13t5.5 -7l4 -2l62 63q10 12 36 12q14 0 22 -2t8 -10q0 -3 -0.5 -4.5t-3.5 -5.5q-2 -3 -8.5 -9.5l-14 -14t-14 -14.5t-9.5 -9q0 -1 -2.5 -3.5t-3.5 -2.5l-11 -11t-17 -16.5
t-17 -16.5l-11 -11q-5 -4 -10 -5t-13 -1q-9 0 -19 1t-14 6q-2 4 -8.5 15t-8.5 14zM23 125q0 61 2.5 122.5t5.5 123t4.5 123t-0.5 122.5q3 11 11 16.5t19 5.5q21 0 32 -7.5t16 -20.5t6 -29l2 -32q12 -22 28.5 -42.5t29.5 -41.5q0 -1 1.5 -4.5t2.5 -3.5q6 -9 15.5 -23.5
t18.5 -28t15.5 -23.5l6.5 -10l4 -5l58 -84q4 -4 7 -4h2q-13 106 -21 216.5t-8 218.5v50q8 13 27 13t28 -9t12 -22.5t3 -29t1 -28.5q0 -1 1 -3.5t2.5 -11t3 -26t4 -48.5t5 -78t6.5 -115v-18l34 -223q1 -8 8.5 -24.5t7.5 -25.5q0 -21 -12 -34t-34 -13q-3 0 -8 2.5t-10 5.5
t-9.5 6.5t-6.5 5.5l-161 229q-1 0 -2 3.5t-2 5.5q-6 9 -16 22.5t-19 27t-16 23.5t-7 11l-5 4q-5 -95 -8 -191.5t0 -192.5q-2 -12 -12.5 -21t-21.5 -9q-20 0 -31.5 10.5t-19.5 27.5v87z" />
    <glyph glyph-name="ncaron" unicode="&#x148;" horiz-adv-x="414" 
d="M80 757q-3 4 1 8t11.5 6.5t16 4t14.5 1.5q2 0 10 -1.5t10 -3.5q21 -23 33 -37.5t19 -23.5t9.5 -13t5.5 -7l4 -2l62 63q10 12 36 12q14 0 22 -2t8 -10q0 -3 -0.5 -4.5t-3.5 -5.5q-2 -3 -8.5 -9.5l-14 -14t-14 -14.5t-9.5 -9q0 -1 -2.5 -3.5t-3.5 -2.5l-11 -11t-17 -16.5
t-17 -16.5l-11 -11q-5 -4 -10 -5t-13 -1q-9 0 -19 1t-14 6q-2 4 -8.5 15t-8.5 14zM308 34q-14 20 -23.5 55.5t-18 75t-15.5 77t-14.5 60t-16.5 25.5t-21 -27l-87 -268q-5 -14 -12 -19.5t-23 -5.5q-8 0 -17 2.5t-17 7.5t-13.5 12t-6.5 16q3 12 5.5 44t3.5 74t1.5 88.5t0 87
t-1.5 70t-2 38.5q0 10 0.5 20.5t3 19.5t9 14.5t20.5 5.5q19 0 35.5 -16t16.5 -34q0 -26 -2.5 -51.5t-2.5 -51.5v-27t4 -27q3 8 10 28t15.5 42t15.5 41.5t10 27.5q7 20 21 38.5t37 20.5q15 1 27.5 -8t21.5 -23.5t15 -30t9 -26.5l54 -249l42 -114q1 -1 1 -5.5v-6.5
q0 -12 -5.5 -23.5t-19.5 -11.5q-17 0 -35 9.5t-25 24.5z" />
    <glyph glyph-name="napostrophe" unicode="&#x149;" horiz-adv-x="414" 
d="M76 588q-14 11 -11 27t8 32t4 30.5t-22 22.5q-14 8 -15.5 16.5t4.5 15.5t17.5 11t24.5 4q19 0 30.5 -8.5t11.5 -28.5v-8t-1 -6q-2 -25 -3.5 -46t-5.5 -35.5t-13.5 -22t-28.5 -4.5zM308 34q-14 20 -23.5 55.5t-18 75t-15.5 77t-14.5 60t-16.5 25.5t-21 -27l-87 -268
q-5 -14 -12 -19.5t-23 -5.5q-8 0 -17 2.5t-17 7.5t-13.5 12t-6.5 16q3 12 5.5 44t3.5 74t1.5 88.5t0 87t-1.5 70t-2 38.5q0 10 0.5 20.5t3 19.5t9 14.5t20.5 5.5q19 0 35.5 -16t16.5 -34q0 -26 -2.5 -51.5t-2.5 -51.5v-27t4 -27q3 8 10 28t15.5 42t15.5 41.5t10 27.5
q7 20 21 38.5t37 20.5q15 1 27.5 -8t21.5 -23.5t15 -30t9 -26.5l54 -249l42 -114q1 -1 1 -5.5v-6.5q0 -12 -5.5 -23.5t-19.5 -11.5q-17 0 -35 9.5t-25 24.5z" />
    <glyph glyph-name="Eng" unicode="&#x14a;" horiz-adv-x="778" 
d="M486 -194q-50 0 -78 13v77q36 -10 78 -10q51 0 78.5 29.5t28.5 84.5l-413 607h-4q8 -129 8 -211v-396h-84v731h106l390 -585h4q-7 77 -7 204v381h86v-725q0 -98 -50 -149t-143 -51z" />
    <glyph glyph-name="eng" unicode="&#x14b;" horiz-adv-x="633" 
d="M404 -246q-43 0 -73 12v73q30 -10 61 -10q69 0 69 86v437q0 66 -29.5 99t-92.5 33q-85 0 -123.5 -47t-38.5 -151v-286h-90v549h73l14 -75h5q26 41 71 63t100 22q101 0 151 -47.5t50 -153.5v-440q0 -77 -35.5 -120.5t-111.5 -43.5z" />
    <glyph glyph-name="Omacron" unicode="&#x14c;" horiz-adv-x="330" 
d="M22 177q1 6 0 32t-0.5 64.5t2 84.5t7 93t16 90.5t27.5 75.5q6 27 29 37.5t65 12.5q27 0 46 -14t32.5 -34.5t23.5 -44.5t18 -43v-5q7 -20 10.5 -59.5t5 -83t1.5 -83.5v-61q0 -30 -8 -71.5t-25.5 -78.5t-45.5 -63t-67 -26q-33 0 -58.5 17t-43 43.5t-26.5 57.5t-9 59z
M119 110q2 -11 11.5 -22.5t22.5 -11.5h8q42 38 55 87.5t13 104.5q0 13 -1 40t-3.5 60.5t-6.5 70.5t-10 69.5t-14 56.5t-19 33q-1 -1 -2.5 -4t-1.5 -4q-21 -26 -38 -71t-25.5 -106.5t-7 -138t18.5 -164.5zM-2 714q0 17 12 24.5t26 10.5l251 25q17 0 32 -6t15 -26
q0 -5 -6.5 -11t-14.5 -11t-17 -8.5t-13 -1.5l-247 -27q-13 0 -25.5 8.5t-12.5 22.5z" />
    <glyph glyph-name="omacron" unicode="&#x14d;" horiz-adv-x="338" 
d="M26 153l37 257q2 13 11.5 19t21.5 6q22 0 35 -12.5t22 -30.5h1q12 0 21.5 4.5t23.5 4.5q32 0 54.5 -20t36.5 -48.5t20.5 -61.5t6.5 -58q0 -30 -15.5 -67t-41 -70t-57.5 -55t-65 -22q-30 0 -51.5 14t-35 35.5t-19.5 48.5t-6 53v3zM110 147q2 -10 4 -23t6 -23.5t11.5 -16
t21.5 -0.5q13 12 28 27t28.5 32t22.5 36t9 40q4 34 -5 62.5t-25.5 41t-37.5 3t-42 -51.5q-12 -26 -16.5 -60.5t-4.5 -63.5v-3zM14 511q0 17 12 24.5t26 10.5l251 25q17 0 32 -6t15 -26q0 -5 -6.5 -11t-14.5 -11t-17 -8.5t-13 -1.5l-247 -27q-13 0 -25.5 8.5t-12.5 22.5z" />
    <glyph glyph-name="Obreve" unicode="&#x14e;" horiz-adv-x="330" 
d="M146 702q-49 4 -69.5 22t-24 38t3.5 38.5t13 24.5q10 -39 37.5 -54.5t57.5 -12t55 23.5t31 52q4 -23 2 -47.5t-13.5 -44t-34 -31.5t-58.5 -9zM22 177q1 6 0 32t-0.5 64.5t2 84.5t7 93t16 90.5t27.5 75.5q6 27 29 37.5t65 12.5q27 0 46 -14t32.5 -34.5t23.5 -44.5t18 -43
v-5q7 -20 10.5 -59.5t5 -83t1.5 -83.5v-61q0 -30 -8 -71.5t-25.5 -78.5t-45.5 -63t-67 -26q-33 0 -58.5 17t-43 43.5t-26.5 57.5t-9 59zM119 110q2 -11 11.5 -22.5t22.5 -11.5h8q42 38 55 87.5t13 104.5q0 13 -1 40t-3.5 60.5t-6.5 70.5t-10 69.5t-14 56.5t-19 33
q-1 -1 -2.5 -4t-1.5 -4q-21 -26 -38 -71t-25.5 -106.5t-7 -138t18.5 -164.5z" />
    <glyph glyph-name="obreve" unicode="&#x14f;" horiz-adv-x="338" 
d="M153 481q-49 4 -69.5 22t-24 38t3.5 38.5t13 24.5q10 -39 37.5 -54.5t57.5 -12t55 23.5t31 52q4 -23 2 -47.5t-13.5 -44t-34 -31.5t-58.5 -9zM26 153l37 257q2 13 11.5 19t21.5 6q22 0 35 -12.5t22 -30.5h1q12 0 21.5 4.5t23.5 4.5q32 0 54.5 -20t36.5 -48.5t20.5 -61.5
t6.5 -58q0 -30 -15.5 -67t-41 -70t-57.5 -55t-65 -22q-30 0 -51.5 14t-35 35.5t-19.5 48.5t-6 53v3zM110 147q2 -10 4 -23t6 -23.5t11.5 -16t21.5 -0.5q13 12 28 27t28.5 32t22.5 36t9 40q4 34 -5 62.5t-25.5 41t-37.5 3t-42 -51.5q-12 -26 -16.5 -60.5t-4.5 -63.5v-3z" />
    <glyph glyph-name="Ohungarumlaut" unicode="&#x150;" horiz-adv-x="330" 
d="M38 755q-3 26 4.5 41t20 27t27.5 25t29 36q15 12 28 8t24 -21q6 -9 5.5 -16.5t-4.5 -15t-9.5 -13.5t-9.5 -12q-8 -10 -23 -27.5t-32 -31t-33.5 -16.5t-26.5 16zM174 736q-3 26 4.5 41t20 27t27.5 25t29 36q15 12 28 8t24 -21q6 -9 5.5 -16.5t-4.5 -15t-9.5 -13.5
t-9.5 -12q-8 -10 -23 -27.5t-32 -31t-33.5 -16.5t-26.5 16zM22 177q1 6 0 32t-0.5 64.5t2 84.5t7 93t16 90.5t27.5 75.5q6 27 29 37.5t65 12.5q27 0 46 -14t32.5 -34.5t23.5 -44.5t18 -43v-5q7 -20 10.5 -59.5t5 -83t1.5 -83.5v-61q0 -30 -8 -71.5t-25.5 -78.5t-45.5 -63
t-67 -26q-33 0 -58.5 17t-43 43.5t-26.5 57.5t-9 59zM119 110q2 -11 11.5 -22.5t22.5 -11.5h8q42 38 55 87.5t13 104.5q0 13 -1 40t-3.5 60.5t-6.5 70.5t-10 69.5t-14 56.5t-19 33q-1 -1 -2.5 -4t-1.5 -4q-21 -26 -38 -71t-25.5 -106.5t-7 -138t18.5 -164.5z" />
    <glyph glyph-name="ohungarumlaut" unicode="&#x151;" horiz-adv-x="338" 
d="M50 493q-3 26 4.5 41t20 27t27.5 25t29 36q15 12 28 8t24 -21q6 -9 5.5 -16.5t-4.5 -15t-9.5 -13.5t-9.5 -12q-8 -10 -23 -27.5t-32 -31t-33.5 -16.5t-26.5 16zM186 474q-3 26 4.5 41t20 27t27.5 25t29 36q15 12 28 8t24 -21q6 -9 5.5 -16.5t-4.5 -15t-9.5 -13.5
t-9.5 -12q-8 -10 -23 -27.5t-32 -31t-33.5 -16.5t-26.5 16zM26 153l37 257q2 13 11.5 19t21.5 6q22 0 35 -12.5t22 -30.5h1q12 0 21.5 4.5t23.5 4.5q32 0 54.5 -20t36.5 -48.5t20.5 -61.5t6.5 -58q0 -30 -15.5 -67t-41 -70t-57.5 -55t-65 -22q-30 0 -51.5 14t-35 35.5
t-19.5 48.5t-6 53v3zM110 147q2 -10 4 -23t6 -23.5t11.5 -16t21.5 -0.5q13 12 28 27t28.5 32t22.5 36t9 40q4 34 -5 62.5t-25.5 41t-37.5 3t-42 -51.5q-12 -26 -16.5 -60.5t-4.5 -63.5v-3z" />
    <glyph glyph-name="OE" unicode="&#x152;" horiz-adv-x="638" 
d="M22 177q1 6 0 32t-0.5 64.5t2 84.5t7 93t16 90.5t27.5 75.5q6 27 29 37.5t65 12.5q27 0 46 -14t32.5 -34.5t23.5 -44.5t18 -43v-5q7 -20 10.5 -59.5t5 -83t1.5 -83.5v-61q0 -30 -8 -71.5t-25.5 -78.5t-45.5 -63t-67 -26q-33 0 -58.5 17t-43 43.5t-26.5 57.5t-9 59z
M119 110q2 -11 11.5 -22.5t22.5 -11.5h8q42 38 55 87.5t13 104.5q0 13 -1 40t-3.5 60.5t-6.5 70.5t-10 69.5t-14 56.5t-19 33q-1 -1 -2.5 -4t-1.5 -4q-21 -26 -38 -71t-25.5 -106.5t-7 -138t18.5 -164.5zM293 25q-10 40 -15 75.5t-7 75.5q-1 23 0 39.5t-4 36.5q-1 4 -4.5 6
t-7 5t-6.5 7.5t-3 14.5q0 8 3.5 14t7 11.5t7 12t3.5 15.5v15q0 10 -2 34t-4 51t-3.5 51t-2.5 33q-1 17 -9 30t-8 30q0 32 13 45t46 13q7 0 11.5 -6t10.5 -6h4q3 1 9 2.5t8 1.5q84 36 131 56t71 29t32.5 10t14.5 -2q12 -2 16.5 -7.5t4.5 -16.5q0 -10 -3 -20t-14 -15l-131 -63
l-4 -4l-110 -47q-6 -2 -7 -10t-1 -13q0 -8 2 -29t4 -43.5t4.5 -40t3.5 -17.5h1l1 1q11 8 35 27.5t49 39.5t44 35.5t20 15.5q11 0 20 -11t9 -23t-5 -27t-16 -23l-156 -139v-5t-0.5 -11t-0.5 -12.5v-10.5q0 -36 5 -71.5t5 -71.5h4q1 0 9 8t12 13q2 3 9.5 13t25.5 33t48 61
t77 96q4 4 11.5 12t9.5 8q3 3 12.5 2.5t13.5 -2.5q5 -2 13 -11t8 -17q0 -12 -12.5 -31.5t-29.5 -40.5t-34 -40.5t-26 -31.5q-14 -22 -33.5 -53.5t-42.5 -60t-50.5 -49t-58.5 -20.5q-15 0 -21.5 5t-16.5 18z" />
    <glyph glyph-name="oe" unicode="&#x153;" horiz-adv-x="679" 
d="M658 273q-2 -18 -4.5 -28t-8.5 -18t-17 -16.5t-30 -24t-47 -40.5t-68 -65q-16 -15 -33 -31t-35.5 -28.5t-38.5 -20.5t-42 -8q-37 0 -57 21t-25 52q-24 -29 -54 -48t-60 -19t-51.5 14t-35 35.5t-19.5 48.5t-6 53v3l37 257q2 13 11.5 19t21.5 6q22 0 35 -12.5t22 -30.5h1
q12 0 21.5 4.5t23.5 4.5q38 0 61.5 -26.5t37.5 -62.5q5 15 9.5 27t6.5 17q7 17 15.5 34.5t20 31.5t27 23t36.5 9q12 0 29.5 -11t33.5 -26.5t27 -32.5t11 -29q0 -15 -7 -27.5t-17.5 -23t-22.5 -19.5t-22 -17q-1 0 -4 -2t-5 -3l-4.5 -4.5l-7.5 -7.5t-7.5 -8t-4.5 -5
q-3 -3 -11.5 -9.5t-18.5 -14t-18.5 -14t-11.5 -8.5l-4 -8q-2 -4 -3.5 -17.5t-3.5 -30.5t-3.5 -34.5t-1.5 -28.5q0 -1 1 -2q2 -2 3 -2q8 0 15 7t15 10l160 148l41 63q5 7 19.5 15.5t29.5 9t26.5 -9.5t11.5 -39zM110 147q2 -10 4 -23t6 -23.5t11.5 -16t21.5 -0.5
q11 10 24 22.5t25 27t21.5 30t14.5 32.5q12 17 14.5 40t-3 45t-17.5 38t-28 19t-35 -11t-38 -53q-13 -26 -17 -60.5t-4 -63.5v-3zM438 351q5 4 4 12t-5.5 14t-11.5 7.5t-13 -7.5q-3 -4 -10.5 -16t-15 -24.5t-12.5 -21.5t-2 -7z" />
    </font>
</defs>
</svg>
