<?xml version="1.0" standalone="no"?>
<!DOCTYPE svg PUBLIC "-//W3C//DTD SVG 1.1//EN" "http://www.w3.org/Graphics/SVG/1.1/DTD/svg11.dtd" >
<svg xmlns="http://www.w3.org/2000/svg" xmlns:xlink="http://www.w3.org/1999/xlink" version="1.1">
<metadata>
Created by FontForge 20190801 at Mon Feb  8 12:13:55 2021
 By root
Copyright (c) 2019 by petterco. All rights reserved.
</metadata>
<defs>
<font id="Delinascript" horiz-adv-x="295" >
  <font-face 
    font-family="Delina script"
    font-weight="400"
    font-stretch="normal"
    units-per-em="1000"
    panose-1="2 0 5 7 0 0 0 2 0 4"
    ascent="750"
    descent="-250"
    x-height="235"
    cap-height="688.5"
    bbox="-375 -466 1825.48 1198.33"
    underline-thickness="50"
    underline-position="-100"
    unicode-range="U+0001-206F"
  />
<missing-glyph horiz-adv-x="364" 
d="M33 0v666h265v-666h-265zM66 33h199v600h-199v-600z" />
    <glyph glyph-name=".notdef" horiz-adv-x="364" 
d="M33 0v666h265v-666h-265zM66 33h199v600h-199v-600z" />
    <glyph glyph-name=".null" horiz-adv-x="0" 
 />
    <glyph glyph-name="nonmarkingreturn" unicode="&#xd;" 
 />
    <glyph glyph-name="NULL" 
 />
    <glyph glyph-name="NULL" 
 />
    <glyph glyph-name="uni0001" 
 />
    <glyph glyph-name="uni0002" 
 />
    <glyph glyph-name="uni0003" 
 />
    <glyph glyph-name="uni0004" 
 />
    <glyph glyph-name="uni0005" 
 />
    <glyph glyph-name="uni0006" 
 />
    <glyph glyph-name="uni0007" 
 />
    <glyph glyph-name="uni0008" 
 />
    <glyph glyph-name="uni0009" unicode="&#x9;" 
 />
    <glyph glyph-name="uni000A" unicode="&#xa;" 
 />
    <glyph glyph-name="uni000B" 
 />
    <glyph glyph-name="uni000C" 
 />
    <glyph glyph-name="uni000E" 
 />
    <glyph glyph-name="uni000F" 
 />
    <glyph glyph-name="uni0010" 
 />
    <glyph glyph-name="uni0011" 
 />
    <glyph glyph-name="uni0012" 
 />
    <glyph glyph-name="uni0013" 
 />
    <glyph glyph-name="uni0014" 
 />
    <glyph glyph-name="uni0015" 
 />
    <glyph glyph-name="uni0016" 
 />
    <glyph glyph-name="uni0017" 
 />
    <glyph glyph-name="uni0018" 
 />
    <glyph glyph-name="uni0019" 
 />
    <glyph glyph-name="uni001A" 
 />
    <glyph glyph-name="uni001B" 
 />
    <glyph glyph-name="uni001C" 
 />
    <glyph glyph-name="uni001D" 
 />
    <glyph glyph-name="uni001E" 
 />
    <glyph glyph-name="uni001F" 
 />
    <glyph glyph-name="space" unicode=" " 
 />
    <glyph glyph-name="exclam" unicode="!" horiz-adv-x="480" 
d="M161 -4q13 -2 17.5 -12t1.5 -20.5t-11 -18t-20 -5.5q-14 2 -18.5 12t-2 20.5t11.5 18t21 5.5zM302 846q0 4 7.5 4.5t16.5 -1t16 -4t7 -5.5q-13 -85 -27 -156t-28.5 -135t-29 -125t-28.5 -125t-28 -135.5t-26 -155.5q-1 -3 -6.5 -4t-12 0.5t-11.5 4.5t-5 6q13 85 25.5 156
t25.5 135t26 125t26 125t26 134.5t26 155.5z" />
    <glyph glyph-name="quotedbl" unicode="&#x22;" horiz-adv-x="367" 
d="M147 649q1 4 8 4t14.5 -2.5t13.5 -6t5 -6.5q-10 -32 -19 -63t-18 -63q-1 -3 -8 -3t-14.5 2t-13.5 5.5t-5 6.5q9 32 18 63t19 63zM211 649q1 4 8 4t14.5 -2.5t13.5 -6t5 -6.5q-10 -32 -19 -63t-18 -63q-1 -3 -7.5 -3t-14.5 2t-14 5.5t-5 6.5q9 32 18 63t19 63z" />
    <glyph glyph-name="numbersign" unicode="#" horiz-adv-x="1004" 
d="M894 125q11 0 17 -5.5t6 -11.5t-5.5 -11.5t-16.5 -5.5h-248q-14 -110 -24 -216q-2 -11 -8 -17t-12.5 -6t-11 5.5t-3.5 16.5l12 108t13 109h-149t-149 -2q-6 -54 -12 -107.5t-12 -107.5q-1 -11 -7 -17t-12.5 -6.5t-11.5 5t-3 17.5q12 106 24 216q-97 -2 -189 -6
q-4 0 -7.5 5.5t-4.5 12t1 12t8 5.5q48 2 97 3t99 2q9 75 17 149t16 149q-57 -2 -113.5 -3t-112.5 -3q-4 0 -7.5 5t-4.5 11.5t1 12t8 5.5q114 4 232 6q5 56 10 111t9 109q0 4 6 7.5t12.5 4.5t11.5 -0.5t5 -7.5q-5 -55 -9.5 -111t-10.5 -113q75 1 149 1h148q6 57 10.5 111.5
t9.5 109.5q0 4 5.5 7t12 4t11.5 -0.5t5 -7.5q-4 -55 -9 -111t-10 -113h207q11 0 17 -5.5t6 -11.5t-5.5 -11.5t-16.5 -5.5h-212q-8 -75 -16 -148.5t-16 -148.5h243zM617 125q8 75 16 148.5t16 148.5h-148.5t-148.5 -1q-15 -149 -33 -297q75 1 149 1h149z" />
    <glyph glyph-name="dollar" unicode="$" horiz-adv-x="598" 
d="M441 844q37 -5 59 -32.5t22 -65.5q0 -46 -25 -106q-2 -5 -6.5 -6.5t-8.5 0t-6.5 5t0.5 9.5q24 58 24 98q0 35 -13.5 60.5t-47.5 30.5q-26 -80 -52.5 -159t-52.5 -159q10 -30 21.5 -60t21 -61t14.5 -64t4 -67q-1 -47 -17.5 -95t-46 -85.5t-72 -60.5t-94.5 -20
q-6 -18 -12 -37.5t-13 -39.5q-2 -7 -12 -2t-8 11q6 17 11 35.5t11 35.5q-50 9 -78 45t-28 93q-1 42 14 85t38 75q3 5 8.5 1t2.5 -8q-21 -30 -31.5 -71t-10.5 -81q0 -52 20 -87.5t67 -43.5q42 128 84 255t85 255q-14 39 -23.5 76t-8.5 75q0 29 10 58t28 52.5t43 38.5t55 17
q8 22 15 44t13 43q1 3 5 3.5t8 -1.5t6.5 -5t1.5 -6q-6 -19 -12.5 -38.5t-12.5 -39.5zM373 268q3 63 -12.5 118t-34.5 108q-40 -121 -80 -240.5t-79 -240.5q51 0 88.5 21.5t62.5 56.5t38.5 81t16.5 96zM302 678q0 -32 5.5 -62t15.5 -60q23 70 46.5 140t46.5 142
q-29 -3 -50 -18.5t-35 -38t-21.5 -50t-7.5 -53.5z" />
    <glyph glyph-name="percent" unicode="%" horiz-adv-x="596" 
d="M504 709q-36 -68 -63.5 -119t-49.5 -92t-39.5 -74.5t-34 -65.5t-34 -65.5t-38 -75.5t-47 -94.5t-60.5 -122.5q-2 -4 -6 -3t-8 4.5t-6.5 8t-0.5 7.5q47 95 78.5 159.5t56.5 113.5t46 89.5t46 88t58 108t81 150.5q2 4 6 3t8 -4.5t6 -8t1 -7.5zM334 771q27 -7 35 -41t3 -80
t-21 -97t-38 -93t-47 -67.5t-48 -19.5q-28 6 -36.5 40t-3 80t21.5 97.5t38 94t47.5 67.5t48.5 19zM220 381q15 -4 34.5 21.5t38 66.5t34 90t22.5 93t4 75t-21 36q-16 4 -35 -21t-38 -66t-34 -90.5t-22.5 -93.5t-4.5 -75t22 -36zM455 446q26 -8 34 -42.5t2 -81.5t-22.5 -99
t-38.5 -94.5t-47.5 -68t-48.5 -19.5q-27 7 -35.5 42t-3 82t22.5 99.5t39.5 95t48 68t49.5 18.5zM336 50q15 -5 34.5 21t38.5 67t34.5 91t23.5 94.5t5.5 76.5t-20.5 37q-16 5 -35.5 -20.5t-38.5 -67t-34.5 -91.5t-23.5 -94.5t-5 -76.5t21 -37z" />
    <glyph glyph-name="ampersand" unicode="&#x26;" horiz-adv-x="653" 
d="M551 254q3 4 7 3t8 -4.5t6 -7.5t1 -6q-20 -33 -48 -73t-61 -79q18 -48 36.5 -86.5t34.5 -62.5q5 8 15 5t10 -13t-10 -12.5t-15 5.5q-37 48 -80 154q-25 -29 -52.5 -54.5t-56.5 -45t-59 -31t-61 -11.5q-39 0 -66.5 12.5t-45 34t-26 50t-8.5 60.5q-1 68 22 121.5t60.5 97.5
t85 81.5t95.5 73.5q-11 75 -10.5 143.5t18 120.5t54 83t98.5 31q45 0 63.5 -25.5t20.5 -62.5q1 -49 -17.5 -89.5t-49 -75.5t-71 -67t-83.5 -64q14 -91 37.5 -181.5t52.5 -168.5q29 38 52 76t43 68zM503 835q-51 0 -82.5 -28.5t-47 -77t-17 -113t7.5 -135.5q39 29 74 59
t62 63.5t43.5 72t17.5 85.5q1 29 -11 51.5t-47 22.5zM226 -56q31 0 60.5 12.5t57 33.5t53.5 49t49 59q-31 76 -58 166t-42 181q-44 -33 -86.5 -69t-76.5 -78t-54.5 -92.5t-21.5 -113.5q0 -29 5.5 -56t19.5 -47.5t37 -32.5t57 -12z" />
    <glyph glyph-name="quotesingle" unicode="'" horiz-adv-x="328" 
d="M152 646q1 4 8 4t14.5 -2.5t13.5 -6t5 -6.5q-10 -32 -19 -63t-18 -63q-1 -3 -8 -3t-14.5 2t-13.5 5.5t-5 6.5q9 32 18 63t19 63z" />
    <glyph glyph-name="parenleft" unicode="(" horiz-adv-x="542" 
d="M423 880q3 0 3 -5.5t-2 -6.5q-49 -2 -95.5 -42t-86.5 -105t-72 -147t-52 -167.5t-26 -167.5t5 -146.5t40.5 -104.5t82.5 -41q2 0 2 -6t-2 -6q-67 1 -105 42t-52.5 107t-8 150.5t29.5 172t59 172t81 150.5t96 107.5t103 43.5z" />
    <glyph glyph-name="parenright" unicode=")" horiz-adv-x="710" 
d="M448 879q67 -1 100.5 -40.5t41 -103.5t-8 -145.5t-47.5 -166.5t-77.5 -166.5t-97 -145.5t-107 -104t-107.5 -42q-3 0 -3 6t2 6q49 2 100 40.5t98 101.5t87.5 142t70 162t44.5 162t11.5 141.5t-29.5 101t-78 39.5q-2 0 -2 6t2 6z" />
    <glyph glyph-name="asterisk" unicode="*" horiz-adv-x="312" 
d="M179 504q37 5 56 3t20 -6.5t-17.5 -8.5t-57.5 -2q28 -21 43.5 -39t16 -23.5t-16 5.5t-52.5 46q1 -13 1 -31t-1 -33t-2.5 -24t-3.5 -4.5t-4 26.5t-4 68q-22 -32 -38.5 -48t-21 -15.5t6 18.5t43.5 54q-37 -5 -60 -3.5t-26 5t16.5 7.5t68.5 5q-31 22 -45.5 38.5t-13.5 20.5
t18.5 -7t51.5 -44q-5 36 -3.5 59t5 27t7.5 -14.5t5 -67.5q21 28 37.5 43t20.5 14t-6.5 -18t-43.5 -51z" />
    <glyph glyph-name="plus" unicode="+" horiz-adv-x="467" 
d="M396 298q9 0 13.5 -5.5t4.5 -11.5t-4 -11.5t-13 -5.5h-49.5h-25t-25.5 -0.5t-50 -0.5q-1 -38 -1 -55t0.5 -30t0.5 -29.5v-52.5q0 -9 -5.5 -13t-12 -3.5t-12 5t-5.5 13.5v51.5v29.5v30.5t1 53.5h-39.5h-24t-16 -0.5t-15.5 -1t-23 -1.5t-38 -2q-3 0 -5.5 5.5t-3 11.5
t0.5 11.5t5 5.5q37 2 52.5 3t27 1.5t27.5 0.5h54q1 36 1.5 52.5t0.5 28.5v28t1 52q0 3 5.5 5t11.5 2.5t11.5 -1.5t5.5 -6q0 -36 -0.5 -51.5t-0.5 -27.5t-0.5 -28.5t-1.5 -53.5h49.5t25 0.5t24.5 0.5h48z" />
    <glyph glyph-name="comma" unicode="," 
d="M175 115q12 2 19 -15t1 -50q-5 -26 -15 -46q-17 -33 -41 -43.5t-50 9.5q-2 1 0 1.5t5.5 0l7 -1t5.5 -1.5q23 -12 45 16q9 10 6 17.5t-9.5 12t-13.5 7.5t-6 5q8 44 21 65t25 23z" />
    <glyph glyph-name="hyphen" unicode="-" horiz-adv-x="375" 
d="M316 280q6 0 9 -5.5t3 -11.5t-2.5 -11.5t-8.5 -5.5h-57h-40.5h-31.5h-31.5t-40 -0.5t-55.5 -0.5q-2 0 -3.5 5t-2.5 11.5t0 12t4 5.5q51 1 78.5 1h50h50h78.5z" />
    <glyph glyph-name="period" unicode="." horiz-adv-x="189" 
d="M81 64q17 0 25 -10t7 -22t-10 -22t-25 -10q-18 0 -25.5 10t-6.5 22t10 22t25 10z" />
    <glyph glyph-name="slash" unicode="/" horiz-adv-x="545" 
d="M425 859q1 4 7 4.5t12.5 -1.5t11 -5.5t3.5 -6.5q-32 -99 -58 -174t-49 -139t-44 -122t-43.5 -122t-48 -139.5t-57.5 -174.5q-1 -4 -7 -4.5t-12 1t-10.5 5t-3.5 7.5q32 99 57.5 174.5t48 139t43.5 122t43.5 122t48.5 139t58 174.5z" />
    <glyph glyph-name="zero" unicode="0" horiz-adv-x="795" 
d="M563 855q60 0 94 -37t45 -97t0 -136.5t-39 -156.5t-72.5 -157t-102 -137t-125.5 -97t-143 -37q-60 0 -94 37t-45 97t0 137t39 156.5t72.5 156.5t102 137t125.5 97t143 37zM222 7q68 1 129.5 37.5t113.5 95.5t93 134.5t68 154t38.5 153.5t5 134t-32.5 95t-74 37
q-68 1 -130 -35t-114.5 -95t-93.5 -135t-68.5 -155t-39.5 -155t-5 -135t33.5 -95t76.5 -36z" />
    <glyph glyph-name="one" unicode="1" horiz-adv-x="404" 
d="M153 8q5 0 5 -5.5t-5 -5.5h-87q-8 0 -8 5.5t8 5.5h27q11 32 29 80t40.5 105.5t47.5 122t50.5 129t49.5 127t44 116t34.5 95t21.5 64.5q-35 -13 -71 -40.5t-67 -62.5t-54 -74t-31 -73q9 1 14.5 -4t6 -11.5t-4 -12t-13.5 -5.5q-8 0 -13.5 6t-3.5 14q7 39 31.5 83t58 83
t73 68.5t76.5 40.5q2 1 8 2t12 1.5t10.5 -1t4.5 -5.5q0 -13 -18 -66.5t-46.5 -131t-64.5 -170t-71 -182.5t-66.5 -169t-51.5 -129h24v0z" />
    <glyph glyph-name="two" unicode="2" horiz-adv-x="686" 
d="M659 157q8 0 13 -6.5t1 -14.5q-15 -39 -38 -59.5t-50.5 -27t-58.5 -2t-63 15.5t-63.5 25l-58.5 26q-50 -54 -105.5 -85.5t-115.5 -31.5q-33 0 -56 13.5t-34.5 34t-11.5 45t13 45.5t39 35.5t67 15.5q44 1 93.5 -16.5t100.5 -40.5q60 72 106 152.5t73.5 159.5t34 151
t-11.5 127t-63 87.5t-122 32.5q-69 0 -123 -36t-92 -91.5t-58.5 -121.5t-23.5 -127q9 2 14.5 -2t6 -10t-3 -11.5t-12.5 -5.5q-6 0 -11 4t-4 11q1 43 10.5 89.5t27 91t44 84.5t60 70t75 47.5t90.5 17.5q87 0 139 -33.5t74 -90t15.5 -130.5t-35.5 -155t-78 -163t-114 -155
q37 -17 81.5 -36.5t87.5 -26.5t80 6t60 62q-8 0 -11.5 5t-3 10.5t4 10t11.5 4.5zM120 7q55 0 106.5 30.5t97.5 83.5q-50 23 -97.5 39.5t-88.5 15.5q-56 -2 -82.5 -28.5t-27.5 -58t23 -57t69 -25.5z" />
    <glyph glyph-name="three" unicode="3" horiz-adv-x="873" 
d="M523 462q94 -12 143.5 -51t60.5 -90.5t-13.5 -108.5t-79 -105t-136 -80t-184.5 -34q-79 -1 -129.5 29.5t-76 77.5t-27 101.5t18 101.5t59 77.5t96.5 29.5q16 0 16 -15q0 -9 -5.5 -12.5t-11.5 -3t-10.5 5.5t-2.5 14q-50 -3 -84.5 -33.5t-51 -75t-13.5 -95t27.5 -93.5
t72.5 -71.5t122 -27.5q72 0 133.5 19.5t109.5 51.5t80.5 72t47.5 82.5t10.5 83t-31 72.5t-76.5 52t-126 21q-6 0 -7.5 5t6.5 5q87 1 148.5 30t97.5 71t46.5 90.5t-4.5 90t-56 69.5t-108 28q-39 0 -79 -12.5t-72.5 -36.5t-53.5 -58t-23 -77q-1 -23 8 -46.5t35 -31.5
q0 9 4.5 13t10 4.5t10.5 -3.5t5 -12q0 -15 -16 -15q-18 1 -31 9t-21.5 21t-12 29t-2.5 33q2 45 23.5 81t55.5 61t75.5 38t83.5 13q76 -1 123 -26.5t67 -65t13.5 -87t-38.5 -91t-89 -77.5t-138 -47z" />
    <glyph glyph-name="four" unicode="4" horiz-adv-x="981" 
d="M927 417q16 0 16 -14q0 -2 -0.5 -2.5t-0.5 -1.5q-6 -27 -26 -48t-50.5 -36t-69.5 -26t-83 -19q-38 -92 -68 -164t-45 -110h21q5 0 5.5 -5t-4.5 -5h-78q-8 0 -8 5t7 5h24q12 33 40.5 104t66.5 164q-52 -8 -104.5 -12.5t-105.5 -10t-106.5 -13t-106.5 -19.5
q-16 -11 -37.5 -24t-43.5 -13q-5 0 -8 3t2 8q28 21 83 35q23 9 54 37t66.5 68t73 89t73 100.5t67.5 101t56.5 91.5t38.5 72t15 42h-2q-7 0 -11.5 4.5t-4.5 10.5t4.5 10.5t11.5 4.5q6 0 10.5 -4.5t4.5 -10.5v-4q3 -8 -9.5 -36.5t-35.5 -69.5t-54.5 -91.5t-67 -103t-73.5 -103
t-73 -92t-65.5 -71t-52.5 -38.5q49 10 99.5 16.5t101.5 11t102 9.5t103 13q94 228 148 363t71 194q3 10 8.5 13t11 2.5t10 -3t4.5 -4.5q0 -12 -14.5 -55t-42 -114.5t-67.5 -169.5t-90 -220q39 7 73.5 16.5t62 22.5t46.5 29.5t28 38.5h-1q-16 0 -16 15q0 14 16 14zM192 188
q5 2 13 6q-3 -2 -6.5 -3t-6.5 -3z" />
    <glyph glyph-name="five" unicode="5" horiz-adv-x="913" 
d="M857 805q8 1 12.5 -3.5t5 -10t-3.5 -10.5t-12 -5q-7 0 -12 5t-3 13q-36 -3 -92 -1.5t-119 6.5q-73 5 -146 13t-129 16q-10 -44 -19 -82.5t-20 -76.5t-24 -78t-30 -86q42 47 101.5 71t122.5 25q88 1 146.5 -24.5t90 -67t37 -95.5t-12 -110t-57 -110t-98.5 -96t-136 -68
t-170 -26q-63 0 -111.5 29.5t-74.5 87.5q-12 25 -18 55t-5.5 60.5t8 59.5t22.5 53q5 10 17 7.5t12 -14.5q0 -11 -10 -14.5t-17 4.5q-23 -46 -22 -103.5t23 -103.5q25 -55 70.5 -83t105.5 -28q86 0 157.5 25t126 65.5t92 92.5t54.5 106t13 106t-32 92.5t-80 65t-131 24.5
q-69 -1 -133 -31t-104 -87q-3 -7 -5.5 -13.5t-5.5 -12.5l-29 10q42 91 67.5 184.5t48.5 194.5q1 5 5 7t9 2t9.5 -2t6.5 -5q56 -8 129 -16t147 -13q69 -5 128.5 -6.5t94.5 2.5z" />
    <glyph glyph-name="six" unicode="6" horiz-adv-x="869" 
d="M611 845q61 0 105.5 -20.5t72.5 -56.5t37.5 -85.5t-0.5 -107.5q-1 -7 -6 -10t-10.5 -2.5t-10 4t-4.5 10.5q0 9 7.5 13.5t15.5 -0.5q7 53 -3 98t-36.5 77.5t-68.5 50.5t-99 18q-97 0 -177 -35.5t-142 -94t-104.5 -132.5t-64.5 -151.5t-22.5 -152t22 -133t69.5 -94.5
t119 -37q74 -1 135 21.5t106.5 60.5t76 86t44.5 98.5t11 99t-24 86.5t-61 61t-99 22q-47 -1 -94.5 -22t-88.5 -61q-34 -34 -59 -79.5t-36 -102.5q7 2 12.5 -2.5t5.5 -12.5t-5.5 -11.5t-11.5 -2.5t-11 5.5t-3 12.5q11 63 37.5 113t63.5 87q42 42 91.5 63.5t98.5 22.5
q68 1 114 -23t71 -63t29.5 -89t-10 -102.5t-47.5 -103t-82.5 -89.5t-116 -62.5t-147.5 -22.5q-82 1 -135 38t-79.5 96.5t-27.5 136t22 156t68.5 155.5t111.5 135.5t151.5 96.5t188.5 37z" />
    <glyph glyph-name="seven" unicode="7" horiz-adv-x="626" 
d="M633 771q5 1 10 -2.5t2 -10.5q-36 -73 -82.5 -133.5t-95 -115t-95 -107t-82 -110.5t-56 -126t-16.5 -152q0 -8 -4.5 -12.5t-10.5 -4.5t-11 4t-5 12q-3 81 18.5 148t58 125.5t84 112.5t97.5 110.5t97 117.5t83 134q-48 6 -96 18l-96 24t-96.5 21.5t-97.5 10.5
q-32 1 -60.5 -9.5t-50 -30t-34 -47t-13.5 -60.5q-2 -42 19 -86q8 8 17.5 4.5t9.5 -14.5q0 -6 -3.5 -9.5t-8.5 -4.5t-10 1t-8 7q-14 26 -20.5 52t-5.5 50q1 35 14.5 64.5t36 50.5t52.5 32.5t65 10.5q51 -2 100.5 -11.5t98 -22t97.5 -24.5t98 -17z" />
    <glyph glyph-name="eight" unicode="8" horiz-adv-x="833" 
d="M734 698q1 -48 -19 -91t-51.5 -81t-71 -71t-76.5 -62q18 -25 37.5 -52.5t35 -56.5t25.5 -60t10 -62q-1 -45 -21.5 -76.5t-52.5 -51.5t-72 -29.5t-80 -9.5q-39 0 -79 9.5t-72 30t-53.5 51.5t-22.5 74q-2 50 20.5 101t59.5 95t85 78t97 49q-27 42 -46 87.5t-23 95.5
q-2 38 7 72t31.5 60t58 41t86.5 15q38 0 71.5 -10t59 -29.5t41 -48.5t15.5 -68zM392 667q3 -40 13 -74.5t26 -67t36.5 -63.5t43.5 -63q36 29 70.5 61.5t61.5 69.5t43 79t16 89q-1 71 -42 110t-113 39q-47 0 -77.5 -15t-48.5 -40t-24.5 -57.5t-4.5 -67.5zM592 158q2 31 -5 61
t-19.5 58t-29 54.5t-34.5 51.5q-7 -5 -13.5 -10t-12.5 -10q-5 -5 -12.5 -2t-7.5 11q0 9 10 10.5t14 -6.5l8 6t8 7q-15 21 -30.5 42.5t-30.5 44.5q-48 -15 -91.5 -48t-75.5 -76.5t-50.5 -93.5t-16.5 -99q1 -40 17.5 -69.5t43.5 -49t61.5 -29t72.5 -9.5t72.5 9t61 28
t42.5 48.5t18 70.5z" />
    <glyph glyph-name="nine" unicode="9" horiz-adv-x="921" 
d="M307 -11q-61 0 -105.5 20.5t-72.5 56.5t-37.5 85.5t0.5 107.5q1 7 6 10t10.5 2.5t10 -4t4.5 -10.5q0 -9 -7.5 -13.5t-15.5 0.5q-7 -53 3 -98t36.5 -77.5t68.5 -50.5t99 -18q97 0 177 35.5t142 94t104.5 132.5t64.5 151.5t22.5 152t-22 133t-69.5 94.5t-119 37
q-74 1 -135 -21.5t-106.5 -60.5t-76 -86t-44.5 -98.5t-11 -99t24 -86.5t61 -61t99 -22q47 1 94.5 22t88.5 61q34 34 59 79.5t36 102.5q-7 -2 -12.5 2.5t-5.5 12.5t5.5 11.5t11.5 2.5t10.5 -5.5t3.5 -12.5q-11 -63 -37.5 -113t-63.5 -87q-42 -42 -91.5 -63.5t-98.5 -22.5
q-68 -1 -114 23t-71 63t-29.5 89t10 102.5t47.5 103t82.5 89.5t116 62.5t147.5 22.5q82 -1 135 -38t79.5 -96.5t27.5 -136t-22 -156t-68.5 -155.5t-111.5 -135.5t-151.5 -96.5t-188.5 -37z" />
    <glyph glyph-name="colon" unicode=":" horiz-adv-x="211" 
d="M106 116q13 -1 18 -9.5t4 -18t-8 -17.5t-18 -8q-14 0 -20 8.5t-5 19t8.5 18.5t20.5 7zM121 229q13 -1 18 -9.5t4 -18.5t-7.5 -18t-18.5 -8q-14 0 -20 8.5t-5 19t8.5 19t20.5 7.5z" />
    <glyph glyph-name="semicolon" unicode=";" horiz-adv-x="376" 
d="M154 145q12 2 19 -15t1 -50q-5 -25 -15 -45q-17 -34 -41 -44.5t-50 9.5q-2 2 0 2.5t5.5 0t7 -1.5t5.5 -2q23 -12 45 16q9 11 6 18t-9.5 11.5t-13.5 7.5t-6 6q8 43 21 64t25 23zM164 286q18 -1 25.5 -13t6 -25.5t-11 -24.5t-25.5 -11q-19 0 -27 12t-6.5 26t11.5 25.5
t27 10.5z" />
    <glyph glyph-name="less" unicode="&#x3c;" horiz-adv-x="794" 
d="M315 430q1 1 5.5 1.5t9 -0.5t7 -2.5t0.5 -3.5q-31 -31 -54 -53.5t-41 -40t-33.5 -32.5t-32.5 -31.5t-37.5 -36.5t-48.5 -47q29 -42 51.5 -73t45.5 -59t49.5 -58.5t64.5 -70.5q6 -6 4 -9.5t-7 -3.5t-12 3t-13 9q-31 34 -58.5 63t-54 58.5t-52.5 63t-54 76.5q40 46 67.5 75
t54 54t58 51.5t81.5 66.5z" />
    <glyph glyph-name="equal" unicode="=" horiz-adv-x="642" 
d="M102 318q-2 0 -3.5 5.5t-2.5 11.5t0 11.5t4 5.5q103 8 208.5 7t208.5 1q6 0 9 -5.5t3 -12t-2.5 -12t-8.5 -5.5q-103 0 -208.5 0.5t-207.5 -7.5zM517 170q6 0 9 -5.5t3 -11.5t-2.5 -11.5t-8.5 -5.5q-103 -1 -208.5 -0.5t-207.5 -7.5q-2 0 -3.5 5.5t-2.5 12t0 12t4 5.5
q103 8 208.5 7t208.5 0z" />
    <glyph glyph-name="greater" unicode="&#x3e;" horiz-adv-x="494" 
d="M81 -92q-2 -1 -6 -1.5t-8.5 0.5t-7 2.5t-0.5 3.5q47 46 76 74.5t53 51.5t50 48.5t68 66.5q-29 42 -51.5 73t-45.5 59t-50 58t-64 71q-6 6 -4.5 9.5t7 3.5t12.5 -3t13 -9q31 -35 58.5 -63.5t54 -58t52.5 -63t54 -76.5q-27 -30 -47.5 -53t-38.5 -41.5t-35.5 -34.5
t-37.5 -33.5t-44.5 -37.5t-57.5 -47z" />
    <glyph glyph-name="question" unicode="?" horiz-adv-x="642" 
d="M129 -6q10 -1 14 -7.5t3 -14t-6 -14t-14 -6.5q-11 0 -15 7t-3.5 15t6.5 14.5t15 5.5zM434 848q20 0 38 -5t31.5 -15.5t21 -26.5t6.5 -38q-1 -39 -17 -78.5t-41.5 -80t-58 -81t-65.5 -80.5q-38 -47 -75.5 -95t-67.5 -99.5t-49.5 -107.5t-20.5 -117q0 -5 -4 -8t-8.5 -3
t-8.5 3t-4 8q2 63 22 121t51.5 111t70.5 103t78 97q33 40 63 78t53.5 75t37.5 74t15 75t-13.5 60t-54.5 21q-23 0 -45.5 -8t-43.5 -20.5t-40 -28.5t-33 -33q-43 -49 -61 -110t-10 -127q6 4 13 0t7 -12q0 -13 -14 -13q-11 0 -13 12q-10 70 7.5 136t63.5 120q15 18 34.5 34.5
t41.5 29.5t45.5 21t47.5 8z" />
    <glyph glyph-name="at" unicode="@" horiz-adv-x="901" 
d="M551 139q-35 0 -52 21.5t-23.5 52.5t-5.5 64t4 56q-23 -36 -54 -64.5t-71 -28.5q-38 0 -59 22.5t-26.5 55.5t3.5 71.5t30 71t53.5 54t73.5 21.5q28 0 49 -15t28 -46q5 18 10.5 31.5t10.5 21.5q4 7 12 8t16 -2t13 -8t3 -9q-7 -13 -19.5 -44.5t-23.5 -71.5t-19 -83
t-7 -78.5t13 -58t41 -22.5q31 0 60 24.5t51 64t36 90.5t16 103.5t-9.5 103t-40.5 90t-77.5 64t-120.5 24.5q-82 0 -145.5 -31.5t-108 -83.5t-70.5 -118t-32 -134.5t8.5 -134.5t49.5 -118t91.5 -83.5t134.5 -31.5q44 0 85.5 13t79.5 36.5t71 55t59 68.5q10 14 18 8.5
t-3 -21.5q-28 -39 -63 -72t-75 -57t-84 -37.5t-90 -13.5q-84 0 -144 33.5t-97.5 88t-53 124t-9 142t33.5 142t75 124t115.5 87.5t153.5 33q77 0 130 -26t84.5 -68t44 -96t10 -110.5t-18 -110.5t-40.5 -96.5t-57 -68.5t-68 -27zM355 255q17 0 34 10.5t32.5 26.5t29.5 35.5
t26 38.5q2 17 5 32.5t5 31.5q7 44 -13 67.5t-48 24.5q-29 1 -52.5 -18.5t-39.5 -49.5t-24 -64.5t-6.5 -64.5t14 -50t37.5 -20z" />
    <glyph glyph-name="A" unicode="A" horiz-adv-x="1256" 
d="M1396 649q17 0 17 -16q0 -7 -5 -12t-12 -5q-11 0 -16 10q-47 -41 -83 -90.5t-65 -104t-53.5 -112.5t-48.5 -116q39 11 71.5 29.5t55.5 46.5q-12 3 -12 16q0 7 5 12t12 5q8 0 13 -5t5 -12q0 -4 -4 -10q-26 -37 -64.5 -60t-86.5 -35q-26 -62 -53 -122t-60 -114t-75 -100.5
t-97 -81.5q-5 -3 -10 -3q-17 0 -17 17q0 16 17 16q13 0 16 -12q41 30 73.5 72t60.5 93t53 108.5t51 118.5q-49 -8 -103.5 -8t-112.5 5q-22 -32 -52.5 -80.5t-67.5 -102.5t-79 -108t-86 -97t-89.5 -69.5t-88.5 -26.5q-46 1 -83 30t-53 89q0 3 -2 9q-14 -2 -29 -3.5t-31 -1.5
q-74 -1 -121.5 32.5t-68.5 83.5q-19 45 -17 93q2 50 21 95q14 31 37 59t54.5 49t71.5 33t89 12q26 0 58 -3q22 49 49.5 91.5t59.5 74t68 49.5t74 19q45 1 73 -21.5t41 -60.5q15 -50 6 -117q-6 -45 -21 -91q39 -7 78 -12t77 -10q53 77 112 150t124.5 133.5t137.5 103
t152 58.5q19 8 30 10h3h1zM582 494q-36 0 -70 -17.5t-64.5 -47.5t-57 -70.5t-47.5 -87.5q51 -5 109 -15t121 -21q23 -4 47.5 -8t49.5 -9q8 23 13 46t8 44q9 66 -6 112q-11 35 -36.5 55t-66.5 19zM207 -171q15 0 29.5 1.5t28.5 3.5q-7 31 -9 65.5t0 70.5q3 43 10.5 87
t19.5 88q8 30 18 59t22 57q-29 3 -53 3q-47 0 -85.5 -11.5t-68.5 -31.5t-52 -46.5t-35 -56.5q-10 -22 -15 -45t-6 -46q0 -49 16 -88q20 -48 64.5 -79.5t115.5 -30.5zM268 -30q-4 -72 8 -134q67 12 125 45t105.5 78.5t84.5 100.5t61 111q4 9 7.5 18t6.5 18q-24 5 -48 9t-47 8
q-64 12 -123 21.5t-110 14.5q-25 -57 -41 -118q-24 -87 -29 -172zM399 -293q36 0 77 27t82.5 70.5t82 97.5t76 107t64.5 99.5t48 74.5q-38 5 -76 10.5t-76 11.5q-7 -20 -15 -38q-24 -57 -61.5 -113t-86.5 -102.5t-108.5 -80t-127.5 -46.5q2 -6 2 -8q15 -56 47 -83t72 -27z
M1089 194q25 58 52 116.5t60 114t73 107t90 95.5q-77 -21 -144.5 -65t-128 -102.5t-114 -128t-102.5 -141.5q58 -5 112 -4.5t102 8.5z" />
    <glyph glyph-name="B" unicode="B" horiz-adv-x="1027" 
d="M865 242q39 -29 57.5 -74.5t18.5 -101t-18.5 -116t-53.5 -119.5t-86.5 -113t-117.5 -94.5t-146 -65t-173 -24.5q-79 0 -143 23.5t-109.5 68t-69.5 107t-24 139.5q0 64 20.5 129t59 117.5t94 85.5t127.5 34h2q-13 81 3.5 164.5t49.5 153.5q31 63 75 116t99.5 91.5t121 60
t137.5 21.5q97 0 155.5 -31t85.5 -82t25.5 -116t-25.5 -132t-67 -130.5t-98 -111.5zM350 -455q114 1 207 41.5t162 103t114 140t63 152.5t7 140.5t-52 104.5l-2 2q-9 -8 -29.5 -21.5t-47 -27t-54.5 -23.5t-52 -10q-35 -1 -48.5 20t-5.5 46t37 46.5t79 21.5q70 0 117 -26
q50 47 90 108.5t63 126t27 126.5t-19 111t-76 78.5t-142 28.5q-71 -1 -134 -22t-117 -58.5t-97 -89t-73 -113.5q-34 -69 -50 -151.5t-2 -162.5q29 -1 58 -11q47 -17 76 -57q1 -2 4 -5q30 69 61 142t69.5 143t87 134.5t113.5 117.5q5 5 12 5t12 -5t5 -12t-5 -12t-12 -5
q-12 0 -16 11q-60 -54 -103.5 -121.5t-77.5 -141t-64 -150t-63 -148.5q7 -22 7 -54q2 -47 -19 -103q-3 -12 -17 -12q-7 0 -12 4.5t-5 12.5q0 7 5 11.5t12 4.5q6 0 11 -3q2 6 2 9q7 21 9.5 40t2.5 36q0 7 -0.5 13.5t-1.5 12.5q0 4 -2 12q-40 -85 -92.5 -156.5t-131.5 -121.5
q-5 -3 -10 -3q-8 0 -12.5 5t-4.5 12q0 16 17 16q12 0 16 -11q33 24 61 56.5t52 71.5t45.5 83.5t42.5 92.5q-2 3 -3.5 6t-3.5 5q-1 1 -1 2q-28 36 -70 51q-18 7 -40 10q-3 0 -6 0.5t-6 0.5q6 -30 16.5 -58t27.5 -54q8 9 19.5 5.5t11.5 -15.5q0 -13 -13 -16t-20 8
q-40 58 -54 130h-4q-69 0 -123 -32t-91 -83t-56.5 -114t-19.5 -125q0 -76 24 -137t68 -103.5t107 -65t140 -21.5zM831 242q-23 16 -50.5 22.5t-55.5 5.5q-43 -1 -68 -19t-33 -39t2 -38t37 -16q22 0 48.5 11.5t51.5 26t43.5 28t24.5 18.5z" />
    <glyph glyph-name="C" unicode="C" horiz-adv-x="702" 
d="M758 576q-15 -50 -47 -99.5t-76 -94t-97 -82t-109.5 -63.5t-114 -39t-110.5 -8q-39 -88 -61 -171.5t-23 -148.5t23 -104.5t77 -39.5q48 0 97 20t95.5 54t88.5 78.5t74.5 93.5t54.5 98.5t29 93.5q-8 -2 -14.5 3t-6.5 13q0 9 5.5 13t12.5 3.5t12 -5t4 -13.5q-4 -46 -25 -98
t-54.5 -103.5t-77.5 -99t-93 -84t-100.5 -58t-101.5 -21.5q-68 0 -99.5 41.5t-34 109t20 153.5t64.5 177q-66 14 -105 54t-54.5 92.5t-10 110t29.5 106t64 81.5t93 36q44 2 66.5 -15t28 -45t-3.5 -61t-29 -63q-5 -7 -14 -7q-8 0 -13 4.5t-5 11.5t5 12t13 5q7 0 13 -6
q16 26 22 53.5t0 50t-25.5 36.5t-56.5 12q-50 -2 -88 -33.5t-60.5 -78t-28 -102t9.5 -105.5t52.5 -88t101.5 -51q43 92 102 180t126 156.5t139 110t142 41.5q28 0 45.5 -9.5t26 -25.5t8.5 -37t-7 -45zM685 682q-67 0 -134.5 -41.5t-130 -109t-117 -154t-94.5 -176.5
q51 -4 107 9t111 38.5t106.5 62.5t94 80t73.5 91t46 97q6 21 6.5 39.5t-6 33t-22 22.5t-40.5 8z" />
    <glyph glyph-name="D" unicode="D" horiz-adv-x="988" 
d="M711 676q72 -23 121.5 -69.5t78 -106.5t37.5 -129t-0.5 -137.5t-36 -131.5t-68.5 -111.5t-98.5 -78t-126.5 -29.5q-31 -1 -61 8q-23 -42 -53 -79t-67.5 -65t-81.5 -44t-94 -15q-80 1 -132.5 36t-82.5 90.5t-39.5 123.5t-4.5 134q6 76 28 152t58.5 145.5t86.5 129
t112 103.5t135 69t156 25q68 0 120 -16q10 10 24 21q5 5 12 5t12 -5t5 -12t-5 -12t-12 -5q-12 0 -16 11q-4 -3 -7 -7zM261 -301q48 -1 90 14.5t78 42.5t65.5 63t51.5 75q-27 9 -52 24t-47.5 33t-43.5 38l-42 40q-35 -60 -79 -111.5t-105 -89.5q-3 -3 -9 -3q-8 0 -13 5t-5 12
t5 11.5t13 4.5q12 0 16 -11q49 35 85.5 87.5t68.5 116.5q-31 28 -62 47.5t-66 20.5q-23 0 -43 -8t-37 -21.5t-30.5 -31.5t-22.5 -37q8 0 13.5 -5t3.5 -12q-2 -10 -8.5 -13.5t-13 -2.5t-10.5 7t-1 15q7 23 21.5 45t34 39t43.5 27t50 9q37 -1 69.5 -20.5t64.5 -48.5
q35 72 67.5 152t71 160.5t87.5 156.5t116 139q-25 8 -51.5 12t-56.5 4q-81 0 -153 -24.5t-133 -68t-110 -102.5t-84.5 -127t-57 -142.5t-27.5 -149.5q-5 -63 4 -129t37.5 -119.5t79 -88t127.5 -35.5zM618 -106q64 0 115 28.5t89 75.5t61.5 108.5t31 128t-1 133.5t-35 125.5
t-71 103.5t-108.5 68q-64 -62 -108 -139t-79.5 -160.5t-69 -167.5t-75.5 -159q21 -19 42 -39t43.5 -38.5t47.5 -33.5t52 -24q44 80 72 194q-8 -1 -13.5 3.5t-5.5 12.5q0 9 6 13t13 3.5t12 -6t3 -14.5q-14 -63 -33.5 -114.5t-42.5 -94.5q24 -7 55 -7z" />
    <glyph glyph-name="E" unicode="E" horiz-adv-x="487" 
d="M502 680q29 0 42.5 -13.5t16.5 -33.5t-2 -42.5t-13 -38.5q-15 -30 -39 -54.5t-53 -42.5t-61.5 -27.5t-66.5 -8.5v-4q11 -2 24 -4t21 -7q14 -7 21 -18t7 -21.5t-8 -18.5t-24 -9q-29 -2 -45 16.5t-21 49.5q-43 0 -80.5 -26t-68.5 -68.5t-54 -97t-35 -111t-13 -110.5
t12.5 -96.5t42 -68t74.5 -25.5q45 0 83.5 20.5t68 53.5t49 75.5t26.5 88t1 89.5t-27 81q-8 -9 -19.5 -6.5t-10.5 16.5q0 13 12.5 16.5t19.5 -7.5q26 -38 34.5 -85.5t2.5 -96t-26 -94.5t-51 -82t-72.5 -58t-90.5 -23q-56 -1 -91 25.5t-52 70.5t-18 100.5t12 115.5t38.5 115.5
t60.5 101t78.5 71.5t92.5 27v8q-27 6 -46 21t-30 35.5t-12.5 45t7.5 50.5q3 6 8.5 8.5t11 1.5t9.5 -5.5t4 -11.5q0 -11 -9.5 -15t-17.5 1q-8 -42 12 -75.5t63 -44.5q1 38 14.5 81t39 79t63 60.5t85.5 25.5zM366 394q-7 4 -18.5 6t-20.5 3q1 -26 12.5 -41t26.5 -14
q12 1 17 6.5t4.5 12.5t-6.5 14.5t-15 12.5zM536 557q7 13 12 32.5t3 37t-12.5 29.5t-35.5 12q-41 -1 -73 -24.5t-54 -59t-34.5 -77t-14.5 -77.5q32 -1 63 8.5t58.5 26.5t50 40.5t37.5 51.5z" />
    <glyph glyph-name="F" unicode="F" horiz-adv-x="678" 
d="M1077 779q17 0 17 -16v-3q-4 -65 -26 -109t-58 -73t-83.5 -44t-103.5 -21.5t-117.5 -7t-124.5 1.5q-57 -62 -97 -135.5t-74 -151.5q38 -2 77.5 -4.5t77.5 2.5q16 45 34 64t32.5 19.5t22 -11.5t3 -28.5t-24 -32t-59.5 -21.5q-12 -35 -20.5 -70.5t-21.5 -70.5q1 -9 -4 -14
t-11.5 -5.5t-12.5 3.5t-6 14t9 14.5t17 -0.5q11 32 19 63.5t19 63.5q-38 -4 -78 -1.5t-78 4.5q-31 -74 -61 -149t-66.5 -143t-84 -126.5t-114.5 -100.5q-5 -3 -10 -3q-7 0 -12 5t-5 12t5 11.5t12 4.5q12 0 17 -12q50 36 88 91t70 121t62.5 140t65.5 149q-33 0 -65 -4.5
t-60 -17t-50.5 -34t-37.5 -56.5q9 0 13 -5t4 -11.5t-4.5 -11.5t-12.5 -5q-10 0 -14.5 7.5t-1.5 16.5q15 42 40 68t55.5 40.5t66 19.5t72.5 5q36 77 80.5 150t105.5 136q-45 1 -88.5 2t-85.5 -1q-12 -53 -36.5 -106t-60.5 -96.5t-84 -72t-107 -32.5q-42 -3 -70 22t-31 66
q-2 30 9 57t30 49.5t43.5 40.5t49.5 30q5 21 14.5 49.5t23.5 59t31.5 60.5t37.5 54t43 38.5t48 14.5q34 0 49.5 -26.5t20 -63t0.5 -74t-8 -59.5q42 2 85.5 1.5t87.5 -2.5h9q11 12 23.5 23t25.5 22q4 4 12 4q17 0 17 -16q0 -7 -4.5 -12t-12.5 -5q-11 0 -16 10
q-8 -6 -14.5 -12.5l-13.5 -13.5q60 -1 118 -0.5t110.5 6.5t98 20t80 40t56.5 65.5t28 97.5q-2 -1 -5 -1q-7 0 -12 4.5t-5 12.5q0 7 5 11.5t12 4.5zM100 212q57 4 103 31.5t80.5 69.5t58 93t35.5 101q-61 -2 -120 -12.5t-115 -36.5q-4 -15 -7 -30.5t-6 -32.5h4q17 0 17 -16
q0 -7 -4.5 -12t-12.5 -5q-7 0 -12 5t-5 12v3q4 36 12 69q-22 -11 -43.5 -27.5t-38.5 -37t-26.5 -45t-7.5 -51.5q2 -36 26.5 -58t61.5 -20zM380 519q4 19 8 54.5t1.5 70.5t-16 61t-43.5 26q-34 0 -64 -30t-54.5 -71.5t-42 -85.5t-24.5 -72q57 25 115.5 34.5t119.5 12.5z
M632 290q-11 0 -25.5 -15.5t-29.5 -54.5q30 5 46 16.5t21 23.5t1 21t-13 9z" />
    <glyph glyph-name="G" unicode="G" horiz-adv-x="864" 
d="M1016 631q8 8 18.5 3.5t10.5 -15.5q0 -7 -4 -11t-9.5 -5t-11 1.5t-8.5 8.5q-53 -47 -92.5 -104.5t-71 -120.5t-58.5 -130t-54 -132q-17 -40 -38 -85t-47 -89t-57.5 -84t-68.5 -71t-81 -49.5t-94 -19.5q-57 -1 -98.5 20.5t-70.5 59.5q-37 -8 -69 -3t-56 22t-38.5 45.5
t-17.5 68.5q-2 39 7 77.5t27 75t42.5 68.5t52.5 58q9 42 27.5 95t48 99.5t69.5 78t92 31.5q38 0 63 -28t37 -74t11.5 -105.5t-12.5 -122.5t-36 -126t-58 -115.5t-78.5 -90.5t-98.5 -52q27 -34 65.5 -53t90.5 -18q49 1 90 20t75 51t61.5 72.5t50.5 84.5t41.5 88t34.5 82
q30 71 62.5 142.5t73.5 140.5q-18 -17 -39 -32.5t-44 -27.5t-48 -18.5t-51 -5.5q-47 1 -75 21.5t-39.5 54t-7 76.5t22.5 88q-37 12 -55 34t-18 47t16.5 50t46.5 43.5t73 26t96 -2.5q42 29 90.5 45.5t104.5 16.5q39 0 65.5 -12t37 -31.5t5 -45t-29.5 -52.5q-31 -35 -80 -61.5
t-104.5 -43t-112 -22t-102.5 0.5q-16 -42 -21 -82t2.5 -70.5t28 -49.5t56.5 -20q31 -1 61 9.5t57 27.5t51 39t44 45q30 45 66 86.5t80 76.5zM731 760q-46 -36 -80.5 -83t-54.5 -97q44 -5 98.5 0.5t108 21t101 41t77.5 59.5q22 25 27 47t-4.5 39t-32.5 27t-59 10
q-48 0 -90.5 -15.5t-78.5 -41.5q15 -3 30 -9q12 -3 12 -16q0 -16 -17 -16q-7 0 -12 4.5t-5 11.5q0 5 3 10q-6 2 -12 3.5t-11 3.5zM704 765q-47 7 -85.5 -0.5t-65.5 -24t-42 -38.5t-15 -44.5t16 -42t50 -29.5q22 50 58 96.5t84 82.5zM12 -58q5 -73 49 -104.5t113 -19.5
q-27 39 -41 86.5t-18.5 98.5t-1.5 102t12 96q-25 -24 -46.5 -54.5t-37 -64t-23.5 -69.5t-6 -71zM139 214q-9 -45 -13.5 -97.5t-0.5 -105.5t18.5 -102.5t42.5 -88.5q53 12 96.5 48.5t77.5 87.5t57 112t35.5 122.5t14 119.5t-9.5 103t-33.5 72.5t-57.5 27.5q-48 0 -85.5 -29.5
t-65 -72.5t-45.5 -92t-27 -87q23 20 49.5 36t57.5 29q7 4 15.5 -0.5t8.5 -14.5q0 -8 -5.5 -12t-11.5 -4.5t-11.5 3t-6.5 11.5q-29 -14 -53.5 -30.5t-46.5 -35.5z" />
    <glyph glyph-name="H" unicode="H" horiz-adv-x="1151" 
d="M1324 701q8 8 19 3.5t11 -15.5q0 -7 -4 -11t-10 -5t-11.5 1.5t-8.5 8.5q-48 -44 -85.5 -96t-67.5 -109t-55 -118t-50 -121q26 8 53 17.5t54 22.5q-5 5 -5 12q0 9 5.5 13t11.5 4t11.5 -4t5.5 -13q0 -11 -10 -16q-34 -17 -66.5 -29t-64.5 -21q-24 -59 -50.5 -116
t-59 -108.5t-73.5 -95.5t-94 -77q-8 -5 -17.5 -1t-9.5 15q0 7 4.5 11.5t10.5 5t11.5 -2t7.5 -9.5q39 28 70 67.5t58 87t51.5 102t48.5 111.5q-65 -14 -126.5 -16.5t-121.5 2.5q-8 -19 -15.5 -37.5t-15.5 -37.5q-17 -40 -38 -85t-47 -89t-57.5 -84t-68.5 -71t-80.5 -49.5
t-93.5 -19.5q-57 -1 -98.5 20.5t-70.5 59.5q-46 -9 -81.5 0.5t-59 33.5t-34 61t-6.5 82q5 67 39 128t88 101q6 28 16 62.5t25 69t34.5 66.5t44 57t54 40t64.5 15q34 0 61 -25q41 31 91 47t104 23.5t109.5 10.5t107.5 7.5t98 14t81 30.5q8 6 18 2t10 -15q0 -7 -4 -11t-10 -5
t-11.5 1.5t-8.5 8.5q-44 -39 -78.5 -86t-63 -98.5t-52.5 -106.5t-46 -110q60 -5 122 -1.5t126 17.5q27 63 56.5 127.5t65.5 125.5t80.5 117t101.5 103zM463 260q3 24 3.5 54.5t-3.5 61.5t-13 59t-25 48q-22 -18 -38 -42.5t-26 -52t-14.5 -57t-2.5 -57.5q29 -2 58.5 -5.5
t60.5 -8.5zM473 247q-2 -22 -6.5 -44t-9.5 -45q39 1 73.5 20t60.5 47q-29 5 -58.5 11t-59.5 11zM446 158q5 23 9.5 45.5t6.5 45.5q-31 5 -60 8.5t-57 5.5q5 -45 29.5 -73.5t71.5 -31.5zM366 513q-32 0 -60 -14t-51 -37.5t-41.5 -53.5t-32.5 -62.5t-24 -64t-16 -57.5
q44 29 91.5 41t99.5 10q-2 29 3 59.5t15.5 59t27 54t39.5 44.5q-21 19 -51 21zM12 -16q-3 -41 5.5 -75t29 -56.5t52.5 -32.5t75 -2q-26 38 -40 85.5t-19 98t-2 101t11 94.5q-47 -39 -77 -95.5t-35 -117.5zM138 208q-9 -45 -13 -96.5t0.5 -103.5t19 -101t41.5 -87
q53 12 95 47t73.5 81t53.5 98.5t35 100.5q-51 4 -77.5 36t-32.5 80q-54 2 -102.5 -10.5t-92.5 -44.5zM704 137q7 17 13.5 33.5t14.5 33.5q-33 4 -65 9t-63 10q-28 -32 -66.5 -54.5t-83.5 -22.5q-13 -49 -35 -102.5t-54 -101t-74.5 -83t-96.5 -49.5q27 -34 66 -53t90 -18
q49 1 90 20t75 51t61.5 72.5t50.5 84.5t42 88t35 82zM737 215q23 52 48.5 104.5t55.5 102.5t66 96t80 87q-41 -15 -87.5 -21.5t-95.5 -10t-99 -7t-98 -11t-92 -23t-81 -42.5q17 -21 26.5 -50t13.5 -61t4 -63.5t-3 -57.5q31 -5 62 -11l62 -12q24 29 41.5 69t24.5 91
q-8 -2 -15 3t-6 13q1 9 7 13.5t12.5 4t11 -5.5t3.5 -14q-5 -56 -22.5 -100t-43.5 -76q59 -10 125 -18z" />
    <glyph glyph-name="I" unicode="I" horiz-adv-x="769" 
d="M913 685q8 8 18.5 3.5t10.5 -15.5q0 -7 -4 -11t-9.5 -5t-11 1.5t-8.5 8.5q-58 -20 -99 -71t-71 -120.5t-53.5 -151.5t-45.5 -165t-46.5 -160t-57.5 -137t-78 -96.5t-108 -37.5q-57 -1 -98.5 20.5t-70.5 59.5q-38 -8 -69.5 -2.5t-55.5 22.5t-38.5 45.5t-17.5 67.5
q-2 39 7 77.5t27 75t42.5 68.5t52.5 58q9 42 27.5 95t48 99.5t69.5 78t92 31.5q38 0 63 -28t37 -74t11.5 -105.5t-12.5 -122.5t-36 -126t-58 -115.5t-78.5 -90.5t-98.5 -52q27 -34 65.5 -53t90.5 -18q58 1 99 39t71 100t52.5 142t44 165t46 168t58.5 152t80 117.5t112 62.5z
M12 -58q5 -72 49 -104t113 -20q-27 39 -41 86.5t-18.5 98.5t-1.5 102t12 96q-25 -24 -46.5 -54.5t-37 -64t-23.5 -69.5t-6 -71zM139 214q-9 -45 -13.5 -97.5t0 -105.5t18.5 -102.5t42 -88.5q53 12 96.5 48.5t77.5 87.5t57 112t35.5 122.5t14 119.5t-9.5 103t-33.5 72.5
t-57.5 27.5q-48 0 -85.5 -29.5t-65 -72.5t-45.5 -92t-27 -87q23 20 49.5 35.5t56.5 28.5q8 4 17 0t8 -14q-1 -8 -6 -12t-11 -4.5t-11.5 3t-6.5 11.5q-29 -14 -53.5 -30.5t-46.5 -35.5z" />
    <glyph glyph-name="J" unicode="J" horiz-adv-x="884" 
d="M1028 636q8 0 12.5 -5t4.5 -12q0 -16 -17 -16q-11 0 -16 10q-53 -47 -92.5 -104.5t-71 -120.5t-58 -130t-54.5 -132q-17 -40 -38 -85t-47 -89t-57.5 -84t-68.5 -71t-81 -49.5t-94 -19.5q-57 -1 -98 20.5t-70 59.5q-11 -2 -22 -3.5t-23 -1.5q-49 0 -80 24.5t-45 64.5
q-16 40 -11 90q3 50 24 99q16 38 41.5 72.5t60.5 60.5l9 36q15 56 37.5 106t52 87.5t65 59t75.5 21.5q35 0 60 -25q33 24 74 39t86 24t92.5 14t94.5 8q74 6 138.5 14.5t106.5 34.5q4 3 10 3zM458 406q-5 24 -13 43.5t-20 33.5q-5 -3 -9 -7l-8 -8q-43 -44 -62 -88.5
t-19 -86.5q0 -17 3.5 -33t8.5 -30q12 -29 32 -49q15 -14 33 -23t39 -11q8 33 14 65.5t8 64.5q5 73 -7 129zM147 247q-2 -6 -3 -11.5t-3 -11.5q34 23 75.5 36t91.5 15h1q4 0 8 -2q-1 5 -1 10v10q0 43 19.5 90.5t64.5 92.5l8.5 8.5t8.5 7.5q-21 19 -51 21q-38 0 -72 -21
t-62 -57t-49.5 -84.5t-35.5 -103.5zM137 -185q19 0 37 3q-29 43 -44 98q-11 37 -15 78t-3 85q2 60 12 118q-30 -25 -52.5 -56t-36.5 -65q-20 -48 -23 -95q-3 -49 10 -85t41.5 -58.5t73.5 -22.5zM141 -81q8 -29 19 -53.5t26 -45.5q46 11 85.5 40.5t71 71t55.5 92.5t40 105
q1 2 1 3.5t1 3.5q-44 4 -77 37q-22 22 -34 53q-4 8 -7 22q-5 -6 -13 -6t-13 4.5t-5 11.5q0 2 0.5 2.5t0.5 2.5q-46 -3 -84.5 -17.5t-69.5 -37.5q-13 -64 -15 -129q-2 -88 18 -160zM703 137q26 61 54 124t61.5 123.5t74.5 116.5t93 104q-42 -15 -97 -21t-116 -11
q-46 -4 -92.5 -8.5t-91 -13t-84 -23t-71.5 -38.5q13 -15 21.5 -35.5t14.5 -46.5q12 -58 6 -132q-2 -32 -7.5 -64.5t-14.5 -65.5q41 0 75 21t60 53q31 38 50 85t26 90q-2 0 -2.5 -0.5t-1.5 -0.5q-8 0 -13 5t-5 12t5 12t13 5q7 0 12 -5t5 -12v-2q-5 -47 -25 -100t-55 -96
q-28 -35 -64 -56.5t-80 -21.5h-3q-1 -2 -1 -4.5t-1 -4.5q-16 -55 -40 -106.5t-56 -94t-72 -73t-87 -42.5q27 -34 66 -53t90 -18q49 1 90 20t75 51t61.5 72.5t50.5 84.5t41.5 88t34.5 82z" />
    <glyph glyph-name="K" unicode="K" horiz-adv-x="1165" 
d="M1768 -211q7 0 12 -5t5 -12q0 -5 -3 -9q-39 -61 -77 -103.5t-76 -69.5q-38 -28 -75 -40t-74 -11q-53 1 -104 24.5t-99.5 62.5t-95 91t-90.5 109t-85.5 116.5t-80.5 113.5t-75.5 99.5t-69.5 75.5q-11 -26 -22 -52.5t-22 -52.5q-17 -40 -38 -85t-47 -89t-57.5 -84
t-68.5 -71t-81 -49.5t-94 -19.5q-57 -1 -98 20.5t-70 59.5q-11 -2 -22 -3.5t-23 -1.5q-49 0 -80 24.5t-45 64.5q-16 40 -11 90q3 50 24 99q16 38 41.5 72.5t60.5 60.5l9 36q15 56 37.5 106t52 87.5t65 59t75.5 21.5q35 0 60 -25q33 24 74 39t86 24t92.5 14t94.5 8
q75 6 139.5 14.5t106.5 34.5q4 3 9 3q8 0 13 -5t5 -12t-5 -11.5t-13 -4.5q-11 0 -16 10q-41 -36 -73.5 -79t-59.5 -89.5t-49.5 -96.5t-43.5 -101q46 17 89 49.5t84.5 71.5t82.5 79.5t82 74t83.5 54.5t87.5 22t83 -29q7 -5 7 -13q0 -7 -5 -11.5t-12 -4.5q-17 0 -17 16
q0 9 7 13q-30 18 -63 18q-39 -1 -77 -22t-77.5 -54t-80 -73.5t-83 -79.5t-88 -71.5t-94.5 -49.5q47 -42 98 -109t104.5 -143t111 -153.5t118 -139.5t123.5 -101.5t130 -40.5q35 -1 70.5 11t72.5 38q35 25 70 63.5t71 93.5q-14 3 -14 16q0 7 5 12t13 5zM458 406
q-5 24 -13 43.5t-20 33.5q-5 -3 -9 -7l-8 -8q-44 -44 -62.5 -88.5t-18.5 -86.5q0 -17 3.5 -33t8.5 -30q12 -29 32 -49q15 -14 33 -23t39 -11q8 33 14 65.5t8 64.5q5 73 -7 129zM147 247q-2 -6 -3 -11.5t-3 -11.5q34 23 75.5 36t91.5 15h1q4 0 8 -2q-1 5 -1 10v10
q0 43 19.5 90.5t64.5 92.5l8.5 8.5t8.5 7.5q-21 19 -51 21q-38 0 -72 -21t-62 -57t-49.5 -84.5t-35.5 -103.5zM137 -185q19 0 37 3q-29 43 -44 98q-11 37 -15 78t-3 85q2 60 12 118q-30 -25 -52.5 -56t-36.5 -65q-20 -48 -23 -95q-3 -49 10 -85t41.5 -58.5t73.5 -22.5z
M141 -81q15 -57 45 -99q46 11 85.5 40.5t71 71t55.5 92.5t40 105q1 2 1 3.5t1 3.5q-44 4 -77 37q-22 22 -34 53q-4 8 -7 22q-5 -6 -13 -6t-13 4.5t-5 11.5q0 2 0.5 2.5t0.5 2.5q-46 -3 -84.5 -17.5t-69.5 -37.5q-13 -64 -15 -129q-2 -88 18 -160zM746 236q2 4 3.5 8t3.5 9
q-35 24 -63 24q-20 0 -27 -12q-2 -6 -2 -8q0 -5 3 -9q5 -7 15.5 -11.5t27.5 -4.5q10 0 19.5 1t19.5 3zM759 264q42 94 96 181.5t132 159.5q-43 -15 -98 -21t-116 -11q-46 -4 -92.5 -8.5t-91 -13t-84 -23t-71.5 -38.5q13 -15 21.5 -35.5t14.5 -46.5q12 -58 6 -132
q-2 -32 -7.5 -64.5t-14.5 -65.5q41 0 75 21t60 53q31 38 50 85t26 90q-2 0 -2.5 -0.5t-1.5 -0.5q-8 0 -13 5t-5 12t5 12t13 5q7 0 12 -5t5 -12v-2q-5 -47 -25 -100t-55 -96q-28 -35 -64 -56.5t-80 -21.5h-3q-1 -2 -1 -4.5t-1 -4.5q-16 -55 -40 -106.5t-56 -94t-72 -73
t-87 -42.5q27 -34 66 -53t90 -18q49 1 90 20t75 51t61.5 72.5t50.5 84.5t41.5 88t34.5 82q10 22 19 43t18 43q-8 -1 -16.5 -1.5t-16.5 -0.5q-21 0 -34 6t-18 15q-5 8 -5 14q0 7 3 15q10 17 37 17q33 0 69 -24z" />
    <glyph glyph-name="L" unicode="L" horiz-adv-x="702" 
d="M1193 -77q7 0 12 -4.5t5 -11.5q0 -9 -7 -14q-74 -58 -143 -89t-134 -41t-126 -2t-118.5 27t-112.5 45.5t-108 53.5q-20 11 -40.5 21t-40.5 19q-46 -54 -103 -89t-128 -36v4v-4q-55 1 -89 17.5t-48 40.5q-12 19 -12 42q0 21 13 42q15 26 48.5 43.5t84.5 18.5
q56 0 110.5 -17t111.5 -43q22 31 41 65t35.5 68.5t31 68t26.5 63.5q26 61 54 124t61.5 123.5t74.5 116.5t93 104q-42 -15 -97 -21t-116 -11q-51 -4 -102.5 -9.5t-99.5 -16t-90 -29.5t-73 -50q-44 -44 -62.5 -88.5t-18.5 -86.5q0 -35 12 -63q6 -14 13.5 -26.5t18.5 -22.5
q35 -35 83 -35q41 0 75 21t60 53q30 38 49.5 85t25.5 90q-1 0 -1.5 -0.5t-2.5 -0.5q-7 0 -12 5t-5 12t5 12t12 5q8 0 13 -5t5 -12v-2q-5 -47 -25.5 -100t-54.5 -96q-29 -35 -64.5 -56.5t-79.5 -21.5q-53 0 -91 38q-11 11 -19.5 24t-15.5 29q-12 30 -12 67q0 43 19.5 90.5
t64.5 92.5q32 32 75 51.5t91.5 30.5t101.5 16.5t104 9.5q75 6 139.5 14.5t106.5 33.5q4 4 10 4q7 0 12 -5t5 -12t-5 -11.5t-12 -4.5q-11 0 -16 10q-53 -47 -92.5 -104.5t-71 -120.5t-58.5 -130t-54 -132q-13 -31 -28.5 -64.5t-33.5 -68t-39.5 -68t-45.5 -63.5q20 -9 39 -19
t39 -20q51 -26 104.5 -52t109.5 -44.5t115 -26.5t121.5 0t129 36.5t137.5 82.5q-8 6 -8 14q0 7 5 11.5t13 4.5zM149 -187q68 2 119.5 36t92.5 88q-55 25 -108 41.5t-107 16.5q-47 -1 -78.5 -17t-45.5 -39q-11 -19 -11 -37q0 -20 10 -37q14 -21 45.5 -36t82.5 -16z" />
    <glyph glyph-name="M" unicode="M" horiz-adv-x="1402" 
d="M1717 863q28 -2 48.5 -14.5t33.5 -32t18.5 -44t4.5 -51.5q-10 -109 -65 -196.5t-140 -151.5q-91 -68 -200 -106t-227 -41q-15 -45 -27 -85.5t-19 -77.5q-3 -19 -8 -51.5t-3 -64.5t15 -56t45 -27q32 0 58 17t45.5 43.5t33 57.5t19.5 59h-3q-17 0 -17 17q0 16 17 16t17 -16
v-4q-4 -29 -17.5 -64t-36 -65.5t-52 -51t-64.5 -20.5q-34 0 -51.5 23.5t-24 56.5t-5 69.5t6.5 62.5q14 74 44 162h-3q-32 0 -59 2.5t-58 7.5q-34 -71 -57.5 -143t-34.5 -147q0 -5 -5.5 -8.5t-11.5 -5t-11 -1t-5 4.5q2 83 1 165t4 169q-24 9 -48.5 22t-55.5 32
q-22 -49 -42 -99t-41 -100q-17 -40 -38 -85t-47 -89t-57.5 -84t-68.5 -71t-80.5 -49.5t-93.5 -19.5q-57 -1 -98.5 20.5t-70.5 59.5q-41 -9 -76 0.5t-59.5 33t-37 59.5t-8.5 81q5 66 38 127.5t88 104.5q18 70 42.5 127t55 98t66 63t75.5 22q40 -1 63.5 -28t34.5 -65.5t13 -81
t-1 -73.5q-4 -63 -22.5 -135.5t-53 -138.5t-85.5 -118t-121 -74q27 -34 66 -53t90 -18q49 1 90 20t75 51t61.5 72.5t50.5 84.5t41.5 88t34.5 82q22 51 44.5 102.5t48.5 102.5q-77 60 -126 149q-4 11 0.5 17.5t11.5 7.5t13.5 -3t6.5 -13q0 -14 -15 -16q23 -40 52 -72.5
t63 -58.5q40 78 91.5 149t122.5 129q8 8 19 4t11 -16q0 -11 -11 -15.5t-19 3.5q-38 -78 -50.5 -162.5t-14.5 -172.5q21 -7 42.5 -12.5t43.5 -9.5q54 107 128 209q90 121 199.5 219t227.5 158q30 15 60 21t65 6zM1811 722q0 118 -95 130q-39 0 -63.5 -7.5t-50.5 -20.5
q-61 -31 -120 -92t-111.5 -140.5t-97.5 -171t-79 -183.5q115 4 221.5 41.5t194.5 103.5q83 63 137 148.5t64 191.5zM138 208q-11 -47 -14.5 -97t1 -99.5t19.5 -98t42 -93.5q45 12 82 38t67 62.5t52.5 80t38.5 90.5t25.5 94.5t13.5 91.5q1 26 0 65t-10.5 76t-30 64.5
t-58.5 30.5q-38 0 -72 -21.5t-62.5 -59.5t-51.5 -91.5t-39 -116.5q34 23 75.5 36t91.5 15h1q7 0 12 -4.5t5 -12.5q0 -7 -5 -11.5t-12 -4.5q-8 0 -13 4.5t-5 11.5q0 2 0.5 2.5t0.5 2.5q-46 -3 -84.5 -17.5t-69.5 -37.5zM1167 238q28 77 64 152t77.5 143t87.5 127t94 103
q-88 -60 -167.5 -139t-148.5 -171q-72 -99 -125 -205q29 -5 55 -7.5t56 -2.5h7zM12 -19q-3 -38 6.5 -70.5t30.5 -55t52.5 -33t72.5 -4.5q-27 41 -41 87.5t-19 95t-1.5 98.5t11.5 98q-46 -38 -76.5 -95t-35.5 -121zM924 282q6 82 23 162.5t53 157.5q-59 -56 -100.5 -123.5
t-75.5 -142.5q23 -16 47 -28.5t53 -25.5zM953 22q13 54 33 108.5t46 108.5q-21 4 -41 9.5t-40 11.5q-1 -52 0 -108t2 -130z" />
    <glyph glyph-name="N" unicode="N" horiz-adv-x="1230" 
d="M1816 790q16 -44 5 -108q-12 -62 -50 -129q-35 -60 -90.5 -118.5t-131.5 -104.5t-171.5 -74.5t-210.5 -28.5q-37 0 -71 3q-35 -79 -58 -151t-32 -129v-7q0 -4 -5.5 -7.5t-11.5 -5.5t-11 -1.5t-5 4.5q2 81 -6.5 163t-13.5 164q-23 8 -44.5 17t-41.5 20q-12 6 -24 13
t-24 15q-22 -49 -42 -99t-41 -100q-17 -40 -38 -85t-47 -89t-57.5 -84t-68.5 -71t-81 -49.5t-94 -19.5q-57 -1 -98 20.5t-70 59.5q-11 -2 -22 -3.5t-23 -1.5q-49 0 -80 24.5t-45 64.5q-16 40 -11 90q3 50 24 99q16 38 41.5 72.5t60.5 60.5l9 36q15 56 37.5 106t52 87.5
t65 59t75.5 21.5q42 -1 67.5 -32.5t36.5 -83.5q12 -58 6 -132q-3 -36 -9.5 -74t-17.5 -76q-16 -55 -40 -106.5t-56 -94t-72 -73t-87 -42.5q27 -34 66 -53t90 -18q49 1 90 20t75 51t61.5 72.5t50.5 84.5t42 88t35 82q21 51 43.5 102.5t48.5 102.5q-77 60 -126 149q-2 6 -2 9
q0 7 4.5 12t12.5 5q7 0 12 -5t5 -12q0 -14 -15 -16q23 -40 52 -72.5t63 -58.5q40 78 91.5 149t122.5 129q2 2 7 4q8 3 15 -2q8 -5 8 -14q0 -6 -4.5 -10.5t-10.5 -5.5q-9 -2 -15 4q-38 -81 -41.5 -167.5t6.5 -176.5q52 -15 108 -21q40 90 92 180t114 170q45 58 94 108
t100.5 86.5t105 57t107.5 20.5q45 -1 73 -20.5t41 -53.5zM137 -185q19 0 37 3q-29 43 -44 98q-11 37 -15 78t-3 85q2 60 12 118q-30 -25 -52.5 -56t-36.5 -65q-20 -48 -23 -95q-3 -49 10 -85t41.5 -58.5t73.5 -22.5zM141 -81q15 -57 45 -99q46 11 85.5 40.5t71 71t55.5 92.5
t40 105q21 75 27 148q5 73 -7 129q-10 48 -32.5 77t-59.5 30q-38 0 -72 -21t-62 -57t-49.5 -84.5t-35.5 -103.5q-2 -6 -3 -11.5t-3 -11.5q34 23 75.5 36t91.5 15h1q7 0 12 -4.5t5 -12.5q0 -7 -5 -11.5t-12 -4.5q-8 0 -13 4.5t-5 11.5q0 2 0.5 2.5t0.5 2.5
q-46 -3 -84.5 -17.5t-69.5 -37.5q-13 -64 -15 -129q-2 -88 18 -160zM953 272q-5 85 3 168t45 162q-60 -56 -101.5 -123.5t-75.5 -142.5q12 -8 24 -15.5t24 -13.5q41 -22 81 -35zM1006 8q12 50 32 106.5t46 116.5q-26 3 -51.5 8t-50.5 12q7 -61 14.5 -122t9.5 -121zM1809 684
q12 58 -4 102q-11 30 -36.5 48t-66.5 18q-53 0 -105 -20t-102.5 -56t-98.5 -85t-92 -106q-61 -79 -112.5 -167.5t-90.5 -176.5q33 -3 66 -3q113 0 207 28t169 73t129.5 102.5t88.5 116.5q37 65 48 126z" />
    <glyph glyph-name="O" unicode="O" horiz-adv-x="704" 
d="M459 708q70 0 113.5 -42.5t62 -112.5t15 -159.5t-26.5 -183t-63 -183t-94.5 -159.5t-121.5 -113t-143 -44v6v-6q-80 0 -127 43.5t-63 110.5q-8 29 -10 61.5t1 67.5q1 7 1.5 13.5t1.5 14.5q-3 49 5 110q14 93 50 190q28 75 69.5 145t93 123.5t111 85.5t125.5 32zM201 -278
q69 1 130 43t111 110.5t87 156t59 179t27 179t-10 155.5t-51 110t-96 42q-63 0 -121 -31.5t-108 -84t-90.5 -121t-68.5 -142.5q-17 -47 -29.5 -94.5t-18.5 -92.5q-5 -29 -6 -55q4 14 8 26.5t9 25.5q17 45 42.5 84t57.5 68t70.5 45.5t82.5 15.5q6 -1 12.5 -1.5t12.5 -1.5
q21 -5 38.5 -17.5t29.5 -33.5q25 -41 21 -112q-3 -38 -15 -85q-4 -14 -18 -14q-17 0 -17 17q2 16 18 16q5 0 9 -2q5 19 7.5 35.5t3.5 32.5q3 35 -2.5 61t-16.5 45q-21 37 -61 45q-12 3 -23 3q-42 1 -78.5 -14.5t-67 -43.5t-55 -66t-40.5 -81q-19 -49 -27 -102q2 -32 7 -55
q12 -60 46 -97.5t94 -39.5q48 -2 93 30q18 13 35 31t31 42q-15 2 -15 16q0 7 5 12t13 5q7 0 12 -5t4 -12q0 -5 -2 -7q-16 -30 -35.5 -53t-41.5 -38q-49 -34 -100 -32q-64 2 -100.5 41.5t-50.5 103.5v4q-2 -26 1 -51.5t9 -48.5q16 -63 59.5 -104t119.5 -42z" />
    <glyph glyph-name="P" unicode="P" horiz-adv-x="1258" 
d="M1077 844q96 0 154.5 -37t84 -96t21.5 -133t-32.5 -147.5t-79.5 -140t-118 -110.5q12 -8 23 -17t22 -22q4 -6 4 -11q0 -7 -5 -11.5t-12 -4.5q-8 0 -13 4.5t-5 11.5q0 12 11 16q-17 16 -36 27q-78 -48 -125 -58.5t-68 -0.5t-17.5 32.5t28.5 40t69.5 22.5t104.5 -20
q42 30 79.5 73t67 94t49 106t25.5 108t-3 100.5t-36.5 83.5t-74.5 57.5t-118 21.5q-67 0 -127.5 -18.5t-112 -52.5t-94 -81.5t-73.5 -105.5q37 4 85 7t97 8t93 14.5t73 27.5q6 4 10 4q8 0 12.5 -5t4.5 -12q0 -16 -17 -16q-11 0 -16 10q-52 -47 -91 -103.5t-70.5 -118
t-57.5 -126.5t-52 -128q-26 -62 -61.5 -133t-83 -132t-108.5 -102t-138 -42q-57 -1 -98 20.5t-70 59.5q-11 -2 -22 -3.5t-23 -1.5q-49 0 -80 24.5t-45 64.5q-16 40 -11 90q3 50 24 99q16 38 41.5 72.5t60.5 60.5l9 36q15 56 37.5 106t52 87.5t65 59t75.5 21.5q35 0 60 -25
q46 34 105.5 50t124.5 24q32 61 75.5 111t97 85.5t116 55t132.5 19.5zM986 605q-34 -12 -74.5 -18.5t-83.5 -10t-85.5 -6.5t-79.5 -7q-37 -72 -54 -156t-4 -165q22 29 37.5 67t22.5 86q-8 -2 -15.5 3t-5.5 13q1 8 6.5 12t11.5 4t11 -4t5 -12v-2q-6 -58 -25 -103.5t-45 -78.5
q6 -31 16.5 -59.5t27.5 -53.5q4 6 13 6q8 0 13 -4.5t5 -11.5t-5 -12t-13 -5q-9 0 -14 8v-1q-20 27 -32.5 58t-20.5 65q-31 -34 -67.5 -51.5t-71.5 -19.5h-5l-5 -20q-16 -55 -40 -106.5t-56 -94t-72 -73t-87 -42.5q27 -34 66 -53t90 -18q49 1 90 20t75 51t61.5 72.5
t50.5 84.5t41.5 88t34.5 82q26 61 54 124t61.5 123.5t74.5 116.5t93 104zM141 -81q8 -29 19 -53.5t26 -45.5q46 11 85.5 40.5t71 71t55.5 92.5t40 105l5 18q-30 1 -53 16q-21 12 -33.5 32t-18.5 44t-6 51t5 54q8 39 24 74t39 58l17 16q-21 19 -51 21q-38 0 -72 -21t-62 -57
t-49.5 -84.5t-35.5 -103.5l-6 -23q34 23 75.5 36.5t91.5 14.5h1q7 0 12 -4.5t5 -12.5q0 -7 -5 -11.5t-12 -4.5q-17 0 -17 16v5q-46 -3 -84.5 -18t-69.5 -38q-13 -63 -15 -128q-2 -88 18 -160zM650 561q-62 -8 -117.5 -23.5t-98.5 -47.5q13 -15 21.5 -35.5t14.5 -46.5
q12 -58 6 -132q-2 -29 -6.5 -58.5t-12.5 -59.5h2q34 1 70 19.5t66 53.5q-14 83 1.5 169t53.5 161zM137 -185q19 0 37 3q-29 43 -44 97q-11 38 -15 79t-3 85q2 60 12 118q-30 -25 -52.5 -56t-36.5 -65q-20 -48 -23 -95q-3 -48 10 -86q13 -35 41.5 -57.5t73.5 -22.5zM458 406
q-5 24 -13 43.5t-20 33.5l-17 -15q-21 -22 -36.5 -55t-23.5 -71q-5 -26 -5 -51.5t6 -48.5q5 -23 16.5 -41t30.5 -29q20 -13 50 -14q7 30 12 60t7 59q5 73 -7 129zM896 144q0 -11 10.5 -18.5t32.5 -5.5t56.5 16t81.5 45q-43 15 -76 15.5t-56.5 -7t-35.5 -20.5t-13 -25z" />
    <glyph glyph-name="Q" unicode="Q" horiz-adv-x="746" 
d="M936 -116q9 0 14.5 -7t1.5 -16q-10 -28 -25.5 -53.5t-36.5 -44.5t-48 -30.5t-59 -11.5q-58 0 -101 22t-76.5 58.5t-59 83.5t-48.5 95q-42 -47 -87.5 -86.5t-92 -68t-93 -44.5t-91.5 -16q-44 0 -73.5 20t-44 52t-16 73.5t9 85t33 85.5t55.5 76q13 60 39.5 123.5
t62.5 124.5t81.5 115.5t98 95.5t111 64.5t120.5 23.5q72 0 109 -34t46 -90.5t-7.5 -129.5t-52 -152t-87 -159t-112.5 -149q22 -48 47 -94.5t57.5 -82.5t74 -58t97.5 -22t94.5 34.5t58.5 83.5q-8 0 -12.5 5.5t-4.5 11.5t4.5 11t12.5 5zM134 -224q43 0 88.5 17t91 48t89 72.5
t84.5 91.5q-20 43 -40 83.5t-44 71.5t-53 50t-67 19q-38 1 -75.5 -13t-68.5 -37q-15 -58 -19.5 -110t4 -90.5t31 -61t60.5 -22.5q41 0 65 26t35 63t11.5 78t-3.5 72q-8 -5 -16.5 0t-8.5 15q0 7 5 11.5t11 4.5t11.5 -3.5t6.5 -10.5q6 -35 6 -81t-11.5 -87t-38 -70t-73.5 -30
q-44 0 -72 19.5t-42.5 53.5t-15.5 80t9 99q-28 -33 -47.5 -72.5t-28.5 -79t-7 -77t16 -66.5t40.5 -46.5t66.5 -17.5zM495 14q55 68 101.5 144.5t79 151.5t48.5 144t10.5 122t-35 84.5t-88.5 32.5q-81 0 -154.5 -45.5t-134.5 -117.5t-107 -160.5t-71 -173.5q30 21 66 33
t73 11q40 0 70.5 -19t55 -50.5t45.5 -72t41 -84.5z" />
    <glyph glyph-name="R" unicode="R" horiz-adv-x="1216" 
d="M1309 -238q1 9 7 13t12.5 3.5t11.5 -5t4 -13.5q-4 -30 -17.5 -56t-35 -45.5t-50.5 -31t-63 -12.5q-60 -2 -103.5 24t-74 69t-49 98t-29.5 113.5t-15.5 114.5t-5.5 101q-35 1 -47 17.5t-9 33.5t17 28.5t33 3.5q9 -4 12.5 -12.5t4.5 -19t0.5 -21.5t-0.5 -19q56 1 111 31
t103 78.5t86 110.5t60 126.5t25 126.5t-19.5 110t-73 77t-135.5 28q-67 -1 -127.5 -20t-113 -53.5t-95 -82t-73.5 -104.5q50 5 100 7.5t96.5 7.5t87.5 14.5t73 28.5q6 4 10 4q8 0 13 -5t5 -12t-5 -11.5t-13 -4.5q-11 0 -16 10q-53 -47 -92 -104t-70.5 -119.5t-57.5 -127.5
t-52 -128q-26 -62 -61.5 -132.5t-83 -131t-108 -101t-136.5 -41.5q-57 -1 -98.5 20.5t-70.5 59.5q-60 -12 -99.5 4.5t-59.5 51.5t-21.5 82t12.5 96t42.5 94.5t70.5 77.5q6 28 16.5 62.5t25 69t34.5 66.5t44.5 57t54 40t64.5 15t60 -25q47 34 103.5 50t117.5 23
q31 60 75.5 110t98.5 86t117 56.5t133 20.5q91 1 147.5 -29.5t83 -80t26.5 -113t-21 -130t-60.5 -130.5t-91.5 -114.5t-113.5 -81.5t-127.5 -32q1 -42 5 -96.5t14 -111.5t28 -111.5t47 -96.5t71 -67.5t100 -23.5q60 2 100.5 35t51.5 84q-8 -2 -15 3t-6 13zM985 605
q-36 -13 -76 -19.5t-82.5 -10t-86.5 -6t-87 -7.5q-1 -3 -2 -5.5t-3 -5.5q-34 -70 -49.5 -153.5t-1.5 -163.5q28 35 45 77t22 84q-1 0 -2 -0.5t-2 -0.5q-8 0 -12.5 5t-4.5 12q0 16 17 16q7 0 12 -4.5t5 -11.5v-2q-5 -49 -24.5 -99.5t-52.5 -90.5q12 -58 42 -105q8 9 19.5 5.5
t11.5 -15.5q0 -13 -13 -16t-19 8q-19 26 -31 54t-20 59q-26 -28 -59 -44.5t-73 -18.5h-5q-13 -49 -35 -102.5t-54 -101t-74.5 -83t-96.5 -49.5q27 -34 66 -53t90 -18q49 1 90 20t75 51t61.5 72.5t50.5 84.5t42 88t35 82q26 61 53.5 124t61 123.5t74.5 116.5t93 104zM137 207
q-9 -44 -13 -96t0.5 -103.5t19 -100.5t41.5 -87q53 12 95 47t73.5 81t53.5 98.5t35 100.5q-41 3 -65.5 24t-35.5 52.5t-10 70t12 76t30 70t43 52.5q-21 19 -51 21q-32 0 -60 -14t-51 -37.5t-41.5 -53.5t-32.5 -62.5t-24 -64t-16 -57.5q34 23 75.5 36.5t91.5 14.5h1
q7 0 12 -4.5t5 -12.5q0 -7 -5 -11.5t-12 -4.5q-17 0 -17 16v5q-46 -3 -84.5 -18t-69.5 -38zM640 560q-57 -7 -110 -22.5t-97 -47.5q24 -29 33.5 -72t10 -89.5t-6 -91.5t-14.5 -79h2q39 1 71.5 18.5t57.5 46.5q-8 42 -8 85.5t7.5 86.5t20.5 84t31 77q0 2 2 4zM123 197
q-35 -29 -60.5 -71.5t-38.5 -87.5t-12.5 -89t18 -76t52.5 -48.5t91 -6.5q-26 38 -40 85.5t-19 98t-2 101t11 94.5zM445 158q8 32 14 76.5t6 90.5t-9 88.5t-32 69.5q-23 -18 -41 -49t-28.5 -66.5t-12 -71.5t8 -66t32.5 -50t62 -22zM901 146q0 6 0.5 15t-0.5 19t-3 17.5
t-8 10.5q-12 5 -22.5 -3.5t-12 -21t8.5 -24.5t37 -13z" />
    <glyph glyph-name="S" unicode="S" horiz-adv-x="872" 
d="M937 749q39 0 58.5 -21t22 -50t-10.5 -58.5t-39 -47.5q-4 -4 -11 -4t-12 4.5t-5 12.5q0 7 5 11.5t12 4.5q13 0 16 -11q18 18 27 43t5.5 48.5t-20 40t-48.5 16.5q-38 -1 -61 -24t-37 -55q-17 -37 -27 -87.5t-17.5 -109.5t-14.5 -123t-16.5 -129t-23.5 -127.5t-36 -117.5
q-21 -51 -53 -96.5t-74 -79t-93 -53t-109 -19.5q-49 0 -88.5 13t-69.5 36t-51 55.5t-34 70.5q-12 36 -17 75.5t-3 81.5q0 8 1 12q-40 23 -65.5 58.5t-37 77t-10.5 86.5t14 87q18 60 58.5 110.5t103.5 78.5q4 2 8 2q17 0 17 -16q0 -17 -17 -17q-15 0 -17 14
q-54 -28 -89.5 -74.5t-52.5 -100.5q-12 -39 -13.5 -81.5t9 -81.5t33.5 -73t60 -57q4 48 17 99t35.5 99.5t53 92t69 76t85.5 52t101 20.5q76 1 126 -38.5t67 -111.5q39 66 70 131t54 122q6 14 10.5 26t12.5 26q20 36 49.5 58.5t72.5 22.5zM475 502q-53 -1 -98.5 -20.5
t-83.5 -52t-67.5 -75.5t-51 -91t-34 -98t-16.5 -97q51 -28 121 -28t131 27.5t113 71.5t94.5 99t76.5 111q-14 72 -61.5 113t-123.5 40zM674 -12q21 63 33.5 134t22 143t18.5 142t22 130q-20 -46 -44.5 -94t-53.5 -96q13 -75 -5 -152.5t-59.5 -146t-102 -120.5t-131.5 -75
q-2 -1 -6 -1q-7 0 -12 4.5t-5 12.5q0 7 5 11.5t12 4.5t12 -4.5t5 -11.5q65 24 120 73t93.5 112.5t56 135.5t8.5 142q-35 -56 -78 -110t-95 -97t-113.5 -69.5t-131.5 -26.5q-35 -1 -65.5 6t-55.5 20q-1 -2 -1 -7q-2 -41 3 -79t17 -73q12 -37 32 -67.5t49 -53t66.5 -35
t84.5 -12.5q56 0 103.5 22.5t85.5 59t66 83t44 95.5z" />
    <glyph glyph-name="T" unicode="T" horiz-adv-x="428" 
d="M1076 965q7 0 12 -4.5t5 -11.5v-3q-4 -65 -26 -109t-58 -73t-84 -44t-103.5 -21.5t-117.5 -7t-125 1.5q-55 -60 -94.5 -131.5t-72.5 -148t-63.5 -154t-67.5 -148.5t-85.5 -131.5t-117.5 -103.5q-5 -3 -10 -3q-17 0 -17 17q0 16 17 16q13 0 16 -12q51 37 89.5 93.5
t71.5 124.5t64.5 143.5t67.5 152t80.5 149.5t104.5 136q-45 1 -88.5 1.5t-85.5 -0.5q-12 -53 -36.5 -106t-60.5 -96.5t-84 -72t-107 -32.5q-36 -3 -59 10.5t-33 36t-7 52t18 60t43 58.5t69 48q5 21 14.5 49.5t23.5 59t31 60.5t37.5 54t43.5 38.5t48 14.5q34 0 49.5 -26.5
t20 -63t0.5 -74t-8 -59.5q42 2 85.5 1t87.5 -2h8q12 12 24.5 23t25.5 22q4 4 12 4q7 0 12 -4.5t5 -11.5t-5 -12t-12 -5q-11 0 -16 10q-8 -6 -14.5 -12.5l-13.5 -13.5q60 -1 118 -0.5t110.5 6.5t98 20t80 40t56.5 65.5t28 97.5q-2 -1 -5 -1q-17 0 -17 17q0 16 17 16zM99 398
q57 4 103 31.5t80.5 69.5t58 93t35.5 101q-61 -2 -120 -12.5t-115 -36.5q-4 -15 -7 -30.5t-6 -32.5q8 2 14.5 -3t6.5 -13q0 -9 -6 -13t-12.5 -3.5t-12 5t-3.5 13.5q4 36 12 70q-51 -27 -80.5 -69t-34.5 -81t16 -65.5t71 -23.5zM379 704q4 19 8 54.5t1 71t-16 61.5t-43 26
q-34 0 -64 -30t-54.5 -71.5t-42 -85.5t-24.5 -72q57 25 115.5 34.5t119.5 11.5z" />
    <glyph glyph-name="U" unicode="U" horiz-adv-x="1151" 
d="M1373 864q67 0 98 -38.5t26 -104.5q-8 -87 -45 -159.5t-94 -130.5t-129.5 -100t-151.5 -67q-8 -3 -15.5 1.5t-7.5 14.5q0 8 5.5 12t11.5 4t11.5 -4t5.5 -12q75 25 143.5 66.5t122.5 97t88.5 125.5t42.5 153q6 60 -21.5 95.5t-90.5 34.5q-64 0 -127.5 -43t-122 -112.5
t-110 -158t-91.5 -181t-67 -181t-36 -158t2.5 -112t46.5 -42.5q31 0 57 18t46 44.5t33.5 57.5t19.5 57q-8 -2 -14 3t-6 13q0 9 6 13t13 3.5t12 -5.5t3 -14q-4 -30 -18 -65t-36.5 -65.5t-52 -50.5t-63.5 -20q-36 0 -55.5 23t-26 63t0 94t23.5 116q-19 -36 -43.5 -79.5
t-53 -88t-61 -86.5t-67 -74.5t-71.5 -52t-74 -19.5q-50 0 -66.5 27t-9.5 73.5t32 109t58.5 132t70 143.5t66.5 143.5t48 131.5t14 108.5t-34.5 73.5t-98.5 27q-73 0 -140 -31.5t-125 -83.5t-105 -118t-79.5 -135t-48 -135t-10 -117.5t32.5 -83t81 -31.5q40 0 75 17t62.5 44
t47 62t28.5 71q-8 -1 -14 3.5t-6 12.5q0 9 6 13t13 3.5t12 -5.5t3 -14q-7 -41 -27 -79.5t-50 -69.5t-68.5 -50t-81.5 -19q-58 0 -88 32.5t-36.5 85.5t9 121t48 139t80.5 139.5t108 121.5t129 86t144 33q74 0 110.5 -27t45.5 -73.5t-4.5 -109t-40 -132t-61.5 -143.5
t-69 -143.5t-62 -132t-40.5 -109t-4.5 -73.5t46 -27q40 0 79.5 24t77 63t71.5 88t64 98.5t54 95t41 77.5q24 73 58.5 150t77 149.5t91.5 137.5t102 114t108 77.5t109 29.5z" />
    <glyph glyph-name="V" unicode="V" horiz-adv-x="1248" 
d="M1300 715q34 -52 42 -117t-6 -131t-47 -127.5t-80.5 -106.5t-107 -69t-125.5 -14q-27 -34 -64 -77t-81.5 -87.5t-93.5 -87t-100 -76t-102 -53.5t-99 -20q-49 0 -65 27t-9 73.5t32 108.5t58 132t69.5 143.5t66 143.5t47.5 132t14 108.5t-34.5 73.5t-97.5 27
q-64 0 -125.5 -24t-117.5 -65t-103 -95.5t-82 -115.5t-55.5 -125t-22.5 -124q-1 -30 3.5 -62.5t18 -59.5t36.5 -45t60 -18q38 0 72 17t61.5 45t46.5 62.5t27 68.5q-8 -1 -14 3.5t-6 12.5q0 9 6 13t13 3.5t12 -5.5t3 -14q-7 -38 -26.5 -77t-49 -70.5t-67 -51t-79.5 -18.5
q-39 0 -64 18.5t-39.5 47t-20 63t-4.5 67.5q2 61 22.5 126.5t56.5 127.5t84 118t105 97.5t120 66.5t129 25q73 0 109.5 -27t46 -73.5t-3.5 -108.5t-39.5 -132t-61 -143.5t-68 -143.5t-61 -132t-40.5 -108.5t-5.5 -74t43.5 -27.5q45 0 93 20t96.5 53t95.5 75.5t88.5 86.5
t76.5 86t60 75q-66 19 -105.5 68.5t-56.5 118.5t-13 150.5t26 164t59.5 159.5t88 136t112 94.5t130.5 34.5q49 0 82.5 -28.5t48.5 -78t11 -116.5t-30 -144zM955 166q52 69 100 142t88.5 146t73 144t53.5 136q-21 25 -49.5 45t-66.5 34q-1 -6 -5.5 -10.5t-12.5 -4.5
q-7 0 -12 4.5t-5 11.5t5 12t12 5q2 0 3 -0.5t3 -0.5q43 -14 76 -35t56 -47q22 69 26 127.5t-8.5 101.5t-40.5 67t-69 25q-65 2 -123.5 -32.5t-106.5 -92.5t-84.5 -133.5t-58 -156t-25.5 -160.5t12.5 -147.5t55 -115.5t103.5 -65zM984 160q62 -7 118 16t100.5 66.5t76 101.5
t45 120.5t7.5 124.5t-36 112q-23 -63 -55 -131t-72 -137.5t-86.5 -138.5t-97.5 -134z" />
    <glyph glyph-name="W" unicode="W" horiz-adv-x="1605" 
d="M1648 715q35 -53 42.5 -118.5t-6.5 -131t-47.5 -126.5t-81 -106t-106.5 -68.5t-124 -14.5q-27 -34 -64 -77t-81.5 -88t-93.5 -87.5t-100 -75.5t-102 -53t-99 -20q-47 0 -65.5 28t-18 71t14.5 95.5t32.5 102.5t36 90.5t25.5 59.5q-22 -47 -47.5 -98t-54 -101t-60 -95
t-65.5 -79t-70.5 -54t-75.5 -20q-50 0 -66.5 27t-9.5 73.5t32 109t58.5 132t70 143.5t66.5 143.5t48.5 131.5t14.5 108.5t-34.5 73.5t-98.5 27q-64 0 -126 -24.5t-118 -66t-104 -97t-83 -117t-55 -125.5t-21 -124q0 -30 4.5 -61.5t18 -58t36.5 -43.5t59 -17q38 0 72 17.5
t61.5 45t47 62t27.5 68.5q-8 -1 -14 3.5t-6 12.5q0 9 6 13t13 3.5t12 -5.5t3 -14q-7 -38 -26.5 -77t-49 -70t-67 -50.5t-79.5 -19.5q-39 0 -64 17.5t-39.5 45.5t-20 62t-5.5 66q1 61 21.5 127t56 129t84 119t106 98.5t121 67.5t129.5 25q74 0 110.5 -27t45.5 -73.5
t-4.5 -109t-40.5 -132t-62 -143.5t-69 -143.5t-62 -132t-40.5 -109t-4.5 -73.5t46 -27q39 0 76 21.5t71.5 58.5t66.5 85t60.5 100t54 105t47.5 99q2 5 12 22t22.5 39t26.5 44t24.5 36.5t15 17t-0.5 -14.5q-5 -15 -19 -49.5t-32.5 -80t-39 -99.5t-38.5 -107.5t-30.5 -103.5
t-14.5 -88.5t8.5 -61.5t38.5 -23q45 0 93 20t96.5 53.5t95.5 76t88.5 86.5t76.5 86t60 74q-65 18 -104.5 68t-56.5 118.5t-13.5 150t25 164t58.5 159.5t87 136t110 94.5t128 34.5q46 0 81.5 -25t53.5 -72t15.5 -114.5t-32.5 -154.5zM1304 166q52 69 99.5 142t88.5 146
t73.5 144t53.5 136q-43 51 -117 79q0 -6 -5 -10.5t-12 -4.5q-17 0 -17 16q0 7 4.5 12t12.5 5q2 0 3 -0.5t3 -0.5q43 -14 75.5 -35t56.5 -47q24 76 26.5 135.5t-12 100.5t-43.5 62.5t-69 22.5q-64 1 -121 -33.5t-105 -92.5t-84 -133.5t-57 -156t-25 -160.5t12.5 -147t55 -115
t103.5 -65zM1333 160q61 -7 116.5 16t100.5 66t76.5 101t45.5 120.5t8 124.5t-37 113q-22 -63 -54.5 -131t-72 -137.5t-86 -138.5t-97.5 -134z" />
    <glyph glyph-name="X" unicode="X" horiz-adv-x="939" 
d="M1148 720q16 -4 14 -20q-2 -7 -7.5 -10.5t-13.5 -1.5q-11 2 -13 13q-47 -27 -88 -62.5t-77 -75.5t-68 -84.5t-63 -89.5q-1 -2 -1 -6q-9 -70 -19.5 -141t-15 -141.5t1 -140t27.5 -136.5q8 6 19 1q6 -4 8 -10.5t-2 -12.5q-3 -6 -10 -8t-13 2q-7 5 -8 10q-24 64 -34.5 129
t-12 130.5t3.5 131t13 128.5l-30 -45q-34 -49 -78 -104.5t-96 -102.5t-112 -78t-126 -31h-1q-63 0 -102 36.5t-57 96.5q-11 -2 -23 -3t-24 -1q-53 1 -84.5 25.5t-45.5 65.5q-10 29 -10 63.5t8 71.5q17 76 66 143q33 45 79 79t104 50q23 48 52 87.5t61 67.5q7 42 26.5 80
t48 66.5t64 45.5t76.5 17q62 0 105.5 -23t73 -62.5t46 -91t24 -108t8 -113.5t-3.5 -107q61 79 133 149.5t164 118.5q7 3 13 2zM140 105q21 0 44 3l-1 1q-18 68 -12 156q5 85 29 174q20 73 50 138q-53 -16 -94.5 -48t-72.5 -74q-47 -65 -64 -138q-8 -35 -8 -68.5t10 -60.5
q12 -38 41.5 -60.5t77.5 -22.5zM194 111q1 0 1 -2q63 11 119 44.5t103.5 80.5t85 104.5t62.5 116.5q32 76 41 144q11 66 -5 116q-11 35 -37 54.5t-68 19.5q-31 -1 -60 -13.5t-55 -34.5q-2 -10 -2 -14q5 1 12 -2q8 -5 9 -11.5t-2 -11.5t-9.5 -7.5t-13.5 1.5q-9 5 -9 17
q0 6 2 16q-28 -26 -52.5 -60t-44.5 -75q75 17 163 -7v-1q13 -4 13 -15q0 -7 -5 -12t-13 -5q-7 0 -12 5t-5 12q0 4 3 9q-42 10 -79 9.5t-72 -8.5q-16 -34 -29.5 -70.5t-23.5 -74.5q-24 -87 -29 -172t12 -153zM798 396q5 45 10.5 103t4 119t-11.5 119.5t-35.5 104.5t-69.5 74
t-111 27q-37 0 -69.5 -15t-59 -40t-45 -58.5t-27.5 -72.5q54 42 112 43q47 1 75 -21t40 -60q17 -52 6 -122q-5 -35 -15 -71.5t-27 -74.5q-26 -60 -64 -118.5t-86 -106.5t-105.5 -82t-121.5 -46q17 -56 53.5 -89.5t94.5 -32.5h1q43 0 81.5 15.5t73.5 41t67 58.5t60 68.5
t53 71.5t47 67q17 24 34 48.5t35 49.5z" />
    <glyph glyph-name="Y" unicode="Y" horiz-adv-x="1051" 
d="M1084 587q4 3 9.5 3t10 -2t7.5 -6t1 -10q-17 -56 -41 -125.5t-54 -144t-67 -151t-80 -148t-93 -134t-107.5 -109t-121.5 -73t-135 -26.5q-67 0 -113 29t-75 77q-63 -17 -107 -9.5t-71 31.5t-38 62t-8 82t20 91t45 90t67 78.5t87 56.5q16 43 37.5 80t47 64.5t54.5 44
t61 18.5q-1 45 18.5 95.5t52.5 93.5t75.5 71.5t88.5 28.5q50 0 71 -23.5t22.5 -62t-11.5 -87.5t-30 -100.5t-33.5 -101t-22.5 -88t4 -62.5t45 -24q39 -1 94 32.5t112 91.5q48 49 92 111t76 134q1 7 5 16q2 5 4 6v1zM413 -328q77 0 147 39.5t132 105.5t116 151t98.5 176.5
t80.5 181.5t62 166q-29 -52 -63.5 -97t-71.5 -83q-59 -60 -115.5 -94t-98.5 -33q-45 0 -62 24t-16 62.5t15 88t31 101t32 100.5t18.5 87.5t-10 62t-53.5 23.5q-44 0 -84.5 -27.5t-72 -69t-50 -90.5t-17.5 -91q30 -2 51.5 -18t35.5 -44q25 9 47.5 27t41 40.5t32.5 48.5t23 50
q-7 -1 -12.5 4t-5.5 12q0 8 5 12.5t13 4.5t13.5 -7t2.5 -15q-8 -28 -22.5 -57t-34.5 -54.5t-45 -45.5t-53 -30q20 -50 20.5 -110.5t-14.5 -123.5t-43.5 -124.5t-67 -113t-85 -89.5t-97.5 -53q28 -45 71 -71t106 -27zM229 241q-19 -50 -31 -110t-14 -122t8.5 -121.5
t37.5 -107.5q49 14 95 51t84 87.5t66.5 111t43 122.5t14 121t-20.5 107q-38 -10 -62.5 7t-29.5 57q-29 -2 -55.5 -16.5t-50 -39.5t-43.5 -59t-36 -74q6 2 14.5 5.5t18.5 6.5t19 5t15 2q8 0 12 -5t4 -11.5t-4 -11.5t-12 -5t-13.5 5t-3.5 13q-15 -4 -28.5 -8.5t-27.5 -9.5z
M215 234q-57 -27 -101 -77.5t-70 -108t-32 -114.5t13.5 -98.5t66.5 -60t127 1.5q-26 48 -37 106.5t-9.5 120t13 121t29.5 109.5zM432 444q4 -33 23.5 -47t51.5 -6q-12 24 -30.5 38t-44.5 15z" />
    <glyph glyph-name="Z" unicode="Z" horiz-adv-x="774" 
d="M832 559q27 32 52 43.5t42 9t24 -13.5t-0.5 -24t-32.5 -23.5t-72 -9.5q-30 -36 -61 -86t-66 -102.5t-75 -102t-87 -83.5q33 -22 46 -60.5t9 -86.5t-23 -102t-49 -107t-70.5 -102t-86.5 -86t-97 -59t-103 -22q-60 0 -99 24.5t-59.5 64t-23 90.5t9.5 104.5t37 104.5
t61 90.5t81.5 64t97.5 24.5q53 0 81 -28q28 -26 28 -75q0 -1 0.5 0t-0.5 -3t-6.5 -10t-12.5 -6q-8 0 -12.5 4.5t-3.5 11.5t8 12t12 5q4 0 3 0t0 -1q-4 34 -24 54q-27 24 -74 24q-49 0 -92 -23t-77.5 -61.5t-59 -87.5t-36 -100t-9 -100t21.5 -87t55.5 -61.5t93.5 -23.5
q61 0 121 36.5t111 94t90 127t58 136.5t14.5 123t-38.5 85q-46 -30 -81 -39.5t-57.5 -5.5t-31 16.5t-2 27t29.5 25.5t63 12q45 0 78 -14q41 33 77 80.5t69.5 98.5t66 100t65.5 87q-45 5 -89 17t-88.5 24t-88.5 21t-89 9q-52 -1 -98.5 -19.5t-86 -48.5t-70.5 -68.5t-53 -80.5
q-35 -68 -35 -118.5t22 -81t57.5 -39t71.5 6t65 54.5t37 107q3 26 -0.5 50.5t-14.5 44.5q-7 -7 -15 -7q-7 0 -11.5 4.5t-3.5 11.5q2 17 19 17q9 0 13 -7q17 -23 22.5 -52.5t1.5 -61.5q-8 -72 -39.5 -114t-70.5 -58t-78 -6.5t-63 41.5t-25 85.5t37 126.5q22 43 54.5 83t73 71
t89 50t102.5 20q49 0 95.5 -8.5t91.5 -19.5t90 -22.5t93 -15.5zM459 179q-36 0 -55.5 -9t-25 -20t2 -20t27 -10.5t49 8.5t67.5 38q-14 7 -29.5 10.5t-35.5 2.5zM860 558q27 0 44.5 6.5t25 14t6 13.5t-10.5 6t-25.5 -9t-39.5 -31z" />
    <glyph glyph-name="bracketleft" unicode="[" horiz-adv-x="690" 
d="M607 893q3 0 3 -5.5t-3 -5.5q-21 0 -50 0.5t-58 0.5h-7h-12.5h-12h-5.5q-43 -108 -73.5 -189t-54 -148.5t-43.5 -128.5t-41.5 -129t-47.5 -151t-61 -193q13 0 32 -0.5t39 -1t40 -0.5h36q29 0 29 -6t-29 -5h-40.5t-45 0.5t-42 1t-31.5 0.5q-8 0 -16.5 5t-6.5 10
q27 83 48 150.5t38.5 124t33 106t31.5 97t32.5 96t37 104t45.5 121.5t57 147q35 2 70 0q29 0 58 -0.5t50 -0.5z" />
    <glyph glyph-name="backslash" unicode="\" horiz-adv-x="635" 
d="M466 -42q3 -5 -1 -9.5t-10.5 -6.5t-13 -1.5t-8.5 5.5q-41 92 -66.5 151t-41.5 97.5t-25 62.5t-17 44.5t-17 44t-24.5 62t-41 97.5t-65.5 151q-2 5 2.5 9t10.5 6t12.5 1t8.5 -5q40 -92 65.5 -151t41 -97.5t24.5 -62t17 -44t17 -44t25 -62t41.5 -97.5t65.5 -151z" />
    <glyph glyph-name="bracketright" unicode="]" horiz-adv-x="702" 
d="M108 -68q-3 0 -3 5.5t3 5.5q21 0 50 -0.5t58 -0.5h7h12.5h12h5.5q42 108 73 189t54.5 148.5t43.5 128.5t41.5 129t47.5 150.5t61 193.5q-14 0 -32.5 0.5t-38.5 1t-40 0.5h-36q-29 0 -29 6t29 5h40.5t45 -0.5t42 -1t31.5 -0.5q8 0 16.5 -5t6.5 -10q-36 -111 -61.5 -194.5
t-47.5 -152.5t-42 -130.5t-44 -129.5t-55 -149.5t-73 -189.5q-35 -2 -70 0q-29 0 -58 0.5t-50 0.5z" />
    <glyph glyph-name="asciicircum" unicode="^" horiz-adv-x="598" 
d="M403 738q14 -66 29 -131.5t23.5 -131.5t8 -133.5t-16.5 -136.5q-2 -9 -8.5 -13t-13 -3t-10.5 7t-1 17q17 71 20.5 132.5t-2 121.5t-17 121.5t-23.5 131.5q-12 -16 -36.5 -43.5t-54 -64.5t-62 -83t-60 -99.5t-48 -114t-26.5 -126.5q0 -8 -6 -12t-12.5 -3.5t-11.5 4.5
t-4 13q7 70 31 135t57 123t70.5 107t70.5 87t57.5 62.5t32.5 34.5q8 11 9 11.5t4 -13.5z" />
    <glyph glyph-name="underscore" unicode="_" horiz-adv-x="897" 
d="M617 -156q11 0 17 -5.5t6 -12t-5.5 -12t-16.5 -5.5q-66 0 -114 0.5t-86.5 0.5h-73t-73 -0.5t-86 -2t-112.5 -4.5q-4 0 -7.5 5.5t-4.5 12t1 12t8 5.5q65 3 112.5 4t86.5 1.5t73.5 0.5h73.5h87h114z" />
    <glyph glyph-name="grave" unicode="`" horiz-adv-x="331" 
d="M164 659q3 -4 0 -8t-7.5 -6.5t-9 -2.5t-6.5 4q-12 23 -17.5 35t-9 19l-5.5 11t-6 10.5t-11 17.5t-20 33q-1 1 2 4t7.5 5.5t8.5 4t6 -0.5q19 -32 26 -43t10.5 -18t9 -19t22.5 -46z" />
    <glyph glyph-name="a" unicode="a" horiz-adv-x="326" 
d="M336 151q-11 -19 -26 -45t-33.5 -49.5t-40 -40t-45.5 -16.5q-25 0 -34.5 21.5t-7.5 53.5q-19 -29 -43 -51t-56 -22q-30 0 -46.5 17.5t-21 43.5t2.5 56t24 56t42 43t58 17q22 0 38.5 -12t21.5 -36q5 14 9 24.5t8 17.5q3 6 9.5 6t12.5 -2t10 -6t3 -7q-3 -6 -11 -23.5
t-16.5 -41t-16 -49t-9.5 -46.5t2.5 -35t20.5 -14q22 0 42 16t37.5 39t31.5 48t24 42zM159 148q-2 1 0 3q5 35 -10 53.5t-38 19.5t-41.5 -14.5t-31 -39t-19 -51t-5 -51t11 -39t29.5 -15.5q13 0 26.5 8t25.5 20.5t23 28t20 30.5q3 25 9 47z" />
    <glyph glyph-name="b" unicode="b" horiz-adv-x="271" 
d="M298 504q-16 -36 -41 -77.5t-58.5 -85.5t-75 -89t-89.5 -88q-1 -2 -2 -5l-2 -6q19 25 42 42t52 17q31 0 48 -14.5t22 -37t0.5 -50t-17.5 -52.5q17 5 31 16t26 25t21.5 29.5t17.5 30.5q0 -1 1 -1t1.5 -0.5t2.5 -0.5q2 -1 5 -3q-10 -18 -21 -35.5t-24.5 -33t-30.5 -26.5
t-38 -15q-17 -30 -43.5 -51t-58.5 -21q-21 0 -31 12.5t-9.5 27.5t11 27.5t28.5 13.5q17 1 36 -0.5t39 -0.5q11 24 17 50.5t4.5 48t-11 36t-29.5 14.5q-22 0 -40.5 -12t-33 -29.5t-24.5 -38.5t-16 -39q-2 -6 -3 -12t-3 -11q-3 -11 -8 -12.5t-9.5 3t-7.5 12.5t-1 15
q6 28 21.5 82t38.5 118t51.5 130.5t60.5 121.5t66.5 90t68.5 35q27 0 35 -18.5t5.5 -43.5t-11 -50t-14.5 -38zM283 643q-27 0 -53.5 -28t-51 -71.5t-46.5 -96.5t-40 -104t-31 -93t-20 -64q45 40 83.5 83t69.5 84.5t54.5 81t38.5 74.5q4 10 12.5 32t12 44.5t-1.5 40t-27 17.5
zM66 -16q20 0 38 16t32 41q-18 -1 -36.5 0t-33.5 0q-13 0 -20 -9t-7.5 -19.5t6 -19.5t21.5 -9z" />
    <glyph glyph-name="c" unicode="c" horiz-adv-x="245" 
d="M254 151q-15 -26 -37 -60t-49.5 -64t-58.5 -51t-63 -21q-34 0 -51 21.5t-20 53.5t6 69.5t27.5 69t44 52.5t56.5 21q29 0 48 -20.5t13 -62.5q-1 -9 -6.5 -7.5t-4.5 7.5q5 35 -10 53.5t-38 18.5q-22 0 -41 -19t-33 -48t-22 -63.5t-8 -64t10 -49.5t31 -21q29 -1 58.5 20
t55.5 51t47.5 63t34.5 56z" />
    <glyph glyph-name="d" unicode="d" horiz-adv-x="340" 
d="M461 651q26 0 34 -18t6 -42.5t-10.5 -49.5t-14.5 -40q-16 -35 -41.5 -77t-59 -87t-75 -90.5t-89.5 -87.5q-8 -32 -13 -59.5t-6.5 -47t2 -30.5t11.5 -11q22 0 42 16t37.5 39t31.5 48t24 42l10 -5q-11 -19 -26 -45t-34 -49.5t-40.5 -40t-44.5 -16.5q-27 0 -35 30t-2 78
q-12 -20 -24.5 -38.5t-26 -33t-28.5 -23.5t-31 -9q-34 0 -52.5 17.5t-23 43.5t3 56t25 56t43 43t56.5 17q29 -1 48 -21.5t13 -62.5v-1q-4 -14 -17 -14q-8 0 -13 5t-5 12t5 11.5t13 4.5q4 0 7 -1q-1 27 -15.5 41t-34.5 15q-22 0 -40.5 -15.5t-31.5 -39t-19.5 -51t-5 -51
t12 -39.5t32.5 -15q15 1 30.5 12.5t30 29.5t28 40t25.5 44q9 48 27.5 104t42.5 112.5t52 109.5t56.5 93.5t56.5 65t52 25.5h1zM465 506q3 8 11 30t12 45t-0.5 41t-26.5 18h-1q-19 0 -40.5 -21.5t-44 -57.5t-45.5 -83t-44 -98t-38.5 -103t-30.5 -98q44 41 83 84.5t70.5 86
t55.5 82.5t39 74z" />
    <glyph glyph-name="e" unicode="e" horiz-adv-x="238" 
d="M247 151q-13 -23 -31 -49t-40 -48t-48.5 -36t-57.5 -14q-34 0 -52 17.5t-23.5 44t0.5 57.5t21.5 57.5t39.5 44t53 17.5t46.5 -13.5t16.5 -39.5q-1 -21 -12 -33t-27 -18t-34.5 -8.5t-34.5 -3.5q-11 -1 -22 -1.5t-19 -2.5q-6 -16 -5.5 -34t7 -33t20.5 -25t35 -10
q25 0 47.5 13t42.5 32.5t37 43.5t30 47zM160 190q0 24 -16 34t-38.5 4t-45 -29t-34.5 -65q16 3 38 3q13 1 29.5 2.5t31 7t25 15.5t10.5 28z" />
    <glyph glyph-name="f" unicode="f" horiz-adv-x="214" 
d="M226 154q-20 -33 -46.5 -55t-57.5 -37t-65 -24t-69 -16q-27 -77 -58 -154t-67.5 -139t-79 -100.5t-92.5 -38.5q-6 0 -17 1t-22 4t-19 8t-8 13q0 7 5 11.5t12 4.5q13 0 14.5 -5t1.5 -10.5t5 -10t26 -4.5q40 1 73.5 33t63.5 84.5t56.5 119t51.5 136t49 136t49 118.5
t51.5 84t55.5 32q15 0 20 -14t-9 -43q-11 -24 -38 -57t-74 -70q-11 -29 -22.5 -61t-22.5 -66q32 7 64.5 16t61.5 23t54.5 35t43.5 52zM140 334q-14 0 -29 -20t-28.5 -46t-23 -51t-13.5 -35q38 32 60.5 60.5t33.5 50.5q10 21 9 31t-9 10z" />
    <glyph glyph-name="g" unicode="g" horiz-adv-x="312" 
d="M321 151q-35 -58 -74.5 -91t-82.5 -59q-2 -5 -3 -9t-3 -9q-12 -32 -28 -73.5t-36 -85.5t-42.5 -86t-47 -75t-49.5 -53.5t-50 -20.5q-19 0 -28.5 9.5t-13 23.5t-2 30t4.5 29q13 52 38 97t59.5 83.5t75.5 70.5t85 58q8 23 16 47.5t16 49.5q-22 -35 -46 -59.5t-52 -24.5
q-34 0 -52.5 17t-23 43t3 56t24.5 56t42.5 43t56.5 17q29 0 48 -20t13 -62v-3v-1q0 -1 -1 -1q-4 -11 -16 -11q-7 0 -12 5t-5 12t5 11.5t12 4.5q5 0 7 -1q-1 26 -15 40.5t-34 14.5q-22 0 -40.5 -15.5t-31.5 -39t-19.5 -51t-5 -51t12 -39t31.5 -14.5q15 0 30 11t29.5 28.5
t27.5 39t25 42.5q7 23 12.5 45.5t9.5 43.5q1 3 6.5 4t12 -0.5t11.5 -5.5t4 -10q-9 -44 -24.5 -96t-31.5 -99q38 25 74 56.5t68 83.5zM-96 -400q22 1 43.5 19.5t42 49t39.5 69.5t35.5 80.5t30 82l24.5 73.5q-42 -25 -80.5 -56t-70.5 -68.5t-55.5 -80.5t-35.5 -91
q-2 -10 -4 -23.5t0 -25.5t9 -20.5t22 -8.5z" />
    <glyph glyph-name="h" unicode="h" horiz-adv-x="325" 
d="M335 151q-11 -19 -26 -45t-34 -49.5t-40.5 -40t-44.5 -16.5q-27 0 -37 24.5t-9.5 58t8.5 69t17 58.5q-18 -20 -38 -43.5t-41 -48.5t-42.5 -50t-42.5 -47q-6 -6 -13.5 -8t-14 -1t-10.5 5t-3 11q5 26 13 56t17.5 60t19 59t18.5 54q11 32 27.5 73.5t36.5 85.5t42.5 86t47 75
t49.5 53t50 21q19 0 28.5 -8.5t12.5 -22t1 -31t-6.5 -34t-10 -31t-9.5 -23.5q-16 -36 -41 -77.5t-58.5 -86t-75 -89.5t-89.5 -87q-11 -33 -20 -65.5t-16 -64.5q9 9 25 27.5t34.5 41t39 46.5t38.5 44t32 32.5t20 12.5q22 0 20 -15q-1 -10 -7 -21.5t-10 -21.5
q-9 -23 -17.5 -52t-11 -54.5t2.5 -42.5t23 -17q22 0 42 16t37.5 39t31.5 48t24 42zM69 261q-6 -20 -12.5 -39.5t-12.5 -39.5q45 41 83.5 83.5t69.5 84.5t55 81.5t39 74.5q4 10 12 32t12 45t-1.5 40t-28.5 17q-22 0 -43.5 -19.5t-42 -51t-39.5 -71t-36 -81.5t-31 -83t-24 -73
z" />
    <glyph glyph-name="i" unicode="i" horiz-adv-x="163" 
d="M173 151q-11 -19 -26 -45t-33.5 -49.5t-40 -40t-44.5 -16.5q-20 0 -30 14.5t-12 36.5t1 49t9 52.5t13 46t13 30.5q4 6 10.5 6t12.5 -2t10 -6t2 -7q-3 -6 -11 -23.5t-16.5 -41t-15.5 -49t-9.5 -46.5t2.5 -35t21 -14q21 0 41.5 16t37.5 39t31.5 48t23.5 42zM61 252
q-7 0 -12 5t-5 12t5 11.5t12 4.5q8 0 13 -4.5t5 -11.5t-5 -12t-13 -5z" />
    <glyph glyph-name="j" unicode="j" horiz-adv-x="135" 
d="M43 259q-7 0 -12 5t-5 12t5 11.5t12 4.5q8 0 13 -4.5t5 -11.5t-5 -12t-13 -5zM145 151q-35 -58 -74.5 -91t-82.5 -59q-2 -5 -3 -9t-3 -9q-12 -32 -28 -73.5t-36 -85.5t-42.5 -86t-47 -75t-49.5 -53.5t-50 -20.5q-19 0 -28.5 9.5t-13 23.5t-2 30t4.5 29q13 52 38 97
t59.5 83.5t75.5 70.5t85 58q18 57 37.5 117t30.5 117q1 3 6.5 4t12 -0.5t11.5 -5.5t4 -10q-9 -44 -24.5 -96t-31.5 -99q38 25 74 56.5t68 83.5zM-272 -400q22 1 43.5 19.5t42 49t39.5 69.5t35.5 80.5t30 82l24.5 73.5q-42 -25 -80.5 -56t-70.5 -68.5t-55.5 -80.5t-35.5 -91
q-2 -10 -4 -23.5t0 -25.5t9 -20.5t22 -8.5z" />
    <glyph glyph-name="k" unicode="k" horiz-adv-x="306" 
d="M302 501q-16 -36 -41 -77.5t-58.5 -86t-75 -89.5t-89.5 -87q-11 -35 -20.5 -69t-16.5 -66q21 10 43.5 43.5t47 70.5t51.5 66t57 29q17 0 17 -16q0 -7 -4.5 -12t-12.5 -5q-7 0 -12 5t-5 12q-20 -9 -36.5 -26t-31.5 -38q14 -3 17.5 -14.5t2 -27t-6 -33t-6.5 -32t1.5 -24
t17.5 -9.5q23 0 47.5 16t47 38t41 46t29.5 42l10 -6q-12 -19 -31.5 -44.5t-43 -48t-49.5 -38.5t-51 -16q-32 0 -41 17.5t-7 40.5t8 46t5 34q-14 -20 -27 -41t-25.5 -39t-26 -31t-27.5 -18q-5 -2 -11 -2t-12 1.5t-9.5 5.5t-2.5 10q5 26 13 56t17.5 60t19 59t18.5 54
q11 32 27.5 73.5t36.5 85.5t42.5 86t47 75t49.5 53t50 21h1q27 0 34.5 -18t5.5 -42t-10.5 -49.5t-14.5 -40.5zM70 261q-6 -20 -12.5 -39.5t-12.5 -39.5q45 41 83.5 83.5t69.5 84.5t55 81.5t39 74.5q3 8 11 30t12 45t-1 41t-27 18h-1q-22 0 -43.5 -19.5t-42 -51t-39.5 -71
t-36 -81.5t-31 -83t-24 -73z" />
    <glyph glyph-name="l" unicode="l" horiz-adv-x="163" 
d="M283 651q27 0 35.5 -18.5t6 -43t-11.5 -50t-15 -38.5q-16 -36 -41 -77.5t-58 -85.5t-74.5 -89t-89.5 -87q-9 -33 -14 -60.5t-6.5 -47.5t2 -31.5t11.5 -11.5q22 0 42 16t37.5 39t31.5 48t24 42l10 -5q-11 -19 -26 -45t-34 -49.5t-40.5 -40t-44.5 -16.5q-26 0 -34.5 28
t-3.5 73.5t21.5 103.5t40.5 119t53.5 119.5t60.5 104.5t61 74t56 29zM288 506q5 10 13 31t11.5 43t-2 39.5t-27.5 20.5q-19 -1 -40.5 -22t-44 -56.5t-45.5 -82t-43.5 -97.5t-38.5 -103t-31 -98q45 41 84 84t70.5 85t55 81.5t38.5 74.5z" />
    <glyph glyph-name="m" unicode="m" horiz-adv-x="492" 
d="M502 151q-11 -19 -26 -45t-33.5 -49.5t-40 -40t-44.5 -16.5q-27 0 -35.5 24.5t-7 58t10.5 69t18 58.5q-17 -16 -42 -44.5t-51 -58.5q-16 -18 -30.5 -35.5t-27 -31t-22 -21.5t-14.5 -8q-9 0 -12 13.5t-2.5 34t4 44.5t8 46.5t8.5 39t6 21.5q-18 -20 -38 -43.5t-41 -48.5
t-42.5 -50t-42.5 -47q-6 -6 -13.5 -8t-14.5 -1t-11 5t-2 11q11 41 25 90.5t28 91.5q5 15 13 20.5t14.5 5t11 -5.5t3.5 -10q0 -1 -4.5 -15t-11 -34.5t-13.5 -44.5t-13.5 -44.5t-11 -35t-4.5 -15.5q9 9 25 27.5t34.5 41t39 46.5t38.5 44t32 32.5t20 12.5q22 0 20 -15
q-1 -23 -7.5 -44t-13.5 -43t-13 -46.5t-6 -53.5q12 12 31 34t41 47q6 7 23 27t36 41t37 37t27 16q14 0 17.5 -6t1 -15t-7.5 -19t-8 -18q-9 -23 -18.5 -52t-13.5 -54.5t0 -42.5t22 -17q21 0 41 16t37.5 39t31.5 48t24 42z" />
    <glyph glyph-name="n" unicode="n" horiz-adv-x="325" 
d="M335 151q-11 -19 -26 -45t-33.5 -49.5t-40 -40t-45.5 -16.5q-27 0 -37 24.5t-9.5 58t8.5 69t17 58.5q-18 -20 -38 -43.5t-41 -48.5t-42.5 -50t-42.5 -47q-6 -6 -13.5 -8t-14.5 -1t-11 5t-2 11q11 41 25 90.5t28 91.5q5 15 13 20.5t14.5 5t11 -5.5t3.5 -10q0 -1 -4.5 -15
t-11 -34.5t-13.5 -44.5t-13.5 -44.5t-11 -35t-4.5 -15.5q9 9 25 27.5t34.5 41t39 46.5t38.5 44t32 32.5t20 12.5q14 0 17.5 -6t1 -15t-7.5 -19t-8 -18q-9 -23 -17.5 -52t-11 -54.5t3 -42.5t22.5 -17q22 0 42 16t37.5 39t31.5 48t24 42z" />
    <glyph glyph-name="o" unicode="o" horiz-adv-x="264" 
d="M274 151q-9 -16 -24 -37.5t-33 -41.5t-38.5 -34.5t-39.5 -14.5q-16 0 -28 6q-11 -11 -24 -19t-30 -8q-34 0 -52.5 17.5t-23 43.5t3 56t25 56t43 43t56.5 17q29 0 48 -20.5t13 -63.5q0 -1 -1 -2q1 -14 -3 -29t-11 -30t-16.5 -28.5t-18.5 -23.5q10 -4 19 -4q17 0 36 14
t36 33t31 40t22 35zM58 14q12 0 23.5 7t20.5 15q-15 14 -18.5 38.5t2 48t19 40.5t32.5 17q14 0 22 -8q-2 25 -15.5 38t-33.5 14q-22 0 -40.5 -15.5t-31.5 -39t-19.5 -51t-5 -51t12 -39t32.5 -14.5zM110 44q17 17 31.5 44t16.5 52q1 12 -3 20t-18 9q-15 0 -25.5 -15t-15 -36
t-1.5 -42t15 -32z" />
    <glyph glyph-name="p" unicode="p" horiz-adv-x="272" 
d="M273 159q0 -1 1 -1t1.5 -0.5t2.5 -0.5q2 -1 5 -3q-10 -18 -20.5 -35.5t-24 -33t-30.5 -26.5t-38 -15q-18 -30 -44.5 -51t-58.5 -21q-15 0 -22.5 6t-9 15t2 19t11.5 18t19.5 12.5t24 6t25 2t24.5 1.5q11 24 17 50.5t4.5 48t-11.5 36t-29 14.5q-22 0 -40.5 -12t-33.5 -30
t-25 -39t-16 -39l-1 -1q-16 -49 -33.5 -104.5t-37.5 -110t-43 -104t-51 -87t-62 -59.5t-74 -22q-6 0 -16.5 1t-21.5 4t-19.5 8t-8.5 13q0 16 17 16q13 0 14.5 -5t1.5 -10.5t5 -10t27 -4.5q40 1 71.5 29.5t57.5 75t48 105.5t42 121t39.5 121.5t41 106.5t46 76t55.5 31
q5 0 12.5 -4.5t7.5 -12.5t-5 -12t-11 -4t-11.5 4t-6.5 12q-15 -11 -28.5 -34.5t-26.5 -56.5q16 20 37.5 34.5t49.5 14.5q31 0 48 -14.5t22 -37t0.5 -50t-17.5 -52.5q18 5 32 16t25.5 25t21 29.5t17.5 30.5zM66 -16q20 0 38 16t32 41q-9 0 -20.5 -0.5t-23 -3t-22 -7
t-16.5 -12.5q-9 -11 -8 -22.5t20 -11.5z" />
    <glyph glyph-name="q" unicode="q" horiz-adv-x="364" 
d="M374 151q-39 -66 -72.5 -97.5t-61.5 -41.5t-49 -4.5t-34 13.5q8 -41 12 -76.5t4 -65.5q0 -20 -4 -54t-15.5 -67t-30.5 -57t-49 -24q-27 0 -38 19.5t-10 51.5t11.5 74.5t27.5 88.5t37 93t40 88q-16 -17 -32.5 -28.5t-34.5 -11.5q-34 0 -52.5 17.5t-23 43.5t3 56t25 56
t43 43t56.5 17q28 -1 47 -20.5t14 -61.5q0 -8 -5.5 -12t-11.5 -4t-11.5 4.5t-5.5 12.5q0 9 7.5 13t16.5 2q-2 26 -16 40t-34 15q-22 0 -40.5 -15.5t-31.5 -39t-19.5 -51t-5 -51t12 -39t32.5 -14.5q15 0 30.5 11.5t29.5 29t27.5 39.5t25.5 44q8 15 14.5 26.5t10.5 16.5
q3 5 9.5 5.5t12.5 -1.5t10 -6t1 -8q-4 -6 -13.5 -23t-22.5 -41t-29 -54.5t-32 -63.5l1 -1q2 -2 2 -1.5t0 -0.5q7 -4 18 -9.5t25.5 -7.5t32.5 2t39 18.5t45 43t51 74.5zM162 -121q0 62 -18 148q-28 -57 -53.5 -117t-39 -109t-10 -80.5t32.5 -31.5q26 0 43 22t27 53t14 63
t4 52z" />
    <glyph glyph-name="r" unicode="r" horiz-adv-x="195" 
d="M205 151q-9 -13 -25.5 -38.5t-36.5 -50.5t-41 -44t-38 -19q-22 0 -30.5 16.5t-8 42.5t8 58t18 63t21.5 57.5t19 41.5h-11.5t-11.5 2q-11 -33 -26.5 -65.5t-32.5 -63.5l-10 5q17 30 32 62.5t26 65.5q-14 7 -22.5 22t-10 31t4 28.5t20.5 13.5t21.5 -9.5t7.5 -25t-1.5 -29.5
t-5.5 -24q12 -3 27 -1q3 6 9.5 6.5t12.5 -2t10 -6t2 -6.5q-5 -9 -16.5 -32t-25 -53t-26 -63t-18.5 -60.5t-3.5 -45t19.5 -17.5q15 0 35 18.5t39 43t35 49t23 35.5zM62 295q1 6 3.5 18t2.5 24.5t-3.5 21.5t-13.5 9q-10 -1 -13 -10.5t-1 -21.5t8.5 -24t16.5 -17z" />
    <glyph glyph-name="s" unicode="s" horiz-adv-x="223" 
d="M233 151q-16 -25 -34 -54.5t-37.5 -58.5t-41 -55.5t-43.5 -44.5q-14 -13 -31 -18t-35 -5q-44 0 -66.5 27.5t-25 64.5t15.5 72t54 50q8 4 16 -1t8 -14q0 -8 -5 -12t-11 -4.5t-11.5 2.5t-6.5 11q-27 -17 -39 -47.5t-9 -61.5t22.5 -53.5t57.5 -22.5t52 30t14.5 76t-7 101
t-13.5 106q-17 -33 -30.5 -58t-16.5 -30l-10 5q1 3 6.5 12.5t13.5 24t17 32t18 36.5q-5 58 9 93.5t27.5 42t15.5 -18.5t-26 -88q4 -35 12 -76.5t13 -84t5 -82t-10 -69.5q36 41 65 87l58 92zM96 385q-5 0 -13 -21t-5 -52q17 39 19.5 56t-1.5 17z" />
    <glyph glyph-name="t" unicode="t" horiz-adv-x="222" 
d="M603 564q11 0 16 -9.5t-3 -17.5q-36 -44 -95 -57.5t-125 -11.5q-60 1 -119.5 8t-119.5 13q-8 -15 -21 -44.5t-28 -67t-31 -80t-28.5 -85t-20 -82t-6.5 -69.5t11.5 -48t35.5 -19q29 -2 69 41q19 20 40 49.5t44 71.5l10 -5q-45 -82 -86 -124q-44 -46 -77 -44
q-46 1 -63.5 32t-16.5 79.5t17 107t36.5 115t42 103.5t33.5 72q-23 2 -46 3t-46 1q-30 0 -59.5 -3.5t-55.5 -12t-46.5 -23.5t-33.5 -38q6 -1 10.5 -5.5t4.5 -11.5q0 -16 -17 -16q-7 0 -12 4.5t-5 11.5q0 5 1 7q12 30 34 49t50 30t60 15t65 4q26 1 51 -0.5t50 -3.5
q32 64 58 112t40 71q4 6 11 7.5t13 -1t8.5 -8t-2.5 -14.5q-11 -20 -35 -65t-54 -106q60 -6 118 -12.5t117 -7.5t112 10t87 43q-6 3 -8.5 8t-1.5 10.5t5.5 9.5t11.5 4z" />
    <glyph glyph-name="u" unicode="u" horiz-adv-x="363" 
d="M372 151q-11 -19 -26 -45t-33.5 -49.5t-40 -40t-44.5 -16.5q-20 0 -30.5 15t-14 38t-1.5 50.5t8 53.5q-11 -19 -26 -46t-34 -51.5t-42 -42t-48 -17.5q-24 -1 -36.5 12.5t-16.5 35t-1 47.5t10 51t15.5 46t16.5 32q5 7 11 9.5t11.5 1.5t9 -5t3.5 -10q-1 -10 -7.5 -21.5
t-10.5 -21.5q-3 -7 -8.5 -22t-11.5 -33.5t-10 -38.5t-3.5 -36t7.5 -26.5t24 -9.5q26 1 51 25t47 57t39.5 67.5t28.5 54.5q4 8 10.5 12t13 4.5t11 -3t4.5 -11.5q0 -10 -7 -20.5t-11 -19.5q-9 -23 -17 -52t-10.5 -54.5t2.5 -42.5t23 -17q21 0 41.5 16t37.5 39t31.5 48t23.5 42
z" />
    <glyph glyph-name="v" unicode="v" horiz-adv-x="316" 
d="M326 151q-19 -32 -38.5 -47.5t-37.5 -19.5q-26 -5 -43.5 11.5t-23.5 39.5q-8 -17 -22.5 -49t-34 -63t-43 -54t-50.5 -23q-22 0 -33.5 17.5t-15.5 45.5t-2 61.5t8 65.5t14 58t15 38q2 3 9.5 5t14.5 1.5t10.5 -4.5t-2.5 -13q-5 -7 -11.5 -29.5t-13 -52t-11.5 -61.5
t-5.5 -59t5 -44.5t18.5 -17.5q25 0 48.5 24t42.5 56t33 65.5t22 51.5q-2 17 0.5 37t10.5 42q7 19 16.5 30t16 12.5t8.5 -9t-7 -34.5q-5 -13 -13.5 -33.5t-19.5 -46.5q3 -23 17 -42.5t40 -14.5q16 3 33.5 18t34.5 44zM201 229q-5 -14 -7.5 -27t-3.5 -24q8 18 14 33t9 25
q6 18 6 22t-3 0.5t-7.5 -12.5t-7.5 -17z" />
    <glyph glyph-name="w" unicode="w" horiz-adv-x="507" 
d="M517 151q-19 -32 -38.5 -47.5t-37.5 -19.5q-26 -5 -43.5 11.5t-23.5 39.5q-9 -17 -23.5 -49t-34 -63t-43 -54t-49.5 -23q-23 0 -34 20t-13 50.5t2 67t10 68.5q-12 -24 -28.5 -51t-35.5 -49t-39.5 -36.5t-41.5 -14.5t-32.5 14t-16 36t-4 48.5t5 52.5t10.5 47.5t12 32.5
q1 3 8.5 5.5t14.5 2t11 -4.5t-2 -14q-4 -7 -10 -25t-11.5 -41.5t-9 -48.5t-3 -46t6.5 -34.5t20 -13.5q24 0 49 23.5t46.5 55t38 64t24.5 52.5q2 8 4 14t4 11q1 3 7.5 6t13.5 2.5t11 -5t1 -14.5q-2 -7 -8.5 -29.5t-13 -52t-12 -61.5t-6.5 -59t3.5 -44.5t17.5 -17.5
q25 0 48 24t42 56.5t33.5 65.5t22.5 51q-2 17 0.5 37t10.5 42q7 19 16.5 30t16 12.5t8.5 -9t-7 -34.5q-5 -13 -13.5 -33.5t-19.5 -46.5q3 -23 17 -42.5t40 -14.5q16 3 33.5 18t34.5 44zM392 229q-5 -14 -7.5 -27t-3.5 -24q8 18 14 33t9 25q6 18 6 22t-3 0.5t-7.5 -12.5
t-7.5 -17z" />
    <glyph glyph-name="x" unicode="x" horiz-adv-x="341" 
d="M351 151q-12 -20 -30 -49t-40.5 -55t-48.5 -44.5t-55 -17.5q-36 0 -55.5 19t-27.5 47q-31 -34 -58.5 -57t-42.5 -24l-1 11q14 1 40.5 24.5t57.5 58.5q-6 25 -6.5 52.5t0 50.5t-0.5 37.5t-7 14.5q-11 -2 -20.5 -10t-18 -18.5t-15.5 -21.5t-13 -19l-9 6q4 7 12.5 19.5
t19 24.5t22 21t22.5 9q18 0 26.5 -12t11.5 -31t3.5 -42.5t1.5 -47.5q19 23 37.5 46.5t33.5 44t25 36t13 22.5l10 -4q-3 -8 -14 -25t-27 -39t-36 -47.5t-41 -50.5q2 -34 13.5 -59t44.5 -25q27 0 51 17t44.5 41.5t37.5 52.5t30 50z" />
    <glyph glyph-name="y" unicode="y" horiz-adv-x="321" 
d="M330 151q-35 -58 -74.5 -91t-82.5 -59q-11 -32 -27.5 -75t-36.5 -88.5t-43.5 -90t-48.5 -79.5t-51 -57t-52 -22q-19 0 -28.5 9.5t-13 23.5t-2 30t4.5 29q13 52 38 97t59.5 83.5t75.5 70.5t85 58q13 40 27 82t25 84q-11 -20 -26.5 -46.5t-34.5 -51t-40.5 -41.5t-45.5 -17
q-22 0 -32.5 17.5t-13 43.5t1 56.5t11 56.5t16 43.5t16.5 17.5q23 0 21 -15q-1 -10 -7.5 -21.5t-10.5 -21.5q-9 -23 -17 -52t-10.5 -54.5t2.5 -42.5t23 -17q25 0 50 23.5t47 56.5t40 67.5t30 56.5q14 20 24 11t-1 -43q-9 -40 -22.5 -83.5t-26.5 -82.5q38 25 74 56.5t68 83.5
zM-87 -400q22 1 43.5 19.5t42 49t39.5 69.5t35.5 80.5t30 82l24.5 73.5q-42 -25 -80.5 -56t-70.5 -68.5t-55.5 -80.5t-35.5 -91q-2 -10 -4 -23.5t0 -25.5t9 -20.5t22 -8.5z" />
    <glyph glyph-name="z" unicode="z" horiz-adv-x="252" 
d="M262 151q-29 -51 -61 -84.5t-65 -56.5q16 -30 18.5 -65t-6.5 -70.5t-28 -68.5t-45.5 -59t-59.5 -41.5t-69 -15.5q-37 -2 -56.5 14.5t-25 42t2 55t24.5 53.5q20 29 48 50t58.5 38t62.5 33.5t61 36.5q-15 21 -40 31.5t-62 5.5q-8 -1 -8.5 5t8.5 12q17 12 36.5 22.5t38.5 22
t35.5 25t27.5 31.5q7 12 12.5 26t4.5 26t-9.5 20.5t-27.5 8.5q-22 0 -41 -8.5t-35 -22.5t-29 -31.5t-23 -36.5q0 -1 -5 1.5t-4 4.5q11 19 25 38t31.5 34t38 23.5t44.5 8.5q23 0 37 -11t20 -27t3.5 -35t-13.5 -37t-29 -30.5t-39 -21.5t-43 -17t-40 -18q33 1 56.5 -11
t38.5 -33q32 23 63 56t59 82zM-54 -299q34 1 65 15.5t56 39t43 56t26.5 65t7 66t-16.5 60.5q-28 -19 -59.5 -35t-62.5 -33.5t-58.5 -37.5t-46.5 -48q-15 -21 -22.5 -47t-3.5 -48.5t20.5 -37.5t51.5 -15z" />
    <glyph glyph-name="braceleft" unicode="{" horiz-adv-x="575" 
d="M515 876q3 0 2.5 -3.5t-2.5 -2.5q-5 0 -12 3t-15 6q-11 5 -22.5 10t-23 6t-22.5 -3t-20 -17q-15 -21 -25.5 -56t-21 -76t-21 -84.5t-25 -81.5t-34.5 -66t-47 -39q30 -15 31.5 -50t-13.5 -80t-41 -95t-51.5 -95.5t-44.5 -81.5t-19 -53q0 -12 2.5 -16.5t12.5 -4.5
q21 0 45 9t43 10q5 1 4.5 -3t-5.5 -4q-9 0 -20 -3.5l-22 -7t-23 -6t-22 -2.5q-13 0 -21.5 6t-8.5 21q0 16 17.5 52.5t41.5 82t49 96t39 95t12 78.5t-31 47q-17 8 -17.5 6.5t18.5 4.5q26 8 45.5 36t35 66t27.5 82.5t23 86t22.5 76.5t24.5 54q10 15 24.5 20.5t30 4t30.5 -6.5
t26 -11q8 -3 13.5 -5.5t10.5 -4.5z" />
    <glyph glyph-name="bar" unicode="|" horiz-adv-x="300" 
d="M158 841q-2 -211 -8.5 -423.5t-6.5 -414.5q0 -3 -5.5 -4t-12 -1t-12 1.5t-5.5 4.5q-1 105 1 210t4.5 210t5 209.5t3.5 209.5q0 3 5.5 4t12.5 0.5t12.5 -2t5.5 -4.5z" />
    <glyph glyph-name="braceright" unicode="}" horiz-adv-x="600" 
d="M78 -5q-3 0 -2.5 3.5t2.5 2.5q5 0 12 -3t15 -6q10 -5 22 -10t23.5 -6t22.5 3t20 17q14 21 25 56t21.5 76t21 84.5t25 81.5t34 66t47.5 39q-30 15 -31.5 50t13.5 80t41 95t51.5 95.5t44.5 81.5t19 53q0 12 -2.5 16.5t-12.5 4.5q-21 0 -45 -9t-43 -10q-5 -1 -4.5 3t5.5 4
q9 0 20 3.5l22 7t22.5 6t22.5 2.5q13 0 21.5 -6t8.5 -21q0 -17 -17.5 -53t-41.5 -81.5t-49 -96t-39 -95t-12 -78.5t31 -47q17 -8 17.5 -6.5t-18.5 -4.5q-26 -8 -45.5 -36t-35 -66t-27.5 -82.5t-23 -86t-22.5 -76.5t-24.5 -54q-11 -15 -25 -20.5t-29.5 -4t-30.5 6.5t-26 11
q-8 3 -13.5 5.5t-10.5 4.5z" />
    <glyph glyph-name="asciitilde" unicode="~" horiz-adv-x="423" 
d="M342 334q2 1 6 -2.5t0 -5.5q-44 -38 -72 -47.5t-47.5 -3.5t-33.5 19.5t-30 22.5t-37.5 5.5t-54.5 -32.5q-4 -4 -6 -3.5t-3 3t-0.5 5.5t2.5 5q37 30 60 34t40 -4.5t31 -22.5t32.5 -20.5t44.5 2t68 45.5z" />
    <glyph glyph-name="uni007F" 
 />
    <glyph glyph-name="exclamdown" unicode="&#xa1;" horiz-adv-x="411" 
d="M316 794q-14 2 -18 12t-1 20.5t11 18t20 5.5q14 -2 18.5 -12t2 -20.5t-11.5 -18t-21 -5.5zM175 -56q0 -4 -7.5 -4.5t-16.5 1t-16 4t-7 5.5q13 84 26.5 154t28 132t28.5 120t28 120t27 131.5t26 154.5q1 3 6.5 4t12 -0.5t11.5 -4.5t5 -6q-13 -85 -25.5 -154.5t-25 -131.5
t-25 -120t-25 -120t-25.5 -131.5t-26 -153.5z" />
    <glyph glyph-name="cent" unicode="&#xa2;" horiz-adv-x="245" 
d="M254 151q-15 -26 -37 -60t-49.5 -64t-58.5 -51t-63 -21q-34 0 -51 21.5t-20 53.5t6 69.5t27.5 69t44 52.5t56.5 21q29 0 48 -20.5t13 -62.5q-1 -9 -6.5 -7.5t-4.5 7.5q5 35 -10 53.5t-38 18.5q-22 0 -41 -19t-33 -48t-22 -63.5t-8 -64t10 -49.5t31 -21q29 -1 58.5 20
t55.5 51t47.5 63t34.5 56zM119 476v-159v-92v-46.5v-23t0.5 -22t0.5 -43v-86.5v-152q0 -6 -5.5 -8t-12 -1.5t-12 4t-5.5 8.5q0 100 -0.5 158t-0.5 89.5v43.5v20.5v21v43.5v89v158q0 6 5.5 8t12 1t12 -4t5.5 -7z" />
    <glyph glyph-name="sterling" unicode="&#xa3;" horiz-adv-x="813" 
d="M826 741q2 -9 -3 -14t-12 -6t-13 3t-6 13q0 8 6 13t14 4q-5 21 -16 40.5t-26.5 35.5t-35.5 25.5t-44 9.5q-37 0 -67.5 -18.5t-56.5 -51t-47.5 -76.5t-40.5 -96.5t-36 -110.5t-34 -117q35 0 69 -0.5t68 0.5q4 0 6.5 -4t2.5 -9.5t-2.5 -9.5t-6.5 -4h-144
q-19 -67 -39 -132.5t-43 -123.5t-50.5 -105t-60.5 -78q40 -17 82.5 -33t85.5 -18.5t85 17t82 73.5q3 5 8 5t8.5 -2t5 -6.5t-1.5 -8.5q-29 -39 -59.5 -60.5t-61 -29.5t-62 -4.5t-62 12.5t-61 22t-59.5 25q-43 -35 -98 -38q-24 0 -38.5 11.5t-17.5 26t7 26.5t37 13
q26 0 50.5 -6.5t50.5 -16.5q29 29 53 75t45 103t40 121.5t38 131.5q-33 -1 -65 -2t-64 -4q-2 0 -3 4t-1.5 9.5t0.5 9.5t3 4q33 3 67.5 4t69.5 1q26 91 54.5 178t65.5 154.5t85 108.5t113 41q27 1 50 -10.5t40.5 -30.5t29 -44t16.5 -50zM100 -105q44 1 80 34q-22 8 -44.5 14
t-46.5 6q-21 -2 -28.5 -9.5t-5 -16.5t14 -17.5t30.5 -10.5z" />
    <glyph glyph-name="currency" unicode="&#xa4;" horiz-adv-x="833" 
 />
    <glyph glyph-name="yen" unicode="&#xa5;" horiz-adv-x="1201" 
d="M1084 587q4 3 9.5 3t10 -2t7.5 -6t1 -10q-17 -56 -41 -125.5t-54 -144t-67 -151t-80 -148t-93 -134t-107.5 -109t-121.5 -73t-135 -26.5q-67 0 -113 29t-75 77q-63 -17 -107 -9.5t-71 31.5t-38 62t-8 82t20 91t45 90t67 78.5t87 56.5q16 43 37.5 80t47 64.5t54.5 44
t61 18.5q-1 45 18.5 95.5t52.5 93.5t75.5 71.5t88.5 28.5q50 0 71 -23.5t22.5 -62t-11.5 -87.5t-30 -100.5t-33.5 -101t-22.5 -88t4 -62.5t45 -24q39 -1 94 32.5t112 91.5q48 49 92 111t76 134q1 7 5 16q2 5 4 6v1zM413 -328q77 0 147 39.5t132 105.5t116 151t98.5 176.5
t80.5 181.5t62 166q-29 -52 -63.5 -97t-71.5 -83q-59 -60 -115.5 -94t-98.5 -33q-45 0 -62 24t-16 62.5t15 88t31 101t32 100.5t18.5 87.5t-10 62t-53.5 23.5q-44 0 -84.5 -27.5t-72 -69t-50 -90.5t-17.5 -91q30 -2 51.5 -18t35.5 -44q25 9 47.5 27t41 40.5t32.5 48.5t23 50
q-7 -1 -12.5 4t-5.5 12q0 8 5 12.5t13 4.5t13.5 -7t2.5 -15q-8 -28 -22.5 -57t-34.5 -54.5t-45 -45.5t-53 -30q20 -50 20.5 -110.5t-14.5 -123.5t-43.5 -124.5t-67 -113t-85 -89.5t-97.5 -53q28 -45 71 -71t106 -27zM229 241q-19 -50 -31 -110t-14 -122t8.5 -121.5
t37.5 -107.5q49 14 95 51t84 87.5t66.5 111t43 122.5t14 121t-20.5 107q-38 -10 -62.5 7t-29.5 57q-29 -2 -55.5 -16.5t-50 -39.5t-43.5 -59t-36 -74q6 2 14.5 5.5t18.5 6.5t19 5t15 2q8 0 12 -5t4 -11.5t-4 -11.5t-12 -5t-13.5 5t-3.5 13q-15 -4 -28.5 -8.5t-27.5 -9.5z
M215 234q-57 -27 -101 -77.5t-70 -108t-32 -114.5t13.5 -98.5t66.5 -60t127 1.5q-26 48 -37 106.5t-9.5 120t13 121t29.5 109.5zM432 444q4 -33 23.5 -47t51.5 -6q-12 24 -30.5 38t-44.5 15zM652 109q-2 0 -3.5 5.5t-2.5 11.5t0 11.5t4 5.5q103 8 208.5 7t208.5 1
q6 0 9 -5.5t3 -12t-2.5 -12t-8.5 -5.5q-103 0 -208.5 0.5t-207.5 -7.5zM1067 -39q6 0 9 -5.5t3 -11.5t-2.5 -11.5t-8.5 -5.5q-103 -1 -208.5 -0.5t-207.5 -7.5q-2 0 -3.5 5.5t-2.5 12t0 12t4 5.5q103 8 208.5 7t208.5 0z" />
    <glyph glyph-name="brokenbar" unicode="&#xa6;" horiz-adv-x="228" 
d="M134 232v-106v-57v-24.5v-8.5v-8.5v-24t0.5 -56.5t0.5 -106q0 -4 -5.5 -6t-12 -1.5t-12 2.5t-5.5 6q0 68 -0.5 106t-0.5 57v24.5v8.5v8.5v24v56.5v106q0 4 5.5 5.5t12 1t12 -2.5t5.5 -5zM140 637q0 -68 -0.5 -104t-0.5 -52t-0.5 -17.5t-0.5 0v0v-17v-51.5v-104
q0 -4 -5.5 -6t-12 -1.5t-12 2.5t-5.5 6v104v52v17.5v0t0.5 0t0.5 17t0.5 51.5t0.5 104q0 4 5.5 5.5t12 1t12 -2.5t5.5 -5z" />
    <glyph glyph-name="section" unicode="&#xa7;" horiz-adv-x="833" 
 />
    <glyph glyph-name="dieresis" unicode="&#xa8;" horiz-adv-x="268" 
d="M89 612q12 -1 17.5 -9t4.5 -17.5t-7.5 -17.5t-17.5 -8q-14 0 -19.5 8.5t-4.5 18.5t8 18t19 7zM160 618q13 -1 18 -9.5t4 -18t-7.5 -17.5t-17.5 -8q-14 0 -19.5 8.5t-4.5 18.5t8 18.5t19 7.5z" />
    <glyph glyph-name="copyright" unicode="&#xa9;" horiz-adv-x="542" 
d="M366 570q11 0 17.5 -6t8.5 -15t1.5 -18.5t-2.5 -17.5q-1 -5 -6 -5t-5 5q0 4 3 5.5t6 -0.5q1 7 1 15.5t-2 15.5t-7.5 12t-14.5 5q-22 0 -50 -27t-54 -67t-47 -87.5t-30.5 -87.5t-4.5 -67t32 -27q13 0 26.5 6.5t25.5 16t22.5 21t17.5 21.5q-5 2 -4.5 6.5t5.5 4.5q3 0 5 -3
t0 -5q-7 -12 -18 -24.5t-24 -23t-27.5 -17t-28.5 -6.5q-30 0 -37.5 27.5t0 68.5t28 89t47.5 89t57.5 68.5t58.5 27.5zM352 623q44 0 70 -20t37.5 -53t9 -75t-16.5 -85.5t-38 -86t-56 -76t-70 -55t-80 -22.5q-46 -2 -73.5 17.5t-39.5 52.5t-9.5 76t16.5 87.5t38.5 88t57.5 77
t72 54t82 20.5zM206 159q40 1 77 21t67.5 52.5t54 73t37.5 83t17 83t-7 72t-34.5 51t-65.5 19.5t-78 -20t-68.5 -52t-55.5 -73.5t-38 -84.5t-17 -84t7.5 -72.5t35.5 -50.5t68 -18z" />
    <glyph glyph-name="ordfeminine" unicode="&#xaa;" horiz-adv-x="326" 
d="M336 151q-11 -19 -26 -45t-33.5 -49.5t-40 -40t-45.5 -16.5q-25 0 -34.5 21.5t-7.5 53.5q-19 -29 -43 -51t-56 -22q-30 0 -46.5 17.5t-21 43.5t2.5 56t24 56t42 43t58 17q22 0 38.5 -12t21.5 -36q5 14 9 24.5t8 17.5q3 6 9.5 6t12.5 -2t10 -6t3 -7q-3 -6 -11 -23.5
t-16.5 -41t-16 -49t-9.5 -46.5t2.5 -35t20.5 -14q22 0 42 16t37.5 39t31.5 48t24 42zM159 148q-2 1 0 3q5 35 -10 53.5t-38 19.5t-41.5 -14.5t-31 -39t-19 -51t-5 -51t11 -39t29.5 -15.5q13 0 26.5 8t25.5 20.5t23 28t20 30.5q3 25 9 47z" />
    <glyph glyph-name="guillemotleft" unicode="&#xab;" horiz-adv-x="614" 
d="M114 350q2 -53 4 -86t4 -55.5t4.5 -39.5t6.5 -39t9 -54t13 -83q2 -12 -0.5 -18.5t-7 -7t-9.5 5.5t-7 18q-8 50 -14 82t-10.5 55.5t-8.5 42.5t-7.5 43t-6 56.5t-4.5 83.5q25 60 44.5 104.5t37 81t34.5 68.5t36 68t42.5 78.5t53.5 100.5q3 6 12 3t5 -11q-30 -57 -52 -99.5
t-39 -77.5t-32 -67t-31 -68.5t-34.5 -80.5t-42.5 -104zM512 855q3 6 12 3t5 -11q-30 -57 -52 -99.5t-39.5 -77.5t-32 -67t-30.5 -68.5t-34.5 -80.5t-42.5 -104q3 -53 4.5 -86t3.5 -55.5t4.5 -39.5t6.5 -39t9 -54t13 -83q2 -12 -0.5 -18.5t-7 -7t-9.5 5.5t-7 18q-8 50 -14 82
t-10.5 55.5t-8.5 42.5t-7.5 43t-6 56.5t-4.5 83.5q25 60 44.5 104.5t37 81t34.5 68.5t36 68t42.5 78.5t53.5 100.5z" />
    <glyph glyph-name="logicalnot" unicode="&#xac;" horiz-adv-x="904" 
d="M604 406q3 -38 4 -66t1.5 -54.5t0.5 -55v-66.5q0 -4 -4 -6.5t-9.5 -2.5t-9.5 2t-4 7v61.5v49t-1 49t-3 61.5q-70 0 -130 0.5t-117.5 0t-117 -1.5t-128.5 -4q-3 0 -5 4t-3 9.5t0.5 9.5t5.5 4q70 3 131 4t120.5 1t120.5 -0.5t132 -0.5q2 0 8.5 -1t7.5 -4z" />
    <glyph glyph-name="uni00AD" unicode="&#xad;" horiz-adv-x="321" 
d="M40 229v78h242v-78h-242z" />
    <glyph glyph-name="registered" unicode="&#xae;" horiz-adv-x="802" 
d="M394 648q63 0 101 -31.5t54 -82.5t12 -116.5t-24 -134t-54.5 -134.5t-80.5 -118t-101 -85t-116 -36q-66 -3 -106 27.5t-57.5 82t-14 118t24 136.5t56.5 137t83 120t104 85t119 32zM181 -75q58 2 111.5 33t98 81.5t78.5 113.5t54 129t24.5 129.5t-10 112.5t-49.5 79.5
t-94 30.5t-113 -31t-99.5 -81.5t-80 -114.5t-55 -131t-25 -131t10.5 -113.5t51.5 -79t97.5 -27.5zM435 497q19 -1 23.5 -13.5t1 -28.5t-11 -32t-13.5 -25q-13 -21 -29.5 -42t-34.5 -39t-35 -31t-31 -19q1 -43 3.5 -71t10.5 -49q7 -23 19.5 -43.5t32.5 -49.5l-10 -8
q-21 29 -34 50t-21 46q-8 22 -11 50.5t-4 70.5q-12 0 -13.5 9t3 17t12 8.5t12.5 -15.5q12 6 28 18.5t32 30t31.5 37t27.5 38.5q3 4 9.5 16.5t10.5 25.5t3 23.5t-14 11.5q-23 2 -50 -22.5t-53 -62.5q-27 -38 -51 -81t-41 -76q-26 -52 -57 -88t-67 -36v14q36 5 65 41.5
t52 84.5t39.5 97t27.5 79q5 17 12 36t19 34q5 6 8.5 5.5t5.5 -4t1.5 -9t-3.5 -9.5l-5 3q-4 -5 -9.5 -18t-15.5 -43q-6 -16 -12 -33.5t-13 -36.5q8 13 16.5 25t16.5 24q28 39 57.5 65.5t58.5 24.5zM291 274q3 0 3.5 5t-3.5 5q-5 0 -5 -5t5 -5z" />
    <glyph glyph-name="macron" unicode="&#xaf;" horiz-adv-x="339" 
d="M316 280q6 0 9 -5.5t3 -11.5t-2.5 -11.5t-8.5 -5.5h-57h-40.5h-31.5h-31.5t-40 -0.5t-55.5 -0.5q-2 0 -3.5 5t-2.5 11.5t0 12t4 5.5q51 1 78.5 1h50h50h78.5z" />
    <glyph glyph-name="degree" unicode="&#xb0;" horiz-adv-x="833" 
 />
    <glyph glyph-name="plusminus" unicode="&#xb1;" horiz-adv-x="833" 
d="M396 298q9 0 13.5 -5.5t4.5 -11.5t-4 -11.5t-13 -5.5h-49.5h-25t-25.5 -0.5t-50 -0.5q-1 -38 -1 -55t0.5 -30t0.5 -29.5v-52.5q0 -9 -5.5 -13t-12 -3.5t-12 5t-5.5 13.5v51.5v29.5v30.5t1 53.5h-39.5h-24t-16 -0.5t-15.5 -1t-23 -1.5t-38 -2q-3 0 -5.5 5.5t-3 11.5
t0.5 11.5t5 5.5q37 2 52.5 3t27 1.5t27.5 0.5h54q1 36 1.5 52.5t0.5 28.5v28t1 52q0 3 5.5 5t11.5 2.5t11.5 -1.5t5.5 -6q0 -36 -0.5 -51.5t-0.5 -27.5t-0.5 -28.5t-1.5 -53.5h49.5t25 0.5t24.5 0.5h48zM409 43q6 0 9 -5.5t3 -11.5t-2.5 -11.5t-8.5 -5.5h-94t-84 -0.5
t-83 -2t-93 -5.5q-2 0 -3.5 5t-2.5 11.5t0 12t4 5.5q51 4 93.5 5.5t84 2t84 0.5h93.5z" />
    <glyph glyph-name="twosuperior" unicode="&#xb2;" horiz-adv-x="806" 
d="M445 362q10 0 6 -8q-11 -24 -28.5 -31.5t-38.5 -5t-43.5 11t-41.5 16.5q-23 -23 -48 -35.5t-53 -12.5q-23 0 -35 11.5t-11.5 26t13.5 26.5t41 13q20 1 41 -6t44 -16q39 44 64.5 95t30.5 94.5t-14 72t-69 28.5q-32 0 -57 -15t-42 -37.5t-27 -50t-11 -52.5q9 2 10 -4.5
t-7 -6.5q-2 0 -5 1.5t-2 4.5q1 26 10.5 55.5t27 54t43.5 40t60 15.5q60 0 84 -30t20 -75t-31.5 -97t-72.5 -97q17 -7 37 -15t39.5 -11t36.5 2.5t28 25.5q-7 0 -7 6t8 6zM198 301q26 0 47.5 13t41.5 35q-23 9 -42.5 15t-38.5 6q-26 -1 -38 -12t-12 -23.5t10.5 -23t31.5 -10.5
z" />
    <glyph glyph-name="threesuperior" unicode="&#xb3;" horiz-adv-x="845" 
d="M315 473q39 -6 59.5 -24t25 -42.5t-5.5 -51t-32.5 -49t-56.5 -37t-77 -14.5q-33 0 -54 14.5t-31.5 36.5t-11 47.5t8 47t24.5 35.5t40 14q7 0 7 -7q0 -8 -7.5 -7.5t-5.5 8.5q-21 -1 -35 -15t-21 -34.5t-6 -43.5t11.5 -42.5t30.5 -32.5t51 -13q36 0 65 15.5t48 38.5
t27 49.5t2.5 49.5t-25.5 38.5t-56 16.5q-2 0 -3 2.5t3 2.5q33 0 57 12.5t37.5 31.5t17.5 41.5t-1.5 41.5t-20.5 32t-39 14q-17 0 -33 -5.5t-29.5 -16.5t-22.5 -27t-10 -35q0 -11 3.5 -21.5t14.5 -14.5q0 8 6.5 8.5t6.5 -7.5q0 -7 -7 -7q-15 1 -22 14t-6 28q1 21 10 37.5
t23 28t31.5 17.5t34.5 6q31 0 50.5 -12t28 -30t5.5 -40t-16 -42t-37 -35.5t-57 -21.5z" />
    <glyph glyph-name="acute" unicode="&#xb4;" horiz-adv-x="338" 
d="M162 699q2 4 8.5 2t13 -6.5t11 -9.5t3.5 -8q-18 -28 -35.5 -55.5t-34.5 -55.5q-2 -3 -8.5 -1t-13.5 6.5t-11.5 9t-2.5 7.5q17 28 34.5 55.5t35.5 55.5z" />
    <glyph glyph-name="mu" unicode="&#xb5;" horiz-adv-x="833" 
 />
    <glyph glyph-name="paragraph" unicode="&#xb6;" horiz-adv-x="654" 
d="M549 -127h-58v831h-102v-831h-58v400q-30 -9 -71 -9q-105 0 -155 61t-50 184q0 127 53.5 189t166.5 62h274v-887z" />
    <glyph glyph-name="periodcentered" unicode="&#xb7;" horiz-adv-x="833" 
 />
    <glyph glyph-name="cedilla" unicode="&#xb8;" horiz-adv-x="293" 
d="M106 -5q-1 -21 5.5 -33t17.5 -19.5t24 -12t24 -10.5t17.5 -16t5.5 -28q-2 -23 -14.5 -37t-30.5 -19t-38 -1t-36 18q-8 7 -7.5 10t11.5 -6q14 -13 30.5 -16.5t31 1t24.5 17.5t12 34q1 16 -5.5 25.5t-17 15.5t-23.5 11t-23.5 12.5t-17.5 20t-6 33.5q0 5 8 3.5t8 -3.5z" />
    <glyph glyph-name="onesuperior" unicode="&#xb9;" horiz-adv-x="638" 
d="M273 325q2 0 2 -2t-2 -2h-36q-3 0 -3 2t3 2h9q5 15 14 40t19.5 54.5t22 61t21.5 59.5t17.5 50.5t10.5 33.5q-12 -5 -24 -15t-22 -22.5t-17.5 -26t-10.5 -25.5q6 0 6.5 -6t-5.5 -6t-6 7q2 14 10.5 29.5t19.5 29.5t24.5 24.5t25.5 14.5q2 1 8.5 1.5t6.5 -2.5
q0 -4 -5.5 -23.5t-15 -47t-21 -60.5t-22.5 -65t-21.5 -60t-16.5 -46h8v0z" />
    <glyph glyph-name="ordmasculine" unicode="&#xba;" horiz-adv-x="264" 
d="M274 151q-9 -16 -24 -37.5t-33 -41.5t-38.5 -34.5t-39.5 -14.5q-16 0 -28 6q-11 -11 -24 -19t-30 -8q-34 0 -52.5 17.5t-23 43.5t3 56t25 56t43 43t56.5 17q29 0 48 -20.5t13 -63.5q0 -1 -1 -2q1 -14 -3 -29t-11 -30t-16.5 -28.5t-18.5 -23.5q10 -4 19 -4q17 0 36 14
t36 33t31 40t22 35zM58 14q12 0 23.5 7t20.5 15q-15 14 -18.5 38.5t2 48t19 40.5t32.5 17q14 0 22 -8q-2 25 -15.5 38t-33.5 14q-22 0 -40.5 -15.5t-31.5 -39t-19.5 -51t-5 -51t12 -39t32.5 -14.5zM110 44q17 17 31.5 44t16.5 52q1 12 -3 20t-18 9q-15 0 -25.5 -15t-15 -36
t-1.5 -42t15 -32z" />
    <glyph glyph-name="guillemotright" unicode="&#xbb;" horiz-adv-x="718" 
d="M501 471q-2 53 -4 86t-4 55.5t-4.5 39.5t-6.5 39t-9 53.5t-13 83.5q-2 12 0.5 18.5t7 7t9.5 -5.5t7 -18q7 -50 13.5 -82t11 -55.5t8.5 -42.5t7.5 -43t6 -56.5t4.5 -83.5q-25 -60 -44.5 -104.5t-37 -81t-34.5 -68.5t-36 -68t-42.5 -78.5t-53.5 -100.5q-2 -3 -5.5 -3.5
t-7 0.5t-5 4t0.5 7q30 57 52 99.5t39 77.5t32 67t31 68.5t34 80.5t43 104zM103 -34q-2 -3 -5.5 -3.5t-7 0.5t-5 4t0.5 7q30 57 52 99.5t39 77.5t32 67t31 68.5t34 80.5t43 104q-3 53 -4.5 86t-3.5 55.5t-4.5 39.5t-6.5 39t-9 53.5t-13 83.5q-2 12 0.5 18.5t7 7t9.5 -5.5
t7 -18q8 -50 14 -82t10.5 -55.5t8.5 -42.5t7.5 -43t6 -56.5t4.5 -83.5q-25 -60 -44.5 -104.5t-37 -81t-34.5 -68.5t-36 -68t-42.5 -78.5t-53.5 -100.5z" />
    <glyph glyph-name="onequarter" unicode="&#xbc;" horiz-adv-x="685" 
d="M382 846q1 3 5.5 3.5t8.5 -1.5t7 -5t2 -6q-29 -87 -55 -161t-50 -142.5t-47.5 -134t-48 -134t-50 -143t-54.5 -160.5q-1 -4 -5 -4t-8.5 1.5t-7.5 5t-2 6.5q29 86 54.5 160.5t50 143t48 134t47.5 134t50 142.5t55 161zM559 204q7 0 7 -7v-2q-6 -23 -34.5 -35.5
t-68.5 -19.5l-50 -118h9q2 0 2.5 -2.5t-1.5 -2.5h-36q-4 0 -3.5 2.5t3.5 2.5h11l48 115q-19 -3 -39 -4.5t-40 -3.5q-31 -3 -59.5 -6.5t-50.5 -9.5q-7 -4 -13.5 -7t-12.5 -6q-8 -2 -10 -2h-2q-2 0 -2 2q0 1 1 2q14 9 37 15q30 20 60 53.5t58 73.5q25 34 46.5 71t39 70t29 60
t15.5 43h-1q-7 0 -7 7q0 6 7 6q8 0 8 -6q0 -1 -1 -2q-3 -14 -14.5 -41.5t-29 -62t-40 -73t-48.5 -74.5q-26 -38 -54 -69.5t-56 -51.5q21 4 47 6.5t53 5.5l81 8q21 49 45.5 105.5t46 107t37 89t19.5 51.5q2 8 8.5 6.5t6.5 -3.5q0 -5 -14 -41t-36 -88t-47.5 -111.5
t-48.5 -111.5q35 6 60.5 16.5t33.5 29.5q-7 0 -7 6q0 7 7 7zM92 357q2 0 2 -2t-2 -2h-35q-4 0 -3.5 2t3.5 2h11q6 17 21.5 54.5t36.5 86t44 102t43 100t34 82t18 47.5q-14 -5 -31.5 -21t-34.5 -35.5t-30 -39.5t-17 -33q8 1 9 -6t-7 -7q-7 0 -7 8q3 15 16.5 37t31.5 43
t37.5 37.5t34.5 21.5q2 0 8 1t6 -3q0 -5 -12.5 -36.5t-32 -78t-43 -101t-45.5 -106t-40 -93t-26 -60.5h10zM230 104h2q1 0 1 1q0 -1 -1 -1h-2z" />
    <glyph glyph-name="onehalf" unicode="&#xbd;" horiz-adv-x="806" 
d="M634 54q10 0 7 -8q-10 -23 -27.5 -29.5t-37.5 -4.5t-41.5 10t-39.5 15q-22 -20 -46.5 -32t-50.5 -12q-22 0 -33.5 11t-11.5 24.5t13 25t40 12.5q19 0 40.5 -7t44.5 -15q26 28 47 66.5t34 80.5t17.5 83t-2.5 73.5t-26 52.5t-52 20q-30 0 -54 -14t-40.5 -35t-26 -46.5
t-10.5 -48.5q8 2 8.5 -5t-7.5 -7q-5 0 -5 6q0 25 9.5 52.5t26.5 50.5t42.5 38.5t57.5 15.5q38 0 60 -21t30 -54.5t4 -75.5t-18 -85t-36.5 -83t-51.5 -68q16 -6 35.5 -13.5t38.5 -10t35.5 2.5t26.5 24q-7 1 -7 6t7 5zM398 -4q24 0 46.5 12t42.5 32q-22 9 -42.5 15.5
t-38.5 6.5q-25 -1 -36.5 -11.5t-12 -22.5t10 -22t30.5 -10zM469 844q1 3 5 3t8.5 -1.5t7.5 -4t2 -5.5q-86 -234 -175.5 -463t-175.5 -462q-1 -3 -5 -3.5t-8 1t-7 4.5t-2 6q85 233 174.5 462t175.5 463zM132 406q1 0 1 -1.5t-1 -1.5h-35q-4 0 -3.5 1.5t3.5 1.5h11
q6 15 21.5 49t36 77.5t43 91t42 89.5t33.5 73.5t17 42.5q-13 -5 -30.5 -19t-34 -31.5t-29.5 -35.5t-16 -30q8 1 9 -5.5t-7 -6.5q-9 0 -7 7q3 14 16 33.5t30.5 38.5t36.5 34t34 19q2 0 7.5 1t5.5 -3t-12 -32t-31 -69.5t-42 -90.5t-44.5 -95t-39 -83.5t-25.5 -54.5h10z" />
    <glyph glyph-name="threequarters" unicode="&#xbe;" horiz-adv-x="745" 
d="M623 240q6 0 6 -6v-2q-5 -21 -29.5 -32.5t-58.5 -17.5q-14 -35 -26 -64t-17 -43h8q2 0 2 -2t-2 -2h-30q-2 0 -2 2t2 2h9q5 13 16 41t25 64q-16 -3 -32.5 -4.5t-33.5 -3.5q-27 -3 -51.5 -6t-44.5 -8q-5 -4 -11 -7t-11 -5q-6 -2 -8 -2h-2q-3 0 -1 2v2q10 8 32 14
q26 17 51.5 47.5t50.5 67.5q21 31 39.5 64t33 63t24.5 54.5t14 39.5h-1q-7 0 -7 6t7 6q6 0 6 -6v-1q-3 -13 -12.5 -38t-24.5 -56.5t-35 -66.5t-42 -68q-22 -34 -46 -62.5t-48 -46.5q18 4 40 6.5t46 4.5q18 2 35 4l34 4q18 45 39 96t39 96.5t31.5 80t16.5 46.5q3 8 8 6.5
t5 -3.5q0 -5 -12 -37.5t-30.5 -79.5t-40.5 -101t-41 -101q30 5 51.5 14.5t29.5 26.5h-1q-6 0 -6 6t6 6zM342 150q2 1 2.5 1t2.5 1q-2 -1 -2.5 -1t-2.5 -1zM245 687q41 -5 62 -23.5t25 -43t-8 -51.5t-36.5 -50t-60 -38t-78.5 -15q-31 0 -51 10.5t-30 26t-10.5 34t7.5 34
t23.5 25.5t37.5 10q6 0 6 -5q0 -6 -7 -5.5t-5 6.5q-30 -2 -45.5 -22.5t-13.5 -45.5t23 -45t65 -20q42 0 76 16t56.5 39.5t33 51.5t4.5 52t-29.5 40t-67.5 17q-3 1 -3.5 2.5t2.5 1.5q51 1 81.5 24.5t38.5 51.5t-7 51t-55 23q-15 0 -30.5 -4.5t-28.5 -12.5t-21 -19.5t-9 -25.5
q-1 -8 3 -16t14 -11q0 7 6 7t6 -5q0 -6 -7 -6q-14 1 -20 10.5t-6 20.5q1 15 9.5 27.5t22 21t29.5 13t32 4.5q30 0 48 -10.5t25 -26.5t3 -35t-17.5 -36t-37 -30.5t-55.5 -17.5zM488 878q1 4 6 4.5t10.5 -2t9 -6t2.5 -7.5q-35 -107 -61 -184t-47 -138.5t-40 -115.5t-40 -115.5
t-46.5 -138.5t-59.5 -184q-2 -5 -6.5 -5t-10 2t-9 6t-1.5 9q34 107 59.5 184t46.5 138.5t40 115.5t40 115.5t46.5 138t60.5 183.5z" />
    <glyph glyph-name="questiondown" unicode="&#xbf;" horiz-adv-x="434" 
d="M294 330v-26q0 -57 -18 -93.5t-67 -77.5q-65 -54 -82 -81t-17 -68q0 -47 31 -73.5t89 -26.5q78 0 161 43l31 -71q-97 -48 -195 -48q-95 0 -148.5 45.5t-53.5 128.5q0 36 9.5 63.5t29.5 52.5t79 75q50 44 65 71t15 70v16h71zM317 478q0 -67 -62 -67q-30 0 -45.5 17.5
t-15.5 49.5q0 36 17.5 52t43.5 16t44 -16t18 -52z" />
    <glyph glyph-name="Agrave" unicode="&#xc0;" horiz-adv-x="1323" 
d="M1396 649q17 0 17 -16q0 -7 -5 -12t-12 -5q-11 0 -16 10q-47 -41 -83 -90.5t-65 -104t-53.5 -112.5t-48.5 -116q39 11 71.5 29.5t55.5 46.5q-12 3 -12 16q0 7 5 12t12 5q8 0 13 -5t5 -12q0 -4 -4 -10q-26 -37 -64.5 -60t-86.5 -35q-26 -62 -53 -122t-60 -114t-75 -100.5
t-97 -81.5q-5 -3 -10 -3q-17 0 -17 17q0 16 17 16q13 0 16 -12q41 30 73.5 72t60.5 93t53 108.5t51 118.5q-49 -8 -103.5 -8t-112.5 5q-22 -32 -52.5 -80.5t-67.5 -102.5t-79 -108t-86 -97t-89.5 -69.5t-88.5 -26.5q-46 1 -83 30t-53 89q0 3 -2 9q-14 -2 -29 -3.5t-31 -1.5
q-74 -1 -121.5 32.5t-68.5 83.5q-19 45 -17 93q2 50 21 95q14 31 37 59t54.5 49t71.5 33t89 12q26 0 58 -3q22 49 49.5 91.5t59.5 74t68 49.5t74 19q45 1 73 -21.5t41 -60.5q15 -50 6 -117q-6 -45 -21 -91q39 -7 78 -12t77 -10q53 77 112 150t124.5 133.5t137.5 103
t152 58.5q19 8 30 10h3h1zM582 494q-36 0 -70 -17.5t-64.5 -47.5t-57 -70.5t-47.5 -87.5q51 -5 109 -15t121 -21q23 -4 47.5 -8t49.5 -9q8 23 13 46t8 44q9 66 -6 112q-11 35 -36.5 55t-66.5 19zM207 -171q15 0 29.5 1.5t28.5 3.5q-7 31 -9 65.5t0 70.5q3 43 10.5 87
t19.5 88q8 30 18 59t22 57q-29 3 -53 3q-47 0 -85.5 -11.5t-68.5 -31.5t-52 -46.5t-35 -56.5q-10 -22 -15 -45t-6 -46q0 -49 16 -88q20 -48 64.5 -79.5t115.5 -30.5zM268 -30q-4 -72 8 -134q67 12 125 45t105.5 78.5t84.5 100.5t61 111q4 9 7.5 18t6.5 18q-24 5 -48 9t-47 8
q-64 12 -123 21.5t-110 14.5q-25 -57 -41 -118q-24 -87 -29 -172zM399 -293q36 0 77 27t82.5 70.5t82 97.5t76 107t64.5 99.5t48 74.5q-38 5 -76 10.5t-76 11.5q-7 -20 -15 -38q-24 -57 -61.5 -113t-86.5 -102.5t-108.5 -80t-127.5 -46.5q2 -6 2 -8q15 -56 47 -83t72 -27z
M1089 194q25 58 52 116.5t60 114t73 107t90 95.5q-77 -21 -144.5 -65t-128 -102.5t-114 -128t-102.5 -141.5q58 -5 112 -4.5t102 8.5zM1175 704q3 -4 0 -8t-7.5 -6.5t-9 -2.5t-6.5 4q-12 23 -17.5 35t-9 19l-5.5 11t-6 10.5t-11 17.5t-20 33q-1 1 2 4t7.5 5.5t8.5 4t6 -0.5
q19 -32 26 -43t10.5 -18t9 -19t22.5 -46z" />
    <glyph glyph-name="Aacute" unicode="&#xc1;" horiz-adv-x="1323" 
d="M1396 649q17 0 17 -16q0 -7 -5 -12t-12 -5q-11 0 -16 10q-47 -41 -83 -90.5t-65 -104t-53.5 -112.5t-48.5 -116q39 11 71.5 29.5t55.5 46.5q-12 3 -12 16q0 7 5 12t12 5q8 0 13 -5t5 -12q0 -4 -4 -10q-26 -37 -64.5 -60t-86.5 -35q-26 -62 -53 -122t-60 -114t-75 -100.5
t-97 -81.5q-5 -3 -10 -3q-17 0 -17 17q0 16 17 16q13 0 16 -12q41 30 73.5 72t60.5 93t53 108.5t51 118.5q-49 -8 -103.5 -8t-112.5 5q-22 -32 -52.5 -80.5t-67.5 -102.5t-79 -108t-86 -97t-89.5 -69.5t-88.5 -26.5q-46 1 -83 30t-53 89q0 3 -2 9q-14 -2 -29 -3.5t-31 -1.5
q-74 -1 -121.5 32.5t-68.5 83.5q-19 45 -17 93q2 50 21 95q14 31 37 59t54.5 49t71.5 33t89 12q26 0 58 -3q22 49 49.5 91.5t59.5 74t68 49.5t74 19q45 1 73 -21.5t41 -60.5q15 -50 6 -117q-6 -45 -21 -91q39 -7 78 -12t77 -10q53 77 112 150t124.5 133.5t137.5 103
t152 58.5q19 8 30 10h3h1zM582 494q-36 0 -70 -17.5t-64.5 -47.5t-57 -70.5t-47.5 -87.5q51 -5 109 -15t121 -21q23 -4 47.5 -8t49.5 -9q8 23 13 46t8 44q9 66 -6 112q-11 35 -36.5 55t-66.5 19zM207 -171q15 0 29.5 1.5t28.5 3.5q-7 31 -9 65.5t0 70.5q3 43 10.5 87
t19.5 88q8 30 18 59t22 57q-29 3 -53 3q-47 0 -85.5 -11.5t-68.5 -31.5t-52 -46.5t-35 -56.5q-10 -22 -15 -45t-6 -46q0 -49 16 -88q20 -48 64.5 -79.5t115.5 -30.5zM268 -30q-4 -72 8 -134q67 12 125 45t105.5 78.5t84.5 100.5t61 111q4 9 7.5 18t6.5 18q-24 5 -48 9t-47 8
q-64 12 -123 21.5t-110 14.5q-25 -57 -41 -118q-24 -87 -29 -172zM399 -293q36 0 77 27t82.5 70.5t82 97.5t76 107t64.5 99.5t48 74.5q-38 5 -76 10.5t-76 11.5q-7 -20 -15 -38q-24 -57 -61.5 -113t-86.5 -102.5t-108.5 -80t-127.5 -46.5q2 -6 2 -8q15 -56 47 -83t72 -27z
M1089 194q25 58 52 116.5t60 114t73 107t90 95.5q-77 -21 -144.5 -65t-128 -102.5t-114 -128t-102.5 -141.5q58 -5 112 -4.5t102 8.5zM1276 840q2 4 8.5 2t13 -6.5t11 -9.5t3.5 -8q-18 -28 -35.5 -55.5t-34.5 -55.5q-2 -3 -8.5 -1t-13.5 6.5t-11.5 9t-2.5 7.5
q17 28 34.5 55.5t35.5 55.5z" />
    <glyph glyph-name="Acircumflex" unicode="&#xc2;" horiz-adv-x="1323" 
d="M1396 649q17 0 17 -16q0 -7 -5 -12t-12 -5q-11 0 -16 10q-47 -41 -83 -90.5t-65 -104t-53.5 -112.5t-48.5 -116q39 11 71.5 29.5t55.5 46.5q-12 3 -12 16q0 7 5 12t12 5q8 0 13 -5t5 -12q0 -4 -4 -10q-26 -37 -64.5 -60t-86.5 -35q-26 -62 -53 -122t-60 -114t-75 -100.5
t-97 -81.5q-5 -3 -10 -3q-17 0 -17 17q0 16 17 16q13 0 16 -12q41 30 73.5 72t60.5 93t53 108.5t51 118.5q-49 -8 -103.5 -8t-112.5 5q-22 -32 -52.5 -80.5t-67.5 -102.5t-79 -108t-86 -97t-89.5 -69.5t-88.5 -26.5q-46 1 -83 30t-53 89q0 3 -2 9q-14 -2 -29 -3.5t-31 -1.5
q-74 -1 -121.5 32.5t-68.5 83.5q-19 45 -17 93q2 50 21 95q14 31 37 59t54.5 49t71.5 33t89 12q26 0 58 -3q22 49 49.5 91.5t59.5 74t68 49.5t74 19q45 1 73 -21.5t41 -60.5q15 -50 6 -117q-6 -45 -21 -91q39 -7 78 -12t77 -10q53 77 112 150t124.5 133.5t137.5 103
t152 58.5q19 8 30 10h3h1zM582 494q-36 0 -70 -17.5t-64.5 -47.5t-57 -70.5t-47.5 -87.5q51 -5 109 -15t121 -21q23 -4 47.5 -8t49.5 -9q8 23 13 46t8 44q9 66 -6 112q-11 35 -36.5 55t-66.5 19zM207 -171q15 0 29.5 1.5t28.5 3.5q-7 31 -9 65.5t0 70.5q3 43 10.5 87
t19.5 88q8 30 18 59t22 57q-29 3 -53 3q-47 0 -85.5 -11.5t-68.5 -31.5t-52 -46.5t-35 -56.5q-10 -22 -15 -45t-6 -46q0 -49 16 -88q20 -48 64.5 -79.5t115.5 -30.5zM268 -30q-4 -72 8 -134q67 12 125 45t105.5 78.5t84.5 100.5t61 111q4 9 7.5 18t6.5 18q-24 5 -48 9t-47 8
q-64 12 -123 21.5t-110 14.5q-25 -57 -41 -118q-24 -87 -29 -172zM399 -293q36 0 77 27t82.5 70.5t82 97.5t76 107t64.5 99.5t48 74.5q-38 5 -76 10.5t-76 11.5q-7 -20 -15 -38q-24 -57 -61.5 -113t-86.5 -102.5t-108.5 -80t-127.5 -46.5q2 -6 2 -8q15 -56 47 -83t72 -27z
M1089 194q25 58 52 116.5t60 114t73 107t90 95.5q-77 -21 -144.5 -65t-128 -102.5t-114 -128t-102.5 -141.5q58 -5 112 -4.5t102 8.5zM1422 712q6 -5 0 -11.5t-11 -2.5q-36 29 -67.5 64.5t-63.5 70.5q-36 -35 -66.5 -68.5t-65.5 -68.5q-5 -5 -10 -5.5t-7.5 2.5t-2 8t5.5 10
q36 35 72 69.5t72 69.5q3 3 3.5 3t3.5 -3q34 -34 66.5 -71.5t70.5 -66.5z" />
    <glyph glyph-name="Atilde" unicode="&#xc3;" horiz-adv-x="1323" 
d="M1396 649q17 0 17 -16q0 -7 -5 -12t-12 -5q-11 0 -16 10q-47 -41 -83 -90.5t-65 -104t-53.5 -112.5t-48.5 -116q39 11 71.5 29.5t55.5 46.5q-12 3 -12 16q0 7 5 12t12 5q8 0 13 -5t5 -12q0 -4 -4 -10q-26 -37 -64.5 -60t-86.5 -35q-26 -62 -53 -122t-60 -114t-75 -100.5
t-97 -81.5q-5 -3 -10 -3q-17 0 -17 17q0 16 17 16q13 0 16 -12q41 30 73.5 72t60.5 93t53 108.5t51 118.5q-49 -8 -103.5 -8t-112.5 5q-22 -32 -52.5 -80.5t-67.5 -102.5t-79 -108t-86 -97t-89.5 -69.5t-88.5 -26.5q-46 1 -83 30t-53 89q0 3 -2 9q-14 -2 -29 -3.5t-31 -1.5
q-74 -1 -121.5 32.5t-68.5 83.5q-19 45 -17 93q2 50 21 95q14 31 37 59t54.5 49t71.5 33t89 12q26 0 58 -3q22 49 49.5 91.5t59.5 74t68 49.5t74 19q45 1 73 -21.5t41 -60.5q15 -50 6 -117q-6 -45 -21 -91q39 -7 78 -12t77 -10q53 77 112 150t124.5 133.5t137.5 103
t152 58.5q19 8 30 10h3h1zM582 494q-36 0 -70 -17.5t-64.5 -47.5t-57 -70.5t-47.5 -87.5q51 -5 109 -15t121 -21q23 -4 47.5 -8t49.5 -9q8 23 13 46t8 44q9 66 -6 112q-11 35 -36.5 55t-66.5 19zM207 -171q15 0 29.5 1.5t28.5 3.5q-7 31 -9 65.5t0 70.5q3 43 10.5 87
t19.5 88q8 30 18 59t22 57q-29 3 -53 3q-47 0 -85.5 -11.5t-68.5 -31.5t-52 -46.5t-35 -56.5q-10 -22 -15 -45t-6 -46q0 -49 16 -88q20 -48 64.5 -79.5t115.5 -30.5zM268 -30q-4 -72 8 -134q67 12 125 45t105.5 78.5t84.5 100.5t61 111q4 9 7.5 18t6.5 18q-24 5 -48 9t-47 8
q-64 12 -123 21.5t-110 14.5q-25 -57 -41 -118q-24 -87 -29 -172zM399 -293q36 0 77 27t82.5 70.5t82 97.5t76 107t64.5 99.5t48 74.5q-38 5 -76 10.5t-76 11.5q-7 -20 -15 -38q-24 -57 -61.5 -113t-86.5 -102.5t-108.5 -80t-127.5 -46.5q2 -6 2 -8q15 -56 47 -83t72 -27z
M1089 194q25 58 52 116.5t60 114t73 107t90 95.5q-77 -21 -144.5 -65t-128 -102.5t-114 -128t-102.5 -141.5q58 -5 112 -4.5t102 8.5zM1409 755q10 8 17 8.5t9.5 -3.5t0.5 -10t-10 -12q-52 -38 -88.5 -52.5t-62.5 -13t-43.5 14t-32 28t-29 30t-34 20t-46 -2.5t-65.5 -38
q-12 -8 -16 -1t6 15q45 33 75.5 43.5t52 6.5t37 -17.5t29.5 -29t29.5 -28.5t38 -15.5t54.5 10t78 47.5z" />
    <glyph glyph-name="Adieresis" unicode="&#xc4;" horiz-adv-x="1323" 
d="M1396 649q17 0 17 -16q0 -7 -5 -12t-12 -5q-11 0 -16 10q-47 -41 -83 -90.5t-65 -104t-53.5 -112.5t-48.5 -116q39 11 71.5 29.5t55.5 46.5q-12 3 -12 16q0 7 5 12t12 5q8 0 13 -5t5 -12q0 -4 -4 -10q-26 -37 -64.5 -60t-86.5 -35q-26 -62 -53 -122t-60 -114t-75 -100.5
t-97 -81.5q-5 -3 -10 -3q-17 0 -17 17q0 16 17 16q13 0 16 -12q41 30 73.5 72t60.5 93t53 108.5t51 118.5q-49 -8 -103.5 -8t-112.5 5q-22 -32 -52.5 -80.5t-67.5 -102.5t-79 -108t-86 -97t-89.5 -69.5t-88.5 -26.5q-46 1 -83 30t-53 89q0 3 -2 9q-14 -2 -29 -3.5t-31 -1.5
q-74 -1 -121.5 32.5t-68.5 83.5q-19 45 -17 93q2 50 21 95q14 31 37 59t54.5 49t71.5 33t89 12q26 0 58 -3q22 49 49.5 91.5t59.5 74t68 49.5t74 19q45 1 73 -21.5t41 -60.5q15 -50 6 -117q-6 -45 -21 -91q39 -7 78 -12t77 -10q53 77 112 150t124.5 133.5t137.5 103
t152 58.5q19 8 30 10h3h1zM582 494q-36 0 -70 -17.5t-64.5 -47.5t-57 -70.5t-47.5 -87.5q51 -5 109 -15t121 -21q23 -4 47.5 -8t49.5 -9q8 23 13 46t8 44q9 66 -6 112q-11 35 -36.5 55t-66.5 19zM207 -171q15 0 29.5 1.5t28.5 3.5q-7 31 -9 65.5t0 70.5q3 43 10.5 87
t19.5 88q8 30 18 59t22 57q-29 3 -53 3q-47 0 -85.5 -11.5t-68.5 -31.5t-52 -46.5t-35 -56.5q-10 -22 -15 -45t-6 -46q0 -49 16 -88q20 -48 64.5 -79.5t115.5 -30.5zM268 -30q-4 -72 8 -134q67 12 125 45t105.5 78.5t84.5 100.5t61 111q4 9 7.5 18t6.5 18q-24 5 -48 9t-47 8
q-64 12 -123 21.5t-110 14.5q-25 -57 -41 -118q-24 -87 -29 -172zM399 -293q36 0 77 27t82.5 70.5t82 97.5t76 107t64.5 99.5t48 74.5q-38 5 -76 10.5t-76 11.5q-7 -20 -15 -38q-24 -57 -61.5 -113t-86.5 -102.5t-108.5 -80t-127.5 -46.5q2 -6 2 -8q15 -56 47 -83t72 -27z
M1089 194q25 58 52 116.5t60 114t73 107t90 95.5q-77 -21 -144.5 -65t-128 -102.5t-114 -128t-102.5 -141.5q58 -5 112 -4.5t102 8.5zM1320 781q12 -1 17.5 -9t4.5 -17.5t-7.5 -17.5t-17.5 -8q-14 0 -19.5 8.5t-4.5 18.5t8 18t19 7zM1391 787q13 -1 18 -9.5t4 -18
t-7.5 -17.5t-17.5 -8q-14 0 -19.5 8.5t-4.5 18.5t8 18.5t19 7.5z" />
    <glyph glyph-name="Aring" unicode="&#xc5;" horiz-adv-x="1323" 
d="M1396 649q17 0 17 -16q0 -7 -5 -12t-12 -5q-11 0 -16 10q-47 -41 -83 -90.5t-65 -104t-53.5 -112.5t-48.5 -116q39 11 71.5 29.5t55.5 46.5q-12 3 -12 16q0 7 5 12t12 5q8 0 13 -5t5 -12q0 -4 -4 -10q-26 -37 -64.5 -60t-86.5 -35q-26 -62 -53 -122t-60 -114t-75 -100.5
t-97 -81.5q-5 -3 -10 -3q-17 0 -17 17q0 16 17 16q13 0 16 -12q41 30 73.5 72t60.5 93t53 108.5t51 118.5q-49 -8 -103.5 -8t-112.5 5q-22 -32 -52.5 -80.5t-67.5 -102.5t-79 -108t-86 -97t-89.5 -69.5t-88.5 -26.5q-46 1 -83 30t-53 89q0 3 -2 9q-14 -2 -29 -3.5t-31 -1.5
q-74 -1 -121.5 32.5t-68.5 83.5q-19 45 -17 93q2 50 21 95q14 31 37 59t54.5 49t71.5 33t89 12q26 0 58 -3q22 49 49.5 91.5t59.5 74t68 49.5t74 19q45 1 73 -21.5t41 -60.5q15 -50 6 -117q-6 -45 -21 -91q39 -7 78 -12t77 -10q53 77 112 150t124.5 133.5t137.5 103
t152 58.5q19 8 30 10h3h1zM582 494q-36 0 -70 -17.5t-64.5 -47.5t-57 -70.5t-47.5 -87.5q51 -5 109 -15t121 -21q23 -4 47.5 -8t49.5 -9q8 23 13 46t8 44q9 66 -6 112q-11 35 -36.5 55t-66.5 19zM207 -171q15 0 29.5 1.5t28.5 3.5q-7 31 -9 65.5t0 70.5q3 43 10.5 87
t19.5 88q8 30 18 59t22 57q-29 3 -53 3q-47 0 -85.5 -11.5t-68.5 -31.5t-52 -46.5t-35 -56.5q-10 -22 -15 -45t-6 -46q0 -49 16 -88q20 -48 64.5 -79.5t115.5 -30.5zM268 -30q-4 -72 8 -134q67 12 125 45t105.5 78.5t84.5 100.5t61 111q4 9 7.5 18t6.5 18q-24 5 -48 9t-47 8
q-64 12 -123 21.5t-110 14.5q-25 -57 -41 -118q-24 -87 -29 -172zM399 -293q36 0 77 27t82.5 70.5t82 97.5t76 107t64.5 99.5t48 74.5q-38 5 -76 10.5t-76 11.5q-7 -20 -15 -38q-24 -57 -61.5 -113t-86.5 -102.5t-108.5 -80t-127.5 -46.5q2 -6 2 -8q15 -56 47 -83t72 -27z
M1089 194q25 58 52 116.5t60 114t73 107t90 95.5q-77 -21 -144.5 -65t-128 -102.5t-114 -128t-102.5 -141.5q58 -5 112 -4.5t102 8.5zM1199 779q0 40 22.5 60t50 20t51 -20.5t23.5 -61.5q0 -27 -11 -45t-27 -26.5t-35 -8.5t-35.5 9t-27.5 27t-11 46zM1210 779
q0 -24 9.5 -39.5t23.5 -23.5t30 -8t29.5 8t22.5 23t9 38q0 36 -19.5 53.5t-42.5 17.5t-42.5 -17.5t-19.5 -51.5z" />
    <glyph glyph-name="AE" unicode="&#xc6;" horiz-adv-x="1619" 
d="M1434 603q29 0 42.5 -13.5t16.5 -33.5t-2 -42.5t-13 -38.5q-15 -30 -39 -54.5t-53 -42.5t-61.5 -27.5t-66.5 -8.5v-4q11 -2 24 -4t21 -7q14 -7 21 -18t7 -21.5t-8 -18.5t-24 -9q-29 -2 -45 16.5t-21 49.5q-43 0 -80.5 -26t-68.5 -68.5t-54 -97t-35 -111t-13 -110.5
t12.5 -96.5t42 -68t74.5 -25.5q45 0 83.5 20.5t68 53.5t49 75.5t26.5 88t1 89.5t-27 81q-8 -9 -19.5 -6.5t-10.5 16.5q0 13 12.5 16.5t19.5 -7.5q26 -38 34.5 -85.5t2.5 -96t-26 -94.5t-51 -82t-72.5 -58t-90.5 -23q-50 -1 -83 20.5t-51.5 57.5t-24 83t0.5 98.5t23 104
t42 99.5q-36 -2 -73.5 -0.5t-76.5 5.5q-22 -32 -52.5 -80.5t-67.5 -102.5t-79 -108t-86 -97t-89.5 -69.5t-88.5 -26.5q-46 1 -83 30t-53 89q0 3 -2 9q-14 -2 -29 -3.5t-31 -1.5q-74 -1 -121.5 32.5t-68.5 83.5q-19 45 -17 93q2 50 21 95q14 31 37 59t54.5 49t71.5 33t89 12
q26 0 58 -3q22 49 49.5 91.5t59.5 74t68 49.5t74 19q45 1 73 -21.5t41 -60.5q15 -50 6 -117q-6 -45 -21 -91q39 -7 78 -12t77 -10q53 77 112 150t124.5 133.5t137.5 103t152 58.5q19 8 30 10h4q17 0 17 -16q0 -7 -5 -12t-12 -5q-11 0 -16 10q-8 -8 -18 -21.5t-20 -30.5
q20 13 43 20.5t49 8.5zM268 -30q-4 -72 8 -134q67 12 125 45t105.5 78.5t84.5 100.5t61 111q4 9 7.5 18t6.5 18q-24 5 -48 9t-47 8q-64 12 -123 21.5t-110 14.5q-25 -57 -41 -118q-24 -87 -29 -172zM207 -171q15 0 29.5 1.5t28.5 3.5q-7 31 -9 65.5t0 70.5q3 43 10.5 87
t19.5 88q8 30 18 59t22 57q-29 3 -53 3q-47 0 -85.5 -11.5t-68.5 -31.5t-52 -46.5t-35 -56.5q-10 -22 -15 -45t-6 -46q0 -49 16 -88q20 -48 64.5 -79.5t115.5 -30.5zM399 -293q36 0 77 27t82.5 70.5t82 97.5t76 107t64.5 99.5t48 74.5q-38 5 -76 10.5t-76 11.5
q-7 -20 -15 -38q-24 -57 -61.5 -113t-86.5 -102.5t-108.5 -80t-127.5 -46.5q2 -6 2 -8q15 -56 47 -83t72 -27zM582 494q-36 0 -70 -17.5t-64.5 -47.5t-57 -70.5t-47.5 -87.5q51 -5 109 -15t121 -21l97 -17q8 23 13 46t8 44q9 66 -6 112q-11 35 -36.5 55t-66.5 19zM875 190
q40 -4 77.5 -5t72.5 1q38 66 91 109t116 43v8q-27 6 -46 21t-30 35.5t-12.5 45t7.5 50.5q3 6 8.5 8.5t11 1.5t9.5 -5.5t4 -11.5q0 -11 -9.5 -15t-17.5 1q-8 -42 12 -75.5t63 -44.5q1 44 19 94.5t52 88.5q12 24 28.5 48t32.5 39q-77 -21 -144.5 -65t-128 -102.5t-114 -128
t-102.5 -141.5zM1468 480q7 13 12 32.5t3 37t-12.5 29.5t-35.5 12q-41 -1 -73 -24.5t-54 -59t-34.5 -77t-14.5 -77.5q32 -1 63 8.5t58.5 26.5t50 40.5t37.5 51.5zM1298 317q-7 4 -18.5 6t-20.5 3q1 -26 12.5 -41t26.5 -14q12 1 17 6.5t4.5 12.5t-6.5 14.5t-15 12.5z" />
    <glyph glyph-name="Ccedilla" unicode="&#xc7;" horiz-adv-x="788" 
d="M758 576q-15 -50 -47 -99.5t-76 -94t-97 -82t-109.5 -63.5t-114 -39t-110.5 -8q-39 -88 -61 -171.5t-23 -148.5t23 -104.5t77 -39.5q48 0 97 20t95.5 54t88.5 78.5t74.5 93.5t54.5 98.5t29 93.5q-8 -2 -14.5 3t-6.5 13q0 9 5.5 13t12.5 3.5t12 -5t4 -13.5
q-4 -44 -24 -94.5t-52 -101t-73.5 -97t-88.5 -83t-97 -60t-99 -27.5q-1 -21 6 -32.5t18 -19t23.5 -12t23.5 -10.5t17.5 -16t5.5 -28q-2 -23 -14.5 -37t-30.5 -19t-38 -1t-36 18q-8 7 -7.5 10t11.5 -6q14 -13 30.5 -16.5t31 1t24.5 17.5t12 34q2 24 -12.5 34t-32.5 18
t-33.5 21t-14.5 43h-2q-68 0 -99.5 41.5t-34 109t20 153.5t64.5 177q-66 14 -105 54t-54.5 92.5t-10 110t29.5 106t64 81.5t93 36q44 2 66.5 -15t28 -45t-3.5 -61t-29 -63q-5 -7 -14 -7q-8 0 -13 4.5t-5 11.5t5 12t13 5q7 0 13 -6q16 26 22 53.5t0 50t-25.5 36.5t-56.5 12
q-50 -2 -88 -33.5t-60.5 -78t-28 -102t9.5 -105.5t52.5 -88t101.5 -51q43 92 102 180t126 156.5t139 110t142 41.5q28 0 45.5 -9.5t26 -25.5t8.5 -37t-7 -45zM685 682q-67 0 -134.5 -41.5t-130 -109t-117 -154t-94.5 -176.5q51 -4 107 9t111 38.5t106.5 62.5t94 80t73.5 91
t46 97q6 21 6.5 39.5t-6 33t-22 22.5t-40.5 8z" />
    <glyph glyph-name="Egrave" unicode="&#xc8;" horiz-adv-x="522" 
d="M466 724q3 -4 0 -8t-7.5 -6.5t-9 -2.5t-6.5 4q-11 23 -17 35l-9.5 19l-5.5 11t-6 10.5t-11 17.5t-20 33q-1 1 2 4t7.5 5.5t8.5 4t6 -0.5q19 -32 26 -43t10.5 -18t9 -19t22.5 -46zM502 680q29 0 42.5 -13.5t16.5 -33.5t-2 -42.5t-13 -38.5q-15 -30 -39 -54.5t-53 -42.5
t-61.5 -27.5t-66.5 -8.5v-4q11 -2 24 -4t21 -7q14 -7 21 -18t7 -21.5t-8 -18.5t-24 -9q-29 -2 -45 16.5t-21 49.5q-43 0 -80.5 -26t-68.5 -68.5t-54 -97t-35 -111t-13 -110.5t12.5 -96.5t42 -68t74.5 -25.5q45 0 83.5 20.5t68 53.5t49 75.5t26.5 88t1 89.5t-27 81
q-8 -9 -19.5 -6.5t-10.5 16.5q0 13 12.5 16.5t19.5 -7.5q26 -38 34.5 -85.5t2.5 -96t-26 -94.5t-51 -82t-72.5 -58t-90.5 -23q-56 -1 -91 25.5t-52 70.5t-18 100.5t12 115.5t38.5 115.5t60.5 101t78.5 71.5t92.5 27v8q-27 6 -46 21t-30 35.5t-12.5 45t7.5 50.5q3 6 8.5 8.5
t11 1.5t9.5 -5.5t4 -11.5q0 -11 -9.5 -15t-17.5 1q-8 -42 12 -75.5t63 -44.5q1 38 14.5 81t39 79t63 60.5t85.5 25.5zM366 394q-7 4 -18.5 6t-20.5 3q1 -26 12.5 -41t26.5 -14q12 1 17 6.5t4.5 12.5t-6.5 14.5t-15 12.5zM536 557q7 13 12 32.5t3 37t-12.5 29.5t-35.5 12
q-41 -1 -73 -24.5t-54 -59t-34.5 -77t-14.5 -77.5q32 -1 63 8.5t58.5 26.5t50 40.5t37.5 51.5z" />
    <glyph glyph-name="Eacute" unicode="&#xc9;" horiz-adv-x="522" 
d="M502 680q29 0 42.5 -13.5t16.5 -33.5t-2 -42.5t-13 -38.5q-15 -30 -39 -54.5t-53 -42.5t-61.5 -27.5t-66.5 -8.5v-4q11 -2 24 -4t21 -7q14 -7 21 -18t7 -21.5t-8 -18.5t-24 -9q-29 -2 -45 16.5t-21 49.5q-43 0 -80.5 -26t-68.5 -68.5t-54 -97t-35 -111t-13 -110.5
t12.5 -96.5t42 -68t74.5 -25.5q45 0 83.5 20.5t68 53.5t49 75.5t26.5 88t1 89.5t-27 81q-8 -9 -19.5 -6.5t-10.5 16.5q0 13 12.5 16.5t19.5 -7.5q26 -38 34.5 -85.5t2.5 -96t-26 -94.5t-51 -82t-72.5 -58t-90.5 -23q-56 -1 -91 25.5t-52 70.5t-18 100.5t12 115.5t38.5 115.5
t60.5 101t78.5 71.5t92.5 27v8q-27 6 -46 21t-30 35.5t-12.5 45t7.5 50.5q3 6 8.5 8.5t11 1.5t9.5 -5.5t4 -11.5q0 -11 -9.5 -15t-17.5 1q-8 -42 12 -75.5t63 -44.5q1 38 14.5 81t39 79t63 60.5t85.5 25.5zM366 394q-7 4 -18.5 6t-20.5 3q1 -26 12.5 -41t26.5 -14
q12 1 17 6.5t4.5 12.5t-6.5 14.5t-15 12.5zM536 557q7 13 12 32.5t3 37t-12.5 29.5t-35.5 12q-41 -1 -73 -24.5t-54 -59t-34.5 -77t-14.5 -77.5q32 -1 63 8.5t58.5 26.5t50 40.5t37.5 51.5zM495 867q2 4 8.5 2t13 -6.5t11 -9.5t3.5 -8q-18 -28 -35.5 -55.5t-34.5 -55.5
q-2 -3 -8.5 -1t-13.5 6.5t-11.5 9t-2.5 7.5q17 28 34.5 55.5t35.5 55.5z" />
    <glyph glyph-name="Ecircumflex" unicode="&#xca;" horiz-adv-x="522" 
d="M502 680q29 0 42.5 -13.5t16.5 -33.5t-2 -42.5t-13 -38.5q-15 -30 -39 -54.5t-53 -42.5t-61.5 -27.5t-66.5 -8.5v-4q11 -2 24 -4t21 -7q14 -7 21 -18t7 -21.5t-8 -18.5t-24 -9q-29 -2 -45 16.5t-21 49.5q-43 0 -80.5 -26t-68.5 -68.5t-54 -97t-35 -111t-13 -110.5
t12.5 -96.5t42 -68t74.5 -25.5q45 0 83.5 20.5t68 53.5t49 75.5t26.5 88t1 89.5t-27 81q-8 -9 -19.5 -6.5t-10.5 16.5q0 13 12.5 16.5t19.5 -7.5q26 -38 34.5 -85.5t2.5 -96t-26 -94.5t-51 -82t-72.5 -58t-90.5 -23q-56 -1 -91 25.5t-52 70.5t-18 100.5t12 115.5t38.5 115.5
t60.5 101t78.5 71.5t92.5 27v8q-27 6 -46 21t-30 35.5t-12.5 45t7.5 50.5q3 6 8.5 8.5t11 1.5t9.5 -5.5t4 -11.5q0 -11 -9.5 -15t-17.5 1q-8 -42 12 -75.5t63 -44.5q1 38 14.5 81t39 79t63 60.5t85.5 25.5zM366 394q-7 4 -18.5 6t-20.5 3q1 -26 12.5 -41t26.5 -14
q12 1 17 6.5t4.5 12.5t-6.5 14.5t-15 12.5zM536 557q7 13 12 32.5t3 37t-12.5 29.5t-35.5 12q-41 -1 -73 -24.5t-54 -59t-34.5 -77t-14.5 -77.5q32 -1 63 8.5t58.5 26.5t50 40.5t37.5 51.5zM625 732q6 -5 0 -11.5t-11 -2.5q-36 29 -67.5 64.5t-63.5 70.5
q-36 -35 -66.5 -68.5t-65.5 -68.5q-5 -5 -10 -5.5t-7.5 2.5t-2 8t5.5 10q36 35 72 69.5t72 69.5q3 3 3.5 3t3.5 -3q34 -34 66.5 -71.5t70.5 -66.5z" />
    <glyph glyph-name="Edieresis" unicode="&#xcb;" horiz-adv-x="522" 
d="M502 680q29 0 42.5 -13.5t16.5 -33.5t-2 -42.5t-13 -38.5q-15 -30 -39 -54.5t-53 -42.5t-61.5 -27.5t-66.5 -8.5v-4q11 -2 24 -4t21 -7q14 -7 21 -18t7 -21.5t-8 -18.5t-24 -9q-29 -2 -45 16.5t-21 49.5q-43 0 -80.5 -26t-68.5 -68.5t-54 -97t-35 -111t-13 -110.5
t12.5 -96.5t42 -68t74.5 -25.5q45 0 83.5 20.5t68 53.5t49 75.5t26.5 88t1 89.5t-27 81q-8 -9 -19.5 -6.5t-10.5 16.5q0 13 12.5 16.5t19.5 -7.5q26 -38 34.5 -85.5t2.5 -96t-26 -94.5t-51 -82t-72.5 -58t-90.5 -23q-56 -1 -91 25.5t-52 70.5t-18 100.5t12 115.5t38.5 115.5
t60.5 101t78.5 71.5t92.5 27v8q-27 6 -46 21t-30 35.5t-12.5 45t7.5 50.5q3 6 8.5 8.5t11 1.5t9.5 -5.5t4 -11.5q0 -11 -9.5 -15t-17.5 1q-8 -42 12 -75.5t63 -44.5q1 38 14.5 81t39 79t63 60.5t85.5 25.5zM366 394q-7 4 -18.5 6t-20.5 3q1 -26 12.5 -41t26.5 -14
q12 1 17 6.5t4.5 12.5t-6.5 14.5t-15 12.5zM536 557q7 13 12 32.5t3 37t-12.5 29.5t-35.5 12q-41 -1 -73 -24.5t-54 -59t-34.5 -77t-14.5 -77.5q32 -1 63 8.5t58.5 26.5t50 40.5t37.5 51.5zM519 812q12 -1 17.5 -9t4.5 -17.5t-7.5 -17.5t-17.5 -8q-14 0 -19.5 8.5t-4.5 18.5
t8 18t19 7zM590 818q13 -1 18 -9.5t4 -18t-7.5 -17.5t-17.5 -8q-14 0 -19.5 8.5t-4.5 18.5t8 18.5t19 7.5z" />
    <glyph glyph-name="Igrave" unicode="&#xcc;" horiz-adv-x="946" 
d="M913 685q8 8 18.5 3.5t10.5 -15.5q0 -7 -4 -11t-9.5 -5t-11 1.5t-8.5 8.5q-58 -20 -99 -71t-71 -120.5t-53.5 -151.5t-45.5 -165t-46.5 -160t-57.5 -137t-78 -96.5t-108 -37.5q-57 -1 -98.5 20.5t-70.5 59.5q-38 -8 -69.5 -2.5t-55.5 22.5t-38.5 45.5t-17.5 67.5
q-2 39 7 77.5t27 75t42.5 68.5t52.5 58q9 42 27.5 95t48 99.5t69.5 78t92 31.5q38 0 63 -28t37 -74t11.5 -105.5t-12.5 -122.5t-36 -126t-58 -115.5t-78.5 -90.5t-98.5 -52q27 -34 65.5 -53t90.5 -18q58 1 99 39t71 100t52.5 142t44 165t46 168t58.5 152t80 117.5t112 62.5z
M12 -58q5 -72 49 -104t113 -20q-27 39 -41 86.5t-18.5 98.5t-1.5 102t12 96q-25 -24 -46.5 -54.5t-37 -64t-23.5 -69.5t-6 -71zM139 214q-9 -45 -13.5 -97.5t0 -105.5t18.5 -102.5t42 -88.5q53 12 96.5 48.5t77.5 87.5t57 112t35.5 122.5t14 119.5t-9.5 103t-33.5 72.5
t-57.5 27.5q-48 0 -85.5 -29.5t-65 -72.5t-45.5 -92t-27 -87q23 20 49.5 35.5t56.5 28.5q8 4 17 0t8 -14q-1 -8 -6 -12t-11 -4.5t-11.5 3t-6.5 11.5q-29 -14 -53.5 -30.5t-46.5 -35.5zM798 745q3 -4 0 -8t-7.5 -6.5t-9 -2.5t-6.5 4q-11 23 -17 35l-9.5 19l-5.5 11t-6 10.5
t-11 17.5t-20 33q-1 1 2 4t7.5 5.5t8.5 4t6 -0.5q19 -32 26 -43t10.5 -18t9 -19t22.5 -46z" />
    <glyph glyph-name="Iacute" unicode="&#xcd;" horiz-adv-x="946" 
d="M913 685q8 8 18.5 3.5t10.5 -15.5q0 -7 -4 -11t-9.5 -5t-11 1.5t-8.5 8.5q-58 -20 -99 -71t-71 -120.5t-53.5 -151.5t-45.5 -165t-46.5 -160t-57.5 -137t-78 -96.5t-108 -37.5q-57 -1 -98.5 20.5t-70.5 59.5q-38 -8 -69.5 -2.5t-55.5 22.5t-38.5 45.5t-17.5 67.5
q-2 39 7 77.5t27 75t42.5 68.5t52.5 58q9 42 27.5 95t48 99.5t69.5 78t92 31.5q38 0 63 -28t37 -74t11.5 -105.5t-12.5 -122.5t-36 -126t-58 -115.5t-78.5 -90.5t-98.5 -52q27 -34 65.5 -53t90.5 -18q58 1 99 39t71 100t52.5 142t44 165t46 168t58.5 152t80 117.5t112 62.5z
M12 -58q5 -72 49 -104t113 -20q-27 39 -41 86.5t-18.5 98.5t-1.5 102t12 96q-25 -24 -46.5 -54.5t-37 -64t-23.5 -69.5t-6 -71zM139 214q-9 -45 -13.5 -97.5t0 -105.5t18.5 -102.5t42 -88.5q53 12 96.5 48.5t77.5 87.5t57 112t35.5 122.5t14 119.5t-9.5 103t-33.5 72.5
t-57.5 27.5q-48 0 -85.5 -29.5t-65 -72.5t-45.5 -92t-27 -87q23 20 49.5 35.5t56.5 28.5q8 4 17 0t8 -14q-1 -8 -6 -12t-11 -4.5t-11.5 3t-6.5 11.5q-29 -14 -53.5 -30.5t-46.5 -35.5zM894 878q2 4 8.5 2t13 -6.5t11 -9.5t3.5 -8q-18 -28 -35.5 -55.5t-34.5 -55.5
q-2 -3 -8.5 -1t-13.5 6.5t-11.5 9t-2.5 7.5q17 28 34.5 55.5t35.5 55.5z" />
    <glyph glyph-name="Icircumflex" unicode="&#xce;" horiz-adv-x="946" 
d="M913 685q8 8 18.5 3.5t10.5 -15.5q0 -7 -4 -11t-9.5 -5t-11 1.5t-8.5 8.5q-58 -20 -99 -71t-71 -120.5t-53.5 -151.5t-45.5 -165t-46.5 -160t-57.5 -137t-78 -96.5t-108 -37.5q-57 -1 -98.5 20.5t-70.5 59.5q-38 -8 -69.5 -2.5t-55.5 22.5t-38.5 45.5t-17.5 67.5
q-2 39 7 77.5t27 75t42.5 68.5t52.5 58q9 42 27.5 95t48 99.5t69.5 78t92 31.5q38 0 63 -28t37 -74t11.5 -105.5t-12.5 -122.5t-36 -126t-58 -115.5t-78.5 -90.5t-98.5 -52q27 -34 65.5 -53t90.5 -18q58 1 99 39t71 100t52.5 142t44 165t46 168t58.5 152t80 117.5t112 62.5z
M12 -58q5 -72 49 -104t113 -20q-27 39 -41 86.5t-18.5 98.5t-1.5 102t12 96q-25 -24 -46.5 -54.5t-37 -64t-23.5 -69.5t-6 -71zM139 214q-9 -45 -13.5 -97.5t0 -105.5t18.5 -102.5t42 -88.5q53 12 96.5 48.5t77.5 87.5t57 112t35.5 122.5t14 119.5t-9.5 103t-33.5 72.5
t-57.5 27.5q-48 0 -85.5 -29.5t-65 -72.5t-45.5 -92t-27 -87q23 20 49.5 35.5t56.5 28.5q8 4 17 0t8 -14q-1 -8 -6 -12t-11 -4.5t-11.5 3t-6.5 11.5q-29 -14 -53.5 -30.5t-46.5 -35.5zM996 754q6 -5 0 -11.5t-11 -2.5q-36 29 -67.5 64.5t-63.5 70.5q-36 -35 -66.5 -68.5
t-65.5 -68.5q-5 -5 -10 -5.5t-7.5 2.5t-2 8t5.5 10q36 35 72 69.5t72 69.5q3 3 3.5 3t3.5 -3q34 -34 66.5 -71.5t70.5 -66.5z" />
    <glyph glyph-name="Idieresis" unicode="&#xcf;" horiz-adv-x="946" 
d="M913 685q8 8 18.5 3.5t10.5 -15.5q0 -7 -4 -11t-9.5 -5t-11 1.5t-8.5 8.5q-58 -20 -99 -71t-71 -120.5t-53.5 -151.5t-45.5 -165t-46.5 -160t-57.5 -137t-78 -96.5t-108 -37.5q-57 -1 -98.5 20.5t-70.5 59.5q-38 -8 -69.5 -2.5t-55.5 22.5t-38.5 45.5t-17.5 67.5
q-2 39 7 77.5t27 75t42.5 68.5t52.5 58q9 42 27.5 95t48 99.5t69.5 78t92 31.5q38 0 63 -28t37 -74t11.5 -105.5t-12.5 -122.5t-36 -126t-58 -115.5t-78.5 -90.5t-98.5 -52q27 -34 65.5 -53t90.5 -18q58 1 99 39t71 100t52.5 142t44 165t46 168t58.5 152t80 117.5t112 62.5z
M12 -58q5 -72 49 -104t113 -20q-27 39 -41 86.5t-18.5 98.5t-1.5 102t12 96q-25 -24 -46.5 -54.5t-37 -64t-23.5 -69.5t-6 -71zM139 214q-9 -45 -13.5 -97.5t0 -105.5t18.5 -102.5t42 -88.5q53 12 96.5 48.5t77.5 87.5t57 112t35.5 122.5t14 119.5t-9.5 103t-33.5 72.5
t-57.5 27.5q-48 0 -85.5 -29.5t-65 -72.5t-45.5 -92t-27 -87q23 20 49.5 35.5t56.5 28.5q8 4 17 0t8 -14q-1 -8 -6 -12t-11 -4.5t-11.5 3t-6.5 11.5q-29 -14 -53.5 -30.5t-46.5 -35.5zM928 818q12 -1 17.5 -9t4.5 -17.5t-7.5 -17.5t-17.5 -8q-14 0 -19.5 8.5t-4.5 18.5t8 18
t19 7zM999 824q13 -1 18 -9.5t4 -18t-7.5 -17.5t-17.5 -8q-14 0 -19.5 8.5t-4.5 18.5t8 18.5t19 7.5z" />
    <glyph glyph-name="Eth" unicode="&#xd0;" horiz-adv-x="1045" 
d="M711 676q72 -23 121.5 -69.5t78 -106.5t37.5 -129t-0.5 -137.5t-36 -131.5t-68.5 -111.5t-98.5 -78t-126.5 -29.5q-31 -1 -61 8q-23 -42 -53 -79t-67.5 -65t-81.5 -44t-94 -15q-80 1 -132.5 36t-82.5 90.5t-39.5 123.5t-4.5 134q6 76 28 152t58.5 145.5t86.5 129
t112 103.5t135 69t156 25q68 0 120 -16q10 10 24 21q5 5 12 5t12 -5t5 -12t-5 -12t-12 -5q-12 0 -16 11q-4 -3 -7 -7zM261 -301q48 -1 90 14.5t78 42.5t65.5 63t51.5 75q-27 9 -52 24t-47.5 33t-43.5 38l-42 40q-35 -60 -79 -111.5t-105 -89.5q-3 -3 -9 -3q-8 0 -13 5t-5 12
t5 11.5t13 4.5q12 0 16 -11q49 35 85.5 87.5t68.5 116.5q-31 28 -62 47.5t-66 20.5q-23 0 -43 -8t-37 -21.5t-30.5 -31.5t-22.5 -37q8 0 13.5 -5t3.5 -12q-2 -10 -8.5 -13.5t-13 -2.5t-10.5 7t-1 15q7 23 21.5 45t34 39t43.5 27t50 9q37 -1 69.5 -20.5t64.5 -48.5
q21 43 40.5 89t40.5 94q-29 -1 -57 -2t-56 -3q-2 0 -3.5 5t-2.5 11.5t0 12t4 5.5q63 4 130 6q22 52 47 104t55 102t65 96.5t79 87.5q-25 8 -51.5 12t-56.5 4q-81 0 -153 -24.5t-133 -68t-110 -102.5t-84.5 -127t-57 -142.5t-27.5 -149.5q-5 -63 4 -129t37.5 -119.5t79 -88
t127.5 -35.5zM727 280q6 0 9 -5.5t3 -11.5t-2.5 -11.5t-8.5 -5.5q-66 0 -132.5 0.5t-133.5 -1.5q-22 -54 -45 -106t-50 -100q21 -19 42 -39t43.5 -38.5t47.5 -33.5t52 -24q44 80 72 194q-8 -1 -13.5 3.5t-5.5 12.5q0 9 6 13t13 3.5t12 -6t3 -14.5q-14 -63 -33.5 -114.5
t-42.5 -94.5q24 -7 55 -7q64 0 115 28.5t89 75.5t61.5 108.5t31 128t-1 133.5t-35 125.5t-71 103.5t-108.5 68q-40 -39 -72 -84.5t-58.5 -94.5t-49 -101.5t-43.5 -104.5q63 1 126 0t125 0z" />
    <glyph glyph-name="Ntilde" unicode="&#xd1;" horiz-adv-x="1301" 
d="M1816 790q16 -44 5 -108q-12 -62 -50 -129q-35 -60 -90.5 -118.5t-131.5 -104.5t-171.5 -74.5t-210.5 -28.5q-37 0 -71 3q-35 -79 -58 -151t-32 -129v-7q0 -4 -5.5 -7.5t-11.5 -5.5t-11 -1.5t-5 4.5q2 81 -6.5 163t-13.5 164q-23 8 -44.5 17t-41.5 20q-12 6 -24 13
t-24 15q-22 -49 -42 -99t-41 -100q-17 -40 -38 -85t-47 -89t-57.5 -84t-68.5 -71t-81 -49.5t-94 -19.5q-57 -1 -98 20.5t-70 59.5q-11 -2 -22 -3.5t-23 -1.5q-49 0 -80 24.5t-45 64.5q-16 40 -11 90q3 50 24 99q16 38 41.5 72.5t60.5 60.5l9 36q15 56 37.5 106t52 87.5
t65 59t75.5 21.5q42 -1 67.5 -32.5t36.5 -83.5q12 -58 6 -132q-3 -36 -9.5 -74t-17.5 -76q-16 -55 -40 -106.5t-56 -94t-72 -73t-87 -42.5q27 -34 66 -53t90 -18q49 1 90 20t75 51t61.5 72.5t50.5 84.5t42 88t35 82q21 51 43.5 102.5t48.5 102.5q-77 60 -126 149q-2 6 -2 9
q0 7 4.5 12t12.5 5q7 0 12 -5t5 -12q0 -14 -15 -16q23 -40 52 -72.5t63 -58.5q40 78 91.5 149t122.5 129q2 2 7 4q8 3 15 -2q8 -5 8 -14q0 -6 -4.5 -10.5t-10.5 -5.5q-9 -2 -15 4q-38 -81 -41.5 -167.5t6.5 -176.5q52 -15 108 -21q40 90 92 180t114 170q45 58 94 108
t100.5 86.5t105 57t107.5 20.5q45 -1 73 -20.5t41 -53.5zM137 -185q19 0 37 3q-29 43 -44 98q-11 37 -15 78t-3 85q2 60 12 118q-30 -25 -52.5 -56t-36.5 -65q-20 -48 -23 -95q-3 -49 10 -85t41.5 -58.5t73.5 -22.5zM141 -81q15 -57 45 -99q46 11 85.5 40.5t71 71t55.5 92.5
t40 105q21 75 27 148q5 73 -7 129q-10 48 -32.5 77t-59.5 30q-38 0 -72 -21t-62 -57t-49.5 -84.5t-35.5 -103.5q-2 -6 -3 -11.5t-3 -11.5q34 23 75.5 36t91.5 15h1q7 0 12 -4.5t5 -12.5q0 -7 -5 -11.5t-12 -4.5q-8 0 -13 4.5t-5 11.5q0 2 0.5 2.5t0.5 2.5
q-46 -3 -84.5 -17.5t-69.5 -37.5q-13 -64 -15 -129q-2 -88 18 -160zM953 272q-5 85 3 168t45 162q-60 -56 -101.5 -123.5t-75.5 -142.5q12 -8 24 -15.5t24 -13.5q41 -22 81 -35zM1006 8q12 50 32 106.5t46 116.5q-26 3 -51.5 8t-50.5 12q7 -61 14.5 -122t9.5 -121zM1809 684
q12 58 -4 102q-11 30 -36.5 48t-66.5 18q-53 0 -105 -20t-102.5 -56t-98.5 -85t-92 -106q-61 -79 -112.5 -167.5t-90.5 -176.5q33 -3 66 -3q113 0 207 28t169 73t129.5 102.5t88.5 116.5q37 65 48 126zM1326 861q10 8 17 8.5t9.5 -3.5t0.5 -10t-10 -12q-52 -38 -88.5 -52.5
t-62.5 -13t-43.5 14t-32 28t-29 30t-34 20t-46 -2.5t-65.5 -38q-12 -8 -16 -1t6 15q45 33 75.5 43.5t52 6.5t37 -17.5t29.5 -29t29.5 -28.5t38 -15.5t54.5 10t78 47.5z" />
    <glyph glyph-name="Ograve" unicode="&#xd2;" horiz-adv-x="731" 
d="M459 708q70 0 113.5 -42.5t62 -112.5t15 -159.5t-26.5 -183t-63 -183t-94.5 -159.5t-121.5 -113t-143 -44v6v-6q-80 0 -127 43.5t-63 110.5q-8 29 -10 61.5t1 67.5q1 7 1.5 13.5t1.5 14.5q-3 49 5 110q14 93 50 190q28 75 69.5 145t93 123.5t111 85.5t125.5 32zM201 -278
q69 1 130 43t111 110.5t87 156t59 179t27 179t-10 155.5t-51 110t-96 42q-63 0 -121 -31.5t-108 -84t-90.5 -121t-68.5 -142.5q-17 -47 -29.5 -94.5t-18.5 -92.5q-5 -29 -6 -55q4 14 8 26.5t9 25.5q17 45 42.5 84t57.5 68t70.5 45.5t82.5 15.5q6 -1 12.5 -1.5t12.5 -1.5
q21 -5 38.5 -17.5t29.5 -33.5q25 -41 21 -112q-3 -38 -15 -85q-4 -14 -18 -14q-17 0 -17 17q2 16 18 16q5 0 9 -2q5 19 7.5 35.5t3.5 32.5q3 35 -2.5 61t-16.5 45q-21 37 -61 45q-12 3 -23 3q-42 1 -78.5 -14.5t-67 -43.5t-55 -66t-40.5 -81q-19 -49 -27 -102q2 -32 7 -55
q12 -60 46 -97.5t94 -39.5q48 -2 93 30q18 13 35 31t31 42q-15 2 -15 16q0 7 5 12t13 5q7 0 12 -5t4 -12q0 -5 -2 -7q-16 -30 -35.5 -53t-41.5 -38q-49 -34 -100 -32q-64 2 -100.5 41.5t-50.5 103.5v4q-2 -26 1 -51.5t9 -48.5q16 -63 59.5 -104t119.5 -42zM562 873
q3 -4 0 -8t-7.5 -6.5t-9 -2.5t-6.5 4q-12 23 -17.5 35t-9 19l-5.5 11t-6 10.5t-11 17.5t-20 33q-1 1 2 4t7.5 5.5t8.5 4t6 -0.5q19 -32 26 -43t10.5 -18t9 -19t22.5 -46z" />
    <glyph glyph-name="Oacute" unicode="&#xd3;" horiz-adv-x="731" 
d="M459 708q70 0 113.5 -42.5t62 -112.5t15 -159.5t-26.5 -183t-63 -183t-94.5 -159.5t-121.5 -113t-143 -44v6v-6q-80 0 -127 43.5t-63 110.5q-8 29 -10 61.5t1 67.5q1 7 1.5 13.5t1.5 14.5q-3 49 5 110q14 93 50 190q28 75 69.5 145t93 123.5t111 85.5t125.5 32zM201 -278
q69 1 130 43t111 110.5t87 156t59 179t27 179t-10 155.5t-51 110t-96 42q-63 0 -121 -31.5t-108 -84t-90.5 -121t-68.5 -142.5q-17 -47 -29.5 -94.5t-18.5 -92.5q-5 -29 -6 -55q4 14 8 26.5t9 25.5q17 45 42.5 84t57.5 68t70.5 45.5t82.5 15.5q6 -1 12.5 -1.5t12.5 -1.5
q21 -5 38.5 -17.5t29.5 -33.5q25 -41 21 -112q-3 -38 -15 -85q-4 -14 -18 -14q-17 0 -17 17q2 16 18 16q5 0 9 -2q5 19 7.5 35.5t3.5 32.5q3 35 -2.5 61t-16.5 45q-21 37 -61 45q-12 3 -23 3q-42 1 -78.5 -14.5t-67 -43.5t-55 -66t-40.5 -81q-19 -49 -27 -102q2 -32 7 -55
q12 -60 46 -97.5t94 -39.5q48 -2 93 30q18 13 35 31t31 42q-15 2 -15 16q0 7 5 12t13 5q7 0 12 -5t4 -12q0 -5 -2 -7q-16 -30 -35.5 -53t-41.5 -38q-49 -34 -100 -32q-64 2 -100.5 41.5t-50.5 103.5v4q-2 -26 1 -51.5t9 -48.5q16 -63 59.5 -104t119.5 -42zM607 948
q2 4 8.5 2t13 -6.5t11 -9.5t3.5 -8q-18 -28 -35.5 -55.5t-34.5 -55.5q-2 -3 -8.5 -1t-13.5 6.5t-11.5 9t-2.5 7.5q17 28 34.5 55.5t35.5 55.5z" />
    <glyph glyph-name="Ocircumflex" unicode="&#xd4;" horiz-adv-x="731" 
d="M459 708q70 0 113.5 -42.5t62 -112.5t15 -159.5t-26.5 -183t-63 -183t-94.5 -159.5t-121.5 -113t-143 -44v6v-6q-80 0 -127 43.5t-63 110.5q-8 29 -10 61.5t1 67.5q1 7 1.5 13.5t1.5 14.5q-3 49 5 110q14 93 50 190q28 75 69.5 145t93 123.5t111 85.5t125.5 32zM201 -278
q69 1 130 43t111 110.5t87 156t59 179t27 179t-10 155.5t-51 110t-96 42q-63 0 -121 -31.5t-108 -84t-90.5 -121t-68.5 -142.5q-17 -47 -29.5 -94.5t-18.5 -92.5q-5 -29 -6 -55q4 14 8 26.5t9 25.5q17 45 42.5 84t57.5 68t70.5 45.5t82.5 15.5q6 -1 12.5 -1.5t12.5 -1.5
q21 -5 38.5 -17.5t29.5 -33.5q25 -41 21 -112q-3 -38 -15 -85q-4 -14 -18 -14q-17 0 -17 17q2 16 18 16q5 0 9 -2q5 19 7.5 35.5t3.5 32.5q3 35 -2.5 61t-16.5 45q-21 37 -61 45q-12 3 -23 3q-42 1 -78.5 -14.5t-67 -43.5t-55 -66t-40.5 -81q-19 -49 -27 -102q2 -32 7 -55
q12 -60 46 -97.5t94 -39.5q48 -2 93 30q18 13 35 31t31 42q-15 2 -15 16q0 7 5 12t13 5q7 0 12 -5t4 -12q0 -5 -2 -7q-16 -30 -35.5 -53t-41.5 -38q-49 -34 -100 -32q-64 2 -100.5 41.5t-50.5 103.5v4q-2 -26 1 -51.5t9 -48.5q16 -63 59.5 -104t119.5 -42zM661 802
q6 -5 0 -11.5t-11 -2.5q-36 29 -67.5 64.5t-63.5 70.5q-36 -35 -66.5 -68.5t-65.5 -68.5q-5 -5 -10 -5.5t-7.5 2.5t-2 8t5.5 10q36 35 72 69.5t72 69.5q3 3 3.5 3t3.5 -3q34 -34 66.5 -71.5t70.5 -66.5z" />
    <glyph glyph-name="Otilde" unicode="&#xd5;" horiz-adv-x="731" 
d="M459 708q70 0 113.5 -42.5t62 -112.5t15 -159.5t-26.5 -183t-63 -183t-94.5 -159.5t-121.5 -113t-143 -44v6v-6q-80 0 -127 43.5t-63 110.5q-8 29 -10 61.5t1 67.5q1 7 1.5 13.5t1.5 14.5q-3 49 5 110q14 93 50 190q28 75 69.5 145t93 123.5t111 85.5t125.5 32zM201 -278
q69 1 130 43t111 110.5t87 156t59 179t27 179t-10 155.5t-51 110t-96 42q-63 0 -121 -31.5t-108 -84t-90.5 -121t-68.5 -142.5q-17 -47 -29.5 -94.5t-18.5 -92.5q-5 -29 -6 -55q4 14 8 26.5t9 25.5q17 45 42.5 84t57.5 68t70.5 45.5t82.5 15.5q6 -1 12.5 -1.5t12.5 -1.5
q21 -5 38.5 -17.5t29.5 -33.5q25 -41 21 -112q-3 -38 -15 -85q-4 -14 -18 -14q-17 0 -17 17q2 16 18 16q5 0 9 -2q5 19 7.5 35.5t3.5 32.5q3 35 -2.5 61t-16.5 45q-21 37 -61 45q-12 3 -23 3q-42 1 -78.5 -14.5t-67 -43.5t-55 -66t-40.5 -81q-19 -49 -27 -102q2 -32 7 -55
q12 -60 46 -97.5t94 -39.5q48 -2 93 30q18 13 35 31t31 42q-15 2 -15 16q0 7 5 12t13 5q7 0 12 -5t4 -12q0 -5 -2 -7q-16 -30 -35.5 -53t-41.5 -38q-49 -34 -100 -32q-64 2 -100.5 41.5t-50.5 103.5v4q-2 -26 1 -51.5t9 -48.5q16 -63 59.5 -104t119.5 -42zM644 879
q10 8 17 8.5t9.5 -3.5t0.5 -10t-10 -12q-52 -38 -88.5 -52.5t-62.5 -13t-43.5 14t-32 28t-29 30t-34 20t-46 -2.5t-65.5 -38q-12 -8 -16 -1t6 15q45 33 75.5 43.5t52 6.5t37 -17.5t29.5 -29t29.5 -28.5t38 -15.5t54.5 10t78 47.5z" />
    <glyph glyph-name="Odieresis" unicode="&#xd6;" horiz-adv-x="731" 
d="M459 708q70 0 113.5 -42.5t62 -112.5t15 -159.5t-26.5 -183t-63 -183t-94.5 -159.5t-121.5 -113t-143 -44v6v-6q-80 0 -127 43.5t-63 110.5q-8 29 -10 61.5t1 67.5q1 7 1.5 13.5t1.5 14.5q-3 49 5 110q14 93 50 190q28 75 69.5 145t93 123.5t111 85.5t125.5 32zM201 -278
q69 1 130 43t111 110.5t87 156t59 179t27 179t-10 155.5t-51 110t-96 42q-63 0 -121 -31.5t-108 -84t-90.5 -121t-68.5 -142.5q-17 -47 -29.5 -94.5t-18.5 -92.5q-5 -29 -6 -55q4 14 8 26.5t9 25.5q17 45 42.5 84t57.5 68t70.5 45.5t82.5 15.5q6 -1 12.5 -1.5t12.5 -1.5
q21 -5 38.5 -17.5t29.5 -33.5q25 -41 21 -112q-3 -38 -15 -85q-4 -14 -18 -14q-17 0 -17 17q2 16 18 16q5 0 9 -2q5 19 7.5 35.5t3.5 32.5q3 35 -2.5 61t-16.5 45q-21 37 -61 45q-12 3 -23 3q-42 1 -78.5 -14.5t-67 -43.5t-55 -66t-40.5 -81q-19 -49 -27 -102q2 -32 7 -55
q12 -60 46 -97.5t94 -39.5q48 -2 93 30q18 13 35 31t31 42q-15 2 -15 16q0 7 5 12t13 5q7 0 12 -5t4 -12q0 -5 -2 -7q-16 -30 -35.5 -53t-41.5 -38q-49 -34 -100 -32q-64 2 -100.5 41.5t-50.5 103.5v4q-2 -26 1 -51.5t9 -48.5q16 -63 59.5 -104t119.5 -42zM548 881
q12 -1 17.5 -9t4.5 -17.5t-7.5 -17.5t-17.5 -8q-14 0 -19.5 8.5t-4.5 18.5t8 18t19 7zM619 887q13 -1 18 -9.5t4 -18t-7.5 -17.5t-17.5 -8q-14 0 -19.5 8.5t-4.5 18.5t8 18.5t19 7.5z" />
    <glyph glyph-name="multiply" unicode="&#xd7;" horiz-adv-x="683" 
d="M534 157q6 -6 6 -13t-4 -12t-11 -6.5t-13 4.5q-26 23 -48.5 42.5t-44.5 38.5t-44.5 38.5t-49.5 42.5q-26 -26 -47.5 -46.5t-42 -40t-41.5 -39.5t-46 -45q-6 -6 -13 -5.5t-11.5 5t-5.5 11.5t5 13q25 25 46 45t41.5 39.5t41.5 39.5t47 46q-29 24 -52 44t-44.5 38
t-44.5 36.5t-51 40.5q-3 2 -1.5 8t5.5 11t8.5 8.5t7.5 0.5q29 -23 52.5 -42t45.5 -37.5t45.5 -38.5t52.5 -45q26 26 47 46.5t40.5 40t39.5 40.5t44 47q2 2 7.5 0t10.5 -5.5t8 -8.5t0 -8q-24 -26 -44 -47t-39.5 -40.5t-41 -40t-47.5 -46.5q27 -23 49.5 -42.5t44 -38.5t44 -38
t48.5 -41z" />
    <glyph glyph-name="Oslash" unicode="&#xd8;" horiz-adv-x="731" 
d="M484 743q1 4 7 4.5t12.5 -1.5t11 -5.5t3.5 -6.5q-48 -148 -93 -277t-89 -254t-88.5 -254.5t-92.5 -277.5q-1 -4 -7 -4.5t-12 1t-10.5 5t-3.5 7.5q48 148 92.5 277t88.5 254.5t88.5 254.5t92.5 277zM459 708q70 0 113.5 -42.5t62 -112.5t15 -159.5t-26.5 -183t-63 -183
t-94.5 -159.5t-121.5 -113t-143 -44v6v-6q-80 0 -127 43.5t-63 110.5q-8 29 -10 61.5t1 67.5q1 7 1.5 13.5t1.5 14.5q-3 49 5 110q14 93 50 190q28 75 69.5 145t93 123.5t111 85.5t125.5 32zM201 -278q69 1 130 43t111 110.5t87 156t59 179t27 179t-10 155.5t-51 110t-96 42
q-63 0 -121 -31.5t-108 -84t-90.5 -121t-68.5 -142.5q-17 -47 -29.5 -94.5t-18.5 -92.5q-5 -29 -6 -55q4 14 8 26.5t9 25.5q17 45 42.5 84t57.5 68t70.5 45.5t82.5 15.5q6 -1 12.5 -1.5t12.5 -1.5q21 -5 38.5 -17.5t29.5 -33.5q25 -41 21 -112q-3 -38 -15 -85
q-4 -14 -18 -14q-17 0 -17 17q2 16 18 16q5 0 9 -2q5 19 7.5 35.5t3.5 32.5q3 35 -2.5 61t-16.5 45q-21 37 -61 45q-12 3 -23 3q-42 1 -78.5 -14.5t-67 -43.5t-55 -66t-40.5 -81q-19 -49 -27 -102q2 -32 7 -55q12 -60 46 -97.5t94 -39.5q48 -2 93 30q18 13 35 31t31 42
q-15 2 -15 16q0 7 5 12t13 5q7 0 12 -5t4 -12q0 -5 -2 -7q-16 -30 -35.5 -53t-41.5 -38q-49 -34 -100 -32q-64 2 -100.5 41.5t-50.5 103.5v4q-2 -26 1 -51.5t9 -48.5q16 -63 59.5 -104t119.5 -42z" />
    <glyph glyph-name="Ugrave" unicode="&#xd9;" horiz-adv-x="1151" 
d="M1373 864q67 0 98 -38.5t26 -104.5q-8 -87 -45 -159.5t-94 -130.5t-129.5 -100t-151.5 -67q-8 -3 -15.5 1.5t-7.5 14.5q0 8 5.5 12t11.5 4t11.5 -4t5.5 -12q75 25 143.5 66.5t122.5 97t88.5 125.5t42.5 153q6 60 -21.5 95.5t-90.5 34.5q-64 0 -127.5 -43t-122 -112.5
t-110 -158t-91.5 -181t-67 -181t-36 -158t2.5 -112t46.5 -42.5q31 0 57 18t46 44.5t33.5 57.5t19.5 57q-8 -2 -14 3t-6 13q0 9 6 13t13 3.5t12 -5.5t3 -14q-4 -30 -18 -65t-36.5 -65.5t-52 -50.5t-63.5 -20q-36 0 -55.5 23t-26 63t0 94t23.5 116q-19 -36 -43.5 -79.5
t-53 -88t-61 -86.5t-67 -74.5t-71.5 -52t-74 -19.5q-50 0 -66.5 27t-9.5 73.5t32 109t58.5 132t70 143.5t66.5 143.5t48 131.5t14 108.5t-34.5 73.5t-98.5 27q-73 0 -140 -31.5t-125 -83.5t-105 -118t-79.5 -135t-48 -135t-10 -117.5t32.5 -83t81 -31.5q40 0 75 17t62.5 44
t47 62t28.5 71q-8 -1 -14 3.5t-6 12.5q0 9 6 13t13 3.5t12 -5.5t3 -14q-7 -41 -27 -79.5t-50 -69.5t-68.5 -50t-81.5 -19q-58 0 -88 32.5t-36.5 85.5t9 121t48 139t80.5 139.5t108 121.5t129 86t144 33q74 0 110.5 -27t45.5 -73.5t-4.5 -109t-40 -132t-61.5 -143.5
t-69 -143.5t-62 -132t-40.5 -109t-4.5 -73.5t46 -27q40 0 79.5 24t77 63t71.5 88t64 98.5t54 95t41 77.5q24 73 58.5 150t77 149.5t91.5 137.5t102 114t108 77.5t109 29.5zM910 904q3 -4 0 -8t-7.5 -6.5t-9 -2.5t-6.5 4q-12 23 -17.5 35t-9 19l-5.5 11t-6 10.5t-11 17.5
t-20 33q-1 1 2 4t7.5 5.5t8.5 4t6 -0.5q19 -32 26 -43t10.5 -18t9 -19t22.5 -46z" />
    <glyph glyph-name="Uacute" unicode="&#xda;" horiz-adv-x="1151" 
d="M1373 864q67 0 98 -38.5t26 -104.5q-8 -87 -45 -159.5t-94 -130.5t-129.5 -100t-151.5 -67q-8 -3 -15.5 1.5t-7.5 14.5q0 8 5.5 12t11.5 4t11.5 -4t5.5 -12q75 25 143.5 66.5t122.5 97t88.5 125.5t42.5 153q6 60 -21.5 95.5t-90.5 34.5q-64 0 -127.5 -43t-122 -112.5
t-110 -158t-91.5 -181t-67 -181t-36 -158t2.5 -112t46.5 -42.5q31 0 57 18t46 44.5t33.5 57.5t19.5 57q-8 -2 -14 3t-6 13q0 9 6 13t13 3.5t12 -5.5t3 -14q-4 -30 -18 -65t-36.5 -65.5t-52 -50.5t-63.5 -20q-36 0 -55.5 23t-26 63t0 94t23.5 116q-19 -36 -43.5 -79.5
t-53 -88t-61 -86.5t-67 -74.5t-71.5 -52t-74 -19.5q-50 0 -66.5 27t-9.5 73.5t32 109t58.5 132t70 143.5t66.5 143.5t48 131.5t14 108.5t-34.5 73.5t-98.5 27q-73 0 -140 -31.5t-125 -83.5t-105 -118t-79.5 -135t-48 -135t-10 -117.5t32.5 -83t81 -31.5q40 0 75 17t62.5 44
t47 62t28.5 71q-8 -1 -14 3.5t-6 12.5q0 9 6 13t13 3.5t12 -5.5t3 -14q-7 -41 -27 -79.5t-50 -69.5t-68.5 -50t-81.5 -19q-58 0 -88 32.5t-36.5 85.5t9 121t48 139t80.5 139.5t108 121.5t129 86t144 33q74 0 110.5 -27t45.5 -73.5t-4.5 -109t-40 -132t-61.5 -143.5
t-69 -143.5t-62 -132t-40.5 -109t-4.5 -73.5t46 -27q40 0 79.5 24t77 63t71.5 88t64 98.5t54 95t41 77.5q24 73 58.5 150t77 149.5t91.5 137.5t102 114t108 77.5t109 29.5zM976 934q2 4 8.5 2t13 -6.5t11 -9.5t3.5 -8q-18 -28 -35.5 -55.5t-34.5 -55.5q-2 -3 -8.5 -1
t-13.5 6.5t-11.5 9t-2.5 7.5q17 28 34.5 55.5t35.5 55.5z" />
    <glyph glyph-name="Ucircumflex" unicode="&#xdb;" horiz-adv-x="1151" 
d="M1373 864q67 0 98 -38.5t26 -104.5q-8 -87 -45 -159.5t-94 -130.5t-129.5 -100t-151.5 -67q-8 -3 -15.5 1.5t-7.5 14.5q0 8 5.5 12t11.5 4t11.5 -4t5.5 -12q75 25 143.5 66.5t122.5 97t88.5 125.5t42.5 153q6 60 -21.5 95.5t-90.5 34.5q-64 0 -127.5 -43t-122 -112.5
t-110 -158t-91.5 -181t-67 -181t-36 -158t2.5 -112t46.5 -42.5q31 0 57 18t46 44.5t33.5 57.5t19.5 57q-8 -2 -14 3t-6 13q0 9 6 13t13 3.5t12 -5.5t3 -14q-4 -30 -18 -65t-36.5 -65.5t-52 -50.5t-63.5 -20q-36 0 -55.5 23t-26 63t0 94t23.5 116q-19 -36 -43.5 -79.5
t-53 -88t-61 -86.5t-67 -74.5t-71.5 -52t-74 -19.5q-50 0 -66.5 27t-9.5 73.5t32 109t58.5 132t70 143.5t66.5 143.5t48 131.5t14 108.5t-34.5 73.5t-98.5 27q-73 0 -140 -31.5t-125 -83.5t-105 -118t-79.5 -135t-48 -135t-10 -117.5t32.5 -83t81 -31.5q40 0 75 17t62.5 44
t47 62t28.5 71q-8 -1 -14 3.5t-6 12.5q0 9 6 13t13 3.5t12 -5.5t3 -14q-7 -41 -27 -79.5t-50 -69.5t-68.5 -50t-81.5 -19q-58 0 -88 32.5t-36.5 85.5t9 121t48 139t80.5 139.5t108 121.5t129 86t144 33q74 0 110.5 -27t45.5 -73.5t-4.5 -109t-40 -132t-61.5 -143.5
t-69 -143.5t-62 -132t-40.5 -109t-4.5 -73.5t46 -27q40 0 79.5 24t77 63t71.5 88t64 98.5t54 95t41 77.5q24 73 58.5 150t77 149.5t91.5 137.5t102 114t108 77.5t109 29.5zM1015 833q6 -5 0 -11.5t-11 -2.5q-36 29 -67.5 64.5t-63.5 70.5q-36 -35 -66.5 -68.5t-65.5 -68.5
q-5 -5 -10 -5.5t-7.5 2.5t-2 8t5.5 10q36 35 72 69.5t72 69.5q3 3 3.5 3t3.5 -3q34 -34 66.5 -71.5t70.5 -66.5z" />
    <glyph glyph-name="Udieresis" unicode="&#xdc;" horiz-adv-x="1151" 
d="M1373 864q67 0 98 -38.5t26 -104.5q-8 -87 -45 -159.5t-94 -130.5t-129.5 -100t-151.5 -67q-8 -3 -15.5 1.5t-7.5 14.5q0 8 5.5 12t11.5 4t11.5 -4t5.5 -12q75 25 143.5 66.5t122.5 97t88.5 125.5t42.5 153q6 60 -21.5 95.5t-90.5 34.5q-64 0 -127.5 -43t-122 -112.5
t-110 -158t-91.5 -181t-67 -181t-36 -158t2.5 -112t46.5 -42.5q31 0 57 18t46 44.5t33.5 57.5t19.5 57q-8 -2 -14 3t-6 13q0 9 6 13t13 3.5t12 -5.5t3 -14q-4 -30 -18 -65t-36.5 -65.5t-52 -50.5t-63.5 -20q-36 0 -55.5 23t-26 63t0 94t23.5 116q-19 -36 -43.5 -79.5
t-53 -88t-61 -86.5t-67 -74.5t-71.5 -52t-74 -19.5q-50 0 -66.5 27t-9.5 73.5t32 109t58.5 132t70 143.5t66.5 143.5t48 131.5t14 108.5t-34.5 73.5t-98.5 27q-73 0 -140 -31.5t-125 -83.5t-105 -118t-79.5 -135t-48 -135t-10 -117.5t32.5 -83t81 -31.5q40 0 75 17t62.5 44
t47 62t28.5 71q-8 -1 -14 3.5t-6 12.5q0 9 6 13t13 3.5t12 -5.5t3 -14q-7 -41 -27 -79.5t-50 -69.5t-68.5 -50t-81.5 -19q-58 0 -88 32.5t-36.5 85.5t9 121t48 139t80.5 139.5t108 121.5t129 86t144 33q74 0 110.5 -27t45.5 -73.5t-4.5 -109t-40 -132t-61.5 -143.5
t-69 -143.5t-62 -132t-40.5 -109t-4.5 -73.5t46 -27q40 0 79.5 24t77 63t71.5 88t64 98.5t54 95t41 77.5q24 73 58.5 150t77 149.5t91.5 137.5t102 114t108 77.5t109 29.5zM917 909q12 -1 17.5 -9t4.5 -17.5t-7.5 -17.5t-17.5 -8q-14 0 -19.5 8.5t-4.5 18.5t8 18t19 7z
M988 915q13 -1 18 -9.5t4 -18t-7.5 -17.5t-17.5 -8q-14 0 -19.5 8.5t-4.5 18.5t8 18.5t19 7.5z" />
    <glyph glyph-name="Yacute" unicode="&#xdd;" horiz-adv-x="1090" 
d="M1084 587q4 3 9.5 3t10 -2t7.5 -6t1 -10q-17 -56 -41 -125.5t-54 -144t-67 -151t-80 -148t-93 -134t-107.5 -109t-121.5 -73t-135 -26.5q-67 0 -113 29t-75 77q-63 -17 -107 -9.5t-71 31.5t-38 62t-8 82t20 91t45 90t67 78.5t87 56.5q16 43 37.5 80t47 64.5t54.5 44
t61 18.5q-1 45 18.5 95.5t52.5 93.5t75.5 71.5t88.5 28.5q50 0 71 -23.5t22.5 -62t-11.5 -87.5t-30 -100.5t-33.5 -101t-22.5 -88t4 -62.5t45 -24q39 -1 94 32.5t112 91.5q48 49 92 111t76 134q1 7 5 16q2 5 4 6v1zM413 -328q77 0 147 39.5t132 105.5t116 151t98.5 176.5
t80.5 181.5t62 166q-29 -52 -63.5 -97t-71.5 -83q-59 -60 -115.5 -94t-98.5 -33q-45 0 -62 24t-16 62.5t15 88t31 101t32 100.5t18.5 87.5t-10 62t-53.5 23.5q-44 0 -84.5 -27.5t-72 -69t-50 -90.5t-17.5 -91q30 -2 51.5 -18t35.5 -44q25 9 47.5 27t41 40.5t32.5 48.5t23 50
q-7 -1 -12.5 4t-5.5 12q0 8 5 12.5t13 4.5t13.5 -7t2.5 -15q-8 -28 -22.5 -57t-34.5 -54.5t-45 -45.5t-53 -30q20 -50 20.5 -110.5t-14.5 -123.5t-43.5 -124.5t-67 -113t-85 -89.5t-97.5 -53q28 -45 71 -71t106 -27zM229 241q-19 -50 -31 -110t-14 -122t8.5 -121.5
t37.5 -107.5q49 14 95 51t84 87.5t66.5 111t43 122.5t14 121t-20.5 107q-38 -10 -62.5 7t-29.5 57q-29 -2 -55.5 -16.5t-50 -39.5t-43.5 -59t-36 -74q6 2 14.5 5.5t18.5 6.5t19 5t15 2q8 0 12 -5t4 -11.5t-4 -11.5t-12 -5t-13.5 5t-3.5 13q-15 -4 -28.5 -8.5t-27.5 -9.5z
M215 234q-57 -27 -101 -77.5t-70 -108t-32 -114.5t13.5 -98.5t66.5 -60t127 1.5q-26 48 -37 106.5t-9.5 120t13 121t29.5 109.5zM432 444q4 -33 23.5 -47t51.5 -6q-12 24 -30.5 38t-44.5 15zM980 927q2 4 8.5 2t13 -6.5t11 -9.5t3.5 -8q-18 -28 -35.5 -55.5t-34.5 -55.5
q-2 -3 -8.5 -1t-13.5 6.5t-11.5 9t-2.5 7.5q17 28 34.5 55.5t35.5 55.5z" />
    <glyph glyph-name="Thorn" unicode="&#xde;" horiz-adv-x="833" 
 />
    <glyph glyph-name="germandbls" unicode="&#xdf;" horiz-adv-x="318" 
d="M252 355q-9 -1 -31 -1l-2 -5q25 -12 42 -37q15 -26 23 -57q7 -30 6 -68q-2 -41 -10 -71q-9 -36 -24 -64q-15 -29 -35 -48q-20 -18 -46 -23q-25 -5 -54 10q-25 12 -42 35q-15 20 -24 49q-7 26 -5 56q1 27 11 56q11 29 26 50q18 23 41 36q6 4 11 -1q7 -5 3 -12t-10 -5
q-6 1 -9 8q-21 -14 -34 -35q-15 -21 -23 -47q-7 -24 -9 -53q0 -30 7 -52q6 -25 22 -46t39 -32q24 -12 46 -5.5t39.5 25.5t31.5 47q15 33 21 61q9 33 10 67q3 31 -3 65q-5 29 -19 54q-12 22 -35 34q-11 -15 -24 -20q-13 -6 -28 2q-8 6 -10 11q-2 8 1 12q2 5 9 9q12 7 29 3
q11 -4 13 -4l-1 -1q-20 10 -33 22q-16 14 -26 30q-11 20 -17 36q-7 20 -7 39q0 1 0.5 4t0.5 5q-45 -82 -79 -219q-8 -33 -20.5 -89.5t-23.5 -104t-24 -88.5q-45 -143 -121 -215q-8 -8 -15 -9t-12 6.5t-1 13.5q3 7 12 6.5t12 -7.5q24 30 48 71q23 38 41 89.5t26 83.5t23 96
l3 12q4 14 10.5 40.5t12 48.5l10.5 42l0.5 1.5t0.5 2.5q14 51 32 101q23 60 43 96q2 4 7.5 12t7.5 12q5 10 15 26q12 19 24 23q11 4 26 -3q25 -12 39 -35t18 -48t0 -52q-5 -27 -14 -46q26 -5 45 8q19 11 26 36q-7 0 -10 4t-1 10q2 4 6 5q3 3 6 1q2 0 5 -3t3 -7
q-3 -18 -9 -29q-7 -12 -18 -20q-12 -8 -25 -11zM186 334q11 6 16 18q-1 0 -5 1.5t-7 1.5q-4 2 -11 2q-6 0 -11 -2q-4 -3 -6 -6q-3 -4 -1 -8q1 -4 7 -7q8 -4 18 0zM210 366q9 22 12 43q4 26 1 49q-4 54 -44 74q-12 6 -21 2q-6 -2 -12 -9q-7 -9 -10 -20q-6 -28 3 -56
q6 -19 16 -34q12 -18 23 -29q14 -11 32 -20z" />
    <glyph glyph-name="agrave" unicode="&#xe0;" horiz-adv-x="326" 
d="M336 151q-11 -19 -26 -45t-33.5 -49.5t-40 -40t-45.5 -16.5q-25 0 -34.5 21.5t-7.5 53.5q-19 -29 -43 -51t-56 -22q-30 0 -46.5 17.5t-21 43.5t2.5 56t24 56t42 43t58 17q22 0 38.5 -12t21.5 -36q5 14 9 24.5t8 17.5q3 6 9.5 6t12.5 -2t10 -6t3 -7q-3 -6 -11 -23.5
t-16.5 -41t-16 -49t-9.5 -46.5t2.5 -35t20.5 -14q22 0 42 16t37.5 39t31.5 48t24 42zM159 148q-2 1 0 3q5 35 -10 53.5t-38 19.5t-41.5 -14.5t-31 -39t-19 -51t-5 -51t11 -39t29.5 -15.5q13 0 26.5 8t25.5 20.5t23 28t20 30.5q3 25 9 47zM174 300q3 -6 -5 -10t-11 1
q-11 23 -14.5 31t-6 12.5t-7.5 12t-18 28.5q0 1 2 3t5 3.5t5.5 2.5t3.5 0q13 -21 17.5 -28.5t7 -12t6.5 -12.5t15 -31z" />
    <glyph glyph-name="aacute" unicode="&#xe1;" horiz-adv-x="326" 
d="M336 151q-11 -19 -26 -45t-33.5 -49.5t-40 -40t-45.5 -16.5q-25 0 -34.5 21.5t-7.5 53.5q-19 -29 -43 -51t-56 -22q-30 0 -46.5 17.5t-21 43.5t2.5 56t24 56t42 43t58 17q22 0 38.5 -12t21.5 -36q5 14 9 24.5t8 17.5q3 6 9.5 6t12.5 -2t10 -6t3 -7q-3 -6 -11 -23.5
t-16.5 -41t-16 -49t-9.5 -46.5t2.5 -35t20.5 -14q22 0 42 16t37.5 39t31.5 48t24 42zM159 148q-2 1 0 3q5 35 -10 53.5t-38 19.5t-41.5 -14.5t-31 -39t-19 -51t-5 -51t11 -39t29.5 -15.5q13 0 26.5 8t25.5 20.5t23 28t20 30.5q3 25 9 47zM213 435q2 4 8.5 2t13 -6.5t11 -9.5
t3.5 -8q-18 -28 -35.5 -55.5t-34.5 -55.5q-2 -3 -8.5 -1t-13.5 6.5t-11.5 9t-2.5 7.5q17 28 34.5 55.5t35.5 55.5z" />
    <glyph glyph-name="acircumflex" unicode="&#xe2;" horiz-adv-x="326" 
d="M336 151q-11 -19 -26 -45t-33.5 -49.5t-40 -40t-45.5 -16.5q-25 0 -34.5 21.5t-7.5 53.5q-19 -29 -43 -51t-56 -22q-30 0 -46.5 17.5t-21 43.5t2.5 56t24 56t42 43t58 17q22 0 38.5 -12t21.5 -36q5 14 9 24.5t8 17.5q3 6 9.5 6t12.5 -2t10 -6t3 -7q-3 -6 -11 -23.5
t-16.5 -41t-16 -49t-9.5 -46.5t2.5 -35t20.5 -14q22 0 42 16t37.5 39t31.5 48t24 42zM159 148q-2 1 0 3q5 35 -10 53.5t-38 19.5t-41.5 -14.5t-31 -39t-19 -51t-5 -51t11 -39t29.5 -15.5q13 0 26.5 8t25.5 20.5t23 28t20 30.5q3 25 9 47zM263 353q5 -4 0.5 -8.5t-8.5 -2.5
q-27 22 -50 48t-46 51q-26 -25 -48.5 -49.5t-48.5 -50.5q-8 -8 -13 -2.5t3 13.5l105 102q2 2 2.5 2t2.5 -2q25 -25 49 -52.5t52 -48.5z" />
    <glyph glyph-name="atilde" unicode="&#xe3;" horiz-adv-x="326" 
d="M336 151q-11 -19 -26 -45t-33.5 -49.5t-40 -40t-45.5 -16.5q-25 0 -34.5 21.5t-7.5 53.5q-19 -29 -43 -51t-56 -22q-30 0 -46.5 17.5t-21 43.5t2.5 56t24 56t42 43t58 17q22 0 38.5 -12t21.5 -36q5 14 9 24.5t8 17.5q3 6 9.5 6t12.5 -2t10 -6t3 -7q-3 -6 -11 -23.5
t-16.5 -41t-16 -49t-9.5 -46.5t2.5 -35t20.5 -14q22 0 42 16t37.5 39t31.5 48t24 42zM159 148q-2 1 0 3q5 35 -10 53.5t-38 19.5t-41.5 -14.5t-31 -39t-19 -51t-5 -51t11 -39t29.5 -15.5q13 0 26.5 8t25.5 20.5t23 28t20 30.5q3 25 9 47zM277 338q13 10 17 3t-6 -14
q-33 -24 -56.5 -33.5t-40 -9t-27.5 8.5t-20.5 18t-18.5 19.5t-21 13t-29 -1.5t-42 -24q-8 -5 -10.5 -0.5t3.5 9.5q38 28 60.5 31t37.5 -6t26 -23.5t26 -22.5t38.5 -3t62.5 35z" />
    <glyph glyph-name="adieresis" unicode="&#xe4;" horiz-adv-x="326" 
d="M336 151q-11 -19 -26 -45t-33.5 -49.5t-40 -40t-45.5 -16.5q-25 0 -34.5 21.5t-7.5 53.5q-19 -29 -43 -51t-56 -22q-30 0 -46.5 17.5t-21 43.5t2.5 56t24 56t42 43t58 17q22 0 38.5 -12t21.5 -36q5 14 9 24.5t8 17.5q3 6 9.5 6t12.5 -2t10 -6t3 -7q-3 -6 -11 -23.5
t-16.5 -41t-16 -49t-9.5 -46.5t2.5 -35t20.5 -14q22 0 42 16t37.5 39t31.5 48t24 42zM159 148q-2 1 0 3q5 35 -10 53.5t-38 19.5t-41.5 -14.5t-31 -39t-19 -51t-5 -51t11 -39t29.5 -15.5q13 0 26.5 8t25.5 20.5t23 28t20 30.5q3 25 9 47zM91 381q12 -1 17.5 -9t4.5 -17.5
t-7.5 -17.5t-17.5 -8q-14 0 -19.5 8.5t-4.5 18.5t8 18t19 7zM162 387q13 -1 18 -9.5t4 -18t-7.5 -17.5t-17.5 -8q-14 0 -19.5 8.5t-4.5 18.5t8 18.5t19 7.5z" />
    <glyph glyph-name="aring" unicode="&#xe5;" horiz-adv-x="326" 
d="M336 151q-11 -19 -26 -45t-33.5 -49.5t-40 -40t-45.5 -16.5q-25 0 -34.5 21.5t-7.5 53.5q-19 -29 -43 -51t-56 -22q-30 0 -46.5 17.5t-21 43.5t2.5 56t24 56t42 43t58 17q22 0 38.5 -12t21.5 -36q5 14 9 24.5t8 17.5q3 6 9.5 6t12.5 -2t10 -6t3 -7q-3 -6 -11 -23.5
t-16.5 -41t-16 -49t-9.5 -46.5t2.5 -35t20.5 -14q22 0 42 16t37.5 39t31.5 48t24 42zM159 148q-2 1 0 3q5 35 -10 53.5t-38 19.5t-41.5 -14.5t-31 -39t-19 -51t-5 -51t11 -39t29.5 -15.5q13 0 26.5 8t25.5 20.5t23 28t20 30.5q3 25 9 47zM48 406q0 40 22.5 60t50 20
t51 -20.5t23.5 -61.5q0 -27 -11 -45t-27 -26.5t-35 -8.5t-35.5 9t-27.5 27t-11 46zM59 406q0 -24 9.5 -39.5t23.5 -23.5t30 -8t29.5 8t22.5 23t9 38q0 36 -19.5 53.5t-42.5 17.5t-42.5 -17.5t-19.5 -51.5z" />
    <glyph glyph-name="ae" unicode="&#xe6;" horiz-adv-x="564" 
d="M153 78v1q-19 -29 -45 -53t-58 -24q-30 0 -46.5 17.5t-21 43.5t2.5 56t24 56t42 43t58 17q22 0 38.5 -12t21.5 -36q5 14 9 24.5t8 17.5q3 6 9.5 6t12.5 -2t10 -6t3 -7q-3 -5 -8 -16.5t-11.5 -27t-13 -34t-11.5 -37.5zM150 101q3 22 9 50q5 35 -10 53.5t-38 19.5
t-41.5 -14.5t-31 -39t-19 -51t-5 -51t11 -39t29.5 -15.5q13 0 26.5 8t25.5 20.5t23 28t20 30.5zM407 151q-13 -23 -31 -49t-40 -48t-48.5 -36t-57.5 -14q-34 0 -52 17.5t-23.5 44t0.5 57.5t21.5 57.5t39.5 44t53 17.5t46.5 -13.5t16.5 -39.5q-1 -21 -12 -33t-27 -18
t-34.5 -8.5t-34.5 -3.5q-11 -1 -22 -1.5t-19 -2.5q-6 -16 -5.5 -34t7 -33t20.5 -25t35 -10q25 0 47.5 13t42.5 32.5t37 43.5t30 47zM320 190q0 24 -16 34t-38.5 4t-45 -29t-34.5 -65q16 3 38 3q13 1 29.5 2.5t31 7t25 15.5t10.5 28z" />
    <glyph glyph-name="ccedilla" unicode="&#xe7;" horiz-adv-x="245" 
d="M254 151q-15 -26 -37 -60t-49.5 -64t-58.5 -51t-63 -21q-34 0 -51 21.5t-20 53.5t6 69.5t27.5 69t44 52.5t56.5 21q29 0 48 -20.5t13 -62.5q-1 -9 -6.5 -7.5t-4.5 7.5q5 35 -10 53.5t-38 18.5q-22 0 -41 -19t-33 -48t-22 -63.5t-8 -64t10 -49.5t31 -21q29 -1 58.5 20
t55.5 51t47.5 63t34.5 56zM56 -33q-1 -21 5.5 -33t17.5 -19.5t24 -12t24 -10.5t17.5 -16t5.5 -28q-2 -23 -14.5 -37t-30.5 -19t-38 -1t-36 18q-8 7 -7.5 10t11.5 -6q14 -13 30.5 -16.5t31 1t24.5 17.5t12 34q1 16 -5.5 25.5t-17 15.5t-23.5 11t-23.5 12.5t-17.5 20t-6 33.5
q0 5 8 3.5t8 -3.5z" />
    <glyph glyph-name="egrave" unicode="&#xe8;" horiz-adv-x="238" 
d="M247 151q-13 -23 -31 -49t-40 -48t-48.5 -36t-57.5 -14q-34 0 -52 17.5t-23.5 44t0.5 57.5t21.5 57.5t39.5 44t53 17.5t46.5 -13.5t16.5 -39.5q-1 -21 -12 -33t-27 -18t-34.5 -8.5t-34.5 -3.5q-11 -1 -22 -1.5t-19 -2.5q-6 -16 -5.5 -34t7 -33t20.5 -25t35 -10
q25 0 47.5 13t42.5 32.5t37 43.5t30 47zM160 190q0 24 -16 34t-38.5 4t-45 -29t-34.5 -65q16 3 38 3q13 1 29.5 2.5t31 7t25 15.5t10.5 28zM146 319q4 -7 -5 -11t-12 1q-13 25 -17 34t-6.5 14t-7.5 13l-20 32q-1 2 7.5 7t10.5 3q10 -16 15 -24.5t7.5 -13t4 -7.5l4 -8l7 -14
t12.5 -26z" />
    <glyph glyph-name="eacute" unicode="&#xe9;" horiz-adv-x="238" 
d="M247 151q-13 -23 -31 -49t-40 -48t-48.5 -36t-57.5 -14q-34 0 -52 17.5t-23.5 44t0.5 57.5t21.5 57.5t39.5 44t53 17.5t46.5 -13.5t16.5 -39.5q-1 -21 -12 -33t-27 -18t-34.5 -8.5t-34.5 -3.5q-11 -1 -22 -1.5t-19 -2.5q-6 -16 -5.5 -34t7 -33t20.5 -25t35 -10
q25 0 47.5 13t42.5 32.5t37 43.5t30 47zM160 190q0 24 -16 34t-38.5 4t-45 -29t-34.5 -65q16 3 38 3q13 1 29.5 2.5t31 7t25 15.5t10.5 28zM199 457q2 4 8.5 2t13 -6.5t11 -9.5t3.5 -8q-18 -28 -35.5 -55.5t-34.5 -55.5q-2 -3 -8.5 -1t-13.5 6.5t-11.5 9t-2.5 7.5
q17 28 34.5 55.5t35.5 55.5z" />
    <glyph glyph-name="ecircumflex" unicode="&#xea;" horiz-adv-x="238" 
d="M247 151q-13 -23 -31 -49t-40 -48t-48.5 -36t-57.5 -14q-34 0 -52 17.5t-23.5 44t0.5 57.5t21.5 57.5t39.5 44t53 17.5t46.5 -13.5t16.5 -39.5q-1 -21 -12 -33t-27 -18t-34.5 -8.5t-34.5 -3.5q-11 -1 -22 -1.5t-19 -2.5q-6 -16 -5.5 -34t7 -33t20.5 -25t35 -10
q25 0 47.5 13t42.5 32.5t37 43.5t30 47zM160 190q0 24 -16 34t-38.5 4t-45 -29t-34.5 -65q16 3 38 3q13 1 29.5 2.5t31 7t25 15.5t10.5 28zM231 330q5 -5 0.5 -9.5t-9.5 -1.5q-29 23 -54 51.5t-51 56.5q-29 -28 -54 -55t-53 -55q-8 -8 -13.5 -2t2.5 14l58 56l58 56
q2 2 2.5 2t3.5 -2q27 -27 53.5 -57.5t56.5 -53.5z" />
    <glyph glyph-name="edieresis" unicode="&#xeb;" horiz-adv-x="238" 
d="M247 151q-13 -23 -31 -49t-40 -48t-48.5 -36t-57.5 -14q-34 0 -52 17.5t-23.5 44t0.5 57.5t21.5 57.5t39.5 44t53 17.5t46.5 -13.5t16.5 -39.5q-1 -21 -12 -33t-27 -18t-34.5 -8.5t-34.5 -3.5q-11 -1 -22 -1.5t-19 -2.5q-6 -16 -5.5 -34t7 -33t20.5 -25t35 -10
q25 0 47.5 13t42.5 32.5t37 43.5t30 47zM160 190q0 24 -16 34t-38.5 4t-45 -29t-34.5 -65q16 3 38 3q13 1 29.5 2.5t31 7t25 15.5t10.5 28zM160 374q12 -1 17.5 -9t4.5 -17.5t-7.5 -17.5t-17.5 -8q-14 0 -19.5 8.5t-4.5 18.5t8 18t19 7zM231 380q13 -1 18 -9.5t4 -18
t-7.5 -17.5t-17.5 -8q-14 0 -19.5 8.5t-4.5 18.5t8 18.5t19 7.5z" />
    <glyph glyph-name="igrave" unicode="&#xec;" horiz-adv-x="163" 
d="M173 151q-11 -19 -26 -45t-33.5 -49.5t-40 -40t-44.5 -16.5q-20 0 -30 14.5t-12 36.5t1 49t9 52.5t13 46t13 30.5q4 6 10.5 6t12.5 -2t10 -6t2 -7q-3 -6 -11 -23.5t-16.5 -41t-15.5 -49t-9.5 -46.5t2.5 -35t21 -14q21 0 41.5 16t37.5 39t31.5 48t23.5 42zM82 299
q3 -4 0 -8t-7.5 -6.5t-9 -2.5t-6.5 4q-11 23 -17 35l-9.5 19l-5.5 11t-6 10.5t-11 17.5t-20 33q-1 1 2 4t7.5 5.5t8.5 4t6 -0.5q19 -32 26 -43t10.5 -18t9 -19t22.5 -46z" />
    <glyph glyph-name="iacute" unicode="&#xed;" horiz-adv-x="163" 
d="M173 151q-11 -19 -26 -45t-33.5 -49.5t-40 -40t-44.5 -16.5q-20 0 -30 14.5t-12 36.5t1 49t9 52.5t13 46t13 30.5q4 6 10.5 6t12.5 -2t10 -6t2 -7q-3 -6 -11 -23.5t-16.5 -41t-15.5 -49t-9.5 -46.5t2.5 -35t21 -14q21 0 41.5 16t37.5 39t31.5 48t23.5 42zM57 409
q2 4 8.5 2t13 -6.5t11 -9.5t3.5 -8q-18 -28 -35.5 -55.5t-34.5 -55.5q-2 -3 -8.5 -1t-13.5 6.5t-11.5 9t-2.5 7.5q17 28 34.5 55.5t35.5 55.5z" />
    <glyph glyph-name="icircumflex" unicode="&#xee;" horiz-adv-x="163" 
d="M94 284q2 -2 0 -4.5t-4 -0.5q-14 11 -26.5 24.5t-25.5 27.5q-14 -14 -25.5 -26.5t-24.5 -26.5q-5 -5 -7.5 -2t1.5 7q14 14 28 27.5t28 26.5q2 2 1.5 2t1.5 -2q13 -13 25.5 -27.5t27.5 -25.5zM173 151q-11 -19 -26 -45t-33.5 -49.5t-40 -40t-44.5 -16.5q-20 0 -30 14.5
t-12 36.5t1 49t9 52.5t13 46t13 30.5q4 6 10.5 6t12.5 -2t10 -6t2 -7q-3 -6 -11 -23.5t-16.5 -41t-15.5 -49t-9.5 -46.5t2.5 -35t21 -14q21 0 41.5 16t37.5 39t31.5 48t23.5 42z" />
    <glyph glyph-name="idieresis" unicode="&#xef;" horiz-adv-x="163" 
d="M19 317q12 -1 17.5 -9t4.5 -17.5t-7.5 -17.5t-17.5 -8q-14 0 -19.5 8.5t-4.5 18.5t8 18t19 7zM90 323q13 -1 18 -9.5t4 -18t-7.5 -17.5t-17.5 -8q-14 0 -19.5 8.5t-4.5 18.5t8 18.5t19 7.5zM173 151q-11 -19 -26 -45t-33.5 -49.5t-40 -40t-44.5 -16.5q-20 0 -30 14.5
t-12 36.5t1 49t9 52.5t13 46t13 30.5q4 6 10.5 6t12.5 -2t10 -6t2 -7q-3 -6 -11 -23.5t-16.5 -41t-15.5 -49t-9.5 -46.5t2.5 -35t21 -14q21 0 41.5 16t37.5 39t31.5 48t23.5 42z" />
    <glyph glyph-name="eth" unicode="&#xf0;" horiz-adv-x="921" 
d="M307 -11q-61 0 -105.5 20.5t-72.5 56.5t-37.5 85.5t0.5 107.5q1 7 6 10t10.5 2.5t10 -4t4.5 -10.5q0 -9 -7.5 -13.5t-15.5 0.5q-7 -53 3 -98t36.5 -77.5t68.5 -50.5t99 -18q97 0 177 35.5t142 94t104.5 132.5t64.5 151.5t22.5 152t-22 133t-69.5 94.5t-119 37
q-74 1 -135 -21.5t-106.5 -60.5t-76 -86t-44.5 -98.5t-11 -99t24 -86.5t61 -61t99 -22q47 1 94.5 22t88.5 61q34 34 59 79.5t36 102.5q-7 -2 -12.5 2.5t-5.5 12.5t5.5 11.5t11.5 2.5t10.5 -5.5t3.5 -12.5q-11 -63 -37.5 -113t-63.5 -87q-42 -42 -91.5 -63.5t-98.5 -22.5
q-68 -1 -114 23t-71 63t-29.5 89t10 102.5t47.5 103t82.5 89.5t116 62.5t147.5 22.5q82 -1 135 -38t79.5 -96.5t27.5 -136t-22 -156t-68.5 -155.5t-111.5 -135.5t-151.5 -96.5t-188.5 -37z" />
    <glyph glyph-name="ntilde" unicode="&#xf1;" horiz-adv-x="325" 
d="M335 151q-11 -19 -26 -45t-33.5 -49.5t-40 -40t-45.5 -16.5q-27 0 -37 24.5t-9.5 58t8.5 69t17 58.5q-18 -20 -38 -43.5t-41 -48.5t-42.5 -50t-42.5 -47q-6 -6 -13.5 -8t-14.5 -1t-11 5t-2 11q11 41 25 90.5t28 91.5q5 15 13 20.5t14.5 5t11 -5.5t3.5 -10q0 -1 -4.5 -15
t-11 -34.5t-13.5 -44.5t-13.5 -44.5t-11 -35t-4.5 -15.5q9 9 25 27.5t34.5 41t39 46.5t38.5 44t32 32.5t20 12.5q14 0 17.5 -6t1 -15t-7.5 -19t-8 -18q-9 -23 -17.5 -52t-11 -54.5t3 -42.5t22.5 -17q22 0 42 16t37.5 39t31.5 48t24 42zM276 334q14 11 18 4t-7 -15
q-48 -35 -77.5 -42t-48 1t-31.5 24t-27.5 26.5t-36 9t-57.5 -28.5q-8 -6 -11 -0.5t4 10.5q31 23 52.5 30t36.5 4.5t25.5 -12t20.5 -20.5t20.5 -20t26.5 -11t38 6.5t54 33.5z" />
    <glyph glyph-name="ograve" unicode="&#xf2;" horiz-adv-x="264" 
d="M274 151q-9 -16 -24 -37.5t-33 -41.5t-38.5 -34.5t-39.5 -14.5q-16 0 -28 6q-11 -11 -24 -19t-30 -8q-34 0 -52.5 17.5t-23 43.5t3 56t25 56t43 43t56.5 17q29 0 48 -20.5t13 -63.5q0 -1 -1 -2q1 -14 -3 -29t-11 -30t-16.5 -28.5t-18.5 -23.5q10 -4 19 -4q17 0 36 14
t36 33t31 40t22 35zM58 14q12 0 23.5 7t20.5 15q-15 14 -18.5 38.5t2 48t19 40.5t32.5 17q14 0 22 -8q-2 25 -15.5 38t-33.5 14q-22 0 -40.5 -15.5t-31.5 -39t-19.5 -51t-5 -51t12 -39t32.5 -14.5zM110 44q17 17 31.5 44t16.5 52q1 12 -3 20t-18 9q-15 0 -25.5 -15t-15 -36
t-1.5 -42t15 -32zM132 349q3 -4 0 -8t-7.5 -6.5t-9 -2.5t-6.5 4q-12 23 -17.5 35t-9 19l-5.5 11t-6 10.5t-11 17.5t-20 33q-1 1 2 4t7.5 5.5t8.5 4t6 -0.5q19 -32 26 -43t10.5 -18t9 -19t22.5 -46z" />
    <glyph glyph-name="oacute" unicode="&#xf3;" horiz-adv-x="264" 
d="M274 151q-9 -16 -24 -37.5t-33 -41.5t-38.5 -34.5t-39.5 -14.5q-16 0 -28 6q-11 -11 -24 -19t-30 -8q-34 0 -52.5 17.5t-23 43.5t3 56t25 56t43 43t56.5 17q29 0 48 -20.5t13 -63.5q0 -1 -1 -2q1 -14 -3 -29t-11 -30t-16.5 -28.5t-18.5 -23.5q10 -4 19 -4q17 0 36 14
t36 33t31 40t22 35zM58 14q12 0 23.5 7t20.5 15q-15 14 -18.5 38.5t2 48t19 40.5t32.5 17q14 0 22 -8q-2 25 -15.5 38t-33.5 14q-22 0 -40.5 -15.5t-31.5 -39t-19.5 -51t-5 -51t12 -39t32.5 -14.5zM110 44q17 17 31.5 44t16.5 52q1 12 -3 20t-18 9q-15 0 -25.5 -15t-15 -36
t-1.5 -42t15 -32zM213 437q2 4 8.5 2t13 -6.5t11 -9.5t3.5 -8q-18 -28 -35.5 -55.5t-34.5 -55.5q-2 -3 -8.5 -1t-13.5 6.5t-11.5 9t-2.5 7.5q17 28 34.5 55.5t35.5 55.5z" />
    <glyph glyph-name="ocircumflex" unicode="&#xf4;" horiz-adv-x="264" 
d="M274 151q-9 -16 -24 -37.5t-33 -41.5t-38.5 -34.5t-39.5 -14.5q-16 0 -28 6q-11 -11 -24 -19t-30 -8q-34 0 -52.5 17.5t-23 43.5t3 56t25 56t43 43t56.5 17q29 0 48 -20.5t13 -63.5q0 -1 -1 -2q1 -14 -3 -29t-11 -30t-16.5 -28.5t-18.5 -23.5q10 -4 19 -4q17 0 36 14
t36 33t31 40t22 35zM58 14q12 0 23.5 7t20.5 15q-15 14 -18.5 38.5t2 48t19 40.5t32.5 17q14 0 22 -8q-2 25 -15.5 38t-33.5 14q-22 0 -40.5 -15.5t-31.5 -39t-19.5 -51t-5 -51t12 -39t32.5 -14.5zM110 44q17 17 31.5 44t16.5 52q1 12 -3 20t-18 9q-15 0 -25.5 -15t-15 -36
t-1.5 -42t15 -32zM299 298q6 -5 0 -11.5t-11 -2.5q-36 29 -67.5 64.5t-63.5 70.5q-36 -35 -66.5 -68.5t-65.5 -68.5q-5 -5 -10 -5.5t-7.5 2.5t-2 8t5.5 10q36 35 72 69.5t72 69.5q3 3 3.5 3t3.5 -3q34 -34 66.5 -71.5t70.5 -66.5z" />
    <glyph glyph-name="otilde" unicode="&#xf5;" horiz-adv-x="264" 
d="M274 151q-9 -16 -24 -37.5t-33 -41.5t-38.5 -34.5t-39.5 -14.5q-16 0 -28 6q-11 -11 -24 -19t-30 -8q-34 0 -52.5 17.5t-23 43.5t3 56t25 56t43 43t56.5 17q29 0 48 -20.5t13 -63.5q0 -1 -1 -2q1 -14 -3 -29t-11 -30t-16.5 -28.5t-18.5 -23.5q10 -4 19 -4q17 0 36 14
t36 33t31 40t22 35zM58 14q12 0 23.5 7t20.5 15q-15 14 -18.5 38.5t2 48t19 40.5t32.5 17q14 0 22 -8q-2 25 -15.5 38t-33.5 14q-22 0 -40.5 -15.5t-31.5 -39t-19.5 -51t-5 -51t12 -39t32.5 -14.5zM110 44q17 17 31.5 44t16.5 52q1 12 -3 20t-18 9q-15 0 -25.5 -15t-15 -36
t-1.5 -42t15 -32zM252 338q14 8 18 2.5t-7 -11.5q-47 -27 -76 -32.5t-47.5 1t-31 18.5t-27 20.5t-35.5 7t-57 -22.5q-8 -5 -10.5 -1t3.5 9q41 23 65 26t40 -4.5t28 -20t28.5 -19t41.5 -2.5t67 29z" />
    <glyph glyph-name="odieresis" unicode="&#xf6;" horiz-adv-x="264" 
d="M274 151q-9 -16 -24 -37.5t-33 -41.5t-38.5 -34.5t-39.5 -14.5q-16 0 -28 6q-11 -11 -24 -19t-30 -8q-34 0 -52.5 17.5t-23 43.5t3 56t25 56t43 43t56.5 17q29 0 48 -20.5t13 -63.5q0 -1 -1 -2q1 -14 -3 -29t-11 -30t-16.5 -28.5t-18.5 -23.5q10 -4 19 -4q17 0 36 14
t36 33t31 40t22 35zM58 14q12 0 23.5 7t20.5 15q-15 14 -18.5 38.5t2 48t19 40.5t32.5 17q14 0 22 -8q-2 25 -15.5 38t-33.5 14q-22 0 -40.5 -15.5t-31.5 -39t-19.5 -51t-5 -51t12 -39t32.5 -14.5zM110 44q17 17 31.5 44t16.5 52q1 12 -3 20t-18 9q-15 0 -25.5 -15t-15 -36
t-1.5 -42t15 -32zM88 364q12 -1 17.5 -9t4.5 -17.5t-7.5 -17.5t-17.5 -8q-14 0 -19.5 8.5t-4.5 18.5t8 18t19 7zM159 370q13 -1 18 -9.5t4 -18t-7.5 -17.5t-17.5 -8q-14 0 -19.5 8.5t-4.5 18.5t8 18.5t19 7.5z" />
    <glyph glyph-name="divide" unicode="&#xf7;" horiz-adv-x="328" 
d="M106 116q13 -1 18 -9.5t4 -18t-8 -17.5t-18 -8q-14 0 -20 8.5t-5 19t8.5 18.5t20.5 7zM115 251q13 -1 18 -9.5t4 -18.5t-7.5 -18t-18.5 -8q-14 0 -20 8.5t-5 19t8.5 19t20.5 7.5zM298 171q6 0 9 -5.5t3 -11.5t-2.5 -11.5t-8.5 -5.5q-103 0 -208.5 0.5t-207.5 -7.5
q-2 0 -3.5 5t-2.5 11.5t0 12t4 5.5q103 8 208.5 7t208.5 0z" />
    <glyph glyph-name="oslash" unicode="&#xf8;" horiz-adv-x="264" 
d="M274 151q-9 -16 -24 -37.5t-33 -41.5t-38.5 -34.5t-39.5 -14.5q-16 0 -28 6q-11 -11 -24 -19t-30 -8q-34 0 -52.5 17.5t-23 43.5t3 56t25 56t43 43t56.5 17q29 0 48 -20.5t13 -63.5q0 -1 -1 -2q1 -14 -3 -29t-11 -30t-16.5 -28.5t-18.5 -23.5q10 -4 19 -4q17 0 36 14
t36 33t31 40t22 35zM58 14q12 0 23.5 7t20.5 15q-15 14 -18.5 38.5t2 48t19 40.5t32.5 17q14 0 22 -8q-2 25 -15.5 38t-33.5 14q-22 0 -40.5 -15.5t-31.5 -39t-19.5 -51t-5 -51t12 -39t32.5 -14.5zM110 44q17 17 31.5 44t16.5 52q1 12 -3 20t-18 9q-15 0 -25.5 -15t-15 -36
t-1.5 -42t15 -32zM168 401q1 2 4 2.5t6 -0.5t5.5 -3t1.5 -3q-16 -50 -29 -88t-24.5 -70t-22 -61.5t-22 -62t-24.5 -70.5t-29 -88q-1 -4 -9.5 -2t-7.5 7q16 50 29 88t24.5 70t22 61.5t22 61.5t24.5 70t29 88z" />
    <glyph glyph-name="ugrave" unicode="&#xf9;" horiz-adv-x="363" 
d="M372 151q-11 -19 -26 -45t-33.5 -49.5t-40 -40t-44.5 -16.5q-20 0 -30.5 15t-14 38t-1.5 50.5t8 53.5q-11 -19 -26 -46t-34 -51.5t-42 -42t-48 -17.5q-24 -1 -36.5 12.5t-16.5 35t-1 47.5t10 51t15.5 46t16.5 32q5 7 11 9.5t11.5 1.5t9 -5t3.5 -10q-1 -10 -7.5 -21.5
t-10.5 -21.5q-3 -7 -8.5 -22t-11.5 -33.5t-10 -38.5t-3.5 -36t7.5 -26.5t24 -9.5q26 1 51 25t47 57t39.5 67.5t28.5 54.5q4 8 10.5 12t13 4.5t11 -3t4.5 -11.5q0 -10 -7 -20.5t-11 -19.5q-9 -23 -17 -52t-10.5 -54.5t2.5 -42.5t23 -17q21 0 41.5 16t37.5 39t31.5 48t23.5 42
zM180 297q2 -3 0 -6.5t-6 -5.5t-8.5 -2t-5.5 3q-10 20 -15 30.5t-8 16.5l-5 10t-5.5 9.5t-9.5 15.5t-18 29q0 1 2.5 3.5t6.5 5t7.5 3.5t4.5 -1q17 -28 23 -37.5t9.5 -15.5t8 -17t19.5 -41z" />
    <glyph glyph-name="uacute" unicode="&#xfa;" horiz-adv-x="363" 
d="M372 151q-11 -19 -26 -45t-33.5 -49.5t-40 -40t-44.5 -16.5q-20 0 -30.5 15t-14 38t-1.5 50.5t8 53.5q-11 -19 -26 -46t-34 -51.5t-42 -42t-48 -17.5q-24 -1 -36.5 12.5t-16.5 35t-1 47.5t10 51t15.5 46t16.5 32q5 7 11 9.5t11.5 1.5t9 -5t3.5 -10q-1 -10 -7.5 -21.5
t-10.5 -21.5q-3 -7 -8.5 -22t-11.5 -33.5t-10 -38.5t-3.5 -36t7.5 -26.5t24 -9.5q26 1 51 25t47 57t39.5 67.5t28.5 54.5q4 8 10.5 12t13 4.5t11 -3t4.5 -11.5q0 -10 -7 -20.5t-11 -19.5q-9 -23 -17 -52t-10.5 -54.5t2.5 -42.5t23 -17q21 0 41.5 16t37.5 39t31.5 48t23.5 42
zM159 380q2 4 8.5 2t13 -6.5t11 -9.5t3.5 -8q-18 -28 -35.5 -55.5t-34.5 -55.5q-2 -3 -8.5 -1t-13.5 6.5t-11.5 9t-2.5 7.5q17 28 34.5 55.5t35.5 55.5z" />
    <glyph glyph-name="ucircumflex" unicode="&#xfb;" horiz-adv-x="363" 
d="M372 151q-11 -19 -26 -45t-33.5 -49.5t-40 -40t-44.5 -16.5q-20 0 -30.5 15t-14 38t-1.5 50.5t8 53.5q-11 -19 -26 -46t-34 -51.5t-42 -42t-48 -17.5q-24 -1 -36.5 12.5t-16.5 35t-1 47.5t10 51t15.5 46t16.5 32q5 7 11 9.5t11.5 1.5t9 -5t3.5 -10q-1 -10 -7.5 -21.5
t-10.5 -21.5q-3 -7 -8.5 -22t-11.5 -33.5t-10 -38.5t-3.5 -36t7.5 -26.5t24 -9.5q26 1 51 25t47 57t39.5 67.5t28.5 54.5q4 8 10.5 12t13 4.5t11 -3t4.5 -11.5q0 -10 -7 -20.5t-11 -19.5q-9 -23 -17 -52t-10.5 -54.5t2.5 -42.5t23 -17q21 0 41.5 16t37.5 39t31.5 48t23.5 42
zM208 306q2 -2 -0.5 -5t-4.5 -1q-17 14 -32 30.5t-30 32.5q-17 -16 -31.5 -32t-30.5 -32q-5 -5 -8.5 -1.5t1.5 8.5q17 16 34 32.5t34 32.5q2 2 1.5 2t1.5 -2q16 -16 31.5 -33.5t33.5 -31.5z" />
    <glyph glyph-name="udieresis" unicode="&#xfc;" horiz-adv-x="363" 
d="M372 151q-11 -19 -26 -45t-33.5 -49.5t-40 -40t-44.5 -16.5q-20 0 -30.5 15t-14 38t-1.5 50.5t8 53.5q-11 -19 -26 -46t-34 -51.5t-42 -42t-48 -17.5q-24 -1 -36.5 12.5t-16.5 35t-1 47.5t10 51t15.5 46t16.5 32q5 7 11 9.5t11.5 1.5t9 -5t3.5 -10q-1 -10 -7.5 -21.5
t-10.5 -21.5q-3 -7 -8.5 -22t-11.5 -33.5t-10 -38.5t-3.5 -36t7.5 -26.5t24 -9.5q26 1 51 25t47 57t39.5 67.5t28.5 54.5q4 8 10.5 12t13 4.5t11 -3t4.5 -11.5q0 -10 -7 -20.5t-11 -19.5q-9 -23 -17 -52t-10.5 -54.5t2.5 -42.5t23 -17q21 0 41.5 16t37.5 39t31.5 48t23.5 42
zM133 352q12 -1 17.5 -9t4.5 -17.5t-7.5 -17.5t-17.5 -8q-14 0 -19.5 8.5t-4.5 18.5t8 18t19 7zM204 358q13 -1 18 -9.5t4 -18t-7.5 -17.5t-17.5 -8q-14 0 -19.5 8.5t-4.5 18.5t8 18.5t19 7.5z" />
    <glyph glyph-name="yacute" unicode="&#xfd;" horiz-adv-x="321" 
d="M330 151q-35 -58 -74.5 -91t-82.5 -59q-11 -32 -27.5 -75t-36.5 -88.5t-43.5 -90t-48.5 -79.5t-51 -57t-52 -22q-19 0 -28.5 9.5t-13 23.5t-2 30t4.5 29q13 52 38 97t59.5 83.5t75.5 70.5t85 58q13 40 27 82t25 84q-11 -20 -26.5 -46.5t-34.5 -51t-40.5 -41.5t-45.5 -17
q-22 0 -32.5 17.5t-13 43.5t1 56.5t11 56.5t16 43.5t16.5 17.5q23 0 21 -15q-1 -10 -7.5 -21.5t-10.5 -21.5q-9 -23 -17 -52t-10.5 -54.5t2.5 -42.5t23 -17q25 0 50 23.5t47 56.5t40 67.5t30 56.5q14 20 24 11t-1 -43q-9 -40 -22.5 -83.5t-26.5 -82.5q38 25 74 56.5t68 83.5
zM-87 -400q22 1 43.5 19.5t42 49t39.5 69.5t35.5 80.5t30 82l24.5 73.5q-42 -25 -80.5 -56t-70.5 -68.5t-55.5 -80.5t-35.5 -91q-2 -10 -4 -23.5t0 -25.5t9 -20.5t22 -8.5zM216 475q2 4 8.5 2t13 -6.5t11 -9.5t3.5 -8q-18 -28 -35.5 -55.5t-34.5 -55.5q-2 -3 -8.5 -1
t-13.5 6.5t-11.5 9t-2.5 7.5q17 28 34.5 55.5t35.5 55.5z" />
    <glyph glyph-name="thorn" unicode="&#xfe;" horiz-adv-x="615" 
d="M174 464q33 44 73.5 63t92.5 19q104 0 162 -73t58 -204t-58 -205t-162 -74q-108 0 -167 78h-6q6 -64 6 -84v-224h-88v1000h88v-224q0 -34 -3 -72h4zM325 472q-79 0 -115 -43.5t-37 -140.5v-19q0 -109 36 -157.5t117 -48.5q143 0 143 207q0 102 -35 152t-109 50z" />
    <glyph glyph-name="ydieresis" unicode="&#xff;" horiz-adv-x="321" 
d="M330 151q-35 -58 -74.5 -91t-82.5 -59q-11 -32 -27.5 -75t-36.5 -88.5t-43.5 -90t-48.5 -79.5t-51 -57t-52 -22q-19 0 -28.5 9.5t-13 23.5t-2 30t4.5 29q13 52 38 97t59.5 83.5t75.5 70.5t85 58q13 40 27 82t25 84q-11 -20 -26.5 -46.5t-34.5 -51t-40.5 -41.5t-45.5 -17
q-22 0 -32.5 17.5t-13 43.5t1 56.5t11 56.5t16 43.5t16.5 17.5q23 0 21 -15q-1 -10 -7.5 -21.5t-10.5 -21.5q-9 -23 -17 -52t-10.5 -54.5t2.5 -42.5t23 -17q25 0 50 23.5t47 56.5t40 67.5t30 56.5q14 20 24 11t-1 -43q-9 -40 -22.5 -83.5t-26.5 -82.5q38 25 74 56.5t68 83.5
zM-87 -400q22 1 43.5 19.5t42 49t39.5 69.5t35.5 80.5t30 82l24.5 73.5q-42 -25 -80.5 -56t-70.5 -68.5t-55.5 -80.5t-35.5 -91q-2 -10 -4 -23.5t0 -25.5t9 -20.5t22 -8.5zM131 342q12 -1 17.5 -9t4.5 -17.5t-7.5 -17.5t-17.5 -8q-14 0 -19.5 8.5t-4.5 18.5t8 18t19 7z
M202 348q13 -1 18 -9.5t4 -18t-7.5 -17.5t-17.5 -8q-14 0 -19.5 8.5t-4.5 18.5t8 18.5t19 7.5z" />
    <glyph glyph-name="Amacron" unicode="&#x100;" horiz-adv-x="639" 
d="M178 842h297v-71h-297v71zM1396 649q17 0 17 -16q0 -7 -5 -12t-12 -5q-11 0 -16 10q-47 -41 -83 -90.5t-65 -104t-53.5 -112.5t-48.5 -116q39 11 71.5 29.5t55.5 46.5q-12 3 -12 16q0 7 5 12t12 5q8 0 13 -5t5 -12q0 -4 -4 -10q-26 -37 -64.5 -60t-86.5 -35
q-26 -62 -53 -122t-60 -114t-75 -100.5t-97 -81.5q-5 -3 -10 -3q-17 0 -17 17q0 16 17 16q13 0 16 -12q41 30 73.5 72t60.5 93t53 108.5t51 118.5q-49 -8 -103.5 -8t-112.5 5q-22 -32 -52.5 -80.5t-67.5 -102.5t-79 -108t-86 -97t-89.5 -69.5t-88.5 -26.5q-46 1 -83 30
t-53 89q0 3 -2 9q-14 -2 -29 -3.5t-31 -1.5q-74 -1 -121.5 32.5t-68.5 83.5q-19 45 -17 93q2 50 21 95q14 31 37 59t54.5 49t71.5 33t89 12q26 0 58 -3q22 49 49.5 91.5t59.5 74t68 49.5t74 19q45 1 73 -21.5t41 -60.5q15 -50 6 -117q-6 -45 -21 -91q39 -7 78 -12t77 -10
q53 77 112 150t124.5 133.5t137.5 103t152 58.5q19 8 30 10h3h1zM582 494q-36 0 -70 -17.5t-64.5 -47.5t-57 -70.5t-47.5 -87.5q51 -5 109 -15t121 -21q23 -4 47.5 -8t49.5 -9q8 23 13 46t8 44q9 66 -6 112q-11 35 -36.5 55t-66.5 19zM207 -171q15 0 29.5 1.5t28.5 3.5
q-7 31 -9 65.5t0 70.5q3 43 10.5 87t19.5 88q8 30 18 59t22 57q-29 3 -53 3q-47 0 -85.5 -11.5t-68.5 -31.5t-52 -46.5t-35 -56.5q-10 -22 -15 -45t-6 -46q0 -49 16 -88q20 -48 64.5 -79.5t115.5 -30.5zM268 -30q-4 -72 8 -134q67 12 125 45t105.5 78.5t84.5 100.5t61 111
q4 9 7.5 18t6.5 18q-24 5 -48 9t-47 8q-64 12 -123 21.5t-110 14.5q-25 -57 -41 -118q-24 -87 -29 -172zM399 -293q36 0 77 27t82.5 70.5t82 97.5t76 107t64.5 99.5t48 74.5q-38 5 -76 10.5t-76 11.5q-7 -20 -15 -38q-24 -57 -61.5 -113t-86.5 -102.5t-108.5 -80
t-127.5 -46.5q2 -6 2 -8q15 -56 47 -83t72 -27zM1089 194q25 58 52 116.5t60 114t73 107t90 95.5q-77 -21 -144.5 -65t-128 -102.5t-114 -128t-102.5 -141.5q58 -5 112 -4.5t102 8.5z" />
    <glyph glyph-name="amacron" unicode="&#x101;" horiz-adv-x="561" 
d="M143 677h297v-71h-297v71zM336 151q-11 -19 -26 -45t-33.5 -49.5t-40 -40t-45.5 -16.5q-25 0 -34.5 21.5t-7.5 53.5q-19 -29 -43 -51t-56 -22q-30 0 -46.5 17.5t-21 43.5t2.5 56t24 56t42 43t58 17q22 0 38.5 -12t21.5 -36q5 14 9 24.5t8 17.5q3 6 9.5 6t12.5 -2t10 -6
t3 -7q-3 -6 -11 -23.5t-16.5 -41t-16 -49t-9.5 -46.5t2.5 -35t20.5 -14q22 0 42 16t37.5 39t31.5 48t24 42zM159 148q-2 1 0 3q5 35 -10 53.5t-38 19.5t-41.5 -14.5t-31 -39t-19 -51t-5 -51t11 -39t29.5 -15.5q13 0 26.5 8t25.5 20.5t23 28t20 30.5q3 25 9 47z" />
    <glyph glyph-name="Abreve" unicode="&#x102;" horiz-adv-x="639" 
d="M413 911q5 -24 -8 -40t-34.5 -24.5t-48 -9t-48.5 7.5t-35.5 24.5t-9.5 42.5q1 6 8.5 7t6.5 -8q-4 -20 7 -32.5t29.5 -18.5t40.5 -6t40.5 6.5t30 19t7.5 30.5q-2 10 5 9.5t9 -8.5zM1396 649q17 0 17 -16q0 -7 -5 -12t-12 -5q-11 0 -16 10q-47 -41 -83 -90.5t-65 -104
t-53.5 -112.5t-48.5 -116q39 11 71.5 29.5t55.5 46.5q-12 3 -12 16q0 7 5 12t12 5q8 0 13 -5t5 -12q0 -4 -4 -10q-26 -37 -64.5 -60t-86.5 -35q-26 -62 -53 -122t-60 -114t-75 -100.5t-97 -81.5q-5 -3 -10 -3q-17 0 -17 17q0 16 17 16q13 0 16 -12q41 30 73.5 72t60.5 93
t53 108.5t51 118.5q-49 -8 -103.5 -8t-112.5 5q-22 -32 -52.5 -80.5t-67.5 -102.5t-79 -108t-86 -97t-89.5 -69.5t-88.5 -26.5q-46 1 -83 30t-53 89q0 3 -2 9q-14 -2 -29 -3.5t-31 -1.5q-74 -1 -121.5 32.5t-68.5 83.5q-19 45 -17 93q2 50 21 95q14 31 37 59t54.5 49
t71.5 33t89 12q26 0 58 -3q22 49 49.5 91.5t59.5 74t68 49.5t74 19q45 1 73 -21.5t41 -60.5q15 -50 6 -117q-6 -45 -21 -91q39 -7 78 -12t77 -10q53 77 112 150t124.5 133.5t137.5 103t152 58.5q19 8 30 10h3h1zM582 494q-36 0 -70 -17.5t-64.5 -47.5t-57 -70.5t-47.5 -87.5
q51 -5 109 -15t121 -21q23 -4 47.5 -8t49.5 -9q8 23 13 46t8 44q9 66 -6 112q-11 35 -36.5 55t-66.5 19zM207 -171q15 0 29.5 1.5t28.5 3.5q-7 31 -9 65.5t0 70.5q3 43 10.5 87t19.5 88q8 30 18 59t22 57q-29 3 -53 3q-47 0 -85.5 -11.5t-68.5 -31.5t-52 -46.5t-35 -56.5
q-10 -22 -15 -45t-6 -46q0 -49 16 -88q20 -48 64.5 -79.5t115.5 -30.5zM268 -30q-4 -72 8 -134q67 12 125 45t105.5 78.5t84.5 100.5t61 111q4 9 7.5 18t6.5 18q-24 5 -48 9t-47 8q-64 12 -123 21.5t-110 14.5q-25 -57 -41 -118q-24 -87 -29 -172zM399 -293q36 0 77 27
t82.5 70.5t82 97.5t76 107t64.5 99.5t48 74.5q-38 5 -76 10.5t-76 11.5q-7 -20 -15 -38q-24 -57 -61.5 -113t-86.5 -102.5t-108.5 -80t-127.5 -46.5q2 -6 2 -8q15 -56 47 -83t72 -27zM1089 194q25 58 52 116.5t60 114t73 107t90 95.5q-77 -21 -144.5 -65t-128 -102.5
t-114 -128t-102.5 -141.5q58 -5 112 -4.5t102 8.5z" />
    <glyph glyph-name="abreve" unicode="&#x103;" horiz-adv-x="561" 
d="M378 746q5 -24 -8 -40t-34.5 -24.5t-48 -9t-48.5 7.5t-35.5 24.5t-9.5 42.5q1 6 8.5 7t6.5 -8q-4 -20 7 -32.5t29.5 -18.5t40.5 -6t40.5 6.5t30 19t7.5 30.5q-2 10 5 9.5t9 -8.5zM336 151q-11 -19 -26 -45t-33.5 -49.5t-40 -40t-45.5 -16.5q-25 0 -34.5 21.5t-7.5 53.5
q-19 -29 -43 -51t-56 -22q-30 0 -46.5 17.5t-21 43.5t2.5 56t24 56t42 43t58 17q22 0 38.5 -12t21.5 -36q5 14 9 24.5t8 17.5q3 6 9.5 6t12.5 -2t10 -6t3 -7q-3 -6 -11 -23.5t-16.5 -41t-16 -49t-9.5 -46.5t2.5 -35t20.5 -14q22 0 42 16t37.5 39t31.5 48t24 42zM159 148
q-2 1 0 3q5 35 -10 53.5t-38 19.5t-41.5 -14.5t-31 -39t-19 -51t-5 -51t11 -39t29.5 -15.5q13 0 26.5 8t25.5 20.5t23 28t20 30.5q3 25 9 47z" />
    <glyph glyph-name="Aogonek" unicode="&#x104;" horiz-adv-x="639" 
d="M658 -45q7 12 8.5 9t-4.5 -12q-16 -25 -39.5 -32t-45 -1t-35 23.5t-8.5 40.5q1 4 4.5 11t7.5 10.5t6 0t-1 -20.5q-3 -19 7.5 -34.5t28 -22t37 -1t34.5 28.5zM1396 649q17 0 17 -16q0 -7 -5 -12t-12 -5q-11 0 -16 10q-47 -41 -83 -90.5t-65 -104t-53.5 -112.5t-48.5 -116
q39 11 71.5 29.5t55.5 46.5q-12 3 -12 16q0 7 5 12t12 5q8 0 13 -5t5 -12q0 -4 -4 -10q-26 -37 -64.5 -60t-86.5 -35q-26 -62 -53 -122t-60 -114t-75 -100.5t-97 -81.5q-5 -3 -10 -3q-17 0 -17 17q0 16 17 16q13 0 16 -12q41 30 73.5 72t60.5 93t53 108.5t51 118.5
q-49 -8 -103.5 -8t-112.5 5q-22 -32 -52.5 -80.5t-67.5 -102.5t-79 -108t-86 -97t-89.5 -69.5t-88.5 -26.5q-46 1 -83 30t-53 89q0 3 -2 9q-14 -2 -29 -3.5t-31 -1.5q-74 -1 -121.5 32.5t-68.5 83.5q-19 45 -17 93q2 50 21 95q14 31 37 59t54.5 49t71.5 33t89 12q26 0 58 -3
q22 49 49.5 91.5t59.5 74t68 49.5t74 19q45 1 73 -21.5t41 -60.5q15 -50 6 -117q-6 -45 -21 -91q39 -7 78 -12t77 -10q53 77 112 150t124.5 133.5t137.5 103t152 58.5q19 8 30 10h3h1zM582 494q-36 0 -70 -17.5t-64.5 -47.5t-57 -70.5t-47.5 -87.5q51 -5 109 -15t121 -21
q23 -4 47.5 -8t49.5 -9q8 23 13 46t8 44q9 66 -6 112q-11 35 -36.5 55t-66.5 19zM207 -171q15 0 29.5 1.5t28.5 3.5q-7 31 -9 65.5t0 70.5q3 43 10.5 87t19.5 88q8 30 18 59t22 57q-29 3 -53 3q-47 0 -85.5 -11.5t-68.5 -31.5t-52 -46.5t-35 -56.5q-10 -22 -15 -45t-6 -46
q0 -49 16 -88q20 -48 64.5 -79.5t115.5 -30.5zM268 -30q-4 -72 8 -134q67 12 125 45t105.5 78.5t84.5 100.5t61 111q4 9 7.5 18t6.5 18q-24 5 -48 9t-47 8q-64 12 -123 21.5t-110 14.5q-25 -57 -41 -118q-24 -87 -29 -172zM399 -293q36 0 77 27t82.5 70.5t82 97.5t76 107
t64.5 99.5t48 74.5q-38 5 -76 10.5t-76 11.5q-7 -20 -15 -38q-24 -57 -61.5 -113t-86.5 -102.5t-108.5 -80t-127.5 -46.5q2 -6 2 -8q15 -56 47 -83t72 -27zM1089 194q25 58 52 116.5t60 114t73 107t90 95.5q-77 -21 -144.5 -65t-128 -102.5t-114 -128t-102.5 -141.5
q58 -5 112 -4.5t102 8.5z" />
    <glyph glyph-name="aogonek" unicode="&#x105;" horiz-adv-x="561" 
d="M528 -45q7 12 8.5 9t-4.5 -12q-16 -25 -39.5 -32t-45 -1t-35 23.5t-8.5 40.5q1 4 4.5 11t7.5 10.5t6 0t-1 -20.5q-3 -19 7.5 -34.5t28 -22t37 -1t34.5 28.5zM336 151q-11 -19 -26 -45t-33.5 -49.5t-40 -40t-45.5 -16.5q-25 0 -34.5 21.5t-7.5 53.5q-19 -29 -43 -51
t-56 -22q-30 0 -46.5 17.5t-21 43.5t2.5 56t24 56t42 43t58 17q22 0 38.5 -12t21.5 -36q5 14 9 24.5t8 17.5q3 6 9.5 6t12.5 -2t10 -6t3 -7q-3 -6 -11 -23.5t-16.5 -41t-16 -49t-9.5 -46.5t2.5 -35t20.5 -14q22 0 42 16t37.5 39t31.5 48t24 42zM159 148q-2 1 0 3
q5 35 -10 53.5t-38 19.5t-41.5 -14.5t-31 -39t-19 -51t-5 -51t11 -39t29.5 -15.5q13 0 26.5 8t25.5 20.5t23 28t20 30.5q3 25 9 47z" />
    <glyph glyph-name="Cacute" unicode="&#x106;" horiz-adv-x="631" 
d="M758 576q-15 -50 -47 -99.5t-76 -94t-97 -82t-109.5 -63.5t-114 -39t-110.5 -8q-39 -88 -61 -171.5t-23 -148.5t23 -104.5t77 -39.5q48 0 97 20t95.5 54t88.5 78.5t74.5 93.5t54.5 98.5t29 93.5q-8 -2 -14.5 3t-6.5 13q0 9 5.5 13t12.5 3.5t12 -5t4 -13.5q-4 -46 -25 -98
t-54.5 -103.5t-77.5 -99t-93 -84t-100.5 -58t-101.5 -21.5q-68 0 -99.5 41.5t-34 109t20 153.5t64.5 177q-66 14 -105 54t-54.5 92.5t-10 110t29.5 106t64 81.5t93 36q44 2 66.5 -15t28 -45t-3.5 -61t-29 -63q-5 -7 -14 -7q-8 0 -13 4.5t-5 11.5t5 12t13 5q7 0 13 -6
q16 26 22 53.5t0 50t-25.5 36.5t-56.5 12q-50 -2 -88 -33.5t-60.5 -78t-28 -102t9.5 -105.5t52.5 -88t101.5 -51q43 92 102 180t126 156.5t139 110t142 41.5q28 0 45.5 -9.5t26 -25.5t8.5 -37t-7 -45zM685 682q-67 0 -134.5 -41.5t-130 -109t-117 -154t-94.5 -176.5
q51 -4 107 9t111 38.5t106.5 62.5t94 80t73.5 91t46 97q6 21 6.5 39.5t-6 33t-22 22.5t-40.5 8zM291 864q2 4 8.5 2t13 -6.5t11 -9.5t3.5 -8q-18 -28 -35.5 -55.5t-34.5 -55.5q-2 -3 -8.5 -1t-13.5 6.5t-11.5 9t-2.5 7.5q17 28 34.5 55.5t35.5 55.5z" />
    <glyph glyph-name="cacute" unicode="&#x107;" horiz-adv-x="479" 
d="M254 151q-15 -26 -37 -60t-49.5 -64t-58.5 -51t-63 -21q-34 0 -51 21.5t-20 53.5t6 69.5t27.5 69t44 52.5t56.5 21q29 0 48 -20.5t13 -62.5q-1 -9 -6.5 -7.5t-4.5 7.5q5 35 -10 53.5t-38 18.5q-22 0 -41 -19t-33 -48t-22 -63.5t-8 -64t10 -49.5t31 -21q29 -1 58.5 20
t55.5 51t47.5 63t34.5 56zM197 699q2 4 8.5 2t13 -6.5t11 -9.5t3.5 -8q-18 -28 -35.5 -55.5t-34.5 -55.5q-2 -3 -8.5 -1t-13.5 6.5t-11.5 9t-2.5 7.5q17 28 34.5 55.5t35.5 55.5z" />
    <glyph glyph-name="Ccircumflex" unicode="&#x108;" horiz-adv-x="631" 
d="M464 656q6 -5 0 -11.5t-11 -2.5q-36 29 -67.5 64.5t-63.5 70.5q-36 -35 -66.5 -68.5t-65.5 -68.5q-5 -5 -10 -5.5t-7.5 2.5t-2 8t5.5 10q36 35 72 69.5t72 69.5q3 3 3.5 3t3.5 -3q34 -34 66.5 -71.5t70.5 -66.5zM758 576q-15 -50 -47 -99.5t-76 -94t-97 -82t-109.5 -63.5
t-114 -39t-110.5 -8q-39 -88 -61 -171.5t-23 -148.5t23 -104.5t77 -39.5q48 0 97 20t95.5 54t88.5 78.5t74.5 93.5t54.5 98.5t29 93.5q-8 -2 -14.5 3t-6.5 13q0 9 5.5 13t12.5 3.5t12 -5t4 -13.5q-4 -46 -25 -98t-54.5 -103.5t-77.5 -99t-93 -84t-100.5 -58t-101.5 -21.5
q-68 0 -99.5 41.5t-34 109t20 153.5t64.5 177q-66 14 -105 54t-54.5 92.5t-10 110t29.5 106t64 81.5t93 36q44 2 66.5 -15t28 -45t-3.5 -61t-29 -63q-5 -7 -14 -7q-8 0 -13 4.5t-5 11.5t5 12t13 5q7 0 13 -6q16 26 22 53.5t0 50t-25.5 36.5t-56.5 12q-50 -2 -88 -33.5
t-60.5 -78t-28 -102t9.5 -105.5t52.5 -88t101.5 -51q43 92 102 180t126 156.5t139 110t142 41.5q28 0 45.5 -9.5t26 -25.5t8.5 -37t-7 -45zM685 682q-67 0 -134.5 -41.5t-130 -109t-117 -154t-94.5 -176.5q51 -4 107 9t111 38.5t106.5 62.5t94 80t73.5 91t46 97
q6 21 6.5 39.5t-6 33t-22 22.5t-40.5 8z" />
    <glyph glyph-name="ccircumflex" unicode="&#x109;" horiz-adv-x="479" 
d="M362 491q6 -5 0 -11.5t-11 -2.5q-36 29 -67.5 64.5t-63.5 70.5q-36 -35 -66.5 -68.5t-65.5 -68.5q-5 -5 -10 -5.5t-7.5 2.5t-2 8t5.5 10q36 35 72 69.5t72 69.5q3 3 3.5 3t3.5 -3q34 -34 66.5 -71.5t70.5 -66.5zM254 151q-15 -26 -37 -60t-49.5 -64t-58.5 -51t-63 -21
q-34 0 -51 21.5t-20 53.5t6 69.5t27.5 69t44 52.5t56.5 21q29 0 48 -20.5t13 -62.5q-1 -9 -6.5 -7.5t-4.5 7.5q5 35 -10 53.5t-38 18.5q-22 0 -41 -19t-33 -48t-22 -63.5t-8 -64t10 -49.5t31 -21q29 -1 58.5 20t55.5 51t47.5 63t34.5 56z" />
    <glyph glyph-name="Cdotaccent" unicode="&#x10a;" horiz-adv-x="631" 
d="M758 576q-15 -50 -47 -99.5t-76 -94t-97 -82t-109.5 -63.5t-114 -39t-110.5 -8q-39 -88 -61 -171.5t-23 -148.5t23 -104.5t77 -39.5q48 0 97 20t95.5 54t88.5 78.5t74.5 93.5t54.5 98.5t29 93.5q-8 -2 -14.5 3t-6.5 13q0 9 5.5 13t12.5 3.5t12 -5t4 -13.5q-4 -46 -25 -98
t-54.5 -103.5t-77.5 -99t-93 -84t-100.5 -58t-101.5 -21.5q-68 0 -99.5 41.5t-34 109t20 153.5t64.5 177q-66 14 -105 54t-54.5 92.5t-10 110t29.5 106t64 81.5t93 36q44 2 66.5 -15t28 -45t-3.5 -61t-29 -63q-5 -7 -14 -7q-8 0 -13 4.5t-5 11.5t5 12t13 5q7 0 13 -6
q16 26 22 53.5t0 50t-25.5 36.5t-56.5 12q-50 -2 -88 -33.5t-60.5 -78t-28 -102t9.5 -105.5t52.5 -88t101.5 -51q43 92 102 180t126 156.5t139 110t142 41.5q28 0 45.5 -9.5t26 -25.5t8.5 -37t-7 -45zM685 682q-67 0 -134.5 -41.5t-130 -109t-117 -154t-94.5 -176.5
q51 -4 107 9t111 38.5t106.5 62.5t94 80t73.5 91t46 97q6 21 6.5 39.5t-6 33t-22 22.5t-40.5 8z" />
    <glyph glyph-name="cdotaccent" unicode="&#x10b;" horiz-adv-x="479" 
d="M254 151q-15 -26 -37 -60t-49.5 -64t-58.5 -51t-63 -21q-34 0 -51 21.5t-20 53.5t6 69.5t27.5 69t44 52.5t56.5 21q29 0 48 -20.5t13 -62.5q-1 -9 -6.5 -7.5t-4.5 7.5q5 35 -10 53.5t-38 18.5q-22 0 -41 -19t-33 -48t-22 -63.5t-8 -64t10 -49.5t31 -21q29 -1 58.5 20
t55.5 51t47.5 63t34.5 56z" />
    <glyph glyph-name="Ccaron" unicode="&#x10c;" horiz-adv-x="631" 
d="M335 794q3 2 6 -1t0 -6q-20 -15 -36.5 -34t-33.5 -36q-2 -2 -3 0q-18 18 -36.5 35.5t-37.5 35.5q-5 5 -1.5 9t8.5 -1q18 -18 33.5 -35.5t34.5 -34.5q17 17 32 35.5t34 32.5zM758 576q-15 -50 -47 -99.5t-76 -94t-97 -82t-109.5 -63.5t-114 -39t-110.5 -8
q-39 -88 -61 -171.5t-23 -148.5t23 -104.5t77 -39.5q48 0 97 20t95.5 54t88.5 78.5t74.5 93.5t54.5 98.5t29 93.5q-8 -2 -14.5 3t-6.5 13q0 9 5.5 13t12.5 3.5t12 -5t4 -13.5q-4 -46 -25 -98t-54.5 -103.5t-77.5 -99t-93 -84t-100.5 -58t-101.5 -21.5q-68 0 -99.5 41.5
t-34 109t20 153.5t64.5 177q-66 14 -105 54t-54.5 92.5t-10 110t29.5 106t64 81.5t93 36q44 2 66.5 -15t28 -45t-3.5 -61t-29 -63q-5 -7 -14 -7q-8 0 -13 4.5t-5 11.5t5 12t13 5q7 0 13 -6q16 26 22 53.5t0 50t-25.5 36.5t-56.5 12q-50 -2 -88 -33.5t-60.5 -78t-28 -102
t9.5 -105.5t52.5 -88t101.5 -51q43 92 102 180t126 156.5t139 110t142 41.5q28 0 45.5 -9.5t26 -25.5t8.5 -37t-7 -45zM685 682q-67 0 -134.5 -41.5t-130 -109t-117 -154t-94.5 -176.5q51 -4 107 9t111 38.5t106.5 62.5t94 80t73.5 91t46 97q6 21 6.5 39.5t-6 33t-22 22.5
t-40.5 8z" />
    <glyph glyph-name="ccaron" unicode="&#x10d;" horiz-adv-x="479" 
d="M237 629q3 2 6 -1t0 -6q-20 -15 -36.5 -34t-33.5 -36q-2 -2 -3 0q-18 18 -36.5 35.5t-37.5 35.5q-5 5 -1.5 9t8.5 -1q18 -18 33.5 -35.5t34.5 -34.5q17 17 32 35.5t34 32.5zM254 151q-15 -26 -37 -60t-49.5 -64t-58.5 -51t-63 -21q-34 0 -51 21.5t-20 53.5t6 69.5
t27.5 69t44 52.5t56.5 21q29 0 48 -20.5t13 -62.5q-1 -9 -6.5 -7.5t-4.5 7.5q5 35 -10 53.5t-38 18.5q-22 0 -41 -19t-33 -48t-22 -63.5t-8 -64t10 -49.5t31 -21q29 -1 58.5 20t55.5 51t47.5 63t34.5 56z" />
    <glyph glyph-name="Dcaron" unicode="&#x10e;" horiz-adv-x="729" 
d="M285 794q3 2 6 -1t0 -6q-20 -15 -36.5 -34t-33.5 -36q-2 -2 -3 0q-18 18 -36.5 35.5t-37.5 35.5q-5 5 -1.5 9t8.5 -1q18 -18 33.5 -35.5t34.5 -34.5q17 17 32 35.5t34 32.5zM711 676q72 -23 121.5 -69.5t78 -106.5t37.5 -129t-0.5 -137.5t-36 -131.5t-68.5 -111.5
t-98.5 -78t-126.5 -29.5q-31 -1 -61 8q-23 -42 -53 -79t-67.5 -65t-81.5 -44t-94 -15q-80 1 -132.5 36t-82.5 90.5t-39.5 123.5t-4.5 134q6 76 28 152t58.5 145.5t86.5 129t112 103.5t135 69t156 25q68 0 120 -16q10 10 24 21q5 5 12 5t12 -5t5 -12t-5 -12t-12 -5
q-12 0 -16 11q-4 -3 -7 -7zM261 -301q48 -1 90 14.5t78 42.5t65.5 63t51.5 75q-27 9 -52 24t-47.5 33t-43.5 38l-42 40q-35 -60 -79 -111.5t-105 -89.5q-3 -3 -9 -3q-8 0 -13 5t-5 12t5 11.5t13 4.5q12 0 16 -11q49 35 85.5 87.5t68.5 116.5q-31 28 -62 47.5t-66 20.5
q-23 0 -43 -8t-37 -21.5t-30.5 -31.5t-22.5 -37q8 0 13.5 -5t3.5 -12q-2 -10 -8.5 -13.5t-13 -2.5t-10.5 7t-1 15q7 23 21.5 45t34 39t43.5 27t50 9q37 -1 69.5 -20.5t64.5 -48.5q35 72 67.5 152t71 160.5t87.5 156.5t116 139q-25 8 -51.5 12t-56.5 4q-81 0 -153 -24.5
t-133 -68t-110 -102.5t-84.5 -127t-57 -142.5t-27.5 -149.5q-5 -63 4 -129t37.5 -119.5t79 -88t127.5 -35.5zM618 -106q64 0 115 28.5t89 75.5t61.5 108.5t31 128t-1 133.5t-35 125.5t-71 103.5t-108.5 68q-64 -62 -108 -139t-79.5 -160.5t-69 -167.5t-75.5 -159
q21 -19 42 -39t43.5 -38.5t47.5 -33.5t52 -24q44 80 72 194q-8 -1 -13.5 3.5t-5.5 12.5q0 9 6 13t13 3.5t12 -6t3 -14.5q-14 -63 -33.5 -114.5t-42.5 -94.5q24 -7 55 -7z" />
    <glyph glyph-name="dcaron" unicode="&#x10f;" horiz-adv-x="615" 
d="M575 612q11 32 20.5 77.5t12.5 70.5h87v-9q-6 -26 -27 -71t-45 -80h-48v12zM461 651q26 0 34 -18t6 -42.5t-10.5 -49.5t-14.5 -40q-16 -35 -41.5 -77t-59 -87t-75 -90.5t-89.5 -87.5q-8 -32 -13 -59.5t-6.5 -47t2 -30.5t11.5 -11q22 0 42 16t37.5 39t31.5 48t24 42l10 -5
q-11 -19 -26 -45t-34 -49.5t-40.5 -40t-44.5 -16.5q-27 0 -35 30t-2 78q-12 -20 -24.5 -38.5t-26 -33t-28.5 -23.5t-31 -9q-34 0 -52.5 17.5t-23 43.5t3 56t25 56t43 43t56.5 17q29 -1 48 -21.5t13 -62.5v-1q-4 -14 -17 -14q-8 0 -13 5t-5 12t5 11.5t13 4.5q4 0 7 -1
q-1 27 -15.5 41t-34.5 15q-22 0 -40.5 -15.5t-31.5 -39t-19.5 -51t-5 -51t12 -39.5t32.5 -15q15 1 30.5 12.5t30 29.5t28 40t25.5 44q9 48 27.5 104t42.5 112.5t52 109.5t56.5 93.5t56.5 65t52 25.5h1zM465 506q3 8 11 30t12 45t-0.5 41t-26.5 18h-1q-19 0 -40.5 -21.5
t-44 -57.5t-45.5 -83t-44 -98t-38.5 -103t-30.5 -98q44 41 83 84.5t70.5 86t55.5 82.5t39 74z" />
    <glyph glyph-name="Dcroat" unicode="&#x110;" horiz-adv-x="729" 
d="M711 676q72 -23 121.5 -69.5t78 -106.5t37.5 -129t-0.5 -137.5t-36 -131.5t-68.5 -111.5t-98.5 -78t-126.5 -29.5q-31 -1 -61 8q-23 -42 -53 -79t-67.5 -65t-81.5 -44t-94 -15q-80 1 -132.5 36t-82.5 90.5t-39.5 123.5t-4.5 134q6 76 28 152t58.5 145.5t86.5 129
t112 103.5t135 69t156 25q68 0 120 -16q10 10 24 21q5 5 12 5t12 -5t5 -12t-5 -12t-12 -5q-12 0 -16 11q-4 -3 -7 -7zM261 -301q48 -1 90 14.5t78 42.5t65.5 63t51.5 75q-27 9 -52 24t-47.5 33t-43.5 38l-42 40q-35 -60 -79 -111.5t-105 -89.5q-3 -3 -9 -3q-8 0 -13 5t-5 12
t5 11.5t13 4.5q12 0 16 -11q49 35 85.5 87.5t68.5 116.5q-31 28 -62 47.5t-66 20.5q-23 0 -43 -8t-37 -21.5t-30.5 -31.5t-22.5 -37q8 0 13.5 -5t3.5 -12q-2 -10 -8.5 -13.5t-13 -2.5t-10.5 7t-1 15q7 23 21.5 45t34 39t43.5 27t50 9q37 -1 69.5 -20.5t64.5 -48.5
q21 43 40.5 89t40.5 94q-29 -1 -57 -2t-56 -3q-2 0 -3.5 5t-2.5 11.5t0 12t4 5.5q63 4 130 6q22 52 47 104t55 102t65 96.5t79 87.5q-25 8 -51.5 12t-56.5 4q-81 0 -153 -24.5t-133 -68t-110 -102.5t-84.5 -127t-57 -142.5t-27.5 -149.5q-5 -63 4 -129t37.5 -119.5t79 -88
t127.5 -35.5zM727 280q6 0 9 -5.5t3 -11.5t-2.5 -11.5t-8.5 -5.5q-66 0 -132.5 0.5t-133.5 -1.5q-22 -54 -45 -106t-50 -100q21 -19 42 -39t43.5 -38.5t47.5 -33.5t52 -24q44 80 72 194q-8 -1 -13.5 3.5t-5.5 12.5q0 9 6 13t13 3.5t12 -6t3 -14.5q-14 -63 -33.5 -114.5
t-42.5 -94.5q24 -7 55 -7q64 0 115 28.5t89 75.5t61.5 108.5t31 128t-1 133.5t-35 125.5t-71 103.5t-108.5 68q-40 -39 -72 -84.5t-58.5 -94.5t-49 -101.5t-43.5 -104.5q63 1 126 0t125 0z" />
    <glyph glyph-name="dcroat" unicode="&#x111;" horiz-adv-x="617" 
d="M275 -10q-104 0 -162 72t-58 203q0 132 57.5 205t162.5 73q109 0 167 -79h6q-1 7 -3.5 33.5t-2.5 46.5v61h-213v66h213v89h88v-89h76v-66h-76v-605h-72l-13 72h-4q-56 -82 -166 -82zM290 63q80 0 116.5 43t36.5 142v17q0 112 -37 158.5t-118 46.5q-68 0 -104.5 -52
t-36.5 -154q0 -96 35 -148.5t108 -52.5z" />
    <glyph glyph-name="Emacron" unicode="&#x112;" horiz-adv-x="556" 
d="M148 842h297v-71h-297v71zM502 680q29 0 42.5 -13.5t16.5 -33.5t-2 -42.5t-13 -38.5q-15 -30 -39 -54.5t-53 -42.5t-61.5 -27.5t-66.5 -8.5v-4q11 -2 24 -4t21 -7q14 -7 21 -18t7 -21.5t-8 -18.5t-24 -9q-29 -2 -45 16.5t-21 49.5q-43 0 -80.5 -26t-68.5 -68.5t-54 -97
t-35 -111t-13 -110.5t12.5 -96.5t42 -68t74.5 -25.5q45 0 83.5 20.5t68 53.5t49 75.5t26.5 88t1 89.5t-27 81q-8 -9 -19.5 -6.5t-10.5 16.5q0 13 12.5 16.5t19.5 -7.5q26 -38 34.5 -85.5t2.5 -96t-26 -94.5t-51 -82t-72.5 -58t-90.5 -23q-56 -1 -91 25.5t-52 70.5t-18 100.5
t12 115.5t38.5 115.5t60.5 101t78.5 71.5t92.5 27v8q-27 6 -46 21t-30 35.5t-12.5 45t7.5 50.5q3 6 8.5 8.5t11 1.5t9.5 -5.5t4 -11.5q0 -11 -9.5 -15t-17.5 1q-8 -42 12 -75.5t63 -44.5q1 38 14.5 81t39 79t63 60.5t85.5 25.5zM366 394q-7 4 -18.5 6t-20.5 3
q1 -26 12.5 -41t26.5 -14q12 1 17 6.5t4.5 12.5t-6.5 14.5t-15 12.5zM536 557q7 13 12 32.5t3 37t-12.5 29.5t-35.5 12q-41 -1 -73 -24.5t-54 -59t-34.5 -77t-14.5 -77.5q32 -1 63 8.5t58.5 26.5t50 40.5t37.5 51.5z" />
    <glyph glyph-name="emacron" unicode="&#x113;" horiz-adv-x="563" 
d="M150 677h297v-71h-297v71zM247 151q-13 -23 -31 -49t-40 -48t-48.5 -36t-57.5 -14q-34 0 -52 17.5t-23.5 44t0.5 57.5t21.5 57.5t39.5 44t53 17.5t46.5 -13.5t16.5 -39.5q-1 -21 -12 -33t-27 -18t-34.5 -8.5t-34.5 -3.5q-11 -1 -22 -1.5t-19 -2.5q-6 -16 -5.5 -34t7 -33
t20.5 -25t35 -10q25 0 47.5 13t42.5 32.5t37 43.5t30 47zM160 190q0 24 -16 34t-38.5 4t-45 -29t-34.5 -65q16 3 38 3q13 1 29.5 2.5t31 7t25 15.5t10.5 28z" />
    <glyph glyph-name="Ebreve" unicode="&#x114;" horiz-adv-x="556" 
d="M396 911q5 -24 -8 -40t-34.5 -24.5t-48 -9t-48.5 7.5t-35.5 24.5t-9.5 42.5q1 6 8.5 7t6.5 -8q-4 -20 7 -32.5t29.5 -18.5t40.5 -6t40.5 6.5t30 19t7.5 30.5q-2 10 5 9.5t9 -8.5zM502 680q29 0 42.5 -13.5t16.5 -33.5t-2 -42.5t-13 -38.5q-15 -30 -39 -54.5t-53 -42.5
t-61.5 -27.5t-66.5 -8.5v-4q11 -2 24 -4t21 -7q14 -7 21 -18t7 -21.5t-8 -18.5t-24 -9q-29 -2 -45 16.5t-21 49.5q-43 0 -80.5 -26t-68.5 -68.5t-54 -97t-35 -111t-13 -110.5t12.5 -96.5t42 -68t74.5 -25.5q45 0 83.5 20.5t68 53.5t49 75.5t26.5 88t1 89.5t-27 81
q-8 -9 -19.5 -6.5t-10.5 16.5q0 13 12.5 16.5t19.5 -7.5q26 -38 34.5 -85.5t2.5 -96t-26 -94.5t-51 -82t-72.5 -58t-90.5 -23q-56 -1 -91 25.5t-52 70.5t-18 100.5t12 115.5t38.5 115.5t60.5 101t78.5 71.5t92.5 27v8q-27 6 -46 21t-30 35.5t-12.5 45t7.5 50.5q3 6 8.5 8.5
t11 1.5t9.5 -5.5t4 -11.5q0 -11 -9.5 -15t-17.5 1q-8 -42 12 -75.5t63 -44.5q1 38 14.5 81t39 79t63 60.5t85.5 25.5zM366 394q-7 4 -18.5 6t-20.5 3q1 -26 12.5 -41t26.5 -14q12 1 17 6.5t4.5 12.5t-6.5 14.5t-15 12.5zM536 557q7 13 12 32.5t3 37t-12.5 29.5t-35.5 12
q-41 -1 -73 -24.5t-54 -59t-34.5 -77t-14.5 -77.5q32 -1 63 8.5t58.5 26.5t50 40.5t37.5 51.5z" />
    <glyph glyph-name="ebreve" unicode="&#x115;" horiz-adv-x="563" 
d="M389 746q5 -24 -8 -40t-34.5 -24.5t-48 -9t-48.5 7.5t-35.5 24.5t-9.5 42.5q1 6 8.5 7t6.5 -8q-4 -20 7 -32.5t29.5 -18.5t40.5 -6t40.5 6.5t30 19t7.5 30.5q-2 10 5 9.5t9 -8.5zM247 151q-13 -23 -31 -49t-40 -48t-48.5 -36t-57.5 -14q-34 0 -52 17.5t-23.5 44t0.5 57.5
t21.5 57.5t39.5 44t53 17.5t46.5 -13.5t16.5 -39.5q-1 -21 -12 -33t-27 -18t-34.5 -8.5t-34.5 -3.5q-11 -1 -22 -1.5t-19 -2.5q-6 -16 -5.5 -34t7 -33t20.5 -25t35 -10q25 0 47.5 13t42.5 32.5t37 43.5t30 47zM160 190q0 24 -16 34t-38.5 4t-45 -29t-34.5 -65q16 3 38 3
q13 1 29.5 2.5t31 7t25 15.5t10.5 28z" />
    <glyph glyph-name="Edotaccent" unicode="&#x116;" horiz-adv-x="556" 
d="M502 680q29 0 42.5 -13.5t16.5 -33.5t-2 -42.5t-13 -38.5q-15 -30 -39 -54.5t-53 -42.5t-61.5 -27.5t-66.5 -8.5v-4q11 -2 24 -4t21 -7q14 -7 21 -18t7 -21.5t-8 -18.5t-24 -9q-29 -2 -45 16.5t-21 49.5q-43 0 -80.5 -26t-68.5 -68.5t-54 -97t-35 -111t-13 -110.5
t12.5 -96.5t42 -68t74.5 -25.5q45 0 83.5 20.5t68 53.5t49 75.5t26.5 88t1 89.5t-27 81q-8 -9 -19.5 -6.5t-10.5 16.5q0 13 12.5 16.5t19.5 -7.5q26 -38 34.5 -85.5t2.5 -96t-26 -94.5t-51 -82t-72.5 -58t-90.5 -23q-56 -1 -91 25.5t-52 70.5t-18 100.5t12 115.5t38.5 115.5
t60.5 101t78.5 71.5t92.5 27v8q-27 6 -46 21t-30 35.5t-12.5 45t7.5 50.5q3 6 8.5 8.5t11 1.5t9.5 -5.5t4 -11.5q0 -11 -9.5 -15t-17.5 1q-8 -42 12 -75.5t63 -44.5q1 38 14.5 81t39 79t63 60.5t85.5 25.5zM366 394q-7 4 -18.5 6t-20.5 3q1 -26 12.5 -41t26.5 -14
q12 1 17 6.5t4.5 12.5t-6.5 14.5t-15 12.5zM536 557q7 13 12 32.5t3 37t-12.5 29.5t-35.5 12q-41 -1 -73 -24.5t-54 -59t-34.5 -77t-14.5 -77.5q32 -1 63 8.5t58.5 26.5t50 40.5t37.5 51.5z" />
    <glyph glyph-name="edotaccent" unicode="&#x117;" horiz-adv-x="563" 
d="M247 151q-13 -23 -31 -49t-40 -48t-48.5 -36t-57.5 -14q-34 0 -52 17.5t-23.5 44t0.5 57.5t21.5 57.5t39.5 44t53 17.5t46.5 -13.5t16.5 -39.5q-1 -21 -12 -33t-27 -18t-34.5 -8.5t-34.5 -3.5q-11 -1 -22 -1.5t-19 -2.5q-6 -16 -5.5 -34t7 -33t20.5 -25t35 -10
q25 0 47.5 13t42.5 32.5t37 43.5t30 47zM160 190q0 24 -16 34t-38.5 4t-45 -29t-34.5 -65q16 3 38 3q13 1 29.5 2.5t31 7t25 15.5t10.5 28z" />
    <glyph glyph-name="Eogonek" unicode="&#x118;" horiz-adv-x="556" 
d="M510 -45q7 12 8.5 9t-4.5 -12q-16 -25 -39.5 -32t-45 -1t-35 23.5t-8.5 40.5q1 4 4.5 11t7.5 10.5t6 0t-1 -20.5q-3 -19 7.5 -34.5t28 -22t37 -1t34.5 28.5zM502 680q29 0 42.5 -13.5t16.5 -33.5t-2 -42.5t-13 -38.5q-15 -30 -39 -54.5t-53 -42.5t-61.5 -27.5t-66.5 -8.5
v-4q11 -2 24 -4t21 -7q14 -7 21 -18t7 -21.5t-8 -18.5t-24 -9q-29 -2 -45 16.5t-21 49.5q-43 0 -80.5 -26t-68.5 -68.5t-54 -97t-35 -111t-13 -110.5t12.5 -96.5t42 -68t74.5 -25.5q45 0 83.5 20.5t68 53.5t49 75.5t26.5 88t1 89.5t-27 81q-8 -9 -19.5 -6.5t-10.5 16.5
q0 13 12.5 16.5t19.5 -7.5q26 -38 34.5 -85.5t2.5 -96t-26 -94.5t-51 -82t-72.5 -58t-90.5 -23q-56 -1 -91 25.5t-52 70.5t-18 100.5t12 115.5t38.5 115.5t60.5 101t78.5 71.5t92.5 27v8q-27 6 -46 21t-30 35.5t-12.5 45t7.5 50.5q3 6 8.5 8.5t11 1.5t9.5 -5.5t4 -11.5
q0 -11 -9.5 -15t-17.5 1q-8 -42 12 -75.5t63 -44.5q1 38 14.5 81t39 79t63 60.5t85.5 25.5zM366 394q-7 4 -18.5 6t-20.5 3q1 -26 12.5 -41t26.5 -14q12 1 17 6.5t4.5 12.5t-6.5 14.5t-15 12.5zM536 557q7 13 12 32.5t3 37t-12.5 29.5t-35.5 12q-41 -1 -73 -24.5t-54 -59
t-34.5 -77t-14.5 -77.5q32 -1 63 8.5t58.5 26.5t50 40.5t37.5 51.5z" />
    <glyph glyph-name="eogonek" unicode="&#x119;" horiz-adv-x="563" 
d="M505 -31q7 12 8.5 9t-4.5 -12q-16 -25 -39.5 -32t-45 -1t-35 23.5t-8.5 40.5q1 4 4.5 11t7.5 10.5t6 0t-1 -20.5q-3 -19 7.5 -34.5t28 -22t37 -1t34.5 28.5zM247 151q-13 -23 -31 -49t-40 -48t-48.5 -36t-57.5 -14q-34 0 -52 17.5t-23.5 44t0.5 57.5t21.5 57.5t39.5 44
t53 17.5t46.5 -13.5t16.5 -39.5q-1 -21 -12 -33t-27 -18t-34.5 -8.5t-34.5 -3.5q-11 -1 -22 -1.5t-19 -2.5q-6 -16 -5.5 -34t7 -33t20.5 -25t35 -10q25 0 47.5 13t42.5 32.5t37 43.5t30 47zM160 190q0 24 -16 34t-38.5 4t-45 -29t-34.5 -65q16 3 38 3q13 1 29.5 2.5t31 7
t25 15.5t10.5 28z" />
    <glyph glyph-name="Ecaron" unicode="&#x11a;" horiz-adv-x="556" 
d="M248 794q3 2 6 -1t0 -6q-20 -15 -36.5 -34t-33.5 -36q-2 -2 -3 0q-18 18 -36.5 35.5t-37.5 35.5q-5 5 -1.5 9t8.5 -1q18 -18 33.5 -35.5t34.5 -34.5q17 17 32 35.5t34 32.5zM502 680q29 0 42.5 -13.5t16.5 -33.5t-2 -42.5t-13 -38.5q-15 -30 -39 -54.5t-53 -42.5
t-61.5 -27.5t-66.5 -8.5v-4q11 -2 24 -4t21 -7q14 -7 21 -18t7 -21.5t-8 -18.5t-24 -9q-29 -2 -45 16.5t-21 49.5q-43 0 -80.5 -26t-68.5 -68.5t-54 -97t-35 -111t-13 -110.5t12.5 -96.5t42 -68t74.5 -25.5q45 0 83.5 20.5t68 53.5t49 75.5t26.5 88t1 89.5t-27 81
q-8 -9 -19.5 -6.5t-10.5 16.5q0 13 12.5 16.5t19.5 -7.5q26 -38 34.5 -85.5t2.5 -96t-26 -94.5t-51 -82t-72.5 -58t-90.5 -23q-56 -1 -91 25.5t-52 70.5t-18 100.5t12 115.5t38.5 115.5t60.5 101t78.5 71.5t92.5 27v8q-27 6 -46 21t-30 35.5t-12.5 45t7.5 50.5q3 6 8.5 8.5
t11 1.5t9.5 -5.5t4 -11.5q0 -11 -9.5 -15t-17.5 1q-8 -42 12 -75.5t63 -44.5q1 38 14.5 81t39 79t63 60.5t85.5 25.5zM366 394q-7 4 -18.5 6t-20.5 3q1 -26 12.5 -41t26.5 -14q12 1 17 6.5t4.5 12.5t-6.5 14.5t-15 12.5zM536 557q7 13 12 32.5t3 37t-12.5 29.5t-35.5 12
q-41 -1 -73 -24.5t-54 -59t-34.5 -77t-14.5 -77.5q32 -1 63 8.5t58.5 26.5t50 40.5t37.5 51.5z" />
    <glyph glyph-name="ecaron" unicode="&#x11b;" horiz-adv-x="563" 
d="M241 629q3 2 6 -1t0 -6q-20 -15 -36.5 -34t-33.5 -36q-2 -2 -3 0q-18 18 -36.5 35.5t-37.5 35.5q-5 5 -1.5 9t8.5 -1q18 -18 33.5 -35.5t34.5 -34.5q17 17 32 35.5t34 32.5zM247 151q-13 -23 -31 -49t-40 -48t-48.5 -36t-57.5 -14q-34 0 -52 17.5t-23.5 44t0.5 57.5
t21.5 57.5t39.5 44t53 17.5t46.5 -13.5t16.5 -39.5q-1 -21 -12 -33t-27 -18t-34.5 -8.5t-34.5 -3.5q-11 -1 -22 -1.5t-19 -2.5q-6 -16 -5.5 -34t7 -33t20.5 -25t35 -10q25 0 47.5 13t42.5 32.5t37 43.5t30 47zM160 190q0 24 -16 34t-38.5 4t-45 -29t-34.5 -65q16 3 38 3
q13 1 29.5 2.5t31 7t25 15.5t10.5 28z" />
    <glyph glyph-name="Gcircumflex" unicode="&#x11c;" horiz-adv-x="728" 
d="M492 656q6 -5 0 -11.5t-11 -2.5q-36 29 -67.5 64.5t-63.5 70.5q-36 -35 -66.5 -68.5t-65.5 -68.5q-5 -5 -10 -5.5t-7.5 2.5t-2 8t5.5 10q36 35 72 69.5t72 69.5q3 3 3.5 3t3.5 -3q34 -34 66.5 -71.5t70.5 -66.5zM1016 631q8 8 18.5 3.5t10.5 -15.5q0 -7 -4 -11t-9.5 -5
t-11 1.5t-8.5 8.5q-53 -47 -92.5 -104.5t-71 -120.5t-58.5 -130t-54 -132q-17 -40 -38 -85t-47 -89t-57.5 -84t-68.5 -71t-81 -49.5t-94 -19.5q-57 -1 -98.5 20.5t-70.5 59.5q-37 -8 -69 -3t-56 22t-38.5 45.5t-17.5 68.5q-2 39 7 77.5t27 75t42.5 68.5t52.5 58
q9 42 27.5 95t48 99.5t69.5 78t92 31.5q38 0 63 -28t37 -74t11.5 -105.5t-12.5 -122.5t-36 -126t-58 -115.5t-78.5 -90.5t-98.5 -52q27 -34 65.5 -53t90.5 -18q49 1 90 20t75 51t61.5 72.5t50.5 84.5t41.5 88t34.5 82q30 71 62.5 142.5t73.5 140.5q-18 -17 -39 -32.5
t-44 -27.5t-48 -18.5t-51 -5.5q-47 1 -75 21.5t-39.5 54t-7 76.5t22.5 88q-37 12 -55 34t-18 47t16.5 50t46.5 43.5t73 26t96 -2.5q42 29 90.5 45.5t104.5 16.5q39 0 65.5 -12t37 -31.5t5 -45t-29.5 -52.5q-31 -35 -80 -61.5t-104.5 -43t-112 -22t-102.5 0.5
q-16 -42 -21 -82t2.5 -70.5t28 -49.5t56.5 -20q31 -1 61 9.5t57 27.5t51 39t44 45q30 45 66 86.5t80 76.5zM731 760q-46 -36 -80.5 -83t-54.5 -97q44 -5 98.5 0.5t108 21t101 41t77.5 59.5q22 25 27 47t-4.5 39t-32.5 27t-59 10q-48 0 -90.5 -15.5t-78.5 -41.5q15 -3 30 -9
q12 -3 12 -16q0 -16 -17 -16q-7 0 -12 4.5t-5 11.5q0 5 3 10q-6 2 -12 3.5t-11 3.5zM704 765q-47 7 -85.5 -0.5t-65.5 -24t-42 -38.5t-15 -44.5t16 -42t50 -29.5q22 50 58 96.5t84 82.5zM12 -58q5 -73 49 -104.5t113 -19.5q-27 39 -41 86.5t-18.5 98.5t-1.5 102t12 96
q-25 -24 -46.5 -54.5t-37 -64t-23.5 -69.5t-6 -71zM139 214q-9 -45 -13.5 -97.5t-0.5 -105.5t18.5 -102.5t42.5 -88.5q53 12 96.5 48.5t77.5 87.5t57 112t35.5 122.5t14 119.5t-9.5 103t-33.5 72.5t-57.5 27.5q-48 0 -85.5 -29.5t-65 -72.5t-45.5 -92t-27 -87q23 20 49.5 36
t57.5 29q7 4 15.5 -0.5t8.5 -14.5q0 -8 -5.5 -12t-11.5 -4.5t-11.5 3t-6.5 11.5q-29 -14 -53.5 -30.5t-46.5 -35.5z" />
    <glyph glyph-name="gcircumflex" unicode="&#x11d;" horiz-adv-x="615" 
d="M376 491q6 -5 0 -11.5t-11 -2.5q-36 29 -67.5 64.5t-63.5 70.5q-36 -35 -66.5 -68.5t-65.5 -68.5q-5 -5 -10 -5.5t-7.5 2.5t-2 8t5.5 10q36 35 72 69.5t72 69.5q3 3 3.5 3t3.5 -3q34 -34 66.5 -71.5t70.5 -66.5zM321 151q-35 -58 -74.5 -91t-82.5 -59q-2 -5 -3 -9t-3 -9
q-12 -32 -28 -73.5t-36 -85.5t-42.5 -86t-47 -75t-49.5 -53.5t-50 -20.5q-19 0 -28.5 9.5t-13 23.5t-2 30t4.5 29q13 52 38 97t59.5 83.5t75.5 70.5t85 58q8 23 16 47.5t16 49.5q-22 -35 -46 -59.5t-52 -24.5q-34 0 -52.5 17t-23 43t3 56t24.5 56t42.5 43t56.5 17
q29 0 48 -20t13 -62v-3v-1q0 -1 -1 -1q-4 -11 -16 -11q-7 0 -12 5t-5 12t5 11.5t12 4.5q5 0 7 -1q-1 26 -15 40.5t-34 14.5q-22 0 -40.5 -15.5t-31.5 -39t-19.5 -51t-5 -51t12 -39t31.5 -14.5q15 0 30 11t29.5 28.5t27.5 39t25 42.5q7 23 12.5 45.5t9.5 43.5q1 3 6.5 4
t12 -0.5t11.5 -5.5t4 -10q-9 -44 -24.5 -96t-31.5 -99q38 25 74 56.5t68 83.5zM-96 -400q22 1 43.5 19.5t42 49t39.5 69.5t35.5 80.5t30 82l24.5 73.5q-42 -25 -80.5 -56t-70.5 -68.5t-55.5 -80.5t-35.5 -91q-2 -10 -4 -23.5t0 -25.5t9 -20.5t22 -8.5z" />
    <glyph glyph-name="Gbreve" unicode="&#x11e;" horiz-adv-x="728" 
d="M511 911q5 -24 -8 -40t-34.5 -24.5t-48 -9t-48.5 7.5t-35.5 24.5t-9.5 42.5q1 6 8.5 7t6.5 -8q-4 -20 7 -32.5t29.5 -18.5t40.5 -6t40.5 6.5t30 19t7.5 30.5q-2 10 5 9.5t9 -8.5zM1016 631q8 8 18.5 3.5t10.5 -15.5q0 -7 -4 -11t-9.5 -5t-11 1.5t-8.5 8.5
q-53 -47 -92.5 -104.5t-71 -120.5t-58.5 -130t-54 -132q-17 -40 -38 -85t-47 -89t-57.5 -84t-68.5 -71t-81 -49.5t-94 -19.5q-57 -1 -98.5 20.5t-70.5 59.5q-37 -8 -69 -3t-56 22t-38.5 45.5t-17.5 68.5q-2 39 7 77.5t27 75t42.5 68.5t52.5 58q9 42 27.5 95t48 99.5t69.5 78
t92 31.5q38 0 63 -28t37 -74t11.5 -105.5t-12.5 -122.5t-36 -126t-58 -115.5t-78.5 -90.5t-98.5 -52q27 -34 65.5 -53t90.5 -18q49 1 90 20t75 51t61.5 72.5t50.5 84.5t41.5 88t34.5 82q30 71 62.5 142.5t73.5 140.5q-18 -17 -39 -32.5t-44 -27.5t-48 -18.5t-51 -5.5
q-47 1 -75 21.5t-39.5 54t-7 76.5t22.5 88q-37 12 -55 34t-18 47t16.5 50t46.5 43.5t73 26t96 -2.5q42 29 90.5 45.5t104.5 16.5q39 0 65.5 -12t37 -31.5t5 -45t-29.5 -52.5q-31 -35 -80 -61.5t-104.5 -43t-112 -22t-102.5 0.5q-16 -42 -21 -82t2.5 -70.5t28 -49.5t56.5 -20
q31 -1 61 9.5t57 27.5t51 39t44 45q30 45 66 86.5t80 76.5zM731 760q-46 -36 -80.5 -83t-54.5 -97q44 -5 98.5 0.5t108 21t101 41t77.5 59.5q22 25 27 47t-4.5 39t-32.5 27t-59 10q-48 0 -90.5 -15.5t-78.5 -41.5q15 -3 30 -9q12 -3 12 -16q0 -16 -17 -16q-7 0 -12 4.5
t-5 11.5q0 5 3 10q-6 2 -12 3.5t-11 3.5zM704 765q-47 7 -85.5 -0.5t-65.5 -24t-42 -38.5t-15 -44.5t16 -42t50 -29.5q22 50 58 96.5t84 82.5zM12 -58q5 -73 49 -104.5t113 -19.5q-27 39 -41 86.5t-18.5 98.5t-1.5 102t12 96q-25 -24 -46.5 -54.5t-37 -64t-23.5 -69.5
t-6 -71zM139 214q-9 -45 -13.5 -97.5t-0.5 -105.5t18.5 -102.5t42.5 -88.5q53 12 96.5 48.5t77.5 87.5t57 112t35.5 122.5t14 119.5t-9.5 103t-33.5 72.5t-57.5 27.5q-48 0 -85.5 -29.5t-65 -72.5t-45.5 -92t-27 -87q23 20 49.5 36t57.5 29q7 4 15.5 -0.5t8.5 -14.5
q0 -8 -5.5 -12t-11.5 -4.5t-11.5 3t-6.5 11.5q-29 -14 -53.5 -30.5t-46.5 -35.5z" />
    <glyph glyph-name="gbreve" unicode="&#x11f;" horiz-adv-x="615" 
d="M397 746q5 -24 -8 -40t-34.5 -24.5t-48 -9t-48.5 7.5t-35.5 24.5t-9.5 42.5q1 6 8.5 7t6.5 -8q-4 -20 7 -32.5t29.5 -18.5t40.5 -6t40.5 6.5t30 19t7.5 30.5q-2 10 5 9.5t9 -8.5zM321 151q-35 -58 -74.5 -91t-82.5 -59q-2 -5 -3 -9t-3 -9q-12 -32 -28 -73.5t-36 -85.5
t-42.5 -86t-47 -75t-49.5 -53.5t-50 -20.5q-19 0 -28.5 9.5t-13 23.5t-2 30t4.5 29q13 52 38 97t59.5 83.5t75.5 70.5t85 58q8 23 16 47.5t16 49.5q-22 -35 -46 -59.5t-52 -24.5q-34 0 -52.5 17t-23 43t3 56t24.5 56t42.5 43t56.5 17q29 0 48 -20t13 -62v-3v-1q0 -1 -1 -1
q-4 -11 -16 -11q-7 0 -12 5t-5 12t5 11.5t12 4.5q5 0 7 -1q-1 26 -15 40.5t-34 14.5q-22 0 -40.5 -15.5t-31.5 -39t-19.5 -51t-5 -51t12 -39t31.5 -14.5q15 0 30 11t29.5 28.5t27.5 39t25 42.5q7 23 12.5 45.5t9.5 43.5q1 3 6.5 4t12 -0.5t11.5 -5.5t4 -10q-9 -44 -24.5 -96
t-31.5 -99q38 25 74 56.5t68 83.5zM-96 -400q22 1 43.5 19.5t42 49t39.5 69.5t35.5 80.5t30 82l24.5 73.5q-42 -25 -80.5 -56t-70.5 -68.5t-55.5 -80.5t-35.5 -91q-2 -10 -4 -23.5t0 -25.5t9 -20.5t22 -8.5z" />
    <glyph glyph-name="Gdotaccent" unicode="&#x120;" horiz-adv-x="728" 
d="M1016 631q8 8 18.5 3.5t10.5 -15.5q0 -7 -4 -11t-9.5 -5t-11 1.5t-8.5 8.5q-53 -47 -92.5 -104.5t-71 -120.5t-58.5 -130t-54 -132q-17 -40 -38 -85t-47 -89t-57.5 -84t-68.5 -71t-81 -49.5t-94 -19.5q-57 -1 -98.5 20.5t-70.5 59.5q-37 -8 -69 -3t-56 22t-38.5 45.5
t-17.5 68.5q-2 39 7 77.5t27 75t42.5 68.5t52.5 58q9 42 27.5 95t48 99.5t69.5 78t92 31.5q38 0 63 -28t37 -74t11.5 -105.5t-12.5 -122.5t-36 -126t-58 -115.5t-78.5 -90.5t-98.5 -52q27 -34 65.5 -53t90.5 -18q49 1 90 20t75 51t61.5 72.5t50.5 84.5t41.5 88t34.5 82
q30 71 62.5 142.5t73.5 140.5q-18 -17 -39 -32.5t-44 -27.5t-48 -18.5t-51 -5.5q-47 1 -75 21.5t-39.5 54t-7 76.5t22.5 88q-37 12 -55 34t-18 47t16.5 50t46.5 43.5t73 26t96 -2.5q42 29 90.5 45.5t104.5 16.5q39 0 65.5 -12t37 -31.5t5 -45t-29.5 -52.5q-31 -35 -80 -61.5
t-104.5 -43t-112 -22t-102.5 0.5q-16 -42 -21 -82t2.5 -70.5t28 -49.5t56.5 -20q31 -1 61 9.5t57 27.5t51 39t44 45q30 45 66 86.5t80 76.5zM731 760q-46 -36 -80.5 -83t-54.5 -97q44 -5 98.5 0.5t108 21t101 41t77.5 59.5q22 25 27 47t-4.5 39t-32.5 27t-59 10
q-48 0 -90.5 -15.5t-78.5 -41.5q15 -3 30 -9q12 -3 12 -16q0 -16 -17 -16q-7 0 -12 4.5t-5 11.5q0 5 3 10q-6 2 -12 3.5t-11 3.5zM704 765q-47 7 -85.5 -0.5t-65.5 -24t-42 -38.5t-15 -44.5t16 -42t50 -29.5q22 50 58 96.5t84 82.5zM12 -58q5 -73 49 -104.5t113 -19.5
q-27 39 -41 86.5t-18.5 98.5t-1.5 102t12 96q-25 -24 -46.5 -54.5t-37 -64t-23.5 -69.5t-6 -71zM139 214q-9 -45 -13.5 -97.5t-0.5 -105.5t18.5 -102.5t42.5 -88.5q53 12 96.5 48.5t77.5 87.5t57 112t35.5 122.5t14 119.5t-9.5 103t-33.5 72.5t-57.5 27.5q-48 0 -85.5 -29.5
t-65 -72.5t-45.5 -92t-27 -87q23 20 49.5 36t57.5 29q7 4 15.5 -0.5t8.5 -14.5q0 -8 -5.5 -12t-11.5 -4.5t-11.5 3t-6.5 11.5q-29 -14 -53.5 -30.5t-46.5 -35.5z" />
    <glyph glyph-name="gdotaccent" unicode="&#x121;" horiz-adv-x="615" 
d="M321 151q-35 -58 -74.5 -91t-82.5 -59q-2 -5 -3 -9t-3 -9q-12 -32 -28 -73.5t-36 -85.5t-42.5 -86t-47 -75t-49.5 -53.5t-50 -20.5q-19 0 -28.5 9.5t-13 23.5t-2 30t4.5 29q13 52 38 97t59.5 83.5t75.5 70.5t85 58q8 23 16 47.5t16 49.5q-22 -35 -46 -59.5t-52 -24.5
q-34 0 -52.5 17t-23 43t3 56t24.5 56t42.5 43t56.5 17q29 0 48 -20t13 -62v-3v-1q0 -1 -1 -1q-4 -11 -16 -11q-7 0 -12 5t-5 12t5 11.5t12 4.5q5 0 7 -1q-1 26 -15 40.5t-34 14.5q-22 0 -40.5 -15.5t-31.5 -39t-19.5 -51t-5 -51t12 -39t31.5 -14.5q15 0 30 11t29.5 28.5
t27.5 39t25 42.5q7 23 12.5 45.5t9.5 43.5q1 3 6.5 4t12 -0.5t11.5 -5.5t4 -10q-9 -44 -24.5 -96t-31.5 -99q38 25 74 56.5t68 83.5zM-96 -400q22 1 43.5 19.5t42 49t39.5 69.5t35.5 80.5t30 82l24.5 73.5q-42 -25 -80.5 -56t-70.5 -68.5t-55.5 -80.5t-35.5 -91
q-2 -10 -4 -23.5t0 -25.5t9 -20.5t22 -8.5z" />
    <glyph glyph-name="uni0122" unicode="&#x122;" horiz-adv-x="728" 
d="M322 -209q11 25 24 70.5t17 77.5h87v-9q-8 -31 -31.5 -76.5t-48.5 -74.5h-48v12zM1016 631q8 8 18.5 3.5t10.5 -15.5q0 -7 -4 -11t-9.5 -5t-11 1.5t-8.5 8.5q-53 -47 -92.5 -104.5t-71 -120.5t-58.5 -130t-54 -132q-17 -40 -38 -85t-47 -89t-57.5 -84t-68.5 -71
t-81 -49.5t-94 -19.5q-57 -1 -98.5 20.5t-70.5 59.5q-37 -8 -69 -3t-56 22t-38.5 45.5t-17.5 68.5q-2 39 7 77.5t27 75t42.5 68.5t52.5 58q9 42 27.5 95t48 99.5t69.5 78t92 31.5q38 0 63 -28t37 -74t11.5 -105.5t-12.5 -122.5t-36 -126t-58 -115.5t-78.5 -90.5t-98.5 -52
q27 -34 65.5 -53t90.5 -18q49 1 90 20t75 51t61.5 72.5t50.5 84.5t41.5 88t34.5 82q30 71 62.5 142.5t73.5 140.5q-18 -17 -39 -32.5t-44 -27.5t-48 -18.5t-51 -5.5q-47 1 -75 21.5t-39.5 54t-7 76.5t22.5 88q-37 12 -55 34t-18 47t16.5 50t46.5 43.5t73 26t96 -2.5
q42 29 90.5 45.5t104.5 16.5q39 0 65.5 -12t37 -31.5t5 -45t-29.5 -52.5q-31 -35 -80 -61.5t-104.5 -43t-112 -22t-102.5 0.5q-16 -42 -21 -82t2.5 -70.5t28 -49.5t56.5 -20q31 -1 61 9.5t57 27.5t51 39t44 45q30 45 66 86.5t80 76.5zM731 760q-46 -36 -80.5 -83t-54.5 -97
q44 -5 98.5 0.5t108 21t101 41t77.5 59.5q22 25 27 47t-4.5 39t-32.5 27t-59 10q-48 0 -90.5 -15.5t-78.5 -41.5q15 -3 30 -9q12 -3 12 -16q0 -16 -17 -16q-7 0 -12 4.5t-5 11.5q0 5 3 10q-6 2 -12 3.5t-11 3.5zM704 765q-47 7 -85.5 -0.5t-65.5 -24t-42 -38.5t-15 -44.5
t16 -42t50 -29.5q22 50 58 96.5t84 82.5zM12 -58q5 -73 49 -104.5t113 -19.5q-27 39 -41 86.5t-18.5 98.5t-1.5 102t12 96q-25 -24 -46.5 -54.5t-37 -64t-23.5 -69.5t-6 -71zM139 214q-9 -45 -13.5 -97.5t-0.5 -105.5t18.5 -102.5t42.5 -88.5q53 12 96.5 48.5t77.5 87.5
t57 112t35.5 122.5t14 119.5t-9.5 103t-33.5 72.5t-57.5 27.5q-48 0 -85.5 -29.5t-65 -72.5t-45.5 -92t-27 -87q23 20 49.5 36t57.5 29q7 4 15.5 -0.5t8.5 -14.5q0 -8 -5.5 -12t-11.5 -4.5t-11.5 3t-6.5 11.5q-29 -14 -53.5 -30.5t-46.5 -35.5z" />
    </font>
</defs>
</svg>
