<?xml version="1.0" standalone="no"?>
<!DOCTYPE svg PUBLIC "-//W3C//DTD SVG 1.1//EN" "http://www.w3.org/Graphics/SVG/1.1/DTD/svg11.dtd" >
<svg xmlns="http://www.w3.org/2000/svg" xmlns:xlink="http://www.w3.org/1999/xlink" version="1.1">
<metadata>
Created by FontForge 20190801 at Mon Feb  8 12:13:57 2021
 By root
Copyright (c) 2010, 2011, Natalia Raices&#60;nraices@gmail.com&#62;, with Reserved Font Name "Delius" "Delius Unicase" "Delius Swash Caps".
</metadata>
<defs>
<font id="DeliusUnicase-Bold" horiz-adv-x="313" >
  <font-face 
    font-family="Delius Unicase"
    font-weight="700"
    font-stretch="normal"
    units-per-em="1000"
    panose-1="2 0 6 3 0 0 0 0 0 0"
    ascent="800"
    descent="-200"
    x-height="756"
    cap-height="756"
    bbox="-213 -252 1366 1047"
    underline-thickness="50"
    underline-position="-200"
    unicode-range="U+0001-206F"
  />
<missing-glyph horiz-adv-x="364" 
d="M33 0v666h265v-666h-265zM66 33h199v600h-199v-600z" />
    <glyph glyph-name=".notdef" horiz-adv-x="364" 
d="M33 0v666h265v-666h-265zM66 33h199v600h-199v-600z" />
    <glyph glyph-name="uni0000" 
 />
    <glyph glyph-name="uni0000" 
 />
    <glyph glyph-name="uni000D" unicode="&#xd;" 
 />
    <glyph glyph-name="uni0001" 
 />
    <glyph glyph-name="uni0002" 
 />
    <glyph glyph-name="uni0003" 
 />
    <glyph glyph-name="uni0004" 
 />
    <glyph glyph-name="uni0005" 
 />
    <glyph glyph-name="uni0006" 
 />
    <glyph glyph-name="uni0007" 
 />
    <glyph glyph-name="uni0008" 
 />
    <glyph glyph-name="uni0009" unicode="&#x9;" 
 />
    <glyph glyph-name="uni000A" unicode="&#xa;" 
 />
    <glyph glyph-name="uni000B" 
 />
    <glyph glyph-name="uni000C" 
 />
    <glyph glyph-name="uni000E" 
 />
    <glyph glyph-name="uni000F" 
 />
    <glyph glyph-name="uni0010" 
 />
    <glyph glyph-name="uni0011" 
 />
    <glyph glyph-name="uni0012" 
 />
    <glyph glyph-name="uni0013" 
 />
    <glyph glyph-name="uni0014" 
 />
    <glyph glyph-name="uni0015" 
 />
    <glyph glyph-name="uni0016" 
 />
    <glyph glyph-name="uni0017" 
 />
    <glyph glyph-name="uni0018" 
 />
    <glyph glyph-name="uni0019" 
 />
    <glyph glyph-name="uni001A" 
 />
    <glyph glyph-name="uni001B" 
 />
    <glyph glyph-name="uni001C" 
 />
    <glyph glyph-name="uni001D" 
 />
    <glyph glyph-name="uni001E" 
 />
    <glyph glyph-name="uni001F" 
 />
    <glyph glyph-name="space" unicode=" " 
 />
    <glyph glyph-name="exclam" unicode="!" horiz-adv-x="314" 
d="M224 461l1 -149q0 -39 -18.5 -62t-50 -23t-50 23t-18.5 62l2 149l-7 201q0 47 19.5 72.5t54.5 25.5t54.5 -25.5t19.5 -72.5zM214 126.5q20 -22.5 20 -55.5t-23 -59.5t-57.5 -26.5t-54 23t-19.5 56t22.5 59t57 26t54.5 -22.5z" />
    <glyph glyph-name="quotedbl" unicode="&#x22;" horiz-adv-x="473" 
d="M128 497q-29 0 -43 22t-14 47t-5.5 59.5t-5.5 63.5t18.5 50t49.5 21t49.5 -21t18.5 -50t-5.5 -63.5t-5.5 -59.5t-14 -47t-43 -22zM345 497q-29 0 -43 22t-14 47t-5.5 59.5t-5.5 63.5t18.5 50t49.5 21t49.5 -21t18.5 -50t-5.5 -63.5t-5.5 -59.5t-14 -47t-43 -22z" />
    <glyph glyph-name="numbersign" unicode="#" horiz-adv-x="866" 
d="M349 286l142 1q19 93 24 128h-141q-6 -35 -14.5 -76t-10.5 -53zM177 531l95 -3q4 16 9.5 51t11.5 62q15 71 71 71q30 0 45 -21t15 -43.5t-10 -62.5t-14 -60h134q4 16 9.5 53t11.5 64q15 71 71 71q30 0 45 -21t15 -43.5t-10 -62.5t-14 -59l71 3q39 0 59.5 -16.5
t20.5 -44.5q0 -59 -80 -59l-98 2q-4 -21 -12.5 -61t-11.5 -61l78 2q81 0 81 -59q0 -28 -20.5 -44.5t-60.5 -16.5l-98 3q-4 -19 -9 -54.5t-9 -57.5q-13 -70 -68 -70q-23 0 -41 17.5t-18 49.5q0 20 9 58t12 59h-134q-4 -19 -11 -57t-12 -66q-13 -63 -67 -63q-24 0 -42.5 18
t-18.5 43.5t9.5 63.5t13.5 60l-72 -3q-39 0 -59.5 16.5t-20.5 44.5q0 59 80 59l98 -2q4 21 12.5 61t11.5 61l-78 -2q-81 0 -81 59q0 28 20.5 44.5t60.5 16.5z" />
    <glyph glyph-name="dollar" unicode="$" horiz-adv-x="626" 
d="M429 197q0 36 -50 64v-133q21 10 35.5 29t14.5 40zM254 594q-37 -19 -37 -52.5t41 -62.5q-3 97 -4 115zM258 120l2 210q-78 44 -114 77.5t-50.5 64t-14.5 64.5q0 63 47.5 112.5t122.5 66.5q6 87 68.5 87t68.5 -86q62 -13 103.5 -42.5t41.5 -61.5t-16 -48t-36 -16t-36 6
t-35 16t-25 12q-2 -52 -2 -172q140 -76 172 -144q15 -32 15 -69q0 -70 -49.5 -124t-131.5 -74q-6 -93 -68.5 -93t-68.5 87q-78 14 -136.5 55t-58.5 79q0 27 17 44.5t42.5 17.5t67 -30.5t74.5 -38.5z" />
    <glyph glyph-name="percent" unicode="%" horiz-adv-x="937" 
d="M664 681q0 -52 -56 -115l-179 -518q-22 -63 -73 -63q-25 0 -42 18t-17 42.5t26 93t68.5 180t70.5 200.5q-10 -3 -34.5 -3t-40.5 6q-2 -77 -48 -129.5t-120 -52.5t-120 52t-46 133t47.5 135.5t120.5 54.5q44 0 116 -42t119 -42q18 0 39 7q23 77 41 98q21 23 52.5 23
t53.5 -21.5t22 -56.5zM839 308q46 -52 46 -133t-47.5 -135.5t-122.5 -54.5t-121 52.5t-46 133.5t47.5 135t122.5 54t121 -52zM271 527q0 35 -13 58t-37 23t-38 -23t-14 -57.5t14 -57.5t37.5 -23t37 22.5t13.5 57.5zM767 171q0 35 -13 58t-37 23t-38 -23t-14 -57.5t14 -57.5
t37.5 -23t37 22.5t13.5 57.5z" />
    <glyph glyph-name="ampersand" unicode="&#x26;" horiz-adv-x="840" 
d="M477 392l67 -2q131 0 131 64q0 23 -17 40t-38 25.5t-38 24t-17 39.5t17 41t51 17q64 0 122 -57.5t58 -135.5t-57.5 -124t-140.5 -53q8 -32 8 -59q0 -89 -77.5 -158t-201.5 -69t-207 74.5t-83 186.5q0 58 26 113.5t71 96.5q-50 59 -50 128t54 125t152 56q62 0 115.5 -33.5
t53.5 -68t-18.5 -50.5t-41.5 -16t-55.5 20.5t-58.5 20.5t-44.5 -16t-18.5 -48.5t31 -56.5q20 2 36 2q39 0 64 -19.5t25 -53t-27 -52.5t-57.5 -19t-52.5 6q-64 -45 -64 -127q0 -64 41.5 -103t109 -39t105 35t37.5 76q0 19 -6 40q-21 -19 -46.5 -19t-43.5 19t-18 52t29 55
t75 22z" />
    <glyph glyph-name="quotesingle" unicode="'" horiz-adv-x="256" 
d="M128 497q-29 0 -43 22t-14 47t-5.5 59.5t-5.5 63.5t18.5 50t49.5 21t49.5 -21t18.5 -50t-5.5 -63.5t-5.5 -59.5t-14 -47t-43 -22z" />
    <glyph glyph-name="parenleft" unicode="(" horiz-adv-x="364" 
d="M77 208.5q-25 90.5 -25 188.5t37 203.5t89.5 170t96.5 64.5q30 0 47 -20.5t17 -46.5t-23.5 -62t-51 -72t-51 -109.5t-23.5 -160.5t21.5 -160t48 -114t48 -75.5t21.5 -53t-14 -32t-39.5 -13.5t-63.5 38.5t-74 101t-61 153z" />
    <glyph glyph-name="parenright" unicode=")" horiz-adv-x="364" 
d="M275 600.5q37 -105.5 37 -203.5t-25 -188.5t-61 -153t-74 -101t-63.5 -38.5t-39.5 13.5t-14 32t21.5 53t48 75.5t48 114t21.5 160t-23.5 160.5t-51 109.5t-51 72t-23.5 62t17 46.5t47 20.5q44 0 96.5 -64.5t89.5 -170z" />
    <glyph glyph-name="asterisk" unicode="*" horiz-adv-x="462" 
d="M394 646q0 -37 -41 -59q41 -22 41 -59q0 -25 -19.5 -41.5t-39 -16.5t-37.5 7q-1 -30 -19.5 -48.5t-48 -18.5t-48 18.5t-18.5 48.5q-17 -7 -37 -7t-39.5 16.5t-19.5 41.5q0 38 41 59q-41 21 -41 59q0 25 19 41.5t40 16.5t37 -8q0 31 18.5 50t48 19t48.5 -19t19 -50
q16 8 37 8t40 -16.5t19 -41.5z" />
    <glyph glyph-name="plus" unicode="+" horiz-adv-x="592" 
d="M235 435l-3 97q0 36 17.5 57t47.5 21t48 -21.5t18 -57.5l-3 -96l109 2q31 0 51.5 -18t20.5 -44.5t-20.5 -44t-44.5 -17.5t-116 2l3 -109q0 -36 -17.5 -58t-48 -22t-48 22.5t-17.5 58.5l3 109l-109 -2q-32 0 -52.5 17.5t-20.5 44t21 44t45 17.5t116 -2z" />
    <glyph glyph-name="comma" unicode="," horiz-adv-x="264" 
d="M56 -3l-10 76q0 34 22.5 60t57 26t54.5 -24t20 -58q0 -68 -43 -140t-79 -72q-23 0 -34 14t-11 29.5t11.5 42t11.5 46.5z" />
    <glyph glyph-name="hyphen" unicode="-" horiz-adv-x="500" 
d="M251 432l106 5q31 0 51.5 -18t20.5 -44t-20.5 -44t-51.5 -18l-106 5l-107 -4q-31 0 -52 17.5t-21 43.5t21 43.5t52 17.5z" />
    <glyph glyph-name="period" unicode="." horiz-adv-x="287" 
d="M203.5 140q21.5 -24 21.5 -59t-24.5 -63t-61 -28t-57.5 24.5t-21 59.5t24 62.5t60.5 27.5t58 -24z" />
    <glyph glyph-name="slash" unicode="/" horiz-adv-x="452" 
d="M108.5 183q26.5 94 49 189.5t82.5 369.5q23 97 80 97q31 0 50.5 -20.5t19.5 -47.5t-10 -65.5t-37 -133.5q-46 -164 -132 -559q-6 -27 -13 -45t-24.5 -35t-45.5 -17t-47.5 20.5t-19.5 47.5t10.5 66t37 133z" />
    <glyph glyph-name="zero" unicode="0" horiz-adv-x="731" 
d="M664 375q0 -103 -33.5 -190.5t-102.5 -143.5t-160.5 -56t-161.5 56t-105 143.5t-35 190.5q0 158 83 274t219 116t216 -115t80 -275zM480 188.5q42 77.5 42 186t-42 186t-112.5 77.5t-115 -78.5t-44.5 -185t44.5 -185t115 -78.5t112.5 77.5z" />
    <glyph glyph-name="one" unicode="1" horiz-adv-x="510" 
d="M235 98l6 256q0 34 -1 60q-1 76 -1 151q-33 -40 -61.5 -81t-41.5 -56q-23 -27 -50.5 -27t-46.5 17.5t-19 45.5t16.5 53.5t51 65.5t61 75.5t42 52.5t39.5 33t49 16q103 0 103 -132l-5 -258l8 -272q0 -108 -75 -108t-75 108z" />
    <glyph glyph-name="two" unicode="2" horiz-adv-x="616" 
d="M315 122l163 6q37 0 59.5 -18t22.5 -48.5t-22.5 -49t-59.5 -18.5l-163 6l-173 -6q-91 0 -91 75q0 27 26.5 70t53 74.5t74 85.5t67 77t49.5 62q56 73 56 113.5t-24.5 63.5t-52.5 23t-44.5 -11t-28 -26.5t-23.5 -30.5q-27 -38 -60 -38t-52 18.5t-19 43.5q0 53 63.5 112
t163.5 59t159 -60t59 -148q0 -68 -62 -152q-42 -58 -127 -157q-79 -96 -98 -125q26 -1 84 -1z" />
    <glyph glyph-name="three" unicode="3" horiz-adv-x="627" 
d="M319 750l135 4q88 0 88 -74q0 -33 -98 -142q-47 -53 -52 -59q83 -31 130.5 -94t47.5 -140q0 -103 -72 -181t-196 -78q-96 0 -168 52.5t-72 104.5q0 23 14 40.5t36.5 17.5t43 -14t37.5 -30.5t46.5 -30.5t61.5 -14q56 0 91.5 37.5t35.5 91.5t-34 89t-82 43q-31 -30 -54 -41
t-55.5 -11t-52.5 20t-20 51t28 59.5t84 43.5q64 71 113 133q-10 1 -31 1l-161 -7q-37 0 -59.5 18t-22.5 48.5t22.5 49t59.5 18.5z" />
    <glyph glyph-name="four" unicode="4" horiz-adv-x="653" 
d="M370 352l1 127q0 54 -1 82q-51 -59 -158 -209h158zM510 672l-4 -317q20 2 30 2q31 0 52 -18t21 -47q0 -65 -99 -65q4 -84 4 -129q0 -108 -76 -108t-76 108q0 48 4 130h-258q-36 0 -57 20t-21 47.5t19.5 60t76.5 100.5l187 228q58 76 112 76q35 0 60 -20.5t25 -67.5z" />
    <glyph glyph-name="five" unicode="5" horiz-adv-x="644" 
d="M309 750l156 6q37 0 59.5 -18.5t22.5 -49t-22.5 -48.5t-59.5 -18l-156 6q-57 0 -80 -1q3 -66 3 -78l-3 -63q46 27 106 27q119 0 185 -73t66 -183t-74 -191t-198 -81q-104 0 -174.5 61t-70.5 112q0 27 18 45.5t44 18.5t40 -10t28 -30q49 -70 121 -70q53 0 88.5 44
t35.5 101.5t-30.5 95t-82 37.5t-100.5 -30t-74 -30q-73 0 -73 69q0 25 7 73t7 73t-6 68t-6 67q0 74 88 74z" />
    <glyph glyph-name="six" unicode="6" horiz-adv-x="645" 
d="M522 426q65 -76 65 -179t-68 -182t-189.5 -79t-192 85.5t-70.5 214.5t49 236.5t139 172t200 64.5q47 0 72 -17t25 -45t-26.5 -48t-75.5 -20q-136 0 -210 -154q56 27 106 27q111 0 176 -76zM248.5 151.5q30.5 -39.5 80 -39.5t83 38.5t33.5 94t-31 93.5t-80.5 38t-82.5 -38
t-33 -92.5t30.5 -94z" />
    <glyph glyph-name="seven" unicode="7" horiz-adv-x="559" 
d="M280 750l169 6q37 0 58.5 -19.5t21.5 -52t-17.5 -70.5t-59.5 -115t-97 -201t-84 -230q-11 -40 -27.5 -58.5t-44.5 -18.5t-48 20t-20 49q0 56 90 268q35 83 139 299q-23 1 -80 1l-162 -6q-37 0 -59.5 18t-22.5 48.5t22.5 49t59.5 18.5z" />
    <glyph glyph-name="eight" unicode="8" horiz-adv-x="664" 
d="M600 214q0 -95 -75 -161.5t-193 -66.5t-193 66.5t-75 161.5q0 123 133 204q-96 67 -96 159q0 77 65.5 132.5t165 55.5t165.5 -55.5t66 -138t-91 -153.5q128 -83 128 -204zM459 214q0 77 -127 132q-127 -55 -127 -132q0 -46 36.5 -74t90.5 -28t90.5 28t36.5 74zM424 576
q0 26 -28 44t-63.5 18t-64 -18t-28.5 -44q0 -43 94 -91q90 46 90 91z" />
    <glyph glyph-name="nine" unicode="9" horiz-adv-x="642" 
d="M120.5 327q-64.5 78 -64.5 181t70 180t189 77t189.5 -86t70.5 -218q0 -201 -110 -338.5t-278 -137.5q-46 0 -71 18.5t-25 46t20.5 47t66.5 21.5q75 4 134.5 46t91.5 112q-52 -27 -108 -27q-111 0 -175.5 78zM230 600q-33 -38 -33 -93.5t29.5 -93t81.5 -37.5t85.5 41.5
t33.5 95t-32.5 89.5t-82 36t-82.5 -38z" />
    <glyph glyph-name="colon" unicode=":" horiz-adv-x="306" 
d="M213.5 140q21.5 -24 21.5 -59t-24.5 -63t-61 -28t-57.5 24.5t-21 59.5t24 62.5t60.5 27.5t58 -24zM213.5 480q21.5 -24 21.5 -59t-24.5 -63t-61 -28t-57.5 24.5t-21 59.5t24 62.5t60.5 27.5t58 -24z" />
    <glyph glyph-name="semicolon" unicode=";" horiz-adv-x="308" 
d="M210.5 480q21.5 -24 21.5 -59t-24.5 -63t-61 -28t-57.5 24.5t-21 59.5t24 62.5t60.5 27.5t58 -24zM75 -3l-10 76q0 34 22.5 60t57 26t54.5 -24t20 -58q0 -68 -43 -140t-79 -72q-23 0 -34 14t-11 29.5t11.5 42t11.5 46.5z" />
    <glyph glyph-name="less" unicode="&#x3c;" horiz-adv-x="624" 
d="M256 389.5q-15 -8.5 -15 -13t15 -13t40 -19t54 -21.5t60 -22t55.5 -19t42.5 -14.5t19 -6.5q52 -21 52 -62q0 -25 -17 -41t-38 -16t-45 7.5t-47 17t-70.5 30.5t-76 32.5t-58 22.5t-44 17t-35.5 15.5t-31 17.5t-21 20q-20 20 -20 45.5t4 39t15.5 25t21.5 19.5t31 18
t35.5 15.5t44 17t58 23t76 32.5t70.5 31q59 24 86 24t44 -16t17 -41q0 -41 -52 -62q-1 0 -19 -6.5t-42.5 -14.5t-55.5 -19t-60 -22.5t-54 -22t-40 -19z" />
    <glyph glyph-name="equal" unicode="=" horiz-adv-x="664" 
d="M333 541l176 5q31 0 51.5 -18t20.5 -44t-20.5 -44t-51.5 -18l-176 5l-177 -4q-31 0 -52 17.5t-21 43.5t21 43.5t52 17.5zM333 324l176 5q31 0 51.5 -18t20.5 -44t-20.5 -44t-51.5 -18l-176 5l-177 -4q-31 0 -52 17.5t-21 43.5t21 43.5t52 17.5z" />
    <glyph glyph-name="greater" unicode="&#x3e;" horiz-adv-x="624" 
d="M368 363.5q15 8.5 15 13t-15 13t-40 19t-54 22t-60 22.5t-55.5 19t-42.5 14.5t-19 6.5q-52 21 -52 62q0 25 17 41t38 16t45 -7.5t47 -17t70.5 -30.5t76 -32.5t58 -23t44 -17t35.5 -15.5t31 -18t21 -19q20 -20 20 -56q0 -34 -15.5 -50t-25.5 -24t-31 -17.5t-35.5 -15.5
t-44 -17t-58 -22.5t-76 -32.5t-70.5 -31q-59 -24 -86 -24t-44 16t-17 41q0 41 52 62q1 0 19 6.5t42.5 14.5t55.5 19t60 22t54 21.5t40 19z" />
    <glyph glyph-name="question" unicode="?" horiz-adv-x="547" 
d="M492 568q0 -42 -29 -86.5t-64 -74.5q-93 -80 -93 -118q0 -84 -66 -84q-30 0 -49.5 22t-19.5 59t18.5 69.5t44.5 58t52 49.5q64 58 64 105q0 31 -25.5 50.5t-58 19.5t-57 -19.5t-46 -39t-48.5 -19.5t-44 18.5t-17 43.5q0 47 65 95.5t143 48.5q102 0 166 -57t64 -141z
M293 126.5q20 -22.5 20 -55.5t-23 -59.5t-57.5 -26.5t-54 23t-19.5 56t22.5 59t57 26t54.5 -22.5z" />
    <glyph glyph-name="at" unicode="@" horiz-adv-x="979" 
d="M915 368q0 -105 -63 -175.5t-149.5 -70.5t-129.5 55q-52 -55 -121 -55q-48 0 -86 21.5t-59 55.5q-42 68 -42 143q0 97 62.5 168t158.5 71q36 0 72 -22q19 22 54 22q66 0 66 -98q0 -12 -9.5 -71t-9.5 -97q0 -71 48 -71q30 0 53.5 30t23.5 96q0 133 -85.5 203t-211 70
t-211.5 -86.5t-86 -216.5t75 -204.5t179 -74.5q33 0 75.5 11t67 11t41 -13.5t16.5 -35.5q0 -38 -56 -63.5t-147 -25.5q-164 0 -275.5 109.5t-111.5 284.5t124.5 300.5t310 125.5t306 -107t120.5 -290zM540 329v113q-27 22 -59 22t-58.5 -34t-26.5 -81.5t15 -79t47 -31.5
q42 0 82 91z" />
    <glyph glyph-name="A" unicode="A" horiz-adv-x="692" 
d="M454 221q-78 4 -129 4t-90 -2q-12 -31 -29.5 -92.5t-26.5 -87.5q-18 -53 -66 -53q-28 0 -45 17t-17 47.5t52 165.5q-52 12 -52 60q0 65 93 65q14 43 54 155t51.5 146.5t18 49.5t17.5 32q21 32 63 32q31 0 55 -19q15 -12 27 -46.5t24.5 -72t27 -77t40 -114.5t29.5 -86
q5 1 18 1q34 0 56 -19.5t22 -47.5q0 -46 -56 -61q56 -145 56 -168t-18.5 -41.5t-48.5 -18.5q-45 0 -66 50q-5 12 -60 181zM271 338q25 -2 74 -2t74 2q-65 236 -73 236q-7 0 -58 -177z" />
    <glyph glyph-name="B" unicode="B" horiz-adv-x="728" 
d="M675 221q0 -108 -90.5 -172t-226 -64t-215 28.5t-79.5 72.5q0 47 44 55q3 100 3 237.5t-3 213.5q-41 19 -41 53t32.5 57.5t79.5 36.5q94 26 166 26t128.5 -19.5t88.5 -51.5q62 -62 62 -132q0 -86 -77 -151q56 -31 92 -82t36 -108zM253 118q38 -7 107.5 -7t120.5 29.5
t51 86.5q0 42 -41.5 71t-90.5 39q-53 -14 -88.5 -14t-63.5 2q2 -174 5 -207zM452.5 615q-35.5 24 -95 24t-107.5 -12v-165q38 4 69.5 4t68.5 -8q31 4 65.5 31.5t34.5 71.5q0 30 -35.5 54z" />
    <glyph glyph-name="C" unicode="C" horiz-adv-x="704" 
d="M659 121q0 -46 -76 -91t-183 -45q-145 0 -241 114t-96 277t96.5 276t241.5 113q92 0 165.5 -38t73.5 -86q0 -29 -19 -46.5t-48.5 -17.5t-73.5 30.5t-98 30.5q-85 0 -140.5 -77.5t-55.5 -184t55 -186t136.5 -79.5t153.5 43q33 20 56.5 20t38 -15t14.5 -38z" />
    <glyph glyph-name="D" unicode="D" horiz-adv-x="775" 
d="M115 375l-5 228q-41 12 -41 57q0 30 43.5 55t99.5 36.5t106 11.5q98 0 175.5 -33t124.5 -88q95 -113 95 -270q0 -151 -92 -264q-45 -56 -120.5 -89.5t-179.5 -33.5t-180 30t-76 75t47 56zM572 376q0 108 -65.5 185t-188.5 77q-34 0 -64 -9q-3 -61 -3 -250t4 -261
q32 -7 72 -7q81 0 138 39q107 75 107 226z" />
    <glyph glyph-name="E" unicode="E" horiz-adv-x="629" 
d="M346 0l-152 -6q-37 0 -61.5 24t-24.5 64l6 251q-62 9 -62 65q0 27 17 44t44 22l-5 183q-11 21 -11 49q0 60 95 60l152 -6l157 6q38 0 60.5 -18.5t22.5 -49.5t-22.5 -48.5t-60.5 -17.5l-157 6q-54 0 -94 -3v-166q16 -1 43 -1l161 7q36 0 59 -18.5t23 -49t-23 -48
t-59 -17.5l-158 6h-14q-14 -1 -32 -1q0 -139 2 -213q27 -2 94 -2l157 6q38 0 60.5 -17.5t22.5 -48.5t-22.5 -49.5t-60.5 -18.5z" />
    <glyph glyph-name="F" unicode="F" horiz-adv-x="620" 
d="M106 98l8 235q-62 9 -62 65q0 27 17 44t44 22l-5 183q-11 21 -11 49q0 60 95 60l152 -6l157 6q38 0 60.5 -18.5t22.5 -49.5t-22.5 -48.5t-60.5 -17.5l-157 6q-54 0 -94 -3v-166q12 -1 33 -1l161 7q36 0 59 -18.5t23 -49.5t-22.5 -48t-59.5 -17l-158 6h-10q-11 -1 -26 -1
q8 -168 8 -239q0 -108 -76 -108t-76 108z" />
    <glyph glyph-name="G" unicode="G" horiz-adv-x="766" 
d="M400 425l114 -6l117 6q36 0 59 -23t23 -58q0 -164 -87.5 -261.5t-228.5 -97.5t-237 114t-96 277t99 276t250 113q97 0 176 -42t79 -91q0 -28 -18 -44.5t-46 -16.5t-53 16.5t-58 33.5t-80 17q-90 0 -148.5 -77t-58.5 -184t55.5 -186.5t140.5 -79.5q64 0 109 48.5t54 136.5
q-11 1 -54 1l-111 -5q-37 0 -60 18.5t-23 49t23 48t60 17.5z" />
    <glyph glyph-name="H" unicode="H" horiz-adv-x="776" 
d="M525 453l-6 198q0 109 75.5 109t75.5 -109q0 -62 -7 -193q30 -6 47.5 -25t17.5 -45t-17 -45t-48 -23l7 -222q0 -108 -75.5 -108t-75.5 108l6 227l-139 3l-135 -3l7 -227q0 -108 -76 -108t-76 108l7 222q-31 4 -47.5 23.5t-16.5 45t17.5 44.5t46.5 25l-6 192q0 109 76 109
t76 -109q0 -64 -7 -197l134 -3q68 0 139 3z" />
    <glyph glyph-name="I" unicode="I" horiz-adv-x="490" 
d="M125 756l122 -6l122 6q37 0 59.5 -18t22.5 -48.5t-22.5 -48.5t-59.5 -18l-47 3q-7 -148 -7 -251.5t7 -251.5q36 4 47 4q37 0 59.5 -18t22.5 -48.5t-22.5 -48.5t-59.5 -18l-122 6l-122 -7q-38 0 -60.5 18t-22.5 49t22.5 48.5t60.5 17.5l47 -4q7 148 7 252t-7 252
q-30 -3 -57.5 -3t-50 17.5t-22.5 48.5t22.5 49t60.5 18z" />
    <glyph glyph-name="J" unicode="J" horiz-adv-x="599" 
d="M332 750l139 6q37 0 59.5 -18t22.5 -49q0 -54 -64 -66q-1 -75 -1 -360q0 -75 -21 -131t-57 -87q-70 -60 -160.5 -60t-148.5 38.5t-58 79.5q0 28 18 45t43.5 17t63.5 -26.5t80 -26.5t73 41t31 130l-2 344l-138 -6q-38 0 -60 18t-22 49t22.5 49.5t59.5 18.5z" />
    <glyph glyph-name="K" unicode="K" horiz-adv-x="701" 
d="M254 650q0 -15 -7 -183q34 2 45 2t51 -5q39 33 73 93t55 125q24 78 75 78q27 0 46.5 -18.5t19.5 -46.5q0 -59 -49 -152.5t-110 -159.5q48 -101 107 -181t83 -92q6 -3 17.5 -4.5t16.5 -6t5 -18.5q0 -33 -24.5 -62t-61.5 -29t-67.5 24.5t-73 88.5t-129.5 216
q-36 -6 -53.5 -6t-25.5 2l7 -216q0 -109 -76 -109t-76 109l8 281l-8 270q0 109 76 109t76 -109z" />
    <glyph glyph-name="L" unicode="L" horiz-adv-x="595" 
d="M341 122l137 6q38 0 60.5 -17.5t22.5 -48.5t-22.5 -49.5t-60.5 -18.5l-137 6l-151 -6q-37 0 -61.5 24t-24.5 64l6 298l-8 271q0 109 76 109t76 -109l-8 -271q0 -51 7 -256q52 -2 88 -2z" />
    <glyph glyph-name="M" unicode="M" horiz-adv-x="906" 
d="M801 374l8 -274q0 -108 -76 -108t-76 108q0 42 4.5 150t4.5 159l-143 -247q-27 -50 -67.5 -50t-66.5 48l-143 247l9 -309q0 -108 -76 -108t-76 108l8 274l-5 306q0 39 21.5 60.5t51.5 21.5q44 0 70 -50q200 -394 208 -394t157 297l49 99q26 50 70 50q30 0 51.5 -21.5
t21.5 -60.5z" />
    <glyph glyph-name="N" unicode="N" horiz-adv-x="765" 
d="M655 380l3 -300q0 -90 -75 -90q-44 0 -69 41l-262 439q-2 -24 -2 -80l7 -292q0 -108 -76 -108t-76 108l8 272q0 37 -4 135t-4 166q0 89 74 89q51 0 74 -40l267 -458l-1 118l-8 272q0 108 76 108t76 -108z" />
    <glyph glyph-name="O" unicode="O" horiz-adv-x="823" 
d="M559 191q59 80 59 185.5t-58.5 184t-148 78.5t-148 -78.5t-58.5 -184t59 -185.5t147.5 -80t147.5 80zM660.5 651.5q99.5 -113.5 99.5 -276t-100 -276.5t-248.5 -114t-248.5 114t-100 276.5t100.5 276t249 113.5t248 -113.5z" />
    <glyph glyph-name="P" unicode="P" horiz-adv-x="657" 
d="M97 98l8 272q0 46 -7 221q-36 20 -36 64q0 31 30 54t75 35q84 21 156 21q155 0 236 -73.5t81 -179.5t-80.5 -180t-207.5 -74q-76 0 -109 4l6 -164q0 -108 -76 -108t-76 108zM241 394q59 -11 115.5 -11t99 35.5t42.5 92t-45 92t-125 35.5q-44 0 -82 -12q-5 -123 -5 -232z
" />
    <glyph glyph-name="Q" unicode="Q" horiz-adv-x="825" 
d="M763 374q0 -97 -40.5 -180t-109.5 -137q43 -61 43 -89t-17 -45t-42 -17t-45.5 20.5t-44.5 70.5q-40 -12 -96 -12q-149 0 -249 113.5t-100 276t100.5 276.5t250.5 114t250 -113.5t100 -277.5zM621 374q0 107 -59.5 186t-149.5 79t-149 -79t-59 -184t59.5 -185t148.5 -80
q11 0 29 2q-33 49 -39 64.5t-6 34.5t17.5 36t41.5 17t43.5 -18.5t42.5 -73.5q38 37 59 90t21 111z" />
    <glyph glyph-name="R" unicode="R" horiz-adv-x="699" 
d="M102 98l8 272q0 76 -6 226q-42 17 -42 58q0 28 30.5 50.5t75.5 35.5q90 25 156 25q149 0 226 -68.5t77 -167.5q0 -58 -36 -114.5t-96 -91.5q100 -199 146 -214q6 -2 14 -4.5t10 -3.5t6 -2.5t5 -4.5q1 -7 1 -16q0 -38 -27.5 -63.5t-61.5 -25.5q-54 0 -105 69.5t-120 221.5
q-26 -2 -57.5 -2t-59.5 6q8 -136 8 -186q0 -108 -76 -108t-76 108zM246 419q33 10 75.5 10t86.5 -13q27 11 52 42t25 65q0 53 -40 84t-116 31q-34 0 -78 -12q-5 -185 -5 -207z" />
    <glyph glyph-name="S" unicode="S" horiz-adv-x="608" 
d="M559 213q0 -97 -73 -162.5t-189 -65.5q-93 0 -170 44.5t-77 93.5q0 27 18.5 44.5t46 17.5t54 -18.5t58 -37t77 -18.5t80 27.5t34.5 74.5q0 50 -86 101q-17 10 -55.5 32t-58.5 34t-52.5 36.5t-49.5 45.5q-42 52 -42 112q0 78 67.5 134.5t159 56.5t156.5 -35t65 -79
q0 -29 -18 -45t-45 -16t-70 24.5t-80.5 24.5t-65 -18.5t-27.5 -46.5q0 -30 38 -58q30 -22 78.5 -50t69.5 -40.5t56.5 -39.5t53.5 -49t32.5 -55t14.5 -69z" />
    <glyph glyph-name="T" unicode="T" horiz-adv-x="605" 
d="M377 370l8 -272q0 -108 -76 -108t-76 108l8 272q0 82 -7 258l-119 -6q-38 0 -60.5 18t-22.5 49t22.5 49t60.5 18l190 -6l190 6q38 0 60.5 -18t22.5 -49t-22.5 -49t-60.5 -18l-113 6q-5 -132 -5 -258z" />
    <glyph glyph-name="U" unicode="U" horiz-adv-x="743" 
d="M656 652l-10 -396q0 -112 -71.5 -191.5t-203.5 -79.5t-203.5 79t-71.5 191l-10 396q0 109 76 109t76 -109l-7 -321q0 -159 70 -202q29 -17 70.5 -17t70 17.5t42.5 49.5q27 60 27 153l-7 321q0 109 76 109t76 -109z" />
    <glyph glyph-name="V" unicode="V" horiz-adv-x="666" 
d="M382.5 7q-25.5 -17 -52 -17t-52.5 18.5t-39 57.5q-78 235 -122.5 358t-60.5 168q-26 72 -26 98t17 48t49 22q53 0 73 -62q23 -72 67 -214q88 -287 95.5 -287t60 159t104.5 334q21 70 71 70q33 0 52.5 -21t19.5 -44t-22 -85.5t-81 -222t-115 -324.5q-13 -39 -38.5 -56z
" />
    <glyph glyph-name="W" unicode="W" horiz-adv-x="953" 
d="M720 50q-12 -31 -30.5 -45.5t-50.5 -14.5q-58 0 -83 73q-13 37 -30 104q-39 152 -44.5 152t-22.5 -60.5t-22 -78.5q-17 -65 -36 -127.5t-81 -62.5t-81 57q-13 28 -71 211.5t-81 250t-33 94.5q-22 62 -22 92.5t19 47.5t48 17q54 0 76 -71q21 -73 71 -233q76 -242 80 -242
q8 0 56 188l16 63q23 94 81 94q37 0 57 -23.5t32 -70.5q69 -249 77 -249q10 0 136 466q22 78 67 78q34 0 52 -20.5t18 -41.5t-6 -46.5t-13.5 -48t-23.5 -70t-31.5 -96.5t-43.5 -136q-58 -184 -80 -251z" />
    <glyph glyph-name="X" unicode="X" horiz-adv-x="708" 
d="M264 393q-97 155 -144 209q-23 29 -56 34q-9 2 -14 4q-12 6 -12 37t22.5 58t55.5 27q61 0 106 -71l119 -187q30 45 62 102.5t48 85t38 48t47.5 20.5t44 -19.5t18.5 -45t-16 -52.5t-66.5 -100t-99.5 -156q114 -174 171 -240q23 -29 56 -35q9 -1 14 -3q12 -6 12 -37
t-22.5 -58t-55.5 -27q-56 0 -105 71l-149 218q-30 -45 -73 -121.5t-63 -106.5q-38 -57 -76 -57q-27 0 -45.5 19.5t-18.5 44.5t21 60t76.5 115t104.5 163z" />
    <glyph glyph-name="Y" unicode="Y" horiz-adv-x="602" 
d="M223 98q0 48 7 195q-32 65 -88 158.5t-89 153t-33 88t17.5 48t45 19.5t42.5 -9.5t32 -37t32 -58.5q61 -127 114 -217q57 100 93 174t52.5 101.5t31 37t41 9.5t44 -20.5t17.5 -47t-34 -87t-91 -154t-89 -159.5q7 -133 7 -194q0 -108 -76 -108t-76 108z" />
    <glyph glyph-name="Z" unicode="Z" horiz-adv-x="617" 
d="M334 122l163 6q37 0 59.5 -18t22.5 -48.5t-22.5 -49t-59.5 -18.5l-163 6l-213 -6q-80 0 -80 64q0 39 47 106q81 115 166 258l122 205q-23 1 -80 1l-162 -6q-37 0 -59.5 18t-22.5 48.5t22.5 49t59.5 18.5l162 -6l189 6q80 0 80 -62q0 -32 -16 -62t-71.5 -110t-106.5 -165
l-140 -234q32 -1 103 -1z" />
    <glyph glyph-name="bracketleft" unicode="[" horiz-adv-x="452" 
d="M228 39l110 4q36 0 59.5 -17.5t23.5 -47t-23 -47t-60 -17.5l-88 3l-92 -4q-34 0 -55 20.5t-21 55.5l5 386l-6 388q0 37 21 56.5t56 19.5l92 -4l88 3q36 0 59.5 -18t23.5 -46.5t-23.5 -46.5t-59.5 -18l-110 3q-6 -166 -6 -333t6 -340z" />
    <glyph glyph-name="backslash" unicode="\" horiz-adv-x="452" 
d="M212 742q60 -274 82.5 -369.5t49 -189.5t37 -133t10.5 -66t-19.5 -47.5t-47.5 -20.5t-45.5 17t-24.5 35t-36.5 153.5t-55.5 245t-53 205t-37 134t-10 65.5t19.5 47.5t50.5 20.5q57 0 80 -97z" />
    <glyph glyph-name="bracketright" unicode="]" horiz-adv-x="452" 
d="M202 -83l-88 -3q-37 0 -60 17.5t-23 47t23.5 47t59.5 17.5l110 -4q6 173 6 340t-6 333l-110 -3q-36 0 -59.5 18t-23.5 46.5t23.5 46.5t59.5 18l88 -3l92 4q35 0 56 -19.5t21 -56.5l-6 -388l5 -386q0 -35 -21 -55.5t-55 -20.5z" />
    <glyph glyph-name="asciicircum" unicode="^" horiz-adv-x="591" 
d="M297 761q63 0 92 -55.5t56.5 -98.5t44.5 -68.5t23 -35.5t15 -27q15 -27 15 -52t-17 -43t-38.5 -18t-35.5 8t-25.5 25.5t-20.5 35.5q-87 186 -109 186q-13 0 -59 -85q-17 -30 -38 -74.5t-32 -62.5q-23 -33 -53 -33t-47 18t-17 36.5t3 30.5t12 28.5t15 26.5t23 35
q64 96 99 164q31 59 94 59z" />
    <glyph glyph-name="underscore" unicode="_" horiz-adv-x="626" 
d="M313 -10l186 5q31 0 51.5 -18t20.5 -44t-20.5 -44t-51.5 -18l-186 5l-187 -4q-31 0 -52 17.5t-21 43.5t21 43.5t52 17.5z" />
    <glyph glyph-name="grave" unicode="`" horiz-adv-x="342" 
d="M78 677q0 26 16 47.5t39.5 21.5t35.5 -4.5t20.5 -14.5t13 -17.5t11.5 -24t9.5 -21t23 -35t20.5 -47.5t-13 -29.5t-36 -12.5q-36 0 -88 44t-52 93z" />
    <glyph glyph-name="a" unicode="a" horiz-adv-x="808" 
d="M666.5 731.5q23.5 -33.5 23.5 -84t-28 -281.5q0 -54 11.5 -142.5t30.5 -101.5q18 -12 26 -15t11 -5q5 -5 5 -20q0 -38 -26 -67t-67.5 -29t-68.5 35.5t-37 90.5q-93 -127 -218 -127q-67 0 -120 34.5t-84 90.5q-63 114 -63 253q0 164 88 283t228 119q82 0 156 -44
q15 44 68 44q41 0 64.5 -33.5zM536 357l-5 220q-71 61 -153 61q-69 0 -121.5 -78.5t-52.5 -189.5t34.5 -184.5t96 -73.5t125 82t76.5 163z" />
    <glyph glyph-name="b" unicode="b" horiz-adv-x="728" 
d="M675 221q0 -108 -90.5 -172t-226 -64t-215 28.5t-79.5 72.5q0 47 44 55q3 100 3 237.5t-3 213.5q-41 19 -41 53t32.5 57.5t79.5 36.5q94 26 166 26t128.5 -19.5t88.5 -51.5q62 -62 62 -132q0 -86 -77 -151q56 -31 92 -82t36 -108zM253 118q38 -7 107.5 -7t120.5 29.5
t51 86.5q0 42 -41.5 71t-90.5 39q-53 -14 -88.5 -14t-63.5 2q2 -174 5 -207zM452.5 615q-35.5 24 -95 24t-107.5 -12v-165q38 4 69.5 4t68.5 -8q31 4 65.5 31.5t34.5 71.5q0 30 -35.5 54z" />
    <glyph glyph-name="c" unicode="c" horiz-adv-x="704" 
d="M659 121q0 -46 -76 -91t-183 -45q-145 0 -241 114t-96 277t96.5 276t241.5 113q92 0 165.5 -38t73.5 -86q0 -29 -19 -46.5t-48.5 -17.5t-73.5 30.5t-98 30.5q-85 0 -140.5 -77.5t-55.5 -184t55 -186t136.5 -79.5t153.5 43q33 20 56.5 20t38 -15t14.5 -38z" />
    <glyph glyph-name="d" unicode="d" horiz-adv-x="775" 
d="M115 375l-5 228q-41 12 -41 57q0 30 43.5 55t99.5 36.5t106 11.5q98 0 175.5 -33t124.5 -88q95 -113 95 -270q0 -151 -92 -264q-45 -56 -120.5 -89.5t-179.5 -33.5t-180 30t-76 75t47 56zM572 376q0 108 -65.5 185t-188.5 77q-34 0 -64 -9q-3 -61 -3 -250t4 -261
q32 -7 72 -7q81 0 138 39q107 75 107 226z" />
    <glyph glyph-name="e" unicode="e" horiz-adv-x="744" 
d="M559 542q0 36 -29 66t-83 30q-71 0 -120.5 -60t-69.5 -144q60 -14 134.5 -14t121 32t46.5 90zM604 33.5q-74 -48.5 -158 -48.5t-144.5 29.5t-99.5 79.5q-82 103 -92 243q-68 27 -68 83q0 28 18.5 45.5t45.5 17.5q8 0 18 -3q35 124 119 204.5t196.5 80.5t187 -64.5
t74.5 -154t-45 -146.5q-85 -104 -263 -104q-59 0 -137 13q15 -84 63 -141t110 -57q69 0 147 47q26 16 48 16t38 -15t16 -38q0 -39 -74 -87.5z" />
    <glyph glyph-name="f" unicode="f" horiz-adv-x="620" 
d="M106 98l8 235q-62 9 -62 65q0 27 17 44t44 22l-5 183q-11 21 -11 49q0 60 95 60l152 -6l157 6q38 0 60.5 -18.5t22.5 -49.5t-22.5 -48.5t-60.5 -17.5l-157 6q-54 0 -94 -3v-166q12 -1 33 -1l161 7q36 0 59 -18.5t23 -49.5t-22.5 -48t-59.5 -17l-158 6h-10q-11 -1 -26 -1
q8 -168 8 -239q0 -108 -76 -108t-76 108z" />
    <glyph glyph-name="g" unicode="g" horiz-adv-x="766" 
d="M400 425l114 -6l117 6q36 0 59 -23t23 -58q0 -164 -87.5 -261.5t-228.5 -97.5t-237 114t-96 277t99 276t250 113q97 0 176 -42t79 -91q0 -28 -18 -44.5t-46 -16.5t-53 16.5t-58 33.5t-80 17q-90 0 -148.5 -77t-58.5 -184t55.5 -186.5t140.5 -79.5q64 0 109 48.5t54 136.5
q-11 1 -54 1l-111 -5q-37 0 -60 18.5t-23 49t23 48t60 17.5z" />
    <glyph glyph-name="h" unicode="h" horiz-adv-x="776" 
d="M525 453l-6 198q0 109 75.5 109t75.5 -109q0 -62 -7 -193q30 -6 47.5 -25t17.5 -45t-17 -45t-48 -23l7 -222q0 -108 -75.5 -108t-75.5 108l6 227l-139 3l-135 -3l7 -227q0 -108 -76 -108t-76 108l7 222q-31 4 -47.5 23.5t-16.5 45t17.5 44.5t46.5 25l-6 192q0 109 76 109
t76 -109q0 -64 -7 -197l134 -3q68 0 139 3z" />
    <glyph glyph-name="i" unicode="i" horiz-adv-x="490" 
d="M125 756l122 -6l122 6q37 0 59.5 -18t22.5 -48.5t-22.5 -48.5t-59.5 -18l-47 3q-7 -148 -7 -251.5t7 -251.5q36 4 47 4q37 0 59.5 -18t22.5 -48.5t-22.5 -48.5t-59.5 -18l-122 6l-122 -7q-38 0 -60.5 18t-22.5 49t22.5 48.5t60.5 17.5l47 -4q7 148 7 252t-7 252
q-30 -3 -57.5 -3t-50 17.5t-22.5 48.5t22.5 49t60.5 18z" />
    <glyph glyph-name="j" unicode="j" horiz-adv-x="599" 
d="M332 750l139 6q37 0 59.5 -18t22.5 -49q0 -54 -64 -66q-1 -75 -1 -360q0 -75 -21 -131t-57 -87q-70 -60 -160.5 -60t-148.5 38.5t-58 79.5q0 28 18 45t43.5 17t63.5 -26.5t80 -26.5t73 41t31 130l-2 344l-138 -6q-38 0 -60 18t-22 49t22.5 49.5t59.5 18.5z" />
    <glyph glyph-name="k" unicode="k" horiz-adv-x="701" 
d="M254 650q0 -15 -7 -183q34 2 45 2t51 -5q39 33 73 93t55 125q24 78 75 78q27 0 46.5 -18.5t19.5 -46.5q0 -59 -49 -152.5t-110 -159.5q48 -101 107 -181t83 -92q6 -3 17.5 -4.5t16.5 -6t5 -18.5q0 -33 -24.5 -62t-61.5 -29t-67.5 24.5t-73 88.5t-129.5 216
q-36 -6 -53.5 -6t-25.5 2l7 -216q0 -109 -76 -109t-76 109l8 281l-8 270q0 109 76 109t76 -109z" />
    <glyph glyph-name="l" unicode="l" horiz-adv-x="595" 
d="M341 122l137 6q38 0 60.5 -17.5t22.5 -48.5t-22.5 -49.5t-60.5 -18.5l-137 6l-151 -6q-37 0 -61.5 24t-24.5 64l6 298l-8 271q0 109 76 109t76 -109l-8 -271q0 -51 7 -256q52 -2 88 -2z" />
    <glyph glyph-name="m" unicode="m" horiz-adv-x="1216" 
d="M226 392l6 -294q0 -108 -75 -108q-84 0 -84 127q0 100 26 271q0 47 -11 143t-11 140.5t20 68t56 23.5q73 0 73 -113q83 110 204 110q72 0 125.5 -35t82.5 -93q36 54 94 91t125 37q113 0 175.5 -78.5t62.5 -191.5l-6 -255q0 -96 12 -107q10 -9 26 -12t21.5 -9.5t5.5 -18.5
q0 -42 -28.5 -71t-66.5 -29q-63 0 -87 43.5t-24 128.5l5 268q0 92 -27.5 148t-82 56t-111 -72.5t-79.5 -167.5l6 -294q0 -108 -75 -108q-84 0 -84 127q0 100 26 271q0 114 -27 179t-82 65t-111.5 -72.5t-79.5 -167.5z" />
    <glyph glyph-name="n" unicode="n" horiz-adv-x="808" 
d="M540 160l5 268q0 92 -30 148t-88 56t-118 -72.5t-84 -167.5l6 -294q0 -108 -75 -108q-84 0 -84 127q0 100 26 271q0 47 -11 143t-11 140.5t20 68t56 23.5q73 0 73 -113q87 110 209.5 110t187.5 -78.5t65 -191.5l-6 -255q0 -95 12 -107q7 -7 21 -10t23 -9t9 -21
q0 -42 -28.5 -71t-66.5 -29q-63 0 -87 43.5t-24 128.5z" />
    <glyph glyph-name="o" unicode="o" horiz-adv-x="823" 
d="M559 191q59 80 59 185.5t-58.5 184t-148 78.5t-148 -78.5t-58.5 -184t59 -185.5t147.5 -80t147.5 80zM660.5 651.5q99.5 -113.5 99.5 -276t-100 -276.5t-248.5 -114t-248.5 114t-100 276.5t100.5 276t249 113.5t248 -113.5z" />
    <glyph glyph-name="p" unicode="p" horiz-adv-x="657" 
d="M97 98l8 272q0 46 -7 221q-36 20 -36 64q0 31 30 54t75 35q84 21 156 21q155 0 236 -73.5t81 -179.5t-80.5 -180t-207.5 -74q-76 0 -109 4l6 -164q0 -108 -76 -108t-76 108zM241 394q59 -11 115.5 -11t99 35.5t42.5 92t-45 92t-125 35.5q-44 0 -82 -12q-5 -123 -5 -232z
" />
    <glyph glyph-name="q" unicode="q" horiz-adv-x="825" 
d="M763 374q0 -97 -40.5 -180t-109.5 -137q43 -61 43 -89t-17 -45t-42 -17t-45.5 20.5t-44.5 70.5q-40 -12 -96 -12q-149 0 -249 113.5t-100 276t100.5 276.5t250.5 114t250 -113.5t100 -277.5zM621 374q0 107 -59.5 186t-149.5 79t-149 -79t-59 -184t59.5 -185t148.5 -80
q11 0 29 2q-33 49 -39 64.5t-6 34.5t17.5 36t41.5 17t43.5 -18.5t42.5 -73.5q38 37 59 90t21 111z" />
    <glyph glyph-name="r" unicode="r" horiz-adv-x="565" 
d="M223 352l8 -256q0 -108 -75 -108q-84 0 -84 127q0 90 26 271q0 47 -11 143t-11 140.5t20 68t55.5 23.5t55 -27t19.5 -75q31 47 77.5 76t105.5 29t96 -30t37 -65.5t-22 -57.5t-49 -22t-55.5 23.5t-38.5 23.5q-35 0 -87 -95.5t-67 -188.5z" />
    <glyph glyph-name="s" unicode="s" horiz-adv-x="608" 
d="M559 213q0 -97 -73 -162.5t-189 -65.5q-93 0 -170 44.5t-77 93.5q0 27 18.5 44.5t46 17.5t54 -18.5t58 -37t77 -18.5t80 27.5t34.5 74.5q0 50 -86 101q-17 10 -55.5 32t-58.5 34t-52.5 36.5t-49.5 45.5q-42 52 -42 112q0 78 67.5 134.5t159 56.5t156.5 -35t65 -79
q0 -29 -18 -45t-45 -16t-70 24.5t-80.5 24.5t-65 -18.5t-27.5 -46.5q0 -30 38 -58q30 -22 78.5 -50t69.5 -40.5t56.5 -39.5t53.5 -49t32.5 -55t14.5 -69z" />
    <glyph glyph-name="t" unicode="t" horiz-adv-x="605" 
d="M115 756l190 -6l190 6q38 0 60.5 -18t22.5 -49t-22.5 -49t-60.5 -18l-113 6q-5 -132 -5 -258l8 -272q0 -108 -76 -108t-76 108l8 272q0 82 -7 258l-119 -6q-38 0 -60.5 18t-22.5 49t22.5 49t60.5 18z" />
    <glyph glyph-name="u" unicode="u" horiz-adv-x="821" 
d="M549 359l-6 294q0 108 75 108q84 0 84 -127q0 -100 -26 -271q0 -54 11 -139t30 -98q18 -12 26 -15t11 -5q5 -5 5 -20q0 -38 -26 -67t-67.5 -29t-68.5 35.5t-37 90.5q-32 -52 -93 -88.5t-132 -36.5q-118 0 -183 78.5t-65 191.5l6 255q0 41 -10.5 88.5t-10.5 80t22.5 54
t58.5 21.5q83 0 83 -126l-7 -311q0 -92 30 -148t88 -56t118 72.5t84 167.5z" />
    <glyph glyph-name="v" unicode="v" horiz-adv-x="666" 
d="M382.5 7q-25.5 -17 -52 -17t-52.5 18.5t-39 57.5q-78 235 -122.5 358t-60.5 168q-26 72 -26 98t17 48t49 22q53 0 73 -62q23 -72 67 -214q88 -287 95.5 -287t60 159t104.5 334q21 70 71 70q33 0 52.5 -21t19.5 -44t-22 -85.5t-81 -222t-115 -324.5q-13 -39 -38.5 -56z
" />
    <glyph glyph-name="w" unicode="w" horiz-adv-x="953" 
d="M720 50q-12 -31 -30.5 -45.5t-50.5 -14.5q-58 0 -83 73q-13 37 -30 104q-39 152 -44.5 152t-22.5 -60.5t-22 -78.5q-17 -65 -36 -127.5t-81 -62.5t-81 57q-13 28 -71 211.5t-81 250t-33 94.5q-22 62 -22 92.5t19 47.5t48 17q54 0 76 -71q21 -73 71 -233q76 -242 80 -242
q8 0 56 188l16 63q23 94 81 94q37 0 57 -23.5t32 -70.5q69 -249 77 -249q10 0 136 466q22 78 67 78q34 0 52 -20.5t18 -41.5t-6 -46.5t-13.5 -48t-23.5 -70t-31.5 -96.5t-43.5 -136q-58 -184 -80 -251z" />
    <glyph glyph-name="x" unicode="x" horiz-adv-x="708" 
d="M264 393q-97 155 -144 209q-23 29 -56 34q-9 2 -14 4q-12 6 -12 37t22.5 58t55.5 27q57 0 106 -71l119 -187q30 45 62 102.5t48 85t38 48t47.5 20.5t44 -19.5t18.5 -45t-16 -52.5t-66.5 -100t-99.5 -156q114 -174 171 -240q23 -29 56 -35q9 -1 14 -3q12 -6 12 -37
t-22.5 -58t-55.5 -27q-56 0 -105 71l-149 218q-30 -45 -73 -121.5t-63 -106.5q-38 -57 -76 -57q-27 0 -45.5 19.5t-18.5 44.5t21 60t76.5 115t104.5 163z" />
    <glyph glyph-name="y" unicode="y" horiz-adv-x="602" 
d="M223 98q0 48 7 195q-32 65 -88 158.5t-89 153t-33 88t17.5 48t45 19.5t42.5 -9.5t32 -37t32 -58.5q61 -127 114 -217q57 100 93 174t52.5 101.5t31 37t41 9.5t44 -20.5t17.5 -47t-34 -87t-91 -154t-89 -159.5q7 -133 7 -194q0 -108 -76 -108t-76 108z" />
    <glyph glyph-name="z" unicode="z" horiz-adv-x="617" 
d="M334 122l163 6q37 0 59.5 -18t22.5 -48.5t-22.5 -49t-59.5 -18.5l-163 6l-213 -6q-80 0 -80 64q0 39 47 106q81 115 166 258l122 205q-23 1 -80 1l-162 -6q-37 0 -59.5 18t-22.5 48.5t22.5 49t59.5 18.5l162 -6l189 6q80 0 80 -62q0 -32 -16 -62t-71.5 -110t-106.5 -165
l-140 -234q32 -1 103 -1z" />
    <glyph glyph-name="braceleft" unicode="{" horiz-adv-x="405" 
d="M246 374q38 -49 38 -158q0 -34 -6.5 -78t-6.5 -60t13.5 -26.5t30 -14.5t30 -19.5t13.5 -43t-18.5 -45.5t-49.5 -18q-66 0 -114.5 38.5t-48.5 109.5q0 28 7 79.5t7 88.5t-7 59q-12 -2 -19 -2q-39 0 -67.5 23t-28.5 66t28.5 66t68.5 23q7 0 19 -2q7 22 7 59t-7 88.5
t-7 79.5q0 71 48.5 109.5t114.5 38.5q31 0 49.5 -18t18.5 -45.5t-13.5 -43t-29.5 -19.5q-44 -11 -44 -43q0 -14 6.5 -58t6.5 -78q0 -106 -39 -156z" />
    <glyph glyph-name="bar" unicode="|" horiz-adv-x="296" 
d="M211 339l4 -311q0 -107 -68 -107q-66 0 -66 107l4 311l-5 311q0 110 68 110t68 -110z" />
    <glyph glyph-name="braceright" unicode="}" horiz-adv-x="405" 
d="M159 374q-39 50 -39 156q0 34 6.5 78t6.5 60t-13.5 26.5t-30 14.5t-30 19.5t-13.5 43t18.5 45.5t49.5 18q66 0 114.5 -38.5t48.5 -109.5q0 -28 -7 -79.5t-7 -88.5t7 -59q12 2 19 2q40 0 68.5 -23t28.5 -66t-28.5 -66t-67.5 -23q-7 0 -19 2q-7 -22 -7 -59t7 -88.5t7 -79.5
q0 -71 -48.5 -109.5t-114.5 -38.5q-31 0 -49.5 18t-18.5 45.5t13.5 43t29.5 19.5q44 11 44 43q0 14 -6.5 58t-6.5 78q0 109 38 158z" />
    <glyph glyph-name="asciitilde" unicode="~" horiz-adv-x="622" 
d="M570 399q0 -34 -51 -70.5t-107 -36.5q-36 0 -93 24.5t-75.5 24.5t-53.5 -25.5t-65 -25.5t-48.5 16.5t-18.5 43.5q0 39 49.5 73.5t121.5 34.5q37 0 93.5 -25t83 -25t60.5 21.5t56 21.5t35 -15t13 -37z" />
    <glyph glyph-name="uni007F" 
 />
    <glyph glyph-name="nbspace" unicode="&#xa0;" horiz-adv-x="290" 
 />
    <glyph glyph-name="exclamdown" unicode="&#xa1;" horiz-adv-x="314" 
d="M90 214l-1 149q0 39 18.5 62t50 23t50 -23t18.5 -62l-2 -149l7 -201q0 -47 -19.5 -72.5t-54.5 -25.5t-54.5 25.5t-19.5 72.5zM100 548.5q-20 22.5 -20 55.5t23 59.5t57.5 26.5t54 -23t19.5 -56t-22.5 -59t-57 -26t-54.5 22.5z" />
    <glyph glyph-name="cent" unicode="&#xa2;" horiz-adv-x="711" 
d="M658 121q0 -37 -51.5 -75.5t-131.5 -53.5q-11 -74 -66 -74q-53 0 -64 72q-124 19 -203.5 121.5t-79.5 238.5t79 237.5t203 122.5q10 77 66 77t66 -80q69 -14 116 -46.5t47 -65.5t-19 -50.5t-42 -17.5t-38 6.5t-34.5 19t-29.5 17.5q-3 -201 -3 -221.5t3 -227.5
q27 7 66.5 30t63 23t38 -15t14.5 -38zM242 493q-38 -64 -38 -142.5t38.5 -143.5t101.5 -87q3 207 3 244t-2 118t-2 96q-63 -21 -101 -85z" />
    <glyph glyph-name="sterling" unicode="&#xa3;" horiz-adv-x="593" 
d="M311 121l144 7q37 0 59 -18t22 -49t-22 -48.5t-59 -17.5l-144 5l-143 -5q-38 0 -60.5 20t-22.5 55.5t17.5 63.5t35.5 65t18 91q-91 0 -91 61q0 55 74 59q-20 85 -20 122q0 77 55.5 129t153.5 52q75 0 129.5 -34.5t54.5 -74.5q0 -25 -15.5 -44.5t-43 -19.5t-68.5 23
t-67 23t-42 -15.5t-16 -42.5t18 -120l115 3q37 0 58 -16.5t21 -44t-21 -44t-58 -16.5l-100 3q-2 -102 -37 -171z" />
    <glyph glyph-name="currency" unicode="&#xa4;" horiz-adv-x="676" 
d="M542 473q21 -46 21 -100.5t-21 -100.5q44 -40 55 -54.5t11 -37.5t-20.5 -42t-46 -19t-40.5 10t-46 44q-50 -29 -116.5 -29t-118.5 29q-31 -34 -45 -44t-40.5 -10t-47 18.5t-20.5 42.5t10.5 38.5t54.5 53.5q-20 48 -20 100.5t20 100.5q-44 39 -54.5 53.5t-10.5 38.5
t20.5 42.5t47 18.5t40.5 -10t45 -44q52 29 118.5 29t116.5 -29q31 34 46 44t40.5 10t46 -19t20.5 -42t-11 -37.5t-55 -54.5zM402.5 448q-27.5 32 -65 32t-65.5 -31.5t-28 -76t27.5 -77t65.5 -32.5t65.5 32.5t27.5 76.5t-27.5 76z" />
    <glyph glyph-name="yen" unicode="&#xa5;" horiz-adv-x="671" 
d="M337 -10q-76 0 -76 108v32q-26 -1 -100 -1q-31 0 -52 17.5t-21 43.5t21 43.5t62.5 17.5t95.5 -2q-29 55 -33 62h-73q-31 0 -52 17.5t-21 43.5t21 43.5t55 17.5q-26 43 -34 57t-18.5 31.5t-15 27t-12.5 24t-11.5 23t-7.5 18.5q-7 19 -7 40.5t17.5 41t44.5 19.5t41 -8.5
t31.5 -35.5t32.5 -57q78 -152 116 -221q73 133 101.5 192t45.5 86t31 35.5t40 8.5t43.5 -20.5t17.5 -46.5q0 -31 -40 -98q-6 -10 -16 -27t-16.5 -27.5t-18 -30.5t-18.5 -31q33 0 54 -17.5t21 -44t-20.5 -44.5t-60 -18t-65.5 1l-33 -63q78 4 108 4t50.5 -18t20.5 -44
t-20.5 -44t-59 -18t-94.5 3q1 -11 1 -33q0 -108 -76 -108z" />
    <glyph glyph-name="brokenbar" unicode="&#xa6;" horiz-adv-x="306" 
d="M215 595l5 -83q0 -36 -18.5 -59t-50 -23t-48.5 22.5t-17 59.5l4 83l-3 83q0 37 16.5 59.5t48 22.5t49.5 -22.5t18 -59.5zM215 155l5 -83q0 -36 -18.5 -59t-50 -23t-48.5 22.5t-17 59.5l4 83l-3 83q0 37 16.5 59.5t48 22.5t49.5 -22.5t18 -59.5z" />
    <glyph glyph-name="section" unicode="&#xa7;" horiz-adv-x="590" 
d="M459 197q42 -42 42 -97q0 -75 -62.5 -130t-162.5 -55q-75 0 -146 43t-71 85q0 26 16.5 41.5t42.5 15.5t70.5 -29t84.5 -29t64 16t24 39t-28 42t-74.5 42.5t-72 38.5t-56.5 38q-60 47 -60 112q0 41 25 74.5t69 53.5q-62 52 -62 113t59.5 107.5t141 46.5t138.5 -32t57 -75
q0 -23 -17 -39t-41 -16t-61.5 18t-68.5 18q-67 0 -67 -32q0 -15 18.5 -32.5t36.5 -28t58.5 -32t63 -35t54.5 -37.5q60 -48 60 -119t-75 -126zM397 329q0 23 -41 48.5t-74.5 25.5t-54.5 -8.5t-21 -22.5t29.5 -35t107.5 -64q54 16 54 56z" />
    <glyph glyph-name="dieresis" unicode="&#xa8;" horiz-adv-x="542" 
d="M447 701.5q20 -22.5 20 -55.5t-23 -59.5t-57.5 -26.5t-54 23t-19.5 56t22.5 59t57 26t54.5 -22.5zM209 701.5q20 -22.5 20 -55.5t-23 -59.5t-57.5 -26.5t-54 23t-19.5 56t22.5 59t57 26t54.5 -22.5z" />
    <glyph glyph-name="copyright" unicode="&#xa9;" horiz-adv-x="788" 
d="M399 620q43 0 79 -20.5t36 -47.5q0 -49 -51 -49q-12 0 -31 10t-29 10q-28 0 -43 -21.5t-15 -50.5t17 -49.5t41 -20.5q11 0 34 9t39 9t29.5 -12.5t13.5 -35t-34 -45t-86 -22.5q-68 0 -114.5 50t-46.5 119t45 118t116 49zM718 449q0 -131 -94.5 -223.5t-229 -92.5t-230 93
t-95.5 223.5t95.5 223t230 92.5t229 -92.5t94.5 -223.5zM541.5 301q61.5 61 61.5 148.5t-61.5 148.5t-148.5 61t-148 -61t-61 -149t61 -148.5t148 -60.5t148.5 61z" />
    <glyph glyph-name="ordfeminine" unicode="&#xaa;" horiz-adv-x="435" 
d="M247 599l-1 45q-25 17 -45.5 17t-34.5 -19t-14 -45.5t8.5 -44t25 -17.5t35 19.5t26.5 44.5zM357 682q0 -8 -6 -50t-6 -63t6 -32t13 -12q18 -3 18 -17q0 -32 -18.5 -51.5t-48.5 -19.5t-50 41q-38 -41 -84 -41q-61 0 -95 48.5t-34 112t42.5 113.5t107.5 50q32 0 63 -19
q15 19 36 19q56 0 56 -79z" />
    <glyph glyph-name="guillemotleft" unicode="&#xab;" horiz-adv-x="611" 
d="M232 434q-52 -45 -52 -58.5t52 -58.5q19 -16 28 -25q25 -25 25 -49t-17.5 -41.5t-35.5 -17.5t-29.5 6.5t-18.5 13.5t-24 26.5t-29 31.5t-30.5 29t-27.5 26t-16.5 24.5t-7.5 34.5t7.5 34.5t16.5 24t27.5 25.5t30.5 29t29 31.5t24 26.5q20 20 43 20t40.5 -17.5t17.5 -36
t-8.5 -32.5t-17 -22.5t-27.5 -24.5zM491 434q-52 -45 -52 -58.5t52 -58.5q19 -16 27 -25q26 -25 26 -49t-17.5 -41.5t-35.5 -17.5t-29.5 6.5t-18.5 13.5t-24 26.5t-29 31.5t-30.5 29t-27.5 26t-16.5 24.5t-7.5 34.5t7.5 34.5t16.5 24t27.5 25.5t30.5 29t29 31.5t24 26.5
q20 20 43 20t40.5 -17.5t17.5 -36t-8.5 -32.5t-17 -22.5t-27.5 -24.5z" />
    <glyph glyph-name="logicalnot" unicode="&#xac;" horiz-adv-x="707" 
d="M622 301l2 -66q0 -34 -18.5 -55t-48.5 -21t-48.5 21t-18.5 55l2 70l-150 1l-183 -4q-33 0 -54.5 17.5t-21.5 44.5t21 43.5t55 16.5l183 -3l205 3q27 0 52 -15.5t25 -53.5z" />
    <glyph glyph-name="uni00AD" unicode="&#xad;" horiz-adv-x="438" 
d="M220 317l86 5q31 0 51.5 -18t20.5 -44t-20.5 -44t-51.5 -18l-86 5l-87 -4q-31 0 -52 17.5t-21 43.5t21 43.5t52 17.5z" />
    <glyph glyph-name="registered" unicode="&#xae;" horiz-adv-x="787" 
d="M364 470l22 -4q17 0 26.5 9t9.5 22t-9.5 24t-25 11t-23.5 -4v-58zM718 449q0 -131 -94.5 -223.5t-229 -92.5t-230 93t-95.5 223.5t95.5 223t230 92.5t229 -92.5t94.5 -223.5zM541.5 301q61.5 61 61.5 148.5t-61.5 148.5t-148.5 61t-148 -61t-61 -149t61 -148.5t148 -60.5
t148.5 61zM275 460l-4 98q0 37 30 50t90 13t95 -35t35 -83.5t-48 -83.5q7 -21 18 -31.5t19 -11.5q22 -3 22 -26t-17 -41.5t-36 -18.5t-36.5 14.5t-28.5 31.5q-31 47 -41 47q1 -11 1 -36t-13 -41.5t-37 -16.5q-53 0 -53 56z" />
    <glyph glyph-name="macron" unicode="&#xaf;" horiz-adv-x="496" 
d="M251 728l116 5q31 0 51.5 -18t20.5 -44t-20.5 -44t-51.5 -18l-116 5l-117 -4q-31 0 -52 17.5t-21 43.5t21 43.5t52 17.5z" />
    <glyph glyph-name="degree" unicode="&#xb0;" horiz-adv-x="407" 
d="M311.5 719.5q41.5 -43.5 41.5 -106t-41.5 -106t-108 -43.5t-108 43t-41.5 106t41.5 106.5t108 43.5t108 -43.5zM233 578.5q11 13.5 11 34t-11 35t-29 14.5t-29.5 -14.5t-11.5 -35t11.5 -34t29.5 -13.5t29 13.5z" />
    <glyph glyph-name="plusminus" unicode="&#xb1;" horiz-adv-x="642" 
d="M322 170l176 5q31 0 51.5 -18t20.5 -44t-20.5 -44t-51.5 -18l-176 5l-177 -4q-31 0 -52 17.5t-21 43.5t21 43.5t52 17.5zM259 525l-3 87q0 36 17.5 57t47.5 21t48 -21.5t18 -57.5l-3 -86l113 2q31 0 51.5 -18t20.5 -44.5t-20.5 -44t-46.5 -17.5t-118 2l3 -99
q0 -36 -17.5 -58t-48 -22t-48 22.5t-17.5 58.5l3 99l-114 -2q-32 0 -52.5 17.5t-20.5 44t21 44t47.5 17.5t118.5 -2z" />
    <glyph glyph-name="twosuperior" unicode="&#xb2;" horiz-adv-x="432" 
d="M220 446l82 3q34 0 55.5 -14.5t21.5 -43.5q0 -59 -77 -59l-90 3l-86 -3q-28 0 -50 15.5t-22 45t44 79t87.5 93.5t43.5 57q0 29 -26 29q-19 0 -43.5 -19.5t-45.5 -19.5t-34.5 15t-13.5 34q0 36 43.5 69.5t107 33.5t102 -35.5t38.5 -81.5q0 -44 -33 -87q-36 -46 -104 -114z
" />
    <glyph glyph-name="threesuperior" unicode="&#xb3;" horiz-adv-x="432" 
d="M206 750l75 3q17 0 33 -3.5t33 -19t17 -37.5t-10 -35.5t-31 -31t-29 -25.5q87 -41 87 -129q0 -60 -47.5 -106.5t-127.5 -46.5q-60 0 -106.5 30.5t-46.5 59t15.5 43.5t35 15t46 -19t51 -19t39 11.5t14.5 29.5q0 43 -37 55q-22 -23 -48.5 -23t-45 16.5t-18.5 38.5
q0 34 47 51q22 18 37 37q-54 -3 -59 -3q-32 0 -51 13.5t-19 39t19 42t51 16.5z" />
    <glyph glyph-name="acute" unicode="&#xb4;" horiz-adv-x="342" 
d="M264 677q0 -49 -52 -93t-88 -44q-23 0 -36 12.5t-13 29.5t20.5 47.5t23 35t9.5 21t11.5 24t12.5 17.5q17 19 48.5 19t47.5 -21.5t16 -47.5z" />
    <glyph glyph-name="paragraph" unicode="&#xb6;" horiz-adv-x="732" 
d="M621 270l5 -258q-2 -97 -71 -97q-34 0 -51.5 26t-17.5 71l5 258l-4 366h-108q-5 -237 -5 -366l6 -258q0 -44 -18 -70t-52 -26t-52.5 26t-18.5 70l6 288q-89 13 -143 73t-54 143q0 110 69 172.5t189 64.5l132 -3l109 3q36 0 57 -26t21 -70z" />
    <glyph glyph-name="periodcentered" unicode="&#xb7;" horiz-adv-x="290" 
d="M202 439.5q20 -22.5 20 -55.5t-23 -59.5t-57.5 -26.5t-54 23t-19.5 56t22.5 59t57 26t54.5 -22.5z" />
    <glyph glyph-name="cedilla" unicode="&#xb8;" horiz-adv-x="341" 
d="M102 20h106q3 -62 29 -90q40 -44 40 -82.5t-36.5 -68t-89 -29.5t-90 30t-37.5 59q0 17 10.5 28.5t28 11.5t39.5 -12.5t35 -12.5q23 0 23 19q0 9 -19 28t-29 38t-10 81z" />
    <glyph glyph-name="onesuperior" unicode="&#xb9;" horiz-adv-x="357" 
d="M281 544l3 -137q0 -35 -17.5 -55.5t-47 -20.5t-47 20.5t-17.5 55.5q0 11 1 61t1 102q-41 -50 -67.5 -50t-43.5 15t-17 36.5t13 39.5t40 46.5t46 50.5t26 28q31 24 63.5 24t49.5 -23t17 -62z" />
    <glyph glyph-name="ordmasculine" unicode="&#xba;" horiz-adv-x="431" 
d="M332.5 718q45.5 -47 45.5 -118.5t-45 -117t-118 -45.5t-117.5 45.5t-44.5 117t45 118.5t117 47t117.5 -47zM262 601q0 28 -12 45.5t-34.5 17.5t-34.5 -17.5t-12 -45.5q0 -63 46.5 -63t46.5 63z" />
    <glyph glyph-name="guillemotright" unicode="&#xbb;" horiz-adv-x="610" 
d="M379 317q52 45 52 58.5t-52 58.5q-19 16 -27 24q-26 26 -26 50t17.5 41.5t35.5 17.5t29.5 -6.5t18.5 -13.5t24 -26.5t29 -31.5t30.5 -29t27.5 -25.5t16.5 -24t7.5 -34.5t-7.5 -34.5t-16.5 -24.5t-27.5 -26t-30.5 -29t-29 -31.5t-24 -26.5q-20 -20 -43 -20t-40.5 17.5
t-17.5 36t8.5 32.5t17 22.5t27.5 24.5zM120 317q52 45 52 58.5t-52 58.5q-19 16 -28 24q-25 26 -25 50t17.5 41.5t35.5 17.5t29.5 -6.5t18.5 -13.5t24 -26.5t29 -31.5t30.5 -29t27.5 -25.5t16.5 -24t7.5 -34.5t-7.5 -34.5t-16.5 -24.5t-27.5 -26t-30.5 -29t-29 -31.5
t-24 -26.5q-20 -20 -43 -20t-40.5 17.5t-17.5 36t8.5 32.5t17 22.5t27.5 24.5z" />
    <glyph glyph-name="onequarter" unicode="&#xbc;" horiz-adv-x="1020" 
d="M298 544l3 -137q0 -35 -17.5 -55.5t-47 -20.5t-47 20.5t-17.5 55.5q0 11 1 61t1 102q-41 -50 -67.5 -50t-43.5 15t-17 36.5t13 39.5t40 46.5t46 50.5t27 28q30 24 62.5 24t49.5 -23t17 -62zM593.5 510q-34.5 -86 -55.5 -141.5t-54 -159t-48.5 -146.5t-32.5 -58t-42 -15
t-46 17t-21 49q0 30 24 90.5t33.5 85t27 69t34 88t101.5 302.5q13 39 29.5 54t42.5 15t47.5 -16t21.5 -43t-13.5 -66t-48 -125zM912 118l2 -58q0 -70 -63 -70t-63 67q0 2 2 63l-127 -2q-34 0 -49.5 17.5t-15.5 38t23.5 55t132.5 176.5q36 48 83 48q32 0 54.5 -24t22.5 -58
l-3 -145q58 -6 58 -53q0 -49 -57 -55zM738 218h58v82q-34 -46 -58 -82z" />
    <glyph glyph-name="onehalf" unicode="&#xbd;" horiz-adv-x="991" 
d="M298 544l3 -137q0 -35 -17.5 -55.5t-47 -20.5t-47 20.5t-17.5 55.5q0 11 1 61t1 102q-41 -50 -67.5 -50t-43.5 15t-17 36.5t13 39.5t40 46.5t46 50.5t27 28q30 24 62.5 24t49.5 -23t17 -62zM593.5 510q-34.5 -86 -55.5 -141.5t-54 -159t-48.5 -146.5t-32.5 -58t-42 -15
t-46 17t-21 49q0 30 24 90.5t33.5 85t27 69t34 88t101.5 302.5q13 39 29.5 54t42.5 15t47.5 -16t21.5 -43t-13.5 -66t-48 -125zM776 112l82 3q34 0 55.5 -14.5t21.5 -43.5q0 -59 -77 -59l-90 3l-86 -3q-28 0 -50 15.5t-22 45t43.5 79t87.5 93.5t44 57q0 29 -26 29
q-19 0 -43.5 -19.5t-45.5 -19.5t-34.5 15t-13.5 34q0 36 43.5 69.5t107 33.5t102 -35.5t38.5 -81.5q0 -44 -33 -87q-36 -46 -104 -114z" />
    <glyph glyph-name="threequarters" unicode="&#xbe;" horiz-adv-x="1084" 
d="M659.5 510q-34.5 -86 -55.5 -141.5t-54 -159t-48.5 -146.5t-32.5 -58t-42 -15t-46 17t-21 49q0 30 24 90.5t33.5 85t27 69t34 88t101.5 302.5q13 39 29.5 54t42.5 15t47.5 -16t21.5 -43t-13.5 -66t-48 -125zM978 118l2 -58q0 -70 -63 -70t-63 67q0 2 2 63l-127 -2
q-34 0 -49.5 17.5t-15.5 38t23.5 55t132.5 176.5q36 48 83 48q32 0 54.5 -24t22.5 -58l-3 -145q58 -6 58 -53q0 -49 -57 -55zM804 218h58v82q-34 -46 -58 -82zM212 750l75 3q17 0 33 -3.5t33 -19t17 -37.5t-10 -35.5t-31 -31t-29 -25.5q87 -41 87 -129q0 -60 -47.5 -106.5
t-127.5 -46.5q-60 0 -106.5 30.5t-46.5 59t15.5 43.5t35.5 15t46.5 -19t50.5 -19t38.5 11.5t14.5 29.5q0 43 -37 55q-22 -23 -48.5 -23t-45 16.5t-18.5 38.5q0 34 47 51q22 18 37 37q-54 -3 -59 -3q-32 0 -51 13.5t-19 39t19 42t51 16.5z" />
    <glyph glyph-name="questiondown" unicode="&#xbf;" horiz-adv-x="539" 
d="M52 113q0 42 29 86.5t64 74.5q93 80 93 118q0 84 66 84q30 0 49.5 -22t19.5 -59t-18.5 -69.5t-44.5 -58t-52 -49.5q-64 -58 -64 -105q0 -31 25.5 -50.5t58 -19.5t57 19.5t46 39t48.5 19.5t44 -18.5t17 -43.5q0 -47 -65 -95.5t-143 -48.5q-102 0 -166 57t-64 141z
M251 554.5q-20 22.5 -20 55.5t23 59.5t57.5 26.5t54 -23t19.5 -56t-22.5 -59t-57 -26t-54.5 22.5z" />
    <glyph glyph-name="Agrave" unicode="&#xc0;" horiz-adv-x="692" 
d="M454 221q-78 4 -129 4t-90 -2q-12 -31 -29.5 -92.5t-26.5 -87.5q-18 -53 -66 -53q-28 0 -45 17t-17 47.5t52 165.5q-52 12 -52 60q0 65 93 65q14 43 54 155t51.5 146.5t18 49.5t17.5 32q21 32 63 32q31 0 55 -19q15 -12 27 -46.5t24.5 -72t27 -77t40 -114.5t29.5 -86
q5 1 18 1q34 0 56 -19.5t22 -47.5q0 -46 -56 -61q56 -145 56 -168t-18.5 -41.5t-48.5 -18.5q-45 0 -66 50q-5 12 -60 181zM271 338q25 -2 74 -2t74 2q-65 236 -73 236q-7 0 -58 -177zM236 927q0 26 16 47.5t39.5 21.5t35.5 -4.5t20.5 -14.5t13 -17.5t11.5 -24t9.5 -21
t23 -35t20.5 -47.5t-13 -29.5t-36 -12.5q-36 0 -88 44t-52 93z" />
    <glyph glyph-name="Aacute" unicode="&#xc1;" horiz-adv-x="692" 
d="M454 221q-78 4 -129 4t-90 -2q-12 -31 -29.5 -92.5t-26.5 -87.5q-18 -53 -66 -53q-28 0 -45 17t-17 47.5t52 165.5q-52 12 -52 60q0 65 93 65q14 43 54 155t51.5 146.5t18 49.5t17.5 32q21 32 63 32q31 0 55 -19q15 -12 27 -46.5t24.5 -72t27 -77t40 -114.5t29.5 -86
q5 1 18 1q34 0 56 -19.5t22 -47.5q0 -46 -56 -61q56 -145 56 -168t-18.5 -41.5t-48.5 -18.5q-45 0 -66 50q-5 12 -60 181zM271 338q25 -2 74 -2t74 2q-65 236 -73 236q-7 0 -58 -177zM465 927q0 -49 -52 -93t-88 -44q-23 0 -36 12.5t-13 29.5t20.5 47.5t23 35t9.5 21
t11.5 24t13.5 17.5q16 19 47.5 19t47.5 -21.5t16 -47.5z" />
    <glyph glyph-name="Acircumflex" unicode="&#xc2;" horiz-adv-x="692" 
d="M454 221q-78 4 -129 4t-90 -2q-12 -31 -29.5 -92.5t-26.5 -87.5q-18 -53 -66 -53q-28 0 -45 17t-17 47.5t52 165.5q-52 12 -52 60q0 65 93 65q14 43 54 155t51.5 146.5t18 49.5t17.5 32q21 32 63 32q31 0 55 -19q15 -12 27 -46.5t24.5 -72t27 -77t40 -114.5t29.5 -86
q5 1 18 1q34 0 56 -19.5t22 -47.5q0 -46 -56 -61q56 -145 56 -168t-18.5 -41.5t-48.5 -18.5q-45 0 -66 50q-5 12 -60 181zM271 338q25 -2 74 -2t74 2q-65 236 -73 236q-7 0 -58 -177zM312.5 1012.5q15.5 7.5 37 7.5t36.5 -9t38.5 -36t34 -37.5t28 -26.5t23.5 -22
q17 -17 17 -39t-17.5 -39.5t-42 -17.5t-50.5 24t-44.5 48t-26.5 24t-26 -23q-57 -72 -97 -72q-23 0 -40.5 17.5t-17.5 34.5t5.5 27.5t11.5 16.5t23.5 22t28.5 27t28 29.5t26 27.5t24.5 16.5z" />
    <glyph glyph-name="Atilde" unicode="&#xc3;" horiz-adv-x="692" 
d="M454 221q-78 4 -129 4t-90 -2q-12 -31 -29.5 -92.5t-26.5 -87.5q-18 -53 -66 -53q-28 0 -45 17t-17 47.5t52 165.5q-52 12 -52 60q0 65 93 65q14 43 54 155t51.5 146.5t18 49.5t17.5 32q21 32 63 32q31 0 55 -19q15 -12 27 -46.5t24.5 -72t27 -77t40 -114.5t29.5 -86
q5 1 18 1q34 0 56 -19.5t22 -47.5q0 -46 -56 -61q56 -145 56 -168t-18.5 -41.5t-48.5 -18.5q-45 0 -66 50q-5 12 -60 181zM271 338q25 -2 74 -2t74 2q-65 236 -73 236q-7 0 -58 -177zM567 919q0 -34 -41.5 -70.5t-79.5 -36.5t-88.5 24.5t-66 24.5t-46 -27.5t-57.5 -27.5
t-45 18.5t-18 45.5q0 39 43 72t106 33q32 0 86 -24t76 -24t46 22t42.5 22t30.5 -15t12 -37z" />
    <glyph glyph-name="Adieresis" unicode="&#xc4;" horiz-adv-x="692" 
d="M454 221q-78 4 -129 4t-90 -2q-12 -31 -29.5 -92.5t-26.5 -87.5q-18 -53 -66 -53q-28 0 -45 17t-17 47.5t52 165.5q-52 12 -52 60q0 65 93 65q14 43 54 155t51.5 146.5t18 49.5t17.5 32q21 32 63 32q31 0 55 -19q15 -12 27 -46.5t24.5 -72t27 -77t40 -114.5t29.5 -86
q5 1 18 1q34 0 56 -19.5t22 -47.5q0 -46 -56 -61q56 -145 56 -168t-18.5 -41.5t-48.5 -18.5q-45 0 -66 50q-5 12 -60 181zM271 338q25 -2 74 -2t74 2q-65 236 -73 236q-7 0 -58 -177zM522 946.5q20 -22.5 20 -55.5t-23 -59.5t-57.5 -26.5t-54 23t-19.5 56t22.5 59t57 26
t54.5 -22.5zM284 946.5q20 -22.5 20 -55.5t-23 -59.5t-57.5 -26.5t-54 23t-19.5 56t22.5 59t57 26t54.5 -22.5z" />
    <glyph glyph-name="Aring" unicode="&#xc5;" horiz-adv-x="692" 
d="M454 221q-78 4 -129 4t-90 -2q-12 -31 -29.5 -92.5t-26.5 -87.5q-18 -53 -66 -53q-28 0 -45 17t-17 47.5t52 165.5q-52 12 -52 60q0 65 93 65q14 43 54 155t51.5 146.5t18 49.5t17.5 32q21 32 63 32q31 0 55 -19q15 -12 27 -46.5t24.5 -72t27 -77t40 -114.5t29.5 -86
q5 1 18 1q34 0 56 -19.5t22 -47.5q0 -46 -56 -61q56 -145 56 -168t-18.5 -41.5t-48.5 -18.5q-45 0 -66 50q-5 12 -60 181zM271 338q25 -2 74 -2t74 2q-65 236 -73 236q-7 0 -58 -177zM422.5 986.5q30.5 -29.5 30.5 -72t-29.5 -71t-77.5 -28.5t-77.5 28.5t-29.5 71t30.5 72
t76.5 29.5t76.5 -29.5zM377 914q0 12 -8.5 21t-22.5 9t-23 -9t-9 -21t9 -21t23 -9t22.5 9t8.5 21z" />
    <glyph glyph-name="AE" unicode="&#xc6;" horiz-adv-x="867" 
d="M365 338l-36 216q-7 0 -51 -162l-14 -54q30 -2 56 -2t45 2zM611 122l157 6q38 0 60.5 -17.5t22.5 -48.5t-22.5 -49.5t-60.5 -18.5l-157 6l-123 -5q-76 0 -88 64q-21 121 -28 166h-72q-68 -2 -72 -2q-12 -31 -29.5 -92.5t-26.5 -87.5q-18 -53 -66 -53q-28 0 -45 17
t-17 47.5t52 165.5q-52 12 -52 60q0 65 93 65q14 43 54 155t54 155q33 100 92 100l200 -5l167 6q38 0 60.5 -18.5t22.5 -49.5t-22.5 -48.5t-60.5 -17.5l-157 6q-54 0 -108 -4q13 -59 30 -161l187 6q36 0 59 -18.5t23 -49t-23 -48t-54 -17.5t-85.5 2.5t-83.5 2.5
q34 -190 41 -218q27 -1 78 -1z" />
    <glyph glyph-name="Ccedilla" unicode="&#xc7;" horiz-adv-x="704" 
d="M659 121q0 -41 -61.5 -82.5t-153.5 -50.5q5 -15 33.5 -52t28.5 -72t-36.5 -64.5t-89 -29.5t-90 30t-37.5 59q0 17 10.5 28.5t28 11.5t39.5 -12.5t35 -12.5q23 0 23 19q0 6 -27 39t-30 60q-119 26 -194 133.5t-75 250.5q0 163 96.5 276t241.5 113q92 0 165.5 -38t73.5 -86
q0 -29 -19 -46.5t-47.5 -17.5t-80 30.5t-92.5 30.5q-85 0 -140.5 -77.5t-55.5 -184t55 -186t140 -79.5q39 0 70.5 10t48.5 21q47 32 79 32t46.5 -15t14.5 -38z" />
    <glyph glyph-name="Egrave" unicode="&#xc8;" horiz-adv-x="629" 
d="M346 0l-152 -6q-37 0 -61.5 24t-24.5 64l6 251q-62 9 -62 65q0 27 17 44t44 22l-5 183q-11 21 -11 49q0 60 95 60l152 -6l157 6q38 0 60.5 -18.5t22.5 -49.5t-22.5 -48.5t-60.5 -17.5l-157 6q-54 0 -94 -3v-166q16 -1 43 -1l161 7q36 0 59 -18.5t23 -49t-23 -48
t-59 -17.5l-158 6h-14q-14 -1 -32 -1q0 -139 2 -213q27 -2 94 -2l157 6q38 0 60.5 -17.5t22.5 -48.5t-22.5 -49.5t-60.5 -18.5zM219 927q0 26 16 47.5t39.5 21.5t35.5 -4.5t20.5 -14.5t13 -17.5t11.5 -24t9.5 -21t23 -35t20.5 -47.5t-13 -29.5t-36 -12.5q-36 0 -88 44
t-52 93z" />
    <glyph glyph-name="Eacute" unicode="&#xc9;" horiz-adv-x="629" 
d="M346 0l-152 -6q-37 0 -61.5 24t-24.5 64l6 251q-62 9 -62 65q0 27 17 44t44 22l-5 183q-11 21 -11 49q0 60 95 60l152 -6l157 6q38 0 60.5 -18.5t22.5 -49.5t-22.5 -48.5t-60.5 -17.5l-157 6q-54 0 -94 -3v-166q16 -1 43 -1l161 7q36 0 59 -18.5t23 -49t-23 -48
t-59 -17.5l-158 6h-14q-14 -1 -32 -1q0 -139 2 -213q27 -2 94 -2l157 6q38 0 60.5 -17.5t22.5 -48.5t-22.5 -49.5t-60.5 -18.5zM458 927q0 -49 -52 -93t-88 -44q-23 0 -36 12.5t-13 29.5t20.5 47.5t23 35t9.5 21t11.5 24t12.5 17.5q17 19 48.5 19t47.5 -21.5t16 -47.5z" />
    <glyph glyph-name="Ecircumflex" unicode="&#xca;" horiz-adv-x="629" 
d="M346 0l-152 -6q-37 0 -61.5 24t-24.5 64l6 251q-62 9 -62 65q0 27 17 44t44 22l-5 183q-11 21 -11 49q0 60 95 60l152 -6l157 6q38 0 60.5 -18.5t22.5 -49.5t-22.5 -48.5t-60.5 -17.5l-157 6q-54 0 -94 -3v-166q16 -1 43 -1l161 7q36 0 59 -18.5t23 -49t-23 -48
t-59 -17.5l-158 6h-14q-14 -1 -32 -1q0 -139 2 -213q27 -2 94 -2l157 6q38 0 60.5 -17.5t22.5 -48.5t-22.5 -49.5t-60.5 -18.5zM298.5 1012.5q15.5 7.5 37 7.5t36.5 -9t38.5 -36t34 -37.5t28 -26.5t23.5 -22q17 -17 17 -39t-17.5 -39.5t-42 -17.5t-50.5 24t-44.5 48
t-26.5 24t-26 -23q-57 -72 -97 -72q-23 0 -40.5 17.5t-17.5 34.5t5.5 27.5t11.5 16.5t23.5 22t28.5 27t28 29.5t26 27.5t24.5 16.5z" />
    <glyph glyph-name="Edieresis" unicode="&#xcb;" horiz-adv-x="629" 
d="M346 0l-152 -6q-37 0 -61.5 24t-24.5 64l6 251q-62 9 -62 65q0 27 17 44t44 22l-5 183q-11 21 -11 49q0 60 95 60l152 -6l157 6q38 0 60.5 -18.5t22.5 -49.5t-22.5 -48.5t-60.5 -17.5l-157 6q-54 0 -94 -3v-166q16 -1 43 -1l161 7q36 0 59 -18.5t23 -49t-23 -48
t-59 -17.5l-158 6h-14q-14 -1 -32 -1q0 -139 2 -213q27 -2 94 -2l157 6q38 0 60.5 -17.5t22.5 -48.5t-22.5 -49.5t-60.5 -18.5zM512 949.5q20 -22.5 20 -55.5t-23 -59.5t-57.5 -26.5t-54 23t-19.5 56t22.5 59t57 26t54.5 -22.5zM274 949.5q20 -22.5 20 -55.5t-23 -59.5
t-57.5 -26.5t-54 23t-19.5 56t22.5 59t57 26t54.5 -22.5z" />
    <glyph glyph-name="Igrave" unicode="&#xcc;" horiz-adv-x="490" 
d="M125 756l122 -6l122 6q37 0 59.5 -18t22.5 -48.5t-22.5 -48.5t-59.5 -18l-47 3q-7 -148 -7 -251.5t7 -251.5q36 4 47 4q37 0 59.5 -18t22.5 -48.5t-22.5 -48.5t-59.5 -18l-122 6l-122 -7q-38 0 -60.5 18t-22.5 49t22.5 48.5t60.5 17.5l47 -4q7 148 7 252t-7 252
q-30 -3 -57.5 -3t-50 17.5t-22.5 48.5t22.5 49t60.5 18zM130 929q0 26 16 47.5t39.5 21.5t35.5 -4.5t20.5 -14.5t13 -17.5t11.5 -24t9.5 -21t23 -35t20.5 -47.5t-13 -29.5t-36 -12.5q-36 0 -88 44t-52 93z" />
    <glyph glyph-name="Iacute" unicode="&#xcd;" horiz-adv-x="490" 
d="M125 756l122 -6l122 6q37 0 59.5 -18t22.5 -48.5t-22.5 -48.5t-59.5 -18l-47 3q-7 -148 -7 -251.5t7 -251.5q36 4 47 4q37 0 59.5 -18t22.5 -48.5t-22.5 -48.5t-59.5 -18l-122 6l-122 -7q-38 0 -60.5 18t-22.5 49t22.5 48.5t60.5 17.5l47 -4q7 148 7 252t-7 252
q-30 -3 -57.5 -3t-50 17.5t-22.5 48.5t22.5 49t60.5 18zM369 927q0 -49 -52 -93t-88 -44q-23 0 -36 12.5t-13 29.5t20.5 47.5t23 35t9.5 21t11.5 24t13.5 17.5q16 19 47.5 19t47.5 -21.5t16 -47.5z" />
    <glyph glyph-name="Icircumflex" unicode="&#xce;" horiz-adv-x="490" 
d="M125 756l122 -6l122 6q37 0 59.5 -18t22.5 -48.5t-22.5 -48.5t-59.5 -18l-47 3q-7 -148 -7 -251.5t7 -251.5q36 4 47 4q37 0 59.5 -18t22.5 -48.5t-22.5 -48.5t-59.5 -18l-122 6l-122 -7q-38 0 -60.5 18t-22.5 49t22.5 48.5t60.5 17.5l47 -4q7 148 7 252t-7 252
q-30 -3 -57.5 -3t-50 17.5t-22.5 48.5t22.5 49t60.5 18zM211.5 1014.5q15.5 7.5 37 7.5t36.5 -9t38.5 -36t34 -37.5t28 -26.5t23.5 -22q17 -17 17 -39t-17.5 -39.5t-42 -17.5t-50.5 24t-44.5 48t-26.5 24t-27 -23q-56 -72 -96 -72q-23 0 -40.5 17.5t-17.5 34.5t5.5 27.5
t11.5 16.5t23.5 22t28.5 27t28 29.5t26 27.5t24.5 16.5z" />
    <glyph glyph-name="Idieresis" unicode="&#xcf;" horiz-adv-x="490" 
d="M125 756l122 -6l122 6q37 0 59.5 -18t22.5 -48.5t-22.5 -48.5t-59.5 -18l-47 3q-7 -148 -7 -251.5t7 -251.5q36 4 47 4q37 0 59.5 -18t22.5 -48.5t-22.5 -48.5t-59.5 -18l-122 6l-122 -7q-38 0 -60.5 18t-22.5 49t22.5 48.5t60.5 17.5l47 -4q7 148 7 252t-7 252
q-30 -3 -57.5 -3t-50 17.5t-22.5 48.5t22.5 49t60.5 18zM421 943.5q20 -22.5 20 -55.5t-23 -59.5t-57.5 -26.5t-54 23t-19.5 56t22.5 59t57 26t54.5 -22.5zM183 943.5q20 -22.5 20 -55.5t-23 -59.5t-57.5 -26.5t-54 23t-19.5 56t22.5 59t57 26t54.5 -22.5z" />
    <glyph glyph-name="Eth" unicode="&#xd0;" horiz-adv-x="778" 
d="M116 435l-4 168q-41 12 -41 57q0 30 43.5 55t99.5 36.5t106 11.5q98 0 175.5 -33t124.5 -88q95 -113 95 -270q0 -151 -92 -264q-45 -56 -120.5 -89.5t-179.5 -33.5t-180 30t-76 75t47 56l2 168h-33q-31 0 -52 17.5t-21 43.5t21 43.5t48 17.5t37 -1zM253 435l43 2
q31 0 51.5 -18t20.5 -44t-20.5 -44t-50 -18t-44.5 1q0 -139 4 -196q32 -7 72 -7q81 0 138 39q107 75 107 226q0 108 -65.5 185t-188.5 77q-34 0 -64 -9q-3 -48 -3 -194z" />
    <glyph glyph-name="Ntilde" unicode="&#xd1;" horiz-adv-x="765" 
d="M655 380l3 -300q0 -90 -75 -90q-44 0 -69 41l-262 439q-2 -24 -2 -80l7 -292q0 -108 -76 -108t-76 108l8 272q0 37 -4 135t-4 166q0 89 74 89q51 0 74 -40l267 -458l-1 118l-8 272q0 108 76 108t76 -108zM605 929q0 -34 -41.5 -70.5t-79.5 -36.5t-88.5 24.5t-66 24.5
t-46 -27.5t-57.5 -27.5t-45 18.5t-18 45.5q0 39 43 72t106 33q32 0 86 -24t76 -24t46 22t42.5 22t30.5 -15t12 -37z" />
    <glyph glyph-name="Ograve" unicode="&#xd2;" horiz-adv-x="823" 
d="M559 191q59 80 59 185.5t-58.5 184t-148 78.5t-148 -78.5t-58.5 -184t59 -185.5t147.5 -80t147.5 80zM660.5 651.5q99.5 -113.5 99.5 -276t-100 -276.5t-248.5 -114t-248.5 114t-100 276.5t100.5 276t249 113.5t248 -113.5zM297 929q0 26 16 47.5t39.5 21.5t35.5 -4.5
t20.5 -14.5t13 -17.5t11.5 -24t9.5 -21t23 -35t20.5 -47.5t-13 -29.5t-36 -12.5q-36 0 -88 44t-52 93z" />
    <glyph glyph-name="Oacute" unicode="&#xd3;" horiz-adv-x="823" 
d="M559 191q59 80 59 185.5t-58.5 184t-148 78.5t-148 -78.5t-58.5 -184t59 -185.5t147.5 -80t147.5 80zM660.5 651.5q99.5 -113.5 99.5 -276t-100 -276.5t-248.5 -114t-248.5 114t-100 276.5t100.5 276t249 113.5t248 -113.5zM526 929q0 -49 -52 -93t-88 -44
q-23 0 -36 12.5t-13 29.5t20.5 47.5t23 35t9.5 21t11.5 24t12.5 17.5q17 19 48.5 19t47.5 -21.5t16 -47.5z" />
    <glyph glyph-name="Ocircumflex" unicode="&#xd4;" horiz-adv-x="823" 
d="M559 191q59 80 59 185.5t-58.5 184t-148 78.5t-148 -78.5t-58.5 -184t59 -185.5t147.5 -80t147.5 80zM660.5 651.5q99.5 -113.5 99.5 -276t-100 -276.5t-248.5 -114t-248.5 114t-100 276.5t100.5 276t249 113.5t248 -113.5zM377.5 1004.5q15.5 7.5 37 7.5t36.5 -9
t38.5 -36t34 -37.5t28 -26.5t23.5 -22q17 -17 17 -39t-17.5 -39.5t-42 -17.5t-50.5 24t-44.5 48t-26.5 24t-27 -23q-56 -72 -96 -72q-23 0 -40.5 17.5t-17.5 34.5t5.5 27.5t11.5 16.5t23.5 22t28.5 27t28 29.5t26 27.5t24.5 16.5z" />
    <glyph glyph-name="Otilde" unicode="&#xd5;" horiz-adv-x="823" 
d="M559 191q59 80 59 185.5t-58.5 184t-148 78.5t-148 -78.5t-58.5 -184t59 -185.5t147.5 -80t147.5 80zM660.5 651.5q99.5 -113.5 99.5 -276t-100 -276.5t-248.5 -114t-248.5 114t-100 276.5t100.5 276t249 113.5t248 -113.5zM632 921q0 -34 -41.5 -70.5t-79.5 -36.5
t-88.5 24.5t-66 24.5t-46 -27.5t-57.5 -27.5t-45 18.5t-18 45.5q0 39 43 72t106 33q32 0 86 -24t76 -24t46 22t42.5 22t30.5 -15t12 -37z" />
    <glyph glyph-name="Odieresis" unicode="&#xd6;" horiz-adv-x="823" 
d="M559 191q59 80 59 185.5t-58.5 184t-148 78.5t-148 -78.5t-58.5 -184t59 -185.5t147.5 -80t147.5 80zM660.5 651.5q99.5 -113.5 99.5 -276t-100 -276.5t-248.5 -114t-248.5 114t-100 276.5t100.5 276t249 113.5t248 -113.5zM587 944.5q20 -22.5 20 -55.5t-23 -59.5
t-57.5 -26.5t-54 23t-19.5 56t22.5 59t57 26t54.5 -22.5zM349 944.5q20 -22.5 20 -55.5t-23 -59.5t-57.5 -26.5t-54 23t-19.5 56t22.5 59t57 26t54.5 -22.5z" />
    <glyph glyph-name="multiply" unicode="&#xd7;" horiz-adv-x="584" 
d="M486 284q23 -20 23 -47t-17.5 -46t-43.5 -19t-68 39q-9 8 -33.5 32t-53.5 49q-30 -25 -55.5 -50t-32.5 -31q-42 -39 -68 -39t-43.5 19t-17.5 46t23 47q16 16 53 45.5t55 47.5q-19 19 -56 49t-56.5 47.5t-19.5 44.5t17.5 46t43.5 19t68 -39q7 -6 32.5 -31t55.5 -50
q29 25 53.5 49t33.5 32q42 39 68 39t43.5 -19t17.5 -46t-19.5 -44.5t-56.5 -47.5t-56 -49q18 -17 55.5 -46.5t54.5 -46.5z" />
    <glyph glyph-name="Oslash" unicode="&#xd8;" horiz-adv-x="823" 
d="M412 765l20 -1q22 75 74 75q31 0 50.5 -20.5t19.5 -44.5t-6 -50q87 -48 138.5 -141.5t51.5 -207.5q0 -162 -100 -276t-249 -114l-22 1q-22 -70 -72 -70q-31 0 -50.5 20.5t-19.5 52.5q0 14 5 37q-87 49 -138 142.5t-51 206.5q0 163 100.5 276.5t248.5 113.5zM618 375
q0 64 -22.5 120.5t-62.5 93.5q-55 -194 -115 -478q86 3 143 82.5t57 181.5zM289 162q73 267 115 477q-87 -4 -143 -82t-56 -182q0 -62 22 -118.5t62 -94.5z" />
    <glyph glyph-name="Ugrave" unicode="&#xd9;" horiz-adv-x="743" 
d="M656 652l-10 -396q0 -112 -71.5 -191.5t-203.5 -79.5t-203.5 79t-71.5 191l-10 396q0 109 76 109t76 -109l-7 -321q0 -159 70 -202q29 -17 70.5 -17t70 17.5t42.5 49.5q27 60 27 153l-7 321q0 109 76 109t76 -109zM245 927q0 26 16 47.5t39.5 21.5t35.5 -4.5t20.5 -14.5
t13 -17.5t11.5 -24t9.5 -21t23 -35t20.5 -47.5t-13 -29.5t-36 -12.5q-36 0 -88 44t-52 93z" />
    <glyph glyph-name="Uacute" unicode="&#xda;" horiz-adv-x="743" 
d="M656 652l-10 -396q0 -112 -71.5 -191.5t-203.5 -79.5t-203.5 79t-71.5 191l-10 396q0 109 76 109t76 -109l-7 -321q0 -159 70 -202q29 -17 70.5 -17t70 17.5t42.5 49.5q27 60 27 153l-7 321q0 109 76 109t76 -109zM496 929q0 -49 -52 -93t-88 -44q-23 0 -36 12.5
t-13 29.5t20.5 47.5t23 35t9.5 21t11.5 24t12.5 17.5q17 19 48.5 19t47.5 -21.5t16 -47.5z" />
    <glyph glyph-name="Ucircumflex" unicode="&#xdb;" horiz-adv-x="743" 
d="M656 652l-10 -396q0 -112 -71.5 -191.5t-203.5 -79.5t-203.5 79t-71.5 191l-10 396q0 109 76 109t76 -109l-7 -321q0 -159 70 -202q29 -17 70.5 -17t70 17.5t42.5 49.5q27 60 27 153l-7 321q0 109 76 109t76 -109zM340.5 1012.5q15.5 7.5 37 7.5t36.5 -9t38.5 -36
t34 -37.5t28 -26.5t23.5 -22q17 -17 17 -39t-17.5 -39.5t-42 -17.5t-50.5 24t-44.5 48t-26.5 24t-26 -23q-57 -72 -97 -72q-23 0 -40.5 17.5t-17.5 34.5t5.5 27.5t11.5 16.5t23.5 22t28.5 27t28 29.5t26 27.5t24.5 16.5z" />
    <glyph glyph-name="Udieresis" unicode="&#xdc;" horiz-adv-x="743" 
d="M656 652l-10 -396q0 -112 -71.5 -191.5t-203.5 -79.5t-203.5 79t-71.5 191l-10 396q0 109 76 109t76 -109l-7 -321q0 -159 70 -202q29 -17 70.5 -17t70 17.5t42.5 49.5q27 60 27 153l-7 321q0 109 76 109t76 -109zM546 948.5q20 -22.5 20 -55.5t-23 -59.5t-57.5 -26.5
t-54 23t-19.5 56t22.5 59t57 26t54.5 -22.5zM308 948.5q20 -22.5 20 -55.5t-23 -59.5t-57.5 -26.5t-54 23t-19.5 56t22.5 59t57 26t54.5 -22.5z" />
    <glyph glyph-name="Yacute" unicode="&#xdd;" horiz-adv-x="602" 
d="M223 98q0 48 7 195q-32 65 -88 158.5t-89 153t-33 88t17.5 48t45 19.5t42.5 -9.5t32 -37t32 -58.5q61 -127 114 -217q57 100 93 174t52.5 101.5t31 37t41 9.5t44 -20.5t17.5 -47t-34 -87t-91 -154t-89 -159.5q7 -133 7 -194q0 -108 -76 -108t-76 108zM424 927
q0 -49 -52 -93t-88 -44q-23 0 -36 12.5t-13 29.5t20.5 47.5t23 35t9.5 21t11.5 24t12.5 17.5q17 19 48.5 19t47.5 -21.5t16 -47.5z" />
    <glyph glyph-name="Thorn" unicode="&#xde;" horiz-adv-x="622" 
d="M239 499q-1 -27 -1 -86t1 -93q37 -8 90.5 -8t86.5 26.5t33 70.5t-33.5 70.5t-86.5 26.5t-90 -7zM101 376l-8 274q0 49 19 79.5t57.5 30.5t56.5 -26t18 -63q0 -10 -2 -44q40 6 87 6q116 0 188 -64t72 -160t-71.5 -160t-187.5 -64q-47 0 -89 6q3 -83 3 -116t-18.5 -59
t-54.5 -26t-56 23.5t-20 64.5z" />
    <glyph glyph-name="germandbls" unicode="&#xdf;" horiz-adv-x="645" 
d="M239 374l8 -272q0 -108 -76 -108t-76 108q0 28 3 60q6 85 6 237q-81 0 -81 58.5t80 58.5v47q0 101 61.5 148.5t157.5 47.5t151.5 -49t55.5 -120q0 -33 -17.5 -65t-38 -53t-38 -44t-17.5 -40t20 -36t48 -37.5t56.5 -41t48.5 -55t20 -70.5q0 -70 -50 -116.5t-132 -46.5
q-53 0 -98.5 30.5t-45.5 61.5t15 48t38.5 17t50.5 -19t42 -19t27 12t12 32t-20 39t-48 36.5t-56.5 37.5t-48.5 52.5t-20 69t27.5 74t55 72t27.5 58t-19.5 37.5t-51 14t-53 -20t-21.5 -64z" />
    <glyph glyph-name="agrave" unicode="&#xe0;" horiz-adv-x="808" 
d="M666.5 731.5q23.5 -33.5 23.5 -84t-28 -281.5q0 -54 11.5 -142.5t30.5 -101.5q18 -12 26 -15t11 -5q5 -5 5 -20q0 -38 -26 -67t-67.5 -29t-68.5 35.5t-37 90.5q-93 -127 -218 -127q-67 0 -120 34.5t-84 90.5q-63 114 -63 253q0 164 88 283t228 119q82 0 156 -44
q15 44 68 44q41 0 64.5 -33.5zM536 357l-5 220q-71 61 -153 61q-69 0 -121.5 -78.5t-52.5 -189.5t34.5 -184.5t96 -73.5t125 82t76.5 163zM261 927q0 26 16 47.5t39.5 21.5t35.5 -4.5t20.5 -14.5t13 -17.5t11.5 -24t9.5 -21t23 -35t20.5 -47.5t-13 -29.5t-36 -12.5
q-36 0 -88 44t-52 93z" />
    <glyph glyph-name="aacute" unicode="&#xe1;" horiz-adv-x="808" 
d="M666.5 731.5q23.5 -33.5 23.5 -84t-28 -281.5q0 -54 11.5 -142.5t30.5 -101.5q18 -12 26 -15t11 -5q5 -5 5 -20q0 -38 -26 -67t-67.5 -29t-68.5 35.5t-37 90.5q-93 -127 -218 -127q-67 0 -120 34.5t-84 90.5q-63 114 -63 253q0 164 88 283t228 119q82 0 156 -44
q15 44 68 44q41 0 64.5 -33.5zM536 357l-5 220q-71 61 -153 61q-69 0 -121.5 -78.5t-52.5 -189.5t34.5 -184.5t96 -73.5t125 82t76.5 163zM531 927q0 -49 -52 -93t-88 -44q-23 0 -36 12.5t-13 29.5t20.5 47.5t23 35t9.5 21t11.5 24t13.5 17.5q16 19 47.5 19t47.5 -21.5
t16 -47.5z" />
    <glyph glyph-name="acircumflex" unicode="&#xe2;" horiz-adv-x="808" 
d="M666.5 731.5q23.5 -33.5 23.5 -84t-28 -281.5q0 -54 11.5 -142.5t30.5 -101.5q18 -12 26 -15t11 -5q5 -5 5 -20q0 -38 -26 -67t-67.5 -29t-68.5 35.5t-37 90.5q-93 -127 -218 -127q-67 0 -120 34.5t-84 90.5q-63 114 -63 253q0 164 88 283t228 119q82 0 156 -44
q15 44 68 44q41 0 64.5 -33.5zM536 357l-5 220q-71 61 -153 61q-69 0 -121.5 -78.5t-52.5 -189.5t34.5 -184.5t96 -73.5t125 82t76.5 163zM370.5 1012.5q15.5 7.5 37 7.5t36.5 -9t38.5 -36t34 -37.5t28 -26.5t23.5 -22q17 -17 17 -39t-17.5 -39.5t-42 -17.5t-50.5 24
t-44.5 48t-26.5 24t-26 -23q-57 -72 -97 -72q-23 0 -40.5 17.5t-17.5 34.5t5.5 27.5t11.5 16.5t23.5 22t28.5 27t28 29.5t26 27.5t24.5 16.5z" />
    <glyph glyph-name="atilde" unicode="&#xe3;" horiz-adv-x="808" 
d="M666.5 731.5q23.5 -33.5 23.5 -84t-28 -281.5q0 -54 11.5 -142.5t30.5 -101.5q18 -12 26 -15t11 -5q5 -5 5 -20q0 -38 -26 -67t-67.5 -29t-68.5 35.5t-37 90.5q-93 -127 -218 -127q-67 0 -120 34.5t-84 90.5q-63 114 -63 253q0 164 88 283t228 119q82 0 156 -44
q15 44 68 44q41 0 64.5 -33.5zM536 357l-5 220q-71 61 -153 61q-69 0 -121.5 -78.5t-52.5 -189.5t34.5 -184.5t96 -73.5t125 82t76.5 163zM626 919q0 -34 -41.5 -70.5t-79.5 -36.5t-88.5 24.5t-66 24.5t-46 -27.5t-57.5 -27.5t-45 18.5t-18 45.5q0 39 43 72t106 33
q32 0 86 -24t76 -24t46 22t42.5 22t30.5 -15t12 -37z" />
    <glyph glyph-name="adieresis" unicode="&#xe4;" horiz-adv-x="808" 
d="M666.5 731.5q23.5 -33.5 23.5 -84t-28 -281.5q0 -54 11.5 -142.5t30.5 -101.5q18 -12 26 -15t11 -5q5 -5 5 -20q0 -38 -26 -67t-67.5 -29t-68.5 35.5t-37 90.5q-93 -127 -218 -127q-67 0 -120 34.5t-84 90.5q-63 114 -63 253q0 164 88 283t228 119q82 0 156 -44
q15 44 68 44q41 0 64.5 -33.5zM536 357l-5 220q-71 61 -153 61q-69 0 -121.5 -78.5t-52.5 -189.5t34.5 -184.5t96 -73.5t125 82t76.5 163zM560 948.5q20 -22.5 20 -55.5t-23 -59.5t-57.5 -26.5t-54 23t-19.5 56t22.5 59t57 26t54.5 -22.5zM322 948.5q20 -22.5 20 -55.5
t-23 -59.5t-57.5 -26.5t-54 23t-19.5 56t22.5 59t57 26t54.5 -22.5z" />
    <glyph glyph-name="aring" unicode="&#xe5;" horiz-adv-x="808" 
d="M666.5 731.5q23.5 -33.5 23.5 -84t-28 -281.5q0 -54 11.5 -142.5t30.5 -101.5q18 -12 26 -15t11 -5q5 -5 5 -20q0 -38 -26 -67t-67.5 -29t-68.5 35.5t-37 90.5q-93 -127 -218 -127q-67 0 -120 34.5t-84 90.5q-63 114 -63 253q0 164 88 283t228 119q82 0 156 -44
q15 44 68 44q41 0 64.5 -33.5zM536 357l-5 220q-71 61 -153 61q-69 0 -121.5 -78.5t-52.5 -189.5t34.5 -184.5t96 -73.5t125 82t76.5 163zM462.5 986.5q30.5 -29.5 30.5 -72t-29.5 -71t-77.5 -28.5t-77.5 28.5t-29.5 71t30.5 72t76.5 29.5t76.5 -29.5zM417 914q0 12 -8.5 21
t-22.5 9t-23 -9t-9 -21t9 -21t23 -9t22.5 9t8.5 21z" />
    <glyph glyph-name="ae" unicode="&#xe6;" horiz-adv-x="1161" 
d="M1097 536q0 -81 -45 -137q-83 -102 -263 -102q-70 0 -139 8q16 -80 66.5 -138.5t102.5 -58.5t89.5 16t63.5 31.5t48 15.5t38 -15t16 -38q0 -39 -74 -85.5t-168 -46.5q-165 0 -258 130q-91 -130 -260 -130q-114 0 -192 74t-78 190q0 96 78.5 163.5t196.5 67.5
q88 0 180 -23q-6 97 -49.5 139t-106.5 42q-39 0 -73.5 -19.5t-63.5 -39t-56 -19.5t-46 16t-19 47q0 47 77 94t188 47q76 0 139.5 -31.5t103.5 -86.5q96 118 251 118q107 0 180 -65.5t73 -163.5zM186 247q0 -57 39.5 -95t91.5 -38q69 0 122.5 57t57.5 159q-79 23 -155.5 23
t-116 -32t-39.5 -74zM651 431q73 -14 142 -14t115.5 32t46.5 90q0 37 -29 68.5t-82 31.5q-71 0 -121.5 -61.5t-71.5 -146.5z" />
    <glyph glyph-name="ccedilla" unicode="&#xe7;" horiz-adv-x="704" 
d="M659 121q0 -41 -61.5 -82.5t-153.5 -50.5q5 -15 33.5 -52t28.5 -72t-36.5 -64.5t-89 -29.5t-90 30t-37.5 59q0 17 10.5 28.5t28 11.5t39.5 -12.5t35 -12.5q23 0 23 19q0 6 -27 39t-30 60q-119 26 -194 133.5t-75 250.5q0 163 96.5 276t241.5 113q92 0 165.5 -38t73.5 -86
q0 -29 -19 -46.5t-47.5 -17.5t-80 30.5t-92.5 30.5q-85 0 -140.5 -77.5t-55.5 -184t55 -186t140 -79.5q39 0 70.5 10t48.5 21q47 32 79 32t46.5 -15t14.5 -38z" />
    <glyph glyph-name="egrave" unicode="&#xe8;" horiz-adv-x="744" 
d="M559 542q0 36 -29 66t-83 30q-71 0 -120.5 -60t-69.5 -144q60 -14 134.5 -14t121 32t46.5 90zM604 33.5q-74 -48.5 -158 -48.5t-144.5 29.5t-99.5 79.5q-82 103 -92 243q-68 27 -68 83q0 28 18.5 45.5t45.5 17.5q8 0 18 -3q35 124 119 204.5t196.5 80.5t187 -64.5
t74.5 -154t-45 -146.5q-85 -104 -263 -104q-59 0 -137 13q15 -84 63 -141t110 -57q69 0 147 47q26 16 48 16t38 -15t16 -38q0 -39 -74 -87.5zM312 927q0 26 16 47.5t39.5 21.5t35.5 -4.5t20.5 -14.5t13 -17.5t11.5 -24t9.5 -21t23 -35t20.5 -47.5t-13 -29.5t-36 -12.5
q-36 0 -88 44t-52 93z" />
    <glyph glyph-name="eacute" unicode="&#xe9;" horiz-adv-x="744" 
d="M559 542q0 36 -29 66t-83 30q-71 0 -120.5 -60t-69.5 -144q60 -14 134.5 -14t121 32t46.5 90zM604 33.5q-74 -48.5 -158 -48.5t-144.5 29.5t-99.5 79.5q-82 103 -92 243q-68 27 -68 83q0 28 18.5 45.5t45.5 17.5q8 0 18 -3q35 124 119 204.5t196.5 80.5t187 -64.5
t74.5 -154t-45 -146.5q-85 -104 -263 -104q-59 0 -137 13q15 -84 63 -141t110 -57q69 0 147 47q26 16 48 16t38 -15t16 -38q0 -39 -74 -87.5zM562 927q0 -49 -52 -93t-88 -44q-23 0 -36 12.5t-13 29.5t20.5 47.5t23 35t9.5 21t11.5 24t12.5 17.5q17 19 48.5 19t47.5 -21.5
t16 -47.5z" />
    <glyph glyph-name="ecircumflex" unicode="&#xea;" horiz-adv-x="744" 
d="M559 542q0 36 -29 66t-83 30q-71 0 -120.5 -60t-69.5 -144q60 -14 134.5 -14t121 32t46.5 90zM604 33.5q-74 -48.5 -158 -48.5t-144.5 29.5t-99.5 79.5q-82 103 -92 243q-68 27 -68 83q0 28 18.5 45.5t45.5 17.5q8 0 18 -3q35 124 119 204.5t196.5 80.5t187 -64.5
t74.5 -154t-45 -146.5q-85 -104 -263 -104q-59 0 -137 13q15 -84 63 -141t110 -57q69 0 147 47q26 16 48 16t38 -15t16 -38q0 -39 -74 -87.5zM402.5 1002.5q15.5 7.5 37 7.5t36.5 -9t38.5 -36t34 -37.5t28 -26.5t23.5 -22q17 -17 17 -39t-17.5 -39.5t-42 -17.5t-50.5 24
t-44.5 48t-26.5 24t-26 -23q-57 -72 -97 -72q-23 0 -40.5 17.5t-17.5 34.5t5.5 27.5t11.5 16.5t23.5 22t28.5 27t28 29.5t26 27.5t24.5 16.5z" />
    <glyph glyph-name="edieresis" unicode="&#xeb;" horiz-adv-x="744" 
d="M559 542q0 36 -29 66t-83 30q-71 0 -120.5 -60t-69.5 -144q60 -14 134.5 -14t121 32t46.5 90zM604 33.5q-74 -48.5 -158 -48.5t-144.5 29.5t-99.5 79.5q-82 103 -92 243q-68 27 -68 83q0 28 18.5 45.5t45.5 17.5q8 0 18 -3q35 124 119 204.5t196.5 80.5t187 -64.5
t74.5 -154t-45 -146.5q-85 -104 -263 -104q-59 0 -137 13q15 -84 63 -141t110 -57q69 0 147 47q26 16 48 16t38 -15t16 -38q0 -39 -74 -87.5zM618 945.5q20 -22.5 20 -55.5t-23 -59.5t-57.5 -26.5t-54 23t-19.5 56t22.5 59t57 26t54.5 -22.5zM380 945.5q20 -22.5 20 -55.5
t-23 -59.5t-57.5 -26.5t-54 23t-19.5 56t22.5 59t57 26t54.5 -22.5z" />
    <glyph glyph-name="igrave" unicode="&#xec;" horiz-adv-x="490" 
d="M125 756l122 -6l122 6q37 0 59.5 -18t22.5 -48.5t-22.5 -48.5t-59.5 -18l-47 3q-7 -148 -7 -251.5t7 -251.5q36 4 47 4q37 0 59.5 -18t22.5 -48.5t-22.5 -48.5t-59.5 -18l-122 6l-122 -7q-38 0 -60.5 18t-22.5 49t22.5 48.5t60.5 17.5l47 -4q7 148 7 252t-7 252
q-30 -3 -57.5 -3t-50 17.5t-22.5 48.5t22.5 49t60.5 18zM130 929q0 26 16 47.5t39.5 21.5t35.5 -4.5t20.5 -14.5t13 -17.5t11.5 -24t9.5 -21t23 -35t20.5 -47.5t-13 -29.5t-36 -12.5q-36 0 -88 44t-52 93z" />
    <glyph glyph-name="iacute" unicode="&#xed;" horiz-adv-x="490" 
d="M125 756l122 -6l122 6q37 0 59.5 -18t22.5 -48.5t-22.5 -48.5t-59.5 -18l-47 3q-7 -148 -7 -251.5t7 -251.5q36 4 47 4q37 0 59.5 -18t22.5 -48.5t-22.5 -48.5t-59.5 -18l-122 6l-122 -7q-38 0 -60.5 18t-22.5 49t22.5 48.5t60.5 17.5l47 -4q7 148 7 252t-7 252
q-30 -3 -57.5 -3t-50 17.5t-22.5 48.5t22.5 49t60.5 18zM369 927q0 -49 -52 -93t-88 -44q-23 0 -36 12.5t-13 29.5t20.5 47.5t23 35t9.5 21t11.5 24t13.5 17.5q16 19 47.5 19t47.5 -21.5t16 -47.5z" />
    <glyph glyph-name="icircumflex" unicode="&#xee;" horiz-adv-x="490" 
d="M125 756l122 -6l122 6q37 0 59.5 -18t22.5 -48.5t-22.5 -48.5t-59.5 -18l-47 3q-7 -148 -7 -251.5t7 -251.5q36 4 47 4q37 0 59.5 -18t22.5 -48.5t-22.5 -48.5t-59.5 -18l-122 6l-122 -7q-38 0 -60.5 18t-22.5 49t22.5 48.5t60.5 17.5l47 -4q7 148 7 252t-7 252
q-30 -3 -57.5 -3t-50 17.5t-22.5 48.5t22.5 49t60.5 18zM211.5 1014.5q15.5 7.5 37 7.5t36.5 -9t38.5 -36t34 -37.5t28 -26.5t23.5 -22q17 -17 17 -39t-17.5 -39.5t-42 -17.5t-50.5 24t-44.5 48t-26.5 24t-27 -23q-56 -72 -96 -72q-23 0 -40.5 17.5t-17.5 34.5t5.5 27.5
t11.5 16.5t23.5 22t28.5 27t28 29.5t26 27.5t24.5 16.5z" />
    <glyph glyph-name="idieresis" unicode="&#xef;" horiz-adv-x="490" 
d="M125 756l122 -6l122 6q37 0 59.5 -18t22.5 -48.5t-22.5 -48.5t-59.5 -18l-47 3q-7 -148 -7 -251.5t7 -251.5q36 4 47 4q37 0 59.5 -18t22.5 -48.5t-22.5 -48.5t-59.5 -18l-122 6l-122 -7q-38 0 -60.5 18t-22.5 49t22.5 48.5t60.5 17.5l47 -4q7 148 7 252t-7 252
q-30 -3 -57.5 -3t-50 17.5t-22.5 48.5t22.5 49t60.5 18zM421 943.5q20 -22.5 20 -55.5t-23 -59.5t-57.5 -26.5t-54 23t-19.5 56t22.5 59t57 26t54.5 -22.5zM183 943.5q20 -22.5 20 -55.5t-23 -59.5t-57.5 -26.5t-54 23t-19.5 56t22.5 59t57 26t54.5 -22.5z" />
    <glyph glyph-name="eth" unicode="&#xf0;" horiz-adv-x="639" 
d="M528 515q44 -104 44 -231t-70.5 -213t-189.5 -86t-189 77t-70 180t64.5 181t175.5 78q56 0 108 -27q-36 74 -98 116l-46 -45q-25 -23 -50.5 -23t-42.5 16.5t-17 43t24 50.5q-44 3 -63.5 22.5t-19.5 46.5t25 45.5t76.5 18.5t106.5 -19q49 56 84 56q25 0 42 -16.5t17 -43.5
t-32 -59q77 -64 121 -168zM223.5 336.5q-29.5 -37.5 -29.5 -93t33 -93.5t82.5 -38t82 36t32.5 89.5t-33.5 95t-85.5 41.5t-81.5 -37.5z" />
    <glyph glyph-name="ntilde" unicode="&#xf1;" horiz-adv-x="808" 
d="M540 160l5 268q0 92 -30 148t-88 56t-118 -72.5t-84 -167.5l6 -294q0 -108 -75 -108q-84 0 -84 127q0 100 26 271q0 47 -11 143t-11 140.5t20 68t56 23.5q73 0 73 -113q87 110 209.5 110t187.5 -78.5t65 -191.5l-6 -255q0 -95 12 -107q7 -7 21 -10t23 -9t9 -21
q0 -42 -28.5 -71t-66.5 -29q-63 0 -87 43.5t-24 128.5zM618 921q0 -34 -41.5 -70.5t-79.5 -36.5t-88.5 24.5t-66 24.5t-46 -27.5t-57.5 -27.5t-45 18.5t-18 45.5q0 39 43 72t106 33q32 0 86 -24t76 -24t46 22t42.5 22t30.5 -15t12 -37z" />
    <glyph glyph-name="ograve" unicode="&#xf2;" horiz-adv-x="823" 
d="M559 191q59 80 59 185.5t-58.5 184t-148 78.5t-148 -78.5t-58.5 -184t59 -185.5t147.5 -80t147.5 80zM660.5 651.5q99.5 -113.5 99.5 -276t-100 -276.5t-248.5 -114t-248.5 114t-100 276.5t100.5 276t249 113.5t248 -113.5zM297 929q0 26 16 47.5t39.5 21.5t35.5 -4.5
t20.5 -14.5t13 -17.5t11.5 -24t9.5 -21t23 -35t20.5 -47.5t-13 -29.5t-36 -12.5q-36 0 -88 44t-52 93z" />
    <glyph glyph-name="oacute" unicode="&#xf3;" horiz-adv-x="823" 
d="M559 191q59 80 59 185.5t-58.5 184t-148 78.5t-148 -78.5t-58.5 -184t59 -185.5t147.5 -80t147.5 80zM660.5 651.5q99.5 -113.5 99.5 -276t-100 -276.5t-248.5 -114t-248.5 114t-100 276.5t100.5 276t249 113.5t248 -113.5zM526 929q0 -49 -52 -93t-88 -44
q-23 0 -36 12.5t-13 29.5t20.5 47.5t23 35t9.5 21t11.5 24t12.5 17.5q17 19 48.5 19t47.5 -21.5t16 -47.5z" />
    <glyph glyph-name="ocircumflex" unicode="&#xf4;" horiz-adv-x="823" 
d="M559 191q59 80 59 185.5t-58.5 184t-148 78.5t-148 -78.5t-58.5 -184t59 -185.5t147.5 -80t147.5 80zM660.5 651.5q99.5 -113.5 99.5 -276t-100 -276.5t-248.5 -114t-248.5 114t-100 276.5t100.5 276t249 113.5t248 -113.5zM377.5 1004.5q15.5 7.5 37 7.5t36.5 -9
t38.5 -36t34 -37.5t28 -26.5t23.5 -22q17 -17 17 -39t-17.5 -39.5t-42 -17.5t-50.5 24t-44.5 48t-26.5 24t-27 -23q-56 -72 -96 -72q-23 0 -40.5 17.5t-17.5 34.5t5.5 27.5t11.5 16.5t23.5 22t28.5 27t28 29.5t26 27.5t24.5 16.5z" />
    <glyph glyph-name="otilde" unicode="&#xf5;" horiz-adv-x="823" 
d="M559 191q59 80 59 185.5t-58.5 184t-148 78.5t-148 -78.5t-58.5 -184t59 -185.5t147.5 -80t147.5 80zM660.5 651.5q99.5 -113.5 99.5 -276t-100 -276.5t-248.5 -114t-248.5 114t-100 276.5t100.5 276t249 113.5t248 -113.5zM632 921q0 -34 -41.5 -70.5t-79.5 -36.5
t-88.5 24.5t-66 24.5t-46 -27.5t-57.5 -27.5t-45 18.5t-18 45.5q0 39 43 72t106 33q32 0 86 -24t76 -24t46 22t42.5 22t30.5 -15t12 -37z" />
    <glyph glyph-name="odieresis" unicode="&#xf6;" horiz-adv-x="823" 
d="M559 191q59 80 59 185.5t-58.5 184t-148 78.5t-148 -78.5t-58.5 -184t59 -185.5t147.5 -80t147.5 80zM660.5 651.5q99.5 -113.5 99.5 -276t-100 -276.5t-248.5 -114t-248.5 114t-100 276.5t100.5 276t249 113.5t248 -113.5zM587 944.5q20 -22.5 20 -55.5t-23 -59.5
t-57.5 -26.5t-54 23t-19.5 56t22.5 59t57 26t54.5 -22.5zM349 944.5q20 -22.5 20 -55.5t-23 -59.5t-57.5 -26.5t-54 23t-19.5 56t22.5 59t57 26t54.5 -22.5z" />
    <glyph glyph-name="divide" unicode="&#xf7;" horiz-adv-x="630" 
d="M316 433l176 5q31 0 51.5 -18t20.5 -44t-20.5 -44t-51.5 -18l-176 5l-177 -4q-31 0 -52 17.5t-21 43.5t21 43.5t52 17.5zM372 239.5q20 -22.5 20 -55.5t-23 -59.5t-57.5 -26.5t-54 23t-19.5 56t22.5 59t57 26t54.5 -22.5zM371 627.5q20 -22.5 20 -55.5t-23 -59.5
t-57.5 -26.5t-54 23t-19.5 56t22.5 59t57 26t54.5 -22.5z" />
    <glyph glyph-name="oslash" unicode="&#xf8;" horiz-adv-x="823" 
d="M412 765l20 -1q22 75 74 75q31 0 50.5 -20.5t19.5 -44.5t-6 -50q87 -48 138.5 -141.5t51.5 -207.5q0 -162 -100 -276t-249 -114l-22 1q-22 -70 -72 -70q-31 0 -50.5 20.5t-19.5 52.5q0 14 5 37q-87 49 -138 142.5t-51 206.5q0 163 100.5 276.5t248.5 113.5zM618 375
q0 64 -22.5 120.5t-62.5 93.5q-55 -194 -115 -478q86 3 143 82.5t57 181.5zM289 162q73 267 115 477q-87 -4 -143 -82t-56 -182q0 -62 22 -118.5t62 -94.5z" />
    <glyph glyph-name="ugrave" unicode="&#xf9;" horiz-adv-x="821" 
d="M549 359l-6 294q0 108 75 108q84 0 84 -127q0 -100 -26 -271q0 -54 11 -139t30 -98q18 -12 26 -15t11 -5q5 -5 5 -20q0 -38 -26 -67t-67.5 -29t-68.5 35.5t-37 90.5q-32 -52 -93 -88.5t-132 -36.5q-118 0 -183 78.5t-65 191.5l6 255q0 41 -10.5 88.5t-10.5 80t22.5 54
t58.5 21.5q83 0 83 -126l-7 -311q0 -92 30 -148t88 -56t118 72.5t84 167.5zM260 927q0 26 16 47.5t39.5 21.5t35.5 -4.5t20.5 -14.5t13 -17.5t11.5 -24t9.5 -21t23 -35t20.5 -47.5t-13 -29.5t-36 -12.5q-36 0 -88 44t-52 93z" />
    <glyph glyph-name="uacute" unicode="&#xfa;" horiz-adv-x="821" 
d="M549 359l-6 294q0 108 75 108q84 0 84 -127q0 -100 -26 -271q0 -54 11 -139t30 -98q18 -12 26 -15t11 -5q5 -5 5 -20q0 -38 -26 -67t-67.5 -29t-68.5 35.5t-37 90.5q-32 -52 -93 -88.5t-132 -36.5q-118 0 -183 78.5t-65 191.5l6 255q0 41 -10.5 88.5t-10.5 80t22.5 54
t58.5 21.5q83 0 83 -126l-7 -311q0 -92 30 -148t88 -56t118 72.5t84 167.5zM499 927q0 -49 -52 -93t-88 -44q-23 0 -36 12.5t-13 29.5t20.5 47.5t23 35t9.5 21t11.5 24t13.5 17.5q16 19 47.5 19t47.5 -21.5t16 -47.5z" />
    <glyph glyph-name="ucircumflex" unicode="&#xfb;" horiz-adv-x="821" 
d="M549 359l-6 294q0 108 75 108q84 0 84 -127q0 -100 -26 -271q0 -54 11 -139t30 -98q18 -12 26 -15t11 -5q5 -5 5 -20q0 -38 -26 -67t-67.5 -29t-68.5 35.5t-37 90.5q-32 -52 -93 -88.5t-132 -36.5q-118 0 -183 78.5t-65 191.5l6 255q0 41 -10.5 88.5t-10.5 80t22.5 54
t58.5 21.5q83 0 83 -126l-7 -311q0 -92 30 -148t88 -56t118 72.5t84 167.5zM346.5 1012.5q15.5 7.5 37 7.5t36.5 -9t38.5 -36t34 -37.5t28 -26.5t23.5 -22q17 -17 17 -39t-17.5 -39.5t-42 -17.5t-50.5 24t-44.5 48t-26.5 24t-26 -23q-57 -72 -97 -72q-23 0 -40.5 17.5
t-17.5 34.5t5.5 27.5t11.5 16.5t23.5 22t28.5 27t28 29.5t26 27.5t24.5 16.5z" />
    <glyph glyph-name="udieresis" unicode="&#xfc;" horiz-adv-x="821" 
d="M549 359l-6 294q0 108 75 108q84 0 84 -127q0 -100 -26 -271q0 -54 11 -139t30 -98q18 -12 26 -15t11 -5q5 -5 5 -20q0 -38 -26 -67t-67.5 -29t-68.5 35.5t-37 90.5q-32 -52 -93 -88.5t-132 -36.5q-118 0 -183 78.5t-65 191.5l6 255q0 41 -10.5 88.5t-10.5 80t22.5 54
t58.5 21.5q83 0 83 -126l-7 -311q0 -92 30 -148t88 -56t118 72.5t84 167.5zM556 948.5q20 -22.5 20 -55.5t-23 -59.5t-57.5 -26.5t-54 23t-19.5 56t22.5 59t57 26t54.5 -22.5zM318 948.5q20 -22.5 20 -55.5t-23 -59.5t-57.5 -26.5t-54 23t-19.5 56t22.5 59t57 26t54.5 -22.5
z" />
    <glyph glyph-name="yacute" unicode="&#xfd;" horiz-adv-x="602" 
d="M223 98q0 48 7 195q-32 65 -88 158.5t-89 153t-33 88t17.5 48t45 19.5t42.5 -9.5t32 -37t32 -58.5q61 -127 114 -217q57 100 93 174t52.5 101.5t31 37t41 9.5t44 -20.5t17.5 -47t-34 -87t-91 -154t-89 -159.5q7 -133 7 -194q0 -108 -76 -108t-76 108zM424 927
q0 -49 -52 -93t-88 -44q-23 0 -36 12.5t-13 29.5t20.5 47.5t23 35t9.5 21t11.5 24t12.5 17.5q17 19 48.5 19t47.5 -21.5t16 -47.5z" />
    <glyph glyph-name="thorn" unicode="&#xfe;" horiz-adv-x="622" 
d="M239 499q-1 -27 -1 -86t1 -93q37 -8 90.5 -8t86.5 26.5t33 70.5t-33.5 70.5t-86.5 26.5t-90 -7zM101 376l-8 274q0 49 19 79.5t57.5 30.5t56.5 -26t18 -63q0 -10 -2 -44q40 6 87 6q116 0 188 -64t72 -160t-71.5 -160t-187.5 -64q-47 0 -89 6q3 -83 3 -116t-18.5 -59
t-54.5 -26t-56 23.5t-20 64.5z" />
    <glyph glyph-name="ydieresis" unicode="&#xff;" horiz-adv-x="602" 
d="M223 98q0 48 7 195q-32 65 -88 158.5t-89 153t-33 88t17.5 48t45 19.5t42.5 -9.5t32 -37t32 -58.5q61 -127 114 -217q57 100 93 174t52.5 101.5t31 37t41 9.5t44 -20.5t17.5 -47t-34 -87t-91 -154t-89 -159.5q7 -133 7 -194q0 -108 -76 -108t-76 108zM477 944.5
q20 -22.5 20 -55.5t-23 -59.5t-57.5 -26.5t-54 23t-19.5 56t22.5 59t57 26t54.5 -22.5zM239 944.5q20 -22.5 20 -55.5t-23 -59.5t-57.5 -26.5t-54 23t-19.5 56t22.5 59t57 26t54.5 -22.5z" />
    <glyph glyph-name="Amacron" unicode="&#x100;" horiz-adv-x="689" 
d="M181 874h331v-103h-331v103zM454 221q-78 4 -129 4t-90 -2q-12 -31 -29.5 -92.5t-26.5 -87.5q-18 -53 -66 -53q-28 0 -45 17t-17 47.5t52 165.5q-52 12 -52 60q0 65 93 65q14 43 54 155t51.5 146.5t18 49.5t17.5 32q21 32 63 32q31 0 55 -19q15 -12 27 -46.5t24.5 -72
t27 -77t40 -114.5t29.5 -86q5 1 18 1q34 0 56 -19.5t22 -47.5q0 -46 -56 -61q56 -145 56 -168t-18.5 -41.5t-48.5 -18.5q-45 0 -66 50q-5 12 -60 181zM271 338q25 -2 74 -2t74 2q-65 236 -73 236q-7 0 -58 -177z" />
    <glyph glyph-name="amacron" unicode="&#x101;" horiz-adv-x="604" 
d="M143 709h331v-103h-331v103zM666.5 731.5q23.5 -33.5 23.5 -84t-28 -281.5q0 -54 11.5 -142.5t30.5 -101.5q18 -12 26 -15t11 -5q5 -5 5 -20q0 -38 -26 -67t-67.5 -29t-68.5 35.5t-37 90.5q-93 -127 -218 -127q-67 0 -120 34.5t-84 90.5q-63 114 -63 253q0 164 88 283
t228 119q82 0 156 -44q15 44 68 44q41 0 64.5 -33.5zM536 357l-5 220q-71 61 -153 61q-69 0 -121.5 -78.5t-52.5 -189.5t34.5 -184.5t96 -73.5t125 82t76.5 163z" />
    <glyph glyph-name="Abreve" unicode="&#x102;" horiz-adv-x="689" 
d="M256 735q-77 0 -127 51t-50 95q0 30 17 44.5t39 14.5t39.5 -12.5t26.5 -27.5t23.5 -27.5t31.5 -12.5t31.5 12.5t23.5 27.5t26.5 27.5t39.5 12.5t39 -14.5t17 -44.5q0 -44 -50 -95t-127 -51zM454 221q-78 4 -129 4t-90 -2q-12 -31 -29.5 -92.5t-26.5 -87.5
q-18 -53 -66 -53q-28 0 -45 17t-17 47.5t52 165.5q-52 12 -52 60q0 65 93 65q14 43 54 155t51.5 146.5t18 49.5t17.5 32q21 32 63 32q31 0 55 -19q15 -12 27 -46.5t24.5 -72t27 -77t40 -114.5t29.5 -86q5 1 18 1q34 0 56 -19.5t22 -47.5q0 -46 -56 -61q56 -145 56 -168
t-18.5 -41.5t-48.5 -18.5q-45 0 -66 50q-5 12 -60 181zM271 338q25 -2 74 -2t74 2q-65 236 -73 236q-7 0 -58 -177z" />
    <glyph glyph-name="abreve" unicode="&#x103;" horiz-adv-x="604" 
d="M220 570q-77 0 -127 51t-50 95q0 30 17 44.5t39 14.5t39.5 -12.5t26.5 -27.5t23.5 -27.5t31.5 -12.5t31.5 12.5t23.5 27.5t26.5 27.5t39.5 12.5t39 -14.5t17 -44.5q0 -44 -50 -95t-127 -51zM666.5 731.5q23.5 -33.5 23.5 -84t-28 -281.5q0 -54 11.5 -142.5t30.5 -101.5
q18 -12 26 -15t11 -5q5 -5 5 -20q0 -38 -26 -67t-67.5 -29t-68.5 35.5t-37 90.5q-93 -127 -218 -127q-67 0 -120 34.5t-84 90.5q-63 114 -63 253q0 164 88 283t228 119q82 0 156 -44q15 44 68 44q41 0 64.5 -33.5zM536 357l-5 220q-71 61 -153 61q-69 0 -121.5 -78.5
t-52.5 -189.5t34.5 -184.5t96 -73.5t125 82t76.5 163z" />
    <glyph glyph-name="Aogonek" unicode="&#x104;" horiz-adv-x="689" 
d="M762 -163q0 -31 -40 -59t-93 -28t-89 33t-36 87q0 84 75 143h157q-47 -24 -81.5 -64.5t-34.5 -57.5q0 -32 26 -32q8 0 32.5 10t43.5 10t29.5 -13.5t10.5 -28.5zM454 221q-78 4 -129 4t-90 -2q-12 -31 -29.5 -92.5t-26.5 -87.5q-18 -53 -66 -53q-28 0 -45 17t-17 47.5
t52 165.5q-52 12 -52 60q0 65 93 65q14 43 54 155t51.5 146.5t18 49.5t17.5 32q21 32 63 32q31 0 55 -19q15 -12 27 -46.5t24.5 -72t27 -77t40 -114.5t29.5 -86q5 1 18 1q34 0 56 -19.5t22 -47.5q0 -46 -56 -61q56 -145 56 -168t-18.5 -41.5t-48.5 -18.5q-45 0 -66 50
q-5 12 -60 181zM271 338q25 -2 74 -2t74 2q-65 236 -73 236q-7 0 -58 -177z" />
    <glyph glyph-name="aogonek" unicode="&#x105;" horiz-adv-x="604" 
d="M661 -163q0 -31 -40 -59t-93 -28t-89 33t-36 87q0 84 75 143h157q-47 -24 -81.5 -64.5t-34.5 -57.5q0 -32 26 -32q8 0 32.5 10t43.5 10t29.5 -13.5t10.5 -28.5zM666.5 731.5q23.5 -33.5 23.5 -84t-28 -281.5q0 -54 11.5 -142.5t30.5 -101.5q18 -12 26 -15t11 -5
q5 -5 5 -20q0 -38 -26 -67t-67.5 -29t-68.5 35.5t-37 90.5q-93 -127 -218 -127q-67 0 -120 34.5t-84 90.5q-63 114 -63 253q0 164 88 283t228 119q82 0 156 -44q15 44 68 44q41 0 64.5 -33.5zM536 357l-5 220q-71 61 -153 61q-69 0 -121.5 -78.5t-52.5 -189.5t34.5 -184.5
t96 -73.5t125 82t76.5 163z" />
    <glyph glyph-name="Cacute" unicode="&#x106;" horiz-adv-x="637" 
d="M659 121q0 -46 -76 -91t-183 -45q-145 0 -241 114t-96 277t96.5 276t241.5 113q92 0 165.5 -38t73.5 -86q0 -29 -19 -46.5t-48.5 -17.5t-73.5 30.5t-98 30.5q-85 0 -140.5 -77.5t-55.5 -184t55 -186t136.5 -79.5t153.5 43q33 20 56.5 20t38 -15t14.5 -38zM394 842
q0 -49 -52 -93t-88 -44q-23 0 -36 12.5t-13 29.5t20.5 47.5t23 35t9.5 21t11.5 24t12.5 17.5q17 19 48.5 19t47.5 -21.5t16 -47.5z" />
    <glyph glyph-name="cacute" unicode="&#x107;" horiz-adv-x="514" 
d="M659 121q0 -46 -76 -91t-183 -45q-145 0 -241 114t-96 277t96.5 276t241.5 113q92 0 165.5 -38t73.5 -86q0 -29 -19 -46.5t-48.5 -17.5t-73.5 30.5t-98 30.5q-85 0 -140.5 -77.5t-55.5 -184t55 -186t136.5 -79.5t153.5 43q33 20 56.5 20t38 -15t14.5 -38zM306 677
q0 -49 -52 -93t-88 -44q-23 0 -36 12.5t-13 29.5t20.5 47.5t23 35t9.5 21t11.5 24t12.5 17.5q17 19 48.5 19t47.5 -21.5t16 -47.5z" />
    <glyph glyph-name="Ccircumflex" unicode="&#x108;" horiz-adv-x="637" 
d="M289.5 917.5q15.5 7.5 37 7.5t36.5 -9t38.5 -36t34 -37.5t28 -26.5t23.5 -22q17 -17 17 -39t-17.5 -39.5t-42 -17.5t-50.5 24t-44.5 48t-26.5 24t-26 -23q-57 -72 -97 -72q-23 0 -40.5 17.5t-17.5 34.5t5.5 27.5t11.5 16.5t23.5 22t28.5 27t28 29.5t26 27.5t24.5 16.5z
M659 121q0 -46 -76 -91t-183 -45q-145 0 -241 114t-96 277t96.5 276t241.5 113q92 0 165.5 -38t73.5 -86q0 -29 -19 -46.5t-48.5 -17.5t-73.5 30.5t-98 30.5q-85 0 -140.5 -77.5t-55.5 -184t55 -186t136.5 -79.5t153.5 43q33 20 56.5 20t38 -15t14.5 -38z" />
    <glyph glyph-name="ccircumflex" unicode="&#x109;" horiz-adv-x="514" 
d="M198.5 752.5q15.5 7.5 37 7.5t36.5 -9t38.5 -36t34 -37.5t28 -26.5t23.5 -22q17 -17 17 -39t-17.5 -39.5t-42 -17.5t-50.5 24t-44.5 48t-26.5 24t-26 -23q-57 -72 -97 -72q-23 0 -40.5 17.5t-17.5 34.5t5.5 27.5t11.5 16.5t23.5 22t28.5 27t28 29.5t26 27.5t24.5 16.5z
M659 121q0 -46 -76 -91t-183 -45q-145 0 -241 114t-96 277t96.5 276t241.5 113q92 0 165.5 -38t73.5 -86q0 -29 -19 -46.5t-48.5 -17.5t-73.5 30.5t-98 30.5q-85 0 -140.5 -77.5t-55.5 -184t55 -186t136.5 -79.5t153.5 43q33 20 56.5 20t38 -15t14.5 -38z" />
    <glyph glyph-name="Cdotaccent" unicode="&#x10a;" horiz-adv-x="637" 
d="M420 902.5q20 -22.5 20 -55.5t-23 -59.5t-57.5 -26.5t-54 23t-19.5 56t22.5 59t57 26t54.5 -22.5zM659 121q0 -46 -76 -91t-183 -45q-145 0 -241 114t-96 277t96.5 276t241.5 113q92 0 165.5 -38t73.5 -86q0 -29 -19 -46.5t-48.5 -17.5t-73.5 30.5t-98 30.5
q-85 0 -140.5 -77.5t-55.5 -184t55 -186t136.5 -79.5t153.5 43q33 20 56.5 20t38 -15t14.5 -38z" />
    <glyph glyph-name="cdotaccent" unicode="&#x10b;" horiz-adv-x="514" 
d="M343 737.5q20 -22.5 20 -55.5t-23 -59.5t-57.5 -26.5t-54 23t-19.5 56t22.5 59t57 26t54.5 -22.5zM659 121q0 -46 -76 -91t-183 -45q-145 0 -241 114t-96 277t96.5 276t241.5 113q92 0 165.5 -38t73.5 -86q0 -29 -19 -46.5t-48.5 -17.5t-73.5 30.5t-98 30.5
q-85 0 -140.5 -77.5t-55.5 -184t55 -186t136.5 -79.5t153.5 43q33 20 56.5 20t38 -15t14.5 -38z" />
    <glyph glyph-name="Ccaron" unicode="&#x10c;" horiz-adv-x="637" 
d="M358.5 705.5q-15.5 -7.5 -34 -7.5t-34 7.5t-24.5 16.5t-26 27.5t-28 29.5t-28.5 27t-23.5 22q-17 17 -17 39t17.5 39.5t42 17.5t50.5 -23.5t44.5 -47.5t26.5 -24t26 24q56 72 97 72q23 0 40.5 -17.5t17.5 -34.5t-5.5 -27.5t-11.5 -16.5t-23.5 -22t-29 -27t-27.5 -30
t-25 -28t-24.5 -16.5zM659 121q0 -46 -76 -91t-183 -45q-145 0 -241 114t-96 277t96.5 276t241.5 113q92 0 165.5 -38t73.5 -86q0 -29 -19 -46.5t-48.5 -17.5t-73.5 30.5t-98 30.5q-85 0 -140.5 -77.5t-55.5 -184t55 -186t136.5 -79.5t153.5 43q33 20 56.5 20t38 -15
t14.5 -38z" />
    <glyph glyph-name="ccaron" unicode="&#x10d;" horiz-adv-x="514" 
d="M274.5 540.5q-15.5 -7.5 -34 -7.5t-34 7.5t-24.5 16.5t-26 27.5t-28 29.5t-28.5 27t-23.5 22q-17 17 -17 39t17.5 39.5t42 17.5t50.5 -23.5t44.5 -47.5t26.5 -24t26 24q56 72 97 72q23 0 40.5 -17.5t17.5 -34.5t-5.5 -27.5t-11.5 -16.5t-23.5 -22t-29 -27t-27.5 -30
t-25 -28t-24.5 -16.5zM659 121q0 -46 -76 -91t-183 -45q-145 0 -241 114t-96 277t96.5 276t241.5 113q92 0 165.5 -38t73.5 -86q0 -29 -19 -46.5t-48.5 -17.5t-73.5 30.5t-98 30.5q-85 0 -140.5 -77.5t-55.5 -184t55 -186t136.5 -79.5t153.5 43q33 20 56.5 20t38 -15
t14.5 -38z" />
    <glyph glyph-name="Dcaron" unicode="&#x10e;" horiz-adv-x="740" 
d="M325.5 705.5q-15.5 -7.5 -34 -7.5t-34 7.5t-24.5 16.5t-26 27.5t-28 29.5t-28.5 27t-23.5 22q-17 17 -17 39t17.5 39.5t42 17.5t50.5 -23.5t44.5 -47.5t26.5 -24t26 24q56 72 97 72q23 0 40.5 -17.5t17.5 -34.5t-5.5 -27.5t-11.5 -16.5t-23.5 -22t-29 -27t-27.5 -30
t-25 -28t-24.5 -16.5zM115 375l-5 228q-41 12 -41 57q0 30 43.5 55t99.5 36.5t106 11.5q98 0 175.5 -33t124.5 -88q95 -113 95 -270q0 -151 -92 -264q-45 -56 -120.5 -89.5t-179.5 -33.5t-180 30t-76 75t47 56zM572 376q0 108 -65.5 185t-188.5 77q-34 0 -64 -9
q-3 -61 -3 -250t4 -261q32 -7 72 -7q81 0 138 39q107 75 107 226z" />
    <glyph glyph-name="dcaron" unicode="&#x10f;" horiz-adv-x="632" 
d="M600 613q7 24 16.5 70t13.5 77h138v-10q-39 -86 -81 -150h-87v13zM115 375l-5 228q-41 12 -41 57q0 30 43.5 55t99.5 36.5t106 11.5q98 0 175.5 -33t124.5 -88q95 -113 95 -270q0 -151 -92 -264q-45 -56 -120.5 -89.5t-179.5 -33.5t-180 30t-76 75t47 56zM572 376
q0 108 -65.5 185t-188.5 77q-34 0 -64 -9q-3 -61 -3 -250t4 -261q32 -7 72 -7q81 0 138 39q107 75 107 226z" />
    <glyph glyph-name="Dcroat" unicode="&#x110;" horiz-adv-x="740" 
d="M116 435l-4 168q-41 12 -41 57q0 30 43.5 55t99.5 36.5t106 11.5q98 0 175.5 -33t124.5 -88q95 -113 95 -270q0 -151 -92 -264q-45 -56 -120.5 -89.5t-179.5 -33.5t-180 30t-76 75t47 56l2 168h-33q-31 0 -52 17.5t-21 43.5t21 43.5t48 17.5t37 -1zM253 435l43 2
q31 0 51.5 -18t20.5 -44t-20.5 -44t-50 -18t-44.5 1q0 -139 4 -196q32 -7 72 -7q81 0 138 39q107 75 107 226q0 108 -65.5 185t-188.5 77q-34 0 -64 -9q-3 -48 -3 -194z" />
    <glyph glyph-name="dcroat" unicode="&#x111;" horiz-adv-x="648" 
d="M251 -10q-97 0 -151.5 71.5t-54.5 195.5q0 128 56 198.5t154 70.5q104 0 157 -80h5q-11 64 -11 113v25h-154v97h154v79h149v-79h76v-97h-76v-584h-114l-29 71h-6q-51 -81 -155 -81zM303 109q57 0 84 30.5t29 102.5v14q0 80 -27.5 114.5t-87.5 34.5q-50 0 -77.5 -38.5
t-27.5 -111.5t27.5 -109.5t79.5 -36.5z" />
    <glyph glyph-name="Emacron" unicode="&#x112;" horiz-adv-x="560" 
d="M134 874h331v-103h-331v103zM346 0l-152 -6q-37 0 -61.5 24t-24.5 64l6 251q-62 9 -62 65q0 27 17 44t44 22l-5 183q-11 21 -11 49q0 60 95 60l152 -6l157 6q38 0 60.5 -18.5t22.5 -49.5t-22.5 -48.5t-60.5 -17.5l-157 6q-54 0 -94 -3v-166q16 -1 43 -1l161 7
q36 0 59 -18.5t23 -49t-23 -48t-59 -17.5l-158 6h-14q-14 -1 -32 -1q0 -139 2 -213q27 -2 94 -2l157 6q38 0 60.5 -17.5t22.5 -48.5t-22.5 -49.5t-60.5 -18.5z" />
    <glyph glyph-name="emacron" unicode="&#x113;" horiz-adv-x="590" 
d="M136 709h331v-103h-331v103zM559 542q0 36 -29 66t-83 30q-71 0 -120.5 -60t-69.5 -144q60 -14 134.5 -14t121 32t46.5 90zM604 33.5q-74 -48.5 -158 -48.5t-144.5 29.5t-99.5 79.5q-82 103 -92 243q-68 27 -68 83q0 28 18.5 45.5t45.5 17.5q8 0 18 -3q35 124 119 204.5
t196.5 80.5t187 -64.5t74.5 -154t-45 -146.5q-85 -104 -263 -104q-59 0 -137 13q15 -84 63 -141t110 -57q69 0 147 47q26 16 48 16t38 -15t16 -38q0 -39 -74 -87.5z" />
    <glyph glyph-name="Ebreve" unicode="&#x114;" horiz-adv-x="560" 
d="M203 735q-77 0 -127 51t-50 95q0 30 17 44.5t39 14.5t39.5 -12.5t26.5 -27.5t23.5 -27.5t31.5 -12.5t31.5 12.5t23.5 27.5t26.5 27.5t39.5 12.5t39 -14.5t17 -44.5q0 -44 -50 -95t-127 -51zM346 0l-152 -6q-37 0 -61.5 24t-24.5 64l6 251q-62 9 -62 65q0 27 17 44t44 22
l-5 183q-11 21 -11 49q0 60 95 60l152 -6l157 6q38 0 60.5 -18.5t22.5 -49.5t-22.5 -48.5t-60.5 -17.5l-157 6q-54 0 -94 -3v-166q16 -1 43 -1l161 7q36 0 59 -18.5t23 -49t-23 -48t-59 -17.5l-158 6h-14q-14 -1 -32 -1q0 -139 2 -213q27 -2 94 -2l157 6q38 0 60.5 -17.5
t22.5 -48.5t-22.5 -49.5t-60.5 -18.5z" />
    <glyph glyph-name="ebreve" unicode="&#x115;" horiz-adv-x="590" 
d="M214 570q-77 0 -127 51t-50 95q0 30 17 44.5t39 14.5t39.5 -12.5t26.5 -27.5t23.5 -27.5t31.5 -12.5t31.5 12.5t23.5 27.5t26.5 27.5t39.5 12.5t39 -14.5t17 -44.5q0 -44 -50 -95t-127 -51zM559 542q0 36 -29 66t-83 30q-71 0 -120.5 -60t-69.5 -144q60 -14 134.5 -14
t121 32t46.5 90zM604 33.5q-74 -48.5 -158 -48.5t-144.5 29.5t-99.5 79.5q-82 103 -92 243q-68 27 -68 83q0 28 18.5 45.5t45.5 17.5q8 0 18 -3q35 124 119 204.5t196.5 80.5t187 -64.5t74.5 -154t-45 -146.5q-85 -104 -263 -104q-59 0 -137 13q15 -84 63 -141t110 -57
q69 0 147 47q26 16 48 16t38 -15t16 -38q0 -39 -74 -87.5z" />
    <glyph glyph-name="Edotaccent" unicode="&#x116;" horiz-adv-x="560" 
d="M337 888.5q20 -22.5 20 -55.5t-23 -59.5t-57.5 -26.5t-54 23t-19.5 56t22.5 59t57 26t54.5 -22.5zM346 0l-152 -6q-37 0 -61.5 24t-24.5 64l6 251q-62 9 -62 65q0 27 17 44t44 22l-5 183q-11 21 -11 49q0 60 95 60l152 -6l157 6q38 0 60.5 -18.5t22.5 -49.5t-22.5 -48.5
t-60.5 -17.5l-157 6q-54 0 -94 -3v-166q16 -1 43 -1l161 7q36 0 59 -18.5t23 -49t-23 -48t-59 -17.5l-158 6h-14q-14 -1 -32 -1q0 -139 2 -213q27 -2 94 -2l157 6q38 0 60.5 -17.5t22.5 -48.5t-22.5 -49.5t-60.5 -18.5z" />
    <glyph glyph-name="edotaccent" unicode="&#x117;" horiz-adv-x="590" 
d="M345 737.5q20 -22.5 20 -55.5t-23 -59.5t-57.5 -26.5t-54 23t-19.5 56t22.5 59t57 26t54.5 -22.5zM559 542q0 36 -29 66t-83 30q-71 0 -120.5 -60t-69.5 -144q60 -14 134.5 -14t121 32t46.5 90zM604 33.5q-74 -48.5 -158 -48.5t-144.5 29.5t-99.5 79.5q-82 103 -92 243
q-68 27 -68 83q0 28 18.5 45.5t45.5 17.5q8 0 18 -3q35 124 119 204.5t196.5 80.5t187 -64.5t74.5 -154t-45 -146.5q-85 -104 -263 -104q-59 0 -137 13q15 -84 63 -141t110 -57q69 0 147 47q26 16 48 16t38 -15t16 -38q0 -39 -74 -87.5z" />
    <glyph glyph-name="Eogonek" unicode="&#x118;" horiz-adv-x="560" 
d="M603 -163q0 -31 -40 -59t-93 -28t-89 33t-36 87q0 84 75 143h157q-47 -24 -81.5 -64.5t-34.5 -57.5q0 -32 26 -32q8 0 32.5 10t43.5 10t29.5 -13.5t10.5 -28.5zM346 0l-152 -6q-37 0 -61.5 24t-24.5 64l6 251q-62 9 -62 65q0 27 17 44t44 22l-5 183q-11 21 -11 49
q0 60 95 60l152 -6l157 6q38 0 60.5 -18.5t22.5 -49.5t-22.5 -48.5t-60.5 -17.5l-157 6q-54 0 -94 -3v-166q16 -1 43 -1l161 7q36 0 59 -18.5t23 -49t-23 -48t-59 -17.5l-158 6h-14q-14 -1 -32 -1q0 -139 2 -213q27 -2 94 -2l157 6q38 0 60.5 -17.5t22.5 -48.5t-22.5 -49.5
t-60.5 -18.5z" />
    <glyph glyph-name="eogonek" unicode="&#x119;" horiz-adv-x="590" 
d="M608 -153q0 -31 -40 -59t-93 -28t-89 33t-36 87q0 84 75 143h157q-47 -24 -81.5 -64.5t-34.5 -57.5q0 -32 26 -32q8 0 32.5 10t43.5 10t29.5 -13.5t10.5 -28.5zM559 542q0 36 -29 66t-83 30q-71 0 -120.5 -60t-69.5 -144q60 -14 134.5 -14t121 32t46.5 90zM604 33.5
q-74 -48.5 -158 -48.5t-144.5 29.5t-99.5 79.5q-82 103 -92 243q-68 27 -68 83q0 28 18.5 45.5t45.5 17.5q8 0 18 -3q35 124 119 204.5t196.5 80.5t187 -64.5t74.5 -154t-45 -146.5q-85 -104 -263 -104q-59 0 -137 13q15 -84 63 -141t110 -57q69 0 147 47q26 16 48 16
t38 -15t16 -38q0 -39 -74 -87.5z" />
    <glyph glyph-name="Ecaron" unicode="&#x11a;" horiz-adv-x="560" 
d="M269.5 705.5q-15.5 -7.5 -34 -7.5t-34 7.5t-24.5 16.5t-26 27.5t-28 29.5t-28.5 27t-23.5 22q-17 17 -17 39t17.5 39.5t42 17.5t50.5 -23.5t44.5 -47.5t26.5 -24t26 24q56 72 97 72q23 0 40.5 -17.5t17.5 -34.5t-5.5 -27.5t-11.5 -16.5t-23.5 -22t-29 -27t-27.5 -30
t-25 -28t-24.5 -16.5zM346 0l-152 -6q-37 0 -61.5 24t-24.5 64l6 251q-62 9 -62 65q0 27 17 44t44 22l-5 183q-11 21 -11 49q0 60 95 60l152 -6l157 6q38 0 60.5 -18.5t22.5 -49.5t-22.5 -48.5t-60.5 -17.5l-157 6q-54 0 -94 -3v-166q16 -1 43 -1l161 7q36 0 59 -18.5
t23 -49t-23 -48t-59 -17.5l-158 6h-14q-14 -1 -32 -1q0 -139 2 -213q27 -2 94 -2l157 6q38 0 60.5 -17.5t22.5 -48.5t-22.5 -49.5t-60.5 -18.5z" />
    <glyph glyph-name="ecaron" unicode="&#x11b;" horiz-adv-x="590" 
d="M275.5 540.5q-15.5 -7.5 -34 -7.5t-34 7.5t-24.5 16.5t-26 27.5t-28 29.5t-28.5 27t-23.5 22q-17 17 -17 39t17.5 39.5t42 17.5t50.5 -23.5t44.5 -47.5t26.5 -24t26 24q56 72 97 72q23 0 40.5 -17.5t17.5 -34.5t-5.5 -27.5t-11.5 -16.5t-23.5 -22t-29 -27t-27.5 -30
t-25 -28t-24.5 -16.5zM559 542q0 36 -29 66t-83 30q-71 0 -120.5 -60t-69.5 -144q60 -14 134.5 -14t121 32t46.5 90zM604 33.5q-74 -48.5 -158 -48.5t-144.5 29.5t-99.5 79.5q-82 103 -92 243q-68 27 -68 83q0 28 18.5 45.5t45.5 17.5q8 0 18 -3q35 124 119 204.5
t196.5 80.5t187 -64.5t74.5 -154t-45 -146.5q-85 -104 -263 -104q-59 0 -137 13q15 -84 63 -141t110 -57q69 0 147 47q26 16 48 16t38 -15t16 -38q0 -39 -74 -87.5z" />
    <glyph glyph-name="Gcircumflex" unicode="&#x11c;" horiz-adv-x="724" 
d="M296.5 917.5q15.5 7.5 37 7.5t36.5 -9t38.5 -36t34 -37.5t28 -26.5t23.5 -22q17 -17 17 -39t-17.5 -39.5t-42 -17.5t-50.5 24t-44.5 48t-26.5 24t-26 -23q-57 -72 -97 -72q-23 0 -40.5 17.5t-17.5 34.5t5.5 27.5t11.5 16.5t23.5 22t28.5 27t28 29.5t26 27.5t24.5 16.5z
M400 425l114 -6l117 6q36 0 59 -23t23 -58q0 -164 -87.5 -261.5t-228.5 -97.5t-237 114t-96 277t99 276t250 113q97 0 176 -42t79 -91q0 -28 -18 -44.5t-46 -16.5t-53 16.5t-58 33.5t-80 17q-90 0 -148.5 -77t-58.5 -184t55.5 -186.5t140.5 -79.5q64 0 109 48.5t54 136.5
q-11 1 -54 1l-111 -5q-37 0 -60 18.5t-23 49t23 48t60 17.5z" />
    <glyph glyph-name="gcircumflex" unicode="&#x11d;" horiz-adv-x="632" 
d="M208.5 752.5q15.5 7.5 37 7.5t36.5 -9t38.5 -36t34 -37.5t28 -26.5t23.5 -22q17 -17 17 -39t-17.5 -39.5t-42 -17.5t-50.5 24t-44.5 48t-26.5 24t-26 -23q-57 -72 -97 -72q-23 0 -40.5 17.5t-17.5 34.5t5.5 27.5t11.5 16.5t23.5 22t28.5 27t28 29.5t26 27.5t24.5 16.5z
M400 425l114 -6l117 6q36 0 59 -23t23 -58q0 -164 -87.5 -261.5t-228.5 -97.5t-237 114t-96 277t99 276t250 113q97 0 176 -42t79 -91q0 -28 -18 -44.5t-46 -16.5t-53 16.5t-58 33.5t-80 17q-90 0 -148.5 -77t-58.5 -184t55.5 -186.5t140.5 -79.5q64 0 109 48.5t54 136.5
q-11 1 -54 1l-111 -5q-37 0 -60 18.5t-23 49t23 48t60 17.5z" />
    <glyph glyph-name="Gbreve" unicode="&#x11e;" horiz-adv-x="724" 
d="M307 735q-77 0 -127 51t-50 95q0 30 17 44.5t39 14.5t39.5 -12.5t26.5 -27.5t23.5 -27.5t31.5 -12.5t31.5 12.5t23.5 27.5t26.5 27.5t39.5 12.5t39 -14.5t17 -44.5q0 -44 -50 -95t-127 -51zM400 425l114 -6l117 6q36 0 59 -23t23 -58q0 -164 -87.5 -261.5t-228.5 -97.5
t-237 114t-96 277t99 276t250 113q97 0 176 -42t79 -91q0 -28 -18 -44.5t-46 -16.5t-53 16.5t-58 33.5t-80 17q-90 0 -148.5 -77t-58.5 -184t55.5 -186.5t140.5 -79.5q64 0 109 48.5t54 136.5q-11 1 -54 1l-111 -5q-37 0 -60 18.5t-23 49t23 48t60 17.5z" />
    <glyph glyph-name="gbreve" unicode="&#x11f;" horiz-adv-x="632" 
d="M219 570q-77 0 -127 51t-50 95q0 30 17 44.5t39 14.5t39.5 -12.5t26.5 -27.5t23.5 -27.5t31.5 -12.5t31.5 12.5t23.5 27.5t26.5 27.5t39.5 12.5t39 -14.5t17 -44.5q0 -44 -50 -95t-127 -51zM400 425l114 -6l117 6q36 0 59 -23t23 -58q0 -164 -87.5 -261.5t-228.5 -97.5
t-237 114t-96 277t99 276t250 113q97 0 176 -42t79 -91q0 -28 -18 -44.5t-46 -16.5t-53 16.5t-58 33.5t-80 17q-90 0 -148.5 -77t-58.5 -184t55.5 -186.5t140.5 -79.5q64 0 109 48.5t54 136.5q-11 1 -54 1l-111 -5q-37 0 -60 18.5t-23 49t23 48t60 17.5z" />
    <glyph glyph-name="Gdotaccent" unicode="&#x120;" horiz-adv-x="724" 
d="M437 902.5q20 -22.5 20 -55.5t-23 -59.5t-57.5 -26.5t-54 23t-19.5 56t22.5 59t57 26t54.5 -22.5zM400 425l114 -6l117 6q36 0 59 -23t23 -58q0 -164 -87.5 -261.5t-228.5 -97.5t-237 114t-96 277t99 276t250 113q97 0 176 -42t79 -91q0 -28 -18 -44.5t-46 -16.5
t-53 16.5t-58 33.5t-80 17q-90 0 -148.5 -77t-58.5 -184t55.5 -186.5t140.5 -79.5q64 0 109 48.5t54 136.5q-11 1 -54 1l-111 -5q-37 0 -60 18.5t-23 49t23 48t60 17.5z" />
    <glyph glyph-name="gdotaccent" unicode="&#x121;" horiz-adv-x="632" 
d="M353 737.5q20 -22.5 20 -55.5t-23 -59.5t-57.5 -26.5t-54 23t-19.5 56t22.5 59t57 26t54.5 -22.5zM400 425l114 -6l117 6q36 0 59 -23t23 -58q0 -164 -87.5 -261.5t-228.5 -97.5t-237 114t-96 277t99 276t250 113q97 0 176 -42t79 -91q0 -28 -18 -44.5t-46 -16.5
t-53 16.5t-58 33.5t-80 17q-90 0 -148.5 -77t-58.5 -184t55.5 -186.5t140.5 -79.5q64 0 109 48.5t54 136.5q-11 1 -54 1l-111 -5q-37 0 -60 18.5t-23 49t23 48t60 17.5z" />
    <glyph glyph-name="uni0122" unicode="&#x122;" horiz-adv-x="724" 
d="M307 -208q7 24 16.5 70t13.5 77h138v-10q-37 -82 -81 -150h-87v13zM400 425l114 -6l117 6q36 0 59 -23t23 -58q0 -164 -87.5 -261.5t-228.5 -97.5t-237 114t-96 277t99 276t250 113q97 0 176 -42t79 -91q0 -28 -18 -44.5t-46 -16.5t-53 16.5t-58 33.5t-80 17
q-90 0 -148.5 -77t-58.5 -184t55.5 -186.5t140.5 -79.5q64 0 109 48.5t54 136.5q-11 1 -54 1l-111 -5q-37 0 -60 18.5t-23 49t23 48t60 17.5z" />
    <glyph glyph-name="uni0123" unicode="&#x123;" horiz-adv-x="632" 
d="M395 753q-7 -24 -16.5 -70t-13.5 -77h-138v10q38 83 81 150h87v-13zM400 425l114 -6l117 6q36 0 59 -23t23 -58q0 -164 -87.5 -261.5t-228.5 -97.5t-237 114t-96 277t99 276t250 113q97 0 176 -42t79 -91q0 -28 -18 -44.5t-46 -16.5t-53 16.5t-58 33.5t-80 17
q-90 0 -148.5 -77t-58.5 -184t55.5 -186.5t140.5 -79.5q64 0 109 48.5t54 136.5q-11 1 -54 1l-111 -5q-37 0 -60 18.5t-23 49t23 48t60 17.5z" />
    <glyph glyph-name="Hcircumflex" unicode="&#x124;" horiz-adv-x="765" 
d="M284.5 917.5q15.5 7.5 37 7.5t36.5 -9t38.5 -36t34 -37.5t28 -26.5t23.5 -22q17 -17 17 -39t-17.5 -39.5t-42 -17.5t-50.5 24t-44.5 48t-26.5 24t-26 -23q-57 -72 -97 -72q-23 0 -40.5 17.5t-17.5 34.5t5.5 27.5t11.5 16.5t23.5 22t28.5 27t28 29.5t26 27.5t24.5 16.5z
M525 453l-6 198q0 109 75.5 109t75.5 -109q0 -62 -7 -193q30 -6 47.5 -25t17.5 -45t-17 -45t-48 -23l7 -222q0 -108 -75.5 -108t-75.5 108l6 227l-139 3l-135 -3l7 -227q0 -108 -76 -108t-76 108l7 222q-31 4 -47.5 23.5t-16.5 45t17.5 44.5t46.5 25l-6 192q0 109 76 109
t76 -109q0 -64 -7 -197l134 -3q68 0 139 3z" />
    <glyph glyph-name="hcircumflex" unicode="&#x125;" horiz-adv-x="657" 
d="M232.5 944.5q15.5 7.5 37 7.5t36.5 -9t38.5 -36t34 -37.5t28 -26.5t23.5 -22q17 -17 17 -39t-17.5 -39.5t-42 -17.5t-50.5 24t-44.5 48t-26.5 24t-26 -23q-57 -72 -97 -72q-23 0 -40.5 17.5t-17.5 34.5t5.5 27.5t11.5 16.5t23.5 22t28.5 27t28 29.5t26 27.5t24.5 16.5z
M525 453l-6 198q0 109 75.5 109t75.5 -109q0 -62 -7 -193q30 -6 47.5 -25t17.5 -45t-17 -45t-48 -23l7 -222q0 -108 -75.5 -108t-75.5 108l6 227l-139 3l-135 -3l7 -227q0 -108 -76 -108t-76 108l7 222q-31 4 -47.5 23.5t-16.5 45t17.5 44.5t46.5 25l-6 192q0 109 76 109
t76 -109q0 -64 -7 -197l134 -3q68 0 139 3z" />
    <glyph glyph-name="Hbar" unicode="&#x126;" horiz-adv-x="788" 
d="M112 98l7 222q-31 4 -47.5 23.5t-16.5 45t17.5 44.5t46.5 25q0 15 -5 107h-19q-31 0 -52 17.5t-21 43.5t21 43.5t52 17.5h22q15 72 73 72t71 -74q110 -2 147.5 -2t119.5 2q14 75 72 75t71 -72l22 -2q31 0 52 -17.5t21 -43.5t-21 -43.5t-52 -17.5h-19q-3 -68 -5 -106
q30 -6 47.5 -25t17.5 -45t-17 -45t-48 -23l7 -222q0 -108 -75.5 -108t-75.5 108l6 227l-139 3l-135 -3l7 -227q0 -108 -76 -108t-76 108zM258 453l134 -3q68 0 139 3q0 11 -5 114q-110 2 -134 2l-129 -3q0 -18 -2 -56z" />
    <glyph glyph-name="hbar" unicode="&#x127;" horiz-adv-x="788" 
d="M112 98l7 222q-31 4 -47.5 23.5t-16.5 45t17.5 44.5t46.5 25q0 15 -5 107h-19q-31 0 -52 17.5t-21 43.5t21 43.5t52 17.5h22q15 72 73 72t71 -74q110 -2 147.5 -2t119.5 2q14 75 72 75t71 -72l22 -2q31 0 52 -17.5t21 -43.5t-21 -43.5t-52 -17.5h-19q-3 -68 -5 -106
q30 -6 47.5 -25t17.5 -45t-17 -45t-48 -23l7 -222q0 -108 -75.5 -108t-75.5 108l6 227l-139 3l-135 -3l7 -227q0 -108 -76 -108t-76 108zM258 453l134 -3q68 0 139 3q0 11 -5 114q-110 2 -134 2l-129 -3q0 -18 -2 -56z" />
    <glyph glyph-name="Itilde" unicode="&#x128;" horiz-adv-x="490" 
d="M125 756l122 -6l122 6q37 0 59.5 -18t22.5 -48.5t-22.5 -48.5t-59.5 -18l-47 3q-7 -148 -7 -251.5t7 -251.5q36 4 47 4q37 0 59.5 -18t22.5 -48.5t-22.5 -48.5t-59.5 -18l-122 6l-122 -7q-38 0 -60.5 18t-22.5 49t22.5 48.5t60.5 17.5l47 -4q7 148 7 252t-7 252
q-30 -3 -57.5 -3t-50 17.5t-22.5 48.5t22.5 49t60.5 18zM466 921q0 -34 -41.5 -70.5t-79.5 -36.5t-88.5 24.5t-66 24.5t-46 -27.5t-57.5 -27.5t-45 18.5t-18 45.5q0 39 43 72t106 33q32 0 86 -24t76 -24t46 22t42.5 22t30.5 -15t12 -37z" />
    <glyph glyph-name="itilde" unicode="&#x129;" horiz-adv-x="490" 
d="M125 756l122 -6l122 6q37 0 59.5 -18t22.5 -48.5t-22.5 -48.5t-59.5 -18l-47 3q-7 -148 -7 -251.5t7 -251.5q36 4 47 4q37 0 59.5 -18t22.5 -48.5t-22.5 -48.5t-59.5 -18l-122 6l-122 -7q-38 0 -60.5 18t-22.5 49t22.5 48.5t60.5 17.5l47 -4q7 148 7 252t-7 252
q-30 -3 -57.5 -3t-50 17.5t-22.5 48.5t22.5 49t60.5 18zM466 921q0 -34 -41.5 -70.5t-79.5 -36.5t-88.5 24.5t-66 24.5t-46 -27.5t-57.5 -27.5t-45 18.5t-18 45.5q0 39 43 72t106 33q32 0 86 -24t76 -24t46 22t42.5 22t30.5 -15t12 -37z" />
    <glyph glyph-name="Imacron" unicode="&#x12a;" horiz-adv-x="389" 
d="M31 874h331v-103h-331v103zM125 756l122 -6l122 6q37 0 59.5 -18t22.5 -48.5t-22.5 -48.5t-59.5 -18l-47 3q-7 -148 -7 -251.5t7 -251.5q36 4 47 4q37 0 59.5 -18t22.5 -48.5t-22.5 -48.5t-59.5 -18l-122 6l-122 -7q-38 0 -60.5 18t-22.5 49t22.5 48.5t60.5 17.5l47 -4
q7 148 7 252t-7 252q-30 -3 -57.5 -3t-50 17.5t-22.5 48.5t22.5 49t60.5 18z" />
    <glyph glyph-name="imacron" unicode="&#x12b;" horiz-adv-x="305" 
d="M-11 709h331v-103h-331v103zM125 756l122 -6l122 6q37 0 59.5 -18t22.5 -48.5t-22.5 -48.5t-59.5 -18l-47 3q-7 -148 -7 -251.5t7 -251.5q36 4 47 4q37 0 59.5 -18t22.5 -48.5t-22.5 -48.5t-59.5 -18l-122 6l-122 -7q-38 0 -60.5 18t-22.5 49t22.5 48.5t60.5 17.5l47 -4
q7 148 7 252t-7 252q-30 -3 -57.5 -3t-50 17.5t-22.5 48.5t22.5 49t60.5 18z" />
    <glyph glyph-name="Ibreve" unicode="&#x12c;" horiz-adv-x="389" 
d="M107 735q-77 0 -127 51t-50 95q0 30 17 44.5t39 14.5t39.5 -12.5t26.5 -27.5t23.5 -27.5t31.5 -12.5t31.5 12.5t23.5 27.5t26.5 27.5t39.5 12.5t39 -14.5t17 -44.5q0 -44 -50 -95t-127 -51zM125 756l122 -6l122 6q37 0 59.5 -18t22.5 -48.5t-22.5 -48.5t-59.5 -18l-47 3
q-7 -148 -7 -251.5t7 -251.5q36 4 47 4q37 0 59.5 -18t22.5 -48.5t-22.5 -48.5t-59.5 -18l-122 6l-122 -7q-38 0 -60.5 18t-22.5 49t22.5 48.5t60.5 17.5l47 -4q7 148 7 252t-7 252q-30 -3 -57.5 -3t-50 17.5t-22.5 48.5t22.5 49t60.5 18z" />
    <glyph glyph-name="ibreve" unicode="&#x12d;" horiz-adv-x="305" 
d="M64 570q-77 0 -127 51t-50 95q0 30 17 44.5t39 14.5t39.5 -12.5t26.5 -27.5t23.5 -27.5t31.5 -12.5t31.5 12.5t23.5 27.5t26.5 27.5t39.5 12.5t39 -14.5t17 -44.5q0 -44 -50 -95t-127 -51zM125 756l122 -6l122 6q37 0 59.5 -18t22.5 -48.5t-22.5 -48.5t-59.5 -18l-47 3
q-7 -148 -7 -251.5t7 -251.5q36 4 47 4q37 0 59.5 -18t22.5 -48.5t-22.5 -48.5t-59.5 -18l-122 6l-122 -7q-38 0 -60.5 18t-22.5 49t22.5 48.5t60.5 17.5l47 -4q7 148 7 252t-7 252q-30 -3 -57.5 -3t-50 17.5t-22.5 48.5t22.5 49t60.5 18z" />
    <glyph glyph-name="Iogonek" unicode="&#x12e;" horiz-adv-x="389" 
d="M420 -163q0 -31 -40 -59t-93 -28t-89 33t-36 87q0 84 75 143h157q-47 -24 -81.5 -64.5t-34.5 -57.5q0 -32 26 -32q8 0 32.5 10t43.5 10t29.5 -13.5t10.5 -28.5zM125 756l122 -6l122 6q37 0 59.5 -18t22.5 -48.5t-22.5 -48.5t-59.5 -18l-47 3q-7 -148 -7 -251.5t7 -251.5
q36 4 47 4q37 0 59.5 -18t22.5 -48.5t-22.5 -48.5t-59.5 -18l-122 6l-122 -7q-38 0 -60.5 18t-22.5 49t22.5 48.5t60.5 17.5l47 -4q7 148 7 252t-7 252q-30 -3 -57.5 -3t-50 17.5t-22.5 48.5t22.5 49t60.5 18z" />
    <glyph glyph-name="iogonek" unicode="&#x12f;" horiz-adv-x="305" 
d="M368 -163q0 -31 -40 -59t-93 -28t-89 33t-36 87q0 84 75 143h157q-47 -24 -81.5 -64.5t-34.5 -57.5q0 -32 26 -32q8 0 32.5 10t43.5 10t29.5 -13.5t10.5 -28.5zM125 756l122 -6l122 6q37 0 59.5 -18t22.5 -48.5t-22.5 -48.5t-59.5 -18l-47 3q-7 -148 -7 -251.5t7 -251.5
q36 4 47 4q37 0 59.5 -18t22.5 -48.5t-22.5 -48.5t-59.5 -18l-122 6l-122 -7q-38 0 -60.5 18t-22.5 49t22.5 48.5t60.5 17.5l47 -4q7 148 7 252t-7 252q-30 -3 -57.5 -3t-50 17.5t-22.5 48.5t22.5 49t60.5 18z" />
    <glyph glyph-name="Idot" unicode="&#x130;" horiz-adv-x="490" 
d="M125 756l122 -6l122 6q37 0 59.5 -18t22.5 -48.5t-22.5 -48.5t-59.5 -18l-47 3q-7 -148 -7 -251.5t7 -251.5q36 4 47 4q37 0 59.5 -18t22.5 -48.5t-22.5 -48.5t-59.5 -18l-122 6l-122 -7q-38 0 -60.5 18t-22.5 49t22.5 48.5t60.5 17.5l47 -4q7 148 7 252t-7 252
q-30 -3 -57.5 -3t-50 17.5t-22.5 48.5t22.5 49t60.5 18zM311 944.5q20 -22.5 20 -55.5t-23 -59.5t-57.5 -26.5t-54 23t-19.5 56t22.5 59t57 26t54.5 -22.5z" />
    <glyph glyph-name="dotlessi" unicode="&#x131;" horiz-adv-x="490" 
d="M125 756l122 -6l122 6q37 0 59.5 -18t22.5 -48.5t-22.5 -48.5t-59.5 -18l-47 3q-7 -148 -7 -251.5t7 -251.5q36 4 47 4q37 0 59.5 -18t22.5 -48.5t-22.5 -48.5t-59.5 -18l-122 6l-122 -7q-38 0 -60.5 18t-22.5 49t22.5 48.5t60.5 17.5l47 -4q7 148 7 252t-7 252
q-30 -3 -57.5 -3t-50 17.5t-22.5 48.5t22.5 49t60.5 18z" />
    <glyph glyph-name="IJ" unicode="&#x132;" horiz-adv-x="1045" 
d="M125 756l122 -6l122 6q37 0 59.5 -18t22.5 -48.5t-22.5 -48.5t-59.5 -18l-47 3q-7 -148 -7 -251.5t7 -251.5q36 4 47 4q37 0 59.5 -18t22.5 -48.5t-22.5 -48.5t-59.5 -18l-122 6l-122 -7q-38 0 -60.5 18t-22.5 49t22.5 48.5t60.5 17.5l47 -4q7 148 7 252t-7 252
q-30 -3 -57.5 -3t-50 17.5t-22.5 48.5t22.5 49t60.5 18zM778 750l139 6q37 0 59.5 -18t22.5 -49q0 -54 -64 -66q-1 -75 -1 -360q0 -75 -21 -131t-57 -87q-70 -60 -160.5 -60t-148.5 38.5t-58 79.5q0 28 18 45t43.5 17t63.5 -26.5t80 -26.5t73 41t31 130l-2 344l-138 -6
q-38 0 -60 18t-22 49t22.5 49.5t59.5 18.5z" />
    <glyph glyph-name="ij" unicode="&#x133;" horiz-adv-x="1045" 
d="M125 756l122 -6l122 6q37 0 59.5 -18t22.5 -48.5t-22.5 -48.5t-59.5 -18l-47 3q-7 -148 -7 -251.5t7 -251.5q36 4 47 4q37 0 59.5 -18t22.5 -48.5t-22.5 -48.5t-59.5 -18l-122 6l-122 -7q-38 0 -60.5 18t-22.5 49t22.5 48.5t60.5 17.5l47 -4q7 148 7 252t-7 252
q-30 -3 -57.5 -3t-50 17.5t-22.5 48.5t22.5 49t60.5 18zM778 750l139 6q37 0 59.5 -18t22.5 -49q0 -54 -64 -66q-1 -75 -1 -360q0 -75 -21 -131t-57 -87q-70 -60 -160.5 -60t-148.5 38.5t-58 79.5q0 28 18 45t43.5 17t63.5 -26.5t80 -26.5t73 41t31 130l-2 344l-138 -6
q-38 0 -60 18t-22 49t22.5 49.5t59.5 18.5z" />
    <glyph glyph-name="Jcircumflex" unicode="&#x134;" horiz-adv-x="599" 
d="M332 750l139 6q37 0 59.5 -18t22.5 -49q0 -54 -64 -66q-1 -75 -1 -360q0 -75 -21 -131t-57 -87q-70 -60 -160.5 -60t-148.5 38.5t-58 79.5q0 28 18 45t43.5 17t63.5 -26.5t80 -26.5t73 41t31 130l-2 344l-138 -6q-38 0 -60 18t-22 49t22.5 49.5t59.5 18.5zM309.5 1012.5
q15.5 7.5 37 7.5t36.5 -9t38.5 -36t34 -37.5t28 -26.5t23.5 -22q17 -17 17 -39t-17.5 -39.5t-42 -17.5t-50.5 24t-44.5 48t-26.5 24t-27 -23q-56 -72 -96 -72q-23 0 -40.5 17.5t-17.5 34.5t5.5 27.5t11.5 16.5t23.5 22t28.5 27t28 29.5t26 27.5t24.5 16.5z" />
    <glyph glyph-name="jcircumflex" unicode="&#x135;" horiz-adv-x="599" 
d="M332 750l139 6q37 0 59.5 -18t22.5 -49q0 -54 -64 -66q-1 -75 -1 -360q0 -75 -21 -131t-57 -87q-70 -60 -160.5 -60t-148.5 38.5t-58 79.5q0 28 18 45t43.5 17t63.5 -26.5t80 -26.5t73 41t31 130l-2 344l-138 -6q-38 0 -60 18t-22 49t22.5 49.5t59.5 18.5zM309.5 1012.5
q15.5 7.5 37 7.5t36.5 -9t38.5 -36t34 -37.5t28 -26.5t23.5 -22q17 -17 17 -39t-17.5 -39.5t-42 -17.5t-50.5 24t-44.5 48t-26.5 24t-27 -23q-56 -72 -96 -72q-23 0 -40.5 17.5t-17.5 34.5t5.5 27.5t11.5 16.5t23.5 22t28.5 27t28 29.5t26 27.5t24.5 16.5z" />
    <glyph glyph-name="Kcommaaccent" unicode="&#x136;" horiz-adv-x="701" 
d="M366 -115q0 -49 -53.5 -93t-89.5 -44q-23 0 -36 12.5t-13 29.5t20.5 47.5t23 35t9.5 21t11.5 24t13.5 17.5q16 19 47.5 19t49 -22t17.5 -47zM254 650q0 -15 -7 -183q34 2 45 2t51 -5q39 33 73 93t55 125q24 78 75 78q27 0 46.5 -18.5t19.5 -46.5q0 -59 -49 -152.5
t-110 -159.5q48 -101 107 -181t83 -92q6 -3 17.5 -4.5t16.5 -6t5 -18.5q0 -33 -24.5 -62t-61.5 -29t-67.5 24.5t-73 88.5t-129.5 216q-36 -6 -53.5 -6t-25.5 2l7 -216q0 -109 -76 -109t-76 109l8 281l-8 270q0 109 76 109t76 -109z" />
    <glyph glyph-name="kcedilla" unicode="&#x137;" horiz-adv-x="701" 
d="M366 -115q0 -49 -53.5 -93t-89.5 -44q-23 0 -36 12.5t-13 29.5t20.5 47.5t23 35t9.5 21t11.5 24t13.5 17.5q16 19 47.5 19t49 -22t17.5 -47zM254 650q0 -15 -7 -183q34 2 45 2t51 -5q39 33 73 93t55 125q24 78 75 78q27 0 46.5 -18.5t19.5 -46.5q0 -59 -49 -152.5
t-110 -159.5q48 -101 107 -181t83 -92q6 -3 17.5 -4.5t16.5 -6t5 -18.5q0 -33 -24.5 -62t-61.5 -29t-67.5 24.5t-73 88.5t-129.5 216q-36 -6 -53.5 -6t-25.5 2l7 -216q0 -109 -76 -109t-76 109l8 281l-8 270q0 109 76 109t76 -109z" />
    <glyph glyph-name="kgreenlandic" unicode="&#x138;" horiz-adv-x="701" 
d="M254 650q0 -15 -7 -183q34 2 45 2t51 -5q39 33 73 93t55 125q24 78 75 78q27 0 46.5 -18.5t19.5 -46.5q0 -59 -49 -152.5t-110 -159.5q48 -101 107 -181t83 -92q6 -3 17.5 -4.5t16.5 -6t5 -18.5q0 -33 -24.5 -62t-61.5 -29t-67.5 24.5t-73 88.5t-129.5 216
q-36 -6 -53.5 -6t-25.5 2l7 -216q0 -109 -76 -109t-76 109l8 281l-8 270q0 109 76 109t76 -109z" />
    <glyph glyph-name="Lacute" unicode="&#x139;" horiz-adv-x="564" 
d="M341 122l137 6q38 0 60.5 -17.5t22.5 -48.5t-22.5 -49.5t-60.5 -18.5l-137 6l-151 -6q-37 0 -61.5 24t-24.5 64l6 298l-8 271q0 109 76 109t76 -109l-8 -271q0 -51 7 -256q52 -2 88 -2zM232 842q0 -49 -52 -93t-88 -44q-23 0 -36 12.5t-13 29.5t20.5 47.5t23 35t9.5 21
t11.5 24t12.5 17.5q17 19 48.5 19t47.5 -21.5t16 -47.5z" />
    <glyph glyph-name="lacute" unicode="&#x13a;" horiz-adv-x="305" 
d="M341 122l137 6q38 0 60.5 -17.5t22.5 -48.5t-22.5 -49.5t-60.5 -18.5l-137 6l-151 -6q-37 0 -61.5 24t-24.5 64l6 298l-8 271q0 109 76 109t76 -109l-8 -271q0 -51 7 -256q52 -2 88 -2zM189 870q0 -49 -52 -93t-88 -44q-23 0 -36 12.5t-13 29.5t20.5 47.5t23 35t9.5 21
t11.5 24t12.5 17.5q17 19 48.5 19t47.5 -21.5t16 -47.5z" />
    <glyph glyph-name="uni013B" unicode="&#x13b;" horiz-adv-x="564" 
d="M207 -208q7 24 16.5 70t13.5 77h138v-10q-37 -82 -81 -150h-87v13zM341 122l137 6q38 0 60.5 -17.5t22.5 -48.5t-22.5 -49.5t-60.5 -18.5l-137 6l-151 -6q-37 0 -61.5 24t-24.5 64l6 298l-8 271q0 109 76 109t76 -109l-8 -271q0 -51 7 -256q52 -2 88 -2z" />
    <glyph glyph-name="uni013C" unicode="&#x13c;" horiz-adv-x="305" 
d="M48 -208q7 24 16.5 70t13.5 77h138v-10q-37 -82 -81 -150h-87v13zM341 122l137 6q38 0 60.5 -17.5t22.5 -48.5t-22.5 -49.5t-60.5 -18.5l-137 6l-151 -6q-37 0 -61.5 24t-24.5 64l6 298l-8 271q0 109 76 109t76 -109l-8 -271q0 -51 7 -256q52 -2 88 -2z" />
    <glyph glyph-name="Lcaron" unicode="&#x13d;" horiz-adv-x="564" 
d="M353 568q7 24 16.5 70t13.5 77h138v-10q-39 -86 -81 -150h-87v13zM341 122l137 6q38 0 60.5 -17.5t22.5 -48.5t-22.5 -49.5t-60.5 -18.5l-137 6l-151 -6q-37 0 -61.5 24t-24.5 64l6 298l-8 271q0 109 76 109t76 -109l-8 -271q0 -51 7 -256q52 -2 88 -2z" />
    <glyph glyph-name="lcaron" unicode="&#x13e;" horiz-adv-x="305" 
d="M272 613q7 24 16.5 70t13.5 77h138v-10q-39 -86 -81 -150h-87v13zM341 122l137 6q38 0 60.5 -17.5t22.5 -48.5t-22.5 -49.5t-60.5 -18.5l-137 6l-151 -6q-37 0 -61.5 24t-24.5 64l6 298l-8 271q0 109 76 109t76 -109l-8 -271q0 -51 7 -256q52 -2 88 -2z" />
    <glyph glyph-name="Ldot" unicode="&#x13f;" horiz-adv-x="595" 
d="M341 122l137 6q38 0 60.5 -17.5t22.5 -48.5t-22.5 -49.5t-60.5 -18.5l-137 6l-151 -6q-37 0 -61.5 24t-24.5 64l6 298l-8 271q0 109 76 109t76 -109l-8 -271q0 -51 7 -256q52 -2 88 -2zM461 442.5q20 -22.5 20 -55.5t-23 -59.5t-57.5 -26.5t-54 23t-19.5 56t22.5 59
t57 26t54.5 -22.5z" />
    <glyph glyph-name="ldot" unicode="&#x140;" horiz-adv-x="595" 
d="M341 122l137 6q38 0 60.5 -17.5t22.5 -48.5t-22.5 -49.5t-60.5 -18.5l-137 6l-151 -6q-37 0 -61.5 24t-24.5 64l6 298l-8 271q0 109 76 109t76 -109l-8 -271q0 -51 7 -256q52 -2 88 -2zM461 442.5q20 -22.5 20 -55.5t-23 -59.5t-57.5 -26.5t-54 23t-19.5 56t22.5 59
t57 26t54.5 -22.5z" />
    <glyph glyph-name="Lslash" unicode="&#x141;" horiz-adv-x="615" 
d="M358 122l137 6q38 0 60.5 -17.5t22.5 -48.5t-22.5 -49.5t-60.5 -18.5l-137 6l-151 -6q-37 0 -61.5 24t-24.5 64q0 20 5 218q-27 -23 -52.5 -23t-42.5 16t-17 35t8 34.5t24 30.5t28 25q39 32 51 38q-6 186 -6 195q0 109 76 109t76 -109q0 -47 -1 -70q18 16 27 23
q25 21 49.5 21t42.5 -17t18 -36.5t-7.5 -34t-24.5 -30t-31.5 -27t-40.5 -30.5t-40 -30q0 -91 7 -296q52 -2 88 -2z" />
    <glyph glyph-name="lslash" unicode="&#x142;" horiz-adv-x="615" 
d="M358 122l137 6q38 0 60.5 -17.5t22.5 -48.5t-22.5 -49.5t-60.5 -18.5l-137 6l-151 -6q-37 0 -61.5 24t-24.5 64q0 20 5 218q-27 -23 -52.5 -23t-42.5 16t-17 35t8 34.5t24 30.5t28 25q39 32 51 38q-6 186 -6 195q0 109 76 109t76 -109q0 -47 -1 -70q18 16 27 23
q25 21 49.5 21t42.5 -17t18 -36.5t-7.5 -34t-24.5 -30t-31.5 -27t-40.5 -30.5t-40 -30q0 -91 7 -296q52 -2 88 -2z" />
    <glyph glyph-name="Nacute" unicode="&#x143;" horiz-adv-x="765" 
d="M655 380l3 -300q0 -90 -75 -90q-44 0 -69 41l-262 439q-2 -24 -2 -80l7 -292q0 -108 -76 -108t-76 108l8 272q0 37 -4 135t-4 166q0 89 74 89q51 0 74 -40l267 -458l-1 118l-8 272q0 108 76 108t76 -108zM520 928q0 -49 -52 -93t-88 -44q-23 0 -36 12.5t-13 29.5
t20.5 47.5t23 35t9.5 21t11.5 24t12.5 17.5q17 19 48.5 19t47.5 -21.5t16 -47.5z" />
    <glyph glyph-name="nacute" unicode="&#x144;" horiz-adv-x="808" 
d="M540 160l5 268q0 92 -30 148t-88 56t-118 -72.5t-84 -167.5l6 -294q0 -108 -75 -108q-84 0 -84 127q0 100 26 271q0 47 -11 143t-11 140.5t20 68t56 23.5q73 0 73 -113q87 110 209.5 110t187.5 -78.5t65 -191.5l-6 -255q0 -95 12 -107q7 -7 21 -10t23 -9t9 -21
q0 -42 -28.5 -71t-66.5 -29q-63 0 -87 43.5t-24 128.5zM545 937q0 -49 -52 -93t-88 -44q-23 0 -36 12.5t-13 29.5t20.5 47.5t23 35t9.5 21t11.5 24t13.5 17.5q16 19 47.5 19t47.5 -21.5t16 -47.5z" />
    <glyph glyph-name="uni0145" unicode="&#x145;" horiz-adv-x="812" 
d="M292 -208q7 24 16.5 70t13.5 77h138v-10q-37 -82 -81 -150h-87v13zM655 380l3 -300q0 -90 -75 -90q-44 0 -69 41l-262 439q-2 -24 -2 -80l7 -292q0 -108 -76 -108t-76 108l8 272q0 37 -4 135t-4 166q0 89 74 89q51 0 74 -40l267 -458l-1 118l-8 272q0 108 76 108t76 -108
z" />
    <glyph glyph-name="uni0146" unicode="&#x146;" horiz-adv-x="657" 
d="M228 -208q7 24 16.5 70t13.5 77h138v-10q-37 -82 -81 -150h-87v13zM540 160l5 268q0 92 -30 148t-88 56t-118 -72.5t-84 -167.5l6 -294q0 -108 -75 -108q-84 0 -84 127q0 100 26 271q0 47 -11 143t-11 140.5t20 68t56 23.5q73 0 73 -113q87 110 209.5 110t187.5 -78.5
t65 -191.5l-6 -255q0 -95 12 -107q7 -7 21 -10t23 -9t9 -21q0 -42 -28.5 -71t-66.5 -29q-63 0 -87 43.5t-24 128.5z" />
    <glyph glyph-name="Ncaron" unicode="&#x147;" horiz-adv-x="812" 
d="M390.5 705.5q-15.5 -7.5 -34 -7.5t-34 7.5t-24.5 16.5t-26 27.5t-28 29.5t-28.5 27t-23.5 22q-17 17 -17 39t17.5 39.5t42 17.5t50.5 -23.5t44.5 -47.5t26.5 -24t26 24q56 72 97 72q23 0 40.5 -17.5t17.5 -34.5t-5.5 -27.5t-11.5 -16.5t-23.5 -22t-29 -27t-27.5 -30
t-25 -28t-24.5 -16.5zM655 380l3 -300q0 -90 -75 -90q-44 0 -69 41l-262 439q-2 -24 -2 -80l7 -292q0 -108 -76 -108t-76 108l8 272q0 37 -4 135t-4 166q0 89 74 89q51 0 74 -40l267 -458l-1 118l-8 272q0 108 76 108t76 -108z" />
    <glyph glyph-name="ncaron" unicode="&#x148;" horiz-adv-x="657" 
d="M312.5 540.5q-15.5 -7.5 -34 -7.5t-34 7.5t-24.5 16.5t-26 27.5t-28 29.5t-28.5 27t-23.5 22q-17 17 -17 39t17.5 39.5t42 17.5t50.5 -23.5t44.5 -47.5t26.5 -24t26 24q56 72 97 72q23 0 40.5 -17.5t17.5 -34.5t-5.5 -27.5t-11.5 -16.5t-23.5 -22t-29 -27t-27.5 -30
t-25 -28t-24.5 -16.5zM540 160l5 268q0 92 -30 148t-88 56t-118 -72.5t-84 -167.5l6 -294q0 -108 -75 -108q-84 0 -84 127q0 100 26 271q0 47 -11 143t-11 140.5t20 68t56 23.5q73 0 73 -113q87 110 209.5 110t187.5 -78.5t65 -191.5l-6 -255q0 -95 12 -107q7 -7 21 -10
t23 -9t9 -21q0 -42 -28.5 -71t-66.5 -29q-63 0 -87 43.5t-24 128.5z" />
    <glyph glyph-name="napostrophe" unicode="&#x149;" horiz-adv-x="778" 
d="M189 714l7 -11q-24 -96 -86 -234h-107q34 145 49 245h137zM662 160l5 268q0 92 -30 148t-88 56t-118 -72.5t-84 -167.5l6 -294q0 -108 -75 -108q-84 0 -84 127q0 100 26 271q0 47 -11 143t-11 140.5t20 68t56 23.5q73 0 73 -113q87 110 209.5 110t187.5 -78.5t65 -191.5
l-6 -255q0 -95 12 -107q7 -7 21 -10t23 -9t9 -21q0 -42 -28.5 -71t-66.5 -29q-63 0 -87 43.5t-24 128.5z" />
    <glyph glyph-name="Eng" unicode="&#x14a;" horiz-adv-x="812" 
d="M496 -210q-56 0 -96 11v118q45 -10 81 -10q56 0 81.5 22t28.5 71l-371 538h-4q9 -143 9 -204v-336h-135v714h191l310 -440h3q-7 139 -7 197v243h136v-714q0 -101 -59 -155.5t-168 -54.5z" />
    <glyph glyph-name="eng" unicode="&#x14b;" horiz-adv-x="657" 
d="M405 -240q-52 0 -90 12v117q29 -9 58 -9q60 0 60 83v367q0 107 -88 107q-62 0 -90 -41.5t-28 -138.5v-257h-149v546h114l20 -70h9q24 39 67.5 59.5t99.5 20.5q95 0 144.5 -51.5t49.5 -148.5v-415q0 -87 -46 -134t-131 -47z" />
    <glyph glyph-name="Omacron" unicode="&#x14c;" horiz-adv-x="795" 
d="M233 874h331v-103h-331v103zM559 191q59 80 59 185.5t-58.5 184t-148 78.5t-148 -78.5t-58.5 -184t59 -185.5t147.5 -80t147.5 80zM660.5 651.5q99.5 -113.5 99.5 -276t-100 -276.5t-248.5 -114t-248.5 114t-100 276.5t100.5 276t249 113.5t248 -113.5z" />
    <glyph glyph-name="omacron" unicode="&#x14d;" horiz-adv-x="619" 
d="M144 709h331v-103h-331v103zM559 191q59 80 59 185.5t-58.5 184t-148 78.5t-148 -78.5t-58.5 -184t59 -185.5t147.5 -80t147.5 80zM660.5 651.5q99.5 -113.5 99.5 -276t-100 -276.5t-248.5 -114t-248.5 114t-100 276.5t100.5 276t249 113.5t248 -113.5z" />
    <glyph glyph-name="Obreve" unicode="&#x14e;" horiz-adv-x="795" 
d="M309 735q-77 0 -127 51t-50 95q0 30 17 44.5t39 14.5t39.5 -12.5t26.5 -27.5t23.5 -27.5t31.5 -12.5t31.5 12.5t23.5 27.5t26.5 27.5t39.5 12.5t39 -14.5t17 -44.5q0 -44 -50 -95t-127 -51zM559 191q59 80 59 185.5t-58.5 184t-148 78.5t-148 -78.5t-58.5 -184t59 -185.5
t147.5 -80t147.5 80zM660.5 651.5q99.5 -113.5 99.5 -276t-100 -276.5t-248.5 -114t-248.5 114t-100 276.5t100.5 276t249 113.5t248 -113.5z" />
    <glyph glyph-name="obreve" unicode="&#x14f;" horiz-adv-x="619" 
d="M220 570q-77 0 -127 51t-50 95q0 30 17 44.5t39 14.5t39.5 -12.5t26.5 -27.5t23.5 -27.5t31.5 -12.5t31.5 12.5t23.5 27.5t26.5 27.5t39.5 12.5t39 -14.5t17 -44.5q0 -44 -50 -95t-127 -51zM559 191q59 80 59 185.5t-58.5 184t-148 78.5t-148 -78.5t-58.5 -184t59 -185.5
t147.5 -80t147.5 80zM660.5 651.5q99.5 -113.5 99.5 -276t-100 -276.5t-248.5 -114t-248.5 114t-100 276.5t100.5 276t249 113.5t248 -113.5z" />
    <glyph glyph-name="Ohungarumlaut" unicode="&#x150;" horiz-adv-x="795" 
d="M233 771v13q30 42 57.5 84.5t37.5 62.5h147v-10q-16 -26 -71.5 -75t-91.5 -75h-79zM427 771v13q68 94 95 147h147v-10q-12 -21 -61 -65.5t-102 -84.5h-79zM559 191q59 80 59 185.5t-58.5 184t-148 78.5t-148 -78.5t-58.5 -184t59 -185.5t147.5 -80t147.5 80zM660.5 651.5
q99.5 -113.5 99.5 -276t-100 -276.5t-248.5 -114t-248.5 114t-100 276.5t100.5 276t249 113.5t248 -113.5z" />
    <glyph glyph-name="ohungarumlaut" unicode="&#x151;" horiz-adv-x="619" 
d="M136 606v13q30 42 57.5 84.5t37.5 62.5h147v-10q-16 -26 -71.5 -75t-91.5 -75h-79zM330 606v13q68 94 95 147h147v-10q-12 -21 -61 -65.5t-102 -84.5h-79zM559 191q59 80 59 185.5t-58.5 184t-148 78.5t-148 -78.5t-58.5 -184t59 -185.5t147.5 -80t147.5 80zM660.5 651.5
q99.5 -113.5 99.5 -276t-100 -276.5t-248.5 -114t-248.5 114t-100 276.5t100.5 276t249 113.5t248 -113.5z" />
    <glyph glyph-name="OE" unicode="&#x152;" horiz-adv-x="982" 
d="M849 622l-139 6q-20 0 -72 -2q46 -67 63 -166q92 5 107 5q36 0 59 -18.5t23 -49t-23 -48t-62 -17.5t-98 3q-6 -87 -73 -216h58l157 6q38 0 60.5 -17.5t22.5 -48.5t-22.5 -49.5t-60.5 -18.5l-157 6l-152 -6q-21 0 -47 11q-43 -17 -101 -17q-141 0 -235.5 114t-94.5 276.5
t95.5 276t236.5 113.5q51 0 92 -16q19 7 43 7l163 -6l157 6q38 0 60.5 -18.5t22.5 -49.5t-22.5 -48.5t-60.5 -17.5zM517 192q50 80 50 184.5t-49.5 180t-127.5 75.5t-132 -75.5t-54 -180t54.5 -184.5t131.5 -80t127 80z" />
    <glyph glyph-name="oe" unicode="&#x153;" horiz-adv-x="1273" 
d="M547 191q59 80 59 185.5t-58.5 184t-148 78.5t-148 -78.5t-58.5 -184t59 -185.5t147.5 -80t147.5 80zM1144.5 700.5q74.5 -64.5 74.5 -154t-45 -146.5q-85 -104 -263 -104q-59 0 -137 13q15 -84 63 -141t110 -57q69 0 147 47q26 16 48 16t38 -15t16 -38q0 -39 -74 -87.5
t-166.5 -48.5t-161 43.5t-110.5 118.5q-48 -75 -122 -118.5t-163 -43.5q-148 0 -248 114t-100 276.5t100.5 276t248.5 113.5q92 0 167.5 -46t122.5 -125q98 171 275 171q105 0 179.5 -64.5zM1077 542q0 36 -29 66t-83 30q-71 0 -120.5 -60t-69.5 -144q60 -14 134.5 -14
t121 32t46.5 90z" />
    <glyph glyph-name="Racute" unicode="&#x154;" horiz-adv-x="699" 
d="M102 98l8 272q0 76 -6 226q-42 17 -42 58q0 28 30.5 50.5t75.5 35.5q90 25 156 25q149 0 226 -68.5t77 -167.5q0 -58 -36 -114.5t-96 -91.5q100 -199 146 -214q6 -2 14 -4.5t10 -3.5t6 -2.5t5 -4.5q1 -7 1 -16q0 -38 -27.5 -63.5t-61.5 -25.5q-54 0 -105 69.5t-120 221.5
q-26 -2 -57.5 -2t-59.5 6q8 -136 8 -186q0 -108 -76 -108t-76 108zM246 419q33 10 75.5 10t86.5 -13q27 11 52 42t25 65q0 53 -40 84t-116 31q-34 0 -78 -12q-5 -185 -5 -207zM473 939q0 -49 -52 -93t-88 -44q-23 0 -36 12.5t-13 29.5t20.5 47.5t23 35t9.5 21t11.5 24
t13.5 17.5q16 19 47.5 19t47.5 -21.5t16 -47.5z" />
    <glyph glyph-name="racute" unicode="&#x155;" horiz-adv-x="454" 
d="M223 352l8 -256q0 -108 -75 -108q-84 0 -84 127q0 90 26 271q0 47 -11 143t-11 140.5t20 68t55.5 23.5t55 -27t19.5 -75q31 47 77.5 76t105.5 29t96 -30t37 -65.5t-22 -57.5t-49 -22t-55.5 23.5t-38.5 23.5q-35 0 -87 -95.5t-67 -188.5zM267 677q0 -49 -52 -93t-88 -44
q-23 0 -36 12.5t-13 29.5t20.5 47.5t23 35t9.5 21t11.5 24t12.5 17.5q17 19 48.5 19t47.5 -21.5t16 -47.5z" />
    <glyph glyph-name="Rcommaaccent" unicode="&#x156;" horiz-adv-x="699" 
d="M102 98l8 272q0 76 -6 226q-42 17 -42 58q0 28 30.5 50.5t75.5 35.5q90 25 156 25q149 0 226 -68.5t77 -167.5q0 -58 -36 -114.5t-96 -91.5q100 -199 146 -214q6 -2 14 -4.5t10 -3.5t6 -2.5t5 -4.5q1 -7 1 -16q0 -38 -27.5 -63.5t-61.5 -25.5q-54 0 -105 69.5t-120 221.5
q-26 -2 -57.5 -2t-59.5 6q8 -136 8 -186q0 -108 -76 -108t-76 108zM246 419q33 10 75.5 10t86.5 -13q27 11 52 42t25 65q0 53 -40 84t-116 31q-34 0 -78 -12q-5 -185 -5 -207zM364 -115q0 -49 -53.5 -93t-89.5 -44q-23 0 -36 12.5t-13 29.5t20.5 47.5t23 35t9.5 21t11.5 24
t13.5 17.5q16 19 47.5 19t49 -22t17.5 -47z" />
    <glyph glyph-name="rcommaaccent" unicode="&#x157;" horiz-adv-x="565" 
d="M223 352l8 -256q0 -108 -75 -108q-84 0 -84 127q0 90 26 271q0 47 -11 143t-11 140.5t20 68t55.5 23.5t55 -27t19.5 -75q31 47 77.5 76t105.5 29t96 -30t37 -65.5t-22 -57.5t-49 -22t-55.5 23.5t-38.5 23.5q-35 0 -87 -95.5t-67 -188.5zM208 -115q0 -49 -53.5 -93
t-89.5 -44q-23 0 -36 12.5t-13 29.5t20.5 47.5t23 35t9.5 21t11.5 24t13.5 17.5q16 19 47.5 19t49 -22t17.5 -47z" />
    <glyph glyph-name="Rcaron" unicode="&#x158;" horiz-adv-x="699" 
d="M102 98l8 272q0 76 -6 226q-42 17 -42 58q0 28 30.5 50.5t75.5 35.5q90 25 156 25q149 0 226 -68.5t77 -167.5q0 -58 -36 -114.5t-96 -91.5q100 -199 146 -214q6 -2 14 -4.5t10 -3.5t6 -2.5t5 -4.5q1 -7 1 -16q0 -38 -27.5 -63.5t-61.5 -25.5q-54 0 -105 69.5t-120 221.5
q-26 -2 -57.5 -2t-59.5 6q8 -136 8 -186q0 -108 -76 -108t-76 108zM246 419q33 10 75.5 10t86.5 -13q27 11 52 42t25 65q0 53 -40 84t-116 31q-34 0 -78 -12q-5 -185 -5 -207zM362.5 810.5q-15.5 -7.5 -34 -7.5t-34 7.5t-24.5 16.5t-26 27.5t-28 29.5t-28.5 27t-23.5 22
q-17 17 -17 39t17.5 39.5t42 17.5t50.5 -23.5t44.5 -47.5t26.5 -24t26 24q56 72 97 72q23 0 40.5 -17.5t17.5 -34.5t-5.5 -27.5t-11.5 -16.5t-23.5 -22t-29 -27t-27.5 -30t-25 -28t-24.5 -16.5z" />
    <glyph glyph-name="rcaron" unicode="&#x159;" horiz-adv-x="565" 
d="M223 352l8 -256q0 -108 -75 -108q-84 0 -84 127q0 90 26 271q0 47 -11 143t-11 140.5t20 68t55.5 23.5t55 -27t19.5 -75q31 47 77.5 76t105.5 29t96 -30t37 -65.5t-22 -57.5t-49 -22t-55.5 23.5t-38.5 23.5q-35 0 -87 -95.5t-67 -188.5zM342.5 811.5q-15.5 -7.5 -34 -7.5
t-34 7.5t-24.5 16.5t-26 27.5t-28 29.5t-28.5 27t-23.5 22q-17 17 -17 39t17.5 39.5t42 17.5t50.5 -24t44.5 -47.5t26.5 -23.5t26 24q56 72 97 72q23 0 40.5 -17.5t17.5 -34.5t-5.5 -27.5t-11.5 -16.5t-23.5 -22t-29 -27t-27.5 -30t-25 -28t-24.5 -16.5z" />
    <glyph glyph-name="Sacute" unicode="&#x15a;" horiz-adv-x="550" 
d="M559 213q0 -97 -73 -162.5t-189 -65.5q-93 0 -170 44.5t-77 93.5q0 27 18.5 44.5t46 17.5t54 -18.5t58 -37t77 -18.5t80 27.5t34.5 74.5q0 50 -86 101q-17 10 -55.5 32t-58.5 34t-52.5 36.5t-49.5 45.5q-42 52 -42 112q0 78 67.5 134.5t159 56.5t156.5 -35t65 -79
q0 -29 -18 -45t-45 -16t-70 24.5t-80.5 24.5t-65 -18.5t-27.5 -46.5q0 -30 38 -58q30 -22 78.5 -50t69.5 -40.5t56.5 -39.5t53.5 -49t32.5 -55t14.5 -69zM302 842q0 -49 -52 -93t-88 -44q-23 0 -36 12.5t-13 29.5t20.5 47.5t23 35t9.5 21t11.5 24t12.5 17.5q17 19 48.5 19
t47.5 -21.5t16 -47.5z" />
    <glyph glyph-name="sacute" unicode="&#x15b;" horiz-adv-x="497" 
d="M559 213q0 -97 -73 -162.5t-189 -65.5q-93 0 -170 44.5t-77 93.5q0 27 18.5 44.5t46 17.5t54 -18.5t58 -37t77 -18.5t80 27.5t34.5 74.5q0 50 -86 101q-17 10 -55.5 32t-58.5 34t-52.5 36.5t-49.5 45.5q-42 52 -42 112q0 78 67.5 134.5t159 56.5t156.5 -35t65 -79
q0 -29 -18 -45t-45 -16t-70 24.5t-80.5 24.5t-65 -18.5t-27.5 -46.5q0 -30 38 -58q30 -22 78.5 -50t69.5 -40.5t56.5 -39.5t53.5 -49t32.5 -55t14.5 -69zM269 677q0 -49 -52 -93t-88 -44q-23 0 -36 12.5t-13 29.5t20.5 47.5t23 35t9.5 21t11.5 24t12.5 17.5q17 19 48.5 19
t47.5 -21.5t16 -47.5z" />
    <glyph glyph-name="Scircumflex" unicode="&#x15c;" horiz-adv-x="550" 
d="M195.5 917.5q15.5 7.5 37 7.5t36.5 -9t38.5 -36t34 -37.5t28 -26.5t23.5 -22q17 -17 17 -39t-17.5 -39.5t-42 -17.5t-50.5 24t-44.5 48t-26.5 24t-26 -23q-57 -72 -97 -72q-23 0 -40.5 17.5t-17.5 34.5t5.5 27.5t11.5 16.5t23.5 22t28.5 27t28 29.5t26 27.5t24.5 16.5z
M559 213q0 -97 -73 -162.5t-189 -65.5q-93 0 -170 44.5t-77 93.5q0 27 18.5 44.5t46 17.5t54 -18.5t58 -37t77 -18.5t80 27.5t34.5 74.5q0 50 -86 101q-17 10 -55.5 32t-58.5 34t-52.5 36.5t-49.5 45.5q-42 52 -42 112q0 78 67.5 134.5t159 56.5t156.5 -35t65 -79
q0 -29 -18 -45t-45 -16t-70 24.5t-80.5 24.5t-65 -18.5t-27.5 -46.5q0 -30 38 -58q30 -22 78.5 -50t69.5 -40.5t56.5 -39.5t53.5 -49t32.5 -55t14.5 -69z" />
    <glyph glyph-name="scircumflex" unicode="&#x15d;" horiz-adv-x="497" 
d="M161.5 752.5q15.5 7.5 37 7.5t36.5 -9t38.5 -36t34 -37.5t28 -26.5t23.5 -22q17 -17 17 -39t-17.5 -39.5t-42 -17.5t-50.5 24t-44.5 48t-26.5 24t-26 -23q-57 -72 -97 -72q-23 0 -40.5 17.5t-17.5 34.5t5.5 27.5t11.5 16.5t23.5 22t28.5 27t28 29.5t26 27.5t24.5 16.5z
M559 213q0 -97 -73 -162.5t-189 -65.5q-93 0 -170 44.5t-77 93.5q0 27 18.5 44.5t46 17.5t54 -18.5t58 -37t77 -18.5t80 27.5t34.5 74.5q0 50 -86 101q-17 10 -55.5 32t-58.5 34t-52.5 36.5t-49.5 45.5q-42 52 -42 112q0 78 67.5 134.5t159 56.5t156.5 -35t65 -79
q0 -29 -18 -45t-45 -16t-70 24.5t-80.5 24.5t-65 -18.5t-27.5 -46.5q0 -30 38 -58q30 -22 78.5 -50t69.5 -40.5t56.5 -39.5t53.5 -49t32.5 -55t14.5 -69z" />
    <glyph glyph-name="Scedilla" unicode="&#x15e;" horiz-adv-x="550" 
d="M559 213q0 -97 -73 -162.5t-189 -65.5q-93 0 -170 44.5t-77 93.5q0 27 18.5 44.5t46 17.5t54 -18.5t58 -37t77 -18.5t80 27.5t34.5 74.5q0 50 -86 101q-17 10 -55.5 32t-58.5 34t-52.5 36.5t-49.5 45.5q-42 52 -42 112q0 78 67.5 134.5t159 56.5t156.5 -35t65 -79
q0 -29 -18 -45t-45 -16t-70 24.5t-80.5 24.5t-65 -18.5t-27.5 -46.5q0 -30 38 -58q30 -22 78.5 -50t69.5 -40.5t56.5 -39.5t53.5 -49t32.5 -55t14.5 -69zM275 20h106q3 -62 29 -90q40 -44 40 -82.5t-36.5 -68t-89 -29.5t-90 30t-37.5 59q0 17 10.5 28.5t28 11.5t39.5 -12.5
t35 -12.5q23 0 23 19q0 9 -19 28t-29 38t-10 81z" />
    <glyph glyph-name="scedilla" unicode="&#x15f;" horiz-adv-x="497" 
d="M559 213q0 -97 -73 -162.5t-189 -65.5q-93 0 -170 44.5t-77 93.5q0 27 18.5 44.5t46 17.5t54 -18.5t58 -37t77 -18.5t80 27.5t34.5 74.5q0 50 -86 101q-17 10 -55.5 32t-58.5 34t-52.5 36.5t-49.5 45.5q-42 52 -42 112q0 78 67.5 134.5t159 56.5t156.5 -35t65 -79
q0 -29 -18 -45t-45 -16t-70 24.5t-80.5 24.5t-65 -18.5t-27.5 -46.5q0 -30 38 -58q30 -22 78.5 -50t69.5 -40.5t56.5 -39.5t53.5 -49t32.5 -55t14.5 -69zM249 20h106q3 -62 29 -90q40 -44 40 -82.5t-36.5 -68t-89 -29.5t-90 30t-37.5 59q0 17 10.5 28.5t28 11.5t39.5 -12.5
t35 -12.5q23 0 23 19q0 9 -19 28t-29 38t-10 81z" />
    <glyph glyph-name="Scaron" unicode="&#x160;" horiz-adv-x="550" 
d="M263.5 705.5q-15.5 -7.5 -34 -7.5t-34 7.5t-24.5 16.5t-26 27.5t-28 29.5t-28.5 27t-23.5 22q-17 17 -17 39t17.5 39.5t42 17.5t50.5 -23.5t44.5 -47.5t26.5 -24t26 24q56 72 97 72q23 0 40.5 -17.5t17.5 -34.5t-5.5 -27.5t-11.5 -16.5t-23.5 -22t-29 -27t-27.5 -30
t-25 -28t-24.5 -16.5zM559 213q0 -97 -73 -162.5t-189 -65.5q-93 0 -170 44.5t-77 93.5q0 27 18.5 44.5t46 17.5t54 -18.5t58 -37t77 -18.5t80 27.5t34.5 74.5q0 50 -86 101q-17 10 -55.5 32t-58.5 34t-52.5 36.5t-49.5 45.5q-42 52 -42 112q0 78 67.5 134.5t159 56.5
t156.5 -35t65 -79q0 -29 -18 -45t-45 -16t-70 24.5t-80.5 24.5t-65 -18.5t-27.5 -46.5q0 -30 38 -58q30 -22 78.5 -50t69.5 -40.5t56.5 -39.5t53.5 -49t32.5 -55t14.5 -69z" />
    <glyph glyph-name="scaron" unicode="&#x161;" horiz-adv-x="497" 
d="M233.5 540.5q-15.5 -7.5 -34 -7.5t-34 7.5t-24.5 16.5t-26 27.5t-28 29.5t-28.5 27t-23.5 22q-17 17 -17 39t17.5 39.5t42 17.5t50.5 -23.5t44.5 -47.5t26.5 -24t26 24q56 72 97 72q23 0 40.5 -17.5t17.5 -34.5t-5.5 -27.5t-11.5 -16.5t-23.5 -22t-29 -27t-27.5 -30
t-25 -28t-24.5 -16.5zM559 213q0 -97 -73 -162.5t-189 -65.5q-93 0 -170 44.5t-77 93.5q0 27 18.5 44.5t46 17.5t54 -18.5t58 -37t77 -18.5t80 27.5t34.5 74.5q0 50 -86 101q-17 10 -55.5 32t-58.5 34t-52.5 36.5t-49.5 45.5q-42 52 -42 112q0 78 67.5 134.5t159 56.5
t156.5 -35t65 -79q0 -29 -18 -45t-45 -16t-70 24.5t-80.5 24.5t-65 -18.5t-27.5 -46.5q0 -30 38 -58q30 -22 78.5 -50t69.5 -40.5t56.5 -39.5t53.5 -49t32.5 -55t14.5 -69z" />
    <glyph glyph-name="uni0162" unicode="&#x162;" horiz-adv-x="579" 
d="M377 370l8 -272q0 -108 -76 -108t-76 108l8 272q0 82 -7 258l-119 -6q-38 0 -60.5 18t-22.5 49t22.5 49t60.5 18l190 -6l190 6q38 0 60.5 -18t22.5 -49t-22.5 -49t-60.5 -18l-113 6q-5 -132 -5 -258zM303 20h106q3 -62 29 -90q40 -44 40 -82.5t-36.5 -68t-89 -29.5
t-90 30t-37.5 59q0 17 10.5 28.5t28 11.5t39.5 -12.5t35 -12.5q23 0 23 19q0 9 -19 28t-29 38t-10 81z" />
    <glyph glyph-name="uni0163" unicode="&#x163;" horiz-adv-x="434" 
d="M115 756l190 -6l190 6q38 0 60.5 -18t22.5 -49t-22.5 -49t-60.5 -18l-113 6q-5 -132 -5 -258l8 -272q0 -108 -76 -108t-76 108l8 272q0 82 -7 258l-119 -6q-38 0 -60.5 18t-22.5 49t22.5 49t60.5 18zM259 20h106q3 -62 29 -90q40 -44 40 -82.5t-36.5 -68t-89 -29.5
t-90 30t-37.5 59q0 17 10.5 28.5t28 11.5t39.5 -12.5t35 -12.5q23 0 23 19q0 9 -19 28t-29 38t-10 81z" />
    <glyph glyph-name="Tcaron" unicode="&#x164;" horiz-adv-x="579" 
d="M261.5 705.5q-15.5 -7.5 -34 -7.5t-34 7.5t-24.5 16.5t-26 27.5t-28 29.5t-28.5 27t-23.5 22q-17 17 -17 39t17.5 39.5t42 17.5t50.5 -23.5t44.5 -47.5t26.5 -24t26 24q56 72 97 72q23 0 40.5 -17.5t17.5 -34.5t-5.5 -27.5t-11.5 -16.5t-23.5 -22t-29 -27t-27.5 -30
t-25 -28t-24.5 -16.5zM377 370l8 -272q0 -108 -76 -108t-76 108l8 272q0 82 -7 258l-119 -6q-38 0 -60.5 18t-22.5 49t22.5 49t60.5 18l190 -6l190 6q38 0 60.5 -18t22.5 -49t-22.5 -49t-60.5 -18l-113 6q-5 -132 -5 -258z" />
    <glyph glyph-name="tcaron" unicode="&#x165;" horiz-adv-x="434" 
d="M303 623q7 24 16.5 70t13.5 77h138v-10q-39 -86 -81 -150h-87v13zM115 756l190 -6l190 6q38 0 60.5 -18t22.5 -49t-22.5 -49t-60.5 -18l-113 6q-5 -132 -5 -258l8 -272q0 -108 -76 -108t-76 108l8 272q0 82 -7 258l-119 -6q-38 0 -60.5 18t-22.5 49t22.5 49t60.5 18z" />
    <glyph glyph-name="Tbar" unicode="&#x166;" horiz-adv-x="579" 
d="M365 0h-151v291h-121v124h121v173h-194v126h539v-126h-194v-173h121v-124h-121v-291z" />
    <glyph glyph-name="tbar" unicode="&#x167;" horiz-adv-x="434" 
d="M308 109q39 0 94 17v-111q-25 -12 -61.5 -18.5t-72.5 -6.5q-91 0 -132.5 44.5t-41.5 136.5v72h-62v97h62v94h-71v63l82 50l43 115h95v-116h153v-112h-153v-94h136v-97h-136v-72q0 -32 18 -47t47 -15z" />
    <glyph glyph-name="Utilde" unicode="&#x168;" horiz-adv-x="755" 
d="M593 834q0 -34 -41.5 -70.5t-79.5 -36.5t-88.5 24.5t-66 24.5t-46 -27.5t-57.5 -27.5t-45 18.5t-18 45.5q0 39 43 72t106 33q32 0 86 -24t76 -24t46 22t42.5 22t30.5 -15t12 -37zM656 652l-10 -396q0 -112 -71.5 -191.5t-203.5 -79.5t-203.5 79t-71.5 191l-10 396
q0 109 76 109t76 -109l-7 -321q0 -159 70 -202q29 -17 70.5 -17t70 17.5t42.5 49.5q27 60 27 153l-7 321q0 109 76 109t76 -109z" />
    <glyph glyph-name="utilde" unicode="&#x169;" horiz-adv-x="657" 
d="M541 669q0 -34 -41.5 -70.5t-79.5 -36.5t-88.5 24.5t-66 24.5t-46 -27.5t-57.5 -27.5t-45 18.5t-18 45.5q0 39 43 72t106 33q32 0 86 -24t76 -24t46 22t42.5 22t30.5 -15t12 -37zM549 359l-6 294q0 108 75 108q84 0 84 -127q0 -100 -26 -271q0 -54 11 -139t30 -98
q18 -12 26 -15t11 -5q5 -5 5 -20q0 -38 -26 -67t-67.5 -29t-68.5 35.5t-37 90.5q-32 -52 -93 -88.5t-132 -36.5q-118 0 -183 78.5t-65 191.5l6 255q0 41 -10.5 88.5t-10.5 80t22.5 54t58.5 21.5q83 0 83 -126l-7 -311q0 -92 30 -148t88 -56t118 72.5t84 167.5z" />
    <glyph glyph-name="Umacron" unicode="&#x16a;" horiz-adv-x="755" 
d="M213 874h331v-103h-331v103zM656 652l-10 -396q0 -112 -71.5 -191.5t-203.5 -79.5t-203.5 79t-71.5 191l-10 396q0 109 76 109t76 -109l-7 -321q0 -159 70 -202q29 -17 70.5 -17t70 17.5t42.5 49.5q27 60 27 153l-7 321q0 109 76 109t76 -109z" />
    <glyph glyph-name="umacron" unicode="&#x16b;" horiz-adv-x="657" 
d="M161 709h331v-103h-331v103zM549 359l-6 294q0 108 75 108q84 0 84 -127q0 -100 -26 -271q0 -54 11 -139t30 -98q18 -12 26 -15t11 -5q5 -5 5 -20q0 -38 -26 -67t-67.5 -29t-68.5 35.5t-37 90.5q-32 -52 -93 -88.5t-132 -36.5q-118 0 -183 78.5t-65 191.5l6 255
q0 41 -10.5 88.5t-10.5 80t22.5 54t58.5 21.5q83 0 83 -126l-7 -311q0 -92 30 -148t88 -56t118 72.5t84 167.5z" />
    <glyph glyph-name="Ubreve" unicode="&#x16c;" horiz-adv-x="755" 
d="M289 735q-77 0 -127 51t-50 95q0 30 17 44.5t39 14.5t39.5 -12.5t26.5 -27.5t23.5 -27.5t31.5 -12.5t31.5 12.5t23.5 27.5t26.5 27.5t39.5 12.5t39 -14.5t17 -44.5q0 -44 -50 -95t-127 -51zM656 652l-10 -396q0 -112 -71.5 -191.5t-203.5 -79.5t-203.5 79t-71.5 191
l-10 396q0 109 76 109t76 -109l-7 -321q0 -159 70 -202q29 -17 70.5 -17t70 17.5t42.5 49.5q27 60 27 153l-7 321q0 109 76 109t76 -109z" />
    <glyph glyph-name="ubreve" unicode="&#x16d;" horiz-adv-x="657" 
d="M238 570q-77 0 -127 51t-50 95q0 30 17 44.5t39 14.5t39.5 -12.5t26.5 -27.5t23.5 -27.5t31.5 -12.5t31.5 12.5t23.5 27.5t26.5 27.5t39.5 12.5t39 -14.5t17 -44.5q0 -44 -50 -95t-127 -51zM549 359l-6 294q0 108 75 108q84 0 84 -127q0 -100 -26 -271q0 -54 11 -139
t30 -98q18 -12 26 -15t11 -5q5 -5 5 -20q0 -38 -26 -67t-67.5 -29t-68.5 35.5t-37 90.5q-32 -52 -93 -88.5t-132 -36.5q-118 0 -183 78.5t-65 191.5l6 255q0 41 -10.5 88.5t-10.5 80t22.5 54t58.5 21.5q83 0 83 -126l-7 -311q0 -92 30 -148t88 -56t118 72.5t84 167.5z" />
    <glyph glyph-name="Uring" unicode="&#x16e;" horiz-adv-x="755" 
d="M278.5 901.5q30.5 -29.5 30.5 -72t-29.5 -71t-77.5 -28.5t-77.5 28.5t-29.5 71t30.5 72t76.5 29.5t76.5 -29.5zM233 829q0 12 -8.5 21t-22.5 9t-23 -9t-9 -21t9 -21t23 -9t22.5 9t8.5 21zM656 652l-10 -396q0 -112 -71.5 -191.5t-203.5 -79.5t-203.5 79t-71.5 191
l-10 396q0 109 76 109t76 -109l-7 -321q0 -159 70 -202q29 -17 70.5 -17t70 17.5t42.5 49.5q27 60 27 153l-7 321q0 109 76 109t76 -109z" />
    <glyph glyph-name="uring" unicode="&#x16f;" horiz-adv-x="657" 
d="M226.5 736.5q30.5 -29.5 30.5 -72t-29.5 -71t-77.5 -28.5t-77.5 28.5t-29.5 71t30.5 72t76.5 29.5t76.5 -29.5zM181 664q0 12 -8.5 21t-22.5 9t-23 -9t-9 -21t9 -21t23 -9t22.5 9t8.5 21zM549 359l-6 294q0 108 75 108q84 0 84 -127q0 -100 -26 -271q0 -54 11 -139
t30 -98q18 -12 26 -15t11 -5q5 -5 5 -20q0 -38 -26 -67t-67.5 -29t-68.5 35.5t-37 90.5q-32 -52 -93 -88.5t-132 -36.5q-118 0 -183 78.5t-65 191.5l6 255q0 41 -10.5 88.5t-10.5 80t22.5 54t58.5 21.5q83 0 83 -126l-7 -311q0 -92 30 -148t88 -56t118 72.5t84 167.5z" />
    <glyph glyph-name="Uhungarumlaut" unicode="&#x170;" horiz-adv-x="755" 
d="M215 771v13q30 42 57.5 84.5t37.5 62.5h147v-10q-16 -26 -71.5 -75t-91.5 -75h-79zM409 771v13q68 94 95 147h147v-10q-12 -21 -61 -65.5t-102 -84.5h-79zM656 652l-10 -396q0 -112 -71.5 -191.5t-203.5 -79.5t-203.5 79t-71.5 191l-10 396q0 109 76 109t76 -109l-7 -321
q0 -159 70 -202q29 -17 70.5 -17t70 17.5t42.5 49.5q27 60 27 153l-7 321q0 109 76 109t76 -109z" />
    <glyph glyph-name="uhungarumlaut" unicode="&#x171;" horiz-adv-x="657" 
d="M168 606v13q30 42 57.5 84.5t37.5 62.5h147v-10q-16 -26 -71.5 -75t-91.5 -75h-79zM362 606v13q68 94 95 147h147v-10q-12 -21 -61 -65.5t-102 -84.5h-79zM549 359l-6 294q0 108 75 108q84 0 84 -127q0 -100 -26 -271q0 -54 11 -139t30 -98q18 -12 26 -15t11 -5
q5 -5 5 -20q0 -38 -26 -67t-67.5 -29t-68.5 35.5t-37 90.5q-32 -52 -93 -88.5t-132 -36.5q-118 0 -183 78.5t-65 191.5l6 255q0 41 -10.5 88.5t-10.5 80t22.5 54t58.5 21.5q83 0 83 -126l-7 -311q0 -92 30 -148t88 -56t118 72.5t84 167.5z" />
    <glyph glyph-name="Uogonek" unicode="&#x172;" horiz-adv-x="755" 
d="M612 -163q0 -31 -40 -59t-93 -28t-89 33t-36 87q0 84 75 143h157q-47 -24 -81.5 -64.5t-34.5 -57.5q0 -32 26 -32q8 0 32.5 10t43.5 10t29.5 -13.5t10.5 -28.5zM656 652l-10 -396q0 -112 -71.5 -191.5t-203.5 -79.5t-203.5 79t-71.5 191l-10 396q0 109 76 109t76 -109
l-7 -321q0 -159 70 -202q29 -17 70.5 -17t70 17.5t42.5 49.5q27 60 27 153l-7 321q0 109 76 109t76 -109z" />
    <glyph glyph-name="uogonek" unicode="&#x173;" horiz-adv-x="657" 
d="M698 -163q0 -31 -40 -59t-93 -28t-89 33t-36 87q0 84 75 143h157q-47 -24 -81.5 -64.5t-34.5 -57.5q0 -32 26 -32q8 0 32.5 10t43.5 10t29.5 -13.5t10.5 -28.5zM549 359l-6 294q0 108 75 108q84 0 84 -127q0 -100 -26 -271q0 -54 11 -139t30 -98q18 -12 26 -15t11 -5
q5 -5 5 -20q0 -38 -26 -67t-67.5 -29t-68.5 35.5t-37 90.5q-32 -52 -93 -88.5t-132 -36.5q-118 0 -183 78.5t-65 191.5l6 255q0 41 -10.5 88.5t-10.5 80t22.5 54t58.5 21.5q83 0 83 -126l-7 -311q0 -92 30 -148t88 -56t118 72.5t84 167.5z" />
    <glyph glyph-name="Wcircumflex" unicode="&#x174;" horiz-adv-x="966" 
d="M386.5 917.5q15.5 7.5 37 7.5t36.5 -9t38.5 -36t34 -37.5t28 -26.5t23.5 -22q17 -17 17 -39t-17.5 -39.5t-42 -17.5t-50.5 24t-44.5 48t-26.5 24t-26 -23q-57 -72 -97 -72q-23 0 -40.5 17.5t-17.5 34.5t5.5 27.5t11.5 16.5t23.5 22t28.5 27t28 29.5t26 27.5t24.5 16.5z
M720 50q-12 -31 -30.5 -45.5t-50.5 -14.5q-58 0 -83 73q-13 37 -30 104q-39 152 -44.5 152t-22.5 -60.5t-22 -78.5q-17 -65 -36 -127.5t-81 -62.5t-81 57q-13 28 -71 211.5t-81 250t-33 94.5q-22 62 -22 92.5t19 47.5t48 17q54 0 76 -71q21 -73 71 -233q76 -242 80 -242
q8 0 56 188l16 63q23 94 81 94q37 0 57 -23.5t32 -70.5q69 -249 77 -249q10 0 136 466q22 78 67 78q34 0 52 -20.5t18 -41.5t-6 -46.5t-13.5 -48t-23.5 -70t-31.5 -96.5t-43.5 -136q-58 -184 -80 -251z" />
    <glyph glyph-name="wcircumflex" unicode="&#x175;" horiz-adv-x="855" 
d="M331.5 752.5q15.5 7.5 37 7.5t36.5 -9t38.5 -36t34 -37.5t28 -26.5t23.5 -22q17 -17 17 -39t-17.5 -39.5t-42 -17.5t-50.5 24t-44.5 48t-26.5 24t-26 -23q-57 -72 -97 -72q-23 0 -40.5 17.5t-17.5 34.5t5.5 27.5t11.5 16.5t23.5 22t28.5 27t28 29.5t26 27.5t24.5 16.5z
M720 50q-12 -31 -30.5 -45.5t-50.5 -14.5q-58 0 -83 73q-13 37 -30 104q-39 152 -44.5 152t-22.5 -60.5t-22 -78.5q-17 -65 -36 -127.5t-81 -62.5t-81 57q-13 28 -71 211.5t-81 250t-33 94.5q-22 62 -22 92.5t19 47.5t48 17q54 0 76 -71q21 -73 71 -233q76 -242 80 -242
q8 0 56 188l16 63q23 94 81 94q37 0 57 -23.5t32 -70.5q69 -249 77 -249q10 0 136 466q22 78 67 78q34 0 52 -20.5t18 -41.5t-6 -46.5t-13.5 -48t-23.5 -70t-31.5 -96.5t-43.5 -136q-58 -184 -80 -251z" />
    <glyph glyph-name="Ycircumflex" unicode="&#x176;" horiz-adv-x="624" 
d="M216.5 917.5q15.5 7.5 37 7.5t36.5 -9t38.5 -36t34 -37.5t28 -26.5t23.5 -22q17 -17 17 -39t-17.5 -39.5t-42 -17.5t-50.5 24t-44.5 48t-26.5 24t-26 -23q-57 -72 -97 -72q-23 0 -40.5 17.5t-17.5 34.5t5.5 27.5t11.5 16.5t23.5 22t28.5 27t28 29.5t26 27.5t24.5 16.5z
M223 98q0 48 7 195q-32 65 -88 158.5t-89 153t-33 88t17.5 48t45 19.5t42.5 -9.5t32 -37t32 -58.5q61 -127 114 -217q57 100 93 174t52.5 101.5t31 37t41 9.5t44 -20.5t17.5 -47t-34 -87t-91 -154t-89 -159.5q7 -133 7 -194q0 -108 -76 -108t-76 108z" />
    <glyph glyph-name="ycircumflex" unicode="&#x177;" horiz-adv-x="568" 
d="M188.5 752.5q15.5 7.5 37 7.5t36.5 -9t38.5 -36t34 -37.5t28 -26.5t23.5 -22q17 -17 17 -39t-17.5 -39.5t-42 -17.5t-50.5 24t-44.5 48t-26.5 24t-26 -23q-57 -72 -97 -72q-23 0 -40.5 17.5t-17.5 34.5t5.5 27.5t11.5 16.5t23.5 22t28.5 27t28 29.5t26 27.5t24.5 16.5z
M223 98q0 48 7 195q-32 65 -88 158.5t-89 153t-33 88t17.5 48t45 19.5t42.5 -9.5t32 -37t32 -58.5q61 -127 114 -217q57 100 93 174t52.5 101.5t31 37t41 9.5t44 -20.5t17.5 -47t-34 -87t-91 -154t-89 -159.5q7 -133 7 -194q0 -108 -76 -108t-76 108z" />
    <glyph glyph-name="Ydieresis" unicode="&#x178;" horiz-adv-x="624" 
d="M223 98q0 48 7 195q-32 65 -88 158.5t-89 153t-33 88t17.5 48t45 19.5t42.5 -9.5t32 -37t32 -58.5q61 -127 114 -217q57 100 93 174t52.5 101.5t31 37t41 9.5t44 -20.5t17.5 -47t-34 -87t-91 -154t-89 -159.5q7 -133 7 -194q0 -108 -76 -108t-76 108zM456 866.5
q20 -22.5 20 -55.5t-23 -59.5t-57.5 -26.5t-54 23t-19.5 56t22.5 59t57 26t54.5 -22.5zM218 866.5q20 -22.5 20 -55.5t-23 -59.5t-57.5 -26.5t-54 23t-19.5 56t22.5 59t57 26t54.5 -22.5z" />
    <glyph glyph-name="Zacute" unicode="&#x179;" horiz-adv-x="579" 
d="M334 122l163 6q37 0 59.5 -18t22.5 -48.5t-22.5 -49t-59.5 -18.5l-163 6l-213 -6q-80 0 -80 64q0 39 47 106q81 115 166 258l122 205q-23 1 -80 1l-162 -6q-37 0 -59.5 18t-22.5 48.5t22.5 49t59.5 18.5l162 -6l189 6q80 0 80 -62q0 -32 -16 -62t-71.5 -110t-106.5 -165
l-140 -234q32 -1 103 -1zM302 842q0 -49 -52 -93t-88 -44q-23 0 -36 12.5t-13 29.5t20.5 47.5t23 35t9.5 21t11.5 24t12.5 17.5q17 19 48.5 19t47.5 -21.5t16 -47.5z" />
    <glyph glyph-name="zacute" unicode="&#x17a;" horiz-adv-x="487" 
d="M334 122l163 6q37 0 59.5 -18t22.5 -48.5t-22.5 -49t-59.5 -18.5l-163 6l-213 -6q-80 0 -80 64q0 39 47 106q81 115 166 258l122 205q-23 1 -80 1l-162 -6q-37 0 -59.5 18t-22.5 48.5t22.5 49t59.5 18.5l162 -6l189 6q80 0 80 -62q0 -32 -16 -62t-71.5 -110t-106.5 -165
l-140 -234q32 -1 103 -1zM274 677q0 -49 -52 -93t-88 -44q-23 0 -36 12.5t-13 29.5t20.5 47.5t23 35t9.5 21t11.5 24t12.5 17.5q17 19 48.5 19t47.5 -21.5t16 -47.5z" />
    <glyph glyph-name="Zdotaccent" unicode="&#x17b;" horiz-adv-x="579" 
d="M325 902.5q20 -22.5 20 -55.5t-23 -59.5t-57.5 -26.5t-54 23t-19.5 56t22.5 59t57 26t54.5 -22.5zM334 122l163 6q37 0 59.5 -18t22.5 -48.5t-22.5 -49t-59.5 -18.5l-163 6l-213 -6q-80 0 -80 64q0 39 47 106q81 115 166 258l122 205q-23 1 -80 1l-162 -6q-37 0 -59.5 18
t-22.5 48.5t22.5 49t59.5 18.5l162 -6l189 6q80 0 80 -62q0 -32 -16 -62t-71.5 -110t-106.5 -165l-140 -234q32 -1 103 -1z" />
    <glyph glyph-name="zdotaccent" unicode="&#x17c;" horiz-adv-x="487" 
d="M278 737.5q20 -22.5 20 -55.5t-23 -59.5t-57.5 -26.5t-54 23t-19.5 56t22.5 59t57 26t54.5 -22.5zM334 122l163 6q37 0 59.5 -18t22.5 -48.5t-22.5 -49t-59.5 -18.5l-163 6l-213 -6q-80 0 -80 64q0 39 47 106q81 115 166 258l122 205q-23 1 -80 1l-162 -6q-37 0 -59.5 18
t-22.5 48.5t22.5 49t59.5 18.5l162 -6l189 6q80 0 80 -62q0 -32 -16 -62t-71.5 -110t-106.5 -165l-140 -234q32 -1 103 -1z" />
    <glyph glyph-name="Zcaron" unicode="&#x17d;" horiz-adv-x="579" 
d="M267.5 705.5q-15.5 -7.5 -34 -7.5t-34 7.5t-24.5 16.5t-26 27.5t-28 29.5t-28.5 27t-23.5 22q-17 17 -17 39t17.5 39.5t42 17.5t50.5 -23.5t44.5 -47.5t26.5 -24t26 24q56 72 97 72q23 0 40.5 -17.5t17.5 -34.5t-5.5 -27.5t-11.5 -16.5t-23.5 -22t-29 -27t-27.5 -30
t-25 -28t-24.5 -16.5zM334 122l163 6q37 0 59.5 -18t22.5 -48.5t-22.5 -49t-59.5 -18.5l-163 6l-213 -6q-80 0 -80 64q0 39 47 106q81 115 166 258l122 205q-23 1 -80 1l-162 -6q-37 0 -59.5 18t-22.5 48.5t22.5 49t59.5 18.5l162 -6l189 6q80 0 80 -62q0 -32 -16 -62
t-71.5 -110t-106.5 -165l-140 -234q32 -1 103 -1z" />
    <glyph glyph-name="zcaron" unicode="&#x17e;" horiz-adv-x="487" 
d="M224.5 540.5q-15.5 -7.5 -34 -7.5t-34 7.5t-24.5 16.5t-26 27.5t-28 29.5t-28.5 27t-23.5 22q-17 17 -17 39t17.5 39.5t42 17.5t50.5 -23.5t44.5 -47.5t26.5 -24t26 24q56 72 97 72q23 0 40.5 -17.5t17.5 -34.5t-5.5 -27.5t-11.5 -16.5t-23.5 -22t-29 -27t-27.5 -30
t-25 -28t-24.5 -16.5zM334 122l163 6q37 0 59.5 -18t22.5 -48.5t-22.5 -49t-59.5 -18.5l-163 6l-213 -6q-80 0 -80 64q0 39 47 106q81 115 166 258l122 205q-23 1 -80 1l-162 -6q-37 0 -59.5 18t-22.5 48.5t22.5 49t59.5 18.5l162 -6l189 6q80 0 80 -62q0 -32 -16 -62
t-71.5 -110t-106.5 -165l-140 -234q32 -1 103 -1z" />
    <glyph glyph-name="longs" unicode="&#x17f;" horiz-adv-x="382" 
d="M289 647q-62 0 -62 -67v-580h-149v586q0 93 46 136t146 43q77 0 136 -23l-35 -109q-45 14 -82 14z" />
    <glyph glyph-name="uni0180" unicode="&#x180;" horiz-adv-x="632" 
d="M382 546q102 0 154 -69t52 -203q0 -135 -56.5 -209.5t-153.5 -74.5q-96 0 -151 70h-10l-25 -60h-114v584h-76v97h76v79h149v-79h154v-97h-154v-11q0 -32 -6 -108h6q52 81 155 81zM334 427q-104 0 -107 -146v-6q0 -88 26 -126t83 -38q46 0 73 42t27 123q0 151 -102 151z
" />
    <glyph glyph-name="uni0181" unicode="&#x181;" horiz-adv-x="793" 
d="M212 590h-26q-32 0 -46.5 -16.5t-14.5 -39.5q0 -22 10 -48h-118q-12 26 -12 58q0 82 47.5 126t137.5 44h244q152 0 220.5 -43.5t68.5 -137.5q0 -63 -30 -104.5t-80 -49.5v-5q68 -15 98 -56.5t30 -110.5q0 -98 -70.5 -152.5t-191.5 -54.5h-267v590zM363 311v-186h99
q62 0 92 24t30 73q0 89 -127 89h-94zM363 431h88q62 0 89.5 19t27.5 63q0 41 -30.5 59t-94.5 18h-80v-159z" />
    <glyph glyph-name="uni0182" unicode="&#x182;" horiz-adv-x="638" 
d="M241 440h60q140 0 216 -56.5t76 -160.5q0 -223 -295 -223h-208v714h451v-125h-300v-149zM241 124h51q77 0 112.5 24.5t35.5 74.5q0 49 -36 71t-124 22h-39v-192z" />
    <glyph glyph-name="uni0183" unicode="&#x183;" horiz-adv-x="632" 
d="M382 546q102 0 154 -69t52 -203q0 -135 -56.5 -209.5t-153.5 -74.5q-96 0 -151 70h-10l-25 -60h-114v760h456v-112h-307v-75q0 -32 -6 -108h6q52 81 155 81zM334 427q-104 0 -107 -146v-6q0 -88 26 -126t83 -38q46 0 73 42t27 123q0 151 -102 151z" />
    <glyph glyph-name="uni0184" unicode="&#x184;" horiz-adv-x="661" 
d="M616 218q0 -109 -69 -168.5t-198 -59.5q-264 0 -264 220v504h151v-274h88q140 0 216 -57.5t76 -164.5zM236 218q0 -104 109 -104q58 0 88 26.5t30 77.5q0 52 -35 75t-125 23h-67v-98z" />
    <glyph glyph-name="uni0185" unicode="&#x185;" horiz-adv-x="633" 
d="M589 273q0 -133 -67.5 -208t-186.5 -75q-125 0 -192.5 72t-67.5 205v493h149v-177q0 -27 -6 -108h6q26 40 67 60.5t92 20.5q97 0 151.5 -75t54.5 -208zM335 437q-59 0 -85 -37.5t-26 -108.5v-26q0 -80 26.5 -117.5t81.5 -37.5q53 0 79 39.5t26 123.5q0 83 -27.5 123.5
t-74.5 40.5z" />
    <glyph glyph-name="uni0186" unicode="&#x186;" horiz-adv-x="637" 
d="M239 598q-42 0 -80.5 -14t-74.5 -33l-49 123q99 50 220 50q153 0 238.5 -96.5t85.5 -266.5q0 -175 -86.5 -273t-245.5 -98q-54 0 -99 8.5t-92 28.5v127q64 -22 101.5 -30t75.5 -8q93 0 141.5 63.5t48.5 178.5q0 114 -48.5 177t-135.5 63z" />
    <glyph glyph-name="uni0187" unicode="&#x187;" horiz-adv-x="637" 
d="M393 598q-85 0 -132 -64t-47 -179q0 -239 179 -239q75 0 182 38v-127q-88 -37 -196 -37q-156 0 -238.5 94.5t-82.5 271.5q0 111 40.5 195t116.5 128.5t178 44.5q46 0 89 -11q1 81 40.5 123.5t113.5 42.5q22 0 41.5 -5t28.5 -10v-114q-28 10 -55 10q-49 0 -49 -56v-40
l-49 -113q-40 19 -80.5 33t-79.5 14z" />
    <glyph glyph-name="uni0188" unicode="&#x188;" horiz-adv-x="514" 
d="M300 -10q-255 0 -255 280q0 139 69.5 212.5t198.5 73.5q29 0 50 -4v41q0 84 39 128t116 44q39 0 69 -15v-114q-28 10 -55 10q-49 0 -49 -56v-76l-44 -110q-35 14 -65.5 23t-60.5 9q-116 0 -116 -165q0 -160 116 -160q43 0 79.5 11.5t73.5 35.5v-127q-36 -23 -73 -32
t-93 -9z" />
    <glyph glyph-name="uni0189" unicode="&#x189;" horiz-adv-x="740" 
d="M116 435l-4 168q-41 12 -41 57q0 30 43.5 55t99.5 36.5t106 11.5q98 0 175.5 -33t124.5 -88q95 -113 95 -270q0 -151 -92 -264q-45 -56 -120.5 -89.5t-179.5 -33.5t-180 30t-76 75t47 56l2 168h-33q-31 0 -52 17.5t-21 43.5t21 43.5t48 17.5t37 -1zM253 435l43 2
q31 0 51.5 -18t20.5 -44t-20.5 -44t-50 -18t-44.5 1q0 -139 4 -196q32 -7 72 -7q81 0 138 39q107 75 107 226q0 108 -65.5 185t-188.5 77q-34 0 -64 -9q-3 -48 -3 -194z" />
    <glyph glyph-name="uni018A" unicode="&#x18a;" horiz-adv-x="861" 
d="M804 364q0 -176 -100 -270t-290 -94h-202v590h-26q-32 0 -46.5 -16.5t-14.5 -39.5q0 -22 10 -48h-118q-12 26 -12 58q0 82 47.5 126t137.5 44h246q175 0 271.5 -92t96.5 -258zM647 360q0 230 -203 230h-81v-465h65q219 0 219 235z" />
    <glyph glyph-name="uni018B" unicode="&#x18b;" horiz-adv-x="638" 
d="M397 589h-300v125h451v-714h-220q-142 0 -212.5 54t-70.5 165q0 104 77.5 162.5t219.5 58.5h55v149zM397 316h-39q-88 0 -124 -22.5t-36 -71.5q0 -50 36 -74t112 -24h51v192z" />
    <glyph glyph-name="uni018C" unicode="&#x18c;" horiz-adv-x="632" 
d="M251 -10q-96 0 -151 75t-55 207q0 129 57 201.5t153 72.5q104 0 157 -80h5q-11 62 -11 109v73h-307v112h456v-760h-114l-29 71h-6q-51 -81 -155 -81zM303 109q57 0 84 33t29 113v16q0 83 -27.5 118.5t-87.5 35.5q-50 0 -77.5 -39.5t-27.5 -115.5q0 -81 27.5 -121
t79.5 -40z" />
    <glyph glyph-name="uni018D" unicode="&#x18d;" horiz-adv-x="619" 
d="M382 307q116 -74 116 -167q0 -70 -59 -110t-163 -40q-53 0 -104 11t-121 43l59 105q45 -22 87 -35.5t85 -13.5q36 0 54 13t18 36q0 26 -33.5 52t-101.5 60q-90 45 -132 105.5t-42 138.5q0 126 69 193t198 67q119 0 190.5 -60.5t71.5 -163.5q0 -89 -46.5 -147.5
t-145.5 -86.5zM197 515q0 -95 98 -147q58 15 92 59.5t34 107.5q0 50 -30 80t-80 30q-55 0 -84.5 -33.5t-29.5 -96.5z" />
    <glyph glyph-name="uni018E" unicode="&#x18e;" horiz-adv-x="560" 
d="M59 125h260v184h-242v124h242v157h-260v124h411v-714h-411v125z" />
    <glyph glyph-name="uni018F" unicode="&#x18f;" horiz-adv-x="816" 
d="M400 599q-72 0 -150 -22t-133 -57v131q68 41 136 57.5t148 16.5q169 0 263.5 -98t94.5 -271t-89 -269.5t-251 -96.5q-168 0 -253.5 95.5t-85.5 286.5v35h521q-6 94 -57.5 143t-143.5 49zM419 116q80 0 127.5 44.5t52.5 120.5h-362q0 -85 44 -125t138 -40z" />
    <glyph glyph-name="uni0190" unicode="&#x190;" horiz-adv-x="647" 
d="M65 537q0 85 73 136t193 51q75 0 139 -17.5t132 -60.5l-66 -101q-94 58 -194 58q-65 0 -97.5 -21.5t-32.5 -58.5q0 -48 51.5 -70.5t165.5 -22.5h60v-118h-67q-112 0 -170.5 -23.5t-58.5 -74.5q0 -105 180 -105q52 0 114 12t109 35v-127q-95 -39 -256 -39
q-142 0 -219.5 56.5t-77.5 155.5q0 73 53 117.5t149 53.5v3q-180 27 -180 161z" />
    <glyph glyph-name="uni0191" unicode="&#x191;" horiz-adv-x="548" 
d="M239 -64q0 -87 -45 -131.5t-132 -44.5q-43 0 -80 15v114q25 -10 55 -10q23 0 38 15t15 45v775h409v-124h-260v-184h242v-124h-242v-346z" />
    <glyph glyph-name="florin" unicode="&#x192;" horiz-adv-x="571" 
d="M364 -59q0 -86 -46 -133.5t-132 -47.5q-52 0 -90 12v117q29 -9 58 -9q61 0 61 83v430h-82v72l82 40v40q0 92 42.5 135.5t137.5 43.5q73 0 128 -23l-35 -109q-40 14 -71 14q-53 0 -53 -67v-34h111v-112h-111v-452z" />
    <glyph glyph-name="uni0193" unicode="&#x193;" horiz-adv-x="724" 
d="M361 401h283v-370q-69 -22 -129.5 -31.5t-124.5 -9.5q-162 0 -247 95t-85 273q0 173 99 269.5t274 96.5q50 0 93 -9q1 80 41 122t113 42q22 0 41.5 -5t28.5 -10v-114q-28 10 -55 10q-49 0 -49 -56v-33l-51 -112q-78 39 -163 39q-98 0 -157 -66t-59 -177
q0 -116 47.5 -177.5t138.5 -61.5q47 0 96 10v149h-135v126z" />
    <glyph glyph-name="uni0194" unicode="&#x194;" horiz-adv-x="649" 
d="M494 714h156l-257 -591q69 -138 69 -220q0 -65 -39 -104t-104 -39t-103 38t-38 106q0 50 18.5 103.5t47.5 117.5l-244 589h156l121 -311q10 -23 23 -68t19 -71q9 37 23.5 77.5t23.5 60.5zM354 -97q0 22 -9 56.5t-25 65.5q-18 -34 -26 -66t-8 -54q0 -56 34 -56t34 54z" />
    <glyph glyph-name="uni0195" unicode="&#x195;" horiz-adv-x="986" 
d="M572 238q0 -66 23 -97t72 -31t72.5 33t23.5 109v294h149v-307q0 -249 -245 -249q-129 0 -186.5 54.5t-57.5 171.5v103q0 118 -84 118q-58 0 -85 -43t-27 -137v-257h-149v760h149v-155q0 -18 -3 -85l-4 -44h8q52 80 155 80q91 0 140 -52.5t49 -152.5v-113z" />
    <glyph glyph-name="uni0196" unicode="&#x196;" horiz-adv-x="402" 
d="M243 714v-524q0 -35 18 -54t47 -19q38 0 85 17v-119q-53 -25 -129 -25q-179 0 -179 187v537h158z" />
    <glyph glyph-name="uni0197" unicode="&#x197;" horiz-adv-x="389" 
d="M27 419h92v169l-87 40v86h325v-86l-87 -40v-169h92v-124h-92v-169l87 -40v-86h-325v86l87 40v169h-92v124z" />
    <glyph glyph-name="uni0198" unicode="&#x198;" horiz-adv-x="664" 
d="M664 0h-172l-187 301l-64 -46v-255h-151v714h151v-329l64 91l81 108q46 62 73.5 88t56.5 39.5t63 13.5q43 0 75 -15v-119q-22 9 -48 9q-42 0 -74 -43l-120 -159z" />
    <glyph glyph-name="uni0199" unicode="&#x199;" horiz-adv-x="620" 
d="M221 297l65 83l153 166h168l-217 -237l230 -309h-172l-157 221l-64 -51v-170h-149v595q0 84 44 128t131 44q41 0 78 -15v-114q-28 10 -55 10q-49 0 -49 -56v-171l-8 -124h2z" />
    <glyph glyph-name="uni019A" unicode="&#x19a;" horiz-adv-x="330" 
d="M239 420h81v-112h-81v-308h-149v308h-80v112h80v340h149v-340z" />
    <glyph glyph-name="uni019B" unicode="&#x19b;" horiz-adv-x="615" 
d="M4 0l231 516l-11 28l-100 -30l-25 82l83 25q-15 12 -32.5 16t-40.5 4q-24 0 -50 -6v123q39 8 81 8q65 0 109 -24t75 -77l93 29l25 -83l-83 -25l135 -372q18 -51 36.5 -75t45.5 -24q16 0 34 5v-115q-11 -6 -39 -10.5t-47 -4.5q-54 0 -88 26.5t-54 84.5
q-56 158 -66.5 190.5t-16.5 57.5h-3q-22 -75 -37 -112l-101 -237h-154z" />
    <glyph glyph-name="uni019C" unicode="&#x19c;" horiz-adv-x="1035" 
d="M439 714h151v-477q0 -120 87 -120q60 0 88 42t28 141v414h152v-714h-114l-21 76h-9q-24 -42 -68.5 -64t-99.5 -22q-115 0 -167 90h-7q-55 -90 -171 -90q-99 0 -151 52t-52 152v520h151v-477q0 -120 87 -120q61 0 88.5 41t27.5 125v431z" />
    <glyph glyph-name="uni019D" unicode="&#x19d;" horiz-adv-x="812" 
d="M723 0h-192l-311 540h-4q9 -143 9 -204v-400q0 -85 -44 -130.5t-126 -45.5q-36 0 -73 15v114q25 -10 55 -10q23 0 38 15t15 45v775h191l310 -535h3q-7 139 -7 197v338h136v-714z" />
    <glyph glyph-name="uni019E" unicode="&#x19e;" horiz-adv-x="657" 
d="M582 -240h-149v559q0 59 -21 88.5t-67 29.5q-62 0 -90 -41.5t-28 -138.5v-257h-149v546h114l20 -70h8q25 40 69 60t99 20q95 0 144.5 -51.5t49.5 -148.5v-596z" />
    <glyph glyph-name="uni019F" unicode="&#x19f;" horiz-adv-x="795" 
d="M738 358q0 -177 -88 -272.5t-252 -95.5t-252 95.5t-88 273.5t88 272t253 94t252 -94.5t87 -272.5zM398 117q80 0 126 47t55 139h-363q10 -88 54.5 -137t127.5 -49zM399 599q-154 0 -181 -170h359q-12 83 -56.5 126.5t-121.5 43.5z" />
    <glyph glyph-name="Ohorn" unicode="&#x1a0;" horiz-adv-x="825" 
d="M738 358q0 -177 -88 -272.5t-252 -95.5t-252 95.5t-88 273.5q0 177 88.5 271.5t253.5 94.5q169 0 256 -99q45 30 45 134h147l7 -11q-18 -86 -52.5 -135.5t-94.5 -73.5q30 -78 30 -182zM217 358q0 -120 45.5 -180.5t135.5 -60.5q181 0 181 241t-180 241q-90 0 -136 -60.5
t-46 -180.5z" />
    <glyph glyph-name="ohorn" unicode="&#x1a1;" horiz-adv-x="679" 
d="M574 274q0 -133 -70 -208.5t-196 -75.5q-79 0 -139 34.5t-92 99t-32 150.5q0 134 70 208t196 74q55 0 103.5 -17t83.5 -50q73 22 73 139h147l7 -11q-13 -65 -34.5 -103.5t-56 -64.5t-85.5 -39q25 -61 25 -136zM197 274q0 -81 26.5 -122.5t86.5 -41.5t86 41t26 123
q0 81 -26.5 121.5t-86.5 40.5t-86 -40t-26 -122z" />
    <glyph glyph-name="uni01A2" unicode="&#x1a2;" horiz-adv-x="1130" 
d="M718 358q0 -178 -85 -273t-245 -95q-161 0 -245.5 95t-84.5 274q0 177 85.5 271.5t245.5 94.5q154 0 239 -90q82 90 205 90q102 0 157.5 -60.5t55.5 -174.5v-490h-151v478q0 60 -26.5 90.5t-76.5 30.5q-36 0 -62.5 -10t-48.5 -34q37 -82 37 -197zM217 358
q0 -121 43.5 -181t127.5 -60q171 0 171 241t-170 241q-172 0 -172 -241z" />
    <glyph glyph-name="uni01A3" unicode="&#x1a3;" horiz-adv-x="929" 
d="M554 274q0 -134 -68 -209t-188 -75q-117 0 -185 75.5t-68 208.5q0 134 67.5 208t188.5 74q118 0 186 -78q62 78 173 78q95 0 144.5 -51.5t49.5 -148.5v-596h-149v559q0 59 -21 88.5t-67 29.5q-56 0 -85 -35q22 -58 22 -128zM197 274q0 -82 24.5 -123t78.5 -41t78 41
t24 123q0 81 -24.5 121.5t-78.5 40.5q-53 0 -77.5 -40t-24.5 -122z" />
    <glyph glyph-name="uni01A4" unicode="&#x1a4;" horiz-adv-x="750" 
d="M705 491q0 -115 -72 -176t-205 -61h-65v-254h-151v590h-26q-32 0 -46.5 -16.5t-14.5 -39.5q0 -22 10 -48h-118q-12 26 -12 58q0 82 47.5 126t137.5 44h250q130 0 197.5 -56t67.5 -167zM363 378h50q69 0 104 27.5t35 80.5t-29 78.5t-91 25.5h-69v-212z" />
    <glyph glyph-name="uni01A5" unicode="&#x1a5;" horiz-adv-x="632" 
d="M227 583q0 -44 -6 -108h6q24 40 64 60.5t91 20.5q97 0 151.5 -75.5t54.5 -206.5q0 -133 -54.5 -208.5t-151.5 -75.5q-104 0 -155 67h-7l4 -30l3 -46v-221h-149v833q0 83 44 127.5t131 44.5q41 0 78 -15v-114q-28 10 -55 10q-23 0 -35 -13t-14 -43v-7zM334 437
q-55 0 -80.5 -34t-26.5 -112v-16q0 -88 26 -126t83 -38q100 0 100 165q0 81 -24.5 121t-77.5 40z" />
    <glyph glyph-name="uni01A6" unicode="&#x1a6;" horiz-adv-x="660" 
d="M241 174v-174h-151v714h151v-100h57q146 0 215.5 -53t69.5 -161q0 -62 -33.5 -110.5t-99.5 -78.5l210 -311h-168l-170 274h-81zM241 297h49q72 0 106 24t34 75t-35 72.5t-108 21.5h-46v-193z" />
    <glyph glyph-name="uni01A7" unicode="&#x1a7;" horiz-adv-x="550" 
d="M42 193q0 74 40.5 126t133.5 92q67 28 94 44.5t38.5 33.5t11.5 41q0 33 -23.5 50.5t-67.5 17.5q-41 0 -81.5 -11t-89.5 -31l-45 118q111 50 228 50q106 0 166.5 -51.5t60.5 -145.5q0 -75 -40 -125.5t-139 -91.5q-61 -25 -87 -41.5t-39 -34.5t-13 -41q0 -37 26 -57.5
t78 -20.5q100 0 210 46v-126q-92 -45 -219 -45q-117 0 -180 51.5t-63 151.5z" />
    <glyph glyph-name="uni01A8" unicode="&#x1a8;" horiz-adv-x="497" 
d="M38 152q0 62 34.5 103.5t118.5 73.5q76 29 97 43t21 33q0 20 -19 30.5t-52 10.5q-37 0 -72.5 -11.5t-75.5 -28.5l-40 107q94 43 203 43q96 0 150 -39t54 -110q0 -62 -33 -100.5t-120 -72.5q-47 -19 -72 -32t-36 -24t-11 -29q0 -50 88 -50q91 0 174 43v-113
q-79 -39 -186 -39q-111 0 -167 41.5t-56 120.5z" />
    <glyph glyph-name="uni01A9" unicode="&#x1a9;" horiz-adv-x="592" 
d="M38 0v119l230 255l-224 224v116h486v-124h-214q-25 0 -111 5l222 -220l-233 -256q117 6 139 6h226v-125h-521z" />
    <glyph glyph-name="uni01AA" unicode="&#x1aa;" horiz-adv-x="367" 
d="M290 -240q-92 0 -136 45t-44 136v589h-27q-68 0 -105 32t-37 91q0 53 40 85t107 32q171 0 171 -179v-650q0 -32 18 -47t47 -15q39 0 94 17v-111q-53 -25 -128 -25zM67 688q-17 0 -26.5 -10.5t-9.5 -25.5q0 -19 14 -32t41 -13h24v31q0 25 -11.5 37.5t-31.5 12.5z" />
    <glyph glyph-name="uni01AB" unicode="&#x1ab;" horiz-adv-x="434" 
d="M260 -240q-42 0 -80 13v104q23 -9 48 -9q27 0 38.5 14t11.5 44v64h-13q-89 0 -130 45.5t-41 135.5v263h-71v63l82 50l43 115h95v-116h153v-112h-153v-263q0 -32 18 -47t47 -15q39 0 94 17v-200q0 -86 -36 -126t-106 -40z" />
    <glyph glyph-name="uni01AC" unicode="&#x1ac;" horiz-adv-x="618" 
d="M404 0h-151v588h-67q-32 0 -46.5 -16.5t-14.5 -39.5q0 -21 10 -46h-118q-12 26 -12 58q0 82 47.5 126t137.5 44h408v-126h-194v-588z" />
    <glyph glyph-name="uni01AD" unicode="&#x1ad;" horiz-adv-x="434" 
d="M308 109q39 0 94 17v-111q-56 -25 -137 -25q-89 0 -130 45.5t-41 135.5v263h-71v63l71 43v53q0 84 47 128t142 44q49 0 92 -16v-114q-37 11 -75 11q-30 0 -43.5 -14t-13.5 -42v-44h153v-112h-153v-263q0 -32 18 -47t47 -15z" />
    <glyph glyph-name="uni01AE" unicode="&#x1ae;" horiz-adv-x="579" 
d="M365 -61q0 -31 15 -45.5t38 -14.5q30 0 55 10v-114q-12 -5 -35 -10t-49 -5q-175 0 -175 176v652h-194v126h539v-126h-194v-649z" />
    <glyph glyph-name="Uhorn" unicode="&#x1af;" horiz-adv-x="884" 
d="M671 714v-92q36 13 53 49.5t17 88.5h147l7 -11q-16 -75 -42 -116t-70.5 -66t-111.5 -35v-280q0 -79 -35.5 -138.5t-102.5 -91.5t-158 -32q-138 0 -214 70.5t-76 193.5v460h151v-449q0 -76 34.5 -112t108.5 -36t107.5 37.5t33.5 111.5v448h151z" />
    <glyph glyph-name="uhorn" unicode="&#x1b0;" horiz-adv-x="759" 
d="M465 0l-20 70h-9q-23 -38 -67 -59t-100 -21q-96 0 -145 51.5t-49 148.5v356h149v-319q0 -59 21 -88.5t67 -29.5q62 0 90 41.5t28 138.5v257h149v-57q35 11 54 46.5t19 92.5h147l7 -11q-16 -76 -42 -117t-71 -66t-114 -35v-399h-114z" />
    <glyph glyph-name="uni01B1" unicode="&#x1b1;" horiz-adv-x="786" 
d="M393 116q88 0 136 53t48 151t-31.5 159.5t-98.5 98.5v136h312v-127h-181q73 -45 114 -123.5t41 -175.5q0 -89 -41.5 -157t-119 -104.5t-179.5 -36.5q-103 0 -180 36.5t-118.5 104.5t-41.5 158q0 97 40.5 174.5t116.5 123.5h-183v127h314v-136q-66 -35 -99 -98t-33 -161
q0 -97 47.5 -150t136.5 -53z" />
    <glyph glyph-name="uni01B2" unicode="&#x1b2;" horiz-adv-x="649" 
d="M410 0h-155l-255 714h153l144 -425q7 -19 20.5 -74t17.5 -83q3 25 18.5 79.5t23.5 72.5l70 168q21 49 26 68t5 33q0 23 -13 34.5t-32 11.5q-26 0 -43 -9v117q35 17 83 17q71 0 109.5 -38.5t38.5 -105.5q0 -58 -37 -156z" />
    <glyph glyph-name="uni01B3" unicode="&#x1b3;" horiz-adv-x="624" 
d="M78 724q50 0 84.5 -26t65.5 -93l86 -183l147 292h163l-237 -436v-278h-150v272l-110 231q-20 42 -32.5 61t-24.5 27t-33 8q-20 0 -37 -9v117q37 17 78 17z" />
    <glyph glyph-name="uni01B4" unicode="&#x1b4;" horiz-adv-x="615" 
d="M172 546l86 -254q22 -63 32 -125h3q18 73 34 119l54 148q24 65 60.5 93.5t88.5 28.5q21 0 44 -4.5t36 -10.5v-115q-19 5 -34 5q-26 0 -44.5 -22.5t-37.5 -76.5l-144 -397q-64 -175 -234 -175q-34 0 -72 8v118q6 -1 23.5 -3.5t33.5 -2.5q83 0 116 95l10 29l-217 542h162z
" />
    <glyph glyph-name="uni01B5" unicode="&#x1b5;" horiz-adv-x="579" 
d="M62 415h183l121 174h-333v125h513v-98l-140 -201h93v-124h-180l-115 -166h351v-125h-531v98l135 193h-97v124z" />
    <glyph glyph-name="uni01B6" unicode="&#x1b6;" horiz-adv-x="487" 
d="M458 0h-431v88l105 142h-79v97h150l77 105h-238v114h407v-97l-90 -122h76v-97h-147l-85 -116h255v-114z" />
    <glyph glyph-name="uni01B7" unicode="&#x1b7;" horiz-adv-x="590" 
d="M138 419l176 170h-262v125h468v-97l-211 -201q118 -5 180.5 -58.5t62.5 -149.5q0 -102 -79.5 -160t-224.5 -58q-126 0 -220 39v128q45 -21 102.5 -34t108.5 -13q82 0 122 25.5t40 81.5q0 50 -51 73t-152 23h-60v106z" />
    <glyph glyph-name="uni01B8" unicode="&#x1b8;" horiz-adv-x="590" 
d="M453 313h-60q-102 0 -152.5 -23.5t-50.5 -74.5q0 -53 40.5 -79t121.5 -26q53 0 110 13t101 34v-128q-94 -39 -225 -39q-141 0 -220 56t-79 157q0 96 61.5 150t181.5 63l-211 201v97h468v-125h-263l177 -170v-106z" />
    <glyph glyph-name="uni01B9" unicode="&#x1b9;" horiz-adv-x="581" 
d="M443 139h-58q-97 0 -146 -31.5t-49 -98.5q0 -62 39.5 -95.5t113.5 -33.5q49 0 102.5 12.5t97.5 34.5v-126q-96 -41 -221 -41q-134 0 -208.5 63.5t-74.5 176.5q0 104 61 167t177 80l-211 202v97h472v-114h-288l193 -187v-106z" />
    <glyph glyph-name="uni01BA" unicode="&#x1ba;" horiz-adv-x="581" 
d="M371 143q0 31 -31.5 43.5t-116.5 12.5h-68v100l150 133h-247v114h443v-96l-177 -144q98 -8 148 -50.5t50 -115.5q0 -88 -65 -131.5t-201 -53.5q-43 -3 -62 -13t-19 -27q0 -45 100 -45q92 0 203 39v-110q-43 -18 -101.5 -28.5t-120.5 -10.5q-96 0 -152 40.5t-56 115.5
q0 147 193 162q75 5 102.5 19t27.5 46z" />
    <glyph glyph-name="uni01BB" unicode="&#x1bb;" horiz-adv-x="569" 
d="M387 322l-185 -201v-7h324v-114h-499v111l193 211h-176v97h257q26 32 35.5 64.5t9.5 68.5q0 42 -26 68t-68 26q-38 0 -71.5 -16t-76.5 -58l-73 91q46 42 78.5 60.5t71.5 30t87 11.5q103 0 165.5 -57t62.5 -148q0 -77 -39 -141h69v-97h-139z" />
    <glyph glyph-name="uni01BC" unicode="&#x1bc;" horiz-adv-x="578" 
d="M289 456q114 0 182 -60.5t68 -164.5q0 -118 -80 -179.5t-229 -61.5q-58 0 -112 10t-90 29v130q37 -20 92.5 -33t104.5 -13q81 0 121.5 27.5t40.5 80.5q0 109 -147 109h-127v258h-79v126h484v-126h-256v-132h27z" />
    <glyph glyph-name="uni01BD" unicode="&#x1bd;" horiz-adv-x="555" 
d="M283 337q116 0 175 -42.5t59 -122.5q0 -89 -72.5 -135.5t-211.5 -46.5q-58 0 -110.5 9.5t-84.5 24.5v123q35 -18 90 -30t99 -12q145 0 145 65q0 63 -149 63h-95v201h-84v112h454v-112h-230v-97h15z" />
    <glyph glyph-name="uni01BE" unicode="&#x1be;" horiz-adv-x="497" 
d="M271 399q0 -27 9.5 -41t35.5 -29l53 -31q46 -26 68 -60t22 -81q0 -80 -60 -123.5t-173 -43.5q-56 0 -107.5 9.5t-82.5 24.5v123q37 -20 86.5 -34t90.5 -14q54 0 77.5 13.5t23.5 40.5q0 17 -11 29t-35 26q-84 43 -110.5 83t-26.5 103v40h-95v63l97 50l43 115h95v-116h138
v-112h-138v-35z" />
    <glyph glyph-name="uni01BF" unicode="&#x1bf;" horiz-adv-x="632" 
d="M227 -240h-149v786h121l21 -71h7q52 81 155 81q60 0 107.5 -31t73 -88.5t25.5 -132.5q0 -135 -94.5 -219.5t-266.5 -103.5v-221zM334 437q-59 0 -83 -37.5t-24 -111.5v-180q95 12 152 65.5t57 132.5q0 61 -27 96t-75 35z" />
    <glyph glyph-name="uni01C0" unicode="&#x1c0;" horiz-adv-x="516" 
d="M204 760h107v-1000h-107v1000z" />
    <glyph glyph-name="uni01C1" unicode="&#x1c1;" horiz-adv-x="516" 
d="M76 760h107v-1000h-107v1000zM334 760h107v-1000h-107v1000z" />
    <glyph glyph-name="uni01C2" unicode="&#x1c2;" horiz-adv-x="516" 
d="M204 121h-154v97h154v112h-154v97h154v333h107v-333h155v-97h-155v-112h155v-97h-155v-361h-107v361z" />
    <glyph glyph-name="uni01C3" unicode="&#x1c3;" horiz-adv-x="286" 
d="M203 237h-119l-25 477h169zM57 70q0 41 22 62t64 21q41 0 63 -21.5t22 -61.5q0 -39 -22.5 -61t-62.5 -22q-41 0 -63.5 21.5t-22.5 61.5z" />
    <glyph glyph-name="uni01C4" unicode="&#x1c4;" horiz-adv-x="1309" 
d="M996.5 705.5q-15.5 -7.5 -34 -7.5t-34 7.5t-24.5 16.5t-26 27.5t-28 29.5t-28.5 27t-23.5 22q-17 17 -17 39t17.5 39.5t42 17.5t50.5 -23.5t44.5 -47.5t26.5 -24t26 24q56 72 97 72q23 0 40.5 -17.5t17.5 -34.5t-5.5 -27.5t-11.5 -16.5t-23.5 -22t-29 -27t-27.5 -30
t-25 -28t-24.5 -16.5zM115 375l-5 228q-41 12 -41 57q0 30 43.5 55t99.5 36.5t106 11.5q98 0 175.5 -33t124.5 -88q95 -113 95 -270q0 -151 -92 -264q-45 -56 -120.5 -89.5t-179.5 -33.5t-180 30t-76 75t47 56zM572 376q0 108 -65.5 185t-188.5 77q-34 0 -64 -9
q-3 -61 -3 -250t4 -261q32 -7 72 -7q81 0 138 39q107 75 107 226zM1064 122l163 6q37 0 59.5 -18t22.5 -48.5t-22.5 -49t-59.5 -18.5l-163 6l-213 -6q-80 0 -80 64q0 39 47 106q81 115 166 258l122 205q-23 1 -80 1l-162 -6q-37 0 -59.5 18t-22.5 48.5t22.5 49t59.5 18.5
l162 -6l189 6q80 0 80 -62q0 -32 -16 -62t-71.5 -110t-106.5 -165l-140 -234q32 -1 103 -1z" />
    <glyph glyph-name="uni01C5" unicode="&#x1c5;" horiz-adv-x="1228" 
d="M963.5 540.5q-15.5 -7.5 -34 -7.5t-34 7.5t-24.5 16.5t-26 27.5t-28 29.5t-28.5 27t-23.5 22q-17 17 -17 39t17.5 39.5t42 17.5t50.5 -23.5t44.5 -47.5t26.5 -24t26 24q56 72 97 72q23 0 40.5 -17.5t17.5 -34.5t-5.5 -27.5t-11.5 -16.5t-23.5 -22t-29 -27t-27.5 -30
t-25 -28t-24.5 -16.5zM115 375l-5 228q-41 12 -41 57q0 30 43.5 55t99.5 36.5t106 11.5q98 0 175.5 -33t124.5 -88q95 -113 95 -270q0 -151 -92 -264q-45 -56 -120.5 -89.5t-179.5 -33.5t-180 30t-76 75t47 56zM572 376q0 108 -65.5 185t-188.5 77q-34 0 -64 -9
q-3 -61 -3 -250t4 -261q32 -7 72 -7q81 0 138 39q107 75 107 226zM1074 122l163 6q37 0 59.5 -18t22.5 -48.5t-22.5 -49t-59.5 -18.5l-163 6l-213 -6q-80 0 -80 64q0 39 47 106q81 115 166 258l122 205q-23 1 -80 1l-162 -6q-37 0 -59.5 18t-22.5 48.5t22.5 49t59.5 18.5
l162 -6l189 6q80 0 80 -62q0 -32 -16 -62t-71.5 -110t-106.5 -165l-140 -234q32 -1 103 -1z" />
    <glyph glyph-name="uni01C6" unicode="&#x1c6;" horiz-adv-x="1121" 
d="M856.5 540.5q-15.5 -7.5 -34 -7.5t-34 7.5t-24.5 16.5t-26 27.5t-28 29.5t-28.5 27t-23.5 22q-17 17 -17 39t17.5 39.5t42 17.5t50.5 -23.5t44.5 -47.5t26.5 -24t26 24q56 72 97 72q23 0 40.5 -17.5t17.5 -34.5t-5.5 -27.5t-11.5 -16.5t-23.5 -22t-29 -27t-27.5 -30
t-25 -28t-24.5 -16.5zM115 375l-5 228q-41 12 -41 57q0 30 43.5 55t99.5 36.5t106 11.5q98 0 175.5 -33t124.5 -88q95 -113 95 -270q0 -151 -92 -264q-45 -56 -120.5 -89.5t-179.5 -33.5t-180 30t-76 75t47 56zM572 376q0 108 -65.5 185t-188.5 77q-34 0 -64 -9
q-3 -61 -3 -250t4 -261q32 -7 72 -7q81 0 138 39q107 75 107 226zM967 122l163 6q37 0 59.5 -18t22.5 -48.5t-22.5 -49t-59.5 -18.5l-163 6l-213 -6q-80 0 -80 64q0 39 47 106q81 115 166 258l122 205q-23 1 -80 1l-162 -6q-37 0 -59.5 18t-22.5 48.5t22.5 49t59.5 18.5
l162 -6l189 6q80 0 80 -62q0 -32 -16 -62t-71.5 -110t-106.5 -165l-140 -234q32 -1 103 -1z" />
    <glyph glyph-name="uni01C7" unicode="&#x1c7;" horiz-adv-x="895" 
d="M341 122l137 6q38 0 60.5 -17.5t22.5 -48.5t-22.5 -49.5t-60.5 -18.5l-137 6l-151 -6q-37 0 -61.5 24t-24.5 64l6 298l-8 271q0 109 76 109t76 -109l-8 -271q0 -51 7 -256q52 -2 88 -2zM897 750l139 6q37 0 59.5 -18t22.5 -49q0 -54 -64 -66q-1 -75 -1 -360
q0 -75 -21 -131t-57 -87q-70 -60 -160.5 -60t-148.5 38.5t-58 79.5q0 28 18 45t43.5 17t63.5 -26.5t80 -26.5t73 41t31 130l-2 344l-138 -6q-38 0 -60 18t-22 49t22.5 49.5t59.5 18.5z" />
    <glyph glyph-name="uni01C8" unicode="&#x1c8;" horiz-adv-x="870" 
d="M341 122l137 6q38 0 60.5 -17.5t22.5 -48.5t-22.5 -49.5t-60.5 -18.5l-137 6l-151 -6q-37 0 -61.5 24t-24.5 64l6 298l-8 271q0 109 76 109t76 -109l-8 -271q0 -51 7 -256q52 -2 88 -2zM897 750l139 6q37 0 59.5 -18t22.5 -49q0 -54 -64 -66q-1 -75 -1 -360
q0 -75 -21 -131t-57 -87q-70 -60 -160.5 -60t-148.5 38.5t-58 79.5q0 28 18 45t43.5 17t63.5 -26.5t80 -26.5t73 41t31 130l-2 344l-138 -6q-38 0 -60 18t-22 49t22.5 49.5t59.5 18.5z" />
    <glyph glyph-name="uni01C9" unicode="&#x1c9;" horiz-adv-x="609" 
d="M341 122l137 6q38 0 60.5 -17.5t22.5 -48.5t-22.5 -49.5t-60.5 -18.5l-137 6l-151 -6q-37 0 -61.5 24t-24.5 64l6 298l-8 271q0 109 76 109t76 -109l-8 -271q0 -51 7 -256q52 -2 88 -2zM637 750l139 6q37 0 59.5 -18t22.5 -49q0 -54 -64 -66q-1 -75 -1 -360
q0 -75 -21 -131t-57 -87q-70 -60 -160.5 -60t-148.5 38.5t-58 79.5q0 28 18 45t43.5 17t63.5 -26.5t80 -26.5t73 41t31 130l-2 344l-138 -6q-38 0 -60 18t-22 49t22.5 49.5t59.5 18.5z" />
    <glyph glyph-name="uni01CA" unicode="&#x1ca;" horiz-adv-x="1144" 
d="M655 380l3 -300q0 -90 -75 -90q-44 0 -69 41l-262 439q-2 -24 -2 -80l7 -292q0 -108 -76 -108t-76 108l8 272q0 37 -4 135t-4 166q0 89 74 89q51 0 74 -40l267 -458l-1 118l-8 272q0 108 76 108t76 -108zM1145 750l139 6q37 0 59.5 -18t22.5 -49q0 -54 -64 -66
q-1 -75 -1 -360q0 -75 -21 -131t-57 -87q-70 -60 -160.5 -60t-148.5 38.5t-58 79.5q0 28 18 45t43.5 17t63.5 -26.5t80 -26.5t73 41t31 130l-2 344l-138 -6q-38 0 -60 18t-22 49t22.5 49.5t59.5 18.5z" />
    <glyph glyph-name="uni01CB" unicode="&#x1cb;" horiz-adv-x="1118" 
d="M655 380l3 -300q0 -90 -75 -90q-44 0 -69 41l-262 439q-2 -24 -2 -80l7 -292q0 -108 -76 -108t-76 108l8 272q0 37 -4 135t-4 166q0 89 74 89q51 0 74 -40l267 -458l-1 118l-8 272q0 108 76 108t76 -108zM1145 750l139 6q37 0 59.5 -18t22.5 -49q0 -54 -64 -66
q-1 -75 -1 -360q0 -75 -21 -131t-57 -87q-70 -60 -160.5 -60t-148.5 38.5t-58 79.5q0 28 18 45t43.5 17t63.5 -26.5t80 -26.5t73 41t31 130l-2 344l-138 -6q-38 0 -60 18t-22 49t22.5 49.5t59.5 18.5z" />
    <glyph glyph-name="uni01CC" unicode="&#x1cc;" horiz-adv-x="961" 
d="M540 160l5 268q0 92 -30 148t-88 56t-118 -72.5t-84 -167.5l6 -294q0 -108 -75 -108q-84 0 -84 127q0 100 26 271q0 47 -11 143t-11 140.5t20 68t56 23.5q73 0 73 -113q87 110 209.5 110t187.5 -78.5t65 -191.5l-6 -255q0 -95 12 -107q7 -7 21 -10t23 -9t9 -21
q0 -42 -28.5 -71t-66.5 -29q-63 0 -87 43.5t-24 128.5zM989 750l139 6q37 0 59.5 -18t22.5 -49q0 -54 -64 -66q-1 -75 -1 -360q0 -75 -21 -131t-57 -87q-70 -60 -160.5 -60t-148.5 38.5t-58 79.5q0 28 18 45t43.5 17t63.5 -26.5t80 -26.5t73 41t31 130l-2 344l-138 -6
q-38 0 -60 18t-22 49t22.5 49.5t59.5 18.5z" />
    <glyph glyph-name="uni01CD" unicode="&#x1cd;" horiz-adv-x="689" 
d="M316.5 718.5q-15.5 -7.5 -34 -7.5t-34 7.5t-24.5 16.5t-26 27.5t-28 29.5t-28.5 27t-23.5 22q-17 17 -17 39t17.5 39.5t42 17.5t50.5 -23.5t44.5 -47.5t26.5 -24t26 24q56 72 97 72q23 0 40.5 -17.5t17.5 -34.5t-5.5 -27.5t-11.5 -16.5t-23.5 -22t-29 -27t-27.5 -30
t-25 -28t-24.5 -16.5zM454 221q-78 4 -129 4t-90 -2q-12 -31 -29.5 -92.5t-26.5 -87.5q-18 -53 -66 -53q-28 0 -45 17t-17 47.5t52 165.5q-52 12 -52 60q0 65 93 65q14 43 54 155t51.5 146.5t18 49.5t17.5 32q21 32 63 32q31 0 55 -19q15 -12 27 -46.5t24.5 -72t27 -77
t40 -114.5t29.5 -86q5 1 18 1q34 0 56 -19.5t22 -47.5q0 -46 -56 -61q56 -145 56 -168t-18.5 -41.5t-48.5 -18.5q-45 0 -66 50q-5 12 -60 181zM271 338q25 -2 74 -2t74 2q-65 236 -73 236q-7 0 -58 -177z" />
    <glyph glyph-name="uni01CE" unicode="&#x1ce;" horiz-adv-x="604" 
d="M279.5 540.5q-15.5 -7.5 -34 -7.5t-34 7.5t-24.5 16.5t-26 27.5t-28 29.5t-28.5 27t-23.5 22q-17 17 -17 39t17.5 39.5t42 17.5t50.5 -23.5t44.5 -47.5t26.5 -24t26 24q56 72 97 72q23 0 40.5 -17.5t17.5 -34.5t-5.5 -27.5t-11.5 -16.5t-23.5 -22t-29 -27t-27.5 -30
t-25 -28t-24.5 -16.5zM666.5 731.5q23.5 -33.5 23.5 -84t-28 -281.5q0 -54 11.5 -142.5t30.5 -101.5q18 -12 26 -15t11 -5q5 -5 5 -20q0 -38 -26 -67t-67.5 -29t-68.5 35.5t-37 90.5q-93 -127 -218 -127q-67 0 -120 34.5t-84 90.5q-63 114 -63 253q0 164 88 283t228 119
q82 0 156 -44q15 44 68 44q41 0 64.5 -33.5zM536 357l-5 220q-71 61 -153 61q-69 0 -121.5 -78.5t-52.5 -189.5t34.5 -184.5t96 -73.5t125 82t76.5 163z" />
    <glyph glyph-name="uni01CF" unicode="&#x1cf;" horiz-adv-x="389" 
d="M166.5 718.5q-15.5 -7.5 -34 -7.5t-34 7.5t-24.5 16.5t-26 27.5t-28 29.5t-28.5 27t-23.5 22q-17 17 -17 39t17.5 39.5t42 17.5t50.5 -23.5t44.5 -47.5t26.5 -24t26 24q56 72 97 72q23 0 40.5 -17.5t17.5 -34.5t-5.5 -27.5t-11.5 -16.5t-23.5 -22t-29 -27t-27.5 -30
t-25 -28t-24.5 -16.5zM125 756l122 -6l122 6q37 0 59.5 -18t22.5 -48.5t-22.5 -48.5t-59.5 -18l-47 3q-7 -148 -7 -251.5t7 -251.5q36 4 47 4q37 0 59.5 -18t22.5 -48.5t-22.5 -48.5t-59.5 -18l-122 6l-122 -7q-38 0 -60.5 18t-22.5 49t22.5 48.5t60.5 17.5l47 -4
q7 148 7 252t-7 252q-30 -3 -57.5 -3t-50 17.5t-22.5 48.5t22.5 49t60.5 18z" />
    <glyph glyph-name="uni01D0" unicode="&#x1d0;" horiz-adv-x="305" 
d="M124.5 540.5q-15.5 -7.5 -34 -7.5t-34 7.5t-24.5 16.5t-26 27.5t-28 29.5t-28.5 27t-23.5 22q-17 17 -17 39t17.5 39.5t42 17.5t50.5 -23.5t44.5 -47.5t26.5 -24t26 24q56 72 97 72q23 0 40.5 -17.5t17.5 -34.5t-5.5 -27.5t-11.5 -16.5t-23.5 -22t-29 -27t-27.5 -30
t-25 -28t-24.5 -16.5zM125 756l122 -6l122 6q37 0 59.5 -18t22.5 -48.5t-22.5 -48.5t-59.5 -18l-47 3q-7 -148 -7 -251.5t7 -251.5q36 4 47 4q37 0 59.5 -18t22.5 -48.5t-22.5 -48.5t-59.5 -18l-122 6l-122 -7q-38 0 -60.5 18t-22.5 49t22.5 48.5t60.5 17.5l47 -4
q7 148 7 252t-7 252q-30 -3 -57.5 -3t-50 17.5t-22.5 48.5t22.5 49t60.5 18z" />
    <glyph glyph-name="uni01D1" unicode="&#x1d1;" horiz-adv-x="795" 
d="M369.5 718.5q-15.5 -7.5 -34 -7.5t-34 7.5t-24.5 16.5t-26 27.5t-28 29.5t-28.5 27t-23.5 22q-17 17 -17 39t17.5 39.5t42 17.5t50.5 -23.5t44.5 -47.5t26.5 -24t26 24q56 72 97 72q23 0 40.5 -17.5t17.5 -34.5t-5.5 -27.5t-11.5 -16.5t-23.5 -22t-29 -27t-27.5 -30
t-25 -28t-24.5 -16.5zM559 191q59 80 59 185.5t-58.5 184t-148 78.5t-148 -78.5t-58.5 -184t59 -185.5t147.5 -80t147.5 80zM660.5 651.5q99.5 -113.5 99.5 -276t-100 -276.5t-248.5 -114t-248.5 114t-100 276.5t100.5 276t249 113.5t248 -113.5z" />
    <glyph glyph-name="uni01D2" unicode="&#x1d2;" horiz-adv-x="619" 
d="M280.5 540.5q-15.5 -7.5 -34 -7.5t-34 7.5t-24.5 16.5t-26 27.5t-28 29.5t-28.5 27t-23.5 22q-17 17 -17 39t17.5 39.5t42 17.5t50.5 -23.5t44.5 -47.5t26.5 -24t26 24q56 72 97 72q23 0 40.5 -17.5t17.5 -34.5t-5.5 -27.5t-11.5 -16.5t-23.5 -22t-29 -27t-27.5 -30
t-25 -28t-24.5 -16.5zM559 191q59 80 59 185.5t-58.5 184t-148 78.5t-148 -78.5t-58.5 -184t59 -185.5t147.5 -80t147.5 80zM660.5 651.5q99.5 -113.5 99.5 -276t-100 -276.5t-248.5 -114t-248.5 114t-100 276.5t100.5 276t249 113.5t248 -113.5z" />
    <glyph glyph-name="uni01D3" unicode="&#x1d3;" horiz-adv-x="755" 
d="M349.5 718.5q-15.5 -7.5 -34 -7.5t-34 7.5t-24.5 16.5t-26 27.5t-28 29.5t-28.5 27t-23.5 22q-17 17 -17 39t17.5 39.5t42 17.5t50.5 -23.5t44.5 -47.5t26.5 -24t26 24q56 72 97 72q23 0 40.5 -17.5t17.5 -34.5t-5.5 -27.5t-11.5 -16.5t-23.5 -22t-29 -27t-27.5 -30
t-25 -28t-24.5 -16.5zM656 652l-10 -396q0 -112 -71.5 -191.5t-203.5 -79.5t-203.5 79t-71.5 191l-10 396q0 109 76 109t76 -109l-7 -321q0 -159 70 -202q29 -17 70.5 -17t70 17.5t42.5 49.5q27 60 27 153l-7 321q0 109 76 109t76 -109z" />
    <glyph glyph-name="uni01D4" unicode="&#x1d4;" horiz-adv-x="657" 
d="M299.5 540.5q-15.5 -7.5 -34 -7.5t-34 7.5t-24.5 16.5t-26 27.5t-28 29.5t-28.5 27t-23.5 22q-17 17 -17 39t17.5 39.5t42 17.5t50.5 -23.5t44.5 -47.5t26.5 -24t26 24q56 72 97 72q23 0 40.5 -17.5t17.5 -34.5t-5.5 -27.5t-11.5 -16.5t-23.5 -22t-29 -27t-27.5 -30
t-25 -28t-24.5 -16.5zM549 359l-6 294q0 108 75 108q84 0 84 -127q0 -100 -26 -271q0 -54 11 -139t30 -98q18 -12 26 -15t11 -5q5 -5 5 -20q0 -38 -26 -67t-67.5 -29t-68.5 35.5t-37 90.5q-32 -52 -93 -88.5t-132 -36.5q-118 0 -183 78.5t-65 191.5l6 255q0 41 -10.5 88.5
t-10.5 80t22.5 54t58.5 21.5q83 0 83 -126l-7 -311q0 -92 30 -148t88 -56t118 72.5t84 167.5z" />
    <glyph glyph-name="uni01D5" unicode="&#x1d5;" horiz-adv-x="755" 
d="M213 1020h331v-93h-331v93zM216 824q0 31 17 46t46 15q28 0 46 -15t18 -46q0 -29 -18 -44.5t-46 -15.5q-29 0 -46 15.5t-17 44.5zM413 824q0 31 17 46t46 15q28 0 46 -15t18 -46q0 -29 -18 -44.5t-46 -15.5q-29 0 -46 15.5t-17 44.5zM656 652l-10 -396
q0 -112 -71.5 -191.5t-203.5 -79.5t-203.5 79t-71.5 191l-10 396q0 109 76 109t76 -109l-7 -321q0 -159 70 -202q29 -17 70.5 -17t70 17.5t42.5 49.5q27 60 27 153l-7 321q0 109 76 109t76 -109z" />
    <glyph glyph-name="uni01D6" unicode="&#x1d6;" horiz-adv-x="657" 
d="M163 855h331v-93h-331v93zM166 659q0 31 17 46t46 15q28 0 46 -15t18 -46q0 -29 -18 -44.5t-46 -15.5q-29 0 -46 15.5t-17 44.5zM363 659q0 31 17 46t46 15q28 0 46 -15t18 -46q0 -29 -18 -44.5t-46 -15.5q-29 0 -46 15.5t-17 44.5zM549 359l-6 294q0 108 75 108
q84 0 84 -127q0 -100 -26 -271q0 -54 11 -139t30 -98q18 -12 26 -15t11 -5q5 -5 5 -20q0 -38 -26 -67t-67.5 -29t-68.5 35.5t-37 90.5q-32 -52 -93 -88.5t-132 -36.5q-118 0 -183 78.5t-65 191.5l6 255q0 41 -10.5 88.5t-10.5 80t22.5 54t58.5 21.5q83 0 83 -126l-7 -311
q0 -92 30 -148t88 -56t118 72.5t84 167.5z" />
    <glyph glyph-name="uni01D7" unicode="&#x1d7;" horiz-adv-x="755" 
d="M313 901v13q52 59 92 132h162v-10q-24 -28 -72 -70t-82 -65h-100zM216 824q0 31 17 46t46 15q28 0 46 -15t18 -46q0 -29 -18 -44.5t-46 -15.5q-29 0 -46 15.5t-17 44.5zM413 824q0 31 17 46t46 15q28 0 46 -15t18 -46q0 -29 -18 -44.5t-46 -15.5q-29 0 -46 15.5t-17 44.5
zM656 652l-10 -396q0 -112 -71.5 -191.5t-203.5 -79.5t-203.5 79t-71.5 191l-10 396q0 109 76 109t76 -109l-7 -321q0 -159 70 -202q29 -17 70.5 -17t70 17.5t42.5 49.5q27 60 27 153l-7 321q0 109 76 109t76 -109z" />
    <glyph glyph-name="uni01D8" unicode="&#x1d8;" horiz-adv-x="657" 
d="M262 736v13q52 59 92 132h162v-10q-24 -28 -72 -70t-82 -65h-100zM165 659q0 31 17 46t46 15q28 0 46 -15t18 -46q0 -29 -18 -44.5t-46 -15.5q-29 0 -46 15.5t-17 44.5zM362 659q0 31 17 46t46 15q28 0 46 -15t18 -46q0 -29 -18 -44.5t-46 -15.5q-29 0 -46 15.5t-17 44.5
zM549 359l-6 294q0 108 75 108q84 0 84 -127q0 -100 -26 -271q0 -54 11 -139t30 -98q18 -12 26 -15t11 -5q5 -5 5 -20q0 -38 -26 -67t-67.5 -29t-68.5 35.5t-37 90.5q-32 -52 -93 -88.5t-132 -36.5q-118 0 -183 78.5t-65 191.5l6 255q0 41 -10.5 88.5t-10.5 80t22.5 54
t58.5 21.5q83 0 83 -126l-7 -311q0 -92 30 -148t88 -56t118 72.5t84 167.5z" />
    <glyph glyph-name="uni01D9" unicode="&#x1d9;" horiz-adv-x="755" 
d="M216 824q0 31 17 46t46 15q28 0 46 -15t18 -46q0 -29 -18 -44.5t-46 -15.5q-29 0 -46 15.5t-17 44.5zM413 824q0 31 17 46t46 15q28 0 46 -15t18 -46q0 -29 -18 -44.5t-46 -15.5q-29 0 -46 15.5t-17 44.5zM196 1047h69q71 -36 113 -74q38 34 113 74h69v-13
q-62 -62 -82 -85t-33 -42h-134q-23 34 -54.5 66t-60.5 61v13zM656 652l-10 -396q0 -112 -71.5 -191.5t-203.5 -79.5t-203.5 79t-71.5 191l-10 396q0 109 76 109t76 -109l-7 -321q0 -159 70 -202q29 -17 70.5 -17t70 17.5t42.5 49.5q27 60 27 153l-7 321q0 109 76 109
t76 -109z" />
    <glyph glyph-name="uni01DA" unicode="&#x1da;" horiz-adv-x="657" 
d="M166 659q0 31 17 46t46 15q28 0 46 -15t18 -46q0 -29 -18 -44.5t-46 -15.5q-29 0 -46 15.5t-17 44.5zM363 659q0 31 17 46t46 15q28 0 46 -15t18 -46q0 -29 -18 -44.5t-46 -15.5q-29 0 -46 15.5t-17 44.5zM146 882h69q71 -36 113 -74q38 34 113 74h69v-13
q-62 -62 -82 -85t-33 -42h-134q-23 34 -54.5 66t-60.5 61v13zM549 359l-6 294q0 108 75 108q84 0 84 -127q0 -100 -26 -271q0 -54 11 -139t30 -98q18 -12 26 -15t11 -5q5 -5 5 -20q0 -38 -26 -67t-67.5 -29t-68.5 35.5t-37 90.5q-32 -52 -93 -88.5t-132 -36.5
q-118 0 -183 78.5t-65 191.5l6 255q0 41 -10.5 88.5t-10.5 80t22.5 54t58.5 21.5q83 0 83 -126l-7 -311q0 -92 30 -148t88 -56t118 72.5t84 167.5z" />
    <glyph glyph-name="uni01DB" unicode="&#x1db;" horiz-adv-x="755" 
d="M343 901q-34 23 -81.5 64.5t-72.5 70.5v10h162q40 -73 92 -132v-13h-100zM216 824q0 31 17 46t46 15q28 0 46 -15t18 -46q0 -29 -18 -44.5t-46 -15.5q-29 0 -46 15.5t-17 44.5zM413 824q0 31 17 46t46 15q28 0 46 -15t18 -46q0 -29 -18 -44.5t-46 -15.5q-29 0 -46 15.5
t-17 44.5zM656 652l-10 -396q0 -112 -71.5 -191.5t-203.5 -79.5t-203.5 79t-71.5 191l-10 396q0 109 76 109t76 -109l-7 -321q0 -159 70 -202q29 -17 70.5 -17t70 17.5t42.5 49.5q27 60 27 153l-7 321q0 109 76 109t76 -109z" />
    <glyph glyph-name="uni01DC" unicode="&#x1dc;" horiz-adv-x="657" 
d="M292 736q-34 23 -81.5 64.5t-72.5 70.5v10h162q40 -73 92 -132v-13h-100zM165 659q0 31 17 46t46 15q28 0 46 -15t18 -46q0 -29 -18 -44.5t-46 -15.5q-29 0 -46 15.5t-17 44.5zM362 659q0 31 17 46t46 15q28 0 46 -15t18 -46q0 -29 -18 -44.5t-46 -15.5q-29 0 -46 15.5
t-17 44.5zM549 359l-6 294q0 108 75 108q84 0 84 -127q0 -100 -26 -271q0 -54 11 -139t30 -98q18 -12 26 -15t11 -5q5 -5 5 -20q0 -38 -26 -67t-67.5 -29t-68.5 35.5t-37 90.5q-32 -52 -93 -88.5t-132 -36.5q-118 0 -183 78.5t-65 191.5l6 255q0 41 -10.5 88.5t-10.5 80
t22.5 54t58.5 21.5q83 0 83 -126l-7 -311q0 -92 30 -148t88 -56t118 72.5t84 167.5z" />
    <glyph glyph-name="uni01DD" unicode="&#x1dd;" horiz-adv-x="590" 
d="M287 96q43 0 72 27.5t33 87.5h-209q1 -55 28 -85t76 -30zM266 556q133 0 206.5 -73.5t73.5 -205.5q0 -137 -68 -212t-190 -75q-115 0 -180 65.5t-65 182.5v72h352q-2 63 -37.5 99t-98.5 36q-46 0 -90 -9.5t-95 -33.5v115q42 21 88.5 30t103.5 9z" />
    <glyph glyph-name="uni01DE" unicode="&#x1de;" horiz-adv-x="689" 
d="M180 1020h331v-93h-331v93zM183 824q0 31 17 46t46 15q28 0 46 -15t18 -46q0 -29 -18 -44.5t-46 -15.5q-29 0 -46 15.5t-17 44.5zM380 824q0 31 17 46t46 15q28 0 46 -15t18 -46q0 -29 -18 -44.5t-46 -15.5q-29 0 -46 15.5t-17 44.5zM454 221q-78 4 -129 4t-90 -2
q-12 -31 -29.5 -92.5t-26.5 -87.5q-18 -53 -66 -53q-28 0 -45 17t-17 47.5t52 165.5q-52 12 -52 60q0 65 93 65q14 43 54 155t51.5 146.5t18 49.5t17.5 32q21 32 63 32q31 0 55 -19q15 -12 27 -46.5t24.5 -72t27 -77t40 -114.5t29.5 -86q5 1 18 1q34 0 56 -19.5t22 -47.5
q0 -46 -56 -61q56 -145 56 -168t-18.5 -41.5t-48.5 -18.5q-45 0 -66 50q-5 12 -60 181zM271 338q25 -2 74 -2t74 2q-65 236 -73 236q-7 0 -58 -177z" />
    <glyph glyph-name="uni01DF" unicode="&#x1df;" horiz-adv-x="604" 
d="M143 855h331v-93h-331v93zM146 659q0 31 17 46t46 15q28 0 46 -15t18 -46q0 -29 -18 -44.5t-46 -15.5q-29 0 -46 15.5t-17 44.5zM343 659q0 31 17 46t46 15q28 0 46 -15t18 -46q0 -29 -18 -44.5t-46 -15.5q-29 0 -46 15.5t-17 44.5zM666.5 731.5q23.5 -33.5 23.5 -84
t-28 -281.5q0 -54 11.5 -142.5t30.5 -101.5q18 -12 26 -15t11 -5q5 -5 5 -20q0 -38 -26 -67t-67.5 -29t-68.5 35.5t-37 90.5q-93 -127 -218 -127q-67 0 -120 34.5t-84 90.5q-63 114 -63 253q0 164 88 283t228 119q82 0 156 -44q15 44 68 44q41 0 64.5 -33.5zM536 357l-5 220
q-71 61 -153 61q-69 0 -121.5 -78.5t-52.5 -189.5t34.5 -184.5t96 -73.5t125 82t76.5 163z" />
    <glyph glyph-name="uni01E0" unicode="&#x1e0;" horiz-adv-x="689" 
d="M180 1020h331v-93h-331v93zM282 824q0 31 17 46t46 15q28 0 46 -15t18 -46q0 -29 -18 -44.5t-46 -15.5q-29 0 -46 15.5t-17 44.5zM454 221q-78 4 -129 4t-90 -2q-12 -31 -29.5 -92.5t-26.5 -87.5q-18 -53 -66 -53q-28 0 -45 17t-17 47.5t52 165.5q-52 12 -52 60
q0 65 93 65q14 43 54 155t51.5 146.5t18 49.5t17.5 32q21 32 63 32q31 0 55 -19q15 -12 27 -46.5t24.5 -72t27 -77t40 -114.5t29.5 -86q5 1 18 1q34 0 56 -19.5t22 -47.5q0 -46 -56 -61q56 -145 56 -168t-18.5 -41.5t-48.5 -18.5q-45 0 -66 50q-5 12 -60 181zM271 338
q25 -2 74 -2t74 2q-65 236 -73 236q-7 0 -58 -177z" />
    <glyph glyph-name="uni01E1" unicode="&#x1e1;" horiz-adv-x="604" 
d="M143 855h331v-93h-331v93zM245 659q0 31 17 46t46 15q28 0 46 -15t18 -46q0 -29 -18 -44.5t-46 -15.5q-29 0 -46 15.5t-17 44.5zM666.5 731.5q23.5 -33.5 23.5 -84t-28 -281.5q0 -54 11.5 -142.5t30.5 -101.5q18 -12 26 -15t11 -5q5 -5 5 -20q0 -38 -26 -67t-67.5 -29
t-68.5 35.5t-37 90.5q-93 -127 -218 -127q-67 0 -120 34.5t-84 90.5q-63 114 -63 253q0 164 88 283t228 119q82 0 156 -44q15 44 68 44q41 0 64.5 -33.5zM536 357l-5 220q-71 61 -153 61q-69 0 -121.5 -78.5t-52.5 -189.5t34.5 -184.5t96 -73.5t125 82t76.5 163z" />
    <glyph glyph-name="uni01E2" unicode="&#x1e2;" horiz-adv-x="952" 
d="M375 874h331v-103h-331v103zM365 338l-36 216q-7 0 -51 -162l-14 -54q30 -2 56 -2t45 2zM611 122l157 6q38 0 60.5 -17.5t22.5 -48.5t-22.5 -49.5t-60.5 -18.5l-157 6l-123 -5q-76 0 -88 64q-21 121 -28 166h-72q-68 -2 -72 -2q-12 -31 -29.5 -92.5t-26.5 -87.5
q-18 -53 -66 -53q-28 0 -45 17t-17 47.5t52 165.5q-52 12 -52 60q0 65 93 65q14 43 54 155t54 155q33 100 92 100l200 -5l167 6q38 0 60.5 -18.5t22.5 -49.5t-22.5 -48.5t-60.5 -17.5l-157 6q-54 0 -108 -4q13 -59 30 -161l187 6q36 0 59 -18.5t23 -49t-23 -48t-54 -17.5
t-85.5 2.5t-83.5 2.5q34 -190 41 -218q27 -1 78 -1z" />
    <glyph glyph-name="uni01E3" unicode="&#x1e3;" horiz-adv-x="916" 
d="M293 709h331v-103h-331v103zM1097 536q0 -81 -45 -137q-83 -102 -263 -102q-70 0 -139 8q16 -80 66.5 -138.5t102.5 -58.5t89.5 16t63.5 31.5t48 15.5t38 -15t16 -38q0 -39 -74 -85.5t-168 -46.5q-165 0 -258 130q-91 -130 -260 -130q-114 0 -192 74t-78 190
q0 96 78.5 163.5t196.5 67.5q88 0 180 -23q-6 97 -49.5 139t-106.5 42q-39 0 -73.5 -19.5t-63.5 -39t-56 -19.5t-46 16t-19 47q0 47 77 94t188 47q76 0 139.5 -31.5t103.5 -86.5q96 118 251 118q107 0 180 -65.5t73 -163.5zM186 247q0 -57 39.5 -95t91.5 -38q69 0 122.5 57
t57.5 159q-79 23 -155.5 23t-116 -32t-39.5 -74zM651 431q73 -14 142 -14t115.5 32t46.5 90q0 37 -29 68.5t-82 31.5q-71 0 -121.5 -61.5t-71.5 -146.5z" />
    <glyph glyph-name="uni01E4" unicode="&#x1e4;" horiz-adv-x="724" 
d="M361 421h283v-164h65v-97h-65v-129q-69 -22 -129.5 -31.5t-124.5 -9.5q-162 0 -247 95t-85 273q0 173 99 269.5t274 96.5q110 0 212 -44l-50 -121q-78 39 -163 39q-98 0 -157 -66t-59 -177q0 -249 191 -249q48 0 91 10v44h-125v97h125v48h-135v116z" />
    <glyph glyph-name="uni01E5" unicode="&#x1e5;" horiz-adv-x="632" 
d="M543 -91q-44 -149 -261 -149q-120 0 -204 32v114q101 -42 213 -42q35 0 61.5 11t36.5 34h-146v77h163v55l4 67h-4q-53 -81 -155 -81q-99 0 -152.5 68t-53.5 191q0 127 55.5 198.5t154.5 71.5q101 0 158 -80h4l12 70h126v-560h60v-77h-72zM304 139q61 0 86.5 30.5
t25.5 100.5v12q0 81 -27 117t-87 36q-52 0 -78.5 -36t-26.5 -113q0 -76 26 -111.5t81 -35.5z" />
    <glyph glyph-name="Gcaron" unicode="&#x1e6;" horiz-adv-x="724" 
d="M356.5 705.5q-15.5 -7.5 -34 -7.5t-34 7.5t-24.5 16.5t-26 27.5t-28 29.5t-28.5 27t-23.5 22q-17 17 -17 39t17.5 39.5t42 17.5t50.5 -23.5t44.5 -47.5t26.5 -24t26 24q56 72 97 72q23 0 40.5 -17.5t17.5 -34.5t-5.5 -27.5t-11.5 -16.5t-23.5 -22t-29 -27t-27.5 -30
t-25 -28t-24.5 -16.5zM400 425l114 -6l117 6q36 0 59 -23t23 -58q0 -164 -87.5 -261.5t-228.5 -97.5t-237 114t-96 277t99 276t250 113q97 0 176 -42t79 -91q0 -28 -18 -44.5t-46 -16.5t-53 16.5t-58 33.5t-80 17q-90 0 -148.5 -77t-58.5 -184t55.5 -186.5t140.5 -79.5
q64 0 109 48.5t54 136.5q-11 1 -54 1l-111 -5q-37 0 -60 18.5t-23 49t23 48t60 17.5z" />
    <glyph glyph-name="gcaron" unicode="&#x1e7;" horiz-adv-x="632" 
d="M257.5 540.5q-15.5 -7.5 -34 -7.5t-34 7.5t-24.5 16.5t-26 27.5t-28 29.5t-28.5 27t-23.5 22q-17 17 -17 39t17.5 39.5t42 17.5t50.5 -23.5t44.5 -47.5t26.5 -24t26 24q56 72 97 72q23 0 40.5 -17.5t17.5 -34.5t-5.5 -27.5t-11.5 -16.5t-23.5 -22t-29 -27t-27.5 -30
t-25 -28t-24.5 -16.5zM400 425l114 -6l117 6q36 0 59 -23t23 -58q0 -164 -87.5 -261.5t-228.5 -97.5t-237 114t-96 277t99 276t250 113q97 0 176 -42t79 -91q0 -28 -18 -44.5t-46 -16.5t-53 16.5t-58 33.5t-80 17q-90 0 -148.5 -77t-58.5 -184t55.5 -186.5t140.5 -79.5
q64 0 109 48.5t54 136.5q-11 1 -54 1l-111 -5q-37 0 -60 18.5t-23 49t23 48t60 17.5z" />
    <glyph glyph-name="uni01E8" unicode="&#x1e8;" horiz-adv-x="664" 
d="M319.5 705.5q-15.5 -7.5 -34 -7.5t-34 7.5t-24.5 16.5t-26 27.5t-28 29.5t-28.5 27t-23.5 22q-17 17 -17 39t17.5 39.5t42 17.5t50.5 -23.5t44.5 -47.5t26.5 -24t26 24q56 72 97 72q23 0 40.5 -17.5t17.5 -34.5t-5.5 -27.5t-11.5 -16.5t-23.5 -22t-29 -27t-27.5 -30
t-25 -28t-24.5 -16.5zM254 650q0 -15 -7 -183q34 2 45 2t51 -5q39 33 73 93t55 125q24 78 75 78q27 0 46.5 -18.5t19.5 -46.5q0 -59 -49 -152.5t-110 -159.5q48 -101 107 -181t83 -92q6 -3 17.5 -4.5t16.5 -6t5 -18.5q0 -33 -24.5 -62t-61.5 -29t-67.5 24.5t-73 88.5
t-129.5 216q-36 -6 -53.5 -6t-25.5 2l7 -216q0 -109 -76 -109t-76 109l8 281l-8 270q0 109 76 109t76 -109z" />
    <glyph glyph-name="uni01E9" unicode="&#x1e9;" horiz-adv-x="620" 
d="M308.5 725.5q-15.5 -7.5 -34 -7.5t-34 7.5t-24.5 16.5t-26 27.5t-28 29.5t-28.5 27t-23.5 22q-17 17 -17 39t17.5 39.5t42 17.5t50.5 -23.5t44.5 -47.5t26.5 -24t26 24q56 72 97 72q23 0 40.5 -17.5t17.5 -34.5t-5.5 -27.5t-11.5 -16.5t-23.5 -22t-29 -27t-27.5 -30
t-25 -28t-24.5 -16.5zM254 650q0 -15 -7 -183q34 2 45 2t51 -5q39 33 73 93t55 125q24 78 75 78q27 0 46.5 -18.5t19.5 -46.5q0 -59 -49 -152.5t-110 -159.5q48 -101 107 -181t83 -92q6 -3 17.5 -4.5t16.5 -6t5 -18.5q0 -33 -24.5 -62t-61.5 -29t-67.5 24.5t-73 88.5
t-129.5 216q-36 -6 -53.5 -6t-25.5 2l7 -216q0 -109 -76 -109t-76 109l8 281l-8 270q0 109 76 109t76 -109z" />
    <glyph glyph-name="uni01EA" unicode="&#x1ea;" horiz-adv-x="795" 
d="M624 -163q0 -31 -40 -59t-93 -28t-89 33t-36 87q0 84 75 143h157q-47 -24 -81.5 -64.5t-34.5 -57.5q0 -32 26 -32q8 0 32.5 10t43.5 10t29.5 -13.5t10.5 -28.5zM559 191q59 80 59 185.5t-58.5 184t-148 78.5t-148 -78.5t-58.5 -184t59 -185.5t147.5 -80t147.5 80z
M660.5 651.5q99.5 -113.5 99.5 -276t-100 -276.5t-248.5 -114t-248.5 114t-100 276.5t100.5 276t249 113.5t248 -113.5z" />
    <glyph glyph-name="uni01EB" unicode="&#x1eb;" horiz-adv-x="619" 
d="M525 -163q0 -31 -40 -59t-93 -28t-89 33t-36 87q0 84 75 143h157q-47 -24 -81.5 -64.5t-34.5 -57.5q0 -32 26 -32q8 0 32.5 10t43.5 10t29.5 -13.5t10.5 -28.5zM559 191q59 80 59 185.5t-58.5 184t-148 78.5t-148 -78.5t-58.5 -184t59 -185.5t147.5 -80t147.5 80z
M660.5 651.5q99.5 -113.5 99.5 -276t-100 -276.5t-248.5 -114t-248.5 114t-100 276.5t100.5 276t249 113.5t248 -113.5z" />
    <glyph glyph-name="uni01EC" unicode="&#x1ec;" horiz-adv-x="795" 
d="M624 -163q0 -31 -40 -59t-93 -28t-89 33t-36 87q0 84 75 143h157q-47 -24 -81.5 -64.5t-34.5 -57.5q0 -32 26 -32q8 0 32.5 10t43.5 10t29.5 -13.5t10.5 -28.5zM233 887h331v-103h-331v103zM559 191q59 80 59 185.5t-58.5 184t-148 78.5t-148 -78.5t-58.5 -184t59 -185.5
t147.5 -80t147.5 80zM660.5 651.5q99.5 -113.5 99.5 -276t-100 -276.5t-248.5 -114t-248.5 114t-100 276.5t100.5 276t249 113.5t248 -113.5z" />
    <glyph glyph-name="uni01ED" unicode="&#x1ed;" horiz-adv-x="619" 
d="M525 -163q0 -31 -40 -59t-93 -28t-89 33t-36 87q0 84 75 143h157q-47 -24 -81.5 -64.5t-34.5 -57.5q0 -32 26 -32q8 0 32.5 10t43.5 10t29.5 -13.5t10.5 -28.5zM144 709h331v-103h-331v103zM559 191q59 80 59 185.5t-58.5 184t-148 78.5t-148 -78.5t-58.5 -184t59 -185.5
t147.5 -80t147.5 80zM660.5 651.5q99.5 -113.5 99.5 -276t-100 -276.5t-248.5 -114t-248.5 114t-100 276.5t100.5 276t249 113.5t248 -113.5z" />
    <glyph glyph-name="uni01EE" unicode="&#x1ee;" horiz-adv-x="590" 
d="M138 419l176 170h-262v125h468v-97l-211 -201q118 -5 180.5 -58.5t62.5 -149.5q0 -102 -79.5 -160t-224.5 -58q-126 0 -220 39v128q45 -21 102.5 -34t108.5 -13q82 0 122 25.5t40 81.5q0 50 -51 73t-152 23h-60v106zM253.5 704.5q-15.5 -7.5 -34 -7.5t-34 7.5t-24.5 16.5
t-26 27.5t-28 29.5t-28.5 27t-23.5 22q-17 17 -17 39t17.5 39.5t42 17.5t50.5 -23.5t44.5 -47.5t26.5 -24t26 24q56 72 97 72q23 0 40.5 -17.5t17.5 -34.5t-5.5 -27.5t-11.5 -16.5t-23.5 -22t-29 -27t-27.5 -30t-25 -28t-24.5 -16.5z" />
    <glyph glyph-name="uni01EF" unicode="&#x1ef;" horiz-adv-x="581" 
d="M138 245l198 187h-288v114h472v-97l-216 -202q116 -13 177 -75t61 -171q0 -74 -35 -128.5t-102 -83.5t-161 -29q-123 0 -216 39v128q45 -22 100.5 -34.5t104.5 -12.5q77 0 117.5 33t40.5 95q0 67 -49.5 99t-145.5 32h-58v106zM250.5 540.5q-15.5 -7.5 -34 -7.5t-34 7.5
t-24.5 16.5t-26 27.5t-28 29.5t-28.5 27t-23.5 22q-17 17 -17 39t17.5 39.5t42 17.5t50.5 -23.5t44.5 -47.5t26.5 -24t26 24q56 72 97 72q23 0 40.5 -17.5t17.5 -34.5t-5.5 -27.5t-11.5 -16.5t-23.5 -22t-29 -27t-27.5 -30t-25 -28t-24.5 -16.5z" />
    <glyph glyph-name="uni01F0" unicode="&#x1f0;" horiz-adv-x="305" 
d="M125.5 540.5q-15.5 -7.5 -34 -7.5t-34 7.5t-24.5 16.5t-26 27.5t-28 29.5t-28.5 27t-23.5 22q-17 17 -17 39t17.5 39.5t42 17.5t50.5 -23.5t44.5 -47.5t26.5 -24t26 24q56 72 97 72q23 0 40.5 -17.5t17.5 -34.5t-5.5 -27.5t-11.5 -16.5t-23.5 -22t-29 -27t-27.5 -30
t-25 -28t-24.5 -16.5zM34 -240q-57 0 -98 12v117q34 -9 70 -9q38 0 55 21t17 62v583h149v-605q0 -87 -50.5 -134t-142.5 -47z" />
    <glyph glyph-name="uni01F1" unicode="&#x1f1;" horiz-adv-x="1309" 
d="M115 375l-5 228q-41 12 -41 57q0 30 43.5 55t99.5 36.5t106 11.5q98 0 175.5 -33t124.5 -88q95 -113 95 -270q0 -151 -92 -264q-45 -56 -120.5 -89.5t-179.5 -33.5t-180 30t-76 75t47 56zM572 376q0 108 -65.5 185t-188.5 77q-34 0 -64 -9q-3 -61 -3 -250t4 -261
q32 -7 72 -7q81 0 138 39q107 75 107 226zM1064 122l163 6q37 0 59.5 -18t22.5 -48.5t-22.5 -49t-59.5 -18.5l-163 6l-213 -6q-80 0 -80 64q0 39 47 106q81 115 166 258l122 205q-23 1 -80 1l-162 -6q-37 0 -59.5 18t-22.5 48.5t22.5 49t59.5 18.5l162 -6l189 6q80 0 80 -62
q0 -32 -16 -62t-71.5 -110t-106.5 -165l-140 -234q32 -1 103 -1z" />
    <glyph glyph-name="uni01F2" unicode="&#x1f2;" horiz-adv-x="1228" 
d="M115 375l-5 228q-41 12 -41 57q0 30 43.5 55t99.5 36.5t106 11.5q98 0 175.5 -33t124.5 -88q95 -113 95 -270q0 -151 -92 -264q-45 -56 -120.5 -89.5t-179.5 -33.5t-180 30t-76 75t47 56zM572 376q0 108 -65.5 185t-188.5 77q-34 0 -64 -9q-3 -61 -3 -250t4 -261
q32 -7 72 -7q81 0 138 39q107 75 107 226zM1074 122l163 6q37 0 59.5 -18t22.5 -48.5t-22.5 -49t-59.5 -18.5l-163 6l-213 -6q-80 0 -80 64q0 39 47 106q81 115 166 258l122 205q-23 1 -80 1l-162 -6q-37 0 -59.5 18t-22.5 48.5t22.5 49t59.5 18.5l162 -6l189 6q80 0 80 -62
q0 -32 -16 -62t-71.5 -110t-106.5 -165l-140 -234q32 -1 103 -1z" />
    <glyph glyph-name="uni01F3" unicode="&#x1f3;" horiz-adv-x="1121" 
d="M115 375l-5 228q-41 12 -41 57q0 30 43.5 55t99.5 36.5t106 11.5q98 0 175.5 -33t124.5 -88q95 -113 95 -270q0 -151 -92 -264q-45 -56 -120.5 -89.5t-179.5 -33.5t-180 30t-76 75t47 56zM572 376q0 108 -65.5 185t-188.5 77q-34 0 -64 -9q-3 -61 -3 -250t4 -261
q32 -7 72 -7q81 0 138 39q107 75 107 226zM967 122l163 6q37 0 59.5 -18t22.5 -48.5t-22.5 -49t-59.5 -18.5l-163 6l-213 -6q-80 0 -80 64q0 39 47 106q81 115 166 258l122 205q-23 1 -80 1l-162 -6q-37 0 -59.5 18t-22.5 48.5t22.5 49t59.5 18.5l162 -6l189 6q80 0 80 -62
q0 -32 -16 -62t-71.5 -110t-106.5 -165l-140 -234q32 -1 103 -1z" />
    <glyph glyph-name="uni01F4" unicode="&#x1f4;" horiz-adv-x="724" 
d="M400 425l114 -6l117 6q36 0 59 -23t23 -58q0 -164 -87.5 -261.5t-228.5 -97.5t-237 114t-96 277t99 276t250 113q97 0 176 -42t79 -91q0 -28 -18 -44.5t-46 -16.5t-53 16.5t-58 33.5t-80 17q-90 0 -148.5 -77t-58.5 -184t55.5 -186.5t140.5 -79.5q64 0 109 48.5t54 136.5
q-11 1 -54 1l-111 -5q-37 0 -60 18.5t-23 49t23 48t60 17.5zM414 842q0 -49 -52 -93t-88 -44q-23 0 -36 12.5t-13 29.5t20.5 47.5t23 35t9.5 21t11.5 24t12.5 17.5q17 19 48.5 19t47.5 -21.5t16 -47.5z" />
    <glyph glyph-name="uni01F5" unicode="&#x1f5;" horiz-adv-x="632" 
d="M400 425l114 -6l117 6q36 0 59 -23t23 -58q0 -164 -87.5 -261.5t-228.5 -97.5t-237 114t-96 277t99 276t250 113q97 0 176 -42t79 -91q0 -28 -18 -44.5t-46 -16.5t-53 16.5t-58 33.5t-80 17q-90 0 -148.5 -77t-58.5 -184t55.5 -186.5t140.5 -79.5q64 0 109 48.5t54 136.5
q-11 1 -54 1l-111 -5q-37 0 -60 18.5t-23 49t23 48t60 17.5zM293 677q0 -49 -52 -93t-88 -44q-23 0 -36 12.5t-13 29.5t20.5 47.5t23 35t9.5 21t11.5 24t12.5 17.5q17 19 48.5 19t47.5 -21.5t16 -47.5z" />
    <glyph glyph-name="uni01F6" unicode="&#x1f6;" horiz-adv-x="1047" 
d="M627 234q0 -64 21 -93t71 -29t71.5 30.5t21.5 102.5v301h151v-303q0 -253 -244 -253q-126 0 -184.5 55.5t-58.5 174.5v88h-235v-308h-151v714h151v-280h235v280h151v-480z" />
    <glyph glyph-name="uni01F7" unicode="&#x1f7;" horiz-adv-x="675" 
d="M241 -240h-151v954h115l24 -92h4q32 48 82.5 75.5t103.5 27.5q95 0 151 -70t56 -193q0 -103 -45 -193.5t-132 -158.5t-208 -106v-244zM375 599q-62 0 -98 -55t-36 -153v-246q104 42 168 129.5t64 186.5q0 67 -25.5 102.5t-72.5 35.5z" />
    <glyph glyph-name="uni01F8" unicode="&#x1f8;" horiz-adv-x="812" 
d="M655 380l3 -300q0 -90 -75 -90q-44 0 -69 41l-262 439q-2 -24 -2 -80l7 -292q0 -108 -76 -108t-76 108l8 272q0 37 -4 135t-4 166q0 89 74 89q51 0 74 -40l267 -458l-1 118l-8 272q0 108 76 108t76 -108zM139 842q0 26 16 47.5t39.5 21.5t35.5 -4.5t20.5 -14.5t13 -17.5
t11.5 -24t9.5 -21t23 -35t20.5 -47.5t-13 -29.5t-36 -12.5q-36 0 -88 44t-52 93z" />
    <glyph glyph-name="uni01F9" unicode="&#x1f9;" horiz-adv-x="657" 
d="M540 160l5 268q0 92 -30 148t-88 56t-118 -72.5t-84 -167.5l6 -294q0 -108 -75 -108q-84 0 -84 127q0 100 26 271q0 47 -11 143t-11 140.5t20 68t56 23.5q73 0 73 -113q87 110 209.5 110t187.5 -78.5t65 -191.5l-6 -255q0 -95 12 -107q7 -7 21 -10t23 -9t9 -21
q0 -42 -28.5 -71t-66.5 -29q-63 0 -87 43.5t-24 128.5zM61 677q0 26 16 47.5t39.5 21.5t35.5 -4.5t20.5 -14.5t13 -17.5t11.5 -24t9.5 -21t23 -35t20.5 -47.5t-13 -29.5t-36 -12.5q-36 0 -88 44t-52 93z" />
    <glyph glyph-name="Aringacute" unicode="&#x1fa;" horiz-adv-x="689" 
d="M468 714q0 -42 -23 -72l245 -642h-162l-52 161h-261l-53 -161h-162l244 642q-21 28 -21 71q0 54 33.5 85t87.5 31q53 0 88.5 -31.5t35.5 -83.5zM444 288l-50 141q-42 112 -49 146q-9 -35 -42 -130l-55 -157h196zM285 856v8q22 21 48 50t37 44h167v-6q-11 -13 -55.5 -41
t-97.5 -55h-99zM391 713q0 22 -13 34.5t-34 12.5t-34 -12.5t-13 -34.5q0 -45 42 -47h9q19 1 31 13.5t12 33.5z" />
    <glyph glyph-name="aringacute" unicode="&#x1fb;" horiz-adv-x="604" 
d="M230 856v8q22 21 48 50t37 44h167v-6q-10 -12 -50 -37.5t-103 -58.5h-99zM425 0l-29 74h-4q-38 -47 -77.5 -65.5t-103.5 -18.5q-79 0 -124 45t-45 128q0 87 61 128.5t183 45.5l95 3v24q0 83 -85 83q-65 0 -154 -40l-49 101q94 49 209 49q110 0 168.5 -48t58.5 -145v-364
h-104zM381 253l-58 -2q-65 -2 -96.5 -23.5t-31.5 -65.5q0 -63 72 -63q52 0 83 30t31 79v45zM430 702q0 -53 -34.5 -85t-89.5 -32t-88 31t-33 85q0 53 33 84.5t88 31.5q54 0 89 -32.5t35 -82.5zM353 701q0 22 -13 34.5t-34 12.5t-34 -12.5t-13 -34.5t12 -34.5t35 -12.5
q21 0 34 12.5t13 34.5z" />
    <glyph glyph-name="AEacute" unicode="&#x1fc;" horiz-adv-x="952" 
d="M365 338l-36 216q-7 0 -51 -162l-14 -54q30 -2 56 -2t45 2zM611 122l157 6q38 0 60.5 -17.5t22.5 -48.5t-22.5 -49.5t-60.5 -18.5l-157 6l-123 -5q-76 0 -88 64q-21 121 -28 166h-72q-68 -2 -72 -2q-12 -31 -29.5 -92.5t-26.5 -87.5q-18 -53 -66 -53q-28 0 -45 17
t-17 47.5t52 165.5q-52 12 -52 60q0 65 93 65q14 43 54 155t54 155q33 100 92 100l200 -5l167 6q38 0 60.5 -18.5t22.5 -49.5t-22.5 -48.5t-60.5 -17.5l-157 6q-54 0 -108 -4q13 -59 30 -161l187 6q36 0 59 -18.5t23 -49t-23 -48t-54 -17.5t-85.5 2.5t-83.5 2.5
q34 -190 41 -218q27 -1 78 -1zM592 842q0 -49 -52 -93t-88 -44q-23 0 -36 12.5t-13 29.5t20.5 47.5t23 35t9.5 21t11.5 24t12.5 17.5q17 19 48.5 19t47.5 -21.5t16 -47.5z" />
    <glyph glyph-name="aeacute" unicode="&#x1fd;" horiz-adv-x="916" 
d="M1097 536q0 -81 -45 -137q-83 -102 -263 -102q-70 0 -139 8q16 -80 66.5 -138.5t102.5 -58.5t89.5 16t63.5 31.5t48 15.5t38 -15t16 -38q0 -39 -74 -85.5t-168 -46.5q-165 0 -258 130q-91 -130 -260 -130q-114 0 -192 74t-78 190q0 96 78.5 163.5t196.5 67.5
q88 0 180 -23q-6 97 -49.5 139t-106.5 42q-39 0 -73.5 -19.5t-63.5 -39t-56 -19.5t-46 16t-19 47q0 47 77 94t188 47q76 0 139.5 -31.5t103.5 -86.5q96 118 251 118q107 0 180 -65.5t73 -163.5zM186 247q0 -57 39.5 -95t91.5 -38q69 0 122.5 57t57.5 159q-79 23 -155.5 23
t-116 -32t-39.5 -74zM651 431q73 -14 142 -14t115.5 32t46.5 90q0 37 -29 68.5t-82 31.5q-71 0 -121.5 -61.5t-71.5 -146.5zM491 677q0 -49 -52 -93t-88 -44q-23 0 -36 12.5t-13 29.5t20.5 47.5t23 35t9.5 21t11.5 24t12.5 17.5q17 19 48.5 19t47.5 -21.5t16 -47.5z" />
    <glyph glyph-name="Oslashacute" unicode="&#x1fe;" horiz-adv-x="795" 
d="M412 765l20 -1q22 75 74 75q31 0 50.5 -20.5t19.5 -44.5t-6 -50q87 -48 138.5 -141.5t51.5 -207.5q0 -162 -100 -276t-249 -114l-22 1q-22 -70 -72 -70q-31 0 -50.5 20.5t-19.5 52.5q0 14 5 37q-87 49 -138 142.5t-51 206.5q0 163 100.5 276.5t248.5 113.5zM618 375
q0 64 -22.5 120.5t-62.5 93.5q-55 -194 -115 -478q86 3 143 82.5t57 181.5zM289 162q73 267 115 477q-87 -4 -143 -82t-56 -182q0 -62 22 -118.5t62 -94.5zM413 842q0 -49 -52 -93t-88 -44q-23 0 -36 12.5t-13 29.5t20.5 47.5t23 35t9.5 21t11.5 24t12.5 17.5q17 19 48.5 19
t47.5 -21.5t16 -47.5z" />
    </font>
</defs>
</svg>
