<?xml version="1.0" standalone="no"?>
<!DOCTYPE svg PUBLIC "-//W3C//DTD SVG 1.1//EN" "http://www.w3.org/Graphics/SVG/1.1/DTD/svg11.dtd" >
<svg xmlns="http://www.w3.org/2000/svg" xmlns:xlink="http://www.w3.org/1999/xlink" version="1.1">
<metadata>
Created by FontForge 20190801 at Mon Feb  8 12:13:59 2021
 By root
Copyright (c) 2010, 2011, Natalia Raices&#60;nraices@gmail.com&#62;, with Reserved Font Name "Delius" "Delius Unicase" "Delius Swash Caps".
</metadata>
<defs>
<font id="DeliusUnicase-Regular" horiz-adv-x="313" >
  <font-face 
    font-family="Delius Unicase"
    font-weight="400"
    font-stretch="normal"
    units-per-em="1000"
    panose-1="2 0 6 3 0 0 0 0 0 0"
    ascent="800"
    descent="-200"
    x-height="755"
    cap-height="756"
    bbox="-213 -241 1300 1046"
    underline-thickness="50"
    underline-position="-200"
    unicode-range="U+0001-206F"
  />
<missing-glyph horiz-adv-x="364" 
d="M33 0v666h265v-666h-265zM66 33h199v600h-199v-600z" />
    <glyph glyph-name=".notdef" horiz-adv-x="364" 
d="M33 0v666h265v-666h-265zM66 33h199v600h-199v-600z" />
    <glyph glyph-name="uni0000" 
 />
    <glyph glyph-name="uni0000" 
 />
    <glyph glyph-name="uni000D" unicode="&#xd;" 
 />
    <glyph glyph-name="uni0001" 
 />
    <glyph glyph-name="uni0002" 
 />
    <glyph glyph-name="uni0003" 
 />
    <glyph glyph-name="uni0004" 
 />
    <glyph glyph-name="uni0005" 
 />
    <glyph glyph-name="uni0006" 
 />
    <glyph glyph-name="uni0007" 
 />
    <glyph glyph-name="uni0008" 
 />
    <glyph glyph-name="uni0009" unicode="&#x9;" 
 />
    <glyph glyph-name="uni000A" unicode="&#xa;" 
 />
    <glyph glyph-name="uni000B" 
 />
    <glyph glyph-name="uni000C" 
 />
    <glyph glyph-name="uni000E" 
 />
    <glyph glyph-name="uni000F" 
 />
    <glyph glyph-name="uni0010" 
 />
    <glyph glyph-name="uni0011" 
 />
    <glyph glyph-name="uni0012" 
 />
    <glyph glyph-name="uni0013" 
 />
    <glyph glyph-name="uni0014" 
 />
    <glyph glyph-name="uni0015" 
 />
    <glyph glyph-name="uni0016" 
 />
    <glyph glyph-name="uni0017" 
 />
    <glyph glyph-name="uni0018" 
 />
    <glyph glyph-name="uni0019" 
 />
    <glyph glyph-name="uni001A" 
 />
    <glyph glyph-name="uni001B" 
 />
    <glyph glyph-name="uni001C" 
 />
    <glyph glyph-name="uni001D" 
 />
    <glyph glyph-name="uni001E" 
 />
    <glyph glyph-name="uni001F" 
 />
    <glyph glyph-name="space" unicode=" " 
 />
    <glyph glyph-name="exclam" unicode="!" horiz-adv-x="289" 
d="M186 95q13 -17 13 -42.5t-17 -46.5t-41 -21t-37.5 18.5t-13.5 43.5t16.5 45t41.5 20t38 -17zM188 467l1 -201q0 -26 -12 -41t-33 -15t-33 15t-12 41l2 201l-8 228q0 30 13.5 47.5t37.5 17.5t37.5 -17.5t13.5 -47.5z" />
    <glyph glyph-name="quotedbl" unicode="&#x22;" horiz-adv-x="413" 
d="M166 704l-12 -108q-2 -43 -9.5 -61t-26.5 -18t-26.5 18t-9.5 61l-12 108q0 26 13 41t35 15t35 -15t13 -41zM343 704l-12 -108q-2 -43 -9.5 -61t-26.5 -18t-26.5 18t-9.5 61l-12 108q0 26 13 41t35 15t35 -15t13 -41z" />
    <glyph glyph-name="numbersign" unicode="#" horiz-adv-x="858" 
d="M361 431q-29 -138 -32 -157h169q6 24 17.5 83.5t14.5 73.5h-169zM691 196l-127 3q-8 -43 -31 -164q-8 -45 -45 -45q-18 0 -28.5 11.5t-10.5 26t35 172.5h-167q-6 -30 -31 -165q-8 -45 -45 -45q-18 0 -28.5 11.5t-10.5 23.5t6.5 43.5t15 71.5t11.5 60l-113 -4
q-59 0 -59 42q0 40 59 40l127 -4q6 24 17.5 83t14.5 72l-114 -2q-59 0 -59 39q0 41 59 41l129 -3q9 43 31 164q8 45 45 45q18 0 28.5 -11.5t10.5 -26.5t-35 -172h167q6 30 31 165q8 45 45 45q17 0 28 -11.5t11 -23.5t-6.5 -43t-15.5 -72t-12 -60l112 4q59 0 59 -41
q0 -39 -59 -39q-22 0 -127 3q-28 -130 -32 -155l114 3q59 0 59 -40q0 -42 -59 -42z" />
    <glyph glyph-name="dollar" unicode="$" horiz-adv-x="624" 
d="M505 64q-53 -53 -139 -68q0 -81 -46 -81t-46 78q-79 7 -143 46.5t-64 75.5q0 18 12 30t29.5 12t35.5 -11t32 -24.5t41 -26.5t59 -17q3 189 3 267q-80 44 -118.5 76t-53 61t-14.5 63q0 62 50.5 110t129.5 60q0 87 46 87t46 -87q64 -8 108.5 -35t44.5 -58q0 -19 -12 -30
t-33 -11t-53 21t-58 28q-3 -174 -3 -230q46 -25 73.5 -42t60.5 -44q65 -53 65 -125t-53 -125zM462 188q0 55 -103 113q0 -2 4 -218q44 12 71.5 39t27.5 66zM213.5 598q-24.5 -23 -24.5 -52t22.5 -52t67.5 -51q-4 180 -4 187q-37 -9 -61.5 -32z" />
    <glyph glyph-name="percent" unicode="%" horiz-adv-x="874" 
d="M620 700q0 -50 -58 -111q-1 -3 -50 -143.5t-97 -279.5t-52 -148q-13 -33 -46 -33q-16 0 -28 11t-12 29t25 79q104 257 167 451q-18 -3 -42.5 -3t-62.5 12q2 -16 2 -27q0 -74 -42 -124.5t-110 -50.5t-109.5 49t-41.5 124.5t43 126.5t110 51q31 0 59.5 -14t46.5 -31
q50 -44 96 -44t72 14q26 97 48 114q11 8 31 8t35.5 -17t15.5 -43zM267.5 462.5q18.5 28.5 18.5 74t-18 75t-52 29.5t-53.5 -29t-19.5 -74t19 -74.5t53 -29.5t52.5 28.5zM770.5 287q41.5 -49 41.5 -124.5t-43 -126.5t-111.5 -51t-110 49t-41.5 125t43 126.5t111.5 50.5
t110 -49zM712.5 86q19.5 29 19.5 74t-19 74.5t-53.5 29.5t-54 -29t-19.5 -73.5t19.5 -74.5t53.5 -30t53.5 29z" />
    <glyph glyph-name="ampersand" unicode="&#x26;" horiz-adv-x="835" 
d="M455 370l83 -2q168 0 168 91q0 31 -18.5 51t-40.5 28q-59 20 -59 55q0 18 12 29.5t33 11.5q57 0 111 -53.5t54 -119.5q0 -89 -63.5 -130.5t-157.5 -43.5q18 -42 18 -84q0 -90 -73.5 -154t-189 -64t-193 72.5t-77.5 181.5q0 63 31 122.5t83 98.5q-64 60 -64 130.5
t50.5 122.5t142.5 52q57 0 105.5 -28t48.5 -60q0 -20 -12 -31t-28 -11t-46.5 21.5t-71.5 21.5t-68.5 -23.5t-27.5 -61.5q0 -57 52 -92q44 4 47 4q30 0 49 -14t19 -38.5t-21 -39t-51.5 -14.5t-50.5 10q-42 -25 -67 -68t-25 -94q0 -78 49 -126.5t125 -48.5t123.5 39.5
t47.5 90.5q0 78 -32 78q-18 0 -38.5 -10t-39 -10t-30.5 13.5t-12 32.5q0 30 29.5 47t75.5 17z" />
    <glyph glyph-name="quotesingle" unicode="'" horiz-adv-x="236" 
d="M166 704l-12 -108q-2 -43 -9.5 -61t-26.5 -18t-26.5 18t-9.5 61l-12 108q0 26 13 41t35 15t35 -15t13 -41z" />
    <glyph glyph-name="parenleft" unicode="(" horiz-adv-x="347" 
d="M84.5 209q-22.5 91 -22.5 176t20.5 167.5t51 143t65 100t60 39.5t39.5 -14t14 -31.5t-16.5 -43t-39.5 -58.5t-46 -76t-39.5 -109.5t-16.5 -150t22 -162.5t48.5 -123t48.5 -78.5t22 -45t-7 -19t-22 -8.5q-25 0 -59.5 38.5t-67 101t-55 153.5z" />
    <glyph glyph-name="parenright" unicode=")" horiz-adv-x="347" 
d="M264.5 552.5q20.5 -82.5 20.5 -167.5t-22.5 -176t-55 -153.5t-67 -101t-59.5 -38.5q-15 0 -22 8.5t-7 19t22 45t48.5 78.5t48.5 123t22 162.5t-16.5 150t-39.5 109.5t-46 76t-39.5 58.5t-16.5 43t14 31.5t39.5 14t60 -39.5t65 -100t51 -143z" />
    <glyph glyph-name="asterisk" unicode="*" horiz-adv-x="476" 
d="M204 642l-10 74q0 22 12 35.5t32 13.5t32 -13.5t12 -30.5t-5 -41.5t-5 -37.5q7 5 26 20q40 32 58 32t30 -11t12 -29.5t-16.5 -31t-47.5 -22.5t-36 -13q5 -3 36 -13t47.5 -22.5t16.5 -31.5t-12 -29.5t-26.5 -10.5t-28.5 8t-33.5 23.5t-26.5 20.5l11 -72q0 -22 -12 -36
t-32 -14t-32 14t-12 30.5t5.5 41t5.5 36.5q-7 -5 -27 -20q-39 -32 -57.5 -32t-30.5 10.5t-12 29.5t16.5 31.5t47.5 22.5t36 13q-5 3 -36 13t-47.5 22.5t-16.5 31t12 29.5t26 11t28 -8t33.5 -23.5t26.5 -20.5z" />
    <glyph glyph-name="plus" unicode="+" horiz-adv-x="601" 
d="M113 418l150 -3q0 70 -2 107t-2 39q0 23 11.5 36t30.5 13t31 -13.5t12 -36.5q0 -2 -1 -20q-3 -54 -3 -125l150 2q22 0 36 -12t14 -30t-14 -30t-36 -12l-150 3l4 -159q0 -23 -11.5 -37t-31 -14t-31 14.5t-11.5 37.5l4 159l-150 -3q-22 0 -36 12t-14 30t14 30t36 12z" />
    <glyph glyph-name="comma" unicode="," horiz-adv-x="251" 
d="M177 36q0 -54 -36 -119t-67 -65t-31 26q0 14 15.5 39.5t15.5 45t-4 37.5t-4 40.5t16 43t41.5 20.5t39.5 -18.5t14 -49.5z" />
    <glyph glyph-name="hyphen" unicode="-" horiz-adv-x="498" 
d="M249 336l-119 -3q-22 0 -35.5 12t-13.5 30t13.5 30t35.5 12l119 -3l119 3q22 0 35.5 -12t13.5 -30t-13.5 -30t-35.5 -12z" />
    <glyph glyph-name="period" unicode="." horiz-adv-x="254" 
d="M168.5 102q13.5 -17 13.5 -43.5t-17 -47.5t-41.5 -21t-38.5 18t-14 44t16.5 46.5t42 20.5t39 -17z" />
    <glyph glyph-name="slash" unicode="/" horiz-adv-x="433" 
d="M284.5 822q13.5 13 33.5 13t31.5 -15t11.5 -31t-14 -71.5t-41 -159.5q-72 -284 -136 -578q-7 -31 -18.5 -47.5t-33.5 -16.5t-34.5 14t-12.5 30.5t12 64.5t40 157q66 257 144 605q4 22 17.5 35z" />
    <glyph glyph-name="zero" unicode="0" horiz-adv-x="728" 
d="M574.5 650q76.5 -115 76.5 -275.5t-76.5 -275t-207.5 -114.5t-210.5 115.5t-79.5 274.5q0 102 33.5 190t101 144t154.5 56q132 0 208.5 -115zM555 375q0 125 -51 214t-137 89t-140 -90t-54 -213t54 -213t140 -90t137 89t51 214z" />
    <glyph glyph-name="one" unicode="1" horiz-adv-x="467" 
d="M331 698l-4 -318q0 -154 3.5 -232.5t3.5 -86.5q0 -71 -51 -71q-22 0 -34 14t-14.5 29.5t-2.5 32t3 120.5t3 193l-1 246l-72 -108q-5 -7 -12 -18t-11 -16t-9.5 -13.5t-9 -12.5t-8.5 -10t-8.5 -8.5t-8.5 -5.5q-7 -5 -22 -5t-26.5 12t-11.5 29.5t14.5 40.5t39.5 54.5
t27.5 35t6.5 8.5t15 19t31.5 42.5t30 41.5t22.5 27q22 22 48.5 22t42 -18t15.5 -44z" />
    <glyph glyph-name="two" unicode="2" horiz-adv-x="618" 
d="M311 0l-185 -5q-29 0 -47 13.5t-18 43t36 81t87.5 108.5t103.5 115q123 137 123 206q0 55 -34.5 85.5t-84.5 30.5q-28 0 -51 -12.5t-34 -25t-22.5 -30.5t-17.5 -25q-17 -20 -37 -20t-32.5 13t-12.5 30q0 48 60 102.5t155 54.5t151 -57t56 -140q0 -50 -41 -120.5
t-91.5 -128t-111.5 -127t-85 -105.5q55 -5 116 -5t125 3.5t82 3.5t34.5 -12.5t16.5 -34.5t-16.5 -34.5t-43.5 -12.5z" />
    <glyph glyph-name="three" unicode="3" horiz-adv-x="628" 
d="M305 750l166 5q27 0 44 -14t17 -36q0 -42 -68.5 -111.5t-109.5 -119.5q95 -25 151 -90t56 -147q0 -100 -69.5 -176t-189.5 -76q-91 0 -160.5 50.5t-69.5 93.5q0 14 10 25.5t24.5 11.5t33.5 -14.5t37.5 -32.5t51.5 -32.5t71 -14.5q72 0 118.5 46.5t46.5 116t-49 113.5
t-115 50q-33 -33 -55 -45t-47.5 -12t-39.5 14.5t-14 40t27 50t81 36.5q68 75 157 183q-29 3 -85.5 3t-110.5 -3.5t-70.5 -3.5t-33 12.5t-16.5 34.5t16.5 34.5t43.5 12.5z" />
    <glyph glyph-name="four" unicode="4" horiz-adv-x="648" 
d="M482 329l51 3q28 0 44.5 -12.5t16.5 -32.5t-16.5 -32.5t-44.5 -12.5l-51 1l6 -193q0 -27 -13 -43t-36.5 -16t-36.5 16t-13 43l4 193h-69l-228 -1q-26 0 -41 14t-15 35.5t18.5 50t78.5 104.5l204 262q41 52 84 52q26 0 44.5 -16.5t18.5 -53.5q0 -9 -2 -56q-4 -143 -4 -305
zM157 327h237q0 46 -1.5 165.5t-1.5 136.5q-112 -133 -234 -302z" />
    <glyph glyph-name="five" unicode="5" horiz-adv-x="645" 
d="M325 750l152 5q27 0 43.5 -12.5t16.5 -34.5t-16.5 -34.5t-33 -12.5t-71 4t-85.5 4t-75.5 -2t-62.5 -2q5 -37 5 -105l-5 -106q68 44 144 44q114 0 177 -70.5t63 -178t-71 -186t-192 -78.5q-101 0 -168 56.5t-67 108.5q0 18 12.5 31.5t27 13.5t23.5 -5t13.5 -10.5
t12.5 -17.5q60 -90 153 -90q69 0 115 54t46 125t-40.5 117.5t-109.5 46.5q-65 0 -144 -56q-26 -19 -42 -19q-50 0 -50 50q0 13 7 71t7 98.5t-6 81.5t-6 58q0 55 66 55z" />
    <glyph glyph-name="six" unicode="6" horiz-adv-x="647" 
d="M517 414q62 -73 62 -173.5t-65 -177.5t-183 -77t-186 84.5t-68 214.5q0 196 111 335.5t278 139.5q37 0 56.5 -12t19.5 -31q0 -48 -65 -48q-109 0 -190.5 -73.5t-104.5 -179.5q69 71 171 71t164 -73zM223.5 121q40.5 -48 106.5 -48t109.5 47t43.5 116t-41.5 116.5
t-106.5 47.5t-108.5 -47.5t-43.5 -115.5t40.5 -116z" />
    <glyph glyph-name="seven" unicode="7" horiz-adv-x="560" 
d="M273 750l166 4q81 0 81 -59q0 -22 -21.5 -65t-64.5 -123q-114 -212 -190 -476q-12 -40 -49 -40q-20 0 -33 14t-13 42t22.5 90t66.5 164.5t81 180t58 119.5t28 62q-52 5 -112.5 5t-120 -3.5t-76.5 -3.5t-33.5 12.5t-16.5 34.5t16.5 34.5t43.5 12.5z" />
    <glyph glyph-name="eight" unicode="8" horiz-adv-x="646" 
d="M572 204q0 -91 -70 -155t-179 -64t-179 64t-70 155q0 133 163 215q-123 72 -123 171q0 72 59.5 124t149 52t149.5 -52t60 -124q0 -96 -116 -171q156 -83 156 -215zM476 204q0 100 -153 167q-153 -67 -153 -167q0 -59 44 -95.5t109 -36.5t109 36.5t44 95.5zM439 590
q0 37 -35.5 63t-80 26t-80.5 -26t-36 -62.5t31 -65.5t87 -61q54 30 84 59.5t30 66.5z" />
    <glyph glyph-name="nine" unicode="9" horiz-adv-x="645" 
d="M128 341q-62 76 -62 175.5t68 174t183 74.5t183 -84t68 -215q0 -203 -110.5 -341.5t-278.5 -138.5q-36 0 -55.5 13t-19.5 32.5t16 34t50 14.5q109 0 189.5 73.5t104.5 183.5q-72 -72 -173 -72t-163 76zM205 631q-43 -47 -43 -116t39.5 -116t107.5 -47t112 51.5t44 117.5
t-43.5 111.5t-108.5 45.5t-108 -47z" />
    <glyph glyph-name="colon" unicode=":" horiz-adv-x="273" 
d="M178.5 487q13.5 -17 13.5 -43t-17 -47.5t-41.5 -21.5t-38.5 18t-14 44t16.5 46.5t42 20.5t39 -17zM178.5 102q13.5 -17 13.5 -43.5t-17 -47.5t-41.5 -21t-38.5 18t-14 44t16.5 46.5t42 20.5t39 -17z" />
    <glyph glyph-name="semicolon" unicode=";" horiz-adv-x="283" 
d="M183.5 487q13.5 -17 13.5 -43t-17 -47.5t-41.5 -21.5t-38.5 18t-14 44t16.5 46.5t42 20.5t39 -17zM196 36q0 -54 -36 -119t-67 -65t-31 26q0 14 15.5 39.5t15.5 45t-4 37.5t-4 40.5t16 43t41.5 20.5t39.5 -18.5t14 -49.5z" />
    <glyph glyph-name="less" unicode="&#x3c;" horiz-adv-x="620" 
d="M85 376q0 18 8.5 32t31.5 27.5t41 21.5t61.5 24.5t70 27.5t64.5 27t57.5 24.5t42.5 17.5q42 15 60.5 15t30.5 -10.5t12 -26.5q0 -27 -34 -42q-37 -15 -95 -36.5t-82 -31.5q-152 -60 -152 -70q0 -8 114 -54l37 -16q24 -10 82 -31.5t95 -36.5q34 -15 34 -42
q0 -16 -12 -26.5t-25.5 -10.5t-28 3.5t-37.5 12t-43 17.5q-109 47 -172 71t-80.5 32t-40.5 21.5t-31.5 27.5t-8.5 32z" />
    <glyph glyph-name="equal" unicode="=" horiz-adv-x="662" 
d="M326 412l-184 -3q-22 0 -35.5 12t-13.5 30t13.5 30t35.5 12l184 -3l194 3q22 0 35.5 -12t13.5 -30t-13.5 -30t-35.5 -12zM326 258l-184 -3q-22 0 -35.5 12t-13.5 30t13.5 30t35.5 12l184 -3l194 3q22 0 35.5 -12t13.5 -30t-13.5 -30t-35.5 -12z" />
    <glyph glyph-name="greater" unicode="&#x3e;" horiz-adv-x="620" 
d="M535 376q0 -18 -8.5 -32t-31.5 -27.5t-40.5 -21.5t-61 -24.5t-70 -27.5t-64.5 -27t-57.5 -24.5t-42.5 -17.5q-42 -15 -60.5 -15t-30.5 10.5t-12 26.5q0 27 34 42q37 15 95 36.5t82 31.5q151 60 151 70q0 8 -114 54l-38 16q-24 10 -82 31.5t-95 36.5q-34 15 -34 42
q0 16 12 26.5t25.5 10.5t28 -3.5t37.5 -12t42 -17.5q110 -47 173 -71t81 -32t41 -21.5t31.5 -27.5t8.5 -32z" />
    <glyph glyph-name="question" unicode="?" horiz-adv-x="521" 
d="M456 580q0 -38 -16.5 -74t-32 -54.5t-47.5 -51.5q-30 -25 -45.5 -39.5t-30 -38.5t-14.5 -48q0 -66 -45 -66q-20 0 -33 17.5t-13 46.5t8 53t27 47q26 31 74 74q24 27 36 42t24 41t12 51q0 43 -32.5 70.5t-73.5 27.5q-61 0 -105 -44q-24 -28 -43.5 -28t-30.5 12.5t-11 29.5
q0 38 57.5 78t127.5 40q92 0 149.5 -53.5t57.5 -132.5zM264 95q13 -17 13 -42.5t-17 -46.5t-41 -21t-37.5 18.5t-13.5 43.5t16.5 45t41.5 20t38 -17z" />
    <glyph glyph-name="at" unicode="@" horiz-adv-x="938" 
d="M864 369q0 -103 -50.5 -172.5t-121.5 -69.5q-89 0 -117 83q-57 -83 -146 -83q-44 0 -79 21t-54 54q-39 65 -39 140q0 95 58.5 164.5t149.5 69.5q49 0 99 -36q14 36 46 36q54 0 54 -80q0 -10 -10 -75t-10 -108q0 -104 47 -104q32 0 57.5 38.5t25.5 123.5
q0 150 -88.5 228.5t-217.5 78.5t-219 -97t-90 -242.5t77 -229t185 -83.5q53 0 110 22.5t61 22.5q16 0 26 -9.5t10 -24.5q0 -27 -61.5 -59.5t-149.5 -32.5q-149 0 -251 109.5t-102 284t116 300.5t287.5 126t284 -107t112.5 -289zM561 334v119q-49 36 -95.5 36t-80 -41.5
t-33.5 -99t20 -96.5t60.5 -39t73 35t55.5 86z" />
    <glyph glyph-name="A" unicode="A" horiz-adv-x="692" 
d="M476 241l-129 3q-96 0 -140 -2q-11 -33 -31.5 -103.5t-33.5 -109.5t-46 -39q-19 0 -30.5 12t-11.5 26.5t1.5 23.5t7 27t11.5 34q29 86 42 126q-29 0 -45.5 12.5t-16.5 33.5q0 47 74 47h18q96 268 110.5 306.5t16.5 44.5t6.5 17.5t8 17t8.5 13.5t9.5 12.5t10.5 8.5
q13 8 27.5 8t23.5 -3t17 -11t13.5 -17t13 -28t13.5 -35q48 -147 120 -334l36 1q26 0 42.5 -14t16.5 -35q0 -44 -66 -47q10 -32 27 -81q39 -106 39 -122.5t-11.5 -30t-31.5 -13.5q-36 0 -52 39q-17 49 -68 212zM232 328q64 -2 123.5 -2t95.5 2q-105 302 -107 302
q-6 0 -86 -226z" />
    <glyph glyph-name="B" unicode="B" horiz-adv-x="725" 
d="M662 212q0 -103 -89.5 -165t-233.5 -62q-116 0 -190.5 23.5t-74.5 60.5t50 37q3 103 3 273t-4 242q-43 13 -43 46q0 25 30 45t73 31q86 22 155 22t123.5 -18.5t84.5 -48.5q62 -59 62 -124q0 -106 -97 -165q66 -24 108.5 -78.5t42.5 -118.5zM336 72q105 0 167 37.5
t62 108.5q0 56 -54.5 93.5t-116.5 47.5q-61 -14 -104 -14t-72 4q0 -183 3 -264q42 -13 115 -13zM336 679q-62 0 -115 -20q-3 -51 -3 -220q41 9 83 9t79 -8q40 2 88.5 38t48.5 95q0 41 -44.5 73.5t-136.5 32.5z" />
    <glyph glyph-name="C" unicode="C" horiz-adv-x="708" 
d="M655 106q0 -36 -74.5 -78.5t-175.5 -42.5q-143 0 -238 114t-95 277t95.5 276t239.5 113q88 0 157.5 -33t69.5 -74q0 -20 -12 -32t-32.5 -12t-54.5 23q-64 41 -128 41q-104 0 -171.5 -89.5t-67.5 -212t67.5 -213.5t165.5 -91t179 49q33 18 44.5 18t21 -9.5t9.5 -23.5z" />
    <glyph glyph-name="D" unicode="D" horiz-adv-x="759" 
d="M128 376l-5 260q-44 4 -44 41.5t79 62t163.5 24.5t157.5 -33t117 -89q91 -114 91 -270q0 -152 -87 -264q-43 -56 -114 -89.5t-169 -33.5t-170 25t-72 64q0 37 50 37zM519.5 589.5q-71.5 88.5 -206.5 88.5q-57 0 -91 -17q-3 -62 -3 -270.5t5 -305.5q36 -13 101 -13
t117.5 26t83.5 70q65 90 65 211.5t-71.5 210z" />
    <glyph glyph-name="E" unicode="E" horiz-adv-x="639" 
d="M514 662l-159 6q-77 0 -137 -5v-222q19 -1 66 -1l179 5q27 0 43 -12.5t16 -33.5q0 -44 -59 -44l-179 4q-43 0 -66 -1v-79q0 -146 4 -192q60 -5 136 -5l159 6q27 0 43.5 -12.5t16.5 -34.5t-16.5 -34.5t-43.5 -12.5l-159 6l-181 -5q-54 0 -54 46q0 35 2.5 114.5t2.5 199.5
q-67 0 -67 44q0 23 19 34.5t48 11.5q-2 187 -7 225q-12 19 -12 40q0 45 62 45l184 -5l159 6q27 0 43.5 -12.5t16.5 -34.5t-16.5 -34.5t-43.5 -12.5z" />
    <glyph glyph-name="F" unicode="F" horiz-adv-x="616" 
d="M284 440l170 5q27 0 43 -12.5t16 -33.5q0 -44 -59 -44l-170 4q-44 0 -67 -1q0 -131 3 -210t3 -87q0 -71 -51 -71t-51 71q0 8 1 47q5 117 5 247q-67 0 -67 44q0 23 19 34.5t48 11.5q-2 187 -7 225q-12 19 -12 40q0 45 62 45l185 -5l160 6q27 0 43.5 -12.5t16.5 -34.5
t-16.5 -34.5t-43.5 -12.5l-160 6q-78 0 -138 -5v-222q19 -1 67 -1z" />
    <glyph glyph-name="G" unicode="G" horiz-adv-x="772" 
d="M526 398l126 6q27 0 43.5 -13t16.5 -38q0 -170 -85.5 -269t-225 -99t-234.5 114t-95 277t98 276t248 113q93 0 169.5 -37t76.5 -80q0 -19 -11.5 -30t-34 -11t-60.5 27q-61 44 -140 44q-108 0 -179 -89t-71 -211.5t68 -214t171 -91.5q85 0 142 63t61 179q-33 3 -84 3
l-135 -5q-27 0 -42 12t-15 32.5t15 33.5t42 13z" />
    <glyph glyph-name="H" unicode="H" horiz-adv-x="768" 
d="M553 353l-172 2q-116 0 -168 -1q0 -79 3 -183.5t3 -109.5q0 -71 -51 -71t-51 71q0 5 3 108t3 182q-64 0 -64 45q0 21 16.5 33.5t47.5 12.5q0 79 -3 160.5t-3 86.5q0 71 51 71t51 -71q0 -5 -3 -88t-3 -162q98 -2 195 -2t145 2q0 79 -2.5 162t-2.5 88q0 71 51 71t51 -71
q0 -5 -3 -86t-3 -160q30 0 47.5 -13t17.5 -34t-17.5 -33.5t-47.5 -12.5q0 -79 3 -181.5t3 -107.5q0 -71 -51 -71t-51 71z" />
    <glyph glyph-name="I" unicode="I" horiz-adv-x="486" 
d="M374 661l-82 4q-4 -97 -4 -278.5t5 -303.5l81 4q27 0 43.5 -12.5t16.5 -34t-16.5 -34t-43.5 -12.5l-131 6l-131 -6q-27 0 -43.5 12.5t-16.5 34t16.5 34t43.5 12.5l81 -5q5 122 5 304t-4 279l-82 -4q-27 0 -43.5 13t-16.5 35t16.5 34.5t43.5 12.5l131 -6l131 6
q27 0 43.5 -12.5t16.5 -34.5t-16.5 -35t-43.5 -13z" />
    <glyph glyph-name="J" unicode="J" horiz-adv-x="593" 
d="M328 750l149 6q27 0 43.5 -12.5t16.5 -34t-19 -34.5t-49 -13q-1 -62 -1 -405q0 -73 -20.5 -128t-54.5 -85q-67 -59 -152.5 -59t-140 34.5t-54.5 67.5q0 19 11 30.5t29 11.5t36 -14t46 -28.5t69 -14.5q58 0 99.5 49.5t41.5 156.5l-3 389q-63 0 -114 -3t-70 -3t-35.5 12.5
t-16.5 34.5t16.5 34.5t43.5 12.5z" />
    <glyph glyph-name="K" unicode="K" horiz-adv-x="688" 
d="M208 337l5 -290q0 -24 -15 -40.5t-35.5 -16.5t-35 16.5t-14.5 40.5l4 325l-4 330q0 24 14.5 40.5t35 16.5t35.5 -16.5t15 -40.5l-3 -90q-2 -90 -2 -178q27 8 69 8l56 -6q47 35 95.5 120.5t64.5 157.5q11 46 48 46q17 0 29.5 -13t12.5 -32q0 -62 -55.5 -163t-119.5 -166
q102 -184 167 -267q35 -44 66 -44l11 1q7 0 7 -22t-18 -43t-46 -21t-55 24q-55 47 -216 327l-64 -7q-36 0 -52 3z" />
    <glyph glyph-name="L" unicode="L" horiz-adv-x="594" 
d="M115 54l4 326q0 131 -3 216t-3 93q0 71 51 71t51 -71q0 -8 -1 -51q-5 -127 -5 -232.5t1 -165t3 -101t2 -52.5q48 -5 104 -5t109 3.5t69.5 3.5t33 -12.5t16.5 -34.5t-16.5 -34.5t-43.5 -12.5l-149 5l-162 -5q-30 0 -45.5 12.5t-15.5 46.5z" />
    <glyph glyph-name="M" unicode="M" horiz-adv-x="872" 
d="M214 48q0 -26 -14 -42t-36.5 -16t-36.5 16t-14 33t1 65q4 112 4 241.5t-2.5 239t-2.5 112.5q0 29 14.5 46t35.5 17q32 0 50 -39l223 -479q92 194 203 442q22 49 34 62.5t34.5 13.5t37 -16.5t14.5 -46.5q-5 -26 -5 -227t3 -310t3 -112q0 -26 -14 -42t-36.5 -16t-36.5 16
t-14 33.5t1 64.5q6 175 6 268v153l-181 -381q-17 -35 -46 -35t-47 37l-184 379v-153q0 -103 3 -212t3 -112z" />
    <glyph glyph-name="N" unicode="N" horiz-adv-x="743" 
d="M626 372l3 -310q0 -72 -53 -72q-33 0 -50 31l-317 546q0 -233 2.5 -372t2.5 -155.5t-15 -33t-35.5 -16.5t-35 16.5t-14.5 41.5l4 324q0 103 -2.5 209t-2.5 108q0 71 51 71q37 0 55 -31q291 -500 317 -540q0 283 -3 390t-3 110q0 71 51 71t51 -71q0 -8 -2 -53
q-4 -133 -4 -264z" />
    <glyph glyph-name="O" unicode="O" horiz-adv-x="824" 
d="M586.5 164q69.5 92 69.5 213t-69 211.5t-174.5 90.5t-175 -90.5t-69.5 -211t70 -213t174.5 -92.5t174 92zM752 376q0 -163 -97.5 -277t-243 -114t-242.5 114t-97 277t98 276t243.5 113t242 -113t96.5 -276z" />
    <glyph glyph-name="P" unicode="P" horiz-adv-x="651" 
d="M324 679q-66 0 -110 -23q-3 -48 -3 -143t2 -139q61 -15 134.5 -15t127 45t53.5 115.5t-54 115t-150 44.5zM114 45l8 337q0 247 -6 247q-22 3 -33 15t-11 31.5t29 38.5t71 30q84 21 146 21q150 0 228 -71t78 -174t-78 -174.5t-202 -71.5q-93 0 -133 11l5 -240
q0 -26 -14 -42t-36.5 -16t-37 16t-14.5 42z" />
    <glyph glyph-name="Q" unicode="Q" horiz-adv-x="824" 
d="M752 376q0 -105 -43.5 -193t-116.5 -140q7 -12 22 -35q30 -45 30 -62t-11 -28.5t-31 -11.5t-36 27l-39 70q-59 -18 -116 -18q-145 0 -242 114t-97 277t98 276t243.5 113t242 -113t96.5 -276zM656 376q0 122 -69 212.5t-174.5 90.5t-175 -90.5t-69.5 -211t70 -213
t174 -92.5q39 0 72 9q-16 25 -34 51q-28 40 -28 60t11 31t30.5 11t36.5 -27q1 -2 38 -91q55 42 86.5 112t31.5 148z" />
    <glyph glyph-name="R" unicode="R" horiz-adv-x="686" 
d="M504 533q0 66 -50 106t-145 40q-47 0 -97 -18q-3 -90 -3 -171.5t1 -94.5q48 9 90 9t95 -9q36 10 72.5 50.5t36.5 87.5zM629 76l16 2q9 0 9 -24t-21 -44t-47 -20q-45 0 -86 58q-53 72 -135 253q-45 -6 -102 -6l-52 4q0 -70 3 -141.5t3 -101.5q0 -71 -51 -71t-51 71
q0 40 3.5 141t3.5 197.5t-6 232.5q-44 9 -44 45q0 43 83 68t148 25q146 0 221.5 -65.5t75.5 -160.5q0 -61 -41 -119.5t-107 -89.5q46 -106 83.5 -166t56.5 -74t37 -14z" />
    <glyph glyph-name="S" unicode="S" horiz-adv-x="606" 
d="M547 204q0 -93 -70.5 -156t-182.5 -63q-87 0 -162 42t-75 82q0 18 12 30t30.5 12t37.5 -12.5t35 -27t48.5 -27t73.5 -12.5q68 0 112.5 35t44.5 97q0 41 -38 78t-92 67t-108 61.5t-92 77t-38 98.5q0 73 64 126t151 53t148 -29.5t61 -67.5q0 -19 -12 -30t-32 -11t-39 13
t-47 26t-75 13t-85 -26t-38 -64t38 -70.5t92 -62.5t108 -63t92 -82t38 -107z" />
    <glyph glyph-name="T" unicode="T" horiz-adv-x="593" 
d="M102 756l199 -6l193 6q27 0 43.5 -12.5t16.5 -34.5t-16.5 -34.5t-43.5 -12.5l-144 6q-4 -97 -4 -296l6 -324q0 -26 -14 -42t-36.5 -16t-37 16t-14.5 42l6 324q0 174 -5 296l-149 -6q-27 0 -43.5 12.5t-16.5 34.5t16.5 34.5t43.5 12.5z" />
    <glyph glyph-name="U" unicode="U" horiz-adv-x="743" 
d="M569 61.5q-69 -76.5 -197.5 -76.5t-197.5 77t-71 187q-1 52 -1 129t-1.5 147.5t-3 113t-1.5 50.5q0 71 51 71t51 -71q0 -8 -2 -63q-4 -167 -4 -260.5t7.5 -135.5t26.5 -80q37 -78 145 -78q153 0 175 177q5 35 5 94.5t-1.5 143t-3 139t-1.5 63.5q0 71 51 71t51 -71
q0 -8 -1 -51q-5 -127 -5 -232t-1 -157q-2 -111 -71 -187.5z" />
    <glyph glyph-name="V" unicode="V" horiz-adv-x="673" 
d="M397 40q-17 -50 -60.5 -50t-60.5 50q-146 410 -155.5 439.5t-33 93.5t-35.5 96.5t-12 46.5t12.5 29t34.5 15q38 0 53 -45q190 -582 197 -582q11 0 201 582q15 45 48 45q22 0 34.5 -15t12.5 -29t-12 -46q-57 -155 -67.5 -187.5t-156.5 -442.5z" />
    <glyph glyph-name="W" unicode="W" horiz-adv-x="959" 
d="M714 38q-17 -48 -60.5 -48t-60.5 45q-13 36 -62.5 202.5t-51.5 166.5t-23.5 -73t-48.5 -167t-37 -126q-15 -48 -59.5 -48t-60.5 45q-5 13 -23 71.5t-43.5 139.5t-37.5 118.5t-29 89t-28 85t-23 72.5q-24 78 -24 100t13 35.5t31 13.5q40 0 54 -45q62 -197 118 -396.5
t57 -199.5q4 0 49.5 157t59.5 219q5 22 20.5 38.5t37.5 16.5q45 0 59 -51q111 -380 119 -380l35 128q35 128 76 280t51 188q12 45 45 45q23 0 35 -14.5t12 -36.5t-47 -176t-77 -253q-58 -187 -76 -242z" />
    <glyph glyph-name="X" unicode="X" horiz-adv-x="696" 
d="M328 311q-21 -33 -68 -109.5t-58 -93t-21.5 -33.5t-15.5 -25l-13 -19q-9 -14 -21 -25q-17 -16 -34.5 -16t-29.5 12t-12 26t6.5 28.5t25 43t39.5 60.5q93 134 152 227q-90 160 -148 249q-24 36 -56 36q-18 0 -22 6t-4 17q0 31 18.5 49.5t43.5 18.5t44.5 -13t46.5 -52
q10 -16 135 -233q25 40 71.5 117.5t56.5 94t14.5 24.5t12 19.5t12.5 17t11 11.5q12 11 30 11t29.5 -12.5t11.5 -29.5t-20 -51.5t-85 -134t-94 -144.5q138 -220 175.5 -265t64.5 -45q15 0 18.5 -5.5t3.5 -15.5q0 -31 -18.5 -50.5t-44.5 -19.5q-41 0 -90 66q-27 36 -167 258z
" />
    <glyph glyph-name="Y" unicode="Y" horiz-adv-x="607" 
d="M347 303q0 -80 3 -161l2 -81q0 -71 -51 -71t-51 71l2 83q3 83 3 160q-199 342 -212 369t-13 44t12 30t34.5 13t38.5 -21.5t74.5 -135.5t116.5 -202q24 36 84.5 148t70 128.5t13.5 24t11.5 19.5t12 17.5t10.5 11.5q10 10 28 10t29.5 -12t11.5 -29t-14.5 -44.5t-63 -110.5
t-62.5 -106.5t-39.5 -68t-50.5 -86.5z" />
    <glyph glyph-name="Z" unicode="Z" horiz-adv-x="618" 
d="M295 750l203 5q57 0 57 -41q0 -25 -20.5 -61t-79 -122.5t-104.5 -162.5l-171 -281q57 -5 127.5 -5t132.5 3.5t79.5 3.5t34 -12.5t16.5 -34.5t-16.5 -34.5t-43.5 -12.5l-175 5l-229 -5q-57 0 -57 43q0 24 24.5 65.5t87 134.5t112.5 175l152 251q-45 4 -109 4t-126 -3.5
t-79.5 -3.5t-34 12.5t-16.5 34.5t16.5 34.5t43.5 12.5z" />
    <glyph glyph-name="bracketleft" unicode="[" horiz-adv-x="438" 
d="M193 0l144 3q27 0 43.5 -12t16.5 -32.5t-16.5 -32.5t-43.5 -12l-94 3l-97 -4q-24 0 -39 12.5t-15 28.5t3 150.5t3 270.5t-3.5 265.5t-3.5 149.5t15 34.5t40 14.5l97 -4l94 3q26 0 43 -12.5t17 -32.5t-17 -32.5t-43 -12.5q-5 0 -23 1q-36 2 -121 2q0 -3 -3 -132.5t-3 -242
t3 -240.5t3 -136z" />
    <glyph glyph-name="backslash" unicode="\" horiz-adv-x="433" 
d="M82.5 820q11.5 15 31.5 15t33.5 -13t17.5 -35q78 -348 125 -531q71 -276 71 -294t-12.5 -32t-34.5 -14t-33.5 16.5t-18.5 47.5q-64 294 -114 488q-77 304 -77 320.5t11.5 31.5z" />
    <glyph glyph-name="bracketright" unicode="]" horiz-adv-x="438" 
d="M245 752l-144 -3q-27 0 -43.5 12t-16.5 32.5t16.5 32.5t43.5 12l94 -3l97 4q24 0 39 -12.5t15 -28.5t-3 -150.5t-3 -270.5t3.5 -265.5t3.5 -149.5t-15 -34.5t-40 -14.5l-97 4l-94 -3q-26 0 -43 12.5t-17 32.5t17 32.5t43 12.5l144 -3q0 3 3 132.5t3 242t-3 240.5t-3 136z
" />
    <glyph glyph-name="asciicircum" unicode="^" horiz-adv-x="591" 
d="M79 458q22 38 83 136.5t81.5 132t53 33.5t53.5 -35q165 -266 175.5 -288t10.5 -35.5t-12 -25.5t-34 -12t-36 27q-37 68 -95 168.5t-62.5 100.5t-62 -99.5t-95.5 -169.5q-6 -12 -17.5 -19.5t-26 -7.5t-26.5 12t-12 28t22 54z" />
    <glyph glyph-name="underscore" unicode="_" horiz-adv-x="626" 
d="M313 -86l-199 -3q-22 0 -35.5 12t-13.5 30t13.5 30t35.5 12l199 -3l199 3q22 0 35.5 -12t13.5 -30t-13.5 -30t-35.5 -12z" />
    <glyph glyph-name="grave" unicode="`" horiz-adv-x="330" 
d="M85 696q0 17 11.5 30.5t29 13.5t30 -9.5t18 -19t14.5 -29.5t33 -49.5t24 -41.5t-8.5 -20t-24.5 -8q-32 0 -79.5 44.5t-47.5 88.5z" />
    <glyph glyph-name="a" unicode="a" horiz-adv-x="810" 
d="M648 367q0 -112 14.5 -189.5t35.5 -87.5q8 -4 19 -5.5t16 -4.5t5 -11q0 -36 -20 -59t-53 -23q-44 0 -66 50t-22 128q-53 -84 -111.5 -132t-131 -48t-122.5 34.5t-80 90.5q-60 115 -60 253q0 164 85 283t220 119q52 0 101.5 -19.5t82.5 -49.5q0 69 51 69q63 0 63 -101
q0 -75 -27 -297zM569 355l-6 245q-85 78 -186 78q-83 0 -146 -89.5t-63 -217.5t43.5 -213.5t118 -85.5t150 95t89.5 188z" />
    <glyph glyph-name="b" unicode="b" horiz-adv-x="725" 
d="M662 212q0 -103 -89.5 -165t-233.5 -62q-116 0 -190.5 23.5t-74.5 60.5t50 37q3 103 3 273t-4 242q-43 13 -43 46q0 25 30 45t73 31q86 22 155 22t123.5 -18.5t84.5 -48.5q62 -59 62 -124q0 -106 -97 -165q66 -24 108.5 -78.5t42.5 -118.5zM336 72q105 0 167 37.5
t62 108.5q0 56 -54.5 93.5t-116.5 47.5q-61 -14 -104 -14t-72 4q0 -183 3 -264q42 -13 115 -13zM336 679q-62 0 -115 -20q-3 -51 -3 -220q41 9 83 9t79 -8q40 2 88.5 38t48.5 95q0 41 -44.5 73.5t-136.5 32.5z" />
    <glyph glyph-name="c" unicode="c" horiz-adv-x="708" 
d="M655 106q0 -36 -74.5 -78.5t-175.5 -42.5q-143 0 -238 114t-95 277t95.5 276t239.5 113q88 0 157.5 -33t69.5 -74q0 -20 -12 -32t-32.5 -12t-54.5 23q-64 41 -128 41q-104 0 -171.5 -89.5t-67.5 -212t67.5 -213.5t165.5 -91t179 49q33 18 44.5 18t21 -9.5t9.5 -23.5z" />
    <glyph glyph-name="d" unicode="d" horiz-adv-x="759" 
d="M128 376l-5 260q-44 4 -44 41.5t79 62t163.5 24.5t157.5 -33t117 -89q91 -114 91 -270q0 -152 -87 -264q-43 -56 -114 -89.5t-169 -33.5t-170 25t-72 64q0 37 50 37zM519.5 589.5q-71.5 88.5 -206.5 88.5q-57 0 -91 -17q-3 -62 -3 -270.5t5 -305.5q36 -13 101 -13
t117.5 26t83.5 70q65 90 65 211.5t-71.5 210z" />
    <glyph glyph-name="e" unicode="e" horiz-adv-x="745" 
d="M596 553q0 47 -38.5 86t-105.5 39t-118 -40q-94 -73 -121 -217q76 -21 171.5 -21t153.5 40t58 113zM597 28q-71 -43 -153 -43t-143 31t-100 83q-81 108 -87 253q-72 22 -72 71q0 20 11.5 31.5t26.5 11.5t42 -12q31 134 116.5 222.5t209.5 88.5q101 0 172.5 -61t71.5 -147
t-44 -141q-83 -101 -258 -101q-72 0 -179 20q9 -108 71.5 -185.5t149 -77.5t161.5 49q33 18 44.5 18t21 -9.5t9.5 -23.5q0 -35 -71 -78z" />
    <glyph glyph-name="f" unicode="f" horiz-adv-x="616" 
d="M284 440l170 5q27 0 43 -12.5t16 -33.5q0 -44 -59 -44l-170 4q-44 0 -67 -1q0 -131 3 -210t3 -87q0 -71 -51 -71t-51 71q0 8 1 47q5 117 5 247q-67 0 -67 44q0 23 19 34.5t48 11.5q-2 187 -7 225q-12 19 -12 40q0 45 62 45l185 -5l160 6q27 0 43.5 -12.5t16.5 -34.5
t-16.5 -34.5t-43.5 -12.5l-160 6q-78 0 -138 -5v-222q19 -1 67 -1z" />
    <glyph glyph-name="g" unicode="g" horiz-adv-x="772" 
d="M526 398l126 6q27 0 43.5 -13t16.5 -38q0 -170 -85.5 -269t-225 -99t-234.5 114t-95 277t98 276t248 113q93 0 169.5 -37t76.5 -80q0 -19 -11.5 -30t-34 -11t-60.5 27q-61 44 -140 44q-108 0 -179 -89t-71 -211.5t68 -214t171 -91.5q85 0 142 63t61 179q-33 3 -84 3
l-135 -5q-27 0 -42 12t-15 32.5t15 33.5t42 13z" />
    <glyph glyph-name="h" unicode="h" horiz-adv-x="768" 
d="M553 353l-172 2q-116 0 -168 -1q0 -79 3 -183.5t3 -109.5q0 -71 -51 -71t-51 71q0 5 3 108t3 182q-64 0 -64 45q0 21 16.5 33.5t47.5 12.5q0 79 -3 160.5t-3 86.5q0 71 51 71t51 -71q0 -5 -3 -88t-3 -162q98 -2 195 -2t145 2q0 79 -2.5 162t-2.5 88q0 71 51 71t51 -71
q0 -5 -3 -86t-3 -160q30 0 47.5 -13t17.5 -34t-17.5 -33.5t-47.5 -12.5q0 -79 3 -181.5t3 -107.5q0 -71 -51 -71t-51 71z" />
    <glyph glyph-name="i" unicode="i" horiz-adv-x="486" 
d="M374 661l-82 4q-4 -97 -4 -278.5t5 -303.5l81 4q27 0 43.5 -12.5t16.5 -34t-16.5 -34t-43.5 -12.5l-131 6l-131 -6q-27 0 -43.5 12.5t-16.5 34t16.5 34t43.5 12.5l81 -5q5 122 5 304t-4 279l-82 -4q-27 0 -43.5 13t-16.5 35t16.5 34.5t43.5 12.5l131 -6l131 6
q27 0 43.5 -12.5t16.5 -34.5t-16.5 -35t-43.5 -13z" />
    <glyph glyph-name="j" unicode="j" horiz-adv-x="593" 
d="M328 750l149 6q27 0 43.5 -12.5t16.5 -34t-19 -34.5t-49 -13q-1 -62 -1 -405q0 -73 -20.5 -128t-54.5 -85q-67 -59 -152.5 -59t-140 34.5t-54.5 67.5q0 19 11 30.5t29 11.5t36 -14t46 -28.5t69 -14.5q58 0 99.5 49.5t41.5 156.5l-3 389q-63 0 -114 -3t-70 -3t-35.5 12.5
t-16.5 34.5t16.5 34.5t43.5 12.5z" />
    <glyph glyph-name="k" unicode="k" horiz-adv-x="688" 
d="M208 337l5 -290q0 -24 -15 -40.5t-35.5 -16.5t-35 16.5t-14.5 40.5l4 325l-4 330q0 24 14.5 40.5t35 16.5t35.5 -16.5t15 -40.5l-3 -90q-2 -90 -2 -178q27 8 69 8l56 -6q47 35 95.5 120.5t64.5 157.5q11 46 48 46q17 0 29.5 -13t12.5 -32q0 -62 -55.5 -163t-119.5 -166
q102 -184 167 -267q35 -44 66 -44l11 1q7 0 7 -22t-18 -43t-46 -21t-55 24q-55 47 -216 327l-64 -7q-36 0 -52 3z" />
    <glyph glyph-name="l" unicode="l" horiz-adv-x="594" 
d="M115 54l4 326q0 131 -3 216t-3 93q0 71 51 71t51 -71q0 -8 -1 -51q-5 -127 -5 -232.5t1 -165t3 -101t2 -52.5q48 -5 104 -5t109 3.5t69.5 3.5t33 -12.5t16.5 -34.5t-16.5 -34.5t-43.5 -12.5l-149 5l-162 -5q-30 0 -45.5 12.5t-15.5 46.5z" />
    <glyph glyph-name="m" unicode="m" horiz-adv-x="1218" 
d="M1083 460l-7 -242q0 -38 1 -57t8 -40t21 -27q8 -4 19 -5.5t16 -4.5t5 -11q0 -35 -22 -58.5t-52 -23.5q-51 0 -70.5 40t-19.5 119l5 279q0 109 -37 175.5t-103 66.5t-128.5 -88t-87.5 -200l4 -323q0 -34 -11 -51.5t-40 -17.5q-62 0 -62 100t27 292q0 288 -143 288
q-64 0 -126.5 -88t-87.5 -200l4 -323q0 -69 -51 -69q-62 0 -62 100t27 292q0 66 -11.5 177.5t-11.5 137t14 44t38.5 18.5t38.5 -18.5t14 -41.5t-0.5 -55.5t-0.5 -55.5q92 171 234 171q82 0 133.5 -46.5t71.5 -124.5q95 171 235 171q104 0 161 -87.5t57 -212.5z" />
    <glyph glyph-name="n" unicode="n" horiz-adv-x="805" 
d="M670 497l-7 -282q0 -38 1 -57t8 -40t21 -27q8 -4 19 -5.5t16 -4.5t5 -11q0 -35 -22 -58.5t-52 -23.5q-52 0 -71.5 40t-19.5 119l6 284q0 109 -38 174.5t-110.5 65.5t-140.5 -87.5t-94 -198.5l4 -328q0 -69 -51 -69q-62 0 -62 104.5t27 292.5q0 65 -11.5 176.5
t-11.5 136.5t14 43.5t38.5 18.5t38.5 -18.5t14 -41.5t-0.5 -55.5t-0.5 -55.5q98 171 248 171q111 0 171.5 -76.5t60.5 -186.5z" />
    <glyph glyph-name="o" unicode="o" horiz-adv-x="824" 
d="M586.5 164q69.5 92 69.5 213t-69 211.5t-174.5 90.5t-175 -90.5t-69.5 -211t70 -213t174.5 -92.5t174 92zM752 376q0 -163 -97.5 -277t-243 -114t-242.5 114t-97 277t98 276t243.5 113t242 -113t96.5 -276z" />
    <glyph glyph-name="p" unicode="p" horiz-adv-x="651" 
d="M324 679q-66 0 -110 -23q-3 -48 -3 -143t2 -139q61 -15 134.5 -15t127 45t53.5 115.5t-54 115t-150 44.5zM114 48l8 334q0 247 -6 247q-22 3 -33 15t-11 31.5t29 38.5t71 30q84 21 146 21q150 0 228 -71t78 -174t-78 -174.5t-202 -71.5q-93 0 -133 11l5 -237
q0 -26 -14 -42t-36.5 -16t-37 16t-14.5 42z" />
    <glyph glyph-name="q" unicode="q" horiz-adv-x="824" 
d="M752 376q0 -105 -43.5 -193t-116.5 -140q7 -12 22 -35q30 -45 30 -62t-11 -28.5t-31 -11.5t-36 27l-39 70q-59 -18 -116 -18q-145 0 -242 114t-97 277t98 276t243.5 113t242 -113t96.5 -276zM656 376q0 122 -69 212.5t-174.5 90.5t-175 -90.5t-69.5 -211t70 -213
t174 -92.5q39 0 72 9q-16 25 -34 51q-28 40 -28 60t11 31t30.5 11t36.5 -27q1 -2 38 -91q55 42 86.5 112t31.5 148z" />
    <glyph glyph-name="r" unicode="r" horiz-adv-x="563" 
d="M192 355l3 -298q0 -69 -51 -69q-62 0 -62 104.5t27 292.5q0 65 -11.5 176.5t-11.5 136.5t14 43.5t38.5 18.5t38.5 -18.5t14 -41.5t-0.5 -55.5t-0.5 -54.5q29 69 89 121.5t122.5 52.5t95.5 -24.5t33 -53t-15.5 -45t-38.5 -16.5t-50.5 25t-44.5 25q-46 0 -109 -106.5
t-80 -213.5z" />
    <glyph glyph-name="s" unicode="s" horiz-adv-x="606" 
d="M547 204q0 -93 -70.5 -156t-182.5 -63q-87 0 -162 42t-75 82q0 18 12 30t30.5 12t37.5 -12.5t35 -27t48.5 -27t73.5 -12.5q68 0 112.5 35t44.5 97q0 41 -38 78t-92 67t-108 61.5t-92 77t-38 98.5q0 73 64 126t151 53t148 -29.5t61 -67.5q0 -19 -12 -30t-32 -11t-39 13
t-47 26t-75 13t-85 -26t-38 -64t38 -70.5t92 -62.5t108 -63t92 -82t38 -107z" />
    <glyph glyph-name="t" unicode="t" horiz-adv-x="593" 
d="M102 756l199 -6l193 6q27 0 43.5 -12.5t16.5 -34.5t-16.5 -34.5t-43.5 -12.5l-144 6q-4 -97 -4 -296l6 -324q0 -26 -14 -42t-36.5 -16t-37 16t-14.5 42l6 324q0 174 -5 296l-149 -6q-27 0 -43.5 12.5t-16.5 34.5t16.5 34.5t43.5 12.5z" />
    <glyph glyph-name="u" unicode="u" horiz-adv-x="819" 
d="M202 646l-11 -332q0 -109 37.5 -175.5t114 -66.5t147.5 89.5t84 198.5l-4 328q0 69 51 69q62 0 62 -102t-27 -295q0 -110 14.5 -186.5t35.5 -85.5q8 -4 19.5 -5.5t16.5 -4.5t5 -11q0 -37 -22 -59.5t-56 -22.5q-85 0 -85 173q-100 -173 -252 -173q-81 0 -136 45
q-100 84 -100 267l8 239q0 54 -11 100t-11 66.5t16 37.5t42 17q62 0 62 -111z" />
    <glyph glyph-name="v" unicode="v" horiz-adv-x="673" 
d="M397 40q-17 -50 -60.5 -50t-60.5 50q-146 410 -155.5 439.5t-33 93.5t-35.5 96.5t-12 46.5t12.5 29t34.5 15q38 0 53 -45q190 -582 197 -582q11 0 201 582q15 45 48 45q22 0 34.5 -15t12.5 -29t-12 -46q-57 -155 -67.5 -187.5t-156.5 -442.5z" />
    <glyph glyph-name="w" unicode="w" horiz-adv-x="959" 
d="M714 38q-17 -48 -60.5 -48t-60.5 45q-13 36 -62.5 202.5t-51.5 166.5t-23.5 -73t-48.5 -167t-37 -126q-15 -48 -59.5 -48t-60.5 45q-5 13 -23 71.5t-43.5 139.5t-37.5 118.5t-29 89t-28 85t-23 72.5q-24 78 -24 100t13 35.5t31 13.5q40 0 54 -45q62 -197 118 -396.5
t57 -199.5q4 0 49.5 157t59.5 219q5 22 20.5 38.5t37.5 16.5q45 0 59 -51q111 -380 119 -380l35 128q35 128 76 280t51 188q12 45 45 45q23 0 35 -14.5t12 -36.5t-47 -176t-77 -253q-58 -187 -76 -242z" />
    <glyph glyph-name="x" unicode="x" horiz-adv-x="696" 
d="M328 311q-21 -33 -68 -109.5t-58 -93t-21.5 -33.5t-15.5 -25l-13 -19q-9 -14 -21 -25q-17 -16 -34.5 -16t-29.5 12t-12 26t6.5 28.5t25 43t39.5 60.5q93 134 152 227q-90 160 -148 249q-24 36 -56 36q-18 0 -22 6t-4 17q0 31 18.5 49.5t43.5 18.5t44.5 -13t46.5 -52
q10 -16 135 -233q25 40 71.5 117.5t56.5 94t14.5 24.5t12 19.5t12.5 17t11 11.5q12 11 30 11t29.5 -12.5t11.5 -29.5t-20 -51.5t-85 -134t-94 -144.5q138 -220 175.5 -265t64.5 -45q15 0 18.5 -5.5t3.5 -15.5q0 -31 -18.5 -50.5t-44.5 -19.5q-41 0 -90 66q-27 36 -167 258z
" />
    <glyph glyph-name="y" unicode="y" horiz-adv-x="607" 
d="M347 303q0 -80 3 -161l2 -81q0 -71 -51 -71t-51 71l2 83q3 83 3 160q-199 342 -212 369t-13 44t12 30t34.5 13t38.5 -21.5t74.5 -135.5t116.5 -202q24 36 84.5 148t70 128.5t13.5 24t11.5 19.5t12 17.5t10.5 11.5q10 10 28 10t29.5 -12t11.5 -29t-14.5 -44.5t-63 -110.5
t-62.5 -106.5t-39.5 -68t-50.5 -86.5z" />
    <glyph glyph-name="z" unicode="z" horiz-adv-x="618" 
d="M295 750l203 5q57 0 57 -41q0 -25 -20.5 -61t-79 -122.5t-104.5 -162.5l-171 -281q57 -5 127.5 -5t132.5 3.5t79.5 3.5t34 -12.5t16.5 -34.5t-16.5 -34.5t-43.5 -12.5l-175 5l-229 -5q-57 0 -57 43q0 24 24.5 65.5t87 134.5t112.5 175l152 251q-45 4 -109 4t-126 -3.5
t-79.5 -3.5t-34 12.5t-16.5 34.5t16.5 34.5t43.5 12.5z" />
    <glyph glyph-name="braceleft" unicode="{" horiz-adv-x="369" 
d="M307.5 -7.5q14.5 -10.5 14.5 -30.5t-12 -32.5t-33 -12.5q-58 0 -101.5 32t-43.5 90q0 27 7.5 83.5t7.5 87.5q0 93 -22 112q-17 -7 -38.5 -7t-39.5 14.5t-18 44.5t18.5 44.5t40 14.5t38.5 -7q22 19 22 112q0 31 -7.5 89.5t-7.5 85.5q0 58 43.5 90t101.5 32q21 0 33 -12.5
t12 -32.5t-14.5 -30.5t-31.5 -12.5t-31.5 -12.5t-14.5 -29t7 -72t7 -100t-7.5 -80t-14.5 -45.5t-24 -32q16 -19 23 -32q22 -39 22 -134q0 -42 -7 -93.5t-7 -70t14.5 -29t31.5 -12.5t31.5 -12.5z" />
    <glyph glyph-name="bar" unicode="|" horiz-adv-x="268" 
d="M173 324l5 -352q0 -56 -44 -56t-44 56l5 352l-4 380q0 56 43 56t43 -56z" />
    <glyph glyph-name="braceright" unicode="}" horiz-adv-x="369" 
d="M180 376q-17 20 -24 32t-14.5 45.5t-7.5 80t7 100t7 72t-14.5 29t-31.5 12.5t-31.5 12.5t-14.5 30.5t12 32.5t33 12.5q54 0 94.5 -32t40.5 -90q0 -27 -7.5 -85.5t-7.5 -89.5q0 -93 22 -112q17 7 38.5 7t40 -14.5t18.5 -44.5t-18 -44.5t-39 -14.5t-39 7q-22 -19 -22 -112
q0 -31 7.5 -87.5t7.5 -83.5q0 -58 -40.5 -90t-94.5 -32q-21 0 -33 12.5t-12 32.5t14.5 30.5t31.5 12.5t31.5 12.5t14.5 29t-7 70t-7 98t7 81t14.5 48t23.5 32.5z" />
    <glyph glyph-name="asciitilde" unicode="~" horiz-adv-x="622" 
d="M549 404q0 -29 -42 -60.5t-85.5 -31.5t-99.5 28t-82 28t-60 -29.5t-58 -29.5t-36 11t-12 29q0 33 48 64t103 31t112 -28.5t82.5 -28.5t52 24.5t43 24.5t25.5 -9.5t9 -22.5z" />
    <glyph glyph-name="uni007F" 
 />
    <glyph glyph-name="nbspace" unicode="&#xa0;" horiz-adv-x="290" 
 />
    <glyph glyph-name="exclamdown" unicode="&#xa1;" horiz-adv-x="267" 
d="M174.5 671.5q13.5 -18.5 13.5 -43.5t-16.5 -45t-41.5 -20t-38 17t-13 42.5t17 46.5t41 21t37.5 -18.5zM177 208l8 -228q0 -30 -13.5 -47.5t-37.5 -17.5t-37.5 17.5t-13.5 47.5l7 228l-1 201q0 26 12 41t33 15t33 -15t12 -41z" />
    <glyph glyph-name="cent" unicode="&#xa2;" horiz-adv-x="728" 
d="M665 112q0 -30 -60.5 -71.5t-142.5 -51.5q0 -71 -46 -71t-46 75q-132 19 -215 120.5t-83 239t82 237.5t215 123q0 74 46 74t46 -71q81 -5 136.5 -34.5t55.5 -66.5q0 -18 -12 -29t-32.5 -11t-64 26.5t-85.5 33.5q-4 -128 -4 -281.5t4 -281.5q70 9 133 58q21 15 36 15
q37 0 37 -33zM372 74q3 192 3 247.5t-4 311.5q-90 -18 -147 -98.5t-57 -180t57.5 -181t147.5 -99.5z" />
    <glyph glyph-name="sterling" unicode="&#xa3;" horiz-adv-x="583" 
d="M395 310l-143 3q6 -88 -10 -133.5t-42 -93.5q35 -4 87 -4t107 3.5t72 3.5t33.5 -12.5t16.5 -34.5t-16.5 -34.5t-43.5 -12.5l-155 5l-154 -5q-28 0 -44.5 15t-16.5 43t18.5 59t37.5 70t19.5 75.5t-0.5 53.5q-8 -1 -31 -1q-55 0 -55 40.5t53 40.5q4 0 11 -0.5t10 -0.5
q-3 16 -11 47q-16 68 -16 107q0 72 52.5 120.5t144.5 48.5q59 0 115 -30t56 -62q0 -17 -10 -30.5t-30 -13.5t-58 24.5t-80.5 24.5t-68 -23t-25.5 -59t23 -156l154 3q22 0 36.5 -11t14.5 -29t-14.5 -29.5t-36.5 -11.5z" />
    <glyph glyph-name="currency" unicode="&#xa4;" horiz-adv-x="701" 
d="M487 189q-55 -42 -137 -42t-137 42q-8 -9 -19.5 -21t-16 -17t-12 -12.5t-11 -10t-8.5 -4.5q-10 -5 -25.5 -5t-29.5 13t-14 30t12 31.5t67 62.5q-28 53 -28 115t29 117q-55 48 -67 62.5t-12 31.5t14 30t26.5 13t17.5 -1t10.5 -3.5t9 -5t11 -10t12 -12.5t16 -17t19.5 -21
q54 41 136 41t136 -41q53 56 64 63t27.5 7t30.5 -13t14 -30t-12 -31.5t-67 -62.5q29 -55 29 -118.5t-28 -113.5q55 -48 67 -62.5t12 -31.5t-13.5 -30t-24.5 -13t-15 0.5t-8.5 2t-7.5 3t-8 5.5t-8 7t-10 9.5t-11.5 11t-13.5 14.5t-16 17zM445.5 475q-40.5 43 -95.5 43
t-95.5 -43t-40.5 -103t40 -103t96 -43t96 43t40 103t-40.5 103z" />
    <glyph glyph-name="yen" unicode="&#xa5;" horiz-adv-x="646" 
d="M373 151l2 -103q0 -26 -14 -42t-36.5 -16t-37 16t-14.5 35.5t4 109.5q-80 -2 -138 -2q-22 0 -35.5 11t-13.5 29t13.5 29t35.5 11l140 -3v68l-140 -2q-22 0 -35.5 11t-13.5 29t13.5 29t34 11t52 -0.5t44.5 -0.5q-59 100 -77.5 130t-32 52.5t-21.5 35.5t-15 25.5t-10.5 19
t-5.5 13.5q-4 10 -4 24t14.5 28t36.5 14q12 0 18.5 -4.5t10.5 -7.5t9 -10t8 -11.5t9 -14.5t9.5 -16t10.5 -19.5t55.5 -101t80.5 -134.5q21 32 63.5 110.5t51 93t15.5 27t10.5 19.5t9.5 17t10 15.5t9 12.5t9 10.5t9 6.5q9 7 25.5 7t29.5 -13t13 -28.5t-13 -39.5
q-12 -24 -155 -261l100 1q22 0 35.5 -11t13.5 -29t-13.5 -29t-35.5 -11l-146 2v-68l146 3q22 0 35.5 -11t13.5 -29t-13.5 -29t-35.5 -11q-60 0 -144 2z" />
    <glyph glyph-name="brokenbar" unicode="&#xa6;" horiz-adv-x="279" 
d="M178 603l5 -104q0 -24 -12 -38.5t-33 -14.5q-42 0 -42 53l4 104l-3 104q0 53 41 53q21 0 32.5 -14.5t11.5 -38.5zM178 147l5 -104q0 -24 -12 -38.5t-33 -14.5q-42 0 -42 53l4 104l-3 104q0 53 41 53q21 0 32.5 -14.5t11.5 -38.5z" />
    <glyph glyph-name="section" unicode="&#xa7;" horiz-adv-x="586" 
d="M488 407.5q32 -36.5 32 -78.5t-26 -78.5t-68 -59.5q59 -42 59 -108t-59 -117t-154 -51q-70 0 -136.5 37t-66.5 74q0 17 11 27t28 10t38 -15q62 -46 120 -46t91 23t33 56t-32 58.5t-77.5 47.5t-91 46.5t-77.5 60t-32 79.5t34 78t90 48q-89 62 -89 121.5t55.5 102t131 42.5
t127.5 -27t52 -63q0 -15 -10.5 -25t-26 -10t-52.5 19t-80 19t-72.5 -16t-29.5 -43t32 -53.5t77.5 -49t91 -47.5t77.5 -61.5zM405 276q24 23 24 53.5t-53 65t-99 34.5t-76 -15t-30 -39.5t35.5 -51t133.5 -80.5q41 10 65 33z" />
    <glyph glyph-name="dieresis" unicode="&#xa8;" horiz-adv-x="476" 
d="M377.5 690q13.5 -17 13.5 -43.5t-17 -47.5t-41.5 -21t-38.5 18t-14 44t16.5 46.5t42 20.5t39 -17zM182.5 690q13.5 -17 13.5 -43.5t-17 -47.5t-41.5 -21t-38.5 18t-14 44t16.5 46.5t42 20.5t39 -17z" />
    <glyph glyph-name="copyright" unicode="&#xa9;" horiz-adv-x="787" 
d="M398 644q45 0 82 -18.5t37 -42.5q0 -35 -36 -35q-14 0 -31 12q-26 15 -47 15q-52 0 -80.5 -38t-28.5 -89.5t31.5 -88.5t77.5 -37q30 0 54.5 12.5t36.5 12.5q31 0 31 -31q0 -17 -37 -40t-90 -23q-77 0 -130 58t-53 138.5t51.5 137.5t131.5 57zM707 449q0 -131 -92 -223.5
t-222 -92.5t-222 92.5t-92 223.5t92 223.5t222 92.5t222 -92.5t92 -223.5zM559.5 275.5q69.5 71.5 69.5 174t-69.5 173.5t-167 71t-166.5 -71t-69 -173.5t69 -174t166.5 -71.5t167 71.5z" />
    <glyph glyph-name="ordfeminine" unicode="&#xaa;" horiz-adv-x="450" 
d="M344 593q0 -74 19 -87q3 -2 9 -3q15 -2 15 -13q0 -24 -15 -38.5t-36 -14.5q-42 0 -54 55q-36 -55 -96 -55t-92 48t-32 111.5t42 114t105 50.5q38 0 67 -22q12 22 38 22q42 0 42 -63q0 -17 -12 -105zM274 600l-2 66q-29 26 -60 26t-52.5 -28.5t-21.5 -68.5t13 -65.5
t37 -25.5t49.5 29t36.5 67z" />
    <glyph glyph-name="guillemotleft" unicode="&#xab;" horiz-adv-x="605" 
d="M150 376q0 -8 57 -49q8 -6 26 -17.5t27 -18.5q28 -20 28 -38t-12 -29.5t-29.5 -11.5t-31 8t-31.5 25t-55.5 47.5t-53.5 48.5t-16 35t16 35t53.5 48.5t52 44t22.5 20.5q20 16 40.5 16t32.5 -11.5t12 -27t-10.5 -26.5t-38.5 -29t-32 -21q-57 -41 -57 -49zM390 376
q0 -8 57 -49q8 -6 26 -17.5t27 -18.5q28 -20 28 -38t-12 -29.5t-29.5 -11.5t-31 8t-31.5 25t-55.5 47.5t-53.5 48.5t-16 35t16 35t53.5 48.5t52 44t22.5 20.5q20 16 40.5 16t32.5 -11.5t12 -27t-10.5 -26.5t-38.5 -29t-32 -21q-57 -41 -57 -49z" />
    <glyph glyph-name="logicalnot" unicode="&#xac;" horiz-adv-x="704" 
d="M609 305l2 -68q0 -22 -12 -35t-31.5 -13t-31.5 13t-12 35l3 97q-88 2 -178 2l-206 -3q-22 0 -36 12t-14 30t14 30t36 12l206 -3l211 3q18 0 34.5 -11.5t16.5 -40.5z" />
    <glyph glyph-name="uni00AD" unicode="&#xad;" horiz-adv-x="438" 
d="M317 219l-99 3l-99 -3q-22 0 -35.5 12t-13.5 30t13.5 30t35.5 12l99 -3l99 3q22 0 35.5 -12t13.5 -30t-13.5 -30t-35.5 -12z" />
    <glyph glyph-name="registered" unicode="&#xae;" horiz-adv-x="786" 
d="M261 461l-5 133q0 53 129 53q75 0 113.5 -37t38.5 -84q0 -72 -76 -110q7 -12 16.5 -28t14.5 -24.5t12 -17.5q11 -16 29.5 -16t18.5 -14q0 -21 -15 -36.5t-32.5 -15.5t-28.5 5.5t-22 19.5q-17 22 -37 60.5t-26 48.5q-24 -3 -38 -3t-19 1l2 -88q0 -19 -11 -32t-29 -13
q-39 0 -39 45zM447.5 488q13.5 16 13.5 37.5t-17.5 37.5t-51.5 16t-58 -7q0 -14 -1.5 -45t-1.5 -50q16 4 35.5 4t52.5 -11q15 2 28.5 18zM707 449q0 -131 -92 -223.5t-222 -92.5t-222 92.5t-92 223.5t92 223.5t222 92.5t222 -92.5t92 -223.5zM559.5 275.5
q69.5 71.5 69.5 174t-69.5 173.5t-167 71t-166.5 -71t-69 -173.5t69 -174t166.5 -71.5t167 71.5z" />
    <glyph glyph-name="macron" unicode="&#xaf;" horiz-adv-x="496" 
d="M248 630l-134 -3q-21 0 -35 12t-14 30t13.5 30t35.5 12l134 -3l134 3q21 0 35 -12t14 -30t-13.5 -30t-35.5 -12z" />
    <glyph glyph-name="degree" unicode="&#xb0;" horiz-adv-x="402" 
d="M300 719.5q38 -43.5 38 -106t-38 -106t-99 -43.5t-99 43t-38 106t38 106.5t99 43.5t99 -43.5zM260 613q0 35 -15.5 58t-43.5 23t-44 -23t-16 -57.5t16 -57.5t44 -23t43.5 22.5t15.5 57.5z" />
    <glyph glyph-name="plusminus" unicode="&#xb1;" horiz-adv-x="645" 
d="M132 502l152 -3q0 58 -2 87t-2 31q0 23 11.5 36t30.5 13t31 -13.5t12 -36.5q0 -2 -1 -16q-3 -44 -3 -102l152 3q22 0 36 -12t14 -30t-14 -30t-36 -12l-152 3l4 -131q0 -23 -11.5 -37t-31 -14t-31 14.5t-11.5 37.5l4 131l-152 -3q-22 0 -36 12t-14 30t14 30t36 12zM321 91
l-190 -3q-22 0 -35.5 12t-13.5 30t13.5 30t35.5 12l190 -3l190 3q22 0 35.5 -12t13.5 -30t-13.5 -30t-35.5 -12z" />
    <glyph glyph-name="twosuperior" unicode="&#xb2;" horiz-adv-x="435" 
d="M213 336l-100 -4q-19 0 -34 11t-15 30t15.5 39.5t50 57t47 52t25.5 30.5t21.5 26t19.5 26q22 30 22 47.5t-14.5 29.5t-36 12t-51 -22t-48.5 -22t-28.5 10t-9.5 30t39.5 48t99.5 28t95.5 -32t35.5 -73q0 -37 -29 -80q-20 -30 -34 -47.5t-26.5 -34.5t-78.5 -93q67 0 102 2
t41 2q50 0 50 -38.5t-50 -38.5z" />
    <glyph glyph-name="threesuperior" unicode="&#xb3;" horiz-adv-x="431" 
d="M207 750l81 3q31 0 46.5 -13t15.5 -29.5t-9.5 -27.5t-35.5 -34.5t-48 -50.5q54 -14 83.5 -50.5t29.5 -88.5t-44.5 -96t-118.5 -44q-55 0 -99.5 31.5t-44.5 56.5q0 35 33 35q18 0 48.5 -24.5t66.5 -24.5t57.5 19.5t21.5 51.5t-23 53.5t-58 25.5q-37 -32 -68 -32
q-45 0 -45 41q0 15 17 30t50 22q61 56 79 75q-12 1 -45 1l-78 -3q-21 0 -34.5 9.5t-13.5 27t13 28.5t35 11z" />
    <glyph glyph-name="acute" unicode="&#xb4;" horiz-adv-x="330" 
d="M245 696q0 -44 -47.5 -88.5t-79.5 -44.5q-16 0 -24.5 8t-8.5 20t24 41.5t33 49.5t14.5 29.5t18 19t30 9.5t29 -13.5t11.5 -30.5z" />
    <glyph glyph-name="paragraph" unicode="&#xb6;" horiz-adv-x="662" 
d="M405 750l84 3q26 0 41 -15.5t15 -33.5t-1 -82q-4 -149 -4 -298t3 -248.5t3 -102.5q-2 -58 -48.5 -58t-46.5 58q0 8 1 52q5 132 5 241l-5 410h-95l-5 -410q0 -91 3 -190.5t3 -102.5q0 -57 -47.5 -57t-47.5 57q0 7 1 53q5 138 5 293q-94 5 -152 63.5t-58 143.5
q0 106 66 165.5t182 61.5z" />
    <glyph glyph-name="periodcentered" unicode="&#xb7;" horiz-adv-x="269" 
d="M176.5 427q13.5 -17 13.5 -43t-17 -47.5t-41.5 -21.5t-38.5 18t-14 44t16.5 46.5t42 20.5t39 -17z" />
    <glyph glyph-name="cedilla" unicode="&#xb8;" horiz-adv-x="341" 
d="M281 -133q0 -42 -37.5 -69.5t-89.5 -27.5t-83.5 24.5t-31.5 50.5q0 9 7.5 17t19 8t37 -12t44.5 -12t31 7t12 16.5t-14.5 20t-32 20.5t-32 27.5t-14.5 38.5v43h81v-28q0 -15 16 -30t35.5 -25.5t35.5 -28.5t16 -40z" />
    <glyph glyph-name="onesuperior" unicode="&#xb9;" horiz-adv-x="350" 
d="M264 544l3 -167q0 -21 -11 -33.5t-30 -12.5t-30 12.5t-11 33.5l3 167v92q-11 -11 -25.5 -24.5t-22 -21t-17.5 -16.5t-15.5 -13t-11.5 -9q-11 -7 -24 -7t-23 9t-10 20.5t2 18t9 15t14 16t24 25t49 52t47.5 47t38.5 12.5q44 0 44 -57z" />
    <glyph glyph-name="ordmasculine" unicode="&#xba;" horiz-adv-x="425" 
d="M320 718q42 -47 42 -118.5t-41.5 -117t-108.5 -45.5t-108 45.5t-41 116.5t41.5 118.5t107.5 47.5t108 -47zM266 531.5q19 25.5 19 68t-19.5 69.5t-53 27t-53 -27t-19.5 -69.5t19 -68t53.5 -25.5t53.5 25.5z" />
    <glyph glyph-name="guillemotright" unicode="&#xbb;" horiz-adv-x="604" 
d="M546 376q0 -17 -16 -35t-53.5 -48.5t-52 -44t-22.5 -20.5q-20 -16 -40.5 -16t-32.5 11.5t-12 27t10.5 26.5t38.5 29t32 21q57 41 57 49t-57 49q-8 6 -26 17.5t-28 18.5q-27 20 -27 38t12 29.5t29.5 11.5t31 -8t31.5 -25t55.5 -47.5t53.5 -48.5t16 -35zM306 376
q0 -17 -16 -35t-53.5 -48.5t-52 -44t-22.5 -20.5q-20 -16 -40.5 -16t-32.5 11.5t-12 27t10.5 26.5t38.5 29t32 21q57 41 57 49t-57 49q-8 6 -26 17.5t-28 18.5q-27 20 -27 38t12 29.5t29.5 11.5t31 -8t31.5 -25t55.5 -47.5t53.5 -48.5t16 -35z" />
    <glyph glyph-name="onequarter" unicode="&#xbc;" horiz-adv-x="927" 
d="M276 544l3 -167q0 -21 -11.5 -33.5t-30 -12.5t-30 12.5t-11.5 33.5l3 167v92q-17 -17 -35.5 -38t-27.5 -31q-23 -25 -40 -25t-28.5 10.5t-11.5 24t5 22t13 15.5q40 38 67 69.5t33.5 38.5t15.5 16.5t14 13.5q14 8 30 8q45 0 45 -57zM804 125l3 -85q0 -50 -39.5 -50
t-39.5 50l3 88l-165 -2q-22 0 -32 11.5t-10 26t16.5 39t56.5 75.5t47 60t19 24.5t23 29.5q32 42 66 42q23 0 39 -18.5t16 -44.5q0 -1 -1.5 -59t-1.5 -119q4 1 14 1q48 0 48 -34q0 -36 -52 -36zM622 192h108q1 34 1 140q-42 -50 -109 -140zM545 531q-35 -89 -59.5 -156.5
t-111.5 -327.5q-11 -32 -23.5 -44.5t-29.5 -12.5t-30 11t-13 29.5t14.5 58.5t49 127.5t60.5 159t65.5 191t47.5 143.5q16 50 54 50q14 0 27 -11t13 -29.5t-14.5 -59t-49.5 -129.5z" />
    <glyph glyph-name="onehalf" unicode="&#xbd;" horiz-adv-x="930" 
d="M676 70l137 5q51 0 51 -39t-51 -39l-103 4l-91 -4q-19 0 -33.5 11.5t-14.5 30.5t9.5 34t43.5 54.5t46.5 56t26.5 33.5t21 26.5t18 24.5q20 31 20 48.5t-13 29.5t-38 12t-47.5 -22t-38.5 -22t-26 10t-10 30t37 48t94 28t91 -32t34 -69.5t-27 -81t-74 -100t-62 -77.5z
M276 544l3 -167q0 -21 -11.5 -33.5t-30 -12.5t-30 12.5t-11.5 33.5l3 167v92q-17 -17 -35.5 -38t-27.5 -31q-23 -25 -40 -25t-28.5 10.5t-11.5 24t5 22t13 15.5q40 38 67 69.5t33.5 38.5t15.5 16.5t14 13.5q14 8 30 8q45 0 45 -57zM545 531q-35 -89 -59.5 -156.5
t-111.5 -327.5q-11 -32 -23.5 -44.5t-29.5 -12.5t-30 11t-13 29.5t14.5 58.5t49 127.5t60.5 159t65.5 191t47.5 143.5q16 50 54 50q14 0 27 -11t13 -29.5t-14.5 -59t-49.5 -129.5z" />
    <glyph glyph-name="threequarters" unicode="&#xbe;" horiz-adv-x="978" 
d="M208 750l75 2q63 0 63 -43q0 -26 -57 -79q-25 -24 -32 -32q52 -14 80.5 -50.5t28.5 -88.5t-46 -96t-122 -44q-49 0 -89 31.5t-40 56.5q0 35 33 35q14 0 27 -12t31 -24.5t49 -12.5t53.5 19.5t22.5 51.5t-21.5 53.5t-53.5 25.5q-21 -32 -59 -32q-19 0 -31.5 10.5t-12.5 28
t15.5 32.5t46.5 22q53 52 74 75l-119 -1q-47 0 -47 35q0 18 12.5 28.5t34.5 10.5zM857 125l3 -85q0 -50 -39.5 -50t-39.5 50l3 88l-165 -2q-22 0 -32 11.5t-10 26t16.5 39t56.5 75.5t47 60t19 24.5t23 29.5q32 42 66 42q23 0 39 -18.5t16 -44.5q0 -1 -1.5 -59t-1.5 -119
q4 1 14 1q48 0 48 -34q0 -36 -52 -36zM675 192h108q1 34 1 140q-42 -50 -109 -140zM598 531q-35 -89 -59.5 -156.5t-111.5 -327.5q-11 -32 -23.5 -44.5t-29.5 -12.5t-30 11t-13 29.5t14.5 58.5t49 127.5t60.5 159t65.5 191t47.5 143.5q16 50 54 50q14 0 27 -11t13 -29.5
t-14.5 -59t-49.5 -129.5z" />
    <glyph glyph-name="questiondown" unicode="&#xbf;" horiz-adv-x="513" 
d="M62 101q0 38 16.5 74t32 54.5t47.5 51.5q30 25 45.5 39.5t30 38.5t14.5 48q0 66 45 66q20 0 33 -17.5t13 -46.5t-8 -53t-27 -48q-26 -30 -74 -73q-24 -27 -36 -42t-24 -41t-12 -51q0 -43 32.5 -70.5t73.5 -27.5q61 0 105 44q24 28 43.5 28t30.5 -12.5t11 -29.5
q0 -38 -57.5 -78t-127.5 -40q-92 0 -149.5 53.5t-57.5 132.5zM254 586q-13 17 -13 42.5t17 46.5t41 21t37.5 -18.5t13.5 -43.5t-16.5 -45t-41.5 -20t-38 17z" />
    <glyph glyph-name="Agrave" unicode="&#xc0;" horiz-adv-x="692" 
d="M476 241l-129 3q-96 0 -140 -2q-11 -33 -31.5 -103.5t-33.5 -109.5t-46 -39q-19 0 -30.5 12t-11.5 26.5t1.5 23.5t7 27t11.5 34q29 86 42 126q-29 0 -45.5 12.5t-16.5 33.5q0 47 74 47h18q96 268 110.5 306.5t16.5 44.5t6.5 17.5t8 17t8.5 13.5t9.5 12.5t10.5 8.5
q13 8 27.5 8t23.5 -3t17 -11t13.5 -17t13 -28t13.5 -35q48 -147 120 -334l36 1q26 0 42.5 -14t16.5 -35q0 -44 -66 -47q10 -32 27 -81q39 -106 39 -122.5t-11.5 -30t-31.5 -13.5q-36 0 -52 39q-17 49 -68 212zM232 328q64 -2 123.5 -2t95.5 2q-105 302 -107 302
q-6 0 -86 -226zM236 946q0 17 11.5 30.5t29 13.5t30 -9.5t18 -19t14.5 -29.5t33 -49.5t24 -41.5t-8.5 -20t-24.5 -8q-32 0 -79.5 44.5t-47.5 88.5z" />
    <glyph glyph-name="Aacute" unicode="&#xc1;" horiz-adv-x="692" 
d="M476 241l-129 3q-96 0 -140 -2q-11 -33 -31.5 -103.5t-33.5 -109.5t-46 -39q-19 0 -30.5 12t-11.5 26.5t1.5 23.5t7 27t11.5 34q29 86 42 126q-29 0 -45.5 12.5t-16.5 33.5q0 47 74 47h18q96 268 110.5 306.5t16.5 44.5t6.5 17.5t8 17t8.5 13.5t9.5 12.5t10.5 8.5
q13 8 27.5 8t23.5 -3t17 -11t13.5 -17t13 -28t13.5 -35q48 -147 120 -334l36 1q26 0 42.5 -14t16.5 -35q0 -44 -66 -47q10 -32 27 -81q39 -106 39 -122.5t-11.5 -30t-31.5 -13.5q-36 0 -52 39q-17 49 -68 212zM232 328q64 -2 123.5 -2t95.5 2q-105 302 -107 302
q-6 0 -86 -226zM466 946q0 -44 -47.5 -88.5t-79.5 -44.5q-16 0 -24.5 8t-8.5 20t24 41.5t33 49.5t14.5 29.5t18 19t30 9.5t29 -13.5t11.5 -30.5z" />
    <glyph glyph-name="Acircumflex" unicode="&#xc2;" horiz-adv-x="692" 
d="M429 842q-69 81 -83 81q-16 0 -80 -77q-5 -6 -8 -8l-7 -8q-13 -13 -30.5 -13t-28.5 10.5t-11 29t26 40t52.5 51.5t45.5 46t40.5 16t41 -16t45.5 -46t52.5 -52t26.5 -40t-11 -28.5t-24 -10.5t-22 5q-13 7 -25 20zM476 241l-129 3q-96 0 -140 -2q-11 -33 -31.5 -103.5
t-33.5 -109.5t-46 -39q-19 0 -30.5 12t-11.5 26.5t1.5 23.5t7 27t11.5 34q29 86 42 126q-29 0 -45.5 12.5t-16.5 33.5q0 47 74 47h18q96 268 110.5 306.5t16.5 44.5t6.5 17.5t8 17t8.5 13.5t9.5 12.5t10.5 8.5q13 8 27.5 8t23.5 -3t17 -11t13.5 -17t13 -28t13.5 -35
q48 -147 120 -334l36 1q26 0 42.5 -14t16.5 -35q0 -44 -66 -47q10 -32 27 -81q39 -106 39 -122.5t-11.5 -30t-31.5 -13.5q-36 0 -52 39q-17 49 -68 212zM232 328q64 -2 123.5 -2t95.5 2q-105 302 -107 302q-6 0 -86 -226z" />
    <glyph glyph-name="Atilde" unicode="&#xc3;" horiz-adv-x="692" 
d="M476 241l-129 3q-96 0 -140 -2q-11 -33 -31.5 -103.5t-33.5 -109.5t-46 -39q-19 0 -30.5 12t-11.5 26.5t1.5 23.5t7 27t11.5 34q29 86 42 126q-29 0 -45.5 12.5t-16.5 33.5q0 47 74 47h18q96 268 110.5 306.5t16.5 44.5t6.5 17.5t8 17t8.5 13.5t9.5 12.5t10.5 8.5
q13 8 27.5 8t23.5 -3t17 -11t13.5 -17t13 -28t13.5 -35q48 -147 120 -334l36 1q26 0 42.5 -14t16.5 -35q0 -44 -66 -47q10 -32 27 -81q39 -106 39 -122.5t-11.5 -30t-31.5 -13.5q-36 0 -52 39q-17 49 -68 212zM232 328q64 -2 123.5 -2t95.5 2q-105 302 -107 302
q-6 0 -86 -226zM544 915q0 -36 -31 -63t-70 -27t-93 31q-44 22 -66 22t-46.5 -29.5t-45 -29.5t-33 12.5t-12.5 30.5q0 36 37 64.5t86 28.5t102 -27.5t70.5 -27.5t38 25t34 25t21.5 -10.5t8 -24.5z" />
    <glyph glyph-name="Adieresis" unicode="&#xc4;" horiz-adv-x="692" 
d="M476 241l-129 3q-96 0 -140 -2q-11 -33 -31.5 -103.5t-33.5 -109.5t-46 -39q-19 0 -30.5 12t-11.5 26.5t1.5 23.5t7 27t11.5 34q29 86 42 126q-29 0 -45.5 12.5t-16.5 33.5q0 47 74 47h18q96 268 110.5 306.5t16.5 44.5t6.5 17.5t8 17t8.5 13.5t9.5 12.5t10.5 8.5
q13 8 27.5 8t23.5 -3t17 -11t13.5 -17t13 -28t13.5 -35q48 -147 120 -334l36 1q26 0 42.5 -14t16.5 -35q0 -44 -66 -47q10 -32 27 -81q39 -106 39 -122.5t-11.5 -30t-31.5 -13.5q-36 0 -52 39q-17 49 -68 212zM232 328q64 -2 123.5 -2t95.5 2q-105 302 -107 302
q-6 0 -86 -226zM485.5 940q13.5 -17 13.5 -43.5t-17 -47.5t-41.5 -21t-38.5 18t-14 44t16.5 46.5t42 20.5t39 -17zM290.5 940q13.5 -17 13.5 -43.5t-17 -47.5t-41.5 -21t-38.5 18t-14 44t16.5 46.5t42 20.5t39 -17z" />
    <glyph glyph-name="Aring" unicode="&#xc5;" horiz-adv-x="692" 
d="M476 241l-129 3q-96 0 -140 -2q-11 -33 -31.5 -103.5t-33.5 -109.5t-46 -39q-19 0 -30.5 12t-11.5 26.5t1.5 23.5t7 27t11.5 34q29 86 42 126q-29 0 -45.5 12.5t-16.5 33.5q0 47 74 47h18q96 268 110.5 306.5t16.5 44.5t6.5 17.5t8 17t8.5 13.5t9.5 12.5t10.5 8.5
q13 8 27.5 8t23.5 -3t17 -11t13.5 -17t13 -28t13.5 -35q48 -147 120 -334l36 1q26 0 42.5 -14t16.5 -35q0 -44 -66 -47q10 -32 27 -81q39 -106 39 -122.5t-11.5 -30t-31.5 -13.5q-36 0 -52 39q-17 49 -68 212zM232 328q64 -2 123.5 -2t95.5 2q-105 302 -107 302
q-6 0 -86 -226zM419.5 986q29.5 -30 29.5 -72.5t-28.5 -70.5t-74.5 -28t-74.5 28t-28.5 71t29.5 72.5t73.5 29.5t73.5 -30zM384 914q0 15 -12 28t-26.5 13t-26 -12.5t-11.5 -28t11 -27.5t26.5 -12t27 12t11.5 27z" />
    <glyph glyph-name="AE" unicode="&#xc6;" horiz-adv-x="891" 
d="M338 623q-6 0 -81 -221l-25 -74q48 -3 78 -3t50.5 0.5t31.5 0.5q-39 237 -54 297zM676 0l-173 -5q-58 0 -67 49q-16 87 -33 198q-26 1 -100 1t-96 -1q-11 -33 -31.5 -103.5t-33.5 -109.5t-46 -39q-19 0 -30.5 12t-11.5 26.5t1.5 23.5t7 27t11.5 34q29 86 42 126
q-29 0 -45.5 12.5t-16.5 33.5q0 47 74 47h18q57 160 85.5 237t33.5 91.5t8.5 24t11 24t15.5 23.5q19 23 41 23l207 -5l129 6q27 0 43.5 -12.5t16.5 -34.5t-16.5 -34.5t-43.5 -12.5l-129 6q-72 0 -129 -5q1 -1 40 -217q34 -2 74 -2l149 5q27 0 43 -12.5t16 -33.5
q0 -44 -59 -44l-149 4q-38 0 -58 -1q43 -238 52 -273q79 -7 149 -7l129 6q27 0 43.5 -12.5t16.5 -34.5t-16.5 -34.5t-43.5 -12.5z" />
    <glyph glyph-name="Ccedilla" unicode="&#xc7;" horiz-adv-x="708" 
d="M515 -133q0 -42 -37.5 -69.5t-89.5 -27.5t-83.5 24.5t-31.5 50.5q0 9 7.5 17t19 8t37 -12t44.5 -12t31 7t12 16t-14.5 19.5t-31.5 21t-32 33t-15 51.5q-116 28 -187.5 134.5t-71.5 247.5q0 163 95.5 276t239.5 113q88 0 157.5 -33t69.5 -74q0 -20 -12 -32t-31.5 -12
t-55.5 23q-58 41 -128 41q-104 0 -171.5 -89.5t-67.5 -212t67.5 -213.5t165.5 -91t179 49q33 18 44.5 18t21 -9.5t9.5 -23.5q0 -35 -72 -77t-171 -44q3 -17 29 -34t50 -37t24 -47z" />
    <glyph glyph-name="Egrave" unicode="&#xc8;" horiz-adv-x="639" 
d="M514 662l-159 6q-77 0 -137 -5v-222q19 -1 66 -1l179 5q27 0 43 -12.5t16 -33.5q0 -44 -59 -44l-179 4q-43 0 -66 -1v-79q0 -146 4 -192q60 -5 136 -5l159 6q27 0 43.5 -12.5t16.5 -34.5t-16.5 -34.5t-43.5 -12.5l-159 6l-181 -5q-54 0 -54 46q0 35 2.5 114.5t2.5 199.5
q-67 0 -67 44q0 23 19 34.5t48 11.5q-2 187 -7 225q-12 19 -12 40q0 45 62 45l184 -5l159 6q27 0 43.5 -12.5t16.5 -34.5t-16.5 -34.5t-43.5 -12.5zM229 946q0 17 11.5 30.5t29 13.5t30 -9.5t18 -19t14.5 -29.5t33 -49.5t24 -41.5t-8.5 -20t-24.5 -8q-32 0 -79.5 44.5
t-47.5 88.5z" />
    <glyph glyph-name="Eacute" unicode="&#xc9;" horiz-adv-x="639" 
d="M514 662l-159 6q-77 0 -137 -5v-222q19 -1 66 -1l179 5q27 0 43 -12.5t16 -33.5q0 -44 -59 -44l-179 4q-43 0 -66 -1v-79q0 -146 4 -192q60 -5 136 -5l159 6q27 0 43.5 -12.5t16.5 -34.5t-16.5 -34.5t-43.5 -12.5l-159 6l-181 -5q-54 0 -54 46q0 35 2.5 114.5t2.5 199.5
q-67 0 -67 44q0 23 19 34.5t48 11.5q-2 187 -7 225q-12 19 -12 40q0 45 62 45l184 -5l159 6q27 0 43.5 -12.5t16.5 -34.5t-16.5 -34.5t-43.5 -12.5zM439 946q0 -44 -47.5 -88.5t-79.5 -44.5q-16 0 -24.5 8t-8.5 20t24 41.5t33 49.5t14.5 29.5t18 19t30 9.5t29 -13.5
t11.5 -30.5z" />
    <glyph glyph-name="Ecircumflex" unicode="&#xca;" horiz-adv-x="639" 
d="M463 445l-179 -5q-47 0 -66 1v222q60 5 137 5l159 -6q27 0 43.5 12.5t16.5 34.5t-16.5 34.5t-43.5 12.5l-159 -6l-184 5q-62 0 -62 -45q0 -21 12 -40q5 -38 7 -225q-29 0 -48 -11.5t-19 -34.5q0 -44 67 -44q0 -120 -2.5 -199.5t-2.5 -114.5q0 -46 54 -46l181 5l159 -6
q27 0 43.5 12.5t16.5 34.5t-16.5 34.5t-43.5 12.5l-159 -6q-76 0 -136 5q-4 46 -4 192v79q23 1 66 1l179 -4q59 0 59 44q0 21 -16 33.5t-43 12.5zM415 842q-69 81 -83 81q-16 0 -80 -77q-5 -6 -8 -8l-7 -8q-13 -13 -30.5 -13t-28.5 10.5t-11 29t26 40t52.5 51.5t45.5 46
t40.5 16t41 -16t45.5 -46t52.5 -52t26.5 -40t-11 -28.5t-24 -10.5t-22 5q-13 7 -25 20z" />
    <glyph glyph-name="Edieresis" unicode="&#xcb;" horiz-adv-x="639" 
d="M514 662l-159 6q-77 0 -137 -5v-222q19 -1 66 -1l179 5q27 0 43 -12.5t16 -33.5q0 -44 -59 -44l-179 4q-43 0 -66 -1v-79q0 -146 4 -192q60 -5 136 -5l159 6q27 0 43.5 -12.5t16.5 -34.5t-16.5 -34.5t-43.5 -12.5l-159 6l-181 -5q-54 0 -54 46q0 35 2.5 114.5t2.5 199.5
q-67 0 -67 44q0 23 19 34.5t48 11.5q-2 187 -7 225q-12 19 -12 40q0 45 62 45l184 -5l159 6q27 0 43.5 -12.5t16.5 -34.5t-16.5 -34.5t-43.5 -12.5zM475.5 950q13.5 -17 13.5 -43.5t-17 -47.5t-41.5 -21t-38.5 18t-14 44t16.5 46.5t42 20.5t39 -17zM280.5 950
q13.5 -17 13.5 -43.5t-17 -47.5t-41.5 -21t-38.5 18t-14 44t16.5 46.5t42 20.5t39 -17z" />
    <glyph glyph-name="Igrave" unicode="&#xcc;" horiz-adv-x="486" 
d="M374 661l-82 4q-4 -97 -4 -278.5t5 -303.5l81 4q27 0 43.5 -12.5t16.5 -34t-16.5 -34t-43.5 -12.5l-131 6l-131 -6q-27 0 -43.5 12.5t-16.5 34t16.5 34t43.5 12.5l81 -5q5 122 5 304t-4 279l-82 -4q-27 0 -43.5 13t-16.5 35t16.5 34.5t43.5 12.5l131 -6l131 6
q27 0 43.5 -12.5t16.5 -34.5t-16.5 -35t-43.5 -13zM133 946q0 17 11.5 30.5t29 13.5t30 -9.5t18 -19t14.5 -29.5t33 -49.5t24 -41.5t-8.5 -20t-24.5 -8q-32 0 -79.5 44.5t-47.5 88.5z" />
    <glyph glyph-name="Iacute" unicode="&#xcd;" horiz-adv-x="502" 
d="M390 661l-90 4q-4 -97 -4 -278.5t5 -303.5l89 5q27 0 43.5 -12.5t16.5 -34.5t-16.5 -34.5t-43.5 -12.5l-139 6l-139 -7q-27 0 -43.5 12.5t-16.5 34.5t16.5 34.5t43.5 12.5l89 -5q5 122 5 304t-4 279l-90 -4q-27 0 -43.5 12.5t-16.5 34.5t16.5 34.5t43.5 12.5l139 -5
l139 6q27 0 43.5 -12.5t16.5 -34.5t-16.5 -35t-43.5 -13zM360 946q0 -44 -47.5 -88.5t-79.5 -44.5q-16 0 -24.5 8t-8.5 20t24 41.5t33 49.5t14.5 29.5t18 19t30 9.5t29 -13.5t11.5 -30.5z" />
    <glyph glyph-name="Icircumflex" unicode="&#xce;" horiz-adv-x="486" 
d="M374 661l-82 4q-4 -97 -4 -278.5t5 -303.5l81 4q27 0 43.5 -12.5t16.5 -34t-16.5 -34t-43.5 -12.5l-131 6l-131 -6q-27 0 -43.5 12.5t-16.5 34t16.5 34t43.5 12.5l81 -5q5 122 5 304t-4 279l-82 -4q-27 0 -43.5 13t-16.5 35t16.5 34.5t43.5 12.5l131 -6l131 6
q27 0 43.5 -12.5t16.5 -34.5t-16.5 -35t-43.5 -13zM329 842q-69 81 -83 81q-16 0 -80 -77q-5 -6 -8 -8l-7 -8q-13 -13 -30.5 -13t-28.5 10.5t-11 29t26 40t52.5 51.5t45.5 46t40.5 16t41 -16t45.5 -46t52.5 -52t26.5 -40t-11 -28.5t-24 -10.5t-22 5q-13 7 -25 20z" />
    <glyph glyph-name="Idieresis" unicode="&#xcf;" horiz-adv-x="486" 
d="M374 661l-82 4q-4 -97 -4 -278.5t5 -303.5l81 4q27 0 43.5 -12.5t16.5 -34t-16.5 -34t-43.5 -12.5l-131 6l-131 -6q-27 0 -43.5 12.5t-16.5 34t16.5 34t43.5 12.5l81 -5q5 122 5 304t-4 279l-82 -4q-27 0 -43.5 13t-16.5 35t16.5 34.5t43.5 12.5l131 -6l131 6
q27 0 43.5 -12.5t16.5 -34.5t-16.5 -35t-43.5 -13zM382.5 950q13.5 -17 13.5 -43.5t-17 -47.5t-41.5 -21t-38.5 18t-14 44t16.5 46.5t42 20.5t39 -17zM187.5 950q13.5 -17 13.5 -43.5t-17 -47.5t-41.5 -21t-38.5 18t-14 44t16.5 46.5t42 20.5t39 -17z" />
    <glyph glyph-name="Eth" unicode="&#xd0;" horiz-adv-x="770" 
d="M138 411l-5 225q-44 4 -44 41.5t79 62t163.5 24.5t157.5 -33t117 -89q91 -114 91 -270q0 -152 -87 -264q-43 -56 -114 -89.5t-169 -33.5t-170 25t-72 64q0 37 50 37l3 223q-20 -1 -55.5 -1t-49 11t-13.5 29t13.5 29t39 11t65.5 -2zM232 661q-3 -55 -3 -250q44 2 72 2
t41.5 -11t13.5 -29t-13.5 -29t-41.5 -11t-72 2q0 -165 5 -250q36 -13 101 -13t117.5 26t83.5 70q65 90 65 211.5t-71.5 210t-206.5 88.5q-57 0 -91 -17z" />
    <glyph glyph-name="Ntilde" unicode="&#xd1;" horiz-adv-x="743" 
d="M577 925q0 -36 -31 -63t-70 -27t-93 31q-44 22 -66 22t-46.5 -29.5t-45 -29.5t-33 12.5t-12.5 30.5q0 36 37 64.5t86 28.5t102 -27.5t70.5 -27.5t38 25t34 25t21.5 -10.5t8 -24.5zM626 372l3 -310q0 -72 -53 -72q-33 0 -50 31l-317 546q0 -233 2.5 -372t2.5 -155.5
t-15 -33t-35.5 -16.5t-35 16.5t-14.5 41.5l4 324q0 103 -2.5 209t-2.5 108q0 71 51 71q37 0 55 -31q291 -500 317 -540q0 283 -3 390t-3 110q0 71 51 71t51 -71q0 -8 -2 -53q-4 -133 -4 -264z" />
    <glyph glyph-name="Ograve" unicode="&#xd2;" horiz-adv-x="824" 
d="M586.5 164q69.5 92 69.5 213t-69 211.5t-174.5 90.5t-175 -90.5t-69.5 -211t70 -213t174.5 -92.5t174 92zM752 376q0 -163 -97.5 -277t-243 -114t-242.5 114t-97 277t98 276t243.5 113t242 -113t96.5 -276zM302 946q0 17 11.5 30.5t29 13.5t30 -9.5t18 -19t14.5 -29.5
t33 -49.5t24 -41.5t-8.5 -20t-24.5 -8q-32 0 -79.5 44.5t-47.5 88.5z" />
    <glyph glyph-name="Oacute" unicode="&#xd3;" horiz-adv-x="824" 
d="M586.5 164q69.5 92 69.5 213t-69 211.5t-174.5 90.5t-175 -90.5t-69.5 -211t70 -213t174.5 -92.5t174 92zM752 376q0 -163 -97.5 -277t-243 -114t-242.5 114t-97 277t98 276t243.5 113t242 -113t96.5 -276zM522 946q0 -44 -47.5 -88.5t-79.5 -44.5q-16 0 -24.5 8t-8.5 20
t24 41.5t33 49.5t14.5 29.5t18 19t30 9.5t29 -13.5t11.5 -30.5z" />
    <glyph glyph-name="Ocircumflex" unicode="&#xd4;" horiz-adv-x="824" 
d="M586.5 164q69.5 92 69.5 213t-69 211.5t-174.5 90.5t-175 -90.5t-69.5 -211t70 -213t174.5 -92.5t174 92zM752 376q0 -163 -97.5 -277t-243 -114t-242.5 114t-97 277t98 276t243.5 113t242 -113t96.5 -276zM498 842q-69 81 -84 81t-79 -77q-5 -6 -7 -8l-8 -8
q-13 -13 -30.5 -13t-28.5 10.5t-11 29t26 40t52.5 51.5t45.5 46t40.5 16t41 -16t45.5 -46t52.5 -52t26.5 -40t-11 -28.5t-24 -10.5t-21 5q-14 7 -26 20z" />
    <glyph glyph-name="Otilde" unicode="&#xd5;" horiz-adv-x="824" 
d="M610 927q0 -36 -31 -63t-70 -27t-93 31q-44 22 -66 22t-46.5 -29.5t-45 -29.5t-33 12.5t-12.5 30.5q0 36 37 64.5t86 28.5t102 -27.5t70.5 -27.5t38 25t34 25t21.5 -10.5t8 -24.5zM586.5 164q69.5 92 69.5 213t-69 211.5t-174.5 90.5t-175 -90.5t-69.5 -211t70 -213
t174.5 -92.5t174 92zM752 376q0 -163 -97.5 -277t-243 -114t-242.5 114t-97 277t98 276t243.5 113t242 -113t96.5 -276z" />
    <glyph glyph-name="Odieresis" unicode="&#xd6;" horiz-adv-x="824" 
d="M586.5 164q69.5 92 69.5 213t-69 211.5t-174.5 90.5t-175 -90.5t-69.5 -211t70 -213t174.5 -92.5t174 92zM752 376q0 -163 -97.5 -277t-243 -114t-242.5 114t-97 277t98 276t243.5 113t242 -113t96.5 -276zM551.5 950q13.5 -17 13.5 -43t-17 -47.5t-41.5 -21.5t-38.5 18
t-14 44t16.5 46.5t42 20.5t39 -17zM356.5 950q13.5 -17 13.5 -43t-17 -47.5t-41.5 -21.5t-38.5 18t-14 44t16.5 46.5t42 20.5t39 -17z" />
    <glyph glyph-name="multiply" unicode="&#xd7;" horiz-adv-x="573" 
d="M286 322q-3 -3 -42.5 -39.5t-82.5 -79.5q-16 -16 -34 -16t-30 12t-12 28.5t20.5 36.5t65 57.5t62.5 54.5q-18 17 -61 52t-64 55.5t-21 38.5t12.5 29.5t29.5 11.5t38 -18t60.5 -57t58.5 -56q15 13 55.5 53.5t62 59.5t38.5 19t29.5 -11.5t12.5 -29.5t-21 -38t-63 -55
t-61 -53q17 -16 61.5 -53.5t71.5 -62.5q16 -16 16 -32.5t-12 -28.5t-30 -12t-34 16q-53 53 -126 118z" />
    <glyph glyph-name="Oslash" unicode="&#xd8;" horiz-adv-x="824" 
d="M656 376q0 88 -38 163t-102 112q-85 -322 -140 -576q16 -3 36 -3q105 0 174.5 92t69.5 212zM429 678l-17 1q-105 0 -174.5 -90.5t-69.5 -212.5q0 -79 33 -151t90 -113q36 112 138 566zM752 376q0 -163 -97.5 -277t-243.5 -114q-18 0 -54 4q-18 -73 -59 -73
q-19 0 -30.5 14t-11.5 36.5t11 53.5q-89 46 -142 142t-53 214q0 163 98 276t243 113q12 0 34 -2q10 40 23 56t34 16t32.5 -14t11.5 -34t-10 -48q97 -42 155.5 -141t58.5 -222z" />
    <glyph glyph-name="Ugrave" unicode="&#xd9;" horiz-adv-x="743" 
d="M569 61.5q-69 -76.5 -197.5 -76.5t-197.5 77t-71 187q-1 52 -1 129t-1.5 147.5t-3 113t-1.5 50.5q0 71 51 71t51 -71q0 -8 -2 -63q-4 -167 -4 -260.5t7.5 -135.5t26.5 -80q37 -78 145 -78q153 0 175 177q5 35 5 94.5t-1.5 143t-3 139t-1.5 63.5q0 71 51 71t51 -71
q0 -8 -1 -51q-5 -127 -5 -232t-1 -157q-2 -111 -71 -187.5zM265 946q0 17 11.5 30.5t29 13.5t30 -9.5t18 -19t14.5 -29.5t33 -49.5t24 -41.5t-8.5 -20t-24.5 -8q-32 0 -79.5 44.5t-47.5 88.5z" />
    <glyph glyph-name="Uacute" unicode="&#xda;" horiz-adv-x="743" 
d="M479 946q0 -44 -47.5 -88.5t-79.5 -44.5q-16 0 -24.5 8t-8.5 20t24 41.5t33 49.5t14.5 29.5t18 19t30 9.5t29 -13.5t11.5 -30.5zM569 61.5q-69 -76.5 -197.5 -76.5t-197.5 77t-71 187q-1 52 -1 129t-1.5 147.5t-3 113t-1.5 50.5q0 71 51 71t51 -71q0 -8 -2 -63
q-4 -167 -4 -260.5t7.5 -135.5t26.5 -80q37 -78 145 -78q153 0 175 177q5 35 5 94.5t-1.5 143t-3 139t-1.5 63.5q0 71 51 71t51 -71q0 -8 -1 -51q-5 -127 -5 -232t-1 -157q-2 -111 -71 -187.5z" />
    <glyph glyph-name="Ucircumflex" unicode="&#xdb;" horiz-adv-x="743" 
d="M569 61.5q-69 -76.5 -197.5 -76.5t-197.5 77t-71 187q-1 52 -1 129t-1.5 147.5t-3 113t-1.5 50.5q0 71 51 71t51 -71q0 -8 -2 -63q-4 -167 -4 -260.5t7.5 -135.5t26.5 -80q37 -78 145 -78q153 0 175 177q5 35 5 94.5t-1.5 143t-3 139t-1.5 63.5q0 71 51 71t51 -71
q0 -8 -1 -51q-5 -127 -5 -232t-1 -157q-2 -111 -71 -187.5zM457 842q-69 81 -83 81q-16 0 -80 -77q-5 -6 -8 -8l-7 -8q-13 -13 -30.5 -13t-28.5 10.5t-11 29t26 40t52.5 51.5t45.5 46t40.5 16t41 -16t45.5 -46t52.5 -52t26.5 -40t-11 -28.5t-24 -10.5t-22 5q-13 7 -25 20z
" />
    <glyph glyph-name="Udieresis" unicode="&#xdc;" horiz-adv-x="743" 
d="M569 61.5q-69 -76.5 -197.5 -76.5t-197.5 77t-71 187q-1 52 -1 129t-1.5 147.5t-3 113t-1.5 50.5q0 71 51 71t51 -71q0 -8 -2 -63q-4 -167 -4 -260.5t7.5 -135.5t26.5 -80q37 -78 145 -78q153 0 175 177q5 35 5 94.5t-1.5 143t-3 139t-1.5 63.5q0 71 51 71t51 -71
q0 -8 -1 -51q-5 -127 -5 -232t-1 -157q-2 -111 -71 -187.5zM509.5 950q13.5 -17 13.5 -43.5t-17 -47.5t-41.5 -21t-38.5 18t-14 44t16.5 46.5t42 20.5t39 -17zM314.5 950q13.5 -17 13.5 -43.5t-17 -47.5t-41.5 -21t-38.5 18t-14 44t16.5 46.5t42 20.5t39 -17z" />
    <glyph glyph-name="Yacute" unicode="&#xdd;" horiz-adv-x="607" 
d="M347 303q0 -80 3 -161l2 -81q0 -71 -51 -71t-51 71l2 83q3 83 3 160q-199 342 -212 369t-13 44t12 30t34.5 13t38.5 -21.5t74.5 -135.5t116.5 -202q24 36 84.5 148t70 128.5t13.5 24t11.5 19.5t12 17.5t10.5 11.5q10 10 28 10t29.5 -12t11.5 -29t-14.5 -44.5t-63 -110.5
t-62.5 -106.5t-39.5 -68t-50.5 -86.5zM413 946q0 -44 -47.5 -88.5t-79.5 -44.5q-16 0 -24.5 8t-8.5 20t24 41.5t33 49.5t14.5 29.5t18 19t30 9.5t29 -13.5t11.5 -30.5z" />
    <glyph glyph-name="Thorn" unicode="&#xde;" horiz-adv-x="617" 
d="M209 524q-1 -37 -1 -94.5t2 -131.5q52 -14 119 -14t108.5 35t41.5 92t-42 92t-109 35t-119 -14zM119 375l-6 314q0 71 51 71t51 -71q0 -15 -2.5 -38.5t-2.5 -38.5q48 13 118 13q110 0 178 -61.5t68 -153t-67.5 -152.5t-177.5 -61q-68 0 -119 12q5 -113 5 -148
q0 -71 -51 -71t-51 71z" />
    <glyph glyph-name="germandbls" unicode="&#xdf;" horiz-adv-x="614" 
d="M122 426l-40 -1q-20 0 -33.5 10t-13.5 29t13.5 28.5t28 9.5t44.5 -2v75q0 95 52 140t133.5 45t128.5 -45.5t47 -110.5q0 -44 -30 -87t-59.5 -76t-29.5 -55.5t32.5 -50.5t71 -50.5t71 -62.5t32.5 -87q0 -65 -45.5 -107.5t-121.5 -42.5q-54 0 -101 25t-47 54q0 41 42 41
q13 0 47.5 -20.5t61 -20.5t48 19t21.5 49.5t-21.5 53.5t-51.5 41t-60.5 37.5t-52 51t-21.5 66.5t18.5 66t40.5 53t40.5 50t18.5 56.5t-23 49.5t-61 21t-63 -26t-25 -86l1 -518q0 -26 -14 -42t-36.5 -16t-35.5 15.5t-13 39.5z" />
    <glyph glyph-name="agrave" unicode="&#xe0;" horiz-adv-x="810" 
d="M648 367q0 -112 14.5 -189.5t35.5 -87.5q8 -4 19 -5.5t16 -4.5t5 -11q0 -36 -20 -59t-53 -23q-44 0 -66 50t-22 128q-53 -84 -111.5 -132t-131 -48t-122.5 34.5t-80 90.5q-60 115 -60 253q0 164 85 283t220 119q52 0 101.5 -19.5t82.5 -49.5q0 69 51 69q63 0 63 -101
q0 -75 -27 -297zM569 355l-6 245q-85 78 -186 78q-83 0 -146 -89.5t-63 -217.5t43.5 -213.5t118 -85.5t150 95t89.5 188zM266 946q0 17 11.5 30.5t29 13.5t30 -9.5t18 -19t14.5 -29.5t33 -49.5t24 -41.5t-8.5 -20t-24.5 -8q-32 0 -79.5 44.5t-47.5 88.5z" />
    <glyph glyph-name="aacute" unicode="&#xe1;" horiz-adv-x="810" 
d="M648 367q0 -112 14.5 -189.5t35.5 -87.5q8 -4 19 -5.5t16 -4.5t5 -11q0 -36 -20 -59t-53 -23q-44 0 -66 50t-22 128q-53 -84 -111.5 -132t-131 -48t-122.5 34.5t-80 90.5q-60 115 -60 253q0 164 85 283t220 119q52 0 101.5 -19.5t82.5 -49.5q0 69 51 69q63 0 63 -101
q0 -75 -27 -297zM569 355l-6 245q-85 78 -186 78q-83 0 -146 -89.5t-63 -217.5t43.5 -213.5t118 -85.5t150 95t89.5 188zM507 946q0 -44 -47.5 -88.5t-79.5 -44.5q-16 0 -24.5 8t-8.5 20t24 41.5t33 49.5t14.5 29.5t18 19t30 9.5t29 -13.5t11.5 -30.5z" />
    <glyph glyph-name="acircumflex" unicode="&#xe2;" horiz-adv-x="810" 
d="M492 842q-69 81 -83 81q-16 0 -80 -77q-5 -6 -8 -8l-7 -8q-13 -13 -30.5 -13t-28.5 10.5t-11 29t26 40t52.5 51.5t45.5 46t40.5 16t41 -16t45.5 -46t52.5 -52t26.5 -40t-11 -28.5t-24 -10.5t-22 5q-13 7 -25 20zM648 367q0 -112 14.5 -189.5t35.5 -87.5q8 -4 19 -5.5
t16 -4.5t5 -11q0 -36 -20 -59t-53 -23q-44 0 -66 50t-22 128q-53 -84 -111.5 -132t-131 -48t-122.5 34.5t-80 90.5q-60 115 -60 253q0 164 85 283t220 119q52 0 101.5 -19.5t82.5 -49.5q0 69 51 69q63 0 63 -101q0 -75 -27 -297zM569 355l-6 245q-85 78 -186 78
q-83 0 -146 -89.5t-63 -217.5t43.5 -213.5t118 -85.5t150 95t89.5 188z" />
    <glyph glyph-name="atilde" unicode="&#xe3;" horiz-adv-x="810" 
d="M648 367q0 -112 14.5 -189.5t35.5 -87.5q8 -4 19 -5.5t16 -4.5t5 -11q0 -36 -20 -59t-53 -23q-44 0 -66 50t-22 128q-53 -84 -111.5 -132t-131 -48t-122.5 34.5t-80 90.5q-60 115 -60 253q0 164 85 283t220 119q52 0 101.5 -19.5t82.5 -49.5q0 69 51 69q63 0 63 -101
q0 -75 -27 -297zM569 355l-6 245q-85 78 -186 78q-83 0 -146 -89.5t-63 -217.5t43.5 -213.5t118 -85.5t150 95t89.5 188zM598 925q0 -36 -31 -63t-70 -27t-93 31q-44 22 -66 22t-46.5 -29.5t-45 -29.5t-33 12.5t-12.5 30.5q0 36 37 64.5t86 28.5t102 -27.5t70.5 -27.5t38 25
t34 25t21.5 -10.5t8 -24.5z" />
    <glyph glyph-name="adieresis" unicode="&#xe4;" horiz-adv-x="810" 
d="M648 367q0 -112 14.5 -189.5t35.5 -87.5q8 -4 19 -5.5t16 -4.5t5 -11q0 -36 -20 -59t-53 -23q-44 0 -66 50t-22 128q-53 -84 -111.5 -132t-131 -48t-122.5 34.5t-80 90.5q-60 115 -60 253q0 164 85 283t220 119q52 0 101.5 -19.5t82.5 -49.5q0 69 51 69q63 0 63 -101
q0 -75 -27 -297zM569 355l-6 245q-85 78 -186 78q-83 0 -146 -89.5t-63 -217.5t43.5 -213.5t118 -85.5t150 95t89.5 188zM518.5 950q13.5 -17 13.5 -43.5t-17 -47.5t-41.5 -21t-38.5 18t-14 44t16.5 46.5t42 20.5t39 -17zM323.5 950q13.5 -17 13.5 -43.5t-17 -47.5
t-41.5 -21t-38.5 18t-14 44t16.5 46.5t42 20.5t39 -17z" />
    <glyph glyph-name="aring" unicode="&#xe5;" horiz-adv-x="810" 
d="M648 367q0 -112 14.5 -189.5t35.5 -87.5q8 -4 19 -5.5t16 -4.5t5 -11q0 -36 -20 -59t-53 -23q-44 0 -66 50t-22 128q-53 -84 -111.5 -132t-131 -48t-122.5 34.5t-80 90.5q-60 115 -60 253q0 164 85 283t220 119q52 0 101.5 -19.5t82.5 -49.5q0 69 51 69q63 0 63 -101
q0 -75 -27 -297zM569 355l-6 245q-85 78 -186 78q-83 0 -146 -89.5t-63 -217.5t43.5 -213.5t118 -85.5t150 95t89.5 188zM484.5 986q29.5 -30 29.5 -72.5t-28.5 -70.5t-74.5 -28t-74.5 28t-28.5 71t29.5 72.5t73.5 29.5t73.5 -30zM449 914q0 15 -12 28t-26.5 13t-26 -12.5
t-11.5 -28t11 -27.5t26.5 -12t27 12t11.5 27z" />
    <glyph glyph-name="ae" unicode="&#xe6;" horiz-adv-x="1169" 
d="M150 239q0 -71 48 -118t110 -47q84 0 147 71t63 198q-95 32 -184.5 32t-136.5 -41t-47 -95zM697 149.5q66 -76.5 146.5 -76.5t164.5 50q32 18 44 18t21.5 -9.5t9.5 -23.5q0 -35 -71.5 -78.5t-164.5 -43.5t-163.5 44.5t-111.5 119.5q-43 -83 -113 -123.5t-155 -40.5
q-106 0 -178 71.5t-72 184.5q0 91 75.5 156t180.5 65q61 0 102.5 -7.5t108.5 -26.5q0 134 -52.5 191.5t-133.5 57.5q-39 0 -72 -13t-51 -28q-47 -41 -69 -41q-46 0 -46 42.5t71.5 84.5t164 42t158 -41t99.5 -109q99 150 272 150q96 0 164.5 -61t68.5 -148t-43 -142
q-79 -99 -249 -99q-106 0 -181 14q9 -103 75 -179.5zM999 553q0 47 -35.5 86t-101.5 39q-93 0 -156.5 -78.5t-82.5 -182.5q69 -17 187 -17q80 0 134.5 39t54.5 114z" />
    <glyph glyph-name="ccedilla" unicode="&#xe7;" horiz-adv-x="708" 
d="M515 -133q0 -42 -37.5 -69.5t-89.5 -27.5t-83.5 24.5t-31.5 50.5q0 9 7.5 17t19 8t37 -12t44.5 -12t31 7t12 16t-14.5 19.5t-31.5 21t-32 33t-15 51.5q-116 28 -187.5 134.5t-71.5 247.5q0 163 95.5 276t239.5 113q88 0 157.5 -33t69.5 -74q0 -20 -12 -32t-31.5 -12
t-55.5 23q-58 41 -128 41q-104 0 -171.5 -89.5t-67.5 -212t67.5 -213.5t165.5 -91t179 49q33 18 44.5 18t21 -9.5t9.5 -23.5q0 -35 -72 -77t-171 -44q3 -17 29 -34t50 -37t24 -47z" />
    <glyph glyph-name="egrave" unicode="&#xe8;" horiz-adv-x="745" 
d="M596 553q0 47 -38.5 86t-105.5 39t-118 -40q-94 -73 -121 -217q76 -21 171.5 -21t153.5 40t58 113zM597 28q-71 -43 -153 -43t-143 31t-100 83q-81 108 -87 253q-72 22 -72 71q0 20 11.5 31.5t26.5 11.5t42 -12q31 134 116.5 222.5t209.5 88.5q101 0 172.5 -61t71.5 -147
t-44 -141q-83 -101 -258 -101q-72 0 -179 20q9 -108 71.5 -185.5t149 -77.5t161.5 49q33 18 44.5 18t21 -9.5t9.5 -23.5q0 -35 -71 -78zM325 946q0 17 11.5 30.5t29 13.5t30 -9.5t18 -19t14.5 -29.5t33 -49.5t24 -41.5t-8.5 -20t-24.5 -8q-32 0 -79.5 44.5t-47.5 88.5z" />
    <glyph glyph-name="eacute" unicode="&#xe9;" horiz-adv-x="745" 
d="M596 553q0 47 -38.5 86t-105.5 39t-118 -40q-94 -73 -121 -217q76 -21 171.5 -21t153.5 40t58 113zM597 28q-71 -43 -153 -43t-143 31t-100 83q-81 108 -87 253q-72 22 -72 71q0 20 11.5 31.5t26.5 11.5t42 -12q31 134 116.5 222.5t209.5 88.5q101 0 172.5 -61t71.5 -147
t-44 -141q-83 -101 -258 -101q-72 0 -179 20q9 -108 71.5 -185.5t149 -77.5t161.5 49q33 18 44.5 18t21 -9.5t9.5 -23.5q0 -35 -71 -78zM546 946q0 -44 -47.5 -88.5t-79.5 -44.5q-16 0 -24.5 8t-8.5 20t24 41.5t33 49.5t14.5 29.5t18 19t30 9.5t29 -13.5t11.5 -30.5z" />
    <glyph glyph-name="ecircumflex" unicode="&#xea;" horiz-adv-x="745" 
d="M522 842q-69 81 -83 81q-16 0 -80 -77q-5 -6 -8 -8l-7 -8q-13 -13 -30.5 -13t-28.5 10.5t-11 29t26 40t52.5 51.5t45.5 46t40.5 16t41 -16t45.5 -46t52.5 -52t26.5 -40t-11 -28.5t-24 -10.5t-22 5q-13 7 -25 20zM596 553q0 47 -38.5 86t-105.5 39t-118 -40
q-94 -73 -121 -217q76 -21 171.5 -21t153.5 40t58 113zM597 28q-71 -43 -153 -43t-143 31t-100 83q-81 108 -87 253q-72 22 -72 71q0 20 11.5 31.5t26.5 11.5t42 -12q31 134 116.5 222.5t209.5 88.5q101 0 172.5 -61t71.5 -147t-44 -141q-83 -101 -258 -101q-72 0 -179 20
q9 -108 71.5 -185.5t149 -77.5t161.5 49q33 18 44.5 18t21 -9.5t9.5 -23.5q0 -35 -71 -78z" />
    <glyph glyph-name="edieresis" unicode="&#xeb;" horiz-adv-x="745" 
d="M596 553q0 47 -38.5 86t-105.5 39t-118 -40q-94 -73 -121 -217q76 -21 171.5 -21t153.5 40t58 113zM597 28q-71 -43 -153 -43t-143 31t-100 83q-81 108 -87 253q-72 22 -72 71q0 20 11.5 31.5t26.5 11.5t42 -12q31 134 116.5 222.5t209.5 88.5q101 0 172.5 -61t71.5 -147
t-44 -141q-83 -101 -258 -101q-72 0 -179 20q9 -108 71.5 -185.5t149 -77.5t161.5 49q33 18 44.5 18t21 -9.5t9.5 -23.5q0 -35 -71 -78zM584.5 950q13.5 -17 13.5 -43t-17 -47.5t-41.5 -21.5t-38.5 18t-14 44t16.5 46.5t42 20.5t39 -17zM389.5 950q13.5 -17 13.5 -43
t-17 -47.5t-41.5 -21.5t-38.5 18t-14 44t16.5 46.5t42 20.5t39 -17z" />
    <glyph glyph-name="igrave" unicode="&#xec;" horiz-adv-x="486" 
d="M374 661l-82 4q-4 -97 -4 -278.5t5 -303.5l81 4q27 0 43.5 -12.5t16.5 -34t-16.5 -34t-43.5 -12.5l-131 6l-131 -6q-27 0 -43.5 12.5t-16.5 34t16.5 34t43.5 12.5l81 -5q5 122 5 304t-4 279l-82 -4q-27 0 -43.5 13t-16.5 35t16.5 34.5t43.5 12.5l131 -6l131 6
q27 0 43.5 -12.5t16.5 -34.5t-16.5 -35t-43.5 -13zM133 946q0 17 11.5 30.5t29 13.5t30 -9.5t18 -19t14.5 -29.5t33 -49.5t24 -41.5t-8.5 -20t-24.5 -8q-32 0 -79.5 44.5t-47.5 88.5z" />
    <glyph glyph-name="iacute" unicode="&#xed;" horiz-adv-x="502" 
d="M390 661l-90 4q-4 -97 -4 -278.5t5 -303.5l89 5q27 0 43.5 -12.5t16.5 -34.5t-16.5 -34.5t-43.5 -12.5l-139 6l-139 -7q-27 0 -43.5 12.5t-16.5 34.5t16.5 34.5t43.5 12.5l89 -5q5 122 5 304t-4 279l-90 -4q-27 0 -43.5 12.5t-16.5 34.5t16.5 34.5t43.5 12.5l139 -5
l139 6q27 0 43.5 -12.5t16.5 -34.5t-16.5 -35t-43.5 -13zM360 946q0 -44 -47.5 -88.5t-79.5 -44.5q-16 0 -24.5 8t-8.5 20t24 41.5t33 49.5t14.5 29.5t18 19t30 9.5t29 -13.5t11.5 -30.5z" />
    <glyph glyph-name="icircumflex" unicode="&#xee;" horiz-adv-x="486" 
d="M329 842q-69 81 -83 81q-16 0 -80 -77q-5 -6 -8 -8l-7 -8q-13 -13 -30.5 -13t-28.5 10.5t-11 29t26 40t52.5 51.5t45.5 46t40.5 16t41 -16t45.5 -46t52.5 -52t26.5 -40t-11 -28.5t-24 -10.5t-22 5q-13 7 -25 20zM374 661l-82 4q-4 -97 -4 -278.5t5 -303.5l81 4
q27 0 43.5 -12.5t16.5 -34t-16.5 -34t-43.5 -12.5l-131 6l-131 -6q-27 0 -43.5 12.5t-16.5 34t16.5 34t43.5 12.5l81 -5q5 122 5 304t-4 279l-82 -4q-27 0 -43.5 13t-16.5 35t16.5 34.5t43.5 12.5l131 -6l131 6q27 0 43.5 -12.5t16.5 -34.5t-16.5 -35t-43.5 -13z" />
    <glyph glyph-name="idieresis" unicode="&#xef;" horiz-adv-x="486" 
d="M374 661l-82 4q-4 -97 -4 -278.5t5 -303.5l81 4q27 0 43.5 -12.5t16.5 -34t-16.5 -34t-43.5 -12.5l-131 6l-131 -6q-27 0 -43.5 12.5t-16.5 34t16.5 34t43.5 12.5l81 -5q5 122 5 304t-4 279l-82 -4q-27 0 -43.5 13t-16.5 35t16.5 34.5t43.5 12.5l131 -6l131 6
q27 0 43.5 -12.5t16.5 -34.5t-16.5 -35t-43.5 -13zM382.5 950q13.5 -17 13.5 -43t-17 -47.5t-41.5 -21.5t-38.5 18t-14 44t16.5 46.5t42 20.5t39 -17zM187.5 950q13.5 -17 13.5 -43t-17 -47.5t-41.5 -21.5t-38.5 18t-14 44t16.5 46.5t42 20.5t39 -17z" />
    <glyph glyph-name="eth" unicode="&#xf0;" horiz-adv-x="621" 
d="M544 300q0 -136 -62.5 -225.5t-183.5 -89.5q-106 0 -170.5 73t-64.5 172.5t64 179t166 79.5q81 0 147 -57q-30 101 -102 163q-2 -2 -22 -25.5t-35 -33.5t-32 -10t-28.5 10.5t-11.5 23t8.5 24t17 19t25 19.5t19.5 15q-23 13 -60 17.5t-51 9.5q-30 8 -30 37q0 16 14.5 28
t41.5 12q73 0 147 -45q43 43 57.5 53.5t31 10.5t28 -10t11.5 -24.5t-8 -26.5t-15 -18.5t-23.5 -18t-19.5 -14.5q69 -61 105 -154t36 -194zM401 120q41 48 41 116.5t-36.5 117t-99.5 48.5t-105 -50t-42 -120.5t39.5 -115t100.5 -44.5t102 48z" />
    <glyph glyph-name="ntilde" unicode="&#xf1;" horiz-adv-x="805" 
d="M670 497l-7 -282q0 -38 1 -57t8 -40t21 -27q8 -4 19 -5.5t16 -4.5t5 -11q0 -35 -22 -58.5t-52 -23.5q-52 0 -71.5 40t-19.5 119l6 284q0 109 -38 174.5t-110.5 65.5t-140.5 -87.5t-94 -198.5l4 -328q0 -69 -51 -69q-62 0 -62 104.5t27 292.5q0 65 -11.5 176.5
t-11.5 136.5t14 43.5t38.5 18.5t38.5 -18.5t14 -41.5t-0.5 -55.5t-0.5 -55.5q98 171 248 171q111 0 171.5 -76.5t60.5 -186.5zM596 927q0 -36 -31 -63t-70 -27t-93 31q-44 22 -66 22t-46.5 -29.5t-45 -29.5t-33 12.5t-12.5 30.5q0 36 37 64.5t86 28.5t102 -27.5t70.5 -27.5
t38 25t34 25t21.5 -10.5t8 -24.5z" />
    <glyph glyph-name="ograve" unicode="&#xf2;" horiz-adv-x="824" 
d="M586.5 164q69.5 92 69.5 213t-69 211.5t-174.5 90.5t-175 -90.5t-69.5 -211t70 -213t174.5 -92.5t174 92zM752 376q0 -163 -97.5 -277t-243 -114t-242.5 114t-97 277t98 276t243.5 113t242 -113t96.5 -276zM302 946q0 17 11.5 30.5t29 13.5t30 -9.5t18 -19t14.5 -29.5
t33 -49.5t24 -41.5t-8.5 -20t-24.5 -8q-32 0 -79.5 44.5t-47.5 88.5z" />
    <glyph glyph-name="oacute" unicode="&#xf3;" horiz-adv-x="824" 
d="M586.5 164q69.5 92 69.5 213t-69 211.5t-174.5 90.5t-175 -90.5t-69.5 -211t70 -213t174.5 -92.5t174 92zM752 376q0 -163 -97.5 -277t-243 -114t-242.5 114t-97 277t98 276t243.5 113t242 -113t96.5 -276zM522 946q0 -44 -47.5 -88.5t-79.5 -44.5q-16 0 -24.5 8t-8.5 20
t24 41.5t33 49.5t14.5 29.5t18 19t30 9.5t29 -13.5t11.5 -30.5z" />
    <glyph glyph-name="ocircumflex" unicode="&#xf4;" horiz-adv-x="824" 
d="M498 842q-69 81 -83 81q-16 0 -80 -77q-5 -6 -8 -8l-7 -8q-13 -13 -30.5 -13t-28.5 10.5t-11 29t26 40t52.5 51.5t45.5 46t40.5 16t41 -16t45.5 -46t52.5 -52t26.5 -40t-11 -28.5t-24 -10.5t-22 5q-13 7 -25 20zM586.5 164q69.5 92 69.5 213t-69 211.5t-174.5 90.5
t-175 -90.5t-69.5 -211t70 -213t174.5 -92.5t174 92zM752 376q0 -163 -97.5 -277t-243 -114t-242.5 114t-97 277t98 276t243.5 113t242 -113t96.5 -276z" />
    <glyph glyph-name="otilde" unicode="&#xf5;" horiz-adv-x="824" 
d="M586.5 164q69.5 92 69.5 213t-69 211.5t-174.5 90.5t-175 -90.5t-69.5 -211t70 -213t174.5 -92.5t174 92zM752 376q0 -163 -97.5 -277t-243 -114t-242.5 114t-97 277t98 276t243.5 113t242 -113t96.5 -276zM610 927q0 -36 -31 -63t-70 -27t-93 31q-44 22 -66 22
t-46.5 -29.5t-45 -29.5t-33 12.5t-12.5 30.5q0 36 37 64.5t86 28.5t102 -27.5t70.5 -27.5t38 25t34 25t21.5 -10.5t8 -24.5z" />
    <glyph glyph-name="odieresis" unicode="&#xf6;" horiz-adv-x="824" 
d="M586.5 164q69.5 92 69.5 213t-69 211.5t-174.5 90.5t-175 -90.5t-69.5 -211t70 -213t174.5 -92.5t174 92zM752 376q0 -163 -97.5 -277t-243 -114t-242.5 114t-97 277t98 276t243.5 113t242 -113t96.5 -276zM551.5 950q13.5 -17 13.5 -43.5t-17 -47.5t-41.5 -21t-38.5 18
t-14 44t16.5 46.5t42 20.5t39 -17zM356.5 950q13.5 -17 13.5 -43.5t-17 -47.5t-41.5 -21t-38.5 18t-14 44t16.5 46.5t42 20.5t39 -17z" />
    <glyph glyph-name="divide" unicode="&#xf7;" horiz-adv-x="628" 
d="M314 406l197 3q18 0 29.5 -10t11.5 -25t-11.5 -25t-29.5 -10l-197 3l-197 -3q-18 0 -29.5 10t-11.5 25t11.5 25t29.5 10zM355.5 598q13.5 -17 13.5 -43.5t-17 -47.5t-41.5 -21t-38.5 18t-14 44t16.5 46.5t42 20.5t39 -17zM357.5 245q13.5 -17 13.5 -43t-17 -47.5
t-41.5 -21.5t-38.5 18t-14 44t16.5 46.5t42 20.5t39 -17z" />
    <glyph glyph-name="oslash" unicode="&#xf8;" horiz-adv-x="824" 
d="M656 376q0 88 -38 163t-102 112q-85 -322 -140 -576q16 -3 36 -3q105 0 174.5 92t69.5 212zM429 678l-17 1q-105 0 -174.5 -90.5t-69.5 -212.5q0 -79 33 -151t90 -113q36 112 138 566zM752 376q0 -163 -97.5 -277t-243.5 -114q-18 0 -54 4q-18 -73 -59 -73
q-19 0 -30.5 14t-11.5 36.5t11 53.5q-89 46 -142 142t-53 214q0 163 98 276t243 113q12 0 34 -2q10 40 23 56t34 16t32.5 -14t11.5 -34t-10 -48q97 -42 155.5 -141t58.5 -222z" />
    <glyph glyph-name="ugrave" unicode="&#xf9;" horiz-adv-x="819" 
d="M202 646l-11 -332q0 -109 37.5 -175.5t114 -66.5t147.5 89.5t84 198.5l-4 328q0 69 51 69q62 0 62 -102t-27 -295q0 -110 14.5 -186.5t35.5 -85.5q8 -4 19.5 -5.5t16.5 -4.5t5 -11q0 -37 -22 -59.5t-56 -22.5q-85 0 -85 173q-100 -173 -252 -173q-81 0 -136 45
q-100 84 -100 267l8 239q0 54 -11 100t-11 66.5t16 37.5t42 17q62 0 62 -111zM264 946q0 17 11.5 30.5t29 13.5t30 -9.5t18 -19t14.5 -29.5t33 -49.5t24 -41.5t-8.5 -20t-24.5 -8q-32 0 -79.5 44.5t-47.5 88.5z" />
    <glyph glyph-name="uacute" unicode="&#xfa;" horiz-adv-x="819" 
d="M202 646l-11 -332q0 -109 37.5 -175.5t114 -66.5t147.5 89.5t84 198.5l-4 328q0 69 51 69q62 0 62 -102t-27 -295q0 -110 14.5 -186.5t35.5 -85.5q8 -4 19.5 -5.5t16.5 -4.5t5 -11q0 -37 -22 -59.5t-56 -22.5q-85 0 -85 173q-100 -173 -252 -173q-81 0 -136 45
q-100 84 -100 267l8 239q0 54 -11 100t-11 66.5t16 37.5t42 17q62 0 62 -111zM494 946q0 -44 -47.5 -88.5t-79.5 -44.5q-16 0 -24.5 8t-8.5 20t24 41.5t33 49.5t14.5 29.5t18 19t30 9.5t29 -13.5t11.5 -30.5z" />
    <glyph glyph-name="ucircumflex" unicode="&#xfb;" horiz-adv-x="819" 
d="M467 842q-69 81 -83 81q-16 0 -80 -77q-5 -6 -8 -8l-7 -8q-13 -13 -30.5 -13t-28.5 10.5t-11 29t26 40t52.5 51.5t45.5 46t40.5 16t41 -16t45.5 -46t52.5 -52t26.5 -40t-11 -28.5t-24 -10.5t-22 5q-13 7 -25 20zM202 646l-11 -332q0 -109 37.5 -175.5t114 -66.5
t147.5 89.5t84 198.5l-4 328q0 69 51 69q62 0 62 -102t-27 -295q0 -110 14.5 -186.5t35.5 -85.5q8 -4 19.5 -5.5t16.5 -4.5t5 -11q0 -37 -22 -59.5t-56 -22.5q-85 0 -85 173q-100 -173 -252 -173q-81 0 -136 45q-100 84 -100 267l8 239q0 54 -11 100t-11 66.5t16 37.5t42 17
q62 0 62 -111z" />
    <glyph glyph-name="udieresis" unicode="&#xfc;" horiz-adv-x="819" 
d="M202 646l-11 -332q0 -109 37.5 -175.5t114 -66.5t147.5 89.5t84 198.5l-4 328q0 69 51 69q62 0 62 -102t-27 -295q0 -110 14.5 -186.5t35.5 -85.5q8 -4 19.5 -5.5t16.5 -4.5t5 -11q0 -37 -22 -59.5t-56 -22.5q-85 0 -85 173q-100 -173 -252 -173q-81 0 -136 45
q-100 84 -100 267l8 239q0 54 -11 100t-11 66.5t16 37.5t42 17q62 0 62 -111zM523.5 950q13.5 -17 13.5 -43t-17 -47.5t-41.5 -21.5t-38.5 18t-14 44t16.5 46.5t42 20.5t39 -17zM328.5 950q13.5 -17 13.5 -43t-17 -47.5t-41.5 -21.5t-38.5 18t-14 44t16.5 46.5t42 20.5
t39 -17z" />
    <glyph glyph-name="yacute" unicode="&#xfd;" horiz-adv-x="607" 
d="M347 303q0 -80 3 -161l2 -81q0 -71 -51 -71t-51 71l2 83q3 83 3 160q-199 342 -212 369t-13 44t12 30t34.5 13t38.5 -21.5t74.5 -135.5t116.5 -202q24 36 84.5 148t70 128.5t13.5 24t11.5 19.5t12 17.5t10.5 11.5q10 10 28 10t29.5 -12t11.5 -29t-14.5 -44.5t-63 -110.5
t-62.5 -106.5t-39.5 -68t-50.5 -86.5zM413 946q0 -44 -47.5 -88.5t-79.5 -44.5q-16 0 -24.5 8t-8.5 20t24 41.5t33 49.5t14.5 29.5t18 19t30 9.5t29 -13.5t11.5 -30.5z" />
    <glyph glyph-name="thorn" unicode="&#xfe;" horiz-adv-x="617" 
d="M209 524q-1 -37 -1 -94.5t2 -131.5q52 -14 119 -14t108.5 35t41.5 92t-42 92t-109 35t-119 -14zM119 375l-6 314q0 71 51 71t51 -71q0 -15 -2.5 -38.5t-2.5 -38.5q48 13 118 13q110 0 178 -61.5t68 -153t-67.5 -152.5t-177.5 -61q-68 0 -119 12q5 -113 5 -148
q0 -71 -51 -71t-51 71z" />
    <glyph glyph-name="ydieresis" unicode="&#xff;" horiz-adv-x="607" 
d="M347 303q0 -80 3 -161l2 -81q0 -71 -51 -71t-51 71l2 83q3 83 3 160q-199 342 -212 369t-13 44t12 30t34.5 13t38.5 -21.5t74.5 -135.5t116.5 -202q24 36 84.5 148t70 128.5t13.5 24t11.5 19.5t12 17.5t10.5 11.5q10 10 28 10t29.5 -12t11.5 -29t-14.5 -44.5t-63 -110.5
t-62.5 -106.5t-39.5 -68t-50.5 -86.5zM442.5 950q13.5 -17 13.5 -43.5t-17 -47.5t-41.5 -21t-38.5 18t-14 44t16.5 46.5t42 20.5t39 -17zM247.5 950q13.5 -17 13.5 -43.5t-17 -47.5t-41.5 -21t-38.5 18t-14 44t16.5 46.5t42 20.5t39 -17z" />
    <glyph glyph-name="Amacron" unicode="&#x100;" horiz-adv-x="639" 
d="M178 842h297v-71h-297v71zM476 241l-129 3q-96 0 -140 -2q-11 -33 -31.5 -103.5t-33.5 -109.5t-46 -39q-19 0 -30.5 12t-11.5 26.5t1.5 23.5t7 27t11.5 34q29 86 42 126q-29 0 -45.5 12.5t-16.5 33.5q0 47 74 47h18q96 268 110.5 306.5t16.5 44.5t6.5 17.5t8 17t8.5 13.5
t9.5 12.5t10.5 8.5q13 8 27.5 8t23.5 -3t17 -11t13.5 -17t13 -28t13.5 -35q48 -147 120 -334l36 1q26 0 42.5 -14t16.5 -35q0 -44 -66 -47q10 -32 27 -81q39 -106 39 -122.5t-11.5 -30t-31.5 -13.5q-36 0 -52 39q-17 49 -68 212zM232 328q64 -2 123.5 -2t95.5 2
q-105 302 -107 302q-6 0 -86 -226z" />
    <glyph glyph-name="amacron" unicode="&#x101;" horiz-adv-x="561" 
d="M143 677h297v-71h-297v71zM648 367q0 -112 14.5 -189.5t35.5 -87.5q8 -4 19 -5.5t16 -4.5t5 -11q0 -36 -20 -59t-53 -23q-44 0 -66 50t-22 128q-53 -84 -111.5 -132t-131 -48t-122.5 34.5t-80 90.5q-60 115 -60 253q0 164 85 283t220 119q52 0 101.5 -19.5t82.5 -49.5
q0 69 51 69q63 0 63 -101q0 -75 -27 -297zM569 355l-6 245q-85 78 -186 78q-83 0 -146 -89.5t-63 -217.5t43.5 -213.5t118 -85.5t150 95t89.5 188z" />
    <glyph glyph-name="Abreve" unicode="&#x102;" horiz-adv-x="639" 
d="M356 927q39 0 39 -42.5t-46 -86t-117 -43.5t-116.5 43.5t-45.5 86t38 42.5q17 0 27 -10t20.5 -29.5t17.5 -28.5t23 -18.5t36 -9.5t36.5 9.5t23 18.5t17.5 27q20 41 47 41zM476 241l-129 3q-96 0 -140 -2q-11 -33 -31.5 -103.5t-33.5 -109.5t-46 -39q-19 0 -30.5 12
t-11.5 26.5t1.5 23.5t7 27t11.5 34q29 86 42 126q-29 0 -45.5 12.5t-16.5 33.5q0 47 74 47h18q96 268 110.5 306.5t16.5 44.5t6.5 17.5t8 17t8.5 13.5t9.5 12.5t10.5 8.5q13 8 27.5 8t23.5 -3t17 -11t13.5 -17t13 -28t13.5 -35q48 -147 120 -334l36 1q26 0 42.5 -14
t16.5 -35q0 -44 -66 -47q10 -32 27 -81q39 -106 39 -122.5t-11.5 -30t-31.5 -13.5q-36 0 -52 39q-17 49 -68 212zM232 328q64 -2 123.5 -2t95.5 2q-105 302 -107 302q-6 0 -86 -226z" />
    <glyph glyph-name="abreve" unicode="&#x103;" horiz-adv-x="561" 
d="M321 762q39 0 39 -42.5t-46 -86t-117 -43.5t-116.5 43.5t-45.5 86t38 42.5q17 0 27 -10t20.5 -29.5t17.5 -28.5t23 -18.5t36 -9.5t36.5 9.5t23 18.5t17.5 27q20 41 47 41zM648 367q0 -112 14.5 -189.5t35.5 -87.5q8 -4 19 -5.5t16 -4.5t5 -11q0 -36 -20 -59t-53 -23
q-44 0 -66 50t-22 128q-53 -84 -111.5 -132t-131 -48t-122.5 34.5t-80 90.5q-60 115 -60 253q0 164 85 283t220 119q52 0 101.5 -19.5t82.5 -49.5q0 69 51 69q63 0 63 -101q0 -75 -27 -297zM569 355l-6 245q-85 78 -186 78q-83 0 -146 -89.5t-63 -217.5t43.5 -213.5
t118 -85.5t150 95t89.5 188z" />
    <glyph glyph-name="Aogonek" unicode="&#x104;" horiz-adv-x="639" 
d="M770 -154q0 -27 -34 -51.5t-83.5 -24.5t-86 29.5t-36.5 78.5q0 77 100 125h77q-93 -66 -93 -118q0 -18 14 -27.5t33.5 -9.5t45 12t37.5 12t19 -8.5t7 -17.5zM476 241l-129 3q-96 0 -140 -2q-11 -33 -31.5 -103.5t-33.5 -109.5t-46 -39q-19 0 -30.5 12t-11.5 26.5
t1.5 23.5t7 27t11.5 34q29 86 42 126q-29 0 -45.5 12.5t-16.5 33.5q0 47 74 47h18q96 268 110.5 306.5t16.5 44.5t6.5 17.5t8 17t8.5 13.5t9.5 12.5t10.5 8.5q13 8 27.5 8t23.5 -3t17 -11t13.5 -17t13 -28t13.5 -35q48 -147 120 -334l36 1q26 0 42.5 -14t16.5 -35
q0 -44 -66 -47q10 -32 27 -81q39 -106 39 -122.5t-11.5 -30t-31.5 -13.5q-36 0 -52 39q-17 49 -68 212zM232 328q64 -2 123.5 -2t95.5 2q-105 302 -107 302q-6 0 -86 -226z" />
    <glyph glyph-name="aogonek" unicode="&#x105;" horiz-adv-x="561" 
d="M640 -154q0 -27 -34 -51.5t-83.5 -24.5t-86 29.5t-36.5 78.5q0 77 100 125h77q-93 -66 -93 -118q0 -18 14 -27.5t33.5 -9.5t45 12t37.5 12t19 -8.5t7 -17.5zM648 367q0 -112 14.5 -189.5t35.5 -87.5q8 -4 19 -5.5t16 -4.5t5 -11q0 -36 -20 -59t-53 -23q-44 0 -66 50
t-22 128q-53 -84 -111.5 -132t-131 -48t-122.5 34.5t-80 90.5q-60 115 -60 253q0 164 85 283t220 119q52 0 101.5 -19.5t82.5 -49.5q0 69 51 69q63 0 63 -101q0 -75 -27 -297zM569 355l-6 245q-85 78 -186 78q-83 0 -146 -89.5t-63 -217.5t43.5 -213.5t118 -85.5t150 95
t89.5 188z" />
    <glyph glyph-name="Cacute" unicode="&#x106;" horiz-adv-x="631" 
d="M655 106q0 -36 -74.5 -78.5t-175.5 -42.5q-143 0 -238 114t-95 277t95.5 276t239.5 113q88 0 157.5 -33t69.5 -74q0 -20 -12 -32t-32.5 -12t-54.5 23q-64 41 -128 41q-104 0 -171.5 -89.5t-67.5 -212t67.5 -213.5t165.5 -91t179 49q33 18 44.5 18t21 -9.5t9.5 -23.5z
M374 861q0 -44 -47.5 -88.5t-79.5 -44.5q-16 0 -24.5 8t-8.5 20t24 41.5t33 49.5t14.5 29.5t18 19t30 9.5t29 -13.5t11.5 -30.5z" />
    <glyph glyph-name="cacute" unicode="&#x107;" horiz-adv-x="479" 
d="M655 106q0 -36 -74.5 -78.5t-175.5 -42.5q-143 0 -238 114t-95 277t95.5 276t239.5 113q88 0 157.5 -33t69.5 -74q0 -20 -12 -32t-32.5 -12t-54.5 23q-64 41 -128 41q-104 0 -171.5 -89.5t-67.5 -212t67.5 -213.5t165.5 -91t179 49q33 18 44.5 18t21 -9.5t9.5 -23.5z
M280 696q0 -44 -47.5 -88.5t-79.5 -44.5q-16 0 -24.5 8t-8.5 20t24 41.5t33 49.5t14.5 29.5t18 19t30 9.5t29 -13.5t11.5 -30.5z" />
    <glyph glyph-name="Ccircumflex" unicode="&#x108;" horiz-adv-x="631" 
d="M416 757q-69 81 -83 81q-16 0 -80 -77q-5 -6 -8 -8l-7 -8q-13 -13 -30.5 -13t-28.5 10.5t-11 29t26 40t52.5 51.5t45.5 46t40.5 16t41 -16t45.5 -46t52.5 -52t26.5 -40t-11 -28.5t-24 -10.5t-22 5q-13 7 -25 20zM655 106q0 -36 -74.5 -78.5t-175.5 -42.5q-143 0 -238 114
t-95 277t95.5 276t239.5 113q88 0 157.5 -33t69.5 -74q0 -20 -12 -32t-32.5 -12t-54.5 23q-64 41 -128 41q-104 0 -171.5 -89.5t-67.5 -212t67.5 -213.5t165.5 -91t179 49q33 18 44.5 18t21 -9.5t9.5 -23.5z" />
    <glyph glyph-name="ccircumflex" unicode="&#x109;" horiz-adv-x="479" 
d="M314 592q-69 81 -83 81q-16 0 -80 -77q-5 -6 -8 -8l-7 -8q-13 -13 -30.5 -13t-28.5 10.5t-11 29t26 40t52.5 51.5t45.5 46t40.5 16t41 -16t45.5 -46t52.5 -52t26.5 -40t-11 -28.5t-24 -10.5t-22 5q-13 7 -25 20zM655 106q0 -36 -74.5 -78.5t-175.5 -42.5q-143 0 -238 114
t-95 277t95.5 276t239.5 113q88 0 157.5 -33t69.5 -74q0 -20 -12 -32t-32.5 -12t-54.5 23q-64 41 -128 41q-104 0 -171.5 -89.5t-67.5 -212t67.5 -213.5t165.5 -91t179 49q33 18 44.5 18t21 -9.5t9.5 -23.5z" />
    <glyph glyph-name="Cdotaccent" unicode="&#x10a;" horiz-adv-x="631" 
d="M421.5 908q13.5 -17 13.5 -43t-17 -47.5t-41.5 -21.5t-38.5 18t-14 44t16.5 46.5t42 20.5t39 -17zM655 106q0 -36 -74.5 -78.5t-175.5 -42.5q-143 0 -238 114t-95 277t95.5 276t239.5 113q88 0 157.5 -33t69.5 -74q0 -20 -12 -32t-32.5 -12t-54.5 23q-64 41 -128 41
q-104 0 -171.5 -89.5t-67.5 -212t67.5 -213.5t165.5 -91t179 49q33 18 44.5 18t21 -9.5t9.5 -23.5z" />
    <glyph glyph-name="cdotaccent" unicode="&#x10b;" horiz-adv-x="479" 
d="M325.5 743q13.5 -17 13.5 -43t-17 -47.5t-41.5 -21.5t-38.5 18t-14 44t16.5 46.5t42 20.5t39 -17zM655 106q0 -36 -74.5 -78.5t-175.5 -42.5q-143 0 -238 114t-95 277t95.5 276t239.5 113q88 0 157.5 -33t69.5 -74q0 -20 -12 -32t-32.5 -12t-54.5 23q-64 41 -128 41
q-104 0 -171.5 -89.5t-67.5 -212t67.5 -213.5t165.5 -91t179 49q33 18 44.5 18t21 -9.5t9.5 -23.5z" />
    <glyph glyph-name="Ccaron" unicode="&#x10c;" horiz-adv-x="631" 
d="M253 896q64 -77 78 -77q16 0 85 80q22 26 41 26t30 -10.5t11 -28.5t-26.5 -40t-52.5 -52t-45.5 -46t-41 -16t-40.5 16t-45.5 46t-52.5 51.5t-26 40t11 29t23 10.5t17.5 -2t9.5 -4t9 -7l7 -7q3 -3 8 -9zM655 106q0 -36 -74.5 -78.5t-175.5 -42.5q-143 0 -238 114t-95 277
t95.5 276t239.5 113q88 0 157.5 -33t69.5 -74q0 -20 -12 -32t-32.5 -12t-54.5 23q-64 41 -128 41q-104 0 -171.5 -89.5t-67.5 -212t67.5 -213.5t165.5 -91t179 49q33 18 44.5 18t21 -9.5t9.5 -23.5z" />
    <glyph glyph-name="ccaron" unicode="&#x10d;" horiz-adv-x="479" 
d="M155 731q64 -77 78 -77q16 0 85 80q22 26 41 26t30 -10.5t11 -28.5t-26.5 -40t-52.5 -52t-45.5 -46t-41 -16t-40.5 16t-45.5 46t-52.5 51.5t-26 40t11 29t23 10.5t17.5 -2t9.5 -4t9 -7l7 -7q3 -3 8 -9zM655 106q0 -36 -74.5 -78.5t-175.5 -42.5q-143 0 -238 114t-95 277
t95.5 276t239.5 113q88 0 157.5 -33t69.5 -74q0 -20 -12 -32t-32.5 -12t-54.5 23q-64 41 -128 41q-104 0 -171.5 -89.5t-67.5 -212t67.5 -213.5t165.5 -91t179 49q33 18 44.5 18t21 -9.5t9.5 -23.5z" />
    <glyph glyph-name="Dcaron" unicode="&#x10e;" horiz-adv-x="729" 
d="M203 896q64 -77 78 -77q16 0 85 80q22 26 41 26t30 -10.5t11 -28.5t-26.5 -40t-52.5 -52t-45.5 -46t-41 -16t-40.5 16t-45.5 46t-52.5 51.5t-26 40t11 29t23 10.5t17.5 -2t9.5 -4t9 -7l7 -7q3 -3 8 -9zM128 376l-5 260q-44 4 -44 41.5t79 62t163.5 24.5t157.5 -33
t117 -89q91 -114 91 -270q0 -152 -87 -264q-43 -56 -114 -89.5t-169 -33.5t-170 25t-72 64q0 37 50 37zM519.5 589.5q-71.5 88.5 -206.5 88.5q-57 0 -91 -17q-3 -62 -3 -270.5t5 -305.5q36 -13 101 -13t117.5 26t83.5 70q65 90 65 211.5t-71.5 210z" />
    <glyph glyph-name="dcaron" unicode="&#x10f;" horiz-adv-x="615" 
d="M575 612q11 32 20.5 77.5t12.5 70.5h87v-9q-6 -26 -27 -71t-45 -80h-48v12zM128 376l-5 260q-44 4 -44 41.5t79 62t163.5 24.5t157.5 -33t117 -89q91 -114 91 -270q0 -152 -87 -264q-43 -56 -114 -89.5t-169 -33.5t-170 25t-72 64q0 37 50 37zM519.5 589.5
q-71.5 88.5 -206.5 88.5q-57 0 -91 -17q-3 -62 -3 -270.5t5 -305.5q36 -13 101 -13t117.5 26t83.5 70q65 90 65 211.5t-71.5 210z" />
    <glyph glyph-name="Dcroat" unicode="&#x110;" horiz-adv-x="729" 
d="M138 411l-5 225q-44 4 -44 41.5t79 62t163.5 24.5t157.5 -33t117 -89q91 -114 91 -270q0 -152 -87 -264q-43 -56 -114 -89.5t-169 -33.5t-170 25t-72 64q0 37 50 37l3 223q-20 -1 -55.5 -1t-49 11t-13.5 29t13.5 29t39 11t65.5 -2zM232 661q-3 -55 -3 -250q44 2 72 2
t41.5 -11t13.5 -29t-13.5 -29t-41.5 -11t-72 2q0 -165 5 -250q36 -13 101 -13t117.5 26t83.5 70q65 90 65 211.5t-71.5 210t-206.5 88.5q-57 0 -91 -17z" />
    <glyph glyph-name="dcroat" unicode="&#x111;" horiz-adv-x="617" 
d="M275 -10q-104 0 -162 72t-58 203q0 132 57.5 205t162.5 73q109 0 167 -79h6q-1 7 -3.5 33.5t-2.5 46.5v61h-213v66h213v89h88v-89h76v-66h-76v-605h-72l-13 72h-4q-56 -82 -166 -82zM290 63q80 0 116.5 43t36.5 142v17q0 112 -37 158.5t-118 46.5q-68 0 -104.5 -52
t-36.5 -154q0 -96 35 -148.5t108 -52.5z" />
    <glyph glyph-name="Emacron" unicode="&#x112;" horiz-adv-x="556" 
d="M148 842h297v-71h-297v71zM514 662l-159 6q-77 0 -137 -5v-222q19 -1 66 -1l179 5q27 0 43 -12.5t16 -33.5q0 -44 -59 -44l-179 4q-43 0 -66 -1v-79q0 -146 4 -192q60 -5 136 -5l159 6q27 0 43.5 -12.5t16.5 -34.5t-16.5 -34.5t-43.5 -12.5l-159 6l-181 -5q-54 0 -54 46
q0 35 2.5 114.5t2.5 199.5q-67 0 -67 44q0 23 19 34.5t48 11.5q-2 187 -7 225q-12 19 -12 40q0 45 62 45l184 -5l159 6q27 0 43.5 -12.5t16.5 -34.5t-16.5 -34.5t-43.5 -12.5z" />
    <glyph glyph-name="emacron" unicode="&#x113;" horiz-adv-x="563" 
d="M150 677h297v-71h-297v71zM596 553q0 47 -38.5 86t-105.5 39t-118 -40q-94 -73 -121 -217q76 -21 171.5 -21t153.5 40t58 113zM597 28q-71 -43 -153 -43t-143 31t-100 83q-81 108 -87 253q-72 22 -72 71q0 20 11.5 31.5t26.5 11.5t42 -12q31 134 116.5 222.5t209.5 88.5
q101 0 172.5 -61t71.5 -147t-44 -141q-83 -101 -258 -101q-72 0 -179 20q9 -108 71.5 -185.5t149 -77.5t161.5 49q33 18 44.5 18t21 -9.5t9.5 -23.5q0 -35 -71 -78z" />
    <glyph glyph-name="Ebreve" unicode="&#x114;" horiz-adv-x="556" 
d="M339 927q39 0 39 -42.5t-46 -86t-117 -43.5t-116.5 43.5t-45.5 86t38 42.5q17 0 27 -10t20.5 -29.5t17.5 -28.5t23 -18.5t36 -9.5t36.5 9.5t23 18.5t17.5 27q20 41 47 41zM514 662l-159 6q-77 0 -137 -5v-222q19 -1 66 -1l179 5q27 0 43 -12.5t16 -33.5q0 -44 -59 -44
l-179 4q-43 0 -66 -1v-79q0 -146 4 -192q60 -5 136 -5l159 6q27 0 43.5 -12.5t16.5 -34.5t-16.5 -34.5t-43.5 -12.5l-159 6l-181 -5q-54 0 -54 46q0 35 2.5 114.5t2.5 199.5q-67 0 -67 44q0 23 19 34.5t48 11.5q-2 187 -7 225q-12 19 -12 40q0 45 62 45l184 -5l159 6
q27 0 43.5 -12.5t16.5 -34.5t-16.5 -34.5t-43.5 -12.5z" />
    <glyph glyph-name="ebreve" unicode="&#x115;" horiz-adv-x="563" 
d="M332 762q39 0 39 -42.5t-46 -86t-117 -43.5t-116.5 43.5t-45.5 86t38 42.5q17 0 27 -10t20.5 -29.5t17.5 -28.5t23 -18.5t36 -9.5t36.5 9.5t23 18.5t17.5 27q20 41 47 41zM596 553q0 47 -38.5 86t-105.5 39t-118 -40q-94 -73 -121 -217q76 -21 171.5 -21t153.5 40t58 113
zM597 28q-71 -43 -153 -43t-143 31t-100 83q-81 108 -87 253q-72 22 -72 71q0 20 11.5 31.5t26.5 11.5t42 -12q31 134 116.5 222.5t209.5 88.5q101 0 172.5 -61t71.5 -147t-44 -141q-83 -101 -258 -101q-72 0 -179 20q9 -108 71.5 -185.5t149 -77.5t161.5 49q33 18 44.5 18
t21 -9.5t9.5 -23.5q0 -35 -71 -78z" />
    <glyph glyph-name="Edotaccent" unicode="&#x116;" horiz-adv-x="556" 
d="M337.5 894q13.5 -17 13.5 -43t-17 -47.5t-41.5 -21.5t-38.5 18t-14 44t16.5 46.5t42 20.5t39 -17zM514 662l-159 6q-77 0 -137 -5v-222q19 -1 66 -1l179 5q27 0 43 -12.5t16 -33.5q0 -44 -59 -44l-179 4q-43 0 -66 -1v-79q0 -146 4 -192q60 -5 136 -5l159 6
q27 0 43.5 -12.5t16.5 -34.5t-16.5 -34.5t-43.5 -12.5l-159 6l-181 -5q-54 0 -54 46q0 35 2.5 114.5t2.5 199.5q-67 0 -67 44q0 23 19 34.5t48 11.5q-2 187 -7 225q-12 19 -12 40q0 45 62 45l184 -5l159 6q27 0 43.5 -12.5t16.5 -34.5t-16.5 -34.5t-43.5 -12.5z" />
    <glyph glyph-name="edotaccent" unicode="&#x117;" horiz-adv-x="563" 
d="M327.5 743q13.5 -17 13.5 -43t-17 -47.5t-41.5 -21.5t-38.5 18t-14 44t16.5 46.5t42 20.5t39 -17zM596 553q0 47 -38.5 86t-105.5 39t-118 -40q-94 -73 -121 -217q76 -21 171.5 -21t153.5 40t58 113zM597 28q-71 -43 -153 -43t-143 31t-100 83q-81 108 -87 253
q-72 22 -72 71q0 20 11.5 31.5t26.5 11.5t42 -12q31 134 116.5 222.5t209.5 88.5q101 0 172.5 -61t71.5 -147t-44 -141q-83 -101 -258 -101q-72 0 -179 20q9 -108 71.5 -185.5t149 -77.5t161.5 49q33 18 44.5 18t21 -9.5t9.5 -23.5q0 -35 -71 -78z" />
    <glyph glyph-name="Eogonek" unicode="&#x118;" horiz-adv-x="556" 
d="M622 -154q0 -27 -34 -51.5t-83.5 -24.5t-86 29.5t-36.5 78.5q0 77 100 125h77q-93 -66 -93 -118q0 -18 14 -27.5t33.5 -9.5t45 12t37.5 12t19 -8.5t7 -17.5zM514 662l-159 6q-77 0 -137 -5v-222q19 -1 66 -1l179 5q27 0 43 -12.5t16 -33.5q0 -44 -59 -44l-179 4
q-43 0 -66 -1v-79q0 -146 4 -192q60 -5 136 -5l159 6q27 0 43.5 -12.5t16.5 -34.5t-16.5 -34.5t-43.5 -12.5l-159 6l-181 -5q-54 0 -54 46q0 35 2.5 114.5t2.5 199.5q-67 0 -67 44q0 23 19 34.5t48 11.5q-2 187 -7 225q-12 19 -12 40q0 45 62 45l184 -5l159 6
q27 0 43.5 -12.5t16.5 -34.5t-16.5 -34.5t-43.5 -12.5z" />
    <glyph glyph-name="eogonek" unicode="&#x119;" horiz-adv-x="563" 
d="M617 -140q0 -27 -34 -51.5t-83.5 -24.5t-86 29.5t-36.5 78.5q0 77 100 125h77q-93 -66 -93 -118q0 -18 14 -27.5t33.5 -9.5t45 12t37.5 12t19 -8.5t7 -17.5zM596 553q0 47 -38.5 86t-105.5 39t-118 -40q-94 -73 -121 -217q76 -21 171.5 -21t153.5 40t58 113zM597 28
q-71 -43 -153 -43t-143 31t-100 83q-81 108 -87 253q-72 22 -72 71q0 20 11.5 31.5t26.5 11.5t42 -12q31 134 116.5 222.5t209.5 88.5q101 0 172.5 -61t71.5 -147t-44 -141q-83 -101 -258 -101q-72 0 -179 20q9 -108 71.5 -185.5t149 -77.5t161.5 49q33 18 44.5 18t21 -9.5
t9.5 -23.5q0 -35 -71 -78z" />
    <glyph glyph-name="Ecaron" unicode="&#x11a;" horiz-adv-x="556" 
d="M166 896q64 -77 78 -77q16 0 85 80q22 26 41 26t30 -10.5t11 -28.5t-26.5 -40t-52.5 -52t-45.5 -46t-41 -16t-40.5 16t-45.5 46t-52.5 51.5t-26 40t11 29t23 10.5t17.5 -2t9.5 -4t9 -7l7 -7q3 -3 8 -9zM514 662l-159 6q-77 0 -137 -5v-222q19 -1 66 -1l179 5
q27 0 43 -12.5t16 -33.5q0 -44 -59 -44l-179 4q-43 0 -66 -1v-79q0 -146 4 -192q60 -5 136 -5l159 6q27 0 43.5 -12.5t16.5 -34.5t-16.5 -34.5t-43.5 -12.5l-159 6l-181 -5q-54 0 -54 46q0 35 2.5 114.5t2.5 199.5q-67 0 -67 44q0 23 19 34.5t48 11.5q-2 187 -7 225
q-12 19 -12 40q0 45 62 45l184 -5l159 6q27 0 43.5 -12.5t16.5 -34.5t-16.5 -34.5t-43.5 -12.5z" />
    <glyph glyph-name="ecaron" unicode="&#x11b;" horiz-adv-x="563" 
d="M159 731q64 -77 78 -77q16 0 85 80q22 26 41 26t30 -10.5t11 -28.5t-26.5 -40t-52.5 -52t-45.5 -46t-41 -16t-40.5 16t-45.5 46t-52.5 51.5t-26 40t11 29t23 10.5t17.5 -2t9.5 -4t9 -7l7 -7q3 -3 8 -9zM596 553q0 47 -38.5 86t-105.5 39t-118 -40q-94 -73 -121 -217
q76 -21 171.5 -21t153.5 40t58 113zM597 28q-71 -43 -153 -43t-143 31t-100 83q-81 108 -87 253q-72 22 -72 71q0 20 11.5 31.5t26.5 11.5t42 -12q31 134 116.5 222.5t209.5 88.5q101 0 172.5 -61t71.5 -147t-44 -141q-83 -101 -258 -101q-72 0 -179 20q9 -108 71.5 -185.5
t149 -77.5t161.5 49q33 18 44.5 18t21 -9.5t9.5 -23.5q0 -35 -71 -78z" />
    <glyph glyph-name="Gcircumflex" unicode="&#x11c;" horiz-adv-x="728" 
d="M444 757q-69 81 -83 81q-16 0 -80 -77q-5 -6 -8 -8l-7 -8q-13 -13 -30.5 -13t-28.5 10.5t-11 29t26 40t52.5 51.5t45.5 46t40.5 16t41 -16t45.5 -46t52.5 -52t26.5 -40t-11 -28.5t-24 -10.5t-22 5q-13 7 -25 20zM526 398l126 6q27 0 43.5 -13t16.5 -38q0 -170 -85.5 -269
t-225 -99t-234.5 114t-95 277t98 276t248 113q93 0 169.5 -37t76.5 -80q0 -19 -11.5 -30t-34 -11t-60.5 27q-61 44 -140 44q-108 0 -179 -89t-71 -211.5t68 -214t171 -91.5q85 0 142 63t61 179q-33 3 -84 3l-135 -5q-27 0 -42 12t-15 32.5t15 33.5t42 13z" />
    <glyph glyph-name="gcircumflex" unicode="&#x11d;" horiz-adv-x="615" 
d="M328 592q-69 81 -83 81q-16 0 -80 -77q-5 -6 -8 -8l-7 -8q-13 -13 -30.5 -13t-28.5 10.5t-11 29t26 40t52.5 51.5t45.5 46t40.5 16t41 -16t45.5 -46t52.5 -52t26.5 -40t-11 -28.5t-24 -10.5t-22 5q-13 7 -25 20zM526 398l126 6q27 0 43.5 -13t16.5 -38q0 -170 -85.5 -269
t-225 -99t-234.5 114t-95 277t98 276t248 113q93 0 169.5 -37t76.5 -80q0 -19 -11.5 -30t-34 -11t-60.5 27q-61 44 -140 44q-108 0 -179 -89t-71 -211.5t68 -214t171 -91.5q85 0 142 63t61 179q-33 3 -84 3l-135 -5q-27 0 -42 12t-15 32.5t15 33.5t42 13z" />
    <glyph glyph-name="Gbreve" unicode="&#x11e;" horiz-adv-x="728" 
d="M454 927q39 0 39 -42.5t-46 -86t-117 -43.5t-116.5 43.5t-45.5 86t38 42.5q17 0 27 -10t20.5 -29.5t17.5 -28.5t23 -18.5t36 -9.5t36.5 9.5t23 18.5t17.5 27q20 41 47 41zM526 398l126 6q27 0 43.5 -13t16.5 -38q0 -170 -85.5 -269t-225 -99t-234.5 114t-95 277t98 276
t248 113q93 0 169.5 -37t76.5 -80q0 -19 -11.5 -30t-34 -11t-60.5 27q-61 44 -140 44q-108 0 -179 -89t-71 -211.5t68 -214t171 -91.5q85 0 142 63t61 179q-33 3 -84 3l-135 -5q-27 0 -42 12t-15 32.5t15 33.5t42 13z" />
    <glyph glyph-name="gbreve" unicode="&#x11f;" horiz-adv-x="615" 
d="M340 762q39 0 39 -42.5t-46 -86t-117 -43.5t-116.5 43.5t-45.5 86t38 42.5q17 0 27 -10t20.5 -29.5t17.5 -28.5t23 -18.5t36 -9.5t36.5 9.5t23 18.5t17.5 27q20 41 47 41zM526 398l126 6q27 0 43.5 -13t16.5 -38q0 -170 -85.5 -269t-225 -99t-234.5 114t-95 277t98 276
t248 113q93 0 169.5 -37t76.5 -80q0 -19 -11.5 -30t-34 -11t-60.5 27q-61 44 -140 44q-108 0 -179 -89t-71 -211.5t68 -214t171 -91.5q85 0 142 63t61 179q-33 3 -84 3l-135 -5q-27 0 -42 12t-15 32.5t15 33.5t42 13z" />
    <glyph glyph-name="Gdotaccent" unicode="&#x120;" horiz-adv-x="728" 
d="M455.5 908q13.5 -17 13.5 -43t-17 -47.5t-41.5 -21.5t-38.5 18t-14 44t16.5 46.5t42 20.5t39 -17zM526 398l126 6q27 0 43.5 -13t16.5 -38q0 -170 -85.5 -269t-225 -99t-234.5 114t-95 277t98 276t248 113q93 0 169.5 -37t76.5 -80q0 -19 -11.5 -30t-34 -11t-60.5 27
q-61 44 -140 44q-108 0 -179 -89t-71 -211.5t68 -214t171 -91.5q85 0 142 63t61 179q-33 3 -84 3l-135 -5q-27 0 -42 12t-15 32.5t15 33.5t42 13z" />
    <glyph glyph-name="gdotaccent" unicode="&#x121;" horiz-adv-x="615" 
d="M331.5 743q13.5 -17 13.5 -43t-17 -47.5t-41.5 -21.5t-38.5 18t-14 44t16.5 46.5t42 20.5t39 -17zM526 398l126 6q27 0 43.5 -13t16.5 -38q0 -170 -85.5 -269t-225 -99t-234.5 114t-95 277t98 276t248 113q93 0 169.5 -37t76.5 -80q0 -19 -11.5 -30t-34 -11t-60.5 27
q-61 44 -140 44q-108 0 -179 -89t-71 -211.5t68 -214t171 -91.5q85 0 142 63t61 179q-33 3 -84 3l-135 -5q-27 0 -42 12t-15 32.5t15 33.5t42 13z" />
    <glyph glyph-name="uni0122" unicode="&#x122;" horiz-adv-x="728" 
d="M322 -209q11 25 24 70.5t17 77.5h87v-9q-8 -31 -31.5 -76.5t-48.5 -74.5h-48v12zM526 398l126 6q27 0 43.5 -13t16.5 -38q0 -170 -85.5 -269t-225 -99t-234.5 114t-95 277t98 276t248 113q93 0 169.5 -37t76.5 -80q0 -19 -11.5 -30t-34 -11t-60.5 27q-61 44 -140 44
q-108 0 -179 -89t-71 -211.5t68 -214t171 -91.5q85 0 142 63t61 179q-33 3 -84 3l-135 -5q-27 0 -42 12t-15 32.5t15 33.5t42 13z" />
    <glyph glyph-name="uni0123" unicode="&#x123;" horiz-adv-x="615" 
d="M379 754q-13 -29 -26 -74.5t-16 -73.5h-87v9q7 27 31.5 74t48.5 77h49v-12zM526 398l126 6q27 0 43.5 -13t16.5 -38q0 -170 -85.5 -269t-225 -99t-234.5 114t-95 277t98 276t248 113q93 0 169.5 -37t76.5 -80q0 -19 -11.5 -30t-34 -11t-60.5 27q-61 44 -140 44
q-108 0 -179 -89t-71 -211.5t68 -214t171 -91.5q85 0 142 63t61 179q-33 3 -84 3l-135 -5q-27 0 -42 12t-15 32.5t15 33.5t42 13z" />
    <glyph glyph-name="Hcircumflex" unicode="&#x124;" horiz-adv-x="741" 
d="M396 757q-69 81 -83 81q-16 0 -80 -77q-5 -6 -8 -8l-7 -8q-13 -13 -30.5 -13t-28.5 10.5t-11 29t26 40t52.5 51.5t45.5 46t40.5 16t41 -16t45.5 -46t52.5 -52t26.5 -40t-11 -28.5t-24 -10.5t-22 5q-13 7 -25 20zM553 353l-172 2q-116 0 -168 -1q0 -79 3 -183.5t3 -109.5
q0 -71 -51 -71t-51 71q0 5 3 108t3 182q-64 0 -64 45q0 21 16.5 33.5t47.5 12.5q0 79 -3 160.5t-3 86.5q0 71 51 71t51 -71q0 -5 -3 -88t-3 -162q98 -2 195 -2t145 2q0 79 -2.5 162t-2.5 88q0 71 51 71t51 -71q0 -5 -3 -86t-3 -160q30 0 47.5 -13t17.5 -34t-17.5 -33.5
t-47.5 -12.5q0 -79 3 -181.5t3 -107.5q0 -71 -51 -71t-51 71z" />
    <glyph glyph-name="hcircumflex" unicode="&#x125;" horiz-adv-x="618" 
d="M339 784q-69 81 -83 81q-16 0 -80 -77q-5 -6 -8 -8l-7 -8q-13 -13 -30.5 -13t-28.5 10.5t-11 29t26 40t52.5 51.5t45.5 46t40.5 16t41 -16t45.5 -46t52.5 -52t26.5 -40t-11 -28.5t-24 -10.5t-22 5q-13 7 -25 20zM553 353l-172 2q-116 0 -168 -1q0 -79 3 -183.5t3 -109.5
q0 -71 -51 -71t-51 71q0 5 3 108t3 182q-64 0 -64 45q0 21 16.5 33.5t47.5 12.5q0 79 -3 160.5t-3 86.5q0 71 51 71t51 -71q0 -5 -3 -88t-3 -162q98 -2 195 -2t145 2q0 79 -2.5 162t-2.5 88q0 71 51 71t51 -71q0 -5 -3 -86t-3 -160q30 0 47.5 -13t17.5 -34t-17.5 -33.5
t-47.5 -12.5q0 -79 3 -181.5t3 -107.5q0 -71 -51 -71t-51 71z" />
    <glyph glyph-name="Hbar" unicode="&#x126;" horiz-adv-x="802" 
d="M569 353l-172 2q-115 0 -167 -1q0 -79 3 -183.5t3 -109.5q0 -71 -51 -71t-51 71q0 5 3 108t3 182q-64 0 -64 45q0 21 16.5 33.5t47.5 12.5q0 35 -3 158h-56q-22 0 -35.5 11t-13.5 29t13.5 29t35.5 11h53q0 80 51 80t51 -81l165 -2l163 2q0 81 51 81t51 -80h55
q22 0 35.5 -11t13.5 -29t-13.5 -29t-35.5 -11h-58q-3 -60 -3 -157q30 0 47.5 -13t17.5 -34t-17.5 -33.5t-47.5 -12.5q0 -79 3 -181.5t3 -107.5q0 -71 -51 -71t-51 71zM569 439q0 99 -3 162q-59 2 -166 2t-167 -2q-3 -63 -3 -162q98 -2 194.5 -2t144.5 2z" />
    <glyph glyph-name="hbar" unicode="&#x127;" horiz-adv-x="802" 
d="M569 353l-172 2q-115 0 -167 -1q0 -79 3 -183.5t3 -109.5q0 -71 -51 -71t-51 71q0 5 3 108t3 182q-64 0 -64 45q0 21 16.5 33.5t47.5 12.5q0 35 -3 158h-56q-22 0 -35.5 11t-13.5 29t13.5 29t35.5 11h53q0 80 51 80t51 -81l165 -2l163 2q0 81 51 81t51 -80h55
q22 0 35.5 -11t13.5 -29t-13.5 -29t-35.5 -11h-58q-3 -60 -3 -157q30 0 47.5 -13t17.5 -34t-17.5 -33.5t-47.5 -12.5q0 -79 3 -181.5t3 -107.5q0 -71 -51 -71t-51 71zM569 439q0 99 -3 162q-59 2 -166 2t-167 -2q-3 -63 -3 -162q98 -2 194.5 -2t144.5 2z" />
    <glyph glyph-name="Itilde" unicode="&#x128;" horiz-adv-x="486" 
d="M442 924q0 -36 -31 -63t-70 -27t-93 31q-44 22 -66 22t-46.5 -29.5t-45 -29.5t-33 12.5t-12.5 30.5q0 36 37 64.5t86 28.5t102 -27.5t70.5 -27.5t38 25t34 25t21.5 -10.5t8 -24.5zM374 661l-82 4q-4 -97 -4 -278.5t5 -303.5l81 4q27 0 43.5 -12.5t16.5 -34t-16.5 -34
t-43.5 -12.5l-131 6l-131 -6q-27 0 -43.5 12.5t-16.5 34t16.5 34t43.5 12.5l81 -5q5 122 5 304t-4 279l-82 -4q-27 0 -43.5 13t-16.5 35t16.5 34.5t43.5 12.5l131 -6l131 6q27 0 43.5 -12.5t16.5 -34.5t-16.5 -35t-43.5 -13z" />
    <glyph glyph-name="itilde" unicode="&#x129;" horiz-adv-x="486" 
d="M374 661l-82 4q-4 -97 -4 -278.5t5 -303.5l81 4q27 0 43.5 -12.5t16.5 -34t-16.5 -34t-43.5 -12.5l-131 6l-131 -6q-27 0 -43.5 12.5t-16.5 34t16.5 34t43.5 12.5l81 -5q5 122 5 304t-4 279l-82 -4q-27 0 -43.5 13t-16.5 35t16.5 34.5t43.5 12.5l131 -6l131 6
q27 0 43.5 -12.5t16.5 -34.5t-16.5 -35t-43.5 -13zM442 924q0 -36 -31 -63t-70 -27t-93 31q-44 22 -66 22t-46.5 -29.5t-45 -29.5t-33 12.5t-12.5 30.5q0 36 37 64.5t86 28.5t102 -27.5t70.5 -27.5t38 25t34 25t21.5 -10.5t8 -24.5z" />
    <glyph glyph-name="Imacron" unicode="&#x12a;" horiz-adv-x="338" 
d="M21 842h297v-71h-297v71zM374 661l-82 4q-4 -97 -4 -278.5t5 -303.5l81 4q27 0 43.5 -12.5t16.5 -34t-16.5 -34t-43.5 -12.5l-131 6l-131 -6q-27 0 -43.5 12.5t-16.5 34t16.5 34t43.5 12.5l81 -5q5 122 5 304t-4 279l-82 -4q-27 0 -43.5 13t-16.5 35t16.5 34.5t43.5 12.5
l131 -6l131 6q27 0 43.5 -12.5t16.5 -34.5t-16.5 -35t-43.5 -13z" />
    <glyph glyph-name="imacron" unicode="&#x12b;" horiz-adv-x="257" 
d="M-18 677h297v-71h-297v71zM390 661l-90 4q-4 -97 -4 -278.5t5 -303.5l89 5q27 0 43.5 -12.5t16.5 -34.5t-16.5 -34.5t-43.5 -12.5l-139 6l-139 -7q-27 0 -43.5 12.5t-16.5 34.5t16.5 34.5t43.5 12.5l89 -5q5 122 5 304t-4 279l-90 -4q-27 0 -43.5 12.5t-16.5 34.5
t16.5 34.5t43.5 12.5l139 -5l139 6q27 0 43.5 -12.5t16.5 -34.5t-16.5 -35t-43.5 -13z" />
    <glyph glyph-name="Ibreve" unicode="&#x12c;" horiz-adv-x="338" 
d="M208 927q39 0 39 -42.5t-46 -86t-117 -43.5t-116.5 43.5t-45.5 86t38 42.5q17 0 27 -10t20.5 -29.5t17.5 -28.5t23 -18.5t36 -9.5t36.5 9.5t23 18.5t17.5 27q20 41 47 41zM374 661l-82 4q-4 -97 -4 -278.5t5 -303.5l81 4q27 0 43.5 -12.5t16.5 -34t-16.5 -34t-43.5 -12.5
l-131 6l-131 -6q-27 0 -43.5 12.5t-16.5 34t16.5 34t43.5 12.5l81 -5q5 122 5 304t-4 279l-82 -4q-27 0 -43.5 13t-16.5 35t16.5 34.5t43.5 12.5l131 -6l131 6q27 0 43.5 -12.5t16.5 -34.5t-16.5 -35t-43.5 -13z" />
    <glyph glyph-name="ibreve" unicode="&#x12d;" horiz-adv-x="257" 
d="M166 762q39 0 39 -42.5t-46 -86t-117 -43.5t-116.5 43.5t-45.5 86t38 42.5q17 0 27 -10t20.5 -29.5t17.5 -28.5t23 -18.5t36 -9.5t36.5 9.5t23 18.5t17.5 27q20 41 47 41zM390 661l-90 4q-4 -97 -4 -278.5t5 -303.5l89 5q27 0 43.5 -12.5t16.5 -34.5t-16.5 -34.5
t-43.5 -12.5l-139 6l-139 -7q-27 0 -43.5 12.5t-16.5 34.5t16.5 34.5t43.5 12.5l89 -5q5 122 5 304t-4 279l-90 -4q-27 0 -43.5 12.5t-16.5 34.5t16.5 34.5t43.5 12.5l139 -5l139 6q27 0 43.5 -12.5t16.5 -34.5t-16.5 -35t-43.5 -13z" />
    <glyph glyph-name="Iogonek" unicode="&#x12e;" horiz-adv-x="338" 
d="M390 -154q0 -27 -34 -51.5t-83.5 -24.5t-86 29.5t-36.5 78.5q0 77 100 125h77q-93 -66 -93 -118q0 -18 14 -27.5t33.5 -9.5t45 12t37.5 12t19 -8.5t7 -17.5zM374 661l-82 4q-4 -97 -4 -278.5t5 -303.5l81 4q27 0 43.5 -12.5t16.5 -34t-16.5 -34t-43.5 -12.5l-131 6
l-131 -6q-27 0 -43.5 12.5t-16.5 34t16.5 34t43.5 12.5l81 -5q5 122 5 304t-4 279l-82 -4q-27 0 -43.5 13t-16.5 35t16.5 34.5t43.5 12.5l131 -6l131 6q27 0 43.5 -12.5t16.5 -34.5t-16.5 -35t-43.5 -13z" />
    <glyph glyph-name="iogonek" unicode="&#x12f;" horiz-adv-x="257" 
d="M327 -154q0 -27 -34 -51.5t-83.5 -24.5t-86 29.5t-36.5 78.5q0 77 100 125h77q-93 -66 -93 -118q0 -18 14 -27.5t33.5 -9.5t45 12t37.5 12t19 -8.5t7 -17.5zM374 661l-82 4q-4 -97 -4 -278.5t5 -303.5l81 4q27 0 43.5 -12.5t16.5 -34t-16.5 -34t-43.5 -12.5l-131 6
l-131 -6q-27 0 -43.5 12.5t-16.5 34t16.5 34t43.5 12.5l81 -5q5 122 5 304t-4 279l-82 -4q-27 0 -43.5 13t-16.5 35t16.5 34.5t43.5 12.5l131 -6l131 6q27 0 43.5 -12.5t16.5 -34.5t-16.5 -35t-43.5 -13z" />
    <glyph glyph-name="Idot" unicode="&#x130;" horiz-adv-x="502" 
d="M295.5 947q13.5 -17 13.5 -43t-17 -47.5t-41.5 -21.5t-38.5 18t-14 44t16.5 46.5t42 20.5t39 -17zM390 661l-90 4q-4 -97 -4 -278.5t5 -303.5l89 5q27 0 43.5 -12.5t16.5 -34.5t-16.5 -34.5t-43.5 -12.5l-139 6l-139 -7q-27 0 -43.5 12.5t-16.5 34.5t16.5 34.5t43.5 12.5
l89 -5q5 122 5 304t-4 279l-90 -4q-27 0 -43.5 12.5t-16.5 34.5t16.5 34.5t43.5 12.5l139 -5l139 6q27 0 43.5 -12.5t16.5 -34.5t-16.5 -35t-43.5 -13z" />
    <glyph glyph-name="dotlessi" unicode="&#x131;" horiz-adv-x="502" 
d="M390 661l-90 4q-4 -97 -4 -278.5t5 -303.5l89 5q27 0 43.5 -12.5t16.5 -34.5t-16.5 -34.5t-43.5 -12.5l-139 6l-139 -7q-27 0 -43.5 12.5t-16.5 34.5t16.5 34.5t43.5 12.5l89 -5q5 122 5 304t-4 279l-90 -4q-27 0 -43.5 12.5t-16.5 34.5t16.5 34.5t43.5 12.5l139 -5
l139 6q27 0 43.5 -12.5t16.5 -34.5t-16.5 -35t-43.5 -13z" />
    <glyph glyph-name="IJ" unicode="&#x132;" horiz-adv-x="1010" 
d="M374 661l-82 4q-4 -97 -4 -278.5t5 -303.5l81 4q27 0 43.5 -12.5t16.5 -34t-16.5 -34t-43.5 -12.5l-131 6l-131 -6q-27 0 -43.5 12.5t-16.5 34t16.5 34t43.5 12.5l81 -5q5 122 5 304t-4 279l-82 -4q-27 0 -43.5 13t-16.5 35t16.5 34.5t43.5 12.5l131 -6l131 6
q27 0 43.5 -12.5t16.5 -34.5t-16.5 -35t-43.5 -13zM745 750l149 6q27 0 43.5 -12.5t16.5 -34t-19 -34.5t-49 -13q-1 -62 -1 -405q0 -73 -20.5 -128t-54.5 -85q-67 -59 -152.5 -59t-140 34.5t-54.5 67.5q0 19 11 30.5t29 11.5t36 -14t46 -28.5t69 -14.5q58 0 99.5 49.5
t41.5 156.5l-3 389q-62 0 -113 -3t-70.5 -3t-36 12.5t-16.5 34.5t16.5 34.5t43.5 12.5z" />
    <glyph glyph-name="ij" unicode="&#x133;" horiz-adv-x="1010" 
d="M374 661l-82 4q-4 -97 -4 -278.5t5 -303.5l81 4q27 0 43.5 -12.5t16.5 -34t-16.5 -34t-43.5 -12.5l-131 6l-131 -6q-27 0 -43.5 12.5t-16.5 34t16.5 34t43.5 12.5l81 -5q5 122 5 304t-4 279l-82 -4q-27 0 -43.5 13t-16.5 35t16.5 34.5t43.5 12.5l131 -6l131 6
q27 0 43.5 -12.5t16.5 -34.5t-16.5 -35t-43.5 -13zM745 750l149 6q27 0 43.5 -12.5t16.5 -34t-19 -34.5t-49 -13q-1 -62 -1 -405q0 -73 -20.5 -128t-54.5 -85q-67 -59 -152.5 -59t-140 34.5t-54.5 67.5q0 19 11 30.5t29 11.5t36 -14t46 -28.5t69 -14.5q58 0 99.5 49.5
t41.5 156.5l-3 389q-62 0 -113 -3t-70.5 -3t-36 12.5t-16.5 34.5t16.5 34.5t43.5 12.5z" />
    <glyph glyph-name="Jcircumflex" unicode="&#x134;" horiz-adv-x="593" 
d="M416 842q-69 81 -83 81q-16 0 -80 -77q-5 -6 -8 -8l-7 -8q-13 -13 -30.5 -13t-28.5 10.5t-11 29t26 40t52.5 51.5t45.5 46t40.5 16t41 -16t45.5 -46t52.5 -52t26.5 -40t-11 -28.5t-24 -10.5t-22 5q-13 7 -25 20zM328 750l149 6q27 0 43.5 -12.5t16.5 -34t-19 -34.5
t-49 -13q-1 -62 -1 -405q0 -73 -20.5 -128t-54.5 -85q-67 -59 -152.5 -59t-140 34.5t-54.5 67.5q0 19 11 30.5t29 11.5t36 -14t46 -28.5t69 -14.5q58 0 99.5 49.5t41.5 156.5l-3 389q-63 0 -114 -3t-70 -3t-35.5 12.5t-16.5 34.5t16.5 34.5t43.5 12.5z" />
    <glyph glyph-name="jcircumflex" unicode="&#x135;" horiz-adv-x="593" 
d="M328 750l149 6q27 0 43.5 -12.5t16.5 -34t-19 -34.5t-49 -13q-1 -62 -1 -405q0 -73 -20.5 -128t-54.5 -85q-67 -59 -152.5 -59t-140 34.5t-54.5 67.5q0 19 11 30.5t29 11.5t36 -14t46 -28.5t69 -14.5q58 0 99.5 49.5t41.5 156.5l-3 389q-63 0 -114 -3t-70 -3t-35.5 12.5
t-16.5 34.5t16.5 34.5t43.5 12.5zM426 842q-69 81 -84 81t-79 -77q-5 -6 -7 -8l-8 -8q-13 -13 -30.5 -13t-28.5 10.5t-11 29t26 40t52.5 51.5t45.5 46t40.5 16t41 -16t45.5 -46t52.5 -52t26.5 -40t-11 -28.5t-24 -10.5t-21 5q-14 7 -26 20z" />
    <glyph glyph-name="Kcommaaccent" unicode="&#x136;" horiz-adv-x="688" 
d="M241 -63.5q12 16.5 34.5 16.5t35 -14.5t12.5 -35.5q0 -44 -41 -91.5t-68 -47.5q-14 0 -23 8t-9 17.5t29 62.5q5 9 11.5 38.5t18.5 46zM208 337l5 -290q0 -24 -15 -40.5t-35.5 -16.5t-35 16.5t-14.5 40.5l4 325l-4 330q0 24 14.5 40.5t35 16.5t35.5 -16.5t15 -40.5l-3 -90
q-2 -90 -2 -178q27 8 69 8l56 -6q47 35 95.5 120.5t64.5 157.5q11 46 48 46q17 0 29.5 -13t12.5 -32q0 -62 -55.5 -163t-119.5 -166q102 -184 167 -267q35 -44 66 -44l11 1q7 0 7 -22t-18 -43t-46 -21t-55 24q-55 47 -216 327l-64 -7q-36 0 -52 3z" />
    <glyph glyph-name="kcedilla" unicode="&#x137;" horiz-adv-x="688" 
d="M241 -63.5q12 16.5 34.5 16.5t35 -14.5t12.5 -35.5q0 -44 -41 -91.5t-68 -47.5q-14 0 -23 8t-9 17.5t29 62.5q5 9 11.5 38.5t18.5 46zM208 337l5 -290q0 -24 -15 -40.5t-35.5 -16.5t-35 16.5t-14.5 40.5l4 325l-4 330q0 24 14.5 40.5t35 16.5t35.5 -16.5t15 -40.5l-3 -90
q-2 -90 -2 -178q27 8 69 8l56 -6q47 35 95.5 120.5t64.5 157.5q11 46 48 46q17 0 29.5 -13t12.5 -32q0 -62 -55.5 -163t-119.5 -166q102 -184 167 -267q35 -44 66 -44l11 1q7 0 7 -22t-18 -43t-46 -21t-55 24q-55 47 -216 327l-64 -7q-36 0 -52 3z" />
    <glyph glyph-name="kgreenlandic" unicode="&#x138;" horiz-adv-x="688" 
d="M208 337l5 -290q0 -24 -15 -40.5t-35.5 -16.5t-35 16.5t-14.5 40.5l4 325l-4 330q0 24 14.5 40.5t35 16.5t35.5 -16.5t15 -40.5l-3 -90q-2 -90 -2 -178q27 8 69 8l56 -6q47 35 95.5 120.5t64.5 157.5q11 46 48 46q17 0 29.5 -13t12.5 -32q0 -62 -55.5 -163t-119.5 -166
q102 -184 167 -267q35 -44 66 -44l11 1q7 0 7 -22t-18 -43t-46 -21t-55 24q-55 47 -216 327l-64 -7q-36 0 -52 3z" />
    <glyph glyph-name="Lacute" unicode="&#x139;" horiz-adv-x="523" 
d="M115 54l4 326q0 131 -3 216t-3 93q0 71 51 71t51 -71q0 -8 -1 -51q-5 -127 -5 -232.5t1 -165t3 -101t2 -52.5q48 -5 104 -5t109 3.5t69.5 3.5t33 -12.5t16.5 -34.5t-16.5 -34.5t-43.5 -12.5l-149 5l-162 -5q-30 0 -45.5 12.5t-15.5 46.5zM174 861q0 -44 -47.5 -88.5
t-79.5 -44.5q-16 0 -24.5 8t-8.5 20t24 41.5t33 49.5t14.5 29.5t18 19t30 9.5t29 -13.5t11.5 -30.5z" />
    <glyph glyph-name="lacute" unicode="&#x13a;" horiz-adv-x="257" 
d="M115 54l4 326q0 131 -3 216t-3 93q0 71 51 71t51 -71q0 -8 -1 -51q-5 -127 -5 -232.5t1 -165t3 -101t2 -52.5q48 -5 104 -5t109 3.5t69.5 3.5t33 -12.5t16.5 -34.5t-16.5 -34.5t-43.5 -12.5l-149 5l-162 -5q-30 0 -45.5 12.5t-15.5 46.5zM137 889q0 -44 -47.5 -88.5
t-79.5 -44.5q-16 0 -24.5 8t-8.5 20t24 41.5t33 49.5t14.5 29.5t18 19t30 9.5t29 -13.5t11.5 -30.5z" />
    <glyph glyph-name="uni013B" unicode="&#x13b;" horiz-adv-x="523" 
d="M204 -209q11 25 24 70.5t17 77.5h87v-9q-8 -31 -31.5 -76.5t-48.5 -74.5h-48v12zM115 54l4 326q0 131 -3 216t-3 93q0 71 51 71t51 -71q0 -8 -1 -51q-5 -127 -5 -232.5t1 -165t3 -101t2 -52.5q48 -5 104 -5t109 3.5t69.5 3.5t33 -12.5t16.5 -34.5t-16.5 -34.5
t-43.5 -12.5l-149 5l-162 -5q-30 0 -45.5 12.5t-15.5 46.5z" />
    <glyph glyph-name="uni013C" unicode="&#x13c;" horiz-adv-x="257" 
d="M45 -209q11 25 24 70.5t17 77.5h87v-9q-8 -31 -31.5 -76.5t-48.5 -74.5h-48v12zM115 54l4 326q0 131 -3 216t-3 93q0 71 51 71t51 -71q0 -8 -1 -51q-5 -127 -5 -232.5t1 -165t3 -101t2 -52.5q48 -5 104 -5t109 3.5t69.5 3.5t33 -12.5t16.5 -34.5t-16.5 -34.5t-43.5 -12.5
l-149 5l-162 -5q-30 0 -45.5 12.5t-15.5 46.5z" />
    <glyph glyph-name="Lcaron" unicode="&#x13d;" horiz-adv-x="523" 
d="M333 567q11 32 20.5 77.5t12.5 70.5h87v-9q-6 -26 -27 -71t-45 -80h-48v12zM115 54l4 326q0 131 -3 216t-3 93q0 71 51 71t51 -71q0 -8 -1 -51q-5 -127 -5 -232.5t1 -165t3 -101t2 -52.5q48 -5 104 -5t109 3.5t69.5 3.5t33 -12.5t16.5 -34.5t-16.5 -34.5t-43.5 -12.5
l-149 5l-162 -5q-30 0 -45.5 12.5t-15.5 46.5z" />
    <glyph glyph-name="lcaron" unicode="&#x13e;" horiz-adv-x="257" 
d="M219 612q11 32 20.5 77.5t12.5 70.5h87v-9q-6 -26 -27 -71t-45 -80h-48v12zM115 54l4 326q0 131 -3 216t-3 93q0 71 51 71t51 -71q0 -8 -1 -51q-5 -127 -5 -232.5t1 -165t3 -101t2 -52.5q48 -5 104 -5t109 3.5t69.5 3.5t33 -12.5t16.5 -34.5t-16.5 -34.5t-43.5 -12.5
l-149 5l-162 -5q-30 0 -45.5 12.5t-15.5 46.5z" />
    <glyph glyph-name="Ldot" unicode="&#x13f;" horiz-adv-x="594" 
d="M408.5 428q13.5 -17 13.5 -43.5t-17 -47.5t-41.5 -21t-38.5 18t-14 44t16.5 46.5t42 20.5t39 -17zM115 54l4 326q0 131 -3 216t-3 93q0 71 51 71t51 -71q0 -8 -1 -51q-5 -127 -5 -232.5t1 -165t3 -101t2 -52.5q48 -5 104 -5t109 3.5t69.5 3.5t33 -12.5t16.5 -34.5
t-16.5 -34.5t-43.5 -12.5l-149 5l-162 -5q-30 0 -45.5 12.5t-15.5 46.5z" />
    <glyph glyph-name="ldot" unicode="&#x140;" horiz-adv-x="594" 
d="M408.5 428q13.5 -17 13.5 -43.5t-17 -47.5t-41.5 -21t-38.5 18t-14 44t16.5 46.5t42 20.5t39 -17zM115 54l4 326q0 131 -3 216t-3 93q0 71 51 71t51 -71q0 -8 -1 -51q-5 -127 -5 -232.5t1 -165t3 -101t2 -52.5q48 -5 104 -5t109 3.5t69.5 3.5t33 -12.5t16.5 -34.5
t-16.5 -34.5t-43.5 -12.5l-149 5l-162 -5q-30 0 -45.5 12.5t-15.5 46.5z" />
    <glyph glyph-name="Lslash" unicode="&#x141;" horiz-adv-x="611" 
d="M135 449l-5 240q0 71 51 71t51 -71q0 -7 -1 -29q-3 -73 -5 -133l59 55q21 17 36 17t27.5 -12.5t12.5 -29.5t-22 -35l-113 -93v-49q0 -158 3 -220t3 -73q48 -5 104.5 -5t109 3.5t69 3.5t33 -12.5t16.5 -34.5t-16.5 -34.5t-43.5 -12.5l-148 5l-163 -5q-30 0 -45.5 12.5
t-15.5 46.5q0 8 1 48q2 80 2 248l-36 -33q-17 -15 -34 -15t-29 11.5t-12 29.5t20 34z" />
    <glyph glyph-name="lslash" unicode="&#x142;" horiz-adv-x="611" 
d="M135 449l-5 240q0 71 51 71t51 -71q0 -7 -1 -29q-3 -73 -5 -133l59 55q17 17 34 17t29.5 -12.5t12.5 -29.5t-22 -35l-113 -93v-49q0 -158 3 -220t3 -73q48 -5 104.5 -5t109 3.5t69 3.5t33 -12.5t16.5 -34.5t-16.5 -34.5t-43.5 -12.5l-148 5l-163 -5q-30 0 -45.5 12.5
t-15.5 46.5q0 8 1 48q2 80 2 248l-36 -33q-17 -15 -34 -15t-29 11.5t-12 29.5t20 34z" />
    <glyph glyph-name="Nacute" unicode="&#x143;" horiz-adv-x="743" 
d="M626 372l3 -310q0 -72 -53 -72q-33 0 -50 31l-317 546q0 -233 2.5 -372t2.5 -155.5t-15 -33t-35.5 -16.5t-35 16.5t-14.5 41.5l4 324q0 103 -2.5 209t-2.5 108q0 71 51 71q37 0 55 -31q291 -500 317 -540q0 283 -3 390t-3 110q0 71 51 71t51 -71q0 -8 -2 -53
q-4 -133 -4 -264zM491 947q0 -44 -47.5 -88.5t-79.5 -44.5q-16 0 -24.5 8t-8.5 20t24 41.5t33 49.5t14.5 29.5t18 19t30 9.5t29 -13.5t11.5 -30.5z" />
    <glyph glyph-name="nacute" unicode="&#x144;" horiz-adv-x="805" 
d="M670 497l-7 -282q0 -38 1 -57t8 -40t21 -27q8 -4 19 -5.5t16 -4.5t5 -11q0 -35 -22 -58.5t-52 -23.5q-52 0 -71.5 40t-19.5 119l6 284q0 109 -38 174.5t-110.5 65.5t-140.5 -87.5t-94 -198.5l4 -328q0 -69 -51 -69q-62 0 -62 104.5t27 292.5q0 65 -11.5 176.5
t-11.5 136.5t14 43.5t38.5 18.5t38.5 -18.5t14 -41.5t-0.5 -55.5t-0.5 -55.5q98 171 248 171q111 0 171.5 -76.5t60.5 -186.5zM557 946q0 -44 -47.5 -88.5t-79.5 -44.5q-16 0 -24.5 8t-8.5 20t24 41.5t33 49.5t14.5 29.5t18 19t30 9.5t29 -13.5t11.5 -30.5z" />
    <glyph glyph-name="uni0145" unicode="&#x145;" horiz-adv-x="759" 
d="M281 -209q11 25 24 70.5t17 77.5h87v-9q-8 -31 -31.5 -76.5t-48.5 -74.5h-48v12zM626 372l3 -310q0 -72 -53 -72q-33 0 -50 31l-317 546q0 -233 2.5 -372t2.5 -155.5t-15 -33t-35.5 -16.5t-35 16.5t-14.5 41.5l4 324q0 103 -2.5 209t-2.5 108q0 71 51 71q37 0 55 -31
q291 -500 317 -540q0 283 -3 390t-3 110q0 71 51 71t51 -71q0 -8 -2 -53q-4 -133 -4 -264z" />
    <glyph glyph-name="uni0146" unicode="&#x146;" horiz-adv-x="618" 
d="M222 -209q11 25 24 70.5t17 77.5h87v-9q-8 -31 -31.5 -76.5t-48.5 -74.5h-48v12zM670 497l-7 -282q0 -38 1 -57t8 -40t21 -27q8 -4 19 -5.5t16 -4.5t5 -11q0 -35 -22 -58.5t-52 -23.5q-52 0 -71.5 40t-19.5 119l6 284q0 109 -38 174.5t-110.5 65.5t-140.5 -87.5
t-94 -198.5l4 -328q0 -69 -51 -69q-62 0 -62 104.5t27 292.5q0 65 -11.5 176.5t-11.5 136.5t14 43.5t38.5 18.5t38.5 -18.5t14 -41.5t-0.5 -55.5t-0.5 -55.5q98 171 248 171q111 0 171.5 -76.5t60.5 -186.5z" />
    <glyph glyph-name="Ncaron" unicode="&#x147;" horiz-adv-x="759" 
d="M244 896q64 -77 78 -77q16 0 85 80q22 26 41 26t30 -10.5t11 -28.5t-26.5 -40t-52.5 -52t-45.5 -46t-41 -16t-40.5 16t-45.5 46t-52.5 51.5t-26 40t11 29t23 10.5t17.5 -2t9.5 -4t9 -7l7 -7q3 -3 8 -9zM626 372l3 -310q0 -72 -53 -72q-33 0 -50 31l-317 546
q0 -233 2.5 -372t2.5 -155.5t-15 -33t-35.5 -16.5t-35 16.5t-14.5 41.5l4 324q0 103 -2.5 209t-2.5 108q0 71 51 71q37 0 55 -31q291 -500 317 -540q0 283 -3 390t-3 110q0 71 51 71t51 -71q0 -8 -2 -53q-4 -133 -4 -264z" />
    <glyph glyph-name="ncaron" unicode="&#x148;" horiz-adv-x="618" 
d="M177 731q64 -77 78 -77q16 0 85 80q22 26 41 26t30 -10.5t11 -28.5t-26.5 -40t-52.5 -52t-45.5 -46t-41 -16t-40.5 16t-45.5 46t-52.5 51.5t-26 40t11 29t23 10.5t17.5 -2t9.5 -4t9 -7l7 -7q3 -3 8 -9zM670 497l-7 -282q0 -38 1 -57t8 -40t21 -27q8 -4 19 -5.5t16 -4.5
t5 -11q0 -35 -22 -58.5t-52 -23.5q-52 0 -71.5 40t-19.5 119l6 284q0 109 -38 174.5t-110.5 65.5t-140.5 -87.5t-94 -198.5l4 -328q0 -69 -51 -69q-62 0 -62 104.5t27 292.5q0 65 -11.5 176.5t-11.5 136.5t14 43.5t38.5 18.5t38.5 -18.5t14 -41.5t-0.5 -55.5t-0.5 -55.5
q98 171 248 171q111 0 171.5 -76.5t60.5 -186.5z" />
    <glyph glyph-name="napostrophe" unicode="&#x149;" horiz-adv-x="690" 
d="M145 714l7 -11q-25 -97 -86 -234h-65q34 139 50 245h94zM741 497l-7 -282q0 -38 1 -57t8 -40t21 -27q8 -4 19 -5.5t16 -4.5t5 -11q0 -35 -22 -58.5t-52 -23.5q-52 0 -71.5 40t-19.5 119l6 284q0 109 -38 174.5t-110.5 65.5t-140.5 -87.5t-94 -198.5l4 -328q0 -69 -51 -69
q-62 0 -62 104.5t27 292.5q0 65 -11.5 176.5t-11.5 136.5t14 43.5t38.5 18.5t38.5 -18.5t14 -41.5t-0.5 -55.5t-0.5 -55.5q98 171 248 171q111 0 171.5 -76.5t60.5 -186.5z" />
    <glyph glyph-name="Eng" unicode="&#x14a;" horiz-adv-x="759" 
d="M475 -190q-48 0 -76 13v76q35 -10 76 -10q50 0 76.5 28.5t27.5 82.5l-403 593h-4q8 -125 8 -206v-387h-83v714h104l381 -572h4q-7 75 -7 200v372h84v-708q0 -96 -48.5 -146t-139.5 -50z" />
    <glyph glyph-name="eng" unicode="&#x14b;" horiz-adv-x="618" 
d="M394 -240q-42 0 -71 12v71q29 -10 60 -10q67 0 67 84v427q0 65 -29 96.5t-90 31.5q-83 0 -120.5 -45.5t-37.5 -147.5v-279h-88v536h71l14 -73h5q25 40 69 61.5t98 21.5q99 0 147.5 -46.5t48.5 -149.5v-430q0 -75 -35 -117.5t-109 -42.5z" />
    <glyph glyph-name="Omacron" unicode="&#x14c;" horiz-adv-x="780" 
d="M242 842h297v-71h-297v71zM586.5 164q69.5 92 69.5 213t-69 211.5t-174.5 90.5t-175 -90.5t-69.5 -211t70 -213t174.5 -92.5t174 92zM752 376q0 -163 -97.5 -277t-243 -114t-242.5 114t-97 277t98 276t243.5 113t242 -113t96.5 -276z" />
    <glyph glyph-name="omacron" unicode="&#x14d;" horiz-adv-x="604" 
d="M154 677h297v-71h-297v71zM586.5 164q69.5 92 69.5 213t-69 211.5t-174.5 90.5t-175 -90.5t-69.5 -211t70 -213t174.5 -92.5t174 92zM752 376q0 -163 -97.5 -277t-243 -114t-242.5 114t-97 277t98 276t243.5 113t242 -113t96.5 -276z" />
    <glyph glyph-name="Obreve" unicode="&#x14e;" horiz-adv-x="780" 
d="M427 927q39 0 39 -42.5t-46 -86t-117 -43.5t-116.5 43.5t-45.5 86t38 42.5q17 0 27 -10t20.5 -29.5t17.5 -28.5t23 -18.5t36 -9.5t36.5 9.5t23 18.5t17.5 27q20 41 47 41zM586.5 164q69.5 92 69.5 213t-69 211.5t-174.5 90.5t-175 -90.5t-69.5 -211t70 -213t174.5 -92.5
t174 92zM752 376q0 -163 -97.5 -277t-243 -114t-242.5 114t-97 277t98 276t243.5 113t242 -113t96.5 -276z" />
    <glyph glyph-name="obreve" unicode="&#x14f;" horiz-adv-x="604" 
d="M339 762q39 0 39 -42.5t-46 -86t-117 -43.5t-116.5 43.5t-45.5 86t38 42.5q17 0 27 -10t20.5 -29.5t17.5 -28.5t23 -18.5t36 -9.5t36.5 9.5t23 18.5t17.5 27q20 41 47 41zM586.5 164q69.5 92 69.5 213t-69 211.5t-174.5 90.5t-175 -90.5t-69.5 -211t70 -213t174.5 -92.5
t174 92zM752 376q0 -163 -97.5 -277t-243 -114t-242.5 114t-97 277t98 276t243.5 113t242 -113t96.5 -276z" />
    <glyph glyph-name="Ohungarumlaut" unicode="&#x150;" horiz-adv-x="780" 
d="M246 783q17 22 42.5 65.5t44.5 82.5h96v-10q-16 -27 -58.5 -75t-74.5 -75h-50v12zM422 783q23 32 49 76.5t38 71.5h96v-10q-16 -27 -58.5 -75t-74.5 -75h-50v12zM586.5 164q69.5 92 69.5 213t-69 211.5t-174.5 90.5t-175 -90.5t-69.5 -211t70 -213t174.5 -92.5t174 92z
M752 376q0 -163 -97.5 -277t-243 -114t-242.5 114t-97 277t98 276t243.5 113t242 -113t96.5 -276z" />
    <glyph glyph-name="ohungarumlaut" unicode="&#x151;" horiz-adv-x="604" 
d="M154 618q17 22 42.5 65.5t44.5 82.5h96v-10q-16 -27 -58.5 -75t-74.5 -75h-50v12zM330 618q23 32 49 76.5t38 71.5h96v-10q-16 -27 -58.5 -75t-74.5 -75h-50v12zM586.5 164q69.5 92 69.5 213t-69 211.5t-174.5 90.5t-175 -90.5t-69.5 -211t70 -213t174.5 -92.5t174 92z
M752 376q0 -163 -97.5 -277t-243 -114t-242.5 114t-97 277t98 276t243.5 113t242 -113t96.5 -276z" />
    <glyph glyph-name="OE" unicode="&#x152;" horiz-adv-x="997" 
d="M540 164.5q62 92.5 62 213t-61.5 210.5t-153.5 90t-155.5 -90t-63.5 -210.5t63.5 -213t155 -92.5t153.5 92.5zM878 665l-240 5q-25 0 -41 -2q79 -90 96 -227q98 2 131 2q59 0 59 -44t-59 -44q-28 0 -126 2q-4 -161 -102 -275q64 -2 118 -2l164 5q59 0 59 -45
q0 -21 -16 -33t-43 -12l-164 5l-175 -5q-26 0 -41 13q-47 -23 -111 -23q-134 0 -224.5 114.5t-90.5 276.5t91 275.5t226 113.5q56 0 100 -19q13 9 44 9l192 -5l153 5q27 0 43 -12t16 -33t-16 -33t-43 -12z" />
    <glyph glyph-name="oe" unicode="&#x153;" horiz-adv-x="1262" 
d="M790 151.5q66 -78.5 148.5 -78.5t163.5 48q32 18 44 18t21.5 -9.5t9.5 -23.5q0 -35 -71.5 -78t-165 -43t-163.5 45t-112 121q-43 -76 -116 -121t-161 -45q-143 0 -235 112.5t-92 275.5t93 277.5t233 114.5q94 0 168 -45.5t116 -124.5q45 78 117 124t170 46t169 -62
t71 -148t-44 -140q-82 -99 -257 -99q-75 0 -182 20q9 -106 75 -184.5zM550.5 163q68.5 90 68.5 215t-65.5 212.5t-163 87.5t-165.5 -90.5t-68 -214.5t66 -212t162.5 -88t165 90zM1102 551q0 47 -38 87t-109 40q-93 0 -156.5 -77t-81.5 -179q75 -21 172.5 -21t155 38.5
t57.5 111.5z" />
    <glyph glyph-name="Racute" unicode="&#x154;" horiz-adv-x="686" 
d="M504 533q0 66 -50 106t-145 40q-47 0 -97 -18q-3 -90 -3 -171.5t1 -94.5q48 9 90 9t95 -9q36 10 72.5 50.5t36.5 87.5zM629 76l16 2q9 0 9 -24t-21 -44t-47 -20q-45 0 -86 58q-53 72 -135 253q-45 -6 -102 -6l-52 4q0 -70 3 -141.5t3 -101.5q0 -71 -51 -71t-51 71
q0 40 3.5 141t3.5 197.5t-6 232.5q-44 9 -44 45q0 43 83 68t148 25q146 0 221.5 -65.5t75.5 -160.5q0 -61 -41 -119.5t-107 -89.5q46 -106 83.5 -166t56.5 -74t37 -14zM439 948q0 -44 -47.5 -88.5t-79.5 -44.5q-16 0 -24.5 8t-8.5 20t24 41.5t33 49.5t14.5 29.5t18 19
t30 9.5t29 -13.5t11.5 -30.5z" />
    <glyph glyph-name="racute" unicode="&#x155;" horiz-adv-x="413" 
d="M192 355l3 -298q0 -69 -51 -69q-62 0 -62 104.5t27 292.5q0 65 -11.5 176.5t-11.5 136.5t14 43.5t38.5 18.5t38.5 -18.5t14 -41.5t-0.5 -55.5t-0.5 -54.5q29 69 89 121.5t122.5 52.5t95.5 -24.5t33 -53t-15.5 -45t-38.5 -16.5t-50.5 25t-44.5 25q-46 0 -109 -106.5
t-80 -213.5zM230 696q0 -44 -47.5 -88.5t-79.5 -44.5q-16 0 -24.5 8t-8.5 20t24 41.5t33 49.5t14.5 29.5t18 19t30 9.5t29 -13.5t11.5 -30.5z" />
    <glyph glyph-name="Rcommaaccent" unicode="&#x156;" horiz-adv-x="686" 
d="M504 533q0 66 -50 106t-145 40q-47 0 -97 -18q-3 -90 -3 -171.5t1 -94.5q48 9 90 9t95 -9q36 10 72.5 50.5t36.5 87.5zM629 76l16 2q9 0 9 -24t-21 -44t-47 -20q-45 0 -86 58q-53 72 -135 253q-45 -6 -102 -6l-52 4q0 -70 3 -141.5t3 -101.5q0 -71 -51 -71t-51 71
q0 40 3.5 141t3.5 197.5t-6 232.5q-44 9 -44 45q0 43 83 68t148 25q146 0 221.5 -65.5t75.5 -160.5q0 -61 -41 -119.5t-107 -89.5q46 -106 83.5 -166t56.5 -74t37 -14zM246 -63.5q12 16.5 34.5 16.5t35 -14.5t12.5 -35.5q0 -44 -41 -91.5t-68 -47.5q-14 0 -23 8t-9 17.5
t29 62.5q5 9 11.5 38.5t18.5 46z" />
    <glyph glyph-name="rcommaaccent" unicode="&#x157;" horiz-adv-x="563" 
d="M192 355l3 -298q0 -69 -51 -69q-62 0 -62 104.5t27 292.5q0 65 -11.5 176.5t-11.5 136.5t14 43.5t38.5 18.5t38.5 -18.5t14 -41.5t-0.5 -55.5t-0.5 -54.5q29 69 89 121.5t122.5 52.5t95.5 -24.5t33 -53t-15.5 -45t-38.5 -16.5t-50.5 25t-44.5 25q-46 0 -109 -106.5
t-80 -213.5zM99 -63.5q12 16.5 34.5 16.5t35 -14.5t12.5 -35.5q0 -44 -41 -91.5t-68 -47.5q-14 0 -23 8t-9 17.5t29 62.5q5 9 11.5 38.5t18.5 46z" />
    <glyph glyph-name="Rcaron" unicode="&#x158;" horiz-adv-x="686" 
d="M243 981q64 -77 78 -77q16 0 85 80q22 26 41 26t30 -10.5t11 -28.5t-26.5 -40t-52.5 -52t-45.5 -46t-41 -16t-40.5 16t-45.5 46t-52.5 51.5t-26 40t11 29t23 10.5t17.5 -2t9.5 -4t9 -7l7 -7q3 -3 8 -9zM504 533q0 66 -50 106t-145 40q-47 0 -97 -18q-3 -90 -3 -171.5
t1 -94.5q48 9 90 9t95 -9q36 10 72.5 50.5t36.5 87.5zM629 76l16 2q9 0 9 -24t-21 -44t-47 -20q-45 0 -86 58q-53 72 -135 253q-45 -6 -102 -6l-52 4q0 -70 3 -141.5t3 -101.5q0 -71 -51 -71t-51 71q0 40 3.5 141t3.5 197.5t-6 232.5q-44 9 -44 45q0 43 83 68t148 25
q146 0 221.5 -65.5t75.5 -160.5q0 -61 -41 -119.5t-107 -89.5q46 -106 83.5 -166t56.5 -74t37 -14z" />
    <glyph glyph-name="rcaron" unicode="&#x159;" horiz-adv-x="563" 
d="M192 355l3 -298q0 -69 -51 -69q-62 0 -62 104.5t27 292.5q0 65 -11.5 176.5t-11.5 136.5t14 43.5t38.5 18.5t38.5 -18.5t14 -41.5t-0.5 -55.5t-0.5 -54.5q29 69 89 121.5t122.5 52.5t95.5 -24.5t33 -53t-15.5 -45t-38.5 -16.5t-50.5 25t-44.5 25q-46 0 -109 -106.5
t-80 -213.5zM222 981q64 -77 78 -77q16 0 85 80q22 26 41 26t30 -10.5t11 -28.5t-26.5 -40t-52.5 -52t-45.5 -46t-41 -16t-40.5 16t-45.5 46t-52.5 51.5t-26 40t11 29t23 10.5t17.5 -2t9.5 -4t9 -7l7 -7q3 -3 8 -9z" />
    <glyph glyph-name="Sacute" unicode="&#x15a;" horiz-adv-x="548" 
d="M547 204q0 -93 -70.5 -156t-182.5 -63q-87 0 -162 42t-75 82q0 18 12 30t30.5 12t37.5 -12.5t35 -27t48.5 -27t73.5 -12.5q68 0 112.5 35t44.5 97q0 41 -38 78t-92 67t-108 61.5t-92 77t-38 98.5q0 73 64 126t151 53t148 -29.5t61 -67.5q0 -19 -12 -30t-32 -11t-39 13
t-47 26t-75 13t-85 -26t-38 -64t38 -70.5t92 -62.5t108 -63t92 -82t38 -107zM283 861q0 -44 -47.5 -88.5t-79.5 -44.5q-16 0 -24.5 8t-8.5 20t24 41.5t33 49.5t14.5 29.5t18 19t30 9.5t29 -13.5t11.5 -30.5z" />
    <glyph glyph-name="sacute" unicode="&#x15b;" horiz-adv-x="479" 
d="M547 204q0 -93 -70.5 -156t-182.5 -63q-87 0 -162 42t-75 82q0 18 12 30t30.5 12t37.5 -12.5t35 -27t48.5 -27t73.5 -12.5q68 0 112.5 35t44.5 97q0 41 -38 78t-92 67t-108 61.5t-92 77t-38 98.5q0 73 64 126t151 53t148 -29.5t61 -67.5q0 -19 -12 -30t-32 -11t-39 13
t-47 26t-75 13t-85 -26t-38 -64t38 -70.5t92 -62.5t108 -63t92 -82t38 -107zM237 696q0 -44 -47.5 -88.5t-79.5 -44.5q-16 0 -24.5 8t-8.5 20t24 41.5t33 49.5t14.5 29.5t18 19t30 9.5t29 -13.5t11.5 -30.5z" />
    <glyph glyph-name="Scircumflex" unicode="&#x15c;" horiz-adv-x="548" 
d="M312 757q-69 81 -83 81q-16 0 -80 -77q-5 -6 -8 -8l-7 -8q-13 -13 -30.5 -13t-28.5 10.5t-11 29t26 40t52.5 51.5t45.5 46t40.5 16t41 -16t45.5 -46t52.5 -52t26.5 -40t-11 -28.5t-24 -10.5t-22 5q-13 7 -25 20zM547 204q0 -93 -70.5 -156t-182.5 -63q-87 0 -162 42
t-75 82q0 18 12 30t30.5 12t37.5 -12.5t35 -27t48.5 -27t73.5 -12.5q68 0 112.5 35t44.5 97q0 41 -38 78t-92 67t-108 61.5t-92 77t-38 98.5q0 73 64 126t151 53t148 -29.5t61 -67.5q0 -19 -12 -30t-32 -11t-39 13t-47 26t-75 13t-85 -26t-38 -64t38 -70.5t92 -62.5t108 -63
t92 -82t38 -107z" />
    <glyph glyph-name="scircumflex" unicode="&#x15d;" horiz-adv-x="479" 
d="M273 592q-69 81 -83 81q-16 0 -80 -77q-5 -6 -8 -8l-7 -8q-13 -13 -30.5 -13t-28.5 10.5t-11 29t26 40t52.5 51.5t45.5 46t40.5 16t41 -16t45.5 -46t52.5 -52t26.5 -40t-11 -28.5t-24 -10.5t-22 5q-13 7 -25 20zM547 204q0 -93 -70.5 -156t-182.5 -63q-87 0 -162 42
t-75 82q0 18 12 30t30.5 12t37.5 -12.5t35 -27t48.5 -27t73.5 -12.5q68 0 112.5 35t44.5 97q0 41 -38 78t-92 67t-108 61.5t-92 77t-38 98.5q0 73 64 126t151 53t148 -29.5t61 -67.5q0 -19 -12 -30t-32 -11t-39 13t-47 26t-75 13t-85 -26t-38 -64t38 -70.5t92 -62.5t108 -63
t92 -82t38 -107z" />
    <glyph glyph-name="Scedilla" unicode="&#x15e;" horiz-adv-x="548" 
d="M547 204q0 -93 -70.5 -156t-182.5 -63q-87 0 -162 42t-75 82q0 18 12 30t30.5 12t37.5 -12.5t35 -27t48.5 -27t73.5 -12.5q68 0 112.5 35t44.5 97q0 41 -38 78t-92 67t-108 61.5t-92 77t-38 98.5q0 73 64 126t151 53t148 -29.5t61 -67.5q0 -19 -12 -30t-32 -11t-39 13
t-47 26t-75 13t-85 -26t-38 -64t38 -70.5t92 -62.5t108 -63t92 -82t38 -107zM427 -133q0 -42 -37.5 -69.5t-89.5 -27.5t-83.5 24.5t-31.5 50.5q0 9 7.5 17t19 8t37 -12t44.5 -12t31 7t12 16.5t-14.5 20t-32 20.5t-32 27.5t-14.5 38.5v43h81v-28q0 -15 16 -30t35.5 -25.5
t35.5 -28.5t16 -40z" />
    <glyph glyph-name="scedilla" unicode="&#x15f;" horiz-adv-x="479" 
d="M547 204q0 -93 -70.5 -156t-182.5 -63q-87 0 -162 42t-75 82q0 18 12 30t30.5 12t37.5 -12.5t35 -27t48.5 -27t73.5 -12.5q68 0 112.5 35t44.5 97q0 41 -38 78t-92 67t-108 61.5t-92 77t-38 98.5q0 73 64 126t151 53t148 -29.5t61 -67.5q0 -19 -12 -30t-32 -11t-39 13
t-47 26t-75 13t-85 -26t-38 -64t38 -70.5t92 -62.5t108 -63t92 -82t38 -107zM389 -133q0 -42 -37.5 -69.5t-89.5 -27.5t-83.5 24.5t-31.5 50.5q0 9 7.5 17t19 8t37 -12t44.5 -12t31 7t12 16.5t-14.5 20t-32 20.5t-32 27.5t-14.5 38.5v43h81v-28q0 -15 16 -30t35.5 -25.5
t35.5 -28.5t16 -40z" />
    <glyph glyph-name="Scaron" unicode="&#x160;" horiz-adv-x="548" 
d="M147 896q64 -77 78 -77q16 0 85 80q22 26 41 26t30 -10.5t11 -28.5t-26.5 -40t-52.5 -52t-45.5 -46t-41 -16t-40.5 16t-45.5 46t-52.5 51.5t-26 40t11 29t23 10.5t17.5 -2t9.5 -4t9 -7l7 -7q3 -3 8 -9zM547 204q0 -93 -70.5 -156t-182.5 -63q-87 0 -162 42t-75 82
q0 18 12 30t30.5 12t37.5 -12.5t35 -27t48.5 -27t73.5 -12.5q68 0 112.5 35t44.5 97q0 41 -38 78t-92 67t-108 61.5t-92 77t-38 98.5q0 73 64 126t151 53t148 -29.5t61 -67.5q0 -19 -12 -30t-32 -11t-39 13t-47 26t-75 13t-85 -26t-38 -64t38 -70.5t92 -62.5t108 -63t92 -82
t38 -107z" />
    <glyph glyph-name="scaron" unicode="&#x161;" horiz-adv-x="479" 
d="M116 731q64 -77 78 -77q16 0 85 80q22 26 41 26t30 -10.5t11 -28.5t-26.5 -40t-52.5 -52t-45.5 -46t-41 -16t-40.5 16t-45.5 46t-52.5 51.5t-26 40t11 29t23 10.5t17.5 -2t9.5 -4t9 -7l7 -7q3 -3 8 -9zM547 204q0 -93 -70.5 -156t-182.5 -63q-87 0 -162 42t-75 82
q0 18 12 30t30.5 12t37.5 -12.5t35 -27t48.5 -27t73.5 -12.5q68 0 112.5 35t44.5 97q0 41 -38 78t-92 67t-108 61.5t-92 77t-38 98.5q0 73 64 126t151 53t148 -29.5t61 -67.5q0 -19 -12 -30t-32 -11t-39 13t-47 26t-75 13t-85 -26t-38 -64t38 -70.5t92 -62.5t108 -63t92 -82
t38 -107z" />
    <glyph glyph-name="uni0162" unicode="&#x162;" horiz-adv-x="556" 
d="M102 756l199 -6l193 6q27 0 43.5 -12.5t16.5 -34.5t-16.5 -34.5t-43.5 -12.5l-144 6q-4 -97 -4 -296l6 -324q0 -26 -14 -42t-36.5 -16t-37 16t-14.5 42l6 324q0 174 -5 296l-149 -6q-27 0 -43.5 12.5t-16.5 34.5t16.5 34.5t43.5 12.5zM440 -133q0 -42 -37.5 -69.5
t-89.5 -27.5t-83.5 24.5t-31.5 50.5q0 9 7.5 17t19 8t37 -12t44.5 -12t31 7t12 16.5t-14.5 20t-32 20.5t-32 27.5t-14.5 38.5v43h81v-28q0 -15 16 -30t35.5 -25.5t35.5 -28.5t16 -40z" />
    <glyph glyph-name="uni0163" unicode="&#x163;" horiz-adv-x="360" 
d="M102 756l199 -6l193 6q27 0 43.5 -12.5t16.5 -34.5t-16.5 -34.5t-43.5 -12.5l-144 6q-4 -97 -4 -296l6 -324q0 -26 -14 -42t-36.5 -16t-37 16t-14.5 42l6 324q0 174 -5 296l-149 -6q-27 0 -43.5 12.5t-16.5 34.5t16.5 34.5t43.5 12.5zM381 -133q0 -42 -37.5 -69.5
t-89.5 -27.5t-83.5 24.5t-31.5 50.5q0 9 7.5 17t19 8t37 -12t44.5 -12t31 7t12 16.5t-14.5 20t-32 20.5t-32 27.5t-14.5 38.5v43h81v-28q0 -15 16 -30t35.5 -25.5t35.5 -28.5t16 -40z" />
    <glyph glyph-name="Tcaron" unicode="&#x164;" horiz-adv-x="556" 
d="M143 896q64 -77 78 -77q16 0 85 80q22 26 41 26t30 -10.5t11 -28.5t-26.5 -40t-52.5 -52t-45.5 -46t-41 -16t-40.5 16t-45.5 46t-52.5 51.5t-26 40t11 29t23 10.5t17.5 -2t9.5 -4t9 -7l7 -7q3 -3 8 -9zM102 756l199 -6l193 6q27 0 43.5 -12.5t16.5 -34.5t-16.5 -34.5
t-43.5 -12.5l-144 6q-4 -97 -4 -296l6 -324q0 -26 -14 -42t-36.5 -16t-37 16t-14.5 42l6 324q0 174 -5 296l-149 -6q-27 0 -43.5 12.5t-16.5 34.5t16.5 34.5t43.5 12.5z" />
    <glyph glyph-name="tcaron" unicode="&#x165;" horiz-adv-x="360" 
d="M246 612q11 32 20.5 77.5t12.5 70.5h87v-9q-6 -26 -27 -71t-45 -80h-48v12zM102 756l199 -6l193 6q27 0 43.5 -12.5t16.5 -34.5t-16.5 -34.5t-43.5 -12.5l-144 6q-4 -97 -4 -296l6 -324q0 -26 -14 -42t-36.5 -16t-37 16t-14.5 42l6 324q0 174 -5 296l-149 -6
q-27 0 -43.5 12.5t-16.5 34.5t16.5 34.5t43.5 12.5z" />
    <glyph glyph-name="Tbar" unicode="&#x166;" horiz-adv-x="556" 
d="M232 399v235h-222v80h535v-80h-223v-235h148v-74h-148v-325h-90v325h-149v74h149z" />
    <glyph glyph-name="tbar" unicode="&#x167;" horiz-adv-x="360" 
d="M266 62q42 0 73 11v-67q-13 -6 -39 -11t-54 -5q-154 0 -154 171v119h-68v66h68v122h-76v42l77 35l35 114h52v-123h155v-68h-155v-122h146v-66h-146v-114q0 -52 21 -78t65 -26z" />
    <glyph glyph-name="Utilde" unicode="&#x168;" horiz-adv-x="730" 
d="M538 830q0 -36 -31 -63t-70 -27t-93 31q-44 22 -66 22t-46.5 -29.5t-45 -29.5t-33 12.5t-12.5 30.5q0 36 37 64.5t86 28.5t102 -27.5t70.5 -27.5t38 25t34 25t21.5 -10.5t8 -24.5zM569 61.5q-69 -76.5 -197.5 -76.5t-197.5 77t-71 187q-1 52 -1 129t-1.5 147.5t-3 113
t-1.5 50.5q0 71 51 71t51 -71q0 -8 -2 -63q-4 -167 -4 -260.5t7.5 -135.5t26.5 -80q37 -78 145 -78q153 0 175 177q5 35 5 94.5t-1.5 143t-3 139t-1.5 63.5q0 71 51 71t51 -71q0 -8 -1 -51q-5 -127 -5 -232t-1 -157q-2 -111 -71 -187.5z" />
    <glyph glyph-name="utilde" unicode="&#x169;" horiz-adv-x="618" 
d="M481 665q0 -36 -31 -63t-70 -27t-93 31q-44 22 -66 22t-46.5 -29.5t-45 -29.5t-33 12.5t-12.5 30.5q0 36 37 64.5t86 28.5t102 -27.5t70.5 -27.5t38 25t34 25t21.5 -10.5t8 -24.5zM202 646l-11 -332q0 -109 37.5 -175.5t114 -66.5t147.5 89.5t84 198.5l-4 328q0 69 51 69
q62 0 62 -102t-27 -295q0 -110 14.5 -186.5t35.5 -85.5q8 -4 19.5 -5.5t16.5 -4.5t5 -11q0 -37 -22 -59.5t-56 -22.5q-85 0 -85 173q-100 -173 -252 -173q-81 0 -136 45q-100 84 -100 267l8 239q0 54 -11 100t-11 66.5t16 37.5t42 17q62 0 62 -111z" />
    <glyph glyph-name="Umacron" unicode="&#x16a;" horiz-adv-x="730" 
d="M217 842h297v-71h-297v71zM569 61.5q-69 -76.5 -197.5 -76.5t-197.5 77t-71 187q-1 52 -1 129t-1.5 147.5t-3 113t-1.5 50.5q0 71 51 71t51 -71q0 -8 -2 -63q-4 -167 -4 -260.5t7.5 -135.5t26.5 -80q37 -78 145 -78q153 0 175 177q5 35 5 94.5t-1.5 143t-3 139t-1.5 63.5
q0 71 51 71t51 -71q0 -8 -1 -51q-5 -127 -5 -232t-1 -157q-2 -111 -71 -187.5z" />
    <glyph glyph-name="umacron" unicode="&#x16b;" horiz-adv-x="618" 
d="M159 677h297v-71h-297v71zM202 646l-11 -332q0 -109 37.5 -175.5t114 -66.5t147.5 89.5t84 198.5l-4 328q0 69 51 69q62 0 62 -102t-27 -295q0 -110 14.5 -186.5t35.5 -85.5q8 -4 19.5 -5.5t16.5 -4.5t5 -11q0 -37 -22 -59.5t-56 -22.5q-85 0 -85 173
q-100 -173 -252 -173q-81 0 -136 45q-100 84 -100 267l8 239q0 54 -11 100t-11 66.5t16 37.5t42 17q62 0 62 -111z" />
    <glyph glyph-name="Ubreve" unicode="&#x16c;" horiz-adv-x="730" 
d="M401 927q39 0 39 -42.5t-46 -86t-117 -43.5t-116.5 43.5t-45.5 86t38 42.5q17 0 27 -10t20.5 -29.5t17.5 -28.5t23 -18.5t36 -9.5t36.5 9.5t23 18.5t17.5 27q20 41 47 41zM569 61.5q-69 -76.5 -197.5 -76.5t-197.5 77t-71 187q-1 52 -1 129t-1.5 147.5t-3 113t-1.5 50.5
q0 71 51 71t51 -71q0 -8 -2 -63q-4 -167 -4 -260.5t7.5 -135.5t26.5 -80q37 -78 145 -78q153 0 175 177q5 35 5 94.5t-1.5 143t-3 139t-1.5 63.5q0 71 51 71t51 -71q0 -8 -1 -51q-5 -127 -5 -232t-1 -157q-2 -111 -71 -187.5z" />
    <glyph glyph-name="ubreve" unicode="&#x16d;" horiz-adv-x="618" 
d="M343 762q39 0 39 -42.5t-46 -86t-117 -43.5t-116.5 43.5t-45.5 86t38 42.5q17 0 27 -10t20.5 -29.5t17.5 -28.5t23 -18.5t36 -9.5t36.5 9.5t23 18.5t17.5 27q20 41 47 41zM202 646l-11 -332q0 -109 37.5 -175.5t114 -66.5t147.5 89.5t84 198.5l-4 328q0 69 51 69
q62 0 62 -102t-27 -295q0 -110 14.5 -186.5t35.5 -85.5q8 -4 19.5 -5.5t16.5 -4.5t5 -11q0 -37 -22 -59.5t-56 -22.5q-85 0 -85 173q-100 -173 -252 -173q-81 0 -136 45q-100 84 -100 267l8 239q0 54 -11 100t-11 66.5t16 37.5t42 17q62 0 62 -111z" />
    <glyph glyph-name="Uring" unicode="&#x16e;" horiz-adv-x="730" 
d="M258.5 901q29.5 -30 29.5 -72.5t-28.5 -70.5t-74.5 -28t-74.5 28t-28.5 71t29.5 72.5t73.5 29.5t73.5 -30zM223 829q0 15 -12 28t-26.5 13t-26 -12.5t-11.5 -28t11 -27.5t26.5 -12t27 12t11.5 27zM569 61.5q-69 -76.5 -197.5 -76.5t-197.5 77t-71 187q-1 52 -1 129
t-1.5 147.5t-3 113t-1.5 50.5q0 71 51 71t51 -71q0 -8 -2 -63q-4 -167 -4 -260.5t7.5 -135.5t26.5 -80q37 -78 145 -78q153 0 175 177q5 35 5 94.5t-1.5 143t-3 139t-1.5 63.5q0 71 51 71t51 -71q0 -8 -1 -51q-5 -127 -5 -232t-1 -157q-2 -111 -71 -187.5z" />
    <glyph glyph-name="uring" unicode="&#x16f;" horiz-adv-x="618" 
d="M200.5 736q29.5 -30 29.5 -72.5t-28.5 -70.5t-74.5 -28t-74.5 28t-28.5 71t29.5 72.5t73.5 29.5t73.5 -30zM165 664q0 15 -12 28t-26.5 13t-26 -12.5t-11.5 -28t11 -27.5t26.5 -12t27 12t11.5 27zM202 646l-11 -332q0 -109 37.5 -175.5t114 -66.5t147.5 89.5t84 198.5
l-4 328q0 69 51 69q62 0 62 -102t-27 -295q0 -110 14.5 -186.5t35.5 -85.5q8 -4 19.5 -5.5t16.5 -4.5t5 -11q0 -37 -22 -59.5t-56 -22.5q-85 0 -85 173q-100 -173 -252 -173q-81 0 -136 45q-100 84 -100 267l8 239q0 54 -11 100t-11 66.5t16 37.5t42 17q62 0 62 -111z" />
    <glyph glyph-name="Uhungarumlaut" unicode="&#x170;" horiz-adv-x="730" 
d="M221 783q17 22 42.5 65.5t44.5 82.5h96v-10q-16 -27 -58.5 -75t-74.5 -75h-50v12zM397 783q23 32 49 76.5t38 71.5h96v-10q-16 -27 -58.5 -75t-74.5 -75h-50v12zM569 61.5q-69 -76.5 -197.5 -76.5t-197.5 77t-71 187q-1 52 -1 129t-1.5 147.5t-3 113t-1.5 50.5
q0 71 51 71t51 -71q0 -8 -2 -63q-4 -167 -4 -260.5t7.5 -135.5t26.5 -80q37 -78 145 -78q153 0 175 177q5 35 5 94.5t-1.5 143t-3 139t-1.5 63.5q0 71 51 71t51 -71q0 -8 -1 -51q-5 -127 -5 -232t-1 -157q-2 -111 -71 -187.5z" />
    <glyph glyph-name="uhungarumlaut" unicode="&#x171;" horiz-adv-x="618" 
d="M164 618q17 22 42.5 65.5t44.5 82.5h96v-10q-16 -27 -58.5 -75t-74.5 -75h-50v12zM340 618q23 32 49 76.5t38 71.5h96v-10q-16 -27 -58.5 -75t-74.5 -75h-50v12zM202 646l-11 -332q0 -109 37.5 -175.5t114 -66.5t147.5 89.5t84 198.5l-4 328q0 69 51 69q62 0 62 -102
t-27 -295q0 -110 14.5 -186.5t35.5 -85.5q8 -4 19.5 -5.5t16.5 -4.5t5 -11q0 -37 -22 -59.5t-56 -22.5q-85 0 -85 173q-100 -173 -252 -173q-81 0 -136 45q-100 84 -100 267l8 239q0 54 -11 100t-11 66.5t16 37.5t42 17q62 0 62 -111z" />
    <glyph glyph-name="Uogonek" unicode="&#x172;" horiz-adv-x="730" 
d="M586 -154q0 -27 -34 -51.5t-83.5 -24.5t-86 29.5t-36.5 78.5q0 77 100 125h77q-93 -66 -93 -118q0 -18 14 -27.5t33.5 -9.5t45 12t37.5 12t19 -8.5t7 -17.5zM569 61.5q-69 -76.5 -197.5 -76.5t-197.5 77t-71 187q-1 52 -1 129t-1.5 147.5t-3 113t-1.5 50.5q0 71 51 71
t51 -71q0 -8 -2 -63q-4 -167 -4 -260.5t7.5 -135.5t26.5 -80q37 -78 145 -78q153 0 175 177q5 35 5 94.5t-1.5 143t-3 139t-1.5 63.5q0 71 51 71t51 -71q0 -8 -1 -51q-5 -127 -5 -232t-1 -157q-2 -111 -71 -187.5z" />
    <glyph glyph-name="uogonek" unicode="&#x173;" horiz-adv-x="618" 
d="M688 -154q0 -27 -34 -51.5t-83.5 -24.5t-86 29.5t-36.5 78.5q0 77 100 125h77q-93 -66 -93 -118q0 -18 14 -27.5t33.5 -9.5t45 12t37.5 12t19 -8.5t7 -17.5zM202 646l-11 -332q0 -109 37.5 -175.5t114 -66.5t147.5 89.5t84 198.5l-4 328q0 69 51 69q62 0 62 -102
t-27 -295q0 -110 14.5 -186.5t35.5 -85.5q8 -4 19.5 -5.5t16.5 -4.5t5 -11q0 -37 -22 -59.5t-56 -22.5q-85 0 -85 173q-100 -173 -252 -173q-81 0 -136 45q-100 84 -100 267l8 239q0 54 -11 100t-11 66.5t16 37.5t42 17q62 0 62 -111z" />
    <glyph glyph-name="Wcircumflex" unicode="&#x174;" horiz-adv-x="930" 
d="M490 757q-69 81 -83 81q-16 0 -80 -77q-5 -6 -8 -8l-7 -8q-13 -13 -30.5 -13t-28.5 10.5t-11 29t26 40t52.5 51.5t45.5 46t40.5 16t41 -16t45.5 -46t52.5 -52t26.5 -40t-11 -28.5t-24 -10.5t-22 5q-13 7 -25 20zM714 38q-17 -48 -60.5 -48t-60.5 45q-13 36 -62.5 202.5
t-51.5 166.5t-23.5 -73t-48.5 -167t-37 -126q-15 -48 -59.5 -48t-60.5 45q-5 13 -23 71.5t-43.5 139.5t-37.5 118.5t-29 89t-28 85t-23 72.5q-24 78 -24 100t13 35.5t31 13.5q40 0 54 -45q62 -197 118 -396.5t57 -199.5q4 0 49.5 157t59.5 219q5 22 20.5 38.5t37.5 16.5
q45 0 59 -51q111 -380 119 -380l35 128q35 128 76 280t51 188q12 45 45 45q23 0 35 -14.5t12 -36.5t-47 -176t-77 -253q-58 -187 -76 -242z" />
    <glyph glyph-name="wcircumflex" unicode="&#x175;" horiz-adv-x="786" 
d="M420 592q-69 81 -83 81q-16 0 -80 -77q-5 -6 -8 -8l-7 -8q-13 -13 -30.5 -13t-28.5 10.5t-11 29t26 40t52.5 51.5t45.5 46t40.5 16t41 -16t45.5 -46t52.5 -52t26.5 -40t-11 -28.5t-24 -10.5t-22 5q-13 7 -25 20zM714 38q-17 -48 -60.5 -48t-60.5 45q-13 36 -62.5 202.5
t-51.5 166.5t-23.5 -73t-48.5 -167t-37 -126q-15 -48 -59.5 -48t-60.5 45q-5 13 -23 71.5t-43.5 139.5t-37.5 118.5t-29 89t-28 85t-23 72.5q-24 78 -24 100t13 35.5t31 13.5q40 0 54 -45q62 -197 118 -396.5t57 -199.5q4 0 49.5 157t59.5 219q5 22 20.5 38.5t37.5 16.5
q45 0 59 -51q111 -380 119 -380l35 128q35 128 76 280t51 188q12 45 45 45q23 0 35 -14.5t12 -36.5t-47 -176t-77 -253q-58 -187 -76 -242z" />
    <glyph glyph-name="Ycircumflex" unicode="&#x176;" horiz-adv-x="565" 
d="M310 757q-69 81 -83 81q-16 0 -80 -77q-5 -6 -8 -8l-7 -8q-13 -13 -30.5 -13t-28.5 10.5t-11 29t26 40t52.5 51.5t45.5 46t40.5 16t41 -16t45.5 -46t52.5 -52t26.5 -40t-11 -28.5t-24 -10.5t-22 5q-13 7 -25 20zM347 303q0 -80 3 -161l2 -81q0 -71 -51 -71t-51 71l2 83
q3 83 3 160q-199 342 -212 369t-13 44t12 30t34.5 13t38.5 -21.5t74.5 -135.5t116.5 -202q24 36 84.5 148t70 128.5t13.5 24t11.5 19.5t12 17.5t10.5 11.5q10 10 28 10t29.5 -12t11.5 -29t-14.5 -44.5t-63 -110.5t-62.5 -106.5t-39.5 -68t-50.5 -86.5z" />
    <glyph glyph-name="ycircumflex" unicode="&#x177;" horiz-adv-x="509" 
d="M285 592q-69 81 -83 81q-16 0 -80 -77q-5 -6 -8 -8l-7 -8q-13 -13 -30.5 -13t-28.5 10.5t-11 29t26 40t52.5 51.5t45.5 46t40.5 16t41 -16t45.5 -46t52.5 -52t26.5 -40t-11 -28.5t-24 -10.5t-22 5q-13 7 -25 20zM347 303q0 -80 3 -161l2 -81q0 -71 -51 -71t-51 71l2 83
q3 83 3 160q-199 342 -212 369t-13 44t12 30t34.5 13t38.5 -21.5t74.5 -135.5t116.5 -202q24 36 84.5 148t70 128.5t13.5 24t11.5 19.5t12 17.5t10.5 11.5q10 10 28 10t29.5 -12t11.5 -29t-14.5 -44.5t-63 -110.5t-62.5 -106.5t-39.5 -68t-50.5 -86.5z" />
    <glyph glyph-name="Ydieresis" unicode="&#x178;" horiz-adv-x="565" 
d="M347 303q0 -80 3 -161l2 -81q0 -71 -51 -71t-51 71l2 83q3 83 3 160q-199 342 -212 369t-13 44t12 30t34.5 13t38.5 -21.5t74.5 -135.5t116.5 -202q24 36 84.5 148t70 128.5t13.5 24t11.5 19.5t12 17.5t10.5 11.5q10 10 28 10t29.5 -12t11.5 -29t-14.5 -44.5t-63 -110.5
t-62.5 -106.5t-39.5 -68t-50.5 -86.5zM372.5 855q13.5 -17 13.5 -43.5t-17 -47.5t-41.5 -21t-38.5 18t-14 44t16.5 46.5t42 20.5t39 -17zM177.5 855q13.5 -17 13.5 -43.5t-17 -47.5t-41.5 -21t-38.5 18t-14 44t16.5 46.5t42 20.5t39 -17z" />
    <glyph glyph-name="Zacute" unicode="&#x179;" horiz-adv-x="571" 
d="M295 750l203 5q57 0 57 -41q0 -25 -20.5 -61t-79 -122.5t-104.5 -162.5l-171 -281q57 -5 127.5 -5t132.5 3.5t79.5 3.5t34 -12.5t16.5 -34.5t-16.5 -34.5t-43.5 -12.5l-175 5l-229 -5q-57 0 -57 43q0 24 24.5 65.5t87 134.5t112.5 175l152 251q-45 4 -109 4t-126 -3.5
t-79.5 -3.5t-34 12.5t-16.5 34.5t16.5 34.5t43.5 12.5zM277 861q0 -44 -47.5 -88.5t-79.5 -44.5q-16 0 -24.5 8t-8.5 20t24 41.5t33 49.5t14.5 29.5t18 19t30 9.5t29 -13.5t11.5 -30.5z" />
    <glyph glyph-name="zacute" unicode="&#x17a;" horiz-adv-x="470" 
d="M295 750l203 5q57 0 57 -41q0 -25 -20.5 -61t-79 -122.5t-104.5 -162.5l-171 -281q57 -5 127.5 -5t132.5 3.5t79.5 3.5t34 -12.5t16.5 -34.5t-16.5 -34.5t-43.5 -12.5l-175 5l-229 -5q-57 0 -57 43q0 24 24.5 65.5t87 134.5t112.5 175l152 251q-45 4 -109 4t-126 -3.5
t-79.5 -3.5t-34 12.5t-16.5 34.5t16.5 34.5t43.5 12.5zM237 696q0 -44 -47.5 -88.5t-79.5 -44.5q-16 0 -24.5 8t-8.5 20t24 41.5t33 49.5t14.5 29.5t18 19t30 9.5t29 -13.5t11.5 -30.5z" />
    <glyph glyph-name="Zdotaccent" unicode="&#x17b;" horiz-adv-x="571" 
d="M317.5 908q13.5 -17 13.5 -43t-17 -47.5t-41.5 -21.5t-38.5 18t-14 44t16.5 46.5t42 20.5t39 -17zM295 750l203 5q57 0 57 -41q0 -25 -20.5 -61t-79 -122.5t-104.5 -162.5l-171 -281q57 -5 127.5 -5t132.5 3.5t79.5 3.5t34 -12.5t16.5 -34.5t-16.5 -34.5t-43.5 -12.5
l-175 5l-229 -5q-57 0 -57 43q0 24 24.5 65.5t87 134.5t112.5 175l152 251q-45 4 -109 4t-126 -3.5t-79.5 -3.5t-34 12.5t-16.5 34.5t16.5 34.5t43.5 12.5z" />
    <glyph glyph-name="zdotaccent" unicode="&#x17c;" horiz-adv-x="470" 
d="M269.5 743q13.5 -17 13.5 -43t-17 -47.5t-41.5 -21.5t-38.5 18t-14 44t16.5 46.5t42 20.5t39 -17zM295 750l203 5q57 0 57 -41q0 -25 -20.5 -61t-79 -122.5t-104.5 -162.5l-171 -281q57 -5 127.5 -5t132.5 3.5t79.5 3.5t34 -12.5t16.5 -34.5t-16.5 -34.5t-43.5 -12.5
l-175 5l-229 -5q-57 0 -57 43q0 24 24.5 65.5t87 134.5t112.5 175l152 251q-45 4 -109 4t-126 -3.5t-79.5 -3.5t-34 12.5t-16.5 34.5t16.5 34.5t43.5 12.5z" />
    <glyph glyph-name="Zcaron" unicode="&#x17d;" horiz-adv-x="571" 
d="M152 896q64 -77 78 -77q16 0 85 80q22 26 41 26t30 -10.5t11 -28.5t-26.5 -40t-52.5 -52t-45.5 -46t-41 -16t-40.5 16t-45.5 46t-52.5 51.5t-26 40t11 29t23 10.5t17.5 -2t9.5 -4t9 -7l7 -7q3 -3 8 -9zM295 750l203 5q57 0 57 -41q0 -25 -20.5 -61t-79 -122.5
t-104.5 -162.5l-171 -281q57 -5 127.5 -5t132.5 3.5t79.5 3.5t34 -12.5t16.5 -34.5t-16.5 -34.5t-43.5 -12.5l-175 5l-229 -5q-57 0 -57 43q0 24 24.5 65.5t87 134.5t112.5 175l152 251q-45 4 -109 4t-126 -3.5t-79.5 -3.5t-34 12.5t-16.5 34.5t16.5 34.5t43.5 12.5z" />
    <glyph glyph-name="zcaron" unicode="&#x17e;" horiz-adv-x="470" 
d="M101 731q64 -77 78 -77q16 0 85 80q22 26 41 26t30 -10.5t11 -28.5t-26.5 -40t-52.5 -52t-45.5 -46t-41 -16t-40.5 16t-45.5 46t-52.5 51.5t-26 40t11 29t23 10.5t17.5 -2t9.5 -4t9 -7l7 -7q3 -3 8 -9zM295 750l203 5q57 0 57 -41q0 -25 -20.5 -61t-79 -122.5
t-104.5 -162.5l-171 -281q57 -5 127.5 -5t132.5 3.5t79.5 3.5t34 -12.5t16.5 -34.5t-16.5 -34.5t-43.5 -12.5l-175 5l-229 -5q-57 0 -57 43q0 24 24.5 65.5t87 134.5t112.5 175l152 251q-45 4 -109 4t-126 -3.5t-79.5 -3.5t-34 12.5t-16.5 34.5t16.5 34.5t43.5 12.5z" />
    <glyph glyph-name="longs" unicode="&#x17f;" horiz-adv-x="326" 
d="M261 692q-46 0 -67 -28.5t-21 -86.5v-577h-88v577q0 188 177 188q49 0 100 -19l-23 -69q-44 15 -78 15z" />
    <glyph glyph-name="uni0180" unicode="&#x180;" horiz-adv-x="615" 
d="M339 545q106 0 163.5 -73t57.5 -204q0 -133 -58.5 -205.5t-162.5 -72.5q-54 0 -96.5 19.5t-69.5 58.5h-7q-15 -59 -18 -68h-63v605h-76v66h76v89h88v-89h213v-66h-213v-30q0 -55 -5 -110h5q54 80 166 80zM324 472q-81 0 -116 -46t-35 -155v-4q0 -110 36 -157t117 -47
q72 0 107.5 53t35.5 153q0 102 -35.5 152.5t-109.5 50.5z" />
    <glyph glyph-name="uni0181" unicode="&#x181;" horiz-adv-x="729" 
d="M151 637q-61 0 -61 -50q0 -30 10 -54h-79q-4 10 -7.5 26.5t-3.5 28.5q0 65 34.5 95.5t106.5 30.5h230q144 0 207.5 -43t63.5 -134q0 -63 -34.5 -104.5t-101.5 -53.5v-5q82 -14 121 -57t39 -114q0 -96 -66 -149.5t-182 -53.5h-251v637h-26zM267 410h132q84 0 122 27t38 90
q0 59 -41.5 84.5t-132.5 25.5h-118v-227zM267 335v-259h144q86 0 127.5 33.5t41.5 100.5q0 64 -44 94.5t-132 30.5h-137z" />
    <glyph glyph-name="uni0182" unicode="&#x182;" horiz-adv-x="615" 
d="M564 209q0 -105 -63.5 -157t-194.5 -52h-209v714h424v-79h-334v-223h106q137 0 204 -48.5t67 -154.5zM187 77h110q92 0 133 31t41 101q0 68 -43 96.5t-146 28.5h-95v-257z" />
    <glyph glyph-name="uni0183" unicode="&#x183;" horiz-adv-x="615" 
d="M339 545q106 0 163.5 -73t57.5 -204q0 -133 -58.5 -205.5t-162.5 -72.5q-54 0 -96.5 19.5t-69.5 58.5h-7q-15 -59 -18 -68h-63v760h421v-74h-333v-111q0 -55 -5 -110h5q54 80 166 80zM324 472q-81 0 -116 -46t-35 -155v-4q0 -110 36 -157t117 -47q72 0 107.5 53t35.5 153
q0 102 -35.5 152.5t-109.5 50.5z" />
    <glyph glyph-name="uni0184" unicode="&#x184;" horiz-adv-x="634" 
d="M180 210q0 -77 37.5 -110t122.5 -33q80 0 115.5 35.5t35.5 102.5q0 69 -48 99t-140 30h-123v-124zM90 714h90v-302h134q129 0 199.5 -53t70.5 -154t-63.5 -158t-179.5 -57q-251 0 -251 220v504z" />
    <glyph glyph-name="uni0185" unicode="&#x185;" horiz-adv-x="611" 
d="M322 -10q-115 0 -177.5 72.5t-62.5 204.5v493h88v-185q0 -55 -5 -110h5q54 80 166 80q106 0 163.5 -73t57.5 -204q0 -134 -61 -206t-174 -72zM170 265q0 -96 40.5 -149t112.5 -53t107.5 53t35.5 153q0 102 -35.5 152.5t-109.5 50.5q-81 0 -116 -46t-35 -155v-6z" />
    <glyph glyph-name="uni0186" unicode="&#x186;" horiz-adv-x="631" 
d="M243 724q158 0 243 -96t85 -272q0 -110 -39.5 -192.5t-114.5 -128t-174 -45.5q-55 0 -98 6.5t-86 22.5v78q94 -28 170 -28q115 0 181 77t66 211q0 137 -63.5 212.5t-183.5 75.5q-77 0 -162 -39l-36 76q84 42 212 42z" />
    <glyph glyph-name="uni0187" unicode="&#x187;" horiz-adv-x="631" 
d="M403 645q-115 0 -181 -77t-66 -211q0 -138 64 -213t182 -75q76 0 171 28v-78q-45 -17 -87 -23t-97 -6q-158 0 -243 96t-85 272q0 110 41 193t118.5 128t183.5 45q61 0 117 -14v14q0 64 27 99t88 35q30 0 60 -13v-72q-24 10 -52 10q-47 0 -47 -48v-51l-36 -78
q-33 15 -71.5 27t-86.5 12z" />
    <glyph glyph-name="uni0188" unicode="&#x188;" horiz-adv-x="502" 
d="M300 -10q-116 0 -180.5 71t-64.5 204q0 135 65.5 208t185.5 73q27 0 65 -6v91q0 64 26.5 99t88.5 35q29 0 60 -13v-73q-23 10 -52 10q-47 0 -47 -48v-124l-27 -73q-68 25 -116 25q-81 0 -119.5 -51t-38.5 -152q0 -97 38.5 -148.5t114.5 -51.5q71 0 139 31v-78
q-55 -29 -138 -29z" />
    <glyph glyph-name="uni0189" unicode="&#x189;" horiz-adv-x="729" 
d="M138 411l-5 225q-44 4 -44 41.5t79 62t163.5 24.5t157.5 -33t117 -89q91 -114 91 -270q0 -152 -87 -264q-43 -56 -114 -89.5t-169 -33.5t-170 25t-72 64q0 37 50 37l3 223q-20 -1 -55.5 -1t-49 11t-13.5 29t13.5 29t39 11t65.5 -2zM232 661q-3 -55 -3 -250q44 2 72 2
t41.5 -11t13.5 -29t-13.5 -29t-41.5 -11t-72 2q0 -165 5 -250q36 -13 101 -13t117.5 26t83.5 70q65 90 65 211.5t-71.5 210t-206.5 88.5q-57 0 -91 -17z" />
    <glyph glyph-name="uni018A" unicode="&#x18a;" horiz-adv-x="810" 
d="M654 361q0 136 -67 206t-203 70h-117v-560h97q290 0 290 284zM397 714q168 0 260 -92.5t92 -257.5q0 -177 -96.5 -270.5t-276.5 -93.5h-199v637h-26q-61 0 -61 -50q0 -30 10 -54h-79q-4 10 -7.5 26.5t-3.5 28.5q0 65 34.5 95.5t106.5 30.5h246z" />
    <glyph glyph-name="uni018B" unicode="&#x18b;" horiz-adv-x="615" 
d="M428 335h-82q-106 0 -154 -32t-48 -101q0 -63 44 -94t139 -31h101v258zM518 714v-714h-199q-268 0 -268 198q0 103 73.5 158.5t211.5 55.5h92v223h-334v79h424z" />
    <glyph glyph-name="uni018C" unicode="&#x18c;" horiz-adv-x="615" 
d="M289 63q80 0 117 43.5t37 143.5v16q0 112 -37.5 159.5t-117.5 47.5q-68 0 -105 -54t-37 -154t37 -151t106 -51zM530 0h-71l-13 72h-4q-56 -82 -167 -82q-104 0 -162 72.5t-58 204.5q0 131 58 205t163 74q108 0 166 -79h6q-1 10 -3.5 39.5t-2.5 39.5v140h-333v74h421v-760
z" />
    <glyph glyph-name="uni018D" unicode="&#x18d;" horiz-adv-x="604" 
d="M341 294q66 -38 95 -77t29 -87q0 -64 -48 -102t-132 -38q-51 0 -97 11.5t-109 42.5l38 69q37 -21 79 -36t93 -15q40 0 63.5 18.5t23.5 50.5q0 34 -26.5 60t-107.5 70q-104 57 -146 117t-42 136q0 115 66 180.5t184 65.5q112 0 179 -60.5t67 -163.5q0 -87 -54 -149.5
t-155 -92.5zM145 515q0 -62 30 -105.5t96 -77.5q92 22 139.5 74t47.5 131q0 67 -41.5 108.5t-112.5 41.5q-77 0 -118 -44.5t-41 -127.5z" />
    <glyph glyph-name="uni018E" unicode="&#x18e;" horiz-adv-x="556" 
d="M60 79h309v255h-291v78h291v223h-309v79h399v-714h-399v79z" />
    <glyph glyph-name="uni018F" unicode="&#x18f;" horiz-adv-x="738" 
d="M332 646q-110 0 -228 -41v82q61 21 114 29.5t116 8.5q162 0 252.5 -97.5t90.5 -271.5q0 -171 -85 -268.5t-237 -97.5q-147 0 -221.5 92t-74.5 275v34h523q-8 126 -71 190.5t-179 64.5zM355 69q100 0 159.5 63.5t67.5 179.5h-427q0 -125 49 -184t151 -59z" />
    <glyph glyph-name="uni0190" unicode="&#x190;" horiz-adv-x="587" 
d="M87 547q0 82 60.5 129.5t166.5 47.5q64 0 124 -18.5t109 -55.5l-43 -61q-52 36 -94 48.5t-94 12.5q-63 0 -99.5 -30.5t-36.5 -81.5q0 -60 48 -95.5t145 -35.5h97v-75h-102q-110 0 -165 -33t-55 -97q0 -67 48.5 -102.5t139.5 -35.5q105 0 214 52v-82q-90 -44 -219 -44
q-135 0 -206 52t-71 153q0 76 46.5 121t137.5 57v4q-72 12 -111.5 56.5t-39.5 113.5z" />
    <glyph glyph-name="uni0191" unicode="&#x191;" horiz-adv-x="519" 
d="M45 -240q-32 0 -56 13v76q21 -10 45 -10q35 0 49 20t14 62v793h399v-79h-309v-253h290v-79h-290v-386q0 -157 -142 -157z" />
    <glyph glyph-name="florin" unicode="&#x192;" horiz-adv-x="571" 
d="M161 -240q-36 0 -68 9v73q34 -9 63 -9q45 0 63.5 23.5t18.5 79.5v470h-105v41l105 30v65q0 94 39.5 138t129.5 44q45 0 103 -21l-22 -68q-50 16 -78 16q-46 0 -65 -24.5t-19 -83.5v-69h135v-68h-133v-470q0 -91 -40 -133.5t-127 -42.5z" />
    <glyph glyph-name="uni0193" unicode="&#x193;" horiz-adv-x="728" 
d="M407 377h247v-350q-57 -18 -115.5 -27.5t-135.5 -9.5q-163 0 -252.5 97t-89.5 270q0 112 44.5 195.5t128 127.5t197.5 44q71 0 137 -17v17q0 64 27 99t88 35q29 0 60 -13v-72q-24 10 -52 10q-47 0 -47 -48v-53l-34 -78q-94 41 -184 41q-127 0 -199 -77t-72 -211
q0 -142 68.5 -215.5t200.5 -73.5q72 0 140 17v212h-157v80z" />
    <glyph glyph-name="uni0194" unicode="&#x194;" horiz-adv-x="569" 
d="M334 108q33 -65 50 -121t17 -94q0 -59 -32 -96t-84 -37q-54 0 -85 37.5t-31 95.5q0 78 67 214l-236 607h94q89 -237 136.5 -362t54.5 -167q10 51 50 158l140 371h95zM319 -105q0 26 -8.5 62t-25.5 68q-19 -38 -26.5 -72t-7.5 -56q0 -31 9.5 -45t24.5 -14q34 0 34 57z" />
    <glyph glyph-name="uni0195" unicode="&#x195;" horiz-adv-x="934" 
d="M639 63q67 0 96.5 36t29.5 113v324h88v-327q0 -114 -51 -166.5t-163 -52.5q-110 0 -162 48.5t-52 147.5v157q0 65 -26 97t-83 32q-74 0 -108.5 -45.5t-34.5 -149.5v-277h-88v760h88v-223q0 -44 -5 -75h6q24 42 66 62.5t90 20.5q91 0 137 -46.5t46 -149.5v-157
q0 -65 30.5 -97t95.5 -32z" />
    <glyph glyph-name="uni0196" unicode="&#x196;" horiz-adv-x="348" 
d="M179 714v-549q0 -48 18 -72t59 -24q21 0 44 3.5t38 7.5v-74q-13 -6 -40 -11t-55 -5q-80 0 -116.5 41.5t-36.5 125.5v557h89z" />
    <glyph glyph-name="uni0197" unicode="&#x197;" horiz-adv-x="338" 
d="M298 0h-258v52l84 19v256h-90v78h90v237l-84 20v52h258v-52l-84 -20v-237h90v-78h-90v-256l84 -19v-52z" />
    <glyph glyph-name="uni0198" unicode="&#x198;" horiz-adv-x="619" 
d="M327 405l292 -405h-106q-30 40 -121 172q-71 103 -126 170l-79 -77v-265h-90v714h90v-360q28 35 60 72q21 24 185 225q29 38 54.5 53.5t66.5 15.5q30 0 50 -8v-70q-21 3 -44 3q-17 0 -31.5 -10t-36.5 -36z" />
    <glyph glyph-name="uni0199" unicode="&#x199;" horiz-adv-x="534" 
d="M172 363l-4 -87h4l30 38l34 41l171 181h103l-217 -229l232 -307h-106l-186 250l-61 -53v-197h-87v625q0 140 121 140q33 0 65 -13v-73q-23 10 -52 10q-23 0 -35 -13t-12 -45v-268z" />
    <glyph glyph-name="uni019A" unicode="&#x19a;" horiz-adv-x="257" 
d="M173 420h70v-66h-70v-354h-88v354h-70v66h70v340h88v-340z" />
    <glyph glyph-name="uni019B" unicode="&#x19b;" horiz-adv-x="541" 
d="M-6 0l231 526l-23 64l-106 -32l-19 63l99 30q-13 22 -29.5 32t-45.5 10q-30 0 -56 -6v71q33 8 66 8q53 0 87 -21t59 -69l109 33l19 -63l-102 -32l179 -498q10 -28 21.5 -41t28.5 -13q12 0 30 5v-65q-24 -12 -57 -12q-36 0 -58 18t-38 63l-73 205q-42 119 -50 159h-4
q-16 -62 -55 -154l-122 -281h-91z" />
    <glyph glyph-name="uni019C" unicode="&#x19c;" horiz-adv-x="1029" 
d="M180 714v-506q0 -70 29 -105t92 -35q84 0 124.5 47t40.5 147v452h90v-506q0 -70 29 -105t94 -35q84 0 123.5 49.5t39.5 164.5v432h90v-714h-71l-15 82h-5q-25 -42 -74 -67t-107 -25q-68 0 -110.5 24.5t-64.5 75.5h-5q-28 -48 -79.5 -74t-113.5 -26q-103 0 -150 53
t-47 165v506h90z" />
    <glyph glyph-name="uni019D" unicode="&#x19d;" horiz-adv-x="759" 
d="M97 714h104l22 -35l235 -362l124 -194h4q-1 12 -4 84t-3 104v403h84v-714h-105l-382 593h-4l2 -40q6 -89 6 -154v-482q0 -83 -34 -120t-101 -37q-32 0 -56 13v76q21 -10 45 -10q35 0 49 20t14 62v793z" />
    <glyph glyph-name="uni019E" unicode="&#x19e;" horiz-adv-x="618" 
d="M450 -240v583q0 64 -28.5 96.5t-91.5 32.5q-83 0 -120 -46.5t-37 -147.5v-278h-88v536h71l13 -73h5q25 40 70 61.5t99 21.5q99 0 146.5 -48t47.5 -149v-589h-87z" />
    <glyph glyph-name="uni019F" unicode="&#x19f;" horiz-adv-x="782" 
d="M720 358q0 -171 -86.5 -269.5t-242.5 -98.5q-158 0 -244 96.5t-86 272.5q0 174 85.5 270t245.5 96q155 0 241.5 -97.5t86.5 -269.5zM391 68q108 0 167.5 65t65.5 192h-467q6 -127 65.5 -192t168.5 -65zM392 646q-106 0 -165.5 -61.5t-69.5 -181.5h466q-9 121 -67.5 182
t-163.5 61z" />
    <glyph glyph-name="Ohorn" unicode="&#x1a0;" horiz-adv-x="784" 
d="M719 358q0 -173 -86.5 -270.5t-241.5 -97.5q-158 0 -244 96t-86 273q0 176 86 271t245 95t247 -104q33 9 48.5 39.5t15.5 99.5h95l7 -11q-15 -78 -47.5 -120.5t-83.5 -61.5q45 -85 45 -209zM156 358q0 -142 59.5 -216t175.5 -74t174.5 73t58.5 217q0 143 -58.5 215.5
t-173.5 72.5q-118 0 -177 -73.5t-59 -214.5z" />
    <glyph glyph-name="ohorn" unicode="&#x1a1;" horiz-adv-x="616" 
d="M551 269q0 -131 -66.5 -205t-183.5 -74q-73 0 -129 34t-86.5 97.5t-30.5 147.5q0 131 65.5 204t183.5 73q53 0 97.5 -18t76.5 -51q24 7 38.5 23.5t21.5 41t7 76.5h94l7 -11q-16 -79 -46.5 -121.5t-82.5 -61.5q34 -69 34 -155zM146 269q0 -105 38.5 -155.5t118.5 -50.5
q83 0 120 52t37 154q0 100 -38 151.5t-120 51.5q-83 0 -119.5 -51.5t-36.5 -151.5z" />
    <glyph glyph-name="uni01A2" unicode="&#x1a2;" horiz-adv-x="1075" 
d="M688 358q0 -173 -82.5 -270.5t-230.5 -97.5q-150 0 -232 96.5t-82 272.5q0 174 82 270t233 96q142 0 224 -91q28 43 78 67t110 24q102 0 149.5 -52.5t47.5 -165.5v-507h-90v507q0 70 -29 105t-92 35q-53 0 -86.5 -15t-52.5 -46q53 -92 53 -228zM156 358q0 -142 56 -216
t163 -74t162.5 73t55.5 217q0 143 -55 215.5t-162 72.5q-108 0 -164 -73.5t-56 -214.5z" />
    <glyph glyph-name="uni01A3" unicode="&#x1a3;" horiz-adv-x="845" 
d="M526 269q0 -132 -63.5 -205.5t-173.5 -73.5q-69 0 -122.5 34t-82.5 98t-29 147q0 130 62.5 203.5t173.5 73.5q106 0 169 -72q26 37 64 54.5t80 17.5q80 0 120 -47t40 -150v-589h-87v585q0 127 -92 127q-63 0 -94 -44q35 -63 35 -159zM146 269q0 -101 36.5 -153.5
t107.5 -52.5t108 52t37 154q0 101 -37 152t-108 51q-144 0 -144 -203z" />
    <glyph glyph-name="uni01A4" unicode="&#x1a4;" horiz-adv-x="685" 
d="M267 355h72q106 0 154 34.5t48 110.5q0 69 -44.5 103t-138.5 34h-91v-282zM366 714q268 0 268 -210q0 -109 -74.5 -167.5t-210.5 -58.5h-82v-278h-90v637h-26q-61 0 -61 -50q0 -30 10 -54h-79q-4 10 -7.5 26.5t-3.5 28.5q0 65 34.5 95.5t106.5 30.5h215z" />
    <glyph glyph-name="uni01A5" unicode="&#x1a5;" horiz-adv-x="615" 
d="M207 765q33 0 65 -13v-73q-23 10 -52 10q-23 0 -35 -13t-12 -45v-80q0 -30 -4 -68l-2 -20h6q31 44 72 63.5t95 19.5q104 0 162 -72.5t58 -204.5q0 -131 -58 -205t-163 -74q-108 0 -166 78h-6l2 -20q4 -38 4 -68v-220h-88l1 865q0 140 121 140zM324 472q-80 0 -115 -45
t-36 -141v-17q0 -109 36 -157.5t117 -48.5q67 0 105 54.5t38 152.5t-38 150t-107 52z" />
    <glyph glyph-name="uni01A6" unicode="&#x1a6;" horiz-adv-x="622" 
d="M187 271h107q87 0 127 34t40 102q0 67 -40.5 98t-131.5 31h-102v-265zM187 195v-195h-90v714h90v-100h107q133 0 196.5 -50.5t63.5 -152.5q0 -142 -143 -191l196 -320h-105l-173 295h-142z" />
    <glyph glyph-name="uni01A7" unicode="&#x1a7;" horiz-adv-x="548" 
d="M47 191q0 48 20 84t61 63.5t124 58.5q68 25 98.5 44t44 42t13.5 58q0 49 -36 76.5t-99 27.5q-72 0 -154 -38l-28 77q85 40 180 40q102 0 165 -49.5t63 -132.5q0 -76 -41.5 -125.5t-142.5 -86.5q-78 -28 -113 -48t-50 -43t-15 -56q0 -54 40.5 -84.5t120.5 -30.5
q91 0 200 47v-86q-34 -17 -85 -28t-111 -11q-120 0 -187.5 54t-67.5 147z" />
    <glyph glyph-name="uni01A8" unicode="&#x1a8;" horiz-adv-x="479" 
d="M45 148q0 37 15 64t46.5 48.5t99.5 46.5q88 34 113 53t25 49t-28 47.5t-83 17.5q-50 0 -132 -34l-30 70q81 36 156 36q98 0 149.5 -36.5t51.5 -105.5q0 -37 -14.5 -63t-45 -47t-106.5 -50q-53 -20 -81 -35.5t-39.5 -31t-11.5 -37.5q0 -39 32 -59t95 -20q84 0 170 43v-80
q-62 -34 -168 -34q-214 0 -214 158z" />
    <glyph glyph-name="uni01A9" unicode="&#x1a9;" horiz-adv-x="569" 
d="M36 0v74l234 299l-228 266v75h475v-80h-325l-47 1l225 -261l-235 -296l163 1h248v-79h-510z" />
    <glyph glyph-name="uni01AA" unicode="&#x1aa;" horiz-adv-x="309" 
d="M67 542q-60 0 -91.5 29.5t-31.5 82.5q0 54 32.5 82.5t92.5 28.5q63 0 96.5 -36t33.5 -105v-696q0 -49 18 -72.5t59 -23.5q19 0 43.5 3t38.5 8v-67q-15 -7 -41.5 -11.5t-52.5 -4.5q-80 0 -116 41t-36 126v615h-45zM63 693q-21 0 -30 -12t-9 -27q0 -40 49 -40h39v13
q0 35 -12.5 50.5t-36.5 15.5z" />
    <glyph glyph-name="uni01AB" unicode="&#x1ab;" horiz-adv-x="360" 
d="M222 -240q-29 0 -60 12v73q22 -9 50 -9q48 0 48 52v102h-11q-157 0 -157 166v312h-76v42l77 35l35 114h52v-123h155v-68h-155v-310q0 -46 22.5 -71t61.5 -25q17 0 40 3.5t35 7.5v-180q0 -133 -117 -133z" />
    <glyph glyph-name="uni01AC" unicode="&#x1ac;" horiz-adv-x="576" 
d="M151 635q-61 0 -61 -48q0 -30 10 -54h-79q-4 10 -7.5 26.5t-3.5 28.5q0 65 34.5 95.5t106.5 30.5h414v-79h-222v-635h-90v635h-102z" />
    <glyph glyph-name="uni01AD" unicode="&#x1ad;" horiz-adv-x="360" 
d="M180 536h155v-68h-155v-310q0 -46 22.5 -71t61.5 -25q17 0 40 3.5t35 7.5v-67q-12 -5 -38 -10.5t-52 -5.5q-157 0 -157 166v312h-76v42l77 35v66q0 154 147 154q39 0 77 -13v-73q-11 4 -34.5 7t-42.5 3q-32 0 -46 -17t-14 -51v-85z" />
    <glyph glyph-name="uni01AE" unicode="&#x1ae;" horiz-adv-x="556" 
d="M233 635h-223v79h535v-79h-222v-714q0 -42 14.5 -62t48.5 -20q24 0 45 10v-76q-24 -13 -63 -13q-68 0 -101.5 37t-33.5 120v718z" />
    <glyph glyph-name="Uhorn" unicode="&#x1af;" horiz-adv-x="779" 
d="M640 714v-97q40 5 59 37t19 106h93l7 -11q-16 -90 -59 -135.5t-119 -58.5v-303q0 -125 -70.5 -193.5t-200.5 -68.5q-133 0 -206 70.5t-73 193.5v460h90v-464q0 -86 47.5 -134t143.5 -48q88 0 134 46.5t46 136.5v463h89z" />
    <glyph glyph-name="uhorn" unicode="&#x1b0;" horiz-adv-x="673" 
d="M168 535v-344q0 -65 29 -96.5t90 -31.5q83 0 120.5 46t37.5 148v278h88v-59q39 6 57 37.5t18 105.5h93l7 -11q-16 -93 -59 -139.5t-116 -54.5v-414h-72l-13 71h-4q-24 -39 -67.5 -60t-100.5 -21q-98 0 -147.5 46.5t-49.5 148.5v350h89z" />
    <glyph glyph-name="uni01B1" unicode="&#x1b1;" horiz-adv-x="782" 
d="M391 68q114 0 173 62t59 183q0 110 -40.5 189t-126.5 140v72h288v-79h-178q74 -57 113 -141t39 -184q0 -150 -87 -235.5t-240 -85.5q-155 0 -241.5 85t-86.5 235q0 100 39 185t112 141h-177v79h288v-72q-87 -62 -127.5 -142t-40.5 -187q0 -120 59.5 -182.5t174.5 -62.5z
" />
    <glyph glyph-name="uni01B2" unicode="&#x1b2;" horiz-adv-x="600" 
d="M571 580q0 -53 -45 -157l-181 -423h-90l-255 714h94l162 -466q31 -88 45 -156q8 30 27 73q21 50 32 81l85 203q36 88 36 125q0 39 -16 55t-47 16q-24 0 -45 -10v76q22 13 63 13q135 0 135 -144z" />
    <glyph glyph-name="uni01B3" unicode="&#x1b3;" horiz-adv-x="565" 
d="M39 649q-21 0 -39 -8v73q28 11 60 11q37 0 59.5 -17.5t40.5 -57.5l128 -287l181 351h97l-233 -437v-277h-90v273l-162 341q-18 35 -42 35z" />
    <glyph glyph-name="uni01B4" unicode="&#x1b4;" horiz-adv-x="541" 
d="M485 546q33 0 57 -12v-65q-18 5 -30 5q-18 0 -28.5 -13t-21.5 -41l-183 -494q-32 -87 -79 -126.5t-116 -39.5q-37 0 -73 8v70q24 -6 59 -6q85 0 121 95l26 71l-216 538h94l116 -305q37 -100 45 -146h4q8 36 48 147l76 217q19 54 41 75.5t60 21.5z" />
    <glyph glyph-name="uni01B5" unicode="&#x1b5;" horiz-adv-x="571" 
d="M79 407h184l151 227h-364v80h473v-68l-159 -239h122v-71h-169l-170 -256h386v-80h-495v68l178 268h-137v71z" />
    <glyph glyph-name="uni01B6" unicode="&#x1b6;" horiz-adv-x="470" 
d="M57 313h161l109 155h-271v68h368v-66l-111 -157h101v-70h-151l-123 -175h291v-68h-392v58l130 185h-112v70z" />
    <glyph glyph-name="uni01B7" unicode="&#x1b7;" horiz-adv-x="583" 
d="M291 440q68 -2 122.5 -30t85 -76.5t30.5 -112.5q0 -109 -76 -170t-212 -61q-126 0 -206 39v82q49 -23 104 -35t103 -12q97 0 145 41t48 117q0 69 -49.5 107t-143.5 38h-62v65l206 202h-331v80h444v-71z" />
    <glyph glyph-name="uni01B8" unicode="&#x1b8;" horiz-adv-x="583" 
d="M85 643v71h444v-80h-330l205 -202v-65h-78q-84 0 -130.5 -40.5t-46.5 -113.5q0 -71 49.5 -110t143.5 -39q49 0 103.5 11.5t103.5 35.5v-82q-45 -21 -98.5 -30t-119.5 -9q-87 0 -149 27t-94.5 77t-32.5 117q0 68 30 119t84.5 79.5t123.5 30.5z" />
    <glyph glyph-name="uni01B9" unicode="&#x1b9;" horiz-adv-x="498" 
d="M61 472v64h409v-74h-306l219 -243v-61h-59q-101 0 -151.5 -42.5t-50.5 -124.5q0 -71 47 -114.5t126 -43.5q100 0 189 42v-80q-68 -35 -196 -35q-113 0 -183.5 63t-70.5 166q0 105 64.5 168t181.5 71z" />
    <glyph glyph-name="uni01BA" unicode="&#x1ba;" horiz-adv-x="498" 
d="M216 -167q84 0 160 36v-80q-60 -29 -161 -29q-90 0 -138.5 31t-48.5 88q0 62 46.5 91.5t137.5 29.5q80 0 114.5 27.5t34.5 94.5q0 60 -44.5 88t-142.5 28h-59v61l183 163h-270v74h394v-64l-187 -164q104 -5 159 -51.5t55 -133.5q0 -95 -59.5 -145.5t-175.5 -50.5
q-53 0 -78 -10.5t-25 -37.5q0 -21 26.5 -33.5t78.5 -12.5z" />
    <glyph glyph-name="uni01BB" unicode="&#x1bb;" horiz-adv-x="569" 
d="M78 419h241q27 44 39 82t12 81q0 50 -29.5 78t-82.5 28q-45 0 -81.5 -16.5t-73.5 -49.5l-47 59q93 84 204 84q94 0 147.5 -48.5t53.5 -132.5q0 -42 -10.5 -81.5t-35.5 -83.5h100v-70h-144q-11 -16 -23.5 -32.5t-201.5 -242.5v-4h374v-70h-472v73l175 215l47 61h-192v70z
" />
    <glyph glyph-name="uni01BC" unicode="&#x1bc;" horiz-adv-x="583" 
d="M224 634v-193h42q77 0 137 -27t93 -76.5t33 -116.5q0 -109 -76 -170t-212 -61q-126 0 -206 39v82q49 -23 104 -35t103 -12q97 0 145 41t48 117q0 68 -47 106.5t-130 38.5h-124v267h-79v80h444v-80h-275z" />
    <glyph glyph-name="uni01BD" unicode="&#x1bd;" horiz-adv-x="490" 
d="M198 462v-117h23q107 0 165.5 -46.5t58.5 -135.5q0 -82 -60.5 -127.5t-168.5 -45.5q-118 0 -183 35v79q89 -42 182 -42q69 0 106 26.5t37 79.5t-37.5 79t-115.5 26h-95v189h-62v74h364v-74h-214z" />
    <glyph glyph-name="uni01BE" unicode="&#x1be;" horiz-adv-x="462" 
d="M136 378v90h-91v42l92 35l35 114h52v-123h155v-68h-155v-92q0 -34 10.5 -49.5t36.5 -24.5q83 -31 115 -66.5t32 -87.5q0 -75 -56 -116.5t-158 -41.5q-105 0 -168 34v80q86 -43 170 -43q66 0 96.5 21.5t30.5 57.5q0 29 -24 49.5t-90 47.5q-47 20 -65 52t-18 89z" />
    <glyph glyph-name="uni01BF" unicode="&#x1bf;" horiz-adv-x="586" 
d="M173 -240h-88v776h72l12 -73h4q55 83 158 83q96 0 152 -59t56 -164q0 -91 -45.5 -164.5t-130 -117.5t-190.5 -51v-230zM173 62q131 17 203 85.5t72 173.5q0 69 -36 110t-99 41q-73 0 -106.5 -44t-33.5 -142v-224z" />
    <glyph glyph-name="uni01C0" unicode="&#x1c0;" horiz-adv-x="516" 
d="M297 -240h-78v1000h78v-1000z" />
    <glyph glyph-name="uni01C1" unicode="&#x1c1;" horiz-adv-x="516" 
d="M169 -240h-78v1000h78v-1000zM426 -240h-78v1000h78v-1000z" />
    <glyph glyph-name="uni01C2" unicode="&#x1c2;" horiz-adv-x="516" 
d="M65 402h154v358h78v-358h154v-72h-154v-124h154v-72h-154v-374h-78v374h-154v72h154v124h-154v72z" />
    <glyph glyph-name="uni01C3" unicode="&#x1c3;" horiz-adv-x="269" 
d="M163 201h-57l-25 513h107zM72 54q0 32 16 49.5t46 17.5t46 -18t16 -49t-16.5 -49.5t-45.5 -18.5q-30 0 -46 18t-16 50z" />
    <glyph glyph-name="uni01C4" unicode="&#x1c4;" horiz-adv-x="1291" 
d="M860 896q64 -77 78 -77q16 0 85 80q22 26 41 26t30 -10.5t11 -28.5t-26.5 -40t-52.5 -52t-45.5 -46t-41 -16t-40.5 16t-45.5 46t-52.5 51.5t-26 40t11 29t23 10.5t17.5 -2t9.5 -4t9 -7l7 -7q3 -3 8 -9zM128 376l-5 260q-44 4 -44 41.5t79 62t163.5 24.5t157.5 -33
t117 -89q91 -114 91 -270q0 -152 -87 -264q-43 -56 -114 -89.5t-169 -33.5t-170 25t-72 64q0 37 50 37zM519.5 589.5q-71.5 88.5 -206.5 88.5q-57 0 -91 -17q-3 -62 -3 -270.5t5 -305.5q36 -13 101 -13t117.5 26t83.5 70q65 90 65 211.5t-71.5 210zM1015 750l203 5
q57 0 57 -41q0 -25 -20.5 -61t-79 -122.5t-104.5 -162.5l-171 -281q57 -5 127.5 -5t132.5 3.5t79.5 3.5t34 -12.5t16.5 -34.5t-16.5 -34.5t-43.5 -12.5l-175 5l-229 -5q-57 0 -57 43q0 24 24.5 65.5t87 134.5t112.5 175l152 251q-45 4 -109 4t-126 -3.5t-79.5 -3.5t-34 12.5
t-16.5 34.5t16.5 34.5t43.5 12.5z" />
    <glyph glyph-name="uni01C5" unicode="&#x1c5;" horiz-adv-x="1200" 
d="M833 731q64 -77 78 -77q16 0 85 80q22 26 41 26t30 -10.5t11 -28.5t-26.5 -40t-52.5 -52t-45.5 -46t-41 -16t-40.5 16t-45.5 46t-52.5 51.5t-26 40t11 29t23 10.5t17.5 -2t9.5 -4t9 -7l7 -7q3 -3 8 -9zM128 376l-5 260q-44 4 -44 41.5t79 62t163.5 24.5t157.5 -33
t117 -89q91 -114 91 -270q0 -152 -87 -264q-43 -56 -114 -89.5t-169 -33.5t-170 25t-72 64q0 37 50 37zM519.5 589.5q-71.5 88.5 -206.5 88.5q-57 0 -91 -17q-3 -62 -3 -270.5t5 -305.5q36 -13 101 -13t117.5 26t83.5 70q65 90 65 211.5t-71.5 210zM1025 750l203 5
q57 0 57 -41q0 -25 -20.5 -61t-79 -122.5t-104.5 -162.5l-171 -281q57 -5 127.5 -5t132.5 3.5t79.5 3.5t34 -12.5t16.5 -34.5t-16.5 -34.5t-43.5 -12.5l-175 5l-229 -5q-57 0 -57 43q0 24 24.5 65.5t87 134.5t112.5 175l152 251q-45 4 -109 4t-126 -3.5t-79.5 -3.5t-34 12.5
t-16.5 34.5t16.5 34.5t43.5 12.5z" />
    <glyph glyph-name="uni01C6" unicode="&#x1c6;" horiz-adv-x="1084" 
d="M720 731q64 -77 78 -77q16 0 85 80q22 26 41 26t30 -10.5t11 -28.5t-26.5 -40t-52.5 -52t-45.5 -46t-41 -16t-40.5 16t-45.5 46t-52.5 51.5t-26 40t11 29t23 10.5t17.5 -2t9.5 -4t9 -7l7 -7q3 -3 8 -9zM128 376l-5 260q-44 4 -44 41.5t79 62t163.5 24.5t157.5 -33
t117 -89q91 -114 91 -270q0 -152 -87 -264q-43 -56 -114 -89.5t-169 -33.5t-170 25t-72 64q0 37 50 37zM519.5 589.5q-71.5 88.5 -206.5 88.5q-57 0 -91 -17q-3 -62 -3 -270.5t5 -305.5q36 -13 101 -13t117.5 26t83.5 70q65 90 65 211.5t-71.5 210zM910 750l203 5
q57 0 57 -41q0 -25 -20.5 -61t-79 -122.5t-104.5 -162.5l-171 -281q57 -5 127.5 -5t132.5 3.5t79.5 3.5t34 -12.5t16.5 -34.5t-16.5 -34.5t-43.5 -12.5l-175 5l-229 -5q-57 0 -57 43q0 24 24.5 65.5t87 134.5t112.5 175l152 251q-45 4 -109 4t-126 -3.5t-79.5 -3.5t-34 12.5
t-16.5 34.5t16.5 34.5t43.5 12.5z" />
    <glyph glyph-name="uni01C7" unicode="&#x1c7;" horiz-adv-x="796" 
d="M115 54l4 326q0 131 -3 216t-3 93q0 71 51 71t51 -71q0 -8 -1 -51q-5 -127 -5 -232.5t1 -165t3 -101t2 -52.5q48 -5 104 -5t109 3.5t69.5 3.5t33 -12.5t16.5 -34.5t-16.5 -34.5t-43.5 -12.5l-149 5l-162 -5q-30 0 -45.5 12.5t-15.5 46.5zM852 750l149 6q27 0 43.5 -12.5
t16.5 -34t-19 -34.5t-49 -13q-1 -62 -1 -405q0 -73 -20.5 -128t-54.5 -85q-67 -59 -152.5 -59t-140 34.5t-54.5 67.5q0 19 11 30.5t29 11.5t36 -14t46 -28.5t69 -14.5q58 0 99.5 49.5t41.5 156.5l-3 389q-63 0 -114 -3t-70 -3t-35.5 12.5t-16.5 34.5t16.5 34.5t43.5 12.5z
" />
    <glyph glyph-name="uni01C8" unicode="&#x1c8;" horiz-adv-x="782" 
d="M115 54l4 326q0 131 -3 216t-3 93q0 71 51 71t51 -71q0 -8 -1 -51q-5 -127 -5 -232.5t1 -165t3 -101t2 -52.5q48 -5 104 -5t109 3.5t69.5 3.5t33 -12.5t16.5 -34.5t-16.5 -34.5t-43.5 -12.5l-149 5l-162 -5q-30 0 -45.5 12.5t-15.5 46.5zM852 750l149 6q27 0 43.5 -12.5
t16.5 -34t-19 -34.5t-49 -13q-1 -62 -1 -405q0 -73 -20.5 -128t-54.5 -85q-67 -59 -152.5 -59t-140 34.5t-54.5 67.5q0 19 11 30.5t29 11.5t36 -14t46 -28.5t69 -14.5q58 0 99.5 49.5t41.5 156.5l-3 389q-63 0 -114 -3t-70 -3t-35.5 12.5t-16.5 34.5t16.5 34.5t43.5 12.5z
" />
    <glyph glyph-name="uni01C9" unicode="&#x1c9;" horiz-adv-x="516" 
d="M115 54l4 326q0 131 -3 216t-3 93q0 71 51 71t51 -71q0 -8 -1 -51q-5 -127 -5 -232.5t1 -165t3 -101t2 -52.5q48 -5 104 -5t109 3.5t69.5 3.5t33 -12.5t16.5 -34.5t-16.5 -34.5t-43.5 -12.5l-149 5l-162 -5q-30 0 -45.5 12.5t-15.5 46.5zM586 750l149 6q27 0 43.5 -12.5
t16.5 -34t-19 -34.5t-49 -13q-1 -62 -1 -405q0 -73 -20.5 -128t-54.5 -85q-67 -59 -152.5 -59t-140 34.5t-54.5 67.5q0 19 11 30.5t29 11.5t36 -14t46 -28.5t69 -14.5q58 0 99.5 49.5t41.5 156.5l-3 389q-63 0 -114 -3t-70 -3t-35.5 12.5t-16.5 34.5t16.5 34.5t43.5 12.5z
" />
    <glyph glyph-name="uni01CA" unicode="&#x1ca;" horiz-adv-x="1033" 
d="M626 372l3 -310q0 -72 -53 -72q-33 0 -50 31l-317 546q0 -233 2.5 -372t2.5 -155.5t-15 -33t-35.5 -16.5t-35 16.5t-14.5 41.5l4 324q0 103 -2.5 209t-2.5 108q0 71 51 71q37 0 55 -31q291 -500 317 -540q0 283 -3 390t-3 110q0 71 51 71t51 -71q0 -8 -2 -53
q-4 -133 -4 -264zM1088 750l149 6q27 0 43.5 -12.5t16.5 -34t-19 -34.5t-49 -13q-1 -62 -1 -405q0 -73 -20.5 -128t-54.5 -85q-67 -59 -152.5 -59t-140 34.5t-54.5 67.5q0 19 11 30.5t29 11.5t36 -14t46 -28.5t69 -14.5q58 0 99.5 49.5t41.5 156.5l-3 389q-63 0 -114 -3
t-70 -3t-35.5 12.5t-16.5 34.5t16.5 34.5t43.5 12.5z" />
    <glyph glyph-name="uni01CB" unicode="&#x1cb;" horiz-adv-x="1018" 
d="M626 372l3 -310q0 -72 -53 -72q-33 0 -50 31l-317 546q0 -233 2.5 -372t2.5 -155.5t-15 -33t-35.5 -16.5t-35 16.5t-14.5 41.5l4 324q0 103 -2.5 209t-2.5 108q0 71 51 71q37 0 55 -31q291 -500 317 -540q0 283 -3 390t-3 110q0 71 51 71t51 -71q0 -8 -2 -53
q-4 -133 -4 -264zM1088 750l149 6q27 0 43.5 -12.5t16.5 -34t-19 -34.5t-49 -13q-1 -62 -1 -405q0 -73 -20.5 -128t-54.5 -85q-67 -59 -152.5 -59t-140 34.5t-54.5 67.5q0 19 11 30.5t29 11.5t36 -14t46 -28.5t69 -14.5q58 0 99.5 49.5t41.5 156.5l-3 389q-63 0 -114 -3
t-70 -3t-35.5 12.5t-16.5 34.5t16.5 34.5t43.5 12.5z" />
    <glyph glyph-name="uni01CC" unicode="&#x1cc;" horiz-adv-x="875" 
d="M670 497l-7 -282q0 -38 1 -57t8 -40t21 -27q8 -4 19 -5.5t16 -4.5t5 -11q0 -35 -22 -58.5t-52 -23.5q-52 0 -71.5 40t-19.5 119l6 284q0 109 -38 174.5t-110.5 65.5t-140.5 -87.5t-94 -198.5l4 -328q0 -69 -51 -69q-62 0 -62 104.5t27 292.5q0 65 -11.5 176.5
t-11.5 136.5t14 43.5t38.5 18.5t38.5 -18.5t14 -41.5t-0.5 -55.5t-0.5 -55.5q98 171 248 171q111 0 171.5 -76.5t60.5 -186.5zM946 750l149 6q27 0 43.5 -12.5t16.5 -34t-19 -34.5t-49 -13q-1 -62 -1 -405q0 -73 -20.5 -128t-54.5 -85q-67 -59 -152.5 -59t-140 34.5
t-54.5 67.5q0 19 11 30.5t29 11.5t36 -14t46 -28.5t69 -14.5q58 0 99.5 49.5t41.5 156.5l-3 389q-63 0 -114 -3t-70 -3t-35.5 12.5t-16.5 34.5t16.5 34.5t43.5 12.5z" />
    <glyph glyph-name="uni01CD" unicode="&#x1cd;" horiz-adv-x="639" 
d="M183 909q64 -77 78 -77q16 0 85 80q22 26 41 26t30 -10.5t11 -28.5t-26.5 -40t-52.5 -52t-45.5 -46t-41 -16t-40.5 16t-45.5 46t-52.5 51.5t-26 40t11 29t23 10.5t17.5 -2t9.5 -4t9 -7l7 -7q3 -3 8 -9zM476 241l-129 3q-96 0 -140 -2q-11 -33 -31.5 -103.5t-33.5 -109.5
t-46 -39q-19 0 -30.5 12t-11.5 26.5t1.5 23.5t7 27t11.5 34q29 86 42 126q-29 0 -45.5 12.5t-16.5 33.5q0 47 74 47h18q96 268 110.5 306.5t16.5 44.5t6.5 17.5t8 17t8.5 13.5t9.5 12.5t10.5 8.5q13 8 27.5 8t23.5 -3t17 -11t13.5 -17t13 -28t13.5 -35q48 -147 120 -334
l36 1q26 0 42.5 -14t16.5 -35q0 -44 -66 -47q10 -32 27 -81q39 -106 39 -122.5t-11.5 -30t-31.5 -13.5q-36 0 -52 39q-17 49 -68 212zM232 328q64 -2 123.5 -2t95.5 2q-105 302 -107 302q-6 0 -86 -226z" />
    <glyph glyph-name="uni01CE" unicode="&#x1ce;" horiz-adv-x="561" 
d="M145 731q64 -77 78 -77q16 0 85 80q22 26 41 26t30 -10.5t11 -28.5t-26.5 -40t-52.5 -52t-45.5 -46t-41 -16t-40.5 16t-45.5 46t-52.5 51.5t-26 40t11 29t23 10.5t17.5 -2t9.5 -4t9 -7l7 -7q3 -3 8 -9zM648 367q0 -112 14.5 -189.5t35.5 -87.5q8 -4 19 -5.5t16 -4.5
t5 -11q0 -36 -20 -59t-53 -23q-44 0 -66 50t-22 128q-53 -84 -111.5 -132t-131 -48t-122.5 34.5t-80 90.5q-60 115 -60 253q0 164 85 283t220 119q52 0 101.5 -19.5t82.5 -49.5q0 69 51 69q63 0 63 -101q0 -75 -27 -297zM569 355l-6 245q-85 78 -186 78q-83 0 -146 -89.5
t-63 -217.5t43.5 -213.5t118 -85.5t150 95t89.5 188z" />
    <glyph glyph-name="uni01CF" unicode="&#x1cf;" horiz-adv-x="338" 
d="M35 909q64 -77 78 -77q16 0 85 80q22 26 41 26t30 -10.5t11 -28.5t-26.5 -40t-52.5 -52t-45.5 -46t-41 -16t-40.5 16t-45.5 46t-52.5 51.5t-26 40t11 29t23 10.5t17.5 -2t9.5 -4t9 -7l7 -7q3 -3 8 -9zM374 661l-82 4q-4 -97 -4 -278.5t5 -303.5l81 4q27 0 43.5 -12.5
t16.5 -34t-16.5 -34t-43.5 -12.5l-131 6l-131 -6q-27 0 -43.5 12.5t-16.5 34t16.5 34t43.5 12.5l81 -5q5 122 5 304t-4 279l-82 -4q-27 0 -43.5 13t-16.5 35t16.5 34.5t43.5 12.5l131 -6l131 6q27 0 43.5 -12.5t16.5 -34.5t-16.5 -35t-43.5 -13z" />
    <glyph glyph-name="uni01D0" unicode="&#x1d0;" horiz-adv-x="257" 
d="M-7 731q64 -77 78 -77q16 0 85 80q22 26 41 26t30 -10.5t11 -28.5t-26.5 -40t-52.5 -52t-45.5 -46t-41 -16t-40.5 16t-45.5 46t-52.5 51.5t-26 40t11 29t23 10.5t17.5 -2t9.5 -4t9 -7l7 -7q3 -3 8 -9zM390 661l-90 4q-4 -97 -4 -278.5t5 -303.5l89 5q27 0 43.5 -12.5
t16.5 -34.5t-16.5 -34.5t-43.5 -12.5l-139 6l-139 -7q-27 0 -43.5 12.5t-16.5 34.5t16.5 34.5t43.5 12.5l89 -5q5 122 5 304t-4 279l-90 -4q-27 0 -43.5 12.5t-16.5 34.5t16.5 34.5t43.5 12.5l139 -5l139 6q27 0 43.5 -12.5t16.5 -34.5t-16.5 -35t-43.5 -13z" />
    <glyph glyph-name="uni01D1" unicode="&#x1d1;" horiz-adv-x="780" 
d="M254 909q64 -77 78 -77q16 0 85 80q22 26 41 26t30 -10.5t11 -28.5t-26.5 -40t-52.5 -52t-45.5 -46t-41 -16t-40.5 16t-45.5 46t-52.5 51.5t-26 40t11 29t23 10.5t17.5 -2t9.5 -4t9 -7l7 -7q3 -3 8 -9zM586.5 164q69.5 92 69.5 213t-69 211.5t-174.5 90.5t-175 -90.5
t-69.5 -211t70 -213t174.5 -92.5t174 92zM752 376q0 -163 -97.5 -277t-243 -114t-242.5 114t-97 277t98 276t243.5 113t242 -113t96.5 -276z" />
    <glyph glyph-name="uni01D2" unicode="&#x1d2;" horiz-adv-x="604" 
d="M166 731q64 -77 78 -77q16 0 85 80q22 26 41 26t30 -10.5t11 -28.5t-26.5 -40t-52.5 -52t-45.5 -46t-41 -16t-40.5 16t-45.5 46t-52.5 51.5t-26 40t11 29t23 10.5t17.5 -2t9.5 -4t9 -7l7 -7q3 -3 8 -9zM586.5 164q69.5 92 69.5 213t-69 211.5t-174.5 90.5t-175 -90.5
t-69.5 -211t70 -213t174.5 -92.5t174 92zM752 376q0 -163 -97.5 -277t-243 -114t-242.5 114t-97 277t98 276t243.5 113t242 -113t96.5 -276z" />
    <glyph glyph-name="uni01D3" unicode="&#x1d3;" horiz-adv-x="730" 
d="M229 909q64 -77 78 -77q16 0 85 80q22 26 41 26t30 -10.5t11 -28.5t-26.5 -40t-52.5 -52t-45.5 -46t-41 -16t-40.5 16t-45.5 46t-52.5 51.5t-26 40t11 29t23 10.5t17.5 -2t9.5 -4t9 -7l7 -7q3 -3 8 -9zM569 61.5q-69 -76.5 -197.5 -76.5t-197.5 77t-71 187q-1 52 -1 129
t-1.5 147.5t-3 113t-1.5 50.5q0 71 51 71t51 -71q0 -8 -2 -63q-4 -167 -4 -260.5t7.5 -135.5t26.5 -80q37 -78 145 -78q153 0 175 177q5 35 5 94.5t-1.5 143t-3 139t-1.5 63.5q0 71 51 71t51 -71q0 -8 -1 -51q-5 -127 -5 -232t-1 -157q-2 -111 -71 -187.5z" />
    <glyph glyph-name="uni01D4" unicode="&#x1d4;" horiz-adv-x="618" 
d="M173 731q64 -77 78 -77q16 0 85 80q22 26 41 26t30 -10.5t11 -28.5t-26.5 -40t-52.5 -52t-45.5 -46t-41 -16t-40.5 16t-45.5 46t-52.5 51.5t-26 40t11 29t23 10.5t17.5 -2t9.5 -4t9 -7l7 -7q3 -3 8 -9zM202 646l-11 -332q0 -109 37.5 -175.5t114 -66.5t147.5 89.5
t84 198.5l-4 328q0 69 51 69q62 0 62 -102t-27 -295q0 -110 14.5 -186.5t35.5 -85.5q8 -4 19.5 -5.5t16.5 -4.5t5 -11q0 -37 -22 -59.5t-56 -22.5q-85 0 -85 173q-100 -173 -252 -173q-81 0 -136 45q-100 84 -100 267l8 239q0 54 -11 100t-11 66.5t16 37.5t42 17
q62 0 62 -111z" />
    <glyph glyph-name="uni01D5" unicode="&#x1d5;" horiz-adv-x="730" 
d="M508 815q0 -23 -12.5 -36t-34.5 -13t-34.5 13t-12.5 36q0 26 14 38t33 12q20 0 33.5 -12t13.5 -38zM320 815q0 -26 -13.5 -37.5t-32.5 -11.5q-22 0 -34.5 13t-12.5 36q0 26 14 38t33 12t32.5 -12t13.5 -38zM219 1001h297v-71h-297v71zM569 61.5q-69 -76.5 -197.5 -76.5
t-197.5 77t-71 187q-1 52 -1 129t-1.5 147.5t-3 113t-1.5 50.5q0 71 51 71t51 -71q0 -8 -2 -63q-4 -167 -4 -260.5t7.5 -135.5t26.5 -80q37 -78 145 -78q153 0 175 177q5 35 5 94.5t-1.5 143t-3 139t-1.5 63.5q0 71 51 71t51 -71q0 -8 -1 -51q-5 -127 -5 -232t-1 -157
q-2 -111 -71 -187.5z" />
    <glyph glyph-name="uni01D6" unicode="&#x1d6;" horiz-adv-x="618" 
d="M447 650q0 -23 -12.5 -36t-34.5 -13t-34.5 13t-12.5 36q0 26 14 38t33 12q20 0 33.5 -12t13.5 -38zM259 650q0 -26 -13.5 -37.5t-32.5 -11.5q-22 0 -34.5 13t-12.5 36q0 26 14 38t33 12t32.5 -12t13.5 -38zM158 836h297v-71h-297v71zM202 646l-11 -332
q0 -109 37.5 -175.5t114 -66.5t147.5 89.5t84 198.5l-4 328q0 69 51 69q62 0 62 -102t-27 -295q0 -110 14.5 -186.5t35.5 -85.5q8 -4 19.5 -5.5t16.5 -4.5t5 -11q0 -37 -22 -59.5t-56 -22.5q-85 0 -85 173q-100 -173 -252 -173q-81 0 -136 45q-100 84 -100 267l8 239
q0 54 -11 100t-11 66.5t16 37.5t42 17q62 0 62 -111z" />
    <glyph glyph-name="uni01D7" unicode="&#x1d7;" horiz-adv-x="730" 
d="M499 815q0 -23 -12.5 -36t-34.5 -13t-34.5 13t-12.5 36q0 26 14 38t33 12q20 0 33.5 -12t13.5 -38zM311 815q0 -26 -13.5 -37.5t-32.5 -11.5q-22 0 -34.5 13t-12.5 36q0 26 14 38t33 12t32.5 -12t13.5 -38zM305 903q73 84 96 133h105v-10q-28 -43 -142 -135h-59v12z
M569 61.5q-69 -76.5 -197.5 -76.5t-197.5 77t-71 187q-1 52 -1 129t-1.5 147.5t-3 113t-1.5 50.5q0 71 51 71t51 -71q0 -8 -2 -63q-4 -167 -4 -260.5t7.5 -135.5t26.5 -80q37 -78 145 -78q153 0 175 177q5 35 5 94.5t-1.5 143t-3 139t-1.5 63.5q0 71 51 71t51 -71
q0 -8 -1 -51q-5 -127 -5 -232t-1 -157q-2 -111 -71 -187.5z" />
    <glyph glyph-name="uni01D8" unicode="&#x1d8;" horiz-adv-x="618" 
d="M446 650q0 -23 -12.5 -36t-34.5 -13t-34.5 13t-12.5 36q0 26 14 38t33 12q20 0 33.5 -12t13.5 -38zM258 650q0 -26 -13.5 -37.5t-32.5 -11.5q-22 0 -34.5 13t-12.5 36q0 26 14 38t33 12t32.5 -12t13.5 -38zM252 738q73 84 96 133h105v-10q-28 -43 -142 -135h-59v12z
M202 646l-11 -332q0 -109 37.5 -175.5t114 -66.5t147.5 89.5t84 198.5l-4 328q0 69 51 69q62 0 62 -102t-27 -295q0 -110 14.5 -186.5t35.5 -85.5q8 -4 19.5 -5.5t16.5 -4.5t5 -11q0 -37 -22 -59.5t-56 -22.5q-85 0 -85 173q-100 -173 -252 -173q-81 0 -136 45
q-100 84 -100 267l8 239q0 54 -11 100t-11 66.5t16 37.5t42 17q62 0 62 -111z" />
    <glyph glyph-name="uni01D9" unicode="&#x1d9;" horiz-adv-x="730" 
d="M504 815q0 -23 -12.5 -36t-34.5 -13t-34.5 13t-12.5 36q0 26 14 38t33 12q20 0 33.5 -12t13.5 -38zM316 815q0 -26 -13.5 -37.5t-32.5 -11.5q-22 0 -34.5 13t-12.5 36q0 26 14 38t33 12t32.5 -12t13.5 -38zM195 1046h60q26 -17 54 -36t53 -46q27 27 55 46t54 36h62v-13
l-32 -31q-73 -69 -93 -106h-90q-21 36 -92 106l-31 31v13zM569 61.5q-69 -76.5 -197.5 -76.5t-197.5 77t-71 187q-1 52 -1 129t-1.5 147.5t-3 113t-1.5 50.5q0 71 51 71t51 -71q0 -8 -2 -63q-4 -167 -4 -260.5t7.5 -135.5t26.5 -80q37 -78 145 -78q153 0 175 177
q5 35 5 94.5t-1.5 143t-3 139t-1.5 63.5q0 71 51 71t51 -71q0 -8 -1 -51q-5 -127 -5 -232t-1 -157q-2 -111 -71 -187.5z" />
    <glyph glyph-name="uni01DA" unicode="&#x1da;" horiz-adv-x="618" 
d="M444 650q0 -23 -12.5 -36t-34.5 -13t-34.5 13t-12.5 36q0 26 14 38t33 12q20 0 33.5 -12t13.5 -38zM256 650q0 -26 -13.5 -37.5t-32.5 -11.5q-22 0 -34.5 13t-12.5 36q0 26 14 38t33 12t32.5 -12t13.5 -38zM135 881h60q26 -17 54 -36t53 -46q27 27 55 46t54 36h62v-13
l-32 -31q-73 -69 -93 -106h-90q-21 36 -92 106l-31 31v13zM202 646l-11 -332q0 -109 37.5 -175.5t114 -66.5t147.5 89.5t84 198.5l-4 328q0 69 51 69q62 0 62 -102t-27 -295q0 -110 14.5 -186.5t35.5 -85.5q8 -4 19.5 -5.5t16.5 -4.5t5 -11q0 -37 -22 -59.5t-56 -22.5
q-85 0 -85 173q-100 -173 -252 -173q-81 0 -136 45q-100 84 -100 267l8 239q0 54 -11 100t-11 66.5t16 37.5t42 17q62 0 62 -111z" />
    <glyph glyph-name="uni01DB" unicode="&#x1db;" horiz-adv-x="730" 
d="M500 815q0 -23 -12.5 -36t-34.5 -13t-34.5 13t-12.5 36q0 26 14 38t33 12q20 0 33.5 -12t13.5 -38zM312 815q0 -26 -13.5 -37.5t-32.5 -11.5q-22 0 -34.5 13t-12.5 36q0 26 14 38t33 12t32.5 -12t13.5 -38zM414 891h-59q-114 91 -142 135v10h105q23 -49 96 -133v-12z
M569 61.5q-69 -76.5 -197.5 -76.5t-197.5 77t-71 187q-1 52 -1 129t-1.5 147.5t-3 113t-1.5 50.5q0 71 51 71t51 -71q0 -8 -2 -63q-4 -167 -4 -260.5t7.5 -135.5t26.5 -80q37 -78 145 -78q153 0 175 177q5 35 5 94.5t-1.5 143t-3 139t-1.5 63.5q0 71 51 71t51 -71
q0 -8 -1 -51q-5 -127 -5 -232t-1 -157q-2 -111 -71 -187.5z" />
    <glyph glyph-name="uni01DC" unicode="&#x1dc;" horiz-adv-x="618" 
d="M447 650q0 -23 -12.5 -36t-34.5 -13t-34.5 13t-12.5 36q0 26 14 38t33 12q20 0 33.5 -12t13.5 -38zM259 650q0 -26 -13.5 -37.5t-32.5 -11.5q-22 0 -34.5 13t-12.5 36q0 26 14 38t33 12t32.5 -12t13.5 -38zM361 726h-59q-114 91 -142 135v10h105q23 -49 96 -133v-12z
M202 646l-11 -332q0 -109 37.5 -175.5t114 -66.5t147.5 89.5t84 198.5l-4 328q0 69 51 69q62 0 62 -102t-27 -295q0 -110 14.5 -186.5t35.5 -85.5q8 -4 19.5 -5.5t16.5 -4.5t5 -11q0 -37 -22 -59.5t-56 -22.5q-85 0 -85 173q-100 -173 -252 -173q-81 0 -136 45
q-100 84 -100 267l8 239q0 54 -11 100t-11 66.5t16 37.5t42 17q62 0 62 -111z" />
    <glyph glyph-name="uni01DD" unicode="&#x1dd;" horiz-adv-x="563" 
d="M251 546q121 0 189.5 -73t68.5 -201q0 -129 -64 -205.5t-173 -76.5q-101 0 -161 65.5t-60 176.5v53h367q-2 91 -46 138.5t-125 47.5q-43 0 -81.5 -7.5t-90.5 -29.5v77q44 19 83.5 27t92.5 8zM273 62q63 0 99.5 40.5t43.5 112.5h-273q1 -74 34.5 -113.5t95.5 -39.5z" />
    <glyph glyph-name="uni01DE" unicode="&#x1de;" horiz-adv-x="639" 
d="M460 815q0 -23 -12.5 -36t-34.5 -13t-34.5 13t-12.5 36q0 26 14 38t33 12q20 0 33.5 -12t13.5 -38zM272 815q0 -26 -13.5 -37.5t-32.5 -11.5q-22 0 -34.5 13t-12.5 36q0 26 14 38t33 12t32.5 -12t13.5 -38zM171 1001h297v-71h-297v71zM476 241l-129 3q-96 0 -140 -2
q-11 -33 -31.5 -103.5t-33.5 -109.5t-46 -39q-19 0 -30.5 12t-11.5 26.5t1.5 23.5t7 27t11.5 34q29 86 42 126q-29 0 -45.5 12.5t-16.5 33.5q0 47 74 47h18q96 268 110.5 306.5t16.5 44.5t6.5 17.5t8 17t8.5 13.5t9.5 12.5t10.5 8.5q13 8 27.5 8t23.5 -3t17 -11t13.5 -17
t13 -28t13.5 -35q48 -147 120 -334l36 1q26 0 42.5 -14t16.5 -35q0 -44 -66 -47q10 -32 27 -81q39 -106 39 -122.5t-11.5 -30t-31.5 -13.5q-36 0 -52 39q-17 49 -68 212zM232 328q64 -2 123.5 -2t95.5 2q-105 302 -107 302q-6 0 -86 -226z" />
    <glyph glyph-name="uni01DF" unicode="&#x1df;" horiz-adv-x="561" 
d="M426 650q0 -23 -12.5 -36t-34.5 -13t-34.5 13t-12.5 36q0 26 14 38t33 12q20 0 33.5 -12t13.5 -38zM238 650q0 -26 -13.5 -37.5t-32.5 -11.5q-22 0 -34.5 13t-12.5 36q0 26 14 38t33 12t32.5 -12t13.5 -38zM137 836h297v-71h-297v71zM648 367q0 -112 14.5 -189.5
t35.5 -87.5q8 -4 19 -5.5t16 -4.5t5 -11q0 -36 -20 -59t-53 -23q-44 0 -66 50t-22 128q-53 -84 -111.5 -132t-131 -48t-122.5 34.5t-80 90.5q-60 115 -60 253q0 164 85 283t220 119q52 0 101.5 -19.5t82.5 -49.5q0 69 51 69q63 0 63 -101q0 -75 -27 -297zM569 355l-6 245
q-85 78 -186 78q-83 0 -146 -89.5t-63 -217.5t43.5 -213.5t118 -85.5t150 95t89.5 188z" />
    <glyph glyph-name="uni01E0" unicode="&#x1e0;" horiz-adv-x="639" 
d="M269 826q0 29 15 42.5t37 13.5q23 0 37 -15t14 -41t-14.5 -41t-36.5 -15t-37 13.5t-15 42.5zM171 1001h297v-71h-297v71zM476 241l-129 3q-96 0 -140 -2q-11 -33 -31.5 -103.5t-33.5 -109.5t-46 -39q-19 0 -30.5 12t-11.5 26.5t1.5 23.5t7 27t11.5 34q29 86 42 126
q-29 0 -45.5 12.5t-16.5 33.5q0 47 74 47h18q96 268 110.5 306.5t16.5 44.5t6.5 17.5t8 17t8.5 13.5t9.5 12.5t10.5 8.5q13 8 27.5 8t23.5 -3t17 -11t13.5 -17t13 -28t13.5 -35q48 -147 120 -334l36 1q26 0 42.5 -14t16.5 -35q0 -44 -66 -47q10 -32 27 -81
q39 -106 39 -122.5t-11.5 -30t-31.5 -13.5q-36 0 -52 39q-17 49 -68 212zM232 328q64 -2 123.5 -2t95.5 2q-105 302 -107 302q-6 0 -86 -226z" />
    <glyph glyph-name="uni01E1" unicode="&#x1e1;" horiz-adv-x="561" 
d="M235 662q0 29 15 42.5t37 13.5q23 0 37 -15t14 -41t-14.5 -41t-36.5 -15t-37 13.5t-15 42.5zM137 837h297v-71h-297v71zM648 367q0 -112 14.5 -189.5t35.5 -87.5q8 -4 19 -5.5t16 -4.5t5 -11q0 -36 -20 -59t-53 -23q-44 0 -66 50t-22 128q-53 -84 -111.5 -132t-131 -48
t-122.5 34.5t-80 90.5q-60 115 -60 253q0 164 85 283t220 119q52 0 101.5 -19.5t82.5 -49.5q0 69 51 69q63 0 63 -101q0 -75 -27 -297zM569 355l-6 245q-85 78 -186 78q-83 0 -146 -89.5t-63 -217.5t43.5 -213.5t118 -85.5t150 95t89.5 188z" />
    <glyph glyph-name="uni01E2" unicode="&#x1e2;" horiz-adv-x="880" 
d="M347 842h297v-71h-297v71zM338 623q-6 0 -81 -221l-25 -74q48 -3 78 -3t50.5 0.5t31.5 0.5q-39 237 -54 297zM676 0l-173 -5q-58 0 -67 49q-16 87 -33 198q-26 1 -100 1t-96 -1q-11 -33 -31.5 -103.5t-33.5 -109.5t-46 -39q-19 0 -30.5 12t-11.5 26.5t1.5 23.5t7 27
t11.5 34q29 86 42 126q-29 0 -45.5 12.5t-16.5 33.5q0 47 74 47h18q57 160 85.5 237t33.5 91.5t8.5 24t11 24t15.5 23.5q19 23 41 23l207 -5l129 6q27 0 43.5 -12.5t16.5 -34.5t-16.5 -34.5t-43.5 -12.5l-129 6q-72 0 -129 -5q1 -1 40 -217q34 -2 74 -2l149 5q27 0 43 -12.5
t16 -33.5q0 -44 -59 -44l-149 4q-38 0 -58 -1q43 -238 52 -273q79 -7 149 -7l129 6q27 0 43.5 -12.5t16.5 -34.5t-16.5 -34.5t-43.5 -12.5z" />
    <glyph glyph-name="uni01E3" unicode="&#x1e3;" horiz-adv-x="863" 
d="M283 677h297v-71h-297v71zM150 239q0 -71 48 -118t110 -47q84 0 147 71t63 198q-95 32 -184.5 32t-136.5 -41t-47 -95zM697 149.5q66 -76.5 146.5 -76.5t164.5 50q32 18 44 18t21.5 -9.5t9.5 -23.5q0 -35 -71.5 -78.5t-164.5 -43.5t-163.5 44.5t-111.5 119.5
q-43 -83 -113 -123.5t-155 -40.5q-106 0 -178 71.5t-72 184.5q0 91 75.5 156t180.5 65q61 0 102.5 -7.5t108.5 -26.5q0 134 -52.5 191.5t-133.5 57.5q-39 0 -72 -13t-51 -28q-47 -41 -69 -41q-46 0 -46 42.5t71.5 84.5t164 42t158 -41t99.5 -109q99 150 272 150
q96 0 164.5 -61t68.5 -148t-43 -142q-79 -99 -249 -99q-106 0 -181 14q9 -103 75 -179.5zM999 553q0 47 -35.5 86t-101.5 39q-93 0 -156.5 -78.5t-82.5 -182.5q69 -17 187 -17q80 0 134.5 39t54.5 114z" />
    <glyph glyph-name="uni01E4" unicode="&#x1e4;" horiz-adv-x="728" 
d="M407 377h247v-150h64v-71h-64v-129q-57 -18 -115.5 -27.5t-135.5 -9.5q-163 0 -252.5 97t-89.5 270q0 112 44.5 195.5t128 127.5t197.5 44t213 -42l-34 -78q-94 41 -184 41q-127 0 -199 -77t-72 -211q0 -142 68.5 -215.5t200.5 -73.5q72 0 140 17v71h-147v71h147v70h-157
v80z" />
    <glyph glyph-name="uni01E5" unicode="&#x1e5;" horiz-adv-x="615" 
d="M443 15l3 66h-4q-54 -81 -166 -81q-105 0 -163 71t-58 201q0 128 58 201t162 73q109 0 168 -81h5l12 71h70v-545q0 -20 -2 -37h57v-71h-72q-47 -123 -223 -123q-117 0 -193 34v81q78 -42 198 -42q77 0 117 50h-149v71h178l2 30v31zM289 72q83 0 119 42.5t36 136.5v16
q0 107 -37 156t-120 49q-68 0 -104.5 -50.5t-36.5 -150.5q0 -199 143 -199z" />
    <glyph glyph-name="Gcaron" unicode="&#x1e6;" horiz-adv-x="728" 
d="M281 896q64 -77 78 -77q16 0 85 80q22 26 41 26t30 -10.5t11 -28.5t-26.5 -40t-52.5 -52t-45.5 -46t-41 -16t-40.5 16t-45.5 46t-52.5 51.5t-26 40t11 29t23 10.5t17.5 -2t9.5 -4t9 -7l7 -7q3 -3 8 -9zM526 398l126 6q27 0 43.5 -13t16.5 -38q0 -170 -85.5 -269t-225 -99
t-234.5 114t-95 277t98 276t248 113q93 0 169.5 -37t76.5 -80q0 -19 -11.5 -30t-34 -11t-60.5 27q-61 44 -140 44q-108 0 -179 -89t-71 -211.5t68 -214t171 -91.5q85 0 142 63t61 179q-33 3 -84 3l-135 -5q-27 0 -42 12t-15 32.5t15 33.5t42 13z" />
    <glyph glyph-name="gcaron" unicode="&#x1e7;" horiz-adv-x="615" 
d="M171 731q64 -77 78 -77q16 0 85 80q22 26 41 26t30 -10.5t11 -28.5t-26.5 -40t-52.5 -52t-45.5 -46t-41 -16t-40.5 16t-45.5 46t-52.5 51.5t-26 40t11 29t23 10.5t17.5 -2t9.5 -4t9 -7l7 -7q3 -3 8 -9zM526 398l126 6q27 0 43.5 -13t16.5 -38q0 -170 -85.5 -269t-225 -99
t-234.5 114t-95 277t98 276t248 113q93 0 169.5 -37t76.5 -80q0 -19 -11.5 -30t-34 -11t-60.5 27q-61 44 -140 44q-108 0 -179 -89t-71 -211.5t68 -214t171 -91.5q85 0 142 63t61 179q-33 3 -84 3l-135 -5q-27 0 -42 12t-15 32.5t15 33.5t42 13z" />
    <glyph glyph-name="uni01E8" unicode="&#x1e8;" horiz-adv-x="619" 
d="M197 896q64 -77 78 -77q16 0 85 80q22 26 41 26t30 -10.5t11 -28.5t-26.5 -40t-52.5 -52t-45.5 -46t-41 -16t-40.5 16t-45.5 46t-52.5 51.5t-26 40t11 29t23 10.5t17.5 -2t9.5 -4t9 -7l7 -7q3 -3 8 -9zM208 337l5 -290q0 -24 -15 -40.5t-35.5 -16.5t-35 16.5t-14.5 40.5
l4 325l-4 330q0 24 14.5 40.5t35 16.5t35.5 -16.5t15 -40.5l-3 -90q-2 -90 -2 -178q27 8 69 8l56 -6q47 35 95.5 120.5t64.5 157.5q11 46 48 46q17 0 29.5 -13t12.5 -32q0 -62 -55.5 -163t-119.5 -166q102 -184 167 -267q35 -44 66 -44l11 1q7 0 7 -22t-18 -43t-46 -21
t-55 24q-55 47 -216 327l-64 -7q-36 0 -52 3z" />
    <glyph glyph-name="uni01E9" unicode="&#x1e9;" horiz-adv-x="534" 
d="M161 916q64 -77 78 -77q16 0 85 80q22 26 41 26t30 -10.5t11 -28.5t-26.5 -40t-52.5 -52t-45.5 -46t-41 -16t-40.5 16t-45.5 46t-52.5 51.5t-26 40t11 29t23 10.5t17.5 -2t9.5 -4t9 -7l7 -7q3 -3 8 -9zM208 337l5 -290q0 -24 -15 -40.5t-35.5 -16.5t-35 16.5t-14.5 40.5
l4 325l-4 330q0 24 14.5 40.5t35 16.5t35.5 -16.5t15 -40.5l-3 -90q-2 -90 -2 -178q27 8 69 8l56 -6q47 35 95.5 120.5t64.5 157.5q11 46 48 46q17 0 29.5 -13t12.5 -32q0 -62 -55.5 -163t-119.5 -166q102 -184 167 -267q35 -44 66 -44l11 1q7 0 7 -22t-18 -43t-46 -21
t-55 24q-55 47 -216 327l-64 -7q-36 0 -52 3z" />
    <glyph glyph-name="uni01EA" unicode="&#x1ea;" horiz-adv-x="780" 
d="M630 -154q0 -27 -34 -51.5t-83.5 -24.5t-86 29.5t-36.5 78.5q0 77 100 125h77q-93 -66 -93 -118q0 -18 14 -27.5t33.5 -9.5t45 12t37.5 12t19 -8.5t7 -17.5zM586.5 164q69.5 92 69.5 213t-69 211.5t-174.5 90.5t-175 -90.5t-69.5 -211t70 -213t174.5 -92.5t174 92z
M752 376q0 -163 -97.5 -277t-243 -114t-242.5 114t-97 277t98 276t243.5 113t242 -113t96.5 -276z" />
    <glyph glyph-name="uni01EB" unicode="&#x1eb;" horiz-adv-x="604" 
d="M532 -154q0 -27 -34 -51.5t-83.5 -24.5t-86 29.5t-36.5 78.5q0 77 100 125h77q-93 -66 -93 -118q0 -18 14 -27.5t33.5 -9.5t45 12t37.5 12t19 -8.5t7 -17.5zM586.5 164q69.5 92 69.5 213t-69 211.5t-174.5 90.5t-175 -90.5t-69.5 -211t70 -213t174.5 -92.5t174 92z
M752 376q0 -163 -97.5 -277t-243 -114t-242.5 114t-97 277t98 276t243.5 113t242 -113t96.5 -276z" />
    <glyph glyph-name="uni01EC" unicode="&#x1ec;" horiz-adv-x="780" 
d="M630 -154q0 -27 -34 -51.5t-83.5 -24.5t-86 29.5t-36.5 78.5q0 77 100 125h77q-93 -66 -93 -118q0 -18 14 -27.5t33.5 -9.5t45 12t37.5 12t19 -8.5t7 -17.5zM242 842h297v-71h-297v71zM586.5 164q69.5 92 69.5 213t-69 211.5t-174.5 90.5t-175 -90.5t-69.5 -211t70 -213
t174.5 -92.5t174 92zM752 376q0 -163 -97.5 -277t-243 -114t-242.5 114t-97 277t98 276t243.5 113t242 -113t96.5 -276z" />
    <glyph glyph-name="uni01ED" unicode="&#x1ed;" horiz-adv-x="604" 
d="M532 -154q0 -27 -34 -51.5t-83.5 -24.5t-86 29.5t-36.5 78.5q0 77 100 125h77q-93 -66 -93 -118q0 -18 14 -27.5t33.5 -9.5t45 12t37.5 12t19 -8.5t7 -17.5zM154 677h297v-71h-297v71zM586.5 164q69.5 92 69.5 213t-69 211.5t-174.5 90.5t-175 -90.5t-69.5 -211t70 -213
t174.5 -92.5t174 92zM752 376q0 -163 -97.5 -277t-243 -114t-242.5 114t-97 277t98 276t243.5 113t242 -113t96.5 -276z" />
    <glyph glyph-name="uni01EE" unicode="&#x1ee;" horiz-adv-x="583" 
d="M136 896q64 -77 78 -77q16 0 85 80q22 26 41 26t30 -10.5t11 -28.5t-26.5 -40t-52.5 -52t-45.5 -46t-41 -16t-40.5 16t-45.5 46t-52.5 51.5t-26 40t11 29t23 10.5t17.5 -2t9.5 -4t9 -7l7 -7q3 -3 8 -9zM291 440q68 -2 122.5 -30t85 -76.5t30.5 -112.5q0 -109 -76 -170
t-212 -61q-126 0 -206 39v82q49 -23 104 -35t103 -12q97 0 145 41t48 117q0 69 -49.5 107t-143.5 38h-62v65l206 202h-331v80h444v-71z" />
    <glyph glyph-name="uni01EF" unicode="&#x1ef;" horiz-adv-x="498" 
d="M218 228q115 -8 180.5 -68.5t65.5 -158.5q0 -70 -33 -125.5t-93.5 -85.5t-138.5 -30q-117 0 -185 35v80q89 -42 189 -42q79 0 126 45t47 121q0 77 -51 118t-151 41h-59v61l219 243h-306v74h409v-64zM91 731q64 -77 78 -77q16 0 85 80q22 26 41 26t30 -10.5t11 -28.5
t-26.5 -40t-52.5 -52t-45.5 -46t-41 -16t-40.5 16t-45.5 46t-52.5 51.5t-26 40t11 29t23 10.5t17.5 -2t9.5 -4t9 -7l7 -7q3 -3 8 -9z" />
    <glyph glyph-name="uni01F0" unicode="&#x1f0;" horiz-adv-x="257" 
d="M-7 731q64 -77 78 -77q16 0 85 80q22 26 41 26t30 -10.5t11 -28.5t-26.5 -40t-52.5 -52t-45.5 -46t-41 -16t-40.5 16t-45.5 46t-52.5 51.5t-26 40t11 29t23 10.5t17.5 -2t9.5 -4t9 -7l7 -7q3 -3 8 -9zM22 -240q-46 0 -77 12v71q34 -10 66 -10q38 0 56 21t18 63v619h88
v-616q0 -80 -38.5 -120t-112.5 -40z" />
    <glyph glyph-name="uni01F1" unicode="&#x1f1;" horiz-adv-x="1291" 
d="M128 376l-5 260q-44 4 -44 41.5t79 62t163.5 24.5t157.5 -33t117 -89q91 -114 91 -270q0 -152 -87 -264q-43 -56 -114 -89.5t-169 -33.5t-170 25t-72 64q0 37 50 37zM519.5 589.5q-71.5 88.5 -206.5 88.5q-57 0 -91 -17q-3 -62 -3 -270.5t5 -305.5q36 -13 101 -13
t117.5 26t83.5 70q65 90 65 211.5t-71.5 210zM1015 750l203 5q57 0 57 -41q0 -25 -20.5 -61t-79 -122.5t-104.5 -162.5l-171 -281q57 -5 127.5 -5t132.5 3.5t79.5 3.5t34 -12.5t16.5 -34.5t-16.5 -34.5t-43.5 -12.5l-175 5l-229 -5q-57 0 -57 43q0 24 24.5 65.5t87 134.5
t112.5 175l152 251q-45 4 -109 4t-126 -3.5t-79.5 -3.5t-34 12.5t-16.5 34.5t16.5 34.5t43.5 12.5z" />
    <glyph glyph-name="uni01F2" unicode="&#x1f2;" horiz-adv-x="1200" 
d="M128 376l-5 260q-44 4 -44 41.5t79 62t163.5 24.5t157.5 -33t117 -89q91 -114 91 -270q0 -152 -87 -264q-43 -56 -114 -89.5t-169 -33.5t-170 25t-72 64q0 37 50 37zM519.5 589.5q-71.5 88.5 -206.5 88.5q-57 0 -91 -17q-3 -62 -3 -270.5t5 -305.5q36 -13 101 -13
t117.5 26t83.5 70q65 90 65 211.5t-71.5 210zM1025 750l203 5q57 0 57 -41q0 -25 -20.5 -61t-79 -122.5t-104.5 -162.5l-171 -281q57 -5 127.5 -5t132.5 3.5t79.5 3.5t34 -12.5t16.5 -34.5t-16.5 -34.5t-43.5 -12.5l-175 5l-229 -5q-57 0 -57 43q0 24 24.5 65.5t87 134.5
t112.5 175l152 251q-45 4 -109 4t-126 -3.5t-79.5 -3.5t-34 12.5t-16.5 34.5t16.5 34.5t43.5 12.5z" />
    <glyph glyph-name="uni01F3" unicode="&#x1f3;" horiz-adv-x="1084" 
d="M128 376l-5 260q-44 4 -44 41.5t79 62t163.5 24.5t157.5 -33t117 -89q91 -114 91 -270q0 -152 -87 -264q-43 -56 -114 -89.5t-169 -33.5t-170 25t-72 64q0 37 50 37zM519.5 589.5q-71.5 88.5 -206.5 88.5q-57 0 -91 -17q-3 -62 -3 -270.5t5 -305.5q36 -13 101 -13
t117.5 26t83.5 70q65 90 65 211.5t-71.5 210zM910 750l203 5q57 0 57 -41q0 -25 -20.5 -61t-79 -122.5t-104.5 -162.5l-171 -281q57 -5 127.5 -5t132.5 3.5t79.5 3.5t34 -12.5t16.5 -34.5t-16.5 -34.5t-43.5 -12.5l-175 5l-229 -5q-57 0 -57 43q0 24 24.5 65.5t87 134.5
t112.5 175l152 251q-45 4 -109 4t-126 -3.5t-79.5 -3.5t-34 12.5t-16.5 34.5t16.5 34.5t43.5 12.5z" />
    <glyph glyph-name="uni01F4" unicode="&#x1f4;" horiz-adv-x="728" 
d="M526 398l126 6q27 0 43.5 -13t16.5 -38q0 -170 -85.5 -269t-225 -99t-234.5 114t-95 277t98 276t248 113q93 0 169.5 -37t76.5 -80q0 -19 -11.5 -30t-34 -11t-60.5 27q-61 44 -140 44q-108 0 -179 -89t-71 -211.5t68 -214t171 -91.5q85 0 142 63t61 179q-33 3 -84 3
l-135 -5q-27 0 -42 12t-15 32.5t15 33.5t42 13zM419 861q0 -44 -47.5 -88.5t-79.5 -44.5q-16 0 -24.5 8t-8.5 20t24 41.5t33 49.5t14.5 29.5t18 19t30 9.5t29 -13.5t11.5 -30.5z" />
    <glyph glyph-name="uni01F5" unicode="&#x1f5;" horiz-adv-x="615" 
d="M526 398l126 6q27 0 43.5 -13t16.5 -38q0 -170 -85.5 -269t-225 -99t-234.5 114t-95 277t98 276t248 113q93 0 169.5 -37t76.5 -80q0 -19 -11.5 -30t-34 -11t-60.5 27q-61 44 -140 44q-108 0 -179 -89t-71 -211.5t68 -214t171 -91.5q85 0 142 63t61 179q-33 3 -84 3
l-135 -5q-27 0 -42 12t-15 32.5t15 33.5t42 13zM281 696q0 -44 -47.5 -88.5t-79.5 -44.5q-16 0 -24.5 8t-8.5 20t24 41.5t33 49.5t14.5 29.5t18 19t30 9.5t29 -13.5t11.5 -30.5z" />
    <glyph glyph-name="uni01F6" unicode="&#x1f6;" horiz-adv-x="937" 
d="M187 333v-333h-90v714h90v-302h296v302h90v-550q0 -45 23 -70t70 -25q44 0 68 25t24 71v371h90v-371q0 -81 -49 -127.5t-136 -46.5q-85 0 -132.5 46t-47.5 129v167h-296z" />
    <glyph glyph-name="uni01F7" unicode="&#x1f7;" horiz-adv-x="661" 
d="M389 725q103 0 160 -64t57 -179q0 -161 -106.5 -284.5t-312.5 -207.5v-230h-90v955h71l15 -97h5q37 55 86.5 81t114.5 26zM187 74q161 67 245 171.5t84 235.5q0 81 -37 123.5t-106 42.5q-94 0 -140 -55.5t-46 -173.5v-344z" />
    <glyph glyph-name="uni01F8" unicode="&#x1f8;" horiz-adv-x="759" 
d="M626 372l3 -310q0 -72 -53 -72q-33 0 -50 31l-317 546q0 -233 2.5 -372t2.5 -155.5t-15 -33t-35.5 -16.5t-35 16.5t-14.5 41.5l4 324q0 103 -2.5 209t-2.5 108q0 71 51 71q37 0 55 -31q291 -500 317 -540q0 283 -3 390t-3 110q0 71 51 71t51 -71q0 -8 -2 -53
q-4 -133 -4 -264zM135 861q0 17 11.5 30.5t29 13.5t30 -9.5t18 -19t14.5 -29.5t33 -49.5t24 -41.5t-8.5 -20t-24.5 -8q-32 0 -79.5 44.5t-47.5 88.5z" />
    <glyph glyph-name="uni01F9" unicode="&#x1f9;" horiz-adv-x="618" 
d="M670 497l-7 -282q0 -38 1 -57t8 -40t21 -27q8 -4 19 -5.5t16 -4.5t5 -11q0 -35 -22 -58.5t-52 -23.5q-52 0 -71.5 40t-19.5 119l6 284q0 109 -38 174.5t-110.5 65.5t-140.5 -87.5t-94 -198.5l4 -328q0 -69 -51 -69q-62 0 -62 104.5t27 292.5q0 65 -11.5 176.5
t-11.5 136.5t14 43.5t38.5 18.5t38.5 -18.5t14 -41.5t-0.5 -55.5t-0.5 -55.5q98 171 248 171q111 0 171.5 -76.5t60.5 -186.5zM74 696q0 17 11.5 30.5t29 13.5t30 -9.5t18 -19t14.5 -29.5t33 -49.5t24 -41.5t-8.5 -20t-24.5 -8q-32 0 -79.5 44.5t-47.5 88.5z" />
    </font>
</defs>
</svg>
