<?xml version="1.0" standalone="no"?>
<!DOCTYPE svg PUBLIC "-//W3C//DTD SVG 1.1//EN" "http://www.w3.org/Graphics/SVG/1.1/DTD/svg11.dtd" >
<svg xmlns="http://www.w3.org/2000/svg" xmlns:xlink="http://www.w3.org/1999/xlink" version="1.1">
<metadata>
Created by FontForge 20190801 at Mon Feb  8 12:14:08 2021
 By root
Copyright 2011 The Dosis Project Authors (impallari@gmail.com)
</metadata>
<defs>
<font id="Dosis-Regular" horiz-adv-x="200" >
  <font-face 
    font-family="Dosis"
    font-weight="400"
    font-stretch="normal"
    units-per-em="1000"
    panose-1="0 0 0 0 0 0 0 0 0 0"
    ascent="800"
    descent="-200"
    x-height="473"
    cap-height="731"
    bbox="-213 -241 1197 1046"
    underline-thickness="50"
    underline-position="-125"
    unicode-range="U+0001-206F"
  />
<missing-glyph horiz-adv-x="364" 
d="M33 0v666h265v-666h-265zM66 33h199v600h-199v-600z" />
    <glyph glyph-name=".notdef" horiz-adv-x="364" 
d="M33 0v666h265v-666h-265zM66 33h199v600h-199v-600z" />
    <glyph glyph-name=".null" horiz-adv-x="0" 
 />
    <glyph glyph-name="nonmarkingreturn" horiz-adv-x="333" 
 />
    <glyph glyph-name="NULL" 
 />
    <glyph glyph-name="NULL" 
 />
    <glyph glyph-name="uni0001" 
 />
    <glyph glyph-name="uni0002" 
 />
    <glyph glyph-name="uni0003" 
 />
    <glyph glyph-name="uni0004" 
 />
    <glyph glyph-name="uni0005" 
 />
    <glyph glyph-name="uni0006" 
 />
    <glyph glyph-name="uni0007" 
 />
    <glyph glyph-name="uni0008" 
 />
    <glyph glyph-name="uni0009" unicode="&#x9;" 
 />
    <glyph glyph-name="uni000A" unicode="&#xa;" 
 />
    <glyph glyph-name="uni000B" 
 />
    <glyph glyph-name="uni000C" 
 />
    <glyph glyph-name="CR" unicode="&#xd;" 
 />
    <glyph glyph-name="uni000E" 
 />
    <glyph glyph-name="uni000F" 
 />
    <glyph glyph-name="uni0010" 
 />
    <glyph glyph-name="uni0011" 
 />
    <glyph glyph-name="uni0012" 
 />
    <glyph glyph-name="uni0013" 
 />
    <glyph glyph-name="uni0014" 
 />
    <glyph glyph-name="uni0015" 
 />
    <glyph glyph-name="uni0016" 
 />
    <glyph glyph-name="uni0017" 
 />
    <glyph glyph-name="uni0018" 
 />
    <glyph glyph-name="uni0019" 
 />
    <glyph glyph-name="uni001A" 
 />
    <glyph glyph-name="uni001B" 
 />
    <glyph glyph-name="uni001C" 
 />
    <glyph glyph-name="uni001D" 
 />
    <glyph glyph-name="uni001E" 
 />
    <glyph glyph-name="uni001F" 
 />
    <glyph glyph-name="space" unicode=" " 
 />
    <glyph glyph-name="exclam" unicode="!" horiz-adv-x="202" 
d="M101 165q-10 0 -18 6t-8 17q0 82 -3 170.5t-6 176.5t-3 170q0 19 11 29t27 10q15 0 26.5 -10t11.5 -29q0 -82 -2.5 -170t-6 -176.5t-3.5 -170.5q0 -11 -9 -17t-17 -6zM102 -6q-20 0 -33 14t-13 32q0 20 13 33.5t33 13.5q18 0 31.5 -13.5t13.5 -33.5q0 -18 -13.5 -32
t-31.5 -14z" />
    <glyph glyph-name="quotedbl" unicode="&#x22;" horiz-adv-x="270" 
d="M200 576q-12 0 -17 7t-5 16l-10 147q0 10 10.5 16t21.5 6t21.5 -6t10.5 -16l-10 -147q0 -9 -5 -16t-17 -7zM70 576q-12 0 -17 7t-5 16l-10 147q0 10 10.5 16t21.5 6t21.5 -6t10.5 -16l-10 -147q0 -9 -5 -16t-17 -7z" />
    <glyph glyph-name="numbersign" unicode="#" horiz-adv-x="590" 
d="M152 34q-12 0 -22 7.5t-10 21.5l29 190h-96q-12 0 -18 7t-6 18t6 18.5t14 7.5h110l25 160h-97q-12 0 -18 7t-6 19q0 11 6 18t14 7h110l29 183q2 7 9.5 11t16.5 4q14 0 22.5 -7.5t8.5 -21.5l-27 -169h127l29 183q2 7 9.5 11t16.5 4q14 0 22.5 -7.5t9.5 -21.5l-28 -169h98
q9 0 17 -6.5t8 -18.5q0 -10 -6.5 -18t-14.5 -8h-110l-26 -160h98q9 0 17 -7t8 -19q0 -10 -6.5 -17.5t-14.5 -7.5h-111l-31 -199q-1 -9 -9.5 -14.5t-18.5 -5.5q-7 0 -14.5 3.5t-12 9.5t-4.5 16l30 190h-126l-31 -198q-1 -11 -9.5 -16t-16.5 -5zM218 304h126l26 160h-126z" />
    <glyph glyph-name="dollar" unicode="$" horiz-adv-x="498" 
d="M262 -52q-9 0 -16 6t-7 14v35q-63 1 -107.5 20t-68.5 45t-24 43q0 8 4.5 17t11.5 14.5t14 5.5q9 0 19.5 -12t28 -28t46.5 -28.5t76 -13.5v291q-33 12 -65 25t-58.5 33t-42.5 51.5t-16 79.5q0 47 16 79t42.5 51.5t59 29.5t64.5 12v31q0 8 7 13.5t16 5.5t16 -5.5t7 -13.5
v-29q28 -1 54.5 -6t48.5 -13t35.5 -18.5t13.5 -23.5q0 -6 -3.5 -14.5t-10 -15.5t-15.5 -7q-8 0 -22.5 8.5t-38.5 17.5t-62 11v-248q31 -11 61.5 -26t55 -38t39 -58t14.5 -87q0 -91 -47.5 -139t-122.5 -57v-38q0 -8 -7 -14t-16 -6zM283 68q53 8 81 40.5t28 87.5q0 44 -15 71
t-39.5 44.5t-54.5 29.5v-273zM242 426v232q-32 -2 -59.5 -13t-44.5 -33t-17 -60q0 -39 16.5 -62.5t44 -37.5t60.5 -26z" />
    <glyph glyph-name="percent" unicode="%" horiz-adv-x="758" 
d="M193 -26q-11 0 -18.5 7t-7.5 17q0 7 2 12l381 747q6 12 21 12q9 0 18.5 -7.5t9.5 -19.5q0 -7 -3 -13l-379 -741q-4 -7 -10.5 -10.5t-13.5 -3.5zM164 351q-52 0 -87.5 26t-35.5 88v152q0 62 35.5 88t87.5 26q36 0 64 -11t44 -36t16 -67v-152q0 -41 -16 -66t-44 -36.5
t-64 -11.5zM164 396q35 0 54.5 17t19.5 52v152q0 35 -19.5 52t-54.5 17q-34 0 -53.5 -17t-19.5 -52v-152q0 -35 19.5 -52t53.5 -17zM593 -3q-52 0 -87.5 26t-35.5 88v152q0 62 35.5 88t87.5 26q36 0 64 -11t44 -36t16 -67v-152q0 -42 -16 -67t-44 -36t-64 -11zM593 42
q35 0 54.5 17t19.5 52v152q0 35 -19.5 52t-54.5 17q-34 0 -53.5 -17t-19.5 -52v-152q0 -35 19.5 -52t53.5 -17z" />
    <glyph glyph-name="ampersand" unicode="&#x26;" horiz-adv-x="610" 
d="M265 -10q-73 0 -124 29.5t-78.5 78t-27.5 105.5q0 51 20 90t51.5 66.5t64.5 42.5q-30 36 -55.5 77.5t-25.5 98.5q0 55 25 93t66 57.5t90 19.5q55 0 91 -18t54 -41t18 -37q0 -12 -9 -21t-22 -9q-10 0 -19 10.5t-21.5 25t-33.5 25t-55 10.5q-54 0 -85 -32.5t-31 -86.5
q0 -35 13.5 -64.5t35 -56t44.5 -52.5l204 -222q20 48 26 98t7 84q1 14 7 20.5t23 6.5q16 0 22 -8.5t6 -26.5q0 -20 -4 -56t-14 -79t-32 -84l92 -99q3 -3 4.5 -7t1.5 -7q0 -11 -9.5 -19.5t-20.5 -8.5q-5 0 -9.5 2t-9.5 7l-81 87q-31 -43 -80 -71t-119 -28zM273 50q56 0 92 23
t59 58l-215 229q-23 -12 -47.5 -31.5t-42 -48t-17.5 -71.5q0 -42 20 -78.5t58.5 -58.5t92.5 -22z" />
    <glyph glyph-name="quotesingle" unicode="'" horiz-adv-x="140" 
d="M70 576q-12 0 -17 7t-5 16l-10 147q0 10 10.5 16t21.5 6t21.5 -6t10.5 -16l-10 -147q0 -9 -5 -16t-17 -7z" />
    <glyph glyph-name="parenleft" unicode="(" horiz-adv-x="298" 
d="M247 -20q-39 0 -72.5 11t-59 32.5t-40 53.5t-14.5 74v433q0 38 14.5 71t40.5 58.5t59.5 40t72.5 14.5q17 0 24.5 -8.5t7.5 -20.5q0 -13 -7 -22t-18 -9q-41 0 -69.5 -18.5t-43.5 -47t-15 -58.5v-433q0 -45 20.5 -69.5t50 -33t57.5 -8.5q15 0 20 -10t5 -20q0 -13 -8 -21.5
t-25 -8.5z" />
    <glyph glyph-name="parenright" unicode=")" horiz-adv-x="298" 
d="M52 -20q-18 0 -25.5 8.5t-7.5 21.5q0 10 4.5 20t19.5 10q29 0 58 8.5t49.5 33t20.5 69.5v433q0 30 -15 58.5t-43.5 47t-69.5 18.5q-10 0 -17 9t-7 22q0 12 7.5 20.5t24.5 8.5q38 0 71.5 -14.5t59.5 -40t40.5 -58.5t14.5 -71v-433q0 -42 -14.5 -74t-40 -53.5t-59 -32.5
t-71.5 -11z" />
    <glyph glyph-name="asterisk" unicode="*" horiz-adv-x="435" 
d="M124 381q-6 0 -13.5 3t-12.5 9.5t-5 14.5q0 9 6 16l79 106l-126 38q-9 2 -13 9t-4 15q0 11 7.5 20t19.5 9h3.5t4.5 -1l126 -44l-5 130q0 13 8 19t19 6q10 0 18 -6t8 -19l-4 -131l126 45q3 1 8 1q11 0 18.5 -10t7.5 -20q0 -8 -4.5 -14.5t-13.5 -8.5l-125 -36l81 -109
q5 -5 5 -14q0 -12 -9.5 -20t-21.5 -8q-4 0 -9.5 2t-9.5 8l-75 112l-77 -113q-3 -5 -7.5 -7t-9.5 -2z" />
    <glyph glyph-name="plus" unicode="+" horiz-adv-x="434" 
d="M218 56q-12 0 -21 7t-9 17v132h-131q-11 0 -18 8t-7 20q0 13 7 21.5t18 8.5h131v130q0 10 9 18t21 8q13 0 20.5 -8t7.5 -18v-130h131q9 0 17 -8.5t8 -21.5q0 -12 -8 -20t-17 -8h-131v-132q0 -10 -7.5 -17t-20.5 -7z" />
    <glyph glyph-name="comma" unicode="," horiz-adv-x="171" 
d="M73 -84q-9 0 -17 5t-8 14q0 6 2 10l20 52q-14 5 -22 17t-8 26q0 20 13 33.5t32 13.5q18 0 32 -12.5t14 -34.5q0 -3 -0.5 -8t-4.5 -16t-12 -32t-22 -55q-2 -7 -7.5 -10t-11.5 -3z" />
    <glyph glyph-name="hyphen" unicode="-" horiz-adv-x="400" 
d="M70 212q-11 0 -18 8t-7 20q0 13 7 21.5t18 8.5h260q10 0 17.5 -8.5t7.5 -21.5q0 -12 -7.5 -20t-17.5 -8h-260z" />
    <glyph glyph-name="period" unicode="." horiz-adv-x="171" 
d="M86 -6q-20 0 -33 14t-13 32q0 20 13 33.5t33 13.5q18 0 31.5 -13.5t13.5 -33.5q0 -18 -13.5 -32t-31.5 -14z" />
    <glyph glyph-name="slash" unicode="/" horiz-adv-x="474" 
d="M47 -26q-11 0 -18.5 7t-7.5 17q0 7 3 12l381 747q6 12 20 12q10 0 19 -7.5t9 -19.5q0 -7 -3 -13l-379 -741q-4 -7 -10.5 -10.5t-13.5 -3.5z" />
    <glyph glyph-name="zero" unicode="0" horiz-adv-x="533" 
d="M266 -6q-58 0 -105 21t-74.5 68t-27.5 125v310q0 77 27.5 124t74 68t105.5 21t106 -21t75 -68t28 -124v-310q0 -78 -28 -125t-75 -68t-106 -21zM266 55q67 0 105 37t38 116v310q0 78 -38 115t-105 37t-104 -37t-37 -115v-310q0 -79 37 -116t104 -37zM267 325
q-16 0 -26.5 11t-10.5 26q0 16 10.5 26t26.5 10t26 -10t10 -26q0 -15 -10 -26t-26 -11z" />
    <glyph glyph-name="one" unicode="1" horiz-adv-x="234" 
d="M132 0q-13 0 -23 6.5t-10 19.5v593l-40 -65q-4 -6 -9 -9t-10 -3q-11 0 -18.5 9t-7.5 20q0 7 5 16.5t10 13.5l82 116q5 6 10 10.5t15 4.5q11 0 20 -6.5t9 -18.5v-681q0 -13 -10.5 -19.5t-22.5 -6.5z" />
    <glyph glyph-name="two" unicode="2" horiz-adv-x="475" 
d="M65 0q-10 0 -20.5 7t-10.5 19v97q0 41 24.5 76t63 66t82 61t81.5 62.5t62.5 68.5t24.5 80q0 32 -14.5 62t-44.5 50t-76 20q-51 0 -86 -29.5t-35 -88.5q0 -10 -9 -18.5t-26 -8.5q-15 0 -22.5 9t-7.5 32q0 49 25 86t67.5 58.5t95.5 21.5q58 0 102.5 -25.5t70.5 -69
t26 -97.5q0 -53 -24.5 -96t-62.5 -78t-81 -65t-81 -58t-62.5 -57t-24.5 -62v-62h319q10 0 17 -8.5t7 -21.5q0 -12 -7 -21.5t-17 -9.5h-356z" />
    <glyph glyph-name="three" unicode="3" horiz-adv-x="488" 
d="M236 -6q-53 0 -92 15.5t-65 39.5t-38 53t-12 57q0 21 7.5 28t22.5 7q21 0 28 -7.5t7 -20.5q0 -16 6.5 -35.5t22.5 -36.5t43 -28t68 -11q71 0 108 36.5t37 113.5v19q0 69 -39 101t-104 32q-13 0 -19 8.5t-6 19.5t6 20t19 9q40 0 68 11.5t42.5 39.5t14.5 77q0 65 -29 97
t-92 32q-39 0 -64.5 -10.5t-39.5 -27t-19 -34.5t-5 -35q0 -14 -7.5 -23t-24.5 -9q-14 0 -21 3t-10 12t-3 23q0 21 8.5 48.5t30 53t59.5 42.5t98 17q54 0 95 -17t64.5 -55.5t23.5 -103.5q0 -68 -23.5 -110t-58.5 -59q44 -18 73 -57t29 -105v-19q0 -77 -28 -123t-75.5 -67
t-105.5 -21z" />
    <glyph glyph-name="four" unicode="4" horiz-adv-x="444" 
d="M320 0q-12 0 -22.5 6.5t-10.5 19.5v146h-254q-12 0 -19 7.5t-7 19.5q0 5 1.5 9t2.5 8l251 495q6 11 14.5 15.5t16.5 4.5q7 0 14.5 -3t12.5 -9t5 -15q0 -5 -3 -13l-230 -456h195v193q0 13 10.5 19t22.5 6q13 0 23 -6t10 -19v-193h55q13 0 19.5 -9.5t6.5 -21.5t-7.5 -22
t-18.5 -10h-55v-146q0 -13 -10 -19.5t-23 -6.5z" />
    <glyph glyph-name="five" unicode="5" horiz-adv-x="475" 
d="M235 -6q-65 0 -112 23.5t-71.5 62t-24.5 84.5q0 19 9 26t24 7q18 0 25.5 -8t7.5 -20q0 -36 19 -61.5t51 -39t71 -13.5q67 0 105 37t38 114v19q0 75 -38 111.5t-103 36.5h-140q-20 0 -26.5 7.5t-6.5 17.5q0 6 0.5 10.5t0.5 9.5l20 288q1 11 6 18t15 7h280q11 0 16.5 -9.5
t5.5 -20.5q0 -12 -5.5 -21.5t-16.5 -9.5h-242l-17 -240h110q58 0 105 -20t74.5 -65t27.5 -120v-19q0 -77 -27.5 -123.5t-75 -67.5t-105.5 -21z" />
    <glyph glyph-name="six" unicode="6" horiz-adv-x="519" 
d="M267 -6q-58 0 -105.5 21t-75 68t-27.5 125v310q0 77 28 124t75 68t107 21q50 0 88.5 -14t64.5 -38.5t39.5 -55t13.5 -63.5q0 -16 -8.5 -23t-22.5 -7t-24.5 6t-10.5 21q0 35 -19 60t-51.5 39t-71.5 14q-67 0 -104.5 -37t-37.5 -115v-153q25 35 64.5 50.5t86.5 15.5
q55 0 100 -18t72 -61.5t27 -119.5v-24q0 -78 -28 -125t-74.5 -68t-105.5 -21zM267 53q67 0 104.5 37t37.5 115v24q0 79 -37.5 112t-104.5 33q-65 0 -103.5 -30.5t-38.5 -105.5v-33q0 -78 37.5 -115t104.5 -37z" />
    <glyph glyph-name="seven" unicode="7" horiz-adv-x="460" 
d="M115 -1q-10 0 -19.5 3.5t-15 10.5t-5.5 17q0 7 4 14l299 572v54h-284v-115q0 -10 -10 -17.5t-23 -7.5t-23 7.5t-10 17.5v151q0 9 9.5 17t20.5 8h355q11 0 21 -8t10 -17v-86q0 -6 -2.5 -14t-7.5 -15l-297 -580q-6 -12 -22 -12z" />
    <glyph glyph-name="eight" unicode="8" horiz-adv-x="503" 
d="M252 -6q-58 0 -105.5 20.5t-75 66t-27.5 119.5v12q0 77 30 122.5t79 64.5q-40 16 -64.5 54.5t-24.5 102.5q0 66 25 104.5t67.5 54.5t95.5 16q54 0 96.5 -16t67 -54.5t24.5 -104.5q0 -64 -24.5 -102.5t-63.5 -54.5q49 -19 78.5 -64.5t29.5 -122.5v-12q0 -74 -28 -119.5
t-74.5 -66t-105.5 -20.5zM253 52q66 0 103.5 38t37.5 115v14q0 77 -38 113t-104 36t-104 -36t-38 -113v-14q0 -78 38 -115.5t105 -37.5zM252 427q58 0 91 29t33 95q0 65 -33 93.5t-91 28.5t-90.5 -28.5t-32.5 -93.5q0 -66 32.5 -95t90.5 -29z" />
    <glyph glyph-name="nine" unicode="9" horiz-adv-x="519" 
d="M250 -6q-50 0 -88.5 14t-64.5 39t-39.5 55t-13.5 63q0 17 8.5 24t22.5 7t24.5 -6.5t10.5 -21.5q0 -35 19 -60t51.5 -39t71.5 -14q67 0 104.5 37t37.5 116v153q-25 -35 -64.5 -51t-86.5 -16q-55 0 -100 18.5t-72 61.5t-27 120v24q0 77 28 124t74.5 68t105.5 21
q58 0 105.5 -21t75 -68t27.5 -124v-310q0 -78 -28 -125t-75 -68t-107 -21zM252 351q65 0 103.5 31.5t38.5 104.5v33q0 79 -37.5 116t-104.5 37t-104.5 -37t-37.5 -116v-24q0 -79 37.5 -112t104.5 -33z" />
    <glyph glyph-name="colon" unicode=":" horiz-adv-x="201" 
d="M101 330q-20 0 -33 14t-13 32q0 19 13 32.5t33 13.5q18 0 31.5 -13.5t13.5 -32.5q0 -18 -13.5 -32t-31.5 -14zM101 -6q-20 0 -33 14t-13 32q0 20 13 33.5t33 13.5q18 0 31.5 -13.5t13.5 -33.5q0 -18 -13.5 -32t-31.5 -14z" />
    <glyph glyph-name="semicolon" unicode=";" horiz-adv-x="203" 
d="M87 -84q-8 0 -16 5t-8 14q0 6 2 10l19 52q-13 5 -21.5 17t-8.5 26q0 20 13 33.5t32 13.5q18 0 32.5 -12.5t14.5 -34.5q0 -3 -1 -8t-4.5 -16t-11.5 -32t-22 -55q-3 -7 -8.5 -10t-11.5 -3zM103 330q-21 0 -34 14t-13 32q0 19 13 32.5t34 13.5q18 0 31.5 -13.5t13.5 -32.5
q0 -18 -13.5 -32t-31.5 -14z" />
    <glyph glyph-name="less" unicode="&#x3c;" horiz-adv-x="403" 
d="M324 68q-6 0 -12 4l-269 178q-8 4 -12 11.5t-4 15.5t4.5 16t11.5 12l269 178q6 4 12 4q11 0 21 -9t10 -22q0 -15 -11 -21l-238 -158l238 -157q11 -6 11 -21q0 -13 -10 -22t-21 -9z" />
    <glyph glyph-name="equal" unicode="=" horiz-adv-x="435" 
d="M91 340q-10 0 -17 8.5t-7 20.5q0 13 7 21t17 8h253q9 0 17 -8t8 -21q0 -12 -8 -20.5t-17 -8.5h-253zM91 137q-10 0 -17 8.5t-7 20.5q0 13 7 21t17 8h253q9 0 17 -8t8 -21q0 -12 -8 -20.5t-17 -8.5h-253z" />
    <glyph glyph-name="greater" unicode="&#x3e;" horiz-adv-x="403" 
d="M79 68q-10 0 -20.5 9t-10.5 22q0 15 11 21l238 157l-238 158q-11 6 -11 21q0 13 10.5 22t20.5 9q7 0 12 -4l270 -178q6 -4 10.5 -12t4.5 -16t-4 -15.5t-11 -11.5l-270 -178q-5 -4 -12 -4z" />
    <glyph glyph-name="question" unicode="?" horiz-adv-x="401" 
d="M171 165q-12 0 -19.5 6.5t-7.5 22.5q0 56 6 89t16 52t21 33q16 17 36.5 34.5t40 40t32.5 51t13 67.5q0 60 -35 94t-100 34q-33 0 -53.5 -7.5t-32.5 -17t-20.5 -17t-18.5 -7.5q-8 0 -16.5 7t-8.5 20q0 16 20 34t55 30.5t78 12.5q63 0 105 -24t63 -64t21 -90q0 -47 -15 -82
t-37.5 -61.5t-45 -46t-35.5 -36.5q-17 -18 -24 -39t-9 -48t-2 -65q0 -11 -6.5 -17t-20.5 -6zM171 -6q-20 0 -33 14t-13 32q0 20 13.5 33.5t32.5 13.5t32.5 -13.5t13.5 -33.5q0 -18 -13.5 -32t-32.5 -14z" />
    <glyph glyph-name="at" unicode="@" horiz-adv-x="719" 
d="M330 -103q-53 0 -102.5 19t-88.5 58t-61.5 99.5t-22.5 143.5q0 94 32.5 171.5t102 123.5t179.5 46q99 0 168 -37.5t104.5 -109t35.5 -175.5q0 -53 -11.5 -99.5t-37.5 -75.5t-72 -29q-37 0 -64 19.5t-33 45.5q-26 -27 -52.5 -41.5t-70.5 -14.5q-33 0 -62 10.5t-46 34.5
t-17 64q0 46 24 70.5t68 33.5t104 9h43v19q0 44 -23.5 64.5t-74.5 20.5q-32 0 -49.5 -6t-27.5 -12.5t-18 -6.5q-6 0 -11 5t-7.5 12t-2.5 11q0 14 19.5 25t48.5 17.5t58 6.5q44 0 75.5 -15t49 -43.5t17.5 -69.5v-166q3 -23 20 -36.5t36 -13.5q21 0 34.5 14.5t20.5 38t9.5 50
t2.5 51.5q0 131 -63.5 205.5t-196.5 74.5q-75 0 -125 -23.5t-80.5 -65t-44 -93.5t-13.5 -109q0 -53 12 -102.5t39 -88t71.5 -61t110.5 -22.5q44 0 71.5 8t44 15.5t25.5 7.5q10 0 15.5 -7.5t5.5 -14.5q0 -10 -15 -20t-40.5 -18t-55.5 -13t-58 -5zM343 85q34 0 58 13t37.5 32
t13.5 37v55h-41q-41 0 -73.5 -4.5t-51.5 -20t-19 -47.5q0 -34 22 -49.5t54 -15.5z" />
    <glyph glyph-name="A" unicode="A" horiz-adv-x="538" 
d="M58 0q-8 0 -17 3.5t-15 10t-6 14.5q0 4 1 7l209 679q4 12 15 17.5t24 5.5q14 0 25.5 -6t14.5 -17l208 -679q1 -3 1 -6q0 -8 -6 -14.5t-15 -10.5t-19 -4q-8 0 -15 4t-9 13l-47 154h-276l-46 -154q-3 -9 -10 -13t-17 -4zM147 228h243l-121 403z" />
    <glyph glyph-name="B" unicode="B" horiz-adv-x="538" 
d="M106 0q-13 0 -21.5 7.5t-8.5 17.5v681q0 12 9.5 18.5t20.5 6.5h164q56 0 102.5 -13t74 -49.5t27.5 -107.5q0 -63 -23.5 -105.5t-61.5 -59.5q31 -12 54 -33t36 -54t13 -85v-18q0 -76 -26 -121t-71 -65t-100 -20h-189zM142 61h144q66 0 103 35.5t37 112.5v17q0 78 -37 110
t-103 32h-144v-307zM142 425h130q70 0 103 29t33 100q0 47 -18 72t-49 34.5t-73 9.5h-126v-245z" />
    <glyph glyph-name="C" unicode="C" horiz-adv-x="525" 
d="M276 -6q-56 0 -103.5 21t-75.5 68t-28 125v310q0 77 28.5 124t76 68t104.5 21q66 0 112 -23t70.5 -61t24.5 -83q0 -24 -8.5 -32t-24.5 -8q-18 0 -25.5 7.5t-7.5 17.5q-1 16 -6.5 37t-20 40t-42 31.5t-71.5 12.5q-70 0 -107 -37t-37 -115v-310q0 -79 37.5 -116t109.5 -37
q45 0 71 12.5t39.5 31t18.5 40t8 39.5q1 13 9 19.5t23 6.5q17 0 25.5 -8.5t8.5 -32.5q0 -45 -25 -83.5t-71.5 -62t-112.5 -23.5z" />
    <glyph glyph-name="D" unicode="D" horiz-adv-x="560" 
d="M106 0q-13 0 -21.5 7t-8.5 18v682q0 10 8.5 17t21.5 7h177q59 0 106.5 -21t75 -68t27.5 -124v-304q0 -78 -27.5 -125t-75 -68t-106.5 -21h-177zM142 61h141q67 0 105 37t38 116v304q0 78 -38 115t-105 37h-141v-609z" />
    <glyph glyph-name="E" unicode="E" horiz-adv-x="508" 
d="M106 0q-11 0 -20.5 6.5t-9.5 19.5v680q0 12 9.5 18.5t20.5 6.5h356q13 0 19 -9.5t6 -19.5q0 -13 -6.5 -22.5t-18.5 -9.5h-320v-275h157q12 0 18.5 -9t6.5 -21q0 -9 -6 -18t-19 -9h-157v-277h320q12 0 18.5 -9t6.5 -22q0 -11 -6 -20.5t-19 -9.5h-356z" />
    <glyph glyph-name="F" unicode="F" horiz-adv-x="496" 
d="M109 0q-13 0 -23 6t-10 19v681q0 12 9.5 18.5t20.5 6.5h354q13 0 19 -9.5t6 -19.5q0 -13 -6.5 -22.5t-18.5 -9.5h-318v-275h158q11 0 17.5 -9t6.5 -21q0 -9 -5.5 -18t-18.5 -9h-158v-313q0 -13 -10.5 -19t-22.5 -6z" />
    <glyph glyph-name="G" unicode="G" horiz-adv-x="542" 
d="M276 -6q-58 0 -105 21t-74.5 68t-27.5 125v310q0 77 27.5 124t74 68t104.5 21q64 0 111 -22.5t73 -61.5t26 -89q0 -19 -9 -26.5t-24 -7.5q-13 0 -22.5 6t-10.5 19q-5 39 -22 66t-47 41t-74 14q-67 0 -104 -37t-37 -115v-310q0 -78 37 -115.5t104 -37.5t105 37.5t38 115.5
v119h-134q-12 0 -18.5 9t-6.5 20q0 10 6.5 19t18.5 9h175q12 0 18.5 -7.5t6.5 -18.5v-150q0 -78 -28 -125t-75 -68t-106 -21z" />
    <glyph glyph-name="H" unicode="H" horiz-adv-x="573" 
d="M109 0q-13 0 -23 6.5t-10 19.5v681q0 12 10 18t23 6q12 0 22.5 -6t10.5 -18v-299h289v299q0 12 10 18t23 6q12 0 22.5 -6t10.5 -18v-681q0 -13 -10.5 -19.5t-22.5 -6.5q-13 0 -23 6.5t-10 19.5v325h-289v-325q0 -13 -10.5 -19.5t-22.5 -6.5z" />
    <glyph glyph-name="I" unicode="I" horiz-adv-x="218" 
d="M109 0q-13 0 -23 6.5t-10 19.5v681q0 12 10 18t23 6q12 0 22.5 -6t10.5 -18v-681q0 -13 -10.5 -19.5t-22.5 -6.5z" />
    <glyph glyph-name="J" unicode="J" horiz-adv-x="509" 
d="M231 -6q-64 0 -111 22.5t-73 62.5t-26 91q0 20 8.5 27t24.5 7q12 0 22.5 -6t10.5 -20q1 -37 18 -65t49 -43t75 -15q67 0 104.5 37.5t37.5 115.5v462h-141q-11 0 -17.5 9.5t-6.5 22.5q0 10 5.5 19.5t18.5 9.5h177q11 0 20.5 -6.5t9.5 -18.5v-498q0 -78 -27.5 -125t-74 -68
t-104.5 -21z" />
    <glyph glyph-name="K" unicode="K" horiz-adv-x="523" 
d="M109 0q-13 0 -23 6.5t-10 19.5v681q0 13 10 18.5t23 5.5q12 0 22.5 -5.5t10.5 -18.5v-354l289 368q7 10 21 10q8 0 16.5 -5t14 -12.5t5.5 -16.5q0 -3 -1 -7.5t-4 -7.5l-215 -267l246 -370q4 -6 4 -13q0 -9 -5.5 -16.5t-14 -12t-18.5 -4.5q-7 0 -13.5 3.5t-11.5 10.5
l-231 347l-82 -104v-230q0 -13 -10.5 -19.5t-22.5 -6.5z" />
    <glyph glyph-name="L" unicode="L" horiz-adv-x="462" 
d="M106 0q-11 0 -20.5 6.5t-9.5 19.5v681q0 13 10 18.5t23 5.5q12 0 22.5 -5.5t10.5 -18.5v-646h285q12 0 17 -9.5t5 -20.5q0 -12 -5 -21.5t-17 -9.5h-321z" />
    <glyph glyph-name="M" unicode="M" horiz-adv-x="668" 
d="M109 0q-13 0 -23 6.5t-10 19.5v673q0 18 10 25t23 7q12 0 21.5 -6.5t17.5 -17t14 -22.5l172 -332l172 332q7 12 14.5 22.5t17.5 17t21 6.5q14 0 23.5 -7t9.5 -25v-673q0 -13 -10 -19.5t-23 -6.5q-12 0 -22.5 6.5t-10.5 19.5v562l-166 -314q-6 -11 -13 -16t-14 -5
q-6 0 -13 4.5t-13 16.5l-165 317v-565q0 -13 -10.5 -19.5t-22.5 -6.5z" />
    <glyph glyph-name="N" unicode="N" horiz-adv-x="573" 
d="M109 0q-13 0 -23 6.5t-10 19.5v680q0 14 10 19.5t23 5.5q12 0 21 -6.5t17 -16.5t14 -23l270 -532v554q0 13 10 18.5t23 5.5q12 0 22.5 -5.5t10.5 -18.5v-681q0 -13 -10.5 -19.5t-22.5 -6.5q-14 0 -25 12t-19 26l-278 541v-553q0 -13 -10.5 -19.5t-22.5 -6.5z" />
    <glyph glyph-name="O" unicode="O" horiz-adv-x="553" 
d="M276 -6q-58 0 -105 21t-74.5 68t-27.5 125v310q0 77 27.5 124t74 68t105.5 21t106 -21t75 -68t28 -124v-310q0 -78 -28 -125t-75 -68t-106 -21zM276 55q67 0 105 37t38 116v310q0 78 -38 115t-105 37t-104 -37t-37 -115v-310q0 -79 37 -116t104 -37z" />
    <glyph glyph-name="P" unicode="P" horiz-adv-x="527" 
d="M109 0q-13 0 -23 6.5t-10 19.5v681q0 10 7.5 16.5t20.5 7.5h184q58 0 105 -21t74 -67.5t27 -123.5v-10q0 -78 -27.5 -124.5t-75 -67.5t-105.5 -21h-144v-270q0 -13 -10.5 -19.5t-22.5 -6.5zM142 353h144q67 0 104.5 37.5t37.5 115.5v12q0 78 -37.5 115t-104.5 37h-144
v-317z" />
    <glyph glyph-name="Q" unicode="Q" horiz-adv-x="553" 
d="M277 -109q-10 0 -18 6.5t-8 19.5v79q-52 4 -93.5 26t-65 67.5t-23.5 118.5v310q0 78 27.5 124.5t74.5 67.5t105 21q59 0 106 -21t75 -67.5t28 -124.5v-310q0 -73 -24 -118.5t-65 -67.5t-94 -26v-79q0 -13 -7.5 -19.5t-17.5 -6.5zM251 58v74q0 13 8 18.5t18 5.5t17.5 -5.5
t7.5 -18.5v-74q55 7 86 43.5t31 106.5v310q0 78 -38 115t-105 37t-104 -37t-37 -115v-310q0 -70 30.5 -107t85.5 -43z" />
    <glyph glyph-name="R" unicode="R" horiz-adv-x="528" 
d="M458 -1q-11 0 -20 11t-14 23l-155 300h-127v-307q0 -13 -10.5 -19.5t-22.5 -6.5q-13 0 -23 6.5t-10 19.5v681q0 10 7 16.5t18 7.5h177q59 0 108 -18t78.5 -60.5t29.5 -118.5q0 -62 -20.5 -102t-56 -61.5t-79.5 -29.5l154 -296q3 -3 3.5 -6.5t0.5 -6.5q0 -8 -5.5 -16
t-14.5 -12.5t-18 -4.5zM142 390h136q67 0 108.5 32.5t41.5 108.5q0 75 -41.5 107t-108.5 32h-136v-280z" />
    <glyph glyph-name="S" unicode="S" horiz-adv-x="494" 
d="M241 -7q-64 0 -110 19.5t-70.5 45t-24.5 43.5q0 8 4.5 17t11.5 14.5t14 5.5q10 0 20.5 -12.5t28 -29t46.5 -29t76 -12.5t80.5 15.5t51 46t17.5 76.5q0 48 -18 77.5t-47.5 48t-64.5 32t-70.5 27t-65 34t-48 54t-18.5 85.5q0 55 20 90t51.5 55t68.5 28.5t72 8.5
q28 0 57.5 -4.5t54.5 -12.5t40.5 -19t15.5 -25q0 -7 -3.5 -15.5t-9.5 -15t-16 -6.5q-9 0 -25 9.5t-43.5 19t-71.5 9.5q-36 0 -69.5 -10.5t-54.5 -35.5t-21 -70q0 -40 18.5 -64.5t48 -39.5t64.5 -27.5t70.5 -28t65 -39t47.5 -61.5t18 -98q0 -71 -27 -116.5t-74.5 -67.5
t-109.5 -22z" />
    <glyph glyph-name="T" unicode="T" horiz-adv-x="477" 
d="M239 0q-13 0 -23 6.5t-10 19.5v643h-168q-12 0 -18.5 9.5t-6.5 21.5t6.5 21.5t18.5 9.5h401q13 0 19 -9t6 -21t-6 -22t-19 -10h-167v-643q0 -13 -10.5 -19.5t-22.5 -6.5z" />
    <glyph glyph-name="U" unicode="U" horiz-adv-x="563" 
d="M281 -6q-59 0 -106 21t-75 68t-28 125v499q0 12 10 18t23 6t23 -6t10 -18v-499q0 -79 38 -116t105 -37q68 0 106 37t38 116v499q0 12 10 18t23 6t23 -6t10 -18v-499q0 -78 -27.5 -125t-75.5 -68t-107 -21z" />
    <glyph glyph-name="V" unicode="V" horiz-adv-x="537" 
d="M269 -6q-13 0 -24.5 6t-14.5 18l-210 678q-1 3 -1 7q0 9 6 15t15 9.5t18 3.5t16 -4t10 -13l185 -614l184 614q3 9 9.5 13t15.5 4t18 -4t15.5 -10t6.5 -15q0 -1 -0.5 -2.5t-1.5 -3.5l-207 -678q-4 -12 -15.5 -18t-24.5 -6z" />
    <glyph glyph-name="W" unicode="W" horiz-adv-x="784" 
d="M258 -6q-13 0 -24 6t-15 18l-197 678q-2 4 -2 8q0 8 6 14.5t15 9.5t17 3q9 0 17 -4t10 -13l173 -614l99 373q4 13 14 18t22 5t21 -5t12 -18l101 -373l172 614q3 9 10.5 13t16.5 4q10 0 18 -3t14 -9.5t6 -14.5q0 -4 -1 -8l-196 -678q-4 -12 -15 -18t-25 -6q-13 0 -24.5 6
t-14.5 18l-95 353l-95 -353q-3 -12 -14.5 -18t-25.5 -6z" />
    <glyph glyph-name="X" unicode="X" horiz-adv-x="483" 
d="M63 -1q-9 0 -18.5 4.5t-15.5 11.5t-6 16q0 7 5 16l172 319l-169 317q-6 12 -6 21t5.5 15.5t14 10t18.5 3.5q13 0 21 -11t14 -23l143 -275l144 275q6 12 14.5 23t20.5 11q10 0 18.5 -3.5t14 -10t5.5 -15.5t-6 -21l-170 -317l173 -319q5 -9 5 -16q0 -9 -6 -16t-15 -11.5
t-19 -4.5t-18 10.5t-13 20.5l-148 280l-147 -280q-5 -10 -12.5 -20.5t-18.5 -10.5z" />
    <glyph glyph-name="Y" unicode="Y" horiz-adv-x="529" 
d="M264 0q-12 0 -22.5 6.5t-10.5 19.5v254q0 5 -1 8l-207 397q-3 6 -4 10.5t-1 7.5q0 9 5.5 15t14 9.5t16.5 3.5t14.5 -5t11.5 -15l184 -365l185 365q6 10 12.5 15t13.5 5q9 0 17 -3.5t13.5 -9.5t5.5 -15q0 -3 -1 -7.5t-3 -10.5l-208 -397q-2 -3 -2 -8v-254q0 -13 -10 -19.5
t-23 -6.5z" />
    <glyph glyph-name="Z" unicode="Z" horiz-adv-x="482" 
d="M47 0q-11 0 -17.5 6.5t-6.5 16.5q0 11 6 23l333 624h-302q-12 0 -18.5 9.5t-6.5 21.5q0 11 6 20.5t19 9.5h363q13 0 19 -6t6 -15q0 -12 -8 -26l-332 -623h327q13 0 19 -9.5t6 -20.5q0 -12 -6 -21.5t-19 -9.5h-388z" />
    <glyph glyph-name="bracketleft" unicode="[" horiz-adv-x="303" 
d="M99 -21q-12 0 -21.5 7t-9.5 18v739q0 12 9.5 18.5t21.5 6.5h161q11 0 17.5 -9t6.5 -20q0 -13 -6.5 -22t-17.5 -9h-126v-669h126q11 0 17.5 -8.5t6.5 -21.5q0 -12 -6.5 -21t-17.5 -9h-161z" />
    <glyph glyph-name="backslash" unicode="\" horiz-adv-x="351" 
d="M299 0q-8 0 -15 4t-9 13l-248 701q-1 4 -1 9q0 12 8 19.5t20 7.5q7 0 13 -3t8 -11l249 -707q2 -2 2 -4v-4q0 -11 -8 -18t-19 -7z" />
    <glyph glyph-name="bracketright" unicode="]" horiz-adv-x="303" 
d="M43 -21q-11 0 -17.5 9t-6.5 21q0 13 6.5 21.5t17.5 8.5h126v669h-126q-11 0 -17.5 9t-6.5 22q0 11 6.5 20t17.5 9h161q13 0 22 -6.5t9 -18.5v-739q0 -11 -9.5 -18t-21.5 -7h-161z" />
    <glyph glyph-name="asciicircum" unicode="^" horiz-adv-x="268" 
d="M21 592q-8 0 -14.5 8t-6.5 18q0 6 3.5 12t9.5 10l104 56q9 5 17 5q9 0 17 -5l104 -56q7 -3 10 -9.5t3 -13.5q0 -10 -6 -17t-14 -7q-2 0 -5 1t-5 2l-104 55l-104 -56q-2 -1 -4.5 -2t-4.5 -1z" />
    <glyph glyph-name="underscore" unicode="_" horiz-adv-x="335" 
d="M8 -58q-10 0 -17 8t-7 21q0 12 7 20.5t17 8.5h320q10 0 18 -8.5t8 -20.5q0 -13 -8 -21t-18 -8h-320z" />
    <glyph glyph-name="grave" unicode="`" horiz-adv-x="155" 
d="M129 591q-2 0 -5 1t-5 2l-106 57q-13 7 -13 22q0 10 7 19t17 9q4 0 9 -3l111 -61q11 -5 11 -18q0 -10 -7.5 -19t-18.5 -9z" />
    <glyph glyph-name="a" unicode="a" horiz-adv-x="438" 
d="M167 -7q-56 0 -96 32.5t-40 99.5q0 55 29.5 84.5t82 41t121.5 11.5h51v24q0 32 -11.5 63.5t-37 52t-69.5 20.5q-33 0 -54 -7t-33 -14.5t-20 -7.5q-12 0 -19 12t-7 23q0 13 20.5 24.5t52 19t62.5 7.5q67 0 106.5 -27.5t57 -71.5t17.5 -94v-260q0 -11 -8.5 -18.5
t-23.5 -7.5q-12 0 -21 7.5t-9 18.5v44q-26 -29 -63 -53t-88 -24zM183 48q33 0 63 17t49.5 41.5t19.5 46.5v64h-42q-45 0 -85.5 -5.5t-66 -23.5t-25.5 -57q0 -43 25.5 -63t61.5 -20z" />
    <glyph glyph-name="b" unicode="b" horiz-adv-x="484" 
d="M263 -7q-47 0 -84 23t-53 54v-44q0 -10 -9 -18t-22 -8t-22.5 8t-9.5 18v713q0 11 9.5 17.5t22.5 6.5q14 0 23.5 -6.5t9.5 -17.5v-336q17 29 50.5 52.5t82.5 23.5t89.5 -25.5t65 -67.5t24.5 -94v-109q0 -49 -24.5 -93t-64.5 -70.5t-88 -26.5zM251 53q34 0 62 18.5t45 48.5
t17 63v109q0 32 -17 61t-45 47.5t-63 18.5q-30 0 -58 -15.5t-46 -43.5t-18 -68v-140q0 -15 16.5 -38.5t44.5 -42t62 -18.5z" />
    <glyph glyph-name="c" unicode="c" horiz-adv-x="412" 
d="M240 -7q-66 0 -109 25t-64 68t-21 97v107q0 53 20.5 96t64 68t109.5 25q42 0 73.5 -10.5t49 -25.5t17.5 -29q0 -6 -3.5 -13.5t-10 -13t-14.5 -5.5q-9 0 -20.5 9.5t-31.5 18.5t-57 9q-65 0 -98.5 -34.5t-33.5 -94.5v-107q0 -61 33.5 -95.5t99.5 -34.5q38 0 59 9.5t32.5 19
t21.5 9.5q9 0 15.5 -5t10 -12t3.5 -15q0 -13 -18 -28.5t-50.5 -26.5t-77.5 -11z" />
    <glyph glyph-name="d" unicode="d" horiz-adv-x="484" 
d="M222 -7q-47 0 -88 26.5t-65 70.5t-24 93v109q0 52 24 94t65 67.5t90 25.5t82.5 -23.5t49.5 -52.5v336q0 11 10 17.5t23 6.5q15 0 23.5 -6.5t8.5 -17.5v-713q0 -10 -8.5 -18t-23.5 -8q-12 0 -21 8t-9 18v44q-16 -31 -53.5 -54t-83.5 -23zM233 53q36 0 63.5 18.5t43.5 42
t16 38.5v140q0 40 -18 68t-46 43.5t-58 15.5q-34 0 -62 -18.5t-45 -47.5t-17 -61v-109q0 -33 17 -63t45 -48.5t61 -18.5z" />
    <glyph glyph-name="e" unicode="e" horiz-adv-x="458" 
d="M260 -7q-63 0 -111.5 24t-76 66.5t-27.5 99.5v112q0 50 26 92t69.5 67t95.5 25q50 0 92.5 -23.5t68.5 -64.5t26 -94q0 -39 -13 -55.5t-32.5 -20.5t-41.5 -4h-226v-37q0 -60 43 -95t109 -35q40 0 62 10t34.5 20t23.5 10q8 0 14.5 -5.5t10 -12.5t3.5 -13q0 -11 -18 -27
t-52 -27.5t-80 -11.5zM110 265h200q30 0 40 6.5t10 27.5q0 32 -15.5 61t-44 47t-65.5 18q-34 0 -62.5 -16.5t-45.5 -44t-17 -61.5v-38z" />
    <glyph glyph-name="f" unicode="f" horiz-adv-x="305" 
d="M94 0q-13 0 -22 7t-9 18v554q0 51 24.5 92.5t65 66.5t88.5 25h25q14 0 21 -9t7 -21q0 -11 -7 -20t-21 -9h-17q-34 0 -61.5 -16.5t-43 -44t-16.5 -59.5v-111h143q11 0 17 -8t6 -18q0 -11 -6 -19.5t-17 -8.5h-143v-394q0 -11 -10 -18t-24 -7z" />
    <glyph glyph-name="g" unicode="g" horiz-adv-x="454" 
d="M230 -232q-59 0 -104.5 16.5t-72 46t-26.5 70.5q0 44 26 70t59 39q-24 9 -39.5 24.5t-15.5 44.5q0 28 14 44.5t36 27.5q-27 22 -41 54.5t-14 71.5v38q0 48 21 85t60 58t91 21q35 0 65 -11t52 -31q15 31 34 47t37 16q15 0 22.5 -8.5t7.5 -17.5t-5 -14.5t-12 -7.5
q-12 -2 -27.5 -11t-28.5 -32q14 -19 21 -43t7 -51v-38q0 -47 -22 -85t-61.5 -59.5t-90.5 -21.5q-43 0 -77 17q-11 -6 -21 -14.5t-10 -24.5q0 -22 23 -32t58 -14t74.5 -8.5t75 -16.5t58 -37t22.5 -71q0 -47 -25.5 -78.5t-69.5 -47.5t-101 -16zM229 -183q63 0 98.5 25t35.5 66
q0 32 -19.5 48.5t-49 23.5t-61 10t-54.5 6q-35 -11 -62 -32t-27 -57q0 -40 37 -65t102 -25zM225 160q51 0 79.5 33.5t28.5 83.5v38q0 49 -28.5 82t-80.5 33t-80.5 -33t-28.5 -82v-37q0 -50 29 -84t81 -34z" />
    <glyph glyph-name="h" unicode="h" horiz-adv-x="495" 
d="M95 0q-13 0 -22.5 8t-9.5 18v713q0 11 9.5 17.5t22.5 6.5q14 0 23.5 -6.5t9.5 -17.5v-336q17 29 50 52.5t82 23.5q48 0 88.5 -25.5t64.5 -67.5t24 -94v-266q0 -13 -10 -19.5t-23 -6.5q-11 0 -21.5 6.5t-10.5 19.5v266q0 32 -17 61t-45 47.5t-62 18.5q-30 0 -57.5 -15.5
t-45 -43.5t-17.5 -68v-266q0 -10 -9.5 -18t-23.5 -8z" />
    <glyph glyph-name="i" unicode="i" horiz-adv-x="189" 
d="M94 0q-13 0 -22.5 8t-9.5 18v423q0 11 9.5 17.5t22.5 6.5q14 0 23.5 -6.5t9.5 -17.5v-423q0 -10 -9.5 -18t-23.5 -8zM94 613q-18 0 -31 12.5t-13 29.5t13 29t31 12q19 0 31.5 -12t12.5 -29t-12.5 -29.5t-31.5 -12.5z" />
    <glyph glyph-name="j" unicode="j" horiz-adv-x="191" 
d="M-3 -232q-18 0 -26 9t-8 20q0 14 8.5 22t19.5 8q32 0 47.5 17t20 46.5t4.5 66.5v492q0 11 9 17.5t23 6.5t23.5 -6.5t9.5 -17.5v-492q0 -55 -13 -98t-42 -67t-76 -24zM95 613q-18 0 -31 12.5t-13 29.5t13 29t31 12t31 -12t13 -29t-13 -29.5t-31 -12.5z" />
    <glyph glyph-name="k" unicode="k" horiz-adv-x="455" 
d="M95 0q-13 0 -22.5 8t-9.5 18v713q0 11 9.5 17.5t22.5 6.5q14 0 23.5 -6.5t9.5 -17.5v-487l244 217q8 6 15 6q8 0 15.5 -4t12.5 -11t5 -16q0 -5 -1.5 -9.5t-5.5 -8.5l-147 -129l173 -253q4 -6 4 -14q0 -7 -5 -15t-13.5 -12.5t-16.5 -4.5q-12 0 -20 11l-168 247l-92 -81
v-149q0 -10 -9.5 -18t-23.5 -8z" />
    <glyph glyph-name="l" unicode="l" horiz-adv-x="208" 
d="M103 0q-13 0 -22.5 8t-9.5 18v713q0 11 9.5 17.5t22.5 6.5q14 0 23.5 -6.5t9.5 -17.5v-713q0 -10 -9.5 -18t-23.5 -8z" />
    <glyph glyph-name="m" unicode="m" horiz-adv-x="779" 
d="M94 0q-13 0 -22.5 8t-9.5 18v423q0 11 9.5 17.5t22.5 6.5t22 -6.5t9 -17.5v-46q17 29 50.5 52.5t82.5 23.5q50 0 87 -28t55 -72q26 51 67.5 75.5t84.5 24.5t81.5 -22t62.5 -63.5t24 -101.5v-266q0 -10 -9.5 -18t-23.5 -8q-13 0 -22.5 8t-9.5 18v266q0 42 -17 70t-43 42.5
t-54 14.5q-29 0 -55.5 -15t-44 -42.5t-17.5 -65.5v-271q0 -13 -10.5 -19t-22.5 -6q-11 0 -21.5 6t-10.5 19v270q0 36 -15.5 64t-41.5 44t-57 16q-29 0 -56 -15t-44.5 -43t-17.5 -69v-266q0 -10 -9.5 -18t-23.5 -8z" />
    <glyph glyph-name="n" unicode="n" horiz-adv-x="494" 
d="M94 0q-13 0 -22.5 8t-9.5 18v423q0 11 9.5 17.5t22.5 6.5t22 -6.5t9 -17.5v-46q16 29 50 52.5t84 23.5q48 0 88.5 -25.5t64.5 -67.5t24 -94v-266q0 -13 -10 -19.5t-23 -6.5q-11 0 -21.5 6.5t-10.5 19.5v266q0 32 -17 61t-45 47.5t-62 18.5q-30 0 -57.5 -15.5t-45 -43.5
t-17.5 -68v-266q0 -10 -9.5 -18t-23.5 -8z" />
    <glyph glyph-name="o" unicode="o" horiz-adv-x="469" 
d="M234 -7q-51 0 -94 26.5t-69.5 70t-26.5 93.5v109q0 50 26 92.5t69 68.5t95 26q51 0 94.5 -25.5t69.5 -67.5t26 -94v-109q0 -49 -26 -93t-69.5 -70.5t-94.5 -26.5zM234 53q35 0 63 18.5t45 48.5t17 63v109q0 32 -16.5 61t-45 47.5t-63.5 18.5t-63 -18.5t-45 -47.5t-17 -61
v-109q0 -33 17 -63t45.5 -48.5t62.5 -18.5z" />
    <glyph glyph-name="p" unicode="p" horiz-adv-x="484" 
d="M95 -232q-13 0 -22.5 8t-9.5 18v655q0 11 9.5 17.5t22.5 6.5t22 -6.5t9 -17.5v-46q17 29 51 52.5t83 23.5q50 0 90.5 -25.5t65 -67.5t24.5 -94v-109q0 -49 -24.5 -93t-64.5 -70.5t-88 -26.5q-46 0 -82 23t-53 54v-276q0 -10 -9.5 -18t-23.5 -8zM251 53q33 0 61 18.5
t45.5 48.5t17.5 63v109q0 32 -17 61t-45.5 47.5t-63.5 18.5q-30 0 -57.5 -15.5t-45.5 -43.5t-18 -68v-140q0 -15 16 -38.5t44 -42t63 -18.5z" />
    <glyph glyph-name="q" unicode="q" horiz-adv-x="484" 
d="M389 -232q-13 0 -23 8t-10 18v276q-15 -31 -52 -54t-82 -23q-47 0 -88 26.5t-65 70.5t-24 93v109q0 52 24 94t65 67.5t90 25.5q50 0 84 -23.5t51 -52.5v46q0 11 9 17.5t22 6.5q14 0 22.5 -6.5t8.5 -17.5v-655q0 -10 -8.5 -18t-23.5 -8zM234 53q35 0 62.5 18.5t43.5 42
t16 38.5v140q0 40 -17.5 68t-45.5 43.5t-58 15.5q-34 0 -62.5 -18.5t-45.5 -47.5t-17 -61v-109q0 -33 17 -63t45.5 -48.5t61.5 -18.5z" />
    <glyph glyph-name="r" unicode="r" horiz-adv-x="330" 
d="M94 0q-13 0 -22.5 8t-9.5 18v423q0 11 9.5 17.5t22.5 6.5t22 -6.5t9 -17.5v-49q11 20 30 38t45 29.5t59 11.5h35q11 0 18.5 -8.5t7.5 -21.5q0 -12 -7.5 -21t-18.5 -9h-35q-33 0 -63.5 -17.5t-49.5 -50t-19 -78.5v-247q0 -10 -9.5 -18t-23.5 -8z" />
    <glyph glyph-name="s" unicode="s" horiz-adv-x="387" 
d="M191 -7q-47 0 -82 12t-55 28.5t-20 31.5q0 7 3 13.5t8.5 11.5t11.5 5q11 0 24.5 -11.5t38 -23.5t69.5 -12q57 0 80 21.5t23 49.5q0 33 -17.5 51.5t-46 29t-60 19t-60 22t-46 37.5t-17.5 65q0 32 16 63.5t50.5 52t91.5 20.5q33 0 64 -7t50.5 -18.5t19.5 -23.5
q0 -5 -3.5 -13t-9.5 -14.5t-14 -6.5t-21.5 7.5t-34.5 14t-50 6.5q-36 0 -58 -13t-32 -30.5t-10 -34.5q0 -29 18 -44t46.5 -24.5t60 -18t60 -23.5t46 -42t17.5 -72q0 -59 -42 -94t-119 -35z" />
    <glyph glyph-name="t" unicode="t" horiz-adv-x="295" 
d="M219 0q-77 0 -118 35t-41 112v527q0 11 10.5 17.5t21.5 6.5q13 0 23 -6.5t10 -17.5v-201h130q10 0 16 -8t6 -19t-6 -19t-16 -8h-130v-272q0 -49 21 -68.5t73 -19.5h28q14 0 21.5 -8.5t7.5 -20.5t-7.5 -21t-21.5 -9h-28z" />
    <glyph glyph-name="u" unicode="u" horiz-adv-x="496" 
d="M249 -7q-53 0 -96 26t-69 69.5t-26 92.5v267q0 9 10 17t23 8t22.5 -8t9.5 -17v-267q0 -33 17 -62t45 -47.5t63 -18.5q36 0 64 18t44.5 47.5t16.5 62.5v268q0 10 10 17t23 7q15 0 23.5 -7t8.5 -17v-268q0 -51 -25.5 -93.5t-69 -68.5t-94.5 -26z" />
    <glyph glyph-name="v" unicode="v" horiz-adv-x="420" 
d="M210 -8q-11 0 -19 4t-11 12l-161 422q-1 2 -2.5 7t-1.5 8q0 8 6 15t15.5 11t17.5 4t14.5 -3.5t9.5 -11.5l132 -360l132 356q2 8 7 13.5t16 5.5q8 0 17 -4t16 -10.5t7 -14.5q0 -5 -1 -9t-3 -7l-161 -422q-3 -7 -11.5 -11.5t-18.5 -4.5z" />
    <glyph glyph-name="w" unicode="w" horiz-adv-x="666" 
d="M202 -8q-10 0 -16.5 4.5t-10.5 15.5l-156 419l-2.5 7.5t-1.5 7.5q0 8 6 14.5t15 10.5t18 4q7 0 14 -4t9 -11l128 -356l103 325q3 9 9.5 13t16.5 4q9 0 16 -4t10 -13l99 -329l131 360q4 15 22 15q9 0 18 -3.5t15 -10t6 -15.5q0 -3 -1.5 -8t-2.5 -7l-156 -423
q-3 -9 -10.5 -12.5t-15.5 -3.5q-10 0 -16.5 4t-10.5 11l-104 325l-103 -320q-3 -10 -11 -15t-18 -5z" />
    <glyph glyph-name="x" unicode="x" horiz-adv-x="409" 
d="M63 -7q-7 0 -16 5t-15.5 12.5t-6.5 14.5q0 8 4 14l133 200l-130 194q-1 3 -3 6.5t-2 6.5q0 8 6.5 15.5t15.5 12.5t18 5q5 0 10.5 -2t9.5 -8l118 -183l119 183q3 5 8.5 7.5t10.5 2.5q9 0 18 -4.5t15.5 -12t6.5 -16.5q0 -6 -5 -13l-131 -194l134 -200q2 -2 3 -6t1 -8
q0 -7 -6 -14.5t-15 -12.5t-18 -5q-5 0 -10.5 2.5t-8.5 7.5l-122 187l-121 -187q-4 -5 -9.5 -7.5t-11.5 -2.5z" />
    <glyph glyph-name="y" unicode="y" horiz-adv-x="420" 
d="M45 -232q-13 0 -21.5 6.5t-8.5 22.5q0 12 4.5 21t15.5 9q24 0 46 15t41 42.5t34 62t24 73.5l-163 419q-3 5 -3 9q0 9 6.5 16t16 11t17.5 4t14.5 -3.5t8.5 -10.5l137 -368l129 368q3 7 9 10.5t13 3.5q8 0 17.5 -4t16 -11t6.5 -17q0 -5 -2 -8l-155 -420q-15 -40 -32 -84
t-39.5 -81.5t-54.5 -61.5t-77 -24z" />
    <glyph glyph-name="z" unicode="z" horiz-adv-x="401" 
d="M50 0q-12 0 -19 8t-7 18q0 6 3 13t7 12l244 365h-220q-10 0 -17.5 8t-7.5 20t7.5 20.5t17.5 8.5h282q11 0 18.5 -7t7.5 -19t-9 -24l-245 -365h241q11 0 18 -8.5t7 -21.5q0 -11 -7 -19.5t-18 -8.5h-303z" />
    <glyph glyph-name="braceleft" unicode="{" horiz-adv-x="309" 
d="M256 -20q-50 0 -92 19t-68 54t-26 80q0 10 2 31.5t5.5 48t6 52.5t4.5 45t2 26q0 13 -9 16t-21 4.5t-21 7t-9 21.5q0 15 9 20.5t21 7t21 5t9 16.5q0 7 -3 29.5t-7 50.5t-7 53t-3 37q0 32 15 61.5t41 52.5t59.5 36.5t70.5 13.5q19 0 27 -9t8 -21q0 -10 -6.5 -19.5
t-18.5 -9.5q-34 0 -64 -15t-48 -40.5t-18 -57.5q0 -11 3 -35t7 -52t7 -50.5t3 -29.5q0 -18 -13 -30.5t-22 -14.5q10 -3 22.5 -14.5t12.5 -29.5q0 -9 -3 -36.5t-7 -61.5t-7 -63.5t-3 -42.5q0 -28 14 -47t35 -30t43 -15.5t38 -4.5q10 0 15.5 -5t7.5 -11.5t2 -12.5
q0 -14 -10 -22t-25 -8z" />
    <glyph glyph-name="bar" unicode="|" horiz-adv-x="202" 
d="M101 -21q-14 0 -23.5 7.5t-9.5 17.5v740q0 10 9.5 17t23.5 7q13 0 23 -7t10 -17v-740q0 -10 -10 -17.5t-23 -7.5z" />
    <glyph glyph-name="braceright" unicode="}" horiz-adv-x="309" 
d="M53 -20q-15 0 -25 8t-10 22q0 6 2 12.5t7.5 11.5t15.5 5q16 0 38 4.5t43 15.5t35 30t14 47q0 13 -3 42.5t-7 63.5t-7 61.5t-3 36.5q0 18 12.5 29.5t22.5 14.5q-10 2 -22.5 14.5t-12.5 30.5q0 7 3 29.5t7 50.5t7 52t3 35q0 32 -18 57.5t-48 40.5t-64 15q-12 0 -18.5 9.5
t-6.5 19.5q0 12 8 21t27 9q37 0 70.5 -13.5t59.5 -36.5t41 -52.5t15 -61.5q0 -12 -3 -37t-7 -53t-7 -50.5t-3 -29.5q0 -13 9 -16.5t21 -5t21 -7t9 -20.5q0 -16 -9 -21.5t-21 -7t-21 -4.5t-9 -16q0 -7 2 -26t5 -45t6 -52.5t5 -48t2 -31.5q0 -45 -26 -80t-68 -54t-92 -19z" />
    <glyph glyph-name="asciitilde" unicode="~" horiz-adv-x="403" 
d="M273 215q-27 0 -47 9t-40 17.5t-47 8.5q-21 0 -34.5 -8t-22 -16t-16.5 -8q-6 0 -10.5 4t-6.5 10t-2 11q0 15 9 25t23 17.5t29 11.5t27 4q26 0 46 -8.5t40 -17.5t46 -9q22 0 34 7.5t19.5 14.5t16.5 7q7 0 11 -4t6.5 -9t2.5 -10q0 -16 -9 -26.5t-22.5 -17.5t-28 -10
t-24.5 -3z" />
    <glyph glyph-name="uni007F" 
 />
    <glyph glyph-name="uni00A0" unicode="&#xa0;" 
 />
    <glyph glyph-name="exclamdown" unicode="&#xa1;" horiz-adv-x="202" 
d="M101 -6q-16 0 -27 10t-11 29q0 82 3 170.5t6 176.5t3 170q0 12 8.5 17.5t17.5 5.5t17.5 -5.5t8.5 -17.5q0 -82 3.5 -170t6 -176.5t2.5 -170.5q0 -19 -11 -29t-27 -10zM101 651q-20 0 -33 14t-13 33q0 18 13 32t33 14q19 0 32.5 -14t13.5 -32q0 -19 -13.5 -33t-32.5 -14z
" />
    <glyph glyph-name="cent" unicode="&#xa2;" horiz-adv-x="417" 
d="M216 40q-10 0 -17 7t-7 16v108q-79 10 -117 62t-38 125v19q0 48 16 87.5t50.5 66t88.5 33.5v108q0 9 7 15.5t17 6.5q9 0 16.5 -6.5t7.5 -15.5v-107q37 -1 68 -10.5t49 -23t18 -29.5q0 -7 -4 -14.5t-10.5 -12t-14.5 -4.5q-9 0 -19.5 9t-30.5 17.5t-56 9.5v-279
q37 1 56.5 10.5t30 18t19.5 8.5q13 0 22 -10t9 -21q0 -16 -20 -30.5t-51 -23.5t-66 -11v-106q0 -9 -7.5 -16t-16.5 -7zM192 230v275q-49 -10 -72 -43.5t-23 -84.5v-19q0 -52 23 -85t72 -43z" />
    <glyph glyph-name="sterling" unicode="&#xa3;" horiz-adv-x="487" 
d="M49 0q-13 0 -19 9.5t-6 21.5q0 11 6 20.5t19 9.5h59l43 306h-76q-10 0 -16.5 8t-6.5 18q0 11 6.5 19.5t16.5 8.5h84l22 158q8 52 40 95t79.5 68.5t100.5 25.5h19q14 0 21 -9.5t7 -20.5t-7 -20.5t-21 -9.5h-24q-39 0 -71.5 -18t-52.5 -47.5t-26 -63.5l-22 -158h149
q10 0 15.5 -8.5t5.5 -19.5q0 -9 -5.5 -17.5t-15.5 -8.5h-157l-44 -306h253q11 0 17 -9.5t6 -20.5q0 -12 -6 -21.5t-17 -9.5h-376z" />
    <glyph glyph-name="currency" unicode="&#xa4;" horiz-adv-x="477" 
d="M240 290q-33 0 -62 12t-53 33l-30 -30q-6 -5 -13 -5q-8 0 -14 6.5t-6 14.5q0 7 5 12l32 32q-17 22 -26.5 49.5t-9.5 57.5q0 29 9.5 57t25.5 50l-26 26q-5 5 -5 13q0 9 6.5 15t14.5 6q7 0 13 -5l24 -25q23 20 52.5 31.5t62.5 11.5q30 0 58 -10.5t51 -29.5l27 27q6 5 14 5
t14 -6.5t6 -14.5q0 -7 -5 -13l-28 -27q19 -22 30 -50.5t11 -60.5q0 -31 -11.5 -59.5t-29.5 -51.5l28 -28q5 -7 5 -12q0 -7 -6 -14t-14 -7t-13 5l-28 27q-23 -19 -51 -30.5t-58 -11.5zM240 339q36 0 65 19t46.5 49.5t17.5 64.5q0 33 -17 63t-46.5 49t-65.5 19t-65.5 -18.5
t-46.5 -48.5t-17 -64t17 -64.5t46.5 -49.5t65.5 -19z" />
    <glyph glyph-name="yen" unicode="&#xa5;" horiz-adv-x="506" 
d="M251 0q-13 0 -23 7t-10 18v159h-114q-10 0 -17 7t-7 18q0 12 7 20t17 8h114v73h-114q-10 0 -17 7.5t-7 18.5q0 12 7 19.5t17 7.5h98l-174 331q-1 3 -2 5.5t-1 4.5q0 7 5.5 13.5t14.5 11t17 4.5t13.5 -4.5t10.5 -12.5l165 -322l172 322q4 8 9.5 12.5t13.5 4.5q9 0 17 -4
t13.5 -10.5t5.5 -14.5q0 -6 -2 -10l-182 -331h104q10 0 17.5 -7.5t7.5 -19.5q0 -11 -7.5 -18.5t-17.5 -7.5h-119v-73h119q10 0 17.5 -8t7.5 -19t-7.5 -18.5t-17.5 -7.5h-119v-159q0 -11 -9.5 -18t-22.5 -7z" />
    <glyph glyph-name="brokenbar" unicode="&#xa6;" horiz-adv-x="203" 
d="M102 447q-14 0 -23.5 7.5t-9.5 17.5v272q0 10 9.5 17t23.5 7q13 0 23 -7t10 -17v-272q0 -10 -10 -17.5t-23 -7.5zM102 -21q-14 0 -23.5 7.5t-9.5 17.5v272q0 10 9.5 17t23.5 7q13 0 23 -7t10 -17v-272q0 -10 -10 -17.5t-23 -7.5z" />
    <glyph glyph-name="section" unicode="&#xa7;" horiz-adv-x="467" 
d="M232 -67q-57 0 -98.5 23t-63 61t-21.5 82q0 17 8.5 23.5t21.5 6.5q16 0 22.5 -7t6.5 -17q0 -14 5 -33.5t17.5 -37.5t35.5 -30t59 -12q61 0 92.5 31.5t31.5 88.5q0 36 -15.5 57.5t-41 35t-56 24t-61.5 23t-56.5 32t-41 51t-15.5 81.5v124q0 58 16.5 95.5t42.5 58t56.5 29
t57.5 8.5q54 0 90 -21.5t54 -57.5t18 -82q0 -18 -8.5 -24.5t-20.5 -6.5q-15 0 -22.5 7.5t-7.5 23.5q0 19 -8 43t-29.5 42t-62.5 18q-28 0 -54 -12t-42.5 -39t-16.5 -74q0 -35 15.5 -57t41.5 -35.5t57 -24t62 -23t57 -31.5t41.5 -51t15.5 -81v-122q0 -52 -14.5 -88t-41 -58.5
t-59.5 -33t-68 -10.5zM357 220v29q0 42 -17.5 67t-45.5 39t-60.5 24t-62 23t-50.5 35v-28q0 -42 17.5 -67t45.5 -39.5t60.5 -24.5t62.5 -23t50 -35z" />
    <glyph glyph-name="dieresis" unicode="&#xa8;" horiz-adv-x="196" 
d="M160 593q-15 0 -26 11t-11 26q0 16 11 26t26 10q16 0 26 -10t10 -26q0 -15 -10 -26t-26 -11zM37 593q-16 0 -26.5 11t-10.5 26q0 16 10.5 26t26.5 10q15 0 25.5 -10t10.5 -26q0 -15 -10.5 -26t-25.5 -11z" />
    <glyph glyph-name="copyright" unicode="&#xa9;" horiz-adv-x="716" 
d="M355 35q-53 0 -106.5 20t-98.5 60t-72 101t-27 142q0 84 28.5 145.5t74.5 101.5t100.5 60t106.5 20q53 0 106.5 -20t98.5 -60t72 -101t27 -142q0 -84 -28.5 -145.5t-74.5 -101.5t-100.5 -60t-106.5 -20zM355 79q78 0 138 36t94 100t34 147q0 82 -32 145t-90.5 98.5
t-137.5 35.5q-77 0 -137.5 -35.5t-94.5 -99.5t-34 -148q0 -80 32 -144t91 -99.5t137 -35.5zM358 169q-42 0 -73 27t-31 92v158q0 65 31 92t74 27q49 0 77.5 -27t28.5 -68q0 -16 -5.5 -21.5t-17.5 -5.5q-11 0 -17.5 4.5t-6.5 12.5q0 11 -4 25.5t-16 25.5t-37 11
q-59 0 -59 -76v-158q0 -76 59 -76q25 0 36.5 11t15.5 26t5 27q1 9 7 13t16 4q13 0 18.5 -5.5t5.5 -20.5q0 -42 -28.5 -70t-78.5 -28z" />
    <glyph glyph-name="ordfeminine" unicode="&#xaa;" horiz-adv-x="314" 
d="M132 433q-6 -1 -13 -1t-13 1q-30 4 -50.5 23.5t-20.5 58.5q0 52 41.5 70.5t106.5 18.5h30v13q0 28 -15.5 53.5t-53.5 25.5q-22 0 -35 -4.5t-20.5 -9.5t-13.5 -5q-10 0 -15 9t-5 18q0 10 14 18t35 13t41 5q44 0 70.5 -17.5t38 -45.5t11.5 -60v-162q0 -8 -7 -13.5t-18 -5.5
q-10 0 -17 5.5t-7 13.5v25q-15 -17 -35.5 -30.5t-48.5 -16.5zM136 473q19 0 36.5 10t29 25t11.5 30v33h-27q-26 0 -48.5 -3.5t-36.5 -14t-14 -33.5q0 -25 14.5 -36t34.5 -11z" />
    <glyph glyph-name="guillemotleft" unicode="&#xab;" horiz-adv-x="405" 
d="M329 74q-16 0 -22 12l-89 164q-4 8 -7.5 14.5t-3.5 12.5q0 7 3.5 13t7.5 15l89 164q6 12 23 12q10 0 18.5 -5t13.5 -12.5t5 -14.5q0 -5 -3 -11l-87 -161l87 -160q3 -5 3 -11q0 -7 -5.5 -14.5t-14 -12.5t-18.5 -5zM157 74q-16 0 -22 12l-89 164q-4 8 -7.5 14.5t-3.5 12.5
q0 7 3.5 13t7.5 15l89 164q6 12 23 12q10 0 18.5 -5t13.5 -12.5t5 -14.5q0 -5 -3 -11l-87 -161l87 -160q3 -5 3 -11q0 -7 -5.5 -14.5t-14 -12.5t-18.5 -5z" />
    <glyph glyph-name="logicalnot" unicode="&#xac;" horiz-adv-x="485" 
d="M388 63q-14 0 -23.5 7.5t-9.5 17.5v124h-278q-11 0 -18 8t-7 20q0 13 7 21.5t18 8.5h318q9 0 17 -8.5t8 -21.5v-152q0 -10 -9 -17.5t-23 -7.5z" />
    <glyph glyph-name="uni00AD" unicode="&#xad;" horiz-adv-x="460" 
d="M70 212q-11 0 -18 8t-7 20q0 13 7 21.5t18 8.5h320q10 0 17.5 -8.5t7.5 -21.5q0 -12 -7.5 -20t-17.5 -8h-320z" />
    <glyph glyph-name="registered" unicode="&#xae;" horiz-adv-x="716" 
d="M355 35q-53 0 -106.5 20t-98.5 60t-72 101t-27 142q0 84 28.5 145.5t74.5 101.5t100.5 60t106.5 20q53 0 106.5 -20t98.5 -60t72 -101t27 -142q0 -84 -28.5 -145.5t-74.5 -101.5t-100.5 -60t-106.5 -20zM355 79q78 0 138 36t94 100t34 147q0 82 -32 145t-90.5 98.5
t-137.5 35.5q-77 0 -137.5 -35.5t-94.5 -99.5t-34 -148q0 -80 32 -144t91 -99.5t137 -35.5zM448 171q-6 0 -10.5 5.5t-8.5 13.5l-70 153h-50v-154q0 -8 -6.5 -12.5t-15.5 -4.5t-16.5 4.5t-7.5 12.5v354q0 6 4.5 11t11.5 6h88q30 0 53.5 -10t38.5 -33t15 -64
q0 -48 -19.5 -72.5t-48.5 -31.5l66 -146q2 -5 2 -7q0 -9 -8.5 -17t-17.5 -8zM309 382h59q27 0 43.5 16t16.5 51q0 38 -16.5 53.5t-43.5 15.5h-59v-136z" />
    <glyph glyph-name="macron" unicode="&#xaf;" horiz-adv-x="265" 
d="M25 635q-11 0 -18 7.5t-7 17.5q0 12 7 19t18 7h215q9 0 17 -7t8 -19q0 -10 -8 -17.5t-17 -7.5h-215z" />
    <glyph glyph-name="degree" unicode="&#xb0;" horiz-adv-x="419" 
d="M209 406q-47 0 -87.5 25.5t-65 67t-24.5 89.5t24 89t64.5 66t88.5 25t88.5 -24.5t65 -65t24.5 -90.5q0 -47 -24.5 -89t-65 -67.5t-88.5 -25.5zM209 455q36 0 65.5 19t47 49.5t17.5 64.5q0 33 -17.5 63t-47 49t-65.5 19t-65 -19t-46 -48.5t-17 -63.5t17 -64.5t46.5 -49.5
t64.5 -19z" />
    <glyph glyph-name="plusminus" unicode="&#xb1;" horiz-adv-x="476" 
d="M239 171q-12 0 -21 7t-9 17v129h-131q-11 0 -18 8t-7 21q0 12 7 20.5t18 8.5h131v128q0 10 9 18t21 8q13 0 20.5 -8t7.5 -18v-128h131q9 0 17 -8.5t8 -20.5q0 -13 -8 -21t-17 -8h-131v-129q0 -10 -7.5 -17t-20.5 -7zM78 57q-11 0 -18 8t-7 20q0 13 7 21.5t18 8.5h320
q9 0 17 -8.5t8 -21.5q0 -12 -8 -20t-17 -8h-320z" />
    <glyph glyph-name="uni00B2" unicode="&#xb2;" horiz-adv-x="306" 
d="M56 354q-7 0 -15 5t-8 13v49q0 26 19 46.5t47 39t56.5 37t47.5 39t19 44.5q0 21 -16.5 39.5t-52.5 18.5q-26 0 -44 -13t-18 -41q0 -6 -7 -12t-20 -6q-10 0 -16.5 6t-6.5 21q0 28 15 48t41 31.5t57 11.5q33 0 59.5 -13t42.5 -36t16 -53q0 -33 -19 -58t-46.5 -44.5
t-56 -36.5t-47.5 -33t-19 -34v-24h174q7 0 12 -6.5t5 -15.5q0 -8 -5 -15.5t-12 -7.5h-202z" />
    <glyph glyph-name="uni00B3" unicode="&#xb3;" horiz-adv-x="314" 
d="M152 351q-42 0 -69.5 14.5t-40.5 35t-13 40.5q0 13 6 17t18 4q16 0 21 -4.5t5 -13.5q0 -11 7 -22t23 -18.5t43 -7.5q37 0 56 16t19 51v9q0 33 -20.5 46t-54.5 13q-9 0 -13.5 6.5t-4.5 13.5q0 8 4.5 14.5t13.5 6.5q30 0 47 11.5t17 46.5q0 30 -15.5 43.5t-46.5 13.5
q-26 0 -40 -7t-19.5 -17t-5.5 -21q0 -10 -5.5 -15.5t-18.5 -5.5q-16 0 -21 5t-5 19q0 16 9.5 36t35 35t71.5 15q48 0 79 -20.5t31 -70.5q0 -33 -12.5 -55.5t-33.5 -31.5q25 -9 41.5 -28.5t16.5 -52.5v-9q0 -40 -17 -65t-45 -36t-63 -11z" />
    <glyph glyph-name="acute" unicode="&#xb4;" horiz-adv-x="155" 
d="M26 591q-10 0 -18 9t-8 19q0 13 11 18l112 61q5 3 8 3q11 0 17.5 -9t6.5 -19q0 -15 -12 -22l-107 -57q-2 -1 -5 -2t-5 -1z" />
    <glyph glyph-name="uni03BC" unicode="&#xb5;" horiz-adv-x="490" 
d="M102 -232q-13 0 -22 7.5t-9 17.5v655q0 9 9.5 17t22.5 8q14 0 23.5 -8t9.5 -17v-285q0 -16 10 -35t28 -36t40.5 -28t47.5 -11q32 0 59.5 18.5t43.5 48t16 61.5v267q0 11 10 18t22 7q14 0 23.5 -7t9.5 -18v-267q0 -51 -24.5 -94t-66.5 -68.5t-95 -25.5q-43 0 -77 19.5
t-52 44.5v-264q0 -10 -8.5 -17.5t-20.5 -7.5z" />
    <glyph glyph-name="paragraph" unicode="&#xb6;" horiz-adv-x="527" 
d="M296 0q-10 0 -17.5 6.5t-7.5 19.5v280h-41q-55 0 -99.5 20.5t-70.5 66t-26 120.5v12q0 75 26 120t70.5 65.5t99.5 20.5h195q9 0 17 -6.5t8 -18.5v-681q0 -13 -8 -19t-17 -6q-10 0 -18 6t-8 19v663h-77v-662q0 -13 -8 -19.5t-18 -6.5z" />
    <glyph glyph-name="periodcentered" unicode="&#xb7;" horiz-adv-x="185" 
d="M94 255q-21 0 -34.5 14t-13.5 31q0 19 13.5 32t34.5 13q19 0 32.5 -13t13.5 -32q0 -17 -13.5 -31t-32.5 -14z" />
    <glyph glyph-name="cedilla" unicode="&#xb8;" horiz-adv-x="167" 
d="M78 -210q-14 0 -32 3t-32 8.5t-14 14.5q0 3 2 9t5.5 10.5t8.5 4.5q6 0 18.5 -6.5t37.5 -6.5q29 0 41 11t12 27q0 21 -17 30.5t-46 11.5l-38 3l26 99h40l-19 -69q51 -2 73.5 -23.5t22.5 -49.5q0 -17 -9.5 -35t-29.5 -30t-50 -12z" />
    <glyph glyph-name="uni00B9" unicode="&#xb9;" horiz-adv-x="169" 
d="M94 354q-10 0 -17.5 4.5t-7.5 13.5v290l-22 -25q-5 -5 -11 -5q-8 0 -13 6.5t-5 13.5q0 6 3 11.5t6 7.5l55 55q6 6 15 6q8 0 15 -5t7 -13v-342q0 -9 -8 -13.5t-17 -4.5z" />
    <glyph glyph-name="ordmasculine" unicode="&#xba;" horiz-adv-x="327" 
d="M163 431q-33 0 -61.5 17.5t-45.5 45.5t-17 60v65q0 32 16.5 60t45 44.5t63.5 16.5q33 0 61.5 -16.5t46 -44t17.5 -60.5v-65q0 -32 -17.5 -60t-46 -45.5t-62.5 -17.5zM164 478q30 0 51.5 23.5t21.5 52.5v65q0 28 -21 51t-53 23q-31 0 -51.5 -23t-20.5 -51v-65
q0 -29 21 -52.5t52 -23.5z" />
    <glyph glyph-name="guillemotright" unicode="&#xbb;" horiz-adv-x="405" 
d="M249 74q-10 0 -19 5t-14 12.5t-5 14.5q0 6 3 11l86 160l-86 161q-3 6 -3 11q0 7 4.5 14.5t13.5 12.5t18 5q18 0 23 -12l89 -164q5 -9 8 -15t3 -13q0 -6 -3 -12.5t-8 -14.5l-89 -164q-6 -12 -21 -12zM77 74q-10 0 -19 5t-14 12.5t-5 14.5q0 6 3 11l86 160l-86 161
q-3 6 -3 11q0 7 4.5 14.5t13.5 12.5t18 5q18 0 23 -12l89 -164q5 -9 8 -15t3 -13q0 -6 -3 -12.5t-8 -14.5l-89 -164q-6 -12 -21 -12z" />
    <glyph glyph-name="onequarter" unicode="&#xbc;" horiz-adv-x="603" 
d="M94 354q-10 0 -17.5 4.5t-7.5 13.5v290l-22 -25q-5 -5 -11 -5q-8 0 -13 6.5t-5 13.5q0 6 3 11.5t6 7.5l55 55q6 6 15 6q8 0 15 -5t7 -13v-342q0 -9 -8 -13.5t-17 -4.5zM515 0q-10 0 -17.5 4t-7.5 13v69h-143q-7 0 -12.5 5t-5.5 14q0 3 3 10l140 247q4 8 10.5 11.5
t12.5 3.5q7 0 16 -5.5t9 -14.5q0 -4 -2 -8l-124 -216h96v77q0 8 7.5 12t17.5 4t17.5 -4t7.5 -12v-77h30q9 0 13.5 -7.5t4.5 -16.5t-5.5 -16t-12.5 -7h-30v-69q0 -9 -7.5 -13t-17.5 -4zM55 -26q-10 0 -18 7t-8 17q0 7 3 12l381 747q6 12 20 12q10 0 19.5 -7.5t9.5 -19.5
q0 -7 -4 -13l-379 -741q-3 -7 -9.5 -10.5t-14.5 -3.5z" />
    <glyph glyph-name="onehalf" unicode="&#xbd;" horiz-adv-x="622" 
d="M94 354q-10 0 -17.5 4.5t-7.5 13.5v290l-22 -25q-5 -5 -11 -5q-8 0 -13 6.5t-5 13.5q0 6 3 11.5t6 7.5l55 55q6 6 15 6q8 0 15 -5t7 -13v-342q0 -9 -8 -13.5t-17 -4.5zM372 0q-7 0 -15 5t-8 12v50q0 25 19 45.5t47 39.5t56.5 37.5t47.5 39t19 44.5q0 21 -16.5 39
t-52.5 18q-26 0 -44 -12.5t-18 -40.5q0 -6 -7 -12.5t-20 -6.5q-10 0 -16.5 6t-6.5 22q0 28 15 48t41 31.5t57 11.5q33 0 59.5 -13t42.5 -36t16 -53q0 -33 -19 -58t-46.5 -45t-56 -36.5t-47.5 -32.5t-19 -34v-24h174q7 0 12 -6.5t5 -15.5t-5 -16t-12 -7h-202zM55 -26
q-10 0 -18 7t-8 17q0 7 3 12l381 747q6 12 20 12q10 0 19.5 -7.5t9.5 -19.5q0 -7 -4 -13l-379 -741q-3 -7 -9.5 -10.5t-14.5 -3.5z" />
    <glyph glyph-name="threequarters" unicode="&#xbe;" horiz-adv-x="748" 
d="M152 351q-42 0 -69.5 14.5t-40.5 35t-13 40.5q0 13 6 17t18 4q16 0 21 -4.5t5 -13.5q0 -11 7 -22t23 -18.5t43 -7.5q37 0 56 16t19 51v9q0 33 -20.5 46t-54.5 13q-9 0 -13.5 6.5t-4.5 13.5q0 8 4.5 14.5t13.5 6.5q30 0 47 11.5t17 46.5q0 30 -15.5 43.5t-46.5 13.5
q-26 0 -40 -7t-19.5 -17t-5.5 -21q0 -10 -5.5 -15.5t-18.5 -5.5q-16 0 -21 5t-5 19q0 16 9.5 36t35 35t71.5 15q48 0 79 -20.5t31 -70.5q0 -33 -12.5 -55.5t-33.5 -31.5q25 -9 41.5 -28.5t16.5 -52.5v-9q0 -40 -17 -65t-45 -36t-63 -11zM660 0q-10 0 -17.5 4t-7.5 13v69
h-143q-7 0 -12.5 5t-5.5 14q0 3 3 10l140 247q4 8 10.5 11.5t12.5 3.5q7 0 16 -5.5t9 -14.5q0 -4 -2 -8l-124 -216h96v77q0 8 7.5 12t17.5 4t17.5 -4t7.5 -12v-77h30q9 0 13.5 -7.5t4.5 -16.5t-5.5 -16t-12.5 -7h-30v-69q0 -9 -7.5 -13t-17.5 -4zM200 -26q-10 0 -18 7t-8 17
q0 7 3 12l381 747q6 12 20 12q10 0 19.5 -7.5t9.5 -19.5q0 -7 -4 -13l-379 -741q-3 -7 -9.5 -10.5t-14.5 -3.5z" />
    <glyph glyph-name="questiondown" unicode="&#xbf;" horiz-adv-x="400" 
d="M223 -6q-62 0 -104 24t-63.5 64.5t-21.5 89.5q0 47 15.5 82t38 61.5t44.5 46.5t36 36q17 19 24 39.5t8.5 48t1.5 64.5q0 11 7 17t21 6q12 0 19 -6.5t7 -22.5q0 -56 -5.5 -89t-15 -52t-22.5 -33q-15 -17 -35.5 -35t-40.5 -40t-32.5 -50.5t-12.5 -67.5q0 -60 34.5 -94
t100.5 -34q33 0 53.5 7.5t32.5 17t20.5 17t17.5 7.5t17.5 -7t8.5 -20q0 -16 -20 -33.5t-55 -30.5t-79 -13zM229 651q-18 0 -31.5 14t-13.5 33q0 18 13 32t32 14q20 0 33 -14t13 -32q0 -19 -13 -33t-33 -14z" />
    <glyph glyph-name="Agrave" unicode="&#xc0;" horiz-adv-x="538" 
d="M314 845q-2 0 -5 1t-5 2l-106 57q-13 7 -13 22q0 10 7 19t17 9q4 0 9 -3l111 -61q11 -5 11 -18q0 -10 -7.5 -19t-18.5 -9zM58 0q-8 0 -17 3.5t-15 10t-6 14.5q0 4 1 7l209 679q4 12 15 17.5t24 5.5q14 0 25.5 -6t14.5 -17l208 -679q1 -3 1 -6q0 -8 -6 -14.5t-15 -10.5
t-19 -4q-8 0 -15 4t-9 13l-47 154h-276l-46 -154q-3 -9 -10 -13t-17 -4zM147 228h243l-121 403z" />
    <glyph glyph-name="Aacute" unicode="&#xc1;" horiz-adv-x="538" 
d="M226 845q-10 0 -18 9t-8 19q0 13 11 18l112 61q5 3 8 3q11 0 17.5 -9t6.5 -19q0 -15 -12 -22l-107 -57q-2 -1 -5 -2t-5 -1zM58 0q-8 0 -17 3.5t-15 10t-6 14.5q0 4 1 7l209 679q4 12 15 17.5t24 5.5q14 0 25.5 -6t14.5 -17l208 -679q1 -3 1 -6q0 -8 -6 -14.5t-15 -10.5
t-19 -4q-8 0 -15 4t-9 13l-47 154h-276l-46 -154q-3 -9 -10 -13t-17 -4zM147 228h243l-121 403z" />
    <glyph glyph-name="Acircumflex" unicode="&#xc2;" horiz-adv-x="538" 
d="M157 846q-8 0 -14.5 8t-6.5 18q0 6 3.5 12t9.5 10l104 56q9 5 17 5q9 0 17 -5l104 -56q7 -3 10 -9.5t3 -13.5q0 -10 -6 -17t-14 -7q-2 0 -5 1t-5 2l-104 55l-104 -56q-2 -1 -4.5 -2t-4.5 -1zM58 0q-8 0 -17 3.5t-15 10t-6 14.5q0 4 1 7l209 679q4 12 15 17.5t24 5.5
q14 0 25.5 -6t14.5 -17l208 -679q1 -3 1 -6q0 -8 -6 -14.5t-15 -10.5t-19 -4q-8 0 -15 4t-9 13l-47 154h-276l-46 -154q-3 -9 -10 -13t-17 -4zM147 228h243l-121 403z" />
    <glyph glyph-name="Atilde" unicode="&#xc3;" horiz-adv-x="538" 
d="M340 863q-27 0 -47 9t-39.5 17.5t-46.5 8.5q-21 0 -34.5 -8t-22 -16t-17.5 -8q-6 0 -10 4t-6.5 10t-2.5 11q0 14 9 24.5t23 18t29.5 11t26.5 3.5q27 0 46.5 -8t39.5 -17t46 -9q22 0 34 7.5t19.5 14.5t16.5 7q7 0 11.5 -4t6.5 -9t2 -10q0 -16 -9 -26.5t-22.5 -17.5
t-27.5 -10t-25 -3zM58 0q-8 0 -17 3.5t-15 10t-6 14.5q0 4 1 7l209 679q4 12 15 17.5t24 5.5q14 0 25.5 -6t14.5 -17l208 -679q1 -3 1 -6q0 -8 -6 -14.5t-15 -10.5t-19 -4q-8 0 -15 4t-9 13l-47 154h-276l-46 -154q-3 -9 -10 -13t-17 -4zM147 228h243l-121 403z" />
    <glyph glyph-name="Adieresis" unicode="&#xc4;" horiz-adv-x="538" 
d="M331 847q-15 0 -26 11t-11 26q0 16 11 26t26 10q16 0 26 -10t10 -26q0 -15 -10 -26t-26 -11zM208 847q-16 0 -26.5 11t-10.5 26q0 16 10.5 26t26.5 10q15 0 25.5 -10t10.5 -26q0 -15 -10.5 -26t-25.5 -11zM58 0q-8 0 -17 3.5t-15 10t-6 14.5q0 4 1 7l209 679
q4 12 15 17.5t24 5.5q14 0 25.5 -6t14.5 -17l208 -679q1 -3 1 -6q0 -8 -6 -14.5t-15 -10.5t-19 -4q-8 0 -15 4t-9 13l-47 154h-276l-46 -154q-3 -9 -10 -13t-17 -4zM147 228h243l-121 403z" />
    <glyph glyph-name="Aring" unicode="&#xc5;" horiz-adv-x="538" 
d="M269 832q-25 0 -46 13.5t-33.5 35.5t-12.5 47q0 24 12.5 45t33.5 34.5t46 13.5t46 -12.5t34 -34.5t13 -46q0 -25 -13 -47t-34 -35.5t-46 -13.5zM270 865q23 0 40.5 19.5t17.5 43.5q0 21 -17.5 39.5t-40.5 18.5q-26 0 -43 -19t-17 -39q0 -24 17.5 -43.5t42.5 -19.5zM58 0
q-8 0 -17 3.5t-15 10t-6 14.5q0 4 1 7l209 679q4 12 15 17.5t24 5.5q14 0 25.5 -6t14.5 -17l208 -679q1 -3 1 -6q0 -8 -6 -14.5t-15 -10.5t-19 -4q-8 0 -15 4t-9 13l-47 154h-276l-46 -154q-3 -9 -10 -13t-17 -4zM147 228h243l-121 403z" />
    <glyph glyph-name="AE" unicode="&#xc6;" horiz-adv-x="714" 
d="M103 0q-17 0 -24 9t-7 22v487q0 77 27.5 124t74 68t104.5 21h387q13 0 19 -9.5t6 -19.5q0 -13 -6.5 -22.5t-18.5 -9.5h-234v-275h147q12 0 18.5 -9t6.5 -21q0 -9 -6 -18t-19 -9h-147v-277h234q12 0 18.5 -9t6.5 -22q0 -11 -6 -20.5t-19 -9.5h-269q-12 0 -21.5 6.5
t-9.5 19.5v312h-229v-307q0 -13 -5.5 -22t-27.5 -9zM136 395h229v275h-87q-67 0 -104.5 -37t-37.5 -115v-123z" />
    <glyph glyph-name="Ccedilla" unicode="&#xc7;" horiz-adv-x="525" 
d="M302 -210q-14 0 -32 3t-32 8.5t-14 14.5q0 3 2 9t5.5 10.5t8.5 4.5q6 0 18.5 -6.5t37.5 -6.5q29 0 41 11t12 27q0 21 -17 30.5t-46 11.5l-38 3l26 99h40l-19 -69q51 -2 73.5 -23.5t22.5 -49.5q0 -17 -9.5 -35t-29.5 -30t-50 -12zM276 -6q-56 0 -103.5 21t-75.5 68
t-28 125v310q0 77 28.5 124t76 68t104.5 21q66 0 112 -23t70.5 -61t24.5 -83q0 -24 -8.5 -32t-24.5 -8q-18 0 -25.5 7.5t-7.5 17.5q-1 16 -6.5 37t-20 40t-42 31.5t-71.5 12.5q-70 0 -107 -37t-37 -115v-310q0 -79 37.5 -116t109.5 -37q45 0 71 12.5t39.5 31t18.5 40t8 39.5
q1 13 9 19.5t23 6.5q17 0 25.5 -8.5t8.5 -32.5q0 -45 -25 -83.5t-71.5 -62t-112.5 -23.5z" />
    <glyph glyph-name="Egrave" unicode="&#xc8;" horiz-adv-x="508" 
d="M325 845q-2 0 -5 1t-5 2l-106 57q-13 7 -13 22q0 10 7 19t17 9q4 0 9 -3l111 -61q11 -5 11 -18q0 -10 -7.5 -19t-18.5 -9zM106 0q-11 0 -20.5 6.5t-9.5 19.5v680q0 12 9.5 18.5t20.5 6.5h356q13 0 19 -9.5t6 -19.5q0 -13 -6.5 -22.5t-18.5 -9.5h-320v-275h157
q12 0 18.5 -9t6.5 -21q0 -9 -6 -18t-19 -9h-157v-277h320q12 0 18.5 -9t6.5 -22q0 -11 -6 -20.5t-19 -9.5h-356z" />
    <glyph glyph-name="Eacute" unicode="&#xc9;" horiz-adv-x="508" 
d="M237 845q-10 0 -18 9t-8 19q0 13 11 18l112 61q5 3 8 3q11 0 17.5 -9t6.5 -19q0 -15 -12 -22l-107 -57q-2 -1 -5 -2t-5 -1zM106 0q-11 0 -20.5 6.5t-9.5 19.5v680q0 12 9.5 18.5t20.5 6.5h356q13 0 19 -9.5t6 -19.5q0 -13 -6.5 -22.5t-18.5 -9.5h-320v-275h157
q12 0 18.5 -9t6.5 -21q0 -9 -6 -18t-19 -9h-157v-277h320q12 0 18.5 -9t6.5 -22q0 -11 -6 -20.5t-19 -9.5h-356z" />
    <glyph glyph-name="Ecircumflex" unicode="&#xca;" horiz-adv-x="508" 
d="M168 846q-8 0 -14.5 8t-6.5 18q0 6 3.5 12t9.5 10l104 56q9 5 17 5q9 0 17 -5l104 -56q7 -3 10 -9.5t3 -13.5q0 -10 -6 -17t-14 -7q-2 0 -5 1t-5 2l-104 55l-104 -56q-2 -1 -4.5 -2t-4.5 -1zM106 0q-11 0 -20.5 6.5t-9.5 19.5v680q0 12 9.5 18.5t20.5 6.5h356
q13 0 19 -9.5t6 -19.5q0 -13 -6.5 -22.5t-18.5 -9.5h-320v-275h157q12 0 18.5 -9t6.5 -21q0 -9 -6 -18t-19 -9h-157v-277h320q12 0 18.5 -9t6.5 -22q0 -11 -6 -20.5t-19 -9.5h-356z" />
    <glyph glyph-name="Edieresis" unicode="&#xcb;" horiz-adv-x="508" 
d="M342 847q-15 0 -26 11t-11 26q0 16 11 26t26 10q16 0 26 -10t10 -26q0 -15 -10 -26t-26 -11zM219 847q-16 0 -26.5 11t-10.5 26q0 16 10.5 26t26.5 10q15 0 25.5 -10t10.5 -26q0 -15 -10.5 -26t-25.5 -11zM106 0q-11 0 -20.5 6.5t-9.5 19.5v680q0 12 9.5 18.5t20.5 6.5
h356q13 0 19 -9.5t6 -19.5q0 -13 -6.5 -22.5t-18.5 -9.5h-320v-275h157q12 0 18.5 -9t6.5 -21q0 -9 -6 -18t-19 -9h-157v-277h320q12 0 18.5 -9t6.5 -22q0 -11 -6 -20.5t-19 -9.5h-356z" />
    <glyph glyph-name="Igrave" unicode="&#xcc;" horiz-adv-x="218" 
d="M153 845q-2 0 -5 1t-5 2l-106 57q-13 7 -13 22q0 10 7 19t17 9q4 0 9 -3l111 -61q11 -5 11 -18q0 -10 -7.5 -19t-18.5 -9zM109 0q-13 0 -23 6.5t-10 19.5v681q0 12 10 18t23 6q12 0 22.5 -6t10.5 -18v-681q0 -13 -10.5 -19.5t-22.5 -6.5z" />
    <glyph glyph-name="Iacute" unicode="&#xcd;" horiz-adv-x="218" 
d="M66 845q-10 0 -18 9t-8 19q0 13 11 18l112 61q5 3 8 3q11 0 17.5 -9t6.5 -19q0 -15 -12 -22l-107 -57q-2 -1 -5 -2t-5 -1zM109 0q-13 0 -23 6.5t-10 19.5v681q0 12 10 18t23 6q12 0 22.5 -6t10.5 -18v-681q0 -13 -10.5 -19.5t-22.5 -6.5z" />
    <glyph glyph-name="Icircumflex" unicode="&#xce;" horiz-adv-x="218" 
d="M-4 846q-8 0 -14.5 8t-6.5 18q0 6 3.5 12t9.5 10l104 56q9 5 17 5q9 0 17 -5l104 -56q7 -3 10 -9.5t3 -13.5q0 -10 -6 -17t-14 -7q-2 0 -5 1t-5 2l-104 55l-104 -56q-2 -1 -4.5 -2t-4.5 -1zM109 0q-13 0 -23 6.5t-10 19.5v681q0 12 10 18t23 6q12 0 22.5 -6t10.5 -18
v-681q0 -13 -10.5 -19.5t-22.5 -6.5z" />
    <glyph glyph-name="Idieresis" unicode="&#xcf;" horiz-adv-x="218" 
d="M171 847q-15 0 -26 11t-11 26q0 16 11 26t26 10q16 0 26 -10t10 -26q0 -15 -10 -26t-26 -11zM48 847q-16 0 -26.5 11t-10.5 26q0 16 10.5 26t26.5 10q15 0 25.5 -10t10.5 -26q0 -15 -10.5 -26t-25.5 -11zM109 0q-13 0 -23 6.5t-10 19.5v681q0 12 10 18t23 6q12 0 22.5 -6
t10.5 -18v-681q0 -13 -10.5 -19.5t-22.5 -6.5z" />
    <glyph glyph-name="Eth" unicode="&#xd0;" horiz-adv-x="569" 
d="M115 0q-13 0 -21.5 7t-8.5 18v332h-63q-10 0 -16 8t-6 19t6 19t16 8h63v296q0 10 8.5 17t21.5 7h177q59 0 106.5 -21t75 -68t27.5 -124v-304q0 -78 -27.5 -125t-75 -68t-106.5 -21h-177zM151 61h141q67 0 105 37t38 116v304q0 78 -38 115t-105 37h-141v-259h114
q10 0 16.5 -8t6.5 -19t-6.5 -19t-16.5 -8h-114v-296z" />
    <glyph glyph-name="Ntilde" unicode="&#xd1;" horiz-adv-x="573" 
d="M357 863q-27 0 -47 9t-39.5 17.5t-46.5 8.5q-21 0 -34.5 -8t-22 -16t-17.5 -8q-6 0 -10 4t-6.5 10t-2.5 11q0 14 9 24.5t23 18t29.5 11t26.5 3.5q27 0 46.5 -8t39.5 -17t46 -9q22 0 34 7.5t19.5 14.5t16.5 7q7 0 11.5 -4t6.5 -9t2 -10q0 -16 -9 -26.5t-22.5 -17.5
t-27.5 -10t-25 -3zM109 0q-13 0 -23 6.5t-10 19.5v680q0 14 10 19.5t23 5.5q12 0 21 -6.5t17 -16.5t14 -23l270 -532v554q0 13 10 18.5t23 5.5q12 0 22.5 -5.5t10.5 -18.5v-681q0 -13 -10.5 -19.5t-22.5 -6.5q-14 0 -25 12t-19 26l-278 541v-553q0 -13 -10.5 -19.5
t-22.5 -6.5z" />
    <glyph glyph-name="Ograve" unicode="&#xd2;" horiz-adv-x="553" 
d="M322 845q-2 0 -5 1t-5 2l-106 57q-13 7 -13 22q0 10 7 19t17 9q4 0 9 -3l111 -61q11 -5 11 -18q0 -10 -7.5 -19t-18.5 -9zM276 -6q-58 0 -105 21t-74.5 68t-27.5 125v310q0 77 27.5 124t74 68t105.5 21t106 -21t75 -68t28 -124v-310q0 -78 -28 -125t-75 -68t-106 -21z
M276 55q67 0 105 37t38 116v310q0 78 -38 115t-105 37t-104 -37t-37 -115v-310q0 -79 37 -116t104 -37z" />
    <glyph glyph-name="Oacute" unicode="&#xd3;" horiz-adv-x="553" 
d="M234 845q-10 0 -18 9t-8 19q0 13 11 18l112 61q5 3 8 3q11 0 17.5 -9t6.5 -19q0 -15 -12 -22l-107 -57q-2 -1 -5 -2t-5 -1zM276 -6q-58 0 -105 21t-74.5 68t-27.5 125v310q0 77 27.5 124t74 68t105.5 21t106 -21t75 -68t28 -124v-310q0 -78 -28 -125t-75 -68t-106 -21z
M276 55q67 0 105 37t38 116v310q0 78 -38 115t-105 37t-104 -37t-37 -115v-310q0 -79 37 -116t104 -37z" />
    <glyph glyph-name="Ocircumflex" unicode="&#xd4;" horiz-adv-x="553" 
d="M164 846q-8 0 -14.5 8t-6.5 18q0 6 3.5 12t9.5 10l104 56q9 5 17 5q9 0 17 -5l104 -56q7 -3 10 -9.5t3 -13.5q0 -10 -6 -17t-14 -7q-2 0 -5 1t-5 2l-104 55l-104 -56q-2 -1 -4.5 -2t-4.5 -1zM276 -6q-58 0 -105 21t-74.5 68t-27.5 125v310q0 77 27.5 124t74 68t105.5 21
t106 -21t75 -68t28 -124v-310q0 -78 -28 -125t-75 -68t-106 -21zM276 55q67 0 105 37t38 116v310q0 78 -38 115t-105 37t-104 -37t-37 -115v-310q0 -79 37 -116t104 -37z" />
    <glyph glyph-name="Otilde" unicode="&#xd5;" horiz-adv-x="553" 
d="M348 863q-27 0 -47 9t-39.5 17.5t-46.5 8.5q-21 0 -34.5 -8t-22 -16t-17.5 -8q-6 0 -10 4t-6.5 10t-2.5 11q0 14 9 24.5t23 18t29.5 11t26.5 3.5q27 0 46.5 -8t39.5 -17t46 -9q22 0 34 7.5t19.5 14.5t16.5 7q7 0 11.5 -4t6.5 -9t2 -10q0 -16 -9 -26.5t-22.5 -17.5
t-27.5 -10t-25 -3zM276 -6q-58 0 -105 21t-74.5 68t-27.5 125v310q0 77 27.5 124t74 68t105.5 21t106 -21t75 -68t28 -124v-310q0 -78 -28 -125t-75 -68t-106 -21zM276 55q67 0 105 37t38 116v310q0 78 -38 115t-105 37t-104 -37t-37 -115v-310q0 -79 37 -116t104 -37z" />
    <glyph glyph-name="Odieresis" unicode="&#xd6;" horiz-adv-x="553" 
d="M339 847q-15 0 -26 11t-11 26q0 16 11 26t26 10q16 0 26 -10t10 -26q0 -15 -10 -26t-26 -11zM216 847q-16 0 -26.5 11t-10.5 26q0 16 10.5 26t26.5 10q15 0 25.5 -10t10.5 -26q0 -15 -10.5 -26t-25.5 -11zM276 -6q-58 0 -105 21t-74.5 68t-27.5 125v310q0 77 27.5 124
t74 68t105.5 21t106 -21t75 -68t28 -124v-310q0 -78 -28 -125t-75 -68t-106 -21zM276 55q67 0 105 37t38 116v310q0 78 -38 115t-105 37t-104 -37t-37 -115v-310q0 -79 37 -116t104 -37z" />
    <glyph glyph-name="multiply" unicode="&#xd7;" horiz-adv-x="397" 
d="M89 135q-7 0 -14 4.5t-12 12t-5 14.5q0 9 7 16l95 93l-95 93q-6 6 -6 17q0 12 9 21t21 9q10 0 17 -6l92 -93l93 93q6 6 17 6q12 0 21.5 -9t9.5 -21q0 -11 -7 -17l-95 -93l95 -93q7 -7 7 -16q0 -8 -4 -15t-11.5 -11.5t-15.5 -4.5q-9 0 -16 7l-94 93l-93 -93q-6 -7 -16 -7z
" />
    <glyph glyph-name="Oslash" unicode="&#xd8;" horiz-adv-x="553" 
d="M276 -6q-58 0 -105 21t-74.5 68t-27.5 125v310q0 77 27.5 124t74 68t105.5 21t106 -21t75 -68t28 -124v-310q0 -78 -28 -125t-75 -68t-106 -21zM276 55q67 0 105 37t38 116v310q0 78 -38 115t-105 37t-104 -37t-37 -115v-310q0 -79 37 -116t104 -37zM89 -27
q-11 0 -18.5 7t-7.5 17q0 7 3 12l381 747q6 12 20 12q10 0 19 -7.5t9 -19.5q0 -7 -3 -13l-379 -741q-4 -7 -10.5 -10.5t-13.5 -3.5z" />
    <glyph glyph-name="Ugrave" unicode="&#xd9;" horiz-adv-x="563" 
d="M327 845q-2 0 -5 1t-5 2l-106 57q-13 7 -13 22q0 10 7 19t17 9q4 0 9 -3l111 -61q11 -5 11 -18q0 -10 -7.5 -19t-18.5 -9zM281 -6q-59 0 -106 21t-75 68t-28 125v499q0 12 10 18t23 6t23 -6t10 -18v-499q0 -79 38 -116t105 -37q68 0 106 37t38 116v499q0 12 10 18t23 6
t23 -6t10 -18v-499q0 -78 -27.5 -125t-75.5 -68t-107 -21z" />
    <glyph glyph-name="Uacute" unicode="&#xda;" horiz-adv-x="563" 
d="M239 845q-10 0 -18 9t-8 19q0 13 11 18l112 61q5 3 8 3q11 0 17.5 -9t6.5 -19q0 -15 -12 -22l-107 -57q-2 -1 -5 -2t-5 -1zM281 -6q-59 0 -106 21t-75 68t-28 125v499q0 12 10 18t23 6t23 -6t10 -18v-499q0 -79 38 -116t105 -37q68 0 106 37t38 116v499q0 12 10 18t23 6
t23 -6t10 -18v-499q0 -78 -27.5 -125t-75.5 -68t-107 -21z" />
    <glyph glyph-name="Ucircumflex" unicode="&#xdb;" horiz-adv-x="563" 
d="M169 846q-8 0 -14.5 8t-6.5 18q0 6 3.5 12t9.5 10l104 56q9 5 17 5q9 0 17 -5l104 -56q7 -3 10 -9.5t3 -13.5q0 -10 -6 -17t-14 -7q-2 0 -5 1t-5 2l-104 55l-104 -56q-2 -1 -4.5 -2t-4.5 -1zM281 -6q-59 0 -106 21t-75 68t-28 125v499q0 12 10 18t23 6t23 -6t10 -18v-499
q0 -79 38 -116t105 -37q68 0 106 37t38 116v499q0 12 10 18t23 6t23 -6t10 -18v-499q0 -78 -27.5 -125t-75.5 -68t-107 -21z" />
    <glyph glyph-name="Udieresis" unicode="&#xdc;" horiz-adv-x="563" 
d="M344 847q-15 0 -26 11t-11 26q0 16 11 26t26 10q16 0 26 -10t10 -26q0 -15 -10 -26t-26 -11zM221 847q-16 0 -26.5 11t-10.5 26q0 16 10.5 26t26.5 10q15 0 25.5 -10t10.5 -26q0 -15 -10.5 -26t-25.5 -11zM281 -6q-59 0 -106 21t-75 68t-28 125v499q0 12 10 18t23 6
t23 -6t10 -18v-499q0 -79 38 -116t105 -37q68 0 106 37t38 116v499q0 12 10 18t23 6t23 -6t10 -18v-499q0 -78 -27.5 -125t-75.5 -68t-107 -21z" />
    <glyph glyph-name="Yacute" unicode="&#xdd;" horiz-adv-x="529" 
d="M222 845q-10 0 -18 9t-8 19q0 13 11 18l112 61q5 3 8 3q11 0 17.5 -9t6.5 -19q0 -15 -12 -22l-107 -57q-2 -1 -5 -2t-5 -1zM264 0q-12 0 -22.5 6.5t-10.5 19.5v254q0 5 -1 8l-207 397q-3 6 -4 10.5t-1 7.5q0 9 5.5 15t14 9.5t16.5 3.5t14.5 -5t11.5 -15l184 -365l185 365
q6 10 12.5 15t13.5 5q9 0 17 -3.5t13.5 -9.5t5.5 -15q0 -3 -1 -7.5t-3 -10.5l-208 -397q-2 -3 -2 -8v-254q0 -13 -10 -19.5t-23 -6.5z" />
    <glyph glyph-name="Thorn" unicode="&#xde;" horiz-adv-x="495" 
d="M108 0q-13 0 -22.5 8t-9.5 18v686q0 11 9 17t22 6q15 0 24.5 -6.5t9.5 -17.5v-168q17 31 51.5 53.5t86.5 22.5q46 0 85.5 -19t63.5 -55t24 -87v-161q0 -50 -24.5 -86.5t-63 -57t-80.5 -20.5q-30 0 -60 10.5t-52 28.5t-31 40v-186q0 -10 -9.5 -18t-23.5 -8zM268 193
q30 0 57.5 12t44.5 35t17 57v161q0 33 -17 55.5t-44 34t-58 11.5q-33 0 -62.5 -12.5t-47 -35t-17.5 -53.5v-165q0 -22 16.5 -45t45 -39t65.5 -16z" />
    <glyph glyph-name="germandbls" unicode="&#xdf;" horiz-adv-x="550" 
d="M329 -20q-11 0 -29 1.5t-35.5 6t-29.5 13.5t-12 23q0 7 2.5 14t7 12t10.5 5q11 0 28 -9.5t51 -9.5q58 0 93 41t35 120v17q0 39 -15.5 75.5t-49 61.5t-88.5 31q-16 2 -25 6.5t-9 20.5q0 17 10 21.5t25 7.5q27 2 43 16t24.5 34t11.5 41.5t3 40.5q0 63 -26.5 100.5
t-82.5 37.5q-40 0 -63 -18t-32.5 -46.5t-9.5 -60.5v-558q0 -11 -10 -18t-24 -7q-13 0 -22 7t-9 18v394h-73q-10 0 -16 8t-6 19t6 19t16 8h73v110q0 50 16.5 92t53.5 67.5t97 25.5q48 0 86.5 -19t61 -59t22.5 -103q0 -35 -8 -70t-23.5 -61.5t-39.5 -37.5q34 -6 67 -34
t55.5 -71t22.5 -95v-17q0 -75 -26.5 -124t-68 -73t-88.5 -24z" />
    <glyph glyph-name="agrave" unicode="&#xe0;" horiz-adv-x="438" 
d="M259 590q-2 0 -5 1t-5 2l-106 57q-13 7 -13 22q0 10 7 19t17 9q4 0 9 -3l111 -61q11 -5 11 -18q0 -10 -7.5 -19t-18.5 -9zM167 -7q-56 0 -96 32.5t-40 99.5q0 55 29.5 84.5t82 41t121.5 11.5h51v24q0 32 -11.5 63.5t-37 52t-69.5 20.5q-33 0 -54 -7t-33 -14.5t-20 -7.5
q-12 0 -19 12t-7 23q0 13 20.5 24.5t52 19t62.5 7.5q67 0 106.5 -27.5t57 -71.5t17.5 -94v-260q0 -11 -8.5 -18.5t-23.5 -7.5q-12 0 -21 7.5t-9 18.5v44q-26 -29 -63 -53t-88 -24zM183 48q33 0 63 17t49.5 41.5t19.5 46.5v64h-42q-45 0 -85.5 -5.5t-66 -23.5t-25.5 -57
q0 -43 25.5 -63t61.5 -20z" />
    <glyph glyph-name="aacute" unicode="&#xe1;" horiz-adv-x="438" 
d="M172 590q-10 0 -18 9t-8 19q0 13 11 18l112 61q5 3 8 3q11 0 17.5 -9t6.5 -19q0 -15 -12 -22l-107 -57q-2 -1 -5 -2t-5 -1zM167 -7q-56 0 -96 32.5t-40 99.5q0 55 29.5 84.5t82 41t121.5 11.5h51v24q0 32 -11.5 63.5t-37 52t-69.5 20.5q-33 0 -54 -7t-33 -14.5t-20 -7.5
q-12 0 -19 12t-7 23q0 13 20.5 24.5t52 19t62.5 7.5q67 0 106.5 -27.5t57 -71.5t17.5 -94v-260q0 -11 -8.5 -18.5t-23.5 -7.5q-12 0 -21 7.5t-9 18.5v44q-26 -29 -63 -53t-88 -24zM183 48q33 0 63 17t49.5 41.5t19.5 46.5v64h-42q-45 0 -85.5 -5.5t-66 -23.5t-25.5 -57
q0 -43 25.5 -63t61.5 -20z" />
    <glyph glyph-name="acircumflex" unicode="&#xe2;" horiz-adv-x="438" 
d="M102 591q-8 0 -14.5 8t-6.5 18q0 6 3.5 12t9.5 10l104 56q9 5 17 5q9 0 17 -5l104 -56q7 -3 10 -9.5t3 -13.5q0 -10 -6 -17t-14 -7q-2 0 -5 1t-5 2l-104 55l-104 -56q-2 -1 -4.5 -2t-4.5 -1zM167 -7q-56 0 -96 32.5t-40 99.5q0 55 29.5 84.5t82 41t121.5 11.5h51v24
q0 32 -11.5 63.5t-37 52t-69.5 20.5q-33 0 -54 -7t-33 -14.5t-20 -7.5q-12 0 -19 12t-7 23q0 13 20.5 24.5t52 19t62.5 7.5q67 0 106.5 -27.5t57 -71.5t17.5 -94v-260q0 -11 -8.5 -18.5t-23.5 -7.5q-12 0 -21 7.5t-9 18.5v44q-26 -29 -63 -53t-88 -24zM183 48q33 0 63 17
t49.5 41.5t19.5 46.5v64h-42q-45 0 -85.5 -5.5t-66 -23.5t-25.5 -57q0 -43 25.5 -63t61.5 -20z" />
    <glyph glyph-name="atilde" unicode="&#xe3;" horiz-adv-x="438" 
d="M285 608q-27 0 -47 9t-39.5 17.5t-46.5 8.5q-21 0 -34.5 -8t-22 -16t-17.5 -8q-6 0 -10 4t-6.5 10t-2.5 11q0 14 9 24.5t23 18t29.5 11t26.5 3.5q27 0 46.5 -8t39.5 -17t46 -9q22 0 34 7.5t19.5 14.5t16.5 7q7 0 11.5 -4t6.5 -9t2 -10q0 -16 -9 -26.5t-22.5 -17.5
t-27.5 -10t-25 -3zM167 -7q-56 0 -96 32.5t-40 99.5q0 55 29.5 84.5t82 41t121.5 11.5h51v24q0 32 -11.5 63.5t-37 52t-69.5 20.5q-33 0 -54 -7t-33 -14.5t-20 -7.5q-12 0 -19 12t-7 23q0 13 20.5 24.5t52 19t62.5 7.5q67 0 106.5 -27.5t57 -71.5t17.5 -94v-260
q0 -11 -8.5 -18.5t-23.5 -7.5q-12 0 -21 7.5t-9 18.5v44q-26 -29 -63 -53t-88 -24zM183 48q33 0 63 17t49.5 41.5t19.5 46.5v64h-42q-45 0 -85.5 -5.5t-66 -23.5t-25.5 -57q0 -43 25.5 -63t61.5 -20z" />
    <glyph glyph-name="adieresis" unicode="&#xe4;" horiz-adv-x="438" 
d="M277 592q-15 0 -26 11t-11 26q0 16 11 26t26 10q16 0 26 -10t10 -26q0 -15 -10 -26t-26 -11zM154 592q-16 0 -26.5 11t-10.5 26q0 16 10.5 26t26.5 10q15 0 25.5 -10t10.5 -26q0 -15 -10.5 -26t-25.5 -11zM167 -7q-56 0 -96 32.5t-40 99.5q0 55 29.5 84.5t82 41
t121.5 11.5h51v24q0 32 -11.5 63.5t-37 52t-69.5 20.5q-33 0 -54 -7t-33 -14.5t-20 -7.5q-12 0 -19 12t-7 23q0 13 20.5 24.5t52 19t62.5 7.5q67 0 106.5 -27.5t57 -71.5t17.5 -94v-260q0 -11 -8.5 -18.5t-23.5 -7.5q-12 0 -21 7.5t-9 18.5v44q-26 -29 -63 -53t-88 -24z
M183 48q33 0 63 17t49.5 41.5t19.5 46.5v64h-42q-45 0 -85.5 -5.5t-66 -23.5t-25.5 -57q0 -43 25.5 -63t61.5 -20z" />
    <glyph glyph-name="aring" unicode="&#xe5;" horiz-adv-x="438" 
d="M214 577q-25 0 -46 13.5t-33.5 35.5t-12.5 47q0 24 12.5 45t33.5 34.5t46 13.5t46 -12.5t34 -34.5t13 -46q0 -25 -13 -47t-34 -35.5t-46 -13.5zM215 610q23 0 40.5 19.5t17.5 43.5q0 21 -17.5 39.5t-40.5 18.5q-26 0 -43 -19t-17 -39q0 -24 17.5 -43.5t42.5 -19.5z
M167 -7q-56 0 -96 32.5t-40 99.5q0 55 29.5 84.5t82 41t121.5 11.5h51v24q0 32 -11.5 63.5t-37 52t-69.5 20.5q-33 0 -54 -7t-33 -14.5t-20 -7.5q-12 0 -19 12t-7 23q0 13 20.5 24.5t52 19t62.5 7.5q67 0 106.5 -27.5t57 -71.5t17.5 -94v-260q0 -11 -8.5 -18.5t-23.5 -7.5
q-12 0 -21 7.5t-9 18.5v44q-26 -29 -63 -53t-88 -24zM183 48q33 0 63 17t49.5 41.5t19.5 46.5v64h-42q-45 0 -85.5 -5.5t-66 -23.5t-25.5 -57q0 -43 25.5 -63t61.5 -20z" />
    <glyph glyph-name="ae" unicode="&#xe6;" horiz-adv-x="728" 
d="M172 -7q-37 0 -69.5 14t-52 43.5t-19.5 74.5q0 55 29 84.5t81 41t121 11.5h51v24q0 33 -11.5 64.5t-37.5 52t-71 20.5q-31 0 -51.5 -7t-33 -14.5t-20.5 -7.5q-12 0 -19 12t-7 22q0 14 20.5 25.5t52 19t63.5 7.5q60 0 97 -26.5t55 -67.5q24 41 65 67t90 26q32 0 65 -11
t60.5 -34.5t44.5 -60t17 -87.5q0 -30 -8 -45t-27 -19.5t-51 -4.5h-225v-37q0 -60 43 -95t107 -35q38 0 60.5 10t36 20t24.5 10q7 0 13.5 -4.5t10.5 -11.5t4 -15q0 -15 -24 -30.5t-60 -25.5t-75 -10q-56 0 -104 26.5t-73 75.5q-33 -54 -80 -78t-92 -24zM182 48q36 0 65.5 17
t47.5 42t18 46v64h-42q-47 0 -87 -5.5t-64 -24t-24 -58.5t25 -60.5t61 -20.5zM381 265h199q32 0 41 7t9 25q0 34 -16 63t-44 47t-65 18q-34 0 -62.5 -16.5t-45 -43.5t-16.5 -61v-39z" />
    <glyph glyph-name="ccedilla" unicode="&#xe7;" horiz-adv-x="412" 
d="M247 -210q-14 0 -32 3t-32 8.5t-14 14.5q0 3 2 9t5.5 10.5t8.5 4.5q6 0 18.5 -6.5t37.5 -6.5q29 0 41 11t12 27q0 21 -17 30.5t-46 11.5l-38 3l26 99h40l-19 -69q51 -2 73.5 -23.5t22.5 -49.5q0 -17 -9.5 -35t-29.5 -30t-50 -12zM240 -7q-66 0 -109 25t-64 68t-21 97v107
q0 53 20.5 96t64 68t109.5 25q42 0 73.5 -10.5t49 -25.5t17.5 -29q0 -6 -3.5 -13.5t-10 -13t-14.5 -5.5q-9 0 -20.5 9.5t-31.5 18.5t-57 9q-65 0 -98.5 -34.5t-33.5 -94.5v-107q0 -61 33.5 -95.5t99.5 -34.5q38 0 59 9.5t32.5 19t21.5 9.5q9 0 15.5 -5t10 -12t3.5 -15
q0 -13 -18 -28.5t-50.5 -26.5t-77.5 -11z" />
    <glyph glyph-name="egrave" unicode="&#xe8;" horiz-adv-x="458" 
d="M278 591q-2 0 -5 1t-5 2l-106 57q-13 7 -13 22q0 10 7 19t17 9q4 0 9 -3l111 -61q11 -5 11 -18q0 -10 -7.5 -19t-18.5 -9zM260 -7q-63 0 -111.5 24t-76 66.5t-27.5 99.5v112q0 50 26 92t69.5 67t95.5 25q50 0 92.5 -23.5t68.5 -64.5t26 -94q0 -39 -13 -55.5t-32.5 -20.5
t-41.5 -4h-226v-37q0 -60 43 -95t109 -35q40 0 62 10t34.5 20t23.5 10q8 0 14.5 -5.5t10 -12.5t3.5 -13q0 -11 -18 -27t-52 -27.5t-80 -11.5zM110 265h200q30 0 40 6.5t10 27.5q0 32 -15.5 61t-44 47t-65.5 18q-34 0 -62.5 -16.5t-45.5 -44t-17 -61.5v-38z" />
    <glyph glyph-name="eacute" unicode="&#xe9;" horiz-adv-x="458" 
d="M183 591q-10 0 -18 9t-8 19q0 13 11 18l112 61q5 3 8 3q11 0 17.5 -9t6.5 -19q0 -15 -12 -22l-107 -57q-2 -1 -5 -2t-5 -1zM260 -7q-63 0 -111.5 24t-76 66.5t-27.5 99.5v112q0 50 26 92t69.5 67t95.5 25q50 0 92.5 -23.5t68.5 -64.5t26 -94q0 -39 -13 -55.5t-32.5 -20.5
t-41.5 -4h-226v-37q0 -60 43 -95t109 -35q40 0 62 10t34.5 20t23.5 10q8 0 14.5 -5.5t10 -12.5t3.5 -13q0 -11 -18 -27t-52 -27.5t-80 -11.5zM110 265h200q30 0 40 6.5t10 27.5q0 32 -15.5 61t-44 47t-65.5 18q-34 0 -62.5 -16.5t-45.5 -44t-17 -61.5v-38z" />
    <glyph glyph-name="ecircumflex" unicode="&#xea;" horiz-adv-x="458" 
d="M118 592q-8 0 -14.5 8t-6.5 18q0 6 3.5 12t9.5 10l104 56q9 5 17 5q9 0 17 -5l104 -56q7 -3 10 -9.5t3 -13.5q0 -10 -6 -17t-14 -7q-2 0 -5 1t-5 2l-104 55l-104 -56q-2 -1 -4.5 -2t-4.5 -1zM260 -7q-63 0 -111.5 24t-76 66.5t-27.5 99.5v112q0 50 26 92t69.5 67t95.5 25
q50 0 92.5 -23.5t68.5 -64.5t26 -94q0 -39 -13 -55.5t-32.5 -20.5t-41.5 -4h-226v-37q0 -60 43 -95t109 -35q40 0 62 10t34.5 20t23.5 10q8 0 14.5 -5.5t10 -12.5t3.5 -13q0 -11 -18 -27t-52 -27.5t-80 -11.5zM110 265h200q30 0 40 6.5t10 27.5q0 32 -15.5 61t-44 47
t-65.5 18q-34 0 -62.5 -16.5t-45.5 -44t-17 -61.5v-38z" />
    <glyph glyph-name="edieresis" unicode="&#xeb;" horiz-adv-x="458" 
d="M293 593q-15 0 -26 11t-11 26q0 16 11 26t26 10q16 0 26 -10t10 -26q0 -15 -10 -26t-26 -11zM170 593q-16 0 -26.5 11t-10.5 26q0 16 10.5 26t26.5 10q15 0 25.5 -10t10.5 -26q0 -15 -10.5 -26t-25.5 -11zM260 -7q-63 0 -111.5 24t-76 66.5t-27.5 99.5v112q0 50 26 92
t69.5 67t95.5 25q50 0 92.5 -23.5t68.5 -64.5t26 -94q0 -39 -13 -55.5t-32.5 -20.5t-41.5 -4h-226v-37q0 -60 43 -95t109 -35q40 0 62 10t34.5 20t23.5 10q8 0 14.5 -5.5t10 -12.5t3.5 -13q0 -11 -18 -27t-52 -27.5t-80 -11.5zM110 265h200q30 0 40 6.5t10 27.5
q0 32 -15.5 61t-44 47t-65.5 18q-34 0 -62.5 -16.5t-45.5 -44t-17 -61.5v-38z" />
    <glyph glyph-name="igrave" unicode="&#xec;" horiz-adv-x="189" 
d="M142 590q-2 0 -5 1t-5 2l-106 57q-13 7 -13 22q0 10 7 19t17 9q4 0 9 -3l111 -61q11 -5 11 -18q0 -10 -7.5 -19t-18.5 -9zM94 0q-13 0 -22.5 8t-9.5 18v423q0 11 9.5 17.5t22.5 6.5q14 0 23.5 -6.5t9.5 -17.5v-423q0 -10 -9.5 -18t-23.5 -8z" />
    <glyph glyph-name="iacute" unicode="&#xed;" horiz-adv-x="189" 
d="M49 591q-10 0 -18 9t-8 19q0 13 11 18l112 61q5 3 8 3q11 0 17.5 -9t6.5 -19q0 -15 -12 -22l-107 -57q-2 -1 -5 -2t-5 -1zM94 0q-13 0 -22.5 8t-9.5 18v423q0 11 9.5 17.5t22.5 6.5q14 0 23.5 -6.5t9.5 -17.5v-423q0 -10 -9.5 -18t-23.5 -8z" />
    <glyph glyph-name="icircumflex" unicode="&#xee;" horiz-adv-x="189" 
d="M-20 591q-8 0 -14.5 8t-6.5 18q0 6 3.5 12t9.5 10l104 56q9 5 17 5q9 0 17 -5l104 -56q7 -3 10 -9.5t3 -13.5q0 -10 -6 -17t-14 -7q-2 0 -5 1t-5 2l-104 55l-104 -56q-2 -1 -4.5 -2t-4.5 -1zM94 0q-13 0 -22.5 8t-9.5 18v423q0 11 9.5 17.5t22.5 6.5q14 0 23.5 -6.5
t9.5 -17.5v-423q0 -10 -9.5 -18t-23.5 -8z" />
    <glyph glyph-name="idieresis" unicode="&#xef;" horiz-adv-x="189" 
d="M158 593q-15 0 -26 11t-11 26q0 16 11 26t26 10q16 0 26 -10t10 -26q0 -15 -10 -26t-26 -11zM35 593q-16 0 -26.5 11t-10.5 26q0 16 10.5 26t26.5 10q15 0 25.5 -10t10.5 -26q0 -15 -10.5 -26t-25.5 -11zM94 0q-13 0 -22.5 8t-9.5 18v423q0 11 9.5 17.5t22.5 6.5
q14 0 23.5 -6.5t9.5 -17.5v-423q0 -10 -9.5 -18t-23.5 -8z" />
    <glyph glyph-name="eth" unicode="&#xf0;" horiz-adv-x="482" 
d="M235 -7q-39 0 -73 15.5t-60.5 42t-42 60.5t-15.5 72v109q0 50 24 92.5t64.5 68.5t88.5 26q30 0 58 -10t50.5 -28.5t30.5 -44.5q-5 71 -24.5 125t-46.5 91l-83 -48q-5 -3 -11 -3q-10 0 -18 9.5t-8 19.5q0 12 11 18l77 45q-24 26 -51.5 38.5t-53.5 12.5q-7 3 -11.5 9.5
t-4.5 16.5q0 7 3 14.5t11.5 13t21.5 5.5q34 0 71.5 -19t71.5 -58l72 42q5 3 9 3q10 0 18 -9t8 -19q0 -12 -10 -18l-68 -40q37 -53 59 -126.5t22 -158.5v-177q0 -50 -26 -93.5t-69.5 -70t-94.5 -26.5zM235 53q35 0 63 18.5t45 48.5t17 63v112q0 33 -17.5 61.5t-46 45.5
t-62.5 17q-35 0 -63 -18.5t-45 -47.5t-17 -61v-109q0 -33 17 -63t45.5 -48.5t63.5 -18.5z" />
    <glyph glyph-name="ntilde" unicode="&#xf1;" horiz-adv-x="494" 
d="M318 605q-27 0 -47 9t-39.5 17.5t-46.5 8.5q-21 0 -34.5 -8t-22 -16t-17.5 -8q-6 0 -10 4t-6.5 10t-2.5 11q0 14 9 24.5t23 18t29.5 11t26.5 3.5q27 0 46.5 -8t39.5 -17t46 -9q22 0 34 7.5t19.5 14.5t16.5 7q7 0 11.5 -4t6.5 -9t2 -10q0 -16 -9 -26.5t-22.5 -17.5
t-27.5 -10t-25 -3zM94 0q-13 0 -22.5 8t-9.5 18v423q0 11 9.5 17.5t22.5 6.5t22 -6.5t9 -17.5v-46q16 29 50 52.5t84 23.5q48 0 88.5 -25.5t64.5 -67.5t24 -94v-266q0 -13 -10 -19.5t-23 -6.5q-11 0 -21.5 6.5t-10.5 19.5v266q0 32 -17 61t-45 47.5t-62 18.5
q-30 0 -57.5 -15.5t-45 -43.5t-17.5 -68v-266q0 -10 -9.5 -18t-23.5 -8z" />
    <glyph glyph-name="ograve" unicode="&#xf2;" horiz-adv-x="469" 
d="M282 591q-2 0 -5 1t-5 2l-106 57q-13 7 -13 22q0 10 7 19t17 9q4 0 9 -3l111 -61q11 -5 11 -18q0 -10 -7.5 -19t-18.5 -9zM234 -7q-51 0 -94 26.5t-69.5 70t-26.5 93.5v109q0 50 26 92.5t69 68.5t95 26q51 0 94.5 -25.5t69.5 -67.5t26 -94v-109q0 -49 -26 -93
t-69.5 -70.5t-94.5 -26.5zM234 53q35 0 63 18.5t45 48.5t17 63v109q0 32 -16.5 61t-45 47.5t-63.5 18.5t-63 -18.5t-45 -47.5t-17 -61v-109q0 -33 17 -63t45.5 -48.5t62.5 -18.5z" />
    <glyph glyph-name="oacute" unicode="&#xf3;" horiz-adv-x="469" 
d="M184 591q-10 0 -18 9t-8 19q0 13 11 18l112 61q5 3 8 3q11 0 17.5 -9t6.5 -19q0 -15 -12 -22l-107 -57q-2 -1 -5 -2t-5 -1zM234 -7q-51 0 -94 26.5t-69.5 70t-26.5 93.5v109q0 50 26 92.5t69 68.5t95 26q51 0 94.5 -25.5t69.5 -67.5t26 -94v-109q0 -49 -26 -93
t-69.5 -70.5t-94.5 -26.5zM234 53q35 0 63 18.5t45 48.5t17 63v109q0 32 -16.5 61t-45 47.5t-63.5 18.5t-63 -18.5t-45 -47.5t-17 -61v-109q0 -33 17 -63t45.5 -48.5t62.5 -18.5z" />
    <glyph glyph-name="ocircumflex" unicode="&#xf4;" horiz-adv-x="469" 
d="M122 592q-8 0 -14.5 8t-6.5 18q0 6 3.5 12t9.5 10l104 56q9 5 17 5q9 0 17 -5l104 -56q7 -3 10 -9.5t3 -13.5q0 -10 -6 -17t-14 -7q-2 0 -5 1t-5 2l-104 55l-104 -56q-2 -1 -4.5 -2t-4.5 -1zM234 -7q-51 0 -94 26.5t-69.5 70t-26.5 93.5v109q0 50 26 92.5t69 68.5t95 26
q51 0 94.5 -25.5t69.5 -67.5t26 -94v-109q0 -49 -26 -93t-69.5 -70.5t-94.5 -26.5zM234 53q35 0 63 18.5t45 48.5t17 63v109q0 32 -16.5 61t-45 47.5t-63.5 18.5t-63 -18.5t-45 -47.5t-17 -61v-109q0 -33 17 -63t45.5 -48.5t62.5 -18.5z" />
    <glyph glyph-name="otilde" unicode="&#xf5;" horiz-adv-x="469" 
d="M306 609q-27 0 -47 9t-39.5 17.5t-46.5 8.5q-21 0 -34.5 -8t-22 -16t-17.5 -8q-6 0 -10 4t-6.5 10t-2.5 11q0 14 9 24.5t23 18t29.5 11t26.5 3.5q27 0 46.5 -8t39.5 -17t46 -9q22 0 34 7.5t19.5 14.5t16.5 7q7 0 11.5 -4t6.5 -9t2 -10q0 -16 -9 -26.5t-22.5 -17.5
t-27.5 -10t-25 -3zM234 -7q-51 0 -94 26.5t-69.5 70t-26.5 93.5v109q0 50 26 92.5t69 68.5t95 26q51 0 94.5 -25.5t69.5 -67.5t26 -94v-109q0 -49 -26 -93t-69.5 -70.5t-94.5 -26.5zM234 53q35 0 63 18.5t45 48.5t17 63v109q0 32 -16.5 61t-45 47.5t-63.5 18.5t-63 -18.5
t-45 -47.5t-17 -61v-109q0 -33 17 -63t45.5 -48.5t62.5 -18.5z" />
    <glyph glyph-name="odieresis" unicode="&#xf6;" horiz-adv-x="469" 
d="M297 593q-15 0 -26 11t-11 26q0 16 11 26t26 10q16 0 26 -10t10 -26q0 -15 -10 -26t-26 -11zM174 593q-16 0 -26.5 11t-10.5 26q0 16 10.5 26t26.5 10q15 0 25.5 -10t10.5 -26q0 -15 -10.5 -26t-25.5 -11zM234 -7q-51 0 -94 26.5t-69.5 70t-26.5 93.5v109q0 50 26 92.5
t69 68.5t95 26q51 0 94.5 -25.5t69.5 -67.5t26 -94v-109q0 -49 -26 -93t-69.5 -70.5t-94.5 -26.5zM234 53q35 0 63 18.5t45 48.5t17 63v109q0 32 -16.5 61t-45 47.5t-63.5 18.5t-63 -18.5t-45 -47.5t-17 -61v-109q0 -33 17 -63t45.5 -48.5t62.5 -18.5z" />
    <glyph glyph-name="divide" unicode="&#xf7;" horiz-adv-x="460" 
d="M70 212q-11 0 -18 8t-7 20t7 20t18 8h319q10 0 18 -8t8 -20t-8 -20t-18 -8h-319zM226 28q-20 0 -34.5 15t-14.5 34t14.5 33.5t34.5 14.5q19 0 34 -14.5t15 -33.5t-15 -34t-34 -15zM226 356q-20 0 -34.5 14t-14.5 34q0 19 14.5 33.5t34.5 14.5q19 0 34 -14.5t15 -33.5
q0 -20 -15 -34t-34 -14z" />
    <glyph glyph-name="oslash" unicode="&#xf8;" horiz-adv-x="469" 
d="M89 -32q-8 0 -14 5.5t-6 13.5q0 7 3 11l29 52l230 402l28 48q5 9 15 9q8 0 15 -6.5t7 -15.5q0 -6 -5 -13l-27 -47l-231 -403l-27 -46q-6 -10 -17 -10zM234 -7q-51 0 -94 26.5t-69.5 70t-26.5 93.5v109q0 50 26 92.5t69 68.5t95 26q51 0 94.5 -25.5t69.5 -67.5t26 -94
v-109q0 -49 -26 -93t-69.5 -70.5t-94.5 -26.5zM234 53q35 0 63 18.5t45 48.5t17 63v109q0 32 -16.5 61t-45 47.5t-63.5 18.5t-63 -18.5t-45 -47.5t-17 -61v-109q0 -33 17 -63t45.5 -48.5t62.5 -18.5z" />
    <glyph glyph-name="ugrave" unicode="&#xf9;" horiz-adv-x="496" 
d="M293 587q-2 0 -5 1t-5 2l-106 57q-13 7 -13 22q0 10 7 19t17 9q4 0 9 -3l111 -61q11 -5 11 -18q0 -10 -7.5 -19t-18.5 -9zM249 -7q-53 0 -96 26t-69 69.5t-26 92.5v267q0 9 10 17t23 8t22.5 -8t9.5 -17v-267q0 -33 17 -62t45 -47.5t63 -18.5q36 0 64 18t44.5 47.5
t16.5 62.5v268q0 10 10 17t23 7q15 0 23.5 -7t8.5 -17v-268q0 -51 -25.5 -93.5t-69 -68.5t-94.5 -26z" />
    <glyph glyph-name="uacute" unicode="&#xfa;" horiz-adv-x="496" 
d="M205 587q-10 0 -18 9t-8 19q0 13 11 18l112 61q5 3 8 3q11 0 17.5 -9t6.5 -19q0 -15 -12 -22l-107 -57q-2 -1 -5 -2t-5 -1zM249 -7q-53 0 -96 26t-69 69.5t-26 92.5v267q0 9 10 17t23 8t22.5 -8t9.5 -17v-267q0 -33 17 -62t45 -47.5t63 -18.5q36 0 64 18t44.5 47.5
t16.5 62.5v268q0 10 10 17t23 7q15 0 23.5 -7t8.5 -17v-268q0 -51 -25.5 -93.5t-69 -68.5t-94.5 -26z" />
    <glyph glyph-name="ucircumflex" unicode="&#xfb;" horiz-adv-x="496" 
d="M136 588q-8 0 -14.5 8t-6.5 18q0 6 3.5 12t9.5 10l104 56q9 5 17 5q9 0 17 -5l104 -56q7 -3 10 -9.5t3 -13.5q0 -10 -6 -17t-14 -7q-2 0 -5 1t-5 2l-104 55l-104 -56q-2 -1 -4.5 -2t-4.5 -1zM249 -7q-53 0 -96 26t-69 69.5t-26 92.5v267q0 9 10 17t23 8t22.5 -8t9.5 -17
v-267q0 -33 17 -62t45 -47.5t63 -18.5q36 0 64 18t44.5 47.5t16.5 62.5v268q0 10 10 17t23 7q15 0 23.5 -7t8.5 -17v-268q0 -51 -25.5 -93.5t-69 -68.5t-94.5 -26z" />
    <glyph glyph-name="udieresis" unicode="&#xfc;" horiz-adv-x="496" 
d="M310 589q-15 0 -26 11t-11 26q0 16 11 26t26 10q16 0 26 -10t10 -26q0 -15 -10 -26t-26 -11zM187 589q-16 0 -26.5 11t-10.5 26q0 16 10.5 26t26.5 10q15 0 25.5 -10t10.5 -26q0 -15 -10.5 -26t-25.5 -11zM249 -7q-53 0 -96 26t-69 69.5t-26 92.5v267q0 9 10 17t23 8
t22.5 -8t9.5 -17v-267q0 -33 17 -62t45 -47.5t63 -18.5q36 0 64 18t44.5 47.5t16.5 62.5v268q0 10 10 17t23 7q15 0 23.5 -7t8.5 -17v-268q0 -51 -25.5 -93.5t-69 -68.5t-94.5 -26z" />
    <glyph glyph-name="yacute" unicode="&#xfd;" horiz-adv-x="420" 
d="M167 587q-10 0 -18 9t-8 19q0 13 11 18l112 61q5 3 8 3q11 0 17.5 -9t6.5 -19q0 -15 -12 -22l-107 -57q-2 -1 -5 -2t-5 -1zM45 -232q-13 0 -21.5 6.5t-8.5 22.5q0 12 4.5 21t15.5 9q24 0 46 15t41 42.5t34 62t24 73.5l-163 419q-3 5 -3 9q0 9 6.5 16t16 11t17.5 4
t14.5 -3.5t8.5 -10.5l137 -368l129 368q3 7 9 10.5t13 3.5q8 0 17.5 -4t16 -11t6.5 -17q0 -5 -2 -8l-155 -420q-15 -40 -32 -84t-39.5 -81.5t-54.5 -61.5t-77 -24z" />
    <glyph glyph-name="thorn" unicode="&#xfe;" horiz-adv-x="484" 
d="M95 -232q-13 0 -22.5 8t-9.5 18v945q0 11 9.5 17.5t22.5 6.5q14 0 23.5 -6.5t9.5 -17.5v-336q17 29 50.5 52.5t81.5 23.5q50 0 90.5 -25.5t65 -67.5t24.5 -94v-109q0 -49 -24.5 -93t-64.5 -70.5t-88 -26.5q-46 0 -82 23t-53 54v-276q0 -10 -9.5 -18t-23.5 -8zM251 53
q33 0 61 18.5t45.5 48.5t17.5 63v109q0 32 -17 61t-45.5 47.5t-63.5 18.5q-30 0 -57.5 -15.5t-45.5 -43.5t-18 -68v-140q0 -15 16 -38.5t44 -42t63 -18.5z" />
    <glyph glyph-name="ydieresis" unicode="&#xff;" horiz-adv-x="420" 
d="M272 589q-15 0 -26 11t-11 26q0 16 11 26t26 10q16 0 26 -10t10 -26q0 -15 -10 -26t-26 -11zM149 589q-16 0 -26.5 11t-10.5 26q0 16 10.5 26t26.5 10q15 0 25.5 -10t10.5 -26q0 -15 -10.5 -26t-25.5 -11zM45 -232q-13 0 -21.5 6.5t-8.5 22.5q0 12 4.5 21t15.5 9
q24 0 46 15t41 42.5t34 62t24 73.5l-163 419q-3 5 -3 9q0 9 6.5 16t16 11t17.5 4t14.5 -3.5t8.5 -10.5l137 -368l129 368q3 7 9 10.5t13 3.5q8 0 17.5 -4t16 -11t6.5 -17q0 -5 -2 -8l-155 -420q-15 -40 -32 -84t-39.5 -81.5t-54.5 -61.5t-77 -24z" />
    <glyph glyph-name="Amacron" unicode="&#x100;" horiz-adv-x="538" 
d="M162 889q-11 0 -18 7.5t-7 17.5q0 12 7 19t18 7h215q9 0 17 -7t8 -19q0 -10 -8 -17.5t-17 -7.5h-215zM58 0q-8 0 -17 3.5t-15 10t-6 14.5q0 4 1 7l209 679q4 12 15 17.5t24 5.5q14 0 25.5 -6t14.5 -17l208 -679q1 -3 1 -6q0 -8 -6 -14.5t-15 -10.5t-19 -4q-8 0 -15 4
t-9 13l-47 154h-276l-46 -154q-3 -9 -10 -13t-17 -4zM147 228h243l-121 403z" />
    <glyph glyph-name="amacron" unicode="&#x101;" horiz-adv-x="438" 
d="M107 634q-11 0 -18 7.5t-7 17.5q0 12 7 19t18 7h215q9 0 17 -7t8 -19q0 -10 -8 -17.5t-17 -7.5h-215zM167 -7q-56 0 -96 32.5t-40 99.5q0 55 29.5 84.5t82 41t121.5 11.5h51v24q0 32 -11.5 63.5t-37 52t-69.5 20.5q-33 0 -54 -7t-33 -14.5t-20 -7.5q-12 0 -19 12t-7 23
q0 13 20.5 24.5t52 19t62.5 7.5q67 0 106.5 -27.5t57 -71.5t17.5 -94v-260q0 -11 -8.5 -18.5t-23.5 -7.5q-12 0 -21 7.5t-9 18.5v44q-26 -29 -63 -53t-88 -24zM183 48q33 0 63 17t49.5 41.5t19.5 46.5v64h-42q-45 0 -85.5 -5.5t-66 -23.5t-25.5 -57q0 -43 25.5 -63t61.5 -20
z" />
    <glyph glyph-name="Abreve" unicode="&#x102;" horiz-adv-x="538" 
d="M270 851q-41 0 -74 28t-41 68q-2 10 3.5 15.5t14.5 5.5h7q8 0 12.5 -5t6.5 -13q6 -27 26 -45t45 -18t45 18t25 45q2 8 6.5 13t12.5 5h7q9 0 14.5 -6t4.5 -15q-9 -40 -42 -68t-73 -28zM58 0q-8 0 -17 3.5t-15 10t-6 14.5q0 4 1 7l209 679q4 12 15 17.5t24 5.5
q14 0 25.5 -6t14.5 -17l208 -679q1 -3 1 -6q0 -8 -6 -14.5t-15 -10.5t-19 -4q-8 0 -15 4t-9 13l-47 154h-276l-46 -154q-3 -9 -10 -13t-17 -4zM147 228h243l-121 403z" />
    <glyph glyph-name="abreve" unicode="&#x103;" horiz-adv-x="438" 
d="M215 596q-41 0 -74 28t-41 68q-2 10 3.5 15.5t14.5 5.5h7q8 0 12.5 -5t6.5 -13q6 -27 26 -45t45 -18t45 18t25 45q2 8 6.5 13t12.5 5h7q9 0 14.5 -6t4.5 -15q-9 -40 -42 -68t-73 -28zM167 -7q-56 0 -96 32.5t-40 99.5q0 55 29.5 84.5t82 41t121.5 11.5h51v24
q0 32 -11.5 63.5t-37 52t-69.5 20.5q-33 0 -54 -7t-33 -14.5t-20 -7.5q-12 0 -19 12t-7 23q0 13 20.5 24.5t52 19t62.5 7.5q67 0 106.5 -27.5t57 -71.5t17.5 -94v-260q0 -11 -8.5 -18.5t-23.5 -7.5q-12 0 -21 7.5t-9 18.5v44q-26 -29 -63 -53t-88 -24zM183 48q33 0 63 17
t49.5 41.5t19.5 46.5v64h-42q-45 0 -85.5 -5.5t-66 -23.5t-25.5 -57q0 -43 25.5 -63t61.5 -20z" />
    <glyph glyph-name="Aogonek" unicode="&#x104;" horiz-adv-x="538" 
d="M483 -200q-25 0 -47 7.5t-36 24t-14 43.5q0 43 22.5 80t58.5 67l33 -17q-31 -27 -52.5 -58t-21.5 -67q0 -24 16.5 -34t45.5 -10q9 0 14.5 -5t5.5 -14q0 -8 -5.5 -12.5t-19.5 -4.5zM58 0q-8 0 -17 3.5t-15 10t-6 14.5q0 4 1 7l209 679q4 12 15 17.5t24 5.5q14 0 25.5 -6
t14.5 -17l208 -679q1 -3 1 -6q0 -8 -6 -14.5t-15 -10.5t-19 -4q-8 0 -15 4t-9 13l-47 154h-276l-46 -154q-3 -9 -10 -13t-17 -4zM147 228h243l-121 403z" />
    <glyph glyph-name="aogonek" unicode="&#x105;" horiz-adv-x="438" 
d="M349 -199q-25 0 -47 7.5t-36 24t-14 43.5q0 43 22.5 80t58.5 67l33 -17q-31 -27 -52.5 -58t-21.5 -67q0 -24 16.5 -34t45.5 -10q9 0 14.5 -5t5.5 -14q0 -8 -5.5 -12.5t-19.5 -4.5zM167 -7q-56 0 -96 32.5t-40 99.5q0 55 29.5 84.5t82 41t121.5 11.5h51v24
q0 32 -11.5 63.5t-37 52t-69.5 20.5q-33 0 -54 -7t-33 -14.5t-20 -7.5q-12 0 -19 12t-7 23q0 13 20.5 24.5t52 19t62.5 7.5q67 0 106.5 -27.5t57 -71.5t17.5 -94v-260q0 -11 -8.5 -18.5t-23.5 -7.5q-12 0 -21 7.5t-9 18.5v44q-26 -29 -63 -53t-88 -24zM183 48q33 0 63 17
t49.5 41.5t19.5 46.5v64h-42q-45 0 -85.5 -5.5t-66 -23.5t-25.5 -57q0 -43 25.5 -63t61.5 -20z" />
    <glyph glyph-name="Cacute" unicode="&#x106;" horiz-adv-x="525" 
d="M230 845q-10 0 -18 9t-8 19q0 13 11 18l112 61q5 3 8 3q11 0 17.5 -9t6.5 -19q0 -15 -12 -22l-107 -57q-2 -1 -5 -2t-5 -1zM276 -6q-56 0 -103.5 21t-75.5 68t-28 125v310q0 77 28.5 124t76 68t104.5 21q66 0 112 -23t70.5 -61t24.5 -83q0 -24 -8.5 -32t-24.5 -8
q-18 0 -25.5 7.5t-7.5 17.5q-1 16 -6.5 37t-20 40t-42 31.5t-71.5 12.5q-70 0 -107 -37t-37 -115v-310q0 -79 37.5 -116t109.5 -37q45 0 71 12.5t39.5 31t18.5 40t8 39.5q1 13 9 19.5t23 6.5q17 0 25.5 -8.5t8.5 -32.5q0 -45 -25 -83.5t-71.5 -62t-112.5 -23.5z" />
    <glyph glyph-name="cacute" unicode="&#x107;" horiz-adv-x="412" 
d="M163 591q-10 0 -18 9t-8 19q0 13 11 18l112 61q5 3 8 3q11 0 17.5 -9t6.5 -19q0 -15 -12 -22l-107 -57q-2 -1 -5 -2t-5 -1zM240 -7q-66 0 -109 25t-64 68t-21 97v107q0 53 20.5 96t64 68t109.5 25q42 0 73.5 -10.5t49 -25.5t17.5 -29q0 -6 -3.5 -13.5t-10 -13t-14.5 -5.5
q-9 0 -20.5 9.5t-31.5 18.5t-57 9q-65 0 -98.5 -34.5t-33.5 -94.5v-107q0 -61 33.5 -95.5t99.5 -34.5q38 0 59 9.5t32.5 19t21.5 9.5q9 0 15.5 -5t10 -12t3.5 -15q0 -13 -18 -28.5t-50.5 -26.5t-77.5 -11z" />
    <glyph glyph-name="Ccircumflex" unicode="&#x108;" horiz-adv-x="525" 
d="M161 846q-8 0 -14.5 8t-6.5 18q0 6 3.5 12t9.5 10l104 56q9 5 17 5q9 0 17 -5l104 -56q7 -3 10 -9.5t3 -13.5q0 -10 -6 -17t-14 -7q-2 0 -5 1t-5 2l-104 55l-104 -56q-2 -1 -4.5 -2t-4.5 -1zM276 -6q-56 0 -103.5 21t-75.5 68t-28 125v310q0 77 28.5 124t76 68t104.5 21
q66 0 112 -23t70.5 -61t24.5 -83q0 -24 -8.5 -32t-24.5 -8q-18 0 -25.5 7.5t-7.5 17.5q-1 16 -6.5 37t-20 40t-42 31.5t-71.5 12.5q-70 0 -107 -37t-37 -115v-310q0 -79 37.5 -116t109.5 -37q45 0 71 12.5t39.5 31t18.5 40t8 39.5q1 13 9 19.5t23 6.5q17 0 25.5 -8.5
t8.5 -32.5q0 -45 -25 -83.5t-71.5 -62t-112.5 -23.5z" />
    <glyph glyph-name="ccircumflex" unicode="&#x109;" horiz-adv-x="412" 
d="M93 592q-8 0 -14.5 8t-6.5 18q0 6 3.5 12t9.5 10l104 56q9 5 17 5q9 0 17 -5l104 -56q7 -3 10 -9.5t3 -13.5q0 -10 -6 -17t-14 -7q-2 0 -5 1t-5 2l-104 55l-104 -56q-2 -1 -4.5 -2t-4.5 -1zM240 -7q-66 0 -109 25t-64 68t-21 97v107q0 53 20.5 96t64 68t109.5 25
q42 0 73.5 -10.5t49 -25.5t17.5 -29q0 -6 -3.5 -13.5t-10 -13t-14.5 -5.5q-9 0 -20.5 9.5t-31.5 18.5t-57 9q-65 0 -98.5 -34.5t-33.5 -94.5v-107q0 -61 33.5 -95.5t99.5 -34.5q38 0 59 9.5t32.5 19t21.5 9.5q9 0 15.5 -5t10 -12t3.5 -15q0 -13 -18 -28.5t-50.5 -26.5
t-77.5 -11z" />
    <glyph glyph-name="Cdotaccent" unicode="&#x10a;" horiz-adv-x="525" 
d="M277 848q-17 0 -28.5 12t-11.5 28t11.5 27.5t28.5 11.5q16 0 27.5 -11.5t11.5 -27.5t-11.5 -28t-27.5 -12zM276 -6q-56 0 -103.5 21t-75.5 68t-28 125v310q0 77 28.5 124t76 68t104.5 21q66 0 112 -23t70.5 -61t24.5 -83q0 -24 -8.5 -32t-24.5 -8q-18 0 -25.5 7.5
t-7.5 17.5q-1 16 -6.5 37t-20 40t-42 31.5t-71.5 12.5q-70 0 -107 -37t-37 -115v-310q0 -79 37.5 -116t109.5 -37q45 0 71 12.5t39.5 31t18.5 40t8 39.5q1 13 9 19.5t23 6.5q17 0 25.5 -8.5t8.5 -32.5q0 -45 -25 -83.5t-71.5 -62t-112.5 -23.5z" />
    <glyph glyph-name="cdotaccent" unicode="&#x10b;" horiz-adv-x="412" 
d="M209 594q-17 0 -28.5 12t-11.5 28t11.5 27.5t28.5 11.5q16 0 27.5 -11.5t11.5 -27.5t-11.5 -28t-27.5 -12zM240 -7q-66 0 -109 25t-64 68t-21 97v107q0 53 20.5 96t64 68t109.5 25q42 0 73.5 -10.5t49 -25.5t17.5 -29q0 -6 -3.5 -13.5t-10 -13t-14.5 -5.5q-9 0 -20.5 9.5
t-31.5 18.5t-57 9q-65 0 -98.5 -34.5t-33.5 -94.5v-107q0 -61 33.5 -95.5t99.5 -34.5q38 0 59 9.5t32.5 19t21.5 9.5q9 0 15.5 -5t10 -12t3.5 -15q0 -13 -18 -28.5t-50.5 -26.5t-77.5 -11z" />
    <glyph glyph-name="Ccaron" unicode="&#x10c;" horiz-adv-x="525" 
d="M274 840q-11 0 -20 10l-101 90q-7 5 -10 10.5t-3 12.5q0 8 5.5 15t13.5 7t15 -6l100 -92l99 92q7 6 15 6q9 0 14 -7t5 -15q0 -7 -3 -12.5t-9 -10.5l-101 -90q-11 -10 -20 -10zM276 -6q-56 0 -103.5 21t-75.5 68t-28 125v310q0 77 28.5 124t76 68t104.5 21q66 0 112 -23
t70.5 -61t24.5 -83q0 -24 -8.5 -32t-24.5 -8q-18 0 -25.5 7.5t-7.5 17.5q-1 16 -6.5 37t-20 40t-42 31.5t-71.5 12.5q-70 0 -107 -37t-37 -115v-310q0 -79 37.5 -116t109.5 -37q45 0 71 12.5t39.5 31t18.5 40t8 39.5q1 13 9 19.5t23 6.5q17 0 25.5 -8.5t8.5 -32.5
q0 -45 -25 -83.5t-71.5 -62t-112.5 -23.5z" />
    <glyph glyph-name="ccaron" unicode="&#x10d;" horiz-adv-x="412" 
d="M210 586q-11 0 -20 10l-101 90q-7 5 -10 10.5t-3 12.5q0 8 5.5 15t13.5 7t15 -6l100 -92l99 92q7 6 15 6q9 0 14 -7t5 -15q0 -7 -3 -12.5t-9 -10.5l-101 -90q-11 -10 -20 -10zM240 -7q-66 0 -109 25t-64 68t-21 97v107q0 53 20.5 96t64 68t109.5 25q42 0 73.5 -10.5
t49 -25.5t17.5 -29q0 -6 -3.5 -13.5t-10 -13t-14.5 -5.5q-9 0 -20.5 9.5t-31.5 18.5t-57 9q-65 0 -98.5 -34.5t-33.5 -94.5v-107q0 -61 33.5 -95.5t99.5 -34.5q38 0 59 9.5t32.5 19t21.5 9.5q9 0 15.5 -5t10 -12t3.5 -15q0 -13 -18 -28.5t-50.5 -26.5t-77.5 -11z" />
    <glyph glyph-name="Dcaron" unicode="&#x10e;" horiz-adv-x="560" 
d="M281 840q-11 0 -20 10l-101 90q-7 5 -10 10.5t-3 12.5q0 8 5.5 15t13.5 7t15 -6l100 -92l99 92q7 6 15 6q9 0 14 -7t5 -15q0 -7 -3 -12.5t-9 -10.5l-101 -90q-11 -10 -20 -10zM106 0q-13 0 -21.5 7t-8.5 18v682q0 10 8.5 17t21.5 7h177q59 0 106.5 -21t75 -68t27.5 -124
v-304q0 -78 -27.5 -125t-75 -68t-106.5 -21h-177zM142 61h141q67 0 105 37t38 116v304q0 78 -38 115t-105 37h-141v-609z" />
    <glyph glyph-name="dcaron" unicode="&#x10f;" horiz-adv-x="484" 
d="M513 570q-8 0 -16 5.5t-8 15.5q0 5 2 9l19 52q-13 5 -21.5 16.5t-8.5 26.5q0 19 13 32.5t33 13.5q19 0 32.5 -13.5t13.5 -32.5q0 -5 -3 -15.5t-7.5 -24.5t-12.5 -32.5t-18 -40.5q-2 -5 -7.5 -8.5t-10.5 -3.5zM222 -7q-47 0 -88 26.5t-65 70.5t-24 93v109q0 52 24 94
t65 67.5t90 25.5t82.5 -23.5t49.5 -52.5v336q0 11 10 17.5t23 6.5q15 0 23.5 -6.5t8.5 -17.5v-713q0 -10 -8.5 -18t-23.5 -8q-12 0 -21 8t-9 18v44q-16 -31 -53.5 -54t-83.5 -23zM233 53q36 0 63.5 18.5t43.5 42t16 38.5v140q0 40 -18 68t-46 43.5t-58 15.5q-34 0 -62 -18.5
t-45 -47.5t-17 -61v-109q0 -33 17 -63t45 -48.5t61 -18.5z" />
    <glyph glyph-name="Dcroat" unicode="&#x110;" horiz-adv-x="569" 
d="M115 0q-13 0 -21.5 7t-8.5 18v332h-63q-10 0 -16 8t-6 19t6 19t16 8h63v296q0 10 8.5 17t21.5 7h177q59 0 106.5 -21t75 -68t27.5 -124v-304q0 -78 -27.5 -125t-75 -68t-106.5 -21h-177zM151 61h141q67 0 105 37t38 116v304q0 78 -38 115t-105 37h-141v-259h114
q10 0 16.5 -8t6.5 -19t-6.5 -19t-16.5 -8h-114v-296z" />
    <glyph glyph-name="dcroat" unicode="&#x111;" horiz-adv-x="484" 
d="M222 -7q-47 0 -88 26.5t-65 70.5t-24 93v109q0 52 24 94t65 67.5t90 25.5t82.5 -23.5t49.5 -52.5v171h-119q-10 0 -16 8t-6 18q0 11 6 19t16 8h119v112q0 11 10 17.5t23 6.5q15 0 23.5 -6.5t8.5 -17.5v-112h48q10 0 16.5 -8t6.5 -19t-6.5 -18.5t-16.5 -7.5h-48v-548
q0 -10 -8.5 -18t-23.5 -8q-12 0 -21 8t-9 18v44q-16 -31 -53.5 -54t-83.5 -23zM233 53q36 0 63.5 18.5t43.5 42t16 38.5v140q0 40 -18 68t-46 43.5t-58 15.5q-34 0 -62 -18.5t-45 -47.5t-17 -61v-109q0 -33 17 -63t45 -48.5t61 -18.5z" />
    <glyph glyph-name="Emacron" unicode="&#x112;" horiz-adv-x="508" 
d="M173 889q-11 0 -18 7.5t-7 17.5q0 12 7 19t18 7h215q9 0 17 -7t8 -19q0 -10 -8 -17.5t-17 -7.5h-215zM106 0q-11 0 -20.5 6.5t-9.5 19.5v680q0 12 9.5 18.5t20.5 6.5h356q13 0 19 -9.5t6 -19.5q0 -13 -6.5 -22.5t-18.5 -9.5h-320v-275h157q12 0 18.5 -9t6.5 -21
q0 -9 -6 -18t-19 -9h-157v-277h320q12 0 18.5 -9t6.5 -22q0 -11 -6 -20.5t-19 -9.5h-356z" />
    <glyph glyph-name="emacron" unicode="&#x113;" horiz-adv-x="458" 
d="M124 635q-11 0 -18 7.5t-7 17.5q0 12 7 19t18 7h215q9 0 17 -7t8 -19q0 -10 -8 -17.5t-17 -7.5h-215zM260 -7q-63 0 -111.5 24t-76 66.5t-27.5 99.5v112q0 50 26 92t69.5 67t95.5 25q50 0 92.5 -23.5t68.5 -64.5t26 -94q0 -39 -13 -55.5t-32.5 -20.5t-41.5 -4h-226v-37
q0 -60 43 -95t109 -35q40 0 62 10t34.5 20t23.5 10q8 0 14.5 -5.5t10 -12.5t3.5 -13q0 -11 -18 -27t-52 -27.5t-80 -11.5zM110 265h200q30 0 40 6.5t10 27.5q0 32 -15.5 61t-44 47t-65.5 18q-34 0 -62.5 -16.5t-45.5 -44t-17 -61.5v-38z" />
    <glyph glyph-name="Ebreve" unicode="&#x114;" horiz-adv-x="508" 
d="M281 851q-41 0 -74 28t-41 68q-2 10 3.5 15.5t14.5 5.5h7q8 0 12.5 -5t6.5 -13q6 -27 26 -45t45 -18t45 18t25 45q2 8 6.5 13t12.5 5h7q9 0 14.5 -6t4.5 -15q-9 -40 -42 -68t-73 -28zM106 0q-11 0 -20.5 6.5t-9.5 19.5v680q0 12 9.5 18.5t20.5 6.5h356q13 0 19 -9.5
t6 -19.5q0 -13 -6.5 -22.5t-18.5 -9.5h-320v-275h157q12 0 18.5 -9t6.5 -21q0 -9 -6 -18t-19 -9h-157v-277h320q12 0 18.5 -9t6.5 -22q0 -11 -6 -20.5t-19 -9.5h-356z" />
    <glyph glyph-name="ebreve" unicode="&#x115;" horiz-adv-x="458" 
d="M226 597q-41 0 -74 28t-41 68q-2 10 3.5 15.5t14.5 5.5h7q8 0 12.5 -5t6.5 -13q6 -27 26 -45t45 -18t45 18t25 45q2 8 6.5 13t12.5 5h7q9 0 14.5 -6t4.5 -15q-9 -40 -42 -68t-73 -28zM260 -7q-63 0 -111.5 24t-76 66.5t-27.5 99.5v112q0 50 26 92t69.5 67t95.5 25
q50 0 92.5 -23.5t68.5 -64.5t26 -94q0 -39 -13 -55.5t-32.5 -20.5t-41.5 -4h-226v-37q0 -60 43 -95t109 -35q40 0 62 10t34.5 20t23.5 10q8 0 14.5 -5.5t10 -12.5t3.5 -13q0 -11 -18 -27t-52 -27.5t-80 -11.5zM110 265h200q30 0 40 6.5t10 27.5q0 32 -15.5 61t-44 47
t-65.5 18q-34 0 -62.5 -16.5t-45.5 -44t-17 -61.5v-38z" />
    <glyph glyph-name="Edotaccent" unicode="&#x116;" horiz-adv-x="508" 
d="M284 848q-17 0 -28.5 12t-11.5 28t11.5 27.5t28.5 11.5q16 0 27.5 -11.5t11.5 -27.5t-11.5 -28t-27.5 -12zM106 0q-11 0 -20.5 6.5t-9.5 19.5v680q0 12 9.5 18.5t20.5 6.5h356q13 0 19 -9.5t6 -19.5q0 -13 -6.5 -22.5t-18.5 -9.5h-320v-275h157q12 0 18.5 -9t6.5 -21
q0 -9 -6 -18t-19 -9h-157v-277h320q12 0 18.5 -9t6.5 -22q0 -11 -6 -20.5t-19 -9.5h-356z" />
    <glyph glyph-name="edotaccent" unicode="&#x117;" horiz-adv-x="458" 
d="M232 594q-17 0 -28.5 12t-11.5 28t11.5 27.5t28.5 11.5q16 0 27.5 -11.5t11.5 -27.5t-11.5 -28t-27.5 -12zM260 -7q-63 0 -111.5 24t-76 66.5t-27.5 99.5v112q0 50 26 92t69.5 67t95.5 25q50 0 92.5 -23.5t68.5 -64.5t26 -94q0 -39 -13 -55.5t-32.5 -20.5t-41.5 -4h-226
v-37q0 -60 43 -95t109 -35q40 0 62 10t34.5 20t23.5 10q8 0 14.5 -5.5t10 -12.5t3.5 -13q0 -11 -18 -27t-52 -27.5t-80 -11.5zM110 265h200q30 0 40 6.5t10 27.5q0 32 -15.5 61t-44 47t-65.5 18q-34 0 -62.5 -16.5t-45.5 -44t-17 -61.5v-38z" />
    <glyph glyph-name="Eogonek" unicode="&#x118;" horiz-adv-x="508" 
d="M457 -201q-25 0 -47 7.5t-36 24t-14 43.5q0 43 22.5 80t58.5 67l33 -17q-31 -27 -52.5 -58t-21.5 -67q0 -24 16.5 -34t45.5 -10q9 0 14.5 -5t5.5 -14q0 -8 -5.5 -12.5t-19.5 -4.5zM106 0q-11 0 -20.5 6.5t-9.5 19.5v680q0 12 9.5 18.5t20.5 6.5h356q13 0 19 -9.5t6 -19.5
q0 -13 -6.5 -22.5t-18.5 -9.5h-320v-275h157q12 0 18.5 -9t6.5 -21q0 -9 -6 -18t-19 -9h-157v-277h320q12 0 18.5 -9t6.5 -22q0 -11 -6 -20.5t-19 -9.5h-356z" />
    <glyph glyph-name="eogonek" unicode="&#x119;" horiz-adv-x="458" 
d="M358 -180q-25 0 -47 7.5t-36 24t-14 43.5q0 43 22.5 80t58.5 67l33 -17q-31 -27 -52.5 -58t-21.5 -67q0 -24 16.5 -34t45.5 -10q9 0 14.5 -5t5.5 -14q0 -8 -5.5 -12.5t-19.5 -4.5zM260 -7q-63 0 -111.5 24t-76 66.5t-27.5 99.5v112q0 50 26 92t69.5 67t95.5 25
q50 0 92.5 -23.5t68.5 -64.5t26 -94q0 -39 -13 -55.5t-32.5 -20.5t-41.5 -4h-226v-37q0 -60 43 -95t109 -35q40 0 62 10t34.5 20t23.5 10q8 0 14.5 -5.5t10 -12.5t3.5 -13q0 -11 -18 -27t-52 -27.5t-80 -11.5zM110 265h200q30 0 40 6.5t10 27.5q0 32 -15.5 61t-44 47
t-65.5 18q-34 0 -62.5 -16.5t-45.5 -44t-17 -61.5v-38z" />
    <glyph glyph-name="Ecaron" unicode="&#x11a;" horiz-adv-x="508" 
d="M281 840q-11 0 -20 10l-101 90q-7 5 -10 10.5t-3 12.5q0 8 5.5 15t13.5 7t15 -6l100 -92l99 92q7 6 15 6q9 0 14 -7t5 -15q0 -7 -3 -12.5t-9 -10.5l-101 -90q-11 -10 -20 -10zM106 0q-11 0 -20.5 6.5t-9.5 19.5v680q0 12 9.5 18.5t20.5 6.5h356q13 0 19 -9.5t6 -19.5
q0 -13 -6.5 -22.5t-18.5 -9.5h-320v-275h157q12 0 18.5 -9t6.5 -21q0 -9 -6 -18t-19 -9h-157v-277h320q12 0 18.5 -9t6.5 -22q0 -11 -6 -20.5t-19 -9.5h-356z" />
    <glyph glyph-name="ecaron" unicode="&#x11b;" horiz-adv-x="458" 
d="M232 586q-11 0 -20 10l-101 90q-7 5 -10 10.5t-3 12.5q0 8 5.5 15t13.5 7t15 -6l100 -92l99 92q7 6 15 6q9 0 14 -7t5 -15q0 -7 -3 -12.5t-9 -10.5l-101 -90q-11 -10 -20 -10zM260 -7q-63 0 -111.5 24t-76 66.5t-27.5 99.5v112q0 50 26 92t69.5 67t95.5 25
q50 0 92.5 -23.5t68.5 -64.5t26 -94q0 -39 -13 -55.5t-32.5 -20.5t-41.5 -4h-226v-37q0 -60 43 -95t109 -35q40 0 62 10t34.5 20t23.5 10q8 0 14.5 -5.5t10 -12.5t3.5 -13q0 -11 -18 -27t-52 -27.5t-80 -11.5zM110 265h200q30 0 40 6.5t10 27.5q0 32 -15.5 61t-44 47
t-65.5 18q-34 0 -62.5 -16.5t-45.5 -44t-17 -61.5v-38z" />
    <glyph glyph-name="Gcircumflex" unicode="&#x11c;" horiz-adv-x="542" 
d="M164 846q-8 0 -14.5 8t-6.5 18q0 6 3.5 12t9.5 10l104 56q9 5 17 5q9 0 17 -5l104 -56q7 -3 10 -9.5t3 -13.5q0 -10 -6 -17t-14 -7q-2 0 -5 1t-5 2l-104 55l-104 -56q-2 -1 -4.5 -2t-4.5 -1zM276 -6q-58 0 -105 21t-74.5 68t-27.5 125v310q0 77 27.5 124t74 68t104.5 21
q64 0 111 -22.5t73 -61.5t26 -89q0 -19 -9 -26.5t-24 -7.5q-13 0 -22.5 6t-10.5 19q-5 39 -22 66t-47 41t-74 14q-67 0 -104 -37t-37 -115v-310q0 -78 37 -115.5t104 -37.5t105 37.5t38 115.5v119h-134q-12 0 -18.5 9t-6.5 20q0 10 6.5 19t18.5 9h175q12 0 18.5 -7.5
t6.5 -18.5v-150q0 -78 -28 -125t-75 -68t-106 -21z" />
    <glyph glyph-name="gcircumflex" unicode="&#x11d;" horiz-adv-x="454" 
d="M108 592q-8 0 -14.5 8t-6.5 18q0 6 3.5 12t9.5 10l104 56q9 5 17 5q9 0 17 -5l104 -56q7 -3 10 -9.5t3 -13.5q0 -10 -6 -17t-14 -7q-2 0 -5 1t-5 2l-104 55l-104 -56q-2 -1 -4.5 -2t-4.5 -1zM230 -232q-59 0 -104.5 16.5t-72 46t-26.5 70.5q0 44 26 70t59 39
q-24 9 -39.5 24.5t-15.5 44.5q0 28 14 44.5t36 27.5q-27 22 -41 54.5t-14 71.5v38q0 48 21 85t60 58t91 21q35 0 65 -11t52 -31q15 31 34 47t37 16q15 0 22.5 -8.5t7.5 -17.5t-5 -14.5t-12 -7.5q-12 -2 -27.5 -11t-28.5 -32q14 -19 21 -43t7 -51v-38q0 -47 -22 -85
t-61.5 -59.5t-90.5 -21.5q-43 0 -77 17q-11 -6 -21 -14.5t-10 -24.5q0 -22 23 -32t58 -14t74.5 -8.5t75 -16.5t58 -37t22.5 -71q0 -47 -25.5 -78.5t-69.5 -47.5t-101 -16zM229 -183q63 0 98.5 25t35.5 66q0 32 -19.5 48.5t-49 23.5t-61 10t-54.5 6q-35 -11 -62 -32t-27 -57
q0 -40 37 -65t102 -25zM225 160q51 0 79.5 33.5t28.5 83.5v38q0 49 -28.5 82t-80.5 33t-80.5 -33t-28.5 -82v-37q0 -50 29 -84t81 -34z" />
    <glyph glyph-name="Gbreve" unicode="&#x11e;" horiz-adv-x="542" 
d="M278 851q-41 0 -74 28t-41 68q-2 10 3.5 15.5t14.5 5.5h7q8 0 12.5 -5t6.5 -13q6 -27 26 -45t45 -18t45 18t25 45q2 8 6.5 13t12.5 5h7q9 0 14.5 -6t4.5 -15q-9 -40 -42 -68t-73 -28zM276 -6q-58 0 -105 21t-74.5 68t-27.5 125v310q0 77 27.5 124t74 68t104.5 21
q64 0 111 -22.5t73 -61.5t26 -89q0 -19 -9 -26.5t-24 -7.5q-13 0 -22.5 6t-10.5 19q-5 39 -22 66t-47 41t-74 14q-67 0 -104 -37t-37 -115v-310q0 -78 37 -115.5t104 -37.5t105 37.5t38 115.5v119h-134q-12 0 -18.5 9t-6.5 20q0 10 6.5 19t18.5 9h175q12 0 18.5 -7.5
t6.5 -18.5v-150q0 -78 -28 -125t-75 -68t-106 -21z" />
    <glyph glyph-name="gbreve" unicode="&#x11f;" horiz-adv-x="454" 
d="M221 597q-41 0 -74 28t-41 68q-2 10 3.5 15.5t14.5 5.5h7q8 0 12.5 -5t6.5 -13q6 -27 26 -45t45 -18t45 18t25 45q2 8 6.5 13t12.5 5h7q9 0 14.5 -6t4.5 -15q-9 -40 -42 -68t-73 -28zM230 -232q-59 0 -104.5 16.5t-72 46t-26.5 70.5q0 44 26 70t59 39q-24 9 -39.5 24.5
t-15.5 44.5q0 28 14 44.5t36 27.5q-27 22 -41 54.5t-14 71.5v38q0 48 21 85t60 58t91 21q35 0 65 -11t52 -31q15 31 34 47t37 16q15 0 22.5 -8.5t7.5 -17.5t-5 -14.5t-12 -7.5q-12 -2 -27.5 -11t-28.5 -32q14 -19 21 -43t7 -51v-38q0 -47 -22 -85t-61.5 -59.5t-90.5 -21.5
q-43 0 -77 17q-11 -6 -21 -14.5t-10 -24.5q0 -22 23 -32t58 -14t74.5 -8.5t75 -16.5t58 -37t22.5 -71q0 -47 -25.5 -78.5t-69.5 -47.5t-101 -16zM229 -183q63 0 98.5 25t35.5 66q0 32 -19.5 48.5t-49 23.5t-61 10t-54.5 6q-35 -11 -62 -32t-27 -57q0 -40 37 -65t102 -25z
M225 160q51 0 79.5 33.5t28.5 83.5v38q0 49 -28.5 82t-80.5 33t-80.5 -33t-28.5 -82v-37q0 -50 29 -84t81 -34z" />
    <glyph glyph-name="Gdotaccent" unicode="&#x120;" horiz-adv-x="542" 
d="M281 848q-17 0 -28.5 12t-11.5 28t11.5 27.5t28.5 11.5q16 0 27.5 -11.5t11.5 -27.5t-11.5 -28t-27.5 -12zM276 -6q-58 0 -105 21t-74.5 68t-27.5 125v310q0 77 27.5 124t74 68t104.5 21q64 0 111 -22.5t73 -61.5t26 -89q0 -19 -9 -26.5t-24 -7.5q-13 0 -22.5 6t-10.5 19
q-5 39 -22 66t-47 41t-74 14q-67 0 -104 -37t-37 -115v-310q0 -78 37 -115.5t104 -37.5t105 37.5t38 115.5v119h-134q-12 0 -18.5 9t-6.5 20q0 10 6.5 19t18.5 9h175q12 0 18.5 -7.5t6.5 -18.5v-150q0 -78 -28 -125t-75 -68t-106 -21z" />
    <glyph glyph-name="gdotaccent" unicode="&#x121;" horiz-adv-x="454" 
d="M224 594q-17 0 -28.5 12t-11.5 28t11.5 27.5t28.5 11.5q16 0 27.5 -11.5t11.5 -27.5t-11.5 -28t-27.5 -12zM230 -232q-59 0 -104.5 16.5t-72 46t-26.5 70.5q0 44 26 70t59 39q-24 9 -39.5 24.5t-15.5 44.5q0 28 14 44.5t36 27.5q-27 22 -41 54.5t-14 71.5v38q0 48 21 85
t60 58t91 21q35 0 65 -11t52 -31q15 31 34 47t37 16q15 0 22.5 -8.5t7.5 -17.5t-5 -14.5t-12 -7.5q-12 -2 -27.5 -11t-28.5 -32q14 -19 21 -43t7 -51v-38q0 -47 -22 -85t-61.5 -59.5t-90.5 -21.5q-43 0 -77 17q-11 -6 -21 -14.5t-10 -24.5q0 -22 23 -32t58 -14t74.5 -8.5
t75 -16.5t58 -37t22.5 -71q0 -47 -25.5 -78.5t-69.5 -47.5t-101 -16zM229 -183q63 0 98.5 25t35.5 66q0 32 -19.5 48.5t-49 23.5t-61 10t-54.5 6q-35 -11 -62 -32t-27 -57q0 -40 37 -65t102 -25zM225 160q51 0 79.5 33.5t28.5 83.5v38q0 49 -28.5 82t-80.5 33t-80.5 -33
t-28.5 -82v-37q0 -50 29 -84t81 -34z" />
    <glyph glyph-name="uni0122" unicode="&#x122;" horiz-adv-x="542" 
d="M219 -158q-10 0 -17.5 9t-7.5 19q0 13 11 19l111 61q5 2 9 2q11 0 17.5 -9t6.5 -19q0 -15 -13 -22l-106 -57q-3 -1 -5.5 -2t-5.5 -1zM276 -6q-58 0 -105 21t-74.5 68t-27.5 125v310q0 77 27.5 124t74 68t104.5 21q64 0 111 -22.5t73 -61.5t26 -89q0 -19 -9 -26.5
t-24 -7.5q-13 0 -22.5 6t-10.5 19q-5 39 -22 66t-47 41t-74 14q-67 0 -104 -37t-37 -115v-310q0 -78 37 -115.5t104 -37.5t105 37.5t38 115.5v119h-134q-12 0 -18.5 9t-6.5 20q0 10 6.5 19t18.5 9h175q12 0 18.5 -7.5t6.5 -18.5v-150q0 -78 -28 -125t-75 -68t-106 -21z" />
    <glyph glyph-name="uni0123" unicode="&#x123;" horiz-adv-x="454" 
d="M180 591q-10 0 -17.5 9t-7.5 19q0 13 11 18l111 61q5 3 9 3q11 0 17.5 -9t6.5 -19q0 -15 -13 -22l-106 -57q-3 -1 -5.5 -2t-5.5 -1zM230 -232q-59 0 -104.5 16.5t-72 46t-26.5 70.5q0 44 26 70t59 39q-24 9 -39.5 24.5t-15.5 44.5q0 28 14 44.5t36 27.5q-27 22 -41 54.5
t-14 71.5v38q0 48 21 85t60 58t91 21q35 0 65 -11t52 -31q15 31 34 47t37 16q15 0 22.5 -8.5t7.5 -17.5t-5 -14.5t-12 -7.5q-12 -2 -27.5 -11t-28.5 -32q14 -19 21 -43t7 -51v-38q0 -47 -22 -85t-61.5 -59.5t-90.5 -21.5q-43 0 -77 17q-11 -6 -21 -14.5t-10 -24.5
q0 -22 23 -32t58 -14t74.5 -8.5t75 -16.5t58 -37t22.5 -71q0 -47 -25.5 -78.5t-69.5 -47.5t-101 -16zM229 -183q63 0 98.5 25t35.5 66q0 32 -19.5 48.5t-49 23.5t-61 10t-54.5 6q-35 -11 -62 -32t-27 -57q0 -40 37 -65t102 -25zM225 160q51 0 79.5 33.5t28.5 83.5v38
q0 49 -28.5 82t-80.5 33t-80.5 -33t-28.5 -82v-37q0 -50 29 -84t81 -34z" />
    <glyph glyph-name="Hcircumflex" unicode="&#x124;" horiz-adv-x="573" 
d="M174 846q-8 0 -14.5 8t-6.5 18q0 6 3.5 12t9.5 10l104 56q9 5 17 5q9 0 17 -5l104 -56q7 -3 10 -9.5t3 -13.5q0 -10 -6 -17t-14 -7q-2 0 -5 1t-5 2l-104 55l-104 -56q-2 -1 -4.5 -2t-4.5 -1zM109 0q-13 0 -23 6.5t-10 19.5v681q0 12 10 18t23 6q12 0 22.5 -6t10.5 -18
v-299h289v299q0 12 10 18t23 6q12 0 22.5 -6t10.5 -18v-681q0 -13 -10.5 -19.5t-22.5 -6.5q-13 0 -23 6.5t-10 19.5v325h-289v-325q0 -13 -10.5 -19.5t-22.5 -6.5z" />
    <glyph glyph-name="hcircumflex" unicode="&#x125;" horiz-adv-x="495" 
d="M-21 870q-8 0 -14.5 8t-6.5 18q0 6 3.5 12t9.5 10l104 56q9 5 17 5q9 0 17 -5l104 -56q7 -3 10 -9.5t3 -13.5q0 -10 -6 -17t-14 -7q-2 0 -5 1t-5 2l-104 55l-104 -56q-2 -1 -4.5 -2t-4.5 -1zM95 0q-13 0 -22.5 8t-9.5 18v713q0 11 9.5 17.5t22.5 6.5q14 0 23.5 -6.5
t9.5 -17.5v-336q17 29 50 52.5t82 23.5q48 0 88.5 -25.5t64.5 -67.5t24 -94v-266q0 -13 -10 -19.5t-23 -6.5q-11 0 -21.5 6.5t-10.5 19.5v266q0 32 -17 61t-45 47.5t-62 18.5q-30 0 -57.5 -15.5t-45 -43.5t-17.5 -68v-266q0 -10 -9.5 -18t-23.5 -8z" />
    <glyph glyph-name="Hbar" unicode="&#x126;" horiz-adv-x="574" 
d="M109 0q-12 0 -22.5 6.5t-10.5 19.5v514h-34q-10 0 -16 7.5t-6 17.5q0 11 6 18.5t16 7.5h34v116q0 12 10.5 18t22.5 6q13 0 23 -6t10 -18v-116h289v116q0 12 10.5 18t22.5 6q13 0 23 -6t10 -18v-116h34q10 0 16.5 -7.5t6.5 -18.5q0 -10 -6.5 -17.5t-16.5 -7.5h-34v-514
q0 -13 -10 -19.5t-23 -6.5q-12 0 -22.5 6.5t-10.5 19.5v325h-289v-325q0 -13 -10 -19.5t-23 -6.5zM142 408h289v132h-289v-132z" />
    <glyph glyph-name="hbar" unicode="&#x127;" horiz-adv-x="495" 
d="M95 0q-13 0 -22.5 8t-9.5 18v554h-29q-11 0 -18 7.5t-7 17.5q0 12 7 19t18 7h29v108q0 11 9.5 17.5t22.5 6.5q14 0 23.5 -6.5t9.5 -17.5v-108h121q9 0 17 -7t8 -19q0 -10 -8 -17.5t-17 -7.5h-121v-177q17 29 50 52.5t82 23.5q48 0 88.5 -25.5t64.5 -67.5t24 -94v-266
q0 -13 -10 -19.5t-23 -6.5q-11 0 -21.5 6.5t-10.5 19.5v266q0 32 -17 61t-45 47.5t-62 18.5q-30 0 -57.5 -15.5t-45 -43.5t-17.5 -68v-266q0 -10 -9.5 -18t-23.5 -8z" />
    <glyph glyph-name="Itilde" unicode="&#x128;" horiz-adv-x="218" 
d="M179 863q-27 0 -47 9t-39.5 17.5t-46.5 8.5q-21 0 -34.5 -8t-22 -16t-17.5 -8q-6 0 -10 4t-6.5 10t-2.5 11q0 14 9 24.5t23 18t29.5 11t26.5 3.5q27 0 46.5 -8t39.5 -17t46 -9q22 0 34 7.5t19.5 14.5t16.5 7q7 0 11.5 -4t6.5 -9t2 -10q0 -16 -9 -26.5t-22.5 -17.5
t-27.5 -10t-25 -3zM109 0q-13 0 -23 6.5t-10 19.5v681q0 12 10 18t23 6q12 0 22.5 -6t10.5 -18v-681q0 -13 -10.5 -19.5t-22.5 -6.5z" />
    <glyph glyph-name="itilde" unicode="&#x129;" horiz-adv-x="189" 
d="M163 608q-27 0 -47 9t-39.5 17.5t-46.5 8.5q-21 0 -34.5 -8t-22 -16t-17.5 -8q-6 0 -10 4t-6.5 10t-2.5 11q0 14 9 24.5t23 18t29.5 11t26.5 3.5q27 0 46.5 -8t39.5 -17t46 -9q22 0 34 7.5t19.5 14.5t16.5 7q7 0 11.5 -4t6.5 -9t2 -10q0 -16 -9 -26.5t-22.5 -17.5
t-27.5 -10t-25 -3zM94 0q-13 0 -22.5 8t-9.5 18v423q0 11 9.5 17.5t22.5 6.5q14 0 23.5 -6.5t9.5 -17.5v-423q0 -10 -9.5 -18t-23.5 -8z" />
    <glyph glyph-name="Imacron" unicode="&#x12a;" horiz-adv-x="218" 
d="M1 889q-11 0 -18 7.5t-7 17.5q0 12 7 19t18 7h215q9 0 17 -7t8 -19q0 -10 -8 -17.5t-17 -7.5h-215zM109 0q-13 0 -23 6.5t-10 19.5v681q0 12 10 18t23 6q12 0 22.5 -6t10.5 -18v-681q0 -13 -10.5 -19.5t-22.5 -6.5z" />
    <glyph glyph-name="imacron" unicode="&#x12b;" horiz-adv-x="189" 
d="M-12 635q-11 0 -18 7.5t-7 17.5q0 12 7 19t18 7h215q9 0 17 -7t8 -19q0 -10 -8 -17.5t-17 -7.5h-215zM94 0q-13 0 -22.5 8t-9.5 18v423q0 11 9.5 17.5t22.5 6.5q14 0 23.5 -6.5t9.5 -17.5v-423q0 -10 -9.5 -18t-23.5 -8z" />
    <glyph glyph-name="Ibreve" unicode="&#x12c;" horiz-adv-x="218" 
d="M109 851q-41 0 -74 28t-41 68q-2 10 3.5 15.5t14.5 5.5h7q8 0 12.5 -5t6.5 -13q6 -27 26 -45t45 -18t45 18t25 45q2 8 6.5 13t12.5 5h7q9 0 14.5 -6t4.5 -15q-9 -40 -42 -68t-73 -28zM109 0q-13 0 -23 6.5t-10 19.5v681q0 12 10 18t23 6q12 0 22.5 -6t10.5 -18v-681
q0 -13 -10.5 -19.5t-22.5 -6.5z" />
    <glyph glyph-name="ibreve" unicode="&#x12d;" horiz-adv-x="189" 
d="M93 597q-41 0 -74 28t-41 68q-2 10 3.5 15.5t14.5 5.5h7q8 0 12.5 -5t6.5 -13q6 -27 26 -45t45 -18t45 18t25 45q2 8 6.5 13t12.5 5h7q9 0 14.5 -6t4.5 -15q-9 -40 -42 -68t-73 -28zM94 0q-13 0 -22.5 8t-9.5 18v423q0 11 9.5 17.5t22.5 6.5q14 0 23.5 -6.5t9.5 -17.5
v-423q0 -10 -9.5 -18t-23.5 -8z" />
    <glyph glyph-name="Iogonek" unicode="&#x12e;" horiz-adv-x="218" 
d="M114 -197q-25 0 -47 7.5t-36 24t-14 43.5q0 43 22.5 80t58.5 67l33 -17q-31 -27 -52.5 -58t-21.5 -67q0 -24 16.5 -34t45.5 -10q9 0 14.5 -5t5.5 -14q0 -8 -5.5 -12.5t-19.5 -4.5zM109 0q-13 0 -23 6.5t-10 19.5v681q0 12 10 18t23 6q12 0 22.5 -6t10.5 -18v-681
q0 -13 -10.5 -19.5t-22.5 -6.5z" />
    <glyph glyph-name="iogonek" unicode="&#x12f;" horiz-adv-x="189" 
d="M98 -196q-25 0 -47 7.5t-36 24t-14 43.5q0 43 22.5 80t58.5 67l33 -17q-31 -27 -52.5 -58t-21.5 -67q0 -24 16.5 -34t45.5 -10q9 0 14.5 -5t5.5 -14q0 -8 -5.5 -12.5t-19.5 -4.5zM96 593q-17 0 -28.5 12t-11.5 28t11.5 27.5t28.5 11.5q16 0 27.5 -11.5t11.5 -27.5
t-11.5 -28t-27.5 -12zM94 0q-13 0 -22.5 8t-9.5 18v423q0 11 9.5 17.5t22.5 6.5q14 0 23.5 -6.5t9.5 -17.5v-423q0 -10 -9.5 -18t-23.5 -8z" />
    <glyph glyph-name="Idotaccent" unicode="&#x130;" horiz-adv-x="218" 
d="M112 848q-17 0 -28.5 12t-11.5 28t11.5 27.5t28.5 11.5q16 0 27.5 -11.5t11.5 -27.5t-11.5 -28t-27.5 -12zM109 0q-13 0 -23 6.5t-10 19.5v681q0 12 10 18t23 6q12 0 22.5 -6t10.5 -18v-681q0 -13 -10.5 -19.5t-22.5 -6.5z" />
    <glyph glyph-name="dotlessi" unicode="&#x131;" horiz-adv-x="189" 
d="M94 0q-13 0 -22.5 8t-9.5 18v423q0 11 9.5 17.5t22.5 6.5q14 0 23.5 -6.5t9.5 -17.5v-423q0 -10 -9.5 -18t-23.5 -8z" />
    <glyph glyph-name="IJ" unicode="&#x132;" horiz-adv-x="727" 
d="M109 0q-13 0 -23 6.5t-10 19.5v681q0 12 10 18t23 6q12 0 22.5 -6t10.5 -18v-681q0 -13 -10.5 -19.5t-22.5 -6.5zM449 -6q-64 0 -111 22.5t-73 62.5t-26 91q0 20 8.5 27t24.5 7q12 0 22.5 -6t10.5 -20q1 -37 18 -65t49 -43t75 -15q67 0 104.5 37.5t37.5 115.5v462h-141
q-11 0 -17.5 9.5t-6.5 22.5q0 10 5.5 19.5t18.5 9.5h177q11 0 20.5 -6.5t9.5 -18.5v-498q0 -78 -27.5 -125t-74 -68t-104.5 -21z" />
    <glyph glyph-name="ij" unicode="&#x133;" horiz-adv-x="374" 
d="M94 0q-13 0 -22.5 8t-9.5 18v423q0 11 9.5 17.5t22.5 6.5q14 0 23.5 -6.5t9.5 -17.5v-423q0 -10 -9.5 -18t-23.5 -8zM94 613q-18 0 -31 12.5t-13 29.5t13 29t31 12q19 0 31.5 -12t12.5 -29t-12.5 -29.5t-31.5 -12.5zM180 -232q-18 0 -26 9t-8 20q0 14 8.5 22t19.5 8
q32 0 47.5 17t20 46.5t4.5 66.5v492q0 11 9 17.5t23 6.5t23.5 -6.5t9.5 -17.5v-492q0 -55 -13 -98t-42 -67t-76 -24zM278 613q-18 0 -31 12.5t-13 29.5t13 29t31 12t31 -12t13 -29t-13 -29.5t-31 -12.5z" />
    <glyph glyph-name="Jcircumflex" unicode="&#x134;" horiz-adv-x="509" 
d="M142 846q-8 0 -14.5 8t-6.5 18q0 6 3.5 12t9.5 10l104 56q9 5 17 5q9 0 17 -5l104 -56q7 -3 10 -9.5t3 -13.5q0 -10 -6 -17t-14 -7q-2 0 -5 1t-5 2l-104 55l-104 -56q-2 -1 -4.5 -2t-4.5 -1zM231 -6q-64 0 -111 22.5t-73 62.5t-26 91q0 20 8.5 27t24.5 7q12 0 22.5 -6
t10.5 -20q1 -37 18 -65t49 -43t75 -15q67 0 104.5 37.5t37.5 115.5v462h-141q-11 0 -17.5 9.5t-6.5 22.5q0 10 5.5 19.5t18.5 9.5h177q11 0 20.5 -6.5t9.5 -18.5v-498q0 -78 -27.5 -125t-74 -68t-104.5 -21z" />
    <glyph glyph-name="jcircumflex" unicode="&#x135;" horiz-adv-x="191" 
d="M-19 592q-8 0 -14.5 8t-6.5 18q0 6 3.5 12t9.5 10l104 56q9 5 17 5q9 0 17 -5l104 -56q7 -3 10 -9.5t3 -13.5q0 -10 -6 -17t-14 -7q-2 0 -5 1t-5 2l-104 55l-104 -56q-2 -1 -4.5 -2t-4.5 -1zM-3 -232q-18 0 -26 9t-8 20q0 14 8.5 22t19.5 8q32 0 47.5 17t20 46.5
t4.5 66.5v492q0 11 9 17.5t23 6.5t23.5 -6.5t9.5 -17.5v-492q0 -55 -13 -98t-42 -67t-76 -24z" />
    <glyph glyph-name="uni0136" unicode="&#x136;" horiz-adv-x="523" 
d="M209 -158q-10 0 -17.5 9t-7.5 19q0 13 11 19l111 61q5 2 9 2q11 0 17.5 -9t6.5 -19q0 -15 -13 -22l-106 -57q-3 -1 -5.5 -2t-5.5 -1zM109 0q-13 0 -23 6.5t-10 19.5v681q0 13 10 18.5t23 5.5q12 0 22.5 -5.5t10.5 -18.5v-354l289 368q7 10 21 10q8 0 16.5 -5t14 -12.5
t5.5 -16.5q0 -3 -1 -7.5t-4 -7.5l-215 -267l246 -370q4 -6 4 -13q0 -9 -5.5 -16.5t-14 -12t-18.5 -4.5q-7 0 -13.5 3.5t-11.5 10.5l-231 347l-82 -104v-230q0 -13 -10.5 -19.5t-22.5 -6.5z" />
    <glyph glyph-name="uni0137" unicode="&#x137;" horiz-adv-x="455" 
d="M176 -158q-10 0 -17.5 9t-7.5 19q0 13 11 19l111 61q5 2 9 2q11 0 17.5 -9t6.5 -19q0 -15 -13 -22l-106 -57q-3 -1 -5.5 -2t-5.5 -1zM95 0q-13 0 -22.5 8t-9.5 18v713q0 11 9.5 17.5t22.5 6.5q14 0 23.5 -6.5t9.5 -17.5v-487l244 217q8 6 15 6q8 0 15.5 -4t12.5 -11
t5 -16q0 -5 -1.5 -9.5t-5.5 -8.5l-147 -129l173 -253q4 -6 4 -14q0 -7 -5 -15t-13.5 -12.5t-16.5 -4.5q-12 0 -20 11l-168 247l-92 -81v-149q0 -10 -9.5 -18t-23.5 -8z" />
    <glyph glyph-name="kgreenlandic" unicode="&#x138;" horiz-adv-x="454" 
d="M94 0q-13 0 -22.5 8t-9.5 18v423q0 11 9.5 17.5t22.5 6.5q14 0 23.5 -6.5t9.5 -17.5v-197l244 217q8 6 15 6q8 0 15.5 -4t12.5 -11t5 -16q0 -5 -1.5 -9.5t-5.5 -8.5l-147 -129l173 -253q4 -6 4 -14q0 -7 -5 -15t-13.5 -12.5t-16.5 -4.5q-12 0 -20 11l-168 247l-92 -81
v-149q0 -10 -9.5 -18t-23.5 -8z" />
    <glyph glyph-name="Lacute" unicode="&#x139;" horiz-adv-x="462" 
d="M209 845q-10 0 -18 9t-8 19q0 13 11 18l112 61q5 3 8 3q11 0 17.5 -9t6.5 -19q0 -15 -12 -22l-107 -57q-2 -1 -5 -2t-5 -1zM106 0q-11 0 -20.5 6.5t-9.5 19.5v681q0 13 10 18.5t23 5.5q12 0 22.5 -5.5t10.5 -18.5v-646h285q12 0 17 -9.5t5 -20.5q0 -12 -5 -21.5t-17 -9.5
h-321z" />
    <glyph glyph-name="lacute" unicode="&#x13a;" horiz-adv-x="208" 
d="M60 805q-10 0 -18 9t-8 19q0 13 11 18l112 61q5 3 8 3q11 0 17.5 -9t6.5 -19q0 -15 -12 -22l-107 -57q-2 -1 -5 -2t-5 -1zM103 0q-13 0 -22.5 8t-9.5 18v713q0 11 9.5 17.5t22.5 6.5q14 0 23.5 -6.5t9.5 -17.5v-713q0 -10 -9.5 -18t-23.5 -8z" />
    <glyph glyph-name="uni013B" unicode="&#x13b;" horiz-adv-x="462" 
d="M199 -158q-10 0 -17.5 9t-7.5 19q0 13 11 19l111 61q5 2 9 2q11 0 17.5 -9t6.5 -19q0 -15 -13 -22l-106 -57q-3 -1 -5.5 -2t-5.5 -1zM106 0q-11 0 -20.5 6.5t-9.5 19.5v681q0 13 10 18.5t23 5.5q12 0 22.5 -5.5t10.5 -18.5v-646h285q12 0 17 -9.5t5 -20.5q0 -12 -5 -21.5
t-17 -9.5h-321z" />
    <glyph glyph-name="uni013C" unicode="&#x13c;" horiz-adv-x="208" 
d="M52 -158q-10 0 -17.5 9t-7.5 19q0 13 11 19l111 61q5 2 9 2q11 0 17.5 -9t6.5 -19q0 -15 -13 -22l-106 -57q-3 -1 -5.5 -2t-5.5 -1zM103 0q-13 0 -22.5 8t-9.5 18v713q0 11 9.5 17.5t22.5 6.5q14 0 23.5 -6.5t9.5 -17.5v-713q0 -10 -9.5 -18t-23.5 -8z" />
    <glyph glyph-name="Lcaron" unicode="&#x13d;" horiz-adv-x="463" 
d="M327 570q-8 0 -16 5.5t-8 15.5q0 5 2 9l19 52q-13 5 -21.5 16.5t-8.5 26.5q0 19 13 32.5t33 13.5q19 0 32.5 -13.5t13.5 -32.5q0 -5 -3 -15.5t-7.5 -24.5t-12.5 -32.5t-18 -40.5q-2 -5 -7.5 -8.5t-10.5 -3.5zM106 0q-11 0 -20.5 6.5t-9.5 19.5v681q0 13 10 18.5t23 5.5
q12 0 22.5 -5.5t10.5 -18.5v-646h285q12 0 17 -9.5t5 -20.5q0 -12 -5 -21.5t-17 -9.5h-321z" />
    <glyph glyph-name="lcaron" unicode="&#x13e;" horiz-adv-x="208" 
d="M233 570q-8 0 -16 5.5t-8 15.5q0 5 2 9l19 52q-13 5 -21.5 16.5t-8.5 26.5q0 19 13 32.5t33 13.5q19 0 32.5 -13.5t13.5 -32.5q0 -5 -3 -15.5t-7.5 -24.5t-12.5 -32.5t-18 -40.5q-2 -5 -7.5 -8.5t-10.5 -3.5zM103 0q-13 0 -22.5 8t-9.5 18v713q0 11 9.5 17.5t22.5 6.5
q14 0 23.5 -6.5t9.5 -17.5v-713q0 -10 -9.5 -18t-23.5 -8z" />
    <glyph glyph-name="Ldot" unicode="&#x13f;" horiz-adv-x="463" 
d="M106 0q-11 0 -20.5 6.5t-9.5 19.5v681q0 13 10 18.5t23 5.5q12 0 22.5 -5.5t10.5 -18.5v-646h285q12 0 17 -9.5t5 -20.5q0 -12 -5 -21.5t-17 -9.5h-321zM337 376q-20 0 -33.5 14t-13.5 31q0 19 13.5 32t33.5 13q19 0 33 -13t14 -32q0 -17 -14 -31t-33 -14z" />
    <glyph glyph-name="ldot" unicode="&#x140;" horiz-adv-x="313" 
d="M103 0q-13 0 -22.5 8t-9.5 18v713q0 11 9.5 17.5t22.5 6.5q14 0 23.5 -6.5t9.5 -17.5v-713q0 -10 -9.5 -18t-23.5 -8zM258 255q-21 0 -34.5 14t-13.5 31q0 19 13.5 32t34.5 13q19 0 32.5 -13t13.5 -32q0 -17 -13.5 -31t-32.5 -14z" />
    <glyph glyph-name="Lslash" unicode="&#x141;" horiz-adv-x="468" 
d="M112 0q-11 0 -20.5 6.5t-9.5 19.5v265l-44 -26q-5 -3 -10 -3q-10 0 -18 10.5t-8 21.5q0 6 3 11t8 8l69 38v356q0 13 10 18.5t23 5.5q12 0 22.5 -5.5t10.5 -18.5v-323l97 56q4 2 10 2q8 0 13.5 -4t9 -11t3.5 -14q0 -15 -11 -21l-122 -67v-264h285q12 0 17 -9.5t5 -20.5
q0 -12 -5 -21.5t-17 -9.5h-321z" />
    <glyph glyph-name="lslash" unicode="&#x142;" horiz-adv-x="307" 
d="M148 0q-13 0 -22.5 8t-9.5 18v274l-62 -35q-4 -3 -10 -3q-10 0 -18 10.5t-8 21.5q0 6 3 11t9 8l86 48v378q0 11 9.5 17.5t22.5 6.5q14 0 23.5 -6.5t9.5 -17.5v-345l74 43q4 2 10 2q7 0 13 -4t9.5 -11t3.5 -14q0 -15 -11 -21l-99 -55v-308q0 -10 -9.5 -18t-23.5 -8z" />
    <glyph glyph-name="Nacute" unicode="&#x143;" horiz-adv-x="573" 
d="M244 845q-10 0 -18 9t-8 19q0 13 11 18l112 61q5 3 8 3q11 0 17.5 -9t6.5 -19q0 -15 -12 -22l-107 -57q-2 -1 -5 -2t-5 -1zM109 0q-13 0 -23 6.5t-10 19.5v680q0 14 10 19.5t23 5.5q12 0 21 -6.5t17 -16.5t14 -23l270 -532v554q0 13 10 18.5t23 5.5q12 0 22.5 -5.5
t10.5 -18.5v-681q0 -13 -10.5 -19.5t-22.5 -6.5q-14 0 -25 12t-19 26l-278 541v-553q0 -13 -10.5 -19.5t-22.5 -6.5z" />
    <glyph glyph-name="nacute" unicode="&#x144;" horiz-adv-x="494" 
d="M204 587q-10 0 -18 9t-8 19q0 13 11 18l112 61q5 3 8 3q11 0 17.5 -9t6.5 -19q0 -15 -12 -22l-107 -57q-2 -1 -5 -2t-5 -1zM94 0q-13 0 -22.5 8t-9.5 18v423q0 11 9.5 17.5t22.5 6.5t22 -6.5t9 -17.5v-46q16 29 50 52.5t84 23.5q48 0 88.5 -25.5t64.5 -67.5t24 -94v-266
q0 -13 -10 -19.5t-23 -6.5q-11 0 -21.5 6.5t-10.5 19.5v266q0 32 -17 61t-45 47.5t-62 18.5q-30 0 -57.5 -15.5t-45 -43.5t-17.5 -68v-266q0 -10 -9.5 -18t-23.5 -8z" />
    <glyph glyph-name="uni0145" unicode="&#x145;" horiz-adv-x="573" 
d="M234 -158q-10 0 -17.5 9t-7.5 19q0 13 11 19l111 61q5 2 9 2q11 0 17.5 -9t6.5 -19q0 -15 -13 -22l-106 -57q-3 -1 -5.5 -2t-5.5 -1zM109 0q-13 0 -23 6.5t-10 19.5v680q0 14 10 19.5t23 5.5q12 0 21 -6.5t17 -16.5t14 -23l270 -532v554q0 13 10 18.5t23 5.5
q12 0 22.5 -5.5t10.5 -18.5v-681q0 -13 -10.5 -19.5t-22.5 -6.5q-14 0 -25 12t-19 26l-278 541v-553q0 -13 -10.5 -19.5t-22.5 -6.5z" />
    <glyph glyph-name="uni0146" unicode="&#x146;" horiz-adv-x="494" 
d="M195 -158q-10 0 -17.5 9t-7.5 19q0 13 11 19l111 61q5 2 9 2q11 0 17.5 -9t6.5 -19q0 -15 -13 -22l-106 -57q-3 -1 -5.5 -2t-5.5 -1zM94 0q-13 0 -22.5 8t-9.5 18v423q0 11 9.5 17.5t22.5 6.5t22 -6.5t9 -17.5v-46q16 29 50 52.5t84 23.5q48 0 88.5 -25.5t64.5 -67.5
t24 -94v-266q0 -13 -10 -19.5t-23 -6.5q-11 0 -21.5 6.5t-10.5 19.5v266q0 32 -17 61t-45 47.5t-62 18.5q-30 0 -57.5 -15.5t-45 -43.5t-17.5 -68v-266q0 -10 -9.5 -18t-23.5 -8z" />
    <glyph glyph-name="Ncaron" unicode="&#x147;" horiz-adv-x="573" 
d="M287 840q-11 0 -20 10l-101 90q-7 5 -10 10.5t-3 12.5q0 8 5.5 15t13.5 7t15 -6l100 -92l99 92q7 6 15 6q9 0 14 -7t5 -15q0 -7 -3 -12.5t-9 -10.5l-101 -90q-11 -10 -20 -10zM109 0q-13 0 -23 6.5t-10 19.5v680q0 14 10 19.5t23 5.5q12 0 21 -6.5t17 -16.5t14 -23
l270 -532v554q0 13 10 18.5t23 5.5q12 0 22.5 -5.5t10.5 -18.5v-681q0 -13 -10.5 -19.5t-22.5 -6.5q-14 0 -25 12t-19 26l-278 541v-553q0 -13 -10.5 -19.5t-22.5 -6.5z" />
    <glyph glyph-name="ncaron" unicode="&#x148;" horiz-adv-x="494" 
d="M248 582q-11 0 -20 10l-101 90q-7 5 -10 10.5t-3 12.5q0 8 5.5 15t13.5 7t15 -6l100 -92l99 92q7 6 15 6q9 0 14 -7t5 -15q0 -7 -3 -12.5t-9 -10.5l-101 -90q-11 -10 -20 -10zM94 0q-13 0 -22.5 8t-9.5 18v423q0 11 9.5 17.5t22.5 6.5t22 -6.5t9 -17.5v-46q16 29 50 52.5
t84 23.5q48 0 88.5 -25.5t64.5 -67.5t24 -94v-266q0 -13 -10 -19.5t-23 -6.5q-11 0 -21.5 6.5t-10.5 19.5v266q0 32 -17 61t-45 47.5t-62 18.5q-30 0 -57.5 -15.5t-45 -43.5t-17.5 -68v-266q0 -10 -9.5 -18t-23.5 -8z" />
    <glyph glyph-name="napostrophe" unicode="&#x149;" horiz-adv-x="690" 
d="M145 714l7 -11q-25 -97 -86 -234h-65q34 139 50 245h94zM165 0q-13 0 -22.5 8t-9.5 18v423q0 11 9.5 17.5t22.5 6.5t22 -6.5t9 -17.5v-46q16 29 50 52.5t84 23.5q48 0 88.5 -25.5t64.5 -67.5t24 -94v-266q0 -13 -10 -19.5t-23 -6.5q-11 0 -21.5 6.5t-10.5 19.5v266
q0 32 -17 61t-45 47.5t-62 18.5q-30 0 -57.5 -15.5t-45 -43.5t-17.5 -68v-266q0 -10 -9.5 -18t-23.5 -8z" />
    <glyph glyph-name="Eng" unicode="&#x14a;" horiz-adv-x="573" 
d="M366 -232q-18 0 -26 9t-8 20q0 14 8.5 22t19.5 8q32 0 47 17t20 46.5t5 66.5v45q0 7 -2.5 15.5t-9.5 20.5l-278 541v-553q0 -13 -10.5 -19.5t-22.5 -6.5q-13 0 -23 6.5t-10 19.5v680q0 14 10 19.5t23 5.5q12 0 21 -6.5t17 -16.5t14 -23l270 -532v554q0 13 10 18.5t23 5.5
q12 0 22.5 -5.5t10.5 -18.5v-750q0 -55 -13.5 -98t-42 -67t-75.5 -24z" />
    <glyph glyph-name="eng" unicode="&#x14b;" horiz-adv-x="495" 
d="M305 -232q-17 0 -25.5 9t-8.5 20q0 14 8.5 22t19.5 8q33 0 48 17t19.5 46.5t4.5 66.5v335q0 32 -17 61t-45 47.5t-62 18.5q-30 0 -57.5 -15.5t-45 -43.5t-17.5 -68v-266q0 -10 -9.5 -18t-23.5 -8q-13 0 -22.5 8t-9.5 18v423q0 11 9.5 17.5t22.5 6.5t22 -6.5t9 -17.5v-46
q16 29 50 52.5t84 23.5q48 0 88.5 -25.5t64.5 -67.5t24 -94v-335q0 -55 -13 -98t-42 -67t-76 -24z" />
    <glyph glyph-name="Omacron" unicode="&#x14c;" horiz-adv-x="553" 
d="M169 889q-11 0 -18 7.5t-7 17.5q0 12 7 19t18 7h215q9 0 17 -7t8 -19q0 -10 -8 -17.5t-17 -7.5h-215zM276 -6q-58 0 -105 21t-74.5 68t-27.5 125v310q0 77 27.5 124t74 68t105.5 21t106 -21t75 -68t28 -124v-310q0 -78 -28 -125t-75 -68t-106 -21zM276 55q67 0 105 37
t38 116v310q0 78 -38 115t-105 37t-104 -37t-37 -115v-310q0 -79 37 -116t104 -37z" />
    <glyph glyph-name="omacron" unicode="&#x14d;" horiz-adv-x="469" 
d="M127 635q-11 0 -18 7.5t-7 17.5q0 12 7 19t18 7h215q9 0 17 -7t8 -19q0 -10 -8 -17.5t-17 -7.5h-215zM234 -7q-51 0 -94 26.5t-69.5 70t-26.5 93.5v109q0 50 26 92.5t69 68.5t95 26q51 0 94.5 -25.5t69.5 -67.5t26 -94v-109q0 -49 -26 -93t-69.5 -70.5t-94.5 -26.5z
M234 53q35 0 63 18.5t45 48.5t17 63v109q0 32 -16.5 61t-45 47.5t-63.5 18.5t-63 -18.5t-45 -47.5t-17 -61v-109q0 -33 17 -63t45.5 -48.5t62.5 -18.5z" />
    <glyph glyph-name="Obreve" unicode="&#x14e;" horiz-adv-x="553" 
d="M277 851q-41 0 -74 28t-41 68q-2 10 3.5 15.5t14.5 5.5h7q8 0 12.5 -5t6.5 -13q6 -27 26 -45t45 -18t45 18t25 45q2 8 6.5 13t12.5 5h7q9 0 14.5 -6t4.5 -15q-9 -40 -42 -68t-73 -28zM276 -6q-58 0 -105 21t-74.5 68t-27.5 125v310q0 77 27.5 124t74 68t105.5 21t106 -21
t75 -68t28 -124v-310q0 -78 -28 -125t-75 -68t-106 -21zM276 55q67 0 105 37t38 116v310q0 78 -38 115t-105 37t-104 -37t-37 -115v-310q0 -79 37 -116t104 -37z" />
    <glyph glyph-name="obreve" unicode="&#x14f;" horiz-adv-x="469" 
d="M236 597q-41 0 -74 28t-41 68q-2 10 3.5 15.5t14.5 5.5h7q8 0 12.5 -5t6.5 -13q6 -27 26 -45t45 -18t45 18t25 45q2 8 6.5 13t12.5 5h7q9 0 14.5 -6t4.5 -15q-9 -40 -42 -68t-73 -28zM234 -7q-51 0 -94 26.5t-69.5 70t-26.5 93.5v109q0 50 26 92.5t69 68.5t95 26
q51 0 94.5 -25.5t69.5 -67.5t26 -94v-109q0 -49 -26 -93t-69.5 -70.5t-94.5 -26.5zM234 53q35 0 63 18.5t45 48.5t17 63v109q0 32 -16.5 61t-45 47.5t-63.5 18.5t-63 -18.5t-45 -47.5t-17 -61v-109q0 -33 17 -63t45.5 -48.5t62.5 -18.5z" />
    <glyph glyph-name="Ohungarumlaut" unicode="&#x150;" horiz-adv-x="553" 
d="M322 849q-9 0 -17.5 7.5t-8.5 16.5t8 14l96 69q3 2 6 3t5 1q10 0 16.5 -7.5t6.5 -16.5q0 -11 -9 -18l-91 -64q-5 -5 -12 -5zM172 849q-10 0 -18 7.5t-8 16.5t8 14l96 69q3 2 6 3t5 1q10 0 16.5 -7.5t6.5 -16.5q0 -11 -9 -18l-91 -64q-5 -5 -12 -5zM276 -6q-58 0 -105 21
t-74.5 68t-27.5 125v310q0 77 27.5 124t74 68t105.5 21t106 -21t75 -68t28 -124v-310q0 -78 -28 -125t-75 -68t-106 -21zM276 55q67 0 105 37t38 116v310q0 78 -38 115t-105 37t-104 -37t-37 -115v-310q0 -79 37 -116t104 -37z" />
    <glyph glyph-name="ohungarumlaut" unicode="&#x151;" horiz-adv-x="469" 
d="M287 590q-9 0 -17.5 7.5t-8.5 16.5t8 14l96 69q3 2 6 3t5 1q10 0 16.5 -7.5t6.5 -16.5q0 -11 -9 -18l-91 -64q-5 -5 -12 -5zM137 590q-10 0 -18 7.5t-8 16.5t8 14l96 69q3 2 6 3t5 1q10 0 16.5 -7.5t6.5 -16.5q0 -11 -9 -18l-91 -64q-5 -5 -12 -5zM234 -7q-51 0 -94 26.5
t-69.5 70t-26.5 93.5v109q0 50 26 92.5t69 68.5t95 26q51 0 94.5 -25.5t69.5 -67.5t26 -94v-109q0 -49 -26 -93t-69.5 -70.5t-94.5 -26.5zM234 53q35 0 63 18.5t45 48.5t17 63v109q0 32 -16.5 61t-45 47.5t-63.5 18.5t-63 -18.5t-45 -47.5t-17 -61v-109q0 -33 17 -63
t45.5 -48.5t62.5 -18.5z" />
    <glyph glyph-name="OE" unicode="&#x152;" horiz-adv-x="840" 
d="M269 -6q-57 0 -102 21t-71.5 68t-26.5 125v310q0 77 26.5 124t71.5 68t102 21q47 0 89.5 -17.5t66.5 -54.5v47q0 12 9.5 18.5t20.5 6.5h339q13 0 19 -9.5t6 -19.5q0 -13 -6.5 -22.5t-18.5 -9.5h-310v-275h147q12 0 18.5 -9t6.5 -21q0 -9 -6 -18t-19 -9h-147v-277h310
q12 0 18.5 -9t6.5 -22q0 -11 -6 -20.5t-19 -9.5h-339q-11 0 -20.5 6.5t-9.5 19.5v41q-24 -38 -66.5 -55.5t-89.5 -17.5zM276 55q67 0 105 37t38 116v310q0 78 -38 115t-105 37q-66 0 -103.5 -37t-37.5 -115v-310q0 -79 37.5 -116t103.5 -37z" />
    <glyph glyph-name="oe" unicode="&#x153;" horiz-adv-x="772" 
d="M234 -7q-51 0 -94 26.5t-69.5 70t-26.5 93.5v109q0 50 26 92.5t69 68.5t95 26q50 0 93 -26t66 -69q23 42 65 68.5t92 26.5t92.5 -23.5t68.5 -64t26 -93.5q0 -39 -12.5 -56t-32 -21t-42.5 -4h-226v-37q0 -60 43 -95t112 -35q38 0 59 10t33.5 20t24.5 10q8 0 14 -4.5
t10 -12t4 -15.5q0 -12 -19 -27.5t-53 -26.5t-79 -11q-61 0 -108 26t-72 70q-25 -42 -67 -69t-92 -27zM234 53q35 0 63 18.5t45 48.5t17 63v109q0 32 -16.5 61t-45 47.5t-63.5 18.5t-63 -18.5t-45 -47.5t-17 -61v-109q0 -33 17 -63t45.5 -48.5t62.5 -18.5zM424 265h200
q31 0 40.5 6.5t9.5 27.5q0 32 -15.5 61t-43.5 47t-65 18q-35 0 -63.5 -16.5t-45.5 -43t-17 -59.5v-41z" />
    <glyph glyph-name="Racute" unicode="&#x154;" horiz-adv-x="528" 
d="M236 845q-10 0 -18 9t-8 19q0 13 11 18l112 61q5 3 8 3q11 0 17.5 -9t6.5 -19q0 -15 -12 -22l-107 -57q-2 -1 -5 -2t-5 -1zM458 -1q-11 0 -20 11t-14 23l-155 300h-127v-307q0 -13 -10.5 -19.5t-22.5 -6.5q-13 0 -23 6.5t-10 19.5v681q0 10 7 16.5t18 7.5h177
q59 0 108 -18t78.5 -60.5t29.5 -118.5q0 -62 -20.5 -102t-56 -61.5t-79.5 -29.5l154 -296q3 -3 3.5 -6.5t0.5 -6.5q0 -8 -5.5 -16t-14.5 -12.5t-18 -4.5zM142 390h136q67 0 108.5 32.5t41.5 108.5q0 75 -41.5 107t-108.5 32h-136v-280z" />
    <glyph glyph-name="racute" unicode="&#x155;" horiz-adv-x="330" 
d="M121 591q-10 0 -18 9t-8 19q0 13 11 18l112 61q5 3 8 3q11 0 17.5 -9t6.5 -19q0 -15 -12 -22l-107 -57q-2 -1 -5 -2t-5 -1zM94 0q-13 0 -22.5 8t-9.5 18v423q0 11 9.5 17.5t22.5 6.5t22 -6.5t9 -17.5v-49q11 20 30 38t45 29.5t59 11.5h35q11 0 18.5 -8.5t7.5 -21.5
q0 -12 -7.5 -21t-18.5 -9h-35q-33 0 -63.5 -17.5t-49.5 -50t-19 -78.5v-247q0 -10 -9.5 -18t-23.5 -8z" />
    <glyph glyph-name="uni0156" unicode="&#x156;" horiz-adv-x="528" 
d="M202 -158q-10 0 -17.5 9t-7.5 19q0 13 11 19l111 61q5 2 9 2q11 0 17.5 -9t6.5 -19q0 -15 -13 -22l-106 -57q-3 -1 -5.5 -2t-5.5 -1zM458 -1q-11 0 -20 11t-14 23l-155 300h-127v-307q0 -13 -10.5 -19.5t-22.5 -6.5q-13 0 -23 6.5t-10 19.5v681q0 10 7 16.5t18 7.5h177
q59 0 108 -18t78.5 -60.5t29.5 -118.5q0 -62 -20.5 -102t-56 -61.5t-79.5 -29.5l154 -296q3 -3 3.5 -6.5t0.5 -6.5q0 -8 -5.5 -16t-14.5 -12.5t-18 -4.5zM142 390h136q67 0 108.5 32.5t41.5 108.5q0 75 -41.5 107t-108.5 32h-136v-280z" />
    <glyph glyph-name="uni0157" unicode="&#x157;" horiz-adv-x="330" 
d="M23 -158q-10 0 -17.5 9t-7.5 19q0 13 11 19l111 61q5 2 9 2q11 0 17.5 -9t6.5 -19q0 -15 -13 -22l-106 -57q-3 -1 -5.5 -2t-5.5 -1zM94 0q-13 0 -22.5 8t-9.5 18v423q0 11 9.5 17.5t22.5 6.5t22 -6.5t9 -17.5v-49q11 20 30 38t45 29.5t59 11.5h35q11 0 18.5 -8.5
t7.5 -21.5q0 -12 -7.5 -21t-18.5 -9h-35q-33 0 -63.5 -17.5t-49.5 -50t-19 -78.5v-247q0 -10 -9.5 -18t-23.5 -8z" />
    <glyph glyph-name="Rcaron" unicode="&#x158;" horiz-adv-x="528" 
d="M280 840q-11 0 -20 10l-101 90q-7 5 -10 10.5t-3 12.5q0 8 5.5 15t13.5 7t15 -6l100 -92l99 92q7 6 15 6q9 0 14 -7t5 -15q0 -7 -3 -12.5t-9 -10.5l-101 -90q-11 -10 -20 -10zM458 -1q-11 0 -20 11t-14 23l-155 300h-127v-307q0 -13 -10.5 -19.5t-22.5 -6.5
q-13 0 -23 6.5t-10 19.5v681q0 10 7 16.5t18 7.5h177q59 0 108 -18t78.5 -60.5t29.5 -118.5q0 -62 -20.5 -102t-56 -61.5t-79.5 -29.5l154 -296q3 -3 3.5 -6.5t0.5 -6.5q0 -8 -5.5 -16t-14.5 -12.5t-18 -4.5zM142 390h136q67 0 108.5 32.5t41.5 108.5q0 75 -41.5 107
t-108.5 32h-136v-280z" />
    <glyph glyph-name="rcaron" unicode="&#x159;" horiz-adv-x="330" 
d="M173 586q-11 0 -20 10l-101 90q-7 5 -10 10.5t-3 12.5q0 8 5.5 15t13.5 7t15 -6l100 -92l99 92q7 6 15 6q9 0 14 -7t5 -15q0 -7 -3 -12.5t-9 -10.5l-101 -90q-11 -10 -20 -10zM94 0q-13 0 -22.5 8t-9.5 18v423q0 11 9.5 17.5t22.5 6.5t22 -6.5t9 -17.5v-49q11 20 30 38
t45 29.5t59 11.5h35q11 0 18.5 -8.5t7.5 -21.5q0 -12 -7.5 -21t-18.5 -9h-35q-33 0 -63.5 -17.5t-49.5 -50t-19 -78.5v-247q0 -10 -9.5 -18t-23.5 -8z" />
    <glyph glyph-name="Sacute" unicode="&#x15a;" horiz-adv-x="494" 
d="M204 845q-10 0 -18 9t-8 19q0 13 11 18l112 61q5 3 8 3q11 0 17.5 -9t6.5 -19q0 -15 -12 -22l-107 -57q-2 -1 -5 -2t-5 -1zM241 -7q-64 0 -110 19.5t-70.5 45t-24.5 43.5q0 8 4.5 17t11.5 14.5t14 5.5q10 0 20.5 -12.5t28 -29t46.5 -29t76 -12.5t80.5 15.5t51 46
t17.5 76.5q0 48 -18 77.5t-47.5 48t-64.5 32t-70.5 27t-65 34t-48 54t-18.5 85.5q0 55 20 90t51.5 55t68.5 28.5t72 8.5q28 0 57.5 -4.5t54.5 -12.5t40.5 -19t15.5 -25q0 -7 -3.5 -15.5t-9.5 -15t-16 -6.5q-9 0 -25 9.5t-43.5 19t-71.5 9.5q-36 0 -69.5 -10.5t-54.5 -35.5
t-21 -70q0 -40 18.5 -64.5t48 -39.5t64.5 -27.5t70.5 -28t65 -39t47.5 -61.5t18 -98q0 -71 -27 -116.5t-74.5 -67.5t-109.5 -22z" />
    <glyph glyph-name="sacute" unicode="&#x15b;" horiz-adv-x="387" 
d="M151 587q-10 0 -18 9t-8 19q0 13 11 18l112 61q5 3 8 3q11 0 17.5 -9t6.5 -19q0 -15 -12 -22l-107 -57q-2 -1 -5 -2t-5 -1zM191 -7q-47 0 -82 12t-55 28.5t-20 31.5q0 7 3 13.5t8.5 11.5t11.5 5q11 0 24.5 -11.5t38 -23.5t69.5 -12q57 0 80 21.5t23 49.5q0 33 -17.5 51.5
t-46 29t-60 19t-60 22t-46 37.5t-17.5 65q0 32 16 63.5t50.5 52t91.5 20.5q33 0 64 -7t50.5 -18.5t19.5 -23.5q0 -5 -3.5 -13t-9.5 -14.5t-14 -6.5t-21.5 7.5t-34.5 14t-50 6.5q-36 0 -58 -13t-32 -30.5t-10 -34.5q0 -29 18 -44t46.5 -24.5t60 -18t60 -23.5t46 -42t17.5 -72
q0 -59 -42 -94t-119 -35z" />
    <glyph glyph-name="Scircumflex" unicode="&#x15c;" horiz-adv-x="494" 
d="M135 846q-8 0 -14.5 8t-6.5 18q0 6 3.5 12t9.5 10l104 56q9 5 17 5q9 0 17 -5l104 -56q7 -3 10 -9.5t3 -13.5q0 -10 -6 -17t-14 -7q-2 0 -5 1t-5 2l-104 55l-104 -56q-2 -1 -4.5 -2t-4.5 -1zM241 -7q-64 0 -110 19.5t-70.5 45t-24.5 43.5q0 8 4.5 17t11.5 14.5t14 5.5
q10 0 20.5 -12.5t28 -29t46.5 -29t76 -12.5t80.5 15.5t51 46t17.5 76.5q0 48 -18 77.5t-47.5 48t-64.5 32t-70.5 27t-65 34t-48 54t-18.5 85.5q0 55 20 90t51.5 55t68.5 28.5t72 8.5q28 0 57.5 -4.5t54.5 -12.5t40.5 -19t15.5 -25q0 -7 -3.5 -15.5t-9.5 -15t-16 -6.5
q-9 0 -25 9.5t-43.5 19t-71.5 9.5q-36 0 -69.5 -10.5t-54.5 -35.5t-21 -70q0 -40 18.5 -64.5t48 -39.5t64.5 -27.5t70.5 -28t65 -39t47.5 -61.5t18 -98q0 -71 -27 -116.5t-74.5 -67.5t-109.5 -22z" />
    <glyph glyph-name="scircumflex" unicode="&#x15d;" horiz-adv-x="387" 
d="M81 588q-8 0 -14.5 8t-6.5 18q0 6 3.5 12t9.5 10l104 56q9 5 17 5q9 0 17 -5l104 -56q7 -3 10 -9.5t3 -13.5q0 -10 -6 -17t-14 -7q-2 0 -5 1t-5 2l-104 55l-104 -56q-2 -1 -4.5 -2t-4.5 -1zM191 -7q-47 0 -82 12t-55 28.5t-20 31.5q0 7 3 13.5t8.5 11.5t11.5 5
q11 0 24.5 -11.5t38 -23.5t69.5 -12q57 0 80 21.5t23 49.5q0 33 -17.5 51.5t-46 29t-60 19t-60 22t-46 37.5t-17.5 65q0 32 16 63.5t50.5 52t91.5 20.5q33 0 64 -7t50.5 -18.5t19.5 -23.5q0 -5 -3.5 -13t-9.5 -14.5t-14 -6.5t-21.5 7.5t-34.5 14t-50 6.5q-36 0 -58 -13
t-32 -30.5t-10 -34.5q0 -29 18 -44t46.5 -24.5t60 -18t60 -23.5t46 -42t17.5 -72q0 -59 -42 -94t-119 -35z" />
    <glyph glyph-name="Scedilla" unicode="&#x15e;" horiz-adv-x="494" 
d="M278 -210q-14 0 -32 3t-32 8.5t-14 14.5q0 3 2 9t5.5 10.5t8.5 4.5q6 0 18.5 -6.5t37.5 -6.5q29 0 41 11t12 27q0 21 -17 30.5t-46 11.5l-38 3l26 99h40l-19 -69q51 -2 73.5 -23.5t22.5 -49.5q0 -17 -9.5 -35t-29.5 -30t-50 -12zM241 -7q-64 0 -110 19.5t-70.5 45
t-24.5 43.5q0 8 4.5 17t11.5 14.5t14 5.5q10 0 20.5 -12.5t28 -29t46.5 -29t76 -12.5t80.5 15.5t51 46t17.5 76.5q0 48 -18 77.5t-47.5 48t-64.5 32t-70.5 27t-65 34t-48 54t-18.5 85.5q0 55 20 90t51.5 55t68.5 28.5t72 8.5q28 0 57.5 -4.5t54.5 -12.5t40.5 -19t15.5 -25
q0 -7 -3.5 -15.5t-9.5 -15t-16 -6.5q-9 0 -25 9.5t-43.5 19t-71.5 9.5q-36 0 -69.5 -10.5t-54.5 -35.5t-21 -70q0 -40 18.5 -64.5t48 -39.5t64.5 -27.5t70.5 -28t65 -39t47.5 -61.5t18 -98q0 -71 -27 -116.5t-74.5 -67.5t-109.5 -22z" />
    <glyph glyph-name="scedilla" unicode="&#x15f;" horiz-adv-x="387" 
d="M210 -210q-14 0 -32 3t-32 8.5t-14 14.5q0 3 2 9t5.5 10.5t8.5 4.5q6 0 18.5 -6.5t37.5 -6.5q29 0 41 11t12 27q0 21 -17 30.5t-46 11.5l-38 3l26 99h40l-19 -69q51 -2 73.5 -23.5t22.5 -49.5q0 -17 -9.5 -35t-29.5 -30t-50 -12zM191 -7q-47 0 -82 12t-55 28.5t-20 31.5
q0 7 3 13.5t8.5 11.5t11.5 5q11 0 24.5 -11.5t38 -23.5t69.5 -12q57 0 80 21.5t23 49.5q0 33 -17.5 51.5t-46 29t-60 19t-60 22t-46 37.5t-17.5 65q0 32 16 63.5t50.5 52t91.5 20.5q33 0 64 -7t50.5 -18.5t19.5 -23.5q0 -5 -3.5 -13t-9.5 -14.5t-14 -6.5t-21.5 7.5t-34.5 14
t-50 6.5q-36 0 -58 -13t-32 -30.5t-10 -34.5q0 -29 18 -44t46.5 -24.5t60 -18t60 -23.5t46 -42t17.5 -72q0 -59 -42 -94t-119 -35z" />
    <glyph glyph-name="Scaron" unicode="&#x160;" horiz-adv-x="494" 
d="M248 840q-11 0 -20 10l-101 90q-7 5 -10 10.5t-3 12.5q0 8 5.5 15t13.5 7t15 -6l100 -92l99 92q7 6 15 6q9 0 14 -7t5 -15q0 -7 -3 -12.5t-9 -10.5l-101 -90q-11 -10 -20 -10zM241 -7q-64 0 -110 19.5t-70.5 45t-24.5 43.5q0 8 4.5 17t11.5 14.5t14 5.5q10 0 20.5 -12.5
t28 -29t46.5 -29t76 -12.5t80.5 15.5t51 46t17.5 76.5q0 48 -18 77.5t-47.5 48t-64.5 32t-70.5 27t-65 34t-48 54t-18.5 85.5q0 55 20 90t51.5 55t68.5 28.5t72 8.5q28 0 57.5 -4.5t54.5 -12.5t40.5 -19t15.5 -25q0 -7 -3.5 -15.5t-9.5 -15t-16 -6.5q-9 0 -25 9.5t-43.5 19
t-71.5 9.5q-36 0 -69.5 -10.5t-54.5 -35.5t-21 -70q0 -40 18.5 -64.5t48 -39.5t64.5 -27.5t70.5 -28t65 -39t47.5 -61.5t18 -98q0 -71 -27 -116.5t-74.5 -67.5t-109.5 -22z" />
    <glyph glyph-name="scaron" unicode="&#x161;" horiz-adv-x="387" 
d="M195 582q-11 0 -20 10l-101 90q-7 5 -10 10.5t-3 12.5q0 8 5.5 15t13.5 7t15 -6l100 -92l99 92q7 6 15 6q9 0 14 -7t5 -15q0 -7 -3 -12.5t-9 -10.5l-101 -90q-11 -10 -20 -10zM191 -7q-47 0 -82 12t-55 28.5t-20 31.5q0 7 3 13.5t8.5 11.5t11.5 5q11 0 24.5 -11.5
t38 -23.5t69.5 -12q57 0 80 21.5t23 49.5q0 33 -17.5 51.5t-46 29t-60 19t-60 22t-46 37.5t-17.5 65q0 32 16 63.5t50.5 52t91.5 20.5q33 0 64 -7t50.5 -18.5t19.5 -23.5q0 -5 -3.5 -13t-9.5 -14.5t-14 -6.5t-21.5 7.5t-34.5 14t-50 6.5q-36 0 -58 -13t-32 -30.5t-10 -34.5
q0 -29 18 -44t46.5 -24.5t60 -18t60 -23.5t46 -42t17.5 -72q0 -59 -42 -94t-119 -35z" />
    <glyph glyph-name="uni021A" unicode="&#x162;" horiz-adv-x="477" 
d="M186 -158q-10 0 -17.5 9t-7.5 19q0 13 11 19l111 61q5 2 9 2q11 0 17.5 -9t6.5 -19q0 -15 -13 -22l-106 -57q-3 -1 -5.5 -2t-5.5 -1zM239 0q-13 0 -23 6.5t-10 19.5v643h-168q-12 0 -18.5 9.5t-6.5 21.5t6.5 21.5t18.5 9.5h401q13 0 19 -9t6 -21t-6 -22t-19 -10h-167
v-643q0 -13 -10.5 -19.5t-22.5 -6.5z" />
    <glyph glyph-name="uni021B" unicode="&#x163;" horiz-adv-x="295" 
d="M95 -158q-10 0 -17.5 9t-7.5 19q0 13 11 19l111 61q5 2 9 2q11 0 17.5 -9t6.5 -19q0 -15 -13 -22l-106 -57q-3 -1 -5.5 -2t-5.5 -1zM219 0q-77 0 -118 35t-41 112v527q0 11 10.5 17.5t21.5 6.5q13 0 23 -6.5t10 -17.5v-201h130q10 0 16 -8t6 -19t-6 -19t-16 -8h-130v-272
q0 -49 21 -68.5t73 -19.5h28q14 0 21.5 -8.5t7.5 -20.5t-7.5 -21t-21.5 -9h-28z" />
    <glyph glyph-name="Tcaron" unicode="&#x164;" horiz-adv-x="477" 
d="M239 840q-11 0 -20 10l-101 90q-7 5 -10 10.5t-3 12.5q0 8 5.5 15t13.5 7t15 -6l100 -92l99 92q7 6 15 6q9 0 14 -7t5 -15q0 -7 -3 -12.5t-9 -10.5l-101 -90q-11 -10 -20 -10zM239 0q-13 0 -23 6.5t-10 19.5v643h-168q-12 0 -18.5 9.5t-6.5 21.5t6.5 21.5t18.5 9.5h401
q13 0 19 -9t6 -21t-6 -22t-19 -10h-167v-643q0 -13 -10.5 -19.5t-22.5 -6.5z" />
    <glyph glyph-name="tcaron" unicode="&#x165;" horiz-adv-x="295" 
d="M223 577q-8 0 -16 5.5t-8 15.5q0 5 2 9l19 52q-13 5 -21.5 16.5t-8.5 26.5q0 19 13 32.5t33 13.5q19 0 32.5 -13.5t13.5 -32.5q0 -5 -3 -15.5t-7.5 -24.5t-12.5 -32.5t-18 -40.5q-2 -5 -7.5 -8.5t-10.5 -3.5zM219 0q-77 0 -118 35t-41 112v527q0 11 10.5 17.5t21.5 6.5
q13 0 23 -6.5t10 -17.5v-201h130q10 0 16 -8t6 -19t-6 -19t-16 -8h-130v-272q0 -49 21 -68.5t73 -19.5h28q14 0 21.5 -8.5t7.5 -20.5t-7.5 -21t-21.5 -9h-28z" />
    <glyph glyph-name="Tbar" unicode="&#x166;" horiz-adv-x="480" 
d="M240 0q-12 0 -22.5 6.5t-10.5 19.5v312h-128q-10 0 -16.5 8.5t-6.5 18.5t6.5 18.5t16.5 8.5h128v277h-168q-11 0 -18 9.5t-7 21.5t6.5 21.5t18.5 9.5h402q13 0 19 -9t6 -21t-6 -22t-19 -10h-168v-277h127q12 0 17.5 -8t5.5 -18q0 -11 -5 -19.5t-18 -8.5h-127v-312
q0 -13 -10 -19.5t-23 -6.5z" />
    <glyph glyph-name="tbar" unicode="&#x167;" horiz-adv-x="299" 
d="M219 0q-77 0 -118 35t-41 112v527q0 11 10.5 17.5t21.5 6.5q13 0 23 -6.5t10 -17.5v-201h130q10 0 16 -8t6 -19t-6 -19t-16 -8h-130v-101h130q10 0 16 -8.5t6 -19.5q0 -10 -6 -18t-16 -8h-130v-117q0 -49 21 -68.5t73 -19.5h28q14 0 21.5 -8.5t7.5 -20.5t-7.5 -21
t-21.5 -9h-28z" />
    <glyph glyph-name="Utilde" unicode="&#x168;" horiz-adv-x="563" 
d="M353 863q-27 0 -47 9t-39.5 17.5t-46.5 8.5q-21 0 -34.5 -8t-22 -16t-17.5 -8q-6 0 -10 4t-6.5 10t-2.5 11q0 14 9 24.5t23 18t29.5 11t26.5 3.5q27 0 46.5 -8t39.5 -17t46 -9q22 0 34 7.5t19.5 14.5t16.5 7q7 0 11.5 -4t6.5 -9t2 -10q0 -16 -9 -26.5t-22.5 -17.5
t-27.5 -10t-25 -3zM281 -6q-59 0 -106 21t-75 68t-28 125v499q0 12 10 18t23 6t23 -6t10 -18v-499q0 -79 38 -116t105 -37q68 0 106 37t38 116v499q0 12 10 18t23 6t23 -6t10 -18v-499q0 -78 -27.5 -125t-75.5 -68t-107 -21z" />
    <glyph glyph-name="utilde" unicode="&#x169;" horiz-adv-x="496" 
d="M319 605q-27 0 -47 9t-39.5 17.5t-46.5 8.5q-21 0 -34.5 -8t-22 -16t-17.5 -8q-6 0 -10 4t-6.5 10t-2.5 11q0 14 9 24.5t23 18t29.5 11t26.5 3.5q27 0 46.5 -8t39.5 -17t46 -9q22 0 34 7.5t19.5 14.5t16.5 7q7 0 11.5 -4t6.5 -9t2 -10q0 -16 -9 -26.5t-22.5 -17.5
t-27.5 -10t-25 -3zM249 -7q-53 0 -96 26t-69 69.5t-26 92.5v267q0 9 10 17t23 8t22.5 -8t9.5 -17v-267q0 -33 17 -62t45 -47.5t63 -18.5q36 0 64 18t44.5 47.5t16.5 62.5v268q0 10 10 17t23 7q15 0 23.5 -7t8.5 -17v-268q0 -51 -25.5 -93.5t-69 -68.5t-94.5 -26z" />
    <glyph glyph-name="Umacron" unicode="&#x16a;" horiz-adv-x="563" 
d="M174 889q-11 0 -18 7.5t-7 17.5q0 12 7 19t18 7h215q9 0 17 -7t8 -19q0 -10 -8 -17.5t-17 -7.5h-215zM281 -6q-59 0 -106 21t-75 68t-28 125v499q0 12 10 18t23 6t23 -6t10 -18v-499q0 -79 38 -116t105 -37q68 0 106 37t38 116v499q0 12 10 18t23 6t23 -6t10 -18v-499
q0 -78 -27.5 -125t-75.5 -68t-107 -21z" />
    <glyph glyph-name="umacron" unicode="&#x16b;" horiz-adv-x="496" 
d="M141 631q-11 0 -18 7.5t-7 17.5q0 12 7 19t18 7h215q9 0 17 -7t8 -19q0 -10 -8 -17.5t-17 -7.5h-215zM249 -7q-53 0 -96 26t-69 69.5t-26 92.5v267q0 9 10 17t23 8t22.5 -8t9.5 -17v-267q0 -33 17 -62t45 -47.5t63 -18.5q36 0 64 18t44.5 47.5t16.5 62.5v268q0 10 10 17
t23 7q15 0 23.5 -7t8.5 -17v-268q0 -51 -25.5 -93.5t-69 -68.5t-94.5 -26z" />
    <glyph glyph-name="Ubreve" unicode="&#x16c;" horiz-adv-x="563" 
d="M282 851q-41 0 -74 28t-41 68q-2 10 3.5 15.5t14.5 5.5h7q8 0 12.5 -5t6.5 -13q6 -27 26 -45t45 -18t45 18t25 45q2 8 6.5 13t12.5 5h7q9 0 14.5 -6t4.5 -15q-9 -40 -42 -68t-73 -28zM281 -6q-59 0 -106 21t-75 68t-28 125v499q0 12 10 18t23 6t23 -6t10 -18v-499
q0 -79 38 -116t105 -37q68 0 106 37t38 116v499q0 12 10 18t23 6t23 -6t10 -18v-499q0 -78 -27.5 -125t-75.5 -68t-107 -21z" />
    <glyph glyph-name="ubreve" unicode="&#x16d;" horiz-adv-x="496" 
d="M249 593q-41 0 -74 28t-41 68q-2 10 3.5 15.5t14.5 5.5h7q8 0 12.5 -5t6.5 -13q6 -27 26 -45t45 -18t45 18t25 45q2 8 6.5 13t12.5 5h7q9 0 14.5 -6t4.5 -15q-9 -40 -42 -68t-73 -28zM249 -7q-53 0 -96 26t-69 69.5t-26 92.5v267q0 9 10 17t23 8t22.5 -8t9.5 -17v-267
q0 -33 17 -62t45 -47.5t63 -18.5q36 0 64 18t44.5 47.5t16.5 62.5v268q0 10 10 17t23 7q15 0 23.5 -7t8.5 -17v-268q0 -51 -25.5 -93.5t-69 -68.5t-94.5 -26z" />
    <glyph glyph-name="Uring" unicode="&#x16e;" horiz-adv-x="563" 
d="M282 832q-25 0 -46 13.5t-33.5 35.5t-12.5 47q0 24 12.5 45t33.5 34.5t46 13.5t46 -12.5t34 -34.5t13 -46q0 -25 -13 -47t-34 -35.5t-46 -13.5zM283 865q23 0 40.5 19.5t17.5 43.5q0 21 -17.5 39.5t-40.5 18.5q-26 0 -43 -19t-17 -39q0 -24 17.5 -43.5t42.5 -19.5z
M281 -6q-59 0 -106 21t-75 68t-28 125v499q0 12 10 18t23 6t23 -6t10 -18v-499q0 -79 38 -116t105 -37q68 0 106 37t38 116v499q0 12 10 18t23 6t23 -6t10 -18v-499q0 -78 -27.5 -125t-75.5 -68t-107 -21z" />
    <glyph glyph-name="uring" unicode="&#x16f;" horiz-adv-x="496" 
d="M248 574q-25 0 -46 13.5t-33.5 35.5t-12.5 47q0 24 12.5 45t33.5 34.5t46 13.5t46 -12.5t34 -34.5t13 -46q0 -25 -13 -47t-34 -35.5t-46 -13.5zM249 607q23 0 40.5 19.5t17.5 43.5q0 21 -17.5 39.5t-40.5 18.5q-26 0 -43 -19t-17 -39q0 -24 17.5 -43.5t42.5 -19.5z
M249 -7q-53 0 -96 26t-69 69.5t-26 92.5v267q0 9 10 17t23 8t22.5 -8t9.5 -17v-267q0 -33 17 -62t45 -47.5t63 -18.5q36 0 64 18t44.5 47.5t16.5 62.5v268q0 10 10 17t23 7q15 0 23.5 -7t8.5 -17v-268q0 -51 -25.5 -93.5t-69 -68.5t-94.5 -26z" />
    <glyph glyph-name="Uhungarumlaut" unicode="&#x170;" horiz-adv-x="563" 
d="M327 849q-9 0 -17.5 7.5t-8.5 16.5t8 14l96 69q3 2 6 3t5 1q10 0 16.5 -7.5t6.5 -16.5q0 -11 -9 -18l-91 -64q-5 -5 -12 -5zM177 849q-10 0 -18 7.5t-8 16.5t8 14l96 69q3 2 6 3t5 1q10 0 16.5 -7.5t6.5 -16.5q0 -11 -9 -18l-91 -64q-5 -5 -12 -5zM281 -6q-59 0 -106 21
t-75 68t-28 125v499q0 12 10 18t23 6t23 -6t10 -18v-499q0 -79 38 -116t105 -37q68 0 106 37t38 116v499q0 12 10 18t23 6t23 -6t10 -18v-499q0 -78 -27.5 -125t-75.5 -68t-107 -21z" />
    <glyph glyph-name="uhungarumlaut" unicode="&#x171;" horiz-adv-x="496" 
d="M293 591q-9 0 -17.5 7.5t-8.5 16.5t8 14l96 69q3 2 6 3t5 1q10 0 16.5 -7.5t6.5 -16.5q0 -11 -9 -18l-91 -64q-5 -5 -12 -5zM143 591q-10 0 -18 7.5t-8 16.5t8 14l96 69q3 2 6 3t5 1q10 0 16.5 -7.5t6.5 -16.5q0 -11 -9 -18l-91 -64q-5 -5 -12 -5zM249 -7q-53 0 -96 26
t-69 69.5t-26 92.5v267q0 9 10 17t23 8t22.5 -8t9.5 -17v-267q0 -33 17 -62t45 -47.5t63 -18.5q36 0 64 18t44.5 47.5t16.5 62.5v268q0 10 10 17t23 7q15 0 23.5 -7t8.5 -17v-268q0 -51 -25.5 -93.5t-69 -68.5t-94.5 -26z" />
    <glyph glyph-name="Uogonek" unicode="&#x172;" horiz-adv-x="563" 
d="M338 -201q-25 0 -47 7.5t-36 24t-14 43.5q0 43 22.5 80t58.5 67l33 -17q-31 -27 -52.5 -58t-21.5 -67q0 -24 16.5 -34t45.5 -10q9 0 14.5 -5t5.5 -14q0 -8 -5.5 -12.5t-19.5 -4.5zM281 -6q-59 0 -106 21t-75 68t-28 125v499q0 12 10 18t23 6t23 -6t10 -18v-499
q0 -79 38 -116t105 -37q68 0 106 37t38 116v499q0 12 10 18t23 6t23 -6t10 -18v-499q0 -78 -27.5 -125t-75.5 -68t-107 -21z" />
    <glyph glyph-name="uogonek" unicode="&#x173;" horiz-adv-x="496" 
d="M292 -201q-25 0 -47 7.5t-36 24t-14 43.5q0 43 22.5 80t58.5 67l33 -17q-31 -27 -52.5 -58t-21.5 -67q0 -24 16.5 -34t45.5 -10q9 0 14.5 -5t5.5 -14q0 -8 -5.5 -12.5t-19.5 -4.5zM249 -7q-53 0 -96 26t-69 69.5t-26 92.5v267q0 9 10 17t23 8t22.5 -8t9.5 -17v-267
q0 -33 17 -62t45 -47.5t63 -18.5q36 0 64 18t44.5 47.5t16.5 62.5v268q0 10 10 17t23 7q15 0 23.5 -7t8.5 -17v-268q0 -51 -25.5 -93.5t-69 -68.5t-94.5 -26z" />
    <glyph glyph-name="Wcircumflex" unicode="&#x174;" horiz-adv-x="784" 
d="M280 846q-8 0 -14.5 8t-6.5 18q0 6 3.5 12t9.5 10l104 56q9 5 17 5q9 0 17 -5l104 -56q7 -3 10 -9.5t3 -13.5q0 -10 -6 -17t-14 -7q-2 0 -5 1t-5 2l-104 55l-104 -56q-2 -1 -4.5 -2t-4.5 -1zM258 -6q-13 0 -24 6t-15 18l-197 678q-2 4 -2 8q0 8 6 14.5t15 9.5t17 3
q9 0 17 -4t10 -13l173 -614l99 373q4 13 14 18t22 5t21 -5t12 -18l101 -373l172 614q3 9 10.5 13t16.5 4q10 0 18 -3t14 -9.5t6 -14.5q0 -4 -1 -8l-196 -678q-4 -12 -15 -18t-25 -6q-13 0 -24.5 6t-14.5 18l-95 353l-95 -353q-3 -12 -14.5 -18t-25.5 -6z" />
    <glyph glyph-name="wcircumflex" unicode="&#x175;" horiz-adv-x="666" 
d="M220 588q-8 0 -14.5 8t-6.5 18q0 6 3.5 12t9.5 10l104 56q9 5 17 5q9 0 17 -5l104 -56q7 -3 10 -9.5t3 -13.5q0 -10 -6 -17t-14 -7q-2 0 -5 1t-5 2l-104 55l-104 -56q-2 -1 -4.5 -2t-4.5 -1zM202 -8q-10 0 -16.5 4.5t-10.5 15.5l-156 419l-2.5 7.5t-1.5 7.5q0 8 6 14.5
t15 10.5t18 4q7 0 14 -4t9 -11l128 -356l103 325q3 9 9.5 13t16.5 4q9 0 16 -4t10 -13l99 -329l131 360q4 15 22 15q9 0 18 -3.5t15 -10t6 -15.5q0 -3 -1.5 -8t-2.5 -7l-156 -423q-3 -9 -10.5 -12.5t-15.5 -3.5q-10 0 -16.5 4t-10.5 11l-104 325l-103 -320q-3 -10 -11 -15
t-18 -5z" />
    <glyph glyph-name="Ycircumflex" unicode="&#x176;" horiz-adv-x="529" 
d="M152 846q-8 0 -14.5 8t-6.5 18q0 6 3.5 12t9.5 10l104 56q9 5 17 5q9 0 17 -5l104 -56q7 -3 10 -9.5t3 -13.5q0 -10 -6 -17t-14 -7q-2 0 -5 1t-5 2l-104 55l-104 -56q-2 -1 -4.5 -2t-4.5 -1zM264 0q-12 0 -22.5 6.5t-10.5 19.5v254q0 5 -1 8l-207 397q-3 6 -4 10.5
t-1 7.5q0 9 5.5 15t14 9.5t16.5 3.5t14.5 -5t11.5 -15l184 -365l185 365q6 10 12.5 15t13.5 5q9 0 17 -3.5t13.5 -9.5t5.5 -15q0 -3 -1 -7.5t-3 -10.5l-208 -397q-2 -3 -2 -8v-254q0 -13 -10 -19.5t-23 -6.5z" />
    <glyph glyph-name="ycircumflex" unicode="&#x177;" horiz-adv-x="420" 
d="M98 588q-8 0 -14.5 8t-6.5 18q0 6 3.5 12t9.5 10l104 56q9 5 17 5q9 0 17 -5l104 -56q7 -3 10 -9.5t3 -13.5q0 -10 -6 -17t-14 -7q-2 0 -5 1t-5 2l-104 55l-104 -56q-2 -1 -4.5 -2t-4.5 -1zM45 -232q-13 0 -21.5 6.5t-8.5 22.5q0 12 4.5 21t15.5 9q24 0 46 15t41 42.5
t34 62t24 73.5l-163 419q-3 5 -3 9q0 9 6.5 16t16 11t17.5 4t14.5 -3.5t8.5 -10.5l137 -368l129 368q3 7 9 10.5t13 3.5q8 0 17.5 -4t16 -11t6.5 -17q0 -5 -2 -8l-155 -420q-15 -40 -32 -84t-39.5 -81.5t-54.5 -61.5t-77 -24z" />
    <glyph glyph-name="Ydieresis" unicode="&#x178;" horiz-adv-x="529" 
d="M327 847q-15 0 -26 11t-11 26q0 16 11 26t26 10q16 0 26 -10t10 -26q0 -15 -10 -26t-26 -11zM204 847q-16 0 -26.5 11t-10.5 26q0 16 10.5 26t26.5 10q15 0 25.5 -10t10.5 -26q0 -15 -10.5 -26t-25.5 -11zM264 0q-12 0 -22.5 6.5t-10.5 19.5v254q0 5 -1 8l-207 397
q-3 6 -4 10.5t-1 7.5q0 9 5.5 15t14 9.5t16.5 3.5t14.5 -5t11.5 -15l184 -365l185 365q6 10 12.5 15t13.5 5q9 0 17 -3.5t13.5 -9.5t5.5 -15q0 -3 -1 -7.5t-3 -10.5l-208 -397q-2 -3 -2 -8v-254q0 -13 -10 -19.5t-23 -6.5z" />
    <glyph glyph-name="Zacute" unicode="&#x179;" horiz-adv-x="482" 
d="M190 845q-10 0 -18 9t-8 19q0 13 11 18l112 61q5 3 8 3q11 0 17.5 -9t6.5 -19q0 -15 -12 -22l-107 -57q-2 -1 -5 -2t-5 -1zM47 0q-11 0 -17.5 6.5t-6.5 16.5q0 11 6 23l333 624h-302q-12 0 -18.5 9.5t-6.5 21.5q0 11 6 20.5t19 9.5h363q13 0 19 -6t6 -15q0 -12 -8 -26
l-332 -623h327q13 0 19 -9.5t6 -20.5q0 -12 -6 -21.5t-19 -9.5h-388z" />
    <glyph glyph-name="zacute" unicode="&#x17a;" horiz-adv-x="401" 
d="M158 587q-10 0 -18 9t-8 19q0 13 11 18l112 61q5 3 8 3q11 0 17.5 -9t6.5 -19q0 -15 -12 -22l-107 -57q-2 -1 -5 -2t-5 -1zM50 0q-12 0 -19 8t-7 18q0 6 3 13t7 12l244 365h-220q-10 0 -17.5 8t-7.5 20t7.5 20.5t17.5 8.5h282q11 0 18.5 -7t7.5 -19t-9 -24l-245 -365h241
q11 0 18 -8.5t7 -21.5q0 -11 -7 -19.5t-18 -8.5h-303z" />
    <glyph glyph-name="Zdotaccent" unicode="&#x17b;" horiz-adv-x="482" 
d="M237 848q-17 0 -28.5 12t-11.5 28t11.5 27.5t28.5 11.5q16 0 27.5 -11.5t11.5 -27.5t-11.5 -28t-27.5 -12zM47 0q-11 0 -17.5 6.5t-6.5 16.5q0 11 6 23l333 624h-302q-12 0 -18.5 9.5t-6.5 21.5q0 11 6 20.5t19 9.5h363q13 0 19 -6t6 -15q0 -12 -8 -26l-332 -623h327
q13 0 19 -9.5t6 -20.5q0 -12 -6 -21.5t-19 -9.5h-388z" />
    <glyph glyph-name="zdotaccent" unicode="&#x17c;" horiz-adv-x="401" 
d="M204 590q-17 0 -28.5 12t-11.5 28t11.5 27.5t28.5 11.5q16 0 27.5 -11.5t11.5 -27.5t-11.5 -28t-27.5 -12zM50 0q-12 0 -19 8t-7 18q0 6 3 13t7 12l244 365h-220q-10 0 -17.5 8t-7.5 20t7.5 20.5t17.5 8.5h282q11 0 18.5 -7t7.5 -19t-9 -24l-245 -365h241q11 0 18 -8.5
t7 -21.5q0 -11 -7 -19.5t-18 -8.5h-303z" />
    <glyph glyph-name="Zcaron" unicode="&#x17d;" horiz-adv-x="482" 
d="M234 840q-11 0 -20 10l-101 90q-7 5 -10 10.5t-3 12.5q0 8 5.5 15t13.5 7t15 -6l100 -92l99 92q7 6 15 6q9 0 14 -7t5 -15q0 -7 -3 -12.5t-9 -10.5l-101 -90q-11 -10 -20 -10zM47 0q-11 0 -17.5 6.5t-6.5 16.5q0 11 6 23l333 624h-302q-12 0 -18.5 9.5t-6.5 21.5
q0 11 6 20.5t19 9.5h363q13 0 19 -6t6 -15q0 -12 -8 -26l-332 -623h327q13 0 19 -9.5t6 -20.5q0 -12 -6 -21.5t-19 -9.5h-388z" />
    <glyph glyph-name="zcaron" unicode="&#x17e;" horiz-adv-x="401" 
d="M201 582q-11 0 -20 10l-101 90q-7 5 -10 10.5t-3 12.5q0 8 5.5 15t13.5 7t15 -6l100 -92l99 92q7 6 15 6q9 0 14 -7t5 -15q0 -7 -3 -12.5t-9 -10.5l-101 -90q-11 -10 -20 -10zM50 0q-12 0 -19 8t-7 18q0 6 3 13t7 12l244 365h-220q-10 0 -17.5 8t-7.5 20t7.5 20.5
t17.5 8.5h282q11 0 18.5 -7t7.5 -19t-9 -24l-245 -365h241q11 0 18 -8.5t7 -21.5q0 -11 -7 -19.5t-18 -8.5h-303z" />
    <glyph glyph-name="longs" unicode="&#x17f;" horiz-adv-x="326" 
d="M261 692q-46 0 -67 -28.5t-21 -86.5v-577h-88v577q0 188 177 188q49 0 100 -19l-23 -69q-44 15 -78 15z" />
    <glyph glyph-name="uni0180" unicode="&#x180;" horiz-adv-x="615" 
d="M339 545q106 0 163.5 -73t57.5 -204q0 -133 -58.5 -205.5t-162.5 -72.5q-54 0 -96.5 19.5t-69.5 58.5h-7q-15 -59 -18 -68h-63v605h-76v66h76v89h88v-89h213v-66h-213v-30q0 -55 -5 -110h5q54 80 166 80zM324 472q-81 0 -116 -46t-35 -155v-4q0 -110 36 -157t117 -47
q72 0 107.5 53t35.5 153q0 102 -35.5 152.5t-109.5 50.5z" />
    <glyph glyph-name="uni0181" unicode="&#x181;" horiz-adv-x="729" 
d="M151 637q-61 0 -61 -50q0 -30 10 -54h-79q-4 10 -7.5 26.5t-3.5 28.5q0 65 34.5 95.5t106.5 30.5h230q144 0 207.5 -43t63.5 -134q0 -63 -34.5 -104.5t-101.5 -53.5v-5q82 -14 121 -57t39 -114q0 -96 -66 -149.5t-182 -53.5h-251v637h-26zM267 410h132q84 0 122 27t38 90
q0 59 -41.5 84.5t-132.5 25.5h-118v-227zM267 335v-259h144q86 0 127.5 33.5t41.5 100.5q0 64 -44 94.5t-132 30.5h-137z" />
    <glyph glyph-name="uni0182" unicode="&#x182;" horiz-adv-x="615" 
d="M564 209q0 -105 -63.5 -157t-194.5 -52h-209v714h424v-79h-334v-223h106q137 0 204 -48.5t67 -154.5zM187 77h110q92 0 133 31t41 101q0 68 -43 96.5t-146 28.5h-95v-257z" />
    <glyph glyph-name="uni0183" unicode="&#x183;" horiz-adv-x="615" 
d="M339 545q106 0 163.5 -73t57.5 -204q0 -133 -58.5 -205.5t-162.5 -72.5q-54 0 -96.5 19.5t-69.5 58.5h-7q-15 -59 -18 -68h-63v760h421v-74h-333v-111q0 -55 -5 -110h5q54 80 166 80zM324 472q-81 0 -116 -46t-35 -155v-4q0 -110 36 -157t117 -47q72 0 107.5 53t35.5 153
q0 102 -35.5 152.5t-109.5 50.5z" />
    <glyph glyph-name="uni0184" unicode="&#x184;" horiz-adv-x="634" 
d="M180 210q0 -77 37.5 -110t122.5 -33q80 0 115.5 35.5t35.5 102.5q0 69 -48 99t-140 30h-123v-124zM90 714h90v-302h134q129 0 199.5 -53t70.5 -154t-63.5 -158t-179.5 -57q-251 0 -251 220v504z" />
    <glyph glyph-name="uni0185" unicode="&#x185;" horiz-adv-x="611" 
d="M322 -10q-115 0 -177.5 72.5t-62.5 204.5v493h88v-185q0 -55 -5 -110h5q54 80 166 80q106 0 163.5 -73t57.5 -204q0 -134 -61 -206t-174 -72zM170 265q0 -96 40.5 -149t112.5 -53t107.5 53t35.5 153q0 102 -35.5 152.5t-109.5 50.5q-81 0 -116 -46t-35 -155v-6z" />
    <glyph glyph-name="uni0186" unicode="&#x186;" horiz-adv-x="631" 
d="M243 724q158 0 243 -96t85 -272q0 -110 -39.5 -192.5t-114.5 -128t-174 -45.5q-55 0 -98 6.5t-86 22.5v78q94 -28 170 -28q115 0 181 77t66 211q0 137 -63.5 212.5t-183.5 75.5q-77 0 -162 -39l-36 76q84 42 212 42z" />
    <glyph glyph-name="uni0187" unicode="&#x187;" horiz-adv-x="631" 
d="M403 645q-115 0 -181 -77t-66 -211q0 -138 64 -213t182 -75q76 0 171 28v-78q-45 -17 -87 -23t-97 -6q-158 0 -243 96t-85 272q0 110 41 193t118.5 128t183.5 45q61 0 117 -14v14q0 64 27 99t88 35q30 0 60 -13v-72q-24 10 -52 10q-47 0 -47 -48v-51l-36 -78
q-33 15 -71.5 27t-86.5 12z" />
    <glyph glyph-name="uni0188" unicode="&#x188;" horiz-adv-x="502" 
d="M300 -10q-116 0 -180.5 71t-64.5 204q0 135 65.5 208t185.5 73q27 0 65 -6v91q0 64 26.5 99t88.5 35q29 0 60 -13v-73q-23 10 -52 10q-47 0 -47 -48v-124l-27 -73q-68 25 -116 25q-81 0 -119.5 -51t-38.5 -152q0 -97 38.5 -148.5t114.5 -51.5q71 0 139 31v-78
q-55 -29 -138 -29z" />
    <glyph glyph-name="uni0189" unicode="&#x189;" horiz-adv-x="729" 
d="M115 0q-13 0 -21.5 7t-8.5 18v332h-63q-10 0 -16 8t-6 19t6 19t16 8h63v296q0 10 8.5 17t21.5 7h177q59 0 106.5 -21t75 -68t27.5 -124v-304q0 -78 -27.5 -125t-75 -68t-106.5 -21h-177zM151 61h141q67 0 105 37t38 116v304q0 78 -38 115t-105 37h-141v-259h114
q10 0 16.5 -8t6.5 -19t-6.5 -19t-16.5 -8h-114v-296z" />
    <glyph glyph-name="uni018A" unicode="&#x18a;" horiz-adv-x="810" 
d="M654 361q0 136 -67 206t-203 70h-117v-560h97q290 0 290 284zM397 714q168 0 260 -92.5t92 -257.5q0 -177 -96.5 -270.5t-276.5 -93.5h-199v637h-26q-61 0 -61 -50q0 -30 10 -54h-79q-4 10 -7.5 26.5t-3.5 28.5q0 65 34.5 95.5t106.5 30.5h246z" />
    <glyph glyph-name="uni018B" unicode="&#x18b;" horiz-adv-x="615" 
d="M428 335h-82q-106 0 -154 -32t-48 -101q0 -63 44 -94t139 -31h101v258zM518 714v-714h-199q-268 0 -268 198q0 103 73.5 158.5t211.5 55.5h92v223h-334v79h424z" />
    <glyph glyph-name="uni018C" unicode="&#x18c;" horiz-adv-x="615" 
d="M289 63q80 0 117 43.5t37 143.5v16q0 112 -37.5 159.5t-117.5 47.5q-68 0 -105 -54t-37 -154t37 -151t106 -51zM530 0h-71l-13 72h-4q-56 -82 -167 -82q-104 0 -162 72.5t-58 204.5q0 131 58 205t163 74q108 0 166 -79h6q-1 10 -3.5 39.5t-2.5 39.5v140h-333v74h421v-760
z" />
    <glyph glyph-name="uni018D" unicode="&#x18d;" horiz-adv-x="604" 
d="M341 294q66 -38 95 -77t29 -87q0 -64 -48 -102t-132 -38q-51 0 -97 11.5t-109 42.5l38 69q37 -21 79 -36t93 -15q40 0 63.5 18.5t23.5 50.5q0 34 -26.5 60t-107.5 70q-104 57 -146 117t-42 136q0 115 66 180.5t184 65.5q112 0 179 -60.5t67 -163.5q0 -87 -54 -149.5
t-155 -92.5zM145 515q0 -62 30 -105.5t96 -77.5q92 22 139.5 74t47.5 131q0 67 -41.5 108.5t-112.5 41.5q-77 0 -118 -44.5t-41 -127.5z" />
    <glyph glyph-name="uni018E" unicode="&#x18e;" horiz-adv-x="556" 
d="M60 79h309v255h-291v78h291v223h-309v79h399v-714h-399v79z" />
    <glyph glyph-name="uni018F" unicode="&#x18f;" horiz-adv-x="738" 
d="M332 646q-110 0 -228 -41v82q61 21 114 29.5t116 8.5q162 0 252.5 -97.5t90.5 -271.5q0 -171 -85 -268.5t-237 -97.5q-147 0 -221.5 92t-74.5 275v34h523q-8 126 -71 190.5t-179 64.5zM355 69q100 0 159.5 63.5t67.5 179.5h-427q0 -125 49 -184t151 -59z" />
    <glyph glyph-name="uni0190" unicode="&#x190;" horiz-adv-x="587" 
d="M87 547q0 82 60.5 129.5t166.5 47.5q64 0 124 -18.5t109 -55.5l-43 -61q-52 36 -94 48.5t-94 12.5q-63 0 -99.5 -30.5t-36.5 -81.5q0 -60 48 -95.5t145 -35.5h97v-75h-102q-110 0 -165 -33t-55 -97q0 -67 48.5 -102.5t139.5 -35.5q105 0 214 52v-82q-90 -44 -219 -44
q-135 0 -206 52t-71 153q0 76 46.5 121t137.5 57v4q-72 12 -111.5 56.5t-39.5 113.5z" />
    <glyph glyph-name="uni0191" unicode="&#x191;" horiz-adv-x="519" 
d="M45 -240q-32 0 -56 13v76q21 -10 45 -10q35 0 49 20t14 62v793h399v-79h-309v-253h290v-79h-290v-386q0 -157 -142 -157z" />
    <glyph glyph-name="florin" unicode="&#x192;" horiz-adv-x="352" 
d="M-44 -137q-10 0 -16.5 9t-6.5 20q0 14 8.5 23.5t19.5 9.5h21q22 0 37 19.5t24.5 50t14.5 65.5l73 523q7 50 37.5 92t76 67.5t94.5 25.5h20q10 0 16 -8t6 -20q0 -14 -8 -23t-19 -9h-19q-35 0 -65 -17.5t-49.5 -46t-24.5 -61.5l-24 -167h144q10 0 15.5 -8t5.5 -17
q0 -11 -7 -20t-18 -9h-148l-42 -302q-7 -51 -23.5 -96t-46 -73t-74.5 -28h-22z" />
    <glyph glyph-name="uni0193" unicode="&#x193;" horiz-adv-x="728" 
d="M407 377h247v-350q-57 -18 -115.5 -27.5t-135.5 -9.5q-163 0 -252.5 97t-89.5 270q0 112 44.5 195.5t128 127.5t197.5 44q71 0 137 -17v17q0 64 27 99t88 35q29 0 60 -13v-72q-24 10 -52 10q-47 0 -47 -48v-53l-34 -78q-94 41 -184 41q-127 0 -199 -77t-72 -211
q0 -142 68.5 -215.5t200.5 -73.5q72 0 140 17v212h-157v80z" />
    <glyph glyph-name="uni0194" unicode="&#x194;" horiz-adv-x="569" 
d="M334 108q33 -65 50 -121t17 -94q0 -59 -32 -96t-84 -37q-54 0 -85 37.5t-31 95.5q0 78 67 214l-236 607h94q89 -237 136.5 -362t54.5 -167q10 51 50 158l140 371h95zM319 -105q0 26 -8.5 62t-25.5 68q-19 -38 -26.5 -72t-7.5 -56q0 -31 9.5 -45t24.5 -14q34 0 34 57z" />
    <glyph glyph-name="uni0195" unicode="&#x195;" horiz-adv-x="934" 
d="M639 63q67 0 96.5 36t29.5 113v324h88v-327q0 -114 -51 -166.5t-163 -52.5q-110 0 -162 48.5t-52 147.5v157q0 65 -26 97t-83 32q-74 0 -108.5 -45.5t-34.5 -149.5v-277h-88v760h88v-223q0 -44 -5 -75h6q24 42 66 62.5t90 20.5q91 0 137 -46.5t46 -149.5v-157
q0 -65 30.5 -97t95.5 -32z" />
    <glyph glyph-name="uni0196" unicode="&#x196;" horiz-adv-x="348" 
d="M179 714v-549q0 -48 18 -72t59 -24q21 0 44 3.5t38 7.5v-74q-13 -6 -40 -11t-55 -5q-80 0 -116.5 41.5t-36.5 125.5v557h89z" />
    <glyph glyph-name="uni0197" unicode="&#x197;" horiz-adv-x="338" 
d="M298 0h-258v52l84 19v256h-90v78h90v237l-84 20v52h258v-52l-84 -20v-237h90v-78h-90v-256l84 -19v-52z" />
    <glyph glyph-name="uni0198" unicode="&#x198;" horiz-adv-x="619" 
d="M327 405l292 -405h-106q-30 40 -121 172q-71 103 -126 170l-79 -77v-265h-90v714h90v-360q28 35 60 72q21 24 185 225q29 38 54.5 53.5t66.5 15.5q30 0 50 -8v-70q-21 3 -44 3q-17 0 -31.5 -10t-36.5 -36z" />
    <glyph glyph-name="uni0199" unicode="&#x199;" horiz-adv-x="534" 
d="M172 363l-4 -87h4l30 38l34 41l171 181h103l-217 -229l232 -307h-106l-186 250l-61 -53v-197h-87v625q0 140 121 140q33 0 65 -13v-73q-23 10 -52 10q-23 0 -35 -13t-12 -45v-268z" />
    <glyph glyph-name="uni019A" unicode="&#x19a;" horiz-adv-x="257" 
d="M173 420h70v-66h-70v-354h-88v354h-70v66h70v340h88v-340z" />
    <glyph glyph-name="uni019B" unicode="&#x19b;" horiz-adv-x="541" 
d="M-6 0l231 526l-23 64l-106 -32l-19 63l99 30q-13 22 -29.5 32t-45.5 10q-30 0 -56 -6v71q33 8 66 8q53 0 87 -21t59 -69l109 33l19 -63l-102 -32l179 -498q10 -28 21.5 -41t28.5 -13q12 0 30 5v-65q-24 -12 -57 -12q-36 0 -58 18t-38 63l-73 205q-42 119 -50 159h-4
q-16 -62 -55 -154l-122 -281h-91z" />
    <glyph glyph-name="uni019C" unicode="&#x19c;" horiz-adv-x="1029" 
d="M180 714v-506q0 -70 29 -105t92 -35q84 0 124.5 47t40.5 147v452h90v-506q0 -70 29 -105t94 -35q84 0 123.5 49.5t39.5 164.5v432h90v-714h-71l-15 82h-5q-25 -42 -74 -67t-107 -25q-68 0 -110.5 24.5t-64.5 75.5h-5q-28 -48 -79.5 -74t-113.5 -26q-103 0 -150 53
t-47 165v506h90z" />
    <glyph glyph-name="uni019D" unicode="&#x19d;" horiz-adv-x="759" 
d="M97 714h104l22 -35l235 -362l124 -194h4q-1 12 -4 84t-3 104v403h84v-714h-105l-382 593h-4l2 -40q6 -89 6 -154v-482q0 -83 -34 -120t-101 -37q-32 0 -56 13v76q21 -10 45 -10q35 0 49 20t14 62v793z" />
    <glyph glyph-name="uni019E" unicode="&#x19e;" horiz-adv-x="618" 
d="M450 -240v583q0 64 -28.5 96.5t-91.5 32.5q-83 0 -120 -46.5t-37 -147.5v-278h-88v536h71l13 -73h5q25 40 70 61.5t99 21.5q99 0 146.5 -48t47.5 -149v-589h-87z" />
    <glyph glyph-name="uni019F" unicode="&#x19f;" horiz-adv-x="782" 
d="M720 358q0 -171 -86.5 -269.5t-242.5 -98.5q-158 0 -244 96.5t-86 272.5q0 174 85.5 270t245.5 96q155 0 241.5 -97.5t86.5 -269.5zM391 68q108 0 167.5 65t65.5 192h-467q6 -127 65.5 -192t168.5 -65zM392 646q-106 0 -165.5 -61.5t-69.5 -181.5h466q-9 121 -67.5 182
t-163.5 61z" />
    <glyph glyph-name="Ohorn" unicode="&#x1a0;" horiz-adv-x="553" 
d="M302 682v49q47 0 71.5 18t24.5 50q0 13 5.5 24t18.5 11q16 0 21 -12t5 -23q0 -34 -13.5 -60.5t-45.5 -41.5t-87 -15zM276 -6q-58 0 -105 21t-74.5 68t-27.5 125v310q0 77 27.5 124t74 68t105.5 21t106 -21t75 -68t28 -124v-310q0 -78 -28 -125t-75 -68t-106 -21zM276 55
q67 0 105 37t38 116v310q0 78 -38 115t-105 37t-104 -37t-37 -115v-310q0 -79 37 -116t104 -37z" />
    <glyph glyph-name="ohorn" unicode="&#x1a1;" horiz-adv-x="469" 
d="M280 424v49q47 0 71.5 18t24.5 50q0 13 5.5 24t18.5 11q16 0 21 -12t5 -23q0 -34 -13.5 -60.5t-45.5 -41.5t-87 -15zM234 -7q-51 0 -94 26.5t-69.5 70t-26.5 93.5v109q0 50 26 92.5t69 68.5t95 26q51 0 94.5 -25.5t69.5 -67.5t26 -94v-109q0 -49 -26 -93t-69.5 -70.5
t-94.5 -26.5zM234 53q35 0 63 18.5t45 48.5t17 63v109q0 32 -16.5 61t-45 47.5t-63.5 18.5t-63 -18.5t-45 -47.5t-17 -61v-109q0 -33 17 -63t45.5 -48.5t62.5 -18.5z" />
    <glyph glyph-name="uni01A2" unicode="&#x1a2;" horiz-adv-x="1075" 
d="M688 358q0 -173 -82.5 -270.5t-230.5 -97.5q-150 0 -232 96.5t-82 272.5q0 174 82 270t233 96q142 0 224 -91q28 43 78 67t110 24q102 0 149.5 -52.5t47.5 -165.5v-507h-90v507q0 70 -29 105t-92 35q-53 0 -86.5 -15t-52.5 -46q53 -92 53 -228zM156 358q0 -142 56 -216
t163 -74t162.5 73t55.5 217q0 143 -55 215.5t-162 72.5q-108 0 -164 -73.5t-56 -214.5z" />
    <glyph glyph-name="uni01A3" unicode="&#x1a3;" horiz-adv-x="845" 
d="M526 269q0 -132 -63.5 -205.5t-173.5 -73.5q-69 0 -122.5 34t-82.5 98t-29 147q0 130 62.5 203.5t173.5 73.5q106 0 169 -72q26 37 64 54.5t80 17.5q80 0 120 -47t40 -150v-589h-87v585q0 127 -92 127q-63 0 -94 -44q35 -63 35 -159zM146 269q0 -101 36.5 -153.5
t107.5 -52.5t108 52t37 154q0 101 -37 152t-108 51q-144 0 -144 -203z" />
    <glyph glyph-name="uni01A4" unicode="&#x1a4;" horiz-adv-x="685" 
d="M267 355h72q106 0 154 34.5t48 110.5q0 69 -44.5 103t-138.5 34h-91v-282zM366 714q268 0 268 -210q0 -109 -74.5 -167.5t-210.5 -58.5h-82v-278h-90v637h-26q-61 0 -61 -50q0 -30 10 -54h-79q-4 10 -7.5 26.5t-3.5 28.5q0 65 34.5 95.5t106.5 30.5h215z" />
    <glyph glyph-name="uni01A5" unicode="&#x1a5;" horiz-adv-x="615" 
d="M207 765q33 0 65 -13v-73q-23 10 -52 10q-23 0 -35 -13t-12 -45v-80q0 -30 -4 -68l-2 -20h6q31 44 72 63.5t95 19.5q104 0 162 -72.5t58 -204.5q0 -131 -58 -205t-163 -74q-108 0 -166 78h-6l2 -20q4 -38 4 -68v-220h-88l1 865q0 140 121 140zM324 472q-80 0 -115 -45
t-36 -141v-17q0 -109 36 -157.5t117 -48.5q67 0 105 54.5t38 152.5t-38 150t-107 52z" />
    <glyph glyph-name="uni01A6" unicode="&#x1a6;" horiz-adv-x="622" 
d="M187 271h107q87 0 127 34t40 102q0 67 -40.5 98t-131.5 31h-102v-265zM187 195v-195h-90v714h90v-100h107q133 0 196.5 -50.5t63.5 -152.5q0 -142 -143 -191l196 -320h-105l-173 295h-142z" />
    <glyph glyph-name="uni01A7" unicode="&#x1a7;" horiz-adv-x="548" 
d="M47 191q0 48 20 84t61 63.5t124 58.5q68 25 98.5 44t44 42t13.5 58q0 49 -36 76.5t-99 27.5q-72 0 -154 -38l-28 77q85 40 180 40q102 0 165 -49.5t63 -132.5q0 -76 -41.5 -125.5t-142.5 -86.5q-78 -28 -113 -48t-50 -43t-15 -56q0 -54 40.5 -84.5t120.5 -30.5
q91 0 200 47v-86q-34 -17 -85 -28t-111 -11q-120 0 -187.5 54t-67.5 147z" />
    <glyph glyph-name="uni01A8" unicode="&#x1a8;" horiz-adv-x="479" 
d="M45 148q0 37 15 64t46.5 48.5t99.5 46.5q88 34 113 53t25 49t-28 47.5t-83 17.5q-50 0 -132 -34l-30 70q81 36 156 36q98 0 149.5 -36.5t51.5 -105.5q0 -37 -14.5 -63t-45 -47t-106.5 -50q-53 -20 -81 -35.5t-39.5 -31t-11.5 -37.5q0 -39 32 -59t95 -20q84 0 170 43v-80
q-62 -34 -168 -34q-214 0 -214 158z" />
    <glyph glyph-name="uni01A9" unicode="&#x1a9;" horiz-adv-x="569" 
d="M36 0v74l234 299l-228 266v75h475v-80h-325l-47 1l225 -261l-235 -296l163 1h248v-79h-510z" />
    <glyph glyph-name="uni01AA" unicode="&#x1aa;" horiz-adv-x="309" 
d="M67 542q-60 0 -91.5 29.5t-31.5 82.5q0 54 32.5 82.5t92.5 28.5q63 0 96.5 -36t33.5 -105v-696q0 -49 18 -72.5t59 -23.5q19 0 43.5 3t38.5 8v-67q-15 -7 -41.5 -11.5t-52.5 -4.5q-80 0 -116 41t-36 126v615h-45zM63 693q-21 0 -30 -12t-9 -27q0 -40 49 -40h39v13
q0 35 -12.5 50.5t-36.5 15.5z" />
    <glyph glyph-name="uni01AB" unicode="&#x1ab;" horiz-adv-x="360" 
d="M222 -240q-29 0 -60 12v73q22 -9 50 -9q48 0 48 52v102h-11q-157 0 -157 166v312h-76v42l77 35l35 114h52v-123h155v-68h-155v-310q0 -46 22.5 -71t61.5 -25q17 0 40 3.5t35 7.5v-180q0 -133 -117 -133z" />
    <glyph glyph-name="uni01AC" unicode="&#x1ac;" horiz-adv-x="576" 
d="M151 635q-61 0 -61 -48q0 -30 10 -54h-79q-4 10 -7.5 26.5t-3.5 28.5q0 65 34.5 95.5t106.5 30.5h414v-79h-222v-635h-90v635h-102z" />
    <glyph glyph-name="uni01AD" unicode="&#x1ad;" horiz-adv-x="360" 
d="M180 536h155v-68h-155v-310q0 -46 22.5 -71t61.5 -25q17 0 40 3.5t35 7.5v-67q-12 -5 -38 -10.5t-52 -5.5q-157 0 -157 166v312h-76v42l77 35v66q0 154 147 154q39 0 77 -13v-73q-11 4 -34.5 7t-42.5 3q-32 0 -46 -17t-14 -51v-85z" />
    <glyph glyph-name="uni01AE" unicode="&#x1ae;" horiz-adv-x="556" 
d="M233 635h-223v79h535v-79h-222v-714q0 -42 14.5 -62t48.5 -20q24 0 45 10v-76q-24 -13 -63 -13q-68 0 -101.5 37t-33.5 120v718z" />
    <glyph glyph-name="Uhorn" unicode="&#x1af;" horiz-adv-x="563" 
d="M457 682v49q47 0 71.5 18t24.5 50q0 13 5.5 24t18.5 11q16 0 21 -12t5 -23q0 -34 -13.5 -60.5t-45.5 -41.5t-87 -15zM281 -6q-59 0 -106 21t-75 68t-28 125v499q0 12 10 18t23 6t23 -6t10 -18v-499q0 -79 38 -116t105 -37q68 0 106 37t38 116v499q0 12 10 18t23 6t23 -6
t10 -18v-499q0 -78 -27.5 -125t-75.5 -68t-107 -21z" />
    <glyph glyph-name="uhorn" unicode="&#x1b0;" horiz-adv-x="496" 
d="M404 424v49q47 0 71.5 18t24.5 50q0 13 5.5 24t18.5 11q16 0 21 -12t5 -23q0 -34 -13.5 -60.5t-45.5 -41.5t-87 -15zM249 -7q-53 0 -96 26t-69 69.5t-26 92.5v267q0 9 10 17t23 8t22.5 -8t9.5 -17v-267q0 -33 17 -62t45 -47.5t63 -18.5q36 0 64 18t44.5 47.5t16.5 62.5
v268q0 10 10 17t23 7q15 0 23.5 -7t8.5 -17v-268q0 -51 -25.5 -93.5t-69 -68.5t-94.5 -26z" />
    <glyph glyph-name="uni01B1" unicode="&#x1b1;" horiz-adv-x="782" 
d="M391 68q114 0 173 62t59 183q0 110 -40.5 189t-126.5 140v72h288v-79h-178q74 -57 113 -141t39 -184q0 -150 -87 -235.5t-240 -85.5q-155 0 -241.5 85t-86.5 235q0 100 39 185t112 141h-177v79h288v-72q-87 -62 -127.5 -142t-40.5 -187q0 -120 59.5 -182.5t174.5 -62.5z
" />
    <glyph glyph-name="uni01B2" unicode="&#x1b2;" horiz-adv-x="600" 
d="M571 580q0 -53 -45 -157l-181 -423h-90l-255 714h94l162 -466q31 -88 45 -156q8 30 27 73q21 50 32 81l85 203q36 88 36 125q0 39 -16 55t-47 16q-24 0 -45 -10v76q22 13 63 13q135 0 135 -144z" />
    <glyph glyph-name="uni01B3" unicode="&#x1b3;" horiz-adv-x="565" 
d="M39 649q-21 0 -39 -8v73q28 11 60 11q37 0 59.5 -17.5t40.5 -57.5l128 -287l181 351h97l-233 -437v-277h-90v273l-162 341q-18 35 -42 35z" />
    <glyph glyph-name="uni01B4" unicode="&#x1b4;" horiz-adv-x="541" 
d="M485 546q33 0 57 -12v-65q-18 5 -30 5q-18 0 -28.5 -13t-21.5 -41l-183 -494q-32 -87 -79 -126.5t-116 -39.5q-37 0 -73 8v70q24 -6 59 -6q85 0 121 95l26 71l-216 538h94l116 -305q37 -100 45 -146h4q8 36 48 147l76 217q19 54 41 75.5t60 21.5z" />
    <glyph glyph-name="uni01B5" unicode="&#x1b5;" horiz-adv-x="571" 
d="M79 407h184l151 227h-364v80h473v-68l-159 -239h122v-71h-169l-170 -256h386v-80h-495v68l178 268h-137v71z" />
    <glyph glyph-name="uni01B6" unicode="&#x1b6;" horiz-adv-x="470" 
d="M57 313h161l109 155h-271v68h368v-66l-111 -157h101v-70h-151l-123 -175h291v-68h-392v58l130 185h-112v70z" />
    <glyph glyph-name="uni01B7" unicode="&#x1b7;" horiz-adv-x="583" 
d="M291 440q68 -2 122.5 -30t85 -76.5t30.5 -112.5q0 -109 -76 -170t-212 -61q-126 0 -206 39v82q49 -23 104 -35t103 -12q97 0 145 41t48 117q0 69 -49.5 107t-143.5 38h-62v65l206 202h-331v80h444v-71z" />
    <glyph glyph-name="uni01B8" unicode="&#x1b8;" horiz-adv-x="583" 
d="M85 643v71h444v-80h-330l205 -202v-65h-78q-84 0 -130.5 -40.5t-46.5 -113.5q0 -71 49.5 -110t143.5 -39q49 0 103.5 11.5t103.5 35.5v-82q-45 -21 -98.5 -30t-119.5 -9q-87 0 -149 27t-94.5 77t-32.5 117q0 68 30 119t84.5 79.5t123.5 30.5z" />
    <glyph glyph-name="uni01B9" unicode="&#x1b9;" horiz-adv-x="498" 
d="M61 472v64h409v-74h-306l219 -243v-61h-59q-101 0 -151.5 -42.5t-50.5 -124.5q0 -71 47 -114.5t126 -43.5q100 0 189 42v-80q-68 -35 -196 -35q-113 0 -183.5 63t-70.5 166q0 105 64.5 168t181.5 71z" />
    <glyph glyph-name="uni01BA" unicode="&#x1ba;" horiz-adv-x="498" 
d="M216 -167q84 0 160 36v-80q-60 -29 -161 -29q-90 0 -138.5 31t-48.5 88q0 62 46.5 91.5t137.5 29.5q80 0 114.5 27.5t34.5 94.5q0 60 -44.5 88t-142.5 28h-59v61l183 163h-270v74h394v-64l-187 -164q104 -5 159 -51.5t55 -133.5q0 -95 -59.5 -145.5t-175.5 -50.5
q-53 0 -78 -10.5t-25 -37.5q0 -21 26.5 -33.5t78.5 -12.5z" />
    <glyph glyph-name="uni01BB" unicode="&#x1bb;" horiz-adv-x="569" 
d="M78 419h241q27 44 39 82t12 81q0 50 -29.5 78t-82.5 28q-45 0 -81.5 -16.5t-73.5 -49.5l-47 59q93 84 204 84q94 0 147.5 -48.5t53.5 -132.5q0 -42 -10.5 -81.5t-35.5 -83.5h100v-70h-144q-11 -16 -23.5 -32.5t-201.5 -242.5v-4h374v-70h-472v73l175 215l47 61h-192v70z
" />
    <glyph glyph-name="uni01BC" unicode="&#x1bc;" horiz-adv-x="583" 
d="M224 634v-193h42q77 0 137 -27t93 -76.5t33 -116.5q0 -109 -76 -170t-212 -61q-126 0 -206 39v82q49 -23 104 -35t103 -12q97 0 145 41t48 117q0 68 -47 106.5t-130 38.5h-124v267h-79v80h444v-80h-275z" />
    <glyph glyph-name="uni01BD" unicode="&#x1bd;" horiz-adv-x="490" 
d="M198 462v-117h23q107 0 165.5 -46.5t58.5 -135.5q0 -82 -60.5 -127.5t-168.5 -45.5q-118 0 -183 35v79q89 -42 182 -42q69 0 106 26.5t37 79.5t-37.5 79t-115.5 26h-95v189h-62v74h364v-74h-214z" />
    <glyph glyph-name="uni01BE" unicode="&#x1be;" horiz-adv-x="462" 
d="M136 378v90h-91v42l92 35l35 114h52v-123h155v-68h-155v-92q0 -34 10.5 -49.5t36.5 -24.5q83 -31 115 -66.5t32 -87.5q0 -75 -56 -116.5t-158 -41.5q-105 0 -168 34v80q86 -43 170 -43q66 0 96.5 21.5t30.5 57.5q0 29 -24 49.5t-90 47.5q-47 20 -65 52t-18 89z" />
    <glyph glyph-name="uni01BF" unicode="&#x1bf;" horiz-adv-x="586" 
d="M173 -240h-88v776h72l12 -73h4q55 83 158 83q96 0 152 -59t56 -164q0 -91 -45.5 -164.5t-130 -117.5t-190.5 -51v-230zM173 62q131 17 203 85.5t72 173.5q0 69 -36 110t-99 41q-73 0 -106.5 -44t-33.5 -142v-224z" />
    <glyph glyph-name="uni01C0" unicode="&#x1c0;" horiz-adv-x="516" 
d="M297 -240h-78v1000h78v-1000z" />
    <glyph glyph-name="uni01C1" unicode="&#x1c1;" horiz-adv-x="516" 
d="M169 -240h-78v1000h78v-1000zM426 -240h-78v1000h78v-1000z" />
    <glyph glyph-name="uni01C2" unicode="&#x1c2;" horiz-adv-x="516" 
d="M65 402h154v358h78v-358h154v-72h-154v-124h154v-72h-154v-374h-78v374h-154v72h154v124h-154v72z" />
    <glyph glyph-name="uni01C3" unicode="&#x1c3;" horiz-adv-x="269" 
d="M163 201h-57l-25 513h107zM72 54q0 32 16 49.5t46 17.5t46 -18t16 -49t-16.5 -49.5t-45.5 -18.5q-30 0 -46 18t-16 50z" />
    <glyph glyph-name="uni01C4" unicode="&#x1c4;" horiz-adv-x="1291" 
d="M834 751q-11 0 -20 10l-101 90q-7 5 -10 10.5t-3 12.5q0 8 5.5 15t13.5 7t15 -6l100 -92l99 92q7 6 15 6q9 0 14 -7t5 -15q0 -7 -3 -12.5t-9 -10.5l-101 -90q-11 -10 -20 -10zM106 0q-13 0 -21.5 7t-8.5 18v682q0 10 8.5 17t21.5 7h177q59 0 106.5 -21t75 -68t27.5 -124
v-304q0 -78 -27.5 -125t-75 -68t-106.5 -21h-177zM142 61h141q67 0 105 37t38 116v304q0 78 -38 115t-105 37h-141v-609zM767 0q-11 0 -17.5 6.5t-6.5 16.5q0 11 6 23l333 624h-302q-12 0 -18.5 9.5t-6.5 21.5q0 11 6 20.5t19 9.5h363q13 0 19 -6t6 -15q0 -12 -8 -26
l-332 -623h327q13 0 19 -9.5t6 -20.5q0 -12 -6 -21.5t-19 -9.5h-388z" />
    <glyph glyph-name="uni01C5" unicode="&#x1c5;" horiz-adv-x="1200" 
d="M807 586q-11 0 -20 10l-101 90q-7 5 -10 10.5t-3 12.5q0 8 5.5 15t13.5 7t15 -6l100 -92l99 92q7 6 15 6q9 0 14 -7t5 -15q0 -7 -3 -12.5t-9 -10.5l-101 -90q-11 -10 -20 -10zM106 0q-13 0 -21.5 7t-8.5 18v682q0 10 8.5 17t21.5 7h177q59 0 106.5 -21t75 -68t27.5 -124
v-304q0 -78 -27.5 -125t-75 -68t-106.5 -21h-177zM142 61h141q67 0 105 37t38 116v304q0 78 -38 115t-105 37h-141v-609zM780 0q-12 0 -19 8t-7 18q0 6 3 13t7 12l244 365h-220q-10 0 -17.5 8t-7.5 20t7.5 20.5t17.5 8.5h282q11 0 18.5 -7t7.5 -19t-9 -24l-245 -365h241
q11 0 18 -8.5t7 -21.5q0 -11 -7 -19.5t-18 -8.5h-303z" />
    <glyph glyph-name="uni01C6" unicode="&#x1c6;" horiz-adv-x="1084" 
d="M694 586q-11 0 -20 10l-101 90q-7 5 -10 10.5t-3 12.5q0 8 5.5 15t13.5 7t15 -6l100 -92l99 92q7 6 15 6q9 0 14 -7t5 -15q0 -7 -3 -12.5t-9 -10.5l-101 -90q-11 -10 -20 -10zM222 -7q-47 0 -88 26.5t-65 70.5t-24 93v109q0 52 24 94t65 67.5t90 25.5t82.5 -23.5
t49.5 -52.5v336q0 11 10 17.5t23 6.5q15 0 23.5 -6.5t8.5 -17.5v-713q0 -10 -8.5 -18t-23.5 -8q-12 0 -21 8t-9 18v44q-16 -31 -53.5 -54t-83.5 -23zM233 53q36 0 63.5 18.5t43.5 42t16 38.5v140q0 40 -18 68t-46 43.5t-58 15.5q-34 0 -62 -18.5t-45 -47.5t-17 -61v-109
q0 -33 17 -63t45 -48.5t61 -18.5zM665 0q-12 0 -19 8t-7 18q0 6 3 13t7 12l244 365h-220q-10 0 -17.5 8t-7.5 20t7.5 20.5t17.5 8.5h282q11 0 18.5 -7t7.5 -19t-9 -24l-245 -365h241q11 0 18 -8.5t7 -21.5q0 -11 -7 -19.5t-18 -8.5h-303z" />
    <glyph glyph-name="uni01C7" unicode="&#x1c7;" horiz-adv-x="796" 
d="M106 0q-11 0 -20.5 6.5t-9.5 19.5v681q0 13 10 18.5t23 5.5q12 0 22.5 -5.5t10.5 -18.5v-646h285q12 0 17 -9.5t5 -20.5q0 -12 -5 -21.5t-17 -9.5h-321zM755 -6q-64 0 -111 22.5t-73 62.5t-26 91q0 20 8.5 27t24.5 7q12 0 22.5 -6t10.5 -20q1 -37 18 -65t49 -43t75 -15
q67 0 104.5 37.5t37.5 115.5v462h-141q-11 0 -17.5 9.5t-6.5 22.5q0 10 5.5 19.5t18.5 9.5h177q11 0 20.5 -6.5t9.5 -18.5v-498q0 -78 -27.5 -125t-74 -68t-104.5 -21z" />
    <glyph glyph-name="uni01C8" unicode="&#x1c8;" horiz-adv-x="782" 
d="M106 0q-11 0 -20.5 6.5t-9.5 19.5v681q0 13 10 18.5t23 5.5q12 0 22.5 -5.5t10.5 -18.5v-646h285q12 0 17 -9.5t5 -20.5q0 -12 -5 -21.5t-17 -9.5h-321zM521 -232q-18 0 -26 9t-8 20q0 14 8.5 22t19.5 8q32 0 47.5 17t20 46.5t4.5 66.5v492q0 11 9 17.5t23 6.5t23.5 -6.5
t9.5 -17.5v-492q0 -55 -13 -98t-42 -67t-76 -24zM619 613q-18 0 -31 12.5t-13 29.5t13 29t31 12t31 -12t13 -29t-13 -29.5t-31 -12.5z" />
    <glyph glyph-name="uni01C9" unicode="&#x1c9;" horiz-adv-x="516" 
d="M103 0q-13 0 -22.5 8t-9.5 18v713q0 11 9.5 17.5t22.5 6.5q14 0 23.5 -6.5t9.5 -17.5v-713q0 -10 -9.5 -18t-23.5 -8zM255 -232q-18 0 -26 9t-8 20q0 14 8.5 22t19.5 8q32 0 47.5 17t20 46.5t4.5 66.5v492q0 11 9 17.5t23 6.5t23.5 -6.5t9.5 -17.5v-492q0 -55 -13 -98
t-42 -67t-76 -24zM353 613q-18 0 -31 12.5t-13 29.5t13 29t31 12t31 -12t13 -29t-13 -29.5t-31 -12.5z" />
    <glyph glyph-name="uni01CA" unicode="&#x1ca;" horiz-adv-x="1033" 
d="M109 0q-13 0 -23 6.5t-10 19.5v680q0 14 10 19.5t23 5.5q12 0 21 -6.5t17 -16.5t14 -23l270 -532v554q0 13 10 18.5t23 5.5q12 0 22.5 -5.5t10.5 -18.5v-681q0 -13 -10.5 -19.5t-22.5 -6.5q-14 0 -25 12t-19 26l-278 541v-553q0 -13 -10.5 -19.5t-22.5 -6.5zM991 -6
q-64 0 -111 22.5t-73 62.5t-26 91q0 20 8.5 27t24.5 7q12 0 22.5 -6t10.5 -20q1 -37 18 -65t49 -43t75 -15q67 0 104.5 37.5t37.5 115.5v462h-141q-11 0 -17.5 9.5t-6.5 22.5q0 10 5.5 19.5t18.5 9.5h177q11 0 20.5 -6.5t9.5 -18.5v-498q0 -78 -27.5 -125t-74 -68
t-104.5 -21z" />
    <glyph glyph-name="uni01CB" unicode="&#x1cb;" horiz-adv-x="1018" 
d="M109 0q-13 0 -23 6.5t-10 19.5v680q0 14 10 19.5t23 5.5q12 0 21 -6.5t17 -16.5t14 -23l270 -532v554q0 13 10 18.5t23 5.5q12 0 22.5 -5.5t10.5 -18.5v-681q0 -13 -10.5 -19.5t-22.5 -6.5q-14 0 -25 12t-19 26l-278 541v-553q0 -13 -10.5 -19.5t-22.5 -6.5zM757 -232
q-18 0 -26 9t-8 20q0 14 8.5 22t19.5 8q32 0 47.5 17t20 46.5t4.5 66.5v492q0 11 9 17.5t23 6.5t23.5 -6.5t9.5 -17.5v-492q0 -55 -13 -98t-42 -67t-76 -24zM855 613q-18 0 -31 12.5t-13 29.5t13 29t31 12t31 -12t13 -29t-13 -29.5t-31 -12.5z" />
    <glyph glyph-name="uni01CC" unicode="&#x1cc;" horiz-adv-x="875" 
d="M94 0q-13 0 -22.5 8t-9.5 18v423q0 11 9.5 17.5t22.5 6.5t22 -6.5t9 -17.5v-46q16 29 50 52.5t84 23.5q48 0 88.5 -25.5t64.5 -67.5t24 -94v-266q0 -13 -10 -19.5t-23 -6.5q-11 0 -21.5 6.5t-10.5 19.5v266q0 32 -17 61t-45 47.5t-62 18.5q-30 0 -57.5 -15.5t-45 -43.5
t-17.5 -68v-266q0 -10 -9.5 -18t-23.5 -8zM615 -232q-18 0 -26 9t-8 20q0 14 8.5 22t19.5 8q32 0 47.5 17t20 46.5t4.5 66.5v492q0 11 9 17.5t23 6.5t23.5 -6.5t9.5 -17.5v-492q0 -55 -13 -98t-42 -67t-76 -24zM713 613q-18 0 -31 12.5t-13 29.5t13 29t31 12t31 -12t13 -29
t-13 -29.5t-31 -12.5z" />
    <glyph glyph-name="uni01CD" unicode="&#x1cd;" horiz-adv-x="639" 
d="M157 764q-11 0 -20 10l-101 90q-7 5 -10 10.5t-3 12.5q0 8 5.5 15t13.5 7t15 -6l100 -92l99 92q7 6 15 6q9 0 14 -7t5 -15q0 -7 -3 -12.5t-9 -10.5l-101 -90q-11 -10 -20 -10zM58 0q-8 0 -17 3.5t-15 10t-6 14.5q0 4 1 7l209 679q4 12 15 17.5t24 5.5q14 0 25.5 -6
t14.5 -17l208 -679q1 -3 1 -6q0 -8 -6 -14.5t-15 -10.5t-19 -4q-8 0 -15 4t-9 13l-47 154h-276l-46 -154q-3 -9 -10 -13t-17 -4zM147 228h243l-121 403z" />
    <glyph glyph-name="uni01CE" unicode="&#x1ce;" horiz-adv-x="561" 
d="M119 586q-11 0 -20 10l-101 90q-7 5 -10 10.5t-3 12.5q0 8 5.5 15t13.5 7t15 -6l100 -92l99 92q7 6 15 6q9 0 14 -7t5 -15q0 -7 -3 -12.5t-9 -10.5l-101 -90q-11 -10 -20 -10zM167 -7q-56 0 -96 32.5t-40 99.5q0 55 29.5 84.5t82 41t121.5 11.5h51v24q0 32 -11.5 63.5
t-37 52t-69.5 20.5q-33 0 -54 -7t-33 -14.5t-20 -7.5q-12 0 -19 12t-7 23q0 13 20.5 24.5t52 19t62.5 7.5q67 0 106.5 -27.5t57 -71.5t17.5 -94v-260q0 -11 -8.5 -18.5t-23.5 -7.5q-12 0 -21 7.5t-9 18.5v44q-26 -29 -63 -53t-88 -24zM183 48q33 0 63 17t49.5 41.5
t19.5 46.5v64h-42q-45 0 -85.5 -5.5t-66 -23.5t-25.5 -57q0 -43 25.5 -63t61.5 -20z" />
    <glyph glyph-name="uni01CF" unicode="&#x1cf;" horiz-adv-x="338" 
d="M9 764q-11 0 -20 10l-101 90q-7 5 -10 10.5t-3 12.5q0 8 5.5 15t13.5 7t15 -6l100 -92l99 92q7 6 15 6q9 0 14 -7t5 -15q0 -7 -3 -12.5t-9 -10.5l-101 -90q-11 -10 -20 -10zM109 0q-13 0 -23 6.5t-10 19.5v681q0 12 10 18t23 6q12 0 22.5 -6t10.5 -18v-681
q0 -13 -10.5 -19.5t-22.5 -6.5z" />
    <glyph glyph-name="uni01D0" unicode="&#x1d0;" horiz-adv-x="257" 
d="M-33 586q-11 0 -20 10l-101 90q-7 5 -10 10.5t-3 12.5q0 8 5.5 15t13.5 7t15 -6l100 -92l99 92q7 6 15 6q9 0 14 -7t5 -15q0 -7 -3 -12.5t-9 -10.5l-101 -90q-11 -10 -20 -10zM94 0q-13 0 -22.5 8t-9.5 18v423q0 11 9.5 17.5t22.5 6.5q14 0 23.5 -6.5t9.5 -17.5v-423
q0 -10 -9.5 -18t-23.5 -8z" />
    <glyph glyph-name="uni01D1" unicode="&#x1d1;" horiz-adv-x="780" 
d="M228 764q-11 0 -20 10l-101 90q-7 5 -10 10.5t-3 12.5q0 8 5.5 15t13.5 7t15 -6l100 -92l99 92q7 6 15 6q9 0 14 -7t5 -15q0 -7 -3 -12.5t-9 -10.5l-101 -90q-11 -10 -20 -10zM276 -6q-58 0 -105 21t-74.5 68t-27.5 125v310q0 77 27.5 124t74 68t105.5 21t106 -21t75 -68
t28 -124v-310q0 -78 -28 -125t-75 -68t-106 -21zM276 55q67 0 105 37t38 116v310q0 78 -38 115t-105 37t-104 -37t-37 -115v-310q0 -79 37 -116t104 -37z" />
    <glyph glyph-name="uni01D2" unicode="&#x1d2;" horiz-adv-x="604" 
d="M140 586q-11 0 -20 10l-101 90q-7 5 -10 10.5t-3 12.5q0 8 5.5 15t13.5 7t15 -6l100 -92l99 92q7 6 15 6q9 0 14 -7t5 -15q0 -7 -3 -12.5t-9 -10.5l-101 -90q-11 -10 -20 -10zM234 -7q-51 0 -94 26.5t-69.5 70t-26.5 93.5v109q0 50 26 92.5t69 68.5t95 26
q51 0 94.5 -25.5t69.5 -67.5t26 -94v-109q0 -49 -26 -93t-69.5 -70.5t-94.5 -26.5zM234 53q35 0 63 18.5t45 48.5t17 63v109q0 32 -16.5 61t-45 47.5t-63.5 18.5t-63 -18.5t-45 -47.5t-17 -61v-109q0 -33 17 -63t45.5 -48.5t62.5 -18.5z" />
    <glyph glyph-name="uni01D3" unicode="&#x1d3;" horiz-adv-x="730" 
d="M203 764q-11 0 -20 10l-101 90q-7 5 -10 10.5t-3 12.5q0 8 5.5 15t13.5 7t15 -6l100 -92l99 92q7 6 15 6q9 0 14 -7t5 -15q0 -7 -3 -12.5t-9 -10.5l-101 -90q-11 -10 -20 -10zM281 -6q-59 0 -106 21t-75 68t-28 125v499q0 12 10 18t23 6t23 -6t10 -18v-499q0 -79 38 -116
t105 -37q68 0 106 37t38 116v499q0 12 10 18t23 6t23 -6t10 -18v-499q0 -78 -27.5 -125t-75.5 -68t-107 -21z" />
    <glyph glyph-name="uni01D4" unicode="&#x1d4;" horiz-adv-x="618" 
d="M147 586q-11 0 -20 10l-101 90q-7 5 -10 10.5t-3 12.5q0 8 5.5 15t13.5 7t15 -6l100 -92l99 92q7 6 15 6q9 0 14 -7t5 -15q0 -7 -3 -12.5t-9 -10.5l-101 -90q-11 -10 -20 -10zM249 -7q-53 0 -96 26t-69 69.5t-26 92.5v267q0 9 10 17t23 8t22.5 -8t9.5 -17v-267
q0 -33 17 -62t45 -47.5t63 -18.5q36 0 64 18t44.5 47.5t16.5 62.5v268q0 10 10 17t23 7q15 0 23.5 -7t8.5 -17v-268q0 -51 -25.5 -93.5t-69 -68.5t-94.5 -26z" />
    <glyph glyph-name="uni01D5" unicode="&#x1d5;" horiz-adv-x="730" 
d="M508 815q0 -23 -12.5 -36t-34.5 -13t-34.5 13t-12.5 36q0 26 14 38t33 12q20 0 33.5 -12t13.5 -38zM320 815q0 -26 -13.5 -37.5t-32.5 -11.5q-22 0 -34.5 13t-12.5 36q0 26 14 38t33 12t32.5 -12t13.5 -38zM219 1001h297v-71h-297v71zM281 -6q-59 0 -106 21t-75 68
t-28 125v499q0 12 10 18t23 6t23 -6t10 -18v-499q0 -79 38 -116t105 -37q68 0 106 37t38 116v499q0 12 10 18t23 6t23 -6t10 -18v-499q0 -78 -27.5 -125t-75.5 -68t-107 -21z" />
    <glyph glyph-name="uni01D6" unicode="&#x1d6;" horiz-adv-x="618" 
d="M447 650q0 -23 -12.5 -36t-34.5 -13t-34.5 13t-12.5 36q0 26 14 38t33 12q20 0 33.5 -12t13.5 -38zM259 650q0 -26 -13.5 -37.5t-32.5 -11.5q-22 0 -34.5 13t-12.5 36q0 26 14 38t33 12t32.5 -12t13.5 -38zM158 836h297v-71h-297v71zM249 -7q-53 0 -96 26t-69 69.5
t-26 92.5v267q0 9 10 17t23 8t22.5 -8t9.5 -17v-267q0 -33 17 -62t45 -47.5t63 -18.5q36 0 64 18t44.5 47.5t16.5 62.5v268q0 10 10 17t23 7q15 0 23.5 -7t8.5 -17v-268q0 -51 -25.5 -93.5t-69 -68.5t-94.5 -26z" />
    <glyph glyph-name="uni01D7" unicode="&#x1d7;" horiz-adv-x="730" 
d="M499 815q0 -23 -12.5 -36t-34.5 -13t-34.5 13t-12.5 36q0 26 14 38t33 12q20 0 33.5 -12t13.5 -38zM311 815q0 -26 -13.5 -37.5t-32.5 -11.5q-22 0 -34.5 13t-12.5 36q0 26 14 38t33 12t32.5 -12t13.5 -38zM305 903q73 84 96 133h105v-10q-28 -43 -142 -135h-59v12z
M281 -6q-59 0 -106 21t-75 68t-28 125v499q0 12 10 18t23 6t23 -6t10 -18v-499q0 -79 38 -116t105 -37q68 0 106 37t38 116v499q0 12 10 18t23 6t23 -6t10 -18v-499q0 -78 -27.5 -125t-75.5 -68t-107 -21z" />
    <glyph glyph-name="uni01D8" unicode="&#x1d8;" horiz-adv-x="618" 
d="M446 650q0 -23 -12.5 -36t-34.5 -13t-34.5 13t-12.5 36q0 26 14 38t33 12q20 0 33.5 -12t13.5 -38zM258 650q0 -26 -13.5 -37.5t-32.5 -11.5q-22 0 -34.5 13t-12.5 36q0 26 14 38t33 12t32.5 -12t13.5 -38zM252 738q73 84 96 133h105v-10q-28 -43 -142 -135h-59v12z
M249 -7q-53 0 -96 26t-69 69.5t-26 92.5v267q0 9 10 17t23 8t22.5 -8t9.5 -17v-267q0 -33 17 -62t45 -47.5t63 -18.5q36 0 64 18t44.5 47.5t16.5 62.5v268q0 10 10 17t23 7q15 0 23.5 -7t8.5 -17v-268q0 -51 -25.5 -93.5t-69 -68.5t-94.5 -26z" />
    <glyph glyph-name="uni01D9" unicode="&#x1d9;" horiz-adv-x="730" 
d="M504 815q0 -23 -12.5 -36t-34.5 -13t-34.5 13t-12.5 36q0 26 14 38t33 12q20 0 33.5 -12t13.5 -38zM316 815q0 -26 -13.5 -37.5t-32.5 -11.5q-22 0 -34.5 13t-12.5 36q0 26 14 38t33 12t32.5 -12t13.5 -38zM195 1046h60q26 -17 54 -36t53 -46q27 27 55 46t54 36h62v-13
l-32 -31q-73 -69 -93 -106h-90q-21 36 -92 106l-31 31v13zM281 -6q-59 0 -106 21t-75 68t-28 125v499q0 12 10 18t23 6t23 -6t10 -18v-499q0 -79 38 -116t105 -37q68 0 106 37t38 116v499q0 12 10 18t23 6t23 -6t10 -18v-499q0 -78 -27.5 -125t-75.5 -68t-107 -21z" />
    <glyph glyph-name="uni01DA" unicode="&#x1da;" horiz-adv-x="618" 
d="M444 650q0 -23 -12.5 -36t-34.5 -13t-34.5 13t-12.5 36q0 26 14 38t33 12q20 0 33.5 -12t13.5 -38zM256 650q0 -26 -13.5 -37.5t-32.5 -11.5q-22 0 -34.5 13t-12.5 36q0 26 14 38t33 12t32.5 -12t13.5 -38zM135 881h60q26 -17 54 -36t53 -46q27 27 55 46t54 36h62v-13
l-32 -31q-73 -69 -93 -106h-90q-21 36 -92 106l-31 31v13zM249 -7q-53 0 -96 26t-69 69.5t-26 92.5v267q0 9 10 17t23 8t22.5 -8t9.5 -17v-267q0 -33 17 -62t45 -47.5t63 -18.5q36 0 64 18t44.5 47.5t16.5 62.5v268q0 10 10 17t23 7q15 0 23.5 -7t8.5 -17v-268
q0 -51 -25.5 -93.5t-69 -68.5t-94.5 -26z" />
    <glyph glyph-name="uni01DB" unicode="&#x1db;" horiz-adv-x="730" 
d="M500 815q0 -23 -12.5 -36t-34.5 -13t-34.5 13t-12.5 36q0 26 14 38t33 12q20 0 33.5 -12t13.5 -38zM312 815q0 -26 -13.5 -37.5t-32.5 -11.5q-22 0 -34.5 13t-12.5 36q0 26 14 38t33 12t32.5 -12t13.5 -38zM414 891h-59q-114 91 -142 135v10h105q23 -49 96 -133v-12z
M281 -6q-59 0 -106 21t-75 68t-28 125v499q0 12 10 18t23 6t23 -6t10 -18v-499q0 -79 38 -116t105 -37q68 0 106 37t38 116v499q0 12 10 18t23 6t23 -6t10 -18v-499q0 -78 -27.5 -125t-75.5 -68t-107 -21z" />
    <glyph glyph-name="uni01DC" unicode="&#x1dc;" horiz-adv-x="618" 
d="M447 650q0 -23 -12.5 -36t-34.5 -13t-34.5 13t-12.5 36q0 26 14 38t33 12q20 0 33.5 -12t13.5 -38zM259 650q0 -26 -13.5 -37.5t-32.5 -11.5q-22 0 -34.5 13t-12.5 36q0 26 14 38t33 12t32.5 -12t13.5 -38zM361 726h-59q-114 91 -142 135v10h105q23 -49 96 -133v-12z
M249 -7q-53 0 -96 26t-69 69.5t-26 92.5v267q0 9 10 17t23 8t22.5 -8t9.5 -17v-267q0 -33 17 -62t45 -47.5t63 -18.5q36 0 64 18t44.5 47.5t16.5 62.5v268q0 10 10 17t23 7q15 0 23.5 -7t8.5 -17v-268q0 -51 -25.5 -93.5t-69 -68.5t-94.5 -26z" />
    <glyph glyph-name="uni01DD" unicode="&#x1dd;" horiz-adv-x="563" 
d="M251 546q121 0 189.5 -73t68.5 -201q0 -129 -64 -205.5t-173 -76.5q-101 0 -161 65.5t-60 176.5v53h367q-2 91 -46 138.5t-125 47.5q-43 0 -81.5 -7.5t-90.5 -29.5v77q44 19 83.5 27t92.5 8zM273 62q63 0 99.5 40.5t43.5 112.5h-273q1 -74 34.5 -113.5t95.5 -39.5z" />
    <glyph glyph-name="uni01DE" unicode="&#x1de;" horiz-adv-x="639" 
d="M460 815q0 -23 -12.5 -36t-34.5 -13t-34.5 13t-12.5 36q0 26 14 38t33 12q20 0 33.5 -12t13.5 -38zM272 815q0 -26 -13.5 -37.5t-32.5 -11.5q-22 0 -34.5 13t-12.5 36q0 26 14 38t33 12t32.5 -12t13.5 -38zM171 1001h297v-71h-297v71zM58 0q-8 0 -17 3.5t-15 10t-6 14.5
q0 4 1 7l209 679q4 12 15 17.5t24 5.5q14 0 25.5 -6t14.5 -17l208 -679q1 -3 1 -6q0 -8 -6 -14.5t-15 -10.5t-19 -4q-8 0 -15 4t-9 13l-47 154h-276l-46 -154q-3 -9 -10 -13t-17 -4zM147 228h243l-121 403z" />
    <glyph glyph-name="uni01DF" unicode="&#x1df;" horiz-adv-x="561" 
d="M426 650q0 -23 -12.5 -36t-34.5 -13t-34.5 13t-12.5 36q0 26 14 38t33 12q20 0 33.5 -12t13.5 -38zM238 650q0 -26 -13.5 -37.5t-32.5 -11.5q-22 0 -34.5 13t-12.5 36q0 26 14 38t33 12t32.5 -12t13.5 -38zM137 836h297v-71h-297v71zM167 -7q-56 0 -96 32.5t-40 99.5
q0 55 29.5 84.5t82 41t121.5 11.5h51v24q0 32 -11.5 63.5t-37 52t-69.5 20.5q-33 0 -54 -7t-33 -14.5t-20 -7.5q-12 0 -19 12t-7 23q0 13 20.5 24.5t52 19t62.5 7.5q67 0 106.5 -27.5t57 -71.5t17.5 -94v-260q0 -11 -8.5 -18.5t-23.5 -7.5q-12 0 -21 7.5t-9 18.5v44
q-26 -29 -63 -53t-88 -24zM183 48q33 0 63 17t49.5 41.5t19.5 46.5v64h-42q-45 0 -85.5 -5.5t-66 -23.5t-25.5 -57q0 -43 25.5 -63t61.5 -20z" />
    <glyph glyph-name="uni01E0" unicode="&#x1e0;" horiz-adv-x="639" 
d="M269 826q0 29 15 42.5t37 13.5q23 0 37 -15t14 -41t-14.5 -41t-36.5 -15t-37 13.5t-15 42.5zM171 1001h297v-71h-297v71zM58 0q-8 0 -17 3.5t-15 10t-6 14.5q0 4 1 7l209 679q4 12 15 17.5t24 5.5q14 0 25.5 -6t14.5 -17l208 -679q1 -3 1 -6q0 -8 -6 -14.5t-15 -10.5
t-19 -4q-8 0 -15 4t-9 13l-47 154h-276l-46 -154q-3 -9 -10 -13t-17 -4zM147 228h243l-121 403z" />
    <glyph glyph-name="uni01E1" unicode="&#x1e1;" horiz-adv-x="561" 
d="M235 662q0 29 15 42.5t37 13.5q23 0 37 -15t14 -41t-14.5 -41t-36.5 -15t-37 13.5t-15 42.5zM137 837h297v-71h-297v71zM167 -7q-56 0 -96 32.5t-40 99.5q0 55 29.5 84.5t82 41t121.5 11.5h51v24q0 32 -11.5 63.5t-37 52t-69.5 20.5q-33 0 -54 -7t-33 -14.5t-20 -7.5
q-12 0 -19 12t-7 23q0 13 20.5 24.5t52 19t62.5 7.5q67 0 106.5 -27.5t57 -71.5t17.5 -94v-260q0 -11 -8.5 -18.5t-23.5 -7.5q-12 0 -21 7.5t-9 18.5v44q-26 -29 -63 -53t-88 -24zM183 48q33 0 63 17t49.5 41.5t19.5 46.5v64h-42q-45 0 -85.5 -5.5t-66 -23.5t-25.5 -57
q0 -43 25.5 -63t61.5 -20z" />
    <glyph glyph-name="uni01E2" unicode="&#x1e2;" horiz-adv-x="880" 
d="M347 842h297v-71h-297v71zM103 0q-17 0 -24 9t-7 22v487q0 77 27.5 124t74 68t104.5 21h387q13 0 19 -9.5t6 -19.5q0 -13 -6.5 -22.5t-18.5 -9.5h-234v-275h147q12 0 18.5 -9t6.5 -21q0 -9 -6 -18t-19 -9h-147v-277h234q12 0 18.5 -9t6.5 -22q0 -11 -6 -20.5t-19 -9.5
h-269q-12 0 -21.5 6.5t-9.5 19.5v312h-229v-307q0 -13 -5.5 -22t-27.5 -9zM136 395h229v275h-87q-67 0 -104.5 -37t-37.5 -115v-123z" />
    <glyph glyph-name="uni01E3" unicode="&#x1e3;" horiz-adv-x="863" 
d="M283 677h297v-71h-297v71zM172 -7q-37 0 -69.5 14t-52 43.5t-19.5 74.5q0 55 29 84.5t81 41t121 11.5h51v24q0 33 -11.5 64.5t-37.5 52t-71 20.5q-31 0 -51.5 -7t-33 -14.5t-20.5 -7.5q-12 0 -19 12t-7 22q0 14 20.5 25.5t52 19t63.5 7.5q60 0 97 -26.5t55 -67.5
q24 41 65 67t90 26q32 0 65 -11t60.5 -34.5t44.5 -60t17 -87.5q0 -30 -8 -45t-27 -19.5t-51 -4.5h-225v-37q0 -60 43 -95t107 -35q38 0 60.5 10t36 20t24.5 10q7 0 13.5 -4.5t10.5 -11.5t4 -15q0 -15 -24 -30.5t-60 -25.5t-75 -10q-56 0 -104 26.5t-73 75.5q-33 -54 -80 -78
t-92 -24zM182 48q36 0 65.5 17t47.5 42t18 46v64h-42q-47 0 -87 -5.5t-64 -24t-24 -58.5t25 -60.5t61 -20.5zM381 265h199q32 0 41 7t9 25q0 34 -16 63t-44 47t-65 18q-34 0 -62.5 -16.5t-45 -43.5t-16.5 -61v-39z" />
    <glyph glyph-name="uni01E4" unicode="&#x1e4;" horiz-adv-x="728" 
d="M407 377h247v-150h64v-71h-64v-129q-57 -18 -115.5 -27.5t-135.5 -9.5q-163 0 -252.5 97t-89.5 270q0 112 44.5 195.5t128 127.5t197.5 44t213 -42l-34 -78q-94 41 -184 41q-127 0 -199 -77t-72 -211q0 -142 68.5 -215.5t200.5 -73.5q72 0 140 17v71h-147v71h147v70h-157
v80z" />
    <glyph glyph-name="uni01E5" unicode="&#x1e5;" horiz-adv-x="615" 
d="M443 15l3 66h-4q-54 -81 -166 -81q-105 0 -163 71t-58 201q0 128 58 201t162 73q109 0 168 -81h5l12 71h70v-545q0 -20 -2 -37h57v-71h-72q-47 -123 -223 -123q-117 0 -193 34v81q78 -42 198 -42q77 0 117 50h-149v71h178l2 30v31zM289 72q83 0 119 42.5t36 136.5v16
q0 107 -37 156t-120 49q-68 0 -104.5 -50.5t-36.5 -150.5q0 -199 143 -199z" />
    <glyph glyph-name="Gcaron" unicode="&#x1e6;" horiz-adv-x="728" 
d="M255 751q-11 0 -20 10l-101 90q-7 5 -10 10.5t-3 12.5q0 8 5.5 15t13.5 7t15 -6l100 -92l99 92q7 6 15 6q9 0 14 -7t5 -15q0 -7 -3 -12.5t-9 -10.5l-101 -90q-11 -10 -20 -10zM276 -6q-58 0 -105 21t-74.5 68t-27.5 125v310q0 77 27.5 124t74 68t104.5 21q64 0 111 -22.5
t73 -61.5t26 -89q0 -19 -9 -26.5t-24 -7.5q-13 0 -22.5 6t-10.5 19q-5 39 -22 66t-47 41t-74 14q-67 0 -104 -37t-37 -115v-310q0 -78 37 -115.5t104 -37.5t105 37.5t38 115.5v119h-134q-12 0 -18.5 9t-6.5 20q0 10 6.5 19t18.5 9h175q12 0 18.5 -7.5t6.5 -18.5v-150
q0 -78 -28 -125t-75 -68t-106 -21z" />
    <glyph glyph-name="gcaron" unicode="&#x1e7;" horiz-adv-x="615" 
d="M145 586q-11 0 -20 10l-101 90q-7 5 -10 10.5t-3 12.5q0 8 5.5 15t13.5 7t15 -6l100 -92l99 92q7 6 15 6q9 0 14 -7t5 -15q0 -7 -3 -12.5t-9 -10.5l-101 -90q-11 -10 -20 -10zM230 -232q-59 0 -104.5 16.5t-72 46t-26.5 70.5q0 44 26 70t59 39q-24 9 -39.5 24.5
t-15.5 44.5q0 28 14 44.5t36 27.5q-27 22 -41 54.5t-14 71.5v38q0 48 21 85t60 58t91 21q35 0 65 -11t52 -31q15 31 34 47t37 16q15 0 22.5 -8.5t7.5 -17.5t-5 -14.5t-12 -7.5q-12 -2 -27.5 -11t-28.5 -32q14 -19 21 -43t7 -51v-38q0 -47 -22 -85t-61.5 -59.5t-90.5 -21.5
q-43 0 -77 17q-11 -6 -21 -14.5t-10 -24.5q0 -22 23 -32t58 -14t74.5 -8.5t75 -16.5t58 -37t22.5 -71q0 -47 -25.5 -78.5t-69.5 -47.5t-101 -16zM229 -183q63 0 98.5 25t35.5 66q0 32 -19.5 48.5t-49 23.5t-61 10t-54.5 6q-35 -11 -62 -32t-27 -57q0 -40 37 -65t102 -25z
M225 160q51 0 79.5 33.5t28.5 83.5v38q0 49 -28.5 82t-80.5 33t-80.5 -33t-28.5 -82v-37q0 -50 29 -84t81 -34z" />
    <glyph glyph-name="uni01E8" unicode="&#x1e8;" horiz-adv-x="619" 
d="M171 751q-11 0 -20 10l-101 90q-7 5 -10 10.5t-3 12.5q0 8 5.5 15t13.5 7t15 -6l100 -92l99 92q7 6 15 6q9 0 14 -7t5 -15q0 -7 -3 -12.5t-9 -10.5l-101 -90q-11 -10 -20 -10zM109 0q-13 0 -23 6.5t-10 19.5v681q0 13 10 18.5t23 5.5q12 0 22.5 -5.5t10.5 -18.5v-354
l289 368q7 10 21 10q8 0 16.5 -5t14 -12.5t5.5 -16.5q0 -3 -1 -7.5t-4 -7.5l-215 -267l246 -370q4 -6 4 -13q0 -9 -5.5 -16.5t-14 -12t-18.5 -4.5q-7 0 -13.5 3.5t-11.5 10.5l-231 347l-82 -104v-230q0 -13 -10.5 -19.5t-22.5 -6.5z" />
    <glyph glyph-name="uni01E9" unicode="&#x1e9;" horiz-adv-x="534" 
d="M135 771q-11 0 -20 10l-101 90q-7 5 -10 10.5t-3 12.5q0 8 5.5 15t13.5 7t15 -6l100 -92l99 92q7 6 15 6q9 0 14 -7t5 -15q0 -7 -3 -12.5t-9 -10.5l-101 -90q-11 -10 -20 -10zM95 0q-13 0 -22.5 8t-9.5 18v713q0 11 9.5 17.5t22.5 6.5q14 0 23.5 -6.5t9.5 -17.5v-487
l244 217q8 6 15 6q8 0 15.5 -4t12.5 -11t5 -16q0 -5 -1.5 -9.5t-5.5 -8.5l-147 -129l173 -253q4 -6 4 -14q0 -7 -5 -15t-13.5 -12.5t-16.5 -4.5q-12 0 -20 11l-168 247l-92 -81v-149q0 -10 -9.5 -18t-23.5 -8z" />
    <glyph glyph-name="uni01EA" unicode="&#x1ea;" horiz-adv-x="780" 
d="M408 -201q-25 0 -47 7.5t-36 24t-14 43.5q0 43 22.5 80t58.5 67l33 -17q-31 -27 -52.5 -58t-21.5 -67q0 -24 16.5 -34t45.5 -10q9 0 14.5 -5t5.5 -14q0 -8 -5.5 -12.5t-19.5 -4.5zM276 -6q-58 0 -105 21t-74.5 68t-27.5 125v310q0 77 27.5 124t74 68t105.5 21t106 -21
t75 -68t28 -124v-310q0 -78 -28 -125t-75 -68t-106 -21zM276 55q67 0 105 37t38 116v310q0 78 -38 115t-105 37t-104 -37t-37 -115v-310q0 -79 37 -116t104 -37z" />
    <glyph glyph-name="uni01EB" unicode="&#x1eb;" horiz-adv-x="604" 
d="M310 -201q-25 0 -47 7.5t-36 24t-14 43.5q0 43 22.5 80t58.5 67l33 -17q-31 -27 -52.5 -58t-21.5 -67q0 -24 16.5 -34t45.5 -10q9 0 14.5 -5t5.5 -14q0 -8 -5.5 -12.5t-19.5 -4.5zM234 -7q-51 0 -94 26.5t-69.5 70t-26.5 93.5v109q0 50 26 92.5t69 68.5t95 26
q51 0 94.5 -25.5t69.5 -67.5t26 -94v-109q0 -49 -26 -93t-69.5 -70.5t-94.5 -26.5zM234 53q35 0 63 18.5t45 48.5t17 63v109q0 32 -16.5 61t-45 47.5t-63.5 18.5t-63 -18.5t-45 -47.5t-17 -61v-109q0 -33 17 -63t45.5 -48.5t62.5 -18.5z" />
    <glyph glyph-name="uni01EC" unicode="&#x1ec;" horiz-adv-x="780" 
d="M408 -201q-25 0 -47 7.5t-36 24t-14 43.5q0 43 22.5 80t58.5 67l33 -17q-31 -27 -52.5 -58t-21.5 -67q0 -24 16.5 -34t45.5 -10q9 0 14.5 -5t5.5 -14q0 -8 -5.5 -12.5t-19.5 -4.5zM242 842h297v-71h-297v71zM276 -6q-58 0 -105 21t-74.5 68t-27.5 125v310q0 77 27.5 124
t74 68t105.5 21t106 -21t75 -68t28 -124v-310q0 -78 -28 -125t-75 -68t-106 -21zM276 55q67 0 105 37t38 116v310q0 78 -38 115t-105 37t-104 -37t-37 -115v-310q0 -79 37 -116t104 -37z" />
    <glyph glyph-name="uni01ED" unicode="&#x1ed;" horiz-adv-x="604" 
d="M310 -201q-25 0 -47 7.5t-36 24t-14 43.5q0 43 22.5 80t58.5 67l33 -17q-31 -27 -52.5 -58t-21.5 -67q0 -24 16.5 -34t45.5 -10q9 0 14.5 -5t5.5 -14q0 -8 -5.5 -12.5t-19.5 -4.5zM154 677h297v-71h-297v71zM234 -7q-51 0 -94 26.5t-69.5 70t-26.5 93.5v109q0 50 26 92.5
t69 68.5t95 26q51 0 94.5 -25.5t69.5 -67.5t26 -94v-109q0 -49 -26 -93t-69.5 -70.5t-94.5 -26.5zM234 53q35 0 63 18.5t45 48.5t17 63v109q0 32 -16.5 61t-45 47.5t-63.5 18.5t-63 -18.5t-45 -47.5t-17 -61v-109q0 -33 17 -63t45.5 -48.5t62.5 -18.5z" />
    <glyph glyph-name="uni01EE" unicode="&#x1ee;" horiz-adv-x="583" 
d="M110 751q-11 0 -20 10l-101 90q-7 5 -10 10.5t-3 12.5q0 8 5.5 15t13.5 7t15 -6l100 -92l99 92q7 6 15 6q9 0 14 -7t5 -15q0 -7 -3 -12.5t-9 -10.5l-101 -90q-11 -10 -20 -10zM291 440q68 -2 122.5 -30t85 -76.5t30.5 -112.5q0 -109 -76 -170t-212 -61q-126 0 -206 39v82
q49 -23 104 -35t103 -12q97 0 145 41t48 117q0 69 -49.5 107t-143.5 38h-62v65l206 202h-331v80h444v-71z" />
    <glyph glyph-name="uni01EF" unicode="&#x1ef;" horiz-adv-x="498" 
d="M218 228q115 -8 180.5 -68.5t65.5 -158.5q0 -70 -33 -125.5t-93.5 -85.5t-138.5 -30q-117 0 -185 35v80q89 -42 189 -42q79 0 126 45t47 121q0 77 -51 118t-151 41h-59v61l219 243h-306v74h409v-64zM65 586q-11 0 -20 10l-101 90q-7 5 -10 10.5t-3 12.5q0 8 5.5 15
t13.5 7t15 -6l100 -92l99 92q7 6 15 6q9 0 14 -7t5 -15q0 -7 -3 -12.5t-9 -10.5l-101 -90q-11 -10 -20 -10z" />
    <glyph glyph-name="uni01F0" unicode="&#x1f0;" horiz-adv-x="257" 
d="M-33 586q-11 0 -20 10l-101 90q-7 5 -10 10.5t-3 12.5q0 8 5.5 15t13.5 7t15 -6l100 -92l99 92q7 6 15 6q9 0 14 -7t5 -15q0 -7 -3 -12.5t-9 -10.5l-101 -90q-11 -10 -20 -10zM-3 -232q-18 0 -26 9t-8 20q0 14 8.5 22t19.5 8q32 0 47.5 17t20 46.5t4.5 66.5v492
q0 11 9 17.5t23 6.5t23.5 -6.5t9.5 -17.5v-492q0 -55 -13 -98t-42 -67t-76 -24z" />
    <glyph glyph-name="uni01F1" unicode="&#x1f1;" horiz-adv-x="1291" 
d="M106 0q-13 0 -21.5 7t-8.5 18v682q0 10 8.5 17t21.5 7h177q59 0 106.5 -21t75 -68t27.5 -124v-304q0 -78 -27.5 -125t-75 -68t-106.5 -21h-177zM142 61h141q67 0 105 37t38 116v304q0 78 -38 115t-105 37h-141v-609zM767 0q-11 0 -17.5 6.5t-6.5 16.5q0 11 6 23l333 624
h-302q-12 0 -18.5 9.5t-6.5 21.5q0 11 6 20.5t19 9.5h363q13 0 19 -6t6 -15q0 -12 -8 -26l-332 -623h327q13 0 19 -9.5t6 -20.5q0 -12 -6 -21.5t-19 -9.5h-388z" />
    <glyph glyph-name="uni01F2" unicode="&#x1f2;" horiz-adv-x="1200" 
d="M106 0q-13 0 -21.5 7t-8.5 18v682q0 10 8.5 17t21.5 7h177q59 0 106.5 -21t75 -68t27.5 -124v-304q0 -78 -27.5 -125t-75 -68t-106.5 -21h-177zM142 61h141q67 0 105 37t38 116v304q0 78 -38 115t-105 37h-141v-609zM780 0q-12 0 -19 8t-7 18q0 6 3 13t7 12l244 365h-220
q-10 0 -17.5 8t-7.5 20t7.5 20.5t17.5 8.5h282q11 0 18.5 -7t7.5 -19t-9 -24l-245 -365h241q11 0 18 -8.5t7 -21.5q0 -11 -7 -19.5t-18 -8.5h-303z" />
    <glyph glyph-name="uni01F3" unicode="&#x1f3;" horiz-adv-x="1084" 
d="M222 -7q-47 0 -88 26.5t-65 70.5t-24 93v109q0 52 24 94t65 67.5t90 25.5t82.5 -23.5t49.5 -52.5v336q0 11 10 17.5t23 6.5q15 0 23.5 -6.5t8.5 -17.5v-713q0 -10 -8.5 -18t-23.5 -8q-12 0 -21 8t-9 18v44q-16 -31 -53.5 -54t-83.5 -23zM233 53q36 0 63.5 18.5t43.5 42
t16 38.5v140q0 40 -18 68t-46 43.5t-58 15.5q-34 0 -62 -18.5t-45 -47.5t-17 -61v-109q0 -33 17 -63t45 -48.5t61 -18.5zM665 0q-12 0 -19 8t-7 18q0 6 3 13t7 12l244 365h-220q-10 0 -17.5 8t-7.5 20t7.5 20.5t17.5 8.5h282q11 0 18.5 -7t7.5 -19t-9 -24l-245 -365h241
q11 0 18 -8.5t7 -21.5q0 -11 -7 -19.5t-18 -8.5h-303z" />
    <glyph glyph-name="uni01F4" unicode="&#x1f4;" horiz-adv-x="728" 
d="M276 -6q-58 0 -105 21t-74.5 68t-27.5 125v310q0 77 27.5 124t74 68t104.5 21q64 0 111 -22.5t73 -61.5t26 -89q0 -19 -9 -26.5t-24 -7.5q-13 0 -22.5 6t-10.5 19q-5 39 -22 66t-47 41t-74 14q-67 0 -104 -37t-37 -115v-310q0 -78 37 -115.5t104 -37.5t105 37.5t38 115.5
v119h-134q-12 0 -18.5 9t-6.5 20q0 10 6.5 19t18.5 9h175q12 0 18.5 -7.5t6.5 -18.5v-150q0 -78 -28 -125t-75 -68t-106 -21zM200 756q-10 0 -18 9t-8 19q0 13 11 18l112 61q5 3 8 3q11 0 17.5 -9t6.5 -19q0 -15 -12 -22l-107 -57q-2 -1 -5 -2t-5 -1z" />
    <glyph glyph-name="uni01F5" unicode="&#x1f5;" horiz-adv-x="615" 
d="M230 -232q-59 0 -104.5 16.5t-72 46t-26.5 70.5q0 44 26 70t59 39q-24 9 -39.5 24.5t-15.5 44.5q0 28 14 44.5t36 27.5q-27 22 -41 54.5t-14 71.5v38q0 48 21 85t60 58t91 21q35 0 65 -11t52 -31q15 31 34 47t37 16q15 0 22.5 -8.5t7.5 -17.5t-5 -14.5t-12 -7.5
q-12 -2 -27.5 -11t-28.5 -32q14 -19 21 -43t7 -51v-38q0 -47 -22 -85t-61.5 -59.5t-90.5 -21.5q-43 0 -77 17q-11 -6 -21 -14.5t-10 -24.5q0 -22 23 -32t58 -14t74.5 -8.5t75 -16.5t58 -37t22.5 -71q0 -47 -25.5 -78.5t-69.5 -47.5t-101 -16zM229 -183q63 0 98.5 25t35.5 66
q0 32 -19.5 48.5t-49 23.5t-61 10t-54.5 6q-35 -11 -62 -32t-27 -57q0 -40 37 -65t102 -25zM225 160q51 0 79.5 33.5t28.5 83.5v38q0 49 -28.5 82t-80.5 33t-80.5 -33t-28.5 -82v-37q0 -50 29 -84t81 -34zM62 591q-10 0 -18 9t-8 19q0 13 11 18l112 61q5 3 8 3q11 0 17.5 -9
t6.5 -19q0 -15 -12 -22l-107 -57q-2 -1 -5 -2t-5 -1z" />
    <glyph glyph-name="uni01F6" unicode="&#x1f6;" horiz-adv-x="937" 
d="M187 333v-333h-90v714h90v-302h296v302h90v-550q0 -45 23 -70t70 -25q44 0 68 25t24 71v371h90v-371q0 -81 -49 -127.5t-136 -46.5q-85 0 -132.5 46t-47.5 129v167h-296z" />
    <glyph glyph-name="uni01F7" unicode="&#x1f7;" horiz-adv-x="661" 
d="M389 725q103 0 160 -64t57 -179q0 -161 -106.5 -284.5t-312.5 -207.5v-230h-90v955h71l15 -97h5q37 55 86.5 81t114.5 26zM187 74q161 67 245 171.5t84 235.5q0 81 -37 123.5t-106 42.5q-94 0 -140 -55.5t-46 -173.5v-344z" />
    <glyph glyph-name="uni01F8" unicode="&#x1f8;" horiz-adv-x="759" 
d="M109 0q-13 0 -23 6.5t-10 19.5v680q0 14 10 19.5t23 5.5q12 0 21 -6.5t17 -16.5t14 -23l270 -532v554q0 13 10 18.5t23 5.5q12 0 22.5 -5.5t10.5 -18.5v-681q0 -13 -10.5 -19.5t-22.5 -6.5q-14 0 -25 12t-19 26l-278 541v-553q0 -13 -10.5 -19.5t-22.5 -6.5zM179 756
q-2 0 -5 1t-5 2l-106 57q-13 7 -13 22q0 10 7 19t17 9q4 0 9 -3l111 -61q11 -5 11 -18q0 -10 -7.5 -19t-18.5 -9z" />
    <glyph glyph-name="uni01F9" unicode="&#x1f9;" horiz-adv-x="618" 
d="M94 0q-13 0 -22.5 8t-9.5 18v423q0 11 9.5 17.5t22.5 6.5t22 -6.5t9 -17.5v-46q16 29 50 52.5t84 23.5q48 0 88.5 -25.5t64.5 -67.5t24 -94v-266q0 -13 -10 -19.5t-23 -6.5q-11 0 -21.5 6.5t-10.5 19.5v266q0 32 -17 61t-45 47.5t-62 18.5q-30 0 -57.5 -15.5t-45 -43.5
t-17.5 -68v-266q0 -10 -9.5 -18t-23.5 -8zM118 591q-2 0 -5 1t-5 2l-106 57q-13 7 -13 22q0 10 7 19t17 9q4 0 9 -3l111 -61q11 -5 11 -18q0 -10 -7.5 -19t-18.5 -9z" />
    <glyph glyph-name="Aringacute" unicode="&#x1fa;" horiz-adv-x="640" 
d="M430 699q0 -32 -13 -54.5t-35 -35.5l258 -609h-93l-82 192h-295l-78 -192h-92l258 608q-49 26 -49 90q0 48 29.5 77t79.5 29t81 -29.5t31 -75.5zM439 272l-84 207q-13 30 -36 101q-15 -52 -35 -103l-83 -205h238zM271 838q28 33 51 67t34 53h106v-8q-15 -21 -58 -60.5
t-74 -60.5h-59v9zM374 698q0 27 -15.5 41.5t-40.5 14.5q-24 0 -40 -14.5t-16 -41.5q0 -26 14.5 -41t41.5 -15q25 0 40.5 14.5t15.5 41.5z" />
    <glyph glyph-name="aringacute" unicode="&#x1fb;" horiz-adv-x="561" 
d="M416 0l-17 76h-4q-40 -50 -80 -68t-100 -18q-79 0 -124 41.5t-45 117.5q0 163 257 171l91 3v32q0 61 -26.5 90t-84.5 29q-42 0 -80 -12.5t-71 -28.5l-27 66q41 21 88.5 33.5t94.5 12.5q97 0 144.5 -43t47.5 -137v-365h-64zM235 61q74 0 116 40t42 113v48l-79 -3
q-92 -3 -134.5 -29t-42.5 -82q0 -42 26 -64.5t72 -22.5zM396 713q0 -49 -30.5 -78t-80.5 -29t-79.5 29t-29.5 77q0 47 29 76t80 29q49 0 80 -29t31 -75zM341 712q0 26 -16 41t-40 15t-40 -15t-16 -41t14.5 -41t41.5 -15q25 0 40.5 15t15.5 41zM230 856v8q22 21 48 50t37 44
h131v-6q-10 -12 -50.5 -37.5t-102.5 -58.5h-63z" />
    <glyph glyph-name="AEacute" unicode="&#x1fc;" horiz-adv-x="714" 
d="M331 845q-10 0 -18 9t-8 19q0 13 11 18l112 61q5 3 8 3q11 0 17.5 -9t6.5 -19q0 -15 -12 -22l-107 -57q-2 -1 -5 -2t-5 -1zM103 0q-17 0 -24 9t-7 22v487q0 77 27.5 124t74 68t104.5 21h387q13 0 19 -9.5t6 -19.5q0 -13 -6.5 -22.5t-18.5 -9.5h-234v-275h147
q12 0 18.5 -9t6.5 -21q0 -9 -6 -18t-19 -9h-147v-277h234q12 0 18.5 -9t6.5 -22q0 -11 -6 -20.5t-19 -9.5h-269q-12 0 -21.5 6.5t-9.5 19.5v312h-229v-307q0 -13 -5.5 -22t-27.5 -9zM136 395h229v275h-87q-67 0 -104.5 -37t-37.5 -115v-123z" />
    <glyph glyph-name="aeacute" unicode="&#x1fd;" horiz-adv-x="728" 
d="M316 591q-10 0 -18 9t-8 19q0 13 11 18l112 61q5 3 8 3q11 0 17.5 -9t6.5 -19q0 -15 -12 -22l-107 -57q-2 -1 -5 -2t-5 -1zM172 -7q-37 0 -69.5 14t-52 43.5t-19.5 74.5q0 55 29 84.5t81 41t121 11.5h51v24q0 33 -11.5 64.5t-37.5 52t-71 20.5q-31 0 -51.5 -7t-33 -14.5
t-20.5 -7.5q-12 0 -19 12t-7 22q0 14 20.5 25.5t52 19t63.5 7.5q60 0 97 -26.5t55 -67.5q24 41 65 67t90 26q32 0 65 -11t60.5 -34.5t44.5 -60t17 -87.5q0 -30 -8 -45t-27 -19.5t-51 -4.5h-225v-37q0 -60 43 -95t107 -35q38 0 60.5 10t36 20t24.5 10q7 0 13.5 -4.5
t10.5 -11.5t4 -15q0 -15 -24 -30.5t-60 -25.5t-75 -10q-56 0 -104 26.5t-73 75.5q-33 -54 -80 -78t-92 -24zM182 48q36 0 65.5 17t47.5 42t18 46v64h-42q-47 0 -87 -5.5t-64 -24t-24 -58.5t25 -60.5t61 -20.5zM381 265h199q32 0 41 7t9 25q0 34 -16 63t-44 47t-65 18
q-34 0 -62.5 -16.5t-45 -43.5t-16.5 -61v-39z" />
    <glyph glyph-name="Oslashacute" unicode="&#x1fe;" horiz-adv-x="553" 
d="M234 845q-10 0 -18 9t-8 19q0 13 11 18l112 61q5 3 8 3q11 0 17.5 -9t6.5 -19q0 -15 -12 -22l-107 -57q-2 -1 -5 -2t-5 -1zM276 -6q-58 0 -105 21t-74.5 68t-27.5 125v310q0 77 27.5 124t74 68t105.5 21t106 -21t75 -68t28 -124v-310q0 -78 -28 -125t-75 -68t-106 -21z
M276 55q67 0 105 37t38 116v310q0 78 -38 115t-105 37t-104 -37t-37 -115v-310q0 -79 37 -116t104 -37zM89 -27q-11 0 -18.5 7t-7.5 17q0 7 3 12l381 747q6 12 20 12q10 0 19 -7.5t9 -19.5q0 -7 -3 -13l-379 -741q-4 -7 -10.5 -10.5t-13.5 -3.5z" />
    <glyph glyph-name="oslashacute" unicode="&#x1ff;" horiz-adv-x="469" 
d="M192 587q-10 0 -18 9t-8 19q0 13 11 18l112 61q5 3 8 3q11 0 17.5 -9t6.5 -19q0 -15 -12 -22l-107 -57q-2 -1 -5 -2t-5 -1zM234 -7q-51 0 -94 26.5t-69.5 70t-26.5 93.5v109q0 50 26 92.5t69 68.5t95 26q51 0 94.5 -25.5t69.5 -67.5t26 -94v-109q0 -49 -26 -93
t-69.5 -70.5t-94.5 -26.5zM234 53q35 0 63 18.5t45 48.5t17 63v109q0 32 -16.5 61t-45 47.5t-63.5 18.5t-63 -18.5t-45 -47.5t-17 -61v-109q0 -33 17 -63t45.5 -48.5t62.5 -18.5zM89 -32q-8 0 -14 5.5t-6 13.5q0 7 3 11l29 52l230 402l28 48q5 9 15 9q8 0 15 -6.5t7 -15.5
q0 -6 -5 -13l-27 -47l-231 -403l-27 -46q-6 -10 -17 -10z" />
    <glyph glyph-name="uni0200" unicode="&#x200;" horiz-adv-x="639" 
d="M449 771h-50q-29 23 -72 72t-61 78v10h97q14 -30 38 -72.5t48 -75.5v-12zM273 771h-50q-32 25 -74.5 74t-58.5 76v10h97q14 -30 38 -72.5t48 -75.5v-12zM58 0q-8 0 -17 3.5t-15 10t-6 14.5q0 4 1 7l209 679q4 12 15 17.5t24 5.5q14 0 25.5 -6t14.5 -17l208 -679
q1 -3 1 -6q0 -8 -6 -14.5t-15 -10.5t-19 -4q-8 0 -15 4t-9 13l-47 154h-276l-46 -154q-3 -9 -10 -13t-17 -4zM147 228h243l-121 403z" />
    <glyph glyph-name="uni0201" unicode="&#x201;" horiz-adv-x="561" 
d="M415 606h-50q-29 23 -72 72t-61 78v10h97q14 -30 38 -72.5t48 -75.5v-12zM239 606h-50q-32 25 -74.5 74t-58.5 76v10h97q14 -30 38 -72.5t48 -75.5v-12zM167 -7q-56 0 -96 32.5t-40 99.5q0 55 29.5 84.5t82 41t121.5 11.5h51v24q0 32 -11.5 63.5t-37 52t-69.5 20.5
q-33 0 -54 -7t-33 -14.5t-20 -7.5q-12 0 -19 12t-7 23q0 13 20.5 24.5t52 19t62.5 7.5q67 0 106.5 -27.5t57 -71.5t17.5 -94v-260q0 -11 -8.5 -18.5t-23.5 -7.5q-12 0 -21 7.5t-9 18.5v44q-26 -29 -63 -53t-88 -24zM183 48q33 0 63 17t49.5 41.5t19.5 46.5v64h-42
q-45 0 -85.5 -5.5t-66 -23.5t-25.5 -57q0 -43 25.5 -63t61.5 -20z" />
    <glyph glyph-name="uni0202" unicode="&#x202;" horiz-adv-x="639" 
d="M322 905q69 0 108.5 -33.5t44.5 -100.5h-54q-4 36 -25 49.5t-76 13.5q-50 0 -73.5 -15.5t-27.5 -47.5h-55q5 63 47.5 98.5t110.5 35.5zM58 0q-8 0 -17 3.5t-15 10t-6 14.5q0 4 1 7l209 679q4 12 15 17.5t24 5.5q14 0 25.5 -6t14.5 -17l208 -679q1 -3 1 -6q0 -8 -6 -14.5
t-15 -10.5t-19 -4q-8 0 -15 4t-9 13l-47 154h-276l-46 -154q-3 -9 -10 -13t-17 -4zM147 228h243l-121 403z" />
    <glyph glyph-name="uni0203" unicode="&#x203;" horiz-adv-x="561" 
d="M293 740q69 0 108.5 -33.5t44.5 -100.5h-54q-4 36 -25 49.5t-76 13.5q-50 0 -73.5 -15.5t-27.5 -47.5h-55q5 63 47.5 98.5t110.5 35.5zM167 -7q-56 0 -96 32.5t-40 99.5q0 55 29.5 84.5t82 41t121.5 11.5h51v24q0 32 -11.5 63.5t-37 52t-69.5 20.5q-33 0 -54 -7
t-33 -14.5t-20 -7.5q-12 0 -19 12t-7 23q0 13 20.5 24.5t52 19t62.5 7.5q67 0 106.5 -27.5t57 -71.5t17.5 -94v-260q0 -11 -8.5 -18.5t-23.5 -7.5q-12 0 -21 7.5t-9 18.5v44q-26 -29 -63 -53t-88 -24zM183 48q33 0 63 17t49.5 41.5t19.5 46.5v64h-42q-45 0 -85.5 -5.5
t-66 -23.5t-25.5 -57q0 -43 25.5 -63t61.5 -20z" />
    <glyph glyph-name="uni0204" unicode="&#x204;" horiz-adv-x="556" 
d="M437 771h-50q-29 23 -72 72t-61 78v10h97q14 -30 38 -72.5t48 -75.5v-12zM261 771h-50q-32 25 -74.5 74t-58.5 76v10h97q14 -30 38 -72.5t48 -75.5v-12zM106 0q-11 0 -20.5 6.5t-9.5 19.5v680q0 12 9.5 18.5t20.5 6.5h356q13 0 19 -9.5t6 -19.5q0 -13 -6.5 -22.5
t-18.5 -9.5h-320v-275h157q12 0 18.5 -9t6.5 -21q0 -9 -6 -18t-19 -9h-157v-277h320q12 0 18.5 -9t6.5 -22q0 -11 -6 -20.5t-19 -9.5h-356z" />
    <glyph glyph-name="uni0205" unicode="&#x205;" horiz-adv-x="563" 
d="M431 606h-50q-29 23 -72 72t-61 78v10h97q14 -30 38 -72.5t48 -75.5v-12zM255 606h-50q-32 25 -74.5 74t-58.5 76v10h97q14 -30 38 -72.5t48 -75.5v-12zM260 -7q-63 0 -111.5 24t-76 66.5t-27.5 99.5v112q0 50 26 92t69.5 67t95.5 25q50 0 92.5 -23.5t68.5 -64.5t26 -94
q0 -39 -13 -55.5t-32.5 -20.5t-41.5 -4h-226v-37q0 -60 43 -95t109 -35q40 0 62 10t34.5 20t23.5 10q8 0 14.5 -5.5t10 -12.5t3.5 -13q0 -11 -18 -27t-52 -27.5t-80 -11.5zM110 265h200q30 0 40 6.5t10 27.5q0 32 -15.5 61t-44 47t-65.5 18q-34 0 -62.5 -16.5t-45.5 -44
t-17 -61.5v-38z" />
    </font>
</defs>
</svg>
