<?xml version="1.0" standalone="no"?>
<!DOCTYPE svg PUBLIC "-//W3C//DTD SVG 1.1//EN" "http://www.w3.org/Graphics/SVG/1.1/DTD/svg11.dtd" >
<svg xmlns="http://www.w3.org/2000/svg" xmlns:xlink="http://www.w3.org/1999/xlink" version="1.1">
<metadata>
Created by FontForge 20190801 at Mon Feb  8 12:14:10 2021
 By root
Copyright 2011 The Dosis Project Authors (impallari@gmail.com)
</metadata>
<defs>
<font id="Dosis-SemiBold" horiz-adv-x="200" >
  <font-face 
    font-family="Dosis SemiBold"
    font-weight="600"
    font-stretch="normal"
    units-per-em="1000"
    panose-1="0 0 0 0 0 0 0 0 0 0"
    ascent="800"
    descent="-200"
    x-height="474"
    cap-height="731"
    bbox="-213 -240 1277 1047"
    underline-thickness="50"
    underline-position="-125"
    unicode-range="U+0001-206F"
  />
<missing-glyph horiz-adv-x="364" 
d="M33 0v666h265v-666h-265zM66 33h199v600h-199v-600z" />
    <glyph glyph-name=".notdef" horiz-adv-x="364" 
d="M33 0v666h265v-666h-265zM66 33h199v600h-199v-600z" />
    <glyph glyph-name=".null" horiz-adv-x="0" 
 />
    <glyph glyph-name="nonmarkingreturn" horiz-adv-x="333" 
 />
    <glyph glyph-name="NULL" 
 />
    <glyph glyph-name="NULL" 
 />
    <glyph glyph-name="uni0001" 
 />
    <glyph glyph-name="uni0002" 
 />
    <glyph glyph-name="uni0003" 
 />
    <glyph glyph-name="uni0004" 
 />
    <glyph glyph-name="uni0005" 
 />
    <glyph glyph-name="uni0006" 
 />
    <glyph glyph-name="uni0007" 
 />
    <glyph glyph-name="uni0008" 
 />
    <glyph glyph-name="uni0009" unicode="&#x9;" 
 />
    <glyph glyph-name="uni000A" unicode="&#xa;" 
 />
    <glyph glyph-name="uni000B" 
 />
    <glyph glyph-name="uni000C" 
 />
    <glyph glyph-name="CR" unicode="&#xd;" 
 />
    <glyph glyph-name="uni000E" 
 />
    <glyph glyph-name="uni000F" 
 />
    <glyph glyph-name="uni0010" 
 />
    <glyph glyph-name="uni0011" 
 />
    <glyph glyph-name="uni0012" 
 />
    <glyph glyph-name="uni0013" 
 />
    <glyph glyph-name="uni0014" 
 />
    <glyph glyph-name="uni0015" 
 />
    <glyph glyph-name="uni0016" 
 />
    <glyph glyph-name="uni0017" 
 />
    <glyph glyph-name="uni0018" 
 />
    <glyph glyph-name="uni0019" 
 />
    <glyph glyph-name="uni001A" 
 />
    <glyph glyph-name="uni001B" 
 />
    <glyph glyph-name="uni001C" 
 />
    <glyph glyph-name="uni001D" 
 />
    <glyph glyph-name="uni001E" 
 />
    <glyph glyph-name="uni001F" 
 />
    <glyph glyph-name="space" unicode=" " 
 />
    <glyph glyph-name="exclam" unicode="!" horiz-adv-x="214" 
d="M107 188q-16 0 -28.5 8t-12.5 24q0 73 -3 154t-6 162.5t-3 153.5q0 23 15 35.5t38 12.5q22 0 37.5 -12.5t15.5 -35.5q0 -72 -3 -153.5t-6 -162.5t-3 -154q0 -16 -14 -24t-27 -8zM108 -6q-26 0 -43 18t-17 42q0 25 17 42.5t43 17.5q24 0 41.5 -17.5t17.5 -42.5
q0 -24 -17.5 -42t-41.5 -18z" />
    <glyph glyph-name="quotedbl" unicode="&#x22;" horiz-adv-x="290" 
d="M216 568q-17 0 -24 9.5t-7 20.5l-10 141q0 14 13 21.5t28 7.5q16 0 29.5 -7.5t13.5 -21.5l-10 -141q0 -11 -8 -20.5t-25 -9.5zM73 568q-17 0 -24.5 9.5t-7.5 20.5l-10 141q0 14 13.5 21.5t28.5 7.5t28.5 -7.5t13.5 -21.5l-10 -141q0 -11 -7.5 -20.5t-24.5 -9.5z" />
    <glyph glyph-name="numbersign" unicode="#" horiz-adv-x="646" 
d="M167 31q-17 0 -34 10.5t-17 30.5l26 160h-84q-16 0 -24 11t-8 28t8 29t22 12h102l23 137h-85q-16 0 -24 11t-8 28t8 28.5t22 11.5h102l28 162q2 11 15 17t28 6q19 0 34 -10t15 -32l-25 -143h117l27 162q2 11 15.5 17t27.5 6q19 0 34 -10t15 -32l-24 -143h85
q12 0 22.5 -11t10.5 -28t-9.5 -28.5t-21.5 -11.5h-101l-24 -137h85q12 0 23 -11.5t11 -28.5t-10 -28.5t-22 -11.5h-102l-30 -175q-2 -11 -15.5 -18.5t-26.5 -7.5q-11 0 -23 5t-20.5 14t-8.5 22l27 160h-115l-29 -174q-3 -12 -16 -19.5t-26 -7.5zM253 312h116l23 137h-115z
" />
    <glyph glyph-name="dollar" unicode="$" horiz-adv-x="517" 
d="M270 -52q-12 0 -21 7t-9 16v31q-61 1 -108 20t-73.5 46t-26.5 52q0 12 6.5 25t17.5 22.5t23 9.5t24.5 -10.5t30 -25t43 -27t63.5 -15.5v235q-33 12 -66.5 26t-61.5 35.5t-45 54t-17 80.5t16 81t43.5 55t61.5 34t69 16v29q0 10 9 16.5t21 6.5q11 0 20.5 -6.5t9.5 -16.5
v-27q25 -1 53.5 -5.5t53.5 -13t41 -22t16 -31.5q0 -10 -5 -23t-14.5 -23.5t-24.5 -10.5q-12 0 -26.5 8t-36.5 17.5t-57 11.5v-203q32 -12 64.5 -28t59 -39t42.5 -58.5t16 -86.5q0 -92 -50.5 -143.5t-131.5 -62.5v-34q0 -9 -9.5 -16t-20.5 -7zM294 101q41 8 64.5 32.5
t23.5 66.5q0 32 -12 52.5t-32 35t-44 24.5v-211zM246 442v182q-27 -3 -49 -13t-34.5 -27.5t-12.5 -43.5q0 -28 13 -46.5t35 -30t48 -21.5z" />
    <glyph glyph-name="percent" unicode="%" horiz-adv-x="779" 
d="M210 -35q-17 0 -28 11.5t-11 25.5q0 8 4 15l368 735q8 18 29 18q15 0 28.5 -10.5t13.5 -27.5q0 -9 -3 -16l-367 -732q-4 -9 -13.5 -14t-20.5 -5zM168 337q-57 0 -96 28t-39 95v148q0 67 39 95t96 28q39 0 69.5 -12t48.5 -39t18 -72v-148q0 -45 -18 -72t-48.5 -39
t-69.5 -12zM169 401q29 0 46 14.5t17 44.5v148q0 30 -17 44.5t-46 14.5q-30 0 -46.5 -14.5t-16.5 -44.5v-148q0 -30 16.5 -44.5t46.5 -14.5zM611 -3q-58 0 -97 28t-39 95v148q0 67 39 95t97 28q38 0 68.5 -12t48.5 -39t18 -72v-148q0 -45 -18 -72t-48.5 -39t-68.5 -12z
M611 61q29 0 46 14.5t17 44.5v148q0 30 -17 44.5t-46 14.5t-45.5 -14.5t-16.5 -44.5v-148q0 -30 16.5 -44.5t45.5 -14.5z" />
    <glyph glyph-name="ampersand" unicode="&#x26;" horiz-adv-x="630" 
d="M270 -10q-75 0 -129.5 30t-83.5 79.5t-29 107.5q0 48 18 87t48 68.5t62 46.5q-29 34 -51 72t-22 90q0 57 26.5 96.5t72 60t99.5 20.5q58 0 99.5 -19t63 -44.5t21.5 -45.5q0 -19 -15.5 -34t-34.5 -15q-14 0 -24.5 11t-23.5 25.5t-32.5 25t-51.5 10.5q-44 0 -71.5 -25.5
t-27.5 -70.5q0 -32 16 -61t39 -54.5t45 -49.5l176 -190q18 43 21.5 84t5.5 69q1 17 10.5 25.5t36.5 8.5t36 -13t9 -38q0 -23 -5 -57t-16.5 -72t-32.5 -74l85 -90q4 -5 5.5 -10t1.5 -9q0 -16 -15 -29.5t-33 -13.5q-7 0 -13.5 3t-13.5 10l-69 72q-36 -38 -85.5 -62.5
t-117.5 -24.5zM283 83q45 0 76 16.5t51 42.5l-194 204q-19 -12 -37.5 -30t-31 -42t-12.5 -58q0 -36 17 -66.5t50 -48.5t81 -18z" />
    <glyph glyph-name="quotesingle" unicode="'" horiz-adv-x="147" 
d="M73 568q-17 0 -24.5 9.5t-7.5 20.5l-10 141q0 14 13.5 21.5t28.5 7.5t28.5 -7.5t13.5 -21.5l-10 -141q0 -11 -7.5 -20.5t-24.5 -9.5z" />
    <glyph glyph-name="parenleft" unicode="(" horiz-adv-x="325" 
d="M254 -20q-38 0 -74 10.5t-64.5 33t-45.5 56.5t-17 80v414q0 42 17 77.5t46 62t65.5 40.5t74.5 14q30 0 41 -13.5t11 -32.5q0 -21 -9.5 -34t-24.5 -13q-37 0 -62.5 -15t-39 -38t-13.5 -48v-414q0 -35 18 -54t45 -26t52 -7q21 0 27.5 -15t6.5 -32q0 -20 -10.5 -33
t-43.5 -13z" />
    <glyph glyph-name="parenright" unicode=")" horiz-adv-x="325" 
d="M71 -20q-33 0 -43.5 13t-10.5 33q0 17 6.5 32t27.5 15q26 0 52 7t44.5 26t18.5 54v414q0 25 -13.5 48t-39 38t-62.5 15q-15 0 -24.5 13t-9.5 34q0 19 11 32.5t40 13.5q39 0 75 -14t65 -40.5t46.5 -62t17.5 -77.5v-414q0 -46 -17 -80t-46 -56.5t-64.5 -33t-73.5 -10.5z
" />
    <glyph glyph-name="asterisk" unicode="*" horiz-adv-x="460" 
d="M133 347q-8 0 -18.5 4.5t-18.5 13t-8 20.5q0 13 9 23l73 101l-117 34q-12 3 -18 13t-6 23q0 15 11 28t29 13q1 0 4 -0.5t6 -1.5l117 -40l-5 118q1 18 12.5 26.5t26.5 8.5t26.5 -8.5t12.5 -26.5l-5 -120l117 42q6 2 12 2q16 0 26.5 -14.5t10.5 -30.5q0 -11 -6 -20t-19 -12
l-115 -30l77 -106q5 -7 5 -21q0 -17 -13.5 -28t-29.5 -11q-6 0 -14 2.5t-14 11.5l-71 106l-72 -107q-5 -8 -11 -10.5t-14 -2.5z" />
    <glyph glyph-name="plus" unicode="+" horiz-adv-x="443" 
d="M222 46q-18 0 -31.5 9.5t-13.5 24.5v116h-116q-15 0 -24.5 12.5t-9.5 31.5t9.5 32t24.5 13h116v115q0 13 13.5 24t31.5 11q20 0 32 -11t12 -24v-115h115q14 0 25 -13t11 -32t-11 -31.5t-25 -12.5h-115v-116q0 -15 -12 -24.5t-32 -9.5z" />
    <glyph glyph-name="comma" unicode="," horiz-adv-x="184" 
d="M78 -94q-12 0 -24 7.5t-12 20.5q0 7 3 13l22 53q-16 7 -25.5 21.5t-9.5 32.5q0 25 17.5 42.5t41.5 17.5t42 -17t18 -43q0 -3 -1 -9t-6 -19t-15 -38t-27 -67q-3 -8 -10.5 -11.5t-13.5 -3.5z" />
    <glyph glyph-name="hyphen" unicode="-" horiz-adv-x="407" 
d="M73 196q-15 0 -24.5 12.5t-9.5 31.5t9.5 32t24.5 13h260q14 0 25 -13t11 -32t-11 -31.5t-25 -12.5h-260z" />
    <glyph glyph-name="period" unicode="." horiz-adv-x="183" 
d="M92 -6q-26 0 -43 18t-17 42q0 25 17 42.5t43 17.5q24 0 41.5 -17.5t17.5 -42.5q0 -24 -17.5 -42t-41.5 -18z" />
    <glyph glyph-name="slash" unicode="/" horiz-adv-x="481" 
d="M58 -35q-17 0 -28 11.5t-11 25.5q0 8 4 15l368 735q8 18 29 18q15 0 28.5 -10.5t13.5 -27.5q0 -9 -3 -16l-367 -732q-4 -9 -13.5 -14t-20.5 -5z" />
    <glyph glyph-name="zero" unicode="0" horiz-adv-x="549" 
d="M274 -6q-63 0 -114 22t-80.5 71t-29.5 130v291q0 81 29.5 130t80.5 71t114 22t114.5 -22t81 -71t29.5 -130v-291q0 -81 -29.5 -130t-81 -71t-114.5 -22zM274 88q56 0 87.5 31.5t31.5 97.5v291q0 66 -31.5 97.5t-87.5 31.5t-87 -31.5t-31 -97.5v-291q0 -66 31 -97.5
t87 -31.5zM275 319q-19 0 -31 12.5t-12 30.5q0 19 12 30.5t31 11.5t30.5 -11.5t11.5 -30.5q0 -18 -11.5 -30.5t-30.5 -12.5z" />
    <glyph glyph-name="one" unicode="1" horiz-adv-x="267" 
d="M153 0q-20 0 -36.5 9t-16.5 26v556l-35 -44q-6 -5 -11.5 -7.5t-10.5 -2.5q-16 0 -26 13.5t-10 29.5q0 12 6 23t15 18l104 100q5 5 11.5 8t15.5 3q17 0 32 -9t15 -26v-662q0 -17 -16.5 -26t-36.5 -9z" />
    <glyph glyph-name="two" unicode="2" horiz-adv-x="494" 
d="M76 0q-14 0 -30.5 9.5t-16.5 25.5v97q0 41 23.5 75.5t61 65.5t79.5 60.5t79 60t61 63.5t24 72q0 25 -11.5 49t-35.5 40t-62 16q-42 0 -71.5 -24t-29.5 -75q0 -15 -14.5 -27.5t-40.5 -12.5q-22 0 -35 12.5t-13 46.5q0 54 28 93.5t75 61.5t101 22q58 0 107 -25t78.5 -69.5
t29.5 -104.5q0 -53 -23.5 -96t-60.5 -78t-78.5 -64t-78 -55t-60 -52t-23.5 -55v-38h293q14 0 24.5 -13.5t10.5 -32.5t-10.5 -33.5t-24.5 -14.5h-356z" />
    <glyph glyph-name="three" unicode="3" horiz-adv-x="509" 
d="M244 -6q-58 0 -100 16t-69 42t-39.5 57t-12.5 61q0 27 11.5 36t38.5 9q32 0 43 -9.5t11 -30.5q0 -16 7.5 -31.5t21.5 -28t36.5 -20t52.5 -7.5q62 0 91.5 29.5t29.5 94.5v19q0 60 -33.5 84.5t-87.5 24.5q-19 0 -27 13.5t-8 28.5q0 17 8 30t26 13q31 0 54.5 8.5t36.5 32.5
t13 69q0 55 -25.5 79t-74.5 24q-30 0 -50 -7t-32 -19t-17 -26t-5 -30q0 -19 -10.5 -31t-39.5 -12q-23 0 -35 4t-16 15t-4 30q0 24 10 53.5t33.5 56t64.5 43t102 16.5q59 0 104 -17t71 -56t26 -105q0 -63 -21.5 -106.5t-58.5 -60.5q44 -17 73 -54t29 -101v-19
q0 -79 -30.5 -127t-82.5 -69.5t-115 -21.5z" />
    <glyph glyph-name="four" unicode="4" horiz-adv-x="480" 
d="M337 0q-20 0 -36.5 9t-16.5 26v129h-245q-17 0 -27 10.5t-10 28.5q0 5 1.5 11t4.5 11l241 477q9 16 21.5 22.5t25.5 6.5q10 0 22 -5t21 -14t9 -22q0 -6 -4 -16l-207 -411h147v138q0 19 16.5 27t36.5 8t36.5 -8t16.5 -27v-138h50q18 0 26.5 -15.5t8.5 -34.5
q0 -18 -10.5 -33.5t-24.5 -15.5h-50v-129q0 -17 -16.5 -26t-36.5 -9z" />
    <glyph glyph-name="five" unicode="5" horiz-adv-x="495" 
d="M246 -6q-72 0 -122.5 25t-76.5 65.5t-26 86.5q0 29 14 39t38 10q33 0 43.5 -12t10.5 -30q0 -28 15.5 -48.5t42.5 -31t59 -10.5q56 0 88 30.5t32 95.5v19q0 64 -32 95t-87 31h-144q-27 0 -36.5 11.5t-9.5 29.5q0 7 0.5 12.5t1.5 11.5l23 272q2 16 7.5 25.5t16.5 9.5h297
q17 0 25 -14.5t8 -32.5t-8 -32.5t-25 -14.5h-231l-14 -194h89q64 0 114.5 -20t80.5 -66.5t30 -123.5v-19q0 -80 -30.5 -128.5t-81 -70t-112.5 -21.5z" />
    <glyph glyph-name="six" unicode="6" horiz-adv-x="538" 
d="M275 -6q-63 0 -114 22t-81 71t-30 130v291q0 81 30.5 130t82.5 71t117 22q56 0 97.5 -15.5t68.5 -41.5t40 -58t13 -63q0 -26 -12 -35.5t-38 -9.5q-21 0 -38 8.5t-17 31.5q0 28 -16 47.5t-42.5 30.5t-58.5 11q-57 0 -89 -31.5t-32 -97.5v-126q25 31 61.5 44t77.5 13
q57 0 103 -18.5t73.5 -63t27.5 -122.5v-18q0 -81 -29.5 -130t-80.5 -71t-114 -22zM275 82q56 0 87 31t31 98v17q0 69 -31 97.5t-88 28.5q-53 0 -85.5 -26.5t-32.5 -90.5v-26q0 -67 31.5 -98t87.5 -31z" />
    <glyph glyph-name="seven" unicode="7" horiz-adv-x="483" 
d="M150 -3q-16 0 -31.5 6.5t-25 18.5t-9.5 27q0 9 5 20l275 506v62h-237v-94q0 -15 -16.5 -25t-37.5 -10t-36.5 10t-15.5 25v153q0 13 14.5 24t32.5 11h355q16 0 31.5 -11t15.5 -24v-103q0 -12 -6 -28.5t-13 -30.5l-269 -521q-9 -16 -32 -16z" />
    <glyph glyph-name="eight" unicode="8" horiz-adv-x="522" 
d="M261 -6q-63 0 -114 20.5t-81 66t-30 119.5v12q0 77 32.5 122.5t83.5 64.5q-42 16 -67.5 54t-25.5 102t26.5 103t72 56t103.5 17q59 0 104.5 -17t72 -56t26.5 -103t-26 -102t-67 -54q52 -19 83 -64.5t31 -122.5v-12q0 -74 -29.5 -119.5t-80.5 -66t-114 -20.5zM262 82
q56 0 87 32t31 97v18q0 64 -31.5 94.5t-87.5 30.5q-55 0 -87 -30.5t-32 -94.5v-18q0 -67 32.5 -98t87.5 -31zM261 442q48 0 74.5 23.5t26.5 77.5q0 53 -26.5 76.5t-74.5 23.5q-47 0 -73.5 -23.5t-26.5 -76.5q0 -54 26.5 -77.5t73.5 -23.5z" />
    <glyph glyph-name="nine" unicode="9" horiz-adv-x="538" 
d="M259 -6q-56 0 -97.5 15.5t-68.5 41.5t-40.5 58t-13.5 63q0 26 12.5 35.5t37.5 9.5q21 0 38 -8t17 -32q0 -28 16 -47.5t42.5 -30.5t58.5 -11q57 0 89.5 31.5t32.5 97.5v126q-25 -31 -61.5 -44t-78.5 -13q-56 0 -102.5 18.5t-74 63t-27.5 122.5v18q0 81 30 130t80.5 71
t113.5 22q64 0 115 -22t81 -71t30 -130v-291q0 -81 -31 -130t-83 -71t-116 -22zM264 371q54 0 86.5 27t32.5 90v26q0 67 -32 98t-88 31q-55 0 -86.5 -31t-31.5 -98v-17q0 -69 31.5 -97.5t87.5 -28.5z" />
    <glyph glyph-name="colon" unicode=":" horiz-adv-x="212" 
d="M106 302q-26 0 -43 18t-17 42q0 25 17 42.5t43 17.5q24 0 41.5 -17.5t17.5 -42.5q0 -24 -17.5 -42t-41.5 -18zM106 -6q-26 0 -43 18t-17 42q0 25 17 42.5t43 17.5q24 0 41.5 -17.5t17.5 -42.5q0 -24 -17.5 -42t-41.5 -18z" />
    <glyph glyph-name="semicolon" unicode=";" horiz-adv-x="212" 
d="M90 -94q-12 0 -24 7.5t-12 20.5q0 7 3 13l22 53q-15 7 -24.5 21.5t-9.5 32.5q0 25 17 42.5t42 17.5q24 0 41.5 -17t17.5 -43q0 -3 -1 -9t-5.5 -19t-14.5 -38t-28 -67q-3 -8 -10 -11.5t-14 -3.5zM108 302q-25 0 -42 18t-17 42q0 25 17 42.5t42 17.5q24 0 41.5 -17.5
t17.5 -42.5q0 -24 -17.5 -42t-41.5 -18z" />
    <glyph glyph-name="less" unicode="&#x3c;" horiz-adv-x="414" 
d="M323 61q-9 0 -14 4l-263 172q-12 7 -17 18.5t-5 21.5t5.5 21.5t16.5 19.5l263 172q5 4 14 4q17 0 32.5 -14t15.5 -36q0 -20 -14 -29l-210 -138l210 -138q14 -8 14 -29t-15.5 -35t-32.5 -14z" />
    <glyph glyph-name="equal" unicode="=" horiz-adv-x="441" 
d="M92 311q-15 0 -24.5 12.5t-9.5 31.5t9.5 32t24.5 13h256q14 0 25 -13t11 -32t-11 -31.5t-25 -12.5h-256zM92 108q-15 0 -24.5 12.5t-9.5 31.5t9.5 32t24.5 13h256q14 0 25 -13t11 -32t-11 -31.5t-25 -12.5h-256z" />
    <glyph glyph-name="greater" unicode="&#x3e;" horiz-adv-x="414" 
d="M90 61q-16 0 -31.5 14t-15.5 35t14 29l210 138l-210 138q-14 9 -14 29q0 22 15.5 36t31.5 14q10 0 15 -4l263 -172q11 -8 16.5 -19.5t5.5 -21.5t-5.5 -21.5t-16.5 -18.5l-263 -172q-5 -4 -15 -4z" />
    <glyph glyph-name="question" unicode="?" horiz-adv-x="424" 
d="M185 188q-21 0 -30 9.5t-9 36.5q0 50 7.5 81.5t20.5 50.5t26 32q14 14 32 29t35 33t28.5 41.5t11.5 54.5q0 48 -31 74.5t-85 26.5q-35 0 -54.5 -9t-30.5 -21.5t-20 -22t-23 -9.5q-13 0 -27 10.5t-14 30.5q0 21 20.5 45t59.5 40.5t93 16.5q63 0 107.5 -22.5t68.5 -61.5
t24 -88q0 -42 -15 -74.5t-35.5 -58t-41 -43.5t-33.5 -31q-21 -19 -30 -39.5t-11 -44.5t-2 -56q0 -12 -9 -21.5t-33 -9.5zM186 -6q-26 0 -43 18t-17 42q0 25 17.5 42.5t42.5 17.5q24 0 41.5 -17.5t17.5 -42.5q0 -24 -17 -42t-42 -18z" />
    <glyph glyph-name="at" unicode="@" horiz-adv-x="734" 
d="M334 -121q-56 0 -107.5 20t-92.5 61t-64.5 104t-23.5 148q0 98 35 178.5t108.5 127.5t188.5 47q103 0 175 -38.5t109.5 -112t37.5 -177.5q0 -57 -14 -107t-44 -80.5t-79 -30.5q-41 0 -68.5 20.5t-34.5 49.5q-24 -29 -52.5 -46t-70.5 -17q-32 0 -61 11.5t-47 36.5t-18 65
q0 47 25.5 72.5t70.5 36t103 10.5h37v17q0 38 -21.5 56.5t-66.5 18.5q-31 0 -49 -6.5t-28.5 -13t-19.5 -6.5q-8 0 -14 7.5t-9.5 17t-3.5 16.5q0 17 20.5 30.5t52 21t63.5 7.5q44 0 78.5 -15t55 -43.5t20.5 -72.5v-168q4 -25 16 -37t28 -12q20 0 32 15t18.5 38t8.5 48t2 46
q0 132 -61.5 205t-191.5 73q-75 0 -125.5 -23t-80 -64t-42 -92.5t-12.5 -108.5q0 -53 11 -101.5t37.5 -86.5t71 -60t109.5 -22q42 0 68 7t42 13.5t27 6.5q13 0 20 -11.5t7 -19.5q0 -14 -17 -25t-44.5 -19t-58 -12t-56.5 -4zM354 86q27 0 48.5 12t34.5 31t13 38v41h-30
q-37 0 -64.5 -6t-43 -20.5t-15.5 -41.5q0 -28 16 -41t41 -13z" />
    <glyph glyph-name="A" unicode="A" horiz-adv-x="561" 
d="M79 0q-14 0 -30 6t-26 15.5t-10 22.5q0 3 1 9l199 648q6 18 25.5 27t41.5 9q23 0 42.5 -9t25.5 -27l198 -648q2 -6 2 -9q0 -12 -10.5 -22t-26 -16t-30.5 -6q-13 0 -22.5 5t-13.5 17l-41 142h-248l-40 -142q-3 -12 -13.5 -17t-23.5 -5zM180 249h200l-100 343z" />
    <glyph glyph-name="B" unicode="B" horiz-adv-x="553" 
d="M113 0q-21 0 -34 10t-13 24v662q0 17 15 26t32 9h182q54 0 100 -14t74 -51.5t28 -107.5q0 -63 -22.5 -104t-62.5 -58q31 -12 54 -31.5t36 -52t13 -83.5v-19q0 -77 -26 -123t-71 -66.5t-102 -20.5h-203zM171 94h125q54 0 83.5 29.5t29.5 94.5v16q0 66 -29.5 93t-83.5 27
h-125v-260zM171 438h120q51 0 75.5 26t24.5 77q0 34 -12.5 55t-35.5 31t-54 10h-118v-199z" />
    <glyph glyph-name="C" unicode="C" horiz-adv-x="541" 
d="M280 -6q-60 0 -110.5 22t-80.5 71t-30 130v291q0 81 30 130t81 71t111 22q69 0 119.5 -23.5t79 -64t28.5 -93.5q0 -34 -13 -44.5t-40 -10.5q-24 0 -38 8.5t-15 26.5q-1 13 -5 31t-15.5 35.5t-34.5 29t-63 11.5q-58 0 -89 -31.5t-31 -97.5v-291q0 -66 31.5 -97.5
t91.5 -31.5q38 0 60.5 11.5t33.5 29t15 37t6 35.5q1 19 15.5 27t36.5 8q28 0 41 -11t13 -44q0 -54 -28.5 -96.5t-79.5 -66.5t-120 -24z" />
    <glyph glyph-name="D" unicode="D" horiz-adv-x="573" 
d="M113 0q-21 0 -34 10t-13 24v663q0 14 13 24t34 10h177q63 0 114.5 -22t81 -71t29.5 -130v-285q0 -81 -29.5 -130t-81 -71t-114.5 -22h-177zM172 94h118q56 0 87.5 31.5t31.5 97.5v285q0 66 -31.5 97.5t-87.5 31.5h-118v-543z" />
    <glyph glyph-name="E" unicode="E" horiz-adv-x="522" 
d="M113 0q-17 0 -32 9t-15 26v661q0 17 15 26t32 9h356q19 0 27 -15t8 -31q0 -19 -9 -33.5t-26 -14.5h-297v-229h154q17 0 26 -13t9 -30q0 -14 -8 -27.5t-27 -13.5h-154v-230h297q17 0 26 -14t9 -34q0 -16 -8 -31t-27 -15h-356z" />
    <glyph glyph-name="F" unicode="F" horiz-adv-x="504" 
d="M119 0q-20 0 -36.5 8.5t-16.5 26.5v661q0 17 15 26t32 9h351q18 0 26 -15t8 -31q0 -19 -8.5 -33.5t-25.5 -14.5h-292v-229h155q17 0 25.5 -13t8.5 -30q0 -14 -8 -27.5t-26 -13.5h-155v-289q0 -18 -16.5 -26.5t-36.5 -8.5z" />
    <glyph glyph-name="G" unicode="G" horiz-adv-x="555" 
d="M283 -6q-64 0 -114.5 22t-80 71t-29.5 130v291q0 81 29.5 130t80 71t111.5 22q68 0 119 -23t80 -64t29 -98q0 -30 -13.5 -40.5t-39.5 -10.5q-21 0 -36.5 7.5t-16.5 27.5q-3 29 -14 53.5t-36 39t-69 14.5q-56 0 -87.5 -31.5t-31.5 -97.5v-291q0 -66 31.5 -97.5t87.5 -31.5
q55 0 87 31.5t32 97.5v82h-101q-16 0 -25 13t-9 30q0 15 9 28.5t25 13.5h172q17 0 26 -10.5t9 -25.5v-131q0 -81 -30 -130t-81 -71t-114 -22z" />
    <glyph glyph-name="H" unicode="H" horiz-adv-x="593" 
d="M119 0q-20 0 -36.5 9t-16.5 26v662q0 18 16.5 26t36.5 8t36.5 -8t16.5 -26v-276h249v276q0 18 16.5 26t36.5 8t36.5 -8t16.5 -26v-662q0 -17 -16.5 -26t-36.5 -9t-36.5 9t-16.5 26v302h-249v-302q0 -17 -16.5 -26t-36.5 -9z" />
    <glyph glyph-name="I" unicode="I" horiz-adv-x="238" 
d="M119 0q-20 0 -36.5 9t-16.5 26v662q0 18 16.5 26t36.5 8t36.5 -8t16.5 -26v-662q0 -17 -16.5 -26t-36.5 -9z" />
    <glyph glyph-name="J" unicode="J" horiz-adv-x="526" 
d="M242 -6q-66 0 -118 23.5t-81 66.5t-29 101q0 30 13.5 40.5t39.5 10.5q21 0 36.5 -7.5t16.5 -27.5q1 -29 13 -55t38 -42t67 -16q57 0 88.5 31.5t31.5 97.5v420h-117q-17 0 -26 14.5t-9 33.5q0 16 8 31t27 15h175q19 0 33.5 -9t14.5 -26v-479q0 -81 -30 -130t-80 -71
t-112 -22z" />
    <glyph glyph-name="K" unicode="K" horiz-adv-x="542" 
d="M119 0q-20 0 -36.5 9t-16.5 26v662q0 18 16.5 26t36.5 8t36.5 -8t16.5 -26v-304l244 323q11 15 30 15q13 0 27.5 -8t24 -20.5t9.5 -26.5q0 -4 -2 -10t-6 -11l-192 -240l228 -347q6 -9 6 -19q0 -13 -9 -25t-23.5 -19.5t-29.5 -7.5q-11 0 -21 4.5t-17 15.5l-204 309
l-65 -82v-209q0 -17 -16.5 -26t-36.5 -9z" />
    <glyph glyph-name="L" unicode="L" horiz-adv-x="475" 
d="M113 0q-17 0 -32 9t-15 26v662q0 18 16.5 26t36.5 8t36.5 -8t16.5 -26v-603h260q16 0 24 -14.5t8 -32.5q0 -17 -8 -32t-24 -15h-319z" />
    <glyph glyph-name="M" unicode="M" horiz-adv-x="687" 
d="M119 0q-20 0 -36.5 9t-16.5 26v643q0 30 16.5 41.5t36.5 11.5q19 0 33 -5.5t26 -18.5t25 -36l140 -265l142 265q13 23 24.5 36t25.5 18.5t33 5.5q21 0 37 -11.5t16 -41.5v-643q0 -17 -16.5 -26t-36.5 -9t-36.5 9t-16.5 26v480l-134 -248q-8 -13 -18 -18.5t-21 -5.5
q-9 0 -19 5t-17 19l-134 254v-486q0 -17 -16.5 -26t-36.5 -9z" />
    <glyph glyph-name="N" unicode="N" horiz-adv-x="593" 
d="M119 0q-20 0 -36.5 9t-16.5 26v661q0 19 16.5 27t36.5 8q19 0 32.5 -5.5t24.5 -18.5t23 -36l222 -433v459q0 18 16.5 26t36.5 8t36.5 -8t16.5 -26v-662q0 -17 -16.5 -26t-36.5 -9t-36 10t-27 29l-239 455v-459q0 -17 -16.5 -26t-36.5 -9z" />
    <glyph glyph-name="O" unicode="O" horiz-adv-x="566" 
d="M283 -6q-64 0 -114.5 22t-80 71t-29.5 130v291q0 81 29.5 130t80 71t114.5 22q63 0 114 -22t81 -71t30 -130v-291q0 -81 -30 -130t-81 -71t-114 -22zM283 88q55 0 87 31.5t32 97.5v291q0 66 -31.5 97.5t-87.5 31.5t-87.5 -31.5t-31.5 -97.5v-291q0 -66 31.5 -97.5
t87.5 -31.5z" />
    <glyph glyph-name="P" unicode="P" horiz-adv-x="546" 
d="M119 0q-20 0 -36.5 9t-16.5 26v662q0 14 11.5 24t29.5 10h195q61 0 111 -21.5t79 -70t29 -128.5v-8q0 -80 -29.5 -129t-81 -70.5t-114.5 -21.5h-124v-247q0 -17 -16.5 -26t-36.5 -9zM172 366h124q56 0 87.5 32t31.5 98v12q0 66 -31.5 97.5t-87.5 31.5h-124v-271z" />
    <glyph glyph-name="Q" unicode="Q" horiz-adv-x="566" 
d="M283 -109q-13 0 -24 9t-11 26v70q-55 5 -98 29t-67 71.5t-24 120.5v291q0 82 29.5 130.5t80 70.5t114.5 22q63 0 114 -22t81 -70.5t30 -130.5v-291q0 -73 -24.5 -120.5t-67.5 -71.5t-97 -29v-70q0 -17 -11.5 -26t-24.5 -9zM248 94v61q0 18 11 26t24 8t24.5 -8t11.5 -26
v-60q39 8 61 38t22 84v291q0 66 -32 97.5t-87 31.5q-56 0 -87.5 -31.5t-31.5 -97.5v-291q0 -54 22 -84t62 -39z" />
    <glyph glyph-name="R" unicode="R" horiz-adv-x="553" 
d="M460 -3q-13 0 -23.5 9t-17.5 22l-147 286h-100v-279q0 -17 -16.5 -26t-36.5 -9t-36.5 9t-16.5 26v662q0 14 9.5 24t26.5 10h190q63 0 115 -18.5t83 -63t31 -122.5q0 -60 -18.5 -100t-50 -63.5t-71.5 -34.5l140 -263q2 -3 3 -7.5t1 -7.5q0 -13 -10 -25.5t-24.5 -20.5
t-30.5 -8zM172 399h120q56 0 89.5 27t33.5 92t-33.5 92t-89.5 27h-120v-238z" />
    <glyph glyph-name="S" unicode="S" horiz-adv-x="511" 
d="M250 -8q-65 0 -115 19t-78 46.5t-28 52.5q0 12 6.5 25t17 22.5t22.5 9.5q14 0 26.5 -11.5t30.5 -27.5t45 -28t69 -12q36 0 64.5 11.5t45 35t16.5 59.5q0 38 -17.5 63t-47 42t-63.5 31t-69 30t-64 38.5t-46.5 57t-17.5 86.5q0 55 20.5 92t54.5 59t75 31.5t81 9.5
q25 0 55.5 -3.5t59.5 -12t48 -22.5t19 -34q0 -10 -5 -23.5t-14.5 -23.5t-24.5 -10q-13 0 -29 9.5t-41.5 19t-67.5 9.5q-36 0 -64.5 -10t-44.5 -29.5t-16 -51.5t17.5 -52.5t46.5 -35t63.5 -27.5t69 -30.5t64 -42.5t47 -63.5t17.5 -95.5q0 -72 -29.5 -119.5t-81 -70.5
t-117.5 -23z" />
    <glyph glyph-name="T" unicode="T" horiz-adv-x="506" 
d="M253 0q-20 0 -36.5 9t-16.5 26v599h-155q-16 0 -25 15t-9 34q0 18 8 33t26 15h415q19 0 27 -15t8 -32q0 -20 -8.5 -35t-26.5 -15h-154v-599q0 -17 -16.5 -26t-36.5 -9z" />
    <glyph glyph-name="U" unicode="U" horiz-adv-x="582" 
d="M291 -6q-64 0 -116 22t-82 71t-30 130v480q0 18 16 26t37 8q19 0 36 -8t17 -26v-480q0 -66 32 -97.5t90 -31.5q57 0 90 31.5t33 97.5v480q0 18 16 26t37 8q19 0 36 -8t17 -26v-480q0 -81 -30.5 -130t-82.5 -71t-116 -22z" />
    <glyph glyph-name="V" unicode="V" horiz-adv-x="560" 
d="M280 -6q-22 0 -41.5 9t-25.5 27l-199 648q-2 6 -2 9q0 13 10.5 22.5t26 15.5t29.5 6t24 -5t13 -17l165 -570l164 570q4 12 14 17t23 5q15 0 30 -6t25.5 -15.5t10.5 -22.5q0 -2 -0.5 -4t-0.5 -5l-198 -648q-6 -18 -25.5 -27t-42.5 -9z" />
    <glyph glyph-name="W" unicode="W" horiz-adv-x="845" 
d="M280 -6q-22 0 -42 9t-26 27l-198 648q-1 5 -1 10q0 13 10 22.5t25.5 15t30.5 5.5q13 0 23.5 -5t13.5 -17l163 -570l91 358q4 16 19.5 23.5t32.5 7.5q19 0 34 -7.5t19 -23.5l91 -358l163 570q4 12 14 17t23 5q15 0 30 -5.5t25.5 -15t10.5 -22.5q0 -5 -2 -10l-197 -648
q-6 -18 -25.5 -27t-42.5 -9q-22 0 -42 9t-24 27l-77 302l-75 -302q-5 -18 -24.5 -27t-42.5 -9z" />
    <glyph glyph-name="X" unicode="X" horiz-adv-x="530" 
d="M84 -3q-14 0 -30 7t-27 19t-11 26q0 10 7 21l172 296l-167 294q-8 14 -8 26q0 14 10 25t25.5 17t30.5 6t24.5 -8.5t15.5 -21.5l139 -256l139 256q7 13 17 21.5t23 8.5q15 0 30.5 -6t26 -17t10.5 -25q0 -12 -8 -26l-168 -294l173 -296q6 -11 6 -21q0 -14 -11 -26
t-26.5 -19t-30.5 -7q-11 0 -20 7.5t-14 16.5l-147 266l-147 -266q-5 -9 -13.5 -16.5t-20.5 -7.5z" />
    <glyph glyph-name="Y" unicode="Y" horiz-adv-x="556" 
d="M278 0q-20 0 -36.5 9t-16.5 26v253q0 6 -3 11l-207 373q-2 5 -2.5 8.5t-0.5 6.5q0 13 11 22.5t26.5 15.5t29.5 6q13 0 20.5 -6t13.5 -18l165 -317l164 317q7 12 14.5 18t20.5 6q14 0 29.5 -6t26.5 -15.5t11 -22.5q0 -3 -0.5 -6.5t-3.5 -8.5l-206 -373q-3 -5 -3 -11v-253
q0 -17 -16.5 -26t-36.5 -9z" />
    <glyph glyph-name="Z" unicode="Z" horiz-adv-x="506" 
d="M50 0q-17 0 -25 9t-8 22q0 18 11 37l310 569h-271q-16 0 -25.5 14t-9.5 33q0 17 8.5 32t26.5 15h373q17 0 25.5 -8.5t8.5 -21.5q0 -17 -12 -39l-310 -568h303q17 0 26 -15t9 -32t-9 -32t-26 -15h-405z" />
    <glyph glyph-name="bracketleft" unicode="[" horiz-adv-x="326" 
d="M107 -21q-17 0 -32 9t-15 26v719q0 17 15 26t32 9h168q17 0 25.5 -14.5t8.5 -31.5q0 -19 -9 -33.5t-25 -14.5h-109v-601h109q16 0 25 -14t9 -34q0 -17 -8.5 -31.5t-25.5 -14.5h-168z" />
    <glyph glyph-name="backslash" unicode="\" horiz-adv-x="364" 
d="M302 -1q-11 0 -20.5 6.5t-12.5 17.5l-245 682q-2 6 -2 12q0 15 12.5 26.5t28.5 11.5q11 0 20 -5t13 -17l245 -685q1 -3 1 -5.5v-5.5q0 -14 -11.5 -26t-28.5 -12z" />
    <glyph glyph-name="bracketright" unicode="]" horiz-adv-x="326" 
d="M51 -21q-18 0 -26 14.5t-8 31.5q0 20 9 34t25 14h109v601h-109q-16 0 -25 14.5t-9 33.5q0 17 8 31.5t26 14.5h168q18 0 32.5 -9t14.5 -26v-719q0 -17 -14.5 -26t-32.5 -9h-168z" />
    <glyph glyph-name="asciicircum" unicode="^" horiz-adv-x="279" 
d="M26 582q-11 0 -18.5 10.5t-7.5 24.5q0 9 4.5 17.5t13.5 13.5l104 56q9 5 17 5t17 -5l104 -55q11 -5 15 -14.5t4 -18.5q0 -13 -7 -23.5t-19 -10.5q-2 0 -4.5 1t-5.5 2l-104 56l-104 -56q-2 -1 -4.5 -2t-4.5 -1z" />
    <glyph glyph-name="underscore" unicode="_" horiz-adv-x="322" 
d="M1 -89q-15 0 -24.5 12.5t-9.5 31.5t9.5 32t24.5 13h320q14 0 25 -13t11 -32t-11 -31.5t-25 -12.5h-320z" />
    <glyph glyph-name="grave" unicode="`" horiz-adv-x="184" 
d="M150 577q-4 0 -7 1l-6 2l-121 61q-16 8 -16 27q0 14 9.5 27.5t24.5 13.5q5 0 11 -2l124 -63q15 -8 15 -26q0 -14 -9.5 -27.5t-24.5 -13.5z" />
    <glyph glyph-name="a" unicode="a" horiz-adv-x="459" 
d="M158 -8q-55 0 -94 32.5t-39 99.5q0 57 30 88t82.5 43t121.5 12h44v18q0 26 -9.5 50.5t-31 41t-58.5 16.5t-57 -7t-32 -15t-22 -8q-18 0 -28 17.5t-10 35.5t23.5 32.5t58.5 23t69 8.5q74 0 118 -27.5t64 -71.5t20 -95v-251q0 -14 -14.5 -24.5t-36.5 -10.5q-20 0 -34 10.5
t-14 24.5v35q-26 -30 -63 -54t-88 -24zM196 72q25 0 49.5 15t41 38t16.5 47v37h-25q-38 0 -72 -4.5t-54.5 -20t-20.5 -47.5q0 -34 18.5 -49.5t46.5 -15.5z" />
    <glyph glyph-name="b" unicode="b" horiz-adv-x="506" 
d="M293 -8q-47 0 -84.5 23.5t-53.5 54.5v-35q0 -13 -14 -24t-34 -11q-22 0 -36.5 11t-14.5 24v687q0 15 14.5 24.5t36.5 9.5q23 0 38.5 -9.5t15.5 -24.5v-318q16 29 49 52.5t80 23.5q49 0 89.5 -26.5t65 -71t24.5 -99.5v-92q0 -52 -24.5 -97.5t-64.5 -73.5t-87 -28zM263 85
q27 0 50 15t37 40t14 51v92q0 26 -14 50t-37 39t-51 15q-25 0 -48 -12.5t-38 -35.5t-15 -56v-115q0 -12 13.5 -31.5t36.5 -35.5t52 -16z" />
    <glyph glyph-name="c" unicode="c" horiz-adv-x="425" 
d="M247 -8q-72 0 -118.5 26t-68.5 71t-22 102v90q0 56 22 101.5t68 71.5t117 26q46 0 80.5 -11t54 -27.5t19.5 -34.5q0 -9 -5.5 -21.5t-15 -21t-22.5 -8.5q-10 0 -21.5 8t-30.5 15.5t-51 7.5q-56 0 -83 -28t-27 -78v-90q0 -50 27 -78t84 -28q33 0 52 8.5t30.5 16.5t22.5 8
q14 0 24.5 -8t16 -20t5.5 -22q0 -17 -20.5 -35t-56 -29.5t-81.5 -11.5z" />
    <glyph glyph-name="d" unicode="d" horiz-adv-x="506" 
d="M213 -8q-47 0 -87 28t-64.5 73.5t-24.5 97.5v92q0 55 24.5 99.5t64.5 71t89 26.5q48 0 81 -23.5t49 -52.5v318q0 15 16 24.5t38 9.5t36.5 -9.5t14.5 -24.5v-687q0 -13 -14.5 -24t-36.5 -11q-19 0 -33.5 11t-14.5 24v35q-15 -31 -53 -54.5t-85 -23.5zM243 85q29 0 52 16
t36.5 35.5t13.5 31.5v115q0 33 -15 56t-38 35.5t-48 12.5q-28 0 -51.5 -15t-37 -39t-13.5 -50v-92q0 -26 13.5 -51t36.5 -40t51 -15z" />
    <glyph glyph-name="e" unicode="e" horiz-adv-x="475" 
d="M269 -8q-68 0 -120 25t-82 69.5t-30 104.5v95q0 53 28.5 97t75.5 70.5t104 26.5q54 0 99 -23.5t72.5 -65.5t27.5 -96q0 -42 -13 -60t-34 -22t-44 -4h-211v-23q0 -50 36.5 -79.5t93.5 -29.5q35 0 57 10t37 19t28 9t22 -8t14 -19t5 -20q0 -15 -20.5 -33t-57.5 -30.5
t-88 -12.5zM142 274h166q22 0 29.5 6t7.5 24q0 26 -13 48.5t-36 35t-52 12.5q-28 0 -51 -12t-37 -33t-14 -49v-32z" />
    <glyph glyph-name="f" unicode="f" horiz-adv-x="327" 
d="M107 0q-22 0 -36.5 9.5t-14.5 24.5v531q0 54 24 97.5t64 68.5t88 25h47q20 0 30.5 -14t10.5 -31q0 -18 -10.5 -31.5t-30.5 -13.5h-27q-26 0 -46.5 -12t-32.5 -32.5t-12 -46.5v-101h129q15 0 22.5 -12t7.5 -27t-7.5 -27t-22.5 -12h-129v-362q0 -15 -16 -24.5t-38 -9.5z
" />
    <glyph glyph-name="g" unicode="g" horiz-adv-x="465" 
d="M234 -225q-58 0 -107 16.5t-78 47.5t-29 74q0 40 23 66.5t54 40.5q-20 9 -33 24t-13 42q0 28 14 45t36 31q-28 22 -43.5 54.5t-15.5 71.5v28q0 48 23 85t65.5 58t97.5 21q34 0 63.5 -9t52.5 -25q16 37 32.5 52t31.5 15q21 0 32 -12t11 -24q0 -8 -4.5 -14.5t-12.5 -10.5
q-10 -5 -23.5 -13.5t-26.5 -26.5q17 -19 25 -44t8 -52v-28q0 -47 -24 -85t-67 -59.5t-98 -21.5q-39 0 -69 12q-8 -5 -13.5 -11.5t-5.5 -16.5q0 -18 22 -26t56.5 -12t73.5 -10t73.5 -19.5t56.5 -40t22 -72.5q0 -52 -29 -85.5t-76.5 -49.5t-104.5 -16zM232 -155
q49 0 79.5 21.5t30.5 56.5q0 25 -15 39t-39 21t-50.5 10t-50.5 6q-28 -10 -47.5 -28.5t-19.5 -46.5q0 -37 31.5 -58t80.5 -21zM230 189q40 0 62.5 28t22.5 71v28q0 41 -22.5 69t-63.5 28t-63 -28t-22 -69v-27q0 -42 22 -71t64 -29z" />
    <glyph glyph-name="h" unicode="h" horiz-adv-x="513" 
d="M108 0q-23 0 -37.5 11t-14.5 24v687q0 15 14.5 24.5t37.5 9.5q22 0 37.5 -9.5t15.5 -24.5v-318q15 29 47.5 52.5t80.5 23.5q47 0 86.5 -26.5t63.5 -71t24 -99.5v-248q0 -17 -16.5 -26t-36.5 -9q-18 0 -35 9t-17 26v248q0 26 -14 50t-36.5 39t-50.5 15q-24 0 -46 -12.5
t-36 -35.5t-14 -56v-248q0 -13 -15.5 -24t-37.5 -11z" />
    <glyph glyph-name="i" unicode="i" horiz-adv-x="214" 
d="M107 0q-23 0 -37.5 11t-14.5 24v405q0 15 14.5 24.5t37.5 9.5q22 0 37.5 -9.5t15.5 -24.5v-405q0 -13 -15.5 -24t-37.5 -11zM107 593q-26 0 -44 17t-18 38q0 23 18 39t44 16q25 0 42.5 -16t17.5 -39q0 -21 -17.5 -38t-42.5 -17z" />
    <glyph glyph-name="j" unicode="j" horiz-adv-x="215" 
d="M16 -225q-31 0 -42.5 14t-11.5 30q0 21 12 33.5t29 12.5q23 0 34.5 12.5t14.5 35t3 51.5v476q0 15 14.5 24.5t36.5 9.5q23 0 38.5 -9.5t15.5 -24.5v-476q0 -55 -15.5 -98t-47.5 -67t-81 -24zM107 593q-25 0 -43 17t-18 38q0 23 18 39t43 16t42.5 -16t17.5 -39
q0 -21 -17.5 -38t-42.5 -17z" />
    <glyph glyph-name="k" unicode="k" horiz-adv-x="479" 
d="M107 0q-22 0 -36.5 11t-14.5 24v687q0 15 14.5 24.5t36.5 9.5q23 0 38.5 -9.5t15.5 -24.5v-445l209 192q9 9 22 9q12 0 23.5 -7.5t19.5 -19t8 -23.5q0 -6 -2 -11.5t-7 -10.5l-129 -115l157 -226q6 -10 6 -18q0 -13 -9.5 -25t-23 -20t-26.5 -8q-18 0 -28 15l-147 217
l-73 -66v-125q0 -13 -15.5 -24t-38.5 -11z" />
    <glyph glyph-name="l" unicode="l" horiz-adv-x="232" 
d="M116 0q-23 0 -37.5 11t-14.5 24v687q0 15 14.5 24.5t37.5 9.5q22 0 37.5 -9.5t15.5 -24.5v-687q0 -13 -15.5 -24t-37.5 -11z" />
    <glyph glyph-name="m" unicode="m" horiz-adv-x="794" 
d="M107 0q-23 0 -37.5 11t-14.5 24v405q0 15 14.5 24.5t37.5 9.5q19 0 33 -9.5t14 -24.5v-36q17 29 50 52.5t83 23.5q45 0 79.5 -28t51.5 -72q26 51 67 75.5t84 24.5q45 0 84.5 -23t64.5 -67t25 -107v-248q0 -13 -15.5 -24t-37.5 -11q-21 0 -36.5 11t-15.5 24v248
q0 34 -13.5 57.5t-35 35.5t-44.5 12q-24 0 -45 -12.5t-35 -35t-14 -55.5v-251q0 -18 -16.5 -26t-36.5 -8q-18 0 -35 8t-17 26v250q0 32 -13 55t-34 35.5t-46 12.5q-23 0 -44.5 -12t-35 -35t-13.5 -57v-248q0 -13 -15.5 -24t-37.5 -11z" />
    <glyph glyph-name="n" unicode="n" horiz-adv-x="512" 
d="M107 0q-23 0 -37.5 11t-14.5 24v405q0 15 14.5 24.5t37.5 9.5q19 0 33 -9.5t14 -24.5v-36q15 29 49.5 52.5t84.5 23.5q47 0 86.5 -26.5t63.5 -71t24 -99.5v-248q0 -17 -16.5 -26t-36.5 -9q-18 0 -35 9t-17 26v248q0 26 -13.5 50t-36.5 39t-51 15q-24 0 -46 -12.5
t-36 -35.5t-14 -56v-248q0 -13 -15.5 -24t-37.5 -11z" />
    <glyph glyph-name="o" unicode="o" horiz-adv-x="486" 
d="M242 -8q-54 0 -101 28t-75.5 73.5t-28.5 97.5v92q0 53 27.5 98t75 72t103.5 27t103 -26.5t75.5 -71t28.5 -99.5v-92q0 -51 -28.5 -97t-76 -74t-103.5 -28zM243 85q28 0 51 15t37 39.5t14 51.5v92q0 26 -14 50t-37 39t-51 15q-29 0 -51.5 -15t-36 -39t-13.5 -50v-92
q0 -27 13.5 -51.5t36.5 -39.5t51 -15z" />
    <glyph glyph-name="p" unicode="p" horiz-adv-x="506" 
d="M107 -225q-22 0 -36.5 11t-14.5 24v630q0 15 14.5 24.5t35.5 9.5t35 -9.5t14 -24.5v-36q17 29 51.5 52.5t82.5 23.5q50 0 91 -26.5t65 -71t24 -99.5v-92q0 -52 -24.5 -97.5t-64.5 -73.5t-87 -28q-45 0 -81 23.5t-51 54.5v-260q0 -13 -15.5 -24t-38.5 -11zM262 85
q27 0 50 15t37.5 40t14.5 51v92q0 26 -14 50t-37.5 39t-52.5 15q-24 0 -47 -12.5t-37.5 -35.5t-14.5 -56v-115q0 -12 13 -31.5t36 -35.5t52 -16z" />
    <glyph glyph-name="q" unicode="q" horiz-adv-x="506" 
d="M399 -225q-22 0 -38 11t-16 24v260q-14 -31 -50.5 -54.5t-81.5 -23.5q-47 0 -87 28t-64.5 73.5t-24.5 97.5v92q0 55 24 99.5t65 71t91 26.5q48 0 83 -23.5t51 -52.5v36q0 15 14 24.5t35 9.5t35.5 -9.5t14.5 -24.5v-630q0 -13 -14.5 -24t-36.5 -11zM244 85q30 0 52.5 16
t35.5 35.5t13 31.5v115q0 33 -14.5 56t-37.5 35.5t-47 12.5q-29 0 -52.5 -15t-37.5 -39t-14 -50v-92q0 -26 14.5 -51t37.5 -40t50 -15z" />
    <glyph glyph-name="r" unicode="r" horiz-adv-x="358" 
d="M106 0q-22 0 -36.5 11t-14.5 24v405q0 15 14.5 24.5t36.5 9.5q20 0 34 -9.5t14 -24.5v-44q11 21 29.5 40t43.5 31.5t54 12.5h32q16 0 28 -13.5t12 -32.5t-12 -33t-28 -14h-32q-30 0 -58 -18t-45.5 -50.5t-17.5 -78.5v-205q0 -13 -15.5 -24t-38.5 -11z" />
    <glyph glyph-name="s" unicode="s" horiz-adv-x="406" 
d="M200 -8q-49 0 -88 12t-61.5 30.5t-22.5 37.5q0 9 4.5 20t13 19t18.5 8q13 0 27.5 -11.5t38.5 -23t67 -11.5q50 0 67.5 17t17.5 37q0 26 -17.5 40.5t-45 23.5t-58.5 17.5t-58.5 22.5t-45 39t-17.5 66q0 34 17 67.5t54.5 55t100.5 21.5q38 0 72 -8t56 -21.5t22 -29.5
q0 -7 -5 -19.5t-13.5 -22t-21.5 -9.5q-10 0 -25 7.5t-35 14.5t-49 7t-46.5 -9.5t-25.5 -22.5t-8 -26q0 -22 17 -34t45 -20t59 -16.5t58.5 -24.5t45 -43t17.5 -72q0 -63 -45.5 -101t-129.5 -38z" />
    <glyph glyph-name="t" unicode="t" horiz-adv-x="326" 
d="M228 0q-85 0 -130 37.5t-45 118.5v501q0 15 16.5 24.5t35.5 9.5t36 -9.5t17 -24.5v-183h122q14 0 21.5 -12t7.5 -27t-7.5 -27t-21.5 -12h-122v-240q0 -36 15.5 -51t54.5 -15h34q23 0 34.5 -13.5t11.5 -31.5q0 -17 -11.5 -31t-34.5 -14h-34z" />
    <glyph glyph-name="u" unicode="u" horiz-adv-x="513" 
d="M257 -8q-56 0 -103.5 27.5t-75.5 73t-28 96.5v250q0 13 15.5 24t37.5 11q21 0 36.5 -11t15.5 -24v-250q0 -26 13.5 -50t37 -39t51.5 -15t51 15t36.5 39t13.5 50v251q0 14 16.5 24t36.5 10q23 0 37.5 -10t14.5 -24v-251q0 -53 -28 -98t-75 -72t-103 -27z" />
    <glyph glyph-name="v" unicode="v" horiz-adv-x="457" 
d="M229 -10q-17 0 -30.5 5.5t-17.5 15.5l-168 405q-1 3 -2.5 8t-1.5 9q0 13 11.5 23t27 16t29.5 6q10 0 19.5 -4.5t12.5 -14.5l120 -316l118 314q4 10 12 15.5t20 5.5q11 0 27.5 -6t29 -16.5t12.5 -22.5q0 -5 -1 -9t-3 -8l-167 -405q-5 -10 -18.5 -15.5t-29.5 -5.5z" />
    <glyph glyph-name="w" unicode="w" horiz-adv-x="682" 
d="M210 -10q-14 0 -25 5t-16 18l-155 404q-2 5 -3.5 9.5t-1.5 7.5q0 13 11 22.5t26.5 15.5t29.5 6q11 0 20 -4.5t12 -14.5l111 -311l85 276q5 15 15 19t22 4q13 0 23 -4t15 -19l83 -278l112 313q6 19 31 19q14 0 29.5 -5.5t26.5 -15.5t11 -24q0 -3 -1 -8t-3 -8l-155 -406
q-4 -12 -15.5 -16.5t-25.5 -4.5q-16 0 -27.5 5t-15.5 15l-88 258l-86 -255q-4 -12 -16.5 -17.5t-28.5 -5.5z" />
    <glyph glyph-name="x" unicode="x" horiz-adv-x="446" 
d="M88 -8q-12 0 -27.5 7.5t-27 19.5t-11.5 25q0 10 6 19l124 178l-117 168q-3 3 -5 8t-2 10q0 13 11.5 25t27.5 20t29 8q5 0 13 -2t13 -10l101 -160l102 159q5 8 12.5 10.5t14.5 2.5q12 0 28 -7.5t27.5 -20t11.5 -25.5q0 -8 -7 -18l-118 -169l124 -177q3 -3 5 -8t2 -11
q0 -11 -11 -23.5t-26.5 -20.5t-29.5 -8q-7 0 -14.5 2.5t-11.5 9.5l-109 165l-108 -165q-4 -6 -12.5 -9t-14.5 -3z" />
    <glyph glyph-name="y" unicode="y" horiz-adv-x="454" 
d="M57 -225q-20 0 -34 8.5t-14 36.5q0 18 6 31.5t22 13.5q19 0 41.5 9.5t44 30t37 51.5t21.5 73l-169 388q-4 7 -4 14q0 13 11.5 24.5t27.5 18.5t30 7q10 0 19.5 -4.5t12.5 -14.5l126 -325l109 325q3 10 12 14.5t18 4.5q12 0 28.5 -7t29 -18.5t12.5 -26.5q0 -8 -3 -12
l-150 -391q-16 -43 -33 -87.5t-41.5 -81.5t-63 -59.5t-96.5 -22.5z" />
    <glyph glyph-name="z" unicode="z" horiz-adv-x="422" 
d="M59 0q-20 0 -29 12t-9 26q0 12 5.5 23t12.5 19l214 307h-190q-14 0 -23.5 13t-9.5 31t9 30.5t24 12.5h290q14 0 24.5 -9t10.5 -28q0 -22 -16 -43l-215 -307h213q13 0 23 -12.5t10 -31.5q0 -17 -9 -30t-24 -13h-311z" />
    <glyph glyph-name="braceleft" unicode="{" horiz-adv-x="340" 
d="M266 -20q-51 0 -96.5 20t-74 55.5t-28.5 82.5q0 10 1.5 29.5t4.5 43t5.5 46.5t4 40t1.5 23q0 15 -9 19.5t-21 7t-21 10.5t-9 29q0 20 9 28t21 10.5t21 7t9 17.5q0 8 -2.5 27.5t-6 43t-6 45.5t-2.5 34q0 33 16.5 63.5t45 54t64.5 37.5t74 14q33 0 45.5 -15t12.5 -32
q0 -15 -9 -29.5t-25 -14.5q-26 0 -53.5 -10.5t-46 -31t-18.5 -50.5q0 -10 2.5 -30.5t6 -44.5t6 -44t2.5 -28q0 -20 -13 -35.5t-22 -18.5q10 -3 22.5 -18t12.5 -35q0 -9 -2.5 -34.5t-6 -55.5t-6 -56t-2.5 -36q0 -24 12.5 -39t31.5 -23.5t39 -12t35 -3.5q14 0 21 -7.5t10 -18
t3 -19.5q0 -23 -15.5 -34.5t-43.5 -11.5z" />
    <glyph glyph-name="bar" unicode="|" horiz-adv-x="225" 
d="M112 -21q-22 0 -37 11t-15 24v720q0 15 15 24.5t37 9.5t37.5 -9.5t15.5 -24.5v-720q0 -13 -15.5 -24t-37.5 -11z" />
    <glyph glyph-name="braceright" unicode="}" horiz-adv-x="340" 
d="M74 -20q-27 0 -43 11.5t-16 34.5q0 9 3 19.5t10.5 18t21.5 7.5t34 3.5t39.5 12t32 23.5t12.5 39q0 10 -3 36t-6 56t-6 55.5t-3 34.5q0 20 13 35t23 18q-10 3 -23 18.5t-13 35.5q0 8 3 28t6 44t6 44.5t3 30.5q0 30 -18.5 50.5t-46 31t-53.5 10.5q-17 0 -26 14.5t-9 29.5
q0 17 12.5 32t45.5 15q38 0 74.5 -14t64.5 -37.5t45 -54t17 -63.5q0 -12 -3 -34t-6 -45.5t-6 -43t-3 -27.5q0 -13 9 -17.5t21 -7t21 -10.5t9 -28q0 -21 -9 -29t-21 -10.5t-21 -7t-9 -19.5q0 -6 2 -23t5 -40t5 -46.5t4 -43t2 -29.5q0 -47 -29 -82.5t-74 -55.5t-97 -20z" />
    <glyph glyph-name="asciitilde" unicode="~" horiz-adv-x="406" 
d="M284 205q-31 0 -52.5 8t-41 15.5t-45.5 7.5q-21 0 -35 -6.5t-24 -13.5t-20 -7t-16 7t-9 15.5t-3 13.5q0 20 10 32t24 19.5t29 10t24 2.5q29 0 49.5 -7.5t41.5 -15.5t47 -8q22 0 35.5 6.5t23 13t18.5 6.5q11 0 17 -7t8.5 -15t2.5 -13q0 -21 -9.5 -33t-23.5 -19t-28 -9.5
t-23 -2.5z" />
    <glyph glyph-name="uni007F" 
 />
    <glyph glyph-name="uni00A0" unicode="&#xa0;" 
 />
    <glyph glyph-name="exclamdown" unicode="&#xa1;" horiz-adv-x="214" 
d="M106 -6q-21 0 -36.5 12.5t-15.5 35.5q0 73 3 154.5t6 162.5t3 153q0 17 14 24.5t26 7.5q17 0 29.5 -7.5t12.5 -24.5q0 -72 3 -153t6 -162.5t3 -154.5q0 -23 -15.5 -35.5t-38.5 -12.5zM106 618q-24 0 -41.5 18t-17.5 42t17.5 42t41.5 18q25 0 42.5 -18t17.5 -42t-17.5 -42
t-42.5 -18z" />
    <glyph glyph-name="cent" unicode="&#xa2;" horiz-adv-x="430" 
d="M235 39q-13 0 -22.5 10t-9.5 22v91q-89 10 -130.5 65t-41.5 132v19q0 52 18 94t56 69.5t98 34.5v88q0 14 9.5 22.5t22.5 8.5t23.5 -8.5t10.5 -22.5v-89q35 -3 63.5 -13.5t45 -25t16.5 -31.5q0 -10 -6 -22t-15.5 -19.5t-21.5 -7.5q-9 0 -18.5 6.5t-24 14t-39.5 9.5v-234
q25 3 39.5 11t24 14.5t18.5 6.5q21 0 33.5 -16t12.5 -33q0 -16 -17.5 -31.5t-46.5 -26.5t-64 -15v-91q0 -12 -10.5 -22t-23.5 -10zM203 252v234q-41 -9 -60 -37t-19 -71v-19q0 -42 19 -70t60 -37z" />
    <glyph glyph-name="sterling" unicode="&#xa3;" horiz-adv-x="522" 
d="M56 0q-17 0 -25.5 15t-8.5 32q0 18 8.5 32.5t25.5 14.5h55l38 272h-63q-14 0 -21.5 12t-7.5 28q0 15 7.5 27t21.5 12h74l18 119q8 58 43 104.5t87.5 73t110.5 26.5h30q18 0 27.5 -14.5t9.5 -32.5q0 -17 -9.5 -31.5t-27.5 -14.5h-35q-37 0 -65 -15.5t-45 -40.5t-21 -55
l-18 -119h131q14 0 21.5 -12.5t7.5 -26.5q0 -15 -7.5 -27.5t-21.5 -12.5h-142l-39 -272h238q17 0 25 -14.5t8 -32.5q0 -17 -8 -32t-25 -15h-397z" />
    <glyph glyph-name="currency" unicode="&#xa4;" horiz-adv-x="460" 
d="M231 290q-31 0 -60 11.5t-52 31.5l-28 -26q-5 -5 -13 -5q-10 0 -17.5 8t-7.5 17q0 7 5 13l30 28q-16 22 -25 48.5t-9 55.5q0 28 9 55t24 49l-26 25q-5 6 -5 13q0 10 7.5 17.5t17.5 7.5q8 0 14 -5l24 -24q23 20 51.5 31t60.5 11q30 0 58 -10.5t51 -28.5l26 24q6 5 14 5
q9 0 17 -8t8 -17q0 -7 -6 -13l-27 -26q17 -22 27 -49t10 -56q0 -30 -10 -57t-27 -50l27 -26q6 -7 6 -13q0 -9 -8 -17t-17 -8q-8 0 -14 5l-26 24q-23 -19 -51 -30t-58 -11zM231 353q32 0 58 17t41.5 44t15.5 57q0 31 -15 57.5t-41.5 43.5t-58.5 17t-58 -16.5t-41.5 -43.5
t-15.5 -57q0 -31 15.5 -58t41.5 -44t58 -17z" />
    <glyph glyph-name="yen" unicode="&#xa5;" horiz-adv-x="542" 
d="M270 0q-20 0 -36.5 9t-16.5 26v131h-99q-15 0 -25 10.5t-10 26.5q0 17 10 28t25 11h99v68h-99q-15 0 -25 10.5t-10 26.5q0 17 10 28.5t25 11.5h75l-166 290q-2 3 -3 7t-1 7q0 11 9.5 21t24 16.5t28.5 6.5q12 0 19 -7t13 -18l153 -291l156 291q6 11 13.5 18t18.5 7
q14 0 28 -6.5t23.5 -16.5t9.5 -21q0 -8 -3 -14l-170 -290h79q14 0 25 -11t11 -28q0 -16 -11 -27t-25 -11h-103v-68h103q14 0 25 -11t11 -27q0 -17 -11 -27.5t-25 -10.5h-103v-131q0 -17 -16 -26t-36 -9z" />
    <glyph glyph-name="brokenbar" unicode="&#xa6;" horiz-adv-x="226" 
d="M113 440q-23 0 -38 11t-15 24v259q0 15 15 24.5t38 9.5q21 0 37 -9.5t16 -24.5v-259q0 -13 -16 -24t-37 -11zM113 -21q-23 0 -38 11t-15 24v258q0 15 15 25t38 10q21 0 37 -10t16 -25v-258q0 -13 -16 -24t-37 -11z" />
    <glyph glyph-name="section" unicode="&#xa7;" horiz-adv-x="475" 
d="M234 -68q-61 0 -104 24.5t-64.5 62.5t-21.5 80q0 25 12.5 34t33.5 9q26 0 35.5 -9t9.5 -22t4 -28.5t13 -29.5t27 -23t48 -9q50 0 74 25t24 65q0 30 -15 48.5t-39.5 31.5t-53.5 24t-58 25.5t-53.5 36t-39.5 55t-15 84.5v114q0 61 18 100t46 61t60.5 31t62.5 9
q58 0 97 -23.5t58 -60.5t19 -80q0 -27 -11.5 -35.5t-29.5 -8.5q-25 0 -35.5 10.5t-10.5 27.5q0 16 -6.5 35.5t-24.5 33.5t-52 14q-26 0 -47.5 -10.5t-33.5 -31t-12 -52.5q0 -30 15 -48.5t40.5 -31.5t56 -24.5t60 -25.5t55 -35.5t40.5 -55.5t15 -84v-113q0 -57 -17 -95.5
t-46 -61.5t-64 -33t-70 -10zM343 232v24q0 36 -15 58t-39 35.5t-51.5 23t-53 20.5t-44.5 29v-24q0 -36 15.5 -58t39 -35.5t51.5 -23t53.5 -20.5t43.5 -29z" />
    <glyph glyph-name="dieresis" unicode="&#xa8;" horiz-adv-x="230" 
d="M185 583q-19 0 -32 14t-13 33t13 32.5t32 13.5t32 -13.5t13 -32.5t-13 -33t-32 -14zM46 583q-19 0 -32.5 14t-13.5 33t13.5 32.5t32.5 13.5t31.5 -13.5t12.5 -32.5t-12.5 -33t-31.5 -14z" />
    <glyph glyph-name="copyright" unicode="&#xa9;" horiz-adv-x="700" 
d="M347 35q-53 0 -106.5 20t-98.5 60t-72 101t-27 142q0 84 28.5 145.5t74.5 101.5t100.5 60t106.5 20q53 0 106.5 -20t98.5 -60t72 -101t27 -142q0 -84 -28.5 -145.5t-74.5 -101.5t-100.5 -60t-106.5 -20zM347 90q75 0 132.5 34.5t90 96t32.5 141.5q0 78 -31 138.5
t-86.5 95t-131.5 34.5q-74 0 -132 -34.5t-90.5 -95.5t-32.5 -142q0 -77 31 -138t87 -95.5t131 -34.5zM351 170q-47 0 -80.5 28t-33.5 96v146q0 68 34 96t80 28q52 0 84.5 -27.5t32.5 -74.5q0 -19 -7.5 -25.5t-23.5 -6.5q-13 0 -22 5t-10 16q0 9 -3 22.5t-14 24t-35 10.5
q-53 0 -53 -68v-146q0 -68 54 -68q23 0 33.5 10.5t14 24.5t3.5 26q1 12 10 16.5t22 4.5q16 0 23.5 -7t7.5 -26q0 -47 -32.5 -76t-84.5 -29z" />
    <glyph glyph-name="ordfeminine" unicode="&#xaa;" horiz-adv-x="325" 
d="M135 435q-6 -1 -14 -1.5t-15 -0.5q-31 3 -54 23.5t-23 62.5q0 55 42.5 74.5t110.5 19.5h28v11q0 24 -14 46t-49 22q-24 0 -37.5 -5t-21 -10t-14.5 -5q-12 0 -19 12t-7 25q0 12 16 22t39 16t45 6q50 0 79.5 -18.5t42.5 -47.5t13 -63v-162q0 -10 -10 -17.5t-26 -7.5
q-14 0 -23.5 7.5t-9.5 17.5v21q-14 -16 -33.5 -30t-45.5 -18zM143 488q15 0 30.5 9t26 24t10.5 31v21h-24q-21 0 -40.5 -3.5t-31.5 -13t-12 -28.5q0 -21 11.5 -30.5t29.5 -9.5z" />
    <glyph glyph-name="guillemotleft" unicode="&#xab;" horiz-adv-x="464" 
d="M364 74q-23 0 -31 15l-79 147q-8 15 -13 23t-5 17q0 11 5 19.5t13 22.5l79 148q8 14 32 14q17 0 31.5 -8.5t23 -20.5t8.5 -23q0 -6 -3 -12l-74 -139l74 -139q3 -5 3 -11q0 -11 -8.5 -23.5t-23.5 -21t-32 -8.5zM157 74q-23 0 -31 15l-79 147q-7 15 -12.5 23t-5.5 17
q0 11 5.5 19.5t12.5 22.5l79 148q8 14 32 14q17 0 31.5 -8.5t23.5 -20.5t9 -23q0 -6 -3 -12l-75 -139l75 -139q3 -5 3 -11q0 -11 -9 -23.5t-24 -21t-32 -8.5z" />
    <glyph glyph-name="logicalnot" unicode="&#xac;" horiz-adv-x="494" 
d="M386 63q-23 0 -37.5 11t-14.5 24v98h-259q-15 0 -24.5 12.5t-9.5 31.5t9.5 32t24.5 13h328q14 0 25 -13t11 -32v-142q0 -13 -15.5 -24t-37.5 -11z" />
    <glyph glyph-name="uni00AD" unicode="&#xad;" horiz-adv-x="467" 
d="M73 196q-15 0 -24.5 12.5t-9.5 31.5t9.5 32t24.5 13h320q14 0 25 -13t11 -32t-11 -31.5t-25 -12.5h-320z" />
    <glyph glyph-name="registered" unicode="&#xae;" horiz-adv-x="700" 
d="M347 35q-53 0 -106.5 20t-98.5 60t-72 101t-27 142q0 84 28.5 145.5t74.5 101.5t100.5 60t106.5 20q53 0 106.5 -20t98.5 -60t72 -101t27 -142q0 -84 -28.5 -145.5t-74.5 -101.5t-100.5 -60t-106.5 -20zM347 90q75 0 132.5 34.5t90 96t32.5 141.5q0 78 -31 138.5
t-86.5 95t-131.5 34.5q-74 0 -132 -34.5t-90.5 -95.5t-32.5 -142q0 -77 31 -138t87 -95.5t131 -34.5zM441 176q-7 0 -12 4.5t-9 12.5l-67 141h-46v-136q0 -10 -8.5 -15.5t-20.5 -5.5q-11 0 -20.5 5t-9.5 16v336q0 7 5.5 13.5t14.5 6.5h93q31 0 56.5 -10t41.5 -33t16 -64
q0 -45 -19 -69.5t-47 -33.5l63 -130q1 -3 1 -7q0 -12 -10.5 -21.5t-21.5 -9.5zM307 385h55q25 0 39.5 13.5t14.5 42.5q0 33 -14.5 46.5t-39.5 13.5h-55v-116z" />
    <glyph glyph-name="macron" unicode="&#xaf;" horiz-adv-x="278" 
d="M34 620q-15 0 -24.5 10t-9.5 25q0 16 9.5 26.5t24.5 10.5h209q13 0 24 -10.5t11 -26.5q0 -15 -11 -25t-24 -10h-209z" />
    <glyph glyph-name="degree" unicode="&#xb0;" horiz-adv-x="406" 
d="M202 406q-47 0 -87.5 25.5t-65 67t-24.5 89.5t24 89t64.5 66t88.5 25t88.5 -24.5t65 -65t24.5 -89.5q0 -48 -24.5 -90t-65 -67.5t-88.5 -25.5zM202 469q32 0 58.5 17t42 44t15.5 57q0 31 -15.5 57.5t-41.5 43.5t-58 17q-33 0 -59 -17t-41 -43.5t-15 -56.5q0 -31 15 -58
t41.5 -44t57.5 -17z" />
    <glyph glyph-name="plusminus" unicode="&#xb1;" horiz-adv-x="475" 
d="M238 174q-19 0 -32 9.5t-13 24.5v111h-116q-15 0 -25 12t-10 31q0 20 10 32.5t25 12.5h116v110q0 13 13 24t32 11q20 0 32 -11t12 -24v-110h115q13 0 24 -12.5t11 -32.5q0 -19 -11 -31t-24 -12h-115v-111q0 -15 -12 -24.5t-32 -9.5zM77 41q-15 0 -25 12.5t-10 31.5t10 32
t25 13h320q13 0 24 -13t11 -32t-11 -31.5t-24 -12.5h-320z" />
    <glyph glyph-name="uni00B2" unicode="&#xb2;" horiz-adv-x="315" 
d="M59 340q-10 0 -21 6.5t-11 16.5v52q0 26 19 47t47 40.5t56 38t47 38t19 41.5q0 15 -13.5 30t-43.5 15q-22 0 -37 -10.5t-15 -34.5q0 -10 -10.5 -18.5t-28.5 -8.5q-14 0 -23.5 8t-9.5 30q0 32 17.5 54t46 34t60.5 12q34 0 63.5 -13t47.5 -37.5t18 -58.5t-18.5 -60
t-46 -45.5t-55.5 -36t-46.5 -31.5t-18.5 -31v-14h164q9 0 16 -9.5t7 -22.5q0 -12 -7 -22t-16 -10h-207z" />
    <glyph glyph-name="uni00B3" unicode="&#xb3;" horiz-adv-x="323" 
d="M155 337q-46 0 -75.5 15.5t-43 38t-13.5 44.5q0 17 8 22.5t26 5.5q23 0 30 -6t7 -19q0 -11 8 -19.5t22 -13t33 -4.5q34 0 49.5 13t15.5 42v10q0 30 -18.5 39.5t-47.5 9.5q-12 0 -17.5 9t-5.5 19q0 11 5.5 19.5t17.5 9.5q23 1 39 9.5t16 41.5q0 26 -14 36t-39 10
q-20 0 -31.5 -4.5t-17 -12t-5.5 -18.5q0 -12 -7 -19.5t-27 -7.5q-25 0 -31.5 6.5t-6.5 23.5q0 20 11.5 41.5t39 37t75.5 15.5q54 0 88 -21t34 -75q0 -31 -12 -55t-34 -34q27 -9 43.5 -28t16.5 -52v-10q0 -43 -19 -69.5t-50 -38t-70 -11.5z" />
    <glyph glyph-name="acute" unicode="&#xb4;" horiz-adv-x="184" 
d="M35 577q-14 0 -24.5 13.5t-10.5 27.5q0 18 15 26l124 63q6 2 11 2q15 0 24.5 -13.5t9.5 -27.5q0 -19 -16 -27l-121 -61l-6 -2t-6 -1z" />
    <glyph glyph-name="uni03BC" unicode="&#xb5;" horiz-adv-x="507" 
d="M113 -225q-22 0 -36.5 10.5t-14.5 24.5v629q0 13 15.5 24t36.5 11q22 0 37.5 -11t15.5 -24v-260q0 -15 8 -31.5t23 -30.5t33 -23t38 -9q27 0 49.5 15t36 39t13.5 50v250q0 15 16 25t36 10q23 0 38 -10t15 -25v-250q0 -53 -27.5 -98t-74 -72t-102.5 -27q-36 0 -65.5 14.5
t-48.5 33.5v-230q0 -14 -12 -24.5t-30 -10.5z" />
    <glyph glyph-name="paragraph" unicode="&#xb6;" horiz-adv-x="547" 
d="M291 0q-14 0 -25 9t-11 26v271h-30q-55 0 -99.5 20.5t-70.5 66t-26 120.5v12q0 75 26 120t70.5 65.5t99.5 20.5h217q14 0 25 -9t11 -26v-662q0 -18 -11 -26t-25 -8q-13 0 -24 8t-11 26v644h-81v-643q0 -17 -11 -26t-24 -9z" />
    <glyph glyph-name="periodcentered" unicode="&#xb7;" horiz-adv-x="198" 
d="M99 243q-26 0 -44 17.5t-18 39.5q0 23 18 39.5t44 16.5t44 -16.5t18 -39.5q0 -22 -18 -39.5t-44 -17.5z" />
    <glyph glyph-name="cedilla" unicode="&#xb8;" horiz-adv-x="181" 
d="M82 -214q-15 0 -34.5 3t-33.5 9.5t-14 15.5q0 4 2.5 11.5t7 14t10.5 6.5q7 0 20 -7t37 -7q25 0 37.5 10t12.5 26q0 17 -13.5 26.5t-40.5 11.5l-48 5l26 98h51l-18 -64q51 -1 74 -23t23 -52q0 -17 -9.5 -37t-31 -33.5t-58.5 -13.5z" />
    <glyph glyph-name="uni00B9" unicode="&#xb9;" horiz-adv-x="183" 
d="M103 340q-14 0 -25 5.5t-11 17.5v282l-19 -15q-7 -4 -14 -4q-10 0 -17 9t-7 19q0 8 3.5 15t10.5 11l67 47q7 5 16 5q11 0 21.5 -6.5t10.5 -16.5v-346q0 -12 -11 -17.5t-25 -5.5z" />
    <glyph glyph-name="ordmasculine" unicode="&#xba;" horiz-adv-x="337" 
d="M168 432q-37 0 -68 18.5t-50 48.5t-19 64v59q0 35 18.5 64.5t50 48t68.5 18.5t68.5 -18t50.5 -47.5t19 -65.5v-59q0 -34 -19 -64t-50.5 -48.5t-68.5 -18.5zM168 497q27 0 45.5 20.5t18.5 46.5v58q0 25 -18.5 45t-45.5 20t-45.5 -20t-18.5 -45v-58q0 -26 18.5 -46.5
t45.5 -20.5z" />
    <glyph glyph-name="guillemotright" unicode="&#xbb;" horiz-adv-x="464" 
d="M306 74q-16 0 -31 8.5t-24 21t-9 23.5q0 6 3 11l74 139l-74 139q-3 6 -3 12q0 11 8.5 23t23.5 20.5t32 8.5q24 0 31 -14l79 -148q8 -14 13.5 -22.5t5.5 -19.5q0 -9 -5.5 -17t-13.5 -23l-79 -147q-7 -15 -31 -15zM100 74q-17 0 -32 8.5t-24 21t-9 23.5q0 6 3 11l75 139
l-75 139q-3 6 -3 12q0 11 9 23t23.5 20.5t31.5 8.5q25 0 32 -14l79 -148q7 -14 12.5 -22.5t5.5 -19.5q0 -9 -5.5 -17t-12.5 -23l-79 -147q-8 -15 -31 -15z" />
    <glyph glyph-name="onequarter" unicode="&#xbc;" horiz-adv-x="658" 
d="M103 340q-14 0 -25 5.5t-11 17.5v282l-19 -15q-7 -4 -14 -4q-10 0 -17 9t-7 19q0 8 3.5 15t10.5 11l67 47q7 5 16 5q11 0 21.5 -6.5t10.5 -16.5v-346q0 -12 -11 -17.5t-25 -5.5zM561 0q-13 0 -24 5.5t-11 17.5v62h-141q-10 0 -17.5 6.5t-7.5 18.5q0 7 4 14l138 248
q6 10 14.5 14.5t16.5 4.5q11 0 24 -7.5t13 -19.5q0 -5 -3 -10l-114 -202h73v52q0 12 11 17.5t24 5.5q15 0 26 -5.5t11 -17.5v-52h28q11 0 17 -10.5t6 -23.5q0 -12 -7 -22.5t-16 -10.5h-28v-62q0 -12 -11 -17.5t-26 -5.5zM87 -35q-17 0 -28 11.5t-11 25.5q0 8 3 15l368 735
q9 18 30 18q15 0 28.5 -10.5t13.5 -27.5q0 -9 -4 -16l-367 -732q-4 -9 -13.5 -14t-19.5 -5z" />
    <glyph glyph-name="onehalf" unicode="&#xbd;" horiz-adv-x="667" 
d="M103 340q-14 0 -25 5.5t-11 17.5v282l-19 -15q-7 -4 -14 -4q-10 0 -17 9t-7 19q0 8 3.5 15t10.5 11l67 47q7 5 16 5q11 0 21.5 -6.5t10.5 -16.5v-346q0 -12 -11 -17.5t-25 -5.5zM412 0q-10 0 -21 6.5t-11 16.5v52q0 26 19 47t47 40.5t56 38t47 38t19 41.5q0 15 -13.5 30
t-43.5 15q-22 0 -37 -10.5t-15 -34.5q0 -10 -10.5 -18.5t-28.5 -8.5q-14 0 -23.5 8t-9.5 30q0 32 17.5 54t46 34t60.5 12q34 0 63.5 -13t47.5 -37.5t18 -58.5t-18.5 -60t-46 -45.5t-55.5 -36t-46.5 -31.5t-18.5 -31v-14h164q9 0 16 -9.5t7 -22.5q0 -12 -7 -22t-16 -10h-207z
M87 -35q-17 0 -28 11.5t-11 25.5q0 8 3 15l368 735q9 18 30 18q15 0 28.5 -10.5t13.5 -27.5q0 -9 -4 -16l-367 -732q-4 -9 -13.5 -14t-19.5 -5z" />
    <glyph glyph-name="threequarters" unicode="&#xbe;" horiz-adv-x="798" 
d="M155 337q-46 0 -75.5 15.5t-43 38t-13.5 44.5q0 17 8 22.5t26 5.5q23 0 30 -6t7 -19q0 -11 8 -19.5t22 -13t33 -4.5q34 0 49.5 13t15.5 42v10q0 30 -18.5 39.5t-47.5 9.5q-12 0 -17.5 9t-5.5 19q0 11 5.5 19.5t17.5 9.5q23 1 39 9.5t16 41.5q0 26 -14 36t-39 10
q-20 0 -31.5 -4.5t-17 -12t-5.5 -18.5q0 -12 -7 -19.5t-27 -7.5q-25 0 -31.5 6.5t-6.5 23.5q0 20 11.5 41.5t39 37t75.5 15.5q54 0 88 -21t34 -75q0 -31 -12 -55t-34 -34q27 -9 43.5 -28t16.5 -52v-10q0 -43 -19 -69.5t-50 -38t-70 -11.5zM701 0q-13 0 -24 5.5t-11 17.5v62
h-141q-10 0 -17.5 6.5t-7.5 18.5q0 7 4 14l138 248q6 10 14.5 14.5t16.5 4.5q11 0 24 -7.5t13 -19.5q0 -5 -3 -10l-114 -202h73v52q0 12 11 17.5t24 5.5q15 0 26 -5.5t11 -17.5v-52h28q11 0 17 -10.5t6 -23.5q0 -12 -7 -22.5t-16 -10.5h-28v-62q0 -12 -11 -17.5t-26 -5.5z
M227 -35q-17 0 -28 11.5t-11 25.5q0 8 3 15l368 735q9 18 30 18q15 0 28.5 -10.5t13.5 -27.5q0 -9 -4 -16l-367 -732q-4 -9 -13.5 -14t-19.5 -5z" />
    <glyph glyph-name="questiondown" unicode="&#xbf;" horiz-adv-x="423" 
d="M228 -6q-63 0 -107.5 23t-68 62t-23.5 87q0 42 14.5 74.5t35.5 58t41.5 44t32.5 30.5q22 20 31 40t11 44t2 56q0 12 8.5 21.5t32.5 9.5q21 0 30 -9.5t9 -36.5q0 -50 -7.5 -81.5t-20 -50.5t-25.5 -32q-14 -14 -32.5 -29t-35.5 -33t-28 -41.5t-11 -54.5q0 -48 31 -74.5
t84 -26.5q35 0 54.5 9t30.5 21.5t20 22t23 9.5t27.5 -10t13.5 -31q0 -20 -20.5 -44t-59 -41t-93.5 -17zM238 618q-24 0 -42 18t-18 42t17.5 42t42.5 18t42 -18t17 -42t-17.5 -42t-41.5 -18z" />
    <glyph glyph-name="Agrave" unicode="&#xc0;" horiz-adv-x="561" 
d="M323 824q-4 0 -7 1l-6 2l-121 61q-16 8 -16 27q0 14 9.5 27.5t24.5 13.5q5 0 11 -2l124 -63q15 -8 15 -26q0 -14 -9.5 -27.5t-24.5 -13.5zM79 0q-14 0 -30 6t-26 15.5t-10 22.5q0 3 1 9l199 648q6 18 25.5 27t41.5 9q23 0 42.5 -9t25.5 -27l198 -648q2 -6 2 -9
q0 -12 -10.5 -22t-26 -16t-30.5 -6q-13 0 -22.5 5t-13.5 17l-41 142h-248l-40 -142q-3 -12 -13.5 -17t-23.5 -5zM180 249h200l-100 343z" />
    <glyph glyph-name="Aacute" unicode="&#xc1;" horiz-adv-x="561" 
d="M244 824q-14 0 -24.5 13.5t-10.5 27.5q0 18 15 26l124 63q6 2 11 2q15 0 24.5 -13.5t9.5 -27.5q0 -19 -16 -27l-121 -61l-6 -2t-6 -1zM79 0q-14 0 -30 6t-26 15.5t-10 22.5q0 3 1 9l199 648q6 18 25.5 27t41.5 9q23 0 42.5 -9t25.5 -27l198 -648q2 -6 2 -9
q0 -12 -10.5 -22t-26 -16t-30.5 -6q-13 0 -22.5 5t-13.5 17l-41 142h-248l-40 -142q-3 -12 -13.5 -17t-23.5 -5zM180 249h200l-100 343z" />
    <glyph glyph-name="Acircumflex" unicode="&#xc2;" horiz-adv-x="561" 
d="M167 829q-11 0 -18.5 10.5t-7.5 24.5q0 9 4.5 17.5t13.5 13.5l104 56q9 5 17 5t17 -5l104 -55q11 -5 15 -14.5t4 -18.5q0 -13 -7 -23.5t-19 -10.5q-2 0 -4.5 1t-5.5 2l-104 56l-104 -56q-2 -1 -4.5 -2t-4.5 -1zM79 0q-14 0 -30 6t-26 15.5t-10 22.5q0 3 1 9l199 648
q6 18 25.5 27t41.5 9q23 0 42.5 -9t25.5 -27l198 -648q2 -6 2 -9q0 -12 -10.5 -22t-26 -16t-30.5 -6q-13 0 -22.5 5t-13.5 17l-41 142h-248l-40 -142q-3 -12 -13.5 -17t-23.5 -5zM180 249h200l-100 343z" />
    <glyph glyph-name="Atilde" unicode="&#xc3;" horiz-adv-x="561" 
d="M360 843q-30 0 -51.5 8t-41.5 15.5t-46 7.5q-21 0 -35 -6.5t-24 -13.5t-19 -7q-10 0 -16.5 6.5t-9 15.5t-2.5 14q0 20 9.5 32t24 19t29 10t24.5 3q28 0 49 -7.5t42 -15.5t47 -8q22 0 35 6.5t22.5 12.5t19.5 6q11 0 17 -6.5t8.5 -14.5t2.5 -13q0 -21 -9.5 -33.5
t-23.5 -19.5t-28.5 -9t-23.5 -2zM79 0q-14 0 -30 6t-26 15.5t-10 22.5q0 3 1 9l199 648q6 18 25.5 27t41.5 9q23 0 42.5 -9t25.5 -27l198 -648q2 -6 2 -9q0 -12 -10.5 -22t-26 -16t-30.5 -6q-13 0 -22.5 5t-13.5 17l-41 142h-248l-40 -142q-3 -12 -13.5 -17t-23.5 -5z
M180 249h200l-100 343z" />
    <glyph glyph-name="Adieresis" unicode="&#xc4;" horiz-adv-x="561" 
d="M350 830q-19 0 -32 14t-13 33t13 32.5t32 13.5t32 -13.5t13 -32.5t-13 -33t-32 -14zM211 830q-19 0 -32.5 14t-13.5 33t13.5 32.5t32.5 13.5t31.5 -13.5t12.5 -32.5t-12.5 -33t-31.5 -14zM79 0q-14 0 -30 6t-26 15.5t-10 22.5q0 3 1 9l199 648q6 18 25.5 27t41.5 9
q23 0 42.5 -9t25.5 -27l198 -648q2 -6 2 -9q0 -12 -10.5 -22t-26 -16t-30.5 -6q-13 0 -22.5 5t-13.5 17l-41 142h-248l-40 -142q-3 -12 -13.5 -17t-23.5 -5zM180 249h200l-100 343z" />
    <glyph glyph-name="Aring" unicode="&#xc5;" horiz-adv-x="561" 
d="M280 817q-25 0 -47 13.5t-35 36.5t-13 48q0 26 12.5 48t34.5 36t49 14q25 0 47 -13.5t35.5 -36t13.5 -47.5q0 -26 -13.5 -48.5t-35.5 -36.5t-48 -14zM281 861q21 0 35.5 17t14.5 37q0 19 -14.5 34.5t-35.5 15.5q-22 0 -37 -16t-15 -34q0 -19 15.5 -36.5t36.5 -17.5zM79 0
q-14 0 -30 6t-26 15.5t-10 22.5q0 3 1 9l199 648q6 18 25.5 27t41.5 9q23 0 42.5 -9t25.5 -27l198 -648q2 -6 2 -9q0 -12 -10.5 -22t-26 -16t-30.5 -6q-13 0 -22.5 5t-13.5 17l-41 142h-248l-40 -142q-3 -12 -13.5 -17t-23.5 -5zM180 249h200l-100 343z" />
    <glyph glyph-name="AE" unicode="&#xc6;" horiz-adv-x="760" 
d="M110 0q-26 0 -36.5 11.5t-10.5 28.5v468q0 81 29 130t79 71t111 22h424q18 0 26 -15t8 -31q0 -19 -9 -33.5t-25 -14.5h-231v-229h130q16 0 25 -13t9 -30q0 -14 -8 -27.5t-26 -13.5h-130v-230h231q16 0 25 -14t9 -34q0 -16 -8 -31t-26 -15h-290q-17 0 -32 9t-15 26v289
h-206v-284q0 -17 -9 -28.5t-44 -11.5zM163 408h206v229h-87q-56 0 -87.5 -31.5t-31.5 -97.5v-100z" />
    <glyph glyph-name="Ccedilla" unicode="&#xc7;" horiz-adv-x="541" 
d="M296 -214q-15 0 -34.5 3t-33.5 9.5t-14 15.5q0 4 2.5 11.5t7 14t10.5 6.5q7 0 20 -7t37 -7q25 0 37.5 10t12.5 26q0 17 -13.5 26.5t-40.5 11.5l-48 5l26 98h51l-18 -64q51 -1 74 -23t23 -52q0 -17 -9.5 -37t-31 -33.5t-58.5 -13.5zM280 -6q-60 0 -110.5 22t-80.5 71
t-30 130v291q0 81 30 130t81 71t111 22q69 0 119.5 -23.5t79 -64t28.5 -93.5q0 -34 -13 -44.5t-40 -10.5q-24 0 -38 8.5t-15 26.5q-1 13 -5 31t-15.5 35.5t-34.5 29t-63 11.5q-58 0 -89 -31.5t-31 -97.5v-291q0 -66 31.5 -97.5t91.5 -31.5q38 0 60.5 11.5t33.5 29t15 37
t6 35.5q1 19 15.5 27t36.5 8q28 0 41 -11t13 -44q0 -54 -28.5 -96.5t-79.5 -66.5t-120 -24z" />
    <glyph glyph-name="Egrave" unicode="&#xc8;" horiz-adv-x="522" 
d="M323 824q-4 0 -7 1l-6 2l-121 61q-16 8 -16 27q0 14 9.5 27.5t24.5 13.5q5 0 11 -2l124 -63q15 -8 15 -26q0 -14 -9.5 -27.5t-24.5 -13.5zM113 0q-17 0 -32 9t-15 26v661q0 17 15 26t32 9h356q19 0 27 -15t8 -31q0 -19 -9 -33.5t-26 -14.5h-297v-229h154q17 0 26 -13
t9 -30q0 -14 -8 -27.5t-27 -13.5h-154v-230h297q17 0 26 -14t9 -34q0 -16 -8 -31t-27 -15h-356z" />
    <glyph glyph-name="Eacute" unicode="&#xc9;" horiz-adv-x="522" 
d="M244 824q-14 0 -24.5 13.5t-10.5 27.5q0 18 15 26l124 63q6 2 11 2q15 0 24.5 -13.5t9.5 -27.5q0 -19 -16 -27l-121 -61l-6 -2t-6 -1zM113 0q-17 0 -32 9t-15 26v661q0 17 15 26t32 9h356q19 0 27 -15t8 -31q0 -19 -9 -33.5t-26 -14.5h-297v-229h154q17 0 26 -13t9 -30
q0 -14 -8 -27.5t-27 -13.5h-154v-230h297q17 0 26 -14t9 -34q0 -16 -8 -31t-27 -15h-356z" />
    <glyph glyph-name="Ecircumflex" unicode="&#xca;" horiz-adv-x="522" 
d="M168 829q-11 0 -18.5 10.5t-7.5 24.5q0 9 4.5 17.5t13.5 13.5l104 56q9 5 17 5t17 -5l104 -55q11 -5 15 -14.5t4 -18.5q0 -13 -7 -23.5t-19 -10.5q-2 0 -4.5 1t-5.5 2l-104 56l-104 -56q-2 -1 -4.5 -2t-4.5 -1zM113 0q-17 0 -32 9t-15 26v661q0 17 15 26t32 9h356
q19 0 27 -15t8 -31q0 -19 -9 -33.5t-26 -14.5h-297v-229h154q17 0 26 -13t9 -30q0 -14 -8 -27.5t-27 -13.5h-154v-230h297q17 0 26 -14t9 -34q0 -16 -8 -31t-27 -15h-356z" />
    <glyph glyph-name="Edieresis" unicode="&#xcb;" horiz-adv-x="522" 
d="M350 830q-19 0 -32 14t-13 33t13 32.5t32 13.5t32 -13.5t13 -32.5t-13 -33t-32 -14zM211 830q-19 0 -32.5 14t-13.5 33t13.5 32.5t32.5 13.5t31.5 -13.5t12.5 -32.5t-12.5 -33t-31.5 -14zM113 0q-17 0 -32 9t-15 26v661q0 17 15 26t32 9h356q19 0 27 -15t8 -31
q0 -19 -9 -33.5t-26 -14.5h-297v-229h154q17 0 26 -13t9 -30q0 -14 -8 -27.5t-27 -13.5h-154v-230h297q17 0 26 -14t9 -34q0 -16 -8 -31t-27 -15h-356z" />
    <glyph glyph-name="Igrave" unicode="&#xcc;" horiz-adv-x="238" 
d="M161 824q-4 0 -7 1l-6 2l-121 61q-16 8 -16 27q0 14 9.5 27.5t24.5 13.5q5 0 11 -2l124 -63q15 -8 15 -26q0 -14 -9.5 -27.5t-24.5 -13.5zM119 0q-20 0 -36.5 9t-16.5 26v662q0 18 16.5 26t36.5 8t36.5 -8t16.5 -26v-662q0 -17 -16.5 -26t-36.5 -9z" />
    <glyph glyph-name="Iacute" unicode="&#xcd;" horiz-adv-x="238" 
d="M82 824q-14 0 -24.5 13.5t-10.5 27.5q0 18 15 26l124 63q6 2 11 2q15 0 24.5 -13.5t9.5 -27.5q0 -19 -16 -27l-121 -61l-6 -2t-6 -1zM119 0q-20 0 -36.5 9t-16.5 26v662q0 18 16.5 26t36.5 8t36.5 -8t16.5 -26v-662q0 -17 -16.5 -26t-36.5 -9z" />
    <glyph glyph-name="Icircumflex" unicode="&#xce;" horiz-adv-x="238" 
d="M6 829q-11 0 -18.5 10.5t-7.5 24.5q0 9 4.5 17.5t13.5 13.5l104 56q9 5 17 5t17 -5l104 -55q11 -5 15 -14.5t4 -18.5q0 -13 -7 -23.5t-19 -10.5q-2 0 -4.5 1t-5.5 2l-104 56l-104 -56q-2 -1 -4.5 -2t-4.5 -1zM119 0q-20 0 -36.5 9t-16.5 26v662q0 18 16.5 26t36.5 8
t36.5 -8t16.5 -26v-662q0 -17 -16.5 -26t-36.5 -9z" />
    <glyph glyph-name="Idieresis" unicode="&#xcf;" horiz-adv-x="238" 
d="M188 830q-19 0 -32 14t-13 33t13 32.5t32 13.5t32 -13.5t13 -32.5t-13 -33t-32 -14zM49 830q-19 0 -32.5 14t-13.5 33t13.5 32.5t32.5 13.5t31.5 -13.5t12.5 -32.5t-12.5 -33t-31.5 -14zM119 0q-20 0 -36.5 9t-16.5 26v662q0 18 16.5 26t36.5 8t36.5 -8t16.5 -26v-662
q0 -17 -16.5 -26t-36.5 -9z" />
    <glyph glyph-name="Eth" unicode="&#xd0;" horiz-adv-x="581" 
d="M121 0q-21 0 -34 10t-13 24v310h-49q-14 0 -22 12t-8 27t8 27t22 12h49v275q0 14 13 24t34 10h177q63 0 114 -22t81 -71t30 -130v-285q0 -81 -30 -130t-81 -71t-114 -22h-177zM180 94h118q56 0 87.5 31.5t31.5 97.5v285q0 66 -31.5 97.5t-87.5 31.5h-118v-215h90
q14 0 22 -12t8 -27q0 -16 -8 -27.5t-22 -11.5h-90v-250z" />
    <glyph glyph-name="Ntilde" unicode="&#xd1;" horiz-adv-x="593" 
d="M377 843q-30 0 -51.5 8t-41.5 15.5t-46 7.5q-21 0 -35 -6.5t-24 -13.5t-19 -7q-10 0 -16.5 6.5t-9 15.5t-2.5 14q0 20 9.5 32t24 19t29 10t24.5 3q28 0 49 -7.5t42 -15.5t47 -8q22 0 35 6.5t22.5 12.5t19.5 6q11 0 17 -6.5t8.5 -14.5t2.5 -13q0 -21 -9.5 -33.5
t-23.5 -19.5t-28.5 -9t-23.5 -2zM119 0q-20 0 -36.5 9t-16.5 26v661q0 19 16.5 27t36.5 8q19 0 32.5 -5.5t24.5 -18.5t23 -36l222 -433v459q0 18 16.5 26t36.5 8t36.5 -8t16.5 -26v-662q0 -17 -16.5 -26t-36.5 -9t-36 10t-27 29l-239 455v-459q0 -17 -16.5 -26t-36.5 -9z
" />
    <glyph glyph-name="Ograve" unicode="&#xd2;" horiz-adv-x="566" 
d="M326 824q-4 0 -7 1l-6 2l-121 61q-16 8 -16 27q0 14 9.5 27.5t24.5 13.5q5 0 11 -2l124 -63q15 -8 15 -26q0 -14 -9.5 -27.5t-24.5 -13.5zM283 -6q-64 0 -114.5 22t-80 71t-29.5 130v291q0 81 29.5 130t80 71t114.5 22q63 0 114 -22t81 -71t30 -130v-291q0 -81 -30 -130
t-81 -71t-114 -22zM283 88q55 0 87 31.5t32 97.5v291q0 66 -31.5 97.5t-87.5 31.5t-87.5 -31.5t-31.5 -97.5v-291q0 -66 31.5 -97.5t87.5 -31.5z" />
    <glyph glyph-name="Oacute" unicode="&#xd3;" horiz-adv-x="566" 
d="M246 824q-14 0 -24.5 13.5t-10.5 27.5q0 18 15 26l124 63q6 2 11 2q15 0 24.5 -13.5t9.5 -27.5q0 -19 -16 -27l-121 -61l-6 -2t-6 -1zM283 -6q-64 0 -114.5 22t-80 71t-29.5 130v291q0 81 29.5 130t80 71t114.5 22q63 0 114 -22t81 -71t30 -130v-291q0 -81 -30 -130
t-81 -71t-114 -22zM283 88q55 0 87 31.5t32 97.5v291q0 66 -31.5 97.5t-87.5 31.5t-87.5 -31.5t-31.5 -97.5v-291q0 -66 31.5 -97.5t87.5 -31.5z" />
    <glyph glyph-name="Ocircumflex" unicode="&#xd4;" horiz-adv-x="566" 
d="M170 829q-11 0 -18.5 10.5t-7.5 24.5q0 9 4.5 17.5t13.5 13.5l104 56q9 5 17 5t17 -5l104 -55q11 -5 15 -14.5t4 -18.5q0 -13 -7 -23.5t-19 -10.5q-2 0 -4.5 1t-5.5 2l-104 56l-104 -56q-2 -1 -4.5 -2t-4.5 -1zM283 -6q-64 0 -114.5 22t-80 71t-29.5 130v291
q0 81 29.5 130t80 71t114.5 22q63 0 114 -22t81 -71t30 -130v-291q0 -81 -30 -130t-81 -71t-114 -22zM283 88q55 0 87 31.5t32 97.5v291q0 66 -31.5 97.5t-87.5 31.5t-87.5 -31.5t-31.5 -97.5v-291q0 -66 31.5 -97.5t87.5 -31.5z" />
    <glyph glyph-name="Otilde" unicode="&#xd5;" horiz-adv-x="566" 
d="M363 843q-30 0 -51.5 8t-41.5 15.5t-46 7.5q-21 0 -35 -6.5t-24 -13.5t-19 -7q-10 0 -16.5 6.5t-9 15.5t-2.5 14q0 20 9.5 32t24 19t29 10t24.5 3q28 0 49 -7.5t42 -15.5t47 -8q22 0 35 6.5t22.5 12.5t19.5 6q11 0 17 -6.5t8.5 -14.5t2.5 -13q0 -21 -9.5 -33.5
t-23.5 -19.5t-28.5 -9t-23.5 -2zM283 -6q-64 0 -114.5 22t-80 71t-29.5 130v291q0 81 29.5 130t80 71t114.5 22q63 0 114 -22t81 -71t30 -130v-291q0 -81 -30 -130t-81 -71t-114 -22zM283 88q55 0 87 31.5t32 97.5v291q0 66 -31.5 97.5t-87.5 31.5t-87.5 -31.5t-31.5 -97.5
v-291q0 -66 31.5 -97.5t87.5 -31.5z" />
    <glyph glyph-name="Odieresis" unicode="&#xd6;" horiz-adv-x="566" 
d="M353 830q-19 0 -32 14t-13 33t13 32.5t32 13.5t32 -13.5t13 -32.5t-13 -33t-32 -14zM214 830q-19 0 -32.5 14t-13.5 33t13.5 32.5t32.5 13.5t31.5 -13.5t12.5 -32.5t-12.5 -33t-31.5 -14zM283 -6q-64 0 -114.5 22t-80 71t-29.5 130v291q0 81 29.5 130t80 71t114.5 22
q63 0 114 -22t81 -71t30 -130v-291q0 -81 -30 -130t-81 -71t-114 -22zM283 88q55 0 87 31.5t32 97.5v291q0 66 -31.5 97.5t-87.5 31.5t-87.5 -31.5t-31.5 -97.5v-291q0 -66 31.5 -97.5t87.5 -31.5z" />
    <glyph glyph-name="multiply" unicode="&#xd7;" horiz-adv-x="403" 
d="M96 121q-11 0 -22 7.5t-19 19t-8 23.5q0 13 9 22l89 82l-88 81q-8 9 -8 23q0 18 15 33.5t33 15.5q13 0 23 -9l81 -82l81 82q9 9 23 9q18 0 33.5 -15.5t15.5 -33.5q0 -14 -9 -23l-87 -81l88 -82q9 -9 9 -23q0 -11 -7.5 -22.5t-18.5 -19t-24 -7.5q-12 0 -22 9l-82 83
l-82 -83q-9 -9 -23 -9z" />
    <glyph glyph-name="Oslash" unicode="&#xd8;" horiz-adv-x="566" 
d="M283 -6q-64 0 -114.5 22t-80 71t-29.5 130v291q0 81 29.5 130t80 71t114.5 22q63 0 114 -22t81 -71t30 -130v-291q0 -81 -30 -130t-81 -71t-114 -22zM283 88q55 0 87 31.5t32 97.5v291q0 66 -31.5 97.5t-87.5 31.5t-87.5 -31.5t-31.5 -97.5v-291q0 -66 31.5 -97.5
t87.5 -31.5zM107 -38q-17 0 -28 11.5t-11 25.5q0 8 4 15l368 735q8 18 29 18q15 0 28.5 -10.5t13.5 -27.5q0 -9 -3 -16l-367 -732q-4 -9 -13.5 -14t-20.5 -5z" />
    <glyph glyph-name="Ugrave" unicode="&#xd9;" horiz-adv-x="582" 
d="M334 824q-4 0 -7 1l-6 2l-121 61q-16 8 -16 27q0 14 9.5 27.5t24.5 13.5q5 0 11 -2l124 -63q15 -8 15 -26q0 -14 -9.5 -27.5t-24.5 -13.5zM291 -6q-64 0 -116 22t-82 71t-30 130v480q0 18 16 26t37 8q19 0 36 -8t17 -26v-480q0 -66 32 -97.5t90 -31.5q57 0 90 31.5
t33 97.5v480q0 18 16 26t37 8q19 0 36 -8t17 -26v-480q0 -81 -30.5 -130t-82.5 -71t-116 -22z" />
    <glyph glyph-name="Uacute" unicode="&#xda;" horiz-adv-x="582" 
d="M254 824q-14 0 -24.5 13.5t-10.5 27.5q0 18 15 26l124 63q6 2 11 2q15 0 24.5 -13.5t9.5 -27.5q0 -19 -16 -27l-121 -61l-6 -2t-6 -1zM291 -6q-64 0 -116 22t-82 71t-30 130v480q0 18 16 26t37 8q19 0 36 -8t17 -26v-480q0 -66 32 -97.5t90 -31.5q57 0 90 31.5t33 97.5
v480q0 18 16 26t37 8q19 0 36 -8t17 -26v-480q0 -81 -30.5 -130t-82.5 -71t-116 -22z" />
    <glyph glyph-name="Ucircumflex" unicode="&#xdb;" horiz-adv-x="582" 
d="M178 829q-11 0 -18.5 10.5t-7.5 24.5q0 9 4.5 17.5t13.5 13.5l104 56q9 5 17 5t17 -5l104 -55q11 -5 15 -14.5t4 -18.5q0 -13 -7 -23.5t-19 -10.5q-2 0 -4.5 1t-5.5 2l-104 56l-104 -56q-2 -1 -4.5 -2t-4.5 -1zM291 -6q-64 0 -116 22t-82 71t-30 130v480q0 18 16 26t37 8
q19 0 36 -8t17 -26v-480q0 -66 32 -97.5t90 -31.5q57 0 90 31.5t33 97.5v480q0 18 16 26t37 8q19 0 36 -8t17 -26v-480q0 -81 -30.5 -130t-82.5 -71t-116 -22z" />
    <glyph glyph-name="Udieresis" unicode="&#xdc;" horiz-adv-x="582" 
d="M360 830q-19 0 -32 14t-13 33t13 32.5t32 13.5t32 -13.5t13 -32.5t-13 -33t-32 -14zM221 830q-19 0 -32.5 14t-13.5 33t13.5 32.5t32.5 13.5t31.5 -13.5t12.5 -32.5t-12.5 -33t-31.5 -14zM291 -6q-64 0 -116 22t-82 71t-30 130v480q0 18 16 26t37 8q19 0 36 -8t17 -26
v-480q0 -66 32 -97.5t90 -31.5q57 0 90 31.5t33 97.5v480q0 18 16 26t37 8q19 0 36 -8t17 -26v-480q0 -81 -30.5 -130t-82.5 -71t-116 -22z" />
    <glyph glyph-name="Yacute" unicode="&#xdd;" horiz-adv-x="556" 
d="M241 824q-14 0 -24.5 13.5t-10.5 27.5q0 18 15 26l124 63q6 2 11 2q15 0 24.5 -13.5t9.5 -27.5q0 -19 -16 -27l-121 -61l-6 -2t-6 -1zM278 0q-20 0 -36.5 9t-16.5 26v253q0 6 -3 11l-207 373q-2 5 -2.5 8.5t-0.5 6.5q0 13 11 22.5t26.5 15.5t29.5 6q13 0 20.5 -6
t13.5 -18l165 -317l164 317q7 12 14.5 18t20.5 6q14 0 29.5 -6t26.5 -15.5t11 -22.5q0 -3 -0.5 -6.5t-3.5 -8.5l-206 -373q-3 -5 -3 -11v-253q0 -17 -16.5 -26t-36.5 -9z" />
    <glyph glyph-name="Thorn" unicode="&#xde;" horiz-adv-x="510" 
d="M118 0q-22 0 -37 11t-15 24v672q0 15 14.5 24.5t35.5 9.5q24 0 39.5 -9.5t15.5 -25.5v-161q16 30 50.5 53t82.5 23t87.5 -23.5t63.5 -64.5t24 -95v-121q0 -52 -24.5 -94t-63 -66.5t-82.5 -24.5q-30 0 -58.5 11t-49 29t-30.5 39v-176q0 -13 -15.5 -24t-37.5 -11zM275 226
q26 0 48.5 11t36.5 32t14 48v121q0 27 -14 47t-37 31.5t-49 11.5t-49.5 -11.5t-38.5 -31t-15 -47.5v-128q0 -16 13.5 -36t37 -34t53.5 -14z" />
    <glyph glyph-name="germandbls" unicode="&#xdf;" horiz-adv-x="580" 
d="M342 -20q-15 0 -32.5 1.5t-33.5 6.5t-26 16t-10 30q0 10 3 21.5t9 20t16 8.5t26.5 -7.5t44.5 -7.5q50 0 78.5 33.5t28.5 95.5v15q0 43 -15 75.5t-45 52.5t-73 27q-17 3 -27 11t-10 32t10 30.5t28 9.5q21 4 33.5 15t19 27t8.5 33.5t2 33.5q0 51 -21.5 83t-69.5 32
q-33 0 -52 -15t-27 -38t-8 -49v-539q0 -15 -16 -24.5t-38 -9.5q-21 0 -36 9.5t-15 24.5v362h-62q-14 0 -21.5 12t-7.5 27t7.5 27t21.5 12h62v99q0 52 18.5 96.5t59 71.5t107.5 27q52 0 94.5 -19.5t67 -60t24.5 -103.5q0 -34 -8 -67t-23 -58.5t-38 -36.5q36 -6 70.5 -33
t58 -70.5t23.5 -98.5v-15q0 -75 -29 -125t-76 -75.5t-101 -25.5z" />
    <glyph glyph-name="agrave" unicode="&#xe0;" horiz-adv-x="459" 
d="M261 574q-4 0 -7 1l-6 2l-121 61q-16 8 -16 27q0 14 9.5 27.5t24.5 13.5q5 0 11 -2l124 -63q15 -8 15 -26q0 -14 -9.5 -27.5t-24.5 -13.5zM158 -8q-55 0 -94 32.5t-39 99.5q0 57 30 88t82.5 43t121.5 12h44v18q0 26 -9.5 50.5t-31 41t-58.5 16.5t-57 -7t-32 -15t-22 -8
q-18 0 -28 17.5t-10 35.5t23.5 32.5t58.5 23t69 8.5q74 0 118 -27.5t64 -71.5t20 -95v-251q0 -14 -14.5 -24.5t-36.5 -10.5q-20 0 -34 10.5t-14 24.5v35q-26 -30 -63 -54t-88 -24zM196 72q25 0 49.5 15t41 38t16.5 47v37h-25q-38 0 -72 -4.5t-54.5 -20t-20.5 -47.5
q0 -34 18.5 -49.5t46.5 -15.5z" />
    <glyph glyph-name="aacute" unicode="&#xe1;" horiz-adv-x="459" 
d="M181 574q-14 0 -24.5 13.5t-10.5 27.5q0 18 15 26l124 63q6 2 11 2q15 0 24.5 -13.5t9.5 -27.5q0 -19 -16 -27l-121 -61l-6 -2t-6 -1zM158 -8q-55 0 -94 32.5t-39 99.5q0 57 30 88t82.5 43t121.5 12h44v18q0 26 -9.5 50.5t-31 41t-58.5 16.5t-57 -7t-32 -15t-22 -8
q-18 0 -28 17.5t-10 35.5t23.5 32.5t58.5 23t69 8.5q74 0 118 -27.5t64 -71.5t20 -95v-251q0 -14 -14.5 -24.5t-36.5 -10.5q-20 0 -34 10.5t-14 24.5v35q-26 -30 -63 -54t-88 -24zM196 72q25 0 49.5 15t41 38t16.5 47v37h-25q-38 0 -72 -4.5t-54.5 -20t-20.5 -47.5
q0 -34 18.5 -49.5t46.5 -15.5z" />
    <glyph glyph-name="acircumflex" unicode="&#xe2;" horiz-adv-x="459" 
d="M105 579q-11 0 -18.5 10.5t-7.5 24.5q0 9 4.5 17.5t13.5 13.5l104 56q9 5 17 5t17 -5l104 -55q11 -5 15 -14.5t4 -18.5q0 -13 -7 -23.5t-19 -10.5q-2 0 -4.5 1t-5.5 2l-104 56l-104 -56q-2 -1 -4.5 -2t-4.5 -1zM158 -8q-55 0 -94 32.5t-39 99.5q0 57 30 88t82.5 43
t121.5 12h44v18q0 26 -9.5 50.5t-31 41t-58.5 16.5t-57 -7t-32 -15t-22 -8q-18 0 -28 17.5t-10 35.5t23.5 32.5t58.5 23t69 8.5q74 0 118 -27.5t64 -71.5t20 -95v-251q0 -14 -14.5 -24.5t-36.5 -10.5q-20 0 -34 10.5t-14 24.5v35q-26 -30 -63 -54t-88 -24zM196 72
q25 0 49.5 15t41 38t16.5 47v37h-25q-38 0 -72 -4.5t-54.5 -20t-20.5 -47.5q0 -34 18.5 -49.5t46.5 -15.5z" />
    <glyph glyph-name="atilde" unicode="&#xe3;" horiz-adv-x="459" 
d="M298 593q-30 0 -51.5 8t-41.5 15.5t-46 7.5q-21 0 -35 -6.5t-24 -13.5t-19 -7q-10 0 -16.5 6.5t-9 15.5t-2.5 14q0 20 9.5 32t24 19t29 10t24.5 3q28 0 49 -7.5t42 -15.5t47 -8q22 0 35 6.5t22.5 12.5t19.5 6q11 0 17 -6.5t8.5 -14.5t2.5 -13q0 -21 -9.5 -33.5
t-23.5 -19.5t-28.5 -9t-23.5 -2zM158 -8q-55 0 -94 32.5t-39 99.5q0 57 30 88t82.5 43t121.5 12h44v18q0 26 -9.5 50.5t-31 41t-58.5 16.5t-57 -7t-32 -15t-22 -8q-18 0 -28 17.5t-10 35.5t23.5 32.5t58.5 23t69 8.5q74 0 118 -27.5t64 -71.5t20 -95v-251q0 -14 -14.5 -24.5
t-36.5 -10.5q-20 0 -34 10.5t-14 24.5v35q-26 -30 -63 -54t-88 -24zM196 72q25 0 49.5 15t41 38t16.5 47v37h-25q-38 0 -72 -4.5t-54.5 -20t-20.5 -47.5q0 -34 18.5 -49.5t46.5 -15.5z" />
    <glyph glyph-name="adieresis" unicode="&#xe4;" horiz-adv-x="459" 
d="M288 580q-19 0 -32 14t-13 33t13 32.5t32 13.5t32 -13.5t13 -32.5t-13 -33t-32 -14zM149 580q-19 0 -32.5 14t-13.5 33t13.5 32.5t32.5 13.5t31.5 -13.5t12.5 -32.5t-12.5 -33t-31.5 -14zM158 -8q-55 0 -94 32.5t-39 99.5q0 57 30 88t82.5 43t121.5 12h44v18
q0 26 -9.5 50.5t-31 41t-58.5 16.5t-57 -7t-32 -15t-22 -8q-18 0 -28 17.5t-10 35.5t23.5 32.5t58.5 23t69 8.5q74 0 118 -27.5t64 -71.5t20 -95v-251q0 -14 -14.5 -24.5t-36.5 -10.5q-20 0 -34 10.5t-14 24.5v35q-26 -30 -63 -54t-88 -24zM196 72q25 0 49.5 15t41 38
t16.5 47v37h-25q-38 0 -72 -4.5t-54.5 -20t-20.5 -47.5q0 -34 18.5 -49.5t46.5 -15.5z" />
    <glyph glyph-name="aring" unicode="&#xe5;" horiz-adv-x="459" 
d="M218 567q-25 0 -47 13.5t-35 36.5t-13 48q0 26 12.5 48t34.5 36t49 14q25 0 47 -13.5t35.5 -36t13.5 -47.5q0 -26 -13.5 -48.5t-35.5 -36.5t-48 -14zM219 611q21 0 35.5 17t14.5 37q0 19 -14.5 34.5t-35.5 15.5q-22 0 -37 -16t-15 -34q0 -19 15.5 -36.5t36.5 -17.5z
M158 -8q-55 0 -94 32.5t-39 99.5q0 57 30 88t82.5 43t121.5 12h44v18q0 26 -9.5 50.5t-31 41t-58.5 16.5t-57 -7t-32 -15t-22 -8q-18 0 -28 17.5t-10 35.5t23.5 32.5t58.5 23t69 8.5q74 0 118 -27.5t64 -71.5t20 -95v-251q0 -14 -14.5 -24.5t-36.5 -10.5q-20 0 -34 10.5
t-14 24.5v35q-26 -30 -63 -54t-88 -24zM196 72q25 0 49.5 15t41 38t16.5 47v37h-25q-38 0 -72 -4.5t-54.5 -20t-20.5 -47.5q0 -34 18.5 -49.5t46.5 -15.5z" />
    <glyph glyph-name="ae" unicode="&#xe6;" horiz-adv-x="741" 
d="M173 -8q-39 0 -73 14t-54.5 43.5t-20.5 74.5q0 57 29.5 88t81.5 43t121 12h45v18q0 26 -9.5 51t-31.5 41.5t-59 16.5q-36 0 -56.5 -7.5t-32.5 -15.5t-22 -8q-18 0 -28 18t-10 36t24 32.5t59 23t69 8.5q57 0 95 -23.5t60 -60.5q26 37 65 60t85 23q37 0 72.5 -12
t64.5 -36.5t46 -60t17 -82.5q0 -37 -11 -54t-31.5 -21.5t-48.5 -4.5h-211v-23q0 -50 36 -79.5t92 -29.5q36 0 58 10t37 19t28 9t21.5 -7.5t14 -18.5t5.5 -21q0 -17 -23.5 -34.5t-62 -29.5t-85.5 -12q-57 0 -105 25.5t-77 72.5q-34 -48 -81 -73t-93 -25zM195 72q27 0 51 15.5
t40 38.5t16 46v37h-26q-38 0 -71.5 -4.5t-54 -20t-20.5 -48.5q0 -32 18.5 -48t46.5 -16zM408 274h166q23 0 30 6t7 23q0 27 -13.5 49.5t-36.5 35t-52 12.5q-27 0 -50 -11.5t-37 -33t-14 -48.5v-33z" />
    <glyph glyph-name="ccedilla" unicode="&#xe7;" horiz-adv-x="425" 
d="M252 -214q-15 0 -34.5 3t-33.5 9.5t-14 15.5q0 4 2.5 11.5t7 14t10.5 6.5q7 0 20 -7t37 -7q25 0 37.5 10t12.5 26q0 17 -13.5 26.5t-40.5 11.5l-48 5l26 98h51l-18 -64q51 -1 74 -23t23 -52q0 -17 -9.5 -37t-31 -33.5t-58.5 -13.5zM247 -8q-72 0 -118.5 26t-68.5 71
t-22 102v90q0 56 22 101.5t68 71.5t117 26q46 0 80.5 -11t54 -27.5t19.5 -34.5q0 -9 -5.5 -21.5t-15 -21t-22.5 -8.5q-10 0 -21.5 8t-30.5 15.5t-51 7.5q-56 0 -83 -28t-27 -78v-90q0 -50 27 -78t84 -28q33 0 52 8.5t30.5 16.5t22.5 8q14 0 24.5 -8t16 -20t5.5 -22
q0 -17 -20.5 -35t-56 -29.5t-81.5 -11.5z" />
    <glyph glyph-name="egrave" unicode="&#xe8;" horiz-adv-x="475" 
d="M289 577q-4 0 -7 1l-6 2l-121 61q-16 8 -16 27q0 14 9.5 27.5t24.5 13.5q5 0 11 -2l124 -63q15 -8 15 -26q0 -14 -9.5 -27.5t-24.5 -13.5zM269 -8q-68 0 -120 25t-82 69.5t-30 104.5v95q0 53 28.5 97t75.5 70.5t104 26.5q54 0 99 -23.5t72.5 -65.5t27.5 -96
q0 -42 -13 -60t-34 -22t-44 -4h-211v-23q0 -50 36.5 -79.5t93.5 -29.5q35 0 57 10t37 19t28 9t22 -8t14 -19t5 -20q0 -15 -20.5 -33t-57.5 -30.5t-88 -12.5zM142 274h166q22 0 29.5 6t7.5 24q0 26 -13 48.5t-36 35t-52 12.5q-28 0 -51 -12t-37 -33t-14 -49v-32z" />
    <glyph glyph-name="eacute" unicode="&#xe9;" horiz-adv-x="475" 
d="M192 576q-14 0 -24.5 13.5t-10.5 27.5q0 18 15 26l124 63q6 2 11 2q15 0 24.5 -13.5t9.5 -27.5q0 -19 -16 -27l-121 -61l-6 -2t-6 -1zM269 -8q-68 0 -120 25t-82 69.5t-30 104.5v95q0 53 28.5 97t75.5 70.5t104 26.5q54 0 99 -23.5t72.5 -65.5t27.5 -96q0 -42 -13 -60
t-34 -22t-44 -4h-211v-23q0 -50 36.5 -79.5t93.5 -29.5q35 0 57 10t37 19t28 9t22 -8t14 -19t5 -20q0 -15 -20.5 -33t-57.5 -30.5t-88 -12.5zM142 274h166q22 0 29.5 6t7.5 24q0 26 -13 48.5t-36 35t-52 12.5q-28 0 -51 -12t-37 -33t-14 -49v-32z" />
    <glyph glyph-name="ecircumflex" unicode="&#xea;" horiz-adv-x="475" 
d="M128 581q-11 0 -18.5 10.5t-7.5 24.5q0 9 4.5 17.5t13.5 13.5l104 56q9 5 17 5t17 -5l104 -55q11 -5 15 -14.5t4 -18.5q0 -13 -7 -23.5t-19 -10.5q-2 0 -4.5 1t-5.5 2l-104 56l-104 -56q-2 -1 -4.5 -2t-4.5 -1zM269 -8q-68 0 -120 25t-82 69.5t-30 104.5v95q0 53 28.5 97
t75.5 70.5t104 26.5q54 0 99 -23.5t72.5 -65.5t27.5 -96q0 -42 -13 -60t-34 -22t-44 -4h-211v-23q0 -50 36.5 -79.5t93.5 -29.5q35 0 57 10t37 19t28 9t22 -8t14 -19t5 -20q0 -15 -20.5 -33t-57.5 -30.5t-88 -12.5zM142 274h166q22 0 29.5 6t7.5 24q0 26 -13 48.5t-36 35
t-52 12.5q-28 0 -51 -12t-37 -33t-14 -49v-32z" />
    <glyph glyph-name="edieresis" unicode="&#xeb;" horiz-adv-x="475" 
d="M311 582q-19 0 -32 14t-13 33t13 32.5t32 13.5t32 -13.5t13 -32.5t-13 -33t-32 -14zM172 582q-19 0 -32.5 14t-13.5 33t13.5 32.5t32.5 13.5t31.5 -13.5t12.5 -32.5t-12.5 -33t-31.5 -14zM269 -8q-68 0 -120 25t-82 69.5t-30 104.5v95q0 53 28.5 97t75.5 70.5t104 26.5
q54 0 99 -23.5t72.5 -65.5t27.5 -96q0 -42 -13 -60t-34 -22t-44 -4h-211v-23q0 -50 36.5 -79.5t93.5 -29.5q35 0 57 10t37 19t28 9t22 -8t14 -19t5 -20q0 -15 -20.5 -33t-57.5 -30.5t-88 -12.5zM142 274h166q22 0 29.5 6t7.5 24q0 26 -13 48.5t-36 35t-52 12.5
q-28 0 -51 -12t-37 -33t-14 -49v-32z" />
    <glyph glyph-name="igrave" unicode="&#xec;" horiz-adv-x="214" 
d="M155 575q-4 0 -7 1l-6 2l-121 61q-16 8 -16 27q0 14 9.5 27.5t24.5 13.5q5 0 11 -2l124 -63q15 -8 15 -26q0 -14 -9.5 -27.5t-24.5 -13.5zM107 0q-23 0 -37.5 11t-14.5 24v405q0 15 14.5 24.5t37.5 9.5q22 0 37.5 -9.5t15.5 -24.5v-405q0 -13 -15.5 -24t-37.5 -11z" />
    <glyph glyph-name="iacute" unicode="&#xed;" horiz-adv-x="214" 
d="M64 576q-14 0 -24.5 13.5t-10.5 27.5q0 18 15 26l124 63q6 2 11 2q15 0 24.5 -13.5t9.5 -27.5q0 -19 -16 -27l-121 -61l-6 -2t-6 -1zM107 0q-23 0 -37.5 11t-14.5 24v405q0 15 14.5 24.5t37.5 9.5q22 0 37.5 -9.5t15.5 -24.5v-405q0 -13 -15.5 -24t-37.5 -11z" />
    <glyph glyph-name="icircumflex" unicode="&#xee;" horiz-adv-x="214" 
d="M-12 580q-11 0 -18.5 10.5t-7.5 24.5q0 9 4.5 17.5t13.5 13.5l104 56q9 5 17 5t17 -5l104 -55q11 -5 15 -14.5t4 -18.5q0 -13 -7 -23.5t-19 -10.5q-2 0 -4.5 1t-5.5 2l-104 56l-104 -56q-2 -1 -4.5 -2t-4.5 -1zM107 0q-23 0 -37.5 11t-14.5 24v405q0 15 14.5 24.5
t37.5 9.5q22 0 37.5 -9.5t15.5 -24.5v-405q0 -13 -15.5 -24t-37.5 -11z" />
    <glyph glyph-name="idieresis" unicode="&#xef;" horiz-adv-x="214" 
d="M180 582q-19 0 -32 14t-13 33t13 32.5t32 13.5t32 -13.5t13 -32.5t-13 -33t-32 -14zM41 582q-19 0 -32.5 14t-13.5 33t13.5 32.5t32.5 13.5t31.5 -13.5t12.5 -32.5t-12.5 -33t-31.5 -14zM107 0q-23 0 -37.5 11t-14.5 24v405q0 15 14.5 24.5t37.5 9.5q22 0 37.5 -9.5
t15.5 -24.5v-405q0 -13 -15.5 -24t-37.5 -11z" />
    <glyph glyph-name="eth" unicode="&#xf0;" horiz-adv-x="501" 
d="M244 -8q-41 0 -78.5 16t-66.5 44t-45.5 64t-16.5 75v92q0 54 24 98.5t64 71.5t89 27q30 0 56.5 -10.5t47 -28.5t29.5 -41q-3 55 -18 100t-37 78l-65 -38q-4 -4 -11 -4q-14 0 -26 14.5t-12 29.5t13 22l57 34q-14 15 -30.5 23t-31.5 9q-8 6 -15.5 14.5t-7.5 22.5q0 10 5 22
t16.5 21t32.5 9q30 0 62 -17t60 -49l62 36q6 3 12 3q14 0 26 -13.5t12 -28.5t-14 -23l-58 -35q34 -58 53.5 -131t19.5 -147v-161q0 -52 -28.5 -98t-75.5 -73.5t-104 -27.5zM244 85q29 0 52 15t37 39.5t14 51.5v94q0 29 -14.5 52t-38.5 36.5t-51 13.5q-28 0 -51.5 -15
t-36.5 -39t-13 -50v-92q0 -27 13.5 -51.5t37.5 -39.5t51 -15z" />
    <glyph glyph-name="ntilde" unicode="&#xf1;" horiz-adv-x="512" 
d="M336 586q-30 0 -51.5 8t-41.5 15.5t-46 7.5q-21 0 -35 -6.5t-24 -13.5t-19 -7q-10 0 -16.5 6.5t-9 15.5t-2.5 14q0 20 9.5 32t24 19t29 10t24.5 3q28 0 49 -7.5t42 -15.5t47 -8q22 0 35 6.5t22.5 12.5t19.5 6q11 0 17 -6.5t8.5 -14.5t2.5 -13q0 -21 -9.5 -33.5
t-23.5 -19.5t-28.5 -9t-23.5 -2zM107 0q-23 0 -37.5 11t-14.5 24v405q0 15 14.5 24.5t37.5 9.5q19 0 33 -9.5t14 -24.5v-36q15 29 49.5 52.5t84.5 23.5q47 0 86.5 -26.5t63.5 -71t24 -99.5v-248q0 -17 -16.5 -26t-36.5 -9q-18 0 -35 9t-17 26v248q0 26 -13.5 50t-36.5 39
t-51 15q-24 0 -46 -12.5t-36 -35.5t-14 -56v-248q0 -13 -15.5 -24t-37.5 -11z" />
    <glyph glyph-name="ograve" unicode="&#xf2;" horiz-adv-x="486" 
d="M292 577q-4 0 -7 1l-6 2l-121 61q-16 8 -16 27q0 14 9.5 27.5t24.5 13.5q5 0 11 -2l124 -63q15 -8 15 -26q0 -14 -9.5 -27.5t-24.5 -13.5zM242 -8q-54 0 -101 28t-75.5 73.5t-28.5 97.5v92q0 53 27.5 98t75 72t103.5 27t103 -26.5t75.5 -71t28.5 -99.5v-92
q0 -51 -28.5 -97t-76 -74t-103.5 -28zM243 85q28 0 51 15t37 39.5t14 51.5v92q0 26 -14 50t-37 39t-51 15q-29 0 -51.5 -15t-36 -39t-13.5 -50v-92q0 -27 13.5 -51.5t36.5 -39.5t51 -15z" />
    <glyph glyph-name="oacute" unicode="&#xf3;" horiz-adv-x="486" 
d="M188 576q-14 0 -24.5 13.5t-10.5 27.5q0 18 15 26l124 63q6 2 11 2q15 0 24.5 -13.5t9.5 -27.5q0 -19 -16 -27l-121 -61l-6 -2t-6 -1zM242 -8q-54 0 -101 28t-75.5 73.5t-28.5 97.5v92q0 53 27.5 98t75 72t103.5 27t103 -26.5t75.5 -71t28.5 -99.5v-92q0 -51 -28.5 -97
t-76 -74t-103.5 -28zM243 85q28 0 51 15t37 39.5t14 51.5v92q0 26 -14 50t-37 39t-51 15q-29 0 -51.5 -15t-36 -39t-13.5 -50v-92q0 -27 13.5 -51.5t36.5 -39.5t51 -15z" />
    <glyph glyph-name="ocircumflex" unicode="&#xf4;" horiz-adv-x="486" 
d="M130 582q-11 0 -18.5 10.5t-7.5 24.5q0 9 4.5 17.5t13.5 13.5l104 56q9 5 17 5t17 -5l104 -55q11 -5 15 -14.5t4 -18.5q0 -13 -7 -23.5t-19 -10.5q-2 0 -4.5 1t-5.5 2l-104 56l-104 -56q-2 -1 -4.5 -2t-4.5 -1zM242 -8q-54 0 -101 28t-75.5 73.5t-28.5 97.5v92
q0 53 27.5 98t75 72t103.5 27t103 -26.5t75.5 -71t28.5 -99.5v-92q0 -51 -28.5 -97t-76 -74t-103.5 -28zM243 85q28 0 51 15t37 39.5t14 51.5v92q0 26 -14 50t-37 39t-51 15q-29 0 -51.5 -15t-36 -39t-13.5 -50v-92q0 -27 13.5 -51.5t36.5 -39.5t51 -15z" />
    <glyph glyph-name="otilde" unicode="&#xf5;" horiz-adv-x="486" 
d="M324 597q-30 0 -51.5 8t-41.5 15.5t-46 7.5q-21 0 -35 -6.5t-24 -13.5t-19 -7q-10 0 -16.5 6.5t-9 15.5t-2.5 14q0 20 9.5 32t24 19t29 10t24.5 3q28 0 49 -7.5t42 -15.5t47 -8q22 0 35 6.5t22.5 12.5t19.5 6q11 0 17 -6.5t8.5 -14.5t2.5 -13q0 -21 -9.5 -33.5
t-23.5 -19.5t-28.5 -9t-23.5 -2zM242 -8q-54 0 -101 28t-75.5 73.5t-28.5 97.5v92q0 53 27.5 98t75 72t103.5 27t103 -26.5t75.5 -71t28.5 -99.5v-92q0 -51 -28.5 -97t-76 -74t-103.5 -28zM243 85q28 0 51 15t37 39.5t14 51.5v92q0 26 -14 50t-37 39t-51 15q-29 0 -51.5 -15
t-36 -39t-13.5 -50v-92q0 -27 13.5 -51.5t36.5 -39.5t51 -15z" />
    <glyph glyph-name="odieresis" unicode="&#xf6;" horiz-adv-x="486" 
d="M315 582q-19 0 -32 14t-13 33t13 32.5t32 13.5t32 -13.5t13 -32.5t-13 -33t-32 -14zM176 582q-19 0 -32.5 14t-13.5 33t13.5 32.5t32.5 13.5t31.5 -13.5t12.5 -32.5t-12.5 -33t-31.5 -14zM242 -8q-54 0 -101 28t-75.5 73.5t-28.5 97.5v92q0 53 27.5 98t75 72t103.5 27
t103 -26.5t75.5 -71t28.5 -99.5v-92q0 -51 -28.5 -97t-76 -74t-103.5 -28zM243 85q28 0 51 15t37 39.5t14 51.5v92q0 26 -14 50t-37 39t-51 15q-29 0 -51.5 -15t-36 -39t-13.5 -50v-92q0 -27 13.5 -51.5t36.5 -39.5t51 -15z" />
    <glyph glyph-name="divide" unicode="&#xf7;" horiz-adv-x="458" 
d="M69 197q-15 0 -25 11.5t-10 30.5q0 18 10 30t25 12h318q14 0 25.5 -12t11.5 -30q0 -19 -11.5 -30.5t-25.5 -11.5h-318zM225 17q-22 0 -39.5 16.5t-17.5 38.5q0 23 17.5 38.5t39.5 15.5q21 0 39 -15.5t18 -38.5q0 -22 -18 -38.5t-39 -16.5zM225 352q-22 0 -39.5 16
t-17.5 39q0 22 17.5 38.5t39.5 16.5q21 0 39 -16.5t18 -38.5q0 -23 -18 -39t-39 -16z" />
    <glyph glyph-name="oslash" unicode="&#xf8;" horiz-adv-x="486" 
d="M81 -32q-9 0 -17 7t-8 17q0 7 5 14l33 50l256 395l32 48q7 11 18 11t19 -8t8 -19q0 -8 -6 -17l-31 -46l-259 -395l-33 -48q-5 -9 -17 -9zM242 -8q-54 0 -101 28t-75.5 73.5t-28.5 97.5v92q0 53 27.5 98t75 72t103.5 27t103 -26.5t75.5 -71t28.5 -99.5v-92
q0 -51 -28.5 -97t-76 -74t-103.5 -28zM243 85q28 0 51 15t37 39.5t14 51.5v92q0 26 -14 50t-37 39t-51 15q-29 0 -51.5 -15t-36 -39t-13.5 -50v-92q0 -27 13.5 -51.5t36.5 -39.5t51 -15z" />
    <glyph glyph-name="ugrave" unicode="&#xf9;" horiz-adv-x="513" 
d="M299 567q-4 0 -7 1l-6 2l-121 61q-16 8 -16 27q0 14 9.5 27.5t24.5 13.5q5 0 11 -2l124 -63q15 -8 15 -26q0 -14 -9.5 -27.5t-24.5 -13.5zM257 -8q-56 0 -103.5 27.5t-75.5 73t-28 96.5v250q0 13 15.5 24t37.5 11q21 0 36.5 -11t15.5 -24v-250q0 -26 13.5 -50t37 -39
t51.5 -15t51 15t36.5 39t13.5 50v251q0 14 16.5 24t36.5 10q23 0 37.5 -10t14.5 -24v-251q0 -53 -28 -98t-75 -72t-103 -27z" />
    <glyph glyph-name="uacute" unicode="&#xfa;" horiz-adv-x="513" 
d="M220 568q-14 0 -24.5 13.5t-10.5 27.5q0 18 15 26l124 63q6 2 11 2q15 0 24.5 -13.5t9.5 -27.5q0 -19 -16 -27l-121 -61l-6 -2t-6 -1zM257 -8q-56 0 -103.5 27.5t-75.5 73t-28 96.5v250q0 13 15.5 24t37.5 11q21 0 36.5 -11t15.5 -24v-250q0 -26 13.5 -50t37 -39
t51.5 -15t51 15t36.5 39t13.5 50v251q0 14 16.5 24t36.5 10q23 0 37.5 -10t14.5 -24v-251q0 -53 -28 -98t-75 -72t-103 -27z" />
    <glyph glyph-name="ucircumflex" unicode="&#xfb;" horiz-adv-x="513" 
d="M144 572q-11 0 -18.5 10.5t-7.5 24.5q0 9 4.5 17.5t13.5 13.5l104 56q9 5 17 5t17 -5l104 -55q11 -5 15 -14.5t4 -18.5q0 -13 -7 -23.5t-19 -10.5q-2 0 -4.5 1t-5.5 2l-104 56l-104 -56q-2 -1 -4.5 -2t-4.5 -1zM257 -8q-56 0 -103.5 27.5t-75.5 73t-28 96.5v250
q0 13 15.5 24t37.5 11q21 0 36.5 -11t15.5 -24v-250q0 -26 13.5 -50t37 -39t51.5 -15t51 15t36.5 39t13.5 50v251q0 14 16.5 24t36.5 10q23 0 37.5 -10t14.5 -24v-251q0 -53 -28 -98t-75 -72t-103 -27z" />
    <glyph glyph-name="udieresis" unicode="&#xfc;" horiz-adv-x="513" 
d="M326 573q-19 0 -32 14t-13 33t13 32.5t32 13.5t32 -13.5t13 -32.5t-13 -33t-32 -14zM187 573q-19 0 -32.5 14t-13.5 33t13.5 32.5t32.5 13.5t31.5 -13.5t12.5 -32.5t-12.5 -33t-31.5 -14zM257 -8q-56 0 -103.5 27.5t-75.5 73t-28 96.5v250q0 13 15.5 24t37.5 11
q21 0 36.5 -11t15.5 -24v-250q0 -26 13.5 -50t37 -39t51.5 -15t51 15t36.5 39t13.5 50v251q0 14 16.5 24t36.5 10q23 0 37.5 -10t14.5 -24v-251q0 -53 -28 -98t-75 -72t-103 -27z" />
    <glyph glyph-name="yacute" unicode="&#xfd;" horiz-adv-x="454" 
d="M190 568q-14 0 -24.5 13.5t-10.5 27.5q0 18 15 26l124 63q6 2 11 2q15 0 24.5 -13.5t9.5 -27.5q0 -19 -16 -27l-121 -61l-6 -2t-6 -1zM57 -225q-20 0 -34 8.5t-14 36.5q0 18 6 31.5t22 13.5q19 0 41.5 9.5t44 30t37 51.5t21.5 73l-169 388q-4 7 -4 14q0 13 11.5 24.5
t27.5 18.5t30 7q10 0 19.5 -4.5t12.5 -14.5l126 -325l109 325q3 10 12 14.5t18 4.5q12 0 28.5 -7t29 -18.5t12.5 -26.5q0 -8 -3 -12l-150 -391q-16 -43 -33 -87.5t-41.5 -81.5t-63 -59.5t-96.5 -22.5z" />
    <glyph glyph-name="thorn" unicode="&#xfe;" horiz-adv-x="506" 
d="M107 -225q-22 0 -36.5 11t-14.5 24v912q0 15 14.5 24.5t35.5 9.5q24 0 39.5 -9.5t15.5 -24.5v-318q16 29 49 52.5t79 23.5q50 0 91 -26.5t65 -71t24 -99.5v-92q0 -52 -24.5 -97.5t-64.5 -73.5t-87 -28q-45 0 -81 23.5t-51 54.5v-260q0 -13 -15.5 -24t-38.5 -11zM262 85
q27 0 50 15t37.5 40t14.5 51v92q0 26 -14 50t-37.5 39t-52.5 15q-24 0 -47 -12.5t-37.5 -35.5t-14.5 -56v-115q0 -12 13 -31.5t36 -35.5t52 -16z" />
    <glyph glyph-name="ydieresis" unicode="&#xff;" horiz-adv-x="454" 
d="M296 573q-19 0 -32 14t-13 33t13 32.5t32 13.5t32 -13.5t13 -32.5t-13 -33t-32 -14zM157 573q-19 0 -32.5 14t-13.5 33t13.5 32.5t32.5 13.5t31.5 -13.5t12.5 -32.5t-12.5 -33t-31.5 -14zM57 -225q-20 0 -34 8.5t-14 36.5q0 18 6 31.5t22 13.5q19 0 41.5 9.5t44 30
t37 51.5t21.5 73l-169 388q-4 7 -4 14q0 13 11.5 24.5t27.5 18.5t30 7q10 0 19.5 -4.5t12.5 -14.5l126 -325l109 325q3 10 12 14.5t18 4.5q12 0 28.5 -7t29 -18.5t12.5 -26.5q0 -8 -3 -12l-150 -391q-16 -43 -33 -87.5t-41.5 -81.5t-63 -59.5t-96.5 -22.5z" />
    <glyph glyph-name="Amacron" unicode="&#x100;" horiz-adv-x="561" 
d="M175 867q-15 0 -24.5 10t-9.5 25q0 16 9.5 26.5t24.5 10.5h209q13 0 24 -10.5t11 -26.5q0 -15 -11 -25t-24 -10h-209zM79 0q-14 0 -30 6t-26 15.5t-10 22.5q0 3 1 9l199 648q6 18 25.5 27t41.5 9q23 0 42.5 -9t25.5 -27l198 -648q2 -6 2 -9q0 -12 -10.5 -22t-26 -16
t-30.5 -6q-13 0 -22.5 5t-13.5 17l-41 142h-248l-40 -142q-3 -12 -13.5 -17t-23.5 -5zM180 249h200l-100 343z" />
    <glyph glyph-name="amacron" unicode="&#x101;" horiz-adv-x="459" 
d="M113 617q-15 0 -24.5 10t-9.5 25q0 16 9.5 26.5t24.5 10.5h209q13 0 24 -10.5t11 -26.5q0 -15 -11 -25t-24 -10h-209zM158 -8q-55 0 -94 32.5t-39 99.5q0 57 30 88t82.5 43t121.5 12h44v18q0 26 -9.5 50.5t-31 41t-58.5 16.5t-57 -7t-32 -15t-22 -8q-18 0 -28 17.5
t-10 35.5t23.5 32.5t58.5 23t69 8.5q74 0 118 -27.5t64 -71.5t20 -95v-251q0 -14 -14.5 -24.5t-36.5 -10.5q-20 0 -34 10.5t-14 24.5v35q-26 -30 -63 -54t-88 -24zM196 72q25 0 49.5 15t41 38t16.5 47v37h-25q-38 0 -72 -4.5t-54.5 -20t-20.5 -47.5q0 -34 18.5 -49.5
t46.5 -15.5z" />
    <glyph glyph-name="Abreve" unicode="&#x102;" horiz-adv-x="561" 
d="M281 839q-43 0 -78.5 29t-45.5 71q-3 12 4 19t18 7h13q10 0 16 -5.5t9 -15.5q6 -25 24.5 -40.5t39.5 -15.5q22 0 39.5 15.5t23.5 40.5q3 10 9 15.5t16 5.5h13q11 0 18.5 -7t4.5 -19q-11 -42 -46.5 -71t-77.5 -29zM79 0q-14 0 -30 6t-26 15.5t-10 22.5q0 3 1 9l199 648
q6 18 25.5 27t41.5 9q23 0 42.5 -9t25.5 -27l198 -648q2 -6 2 -9q0 -12 -10.5 -22t-26 -16t-30.5 -6q-13 0 -22.5 5t-13.5 17l-41 142h-248l-40 -142q-3 -12 -13.5 -17t-23.5 -5zM180 249h200l-100 343z" />
    <glyph glyph-name="abreve" unicode="&#x103;" horiz-adv-x="459" 
d="M218 589q-43 0 -78.5 29t-45.5 71q-3 12 4 19t18 7h13q10 0 16 -5.5t9 -15.5q6 -25 24.5 -40.5t39.5 -15.5q22 0 39.5 15.5t23.5 40.5q3 10 9 15.5t16 5.5h13q11 0 18.5 -7t4.5 -19q-11 -42 -46.5 -71t-77.5 -29zM158 -8q-55 0 -94 32.5t-39 99.5q0 57 30 88t82.5 43
t121.5 12h44v18q0 26 -9.5 50.5t-31 41t-58.5 16.5t-57 -7t-32 -15t-22 -8q-18 0 -28 17.5t-10 35.5t23.5 32.5t58.5 23t69 8.5q74 0 118 -27.5t64 -71.5t20 -95v-251q0 -14 -14.5 -24.5t-36.5 -10.5q-20 0 -34 10.5t-14 24.5v35q-26 -30 -63 -54t-88 -24zM196 72
q25 0 49.5 15t41 38t16.5 47v37h-25q-38 0 -72 -4.5t-54.5 -20t-20.5 -47.5q0 -34 18.5 -49.5t46.5 -15.5z" />
    <glyph glyph-name="Aogonek" unicode="&#x104;" horiz-adv-x="561" 
d="M498 -208q-33 0 -57.5 9.5t-38 29t-13.5 45.5q0 42 24 81t65 67l42 -18q-33 -23 -54.5 -55.5t-21.5 -65.5q0 -23 15 -34.5t45 -11.5q11 0 16.5 -7.5t5.5 -17.5q0 -9 -5.5 -15.5t-22.5 -6.5zM79 0q-14 0 -30 6t-26 15.5t-10 22.5q0 3 1 9l199 648q6 18 25.5 27t41.5 9
q23 0 42.5 -9t25.5 -27l198 -648q2 -6 2 -9q0 -12 -10.5 -22t-26 -16t-30.5 -6q-13 0 -22.5 5t-13.5 17l-41 142h-248l-40 -142q-3 -12 -13.5 -17t-23.5 -5zM180 249h200l-100 343z" />
    <glyph glyph-name="aogonek" unicode="&#x105;" horiz-adv-x="459" 
d="M363 -207q-33 0 -57.5 9.5t-38 29t-13.5 45.5q0 42 24 81t65 67l42 -18q-33 -23 -54.5 -55.5t-21.5 -65.5q0 -23 15 -34.5t45 -11.5q11 0 16.5 -7.5t5.5 -17.5q0 -9 -5.5 -15.5t-22.5 -6.5zM158 -8q-55 0 -94 32.5t-39 99.5q0 57 30 88t82.5 43t121.5 12h44v18
q0 26 -9.5 50.5t-31 41t-58.5 16.5t-57 -7t-32 -15t-22 -8q-18 0 -28 17.5t-10 35.5t23.5 32.5t58.5 23t69 8.5q74 0 118 -27.5t64 -71.5t20 -95v-251q0 -14 -14.5 -24.5t-36.5 -10.5q-20 0 -34 10.5t-14 24.5v35q-26 -30 -63 -54t-88 -24zM196 72q25 0 49.5 15t41 38
t16.5 47v37h-25q-38 0 -72 -4.5t-54.5 -20t-20.5 -47.5q0 -34 18.5 -49.5t46.5 -15.5z" />
    <glyph glyph-name="Cacute" unicode="&#x106;" horiz-adv-x="541" 
d="M240 824q-14 0 -24.5 13.5t-10.5 27.5q0 18 15 26l124 63q6 2 11 2q15 0 24.5 -13.5t9.5 -27.5q0 -19 -16 -27l-121 -61l-6 -2t-6 -1zM280 -6q-60 0 -110.5 22t-80.5 71t-30 130v291q0 81 30 130t81 71t111 22q69 0 119.5 -23.5t79 -64t28.5 -93.5q0 -34 -13 -44.5
t-40 -10.5q-24 0 -38 8.5t-15 26.5q-1 13 -5 31t-15.5 35.5t-34.5 29t-63 11.5q-58 0 -89 -31.5t-31 -97.5v-291q0 -66 31.5 -97.5t91.5 -31.5q38 0 60.5 11.5t33.5 29t15 37t6 35.5q1 19 15.5 27t36.5 8q28 0 41 -11t13 -44q0 -54 -28.5 -96.5t-79.5 -66.5t-120 -24z" />
    <glyph glyph-name="cacute" unicode="&#x107;" horiz-adv-x="425" 
d="M175 577q-14 0 -24.5 13.5t-10.5 27.5q0 18 15 26l124 63q6 2 11 2q15 0 24.5 -13.5t9.5 -27.5q0 -19 -16 -27l-121 -61l-6 -2t-6 -1zM247 -8q-72 0 -118.5 26t-68.5 71t-22 102v90q0 56 22 101.5t68 71.5t117 26q46 0 80.5 -11t54 -27.5t19.5 -34.5q0 -9 -5.5 -21.5
t-15 -21t-22.5 -8.5q-10 0 -21.5 8t-30.5 15.5t-51 7.5q-56 0 -83 -28t-27 -78v-90q0 -50 27 -78t84 -28q33 0 52 8.5t30.5 16.5t22.5 8q14 0 24.5 -8t16 -20t5.5 -22q0 -17 -20.5 -35t-56 -29.5t-81.5 -11.5z" />
    <glyph glyph-name="Ccircumflex" unicode="&#x108;" horiz-adv-x="541" 
d="M164 829q-11 0 -18.5 10.5t-7.5 24.5q0 9 4.5 17.5t13.5 13.5l104 56q9 5 17 5t17 -5l104 -55q11 -5 15 -14.5t4 -18.5q0 -13 -7 -23.5t-19 -10.5q-2 0 -4.5 1t-5.5 2l-104 56l-104 -56q-2 -1 -4.5 -2t-4.5 -1zM280 -6q-60 0 -110.5 22t-80.5 71t-30 130v291q0 81 30 130
t81 71t111 22q69 0 119.5 -23.5t79 -64t28.5 -93.5q0 -34 -13 -44.5t-40 -10.5q-24 0 -38 8.5t-15 26.5q-1 13 -5 31t-15.5 35.5t-34.5 29t-63 11.5q-58 0 -89 -31.5t-31 -97.5v-291q0 -66 31.5 -97.5t91.5 -31.5q38 0 60.5 11.5t33.5 29t15 37t6 35.5q1 19 15.5 27t36.5 8
q28 0 41 -11t13 -44q0 -54 -28.5 -96.5t-79.5 -66.5t-120 -24z" />
    <glyph glyph-name="ccircumflex" unicode="&#x109;" horiz-adv-x="425" 
d="M99 581q-11 0 -18.5 10.5t-7.5 24.5q0 9 4.5 17.5t13.5 13.5l104 56q9 5 17 5t17 -5l104 -55q11 -5 15 -14.5t4 -18.5q0 -13 -7 -23.5t-19 -10.5q-2 0 -4.5 1t-5.5 2l-104 56l-104 -56q-2 -1 -4.5 -2t-4.5 -1zM247 -8q-72 0 -118.5 26t-68.5 71t-22 102v90q0 56 22 101.5
t68 71.5t117 26q46 0 80.5 -11t54 -27.5t19.5 -34.5q0 -9 -5.5 -21.5t-15 -21t-22.5 -8.5q-10 0 -21.5 8t-30.5 15.5t-51 7.5q-56 0 -83 -28t-27 -78v-90q0 -50 27 -78t84 -28q33 0 52 8.5t30.5 16.5t22.5 8q14 0 24.5 -8t16 -20t5.5 -22q0 -17 -20.5 -35t-56 -29.5
t-81.5 -11.5z" />
    <glyph glyph-name="Cdotaccent" unicode="&#x10a;" horiz-adv-x="541" 
d="M283 831q-19 0 -33 14.5t-14 33.5t14 33.5t33 14.5q20 0 33.5 -14.5t13.5 -33.5t-13.5 -33.5t-33.5 -14.5zM280 -6q-60 0 -110.5 22t-80.5 71t-30 130v291q0 81 30 130t81 71t111 22q69 0 119.5 -23.5t79 -64t28.5 -93.5q0 -34 -13 -44.5t-40 -10.5q-24 0 -38 8.5
t-15 26.5q-1 13 -5 31t-15.5 35.5t-34.5 29t-63 11.5q-58 0 -89 -31.5t-31 -97.5v-291q0 -66 31.5 -97.5t91.5 -31.5q38 0 60.5 11.5t33.5 29t15 37t6 35.5q1 19 15.5 27t36.5 8q28 0 41 -11t13 -44q0 -54 -28.5 -96.5t-79.5 -66.5t-120 -24z" />
    <glyph glyph-name="cdotaccent" unicode="&#x10b;" horiz-adv-x="425" 
d="M219 583q-19 0 -33 14.5t-14 33.5t14 33.5t33 14.5q20 0 33.5 -14.5t13.5 -33.5t-13.5 -33.5t-33.5 -14.5zM247 -8q-72 0 -118.5 26t-68.5 71t-22 102v90q0 56 22 101.5t68 71.5t117 26q46 0 80.5 -11t54 -27.5t19.5 -34.5q0 -9 -5.5 -21.5t-15 -21t-22.5 -8.5
q-10 0 -21.5 8t-30.5 15.5t-51 7.5q-56 0 -83 -28t-27 -78v-90q0 -50 27 -78t84 -28q33 0 52 8.5t30.5 16.5t22.5 8q14 0 24.5 -8t16 -20t5.5 -22q0 -17 -20.5 -35t-56 -29.5t-81.5 -11.5z" />
    <glyph glyph-name="Ccaron" unicode="&#x10c;" horiz-adv-x="541" 
d="M276 831q-9 0 -18 7l-103 75q-9 7 -13 15t-4 18q0 12 6.5 22.5t17.5 10.5q7 0 13 -6l101 -75l102 75q6 6 13 6q11 0 17.5 -10.5t6.5 -22.5q0 -10 -4 -18t-14 -15l-102 -75q-10 -7 -19 -7zM280 -6q-60 0 -110.5 22t-80.5 71t-30 130v291q0 81 30 130t81 71t111 22
q69 0 119.5 -23.5t79 -64t28.5 -93.5q0 -34 -13 -44.5t-40 -10.5q-24 0 -38 8.5t-15 26.5q-1 13 -5 31t-15.5 35.5t-34.5 29t-63 11.5q-58 0 -89 -31.5t-31 -97.5v-291q0 -66 31.5 -97.5t91.5 -31.5q38 0 60.5 11.5t33.5 29t15 37t6 35.5q1 19 15.5 27t36.5 8q28 0 41 -11
t13 -44q0 -54 -28.5 -96.5t-79.5 -66.5t-120 -24z" />
    <glyph glyph-name="ccaron" unicode="&#x10d;" horiz-adv-x="425" 
d="M221 583q-9 0 -18 7l-103 75q-9 7 -13 15t-4 18q0 12 6.5 22.5t17.5 10.5q7 0 13 -6l101 -75l102 75q6 6 13 6q11 0 17.5 -10.5t6.5 -22.5q0 -10 -4 -18t-14 -15l-102 -75q-10 -7 -19 -7zM247 -8q-72 0 -118.5 26t-68.5 71t-22 102v90q0 56 22 101.5t68 71.5t117 26
q46 0 80.5 -11t54 -27.5t19.5 -34.5q0 -9 -5.5 -21.5t-15 -21t-22.5 -8.5q-10 0 -21.5 8t-30.5 15.5t-51 7.5q-56 0 -83 -28t-27 -78v-90q0 -50 27 -78t84 -28q33 0 52 8.5t30.5 16.5t22.5 8q14 0 24.5 -8t16 -20t5.5 -22q0 -17 -20.5 -35t-56 -29.5t-81.5 -11.5z" />
    <glyph glyph-name="Dcaron" unicode="&#x10e;" horiz-adv-x="573" 
d="M286 831q-9 0 -18 7l-103 75q-9 7 -13 15t-4 18q0 12 6.5 22.5t17.5 10.5q7 0 13 -6l101 -75l102 75q6 6 13 6q11 0 17.5 -10.5t6.5 -22.5q0 -10 -4 -18t-14 -15l-102 -75q-10 -7 -19 -7zM113 0q-21 0 -34 10t-13 24v663q0 14 13 24t34 10h177q63 0 114.5 -22t81 -71
t29.5 -130v-285q0 -81 -29.5 -130t-81 -71t-114.5 -22h-177zM172 94h118q56 0 87.5 31.5t31.5 97.5v285q0 66 -31.5 97.5t-87.5 31.5h-118v-543z" />
    <glyph glyph-name="dcaron" unicode="&#x10f;" horiz-adv-x="506" 
d="M550 533q-12 0 -24 7.5t-12 21.5q0 7 2 12l23 53q-16 8 -25.5 22t-9.5 32q0 25 17.5 42.5t41.5 17.5q25 0 42.5 -17.5t17.5 -41.5q0 -5 -2 -14t-7.5 -23.5t-15.5 -38t-25 -58.5q-3 -8 -10 -11.5t-13 -3.5zM213 -8q-47 0 -87 28t-64.5 73.5t-24.5 97.5v92q0 55 24.5 99.5
t64.5 71t89 26.5q48 0 81 -23.5t49 -52.5v318q0 15 16 24.5t38 9.5t36.5 -9.5t14.5 -24.5v-687q0 -13 -14.5 -24t-36.5 -11q-19 0 -33.5 11t-14.5 24v35q-15 -31 -53 -54.5t-85 -23.5zM243 85q29 0 52 16t36.5 35.5t13.5 31.5v115q0 33 -15 56t-38 35.5t-48 12.5
q-28 0 -51.5 -15t-37 -39t-13.5 -50v-92q0 -26 13.5 -51t36.5 -40t51 -15z" />
    <glyph glyph-name="Dcroat" unicode="&#x110;" horiz-adv-x="581" 
d="M121 0q-21 0 -34 10t-13 24v310h-49q-14 0 -22 12t-8 27t8 27t22 12h49v275q0 14 13 24t34 10h177q63 0 114 -22t81 -71t30 -130v-285q0 -81 -30 -130t-81 -71t-114 -22h-177zM180 94h118q56 0 87.5 31.5t31.5 97.5v285q0 66 -31.5 97.5t-87.5 31.5h-118v-215h90
q14 0 22 -12t8 -27q0 -16 -8 -27.5t-22 -11.5h-90v-250z" />
    <glyph glyph-name="dcroat" unicode="&#x111;" horiz-adv-x="506" 
d="M213 -8q-47 0 -87 28t-64.5 73.5t-24.5 97.5v92q0 55 24.5 99.5t64.5 71t89 26.5q48 0 81 -23.5t49 -52.5v157h-93q-14 0 -21.5 12t-7.5 27t7.5 27.5t21.5 12.5h93v82q0 15 16 24.5t38 9.5t36.5 -9.5t14.5 -24.5v-82h37q14 0 22 -12.5t8 -27.5q0 -16 -8 -27.5t-22 -11.5
h-37v-526q0 -13 -14.5 -24t-36.5 -11q-19 0 -33.5 11t-14.5 24v35q-15 -31 -53 -54.5t-85 -23.5zM243 85q29 0 52 16t36.5 35.5t13.5 31.5v115q0 33 -15 56t-38 35.5t-48 12.5q-28 0 -51.5 -15t-37 -39t-13.5 -50v-92q0 -26 13.5 -51t36.5 -40t51 -15z" />
    <glyph glyph-name="Emacron" unicode="&#x112;" horiz-adv-x="522" 
d="M176 867q-15 0 -24.5 10t-9.5 25q0 16 9.5 26.5t24.5 10.5h209q13 0 24 -10.5t11 -26.5q0 -15 -11 -25t-24 -10h-209zM113 0q-17 0 -32 9t-15 26v661q0 17 15 26t32 9h356q19 0 27 -15t8 -31q0 -19 -9 -33.5t-26 -14.5h-297v-229h154q17 0 26 -13t9 -30q0 -14 -8 -27.5
t-27 -13.5h-154v-230h297q17 0 26 -14t9 -34q0 -16 -8 -31t-27 -15h-356z" />
    <glyph glyph-name="emacron" unicode="&#x113;" horiz-adv-x="475" 
d="M137 619q-15 0 -24.5 10t-9.5 25q0 16 9.5 26.5t24.5 10.5h209q13 0 24 -10.5t11 -26.5q0 -15 -11 -25t-24 -10h-209zM269 -8q-68 0 -120 25t-82 69.5t-30 104.5v95q0 53 28.5 97t75.5 70.5t104 26.5q54 0 99 -23.5t72.5 -65.5t27.5 -96q0 -42 -13 -60t-34 -22t-44 -4
h-211v-23q0 -50 36.5 -79.5t93.5 -29.5q35 0 57 10t37 19t28 9t22 -8t14 -19t5 -20q0 -15 -20.5 -33t-57.5 -30.5t-88 -12.5zM142 274h166q22 0 29.5 6t7.5 24q0 26 -13 48.5t-36 35t-52 12.5q-28 0 -51 -12t-37 -33t-14 -49v-32z" />
    <glyph glyph-name="Ebreve" unicode="&#x114;" horiz-adv-x="522" 
d="M281 839q-43 0 -78.5 29t-45.5 71q-3 12 4 19t18 7h13q10 0 16 -5.5t9 -15.5q6 -25 24.5 -40.5t39.5 -15.5q22 0 39.5 15.5t23.5 40.5q3 10 9 15.5t16 5.5h13q11 0 18.5 -7t4.5 -19q-11 -42 -46.5 -71t-77.5 -29zM113 0q-17 0 -32 9t-15 26v661q0 17 15 26t32 9h356
q19 0 27 -15t8 -31q0 -19 -9 -33.5t-26 -14.5h-297v-229h154q17 0 26 -13t9 -30q0 -14 -8 -27.5t-27 -13.5h-154v-230h297q17 0 26 -14t9 -34q0 -16 -8 -31t-27 -15h-356z" />
    <glyph glyph-name="ebreve" unicode="&#x115;" horiz-adv-x="475" 
d="M229 591q-43 0 -78.5 29t-45.5 71q-3 12 4 19t18 7h13q10 0 16 -5.5t9 -15.5q6 -25 24.5 -40.5t39.5 -15.5q22 0 39.5 15.5t23.5 40.5q3 10 9 15.5t16 5.5h13q11 0 18.5 -7t4.5 -19q-11 -42 -46.5 -71t-77.5 -29zM269 -8q-68 0 -120 25t-82 69.5t-30 104.5v95
q0 53 28.5 97t75.5 70.5t104 26.5q54 0 99 -23.5t72.5 -65.5t27.5 -96q0 -42 -13 -60t-34 -22t-44 -4h-211v-23q0 -50 36.5 -79.5t93.5 -29.5q35 0 57 10t37 19t28 9t22 -8t14 -19t5 -20q0 -15 -20.5 -33t-57.5 -30.5t-88 -12.5zM142 274h166q22 0 29.5 6t7.5 24
q0 26 -13 48.5t-36 35t-52 12.5q-28 0 -51 -12t-37 -33t-14 -49v-32z" />
    <glyph glyph-name="Edotaccent" unicode="&#x116;" horiz-adv-x="522" 
d="M288 831q-19 0 -33 14.5t-14 33.5t14 33.5t33 14.5q20 0 33.5 -14.5t13.5 -33.5t-13.5 -33.5t-33.5 -14.5zM113 0q-17 0 -32 9t-15 26v661q0 17 15 26t32 9h356q19 0 27 -15t8 -31q0 -19 -9 -33.5t-26 -14.5h-297v-229h154q17 0 26 -13t9 -30q0 -14 -8 -27.5t-27 -13.5
h-154v-230h297q17 0 26 -14t9 -34q0 -16 -8 -31t-27 -15h-356z" />
    <glyph glyph-name="edotaccent" unicode="&#x117;" horiz-adv-x="475" 
d="M242 583q-19 0 -33 14.5t-14 33.5t14 33.5t33 14.5q20 0 33.5 -14.5t13.5 -33.5t-13.5 -33.5t-33.5 -14.5zM269 -8q-68 0 -120 25t-82 69.5t-30 104.5v95q0 53 28.5 97t75.5 70.5t104 26.5q54 0 99 -23.5t72.5 -65.5t27.5 -96q0 -42 -13 -60t-34 -22t-44 -4h-211v-23
q0 -50 36.5 -79.5t93.5 -29.5q35 0 57 10t37 19t28 9t22 -8t14 -19t5 -20q0 -15 -20.5 -33t-57.5 -30.5t-88 -12.5zM142 274h166q22 0 29.5 6t7.5 24q0 26 -13 48.5t-36 35t-52 12.5q-28 0 -51 -12t-37 -33t-14 -49v-32z" />
    <glyph glyph-name="Eogonek" unicode="&#x118;" horiz-adv-x="522" 
d="M465 -208q-33 0 -57.5 9.5t-38 29t-13.5 45.5q0 42 24 81t65 67l42 -18q-33 -23 -54.5 -55.5t-21.5 -65.5q0 -23 15 -34.5t45 -11.5q11 0 16.5 -7.5t5.5 -17.5q0 -9 -5.5 -15.5t-22.5 -6.5zM113 0q-17 0 -32 9t-15 26v661q0 17 15 26t32 9h356q19 0 27 -15t8 -31
q0 -19 -9 -33.5t-26 -14.5h-297v-229h154q17 0 26 -13t9 -30q0 -14 -8 -27.5t-27 -13.5h-154v-230h297q17 0 26 -14t9 -34q0 -16 -8 -31t-27 -15h-356z" />
    <glyph glyph-name="eogonek" unicode="&#x119;" horiz-adv-x="475" 
d="M361 -193q-33 0 -57.5 9.5t-38 29t-13.5 45.5q0 42 24 81t65 67l42 -18q-33 -23 -54.5 -55.5t-21.5 -65.5q0 -23 15 -34.5t45 -11.5q11 0 16.5 -7.5t5.5 -17.5q0 -9 -5.5 -15.5t-22.5 -6.5zM269 -8q-68 0 -120 25t-82 69.5t-30 104.5v95q0 53 28.5 97t75.5 70.5t104 26.5
q54 0 99 -23.5t72.5 -65.5t27.5 -96q0 -42 -13 -60t-34 -22t-44 -4h-211v-23q0 -50 36.5 -79.5t93.5 -29.5q35 0 57 10t37 19t28 9t22 -8t14 -19t5 -20q0 -15 -20.5 -33t-57.5 -30.5t-88 -12.5zM142 274h166q22 0 29.5 6t7.5 24q0 26 -13 48.5t-36 35t-52 12.5
q-28 0 -51 -12t-37 -33t-14 -49v-32z" />
    <glyph glyph-name="Ecaron" unicode="&#x11a;" horiz-adv-x="522" 
d="M281 831q-9 0 -18 7l-103 75q-9 7 -13 15t-4 18q0 12 6.5 22.5t17.5 10.5q7 0 13 -6l101 -75l102 75q6 6 13 6q11 0 17.5 -10.5t6.5 -22.5q0 -10 -4 -18t-14 -15l-102 -75q-10 -7 -19 -7zM113 0q-17 0 -32 9t-15 26v661q0 17 15 26t32 9h356q19 0 27 -15t8 -31
q0 -19 -9 -33.5t-26 -14.5h-297v-229h154q17 0 26 -13t9 -30q0 -14 -8 -27.5t-27 -13.5h-154v-230h297q17 0 26 -14t9 -34q0 -16 -8 -31t-27 -15h-356z" />
    <glyph glyph-name="ecaron" unicode="&#x11b;" horiz-adv-x="475" 
d="M242 583q-9 0 -18 7l-103 75q-9 7 -13 15t-4 18q0 12 6.5 22.5t17.5 10.5q7 0 13 -6l101 -75l102 75q6 6 13 6q11 0 17.5 -10.5t6.5 -22.5q0 -10 -4 -18t-14 -15l-102 -75q-10 -7 -19 -7zM269 -8q-68 0 -120 25t-82 69.5t-30 104.5v95q0 53 28.5 97t75.5 70.5t104 26.5
q54 0 99 -23.5t72.5 -65.5t27.5 -96q0 -42 -13 -60t-34 -22t-44 -4h-211v-23q0 -50 36.5 -79.5t93.5 -29.5q35 0 57 10t37 19t28 9t22 -8t14 -19t5 -20q0 -15 -20.5 -33t-57.5 -30.5t-88 -12.5zM142 274h166q22 0 29.5 6t7.5 24q0 26 -13 48.5t-36 35t-52 12.5
q-28 0 -51 -12t-37 -33t-14 -49v-32z" />
    <glyph glyph-name="Gcircumflex" unicode="&#x11c;" horiz-adv-x="555" 
d="M168 829q-11 0 -18.5 10.5t-7.5 24.5q0 9 4.5 17.5t13.5 13.5l104 56q9 5 17 5t17 -5l104 -55q11 -5 15 -14.5t4 -18.5q0 -13 -7 -23.5t-19 -10.5q-2 0 -4.5 1t-5.5 2l-104 56l-104 -56q-2 -1 -4.5 -2t-4.5 -1zM283 -6q-64 0 -114.5 22t-80 71t-29.5 130v291
q0 81 29.5 130t80 71t111.5 22q68 0 119 -23t80 -64t29 -98q0 -30 -13.5 -40.5t-39.5 -10.5q-21 0 -36.5 7.5t-16.5 27.5q-3 29 -14 53.5t-36 39t-69 14.5q-56 0 -87.5 -31.5t-31.5 -97.5v-291q0 -66 31.5 -97.5t87.5 -31.5q55 0 87 31.5t32 97.5v82h-101q-16 0 -25 13
t-9 30q0 15 9 28.5t25 13.5h172q17 0 26 -10.5t9 -25.5v-131q0 -81 -30 -130t-81 -71t-114 -22z" />
    <glyph glyph-name="gcircumflex" unicode="&#x11d;" horiz-adv-x="465" 
d="M105 581q-11 0 -18.5 10.5t-7.5 24.5q0 9 4.5 17.5t13.5 13.5l104 56q9 5 17 5t17 -5l104 -55q11 -5 15 -14.5t4 -18.5q0 -13 -7 -23.5t-19 -10.5q-2 0 -4.5 1t-5.5 2l-104 56l-104 -56q-2 -1 -4.5 -2t-4.5 -1zM234 -225q-58 0 -107 16.5t-78 47.5t-29 74q0 40 23 66.5
t54 40.5q-20 9 -33 24t-13 42q0 28 14 45t36 31q-28 22 -43.5 54.5t-15.5 71.5v28q0 48 23 85t65.5 58t97.5 21q34 0 63.5 -9t52.5 -25q16 37 32.5 52t31.5 15q21 0 32 -12t11 -24q0 -8 -4.5 -14.5t-12.5 -10.5q-10 -5 -23.5 -13.5t-26.5 -26.5q17 -19 25 -44t8 -52v-28
q0 -47 -24 -85t-67 -59.5t-98 -21.5q-39 0 -69 12q-8 -5 -13.5 -11.5t-5.5 -16.5q0 -18 22 -26t56.5 -12t73.5 -10t73.5 -19.5t56.5 -40t22 -72.5q0 -52 -29 -85.5t-76.5 -49.5t-104.5 -16zM232 -155q49 0 79.5 21.5t30.5 56.5q0 25 -15 39t-39 21t-50.5 10t-50.5 6
q-28 -10 -47.5 -28.5t-19.5 -46.5q0 -37 31.5 -58t80.5 -21zM230 189q40 0 62.5 28t22.5 71v28q0 41 -22.5 69t-63.5 28t-63 -28t-22 -69v-27q0 -42 22 -71t64 -29z" />
    <glyph glyph-name="Gbreve" unicode="&#x11e;" horiz-adv-x="555" 
d="M282 839q-43 0 -78.5 29t-45.5 71q-3 12 4 19t18 7h13q10 0 16 -5.5t9 -15.5q6 -25 24.5 -40.5t39.5 -15.5q22 0 39.5 15.5t23.5 40.5q3 10 9 15.5t16 5.5h13q11 0 18.5 -7t4.5 -19q-11 -42 -46.5 -71t-77.5 -29zM283 -6q-64 0 -114.5 22t-80 71t-29.5 130v291
q0 81 29.5 130t80 71t111.5 22q68 0 119 -23t80 -64t29 -98q0 -30 -13.5 -40.5t-39.5 -10.5q-21 0 -36.5 7.5t-16.5 27.5q-3 29 -14 53.5t-36 39t-69 14.5q-56 0 -87.5 -31.5t-31.5 -97.5v-291q0 -66 31.5 -97.5t87.5 -31.5q55 0 87 31.5t32 97.5v82h-101q-16 0 -25 13
t-9 30q0 15 9 28.5t25 13.5h172q17 0 26 -10.5t9 -25.5v-131q0 -81 -30 -130t-81 -71t-114 -22z" />
    <glyph glyph-name="gbreve" unicode="&#x11f;" horiz-adv-x="465" 
d="M218 591q-43 0 -78.5 29t-45.5 71q-3 12 4 19t18 7h13q10 0 16 -5.5t9 -15.5q6 -25 24.5 -40.5t39.5 -15.5q22 0 39.5 15.5t23.5 40.5q3 10 9 15.5t16 5.5h13q11 0 18.5 -7t4.5 -19q-11 -42 -46.5 -71t-77.5 -29zM234 -225q-58 0 -107 16.5t-78 47.5t-29 74q0 40 23 66.5
t54 40.5q-20 9 -33 24t-13 42q0 28 14 45t36 31q-28 22 -43.5 54.5t-15.5 71.5v28q0 48 23 85t65.5 58t97.5 21q34 0 63.5 -9t52.5 -25q16 37 32.5 52t31.5 15q21 0 32 -12t11 -24q0 -8 -4.5 -14.5t-12.5 -10.5q-10 -5 -23.5 -13.5t-26.5 -26.5q17 -19 25 -44t8 -52v-28
q0 -47 -24 -85t-67 -59.5t-98 -21.5q-39 0 -69 12q-8 -5 -13.5 -11.5t-5.5 -16.5q0 -18 22 -26t56.5 -12t73.5 -10t73.5 -19.5t56.5 -40t22 -72.5q0 -52 -29 -85.5t-76.5 -49.5t-104.5 -16zM232 -155q49 0 79.5 21.5t30.5 56.5q0 25 -15 39t-39 21t-50.5 10t-50.5 6
q-28 -10 -47.5 -28.5t-19.5 -46.5q0 -37 31.5 -58t80.5 -21zM230 189q40 0 62.5 28t22.5 71v28q0 41 -22.5 69t-63.5 28t-63 -28t-22 -69v-27q0 -42 22 -71t64 -29z" />
    <glyph glyph-name="Gdotaccent" unicode="&#x120;" horiz-adv-x="555" 
d="M288 831q-19 0 -33 14.5t-14 33.5t14 33.5t33 14.5q20 0 33.5 -14.5t13.5 -33.5t-13.5 -33.5t-33.5 -14.5zM283 -6q-64 0 -114.5 22t-80 71t-29.5 130v291q0 81 29.5 130t80 71t111.5 22q68 0 119 -23t80 -64t29 -98q0 -30 -13.5 -40.5t-39.5 -10.5q-21 0 -36.5 7.5
t-16.5 27.5q-3 29 -14 53.5t-36 39t-69 14.5q-56 0 -87.5 -31.5t-31.5 -97.5v-291q0 -66 31.5 -97.5t87.5 -31.5q55 0 87 31.5t32 97.5v82h-101q-16 0 -25 13t-9 30q0 15 9 28.5t25 13.5h172q17 0 26 -10.5t9 -25.5v-131q0 -81 -30 -130t-81 -71t-114 -22z" />
    <glyph glyph-name="gdotaccent" unicode="&#x121;" horiz-adv-x="465" 
d="M225 583q-19 0 -33 14.5t-14 33.5t14 33.5t33 14.5q20 0 33.5 -14.5t13.5 -33.5t-13.5 -33.5t-33.5 -14.5zM234 -225q-58 0 -107 16.5t-78 47.5t-29 74q0 40 23 66.5t54 40.5q-20 9 -33 24t-13 42q0 28 14 45t36 31q-28 22 -43.5 54.5t-15.5 71.5v28q0 48 23 85t65.5 58
t97.5 21q34 0 63.5 -9t52.5 -25q16 37 32.5 52t31.5 15q21 0 32 -12t11 -24q0 -8 -4.5 -14.5t-12.5 -10.5q-10 -5 -23.5 -13.5t-26.5 -26.5q17 -19 25 -44t8 -52v-28q0 -47 -24 -85t-67 -59.5t-98 -21.5q-39 0 -69 12q-8 -5 -13.5 -11.5t-5.5 -16.5q0 -18 22 -26t56.5 -12
t73.5 -10t73.5 -19.5t56.5 -40t22 -72.5q0 -52 -29 -85.5t-76.5 -49.5t-104.5 -16zM232 -155q49 0 79.5 21.5t30.5 56.5q0 25 -15 39t-39 21t-50.5 10t-50.5 6q-28 -10 -47.5 -28.5t-19.5 -46.5q0 -37 31.5 -58t80.5 -21zM230 189q40 0 62.5 28t22.5 71v28q0 41 -22.5 69
t-63.5 28t-63 -28t-22 -69v-27q0 -42 22 -71t64 -29z" />
    <glyph glyph-name="uni0122" unicode="&#x122;" horiz-adv-x="555" 
d="M221 -181q-14 0 -24.5 14t-10.5 28q0 18 15 26l124 62q6 3 11 3q15 0 24.5 -13.5t9.5 -27.5q0 -19 -16 -28l-121 -60q-3 -1 -6 -2.5t-6 -1.5zM283 -6q-64 0 -114.5 22t-80 71t-29.5 130v291q0 81 29.5 130t80 71t111.5 22q68 0 119 -23t80 -64t29 -98q0 -30 -13.5 -40.5
t-39.5 -10.5q-21 0 -36.5 7.5t-16.5 27.5q-3 29 -14 53.5t-36 39t-69 14.5q-56 0 -87.5 -31.5t-31.5 -97.5v-291q0 -66 31.5 -97.5t87.5 -31.5q55 0 87 31.5t32 97.5v82h-101q-16 0 -25 13t-9 30q0 15 9 28.5t25 13.5h172q17 0 26 -10.5t9 -25.5v-131q0 -81 -30 -130
t-81 -71t-114 -22z" />
    <glyph glyph-name="uni0123" unicode="&#x123;" horiz-adv-x="465" 
d="M186 577q-14 0 -24.5 13.5t-10.5 27.5q0 18 15 26l124 63q7 2 11 2q15 0 24.5 -13.5t9.5 -27.5q0 -19 -15 -27l-122 -61l-6 -2t-6 -1zM234 -225q-58 0 -107 16.5t-78 47.5t-29 74q0 40 23 66.5t54 40.5q-20 9 -33 24t-13 42q0 28 14 45t36 31q-28 22 -43.5 54.5
t-15.5 71.5v28q0 48 23 85t65.5 58t97.5 21q34 0 63.5 -9t52.5 -25q16 37 32.5 52t31.5 15q21 0 32 -12t11 -24q0 -8 -4.5 -14.5t-12.5 -10.5q-10 -5 -23.5 -13.5t-26.5 -26.5q17 -19 25 -44t8 -52v-28q0 -47 -24 -85t-67 -59.5t-98 -21.5q-39 0 -69 12q-8 -5 -13.5 -11.5
t-5.5 -16.5q0 -18 22 -26t56.5 -12t73.5 -10t73.5 -19.5t56.5 -40t22 -72.5q0 -52 -29 -85.5t-76.5 -49.5t-104.5 -16zM232 -155q49 0 79.5 21.5t30.5 56.5q0 25 -15 39t-39 21t-50.5 10t-50.5 6q-28 -10 -47.5 -28.5t-19.5 -46.5q0 -37 31.5 -58t80.5 -21zM230 189
q40 0 62.5 28t22.5 71v28q0 41 -22.5 69t-63.5 28t-63 -28t-22 -69v-27q0 -42 22 -71t64 -29z" />
    <glyph glyph-name="Hcircumflex" unicode="&#x124;" horiz-adv-x="593" 
d="M184 829q-11 0 -18.5 10.5t-7.5 24.5q0 9 4.5 17.5t13.5 13.5l104 56q9 5 17 5t17 -5l104 -55q11 -5 15 -14.5t4 -18.5q0 -13 -7 -23.5t-19 -10.5q-2 0 -4.5 1t-5.5 2l-104 56l-104 -56q-2 -1 -4.5 -2t-4.5 -1zM119 0q-20 0 -36.5 9t-16.5 26v662q0 18 16.5 26t36.5 8
t36.5 -8t16.5 -26v-276h249v276q0 18 16.5 26t36.5 8t36.5 -8t16.5 -26v-662q0 -17 -16.5 -26t-36.5 -9t-36.5 9t-16.5 26v302h-249v-302q0 -17 -16.5 -26t-36.5 -9z" />
    <glyph glyph-name="hcircumflex" unicode="&#x125;" horiz-adv-x="513" 
d="M-13 849q-11 0 -18.5 10.5t-7.5 24.5q0 9 4.5 17.5t13.5 13.5l104 56q9 5 17 5t17 -5l104 -55q11 -5 15 -14.5t4 -18.5q0 -13 -7 -23.5t-19 -10.5q-2 0 -4.5 1t-5.5 2l-104 56l-104 -56q-2 -1 -4.5 -2t-4.5 -1zM108 0q-23 0 -37.5 11t-14.5 24v687q0 15 14.5 24.5
t37.5 9.5q22 0 37.5 -9.5t15.5 -24.5v-318q15 29 47.5 52.5t80.5 23.5q47 0 86.5 -26.5t63.5 -71t24 -99.5v-248q0 -17 -16.5 -26t-36.5 -9q-18 0 -35 9t-17 26v248q0 26 -14 50t-36.5 39t-50.5 15q-24 0 -46 -12.5t-36 -35.5t-14 -56v-248q0 -13 -15.5 -24t-37.5 -11z" />
    <glyph glyph-name="Hbar" unicode="&#x126;" horiz-adv-x="595" 
d="M120 0q-20 0 -36.5 9t-16.5 26v502h-21q-14 0 -21 10.5t-7 24.5t7 25t21 11h21v89q0 18 16.5 26t36.5 8t36.5 -8t16.5 -26v-89h249v89q0 18 16.5 26t36.5 8t36.5 -8t16.5 -26v-89h21q14 0 21 -11t7 -25t-7 -24.5t-21 -10.5h-21v-502q0 -17 -16.5 -26t-36.5 -9t-36.5 9
t-16.5 26v302h-249v-302q0 -17 -16.5 -26t-36.5 -9zM173 421h249v116h-249v-116z" />
    <glyph glyph-name="hbar" unicode="&#x127;" horiz-adv-x="513" 
d="M108 0q-23 0 -37.5 11t-14.5 24v530h-27q-15 0 -25 10t-10 25q0 16 10 26.5t25 10.5h27v85q0 15 14.5 24.5t37.5 9.5q22 0 37.5 -9.5t15.5 -24.5v-85h76q14 0 25 -10.5t11 -26.5q0 -15 -11 -25t-25 -10h-76v-161q15 29 47.5 52.5t80.5 23.5q47 0 86.5 -26.5t63.5 -71
t24 -99.5v-248q0 -17 -16.5 -26t-36.5 -9q-18 0 -35 9t-17 26v248q0 26 -14 50t-36.5 39t-50.5 15q-24 0 -46 -12.5t-36 -35.5t-14 -56v-248q0 -13 -15.5 -24t-37.5 -11z" />
    <glyph glyph-name="Itilde" unicode="&#x128;" horiz-adv-x="238" 
d="M199 843q-30 0 -51.5 8t-41.5 15.5t-46 7.5q-21 0 -35 -6.5t-24 -13.5t-19 -7q-10 0 -16.5 6.5t-9 15.5t-2.5 14q0 20 9.5 32t24 19t29 10t24.5 3q28 0 49 -7.5t42 -15.5t47 -8q22 0 35 6.5t22.5 12.5t19.5 6q11 0 17 -6.5t8.5 -14.5t2.5 -13q0 -21 -9.5 -33.5
t-23.5 -19.5t-28.5 -9t-23.5 -2zM119 0q-20 0 -36.5 9t-16.5 26v662q0 18 16.5 26t36.5 8t36.5 -8t16.5 -26v-662q0 -17 -16.5 -26t-36.5 -9z" />
    <glyph glyph-name="itilde" unicode="&#x129;" horiz-adv-x="214" 
d="M181 594q-30 0 -51.5 8t-41.5 15.5t-46 7.5q-21 0 -35 -6.5t-24 -13.5t-19 -7q-10 0 -16.5 6.5t-9 15.5t-2.5 14q0 20 9.5 32t24 19t29 10t24.5 3q28 0 49 -7.5t42 -15.5t47 -8q22 0 35 6.5t22.5 12.5t19.5 6q11 0 17 -6.5t8.5 -14.5t2.5 -13q0 -21 -9.5 -33.5
t-23.5 -19.5t-28.5 -9t-23.5 -2zM107 0q-23 0 -37.5 11t-14.5 24v405q0 15 14.5 24.5t37.5 9.5q22 0 37.5 -9.5t15.5 -24.5v-405q0 -13 -15.5 -24t-37.5 -11z" />
    <glyph glyph-name="Imacron" unicode="&#x12a;" horiz-adv-x="238" 
d="M13 867q-15 0 -24.5 10t-9.5 25q0 16 9.5 26.5t24.5 10.5h209q13 0 24 -10.5t11 -26.5q0 -15 -11 -25t-24 -10h-209zM119 0q-20 0 -36.5 9t-16.5 26v662q0 18 16.5 26t36.5 8t36.5 -8t16.5 -26v-662q0 -17 -16.5 -26t-36.5 -9z" />
    <glyph glyph-name="imacron" unicode="&#x12b;" horiz-adv-x="214" 
d="M2 620q-15 0 -24.5 10t-9.5 25q0 16 9.5 26.5t24.5 10.5h209q13 0 24 -10.5t11 -26.5q0 -15 -11 -25t-24 -10h-209zM107 0q-23 0 -37.5 11t-14.5 24v405q0 15 14.5 24.5t37.5 9.5q22 0 37.5 -9.5t15.5 -24.5v-405q0 -13 -15.5 -24t-37.5 -11z" />
    <glyph glyph-name="Ibreve" unicode="&#x12c;" horiz-adv-x="238" 
d="M119 839q-43 0 -78.5 29t-45.5 71q-3 12 4 19t18 7h13q10 0 16 -5.5t9 -15.5q6 -25 24.5 -40.5t39.5 -15.5q22 0 39.5 15.5t23.5 40.5q3 10 9 15.5t16 5.5h13q11 0 18.5 -7t4.5 -19q-11 -42 -46.5 -71t-77.5 -29zM119 0q-20 0 -36.5 9t-16.5 26v662q0 18 16.5 26t36.5 8
t36.5 -8t16.5 -26v-662q0 -17 -16.5 -26t-36.5 -9z" />
    <glyph glyph-name="ibreve" unicode="&#x12d;" horiz-adv-x="214" 
d="M101 591q-43 0 -78.5 29t-45.5 71q-3 12 4 19t18 7h13q10 0 16 -5.5t9 -15.5q6 -25 24.5 -40.5t39.5 -15.5q22 0 39.5 15.5t23.5 40.5q3 10 9 15.5t16 5.5h13q11 0 18.5 -7t4.5 -19q-11 -42 -46.5 -71t-77.5 -29zM107 0q-23 0 -37.5 11t-14.5 24v405q0 15 14.5 24.5
t37.5 9.5q22 0 37.5 -9.5t15.5 -24.5v-405q0 -13 -15.5 -24t-37.5 -11z" />
    <glyph glyph-name="Iogonek" unicode="&#x12e;" horiz-adv-x="238" 
d="M130 -206q-33 0 -57.5 9.5t-38 29t-13.5 45.5q0 42 24 81t65 67l42 -18q-33 -23 -54.5 -55.5t-21.5 -65.5q0 -23 15 -34.5t45 -11.5q11 0 16.5 -7.5t5.5 -17.5q0 -9 -5.5 -15.5t-22.5 -6.5zM119 0q-20 0 -36.5 9t-16.5 26v662q0 18 16.5 26t36.5 8t36.5 -8t16.5 -26v-662
q0 -17 -16.5 -26t-36.5 -9z" />
    <glyph glyph-name="iogonek" unicode="&#x12f;" horiz-adv-x="214" 
d="M113 -205q-33 0 -57.5 9.5t-38 29t-13.5 45.5q0 42 24 81t65 67l42 -18q-33 -23 -54.5 -55.5t-21.5 -65.5q0 -23 15 -34.5t45 -11.5q11 0 16.5 -7.5t5.5 -17.5q0 -9 -5.5 -15.5t-22.5 -6.5zM108 582q-19 0 -33 14.5t-14 33.5t14 33.5t33 14.5q20 0 33.5 -14.5t13.5 -33.5
t-13.5 -33.5t-33.5 -14.5zM107 0q-23 0 -37.5 11t-14.5 24v405q0 15 14.5 24.5t37.5 9.5q22 0 37.5 -9.5t15.5 -24.5v-405q0 -13 -15.5 -24t-37.5 -11z" />
    <glyph glyph-name="Idotaccent" unicode="&#x130;" horiz-adv-x="238" 
d="M126 831q-19 0 -33 14.5t-14 33.5t14 33.5t33 14.5q20 0 33.5 -14.5t13.5 -33.5t-13.5 -33.5t-33.5 -14.5zM119 0q-20 0 -36.5 9t-16.5 26v662q0 18 16.5 26t36.5 8t36.5 -8t16.5 -26v-662q0 -17 -16.5 -26t-36.5 -9z" />
    <glyph glyph-name="dotlessi" unicode="&#x131;" horiz-adv-x="214" 
d="M107 0q-23 0 -37.5 11t-14.5 24v405q0 15 14.5 24.5t37.5 9.5q22 0 37.5 -9.5t15.5 -24.5v-405q0 -13 -15.5 -24t-37.5 -11z" />
    <glyph glyph-name="IJ" unicode="&#x132;" horiz-adv-x="764" 
d="M119 0q-20 0 -36.5 9t-16.5 26v662q0 18 16.5 26t36.5 8t36.5 -8t16.5 -26v-662q0 -17 -16.5 -26t-36.5 -9zM480 -6q-66 0 -118 23.5t-81 66.5t-29 101q0 30 13.5 40.5t39.5 10.5q21 0 36.5 -7.5t16.5 -27.5q1 -29 13 -55t38 -42t67 -16q57 0 88.5 31.5t31.5 97.5v420
h-117q-17 0 -26 14.5t-9 33.5q0 16 8 31t27 15h175q19 0 33.5 -9t14.5 -26v-479q0 -81 -30 -130t-80 -71t-112 -22z" />
    <glyph glyph-name="ij" unicode="&#x133;" horiz-adv-x="413" 
d="M107 0q-23 0 -37.5 11t-14.5 24v405q0 15 14.5 24.5t37.5 9.5q22 0 37.5 -9.5t15.5 -24.5v-405q0 -13 -15.5 -24t-37.5 -11zM107 593q-26 0 -44 17t-18 38q0 23 18 39t44 16q25 0 42.5 -16t17.5 -39q0 -21 -17.5 -38t-42.5 -17zM214 -225q-31 0 -42.5 14t-11.5 30
q0 21 12 33.5t29 12.5q23 0 34.5 12.5t14.5 35t3 51.5v476q0 15 14.5 24.5t36.5 9.5q23 0 38.5 -9.5t15.5 -24.5v-476q0 -55 -15.5 -98t-47.5 -67t-81 -24zM305 593q-25 0 -43 17t-18 38q0 23 18 39t43 16t42.5 -16t17.5 -39q0 -21 -17.5 -38t-42.5 -17z" />
    <glyph glyph-name="Jcircumflex" unicode="&#x134;" horiz-adv-x="526" 
d="M150 829q-11 0 -18.5 10.5t-7.5 24.5q0 9 4.5 17.5t13.5 13.5l104 56q9 5 17 5t17 -5l104 -55q11 -5 15 -14.5t4 -18.5q0 -13 -7 -23.5t-19 -10.5q-2 0 -4.5 1t-5.5 2l-104 56l-104 -56q-2 -1 -4.5 -2t-4.5 -1zM242 -6q-66 0 -118 23.5t-81 66.5t-29 101q0 30 13.5 40.5
t39.5 10.5q21 0 36.5 -7.5t16.5 -27.5q1 -29 13 -55t38 -42t67 -16q57 0 88.5 31.5t31.5 97.5v420h-117q-17 0 -26 14.5t-9 33.5q0 16 8 31t27 15h175q19 0 33.5 -9t14.5 -26v-479q0 -81 -30 -130t-80 -71t-112 -22z" />
    <glyph glyph-name="jcircumflex" unicode="&#x135;" horiz-adv-x="215" 
d="M-11 581q-11 0 -18.5 10.5t-7.5 24.5q0 9 4.5 17.5t13.5 13.5l104 56q9 5 17 5t17 -5l104 -55q11 -5 15 -14.5t4 -18.5q0 -13 -7 -23.5t-19 -10.5q-2 0 -4.5 1t-5.5 2l-104 56l-104 -56q-2 -1 -4.5 -2t-4.5 -1zM16 -225q-31 0 -42.5 14t-11.5 30q0 21 12 33.5t29 12.5
q23 0 34.5 12.5t14.5 35t3 51.5v476q0 15 14.5 24.5t36.5 9.5q23 0 38.5 -9.5t15.5 -24.5v-476q0 -55 -15.5 -98t-47.5 -67t-81 -24z" />
    <glyph glyph-name="uni0136" unicode="&#x136;" horiz-adv-x="542" 
d="M213 -181q-14 0 -24.5 14t-10.5 28q0 18 15 26l124 62q6 3 11 3q15 0 24.5 -13.5t9.5 -27.5q0 -19 -16 -28l-121 -60q-3 -1 -6 -2.5t-6 -1.5zM119 0q-20 0 -36.5 9t-16.5 26v662q0 18 16.5 26t36.5 8t36.5 -8t16.5 -26v-304l244 323q11 15 30 15q13 0 27.5 -8t24 -20.5
t9.5 -26.5q0 -4 -2 -10t-6 -11l-192 -240l228 -347q6 -9 6 -19q0 -13 -9 -25t-23.5 -19.5t-29.5 -7.5q-11 0 -21 4.5t-17 15.5l-204 309l-65 -82v-209q0 -17 -16.5 -26t-36.5 -9z" />
    <glyph glyph-name="uni0137" unicode="&#x137;" horiz-adv-x="479" 
d="M182 -181q-14 0 -24.5 14t-10.5 28q0 18 15 26l124 62q6 3 11 3q15 0 24.5 -13.5t9.5 -27.5q0 -19 -16 -28l-121 -60q-3 -1 -6 -2.5t-6 -1.5zM107 0q-22 0 -36.5 11t-14.5 24v687q0 15 14.5 24.5t36.5 9.5q23 0 38.5 -9.5t15.5 -24.5v-445l209 192q9 9 22 9
q12 0 23.5 -7.5t19.5 -19t8 -23.5q0 -6 -2 -11.5t-7 -10.5l-129 -115l157 -226q6 -10 6 -18q0 -13 -9.5 -25t-23 -20t-26.5 -8q-18 0 -28 15l-147 217l-73 -66v-125q0 -13 -15.5 -24t-38.5 -11z" />
    <glyph glyph-name="kgreenlandic" unicode="&#x138;" horiz-adv-x="478" 
d="M106 0q-22 0 -36.5 11t-14.5 24v405q0 15 14.5 24.5t36.5 9.5q23 0 38.5 -9.5t15.5 -24.5v-163l209 192q9 9 22 9q12 0 23.5 -7.5t19.5 -19t8 -23.5q0 -6 -2 -11.5t-7 -10.5l-129 -115l157 -226q6 -10 6 -18q0 -13 -9.5 -25t-23 -20t-26.5 -8q-18 0 -28 15l-147 217
l-73 -66v-125q0 -13 -15.5 -24t-38.5 -11z" />
    <glyph glyph-name="Lacute" unicode="&#x139;" horiz-adv-x="475" 
d="M201 824q-14 0 -24.5 13.5t-10.5 27.5q0 18 15 26l124 63q6 2 11 2q15 0 24.5 -13.5t9.5 -27.5q0 -19 -16 -27l-121 -61l-6 -2t-6 -1zM113 0q-17 0 -32 9t-15 26v662q0 18 16.5 26t36.5 8t36.5 -8t16.5 -26v-603h260q16 0 24 -14.5t8 -32.5q0 -17 -8 -32t-24 -15h-319z
" />
    <glyph glyph-name="lacute" unicode="&#x13a;" horiz-adv-x="232" 
d="M76 798q-14 0 -24.5 13.5t-10.5 27.5q0 18 15 26l124 63q6 2 11 2q15 0 24.5 -13.5t9.5 -27.5q0 -19 -16 -27l-121 -61l-6 -2t-6 -1zM116 0q-23 0 -37.5 11t-14.5 24v687q0 15 14.5 24.5t37.5 9.5q22 0 37.5 -9.5t15.5 -24.5v-687q0 -13 -15.5 -24t-37.5 -11z" />
    <glyph glyph-name="uni013B" unicode="&#x13b;" horiz-adv-x="475" 
d="M191 -181q-14 0 -24.5 14t-10.5 28q0 18 15 26l124 62q6 3 11 3q15 0 24.5 -13.5t9.5 -27.5q0 -19 -16 -28l-121 -60q-3 -1 -6 -2.5t-6 -1.5zM113 0q-17 0 -32 9t-15 26v662q0 18 16.5 26t36.5 8t36.5 -8t16.5 -26v-603h260q16 0 24 -14.5t8 -32.5q0 -17 -8 -32t-24 -15
h-319z" />
    <glyph glyph-name="uni013C" unicode="&#x13c;" horiz-adv-x="232" 
d="M59 -181q-14 0 -24.5 14t-10.5 28q0 18 15 26l124 62q6 3 11 3q15 0 24.5 -13.5t9.5 -27.5q0 -19 -16 -28l-121 -60q-3 -1 -6 -2.5t-6 -1.5zM116 0q-23 0 -37.5 11t-14.5 24v687q0 15 14.5 24.5t37.5 9.5q22 0 37.5 -9.5t15.5 -24.5v-687q0 -13 -15.5 -24t-37.5 -11z" />
    <glyph glyph-name="Lcaron" unicode="&#x13d;" horiz-adv-x="477" 
d="M349 533q-12 0 -24 7.5t-12 21.5q0 7 2 12l23 53q-16 8 -25.5 22t-9.5 32q0 25 17.5 42.5t41.5 17.5q25 0 42.5 -17.5t17.5 -41.5q0 -5 -2 -14t-7.5 -23.5t-15.5 -38t-25 -58.5q-3 -8 -10 -11.5t-13 -3.5zM113 0q-17 0 -32 9t-15 26v662q0 18 16.5 26t36.5 8t36.5 -8
t16.5 -26v-603h260q16 0 24 -14.5t8 -32.5q0 -17 -8 -32t-24 -15h-319z" />
    <glyph glyph-name="lcaron" unicode="&#x13e;" horiz-adv-x="232" 
d="M272 533q-12 0 -24 7.5t-12 21.5q0 7 2 12l23 53q-16 8 -25.5 22t-9.5 32q0 25 17.5 42.5t41.5 17.5q25 0 42.5 -17.5t17.5 -41.5q0 -5 -2 -14t-7.5 -23.5t-15.5 -38t-25 -58.5q-3 -8 -10 -11.5t-13 -3.5zM116 0q-23 0 -37.5 11t-14.5 24v687q0 15 14.5 24.5t37.5 9.5
q22 0 37.5 -9.5t15.5 -24.5v-687q0 -13 -15.5 -24t-37.5 -11z" />
    <glyph glyph-name="Ldot" unicode="&#x13f;" horiz-adv-x="476" 
d="M113 0q-17 0 -32 9t-15 26v662q0 18 16.5 26t36.5 8t36.5 -8t16.5 -26v-603h260q16 0 24 -14.5t8 -32.5q0 -17 -8 -32t-24 -15h-319zM357 364q-27 0 -45 17.5t-18 39.5q0 23 18 39.5t45 16.5q26 0 44 -16.5t18 -39.5q0 -22 -18 -39.5t-44 -17.5z" />
    <glyph glyph-name="ldot" unicode="&#x140;" horiz-adv-x="348" 
d="M116 0q-23 0 -37.5 11t-14.5 24v687q0 15 14.5 24.5t37.5 9.5q22 0 37.5 -9.5t15.5 -24.5v-687q0 -13 -15.5 -24t-37.5 -11zM284 243q-26 0 -44.5 17.5t-18.5 39.5q0 23 18.5 39.5t44.5 16.5t44 -16.5t18 -39.5q0 -22 -18 -39.5t-44 -17.5z" />
    <glyph glyph-name="Lslash" unicode="&#x141;" horiz-adv-x="481" 
d="M119 0q-17 0 -32 9t-15 26v239l-27 -15q-5 -3 -11 -3q-15 0 -26 15.5t-11 32.5q0 8 3 15.5t11 10.5l61 32v335q0 18 16.5 26t36.5 8t36.5 -8t16.5 -26v-284l74 40q5 2 11 2q11 0 19.5 -7t14 -18t5.5 -22q0 -19 -15 -26l-109 -57v-231h260q16 0 24 -14.5t8 -32.5
q0 -17 -8 -32t-24 -15h-319z" />
    <glyph glyph-name="lslash" unicode="&#x142;" horiz-adv-x="320" 
d="M157 0q-23 0 -37.5 11t-14.5 24v246l-40 -22q-6 -3 -12 -3q-14 0 -25.5 15.5t-11.5 32.5q0 8 3.5 15.5t10.5 10.5l75 38v354q0 15 14.5 24.5t37.5 9.5q22 0 37.5 -9.5t15.5 -24.5v-303l46 27q5 2 11 2q11 0 19.5 -7t14 -18t5.5 -22q0 -19 -15 -26l-81 -43v-297
q0 -13 -15.5 -24t-37.5 -11z" />
    <glyph glyph-name="Nacute" unicode="&#x143;" horiz-adv-x="593" 
d="M260 824q-14 0 -24.5 13.5t-10.5 27.5q0 18 15 26l124 63q6 2 11 2q15 0 24.5 -13.5t9.5 -27.5q0 -19 -16 -27l-121 -61l-6 -2t-6 -1zM119 0q-20 0 -36.5 9t-16.5 26v661q0 19 16.5 27t36.5 8q19 0 32.5 -5.5t24.5 -18.5t23 -36l222 -433v459q0 18 16.5 26t36.5 8
t36.5 -8t16.5 -26v-662q0 -17 -16.5 -26t-36.5 -9t-36 10t-27 29l-239 455v-459q0 -17 -16.5 -26t-36.5 -9z" />
    <glyph glyph-name="nacute" unicode="&#x144;" horiz-adv-x="512" 
d="M219 568q-14 0 -24.5 13.5t-10.5 27.5q0 18 15 26l124 63q6 2 11 2q15 0 24.5 -13.5t9.5 -27.5q0 -19 -16 -27l-121 -61l-6 -2t-6 -1zM107 0q-23 0 -37.5 11t-14.5 24v405q0 15 14.5 24.5t37.5 9.5q19 0 33 -9.5t14 -24.5v-36q15 29 49.5 52.5t84.5 23.5q47 0 86.5 -26.5
t63.5 -71t24 -99.5v-248q0 -17 -16.5 -26t-36.5 -9q-18 0 -35 9t-17 26v248q0 26 -13.5 50t-36.5 39t-51 15q-24 0 -46 -12.5t-36 -35.5t-14 -56v-248q0 -13 -15.5 -24t-37.5 -11z" />
    <glyph glyph-name="uni0145" unicode="&#x145;" horiz-adv-x="593" 
d="M240 -181q-14 0 -24.5 14t-10.5 28q0 18 15 26l124 62q6 3 11 3q15 0 24.5 -13.5t9.5 -27.5q0 -19 -16 -28l-121 -60q-3 -1 -6 -2.5t-6 -1.5zM119 0q-20 0 -36.5 9t-16.5 26v661q0 19 16.5 27t36.5 8q19 0 32.5 -5.5t24.5 -18.5t23 -36l222 -433v459q0 18 16.5 26t36.5 8
t36.5 -8t16.5 -26v-662q0 -17 -16.5 -26t-36.5 -9t-36 10t-27 29l-239 455v-459q0 -17 -16.5 -26t-36.5 -9z" />
    <glyph glyph-name="uni0146" unicode="&#x146;" horiz-adv-x="512" 
d="M199 -181q-14 0 -24.5 14t-10.5 28q0 18 15 26l124 62q6 3 11 3q15 0 24.5 -13.5t9.5 -27.5q0 -19 -16 -28l-121 -60q-3 -1 -6 -2.5t-6 -1.5zM107 0q-23 0 -37.5 11t-14.5 24v405q0 15 14.5 24.5t37.5 9.5q19 0 33 -9.5t14 -24.5v-36q15 29 49.5 52.5t84.5 23.5
q47 0 86.5 -26.5t63.5 -71t24 -99.5v-248q0 -17 -16.5 -26t-36.5 -9q-18 0 -35 9t-17 26v248q0 26 -13.5 50t-36.5 39t-51 15q-24 0 -46 -12.5t-36 -35.5t-14 -56v-248q0 -13 -15.5 -24t-37.5 -11z" />
    <glyph glyph-name="Ncaron" unicode="&#x147;" horiz-adv-x="593" 
d="M297 831q-9 0 -18 7l-103 75q-9 7 -13 15t-4 18q0 12 6.5 22.5t17.5 10.5q7 0 13 -6l101 -75l102 75q6 6 13 6q11 0 17.5 -10.5t6.5 -22.5q0 -10 -4 -18t-14 -15l-102 -75q-10 -7 -19 -7zM119 0q-20 0 -36.5 9t-16.5 26v661q0 19 16.5 27t36.5 8q19 0 32.5 -5.5
t24.5 -18.5t23 -36l222 -433v459q0 18 16.5 26t36.5 8t36.5 -8t16.5 -26v-662q0 -17 -16.5 -26t-36.5 -9t-36 10t-27 29l-239 455v-459q0 -17 -16.5 -26t-36.5 -9z" />
    <glyph glyph-name="ncaron" unicode="&#x148;" horiz-adv-x="512" 
d="M256 574q-9 0 -18 7l-103 75q-9 7 -13 15t-4 18q0 12 6.5 22.5t17.5 10.5q7 0 13 -6l101 -75l102 75q6 6 13 6q11 0 17.5 -10.5t6.5 -22.5q0 -10 -4 -18t-14 -15l-102 -75q-10 -7 -19 -7zM107 0q-23 0 -37.5 11t-14.5 24v405q0 15 14.5 24.5t37.5 9.5q19 0 33 -9.5
t14 -24.5v-36q15 29 49.5 52.5t84.5 23.5q47 0 86.5 -26.5t63.5 -71t24 -99.5v-248q0 -17 -16.5 -26t-36.5 -9q-18 0 -35 9t-17 26v248q0 26 -13.5 50t-36.5 39t-51 15q-24 0 -46 -12.5t-36 -35.5t-14 -56v-248q0 -13 -15.5 -24t-37.5 -11z" />
    <glyph glyph-name="napostrophe" unicode="&#x149;" horiz-adv-x="778" 
d="M189 714l7 -11q-24 -96 -86 -234h-107q34 145 49 245h137zM229 0q-23 0 -37.5 11t-14.5 24v405q0 15 14.5 24.5t37.5 9.5q19 0 33 -9.5t14 -24.5v-36q15 29 49.5 52.5t84.5 23.5q47 0 86.5 -26.5t63.5 -71t24 -99.5v-248q0 -17 -16.5 -26t-36.5 -9q-18 0 -35 9t-17 26
v248q0 26 -13.5 50t-36.5 39t-51 15q-24 0 -46 -12.5t-36 -35.5t-14 -56v-248q0 -13 -15.5 -24t-37.5 -11z" />
    <glyph glyph-name="Eng" unicode="&#x14a;" horiz-adv-x="594" 
d="M383 -225q-31 0 -42.5 14t-11.5 30q0 21 12 33.5t29 12.5q23 0 34 12.5t14.5 35t3.5 51.5v41q0 8 -2.5 16t-8.5 18l-239 455v-459q0 -17 -16.5 -26t-36.5 -9t-36.5 9t-16.5 26v661q0 19 16.5 27t36.5 8q19 0 32.5 -5.5t24.5 -18.5t23 -36l222 -433v459q0 18 16.5 26
t36.5 8t36.5 -8t16.5 -26v-733q0 -55 -15.5 -98t-47.5 -67t-81 -24z" />
    <glyph glyph-name="eng" unicode="&#x14b;" horiz-adv-x="512" 
d="M318 -225q-31 0 -42.5 14t-11.5 30q0 21 12 33.5t29 12.5q23 0 34.5 12.5t14.5 35t3 51.5v319q0 26 -13.5 50t-36.5 39t-51 15q-24 0 -46 -12.5t-36 -35.5t-14 -56v-248q0 -13 -15.5 -24t-37.5 -11q-23 0 -37.5 11t-14.5 24v405q0 15 14.5 24.5t37.5 9.5q19 0 33 -9.5
t14 -24.5v-36q15 29 49.5 52.5t84.5 23.5q47 0 86.5 -26.5t63.5 -71t24 -99.5v-319q0 -55 -15.5 -98t-47.5 -67t-81 -24z" />
    <glyph glyph-name="Omacron" unicode="&#x14c;" horiz-adv-x="566" 
d="M178 867q-15 0 -24.5 10t-9.5 25q0 16 9.5 26.5t24.5 10.5h209q13 0 24 -10.5t11 -26.5q0 -15 -11 -25t-24 -10h-209zM283 -6q-64 0 -114.5 22t-80 71t-29.5 130v291q0 81 29.5 130t80 71t114.5 22q63 0 114 -22t81 -71t30 -130v-291q0 -81 -30 -130t-81 -71t-114 -22z
M283 88q55 0 87 31.5t32 97.5v291q0 66 -31.5 97.5t-87.5 31.5t-87.5 -31.5t-31.5 -97.5v-291q0 -66 31.5 -97.5t87.5 -31.5z" />
    <glyph glyph-name="omacron" unicode="&#x14d;" horiz-adv-x="486" 
d="M138 621q-15 0 -24.5 10t-9.5 25q0 16 9.5 26.5t24.5 10.5h209q13 0 24 -10.5t11 -26.5q0 -15 -11 -25t-24 -10h-209zM242 -8q-54 0 -101 28t-75.5 73.5t-28.5 97.5v92q0 53 27.5 98t75 72t103.5 27t103 -26.5t75.5 -71t28.5 -99.5v-92q0 -51 -28.5 -97t-76 -74
t-103.5 -28zM243 85q28 0 51 15t37 39.5t14 51.5v92q0 26 -14 50t-37 39t-51 15q-29 0 -51.5 -15t-36 -39t-13.5 -50v-92q0 -27 13.5 -51.5t36.5 -39.5t51 -15z" />
    <glyph glyph-name="Obreve" unicode="&#x14e;" horiz-adv-x="566" 
d="M284 839q-43 0 -78.5 29t-45.5 71q-3 12 4 19t18 7h13q10 0 16 -5.5t9 -15.5q6 -25 24.5 -40.5t39.5 -15.5q22 0 39.5 15.5t23.5 40.5q3 10 9 15.5t16 5.5h13q11 0 18.5 -7t4.5 -19q-11 -42 -46.5 -71t-77.5 -29zM283 -6q-64 0 -114.5 22t-80 71t-29.5 130v291
q0 81 29.5 130t80 71t114.5 22q63 0 114 -22t81 -71t30 -130v-291q0 -81 -30 -130t-81 -71t-114 -22zM283 88q55 0 87 31.5t32 97.5v291q0 66 -31.5 97.5t-87.5 31.5t-87.5 -31.5t-31.5 -97.5v-291q0 -66 31.5 -97.5t87.5 -31.5z" />
    <glyph glyph-name="obreve" unicode="&#x14f;" horiz-adv-x="486" 
d="M245 592q-43 0 -78.5 29t-45.5 71q-3 12 4 19t18 7h13q10 0 16 -5.5t9 -15.5q6 -25 24.5 -40.5t39.5 -15.5q22 0 39.5 15.5t23.5 40.5q3 10 9 15.5t16 5.5h13q11 0 18.5 -7t4.5 -19q-11 -42 -46.5 -71t-77.5 -29zM242 -8q-54 0 -101 28t-75.5 73.5t-28.5 97.5v92
q0 53 27.5 98t75 72t103.5 27t103 -26.5t75.5 -71t28.5 -99.5v-92q0 -51 -28.5 -97t-76 -74t-103.5 -28zM243 85q28 0 51 15t37 39.5t14 51.5v92q0 26 -14 50t-37 39t-51 15q-29 0 -51.5 -15t-36 -39t-13.5 -50v-92q0 -27 13.5 -51.5t36.5 -39.5t51 -15z" />
    <glyph glyph-name="Ohungarumlaut" unicode="&#x150;" horiz-adv-x="566" 
d="M330 834q-13 0 -23.5 10.5t-10.5 22.5q0 9 7 15l89 81q3 4 7 5t8 1q13 0 23 -10.5t10 -21.5t-8 -18l-86 -78q-6 -7 -16 -7zM176 834q-13 0 -24 10.5t-11 22.5q0 9 7 15l89 81q4 4 8 5t8 1q12 0 22 -10.5t10 -21.5t-8 -18l-85 -78q-7 -7 -16 -7zM283 -6q-64 0 -114.5 22
t-80 71t-29.5 130v291q0 81 29.5 130t80 71t114.5 22q63 0 114 -22t81 -71t30 -130v-291q0 -81 -30 -130t-81 -71t-114 -22zM283 88q55 0 87 31.5t32 97.5v291q0 66 -31.5 97.5t-87.5 31.5t-87.5 -31.5t-31.5 -97.5v-291q0 -66 31.5 -97.5t87.5 -31.5z" />
    <glyph glyph-name="ohungarumlaut" unicode="&#x151;" horiz-adv-x="486" 
d="M309 576q-13 0 -23.5 10.5t-10.5 22.5q0 9 7 15l89 81q3 4 7 5t8 1q13 0 23 -10.5t10 -21.5t-8 -18l-86 -78q-6 -7 -16 -7zM155 576q-13 0 -24 10.5t-11 22.5q0 9 7 15l89 81q4 4 8 5t8 1q12 0 22 -10.5t10 -21.5t-8 -18l-85 -78q-7 -7 -16 -7zM242 -8q-54 0 -101 28
t-75.5 73.5t-28.5 97.5v92q0 53 27.5 98t75 72t103.5 27t103 -26.5t75.5 -71t28.5 -99.5v-92q0 -51 -28.5 -97t-76 -74t-103.5 -28zM243 85q28 0 51 15t37 39.5t14 51.5v92q0 26 -14 50t-37 39t-51 15q-29 0 -51.5 -15t-36 -39t-13.5 -50v-92q0 -27 13.5 -51.5t36.5 -39.5
t51 -15z" />
    <glyph glyph-name="OE" unicode="&#x152;" horiz-adv-x="834" 
d="M266 -6q-60 0 -106.5 22t-73.5 71t-27 130v291q0 81 27 130t73.5 71t106.5 22q44 0 85.5 -18t63.5 -55v38q0 17 15 26t32 9h319q19 0 27 -15t8 -31q0 -19 -9 -33.5t-26 -14.5h-272v-229h129q17 0 26 -13t9 -30q0 -14 -8 -27.5t-27 -13.5h-129v-230h272q17 0 26 -14t9 -34
q0 -16 -8 -31t-27 -15h-319q-17 0 -32 9t-15 26v32q-22 -37 -63.5 -55t-85.5 -18zM283 88q56 0 87.5 31.5t31.5 97.5v291q0 66 -31.5 97.5t-87.5 31.5t-87 -31.5t-31 -97.5v-291q0 -66 31 -97.5t87 -31.5z" />
    <glyph glyph-name="oe" unicode="&#x153;" horiz-adv-x="783" 
d="M243 -8q-55 0 -102 27.5t-75.5 73t-28.5 98.5v92q0 53 27.5 98t75 72t103.5 27q48 0 90 -23t69 -62q25 38 65 61.5t86 23.5q54 0 99 -23.5t72.5 -65t27.5 -96.5q0 -41 -13 -59.5t-34 -22.5t-44 -4h-211v-23q0 -50 36.5 -79.5t94.5 -29.5q35 0 56.5 10t36 19t27.5 9
t22 -7.5t14.5 -19t5.5 -21.5q0 -14 -21 -32t-58 -30.5t-88 -12.5q-56 0 -101.5 22.5t-73.5 62.5q-27 -38 -68.5 -61.5t-89.5 -23.5zM243 85q28 0 51 15t37 39.5t14 51.5v92q0 26 -14 50t-37 39t-51 15q-29 0 -52 -15t-36 -39t-13 -50v-92q0 -27 13 -51.5t36.5 -39.5
t51.5 -15zM450 274h166q22 0 29.5 6t7.5 24q0 26 -13.5 48.5t-36 35t-52.5 12.5q-27 0 -50 -11.5t-37 -32.5t-14 -48v-34z" />
    <glyph glyph-name="Racute" unicode="&#x154;" horiz-adv-x="553" 
d="M248 824q-14 0 -24.5 13.5t-10.5 27.5q0 18 15 26l124 63q6 2 11 2q15 0 24.5 -13.5t9.5 -27.5q0 -19 -16 -27l-121 -61l-6 -2t-6 -1zM460 -3q-13 0 -23.5 9t-17.5 22l-147 286h-100v-279q0 -17 -16.5 -26t-36.5 -9t-36.5 9t-16.5 26v662q0 14 9.5 24t26.5 10h190
q63 0 115 -18.5t83 -63t31 -122.5q0 -60 -18.5 -100t-50 -63.5t-71.5 -34.5l140 -263q2 -3 3 -7.5t1 -7.5q0 -13 -10 -25.5t-24.5 -20.5t-30.5 -8zM172 399h120q56 0 89.5 27t33.5 92t-33.5 92t-89.5 27h-120v-238z" />
    <glyph glyph-name="racute" unicode="&#x155;" horiz-adv-x="358" 
d="M139 577q-14 0 -24.5 13.5t-10.5 27.5q0 18 15 26l124 63q6 2 11 2q15 0 24.5 -13.5t9.5 -27.5q0 -19 -16 -27l-121 -61l-6 -2t-6 -1zM106 0q-22 0 -36.5 11t-14.5 24v405q0 15 14.5 24.5t36.5 9.5q20 0 34 -9.5t14 -24.5v-44q11 21 29.5 40t43.5 31.5t54 12.5h32
q16 0 28 -13.5t12 -32.5t-12 -33t-28 -14h-32q-30 0 -58 -18t-45.5 -50.5t-17.5 -78.5v-205q0 -13 -15.5 -24t-38.5 -11z" />
    <glyph glyph-name="uni0156" unicode="&#x156;" horiz-adv-x="553" 
d="M214 -181q-14 0 -24.5 14t-10.5 28q0 18 15 26l124 62q6 3 11 3q15 0 24.5 -13.5t9.5 -27.5q0 -19 -16 -28l-121 -60q-3 -1 -6 -2.5t-6 -1.5zM460 -3q-13 0 -23.5 9t-17.5 22l-147 286h-100v-279q0 -17 -16.5 -26t-36.5 -9t-36.5 9t-16.5 26v662q0 14 9.5 24t26.5 10h190
q63 0 115 -18.5t83 -63t31 -122.5q0 -60 -18.5 -100t-50 -63.5t-71.5 -34.5l140 -263q2 -3 3 -7.5t1 -7.5q0 -13 -10 -25.5t-24.5 -20.5t-30.5 -8zM172 399h120q56 0 89.5 27t33.5 92t-33.5 92t-89.5 27h-120v-238z" />
    <glyph glyph-name="uni0157" unicode="&#x157;" horiz-adv-x="358" 
d="M39 -182q-14 0 -24.5 14t-10.5 28q0 18 15 26l124 62q6 3 11 3q15 0 24.5 -13.5t9.5 -27.5q0 -19 -16 -28l-121 -60q-3 -1 -6 -2.5t-6 -1.5zM106 0q-22 0 -36.5 11t-14.5 24v405q0 15 14.5 24.5t36.5 9.5q20 0 34 -9.5t14 -24.5v-44q11 21 29.5 40t43.5 31.5t54 12.5h32
q16 0 28 -13.5t12 -32.5t-12 -33t-28 -14h-32q-30 0 -58 -18t-45.5 -50.5t-17.5 -78.5v-205q0 -13 -15.5 -24t-38.5 -11z" />
    <glyph glyph-name="Rcaron" unicode="&#x158;" horiz-adv-x="553" 
d="M284 831q-9 0 -18 7l-103 75q-9 7 -13 15t-4 18q0 12 6.5 22.5t17.5 10.5q7 0 13 -6l101 -75l102 75q6 6 13 6q11 0 17.5 -10.5t6.5 -22.5q0 -10 -4 -18t-14 -15l-102 -75q-10 -7 -19 -7zM460 -3q-13 0 -23.5 9t-17.5 22l-147 286h-100v-279q0 -17 -16.5 -26t-36.5 -9
t-36.5 9t-16.5 26v662q0 14 9.5 24t26.5 10h190q63 0 115 -18.5t83 -63t31 -122.5q0 -60 -18.5 -100t-50 -63.5t-71.5 -34.5l140 -263q2 -3 3 -7.5t1 -7.5q0 -13 -10 -25.5t-24.5 -20.5t-30.5 -8zM172 399h120q56 0 89.5 27t33.5 92t-33.5 92t-89.5 27h-120v-238z" />
    <glyph glyph-name="rcaron" unicode="&#x159;" horiz-adv-x="358" 
d="M196 583q-9 0 -18 7l-103 75q-9 7 -13 15t-4 18q0 12 6.5 22.5t17.5 10.5q7 0 13 -6l101 -75l102 75q6 6 13 6q11 0 17.5 -10.5t6.5 -22.5q0 -10 -4 -18t-14 -15l-102 -75q-10 -7 -19 -7zM106 0q-22 0 -36.5 11t-14.5 24v405q0 15 14.5 24.5t36.5 9.5q20 0 34 -9.5
t14 -24.5v-44q11 21 29.5 40t43.5 31.5t54 12.5h32q16 0 28 -13.5t12 -32.5t-12 -33t-28 -14h-32q-30 0 -58 -18t-45.5 -50.5t-17.5 -78.5v-205q0 -13 -15.5 -24t-38.5 -11z" />
    <glyph glyph-name="Sacute" unicode="&#x15a;" horiz-adv-x="511" 
d="M219 824q-14 0 -24.5 13.5t-10.5 27.5q0 18 15 26l124 63q6 2 11 2q15 0 24.5 -13.5t9.5 -27.5q0 -19 -16 -27l-121 -61l-6 -2t-6 -1zM250 -8q-65 0 -115 19t-78 46.5t-28 52.5q0 12 6.5 25t17 22.5t22.5 9.5q14 0 26.5 -11.5t30.5 -27.5t45 -28t69 -12q36 0 64.5 11.5
t45 35t16.5 59.5q0 38 -17.5 63t-47 42t-63.5 31t-69 30t-64 38.5t-46.5 57t-17.5 86.5q0 55 20.5 92t54.5 59t75 31.5t81 9.5q25 0 55.5 -3.5t59.5 -12t48 -22.5t19 -34q0 -10 -5 -23.5t-14.5 -23.5t-24.5 -10q-13 0 -29 9.5t-41.5 19t-67.5 9.5q-36 0 -64.5 -10
t-44.5 -29.5t-16 -51.5t17.5 -52.5t46.5 -35t63.5 -27.5t69 -30.5t64 -42.5t47 -63.5t17.5 -95.5q0 -72 -29.5 -119.5t-81 -70.5t-117.5 -23z" />
    <glyph glyph-name="sacute" unicode="&#x15b;" horiz-adv-x="406" 
d="M166 568q-14 0 -24.5 13.5t-10.5 27.5q0 18 15 26l124 63q6 2 11 2q15 0 24.5 -13.5t9.5 -27.5q0 -19 -16 -27l-121 -61l-6 -2t-6 -1zM200 -8q-49 0 -88 12t-61.5 30.5t-22.5 37.5q0 9 4.5 20t13 19t18.5 8q13 0 27.5 -11.5t38.5 -23t67 -11.5q50 0 67.5 17t17.5 37
q0 26 -17.5 40.5t-45 23.5t-58.5 17.5t-58.5 22.5t-45 39t-17.5 66q0 34 17 67.5t54.5 55t100.5 21.5q38 0 72 -8t56 -21.5t22 -29.5q0 -7 -5 -19.5t-13.5 -22t-21.5 -9.5q-10 0 -25 7.5t-35 14.5t-49 7t-46.5 -9.5t-25.5 -22.5t-8 -26q0 -22 17 -34t45 -20t59 -16.5
t58.5 -24.5t45 -43t17.5 -72q0 -63 -45.5 -101t-129.5 -38z" />
    <glyph glyph-name="Scircumflex" unicode="&#x15c;" horiz-adv-x="511" 
d="M143 829q-11 0 -18.5 10.5t-7.5 24.5q0 9 4.5 17.5t13.5 13.5l104 56q9 5 17 5t17 -5l104 -55q11 -5 15 -14.5t4 -18.5q0 -13 -7 -23.5t-19 -10.5q-2 0 -4.5 1t-5.5 2l-104 56l-104 -56q-2 -1 -4.5 -2t-4.5 -1zM250 -8q-65 0 -115 19t-78 46.5t-28 52.5q0 12 6.5 25
t17 22.5t22.5 9.5q14 0 26.5 -11.5t30.5 -27.5t45 -28t69 -12q36 0 64.5 11.5t45 35t16.5 59.5q0 38 -17.5 63t-47 42t-63.5 31t-69 30t-64 38.5t-46.5 57t-17.5 86.5q0 55 20.5 92t54.5 59t75 31.5t81 9.5q25 0 55.5 -3.5t59.5 -12t48 -22.5t19 -34q0 -10 -5 -23.5
t-14.5 -23.5t-24.5 -10q-13 0 -29 9.5t-41.5 19t-67.5 9.5q-36 0 -64.5 -10t-44.5 -29.5t-16 -51.5t17.5 -52.5t46.5 -35t63.5 -27.5t69 -30.5t64 -42.5t47 -63.5t17.5 -95.5q0 -72 -29.5 -119.5t-81 -70.5t-117.5 -23z" />
    <glyph glyph-name="scircumflex" unicode="&#x15d;" horiz-adv-x="406" 
d="M90 572q-11 0 -18.5 10.5t-7.5 24.5q0 9 4.5 17.5t13.5 13.5l104 56q9 5 17 5t17 -5l104 -55q11 -5 15 -14.5t4 -18.5q0 -13 -7 -23.5t-19 -10.5q-2 0 -4.5 1t-5.5 2l-104 56l-104 -56q-2 -1 -4.5 -2t-4.5 -1zM200 -8q-49 0 -88 12t-61.5 30.5t-22.5 37.5q0 9 4.5 20
t13 19t18.5 8q13 0 27.5 -11.5t38.5 -23t67 -11.5q50 0 67.5 17t17.5 37q0 26 -17.5 40.5t-45 23.5t-58.5 17.5t-58.5 22.5t-45 39t-17.5 66q0 34 17 67.5t54.5 55t100.5 21.5q38 0 72 -8t56 -21.5t22 -29.5q0 -7 -5 -19.5t-13.5 -22t-21.5 -9.5q-10 0 -25 7.5t-35 14.5
t-49 7t-46.5 -9.5t-25.5 -22.5t-8 -26q0 -22 17 -34t45 -20t59 -16.5t58.5 -24.5t45 -43t17.5 -72q0 -63 -45.5 -101t-129.5 -38z" />
    <glyph glyph-name="Scedilla" unicode="&#x15e;" horiz-adv-x="511" 
d="M277 -214q-15 0 -34.5 3t-33.5 9.5t-14 15.5q0 4 2.5 11.5t7 14t10.5 6.5q7 0 20 -7t37 -7q25 0 37.5 10t12.5 26q0 17 -13.5 26.5t-40.5 11.5l-48 5l26 98h51l-18 -64q51 -1 74 -23t23 -52q0 -17 -9.5 -37t-31 -33.5t-58.5 -13.5zM250 -8q-65 0 -115 19t-78 46.5
t-28 52.5q0 12 6.5 25t17 22.5t22.5 9.5q14 0 26.5 -11.5t30.5 -27.5t45 -28t69 -12q36 0 64.5 11.5t45 35t16.5 59.5q0 38 -17.5 63t-47 42t-63.5 31t-69 30t-64 38.5t-46.5 57t-17.5 86.5q0 55 20.5 92t54.5 59t75 31.5t81 9.5q25 0 55.5 -3.5t59.5 -12t48 -22.5t19 -34
q0 -10 -5 -23.5t-14.5 -23.5t-24.5 -10q-13 0 -29 9.5t-41.5 19t-67.5 9.5q-36 0 -64.5 -10t-44.5 -29.5t-16 -51.5t17.5 -52.5t46.5 -35t63.5 -27.5t69 -30.5t64 -42.5t47 -63.5t17.5 -95.5q0 -72 -29.5 -119.5t-81 -70.5t-117.5 -23z" />
    <glyph glyph-name="scedilla" unicode="&#x15f;" horiz-adv-x="406" 
d="M215 -214q-15 0 -34.5 3t-33.5 9.5t-14 15.5q0 4 2.5 11.5t7 14t10.5 6.5q7 0 20 -7t37 -7q25 0 37.5 10t12.5 26q0 17 -13.5 26.5t-40.5 11.5l-48 5l26 98h51l-18 -64q51 -1 74 -23t23 -52q0 -17 -9.5 -37t-31 -33.5t-58.5 -13.5zM200 -8q-49 0 -88 12t-61.5 30.5
t-22.5 37.5q0 9 4.5 20t13 19t18.5 8q13 0 27.5 -11.5t38.5 -23t67 -11.5q50 0 67.5 17t17.5 37q0 26 -17.5 40.5t-45 23.5t-58.5 17.5t-58.5 22.5t-45 39t-17.5 66q0 34 17 67.5t54.5 55t100.5 21.5q38 0 72 -8t56 -21.5t22 -29.5q0 -7 -5 -19.5t-13.5 -22t-21.5 -9.5
q-10 0 -25 7.5t-35 14.5t-49 7t-46.5 -9.5t-25.5 -22.5t-8 -26q0 -22 17 -34t45 -20t59 -16.5t58.5 -24.5t45 -43t17.5 -72q0 -63 -45.5 -101t-129.5 -38z" />
    <glyph glyph-name="Scaron" unicode="&#x160;" horiz-adv-x="511" 
d="M256 831q-9 0 -18 7l-103 75q-9 7 -13 15t-4 18q0 12 6.5 22.5t17.5 10.5q7 0 13 -6l101 -75l102 75q6 6 13 6q11 0 17.5 -10.5t6.5 -22.5q0 -10 -4 -18t-14 -15l-102 -75q-10 -7 -19 -7zM250 -8q-65 0 -115 19t-78 46.5t-28 52.5q0 12 6.5 25t17 22.5t22.5 9.5
q14 0 26.5 -11.5t30.5 -27.5t45 -28t69 -12q36 0 64.5 11.5t45 35t16.5 59.5q0 38 -17.5 63t-47 42t-63.5 31t-69 30t-64 38.5t-46.5 57t-17.5 86.5q0 55 20.5 92t54.5 59t75 31.5t81 9.5q25 0 55.5 -3.5t59.5 -12t48 -22.5t19 -34q0 -10 -5 -23.5t-14.5 -23.5t-24.5 -10
q-13 0 -29 9.5t-41.5 19t-67.5 9.5q-36 0 -64.5 -10t-44.5 -29.5t-16 -51.5t17.5 -52.5t46.5 -35t63.5 -27.5t69 -30.5t64 -42.5t47 -63.5t17.5 -95.5q0 -72 -29.5 -119.5t-81 -70.5t-117.5 -23z" />
    <glyph glyph-name="scaron" unicode="&#x161;" horiz-adv-x="406" 
d="M203 574q-9 0 -18 7l-103 75q-9 7 -13 15t-4 18q0 12 6.5 22.5t17.5 10.5q7 0 13 -6l101 -75l102 75q6 6 13 6q11 0 17.5 -10.5t6.5 -22.5q0 -10 -4 -18t-14 -15l-102 -75q-10 -7 -19 -7zM200 -8q-49 0 -88 12t-61.5 30.5t-22.5 37.5q0 9 4.5 20t13 19t18.5 8
q13 0 27.5 -11.5t38.5 -23t67 -11.5q50 0 67.5 17t17.5 37q0 26 -17.5 40.5t-45 23.5t-58.5 17.5t-58.5 22.5t-45 39t-17.5 66q0 34 17 67.5t54.5 55t100.5 21.5q38 0 72 -8t56 -21.5t22 -29.5q0 -7 -5 -19.5t-13.5 -22t-21.5 -9.5q-10 0 -25 7.5t-35 14.5t-49 7t-46.5 -9.5
t-25.5 -22.5t-8 -26q0 -22 17 -34t45 -20t59 -16.5t58.5 -24.5t45 -43t17.5 -72q0 -63 -45.5 -101t-129.5 -38z" />
    <glyph glyph-name="uni021A" unicode="&#x162;" horiz-adv-x="506" 
d="M196 -181q-14 0 -24.5 14t-10.5 28q0 18 15 26l124 62q6 3 11 3q15 0 24.5 -13.5t9.5 -27.5q0 -19 -16 -28l-121 -60q-3 -1 -6 -2.5t-6 -1.5zM253 0q-20 0 -36.5 9t-16.5 26v599h-155q-16 0 -25 15t-9 34q0 18 8 33t26 15h415q19 0 27 -15t8 -32q0 -20 -8.5 -35
t-26.5 -15h-154v-599q0 -17 -16.5 -26t-36.5 -9z" />
    <glyph glyph-name="uni021B" unicode="&#x163;" horiz-adv-x="326" 
d="M105 -181q-14 0 -24.5 14t-10.5 28q0 18 15 26l124 62q6 3 11 3q15 0 24.5 -13.5t9.5 -27.5q0 -19 -16 -28l-121 -60q-3 -1 -6 -2.5t-6 -1.5zM228 0q-85 0 -130 37.5t-45 118.5v501q0 15 16.5 24.5t35.5 9.5t36 -9.5t17 -24.5v-183h122q14 0 21.5 -12t7.5 -27t-7.5 -27
t-21.5 -12h-122v-240q0 -36 15.5 -51t54.5 -15h34q23 0 34.5 -13.5t11.5 -31.5q0 -17 -11.5 -31t-34.5 -14h-34z" />
    <glyph glyph-name="Tcaron" unicode="&#x164;" horiz-adv-x="506" 
d="M253 831q-9 0 -18 7l-103 75q-9 7 -13 15t-4 18q0 12 6.5 22.5t17.5 10.5q7 0 13 -6l101 -75l102 75q6 6 13 6q11 0 17.5 -10.5t6.5 -22.5q0 -10 -4 -18t-14 -15l-102 -75q-10 -7 -19 -7zM253 0q-20 0 -36.5 9t-16.5 26v599h-155q-16 0 -25 15t-9 34q0 18 8 33t26 15h415
q19 0 27 -15t8 -32q0 -20 -8.5 -35t-26.5 -15h-154v-599q0 -17 -16.5 -26t-36.5 -9z" />
    <glyph glyph-name="tcaron" unicode="&#x165;" horiz-adv-x="326" 
d="M254 549q-12 0 -24 7.5t-12 21.5q0 7 2 12l23 53q-16 8 -25.5 22t-9.5 32q0 25 17.5 42.5t41.5 17.5q25 0 42.5 -17.5t17.5 -41.5q0 -5 -2 -14t-7.5 -23.5t-15.5 -38t-25 -58.5q-3 -8 -10 -11.5t-13 -3.5zM228 0q-85 0 -130 37.5t-45 118.5v501q0 15 16.5 24.5t35.5 9.5
t36 -9.5t17 -24.5v-183h122q14 0 21.5 -12t7.5 -27t-7.5 -27t-21.5 -12h-122v-240q0 -36 15.5 -51t54.5 -15h34q23 0 34.5 -13.5t11.5 -31.5q0 -17 -11.5 -31t-34.5 -14h-34z" />
    <glyph glyph-name="Tbar" unicode="&#x166;" horiz-adv-x="507" 
d="M254 0q-20 0 -36.5 9t-16.5 26v290h-101q-15 0 -22.5 12.5t-7.5 27.5t7.5 27.5t22.5 12.5h101v229h-155q-16 0 -25.5 15t-9.5 34q0 18 8.5 33t26.5 15h415q18 0 26.5 -15t8.5 -32q0 -20 -8.5 -35t-26.5 -15h-154v-229h100q15 0 22.5 -12.5t7.5 -27.5t-7.5 -27.5
t-22.5 -12.5h-100v-290q0 -17 -16.5 -26t-36.5 -9z" />
    <glyph glyph-name="tbar" unicode="&#x167;" horiz-adv-x="328" 
d="M228 0q-85 0 -130 37.5t-45 118.5v501q0 15 16.5 24.5t35.5 9.5t36 -9.5t17 -24.5v-183h122q14 0 21.5 -12t7.5 -27t-7.5 -27t-21.5 -12h-122v-84h122q14 0 21.5 -12.5t7.5 -27.5q0 -16 -7.5 -27.5t-21.5 -11.5h-122v-77q0 -36 15.5 -51t54.5 -15h34q23 0 34.5 -13.5
t11.5 -31.5q0 -17 -11.5 -31t-34.5 -14h-34z" />
    <glyph glyph-name="Utilde" unicode="&#x168;" horiz-adv-x="582" 
d="M371 843q-30 0 -51.5 8t-41.5 15.5t-46 7.5q-21 0 -35 -6.5t-24 -13.5t-19 -7q-10 0 -16.5 6.5t-9 15.5t-2.5 14q0 20 9.5 32t24 19t29 10t24.5 3q28 0 49 -7.5t42 -15.5t47 -8q22 0 35 6.5t22.5 12.5t19.5 6q11 0 17 -6.5t8.5 -14.5t2.5 -13q0 -21 -9.5 -33.5
t-23.5 -19.5t-28.5 -9t-23.5 -2zM291 -6q-64 0 -116 22t-82 71t-30 130v480q0 18 16 26t37 8q19 0 36 -8t17 -26v-480q0 -66 32 -97.5t90 -31.5q57 0 90 31.5t33 97.5v480q0 18 16 26t37 8q19 0 36 -8t17 -26v-480q0 -81 -30.5 -130t-82.5 -71t-116 -22z" />
    <glyph glyph-name="utilde" unicode="&#x169;" horiz-adv-x="513" 
d="M337 586q-30 0 -51.5 8t-41.5 15.5t-46 7.5q-21 0 -35 -6.5t-24 -13.5t-19 -7q-10 0 -16.5 6.5t-9 15.5t-2.5 14q0 20 9.5 32t24 19t29 10t24.5 3q28 0 49 -7.5t42 -15.5t47 -8q22 0 35 6.5t22.5 12.5t19.5 6q11 0 17 -6.5t8.5 -14.5t2.5 -13q0 -21 -9.5 -33.5
t-23.5 -19.5t-28.5 -9t-23.5 -2zM257 -8q-56 0 -103.5 27.5t-75.5 73t-28 96.5v250q0 13 15.5 24t37.5 11q21 0 36.5 -11t15.5 -24v-250q0 -26 13.5 -50t37 -39t51.5 -15t51 15t36.5 39t13.5 50v251q0 14 16.5 24t36.5 10q23 0 37.5 -10t14.5 -24v-251q0 -53 -28 -98
t-75 -72t-103 -27z" />
    <glyph glyph-name="Umacron" unicode="&#x16a;" horiz-adv-x="582" 
d="M186 867q-15 0 -24.5 10t-9.5 25q0 16 9.5 26.5t24.5 10.5h209q13 0 24 -10.5t11 -26.5q0 -15 -11 -25t-24 -10h-209zM291 -6q-64 0 -116 22t-82 71t-30 130v480q0 18 16 26t37 8q19 0 36 -8t17 -26v-480q0 -66 32 -97.5t90 -31.5q57 0 90 31.5t33 97.5v480q0 18 16 26
t37 8q19 0 36 -8t17 -26v-480q0 -81 -30.5 -130t-82.5 -71t-116 -22z" />
    <glyph glyph-name="umacron" unicode="&#x16b;" horiz-adv-x="513" 
d="M151 611q-15 0 -24.5 10t-9.5 25q0 16 9.5 26.5t24.5 10.5h209q13 0 24 -10.5t11 -26.5q0 -15 -11 -25t-24 -10h-209zM257 -8q-56 0 -103.5 27.5t-75.5 73t-28 96.5v250q0 13 15.5 24t37.5 11q21 0 36.5 -11t15.5 -24v-250q0 -26 13.5 -50t37 -39t51.5 -15t51 15t36.5 39
t13.5 50v251q0 14 16.5 24t36.5 10q23 0 37.5 -10t14.5 -24v-251q0 -53 -28 -98t-75 -72t-103 -27z" />
    <glyph glyph-name="Ubreve" unicode="&#x16c;" horiz-adv-x="582" 
d="M291 839q-43 0 -78.5 29t-45.5 71q-3 12 4 19t18 7h13q10 0 16 -5.5t9 -15.5q6 -25 24.5 -40.5t39.5 -15.5q22 0 39.5 15.5t23.5 40.5q3 10 9 15.5t16 5.5h13q11 0 18.5 -7t4.5 -19q-11 -42 -46.5 -71t-77.5 -29zM291 -6q-64 0 -116 22t-82 71t-30 130v480q0 18 16 26
t37 8q19 0 36 -8t17 -26v-480q0 -66 32 -97.5t90 -31.5q57 0 90 31.5t33 97.5v480q0 18 16 26t37 8q19 0 36 -8t17 -26v-480q0 -81 -30.5 -130t-82.5 -71t-116 -22z" />
    <glyph glyph-name="ubreve" unicode="&#x16d;" horiz-adv-x="513" 
d="M257 583q-43 0 -78.5 29t-45.5 71q-3 12 4 19t18 7h13q10 0 16 -5.5t9 -15.5q6 -25 24.5 -40.5t39.5 -15.5q22 0 39.5 15.5t23.5 40.5q3 10 9 15.5t16 5.5h13q11 0 18.5 -7t4.5 -19q-11 -42 -46.5 -71t-77.5 -29zM257 -8q-56 0 -103.5 27.5t-75.5 73t-28 96.5v250
q0 13 15.5 24t37.5 11q21 0 36.5 -11t15.5 -24v-250q0 -26 13.5 -50t37 -39t51.5 -15t51 15t36.5 39t13.5 50v251q0 14 16.5 24t36.5 10q23 0 37.5 -10t14.5 -24v-251q0 -53 -28 -98t-75 -72t-103 -27z" />
    <glyph glyph-name="Uring" unicode="&#x16e;" horiz-adv-x="582" 
d="M290 817q-25 0 -47 13.5t-35 36.5t-13 48q0 26 12.5 48t34.5 36t49 14q25 0 47 -13.5t35.5 -36t13.5 -47.5q0 -26 -13.5 -48.5t-35.5 -36.5t-48 -14zM291 861q21 0 35.5 17t14.5 37q0 19 -14.5 34.5t-35.5 15.5q-22 0 -37 -16t-15 -34q0 -19 15.5 -36.5t36.5 -17.5z
M291 -6q-64 0 -116 22t-82 71t-30 130v480q0 18 16 26t37 8q19 0 36 -8t17 -26v-480q0 -66 32 -97.5t90 -31.5q57 0 90 31.5t33 97.5v480q0 18 16 26t37 8q19 0 36 -8t17 -26v-480q0 -81 -30.5 -130t-82.5 -71t-116 -22z" />
    <glyph glyph-name="uring" unicode="&#x16f;" horiz-adv-x="513" 
d="M256 561q-25 0 -47 13.5t-35 36.5t-13 48q0 26 12.5 48t34.5 36t49 14q25 0 47 -13.5t35.5 -36t13.5 -47.5q0 -26 -13.5 -48.5t-35.5 -36.5t-48 -14zM257 605q21 0 35.5 17t14.5 37q0 19 -14.5 34.5t-35.5 15.5q-22 0 -37 -16t-15 -34q0 -19 15.5 -36.5t36.5 -17.5z
M257 -8q-56 0 -103.5 27.5t-75.5 73t-28 96.5v250q0 13 15.5 24t37.5 11q21 0 36.5 -11t15.5 -24v-250q0 -26 13.5 -50t37 -39t51.5 -15t51 15t36.5 39t13.5 50v251q0 14 16.5 24t36.5 10q23 0 37.5 -10t14.5 -24v-251q0 -53 -28 -98t-75 -72t-103 -27z" />
    <glyph glyph-name="Uhungarumlaut" unicode="&#x170;" horiz-adv-x="582" 
d="M338 834q-13 0 -23.5 10.5t-10.5 22.5q0 9 7 15l89 81q3 4 7 5t8 1q13 0 23 -10.5t10 -21.5t-8 -18l-86 -78q-6 -7 -16 -7zM184 834q-13 0 -24 10.5t-11 22.5q0 9 7 15l89 81q4 4 8 5t8 1q12 0 22 -10.5t10 -21.5t-8 -18l-85 -78q-7 -7 -16 -7zM291 -6q-64 0 -116 22
t-82 71t-30 130v480q0 18 16 26t37 8q19 0 36 -8t17 -26v-480q0 -66 32 -97.5t90 -31.5q57 0 90 31.5t33 97.5v480q0 18 16 26t37 8q19 0 36 -8t17 -26v-480q0 -81 -30.5 -130t-82.5 -71t-116 -22z" />
    <glyph glyph-name="uhungarumlaut" unicode="&#x171;" horiz-adv-x="513" 
d="M304 577q-13 0 -23.5 10.5t-10.5 22.5q0 9 7 15l89 81q3 4 7 5t8 1q13 0 23 -10.5t10 -21.5t-8 -18l-86 -78q-6 -7 -16 -7zM150 577q-13 0 -24 10.5t-11 22.5q0 9 7 15l89 81q4 4 8 5t8 1q12 0 22 -10.5t10 -21.5t-8 -18l-85 -78q-7 -7 -16 -7zM257 -8q-56 0 -103.5 27.5
t-75.5 73t-28 96.5v250q0 13 15.5 24t37.5 11q21 0 36.5 -11t15.5 -24v-250q0 -26 13.5 -50t37 -39t51.5 -15t51 15t36.5 39t13.5 50v251q0 14 16.5 24t36.5 10q23 0 37.5 -10t14.5 -24v-251q0 -53 -28 -98t-75 -72t-103 -27z" />
    <glyph glyph-name="Uogonek" unicode="&#x172;" horiz-adv-x="582" 
d="M355 -208q-33 0 -57.5 9.5t-38 29t-13.5 45.5q0 42 24 81t65 67l42 -18q-33 -23 -54.5 -55.5t-21.5 -65.5q0 -23 15 -34.5t45 -11.5q11 0 16.5 -7.5t5.5 -17.5q0 -9 -5.5 -15.5t-22.5 -6.5zM291 -6q-64 0 -116 22t-82 71t-30 130v480q0 18 16 26t37 8q19 0 36 -8t17 -26
v-480q0 -66 32 -97.5t90 -31.5q57 0 90 31.5t33 97.5v480q0 18 16 26t37 8q19 0 36 -8t17 -26v-480q0 -81 -30.5 -130t-82.5 -71t-116 -22z" />
    <glyph glyph-name="uogonek" unicode="&#x173;" horiz-adv-x="513" 
d="M309 -208q-33 0 -57.5 9.5t-38 29t-13.5 45.5q0 42 24 81t65 67l42 -18q-33 -23 -54.5 -55.5t-21.5 -65.5q0 -23 15 -34.5t45 -11.5q11 0 16.5 -7.5t5.5 -17.5q0 -9 -5.5 -15.5t-22.5 -6.5zM257 -8q-56 0 -103.5 27.5t-75.5 73t-28 96.5v250q0 13 15.5 24t37.5 11
q21 0 36.5 -11t15.5 -24v-250q0 -26 13.5 -50t37 -39t51.5 -15t51 15t36.5 39t13.5 50v251q0 14 16.5 24t36.5 10q23 0 37.5 -10t14.5 -24v-251q0 -53 -28 -98t-75 -72t-103 -27z" />
    <glyph glyph-name="Wcircumflex" unicode="&#x174;" horiz-adv-x="845" 
d="M309 829q-11 0 -18.5 10.5t-7.5 24.5q0 9 4.5 17.5t13.5 13.5l104 56q9 5 17 5t17 -5l104 -55q11 -5 15 -14.5t4 -18.5q0 -13 -7 -23.5t-19 -10.5q-2 0 -4.5 1t-5.5 2l-104 56l-104 -56q-2 -1 -4.5 -2t-4.5 -1zM280 -6q-22 0 -42 9t-26 27l-198 648q-1 5 -1 10
q0 13 10 22.5t25.5 15t30.5 5.5q13 0 23.5 -5t13.5 -17l163 -570l91 358q4 16 19.5 23.5t32.5 7.5q19 0 34 -7.5t19 -23.5l91 -358l163 570q4 12 14 17t23 5q15 0 30 -5.5t25.5 -15t10.5 -22.5q0 -5 -2 -10l-197 -648q-6 -18 -25.5 -27t-42.5 -9q-22 0 -42 9t-24 27l-77 302
l-75 -302q-5 -18 -24.5 -27t-42.5 -9z" />
    <glyph glyph-name="wcircumflex" unicode="&#x175;" horiz-adv-x="682" 
d="M228 572q-11 0 -18.5 10.5t-7.5 24.5q0 9 4.5 17.5t13.5 13.5l104 56q9 5 17 5t17 -5l104 -55q11 -5 15 -14.5t4 -18.5q0 -13 -7 -23.5t-19 -10.5q-2 0 -4.5 1t-5.5 2l-104 56l-104 -56q-2 -1 -4.5 -2t-4.5 -1zM210 -10q-14 0 -25 5t-16 18l-155 404q-2 5 -3.5 9.5
t-1.5 7.5q0 13 11 22.5t26.5 15.5t29.5 6q11 0 20 -4.5t12 -14.5l111 -311l85 276q5 15 15 19t22 4q13 0 23 -4t15 -19l83 -278l112 313q6 19 31 19q14 0 29.5 -5.5t26.5 -15.5t11 -24q0 -3 -1 -8t-3 -8l-155 -406q-4 -12 -15.5 -16.5t-25.5 -4.5q-16 0 -27.5 5t-15.5 15
l-88 258l-86 -255q-4 -12 -16.5 -17.5t-28.5 -5.5z" />
    <glyph glyph-name="Ycircumflex" unicode="&#x176;" horiz-adv-x="556" 
d="M165 829q-11 0 -18.5 10.5t-7.5 24.5q0 9 4.5 17.5t13.5 13.5l104 56q9 5 17 5t17 -5l104 -55q11 -5 15 -14.5t4 -18.5q0 -13 -7 -23.5t-19 -10.5q-2 0 -4.5 1t-5.5 2l-104 56l-104 -56q-2 -1 -4.5 -2t-4.5 -1zM278 0q-20 0 -36.5 9t-16.5 26v253q0 6 -3 11l-207 373
q-2 5 -2.5 8.5t-0.5 6.5q0 13 11 22.5t26.5 15.5t29.5 6q13 0 20.5 -6t13.5 -18l165 -317l164 317q7 12 14.5 18t20.5 6q14 0 29.5 -6t26.5 -15.5t11 -22.5q0 -3 -0.5 -6.5t-3.5 -8.5l-206 -373q-3 -5 -3 -11v-253q0 -17 -16.5 -26t-36.5 -9z" />
    <glyph glyph-name="ycircumflex" unicode="&#x177;" horiz-adv-x="454" 
d="M114 572q-11 0 -18.5 10.5t-7.5 24.5q0 9 4.5 17.5t13.5 13.5l104 56q9 5 17 5t17 -5l104 -55q11 -5 15 -14.5t4 -18.5q0 -13 -7 -23.5t-19 -10.5q-2 0 -4.5 1t-5.5 2l-104 56l-104 -56q-2 -1 -4.5 -2t-4.5 -1zM57 -225q-20 0 -34 8.5t-14 36.5q0 18 6 31.5t22 13.5
q19 0 41.5 9.5t44 30t37 51.5t21.5 73l-169 388q-4 7 -4 14q0 13 11.5 24.5t27.5 18.5t30 7q10 0 19.5 -4.5t12.5 -14.5l126 -325l109 325q3 10 12 14.5t18 4.5q12 0 28.5 -7t29 -18.5t12.5 -26.5q0 -8 -3 -12l-150 -391q-16 -43 -33 -87.5t-41.5 -81.5t-63 -59.5
t-96.5 -22.5z" />
    <glyph glyph-name="Ydieresis" unicode="&#x178;" horiz-adv-x="556" 
d="M347 830q-19 0 -32 14t-13 33t13 32.5t32 13.5t32 -13.5t13 -32.5t-13 -33t-32 -14zM208 830q-19 0 -32.5 14t-13.5 33t13.5 32.5t32.5 13.5t31.5 -13.5t12.5 -32.5t-12.5 -33t-31.5 -14zM278 0q-20 0 -36.5 9t-16.5 26v253q0 6 -3 11l-207 373q-2 5 -2.5 8.5t-0.5 6.5
q0 13 11 22.5t26.5 15.5t29.5 6q13 0 20.5 -6t13.5 -18l165 -317l164 317q7 12 14.5 18t20.5 6q14 0 29.5 -6t26.5 -15.5t11 -22.5q0 -3 -0.5 -6.5t-3.5 -8.5l-206 -373q-3 -5 -3 -11v-253q0 -17 -16.5 -26t-36.5 -9z" />
    <glyph glyph-name="Zacute" unicode="&#x179;" horiz-adv-x="506" 
d="M212 824q-14 0 -24.5 13.5t-10.5 27.5q0 18 15 26l124 63q6 2 11 2q15 0 24.5 -13.5t9.5 -27.5q0 -19 -16 -27l-121 -61l-6 -2t-6 -1zM50 0q-17 0 -25 9t-8 22q0 18 11 37l310 569h-271q-16 0 -25.5 14t-9.5 33q0 17 8.5 32t26.5 15h373q17 0 25.5 -8.5t8.5 -21.5
q0 -17 -12 -39l-310 -568h303q17 0 26 -15t9 -32t-9 -32t-26 -15h-405z" />
    <glyph glyph-name="zacute" unicode="&#x17a;" horiz-adv-x="422" 
d="M174 568q-14 0 -24.5 13.5t-10.5 27.5q0 18 15 26l124 63q6 2 11 2q15 0 24.5 -13.5t9.5 -27.5q0 -19 -16 -27l-121 -61l-6 -2t-6 -1zM59 0q-20 0 -29 12t-9 26q0 12 5.5 23t12.5 19l214 307h-190q-14 0 -23.5 13t-9.5 31t9 30.5t24 12.5h290q14 0 24.5 -9t10.5 -28
q0 -22 -16 -43l-215 -307h213q13 0 23 -12.5t10 -31.5q0 -17 -9 -30t-24 -13h-311z" />
    <glyph glyph-name="Zdotaccent" unicode="&#x17b;" horiz-adv-x="506" 
d="M255 831q-19 0 -33 14.5t-14 33.5t14 33.5t33 14.5q20 0 33.5 -14.5t13.5 -33.5t-13.5 -33.5t-33.5 -14.5zM50 0q-17 0 -25 9t-8 22q0 18 11 37l310 569h-271q-16 0 -25.5 14t-9.5 33q0 17 8.5 32t26.5 15h373q17 0 25.5 -8.5t8.5 -21.5q0 -17 -12 -39l-310 -568h303
q17 0 26 -15t9 -32t-9 -32t-26 -15h-405z" />
    <glyph glyph-name="zdotaccent" unicode="&#x17c;" horiz-adv-x="422" 
d="M218 574q-19 0 -33 14.5t-14 33.5t14 33.5t33 14.5q20 0 33.5 -14.5t13.5 -33.5t-13.5 -33.5t-33.5 -14.5zM59 0q-20 0 -29 12t-9 26q0 12 5.5 23t12.5 19l214 307h-190q-14 0 -23.5 13t-9.5 31t9 30.5t24 12.5h290q14 0 24.5 -9t10.5 -28q0 -22 -16 -43l-215 -307h213
q13 0 23 -12.5t10 -31.5q0 -17 -9 -30t-24 -13h-311z" />
    <glyph glyph-name="Zcaron" unicode="&#x17d;" horiz-adv-x="506" 
d="M248 831q-9 0 -18 7l-103 75q-9 7 -13 15t-4 18q0 12 6.5 22.5t17.5 10.5q7 0 13 -6l101 -75l102 75q6 6 13 6q11 0 17.5 -10.5t6.5 -22.5q0 -10 -4 -18t-14 -15l-102 -75q-10 -7 -19 -7zM50 0q-17 0 -25 9t-8 22q0 18 11 37l310 569h-271q-16 0 -25.5 14t-9.5 33
q0 17 8.5 32t26.5 15h373q17 0 25.5 -8.5t8.5 -21.5q0 -17 -12 -39l-310 -568h303q17 0 26 -15t9 -32t-9 -32t-26 -15h-405z" />
    <glyph glyph-name="zcaron" unicode="&#x17e;" horiz-adv-x="422" 
d="M211 574q-9 0 -18 7l-103 75q-9 7 -13 15t-4 18q0 12 6.5 22.5t17.5 10.5q7 0 13 -6l101 -75l102 75q6 6 13 6q11 0 17.5 -10.5t6.5 -22.5q0 -10 -4 -18t-14 -15l-102 -75q-10 -7 -19 -7zM59 0q-20 0 -29 12t-9 26q0 12 5.5 23t12.5 19l214 307h-190q-14 0 -23.5 13
t-9.5 31t9 30.5t24 12.5h290q14 0 24.5 -9t10.5 -28q0 -22 -16 -43l-215 -307h213q13 0 23 -12.5t10 -31.5q0 -17 -9 -30t-24 -13h-311z" />
    <glyph glyph-name="longs" unicode="&#x17f;" horiz-adv-x="382" 
d="M289 647q-62 0 -62 -67v-580h-149v586q0 93 46 136t146 43q77 0 136 -23l-35 -109q-45 14 -82 14z" />
    <glyph glyph-name="uni0180" unicode="&#x180;" horiz-adv-x="632" 
d="M382 546q102 0 154 -69t52 -203q0 -135 -56.5 -209.5t-153.5 -74.5q-96 0 -151 70h-10l-25 -60h-114v584h-76v97h76v79h149v-79h154v-97h-154v-11q0 -32 -6 -108h6q52 81 155 81zM334 427q-104 0 -107 -146v-6q0 -88 26 -126t83 -38q46 0 73 42t27 123q0 151 -102 151z
" />
    <glyph glyph-name="uni0181" unicode="&#x181;" horiz-adv-x="793" 
d="M212 590h-26q-32 0 -46.5 -16.5t-14.5 -39.5q0 -22 10 -48h-118q-12 26 -12 58q0 82 47.5 126t137.5 44h244q152 0 220.5 -43.5t68.5 -137.5q0 -63 -30 -104.5t-80 -49.5v-5q68 -15 98 -56.5t30 -110.5q0 -98 -70.5 -152.5t-191.5 -54.5h-267v590zM363 311v-186h99
q62 0 92 24t30 73q0 89 -127 89h-94zM363 431h88q62 0 89.5 19t27.5 63q0 41 -30.5 59t-94.5 18h-80v-159z" />
    <glyph glyph-name="uni0182" unicode="&#x182;" horiz-adv-x="638" 
d="M241 440h60q140 0 216 -56.5t76 -160.5q0 -223 -295 -223h-208v714h451v-125h-300v-149zM241 124h51q77 0 112.5 24.5t35.5 74.5q0 49 -36 71t-124 22h-39v-192z" />
    <glyph glyph-name="uni0183" unicode="&#x183;" horiz-adv-x="632" 
d="M382 546q102 0 154 -69t52 -203q0 -135 -56.5 -209.5t-153.5 -74.5q-96 0 -151 70h-10l-25 -60h-114v760h456v-112h-307v-75q0 -32 -6 -108h6q52 81 155 81zM334 427q-104 0 -107 -146v-6q0 -88 26 -126t83 -38q46 0 73 42t27 123q0 151 -102 151z" />
    <glyph glyph-name="uni0184" unicode="&#x184;" horiz-adv-x="661" 
d="M616 218q0 -109 -69 -168.5t-198 -59.5q-264 0 -264 220v504h151v-274h88q140 0 216 -57.5t76 -164.5zM236 218q0 -104 109 -104q58 0 88 26.5t30 77.5q0 52 -35 75t-125 23h-67v-98z" />
    <glyph glyph-name="uni0185" unicode="&#x185;" horiz-adv-x="633" 
d="M589 273q0 -133 -67.5 -208t-186.5 -75q-125 0 -192.5 72t-67.5 205v493h149v-177q0 -27 -6 -108h6q26 40 67 60.5t92 20.5q97 0 151.5 -75t54.5 -208zM335 437q-59 0 -85 -37.5t-26 -108.5v-26q0 -80 26.5 -117.5t81.5 -37.5q53 0 79 39.5t26 123.5q0 83 -27.5 123.5
t-74.5 40.5z" />
    <glyph glyph-name="uni0186" unicode="&#x186;" horiz-adv-x="637" 
d="M239 598q-42 0 -80.5 -14t-74.5 -33l-49 123q99 50 220 50q153 0 238.5 -96.5t85.5 -266.5q0 -175 -86.5 -273t-245.5 -98q-54 0 -99 8.5t-92 28.5v127q64 -22 101.5 -30t75.5 -8q93 0 141.5 63.5t48.5 178.5q0 114 -48.5 177t-135.5 63z" />
    <glyph glyph-name="uni0187" unicode="&#x187;" horiz-adv-x="637" 
d="M393 598q-85 0 -132 -64t-47 -179q0 -239 179 -239q75 0 182 38v-127q-88 -37 -196 -37q-156 0 -238.5 94.5t-82.5 271.5q0 111 40.5 195t116.5 128.5t178 44.5q46 0 89 -11q1 81 40.5 123.5t113.5 42.5q22 0 41.5 -5t28.5 -10v-114q-28 10 -55 10q-49 0 -49 -56v-40
l-49 -113q-40 19 -80.5 33t-79.5 14z" />
    <glyph glyph-name="uni0188" unicode="&#x188;" horiz-adv-x="514" 
d="M300 -10q-255 0 -255 280q0 139 69.5 212.5t198.5 73.5q29 0 50 -4v41q0 84 39 128t116 44q39 0 69 -15v-114q-28 10 -55 10q-49 0 -49 -56v-76l-44 -110q-35 14 -65.5 23t-60.5 9q-116 0 -116 -165q0 -160 116 -160q43 0 79.5 11.5t73.5 35.5v-127q-36 -23 -73 -32
t-93 -9z" />
    <glyph glyph-name="uni0189" unicode="&#x189;" horiz-adv-x="740" 
d="M121 0q-21 0 -34 10t-13 24v310h-49q-14 0 -22 12t-8 27t8 27t22 12h49v275q0 14 13 24t34 10h177q63 0 114 -22t81 -71t30 -130v-285q0 -81 -30 -130t-81 -71t-114 -22h-177zM180 94h118q56 0 87.5 31.5t31.5 97.5v285q0 66 -31.5 97.5t-87.5 31.5h-118v-215h90
q14 0 22 -12t8 -27q0 -16 -8 -27.5t-22 -11.5h-90v-250z" />
    <glyph glyph-name="uni018A" unicode="&#x18a;" horiz-adv-x="861" 
d="M804 364q0 -176 -100 -270t-290 -94h-202v590h-26q-32 0 -46.5 -16.5t-14.5 -39.5q0 -22 10 -48h-118q-12 26 -12 58q0 82 47.5 126t137.5 44h246q175 0 271.5 -92t96.5 -258zM647 360q0 230 -203 230h-81v-465h65q219 0 219 235z" />
    <glyph glyph-name="uni018B" unicode="&#x18b;" horiz-adv-x="638" 
d="M397 589h-300v125h451v-714h-220q-142 0 -212.5 54t-70.5 165q0 104 77.5 162.5t219.5 58.5h55v149zM397 316h-39q-88 0 -124 -22.5t-36 -71.5q0 -50 36 -74t112 -24h51v192z" />
    <glyph glyph-name="uni018C" unicode="&#x18c;" horiz-adv-x="632" 
d="M251 -10q-96 0 -151 75t-55 207q0 129 57 201.5t153 72.5q104 0 157 -80h5q-11 62 -11 109v73h-307v112h456v-760h-114l-29 71h-6q-51 -81 -155 -81zM303 109q57 0 84 33t29 113v16q0 83 -27.5 118.5t-87.5 35.5q-50 0 -77.5 -39.5t-27.5 -115.5q0 -81 27.5 -121
t79.5 -40z" />
    <glyph glyph-name="uni018D" unicode="&#x18d;" horiz-adv-x="619" 
d="M382 307q116 -74 116 -167q0 -70 -59 -110t-163 -40q-53 0 -104 11t-121 43l59 105q45 -22 87 -35.5t85 -13.5q36 0 54 13t18 36q0 26 -33.5 52t-101.5 60q-90 45 -132 105.5t-42 138.5q0 126 69 193t198 67q119 0 190.5 -60.5t71.5 -163.5q0 -89 -46.5 -147.5
t-145.5 -86.5zM197 515q0 -95 98 -147q58 15 92 59.5t34 107.5q0 50 -30 80t-80 30q-55 0 -84.5 -33.5t-29.5 -96.5z" />
    <glyph glyph-name="uni018E" unicode="&#x18e;" horiz-adv-x="560" 
d="M59 125h260v184h-242v124h242v157h-260v124h411v-714h-411v125z" />
    <glyph glyph-name="uni018F" unicode="&#x18f;" horiz-adv-x="816" 
d="M400 599q-72 0 -150 -22t-133 -57v131q68 41 136 57.5t148 16.5q169 0 263.5 -98t94.5 -271t-89 -269.5t-251 -96.5q-168 0 -253.5 95.5t-85.5 286.5v35h521q-6 94 -57.5 143t-143.5 49zM419 116q80 0 127.5 44.5t52.5 120.5h-362q0 -85 44 -125t138 -40z" />
    <glyph glyph-name="uni0190" unicode="&#x190;" horiz-adv-x="647" 
d="M65 537q0 85 73 136t193 51q75 0 139 -17.5t132 -60.5l-66 -101q-94 58 -194 58q-65 0 -97.5 -21.5t-32.5 -58.5q0 -48 51.5 -70.5t165.5 -22.5h60v-118h-67q-112 0 -170.5 -23.5t-58.5 -74.5q0 -105 180 -105q52 0 114 12t109 35v-127q-95 -39 -256 -39
q-142 0 -219.5 56.5t-77.5 155.5q0 73 53 117.5t149 53.5v3q-180 27 -180 161z" />
    <glyph glyph-name="uni0191" unicode="&#x191;" horiz-adv-x="548" 
d="M239 -64q0 -87 -45 -131.5t-132 -44.5q-43 0 -80 15v114q25 -10 55 -10q23 0 38 15t15 45v775h409v-124h-260v-184h242v-124h-242v-346z" />
    <glyph glyph-name="florin" unicode="&#x192;" horiz-adv-x="389" 
d="M-21 -137q-16 0 -24.5 14t-8.5 32q0 22 11 37.5t27 15.5h22q17 0 28.5 15t19.5 39.5t11 52.5l69 504q8 53 39 97.5t78 71t99 26.5h40q14 0 23 -13t9 -32q0 -21 -11 -34.5t-26 -13.5h-37q-29 0 -52 -13.5t-37.5 -36.5t-19.5 -52l-20 -139h132q14 0 21.5 -12t7.5 -26
q0 -16 -8.5 -28.5t-22.5 -12.5h-141l-40 -286q-8 -53 -27 -100.5t-53 -76.5t-85 -29h-24z" />
    <glyph glyph-name="uni0193" unicode="&#x193;" horiz-adv-x="724" 
d="M361 401h283v-370q-69 -22 -129.5 -31.5t-124.5 -9.5q-162 0 -247 95t-85 273q0 173 99 269.5t274 96.5q50 0 93 -9q1 80 41 122t113 42q22 0 41.5 -5t28.5 -10v-114q-28 10 -55 10q-49 0 -49 -56v-33l-51 -112q-78 39 -163 39q-98 0 -157 -66t-59 -177
q0 -116 47.5 -177.5t138.5 -61.5q47 0 96 10v149h-135v126z" />
    <glyph glyph-name="uni0194" unicode="&#x194;" horiz-adv-x="649" 
d="M494 714h156l-257 -591q69 -138 69 -220q0 -65 -39 -104t-104 -39t-103 38t-38 106q0 50 18.5 103.5t47.5 117.5l-244 589h156l121 -311q10 -23 23 -68t19 -71q9 37 23.5 77.5t23.5 60.5zM354 -97q0 22 -9 56.5t-25 65.5q-18 -34 -26 -66t-8 -54q0 -56 34 -56t34 54z" />
    <glyph glyph-name="uni0195" unicode="&#x195;" horiz-adv-x="986" 
d="M572 238q0 -66 23 -97t72 -31t72.5 33t23.5 109v294h149v-307q0 -249 -245 -249q-129 0 -186.5 54.5t-57.5 171.5v103q0 118 -84 118q-58 0 -85 -43t-27 -137v-257h-149v760h149v-155q0 -18 -3 -85l-4 -44h8q52 80 155 80q91 0 140 -52.5t49 -152.5v-113z" />
    <glyph glyph-name="uni0196" unicode="&#x196;" horiz-adv-x="402" 
d="M243 714v-524q0 -35 18 -54t47 -19q38 0 85 17v-119q-53 -25 -129 -25q-179 0 -179 187v537h158z" />
    <glyph glyph-name="uni0197" unicode="&#x197;" horiz-adv-x="389" 
d="M27 419h92v169l-87 40v86h325v-86l-87 -40v-169h92v-124h-92v-169l87 -40v-86h-325v86l87 40v169h-92v124z" />
    <glyph glyph-name="uni0198" unicode="&#x198;" horiz-adv-x="664" 
d="M664 0h-172l-187 301l-64 -46v-255h-151v714h151v-329l64 91l81 108q46 62 73.5 88t56.5 39.5t63 13.5q43 0 75 -15v-119q-22 9 -48 9q-42 0 -74 -43l-120 -159z" />
    <glyph glyph-name="uni0199" unicode="&#x199;" horiz-adv-x="620" 
d="M221 297l65 83l153 166h168l-217 -237l230 -309h-172l-157 221l-64 -51v-170h-149v595q0 84 44 128t131 44q41 0 78 -15v-114q-28 10 -55 10q-49 0 -49 -56v-171l-8 -124h2z" />
    <glyph glyph-name="uni019A" unicode="&#x19a;" horiz-adv-x="330" 
d="M239 420h81v-112h-81v-308h-149v308h-80v112h80v340h149v-340z" />
    <glyph glyph-name="uni019B" unicode="&#x19b;" horiz-adv-x="615" 
d="M4 0l231 516l-11 28l-100 -30l-25 82l83 25q-15 12 -32.5 16t-40.5 4q-24 0 -50 -6v123q39 8 81 8q65 0 109 -24t75 -77l93 29l25 -83l-83 -25l135 -372q18 -51 36.5 -75t45.5 -24q16 0 34 5v-115q-11 -6 -39 -10.5t-47 -4.5q-54 0 -88 26.5t-54 84.5
q-56 158 -66.5 190.5t-16.5 57.5h-3q-22 -75 -37 -112l-101 -237h-154z" />
    <glyph glyph-name="uni019C" unicode="&#x19c;" horiz-adv-x="1035" 
d="M439 714h151v-477q0 -120 87 -120q60 0 88 42t28 141v414h152v-714h-114l-21 76h-9q-24 -42 -68.5 -64t-99.5 -22q-115 0 -167 90h-7q-55 -90 -171 -90q-99 0 -151 52t-52 152v520h151v-477q0 -120 87 -120q61 0 88.5 41t27.5 125v431z" />
    <glyph glyph-name="uni019D" unicode="&#x19d;" horiz-adv-x="812" 
d="M723 0h-192l-311 540h-4q9 -143 9 -204v-400q0 -85 -44 -130.5t-126 -45.5q-36 0 -73 15v114q25 -10 55 -10q23 0 38 15t15 45v775h191l310 -535h3q-7 139 -7 197v338h136v-714z" />
    <glyph glyph-name="uni019E" unicode="&#x19e;" horiz-adv-x="657" 
d="M582 -240h-149v559q0 59 -21 88.5t-67 29.5q-62 0 -90 -41.5t-28 -138.5v-257h-149v546h114l20 -70h8q25 40 69 60t99 20q95 0 144.5 -51.5t49.5 -148.5v-596z" />
    <glyph glyph-name="uni019F" unicode="&#x19f;" horiz-adv-x="795" 
d="M738 358q0 -177 -88 -272.5t-252 -95.5t-252 95.5t-88 273.5t88 272t253 94t252 -94.5t87 -272.5zM398 117q80 0 126 47t55 139h-363q10 -88 54.5 -137t127.5 -49zM399 599q-154 0 -181 -170h359q-12 83 -56.5 126.5t-121.5 43.5z" />
    <glyph glyph-name="Ohorn" unicode="&#x1a0;" horiz-adv-x="566" 
d="M307 660v72q44 0 67.5 16.5t23.5 48.5q0 15 8.5 29t27.5 14q22 0 29 -15t7 -28q0 -38 -16 -69t-51.5 -49.5t-95.5 -18.5zM283 -6q-64 0 -114.5 22t-80 71t-29.5 130v291q0 81 29.5 130t80 71t114.5 22q63 0 114 -22t81 -71t30 -130v-291q0 -81 -30 -130t-81 -71t-114 -22
zM283 88q55 0 87 31.5t32 97.5v291q0 66 -31.5 97.5t-87.5 31.5t-87.5 -31.5t-31.5 -97.5v-291q0 -66 31.5 -97.5t87.5 -31.5z" />
    <glyph glyph-name="ohorn" unicode="&#x1a1;" horiz-adv-x="486" 
d="M288 403v72q44 0 67.5 16.5t23.5 48.5q0 15 8.5 29t27.5 14q22 0 29 -15t7 -28q0 -38 -16 -69t-51.5 -49.5t-95.5 -18.5zM242 -8q-54 0 -101 28t-75.5 73.5t-28.5 97.5v92q0 53 27.5 98t75 72t103.5 27t103 -26.5t75.5 -71t28.5 -99.5v-92q0 -51 -28.5 -97t-76 -74
t-103.5 -28zM243 85q28 0 51 15t37 39.5t14 51.5v92q0 26 -14 50t-37 39t-51 15q-29 0 -51.5 -15t-36 -39t-13.5 -50v-92q0 -27 13.5 -51.5t36.5 -39.5t51 -15z" />
    <glyph glyph-name="uni01A2" unicode="&#x1a2;" horiz-adv-x="1130" 
d="M718 358q0 -178 -85 -273t-245 -95q-161 0 -245.5 95t-84.5 274q0 177 85.5 271.5t245.5 94.5q154 0 239 -90q82 90 205 90q102 0 157.5 -60.5t55.5 -174.5v-490h-151v478q0 60 -26.5 90.5t-76.5 30.5q-36 0 -62.5 -10t-48.5 -34q37 -82 37 -197zM217 358
q0 -121 43.5 -181t127.5 -60q171 0 171 241t-170 241q-172 0 -172 -241z" />
    <glyph glyph-name="uni01A3" unicode="&#x1a3;" horiz-adv-x="929" 
d="M554 274q0 -134 -68 -209t-188 -75q-117 0 -185 75.5t-68 208.5q0 134 67.5 208t188.5 74q118 0 186 -78q62 78 173 78q95 0 144.5 -51.5t49.5 -148.5v-596h-149v559q0 59 -21 88.5t-67 29.5q-56 0 -85 -35q22 -58 22 -128zM197 274q0 -82 24.5 -123t78.5 -41t78 41
t24 123q0 81 -24.5 121.5t-78.5 40.5q-53 0 -77.5 -40t-24.5 -122z" />
    <glyph glyph-name="uni01A4" unicode="&#x1a4;" horiz-adv-x="750" 
d="M705 491q0 -115 -72 -176t-205 -61h-65v-254h-151v590h-26q-32 0 -46.5 -16.5t-14.5 -39.5q0 -22 10 -48h-118q-12 26 -12 58q0 82 47.5 126t137.5 44h250q130 0 197.5 -56t67.5 -167zM363 378h50q69 0 104 27.5t35 80.5t-29 78.5t-91 25.5h-69v-212z" />
    <glyph glyph-name="uni01A5" unicode="&#x1a5;" horiz-adv-x="632" 
d="M227 583q0 -44 -6 -108h6q24 40 64 60.5t91 20.5q97 0 151.5 -75.5t54.5 -206.5q0 -133 -54.5 -208.5t-151.5 -75.5q-104 0 -155 67h-7l4 -30l3 -46v-221h-149v833q0 83 44 127.5t131 44.5q41 0 78 -15v-114q-28 10 -55 10q-23 0 -35 -13t-14 -43v-7zM334 437
q-55 0 -80.5 -34t-26.5 -112v-16q0 -88 26 -126t83 -38q100 0 100 165q0 81 -24.5 121t-77.5 40z" />
    <glyph glyph-name="uni01A6" unicode="&#x1a6;" horiz-adv-x="660" 
d="M241 174v-174h-151v714h151v-100h57q146 0 215.5 -53t69.5 -161q0 -62 -33.5 -110.5t-99.5 -78.5l210 -311h-168l-170 274h-81zM241 297h49q72 0 106 24t34 75t-35 72.5t-108 21.5h-46v-193z" />
    <glyph glyph-name="uni01A7" unicode="&#x1a7;" horiz-adv-x="550" 
d="M42 193q0 74 40.5 126t133.5 92q67 28 94 44.5t38.5 33.5t11.5 41q0 33 -23.5 50.5t-67.5 17.5q-41 0 -81.5 -11t-89.5 -31l-45 118q111 50 228 50q106 0 166.5 -51.5t60.5 -145.5q0 -75 -40 -125.5t-139 -91.5q-61 -25 -87 -41.5t-39 -34.5t-13 -41q0 -37 26 -57.5
t78 -20.5q100 0 210 46v-126q-92 -45 -219 -45q-117 0 -180 51.5t-63 151.5z" />
    <glyph glyph-name="uni01A8" unicode="&#x1a8;" horiz-adv-x="497" 
d="M38 152q0 62 34.5 103.5t118.5 73.5q76 29 97 43t21 33q0 20 -19 30.5t-52 10.5q-37 0 -72.5 -11.5t-75.5 -28.5l-40 107q94 43 203 43q96 0 150 -39t54 -110q0 -62 -33 -100.5t-120 -72.5q-47 -19 -72 -32t-36 -24t-11 -29q0 -50 88 -50q91 0 174 43v-113
q-79 -39 -186 -39q-111 0 -167 41.5t-56 120.5z" />
    <glyph glyph-name="uni01A9" unicode="&#x1a9;" horiz-adv-x="592" 
d="M38 0v119l230 255l-224 224v116h486v-124h-214q-25 0 -111 5l222 -220l-233 -256q117 6 139 6h226v-125h-521z" />
    <glyph glyph-name="uni01AA" unicode="&#x1aa;" horiz-adv-x="367" 
d="M290 -240q-92 0 -136 45t-44 136v589h-27q-68 0 -105 32t-37 91q0 53 40 85t107 32q171 0 171 -179v-650q0 -32 18 -47t47 -15q39 0 94 17v-111q-53 -25 -128 -25zM67 688q-17 0 -26.5 -10.5t-9.5 -25.5q0 -19 14 -32t41 -13h24v31q0 25 -11.5 37.5t-31.5 12.5z" />
    <glyph glyph-name="uni01AB" unicode="&#x1ab;" horiz-adv-x="434" 
d="M260 -240q-42 0 -80 13v104q23 -9 48 -9q27 0 38.5 14t11.5 44v64h-13q-89 0 -130 45.5t-41 135.5v263h-71v63l82 50l43 115h95v-116h153v-112h-153v-263q0 -32 18 -47t47 -15q39 0 94 17v-200q0 -86 -36 -126t-106 -40z" />
    <glyph glyph-name="uni01AC" unicode="&#x1ac;" horiz-adv-x="618" 
d="M404 0h-151v588h-67q-32 0 -46.5 -16.5t-14.5 -39.5q0 -21 10 -46h-118q-12 26 -12 58q0 82 47.5 126t137.5 44h408v-126h-194v-588z" />
    <glyph glyph-name="uni01AD" unicode="&#x1ad;" horiz-adv-x="434" 
d="M308 109q39 0 94 17v-111q-56 -25 -137 -25q-89 0 -130 45.5t-41 135.5v263h-71v63l71 43v53q0 84 47 128t142 44q49 0 92 -16v-114q-37 11 -75 11q-30 0 -43.5 -14t-13.5 -42v-44h153v-112h-153v-263q0 -32 18 -47t47 -15z" />
    <glyph glyph-name="uni01AE" unicode="&#x1ae;" horiz-adv-x="579" 
d="M365 -61q0 -31 15 -45.5t38 -14.5q30 0 55 10v-114q-12 -5 -35 -10t-49 -5q-175 0 -175 176v652h-194v126h539v-126h-194v-649z" />
    <glyph glyph-name="Uhorn" unicode="&#x1af;" horiz-adv-x="582" 
d="M466 660v72q44 0 67.5 16.5t23.5 48.5q0 15 8.5 29t27.5 14q22 0 29 -15t7 -28q0 -38 -16 -69t-51.5 -49.5t-95.5 -18.5zM291 -6q-64 0 -116 22t-82 71t-30 130v480q0 18 16 26t37 8q19 0 36 -8t17 -26v-480q0 -66 32 -97.5t90 -31.5q57 0 90 31.5t33 97.5v480
q0 18 16 26t37 8q19 0 36 -8t17 -26v-480q0 -81 -30.5 -130t-82.5 -71t-116 -22z" />
    <glyph glyph-name="uhorn" unicode="&#x1b0;" horiz-adv-x="513" 
d="M410 403v72q44 0 67.5 16.5t23.5 48.5q0 15 8.5 29t27.5 14q22 0 29 -15t7 -28q0 -38 -16 -69t-51.5 -49.5t-95.5 -18.5zM257 -8q-56 0 -103.5 27.5t-75.5 73t-28 96.5v250q0 13 15.5 24t37.5 11q21 0 36.5 -11t15.5 -24v-250q0 -26 13.5 -50t37 -39t51.5 -15t51 15
t36.5 39t13.5 50v251q0 14 16.5 24t36.5 10q23 0 37.5 -10t14.5 -24v-251q0 -53 -28 -98t-75 -72t-103 -27z" />
    <glyph glyph-name="uni01B1" unicode="&#x1b1;" horiz-adv-x="786" 
d="M393 116q88 0 136 53t48 151t-31.5 159.5t-98.5 98.5v136h312v-127h-181q73 -45 114 -123.5t41 -175.5q0 -89 -41.5 -157t-119 -104.5t-179.5 -36.5q-103 0 -180 36.5t-118.5 104.5t-41.5 158q0 97 40.5 174.5t116.5 123.5h-183v127h314v-136q-66 -35 -99 -98t-33 -161
q0 -97 47.5 -150t136.5 -53z" />
    <glyph glyph-name="uni01B2" unicode="&#x1b2;" horiz-adv-x="649" 
d="M410 0h-155l-255 714h153l144 -425q7 -19 20.5 -74t17.5 -83q3 25 18.5 79.5t23.5 72.5l70 168q21 49 26 68t5 33q0 23 -13 34.5t-32 11.5q-26 0 -43 -9v117q35 17 83 17q71 0 109.5 -38.5t38.5 -105.5q0 -58 -37 -156z" />
    <glyph glyph-name="uni01B3" unicode="&#x1b3;" horiz-adv-x="624" 
d="M78 724q50 0 84.5 -26t65.5 -93l86 -183l147 292h163l-237 -436v-278h-150v272l-110 231q-20 42 -32.5 61t-24.5 27t-33 8q-20 0 -37 -9v117q37 17 78 17z" />
    <glyph glyph-name="uni01B4" unicode="&#x1b4;" horiz-adv-x="615" 
d="M172 546l86 -254q22 -63 32 -125h3q18 73 34 119l54 148q24 65 60.5 93.5t88.5 28.5q21 0 44 -4.5t36 -10.5v-115q-19 5 -34 5q-26 0 -44.5 -22.5t-37.5 -76.5l-144 -397q-64 -175 -234 -175q-34 0 -72 8v118q6 -1 23.5 -3.5t33.5 -2.5q83 0 116 95l10 29l-217 542h162z
" />
    <glyph glyph-name="uni01B5" unicode="&#x1b5;" horiz-adv-x="579" 
d="M62 415h183l121 174h-333v125h513v-98l-140 -201h93v-124h-180l-115 -166h351v-125h-531v98l135 193h-97v124z" />
    <glyph glyph-name="uni01B6" unicode="&#x1b6;" horiz-adv-x="487" 
d="M458 0h-431v88l105 142h-79v97h150l77 105h-238v114h407v-97l-90 -122h76v-97h-147l-85 -116h255v-114z" />
    <glyph glyph-name="uni01B7" unicode="&#x1b7;" horiz-adv-x="590" 
d="M138 419l176 170h-262v125h468v-97l-211 -201q118 -5 180.5 -58.5t62.5 -149.5q0 -102 -79.5 -160t-224.5 -58q-126 0 -220 39v128q45 -21 102.5 -34t108.5 -13q82 0 122 25.5t40 81.5q0 50 -51 73t-152 23h-60v106z" />
    <glyph glyph-name="uni01B8" unicode="&#x1b8;" horiz-adv-x="590" 
d="M453 313h-60q-102 0 -152.5 -23.5t-50.5 -74.5q0 -53 40.5 -79t121.5 -26q53 0 110 13t101 34v-128q-94 -39 -225 -39q-141 0 -220 56t-79 157q0 96 61.5 150t181.5 63l-211 201v97h468v-125h-263l177 -170v-106z" />
    <glyph glyph-name="uni01B9" unicode="&#x1b9;" horiz-adv-x="581" 
d="M443 139h-58q-97 0 -146 -31.5t-49 -98.5q0 -62 39.5 -95.5t113.5 -33.5q49 0 102.5 12.5t97.5 34.5v-126q-96 -41 -221 -41q-134 0 -208.5 63.5t-74.5 176.5q0 104 61 167t177 80l-211 202v97h472v-114h-288l193 -187v-106z" />
    <glyph glyph-name="uni01BA" unicode="&#x1ba;" horiz-adv-x="581" 
d="M371 143q0 31 -31.5 43.5t-116.5 12.5h-68v100l150 133h-247v114h443v-96l-177 -144q98 -8 148 -50.5t50 -115.5q0 -88 -65 -131.5t-201 -53.5q-43 -3 -62 -13t-19 -27q0 -45 100 -45q92 0 203 39v-110q-43 -18 -101.5 -28.5t-120.5 -10.5q-96 0 -152 40.5t-56 115.5
q0 147 193 162q75 5 102.5 19t27.5 46z" />
    <glyph glyph-name="uni01BB" unicode="&#x1bb;" horiz-adv-x="569" 
d="M387 322l-185 -201v-7h324v-114h-499v111l193 211h-176v97h257q26 32 35.5 64.5t9.5 68.5q0 42 -26 68t-68 26q-38 0 -71.5 -16t-76.5 -58l-73 91q46 42 78.5 60.5t71.5 30t87 11.5q103 0 165.5 -57t62.5 -148q0 -77 -39 -141h69v-97h-139z" />
    <glyph glyph-name="uni01BC" unicode="&#x1bc;" horiz-adv-x="578" 
d="M289 456q114 0 182 -60.5t68 -164.5q0 -118 -80 -179.5t-229 -61.5q-58 0 -112 10t-90 29v130q37 -20 92.5 -33t104.5 -13q81 0 121.5 27.5t40.5 80.5q0 109 -147 109h-127v258h-79v126h484v-126h-256v-132h27z" />
    <glyph glyph-name="uni01BD" unicode="&#x1bd;" horiz-adv-x="555" 
d="M283 337q116 0 175 -42.5t59 -122.5q0 -89 -72.5 -135.5t-211.5 -46.5q-58 0 -110.5 9.5t-84.5 24.5v123q35 -18 90 -30t99 -12q145 0 145 65q0 63 -149 63h-95v201h-84v112h454v-112h-230v-97h15z" />
    <glyph glyph-name="uni01BE" unicode="&#x1be;" horiz-adv-x="497" 
d="M271 399q0 -27 9.5 -41t35.5 -29l53 -31q46 -26 68 -60t22 -81q0 -80 -60 -123.5t-173 -43.5q-56 0 -107.5 9.5t-82.5 24.5v123q37 -20 86.5 -34t90.5 -14q54 0 77.5 13.5t23.5 40.5q0 17 -11 29t-35 26q-84 43 -110.5 83t-26.5 103v40h-95v63l97 50l43 115h95v-116h138
v-112h-138v-35z" />
    <glyph glyph-name="uni01BF" unicode="&#x1bf;" horiz-adv-x="632" 
d="M227 -240h-149v786h121l21 -71h7q52 81 155 81q60 0 107.5 -31t73 -88.5t25.5 -132.5q0 -135 -94.5 -219.5t-266.5 -103.5v-221zM334 437q-59 0 -83 -37.5t-24 -111.5v-180q95 12 152 65.5t57 132.5q0 61 -27 96t-75 35z" />
    <glyph glyph-name="uni01C0" unicode="&#x1c0;" horiz-adv-x="516" 
d="M204 760h107v-1000h-107v1000z" />
    <glyph glyph-name="uni01C1" unicode="&#x1c1;" horiz-adv-x="516" 
d="M76 760h107v-1000h-107v1000zM334 760h107v-1000h-107v1000z" />
    <glyph glyph-name="uni01C2" unicode="&#x1c2;" horiz-adv-x="516" 
d="M204 121h-154v97h154v112h-154v97h154v333h107v-333h155v-97h-155v-112h155v-97h-155v-361h-107v361z" />
    <glyph glyph-name="uni01C3" unicode="&#x1c3;" horiz-adv-x="286" 
d="M203 237h-119l-25 477h169zM57 70q0 41 22 62t64 21q41 0 63 -21.5t22 -61.5q0 -39 -22.5 -61t-62.5 -22q-41 0 -63.5 21.5t-22.5 61.5z" />
    <glyph glyph-name="uni01C4" unicode="&#x1c4;" horiz-adv-x="1309" 
d="M860 749q-9 0 -18 7l-103 75q-9 7 -13 15t-4 18q0 12 6.5 22.5t17.5 10.5q7 0 13 -6l101 -75l102 75q6 6 13 6q11 0 17.5 -10.5t6.5 -22.5q0 -10 -4 -18t-14 -15l-102 -75q-10 -7 -19 -7zM113 0q-21 0 -34 10t-13 24v663q0 14 13 24t34 10h177q63 0 114.5 -22t81 -71
t29.5 -130v-285q0 -81 -29.5 -130t-81 -71t-114.5 -22h-177zM172 94h118q56 0 87.5 31.5t31.5 97.5v285q0 66 -31.5 97.5t-87.5 31.5h-118v-543zM780 0q-17 0 -25 9t-8 22q0 18 11 37l310 569h-271q-16 0 -25.5 14t-9.5 33q0 17 8.5 32t26.5 15h373q17 0 25.5 -8.5
t8.5 -21.5q0 -17 -12 -39l-310 -568h303q17 0 26 -15t9 -32t-9 -32t-26 -15h-405z" />
    <glyph glyph-name="uni01C5" unicode="&#x1c5;" horiz-adv-x="1228" 
d="M827 584q-9 0 -18 7l-103 75q-9 7 -13 15t-4 18q0 12 6.5 22.5t17.5 10.5q7 0 13 -6l101 -75l102 75q6 6 13 6q11 0 17.5 -10.5t6.5 -22.5q0 -10 -4 -18t-14 -15l-102 -75q-10 -7 -19 -7zM113 0q-21 0 -34 10t-13 24v663q0 14 13 24t34 10h177q63 0 114.5 -22t81 -71
t29.5 -130v-285q0 -81 -29.5 -130t-81 -71t-114.5 -22h-177zM172 94h118q56 0 87.5 31.5t31.5 97.5v285q0 66 -31.5 97.5t-87.5 31.5h-118v-543zM799 0q-20 0 -29 12t-9 26q0 12 5.5 23t12.5 19l214 307h-190q-14 0 -23.5 13t-9.5 31t9 30.5t24 12.5h290q14 0 24.5 -9
t10.5 -28q0 -22 -16 -43l-215 -307h213q13 0 23 -12.5t10 -31.5q0 -17 -9 -30t-24 -13h-311z" />
    <glyph glyph-name="uni01C6" unicode="&#x1c6;" horiz-adv-x="1121" 
d="M720 584q-9 0 -18 7l-103 75q-9 7 -13 15t-4 18q0 12 6.5 22.5t17.5 10.5q7 0 13 -6l101 -75l102 75q6 6 13 6q11 0 17.5 -10.5t6.5 -22.5q0 -10 -4 -18t-14 -15l-102 -75q-10 -7 -19 -7zM213 -8q-47 0 -87 28t-64.5 73.5t-24.5 97.5v92q0 55 24.5 99.5t64.5 71t89 26.5
q48 0 81 -23.5t49 -52.5v318q0 15 16 24.5t38 9.5t36.5 -9.5t14.5 -24.5v-687q0 -13 -14.5 -24t-36.5 -11q-19 0 -33.5 11t-14.5 24v35q-15 -31 -53 -54.5t-85 -23.5zM243 85q29 0 52 16t36.5 35.5t13.5 31.5v115q0 33 -15 56t-38 35.5t-48 12.5q-28 0 -51.5 -15t-37 -39
t-13.5 -50v-92q0 -26 13.5 -51t36.5 -40t51 -15zM692 0q-20 0 -29 12t-9 26q0 12 5.5 23t12.5 19l214 307h-190q-14 0 -23.5 13t-9.5 31t9 30.5t24 12.5h290q14 0 24.5 -9t10.5 -28q0 -22 -16 -43l-215 -307h213q13 0 23 -12.5t10 -31.5q0 -17 -9 -30t-24 -13h-311z" />
    <glyph glyph-name="uni01C7" unicode="&#x1c7;" horiz-adv-x="895" 
d="M113 0q-17 0 -32 9t-15 26v662q0 18 16.5 26t36.5 8t36.5 -8t16.5 -26v-603h260q16 0 24 -14.5t8 -32.5q0 -17 -8 -32t-24 -15h-319zM807 -6q-66 0 -118 23.5t-81 66.5t-29 101q0 30 13.5 40.5t39.5 10.5q21 0 36.5 -7.5t16.5 -27.5q1 -29 13 -55t38 -42t67 -16
q57 0 88.5 31.5t31.5 97.5v420h-117q-17 0 -26 14.5t-9 33.5q0 16 8 31t27 15h175q19 0 33.5 -9t14.5 -26v-479q0 -81 -30 -130t-80 -71t-112 -22z" />
    <glyph glyph-name="uni01C8" unicode="&#x1c8;" horiz-adv-x="870" 
d="M113 0q-17 0 -32 9t-15 26v662q0 18 16.5 26t36.5 8t36.5 -8t16.5 -26v-603h260q16 0 24 -14.5t8 -32.5q0 -17 -8 -32t-24 -15h-319zM581 -225q-31 0 -42.5 14t-11.5 30q0 21 12 33.5t29 12.5q23 0 34.5 12.5t14.5 35t3 51.5v476q0 15 14.5 24.5t36.5 9.5q23 0 38.5 -9.5
t15.5 -24.5v-476q0 -55 -15.5 -98t-47.5 -67t-81 -24zM672 593q-25 0 -43 17t-18 38q0 23 18 39t43 16t42.5 -16t17.5 -39q0 -21 -17.5 -38t-42.5 -17z" />
    <glyph glyph-name="uni01C9" unicode="&#x1c9;" horiz-adv-x="609" 
d="M116 0q-23 0 -37.5 11t-14.5 24v687q0 15 14.5 24.5t37.5 9.5q22 0 37.5 -9.5t15.5 -24.5v-687q0 -13 -15.5 -24t-37.5 -11zM321 -225q-31 0 -42.5 14t-11.5 30q0 21 12 33.5t29 12.5q23 0 34.5 12.5t14.5 35t3 51.5v476q0 15 14.5 24.5t36.5 9.5q23 0 38.5 -9.5
t15.5 -24.5v-476q0 -55 -15.5 -98t-47.5 -67t-81 -24zM412 593q-25 0 -43 17t-18 38q0 23 18 39t43 16t42.5 -16t17.5 -39q0 -21 -17.5 -38t-42.5 -17z" />
    <glyph glyph-name="uni01CA" unicode="&#x1ca;" horiz-adv-x="1144" 
d="M119 0q-20 0 -36.5 9t-16.5 26v661q0 19 16.5 27t36.5 8q19 0 32.5 -5.5t24.5 -18.5t23 -36l222 -433v459q0 18 16.5 26t36.5 8t36.5 -8t16.5 -26v-662q0 -17 -16.5 -26t-36.5 -9t-36 10t-27 29l-239 455v-459q0 -17 -16.5 -26t-36.5 -9zM1055 -6q-66 0 -118 23.5
t-81 66.5t-29 101q0 30 13.5 40.5t39.5 10.5q21 0 36.5 -7.5t16.5 -27.5q1 -29 13 -55t38 -42t67 -16q57 0 88.5 31.5t31.5 97.5v420h-117q-17 0 -26 14.5t-9 33.5q0 16 8 31t27 15h175q19 0 33.5 -9t14.5 -26v-479q0 -81 -30 -130t-80 -71t-112 -22z" />
    <glyph glyph-name="uni01CB" unicode="&#x1cb;" horiz-adv-x="1118" 
d="M119 0q-20 0 -36.5 9t-16.5 26v661q0 19 16.5 27t36.5 8q19 0 32.5 -5.5t24.5 -18.5t23 -36l222 -433v459q0 18 16.5 26t36.5 8t36.5 -8t16.5 -26v-662q0 -17 -16.5 -26t-36.5 -9t-36 10t-27 29l-239 455v-459q0 -17 -16.5 -26t-36.5 -9zM829 -225q-31 0 -42.5 14
t-11.5 30q0 21 12 33.5t29 12.5q23 0 34.5 12.5t14.5 35t3 51.5v476q0 15 14.5 24.5t36.5 9.5q23 0 38.5 -9.5t15.5 -24.5v-476q0 -55 -15.5 -98t-47.5 -67t-81 -24zM920 593q-25 0 -43 17t-18 38q0 23 18 39t43 16t42.5 -16t17.5 -39q0 -21 -17.5 -38t-42.5 -17z" />
    <glyph glyph-name="uni01CC" unicode="&#x1cc;" horiz-adv-x="961" 
d="M107 0q-23 0 -37.5 11t-14.5 24v405q0 15 14.5 24.5t37.5 9.5q19 0 33 -9.5t14 -24.5v-36q15 29 49.5 52.5t84.5 23.5q47 0 86.5 -26.5t63.5 -71t24 -99.5v-248q0 -17 -16.5 -26t-36.5 -9q-18 0 -35 9t-17 26v248q0 26 -13.5 50t-36.5 39t-51 15q-24 0 -46 -12.5
t-36 -35.5t-14 -56v-248q0 -13 -15.5 -24t-37.5 -11zM673 -225q-31 0 -42.5 14t-11.5 30q0 21 12 33.5t29 12.5q23 0 34.5 12.5t14.5 35t3 51.5v476q0 15 14.5 24.5t36.5 9.5q23 0 38.5 -9.5t15.5 -24.5v-476q0 -55 -15.5 -98t-47.5 -67t-81 -24zM764 593q-25 0 -43 17
t-18 38q0 23 18 39t43 16t42.5 -16t17.5 -39q0 -21 -17.5 -38t-42.5 -17z" />
    <glyph glyph-name="uni01CD" unicode="&#x1cd;" horiz-adv-x="689" 
d="M180 762q-9 0 -18 7l-103 75q-9 7 -13 15t-4 18q0 12 6.5 22.5t17.5 10.5q7 0 13 -6l101 -75l102 75q6 6 13 6q11 0 17.5 -10.5t6.5 -22.5q0 -10 -4 -18t-14 -15l-102 -75q-10 -7 -19 -7zM79 0q-14 0 -30 6t-26 15.5t-10 22.5q0 3 1 9l199 648q6 18 25.5 27t41.5 9
q23 0 42.5 -9t25.5 -27l198 -648q2 -6 2 -9q0 -12 -10.5 -22t-26 -16t-30.5 -6q-13 0 -22.5 5t-13.5 17l-41 142h-248l-40 -142q-3 -12 -13.5 -17t-23.5 -5zM180 249h200l-100 343z" />
    <glyph glyph-name="uni01CE" unicode="&#x1ce;" horiz-adv-x="604" 
d="M143 584q-9 0 -18 7l-103 75q-9 7 -13 15t-4 18q0 12 6.5 22.5t17.5 10.5q7 0 13 -6l101 -75l102 75q6 6 13 6q11 0 17.5 -10.5t6.5 -22.5q0 -10 -4 -18t-14 -15l-102 -75q-10 -7 -19 -7zM158 -8q-55 0 -94 32.5t-39 99.5q0 57 30 88t82.5 43t121.5 12h44v18
q0 26 -9.5 50.5t-31 41t-58.5 16.5t-57 -7t-32 -15t-22 -8q-18 0 -28 17.5t-10 35.5t23.5 32.5t58.5 23t69 8.5q74 0 118 -27.5t64 -71.5t20 -95v-251q0 -14 -14.5 -24.5t-36.5 -10.5q-20 0 -34 10.5t-14 24.5v35q-26 -30 -63 -54t-88 -24zM196 72q25 0 49.5 15t41 38
t16.5 47v37h-25q-38 0 -72 -4.5t-54.5 -20t-20.5 -47.5q0 -34 18.5 -49.5t46.5 -15.5z" />
    <glyph glyph-name="uni01CF" unicode="&#x1cf;" horiz-adv-x="389" 
d="M30 762q-9 0 -18 7l-103 75q-9 7 -13 15t-4 18q0 12 6.5 22.5t17.5 10.5q7 0 13 -6l101 -75l102 75q6 6 13 6q11 0 17.5 -10.5t6.5 -22.5q0 -10 -4 -18t-14 -15l-102 -75q-10 -7 -19 -7zM119 0q-20 0 -36.5 9t-16.5 26v662q0 18 16.5 26t36.5 8t36.5 -8t16.5 -26v-662
q0 -17 -16.5 -26t-36.5 -9z" />
    <glyph glyph-name="uni01D0" unicode="&#x1d0;" horiz-adv-x="305" 
d="M-12 584q-9 0 -18 7l-103 75q-9 7 -13 15t-4 18q0 12 6.5 22.5t17.5 10.5q7 0 13 -6l101 -75l102 75q6 6 13 6q11 0 17.5 -10.5t6.5 -22.5q0 -10 -4 -18t-14 -15l-102 -75q-10 -7 -19 -7zM107 0q-23 0 -37.5 11t-14.5 24v405q0 15 14.5 24.5t37.5 9.5q22 0 37.5 -9.5
t15.5 -24.5v-405q0 -13 -15.5 -24t-37.5 -11z" />
    <glyph glyph-name="uni01D1" unicode="&#x1d1;" horiz-adv-x="795" 
d="M233 762q-9 0 -18 7l-103 75q-9 7 -13 15t-4 18q0 12 6.5 22.5t17.5 10.5q7 0 13 -6l101 -75l102 75q6 6 13 6q11 0 17.5 -10.5t6.5 -22.5q0 -10 -4 -18t-14 -15l-102 -75q-10 -7 -19 -7zM283 -6q-64 0 -114.5 22t-80 71t-29.5 130v291q0 81 29.5 130t80 71t114.5 22
q63 0 114 -22t81 -71t30 -130v-291q0 -81 -30 -130t-81 -71t-114 -22zM283 88q55 0 87 31.5t32 97.5v291q0 66 -31.5 97.5t-87.5 31.5t-87.5 -31.5t-31.5 -97.5v-291q0 -66 31.5 -97.5t87.5 -31.5z" />
    <glyph glyph-name="uni01D2" unicode="&#x1d2;" horiz-adv-x="619" 
d="M144 584q-9 0 -18 7l-103 75q-9 7 -13 15t-4 18q0 12 6.5 22.5t17.5 10.5q7 0 13 -6l101 -75l102 75q6 6 13 6q11 0 17.5 -10.5t6.5 -22.5q0 -10 -4 -18t-14 -15l-102 -75q-10 -7 -19 -7zM242 -8q-54 0 -101 28t-75.5 73.5t-28.5 97.5v92q0 53 27.5 98t75 72t103.5 27
t103 -26.5t75.5 -71t28.5 -99.5v-92q0 -51 -28.5 -97t-76 -74t-103.5 -28zM243 85q28 0 51 15t37 39.5t14 51.5v92q0 26 -14 50t-37 39t-51 15q-29 0 -51.5 -15t-36 -39t-13.5 -50v-92q0 -27 13.5 -51.5t36.5 -39.5t51 -15z" />
    <glyph glyph-name="uni01D3" unicode="&#x1d3;" horiz-adv-x="755" 
d="M213 762q-9 0 -18 7l-103 75q-9 7 -13 15t-4 18q0 12 6.5 22.5t17.5 10.5q7 0 13 -6l101 -75l102 75q6 6 13 6q11 0 17.5 -10.5t6.5 -22.5q0 -10 -4 -18t-14 -15l-102 -75q-10 -7 -19 -7zM291 -6q-64 0 -116 22t-82 71t-30 130v480q0 18 16 26t37 8q19 0 36 -8t17 -26
v-480q0 -66 32 -97.5t90 -31.5q57 0 90 31.5t33 97.5v480q0 18 16 26t37 8q19 0 36 -8t17 -26v-480q0 -81 -30.5 -130t-82.5 -71t-116 -22z" />
    <glyph glyph-name="uni01D4" unicode="&#x1d4;" horiz-adv-x="657" 
d="M163 584q-9 0 -18 7l-103 75q-9 7 -13 15t-4 18q0 12 6.5 22.5t17.5 10.5q7 0 13 -6l101 -75l102 75q6 6 13 6q11 0 17.5 -10.5t6.5 -22.5q0 -10 -4 -18t-14 -15l-102 -75q-10 -7 -19 -7zM257 -8q-56 0 -103.5 27.5t-75.5 73t-28 96.5v250q0 13 15.5 24t37.5 11
q21 0 36.5 -11t15.5 -24v-250q0 -26 13.5 -50t37 -39t51.5 -15t51 15t36.5 39t13.5 50v251q0 14 16.5 24t36.5 10q23 0 37.5 -10t14.5 -24v-251q0 -53 -28 -98t-75 -72t-103 -27z" />
    <glyph glyph-name="uni01D5" unicode="&#x1d5;" horiz-adv-x="755" 
d="M213 1020h331v-93h-331v93zM216 824q0 31 17 46t46 15q28 0 46 -15t18 -46q0 -29 -18 -44.5t-46 -15.5q-29 0 -46 15.5t-17 44.5zM413 824q0 31 17 46t46 15q28 0 46 -15t18 -46q0 -29 -18 -44.5t-46 -15.5q-29 0 -46 15.5t-17 44.5zM291 -6q-64 0 -116 22t-82 71
t-30 130v480q0 18 16 26t37 8q19 0 36 -8t17 -26v-480q0 -66 32 -97.5t90 -31.5q57 0 90 31.5t33 97.5v480q0 18 16 26t37 8q19 0 36 -8t17 -26v-480q0 -81 -30.5 -130t-82.5 -71t-116 -22z" />
    <glyph glyph-name="uni01D6" unicode="&#x1d6;" horiz-adv-x="657" 
d="M163 855h331v-93h-331v93zM166 659q0 31 17 46t46 15q28 0 46 -15t18 -46q0 -29 -18 -44.5t-46 -15.5q-29 0 -46 15.5t-17 44.5zM363 659q0 31 17 46t46 15q28 0 46 -15t18 -46q0 -29 -18 -44.5t-46 -15.5q-29 0 -46 15.5t-17 44.5zM257 -8q-56 0 -103.5 27.5t-75.5 73
t-28 96.5v250q0 13 15.5 24t37.5 11q21 0 36.5 -11t15.5 -24v-250q0 -26 13.5 -50t37 -39t51.5 -15t51 15t36.5 39t13.5 50v251q0 14 16.5 24t36.5 10q23 0 37.5 -10t14.5 -24v-251q0 -53 -28 -98t-75 -72t-103 -27z" />
    <glyph glyph-name="uni01D7" unicode="&#x1d7;" horiz-adv-x="755" 
d="M313 901v13q52 59 92 132h162v-10q-24 -28 -72 -70t-82 -65h-100zM216 824q0 31 17 46t46 15q28 0 46 -15t18 -46q0 -29 -18 -44.5t-46 -15.5q-29 0 -46 15.5t-17 44.5zM413 824q0 31 17 46t46 15q28 0 46 -15t18 -46q0 -29 -18 -44.5t-46 -15.5q-29 0 -46 15.5t-17 44.5
zM291 -6q-64 0 -116 22t-82 71t-30 130v480q0 18 16 26t37 8q19 0 36 -8t17 -26v-480q0 -66 32 -97.5t90 -31.5q57 0 90 31.5t33 97.5v480q0 18 16 26t37 8q19 0 36 -8t17 -26v-480q0 -81 -30.5 -130t-82.5 -71t-116 -22z" />
    <glyph glyph-name="uni01D8" unicode="&#x1d8;" horiz-adv-x="657" 
d="M262 736v13q52 59 92 132h162v-10q-24 -28 -72 -70t-82 -65h-100zM165 659q0 31 17 46t46 15q28 0 46 -15t18 -46q0 -29 -18 -44.5t-46 -15.5q-29 0 -46 15.5t-17 44.5zM362 659q0 31 17 46t46 15q28 0 46 -15t18 -46q0 -29 -18 -44.5t-46 -15.5q-29 0 -46 15.5t-17 44.5
zM257 -8q-56 0 -103.5 27.5t-75.5 73t-28 96.5v250q0 13 15.5 24t37.5 11q21 0 36.5 -11t15.5 -24v-250q0 -26 13.5 -50t37 -39t51.5 -15t51 15t36.5 39t13.5 50v251q0 14 16.5 24t36.5 10q23 0 37.5 -10t14.5 -24v-251q0 -53 -28 -98t-75 -72t-103 -27z" />
    <glyph glyph-name="uni01D9" unicode="&#x1d9;" horiz-adv-x="755" 
d="M216 824q0 31 17 46t46 15q28 0 46 -15t18 -46q0 -29 -18 -44.5t-46 -15.5q-29 0 -46 15.5t-17 44.5zM413 824q0 31 17 46t46 15q28 0 46 -15t18 -46q0 -29 -18 -44.5t-46 -15.5q-29 0 -46 15.5t-17 44.5zM196 1047h69q71 -36 113 -74q38 34 113 74h69v-13
q-62 -62 -82 -85t-33 -42h-134q-23 34 -54.5 66t-60.5 61v13zM291 -6q-64 0 -116 22t-82 71t-30 130v480q0 18 16 26t37 8q19 0 36 -8t17 -26v-480q0 -66 32 -97.5t90 -31.5q57 0 90 31.5t33 97.5v480q0 18 16 26t37 8q19 0 36 -8t17 -26v-480q0 -81 -30.5 -130t-82.5 -71
t-116 -22z" />
    <glyph glyph-name="uni01DA" unicode="&#x1da;" horiz-adv-x="657" 
d="M166 659q0 31 17 46t46 15q28 0 46 -15t18 -46q0 -29 -18 -44.5t-46 -15.5q-29 0 -46 15.5t-17 44.5zM363 659q0 31 17 46t46 15q28 0 46 -15t18 -46q0 -29 -18 -44.5t-46 -15.5q-29 0 -46 15.5t-17 44.5zM146 882h69q71 -36 113 -74q38 34 113 74h69v-13
q-62 -62 -82 -85t-33 -42h-134q-23 34 -54.5 66t-60.5 61v13zM257 -8q-56 0 -103.5 27.5t-75.5 73t-28 96.5v250q0 13 15.5 24t37.5 11q21 0 36.5 -11t15.5 -24v-250q0 -26 13.5 -50t37 -39t51.5 -15t51 15t36.5 39t13.5 50v251q0 14 16.5 24t36.5 10q23 0 37.5 -10
t14.5 -24v-251q0 -53 -28 -98t-75 -72t-103 -27z" />
    <glyph glyph-name="uni01DB" unicode="&#x1db;" horiz-adv-x="755" 
d="M343 901q-34 23 -81.5 64.5t-72.5 70.5v10h162q40 -73 92 -132v-13h-100zM216 824q0 31 17 46t46 15q28 0 46 -15t18 -46q0 -29 -18 -44.5t-46 -15.5q-29 0 -46 15.5t-17 44.5zM413 824q0 31 17 46t46 15q28 0 46 -15t18 -46q0 -29 -18 -44.5t-46 -15.5q-29 0 -46 15.5
t-17 44.5zM291 -6q-64 0 -116 22t-82 71t-30 130v480q0 18 16 26t37 8q19 0 36 -8t17 -26v-480q0 -66 32 -97.5t90 -31.5q57 0 90 31.5t33 97.5v480q0 18 16 26t37 8q19 0 36 -8t17 -26v-480q0 -81 -30.5 -130t-82.5 -71t-116 -22z" />
    <glyph glyph-name="uni01DC" unicode="&#x1dc;" horiz-adv-x="657" 
d="M292 736q-34 23 -81.5 64.5t-72.5 70.5v10h162q40 -73 92 -132v-13h-100zM165 659q0 31 17 46t46 15q28 0 46 -15t18 -46q0 -29 -18 -44.5t-46 -15.5q-29 0 -46 15.5t-17 44.5zM362 659q0 31 17 46t46 15q28 0 46 -15t18 -46q0 -29 -18 -44.5t-46 -15.5q-29 0 -46 15.5
t-17 44.5zM257 -8q-56 0 -103.5 27.5t-75.5 73t-28 96.5v250q0 13 15.5 24t37.5 11q21 0 36.5 -11t15.5 -24v-250q0 -26 13.5 -50t37 -39t51.5 -15t51 15t36.5 39t13.5 50v251q0 14 16.5 24t36.5 10q23 0 37.5 -10t14.5 -24v-251q0 -53 -28 -98t-75 -72t-103 -27z" />
    <glyph glyph-name="uni01DD" unicode="&#x1dd;" horiz-adv-x="590" 
d="M287 96q43 0 72 27.5t33 87.5h-209q1 -55 28 -85t76 -30zM266 556q133 0 206.5 -73.5t73.5 -205.5q0 -137 -68 -212t-190 -75q-115 0 -180 65.5t-65 182.5v72h352q-2 63 -37.5 99t-98.5 36q-46 0 -90 -9.5t-95 -33.5v115q42 21 88.5 30t103.5 9z" />
    <glyph glyph-name="uni01DE" unicode="&#x1de;" horiz-adv-x="689" 
d="M180 1020h331v-93h-331v93zM183 824q0 31 17 46t46 15q28 0 46 -15t18 -46q0 -29 -18 -44.5t-46 -15.5q-29 0 -46 15.5t-17 44.5zM380 824q0 31 17 46t46 15q28 0 46 -15t18 -46q0 -29 -18 -44.5t-46 -15.5q-29 0 -46 15.5t-17 44.5zM79 0q-14 0 -30 6t-26 15.5t-10 22.5
q0 3 1 9l199 648q6 18 25.5 27t41.5 9q23 0 42.5 -9t25.5 -27l198 -648q2 -6 2 -9q0 -12 -10.5 -22t-26 -16t-30.5 -6q-13 0 -22.5 5t-13.5 17l-41 142h-248l-40 -142q-3 -12 -13.5 -17t-23.5 -5zM180 249h200l-100 343z" />
    <glyph glyph-name="uni01DF" unicode="&#x1df;" horiz-adv-x="604" 
d="M143 855h331v-93h-331v93zM146 659q0 31 17 46t46 15q28 0 46 -15t18 -46q0 -29 -18 -44.5t-46 -15.5q-29 0 -46 15.5t-17 44.5zM343 659q0 31 17 46t46 15q28 0 46 -15t18 -46q0 -29 -18 -44.5t-46 -15.5q-29 0 -46 15.5t-17 44.5zM158 -8q-55 0 -94 32.5t-39 99.5
q0 57 30 88t82.5 43t121.5 12h44v18q0 26 -9.5 50.5t-31 41t-58.5 16.5t-57 -7t-32 -15t-22 -8q-18 0 -28 17.5t-10 35.5t23.5 32.5t58.5 23t69 8.5q74 0 118 -27.5t64 -71.5t20 -95v-251q0 -14 -14.5 -24.5t-36.5 -10.5q-20 0 -34 10.5t-14 24.5v35q-26 -30 -63 -54
t-88 -24zM196 72q25 0 49.5 15t41 38t16.5 47v37h-25q-38 0 -72 -4.5t-54.5 -20t-20.5 -47.5q0 -34 18.5 -49.5t46.5 -15.5z" />
    <glyph glyph-name="uni01E0" unicode="&#x1e0;" horiz-adv-x="689" 
d="M180 1020h331v-93h-331v93zM282 824q0 31 17 46t46 15q28 0 46 -15t18 -46q0 -29 -18 -44.5t-46 -15.5q-29 0 -46 15.5t-17 44.5zM79 0q-14 0 -30 6t-26 15.5t-10 22.5q0 3 1 9l199 648q6 18 25.5 27t41.5 9q23 0 42.5 -9t25.5 -27l198 -648q2 -6 2 -9q0 -12 -10.5 -22
t-26 -16t-30.5 -6q-13 0 -22.5 5t-13.5 17l-41 142h-248l-40 -142q-3 -12 -13.5 -17t-23.5 -5zM180 249h200l-100 343z" />
    <glyph glyph-name="uni01E1" unicode="&#x1e1;" horiz-adv-x="604" 
d="M143 855h331v-93h-331v93zM245 659q0 31 17 46t46 15q28 0 46 -15t18 -46q0 -29 -18 -44.5t-46 -15.5q-29 0 -46 15.5t-17 44.5zM158 -8q-55 0 -94 32.5t-39 99.5q0 57 30 88t82.5 43t121.5 12h44v18q0 26 -9.5 50.5t-31 41t-58.5 16.5t-57 -7t-32 -15t-22 -8
q-18 0 -28 17.5t-10 35.5t23.5 32.5t58.5 23t69 8.5q74 0 118 -27.5t64 -71.5t20 -95v-251q0 -14 -14.5 -24.5t-36.5 -10.5q-20 0 -34 10.5t-14 24.5v35q-26 -30 -63 -54t-88 -24zM196 72q25 0 49.5 15t41 38t16.5 47v37h-25q-38 0 -72 -4.5t-54.5 -20t-20.5 -47.5
q0 -34 18.5 -49.5t46.5 -15.5z" />
    <glyph glyph-name="uni01E2" unicode="&#x1e2;" horiz-adv-x="952" 
d="M375 874h331v-103h-331v103zM110 0q-26 0 -36.5 11.5t-10.5 28.5v468q0 81 29 130t79 71t111 22h424q18 0 26 -15t8 -31q0 -19 -9 -33.5t-25 -14.5h-231v-229h130q16 0 25 -13t9 -30q0 -14 -8 -27.5t-26 -13.5h-130v-230h231q16 0 25 -14t9 -34q0 -16 -8 -31t-26 -15
h-290q-17 0 -32 9t-15 26v289h-206v-284q0 -17 -9 -28.5t-44 -11.5zM163 408h206v229h-87q-56 0 -87.5 -31.5t-31.5 -97.5v-100z" />
    <glyph glyph-name="uni01E3" unicode="&#x1e3;" horiz-adv-x="916" 
d="M293 709h331v-103h-331v103zM173 -8q-39 0 -73 14t-54.5 43.5t-20.5 74.5q0 57 29.5 88t81.5 43t121 12h45v18q0 26 -9.5 51t-31.5 41.5t-59 16.5q-36 0 -56.5 -7.5t-32.5 -15.5t-22 -8q-18 0 -28 18t-10 36t24 32.5t59 23t69 8.5q57 0 95 -23.5t60 -60.5q26 37 65 60
t85 23q37 0 72.5 -12t64.5 -36.5t46 -60t17 -82.5q0 -37 -11 -54t-31.5 -21.5t-48.5 -4.5h-211v-23q0 -50 36 -79.5t92 -29.5q36 0 58 10t37 19t28 9t21.5 -7.5t14 -18.5t5.5 -21q0 -17 -23.5 -34.5t-62 -29.5t-85.5 -12q-57 0 -105 25.5t-77 72.5q-34 -48 -81 -73t-93 -25z
M195 72q27 0 51 15.5t40 38.5t16 46v37h-26q-38 0 -71.5 -4.5t-54 -20t-20.5 -48.5q0 -32 18.5 -48t46.5 -16zM408 274h166q23 0 30 6t7 23q0 27 -13.5 49.5t-36.5 35t-52 12.5q-27 0 -50 -11.5t-37 -33t-14 -48.5v-33z" />
    <glyph glyph-name="uni01E4" unicode="&#x1e4;" horiz-adv-x="724" 
d="M361 421h283v-164h65v-97h-65v-129q-69 -22 -129.5 -31.5t-124.5 -9.5q-162 0 -247 95t-85 273q0 173 99 269.5t274 96.5q110 0 212 -44l-50 -121q-78 39 -163 39q-98 0 -157 -66t-59 -177q0 -249 191 -249q48 0 91 10v44h-125v97h125v48h-135v116z" />
    <glyph glyph-name="uni01E5" unicode="&#x1e5;" horiz-adv-x="632" 
d="M543 -91q-44 -149 -261 -149q-120 0 -204 32v114q101 -42 213 -42q35 0 61.5 11t36.5 34h-146v77h163v55l4 67h-4q-53 -81 -155 -81q-99 0 -152.5 68t-53.5 191q0 127 55.5 198.5t154.5 71.5q101 0 158 -80h4l12 70h126v-560h60v-77h-72zM304 139q61 0 86.5 30.5
t25.5 100.5v12q0 81 -27 117t-87 36q-52 0 -78.5 -36t-26.5 -113q0 -76 26 -111.5t81 -35.5z" />
    <glyph glyph-name="Gcaron" unicode="&#x1e6;" horiz-adv-x="724" 
d="M220 749q-9 0 -18 7l-103 75q-9 7 -13 15t-4 18q0 12 6.5 22.5t17.5 10.5q7 0 13 -6l101 -75l102 75q6 6 13 6q11 0 17.5 -10.5t6.5 -22.5q0 -10 -4 -18t-14 -15l-102 -75q-10 -7 -19 -7zM283 -6q-64 0 -114.5 22t-80 71t-29.5 130v291q0 81 29.5 130t80 71t111.5 22
q68 0 119 -23t80 -64t29 -98q0 -30 -13.5 -40.5t-39.5 -10.5q-21 0 -36.5 7.5t-16.5 27.5q-3 29 -14 53.5t-36 39t-69 14.5q-56 0 -87.5 -31.5t-31.5 -97.5v-291q0 -66 31.5 -97.5t87.5 -31.5q55 0 87 31.5t32 97.5v82h-101q-16 0 -25 13t-9 30q0 15 9 28.5t25 13.5h172
q17 0 26 -10.5t9 -25.5v-131q0 -81 -30 -130t-81 -71t-114 -22z" />
    <glyph glyph-name="gcaron" unicode="&#x1e7;" horiz-adv-x="632" 
d="M121 584q-9 0 -18 7l-103 75q-9 7 -13 15t-4 18q0 12 6.5 22.5t17.5 10.5q7 0 13 -6l101 -75l102 75q6 6 13 6q11 0 17.5 -10.5t6.5 -22.5q0 -10 -4 -18t-14 -15l-102 -75q-10 -7 -19 -7zM234 -225q-58 0 -107 16.5t-78 47.5t-29 74q0 40 23 66.5t54 40.5q-20 9 -33 24
t-13 42q0 28 14 45t36 31q-28 22 -43.5 54.5t-15.5 71.5v28q0 48 23 85t65.5 58t97.5 21q34 0 63.5 -9t52.5 -25q16 37 32.5 52t31.5 15q21 0 32 -12t11 -24q0 -8 -4.5 -14.5t-12.5 -10.5q-10 -5 -23.5 -13.5t-26.5 -26.5q17 -19 25 -44t8 -52v-28q0 -47 -24 -85t-67 -59.5
t-98 -21.5q-39 0 -69 12q-8 -5 -13.5 -11.5t-5.5 -16.5q0 -18 22 -26t56.5 -12t73.5 -10t73.5 -19.5t56.5 -40t22 -72.5q0 -52 -29 -85.5t-76.5 -49.5t-104.5 -16zM232 -155q49 0 79.5 21.5t30.5 56.5q0 25 -15 39t-39 21t-50.5 10t-50.5 6q-28 -10 -47.5 -28.5t-19.5 -46.5
q0 -37 31.5 -58t80.5 -21zM230 189q40 0 62.5 28t22.5 71v28q0 41 -22.5 69t-63.5 28t-63 -28t-22 -69v-27q0 -42 22 -71t64 -29z" />
    <glyph glyph-name="uni01E8" unicode="&#x1e8;" horiz-adv-x="664" 
d="M183 749q-9 0 -18 7l-103 75q-9 7 -13 15t-4 18q0 12 6.5 22.5t17.5 10.5q7 0 13 -6l101 -75l102 75q6 6 13 6q11 0 17.5 -10.5t6.5 -22.5q0 -10 -4 -18t-14 -15l-102 -75q-10 -7 -19 -7zM119 0q-20 0 -36.5 9t-16.5 26v662q0 18 16.5 26t36.5 8t36.5 -8t16.5 -26v-304
l244 323q11 15 30 15q13 0 27.5 -8t24 -20.5t9.5 -26.5q0 -4 -2 -10t-6 -11l-192 -240l228 -347q6 -9 6 -19q0 -13 -9 -25t-23.5 -19.5t-29.5 -7.5q-11 0 -21 4.5t-17 15.5l-204 309l-65 -82v-209q0 -17 -16.5 -26t-36.5 -9z" />
    <glyph glyph-name="uni01E9" unicode="&#x1e9;" horiz-adv-x="620" 
d="M172 769q-9 0 -18 7l-103 75q-9 7 -13 15t-4 18q0 12 6.5 22.5t17.5 10.5q7 0 13 -6l101 -75l102 75q6 6 13 6q11 0 17.5 -10.5t6.5 -22.5q0 -10 -4 -18t-14 -15l-102 -75q-10 -7 -19 -7zM107 0q-22 0 -36.5 11t-14.5 24v687q0 15 14.5 24.5t36.5 9.5q23 0 38.5 -9.5
t15.5 -24.5v-445l209 192q9 9 22 9q12 0 23.5 -7.5t19.5 -19t8 -23.5q0 -6 -2 -11.5t-7 -10.5l-129 -115l157 -226q6 -10 6 -18q0 -13 -9.5 -25t-23 -20t-26.5 -8q-18 0 -28 15l-147 217l-73 -66v-125q0 -13 -15.5 -24t-38.5 -11z" />
    <glyph glyph-name="uni01EA" unicode="&#x1ea;" horiz-adv-x="795" 
d="M406 -208q-33 0 -57.5 9.5t-38 29t-13.5 45.5q0 42 24 81t65 67l42 -18q-33 -23 -54.5 -55.5t-21.5 -65.5q0 -23 15 -34.5t45 -11.5q11 0 16.5 -7.5t5.5 -17.5q0 -9 -5.5 -15.5t-22.5 -6.5zM283 -6q-64 0 -114.5 22t-80 71t-29.5 130v291q0 81 29.5 130t80 71t114.5 22
q63 0 114 -22t81 -71t30 -130v-291q0 -81 -30 -130t-81 -71t-114 -22zM283 88q55 0 87 31.5t32 97.5v291q0 66 -31.5 97.5t-87.5 31.5t-87.5 -31.5t-31.5 -97.5v-291q0 -66 31.5 -97.5t87.5 -31.5z" />
    <glyph glyph-name="uni01EB" unicode="&#x1eb;" horiz-adv-x="619" 
d="M307 -208q-33 0 -57.5 9.5t-38 29t-13.5 45.5q0 42 24 81t65 67l42 -18q-33 -23 -54.5 -55.5t-21.5 -65.5q0 -23 15 -34.5t45 -11.5q11 0 16.5 -7.5t5.5 -17.5q0 -9 -5.5 -15.5t-22.5 -6.5zM242 -8q-54 0 -101 28t-75.5 73.5t-28.5 97.5v92q0 53 27.5 98t75 72t103.5 27
t103 -26.5t75.5 -71t28.5 -99.5v-92q0 -51 -28.5 -97t-76 -74t-103.5 -28zM243 85q28 0 51 15t37 39.5t14 51.5v92q0 26 -14 50t-37 39t-51 15q-29 0 -51.5 -15t-36 -39t-13.5 -50v-92q0 -27 13.5 -51.5t36.5 -39.5t51 -15z" />
    <glyph glyph-name="uni01EC" unicode="&#x1ec;" horiz-adv-x="795" 
d="M406 -208q-33 0 -57.5 9.5t-38 29t-13.5 45.5q0 42 24 81t65 67l42 -18q-33 -23 -54.5 -55.5t-21.5 -65.5q0 -23 15 -34.5t45 -11.5q11 0 16.5 -7.5t5.5 -17.5q0 -9 -5.5 -15.5t-22.5 -6.5zM233 887h331v-103h-331v103zM283 -6q-64 0 -114.5 22t-80 71t-29.5 130v291
q0 81 29.5 130t80 71t114.5 22q63 0 114 -22t81 -71t30 -130v-291q0 -81 -30 -130t-81 -71t-114 -22zM283 88q55 0 87 31.5t32 97.5v291q0 66 -31.5 97.5t-87.5 31.5t-87.5 -31.5t-31.5 -97.5v-291q0 -66 31.5 -97.5t87.5 -31.5z" />
    <glyph glyph-name="uni01ED" unicode="&#x1ed;" horiz-adv-x="619" 
d="M307 -208q-33 0 -57.5 9.5t-38 29t-13.5 45.5q0 42 24 81t65 67l42 -18q-33 -23 -54.5 -55.5t-21.5 -65.5q0 -23 15 -34.5t45 -11.5q11 0 16.5 -7.5t5.5 -17.5q0 -9 -5.5 -15.5t-22.5 -6.5zM144 709h331v-103h-331v103zM242 -8q-54 0 -101 28t-75.5 73.5t-28.5 97.5v92
q0 53 27.5 98t75 72t103.5 27t103 -26.5t75.5 -71t28.5 -99.5v-92q0 -51 -28.5 -97t-76 -74t-103.5 -28zM243 85q28 0 51 15t37 39.5t14 51.5v92q0 26 -14 50t-37 39t-51 15q-29 0 -51.5 -15t-36 -39t-13.5 -50v-92q0 -27 13.5 -51.5t36.5 -39.5t51 -15z" />
    <glyph glyph-name="uni01EE" unicode="&#x1ee;" horiz-adv-x="590" 
d="M138 419l176 170h-262v125h468v-97l-211 -201q118 -5 180.5 -58.5t62.5 -149.5q0 -102 -79.5 -160t-224.5 -58q-126 0 -220 39v128q45 -21 102.5 -34t108.5 -13q82 0 122 25.5t40 81.5q0 50 -51 73t-152 23h-60v106zM117 748q-9 0 -18 7l-103 75q-9 7 -13 15t-4 18
q0 12 6.5 22.5t17.5 10.5q7 0 13 -6l101 -75l102 75q6 6 13 6q11 0 17.5 -10.5t6.5 -22.5q0 -10 -4 -18t-14 -15l-102 -75q-10 -7 -19 -7z" />
    <glyph glyph-name="uni01EF" unicode="&#x1ef;" horiz-adv-x="581" 
d="M138 245l198 187h-288v114h472v-97l-216 -202q116 -13 177 -75t61 -171q0 -74 -35 -128.5t-102 -83.5t-161 -29q-123 0 -216 39v128q45 -22 100.5 -34.5t104.5 -12.5q77 0 117.5 33t40.5 95q0 67 -49.5 99t-145.5 32h-58v106zM114 584q-9 0 -18 7l-103 75q-9 7 -13 15
t-4 18q0 12 6.5 22.5t17.5 10.5q7 0 13 -6l101 -75l102 75q6 6 13 6q11 0 17.5 -10.5t6.5 -22.5q0 -10 -4 -18t-14 -15l-102 -75q-10 -7 -19 -7z" />
    <glyph glyph-name="uni01F0" unicode="&#x1f0;" horiz-adv-x="305" 
d="M-11 584q-9 0 -18 7l-103 75q-9 7 -13 15t-4 18q0 12 6.5 22.5t17.5 10.5q7 0 13 -6l101 -75l102 75q6 6 13 6q11 0 17.5 -10.5t6.5 -22.5q0 -10 -4 -18t-14 -15l-102 -75q-10 -7 -19 -7zM16 -225q-31 0 -42.5 14t-11.5 30q0 21 12 33.5t29 12.5q23 0 34.5 12.5t14.5 35
t3 51.5v476q0 15 14.5 24.5t36.5 9.5q23 0 38.5 -9.5t15.5 -24.5v-476q0 -55 -15.5 -98t-47.5 -67t-81 -24z" />
    <glyph glyph-name="uni01F1" unicode="&#x1f1;" horiz-adv-x="1309" 
d="M113 0q-21 0 -34 10t-13 24v663q0 14 13 24t34 10h177q63 0 114.5 -22t81 -71t29.5 -130v-285q0 -81 -29.5 -130t-81 -71t-114.5 -22h-177zM172 94h118q56 0 87.5 31.5t31.5 97.5v285q0 66 -31.5 97.5t-87.5 31.5h-118v-543zM780 0q-17 0 -25 9t-8 22q0 18 11 37l310 569
h-271q-16 0 -25.5 14t-9.5 33q0 17 8.5 32t26.5 15h373q17 0 25.5 -8.5t8.5 -21.5q0 -17 -12 -39l-310 -568h303q17 0 26 -15t9 -32t-9 -32t-26 -15h-405z" />
    <glyph glyph-name="uni01F2" unicode="&#x1f2;" horiz-adv-x="1228" 
d="M113 0q-21 0 -34 10t-13 24v663q0 14 13 24t34 10h177q63 0 114.5 -22t81 -71t29.5 -130v-285q0 -81 -29.5 -130t-81 -71t-114.5 -22h-177zM172 94h118q56 0 87.5 31.5t31.5 97.5v285q0 66 -31.5 97.5t-87.5 31.5h-118v-543zM799 0q-20 0 -29 12t-9 26q0 12 5.5 23
t12.5 19l214 307h-190q-14 0 -23.5 13t-9.5 31t9 30.5t24 12.5h290q14 0 24.5 -9t10.5 -28q0 -22 -16 -43l-215 -307h213q13 0 23 -12.5t10 -31.5q0 -17 -9 -30t-24 -13h-311z" />
    <glyph glyph-name="uni01F3" unicode="&#x1f3;" horiz-adv-x="1121" 
d="M213 -8q-47 0 -87 28t-64.5 73.5t-24.5 97.5v92q0 55 24.5 99.5t64.5 71t89 26.5q48 0 81 -23.5t49 -52.5v318q0 15 16 24.5t38 9.5t36.5 -9.5t14.5 -24.5v-687q0 -13 -14.5 -24t-36.5 -11q-19 0 -33.5 11t-14.5 24v35q-15 -31 -53 -54.5t-85 -23.5zM243 85q29 0 52 16
t36.5 35.5t13.5 31.5v115q0 33 -15 56t-38 35.5t-48 12.5q-28 0 -51.5 -15t-37 -39t-13.5 -50v-92q0 -26 13.5 -51t36.5 -40t51 -15zM692 0q-20 0 -29 12t-9 26q0 12 5.5 23t12.5 19l214 307h-190q-14 0 -23.5 13t-9.5 31t9 30.5t24 12.5h290q14 0 24.5 -9t10.5 -28
q0 -22 -16 -43l-215 -307h213q13 0 23 -12.5t10 -31.5q0 -17 -9 -30t-24 -13h-311z" />
    <glyph glyph-name="uni01F4" unicode="&#x1f4;" horiz-adv-x="724" 
d="M283 -6q-64 0 -114.5 22t-80 71t-29.5 130v291q0 81 29.5 130t80 71t111.5 22q68 0 119 -23t80 -64t29 -98q0 -30 -13.5 -40.5t-39.5 -10.5q-21 0 -36.5 7.5t-16.5 27.5q-3 29 -14 53.5t-36 39t-69 14.5q-56 0 -87.5 -31.5t-31.5 -97.5v-291q0 -66 31.5 -97.5t87.5 -31.5
q55 0 87 31.5t32 97.5v82h-101q-16 0 -25 13t-9 30q0 15 9 28.5t25 13.5h172q17 0 26 -10.5t9 -25.5v-131q0 -81 -30 -130t-81 -71t-114 -22zM185 742q-14 0 -24.5 13.5t-10.5 27.5q0 18 15 26l124 63q6 2 11 2q15 0 24.5 -13.5t9.5 -27.5q0 -19 -16 -27l-121 -61l-6 -2
t-6 -1z" />
    <glyph glyph-name="uni01F5" unicode="&#x1f5;" horiz-adv-x="632" 
d="M234 -225q-58 0 -107 16.5t-78 47.5t-29 74q0 40 23 66.5t54 40.5q-20 9 -33 24t-13 42q0 28 14 45t36 31q-28 22 -43.5 54.5t-15.5 71.5v28q0 48 23 85t65.5 58t97.5 21q34 0 63.5 -9t52.5 -25q16 37 32.5 52t31.5 15q21 0 32 -12t11 -24q0 -8 -4.5 -14.5t-12.5 -10.5
q-10 -5 -23.5 -13.5t-26.5 -26.5q17 -19 25 -44t8 -52v-28q0 -47 -24 -85t-67 -59.5t-98 -21.5q-39 0 -69 12q-8 -5 -13.5 -11.5t-5.5 -16.5q0 -18 22 -26t56.5 -12t73.5 -10t73.5 -19.5t56.5 -40t22 -72.5q0 -52 -29 -85.5t-76.5 -49.5t-104.5 -16zM232 -155
q49 0 79.5 21.5t30.5 56.5q0 25 -15 39t-39 21t-50.5 10t-50.5 6q-28 -10 -47.5 -28.5t-19.5 -46.5q0 -37 31.5 -58t80.5 -21zM230 189q40 0 62.5 28t22.5 71v28q0 41 -22.5 69t-63.5 28t-63 -28t-22 -69v-27q0 -42 22 -71t64 -29zM64 577q-14 0 -24.5 13.5t-10.5 27.5
q0 18 15 26l124 63q6 2 11 2q15 0 24.5 -13.5t9.5 -27.5q0 -19 -16 -27l-121 -61l-6 -2t-6 -1z" />
    <glyph glyph-name="uni01F6" unicode="&#x1f6;" horiz-adv-x="1047" 
d="M627 234q0 -64 21 -93t71 -29t71.5 30.5t21.5 102.5v301h151v-303q0 -253 -244 -253q-126 0 -184.5 55.5t-58.5 174.5v88h-235v-308h-151v714h151v-280h235v280h151v-480z" />
    <glyph glyph-name="uni01F7" unicode="&#x1f7;" horiz-adv-x="675" 
d="M241 -240h-151v954h115l24 -92h4q32 48 82.5 75.5t103.5 27.5q95 0 151 -70t56 -193q0 -103 -45 -193.5t-132 -158.5t-208 -106v-244zM375 599q-62 0 -98 -55t-36 -153v-246q104 42 168 129.5t64 186.5q0 67 -25.5 102.5t-72.5 35.5z" />
    <glyph glyph-name="uni01F8" unicode="&#x1f8;" horiz-adv-x="812" 
d="M119 0q-20 0 -36.5 9t-16.5 26v661q0 19 16.5 27t36.5 8q19 0 32.5 -5.5t24.5 -18.5t23 -36l222 -433v459q0 18 16.5 26t36.5 8t36.5 -8t16.5 -26v-662q0 -17 -16.5 -26t-36.5 -9t-36 10t-27 29l-239 455v-459q0 -17 -16.5 -26t-36.5 -9zM211 742q-4 0 -7 1l-6 2l-121 61
q-16 8 -16 27q0 14 9.5 27.5t24.5 13.5q5 0 11 -2l124 -63q15 -8 15 -26q0 -14 -9.5 -27.5t-24.5 -13.5z" />
    <glyph glyph-name="uni01F9" unicode="&#x1f9;" horiz-adv-x="657" 
d="M107 0q-23 0 -37.5 11t-14.5 24v405q0 15 14.5 24.5t37.5 9.5q19 0 33 -9.5t14 -24.5v-36q15 29 49.5 52.5t84.5 23.5q47 0 86.5 -26.5t63.5 -71t24 -99.5v-248q0 -17 -16.5 -26t-36.5 -9q-18 0 -35 9t-17 26v248q0 26 -13.5 50t-36.5 39t-51 15q-24 0 -46 -12.5
t-36 -35.5t-14 -56v-248q0 -13 -15.5 -24t-37.5 -11zM133 577q-4 0 -7 1l-6 2l-121 61q-16 8 -16 27q0 14 9.5 27.5t24.5 13.5q5 0 11 -2l124 -63q15 -8 15 -26q0 -14 -9.5 -27.5t-24.5 -13.5z" />
    <glyph glyph-name="Aringacute" unicode="&#x1fa;" horiz-adv-x="689" 
d="M468 714q0 -42 -23 -72l245 -642h-162l-52 161h-261l-53 -161h-162l244 642q-21 28 -21 71q0 54 33.5 85t87.5 31q53 0 88.5 -31.5t35.5 -83.5zM444 288l-50 141q-42 112 -49 146q-9 -35 -42 -130l-55 -157h196zM285 856v8q22 21 48 50t37 44h167v-6q-11 -13 -55.5 -41
t-97.5 -55h-99zM391 713q0 22 -13 34.5t-34 12.5t-34 -12.5t-13 -34.5q0 -45 42 -47h9q19 1 31 13.5t12 33.5z" />
    <glyph glyph-name="aringacute" unicode="&#x1fb;" horiz-adv-x="604" 
d="M230 856v8q22 21 48 50t37 44h167v-6q-10 -12 -50 -37.5t-103 -58.5h-99zM425 0l-29 74h-4q-38 -47 -77.5 -65.5t-103.5 -18.5q-79 0 -124 45t-45 128q0 87 61 128.5t183 45.5l95 3v24q0 83 -85 83q-65 0 -154 -40l-49 101q94 49 209 49q110 0 168.5 -48t58.5 -145v-364
h-104zM381 253l-58 -2q-65 -2 -96.5 -23.5t-31.5 -65.5q0 -63 72 -63q52 0 83 30t31 79v45zM430 702q0 -53 -34.5 -85t-89.5 -32t-88 31t-33 85q0 53 33 84.5t88 31.5q54 0 89 -32.5t35 -82.5zM353 701q0 22 -13 34.5t-34 12.5t-34 -12.5t-13 -34.5t12 -34.5t35 -12.5
q21 0 34 12.5t13 34.5z" />
    <glyph glyph-name="AEacute" unicode="&#x1fc;" horiz-adv-x="760" 
d="M377 824q-14 0 -24.5 13.5t-10.5 27.5q0 18 15 26l124 63q6 2 11 2q15 0 24.5 -13.5t9.5 -27.5q0 -19 -16 -27l-121 -61l-6 -2t-6 -1zM110 0q-26 0 -36.5 11.5t-10.5 28.5v468q0 81 29 130t79 71t111 22h424q18 0 26 -15t8 -31q0 -19 -9 -33.5t-25 -14.5h-231v-229h130
q16 0 25 -13t9 -30q0 -14 -8 -27.5t-26 -13.5h-130v-230h231q16 0 25 -14t9 -34q0 -16 -8 -31t-26 -15h-290q-17 0 -32 9t-15 26v289h-206v-284q0 -17 -9 -28.5t-44 -11.5zM163 408h206v229h-87q-56 0 -87.5 -31.5t-31.5 -97.5v-100z" />
    <glyph glyph-name="aeacute" unicode="&#x1fd;" horiz-adv-x="741" 
d="M320 576q-14 0 -24.5 13.5t-10.5 27.5q0 18 15 26l124 63q6 2 11 2q15 0 24.5 -13.5t9.5 -27.5q0 -19 -16 -27l-121 -61l-6 -2t-6 -1zM173 -8q-39 0 -73 14t-54.5 43.5t-20.5 74.5q0 57 29.5 88t81.5 43t121 12h45v18q0 26 -9.5 51t-31.5 41.5t-59 16.5q-36 0 -56.5 -7.5
t-32.5 -15.5t-22 -8q-18 0 -28 18t-10 36t24 32.5t59 23t69 8.5q57 0 95 -23.5t60 -60.5q26 37 65 60t85 23q37 0 72.5 -12t64.5 -36.5t46 -60t17 -82.5q0 -37 -11 -54t-31.5 -21.5t-48.5 -4.5h-211v-23q0 -50 36 -79.5t92 -29.5q36 0 58 10t37 19t28 9t21.5 -7.5t14 -18.5
t5.5 -21q0 -17 -23.5 -34.5t-62 -29.5t-85.5 -12q-57 0 -105 25.5t-77 72.5q-34 -48 -81 -73t-93 -25zM195 72q27 0 51 15.5t40 38.5t16 46v37h-26q-38 0 -71.5 -4.5t-54 -20t-20.5 -48.5q0 -32 18.5 -48t46.5 -16zM408 274h166q23 0 30 6t7 23q0 27 -13.5 49.5t-36.5 35
t-52 12.5q-27 0 -50 -11.5t-37 -33t-14 -48.5v-33z" />
    <glyph glyph-name="Oslashacute" unicode="&#x1fe;" horiz-adv-x="566" 
d="M246 824q-14 0 -24.5 13.5t-10.5 27.5q0 18 15 26l124 63q6 2 11 2q15 0 24.5 -13.5t9.5 -27.5q0 -19 -16 -27l-121 -61l-6 -2t-6 -1zM283 -6q-64 0 -114.5 22t-80 71t-29.5 130v291q0 81 29.5 130t80 71t114.5 22q63 0 114 -22t81 -71t30 -130v-291q0 -81 -30 -130
t-81 -71t-114 -22zM283 88q55 0 87 31.5t32 97.5v291q0 66 -31.5 97.5t-87.5 31.5t-87.5 -31.5t-31.5 -97.5v-291q0 -66 31.5 -97.5t87.5 -31.5zM107 -38q-17 0 -28 11.5t-11 25.5q0 8 4 15l368 735q8 18 29 18q15 0 28.5 -10.5t13.5 -27.5q0 -9 -3 -16l-367 -732
q-4 -9 -13.5 -14t-20.5 -5z" />
    <glyph glyph-name="oslashacute" unicode="&#x1ff;" horiz-adv-x="486" 
d="M206 568q-14 0 -24.5 13.5t-10.5 27.5q0 18 15 26l124 63q6 2 11 2q15 0 24.5 -13.5t9.5 -27.5q0 -19 -16 -27l-121 -61l-6 -2t-6 -1zM242 -8q-54 0 -101 28t-75.5 73.5t-28.5 97.5v92q0 53 27.5 98t75 72t103.5 27t103 -26.5t75.5 -71t28.5 -99.5v-92q0 -51 -28.5 -97
t-76 -74t-103.5 -28zM243 85q28 0 51 15t37 39.5t14 51.5v92q0 26 -14 50t-37 39t-51 15q-29 0 -51.5 -15t-36 -39t-13.5 -50v-92q0 -27 13.5 -51.5t36.5 -39.5t51 -15zM81 -32q-9 0 -17 7t-8 17q0 7 5 14l33 50l256 395l32 48q7 11 18 11t19 -8t8 -19q0 -8 -6 -17l-31 -46
l-259 -395l-33 -48q-5 -9 -17 -9z" />
    <glyph glyph-name="uni0200" unicode="&#x200;" horiz-adv-x="689" 
d="M420 771q-30 24 -83.5 73.5t-69.5 76.5v10h147q16 -35 40.5 -77.5t44.5 -69.5v-13h-79zM226 771q-36 28 -87 76.5t-66 73.5v10h147q16 -35 40.5 -77.5t44.5 -69.5v-13h-79zM79 0q-14 0 -30 6t-26 15.5t-10 22.5q0 3 1 9l199 648q6 18 25.5 27t41.5 9q23 0 42.5 -9
t25.5 -27l198 -648q2 -6 2 -9q0 -12 -10.5 -22t-26 -16t-30.5 -6q-13 0 -22.5 5t-13.5 17l-41 142h-248l-40 -142q-3 -12 -13.5 -17t-23.5 -5zM180 249h200l-100 343z" />
    </font>
</defs>
</svg>
