<?xml version="1.0" standalone="no"?>
<!DOCTYPE svg PUBLIC "-//W3C//DTD SVG 1.1//EN" "http://www.w3.org/Graphics/SVG/1.1/DTD/svg11.dtd" >
<svg xmlns="http://www.w3.org/2000/svg" xmlns:xlink="http://www.w3.org/1999/xlink" version="1.1">
<metadata>
Created by FontForge 20190801 at Mon Feb  8 12:14:14 2021
 By root
Digitized data copyright (c) 2007, Google Corporation.
</metadata>
<defs>
<font id="DroidSans-Regular" horiz-adv-x="532" >
  <font-face 
    font-family="Droid Sans"
    font-weight="400"
    font-stretch="normal"
    units-per-em="2048"
    panose-1="2 11 6 6 3 8 4 2 2 4"
    ascent="1638"
    descent="-410"
    x-height="1098"
    cap-height="1462"
    bbox="-436 -494 2497 2142"
    underline-thickness="102"
    underline-position="-205"
    unicode-range="U+0001-206F"
  />
<missing-glyph horiz-adv-x="748" 
d="M68 0v1365h544v-1365h-544zM136 68h408v1229h-408v-1229z" />
    <glyph glyph-name=".notdef" horiz-adv-x="748" 
d="M68 0v1365h544v-1365h-544zM136 68h408v1229h-408v-1229z" />
    <glyph glyph-name="uni0000" 
 />
    <glyph glyph-name="uni0000" 
 />
    <glyph glyph-name="uni000D" unicode="&#xd;" 
 />
    <glyph glyph-name="uni0001" 
 />
    <glyph glyph-name="uni0002" 
 />
    <glyph glyph-name="uni0003" 
 />
    <glyph glyph-name="uni0004" 
 />
    <glyph glyph-name="uni0005" 
 />
    <glyph glyph-name="uni0006" 
 />
    <glyph glyph-name="uni0007" 
 />
    <glyph glyph-name="uni0008" 
 />
    <glyph glyph-name="uni0009" unicode="&#x9;" 
 />
    <glyph glyph-name="uni000A" unicode="&#xa;" 
 />
    <glyph glyph-name="uni000B" 
 />
    <glyph glyph-name="uni000C" 
 />
    <glyph glyph-name="uni000E" 
 />
    <glyph glyph-name="uni000F" 
 />
    <glyph glyph-name="uni0010" 
 />
    <glyph glyph-name="uni0011" 
 />
    <glyph glyph-name="uni0012" 
 />
    <glyph glyph-name="uni0013" 
 />
    <glyph glyph-name="uni0014" 
 />
    <glyph glyph-name="uni0015" 
 />
    <glyph glyph-name="uni0016" 
 />
    <glyph glyph-name="uni0017" 
 />
    <glyph glyph-name="uni0018" 
 />
    <glyph glyph-name="uni0019" 
 />
    <glyph glyph-name="uni001A" 
 />
    <glyph glyph-name="uni001B" 
 />
    <glyph glyph-name="uni001C" 
 />
    <glyph glyph-name="uni001D" 
 />
    <glyph glyph-name="uni001E" 
 />
    <glyph glyph-name="uni001F" 
 />
    <glyph glyph-name="space" unicode=" " 
 />
    <glyph glyph-name="exclam" unicode="!" horiz-adv-x="551" 
d="M336 414h-121l-51 1048h223zM147 111q0 38 10 64.5t27 43t40 24t50 7.5q26 0 49.5 -7.5t40.5 -24t27 -43t10 -64.5q0 -37 -10 -63.5t-27 -43.5t-40.5 -25t-49.5 -8q-27 0 -50 8t-40 25t-27 43.5t-10 63.5z" />
    <glyph glyph-name="quotedbl" unicode="&#x22;" horiz-adv-x="823" 
d="M330 1462l-41 -528h-115l-41 528h197zM690 1462l-41 -528h-114l-41 528h196z" />
    <glyph glyph-name="numbersign" unicode="#" horiz-adv-x="1323" 
d="M983 893l-63 -328h280v-137h-307l-82 -428h-147l84 428h-291l-82 -428h-144l78 428h-258v137h285l65 328h-274v137h299l82 432h147l-82 -432h293l84 432h144l-84 -432h262v-137h-289zM483 565h291l64 328h-291z" />
    <glyph glyph-name="dollar" unicode="$" horiz-adv-x="1128" 
d="M985 446q0 -70 -25 -127t-71.5 -99t-113 -69.5t-150.5 -39.5v-230h-138v221q-50 0 -101 4.5t-99 13.5t-90 22t-74 30v172q33 -16 76.5 -32.5t91.5 -29.5t98.5 -21.5t97.5 -8.5v434q-89 30 -154.5 63t-108.5 75.5t-64 97.5t-21 129q0 67 24.5 122.5t70 97t110 68
t143.5 35.5v180h138v-176q100 -5 184.5 -26t151.5 -52l-66 -145q-56 25 -126 45.5t-144 26.5v-422q88 -31 155.5 -64t113 -74.5t68.5 -95t23 -125.5zM809 446q0 33 -10 60.5t-31.5 50t-56.5 41.5t-86 37v-373q93 14 138.5 63t45.5 121zM315 1049q0 -36 8.5 -64.5t28.5 -52
t53 -42.5t82 -36v369q-89 -16 -130.5 -60.5t-41.5 -113.5z" />
    <glyph glyph-name="percent" unicode="%" horiz-adv-x="1690" 
d="M250 1026q0 -165 35.5 -247.5t115.5 -82.5q156 0 156 330q0 328 -156 328q-80 0 -115.5 -81.5t-35.5 -246.5zM705 1026q0 -108 -18 -194t-55 -145t-94.5 -90.5t-136.5 -31.5q-73 0 -129 31.5t-94 90.5t-57 145t-19 194t17.5 193t54 143.5t93 89.5t134.5 31
q75 0 131.5 -31t95 -89.5t58 -143.5t19.5 -193zM1133 440q0 -165 35.5 -247t115.5 -82q156 0 156 329q0 328 -156 328q-80 0 -115.5 -81.5t-35.5 -246.5zM1587 440q0 -108 -17.5 -193.5t-54.5 -144.5t-94.5 -90.5t-136.5 -31.5q-74 0 -130 31.5t-93.5 90.5t-56.5 144.5
t-19 193.5t17.5 193t54 143.5t93 89.5t134.5 31q75 0 131.5 -31t94.5 -89.5t57.5 -143.5t19.5 -193zM1331 1462l-811 -1462h-158l812 1462h157z" />
    <glyph glyph-name="ampersand" unicode="&#x26;" horiz-adv-x="1438" 
d="M422 1165q0 -34 8 -66.5t24.5 -65t42.5 -66t62 -70.5q59 35 102 66t71 63t42 67t14 76q0 36 -12.5 66.5t-36 52.5t-56.5 34.5t-75 12.5q-86 0 -136 -44.5t-50 -125.5zM557 141q58 0 107 11.5t91 31.5t78 47t68 58l-387 407q-52 -33 -92 -64.5t-67.5 -67.5t-41.5 -78.5
t-14 -98.5q0 -54 17.5 -99.5t50.5 -78t81 -50.5t109 -18zM109 381q0 78 20 139t58.5 111t94 93t126.5 85q-31 36 -61 74.5t-52.5 82t-36.5 93t-14 106.5q0 75 25 134.5t72 101t116 63t157 21.5q83 0 148.5 -21.5t111 -63t69.5 -101t24 -134.5q0 -64 -25 -118.5t-67 -101
t-96.5 -86t-114.5 -75.5l352 -372q27 29 48.5 59t38.5 64t30.5 73t23.5 86h184q-15 -66 -35.5 -121.5t-47 -104.5t-59 -91.5t-71.5 -83.5l277 -293h-225l-168 172q-49 -45 -97 -80.5t-102 -60t-116 -38t-140 -13.5q-105 0 -188.5 26.5t-141 78t-88 126t-30.5 170.5z" />
    <glyph glyph-name="quotesingle" unicode="'" horiz-adv-x="463" 
d="M330 1462l-41 -528h-115l-41 528h197z" />
    <glyph glyph-name="parenleft" unicode="(" horiz-adv-x="616" 
d="M82 561q0 125 18 246.5t55 236t93.5 220t134.5 198.5h172q-140 -193 -212.5 -424t-72.5 -475q0 -119 18.5 -237t54 -231t88.5 -219t122 -200h-170q-78 90 -134.5 193t-93.5 215.5t-55 232.5t-18 244z" />
    <glyph glyph-name="parenright" unicode=")" horiz-adv-x="616" 
d="M535 561q0 -124 -18 -244t-55.5 -232.5t-94 -215.5t-134.5 -193h-170q69 94 122 200t89 219t54 231t18 237q0 244 -72 475t-213 424h172q78 -93 134.5 -198.5t94 -220t55.5 -236t18 -246.5z" />
    <glyph glyph-name="asterisk" unicode="*" horiz-adv-x="1128" 
d="M664 1556l-43 -393l397 111l26 -193l-378 -28l245 -326l-178 -96l-176 358l-158 -358l-184 96l242 326l-375 28l29 193l391 -111l-43 393h205z" />
    <glyph glyph-name="plus" unicode="+" horiz-adv-x="1128" 
d="M489 647h-387v150h387v389h150v-389h387v-150h-387v-385h-150v385z" />
    <glyph glyph-name="comma" unicode="," horiz-adv-x="512" 
d="M362 238l15 -23q-14 -54 -33.5 -115t-43 -123t-49 -123.5t-50.5 -117.5h-138q15 61 29.5 127t28 131.5t24.5 128t19 115.5h198z" />
    <glyph glyph-name="hyphen" unicode="-" horiz-adv-x="659" 
d="M82 465v168h496v-168h-496z" />
    <glyph glyph-name="period" unicode="." horiz-adv-x="549" 
d="M147 111q0 38 10 64.5t27 43t40 24t50 7.5q26 0 49.5 -7.5t40.5 -24t27 -43t10 -64.5q0 -37 -10 -63.5t-27 -43.5t-40.5 -25t-49.5 -8q-27 0 -50 8t-40 25t-27 43.5t-10 63.5z" />
    <glyph glyph-name="slash" unicode="/" horiz-adv-x="764" 
d="M743 1462l-544 -1462h-179l545 1462h178z" />
    <glyph glyph-name="zero" unicode="0" horiz-adv-x="1128" 
d="M1032 733q0 -177 -25.5 -317t-82 -237t-145.5 -148t-216 -51q-118 0 -205.5 51t-145 148t-86 237t-28.5 317t25.5 317t81 236.5t144 147.5t214.5 51q119 0 207 -50.5t146 -147t87 -236.5t29 -318zM283 733q0 -150 15 -262t48 -186.5t86.5 -112t130.5 -37.5t131 37
t88.5 111t50 186.5t15.5 263.5q0 150 -15.5 262t-50 186t-88.5 111t-131 37t-130.5 -37t-86.5 -111t-48 -186t-15 -262z" />
    <glyph glyph-name="one" unicode="1" horiz-adv-x="1128" 
d="M711 0h-176v913q0 43 0.5 92t2 97.5t3 93t2.5 78.5q-17 -18 -30 -31t-26.5 -25t-28.5 -25.5t-36 -31.5l-148 -121l-96 123l383 299h150v-1462z" />
    <glyph glyph-name="two" unicode="2" horiz-adv-x="1128" 
d="M1008 0h-912v156l350 381q75 81 134 148t100.5 131t63.5 128.5t22 140.5q0 59 -17 104t-48.5 76.5t-74.5 47.5t-96 16q-95 0 -171.5 -38.5t-145.5 -98.5l-102 119q40 36 86 67.5t99 54.5t112 36.5t124 13.5q96 0 173.5 -27t131.5 -77.5t83.5 -123t29.5 -163.5
q0 -85 -26.5 -162t-73 -151.5t-111 -149.5t-139.5 -156l-281 -299v-8h689v-166z" />
    <glyph glyph-name="three" unicode="3" horiz-adv-x="1128" 
d="M961 1120q0 -73 -23 -133t-64.5 -104t-99.5 -72.5t-129 -40.5v-6q177 -22 269 -112.5t92 -235.5q0 -96 -32.5 -176t-98.5 -138t-167 -90t-239 -32q-109 0 -205.5 17t-181.5 62v170q87 -46 188.5 -71t194.5 -25q92 0 159 20t110.5 57t64 91t20.5 121q0 68 -26.5 116.5
t-75.5 80t-119.5 46.5t-159.5 15h-133v151h133q81 0 144 20t105.5 57t64.5 88t22 112q0 52 -18 93t-51 69.5t-79 43.5t-102 15q-107 0 -188.5 -33.5t-155.5 -87.5l-92 125q38 31 84.5 58t101.5 47.5t117.5 32.5t132.5 12q108 0 189.5 -27t136.5 -75.5t83 -115t28 -145.5z
" />
    <glyph glyph-name="four" unicode="4" horiz-adv-x="1128" 
d="M1087 328h-213v-328h-176v328h-675v159l663 983h188v-976h213v-166zM698 494v356q0 56 1.5 117.5t3.5 120t4.5 109.5t3.5 85h-9q-7 -20 -17.5 -44.5t-23 -49t-25.5 -47.5t-24 -39l-411 -608h497z" />
    <glyph glyph-name="five" unicode="5" horiz-adv-x="1128" 
d="M545 897q99 0 184.5 -27.5t149 -81.5t99.5 -134t36 -185q0 -114 -34 -205t-101 -154t-165.5 -96.5t-226.5 -33.5q-51 0 -100.5 5t-95 14.5t-86.5 24.5t-74 35v172q33 -23 77.5 -41t93.5 -30t98.5 -18.5t91.5 -6.5q79 0 141 18.5t105 57.5t66 98t23 140q0 143 -88 218.5
t-256 75.5q-27 0 -58.5 -2.5t-63 -6.5t-60 -8.5t-49.5 -8.5l-90 57l55 688h690v-166h-532l-39 -419q32 6 84.5 13t124.5 7z" />
    <glyph glyph-name="six" unicode="6" horiz-adv-x="1128" 
d="M113 625q0 105 10.5 209t37 199.5t72.5 177.5t117 142.5t170 95t232 34.5q19 0 42 -1t46.5 -3.5t45 -6t38.5 -8.5v-155q-35 12 -79 18t-87 6q-90 0 -158.5 -21.5t-118.5 -60.5t-83.5 -93t-54.5 -119.5t-31 -139.5t-13 -154h12q20 36 48.5 67.5t66.5 54t85.5 35.5
t106.5 13q95 0 172 -29.5t131 -86.5t83.5 -139.5t29.5 -188.5q0 -114 -31 -205t-89 -154.5t-140 -97.5t-184 -34q-100 0 -187.5 39t-151.5 119t-101 201t-37 286zM588 133q60 0 109.5 20.5t85.5 62t55.5 105t19.5 150.5q0 70 -16.5 125.5t-49.5 94.5t-82.5 60t-115.5 21
q-67 0 -122.5 -23.5t-94.5 -61t-60.5 -85.5t-21.5 -96q0 -67 18.5 -133.5t55 -119.5t91.5 -86.5t128 -33.5z" />
    <glyph glyph-name="seven" unicode="7" horiz-adv-x="1128" 
d="M281 0l563 1296h-754v166h940v-145l-555 -1317h-194z" />
    <glyph glyph-name="eight" unicode="8" horiz-adv-x="1128" 
d="M565 1485q84 0 158.5 -22t131 -66t89.5 -110t33 -154q0 -67 -20 -121t-55 -97.5t-83 -78t-104 -62.5q58 -31 113.5 -69t99 -85.5t70 -106.5t26.5 -132q0 -92 -33.5 -166.5t-94 -126.5t-145 -80t-186.5 -28q-110 0 -195.5 27t-144 77.5t-89 123.5t-30.5 165q0 75 22.5 135
t60.5 108t90 85t110 65q-49 31 -92 67.5t-74.5 81.5t-50 99.5t-18.5 120.5q0 87 33.5 152.5t90.5 109.5t131.5 66t155.5 22zM285 371q0 -53 16 -97.5t50 -76t86 -49t124 -17.5q70 0 123.5 17.5t89.5 50t54 78.5t18 102q0 52 -19.5 94t-56 78t-87.5 68t-114 63l-30 14
q-126 -60 -190 -137.5t-64 -187.5zM563 1333q-106 0 -168.5 -53t-62.5 -154q0 -57 17.5 -98t48.5 -73t74.5 -57.5t94.5 -49.5q48 22 90.5 48t74 59t49.5 75t18 96q0 101 -63 154t-173 53z" />
    <glyph glyph-name="nine" unicode="9" horiz-adv-x="1128" 
d="M1028 838q0 -105 -10.5 -209.5t-37 -199.5t-72.5 -177.5t-117 -142.5t-170 -94.5t-232 -34.5q-19 0 -42 1t-46 3.5t-45 5.5t-39 8v156q35 -13 79 -19t87 -6q135 0 222 47t138 127.5t72.5 187.5t26.5 226h-13q-20 -36 -48 -67t-66 -54t-86 -36t-107 -13q-95 0 -172 29.5
t-131 86.5t-83.5 139.5t-29.5 188.5q0 114 31.5 205.5t89 155t140 97.5t184.5 34q101 0 188 -39t151 -119t101 -201.5t37 -285.5zM553 1329q-60 0 -109.5 -20t-85.5 -62t-55.5 -105.5t-19.5 -150.5q0 -70 16.5 -125.5t49.5 -94.5t82.5 -60t115.5 -21q68 0 123 23.5t94 61
t60.5 85.5t21.5 96q0 67 -18.5 133.5t-55 120t-91.5 86.5t-128 33z" />
    <glyph glyph-name="colon" unicode=":" horiz-adv-x="549" 
d="M147 111q0 38 10 64.5t27 43t40 24t50 7.5q26 0 49.5 -7.5t40.5 -24t27 -43t10 -64.5q0 -37 -10 -63.5t-27 -43.5t-40.5 -25t-49.5 -8q-27 0 -50 8t-40 25t-27 43.5t-10 63.5zM147 987q0 39 10 65.5t27 43t40 23.5t50 7q26 0 49.5 -7t40.5 -23.5t27 -43t10 -65.5
q0 -37 -10 -63t-27 -43t-40.5 -25t-49.5 -8q-27 0 -50 8t-40 25t-27 43t-10 63z" />
    <glyph glyph-name="semicolon" unicode=";" horiz-adv-x="549" 
d="M362 238l15 -23q-14 -54 -33.5 -115t-43 -123t-49 -123.5t-50.5 -117.5h-138q15 61 29.5 127t28 131.5t24.5 128t19 115.5h198zM147 987q0 39 10 65.5t27 43t40 23.5t50 7q26 0 49.5 -7t40.5 -23.5t27 -43t10 -65.5q0 -37 -10 -63t-27 -43t-40.5 -25t-49.5 -8
q-27 0 -50 8t-40 25t-27 43t-10 63z" />
    <glyph glyph-name="less" unicode="&#x3c;" horiz-adv-x="1128" 
d="M1026 238l-924 424v102l924 481v-160l-735 -364l735 -322v-161z" />
    <glyph glyph-name="equal" unicode="=" horiz-adv-x="1128" 
d="M102 852v149h924v-149h-924zM102 442v150h924v-150h-924z" />
    <glyph glyph-name="greater" unicode="&#x3e;" horiz-adv-x="1128" 
d="M102 399l736 322l-736 364v160l924 -481v-102l-924 -424v161z" />
    <glyph glyph-name="question" unicode="?" horiz-adv-x="872" 
d="M281 414v37q0 57 7.5 103t27 86t52.5 78.5t83 80.5q48 41 82 74.5t55.5 68t32 74t10.5 92.5q0 48 -15 87.5t-43.5 68t-71 44t-98.5 15.5q-83 0 -158 -26t-145 -60l-63 145q81 42 175 71.5t191 29.5q93 0 167.5 -25.5t126.5 -73.5t80 -117.5t28 -156.5q0 -67 -13.5 -119.5
t-40.5 -97.5t-67 -87t-94 -89q-52 -45 -85 -78.5t-52 -65t-26 -64.5t-7 -77v-18h-139zM233 111q0 38 10 64.5t27 43t40 24t50 7.5q26 0 49.5 -7.5t40.5 -24t27 -43t10 -64.5q0 -37 -10 -63.5t-27 -43.5t-40.5 -25t-49.5 -8q-27 0 -50 8t-40 25t-27 43.5t-10 63.5z" />
    <glyph glyph-name="at" unicode="@" horiz-adv-x="1774" 
d="M1665 731q0 -62 -9.5 -124.5t-28 -119t-47 -105t-66.5 -84.5t-86.5 -56.5t-106.5 -20.5q-45 0 -81.5 15t-62.5 40t-42.5 57.5t-22.5 67.5h-4q-18 -37 -45 -70t-62.5 -57.5t-80 -38.5t-97.5 -14q-77 0 -136.5 28t-100.5 78.5t-62.5 121.5t-21.5 157q0 101 29.5 185t85 145
t134.5 95t177 34q45 0 90 -4t86 -11t75.5 -15.5t57.5 -16.5l-23 -416q-1 -22 -1.5 -35.5t-0.5 -21.5v-12v-7q0 -53 10.5 -87t27.5 -54t38.5 -27.5t44.5 -7.5q46 0 81 30.5t58.5 82.5t35.5 122t12 148q0 142 -43 252.5t-119 186.5t-180.5 115.5t-227.5 39.5
q-169 0 -298 -55.5t-216.5 -155t-132.5 -236t-45 -298.5q0 -151 39.5 -268t116 -197t190 -121t260.5 -41q61 0 120.5 7t115 19t105.5 27.5t93 32.5v-141q-86 -38 -194 -60t-238 -22q-179 0 -319.5 51t-238 148.5t-148.5 238t-51 319.5q0 188 59 350.5t168.5 281.5t265 187
t348.5 68q156 0 287 -50.5t226.5 -145t148.5 -230t53 -305.5zM662 602q0 -133 50.5 -192.5t135.5 -59.5q55 0 94 22.5t64 64t38 99t17 126.5l14 253q-28 8 -66.5 14.5t-80.5 6.5q-74 0 -124.5 -29t-82 -76t-45.5 -107t-14 -122z" />
    <glyph glyph-name="A" unicode="A" horiz-adv-x="1245" 
d="M1055 0l-160 453h-545l-162 -453h-188l537 1468h170l538 -1468h-190zM836 618l-148 424q-6 18 -14.5 44t-17.5 56t-18 62.5t-17 63.5q-7 -31 -16 -64t-18 -63.5t-17.5 -56t-14.5 -42.5l-145 -424h426z" />
    <glyph glyph-name="B" unicode="B" horiz-adv-x="1272" 
d="M199 1462h399q128 0 225.5 -19.5t163 -63t98.5 -114t33 -173.5q0 -62 -19.5 -116t-56.5 -95t-91.5 -68.5t-123.5 -36.5v-10q69 -12 129.5 -34.5t105.5 -62t71 -99.5t26 -146q0 -100 -32.5 -178.5t-94 -133t-149.5 -83.5t-199 -29h-485v1462zM385 842h244q84 0 141 15
t92 44.5t50.5 74t15.5 103.5q0 120 -77 172t-243 52h-223v-461zM385 686v-528h266q88 0 147.5 20t96 56t52.5 86.5t16 111.5q0 56 -16.5 103t-54 80.5t-99.5 52t-154 18.5h-254z" />
    <glyph glyph-name="C" unicode="C" horiz-adv-x="1235" 
d="M793 1319q-107 0 -194 -40.5t-148.5 -116.5t-95 -185t-33.5 -246q0 -141 29.5 -250.5t88.5 -184.5t147 -114t206 -39q89 0 169 17.5t158 40.5v-162q-39 -15 -78 -26.5t-81.5 -18.5t-91 -10.5t-107.5 -3.5q-164 0 -284 54t-198.5 153t-116.5 238t-38 308q0 166 43.5 304
t128 237t209.5 154t287 55q108 0 206 -22t177 -64l-78 -156q-63 32 -137 55t-168 23z" />
    <glyph glyph-name="D" unicode="D" horiz-adv-x="1401" 
d="M1276 745q0 -185 -48 -324.5t-139 -233t-223.5 -140.5t-300.5 -47h-366v1462h407q153 0 277 -46t211 -136.5t134.5 -224.5t47.5 -310zM1079 739q0 146 -33 252.5t-96 175.5t-155 102.5t-209 33.5h-201v-1143h162q264 0 398 146t134 433z" />
    <glyph glyph-name="E" unicode="E" horiz-adv-x="1081" 
d="M958 0h-759v1462h759v-164h-573v-452h535v-162h-535v-520h573v-164z" />
    <glyph glyph-name="F" unicode="F" horiz-adv-x="1006" 
d="M385 0h-186v1462h759v-164h-573v-516h535v-164h-535v-618z" />
    <glyph glyph-name="G" unicode="G" horiz-adv-x="1413" 
d="M782 772h484v-717q-55 -18 -111 -32t-115 -23.5t-124 -14.5t-140 -5q-157 0 -278 52.5t-204 150t-126 237t-43 313.5q0 172 47.5 311t138.5 236.5t224.5 150t304.5 52.5q111 0 213 -22t190 -64l-72 -162q-36 17 -77.5 32t-85.5 26.5t-90.5 18.5t-92.5 7
q-122 0 -216 -40.5t-157.5 -116.5t-96.5 -185t-33 -246q0 -130 27.5 -238t87.5 -186t155 -121t229 -43q44 0 80.5 2.5t67.5 6.5t58.5 9.5t53.5 10.5v436h-299v164z" />
    <glyph glyph-name="H" unicode="H" horiz-adv-x="1436" 
d="M1237 0h-186v682h-666v-682h-186v1462h186v-616h666v616h186v-1462z" />
    <glyph glyph-name="I" unicode="I" horiz-adv-x="694" 
d="M612 0h-530v102l172 41v1176l-172 41v102h530v-102l-172 -41v-1176l172 -41v-102z" />
    <glyph glyph-name="J" unicode="J" horiz-adv-x="555" 
d="M-29 -389q-51 0 -89 6.5t-66 17.5v160q34 -9 73 -14.5t84 -5.5q37 0 74.5 9.5t68 34.5t49.5 69t19 112v1462h187v-1442q0 -105 -29.5 -182t-82 -127.5t-126 -75t-162.5 -24.5z" />
    <glyph glyph-name="K" unicode="K" horiz-adv-x="1186" 
d="M1186 0h-211l-451 698l-139 -114v-584h-186v1462h186v-731l121 168l452 563h209l-520 -637z" />
    <glyph glyph-name="L" unicode="L" horiz-adv-x="1006" 
d="M199 0v1462h186v-1296h573v-166h-759z" />
    <glyph glyph-name="M" unicode="M" horiz-adv-x="1782" 
d="M803 0l-443 1280h-8q6 -74 10 -147q4 -63 6.5 -132.5t2.5 -126.5v-874h-172v1462h276l412 -1192h6l414 1192h276v-1462h-186v887q0 52 2 119t5 128q4 71 7 144h-8l-447 -1278h-153z" />
    <glyph glyph-name="N" unicode="N" horiz-adv-x="1493" 
d="M1294 0h-215l-719 1210h-8q6 -77 10 -153q4 -65 6.5 -136t2.5 -128v-793h-172v1462h213l716 -1204h7q-3 76 -7 150q-1 32 -2.5 65.5l-3 67t-2 64.5t-0.5 57v800h174v-1462z" />
    <glyph glyph-name="O" unicode="O" horiz-adv-x="1520" 
d="M1393 733q0 -169 -40.5 -308t-120.5 -238t-198.5 -153t-273.5 -54q-163 0 -282.5 54t-198 153t-116.5 238.5t-38 309.5t38 308.5t117 236.5t199 151.5t283 53.5q155 0 272.5 -53.5t197.5 -152t120.5 -237t40.5 -309.5zM322 733q0 -137 26 -246.5t79.5 -186t136 -117
t196.5 -40.5t196.5 40.5t136 117t78.5 186t25 246.5q0 138 -25 247t-78 184.5t-135 116t-196 40.5t-197 -40.5t-137 -116t-80 -184.5t-26 -247z" />
    <glyph glyph-name="P" unicode="P" horiz-adv-x="1180" 
d="M1075 1034q0 -91 -27.5 -175t-90.5 -148.5t-166.5 -103t-255.5 -38.5h-150v-569h-186v1462h362q134 0 231 -28.5t160 -83t93 -134.5t30 -182zM385 727h129q93 0 162.5 16t115 51.5t68.5 92t23 137.5q0 142 -82 210.5t-256 68.5h-160v-576z" />
    <glyph glyph-name="Q" unicode="Q" horiz-adv-x="1518" 
d="M1393 733q0 -131 -24.5 -244t-72 -203.5t-118.5 -156.5t-164 -104q43 -94 111.5 -165.5t158.5 -131.5l-121 -142q-103 73 -189.5 172t-137.5 226q-17 -2 -37.5 -3t-38.5 -1q-163 0 -282.5 54t-198 153t-116.5 238.5t-38 309.5t38 308.5t117 236.5t199 151.5t283 53.5
q155 0 272.5 -53.5t197.5 -152t120.5 -237t40.5 -309.5zM322 733q0 -137 26 -246.5t79.5 -186t136 -117t196.5 -40.5t196.5 40.5t136 117t78.5 186t25 246.5q0 138 -25 247t-78 184.5t-135 116t-196 40.5t-197 -40.5t-137 -116t-80 -184.5t-26 -247z" />
    <glyph glyph-name="R" unicode="R" horiz-adv-x="1208" 
d="M385 604v-604h-186v1462h356q266 0 393 -103t127 -312q0 -87 -24.5 -152t-65 -111.5t-92.5 -77.5t-107 -51l398 -655h-219l-351 604h-229zM385 762h164q90 0 153 17.5t103.5 52t59 86t18.5 120.5q0 72 -20.5 122t-62 82t-105 46.5t-150.5 14.5h-160v-541z" />
    <glyph glyph-name="S" unicode="S" horiz-adv-x="1063" 
d="M969 391q0 -97 -34.5 -173.5t-98.5 -129.5t-156 -80.5t-207 -27.5q-111 0 -207.5 17.5t-161.5 51.5v178q34 -16 77.5 -31.5t91.5 -27.5t99 -19.5t101 -7.5q160 0 236.5 60t76.5 172q0 54 -14.5 94t-51 73.5t-97.5 65t-154 68.5q-89 35 -154.5 76.5t-108 93.5t-63 118
t-20.5 150q0 88 32 157t90 116.5t138.5 72.5t177.5 25q119 0 214 -22.5t169 -57.5l-67 -156q-65 29 -147.5 50.5t-170.5 21.5q-122 0 -189 -56.5t-67 -152.5q0 -57 15 -98.5t50 -75t92.5 -63t141.5 -62.5q91 -36 159.5 -74t114.5 -86t69.5 -111t23.5 -149z" />
    <glyph glyph-name="T" unicode="T" horiz-adv-x="1063" 
d="M625 0h-187v1298h-418v164h1022v-164h-417v-1298z" />
    <glyph glyph-name="U" unicode="U" horiz-adv-x="1430" 
d="M1245 1464v-948q0 -114 -33 -212t-99.5 -170t-167 -113t-236.5 -41q-128 0 -226 38.5t-164.5 109.5t-100.5 170.5t-34 221.5v942h187v-952q0 -175 86.5 -271t261.5 -96q89 0 153 27t105 76t61 117t21 149v952h186z" />
    <glyph glyph-name="V" unicode="V" horiz-adv-x="1163" 
d="M965 1462h198l-489 -1462h-187l-487 1462h197l295 -927q29 -91 50 -175.5t38 -158.5q15 74 38 158.5t54 181.5z" />
    <glyph glyph-name="W" unicode="W" horiz-adv-x="1810" 
d="M809 1462h197l229 -856q15 -56 29.5 -112t27 -108.5t22 -99.5t15.5 -85q4 38 10 83t14 94.5t17.5 101t20.5 100.5l200 882h199l-367 -1462h-188l-254 938q-14 51 -27 105t-24 101q-12 55 -23 107q-11 -51 -22 -106q-10 -47 -22.5 -103t-26.5 -110l-242 -932h-188
l-386 1462h197l223 -889q12 -46 22 -95.5t18.5 -98.5t15.5 -94.5t12 -83.5q5 37 12.5 86t17.5 103t21.5 109.5t24.5 104.5z" />
    <glyph glyph-name="X" unicode="X" horiz-adv-x="1120" 
d="M1120 0h-211l-354 635l-367 -635h-188l453 764l-422 698h198l332 -559l334 559h190l-421 -692z" />
    <glyph glyph-name="Y" unicode="Y" horiz-adv-x="1079" 
d="M539 723l340 739h200l-446 -893v-569h-187v559l-446 903h203z" />
    <glyph glyph-name="Z" unicode="Z" horiz-adv-x="1104" 
d="M1022 0h-940v145l711 1151h-691v166h899v-145l-710 -1151h731v-166z" />
    <glyph glyph-name="bracketleft" unicode="[" horiz-adv-x="621" 
d="M569 -324h-405v1786h405v-149h-223v-1487h223v-150z" />
    <glyph glyph-name="backslash" unicode="\" horiz-adv-x="764" 
d="M201 1462l544 -1462h-178l-544 1462h178z" />
    <glyph glyph-name="bracketright" unicode="]" horiz-adv-x="621" 
d="M51 -174h223v1487h-223v149h406v-1786h-406v150z" />
    <glyph glyph-name="asciicircum" unicode="^" horiz-adv-x="1090" 
d="M41 549l459 924h102l447 -924h-161l-337 735l-349 -735h-161z" />
    <glyph glyph-name="underscore" unicode="_" horiz-adv-x="842" 
d="M846 -324h-850v140h850v-140z" />
    <glyph glyph-name="grave" unicode="`" horiz-adv-x="1182" 
d="M786 1241h-120q-35 28 -76 69.5t-79.5 85.5t-70 84.5t-47.5 67.5v21h219q16 -34 37.5 -74.5t44.5 -81t47 -78.5t45 -67v-27z" />
    <glyph glyph-name="a" unicode="a" horiz-adv-x="1087" 
d="M793 0l-37 152h-8q-33 -45 -66 -77.5t-72 -53.5t-87 -31t-111 -10q-69 0 -127 19.5t-100.5 60t-66.5 102t-24 145.5q0 164 115.5 252t351.5 96l184 7v69q0 67 -14.5 112t-42 72.5t-68 39.5t-92.5 12q-83 0 -154.5 -24t-137.5 -58l-64 137q74 40 165 68t191 28
q102 0 176.5 -20.5t123 -65t72.5 -113.5t24 -167v-752h-131zM459 127q61 0 113 19t90 57.5t59.5 97t21.5 137.5v99l-143 -7q-90 -4 -151 -20t-97.5 -44.5t-52.5 -69t-16 -91.5q0 -92 48.5 -135t127.5 -43z" />
    <glyph glyph-name="b" unicode="b" horiz-adv-x="1200" 
d="M670 1118q94 0 171 -36t131.5 -107.5t84.5 -177.5t30 -246q0 -141 -30 -247.5t-84.5 -178.5t-131.5 -108.5t-171 -36.5q-59 0 -107 13t-86.5 34.5t-68 50.5t-52.5 61h-12l-37 -139h-133v1556h182v-376q0 -35 -1 -74.5t-3 -73.5q-2 -40 -4 -78h8q23 35 52 65t67.5 52
t86.5 34.5t108 12.5zM635 967q-80 0 -133.5 -25.5t-86 -77.5t-46 -130t-13.5 -183q0 -101 13.5 -179.5t46 -132t86.5 -81t135 -27.5q135 0 198.5 109t63.5 313q0 208 -63.5 311t-200.5 103z" />
    <glyph glyph-name="c" unicode="c" horiz-adv-x="948" 
d="M594 -20q-101 0 -189 31.5t-153 100t-102 175t-37 256.5q0 157 38 266.5t104.5 178t155.5 99.5t191 31q78 0 152.5 -17t124.5 -42l-54 -154q-23 10 -51 19.5t-58 17t-59 12t-55 4.5q-157 0 -229 -100.5t-72 -312.5q0 -211 72.5 -308.5t220.5 -97.5q81 0 146.5 18.5
t119.5 43.5v-162q-54 -29 -115.5 -44t-150.5 -15z" />
    <glyph glyph-name="d" unicode="d" horiz-adv-x="1200" 
d="M852 147h-8q-22 -34 -51.5 -64.5t-68 -53.5t-86.5 -36t-108 -13q-93 0 -170 36t-132 107.5t-85 177.5t-30 246q0 141 30 247.5t85 178.5t132 108.5t170 36.5q59 0 107 -13t86.5 -35t68.5 -51t52 -61h12q-3 34 -6 65q-2 26 -4 53.5t-2 43.5v436h182v-1556h-147zM565 131
q76 0 128.5 23t85 70t48 117.5t17.5 164.5v41q0 101 -13.5 179.5t-46 132t-86.5 81t-135 27.5q-135 0 -198.5 -109t-63.5 -313q0 -209 63.5 -311.5t200.5 -102.5z" />
    <glyph glyph-name="e" unicode="e" horiz-adv-x="1096" 
d="M608 -20q-110 0 -201 37t-156.5 108t-101.5 176t-36 240q0 136 33 243t93 181.5t143.5 113.5t184.5 39q99 0 178 -35.5t134 -100t84.5 -155t29.5 -200.5v-113h-692q5 -193 81.5 -284t227.5 -91q51 0 94.5 5t84 14.5t78.5 24t77 32.5v-162q-40 -19 -78.5 -33t-79 -23
t-84 -13t-94.5 -4zM563 967q-114 0 -180.5 -78t-77.5 -227h492q0 68 -13.5 124.5t-42 96.5t-72.5 62t-106 22z" />
    <glyph glyph-name="f" unicode="f" horiz-adv-x="674" 
d="M651 961h-245v-961h-183v961h-194v75l194 68v96q0 107 22.5 177.5t65 112.5t104.5 59.5t140 17.5q59 0 108.5 -11.5t88.5 -25.5l-47 -141q-31 11 -67.5 19.5t-76.5 8.5t-69 -9.5t-48 -33.5t-28.5 -65.5t-9.5 -106.5v-104h245v-137z" />
    <glyph glyph-name="g" unicode="g" horiz-adv-x="1061" 
d="M1020 1098v-113l-197 -27q28 -35 47 -89.5t19 -123.5q0 -76 -23.5 -140.5t-71 -111.5t-117.5 -73.5t-163 -26.5q-22 0 -44 0.5t-36 3.5q-17 -10 -33.5 -22.5t-30 -28.5t-22 -36t-8.5 -44q0 -27 12 -43.5t32.5 -25.5t48.5 -12t59 -3h176q93 0 157 -23.5t104.5 -63.5
t58.5 -94.5t18 -115.5q0 -88 -32.5 -158t-99.5 -118.5t-169.5 -74.5t-241.5 -26q-107 0 -187 21t-133 61t-79.5 96.5t-26.5 127.5q0 60 19.5 105.5t52.5 78.5t76.5 54t90.5 32q-42 19 -69 60t-27 94q0 61 32 105.5t101 86.5q-43 18 -78.5 49.5t-60 72t-38 88.5t-13.5 99
q0 89 25 159t74 119t122 75t170 26q37 0 76.5 -5.5t66.5 -14.5h363zM209 -180q0 -37 13 -69t42.5 -55t78 -36.5t120.5 -13.5q186 0 278.5 57.5t92.5 165.5q0 46 -12 75t-39.5 45.5t-72.5 22.5t-110 6h-176q-35 0 -73 -8t-69.5 -30t-52 -60.5t-20.5 -99.5zM301 745
q0 -115 54 -171t153 -56q100 0 151.5 55.5t51.5 174.5q0 123 -52.5 181t-152.5 58q-99 0 -152 -60t-53 -182z" />
    <glyph glyph-name="h" unicode="h" horiz-adv-x="1206" 
d="M860 0v707q0 130 -52.5 195t-164.5 65q-81 0 -136 -26t-88.5 -77t-48 -125t-14.5 -170v-569h-182v1556h182v-462l-8 -144h10q25 43 59.5 74.5t75.5 52.5t87 31t94 10q183 0 275.5 -95.5t92.5 -305.5v-717h-182z" />
    <glyph glyph-name="i" unicode="i" horiz-adv-x="530" 
d="M356 0h-182v1098h182v-1098zM160 1395q0 60 30.5 87t75.5 27q22 0 41.5 -6.5t34 -20.5t23 -35.5t8.5 -51.5q0 -58 -31.5 -86.5t-75.5 -28.5q-45 0 -75.5 28t-30.5 87z" />
    <glyph glyph-name="j" unicode="j" horiz-adv-x="530" 
d="M66 -492q-48 0 -79.5 7t-54.5 18v148q26 -10 53 -15.5t62 -5.5q27 0 50 7.5t40.5 27t27 52t9.5 83.5v1268h182v-1256q0 -77 -17 -138.5t-53 -105t-90.5 -67t-129.5 -23.5zM160 1395q0 60 30.5 87t75.5 27q22 0 41.5 -6.5t34 -20.5t23 -35.5t8.5 -51.5q0 -58 -31.5 -86.5
t-75.5 -28.5q-45 0 -75.5 28t-30.5 87z" />
    <glyph glyph-name="k" unicode="k" horiz-adv-x="1016" 
d="M342 567l135 170l293 361h211l-401 -475l428 -623h-209l-336 504l-109 -82v-422h-180v1556h180v-714l-16 -275h4z" />
    <glyph glyph-name="l" unicode="l" horiz-adv-x="530" 
d="M356 0h-182v1556h182v-1556z" />
    <glyph glyph-name="m" unicode="m" horiz-adv-x="1835" 
d="M1489 0v707q0 130 -50 195t-155 65q-73 0 -124 -23.5t-83.5 -69t-47.5 -113t-15 -155.5v-606h-183v707q0 130 -49.5 195t-154.5 65q-77 0 -129 -26t-83.5 -77t-45 -125t-13.5 -170v-569h-182v1098h148l26 -148h10q24 43 57 74.5t72.5 52.5t84 31t90.5 10q120 0 199.5 -44
t117.5 -138h8q26 47 62.5 81t80 56.5t91.5 33.5t98 11q175 0 263.5 -95.5t88.5 -305.5v-717h-182z" />
    <glyph glyph-name="n" unicode="n" horiz-adv-x="1206" 
d="M860 0v707q0 130 -52.5 195t-164.5 65q-81 0 -136 -26t-88.5 -77t-48 -125t-14.5 -170v-569h-182v1098h148l26 -148h10q25 43 59.5 74.5t75.5 52.5t87 31t94 10q183 0 275.5 -95.5t92.5 -305.5v-717h-182z" />
    <glyph glyph-name="o" unicode="o" horiz-adv-x="1182" 
d="M1069 551q0 -137 -33.5 -243.5t-96 -179t-151.5 -110.5t-200 -38q-103 0 -190 38t-150.5 110.5t-99 179t-35.5 243.5q0 136 33.5 241.5t95.5 178t151.5 110t200.5 37.5q103 0 190 -37.5t150.5 -110t99 -178t35.5 -241.5zM301 551q0 -209 68.5 -314.5t222.5 -105.5
t221.5 105.5t67.5 314.5t-68.5 312.5t-222.5 103.5t-221.5 -103.5t-67.5 -312.5z" />
    <glyph glyph-name="p" unicode="p" horiz-adv-x="1200" 
d="M670 -20q-59 0 -107 13t-86.5 34.5t-68 50.5t-52.5 61h-12q3 -34 6 -65q2 -26 4 -53.5t2 -43.5v-469h-182v1590h148l26 -148h8q23 35 52 65.5t67.5 53t86.5 36t108 13.5q94 0 171 -36t131.5 -107.5t84.5 -177.5t30 -246q0 -141 -30 -247.5t-84.5 -178.5t-131.5 -108.5
t-171 -36.5zM635 967q-76 0 -128.5 -23t-85 -70t-48 -117t-17.5 -165v-41q0 -101 13.5 -179.5t46 -132t86.5 -81t135 -27.5q135 0 198.5 109t63.5 313q0 208 -63.5 311t-200.5 103z" />
    <glyph glyph-name="q" unicode="q" horiz-adv-x="1200" 
d="M565 131q76 0 128.5 23t85 70t48 117.5t17.5 164.5v41q0 101 -13.5 179.5t-46 132t-86.5 81t-135 27.5q-135 0 -198.5 -109t-63.5 -313q0 -209 63.5 -311.5t200.5 -102.5zM530 -20q-93 0 -170 36t-132 107.5t-85 177.5t-30 246q0 141 30 247.5t85 178.5t132 108.5
t170 36.5q59 0 107 -13.5t86 -36t68 -53t53 -65.5h8l27 148h147v-1590h-182v469q0 19 2 48t4 56q3 32 6 66h-12q-22 -34 -51.5 -64.5t-68 -53.5t-86.5 -36t-108 -13z" />
    <glyph glyph-name="r" unicode="r" horiz-adv-x="817" 
d="M649 1118q29 0 65 -2.5t62 -7.5l-24 -168q-28 5 -57.5 8.5t-55.5 3.5q-63 0 -115 -25.5t-89.5 -73t-58 -114t-20.5 -147.5v-592h-182v1098h148l22 -201h8q25 43 53.5 83t64 70.5t79.5 49t100 18.5z" />
    <glyph glyph-name="s" unicode="s" horiz-adv-x="924" 
d="M831 301q0 -80 -29 -140t-83.5 -100.5t-131.5 -60.5t-173 -20q-109 0 -187 17.5t-137 51.5v166q31 -16 69 -31.5t80 -27.5t86.5 -19.5t88.5 -7.5q65 0 110.5 11t74 31.5t41.5 50t13 65.5q0 31 -10 56t-36.5 49.5t-72.5 49.5t-118 56t-129.5 61t-97.5 67t-61.5 85.5
t-21.5 115.5q0 70 27.5 124.5t77.5 91.5t120 56t156 19q97 0 177.5 -21t152.5 -55l-63 -147q-65 29 -133.5 50.5t-139.5 21.5q-102 0 -151 -33.5t-49 -95.5q0 -35 11.5 -61t39.5 -49t75 -46.5t117 -52.5q72 -30 128.5 -60t96.5 -67.5t61 -85.5t21 -115z" />
    <glyph glyph-name="t" unicode="t" horiz-adv-x="694" 
d="M506 129q18 0 40.5 2t43.5 5t38.5 7t26.5 7v-138q-13 -6 -33 -12t-44 -10.5t-50 -7t-51 -2.5q-62 0 -115 16t-91.5 55t-60.5 105.5t-22 167.5v637h-155v81l155 78l78 230h105v-252h276v-137h-276v-637q0 -97 31.5 -146t103.5 -49z" />
    <glyph glyph-name="u" unicode="u" horiz-adv-x="1206" 
d="M885 0l-27 147h-10q-25 -43 -59.5 -74.5t-75.5 -52t-87 -30.5t-94 -10q-91 0 -160 23t-115 72t-69.5 125t-23.5 181v717h182v-707q0 -130 53 -195t164 -65q81 0 136 26t88.5 76.5t48 124.5t14.5 170v570h182v-1098h-147z" />
    <glyph glyph-name="v" unicode="v" horiz-adv-x="981" 
d="M375 0l-375 1098h188l199 -611q11 -33 26 -85t30 -106t27.5 -102t16.5 -73h7q5 25 17 73t27 102t30 106t26 85l199 611h188l-375 -1098h-231z" />
    <glyph glyph-name="w" unicode="w" horiz-adv-x="1528" 
d="M1008 0l-168 616q-4 18 -10 40.5t-12 47.5t-12.5 51t-12.5 51q-14 58 -29 120h-6q-14 -63 -27 -121q-11 -50 -23.5 -103t-23.5 -90l-172 -612h-211l-281 1098h191l131 -584q10 -45 20 -97.5t19 -104t16 -97t11 -74.5h6q5 26 13.5 69.5t19 92t21.5 96t21 80.5l179 619h196
l172 -619q9 -34 20.5 -80t22.5 -93.5t20 -91.5t13 -73h6q3 26 9.5 69.5t15.5 95.5t19.5 106.5t21.5 101.5l137 584h186l-284 -1098h-215z" />
    <glyph glyph-name="x" unicode="x" horiz-adv-x="1024" 
d="M408 563l-353 535h207l250 -410l250 410h207l-355 -535l373 -563h-207l-268 436l-270 -436h-207z" />
    <glyph glyph-name="y" unicode="y" horiz-adv-x="1001" 
d="M10 1098h189l215 -613q14 -40 28.5 -84t27 -88t21.5 -85t13 -76h6q5 25 16 68t24.5 91.5t28 95.5t25.5 80l199 611h188l-434 -1241q-28 -81 -60.5 -145.5t-75.5 -109.5t-101 -69.5t-138 -24.5q-52 0 -90 5.5t-65 11.5v145q21 -5 53 -8.5t67 -3.5q48 0 83 11.5t61 33.5
t44.5 54t33.5 73l57 160z" />
    <glyph glyph-name="z" unicode="z" horiz-adv-x="903" 
d="M821 0h-739v125l536 836h-503v137h688v-146l-524 -815h542v-137z" />
    <glyph glyph-name="braceleft" unicode="{" horiz-adv-x="725" 
d="M500 -16q0 -48 12 -78.5t34.5 -48t55 -24t72.5 -7.5v-150q-77 1 -142.5 17.5t-113 52t-74.5 90.5t-27 133v334q0 103 -65.5 146t-190.5 43v155q125 0 190.5 43t65.5 146v333q0 78 27 133t74.5 90.5t113 52t142.5 17.5v-149q-40 -1 -72.5 -7.5t-55 -24t-34.5 -48
t-12 -78.5v-332q0 -105 -59.5 -166.5t-174.5 -81.5v-12q115 -20 174.5 -81t59.5 -167v-331z" />
    <glyph glyph-name="bar" unicode="|" horiz-adv-x="1128" 
d="M489 1556h150v-2048h-150v2048z" />
    <glyph glyph-name="braceright" unicode="}" horiz-adv-x="725" 
d="M225 315q0 106 59.5 167t174.5 81v12q-115 20 -174.5 81.5t-59.5 166.5v332q0 48 -12 78.5t-34.5 48t-55 24t-72.5 7.5v149q77 -1 142.5 -17.5t113 -52t74.5 -90.5t27 -133v-333q0 -52 16.5 -88t49 -58.5t80.5 -32.5t110 -10v-155q-125 0 -190.5 -43t-65.5 -146v-334
q0 -78 -27 -133t-74.5 -90.5t-113 -52t-142.5 -17.5v150q40 1 72.5 7.5t55 24t34.5 48t12 78.5v331z" />
    <glyph glyph-name="asciitilde" unicode="~" horiz-adv-x="1128" 
d="M530 651q-37 16 -64.5 27t-50 17.5t-43 9t-42.5 2.5q-28 0 -58 -9.5t-59.5 -26t-57.5 -38.5t-53 -47v162q100 108 248 108q29 0 54 -2.5t52.5 -9t61 -19t80.5 -32.5q37 -16 64.5 -27t51 -17.5t43.5 -9t42 -2.5q28 0 58 9.5t59.5 26t57.5 38.5t52 47v-162
q-99 -108 -248 -108q-29 0 -54 2.5t-52.5 9t-61 19t-80.5 32.5z" />
    <glyph glyph-name="uni007F" 
 />
    <glyph glyph-name="nonbreakingspace" unicode="&#xa0;" 
 />
    <glyph glyph-name="exclamdown" unicode="&#xa1;" horiz-adv-x="551" 
d="M213 676h121l51 -1049h-223zM401 979q0 -38 -9.5 -64.5t-27 -43t-40.5 -24t-50 -7.5q-26 0 -49 7.5t-40.5 24t-27.5 43t-10 64.5q0 37 10 63t27.5 43t40.5 25t49 8q27 0 50 -8t40.5 -25t27 -43t9.5 -63z" />
    <glyph glyph-name="cent" unicode="&#xa2;" horiz-adv-x="1128" 
d="M831 197q-55 -15 -131 -17v-200h-137v206q-87 13 -156 50.5t-118 104t-75 166t-26 236.5q0 141 26.5 242.5t75 169.5t118 105.5t155.5 50.5v172h137v-164q72 -3 140 -19.5t114 -39.5l-53 -154q-23 10 -51 19.5t-58 17t-59.5 12t-54.5 4.5q-157 0 -229 -101t-72 -313
q0 -210 72.5 -307.5t220.5 -97.5q81 0 146.5 18.5t119.5 42.5v-161q-50 -28 -105 -43z" />
    <glyph glyph-name="sterling" unicode="&#xa3;" horiz-adv-x="1128" 
d="M666 1481q106 0 193 -22.5t153 -57.5l-66 -144q-56 29 -126.5 50.5t-145.5 21.5q-48 0 -89 -13.5t-71 -43t-46.5 -76.5t-16.5 -113v-295h376v-137h-376v-211q0 -62 -11.5 -106.5t-31 -76.5t-45 -53.5t-52.5 -37.5h748v-166h-991v154q44 11 80.5 31.5t63 54.5t41.5 82.5
t15 115.5v213h-198v137h198v324q0 87 29.5 155.5t82 116t125.5 72.5t161 25z" />
    <glyph glyph-name="currency" unicode="&#xa4;" horiz-adv-x="1128" 
d="M186 723q0 59 17.5 112.5t48.5 100.5l-129 129l98 98l127 -129q47 32 101 50t114 18t113.5 -18t99.5 -50l129 129l99 -96l-130 -129q31 -46 49.5 -100.5t18.5 -114.5t-17.5 -115t-50.5 -100l127 -127l-96 -96l-129 127q-46 -31 -99.5 -48.5t-113.5 -17.5t-115 18t-100 50
l-127 -127l-96 96l127 127q-31 45 -48.5 99t-17.5 114zM324 723q0 -50 18.5 -93.5t51 -76t76 -51.5t93.5 -19q51 0 95.5 19t77.5 51.5t52 76t19 93.5q0 51 -19 95.5t-52 77.5t-77.5 52t-95.5 19q-50 0 -93.5 -19t-76 -52t-51 -77.5t-18.5 -95.5z" />
    <glyph glyph-name="yen" unicode="&#xa5;" horiz-adv-x="1128" 
d="M563 723l346 739h191l-385 -768h239v-137h-301v-158h301v-137h-301v-262h-178v262h-301v137h301v158h-301v137h234l-379 768h192z" />
    <glyph glyph-name="brokenbar" unicode="&#xa6;" horiz-adv-x="1128" 
d="M489 1556h150v-780h-150v780zM489 289h150v-781h-150v781z" />
    <glyph glyph-name="section" unicode="&#xa7;" horiz-adv-x="995" 
d="M137 809q0 51 13 92.5t35.5 73.5t51.5 54.5t60 37.5q-75 38 -117.5 95t-42.5 141q0 61 27.5 110t77.5 83t120 52.5t156 18.5q97 0 175.5 -20t150.5 -52l-56 -139q-65 28 -135 47.5t-141 19.5q-99 0 -150 -29.5t-51 -86.5q0 -27 12 -50t40.5 -45t76 -45.5t117.5 -52.5
q72 -28 128.5 -60.5t95.5 -71.5t60 -87.5t21 -110.5q0 -52 -12 -94.5t-32.5 -76.5t-46.5 -58.5t-54 -40.5q69 -38 107 -92.5t38 -132.5q0 -71 -29.5 -126.5t-83.5 -94t-131.5 -58.5t-173.5 -20q-108 0 -186 16.5t-137 48.5v158q31 -15 69 -30t80 -26.5t86.5 -18.5t87.5 -7
q69 0 115.5 12t74 31.5t39 45t11.5 52.5q0 29 -8.5 51.5t-34 45t-72.5 47t-123 55.5q-73 31 -130.5 62t-97.5 70t-60.5 89t-20.5 117zM291 831q0 -37 14 -68.5t45.5 -60.5t82 -56.5t122.5 -57.5l35 -15q20 13 40.5 31t37 41t27 51t10.5 62q0 38 -13 70t-45.5 61.5t-86.5 58
t-136 58.5q-25 -8 -48.5 -23.5t-42.5 -38t-30.5 -51.5t-11.5 -62z" />
    <glyph glyph-name="dieresis" unicode="&#xa8;" horiz-adv-x="1182" 
d="M307 1395q0 54 28 78t68 24q39 0 68 -24.5t29 -77.5t-29 -78t-68 -25q-40 0 -68 25t-28 78zM682 1395q0 54 28 78t68 24q19 0 36.5 -6t30.5 -18.5t21 -31.5t8 -46q0 -53 -29 -78t-67 -25q-40 0 -68 25t-28 78z" />
    <glyph glyph-name="copyright" unicode="&#xa9;" horiz-adv-x="1704" 
d="M891 1053q-61 0 -108 -22t-79 -63.5t-48.5 -101.5t-16.5 -135q0 -78 14.5 -138t45 -101t78 -62.5t114.5 -21.5q23 0 50 3.5t55.5 9.5t56.5 14.5t53 17.5v-131q-24 -11 -48.5 -20t-51 -16t-56.5 -10.5t-65 -3.5q-102 0 -178 33t-126.5 94t-76 146t-25.5 188
q0 101 27 184.5t79.5 143.5t129 93.5t176.5 33.5q63 0 129 -16.5t125 -45.5l-62 -127q-52 26 -100.5 40t-91.5 14zM100 731q0 104 27 200t75.5 179.5t117.5 152.5t152.5 117.5t179.5 75.5t200 27t200 -27t179.5 -75.5t152.5 -117.5t117.5 -152.5t75.5 -179.5t27 -200
t-27 -200t-75.5 -179.5t-117.5 -152t-152.5 -117.5t-179.5 -75.5t-200 -26.5t-200 26.5t-179.5 75.5t-152.5 117.5t-117.5 152t-75.5 179.5t-27 200zM209 731q0 -133 50.5 -250t138 -204.5t204.5 -138t250 -50.5t250 50.5t204.5 138t138 204.5t50.5 250t-50.5 250
t-138 204.5t-204.5 138t-250 50.5t-250 -50.5t-204.5 -138t-138 -204.5t-50.5 -250z" />
    <glyph glyph-name="ordfeminine" unicode="&#xaa;" horiz-adv-x="678" 
d="M487 797l-28 82q-18 -22 -37.5 -39.5t-43 -30t-51.5 -19t-63 -6.5q-43 0 -79 13t-62 38.5t-40.5 64t-14.5 89.5q0 102 70.5 156t213.5 59l99 4v31q0 72 -30.5 100.5t-86.5 28.5q-48 0 -93 -14.5t-87 -36.5l-48 100q51 26 109.5 44t118.5 18q125 0 184.5 -53t59.5 -175
v-454h-91zM377 1110q-51 -3 -85 -12t-54.5 -24t-29.5 -36.5t-9 -50.5q0 -51 25 -73.5t67 -22.5q34 0 63 10.5t50.5 32.5t34 54.5t12.5 76.5v49z" />
    <glyph glyph-name="guillemotleft" unicode="&#xab;" horiz-adv-x="997" 
d="M82 553l309 414l117 -78l-238 -348l238 -348l-117 -78l-309 411v27zM489 553l310 414l116 -78l-237 -348l237 -348l-116 -78l-310 411v27z" />
    <glyph glyph-name="logicalnot" unicode="&#xac;" horiz-adv-x="1128" 
d="M1026 797v-535h-149v385h-775v150h924z" />
    <glyph glyph-name="uni00AD" unicode="&#xad;" horiz-adv-x="659" 
d="M82 465v168h496v-168h-496z" />
    <glyph glyph-name="registered" unicode="&#xae;" horiz-adv-x="1704" 
d="M743 768h72q91 0 130.5 36t39.5 105q0 74 -41.5 103.5t-130.5 29.5h-70v-274zM1145 913q0 -48 -13.5 -85.5t-36 -66t-51 -48.5t-59.5 -33q67 -110 120 -197q23 -37 44 -72.5t37.5 -63.5t26.5 -45l10 -17h-179l-206 352h-95v-352h-157v893h233q168 0 247 -65t79 -200z
M100 731q0 104 27 200t75.5 179.5t117.5 152.5t152.5 117.5t179.5 75.5t200 27t200 -27t179.5 -75.5t152.5 -117.5t117.5 -152.5t75.5 -179.5t27 -200t-27 -200t-75.5 -179.5t-117.5 -152t-152.5 -117.5t-179.5 -75.5t-200 -26.5t-200 26.5t-179.5 75.5t-152.5 117.5
t-117.5 152t-75.5 179.5t-27 200zM209 731q0 -133 50.5 -250t138 -204.5t204.5 -138t250 -50.5t250 50.5t204.5 138t138 204.5t50.5 250t-50.5 250t-138 204.5t-204.5 138t-250 50.5t-250 -50.5t-204.5 -138t-138 -204.5t-50.5 -250z" />
    <glyph glyph-name="overscore" unicode="&#xaf;" horiz-adv-x="1024" 
d="M1030 1556h-1036v140h1036v-140z" />
    <glyph glyph-name="degree" unicode="&#xb0;" horiz-adv-x="877" 
d="M123 1167q0 65 25 122.5t67.5 100.5t100 68t122.5 25t122.5 -25t100.5 -68t68 -100.5t25 -122.5t-25 -122t-68 -99.5t-100.5 -67t-122.5 -24.5t-122.5 24.5t-100 67t-67.5 99.5t-25 122zM246 1167q0 -39 15 -73.5t41 -60.5t61 -41t75 -15t75 15t61.5 41t41.5 60.5
t15 73.5q0 40 -15 75.5t-41.5 62t-61.5 42t-75 15.5t-75 -15.5t-61 -42t-41 -62t-15 -75.5z" />
    <glyph glyph-name="plusminus" unicode="&#xb1;" horiz-adv-x="1128" 
d="M489 647h-387v150h387v389h150v-389h387v-150h-387v-385h-150v385zM102 0v150h924v-150h-924z" />
    <glyph glyph-name="twosuperior" unicode="&#xb2;" horiz-adv-x="678" 
d="M621 586h-572v112l209 228q57 62 93 104.5t56 76t27.5 63t7.5 63.5q0 65 -33 97t-87 32q-51 0 -97.5 -25t-91.5 -63l-78 94q54 48 120.5 80.5t148.5 32.5q60 0 108.5 -16.5t82.5 -48t52.5 -77t18.5 -102.5q0 -50 -14.5 -93t-41.5 -85.5t-66.5 -88t-90.5 -100.5l-148 -157
h396v-127z" />
    <glyph glyph-name="threesuperior" unicode="&#xb3;" horiz-adv-x="678" 
d="M590 1255q0 -78 -40.5 -131t-109.5 -77q88 -23 132 -76t44 -131q0 -60 -20 -110t-61.5 -85.5t-104.5 -55.5t-149 -20q-70 0 -131.5 12.5t-118.5 43.5v133q63 -34 129 -53t119 -19q98 0 142 41.5t44 114.5q0 74 -53.5 107.5t-149.5 33.5h-98v113h98q92 0 134 39.5
t42 103.5q0 32 -10 55.5t-27.5 38.5t-41 22t-50.5 7q-59 0 -107.5 -20.5t-99.5 -57.5l-69 96q29 23 59.5 41.5t64.5 31.5t72 20.5t82 7.5q69 0 121.5 -17t87.5 -47t52.5 -71.5t17.5 -90.5z" />
    <glyph glyph-name="acute" unicode="&#xb4;" horiz-adv-x="1182" 
d="M393 1268q22 29 45.5 67t47 78.5t44.5 81t37 74.5h219v-21q-16 -27 -47.5 -67.5t-70 -84.5t-79 -85.5t-75.5 -69.5h-121v27z" />
    <glyph glyph-name="mu" unicode="&#xb5;" horiz-adv-x="1217" 
d="M356 391q0 -130 53 -195t164 -65q82 0 137 26t88.5 76.5t47.5 124.5t14 170v570h182v-1098h-147l-27 147h-10q-48 -83 -120 -125t-175 -42q-72 0 -125 23t-88 65q1 -38 3 -78q2 -35 2.5 -77.5t0.5 -84.5v-320h-182v1590h182v-707z" />
    <glyph glyph-name="paragraph" unicode="&#xb6;" horiz-adv-x="1341" 
d="M1126 -260h-120v1657h-207v-1657h-121v819q-61 -18 -146 -18q-95 0 -172.5 25.5t-132 84.5t-84.5 155t-30 236q0 147 32.5 245.5t92 158.5t142.5 85t183 25h563v-1816z" />
    <glyph glyph-name="periodcentered" unicode="&#xb7;" horiz-adv-x="549" 
d="M147 723q0 38 10 64.5t27 43t40 24t50 7.5q26 0 49.5 -7.5t40.5 -24t27 -43t10 -64.5q0 -37 -10 -63t-27 -43t-40.5 -25t-49.5 -8q-27 0 -50 8t-40 25t-27 43t-10 63z" />
    <glyph glyph-name="cedilla" unicode="&#xb8;" horiz-adv-x="420" 
d="M408 -287q0 -97 -70.5 -151t-220.5 -54q-22 0 -44.5 3t-37.5 6v108q15 -3 39.5 -4.5t40.5 -1.5q71 0 111 21.5t40 70.5q0 24 -13 41.5t-36 30.5t-54.5 22.5t-68.5 18.5l90 176h121l-57 -115q34 -8 63 -21t50.5 -33.5t34 -49.5t12.5 -68z" />
    <glyph glyph-name="onesuperior" unicode="&#xb9;" horiz-adv-x="678" 
d="M307 1462h135v-876h-145v516q0 25 0.5 55t2 60t3 58t2.5 50q-14 -17 -33 -37t-41 -37l-94 -73l-74 96z" />
    <glyph glyph-name="ordmasculine" unicode="&#xba;" horiz-adv-x="717" 
d="M651 1133q0 -83 -20.5 -148t-59 -109.5t-93 -68t-122.5 -23.5q-63 0 -116 23.5t-92 68t-60.5 109.5t-21.5 148t20.5 147.5t58.5 108.5t92.5 67t122.5 23q62 0 115.5 -23t92.5 -67t61 -108.5t22 -147.5zM197 1133q0 -119 37.5 -179.5t123.5 -60.5q85 0 122.5 60.5
t37.5 179.5q0 120 -37.5 177.5t-122.5 57.5q-86 0 -123.5 -57.5t-37.5 -177.5z" />
    <glyph glyph-name="guillemotright" unicode="&#xbb;" horiz-adv-x="997" 
d="M918 526l-310 -411l-116 78l237 348l-237 348l116 78l310 -414v-27zM510 526l-309 -411l-117 78l238 348l-238 348l117 78l309 -414v-27z" />
    <glyph glyph-name="onequarter" unicode="&#xbc;" horiz-adv-x="1509" 
d="M1419 193h-125v-192h-143v192h-375v111l377 579h141v-563h125v-127zM1151 320v195q0 42 1.5 91.5t4.5 98.5q-5 -11 -15 -29.5t-21 -39.5t-23 -41l-21 -35l-155 -240h229zM307 1462h135v-876h-145v516q0 25 0.5 55t2 60t3 58t2.5 50q-14 -17 -33 -37t-41 -37l-94 -73
l-74 96zM1202 1462l-811 -1462h-157l811 1462h157z" />
    <glyph glyph-name="onehalf" unicode="&#xbd;" horiz-adv-x="1509" 
d="M288 1462h135v-876h-145v516q0 25 0.5 55t2 60t3 58t2.5 50q-14 -17 -33 -37t-41 -37l-94 -73l-74 96zM1181 1462l-811 -1462h-157l811 1462h157zM1440 1h-572v112l209 228q57 62 93 104.5t56 76t27.5 63t7.5 63.5q0 65 -33 97t-87 32q-51 0 -97.5 -25t-91.5 -63l-78 94
q54 48 120.5 80.5t148.5 32.5q60 0 108.5 -16.5t82.5 -48t52.5 -77t18.5 -102.5q0 -50 -14.5 -93t-41.5 -85.5t-66.5 -88t-90.5 -100.5l-148 -157h396v-127z" />
    <glyph glyph-name="threequarters" unicode="&#xbe;" horiz-adv-x="1509" 
d="M1486 193h-125v-192h-143v192h-375v111l377 579h141v-563h125v-127zM1218 320v195q0 42 1.5 91.5t4.5 98.5q-5 -11 -15 -29.5t-21 -39.5t-23 -41l-21 -35l-155 -240h229zM590 1255q0 -78 -40.5 -131t-109.5 -77q88 -23 132 -76t44 -131q0 -60 -20 -110t-61.5 -85.5
t-104.5 -55.5t-149 -20q-70 0 -131.5 12.5t-118.5 43.5v133q63 -34 129 -53t119 -19q98 0 142 41.5t44 114.5q0 74 -53.5 107.5t-149.5 33.5h-98v113h98q92 0 134 39.5t42 103.5q0 32 -10 55.5t-27.5 38.5t-41 22t-50.5 7q-59 0 -107.5 -20.5t-99.5 -57.5l-69 96
q29 23 59.5 41.5t64.5 31.5t72 20.5t82 7.5q69 0 121.5 -17t87.5 -47t52.5 -71.5t17.5 -90.5zM1296 1462l-811 -1462h-157l811 1462h157z" />
    <glyph glyph-name="questiondown" unicode="&#xbf;" horiz-adv-x="872" 
d="M592 676v-37q0 -58 -8 -103.5t-27.5 -86t-52 -78.5t-82.5 -80q-48 -41 -82 -74.5t-55.5 -68t-32 -74t-10.5 -92.5q0 -48 15 -87.5t43.5 -68t71 -44t97.5 -15.5q84 0 159 25.5t144 60.5l64 -146q-82 -42 -176 -71t-191 -29q-93 0 -167.5 25.5t-126 73.5t-79.5 117t-28 157
q0 68 13.5 120t40 97t67 87t94.5 89q52 45 85 78.5t52 64.5t26 64.5t7 76.5v19h139zM639 979q0 -38 -9.5 -64.5t-27 -43t-40.5 -24t-50 -7.5q-26 0 -49 7.5t-40.5 24t-27.5 43t-10 64.5q0 37 10 63t27.5 43t40.5 25t49 8q27 0 50 -8t40.5 -25t27 -43t9.5 -63z" />
    <glyph glyph-name="Agrave" unicode="&#xc0;" horiz-adv-x="1245" 
d="M1055 0l-160 453h-545l-162 -453h-188l537 1468h170l538 -1468h-190zM836 618l-148 424q-6 18 -14.5 44t-17.5 56t-18 62.5t-17 63.5q-7 -31 -16 -64t-18 -63.5t-17.5 -56t-14.5 -42.5l-145 -424h426zM719 1579h-120q-35 28 -76 69.5t-79.5 85.5t-70 84.5t-47.5 67.5v21
h219q16 -34 37.5 -74.5t44.5 -81t47 -78.5t45 -67v-27z" />
    <glyph glyph-name="Aacute" unicode="&#xc1;" horiz-adv-x="1245" 
d="M1055 0l-160 453h-545l-162 -453h-188l537 1468h170l538 -1468h-190zM836 618l-148 424q-6 18 -14.5 44t-17.5 56t-18 62.5t-17 63.5q-7 -31 -16 -64t-18 -63.5t-17.5 -56t-14.5 -42.5l-145 -424h426zM534 1606q22 29 45.5 67t47 78.5t44.5 81t37 74.5h219v-21
q-16 -27 -47.5 -67.5t-70 -84.5t-79 -85.5t-75.5 -69.5h-121v27z" />
    <glyph glyph-name="Acircumflex" unicode="&#xc2;" horiz-adv-x="1245" 
d="M953 1579h-121q-51 34 -105 82.5t-106 103.5q-54 -55 -107 -103.5t-104 -82.5h-121v27q26 29 60 67t67.5 78.5t63 81t45.5 74.5h192q16 -34 45.5 -74.5t63 -81t68 -78.5t59.5 -67v-27zM1055 0l-160 453h-545l-162 -453h-188l537 1468h170l538 -1468h-190zM836 618
l-148 424q-6 18 -14.5 44t-17.5 56t-18 62.5t-17 63.5q-7 -31 -16 -64t-18 -63.5t-17.5 -56t-14.5 -42.5l-145 -424h426z" />
    <glyph glyph-name="Atilde" unicode="&#xc3;" horiz-adv-x="1245" 
d="M772 1581q-40 0 -79.5 17.5t-77.5 39t-73 39t-67 17.5q-45 0 -69 -26.5t-38 -88.5h-104q5 60 21.5 109t43 83.5t63.5 53t83 18.5q42 0 82.5 -17.5t78.5 -38.5t72.5 -38.5t63.5 -17.5q45 0 68 26t38 88h105q-5 -60 -21.5 -108.5t-43 -83t-63.5 -53.5t-83 -19zM1055 0
l-160 453h-545l-162 -453h-188l537 1468h170l538 -1468h-190zM836 618l-148 424q-6 18 -14.5 44t-17.5 56t-18 62.5t-17 63.5q-7 -31 -16 -64t-18 -63.5t-17.5 -56t-14.5 -42.5l-145 -424h426z" />
    <glyph glyph-name="Adieresis" unicode="&#xc4;" horiz-adv-x="1245" 
d="M1055 0l-160 453h-545l-162 -453h-188l537 1468h170l538 -1468h-190zM836 618l-148 424q-6 18 -14.5 44t-17.5 56t-18 62.5t-17 63.5q-7 -31 -16 -64t-18 -63.5t-17.5 -56t-14.5 -42.5l-145 -424h426zM340 1733q0 54 28 78t68 24q39 0 68 -24.5t29 -77.5t-29 -78t-68 -25
q-40 0 -68 25t-28 78zM715 1733q0 54 28 78t68 24q19 0 36.5 -6t30.5 -18.5t21 -31.5t8 -46q0 -53 -29 -78t-67 -25q-40 0 -68 25t-28 78z" />
    <glyph glyph-name="Aring" unicode="&#xc5;" horiz-adv-x="1245" 
d="M848 1583q0 -51 -17.5 -91.5t-48 -68.5t-72.5 -42.5t-91 -14.5q-50 0 -91 14.5t-70.5 42.5t-45.5 67.5t-16 90.5t16 90.5t45.5 67.5t70.5 42.5t91 14.5q48 0 90 -14.5t73 -42t48.5 -67t17.5 -89.5zM731 1581q0 53 -31.5 83t-80.5 30q-50 0 -81.5 -30t-31.5 -83t28.5 -83
t84.5 -30q49 0 80.5 30t31.5 83zM1055 0l-160 453h-545l-162 -453h-188l537 1468h170l538 -1468h-190zM836 618l-148 424q-6 18 -14.5 44t-17.5 56t-18 62.5t-17 63.5q-7 -31 -16 -64t-18 -63.5t-17.5 -56t-14.5 -42.5l-145 -424h426z" />
    <glyph glyph-name="AE" unicode="&#xc6;" horiz-adv-x="1745" 
d="M1622 0h-760v453h-475l-203 -453h-186l655 1462h969v-164h-573v-452h534v-162h-534v-520h573v-164zM459 618h403v680h-108z" />
    <glyph glyph-name="Ccedilla" unicode="&#xc7;" horiz-adv-x="1235" 
d="M793 1319q-107 0 -194 -40.5t-148.5 -116.5t-95 -185t-33.5 -246q0 -141 29.5 -250.5t88.5 -184.5t147 -114t206 -39q89 0 169 17.5t158 40.5v-162q-39 -15 -78 -26.5t-81.5 -18.5t-91 -10.5t-107.5 -3.5q-164 0 -284 54t-198.5 153t-116.5 238t-38 308q0 166 43.5 304
t128 237t209.5 154t287 55q108 0 206 -22t177 -64l-78 -156q-63 32 -137 55t-168 23zM916 -287q0 -97 -70.5 -151t-220.5 -54q-22 0 -44.5 3t-37.5 6v108q15 -3 39.5 -4.5t40.5 -1.5q71 0 111 21.5t40 70.5q0 24 -13 41.5t-36 30.5t-54.5 22.5t-68.5 18.5l90 176h121
l-57 -115q34 -8 63 -21t50.5 -33.5t34 -49.5t12.5 -68z" />
    <glyph glyph-name="Egrave" unicode="&#xc8;" horiz-adv-x="1081" 
d="M958 0h-759v1462h759v-164h-573v-452h535v-162h-535v-520h573v-164zM713 1579h-120q-35 28 -76 69.5t-79.5 85.5t-70 84.5t-47.5 67.5v21h219q16 -34 37.5 -74.5t44.5 -81t47 -78.5t45 -67v-27z" />
    <glyph glyph-name="Eacute" unicode="&#xc9;" horiz-adv-x="1081" 
d="M958 0h-759v1462h759v-164h-573v-452h535v-162h-535v-520h573v-164zM456 1606q22 29 45.5 67t47 78.5t44.5 81t37 74.5h219v-21q-16 -27 -47.5 -67.5t-70 -84.5t-79 -85.5t-75.5 -69.5h-121v27z" />
    <glyph glyph-name="Ecircumflex" unicode="&#xca;" horiz-adv-x="1081" 
d="M907 1579h-121q-51 34 -105 82.5t-106 103.5q-54 -55 -107 -103.5t-104 -82.5h-121v27q26 29 60 67t67.5 78.5t63 81t45.5 74.5h192q16 -34 45.5 -74.5t63 -81t68 -78.5t59.5 -67v-27zM958 0h-759v1462h759v-164h-573v-452h535v-162h-535v-520h573v-164z" />
    <glyph glyph-name="Edieresis" unicode="&#xcb;" horiz-adv-x="1081" 
d="M958 0h-759v1462h759v-164h-573v-452h535v-162h-535v-520h573v-164zM296 1733q0 54 28 78t68 24q39 0 68 -24.5t29 -77.5t-29 -78t-68 -25q-40 0 -68 25t-28 78zM671 1733q0 54 28 78t68 24q19 0 36.5 -6t30.5 -18.5t21 -31.5t8 -46q0 -53 -29 -78t-67 -25q-40 0 -68 25
t-28 78z" />
    <glyph glyph-name="Igrave" unicode="&#xcc;" horiz-adv-x="694" 
d="M612 0h-530v102l172 41v1176l-172 41v102h530v-102l-172 -41v-1176l172 -41v-102zM455 1579h-120q-35 28 -76 69.5t-79.5 85.5t-70 84.5t-47.5 67.5v21h219q16 -34 37.5 -74.5t44.5 -81t47 -78.5t45 -67v-27z" />
    <glyph glyph-name="Iacute" unicode="&#xcd;" horiz-adv-x="694" 
d="M612 0h-530v102l172 41v1176l-172 41v102h530v-102l-172 -41v-1176l172 -41v-102zM257 1606q22 29 45.5 67t47 78.5t44.5 81t37 74.5h219v-21q-16 -27 -47.5 -67.5t-70 -84.5t-79 -85.5t-75.5 -69.5h-121v27z" />
    <glyph glyph-name="Icircumflex" unicode="&#xce;" horiz-adv-x="694" 
d="M681 1579h-121q-51 34 -105 82.5t-106 103.5q-54 -55 -107 -103.5t-104 -82.5h-121v27q26 29 60 67t67.5 78.5t63 81t45.5 74.5h192q16 -34 45.5 -74.5t63 -81t68 -78.5t59.5 -67v-27zM612 0h-530v102l172 41v1176l-172 41v102h530v-102l-172 -41v-1176l172 -41v-102z
" />
    <glyph glyph-name="Idieresis" unicode="&#xcf;" horiz-adv-x="694" 
d="M612 0h-530v102l172 41v1176l-172 41v102h530v-102l-172 -41v-1176l172 -41v-102zM64 1733q0 54 28 78t68 24q39 0 68 -24.5t29 -77.5t-29 -78t-68 -25q-40 0 -68 25t-28 78zM439 1733q0 54 28 78t68 24q19 0 36.5 -6t30.5 -18.5t21 -31.5t8 -46q0 -53 -29 -78t-67 -25
q-40 0 -68 25t-28 78z" />
    <glyph glyph-name="Eth" unicode="&#xd0;" horiz-adv-x="1401" 
d="M47 805h152v657h407q153 0 277 -46t211 -136.5t134.5 -224.5t47.5 -310q0 -185 -48 -324.5t-139 -233t-223.5 -140.5t-300.5 -47h-366v643h-152v162zM1079 739q0 146 -33 252.5t-96 175.5t-155 102.5t-209 33.5h-201v-498h336v-162h-336v-483h162q264 0 398 146t134 433z
" />
    <glyph glyph-name="Ntilde" unicode="&#xd1;" horiz-adv-x="1493" 
d="M905 1581q-40 0 -79.5 17.5t-77.5 39t-73 39t-67 17.5q-45 0 -69 -26.5t-38 -88.5h-104q5 60 21.5 109t43 83.5t63.5 53t83 18.5q42 0 82.5 -17.5t78.5 -38.5t72.5 -38.5t63.5 -17.5q45 0 68 26t38 88h105q-5 -60 -21.5 -108.5t-43 -83t-63.5 -53.5t-83 -19zM1294 0h-215
l-719 1210h-8q6 -77 10 -153q4 -65 6.5 -136t2.5 -128v-793h-172v1462h213l716 -1204h7q-3 76 -7 150q-1 32 -2.5 65.5l-3 67t-2 64.5t-0.5 57v800h174v-1462z" />
    <glyph glyph-name="Ograve" unicode="&#xd2;" horiz-adv-x="1520" 
d="M1393 733q0 -169 -40.5 -308t-120.5 -238t-198.5 -153t-273.5 -54q-163 0 -282.5 54t-198 153t-116.5 238.5t-38 309.5t38 308.5t117 236.5t199 151.5t283 53.5q155 0 272.5 -53.5t197.5 -152t120.5 -237t40.5 -309.5zM322 733q0 -137 26 -246.5t79.5 -186t136 -117
t196.5 -40.5t196.5 40.5t136 117t78.5 186t25 246.5q0 138 -25 247t-78 184.5t-135 116t-196 40.5t-197 -40.5t-137 -116t-80 -184.5t-26 -247zM870 1579h-120q-35 28 -76 69.5t-79.5 85.5t-70 84.5t-47.5 67.5v21h219q16 -34 37.5 -74.5t44.5 -81t47 -78.5t45 -67v-27z" />
    <glyph glyph-name="Oacute" unicode="&#xd3;" horiz-adv-x="1520" 
d="M1393 733q0 -169 -40.5 -308t-120.5 -238t-198.5 -153t-273.5 -54q-163 0 -282.5 54t-198 153t-116.5 238.5t-38 309.5t38 308.5t117 236.5t199 151.5t283 53.5q155 0 272.5 -53.5t197.5 -152t120.5 -237t40.5 -309.5zM322 733q0 -137 26 -246.5t79.5 -186t136 -117
t196.5 -40.5t196.5 40.5t136 117t78.5 186t25 246.5q0 138 -25 247t-78 184.5t-135 116t-196 40.5t-197 -40.5t-137 -116t-80 -184.5t-26 -247zM651 1606q22 29 45.5 67t47 78.5t44.5 81t37 74.5h219v-21q-16 -27 -47.5 -67.5t-70 -84.5t-79 -85.5t-75.5 -69.5h-121v27z" />
    <glyph glyph-name="Ocircumflex" unicode="&#xd4;" horiz-adv-x="1520" 
d="M1096 1579h-121q-51 34 -105 82.5t-106 103.5q-54 -55 -107 -103.5t-104 -82.5h-121v27q26 29 60 67t67.5 78.5t63 81t45.5 74.5h192q16 -34 45.5 -74.5t63 -81t68 -78.5t59.5 -67v-27zM1393 733q0 -169 -40.5 -308t-120.5 -238t-198.5 -153t-273.5 -54q-163 0 -282.5 54
t-198 153t-116.5 238.5t-38 309.5t38 308.5t117 236.5t199 151.5t283 53.5q155 0 272.5 -53.5t197.5 -152t120.5 -237t40.5 -309.5zM322 733q0 -137 26 -246.5t79.5 -186t136 -117t196.5 -40.5t196.5 40.5t136 117t78.5 186t25 246.5q0 138 -25 247t-78 184.5t-135 116
t-196 40.5t-197 -40.5t-137 -116t-80 -184.5t-26 -247z" />
    <glyph glyph-name="Otilde" unicode="&#xd5;" horiz-adv-x="1520" 
d="M891 1581q-40 0 -79.5 17.5t-77.5 39t-73 39t-67 17.5q-45 0 -69 -26.5t-38 -88.5h-104q5 60 21.5 109t43 83.5t63.5 53t83 18.5q42 0 82.5 -17.5t78.5 -38.5t72.5 -38.5t63.5 -17.5q45 0 68 26t38 88h105q-5 -60 -21.5 -108.5t-43 -83t-63.5 -53.5t-83 -19zM1393 733
q0 -169 -40.5 -308t-120.5 -238t-198.5 -153t-273.5 -54q-163 0 -282.5 54t-198 153t-116.5 238.5t-38 309.5t38 308.5t117 236.5t199 151.5t283 53.5q155 0 272.5 -53.5t197.5 -152t120.5 -237t40.5 -309.5zM322 733q0 -137 26 -246.5t79.5 -186t136 -117t196.5 -40.5
t196.5 40.5t136 117t78.5 186t25 246.5q0 138 -25 247t-78 184.5t-135 116t-196 40.5t-197 -40.5t-137 -116t-80 -184.5t-26 -247z" />
    <glyph glyph-name="Odieresis" unicode="&#xd6;" horiz-adv-x="1520" 
d="M1393 733q0 -169 -40.5 -308t-120.5 -238t-198.5 -153t-273.5 -54q-163 0 -282.5 54t-198 153t-116.5 238.5t-38 309.5t38 308.5t117 236.5t199 151.5t283 53.5q155 0 272.5 -53.5t197.5 -152t120.5 -237t40.5 -309.5zM322 733q0 -137 26 -246.5t79.5 -186t136 -117
t196.5 -40.5t196.5 40.5t136 117t78.5 186t25 246.5q0 138 -25 247t-78 184.5t-135 116t-196 40.5t-197 -40.5t-137 -116t-80 -184.5t-26 -247zM477 1733q0 54 28 78t68 24q39 0 68 -24.5t29 -77.5t-29 -78t-68 -25q-40 0 -68 25t-28 78zM852 1733q0 54 28 78t68 24
q19 0 36.5 -6t30.5 -18.5t21 -31.5t8 -46q0 -53 -29 -78t-67 -25q-40 0 -68 25t-28 78z" />
    <glyph glyph-name="multiply" unicode="&#xd7;" horiz-adv-x="1128" 
d="M459 723l-318 319l105 105l317 -318l322 318l104 -103l-321 -321l319 -320l-102 -102l-322 317l-317 -315l-103 103z" />
    <glyph glyph-name="Oslash" unicode="&#xd8;" horiz-adv-x="1520" 
d="M1300 1454l-92 -149q91 -99 138 -244t47 -328q0 -169 -40.5 -308t-120.5 -238t-198.5 -153t-273.5 -54q-189 0 -322 71l-78 -127l-137 78l90 145q-97 100 -142.5 249t-45.5 339q0 170 38 308.5t117 236.5t199 151.5t283 53.5q94 0 174.5 -21t146.5 -59l80 127zM322 733
q0 -131 23 -235.5t71 -182.5l579 945q-48 29 -105 45t-128 16q-114 0 -197 -40.5t-137 -116t-80 -184.5t-26 -247zM1196 733q0 257 -88 408l-578 -940q47 -28 104 -43t126 -15q114 0 196.5 40.5t136 117t78.5 186t25 246.5z" />
    <glyph glyph-name="Ugrave" unicode="&#xd9;" horiz-adv-x="1430" 
d="M1245 1464v-948q0 -114 -33 -212t-99.5 -170t-167 -113t-236.5 -41q-128 0 -226 38.5t-164.5 109.5t-100.5 170.5t-34 221.5v942h187v-952q0 -175 86.5 -271t261.5 -96q89 0 153 27t105 76t61 117t21 149v952h186zM847 1579h-120q-35 28 -76 69.5t-79.5 85.5t-70 84.5
t-47.5 67.5v21h219q16 -34 37.5 -74.5t44.5 -81t47 -78.5t45 -67v-27z" />
    <glyph glyph-name="Uacute" unicode="&#xda;" horiz-adv-x="1430" 
d="M1245 1464v-948q0 -114 -33 -212t-99.5 -170t-167 -113t-236.5 -41q-128 0 -226 38.5t-164.5 109.5t-100.5 170.5t-34 221.5v942h187v-952q0 -175 86.5 -271t261.5 -96q89 0 153 27t105 76t61 117t21 149v952h186zM590 1606q22 29 45.5 67t47 78.5t44.5 81t37 74.5h219
v-21q-16 -27 -47.5 -67.5t-70 -84.5t-79 -85.5t-75.5 -69.5h-121v27z" />
    <glyph glyph-name="Ucircumflex" unicode="&#xdb;" horiz-adv-x="1430" 
d="M1043 1579h-121q-51 34 -105 82.5t-106 103.5q-54 -55 -107 -103.5t-104 -82.5h-121v27q26 29 60 67t67.5 78.5t63 81t45.5 74.5h192q16 -34 45.5 -74.5t63 -81t68 -78.5t59.5 -67v-27zM1245 1464v-948q0 -114 -33 -212t-99.5 -170t-167 -113t-236.5 -41
q-128 0 -226 38.5t-164.5 109.5t-100.5 170.5t-34 221.5v942h187v-952q0 -175 86.5 -271t261.5 -96q89 0 153 27t105 76t61 117t21 149v952h186z" />
    <glyph glyph-name="Udieresis" unicode="&#xdc;" horiz-adv-x="1430" 
d="M1245 1464v-948q0 -114 -33 -212t-99.5 -170t-167 -113t-236.5 -41q-128 0 -226 38.5t-164.5 109.5t-100.5 170.5t-34 221.5v942h187v-952q0 -175 86.5 -271t261.5 -96q89 0 153 27t105 76t61 117t21 149v952h186zM432 1733q0 54 28 78t68 24q39 0 68 -24.5t29 -77.5
t-29 -78t-68 -25q-40 0 -68 25t-28 78zM807 1733q0 54 28 78t68 24q19 0 36.5 -6t30.5 -18.5t21 -31.5t8 -46q0 -53 -29 -78t-67 -25q-40 0 -68 25t-28 78z" />
    <glyph glyph-name="Yacute" unicode="&#xdd;" horiz-adv-x="1079" 
d="M539 723l340 739h200l-446 -893v-569h-187v559l-446 903h203zM442 1606q22 29 45.5 67t47 78.5t44.5 81t37 74.5h219v-21q-16 -27 -47.5 -67.5t-70 -84.5t-79 -85.5t-75.5 -69.5h-121v27z" />
    <glyph glyph-name="Thorn" unicode="&#xde;" horiz-adv-x="1180" 
d="M1075 782q0 -91 -27.5 -175t-90.5 -148.5t-166.5 -103t-255.5 -38.5h-150v-317h-186v1462h186v-252h176q134 0 231 -28.5t160 -83t93 -134.5t30 -182zM385 475h129q93 0 162.5 16t115 51.5t68.5 92t23 137.5q0 143 -82 211t-256 68h-160v-576z" />
    <glyph glyph-name="germandbls" unicode="&#xdf;" horiz-adv-x="1233" 
d="M1010 1260q0 -57 -21.5 -101.5t-53 -81t-69 -66.5t-69 -57.5t-53 -54.5t-21.5 -57q0 -21 7 -37.5t26.5 -36t54.5 -44t92 -62.5q56 -37 100 -73t74.5 -77t47 -89t16.5 -110q0 -87 -28 -150t-78.5 -103.5t-121 -60t-155.5 -19.5q-97 0 -166.5 17.5t-122.5 51.5v166
q26 -16 58.5 -31.5t68.5 -27.5t74 -19.5t75 -7.5q56 0 96.5 12.5t66.5 35t38 54.5t12 72q0 36 -8.5 65.5t-30 57.5t-57.5 57t-92 64q-63 40 -105.5 74t-69 67.5t-37.5 68.5t-11 77q0 54 20.5 93.5t51.5 71t67 58.5t67 56t51.5 62.5t20.5 77.5q0 42 -16.5 73t-46.5 51.5
t-71.5 30t-92.5 9.5q-49 0 -93 -9.5t-77 -33.5t-52.5 -65.5t-19.5 -106.5v-1202h-182v1200q0 104 31.5 174.5t88 113t134.5 61t170 18.5t168 -19t130 -57t84 -96t30 -135z" />
    <glyph glyph-name="agrave" unicode="&#xe0;" horiz-adv-x="1087" 
d="M793 0l-37 152h-8q-33 -45 -66 -77.5t-72 -53.5t-87 -31t-111 -10q-69 0 -127 19.5t-100.5 60t-66.5 102t-24 145.5q0 164 115.5 252t351.5 96l184 7v69q0 67 -14.5 112t-42 72.5t-68 39.5t-92.5 12q-83 0 -154.5 -24t-137.5 -58l-64 137q74 40 165 68t191 28
q102 0 176.5 -20.5t123 -65t72.5 -113.5t24 -167v-752h-131zM459 127q61 0 113 19t90 57.5t59.5 97t21.5 137.5v99l-143 -7q-90 -4 -151 -20t-97.5 -44.5t-52.5 -69t-16 -91.5q0 -92 48.5 -135t127.5 -43zM678 1241h-120q-35 28 -76 69.5t-79.5 85.5t-70 84.5t-47.5 67.5v21
h219q16 -34 37.5 -74.5t44.5 -81t47 -78.5t45 -67v-27z" />
    <glyph glyph-name="aacute" unicode="&#xe1;" horiz-adv-x="1087" 
d="M793 0l-37 152h-8q-33 -45 -66 -77.5t-72 -53.5t-87 -31t-111 -10q-69 0 -127 19.5t-100.5 60t-66.5 102t-24 145.5q0 164 115.5 252t351.5 96l184 7v69q0 67 -14.5 112t-42 72.5t-68 39.5t-92.5 12q-83 0 -154.5 -24t-137.5 -58l-64 137q74 40 165 68t191 28
q102 0 176.5 -20.5t123 -65t72.5 -113.5t24 -167v-752h-131zM459 127q61 0 113 19t90 57.5t59.5 97t21.5 137.5v99l-143 -7q-90 -4 -151 -20t-97.5 -44.5t-52.5 -69t-16 -91.5q0 -92 48.5 -135t127.5 -43zM446 1268q22 29 45.5 67t47 78.5t44.5 81t37 74.5h219v-21
q-16 -27 -47.5 -67.5t-70 -84.5t-79 -85.5t-75.5 -69.5h-121v27z" />
    <glyph glyph-name="acircumflex" unicode="&#xe2;" horiz-adv-x="1087" 
d="M892 1241h-121q-51 34 -105 82.5t-106 103.5q-54 -55 -107 -103.5t-104 -82.5h-121v27q26 29 60 67t67.5 78.5t63 81t45.5 74.5h192q16 -34 45.5 -74.5t63 -81t68 -78.5t59.5 -67v-27zM793 0l-37 152h-8q-33 -45 -66 -77.5t-72 -53.5t-87 -31t-111 -10q-69 0 -127 19.5
t-100.5 60t-66.5 102t-24 145.5q0 164 115.5 252t351.5 96l184 7v69q0 67 -14.5 112t-42 72.5t-68 39.5t-92.5 12q-83 0 -154.5 -24t-137.5 -58l-64 137q74 40 165 68t191 28q102 0 176.5 -20.5t123 -65t72.5 -113.5t24 -167v-752h-131zM459 127q61 0 113 19t90 57.5
t59.5 97t21.5 137.5v99l-143 -7q-90 -4 -151 -20t-97.5 -44.5t-52.5 -69t-16 -91.5q0 -92 48.5 -135t127.5 -43z" />
    <glyph glyph-name="atilde" unicode="&#xe3;" horiz-adv-x="1087" 
d="M699 1243q-40 0 -79.5 17.5t-77.5 39t-73 39t-67 17.5q-45 0 -69 -26.5t-38 -88.5h-104q5 60 21.5 109t43 83.5t63.5 53t83 18.5q42 0 82.5 -17.5t78.5 -38.5t72.5 -38.5t63.5 -17.5q45 0 68 26t38 88h105q-5 -60 -21.5 -108.5t-43 -83t-63.5 -53.5t-83 -19zM793 0
l-37 152h-8q-33 -45 -66 -77.5t-72 -53.5t-87 -31t-111 -10q-69 0 -127 19.5t-100.5 60t-66.5 102t-24 145.5q0 164 115.5 252t351.5 96l184 7v69q0 67 -14.5 112t-42 72.5t-68 39.5t-92.5 12q-83 0 -154.5 -24t-137.5 -58l-64 137q74 40 165 68t191 28q102 0 176.5 -20.5
t123 -65t72.5 -113.5t24 -167v-752h-131zM459 127q61 0 113 19t90 57.5t59.5 97t21.5 137.5v99l-143 -7q-90 -4 -151 -20t-97.5 -44.5t-52.5 -69t-16 -91.5q0 -92 48.5 -135t127.5 -43z" />
    <glyph glyph-name="adieresis" unicode="&#xe4;" horiz-adv-x="1087" 
d="M793 0l-37 152h-8q-33 -45 -66 -77.5t-72 -53.5t-87 -31t-111 -10q-69 0 -127 19.5t-100.5 60t-66.5 102t-24 145.5q0 164 115.5 252t351.5 96l184 7v69q0 67 -14.5 112t-42 72.5t-68 39.5t-92.5 12q-83 0 -154.5 -24t-137.5 -58l-64 137q74 40 165 68t191 28
q102 0 176.5 -20.5t123 -65t72.5 -113.5t24 -167v-752h-131zM459 127q61 0 113 19t90 57.5t59.5 97t21.5 137.5v99l-143 -7q-90 -4 -151 -20t-97.5 -44.5t-52.5 -69t-16 -91.5q0 -92 48.5 -135t127.5 -43zM273 1395q0 54 28 78t68 24q39 0 68 -24.5t29 -77.5t-29 -78
t-68 -25q-40 0 -68 25t-28 78zM648 1395q0 54 28 78t68 24q19 0 36.5 -6t30.5 -18.5t21 -31.5t8 -46q0 -53 -29 -78t-67 -25q-40 0 -68 25t-28 78z" />
    <glyph glyph-name="aring" unicode="&#xe5;" horiz-adv-x="1087" 
d="M783 1458q0 -51 -17.5 -91.5t-48 -68.5t-72.5 -42.5t-91 -14.5q-50 0 -91 14.5t-70.5 42.5t-45.5 67.5t-16 90.5t16 90.5t45.5 67.5t70.5 42.5t91 14.5q48 0 90 -14.5t73 -42t48.5 -67t17.5 -89.5zM666 1456q0 53 -31.5 83t-80.5 30q-50 0 -81.5 -30t-31.5 -83t28.5 -83
t84.5 -30q49 0 80.5 30t31.5 83zM793 0l-37 152h-8q-33 -45 -66 -77.5t-72 -53.5t-87 -31t-111 -10q-69 0 -127 19.5t-100.5 60t-66.5 102t-24 145.5q0 164 115.5 252t351.5 96l184 7v69q0 67 -14.5 112t-42 72.5t-68 39.5t-92.5 12q-83 0 -154.5 -24t-137.5 -58l-64 137
q74 40 165 68t191 28q102 0 176.5 -20.5t123 -65t72.5 -113.5t24 -167v-752h-131zM459 127q61 0 113 19t90 57.5t59.5 97t21.5 137.5v99l-143 -7q-90 -4 -151 -20t-97.5 -44.5t-52.5 -69t-16 -91.5q0 -92 48.5 -135t127.5 -43z" />
    <glyph glyph-name="ae" unicode="&#xe6;" horiz-adv-x="1706" 
d="M94 307q0 164 115.5 252t351.5 96l184 7v69q0 67 -14.5 112t-42 72.5t-68 39.5t-92.5 12q-83 0 -154.5 -24t-137.5 -58l-64 137q74 40 165 68t191 28q131 0 214 -42.5t126 -135.5q51 85 134 131.5t186 46.5q97 0 174 -35.5t131 -100t82.5 -155t28.5 -200.5v-113h-672
q5 -193 78.5 -284t220.5 -91q49 0 91.5 5t81.5 14.5t76 24t74 32.5v-162q-39 -19 -76.5 -33t-77 -23t-82 -13t-91.5 -4q-138 0 -239 57t-163 172q-34 -54 -72 -96.5t-85.5 -72t-105.5 -45t-132 -15.5q-71 0 -132.5 19.5t-106.5 60t-71 102t-26 145.5zM283 305
q0 -92 48.5 -135t127.5 -43q61 0 113 19t90 57.5t59.5 97t21.5 137.5v99l-143 -7q-90 -4 -151 -20t-97.5 -44.5t-52.5 -69t-16 -91.5zM1184 967q-110 0 -173.5 -78t-74.5 -227h471q0 68 -13 124.5t-40.5 96.5t-69.5 62t-100 22z" />
    <glyph glyph-name="ccedilla" unicode="&#xe7;" horiz-adv-x="948" 
d="M594 -20q-101 0 -189 31.5t-153 100t-102 175t-37 256.5q0 157 38 266.5t104.5 178t155.5 99.5t191 31q78 0 152.5 -17t124.5 -42l-54 -154q-23 10 -51 19.5t-58 17t-59 12t-55 4.5q-157 0 -229 -100.5t-72 -312.5q0 -211 72.5 -308.5t220.5 -97.5q81 0 146.5 18.5
t119.5 43.5v-162q-54 -29 -115.5 -44t-150.5 -15zM730 -287q0 -97 -70.5 -151t-220.5 -54q-22 0 -44.5 3t-37.5 6v108q15 -3 39.5 -4.5t40.5 -1.5q71 0 111 21.5t40 70.5q0 24 -13 41.5t-36 30.5t-54.5 22.5t-68.5 18.5l90 176h121l-57 -115q34 -8 63 -21t50.5 -33.5
t34 -49.5t12.5 -68z" />
    <glyph glyph-name="egrave" unicode="&#xe8;" horiz-adv-x="1096" 
d="M608 -20q-110 0 -201 37t-156.5 108t-101.5 176t-36 240q0 136 33 243t93 181.5t143.5 113.5t184.5 39q99 0 178 -35.5t134 -100t84.5 -155t29.5 -200.5v-113h-692q5 -193 81.5 -284t227.5 -91q51 0 94.5 5t84 14.5t78.5 24t77 32.5v-162q-40 -19 -78.5 -33t-79 -23
t-84 -13t-94.5 -4zM563 967q-114 0 -180.5 -78t-77.5 -227h492q0 68 -13.5 124.5t-42 96.5t-72.5 62t-106 22zM678 1241h-120q-35 28 -76 69.5t-79.5 85.5t-70 84.5t-47.5 67.5v21h219q16 -34 37.5 -74.5t44.5 -81t47 -78.5t45 -67v-27z" />
    <glyph glyph-name="eacute" unicode="&#xe9;" horiz-adv-x="1096" 
d="M608 -20q-110 0 -201 37t-156.5 108t-101.5 176t-36 240q0 136 33 243t93 181.5t143.5 113.5t184.5 39q99 0 178 -35.5t134 -100t84.5 -155t29.5 -200.5v-113h-692q5 -193 81.5 -284t227.5 -91q51 0 94.5 5t84 14.5t78.5 24t77 32.5v-162q-40 -19 -78.5 -33t-79 -23
t-84 -13t-94.5 -4zM563 967q-114 0 -180.5 -78t-77.5 -227h492q0 68 -13.5 124.5t-42 96.5t-72.5 62t-106 22zM475 1268q22 29 45.5 67t47 78.5t44.5 81t37 74.5h219v-21q-16 -27 -47.5 -67.5t-70 -84.5t-79 -85.5t-75.5 -69.5h-121v27z" />
    <glyph glyph-name="ecircumflex" unicode="&#xea;" horiz-adv-x="1096" 
d="M888 1241h-121q-51 34 -105 82.5t-106 103.5q-54 -55 -107 -103.5t-104 -82.5h-121v27q26 29 60 67t67.5 78.5t63 81t45.5 74.5h192q16 -34 45.5 -74.5t63 -81t68 -78.5t59.5 -67v-27zM608 -20q-110 0 -201 37t-156.5 108t-101.5 176t-36 240q0 136 33 243t93 181.5
t143.5 113.5t184.5 39q99 0 178 -35.5t134 -100t84.5 -155t29.5 -200.5v-113h-692q5 -193 81.5 -284t227.5 -91q51 0 94.5 5t84 14.5t78.5 24t77 32.5v-162q-40 -19 -78.5 -33t-79 -23t-84 -13t-94.5 -4zM563 967q-114 0 -180.5 -78t-77.5 -227h492q0 68 -13.5 124.5
t-42 96.5t-72.5 62t-106 22z" />
    <glyph glyph-name="edieresis" unicode="&#xeb;" horiz-adv-x="1096" 
d="M608 -20q-110 0 -201 37t-156.5 108t-101.5 176t-36 240q0 136 33 243t93 181.5t143.5 113.5t184.5 39q99 0 178 -35.5t134 -100t84.5 -155t29.5 -200.5v-113h-692q5 -193 81.5 -284t227.5 -91q51 0 94.5 5t84 14.5t78.5 24t77 32.5v-162q-40 -19 -78.5 -33t-79 -23
t-84 -13t-94.5 -4zM563 967q-114 0 -180.5 -78t-77.5 -227h492q0 68 -13.5 124.5t-42 96.5t-72.5 62t-106 22zM269 1395q0 54 28 78t68 24q39 0 68 -24.5t29 -77.5t-29 -78t-68 -25q-40 0 -68 25t-28 78zM644 1395q0 54 28 78t68 24q19 0 36.5 -6t30.5 -18.5t21 -31.5t8 -46
q0 -53 -29 -78t-67 -25q-40 0 -68 25t-28 78z" />
    <glyph glyph-name="igrave" unicode="&#xec;" horiz-adv-x="530" 
d="M356 0h-182v1098h182v-1098zM359 1241h-120q-35 28 -76 69.5t-79.5 85.5t-70 84.5t-47.5 67.5v21h219q16 -34 37.5 -74.5t44.5 -81t47 -78.5t45 -67v-27z" />
    <glyph glyph-name="iacute" unicode="&#xed;" horiz-adv-x="530" 
d="M356 0h-182v1098h182v-1098zM185 1268q22 29 45.5 67t47 78.5t44.5 81t37 74.5h219v-21q-16 -27 -47.5 -67.5t-70 -84.5t-79 -85.5t-75.5 -69.5h-121v27z" />
    <glyph glyph-name="icircumflex" unicode="&#xee;" horiz-adv-x="530" 
d="M597 1241h-121q-51 34 -105 82.5t-106 103.5q-54 -55 -107 -103.5t-104 -82.5h-121v27q26 29 60 67t67.5 78.5t63 81t45.5 74.5h192q16 -34 45.5 -74.5t63 -81t68 -78.5t59.5 -67v-27zM356 0h-182v1098h182v-1098z" />
    <glyph glyph-name="idieresis" unicode="&#xef;" horiz-adv-x="530" 
d="M356 0h-182v1098h182v-1098zM-18 1395q0 54 28 78t68 24q39 0 68 -24.5t29 -77.5t-29 -78t-68 -25q-40 0 -68 25t-28 78zM357 1395q0 54 28 78t68 24q19 0 36.5 -6t30.5 -18.5t21 -31.5t8 -46q0 -53 -29 -78t-67 -25q-40 0 -68 25t-28 78z" />
    <glyph glyph-name="eth" unicode="&#xf0;" horiz-adv-x="1182" 
d="M1069 573q0 -142 -33.5 -252t-96 -186t-151.5 -115.5t-200 -39.5q-104 0 -191.5 33t-151 96.5t-99 156t-35.5 211.5t31.5 211t90.5 155t143 95.5t189 32.5q102 0 179 -29.5t120 -89.5l8 4q-31 118 -91 214t-150 177l-256 -153l-74 114l217 131q-40 28 -82.5 55.5
t-89.5 53.5l70 123q65 -32 126 -68t120 -80l227 138l74 -113l-195 -117q67 -65 122.5 -143t95 -171.5t61.5 -204t22 -239.5zM881 526q0 56 -17 109.5t-52 94.5t-90 66t-130 25q-77 0 -131.5 -23t-89.5 -67t-51.5 -109.5t-16.5 -150.5q0 -76 16.5 -138.5t52 -107.5t90 -69.5
t130.5 -24.5q154 0 221.5 99.5t67.5 295.5z" />
    <glyph glyph-name="ntilde" unicode="&#xf1;" horiz-adv-x="1206" 
d="M759 1243q-40 0 -79.5 17.5t-77.5 39t-73 39t-67 17.5q-45 0 -69 -26.5t-38 -88.5h-104q5 60 21.5 109t43 83.5t63.5 53t83 18.5q42 0 82.5 -17.5t78.5 -38.5t72.5 -38.5t63.5 -17.5q45 0 68 26t38 88h105q-5 -60 -21.5 -108.5t-43 -83t-63.5 -53.5t-83 -19zM860 0v707
q0 130 -52.5 195t-164.5 65q-81 0 -136 -26t-88.5 -77t-48 -125t-14.5 -170v-569h-182v1098h148l26 -148h10q25 43 59.5 74.5t75.5 52.5t87 31t94 10q183 0 275.5 -95.5t92.5 -305.5v-717h-182z" />
    <glyph glyph-name="ograve" unicode="&#xf2;" horiz-adv-x="1182" 
d="M1069 551q0 -137 -33.5 -243.5t-96 -179t-151.5 -110.5t-200 -38q-103 0 -190 38t-150.5 110.5t-99 179t-35.5 243.5q0 136 33.5 241.5t95.5 178t151.5 110t200.5 37.5q103 0 190 -37.5t150.5 -110t99 -178t35.5 -241.5zM301 551q0 -209 68.5 -314.5t222.5 -105.5
t221.5 105.5t67.5 314.5t-68.5 312.5t-222.5 103.5t-221.5 -103.5t-67.5 -312.5zM746 1241h-120q-35 28 -76 69.5t-79.5 85.5t-70 84.5t-47.5 67.5v21h219q16 -34 37.5 -74.5t44.5 -81t47 -78.5t45 -67v-27z" />
    <glyph glyph-name="oacute" unicode="&#xf3;" horiz-adv-x="1182" 
d="M1069 551q0 -137 -33.5 -243.5t-96 -179t-151.5 -110.5t-200 -38q-103 0 -190 38t-150.5 110.5t-99 179t-35.5 243.5q0 136 33.5 241.5t95.5 178t151.5 110t200.5 37.5q103 0 190 -37.5t150.5 -110t99 -178t35.5 -241.5zM301 551q0 -209 68.5 -314.5t222.5 -105.5
t221.5 105.5t67.5 314.5t-68.5 312.5t-222.5 103.5t-221.5 -103.5t-67.5 -312.5zM473 1268q22 29 45.5 67t47 78.5t44.5 81t37 74.5h219v-21q-16 -27 -47.5 -67.5t-70 -84.5t-79 -85.5t-75.5 -69.5h-121v27z" />
    <glyph glyph-name="ocircumflex" unicode="&#xf4;" horiz-adv-x="1182" 
d="M917 1241h-121q-51 34 -105 82.5t-106 103.5q-54 -55 -107 -103.5t-104 -82.5h-121v27q26 29 60 67t67.5 78.5t63 81t45.5 74.5h192q16 -34 45.5 -74.5t63 -81t68 -78.5t59.5 -67v-27zM1069 551q0 -137 -33.5 -243.5t-96 -179t-151.5 -110.5t-200 -38q-103 0 -190 38
t-150.5 110.5t-99 179t-35.5 243.5q0 136 33.5 241.5t95.5 178t151.5 110t200.5 37.5q103 0 190 -37.5t150.5 -110t99 -178t35.5 -241.5zM301 551q0 -209 68.5 -314.5t222.5 -105.5t221.5 105.5t67.5 314.5t-68.5 312.5t-222.5 103.5t-221.5 -103.5t-67.5 -312.5z" />
    <glyph glyph-name="otilde" unicode="&#xf5;" horiz-adv-x="1182" 
d="M736 1243q-40 0 -79.5 17.5t-77.5 39t-73 39t-67 17.5q-45 0 -69 -26.5t-38 -88.5h-104q5 60 21.5 109t43 83.5t63.5 53t83 18.5q42 0 82.5 -17.5t78.5 -38.5t72.5 -38.5t63.5 -17.5q45 0 68 26t38 88h105q-5 -60 -21.5 -108.5t-43 -83t-63.5 -53.5t-83 -19zM1069 551
q0 -137 -33.5 -243.5t-96 -179t-151.5 -110.5t-200 -38q-103 0 -190 38t-150.5 110.5t-99 179t-35.5 243.5q0 136 33.5 241.5t95.5 178t151.5 110t200.5 37.5q103 0 190 -37.5t150.5 -110t99 -178t35.5 -241.5zM301 551q0 -209 68.5 -314.5t222.5 -105.5t221.5 105.5
t67.5 314.5t-68.5 312.5t-222.5 103.5t-221.5 -103.5t-67.5 -312.5z" />
    <glyph glyph-name="odieresis" unicode="&#xf6;" horiz-adv-x="1182" 
d="M1069 551q0 -137 -33.5 -243.5t-96 -179t-151.5 -110.5t-200 -38q-103 0 -190 38t-150.5 110.5t-99 179t-35.5 243.5q0 136 33.5 241.5t95.5 178t151.5 110t200.5 37.5q103 0 190 -37.5t150.5 -110t99 -178t35.5 -241.5zM301 551q0 -209 68.5 -314.5t222.5 -105.5
t221.5 105.5t67.5 314.5t-68.5 312.5t-222.5 103.5t-221.5 -103.5t-67.5 -312.5zM300 1395q0 54 28 78t68 24q39 0 68 -24.5t29 -77.5t-29 -78t-68 -25q-40 0 -68 25t-28 78zM675 1395q0 54 28 78t68 24q19 0 36.5 -6t30.5 -18.5t21 -31.5t8 -46q0 -53 -29 -78t-67 -25
q-40 0 -68 25t-28 78z" />
    <glyph glyph-name="divide" unicode="&#xf7;" horiz-adv-x="1128" 
d="M102 647v150h924v-150h-924zM449 373q0 35 9 58.5t24.5 38.5t36 21.5t44.5 6.5q23 0 44 -6.5t37 -21.5t25 -38.5t9 -58.5q0 -33 -9 -56.5t-25 -39t-37 -22.5t-44 -7q-24 0 -44.5 7t-36 22.5t-24.5 39t-9 56.5zM449 1071q0 35 9 58.5t24.5 38.5t36 21.5t44.5 6.5
q23 0 44 -6.5t37 -21.5t25 -38.5t9 -58.5q0 -33 -9 -56.5t-25 -39t-37 -22.5t-44 -7q-24 0 -44.5 7t-36 22.5t-24.5 39t-9 56.5z" />
    <glyph glyph-name="oslash" unicode="&#xf8;" horiz-adv-x="1182" 
d="M1071 551q0 -137 -33.5 -243.5t-96 -179t-151.5 -110.5t-200 -38q-125 0 -223 53l-68 -109l-131 74l80 131q-63 72 -98 178.5t-35 243.5q0 136 33.5 241.5t95.5 178t151.5 110t200.5 37.5q63 0 119.5 -14.5t105.5 -42.5l68 108l131 -73l-80 -129q62 -73 96.5 -177.5
t34.5 -238.5zM303 551q0 -84 9.5 -149.5t31.5 -116.5l397 647q-29 17 -66.5 26t-82.5 9q-154 0 -221.5 -103.5t-67.5 -312.5zM883 551q0 159 -39 258l-398 -645q31 -17 67 -25t81 -8q154 0 221.5 105.5t67.5 314.5z" />
    <glyph glyph-name="ugrave" unicode="&#xf9;" horiz-adv-x="1206" 
d="M885 0l-27 147h-10q-25 -43 -59.5 -74.5t-75.5 -52t-87 -30.5t-94 -10q-91 0 -160 23t-115 72t-69.5 125t-23.5 181v717h182v-707q0 -130 53 -195t164 -65q81 0 136 26t88.5 76.5t48 124.5t14.5 170v570h182v-1098h-147zM693 1241h-120q-35 28 -76 69.5t-79.5 85.5
t-70 84.5t-47.5 67.5v21h219q16 -34 37.5 -74.5t44.5 -81t47 -78.5t45 -67v-27z" />
    <glyph glyph-name="uacute" unicode="&#xfa;" horiz-adv-x="1206" 
d="M885 0l-27 147h-10q-25 -43 -59.5 -74.5t-75.5 -52t-87 -30.5t-94 -10q-91 0 -160 23t-115 72t-69.5 125t-23.5 181v717h182v-707q0 -130 53 -195t164 -65q81 0 136 26t88.5 76.5t48 124.5t14.5 170v570h182v-1098h-147zM489 1268q22 29 45.5 67t47 78.5t44.5 81t37 74.5
h219v-21q-16 -27 -47.5 -67.5t-70 -84.5t-79 -85.5t-75.5 -69.5h-121v27z" />
    <glyph glyph-name="ucircumflex" unicode="&#xfb;" horiz-adv-x="1206" 
d="M930 1241h-121q-51 34 -105 82.5t-106 103.5q-54 -55 -107 -103.5t-104 -82.5h-121v27q26 29 60 67t67.5 78.5t63 81t45.5 74.5h192q16 -34 45.5 -74.5t63 -81t68 -78.5t59.5 -67v-27zM885 0l-27 147h-10q-25 -43 -59.5 -74.5t-75.5 -52t-87 -30.5t-94 -10q-91 0 -160 23
t-115 72t-69.5 125t-23.5 181v717h182v-707q0 -130 53 -195t164 -65q81 0 136 26t88.5 76.5t48 124.5t14.5 170v570h182v-1098h-147z" />
    <glyph glyph-name="udieresis" unicode="&#xfc;" horiz-adv-x="1206" 
d="M885 0l-27 147h-10q-25 -43 -59.5 -74.5t-75.5 -52t-87 -30.5t-94 -10q-91 0 -160 23t-115 72t-69.5 125t-23.5 181v717h182v-707q0 -130 53 -195t164 -65q81 0 136 26t88.5 76.5t48 124.5t14.5 170v570h182v-1098h-147zM309 1395q0 54 28 78t68 24q39 0 68 -24.5
t29 -77.5t-29 -78t-68 -25q-40 0 -68 25t-28 78zM684 1395q0 54 28 78t68 24q19 0 36.5 -6t30.5 -18.5t21 -31.5t8 -46q0 -53 -29 -78t-67 -25q-40 0 -68 25t-28 78z" />
    <glyph glyph-name="yacute" unicode="&#xfd;" horiz-adv-x="1001" 
d="M10 1098h189l215 -613q14 -40 28.5 -84t27 -88t21.5 -85t13 -76h6q5 25 16 68t24.5 91.5t28 95.5t25.5 80l199 611h188l-434 -1241q-28 -81 -60.5 -145.5t-75.5 -109.5t-101 -69.5t-138 -24.5q-52 0 -90 5.5t-65 11.5v145q21 -5 53 -8.5t67 -3.5q48 0 83 11.5t61 33.5
t44.5 54t33.5 73l57 160zM407 1268q22 29 45.5 67t47 78.5t44.5 81t37 74.5h219v-21q-16 -27 -47.5 -67.5t-70 -84.5t-79 -85.5t-75.5 -69.5h-121v27z" />
    <glyph glyph-name="thorn" unicode="&#xfe;" horiz-adv-x="1200" 
d="M356 950q23 35 52 65.5t67.5 53t86.5 36t108 13.5q94 0 171 -36t131.5 -107.5t84.5 -177.5t30 -246q0 -141 -30 -247.5t-84.5 -178.5t-131.5 -108.5t-171 -36.5q-59 0 -107 13t-86.5 34.5t-68 50.5t-52.5 61h-12q3 -34 6 -65q2 -26 4 -53.5t2 -43.5v-469h-182v2048h182
v-458l-8 -148h8zM635 967q-76 0 -128.5 -23t-85 -70t-48 -117t-17.5 -165v-41q0 -101 13.5 -179.5t46 -132t86.5 -81t135 -27.5q135 0 198.5 109t63.5 313q0 208 -63.5 311t-200.5 103z" />
    <glyph glyph-name="ydieresis" unicode="&#xff;" horiz-adv-x="1001" 
d="M10 1098h189l215 -613q14 -40 28.5 -84t27 -88t21.5 -85t13 -76h6q5 25 16 68t24.5 91.5t28 95.5t25.5 80l199 611h188l-434 -1241q-28 -81 -60.5 -145.5t-75.5 -109.5t-101 -69.5t-138 -24.5q-52 0 -90 5.5t-65 11.5v145q21 -5 53 -8.5t67 -3.5q48 0 83 11.5t61 33.5
t44.5 54t33.5 73l57 160zM228 1395q0 54 28 78t68 24q39 0 68 -24.5t29 -77.5t-29 -78t-68 -25q-40 0 -68 25t-28 78zM603 1395q0 54 28 78t68 24q19 0 36.5 -6t30.5 -18.5t21 -31.5t8 -46q0 -53 -29 -78t-67 -25q-40 0 -68 25t-28 78z" />
    <glyph glyph-name="Amacron" unicode="&#x100;" horiz-adv-x="1309" 
d="M365 1724h608v-145h-608v145zM1055 0l-160 453h-545l-162 -453h-188l537 1468h170l538 -1468h-190zM836 618l-148 424q-6 18 -14.5 44t-17.5 56t-18 62.5t-17 63.5q-7 -31 -16 -64t-18 -63.5t-17.5 -56t-14.5 -42.5l-145 -424h426z" />
    <glyph glyph-name="amacron" unicode="&#x101;" horiz-adv-x="1149" 
d="M292 1386h608v-145h-608v145zM793 0l-37 152h-8q-33 -45 -66 -77.5t-72 -53.5t-87 -31t-111 -10q-69 0 -127 19.5t-100.5 60t-66.5 102t-24 145.5q0 164 115.5 252t351.5 96l184 7v69q0 67 -14.5 112t-42 72.5t-68 39.5t-92.5 12q-83 0 -154.5 -24t-137.5 -58l-64 137
q74 40 165 68t191 28q102 0 176.5 -20.5t123 -65t72.5 -113.5t24 -167v-752h-131zM459 127q61 0 113 19t90 57.5t59.5 97t21.5 137.5v99l-143 -7q-90 -4 -151 -20t-97.5 -44.5t-52.5 -69t-16 -91.5q0 -92 48.5 -135t127.5 -43z" />
    <glyph glyph-name="Abreve" unicode="&#x102;" horiz-adv-x="1309" 
d="M647 1579q-141 0 -222.5 69t-90.5 206h110q8 -71 50 -100.5t157 -29.5q101 0 150 31.5t57 98.5h113q-13 -131 -99 -203t-225 -72zM1055 0l-160 453h-545l-162 -453h-188l537 1468h170l538 -1468h-190zM836 618l-148 424q-6 18 -14.5 44t-17.5 56t-18 62.5t-17 63.5
q-7 -31 -16 -64t-18 -63.5t-17.5 -56t-14.5 -42.5l-145 -424h426z" />
    <glyph glyph-name="abreve" unicode="&#x103;" horiz-adv-x="1149" 
d="M576 1241q-141 0 -222.5 69t-90.5 206h110q8 -71 50 -100.5t157 -29.5q101 0 150 31.5t57 98.5h113q-13 -131 -99 -203t-225 -72zM793 0l-37 152h-8q-33 -45 -66 -77.5t-72 -53.5t-87 -31t-111 -10q-69 0 -127 19.5t-100.5 60t-66.5 102t-24 145.5q0 164 115.5 252
t351.5 96l184 7v69q0 67 -14.5 112t-42 72.5t-68 39.5t-92.5 12q-83 0 -154.5 -24t-137.5 -58l-64 137q74 40 165 68t191 28q102 0 176.5 -20.5t123 -65t72.5 -113.5t24 -167v-752h-131zM459 127q61 0 113 19t90 57.5t59.5 97t21.5 137.5v99l-143 -7q-90 -4 -151 -20
t-97.5 -44.5t-52.5 -69t-16 -91.5q0 -92 48.5 -135t127.5 -43z" />
    <glyph glyph-name="Aogonek" unicode="&#x104;" horiz-adv-x="1309" 
d="M1106 -238q0 -46 24.5 -69t67.5 -23q44 0 99 13v-115q-69 -19 -127 -19q-211 0 -211 193q0 139 160 258h127q-70 -66 -105 -120.5t-35 -117.5zM1055 0l-160 453h-545l-162 -453h-188l537 1468h170l538 -1468h-190zM836 618l-148 424q-6 18 -14.5 44t-17.5 56t-18 62.5
t-17 63.5q-7 -31 -16 -64t-18 -63.5t-17.5 -56t-14.5 -42.5l-145 -424h426z" />
    <glyph glyph-name="aogonek" unicode="&#x105;" horiz-adv-x="1149" 
d="M839 -238q0 -46 24.5 -69t67.5 -23q44 0 99 13v-115q-69 -19 -127 -19q-211 0 -211 193q0 139 160 258h127q-70 -66 -105 -120.5t-35 -117.5zM793 0l-37 152h-8q-33 -45 -66 -77.5t-72 -53.5t-87 -31t-111 -10q-69 0 -127 19.5t-100.5 60t-66.5 102t-24 145.5
q0 164 115.5 252t351.5 96l184 7v69q0 67 -14.5 112t-42 72.5t-68 39.5t-92.5 12q-83 0 -154.5 -24t-137.5 -58l-64 137q74 40 165 68t191 28q102 0 176.5 -20.5t123 -65t72.5 -113.5t24 -167v-752h-131zM459 127q61 0 113 19t90 57.5t59.5 97t21.5 137.5v99l-143 -7
q-90 -4 -151 -20t-97.5 -44.5t-52.5 -69t-16 -91.5q0 -92 48.5 -135t127.5 -43z" />
    <glyph glyph-name="Cacute" unicode="&#x106;" horiz-adv-x="1294" 
d="M793 1319q-107 0 -194 -40.5t-148.5 -116.5t-95 -185t-33.5 -246q0 -141 29.5 -250.5t88.5 -184.5t147 -114t206 -39q89 0 169 17.5t158 40.5v-162q-39 -15 -78 -26.5t-81.5 -18.5t-91 -10.5t-107.5 -3.5q-164 0 -284 54t-198.5 153t-116.5 238t-38 308q0 166 43.5 304
t128 237t209.5 154t287 55q108 0 206 -22t177 -64l-78 -156q-63 32 -137 55t-168 23zM657 1606q22 29 45.5 67t47 78.5t44.5 81t37 74.5h219v-21q-16 -27 -47.5 -67.5t-70 -84.5t-79 -85.5t-75.5 -69.5h-121v27z" />
    <glyph glyph-name="cacute" unicode="&#x107;" horiz-adv-x="983" 
d="M594 -20q-101 0 -189 31.5t-153 100t-102 175t-37 256.5q0 157 38 266.5t104.5 178t155.5 99.5t191 31q78 0 152.5 -17t124.5 -42l-54 -154q-23 10 -51 19.5t-58 17t-59 12t-55 4.5q-157 0 -229 -100.5t-72 -312.5q0 -211 72.5 -308.5t220.5 -97.5q81 0 146.5 18.5
t119.5 43.5v-162q-54 -29 -115.5 -44t-150.5 -15zM465 1268q22 29 45.5 67t47 78.5t44.5 81t37 74.5h219v-21q-16 -27 -47.5 -67.5t-70 -84.5t-79 -85.5t-75.5 -69.5h-121v27z" />
    <glyph glyph-name="Ccircumflex" unicode="&#x108;" horiz-adv-x="1294" 
d="M1112 1579h-121q-51 34 -105 82.5t-106 103.5q-54 -55 -107 -103.5t-104 -82.5h-121v27q26 29 60 67t67.5 78.5t63 81t45.5 74.5h192q16 -34 45.5 -74.5t63 -81t68 -78.5t59.5 -67v-27zM793 1319q-107 0 -194 -40.5t-148.5 -116.5t-95 -185t-33.5 -246
q0 -141 29.5 -250.5t88.5 -184.5t147 -114t206 -39q89 0 169 17.5t158 40.5v-162q-39 -15 -78 -26.5t-81.5 -18.5t-91 -10.5t-107.5 -3.5q-164 0 -284 54t-198.5 153t-116.5 238t-38 308q0 166 43.5 304t128 237t209.5 154t287 55q108 0 206 -22t177 -64l-78 -156
q-63 32 -137 55t-168 23z" />
    <glyph glyph-name="ccircumflex" unicode="&#x109;" horiz-adv-x="983" 
d="M903 1241h-121q-51 34 -105 82.5t-106 103.5q-54 -55 -107 -103.5t-104 -82.5h-121v27q26 29 60 67t67.5 78.5t63 81t45.5 74.5h192q16 -34 45.5 -74.5t63 -81t68 -78.5t59.5 -67v-27zM594 -20q-101 0 -189 31.5t-153 100t-102 175t-37 256.5q0 157 38 266.5t104.5 178
t155.5 99.5t191 31q78 0 152.5 -17t124.5 -42l-54 -154q-23 10 -51 19.5t-58 17t-59 12t-55 4.5q-157 0 -229 -100.5t-72 -312.5q0 -211 72.5 -308.5t220.5 -97.5q81 0 146.5 18.5t119.5 43.5v-162q-54 -29 -115.5 -44t-150.5 -15z" />
    <glyph glyph-name="Cdotaccent" unicode="&#x10a;" horiz-adv-x="1294" 
d="M690 1733q0 60 30.5 87t75.5 27q42 0 73.5 -27t31.5 -87q0 -59 -31.5 -87t-73.5 -28q-45 0 -75.5 28t-30.5 87zM793 1319q-107 0 -194 -40.5t-148.5 -116.5t-95 -185t-33.5 -246q0 -141 29.5 -250.5t88.5 -184.5t147 -114t206 -39q89 0 169 17.5t158 40.5v-162
q-39 -15 -78 -26.5t-81.5 -18.5t-91 -10.5t-107.5 -3.5q-164 0 -284 54t-198.5 153t-116.5 238t-38 308q0 166 43.5 304t128 237t209.5 154t287 55q108 0 206 -22t177 -64l-78 -156q-63 32 -137 55t-168 23z" />
    <glyph glyph-name="cdotaccent" unicode="&#x10b;" horiz-adv-x="983" 
d="M494 1395q0 60 30.5 87t75.5 27q42 0 73.5 -27t31.5 -87q0 -59 -31.5 -87t-73.5 -28q-45 0 -75.5 28t-30.5 87zM594 -20q-101 0 -189 31.5t-153 100t-102 175t-37 256.5q0 157 38 266.5t104.5 178t155.5 99.5t191 31q78 0 152.5 -17t124.5 -42l-54 -154q-23 10 -51 19.5
t-58 17t-59 12t-55 4.5q-157 0 -229 -100.5t-72 -312.5q0 -211 72.5 -308.5t220.5 -97.5q81 0 146.5 18.5t119.5 43.5v-162q-54 -29 -115.5 -44t-150.5 -15z" />
    <glyph glyph-name="Ccaron" unicode="&#x10c;" horiz-adv-x="1294" 
d="M450 1907h123q114 -74 219 -189q126 126 223 189h127v-27q-205 -205 -256 -301h-184q-60 102 -252 301v27zM793 1319q-107 0 -194 -40.5t-148.5 -116.5t-95 -185t-33.5 -246q0 -141 29.5 -250.5t88.5 -184.5t147 -114t206 -39q89 0 169 17.5t158 40.5v-162
q-39 -15 -78 -26.5t-81.5 -18.5t-91 -10.5t-107.5 -3.5q-164 0 -284 54t-198.5 153t-116.5 238t-38 308q0 166 43.5 304t128 237t209.5 154t287 55q108 0 206 -22t177 -64l-78 -156q-63 32 -137 55t-168 23z" />
    <glyph glyph-name="ccaron" unicode="&#x10d;" horiz-adv-x="983" 
d="M249 1569h123q114 -74 219 -189q126 126 223 189h127v-27q-205 -205 -256 -301h-184q-60 102 -252 301v27zM594 -20q-101 0 -189 31.5t-153 100t-102 175t-37 256.5q0 157 38 266.5t104.5 178t155.5 99.5t191 31q78 0 152.5 -17t124.5 -42l-54 -154q-23 10 -51 19.5
t-58 17t-59 12t-55 4.5q-157 0 -229 -100.5t-72 -312.5q0 -211 72.5 -308.5t220.5 -97.5q81 0 146.5 18.5t119.5 43.5v-162q-54 -29 -115.5 -44t-150.5 -15z" />
    <glyph glyph-name="Dcaron" unicode="&#x10e;" horiz-adv-x="1495" 
d="M348 1907h123q114 -74 219 -189q126 126 223 189h127v-27q-205 -205 -256 -301h-184q-60 102 -252 301v27zM1276 745q0 -185 -48 -324.5t-139 -233t-223.5 -140.5t-300.5 -47h-366v1462h407q153 0 277 -46t211 -136.5t134.5 -224.5t47.5 -310zM1079 739q0 146 -33 252.5
t-96 175.5t-155 102.5t-209 33.5h-201v-1143h162q264 0 398 146t134 433z" />
    <glyph glyph-name="dcaron" unicode="&#x10f;" horiz-adv-x="1260" 
d="M1177 1253q23 66 42.5 159t25.5 144h178v-18q-13 -53 -56 -145t-92 -164h-98v24zM852 147h-8q-22 -34 -51.5 -64.5t-68 -53.5t-86.5 -36t-108 -13q-93 0 -170 36t-132 107.5t-85 177.5t-30 246q0 141 30 247.5t85 178.5t132 108.5t170 36.5q59 0 107 -13t86.5 -35
t68.5 -51t52 -61h12q-3 34 -6 65q-2 26 -4 53.5t-2 43.5v436h182v-1556h-147zM565 131q76 0 128.5 23t85 70t48 117.5t17.5 164.5v41q0 101 -13.5 179.5t-46 132t-86.5 81t-135 27.5q-135 0 -198.5 -109t-63.5 -313q0 -209 63.5 -311.5t200.5 -102.5z" />
    <glyph glyph-name="Dcroat" unicode="&#x110;" horiz-adv-x="1495" 
d="M47 805h152v657h407q153 0 277 -46t211 -136.5t134.5 -224.5t47.5 -310q0 -185 -48 -324.5t-139 -233t-223.5 -140.5t-300.5 -47h-366v643h-152v162zM1079 739q0 146 -33 252.5t-96 175.5t-155 102.5t-209 33.5h-201v-498h336v-162h-336v-483h162q264 0 398 146t134 433z
" />
    <glyph glyph-name="dcroat" unicode="&#x111;" horiz-adv-x="1264" 
d="M563 -20q-214 0 -332 147t-118 416q0 271 117.5 420t332.5 149q223 0 342 -162h13q-3 14 -8 69t-5 95v125h-436v135h436v182h180v-182h156v-135h-156v-1239h-147l-27 147h-8q-115 -167 -340 -167zM594 129q163 0 238 88.5t75 290.5v35q0 230 -76 325t-241 95
q-140 0 -214.5 -107t-74.5 -315q0 -197 72 -304.5t221 -107.5z" />
    <glyph glyph-name="Emacron" unicode="&#x112;" horiz-adv-x="1139" 
d="M303 1724h608v-145h-608v145zM958 0h-759v1462h759v-164h-573v-452h535v-162h-535v-520h573v-164z" />
    <glyph glyph-name="emacron" unicode="&#x113;" horiz-adv-x="1155" 
d="M307 1386h608v-145h-608v145zM608 -20q-110 0 -201 37t-156.5 108t-101.5 176t-36 240q0 136 33 243t93 181.5t143.5 113.5t184.5 39q99 0 178 -35.5t134 -100t84.5 -155t29.5 -200.5v-113h-692q5 -193 81.5 -284t227.5 -91q51 0 94.5 5t84 14.5t78.5 24t77 32.5v-162
q-40 -19 -78.5 -33t-79 -23t-84 -13t-94.5 -4zM563 967q-114 0 -180.5 -78t-77.5 -227h492q0 68 -13.5 124.5t-42 96.5t-72.5 62t-106 22z" />
    <glyph glyph-name="Ebreve" unicode="&#x114;" horiz-adv-x="1139" 
d="M612 1579q-141 0 -222.5 69t-90.5 206h110q8 -71 50 -100.5t157 -29.5q101 0 150 31.5t57 98.5h113q-13 -131 -99 -203t-225 -72zM958 0h-759v1462h759v-164h-573v-452h535v-162h-535v-520h573v-164z" />
    <glyph glyph-name="ebreve" unicode="&#x115;" horiz-adv-x="1155" 
d="M597 1241q-141 0 -222.5 69t-90.5 206h110q8 -71 50 -100.5t157 -29.5q101 0 150 31.5t57 98.5h113q-13 -131 -99 -203t-225 -72zM608 -20q-110 0 -201 37t-156.5 108t-101.5 176t-36 240q0 136 33 243t93 181.5t143.5 113.5t184.5 39q99 0 178 -35.5t134 -100t84.5 -155
t29.5 -200.5v-113h-692q5 -193 81.5 -284t227.5 -91q51 0 94.5 5t84 14.5t78.5 24t77 32.5v-162q-40 -19 -78.5 -33t-79 -23t-84 -13t-94.5 -4zM563 967q-114 0 -180.5 -78t-77.5 -227h492q0 68 -13.5 124.5t-42 96.5t-72.5 62t-106 22z" />
    <glyph glyph-name="Edotaccent" unicode="&#x116;" horiz-adv-x="1139" 
d="M518 1704q0 60 30.5 87t75.5 27q42 0 73.5 -27t31.5 -87q0 -59 -31.5 -87t-73.5 -28q-45 0 -75.5 28t-30.5 87zM958 0h-759v1462h759v-164h-573v-452h535v-162h-535v-520h573v-164z" />
    <glyph glyph-name="edotaccent" unicode="&#x117;" horiz-adv-x="1155" 
d="M498 1395q0 60 30.5 87t75.5 27q42 0 73.5 -27t31.5 -87q0 -59 -31.5 -87t-73.5 -28q-45 0 -75.5 28t-30.5 87zM608 -20q-110 0 -201 37t-156.5 108t-101.5 176t-36 240q0 136 33 243t93 181.5t143.5 113.5t184.5 39q99 0 178 -35.5t134 -100t84.5 -155t29.5 -200.5v-113
h-692q5 -193 81.5 -284t227.5 -91q51 0 94.5 5t84 14.5t78.5 24t77 32.5v-162q-40 -19 -78.5 -33t-79 -23t-84 -13t-94.5 -4zM563 967q-114 0 -180.5 -78t-77.5 -227h492q0 68 -13.5 124.5t-42 96.5t-72.5 62t-106 22z" />
    <glyph glyph-name="Eogonek" unicode="&#x118;" horiz-adv-x="1139" 
d="M803 -238q0 -46 24.5 -69t67.5 -23q44 0 99 13v-115q-69 -19 -127 -19q-211 0 -211 193q0 139 160 258h127q-70 -66 -105 -120.5t-35 -117.5zM958 0h-759v1462h759v-164h-573v-452h535v-162h-535v-520h573v-164z" />
    <glyph glyph-name="eogonek" unicode="&#x119;" horiz-adv-x="1155" 
d="M792 -209q0 -46 24.5 -69t67.5 -23q44 0 99 13v-115q-69 -19 -127 -19q-211 0 -211 193q0 139 160 258h127q-70 -66 -105 -120.5t-35 -117.5zM608 -20q-110 0 -201 37t-156.5 108t-101.5 176t-36 240q0 136 33 243t93 181.5t143.5 113.5t184.5 39q99 0 178 -35.5
t134 -100t84.5 -155t29.5 -200.5v-113h-692q5 -193 81.5 -284t227.5 -91q51 0 94.5 5t84 14.5t78.5 24t77 32.5v-162q-40 -19 -78.5 -33t-79 -23t-84 -13t-94.5 -4zM563 967q-114 0 -180.5 -78t-77.5 -227h492q0 68 -13.5 124.5t-42 96.5t-72.5 62t-106 22z" />
    <glyph glyph-name="Ecaron" unicode="&#x11a;" horiz-adv-x="1139" 
d="M272 1907h123q114 -74 219 -189q126 126 223 189h127v-27q-205 -205 -256 -301h-184q-60 102 -252 301v27zM958 0h-759v1462h759v-164h-573v-452h535v-162h-535v-520h573v-164z" />
    <glyph glyph-name="ecaron" unicode="&#x11b;" horiz-adv-x="1155" 
d="M257 1569h123q114 -74 219 -189q126 126 223 189h127v-27q-205 -205 -256 -301h-184q-60 102 -252 301v27zM608 -20q-110 0 -201 37t-156.5 108t-101.5 176t-36 240q0 136 33 243t93 181.5t143.5 113.5t184.5 39q99 0 178 -35.5t134 -100t84.5 -155t29.5 -200.5v-113
h-692q5 -193 81.5 -284t227.5 -91q51 0 94.5 5t84 14.5t78.5 24t77 32.5v-162q-40 -19 -78.5 -33t-79 -23t-84 -13t-94.5 -4zM563 967q-114 0 -180.5 -78t-77.5 -227h492q0 68 -13.5 124.5t-42 96.5t-72.5 62t-106 22z" />
    <glyph glyph-name="Gcircumflex" unicode="&#x11c;" horiz-adv-x="1491" 
d="M1170 1579h-121q-51 34 -105 82.5t-106 103.5q-54 -55 -107 -103.5t-104 -82.5h-121v27q26 29 60 67t67.5 78.5t63 81t45.5 74.5h192q16 -34 45.5 -74.5t63 -81t68 -78.5t59.5 -67v-27zM782 772h484v-717q-55 -18 -111 -32t-115 -23.5t-124 -14.5t-140 -5
q-157 0 -278 52.5t-204 150t-126 237t-43 313.5q0 172 47.5 311t138.5 236.5t224.5 150t304.5 52.5q111 0 213 -22t190 -64l-72 -162q-36 17 -77.5 32t-85.5 26.5t-90.5 18.5t-92.5 7q-122 0 -216 -40.5t-157.5 -116.5t-96.5 -185t-33 -246q0 -130 27.5 -238t87.5 -186
t155 -121t229 -43q44 0 80.5 2.5t67.5 6.5t58.5 9.5t53.5 10.5v436h-299v164z" />
    <glyph glyph-name="gcircumflex" unicode="&#x11d;" horiz-adv-x="1260" 
d="M932 1241h-121q-51 34 -105 82.5t-106 103.5q-54 -55 -107 -103.5t-104 -82.5h-121v27q26 29 60 67t67.5 78.5t63 81t45.5 74.5h192q16 -34 45.5 -74.5t63 -81t68 -78.5t59.5 -67v-27zM1020 1098v-113l-197 -27q28 -35 47 -89.5t19 -123.5q0 -76 -23.5 -140.5t-71 -111.5
t-117.5 -73.5t-163 -26.5q-22 0 -44 0.5t-36 3.5q-17 -10 -33.5 -22.5t-30 -28.5t-22 -36t-8.5 -44q0 -27 12 -43.5t32.5 -25.5t48.5 -12t59 -3h176q93 0 157 -23.5t104.5 -63.5t58.5 -94.5t18 -115.5q0 -88 -32.5 -158t-99.5 -118.5t-169.5 -74.5t-241.5 -26
q-107 0 -187 21t-133 61t-79.5 96.5t-26.5 127.5q0 60 19.5 105.5t52.5 78.5t76.5 54t90.5 32q-42 19 -69 60t-27 94q0 61 32 105.5t101 86.5q-43 18 -78.5 49.5t-60 72t-38 88.5t-13.5 99q0 89 25 159t74 119t122 75t170 26q37 0 76.5 -5.5t66.5 -14.5h363zM209 -180
q0 -37 13 -69t42.5 -55t78 -36.5t120.5 -13.5q186 0 278.5 57.5t92.5 165.5q0 46 -12 75t-39.5 45.5t-72.5 22.5t-110 6h-176q-35 0 -73 -8t-69.5 -30t-52 -60.5t-20.5 -99.5zM301 745q0 -115 54 -171t153 -56q100 0 151.5 55.5t51.5 174.5q0 123 -52.5 181t-152.5 58
q-99 0 -152 -60t-53 -182z" />
    <glyph glyph-name="Gbreve" unicode="&#x11e;" horiz-adv-x="1491" 
d="M848 1579q-141 0 -222.5 69t-90.5 206h110q8 -71 50 -100.5t157 -29.5q101 0 150 31.5t57 98.5h113q-13 -131 -99 -203t-225 -72zM782 772h484v-717q-55 -18 -111 -32t-115 -23.5t-124 -14.5t-140 -5q-157 0 -278 52.5t-204 150t-126 237t-43 313.5q0 172 47.5 311
t138.5 236.5t224.5 150t304.5 52.5q111 0 213 -22t190 -64l-72 -162q-36 17 -77.5 32t-85.5 26.5t-90.5 18.5t-92.5 7q-122 0 -216 -40.5t-157.5 -116.5t-96.5 -185t-33 -246q0 -130 27.5 -238t87.5 -186t155 -121t229 -43q44 0 80.5 2.5t67.5 6.5t58.5 9.5t53.5 10.5v436
h-299v164z" />
    <glyph glyph-name="gbreve" unicode="&#x11f;" horiz-adv-x="1260" 
d="M614 1241q-141 0 -222.5 69t-90.5 206h110q8 -71 50 -100.5t157 -29.5q101 0 150 31.5t57 98.5h113q-13 -131 -99 -203t-225 -72zM1020 1098v-113l-197 -27q28 -35 47 -89.5t19 -123.5q0 -76 -23.5 -140.5t-71 -111.5t-117.5 -73.5t-163 -26.5q-22 0 -44 0.5t-36 3.5
q-17 -10 -33.5 -22.5t-30 -28.5t-22 -36t-8.5 -44q0 -27 12 -43.5t32.5 -25.5t48.5 -12t59 -3h176q93 0 157 -23.5t104.5 -63.5t58.5 -94.5t18 -115.5q0 -88 -32.5 -158t-99.5 -118.5t-169.5 -74.5t-241.5 -26q-107 0 -187 21t-133 61t-79.5 96.5t-26.5 127.5
q0 60 19.5 105.5t52.5 78.5t76.5 54t90.5 32q-42 19 -69 60t-27 94q0 61 32 105.5t101 86.5q-43 18 -78.5 49.5t-60 72t-38 88.5t-13.5 99q0 89 25 159t74 119t122 75t170 26q37 0 76.5 -5.5t66.5 -14.5h363zM209 -180q0 -37 13 -69t42.5 -55t78 -36.5t120.5 -13.5
q186 0 278.5 57.5t92.5 165.5q0 46 -12 75t-39.5 45.5t-72.5 22.5t-110 6h-176q-35 0 -73 -8t-69.5 -30t-52 -60.5t-20.5 -99.5zM301 745q0 -115 54 -171t153 -56q100 0 151.5 55.5t51.5 174.5q0 123 -52.5 181t-152.5 58q-99 0 -152 -60t-53 -182z" />
    <glyph glyph-name="Gdotaccent" unicode="&#x120;" horiz-adv-x="1491" 
d="M760 1733q0 60 30.5 87t75.5 27q42 0 73.5 -27t31.5 -87q0 -59 -31.5 -87t-73.5 -28q-45 0 -75.5 28t-30.5 87zM782 772h484v-717q-55 -18 -111 -32t-115 -23.5t-124 -14.5t-140 -5q-157 0 -278 52.5t-204 150t-126 237t-43 313.5q0 172 47.5 311t138.5 236.5t224.5 150
t304.5 52.5q111 0 213 -22t190 -64l-72 -162q-36 17 -77.5 32t-85.5 26.5t-90.5 18.5t-92.5 7q-122 0 -216 -40.5t-157.5 -116.5t-96.5 -185t-33 -246q0 -130 27.5 -238t87.5 -186t155 -121t229 -43q44 0 80.5 2.5t67.5 6.5t58.5 9.5t53.5 10.5v436h-299v164z" />
    <glyph glyph-name="gdotaccent" unicode="&#x121;" horiz-adv-x="1260" 
d="M506 1395q0 60 30.5 87t75.5 27q42 0 73.5 -27t31.5 -87q0 -59 -31.5 -87t-73.5 -28q-45 0 -75.5 28t-30.5 87zM1020 1098v-113l-197 -27q28 -35 47 -89.5t19 -123.5q0 -76 -23.5 -140.5t-71 -111.5t-117.5 -73.5t-163 -26.5q-22 0 -44 0.5t-36 3.5q-17 -10 -33.5 -22.5
t-30 -28.5t-22 -36t-8.5 -44q0 -27 12 -43.5t32.5 -25.5t48.5 -12t59 -3h176q93 0 157 -23.5t104.5 -63.5t58.5 -94.5t18 -115.5q0 -88 -32.5 -158t-99.5 -118.5t-169.5 -74.5t-241.5 -26q-107 0 -187 21t-133 61t-79.5 96.5t-26.5 127.5q0 60 19.5 105.5t52.5 78.5t76.5 54
t90.5 32q-42 19 -69 60t-27 94q0 61 32 105.5t101 86.5q-43 18 -78.5 49.5t-60 72t-38 88.5t-13.5 99q0 89 25 159t74 119t122 75t170 26q37 0 76.5 -5.5t66.5 -14.5h363zM209 -180q0 -37 13 -69t42.5 -55t78 -36.5t120.5 -13.5q186 0 278.5 57.5t92.5 165.5q0 46 -12 75
t-39.5 45.5t-72.5 22.5t-110 6h-176q-35 0 -73 -8t-69.5 -30t-52 -60.5t-20.5 -99.5zM301 745q0 -115 54 -171t153 -56q100 0 151.5 55.5t51.5 174.5q0 123 -52.5 181t-152.5 58q-99 0 -152 -60t-53 -182z" />
    <glyph glyph-name="uni0122" unicode="&#x122;" horiz-adv-x="1491" 
d="M660 -428q22 51 49 144t35 159h178v-18q-16 -63 -64.5 -156.5t-99.5 -153.5h-98v25zM782 772h484v-717q-55 -18 -111 -32t-115 -23.5t-124 -14.5t-140 -5q-157 0 -278 52.5t-204 150t-126 237t-43 313.5q0 172 47.5 311t138.5 236.5t224.5 150t304.5 52.5q111 0 213 -22
t190 -64l-72 -162q-36 17 -77.5 32t-85.5 26.5t-90.5 18.5t-92.5 7q-122 0 -216 -40.5t-157.5 -116.5t-96.5 -185t-33 -246q0 -130 27.5 -238t87.5 -186t155 -121t229 -43q44 0 80.5 2.5t67.5 6.5t58.5 9.5t53.5 10.5v436h-299v164z" />
    <glyph glyph-name="uni0123" unicode="&#x123;" horiz-adv-x="1260" 
d="M776 1544q-27 -59 -53 -152t-33 -151h-178v19q15 56 64.5 152t99.5 157h100v-25zM1020 1098v-113l-197 -27q28 -35 47 -89.5t19 -123.5q0 -76 -23.5 -140.5t-71 -111.5t-117.5 -73.5t-163 -26.5q-22 0 -44 0.5t-36 3.5q-17 -10 -33.5 -22.5t-30 -28.5t-22 -36t-8.5 -44
q0 -27 12 -43.5t32.5 -25.5t48.5 -12t59 -3h176q93 0 157 -23.5t104.5 -63.5t58.5 -94.5t18 -115.5q0 -88 -32.5 -158t-99.5 -118.5t-169.5 -74.5t-241.5 -26q-107 0 -187 21t-133 61t-79.5 96.5t-26.5 127.5q0 60 19.5 105.5t52.5 78.5t76.5 54t90.5 32q-42 19 -69 60
t-27 94q0 61 32 105.5t101 86.5q-43 18 -78.5 49.5t-60 72t-38 88.5t-13.5 99q0 89 25 159t74 119t122 75t170 26q37 0 76.5 -5.5t66.5 -14.5h363zM209 -180q0 -37 13 -69t42.5 -55t78 -36.5t120.5 -13.5q186 0 278.5 57.5t92.5 165.5q0 46 -12 75t-39.5 45.5t-72.5 22.5
t-110 6h-176q-35 0 -73 -8t-69.5 -30t-52 -60.5t-20.5 -99.5zM301 745q0 -115 54 -171t153 -56q100 0 151.5 55.5t51.5 174.5q0 123 -52.5 181t-152.5 58q-99 0 -152 -60t-53 -182z" />
    <glyph glyph-name="Hcircumflex" unicode="&#x124;" horiz-adv-x="1518" 
d="M1072 1579h-121q-51 34 -105 82.5t-106 103.5q-54 -55 -107 -103.5t-104 -82.5h-121v27q26 29 60 67t67.5 78.5t63 81t45.5 74.5h192q16 -34 45.5 -74.5t63 -81t68 -78.5t59.5 -67v-27zM1237 0h-186v682h-666v-682h-186v1462h186v-616h666v616h186v-1462z" />
    <glyph glyph-name="hcircumflex" unicode="&#x125;" horiz-adv-x="1266" 
d="M955 1634h-121q-51 34 -105 82.5t-106 103.5q-54 -55 -107 -103.5t-104 -82.5h-121v27q26 29 60 67t67.5 78.5t63 81t45.5 74.5h192q16 -34 45.5 -74.5t63 -81t68 -78.5t59.5 -67v-27zM860 0v707q0 130 -52.5 195t-164.5 65q-81 0 -136 -26t-88.5 -77t-48 -125
t-14.5 -170v-569h-182v1556h182v-462l-8 -144h10q25 43 59.5 74.5t75.5 52.5t87 31t94 10q183 0 275.5 -95.5t92.5 -305.5v-717h-182z" />
    <glyph glyph-name="Hbar" unicode="&#x126;" horiz-adv-x="1518" 
d="M199 1219v243h184v-243h750v243h184v-243h199v-148h-199v-1071h-184v682h-750v-682h-184v1071h-199v148h199zM1133 844v227h-750v-227h750z" />
    <glyph glyph-name="hbar" unicode="&#x127;" horiz-adv-x="1266" 
d="M922 0v662q0 133 -59.5 198.5t-186.5 65.5q-169 0 -245.5 -92.5t-76.5 -305.5v-528h-180v1237h-156v135h156v184h180v-184h434v-135h-434v-178q0 -88 -10 -152h12q53 85 144.5 127.5t199.5 42.5q199 0 299.5 -96.5t100.5 -306.5v-674h-178z" />
    <glyph glyph-name="Itilde" unicode="&#x128;" horiz-adv-x="694" 
d="M480 1581q-40 0 -79.5 17.5t-77.5 39t-73 39t-67 17.5q-45 0 -69 -26.5t-38 -88.5h-104q5 60 21.5 109t43 83.5t63.5 53t83 18.5q42 0 82.5 -17.5t78.5 -38.5t72.5 -38.5t63.5 -17.5q45 0 68 26t38 88h105q-5 -60 -21.5 -108.5t-43 -83t-63.5 -53.5t-83 -19zM612 0h-530
v102l172 41v1176l-172 41v102h530v-102l-172 -41v-1176l172 -41v-102z" />
    <glyph glyph-name="itilde" unicode="&#x129;" horiz-adv-x="528" 
d="M398 1243q-40 0 -79.5 17.5t-77.5 39t-73 39t-67 17.5q-45 0 -69 -26.5t-38 -88.5h-104q5 60 21.5 109t43 83.5t63.5 53t83 18.5q42 0 82.5 -17.5t78.5 -38.5t72.5 -38.5t63.5 -17.5q45 0 68 26t38 88h105q-5 -60 -21.5 -108.5t-43 -83t-63.5 -53.5t-83 -19zM356 0h-182
v1098h182v-1098z" />
    <glyph glyph-name="Imacron" unicode="&#x12a;" horiz-adv-x="694" 
d="M44 1724h608v-145h-608v145zM612 0h-530v102l172 41v1176l-172 41v102h530v-102l-172 -41v-1176l172 -41v-102z" />
    <glyph glyph-name="imacron" unicode="&#x12b;" horiz-adv-x="528" 
d="M-36 1386h608v-145h-608v145zM356 0h-182v1098h182v-1098z" />
    <glyph glyph-name="Ibreve" unicode="&#x12c;" horiz-adv-x="694" 
d="M343 1579q-141 0 -222.5 69t-90.5 206h110q8 -71 50 -100.5t157 -29.5q101 0 150 31.5t57 98.5h113q-13 -131 -99 -203t-225 -72zM612 0h-530v102l172 41v1176l-172 41v102h530v-102l-172 -41v-1176l172 -41v-102z" />
    <glyph glyph-name="ibreve" unicode="&#x12d;" horiz-adv-x="528" 
d="M259 1241q-141 0 -222.5 69t-90.5 206h110q8 -71 50 -100.5t157 -29.5q101 0 150 31.5t57 98.5h113q-13 -131 -99 -203t-225 -72zM356 0h-182v1098h182v-1098z" />
    <glyph glyph-name="Iogonek" unicode="&#x12e;" horiz-adv-x="694" 
d="M327 -238q0 -46 24.5 -69t67.5 -23q44 0 99 13v-115q-69 -19 -127 -19q-211 0 -211 193q0 139 160 258h127q-70 -66 -105 -120.5t-35 -117.5zM612 0h-530v102l172 41v1176l-172 41v102h530v-102l-172 -41v-1176l172 -41v-102z" />
    <glyph glyph-name="iogonek" unicode="&#x12f;" horiz-adv-x="528" 
d="M198 -238q0 -46 24.5 -69t67.5 -23q44 0 99 13v-115q-69 -19 -127 -19q-211 0 -211 193q0 139 160 258h127q-70 -66 -105 -120.5t-35 -117.5zM356 0h-182v1098h182v-1098zM160 1395q0 60 30.5 87t75.5 27q22 0 41.5 -6.5t34 -20.5t23 -35.5t8.5 -51.5q0 -58 -31.5 -86.5
t-75.5 -28.5q-45 0 -75.5 28t-30.5 87z" />
    <glyph glyph-name="Idotaccent" unicode="&#x130;" horiz-adv-x="694" 
d="M240 1733q0 60 30.5 87t75.5 27q42 0 73.5 -27t31.5 -87q0 -59 -31.5 -87t-73.5 -28q-45 0 -75.5 28t-30.5 87zM612 0h-530v102l172 41v1176l-172 41v102h530v-102l-172 -41v-1176l172 -41v-102z" />
    <glyph glyph-name="dotlessi" unicode="&#x131;" horiz-adv-x="530" 
d="M356 0h-182v1098h182v-1098z" />
    <glyph glyph-name="IJ" unicode="&#x132;" horiz-adv-x="1253" 
d="M612 0h-530v102l172 41v1176l-172 41v102h530v-102l-172 -41v-1176l172 -41v-102zM665 -389q-51 0 -89 6.5t-66 17.5v160q34 -9 73 -14.5t84 -5.5q37 0 74.5 9.5t68 34.5t49.5 69t19 112v1462h187v-1442q0 -105 -29.5 -182t-82 -127.5t-126 -75t-162.5 -24.5z" />
    <glyph glyph-name="ij" unicode="&#x133;" horiz-adv-x="1053" 
d="M356 0h-182v1098h182v-1098zM160 1395q0 60 30.5 87t75.5 27q22 0 41.5 -6.5t34 -20.5t23 -35.5t8.5 -51.5q0 -58 -31.5 -86.5t-75.5 -28.5q-45 0 -75.5 28t-30.5 87zM590 -492q-48 0 -79.5 7t-54.5 18v148q26 -10 53 -15.5t62 -5.5q27 0 50 7.5t40.5 27t27 52t9.5 83.5
v1268h182v-1256q0 -77 -17 -138.5t-53 -105t-90.5 -67t-129.5 -23.5zM684 1395q0 60 30.5 87t75.5 27q22 0 41.5 -6.5t34 -20.5t23 -35.5t8.5 -51.5q0 -58 -31.5 -86.5t-75.5 -28.5q-45 0 -75.5 28t-30.5 87z" />
    <glyph glyph-name="Jcircumflex" unicode="&#x134;" horiz-adv-x="559" 
d="M599 1579h-121q-51 34 -105 82.5t-106 103.5q-54 -55 -107 -103.5t-104 -82.5h-121v27q26 29 60 67t67.5 78.5t63 81t45.5 74.5h192q16 -34 45.5 -74.5t63 -81t68 -78.5t59.5 -67v-27zM-29 -389q-51 0 -89 6.5t-66 17.5v160q34 -9 73 -14.5t84 -5.5q37 0 74.5 9.5
t68 34.5t49.5 69t19 112v1462h187v-1442q0 -105 -29.5 -182t-82 -127.5t-126 -75t-162.5 -24.5z" />
    <glyph glyph-name="jcircumflex" unicode="&#x135;" horiz-adv-x="528" 
d="M575 1241h-121q-51 34 -105 82.5t-106 103.5q-54 -55 -107 -103.5t-104 -82.5h-121v27q26 29 60 67t67.5 78.5t63 81t45.5 74.5h192q16 -34 45.5 -74.5t63 -81t68 -78.5t59.5 -67v-27zM45 -492q-94 0 -158 25v145q69 -20 136 -20q78 0 114.5 42.5t36.5 129.5v1268h180
v-1262q0 -164 -78.5 -246t-230.5 -82z" />
    <glyph glyph-name="uni0136" unicode="&#x136;" horiz-adv-x="1268" 
d="M504 -428q22 51 49 144t35 159h178v-18q-16 -63 -64.5 -156.5t-99.5 -153.5h-98v25zM1186 0h-211l-451 698l-139 -114v-584h-186v1462h186v-731l121 168l452 563h209l-520 -637z" />
    <glyph glyph-name="uni0137" unicode="&#x137;" horiz-adv-x="1094" 
d="M416 -428q22 51 49 144t35 159h178v-18q-16 -63 -64.5 -156.5t-99.5 -153.5h-98v25zM342 567l135 170l293 361h211l-401 -475l428 -623h-209l-336 504l-109 -82v-422h-180v1556h180v-714l-16 -275h4z" />
    <glyph glyph-name="kgreenlandic" unicode="&#x138;" horiz-adv-x="1094" 
d="M825 1098h217l-415 -486l448 -612h-215l-360 496l-135 -111v-385h-191v1098h191v-285q0 -139 -13 -276l84 102z" />
    <glyph glyph-name="Lacute" unicode="&#x139;" horiz-adv-x="1073" 
d="M199 0v1462h186v-1296h573v-166h-759zM247 1606q22 29 45.5 67t47 78.5t44.5 81t37 74.5h219v-21q-16 -27 -47.5 -67.5t-70 -84.5t-79 -85.5t-75.5 -69.5h-121v27z" />
    <glyph glyph-name="lacute" unicode="&#x13a;" horiz-adv-x="528" 
d="M356 0h-182v1556h182v-1556zM171 1663q22 29 45.5 67t47 78.5t44.5 81t37 74.5h219v-21q-16 -27 -47.5 -67.5t-70 -84.5t-79 -85.5t-75.5 -69.5h-121v27z" />
    <glyph glyph-name="uni013B" unicode="&#x13b;" horiz-adv-x="1073" 
d="M418 -428q22 51 49 144t35 159h178v-18q-16 -63 -64.5 -156.5t-99.5 -153.5h-98v25zM199 0v1462h186v-1296h573v-166h-759z" />
    <glyph glyph-name="uni013C" unicode="&#x13c;" horiz-adv-x="528" 
d="M92 -428q22 51 49 144t35 159h178v-18q-16 -63 -64.5 -156.5t-99.5 -153.5h-98v25zM356 0h-182v1556h182v-1556z" />
    <glyph glyph-name="Lcaron" unicode="&#x13d;" horiz-adv-x="1073" 
d="M682 1160q23 66 42.5 159t25.5 144h178v-18q-13 -53 -56 -145t-92 -164h-98v24zM199 0v1462h186v-1296h573v-166h-759z" />
    <glyph glyph-name="lcaron" unicode="&#x13e;" horiz-adv-x="528" 
d="M448 1253q23 66 42.5 159t25.5 144h178v-18q-13 -53 -56 -145t-92 -164h-98v24zM356 0h-182v1556h182v-1556z" />
    <glyph glyph-name="Ldot" unicode="&#x13f;" horiz-adv-x="1073" 
d="M680 732q0 60 30.5 87t75.5 27q42 0 73.5 -27t31.5 -87q0 -59 -31.5 -87t-73.5 -28q-45 0 -75.5 28t-30.5 87zM199 0v1462h186v-1296h573v-166h-759z" />
    <glyph glyph-name="ldot" unicode="&#x140;" horiz-adv-x="666" 
d="M492 683q0 60 30.5 87t75.5 27q42 0 73.5 -27t31.5 -87q0 -59 -31.5 -87t-73.5 -28q-45 0 -75.5 28t-30.5 87zM356 0h-182v1556h182v-1556z" />
    <glyph glyph-name="Lslash" unicode="&#x141;" horiz-adv-x="1073" 
d="M199 0v506l-101 -57l-71 122l172 103v788h184v-680l281 166l73 -129l-354 -205v-450h639v-164h-823z" />
    <glyph glyph-name="lslash" unicode="&#x142;" horiz-adv-x="528" 
d="M340 870l131 91l76 -121l-207 -140v-700h-180v584l-105 -66l-73 121l178 115v802h180v-686z" />
    <glyph glyph-name="Nacute" unicode="&#x143;" horiz-adv-x="1556" 
d="M1294 0h-215l-719 1210h-8q6 -77 10 -153q4 -65 6.5 -136t2.5 -128v-793h-172v1462h213l716 -1204h7q-3 76 -7 150q-1 32 -2.5 65.5l-3 67t-2 64.5t-0.5 57v800h174v-1462zM657 1606q22 29 45.5 67t47 78.5t44.5 81t37 74.5h219v-21q-16 -27 -47.5 -67.5t-70 -84.5
t-79 -85.5t-75.5 -69.5h-121v27z" />
    <glyph glyph-name="nacute" unicode="&#x144;" horiz-adv-x="1266" 
d="M860 0v707q0 130 -52.5 195t-164.5 65q-81 0 -136 -26t-88.5 -77t-48 -125t-14.5 -170v-569h-182v1098h148l26 -148h10q25 43 59.5 74.5t75.5 52.5t87 31t94 10q183 0 275.5 -95.5t92.5 -305.5v-717h-182zM518 1268q22 29 45.5 67t47 78.5t44.5 81t37 74.5h219v-21
q-16 -27 -47.5 -67.5t-70 -84.5t-79 -85.5t-75.5 -69.5h-121v27z" />
    <glyph glyph-name="uni0145" unicode="&#x145;" horiz-adv-x="1556" 
d="M576 -428q22 51 49 144t35 159h178v-18q-16 -63 -64.5 -156.5t-99.5 -153.5h-98v25zM1294 0h-215l-719 1210h-8q6 -77 10 -153q4 -65 6.5 -136t2.5 -128v-793h-172v1462h213l716 -1204h7q-3 76 -7 150q-1 32 -2.5 65.5l-3 67t-2 64.5t-0.5 57v800h174v-1462z" />
    <glyph glyph-name="uni0146" unicode="&#x146;" horiz-adv-x="1266" 
d="M455 -428q22 51 49 144t35 159h178v-18q-16 -63 -64.5 -156.5t-99.5 -153.5h-98v25zM860 0v707q0 130 -52.5 195t-164.5 65q-81 0 -136 -26t-88.5 -77t-48 -125t-14.5 -170v-569h-182v1098h148l26 -148h10q25 43 59.5 74.5t75.5 52.5t87 31t94 10q183 0 275.5 -95.5
t92.5 -305.5v-717h-182z" />
    <glyph glyph-name="Ncaron" unicode="&#x147;" horiz-adv-x="1556" 
d="M432 1907h123q114 -74 219 -189q126 126 223 189h127v-27q-205 -205 -256 -301h-184q-60 102 -252 301v27zM1294 0h-215l-719 1210h-8q6 -77 10 -153q4 -65 6.5 -136t2.5 -128v-793h-172v1462h213l716 -1204h7q-3 76 -7 150q-1 32 -2.5 65.5l-3 67t-2 64.5t-0.5 57v800
h174v-1462z" />
    <glyph glyph-name="ncaron" unicode="&#x148;" horiz-adv-x="1266" 
d="M295 1569h123q114 -74 219 -189q126 126 223 189h127v-27q-205 -205 -256 -301h-184q-60 102 -252 301v27zM860 0v707q0 130 -52.5 195t-164.5 65q-81 0 -136 -26t-88.5 -77t-48 -125t-14.5 -170v-569h-182v1098h148l26 -148h10q25 43 59.5 74.5t75.5 52.5t87 31t94 10
q183 0 275.5 -95.5t92.5 -305.5v-717h-182z" />
    <glyph glyph-name="napostrophe" unicode="&#x149;" horiz-adv-x="1415" 
d="M297 1462l15 -22q-52 -199 -176 -479h-133q70 285 102 501h192zM1005 0v707q0 130 -52.5 195t-164.5 65q-81 0 -136 -26t-88.5 -77t-48 -125t-14.5 -170v-569h-182v1098h148l26 -148h10q25 43 59.5 74.5t75.5 52.5t87 31t94 10q183 0 275.5 -95.5t92.5 -305.5v-717h-182z
" />
    <glyph glyph-name="Eng" unicode="&#x14a;" horiz-adv-x="1556" 
d="M973 -389q-98 0 -156 27v155q71 -20 156 -20q102 0 156.5 58.5t56.5 168.5l-826 1214h-8q17 -255 17 -421v-793h-170v1462h213l780 -1171h8q-14 154 -14 409v762h172v-1450q0 -196 -99.5 -298.5t-285.5 -102.5z" />
    <glyph glyph-name="eng" unicode="&#x14b;" horiz-adv-x="1266" 
d="M807 -492q-86 0 -145 25v145q60 -20 122 -20q138 0 138 172v875q0 133 -59.5 197.5t-184.5 64.5q-170 0 -247 -93.5t-77 -302.5v-571h-180v1098h145l29 -150h10q52 82 142 126t200 44q202 0 302 -95.5t100 -305.5v-881q0 -154 -71.5 -241t-223.5 -87z" />
    <glyph glyph-name="Omacron" unicode="&#x14c;" horiz-adv-x="1599" 
d="M496 1724h608v-145h-608v145zM1393 733q0 -169 -40.5 -308t-120.5 -238t-198.5 -153t-273.5 -54q-163 0 -282.5 54t-198 153t-116.5 238.5t-38 309.5t38 308.5t117 236.5t199 151.5t283 53.5q155 0 272.5 -53.5t197.5 -152t120.5 -237t40.5 -309.5zM322 733
q0 -137 26 -246.5t79.5 -186t136 -117t196.5 -40.5t196.5 40.5t136 117t78.5 186t25 246.5q0 138 -25 247t-78 184.5t-135 116t-196 40.5t-197 -40.5t-137 -116t-80 -184.5t-26 -247z" />
    <glyph glyph-name="omacron" unicode="&#x14d;" horiz-adv-x="1239" 
d="M315 1386h608v-145h-608v145zM1069 551q0 -137 -33.5 -243.5t-96 -179t-151.5 -110.5t-200 -38q-103 0 -190 38t-150.5 110.5t-99 179t-35.5 243.5q0 136 33.5 241.5t95.5 178t151.5 110t200.5 37.5q103 0 190 -37.5t150.5 -110t99 -178t35.5 -241.5zM301 551
q0 -209 68.5 -314.5t222.5 -105.5t221.5 105.5t67.5 314.5t-68.5 312.5t-222.5 103.5t-221.5 -103.5t-67.5 -312.5z" />
    <glyph glyph-name="Obreve" unicode="&#x14e;" horiz-adv-x="1599" 
d="M793 1579q-141 0 -222.5 69t-90.5 206h110q8 -71 50 -100.5t157 -29.5q101 0 150 31.5t57 98.5h113q-13 -131 -99 -203t-225 -72zM1393 733q0 -169 -40.5 -308t-120.5 -238t-198.5 -153t-273.5 -54q-163 0 -282.5 54t-198 153t-116.5 238.5t-38 309.5t38 308.5t117 236.5
t199 151.5t283 53.5q155 0 272.5 -53.5t197.5 -152t120.5 -237t40.5 -309.5zM322 733q0 -137 26 -246.5t79.5 -186t136 -117t196.5 -40.5t196.5 40.5t136 117t78.5 186t25 246.5q0 138 -25 247t-78 184.5t-135 116t-196 40.5t-197 -40.5t-137 -116t-80 -184.5t-26 -247z" />
    <glyph glyph-name="obreve" unicode="&#x14f;" horiz-adv-x="1239" 
d="M612 1241q-141 0 -222.5 69t-90.5 206h110q8 -71 50 -100.5t157 -29.5q101 0 150 31.5t57 98.5h113q-13 -131 -99 -203t-225 -72zM1069 551q0 -137 -33.5 -243.5t-96 -179t-151.5 -110.5t-200 -38q-103 0 -190 38t-150.5 110.5t-99 179t-35.5 243.5q0 136 33.5 241.5
t95.5 178t151.5 110t200.5 37.5q103 0 190 -37.5t150.5 -110t99 -178t35.5 -241.5zM301 551q0 -209 68.5 -314.5t222.5 -105.5t221.5 105.5t67.5 314.5t-68.5 312.5t-222.5 103.5t-221.5 -103.5t-67.5 -312.5z" />
    <glyph glyph-name="Ohungarumlaut" unicode="&#x150;" horiz-adv-x="1599" 
d="M504 1604q35 46 87 134.5t91 168.5h197v-21q-33 -56 -119.5 -154t-152.5 -153h-103v25zM865 1604q47 65 100 156t78 147h196v-21q-33 -56 -119.5 -154t-152.5 -153h-102v25zM1393 733q0 -169 -40.5 -308t-120.5 -238t-198.5 -153t-273.5 -54q-163 0 -282.5 54t-198 153
t-116.5 238.5t-38 309.5t38 308.5t117 236.5t199 151.5t283 53.5q155 0 272.5 -53.5t197.5 -152t120.5 -237t40.5 -309.5zM322 733q0 -137 26 -246.5t79.5 -186t136 -117t196.5 -40.5t196.5 40.5t136 117t78.5 186t25 246.5q0 138 -25 247t-78 184.5t-135 116t-196 40.5
t-197 -40.5t-137 -116t-80 -184.5t-26 -247z" />
    <glyph glyph-name="ohungarumlaut" unicode="&#x151;" horiz-adv-x="1239" 
d="M315 1266q35 46 87 134.5t91 168.5h197v-21q-33 -56 -119.5 -154t-152.5 -153h-103v25zM676 1266q47 65 100 156t78 147h196v-21q-33 -56 -119.5 -154t-152.5 -153h-102v25zM1069 551q0 -137 -33.5 -243.5t-96 -179t-151.5 -110.5t-200 -38q-103 0 -190 38t-150.5 110.5
t-99 179t-35.5 243.5q0 136 33.5 241.5t95.5 178t151.5 110t200.5 37.5q103 0 190 -37.5t150.5 -110t99 -178t35.5 -241.5zM301 551q0 -209 68.5 -314.5t222.5 -105.5t221.5 105.5t67.5 314.5t-68.5 312.5t-222.5 103.5t-221.5 -103.5t-67.5 -312.5z" />
    <glyph glyph-name="OE" unicode="&#x152;" horiz-adv-x="1901" 
d="M1778 0h-779q-102 -20 -198 -20q-325 0 -500.5 197t-175.5 558q0 359 172.5 554.5t493.5 195.5q106 0 196 -23h791v-162h-588v-456h549v-160h-549v-522h588v-162zM807 1323q-242 0 -366 -151t-124 -439q0 -289 124 -441.5t364 -152.5q117 0 203 35v1116q-85 33 -201 33z
" />
    <glyph glyph-name="oe" unicode="&#x153;" horiz-adv-x="1937" 
d="M1432 -20q-290 0 -418 227q-63 -113 -167.5 -170t-240.5 -57q-226 0 -360.5 154t-134.5 417q0 266 132 415.5t369 149.5q130 0 232 -57t164 -168q60 109 156 167t222 58q205 0 325 -132.5t120 -360.5v-109h-729q8 -381 332 -381q90 0 167 15.5t181 60.5v-158
q-93 -40 -170 -55.5t-180 -15.5zM299 551q0 -208 73 -315t236 -107q160 0 233.5 104.5t73.5 309.5q0 214 -74.5 319t-236.5 105q-161 0 -233 -105.5t-72 -310.5zM1384 969q-123 0 -194.5 -79.5t-83.5 -232.5h534q0 151 -64.5 231.5t-191.5 80.5z" />
    <glyph glyph-name="Racute" unicode="&#x154;" horiz-adv-x="1274" 
d="M385 604v-604h-186v1462h356q266 0 393 -103t127 -312q0 -87 -24.5 -152t-65 -111.5t-92.5 -77.5t-107 -51l398 -655h-219l-351 604h-229zM385 762h164q90 0 153 17.5t103.5 52t59 86t18.5 120.5q0 72 -20.5 122t-62 82t-105 46.5t-150.5 14.5h-160v-541zM516 1606
q22 29 45.5 67t47 78.5t44.5 81t37 74.5h219v-21q-16 -27 -47.5 -67.5t-70 -84.5t-79 -85.5t-75.5 -69.5h-121v27z" />
    <glyph glyph-name="racute" unicode="&#x155;" horiz-adv-x="846" 
d="M649 1118q29 0 65 -2.5t62 -7.5l-24 -168q-28 5 -57.5 8.5t-55.5 3.5q-63 0 -115 -25.5t-89.5 -73t-58 -114t-20.5 -147.5v-592h-182v1098h148l22 -201h8q25 43 53.5 83t64 70.5t79.5 49t100 18.5zM363 1268q22 29 45.5 67t47 78.5t44.5 81t37 74.5h219v-21
q-16 -27 -47.5 -67.5t-70 -84.5t-79 -85.5t-75.5 -69.5h-121v27z" />
    <glyph glyph-name="uni0156" unicode="&#x156;" horiz-adv-x="1274" 
d="M496 -428q22 51 49 144t35 159h178v-18q-16 -63 -64.5 -156.5t-99.5 -153.5h-98v25zM385 604v-604h-186v1462h356q266 0 393 -103t127 -312q0 -87 -24.5 -152t-65 -111.5t-92.5 -77.5t-107 -51l398 -655h-219l-351 604h-229zM385 762h164q90 0 153 17.5t103.5 52t59 86
t18.5 120.5q0 72 -20.5 122t-62 82t-105 46.5t-150.5 14.5h-160v-541z" />
    <glyph glyph-name="uni0157" unicode="&#x157;" horiz-adv-x="846" 
d="M98 -428q22 51 49 144t35 159h178v-18q-16 -63 -64.5 -156.5t-99.5 -153.5h-98v25zM649 1118q29 0 65 -2.5t62 -7.5l-24 -168q-28 5 -57.5 8.5t-55.5 3.5q-63 0 -115 -25.5t-89.5 -73t-58 -114t-20.5 -147.5v-592h-182v1098h148l22 -201h8q25 43 53.5 83t64 70.5t79.5 49
t100 18.5z" />
    <glyph glyph-name="Rcaron" unicode="&#x158;" horiz-adv-x="1274" 
d="M289 1907h123q114 -74 219 -189q126 126 223 189h127v-27q-205 -205 -256 -301h-184q-60 102 -252 301v27zM385 604v-604h-186v1462h356q266 0 393 -103t127 -312q0 -87 -24.5 -152t-65 -111.5t-92.5 -77.5t-107 -51l398 -655h-219l-351 604h-229zM385 762h164
q90 0 153 17.5t103.5 52t59 86t18.5 120.5q0 72 -20.5 122t-62 82t-105 46.5t-150.5 14.5h-160v-541z" />
    <glyph glyph-name="rcaron" unicode="&#x159;" horiz-adv-x="846" 
d="M126 1569h123q114 -74 219 -189q126 126 223 189h127v-27q-205 -205 -256 -301h-184q-60 102 -252 301v27zM649 1118q29 0 65 -2.5t62 -7.5l-24 -168q-28 5 -57.5 8.5t-55.5 3.5q-63 0 -115 -25.5t-89.5 -73t-58 -114t-20.5 -147.5v-592h-182v1098h148l22 -201h8
q25 43 53.5 83t64 70.5t79.5 49t100 18.5z" />
    <glyph glyph-name="Sacute" unicode="&#x15a;" horiz-adv-x="1124" 
d="M969 391q0 -97 -34.5 -173.5t-98.5 -129.5t-156 -80.5t-207 -27.5q-111 0 -207.5 17.5t-161.5 51.5v178q34 -16 77.5 -31.5t91.5 -27.5t99 -19.5t101 -7.5q160 0 236.5 60t76.5 172q0 54 -14.5 94t-51 73.5t-97.5 65t-154 68.5q-89 35 -154.5 76.5t-108 93.5t-63 118
t-20.5 150q0 88 32 157t90 116.5t138.5 72.5t177.5 25q119 0 214 -22.5t169 -57.5l-67 -156q-65 29 -147.5 50.5t-170.5 21.5q-122 0 -189 -56.5t-67 -152.5q0 -57 15 -98.5t50 -75t92.5 -63t141.5 -62.5q91 -36 159.5 -74t114.5 -86t69.5 -111t23.5 -149zM471 1606
q22 29 45.5 67t47 78.5t44.5 81t37 74.5h219v-21q-16 -27 -47.5 -67.5t-70 -84.5t-79 -85.5t-75.5 -69.5h-121v27z" />
    <glyph glyph-name="sacute" unicode="&#x15b;" horiz-adv-x="981" 
d="M831 301q0 -80 -29 -140t-83.5 -100.5t-131.5 -60.5t-173 -20q-109 0 -187 17.5t-137 51.5v166q31 -16 69 -31.5t80 -27.5t86.5 -19.5t88.5 -7.5q65 0 110.5 11t74 31.5t41.5 50t13 65.5q0 31 -10 56t-36.5 49.5t-72.5 49.5t-118 56t-129.5 61t-97.5 67t-61.5 85.5
t-21.5 115.5q0 70 27.5 124.5t77.5 91.5t120 56t156 19q97 0 177.5 -21t152.5 -55l-63 -147q-65 29 -133.5 50.5t-139.5 21.5q-102 0 -151 -33.5t-49 -95.5q0 -35 11.5 -61t39.5 -49t75 -46.5t117 -52.5q72 -30 128.5 -60t96.5 -67.5t61 -85.5t21 -115zM376 1268
q22 29 45.5 67t47 78.5t44.5 81t37 74.5h219v-21q-16 -27 -47.5 -67.5t-70 -84.5t-79 -85.5t-75.5 -69.5h-121v27z" />
    <glyph glyph-name="Scircumflex" unicode="&#x15c;" horiz-adv-x="1124" 
d="M900 1579h-121q-51 34 -105 82.5t-106 103.5q-54 -55 -107 -103.5t-104 -82.5h-121v27q26 29 60 67t67.5 78.5t63 81t45.5 74.5h192q16 -34 45.5 -74.5t63 -81t68 -78.5t59.5 -67v-27zM969 391q0 -97 -34.5 -173.5t-98.5 -129.5t-156 -80.5t-207 -27.5
q-111 0 -207.5 17.5t-161.5 51.5v178q34 -16 77.5 -31.5t91.5 -27.5t99 -19.5t101 -7.5q160 0 236.5 60t76.5 172q0 54 -14.5 94t-51 73.5t-97.5 65t-154 68.5q-89 35 -154.5 76.5t-108 93.5t-63 118t-20.5 150q0 88 32 157t90 116.5t138.5 72.5t177.5 25q119 0 214 -22.5
t169 -57.5l-67 -156q-65 29 -147.5 50.5t-170.5 21.5q-122 0 -189 -56.5t-67 -152.5q0 -57 15 -98.5t50 -75t92.5 -63t141.5 -62.5q91 -36 159.5 -74t114.5 -86t69.5 -111t23.5 -149z" />
    <glyph glyph-name="scircumflex" unicode="&#x15d;" horiz-adv-x="981" 
d="M819 1241h-121q-51 34 -105 82.5t-106 103.5q-54 -55 -107 -103.5t-104 -82.5h-121v27q26 29 60 67t67.5 78.5t63 81t45.5 74.5h192q16 -34 45.5 -74.5t63 -81t68 -78.5t59.5 -67v-27zM831 301q0 -80 -29 -140t-83.5 -100.5t-131.5 -60.5t-173 -20q-109 0 -187 17.5
t-137 51.5v166q31 -16 69 -31.5t80 -27.5t86.5 -19.5t88.5 -7.5q65 0 110.5 11t74 31.5t41.5 50t13 65.5q0 31 -10 56t-36.5 49.5t-72.5 49.5t-118 56t-129.5 61t-97.5 67t-61.5 85.5t-21.5 115.5q0 70 27.5 124.5t77.5 91.5t120 56t156 19q97 0 177.5 -21t152.5 -55
l-63 -147q-65 29 -133.5 50.5t-139.5 21.5q-102 0 -151 -33.5t-49 -95.5q0 -35 11.5 -61t39.5 -49t75 -46.5t117 -52.5q72 -30 128.5 -60t96.5 -67.5t61 -85.5t21 -115z" />
    <glyph glyph-name="Scedilla" unicode="&#x15e;" horiz-adv-x="1124" 
d="M969 391q0 -97 -34.5 -173.5t-98.5 -129.5t-156 -80.5t-207 -27.5q-111 0 -207.5 17.5t-161.5 51.5v178q34 -16 77.5 -31.5t91.5 -27.5t99 -19.5t101 -7.5q160 0 236.5 60t76.5 172q0 54 -14.5 94t-51 73.5t-97.5 65t-154 68.5q-89 35 -154.5 76.5t-108 93.5t-63 118
t-20.5 150q0 88 32 157t90 116.5t138.5 72.5t177.5 25q119 0 214 -22.5t169 -57.5l-67 -156q-65 29 -147.5 50.5t-170.5 21.5q-122 0 -189 -56.5t-67 -152.5q0 -57 15 -98.5t50 -75t92.5 -63t141.5 -62.5q91 -36 159.5 -74t114.5 -86t69.5 -111t23.5 -149zM707 -287
q0 -97 -70.5 -151t-220.5 -54q-22 0 -44.5 3t-37.5 6v108q15 -3 39.5 -4.5t40.5 -1.5q71 0 111 21.5t40 70.5q0 24 -13 41.5t-36 30.5t-54.5 22.5t-68.5 18.5l90 176h121l-57 -115q34 -8 63 -21t50.5 -33.5t34 -49.5t12.5 -68z" />
    <glyph glyph-name="scedilla" unicode="&#x15f;" horiz-adv-x="981" 
d="M831 301q0 -80 -29 -140t-83.5 -100.5t-131.5 -60.5t-173 -20q-109 0 -187 17.5t-137 51.5v166q31 -16 69 -31.5t80 -27.5t86.5 -19.5t88.5 -7.5q65 0 110.5 11t74 31.5t41.5 50t13 65.5q0 31 -10 56t-36.5 49.5t-72.5 49.5t-118 56t-129.5 61t-97.5 67t-61.5 85.5
t-21.5 115.5q0 70 27.5 124.5t77.5 91.5t120 56t156 19q97 0 177.5 -21t152.5 -55l-63 -147q-65 29 -133.5 50.5t-139.5 21.5q-102 0 -151 -33.5t-49 -95.5q0 -35 11.5 -61t39.5 -49t75 -46.5t117 -52.5q72 -30 128.5 -60t96.5 -67.5t61 -85.5t21 -115zM629 -287
q0 -97 -70.5 -151t-220.5 -54q-22 0 -44.5 3t-37.5 6v108q15 -3 39.5 -4.5t40.5 -1.5q71 0 111 21.5t40 70.5q0 24 -13 41.5t-36 30.5t-54.5 22.5t-68.5 18.5l90 176h121l-57 -115q34 -8 63 -21t50.5 -33.5t34 -49.5t12.5 -68z" />
    <glyph glyph-name="Scaron" unicode="&#x160;" horiz-adv-x="1124" 
d="M234 1907h123q114 -74 219 -189q126 126 223 189h127v-27q-205 -205 -256 -301h-184q-60 102 -252 301v27zM969 391q0 -97 -34.5 -173.5t-98.5 -129.5t-156 -80.5t-207 -27.5q-111 0 -207.5 17.5t-161.5 51.5v178q34 -16 77.5 -31.5t91.5 -27.5t99 -19.5t101 -7.5
q160 0 236.5 60t76.5 172q0 54 -14.5 94t-51 73.5t-97.5 65t-154 68.5q-89 35 -154.5 76.5t-108 93.5t-63 118t-20.5 150q0 88 32 157t90 116.5t138.5 72.5t177.5 25q119 0 214 -22.5t169 -57.5l-67 -156q-65 29 -147.5 50.5t-170.5 21.5q-122 0 -189 -56.5t-67 -152.5
q0 -57 15 -98.5t50 -75t92.5 -63t141.5 -62.5q91 -36 159.5 -74t114.5 -86t69.5 -111t23.5 -149z" />
    <glyph glyph-name="scaron" unicode="&#x161;" horiz-adv-x="981" 
d="M169 1569h123q114 -74 219 -189q126 126 223 189h127v-27q-205 -205 -256 -301h-184q-60 102 -252 301v27zM831 301q0 -80 -29 -140t-83.5 -100.5t-131.5 -60.5t-173 -20q-109 0 -187 17.5t-137 51.5v166q31 -16 69 -31.5t80 -27.5t86.5 -19.5t88.5 -7.5q65 0 110.5 11
t74 31.5t41.5 50t13 65.5q0 31 -10 56t-36.5 49.5t-72.5 49.5t-118 56t-129.5 61t-97.5 67t-61.5 85.5t-21.5 115.5q0 70 27.5 124.5t77.5 91.5t120 56t156 19q97 0 177.5 -21t152.5 -55l-63 -147q-65 29 -133.5 50.5t-139.5 21.5q-102 0 -151 -33.5t-49 -95.5
q0 -35 11.5 -61t39.5 -49t75 -46.5t117 -52.5q72 -30 128.5 -60t96.5 -67.5t61 -85.5t21 -115z" />
    <glyph glyph-name="uni0162" unicode="&#x162;" horiz-adv-x="1139" 
d="M625 0h-187v1298h-418v164h1022v-164h-417v-1298zM734 -287q0 -97 -70.5 -151t-220.5 -54q-22 0 -44.5 3t-37.5 6v108q15 -3 39.5 -4.5t40.5 -1.5q71 0 111 21.5t40 70.5q0 24 -13 41.5t-36 30.5t-54.5 22.5t-68.5 18.5l90 176h121l-57 -115q34 -8 63 -21t50.5 -33.5
t34 -49.5t12.5 -68z" />
    <glyph glyph-name="uni0163" unicode="&#x163;" horiz-adv-x="739" 
d="M506 129q18 0 40.5 2t43.5 5t38.5 7t26.5 7v-138q-13 -6 -33 -12t-44 -10.5t-50 -7t-51 -2.5q-62 0 -115 16t-91.5 55t-60.5 105.5t-22 167.5v637h-155v81l155 78l78 230h105v-252h276v-137h-276v-637q0 -97 31.5 -146t103.5 -49zM613 -287q0 -97 -70.5 -151t-220.5 -54
q-22 0 -44.5 3t-37.5 6v108q15 -3 39.5 -4.5t40.5 -1.5q71 0 111 21.5t40 70.5q0 24 -13 41.5t-36 30.5t-54.5 22.5t-68.5 18.5l90 176h121l-57 -115q34 -8 63 -21t50.5 -33.5t34 -49.5t12.5 -68z" />
    <glyph glyph-name="Tcaron" unicode="&#x164;" horiz-adv-x="1139" 
d="M226 1907h123q114 -74 219 -189q126 126 223 189h127v-27q-205 -205 -256 -301h-184q-60 102 -252 301v27zM625 0h-187v1298h-418v164h1022v-164h-417v-1298z" />
    <glyph glyph-name="tcaron" unicode="&#x165;" horiz-adv-x="739" 
d="M504 1253q23 66 42.5 159t25.5 144h178v-18q-13 -53 -56 -145t-92 -164h-98v24zM506 129q18 0 40.5 2t43.5 5t38.5 7t26.5 7v-138q-13 -6 -33 -12t-44 -10.5t-50 -7t-51 -2.5q-62 0 -115 16t-91.5 55t-60.5 105.5t-22 167.5v637h-155v81l155 78l78 230h105v-252h276v-137
h-276v-637q0 -97 31.5 -146t103.5 -49z" />
    <glyph glyph-name="Tbar" unicode="&#x166;" horiz-adv-x="1139" 
d="M475 817v481h-455v164h1096v-164h-457v-481h304v-151h-304v-666h-184v666h-305v151h305z" />
    <glyph glyph-name="tbar" unicode="&#x167;" horiz-adv-x="739" 
d="M545 127q85 0 149 23v-138q-26 -12 -79.5 -22t-110.5 -10q-316 0 -316 350v243h-139v136h139v249h-155v86l157 72l72 234h107v-252h317v-140h-317v-249h299v-136h-299v-233q0 -106 42.5 -159.5t133.5 -53.5z" />
    <glyph glyph-name="Utilde" unicode="&#x168;" horiz-adv-x="1497" 
d="M881 1581q-40 0 -79.5 17.5t-77.5 39t-73 39t-67 17.5q-45 0 -69 -26.5t-38 -88.5h-104q5 60 21.5 109t43 83.5t63.5 53t83 18.5q42 0 82.5 -17.5t78.5 -38.5t72.5 -38.5t63.5 -17.5q45 0 68 26t38 88h105q-5 -60 -21.5 -108.5t-43 -83t-63.5 -53.5t-83 -19zM1245 1464
v-948q0 -114 -33 -212t-99.5 -170t-167 -113t-236.5 -41q-128 0 -226 38.5t-164.5 109.5t-100.5 170.5t-34 221.5v942h187v-952q0 -175 86.5 -271t261.5 -96q89 0 153 27t105 76t61 117t21 149v952h186z" />
    <glyph glyph-name="utilde" unicode="&#x169;" horiz-adv-x="1266" 
d="M763 1243q-40 0 -79.5 17.5t-77.5 39t-73 39t-67 17.5q-45 0 -69 -26.5t-38 -88.5h-104q5 60 21.5 109t43 83.5t63.5 53t83 18.5q42 0 82.5 -17.5t78.5 -38.5t72.5 -38.5t63.5 -17.5q45 0 68 26t38 88h105q-5 -60 -21.5 -108.5t-43 -83t-63.5 -53.5t-83 -19zM885 0
l-27 147h-10q-25 -43 -59.5 -74.5t-75.5 -52t-87 -30.5t-94 -10q-91 0 -160 23t-115 72t-69.5 125t-23.5 181v717h182v-707q0 -130 53 -195t164 -65q81 0 136 26t88.5 76.5t48 124.5t14.5 170v570h182v-1098h-147z" />
    <glyph glyph-name="Umacron" unicode="&#x16a;" horiz-adv-x="1497" 
d="M444 1724h608v-145h-608v145zM1245 1464v-948q0 -114 -33 -212t-99.5 -170t-167 -113t-236.5 -41q-128 0 -226 38.5t-164.5 109.5t-100.5 170.5t-34 221.5v942h187v-952q0 -175 86.5 -271t261.5 -96q89 0 153 27t105 76t61 117t21 149v952h186z" />
    <glyph glyph-name="umacron" unicode="&#x16b;" horiz-adv-x="1266" 
d="M326 1386h608v-145h-608v145zM885 0l-27 147h-10q-25 -43 -59.5 -74.5t-75.5 -52t-87 -30.5t-94 -10q-91 0 -160 23t-115 72t-69.5 125t-23.5 181v717h182v-707q0 -130 53 -195t164 -65q81 0 136 26t88.5 76.5t48 124.5t14.5 170v570h182v-1098h-147z" />
    <glyph glyph-name="Ubreve" unicode="&#x16c;" horiz-adv-x="1497" 
d="M739 1579q-141 0 -222.5 69t-90.5 206h110q8 -71 50 -100.5t157 -29.5q101 0 150 31.5t57 98.5h113q-13 -131 -99 -203t-225 -72zM1245 1464v-948q0 -114 -33 -212t-99.5 -170t-167 -113t-236.5 -41q-128 0 -226 38.5t-164.5 109.5t-100.5 170.5t-34 221.5v942h187v-952
q0 -175 86.5 -271t261.5 -96q89 0 153 27t105 76t61 117t21 149v952h186z" />
    <glyph glyph-name="ubreve" unicode="&#x16d;" horiz-adv-x="1266" 
d="M620 1241q-141 0 -222.5 69t-90.5 206h110q8 -71 50 -100.5t157 -29.5q101 0 150 31.5t57 98.5h113q-13 -131 -99 -203t-225 -72zM885 0l-27 147h-10q-25 -43 -59.5 -74.5t-75.5 -52t-87 -30.5t-94 -10q-91 0 -160 23t-115 72t-69.5 125t-23.5 181v717h182v-707
q0 -130 53 -195t164 -65q81 0 136 26t88.5 76.5t48 124.5t14.5 170v570h182v-1098h-147z" />
    <glyph glyph-name="Uring" unicode="&#x16e;" horiz-adv-x="1497" 
d="M975 1796q0 -51 -17.5 -91.5t-48 -68.5t-72.5 -42.5t-91 -14.5q-50 0 -91 14.5t-70.5 42.5t-45.5 67.5t-16 90.5t16 90.5t45.5 67.5t70.5 42.5t91 14.5q48 0 90 -14.5t73 -42t48.5 -67t17.5 -89.5zM858 1794q0 53 -31.5 83t-80.5 30q-50 0 -81.5 -30t-31.5 -83t28.5 -83
t84.5 -30q49 0 80.5 30t31.5 83zM1245 1464v-948q0 -114 -33 -212t-99.5 -170t-167 -113t-236.5 -41q-128 0 -226 38.5t-164.5 109.5t-100.5 170.5t-34 221.5v942h187v-952q0 -175 86.5 -271t261.5 -96q89 0 153 27t105 76t61 117t21 149v952h186z" />
    <glyph glyph-name="uring" unicode="&#x16f;" horiz-adv-x="1266" 
d="M856 1458q0 -51 -17.5 -91.5t-48 -68.5t-72.5 -42.5t-91 -14.5q-50 0 -91 14.5t-70.5 42.5t-45.5 67.5t-16 90.5t16 90.5t45.5 67.5t70.5 42.5t91 14.5q48 0 90 -14.5t73 -42t48.5 -67t17.5 -89.5zM739 1456q0 53 -31.5 83t-80.5 30q-50 0 -81.5 -30t-31.5 -83t28.5 -83
t84.5 -30q49 0 80.5 30t31.5 83zM885 0l-27 147h-10q-25 -43 -59.5 -74.5t-75.5 -52t-87 -30.5t-94 -10q-91 0 -160 23t-115 72t-69.5 125t-23.5 181v717h182v-707q0 -130 53 -195t164 -65q81 0 136 26t88.5 76.5t48 124.5t14.5 170v570h182v-1098h-147z" />
    <glyph glyph-name="Uhungarumlaut" unicode="&#x170;" horiz-adv-x="1497" 
d="M452 1604q35 46 87 134.5t91 168.5h197v-21q-33 -56 -119.5 -154t-152.5 -153h-103v25zM813 1604q47 65 100 156t78 147h196v-21q-33 -56 -119.5 -154t-152.5 -153h-102v25zM1245 1464v-948q0 -114 -33 -212t-99.5 -170t-167 -113t-236.5 -41q-128 0 -226 38.5
t-164.5 109.5t-100.5 170.5t-34 221.5v942h187v-952q0 -175 86.5 -271t261.5 -96q89 0 153 27t105 76t61 117t21 149v952h186z" />
    <glyph glyph-name="uhungarumlaut" unicode="&#x171;" horiz-adv-x="1266" 
d="M336 1266q35 46 87 134.5t91 168.5h197v-21q-33 -56 -119.5 -154t-152.5 -153h-103v25zM697 1266q47 65 100 156t78 147h196v-21q-33 -56 -119.5 -154t-152.5 -153h-102v25zM885 0l-27 147h-10q-25 -43 -59.5 -74.5t-75.5 -52t-87 -30.5t-94 -10q-91 0 -160 23t-115 72
t-69.5 125t-23.5 181v717h182v-707q0 -130 53 -195t164 -65q81 0 136 26t88.5 76.5t48 124.5t14.5 170v570h182v-1098h-147z" />
    <glyph glyph-name="Uogonek" unicode="&#x172;" horiz-adv-x="1497" 
d="M729 -238q0 -46 24.5 -69t67.5 -23q44 0 99 13v-115q-69 -19 -127 -19q-211 0 -211 193q0 139 160 258h127q-70 -66 -105 -120.5t-35 -117.5zM1245 1464v-948q0 -114 -33 -212t-99.5 -170t-167 -113t-236.5 -41q-128 0 -226 38.5t-164.5 109.5t-100.5 170.5t-34 221.5
v942h187v-952q0 -175 86.5 -271t261.5 -96q89 0 153 27t105 76t61 117t21 149v952h186z" />
    <glyph glyph-name="uogonek" unicode="&#x173;" horiz-adv-x="1266" 
d="M938 -238q0 -46 24.5 -69t67.5 -23q44 0 99 13v-115q-69 -19 -127 -19q-211 0 -211 193q0 139 160 258h127q-70 -66 -105 -120.5t-35 -117.5zM885 0l-27 147h-10q-25 -43 -59.5 -74.5t-75.5 -52t-87 -30.5t-94 -10q-91 0 -160 23t-115 72t-69.5 125t-23.5 181v717h182
v-707q0 -130 53 -195t164 -65q81 0 136 26t88.5 76.5t48 124.5t14.5 170v570h182v-1098h-147z" />
    <glyph glyph-name="Wcircumflex" unicode="&#x174;" horiz-adv-x="1905" 
d="M1264 1579h-121q-51 34 -105 82.5t-106 103.5q-54 -55 -107 -103.5t-104 -82.5h-121v27q26 29 60 67t67.5 78.5t63 81t45.5 74.5h192q16 -34 45.5 -74.5t63 -81t68 -78.5t59.5 -67v-27zM809 1462h197l229 -856q15 -56 29.5 -112t27 -108.5t22 -99.5t15.5 -85q4 38 10 83
t14 94.5t17.5 101t20.5 100.5l200 882h199l-367 -1462h-188l-254 938q-14 51 -27 105t-24 101q-12 55 -23 107q-11 -51 -22 -106q-10 -47 -22.5 -103t-26.5 -110l-242 -932h-188l-386 1462h197l223 -889q12 -46 22 -95.5t18.5 -98.5t15.5 -94.5t12 -83.5q5 37 12.5 86
t17.5 103t21.5 109.5t24.5 104.5z" />
    <glyph glyph-name="wcircumflex" unicode="&#x175;" horiz-adv-x="1610" 
d="M1121 1241h-121q-51 34 -105 82.5t-106 103.5q-54 -55 -107 -103.5t-104 -82.5h-121v27q26 29 60 67t67.5 78.5t63 81t45.5 74.5h192q16 -34 45.5 -74.5t63 -81t68 -78.5t59.5 -67v-27zM1008 0l-168 616q-4 18 -10 40.5t-12 47.5t-12.5 51t-12.5 51q-14 58 -29 120h-6
q-14 -63 -27 -121q-11 -50 -23.5 -103t-23.5 -90l-172 -612h-211l-281 1098h191l131 -584q10 -45 20 -97.5t19 -104t16 -97t11 -74.5h6q5 26 13.5 69.5t19 92t21.5 96t21 80.5l179 619h196l172 -619q9 -34 20.5 -80t22.5 -93.5t20 -91.5t13 -73h6q3 26 9.5 69.5t15.5 95.5
t19.5 106.5t21.5 101.5l137 584h186l-284 -1098h-215z" />
    <glyph glyph-name="Ycircumflex" unicode="&#x176;" horiz-adv-x="1159" 
d="M896 1579h-121q-51 34 -105 82.5t-106 103.5q-54 -55 -107 -103.5t-104 -82.5h-121v27q26 29 60 67t67.5 78.5t63 81t45.5 74.5h192q16 -34 45.5 -74.5t63 -81t68 -78.5t59.5 -67v-27zM539 723l340 739h200l-446 -893v-569h-187v559l-446 903h203z" />
    <glyph glyph-name="ycircumflex" unicode="&#x177;" horiz-adv-x="1044" 
d="M845 1241h-121q-51 34 -105 82.5t-106 103.5q-54 -55 -107 -103.5t-104 -82.5h-121v27q26 29 60 67t67.5 78.5t63 81t45.5 74.5h192q16 -34 45.5 -74.5t63 -81t68 -78.5t59.5 -67v-27zM10 1098h189l215 -613q14 -40 28.5 -84t27 -88t21.5 -85t13 -76h6q5 25 16 68
t24.5 91.5t28 95.5t25.5 80l199 611h188l-434 -1241q-28 -81 -60.5 -145.5t-75.5 -109.5t-101 -69.5t-138 -24.5q-52 0 -90 5.5t-65 11.5v145q21 -5 53 -8.5t67 -3.5q48 0 83 11.5t61 33.5t44.5 54t33.5 73l57 160z" />
    <glyph glyph-name="Ydieresis" unicode="&#x178;" horiz-adv-x="1159" 
d="M539 723l340 739h200l-446 -893v-569h-187v559l-446 903h203zM296 1733q0 54 28 78t68 24q39 0 68 -24.5t29 -77.5t-29 -78t-68 -25q-40 0 -68 25t-28 78zM671 1733q0 54 28 78t68 24q19 0 36.5 -6t30.5 -18.5t21 -31.5t8 -46q0 -53 -29 -78t-67 -25q-40 0 -68 25t-28 78
z" />
    <glyph glyph-name="Zacute" unicode="&#x179;" horiz-adv-x="1171" 
d="M1022 0h-940v145l711 1151h-691v166h899v-145l-710 -1151h731v-166zM459 1606q22 29 45.5 67t47 78.5t44.5 81t37 74.5h219v-21q-16 -27 -47.5 -67.5t-70 -84.5t-79 -85.5t-75.5 -69.5h-121v27z" />
    <glyph glyph-name="zacute" unicode="&#x17a;" horiz-adv-x="963" 
d="M821 0h-739v125l536 836h-503v137h688v-146l-524 -815h542v-137zM376 1268q22 29 45.5 67t47 78.5t44.5 81t37 74.5h219v-21q-16 -27 -47.5 -67.5t-70 -84.5t-79 -85.5t-75.5 -69.5h-121v27z" />
    <glyph glyph-name="Zdotaccent" unicode="&#x17b;" horiz-adv-x="1171" 
d="M477 1733q0 60 30.5 87t75.5 27q42 0 73.5 -27t31.5 -87q0 -59 -31.5 -87t-73.5 -28q-45 0 -75.5 28t-30.5 87zM1022 0h-940v145l711 1151h-691v166h899v-145l-710 -1151h731v-166z" />
    <glyph glyph-name="zdotaccent" unicode="&#x17c;" horiz-adv-x="963" 
d="M379 1395q0 60 30.5 87t75.5 27q42 0 73.5 -27t31.5 -87q0 -59 -31.5 -87t-73.5 -28q-45 0 -75.5 28t-30.5 87zM821 0h-739v125l536 836h-503v137h688v-146l-524 -815h542v-137z" />
    <glyph glyph-name="Zcaron" unicode="&#x17d;" horiz-adv-x="1171" 
d="M243 1907h123q114 -74 219 -189q126 126 223 189h127v-27q-205 -205 -256 -301h-184q-60 102 -252 301v27zM1022 0h-940v145l711 1151h-691v166h899v-145l-710 -1151h731v-166z" />
    <glyph glyph-name="zcaron" unicode="&#x17e;" horiz-adv-x="963" 
d="M140 1569h123q114 -74 219 -189q126 126 223 189h127v-27q-205 -205 -256 -301h-184q-60 102 -252 301v27zM821 0h-739v125l536 836h-503v137h688v-146l-524 -815h542v-137z" />
    <glyph glyph-name="longs" unicode="&#x17f;" horiz-adv-x="668" 
d="M535 1417q-94 0 -137.5 -58.5t-43.5 -176.5v-1182h-180v1182q0 385 363 385q100 0 204 -39l-47 -142q-90 31 -159 31z" />
    <glyph glyph-name="uni0180" unicode="&#x180;" horiz-adv-x="1260" 
d="M694 1116q217 0 335 -149.5t118 -417.5q0 -272 -120 -420.5t-333 -148.5q-111 0 -198 40t-142 119h-14q-31 -120 -37 -139h-129v1239h-156v135h156v182h180v-182h437v-135h-437v-61q0 -113 -10 -226h10q111 164 340 164zM664 967q-166 0 -238 -94t-72 -318v-8
q0 -225 73.5 -321.5t240.5 -96.5q148 0 220.5 108.5t72.5 313.5q0 208 -73 312t-224 104z" />
    <glyph glyph-name="uni0181" unicode="&#x181;" horiz-adv-x="1495" 
d="M309 1305q-125 0 -125 -103q0 -61 21 -110h-162q-9 21 -16 54t-7 58q0 133 70.5 195.5t218.5 62.5h471q294 0 424.5 -87.5t130.5 -274.5q0 -130 -71 -214.5t-207 -109.5v-10q167 -29 247 -116.5t80 -233.5q0 -197 -134.5 -306.5t-372.5 -109.5h-515v1305h-53zM547 840
h270q172 0 250 55t78 184q0 120 -85.5 173t-271.5 53h-241v-465zM547 686v-530h295q176 0 261 68t85 206q0 131 -90 193.5t-271 62.5h-280z" />
    <glyph glyph-name="uni0182" unicode="&#x182;" horiz-adv-x="1260" 
d="M1155 428q0 -216 -130 -322t-398 -106h-428v1462h868v-162h-684v-456h217q280 0 417.5 -99t137.5 -317zM383 158h225q188 0 272.5 63.5t84.5 206.5q0 140 -88 198t-299 58h-195v-526z" />
    <glyph glyph-name="uni0183" unicode="&#x183;" horiz-adv-x="1260" 
d="M694 1116q217 0 335 -149.5t118 -417.5q0 -272 -120 -420.5t-333 -148.5q-111 0 -198 40t-142 119h-14q-31 -120 -37 -139h-129v1556h862v-151h-682v-227q0 -113 -10 -226h10q111 164 340 164zM664 967q-166 0 -238 -94t-72 -318v-8q0 -225 73.5 -321.5t240.5 -96.5
q148 0 220.5 108.5t72.5 313.5q0 208 -73 312t-224 104z" />
    <glyph glyph-name="uni0184" unicode="&#x184;" horiz-adv-x="1300" 
d="M369 430q0 -158 76.5 -225.5t250.5 -67.5q163 0 236.5 73t73.5 210q0 141 -98.5 202.5t-286.5 61.5h-252v-254zM184 1462h185v-618h274q265 0 409 -108.5t144 -315.5t-130.5 -323.5t-367.5 -116.5q-514 0 -514 450v1032z" />
    <glyph glyph-name="uni0185" unicode="&#x185;" horiz-adv-x="1253" 
d="M659 -20q-235 0 -363 148t-128 419v1009h180v-378q0 -113 -10 -226h10q111 164 340 164q217 0 335 -149.5t118 -417.5q0 -274 -125.5 -421.5t-356.5 -147.5zM348 543q0 -196 83.5 -305t230.5 -109t219.5 109t72.5 313q0 208 -72.5 312t-224.5 104q-165 0 -237 -94.5
t-72 -317.5v-12z" />
    <glyph glyph-name="uni0186" unicode="&#x186;" horiz-adv-x="1294" 
d="M498 1483q324 0 497.5 -197t173.5 -557q0 -225 -81 -394.5t-234.5 -262t-355.5 -92.5q-113 0 -201.5 13t-175.5 46v160q193 -58 348 -58q236 0 371 158t135 432q0 281 -130.5 435.5t-375.5 154.5q-157 0 -332 -80l-74 156q172 86 435 86z" />
    <glyph glyph-name="uni0187" unicode="&#x187;" horiz-adv-x="1294" 
d="M825 1321q-236 0 -371 -158t-135 -432q0 -283 131 -436.5t373 -153.5q156 0 351 58v-160q-93 -34 -179 -46.5t-198 -12.5q-323 0 -497.5 196.5t-174.5 556.5q0 226 83.5 396t243 262t375.5 92q124 0 240 -29v29q0 132 55 203t181 71q61 0 122 -26v-148q-49 21 -106 21
q-96 0 -96 -99v-104l-74 -160q-68 31 -147 55.5t-177 24.5z" />
    <glyph glyph-name="uni0188" unicode="&#x188;" horiz-adv-x="1030" 
d="M614 -20q-237 0 -369 145.5t-132 417.5q0 276 133.5 425.5t380.5 149.5q56 0 133 -12v186q0 132 54.5 203.5t180.5 71.5q60 0 123 -27v-149q-47 20 -106 20q-97 0 -97 -98v-254l-55 -150q-139 52 -237 52q-166 0 -245 -104.5t-79 -311.5q0 -199 79 -304.5t234 -105.5
q145 0 285 64v-160q-114 -59 -283 -59z" />
    <glyph glyph-name="uni0189" unicode="&#x189;" horiz-adv-x="1495" 
d="M47 805h152v657h407q153 0 277 -46t211 -136.5t134.5 -224.5t47.5 -310q0 -185 -48 -324.5t-139 -233t-223.5 -140.5t-300.5 -47h-366v643h-152v162zM1079 739q0 146 -33 252.5t-96 175.5t-155 102.5t-209 33.5h-201v-498h336v-162h-336v-483h162q264 0 398 146t134 433z
" />
    <glyph glyph-name="uni018A" unicode="&#x18a;" horiz-adv-x="1659" 
d="M1339 739q0 279 -137.5 422.5t-415.5 143.5h-239v-1147h198q594 0 594 581zM813 1462q344 0 532.5 -189.5t188.5 -527.5q0 -362 -197.5 -553.5t-566.5 -191.5h-408v1305h-53q-125 0 -125 -103q0 -61 21 -110h-162q-9 21 -16 54t-7 58q0 133 70.5 195.5t218.5 62.5h504z
" />
    <glyph glyph-name="uni018B" unicode="&#x18b;" horiz-adv-x="1260" 
d="M877 686h-168q-217 0 -315.5 -65t-98.5 -207q0 -129 90.5 -192.5t284.5 -63.5h207v528zM1061 1462v-1462h-408q-549 0 -549 406q0 210 151 324t433 114h189v456h-684v162h868z" />
    <glyph glyph-name="uni018C" unicode="&#x18c;" horiz-adv-x="1260" 
d="M592 129q164 0 239.5 89.5t75.5 293.5v33q0 229 -76.5 326.5t-240.5 97.5q-139 0 -215 -110.5t-76 -315.5q0 -204 75.5 -309t217.5 -105zM1085 0h-145l-27 147h-8q-115 -167 -342 -167q-214 0 -332 148t-118 419q0 269 118.5 420t333.5 151q221 0 340 -162h13
q-3 20 -8 80.5t-5 81.5v287h-682v151h862v-1556z" />
    <glyph glyph-name="uni018D" unicode="&#x18d;" horiz-adv-x="1237" 
d="M698 602q136 -77 195 -157t59 -179q0 -132 -98 -209t-270 -77q-104 0 -199 23t-223 87l78 141q76 -43 162 -73.5t190 -30.5q82 0 130 38t48 103q0 69 -54.5 122.5t-219.5 144.5q-213 117 -299 239t-86 279q0 236 135 369.5t377 133.5q229 0 366 -124t137 -334
q0 -179 -111 -307t-317 -189zM297 1055q0 -126 61.5 -216t196.5 -159q189 45 286 152t97 268q0 138 -85 222.5t-230 84.5q-158 0 -242 -90.5t-84 -261.5z" />
    <glyph glyph-name="uni018E" unicode="&#x18e;" horiz-adv-x="1139" 
d="M123 162h633v522h-596v160h596v456h-633v162h817v-1462h-817v162z" />
    <glyph glyph-name="uni018F" unicode="&#x18f;" horiz-adv-x="1513" 
d="M680 1323q-225 0 -467 -84v168q125 44 234 61t237 17q332 0 517 -200t185 -556q0 -350 -173.5 -549.5t-485.5 -199.5q-301 0 -453.5 188.5t-152.5 562.5v70h1071q-17 259 -146 390.5t-366 131.5zM727 141q205 0 327 130.5t138 367.5h-875q0 -255 100.5 -376.5
t309.5 -121.5z" />
    <glyph glyph-name="uni0190" unicode="&#x190;" horiz-adv-x="1204" 
d="M178 1120q0 167 124.5 265t340.5 98q132 0 254.5 -38.5t222.5 -113.5l-88 -125q-107 73 -193 99t-192 26q-130 0 -204 -62.5t-74 -166.5q0 -123 98.5 -195.5t296.5 -72.5h199v-154h-209q-225 0 -338 -67.5t-113 -198.5q0 -137 99 -210t286 -73q215 0 438 107v-168
q-184 -90 -448 -90q-276 0 -421.5 106t-145.5 313q0 156 95.5 248t280.5 117v8q-147 25 -228 115.5t-81 232.5z" />
    <glyph glyph-name="uni0191" unicode="&#x191;" horiz-adv-x="1063" 
d="M92 -492q-66 0 -115 27v156q42 -21 93 -21q72 0 100.5 41.5t28.5 126.5v1624h817v-162h-633v-518h594v-161h-594v-791q0 -322 -291 -322z" />
    <glyph glyph-name="florin" unicode="&#x192;" horiz-adv-x="1171" 
d="M330 -492q-73 0 -140 19v149q70 -18 129 -18q92 0 130 48t38 163v962h-215v84l215 62v133q0 193 81 283t266 90q93 0 210 -43l-45 -140q-102 33 -159 33q-94 0 -133 -50t-39 -171v-141h276v-140h-272v-962q0 -187 -82 -274t-260 -87z" />
    <glyph glyph-name="uni0193" unicode="&#x193;" horiz-adv-x="1491" 
d="M834 772h505v-717q-116 -37 -236 -56t-278 -19q-334 0 -517 198t-183 553q0 229 91 400t262.5 261.5t404.5 90.5q146 0 280 -35v35q0 132 55 203t181 71q59 0 123 -26v-148q-49 21 -107 21q-96 0 -96 -99v-108l-70 -160q-193 84 -377 84q-261 0 -408 -158t-147 -432
q0 -290 141 -441t410 -151q147 0 287 35v434h-321v164z" />
    <glyph glyph-name="uni0194" unicode="&#x194;" horiz-adv-x="1167" 
d="M684 221q68 -134 102.5 -248.5t34.5 -191.5q0 -121 -65.5 -197t-171.5 -76q-110 0 -174 77.5t-64 195.5q0 159 137 438l-483 1243h193q183 -486 279.5 -742t111.5 -341q20 104 102 323l287 760h194zM653 -215q0 54 -17.5 127.5t-51.5 138.5q-39 -77 -54.5 -147
t-15.5 -115q0 -63 19.5 -92t50.5 -29q69 0 69 117z" />
    <glyph glyph-name="uni0195" unicode="&#x195;" horiz-adv-x="1913" 
d="M1309 129q137 0 197.5 73.5t60.5 231.5v664h180v-670q0 -234 -104 -341t-334 -107q-226 0 -332.5 99.5t-106.5 301.5v321q0 134 -53.5 199.5t-169.5 65.5q-152 0 -222.5 -93.5t-70.5 -306.5v-567h-180v1556h180v-456q0 -90 -10 -154h12q50 85 135.5 127.5t184.5 42.5
q186 0 280.5 -95.5t94.5 -305.5v-322q0 -133 62.5 -198.5t195.5 -65.5z" />
    <glyph glyph-name="uni0196" unicode="&#x196;" horiz-adv-x="713" 
d="M367 1462v-1124q0 -99 37 -148t120 -49q44 0 91 7t77 16v-152q-26 -12 -82 -22t-112 -10q-164 0 -239 84.5t-75 257.5v1140h183z" />
    <glyph glyph-name="uni0197" unicode="&#x197;" horiz-adv-x="694" 
d="M610 0h-528v106l172 39v525h-184v159h184v486l-172 41v106h528v-106l-172 -41v-486h185v-159h-185v-525l172 -39v-106z" />
    <glyph glyph-name="uni0198" unicode="&#x198;" horiz-adv-x="1268" 
d="M670 829l598 -829h-217q-61 81 -248 353q-146 211 -258 347l-162 -157v-543h-184v1462h184v-737q57 72 123 148q44 50 379 460q59 77 111.5 109.5t136.5 32.5q62 0 102 -17v-143q-42 6 -90 6q-34 0 -64 -20t-75 -74z" />
    <glyph glyph-name="uni0199" unicode="&#x199;" horiz-adv-x="1094" 
d="M352 743l-8 -178h8l61 78l70 84l351 371h210l-444 -469l475 -629h-217l-381 512l-125 -109v-403h-178v1280q0 287 248 287q67 0 133 -27v-149q-47 20 -106 20q-47 0 -72 -27t-25 -92v-549z" />
    <glyph glyph-name="uni019A" unicode="&#x19a;" horiz-adv-x="528" 
d="M354 860h144v-135h-144v-725h-180v725h-143v135h143v696h180v-696z" />
    <glyph glyph-name="uni019B" unicode="&#x19b;" horiz-adv-x="1110" 
d="M-12 0l473 1077l-47 131l-217 -65l-39 129l202 61q-26 46 -60 66t-93 20q-62 0 -115 -12v145q68 17 135 17q109 0 178.5 -43t120.5 -142l224 68l38 -129l-208 -66l366 -1019q20 -57 43.5 -84t59.5 -27q24 0 61 10v-133q-50 -24 -117 -24q-74 0 -119 37t-77 128l-150 420
q-85 243 -102 326h-8q-33 -126 -113 -316l-250 -575h-186z" />
    <glyph glyph-name="uni019C" unicode="&#x19c;" horiz-adv-x="2109" 
d="M369 1462v-1036q0 -143 59 -215t188 -72q173 0 255.5 96.5t82.5 301.5v925h185v-1036q0 -143 59.5 -215t192.5 -72q172 0 252.5 102t80.5 337v884h185v-1462h-146l-30 168h-11q-51 -87 -151 -137.5t-219 -50.5q-139 0 -226.5 50t-132.5 154h-10q-58 -98 -163.5 -151
t-231.5 -53q-211 0 -307.5 108t-96.5 338v1036h185z" />
    <glyph glyph-name="uni019D" unicode="&#x19d;" horiz-adv-x="1556" 
d="M199 1462h213l45 -71l480 -742l255 -397h8q-2 24 -8 171.5t-6 213.5v825h172v-1462h-215l-783 1214h-8l5 -81q12 -182 12 -316v-987q0 -169 -69.5 -245.5t-207.5 -76.5q-66 0 -115 27v156q42 -21 93 -21q72 0 100.5 41.5t28.5 126.5v1624z" />
    <glyph glyph-name="uni019E" unicode="&#x19e;" horiz-adv-x="1266" 
d="M922 -492v1194q0 132 -59 198.5t-187 66.5q-169 0 -245.5 -95.5t-76.5 -302.5v-569h-180v1098h145l27 -150h10q51 81 143 125.5t203 44.5q202 0 300 -98t98 -305v-1207h-178z" />
    <glyph glyph-name="uni019F" unicode="&#x19f;" horiz-adv-x="1602" 
d="M1475 733q0 -351 -177.5 -552t-496.5 -201q-323 0 -499.5 197.5t-176.5 557.5q0 357 175.5 553.5t502.5 196.5q318 0 495 -199.5t177 -552.5zM801 139q222 0 343.5 133.5t133.5 393.5h-956q13 -260 134.5 -393.5t344.5 -133.5zM803 1323q-218 0 -340 -125.5t-141 -372.5
h954q-19 248 -138.5 373t-334.5 125z" />
    <glyph glyph-name="Ohorn" unicode="&#x1a0;" horiz-adv-x="1606" 
d="M1473 733q0 -354 -177.5 -553.5t-494.5 -199.5q-323 0 -499.5 196.5t-176.5 558.5q0 360 176.5 555t501.5 195t506 -213q68 19 99.5 81t31.5 203h194l15 -22q-31 -160 -98 -247t-171 -126q93 -174 93 -428zM319 733q0 -291 122 -442.5t360 -151.5q237 0 357 149.5
t120 444.5q0 292 -119.5 441t-355.5 149q-241 0 -362.5 -151t-121.5 -439z" />
    <glyph glyph-name="ohorn" unicode="&#x1a1;" horiz-adv-x="1262" 
d="M1128 551q0 -269 -136 -420t-376 -151q-149 0 -264 69.5t-177 199.5t-62 302q0 268 134 417.5t376 149.5q108 0 199 -36.5t157 -104.5q50 15 79.5 48.5t43.5 84t14 156.5h193l14 -23q-32 -161 -95 -248.5t-169 -126.5q69 -140 69 -317zM299 551q0 -216 79 -319t243 -103
q169 0 245 107t76 315q0 205 -77.5 310.5t-246.5 105.5t-244 -105.5t-75 -310.5z" />
    <glyph glyph-name="uni01A2" unicode="&#x1a2;" horiz-adv-x="2202" 
d="M1409 733q0 -354 -169 -553.5t-472 -199.5q-307 0 -475 197t-168 558q0 357 167.5 553.5t477.5 196.5q291 0 459 -187q57 88 159.5 137.5t225.5 49.5q209 0 306 -108t97 -339v-1038h-184v1038q0 144 -59 215.5t-189 71.5q-108 0 -177 -31t-108 -94q109 -189 109 -467z
M319 733q0 -290 114.5 -442t334.5 -152q219 0 332.5 150t113.5 444q0 293 -112.5 441.5t-331.5 148.5q-222 0 -336.5 -150.5t-114.5 -439.5z" />
    <glyph glyph-name="uni01A3" unicode="&#x1a3;" horiz-adv-x="1731" 
d="M1077 551q0 -270 -129.5 -420.5t-355.5 -150.5q-142 0 -251.5 69.5t-168.5 200.5t-59 301q0 267 127.5 417t355.5 150q217 0 346 -147q53 75 130.5 111t164.5 36q164 0 246 -96t82 -307v-1207h-179v1199q0 260 -188 260q-130 0 -192 -90q71 -130 71 -326zM299 551
q0 -207 75 -314.5t220 -107.5t221 107t76 315q0 206 -75.5 311t-221.5 105q-295 0 -295 -416z" />
    <glyph glyph-name="uni01A4" unicode="&#x1a4;" horiz-adv-x="1403" 
d="M547 727h147q218 0 316 70.5t98 226.5q0 141 -91 211t-284 70h-186v-578zM750 1462q548 0 548 -430q0 -223 -152 -343t-431 -120h-168v-569h-185v1305h-53q-125 0 -125 -103q0 -61 21 -110h-162q-9 21 -16 54t-7 58q0 133 70.5 195.5t218.5 62.5h441z" />
    <glyph glyph-name="uni01A5" unicode="&#x1a5;" horiz-adv-x="1260" 
d="M424 1567q67 0 133 -27v-149q-47 20 -106 20q-47 0 -72 -27t-25 -92v-164q0 -61 -8 -139l-4 -41h12q64 90 148 130t194 40q214 0 332.5 -148.5t118.5 -418.5q0 -269 -119 -420t-334 -151q-221 0 -340 159h-12l4 -41q8 -78 8 -139v-451h-180l2 1772q0 287 248 287z
M664 967q-163 0 -235.5 -92t-74.5 -289v-35q0 -223 74 -322.5t240 -99.5q138 0 215.5 112t77.5 312q0 201 -77.5 307.5t-219.5 106.5z" />
    <glyph glyph-name="uni01A6" unicode="&#x1a6;" horiz-adv-x="1274" 
d="M383 555h219q178 0 260 70t82 209q0 138 -83 201t-269 63h-209v-543zM383 399v-399h-184v1462h184v-205h219q272 0 402.5 -103.5t130.5 -311.5q0 -290 -293 -391l401 -656h-215l-354 604h-291z" />
    <glyph glyph-name="uni01A7" unicode="&#x1a7;" horiz-adv-x="1124" 
d="M96 391q0 99 41 172t125 130t254 120q140 52 202.5 90.5t90 86t27.5 118.5q0 101 -73.5 157t-203.5 56q-147 0 -315 -78l-58 158q175 82 369 82q209 0 338 -101t129 -272q0 -156 -85 -257.5t-292 -176.5q-159 -58 -230.5 -99t-102.5 -88t-31 -114q0 -110 82.5 -173
t246.5 -63q186 0 410 97v-177q-69 -34 -174 -56.5t-228 -22.5q-245 0 -383.5 110t-138.5 301z" />
    <glyph glyph-name="uni01A8" unicode="&#x1a8;" horiz-adv-x="981" 
d="M92 303q0 76 31 131t95.5 99t203.5 96q181 69 232 108.5t51 100.5q0 62 -58 97.5t-170 35.5q-103 0 -270 -70l-62 143q165 74 320 74q201 0 306.5 -75t105.5 -216q0 -76 -29.5 -129t-92.5 -95.5t-218 -102.5q-108 -41 -165.5 -73t-81.5 -63.5t-24 -76.5q0 -80 65.5 -121
t194.5 -41q172 0 348 88v-164q-128 -69 -344 -69q-438 0 -438 323z" />
    <glyph glyph-name="uni01A9" unicode="&#x1a9;" horiz-adv-x="1167" 
d="M74 0v152l479 612l-467 545v153h973v-164h-666l-96 2l461 -534l-482 -606l334 2h508v-162h-1044z" />
    <glyph glyph-name="uni01AA" unicode="&#x1aa;" horiz-adv-x="633" 
d="M137 1110q-123 0 -187.5 60t-64.5 169q0 110 67 169t189 59q130 0 198.5 -74t68.5 -215v-1425q0 -100 37 -148.5t120 -48.5q39 0 89.5 6.5t78.5 15.5v-137q-31 -14 -85.5 -23.5t-106.5 -9.5q-163 0 -237.5 84.5t-74.5 257.5v1260h-92zM129 1419q-44 0 -62 -24.5
t-18 -55.5q0 -82 101 -82h79v27q0 72 -25 103.5t-75 31.5z" />
    <glyph glyph-name="uni01AB" unicode="&#x1ab;" horiz-adv-x="739" 
d="M455 -492q-60 0 -123 25v150q46 -19 102 -19q98 0 98 107v209h-22q-322 0 -322 339v639h-155v86l157 72l72 234h107v-252h317v-140h-317v-634q0 -95 45.5 -146t126.5 -51q35 0 82 7t71 16v-369q0 -273 -239 -273z" />
    <glyph glyph-name="uni01AC" unicode="&#x1ac;" horiz-adv-x="1180" 
d="M309 1300q-125 0 -125 -98q0 -61 21 -110h-162q-9 21 -16 54t-7 58q0 133 70.5 195.5t218.5 62.5h848v-162h-455v-1300h-184v1300h-209z" />
    <glyph glyph-name="uni01AD" unicode="&#x1ad;" horiz-adv-x="739" 
d="M369 1098h317v-140h-317v-634q0 -95 45.5 -146t126.5 -51q35 0 82 7t71 16v-138q-25 -11 -77.5 -21.5t-106.5 -10.5q-322 0 -322 339v639h-155v86l157 72v135q0 316 302 316q79 0 157 -27v-149q-23 8 -70.5 14t-86.5 6q-65 0 -94 -35t-29 -104v-174z" />
    <glyph glyph-name="uni01AE" unicode="&#x1ae;" horiz-adv-x="1139" 
d="M477 1300h-457v162h1096v-162h-454v-1462q0 -87 29 -127.5t100 -40.5q50 0 92 21v-156q-49 -27 -129 -27q-139 0 -208 76.5t-69 245.5v1470z" />
    <glyph glyph-name="Uhorn" unicode="&#x1af;" horiz-adv-x="1597" 
d="M1311 1462v-198q82 11 120.5 75.5t38.5 216.5h191l14 -22q-33 -185 -121 -278t-243 -119v-621q0 -256 -144.5 -396t-410.5 -140q-272 0 -422 144t-150 396v942h185v-950q0 -177 97 -275t294 -98q180 0 274 95t94 280v948h183z" />
    <glyph glyph-name="uhorn" unicode="&#x1b0;" horiz-adv-x="1380" 
d="M344 1096v-705q0 -133 59.5 -197.5t184.5 -64.5q169 0 246 94t77 303v570h181v-121q80 13 116.5 77t36.5 216h191l14 -23q-32 -191 -120.5 -285.5t-237.5 -111.5v-848h-148l-26 145h-9q-50 -79 -139 -122t-205 -43q-201 0 -302 95t-101 304v717h182z" />
    <glyph glyph-name="uni01B1" unicode="&#x1b1;" horiz-adv-x="1602" 
d="M801 139q234 0 354.5 127.5t120.5 374.5q0 225 -83 386.5t-259 287.5v147h590v-162h-365q151 -116 231 -288t80 -377q0 -308 -177.5 -483t-491.5 -175q-318 0 -495 174t-177 482q0 205 80 379t229 288h-362v162h590v-147q-179 -128 -261.5 -291t-82.5 -383
q0 -246 121.5 -374t357.5 -128z" />
    <glyph glyph-name="uni01B2" unicode="&#x1b2;" horiz-adv-x="1229" 
d="M1169 1188q0 -109 -92 -322l-370 -866h-185l-522 1462h193l331 -954q63 -180 92 -320q17 61 55 149q43 102 66 167l174 416q74 181 74 256q0 80 -33 112.5t-96 32.5q-50 0 -92 -21v156q46 27 129 27q276 0 276 -295z" />
    <glyph glyph-name="uni01B3" unicode="&#x1b3;" horiz-adv-x="1159" 
d="M80 1329q-43 0 -80 -16v149q58 23 123 23q75 0 121 -35.5t84 -118.5l262 -588l371 719h198l-477 -895v-567h-184v559l-332 698q-36 72 -86 72z" />
    <glyph glyph-name="uni01B4" unicode="&#x1b4;" horiz-adv-x="1110" 
d="M993 1118q67 0 117 -24v-133q-37 10 -61 10q-36 0 -58.5 -27t-44.5 -84l-375 -1012q-65 -179 -161.5 -259.5t-237.5 -80.5q-75 0 -149 17v143q50 -12 120 -12q174 0 248 194l53 146l-442 1102h193l237 -625q75 -204 92 -299h8q17 73 99 301l155 445q39 111 84.5 154.5
t122.5 43.5z" />
    <glyph glyph-name="uni01B5" unicode="&#x1b5;" horiz-adv-x="1171" 
d="M162 834h377l309 464h-746v164h969v-139l-326 -489h250v-146h-346l-348 -524h791v-164h-1014v139l364 549h-280v146z" />
    <glyph glyph-name="uni01B6" unicode="&#x1b6;" horiz-adv-x="963" 
d="M117 641h329l224 317h-555v140h753v-135l-227 -322h207v-143h-309l-252 -359h596v-139h-803v119l266 379h-229v143z" />
    <glyph glyph-name="uni01B7" unicode="&#x1b7;" horiz-adv-x="1196" 
d="M596 901q139 -4 251 -61t174 -156.5t62 -230.5q0 -224 -155 -348.5t-434 -124.5q-259 0 -422 79v168q100 -48 213 -72t211 -24q199 0 297 84t98 240q0 142 -101 219.5t-294 77.5h-127v133l422 413h-678v164h909v-145z" />
    <glyph glyph-name="uni01B8" unicode="&#x1b8;" horiz-adv-x="1196" 
d="M174 1317v145h909v-164h-675l419 -413v-133h-159q-173 0 -268 -83t-95 -233q0 -145 101 -225t294 -80q100 0 212.5 24t211.5 72v-168q-92 -44 -201 -61.5t-245 -17.5q-179 0 -306 55.5t-193 157.5t-66 239q0 139 61.5 243.5t172.5 163t253 62.5z" />
    <glyph glyph-name="uni01B9" unicode="&#x1b9;" horiz-adv-x="1020" 
d="M125 967v131h838v-152h-627l448 -497v-125h-120q-206 0 -310 -87t-104 -255q0 -146 96.5 -235t257.5 -89q204 0 387 86v-164q-140 -72 -401 -72q-232 0 -376 129.5t-144 339.5q0 216 131.5 344.5t371.5 145.5z" />
    <glyph glyph-name="uni01BA" unicode="&#x1ba;" horiz-adv-x="1020" 
d="M442 -342q172 0 328 74v-164q-122 -60 -330 -60q-185 0 -284 64t-99 180q0 128 95 188t282 60q163 0 234 56t71 194q0 122 -91 179.5t-292 57.5h-120v125l374 334h-553v152h807v-131l-383 -336q212 -10 325.5 -105.5t113.5 -273.5q0 -195 -122 -298.5t-360 -103.5
q-108 0 -159.5 -21t-51.5 -77q0 -43 54.5 -68.5t160.5 -25.5z" />
    <glyph glyph-name="uni01BB" unicode="&#x1bb;" horiz-adv-x="1167" 
d="M160 858h493q56 90 80.5 167.5t24.5 166.5q0 103 -61 160t-169 57q-93 0 -167.5 -34t-149.5 -101l-96 121q191 172 417 172q192 0 302 -99.5t110 -271.5q0 -86 -21.5 -166.5t-72.5 -171.5h205v-143h-295q-22 -33 -48 -66.5t-413 -496.5v-9h766v-143h-967v150l359 440
l96 125h-393v143z" />
    <glyph glyph-name="uni01BC" unicode="&#x1bc;" horiz-adv-x="1196" 
d="M459 1298v-395h86q158 0 281 -55t190 -157t67 -238q0 -224 -155 -348.5t-434 -124.5q-259 0 -422 79v168q100 -48 213 -72t211 -24q199 0 297 84t98 240q0 139 -96 218t-267 79h-254v546h-161v164h909v-164h-563z" />
    <glyph glyph-name="uni01BD" unicode="&#x1bd;" horiz-adv-x="1004" 
d="M406 946v-239h47q219 0 338.5 -95t119.5 -278q0 -167 -124 -260.5t-345 -93.5q-242 0 -374 71v162q183 -86 372 -86q141 0 217 54.5t76 162.5q0 109 -77 162t-236 53h-195v387h-127v152h746v-152h-438z" />
    <glyph glyph-name="uni01BE" unicode="&#x1be;" horiz-adv-x="948" 
d="M279 774v184h-187v86l189 72l71 234h107v-252h317v-140h-317v-188q0 -69 21 -101.5t75 -50.5q169 -63 235 -136t66 -179q0 -154 -115 -238.5t-323 -84.5q-216 0 -344 69v164q176 -88 348 -88q136 0 198 44t62 118q0 60 -49.5 102t-183.5 96q-97 41 -133.5 107t-36.5 182z
" />
    <glyph glyph-name="uni01BF" unicode="&#x1bf;" horiz-adv-x="1202" 
d="M354 -492h-180v1590h148l24 -150h8q112 170 324 170q196 0 311 -121t115 -335q0 -187 -93.5 -337.5t-266 -241t-390.5 -103.5v-472zM354 127q268 35 416 175t148 355q0 142 -74 226t-203 84q-149 0 -218 -90t-69 -291v-459z" />
    <glyph glyph-name="uni01C0" unicode="&#x1c0;" horiz-adv-x="1057" 
d="M608 -492h-159v2048h159v-2048z" />
    <glyph glyph-name="uni01C1" unicode="&#x1c1;" horiz-adv-x="1057" 
d="M345 -492h-159v2048h159v-2048zM872 -492h-159v2048h159v-2048z" />
    <glyph glyph-name="uni01C2" unicode="&#x1c2;" horiz-adv-x="1057" 
d="M133 823h316v733h159v-733h316v-147h-316v-254h316v-148h-316v-766h-159v766h-316v148h316v254h-316v147z" />
    <glyph glyph-name="uni01C3" unicode="&#x1c3;" horiz-adv-x="551" 
d="M334 412h-117l-51 1050h219zM147 111q0 66 32.5 101.5t94.5 35.5t94.5 -36.5t32.5 -100.5t-33.5 -102t-93.5 -38q-61 0 -94 37t-33 103z" />
    <glyph glyph-name="uni01C4" unicode="&#x1c4;" horiz-adv-x="2646" 
d="M1694 1907h123q114 -74 219 -189q126 126 223 189h127v-27q-205 -205 -256 -301h-184q-60 102 -252 301v27zM1276 745q0 -185 -48 -324.5t-139 -233t-223.5 -140.5t-300.5 -47h-366v1462h407q153 0 277 -46t211 -136.5t134.5 -224.5t47.5 -310zM1079 739q0 146 -33 252.5
t-96 175.5t-155 102.5t-209 33.5h-201v-1143h162q264 0 398 146t134 433zM2497 0h-940v145l711 1151h-691v166h899v-145l-710 -1151h731v-166z" />
    <glyph glyph-name="uni01C5" unicode="&#x1c5;" horiz-adv-x="2458" 
d="M1638 1569h123q114 -74 219 -189q126 126 223 189h127v-27q-205 -205 -256 -301h-184q-60 102 -252 301v27zM1276 745q0 -185 -48 -324.5t-139 -233t-223.5 -140.5t-300.5 -47h-366v1462h407q153 0 277 -46t211 -136.5t134.5 -224.5t47.5 -310zM1079 739q0 146 -33 252.5
t-96 175.5t-155 102.5t-209 33.5h-201v-1143h162q264 0 398 146t134 433zM2316 0h-739v125l536 836h-503v137h688v-146l-524 -815h542v-137z" />
    <glyph glyph-name="uni01C6" unicode="&#x1c6;" horiz-adv-x="2222" 
d="M1407 1569h123q114 -74 219 -189q126 126 223 189h127v-27q-205 -205 -256 -301h-184q-60 102 -252 301v27zM852 147h-8q-22 -34 -51.5 -64.5t-68 -53.5t-86.5 -36t-108 -13q-93 0 -170 36t-132 107.5t-85 177.5t-30 246q0 141 30 247.5t85 178.5t132 108.5t170 36.5
q59 0 107 -13t86.5 -35t68.5 -51t52 -61h12q-3 34 -6 65q-2 26 -4 53.5t-2 43.5v436h182v-1556h-147zM565 131q76 0 128.5 23t85 70t48 117.5t17.5 164.5v41q0 101 -13.5 179.5t-46 132t-86.5 81t-135 27.5q-135 0 -198.5 -109t-63.5 -313q0 -209 63.5 -311.5t200.5 -102.5z
M2081 0h-739v125l536 836h-503v137h688v-146l-524 -815h542v-137z" />
    <glyph glyph-name="uni01C7" unicode="&#x1c7;" horiz-adv-x="1632" 
d="M199 0v1462h186v-1296h573v-166h-759zM1044 -389q-51 0 -89 6.5t-66 17.5v160q34 -9 73 -14.5t84 -5.5q37 0 74.5 9.5t68 34.5t49.5 69t19 112v1462h187v-1442q0 -105 -29.5 -182t-82 -127.5t-126 -75t-162.5 -24.5z" />
    <glyph glyph-name="uni01C8" unicode="&#x1c8;" horiz-adv-x="1602" 
d="M199 0v1462h186v-1296h573v-166h-759zM1139 -492q-48 0 -79.5 7t-54.5 18v148q26 -10 53 -15.5t62 -5.5q27 0 50 7.5t40.5 27t27 52t9.5 83.5v1268h182v-1256q0 -77 -17 -138.5t-53 -105t-90.5 -67t-129.5 -23.5zM1233 1395q0 60 30.5 87t75.5 27q22 0 41.5 -6.5
t34 -20.5t23 -35.5t8.5 -51.5q0 -58 -31.5 -86.5t-75.5 -28.5q-45 0 -75.5 28t-30.5 87z" />
    <glyph glyph-name="uni01C9" unicode="&#x1c9;" horiz-adv-x="1057" 
d="M356 0h-182v1556h182v-1556zM594 -492q-48 0 -79.5 7t-54.5 18v148q26 -10 53 -15.5t62 -5.5q27 0 50 7.5t40.5 27t27 52t9.5 83.5v1268h182v-1256q0 -77 -17 -138.5t-53 -105t-90.5 -67t-129.5 -23.5zM688 1395q0 60 30.5 87t75.5 27q22 0 41.5 -6.5t34 -20.5t23 -35.5
t8.5 -51.5q0 -58 -31.5 -86.5t-75.5 -28.5q-45 0 -75.5 28t-30.5 87z" />
    <glyph glyph-name="uni01CA" unicode="&#x1ca;" horiz-adv-x="2116" 
d="M1294 0h-215l-719 1210h-8q6 -77 10 -153q4 -65 6.5 -136t2.5 -128v-793h-172v1462h213l716 -1204h7q-3 76 -7 150q-1 32 -2.5 65.5l-3 67t-2 64.5t-0.5 57v800h174v-1462zM1527 -389q-51 0 -89 6.5t-66 17.5v160q34 -9 73 -14.5t84 -5.5q37 0 74.5 9.5t68 34.5t49.5 69
t19 112v1462h187v-1442q0 -105 -29.5 -182t-82 -127.5t-126 -75t-162.5 -24.5z" />
    <glyph glyph-name="uni01CB" unicode="&#x1cb;" horiz-adv-x="2085" 
d="M1294 0h-215l-719 1210h-8q6 -77 10 -153q4 -65 6.5 -136t2.5 -128v-793h-172v1462h213l716 -1204h7q-3 76 -7 150q-1 32 -2.5 65.5l-3 67t-2 64.5t-0.5 57v800h174v-1462zM1622 -492q-48 0 -79.5 7t-54.5 18v148q26 -10 53 -15.5t62 -5.5q27 0 50 7.5t40.5 27t27 52
t9.5 83.5v1268h182v-1256q0 -77 -17 -138.5t-53 -105t-90.5 -67t-129.5 -23.5zM1716 1395q0 60 30.5 87t75.5 27q22 0 41.5 -6.5t34 -20.5t23 -35.5t8.5 -51.5q0 -58 -31.5 -86.5t-75.5 -28.5q-45 0 -75.5 28t-30.5 87z" />
    <glyph glyph-name="uni01CC" unicode="&#x1cc;" horiz-adv-x="1794" 
d="M860 0v707q0 130 -52.5 195t-164.5 65q-81 0 -136 -26t-88.5 -77t-48 -125t-14.5 -170v-569h-182v1098h148l26 -148h10q25 43 59.5 74.5t75.5 52.5t87 31t94 10q183 0 275.5 -95.5t92.5 -305.5v-717h-182zM1332 -492q-48 0 -79.5 7t-54.5 18v148q26 -10 53 -15.5t62 -5.5
q27 0 50 7.5t40.5 27t27 52t9.5 83.5v1268h182v-1256q0 -77 -17 -138.5t-53 -105t-90.5 -67t-129.5 -23.5zM1426 1395q0 60 30.5 87t75.5 27q22 0 41.5 -6.5t34 -20.5t23 -35.5t8.5 -51.5q0 -58 -31.5 -86.5t-75.5 -28.5q-45 0 -75.5 28t-30.5 87z" />
    <glyph glyph-name="uni01CD" unicode="&#x1cd;" horiz-adv-x="1309" 
d="M307 1934h123q114 -74 219 -189q126 126 223 189h127v-27q-205 -205 -256 -301h-184q-60 102 -252 301v27zM1055 0l-160 453h-545l-162 -453h-188l537 1468h170l538 -1468h-190zM836 618l-148 424q-6 18 -14.5 44t-17.5 56t-18 62.5t-17 63.5q-7 -31 -16 -64t-18 -63.5
t-17.5 -56t-14.5 -42.5l-145 -424h426z" />
    <glyph glyph-name="uni01CE" unicode="&#x1ce;" horiz-adv-x="1149" 
d="M230 1569h123q114 -74 219 -189q126 126 223 189h127v-27q-205 -205 -256 -301h-184q-60 102 -252 301v27zM793 0l-37 152h-8q-33 -45 -66 -77.5t-72 -53.5t-87 -31t-111 -10q-69 0 -127 19.5t-100.5 60t-66.5 102t-24 145.5q0 164 115.5 252t351.5 96l184 7v69
q0 67 -14.5 112t-42 72.5t-68 39.5t-92.5 12q-83 0 -154.5 -24t-137.5 -58l-64 137q74 40 165 68t191 28q102 0 176.5 -20.5t123 -65t72.5 -113.5t24 -167v-752h-131zM459 127q61 0 113 19t90 57.5t59.5 97t21.5 137.5v99l-143 -7q-90 -4 -151 -20t-97.5 -44.5t-52.5 -69
t-16 -91.5q0 -92 48.5 -135t127.5 -43z" />
    <glyph glyph-name="uni01CF" unicode="&#x1cf;" horiz-adv-x="694" 
d="M3 1934h123q114 -74 219 -189q126 126 223 189h127v-27q-205 -205 -256 -301h-184q-60 102 -252 301v27zM612 0h-530v102l172 41v1176l-172 41v102h530v-102l-172 -41v-1176l172 -41v-102z" />
    <glyph glyph-name="uni01D0" unicode="&#x1d0;" horiz-adv-x="528" 
d="M-81 1569h123q114 -74 219 -189q126 126 223 189h127v-27q-205 -205 -256 -301h-184q-60 102 -252 301v27zM356 0h-182v1098h182v-1098z" />
    <glyph glyph-name="uni01D1" unicode="&#x1d1;" horiz-adv-x="1599" 
d="M453 1934h123q114 -74 219 -189q126 126 223 189h127v-27q-205 -205 -256 -301h-184q-60 102 -252 301v27zM1393 733q0 -169 -40.5 -308t-120.5 -238t-198.5 -153t-273.5 -54q-163 0 -282.5 54t-198 153t-116.5 238.5t-38 309.5t38 308.5t117 236.5t199 151.5t283 53.5
q155 0 272.5 -53.5t197.5 -152t120.5 -237t40.5 -309.5zM322 733q0 -137 26 -246.5t79.5 -186t136 -117t196.5 -40.5t196.5 40.5t136 117t78.5 186t25 246.5q0 138 -25 247t-78 184.5t-135 116t-196 40.5t-197 -40.5t-137 -116t-80 -184.5t-26 -247z" />
    <glyph glyph-name="uni01D2" unicode="&#x1d2;" horiz-adv-x="1239" 
d="M272 1569h123q114 -74 219 -189q126 126 223 189h127v-27q-205 -205 -256 -301h-184q-60 102 -252 301v27zM1069 551q0 -137 -33.5 -243.5t-96 -179t-151.5 -110.5t-200 -38q-103 0 -190 38t-150.5 110.5t-99 179t-35.5 243.5q0 136 33.5 241.5t95.5 178t151.5 110
t200.5 37.5q103 0 190 -37.5t150.5 -110t99 -178t35.5 -241.5zM301 551q0 -209 68.5 -314.5t222.5 -105.5t221.5 105.5t67.5 314.5t-68.5 312.5t-222.5 103.5t-221.5 -103.5t-67.5 -312.5z" />
    <glyph glyph-name="uni01D3" unicode="&#x1d3;" horiz-adv-x="1497" 
d="M401 1934h123q114 -74 219 -189q126 126 223 189h127v-27q-205 -205 -256 -301h-184q-60 102 -252 301v27zM1245 1464v-948q0 -114 -33 -212t-99.5 -170t-167 -113t-236.5 -41q-128 0 -226 38.5t-164.5 109.5t-100.5 170.5t-34 221.5v942h187v-952q0 -175 86.5 -271
t261.5 -96q89 0 153 27t105 76t61 117t21 149v952h186z" />
    <glyph glyph-name="uni01D4" unicode="&#x1d4;" horiz-adv-x="1266" 
d="M287 1569h123q114 -74 219 -189q126 126 223 189h127v-27q-205 -205 -256 -301h-184q-60 102 -252 301v27zM885 0l-27 147h-10q-25 -43 -59.5 -74.5t-75.5 -52t-87 -30.5t-94 -10q-91 0 -160 23t-115 72t-69.5 125t-23.5 181v717h182v-707q0 -130 53 -195t164 -65
q81 0 136 26t88.5 76.5t48 124.5t14.5 170v570h182v-1098h-147z" />
    <glyph glyph-name="uni01D5" unicode="&#x1d5;" horiz-adv-x="1497" 
d="M1041 1669q0 -48 -25.5 -74t-71.5 -26t-71 27t-25 73q0 53 29 78t67 25q41 0 69 -25t28 -78zM656 1669q0 -53 -28 -76.5t-67 -23.5q-46 0 -71 27t-25 73q0 53 29 78t67 25q39 0 67 -25t28 -78zM449 2050h608v-145h-608v145zM1245 1464v-948q0 -114 -33 -212t-99.5 -170
t-167 -113t-236.5 -41q-128 0 -226 38.5t-164.5 109.5t-100.5 170.5t-34 221.5v942h187v-952q0 -175 86.5 -271t261.5 -96q89 0 153 27t105 76t61 117t21 149v952h186z" />
    <glyph glyph-name="uni01D6" unicode="&#x1d6;" horiz-adv-x="1266" 
d="M916 1331q0 -48 -25.5 -74t-71.5 -26t-71 27t-25 73q0 53 29 78t67 25q41 0 69 -25t28 -78zM531 1331q0 -53 -28 -76.5t-67 -23.5q-46 0 -71 27t-25 73q0 53 29 78t67 25q39 0 67 -25t28 -78zM324 1712h608v-145h-608v145zM885 0l-27 147h-10q-25 -43 -59.5 -74.5
t-75.5 -52t-87 -30.5t-94 -10q-91 0 -160 23t-115 72t-69.5 125t-23.5 181v717h182v-707q0 -130 53 -195t164 -65q81 0 136 26t88.5 76.5t48 124.5t14.5 170v570h182v-1098h-147z" />
    <glyph glyph-name="uni01D7" unicode="&#x1d7;" horiz-adv-x="1497" 
d="M1022 1669q0 -48 -25.5 -74t-71.5 -26t-71 27t-25 73q0 53 29 78t67 25q41 0 69 -25t28 -78zM637 1669q0 -53 -28 -76.5t-67 -23.5q-46 0 -71 27t-25 73q0 53 29 78t67 25q39 0 67 -25t28 -78zM624 1849q149 173 197 273h215v-21q-57 -89 -291 -276h-121v24zM1245 1464
v-948q0 -114 -33 -212t-99.5 -170t-167 -113t-236.5 -41q-128 0 -226 38.5t-164.5 109.5t-100.5 170.5t-34 221.5v942h187v-952q0 -175 86.5 -271t261.5 -96q89 0 153 27t105 76t61 117t21 149v952h186z" />
    <glyph glyph-name="uni01D8" unicode="&#x1d8;" horiz-adv-x="1266" 
d="M914 1331q0 -48 -25.5 -74t-71.5 -26t-71 27t-25 73q0 53 29 78t67 25q41 0 69 -25t28 -78zM529 1331q0 -53 -28 -76.5t-67 -23.5q-46 0 -71 27t-25 73q0 53 29 78t67 25q39 0 67 -25t28 -78zM516 1511q149 173 197 273h215v-21q-57 -89 -291 -276h-121v24zM885 0
l-27 147h-10q-25 -43 -59.5 -74.5t-75.5 -52t-87 -30.5t-94 -10q-91 0 -160 23t-115 72t-69.5 125t-23.5 181v717h182v-707q0 -130 53 -195t164 -65q81 0 136 26t88.5 76.5t48 124.5t14.5 170v570h182v-1098h-147z" />
    <glyph glyph-name="uni01D9" unicode="&#x1d9;" horiz-adv-x="1497" 
d="M1032 1669q0 -48 -25.5 -74t-71.5 -26t-71 27t-25 73q0 53 29 78t67 25q41 0 69 -25t28 -78zM647 1669q0 -53 -28 -76.5t-67 -23.5q-46 0 -71 27t-25 73q0 53 29 78t67 25q39 0 67 -25t28 -78zM399 2142h123q53 -35 110.5 -74t108.5 -94q56 56 112.5 94.5t110.5 73.5h127
v-26l-66 -64q-150 -142 -190 -217h-184q-44 74 -188 217l-64 64v26zM1245 1464v-948q0 -114 -33 -212t-99.5 -170t-167 -113t-236.5 -41q-128 0 -226 38.5t-164.5 109.5t-100.5 170.5t-34 221.5v942h187v-952q0 -175 86.5 -271t261.5 -96q89 0 153 27t105 76t61 117t21 149
v952h186z" />
    <glyph glyph-name="uni01DA" unicode="&#x1da;" horiz-adv-x="1266" 
d="M910 1331q0 -48 -25.5 -74t-71.5 -26t-71 27t-25 73q0 53 29 78t67 25q41 0 69 -25t28 -78zM525 1331q0 -53 -28 -76.5t-67 -23.5q-46 0 -71 27t-25 73q0 53 29 78t67 25q39 0 67 -25t28 -78zM277 1804h123q53 -35 110.5 -74t108.5 -94q56 56 112.5 94.5t110.5 73.5h127
v-26l-66 -64q-150 -142 -190 -217h-184q-44 74 -188 217l-64 64v26zM885 0l-27 147h-10q-25 -43 -59.5 -74.5t-75.5 -52t-87 -30.5t-94 -10q-91 0 -160 23t-115 72t-69.5 125t-23.5 181v717h182v-707q0 -130 53 -195t164 -65q81 0 136 26t88.5 76.5t48 124.5t14.5 170v570
h182v-1098h-147z" />
    <glyph glyph-name="uni01DB" unicode="&#x1db;" horiz-adv-x="1497" 
d="M1024 1669q0 -48 -25.5 -74t-71.5 -26t-71 27t-25 73q0 53 29 78t67 25q41 0 69 -25t28 -78zM639 1669q0 -53 -28 -76.5t-67 -23.5q-46 0 -71 27t-25 73q0 53 29 78t67 25q39 0 67 -25t28 -78zM848 1825h-121q-234 187 -291 276v21h215q48 -100 197 -273v-24zM1245 1464
v-948q0 -114 -33 -212t-99.5 -170t-167 -113t-236.5 -41q-128 0 -226 38.5t-164.5 109.5t-100.5 170.5t-34 221.5v942h187v-952q0 -175 86.5 -271t261.5 -96q89 0 153 27t105 76t61 117t21 149v952h186z" />
    <glyph glyph-name="uni01DC" unicode="&#x1dc;" horiz-adv-x="1266" 
d="M916 1331q0 -48 -25.5 -74t-71.5 -26t-71 27t-25 73q0 53 29 78t67 25q41 0 69 -25t28 -78zM531 1331q0 -53 -28 -76.5t-67 -23.5q-46 0 -71 27t-25 73q0 53 29 78t67 25q39 0 67 -25t28 -78zM740 1487h-121q-234 187 -291 276v21h215q48 -100 197 -273v-24zM885 0
l-27 147h-10q-25 -43 -59.5 -74.5t-75.5 -52t-87 -30.5t-94 -10q-91 0 -160 23t-115 72t-69.5 125t-23.5 181v717h182v-707q0 -130 53 -195t164 -65q81 0 136 26t88.5 76.5t48 124.5t14.5 170v570h182v-1098h-147z" />
    <glyph glyph-name="uni01DD" unicode="&#x1dd;" horiz-adv-x="1155" 
d="M514 1118q248 0 388 -149.5t140 -411.5q0 -264 -131 -420.5t-354 -156.5q-207 0 -330 133.5t-123 361.5v109h752q-5 186 -95 283.5t-255 97.5q-88 0 -167 -15.5t-185 -60.5v158q91 39 171 55t189 16zM559 127q129 0 204 83t89 230h-559q2 -151 70 -232t196 -81z" />
    <glyph glyph-name="uni01DE" unicode="&#x1de;" horiz-adv-x="1309" 
d="M942 1669q0 -48 -25.5 -74t-71.5 -26t-71 27t-25 73q0 53 29 78t67 25q41 0 69 -25t28 -78zM557 1669q0 -53 -28 -76.5t-67 -23.5q-46 0 -71 27t-25 73q0 53 29 78t67 25q39 0 67 -25t28 -78zM350 2050h608v-145h-608v145zM1055 0l-160 453h-545l-162 -453h-188l537 1468
h170l538 -1468h-190zM836 618l-148 424q-6 18 -14.5 44t-17.5 56t-18 62.5t-17 63.5q-7 -31 -16 -64t-18 -63.5t-17.5 -56t-14.5 -42.5l-145 -424h426z" />
    <glyph glyph-name="uni01DF" unicode="&#x1df;" horiz-adv-x="1149" 
d="M873 1331q0 -48 -25.5 -74t-71.5 -26t-71 27t-25 73q0 53 29 78t67 25q41 0 69 -25t28 -78zM488 1331q0 -53 -28 -76.5t-67 -23.5q-46 0 -71 27t-25 73q0 53 29 78t67 25q39 0 67 -25t28 -78zM281 1712h608v-145h-608v145zM793 0l-37 152h-8q-33 -45 -66 -77.5t-72 -53.5
t-87 -31t-111 -10q-69 0 -127 19.5t-100.5 60t-66.5 102t-24 145.5q0 164 115.5 252t351.5 96l184 7v69q0 67 -14.5 112t-42 72.5t-68 39.5t-92.5 12q-83 0 -154.5 -24t-137.5 -58l-64 137q74 40 165 68t191 28q102 0 176.5 -20.5t123 -65t72.5 -113.5t24 -167v-752h-131z
M459 127q61 0 113 19t90 57.5t59.5 97t21.5 137.5v99l-143 -7q-90 -4 -151 -20t-97.5 -44.5t-52.5 -69t-16 -91.5q0 -92 48.5 -135t127.5 -43z" />
    <glyph glyph-name="uni01E0" unicode="&#x1e0;" horiz-adv-x="1309" 
d="M551 1692q0 60 30.5 87t75.5 27q48 0 76 -30.5t28 -83.5q0 -54 -29 -84.5t-75 -30.5q-45 0 -75.5 28t-30.5 87zM350 2050h608v-145h-608v145zM1055 0l-160 453h-545l-162 -453h-188l537 1468h170l538 -1468h-190zM836 618l-148 424q-6 18 -14.5 44t-17.5 56t-18 62.5
t-17 63.5q-7 -31 -16 -64t-18 -63.5t-17.5 -56t-14.5 -42.5l-145 -424h426z" />
    <glyph glyph-name="uni01E1" unicode="&#x1e1;" horiz-adv-x="1149" 
d="M482 1356q0 60 30.5 87t75.5 27q48 0 76 -30.5t28 -83.5q0 -54 -29 -84.5t-75 -30.5q-45 0 -75.5 28t-30.5 87zM281 1714h608v-145h-608v145zM793 0l-37 152h-8q-33 -45 -66 -77.5t-72 -53.5t-87 -31t-111 -10q-69 0 -127 19.5t-100.5 60t-66.5 102t-24 145.5
q0 164 115.5 252t351.5 96l184 7v69q0 67 -14.5 112t-42 72.5t-68 39.5t-92.5 12q-83 0 -154.5 -24t-137.5 -58l-64 137q74 40 165 68t191 28q102 0 176.5 -20.5t123 -65t72.5 -113.5t24 -167v-752h-131zM459 127q61 0 113 19t90 57.5t59.5 97t21.5 137.5v99l-143 -7
q-90 -4 -151 -20t-97.5 -44.5t-52.5 -69t-16 -91.5q0 -92 48.5 -135t127.5 -43z" />
    <glyph glyph-name="uni01E2" unicode="&#x1e2;" horiz-adv-x="1804" 
d="M711 1724h608v-145h-608v145zM1622 0h-760v453h-475l-203 -453h-186l655 1462h969v-164h-573v-452h534v-162h-534v-520h573v-164zM459 618h403v680h-108z" />
    <glyph glyph-name="uni01E3" unicode="&#x1e3;" horiz-adv-x="1769" 
d="M580 1386h608v-145h-608v145zM94 307q0 164 115.5 252t351.5 96l184 7v69q0 67 -14.5 112t-42 72.5t-68 39.5t-92.5 12q-83 0 -154.5 -24t-137.5 -58l-64 137q74 40 165 68t191 28q131 0 214 -42.5t126 -135.5q51 85 134 131.5t186 46.5q97 0 174 -35.5t131 -100
t82.5 -155t28.5 -200.5v-113h-672q5 -193 78.5 -284t220.5 -91q49 0 91.5 5t81.5 14.5t76 24t74 32.5v-162q-39 -19 -76.5 -33t-77 -23t-82 -13t-91.5 -4q-138 0 -239 57t-163 172q-34 -54 -72 -96.5t-85.5 -72t-105.5 -45t-132 -15.5q-71 0 -132.5 19.5t-106.5 60t-71 102
t-26 145.5zM283 305q0 -92 48.5 -135t127.5 -43q61 0 113 19t90 57.5t59.5 97t21.5 137.5v99l-143 -7q-90 -4 -151 -20t-97.5 -44.5t-52.5 -69t-16 -91.5zM1184 967q-110 0 -173.5 -78t-74.5 -227h471q0 68 -13 124.5t-40.5 96.5t-69.5 62t-100 22z" />
    <glyph glyph-name="uni01E4" unicode="&#x1e4;" horiz-adv-x="1491" 
d="M834 772h505v-307h131v-146h-131v-264q-116 -37 -236 -56t-278 -19q-334 0 -517 198t-183 553q0 229 91 400t262.5 261.5t404.5 90.5q234 0 436 -86l-70 -160q-193 84 -377 84q-261 0 -408 -158t-147 -432q0 -290 141 -441t410 -151q147 0 287 35v145h-301v146h301v143
h-321v164z" />
    <glyph glyph-name="uni01E5" unicode="&#x1e5;" horiz-adv-x="1260" 
d="M907 31l6 135h-8q-111 -166 -340 -166q-215 0 -333.5 145t-118.5 412q0 263 119 412t331 149q223 0 344 -166h11l24 146h143v-1116q0 -40 -4 -76h117v-146h-147q-97 -252 -457 -252q-240 0 -395 70v166q160 -86 405 -86q157 0 240 102h-305v146h364l4 61v64zM592 147
q171 0 244 87.5t73 279.5v33q0 220 -76 320t-245 100q-140 0 -214.5 -104t-74.5 -308q0 -408 293 -408z" />
    <glyph glyph-name="Gcaron" unicode="&#x1e6;" horiz-adv-x="1491" 
d="M508 1907h123q114 -74 219 -189q126 126 223 189h127v-27q-205 -205 -256 -301h-184q-60 102 -252 301v27zM782 772h484v-717q-55 -18 -111 -32t-115 -23.5t-124 -14.5t-140 -5q-157 0 -278 52.5t-204 150t-126 237t-43 313.5q0 172 47.5 311t138.5 236.5t224.5 150
t304.5 52.5q111 0 213 -22t190 -64l-72 -162q-36 17 -77.5 32t-85.5 26.5t-90.5 18.5t-92.5 7q-122 0 -216 -40.5t-157.5 -116.5t-96.5 -185t-33 -246q0 -130 27.5 -238t87.5 -186t155 -121t229 -43q44 0 80.5 2.5t67.5 6.5t58.5 9.5t53.5 10.5v436h-299v164z" />
    <glyph glyph-name="gcaron" unicode="&#x1e7;" horiz-adv-x="1260" 
d="M283 1569h123q114 -74 219 -189q126 126 223 189h127v-27q-205 -205 -256 -301h-184q-60 102 -252 301v27zM1020 1098v-113l-197 -27q28 -35 47 -89.5t19 -123.5q0 -76 -23.5 -140.5t-71 -111.5t-117.5 -73.5t-163 -26.5q-22 0 -44 0.5t-36 3.5q-17 -10 -33.5 -22.5
t-30 -28.5t-22 -36t-8.5 -44q0 -27 12 -43.5t32.5 -25.5t48.5 -12t59 -3h176q93 0 157 -23.5t104.5 -63.5t58.5 -94.5t18 -115.5q0 -88 -32.5 -158t-99.5 -118.5t-169.5 -74.5t-241.5 -26q-107 0 -187 21t-133 61t-79.5 96.5t-26.5 127.5q0 60 19.5 105.5t52.5 78.5t76.5 54
t90.5 32q-42 19 -69 60t-27 94q0 61 32 105.5t101 86.5q-43 18 -78.5 49.5t-60 72t-38 88.5t-13.5 99q0 89 25 159t74 119t122 75t170 26q37 0 76.5 -5.5t66.5 -14.5h363zM209 -180q0 -37 13 -69t42.5 -55t78 -36.5t120.5 -13.5q186 0 278.5 57.5t92.5 165.5q0 46 -12 75
t-39.5 45.5t-72.5 22.5t-110 6h-176q-35 0 -73 -8t-69.5 -30t-52 -60.5t-20.5 -99.5zM301 745q0 -115 54 -171t153 -56q100 0 151.5 55.5t51.5 174.5q0 123 -52.5 181t-152.5 58q-99 0 -152 -60t-53 -182z" />
    <glyph glyph-name="uni01E8" unicode="&#x1e8;" horiz-adv-x="1268" 
d="M336 1907h123q114 -74 219 -189q126 126 223 189h127v-27q-205 -205 -256 -301h-184q-60 102 -252 301v27zM1186 0h-211l-451 698l-139 -114v-584h-186v1462h186v-731l121 168l452 563h209l-520 -637z" />
    <glyph glyph-name="uni01E9" unicode="&#x1e9;" horiz-adv-x="1094" 
d="M262 1948h123q114 -74 219 -189q126 126 223 189h127v-27q-205 -205 -256 -301h-184q-60 102 -252 301v27zM342 567l135 170l293 361h211l-401 -475l428 -623h-209l-336 504l-109 -82v-422h-180v1556h180v-714l-16 -275h4z" />
    <glyph glyph-name="uni01EA" unicode="&#x1ea;" horiz-adv-x="1599" 
d="M819 -238q0 -46 24.5 -69t67.5 -23q44 0 99 13v-115q-69 -19 -127 -19q-211 0 -211 193q0 139 160 258h127q-70 -66 -105 -120.5t-35 -117.5zM1393 733q0 -169 -40.5 -308t-120.5 -238t-198.5 -153t-273.5 -54q-163 0 -282.5 54t-198 153t-116.5 238.5t-38 309.5
t38 308.5t117 236.5t199 151.5t283 53.5q155 0 272.5 -53.5t197.5 -152t120.5 -237t40.5 -309.5zM322 733q0 -137 26 -246.5t79.5 -186t136 -117t196.5 -40.5t196.5 40.5t136 117t78.5 186t25 246.5q0 138 -25 247t-78 184.5t-135 116t-196 40.5t-197 -40.5t-137 -116
t-80 -184.5t-26 -247z" />
    <glyph glyph-name="uni01EB" unicode="&#x1eb;" horiz-adv-x="1239" 
d="M618 -238q0 -46 24.5 -69t67.5 -23q44 0 99 13v-115q-69 -19 -127 -19q-211 0 -211 193q0 139 160 258h127q-70 -66 -105 -120.5t-35 -117.5zM1069 551q0 -137 -33.5 -243.5t-96 -179t-151.5 -110.5t-200 -38q-103 0 -190 38t-150.5 110.5t-99 179t-35.5 243.5
q0 136 33.5 241.5t95.5 178t151.5 110t200.5 37.5q103 0 190 -37.5t150.5 -110t99 -178t35.5 -241.5zM301 551q0 -209 68.5 -314.5t222.5 -105.5t221.5 105.5t67.5 314.5t-68.5 312.5t-222.5 103.5t-221.5 -103.5t-67.5 -312.5z" />
    <glyph glyph-name="uni01EC" unicode="&#x1ec;" horiz-adv-x="1599" 
d="M819 -238q0 -46 24.5 -69t67.5 -23q44 0 99 13v-115q-69 -19 -127 -19q-211 0 -211 193q0 139 160 258h127q-70 -66 -105 -120.5t-35 -117.5zM496 1724h608v-145h-608v145zM1393 733q0 -169 -40.5 -308t-120.5 -238t-198.5 -153t-273.5 -54q-163 0 -282.5 54t-198 153
t-116.5 238.5t-38 309.5t38 308.5t117 236.5t199 151.5t283 53.5q155 0 272.5 -53.5t197.5 -152t120.5 -237t40.5 -309.5zM322 733q0 -137 26 -246.5t79.5 -186t136 -117t196.5 -40.5t196.5 40.5t136 117t78.5 186t25 246.5q0 138 -25 247t-78 184.5t-135 116t-196 40.5
t-197 -40.5t-137 -116t-80 -184.5t-26 -247z" />
    <glyph glyph-name="uni01ED" unicode="&#x1ed;" horiz-adv-x="1239" 
d="M618 -238q0 -46 24.5 -69t67.5 -23q44 0 99 13v-115q-69 -19 -127 -19q-211 0 -211 193q0 139 160 258h127q-70 -66 -105 -120.5t-35 -117.5zM315 1386h608v-145h-608v145zM1069 551q0 -137 -33.5 -243.5t-96 -179t-151.5 -110.5t-200 -38q-103 0 -190 38t-150.5 110.5
t-99 179t-35.5 243.5q0 136 33.5 241.5t95.5 178t151.5 110t200.5 37.5q103 0 190 -37.5t150.5 -110t99 -178t35.5 -241.5zM301 551q0 -209 68.5 -314.5t222.5 -105.5t221.5 105.5t67.5 314.5t-68.5 312.5t-222.5 103.5t-221.5 -103.5t-67.5 -312.5z" />
    <glyph glyph-name="uni01EE" unicode="&#x1ee;" horiz-adv-x="1196" 
d="M210 1907h123q114 -74 219 -189q126 126 223 189h127v-27q-205 -205 -256 -301h-184q-60 102 -252 301v27zM596 901q139 -4 251 -61t174 -156.5t62 -230.5q0 -224 -155 -348.5t-434 -124.5q-259 0 -422 79v168q100 -48 213 -72t211 -24q199 0 297 84t98 240
q0 142 -101 219.5t-294 77.5h-127v133l422 413h-678v164h909v-145z" />
    <glyph glyph-name="uni01EF" unicode="&#x1ef;" horiz-adv-x="1020" 
d="M446 467q235 -16 369.5 -140t134.5 -325q0 -144 -67 -257t-191.5 -175t-283.5 -62q-239 0 -379 72v164q183 -86 387 -86q162 0 258 92.5t96 247.5q0 157 -104 241.5t-310 84.5h-120v125l448 497h-627v152h838v-131zM118 1569h123q114 -74 219 -189q126 126 223 189h127
v-27q-205 -205 -256 -301h-184q-60 102 -252 301v27z" />
    <glyph glyph-name="uni01F0" unicode="&#x1f0;" horiz-adv-x="528" 
d="M-81 1569h123q114 -74 219 -189q126 126 223 189h127v-27q-205 -205 -256 -301h-184q-60 102 -252 301v27zM45 -492q-94 0 -158 25v145q69 -20 136 -20q78 0 114.5 42.5t36.5 129.5v1268h180v-1262q0 -164 -78.5 -246t-230.5 -82z" />
    <glyph glyph-name="uni01F1" unicode="&#x1f1;" horiz-adv-x="2646" 
d="M1276 745q0 -185 -48 -324.5t-139 -233t-223.5 -140.5t-300.5 -47h-366v1462h407q153 0 277 -46t211 -136.5t134.5 -224.5t47.5 -310zM1079 739q0 146 -33 252.5t-96 175.5t-155 102.5t-209 33.5h-201v-1143h162q264 0 398 146t134 433zM2497 0h-940v145l711 1151h-691
v166h899v-145l-710 -1151h731v-166z" />
    <glyph glyph-name="uni01F2" unicode="&#x1f2;" horiz-adv-x="2458" 
d="M1276 745q0 -185 -48 -324.5t-139 -233t-223.5 -140.5t-300.5 -47h-366v1462h407q153 0 277 -46t211 -136.5t134.5 -224.5t47.5 -310zM1079 739q0 146 -33 252.5t-96 175.5t-155 102.5t-209 33.5h-201v-1143h162q264 0 398 146t134 433zM2316 0h-739v125l536 836h-503
v137h688v-146l-524 -815h542v-137z" />
    <glyph glyph-name="uni01F3" unicode="&#x1f3;" horiz-adv-x="2222" 
d="M852 147h-8q-22 -34 -51.5 -64.5t-68 -53.5t-86.5 -36t-108 -13q-93 0 -170 36t-132 107.5t-85 177.5t-30 246q0 141 30 247.5t85 178.5t132 108.5t170 36.5q59 0 107 -13t86.5 -35t68.5 -51t52 -61h12q-3 34 -6 65q-2 26 -4 53.5t-2 43.5v436h182v-1556h-147zM565 131
q76 0 128.5 23t85 70t48 117.5t17.5 164.5v41q0 101 -13.5 179.5t-46 132t-86.5 81t-135 27.5q-135 0 -198.5 -109t-63.5 -313q0 -209 63.5 -311.5t200.5 -102.5zM2081 0h-739v125l536 836h-503v137h688v-146l-524 -815h542v-137z" />
    <glyph glyph-name="uni01F4" unicode="&#x1f4;" horiz-adv-x="1491" 
d="M782 772h484v-717q-55 -18 -111 -32t-115 -23.5t-124 -14.5t-140 -5q-157 0 -278 52.5t-204 150t-126 237t-43 313.5q0 172 47.5 311t138.5 236.5t224.5 150t304.5 52.5q111 0 213 -22t190 -64l-72 -162q-36 17 -77.5 32t-85.5 26.5t-90.5 18.5t-92.5 7
q-122 0 -216 -40.5t-157.5 -116.5t-96.5 -185t-33 -246q0 -130 27.5 -238t87.5 -186t155 -121t229 -43q44 0 80.5 2.5t67.5 6.5t58.5 9.5t53.5 10.5v436h-299v164zM749 1606q22 29 45.5 67t47 78.5t44.5 81t37 74.5h219v-21q-16 -27 -47.5 -67.5t-70 -84.5t-79 -85.5
t-75.5 -69.5h-121v27z" />
    <glyph glyph-name="uni01F5" unicode="&#x1f5;" horiz-adv-x="1260" 
d="M1020 1098v-113l-197 -27q28 -35 47 -89.5t19 -123.5q0 -76 -23.5 -140.5t-71 -111.5t-117.5 -73.5t-163 -26.5q-22 0 -44 0.5t-36 3.5q-17 -10 -33.5 -22.5t-30 -28.5t-22 -36t-8.5 -44q0 -27 12 -43.5t32.5 -25.5t48.5 -12t59 -3h176q93 0 157 -23.5t104.5 -63.5
t58.5 -94.5t18 -115.5q0 -88 -32.5 -158t-99.5 -118.5t-169.5 -74.5t-241.5 -26q-107 0 -187 21t-133 61t-79.5 96.5t-26.5 127.5q0 60 19.5 105.5t52.5 78.5t76.5 54t90.5 32q-42 19 -69 60t-27 94q0 61 32 105.5t101 86.5q-43 18 -78.5 49.5t-60 72t-38 88.5t-13.5 99
q0 89 25 159t74 119t122 75t170 26q37 0 76.5 -5.5t66.5 -14.5h363zM209 -180q0 -37 13 -69t42.5 -55t78 -36.5t120.5 -13.5q186 0 278.5 57.5t92.5 165.5q0 46 -12 75t-39.5 45.5t-72.5 22.5t-110 6h-176q-35 0 -73 -8t-69.5 -30t-52 -60.5t-20.5 -99.5zM301 745
q0 -115 54 -171t153 -56q100 0 151.5 55.5t51.5 174.5q0 123 -52.5 181t-152.5 58q-99 0 -152 -60t-53 -182zM467 1268q22 29 45.5 67t47 78.5t44.5 81t37 74.5h219v-21q-16 -27 -47.5 -67.5t-70 -84.5t-79 -85.5t-75.5 -69.5h-121v27z" />
    <glyph glyph-name="uni01F6" unicode="&#x1f6;" horiz-adv-x="1921" 
d="M383 682v-682h-184v1462h184v-618h606v618h185v-1126q0 -93 47 -144t143 -51q91 0 139.5 51.5t48.5 145.5v760h185v-760q0 -165 -100 -260.5t-279 -95.5q-174 0 -271.5 94t-97.5 264v342h-606z" />
    <glyph glyph-name="uni01F7" unicode="&#x1f7;" horiz-adv-x="1354" 
d="M797 1485q210 0 327 -131t117 -367q0 -330 -218.5 -583t-639.5 -424v-472h-184v1956h145l31 -198h10q76 113 177.5 166t234.5 53zM383 152q330 138 502 351t172 482q0 166 -76 253t-217 87q-193 0 -287 -113.5t-94 -355.5v-704z" />
    <glyph glyph-name="uni01F8" unicode="&#x1f8;" horiz-adv-x="1556" 
d="M1294 0h-215l-719 1210h-8q6 -77 10 -153q4 -65 6.5 -136t2.5 -128v-793h-172v1462h213l716 -1204h7q-3 76 -7 150q-1 32 -2.5 65.5l-3 67t-2 64.5t-0.5 57v800h174v-1462zM888 1579h-120q-35 28 -76 69.5t-79.5 85.5t-70 84.5t-47.5 67.5v21h219q16 -34 37.5 -74.5
t44.5 -81t47 -78.5t45 -67v-27z" />
    <glyph glyph-name="uni01F9" unicode="&#x1f9;" horiz-adv-x="1266" 
d="M860 0v707q0 130 -52.5 195t-164.5 65q-81 0 -136 -26t-88.5 -77t-48 -125t-14.5 -170v-569h-182v1098h148l26 -148h10q25 43 59.5 74.5t75.5 52.5t87 31t94 10q183 0 275.5 -95.5t92.5 -305.5v-717h-182zM764 1241h-120q-35 28 -76 69.5t-79.5 85.5t-70 84.5t-47.5 67.5
v21h219q16 -34 37.5 -74.5t44.5 -81t47 -78.5t45 -67v-27z" />
    <glyph glyph-name="Aringacute" unicode="&#x1fa;" horiz-adv-x="1311" 
d="M881 1432q0 -65 -27 -112t-72 -73l529 -1247h-191l-168 393h-604l-160 -393h-188l528 1245q-100 54 -100 185q0 98 60 157.5t163 59.5t166.5 -60t63.5 -155zM899 557l-172 424q-27 61 -74 207q-31 -107 -71 -211l-170 -420h487zM555 1716q57 67 104.5 137t69.5 109h217
v-16q-30 -42 -118.5 -124t-151.5 -124h-121v18zM766 1430q0 55 -32 84.5t-83 29.5q-49 0 -81.5 -29.5t-32.5 -84.5q0 -54 29.5 -84.5t84.5 -30.5q51 0 83 29.5t32 85.5z" />
    <glyph glyph-name="aringacute" unicode="&#x1fb;" horiz-adv-x="1149" 
d="M852 0l-35 156h-8q-82 -103 -163.5 -139.5t-205.5 -36.5q-162 0 -254 85t-92 240q0 334 527 350l186 7v65q0 125 -54 184.5t-173 59.5q-87 0 -164.5 -26t-145.5 -58l-55 135q83 44 181 69t194 25q199 0 296 -88t97 -280v-748h-131zM481 125q151 0 237.5 81.5t86.5 231.5
v99l-162 -7q-189 -7 -275.5 -60t-86.5 -167q0 -86 52.5 -132t147.5 -46zM811 1460q0 -101 -62.5 -160t-164.5 -59q-103 0 -163.5 59t-60.5 158q0 97 60 156t164 59q101 0 164 -59t63 -154zM698 1458q0 54 -32.5 84.5t-81.5 30.5q-50 0 -82.5 -30.5t-32.5 -84.5t29.5 -84.5
t85.5 -30.5q51 0 82.5 30.5t31.5 84.5zM471 1753v16q46 42 99 102t75 91h268v-12q-21 -24 -103 -76.5t-210 -120.5h-129z" />
    <glyph glyph-name="AEacute" unicode="&#x1fc;" horiz-adv-x="1804" 
d="M1622 0h-760v453h-475l-203 -453h-186l655 1462h969v-164h-573v-452h534v-162h-534v-520h573v-164zM459 618h403v680h-108zM989 1606q22 29 45.5 67t47 78.5t44.5 81t37 74.5h219v-21q-16 -27 -47.5 -67.5t-70 -84.5t-79 -85.5t-75.5 -69.5h-121v27z" />
    <glyph glyph-name="aeacute" unicode="&#x1fd;" horiz-adv-x="1769" 
d="M94 307q0 164 115.5 252t351.5 96l184 7v69q0 67 -14.5 112t-42 72.5t-68 39.5t-92.5 12q-83 0 -154.5 -24t-137.5 -58l-64 137q74 40 165 68t191 28q131 0 214 -42.5t126 -135.5q51 85 134 131.5t186 46.5q97 0 174 -35.5t131 -100t82.5 -155t28.5 -200.5v-113h-672
q5 -193 78.5 -284t220.5 -91q49 0 91.5 5t81.5 14.5t76 24t74 32.5v-162q-39 -19 -76.5 -33t-77 -23t-82 -13t-91.5 -4q-138 0 -239 57t-163 172q-34 -54 -72 -96.5t-85.5 -72t-105.5 -45t-132 -15.5q-71 0 -132.5 19.5t-106.5 60t-71 102t-26 145.5zM283 305
q0 -92 48.5 -135t127.5 -43q61 0 113 19t90 57.5t59.5 97t21.5 137.5v99l-143 -7q-90 -4 -151 -20t-97.5 -44.5t-52.5 -69t-16 -91.5zM1184 967q-110 0 -173.5 -78t-74.5 -227h471q0 68 -13 124.5t-40.5 96.5t-69.5 62t-100 22zM788 1268q22 29 45.5 67t47 78.5t44.5 81
t37 74.5h219v-21q-16 -27 -47.5 -67.5t-70 -84.5t-79 -85.5t-75.5 -69.5h-121v27z" />
    <glyph glyph-name="Oslashacute" unicode="&#x1fe;" horiz-adv-x="1599" 
d="M1300 1454l-92 -149q91 -99 138 -244t47 -328q0 -169 -40.5 -308t-120.5 -238t-198.5 -153t-273.5 -54q-189 0 -322 71l-78 -127l-137 78l90 145q-97 100 -142.5 249t-45.5 339q0 170 38 308.5t117 236.5t199 151.5t283 53.5q94 0 174.5 -21t146.5 -59l80 127zM322 733
q0 -131 23 -235.5t71 -182.5l579 945q-48 29 -105 45t-128 16q-114 0 -197 -40.5t-137 -116t-80 -184.5t-26 -247zM1196 733q0 257 -88 408l-578 -940q47 -28 104 -43t126 -15q114 0 196.5 40.5t136 117t78.5 186t25 246.5zM676 1606q22 29 45.5 67t47 78.5t44.5 81t37 74.5
h219v-21q-16 -27 -47.5 -67.5t-70 -84.5t-79 -85.5t-75.5 -69.5h-121v27z" />
    <glyph glyph-name="oslashacute" unicode="&#x1ff;" horiz-adv-x="1239" 
d="M1071 551q0 -137 -33.5 -243.5t-96 -179t-151.5 -110.5t-200 -38q-125 0 -223 53l-68 -109l-131 74l80 131q-63 72 -98 178.5t-35 243.5q0 136 33.5 241.5t95.5 178t151.5 110t200.5 37.5q63 0 119.5 -14.5t105.5 -42.5l68 108l131 -73l-80 -129q62 -73 96.5 -177.5
t34.5 -238.5zM303 551q0 -84 9.5 -149.5t31.5 -116.5l397 647q-29 17 -66.5 26t-82.5 9q-154 0 -221.5 -103.5t-67.5 -312.5zM883 551q0 159 -39 258l-398 -645q31 -17 67 -25t81 -8q154 0 221.5 105.5t67.5 314.5zM481 1268q22 29 45.5 67t47 78.5t44.5 81t37 74.5h219v-21
q-16 -27 -47.5 -67.5t-70 -84.5t-79 -85.5t-75.5 -69.5h-121v27z" />
    <glyph glyph-name="uni0200" unicode="&#x200;" horiz-adv-x="1309" 
d="M919 1579h-102q-60 48 -148 147.5t-124 159.5v21h198q28 -61 77.5 -148t98.5 -155v-25zM559 1579h-102q-65 52 -152.5 152t-120.5 155v21h199q28 -61 77.5 -148t98.5 -155v-25zM1055 0l-160 453h-545l-162 -453h-188l537 1468h170l538 -1468h-190zM836 618l-148 424
q-6 18 -14.5 44t-17.5 56t-18 62.5t-17 63.5q-7 -31 -16 -64t-18 -63.5t-17.5 -56t-14.5 -42.5l-145 -424h426z" />
    <glyph glyph-name="uni0201" unicode="&#x201;" horiz-adv-x="1149" 
d="M850 1241h-102q-60 48 -148 147.5t-124 159.5v21h198q28 -61 77.5 -148t98.5 -155v-25zM490 1241h-102q-65 52 -152.5 152t-120.5 155v21h199q28 -61 77.5 -148t98.5 -155v-25zM793 0l-37 152h-8q-33 -45 -66 -77.5t-72 -53.5t-87 -31t-111 -10q-69 0 -127 19.5
t-100.5 60t-66.5 102t-24 145.5q0 164 115.5 252t351.5 96l184 7v69q0 67 -14.5 112t-42 72.5t-68 39.5t-92.5 12q-83 0 -154.5 -24t-137.5 -58l-64 137q74 40 165 68t191 28q102 0 176.5 -20.5t123 -65t72.5 -113.5t24 -167v-752h-131zM459 127q61 0 113 19t90 57.5
t59.5 97t21.5 137.5v99l-143 -7q-90 -4 -151 -20t-97.5 -44.5t-52.5 -69t-16 -91.5q0 -92 48.5 -135t127.5 -43z" />
    <glyph glyph-name="uni0202" unicode="&#x202;" horiz-adv-x="1309" 
d="M659 1854q141 0 222.5 -69t90.5 -206h-110q-9 73 -51.5 101t-155.5 28q-103 0 -151 -32t-56 -97h-112q11 129 97 202t226 73zM1055 0l-160 453h-545l-162 -453h-188l537 1468h170l538 -1468h-190zM836 618l-148 424q-6 18 -14.5 44t-17.5 56t-18 62.5t-17 63.5
q-7 -31 -16 -64t-18 -63.5t-17.5 -56t-14.5 -42.5l-145 -424h426z" />
    <glyph glyph-name="uni0203" unicode="&#x203;" horiz-adv-x="1149" 
d="M600 1516q141 0 222.5 -69t90.5 -206h-110q-9 73 -51.5 101t-155.5 28q-103 0 -151 -32t-56 -97h-112q11 129 97 202t226 73zM793 0l-37 152h-8q-33 -45 -66 -77.5t-72 -53.5t-87 -31t-111 -10q-69 0 -127 19.5t-100.5 60t-66.5 102t-24 145.5q0 164 115.5 252t351.5 96
l184 7v69q0 67 -14.5 112t-42 72.5t-68 39.5t-92.5 12q-83 0 -154.5 -24t-137.5 -58l-64 137q74 40 165 68t191 28q102 0 176.5 -20.5t123 -65t72.5 -113.5t24 -167v-752h-131zM459 127q61 0 113 19t90 57.5t59.5 97t21.5 137.5v99l-143 -7q-90 -4 -151 -20t-97.5 -44.5
t-52.5 -69t-16 -91.5q0 -92 48.5 -135t127.5 -43z" />
    <glyph glyph-name="uni0204" unicode="&#x204;" horiz-adv-x="1139" 
d="M895 1579h-102q-60 48 -148 147.5t-124 159.5v21h198q28 -61 77.5 -148t98.5 -155v-25zM535 1579h-102q-65 52 -152.5 152t-120.5 155v21h199q28 -61 77.5 -148t98.5 -155v-25zM958 0h-759v1462h759v-164h-573v-452h535v-162h-535v-520h573v-164z" />
    <glyph glyph-name="uni0205" unicode="&#x205;" horiz-adv-x="1155" 
d="M882 1241h-102q-60 48 -148 147.5t-124 159.5v21h198q28 -61 77.5 -148t98.5 -155v-25zM522 1241h-102q-65 52 -152.5 152t-120.5 155v21h199q28 -61 77.5 -148t98.5 -155v-25zM608 -20q-110 0 -201 37t-156.5 108t-101.5 176t-36 240q0 136 33 243t93 181.5t143.5 113.5
t184.5 39q99 0 178 -35.5t134 -100t84.5 -155t29.5 -200.5v-113h-692q5 -193 81.5 -284t227.5 -91q51 0 94.5 5t84 14.5t78.5 24t77 32.5v-162q-40 -19 -78.5 -33t-79 -23t-84 -13t-94.5 -4zM563 967q-114 0 -180.5 -78t-77.5 -227h492q0 68 -13.5 124.5t-42 96.5t-72.5 62
t-106 22z" />
    <glyph glyph-name="uni0206" unicode="&#x206;" horiz-adv-x="1139" 
d="M614 1854q141 0 222.5 -69t90.5 -206h-110q-9 73 -51.5 101t-155.5 28q-103 0 -151 -32t-56 -97h-112q11 129 97 202t226 73zM958 0h-759v1462h759v-164h-573v-452h535v-162h-535v-520h573v-164z" />
    <glyph glyph-name="uni0207" unicode="&#x207;" horiz-adv-x="1155" 
d="M602 1516q141 0 222.5 -69t90.5 -206h-110q-9 73 -51.5 101t-155.5 28q-103 0 -151 -32t-56 -97h-112q11 129 97 202t226 73zM608 -20q-110 0 -201 37t-156.5 108t-101.5 176t-36 240q0 136 33 243t93 181.5t143.5 113.5t184.5 39q99 0 178 -35.5t134 -100t84.5 -155
t29.5 -200.5v-113h-692q5 -193 81.5 -284t227.5 -91q51 0 94.5 5t84 14.5t78.5 24t77 32.5v-162q-40 -19 -78.5 -33t-79 -23t-84 -13t-94.5 -4zM563 967q-114 0 -180.5 -78t-77.5 -227h492q0 68 -13.5 124.5t-42 96.5t-72.5 62t-106 22z" />
    <glyph glyph-name="uni0208" unicode="&#x208;" horiz-adv-x="694" 
d="M612 1579h-102q-60 48 -148 147.5t-124 159.5v21h198q28 -61 77.5 -148t98.5 -155v-25zM252 1579h-102q-65 52 -152.5 152t-120.5 155v21h199q28 -61 77.5 -148t98.5 -155v-25zM612 0h-530v102l172 41v1176l-172 41v102h530v-102l-172 -41v-1176l172 -41v-102z" />
    <glyph glyph-name="uni0209" unicode="&#x209;" horiz-adv-x="528" 
d="M528 1241h-102q-60 48 -148 147.5t-124 159.5v21h198q28 -61 77.5 -148t98.5 -155v-25zM168 1241h-102q-65 52 -152.5 152t-120.5 155v21h199q28 -61 77.5 -148t98.5 -155v-25zM356 0h-182v1098h182v-1098z" />
    <glyph glyph-name="uni020A" unicode="&#x20a;" horiz-adv-x="694" 
d="M352 1854q141 0 222.5 -69t90.5 -206h-110q-9 73 -51.5 101t-155.5 28q-103 0 -151 -32t-56 -97h-112q11 129 97 202t226 73zM612 0h-530v102l172 41v1176l-172 41v102h530v-102l-172 -41v-1176l172 -41v-102z" />
    <glyph glyph-name="uni020B" unicode="&#x20b;" horiz-adv-x="528" 
d="M268 1516q141 0 222.5 -69t90.5 -206h-110q-9 73 -51.5 101t-155.5 28q-103 0 -151 -32t-56 -97h-112q11 129 97 202t226 73zM356 0h-182v1098h182v-1098z" />
    <glyph glyph-name="uni020C" unicode="&#x20c;" horiz-adv-x="1599" 
d="M1067 1579h-102q-60 48 -148 147.5t-124 159.5v21h198q28 -61 77.5 -148t98.5 -155v-25zM707 1579h-102q-65 52 -152.5 152t-120.5 155v21h199q28 -61 77.5 -148t98.5 -155v-25zM1393 733q0 -169 -40.5 -308t-120.5 -238t-198.5 -153t-273.5 -54q-163 0 -282.5 54
t-198 153t-116.5 238.5t-38 309.5t38 308.5t117 236.5t199 151.5t283 53.5q155 0 272.5 -53.5t197.5 -152t120.5 -237t40.5 -309.5zM322 733q0 -137 26 -246.5t79.5 -186t136 -117t196.5 -40.5t196.5 40.5t136 117t78.5 186t25 246.5q0 138 -25 247t-78 184.5t-135 116
t-196 40.5t-197 -40.5t-137 -116t-80 -184.5t-26 -247z" />
    <glyph glyph-name="uni020D" unicode="&#x20d;" horiz-adv-x="1239" 
d="M897 1241h-102q-60 48 -148 147.5t-124 159.5v21h198q28 -61 77.5 -148t98.5 -155v-25zM537 1241h-102q-65 52 -152.5 152t-120.5 155v21h199q28 -61 77.5 -148t98.5 -155v-25zM1069 551q0 -137 -33.5 -243.5t-96 -179t-151.5 -110.5t-200 -38q-103 0 -190 38
t-150.5 110.5t-99 179t-35.5 243.5q0 136 33.5 241.5t95.5 178t151.5 110t200.5 37.5q103 0 190 -37.5t150.5 -110t99 -178t35.5 -241.5zM301 551q0 -209 68.5 -314.5t222.5 -105.5t221.5 105.5t67.5 314.5t-68.5 312.5t-222.5 103.5t-221.5 -103.5t-67.5 -312.5z" />
    <glyph glyph-name="uni020E" unicode="&#x20e;" horiz-adv-x="1599" 
d="M805 1854q141 0 222.5 -69t90.5 -206h-110q-9 73 -51.5 101t-155.5 28q-103 0 -151 -32t-56 -97h-112q11 129 97 202t226 73zM1393 733q0 -169 -40.5 -308t-120.5 -238t-198.5 -153t-273.5 -54q-163 0 -282.5 54t-198 153t-116.5 238.5t-38 309.5t38 308.5t117 236.5
t199 151.5t283 53.5q155 0 272.5 -53.5t197.5 -152t120.5 -237t40.5 -309.5zM322 733q0 -137 26 -246.5t79.5 -186t136 -117t196.5 -40.5t196.5 40.5t136 117t78.5 186t25 246.5q0 138 -25 247t-78 184.5t-135 116t-196 40.5t-197 -40.5t-137 -116t-80 -184.5t-26 -247z" />
    <glyph glyph-name="uni020F" unicode="&#x20f;" horiz-adv-x="1239" 
d="M625 1516q141 0 222.5 -69t90.5 -206h-110q-9 73 -51.5 101t-155.5 28q-103 0 -151 -32t-56 -97h-112q11 129 97 202t226 73zM1069 551q0 -137 -33.5 -243.5t-96 -179t-151.5 -110.5t-200 -38q-103 0 -190 38t-150.5 110.5t-99 179t-35.5 243.5q0 136 33.5 241.5
t95.5 178t151.5 110t200.5 37.5q103 0 190 -37.5t150.5 -110t99 -178t35.5 -241.5zM301 551q0 -209 68.5 -314.5t222.5 -105.5t221.5 105.5t67.5 314.5t-68.5 312.5t-222.5 103.5t-221.5 -103.5t-67.5 -312.5z" />
    <glyph glyph-name="uni0210" unicode="&#x210;" horiz-adv-x="1274" 
d="M901 1579h-102q-60 48 -148 147.5t-124 159.5v21h198q28 -61 77.5 -148t98.5 -155v-25zM541 1579h-102q-65 52 -152.5 152t-120.5 155v21h199q28 -61 77.5 -148t98.5 -155v-25zM385 604v-604h-186v1462h356q266 0 393 -103t127 -312q0 -87 -24.5 -152t-65 -111.5
t-92.5 -77.5t-107 -51l398 -655h-219l-351 604h-229zM385 762h164q90 0 153 17.5t103.5 52t59 86t18.5 120.5q0 72 -20.5 122t-62 82t-105 46.5t-150.5 14.5h-160v-541z" />
    <glyph glyph-name="uni0211" unicode="&#x211;" horiz-adv-x="846" 
d="M770 1241h-102q-60 48 -148 147.5t-124 159.5v21h198q28 -61 77.5 -148t98.5 -155v-25zM410 1241h-102q-65 52 -152.5 152t-120.5 155v21h199q28 -61 77.5 -148t98.5 -155v-25zM649 1118q29 0 65 -2.5t62 -7.5l-24 -168q-28 5 -57.5 8.5t-55.5 3.5q-63 0 -115 -25.5
t-89.5 -73t-58 -114t-20.5 -147.5v-592h-182v1098h148l22 -201h8q25 43 53.5 83t64 70.5t79.5 49t100 18.5z" />
    <glyph glyph-name="uni0212" unicode="&#x212;" horiz-adv-x="1274" 
d="M641 1854q141 0 222.5 -69t90.5 -206h-110q-9 73 -51.5 101t-155.5 28q-103 0 -151 -32t-56 -97h-112q11 129 97 202t226 73zM385 604v-604h-186v1462h356q266 0 393 -103t127 -312q0 -87 -24.5 -152t-65 -111.5t-92.5 -77.5t-107 -51l398 -655h-219l-351 604h-229z
M385 762h164q90 0 153 17.5t103.5 52t59 86t18.5 120.5q0 72 -20.5 122t-62 82t-105 46.5t-150.5 14.5h-160v-541z" />
    <glyph glyph-name="uni0213" unicode="&#x213;" horiz-adv-x="846" 
d="M500 1516q141 0 222.5 -69t90.5 -206h-110q-9 73 -51.5 101t-155.5 28q-103 0 -151 -32t-56 -97h-112q11 129 97 202t226 73zM649 1118q29 0 65 -2.5t62 -7.5l-24 -168q-28 5 -57.5 8.5t-55.5 3.5q-63 0 -115 -25.5t-89.5 -73t-58 -114t-20.5 -147.5v-592h-182v1098h148
l22 -201h8q25 43 53.5 83t64 70.5t79.5 49t100 18.5z" />
    <glyph glyph-name="uni0214" unicode="&#x214;" horiz-adv-x="1497" 
d="M1042 1579h-102q-60 48 -148 147.5t-124 159.5v21h198q28 -61 77.5 -148t98.5 -155v-25zM682 1579h-102q-65 52 -152.5 152t-120.5 155v21h199q28 -61 77.5 -148t98.5 -155v-25zM1245 1464v-948q0 -114 -33 -212t-99.5 -170t-167 -113t-236.5 -41q-128 0 -226 38.5
t-164.5 109.5t-100.5 170.5t-34 221.5v942h187v-952q0 -175 86.5 -271t261.5 -96q89 0 153 27t105 76t61 117t21 149v952h186z" />
    <glyph glyph-name="uni0215" unicode="&#x215;" horiz-adv-x="1266" 
d="M897 1241h-102q-60 48 -148 147.5t-124 159.5v21h198q28 -61 77.5 -148t98.5 -155v-25zM537 1241h-102q-65 52 -152.5 152t-120.5 155v21h199q28 -61 77.5 -148t98.5 -155v-25zM885 0l-27 147h-10q-25 -43 -59.5 -74.5t-75.5 -52t-87 -30.5t-94 -10q-91 0 -160 23
t-115 72t-69.5 125t-23.5 181v717h182v-707q0 -130 53 -195t164 -65q81 0 136 26t88.5 76.5t48 124.5t14.5 170v570h182v-1098h-147z" />
    <glyph glyph-name="uni0216" unicode="&#x216;" horiz-adv-x="1497" 
d="M754 1854q141 0 222.5 -69t90.5 -206h-110q-9 73 -51.5 101t-155.5 28q-103 0 -151 -32t-56 -97h-112q11 129 97 202t226 73zM1245 1464v-948q0 -114 -33 -212t-99.5 -170t-167 -113t-236.5 -41q-128 0 -226 38.5t-164.5 109.5t-100.5 170.5t-34 221.5v942h187v-952
q0 -175 86.5 -271t261.5 -96q89 0 153 27t105 76t61 117t21 149v952h186z" />
    <glyph glyph-name="uni0217" unicode="&#x217;" horiz-adv-x="1266" 
d="M637 1516q141 0 222.5 -69t90.5 -206h-110q-9 73 -51.5 101t-155.5 28q-103 0 -151 -32t-56 -97h-112q11 129 97 202t226 73zM885 0l-27 147h-10q-25 -43 -59.5 -74.5t-75.5 -52t-87 -30.5t-94 -10q-91 0 -160 23t-115 72t-69.5 125t-23.5 181v717h182v-707
q0 -130 53 -195t164 -65q81 0 136 26t88.5 76.5t48 124.5t14.5 170v570h182v-1098h-147z" />
    <glyph glyph-name="uni0218" unicode="&#x218;" horiz-adv-x="1124" 
d="M390 -428q22 51 49 144t35 159h178v-18q-16 -63 -64.5 -156.5t-99.5 -153.5h-98v25zM969 391q0 -97 -34.5 -173.5t-98.5 -129.5t-156 -80.5t-207 -27.5q-111 0 -207.5 17.5t-161.5 51.5v178q34 -16 77.5 -31.5t91.5 -27.5t99 -19.5t101 -7.5q160 0 236.5 60t76.5 172
q0 54 -14.5 94t-51 73.5t-97.5 65t-154 68.5q-89 35 -154.5 76.5t-108 93.5t-63 118t-20.5 150q0 88 32 157t90 116.5t138.5 72.5t177.5 25q119 0 214 -22.5t169 -57.5l-67 -156q-65 29 -147.5 50.5t-170.5 21.5q-122 0 -189 -56.5t-67 -152.5q0 -57 15 -98.5t50 -75
t92.5 -63t141.5 -62.5q91 -36 159.5 -74t114.5 -86t69.5 -111t23.5 -149z" />
    <glyph glyph-name="uni0219" unicode="&#x219;" horiz-adv-x="981" 
d="M331 -428q22 51 49 144t35 159h178v-18q-16 -63 -64.5 -156.5t-99.5 -153.5h-98v25zM831 301q0 -80 -29 -140t-83.5 -100.5t-131.5 -60.5t-173 -20q-109 0 -187 17.5t-137 51.5v166q31 -16 69 -31.5t80 -27.5t86.5 -19.5t88.5 -7.5q65 0 110.5 11t74 31.5t41.5 50
t13 65.5q0 31 -10 56t-36.5 49.5t-72.5 49.5t-118 56t-129.5 61t-97.5 67t-61.5 85.5t-21.5 115.5q0 70 27.5 124.5t77.5 91.5t120 56t156 19q97 0 177.5 -21t152.5 -55l-63 -147q-65 29 -133.5 50.5t-139.5 21.5q-102 0 -151 -33.5t-49 -95.5q0 -35 11.5 -61t39.5 -49
t75 -46.5t117 -52.5q72 -30 128.5 -60t96.5 -67.5t61 -85.5t21 -115z" />
    <glyph glyph-name="uni021A" unicode="&#x21a;" horiz-adv-x="1139" 
d="M392 -428q22 51 49 144t35 159h178v-18q-16 -63 -64.5 -156.5t-99.5 -153.5h-98v25zM625 0h-187v1298h-418v164h1022v-164h-417v-1298z" />
    <glyph glyph-name="uni021B" unicode="&#x21b;" horiz-adv-x="739" 
d="M290 -428q22 51 49 144t35 159h178v-18q-16 -63 -64.5 -156.5t-99.5 -153.5h-98v25zM506 129q18 0 40.5 2t43.5 5t38.5 7t26.5 7v-138q-13 -6 -33 -12t-44 -10.5t-50 -7t-51 -2.5q-62 0 -115 16t-91.5 55t-60.5 105.5t-22 167.5v637h-155v81l155 78l78 230h105v-252h276
v-137h-276v-637q0 -97 31.5 -146t103.5 -49z" />
    <glyph glyph-name="uni021C" unicode="&#x21c;" horiz-adv-x="1204" 
d="M1063 1120q0 -142 -91 -232.5t-255 -115.5v-8q186 -25 281.5 -115t95.5 -235q0 -205 -155 -319.5t-435 -114.5q-263 0 -426 79v168q99 -47 212.5 -71.5t211.5 -24.5q198 0 298.5 73t100.5 210q0 131 -113 198.5t-337 67.5h-209v154h198q217 0 324.5 72.5t107.5 195.5
q0 106 -79.5 167.5t-214.5 61.5q-114 0 -205.5 -27t-200.5 -98l-88 125q211 152 496 152q225 0 354 -98t129 -265z" />
    <glyph glyph-name="uni021D" unicode="&#x21d;" horiz-adv-x="1020" 
d="M395 467q144 0 229 71.5t85 184.5t-79 180.5t-212 67.5q-61 0 -124 -15t-149 -55l-61 143q90 43 169.5 58.5t174.5 15.5q211 0 332 -98.5t121 -271.5q0 -125 -65 -215t-195 -134q165 -42 247 -144.5t82 -252.5q0 -144 -67 -257t-191.5 -175t-283.5 -62q-238 0 -388 76
v164q91 -43 195 -66.5t201 -23.5q162 0 258 92.5t96 247.5q0 157 -104 241.5t-310 84.5h-161v143h200z" />
    <glyph glyph-name="uni021E" unicode="&#x21e;" horiz-adv-x="1518" 
d="M412 1907h123q114 -74 219 -189q126 126 223 189h127v-27q-205 -205 -256 -301h-184q-60 102 -252 301v27zM1237 0h-186v682h-666v-682h-186v1462h186v-616h666v616h186v-1462z" />
    <glyph glyph-name="uni021F" unicode="&#x21f;" horiz-adv-x="1266" 
d="M338 1948h123q114 -74 219 -189q126 126 223 189h127v-27q-205 -205 -256 -301h-184q-60 102 -252 301v27zM860 0v707q0 130 -52.5 195t-164.5 65q-81 0 -136 -26t-88.5 -77t-48 -125t-14.5 -170v-569h-182v1556h182v-462l-8 -144h10q25 43 59.5 74.5t75.5 52.5t87 31
t94 10q183 0 275.5 -95.5t92.5 -305.5v-717h-182z" />
    <glyph glyph-name="uni0220" unicode="&#x220;" horiz-adv-x="1518" 
d="M803 1325q-420 0 -420 -459v-866h-184v1464h145l31 -188h10q66 93 190.5 151t249.5 58q506 0 506 -541v-1436h-184v1436q0 199 -84 290t-260 91z" />
    <glyph glyph-name="uni0221" unicode="&#x221;" horiz-adv-x="1260" 
d="M1085 -147q0 -106 24.5 -151.5t92.5 -45.5q73 0 117 22v-137q-47 -33 -156 -33q-258 0 -258 342v130q0 24 5 83.5t8 77.5h-13q-118 -161 -340 -161q-215 0 -333.5 149t-118.5 418t118.5 420t333.5 151q221 0 340 -162h13q-3 20 -8 80.5t-5 81.5v438h180v-1703zM592 129
q164 0 239.5 89.5t75.5 293.5v33q0 229 -76.5 326.5t-240.5 97.5q-139 0 -215 -110.5t-76 -315.5q0 -204 75.5 -309t217.5 -105z" />
    <glyph glyph-name="uni0222" unicode="&#x222;" horiz-adv-x="1374" 
d="M686 963q151 0 231 84t80 235v180h185v-180q0 -296 -236 -395q151 -48 230 -152.5t79 -259.5q0 -229 -152.5 -362t-420.5 -133q-165 0 -293.5 60.5t-199 174t-70.5 260.5q0 321 305 414q-231 95 -231 393v180h184v-180q0 -151 80 -235t229 -84zM313 475q0 -167 94 -251.5
t279 -84.5t280 85t95 251q0 330 -377 330q-371 0 -371 -330z" />
    <glyph glyph-name="uni0223" unicode="&#x223;" horiz-adv-x="1239" 
d="M621 993q137 0 197.5 73.5t60.5 231.5v258h180v-264q0 -158 -47 -248t-152 -129q134 -51 201 -159.5t67 -266.5q0 -239 -136.5 -374t-375.5 -135q-228 0 -365.5 138.5t-137.5 370.5q0 331 266 429q-105 39 -151 130t-46 244v264h180v-258q0 -158 60.5 -231.5t198.5 -73.5
zM299 489q0 -176 81 -268t241 -92q157 0 239 91t82 269t-83.5 266.5t-240.5 88.5t-238 -89t-81 -266z" />
    <glyph glyph-name="uni0224" unicode="&#x224;" horiz-adv-x="1171" 
d="M852 -406q-59 0 -122 25v150q46 -19 102 -19q98 0 98 107v307h162v-297q0 -273 -240 -273zM1022 0h-940v145l711 1151h-691v166h899v-145l-710 -1151h731v-166z" />
    <glyph glyph-name="uni0225" unicode="&#x225;" horiz-adv-x="963" 
d="M883 -133q0 -273 -240 -273q-60 0 -123 25v150q46 -19 103 -19q98 0 98 107v143h-641v119l590 839h-555v140h753v-135l-581 -824h596v-272z" />
    <glyph glyph-name="uni0226" unicode="&#x226;" horiz-adv-x="1309" 
d="M549 1733q0 60 30.5 87t75.5 27q42 0 73.5 -27t31.5 -87q0 -59 -31.5 -87t-73.5 -28q-45 0 -75.5 28t-30.5 87zM1055 0l-160 453h-545l-162 -453h-188l537 1468h170l538 -1468h-190zM836 618l-148 424q-6 18 -14.5 44t-17.5 56t-18 62.5t-17 63.5q-7 -31 -16 -64
t-18 -63.5t-17.5 -56t-14.5 -42.5l-145 -424h426z" />
    <glyph glyph-name="uni0227" unicode="&#x227;" horiz-adv-x="1149" 
d="M469 1395q0 60 30.5 87t75.5 27q42 0 73.5 -27t31.5 -87q0 -59 -31.5 -87t-73.5 -28q-45 0 -75.5 28t-30.5 87zM793 0l-37 152h-8q-33 -45 -66 -77.5t-72 -53.5t-87 -31t-111 -10q-69 0 -127 19.5t-100.5 60t-66.5 102t-24 145.5q0 164 115.5 252t351.5 96l184 7v69
q0 67 -14.5 112t-42 72.5t-68 39.5t-92.5 12q-83 0 -154.5 -24t-137.5 -58l-64 137q74 40 165 68t191 28q102 0 176.5 -20.5t123 -65t72.5 -113.5t24 -167v-752h-131zM459 127q61 0 113 19t90 57.5t59.5 97t21.5 137.5v99l-143 -7q-90 -4 -151 -20t-97.5 -44.5t-52.5 -69
t-16 -91.5q0 -92 48.5 -135t127.5 -43z" />
    <glyph glyph-name="uni0228" unicode="&#x228;" horiz-adv-x="1139" 
d="M958 0h-759v1462h759v-164h-573v-452h535v-162h-535v-520h573v-164zM787 -287q0 -97 -70.5 -151t-220.5 -54q-22 0 -44.5 3t-37.5 6v108q15 -3 39.5 -4.5t40.5 -1.5q71 0 111 21.5t40 70.5q0 24 -13 41.5t-36 30.5t-54.5 22.5t-68.5 18.5l90 176h121l-57 -115
q34 -8 63 -21t50.5 -33.5t34 -49.5t12.5 -68z" />
    <glyph glyph-name="uni0229" unicode="&#x229;" horiz-adv-x="1155" 
d="M608 -20q-110 0 -201 37t-156.5 108t-101.5 176t-36 240q0 136 33 243t93 181.5t143.5 113.5t184.5 39q99 0 178 -35.5t134 -100t84.5 -155t29.5 -200.5v-113h-692q5 -193 81.5 -284t227.5 -91q51 0 94.5 5t84 14.5t78.5 24t77 32.5v-162q-40 -19 -78.5 -33t-79 -23
t-84 -13t-94.5 -4zM563 967q-114 0 -180.5 -78t-77.5 -227h492q0 68 -13.5 124.5t-42 96.5t-72.5 62t-106 22zM775 -287q0 -97 -70.5 -151t-220.5 -54q-22 0 -44.5 3t-37.5 6v108q15 -3 39.5 -4.5t40.5 -1.5q71 0 111 21.5t40 70.5q0 24 -13 41.5t-36 30.5t-54.5 22.5
t-68.5 18.5l90 176h121l-57 -115q34 -8 63 -21t50.5 -33.5t34 -49.5t12.5 -68z" />
    <glyph glyph-name="uni022A" unicode="&#x22a;" horiz-adv-x="1599" 
d="M1088 1696q0 -48 -25.5 -74t-71.5 -26t-71 27t-25 73q0 53 29 78t67 25q41 0 69 -25t28 -78zM703 1696q0 -53 -28 -76.5t-67 -23.5q-46 0 -71 27t-25 73q0 53 29 78t67 25q39 0 67 -25t28 -78zM496 2077h608v-145h-608v145zM1393 733q0 -169 -40.5 -308t-120.5 -238
t-198.5 -153t-273.5 -54q-163 0 -282.5 54t-198 153t-116.5 238.5t-38 309.5t38 308.5t117 236.5t199 151.5t283 53.5q155 0 272.5 -53.5t197.5 -152t120.5 -237t40.5 -309.5zM322 733q0 -137 26 -246.5t79.5 -186t136 -117t196.5 -40.5t196.5 40.5t136 117t78.5 186
t25 246.5q0 138 -25 247t-78 184.5t-135 116t-196 40.5t-197 -40.5t-137 -116t-80 -184.5t-26 -247z" />
    <glyph glyph-name="uni022B" unicode="&#x22b;" horiz-adv-x="1239" 
d="M908 1331q0 -48 -25.5 -74t-71.5 -26t-71 27t-25 73q0 53 29 78t67 25q41 0 69 -25t28 -78zM523 1331q0 -53 -28 -76.5t-67 -23.5q-46 0 -71 27t-25 73q0 53 29 78t67 25q39 0 67 -25t28 -78zM316 1712h608v-145h-608v145zM1069 551q0 -137 -33.5 -243.5t-96 -179
t-151.5 -110.5t-200 -38q-103 0 -190 38t-150.5 110.5t-99 179t-35.5 243.5q0 136 33.5 241.5t95.5 178t151.5 110t200.5 37.5q103 0 190 -37.5t150.5 -110t99 -178t35.5 -241.5zM301 551q0 -209 68.5 -314.5t222.5 -105.5t221.5 105.5t67.5 314.5t-68.5 312.5t-222.5 103.5
t-221.5 -103.5t-67.5 -312.5z" />
    <glyph glyph-name="uni022C" unicode="&#x22c;" horiz-adv-x="1599" 
d="M944 1606q-39 0 -77.5 15.5t-75 33.5t-71.5 33.5t-66 15.5q-38 0 -59 -22t-36 -78h-104q10 112 62 173t137 61q42 0 82 -15.5t76.5 -34t70 -34t63.5 -15.5q43 0 62 27t33 74h102q-11 -112 -61.5 -173t-137.5 -61zM494 2077h608v-145h-608v145zM1393 733
q0 -169 -40.5 -308t-120.5 -238t-198.5 -153t-273.5 -54q-163 0 -282.5 54t-198 153t-116.5 238.5t-38 309.5t38 308.5t117 236.5t199 151.5t283 53.5q155 0 272.5 -53.5t197.5 -152t120.5 -237t40.5 -309.5zM322 733q0 -137 26 -246.5t79.5 -186t136 -117t196.5 -40.5
t196.5 40.5t136 117t78.5 186t25 246.5q0 138 -25 247t-78 184.5t-135 116t-196 40.5t-197 -40.5t-137 -116t-80 -184.5t-26 -247z" />
    <glyph glyph-name="uni022D" unicode="&#x22d;" horiz-adv-x="1239" 
d="M763 1241q-39 0 -77.5 15.5t-75 33.5t-71.5 33.5t-66 15.5q-38 0 -59 -22t-36 -78h-104q10 112 62 173t137 61q42 0 82 -15.5t76.5 -34t70 -34t63.5 -15.5q43 0 62 27t33 74h102q-11 -112 -61.5 -173t-137.5 -61zM313 1712h608v-145h-608v145zM1069 551
q0 -137 -33.5 -243.5t-96 -179t-151.5 -110.5t-200 -38q-103 0 -190 38t-150.5 110.5t-99 179t-35.5 243.5q0 136 33.5 241.5t95.5 178t151.5 110t200.5 37.5q103 0 190 -37.5t150.5 -110t99 -178t35.5 -241.5zM301 551q0 -209 68.5 -314.5t222.5 -105.5t221.5 105.5
t67.5 314.5t-68.5 312.5t-222.5 103.5t-221.5 -103.5t-67.5 -312.5z" />
    <glyph glyph-name="uni022E" unicode="&#x22e;" horiz-adv-x="1599" 
d="M695 1733q0 60 30.5 87t75.5 27q42 0 73.5 -27t31.5 -87q0 -59 -31.5 -87t-73.5 -28q-45 0 -75.5 28t-30.5 87zM1393 733q0 -169 -40.5 -308t-120.5 -238t-198.5 -153t-273.5 -54q-163 0 -282.5 54t-198 153t-116.5 238.5t-38 309.5t38 308.5t117 236.5t199 151.5
t283 53.5q155 0 272.5 -53.5t197.5 -152t120.5 -237t40.5 -309.5zM322 733q0 -137 26 -246.5t79.5 -186t136 -117t196.5 -40.5t196.5 40.5t136 117t78.5 186t25 246.5q0 138 -25 247t-78 184.5t-135 116t-196 40.5t-197 -40.5t-137 -116t-80 -184.5t-26 -247z" />
    <glyph glyph-name="uni022F" unicode="&#x22f;" horiz-adv-x="1239" 
d="M514 1395q0 60 30.5 87t75.5 27q42 0 73.5 -27t31.5 -87q0 -59 -31.5 -87t-73.5 -28q-45 0 -75.5 28t-30.5 87zM1069 551q0 -137 -33.5 -243.5t-96 -179t-151.5 -110.5t-200 -38q-103 0 -190 38t-150.5 110.5t-99 179t-35.5 243.5q0 136 33.5 241.5t95.5 178t151.5 110
t200.5 37.5q103 0 190 -37.5t150.5 -110t99 -178t35.5 -241.5zM301 551q0 -209 68.5 -314.5t222.5 -105.5t221.5 105.5t67.5 314.5t-68.5 312.5t-222.5 103.5t-221.5 -103.5t-67.5 -312.5z" />
    <glyph glyph-name="uni0230" unicode="&#x230;" horiz-adv-x="1599" 
d="M695 1692q0 60 30.5 87t75.5 27q48 0 76 -30.5t28 -83.5q0 -54 -29 -84.5t-75 -30.5q-45 0 -75.5 28t-30.5 87zM494 2050h608v-145h-608v145zM1393 733q0 -169 -40.5 -308t-120.5 -238t-198.5 -153t-273.5 -54q-163 0 -282.5 54t-198 153t-116.5 238.5t-38 309.5
t38 308.5t117 236.5t199 151.5t283 53.5q155 0 272.5 -53.5t197.5 -152t120.5 -237t40.5 -309.5zM322 733q0 -137 26 -246.5t79.5 -186t136 -117t196.5 -40.5t196.5 40.5t136 117t78.5 186t25 246.5q0 138 -25 247t-78 184.5t-135 116t-196 40.5t-197 -40.5t-137 -116
t-80 -184.5t-26 -247z" />
    <glyph glyph-name="uni0231" unicode="&#x231;" horiz-adv-x="1239" 
d="M517 1356q0 60 30.5 87t75.5 27q48 0 76 -30.5t28 -83.5q0 -54 -29 -84.5t-75 -30.5q-45 0 -75.5 28t-30.5 87zM316 1714h608v-145h-608v145zM1069 551q0 -137 -33.5 -243.5t-96 -179t-151.5 -110.5t-200 -38q-103 0 -190 38t-150.5 110.5t-99 179t-35.5 243.5
q0 136 33.5 241.5t95.5 178t151.5 110t200.5 37.5q103 0 190 -37.5t150.5 -110t99 -178t35.5 -241.5zM301 551q0 -209 68.5 -314.5t222.5 -105.5t221.5 105.5t67.5 314.5t-68.5 312.5t-222.5 103.5t-221.5 -103.5t-67.5 -312.5z" />
    </font>
</defs>
</svg>
