<?xml version="1.0" standalone="no"?>
<!DOCTYPE svg PUBLIC "-//W3C//DTD SVG 1.1//EN" "http://www.w3.org/Graphics/SVG/1.1/DTD/svg11.dtd" >
<svg xmlns="http://www.w3.org/2000/svg" xmlns:xlink="http://www.w3.org/1999/xlink" version="1.1">
<metadata>
Created by FontForge 20190801 at Mon Feb  8 12:14:17 2021
 By root
Copyright 2017 The EB Garamond Project Authors (https://github.com/octaviopardo/EBGaramond12)
</metadata>
<defs>
<font id="EBGaramond-Bold" horiz-adv-x="237" >
  <font-face 
    font-family="EB Garamond"
    font-weight="700"
    font-stretch="normal"
    units-per-em="1000"
    panose-1="0 0 0 0 0 0 0 0 0 0"
    ascent="800"
    descent="-200"
    x-height="423"
    cap-height="655"
    bbox="-214 -312 2180 1004"
    underline-thickness="50"
    underline-position="-125"
    unicode-range="U+0001-206F"
  />
<missing-glyph horiz-adv-x="364" 
d="M33 0v666h265v-666h-265zM66 33h199v600h-199v-600z" />
    <glyph glyph-name=".notdef" horiz-adv-x="364" 
d="M33 0v666h265v-666h-265zM66 33h199v600h-199v-600z" />
    <glyph glyph-name=".null" horiz-adv-x="0" 
 />
    <glyph glyph-name="nonmarkingreturn" horiz-adv-x="333" 
 />
    <glyph glyph-name="NULL" 
 />
    <glyph glyph-name="NULL" 
 />
    <glyph glyph-name="uni0001" 
 />
    <glyph glyph-name="uni0002" 
 />
    <glyph glyph-name="uni0003" 
 />
    <glyph glyph-name="uni0004" 
 />
    <glyph glyph-name="uni0005" 
 />
    <glyph glyph-name="uni0006" 
 />
    <glyph glyph-name="uni0007" 
 />
    <glyph glyph-name="uni0008" 
 />
    <glyph glyph-name="uni0009" unicode="&#x9;" 
 />
    <glyph glyph-name="uni000A" unicode="&#xa;" 
 />
    <glyph glyph-name="uni000B" 
 />
    <glyph glyph-name="uni000C" 
 />
    <glyph glyph-name="CR" unicode="&#xd;" 
 />
    <glyph glyph-name="uni000E" 
 />
    <glyph glyph-name="uni000F" 
 />
    <glyph glyph-name="uni0010" 
 />
    <glyph glyph-name="uni0011" 
 />
    <glyph glyph-name="uni0012" 
 />
    <glyph glyph-name="uni0013" 
 />
    <glyph glyph-name="uni0014" 
 />
    <glyph glyph-name="uni0015" 
 />
    <glyph glyph-name="uni0016" 
 />
    <glyph glyph-name="uni0017" 
 />
    <glyph glyph-name="uni0018" 
 />
    <glyph glyph-name="uni0019" 
 />
    <glyph glyph-name="uni001A" 
 />
    <glyph glyph-name="uni001B" 
 />
    <glyph glyph-name="uni001C" 
 />
    <glyph glyph-name="uni001D" 
 />
    <glyph glyph-name="uni001E" 
 />
    <glyph glyph-name="uni001F" 
 />
    <glyph glyph-name="space" unicode=" " 
 />
    <glyph glyph-name="exclam" unicode="!" horiz-adv-x="290" 
d="M143 178q-12 0 -19 11.5t-12 38.5q-8 56 -15.5 103.5t-12.5 89t-8 76.5t-4 65q0 33 21.5 60t53.5 27q33 0 52.5 -25.5t19.5 -59.5q0 -30 -4.5 -66t-11 -77.5t-15 -89.5t-16.5 -103q-3 -21 -10 -35.5t-19 -14.5zM141 -14q-30 0 -51 21t-21 51t21 51.5t51 21.5t51.5 -21.5
t21.5 -51.5t-21.5 -51t-51.5 -21z" />
    <glyph glyph-name="quotedbl" unicode="&#x22;" horiz-adv-x="398" 
d="M79 408q-6 0 -8.5 10t-2.5 18q1 19 0 34.5t-1 30.5q0 23 -1.5 44t-3 40t-1.5 33t9.5 24.5t18.5 16.5q17 12 30.5 18t30.5 6q12 0 18.5 -11t6.5 -26q0 -30 -12 -70.5t-27.5 -77.5t-26.5 -59q-6 -11 -15.5 -21t-14.5 -10zM240 408q-6 0 -8.5 10t-2.5 18q1 19 0 34.5
t-1 30.5q0 23 -1.5 44t-3 40t-1.5 33t9.5 24.5t18.5 16.5q17 12 30.5 18t30.5 6q12 0 18.5 -11t6.5 -26q0 -30 -12 -70.5t-27.5 -77.5t-26.5 -59q-6 -11 -15.5 -21t-14.5 -10z" />
    <glyph glyph-name="numbersign" unicode="#" horiz-adv-x="484" 
d="M70 -93q-7 0 -11 5.5t-4 12.5v4l40 161l-58 -2q-10 -1 -16 6t-6 13q0 24 5 39t13.5 22.5t18.5 7.5l64 3l28 111l-67 -3q-10 0 -15.5 6.5t-5.5 13.5q0 24 4.5 38.5t13 22t18.5 7.5l74 3l36 148q3 16 13.5 21t26.5 5q5 0 8.5 -5.5t3.5 -12.5q0 -3 -1 -4.5t-1 -3.5l-35 -145
l114 5l37 151q3 16 13.5 21t26.5 5q5 0 8.5 -5.5t3.5 -12.5q0 -3 -1 -4.5t-1 -3.5l-36 -149l59 3q11 1 17.5 -5t6.5 -15q0 -14 -6 -30t-15 -26.5t-19 -11.5l-66 -3l-27 -112l68 3q12 1 18.5 -5t6.5 -15q0 -15 -6 -30.5t-15 -26t-19 -11.5l-75 -3l-38 -155q-4 -15 -12.5 -19
t-23.5 -4q-6 0 -10.5 5.5t-4.5 12.5v5l38 152l-114 -4l-39 -164q-4 -14 -12.5 -18t-23.5 -4zM167 181l114 4l27 113l-113 -5z" />
    <glyph glyph-name="dollar" unicode="$" horiz-adv-x="461" 
d="M177 -82q-12 0 -17.5 8.5t-4.5 18.5l7 62q1 4 -0.5 5.5t-5.5 2.5q-26 5 -50.5 14.5t-46.5 23.5q-7 5 -12 10t-8 12q-9 25 -12.5 60.5t-2.5 71.5q0 12 18 12q9 0 12.5 -3t7.5 -9q14 -49 39.5 -84t58.5 -51q4 -1 6.5 0t3.5 6l20 174q1 5 -1 9t-9 8q-35 21 -66.5 45.5
t-52 58.5t-20.5 83q0 48 23.5 86t65.5 61.5t94 29.5q10 1 10 8l5 52q1 10 11.5 14.5t24.5 4.5q9 0 13 -7.5t2 -18.5q-1 -6 -2 -14t-1.5 -16.5t-1.5 -15.5q0 -7 7 -8q25 -4 46 -11t35 -13q10 -3 15 -9t9 -19q5 -19 8 -46.5t3 -59.5q0 -5 -4.5 -8t-12.5 -3q-7 0 -15 3.5
t-10 9.5q-14 42 -33.5 68t-47.5 36q-7 1 -8 -6l-18 -155q-1 -8 4 -13.5t22 -16.5q50 -29 80.5 -57t44.5 -60.5t14 -74.5q0 -89 -56.5 -135t-147.5 -51q-6 0 -7 -6l-8 -74q-1 -7 -9.5 -10t-18.5 -3zM231 61q34 6 50.5 29t16.5 52q0 31 -13 51t-39 38q-7 4 -8 -5l-17 -154
q-1 -11 10 -11zM205 443q6 -6 6 2l15 127q1 11 -6 9q-26 -6 -40.5 -24.5t-14.5 -50.5q0 -18 10.5 -33t29.5 -30z" />
    <glyph glyph-name="percent" unicode="%" horiz-adv-x="702" 
d="M527 -17q-41 0 -72 22.5t-49.5 61.5t-18.5 89q0 54 18.5 94.5t52 63t78.5 22.5q42 0 73 -22.5t48.5 -61t17.5 -87.5q0 -58 -19.5 -98.5t-53 -62t-75.5 -21.5zM535 15q17 0 26 20t12.5 52.5t3.5 67.5q0 36 -5 70t-16 56t-29 22q-16 0 -25 -20t-12.5 -51.5t-3.5 -66.5
q0 -27 2.5 -53.5t8.5 -48t15 -35t23 -13.5zM167 263q-41 0 -72 22.5t-49.5 61.5t-18.5 89q0 54 18.5 94.5t52 63t78.5 22.5q42 0 73 -22.5t48.5 -61t17.5 -87.5q0 -58 -19.5 -98.5t-53 -62t-75.5 -21.5zM175 295q17 0 26 20t12.5 52.5t3.5 67.5q0 36 -5 70t-16 56t-29 22
q-16 0 -25 -20t-12.5 -51.5t-3.5 -66.5q0 -27 2.5 -53.5t8.5 -48t15 -35t23 -13.5zM532 642q8 14 20.5 18t28.5 4q8 0 13 -5.5t5 -11.5q0 -4 -1 -5l-410 -646q-6 -12 -18.5 -15.5t-26.5 -3.5q-8 0 -15 4.5t-7 10.5q0 2 1 4z" />
    <glyph glyph-name="ampersand" unicode="&#x26;" horiz-adv-x="799" 
d="M208 -16q-41 0 -82 16.5t-68 49t-27 80.5q0 60 41.5 115.5t116.5 90.5l20 10l-8 9q-10 11 -26 28t-28.5 40.5t-12.5 52.5q0 35 23 63t64 44.5t94 16.5q46 0 81 -14.5t54.5 -39t19.5 -55.5q0 -45 -28.5 -71t-77.5 -44l-22 -8l20 -21q28 -28 57 -58t55 -58l18 -20l14 13
q20 19 34 39.5t22 38.5t8 29q0 15 -8.5 23t-20.5 11q-7 4 -13.5 7.5t-6.5 11.5q0 10 9 12t20 2q13 0 29 -2t33 -4t34 -2q21 0 44.5 6t46.5 11t39 5q7 0 11.5 -4t4.5 -9q0 -9 -9 -17t-24 -10q-32 -5 -54 -20.5t-38 -31.5q-12 -11 -27.5 -25.5t-32 -30t-33.5 -30.5
t-32.5 -28.5t-26.5 -24.5l18 -22q32 -39 60.5 -65.5t58.5 -26.5q18 0 38.5 3.5t40.5 11.5q5 2 11 4t12 2q8 0 12.5 -2.5t4.5 -11.5q0 -14 -21.5 -35t-58.5 -37.5t-84 -16.5q-39 0 -67.5 10t-51.5 30t-49 51l-18 21l-6 -6q-29 -34 -62.5 -58t-69.5 -36.5t-75 -12.5zM281 79
q25 0 53 6.5t53 31.5l7 7l-15 19q-33 40 -66.5 79t-69.5 80l-12 14l-18 -11q-19 -9 -30 -25t-15.5 -35t-4.5 -40q0 -58 32 -92t86 -34zM322 392l11 10q14 11 21 35.5t7 49.5q1 30 -11 53.5t-40 23.5q-18 0 -33.5 -15t-15.5 -38q0 -27 6.5 -46t16.5 -31t18 -22z" />
    <glyph glyph-name="quotesingle" unicode="'" 
d="M79 408q-6 0 -8.5 10t-2.5 18q1 19 0 34.5t-1 30.5q0 23 -1.5 44t-3 40t-1.5 33t9.5 24.5t18.5 16.5q17 12 30.5 18t30.5 6q12 0 18.5 -11t6.5 -26q0 -30 -12 -70.5t-27.5 -77.5t-26.5 -59q-6 -11 -15.5 -21t-14.5 -10z" />
    <glyph glyph-name="parenleft" unicode="(" horiz-adv-x="304" 
d="M239 -215q-17 0 -29 12q-21 21 -44.5 59.5t-46.5 88t-42 105t-30 111.5t-11 106q0 64 16 127t42 120t55 102t56 71q7 8 20 13.5t25 5.5q9 0 23 -8t14 -19q0 -2 -4.5 -8.5t-9.5 -14t-7 -9.5q-26 -33 -52 -88t-43.5 -128t-17.5 -159q0 -57 9 -119t24.5 -121t34 -106
t38.5 -71q2 -2 8 -9t11.5 -14t5.5 -9q0 -18 -14.5 -28t-30.5 -10z" />
    <glyph glyph-name="parenright" unicode=")" horiz-adv-x="304" 
d="M65 -215q17 0 29 12q21 21 44.5 59.5t46.5 88t42 105t30 111.5t11 106q0 64 -16 127t-42 120t-55 102t-56 71q-7 8 -20 13.5t-25 5.5q-9 0 -23 -8t-14 -19q0 -2 4.5 -8.5t9.5 -14t7 -9.5q26 -33 52 -88t43.5 -128t17.5 -159q0 -57 -9 -119t-24.5 -121t-34 -106t-38.5 -71
q-2 -2 -8 -9t-11.5 -14t-5.5 -9q0 -18 14.5 -28t30.5 -10z" />
    <glyph glyph-name="asterisk" unicode="*" horiz-adv-x="357" 
d="M196 352q-12 0 -21 9t-10 22l-13 73q-9 -4 -28 -16t-38 -23q-5 -3 -10.5 -4.5t-11.5 -1.5q-11 0 -19.5 7t-8.5 19q0 18 16 29l56 45q-7 6 -26.5 15.5t-37.5 19.5q-10 4 -15.5 13t-5.5 19q0 17 13.5 23.5t32.5 -0.5q17 -6 34 -13t33 -13q-1 18 -1.5 35.5t-1.5 37.5
q0 14 7.5 25.5t23.5 12.5q12 -1 21 -10.5t10 -21.5l9 -72q8 5 26 17.5t35 22.5q5 4 11 6t12 2q11 0 19.5 -7.5t8.5 -20.5q0 -16 -14 -28l-55 -47q8 -4 28 -13t37 -18q10 -4 16.5 -12t6.5 -18q0 -18 -13 -24.5t-33 -2.5q-17 6 -34 12.5t-34 11.5q1 -9 2.5 -32t2.5 -44
q0 -12 -7 -23.5t-23 -11.5z" />
    <glyph glyph-name="plus" unicode="+" horiz-adv-x="601" 
d="M284 -11q-4 0 -8.5 5t-4.5 11v203q0 12 -12 12h-209q-7 0 -11.5 4t-4.5 8q0 8 2.5 19t9 20t16.5 9h196q9 0 11 3.5t2 9.5v180q0 10 8.5 17.5t20 12t18.5 4.5t11 -6.5t4 -15.5v-192q0 -13 11 -13h204q9 0 15.5 -3.5t6.5 -11.5q0 -13 -10 -29t-24 -16h-191q-12 0 -12 -12
v-191q0 -10 -9.5 -16.5t-21 -9t-18.5 -2.5z" />
    <glyph glyph-name="comma" unicode="," horiz-adv-x="247" 
d="M47 -164q-25 0 -25 16q0 7 6 10t16 6q27 7 46 19t29.5 29.5t10.5 39.5q0 19 -12 29.5t-29 14.5q-18 5 -30.5 19.5t-12.5 38.5q0 26 21 43.5t48 17.5q45 0 73 -28.5t28 -74.5q0 -41 -15 -73.5t-39.5 -57t-54 -37t-60.5 -12.5z" />
    <glyph glyph-name="hyphen" unicode="-" horiz-adv-x="316" 
d="M36 164q-10 -1 -10 10q0 30 5.5 45.5t16.5 17.5q54 8 113.5 16t113.5 12q9 1 12 -3.5t3 -11.5q0 -30 -4 -42t-16 -14q-53 -8 -116 -16.5t-118 -13.5z" />
    <glyph glyph-name="period" unicode="." horiz-adv-x="247" 
d="M122 -30q-32 0 -56 23.5t-24 56.5q0 35 24 59t56 24q36 0 59.5 -24t23.5 -59q0 -33 -23.5 -56.5t-59.5 -23.5z" />
    <glyph glyph-name="slash" unicode="/" horiz-adv-x="406" 
d="M37 -62q13 0 26 3.5t19 15.5l310 689q3 7 -2.5 14t-18.5 7q-16 0 -27.5 -4t-17.5 -17l-309 -689q-3 -7 3 -13t17 -6z" />
    <glyph glyph-name="zero" unicode="0" horiz-adv-x="529" 
d="M261 -14q-60 0 -104 28t-73.5 74.5t-43.5 102.5t-14 111q0 57 14 115t44 106.5t77 78t111 29.5q60 0 104.5 -28t73 -74.5t43 -102t14.5 -109.5q0 -57 -14 -115t-43.5 -107t-76 -79t-112.5 -30zM276 31q32 0 51.5 37.5t28.5 98.5t9 132q0 53 -7 104t-21 92.5t-34 66
t-47 24.5q-32 0 -51 -37.5t-27.5 -98t-8.5 -131.5q0 -53 6.5 -104t20 -92.5t33.5 -66.5t47 -25z" />
    <glyph glyph-name="one" unicode="1" horiz-adv-x="529" 
d="M117 -3q-6 0 -12 4t-6 10q0 16 19 21q28 7 48 14t31 19.5t11 33.5v362q0 24 -12.5 36.5t-32 18.5t-41.5 9q-8 2 -17 7t-9 16q0 13 9.5 18.5t21.5 6.5q59 5 106 19t93 41q2 1 5 2t6 1q7 0 13.5 -3t6.5 -7q0 -13 -2.5 -29.5t-2.5 -43.5v-455q0 -19 12 -31t34 -19.5
t51 -15.5q8 -3 13 -7t5 -13q0 -14 -15 -14q-23 0 -54.5 1t-62 2t-52.5 1q-21 0 -51 -1t-61 -2.5t-54 -1.5z" />
    <glyph glyph-name="two" unicode="2" horiz-adv-x="529" 
d="M450 -4q-6 0 -29.5 0.5t-55 1.5t-64.5 2t-58 1q-23 0 -50.5 -1t-52 -1.5t-41 -1t-19.5 -0.5t-11.5 5.5t-8.5 11.5q0 8 4 13t8 9l146 162q53 58 79 116.5t26 127.5q0 42 -21.5 70.5t-60.5 28.5q-35 0 -66 -20t-53 -43q-5 -6 -14 -13.5t-18 -7.5q-8 0 -11 6.5t-3 16.5
q0 17 16.5 41.5t46 49.5t68 42t81.5 17q52 0 87.5 -23t54.5 -61t19 -83q0 -28 -12.5 -61.5t-30.5 -64t-37 -52.5q-15 -17 -37.5 -39.5t-46.5 -45.5t-46 -43t-35 -33t-13 -15q0 -4 15 -6q18 -2 43.5 -3t46.5 -1q23 0 45 1t44 3t38.5 8.5t29 19t22.5 32.5q3 7 10.5 14.5
t17.5 7.5q8 0 11 -6.5t0 -13.5q-9 -26 -18.5 -56.5t-16.5 -55t-8 -34.5q-1 -12 -10 -17.5t-11 -5.5z" />
    <glyph glyph-name="three" unicode="3" horiz-adv-x="529" 
d="M172 -38q-22 0 -45.5 6.5t-39.5 18t-16 24.5q0 12 4.5 26.5t12.5 24.5t18 10q9 0 15 -4t13 -12q14 -15 33 -33t43 -18q32 0 58 17.5t41.5 49.5t15.5 76q0 41 -11 73t-33 50t-54 18q-25 0 -40.5 -8.5t-24.5 -12.5q-7 -4 -17 0.5t-8 13.5q5 19 17 32t25 20q30 15 52 30.5
t37 32.5t22.5 37.5t7.5 45.5q0 32 -22 55.5t-56 23.5q-30 0 -50.5 -12.5t-34.5 -28.5t-22.5 -28t-13.5 -12q-7 0 -14 8t-7 16q0 9 11 30t35 43.5t62 38t93 15.5q40 0 73 -15t53 -42t20 -64q0 -23 -13.5 -52t-43.5 -54.5t-78 -37.5q-3 -1 -3 -3.5t4 -2.5q52 0 92 -19
t63.5 -53.5t23.5 -83.5q0 -55 -25 -99t-67 -75.5t-95 -48.5t-111 -17z" />
    <glyph glyph-name="four" unicode="4" horiz-adv-x="529" 
d="M215 -3q-6 0 -14 4t-8 11q0 10 7 14t16 6q40 7 54 19.5t14 42.5v57q0 5 -6 7.5t-11 2.5q-31 0 -71 -2t-81.5 -4t-78.5 -2q-5 0 -10 2t-5 6t5 11q7 9 11.5 14.5t9 12t9.5 13.5l247 395q8 13 20.5 24t23.5 11h9q8 0 9.5 -7.5t-2.5 -13.5l-235 -373q-4 -8 -1 -11t9 -3h140
q3 0 5.5 2t2.5 5v120q0 18 2.5 24.5t13.5 10.5q27 13 58 17t43 4q20 0 23.5 -19.5t3.5 -57.5v-105q0 -7 5 -7q13 -1 19.5 -1h16.5q15 0 27 0.5t30 1.5q12 0 12 -7q0 -8 -4 -23t-9.5 -27.5t-9.5 -12.5q-12 0 -23 0.5t-24 0.5q-10 0 -14.5 -0.5t-11.5 -1.5q-4 -1 -9 -3t-5 -3
v-57q0 -28 13 -40t52 -23q9 -3 16.5 -7t7.5 -13q0 -6 -6.5 -10t-14.5 -4q-22 0 -47.5 1t-49.5 2t-45 1t-44.5 -1t-47.5 -2.5t-47 -1.5z" />
    <glyph glyph-name="five" unicode="5" horiz-adv-x="529" 
d="M133 -38q-14 0 -31 2.5t-17 12.5q0 12 13 16t28 6q61 6 107 30.5t71.5 59t25.5 69.5q0 38 -19 66t-60.5 50.5t-109.5 42.5q-31 11 -42.5 22t-11.5 30q0 14 6 39.5t13.5 53.5t15 51.5t8.5 31.5q6 24 19.5 34.5t29.5 14.5q19 5 51.5 10.5t68.5 11t65 9.5t40 4q8 1 12 -6
t3 -15q-2 -14 -10 -31.5t-14 -32.5q-7 -20 -24 -32.5t-39 -14.5q-16 -2 -41 -2.5t-50 -2t-45 -2t-29 -2.5q-7 -1 -12 -8.5t-8 -16t-3 -13.5t3 -8.5t8 -4.5q56 -10 98.5 -25.5t78.5 -33.5q64 -30 92 -76.5t28 -101.5t-34 -106.5t-90 -82.5q-20 -11 -51.5 -22.5t-68.5 -19
t-75 -7.5z" />
    <glyph glyph-name="six" unicode="6" horiz-adv-x="529" 
d="M278 -14q-70 0 -117 26t-71 72.5t-24 108.5q0 55 12.5 100t31 80t38 60t31.5 40q23 28 61.5 57.5t87.5 56.5t104 46q16 6 31 6t15 -7q-1 -10 -10.5 -16.5t-25.5 -14.5q-55 -26 -92 -59.5t-69 -83.5q-14 -24 -33 -63.5t-32.5 -90t-13.5 -107.5q0 -55 14.5 -92t36 -56
t44.5 -20q30 0 51 31t21 90q0 30 -11 55t-27 40.5t-34 15.5q-13 0 -22 -2t-18 -6q-18 -9 -22.5 1.5t6.5 22.5q7 7 12 11.5t11 9.5q16 13 47 28.5t56 15.5q38 0 70 -19t52 -51t20 -72t-16.5 -78t-47 -69t-73 -49t-94.5 -18z" />
    <glyph glyph-name="seven" unicode="7" horiz-adv-x="529" 
d="M168 -30q-12 0 -20.5 9.5t-8.5 22.5q0 7 10 22.5t17 28.5l241 431q4 8 0.5 11t-11.5 3h-224q-25 0 -40 -8.5t-30 -29.5q-4 -5 -11.5 -17.5t-17.5 -23t-20 -10.5q-6 0 -11 5t-5 12t5 24t6 23q6 33 15 71t9 66q0 11 8 14.5t13 2.5q12 -1 38.5 -5t58.5 -6q24 0 56 -0.5
t62.5 -1t50.5 -0.5q37 0 67 0.5t53.5 1.5t38.5 2q4 0 7 -7t3 -14q0 -5 -5.5 -14.5t-13.5 -22.5t-18 -29l-300 -529q-5 -9 -12.5 -20.5t-10.5 -11.5z" />
    <glyph glyph-name="eight" unicode="8" horiz-adv-x="529" 
d="M265 -13q-55 0 -102 20t-75 55t-28 81q0 40 23 65.5t56 44t62 34.5q9 5 6.5 8.5t-10.5 8.5q-30 24 -56.5 50t-43.5 57.5t-17 70.5q0 45 31.5 78t80.5 51t102 18q46 0 88.5 -17.5t68.5 -49.5t26 -74q0 -39 -18.5 -63.5t-41.5 -35.5q-11 -6 -22.5 -12t-21.5 -12
q-16 -10 -16 -15t10 -11q37 -24 66.5 -47.5t47 -52t17.5 -65.5q0 -57 -32 -99t-84.5 -65t-116.5 -23zM283 30q36 0 59 26t23 63q0 27 -16.5 52.5t-40.5 48.5t-47 39q-5 5 -8.5 7.5t-7.5 2.5q-2 0 -13 -7q-21 -20 -29.5 -46t-8.5 -66q0 -30 11 -57.5t31 -45t47 -17.5z
M321 380q16 17 22.5 48t6.5 64q0 38 -15.5 66t-53.5 28q-20 0 -36 -9.5t-26.5 -26.5t-10.5 -40q0 -28 13.5 -50t34.5 -40.5t45 -37.5q6 -5 11 -5.5t9 3.5z" />
    <glyph glyph-name="nine" unicode="9" horiz-adv-x="529" 
d="M81 -50q-15 0 -20.5 5.5t-5.5 10.5q0 11 9 17t19 6q36 5 73.5 26.5t72 53t60.5 65.5q21 27 43 65.5t38 86.5t16 103q0 34 -8.5 67.5t-23.5 61t-34 44t-39 16.5q-24 0 -41 -12.5t-25.5 -37t-8.5 -62.5q0 -30 10.5 -58t27.5 -46t37 -18q14 0 24 3t19 7q21 9 24 -2t-7 -23
q-5 -7 -10.5 -12.5t-11.5 -10.5q-7 -7 -22.5 -16t-34.5 -16t-37 -7q-38 0 -74 19.5t-60 53t-24 77.5q0 32 19 69t52 69.5t75.5 53t90.5 20.5q43 0 81.5 -18.5t68 -51t46.5 -73.5t17 -86q0 -63 -22.5 -119t-56.5 -102.5t-69 -80.5q-24 -22 -60.5 -48t-78 -48.5t-81 -37
t-68.5 -14.5z" />
    <glyph glyph-name="colon" unicode=":" horiz-adv-x="282" 
d="M132 246q-32 0 -56 23.5t-24 56.5q0 35 24 59t56 24q36 0 59.5 -24t23.5 -59q0 -33 -23.5 -56.5t-59.5 -23.5zM132 -30q-32 0 -56 23.5t-24 56.5q0 35 24 59t56 24q36 0 59.5 -24t23.5 -59q0 -33 -23.5 -56.5t-59.5 -23.5z" />
    <glyph glyph-name="semicolon" unicode=";" horiz-adv-x="247" 
d="M112 247q-32 0 -56 23.5t-24 56.5q0 35 24 59t56 24q36 0 59.5 -24t23.5 -59q0 -33 -23.5 -56.5t-59.5 -23.5zM47 -164q-25 0 -25 16q0 7 6 10t16 6q27 7 46 19t29.5 29.5t10.5 39.5q0 19 -12 29.5t-29 14.5q-18 5 -30.5 19.5t-12.5 38.5q0 26 21 43.5t48 17.5
q45 0 73 -28.5t28 -74.5q0 -41 -15 -73.5t-39.5 -57t-54 -37t-60.5 -12.5z" />
    <glyph glyph-name="less" unicode="&#x3c;" horiz-adv-x="541" 
d="M480 0l-393 189q-16 8 -32.5 17t-16.5 14q0 8 11 26t28 25l403 197q4 3 7 3q9 0 12.5 -7t3.5 -15q0 -14 -10 -28t-26 -22l-331 -161q-4 -1 -4 -4t4 -5l332 -160q17 -7 26 -21.5t9 -28.5q0 -15 -8 -19t-15 0z" />
    <glyph glyph-name="equal" unicode="=" horiz-adv-x="629" 
d="M62 316q-7 0 -11.5 4t-4.5 8q0 6 2.5 17t8.5 19t16 8h489q9 0 15 -4t6 -11q0 -12 -9.5 -26.5t-22.5 -14.5h-489zM62 135q-7 0 -11.5 4.5t-4.5 8.5q0 5 2.5 16t8.5 19t16 8h489q9 0 15 -4t6 -11q0 -12 -9.5 -26.5t-22.5 -14.5h-489z" />
    <glyph glyph-name="greater" unicode="&#x3e;" horiz-adv-x="541" 
d="M61 465l393 -189q16 -8 32.5 -17t16.5 -14q0 -8 -11 -26t-28 -25l-403 -197q-4 -3 -7 -3q-9 0 -12.5 7t-3.5 15q0 14 10 28t26 22l331 161q4 1 4 4t-4 5l-332 160q-17 7 -26 21.5t-9 28.5q0 15 8 19t15 0z" />
    <glyph glyph-name="question" unicode="?" horiz-adv-x="395" 
d="M146 173q-7 0 -16 8t-17 22q-8 16 -15.5 38t-7.5 51q0 35 29.5 60.5t87.5 52.5q30 14 47 31.5t17 44.5q0 30 -22.5 45.5t-52.5 16.5q-21 0 -32 -4t-17 -7q-7 -2 -15 -4t-18 -2q-14 0 -28 14.5t-23 34.5t-9 37q0 18 21 33.5t48 15.5q40 0 77 -20t70 -54q24 -25 40.5 -54
t26 -60t9.5 -60q0 -40 -15 -63.5t-33 -31.5q-16 -8 -30 -16.5t-29 -17t-31 -17.5q-22 -12 -29.5 -26.5t-11.5 -43.5q0 -11 -6 -17.5t-15 -6.5zM145 -14q-30 0 -51 21t-21 51t21 51.5t51 21.5t51 -21.5t21 -51.5t-21 -51t-51 -21z" />
    <glyph glyph-name="at" unicode="@" horiz-adv-x="781" 
d="M398 -153q-72 0 -138 24.5t-117 69.5t-80 107t-29 136q0 87 31.5 153t86 110t125.5 67t149 23q65 0 122.5 -22t102.5 -62t70.5 -93.5t25.5 -117.5q0 -63 -30.5 -111.5t-79 -76.5t-100.5 -28q-28 0 -43 10.5t-22 21t-13 10.5q-5 0 -23.5 -11.5t-47 -23t-65.5 -11.5
q-59 0 -100 33t-41 94q0 72 32.5 125t86.5 81.5t119 28.5q18 0 39 -4t32 -7q9 -2 17 -5t11 -3q6 0 10.5 6.5t9 12.5t10.5 6q2 0 10 -1t15 -3t6 -6q-8 -22 -16 -52t-10 -45l-24 -136q-1 -7 -2 -13t-1 -13q0 -11 4 -20t14 -9q35 0 65 16t48.5 46t18.5 71q0 76 -33 132.5
t-93 88.5t-140 32q-61 0 -116.5 -19.5t-99 -56.5t-68 -89t-24.5 -118q0 -62 24 -114.5t67 -92t98.5 -61.5t117.5 -22q32 0 70.5 9t76 25t64.5 36q8 5 17.5 10.5t15.5 5.5q25 0 25 -18q0 -12 -27 -32.5t-69.5 -42.5t-91 -36.5t-93.5 -14.5zM363 76q17 0 30 5t27 15
q9 7 14.5 18.5t9.5 33.5l22 114q1 3 1 6v6q0 29 -21.5 47t-51.5 18q-28 0 -53 -18.5t-41 -54t-16 -86.5q0 -37 12 -60t30.5 -33.5t36.5 -10.5z" />
    <glyph glyph-name="A" unicode="A" horiz-adv-x="720" 
d="M22 -5q-11 0 -18.5 3.5t-7.5 12.5q0 10 6.5 14.5t17.5 7.5q29 8 50.5 25t32.5 42q25 56 47 110.5t43 108t42 109t42 112.5q15 41 19 59.5t6 21.5q18 5 34 9t34 11t30.5 18t18.5 17q4 3 8 3.5t8 -6.5q3 -6 5.5 -12.5t4.5 -14.5q21 -67 43 -136.5t44.5 -138.5t44.5 -136.5
t43 -131.5q6 -20 18.5 -34t28.5 -22t36 -14q11 -3 17.5 -7.5t6.5 -13.5q0 -7 -6 -11t-14 -4q-20 0 -49.5 1.5t-59.5 2.5t-53 1q-19 0 -46.5 -1t-55.5 -2t-48 -1q-9 0 -15.5 3.5t-6.5 10.5q0 9 7 14t17 7q37 8 54 21t11 39q-4 19 -10 40t-11.5 42.5t-11.5 41.5q-2 8 -5 12
t-12 4h-177q-7 0 -11 -4t-6 -13q-4 -14 -9 -28t-9.5 -28t-8.5 -28t-8 -27q-7 -30 6 -46t56 -26q24 -5 24 -21q0 -7 -5.5 -10.5t-17.5 -3.5q-29 0 -54 1.5t-55 1.5t-57 -3t-58 -3zM263 287h130q15 0 15 7q0 3 -0.5 5t-1.5 5l-67 226q-3 11 -6 11q-2 0 -7 -11l-79 -226
q-2 -4 -2 -8q0 -5 5.5 -7t12.5 -2z" />
    <glyph glyph-name="B" unicode="B" horiz-adv-x="626" 
d="M37 -5q-9 0 -14.5 4.5t-5.5 10.5q0 15 22 21q34 9 48.5 21t14.5 44v455q0 32 -13 46.5t-48 21.5q-13 3 -18 8.5t-5 12.5q0 6 6 10.5t15 4.5q32 0 53 -2t39.5 -3.5t43.5 -1.5q23 0 42 2.5t42.5 4.5t57.5 2q119 0 180.5 -33.5t61.5 -115.5q0 -31 -14 -58.5t-36 -45.5
q-16 -14 -33.5 -23t-39.5 -15q-4 -1 -4 -5t4 -5q26 -6 54 -15.5t52.5 -27.5t39 -46.5t14.5 -72.5q0 -56 -17.5 -88.5t-42 -49.5t-45.5 -28q-33 -16 -75 -24t-100 -8q-33 0 -66.5 2t-70.5 2q-21 0 -46 -1t-49.5 -2.5t-46.5 -1.5zM317 51q30 0 56.5 18t42 48.5t15.5 69.5
q0 34 -8.5 57t-20 37t-21.5 21q-8 7 -28.5 14.5t-50.5 7.5q-17 0 -31.5 -8.5t-14.5 -24.5v-176q0 -33 16 -48.5t45 -15.5zM296 369q24 0 44 5.5t41 21.5q7 7 19.5 28.5t12.5 62.5q0 42 -11 70t-33.5 42t-59.5 14q-28 0 -40.5 -10.5t-12.5 -31.5v-167q0 -20 14 -27.5t26 -7.5
z" />
    <glyph glyph-name="C" unicode="C" horiz-adv-x="709" 
d="M405 -14q-78 0 -146 23.5t-120 67t-81 104.5t-29 135q0 69 27.5 131.5t80.5 111t127.5 77t168.5 28.5q32 0 64.5 -4.5t63 -12.5t55.5 -17q9 -4 15.5 -10.5t7.5 -18.5q4 -33 6 -64t2 -56q0 -11 -8 -15t-17.5 -0.5t-13.5 15.5q-7 23 -16.5 46t-28.5 40q-20 20 -55.5 33
t-85.5 13q-51 0 -92.5 -22t-71 -60t-45.5 -86t-16 -100q0 -66 14 -122.5t43 -97.5t71 -64t99 -23q74 0 120 31.5t77 96.5q8 18 22.5 17t14.5 -17q0 -13 -2.5 -31.5t-7.5 -39.5t-12 -43q-4 -12 -10.5 -18.5t-16.5 -11.5q-38 -16 -90 -26t-114 -10z" />
    <glyph glyph-name="D" unicode="D" horiz-adv-x="766" 
d="M382 -7q-34 0 -74.5 2t-75.5 3.5t-53 1.5q-20 0 -44 -0.5t-49.5 -1.5t-48.5 -1q-7 0 -13 3.5t-6 10.5q0 9 5.5 14t15.5 7q38 8 52 20.5t14 44.5v454q0 32 -13 45.5t-53 22.5q-10 2 -15.5 7t-5.5 14q0 7 6 11t13 4q23 0 48.5 -1t50 -2.5t44.5 -1.5q16 0 42 1.5t56.5 3
t59 3t46.5 1.5q76 0 140.5 -23.5t113 -67t75.5 -102.5t27 -130q0 -67 -24 -128.5t-70 -110t-112 -76.5t-152 -28zM367 44q68 0 114 33.5t68.5 93t22.5 138.5q0 67 -14.5 121.5t-42 93.5t-68 60.5t-91.5 21.5q-32 0 -53.5 -2t-32.5 -10t-11 -26v-436q0 -33 12.5 -52t37 -27.5
t58.5 -8.5z" />
    <glyph glyph-name="E" unicode="E" horiz-adv-x="575" 
d="M41 -5q-10 0 -15.5 4.5t-5.5 10.5q0 15 22 21q34 9 48.5 21t14.5 44v455q0 32 -13 46t-49 22q-13 3 -18 8.5t-5 12.5q0 6 6 10.5t16 4.5q25 0 51 -1t51 -2.5t48 -1.5q52 0 111 1t105 2q32 0 53 3.5t25 3.5q7 0 15.5 -4.5t9.5 -14.5q4 -36 10 -70t6 -60q0 -9 -4 -14t-9 -5
t-10.5 4t-8.5 12q-10 25 -18 43t-18 29q-12 11 -29 21t-43 10h-75q-22 0 -38 -11.5t-16 -32.5v-189q0 -12 7 -18t18 -6h88q26 0 37.5 17.5t20.5 42.5q7 19 20 19q5 0 9 -5.5t3 -16.5q-1 -12 -2 -26t-1.5 -28t-0.5 -27q0 -12 0.5 -26l1 -28t1.5 -27q2 -14 -1 -20.5t-9 -6.5
q-16 0 -23 26q-9 30 -20 46t-31 16h-93q-12 0 -18.5 -5.5t-6.5 -17.5v-190q0 -30 13 -42t40 -12h86q22 0 42 5t34 17q17 14 31 35t26 45q4 7 8.5 9.5t10.5 2.5q5 0 7.5 -6t2.5 -13q0 -17 -5 -38t-12.5 -44.5t-14.5 -46.5q-2 -7 -8.5 -10t-13.5 -3q-13 0 -48.5 0.5t-83.5 1.5
t-99 1.5t-95 0.5q-20 0 -44 -1t-48.5 -2.5t-45.5 -1.5z" />
    <glyph glyph-name="F" unicode="F" horiz-adv-x="546" 
d="M38 -3q-8 0 -14 3.5t-6 10.5q0 16 21 21q38 8 52 20.5t14 45.5v448q0 34 -12 49.5t-48 23.5q-13 3 -18 8.5t-5 12.5q0 6 6 10.5t16 4.5q24 0 50 -1t51 -2.5t48 -1.5h85.5h89.5q41 0 74.5 5.5t54.5 5.5q8 0 16 -4t9 -15q2 -23 3 -48t1.5 -48t0.5 -39q0 -20 -12 -20
q-5 0 -11.5 4t-8.5 12q-7 25 -15 44.5t-21 32.5q-13 14 -30.5 20t-41.5 6h-75q-25 0 -39 -12.5t-14 -33.5v-42v-43v-48v-48q0 -13 6 -18.5t17 -5.5h50h47q26 0 38 15.5t21 36.5q4 8 9.5 13t10.5 5t9.5 -6t3.5 -16q-2 -21 -3.5 -39.5t-1.5 -32.5q0 -19 1 -32.5t3 -36.5
q1 -13 -2 -19.5t-8 -6.5q-8 0 -14.5 7.5t-9.5 16.5q-8 30 -20 40.5t-30 10.5h-23.5h-23.5h-29.5t-29.5 -1q-11 0 -16.5 -6t-5.5 -17q0 -45 0.5 -94t1.5 -94q0 -32 17 -45t59 -22q10 -2 15.5 -6.5t5.5 -13.5q0 -7 -4.5 -11t-13.5 -4q-22 0 -51 1.5t-57 2.5t-48 1t-45 -1
t-51 -2.5t-49 -1.5z" />
    <glyph glyph-name="G" unicode="G" horiz-adv-x="719" 
d="M379 -14q-72 0 -135.5 23.5t-112 67.5t-75.5 104t-27 133q0 69 26.5 132t76 112t119.5 77.5t155 28.5q21 0 48.5 -3t56.5 -8t54.5 -11.5t41.5 -13.5q9 -3 14 -8.5t6 -15.5q5 -35 8.5 -66t3.5 -52q0 -10 -4.5 -15t-12.5 -5q-12 0 -17.5 6t-9.5 15q-9 19 -20.5 39.5
t-27.5 37.5q-12 12 -28.5 23t-40.5 18t-58 7q-54 0 -96 -22t-70.5 -60.5t-43 -87t-14.5 -102.5q0 -67 13 -122.5t38 -95.5t62 -61.5t86 -21.5q26 0 42.5 9t26.5 16q10 8 16.5 25.5t6.5 39.5q1 9 1 25t0.5 32t0.5 25q0 11 -4.5 20.5t-17.5 14.5q-9 6 -20.5 10t-23 6.5
t-20.5 4.5q-8 1 -16 7t-8 15q0 7 7 11t14 4q23 0 50.5 -1t54.5 -2.5t48 -1.5q29 0 61.5 2t62.5 2q7 0 12 -3.5t5 -11.5q0 -10 -5.5 -14.5t-14.5 -6.5q-28 -7 -38 -18t-14 -31q-4 -22 -5.5 -38.5t-1.5 -36.5v-32q0 -5 4 -10t9 -10q4 -5 7 -10t3 -11t-4 -12.5t-15 -8.5
q-8 -1 -28 -10.5t-50 -22t-71 -21.5t-91 -9z" />
    <glyph glyph-name="H" unicode="H" horiz-adv-x="801" 
d="M39 -3q-7 0 -13.5 3.5t-6.5 10.5q0 16 21 21q35 8 47.5 20.5t12.5 44.5v454q0 33 -11.5 46t-46.5 22q-22 5 -22 21q0 7 6.5 11t13.5 4q23 0 47 -1t47 -2.5t43 -1.5t45.5 1t52 2t48.5 1q18 0 18 -15q0 -9 -5.5 -13t-15.5 -7q-40 -11 -53 -25t-13 -44v-180q0 -8 4.5 -11
t11.5 -3h264q13 0 13 14v180q0 30 -12.5 44t-52.5 25q-11 3 -16.5 7t-5.5 13q0 15 19 15q22 0 49 -1t53 -2t46 -1q19 0 41.5 1.5t46 2.5t46.5 1q8 0 14 -4t6 -11q0 -16 -21 -21q-36 -9 -47.5 -22.5t-11.5 -45.5v-453q0 -33 12.5 -45.5t46.5 -20.5q21 -5 21 -21
q0 -7 -6 -10.5t-13 -3.5q-21 0 -45 1.5t-48 2.5t-44 1t-45.5 -1t-52.5 -2.5t-49 -1.5q-8 0 -13 4t-5 11q0 10 5.5 13.5t15.5 6.5q38 10 52 23.5t14 42.5v187q0 8 -2.5 12.5t-9.5 4.5h-267q-14 0 -14 -16v-187q0 -28 15 -42.5t53 -24.5q10 -3 15.5 -6.5t5.5 -13.5
q0 -7 -4.5 -11t-13.5 -4q-22 0 -49 1.5t-53 2.5t-46 1t-44.5 -1t-49 -2.5t-44.5 -1.5z" />
    <glyph glyph-name="I" unicode="I" horiz-adv-x="364" 
d="M36 -3q-8 0 -14 3.5t-6 10.5q0 16 21 21q38 8 53 20.5t15 44.5v454q0 32 -13 45.5t-53 22.5q-21 5 -21 21q0 7 6 11t14 4q23 0 48.5 -1t50 -2.5t45.5 -1.5q20 0 45.5 1t52 2t48.5 1q9 0 14 -3.5t5 -10.5q0 -10 -5.5 -14t-16.5 -7q-40 -11 -53 -24.5t-13 -44.5v-452
q0 -29 14.5 -42.5t53.5 -23.5q10 -3 15.5 -7t5.5 -13q0 -7 -4.5 -11t-13.5 -4q-22 0 -49 1.5t-53 2.5t-46 1q-21 0 -46 -1t-51 -2.5t-49 -1.5z" />
    <glyph glyph-name="J" unicode="J" horiz-adv-x="370" 
d="M57 -200q-139 0 -139 58q0 20 17 39t34 19q12 0 22 -6t20 -18q19 -22 28.5 -36t21.5 -14q30 0 46 38.5t16 126.5v544q0 33 -13 46t-53 22q-21 5 -21 21q0 7 6.5 11t13.5 4q23 0 48.5 -1t50 -2.5t45.5 -1.5q20 0 44.5 1t51 2t48.5 1q9 0 13.5 -3.5t4.5 -10.5
q0 -10 -5.5 -14t-15.5 -7q-40 -11 -52 -24.5t-12 -44.5v-464q0 -27 -10.5 -60t-29 -67.5t-40.5 -64.5q-30 -39 -66.5 -66.5t-73.5 -27.5z" />
    <glyph glyph-name="K" unicode="K" horiz-adv-x="763" 
d="M46 -6q-10 0 -19 5t-9 12q0 16 26 21q38 8 50 21t12 45v453q0 33 -13.5 46t-53.5 22q-21 5 -21 21q0 7 6.5 11t13.5 4q23 0 48.5 -1t50 -2.5t44.5 -1.5t45 1t51.5 2t48.5 1q8 0 13 -3.5t5 -10.5q0 -10 -5.5 -14t-16.5 -7q-40 -11 -51.5 -25t-11.5 -44v-203q0 -8 3 -12
t7 -4q5 0 11 4.5t14 11.5l192 207q8 9 13.5 16.5t5.5 14.5q0 21 -41 30q-11 3 -16.5 8t-5.5 14q0 7 6.5 10.5t13.5 3.5h69q34 0 66 0.5t65 1.5t67 1q10 0 18 -3.5t8 -10.5q0 -10 -10 -14.5t-20 -6.5q-50 -7 -87.5 -23t-66.5 -39q-30 -23 -58 -49.5t-56 -55t-59 -57.5
q-14 -13 1 -30l239 -268q14 -15 27.5 -27t31.5 -21t44 -17q11 -3 21 -7t10 -13q0 -7 -10 -12t-28 -5q-30 0 -59.5 2t-58.5 3.5t-61 1.5q-33 0 -61.5 -2.5t-63.5 -2.5q-7 0 -13.5 4t-6.5 11q0 16 20 21q40 8 42 27q0 8 -4.5 15.5t-12.5 17.5l-163 189q-7 8 -13 12t-11 4
q-4 0 -6.5 -4.5t-2.5 -12.5q0 -45 0.5 -89t2.5 -92q1 -18 5 -31t15.5 -21t37.5 -16q11 -3 19 -7t8 -13q0 -7 -9 -11.5t-20 -4.5q-31 0 -54 2t-42 4t-38 2q-21 0 -40 -2.5t-41.5 -5t-56.5 -2.5z" />
    <glyph glyph-name="L" unicode="L" horiz-adv-x="586" 
d="M42 -5q-10 0 -15.5 4.5t-5.5 10.5q0 7 6 12.5t15 8.5q34 9 48.5 21t14.5 43v458q0 22 -5 34t-19 19t-41 13q-21 5 -21 21q0 7 6 11t14 4q23 0 48.5 -1t50 -2.5t44.5 -1.5q21 0 47 1t53.5 2t49.5 1q9 0 13.5 -3.5t4.5 -10.5q0 -10 -5.5 -14t-15.5 -7q-41 -11 -55.5 -23.5
t-14.5 -42.5v-450q0 -28 12.5 -40t41.5 -12h102q22 0 39.5 7.5t31.5 19.5q17 16 30 36.5t23 42.5q10 20 15.5 26t11.5 6q8 0 11 -7t3 -13q0 -2 -2 -9t-2 -11q-7 -29 -13 -50.5t-9.5 -41t-6.5 -43.5q-1 -7 -4.5 -13t-11.5 -6q-21 0 -61 1t-89.5 1.5t-101 1.5t-95.5 1
q-21 0 -48 -1t-52.5 -2.5t-41.5 -1.5z" />
    <glyph glyph-name="M" unicode="M" horiz-adv-x="917" 
d="M44 -3q-12 0 -18 3.5t-6 10.5q0 9 8.5 11.5t19.5 6.5q23 8 40.5 28t21.5 51q6 46 12.5 113.5t13.5 144.5t12 152q1 6 1 15v19q0 18 -5.5 28.5t-18.5 17.5q-12 8 -26 13.5t-30 9.5q-12 3 -19 8t-7 13q0 9 8 12t19 3q15 0 37 -1t48.5 -1.5t54 -1.5t50.5 -1q8 0 15 -5.5
t9 -12.5q7 -19 13 -36.5t13 -36.5l147 -351q2 -4 5.5 -4.5t5.5 4.5l143 332q7 35 11.5 57t8.5 35t16 13h43q42 2 87.5 6.5t71.5 4.5q10 0 17.5 -3.5t7.5 -11.5q0 -9 -6.5 -13t-16.5 -7q-6 -2 -14 -5.5t-14 -6.5q-26 -12 -38.5 -27.5t-10.5 -49.5q2 -72 5 -126t5.5 -100
t6 -95.5t7.5 -115.5q2 -26 21.5 -41.5t51.5 -23.5q10 -3 17 -7t7 -13q0 -7 -6 -11t-15 -4q-22 0 -50.5 1.5t-56 2.5t-47.5 1t-44.5 -1t-49.5 -2.5t-48 -1.5q-9 0 -16 3.5t-7 10.5q0 9 7 14t17 7q37 7 51 20.5t13 44.5q-3 62 -5 123.5t-3.5 121t-4.5 115.5q0 7 -3.5 6.5
t-6.5 -7.5l-191 -454q-5 -14 -15 -12t-14 10q-49 116 -102.5 229t-98.5 224q-3 9 -9.5 6.5t-7.5 -13.5q-3 -50 -5 -109.5t-2 -120v-112.5q0 -28 18 -45.5t57 -26.5q10 -2 19 -6.5t9 -13.5q0 -7 -8 -11t-17 -4q-27 0 -42 1.5t-27 2t-33 0.5q-22 0 -45 -1t-40 -2t-22 -1z" />
    <glyph glyph-name="N" unicode="N" horiz-adv-x="809" 
d="M680 -19q-13 0 -42 15.5t-60 54.5q-24 25 -50 54t-55 60t-58.5 63t-58.5 63.5t-58 62.5t-55 60t-50 54q-2 4 -6.5 7.5t-6.5 3.5q-4 0 -5.5 -7t-1.5 -12q-1 -46 0 -108t2.5 -125.5t1.5 -115.5q0 -32 20 -50.5t59 -28.5q11 -2 19.5 -6.5t8.5 -13.5q0 -7 -8 -11t-17 -4
q-27 0 -44 1.5t-31.5 2t-35.5 0.5q-22 0 -41.5 -1t-33 -2t-18.5 -1q-7 0 -15.5 3.5t-8.5 10.5q0 9 8 13t18 8q24 9 36.5 30t14.5 52q4 37 8.5 98t8.5 137.5t4 158.5q0 52 -26.5 75t-64.5 37q-8 2 -18 7.5t-10 14.5t8 12.5t18 3.5q18 0 40.5 -1t47.5 -1.5t52 -1.5t54 -1
q8 0 12.5 -3t8.5 -8q22 -25 47.5 -54t53.5 -60.5t57 -64t57.5 -65.5t56 -64t53.5 -60t48 -54q3 -4 7.5 -8.5t8.5 -4.5q8 0 8 15q0 31 0.5 72t0.5 87t-0.5 91t-2.5 83q-1 27 -20.5 40.5t-53.5 22.5q-11 2 -19 7t-8 14q0 7 8 10.5t17 3.5q23 0 39 -0.5t29 -0.5h29q20 0 34 0.5
t30.5 1.5t42.5 1q12 0 18.5 -4t6.5 -11q0 -15 -26 -20q-35 -7 -50 -20t-16 -42q0 -36 -0.5 -77t-2.5 -84t-3.5 -85.5t-2.5 -81.5t-1 -72q0 -23 3 -50.5t5.5 -50t2.5 -31.5q0 -25 -7.5 -35t-20.5 -10z" />
    <glyph glyph-name="O" unicode="O" horiz-adv-x="760" 
d="M375 -14q-69 0 -131.5 23.5t-111 67t-76 104t-27.5 134.5q0 68 22.5 130.5t67.5 111.5t111.5 78t153.5 29q70 0 132.5 -23.5t110.5 -67t76 -104t28 -134.5q0 -67 -23 -130t-68 -112t-111.5 -78t-153.5 -29zM393 32q57 0 95.5 32t57.5 89t19 131q0 61 -11.5 120.5
t-36 107.5t-62.5 76.5t-90 28.5q-56 0 -94.5 -32t-57.5 -88t-19 -130q0 -62 12 -121.5t36 -107.5t61.5 -77t89.5 -29z" />
    <glyph glyph-name="P" unicode="P" horiz-adv-x="607" 
d="M37 -3q-8 0 -14 3.5t-6 10.5q0 16 21 21q38 8 52.5 20.5t14.5 45.5v448q0 34 -12 49.5t-48 23.5q-13 3 -18 8.5t-5 12.5q0 6 6 10.5t16 4.5q23 0 46.5 -1t46 -2.5t42.5 -1.5q24 0 42.5 2.5t41 5t54.5 2.5q122 0 193.5 -51.5t71.5 -141.5q0 -63 -26.5 -116t-80 -85.5
t-135.5 -32.5q-26 0 -39.5 8t-13.5 19q0 7 6.5 11.5t11.5 4.5q11 0 19 -2.5t22 -2.5q42 0 63.5 47t21.5 124q0 92 -30 133t-84 41q-28 0 -42.5 -12.5t-14.5 -38.5l-1 -465q0 -32 17 -45.5t59 -22.5q11 -2 16.5 -6.5t5.5 -13.5q0 -7 -5 -11t-14 -4q-22 0 -50.5 1.5t-56.5 2.5
t-48 1q-21 0 -46 -1t-51.5 -2.5t-48.5 -1.5z" />
    <glyph glyph-name="Q" unicode="Q" horiz-adv-x="760" 
d="M729 -248q-59 0 -122.5 20.5t-115.5 56.5q-37 27 -67.5 49.5t-65.5 54.5q-21 18 -48.5 41t-65.5 37q-33 12 -70.5 35t-70 59t-53.5 88t-21 122q0 68 22.5 130.5t67.5 111.5t111.5 78t153.5 29q70 0 132.5 -23.5t110.5 -67t76 -104t28 -134.5q0 -69 -23.5 -132.5
t-70.5 -113t-116 -76.5q-11 -3 -11 -11q0 -5 5 -9q24 -23 47.5 -44t60.5 -52q50 -39 92 -56t84 -17q11 0 20 0.5t15 1.5q6 2 11.5 2.5t11.5 0.5q27 0 27 -20q0 -9 -4.5 -15.5t-15.5 -13.5q-21 -14 -56 -21t-79 -7zM393 34q86 0 129 67t43 183q0 63 -11.5 122.5t-36 106
t-62.5 74t-90 27.5q-85 0 -128 -66.5t-43 -180.5q0 -64 12 -123.5t36 -106.5t61.5 -75t89.5 -28z" />
    <glyph glyph-name="R" unicode="R" horiz-adv-x="760" 
d="M645 -21q-51 0 -86 12.5t-59.5 33t-43.5 46.5q-22 29 -42.5 58t-40.5 63t-42 78q-10 22 -27 31q-9 6 -18 8t-16 2q-5 0 -8 -5.5t-3 -14.5v-191q0 -31 17 -45t59 -23q11 -2 16.5 -6.5t5.5 -13.5q0 -7 -5 -11t-14 -4q-22 0 -50.5 1.5t-56.5 2.5t-48 1q-21 0 -46 -1
t-51.5 -2.5t-48.5 -1.5q-8 0 -14 3.5t-6 10.5q0 16 21 21q38 8 52.5 20.5t14.5 45.5v449q0 24 -4.5 38t-17.5 21.5t-38 12.5q-13 3 -18 8.5t-5 12.5q0 6 6 10.5t16 4.5q32 0 52.5 -2t39 -3.5t43.5 -1.5q23 0 40.5 2.5t40 4.5t57.5 2q117 0 180 -40t63 -121
q0 -45 -19.5 -75.5t-49 -50t-59.5 -29.5q-4 -1 -3.5 -4.5t2.5 -7.5q30 -44 58.5 -85.5t58.5 -77t62 -65.5q34 -32 69.5 -37.5t70.5 -5.5q15 0 15 -18q0 -22 -15.5 -35.5t-42.5 -19.5t-62 -6zM297 343q38 0 63 17t38 46.5t13 67.5q0 46 -12 77t-36 46.5t-62 15.5
q-22 0 -31.5 -17.5t-9.5 -74.5q-1 -23 -1 -58v-83q0 -20 10.5 -28.5t27.5 -8.5z" />
    <glyph glyph-name="S" unicode="S" horiz-adv-x="494" 
d="M219 -14q-43 0 -83 10t-75 32q-6 5 -12 11t-9 13q-10 27 -13.5 66t-2.5 79q0 7 6 10t14 3q10 0 13.5 -2.5t7.5 -9.5q22 -75 65.5 -121t101.5 -46q32 0 52.5 14.5t31.5 37t11 45.5q0 32 -12.5 54t-37.5 40t-64 39q-42 24 -81 50.5t-64 64.5t-25 95q0 59 30.5 102t83.5 67
t119 24q38 0 72.5 -8t55.5 -16q12 -5 17.5 -11t9.5 -21q5 -21 8.5 -51t3.5 -66q0 -13 -18 -13q-9 0 -16.5 4.5t-9.5 11.5q-17 60 -50 91t-81 31q-30 0 -51 -10t-31.5 -30t-10.5 -50q0 -24 16.5 -44.5t47.5 -41.5t71 -45q54 -32 86 -63t46.5 -65.5t14.5 -79.5
q0 -68 -29.5 -113t-83 -66.5t-125.5 -21.5z" />
    <glyph glyph-name="T" unicode="T" horiz-adv-x="695" 
d="M206 -3q-7 0 -15 3.5t-8 10.5q0 9 7 14t17 7q38 8 55.5 21t17.5 45v413q0 39 -2 57.5t-5.5 25t-8.5 8.5q-9 5 -23.5 5.5t-23.5 0.5h-22q-32 0 -60.5 -15.5t-45.5 -38.5q-5 -7 -14.5 -19.5t-20 -22t-20.5 -9.5q-8 0 -11 5.5t-3 12.5q0 12 6 25q19 38 28 65t12 62
q2 15 9 20.5t16 5.5q7 0 15 -13t17 -21q10 -8 33.5 -12t38.5 -4h376q25 0 42.5 5t26.5 10q16 9 25.5 20t22.5 11q6 0 8.5 -4.5t2.5 -12.5q0 -4 -0.5 -10t-1.5 -11q-5 -19 -10 -36.5t-8 -33.5t-3 -33v-20q0 -16 -3.5 -26t-13.5 -10q-9 0 -15 9.5t-13 30.5q-11 36 -32.5 53
t-65.5 17h-52q-17 0 -27.5 -7.5t-15.5 -30t-5 -68.5v-403q0 -30 16.5 -43.5t55.5 -23.5q10 -3 17 -7t7 -13q0 -7 -6 -11t-15 -4q-22 0 -49.5 1.5t-55 2.5t-47.5 1q-21 0 -47.5 -1t-53 -2.5t-49.5 -1.5z" />
    <glyph glyph-name="U" unicode="U" horiz-adv-x="745" 
d="M373 -14q-94 0 -157 33.5t-94.5 93.5t-31.5 140v285q0 28 -13 51t-38 29q-28 8 -28 22q0 7 7.5 11t18.5 4q32 0 66 -2.5t64 -2.5q28 0 67.5 2t67.5 2q12 0 19.5 -3.5t7.5 -11.5q0 -11 -15 -16t-32 -13q-15 -6 -26 -24.5t-11 -52.5v-262q0 -68 22 -112t58.5 -65t81.5 -21
q91 0 135.5 54t44.5 165q0 26 0.5 58.5t0.5 67t-1 65.5q-1 45 -6.5 70t-16.5 39t-30 23q-11 6 -25.5 10.5t-14.5 13.5q0 8 8 11t22 3q36 0 54.5 -1t41.5 -1q19 0 31.5 1t26 2t32.5 1q12 0 19 -3t7 -12q0 -13 -27 -21q-33 -9 -46.5 -30.5t-15.5 -57.5q-3 -76 -4 -139.5
t-1 -129.5q-1 -81 -36.5 -143.5t-96.5 -97.5t-136 -35z" />
    <glyph glyph-name="V" unicode="V" horiz-adv-x="706" 
d="M348 -17q-13 0 -20 16q-7 15 -17.5 40t-17.5 47l-197 464q-10 24 -26.5 42.5t-45.5 25.5q-10 4 -17 8t-7 14q0 7 6.5 10.5t14.5 3.5q20 0 46.5 -1t53.5 -2t46 -1q20 0 49 1.5t58 2t49 0.5q9 0 18 -3.5t9 -10.5q0 -8 -9 -13.5t-20 -7.5q-29 -7 -43 -15t-14 -25
q0 -7 2 -14.5t3 -13.5l129 -362q2 -6 4.5 -7t5.5 8l117 307q20 51 8 83t-56 38q-11 2 -21 7.5t-10 14.5q0 7 9.5 10t19.5 3q21 0 35 -0.5t27.5 -1t33.5 -0.5q29 0 55 2.5t55 2.5q11 0 20.5 -3t9.5 -13q0 -9 -8.5 -12.5t-18.5 -7.5q-32 -8 -51.5 -30.5t-37.5 -66.5l-152 -364
q-16 -37 -28.5 -65t-22.5 -51t-21 -44q-3 -9 -8 -12.5t-15 -3.5z" />
    <glyph glyph-name="W" unicode="W" horiz-adv-x="1020" 
d="M370 -17q-8 0 -12 8l-9 18l-252 545q-11 24 -25 40.5t-43 23.5q-10 4 -19.5 8t-9.5 14q0 7 9 10.5t17 3.5q30 0 67.5 -2t65.5 -2q30 0 61 2t61 2q13 0 21.5 -3.5t8.5 -10.5q0 -9 -8 -13.5t-24 -7.5q-16 -4 -19 -12t-3 -19q0 -6 2 -16t3 -13q20 -47 40 -92.5t39 -91
t39 -91t39 -93.5q5 -11 8 -12t9 11l55 104q3 6 4.5 10.5t1.5 8.5t-1.5 8.5l-3.5 10.5l-103 219q-10 25 -30 42.5t-50 24.5q-10 4 -16.5 8t-6.5 14q0 7 6 10.5t14 3.5q20 0 46 -1t51.5 -2t44.5 -1q29 0 59.5 2t60.5 2q15 0 24 -3.5t9 -10.5q0 -6 -5 -10.5t-13.5 -7.5
t-17.5 -7q-18 -4 -20.5 -14t1.5 -22q4 -9 9.5 -25.5t13 -35t14 -35.5t10.5 -27q7 -15 10.5 -12t7.5 12q7 14 16 36.5t17 44.5l12 33q5 8 5 19q0 15 -12.5 21.5t-24.5 12t-12 16.5q0 6 3.5 10t19.5 4q27 0 35.5 -1.5t22.5 -1.5q16 1 30 3t43 2q12 0 21 -3.5t9 -12.5
q0 -10 -8.5 -13.5t-18.5 -6.5q-31 -8 -45 -24t-26 -39q-10 -19 -22 -43t-23.5 -49t-22.5 -47q-5 -12 -4 -24.5t6 -25.5l77 -177q3 -9 6.5 -6.5t5.5 8.5q38 85 75 177t66 170q10 25 11.5 34.5t0.5 14.5q-1 11 -8 19t-20 11q-10 3 -20.5 8t-10.5 14q0 7 9 10t20 3
q30 0 42.5 -1.5t27.5 -0.5q16 1 33 3t45 2q14 0 24 -3t10 -13q0 -9 -10.5 -12.5t-20.5 -7.5q-21 -5 -35 -16t-23 -24.5t-16 -29.5l-233 -546q-3 -8 -8 -13t-12 -5q-8 0 -13.5 4.5t-10.5 14.5q-11 25 -27 58t-37 78.5t-49 107.5q-3 7 -7 6t-7 -7q-20 -40 -41 -80t-42 -80.5
t-42 -80.5q-4 -10 -8.5 -17t-13.5 -7z" />
    <glyph glyph-name="X" unicode="X" horiz-adv-x="750" 
d="M25 -7q-12 0 -21 3.5t-9 12.5q0 10 8.5 13.5t18.5 7.5q20 5 39.5 16t40.5 30t44 48l121 157q13 16 13.5 33t-13.5 36l-142 200q-12 17 -23.5 30.5t-26 23.5t-33.5 15q-10 3 -17 7t-7 14q0 8 6.5 11t14.5 3q45 0 93.5 -3t95.5 -3q32 0 63.5 3t63.5 3q9 0 18.5 -3.5
t9.5 -10.5q0 -8 -9.5 -13.5t-19.5 -7.5q-30 -7 -44.5 -15.5t-14.5 -24.5q0 -12 16 -35l95 -130q10 -13 17.5 -14t16.5 12l83 114q14 18 19 31.5t5 23.5q0 13 -10 22t-34 15q-10 3 -20 8t-10 14q0 7 9 10t22 3q20 0 33 -0.5t26 -1.5t32 -1q29 0 51 3.5t51 3.5q11 0 21.5 -3.5
t10.5 -12.5q0 -10 -9.5 -13.5t-20.5 -6.5q-22 -7 -47 -25.5t-44 -41.5l-137 -169q-11 -14 -12 -25t11 -28l167 -237q16 -22 34.5 -38.5t37.5 -22.5q11 -2 23.5 -8.5t12.5 -16.5q0 -7 -7 -10.5t-19 -3.5q-37 0 -70 1.5t-63.5 3.5t-62.5 1q-30 0 -59.5 -1.5t-59.5 -1.5
q-9 0 -18 4t-9 11q0 8 10 13.5t19 7.5q19 5 38 14t19 26q0 5 -2 11t-7 12l-109 154q-12 18 -21.5 20.5t-22.5 -17.5l-94 -135q-13 -19 -15.5 -32t-1.5 -19q2 -14 13.5 -23.5t32.5 -12.5q11 -2 20.5 -7.5t9.5 -14.5q0 -7 -8.5 -10t-20.5 -3q-29 0 -56.5 1t-45.5 1
q-30 0 -54.5 -3t-55.5 -3z" />
    <glyph glyph-name="Y" unicode="Y" horiz-adv-x="654" 
d="M193 -6q-13 0 -21 4.5t-8 11.5q0 9 9 14t21 7q38 8 53 27.5t15 51.5v138q0 35 -9.5 58t-21.5 43l-129 199q-8 14 -19 28t-25.5 25.5t-33.5 16.5q-10 4 -17 8t-7 14q0 7 6.5 10.5t14.5 3.5q42 0 80.5 -3t81.5 -3q33 0 62.5 3t62.5 3q9 0 18 -3.5t9 -10.5q0 -8 -9 -13.5
t-20 -7.5q-27 -7 -39 -14.5t-12 -23.5q0 -15 11 -35l103 -177q9 -18 18 -18q4 0 8.5 4.5t9.5 13.5q24 41 45.5 81.5t42.5 86.5q5 10 8.5 21t3.5 20q0 19 -17.5 29t-36.5 11q-10 2 -20.5 7.5t-10.5 14.5q0 7 9.5 10t19.5 3q29 0 52 -2t50 -2q26 0 50 3.5t52 3.5q11 0 20.5 -3
t9.5 -13q0 -9 -10 -13t-21 -8q-30 -7 -51 -25t-36 -43q-16 -26 -31.5 -50.5t-30 -48.5t-29.5 -48t-30 -50q-8 -14 -14.5 -29t-10 -31t-3.5 -37v-147q0 -37 15 -52.5t54 -26.5q12 -3 20.5 -7t8.5 -13q0 -7 -7.5 -11.5t-18.5 -4.5q-22 0 -49 2t-53.5 3.5t-46.5 1.5
q-21 0 -46 -1.5t-51 -4t-49 -2.5z" />
    <glyph glyph-name="Z" unicode="Z" horiz-adv-x="596" 
d="M521 -4q-11 0 -38 0.5t-63.5 1t-79 1.5t-82.5 1q-36 -1 -72.5 -1.5t-72.5 -1.5l-77 -2q-9 0 -12.5 13t-1.5 16q8 14 18 30t20.5 33t19.5 32q36 58 72 115.5t72 114t72 113.5t72 115q2 5 3.5 9t1.5 8t-3 7t-13 3h-37h-40h-37h-34q-41 0 -73.5 -22.5t-55.5 -62.5
q-6 -11 -16 -22.5t-25 -11.5q-8 0 -11 5t-3 12q0 6 2 13.5t5 13.5q11 24 16 43t8 39.5t5 47.5q2 15 6.5 21t15.5 6q8 0 22.5 -11t28.5 -16q18 -7 38.5 -8.5t47.5 -1.5h58h60q18 0 48 1t64.5 1.5t65.5 1.5t49 1q7 0 13 -10t3 -14l-68 -108q-34 -53 -67.5 -108.5t-66.5 -111
t-65.5 -109.5t-64.5 -104q-10 -16 -10 -26q0 -6 5 -9t17 -4q13 -1 36.5 -2t38.5 -1q42 0 73.5 3.5t57.5 13.5q50 19 81 97q4 7 8.5 10t11.5 3q13 0 13 -14q0 -12 -3.5 -29.5t-8.5 -38t-10.5 -40.5t-10.5 -37q-3 -9 -10 -14t-17 -5z" />
    <glyph glyph-name="bracketleft" unicode="[" horiz-adv-x="356" 
d="M150 -201q-16 0 -25 2.5t-12 12.5t-3 36v799q0 26 3 37t12 13t26 2l171 -1q8 0 15.5 -2.5t7.5 -13.5q0 -10 -13 -14.5t-22 -6.5l-80 -11q-10 -1 -14.5 -8t-4.5 -15l-1 -753q0 -8 4.5 -14.5t13.5 -8.5l77 -13q13 -1 24.5 -6t11.5 -14q0 -12 -6.5 -16t-14.5 -4z" />
    <glyph glyph-name="backslash" unicode="\" horiz-adv-x="406" 
d="M369 -62q-13 0 -26 3.5t-19 15.5l-310 689q-3 7 2.5 14t18.5 7q16 0 27.5 -4t17.5 -17l309 -689q3 -7 -3 -13t-17 -6z" />
    <glyph glyph-name="bracketright" unicode="]" horiz-adv-x="356" 
d="M206 -201q16 0 25 2.5t12 12.5t3 36v799q0 26 -3 37t-12 13t-26 2l-171 -1q-8 0 -15.5 -2.5t-7.5 -13.5q0 -10 13 -14.5t22 -6.5l80 -11q10 -1 14.5 -8t4.5 -15l1 -753q0 -8 -4.5 -14.5t-13.5 -8.5l-77 -13q-13 -1 -24.5 -6t-11.5 -14q0 -12 6.5 -16t14.5 -4z" />
    <glyph glyph-name="asciicircum" unicode="^" horiz-adv-x="514" 
d="M55 250q-9 0 -15.5 3.5t-6.5 11.5q0 4 2 8l217 335h7l220 -335q4 -8 -0.5 -15.5t-19.5 -7.5q-14 0 -26.5 10t-21.5 23l-150 220q-4 5 -6 4.5t-4 -4.5l-148 -220q-9 -14 -22 -23.5t-26 -9.5z" />
    <glyph glyph-name="underscore" unicode="_" horiz-adv-x="590" 
d="M567 -128q10 0 16.5 -4t6.5 -11q0 -12 -10 -28t-24 -16h-540q-6 0 -11 5t-5 9q0 6 3 17t9 19.5t16 8.5h539z" />
    <glyph glyph-name="grave" unicode="`" 
d="M195 453q10 0 10 12q0 4 -1 9.5t-4 11.5q-8 19 -20.5 48t-25 56.5t-19.5 42.5q-8 15 -18.5 20t-26.5 5q-24 0 -41.5 -6t-17.5 -18q0 -5 2 -11.5t8 -13.5q19 -21 40.5 -46t43 -49t43.5 -45q16 -16 27 -16z" />
    <glyph glyph-name="a" unicode="a" horiz-adv-x="438" 
d="M129 -14q-27 0 -50 13t-36.5 34t-13.5 46q0 34 21.5 57t63.5 41l89 39q20 9 24.5 16t4.5 26l1 57q1 28 -10 44.5t-33 16.5q-13 0 -26 -5.5t-20 -12.5q-3 -4 -4.5 -9.5t-1.5 -11.5t1 -14.5t1 -14.5t-16 -15.5t-37 -17t-36 -7.5q-7 0 -12.5 6t-5.5 15q0 16 11 31.5t36 35.5
q26 22 57 39t61.5 27t51.5 10q54 0 86 -34.5t30 -91.5l-5 -202q-1 -23 8 -39t22 -16q19 0 33 13q3 3 6 3q5 0 8.5 -3t3.5 -8q0 -12 -18 -31q-19 -18 -40 -27.5t-44 -9.5q-56 0 -93 57h-2q-33 -30 -59.5 -43.5t-56.5 -13.5zM189 51q11 0 18 3.5t14 11.5q3 4 5 10.5t2 15.5
l3 72q0 10 -3 13t-7 3q-2 0 -5 -1t-7 -3q-29 -14 -43 -28.5t-14 -46.5q0 -29 12 -39.5t25 -10.5z" />
    <glyph glyph-name="b" unicode="b" horiz-adv-x="542" 
d="M275 -14q-29 0 -53.5 5t-44.5 10q-15 5 -27.5 8t-20.5 3q-10 0 -19 -3.5t-17 -9.5q-9 -7 -14 -7q-9 0 -13.5 4t-4.5 9q0 9 5.5 35t4.5 65l-4 445q0 26 -7.5 46.5t-31.5 25.5q-5 1 -8.5 5t-3.5 11q0 5 3 9t8 5q22 4 51 13.5t56.5 20t42.5 15.5q10 4 14 4q6 0 8.5 -3.5
t2.5 -8.5q0 -6 -2.5 -25t-2.5 -38v-214q0 -13 2 -20.5t7 -7.5q31 21 64.5 32.5t63.5 11.5q52 0 94 -27t66.5 -74t24.5 -106q0 -70 -31 -124.5t-85.5 -84.5t-127.5 -30zM293 28q27 0 46 23.5t29.5 62.5t10.5 85q0 40 -10.5 81t-33 68.5t-57.5 27.5q-18 0 -42 -5.5t-39 -17.5
v-213q0 -32 13.5 -58t35.5 -40t47 -14z" />
    <glyph glyph-name="c" unicode="c" horiz-adv-x="411" 
d="M211 -14q-53 0 -95.5 28.5t-67 77t-24.5 109.5q0 65 30 117t80.5 83t112.5 31q82 0 136 -54q9 -10 9 -18q0 -6 -9 -17.5t-20 -20.5t-19 -9q-9 0 -17.5 5.5t-16.5 12.5q-26 22 -52.5 35.5t-45.5 13.5q-38 0 -57.5 -31.5t-19.5 -102.5q0 -49 15.5 -84.5t44.5 -54.5t70 -19
q30 0 52 9.5t46 29.5q5 3 8.5 6t8.5 3q12 0 12 -16q0 -4 -1.5 -11.5t-6.5 -16.5q-9 -20 -34.5 -45t-60.5 -43t-78 -18z" />
    <glyph glyph-name="d" unicode="d" horiz-adv-x="553" 
d="M358 -19q-3 0 -8.5 6.5t-5.5 10.5q2 15 3.5 28.5t1.5 24.5v6q-20 -31 -55.5 -51t-76.5 -20q-56 0 -99.5 28t-68.5 76t-25 105q0 68 30 121t84 83.5t125 30.5q15 0 31.5 -2.5t30.5 -6.5q14 -3 13 -3q4 0 4 13v119q0 36 -9 52t-30 20q-12 3 -12 15q0 13 11 15
q37 8 76.5 20.5t64.5 23.5q13 6 18 7.5t6 1.5q11 0 11 -12q0 3 -1 -7.5t-2 -27.5l-2 -34l-5 -504q0 -34 5 -49t18 -15q5 0 10.5 1t28.5 2q14 1 14 -10q0 -8 -6 -17t-11 -9q-36 -4 -75.5 -13t-76.5 -23q-6 -3 -10 -4.5t-7 -1.5zM268 54q15 0 37.5 8t36.5 23l-1 221
q0 18 -13.5 35.5t-34 29.5t-40.5 12q-24 0 -44.5 -19.5t-33 -55t-12.5 -86.5q0 -41 8.5 -72t23.5 -52.5t34 -32.5t39 -11z" />
    <glyph glyph-name="e" unicode="e" horiz-adv-x="417" 
d="M211 -14q-54 0 -96.5 28.5t-67 78t-24.5 112.5t29 114.5t79 82t110 30.5q43 0 77 -18.5t54.5 -49.5t20.5 -70q0 -38 -31 -38h-200q-14 0 -20.5 -8t-6.5 -27q0 -38 17 -69.5t46 -49.5t67 -18q29 0 53.5 11t48.5 30q4 3 7.5 5.5t6.5 2.5q10 0 10 -13q0 -11 -8 -30
q-10 -25 -33.5 -49.5t-58.5 -39.5t-80 -15zM162 298h60q28 0 39 1t20 4q5 2 8 10t3 18q0 27 -18.5 44t-45.5 17q-21 0 -39.5 -11.5t-30 -30t-10.5 -38.5q0 -14 14 -14z" />
    <glyph glyph-name="f" unicode="f" horiz-adv-x="360" 
d="M41 -3q-7 0 -13.5 3.5t-6.5 10.5q0 8 5 12.5t14 7.5q28 8 35 15.5t7 23.5v285q-10 0 -23 0.5t-29 1.5q-6 1 -10 11.5t-4 17.5q0 4 3 6.5t6 3.5q13 5 27 11t30 13q4 81 30 136t64.5 88t81.5 47.5t81 14.5q68 0 98.5 -19t30.5 -59q0 -23 -10 -36.5t-29 -13.5q-9 0 -18 8
t-19 20q-17 19 -40 36.5t-55 17.5q-41 0 -62.5 -34.5t-21.5 -110.5v-82q0 -8 5 -11t11 -3h113q8 0 12 -5t4 -11q0 -9 -2 -19t-6 -17q-5 -8 -8 -8h-92q-22 0 -29.5 -5t-7.5 -17v-250q0 -26 12 -36.5t53 -19.5q20 -3 20 -18q0 -6 -5 -11t-12 -5q-30 0 -67.5 2.5t-63.5 2.5
q-17 0 -34.5 -1t-36 -2.5t-38.5 -1.5z" />
    <glyph glyph-name="g" unicode="g" horiz-adv-x="500" 
d="M216 -289q-98 0 -152.5 30.5t-54.5 83.5q0 30 7 48.5t32 36.5q19 14 37 28t31 23l49 -17q-31 -18 -48.5 -39t-17.5 -49q0 -41 34.5 -68t86.5 -27q69 0 98 27q18 18 29 40.5t11 45.5q0 16 -11 26t-39.5 17t-79.5 12q-104 10 -148 39t-44 77q0 9 5.5 18.5t21.5 20.5
q16 12 29 21.5t22 18t12 15.5l50 -17q-20 -7 -32.5 -19t-12.5 -21q0 -11 13 -18t44 -11.5t85 -8.5q108 -9 157 -33.5t49 -71.5q0 -41 -23 -81.5t-61 -74t-84.5 -53t-94.5 -19.5zM229 140q32 0 50.5 35.5t18.5 93.5q0 37 -9.5 64.5t-25.5 43t-38 15.5q-19 0 -35 -16
t-25.5 -42.5t-9.5 -61.5q0 -37 10 -67t27 -47.5t37 -17.5zM218 96q-44 0 -86.5 21.5t-70 59.5t-27.5 85q0 50 28.5 89t75 60.5t98.5 21.5q31 0 58.5 -7t60.5 -12q19 -4 38 -6t42 -2q15 0 30 1.5t25 1.5q16 0 16 -22q0 -19 -13 -36q-6 -7 -13 -7h-27q-26 0 -35 -8
q-2 -2 -3 -4.5t-1.5 -11t-0.5 -31.5q0 -52 -27 -96t-71 -70.5t-97 -26.5z" />
    <glyph glyph-name="h" unicode="h" horiz-adv-x="559" 
d="M37 -3q-20 0 -20 14q0 13 23 20q15 5 26 11t12 28v480q0 27 -7 47t-32 25q-11 2 -11 15t10 15q23 5 52.5 14.5t57.5 20t43 15.5q8 3 13 3q6 0 8 -3.5t2 -8.5t-1.5 -14.5t-2.5 -23t-2 -31.5v-231q0 -10 1 -18t5 -11q15 13 36 28.5t48.5 27.5t61.5 12q53 0 89 -37.5
t36 -104.5v-218q0 -21 11 -28.5t25 -12.5q11 -3 16.5 -7.5t5.5 -12.5q0 -14 -22 -14q-24 0 -39 1.5t-28.5 2.5t-34.5 1q-22 0 -34 -1t-25 -2.5t-37 -1.5q-25 0 -25 15q0 8 6.5 12.5t14.5 6.5q13 5 24 13t11 30v197q0 22 -9 39.5t-23.5 28t-31.5 10.5q-15 0 -33 -5t-35 -17
q-8 -6 -10.5 -13.5t-2.5 -22.5v-219q0 -20 10 -27.5t23 -12.5q9 -3 15 -7.5t6 -12.5q0 -15 -18 -15q-20 0 -37.5 1.5t-33 2.5t-33.5 1q-17 0 -33.5 -1t-33.5 -2.5t-37 -1.5z" />
    <glyph glyph-name="i" unicode="i" horiz-adv-x="295" 
d="M147 493q-31 0 -54.5 23t-23.5 55q0 34 23.5 57t54.5 23q35 0 58 -23t23 -57q0 -32 -23 -55t-58 -23zM37 -3q-6 0 -11 3.5t-5 9.5q0 8 5 13t13 7q26 6 36.5 13.5t10.5 23.5v216q0 34 -10.5 48.5t-32.5 17.5q-6 1 -9 6t-3 12q0 15 11 17q52 10 92.5 28t62.5 28q16 8 20 8
q13 0 13 -12q-1 -17 -4.5 -42.5t-6 -52.5t-2.5 -52v-221q0 -14 10.5 -22t37.5 -16q8 -3 13 -7t5 -12q0 -13 -15 -13q-19 0 -40 1t-40.5 2t-37.5 1q-17 0 -35.5 -1t-38 -2.5t-39.5 -1.5z" />
    <glyph glyph-name="j" unicode="j" horiz-adv-x="266" 
d="M132 493q-31 0 -54.5 23t-23.5 55q0 34 23.5 57t54.5 23q35 0 58 -23t23 -57q0 -32 -23 -55t-58 -23zM4 -287q-19 0 -29.5 4t-10.5 12q0 7 5 12t14 9q16 7 30 18.5t27 37.5q10 22 16 53.5t9.5 67t4.5 68.5t1 57v231q0 34 -10.5 48t-33.5 18q-5 1 -8 6t-3 12q0 15 11 17
q51 10 92 28t62 28q8 4 13.5 6t7.5 2q12 0 12 -12q-2 -29 -7 -71.5t-5 -78.5l1 -195q0 -31 -2 -72.5t-10 -86t-26 -84.5q-14 -34 -41.5 -65t-59.5 -50.5t-60 -19.5z" />
    <glyph glyph-name="k" unicode="k" horiz-adv-x="546" 
d="M36 -3q-20 0 -20 14q0 8 6 12.5t17 7.5q15 5 26.5 11t11.5 28v480q0 28 -7 47.5t-32 24.5q-11 2 -11 15t10 15q25 5 54.5 14.5t56.5 20t42 15.5q8 3 13 3q6 0 8 -3.5t2 -8.5q0 -8 -2.5 -27t-3.5 -42l1 -374q0 -12 9 -12q3 0 7.5 2.5t8.5 5.5q37 32 66 65t39 48
q4 6 6.5 10t2.5 7q0 5 -8 10.5t-24 7.5q-12 2 -12 11t7.5 11.5t14.5 2.5h49q18 0 47 1.5t57 4.5t40 3q11 0 11 -11q0 -8 -6 -13.5t-17 -7.5q-17 -4 -40 -14t-46 -23q-17 -9 -36.5 -22.5t-38 -28.5t-33.5 -29q-5 -5 -5 -11q0 -3 2 -5.5t4 -5.5q24 -31 46 -61t44 -57.5
t45 -54.5q17 -18 41 -33t40 -21q8 -3 17.5 -7t9.5 -12q0 -14 -22 -14q-60 0 -117.5 1.5t-107.5 1.5q-20 0 -20 14q0 8 6 12t16 8q9 3 12.5 7t4.5 9q0 4 -3.5 9.5t-8.5 12.5l-97 134q-3 2 -5 2q-6 -1 -6 -7v-31v-31v-34.5v-35.5t7.5 -24.5t22.5 -12.5q8 -3 14.5 -7.5
t6.5 -12.5q0 -7 -5.5 -11t-12.5 -4q-20 0 -36.5 1.5t-31.5 2.5t-33 1q-17 0 -33.5 -1t-33.5 -2.5t-37 -1.5z" />
    <glyph glyph-name="l" unicode="l" horiz-adv-x="285" 
d="M36 -3q-9 0 -14.5 3.5t-5.5 10.5q0 8 6 12.5t17 7.5q15 5 26.5 11t11.5 27v481q0 27 -7.5 47t-32.5 25q-10 2 -10 15t9 15q26 5 56 14.5t57 20t42 15.5q8 3 13 3q6 0 8 -3.5t2 -8.5q0 -7 -2.5 -26t-3.5 -43v-553q0 -22 11.5 -27.5t26.5 -10.5q11 -4 17 -8t6 -12
q0 -7 -5.5 -10.5t-14.5 -3.5q-19 0 -37.5 1t-36 1.5t-35.5 0.5q-17 0 -33.5 -1t-33.5 -2.5t-37 -1.5z" />
    <glyph glyph-name="m" unicode="m" horiz-adv-x="807" 
d="M41 -3q-7 0 -13.5 3.5t-6.5 10.5q0 8 7 12.5t16 7.5q15 5 26.5 11.5t11.5 26.5v229q0 22 -6 37.5t-25 18.5q-4 1 -7.5 5t-3.5 13q0 14 10 17q25 6 52.5 14.5t53 18t44.5 20.5q3 1 6 3t6 2q9 0 9 -11q0 -8 -2.5 -27t-2.5 -33q0 -10 2 -12h2q31 30 67 49t82 19
q31 0 57 -21.5t39 -55.5h4q30 36 67.5 56.5t84.5 20.5q31 0 56 -17.5t40 -49.5t15 -76v-220q0 -20 11.5 -26.5t26.5 -11.5q8 -3 14 -7.5t6 -12.5q0 -7 -5 -10.5t-12 -3.5q-20 0 -37.5 1.5t-34 2.5t-34.5 1q-17 0 -32 -1t-30 -2.5t-35 -1.5q-7 0 -12 3.5t-5 10.5q0 8 5.5 13
t14.5 7q13 4 20 10.5t7 21.5v205q0 25 -7 43t-19.5 28.5t-28.5 10.5q-13 0 -28.5 -5.5t-30.5 -18.5q-14 -12 -14 -42v-215q0 -20 8 -26.5t23 -11.5q8 -2 14 -7t6 -13q0 -7 -5.5 -10.5t-11.5 -3.5q-20 0 -36 1.5t-30.5 2.5t-32.5 1q-17 0 -31.5 -1t-30 -2.5t-35.5 -1.5
q-6 0 -11 3.5t-5 10.5q0 8 5.5 12.5t13.5 7.5q14 5 21 11t7 21v205q0 25 -7 42.5t-19 28t-29 10.5q-12 0 -27.5 -5t-32.5 -17q-13 -9 -13 -39v-219q0 -18 6.5 -25.5t21.5 -12.5q8 -3 13.5 -7.5t5.5 -12.5q0 -6 -5 -10t-11 -4q-20 0 -35.5 1.5t-30 2.5t-32.5 1
q-17 0 -33.5 -1t-34 -2.5t-37.5 -1.5z" />
    <glyph glyph-name="n" unicode="n" horiz-adv-x="566" 
d="M41 -3q-7 0 -13.5 3.5t-6.5 10.5q0 8 7 12.5t16 7.5q15 5 26.5 11.5t11.5 26.5v229q0 22 -6.5 37t-24.5 19q-4 1 -7.5 5t-3.5 13q0 14 10 17q34 8 74.5 21.5t69.5 28.5q4 2 9 5t9 3q6 0 7.5 -3.5t1.5 -8.5q0 -8 -2.5 -25.5t-2.5 -31.5q0 -4 0.5 -9t1.5 -6q34 33 69 51
t81 18q52 0 87.5 -38.5t35.5 -104.5v-220q0 -20 11.5 -26.5t26.5 -11.5q8 -3 14 -7.5t6 -12.5q0 -7 -5.5 -10.5t-11.5 -3.5q-20 0 -37.5 1.5t-34 2.5t-34.5 1q-17 0 -34 -1t-34 -2.5t-37 -1.5q-6 0 -11.5 3.5t-5.5 10.5q0 8 6 12.5t14 7.5q15 5 25 11.5t10 26.5v199
q0 38 -17.5 59.5t-46.5 22.5q-22 0 -39 -7t-35 -19q-4 -4 -6 -9t-2 -10v-236q0 -20 11 -26.5t25 -11.5q20 -6 20 -20q0 -6 -5 -10t-12 -4q-20 0 -37 1.5t-32 2.5t-33 1q-17 0 -34.5 -1t-36 -2.5t-38.5 -1.5z" />
    <glyph glyph-name="o" unicode="o" horiz-adv-x="503" 
d="M237 -14q-60 0 -108 27t-76.5 74.5t-28.5 107.5q0 48 18 91t50 76t75 52t92 19q62 0 112 -29t79.5 -76.5t29.5 -103.5q0 -64 -27.5 -118.5t-81 -87t-134.5 -32.5zM257 30q21 0 36.5 8.5t25.5 25.5q12 20 16.5 54.5t4.5 81.5q0 54 -12 96.5t-33.5 67.5t-50.5 25
q-16 0 -29 -5.5t-23 -15.5q-17 -20 -23.5 -57t-6.5 -91q0 -48 12.5 -91.5t34 -71t48.5 -27.5z" />
    <glyph glyph-name="p" unicode="p" horiz-adv-x="551" 
d="M36 -262q-7 0 -13.5 3.5t-6.5 10.5q0 8 6.5 12.5t16.5 7.5q21 7 29.5 14.5t8.5 23.5v479q0 13 -5 25t-14 21.5t-23 11.5q-6 2 -9 5.5t-3 12.5q0 8 3 12t8 5q35 8 75 21t69 27q4 2 8.5 4.5t8.5 2.5q6 0 7.5 -3.5t1.5 -8.5q0 -8 -2.5 -26.5t-2.5 -31.5q0 -10 2 -12
q10 10 35.5 27t58.5 30t64 13q54 0 91.5 -28.5t57.5 -73t20 -93.5q0 -47 -17.5 -91t-49.5 -79.5t-74 -56.5t-90 -21q-11 0 -26.5 3t-31 8t-28.5 10q-1 0 -2 -3t-1.5 -7t-0.5 -8v-166q0 -13 6.5 -22t18.5 -14.5t29 -10.5q10 -3 16 -7.5t6 -12.5q0 -6 -5.5 -10t-11.5 -4
q-30 0 -62.5 2.5t-58.5 2.5q-17 0 -34.5 -1t-36 -2.5t-38.5 -1.5zM294 28q11 0 26.5 8.5t31 27.5t26 51t10.5 79q0 55 -11 87.5t-27 48.5t-32.5 21.5t-28.5 5.5q-18 0 -37 -8t-31 -19t-12 -20v-31t-0.5 -51t-1 -51t-0.5 -32q0 -23 10.5 -50.5t30 -47t46.5 -19.5z" />
    <glyph glyph-name="q" unicode="q" horiz-adv-x="536" 
d="M289 -287q-6 0 -11.5 4t-5.5 10q0 8 6.5 12.5t16.5 7.5q25 7 37.5 16.5t12.5 31.5l1 220q0 12 -2.5 17.5t-4.5 5.5q-2 -1 -4.5 -1.5t-4.5 -2.5q-13 -9 -33 -20.5t-42.5 -19.5t-42.5 -8q-54 0 -96.5 27.5t-67.5 74t-25 105.5q0 63 27.5 117.5t82.5 88.5t138 34q34 0 62 -6
t48.5 -12.5t32.5 -6.5q10 0 19 4.5t17 11.5q4 2 7.5 4t6.5 2q9 0 14 -4t5 -8q0 -10 -5.5 -37t-5.5 -71l1 -524q0 -17 9.5 -24.5t30.5 -13.5q10 -3 16.5 -8t6.5 -13q0 -7 -6 -10.5t-14 -3.5q-30 0 -56.5 2.5t-52.5 2.5q-17 0 -37 -1t-40.5 -2.5t-40.5 -1.5zM268 53
q21 0 43 6.5t35 21.5v43v57.5v57v41.5q0 48 -28 79t-65 31q-26 0 -46 -23t-31.5 -61.5t-11.5 -85.5q0 -34 7 -64t20.5 -53.5t32.5 -36.5t44 -13z" />
    <glyph glyph-name="r" unicode="r" horiz-adv-x="414" 
d="M42 -3q-8 0 -14 3.5t-6 10.5q0 8 6 12.5t17 7.5q22 7 29.5 15t7.5 23v230q0 21 -5.5 34.5t-24.5 18.5q-5 2 -9 5.5t-4 12.5q0 14 12 17q32 8 70.5 21t65.5 26q5 4 12.5 7.5t10.5 3.5q9 0 9 -11q0 -5 -0.5 -20.5t-1 -31.5t-1.5 -27q0 -9 4 -9q15 21 35.5 41t44.5 33t47 13
q35 0 49.5 -13t14.5 -34q0 -15 -8.5 -33t-21.5 -31t-28 -13q-9 0 -19 4.5t-20 9.5q-10 4 -19.5 8.5t-17.5 4.5q-26 0 -45 -19t-19 -76v-163q0 -20 12.5 -29.5t40.5 -17.5q11 -3 16.5 -7.5t5.5 -12.5q0 -14 -17 -14q-30 0 -62 2.5t-58 2.5q-17 0 -34.5 -1t-36 -2.5
t-38.5 -1.5z" />
    <glyph glyph-name="s" unicode="s" horiz-adv-x="360" 
d="M165 -14q-33 0 -64 8t-56 26q-9 15 -13 47t-3 67q0 12 20 12q8 0 14 -5t7 -10q19 -42 44 -71.5t60 -29.5q27 0 41 16.5t14 37.5q0 26 -20.5 43.5t-49.5 32.5t-55 34t-42.5 45.5t-16.5 63.5q0 39 21.5 68t58 45.5t81.5 16.5q33 0 61 -7.5t38 -14.5q8 -10 13 -37.5t5 -60.5
q0 -11 -18 -11q-7 0 -14.5 5t-9.5 10q-13 39 -33.5 58.5t-45.5 19.5q-22 0 -40 -14t-18 -38q0 -21 19.5 -37.5t48.5 -32.5q65 -34 93 -65.5t28 -83.5q0 -65 -42.5 -101.5t-125.5 -36.5z" />
    <glyph glyph-name="t" unicode="t" horiz-adv-x="375" 
d="M219 -14q-66 0 -99 33.5t-33 94.5v230q0 9 -6.5 13t-24.5 5h-13q-7 0 -11.5 11.5t-4.5 20.5q0 2 1.5 5.5t4.5 4.5q24 9 51.5 27.5t53 39.5t41.5 35q7 5 12 9t13 4q9 0 13 -3.5t2 -16.5l-6 -59q-1 -12 5.5 -16.5t18.5 -4.5h119q3 0 6 -7t3 -13q0 -14 -4 -27t-9 -13h-93
q-23 0 -31.5 -5.5t-8.5 -19.5v-189q0 -46 17.5 -68.5t46.5 -22.5t42.5 6t24.5 10q4 2 6 2q5 0 8 -6t3 -14q0 -6 -21 -22t-54.5 -30t-72.5 -14z" />
    <glyph glyph-name="u" unicode="u" horiz-adv-x="551" 
d="M346 -21q-8 0 -8 10q0 12 2.5 32t2.5 31q0 4 -0.5 7t-1.5 4q-27 -33 -69 -55.5t-89 -22.5q-31 0 -56 18.5t-39.5 50.5t-14.5 72v187q0 23 -8.5 37t-31.5 19q-6 1 -10.5 5.5t-4.5 13.5q0 7 4 11.5t11 5.5q42 2 76 8.5t69 15.5q5 1 10.5 2.5t10.5 1.5q14 0 13 -14
q-4 -23 -6 -38.5t-2 -38.5v-192q0 -24 8 -42t22 -28t31 -11q16 0 31.5 4t29.5 18q6 5 13 20.5t7 41.5v161q0 18 -7 29.5t-19 18.5t-28 8q-11 1 -17.5 5.5t-6.5 16.5q0 10 7 15t17 5q51 3 81 5.5t49 5.5t38 7q3 1 7 2t6 1q15 0 15 -12q0 -3 -1 -7t-3 -8q-1 -4 -2.5 -17.5
t-3 -28.5t-1.5 -24v-232q0 -23 5.5 -30.5t12.5 -7.5q5 0 15 -0.5t13 -0.5q9 0 14 -5t5 -13q0 -9 -3.5 -14.5t-13.5 -6.5q-48 -4 -86.5 -16.5t-66.5 -23.5q-6 -2 -13 -4.5t-13 -2.5z" />
    <glyph glyph-name="v" unicode="v" horiz-adv-x="483" 
d="M240 -21q-6 0 -12.5 13t-14.5 31t-17 40.5t-17 40.5q-25 59 -52 115t-53 114q-9 22 -21 37.5t-30 21.5q-10 4 -14 8.5t-4 12.5t8.5 10t15.5 2q24 0 37.5 -1.5t26.5 -3t35 -1.5q21 0 37.5 1.5t34 3t40.5 1.5q7 0 15.5 -3t8.5 -10q0 -9 -7 -12t-16 -7q-10 -4 -16.5 -15
t-6.5 -28v-16.5t4 -15.5l67 -165h1.5h1.5l59 158q4 9 5 17t1 15q0 18 -7.5 30.5t-24.5 18.5q-9 3 -15.5 6.5t-6.5 12.5q0 7 8 10t15 3q27 -1 40.5 -2t28.5 -1t29 1t40 2q7 0 15.5 -2t8.5 -10q0 -14 -19 -21q-18 -6 -33.5 -22.5t-25.5 -39.5l-78 -196q-2 -7 -6.5 -17
t-9 -20.5t-8.5 -19.5t-8 -16q-3 -7 -10 -23l-14 -32t-13 -26h-23z" />
    <glyph glyph-name="w" unicode="w" horiz-adv-x="752" 
d="M236 -30q-5 0 -9.5 2t-6.5 8l-145 353q-9 23 -21 37.5t-30 21.5q-10 4 -14.5 8.5t-4.5 12.5t8.5 10t15.5 2q23 0 37 -1.5t27 -3t34 -1.5q20 0 34.5 1.5t29.5 3t38 1.5q6 0 14.5 -3t8.5 -10q0 -9 -7 -12t-15 -7q-11 -4 -16 -13t-5 -26q0 -18 6 -36l59 -156q0 -2 2 -2
q3 0 3 2l66 157q3 6 4.5 13.5t1.5 15.5q0 11 -11 23.5t-28 19.5q-10 4 -14.5 8.5t-4.5 12.5t9 10t18 2q24 0 48 -2t40 -2q26 0 48.5 2t50.5 2q7 0 15.5 -3t8.5 -10q0 -9 -7.5 -12t-15.5 -7q-11 -4 -18 -11t-7 -22q0 -12 3 -22.5t6 -18.5l59 -156q1 -3 4 -3q2 0 3 2l55 144
q4 10 6 21t1 20q0 16 -8 27.5t-21 16.5q-8 3 -15 6.5t-7 12.5q0 8 8 10.5t15 2.5q29 -1 41.5 -1.5t27.5 -0.5h17.5t18.5 0.5t29 1.5q7 0 15.5 -2t8.5 -9q0 -9 -4.5 -13.5t-14.5 -8.5q-18 -6 -33 -22t-24 -39l-141 -348q-4 -9 -17 -9q-10 0 -15 9l-125 287q-1 2 -3 2t-3 -3
l-117 -286q-5 -10 -17 -10z" />
    <glyph glyph-name="x" unicode="x" horiz-adv-x="505" 
d="M30 -4q-7 0 -15.5 2t-8.5 9q0 9 4.5 13.5t14.5 8.5q11 4 22.5 14t31.5 36l92 126q6 8 6 13t-5 13l-75 111q-13 20 -23 32t-26 18q-10 3 -14.5 7.5t-4.5 13.5q0 8 9 10t15 2q25 0 38 -1.5t26.5 -3t35.5 -1.5q29 0 48.5 2.5t52.5 2.5q6 0 15 -2.5t9 -10.5t-7.5 -11
t-15.5 -7q-10 -4 -19 -9t-9 -15q0 -6 4 -14t9 -17l46 -67q5 -9 9 0l31 53q5 10 9.5 22t3.5 22q0 16 -18 23q-8 4 -14.5 7t-6.5 12q0 8 9 10.5t15 2.5q25 -1 38.5 -1.5t26.5 -0.5q15 0 26.5 1.5t37.5 2.5q7 0 15.5 -2t8.5 -10t-4.5 -12.5t-14.5 -8.5q-11 -4 -23.5 -14
t-31.5 -35l-72 -96q-6 -9 -5.5 -14t5.5 -12l84 -132q13 -21 30 -36t35 -22q10 -3 14.5 -7.5t4.5 -13.5q0 -8 -8.5 -10t-15.5 -2q-24 0 -41.5 1.5t-34.5 3t-39 1.5q-30 0 -54.5 -2.5t-58.5 -2.5q-24 0 -24 13q0 9 6.5 12.5t16.5 6.5q13 4 21 12t8 26q0 10 -2 17.5t-10 18.5
l-51 75q-3 3 -6 0l-47 -83l-8.5 -17t-5.5 -22q0 -10 4.5 -17.5t13.5 -12.5q8 -3 15 -6.5t7 -11.5t-8.5 -10.5t-15.5 -2.5q-26 0 -37 1t-24 1q-15 0 -29.5 -0.5t-40.5 -2.5z" />
    <glyph glyph-name="y" unicode="y" horiz-adv-x="481" 
d="M85 -283q-26 0 -50 18t-24 45q0 19 10 37.5t31 18.5q16 0 32.5 -5.5t31.5 -4.5q15 2 21 7.5t14 20.5q7 12 13.5 23.5t15 29t21.5 45.5q12 27 12 48q0 15 -4.5 27.5t-9.5 24.5l-123 279q-9 23 -20 38t-30 21q-9 4 -14 8.5t-5 13.5q0 7 9 9t16 2q24 0 40.5 -1t29.5 -2
t26 -1q22 0 37 1t32 2t40 1q7 0 15 -3t8 -10q0 -9 -7.5 -12.5t-15.5 -7.5q-11 -4 -17 -12t-6 -26q0 -8 2.5 -19t8.5 -27l62 -151q1 -3 3 -3q1 0 3 3l51 153q3 8 5.5 19.5t2.5 20.5q0 17 -10 27.5t-21 14.5q-8 3 -15.5 7t-7.5 13q0 7 8 10t15 3q27 -1 42 -2.5t31 -1.5
q10 0 18.5 0.5t20.5 1.5t29 2q7 0 15.5 -2t8.5 -9q0 -9 -4.5 -13.5t-13.5 -8.5q-19 -6 -34 -22.5t-25 -39.5l-149 -358q-8 -20 -18 -43.5t-20.5 -48.5t-21.5 -51t-22 -51q-12 -29 -37 -44t-56 -15z" />
    <glyph glyph-name="z" unicode="z" horiz-adv-x="437" 
d="M44 -5q-4 0 -13.5 9.5t-9.5 18.5q0 6 7.5 18t17.5 25.5t16 23.5q24 38 43.5 67.5t38 58t39.5 63t50 81.5q2 4 2 8t-12 4l-55 1q-14 0 -24.5 -4t-20.5 -15q-4 -4 -13.5 -16.5t-19.5 -27.5t-18.5 -27t-12.5 -16q-6 -7 -19 -3t-12 13q3 11 9 35.5t11 52t5 46.5
q0 11 7.5 18.5t15.5 7.5t19 -10q5 -4 18.5 -5.5t29.5 -1.5q11 0 22.5 0.5t18.5 0.5q48 0 104 1t106 3q8 0 13 -7.5t7 -16.5t-2 -15q-12 -13 -21 -25.5t-21 -28.5l-166 -268q-4 -7 -1.5 -11t15.5 -4h63q14 0 26 5t24 18q16 17 26 33.5t28 48.5q7 12 21 9t14 -15q0 -6 -3 -22
t-8 -36t-10.5 -41t-11.5 -38q-4 -16 -19 -16q-24 0 -85 3t-151 3q-23 0 -48.5 -3t-39.5 -3z" />
    <glyph glyph-name="braceleft" unicode="{" horiz-adv-x="373" 
d="M335 -152q-56 1 -104.5 14t-76.5 42.5t-25 76.5q3 40 13 87t10 89q0 27 -6 45t-22.5 31.5t-47.5 24.5q-11 5 -20.5 8t-9.5 14t10.5 16t19.5 9q20 9 36.5 19t26 29t9.5 53q0 42 -9 79.5t-12 77.5q-3 47 26.5 81t78 52t102.5 18q15 0 21 -3.5t6 -13.5t-12.5 -14t-24.5 -8
q-33 -9 -48.5 -20.5t-19.5 -29t-4 -45.5q0 -20 5.5 -48.5t11 -57.5t5.5 -52q0 -34 -22 -63t-55 -48.5t-67 -27.5q-4 -1 -2 -2l4 -2q33 -11 60 -26t46 -33.5t29 -40t10 -46.5q0 -22 -6 -51.5t-12 -57.5t-6 -48q0 -33 6 -51.5t22 -27.5t46 -14q11 -2 22 -6t11 -14
q0 -9 -7.5 -12t-17.5 -3z" />
    <glyph glyph-name="bar" unicode="|" horiz-adv-x="276" 
d="M105 -289q-8 0 -14.5 8t-6.5 17v914q0 14 10.5 24.5t26 17.5t29 10t17.5 3q9 0 17 -6.5t8 -16.5v-927q0 -15 -11 -23.5t-26.5 -13t-29 -6t-20.5 -1.5z" />
    <glyph glyph-name="braceright" unicode="}" horiz-adv-x="373" 
d="M38 -152q56 1 104.5 14t76.5 42.5t25 76.5q-3 40 -13 87t-10 89q0 27 6 45t22.5 31.5t47.5 24.5q11 5 20.5 8t9.5 14t-10.5 16t-19.5 9q-20 9 -36.5 19t-26 29t-9.5 53q0 42 9 79.5t12 77.5q3 47 -26.5 81t-78 52t-102.5 18q-15 0 -21 -3.5t-6 -13.5t12.5 -14t24.5 -8
q33 -9 48.5 -20.5t19.5 -29t4 -45.5q0 -20 -5.5 -48.5t-11 -57.5t-5.5 -52q0 -34 22 -63t55 -48.5t67 -27.5q4 -1 2 -2l-4 -2q-33 -11 -60 -26t-46 -33.5t-29 -40t-10 -46.5q0 -22 6 -51.5t12 -57.5t6 -48q0 -33 -6 -51.5t-22 -27.5t-46 -14q-11 -2 -22 -6t-11 -14
q0 -9 7.5 -12t17.5 -3z" />
    <glyph glyph-name="asciitilde" unicode="~" horiz-adv-x="545" 
d="M365 249q-23 0 -46 9.5t-46 21.5q-25 12 -51 22.5t-54 10.5q-26 0 -50 -14t-39.5 -28.5t-18.5 -14.5q-7 0 -14.5 12.5t-7.5 17.5q0 13 11.5 33.5t31 41t44 34t50.5 13.5q24 0 48 -9.5t48 -21.5q26 -13 52.5 -23.5t52.5 -10.5q20 0 38.5 9t33.5 20.5t25 20.5t12 9
q10 0 16 -10.5t6 -20.5q0 -14 -12.5 -34.5t-33 -40.5t-46 -33.5t-50.5 -13.5z" />
    <glyph glyph-name="uni007F" 
 />
    <glyph glyph-name="uni00A0" unicode="&#xa0;" 
 />
    <glyph glyph-name="exclamdown" unicode="&#xa1;" horiz-adv-x="290" 
d="M143 302q-12 0 -19 -11.5t-12 -38.5q-8 -56 -15.5 -103.5t-12.5 -89t-8 -76.5t-4 -65q0 -33 21.5 -60t53.5 -27q33 0 52.5 25.5t19.5 59.5q0 30 -4.5 66t-11 77.5t-15 89.5t-16.5 103q-3 21 -10 35.5t-19 14.5zM141 494q-30 0 -51 -21t-21 -51t21 -51.5t51 -21.5
t51.5 21.5t21.5 51.5t-21.5 51t-51.5 21z" />
    <glyph glyph-name="cent" unicode="&#xa2;" horiz-adv-x="434" 
d="M205 -88q-8 0 -14.5 5t-5.5 14l7 74q-45 8 -83.5 35.5t-61.5 73t-23 104.5q0 58 27 108t75 83t110 39l7 62q1 10 9.5 15.5t18.5 5.5q7 0 12 -7t4 -14l-7 -62q33 -3 66.5 -16.5t58.5 -39.5q9 -8 9 -17q0 -22 -18 -36.5t-39 -13.5q-21 0 -33 15q-14 18 -25.5 29.5
t-23.5 17.5l-28 -266q7 -1 13.5 -1.5t12.5 -0.5q37 0 69 13t46 37q5 9 14 9q13 0 13 -15q0 -4 -1.5 -10.5t-3.5 -12.5q-21 -56 -62 -94.5t-113 -43.5l-6 -71q-2 -9 -9 -14t-15 -5zM205 134l27 263h-1q-34 0 -55 -17.5t-31 -47.5t-10 -68q0 -50 19 -82t51 -48z" />
    <glyph glyph-name="sterling" unicode="&#xa3;" horiz-adv-x="568" 
d="M53 294q-6 -1 -12.5 4t-6.5 12q0 8 9.5 17.5t22.5 10.5l362 24q8 1 12.5 -5t4.5 -11q0 -6 -13 -16.5t-28 -11.5zM348 -37q-46 0 -80 21t-63 43q-12 9 -28 18.5t-29 16t-18 6.5q-4 0 -14 -10.5t-21 -25t-19 -27.5q-22 -31 -51 -31q-13 1 -23 12.5t-10 34.5t14 45.5
t38.5 38.5t56.5 20q8 1 11.5 5.5t6.5 10.5q9 24 13.5 62.5t8 82t5.5 80.5q4 45 19.5 91t45 85t77.5 63t117 24q60 0 90 -28t30 -67q0 -21 -12.5 -38t-29.5 -27t-32 -10q-9 0 -14.5 6.5t-5.5 13.5t1.5 16t1.5 21q0 29 -10.5 51t-32.5 22q-24 0 -42 -23t-31 -75t-24 -137
q-5 -45 -17 -86.5t-31 -73t-47 -48.5q-3 -1 -2 -6.5t5 -5.5q48 0 86 -12t68 -28q31 -14 55.5 -25.5t45.5 -11.5q19 0 28 8.5t9 27.5q0 13 -5 30t-9.5 33t-4.5 26q0 11 7 18.5t21 7.5q26 0 39 -19t13 -47q0 -32 -17 -63.5t-46.5 -57.5t-66.5 -42t-77 -16z" />
    <glyph glyph-name="currency" unicode="&#xa4;" horiz-adv-x="509" 
d="M65 45q-12 0 -24.5 12.5t-12.5 23.5q0 5 4 9l57 57q-18 25 -28 55.5t-10 63.5q0 35 10.5 65.5t28.5 56.5l-58 58q-4 3 -4 8q0 11 12.5 24t24.5 13q6 0 9 -4l58 -56q26 20 58.5 32t69.5 12q34 0 65 -10.5t57 -29.5l53 52q4 4 9 4q12 0 24.5 -12.5t12.5 -24.5q0 -5 -3 -9
l-53 -53q20 -26 31 -58t11 -68q0 -35 -10.5 -66.5t-29.5 -57.5l52 -51q3 -4 3 -9q0 -12 -13 -24.5t-25 -12.5q-5 0 -9 4l-51 50q-54 -41 -124 -41q-37 0 -70 11.5t-61 33.5l-55 -54q-3 -4 -9 -4zM259 117q42 0 75.5 20t53.5 54t20 75q0 42 -20 76t-53.5 54t-75.5 20
q-41 0 -75 -20t-54 -54t-20 -76q0 -41 20 -75t54 -54t75 -20z" />
    <glyph glyph-name="yen" unicode="&#xa5;" horiz-adv-x="653" 
d="M193 -6q-13 0 -21 4.5t-8 11.5q0 9 9 14t21 7q38 8 53 27.5t15 51.5l1 74h-113q-7 0 -13 5t-5 12q0 8 10 20t23 12l98 -1v16q0 8 -0.5 14t-1.5 12h-111q-7 0 -13 5.5t-5 11.5q0 9 10 20.5t23 11.5h82l-145 225q-9 14 -20 28.5t-25 26t-33 15.5q-10 4 -17 8t-7 14
q0 7 6.5 10.5t14.5 3.5q42 0 80.5 -3t81.5 -3q33 0 62.5 3t62.5 3q9 0 18 -3.5t9 -10.5q0 -8 -9 -13.5t-20 -7.5q-26 -7 -38 -15t-12 -24q0 -7 2.5 -16t7.5 -18l91 -175q10 -17 18 -17q5 0 9 4.5t9 12.5q10 18 21 38t23.5 41.5t24 43.5t23.5 44q10 18 10 37q0 20 -16 30.5
t-36 12.5q-10 2 -20 7.5t-10 14.5q0 7 9 10t20 3q28 0 52 -2t51 -2q30 0 54.5 3.5t51.5 3.5q12 0 21 -3t9 -13q0 -9 -8.5 -12.5t-18.5 -7.5q-20 -4 -37 -15t-30 -25t-22 -29q-16 -26 -32 -52.5t-32 -52t-30.5 -49.5t-27.5 -45l-7.5 -15t-6.5 -15h100q7 0 12 -6t4 -11
q-1 -7 -14.5 -19.5t-28.5 -12.5h-86v-41l112 -1q8 0 13 -5.5t4 -11.5q-1 -7 -14.5 -19t-28.5 -12h-86v-73q0 -37 15 -52.5t54 -26.5q12 -3 20.5 -7t8.5 -13q0 -7 -7.5 -11.5t-18.5 -4.5q-22 0 -49 2t-53.5 3.5t-46.5 1.5q-21 0 -46 -1.5t-51 -4t-49 -2.5z" />
    <glyph glyph-name="brokenbar" unicode="&#xa6;" horiz-adv-x="277" 
d="M107 -290q-9 0 -15.5 8t-6.5 17v395q0 14 11 24t26.5 16.5t29 10t16.5 3.5q10 0 18 -7.5t8 -17.5v-405q0 -15 -11 -23.5t-26.5 -13t-29.5 -6t-20 -1.5zM105 255q-8 0 -14.5 9t-6.5 19v366q0 15 10.5 25.5t26 17.5t29 10t17.5 3q9 0 17 -7t8 -17v-382q0 -14 -11 -22.5
t-26.5 -13t-29 -6.5t-20.5 -2z" />
    <glyph glyph-name="section" unicode="&#xa7;" horiz-adv-x="443" 
d="M144 -148q-36 0 -58.5 11.5t-22.5 28.5q0 8 6.5 28.5t28.5 36.5q7 4 16 0.5t13 -7.5q17 -15 42 -23t47 -8q25 0 38 18.5t13 50.5q0 26 -20 52.5t-51 54t-61 54.5q-53 47 -79.5 91.5t-26.5 88.5q0 45 11.5 76t30 54t39.5 43q10 38 33.5 69.5t56.5 50t71 18.5q25 0 55 -8
t40 -18q6 -5 11 -10.5t5 -13.5q0 -3 -7.5 -19t-18.5 -30.5t-24 -14.5q-8 0 -16 7q-18 19 -41.5 32t-37.5 13q-32 0 -45 -17.5t-13 -40.5q0 -18 16.5 -41.5t45 -50t59.5 -54.5q33 -28 57.5 -59t38 -70.5t13.5 -92.5q0 -65 -23 -120.5t-66.5 -97.5t-106.5 -69
q-15 -7 -33.5 -10t-35.5 -3zM326 63q1 -4 4.5 -3.5t4.5 3.5q5 16 6 32t1 32q0 43 -27 85t-68 80q-18 19 -42.5 45t-45 52.5t-28.5 44.5q-1 4 -4 3t-5 -3q-9 -12 -12 -29t-3 -35q0 -39 25.5 -80.5t66.5 -79.5q19 -19 46 -46.5t50 -54.5t31 -46z" />
    <glyph glyph-name="dieresis" unicode="&#xa8;" horiz-adv-x="355" 
d="M273 494q-29 0 -50.5 21t-21.5 50q0 30 21.5 51t50.5 21q31 0 52.5 -21t21.5 -51q0 -29 -21.5 -50t-52.5 -21zM78 494q-29 0 -50 21t-21 50q0 30 21 51t50 21q32 0 53.5 -21t21.5 -51q0 -29 -21.5 -50t-53.5 -21z" />
    <glyph glyph-name="copyright" unicode="&#xa9;" horiz-adv-x="681" 
d="M342 17q-64 0 -120 24t-99 66.5t-67 99t-24 120.5q0 65 24.5 121t67 98.5t99 66.5t120.5 24t120.5 -24t98.5 -66.5t66.5 -98.5t24.5 -121q0 -64 -24.5 -120.5t-67 -99t-99 -66.5t-120.5 -24zM356 138q-56 0 -101 24t-71 65.5t-26 94.5q0 50 25.5 92.5t73.5 68.5t115 26
q26 0 53.5 -6t46.5 -16q7 -2 10 -5.5t4 -10.5q3 -22 3.5 -38.5t-0.5 -34.5q0 -9 -5 -15t-13 -5q-5 0 -10 4t-7 12q-4 11 -8.5 20.5t-12.5 17.5q-10 11 -26 18.5t-40 7.5q-50 0 -74 -37.5t-24 -89.5q0 -43 9.5 -75t31 -50.5t58.5 -18.5q34 0 55.5 14t35.5 48q4 9 10 12t12 1
q12 -2 12 -19q0 -18 -3.5 -32.5t-8.5 -33.5q-2 -8 -5.5 -8.5t-10.5 -3.5q-19 -10 -47 -18.5t-62 -8.5zM342 66q53 0 100 20.5t81.5 56.5t54.5 83.5t20 100.5q0 52 -20 98.5t-55 81.5t-81 55.5t-99 20.5t-99 -20.5t-81.5 -55.5t-55 -81.5t-19.5 -98.5q0 -53 19.5 -100.5
t54.5 -83.5t81 -56.5t99 -20.5z" />
    <glyph glyph-name="ordfeminine" unicode="&#xaa;" horiz-adv-x="350" 
d="M292 204q6 0 11.5 -4t5.5 -11q0 -1 -0.5 -1.5t-0.5 -2.5q-6 -11 -15.5 -18.5t-22.5 -7.5h-224q-7 0 -12.5 5.5t-5.5 10.5q0 7 9.5 18t20.5 11h234zM115 283q-20 0 -37.5 8.5t-28 23t-10.5 31.5q0 22 14 37.5t45 27.5l60 23q14 6 17.5 11t3.5 17v27q0 19 -6 27.5t-20 8.5
q-8 0 -16.5 -3t-13.5 -8q-4 -5 -2.5 -13.5t1.5 -14.5q0 -5 -13 -11.5t-29.5 -12t-27.5 -7.5q-7 -1 -9.5 4.5t0.5 14.5q5 12 11 22.5t22 24.5q12 9 32 19.5t42.5 18t42.5 7.5q40 0 67.5 -25t26.5 -68l-4 -109q0 -11 4.5 -23t14.5 -12q6 0 11 3t8 6l3 1.5t2 0.5q4 0 6.5 -3
t2.5 -7q0 -6 -5.5 -13t-9.5 -10q-10 -10 -24.5 -17t-34.5 -7q-28 0 -43.5 11.5t-26.5 25.5h-1q-10 -12 -28 -24.5t-47 -12.5zM156 333q5 0 9 2t6 4q3 2 3.5 4.5t0.5 4.5l2 52q0 6 -3 7.5t-9 -0.5q-19 -7 -25 -16.5t-6 -29.5q0 -19 7.5 -23.5t14.5 -4.5z" />
    <glyph glyph-name="guillemotleft" unicode="&#xab;" horiz-adv-x="583" 
d="M320 16q-10 0 -20 8l-15 12q-30 28 -53.5 48t-46.5 35t-48.5 29.5t-60.5 31.5q-15 7 -21.5 17t-6.5 21q0 10 10 15q45 27 75.5 46t53.5 36t46 36.5t54 46.5q4 4 14 12.5t20 8.5q7 0 7 -11q0 -4 -2 -8l-4 -8q-33 -50 -56 -79t-42.5 -48.5t-42.5 -39.5q-7 -5 -7 -7.5
t7 -7.5q23 -21 42.5 -40.5t42.5 -48t56 -79.5q2 -3 4 -7t2 -7q0 -12 -8 -12zM531 16q-10 0 -20 8l-15 12q-30 28 -53.5 48t-46.5 35t-48.5 29.5t-60.5 31.5q-15 7 -21.5 17t-6.5 21q0 10 10 15q45 27 75.5 46t53.5 36t46 36.5t54 46.5q4 4 14 12.5t20 8.5q7 0 7 -11
q0 -4 -2 -8l-4 -8q-33 -50 -56 -79t-42.5 -48.5t-42.5 -39.5q-7 -5 -7 -7.5t7 -7.5q23 -21 42.5 -40.5t42.5 -48t56 -79.5q2 -3 4 -7t2 -7q0 -12 -8 -12z" />
    <glyph glyph-name="logicalnot" unicode="&#xac;" horiz-adv-x="621" 
d="M498 42q-5 0 -10 6t-5 13v239q0 16 -14 16h-416q-7 0 -13 5t-6 10q0 8 3 21.5t10.5 24.5t19.5 11h471q10 0 13.5 -6t3.5 -14v-294q0 -11 -11 -18.5t-24.5 -10.5t-21.5 -3z" />
    <glyph glyph-name="uni00AD" unicode="&#xad;" horiz-adv-x="316" 
d="M36 164q-10 -1 -10 10q0 30 5.5 45.5t16.5 17.5q54 8 113.5 16t113.5 12q9 1 12 -3.5t3 -11.5q0 -30 -4 -42t-16 -14q-53 -8 -116 -16.5t-118 -13.5z" />
    <glyph glyph-name="registered" unicode="&#xae;" horiz-adv-x="686" 
d="M344 17q-64 0 -120 24t-98.5 66.5t-66.5 99t-24 120.5q0 65 24 121t66.5 98.5t99 66.5t120.5 24q65 0 121 -24t98.5 -66.5t67 -98.5t24.5 -121q0 -64 -24.5 -120.5t-67.5 -99t-99 -66.5t-121 -24zM344 66q54 0 100.5 20.5t81.5 56.5t54.5 83.5t19.5 100.5
q0 52 -19.5 98.5t-55 81.5t-81.5 55t-99 20q-52 0 -98.5 -20t-81.5 -55t-55 -81.5t-20 -98.5q0 -53 20 -100.5t54.5 -83.5t81 -56.5t98.5 -20.5zM472 171q-16 0 -35 11.5t-37.5 30.5t-35 43.5t-27.5 50.5q-2 5 -6.5 8t-11.5 3q-3 0 -5.5 -2t-2.5 -7l1 -81q0 -15 9.5 -21
t29.5 -11q6 -1 10 -4t4 -10q0 -5 -3.5 -8.5t-8.5 -3.5q-18 0 -42.5 1.5t-41.5 1.5q-11 0 -24 -0.5t-25.5 -1.5t-25.5 -1q-3 0 -7.5 4t-4.5 8q0 6 4 9.5t9 4.5q19 5 26 11t7 21v210q0 13 -3 19.5t-9 10t-18 6.5q-12 1 -12 12q0 8 11 8q24 -1 38.5 -3t32.5 -2q20 0 34.5 2
t42.5 3q60 0 93 -19.5t33 -60.5q0 -34 -19 -51.5t-42 -27.5q-3 -2 -2.5 -4.5t1.5 -4.5q16 -40 38.5 -66t44 -38t35.5 -12q3 0 5.5 -1.5t2.5 -6.5q0 -13 -15.5 -22t-47.5 -9zM330 354q30 0 45.5 14.5t15.5 35.5q0 28 -14 41t-40 13q-16 0 -22 -5t-6 -15v-69q0 -8 5.5 -11.5
t15.5 -3.5z" />
    <glyph glyph-name="macron" unicode="&#xaf;" horiz-adv-x="355" 
d="M40 508q-9 0 -14.5 5.5t-5.5 11.5q0 18 5.5 32t14 22.5t17.5 8.5h258q9 0 14 -5t5 -13q0 -24 -12 -43t-29 -19h-253z" />
    <glyph glyph-name="degree" unicode="&#xb0;" horiz-adv-x="347" 
d="M175 381q-44 0 -78 21.5t-53 55.5t-19 72q0 39 19 70.5t53 50.5t78 19q43 0 75.5 -19t52 -50.5t19.5 -70.5q0 -37 -19.5 -71.5t-52 -56t-75.5 -21.5zM174 437q33 0 57.5 25t24.5 63t-24.5 62t-57.5 24q-35 0 -59 -24t-24 -62t24 -63t59 -25z" />
    <glyph glyph-name="plusminus" unicode="&#xb1;" horiz-adv-x="600" 
d="M284 125q-4 0 -8.5 5t-4.5 12v202q0 12 -12 12h-209q-7 0 -11.5 4.5t-4.5 8.5q0 10 6 27t22 17h196q9 0 11 3.5t2 9.5v170q0 10 7 17.5t17 12t18 4.5q7 0 11 -6.5t4 -14.5v-183q0 -7 2.5 -10t9.5 -3h203q9 0 15.5 -3.5t6.5 -11.5q0 -12 -10 -27t-24 -15h-191
q-12 0 -12 -11v-192q0 -15 -17 -21.5t-27 -6.5zM52 31q-7 0 -12.5 5t-5.5 9q0 7 3 18t10 20t18 9h477q10 0 17 -4.5t7 -12.5q0 -13 -10.5 -28.5t-25.5 -15.5h-478z" />
    <glyph glyph-name="uni00B2" unicode="&#xb2;" horiz-adv-x="341" 
d="M275 438q-9 0 -29.5 1t-46 1.5t-51.5 0.5q-20 0 -45 -0.5t-44 -1.5t-22 -1q-4 0 -7.5 3t-3.5 6q0 4 4 9l38 41q28 33 53 61t40 55.5t15 57.5q0 20 -13 33.5t-35 13.5q-21 0 -36 -12.5t-25 -25.5q-8 -13 -18 -13q-6 0 -8.5 5t-2.5 13q0 15 15.5 37t44.5 38t70 16
q49 0 78.5 -26.5t29.5 -62.5q0 -21 -10.5 -42.5t-29.5 -43.5q-8 -8 -25 -22.5t-35.5 -29t-31.5 -25.5t-15 -12q0 -2 3 -3t6 -1h95q18 0 32.5 12.5t24.5 29.5q2 4 5.5 8t10.5 4q8 0 10 -5t0 -10q-12 -29 -20 -59t-9 -36t-4.5 -10t-7.5 -4z" />
    <glyph glyph-name="uni00B3" unicode="&#xb3;" horiz-adv-x="295" 
d="M96 435q-24 0 -44 8t-20 22q0 12 5.5 23.5t12.5 11.5q5 0 8 -2t6 -6q9 -10 22.5 -20t26.5 -10q23 0 38.5 20.5t15.5 56.5q0 21 -13.5 41.5t-39.5 20.5q-21 0 -29.5 -6.5t-11.5 -6.5q-6 0 -11.5 1.5t-4.5 7.5q2 9 9 16t16 11.5l15 7.5q38 20 49.5 35t11.5 34
q0 12 -11.5 21.5t-30.5 9.5q-17 0 -32.5 -8t-24.5 -19q-4 -3 -7 -6.5t-5 -3.5q-4 0 -8.5 5.5t-4.5 9.5q0 6 12.5 21.5t37.5 29.5t63 14q34 0 63 -18t29 -49q0 -18 -14 -37t-48 -29q-2 -1 -2 -2t2 -1q33 -2 58 -22.5t25 -58.5q0 -37 -23.5 -65t-61 -43t-79.5 -15z" />
    <glyph glyph-name="acute" unicode="&#xb4;" 
d="M42 453q-10 0 -10 12q0 4 1 9.5t4 11.5q8 19 20.5 48t25 56.5t19.5 42.5q8 15 18.5 20t26.5 5q24 0 41.5 -6t17.5 -18q0 -5 -2 -11.5t-8 -13.5q-19 -21 -40.5 -46t-43 -49t-43.5 -45q-16 -16 -27 -16z" />
    <glyph glyph-name="uni03BC.1" unicode="&#xb5;" horiz-adv-x="559" 
d="M141 -285q-19 0 -31.5 11.5t-20 28.5t-10.5 32q-1 9 -1.5 33t-1 55t-1 64t-0.5 61q0 61 -0.5 109t-2 86t-2.5 69t-1 60.5v60.5q0 23 8.5 35t44.5 12q37 0 59.5 -9.5t22.5 -33.5q0 -26 -7.5 -62.5t-17 -74t-17 -66t-7.5 -40.5q0 -16 6.5 -29t17.5 -20t24 -7
q32 0 58.5 36.5t50.5 118.5q3 36 4 66t2.5 54.5t3.5 41.5q2 14 8.5 19.5t19.5 5.5q36 0 59.5 -7.5t35 -20t11.5 -25.5q0 -44 -18.5 -97t-42.5 -111q0 -19 10 -34t27.5 -24t38.5 -9q18 0 32.5 7.5t24.5 15t14 7.5t8 -3.5t4 -8.5q0 -44 -17 -75t-42 -46.5t-50 -15.5
q-29 1 -51 33.5t-26 76.5q-1 9 -1 17t1 17h-3q-3 -6 -15.5 -28.5t-30.5 -48.5t-36.5 -45.5t-31.5 -19.5q-17 0 -32.5 10.5t-30 25l-26.5 26.5q-8 8 -18 19.5t-14 11.5q-13 0 -13 -27q0 -9 1 -29t1.5 -44t1.5 -45.5t1 -35.5q0 -19 15.5 -34.5t36 -28.5t36 -24t15.5 -22
q0 -15 -14 -32.5t-33.5 -30t-36.5 -12.5z" />
    <glyph glyph-name="paragraph" unicode="&#xb6;" horiz-adv-x="628" 
d="M308 -312q-41 0 -73.5 16.5t-51 45t-18.5 64.5q0 39 20 66t49 42t57 14q32 -1 54 -15t22 -44q0 -26 -15 -43t-35 -17q-12 0 -21.5 7t-17.5 15t-15 14t-12 6q-12 0 -23.5 -13.5t-11.5 -39.5q0 -28 24 -52.5t73 -24.5q23 0 44.5 11t35.5 36t14 64v198q0 8 -2.5 18t-12.5 10
q-74 0 -141 19.5t-120.5 57.5t-84 91.5t-30.5 120.5q0 110 52.5 174t147.5 91.5t223 27.5q31 0 63.5 -1.5t57 -3.5t33.5 -3q8 -2 12.5 -10.5t4.5 -18.5q0 -9 -4.5 -23t-11.5 -14q-5 0 -39.5 8t-77.5 8q-8 0 -14 -8t-6 -17v-723q0 -36 -16 -71.5t-49 -59t-84 -23.5z" />
    <glyph glyph-name="periodcentered" unicode="&#xb7;" horiz-adv-x="255" 
d="M126 132q-32 0 -56 23.5t-24 56.5q0 35 24 59t56 24q36 0 59.5 -24t23.5 -59q0 -33 -23.5 -56.5t-59.5 -23.5z" />
    <glyph glyph-name="cedilla" unicode="&#xb8;" horiz-adv-x="274" 
d="M93 -274q-22 0 -33 9t-11 39q0 14 4.5 19t12.5 5q12 0 27.5 -8t39.5 -8q15 0 22 10.5t7 29.5q0 21 -18 32t-38 11q-13 0 -19.5 -5t-13.5 -5q-6 0 -14 6.5t-8 17.5q0 9 14 25l90 104h44l-36 -43q-5 -7 -5 -10q0 -5 12 -11q25 -11 40 -31t15 -53q0 -26 -13.5 -50t-33.5 -43
t-42.5 -30t-42.5 -11z" />
    <glyph glyph-name="uni00B9" unicode="&#xb9;" horiz-adv-x="249" 
d="M47 440q-4 0 -7.5 3t-3.5 7q0 6 3 10t8 4q15 3 22 5.5t9.5 8t2.5 15.5v181q0 21 -12.5 31.5t-25.5 11.5q-5 1 -8 3.5t-3 9.5q0 15 15 16q38 2 62.5 8.5t49.5 22.5q1 1 5 3t6 2q9 0 9 -9q0 -6 -2 -15.5t-2 -27.5v-237q0 -12 4 -17t28 -12q5 -1 8 -3.5t3 -9.5q0 -4 -2 -7
t-7 -3q-13 0 -28.5 0.5t-30 1t-24.5 0.5t-23.5 -0.5t-27.5 -1.5t-28 -1z" />
    <glyph glyph-name="ordmasculine" unicode="&#xba;" horiz-adv-x="327" 
d="M296 204q5 0 11 -4t6 -11q0 -1 -0.5 -1.5t-0.5 -2.5q-7 -11 -16 -18.5t-22 -7.5h-241q-6 0 -11.5 5.5t-5.5 10.5q0 7 9 18t21 11h250zM180 283q-44 0 -78.5 17t-54.5 47t-20 68q0 44 22 78t60.5 53.5t85.5 19.5q44 0 80 -18t57.5 -48t21.5 -66q0 -41 -19.5 -75.5
t-58.5 -55t-96 -20.5zM193 321q19 0 28 14.5t12.5 37t3.5 46.5q0 26 -6 51t-17.5 41t-27.5 16q-19 0 -28.5 -15t-13 -37t-3.5 -44q0 -28 6.5 -53.5t18.5 -41t27 -15.5z" />
    <glyph glyph-name="guillemotright" unicode="&#xbb;" horiz-adv-x="583" 
d="M263 16q10 0 20 8l15 12q30 28 53.5 48t46.5 35t48.5 29.5t60.5 31.5q15 7 21.5 17t6.5 21q0 10 -10 15q-45 27 -75.5 46t-53.5 36t-46 36.5t-54 46.5q-4 4 -14 12.5t-20 8.5q-7 0 -7 -11q0 -4 2 -8l4 -8q33 -50 56 -79t42.5 -48.5t42.5 -39.5q7 -5 7 -7.5t-7 -7.5
q-23 -21 -42.5 -40.5t-42.5 -48t-56 -79.5q-2 -3 -4 -7t-2 -7q0 -12 8 -12zM52 16q10 0 20 8l15 12q30 28 53.5 48t46.5 35t48.5 29.5t60.5 31.5q15 7 21.5 17t6.5 21q0 10 -10 15q-45 27 -75.5 46t-53.5 36t-46 36.5t-54 46.5q-4 4 -14 12.5t-20 8.5q-7 0 -7 -11q0 -4 2 -8
l4 -8q33 -50 56 -79t42.5 -48.5t42.5 -39.5q7 -5 7 -7.5t-7 -7.5q-23 -21 -42.5 -40.5t-42.5 -48t-56 -79.5q-2 -3 -4 -7t-2 -7q0 -12 8 -12z" />
    <glyph glyph-name="onequarter" unicode="&#xbc;" horiz-adv-x="645" 
d="M498 -9q-11 0 -11 8v86q0 3 -5 4t-6 1q-37 0 -69.5 -1t-72.5 -1q-2 0 -6.5 1t-4.5 4q0 1 1 2.5t2 2.5q35 43 76 87t77 87q10 11 27.5 29t37.5 38q6 6 11.5 10t9.5 4q3 0 4 -3t1 -6l-1 -206q0 -6 6 -6h18q6 0 15 0.5t16 0.5t7 -7q0 -9 -6 -21.5t-11 -12.5h-35
q-5 0 -7.5 -1.5t-2.5 -4.5v-57q0 -8 -15.5 -17t-33 -15t-22.5 -6zM407 133h75q2 0 3.5 1.5t1.5 2.5v83q0 1 -1 1t-2 -1l-26.5 -26.5t-29 -30t-23.5 -26.5q-2 -4 2 -4zM47 278q-4 0 -7.5 3t-3.5 7q0 6 3 10t8 4q15 3 22 5.5t9.5 8t2.5 15.5v181q0 21 -12.5 31.5t-25.5 11.5
q-5 1 -8 3.5t-3 9.5q0 15 15 16q38 2 62.5 8.5t49.5 22.5q1 1 5 3t6 2q9 0 9 -9q0 -6 -2 -15.5t-2 -27.5v-237q0 -12 4 -17t28 -12q5 -1 8 -3.5t3 -9.5q0 -4 -2 -7t-7 -3q-13 0 -28.5 0.5t-30 1t-24.5 0.5t-23.5 -0.5t-27.5 -1.5t-28 -1zM519 642q8 14 20.5 18t28.5 4
q8 0 13 -5.5t5 -11.5q0 -4 -1 -5l-410 -646q-6 -12 -18.5 -15.5t-26.5 -3.5q-8 0 -15 4.5t-7 10.5q0 2 1 4z" />
    <glyph glyph-name="onehalf" unicode="&#xbd;" horiz-adv-x="719" 
d="M653 -16q-9 0 -29.5 1t-46 1.5t-51.5 0.5q-20 0 -45 -0.5t-44 -1.5t-22 -1q-4 0 -7.5 3t-3.5 6q0 4 4 9l38 41q28 33 53 61t40 55.5t15 57.5q0 20 -13 33.5t-35 13.5q-21 0 -36 -12.5t-25 -25.5q-8 -13 -18 -13q-6 0 -8.5 5t-2.5 13q0 15 15.5 37t44.5 38t70 16
q49 0 78.5 -26.5t29.5 -62.5q0 -21 -10.5 -42.5t-29.5 -43.5q-8 -8 -25 -22.5t-35.5 -29t-31.5 -25.5t-15 -12q0 -2 3 -3t6 -1h95q18 0 32.5 12.5t24.5 29.5q2 4 5.5 8t10.5 4q8 0 10 -5t0 -10q-12 -29 -20 -59t-9 -36t-4.5 -10t-7.5 -4zM47 278q-4 0 -7.5 3t-3.5 7
q0 6 3 10t8 4q15 3 22 5.5t9.5 8t2.5 15.5v181q0 21 -12.5 31.5t-25.5 11.5q-5 1 -8 3.5t-3 9.5q0 15 15 16q38 2 62.5 8.5t49.5 22.5q1 1 5 3t6 2q9 0 9 -9q0 -6 -2 -15.5t-2 -27.5v-237q0 -12 4 -17t28 -12q5 -1 8 -3.5t3 -9.5q0 -4 -2 -7t-7 -3q-13 0 -28.5 0.5t-30 1
t-24.5 0.5t-23.5 -0.5t-27.5 -1.5t-28 -1zM519 642q8 14 20.5 18t28.5 4q8 0 13 -5.5t5 -11.5q0 -4 -1 -5l-410 -646q-6 -12 -18.5 -15.5t-26.5 -3.5q-8 0 -15 4.5t-7 10.5q0 2 1 4z" />
    <glyph glyph-name="threequarters" unicode="&#xbe;" horiz-adv-x="660" 
d="M513 -9q-11 0 -11 8v86q0 3 -5 4t-6 1q-37 0 -69.5 -1t-72.5 -1q-2 0 -6.5 1t-4.5 4q0 1 1 2.5t2 2.5q35 43 76 87t77 87q10 11 27.5 29t37.5 38q6 6 11.5 10t9.5 4q3 0 4 -3t1 -6l-1 -206q0 -6 6 -6h18q6 0 15 0.5t16 0.5t7 -7q0 -9 -6 -21.5t-11 -12.5h-35
q-5 0 -7.5 -1.5t-2.5 -4.5v-57q0 -8 -15.5 -17t-33 -15t-22.5 -6zM422 133h75q2 0 3.5 1.5t1.5 2.5v83q0 1 -1 1t-2 -1l-26.5 -26.5t-29 -30t-23.5 -26.5q-2 -4 2 -4zM96 275q-24 0 -44 8t-20 22q0 12 5.5 23.5t12.5 11.5q5 0 8 -2t6 -6q9 -10 22.5 -20t26.5 -10
q23 0 38.5 20.5t15.5 56.5q0 21 -13.5 41.5t-39.5 20.5q-21 0 -29.5 -6.5t-11.5 -6.5q-6 0 -11.5 1.5t-4.5 7.5q2 9 9 16t16 11.5l15 7.5q38 20 49.5 35t11.5 34q0 12 -11.5 21.5t-30.5 9.5q-17 0 -32.5 -8t-24.5 -19q-4 -3 -7 -6.5t-5 -3.5q-4 0 -8.5 5.5t-4.5 9.5
q0 6 12.5 21.5t37.5 29.5t63 14q34 0 63 -18t29 -49q0 -18 -14 -37t-48 -29q-2 -1 -2 -2t2 -1q33 -2 58 -22.5t25 -58.5q0 -37 -23.5 -65t-61 -43t-79.5 -15zM531 642q8 14 20.5 18t28.5 4q8 0 13 -5.5t5 -11.5q0 -4 -1 -5l-410 -646q-6 -12 -18.5 -15.5t-26.5 -3.5
q-8 0 -15 4.5t-7 10.5q0 2 1 4z" />
    <glyph glyph-name="questiondown" unicode="&#xbf;" horiz-adv-x="395" 
d="M249 307q7 0 16 -8t17 -22q8 -16 15.5 -38t7.5 -51q0 -35 -29.5 -60.5t-87.5 -52.5q-30 -14 -47 -31.5t-17 -44.5q0 -30 22.5 -45.5t52.5 -16.5q21 0 32 4t17 7q7 2 15 4t18 2q14 0 28 -14.5t23 -34.5t9 -37q0 -18 -21 -33.5t-48 -15.5q-40 0 -77 20t-70 54
q-24 25 -40.5 54t-26 60t-9.5 60q0 40 15 63.5t33 31.5q16 8 30 16.5t29 17t31 17.5q22 12 29.5 26.5t11.5 43.5q0 11 6 17.5t15 6.5zM250 494q30 0 51 -21t21 -51t-21 -51.5t-51 -21.5t-51 21.5t-21 51.5t21 51t51 21z" />
    <glyph glyph-name="Agrave" unicode="&#xc0;" horiz-adv-x="720" 
d="M405 682q12 2 12 9t-11 21q-25 33 -50.5 64t-54.5 61q-13 14 -34 12q-8 -1 -25.5 -7t-32.5 -14t-13 -17q2 -10 19 -22q38 -25 82 -50t83 -49q9 -5 16 -7t9 -1zM22 -5q-11 0 -18.5 3.5t-7.5 12.5q0 10 6.5 14.5t17.5 7.5q29 8 50.5 25t32.5 42q25 56 47 110.5t43 108
t42 109t42 112.5q15 41 19 59.5t6 21.5q18 5 34 9t34 11t30.5 18t18.5 17q4 3 8 3.5t8 -6.5q3 -6 5.5 -12.5t4.5 -14.5q21 -67 43 -136.5t44.5 -138.5t44.5 -136.5t43 -131.5q6 -20 18.5 -34t28.5 -22t36 -14q11 -3 17.5 -7.5t6.5 -13.5q0 -7 -6 -11t-14 -4q-20 0 -49.5 1.5
t-59.5 2.5t-53 1q-19 0 -46.5 -1t-55.5 -2t-48 -1q-9 0 -15.5 3.5t-6.5 10.5q0 9 7 14t17 7q37 8 54 21t11 39q-4 19 -10 40t-11.5 42.5t-11.5 41.5q-2 8 -5 12t-12 4h-177q-7 0 -11 -4t-6 -13q-4 -14 -9 -28t-9.5 -28t-8.5 -28t-8 -27q-7 -30 6 -46t56 -26q24 -5 24 -21
q0 -7 -5.5 -10.5t-17.5 -3.5q-29 0 -54 1.5t-55 1.5t-57 -3t-58 -3zM263 287h130q15 0 15 7q0 3 -0.5 5t-1.5 5l-67 226q-3 11 -6 11q-2 0 -7 -11l-79 -226q-2 -4 -2 -8q0 -5 5.5 -7t12.5 -2z" />
    <glyph glyph-name="Aacute" unicode="&#xc1;" horiz-adv-x="720" 
d="M330 682q-12 2 -12 9t11 21q25 33 50.5 64t54.5 61q13 14 34 12q8 -1 25.5 -7t32.5 -14t13 -17q-2 -10 -19 -22q-38 -25 -82 -50t-83 -49q-9 -5 -16 -7t-9 -1zM22 -5q-11 0 -18.5 3.5t-7.5 12.5q0 10 6.5 14.5t17.5 7.5q29 8 50.5 25t32.5 42q25 56 47 110.5t43 108
t42 109t42 112.5q15 41 19 59.5t6 21.5q18 5 34 9t34 11t30.5 18t18.5 17q4 3 8 3.5t8 -6.5q3 -6 5.5 -12.5t4.5 -14.5q21 -67 43 -136.5t44.5 -138.5t44.5 -136.5t43 -131.5q6 -20 18.5 -34t28.5 -22t36 -14q11 -3 17.5 -7.5t6.5 -13.5q0 -7 -6 -11t-14 -4q-20 0 -49.5 1.5
t-59.5 2.5t-53 1q-19 0 -46.5 -1t-55.5 -2t-48 -1q-9 0 -15.5 3.5t-6.5 10.5q0 9 7 14t17 7q37 8 54 21t11 39q-4 19 -10 40t-11.5 42.5t-11.5 41.5q-2 8 -5 12t-12 4h-177q-7 0 -11 -4t-6 -13q-4 -14 -9 -28t-9.5 -28t-8.5 -28t-8 -27q-7 -30 6 -46t56 -26q24 -5 24 -21
q0 -7 -5.5 -10.5t-17.5 -3.5q-29 0 -54 1.5t-55 1.5t-57 -3t-58 -3zM263 287h130q15 0 15 7q0 3 -0.5 5t-1.5 5l-67 226q-3 11 -6 11q-2 0 -7 -11l-79 -226q-2 -4 -2 -8q0 -5 5.5 -7t12.5 -2z" />
    <glyph glyph-name="Acircumflex" unicode="&#xc2;" horiz-adv-x="720" 
d="M233 693q-19 0 -19 12q0 9 8 15l105 94q17 16 27 22.5t23 6.5q14 0 24 -6.5t27 -22.5l104 -93q7 -6 7 -16q0 -13 -16 -13q-7 0 -23.5 5t-37.5 13t-40.5 16.5t-32.5 15.5q-7 4 -12 4t-12 -4q-12 -7 -31.5 -15t-40.5 -16t-37.5 -13t-22.5 -5zM22 -5q-11 0 -18.5 3.5
t-7.5 12.5q0 10 6.5 14.5t17.5 7.5q29 8 50.5 25t32.5 42q25 56 47 110.5t43 108t42 109t42 112.5q15 41 19 59.5t6 21.5q18 5 34 9t34 11t30.5 18t18.5 17q4 3 8 3.5t8 -6.5q3 -6 5.5 -12.5t4.5 -14.5q21 -67 43 -136.5t44.5 -138.5t44.5 -136.5t43 -131.5q6 -20 18.5 -34
t28.5 -22t36 -14q11 -3 17.5 -7.5t6.5 -13.5q0 -7 -6 -11t-14 -4q-20 0 -49.5 1.5t-59.5 2.5t-53 1q-19 0 -46.5 -1t-55.5 -2t-48 -1q-9 0 -15.5 3.5t-6.5 10.5q0 9 7 14t17 7q37 8 54 21t11 39q-4 19 -10 40t-11.5 42.5t-11.5 41.5q-2 8 -5 12t-12 4h-177q-7 0 -11 -4
t-6 -13q-4 -14 -9 -28t-9.5 -28t-8.5 -28t-8 -27q-7 -30 6 -46t56 -26q24 -5 24 -21q0 -7 -5.5 -10.5t-17.5 -3.5q-29 0 -54 1.5t-55 1.5t-57 -3t-58 -3zM263 287h130q15 0 15 7q0 3 -0.5 5t-1.5 5l-67 226q-3 11 -6 11q-2 0 -7 -11l-79 -226q-2 -4 -2 -8q0 -5 5.5 -7
t12.5 -2z" />
    <glyph glyph-name="Atilde" unicode="&#xc3;" horiz-adv-x="720" 
d="M239 691q-5 0 -12 6.5t-7 9.5q0 6 9 22t22.5 34t26.5 31.5t20 13.5q19 0 40.5 -1.5t42.5 -2.5q19 -1 40 -2t44 -1q11 0 19.5 6t15.5 13q8 8 12.5 15t7.5 7q6 0 14.5 -6.5t8.5 -12.5q0 -3 -4.5 -10t-13.5 -18q-11 -16 -21 -31.5t-19 -28.5q-6 -9 -15 -11.5t-16 -2.5
q-8 0 -31 1.5t-50.5 3.5t-51.5 4t-34 2q-8 0 -16 -6t-14 -13q-6 -8 -11 -15t-7 -7zM22 -5q-11 0 -18.5 3.5t-7.5 12.5q0 10 6.5 14.5t17.5 7.5q29 8 50.5 25t32.5 42q25 56 47 110.5t43 108t42 109t42 112.5q15 41 19 59.5t6 21.5q18 5 34 9t34 11t30.5 18t18.5 17
q4 3 8 3.5t8 -6.5q3 -6 5.5 -12.5t4.5 -14.5q21 -67 43 -136.5t44.5 -138.5t44.5 -136.5t43 -131.5q6 -20 18.5 -34t28.5 -22t36 -14q11 -3 17.5 -7.5t6.5 -13.5q0 -7 -6 -11t-14 -4q-20 0 -49.5 1.5t-59.5 2.5t-53 1q-19 0 -46.5 -1t-55.5 -2t-48 -1q-9 0 -15.5 3.5
t-6.5 10.5q0 9 7 14t17 7q37 8 54 21t11 39q-4 19 -10 40t-11.5 42.5t-11.5 41.5q-2 8 -5 12t-12 4h-177q-7 0 -11 -4t-6 -13q-4 -14 -9 -28t-9.5 -28t-8.5 -28t-8 -27q-7 -30 6 -46t56 -26q24 -5 24 -21q0 -7 -5.5 -10.5t-17.5 -3.5q-29 0 -54 1.5t-55 1.5t-57 -3t-58 -3z
M263 287h130q15 0 15 7q0 3 -0.5 5t-1.5 5l-67 226q-3 11 -6 11q-2 0 -7 -11l-79 -226q-2 -4 -2 -8q0 -5 5.5 -7t12.5 -2z" />
    <glyph glyph-name="Adieresis" unicode="&#xc4;" horiz-adv-x="720" 
d="M475 688q-29 0 -50 21t-21 50q0 31 21 51.5t50 20.5q32 0 53.5 -20.5t21.5 -51.5q0 -29 -21.5 -50t-53.5 -21zM278 688q-29 0 -50.5 21t-21.5 50q0 31 21.5 51.5t50.5 20.5q31 0 52.5 -20.5t21.5 -51.5q0 -29 -21.5 -50t-52.5 -21zM22 -5q-11 0 -18.5 3.5t-7.5 12.5
q0 10 6.5 14.5t17.5 7.5q29 8 50.5 25t32.5 42q25 56 47 110.5t43 108t42 109t42 112.5q15 41 19 59.5t6 21.5q18 5 34 9t34 11t30.5 18t18.5 17q4 3 8 3.5t8 -6.5q3 -6 5.5 -12.5t4.5 -14.5q21 -67 43 -136.5t44.5 -138.5t44.5 -136.5t43 -131.5q6 -20 18.5 -34t28.5 -22
t36 -14q11 -3 17.5 -7.5t6.5 -13.5q0 -7 -6 -11t-14 -4q-20 0 -49.5 1.5t-59.5 2.5t-53 1q-19 0 -46.5 -1t-55.5 -2t-48 -1q-9 0 -15.5 3.5t-6.5 10.5q0 9 7 14t17 7q37 8 54 21t11 39q-4 19 -10 40t-11.5 42.5t-11.5 41.5q-2 8 -5 12t-12 4h-177q-7 0 -11 -4t-6 -13
q-4 -14 -9 -28t-9.5 -28t-8.5 -28t-8 -27q-7 -30 6 -46t56 -26q24 -5 24 -21q0 -7 -5.5 -10.5t-17.5 -3.5q-29 0 -54 1.5t-55 1.5t-57 -3t-58 -3zM263 287h130q15 0 15 7q0 3 -0.5 5t-1.5 5l-67 226q-3 11 -6 11q-2 0 -7 -11l-79 -226q-2 -4 -2 -8q0 -5 5.5 -7t12.5 -2z" />
    <glyph glyph-name="Aring" unicode="&#xc5;" horiz-adv-x="720" 
d="M328 771q0 -21 15.5 -36t37.5 -15q21 0 32 16t11 35q0 22 -14.5 37t-36.5 15q-21 0 -33 -15.5t-12 -36.5zM382 856q40 0 72.5 -20.5t32.5 -57.5q0 -27 -17 -47t-43 -31t-56 -11q-41 0 -73.5 21t-32.5 59q0 26 17 45.5t43.5 30.5t56.5 11zM22 -5q-11 0 -18.5 3.5
t-7.5 12.5q0 10 6.5 14.5t17.5 7.5q29 8 50.5 25t32.5 42q25 56 47 110.5t43 108t42 109t42 112.5q15 41 19 59.5t6 21.5q18 5 34 9t34 11t30.5 18t18.5 17q4 3 8 3.5t8 -6.5q3 -6 5.5 -12.5t4.5 -14.5q21 -67 43 -136.5t44.5 -138.5t44.5 -136.5t43 -131.5q6 -20 18.5 -34
t28.5 -22t36 -14q11 -3 17.5 -7.5t6.5 -13.5q0 -7 -6 -11t-14 -4q-20 0 -49.5 1.5t-59.5 2.5t-53 1q-19 0 -46.5 -1t-55.5 -2t-48 -1q-9 0 -15.5 3.5t-6.5 10.5q0 9 7 14t17 7q37 8 54 21t11 39q-4 19 -10 40t-11.5 42.5t-11.5 41.5q-2 8 -5 12t-12 4h-177q-7 0 -11 -4
t-6 -13q-4 -14 -9 -28t-9.5 -28t-8.5 -28t-8 -27q-7 -30 6 -46t56 -26q24 -5 24 -21q0 -7 -5.5 -10.5t-17.5 -3.5q-29 0 -54 1.5t-55 1.5t-57 -3t-58 -3zM263 287h130q15 0 15 7q0 3 -0.5 5t-1.5 5l-67 226q-3 11 -6 11q-2 0 -7 -11l-79 -226q-2 -4 -2 -8q0 -5 5.5 -7
t12.5 -2z" />
    <glyph glyph-name="AE" unicode="&#xc6;" horiz-adv-x="909" 
d="M22 -5q-12 0 -19.5 3.5t-7.5 12.5t7 14t17 8q28 9 52 28t38 42l294 495q2 5 0.5 9t-8.5 5l-33 7q-10 3 -14.5 8.5t-4.5 11.5q0 15 19 15q32 0 73.5 -2t75.5 -2q44 0 95 0.5t97 1.5t78 1.5t40 0.5q7 0 15 -4t9 -15q7 -35 11.5 -68.5t5.5 -60.5q0 -9 -4.5 -13.5t-9.5 -4.5
t-10 3.5t-9 11.5q-11 30 -20 51t-22 34q-11 12 -27.5 17.5t-38.5 5.5h-75q-22 0 -37.5 -11t-15.5 -32v-195q0 -12 6.5 -18t17.5 -6h45t42 1q24 0 35.5 16.5t20.5 37.5q6 10 11.5 16.5t11.5 6.5q5 0 9 -6t3 -16q-1 -21 -2.5 -40.5t-1.5 -38.5t1 -38.5t3 -42.5q1 -14 -2 -20
t-8 -6q-8 0 -14.5 7.5t-9.5 16.5q-9 30 -21 46t-29 16h-48.5h-47.5q-11 0 -16.5 -6t-5.5 -17v-183q0 -28 12.5 -42t39.5 -14h91q12 0 25 2.5t24.5 7.5t20.5 11q19 15 32.5 38t24.5 48q3 8 6 12t9 4q15 0 15 -14q0 -27 -9.5 -67.5t-19.5 -75.5q-2 -7 -8.5 -10t-14.5 -3
q-11 0 -46.5 0.5t-83.5 1.5t-100 1.5t-97 0.5q-20 0 -44.5 -1t-48.5 -2.5t-46 -1.5q-9 0 -14.5 4.5t-5.5 10.5q0 15 22 21q34 9 48 21t14 43v146q0 6 -3 12t-15 6h-141q-8 0 -14 -4t-12 -14q-16 -32 -31 -67.5t-26 -63.5q-6 -18 -6 -30q0 -19 15.5 -29.5t47.5 -17.5
q24 -5 24 -21q0 -7 -5.5 -10.5t-17.5 -3.5q-29 0 -58.5 1.5t-58.5 1.5q-30 0 -58 -3t-58 -3zM325 314h99q6 0 10.5 4t4.5 9v221q0 9 -2 14t-10 -9l-117 -221q-4 -7 -1 -13q1 -3 6 -4t10 -1z" />
    <glyph glyph-name="Ccedilla" unicode="&#xc7;" horiz-adv-x="709" 
d="M325 -275q-24 0 -37.5 7.5t-13.5 35.5q0 17 6.5 24t13.5 7q6 0 17.5 -6.5t43.5 -6.5q15 0 29.5 8t14.5 30q0 19 -11.5 29.5t-37.5 10.5q-8 0 -12.5 -2.5t-11.5 -2.5q-15 0 -22 8t-7 14q0 7 1.5 11t5.5 8l92 108h46l-36 -47q-11 -15 5 -21q26 -10 45 -30.5t19 -52.5
q0 -35 -24.5 -65t-59 -48.5t-66.5 -18.5zM405 -14q-78 0 -146 23.5t-120 67t-81 104.5t-29 135q0 69 27.5 131.5t80.5 111t127.5 77t168.5 28.5q32 0 64.5 -4.5t63 -12.5t55.5 -17q9 -4 15.5 -10.5t7.5 -18.5q4 -33 6 -64t2 -56q0 -11 -8 -15t-17.5 -0.5t-13.5 15.5
q-7 23 -16.5 46t-28.5 40q-20 20 -55.5 33t-85.5 13q-51 0 -92.5 -22t-71 -60t-45.5 -86t-16 -100q0 -66 14 -122.5t43 -97.5t71 -64t99 -23q74 0 120 31.5t77 96.5q8 18 22.5 17t14.5 -17q0 -13 -2.5 -31.5t-7.5 -39.5t-12 -43q-4 -12 -10.5 -18.5t-16.5 -11.5
q-38 -16 -90 -26t-114 -10z" />
    <glyph glyph-name="Egrave" unicode="&#xc8;" horiz-adv-x="575" 
d="M327 682q12 2 12 9t-11 21q-25 33 -50.5 64t-54.5 61q-13 14 -34 12q-8 -1 -25.5 -7t-32.5 -14t-13 -17q2 -10 19 -22q38 -25 82 -50t83 -49q9 -5 16 -7t9 -1zM41 -5q-10 0 -15.5 4.5t-5.5 10.5q0 15 22 21q34 9 48.5 21t14.5 44v455q0 32 -13 46t-49 22q-13 3 -18 8.5
t-5 12.5q0 6 6 10.5t16 4.5q25 0 51 -1t51 -2.5t48 -1.5q52 0 111 1t105 2q32 0 53 3.5t25 3.5q7 0 15.5 -4.5t9.5 -14.5q4 -36 10 -70t6 -60q0 -9 -4 -14t-9 -5t-10.5 4t-8.5 12q-10 25 -18 43t-18 29q-12 11 -29 21t-43 10h-75q-22 0 -38 -11.5t-16 -32.5v-189
q0 -12 7 -18t18 -6h88q26 0 37.5 17.5t20.5 42.5q7 19 20 19q5 0 9 -5.5t3 -16.5q-1 -12 -2 -26t-1.5 -28t-0.5 -27q0 -12 0.5 -26l1 -28t1.5 -27q2 -14 -1 -20.5t-9 -6.5q-16 0 -23 26q-9 30 -20 46t-31 16h-93q-12 0 -18.5 -5.5t-6.5 -17.5v-190q0 -30 13 -42t40 -12h86
q22 0 42 5t34 17q17 14 31 35t26 45q4 7 8.5 9.5t10.5 2.5q5 0 7.5 -6t2.5 -13q0 -17 -5 -38t-12.5 -44.5t-14.5 -46.5q-2 -7 -8.5 -10t-13.5 -3q-13 0 -48.5 0.5t-83.5 1.5t-99 1.5t-95 0.5q-20 0 -44 -1t-48.5 -2.5t-45.5 -1.5z" />
    <glyph glyph-name="Eacute" unicode="&#xc9;" horiz-adv-x="575" 
d="M251 682q-12 2 -12 9t11 21q25 33 50.5 64t54.5 61q13 14 34 12q8 -1 25.5 -7t32.5 -14t13 -17q-2 -10 -19 -22q-38 -25 -82 -50t-83 -49q-9 -5 -16 -7t-9 -1zM41 -5q-10 0 -15.5 4.5t-5.5 10.5q0 15 22 21q34 9 48.5 21t14.5 44v455q0 32 -13 46t-49 22q-13 3 -18 8.5
t-5 12.5q0 6 6 10.5t16 4.5q25 0 51 -1t51 -2.5t48 -1.5q52 0 111 1t105 2q32 0 53 3.5t25 3.5q7 0 15.5 -4.5t9.5 -14.5q4 -36 10 -70t6 -60q0 -9 -4 -14t-9 -5t-10.5 4t-8.5 12q-10 25 -18 43t-18 29q-12 11 -29 21t-43 10h-75q-22 0 -38 -11.5t-16 -32.5v-189
q0 -12 7 -18t18 -6h88q26 0 37.5 17.5t20.5 42.5q7 19 20 19q5 0 9 -5.5t3 -16.5q-1 -12 -2 -26t-1.5 -28t-0.5 -27q0 -12 0.5 -26l1 -28t1.5 -27q2 -14 -1 -20.5t-9 -6.5q-16 0 -23 26q-9 30 -20 46t-31 16h-93q-12 0 -18.5 -5.5t-6.5 -17.5v-190q0 -30 13 -42t40 -12h86
q22 0 42 5t34 17q17 14 31 35t26 45q4 7 8.5 9.5t10.5 2.5q5 0 7.5 -6t2.5 -13q0 -17 -5 -38t-12.5 -44.5t-14.5 -46.5q-2 -7 -8.5 -10t-13.5 -3q-13 0 -48.5 0.5t-83.5 1.5t-99 1.5t-95 0.5q-20 0 -44 -1t-48.5 -2.5t-45.5 -1.5z" />
    <glyph glyph-name="Ecircumflex" unicode="&#xca;" horiz-adv-x="575" 
d="M155 693q-19 0 -19 12q0 9 8 15l105 94q17 16 27 22.5t23 6.5q14 0 24 -6.5t27 -22.5l104 -93q7 -6 7 -16q0 -13 -16 -13q-7 0 -23.5 5t-37.5 13t-40.5 16.5t-32.5 15.5q-7 4 -12 4t-12 -4q-12 -7 -31.5 -15t-40.5 -16t-37.5 -13t-22.5 -5zM41 -5q-10 0 -15.5 4.5
t-5.5 10.5q0 15 22 21q34 9 48.5 21t14.5 44v455q0 32 -13 46t-49 22q-13 3 -18 8.5t-5 12.5q0 6 6 10.5t16 4.5q25 0 51 -1t51 -2.5t48 -1.5q52 0 111 1t105 2q32 0 53 3.5t25 3.5q7 0 15.5 -4.5t9.5 -14.5q4 -36 10 -70t6 -60q0 -9 -4 -14t-9 -5t-10.5 4t-8.5 12
q-10 25 -18 43t-18 29q-12 11 -29 21t-43 10h-75q-22 0 -38 -11.5t-16 -32.5v-189q0 -12 7 -18t18 -6h88q26 0 37.5 17.5t20.5 42.5q7 19 20 19q5 0 9 -5.5t3 -16.5q-1 -12 -2 -26t-1.5 -28t-0.5 -27q0 -12 0.5 -26l1 -28t1.5 -27q2 -14 -1 -20.5t-9 -6.5q-16 0 -23 26
q-9 30 -20 46t-31 16h-93q-12 0 -18.5 -5.5t-6.5 -17.5v-190q0 -30 13 -42t40 -12h86q22 0 42 5t34 17q17 14 31 35t26 45q4 7 8.5 9.5t10.5 2.5q5 0 7.5 -6t2.5 -13q0 -17 -5 -38t-12.5 -44.5t-14.5 -46.5q-2 -7 -8.5 -10t-13.5 -3q-13 0 -48.5 0.5t-83.5 1.5t-99 1.5
t-95 0.5q-20 0 -44 -1t-48.5 -2.5t-45.5 -1.5z" />
    <glyph glyph-name="Edieresis" unicode="&#xcb;" horiz-adv-x="575" 
d="M397 688q-29 0 -50 21t-21 50q0 31 21 51.5t50 20.5q32 0 53.5 -20.5t21.5 -51.5q0 -29 -21.5 -50t-53.5 -21zM200 688q-29 0 -50.5 21t-21.5 50q0 31 21.5 51.5t50.5 20.5q31 0 52.5 -20.5t21.5 -51.5q0 -29 -21.5 -50t-52.5 -21zM41 -5q-10 0 -15.5 4.5t-5.5 10.5
q0 15 22 21q34 9 48.5 21t14.5 44v455q0 32 -13 46t-49 22q-13 3 -18 8.5t-5 12.5q0 6 6 10.5t16 4.5q25 0 51 -1t51 -2.5t48 -1.5q52 0 111 1t105 2q32 0 53 3.5t25 3.5q7 0 15.5 -4.5t9.5 -14.5q4 -36 10 -70t6 -60q0 -9 -4 -14t-9 -5t-10.5 4t-8.5 12q-10 25 -18 43
t-18 29q-12 11 -29 21t-43 10h-75q-22 0 -38 -11.5t-16 -32.5v-189q0 -12 7 -18t18 -6h88q26 0 37.5 17.5t20.5 42.5q7 19 20 19q5 0 9 -5.5t3 -16.5q-1 -12 -2 -26t-1.5 -28t-0.5 -27q0 -12 0.5 -26l1 -28t1.5 -27q2 -14 -1 -20.5t-9 -6.5q-16 0 -23 26q-9 30 -20 46
t-31 16h-93q-12 0 -18.5 -5.5t-6.5 -17.5v-190q0 -30 13 -42t40 -12h86q22 0 42 5t34 17q17 14 31 35t26 45q4 7 8.5 9.5t10.5 2.5q5 0 7.5 -6t2.5 -13q0 -17 -5 -38t-12.5 -44.5t-14.5 -46.5q-2 -7 -8.5 -10t-13.5 -3q-13 0 -48.5 0.5t-83.5 1.5t-99 1.5t-95 0.5
q-20 0 -44 -1t-48.5 -2.5t-45.5 -1.5z" />
    <glyph glyph-name="Igrave" unicode="&#xcc;" horiz-adv-x="364" 
d="M213 682q12 2 12 9t-11 21q-25 33 -50.5 64t-54.5 61q-13 14 -34 12q-8 -1 -25.5 -7t-32.5 -14t-13 -17q2 -10 19 -22q38 -25 82 -50t83 -49q9 -5 16 -7t9 -1zM36 -3q-8 0 -14 3.5t-6 10.5q0 16 21 21q38 8 53 20.5t15 44.5v454q0 32 -13 45.5t-53 22.5q-21 5 -21 21
q0 7 6 11t14 4q23 0 48.5 -1t50 -2.5t45.5 -1.5q20 0 45.5 1t52 2t48.5 1q9 0 14 -3.5t5 -10.5q0 -10 -5.5 -14t-16.5 -7q-40 -11 -53 -24.5t-13 -44.5v-452q0 -29 14.5 -42.5t53.5 -23.5q10 -3 15.5 -7t5.5 -13q0 -7 -4.5 -11t-13.5 -4q-22 0 -49 1.5t-53 2.5t-46 1
q-21 0 -46 -1t-51 -2.5t-49 -1.5z" />
    <glyph glyph-name="Iacute" unicode="&#xcd;" horiz-adv-x="364" 
d="M137 682q-12 2 -12 9t11 21q25 33 50.5 64t54.5 61q13 14 34 12q8 -1 25.5 -7t32.5 -14t13 -17q-2 -10 -19 -22q-38 -25 -82 -50t-83 -49q-9 -5 -16 -7t-9 -1zM36 -3q-8 0 -14 3.5t-6 10.5q0 16 21 21q38 8 53 20.5t15 44.5v454q0 32 -13 45.5t-53 22.5q-21 5 -21 21
q0 7 6 11t14 4q23 0 48.5 -1t50 -2.5t45.5 -1.5q20 0 45.5 1t52 2t48.5 1q9 0 14 -3.5t5 -10.5q0 -10 -5.5 -14t-16.5 -7q-40 -11 -53 -24.5t-13 -44.5v-452q0 -29 14.5 -42.5t53.5 -23.5q10 -3 15.5 -7t5.5 -13q0 -7 -4.5 -11t-13.5 -4q-22 0 -49 1.5t-53 2.5t-46 1
q-21 0 -46 -1t-51 -2.5t-49 -1.5z" />
    <glyph glyph-name="Icircumflex" unicode="&#xce;" horiz-adv-x="364" 
d="M41 693q-19 0 -19 12q0 9 8 15l105 94q17 16 27 22.5t23 6.5q14 0 24 -6.5t27 -22.5l104 -93q7 -6 7 -16q0 -13 -16 -13q-7 0 -23.5 5t-37.5 13t-40.5 16.5t-32.5 15.5q-7 4 -12 4t-12 -4q-12 -7 -31.5 -15t-40.5 -16t-37.5 -13t-22.5 -5zM36 -3q-8 0 -14 3.5t-6 10.5
q0 16 21 21q38 8 53 20.5t15 44.5v454q0 32 -13 45.5t-53 22.5q-21 5 -21 21q0 7 6 11t14 4q23 0 48.5 -1t50 -2.5t45.5 -1.5q20 0 45.5 1t52 2t48.5 1q9 0 14 -3.5t5 -10.5q0 -10 -5.5 -14t-16.5 -7q-40 -11 -53 -24.5t-13 -44.5v-452q0 -29 14.5 -42.5t53.5 -23.5
q10 -3 15.5 -7t5.5 -13q0 -7 -4.5 -11t-13.5 -4q-22 0 -49 1.5t-53 2.5t-46 1q-21 0 -46 -1t-51 -2.5t-49 -1.5z" />
    <glyph glyph-name="Idieresis" unicode="&#xcf;" horiz-adv-x="364" 
d="M283 688q-29 0 -50 21t-21 50q0 31 21 51.5t50 20.5q32 0 53.5 -20.5t21.5 -51.5q0 -29 -21.5 -50t-53.5 -21zM86 688q-29 0 -50.5 21t-21.5 50q0 31 21.5 51.5t50.5 20.5q31 0 52.5 -20.5t21.5 -51.5q0 -29 -21.5 -50t-52.5 -21zM36 -3q-8 0 -14 3.5t-6 10.5q0 16 21 21
q38 8 53 20.5t15 44.5v454q0 32 -13 45.5t-53 22.5q-21 5 -21 21q0 7 6 11t14 4q23 0 48.5 -1t50 -2.5t45.5 -1.5q20 0 45.5 1t52 2t48.5 1q9 0 14 -3.5t5 -10.5q0 -10 -5.5 -14t-16.5 -7q-40 -11 -53 -24.5t-13 -44.5v-452q0 -29 14.5 -42.5t53.5 -23.5q10 -3 15.5 -7
t5.5 -13q0 -7 -4.5 -11t-13.5 -4q-22 0 -49 1.5t-53 2.5t-46 1q-21 0 -46 -1t-51 -2.5t-49 -1.5z" />
    <glyph glyph-name="Eth" unicode="&#xd0;" horiz-adv-x="766" 
d="M58 306q-12 0 -17.5 10t-5.5 19q0 13 8 21t20 8h302q9 0 15 -5t6 -13q0 -1 -0.5 -2t-0.5 -3q-3 -12 -13.5 -23.5t-26.5 -11.5h-287zM382 -7q-34 0 -74.5 2t-75.5 3.5t-53 1.5q-20 0 -44 -0.5t-49.5 -1.5t-48.5 -1q-7 0 -13 3.5t-6 10.5q0 9 5.5 14t15.5 7q38 8 52 20.5
t14 44.5v454q0 32 -13 45.5t-53 22.5q-10 2 -15.5 7t-5.5 14q0 7 6 11t13 4q23 0 48.5 -1t50 -2.5t44.5 -1.5q16 0 42 1.5t56.5 3t59 3t46.5 1.5q76 0 140.5 -23.5t113 -67t75.5 -102.5t27 -130q0 -67 -24 -128.5t-70 -110t-112 -76.5t-152 -28zM367 44q68 0 114 33.5
t68.5 93t22.5 138.5q0 67 -14.5 121.5t-42 93.5t-68 60.5t-91.5 21.5q-32 0 -53.5 -2t-32.5 -10t-11 -26v-436q0 -33 12.5 -52t37 -27.5t58.5 -8.5z" />
    <glyph glyph-name="Ntilde" unicode="&#xd1;" horiz-adv-x="809" 
d="M287 691q-5 0 -12 6.5t-7 9.5q0 6 9 22t22.5 34t26.5 31.5t20 13.5q19 0 40.5 -1.5t42.5 -2.5q19 -1 40 -2t44 -1q11 0 19.5 6t15.5 13q8 8 12.5 15t7.5 7q6 0 14.5 -6.5t8.5 -12.5q0 -3 -4.5 -10t-13.5 -18q-11 -16 -21 -31.5t-19 -28.5q-6 -9 -15 -11.5t-16 -2.5
q-8 0 -31 1.5t-50.5 3.5t-51.5 4t-34 2q-8 0 -16 -6t-14 -13q-6 -8 -11 -15t-7 -7zM680 -19q-13 0 -42 15.5t-60 54.5q-24 25 -50 54t-55 60t-58.5 63t-58.5 63.5t-58 62.5t-55 60t-50 54q-2 4 -6.5 7.5t-6.5 3.5q-4 0 -5.5 -7t-1.5 -12q-1 -46 0 -108t2.5 -125.5
t1.5 -115.5q0 -32 20 -50.5t59 -28.5q11 -2 19.5 -6.5t8.5 -13.5q0 -7 -8 -11t-17 -4q-27 0 -44 1.5t-31.5 2t-35.5 0.5q-22 0 -41.5 -1t-33 -2t-18.5 -1q-7 0 -15.5 3.5t-8.5 10.5q0 9 8 13t18 8q24 9 36.5 30t14.5 52q4 37 8.5 98t8.5 137.5t4 158.5q0 52 -26.5 75
t-64.5 37q-8 2 -18 7.5t-10 14.5t8 12.5t18 3.5q18 0 40.5 -1t47.5 -1.5t52 -1.5t54 -1q8 0 12.5 -3t8.5 -8q22 -25 47.5 -54t53.5 -60.5t57 -64t57.5 -65.5t56 -64t53.5 -60t48 -54q3 -4 7.5 -8.5t8.5 -4.5q8 0 8 15q0 31 0.5 72t0.5 87t-0.5 91t-2.5 83q-1 27 -20.5 40.5
t-53.5 22.5q-11 2 -19 7t-8 14q0 7 8 10.5t17 3.5q23 0 39 -0.5t29 -0.5h29q20 0 34 0.5t30.5 1.5t42.5 1q12 0 18.5 -4t6.5 -11q0 -15 -26 -20q-35 -7 -50 -20t-16 -42q0 -36 -0.5 -77t-2.5 -84t-3.5 -85.5t-2.5 -81.5t-1 -72q0 -23 3 -50.5t5.5 -50t2.5 -31.5
q0 -25 -7.5 -35t-20.5 -10z" />
    <glyph glyph-name="Ograve" unicode="&#xd2;" horiz-adv-x="760" 
d="M420 682q12 2 12 9t-11 21q-25 33 -50.5 64t-54.5 61q-13 14 -34 12q-8 -1 -25.5 -7t-32.5 -14t-13 -17q2 -10 19 -22q38 -25 82 -50t83 -49q9 -5 16 -7t9 -1zM375 -14q-69 0 -131.5 23.5t-111 67t-76 104t-27.5 134.5q0 68 22.5 130.5t67.5 111.5t111.5 78t153.5 29
q70 0 132.5 -23.5t110.5 -67t76 -104t28 -134.5q0 -67 -23 -130t-68 -112t-111.5 -78t-153.5 -29zM393 32q57 0 95.5 32t57.5 89t19 131q0 61 -11.5 120.5t-36 107.5t-62.5 76.5t-90 28.5q-56 0 -94.5 -32t-57.5 -88t-19 -130q0 -62 12 -121.5t36 -107.5t61.5 -77t89.5 -29z
" />
    <glyph glyph-name="Oacute" unicode="&#xd3;" horiz-adv-x="760" 
d="M344 682q-12 2 -12 9t11 21q25 33 50.5 64t54.5 61q13 14 34 12q8 -1 25.5 -7t32.5 -14t13 -17q-2 -10 -19 -22q-38 -25 -82 -50t-83 -49q-9 -5 -16 -7t-9 -1zM375 -14q-69 0 -131.5 23.5t-111 67t-76 104t-27.5 134.5q0 68 22.5 130.5t67.5 111.5t111.5 78t153.5 29
q70 0 132.5 -23.5t110.5 -67t76 -104t28 -134.5q0 -67 -23 -130t-68 -112t-111.5 -78t-153.5 -29zM393 32q57 0 95.5 32t57.5 89t19 131q0 61 -11.5 120.5t-36 107.5t-62.5 76.5t-90 28.5q-56 0 -94.5 -32t-57.5 -88t-19 -130q0 -62 12 -121.5t36 -107.5t61.5 -77t89.5 -29z
" />
    <glyph glyph-name="Ocircumflex" unicode="&#xd4;" horiz-adv-x="760" 
d="M248 693q-19 0 -19 12q0 9 8 15l105 94q17 16 27 22.5t23 6.5q14 0 24 -6.5t27 -22.5l104 -93q7 -6 7 -16q0 -13 -16 -13q-7 0 -23.5 5t-37.5 13t-40.5 16.5t-32.5 15.5q-7 4 -12 4t-12 -4q-12 -7 -31.5 -15t-40.5 -16t-37.5 -13t-22.5 -5zM375 -14q-69 0 -131.5 23.5
t-111 67t-76 104t-27.5 134.5q0 68 22.5 130.5t67.5 111.5t111.5 78t153.5 29q70 0 132.5 -23.5t110.5 -67t76 -104t28 -134.5q0 -67 -23 -130t-68 -112t-111.5 -78t-153.5 -29zM393 32q57 0 95.5 32t57.5 89t19 131q0 61 -11.5 120.5t-36 107.5t-62.5 76.5t-90 28.5
q-56 0 -94.5 -32t-57.5 -88t-19 -130q0 -62 12 -121.5t36 -107.5t61.5 -77t89.5 -29z" />
    <glyph glyph-name="Otilde" unicode="&#xd5;" horiz-adv-x="760" 
d="M254 691q-5 0 -12 6.5t-7 9.5q0 6 9 22t22.5 34t26.5 31.5t20 13.5q19 0 40.5 -1.5t42.5 -2.5q19 -1 40 -2t44 -1q11 0 19.5 6t15.5 13q8 8 12.5 15t7.5 7q6 0 14.5 -6.5t8.5 -12.5q0 -3 -4.5 -10t-13.5 -18q-11 -16 -21 -31.5t-19 -28.5q-6 -9 -15 -11.5t-16 -2.5
q-8 0 -31 1.5t-50.5 3.5t-51.5 4t-34 2q-8 0 -16 -6t-14 -13q-6 -8 -11 -15t-7 -7zM375 -14q-69 0 -131.5 23.5t-111 67t-76 104t-27.5 134.5q0 68 22.5 130.5t67.5 111.5t111.5 78t153.5 29q70 0 132.5 -23.5t110.5 -67t76 -104t28 -134.5q0 -67 -23 -130t-68 -112
t-111.5 -78t-153.5 -29zM393 32q57 0 95.5 32t57.5 89t19 131q0 61 -11.5 120.5t-36 107.5t-62.5 76.5t-90 28.5q-56 0 -94.5 -32t-57.5 -88t-19 -130q0 -62 12 -121.5t36 -107.5t61.5 -77t89.5 -29z" />
    <glyph glyph-name="Odieresis" unicode="&#xd6;" horiz-adv-x="760" 
d="M490 688q-29 0 -50 21t-21 50q0 31 21 51.5t50 20.5q32 0 53.5 -20.5t21.5 -51.5q0 -29 -21.5 -50t-53.5 -21zM293 688q-29 0 -50.5 21t-21.5 50q0 31 21.5 51.5t50.5 20.5q31 0 52.5 -20.5t21.5 -51.5q0 -29 -21.5 -50t-52.5 -21zM375 -14q-69 0 -131.5 23.5t-111 67
t-76 104t-27.5 134.5q0 68 22.5 130.5t67.5 111.5t111.5 78t153.5 29q70 0 132.5 -23.5t110.5 -67t76 -104t28 -134.5q0 -67 -23 -130t-68 -112t-111.5 -78t-153.5 -29zM393 32q57 0 95.5 32t57.5 89t19 131q0 61 -11.5 120.5t-36 107.5t-62.5 76.5t-90 28.5
q-56 0 -94.5 -32t-57.5 -88t-19 -130q0 -62 12 -121.5t36 -107.5t61.5 -77t89.5 -29z" />
    <glyph glyph-name="multiply" unicode="&#xd7;" horiz-adv-x="539" 
d="M435 51q-9 0 -17 8l-142 141q-8 9 -17 0l-135 -137q-4 -4 -9.5 -6t-9.5 -1q-7 0 -15.5 14t-8.5 29q0 11 6 17l128 127q6 6 6 9.5t-6 8.5l-131 132q-5 6 -5 14q0 12 7 24.5t12 17.5q4 4 10.5 3.5t10.5 -5.5l141 -142q5 -4 8.5 -4.5t7.5 4.5l142 142q6 6 13 6q6 0 9 -4
q5 -7 12 -18.5t7 -22.5q0 -8 -6 -15l-133 -133q-7 -8 0 -16l135 -132q6 -7 6 -18t-7.5 -27t-18.5 -16z" />
    <glyph glyph-name="Oslash" unicode="&#xd8;" horiz-adv-x="762" 
d="M77 -14q-18 0 -32.5 11t-14.5 23q0 19 16 34l642 602q8 10 22 8t17 -14q2 -6 4 -12.5t2 -13.5q0 -8 -2.5 -16t-9.5 -15l-629 -601l-6 -4t-9 -2zM375 -14q-69 0 -131.5 23.5t-111 67t-76 104t-27.5 134.5q0 68 22.5 130.5t67.5 111.5t111.5 78t153.5 29q70 0 132.5 -23.5
t110.5 -67t76 -104t28 -134.5q0 -67 -23 -130t-68 -112t-111.5 -78t-153.5 -29zM393 32q57 0 95.5 32t57.5 89t19 131q0 61 -11.5 120.5t-36 107.5t-62.5 76.5t-90 28.5q-56 0 -94.5 -32t-57.5 -88t-19 -130q0 -62 12 -121.5t36 -107.5t61.5 -77t89.5 -29z" />
    <glyph glyph-name="Ugrave" unicode="&#xd9;" horiz-adv-x="745" 
d="M434 682q12 2 12 9t-11 21q-25 33 -50.5 64t-54.5 61q-13 14 -34 12q-8 -1 -25.5 -7t-32.5 -14t-13 -17q2 -10 19 -22q38 -25 82 -50t83 -49q9 -5 16 -7t9 -1zM373 -14q-94 0 -157 33.5t-94.5 93.5t-31.5 140v285q0 28 -13 51t-38 29q-28 8 -28 22q0 7 7.5 11t18.5 4
q32 0 66 -2.5t64 -2.5q28 0 67.5 2t67.5 2q12 0 19.5 -3.5t7.5 -11.5q0 -11 -15 -16t-32 -13q-15 -6 -26 -24.5t-11 -52.5v-262q0 -68 22 -112t58.5 -65t81.5 -21q91 0 135.5 54t44.5 165q0 26 0.5 58.5t0.5 67t-1 65.5q-1 45 -6.5 70t-16.5 39t-30 23q-11 6 -25.5 10.5
t-14.5 13.5q0 8 8 11t22 3q36 0 54.5 -1t41.5 -1q19 0 31.5 1t26 2t32.5 1q12 0 19 -3t7 -12q0 -13 -27 -21q-33 -9 -46.5 -30.5t-15.5 -57.5q-3 -76 -4 -139.5t-1 -129.5q-1 -81 -36.5 -143.5t-96.5 -97.5t-136 -35z" />
    <glyph glyph-name="Uacute" unicode="&#xda;" horiz-adv-x="745" 
d="M359 682q-12 2 -12 9t11 21q25 33 50.5 64t54.5 61q13 14 34 12q8 -1 25.5 -7t32.5 -14t13 -17q-2 -10 -19 -22q-38 -25 -82 -50t-83 -49q-9 -5 -16 -7t-9 -1zM373 -14q-94 0 -157 33.5t-94.5 93.5t-31.5 140v285q0 28 -13 51t-38 29q-28 8 -28 22q0 7 7.5 11t18.5 4
q32 0 66 -2.5t64 -2.5q28 0 67.5 2t67.5 2q12 0 19.5 -3.5t7.5 -11.5q0 -11 -15 -16t-32 -13q-15 -6 -26 -24.5t-11 -52.5v-262q0 -68 22 -112t58.5 -65t81.5 -21q91 0 135.5 54t44.5 165q0 26 0.5 58.5t0.5 67t-1 65.5q-1 45 -6.5 70t-16.5 39t-30 23q-11 6 -25.5 10.5
t-14.5 13.5q0 8 8 11t22 3q36 0 54.5 -1t41.5 -1q19 0 31.5 1t26 2t32.5 1q12 0 19 -3t7 -12q0 -13 -27 -21q-33 -9 -46.5 -30.5t-15.5 -57.5q-3 -76 -4 -139.5t-1 -129.5q-1 -81 -36.5 -143.5t-96.5 -97.5t-136 -35z" />
    <glyph glyph-name="Ucircumflex" unicode="&#xdb;" horiz-adv-x="745" 
d="M262 693q-19 0 -19 12q0 9 8 15l105 94q17 16 27 22.5t23 6.5q14 0 24 -6.5t27 -22.5l104 -93q7 -6 7 -16q0 -13 -16 -13q-7 0 -23.5 5t-37.5 13t-40.5 16.5t-32.5 15.5q-7 4 -12 4t-12 -4q-12 -7 -31.5 -15t-40.5 -16t-37.5 -13t-22.5 -5zM373 -14q-94 0 -157 33.5
t-94.5 93.5t-31.5 140v285q0 28 -13 51t-38 29q-28 8 -28 22q0 7 7.5 11t18.5 4q32 0 66 -2.5t64 -2.5q28 0 67.5 2t67.5 2q12 0 19.5 -3.5t7.5 -11.5q0 -11 -15 -16t-32 -13q-15 -6 -26 -24.5t-11 -52.5v-262q0 -68 22 -112t58.5 -65t81.5 -21q91 0 135.5 54t44.5 165
q0 26 0.5 58.5t0.5 67t-1 65.5q-1 45 -6.5 70t-16.5 39t-30 23q-11 6 -25.5 10.5t-14.5 13.5q0 8 8 11t22 3q36 0 54.5 -1t41.5 -1q19 0 31.5 1t26 2t32.5 1q12 0 19 -3t7 -12q0 -13 -27 -21q-33 -9 -46.5 -30.5t-15.5 -57.5q-3 -76 -4 -139.5t-1 -129.5
q-1 -81 -36.5 -143.5t-96.5 -97.5t-136 -35z" />
    <glyph glyph-name="Udieresis" unicode="&#xdc;" horiz-adv-x="745" 
d="M504 688q-29 0 -50 21t-21 50q0 31 21 51.5t50 20.5q32 0 53.5 -20.5t21.5 -51.5q0 -29 -21.5 -50t-53.5 -21zM307 688q-29 0 -50.5 21t-21.5 50q0 31 21.5 51.5t50.5 20.5q31 0 52.5 -20.5t21.5 -51.5q0 -29 -21.5 -50t-52.5 -21zM373 -14q-94 0 -157 33.5t-94.5 93.5
t-31.5 140v285q0 28 -13 51t-38 29q-28 8 -28 22q0 7 7.5 11t18.5 4q32 0 66 -2.5t64 -2.5q28 0 67.5 2t67.5 2q12 0 19.5 -3.5t7.5 -11.5q0 -11 -15 -16t-32 -13q-15 -6 -26 -24.5t-11 -52.5v-262q0 -68 22 -112t58.5 -65t81.5 -21q91 0 135.5 54t44.5 165q0 26 0.5 58.5
t0.5 67t-1 65.5q-1 45 -6.5 70t-16.5 39t-30 23q-11 6 -25.5 10.5t-14.5 13.5q0 8 8 11t22 3q36 0 54.5 -1t41.5 -1q19 0 31.5 1t26 2t32.5 1q12 0 19 -3t7 -12q0 -13 -27 -21q-33 -9 -46.5 -30.5t-15.5 -57.5q-3 -76 -4 -139.5t-1 -129.5q-1 -81 -36.5 -143.5t-96.5 -97.5
t-136 -35z" />
    <glyph glyph-name="Yacute" unicode="&#xdd;" horiz-adv-x="654" 
d="M325 682q-12 2 -12 9t11 21q25 33 50.5 64t54.5 61q13 14 34 12q8 -1 25.5 -7t32.5 -14t13 -17q-2 -10 -19 -22q-38 -25 -82 -50t-83 -49q-9 -5 -16 -7t-9 -1zM193 -6q-13 0 -21 4.5t-8 11.5q0 9 9 14t21 7q38 8 53 27.5t15 51.5v138q0 35 -9.5 58t-21.5 43l-129 199
q-8 14 -19 28t-25.5 25.5t-33.5 16.5q-10 4 -17 8t-7 14q0 7 6.5 10.5t14.5 3.5q42 0 80.5 -3t81.5 -3q33 0 62.5 3t62.5 3q9 0 18 -3.5t9 -10.5q0 -8 -9 -13.5t-20 -7.5q-27 -7 -39 -14.5t-12 -23.5q0 -15 11 -35l103 -177q9 -18 18 -18q4 0 8.5 4.5t9.5 13.5
q24 41 45.5 81.5t42.5 86.5q5 10 8.5 21t3.5 20q0 19 -17.5 29t-36.5 11q-10 2 -20.5 7.5t-10.5 14.5q0 7 9.5 10t19.5 3q29 0 52 -2t50 -2q26 0 50 3.5t52 3.5q11 0 20.5 -3t9.5 -13q0 -9 -10 -13t-21 -8q-30 -7 -51 -25t-36 -43q-16 -26 -31.5 -50.5t-30 -48.5t-29.5 -48
t-30 -50q-8 -14 -14.5 -29t-10 -31t-3.5 -37v-147q0 -37 15 -52.5t54 -26.5q12 -3 20.5 -7t8.5 -13q0 -7 -7.5 -11.5t-18.5 -4.5q-22 0 -49 2t-53.5 3.5t-46.5 1.5q-21 0 -46 -1.5t-51 -4t-49 -2.5z" />
    <glyph glyph-name="Thorn" unicode="&#xde;" horiz-adv-x="590" 
d="M36 -3q-7 0 -13.5 3.5t-6.5 10.5q0 16 22 21q38 8 53 20.5t15 44.5v454q0 31 -12.5 45t-51.5 23q-22 5 -22 21q0 7 6.5 11t13.5 4q23 0 48.5 -1t49.5 -2.5t44 -1.5t46 1t53 2t49 1q9 0 14 -3.5t5 -10.5q0 -10 -5.5 -14t-16.5 -7q-38 -11 -51.5 -22.5t-15.5 -37.5v-11
q0 -3 1 -6t5 -3q2 0 8 1.5t11.5 3t3.5 1.5q18 5 37.5 6.5t39.5 1.5q54 0 100 -22.5t73.5 -67.5t27.5 -114q0 -71 -35.5 -120.5t-95 -75t-129.5 -25.5q-10 0 -21 1.5t-18 1.5q-8 0 -8 -9v-24q0 -29 14.5 -42.5t52.5 -23.5q11 -3 16.5 -7t5.5 -13q0 -7 -4.5 -11t-13.5 -4
q-22 0 -49 1.5t-53 2.5t-47 1q-20 0 -45.5 -1t-51.5 -2.5t-49 -1.5zM299 168q61 0 88 44t27 123q0 53 -11 92t-32 60.5t-50 21.5q-19 0 -33 -6.5t-21 -23t-7 -46.5v-199q0 -42 13.5 -54t25.5 -12z" />
    <glyph glyph-name="germandbls" unicode="&#xdf;" horiz-adv-x="580" 
d="M394 -14q-48 0 -72.5 17.5t-24.5 43.5q0 18 8.5 38.5t25.5 20.5q8 0 15.5 -5t19.5 -19q14 -16 28 -26t37 -10q14 0 29.5 10t15.5 31q0 19 -12 37.5t-33 37t-46 39.5q-27 24 -49 45t-35.5 42t-13.5 46q0 24 12.5 41.5t30.5 32.5t36 32q22 21 36 47t14 59q0 52 -23.5 85.5
t-71.5 33.5q-53 0 -80.5 -44t-27.5 -149v-398q0 -20 15 -29t37 -14q8 -2 14 -7t6 -13q0 -6 -6 -10t-12 -4q-19 0 -40 1.5t-40 2.5t-37 1q-17 0 -34.5 -1t-36 -2.5t-38.5 -1.5q-5 0 -12.5 3.5t-7.5 10.5q0 8 7.5 12.5t15.5 7.5q15 5 26.5 12t11.5 28v284q-10 0 -23 0.5
t-29 1.5q-6 1 -10 11.5t-4 17.5t9 10q14 5 28.5 10t28.5 13q4 80 29.5 135t64 88.5t83.5 48.5t87 15t74.5 -15.5t52 -41t19.5 -54.5q0 -44 -15.5 -70.5t-36.5 -49.5q-17 -19 -28 -40.5t-11 -59.5q0 -15 9.5 -29.5t26 -29t36.5 -33.5q24 -19 43 -39t30.5 -41.5t11.5 -46.5
q0 -36 -16.5 -66.5t-42.5 -54t-54.5 -36.5t-50.5 -13z" />
    <glyph glyph-name="agrave" unicode="&#xe0;" horiz-adv-x="438" 
d="M260 453q10 0 10 12q0 4 -1 9.5t-4 11.5q-8 19 -20.5 48t-25 56.5t-19.5 42.5q-8 15 -18.5 20t-26.5 5q-24 0 -41.5 -6t-17.5 -18q0 -5 2 -11.5t8 -13.5q19 -21 40.5 -46t43 -49t43.5 -45q16 -16 27 -16zM129 -14q-27 0 -50 13t-36.5 34t-13.5 46q0 34 21.5 57t63.5 41
l89 39q20 9 24.5 16t4.5 26l1 57q1 28 -10 44.5t-33 16.5q-13 0 -26 -5.5t-20 -12.5q-3 -4 -4.5 -9.5t-1.5 -11.5t1 -14.5t1 -14.5t-16 -15.5t-37 -17t-36 -7.5q-7 0 -12.5 6t-5.5 15q0 16 11 31.5t36 35.5q26 22 57 39t61.5 27t51.5 10q54 0 86 -34.5t30 -91.5l-5 -202
q-1 -23 8 -39t22 -16q19 0 33 13q3 3 6 3q5 0 8.5 -3t3.5 -8q0 -12 -18 -31q-19 -18 -40 -27.5t-44 -9.5q-56 0 -93 57h-2q-33 -30 -59.5 -43.5t-56.5 -13.5zM189 51q11 0 18 3.5t14 11.5q3 4 5 10.5t2 15.5l3 72q0 10 -3 13t-7 3q-2 0 -5 -1t-7 -3q-29 -14 -43 -28.5
t-14 -46.5q0 -29 12 -39.5t25 -10.5z" />
    <glyph glyph-name="aacute" unicode="&#xe1;" horiz-adv-x="438" 
d="M195 453q-10 0 -10 12q0 4 1 9.5t4 11.5q8 19 20.5 48t25 56.5t19.5 42.5q8 15 18.5 20t26.5 5q24 0 41.5 -6t17.5 -18q0 -5 -2 -11.5t-8 -13.5q-19 -21 -40.5 -46t-43 -49t-43.5 -45q-16 -16 -27 -16zM129 -14q-27 0 -50 13t-36.5 34t-13.5 46q0 34 21.5 57t63.5 41
l89 39q20 9 24.5 16t4.5 26l1 57q1 28 -10 44.5t-33 16.5q-13 0 -26 -5.5t-20 -12.5q-3 -4 -4.5 -9.5t-1.5 -11.5t1 -14.5t1 -14.5t-16 -15.5t-37 -17t-36 -7.5q-7 0 -12.5 6t-5.5 15q0 16 11 31.5t36 35.5q26 22 57 39t61.5 27t51.5 10q54 0 86 -34.5t30 -91.5l-5 -202
q-1 -23 8 -39t22 -16q19 0 33 13q3 3 6 3q5 0 8.5 -3t3.5 -8q0 -12 -18 -31q-19 -18 -40 -27.5t-44 -9.5q-56 0 -93 57h-2q-33 -30 -59.5 -43.5t-56.5 -13.5zM189 51q11 0 18 3.5t14 11.5q3 4 5 10.5t2 15.5l3 72q0 10 -3 13t-7 3q-2 0 -5 -1t-7 -3q-29 -14 -43 -28.5
t-14 -46.5q0 -29 12 -39.5t25 -10.5z" />
    <glyph glyph-name="acircumflex" unicode="&#xe2;" horiz-adv-x="438" 
d="M223 671q-9 0 -16.5 -9.5t-19.5 -29.5q-9 -16 -20 -33.5t-22 -36t-20.5 -36t-17.5 -32.5q-8 -16 -6 -27.5t16 -11.5q8 0 18 8.5t23 23.5q11 12 26 30t33 38q5 3 6.5 3t4.5 -3q19 -20 34.5 -38t25.5 -30q13 -15 23.5 -23.5t16.5 -8.5q10 0 14 11t-4 28q-7 15 -17 33
t-21 36t-22 36.5t-20 34.5q-10 17 -17.5 27t-17.5 10zM129 -14q-27 0 -50 13t-36.5 34t-13.5 46q0 34 21.5 57t63.5 41l89 39q20 9 24.5 16t4.5 26l1 57q1 28 -10 44.5t-33 16.5q-13 0 -26 -5.5t-20 -12.5q-3 -4 -4.5 -9.5t-1.5 -11.5t1 -14.5t1 -14.5t-16 -15.5t-37 -17
t-36 -7.5q-7 0 -12.5 6t-5.5 15q0 16 11 31.5t36 35.5q26 22 57 39t61.5 27t51.5 10q54 0 86 -34.5t30 -91.5l-5 -202q-1 -23 8 -39t22 -16q19 0 33 13q3 3 6 3q5 0 8.5 -3t3.5 -8q0 -12 -18 -31q-19 -18 -40 -27.5t-44 -9.5q-56 0 -93 57h-2q-33 -30 -59.5 -43.5
t-56.5 -13.5zM189 51q11 0 18 3.5t14 11.5q3 4 5 10.5t2 15.5l3 72q0 10 -3 13t-7 3q-2 0 -5 -1t-7 -3q-29 -14 -43 -28.5t-14 -46.5q0 -29 12 -39.5t25 -10.5z" />
    <glyph glyph-name="atilde" unicode="&#xe3;" horiz-adv-x="438" 
d="M95 465q-5 0 -13.5 7.5t-8.5 11.5q0 6 12 23.5t28.5 38t32 36t22.5 15.5q11 0 24.5 -3t43.5 -5q22 -1 40 -2.5t28 -1.5q9 0 18.5 5t16.5 15q11 12 15.5 18.5t8.5 6.5q6 0 14.5 -6.5t8.5 -12.5q0 -4 -6 -11.5t-16 -20.5q-11 -15 -22 -33t-21 -32q-6 -8 -15.5 -11t-15.5 -3
q-8 0 -28 1.5t-43 3t-44 3t-30 1.5q-8 0 -13 -3.5t-10 -9.5q-12 -16 -17.5 -23.5t-9.5 -7.5zM129 -14q-27 0 -50 13t-36.5 34t-13.5 46q0 34 21.5 57t63.5 41l89 39q20 9 24.5 16t4.5 26l1 57q1 28 -10 44.5t-33 16.5q-13 0 -26 -5.5t-20 -12.5q-3 -4 -4.5 -9.5t-1.5 -11.5
t1 -14.5t1 -14.5t-16 -15.5t-37 -17t-36 -7.5q-7 0 -12.5 6t-5.5 15q0 16 11 31.5t36 35.5q26 22 57 39t61.5 27t51.5 10q54 0 86 -34.5t30 -91.5l-5 -202q-1 -23 8 -39t22 -16q19 0 33 13q3 3 6 3q5 0 8.5 -3t3.5 -8q0 -12 -18 -31q-19 -18 -40 -27.5t-44 -9.5
q-56 0 -93 57h-2q-33 -30 -59.5 -43.5t-56.5 -13.5zM189 51q11 0 18 3.5t14 11.5q3 4 5 10.5t2 15.5l3 72q0 10 -3 13t-7 3q-2 0 -5 -1t-7 -3q-29 -14 -43 -28.5t-14 -46.5q0 -29 12 -39.5t25 -10.5z" />
    <glyph glyph-name="adieresis" unicode="&#xe4;" horiz-adv-x="438" 
d="M129 -14q-27 0 -50 13t-36.5 34t-13.5 46q0 34 21.5 57t63.5 41l89 39q20 9 24.5 16t4.5 26l1 57q1 28 -10 44.5t-33 16.5q-13 0 -26 -5.5t-20 -12.5q-3 -4 -4.5 -9.5t-1.5 -11.5t1 -14.5t1 -14.5t-16 -15.5t-37 -17t-36 -7.5q-7 0 -12.5 6t-5.5 15q0 16 11 31.5t36 35.5
q26 22 57 39t61.5 27t51.5 10q54 0 86 -34.5t30 -91.5l-5 -202q-1 -23 8 -39t22 -16q19 0 33 13q3 3 6 3q5 0 8.5 -3t3.5 -8q0 -12 -18 -31q-19 -18 -40 -27.5t-44 -9.5q-56 0 -93 57h-2q-33 -30 -59.5 -43.5t-56.5 -13.5zM189 51q11 0 18 3.5t14 11.5q3 4 5 10.5t2 15.5
l3 72q0 10 -3 13t-7 3q-2 0 -5 -1t-7 -3q-29 -14 -43 -28.5t-14 -46.5q0 -29 12 -39.5t25 -10.5zM317 494q-29 0 -50.5 21t-21.5 50q0 30 21.5 51t50.5 21q31 0 52.5 -21t21.5 -51q0 -29 -21.5 -50t-52.5 -21zM122 494q-29 0 -50 21t-21 50q0 30 21 51t50 21q32 0 53.5 -21
t21.5 -51q0 -29 -21.5 -50t-53.5 -21z" />
    <glyph glyph-name="aring" unicode="&#xe5;" horiz-adv-x="438" 
d="M216 480q-40 0 -70.5 25t-30.5 69q0 29 15.5 51.5t41 35.5t54.5 13q40 0 70.5 -24.5t30.5 -66.5q0 -31 -15.5 -54.5t-41 -36t-54.5 -12.5zM226 516q20 0 30.5 18.5t10.5 40.5q0 25 -14 42.5t-36 17.5q-21 0 -31.5 -17.5t-10.5 -41.5t14.5 -42t36.5 -18zM129 -14
q-27 0 -50 13t-36.5 34t-13.5 46q0 34 21.5 57t63.5 41l89 39q20 9 24.5 16t4.5 26l1 57q1 28 -10 44.5t-33 16.5q-13 0 -26 -5.5t-20 -12.5q-3 -4 -4.5 -9.5t-1.5 -11.5t1 -14.5t1 -14.5t-16 -15.5t-37 -17t-36 -7.5q-7 0 -12.5 6t-5.5 15q0 16 11 31.5t36 35.5
q26 22 57 39t61.5 27t51.5 10q54 0 86 -34.5t30 -91.5l-5 -202q-1 -23 8 -39t22 -16q19 0 33 13q3 3 6 3q5 0 8.5 -3t3.5 -8q0 -12 -18 -31q-19 -18 -40 -27.5t-44 -9.5q-56 0 -93 57h-2q-33 -30 -59.5 -43.5t-56.5 -13.5zM189 51q11 0 18 3.5t14 11.5q3 4 5 10.5t2 15.5
l3 72q0 10 -3 13t-7 3q-2 0 -5 -1t-7 -3q-29 -14 -43 -28.5t-14 -46.5q0 -29 12 -39.5t25 -10.5z" />
    <glyph glyph-name="ae" unicode="&#xe6;" horiz-adv-x="623" 
d="M134 -14q-28 0 -52 12.5t-38.5 33.5t-14.5 45q0 35 21 59.5t64 40.5l89 34q20 9 25 16t5 25l1 61q1 28 -10 44.5t-34 16.5q-13 0 -27 -7t-20 -14q-4 -7 -4 -19q0 -6 0.5 -13t0.5 -13q0 -8 -17 -17t-38 -16t-34 -7q-7 0 -12 6t-5 15q0 32 46 69q18 15 46 32.5t60 30
t61 12.5q24 0 43.5 -7.5t36.5 -22.5q4 -3 7 -3q4 0 8 3q22 13 47 21.5t58 8.5q43 0 77.5 -15t55 -41.5t20.5 -61.5q0 -16 -6.5 -24t-17.5 -10q-7 -2 -33 -10t-60 -18t-64.5 -20t-44.5 -15q-4 -1 -7.5 -6t-3.5 -12v-28q0 -23 13 -44t35.5 -34.5t49.5 -13.5q28 0 57.5 12.5
t51.5 40.5q5 6 13 6q11 0 11 -13q0 -4 -1 -10.5t-4 -11.5q-29 -53 -70.5 -85.5t-116.5 -32.5q-40 0 -73 12.5t-63 40.5q-2 2 -4.5 4t-4.5 2q-4 0 -8 -4q-15 -15 -30 -27.5t-35.5 -20t-49.5 -7.5zM189 51q11 0 18.5 4t13.5 11q4 5 7 11.5t3 15.5v61q0 9 -1 13.5t-5 4.5
t-11 -3q-18 -7 -31.5 -17t-22 -22t-8.5 -29q0 -29 12.5 -39.5t24.5 -10.5zM375 267q27 8 52.5 15t56.5 17q9 2 11.5 8t2.5 15q0 28 -14.5 48.5t-47.5 20.5q-17 0 -33 -8t-26.5 -21.5t-10.5 -32.5l-1 -54q0 -5 3 -7t7 -1z" />
    <glyph glyph-name="ccedilla" unicode="&#xe7;" horiz-adv-x="411" 
d="M211 -14q-53 0 -95.5 28.5t-67 77t-24.5 109.5q0 65 30 117t80.5 83t112.5 31q82 0 136 -54q9 -10 9 -18q0 -6 -9 -17.5t-20 -20.5t-19 -9q-9 0 -17.5 5.5t-16.5 12.5q-26 22 -52.5 35.5t-45.5 13.5q-38 0 -57.5 -31.5t-19.5 -102.5q0 -49 15.5 -84.5t44.5 -54.5t70 -19
q30 0 52 9.5t46 29.5q5 3 8.5 6t8.5 3q12 0 12 -16q0 -4 -1.5 -11.5t-6.5 -16.5q-9 -20 -34.5 -45t-60.5 -43t-78 -18zM159 -274q-22 0 -33 9t-11 39q0 14 4.5 19t12.5 5q12 0 27.5 -8t39.5 -8q15 0 22 10.5t7 29.5q0 21 -18 32t-38 11q-13 0 -19.5 -5t-13.5 -5
q-6 0 -14 6.5t-8 17.5q0 9 14 25l90 104h44l-36 -43q-5 -7 -5 -10q0 -5 12 -11q25 -11 40 -31t15 -53q0 -26 -13.5 -50t-33.5 -43t-42.5 -30t-42.5 -11z" />
    <glyph glyph-name="egrave" unicode="&#xe8;" horiz-adv-x="417" 
d="M272 453q10 0 10 12q0 4 -1 9.5t-4 11.5q-8 19 -20.5 48t-25 56.5t-19.5 42.5q-8 15 -18.5 20t-26.5 5q-24 0 -41.5 -6t-17.5 -18q0 -5 2 -11.5t8 -13.5q19 -21 40.5 -46t43 -49t43.5 -45q16 -16 27 -16zM211 -14q-54 0 -96.5 28.5t-67 78t-24.5 112.5t29 114.5t79 82
t110 30.5q43 0 77 -18.5t54.5 -49.5t20.5 -70q0 -38 -31 -38h-200q-14 0 -20.5 -8t-6.5 -27q0 -38 17 -69.5t46 -49.5t67 -18q29 0 53.5 11t48.5 30q4 3 7.5 5.5t6.5 2.5q10 0 10 -13q0 -11 -8 -30q-10 -25 -33.5 -49.5t-58.5 -39.5t-80 -15zM162 298h60q28 0 39 1t20 4
q5 2 8 10t3 18q0 27 -18.5 44t-45.5 17q-21 0 -39.5 -11.5t-30 -30t-10.5 -38.5q0 -14 14 -14z" />
    <glyph glyph-name="eacute" unicode="&#xe9;" horiz-adv-x="417" 
d="M208 453q-10 0 -10 12q0 4 1 9.5t4 11.5q8 19 20.5 48t25 56.5t19.5 42.5q8 15 18.5 20t26.5 5q24 0 41.5 -6t17.5 -18q0 -5 -2 -11.5t-8 -13.5q-19 -21 -40.5 -46t-43 -49t-43.5 -45q-16 -16 -27 -16zM211 -14q-54 0 -96.5 28.5t-67 78t-24.5 112.5t29 114.5t79 82
t110 30.5q43 0 77 -18.5t54.5 -49.5t20.5 -70q0 -38 -31 -38h-200q-14 0 -20.5 -8t-6.5 -27q0 -38 17 -69.5t46 -49.5t67 -18q29 0 53.5 11t48.5 30q4 3 7.5 5.5t6.5 2.5q10 0 10 -13q0 -11 -8 -30q-10 -25 -33.5 -49.5t-58.5 -39.5t-80 -15zM162 298h60q28 0 39 1t20 4
q5 2 8 10t3 18q0 27 -18.5 44t-45.5 17q-21 0 -39.5 -11.5t-30 -30t-10.5 -38.5q0 -14 14 -14z" />
    <glyph glyph-name="ecircumflex" unicode="&#xea;" horiz-adv-x="417" 
d="M236 671q-9 0 -16.5 -9.5t-19.5 -29.5q-9 -16 -20 -33.5t-22 -36t-20.5 -36t-17.5 -32.5q-8 -16 -6 -27.5t16 -11.5q8 0 18 8.5t23 23.5q11 12 26 30t33 38q5 3 6.5 3t4.5 -3q19 -20 34.5 -38t25.5 -30q13 -15 23.5 -23.5t16.5 -8.5q10 0 14 11t-4 28q-7 15 -17 33
t-21 36t-22 36.5t-20 34.5q-10 17 -17.5 27t-17.5 10zM211 -14q-54 0 -96.5 28.5t-67 78t-24.5 112.5t29 114.5t79 82t110 30.5q43 0 77 -18.5t54.5 -49.5t20.5 -70q0 -38 -31 -38h-200q-14 0 -20.5 -8t-6.5 -27q0 -38 17 -69.5t46 -49.5t67 -18q29 0 53.5 11t48.5 30
q4 3 7.5 5.5t6.5 2.5q10 0 10 -13q0 -11 -8 -30q-10 -25 -33.5 -49.5t-58.5 -39.5t-80 -15zM162 298h60q28 0 39 1t20 4q5 2 8 10t3 18q0 27 -18.5 44t-45.5 17q-21 0 -39.5 -11.5t-30 -30t-10.5 -38.5q0 -14 14 -14z" />
    <glyph glyph-name="edieresis" unicode="&#xeb;" horiz-adv-x="417" 
d="M211 -14q-54 0 -96.5 28.5t-67 78t-24.5 112.5t29 114.5t79 82t110 30.5q43 0 77 -18.5t54.5 -49.5t20.5 -70q0 -38 -31 -38h-200q-14 0 -20.5 -8t-6.5 -27q0 -38 17 -69.5t46 -49.5t67 -18q29 0 53.5 11t48.5 30q4 3 7.5 5.5t6.5 2.5q10 0 10 -13q0 -11 -8 -30
q-10 -25 -33.5 -49.5t-58.5 -39.5t-80 -15zM162 298h60q28 0 39 1t20 4q5 2 8 10t3 18q0 27 -18.5 44t-45.5 17q-21 0 -39.5 -11.5t-30 -30t-10.5 -38.5q0 -14 14 -14zM329 494q-29 0 -50.5 21t-21.5 50q0 30 21.5 51t50.5 21q31 0 52.5 -21t21.5 -51q0 -29 -21.5 -50
t-52.5 -21zM134 494q-29 0 -50 21t-21 50q0 30 21 51t50 21q32 0 53.5 -21t21.5 -51q0 -29 -21.5 -50t-53.5 -21z" />
    <glyph glyph-name="igrave" unicode="&#xec;" horiz-adv-x="295" 
d="M184 453q10 0 10 12q0 4 -1 9.5t-4 11.5q-8 19 -20.5 48t-25 56.5t-19.5 42.5q-8 15 -18.5 20t-26.5 5q-24 0 -41.5 -6t-17.5 -18q0 -5 2 -11.5t8 -13.5q19 -21 40.5 -46t43 -49t43.5 -45q16 -16 27 -16zM37 -3q-6 0 -11 3.5t-5 9.5q0 8 5 13t13 7q26 6 36.5 13.5
t10.5 23.5v216q0 34 -10.5 48.5t-32.5 17.5q-6 1 -9 6t-3 12q0 15 11 17q52 10 92.5 28t62.5 28q16 8 20 8q13 0 13 -12q-1 -17 -4.5 -42.5t-6 -52.5t-2.5 -52v-221q0 -14 10.5 -22t37.5 -16q8 -3 13 -7t5 -12q0 -13 -15 -13q-19 0 -40 1t-40.5 2t-37.5 1q-17 0 -35.5 -1
t-38 -2.5t-39.5 -1.5z" />
    <glyph glyph-name="iacute" unicode="&#xed;" horiz-adv-x="295" 
d="M120 453q-10 0 -10 12q0 4 1 9.5t4 11.5q8 19 20.5 48t25 56.5t19.5 42.5q8 15 18.5 20t26.5 5q24 0 41.5 -6t17.5 -18q0 -5 -2 -11.5t-8 -13.5q-19 -21 -40.5 -46t-43 -49t-43.5 -45q-16 -16 -27 -16zM37 -3q-6 0 -11 3.5t-5 9.5q0 8 5 13t13 7q26 6 36.5 13.5
t10.5 23.5v216q0 34 -10.5 48.5t-32.5 17.5q-6 1 -9 6t-3 12q0 15 11 17q52 10 92.5 28t62.5 28q16 8 20 8q13 0 13 -12q-1 -17 -4.5 -42.5t-6 -52.5t-2.5 -52v-221q0 -14 10.5 -22t37.5 -16q8 -3 13 -7t5 -12q0 -13 -15 -13q-19 0 -40 1t-40.5 2t-37.5 1q-17 0 -35.5 -1
t-38 -2.5t-39.5 -1.5z" />
    <glyph glyph-name="icircumflex" unicode="&#xee;" horiz-adv-x="295" 
d="M148 671q-9 0 -16.5 -9.5t-19.5 -29.5q-9 -16 -20 -33.5t-22 -36t-20.5 -36t-17.5 -32.5q-8 -16 -6 -27.5t16 -11.5q8 0 18 8.5t23 23.5q11 12 26 30t33 38q5 3 6.5 3t4.5 -3q19 -20 34.5 -38t25.5 -30q13 -15 23.5 -23.5t16.5 -8.5q10 0 14 11t-4 28q-7 15 -17 33
t-21 36t-22 36.5t-20 34.5q-10 17 -17.5 27t-17.5 10zM37 -3q-6 0 -11 3.5t-5 9.5q0 8 5 13t13 7q26 6 36.5 13.5t10.5 23.5v216q0 34 -10.5 48.5t-32.5 17.5q-6 1 -9 6t-3 12q0 15 11 17q52 10 92.5 28t62.5 28q16 8 20 8q13 0 13 -12q-1 -17 -4.5 -42.5t-6 -52.5t-2.5 -52
v-221q0 -14 10.5 -22t37.5 -16q8 -3 13 -7t5 -12q0 -13 -15 -13q-19 0 -40 1t-40.5 2t-37.5 1q-17 0 -35.5 -1t-38 -2.5t-39.5 -1.5z" />
    <glyph glyph-name="idieresis" unicode="&#xef;" horiz-adv-x="295" 
d="M37 -3q-6 0 -11 3.5t-5 9.5q0 8 5 13t13 7q26 6 36.5 13.5t10.5 23.5v216q0 34 -10.5 48.5t-32.5 17.5q-6 1 -9 6t-3 12q0 15 11 17q52 10 92.5 28t62.5 28q16 8 20 8q13 0 13 -12q-1 -17 -4.5 -42.5t-6 -52.5t-2.5 -52v-221q0 -14 10.5 -22t37.5 -16q8 -3 13 -7t5 -12
q0 -13 -15 -13q-19 0 -40 1t-40.5 2t-37.5 1q-17 0 -35.5 -1t-38 -2.5t-39.5 -1.5zM241 494q-29 0 -50.5 21t-21.5 50q0 30 21.5 51t50.5 21q31 0 52.5 -21t21.5 -51q0 -29 -21.5 -50t-52.5 -21zM46 494q-29 0 -50 21t-21 50q0 30 21 51t50 21q32 0 53.5 -21t21.5 -51
q0 -29 -21.5 -50t-53.5 -21z" />
    <glyph glyph-name="eth" unicode="&#xf0;" horiz-adv-x="514" 
d="M246 -14q-60 0 -111.5 26.5t-82.5 74t-31 108.5q0 65 32 119t88 86.5t127 32.5q9 0 16.5 -1.5t13.5 -4.5q3 -1 4.5 -0.5t0.5 5.5q-7 25 -17.5 56.5t-21.5 51.5l-125 -66q-10 -5 -18 1t-8 12q0 16 5 24.5t15 14.5l105 53q-27 34 -61 57t-77 31q-11 2 -22.5 6.5t-11.5 14.5
t13 13t31 3q56 0 111 -20.5t103 -59.5l107 57q8 4 19 2t11 -12q0 -13 -5 -22.5t-20 -17.5l-73 -40q35 -37 62.5 -89.5t43 -115.5t15.5 -136q0 -44 -15.5 -90t-45.5 -85.5t-74.5 -64t-102.5 -24.5zM262 32q27 0 44.5 19.5t27.5 62t10 112.5q0 30 -7 64.5t-16 55.5
q-16 21 -33 30t-39 9q-25 0 -45 -20.5t-31.5 -57.5t-11.5 -87q0 -47 14 -90t37 -70.5t50 -27.5z" />
    <glyph glyph-name="ntilde" unicode="&#xf1;" horiz-adv-x="566" 
d="M160 465q-5 0 -13.5 7.5t-8.5 11.5q0 6 12 23.5t28.5 38t32 36t22.5 15.5q11 0 24.5 -3t43.5 -5q22 -1 40 -2.5t28 -1.5q9 0 18.5 5t16.5 15q11 12 15.5 18.5t8.5 6.5q6 0 14.5 -6.5t8.5 -12.5q0 -4 -6 -11.5t-16 -20.5q-11 -15 -22 -33t-21 -32q-6 -8 -15.5 -11
t-15.5 -3q-8 0 -28 1.5t-43 3t-44 3t-30 1.5q-8 0 -13 -3.5t-10 -9.5q-12 -16 -17.5 -23.5t-9.5 -7.5zM41 -3q-7 0 -13.5 3.5t-6.5 10.5q0 8 7 12.5t16 7.5q15 5 26.5 11.5t11.5 26.5v229q0 22 -6.5 37t-24.5 19q-4 1 -7.5 5t-3.5 13q0 14 10 17q34 8 74.5 21.5t69.5 28.5
q4 2 9 5t9 3q6 0 7.5 -3.5t1.5 -8.5q0 -8 -2.5 -25.5t-2.5 -31.5q0 -4 0.5 -9t1.5 -6q34 33 69 51t81 18q52 0 87.5 -38.5t35.5 -104.5v-220q0 -20 11.5 -26.5t26.5 -11.5q8 -3 14 -7.5t6 -12.5q0 -7 -5.5 -10.5t-11.5 -3.5q-20 0 -37.5 1.5t-34 2.5t-34.5 1q-17 0 -34 -1
t-34 -2.5t-37 -1.5q-6 0 -11.5 3.5t-5.5 10.5q0 8 6 12.5t14 7.5q15 5 25 11.5t10 26.5v199q0 38 -17.5 59.5t-46.5 22.5q-22 0 -39 -7t-35 -19q-4 -4 -6 -9t-2 -10v-236q0 -20 11 -26.5t25 -11.5q20 -6 20 -20q0 -6 -5 -10t-12 -4q-20 0 -37 1.5t-32 2.5t-33 1
q-17 0 -34.5 -1t-36 -2.5t-38.5 -1.5z" />
    <glyph glyph-name="ograve" unicode="&#xf2;" horiz-adv-x="503" 
d="M295 453q10 0 10 12q0 4 -1 9.5t-4 11.5q-8 19 -20.5 48t-25 56.5t-19.5 42.5q-8 15 -18.5 20t-26.5 5q-24 0 -41.5 -6t-17.5 -18q0 -5 2 -11.5t8 -13.5q19 -21 40.5 -46t43 -49t43.5 -45q16 -16 27 -16zM237 -14q-60 0 -108 27t-76.5 74.5t-28.5 107.5q0 48 18 91t50 76
t75 52t92 19q62 0 112 -29t79.5 -76.5t29.5 -103.5q0 -64 -27.5 -118.5t-81 -87t-134.5 -32.5zM257 30q21 0 36.5 8.5t25.5 25.5q12 20 16.5 54.5t4.5 81.5q0 54 -12 96.5t-33.5 67.5t-50.5 25q-16 0 -29 -5.5t-23 -15.5q-17 -20 -23.5 -57t-6.5 -91q0 -48 12.5 -91.5
t34 -71t48.5 -27.5z" />
    <glyph glyph-name="oacute" unicode="&#xf3;" horiz-adv-x="503" 
d="M231 453q-10 0 -10 12q0 4 1 9.5t4 11.5q8 19 20.5 48t25 56.5t19.5 42.5q8 15 18.5 20t26.5 5q24 0 41.5 -6t17.5 -18q0 -5 -2 -11.5t-8 -13.5q-19 -21 -40.5 -46t-43 -49t-43.5 -45q-16 -16 -27 -16zM237 -14q-60 0 -108 27t-76.5 74.5t-28.5 107.5q0 48 18 91t50 76
t75 52t92 19q62 0 112 -29t79.5 -76.5t29.5 -103.5q0 -64 -27.5 -118.5t-81 -87t-134.5 -32.5zM257 30q21 0 36.5 8.5t25.5 25.5q12 20 16.5 54.5t4.5 81.5q0 54 -12 96.5t-33.5 67.5t-50.5 25q-16 0 -29 -5.5t-23 -15.5q-17 -20 -23.5 -57t-6.5 -91q0 -48 12.5 -91.5
t34 -71t48.5 -27.5z" />
    <glyph glyph-name="ocircumflex" unicode="&#xf4;" horiz-adv-x="503" 
d="M259 671q-9 0 -16.5 -9.5t-19.5 -29.5q-9 -16 -20 -33.5t-22 -36t-20.5 -36t-17.5 -32.5q-8 -16 -6 -27.5t16 -11.5q8 0 18 8.5t23 23.5q11 12 26 30t33 38q5 3 6.5 3t4.5 -3q19 -20 34.5 -38t25.5 -30q13 -15 23.5 -23.5t16.5 -8.5q10 0 14 11t-4 28q-7 15 -17 33
t-21 36t-22 36.5t-20 34.5q-10 17 -17.5 27t-17.5 10zM237 -14q-60 0 -108 27t-76.5 74.5t-28.5 107.5q0 48 18 91t50 76t75 52t92 19q62 0 112 -29t79.5 -76.5t29.5 -103.5q0 -64 -27.5 -118.5t-81 -87t-134.5 -32.5zM257 30q21 0 36.5 8.5t25.5 25.5q12 20 16.5 54.5
t4.5 81.5q0 54 -12 96.5t-33.5 67.5t-50.5 25q-16 0 -29 -5.5t-23 -15.5q-17 -20 -23.5 -57t-6.5 -91q0 -48 12.5 -91.5t34 -71t48.5 -27.5z" />
    <glyph glyph-name="otilde" unicode="&#xf5;" horiz-adv-x="503" 
d="M125 465q-5 0 -13.5 7.5t-8.5 11.5q0 6 12 23.5t28.5 38t32 36t22.5 15.5q11 0 24.5 -3t43.5 -5q22 -1 40 -2.5t28 -1.5q9 0 18.5 5t16.5 15q11 12 15.5 18.5t8.5 6.5q6 0 14.5 -6.5t8.5 -12.5q0 -4 -6 -11.5t-16 -20.5q-11 -15 -22 -33t-21 -32q-6 -8 -15.5 -11
t-15.5 -3q-8 0 -28 1.5t-43 3t-44 3t-30 1.5q-8 0 -13 -3.5t-10 -9.5q-12 -16 -17.5 -23.5t-9.5 -7.5zM237 -14q-60 0 -108 27t-76.5 74.5t-28.5 107.5q0 48 18 91t50 76t75 52t92 19q62 0 112 -29t79.5 -76.5t29.5 -103.5q0 -64 -27.5 -118.5t-81 -87t-134.5 -32.5zM257 30
q21 0 36.5 8.5t25.5 25.5q12 20 16.5 54.5t4.5 81.5q0 54 -12 96.5t-33.5 67.5t-50.5 25q-16 0 -29 -5.5t-23 -15.5q-17 -20 -23.5 -57t-6.5 -91q0 -48 12.5 -91.5t34 -71t48.5 -27.5z" />
    <glyph glyph-name="odieresis" unicode="&#xf6;" horiz-adv-x="503" 
d="M237 -14q-60 0 -108 27t-76.5 74.5t-28.5 107.5q0 48 18 91t50 76t75 52t92 19q62 0 112 -29t79.5 -76.5t29.5 -103.5q0 -64 -27.5 -118.5t-81 -87t-134.5 -32.5zM257 30q21 0 36.5 8.5t25.5 25.5q12 20 16.5 54.5t4.5 81.5q0 54 -12 96.5t-33.5 67.5t-50.5 25
q-16 0 -29 -5.5t-23 -15.5q-17 -20 -23.5 -57t-6.5 -91q0 -48 12.5 -91.5t34 -71t48.5 -27.5zM352 494q-29 0 -50.5 21t-21.5 50q0 30 21.5 51t50.5 21q31 0 52.5 -21t21.5 -51q0 -29 -21.5 -50t-52.5 -21zM157 494q-29 0 -50 21t-21 50q0 30 21 51t50 21q32 0 53.5 -21
t21.5 -51q0 -29 -21.5 -50t-53.5 -21z" />
    <glyph glyph-name="divide" unicode="&#xf7;" horiz-adv-x="600" 
d="M55 254q-6 0 -12 4t-6 8q0 6 3 17t10 19.5t18 8.5h472q9 0 16 -4.5t7 -9.5q0 -14 -10 -28.5t-26 -14.5h-472zM304 65q-28 0 -48.5 20t-20.5 48q0 30 20.5 50.5t48.5 20.5q30 0 50.5 -20.5t20.5 -50.5q0 -28 -20.5 -48t-50.5 -20zM303 350q-28 0 -48.5 20t-20.5 48
q0 30 20.5 50.5t48.5 20.5q30 0 50.5 -20.5t20.5 -50.5q0 -28 -20.5 -48t-50.5 -20z" />
    <glyph glyph-name="oslash" unicode="&#xf8;" horiz-adv-x="501" 
d="M52 -15q-11 0 -20.5 6.5t-9.5 15.5q0 21 13 32l407 385q9 9 21 9q17 0 17 -23q0 -7 -3.5 -17.5t-10.5 -17.5l-390 -380q-5 -4 -10 -7t-14 -3zM237 -14q-60 0 -108 27t-76.5 74.5t-28.5 107.5q0 48 18 91t50 76t75 52t92 19q62 0 112 -29t79.5 -76.5t29.5 -103.5
q0 -64 -27.5 -118.5t-81 -87t-134.5 -32.5zM257 30q21 0 36.5 8.5t25.5 25.5q12 20 16.5 54.5t4.5 81.5q0 54 -12 96.5t-33.5 67.5t-50.5 25q-16 0 -29 -5.5t-23 -15.5q-17 -20 -23.5 -57t-6.5 -91q0 -48 12.5 -91.5t34 -71t48.5 -27.5z" />
    <glyph glyph-name="ugrave" unicode="&#xf9;" horiz-adv-x="551" 
d="M320 453q10 0 10 12q0 4 -1 9.5t-4 11.5q-8 19 -20.5 48t-25 56.5t-19.5 42.5q-8 15 -18.5 20t-26.5 5q-24 0 -41.5 -6t-17.5 -18q0 -5 2 -11.5t8 -13.5q19 -21 40.5 -46t43 -49t43.5 -45q16 -16 27 -16zM346 -21q-8 0 -8 10q0 12 2.5 32t2.5 31q0 4 -0.5 7t-1.5 4
q-27 -33 -69 -55.5t-89 -22.5q-31 0 -56 18.5t-39.5 50.5t-14.5 72v187q0 23 -8.5 37t-31.5 19q-6 1 -10.5 5.5t-4.5 13.5q0 7 4 11.5t11 5.5q42 2 76 8.5t69 15.5q5 1 10.5 2.5t10.5 1.5q14 0 13 -14q-4 -23 -6 -38.5t-2 -38.5v-192q0 -24 8 -42t22 -28t31 -11q16 0 31.5 4
t29.5 18q6 5 13 20.5t7 41.5v161q0 18 -7 29.5t-19 18.5t-28 8q-11 1 -17.5 5.5t-6.5 16.5q0 10 7 15t17 5q51 3 81 5.5t49 5.5t38 7q3 1 7 2t6 1q15 0 15 -12q0 -3 -1 -7t-3 -8q-1 -4 -2.5 -17.5t-3 -28.5t-1.5 -24v-232q0 -23 5.5 -30.5t12.5 -7.5q5 0 15 -0.5t13 -0.5
q9 0 14 -5t5 -13q0 -9 -3.5 -14.5t-13.5 -6.5q-48 -4 -86.5 -16.5t-66.5 -23.5q-6 -2 -13 -4.5t-13 -2.5z" />
    <glyph glyph-name="uacute" unicode="&#xfa;" horiz-adv-x="551" 
d="M255 453q-10 0 -10 12q0 4 1 9.5t4 11.5q8 19 20.5 48t25 56.5t19.5 42.5q8 15 18.5 20t26.5 5q24 0 41.5 -6t17.5 -18q0 -5 -2 -11.5t-8 -13.5q-19 -21 -40.5 -46t-43 -49t-43.5 -45q-16 -16 -27 -16zM346 -21q-8 0 -8 10q0 12 2.5 32t2.5 31q0 4 -0.5 7t-1.5 4
q-27 -33 -69 -55.5t-89 -22.5q-31 0 -56 18.5t-39.5 50.5t-14.5 72v187q0 23 -8.5 37t-31.5 19q-6 1 -10.5 5.5t-4.5 13.5q0 7 4 11.5t11 5.5q42 2 76 8.5t69 15.5q5 1 10.5 2.5t10.5 1.5q14 0 13 -14q-4 -23 -6 -38.5t-2 -38.5v-192q0 -24 8 -42t22 -28t31 -11q16 0 31.5 4
t29.5 18q6 5 13 20.5t7 41.5v161q0 18 -7 29.5t-19 18.5t-28 8q-11 1 -17.5 5.5t-6.5 16.5q0 10 7 15t17 5q51 3 81 5.5t49 5.5t38 7q3 1 7 2t6 1q15 0 15 -12q0 -3 -1 -7t-3 -8q-1 -4 -2.5 -17.5t-3 -28.5t-1.5 -24v-232q0 -23 5.5 -30.5t12.5 -7.5q5 0 15 -0.5t13 -0.5
q9 0 14 -5t5 -13q0 -9 -3.5 -14.5t-13.5 -6.5q-48 -4 -86.5 -16.5t-66.5 -23.5q-6 -2 -13 -4.5t-13 -2.5z" />
    <glyph glyph-name="ucircumflex" unicode="&#xfb;" horiz-adv-x="551" 
d="M283 671q-9 0 -16.5 -9.5t-19.5 -29.5q-9 -16 -20 -33.5t-22 -36t-20.5 -36t-17.5 -32.5q-8 -16 -6 -27.5t16 -11.5q8 0 18 8.5t23 23.5q11 12 26 30t33 38q5 3 6.5 3t4.5 -3q19 -20 34.5 -38t25.5 -30q13 -15 23.5 -23.5t16.5 -8.5q10 0 14 11t-4 28q-7 15 -17 33
t-21 36t-22 36.5t-20 34.5q-10 17 -17.5 27t-17.5 10zM346 -21q-8 0 -8 10q0 12 2.5 32t2.5 31q0 4 -0.5 7t-1.5 4q-27 -33 -69 -55.5t-89 -22.5q-31 0 -56 18.5t-39.5 50.5t-14.5 72v187q0 23 -8.5 37t-31.5 19q-6 1 -10.5 5.5t-4.5 13.5q0 7 4 11.5t11 5.5q42 2 76 8.5
t69 15.5q5 1 10.5 2.5t10.5 1.5q14 0 13 -14q-4 -23 -6 -38.5t-2 -38.5v-192q0 -24 8 -42t22 -28t31 -11q16 0 31.5 4t29.5 18q6 5 13 20.5t7 41.5v161q0 18 -7 29.5t-19 18.5t-28 8q-11 1 -17.5 5.5t-6.5 16.5q0 10 7 15t17 5q51 3 81 5.5t49 5.5t38 7q3 1 7 2t6 1
q15 0 15 -12q0 -3 -1 -7t-3 -8q-1 -4 -2.5 -17.5t-3 -28.5t-1.5 -24v-232q0 -23 5.5 -30.5t12.5 -7.5q5 0 15 -0.5t13 -0.5q9 0 14 -5t5 -13q0 -9 -3.5 -14.5t-13.5 -6.5q-48 -4 -86.5 -16.5t-66.5 -23.5q-6 -2 -13 -4.5t-13 -2.5z" />
    <glyph glyph-name="udieresis" unicode="&#xfc;" horiz-adv-x="551" 
d="M346 -21q-8 0 -8 10q0 12 2.5 32t2.5 31q0 4 -0.5 7t-1.5 4q-27 -33 -69 -55.5t-89 -22.5q-31 0 -56 18.5t-39.5 50.5t-14.5 72v187q0 23 -8.5 37t-31.5 19q-6 1 -10.5 5.5t-4.5 13.5q0 7 4 11.5t11 5.5q42 2 76 8.5t69 15.5q5 1 10.5 2.5t10.5 1.5q14 0 13 -14
q-4 -23 -6 -38.5t-2 -38.5v-192q0 -24 8 -42t22 -28t31 -11q16 0 31.5 4t29.5 18q6 5 13 20.5t7 41.5v161q0 18 -7 29.5t-19 18.5t-28 8q-11 1 -17.5 5.5t-6.5 16.5q0 10 7 15t17 5q51 3 81 5.5t49 5.5t38 7q3 1 7 2t6 1q15 0 15 -12q0 -3 -1 -7t-3 -8q-1 -4 -2.5 -17.5
t-3 -28.5t-1.5 -24v-232q0 -23 5.5 -30.5t12.5 -7.5q5 0 15 -0.5t13 -0.5q9 0 14 -5t5 -13q0 -9 -3.5 -14.5t-13.5 -6.5q-48 -4 -86.5 -16.5t-66.5 -23.5q-6 -2 -13 -4.5t-13 -2.5zM377 494q-29 0 -50.5 21t-21.5 50q0 30 21.5 51t50.5 21q31 0 52.5 -21t21.5 -51
q0 -29 -21.5 -50t-52.5 -21zM182 494q-29 0 -50 21t-21 50q0 30 21 51t50 21q32 0 53.5 -21t21.5 -51q0 -29 -21.5 -50t-53.5 -21z" />
    <glyph glyph-name="yacute" unicode="&#xfd;" horiz-adv-x="481" 
d="M251 453q-10 0 -10 12q0 4 1 9.5t4 11.5q8 19 20.5 48t25 56.5t19.5 42.5q8 15 18.5 20t26.5 5q24 0 41.5 -6t17.5 -18q0 -5 -2 -11.5t-8 -13.5q-19 -21 -40.5 -46t-43 -49t-43.5 -45q-16 -16 -27 -16zM85 -283q-26 0 -50 18t-24 45q0 19 10 37.5t31 18.5q16 0 32.5 -5.5
t31.5 -4.5q15 2 21 7.5t14 20.5q7 12 13.5 23.5t15 29t21.5 45.5q12 27 12 48q0 15 -4.5 27.5t-9.5 24.5l-123 279q-9 23 -20 38t-30 21q-9 4 -14 8.5t-5 13.5q0 7 9 9t16 2q24 0 40.5 -1t29.5 -2t26 -1q22 0 37 1t32 2t40 1q7 0 15 -3t8 -10q0 -9 -7.5 -12.5t-15.5 -7.5
q-11 -4 -17 -12t-6 -26q0 -8 2.5 -19t8.5 -27l62 -151q1 -3 3 -3q1 0 3 3l51 153q3 8 5.5 19.5t2.5 20.5q0 17 -10 27.5t-21 14.5q-8 3 -15.5 7t-7.5 13q0 7 8 10t15 3q27 -1 42 -2.5t31 -1.5q10 0 18.5 0.5t20.5 1.5t29 2q7 0 15.5 -2t8.5 -9q0 -9 -4.5 -13.5t-13.5 -8.5
q-19 -6 -34 -22.5t-25 -39.5l-149 -358q-8 -20 -18 -43.5t-20.5 -48.5t-21.5 -51t-22 -51q-12 -29 -37 -44t-56 -15z" />
    <glyph glyph-name="thorn" unicode="&#xfe;" horiz-adv-x="548" 
d="M36 -262q-7 0 -14 3.5t-7 10.5q0 8 7 12.5t16 7.5q22 7 30.5 14.5t8.5 24.5v739q0 26 -7.5 46.5t-32.5 25.5q-10 2 -10 15t9 15q26 5 55.5 15t57 20t42.5 15q4 2 6.5 2.5t5.5 0.5q6 0 8 -3.5t2 -8.5q0 -7 -2.5 -26t-3.5 -43l1 -215v-24.5t1 -21.5q14 11 38 26t54 25.5
t58 10.5q53 0 91 -28.5t58 -73t20 -93.5q0 -47 -18 -91t-50 -79.5t-73.5 -56.5t-90.5 -21q-17 0 -41.5 6t-43.5 15q-1 0 -2 -3t-1.5 -7t-0.5 -8v-165q0 -22 12.5 -31.5t37.5 -16.5q11 -3 17 -7.5t6 -12.5q0 -6 -5.5 -10t-12.5 -4q-20 0 -40.5 1.5t-40 2.5t-37.5 1
q-17 0 -34.5 -1t-35.5 -2.5t-38 -1.5zM293 28q11 0 27 8.5t31 27.5t25.5 51t10.5 79q0 55 -11 87.5t-26.5 48.5t-32 21.5t-28.5 5.5q-19 0 -34 -7t-28 -21q-8 -7 -13.5 -22t-5.5 -45v-141q0 -13 4 -34.5t14 -34.5q8 -9 25.5 -16.5t41.5 -7.5z" />
    <glyph glyph-name="ydieresis" unicode="&#xff;" horiz-adv-x="481" 
d="M85 -283q-26 0 -50 18t-24 45q0 19 10 37.5t31 18.5q16 0 32.5 -5.5t31.5 -4.5q15 2 21 7.5t14 20.5q7 12 13.5 23.5t15 29t21.5 45.5q12 27 12 48q0 15 -4.5 27.5t-9.5 24.5l-123 279q-9 23 -20 38t-30 21q-9 4 -14 8.5t-5 13.5q0 7 9 9t16 2q24 0 40.5 -1t29.5 -2
t26 -1q22 0 37 1t32 2t40 1q7 0 15 -3t8 -10q0 -9 -7.5 -12.5t-15.5 -7.5q-11 -4 -17 -12t-6 -26q0 -8 2.5 -19t8.5 -27l62 -151q1 -3 3 -3q1 0 3 3l51 153q3 8 5.5 19.5t2.5 20.5q0 17 -10 27.5t-21 14.5q-8 3 -15.5 7t-7.5 13q0 7 8 10t15 3q27 -1 42 -2.5t31 -1.5
q10 0 18.5 0.5t20.5 1.5t29 2q7 0 15.5 -2t8.5 -9q0 -9 -4.5 -13.5t-13.5 -8.5q-19 -6 -34 -22.5t-25 -39.5l-149 -358q-8 -20 -18 -43.5t-20.5 -48.5t-21.5 -51t-22 -51q-12 -29 -37 -44t-56 -15zM372 494q-29 0 -50.5 21t-21.5 50q0 30 21.5 51t50.5 21q31 0 52.5 -21
t21.5 -51q0 -29 -21.5 -50t-52.5 -21zM177 494q-29 0 -50 21t-21 50q0 30 21 51t50 21q32 0 53.5 -21t21.5 -51q0 -29 -21.5 -50t-53.5 -21z" />
    <glyph glyph-name="Amacron" unicode="&#x100;" horiz-adv-x="720" 
d="M235 717q-9 0 -14 6t-5 12q0 17 5 31.5t14 23t18 8.5h269q9 0 13.5 -5.5t4.5 -12.5q0 -24 -12 -43.5t-29 -19.5h-264zM22 -5q-11 0 -18.5 3.5t-7.5 12.5q0 10 6.5 14.5t17.5 7.5q29 8 50.5 25t32.5 42q25 56 47 110.5t43 108t42 109t42 112.5q15 41 19 59.5t6 21.5
q18 5 34 9t34 11t30.5 18t18.5 17q4 3 8 3.5t8 -6.5q3 -6 5.5 -12.5t4.5 -14.5q21 -67 43 -136.5t44.5 -138.5t44.5 -136.5t43 -131.5q6 -20 18.5 -34t28.5 -22t36 -14q11 -3 17.5 -7.5t6.5 -13.5q0 -7 -6 -11t-14 -4q-20 0 -49.5 1.5t-59.5 2.5t-53 1q-19 0 -46.5 -1
t-55.5 -2t-48 -1q-9 0 -15.5 3.5t-6.5 10.5q0 9 7 14t17 7q37 8 54 21t11 39q-4 19 -10 40t-11.5 42.5t-11.5 41.5q-2 8 -5 12t-12 4h-177q-7 0 -11 -4t-6 -13q-4 -14 -9 -28t-9.5 -28t-8.5 -28t-8 -27q-7 -30 6 -46t56 -26q24 -5 24 -21q0 -7 -5.5 -10.5t-17.5 -3.5
q-29 0 -54 1.5t-55 1.5t-57 -3t-58 -3zM263 287h130q15 0 15 7q0 3 -0.5 5t-1.5 5l-67 226q-3 11 -6 11q-2 0 -7 -11l-79 -226q-2 -4 -2 -8q0 -5 5.5 -7t12.5 -2z" />
    <glyph glyph-name="amacron" unicode="&#x101;" horiz-adv-x="438" 
d="M129 -14q-27 0 -50 13t-36.5 34t-13.5 46q0 34 21.5 57t63.5 41l89 39q20 9 24.5 16t4.5 26l1 57q1 28 -10 44.5t-33 16.5q-13 0 -26 -5.5t-20 -12.5q-3 -4 -4.5 -9.5t-1.5 -11.5t1 -14.5t1 -14.5t-16 -15.5t-37 -17t-36 -7.5q-7 0 -12.5 6t-5.5 15q0 16 11 31.5t36 35.5
q26 22 57 39t61.5 27t51.5 10q54 0 86 -34.5t30 -91.5l-5 -202q-1 -23 8 -39t22 -16q19 0 33 13q3 3 6 3q5 0 8.5 -3t3.5 -8q0 -12 -18 -31q-19 -18 -40 -27.5t-44 -9.5q-56 0 -93 57h-2q-33 -30 -59.5 -43.5t-56.5 -13.5zM189 51q11 0 18 3.5t14 11.5q3 4 5 10.5t2 15.5
l3 72q0 10 -3 13t-7 3q-2 0 -5 -1t-7 -3q-29 -14 -43 -28.5t-14 -46.5q0 -29 12 -39.5t25 -10.5zM86 508q-9 0 -14.5 5.5t-5.5 11.5q0 18 5.5 32t14 22.5t17.5 8.5h258q9 0 14 -5t5 -13q0 -24 -12 -43t-29 -19h-253z" />
    <glyph glyph-name="Abreve" unicode="&#x102;" horiz-adv-x="720" 
d="M377 686q-49 0 -81.5 21.5t-48 50.5t-15.5 52q0 13 2.5 19.5t10.5 6.5q9 0 15 -6t14 -15q22 -25 45.5 -36t57.5 -11t57.5 11t45.5 36q8 9 14 15t15 6t11 -6.5t2 -19.5q0 -23 -15.5 -52t-47.5 -50.5t-82 -21.5zM22 -5q-11 0 -18.5 3.5t-7.5 12.5q0 10 6.5 14.5t17.5 7.5
q29 8 50.5 25t32.5 42q25 56 47 110.5t43 108t42 109t42 112.5q15 41 19 59.5t6 21.5q18 5 34 9t34 11t30.5 18t18.5 17q4 3 8 3.5t8 -6.5q3 -6 5.5 -12.5t4.5 -14.5q21 -67 43 -136.5t44.5 -138.5t44.5 -136.5t43 -131.5q6 -20 18.5 -34t28.5 -22t36 -14q11 -3 17.5 -7.5
t6.5 -13.5q0 -7 -6 -11t-14 -4q-20 0 -49.5 1.5t-59.5 2.5t-53 1q-19 0 -46.5 -1t-55.5 -2t-48 -1q-9 0 -15.5 3.5t-6.5 10.5q0 9 7 14t17 7q37 8 54 21t11 39q-4 19 -10 40t-11.5 42.5t-11.5 41.5q-2 8 -5 12t-12 4h-177q-7 0 -11 -4t-6 -13q-4 -14 -9 -28t-9.5 -28
t-8.5 -28t-8 -27q-7 -30 6 -46t56 -26q24 -5 24 -21q0 -7 -5.5 -10.5t-17.5 -3.5q-29 0 -54 1.5t-55 1.5t-57 -3t-58 -3zM263 287h130q15 0 15 7q0 3 -0.5 5t-1.5 5l-67 226q-3 11 -6 11q-2 0 -7 -11l-79 -226q-2 -4 -2 -8q0 -5 5.5 -7t12.5 -2z" />
    <glyph glyph-name="abreve" unicode="&#x103;" horiz-adv-x="438" 
d="M223 468q-37 0 -61 13t-38.5 32.5t-20.5 40t-6 35.5q0 17 7.5 25.5t15.5 8.5q9 0 14 -6t7 -15q7 -27 27 -39.5t55 -12.5q36 0 55.5 12.5t26.5 39.5q2 9 7 15t14 6q8 0 15.5 -8.5t7.5 -25.5q0 -15 -6 -35.5t-20.5 -40t-38.5 -32.5t-61 -13zM129 -14q-27 0 -50 13t-36.5 34
t-13.5 46q0 34 21.5 57t63.5 41l89 39q20 9 24.5 16t4.5 26l1 57q1 28 -10 44.5t-33 16.5q-13 0 -26 -5.5t-20 -12.5q-3 -4 -4.5 -9.5t-1.5 -11.5t1 -14.5t1 -14.5t-16 -15.5t-37 -17t-36 -7.5q-7 0 -12.5 6t-5.5 15q0 16 11 31.5t36 35.5q26 22 57 39t61.5 27t51.5 10
q54 0 86 -34.5t30 -91.5l-5 -202q-1 -23 8 -39t22 -16q19 0 33 13q3 3 6 3q5 0 8.5 -3t3.5 -8q0 -12 -18 -31q-19 -18 -40 -27.5t-44 -9.5q-56 0 -93 57h-2q-33 -30 -59.5 -43.5t-56.5 -13.5zM189 51q11 0 18 3.5t14 11.5q3 4 5 10.5t2 15.5l3 72q0 10 -3 13t-7 3
q-2 0 -5 -1t-7 -3q-29 -14 -43 -28.5t-14 -46.5q0 -29 12 -39.5t25 -10.5z" />
    <glyph glyph-name="Aogonek" unicode="&#x104;" horiz-adv-x="720" 
d="M561 -287q-53 0 -86 29.5t-33 83.5q0 26 11.5 49.5t29.5 44.5t40.5 39t46 33t42.5 26h41q-17 -16 -35 -33.5t-32.5 -38.5t-23.5 -43.5t-9 -49.5q0 -24 15.5 -39t40.5 -15q15 0 26.5 4.5t21 11t17.5 14.5q6 5 15.5 4t9.5 -17q0 -18 -11.5 -36t-31 -33.5t-44 -24.5
t-51.5 -9zM22 -5q-11 0 -18.5 3.5t-7.5 12.5q0 10 6.5 14.5t17.5 7.5q29 8 50.5 25t32.5 42q25 56 47 110.5t43 108t42 109t42 112.5q15 41 19 59.5t6 21.5q18 5 34 9t34 11t30.5 18t18.5 17q4 3 8 3.5t8 -6.5q3 -6 5.5 -12.5t4.5 -14.5q21 -67 43 -136.5t44.5 -138.5
t44.5 -136.5t43 -131.5q6 -20 18.5 -34t28.5 -22t36 -14q11 -3 17.5 -7.5t6.5 -13.5q0 -7 -6 -11t-14 -4q-20 0 -49.5 1.5t-59.5 2.5t-53 1q-19 0 -46.5 -1t-55.5 -2t-48 -1q-9 0 -15.5 3.5t-6.5 10.5q0 9 7 14t17 7q37 8 54 21t11 39q-4 19 -10 40t-11.5 42.5t-11.5 41.5
q-2 8 -5 12t-12 4h-177q-7 0 -11 -4t-6 -13q-4 -14 -9 -28t-9.5 -28t-8.5 -28t-8 -27q-7 -30 6 -46t56 -26q24 -5 24 -21q0 -7 -5.5 -10.5t-17.5 -3.5q-29 0 -54 1.5t-55 1.5t-57 -3t-58 -3zM263 287h130q15 0 15 7q0 3 -0.5 5t-1.5 5l-67 226q-3 11 -6 11q-2 0 -7 -11
l-79 -226q-2 -4 -2 -8q0 -5 5.5 -7t12.5 -2z" />
    <glyph glyph-name="aogonek" unicode="&#x105;" horiz-adv-x="438" 
d="M331 -287q-48 0 -75.5 30t-27.5 78q0 25 8 48t22.5 45t32.5 41.5t38.5 35.5t40.5 27h42q-27 -24 -47 -49.5t-31 -53.5t-11 -61q0 -28 14 -42t38 -14q17 0 29.5 7t24.5 18q5 5 13.5 5t8.5 -16q0 -22 -15.5 -45t-42.5 -38.5t-62 -15.5zM129 -14q-27 0 -50 13t-36.5 34
t-13.5 46q0 34 21.5 57t63.5 41l89 39q20 9 24.5 16t4.5 26l1 57q1 28 -10 44.5t-33 16.5q-13 0 -26 -5.5t-20 -12.5q-3 -4 -4.5 -9.5t-1.5 -11.5t1 -14.5t1 -14.5t-16 -15.5t-37 -17t-36 -7.5q-7 0 -12.5 6t-5.5 15q0 16 11 31.5t36 35.5q26 22 57 39t61.5 27t51.5 10
q54 0 86 -34.5t30 -91.5l-5 -202q-1 -23 8 -39t22 -16q19 0 33 13q3 3 6 3q5 0 8.5 -3t3.5 -8q0 -12 -18 -31q-19 -18 -40 -27.5t-44 -9.5q-56 0 -93 57h-2q-33 -30 -59.5 -43.5t-56.5 -13.5zM189 51q11 0 18 3.5t14 11.5q3 4 5 10.5t2 15.5l3 72q0 10 -3 13t-7 3
q-2 0 -5 -1t-7 -3q-29 -14 -43 -28.5t-14 -46.5q0 -29 12 -39.5t25 -10.5z" />
    <glyph glyph-name="Cacute" unicode="&#x106;" horiz-adv-x="709" 
d="M357 682q-12 2 -12 9t11 21q25 33 50.5 64t54.5 61q13 14 34 12q8 -1 25.5 -7t32.5 -14t13 -17q-2 -10 -19 -22q-38 -25 -82 -50t-83 -49q-9 -5 -16 -7t-9 -1zM405 -14q-78 0 -146 23.5t-120 67t-81 104.5t-29 135q0 69 27.5 131.5t80.5 111t127.5 77t168.5 28.5
q32 0 64.5 -4.5t63 -12.5t55.5 -17q9 -4 15.5 -10.5t7.5 -18.5q4 -33 6 -64t2 -56q0 -11 -8 -15t-17.5 -0.5t-13.5 15.5q-7 23 -16.5 46t-28.5 40q-20 20 -55.5 33t-85.5 13q-51 0 -92.5 -22t-71 -60t-45.5 -86t-16 -100q0 -66 14 -122.5t43 -97.5t71 -64t99 -23
q74 0 120 31.5t77 96.5q8 18 22.5 17t14.5 -17q0 -13 -2.5 -31.5t-7.5 -39.5t-12 -43q-4 -12 -10.5 -18.5t-16.5 -11.5q-38 -16 -90 -26t-114 -10z" />
    <glyph glyph-name="cacute" unicode="&#x107;" horiz-adv-x="411" 
d="M204 453q-10 0 -10 12q0 4 1 9.5t4 11.5q8 19 20.5 48t25 56.5t19.5 42.5q8 15 18.5 20t26.5 5q24 0 41.5 -6t17.5 -18q0 -5 -2 -11.5t-8 -13.5q-19 -21 -40.5 -46t-43 -49t-43.5 -45q-16 -16 -27 -16zM211 -14q-53 0 -95.5 28.5t-67 77t-24.5 109.5q0 65 30 117t80.5 83
t112.5 31q82 0 136 -54q9 -10 9 -18q0 -6 -9 -17.5t-20 -20.5t-19 -9q-9 0 -17.5 5.5t-16.5 12.5q-26 22 -52.5 35.5t-45.5 13.5q-38 0 -57.5 -31.5t-19.5 -102.5q0 -49 15.5 -84.5t44.5 -54.5t70 -19q30 0 52 9.5t46 29.5q5 3 8.5 6t8.5 3q12 0 12 -16q0 -4 -1.5 -11.5
t-6.5 -16.5q-9 -20 -34.5 -45t-60.5 -43t-78 -18z" />
    <glyph glyph-name="Ccircumflex" unicode="&#x108;" horiz-adv-x="709" 
d="M260 693q-19 0 -19 12q0 9 8 15l105 94q17 16 27 22.5t23 6.5q14 0 24 -6.5t27 -22.5l104 -93q7 -6 7 -16q0 -13 -16 -13q-7 0 -23.5 5t-37.5 13t-40.5 16.5t-32.5 15.5q-7 4 -12 4t-12 -4q-12 -7 -31.5 -15t-40.5 -16t-37.5 -13t-22.5 -5zM405 -14q-78 0 -146 23.5
t-120 67t-81 104.5t-29 135q0 69 27.5 131.5t80.5 111t127.5 77t168.5 28.5q32 0 64.5 -4.5t63 -12.5t55.5 -17q9 -4 15.5 -10.5t7.5 -18.5q4 -33 6 -64t2 -56q0 -11 -8 -15t-17.5 -0.5t-13.5 15.5q-7 23 -16.5 46t-28.5 40q-20 20 -55.5 33t-85.5 13q-51 0 -92.5 -22
t-71 -60t-45.5 -86t-16 -100q0 -66 14 -122.5t43 -97.5t71 -64t99 -23q74 0 120 31.5t77 96.5q8 18 22.5 17t14.5 -17q0 -13 -2.5 -31.5t-7.5 -39.5t-12 -43q-4 -12 -10.5 -18.5t-16.5 -11.5q-38 -16 -90 -26t-114 -10z" />
    <glyph glyph-name="ccircumflex" unicode="&#x109;" horiz-adv-x="411" 
d="M232 671q-9 0 -16.5 -9.5t-19.5 -29.5q-9 -16 -20 -33.5t-22 -36t-20.5 -36t-17.5 -32.5q-8 -16 -6 -27.5t16 -11.5q8 0 18 8.5t23 23.5q11 12 26 30t33 38q5 3 6.5 3t4.5 -3q19 -20 34.5 -38t25.5 -30q13 -15 23.5 -23.5t16.5 -8.5q10 0 14 11t-4 28q-7 15 -17 33
t-21 36t-22 36.5t-20 34.5q-10 17 -17.5 27t-17.5 10zM211 -14q-53 0 -95.5 28.5t-67 77t-24.5 109.5q0 65 30 117t80.5 83t112.5 31q82 0 136 -54q9 -10 9 -18q0 -6 -9 -17.5t-20 -20.5t-19 -9q-9 0 -17.5 5.5t-16.5 12.5q-26 22 -52.5 35.5t-45.5 13.5q-38 0 -57.5 -31.5
t-19.5 -102.5q0 -49 15.5 -84.5t44.5 -54.5t70 -19q30 0 52 9.5t46 29.5q5 3 8.5 6t8.5 3q12 0 12 -16q0 -4 -1.5 -11.5t-6.5 -16.5q-9 -20 -34.5 -45t-60.5 -43t-78 -18z" />
    <glyph glyph-name="Cdotaccent" unicode="&#x10a;" horiz-adv-x="709" 
d="M404 693q-34 0 -58.5 22t-24.5 53q0 33 24.5 55t58.5 22q36 0 61.5 -22t25.5 -55q0 -31 -25.5 -53t-61.5 -22zM405 -14q-78 0 -146 23.5t-120 67t-81 104.5t-29 135q0 69 27.5 131.5t80.5 111t127.5 77t168.5 28.5q32 0 64.5 -4.5t63 -12.5t55.5 -17q9 -4 15.5 -10.5
t7.5 -18.5q4 -33 6 -64t2 -56q0 -11 -8 -15t-17.5 -0.5t-13.5 15.5q-7 23 -16.5 46t-28.5 40q-20 20 -55.5 33t-85.5 13q-51 0 -92.5 -22t-71 -60t-45.5 -86t-16 -100q0 -66 14 -122.5t43 -97.5t71 -64t99 -23q74 0 120 31.5t77 96.5q8 18 22.5 17t14.5 -17
q0 -13 -2.5 -31.5t-7.5 -39.5t-12 -43q-4 -12 -10.5 -18.5t-16.5 -11.5q-38 -16 -90 -26t-114 -10z" />
    <glyph glyph-name="cdotaccent" unicode="&#x10b;" horiz-adv-x="411" 
d="M230 493q-31 0 -54.5 23t-23.5 55q0 34 23.5 57t54.5 23q35 0 58 -23t23 -57q0 -32 -23 -55t-58 -23zM211 -14q-53 0 -95.5 28.5t-67 77t-24.5 109.5q0 65 30 117t80.5 83t112.5 31q82 0 136 -54q9 -10 9 -18q0 -6 -9 -17.5t-20 -20.5t-19 -9q-9 0 -17.5 5.5t-16.5 12.5
q-26 22 -52.5 35.5t-45.5 13.5q-38 0 -57.5 -31.5t-19.5 -102.5q0 -49 15.5 -84.5t44.5 -54.5t70 -19q30 0 52 9.5t46 29.5q5 3 8.5 6t8.5 3q12 0 12 -16q0 -4 -1.5 -11.5t-6.5 -16.5q-9 -20 -34.5 -45t-60.5 -43t-78 -18z" />
    <glyph glyph-name="Ccaron" unicode="&#x10c;" horiz-adv-x="709" 
d="M260 847q6 0 22.5 -5t37.5 -13t40.5 -16t31.5 -15q7 -4 12 -4t12 4q13 7 32.5 15.5t40.5 16.5t37.5 13t23.5 5q16 0 16 -13q0 -9 -7 -16l-104 -92q-18 -15 -27.5 -22t-23.5 -7q-13 0 -23 7t-27 22l-105 93q-8 7 -8 15q0 12 19 12zM405 -14q-78 0 -146 23.5t-120 67
t-81 104.5t-29 135q0 69 27.5 131.5t80.5 111t127.5 77t168.5 28.5q32 0 64.5 -4.5t63 -12.5t55.5 -17q9 -4 15.5 -10.5t7.5 -18.5q4 -33 6 -64t2 -56q0 -11 -8 -15t-17.5 -0.5t-13.5 15.5q-7 23 -16.5 46t-28.5 40q-20 20 -55.5 33t-85.5 13q-51 0 -92.5 -22t-71 -60
t-45.5 -86t-16 -100q0 -66 14 -122.5t43 -97.5t71 -64t99 -23q74 0 120 31.5t77 96.5q8 18 22.5 17t14.5 -17q0 -13 -2.5 -31.5t-7.5 -39.5t-12 -43q-4 -12 -10.5 -18.5t-16.5 -11.5q-38 -16 -90 -26t-114 -10z" />
    <glyph glyph-name="ccaron" unicode="&#x10d;" horiz-adv-x="411" 
d="M232 455q-9 0 -16.5 9.5t-19.5 29.5q-9 16 -20 33.5t-22 36t-20.5 36t-17.5 32.5q-8 16 -6 27.5t16 11.5q8 0 18 -8.5t23 -23.5q11 -12 26 -30t33 -38q5 -3 6.5 -3t4.5 3q19 20 34.5 38t25.5 30q13 15 23.5 23.5t16.5 8.5q10 0 14 -11t-4 -28q-7 -15 -17 -33t-21 -36
t-22 -36.5t-20 -34.5q-10 -17 -17.5 -27t-17.5 -10zM211 -14q-53 0 -95.5 28.5t-67 77t-24.5 109.5q0 65 30 117t80.5 83t112.5 31q82 0 136 -54q9 -10 9 -18q0 -6 -9 -17.5t-20 -20.5t-19 -9q-9 0 -17.5 5.5t-16.5 12.5q-26 22 -52.5 35.5t-45.5 13.5q-38 0 -57.5 -31.5
t-19.5 -102.5q0 -49 15.5 -84.5t44.5 -54.5t70 -19q30 0 52 9.5t46 29.5q5 3 8.5 6t8.5 3q12 0 12 -16q0 -4 -1.5 -11.5t-6.5 -16.5q-9 -20 -34.5 -45t-60.5 -43t-78 -18z" />
    <glyph glyph-name="Dcaron" unicode="&#x10e;" horiz-adv-x="766" 
d="M234 847q6 0 22.5 -5t37.5 -13t40.5 -16t31.5 -15q7 -4 12 -4t12 4q13 7 32.5 15.5t40.5 16.5t37.5 13t23.5 5q16 0 16 -13q0 -9 -7 -16l-104 -92q-18 -15 -27.5 -22t-23.5 -7q-13 0 -23 7t-27 22l-105 93q-8 7 -8 15q0 12 19 12zM382 -7q-34 0 -74.5 2t-75.5 3.5
t-53 1.5q-20 0 -44 -0.5t-49.5 -1.5t-48.5 -1q-7 0 -13 3.5t-6 10.5q0 9 5.5 14t15.5 7q38 8 52 20.5t14 44.5v454q0 32 -13 45.5t-53 22.5q-10 2 -15.5 7t-5.5 14q0 7 6 11t13 4q23 0 48.5 -1t50 -2.5t44.5 -1.5q16 0 42 1.5t56.5 3t59 3t46.5 1.5q76 0 140.5 -23.5
t113 -67t75.5 -102.5t27 -130q0 -67 -24 -128.5t-70 -110t-112 -76.5t-152 -28zM367 44q68 0 114 33.5t68.5 93t22.5 138.5q0 67 -14.5 121.5t-42 93.5t-68 60.5t-91.5 21.5q-32 0 -53.5 -2t-32.5 -10t-11 -26v-436q0 -33 12.5 -52t37 -27.5t58.5 -8.5z" />
    <glyph glyph-name="dcaron" unicode="&#x10f;" horiz-adv-x="578" 
d="M550 475q-6 0 -9 8t-3 18q0 3 1 17t2 30t1 25q0 32 -3.5 51.5t-3.5 34.5q0 12 12.5 25t31 22.5t34.5 9.5q15 0 18 -10.5t3 -25.5q0 -21 -8 -54t-20 -65.5t-25 -54.5q-18 -31 -31 -31zM358 -19q-3 0 -8.5 6.5t-5.5 10.5q2 15 3.5 28.5t1.5 24.5v6q-20 -31 -55.5 -51
t-76.5 -20q-56 0 -99.5 28t-68.5 76t-25 105q0 68 30 121t84 83.5t125 30.5q15 0 31.5 -2.5t30.5 -6.5q14 -3 13 -3q4 0 4 13v119q0 36 -9 52t-30 20q-12 3 -12 15q0 13 11 15q37 8 76.5 20.5t64.5 23.5q13 6 18 7.5t6 1.5q11 0 11 -12q0 3 -1 -7.5t-2 -27.5l-2 -34l-5 -504
q0 -34 5 -49t18 -15q5 0 10.5 1t28.5 2q14 1 14 -10q0 -8 -6 -17t-11 -9q-36 -4 -75.5 -13t-76.5 -23q-6 -3 -10 -4.5t-7 -1.5zM268 54q15 0 37.5 8t36.5 23l-1 221q0 18 -13.5 35.5t-34 29.5t-40.5 12q-24 0 -44.5 -19.5t-33 -55t-12.5 -86.5q0 -41 8.5 -72t23.5 -52.5
t34 -32.5t39 -11z" />
    <glyph glyph-name="Dcroat" unicode="&#x110;" horiz-adv-x="766" 
d="M58 306q-12 0 -17.5 10t-5.5 19q0 13 8 21t20 8h302q9 0 15 -5t6 -13q0 -1 -0.5 -2t-0.5 -3q-3 -12 -13.5 -23.5t-26.5 -11.5h-287zM382 -7q-34 0 -74.5 2t-75.5 3.5t-53 1.5q-20 0 -44 -0.5t-49.5 -1.5t-48.5 -1q-7 0 -13 3.5t-6 10.5q0 9 5.5 14t15.5 7q38 8 52 20.5
t14 44.5v454q0 32 -13 45.5t-53 22.5q-10 2 -15.5 7t-5.5 14q0 7 6 11t13 4q23 0 48.5 -1t50 -2.5t44.5 -1.5q16 0 42 1.5t56.5 3t59 3t46.5 1.5q76 0 140.5 -23.5t113 -67t75.5 -102.5t27 -130q0 -67 -24 -128.5t-70 -110t-112 -76.5t-152 -28zM367 44q68 0 114 33.5
t68.5 93t22.5 138.5q0 67 -14.5 121.5t-42 93.5t-68 60.5t-91.5 21.5q-32 0 -53.5 -2t-32.5 -10t-11 -26v-436q0 -33 12.5 -52t37 -27.5t58.5 -8.5z" />
    <glyph glyph-name="dcroat" unicode="&#x111;" horiz-adv-x="553" 
d="M348 -19q-4 0 -4 1v3q0 10 2.5 30.5t2.5 35.5v6q-15 -23 -48.5 -47t-83.5 -24q-62 0 -105 30.5t-65.5 77t-22.5 95.5q0 63 29 115t82.5 82.5t127.5 30.5q13 0 25.5 -2t23.5 -6t16 -7q4 -2 6.5 -4t3.5 -2q4 0 4 14v140q0 29 -7 47.5t-32 24.5q-12 3 -12 15q0 13 11 15
q39 8 78.5 21t62.5 23q10 5 16 7t8 2q6 0 8.5 -3.5t2.5 -8.5q0 -7 -2 -26t-3 -43l-5 -504q0 -34 5 -49t18 -15q8 0 19 1t18 2q6 1 11 -3.5t5 -13.5t-5 -14t-10 -5q-46 -5 -86.5 -15.5t-67.5 -20.5q-3 -1 -12 -3.5t-15 -2.5zM268 51q31 0 52.5 23t21.5 58v147
q0 23 -11.5 43.5t-31.5 34.5t-46 14q-14 0 -29.5 -8t-29 -26.5t-22.5 -48t-9 -73.5q0 -52 11.5 -84.5t29 -50t35.5 -23.5t29 -6zM210 486q-12 0 -17 9.5t-5 18.5q0 13 8 20.5t20 7.5h309q9 0 15.5 -5t6.5 -12q0 -1 -0.5 -2t-0.5 -3q-4 -12 -14 -23t-26 -11h-296z" />
    <glyph glyph-name="Emacron" unicode="&#x112;" horiz-adv-x="575" 
d="M157 717q-9 0 -14 6t-5 12q0 17 5 31.5t14 23t18 8.5h269q9 0 13.5 -5.5t4.5 -12.5q0 -24 -12 -43.5t-29 -19.5h-264zM41 -5q-10 0 -15.5 4.5t-5.5 10.5q0 15 22 21q34 9 48.5 21t14.5 44v455q0 32 -13 46t-49 22q-13 3 -18 8.5t-5 12.5q0 6 6 10.5t16 4.5q25 0 51 -1
t51 -2.5t48 -1.5q52 0 111 1t105 2q32 0 53 3.5t25 3.5q7 0 15.5 -4.5t9.5 -14.5q4 -36 10 -70t6 -60q0 -9 -4 -14t-9 -5t-10.5 4t-8.5 12q-10 25 -18 43t-18 29q-12 11 -29 21t-43 10h-75q-22 0 -38 -11.5t-16 -32.5v-189q0 -12 7 -18t18 -6h88q26 0 37.5 17.5t20.5 42.5
q7 19 20 19q5 0 9 -5.5t3 -16.5q-1 -12 -2 -26t-1.5 -28t-0.5 -27q0 -12 0.5 -26l1 -28t1.5 -27q2 -14 -1 -20.5t-9 -6.5q-16 0 -23 26q-9 30 -20 46t-31 16h-93q-12 0 -18.5 -5.5t-6.5 -17.5v-190q0 -30 13 -42t40 -12h86q22 0 42 5t34 17q17 14 31 35t26 45q4 7 8.5 9.5
t10.5 2.5q5 0 7.5 -6t2.5 -13q0 -17 -5 -38t-12.5 -44.5t-14.5 -46.5q-2 -7 -8.5 -10t-13.5 -3q-13 0 -48.5 0.5t-83.5 1.5t-99 1.5t-95 0.5q-20 0 -44 -1t-48.5 -2.5t-45.5 -1.5z" />
    <glyph glyph-name="emacron" unicode="&#x113;" horiz-adv-x="417" 
d="M211 -14q-54 0 -96.5 28.5t-67 78t-24.5 112.5t29 114.5t79 82t110 30.5q43 0 77 -18.5t54.5 -49.5t20.5 -70q0 -38 -31 -38h-200q-14 0 -20.5 -8t-6.5 -27q0 -38 17 -69.5t46 -49.5t67 -18q29 0 53.5 11t48.5 30q4 3 7.5 5.5t6.5 2.5q10 0 10 -13q0 -11 -8 -30
q-10 -25 -33.5 -49.5t-58.5 -39.5t-80 -15zM162 298h60q28 0 39 1t20 4q5 2 8 10t3 18q0 27 -18.5 44t-45.5 17q-21 0 -39.5 -11.5t-30 -30t-10.5 -38.5q0 -14 14 -14zM99 508q-9 0 -14.5 5.5t-5.5 11.5q0 18 5.5 32t14 22.5t17.5 8.5h258q9 0 14 -5t5 -13q0 -24 -12 -43
t-29 -19h-253z" />
    <glyph glyph-name="Ebreve" unicode="&#x114;" horiz-adv-x="575" 
d="M299 686q-49 0 -81.5 21.5t-48 50.5t-15.5 52q0 13 2.5 19.5t10.5 6.5q9 0 15 -6t14 -15q22 -25 45.5 -36t57.5 -11t57.5 11t45.5 36q8 9 14 15t15 6t11 -6.5t2 -19.5q0 -23 -15.5 -52t-47.5 -50.5t-82 -21.5zM41 -5q-10 0 -15.5 4.5t-5.5 10.5q0 15 22 21q34 9 48.5 21
t14.5 44v455q0 32 -13 46t-49 22q-13 3 -18 8.5t-5 12.5q0 6 6 10.5t16 4.5q25 0 51 -1t51 -2.5t48 -1.5q52 0 111 1t105 2q32 0 53 3.5t25 3.5q7 0 15.5 -4.5t9.5 -14.5q4 -36 10 -70t6 -60q0 -9 -4 -14t-9 -5t-10.5 4t-8.5 12q-10 25 -18 43t-18 29q-12 11 -29 21t-43 10
h-75q-22 0 -38 -11.5t-16 -32.5v-189q0 -12 7 -18t18 -6h88q26 0 37.5 17.5t20.5 42.5q7 19 20 19q5 0 9 -5.5t3 -16.5q-1 -12 -2 -26t-1.5 -28t-0.5 -27q0 -12 0.5 -26l1 -28t1.5 -27q2 -14 -1 -20.5t-9 -6.5q-16 0 -23 26q-9 30 -20 46t-31 16h-93q-12 0 -18.5 -5.5
t-6.5 -17.5v-190q0 -30 13 -42t40 -12h86q22 0 42 5t34 17q17 14 31 35t26 45q4 7 8.5 9.5t10.5 2.5q5 0 7.5 -6t2.5 -13q0 -17 -5 -38t-12.5 -44.5t-14.5 -46.5q-2 -7 -8.5 -10t-13.5 -3q-13 0 -48.5 0.5t-83.5 1.5t-99 1.5t-95 0.5q-20 0 -44 -1t-48.5 -2.5t-45.5 -1.5z
" />
    <glyph glyph-name="ebreve" unicode="&#x115;" horiz-adv-x="417" 
d="M236 468q-37 0 -61 13t-38.5 32.5t-20.5 40t-6 35.5q0 17 7.5 25.5t15.5 8.5q9 0 14 -6t7 -15q7 -27 27 -39.5t55 -12.5q36 0 55.5 12.5t26.5 39.5q2 9 7 15t14 6q8 0 15.5 -8.5t7.5 -25.5q0 -15 -6 -35.5t-20.5 -40t-38.5 -32.5t-61 -13zM211 -14q-54 0 -96.5 28.5
t-67 78t-24.5 112.5t29 114.5t79 82t110 30.5q43 0 77 -18.5t54.5 -49.5t20.5 -70q0 -38 -31 -38h-200q-14 0 -20.5 -8t-6.5 -27q0 -38 17 -69.5t46 -49.5t67 -18q29 0 53.5 11t48.5 30q4 3 7.5 5.5t6.5 2.5q10 0 10 -13q0 -11 -8 -30q-10 -25 -33.5 -49.5t-58.5 -39.5
t-80 -15zM162 298h60q28 0 39 1t20 4q5 2 8 10t3 18q0 27 -18.5 44t-45.5 17q-21 0 -39.5 -11.5t-30 -30t-10.5 -38.5q0 -14 14 -14z" />
    <glyph glyph-name="Edotaccent" unicode="&#x116;" horiz-adv-x="575" 
d="M298 693q-34 0 -58.5 22t-24.5 53q0 33 24.5 55t58.5 22q36 0 61.5 -22t25.5 -55q0 -31 -25.5 -53t-61.5 -22zM41 -5q-10 0 -15.5 4.5t-5.5 10.5q0 15 22 21q34 9 48.5 21t14.5 44v455q0 32 -13 46t-49 22q-13 3 -18 8.5t-5 12.5q0 6 6 10.5t16 4.5q25 0 51 -1t51 -2.5
t48 -1.5q52 0 111 1t105 2q32 0 53 3.5t25 3.5q7 0 15.5 -4.5t9.5 -14.5q4 -36 10 -70t6 -60q0 -9 -4 -14t-9 -5t-10.5 4t-8.5 12q-10 25 -18 43t-18 29q-12 11 -29 21t-43 10h-75q-22 0 -38 -11.5t-16 -32.5v-189q0 -12 7 -18t18 -6h88q26 0 37.5 17.5t20.5 42.5
q7 19 20 19q5 0 9 -5.5t3 -16.5q-1 -12 -2 -26t-1.5 -28t-0.5 -27q0 -12 0.5 -26l1 -28t1.5 -27q2 -14 -1 -20.5t-9 -6.5q-16 0 -23 26q-9 30 -20 46t-31 16h-93q-12 0 -18.5 -5.5t-6.5 -17.5v-190q0 -30 13 -42t40 -12h86q22 0 42 5t34 17q17 14 31 35t26 45q4 7 8.5 9.5
t10.5 2.5q5 0 7.5 -6t2.5 -13q0 -17 -5 -38t-12.5 -44.5t-14.5 -46.5q-2 -7 -8.5 -10t-13.5 -3q-13 0 -48.5 0.5t-83.5 1.5t-99 1.5t-95 0.5q-20 0 -44 -1t-48.5 -2.5t-45.5 -1.5z" />
    <glyph glyph-name="edotaccent" unicode="&#x117;" horiz-adv-x="417" 
d="M235 493q-31 0 -54.5 23t-23.5 55q0 34 23.5 57t54.5 23q35 0 58 -23t23 -57q0 -32 -23 -55t-58 -23zM211 -14q-54 0 -96.5 28.5t-67 78t-24.5 112.5t29 114.5t79 82t110 30.5q43 0 77 -18.5t54.5 -49.5t20.5 -70q0 -38 -31 -38h-200q-14 0 -20.5 -8t-6.5 -27
q0 -38 17 -69.5t46 -49.5t67 -18q29 0 53.5 11t48.5 30q4 3 7.5 5.5t6.5 2.5q10 0 10 -13q0 -11 -8 -30q-10 -25 -33.5 -49.5t-58.5 -39.5t-80 -15zM162 298h60q28 0 39 1t20 4q5 2 8 10t3 18q0 27 -18.5 44t-45.5 17q-21 0 -39.5 -11.5t-30 -30t-10.5 -38.5q0 -14 14 -14z
" />
    <glyph glyph-name="Eogonek" unicode="&#x118;" horiz-adv-x="565" 
d="M397 -287q-53 0 -86 29.5t-33 83.5q0 26 11.5 49.5t29.5 44.5t40.5 39t46 33t42.5 26h41q-17 -16 -35 -33.5t-32.5 -38.5t-23.5 -43.5t-9 -49.5q0 -24 15.5 -39t40.5 -15q15 0 26.5 4.5t21 11t17.5 14.5q6 5 15.5 4t9.5 -17q0 -18 -11.5 -36t-31 -33.5t-44 -24.5
t-51.5 -9zM41 -5q-10 0 -15.5 4.5t-5.5 10.5q0 15 22 21q34 9 48.5 21t14.5 44v455q0 32 -13 46t-49 22q-13 3 -18 8.5t-5 12.5q0 6 6 10.5t16 4.5q25 0 51 -1t51 -2.5t48 -1.5q52 0 111 1t105 2q32 0 53 3.5t25 3.5q7 0 15.5 -4.5t9.5 -14.5q4 -36 10 -70t6 -60
q0 -9 -4 -14t-9 -5t-10.5 4t-8.5 12q-10 25 -18 43t-18 29q-12 11 -29 21t-43 10h-75q-22 0 -38 -11.5t-16 -32.5v-189q0 -12 7 -18t18 -6h88q26 0 37.5 17.5t20.5 42.5q7 19 20 19q5 0 9 -5.5t3 -16.5q-1 -12 -2 -26t-1.5 -28t-0.5 -27q0 -12 0.5 -26l1 -28t1.5 -27
q2 -14 -1 -20.5t-9 -6.5q-16 0 -23 26q-9 30 -20 46t-31 16h-93q-12 0 -18.5 -5.5t-6.5 -17.5v-190q0 -30 13 -42t40 -12h86q22 0 42 5t34 17q17 14 31 35t26 45q4 7 8.5 9.5t10.5 2.5q5 0 7.5 -6t2.5 -13q0 -17 -5 -38t-12.5 -44.5t-14.5 -46.5q-2 -7 -8.5 -10t-13.5 -3
q-13 0 -48.5 0.5t-83.5 1.5t-99 1.5t-95 0.5q-20 0 -44 -1t-48.5 -2.5t-45.5 -1.5z" />
    <glyph glyph-name="eogonek" unicode="&#x119;" horiz-adv-x="416" 
d="M257 -287q-48 0 -76 30t-28 78q0 33 14 64t37.5 58.5t51.5 49.5q-10 -4 -22 -5.5t-25 -1.5q-48 0 -90.5 26t-69 75.5t-26.5 117.5q0 60 28.5 112t77 84t108.5 32q74 0 114.5 -35.5t40.5 -90.5q0 -26 -9.5 -38.5t-35.5 -12.5h-186q-13 0 -19.5 -6.5t-6.5 -28.5
q0 -34 17 -59.5t46.5 -39.5t65.5 -14q31 0 57 11.5t45 34.5q3 3 6.5 5t6.5 2q10 0 10 -12q0 -5 -1.5 -11.5t-3.5 -12.5q-8 -27 -22.5 -52t-32.5 -49q-17 -25 -35.5 -52.5t-31.5 -56.5t-13 -61q0 -28 14 -42t38 -14q17 0 29 7.5t25 17.5q5 5 13.5 5t8.5 -16q0 -22 -15.5 -45
t-42.5 -38.5t-62 -15.5zM171 298h51q19 0 33 0.5t26 4.5q4 2 7.5 10t3.5 19q0 24 -15.5 42t-47.5 18q-21 0 -38 -11t-27 -28.5t-10 -38.5q0 -16 17 -16z" />
    <glyph glyph-name="Ecaron" unicode="&#x11a;" horiz-adv-x="575" 
d="M155 847q6 0 22.5 -5t37.5 -13t40.5 -16t31.5 -15q7 -4 12 -4t12 4q13 7 32.5 15.5t40.5 16.5t37.5 13t23.5 5q16 0 16 -13q0 -9 -7 -16l-104 -92q-18 -15 -27.5 -22t-23.5 -7q-13 0 -23 7t-27 22l-105 93q-8 7 -8 15q0 12 19 12zM41 -5q-10 0 -15.5 4.5t-5.5 10.5
q0 15 22 21q34 9 48.5 21t14.5 44v455q0 32 -13 46t-49 22q-13 3 -18 8.5t-5 12.5q0 6 6 10.5t16 4.5q25 0 51 -1t51 -2.5t48 -1.5q52 0 111 1t105 2q32 0 53 3.5t25 3.5q7 0 15.5 -4.5t9.5 -14.5q4 -36 10 -70t6 -60q0 -9 -4 -14t-9 -5t-10.5 4t-8.5 12q-10 25 -18 43
t-18 29q-12 11 -29 21t-43 10h-75q-22 0 -38 -11.5t-16 -32.5v-189q0 -12 7 -18t18 -6h88q26 0 37.5 17.5t20.5 42.5q7 19 20 19q5 0 9 -5.5t3 -16.5q-1 -12 -2 -26t-1.5 -28t-0.5 -27q0 -12 0.5 -26l1 -28t1.5 -27q2 -14 -1 -20.5t-9 -6.5q-16 0 -23 26q-9 30 -20 46
t-31 16h-93q-12 0 -18.5 -5.5t-6.5 -17.5v-190q0 -30 13 -42t40 -12h86q22 0 42 5t34 17q17 14 31 35t26 45q4 7 8.5 9.5t10.5 2.5q5 0 7.5 -6t2.5 -13q0 -17 -5 -38t-12.5 -44.5t-14.5 -46.5q-2 -7 -8.5 -10t-13.5 -3q-13 0 -48.5 0.5t-83.5 1.5t-99 1.5t-95 0.5
q-20 0 -44 -1t-48.5 -2.5t-45.5 -1.5z" />
    <glyph glyph-name="ecaron" unicode="&#x11b;" horiz-adv-x="417" 
d="M236 455q-9 0 -16.5 9.5t-19.5 29.5q-9 16 -20 33.5t-22 36t-20.5 36t-17.5 32.5q-8 16 -6 27.5t16 11.5q8 0 18 -8.5t23 -23.5q11 -12 26 -30t33 -38q5 -3 6.5 -3t4.5 3q19 20 34.5 38t25.5 30q13 15 23.5 23.5t16.5 8.5q10 0 14 -11t-4 -28q-7 -15 -17 -33t-21 -36
t-22 -36.5t-20 -34.5q-10 -17 -17.5 -27t-17.5 -10zM211 -14q-54 0 -96.5 28.5t-67 78t-24.5 112.5t29 114.5t79 82t110 30.5q43 0 77 -18.5t54.5 -49.5t20.5 -70q0 -38 -31 -38h-200q-14 0 -20.5 -8t-6.5 -27q0 -38 17 -69.5t46 -49.5t67 -18q29 0 53.5 11t48.5 30
q4 3 7.5 5.5t6.5 2.5q10 0 10 -13q0 -11 -8 -30q-10 -25 -33.5 -49.5t-58.5 -39.5t-80 -15zM162 298h60q28 0 39 1t20 4q5 2 8 10t3 18q0 27 -18.5 44t-45.5 17q-21 0 -39.5 -11.5t-30 -30t-10.5 -38.5q0 -14 14 -14z" />
    <glyph glyph-name="Gcircumflex" unicode="&#x11c;" horiz-adv-x="719" 
d="M270 693q-19 0 -19 12q0 9 8 15l105 94q17 16 27 22.5t23 6.5q14 0 24 -6.5t27 -22.5l104 -93q7 -6 7 -16q0 -13 -16 -13q-7 0 -23.5 5t-37.5 13t-40.5 16.5t-32.5 15.5q-7 4 -12 4t-12 -4q-12 -7 -31.5 -15t-40.5 -16t-37.5 -13t-22.5 -5zM379 -14q-72 0 -135.5 23.5
t-112 67.5t-75.5 104t-27 133q0 69 26.5 132t76 112t119.5 77.5t155 28.5q21 0 48.5 -3t56.5 -8t54.5 -11.5t41.5 -13.5q9 -3 14 -8.5t6 -15.5q5 -35 8.5 -66t3.5 -52q0 -10 -4.5 -15t-12.5 -5q-12 0 -17.5 6t-9.5 15q-9 19 -20.5 39.5t-27.5 37.5q-12 12 -28.5 23t-40.5 18
t-58 7q-54 0 -96 -22t-70.5 -60.5t-43 -87t-14.5 -102.5q0 -67 13 -122.5t38 -95.5t62 -61.5t86 -21.5q26 0 42.5 9t26.5 16q10 8 16.5 25.5t6.5 39.5q1 9 1 25t0.5 32t0.5 25q0 11 -4.5 20.5t-17.5 14.5q-9 6 -20.5 10t-23 6.5t-20.5 4.5q-8 1 -16 7t-8 15q0 7 7 11t14 4
q23 0 50.5 -1t54.5 -2.5t48 -1.5q29 0 61.5 2t62.5 2q7 0 12 -3.5t5 -11.5q0 -10 -5.5 -14.5t-14.5 -6.5q-28 -7 -38 -18t-14 -31q-4 -22 -5.5 -38.5t-1.5 -36.5v-32q0 -5 4 -10t9 -10q4 -5 7 -10t3 -11t-4 -12.5t-15 -8.5q-8 -1 -28 -10.5t-50 -22t-71 -21.5t-91 -9z" />
    <glyph glyph-name="gcircumflex" unicode="&#x11d;" horiz-adv-x="500" 
d="M242 671q-9 0 -16.5 -9.5t-19.5 -29.5q-9 -16 -20 -33.5t-22 -36t-20.5 -36t-17.5 -32.5q-8 -16 -6 -27.5t16 -11.5q8 0 18 8.5t23 23.5q11 12 26 30t33 38q5 3 6.5 3t4.5 -3q19 -20 34.5 -38t25.5 -30q13 -15 23.5 -23.5t16.5 -8.5q10 0 14 11t-4 28q-7 15 -17 33
t-21 36t-22 36.5t-20 34.5q-10 17 -17.5 27t-17.5 10zM216 -289q-98 0 -152.5 30.5t-54.5 83.5q0 30 7 48.5t32 36.5q19 14 37 28t31 23l49 -17q-31 -18 -48.5 -39t-17.5 -49q0 -41 34.5 -68t86.5 -27q69 0 98 27q18 18 29 40.5t11 45.5q0 16 -11 26t-39.5 17t-79.5 12
q-104 10 -148 39t-44 77q0 9 5.5 18.5t21.5 20.5q16 12 29 21.5t22 18t12 15.5l50 -17q-20 -7 -32.5 -19t-12.5 -21q0 -11 13 -18t44 -11.5t85 -8.5q108 -9 157 -33.5t49 -71.5q0 -41 -23 -81.5t-61 -74t-84.5 -53t-94.5 -19.5zM229 140q32 0 50.5 35.5t18.5 93.5
q0 37 -9.5 64.5t-25.5 43t-38 15.5q-19 0 -35 -16t-25.5 -42.5t-9.5 -61.5q0 -37 10 -67t27 -47.5t37 -17.5zM218 96q-44 0 -86.5 21.5t-70 59.5t-27.5 85q0 50 28.5 89t75 60.5t98.5 21.5q31 0 58.5 -7t60.5 -12q19 -4 38 -6t42 -2q15 0 30 1.5t25 1.5q16 0 16 -22
q0 -19 -13 -36q-6 -7 -13 -7h-27q-26 0 -35 -8q-2 -2 -3 -4.5t-1.5 -11t-0.5 -31.5q0 -52 -27 -96t-71 -70.5t-97 -26.5z" />
    <glyph glyph-name="Gbreve" unicode="&#x11e;" horiz-adv-x="719" 
d="M414 686q-49 0 -81.5 21.5t-48 50.5t-15.5 52q0 13 2.5 19.5t10.5 6.5q9 0 15 -6t14 -15q22 -25 45.5 -36t57.5 -11t57.5 11t45.5 36q8 9 14 15t15 6t11 -6.5t2 -19.5q0 -23 -15.5 -52t-47.5 -50.5t-82 -21.5zM379 -14q-72 0 -135.5 23.5t-112 67.5t-75.5 104t-27 133
q0 69 26.5 132t76 112t119.5 77.5t155 28.5q21 0 48.5 -3t56.5 -8t54.5 -11.5t41.5 -13.5q9 -3 14 -8.5t6 -15.5q5 -35 8.5 -66t3.5 -52q0 -10 -4.5 -15t-12.5 -5q-12 0 -17.5 6t-9.5 15q-9 19 -20.5 39.5t-27.5 37.5q-12 12 -28.5 23t-40.5 18t-58 7q-54 0 -96 -22
t-70.5 -60.5t-43 -87t-14.5 -102.5q0 -67 13 -122.5t38 -95.5t62 -61.5t86 -21.5q26 0 42.5 9t26.5 16q10 8 16.5 25.5t6.5 39.5q1 9 1 25t0.5 32t0.5 25q0 11 -4.5 20.5t-17.5 14.5q-9 6 -20.5 10t-23 6.5t-20.5 4.5q-8 1 -16 7t-8 15q0 7 7 11t14 4q23 0 50.5 -1
t54.5 -2.5t48 -1.5q29 0 61.5 2t62.5 2q7 0 12 -3.5t5 -11.5q0 -10 -5.5 -14.5t-14.5 -6.5q-28 -7 -38 -18t-14 -31q-4 -22 -5.5 -38.5t-1.5 -36.5v-32q0 -5 4 -10t9 -10q4 -5 7 -10t3 -11t-4 -12.5t-15 -8.5q-8 -1 -28 -10.5t-50 -22t-71 -21.5t-91 -9z" />
    <glyph glyph-name="gbreve" unicode="&#x11f;" horiz-adv-x="500" 
d="M242 468q-37 0 -61 13t-38.5 32.5t-20.5 40t-6 35.5q0 17 7.5 25.5t15.5 8.5q9 0 14 -6t7 -15q7 -27 27 -39.5t55 -12.5q36 0 55.5 12.5t26.5 39.5q2 9 7 15t14 6q8 0 15.5 -8.5t7.5 -25.5q0 -15 -6 -35.5t-20.5 -40t-38.5 -32.5t-61 -13zM216 -289q-98 0 -152.5 30.5
t-54.5 83.5q0 30 7 48.5t32 36.5q19 14 37 28t31 23l49 -17q-31 -18 -48.5 -39t-17.5 -49q0 -41 34.5 -68t86.5 -27q69 0 98 27q18 18 29 40.5t11 45.5q0 16 -11 26t-39.5 17t-79.5 12q-104 10 -148 39t-44 77q0 9 5.5 18.5t21.5 20.5q16 12 29 21.5t22 18t12 15.5l50 -17
q-20 -7 -32.5 -19t-12.5 -21q0 -11 13 -18t44 -11.5t85 -8.5q108 -9 157 -33.5t49 -71.5q0 -41 -23 -81.5t-61 -74t-84.5 -53t-94.5 -19.5zM229 140q32 0 50.5 35.5t18.5 93.5q0 37 -9.5 64.5t-25.5 43t-38 15.5q-19 0 -35 -16t-25.5 -42.5t-9.5 -61.5q0 -37 10 -67
t27 -47.5t37 -17.5zM218 96q-44 0 -86.5 21.5t-70 59.5t-27.5 85q0 50 28.5 89t75 60.5t98.5 21.5q31 0 58.5 -7t60.5 -12q19 -4 38 -6t42 -2q15 0 30 1.5t25 1.5q16 0 16 -22q0 -19 -13 -36q-6 -7 -13 -7h-27q-26 0 -35 -8q-2 -2 -3 -4.5t-1.5 -11t-0.5 -31.5
q0 -52 -27 -96t-71 -70.5t-97 -26.5z" />
    <glyph glyph-name="Gdotaccent" unicode="&#x120;" horiz-adv-x="719" 
d="M413 693q-34 0 -58.5 22t-24.5 53q0 33 24.5 55t58.5 22q36 0 61.5 -22t25.5 -55q0 -31 -25.5 -53t-61.5 -22zM379 -14q-72 0 -135.5 23.5t-112 67.5t-75.5 104t-27 133q0 69 26.5 132t76 112t119.5 77.5t155 28.5q21 0 48.5 -3t56.5 -8t54.5 -11.5t41.5 -13.5
q9 -3 14 -8.5t6 -15.5q5 -35 8.5 -66t3.5 -52q0 -10 -4.5 -15t-12.5 -5q-12 0 -17.5 6t-9.5 15q-9 19 -20.5 39.5t-27.5 37.5q-12 12 -28.5 23t-40.5 18t-58 7q-54 0 -96 -22t-70.5 -60.5t-43 -87t-14.5 -102.5q0 -67 13 -122.5t38 -95.5t62 -61.5t86 -21.5q26 0 42.5 9
t26.5 16q10 8 16.5 25.5t6.5 39.5q1 9 1 25t0.5 32t0.5 25q0 11 -4.5 20.5t-17.5 14.5q-9 6 -20.5 10t-23 6.5t-20.5 4.5q-8 1 -16 7t-8 15q0 7 7 11t14 4q23 0 50.5 -1t54.5 -2.5t48 -1.5q29 0 61.5 2t62.5 2q7 0 12 -3.5t5 -11.5q0 -10 -5.5 -14.5t-14.5 -6.5
q-28 -7 -38 -18t-14 -31q-4 -22 -5.5 -38.5t-1.5 -36.5v-32q0 -5 4 -10t9 -10q4 -5 7 -10t3 -11t-4 -12.5t-15 -8.5q-8 -1 -28 -10.5t-50 -22t-71 -21.5t-91 -9z" />
    <glyph glyph-name="gdotaccent" unicode="&#x121;" horiz-adv-x="500" 
d="M241 493q-31 0 -54.5 23t-23.5 55q0 34 23.5 57t54.5 23q35 0 58 -23t23 -57q0 -32 -23 -55t-58 -23zM216 -289q-98 0 -152.5 30.5t-54.5 83.5q0 30 7 48.5t32 36.5q19 14 37 28t31 23l49 -17q-31 -18 -48.5 -39t-17.5 -49q0 -41 34.5 -68t86.5 -27q69 0 98 27
q18 18 29 40.5t11 45.5q0 16 -11 26t-39.5 17t-79.5 12q-104 10 -148 39t-44 77q0 9 5.5 18.5t21.5 20.5q16 12 29 21.5t22 18t12 15.5l50 -17q-20 -7 -32.5 -19t-12.5 -21q0 -11 13 -18t44 -11.5t85 -8.5q108 -9 157 -33.5t49 -71.5q0 -41 -23 -81.5t-61 -74t-84.5 -53
t-94.5 -19.5zM229 140q32 0 50.5 35.5t18.5 93.5q0 37 -9.5 64.5t-25.5 43t-38 15.5q-19 0 -35 -16t-25.5 -42.5t-9.5 -61.5q0 -37 10 -67t27 -47.5t37 -17.5zM218 96q-44 0 -86.5 21.5t-70 59.5t-27.5 85q0 50 28.5 89t75 60.5t98.5 21.5q31 0 58.5 -7t60.5 -12
q19 -4 38 -6t42 -2q15 0 30 1.5t25 1.5q16 0 16 -22q0 -19 -13 -36q-6 -7 -13 -7h-27q-26 0 -35 -8q-2 -2 -3 -4.5t-1.5 -11t-0.5 -31.5q0 -52 -27 -96t-71 -70.5t-97 -26.5z" />
    <glyph glyph-name="uni0122" unicode="&#x122;" horiz-adv-x="719" 
d="M353 -290q-22 0 -22 13q0 9 15 16q21 9 37 26t16 41q0 22 -11 32t-33 15q-18 5 -28 16.5t-10 33.5q0 19 16 33t45 14q44 0 70.5 -29t26.5 -73q0 -34 -14.5 -59.5t-35.5 -43t-41 -26.5t-31 -9zM379 -14q-72 0 -135.5 23.5t-112 67.5t-75.5 104t-27 133q0 69 26.5 132
t76 112t119.5 77.5t155 28.5q21 0 48.5 -3t56.5 -8t54.5 -11.5t41.5 -13.5q9 -3 14 -8.5t6 -15.5q5 -35 8.5 -66t3.5 -52q0 -10 -4.5 -15t-12.5 -5q-12 0 -17.5 6t-9.5 15q-9 19 -20.5 39.5t-27.5 37.5q-12 12 -28.5 23t-40.5 18t-58 7q-54 0 -96 -22t-70.5 -60.5t-43 -87
t-14.5 -102.5q0 -67 13 -122.5t38 -95.5t62 -61.5t86 -21.5q26 0 42.5 9t26.5 16q10 8 16.5 25.5t6.5 39.5q1 9 1 25t0.5 32t0.5 25q0 11 -4.5 20.5t-17.5 14.5q-9 6 -20.5 10t-23 6.5t-20.5 4.5q-8 1 -16 7t-8 15q0 7 7 11t14 4q23 0 50.5 -1t54.5 -2.5t48 -1.5
q29 0 61.5 2t62.5 2q7 0 12 -3.5t5 -11.5q0 -10 -5.5 -14.5t-14.5 -6.5q-28 -7 -38 -18t-14 -31q-4 -22 -5.5 -38.5t-1.5 -36.5v-32q0 -5 4 -10t9 -10q4 -5 7 -10t3 -11t-4 -12.5t-15 -8.5q-8 -1 -28 -10.5t-50 -22t-71 -21.5t-91 -9z" />
    <glyph glyph-name="uni0123" unicode="&#x123;" horiz-adv-x="500" 
d="M244 465q-41 0 -69 29.5t-28 74.5t24.5 74t59 43t63.5 14q15 0 20.5 -4.5t5.5 -9.5q0 -6 -4.5 -11t-13.5 -7q-33 -6 -52 -21.5t-19 -38.5q0 -19 11 -29.5t24 -15.5q18 -5 29.5 -17.5t11.5 -34.5q0 -21 -16.5 -33.5t-46.5 -12.5zM216 -289q-98 0 -152.5 30.5t-54.5 83.5
q0 30 7 48.5t32 36.5q19 14 37 28t31 23l49 -17q-31 -18 -48.5 -39t-17.5 -49q0 -41 34.5 -68t86.5 -27q69 0 98 27q18 18 29 40.5t11 45.5q0 16 -11 26t-39.5 17t-79.5 12q-104 10 -148 39t-44 77q0 9 5.5 18.5t21.5 20.5q16 12 29 21.5t22 18t12 15.5l50 -17
q-20 -7 -32.5 -19t-12.5 -21q0 -11 13 -18t44 -11.5t85 -8.5q108 -9 157 -33.5t49 -71.5q0 -41 -23 -81.5t-61 -74t-84.5 -53t-94.5 -19.5zM229 140q32 0 50.5 35.5t18.5 93.5q0 37 -9.5 64.5t-25.5 43t-38 15.5q-19 0 -35 -16t-25.5 -42.5t-9.5 -61.5q0 -37 10 -67
t27 -47.5t37 -17.5zM218 96q-44 0 -86.5 21.5t-70 59.5t-27.5 85q0 50 28.5 89t75 60.5t98.5 21.5q31 0 58.5 -7t60.5 -12q19 -4 38 -6t42 -2q15 0 30 1.5t25 1.5q16 0 16 -22q0 -19 -13 -36q-6 -7 -13 -7h-27q-26 0 -35 -8q-2 -2 -3 -4.5t-1.5 -11t-0.5 -31.5
q0 -52 -27 -96t-71 -70.5t-97 -26.5z" />
    <glyph glyph-name="Hcircumflex" unicode="&#x124;" horiz-adv-x="801" 
d="M257 693q-19 0 -19 12q0 9 8 15l105 94q17 16 27 22.5t23 6.5q14 0 24 -6.5t27 -22.5l104 -93q7 -6 7 -16q0 -13 -16 -13q-7 0 -23.5 5t-37.5 13t-40.5 16.5t-32.5 15.5q-7 4 -12 4t-12 -4q-12 -7 -31.5 -15t-40.5 -16t-37.5 -13t-22.5 -5zM39 -3q-7 0 -13.5 3.5
t-6.5 10.5q0 16 21 21q35 8 47.5 20.5t12.5 44.5v454q0 33 -11.5 46t-46.5 22q-22 5 -22 21q0 7 6.5 11t13.5 4q23 0 47 -1t47 -2.5t43 -1.5t45.5 1t52 2t48.5 1q18 0 18 -15q0 -9 -5.5 -13t-15.5 -7q-40 -11 -53 -25t-13 -44v-180q0 -8 4.5 -11t11.5 -3h264q13 0 13 14v180
q0 30 -12.5 44t-52.5 25q-11 3 -16.5 7t-5.5 13q0 15 19 15q22 0 49 -1t53 -2t46 -1q19 0 41.5 1.5t46 2.5t46.5 1q8 0 14 -4t6 -11q0 -16 -21 -21q-36 -9 -47.5 -22.5t-11.5 -45.5v-453q0 -33 12.5 -45.5t46.5 -20.5q21 -5 21 -21q0 -7 -6 -10.5t-13 -3.5q-21 0 -45 1.5
t-48 2.5t-44 1t-45.5 -1t-52.5 -2.5t-49 -1.5q-8 0 -13 4t-5 11q0 10 5.5 13.5t15.5 6.5q38 10 52 23.5t14 42.5v187q0 8 -2.5 12.5t-9.5 4.5h-267q-14 0 -14 -16v-187q0 -28 15 -42.5t53 -24.5q10 -3 15.5 -6.5t5.5 -13.5q0 -7 -4.5 -11t-13.5 -4q-22 0 -49 1.5t-53 2.5
t-46 1t-44.5 -1t-49 -2.5t-44.5 -1.5z" />
    <glyph glyph-name="hcircumflex" unicode="&#x125;" horiz-adv-x="559" 
d="M0 741q-19 0 -19 12q0 9 9 16l93 78q17 15 26.5 22t22.5 7t22.5 -7t26.5 -22l93 -78q9 -7 9 -15q0 -13 -19 -13q-9 0 -29.5 4.5t-45.5 12.5t-45 18q-6 4 -12 3t-12 -3q-22 -8 -46.5 -16t-44.5 -13.5t-29 -5.5zM37 -3q-20 0 -20 14q0 13 23 20q15 5 26 11t12 28v480
q0 27 -7 47t-32 25q-11 2 -11 15t10 15q23 5 52.5 14.5t57.5 20t43 15.5q8 3 13 3q6 0 8 -3.5t2 -8.5t-1.5 -14.5t-2.5 -23t-2 -31.5v-231q0 -10 1 -18t5 -11q15 13 36 28.5t48.5 27.5t61.5 12q53 0 89 -37.5t36 -104.5v-218q0 -21 11 -28.5t25 -12.5q11 -3 16.5 -7.5
t5.5 -12.5q0 -14 -22 -14q-24 0 -39 1.5t-28.5 2.5t-34.5 1q-22 0 -34 -1t-25 -2.5t-37 -1.5q-25 0 -25 15q0 8 6.5 12.5t14.5 6.5q13 5 24 13t11 30v197q0 22 -9 39.5t-23.5 28t-31.5 10.5q-15 0 -33 -5t-35 -17q-8 -6 -10.5 -13.5t-2.5 -22.5v-219q0 -20 10 -27.5
t23 -12.5q9 -3 15 -7.5t6 -12.5q0 -15 -18 -15q-20 0 -37.5 1.5t-33 2.5t-33.5 1q-17 0 -33.5 -1t-33.5 -2.5t-37 -1.5z" />
    <glyph glyph-name="Hbar" unicode="&#x126;" horiz-adv-x="801" 
d="M48 449q-10 0 -17 8t-7 20q0 13 8 21t20 8h698q9 0 15 -5t6 -13q0 -13 -12.5 -26t-28.5 -13h-682zM39 -3q-7 0 -13.5 3.5t-6.5 10.5q0 16 21 21q35 8 47.5 20.5t12.5 44.5v454q0 33 -11.5 46t-46.5 22q-22 5 -22 21q0 7 6.5 11t13.5 4q23 0 47 -1t47 -2.5t43 -1.5t45.5 1
t52 2t48.5 1q18 0 18 -15q0 -9 -5.5 -13t-15.5 -7q-40 -11 -53 -25t-13 -44v-180q0 -8 4.5 -11t11.5 -3h264q13 0 13 14v180q0 30 -12.5 44t-52.5 25q-11 3 -16.5 7t-5.5 13q0 15 19 15q22 0 49 -1t53 -2t46 -1q19 0 41.5 1.5t46 2.5t46.5 1q8 0 14 -4t6 -11q0 -16 -21 -21
q-36 -9 -47.5 -22.5t-11.5 -45.5v-453q0 -33 12.5 -45.5t46.5 -20.5q21 -5 21 -21q0 -7 -6 -10.5t-13 -3.5q-21 0 -45 1.5t-48 2.5t-44 1t-45.5 -1t-52.5 -2.5t-49 -1.5q-8 0 -13 4t-5 11q0 10 5.5 13.5t15.5 6.5q38 10 52 23.5t14 42.5v187q0 8 -2.5 12.5t-9.5 4.5h-267
q-14 0 -14 -16v-187q0 -28 15 -42.5t53 -24.5q10 -3 15.5 -6.5t5.5 -13.5q0 -7 -4.5 -11t-13.5 -4q-22 0 -49 1.5t-53 2.5t-46 1t-44.5 -1t-49 -2.5t-44.5 -1.5z" />
    <glyph glyph-name="hbar" unicode="&#x127;" horiz-adv-x="562" 
d="M39 -3q-20 0 -20 14q0 13 23 20q15 5 26.5 11t11.5 28v480q0 27 -7 47t-32 25q-11 2 -11 15t10 15q23 5 52.5 14.5t57.5 20t44 15.5q8 3 12 3q6 0 8 -3.5t2 -8.5t-1 -14.5t-2.5 -23t-1.5 -31.5v-250q0 -10 1 -18t4 -11q16 13 38.5 28.5t52 28t63.5 12.5t61 -19.5
t42 -51.5t15 -72v-199q0 -21 11 -28.5t25 -12.5q10 -3 15.5 -7.5t5.5 -12.5q0 -14 -21 -14q-25 0 -40 1.5t-28.5 2.5t-34.5 1q-22 0 -34 -1t-25 -2.5t-37 -1.5t-24 15q0 8 6.5 12.5t13.5 6.5q14 5 24.5 13t10.5 30v178q0 22 -9 39.5t-23.5 28t-31.5 10.5q-15 0 -30.5 -3.5
t-27.5 -12.5q-13 -9 -18 -21.5t-5 -39.5v-181q0 -20 10 -27.5t24 -12.5q8 -3 14 -7.5t6 -12.5q0 -15 -17 -15q-20 0 -37.5 1.5t-33.5 2.5t-34 1q-17 0 -33.5 -1t-33.5 -2.5t-37 -1.5zM39 495q-12 0 -17 9.5t-5 18.5q0 13 7.5 21t20.5 8h309q10 0 16 -5t6 -13q0 -1 -0.5 -2
t-0.5 -2q-4 -13 -14 -24t-26 -11h-296z" />
    <glyph glyph-name="Itilde" unicode="&#x128;" horiz-adv-x="364" 
d="M47 691q-5 0 -12 6.5t-7 9.5q0 6 9 22t22.5 34t26.5 31.5t20 13.5q19 0 40.5 -1.5t42.5 -2.5q19 -1 40 -2t44 -1q11 0 19.5 6t15.5 13q8 8 12.5 15t7.5 7q6 0 14.5 -6.5t8.5 -12.5q0 -3 -4.5 -10t-13.5 -18q-11 -16 -21 -31.5t-19 -28.5q-6 -9 -15 -11.5t-16 -2.5
q-8 0 -31 1.5t-50.5 3.5t-51.5 4t-34 2q-8 0 -16 -6t-14 -13q-6 -8 -11 -15t-7 -7zM36 -3q-8 0 -14 3.5t-6 10.5q0 16 21 21q38 8 53 20.5t15 44.5v454q0 32 -13 45.5t-53 22.5q-21 5 -21 21q0 7 6 11t14 4q23 0 48.5 -1t50 -2.5t45.5 -1.5q20 0 45.5 1t52 2t48.5 1
q9 0 14 -3.5t5 -10.5q0 -10 -5.5 -14t-16.5 -7q-40 -11 -53 -24.5t-13 -44.5v-452q0 -29 14.5 -42.5t53.5 -23.5q10 -3 15.5 -7t5.5 -13q0 -7 -4.5 -11t-13.5 -4q-22 0 -49 1.5t-53 2.5t-46 1q-21 0 -46 -1t-51 -2.5t-49 -1.5z" />
    <glyph glyph-name="itilde" unicode="&#x129;" horiz-adv-x="295" 
d="M20 465q-5 0 -13.5 7.5t-8.5 11.5q0 6 12 23.5t28.5 38t32 36t22.5 15.5q11 0 24.5 -3t43.5 -5q22 -1 40 -2.5t28 -1.5q9 0 18.5 5t16.5 15q11 12 15.5 18.5t8.5 6.5q6 0 14.5 -6.5t8.5 -12.5q0 -4 -6 -11.5t-16 -20.5q-11 -15 -22 -33t-21 -32q-6 -8 -15.5 -11t-15.5 -3
q-8 0 -28 1.5t-43 3t-44 3t-30 1.5q-8 0 -13 -3.5t-10 -9.5q-12 -16 -17.5 -23.5t-9.5 -7.5zM37 -3q-6 0 -11 3.5t-5 9.5q0 8 5 13t13 7q26 6 36.5 13.5t10.5 23.5v216q0 34 -10.5 48.5t-32.5 17.5q-6 1 -9 6t-3 12q0 15 11 17q52 10 92.5 28t62.5 28q16 8 20 8q13 0 13 -12
q-1 -17 -4.5 -42.5t-6 -52.5t-2.5 -52v-221q0 -14 10.5 -22t37.5 -16q8 -3 13 -7t5 -12q0 -13 -15 -13q-19 0 -40 1t-40.5 2t-37.5 1q-17 0 -35.5 -1t-38 -2.5t-39.5 -1.5z" />
    <glyph glyph-name="Imacron" unicode="&#x12a;" horiz-adv-x="364" 
d="M42 717q-9 0 -14 6t-5 12q0 17 5 31.5t14 23t18 8.5h269q9 0 13.5 -5.5t4.5 -12.5q0 -24 -12 -43.5t-29 -19.5h-264zM36 -3q-8 0 -14 3.5t-6 10.5q0 16 21 21q38 8 53 20.5t15 44.5v454q0 32 -13 45.5t-53 22.5q-21 5 -21 21q0 7 6 11t14 4q23 0 48.5 -1t50 -2.5
t45.5 -1.5q20 0 45.5 1t52 2t48.5 1q9 0 14 -3.5t5 -10.5q0 -10 -5.5 -14t-16.5 -7q-40 -11 -53 -24.5t-13 -44.5v-452q0 -29 14.5 -42.5t53.5 -23.5q10 -3 15.5 -7t5.5 -13q0 -7 -4.5 -11t-13.5 -4q-22 0 -49 1.5t-53 2.5t-46 1q-21 0 -46 -1t-51 -2.5t-49 -1.5z" />
    <glyph glyph-name="imacron" unicode="&#x12b;" horiz-adv-x="295" 
d="M37 -3q-6 0 -11 3.5t-5 9.5q0 8 5 13t13 7q26 6 36.5 13.5t10.5 23.5v216q0 34 -10.5 48.5t-32.5 17.5q-6 1 -9 6t-3 12q0 15 11 17q52 10 92.5 28t62.5 28q16 8 20 8q13 0 13 -12q-1 -17 -4.5 -42.5t-6 -52.5t-2.5 -52v-221q0 -14 10.5 -22t37.5 -16q8 -3 13 -7t5 -12
q0 -13 -15 -13q-19 0 -40 1t-40.5 2t-37.5 1q-17 0 -35.5 -1t-38 -2.5t-39.5 -1.5zM11 508q-9 0 -14.5 5.5t-5.5 11.5q0 18 5.5 32t14 22.5t17.5 8.5h258q9 0 14 -5t5 -13q0 -24 -12 -43t-29 -19h-253z" />
    <glyph glyph-name="Ibreve" unicode="&#x12c;" horiz-adv-x="364" 
d="M185 686q-49 0 -81.5 21.5t-48 50.5t-15.5 52q0 13 2.5 19.5t10.5 6.5q9 0 15 -6t14 -15q22 -25 45.5 -36t57.5 -11t57.5 11t45.5 36q8 9 14 15t15 6t11 -6.5t2 -19.5q0 -23 -15.5 -52t-47.5 -50.5t-82 -21.5zM36 -3q-8 0 -14 3.5t-6 10.5q0 16 21 21q38 8 53 20.5
t15 44.5v454q0 32 -13 45.5t-53 22.5q-21 5 -21 21q0 7 6 11t14 4q23 0 48.5 -1t50 -2.5t45.5 -1.5q20 0 45.5 1t52 2t48.5 1q9 0 14 -3.5t5 -10.5q0 -10 -5.5 -14t-16.5 -7q-40 -11 -53 -24.5t-13 -44.5v-452q0 -29 14.5 -42.5t53.5 -23.5q10 -3 15.5 -7t5.5 -13
q0 -7 -4.5 -11t-13.5 -4q-22 0 -49 1.5t-53 2.5t-46 1q-21 0 -46 -1t-51 -2.5t-49 -1.5z" />
    <glyph glyph-name="ibreve" unicode="&#x12d;" horiz-adv-x="295" 
d="M148 468q-37 0 -61 13t-38.5 32.5t-20.5 40t-6 35.5q0 17 7.5 25.5t15.5 8.5q9 0 14 -6t7 -15q7 -27 27 -39.5t55 -12.5q36 0 55.5 12.5t26.5 39.5q2 9 7 15t14 6q8 0 15.5 -8.5t7.5 -25.5q0 -15 -6 -35.5t-20.5 -40t-38.5 -32.5t-61 -13zM37 -3q-6 0 -11 3.5t-5 9.5
q0 8 5 13t13 7q26 6 36.5 13.5t10.5 23.5v216q0 34 -10.5 48.5t-32.5 17.5q-6 1 -9 6t-3 12q0 15 11 17q52 10 92.5 28t62.5 28q16 8 20 8q13 0 13 -12q-1 -17 -4.5 -42.5t-6 -52.5t-2.5 -52v-221q0 -14 10.5 -22t37.5 -16q8 -3 13 -7t5 -12q0 -13 -15 -13q-19 0 -40 1
t-40.5 2t-37.5 1q-17 0 -35.5 -1t-38 -2.5t-39.5 -1.5z" />
    <glyph glyph-name="Iogonek" unicode="&#x12e;" horiz-adv-x="364" 
d="M196 -287q-53 0 -86 29.5t-33 83.5q0 26 11.5 49.5t29.5 44.5t40.5 39t46 33t42.5 26h41q-17 -16 -35 -33.5t-32.5 -38.5t-23.5 -43.5t-9 -49.5q0 -24 15.5 -39t40.5 -15q15 0 26.5 4.5t21 11t17.5 14.5q6 5 15.5 4t9.5 -17q0 -18 -11.5 -36t-31 -33.5t-44 -24.5
t-51.5 -9zM36 -3q-8 0 -14 3.5t-6 10.5q0 16 21 21q38 8 53 20.5t15 44.5v454q0 32 -13 45.5t-53 22.5q-21 5 -21 21q0 7 6 11t14 4q23 0 48.5 -1t50 -2.5t45.5 -1.5q20 0 45.5 1t52 2t48.5 1q9 0 14 -3.5t5 -10.5q0 -10 -5.5 -14t-16.5 -7q-40 -11 -53 -24.5t-13 -44.5
v-452q0 -29 14.5 -42.5t53.5 -23.5q10 -3 15.5 -7t5.5 -13q0 -7 -4.5 -11t-13.5 -4q-22 0 -49 1.5t-53 2.5t-46 1q-21 0 -46 -1t-51 -2.5t-49 -1.5z" />
    <glyph glyph-name="iogonek" unicode="&#x12f;" horiz-adv-x="295" 
d="M146 -287q-48 0 -75.5 30t-27.5 78q0 25 8 48t22.5 45t32.5 41.5t38.5 35.5t40.5 27h42q-27 -24 -47 -49.5t-31 -53.5t-11 -61q0 -28 14 -42t38 -14q17 0 29.5 7t24.5 18q5 5 13.5 5t8.5 -16q0 -22 -15.5 -45t-42.5 -38.5t-62 -15.5zM37 -3q-6 0 -11 3.5t-5 9.5q0 8 5 13
t13 7q26 6 36.5 13.5t10.5 23.5v216q0 34 -10.5 48.5t-32.5 17.5q-6 1 -9 6t-3 12q0 15 11 17q52 10 92.5 28t62.5 28q16 8 20 8q13 0 13 -12q-1 -17 -4.5 -42.5t-6 -52.5t-2.5 -52v-221q0 -14 10.5 -22t37.5 -16q8 -3 13 -7t5 -12q0 -13 -15 -13q-19 0 -40 1t-40.5 2
t-37.5 1q-17 0 -35.5 -1t-38 -2.5t-39.5 -1.5zM147 493q-31 0 -54.5 23t-23.5 55q0 34 23.5 57t54.5 23q35 0 58 -23t23 -57q0 -32 -23 -55t-58 -23z" />
    <glyph glyph-name="Idotaccent" unicode="&#x130;" horiz-adv-x="364" 
d="M184 693q-34 0 -58.5 22t-24.5 53q0 33 24.5 55t58.5 22q36 0 61.5 -22t25.5 -55q0 -31 -25.5 -53t-61.5 -22zM36 -3q-8 0 -14 3.5t-6 10.5q0 16 21 21q38 8 53 20.5t15 44.5v454q0 32 -13 45.5t-53 22.5q-21 5 -21 21q0 7 6 11t14 4q23 0 48.5 -1t50 -2.5t45.5 -1.5
q20 0 45.5 1t52 2t48.5 1q9 0 14 -3.5t5 -10.5q0 -10 -5.5 -14t-16.5 -7q-40 -11 -53 -24.5t-13 -44.5v-452q0 -29 14.5 -42.5t53.5 -23.5q10 -3 15.5 -7t5.5 -13q0 -7 -4.5 -11t-13.5 -4q-22 0 -49 1.5t-53 2.5t-46 1q-21 0 -46 -1t-51 -2.5t-49 -1.5z" />
    <glyph glyph-name="dotlessi" unicode="&#x131;" horiz-adv-x="295" 
d="M37 -3q-6 0 -11 3.5t-5 9.5q0 8 5 13t13 7q26 6 36.5 13.5t10.5 23.5v216q0 34 -10.5 48.5t-32.5 17.5q-6 1 -9 6t-3 12q0 15 11 17q52 10 92.5 28t62.5 28q16 8 20 8q13 0 13 -12q-1 -17 -4.5 -42.5t-6 -52.5t-2.5 -52v-221q0 -14 10.5 -22t37.5 -16q8 -3 13 -7t5 -12
q0 -13 -15 -13q-19 0 -40 1t-40.5 2t-37.5 1q-17 0 -35.5 -1t-38 -2.5t-39.5 -1.5z" />
    <glyph glyph-name="IJ" unicode="&#x132;" horiz-adv-x="733" 
d="M36 -3q-8 0 -14 3.5t-6 10.5q0 16 21 21q38 8 53 20.5t15 44.5v454q0 32 -13 45.5t-53 22.5q-21 5 -21 21q0 7 6 11t14 4q23 0 48.5 -1t50 -2.5t45.5 -1.5q20 0 45.5 1t52 2t48.5 1q9 0 14 -3.5t5 -10.5q0 -10 -5.5 -14t-16.5 -7q-40 -11 -53 -24.5t-13 -44.5v-452
q0 -29 14.5 -42.5t53.5 -23.5q10 -3 15.5 -7t5.5 -13q0 -7 -4.5 -11t-13.5 -4q-22 0 -49 1.5t-53 2.5t-46 1q-21 0 -46 -1t-51 -2.5t-49 -1.5zM421 -200q-139 0 -139 58q0 20 17 39t34 19q12 0 22 -6t20 -18q19 -22 28.5 -36t21.5 -14q30 0 46 38.5t16 126.5v544
q0 33 -13 46t-53 22q-21 5 -21 21q0 7 6.5 11t13.5 4q23 0 48.5 -1t50 -2.5t45.5 -1.5q20 0 44.5 1t51 2t48.5 1q9 0 13.5 -3.5t4.5 -10.5q0 -10 -5.5 -14t-15.5 -7q-40 -11 -52 -24.5t-12 -44.5v-464q0 -27 -10.5 -60t-29 -67.5t-40.5 -64.5q-30 -39 -66.5 -66.5
t-73.5 -27.5z" />
    <glyph glyph-name="ij" unicode="&#x133;" horiz-adv-x="548" 
d="M147 493q-31 0 -54.5 23t-23.5 55q0 34 23.5 57t54.5 23q35 0 58 -23t23 -57q0 -32 -23 -55t-58 -23zM37 -3q-6 0 -11 3.5t-5 9.5q0 8 5 13t13 7q26 6 36.5 13.5t10.5 23.5v216q0 34 -10.5 48.5t-32.5 17.5q-6 1 -9 6t-3 12q0 15 11 17q52 10 92.5 28t62.5 28q16 8 20 8
q13 0 13 -12q-1 -17 -4.5 -42.5t-6 -52.5t-2.5 -52v-221q0 -14 10.5 -22t37.5 -16q8 -3 13 -7t5 -12q0 -13 -15 -13q-19 0 -40 1t-40.5 2t-37.5 1q-17 0 -35.5 -1t-38 -2.5t-39.5 -1.5zM414 493q-31 0 -54.5 23t-23.5 55q0 34 23.5 57t54.5 23q35 0 58 -23t23 -57
q0 -32 -23 -55t-58 -23zM286 -287q-19 0 -29.5 4t-10.5 12q0 7 5 12t14 9q16 7 30 18.5t27 37.5q10 22 16 53.5t9.5 67t4.5 68.5t1 57v231q0 34 -10.5 48t-33.5 18q-5 1 -8 6t-3 12q0 15 11 17q51 10 92 28t62 28q8 4 13.5 6t7.5 2q12 0 12 -12q-2 -29 -7 -71.5t-5 -78.5
l1 -195q0 -31 -2 -72.5t-10 -86t-26 -84.5q-14 -34 -41.5 -65t-59.5 -50.5t-60 -19.5z" />
    <glyph glyph-name="Jcircumflex" unicode="&#x134;" horiz-adv-x="370" 
d="M54 693q-19 0 -19 12q0 9 8 15l105 94q17 16 27 22.5t23 6.5q14 0 24 -6.5t27 -22.5l104 -93q7 -6 7 -16q0 -13 -16 -13q-7 0 -23.5 5t-37.5 13t-40.5 16.5t-32.5 15.5q-7 4 -12 4t-12 -4q-12 -7 -31.5 -15t-40.5 -16t-37.5 -13t-22.5 -5zM57 -200q-139 0 -139 58
q0 20 17 39t34 19q12 0 22 -6t20 -18q19 -22 28.5 -36t21.5 -14q30 0 46 38.5t16 126.5v544q0 33 -13 46t-53 22q-21 5 -21 21q0 7 6.5 11t13.5 4q23 0 48.5 -1t50 -2.5t45.5 -1.5q20 0 44.5 1t51 2t48.5 1q9 0 13.5 -3.5t4.5 -10.5q0 -10 -5.5 -14t-15.5 -7
q-40 -11 -52 -24.5t-12 -44.5v-464q0 -27 -10.5 -60t-29 -67.5t-40.5 -64.5q-30 -39 -66.5 -66.5t-73.5 -27.5z" />
    <glyph glyph-name="jcircumflex" unicode="&#x135;" horiz-adv-x="266" 
d="M134 671q-9 0 -16.5 -9.5t-19.5 -29.5q-9 -16 -20 -33.5t-22 -36t-20.5 -36t-17.5 -32.5q-8 -16 -6 -27.5t16 -11.5q8 0 18 8.5t23 23.5q11 12 26 30t33 38q5 3 6.5 3t4.5 -3q19 -20 34.5 -38t25.5 -30q13 -15 23.5 -23.5t16.5 -8.5q10 0 14 11t-4 28q-7 15 -17 33
t-21 36t-22 36.5t-20 34.5q-10 17 -17.5 27t-17.5 10zM4 -287q-19 0 -29.5 4t-10.5 12q0 7 5 12t14 9q16 7 30 18.5t27 37.5q10 22 16 53.5t9.5 67t4.5 68.5t1 57v231q0 34 -10.5 48t-33.5 18q-5 1 -8 6t-3 12q0 15 11 17q51 10 92 28t62 28q8 4 13.5 6t7.5 2q12 0 12 -12
q-2 -29 -7 -71.5t-5 -78.5l1 -195q0 -31 -2 -72.5t-10 -86t-26 -84.5q-14 -34 -41.5 -65t-59.5 -50.5t-60 -19.5z" />
    <glyph glyph-name="uni0136" unicode="&#x136;" horiz-adv-x="763" 
d="M333 -290q-22 0 -22 13q0 9 15 16q21 9 37 26t16 41q0 22 -11 32t-33 15q-18 5 -28 16.5t-10 33.5q0 19 16 33t45 14q44 0 70.5 -29t26.5 -73q0 -34 -14.5 -59.5t-35.5 -43t-41 -26.5t-31 -9zM46 -6q-10 0 -19 5t-9 12q0 16 26 21q38 8 50 21t12 45v453q0 33 -13.5 46
t-53.5 22q-21 5 -21 21q0 7 6.5 11t13.5 4q23 0 48.5 -1t50 -2.5t44.5 -1.5t45 1t51.5 2t48.5 1q8 0 13 -3.5t5 -10.5q0 -10 -5.5 -14t-16.5 -7q-40 -11 -51.5 -25t-11.5 -44v-203q0 -8 3 -12t7 -4q5 0 11 4.5t14 11.5l192 207q8 9 13.5 16.5t5.5 14.5q0 21 -41 30
q-11 3 -16.5 8t-5.5 14q0 7 6.5 10.5t13.5 3.5h69q34 0 66 0.5t65 1.5t67 1q10 0 18 -3.5t8 -10.5q0 -10 -10 -14.5t-20 -6.5q-50 -7 -87.5 -23t-66.5 -39q-30 -23 -58 -49.5t-56 -55t-59 -57.5q-14 -13 1 -30l239 -268q14 -15 27.5 -27t31.5 -21t44 -17q11 -3 21 -7t10 -13
q0 -7 -10 -12t-28 -5q-30 0 -59.5 2t-58.5 3.5t-61 1.5q-33 0 -61.5 -2.5t-63.5 -2.5q-7 0 -13.5 4t-6.5 11q0 16 20 21q40 8 42 27q0 8 -4.5 15.5t-12.5 17.5l-163 189q-7 8 -13 12t-11 4q-4 0 -6.5 -4.5t-2.5 -12.5q0 -45 0.5 -89t2.5 -92q1 -18 5 -31t15.5 -21t37.5 -16
q11 -3 19 -7t8 -13q0 -7 -9 -11.5t-20 -4.5q-31 0 -54 2t-42 4t-38 2q-21 0 -40 -2.5t-41.5 -5t-56.5 -2.5z" />
    <glyph glyph-name="uni0137" unicode="&#x137;" horiz-adv-x="546" 
d="M238 -290q-22 0 -22 13q0 9 15 16q21 9 37 26t16 41q0 22 -11 32t-33 15q-18 5 -28 16.5t-10 33.5q0 19 16 33t45 14q44 0 70.5 -29t26.5 -73q0 -34 -14.5 -59.5t-35.5 -43t-41 -26.5t-31 -9zM36 -3q-20 0 -20 14q0 8 6 12.5t17 7.5q15 5 26.5 11t11.5 28v480
q0 28 -7 47.5t-32 24.5q-11 2 -11 15t10 15q25 5 54.5 14.5t56.5 20t42 15.5q8 3 13 3q6 0 8 -3.5t2 -8.5q0 -8 -2.5 -27t-3.5 -42l1 -374q0 -12 9 -12q3 0 7.5 2.5t8.5 5.5q37 32 66 65t39 48q4 6 6.5 10t2.5 7q0 5 -8 10.5t-24 7.5q-12 2 -12 11t7.5 11.5t14.5 2.5h49
q18 0 47 1.5t57 4.5t40 3q11 0 11 -11q0 -8 -6 -13.5t-17 -7.5q-17 -4 -40 -14t-46 -23q-17 -9 -36.5 -22.5t-38 -28.5t-33.5 -29q-5 -5 -5 -11q0 -3 2 -5.5t4 -5.5q24 -31 46 -61t44 -57.5t45 -54.5q17 -18 41 -33t40 -21q8 -3 17.5 -7t9.5 -12q0 -14 -22 -14
q-60 0 -117.5 1.5t-107.5 1.5q-20 0 -20 14q0 8 6 12t16 8q9 3 12.5 7t4.5 9q0 4 -3.5 9.5t-8.5 12.5l-97 134q-3 2 -5 2q-6 -1 -6 -7v-31v-31v-34.5v-35.5t7.5 -24.5t22.5 -12.5q8 -3 14.5 -7.5t6.5 -12.5q0 -7 -5.5 -11t-12.5 -4q-20 0 -36.5 1.5t-31.5 2.5t-33 1
q-17 0 -33.5 -1t-33.5 -2.5t-37 -1.5z" />
    <glyph glyph-name="kgreenlandic" unicode="&#x138;" horiz-adv-x="577" 
d="M37 -3q-9 0 -14.5 3.5t-5.5 10.5q0 8 6 12.5t17 7.5q15 5 26.5 11t11.5 28v213q0 34 -10.5 48t-33.5 18q-6 1 -8.5 6t-2.5 12q0 15 11 17q51 10 92 28t63 28q16 8 20 8q12 0 12 -12q-2 -29 -7 -69.5t-5 -77.5v-39q0 -12 9 -12q3 0 7.5 3t8.5 5q37 33 66.5 66t39.5 48
q4 6 6 9.5t2 6.5q0 13 -32 18q-5 1 -8.5 4t-3.5 7q0 9 8 11.5t14 2.5h49q18 0 47 1.5t57 4t41 3.5q4 0 7 -3t3 -8q0 -7 -6 -13t-16 -8q-19 -4 -37.5 -13.5t-32.5 -17.5q-6 -4 -27 -17.5t-46 -34t-44 -42.5q-5 -5 -5 -11q0 -4 2.5 -6.5t4.5 -5.5q24 -31 44 -59t39.5 -53.5
t42.5 -51.5q17 -19 41.5 -34t40.5 -21q8 -3 17 -6.5t9 -11.5q0 -7 -6 -10.5t-16 -3.5q-42 0 -82.5 0.5t-78.5 1.5q-16 1 -32 1h-31q-9 0 -15 3.5t-6 10.5q0 8 6.5 12.5t16.5 8.5q8 3 11.5 6.5t3.5 7.5q0 5 -3 10t-8 12l-98 136q-3 3 -6.5 1t-3.5 -8v-131q0 -17 7 -24.5
t23 -12.5q8 -3 14.5 -7.5t6.5 -12.5q0 -7 -5.5 -11t-12.5 -4q-20 0 -36.5 1.5t-31.5 2.5t-33 1q-17 0 -33.5 -1t-33.5 -2.5t-37 -1.5z" />
    <glyph glyph-name="Lacute" unicode="&#x139;" horiz-adv-x="586" 
d="M140 682q-12 2 -12 9t11 21q25 33 50.5 64t54.5 61q13 14 34 12q8 -1 25.5 -7t32.5 -14t13 -17q-2 -10 -19 -22q-38 -25 -82 -50t-83 -49q-9 -5 -16 -7t-9 -1zM42 -5q-10 0 -15.5 4.5t-5.5 10.5q0 7 6 12.5t15 8.5q34 9 48.5 21t14.5 43v458q0 22 -5 34t-19 19t-41 13
q-21 5 -21 21q0 7 6 11t14 4q23 0 48.5 -1t50 -2.5t44.5 -1.5q21 0 47 1t53.5 2t49.5 1q9 0 13.5 -3.5t4.5 -10.5q0 -10 -5.5 -14t-15.5 -7q-41 -11 -55.5 -23.5t-14.5 -42.5v-450q0 -28 12.5 -40t41.5 -12h102q22 0 39.5 7.5t31.5 19.5q17 16 30 36.5t23 42.5
q10 20 15.5 26t11.5 6q8 0 11 -7t3 -13q0 -2 -2 -9t-2 -11q-7 -29 -13 -50.5t-9.5 -41t-6.5 -43.5q-1 -7 -4.5 -13t-11.5 -6q-21 0 -61 1t-89.5 1.5t-101 1.5t-95.5 1q-21 0 -48 -1t-52.5 -2.5t-41.5 -1.5z" />
    <glyph glyph-name="lacute" unicode="&#x13a;" horiz-adv-x="285" 
d="M73 737q-7 0 -13 3.5t-6 9.5q0 5 3 10t12 13q14 11 33 25t40.5 28t42 27t36.5 23q5 3 10 4t10 1q16 0 27.5 -13t18 -28t6.5 -22q0 -13 -10 -17q-20 -6 -41.5 -14t-44 -15.5t-44 -14.5t-43.5 -12q-8 -2 -18 -5t-19 -3zM36 -3q-9 0 -14.5 3.5t-5.5 10.5q0 8 6 12.5t17 7.5
q15 5 26.5 11t11.5 27v481q0 27 -7.5 47t-32.5 25q-10 2 -10 15t9 15q26 5 56 14.5t57 20t42 15.5q8 3 13 3q6 0 8 -3.5t2 -8.5q0 -7 -2.5 -26t-3.5 -43v-553q0 -22 11.5 -27.5t26.5 -10.5q11 -4 17 -8t6 -12q0 -7 -5.5 -10.5t-14.5 -3.5q-19 0 -37.5 1t-36 1.5t-35.5 0.5
q-17 0 -33.5 -1t-33.5 -2.5t-37 -1.5z" />
    <glyph glyph-name="uni013B" unicode="&#x13b;" horiz-adv-x="586" 
d="M259 -290q-22 0 -22 13q0 9 15 16q21 9 37 26t16 41q0 22 -11 32t-33 15q-18 5 -28 16.5t-10 33.5q0 19 16 33t45 14q44 0 70.5 -29t26.5 -73q0 -34 -14.5 -59.5t-35.5 -43t-41 -26.5t-31 -9zM42 -5q-10 0 -15.5 4.5t-5.5 10.5q0 7 6 12.5t15 8.5q34 9 48.5 21t14.5 43
v458q0 22 -5 34t-19 19t-41 13q-21 5 -21 21q0 7 6 11t14 4q23 0 48.5 -1t50 -2.5t44.5 -1.5q21 0 47 1t53.5 2t49.5 1q9 0 13.5 -3.5t4.5 -10.5q0 -10 -5.5 -14t-15.5 -7q-41 -11 -55.5 -23.5t-14.5 -42.5v-450q0 -28 12.5 -40t41.5 -12h102q22 0 39.5 7.5t31.5 19.5
q17 16 30 36.5t23 42.5q10 20 15.5 26t11.5 6q8 0 11 -7t3 -13q0 -2 -2 -9t-2 -11q-7 -29 -13 -50.5t-9.5 -41t-6.5 -43.5q-1 -7 -4.5 -13t-11.5 -6q-21 0 -61 1t-89.5 1.5t-101 1.5t-95.5 1q-21 0 -48 -1t-52.5 -2.5t-41.5 -1.5z" />
    <glyph glyph-name="uni013C" unicode="&#x13c;" horiz-adv-x="285" 
d="M107 -290q-22 0 -22 13q0 9 15 16q21 9 37 26t16 41q0 22 -11 32t-33 15q-18 5 -28 16.5t-10 33.5q0 19 16 33t45 14q44 0 70.5 -29t26.5 -73q0 -34 -14.5 -59.5t-35.5 -43t-41 -26.5t-31 -9zM36 -3q-9 0 -14.5 3.5t-5.5 10.5q0 8 6 12.5t17 7.5q15 5 26.5 11t11.5 27
v481q0 27 -7.5 47t-32.5 25q-10 2 -10 15t9 15q26 5 56 14.5t57 20t42 15.5q8 3 13 3q6 0 8 -3.5t2 -8.5q0 -7 -2.5 -26t-3.5 -43v-553q0 -22 11.5 -27.5t26.5 -10.5q11 -4 17 -8t6 -12q0 -7 -5.5 -10.5t-14.5 -3.5q-19 0 -37.5 1t-36 1.5t-35.5 0.5q-17 0 -33.5 -1
t-33.5 -2.5t-37 -1.5z" />
    <glyph glyph-name="Lcaron" unicode="&#x13d;" horiz-adv-x="586" 
d="M418 432q-6 0 -9 8t-3 18q0 3 1 17t2 30t1 25q0 32 -3.5 51.5t-3.5 34.5q0 12 12.5 25t31 22.5t34.5 9.5q15 0 18 -10.5t3 -25.5q0 -21 -8 -54t-20 -65.5t-25 -54.5q-18 -31 -31 -31zM42 -5q-10 0 -15.5 4.5t-5.5 10.5q0 7 6 12.5t15 8.5q34 9 48.5 21t14.5 43v458
q0 22 -5 34t-19 19t-41 13q-21 5 -21 21q0 7 6 11t14 4q23 0 48.5 -1t50 -2.5t44.5 -1.5q21 0 47 1t53.5 2t49.5 1q9 0 13.5 -3.5t4.5 -10.5q0 -10 -5.5 -14t-15.5 -7q-41 -11 -55.5 -23.5t-14.5 -42.5v-450q0 -28 12.5 -40t41.5 -12h102q22 0 39.5 7.5t31.5 19.5
q17 16 30 36.5t23 42.5q10 20 15.5 26t11.5 6q8 0 11 -7t3 -13q0 -2 -2 -9t-2 -11q-7 -29 -13 -50.5t-9.5 -41t-6.5 -43.5q-1 -7 -4.5 -13t-11.5 -6q-21 0 -61 1t-89.5 1.5t-101 1.5t-95.5 1q-21 0 -48 -1t-52.5 -2.5t-41.5 -1.5z" />
    <glyph glyph-name="lcaron" unicode="&#x13e;" horiz-adv-x="308" 
d="M280 475q-6 0 -9 8t-3 18q0 3 1 17t2 30t1 25q0 32 -3.5 51.5t-3.5 34.5q0 12 12.5 25t31 22.5t34.5 9.5q15 0 18 -10.5t3 -25.5q0 -21 -8 -54t-20 -65.5t-25 -54.5q-18 -31 -31 -31zM36 -3q-9 0 -14.5 3.5t-5.5 10.5q0 8 6 12.5t17 7.5q15 5 26.5 11t11.5 27v481
q0 27 -7.5 47t-32.5 25q-10 2 -10 15t9 15q26 5 56 14.5t57 20t42 15.5q8 3 13 3q6 0 8 -3.5t2 -8.5q0 -7 -2.5 -26t-3.5 -43v-553q0 -22 11.5 -27.5t26.5 -10.5q11 -4 17 -8t6 -12q0 -7 -5.5 -10.5t-14.5 -3.5q-19 0 -37.5 1t-36 1.5t-35.5 0.5q-17 0 -33.5 -1t-33.5 -2.5
t-37 -1.5z" />
    <glyph glyph-name="Ldot" unicode="&#x13f;" horiz-adv-x="586" 
d="M438 275q-31 0 -54.5 23t-23.5 55q0 34 23.5 57t54.5 23q35 0 58 -23t23 -57q0 -32 -23 -55t-58 -23zM42 -5q-10 0 -15.5 4.5t-5.5 10.5q0 7 6 12.5t15 8.5q34 9 48.5 21t14.5 43v458q0 22 -5 34t-19 19t-41 13q-21 5 -21 21q0 7 6 11t14 4q23 0 48.5 -1t50 -2.5
t44.5 -1.5q21 0 47 1t53.5 2t49.5 1q9 0 13.5 -3.5t4.5 -10.5q0 -10 -5.5 -14t-15.5 -7q-41 -11 -55.5 -23.5t-14.5 -42.5v-450q0 -28 12.5 -40t41.5 -12h102q22 0 39.5 7.5t31.5 19.5q17 16 30 36.5t23 42.5q10 20 15.5 26t11.5 6q8 0 11 -7t3 -13q0 -2 -2 -9t-2 -11
q-7 -29 -13 -50.5t-9.5 -41t-6.5 -43.5q-1 -7 -4.5 -13t-11.5 -6q-21 0 -61 1t-89.5 1.5t-101 1.5t-95.5 1q-21 0 -48 -1t-52.5 -2.5t-41.5 -1.5z" />
    <glyph glyph-name="ldot" unicode="&#x140;" horiz-adv-x="405" 
d="M36 -3q-9 0 -14.5 3.5t-5.5 10.5q0 8 6 12.5t17 7.5q15 5 26.5 11t11.5 27v481q0 27 -7.5 47t-32.5 25q-10 2 -10 15t9 15q26 5 56 14.5t57 20t42 15.5q8 3 13 3q6 0 8 -3.5t2 -8.5q0 -7 -2.5 -26t-3.5 -43v-553q0 -22 11.5 -27.5t26.5 -10.5q11 -4 17 -8t6 -12
q0 -7 -5.5 -10.5t-14.5 -3.5q-19 0 -37.5 1t-36 1.5t-35.5 0.5q-17 0 -33.5 -1t-33.5 -2.5t-37 -1.5zM343 241q-32 0 -56 23.5t-24 56.5q0 35 24 59t56 24q36 0 59.5 -24t23.5 -59q0 -33 -23.5 -56.5t-59.5 -23.5z" />
    <glyph glyph-name="Lslash" unicode="&#x141;" horiz-adv-x="586" 
d="M59 252q-11 -4 -20.5 -1t-9.5 12q0 17 6.5 30.5t17.5 17.5l79 27l73 16l168 58q8 3 17 -0.5t9 -13.5q0 -19 -7 -31.5t-24 -18.5l-164 -56l-70 -14zM42 -5q-10 0 -15.5 4.5t-5.5 10.5q0 7 6 12.5t15 8.5q34 9 48.5 21t14.5 43v458q0 22 -5 34t-19 19t-41 13q-21 5 -21 21
q0 7 6 11t14 4q23 0 48.5 -1t50 -2.5t44.5 -1.5q21 0 47 1t53.5 2t49.5 1q9 0 13.5 -3.5t4.5 -10.5q0 -10 -5.5 -14t-15.5 -7q-41 -11 -55.5 -23.5t-14.5 -42.5v-450q0 -28 12.5 -40t41.5 -12h102q22 0 39.5 7.5t31.5 19.5q17 16 30 36.5t23 42.5q10 20 15.5 26t11.5 6
q8 0 11 -7t3 -13q0 -2 -2 -9t-2 -11q-7 -29 -13 -50.5t-9.5 -41t-6.5 -43.5q-1 -7 -4.5 -13t-11.5 -6q-21 0 -61 1t-89.5 1.5t-101 1.5t-95.5 1q-21 0 -48 -1t-52.5 -2.5t-41.5 -1.5z" />
    <glyph glyph-name="lslash" unicode="&#x142;" horiz-adv-x="290" 
d="M47 285q-8 -4 -18.5 5.5t-10.5 17.5q0 10 6.5 17t12.5 11l77 41l52 21l96 50q5 3 11 3q5 0 10.5 -6t5.5 -23q0 -7 -8 -16t-19 -14l-94 -50l-51 -20zM44 -3q-9 0 -14.5 3.5t-5.5 10.5q0 8 6.5 12.5t16.5 7.5q15 5 26.5 11t11.5 27v481q0 27 -7 47t-32 25q-11 2 -11 15
t10 15q25 5 55 14.5t57 20t43 15.5q8 3 12 3q6 0 8 -3.5t2 -8.5q0 -7 -2.5 -26t-2.5 -43v-553q0 -22 11.5 -27.5t26.5 -10.5q10 -4 16.5 -8t6.5 -12q0 -7 -5.5 -10.5t-14.5 -3.5q-20 0 -38.5 1t-36 1.5t-35.5 0.5q-17 0 -33.5 -1t-33.5 -2.5t-37 -1.5z" />
    <glyph glyph-name="Nacute" unicode="&#x143;" horiz-adv-x="809" 
d="M377 682q-12 2 -12 9t11 21q25 33 50.5 64t54.5 61q13 14 34 12q8 -1 25.5 -7t32.5 -14t13 -17q-2 -10 -19 -22q-38 -25 -82 -50t-83 -49q-9 -5 -16 -7t-9 -1zM680 -19q-13 0 -42 15.5t-60 54.5q-24 25 -50 54t-55 60t-58.5 63t-58.5 63.5t-58 62.5t-55 60t-50 54
q-2 4 -6.5 7.5t-6.5 3.5q-4 0 -5.5 -7t-1.5 -12q-1 -46 0 -108t2.5 -125.5t1.5 -115.5q0 -32 20 -50.5t59 -28.5q11 -2 19.5 -6.5t8.5 -13.5q0 -7 -8 -11t-17 -4q-27 0 -44 1.5t-31.5 2t-35.5 0.5q-22 0 -41.5 -1t-33 -2t-18.5 -1q-7 0 -15.5 3.5t-8.5 10.5q0 9 8 13t18 8
q24 9 36.5 30t14.5 52q4 37 8.5 98t8.5 137.5t4 158.5q0 52 -26.5 75t-64.5 37q-8 2 -18 7.5t-10 14.5t8 12.5t18 3.5q18 0 40.5 -1t47.5 -1.5t52 -1.5t54 -1q8 0 12.5 -3t8.5 -8q22 -25 47.5 -54t53.5 -60.5t57 -64t57.5 -65.5t56 -64t53.5 -60t48 -54q3 -4 7.5 -8.5
t8.5 -4.5q8 0 8 15q0 31 0.5 72t0.5 87t-0.5 91t-2.5 83q-1 27 -20.5 40.5t-53.5 22.5q-11 2 -19 7t-8 14q0 7 8 10.5t17 3.5q23 0 39 -0.5t29 -0.5h29q20 0 34 0.5t30.5 1.5t42.5 1q12 0 18.5 -4t6.5 -11q0 -15 -26 -20q-35 -7 -50 -20t-16 -42q0 -36 -0.5 -77t-2.5 -84
t-3.5 -85.5t-2.5 -81.5t-1 -72q0 -23 3 -50.5t5.5 -50t2.5 -31.5q0 -25 -7.5 -35t-20.5 -10z" />
    <glyph glyph-name="nacute" unicode="&#x144;" horiz-adv-x="566" 
d="M266 453q-10 0 -10 12q0 4 1 9.5t4 11.5q8 19 20.5 48t25 56.5t19.5 42.5q8 15 18.5 20t26.5 5q24 0 41.5 -6t17.5 -18q0 -5 -2 -11.5t-8 -13.5q-19 -21 -40.5 -46t-43 -49t-43.5 -45q-16 -16 -27 -16zM41 -3q-7 0 -13.5 3.5t-6.5 10.5q0 8 7 12.5t16 7.5q15 5 26.5 11.5
t11.5 26.5v229q0 22 -6.5 37t-24.5 19q-4 1 -7.5 5t-3.5 13q0 14 10 17q34 8 74.5 21.5t69.5 28.5q4 2 9 5t9 3q6 0 7.5 -3.5t1.5 -8.5q0 -8 -2.5 -25.5t-2.5 -31.5q0 -4 0.5 -9t1.5 -6q34 33 69 51t81 18q52 0 87.5 -38.5t35.5 -104.5v-220q0 -20 11.5 -26.5t26.5 -11.5
q8 -3 14 -7.5t6 -12.5q0 -7 -5.5 -10.5t-11.5 -3.5q-20 0 -37.5 1.5t-34 2.5t-34.5 1q-17 0 -34 -1t-34 -2.5t-37 -1.5q-6 0 -11.5 3.5t-5.5 10.5q0 8 6 12.5t14 7.5q15 5 25 11.5t10 26.5v199q0 38 -17.5 59.5t-46.5 22.5q-22 0 -39 -7t-35 -19q-4 -4 -6 -9t-2 -10v-236
q0 -20 11 -26.5t25 -11.5q20 -6 20 -20q0 -6 -5 -10t-12 -4q-20 0 -37 1.5t-32 2.5t-33 1q-17 0 -34.5 -1t-36 -2.5t-38.5 -1.5z" />
    <glyph glyph-name="uni0145" unicode="&#x145;" horiz-adv-x="791" 
d="M360 -290q-22 0 -22 13q0 9 15 16q21 9 37 26t16 41q0 22 -11 32t-33 15q-18 5 -28 16.5t-10 33.5q0 19 16 33t45 14q44 0 70.5 -29t26.5 -73q0 -34 -14.5 -59.5t-35.5 -43t-41 -26.5t-31 -9zM680 -19q-13 0 -42 15.5t-60 54.5q-24 25 -50 54t-55 60t-58.5 63t-58.5 63.5
t-58 62.5t-55 60t-50 54q-2 4 -6.5 7.5t-6.5 3.5q-4 0 -5.5 -7t-1.5 -12q-1 -46 0 -108t2.5 -125.5t1.5 -115.5q0 -32 20 -50.5t59 -28.5q11 -2 19.5 -6.5t8.5 -13.5q0 -7 -8 -11t-17 -4q-27 0 -44 1.5t-31.5 2t-35.5 0.5q-22 0 -41.5 -1t-33 -2t-18.5 -1q-7 0 -15.5 3.5
t-8.5 10.5q0 9 8 13t18 8q24 9 36.5 30t14.5 52q4 37 8.5 98t8.5 137.5t4 158.5q0 52 -26.5 75t-64.5 37q-8 2 -18 7.5t-10 14.5t8 12.5t18 3.5q18 0 40.5 -1t47.5 -1.5t52 -1.5t54 -1q8 0 12.5 -3t8.5 -8q22 -25 47.5 -54t53.5 -60.5t57 -64t57.5 -65.5t56 -64t53.5 -60
t48 -54q3 -4 7.5 -8.5t8.5 -4.5q8 0 8 15q0 31 0.5 72t0.5 87t-0.5 91t-2.5 83q-1 27 -20.5 40.5t-53.5 22.5q-11 2 -19 7t-8 14q0 7 8 10.5t17 3.5q23 0 39 -0.5t29 -0.5h29q20 0 34 0.5t30.5 1.5t42.5 1q12 0 18.5 -4t6.5 -11q0 -15 -26 -20q-35 -7 -50 -20t-16 -42
q0 -36 -0.5 -77t-2.5 -84t-3.5 -85.5t-2.5 -81.5t-1 -72q0 -23 3 -50.5t5.5 -50t2.5 -31.5q0 -25 -7.5 -35t-20.5 -10z" />
    <glyph glyph-name="uni0146" unicode="&#x146;" horiz-adv-x="566" 
d="M251 -290q-22 0 -22 13q0 9 15 16q21 9 37 26t16 41q0 22 -11 32t-33 15q-18 5 -28 16.5t-10 33.5q0 19 16 33t45 14q44 0 70.5 -29t26.5 -73q0 -34 -14.5 -59.5t-35.5 -43t-41 -26.5t-31 -9zM41 -3q-7 0 -13.5 3.5t-6.5 10.5q0 8 7 12.5t16 7.5q15 5 26.5 11.5
t11.5 26.5v229q0 22 -6.5 37t-24.5 19q-4 1 -7.5 5t-3.5 13q0 14 10 17q34 8 74.5 21.5t69.5 28.5q4 2 9 5t9 3q6 0 7.5 -3.5t1.5 -8.5q0 -8 -2.5 -25.5t-2.5 -31.5q0 -4 0.5 -9t1.5 -6q34 33 69 51t81 18q52 0 87.5 -38.5t35.5 -104.5v-220q0 -20 11.5 -26.5t26.5 -11.5
q8 -3 14 -7.5t6 -12.5q0 -7 -5.5 -10.5t-11.5 -3.5q-20 0 -37.5 1.5t-34 2.5t-34.5 1q-17 0 -34 -1t-34 -2.5t-37 -1.5q-6 0 -11.5 3.5t-5.5 10.5q0 8 6 12.5t14 7.5q15 5 25 11.5t10 26.5v199q0 38 -17.5 59.5t-46.5 22.5q-22 0 -39 -7t-35 -19q-4 -4 -6 -9t-2 -10v-236
q0 -20 11 -26.5t25 -11.5q20 -6 20 -20q0 -6 -5 -10t-12 -4q-20 0 -37 1.5t-32 2.5t-33 1q-17 0 -34.5 -1t-36 -2.5t-38.5 -1.5z" />
    <glyph glyph-name="Ncaron" unicode="&#x147;" horiz-adv-x="809" 
d="M281 847q6 0 22.5 -5t37.5 -13t40.5 -16t31.5 -15q7 -4 12 -4t12 4q13 7 32.5 15.5t40.5 16.5t37.5 13t23.5 5q16 0 16 -13q0 -9 -7 -16l-104 -92q-18 -15 -27.5 -22t-23.5 -7q-13 0 -23 7t-27 22l-105 93q-8 7 -8 15q0 12 19 12zM680 -19q-13 0 -42 15.5t-60 54.5
q-24 25 -50 54t-55 60t-58.5 63t-58.5 63.5t-58 62.5t-55 60t-50 54q-2 4 -6.5 7.5t-6.5 3.5q-4 0 -5.5 -7t-1.5 -12q-1 -46 0 -108t2.5 -125.5t1.5 -115.5q0 -32 20 -50.5t59 -28.5q11 -2 19.5 -6.5t8.5 -13.5q0 -7 -8 -11t-17 -4q-27 0 -44 1.5t-31.5 2t-35.5 0.5
q-22 0 -41.5 -1t-33 -2t-18.5 -1q-7 0 -15.5 3.5t-8.5 10.5q0 9 8 13t18 8q24 9 36.5 30t14.5 52q4 37 8.5 98t8.5 137.5t4 158.5q0 52 -26.5 75t-64.5 37q-8 2 -18 7.5t-10 14.5t8 12.5t18 3.5q18 0 40.5 -1t47.5 -1.5t52 -1.5t54 -1q8 0 12.5 -3t8.5 -8q22 -25 47.5 -54
t53.5 -60.5t57 -64t57.5 -65.5t56 -64t53.5 -60t48 -54q3 -4 7.5 -8.5t8.5 -4.5q8 0 8 15q0 31 0.5 72t0.5 87t-0.5 91t-2.5 83q-1 27 -20.5 40.5t-53.5 22.5q-11 2 -19 7t-8 14q0 7 8 10.5t17 3.5q23 0 39 -0.5t29 -0.5h29q20 0 34 0.5t30.5 1.5t42.5 1q12 0 18.5 -4
t6.5 -11q0 -15 -26 -20q-35 -7 -50 -20t-16 -42q0 -36 -0.5 -77t-2.5 -84t-3.5 -85.5t-2.5 -81.5t-1 -72q0 -23 3 -50.5t5.5 -50t2.5 -31.5q0 -25 -7.5 -35t-20.5 -10z" />
    <glyph glyph-name="ncaron" unicode="&#x148;" horiz-adv-x="566" 
d="M294 455q-9 0 -16.5 9.5t-19.5 29.5q-9 16 -20 33.5t-22 36t-20.5 36t-17.5 32.5q-8 16 -6 27.5t16 11.5q8 0 18 -8.5t23 -23.5q11 -12 26 -30t33 -38q5 -3 6.5 -3t4.5 3q19 20 34.5 38t25.5 30q13 15 23.5 23.5t16.5 8.5q10 0 14 -11t-4 -28q-7 -15 -17 -33t-21 -36
t-22 -36.5t-20 -34.5q-10 -17 -17.5 -27t-17.5 -10zM41 -3q-7 0 -13.5 3.5t-6.5 10.5q0 8 7 12.5t16 7.5q15 5 26.5 11.5t11.5 26.5v229q0 22 -6.5 37t-24.5 19q-4 1 -7.5 5t-3.5 13q0 14 10 17q34 8 74.5 21.5t69.5 28.5q4 2 9 5t9 3q6 0 7.5 -3.5t1.5 -8.5
q0 -8 -2.5 -25.5t-2.5 -31.5q0 -4 0.5 -9t1.5 -6q34 33 69 51t81 18q52 0 87.5 -38.5t35.5 -104.5v-220q0 -20 11.5 -26.5t26.5 -11.5q8 -3 14 -7.5t6 -12.5q0 -7 -5.5 -10.5t-11.5 -3.5q-20 0 -37.5 1.5t-34 2.5t-34.5 1q-17 0 -34 -1t-34 -2.5t-37 -1.5q-6 0 -11.5 3.5
t-5.5 10.5q0 8 6 12.5t14 7.5q15 5 25 11.5t10 26.5v199q0 38 -17.5 59.5t-46.5 22.5q-22 0 -39 -7t-35 -19q-4 -4 -6 -9t-2 -10v-236q0 -20 11 -26.5t25 -11.5q20 -6 20 -20q0 -6 -5 -10t-12 -4q-20 0 -37 1.5t-32 2.5t-33 1q-17 0 -34.5 -1t-36 -2.5t-38.5 -1.5z" />
    <glyph glyph-name="napostrophe" unicode="&#x149;" horiz-adv-x="666" 
d="M141 -3q-7 0 -13.5 3.5t-6.5 10.5q0 8 7 12.5t16 7.5q15 5 26.5 11.5t11.5 26.5v229q0 22 -6.5 37t-24.5 19q-4 1 -7.5 5t-3.5 13q0 14 10 17q34 8 74.5 21.5t69.5 28.5q4 2 9 5t9 3q6 0 7.5 -3.5t1.5 -8.5q0 -8 -2.5 -25.5t-2.5 -31.5q0 -4 0.5 -9t1.5 -6q34 33 69 51
t81 18q52 0 87.5 -38.5t35.5 -104.5v-220q0 -20 11.5 -26.5t26.5 -11.5q8 -3 14 -7.5t6 -12.5q0 -7 -5.5 -10.5t-11.5 -3.5q-20 0 -37.5 1.5t-34 2.5t-34.5 1q-17 0 -34 -1t-34 -2.5t-37 -1.5q-6 0 -11.5 3.5t-5.5 10.5q0 8 6 12.5t14 7.5q15 5 25 11.5t10 26.5v199
q0 38 -17.5 59.5t-46.5 22.5q-22 0 -39 -7t-35 -19q-4 -4 -6 -9t-2 -10v-236q0 -20 11 -26.5t25 -11.5q20 -6 20 -20q0 -6 -5 -10t-12 -4q-20 0 -37 1.5t-32 2.5t-33 1q-17 0 -34.5 -1t-36 -2.5t-38.5 -1.5zM10 409q-25 0 -25 16q0 7 6 10t16 6q27 7 46 19t29.5 29.5
t10.5 39.5q0 19 -12 29.5t-29 14.5q-18 5 -30.5 19.5t-12.5 38.5q0 26 21 43.5t48 17.5q45 0 73 -28.5t28 -74.5q0 -41 -15 -73.5t-39.5 -57t-54 -37t-60.5 -12.5z" />
    <glyph glyph-name="Eng" unicode="&#x14a;" horiz-adv-x="791" 
d="M530 -271q-38 0 -61.5 23.5t-23.5 59.5q0 16 6.5 21.5t25.5 6.5q60 4 91.5 17t43.5 34t12 49q0 17 -6 31.5t-15 24.5q-20 24 -46 54t-56.5 65t-62.5 72l-64 74t-62.5 71.5t-56.5 65.5t-46 54q-2 3 -6 7t-7 4q-4 0 -5.5 -7t-1.5 -12q-1 -46 -2 -104.5t-1.5 -117.5
t-0.5 -111q0 -32 20 -50.5t59 -28.5q11 -2 19.5 -6.5t8.5 -13.5q0 -7 -8 -11t-16 -4q-27 0 -44.5 1.5t-32 2t-35.5 0.5q-22 0 -43 -1t-36.5 -2t-20.5 -1q-7 0 -15.5 3.5t-8.5 10.5q0 9 7.5 13t18.5 8q16 6 27 18.5t17 29t7 34.5q4 37 8 98.5t6.5 138t2.5 158.5
q0 53 -24.5 75t-62.5 36q-8 2 -18 7.5t-10 14.5t8 12.5t18 3.5q18 0 41 -1t49.5 -1.5t54 -1.5t54.5 -1q8 0 12.5 -3t8.5 -8q21 -26 44.5 -54.5t48.5 -59.5t51.5 -62.5t52.5 -64t51 -63t49 -59.5t45 -54q3 -4 7.5 -9t8.5 -5q8 0 8 16q0 10 0.5 38t1 71t0.5 97v117
q0 27 -17.5 43.5t-51.5 24.5q-11 2 -18 7t-7 14q0 7 7 10.5t15 3.5q24 0 40 -0.5t29 -0.5h29q20 0 34 0.5t30.5 1.5t42.5 1q12 0 18.5 -4t6.5 -11q0 -15 -26 -20q-35 -7 -50.5 -20t-15.5 -42l-2 -527q0 -58 -11.5 -112.5t-33 -97t-51 -67.5t-63.5 -25z" />
    <glyph glyph-name="eng" unicode="&#x14b;" horiz-adv-x="552" 
d="M291 -285q-21 0 -39 9t-18 25q0 19 8.5 33t18.5 14q4 0 12.5 -3t18.5 -8q11 -4 21 -8t16 -4q5 0 7.5 4t3.5 9q9 34 15.5 93.5t5.5 135.5l-2 253q0 38 -17.5 59.5t-46.5 21.5q-16 0 -33 -4.5t-32 -16.5q-8 -7 -12.5 -21.5t-4.5 -39.5v-197q0 -20 11 -27t25 -12
q8 -3 14 -7.5t6 -12.5q0 -6 -6 -10t-12 -4q-19 0 -36 1.5t-32 2.5t-33 1q-17 0 -34.5 -1t-36 -2.5t-38.5 -1.5q-5 0 -12.5 3.5t-7.5 10.5q0 8 7.5 12.5t15.5 7.5q15 5 26.5 12t11.5 27v228q0 22 -6.5 37.5t-25.5 18.5q-4 1 -7 5.5t-3 12.5q0 14 9 17q35 8 76.5 22t69.5 29
q4 1 8.5 4t8.5 3q6 0 7.5 -4t1.5 -8q0 -8 -2.5 -26t-2.5 -32q0 -3 0.5 -7.5t1.5 -5.5q21 19 46 34.5t53.5 25t59.5 9.5q32 0 58 -19t41 -51.5t15 -77.5v-266q0 -38 -12.5 -80t-34 -81.5t-48 -71.5t-54 -51t-51.5 -20z" />
    <glyph glyph-name="Omacron" unicode="&#x14c;" horiz-adv-x="760" 
d="M250 717q-9 0 -14 6t-5 12q0 17 5 31.5t14 23t18 8.5h269q9 0 13.5 -5.5t4.5 -12.5q0 -24 -12 -43.5t-29 -19.5h-264zM375 -14q-69 0 -131.5 23.5t-111 67t-76 104t-27.5 134.5q0 68 22.5 130.5t67.5 111.5t111.5 78t153.5 29q70 0 132.5 -23.5t110.5 -67t76 -104
t28 -134.5q0 -67 -23 -130t-68 -112t-111.5 -78t-153.5 -29zM393 32q57 0 95.5 32t57.5 89t19 131q0 61 -11.5 120.5t-36 107.5t-62.5 76.5t-90 28.5q-56 0 -94.5 -32t-57.5 -88t-19 -130q0 -62 12 -121.5t36 -107.5t61.5 -77t89.5 -29z" />
    <glyph glyph-name="omacron" unicode="&#x14d;" horiz-adv-x="503" 
d="M237 -14q-60 0 -108 27t-76.5 74.5t-28.5 107.5q0 48 18 91t50 76t75 52t92 19q62 0 112 -29t79.5 -76.5t29.5 -103.5q0 -64 -27.5 -118.5t-81 -87t-134.5 -32.5zM257 30q21 0 36.5 8.5t25.5 25.5q12 20 16.5 54.5t4.5 81.5q0 54 -12 96.5t-33.5 67.5t-50.5 25
q-16 0 -29 -5.5t-23 -15.5q-17 -20 -23.5 -57t-6.5 -91q0 -48 12.5 -91.5t34 -71t48.5 -27.5zM122 508q-9 0 -14.5 5.5t-5.5 11.5q0 18 5.5 32t14 22.5t17.5 8.5h258q9 0 14 -5t5 -13q0 -24 -12 -43t-29 -19h-253z" />
    <glyph glyph-name="Obreve" unicode="&#x14e;" horiz-adv-x="760" 
d="M392 686q-49 0 -81.5 21.5t-48 50.5t-15.5 52q0 13 2.5 19.5t10.5 6.5q9 0 15 -6t14 -15q22 -25 45.5 -36t57.5 -11t57.5 11t45.5 36q8 9 14 15t15 6t11 -6.5t2 -19.5q0 -23 -15.5 -52t-47.5 -50.5t-82 -21.5zM375 -14q-69 0 -131.5 23.5t-111 67t-76 104t-27.5 134.5
q0 68 22.5 130.5t67.5 111.5t111.5 78t153.5 29q70 0 132.5 -23.5t110.5 -67t76 -104t28 -134.5q0 -67 -23 -130t-68 -112t-111.5 -78t-153.5 -29zM393 32q57 0 95.5 32t57.5 89t19 131q0 61 -11.5 120.5t-36 107.5t-62.5 76.5t-90 28.5q-56 0 -94.5 -32t-57.5 -88t-19 -130
q0 -62 12 -121.5t36 -107.5t61.5 -77t89.5 -29z" />
    <glyph glyph-name="obreve" unicode="&#x14f;" horiz-adv-x="503" 
d="M259 468q-37 0 -61 13t-38.5 32.5t-20.5 40t-6 35.5q0 17 7.5 25.5t15.5 8.5q9 0 14 -6t7 -15q7 -27 27 -39.5t55 -12.5q36 0 55.5 12.5t26.5 39.5q2 9 7 15t14 6q8 0 15.5 -8.5t7.5 -25.5q0 -15 -6 -35.5t-20.5 -40t-38.5 -32.5t-61 -13zM237 -14q-60 0 -108 27
t-76.5 74.5t-28.5 107.5q0 48 18 91t50 76t75 52t92 19q62 0 112 -29t79.5 -76.5t29.5 -103.5q0 -64 -27.5 -118.5t-81 -87t-134.5 -32.5zM257 30q21 0 36.5 8.5t25.5 25.5q12 20 16.5 54.5t4.5 81.5q0 54 -12 96.5t-33.5 67.5t-50.5 25q-16 0 -29 -5.5t-23 -15.5
q-17 -20 -23.5 -57t-6.5 -91q0 -48 12.5 -91.5t34 -71t48.5 -27.5z" />
    <glyph glyph-name="Ohungarumlaut" unicode="&#x150;" horiz-adv-x="760" 
d="M418 682q-12 2 -12 9t11 21q25 33 50.5 64t54.5 61q13 14 34 12q8 -1 25.5 -7t32.5 -14t13 -17q-2 -10 -19 -22q-38 -25 -82 -50t-83 -49q-9 -5 -16 -7t-9 -1zM256 682q-12 2 -12 9t11 21q25 33 50.5 64t54.5 61q13 14 34 12q8 -1 25.5 -7t32.5 -14t13 -17
q-2 -10 -19 -22q-38 -25 -82 -50t-83 -49q-9 -5 -16 -7t-9 -1zM375 -14q-69 0 -131.5 23.5t-111 67t-76 104t-27.5 134.5q0 68 22.5 130.5t67.5 111.5t111.5 78t153.5 29q70 0 132.5 -23.5t110.5 -67t76 -104t28 -134.5q0 -67 -23 -130t-68 -112t-111.5 -78t-153.5 -29z
M393 32q57 0 95.5 32t57.5 89t19 131q0 61 -11.5 120.5t-36 107.5t-62.5 76.5t-90 28.5q-56 0 -94.5 -32t-57.5 -88t-19 -130q0 -62 12 -121.5t36 -107.5t61.5 -77t89.5 -29z" />
    <glyph glyph-name="ohungarumlaut" unicode="&#x151;" horiz-adv-x="503" 
d="M308 458q-4 0 -7 3.5t-3 10.5t2.5 13.5t7.5 18.5q7 15 19.5 41.5t26 54t20.5 42.5q13 25 37 25q30 0 48 -7.5t18 -22.5q0 -6 -4 -11.5t-6 -9.5q-17 -23 -40.5 -48.5t-47.5 -50t-45 -45.5q-5 -5 -12.5 -9.5t-13.5 -4.5zM166 458q-4 0 -7 3.5t-3 10.5q0 5 1.5 13t7.5 23
q6 14 16.5 40t21.5 52t17 41q12 29 39 29q31 0 48 -6t17 -21q0 -5 -3 -10t-5 -10q-15 -23 -36.5 -49.5t-44.5 -51.5t-42 -47q-6 -7 -13.5 -12t-13.5 -5zM237 -14q-60 0 -108 27t-76.5 74.5t-28.5 107.5q0 48 18 91t50 76t75 52t92 19q62 0 112 -29t79.5 -76.5t29.5 -103.5
q0 -64 -27.5 -118.5t-81 -87t-134.5 -32.5zM257 30q21 0 36.5 8.5t25.5 25.5q12 20 16.5 54.5t4.5 81.5q0 54 -12 96.5t-33.5 67.5t-50.5 25q-16 0 -29 -5.5t-23 -15.5q-17 -20 -23.5 -57t-6.5 -91q0 -48 12.5 -91.5t34 -71t48.5 -27.5z" />
    <glyph glyph-name="OE" unicode="&#x152;" horiz-adv-x="986" 
d="M375 -14q-69 0 -131.5 23.5t-111 67t-76 104t-27.5 134.5q0 68 22.5 130.5t67.5 111.5t111.5 78t153.5 29q55 0 106 -15t94 -42l-67 -132q0 53 -20.5 82t-53.5 41t-72 12q-87 0 -131 -72.5t-44 -193.5q0 -91 22 -159.5t65 -107t104 -38.5q60 0 95 19t35 81l80 -85
q-42 -31 -98 -49.5t-124 -18.5zM452 -5q-9 0 -15 4.5t-6 10.5q0 15 23 21q34 9 48 21t14 44v455q0 32 -12.5 46t-48.5 22q-13 3 -18 8.5t-5 12.5q0 6 6 10.5t16 4.5q24 0 50.5 -1t51.5 -2.5t47 -1.5q52 0 111 1t105 2q33 0 54 3.5t25 3.5q7 0 15 -4.5t9 -14.5
q4 -36 10.5 -70t6.5 -60q0 -9 -4 -14t-9 -5t-10.5 4t-9.5 12q-9 25 -17 43t-18 29q-12 11 -29 21t-43 10h-76q-22 0 -37.5 -11.5t-15.5 -32.5v-189q0 -12 7 -18t18 -6h87q27 0 38.5 17.5t19.5 42.5q8 19 21 19q5 0 9 -5.5t3 -16.5q-1 -12 -2.5 -26t-2 -28t-0.5 -27
q0 -12 0.5 -26t1.5 -28t2 -27q2 -14 -1.5 -20.5t-8.5 -6.5q-17 0 -24 26q-8 30 -19.5 46t-30.5 16h-94q-12 0 -18 -5.5t-6 -17.5v-190q0 -30 13 -42t39 -12h87q22 0 41.5 5t34.5 17q17 14 31 35t26 45q4 7 8 9.5t10 2.5t8 -6t2 -13q0 -17 -5 -38t-12.5 -44.5t-13.5 -46.5
q-3 -7 -9 -10t-14 -3q-12 0 -47.5 0.5t-83.5 1.5t-99 1.5t-95 0.5q-20 0 -44.5 -1t-48.5 -2.5t-46 -1.5z" />
    <glyph glyph-name="oe" unicode="&#x153;" horiz-adv-x="762" 
d="M237 -14q-60 0 -108 27t-76.5 74.5t-28.5 107.5q0 48 18 91t50 76t75 52t92 19q62 0 112 -29t79.5 -76.5t29.5 -103.5q0 -64 -27.5 -118.5t-81 -87t-134.5 -32.5zM257 30q21 0 36.5 8.5t25.5 25.5q12 20 16.5 54.5t4.5 81.5q0 54 -12 96.5t-33.5 67.5t-50.5 25
q-16 0 -29 -5.5t-23 -15.5q-17 -20 -23.5 -57t-6.5 -91q0 -48 12.5 -91.5t34 -71t48.5 -27.5zM556 -14q-54 0 -96.5 28.5t-67 78t-24.5 112.5t29 114.5t79 82t110 30.5q43 0 77 -18.5t54.5 -49.5t20.5 -70q0 -38 -31 -38h-200q-14 0 -20.5 -8t-6.5 -27q0 -38 17 -69.5
t46 -49.5t67 -18q29 0 53.5 11t48.5 30q4 3 7.5 5.5t6.5 2.5q10 0 10 -13q0 -11 -8 -30q-10 -25 -33.5 -49.5t-58.5 -39.5t-80 -15zM507 298h60q28 0 39 1t20 4q5 2 8 10t3 18q0 27 -18.5 44t-45.5 17q-21 0 -39.5 -11.5t-30 -30t-10.5 -38.5q0 -14 14 -14z" />
    <glyph glyph-name="Racute" unicode="&#x154;" horiz-adv-x="760" 
d="M268 682q-12 2 -12 9t11 21q25 33 50.5 64t54.5 61q13 14 34 12q8 -1 25.5 -7t32.5 -14t13 -17q-2 -10 -19 -22q-38 -25 -82 -50t-83 -49q-9 -5 -16 -7t-9 -1zM645 -21q-51 0 -86 12.5t-59.5 33t-43.5 46.5q-22 29 -42.5 58t-40.5 63t-42 78q-10 22 -27 31q-9 6 -18 8
t-16 2q-5 0 -8 -5.5t-3 -14.5v-191q0 -31 17 -45t59 -23q11 -2 16.5 -6.5t5.5 -13.5q0 -7 -5 -11t-14 -4q-22 0 -50.5 1.5t-56.5 2.5t-48 1q-21 0 -46 -1t-51.5 -2.5t-48.5 -1.5q-8 0 -14 3.5t-6 10.5q0 16 21 21q38 8 52.5 20.5t14.5 45.5v449q0 24 -4.5 38t-17.5 21.5
t-38 12.5q-13 3 -18 8.5t-5 12.5q0 6 6 10.5t16 4.5q32 0 52.5 -2t39 -3.5t43.5 -1.5q23 0 40.5 2.5t40 4.5t57.5 2q117 0 180 -40t63 -121q0 -45 -19.5 -75.5t-49 -50t-59.5 -29.5q-4 -1 -3.5 -4.5t2.5 -7.5q30 -44 58.5 -85.5t58.5 -77t62 -65.5q34 -32 69.5 -37.5
t70.5 -5.5q15 0 15 -18q0 -22 -15.5 -35.5t-42.5 -19.5t-62 -6zM297 343q38 0 63 17t38 46.5t13 67.5q0 46 -12 77t-36 46.5t-62 15.5q-22 0 -31.5 -17.5t-9.5 -74.5q-1 -23 -1 -58v-83q0 -20 10.5 -28.5t27.5 -8.5z" />
    </font>
</defs>
</svg>
