<?xml version="1.0" standalone="no"?>
<!DOCTYPE svg PUBLIC "-//W3C//DTD SVG 1.1//EN" "http://www.w3.org/Graphics/SVG/1.1/DTD/svg11.dtd" >
<svg xmlns="http://www.w3.org/2000/svg" xmlns:xlink="http://www.w3.org/1999/xlink" version="1.1">
<metadata>
Created by FontForge 20190801 at Mon Feb  8 12:14:30 2021
 By root
Copyright (c) 2017, Agung Syaifudin

www.creativemarket.com/vuuuds
www.pinterest.com/diekave
www.instagram.com/diekave


diekave@gmail.com
</metadata>
<defs>
<font id="Faust" horiz-adv-x="300" >
  <font-face 
    font-family="Faust"
    font-weight="400"
    font-stretch="normal"
    units-per-em="1000"
    panose-1="2 0 5 3 0 0 0 0 0 0"
    ascent="800"
    descent="-200"
    x-height="344"
    cap-height="526"
    bbox="-213 -241 1318 1046"
    underline-thickness="50"
    underline-position="-150"
    unicode-range="U+0001-206F"
  />
<missing-glyph horiz-adv-x="364" 
d="M33 0v666h265v-666h-265zM66 33h199v600h-199v-600z" />
    <glyph glyph-name=".notdef" horiz-adv-x="364" 
d="M33 0v666h265v-666h-265zM66 33h199v600h-199v-600z" />
    <glyph glyph-name="uni0000" 
 />
    <glyph glyph-name="uni0000" 
 />
    <glyph glyph-name="uni000D" unicode="&#xd;" 
 />
    <glyph glyph-name="uni0001" 
 />
    <glyph glyph-name="uni0002" 
 />
    <glyph glyph-name="uni0003" 
 />
    <glyph glyph-name="uni0004" 
 />
    <glyph glyph-name="uni0005" 
 />
    <glyph glyph-name="uni0006" 
 />
    <glyph glyph-name="uni0007" 
 />
    <glyph glyph-name="uni0008" 
 />
    <glyph glyph-name="uni0009" unicode="&#x9;" 
 />
    <glyph glyph-name="uni000A" unicode="&#xa;" 
 />
    <glyph glyph-name="uni000B" 
 />
    <glyph glyph-name="uni000C" 
 />
    <glyph glyph-name="uni000E" 
 />
    <glyph glyph-name="uni000F" 
 />
    <glyph glyph-name="uni0010" 
 />
    <glyph glyph-name="uni0011" 
 />
    <glyph glyph-name="uni0012" 
 />
    <glyph glyph-name="uni0013" 
 />
    <glyph glyph-name="uni0014" 
 />
    <glyph glyph-name="uni0015" 
 />
    <glyph glyph-name="uni0016" 
 />
    <glyph glyph-name="uni0017" 
 />
    <glyph glyph-name="uni0018" 
 />
    <glyph glyph-name="uni0019" 
 />
    <glyph glyph-name="uni001A" 
 />
    <glyph glyph-name="uni001B" 
 />
    <glyph glyph-name="uni001C" 
 />
    <glyph glyph-name="uni001D" 
 />
    <glyph glyph-name="uni001E" 
 />
    <glyph glyph-name="uni001F" 
 />
    <glyph glyph-name="space" unicode=" " 
 />
    <glyph glyph-name="exclam" unicode="!" horiz-adv-x="232" 
d="M209 554q5 6 11.5 5.5t10 -6.5t0.5 -13q-14 -19 -28 -46q-39 -63 -112 -209l-24 -48q-4 -6 -9.5 -6t-9.5 5t-1 10q108 217 134 261q14 26 28 47zM0 156v3q1 6 5.5 8.5t9.5 1.5q1 0 1.5 -0.5l0.5 -0.5q1 1 5.5 5t6 4.5t7 2t9.5 -1.5q15 -16 -27 -36q-1 -1 -3 -1h-2
q-1 0 -2 0.5l-1 0.5q-5 1 -8 5.5t-2 8.5z" />
    <glyph glyph-name="quotedbl" unicode="&#x22;" horiz-adv-x="101" 
d="M21 487q-3 -10 -13 -7t-8 12q0 2 1 4q0 7 11 30q1 0 3 5.5t3.5 8t4.5 7t5.5 7t5.5 4.5t6.5 2t6.5 -2q10 -7 3 -18l-7 -9q-19 -31 -22 -43v-1zM100 547q-14 -19 -42 -66q-4 -6 -9.5 -6.5t-9 4.5t-1.5 11q6 12 22 38.5t18 31.5q2 4 6 5.5t7.5 0.5t6 -3.5t3.5 -6.5t-1 -8v-1
z" />
    <glyph glyph-name="numbersign" unicode="#" horiz-adv-x="340" 
d="M267 388l-8 -12q-19 -28 -24 -38h23q5 0 8.5 -4t3.5 -10q-1 -12 -13 -12h-2l-31 4h-2q-4 -6 -22 -37q6 0 15.5 0.5t13.5 0.5l40 1q5 0 8 -4t3 -9q0 -6 -3.5 -10t-8.5 -4h-1q-16 1 -40 2q-10 0 -40 2l-2.5 -5t-2.5 -4q-42 -74 -76 -141q-4 -7 -10.5 -7.5t-11 5.5t-1.5 13
q1 0 1 1t16 26q6 10 27 49t35 64h-22h-50q-29 -52 -37 -70q-1 -3 -3 -5t-4.5 -2.5t-5.5 0t-5 2t-3.5 3.5t-2 5t0.5 6q0 1 1 2q19 32 34 58h-6.5h-6.5q-5 0 -14.5 -1t-13.5 -1l-11 -2q-7 0 -11 6t-1.5 12.5t10.5 6.5h67q4 8 24 42h-9h-9q-4 0 -11.5 -1t-12 -1t-10 0.5t-8 3
t-3 7.5t2.5 9t8 5h33q4 0 14 -0.5t16 -0.5q13 21 18 33q-4 8 5 16q1 0 2 2l3 2t5 2h2l1 -0.5t2 -0.5q7 -2 9 -9l0.5 -1l0.5 -1v-5q0 -1 -0.5 -2l-0.5 -1q-1 -2 -2.5 -6t-2.5 -6l-8 -13q-1 -2 -3.5 -6.5t-3.5 -5.5h7.5h7.5q37 -2 53 -2q7 11 20 33t17 29q3 4 7 5.5t7.5 0
t6 -4.5t3 -7t-1.5 -7zM192 318q-48 3 -56 3h-7q-19 -30 -25 -42h71q13 23 18 33q3 4 4 6h-5z" />
    <glyph glyph-name="dollar" unicode="$" horiz-adv-x="415" 
d="M471 553q6 -5 6 -14v-2v-2q-5 -15 -32 -33q-11 -8 -26 -17t-27.5 -16t-32.5 -16.5t-29 -13.5t-31 -14t-26 -11q-6 -16 -6 -33q0 -5 1 -15l2 -17q14 -114 -33 -163l-5 -5q0 -8 -0.5 -14.5t-1.5 -12.5t-2 -10t-2.5 -9.5t-2.5 -10.5q-2 -7 -8.5 -8.5t-12 3t-3.5 12.5
q4 8 8 32q-33 -19 -90 -24q-2 0 -5.5 -0.5t-5.5 -0.5q-2 -7 -20 -34q-16 -27 -18 -30q-2 -7 -11 -7q-7 0 -10.5 6t-0.5 12q8 16 32 53h-30h-4h-4q-37 4 -39.5 24t19.5 39q53 44 118 51q60 8 82 -28q3 -4 7 -16q29 34 25 108q0 10 -3 32l-2 16q-1 11 -1 17q0 12 2 22
q-14 -6 -39 -16t-32 -12.5t-12 2t-4.5 11.5t7.5 10q11 4 42 16.5t47 18.5q30 61 107 99q48 23 82 26q5 9 18 30.5t18 29.5q5 6 11 6t10 -6t0 -12q-25 -40 -32 -53zM428 533q-89 -21 -137 -85q7 3 24.5 11t27.5 12.5t26 12t27 14t24 14.5t23 16l2.5 2.5t2.5 1.5l-1 1
q-3 1 -4 3q-5 0 -15 -3zM20 166q0 -6 27 -8h8q98 0 144 26q5 4 7 5q-2 27 -21 37t-44.5 5t-48.5 -13.5t-39 -18.5q-19 -11 -28 -23q-4 -4 -5 -8v-2z" />
    <glyph glyph-name="percent" unicode="%" horiz-adv-x="330" 
d="M231 562q104 -29 157 -3l1 0.5t2 0.5q1 1 3 1h2q2 0 4.5 -1t4 -3t2.5 -4t1 -4q0 -1 -0.5 -2t-0.5 -2q-1 -2 -14 -19q-23 -23 -53 -51.5t-61 -58t-52 -49.5l-59 -59q-104 -108 -139 -166l-6 -10q-2 -4 -5.5 -5.5t-7 -0.5t-6.5 3.5t-3.5 6.5t0.5 8q3 6 25 37q51 68 185 201
q26 27 131 127l17 17q-11 -2 -34 -2q-21 1 -69 9q8 -30 -13 -54.5t-49 -31.5l-4 -1h-2q-10 -2 -18.5 -2t-15.5 4t-9 12q-5 18 10 36q11 14 28 24.5t32 10.5l3 1q12 2 14 -11q1 -13 -10 -14q-1 -1 -3 -1q-14 0 -29 -10.5t-21 -23.5q-1 -1 -1 -4h1q5 -2 13 1h1q33 11 45 32
q14 24 -3 35q-1 1 -3 2t-3 2q0 1 -2 3t-2 3q-2 5 1.5 11t8.5 6h1q2 0 3 -0.5t2 -0.5zM124 154q0 -9 14 -6q2 0 8 3q20 9 36 29.5t12 42.5q-2 10 -8 10l-1 1h-1q-6 5 -6.5 11t5.5 10.5t13 0.5q5 0 11 -9.5t9 -18.5q5 -29 -20 -62q-32 -43 -70 -38q-23 5 -23 26q1 24 17.5 42
t36.5 25l4 1h4q7 3 11.5 -3t3 -13t-9.5 -8h-4l-1 -0.5l-1 -0.5q-11 0 -25.5 -15.5t-14.5 -27.5z" />
    <glyph glyph-name="ampersand" unicode="&#x26;" horiz-adv-x="401" 
d="M329 579q16 7 35 29h1t2 1l1 1l1 0.5l1 0.5q3 0 8.5 -3t5.5 -6q1 0 1.5 -2t0.5 -3v-3v-2l-0.5 -1l-0.5 -1q-1 -1 -4 -7q-12 -21 -29 -49q13 0 22 -14.5t5 -30.5q-7 -27 -29 -50q-8 -10 -18 0q-8 8 -1 17q6 5 12 13t11 18.5t1.5 18t-16.5 8.5q-32 -53 -68 -113l1 -1
q11 0 13 -10t-8 -13q-6 -2 -25 -8q-1 -1 -5 -9q-101 -174 -110 -190q-8 -12 -11 -19q7 1 41 7l22 4q96 36 135 75q1 1 6 7t8 8.5t9 5t10 -2.5q9 -8 2 -17q-59 -73 -163 -99l-24 -5q-16 -4 -35 -6q-4 -1 -11.5 -2t-11.5 -1h-1l-2 -4l-2.5 -5l-3 -6t-3 -6.5t-3.5 -6.5t-3 -5.5
t-2 -4.5t-2 -3t-1 -2q-6 -10 -16.5 -4.5t-5.5 16.5v1q12 18 18 30q-37 2 -61 18.5t-26 47.5q0 9 1 13q0 5 2 14q10 33 34.5 58.5t61.5 49.5q3 2 9.5 6.5t10.5 6.5l20 11q35 19 65 29q1 0 4 1t4 2q-50 13 -41 52q4 19 21 36.5t30.5 26t37.5 20.5q33 17 65 21q7 12 11 18
q-10 -2 -13.5 8.5t6.5 14.5zM99 150q61 102 120 209q-5 -3 -15 -6.5t-14 -5.5l-21 -9q-33 -17 -40 -21l-10 -6l-9 -6q-41 -27 -66 -58q-34 -44 -15 -73q0 -8 29 -19q17 -5 41 -5zM244 401q55 92 66 110q-30 -10 -40 -15l-11 -6q-29 -14 -50 -36q-29 -25 -14 -40
q14 -13 49 -13z" />
    <glyph glyph-name="quotesingle" unicode="'" horiz-adv-x="98" 
d="M125 458q-5 -8 -19.5 -32t-20.5 -35q-5 -11 -17 -6q-11 5 -6 16q5 9 12 21.5t16.5 27.5t13.5 20q4 7 10.5 7t10.5 -6t0 -13z" />
    <glyph glyph-name="parenleft" unicode="(" horiz-adv-x="200" 
d="M46 150h5q12 -1 12 -13q0 -5 -3.5 -8.5t-8.5 -3.5q-28 0 -41 20t-9 52q5 33 28 82q37 80 96 152.5t127 126.5q6 4 12.5 1t7.5 -9.5t-5 -11.5q-97 -77 -172 -188q-29 -43 -47 -81q-6 -14 -12 -30t-11 -38t-0.5 -36.5t21.5 -14.5z" />
    <glyph glyph-name="parenright" unicode=")" horiz-adv-x="247" 
d="M26 124q-9 0 -14 0.5t-9 4t-3 9.5q1 5 5 8.5t9 2.5h3l4 -0.5t5 -0.5h3q1 0 2.5 0.5l1.5 0.5q19 2 43 24q30 28 67 101q39 87 65 205q4 17 8 42.5t5 33.5q3 12 15 10t11 -14q-25 -150 -66 -243q-45 -106 -90 -150q-36 -34 -65 -34z" />
    <glyph glyph-name="asterisk" unicode="*" horiz-adv-x="213" 
d="M219 528q7 0 12 -3t3 -9q-2 -9 -10 -7h-1q-1 0 -3 1l-1.5 0.5t-2 0.5h-2.5h-3q-5 1 -9 1v-14v-2v-9.5t-1 -9t-3.5 -8t-6.5 -1.5q-8 1 -7 8v1v5v16v5.5v4.5h-1h-1q-20 -10 -34 -25q-7 -7 -14 0q-2 2 -2 4t0.5 5t0.5 4q5 3 11.5 8.5t10.5 7.5h-19q-9 0 -9 9t9 9q20 1 40 0
v1q1 1 1 3q2 4 3 6.5t3 7t4 6.5t4.5 4t5.5 1.5t6 -3.5t3 -8q0 -3 -8 -18q6 0 15 -1q4 0 6 -1z" />
    <glyph glyph-name="plus" unicode="+" horiz-adv-x="219" 
d="M103 326q5 -4 5.5 -9t-2 -9.5t-7 -10.5t-6.5 -9q2 -1 11.5 -2t15 -2t12.5 -3.5t10 -6t2 -8.5q-2 -5 -6 -7t-9 0q-13 5 -49 7q-1 -1 -1 -2q-8 -14 -23 -45q-3 -6 -10 -6.5t-11.5 4.5t-1.5 12q10 22 19 37h-19l-19 -1h-1q-5 0 -9 3.5t-4 8.5t3.5 9t8.5 4h20q21 0 33 -1
q2 4 20 33q7 11 18 4z" />
    <glyph glyph-name="comma" unicode="," horiz-adv-x="141" 
d="M20 224q6 -2 7.5 -6.5t-1 -10t-6 -12t-8.5 -12.5t-9.5 -11t-8 -8.5l-4.5 -4.5q-3 -2 -7 -2.5t-7 2t-4.5 5.5t-1 7t3.5 7q9 8 17 18q7 12 12 20v2v1q6 11 17 5z" />
    <glyph glyph-name="hyphen" unicode="-" horiz-adv-x="248" 
d="M165 292q-18 2 -76 2h-52q-5 0 -10.5 -0.5t-6.5 -0.5l-7 -1q-7 0 -11 6t-1.5 12.5t10.5 7.5h26q33 0 53 -1q10 0 28 -0.5t24 -0.5l24 1q7 1 11 -5t1.5 -12.5t-10.5 -7.5h-3z" />
    <glyph glyph-name="period" unicode="." horiz-adv-x="152" 
d="M67 275q6 -2 8.5 -8t-1.5 -12q-8 -9 -16 -9q-18 0 -15 19q3 16 14 17q6 0 10 -7z" />
    <glyph glyph-name="slash" unicode="/" horiz-adv-x="217" 
d="M24 132q-4 -7 -10.5 -7.5t-11 5.5t-1.5 13h1q11 19 31 55.5t37.5 67t33.5 56.5q85 138 172 271q7 10 17.5 2.5t2.5 -17.5q-14 -21 -36 -52q-15 -22 -74 -116.5t-62 -99.5q-59 -92 -100 -178z" />
    <glyph glyph-name="zero" unicode="0" horiz-adv-x="315" 
d="M260 501q25 0 39 -15.5t15.5 -40.5t-1.5 -48.5t-10 -47.5q-28 -89 -85 -151q-46 -51 -105 -67q-48 -14 -82 6q-22 14 -28.5 40t0.5 56.5t15.5 54t20.5 45.5q66 124 152 188q43 33 82 38q2 0 4 0.5t3 0.5h6q6 0 10 -3.5t4 -8.5q0 -12 -12 -13h-7l-1.5 -0.5t-2.5 -0.5
q-28 -2 -70 -34q-86 -68 -143 -179q-6 -12 -12 -26t-13.5 -34.5t-9.5 -38.5t-0.5 -34.5t13.5 -26.5t33 -10h3h8q64 6 116 63q56 61 80 141q5 17 8 35t4 38.5t-7.5 34t-25.5 13.5h-4q-5 0 -9 3t-4 9q0 5 3.5 8.5t8.5 3.5q1 1 4 1z" />
    <glyph glyph-name="one" unicode="1" horiz-adv-x="173" 
d="M236 549v-3v-3v-2q0 -4 -2 -8t-5 -9t-4 -7q-2 -5 -55 -103q-71 -127 -104 -192q-32 -61 -42 -88q-4 -12 -15.5 -7.5t-7.5 15.5q9 29 41 92q35 68 133 245q1 2 3 5t3 5q-38 -37 -65 -47q-9 -3 -15 -3h-4.5h-3.5q-10 4 -16.5 10.5t0.5 15.5q9 10 20 -2v1q7 -6 34 15t63 60
l15 14l2 2l2 1l1 1l1 1h1q1 0 1.5 0.5l0.5 0.5h2h1q15 0 15 -10z" />
    <glyph glyph-name="two" unicode="2" horiz-adv-x="406" 
d="M244 448q4 7 11 5.5t10 -7.5t-1 -13q-13 -25 -43 -41q-12 -8 -30.5 -7.5t-27.5 12.5q-8 10 -8 24q0 37 43 79q62 62 137 72q43 3 61 -16l1 -2q9 -9 9 -20q1 -12 -3 -16q-7 -33 -41 -82q-52 -76 -155 -182q-41 -40 -78 -73q71 -8 145 -45q7 -3 7.5 -10.5t-5 -11.5
t-12.5 -1q-87 44 -163 41q-4 -3 -15.5 -11.5t-17.5 -13t-17 -10t-22 -7.5q-3 -1 -10 -1q-6 0 -12 5t-7 12q0 22 29 38q29 15 61 15q6 5 16 14q85 75 163 164q43 50 72 92q31 45 38 71v10v2v1v1q-23 23 -87 -4q-49 -20 -89 -65q-22 -29 -22 -45q0 -26 38 0l6 4q14 12 19 22z
" />
    <glyph glyph-name="three" unicode="3" horiz-adv-x="332" 
d="M291 558q21 -1 33.5 -11.5t6.5 -30.5q-7 -21 -36 -47q-30 -26 -59 -44q19 -11 24 -17q0 -3 3 -8t4 -8q12 -32 -8 -78q-25 -64 -86 -121q-5 -4 -16 -13t-17 -15q-1 -1 -10 -7q-14 -12 -33 -20.5t-42.5 -11t-38.5 14.5q-8 6 -12 16.5t-4 21t2 22t6 21.5t8 18q2 2 3.5 4t4 6
t5 7t6 6.5t7 5.5t7 3t6.5 0t6 -4q7 -11 -3 -18q-26 -21 -32 -52q-4 -16 0.5 -29.5t16.5 -16.5q5 -1 11 -1t11.5 1t11.5 3.5t11 5t10.5 6.5t9.5 6.5t9 6t8 5.5l1 1q78 63 109 136q26 64 -9 80q-10 5 -30 4h-1q-5 0 -8.5 3.5t-3.5 8.5q0 8 7 11q63 28 106 75q19 24 9 28
q-6 4 -10 4h-5h-7q-53 0 -102 -20q-28 -13 -43 -26q-16 -14 -16 -23l1 -2q12 -12 2 -21q-8 -8 -20 4q-5 0 -7 15q-2 22 25 45q48 38 133 49q9 1 29 1h6z" />
    <glyph glyph-name="four" unicode="4" horiz-adv-x="337" 
d="M11 312q-11 3 -11 11q0 5 1 6l1 3q1 2 2 2q6 6 15 9.5t22.5 6.5t19.5 5l1 1l1 1q49 35 99 111q32 47 42 83q2 7 9 8.5t12 -3.5t3 -12q-3 -13 -10 -26q-37 -80 -112 -156q1 0 3 0.5t3 0.5q59 6 122 -5q48 86 80 134q5 7 12 6t10 -6.5t-1 -12.5q-28 -45 -73 -128
q13 -3 47 -14q12 -5 6 -18q-5 -10 -15 -6h-1q-3 1 -11 4.5t-12 4.5q-12 5 -24 8q-38 -70 -68 -139q-10 -26 -13 -40l-2 -5v-4q5 -12 -6 -17t-17 6q0 1 -1 4t-1 5v8q0 6 2 13.5t3.5 12.5t5 13.5t4.5 12.5q27 70 64 136q-33 8 -74.5 7t-77.5 -9q-17 -12 -51 -21q-1 -1 -5 -1
h-4z" />
    <glyph glyph-name="five" unicode="5" horiz-adv-x="304" 
d="M215 413h2l1 -1q22 -7 32 -27t3 -47q-11 -43 -58 -90q-67 -73 -162 -104l-16 -6q-12 -5 -16 7t7 16l16 7q63 20 128 76q60 51 74 102q9 33 -19 42h-2q-30 10 -57 10q-48 3 -97 -9q-7 -2 -13 4.5t-1 13.5l10 17q1 3 4 8.5t5 8.5l17 36q21 52 25 73v1q1 3 3 5t5.5 3t6.5 0
h0.5h1.5q4 -2 23 -11l22 -12q41 -21 67 -27l11 -2q2 -1 6 -1h6q1 0 2.5 0.5t2.5 0.5q14 0 27 17q5 6 12 5t9.5 -7t-1.5 -13q-20 -27 -45 -27h-7h-7h-3.5h-3.5q-33 5 -86 31l-23 11q-2 2 -6 4q-2 0 -3 1q0 -3 -0.5 -7t-2 -6.5t-2.5 -6.5t-2 -6q-11 -30 -39 -85q34 8 78 6
q22 0 65 -11z" />
    <glyph glyph-name="six" unicode="6" horiz-adv-x="296" 
d="M279 558q11 5 16.5 -6.5t-6.5 -15.5q-59 -29 -89 -59l-11 -11q-100 -100 -156 -269l-4 -11v-1l-1 -1q-5 -17 -2 -31.5t20 -13.5q6 0 12 2q9 17 23.5 37.5t32 41t34.5 35.5q34 32 56 32q7 0 13 -5.5t6 -11.5q1 -9 -3 -21q-7 -19 -25 -42q-50 -61 -118 -85q-7 -14 -7 -31
q0 -2 0.5 -4.5l0.5 -2.5l1 -3v-1q1 -12 -11 -14t-14 10q0 2 -1 6.5t-1 8.5q0 10 4 24h-1q-19 -1 -32 9t-16 28v14q3 21 5 25v1l4 12q39 126 113 223q40 51 73 79l12 9q2 2 13.5 10.5t17.5 11.5q3 1 6.5 3t6.5 4t5 3l12 6zM98 160q-1 0 -2 -2t-2 -2l13 7q42 27 68 58
q8 9 23 40q-48 -25 -100 -101z" />
    <glyph glyph-name="seven" unicode="7" horiz-adv-x="261" 
d="M102 530q14 -14 44 -14q2 -1 4 -1t5 0.5t5 0.5q77 5 138 33q9 3 15 -5.5t-2 -15.5l-23 -21q-3 -3 -7 -8q-3 -2 -4 -3l-11 -12q-5 -7 -19 -23t-21 -25l-20 -25q-3 -4 -9 -12.5t-9 -12.5l-10 -12l-8 -13q-5 -7 -69 -107q-47 -78 -77 -138q-2 -4 -6 -5.5t-7.5 -0.5t-6.5 3
t-3.5 6t0.5 9q78 150 147 247l19 26q3 4 6.5 9t6.5 9l6 8l20 25q3 3 5.5 6l5 6t5.5 6.5t5 5.5l11 13q12 13 20 21q-52 -13 -97 -16h-15q-10 0 -15 1q-21 0 -36.5 11t-18.5 29q-2 7 3.5 11.5t12.5 3t8 -8.5v-2l1 -3v-3v-1l0.5 -1z" />
    <glyph glyph-name="eight" unicode="8" horiz-adv-x="348" 
d="M255 421q11 7 17.5 -3.5t-3.5 -17.5q-15 -10 -41 -28l-1 -1q14 -65 17 -92q4 -38 -1 -58q-15 -52 -80 -85q-23 -11 -50 -17.5t-57 -3t-45 23.5q-32 42 33 114q50 57 153 128q-12 55 -14 95q0 67 40 87t73.5 -5.5t44.5 -60.5q5 -19 7 -39v-10v-4q0 -5 -3.5 -9t-8.5 -4
t-8.5 4t-3.5 9q-1 2 -1 4v3v5q-5 50 -34 74q-25 23 -57 8l-3 -3l-3 -3q-1 0 -3.5 -1.5l-2.5 -1.5l-2 -2q-8 -16 -8 -42.5t2 -39.5t9 -46zM218 231q0 1 0.5 2.5t0.5 2.5v3v12q0 31 -16 101q-90 -64 -139 -118q-28 -31 -35 -55q-1 -2 -1 -4q-1 -1 -1 -4q0 -4 1 -6v-1l1 -3v-2
q14 -14 29 -16q18 -4 46 1q32 7 60 23.5t43 40.5q7 10 10 20v2z" />
    <glyph glyph-name="nine" unicode="9" horiz-adv-x="269" 
d="M0 379v11q6 45 58 98q59 58 126 75q21 5 38 5l10 -1l10 -2q1 0 4 -1t5 -1.5t5 -2l5 -2.5t4.5 -2.5t3 -3t1 -4t-0.5 -4.5q-3 -7 -10.5 -7.5t-20 3t-16.5 4.5q-12 0 -31 -4q-60 -16 -115 -69q-45 -43 -50 -81v-9q1 -1 1 -2q1 0 1 -1l1 -1q1 0 1.5 -0.5l0.5 -0.5
q17 -1 58 22q67 38 109 83q7 8 16 1.5t4 -15.5q-23 -45 -45 -84l-23 -41q-67 -114 -92 -164q-2 -3 -4.5 -8.5t-5 -9t-4 -8.5t-1.5 -10v-1l-19 -9q-4 -1 -5 2v1v3v3v4q0 7 2 14t6.5 17t5.5 12q16 32 68 124l58 100q-45 -35 -91 -54q-26 -10 -40 -9q-12 0 -20 9t-8 21z" />
    <glyph glyph-name="colon" unicode=":" horiz-adv-x="125" 
d="M18 267q9 10 20 0q7 -7 0 -14q-11 -14 -23 -14q-15 0 -15 14q0 13 11 14q3 1 6 -1zM74 357q6 -2 8.5 -8.5t-1.5 -11.5q-8 -10 -16 -10q-18 0 -15 19q3 17 14 17q6 1 10 -6z" />
    <glyph glyph-name="semicolon" unicode=";" horiz-adv-x="148" 
d="M49 280q10 -5 7 -18q-2 0 -6 -9l-12 -16l-20 -21q-8 -7 -15 1t0 15q5 5 15.5 19.5t13.5 21.5v1q6 12 17 6zM95 375q6 -2 8.5 -8t-1.5 -12q-8 -9 -16 -9q-18 0 -15 19q3 16 14 17q5 0 10 -7z" />
    <glyph glyph-name="less" unicode="&#x3c;" horiz-adv-x="200" 
d="M148 381q6 -10 -3 -18h-1q-44 -33 -103 -53q35 -12 60 -36q14 -7 2 -18.5t-20 -1.5q-1 2 -2 6q0 3 -4 6q-3 4 -7.5 7.5t-9 6t-11 5t-11.5 4t-12.5 4t-11.5 3.5q-1 0 -3 1l-4 2q-6 0 -7 8t3 11q3 4 7.5 5.5t10 2.5t8.5 2q46 13 93 48q17 13 26 5z" />
    <glyph glyph-name="equal" unicode="=" horiz-adv-x="335" 
d="M227 313q-62 7 -162 7q-2 0 -5 -0.5t-4 -0.5h-8q-11 -2 -13 11q-2 14 11 14h29q41 0 153 -6q5 0 9 -4t3 -9q0 -5 -4 -8.5t-9 -3.5zM34 257q-4 0 -9.5 -0.5t-9 -1t-7 0t-5.5 3t-3 7.5t2.5 9t8.5 4h11q6 1 26 1q11 1 37 1h41l114 -2q6 0 9 -3t2 -8q0 -5 -3.5 -8.5
t-8.5 -3.5q-12 0 -85.5 1t-105.5 1q-10 0 -14 -1z" />
    <glyph glyph-name="greater" unicode="&#x3e;" horiz-adv-x="247" 
d="M176 312q1 0 2 -1t2 -2.5t1 -2.5q1 -1 1 -2q0 -9 -8 -13h-1q-1 -2 -2 -2q-3 -1 -6.5 -1.5t-7.5 -2t-7 -1.5q-116 -31 -133 -38q-7 -3 -12.5 2t-5 12t8.5 9l1 0.5l1 0.5q18 3 131 33q-13 5 -24 9.5t-28.5 13.5t-24.5 18t-1 17q1 2 3 3t4.5 1t4.5 -0.5t4 -1.5t3.5 -2
t3.5 -3t3 -2q26 -20 76 -37q1 -1 4 -2t4 -3q1 0 2 -0.5t1 -1.5z" />
    <glyph glyph-name="question" unicode="?" horiz-adv-x="253" 
d="M24 149q6 -2 8.5 -7.5t-1.5 -11.5q-8 -9 -16 -9q-16 0 -15 18q1 16 14 16q2 0 4 -1q4 -1 6 -5zM297 558h2q11 -4 17 -10q1 -1 4 -5t5 -5q2 -14 -14 -36q-14 -20 -65 -71q-8 -9 -36.5 -37.5t-40 -41.5t-32 -37.5t-33.5 -47t-23 -47.5q-3 -7 -10 -8t-12 4.5t-2 12.5
q1 0 1 1q1 3 4 7q31 54 71 102t99 106q5 6 17.5 18.5l20 20t16.5 19t15 23.5q2 5 2 8v2h-1q-1 0 -1.5 0.5l-0.5 0.5q-1 0 -5 1h-1q-1 0 -3 0.5t-3 0.5q-31 2 -80 -17q-47 -18 -76 -47q-17 -19 -17 -32v-5v-2q0 -1 0.5 -2l0.5 -1l1 -2q2 -7 -2.5 -11.5t-11.5 -4t-10 7.5v2
l-0.5 1t-0.5 2q-2 2 -2 10v6q0 22 25 47q53 53 140 67q21 2 33 1q2 0 9 -1z" />
    <glyph glyph-name="at" unicode="@" horiz-adv-x="504" 
d="M137 281v7q3 30 47 52q29 15 73 22q2 1 6 1h6q8 0 11 -7q2 1 4.5 3t4.5 4t4 3q7 8 15.5 2.5t4.5 -14.5q-24 -59 -27 -68q-2 -6 -2 -10v-2h5q19 2 51 20q54 30 78 54q8 7 14.5 16.5t11.5 22t7.5 25t-0.5 26.5t-12 26q-40 62 -167 37q-65 -20 -91 -35q-108 -60 -145 -151
q-22 -55 -8 -97q2 -5 8 -18l1 -1v-1q21 -27 54 -38q34 -12 75.5 -10t74 10.5t61.5 20.5q21 9 42 23q9 9 17.5 -2t-2.5 -18q-70 -47 -182 -54q-48 -2 -91.5 10.5t-61.5 40.5l-4 5l-1 1l-1 1v1l-6 9q-15 36 -11 70q2 25 14 56q26 63 80.5 111.5t124.5 73.5q3 1 22 7.5t30 8.5
q59 14 110.5 1.5t75.5 -48.5q27 -40 16 -83q-12 -45 -59 -84q-4 -3 -9 -6q-1 -2 -2 -2q-52 -31 -80 -44q-62 -30 -70 14q-1 22 7 39q-37 -30 -75 -44q-13 -5 -24 -6q-22 0 -25 16v2v1zM161 286q7 1 14 3.5t14.5 6.5t12.5 7t13.5 8.5t11.5 7.5q13 8 26 17h-3h-3
q-59 -14 -81 -40q-4 -5 -5 -10zM281 275q1 0 1 -1z" />
    <glyph glyph-name="A" unicode="A" horiz-adv-x="585" 
d="M565 534q21 -7 21 -32q0 -22 -16 -56q-13 -29 -48 -94h6q5 0 9.5 -3.5t4.5 -9.5q0 -13 -13 -14h-2q-7 1 -19 2q-107 -185 -153 -295q-3 -8 -10 -8.5t-12 5t-2 12.5q34 85 139 269q7 12 11 18h-2q-19 1 -77.5 4t-89.5 6q-87 -82 -164 -168q-18 -20 -32 -38q-5 -6 -12 -4
t-9.5 8t1.5 12q5 5 15 18t17 21q67 79 145 153q-1 0 -4.5 0.5t-4.5 0.5q-144 8 -181 8q-41 0 -54 -6h-1q4 -12 -8 -17t-18 6v2t-0.5 1.5l-0.5 0.5q-1 4 -1 6q0 11 6 18t19.5 9.5t23 3t26.5 0.5h8q49 -1 182 -11l30 -2q86 77 138 116q58 43 96 55q15 7 33 3h1h1h1zM27 345z
M547 455q12 32 14 46q0 5 -2 6v1q-8 2 -21 -2q-37 -13 -89 -52q-61 -45 -115 -96l28 -2q82 -5 118 -5h14q2 4 7 13q29 54 46 91z" />
    <glyph glyph-name="B" unicode="B" horiz-adv-x="858" 
d="M351 136q-9 0 -15 8t-6 17q0 5 1 10.5t2 9t3.5 8.5t4 7.5t4.5 8t4 6.5l7 8q19 18 81 69l15 30q5 8 13 23.5t14.5 28t12.5 23.5q-73 -43 -191 -94q-83 -35 -141 -51q-115 -33 -156 0q-5 5 -3.5 12t7.5 9.5t13 -2.5q17 -15 62 -10q29 3 71 14q65 19 138 52q154 66 228 118
q5 7 13 18t15 20.5t14 16.5q16 18 31 18q5 0 9.5 -5t4.5 -10q0 -9 -15 -28q-16 -20 -55 -49q-26 -40 -58 -105q147 98 265 162q116 62 182 79l9 2l4 1q2 0 3.5 0.5t2.5 0.5q6 1 10 1q5 1 11 0q15 0 21 -17v-5q0 -1 -0.5 -2.5l-0.5 -1.5q-7 -20 -32 -42q-36 -34 -121 -90
q-111 -73 -216 -117q7 -3 10.5 -4t10 -4t10 -5.5t8 -7t6 -9t1.5 -10.5t-3 -14q-4 -10 -10 -18.5t-17 -17.5t-15.5 -12t-18.5 -12q-67 -44 -174 -86l-60 -22q-54 -19 -61 -21q-4 -1 -8 0.5t-5.5 4.5t-2 7t1.5 7.5t7 4.5l60 20q159 60 228 106q3 2 8 5.5t13.5 10t14.5 12.5
t11.5 13t5 12t-5.5 9q-17 14 -70 14q-13 0 -13 11q0 7 9 10q55 18 134 59q93 48 189 117q60 43 79 70l1 3h-6q-11 0 -33 -7q-59 -17 -168 -74q-170 -90 -298 -186q-38 -77 -52 -100q-27 -41 -53 -38zM363.5 163q5.5 4 11 10t9.5 11t9 14t7 13t7.5 15.5t6.5 13.5
q-2 -1 -13 -10.5t-15 -13t-11 -11t-11 -14.5q-10 -22 -10 -30v-2q4 0 9.5 4z" />
    <glyph glyph-name="C" unicode="C" horiz-adv-x="468" 
d="M487 324q6 5 12 1t6.5 -10.5t-6.5 -11.5q-78 -50 -180 -91.5t-199 -53.5q-40 -5 -72.5 2t-42.5 29q-15 35 19 90q30 47 93 106q107 99 231 146q70 27 125 29q63 0 74 -29q2 -6 2 -11.5t-1.5 -10t-3 -8.5t-4.5 -8t-5.5 -6.5t-5.5 -6.5t-5 -6q-23 -28 -65 -55
q-44 -29 -75 -26q-10 1 -17.5 8t-7.5 19q0 1 0.5 2.5l0.5 1.5q3 15 20 38q8 10 18 1q9 -9 1 -17q-14 -15 -16 -28l1 -1l4 -1q21 -5 60 21q28 19 51 42l9 9q30 30 14 41q-15 11 -49 9q-53 -2 -118 -27q-121 -47 -224 -143q-60 -56 -88 -101q-38 -57 -10 -77q31 -25 143 1
q146 35 311 133z" />
    <glyph glyph-name="D" unicode="D" horiz-adv-x="935" 
d="M898 534q8 1 12 1q14 1 26.5 -2.5t21.5 -11.5t12 -19q7 -30 -13 -64q-8 -18 -29 -49q-83 -114 -227 -204q-146 -91 -278 -103q-64 -6 -113 6q-8 1 -10 8t2.5 12.5t11.5 3.5q2 0 7 -1q2 0 9 -1q3 0 12 -1q93 -10 199 28q160 58 296 190q70 68 96 123q22 48 0 57
q-8 3 -23 3q-1 0 -3 -0.5t-4 -0.5h-6l-14 -3q-47 -9 -57 -12l-13 -3l-14 -4q-18 -6 -55 -19q-153 -57 -283 -162q-6 -14 -17 -40t-13 -29l-5 -13q-2 -3 -6 -10.5t-6 -10.5t-5.5 -9t-6.5 -9.5t-7.5 -8t-9 -8t-9.5 -6.5q-8 -4 -20 -4q-11 1 -16.5 8t-4.5 16t5 19.5t10 20
t11 16.5t9 11l10 11q2 3 6.5 7t8 8t6.5 7l23 20q6 6 19 16q0 1 1 3t2 3q10 23 24 48q-121 -82 -232 -136q-7 -4 -20.5 -9.5t-20.5 -8.5t-8 -4l-15 -5q-21 -8 -46.5 -12.5t-53.5 -2.5t-46 13q-20 11 -27 24q-3 7 1.5 13t11 5.5t10.5 -7.5l2 -3q29 -29 86 -20q17 1 46 10.5
t32 9.5q6 3 12.5 6t14.5 6.5t13 5.5q121 57 275 165q29 33 56 44q2 2 8 2q4 4 10 -8q3 -7 0 -7q-2 -6 -11 -12q-45 -33 -48 -36q-22 -25 -37 -56q17 13 38 28q131 87 243 124q10 3 29 10l14 4l14 4q18 4 59 12l14 3h4zM424 272q-6 -6 -27 -26l-9 -11q-21 -21 -30 -46
q-1 -8 0 -10v0q13 0 28 19q12 12 21 34l6 13q3 9 11 27z" />
    <glyph glyph-name="E" unicode="E" horiz-adv-x="443" 
d="M233 391q-5 0 -11.5 2.5t-11 7.5t-4.5 11l0.5 2l0.5 2q2 11 19 25q28 22 113 61q58 23 91 29q20 3 32 3q11 0 18 -2q11 0 17 -8t6 -20q-14 -42 -32 -28q-5 4 -5 8t2.5 7.5t5.5 7.5t3 8h-1v1h-1q-1 0 -1.5 0.5t-1.5 0.5q-4 1 -12 1q-20 0 -58 -10q-56 -16 -112 -46
l-26 -15q-26 -14 -33 -24q7 -3 19 -3q20 -1 60 4q50 6 60 10q12 0 14.5 -10.5t-8.5 -14.5q-124 -42 -215 -101q-90 -58 -126 -119q-18 -30 -5 -35q17 -5 52 4q24 5 56 18q162 59 324 157q4 2 8 1.5t6.5 -3t3.5 -6t0 -7.5t-5 -6q-164 -101 -328 -160q-66 -24 -107 -24
q-12 0 -21.5 4.5t-15 14t-2.5 22.5q3 15 13 32q40 67 134 129q61 39 131 69q-19 -2 -29 -1q-11 0 -17 1zM478 506z" />
    <glyph glyph-name="F" unicode="F" horiz-adv-x="427" 
d="M413 336q-28 -7 -89 -9t-81 -5q-8 1 -25 1q-52 -95 -92 -158q-20 -34 -40 -57q-13 -12 -22 -2l-2 2v1v1q-1 4 -1 9q0 1 0.5 2.5t0.5 2.5q14 51 59 134q17 30 41 67q-37 0 -60 -7v-1q2 -7 -3 -12.5t-12 -4.5t-9 8v1q-1 1 -1 1.5v2v1.5q-3 13 7.5 21t26.5 10t34 2.5
t32 -0.5q40 55 79 93q25 52 38 83q0 1 0.5 2.5t0.5 2.5q-2 -2 -28 -21q-25 -18 -51.5 -32.5t-63.5 -29t-69 -9.5t-50 32q-3 5 -5 8q-4 7 0.5 13t11 6t10.5 -6q3 -6 4 -7q-1 0 3 -6q29 -31 107 0q44 18 90 49q12 8 24 17q6 5 12 9q8 8 13 10h2h2q8 3 14 -10l-1 -9
q0 -10 -7 -24q-3 -9 -9.5 -23.5t-8.5 -19.5q24 23 70 39q24 9 60 14q30 3 94 1t87 3q13 3 23 7t22.5 10.5t14.5 8.5q11 6 17 -4.5t-4 -17.5q-36 -22 -71 -28q-25 -4 -80 -2q-63 3 -100 -1l-14 -2q-73 -10 -140 -72q-7 -14 -22 -42.5t-22 -42.5h15q106 -3 164 14
q7 2 11.5 -2.5t3 -11.5t-9.5 -10h-1zM185 326q-62 -91 -96 -177v-1.5v-1.5q38 55 106 180h-10zM219 372q1 0 1 2v-0.5t-1 -1.5q-8 -11 -19 -24h7l6 12z" />
    <glyph glyph-name="G" unicode="G" horiz-adv-x="471" 
d="M58 180q-1 -1 -4 -2h-5q-12 2 -17.5 3.5t-12.5 5.5t-11 11q-21 30 14 90q37 62 126 131q99 78 188 110q80 28 122 11q14 -5 23.5 -18t5.5 -31q-3 -22 -36 -49q-4 -2 -8 -2.5t-6.5 2t-4.5 6t-1 7.5t4 7q24 20 27 35q4 26 -52 22t-129 -44q-140 -79 -217 -174q-2 -3 -5 -7
t-8 -11.5t-9 -15t-8 -16t-6 -16t-1.5 -14t5 -10.5t12.5 -5q1 -1 3 -1h4h7q50 10 113 38q127 58 252 131q5 3 10.5 1t7 -7.5t-1.5 -11.5l-26 -37q-35 -50 -87 -108l-15 -17q-10 -11 -20 -21q6 -1 14 -3.5t18.5 -6.5t15.5 -10.5t1 -12.5q-5 -11 -17 -5q-21 13 -55 16
q-5 -4 -15 -13l-9 -8q-23 -19 -37 -29t-38 -23t-47 -20q-13 -2 -14 -2h-4q-9 0 -15 6.5t-6 15t9 22.5q27 33 71 54.5t95 21.5q13 11 34 34l15 16q44 52 57 70q3 3 6.5 8t7.5 10t6 8q-42 -24 -66 -37t-62 -32.5t-72.5 -34.5t-69.5 -27q-22 -8 -36 -10l-10 -2q-1 -1 -4 -1h-5
q0 1 -1 2zM175 110q11 6 29 20t24 18q-34 -6 -66 -23t-49 -40q0 -1 -0.5 -1.5l-1.5 -1.5q38 13 64 28z" />
    <glyph glyph-name="H" unicode="H" horiz-adv-x="756" 
d="M671 307q10 1 42 7h1q12 2 14.5 -9.5t-9.5 -15.5h-1q-1 0 -4.5 -0.5t-5.5 -0.5q-35 -5 -39 -6h-6h-5q-64 -105 -86 -136q-19 -27 -42 -50q-1 -1 -3.5 -2.5t-3.5 -2.5q-10 -5 -19 -5q-16 -1 -33 6.5t-26 14.5t-22 19q-34 32 -62 75q-43 -57 -80 -75q-1 -1 -3 -2
q-7 -3 -11 -4t-9 0t-7 7q-5 12 7 16q1 0 11 5q38 21 79 74q-25 44 -27 76v15q7 28 44 28q23 0 57 -7q9 14 29 47t32 50l13 18q-52 -28 -139 -70q-162 -77 -245 -108q-30 -12 -57 -19q-17 -4 -23 -4h-11q-13 0 -20 13v1v2q-1 4 1 13q3 11 15 8.5t9 -14.5h5q7 0 20 3
q40 10 125 45q185 79 357 174q2 2 12.5 13t15 15t14.5 10.5t19 9.5h5h2q3 0 6 -3.5t3 -6.5v-3q0 -1 -0.5 -2t-0.5 -2q-1 -4 -8 -11q-17 -17 -48 -34q-1 0 -3 -1t-2 -2q-44 -48 -100 -143q0 -1 -1 -2t-1 -2q8 -1 27 -5t27 -5.5t27 -5.5t27.5 -4.5t28 -3t29 -1.5t30.5 1
q2 3 14 24t15.5 26.5t14.5 24t15.5 26.5t14.5 23.5t16 24.5t14.5 21t15.5 21.5t14 18.5q17 20 27 11q10 -7 1 -17q-11 -11 -31 -40q-36 -51 -102 -162zM343 308l-1 -2v-1q0 -1 0.5 -3t0.5 -3q1 -18 18 -57q25 35 47 70q-27 5 -43 5q-19 0 -22 -8v-1zM433 308
q-42 -64 -59 -87q50 -82 105 -108q13 -5 22 -4h3h1l6 2l1 1q1 0 6 5q22 22 62 85q23 36 48 78q-17 0 -34.5 1.5t-30.5 2.5t-33.5 5t-29.5 5.5t-32.5 6.5t-29.5 6q-1 0 -3 0.5z" />
    <glyph glyph-name="I" unicode="I" horiz-adv-x="585" 
d="M649 526q11 0 10 -14v-1l-1 -1q-1 -1 -1 -2q-5 -9 -22.5 -18.5t-21.5 -16.5q-23 -26 -45 -66.5t-31.5 -61t-32.5 -76.5q-39 -87 -63 -118q-26 -34 -45 -38q-10 -1 -13 8q-7 10 13 21q2 1 3 1q9 7 23 23q9 11 19 27.5t21.5 40.5t18.5 39.5t21 46t17 38.5q22 49 46 87
q1 2 5 7.5t6 7.5q-164 -71 -303 -110q-98 -27 -159 -33q-77 -7 -108 27q-8 14 2 20q9 6 18 -4q0 -1 2 -2l0.5 -1l0.5 -1q29 -32 155 -8q69 12 177 49q149 51 244 100q1 1 11 9q12 11 24 17l1 1l4 2h2h2z" />
    <glyph glyph-name="J" unicode="J" horiz-adv-x="500" 
d="M486 231q3 -12 -9 -14.5t-15 8.5q-2 1 -6 1q-7 2 -16 2t-14.5 -1t-18.5 -3.5t-16 -2.5q-44 -65 -85 -100q-59 -48 -142 -73q-70 -20 -123 -13q-48 9 -40 39q4 12 20 27q29 22 93 54q135 63 263 89l7 11q89 133 139 256l2 5q-1 -1 -5 -4q-60 -41 -155 -71q-49 -15 -84 -16
q-43 0 -68 24l-4 6q-4 6 -0.5 12.5t10 7t11.5 -5.5l1 -1q8 -24 52 -24q31 -1 79 13q28 8 59 22t61 33t49 38q2 2 3 2q1 1 2 1q0 1 2 1q3 0 7 -2.5t7.5 -5.5t4.5 -5v-0.5v-1.5q1 0 1 -2v-4l-10 -30q-19 -46 -62 -128q-35 -66 -75 -126q54 13 71 -9zM341 193q10 11 17 23
q-169 -36 -294 -111q-32 -20 -39 -31q-5 -6 -3 -8q0 -7 20.5 -9t38.5 -1q33 2 73 13q79 22 134 69q23 19 53 55z" />
    <glyph glyph-name="K" unicode="K" horiz-adv-x="432" 
d="M135 171q7 29 32 84q-1 2 -3 5t-3 5l-10 19q-2 3 -5 10.5t-4 8.5l-9 19q-3 7 1 12t12 5q26 0 31 1q10 0 40 8q43 69 95 136q1 1 2.5 3t2.5 3q-83 -35 -172 -51q-100 -18 -133 9q-21 16 -7 26q10 8 17 -2q0 -1 2 -2v-1q16 -16 63 -15q18 0 54 6q48 8 106 26.5t99 41.5
q4 2 7 4.5t7 7.5t6 6l8 8q7 7 13 10h3h4q3 0 6.5 -3.5t3.5 -7.5v-3q-5 -17 -37 -37q-54 -62 -116 -158q116 36 263 134q63 44 101 89q6 7 17 4q11 -9 -10 -31q-8 -10 -39 -37q-64 -52 -174 -115q-113 -56 -178 -72q-17 -28 -34 -63q36 -55 64 -76q40 -25 70 -27q7 -2 15 -3
t15 -1t16.5 -0.5t15.5 -1.5q5 0 8.5 -4.5t2.5 -9.5q0 -4 -3.5 -7.5t-8.5 -3.5q-6 -1 -21 -1h-6.5h-8h-6.5q-18 0 -44 5q-29 0 -72 35l-9 7q-15 13 -42 52l-0.5 1l-0.5 1q-6 -13 -14 -37.5t-9 -27.5v-1q-2 -7 -9 -8.5t-12 3.5t-3 12zM182 284q10 18 17 33q0 -1 -2 -1
q-7 -1 -18 -2q-3 0 -7.5 -0.5t-6.5 -0.5q2 -3 5 -9t5 -8z" />
    <glyph glyph-name="L" unicode="L" horiz-adv-x="320" 
d="M356 548q13 3 16 -10q2 -11 -10 -13l-2 -1h-1h-2q-1 -1 -2 -1l-1 -0.5l-1 -0.5q-1 0 -4 -1h-2q-2 0 -16 -10q-29 -23 -63 -82q-21 -34 -61.5 -118.5t-60.5 -120.5q27 -1 71 -19q57 -23 119 -78q18 -14 8 -25q-8 -10 -25 6q-83 84 -177 94h-8q-32 -50 -87 -63
q-15 -3 -26 -2l-1.5 0.5l-1.5 0.5q-2 0 -4 1q-3 0 -5 2q-3 0 -6 6t-3 10q1 2 1 4t0.5 3.5t1.5 2.5q8 14 25 25t29 15.5t35 12.5q23 3 31 3q17 28 57 112q43 93 69 137q36 63 67 90q14 12 30 18h2h1q0 1 2 1l1.5 0.5l1.5 0.5h2zM89 148l5 4q6 6 11 13h-1q-3 -1 -9 -2.5
t-9 -1.5l-9 -4l-2 -1q-4 -2 -14 -6.5t-15.5 -7.5t-12.5 -8t-12 -10h1q29 -4 67 24z" />
    <glyph glyph-name="M" unicode="M" horiz-adv-x="858" 
d="M776 391h1q2 0 15 -10q6 -7 5 -13q8 -21 -5 -67q-6 -20 -26 -72t-27 -85v-8q0 -7 3 -10q7 -5 5 -12t-8.5 -9t-13.5 3q-10 11 -10 26q-2 20 13 64q3 9 19 48.5t23 62.5q12 38 4 54q-1 0 -1 1q-5 2 -6 2h-3q-4 0 -8.5 -0.5t-9.5 -2t-8 -3t-8 -4.5l-7.5 -4.5l-7.5 -4.5
t-6 -5q-32 -20 -91 -73q-66 -62 -111 -112q-8 -9 -18 -1q-2 2 -2 16q30 45 68 112q66 119 87 176q12 30 13 44q1 4 1 8t-1 4h-1q-14 0 -42 -13q-71 -35 -163 -105q-49 -35 -102 -82l-2 -2q-52 -107 -75 -145q0 -1 -4 -7t-5.5 -8t-5.5 -7l-6 -7.5t-6 -6.5t-7 -6.5t-7.5 -5
t-8.5 -3.5q-5 -2 -13 -2q-10 0 -16.5 10t-4.5 22q3 13 13 34q37 68 130 151q19 42 41 83l15 30q1 2 3.5 6.5t3.5 5.5q-54 -32 -81.5 -48t-75 -39t-90.5 -39q-1 0 -12.5 -3.5t-14.5 -4.5l-13.5 -4.5t-15 -4t-14.5 -2.5t-16.5 -2.5t-15 -1t-16.5 0t-16.5 2t-10.5 8.5t2.5 12.5
t11.5 3.5h1q13 -4 30 -4q37 0 93 19q133 45 280 150q33 48 62 63h2h3h3q5 -3 7 -7t0.5 -8.5t-4 -9.5t-8 -10.5l-10.5 -10.5t-11.5 -10t-11 -8.5l-9 -7t-6.5 -4.5l-1 -1q-15 -21 -32 -53l-15 -29q-3 -7 -9.5 -20l-8.5 -17q94 76 173 124q61 36 92 44q12 3 20 3h5
q35 -12 3 -88q-13 -33 -29.5 -66t-42 -78.5t-33.5 -61.5q78 78 138 118q2 1 9.5 6t11 7l10.5 6t12 5.5t12.5 3t14.5 1.5q5 0 7 -1h4zM208 146v-6q10 0 24 17q17 19 50 82q13 28 16 35q-57 -57 -80 -102q-8 -16 -10 -26zM656 517h-1h1z" />
    <glyph glyph-name="N" unicode="N" horiz-adv-x="662" 
d="M611 486q9 -5 14 -8t9.5 -10.5t3.5 -17.5q1 -7 1 -20q-2 -28 -16 -68q-13 -34 -41.5 -96t-39.5 -92q-19 -51 -7 -58t3 -17q-11 -12 -22 1q-8 9 -8.5 24.5t2.5 27t11 30.5q10 28 39 91t43 98q0 2 1 5q25 64 7 82l-5 3h-2l-1 1h-1q-36 6 -84 -14q-61 -25 -132 -82
l-3.5 -3.5l-3.5 -3.5q-67 -127 -81 -150q-28 -42 -49 -51q-5 -2 -8 -2h-5q-17 5 -17 22q0 6 0.5 11.5t2 10.5t3.5 9l4.5 9t4.5 8.5t5 8.5t4 8l6 9l6 10q36 52 101 107q47 92 55 109q-42 -35 -129 -83q-114 -63 -191 -82q-35 -9 -60 -7q-6 0 -14 3t-9 3q-7 3 -8 10t4.5 11.5
t12.5 2.5l1 -1t5 -3l2 -1h1.5h1.5q5 -2 6 -2t4 -0.5t5 -0.5h6q2 1 6 1q11 0 31 5q73 17 185 80q109 62 152 105l2.5 3t4 4.5t4.5 3t5 1.5q3 0 6 -1.5t5.5 -4.5t2.5 -6v-5q-2 -10 -19 -47q-11 -25 -30 -60q54 40 109 64q43 18 77 18q2 0 5 -0.5t5 -0.5t5 -0.5t5 -1.5h1z
M244 178zM255 192q19 18 40.5 61.5t31.5 57.5q-48 -48 -72 -96q-9 -20 -11 -31q5 3 11 8z" />
    <glyph glyph-name="O" unicode="O" horiz-adv-x="530" 
d="M409 516q42 14 70 16h11h7h6q3 0 6 -1.5t5 -4.5t2 -6q0 -5 -3.5 -9t-8.5 -4h-1q-2 1 -5 1h-16q-16 -2 -32 -5q68 -31 57 -103q-9 -58 -66 -128q-66 -78 -145 -118q-48 -23 -89 -26q-29 -1 -51 10.5t-27 35.5q-10 41 14 90q-12 -2 -19 -2q-41 0 -73.5 16.5t-44.5 45.5
q-11 22 -4.5 45t17 38t25.5 29q58 54 197 76q48 9 90 9q47 0 78 -5zM123 286q15 0 33 3q25 45 58.5 84.5t73 71t83.5 53.5q-60 3 -127 -7q-98 -17 -155 -50q-32 -19 -54 -47t-8 -61q10 -23 36.5 -35.5t59.5 -11.5zM179 295q56 17 106 53h1q10 7 17 -4t-3 -17
q-64 -43 -122 -58q-2 0 -4 -0.5t-5 -1t-5 -1.5q-1 -3 -5.5 -14.5t-6.5 -17t-5.5 -18t-2.5 -19l3 -19.5q7 -25 36.5 -29t56 4t47.5 19q79 42 138 113q34 41 49 76q21 52 9 83q-14 34 -72 48q-71 -25 -131 -77t-101 -120z" />
    <glyph glyph-name="P" unicode="P" horiz-adv-x="730" 
d="M430 442q49 30 90.5 49.5t95 34t112.5 19.5q3 0 11 0.5t12 0.5q19 0 33.5 -1.5t32 -5.5t26 -14.5t6.5 -26.5q-2 -13 -18 -31q-21 -24 -65 -51q-56 -34 -126 -61q-49 -19 -112 -31q-75 -14 -100 1q-9 6 -7 15q3 12 16 9q36 -9 86 0q68 12 136 40.5t119 67.5q32 23 40 39
q4 9 2 12q0 12 -48 16q-4 0 -11 0.5t-11 0.5q-3 0 -10.5 -0.5t-11.5 -0.5l-22 -2q-43 -4 -90 -18q-109 -31 -206 -98q-82 -140 -140 -212q-18 -22 -37 -37q-6 -5 -14.5 -9t-18.5 -6.5t-18 2t-11 17.5q-1 13 3 29q18 61 88 128q58 55 124 100q1 2 8.5 15.5t11.5 20.5
q-82 -62 -200 -125q-58 -32 -98 -47q-43 -15 -71 -16h-12q-12 0 -19.5 5t-4.5 14q1 7 4.5 8.5t11.5 -0.5t11 -2h8q23 0 63 15q88 32 215 113q76 50 103 72q1 0 3 2l4 3h1.5h1.5q5 3 12.5 -1.5t7.5 -8.5v-4v-3q-3 -14 -17 -37zM232 189q15 16 29 34t28 38.5t24.5 36.5
t25.5 40.5t24 37.5q-76 -57 -120 -108q-37 -44 -49 -84q-4 -12 -2 -20v-1v-1v-1q4 1 7.5 2t7 3t6 3.5t5.5 4.5l5 5l5 5t4 5z" />
    <glyph glyph-name="Q" unicode="Q" horiz-adv-x="444" 
d="M176 26v10q2 23 19 59q37 75 69 117q-21 2 -51 -6q-7 -2 -11.5 3t-3.5 12t9 9q35 9 62 7q3 0 8 -1l1 -0.5l1 -0.5q35 54 116 164q-8 -5 -23 -16.5t-23 -16.5l-65 -45q-82 -54 -137 -82q-62 -30 -97 -33q-25 0 -39 13.5t-12 37.5q12 71 85 137q99 93 287 148q36 10 79 17
q21 4 44 4.5t46.5 -3.5t36.5 -13q18 -12 18 -35q0 -1 -0.5 -3.5t-0.5 -3.5q-1 -7 -4.5 -11.5t-10.5 -3.5q-11 2 -9 19v3q0 20 -40 24q-59 6 -151 -19q-118 -32 -213 -95q-48 -32 -80.5 -63.5t-48.5 -72.5l-1 -5q-4 -4 -6.5 -14t-0.5 -18q-3 -18 10 -21.5t30 2.5q26 7 71 29
q123 63 262 172q44 36 57 51v1q4 6 11 4.5t9.5 -7.5t-1.5 -12q-111 -151 -172 -241q39 -23 31 -88q-10 -70 -63 -123q-15 -13 -47 -24h-7h-9q-10 0 -18 4.5t-12.5 12.5t-4.5 17zM214 19h11q11 0 32 17q45 45 54 106q6 44 -20 65l-15 -23q-53 -81 -68 -124q-5 -15 -6 -25v-6
v-2v-2q2 -5 5 -5q1 0 1.5 -0.5l0.5 -0.5h2.5h2.5z" />
    <glyph glyph-name="R" unicode="R" horiz-adv-x="927" 
d="M553 456q3 0 7 -4t4 -8v-3q0 -1 -0.5 -2l-0.5 -1q0 -7 -18 -14q-14 -8 -36 -19q-15 -22 -39 -90q128 101 233 155q71 37 137 58q88 28 151 17q30 -5 42.5 -19t-0.5 -32q-22 -21 -86 -53q-40 -19 -84 -36.5t-109 -41t-87 -31.5q-89 -33 -127 -45q23 -48 64.5 -75
t95.5 -35.5t130 -4.5h1q6 0 10 -4t4 -9q0 -19 -11 -20q-270 -7 -319 140l-4 12q-3 11 7 15h4q71 17 206 70q116 43 202 85q59 30 77 45l3 3q2 5 -6 8t-18 5q-28 6 -70 -1q-89 -14 -203 -73q-133 -70 -243 -160l-12 -9l-3 -9q-30 -93 -58 -124q-5 -7 -12 -11h-1q-8 -6 -18 -6
q-12 0 -18.5 9t-7.5 20q-2 26 15 49l7 8q4 4 12.5 13.5t12.5 13.5l13 14q13 12 39 34q0 1 11 36t18 51q0 2 2 5.5t2 4.5q-216 -103 -313 -139q-50 -18 -108 -30q-6 -1 -10 -1l-5 -1h-5q-4 1 -11 1q-7 1 -11 2t-7 4.5t-2 8.5q3 13 23 10h11h4q10 0 44 8q71 17 205 76
q25 11 209 97q16 23 46 33q4 1 7 1h2l1 -0.5zM366 150h3q1 1 4 2.5t4 2.5q10 11 18.5 26t18 38t13.5 32q-30 -25 -54 -55q-7 -8 -11 -22.5t3 -22.5l0.5 -0.5z" />
    <glyph glyph-name="S" unicode="S" horiz-adv-x="539" 
d="M372 123q5 10 8 32q-45 -24 -139 -27q-48 -2 -65 8q-9 6 -12 16q0 17 16 33q29 29 81 47q31 13 69 10.5t54 -27.5q4 -7 8 -17q35 41 19 154q-2 20 2 42q-4 -2 -13 -6q-207 -84 -314 -99q-50 -8 -78 6q-5 3 -7 8.5t3 12.5q8 10 18 0l1 -1l1 -1q2 0 4.5 -1t3.5 -1
q18 -3 51 1q42 6 107 25t124 41t107 43q27 61 99 100q37 19 83 26q7 1 11 1q28 0 35 -11q1 -2 1 -2.5v-0.5v-4t-0.5 -5.5t-1.5 -4.5t-2.5 -4.5t-3 -4t-4 -3.5t-3.5 -3t-3.5 -3t-3.5 -3q-23 -18 -86 -50q-34 -17 -96 -44q-9 -26 -5 -49q15 -109 -18 -161q-6 -11 -18 -22v-13
q-1 -3 -9 -45q-1 -7 -8 -8.5t-12.5 3t-3.5 11.5v1zM240 148q91 3 132 31q0 18 -10.5 28.5t-27 12.5t-33.5 -0.5t-33 -7.5q-64 -21 -82 -51q-1 -3 -1 -4v-1q0 -8 55 -8zM600 506q6 4 15.5 11.5t11.5 9.5q-33 0 -83 -26q-52 -26 -79 -64q90 40 135 69z" />
    <glyph glyph-name="T" unicode="T" horiz-adv-x="370" 
d="M385 551q12 0 178 8q11 1 14 -11q0 -13 -12 -14q-22 -1 -89 -3h-42.5h-48.5h-15q-9 -19 -28 -58l-66 -129q-34 -71 -61 -128l-15 -33q-13 -28 -37 -98v-1q-2 -7 -11.5 -7.5t-16.5 4.5t-4 12v1q21 44 60.5 130.5t59.5 129.5l85 176q-96 3 -257 14q-19 2 -35 2h-13
q6 -5 4 -12t-8 -9t-12 3h-1q-8 8 -14 20v3q0 1 0.5 1.5t0.5 1.5q1 6 7 10t13 4h7q21 0 44.5 -2t52.5 -5t45 -4q110 -6 175 -6l7 13h-1q-7 -1 -15 5l-4 3q-5 6 -2.5 12.5t8.5 8t12 -3.5q10 6 24 24v1q6 5 14 4.5t14 -6t3 -11.5l-25 -50h5zM351 589zM19 546z" />
    <glyph glyph-name="U" unicode="U" horiz-adv-x="665" 
d="M322 222l2 -3v-1h1q0 -4 2.5 -5.5t7 -1t9.5 1.5t10 2.5t8 3l5 2.5q19 9 41.5 25t32.5 24t36 31q70 60 198 196q22 23 62 69q5 6 11.5 4t8.5 -8.5t-1 -12.5q-161 -220 -230 -340q-29 -52 -44 -91q-1 -2 -4 -15q0 -2 -1 -7q0 -1 -0.5 -3.5t-0.5 -3.5v-2q0 -8 -6 -10.5
t-12 1t-6 11.5v5.5v4.5q2 9 5 18.5t5 16t6.5 16.5t6 14t7.5 15.5t7.5 13.5t8.5 15t8 14q40 72 130 202l-10 -10q-70 -71 -135 -128q-69 -60 -115 -84q-13 -6 -26 -9.5t-26.5 0.5t-18.5 18l-3 5v1q-3 10 -3 25q2 46 33 106q-129 -79 -225 -108q-61 -17 -90 -8q-4 0 -10.5 4.5
t-6.5 11t5.5 11t12.5 0.5h1q22 -13 82 5q38 11 86 32q80 36 162 88q1 1 3.5 2.5t3.5 2.5q39 60 80 101q18 18 33 26h2h1l1 0.5t2 0.5q6 1 11.5 -4t5.5 -12q0 -1 -0.5 -2.5l-0.5 -1.5q-4 -17 -13.5 -31.5t-18 -23t-23.5 -20.5q-28 -23 -67 -50q-2 -1 -3 -4q-26 -44 -39 -82
q-7 -23 -7 -42q0 -13 2 -21v-1zM467 490q-8 -6 -16.5 -15t-14.5 -15.5t-15.5 -17.5t-13.5 -16q29 22 47 43q6 6 13 21z" />
    <glyph glyph-name="V" unicode="V" horiz-adv-x="447" 
d="M319 541q0 -15 -9 -23v-1l-1 -2q-11 -13 -24.5 -24.5t-32 -21.5t-30.5 -16t-35 -16q-49 -97 -67 -268q40 36 107 89q45 35 134 106q84 68 128 111q35 33 56 62q22 29 22 50q0 3 -3 10t-3.5 10.5t4.5 9.5q11 7 18 -3q10 -12 9 -26q0 -5 -0.5 -9.5t-2 -9l-2.5 -7.5
t-3.5 -7.5t-3.5 -7t-4.5 -7t-4 -5.5t-4.5 -6t-4 -6q-18 -24 -59 -64q-25 -24 -65 -57q-23 -19 -145.5 -116t-180.5 -157q-6 -6 -13 -2.5t-7 11.5l1 1q17 185 59 284l-11 -3.5t-12.5 -4t-11.5 -3.5t-13.5 -4t-12.5 -3t-14 -2.5t-13.5 -1t-14.5 -0.5t-13.5 1t-14.5 3
q-10 2 -17.5 8.5t-2.5 14.5q6 11 17 5q24 -16 93 3q25 7 56 20q38 71 82 97q26 16 46 12q9 0 16 -7.5t7 -16.5zM209 474q64 34 85 62l0.5 1t0.5 2v2h-0.5h-1.5q-22 0 -48 -23q-18 -16 -33 -37q0 -2 -2 -3z" />
    <glyph glyph-name="W" unicode="W" horiz-adv-x="704" 
d="M446 132h4h3q7 0 26 15q39 32 87 102q55 77 91 157q20 45 31 85q15 58 -8 68q-12 4 -8 15.5t16 7.5q14 -4 25 -18q12 -26 0 -77q-29 -109 -125 -251q-24 -33 -34.5 -47.5t-34 -37.5t-46.5 -35q-5 -4 -21 -8h-7q-28 0 -43.5 20t-19 46.5t0.5 57.5v4q-23 -27 -63 -55
q-3 -1 -7.5 -4t-6.5 -5l-15 -7q-4 -2 -13.5 -5t-13.5 -6h-2q-29 -4 -46 12t-20 45t-1 56.5t8 56.5q10 50 33 100q-88 -46 -158 -60q-19 -4 -41 -5h-9q-4 0 -18 3q-13 2 -9 15q4 15 17 8q18 -9 56 -3q24 4 59 17q57 21 112 52q1 0 3 1.5t3 1.5q33 56 69 76q8 4 13 4h3
q6 0 10 -5t4 -11q0 -1 -0.5 -2t-0.5 -2q0 -10 -16 -26q-22 -21 -66 -47q-48 -96 -53 -182q-3 -91 44 -82q21 7 35 15l13 8q46 32 87 84q7 8 16 3t6 -14q-5 -20 -7.5 -41t-2 -44.5t10.5 -39t30 -16.5zM323 509q-19 -10 -28 -27q20 15 26 24l1.5 1.5t0.5 1.5z" />
    <glyph glyph-name="X" unicode="X" horiz-adv-x="467" 
d="M270 558q13 0 16 -11l-0.5 -1l-0.5 -1v-2v-1v-1q-2 -12 -12 -22q-17 -17 -43 -37q-2 -10 -2 -21q1 -31 23 -66q13 -22 37 -56q143 102 200 156q34 32 44 53l1 2l1 1q5 14 18 6q10 -5 4 -13q0 -5 -12 -22q-14 -18 -41 -44q-50 -46 -204 -156q52 -73 64 -95q7 -12 10 -19.5
t7 -20.5t3.5 -25.5t-6.5 -23.5q-10 -20 -26 -27v-1q-18 -10 -35 -10q-9 -1 -19 1t-15.5 3.5t-17.5 6.5t-14 6q-45 18 -81 25t-80 -1q-21 -5 -39 -12l-10 -3q-11 -5 -18 -5h-4q-1 0 -1.5 0.5t-1.5 0.5q-7 2 -7 10q0 1 0.5 2l0.5 1q1 4 9 13q27 23 67 50q120 83 185 128
q-22 32 -38 57q-25 40 -27 76v5q-59 -40 -113 -58q-43 -15 -69 -6l-1 0.5l-1 0.5q-1 1 -3 1l-1.5 0.5t-2.5 1.5h-1h-1l-1 1l-5 3q-6 4 -6 10t5.5 10.5t12.5 0.5q2 0 5 -2l1 -1h1h1t1 -0.5t1 -0.5q0 -1 2 -1t10 -0.5t15 -0.5q68 10 155 73q1 0 1 1.5v1.5q16 44 52 57q4 2 7 2
zM362 180q-5 18 -15.5 37t-18.5 31t-22.5 32.5t-20.5 29.5q-31 -21 -92.5 -63t-94.5 -65q-43 -31 -47 -34q61 22 125 11q34 -5 84 -25q41 -16 58 -16q16 2 27.5 9.5t16.5 21t0 31.5z" />
    <glyph glyph-name="Y" unicode="Y" horiz-adv-x="395" 
d="M121 562q8 0 14 -5t6 -13q0 -12 -12 -27q-6 -8 -28 -37q-2 -2 -13.5 -16.5t-15 -18.5t-12.5 -16.5t-13 -20t-10 -18.5t-10 -21q-13 -36 -1 -58q1 -1 2 -2.5t1 -2.5q33 -32 130 19q63 32 150 101q39 31 68 58q8 8 14.5 2t2.5 -14l-1 -1q-64 -147 -133 -245q-7 -10 -13 -17
q14 -7 28.5 -23t-1.5 -24q-4 -3 -9 -1.5t-8 6.5q-8 15 -25 22q-41 -48 -70 -66q-26 -17 -50 -16q-24 0 -40.5 14t-5.5 36q18 31 73 51q45 16 83 10q68 90 128 216l-31 -23q-12 -10 -37 -27l-37 -26q-76 -51 -121 -68q-63 -28 -96 -8q-11 4 -18.5 17.5t-8.5 26.5q-5 39 28 92
q14 23 43.5 62.5t39.5 55.5q-6 -1 -10 2t-5 7t1.5 8.5t7.5 6.5h1q9 2 14 2zM89 139q0 -3 9.5 -5.5t15.5 -2.5q29 -2 70 39q14 15 22 23q-36 0 -68.5 -14t-47.5 -36q-1 -2 -1 -4z" />
    <glyph glyph-name="Z" unicode="Z" horiz-adv-x="413" 
d="M403 559q2 0 8 -7l2 -2q3 -9 -2 -13q-1 -1 -1 -3q-18 -35 -95 -51q-42 -33 -67 -64l-2 -1q16 0 24 -13t9 -30q0 -29 -17 -69q-13 -30 -35 -58q34 -16 24 -30q-8 -10 -18 -3t-23 12q-66 -74 -156 -92q-15 -3 -24 -3q-11 0 -20.5 5.5t-9.5 15.5q-1 14 11 29q18 24 55 45
q47 25 88 30q26 3 47 -1q41 49 51 99q2 10 2 19q0 18 -11 18q-3 0 -12 -2.5t-14.5 -2t-7.5 7.5q-4 7 10 26l12 13q8 9 46 44q-2 0 -5.5 -0.5t-5.5 -0.5q-102 -6 -135 35q-6 10 3.5 17.5t16.5 -1.5l3 -4l1 -1l1 -1l2 -1q22 -18 68.5 -21t81.5 5q32 25 66 46q16 7 18 8h3.5
h3.5h4zM50 162q75 13 131 73q-68 5 -137 -51q-11 -12 -18 -22v-1q1 -1 5 -1q6 -1 19 2z" />
    <glyph glyph-name="bracketleft" unicode="[" horiz-adv-x="207" 
d="M70 152q11 1 13 -11q1 -14 -12 -14l-59 -2q-5 0 -8.5 3.5t-3.5 8.5q0 4 2 7l7 12q9 13 22 38l26 53q35 70 52 105l51 107q6 12 12.5 26.5t12.5 26.5t12.5 26.5t12.5 26.5q5 10 16 6v-2l5 -1h6l11 -4q8 -3 11 -3q1 0 2 -0.5l1 -0.5q1 0 1.5 -0.5l0.5 -0.5q1 0 1.5 -0.5
t1.5 -0.5l3 -2q7 0 10 -6t0 -12t-11 -6h-3q-1 0 -2 0.5t-2 0.5t-2 0.5t-1.5 0.5h-2h-2.5q-21 6 -28 9l-98 -201l-26.5 -53t-25.5 -53l-40 -78l-4 -7l37 1h1z" />
    <glyph glyph-name="backslash" unicode="\" horiz-adv-x="197" 
d="M148 139q1 -7 -4.5 -11.5t-12.5 -2t-8 9.5v1q-2 19 -5.5 49t-6.5 52.5t-5.5 51t-3.5 52.5q-4 58 -10 206q0 5 3.5 8.5t9 3.5t9 -3.5t3.5 -8.5q1 -26 1 -64q0 -15 1 -34t2 -34.5t2 -37t2 -35.5q6 -109 23 -203z" />
    <glyph glyph-name="bracketright" unicode="]" horiz-adv-x="228" 
d="M33 156h8q12 -1 17 -2q2 0 5 -2q16 25 48 90q77 156 127 252q11 21 13 25v3q-14 0 -32.5 11t-5.5 23q8 9 18 0l4 -4q2 0 6 -2t7.5 -3t7.5 -1q0 -1 3 -1l2 1q1 0 3 0.5t3 0.5t2 0.5l1 0.5l3 2v-1q9 2 13.5 -5.5t-0.5 -15.5l-7 -10l-8 -12q-26 -39 -95 -172l-51 -100
q-34 -69 -46 -102q-2 -8 -10 -7h-6q-12 6 -23 6h-6h-2.5h-2.5t-1.5 -0.5t-1 -0.5t-1 -0.5l-0.5 -0.5q-2 0 -4 -1q-14 -7 -20 4q-2 3 -1 6l1.5 4.5t3.5 3.5l4.5 3t5 2.5t5.5 2.5t4 1q6 1 9 1z" />
    <glyph glyph-name="asciicircum" unicode="^" horiz-adv-x="204" 
d="M164 436q-1 4 -1.5 14t-0.5 12v3q-5 -6 -16 -16t-14 -13q-1 -1 -5 -4t-7 -4.5t-7 -3t-7 -0.5t-6 5q-4 5 -1.5 10t5 7.5t8.5 7t7 5.5q9 7 31 29l7 8q3 3 7 8q6 8 14 4.5t8 -12.5q0 -2 -0.5 -7.5t-0.5 -8.5v-16q0 -12 1 -16v-8q0 -1 0.5 -2l0.5 -1q1 -1 1 -7q0 -8 -8 -10.5
t-12 4.5q-4 6 -4 12z" />
    <glyph glyph-name="underscore" unicode="_" horiz-adv-x="203" 
d="M41 189q15 0 37.5 -1t41 -2.5t40.5 -3t34 -2.5q7 -1 9 -6.5t-1.5 -11t-9.5 -4.5q-121 7 -151 6q-18 0 -28 -2q-12 0 -13 12q0 12 12 14h7q5 1 22 1z" />
    <glyph glyph-name="grave" unicode="`" horiz-adv-x="161" 
d="M140 457q-6 18 -23 55q-4 12 7 17t16 -6v-1q1 -2 3.5 -8t5 -11.5t3.5 -9.5l9 -29q2 -6 -2.5 -10.5t-10.5 -4t-8 7.5z" />
    <glyph glyph-name="a" unicode="a" horiz-adv-x="228" 
d="M-6 281v5q4 31 48 53q29 15 72 22q2 1 6 1h6q8 0 11 -8q2 2 6.5 5.5t6.5 5.5q7 8 15.5 2.5t4.5 -14.5q-4 -10 -15 -32.5t-15 -35.5l-2 -7h6q4 1 12.5 3t13.5 4q30 13 77 40q6 4 12 0t6 -10.5t-7 -11.5q-7 -4 -17 -9.5t-17 -10t-17 -10t-18.5 -9t-18.5 -7.5t-20 -6
q-7 -1 -10 -1h-5q-10 0 -18 6.5t-8 16.5q-1 15 7 35l-16 -11q-37 -23 -56 -30q-13 -6 -24 -6h-4h-1.5h-2.5q-14 5 -18 20zM19 282v2v-2zM19 286q9 2 19 6t15.5 7t18 11t13.5 9q8 4 27 17h-3h-3q-59 -14 -82 -40q-4 -5 -5 -10zM135 278z" />
    <glyph glyph-name="b" unicode="b" horiz-adv-x="228" 
d="M105 321h5q2 -1 6.5 -3t6.5 -3t4.5 -3.5t4.5 -5.5q3 -8 3 -18t-6 -30q36 16 119 67q6 4 12 0.5t6 -10t-7 -11.5q-95 -59 -142 -76q-16 -34 -45 -60q-22 -22 -47 -22t-35.5 21.5t-6.5 52.5q4 32 18 65t27 54t34 51q64 86 126 127l5.5 3t7 4t7 4t8.5 3.5t8.5 2.5t8.5 1.5
t7.5 -1t8 -3t6.5 -5.5q5 -7 5 -14q1 -3 0 -10q0 -1 -0.5 -2l-0.5 -1l-1 -1v-1v-1q-12 -23 -20 -33q-54 -63 -197 -159q-27 -50 -32 -87q-3 -21 2.5 -36t23.5 -8q12 4 22 14q15 13 29 33q-1 -1 -4 -1h-14q-18 5 -18.5 22.5t7 31.5t15.5 25q18 21 33 23zM84 374l-11 -16
q101 70 145 123q8 11 14 23l1 2v1v1q-30 -8 -73 -47q-37 -33 -76 -87zM72 239h4q1 0 2.5 0.5l1.5 0.5q2 0 9 2l11 4q24 46 8 54h-3q-12 -4 -23.5 -21t-13.5 -33q0 -6 4 -7zM108 300z" />
    <glyph glyph-name="c" unicode="c" horiz-adv-x="192" 
d="M35 228q18 5 46 20t49 27.5t49.5 30t31.5 19.5q6 4 12 0t6.5 -10.5t-6.5 -11.5q-4 -2 -41 -26.5t-53 -34t-47 -23.5t-57 -19q-5 -1 -6 -1q-11 -2 -14 -1h-6l-2 1q-11 0 -19.5 9.5t-10.5 20.5q-2 2 0 9t1 9t2 8t2.5 7.5t3 7.5t4 7t4.5 6.5t4.5 6t4 5.5t4.5 6q42 56 92 73
q12 3 18 3q24 0 24 -27q-1 -8 -4 -13v-1v-1l-1 -1q-5 -11 -16 -5.5t-7 15.5q0 1 1 2v0.5v1.5q1 0 1 1v2q-10 0 -32 -16q-24 -15 -55 -52q-14 -17 -21 -34q-8 -21 7.5 -25t30.5 4z" />
    <glyph glyph-name="d" unicode="d" horiz-adv-x="338" 
d="M332 554q9 0 16 -7t7 -16v-5v-1.5v-2.5q-2 -6 -6 -14t-7 -11.5t-10.5 -12t-8.5 -10.5q-45 -53 -102 -110q-54 -53 -105 -94q-7 -6 -12 -10q-19 -51 -24 -98q-3 -41 7 -41h3l4 1q27 13 61 42q14 11 65 55.5t78 64.5q12 9 44 31q1 1 3.5 2.5t4 2.5t4 2.5t4.5 2t4 1.5t4 0.5
t3.5 -1t3.5 -2.5t3 -4q4 -8 -6 -15q-30 -17 -57 -39q-26 -19 -74 -62.5t-67 -60.5q-45 -36 -67 -44q-2 -2 -7.5 -3t-6.5 -2h-9q-2 1 -5 2t-5.5 2.5t-3.5 1.5q-32 33 -3 133l-1 -0.5l-1 -0.5q-39 -24 -74 -32q-1 0 -3.5 -0.5t-3.5 -0.5h-9q-13 1 -21 9.5t-8 22.5q2 24 27 51
q31 36 65 56q31 17 56 17q5 0 12 -1.5t9 -1.5h1q64 119 139 172q33 22 55 28q12 4 24 3zM267 503q-89 -64 -143 -195q100 83 181 182q20 25 24 32q1 3 1 4l0.5 1l0.5 1v1q-1 1 -2 1q-9 1 -31 -8q-12 -6 -31 -19zM-21 224q2 2 7 2q16 3 31 9.5t35.5 19.5t25.5 16q10 25 24 57
q-3 1 -9 0q-15 0 -43 -16q-46 -24 -71 -66q-6 -9 -7 -17v-2q1 -1 3 -1q1 0 1.5 -0.5t1.5 -0.5z" />
    <glyph glyph-name="e" unicode="e" horiz-adv-x="172" 
d="M37 288v-2v-2v-1q0 -4 3 -7.5t6.5 -5.5t7.5 -2q7 0 10.5 -1t11 1t10.5 3t10.5 4t10 4.5t9 4.5t8.5 4q40 19 68 37q5 3 10.5 -1t5.5 -10t-6 -11q-69 -42 -105 -55q-25 -11 -52 -5t-34 31q0 1 -0.5 2t-0.5 2v1q-8 25 9 57q27 44 79 63q10 5 20 5h9q4 -1 9 -4t8 -8.5
t1 -12.5q-2 -15 -24 -32q-31 -27 -84 -45h-1q-1 -8 1 -14zM96 368q-22 -10 -37 -25q19 11 37 25z" />
    <glyph glyph-name="f" unicode="f" horiz-adv-x="146" 
d="M229 495v-3q-1 -3 -2 -3q-7 -17 -22 -34q-45 -53 -111 -105q-38 -30 -60 -46q-2 -1 -3 -2l-20 -28q2 -1 6 -1h12h7q1 0 3 0.5t3 0.5h6q47 10 114 49q4 2 7.5 1.5t6.5 -3t4 -6t0 -7.5t-6 -6q-42 -24 -60 -32l-13 -6q-25 -10 -55 -15q-2 0 -4.5 -0.5t-3.5 -0.5h-22h-2.5
h-2.5q15 -40 7 -108q-8 -67 -40 -121q-2 -2 -7.5 -8t-8.5 -8.5t-8.5 -6.5t-11 -5.5t-12.5 -2.5q-13 -1 -22.5 7.5t-13.5 21t-4 27.5q0 33 16 77q21 67 67 138h-1l-13 7q-12 6 -4 19q6 9 13 3q8 0 20 -8q55 83 131 157q46 43 75 62l9 5q11 4 12 4h3h1q4 0 7 -4.5t3 -8.5z
M-84 45q0 -1 0.5 -4t0.5 -4.5t0.5 -4.5t1 -5l1 -4t1.5 -3.5t2.5 -2.5l3 -2t3.5 -1q3 0 6 1.5t5.5 3t5 4t4 4.5t4 4.5l3.5 3.5q22 33 32 82t4 100q-3 14 -5 21q-42 -72 -59 -123q-14 -42 -14 -70zM119 402q29 24 54 52q-21 -18 -54 -52zM206 497z" />
    <glyph glyph-name="g" unicode="g" horiz-adv-x="283" 
d="M13 263q0 1 -2 6v1q-3 5 -3 12v10q3 28 30 62q48 59 103 82q17 7 35 8q1 0 4.5 -0.5t5.5 -0.5q13 0 27 -17q4 -6 1 -12.5t-9 -7t-12 4.5l-2 3l-2 1q0 1 -1 1h-0.5h-1.5q0 1 -2 1l-1 0.5l-1 0.5q-15 0 -31 -7q-33 -14 -61.5 -40.5t-45.5 -58.5q-7 -13 -8 -24v-6v-4v-1
q1 -1 1.5 -2t0.5 -2v-1q8 -7 46 12q11 5 21.5 11.5t22 14.5t18.5 13.5t20.5 16t18.5 14.5q3 2 8 6t9 7.5t7 6.5q7 7 14.5 1t5.5 -14q-11 -33 -33 -90q40 18 78 38l28 16q7 4 13 0t5.5 -10.5t-6.5 -11.5q-32 -18 -114 -57l-18 -9q-41 -100 -82 -168q-13 -20 -19.5 -29.5
t-19.5 -24t-27 -23.5q-18 -14 -43.5 -18t-48.5 10q-17 13 -18 41.5t10 50.5q16 35 49 69l11 11q46 38 80 58q25 13 58 28l29 14q22 54 28 69q-8 -6 -27.5 -20.5t-34.5 -24.5t-30 -18q-33 -16 -50 -16q-15 -2 -34 16v1zM75 84q33 55 69 135q-86 -43 -128 -86l-1 -1l-1 -1
l-1 -1l-1 -1l-1 -1l-1 -1l-1 -1l-1 -1l-1 -1l-1 -1l-1 -1l-1 -1l-1 -1l-1 -1l-1 -1l-2 -1q-38 -38 -44 -81q-3 -21 8 -28t26 -3t29 13q23 13 57 66z" />
    <glyph glyph-name="h" unicode="h" horiz-adv-x="291" 
d="M106 320h8q17 -6 23 -13.5t9.5 -20l7 -25t8.5 -19.5q3 -4 8 -5.5t11 0t12.5 4.5t14 8t14 9t14 10t12 10t10 8.5t6.5 4.5q38 29 45 33q13 8 20 -2q3 -3 1.5 -9t-6.5 -8q-9 -6 -36 -26.5t-51.5 -37t-41.5 -22.5q-11 -3 -16 -3h-9q-15 0 -23 9t-10.5 20t-6 25t-8.5 21
q-7 10 -17 8q-15 -3 -33 -18q-35 -26 -76 -77q-5 -4 -11 -4t-10 5t-1 11q24 76 58 138q22 42 51 85l14 21q5 6 15 19.5t15 19.5q2 2 9.5 11.5t10 12.5t9 11t10.5 11.5t10.5 9t13 9.5t12.5 7q25 9 39 -2q24 -22 9 -81q-4 -15 -17 -31q-32 -42 -114 -99q-49 -33 -73 -47
l-19 -38q0 -1 -1 -3q15 14 22.5 20.5t23 16t29.5 12.5q1 0 2.5 0.5t2.5 0.5zM109 421q-5 -7 -42 -69q66 43 112 86l10.5 10.5t10.5 11t11 13t8 13.5t6 16.5t1.5 17.5t-2.5 21l-2 3h-1q-8 0 -23 -13q-18 -15 -47 -52q-18 -21 -29 -38z" />
    <glyph glyph-name="i" unicode="i" horiz-adv-x="173" 
d="M41 239q-15 7 -14 23.5t7.5 28.5t14.5 23q-14 -9 -20 -12t-11.5 1t-5.5 11t7 11q82 45 109 61q6 4 12 0.5t6.5 -10t-4.5 -12.5v-1q-9 -5 -31 -24q-39 -39 -50 -59q-5 -8 -7 -15v-1h2q9 0 27 7q53 19 109 54q12 7 16 -7q3 -10 -5 -16q-4 -2 -31 -18t-38 -22t-33.5 -14.5
t-42.5 -11.5h-7q-7 2 -10 3zM194 436q1 0 4.5 1t6.5 2l6 2t5 3t2 4q10 10 21 1q16 -14 -18 -30q-18 -9 -30 -9h-4q-6 0 -16 11l-1 3q-5 12 6 16q4 1 9.5 -1.5l5.5 -2.5h1.5h1.5zM192 434q0 -2 1 -2z" />
    <glyph glyph-name="j" unicode="j" horiz-adv-x="128" 
d="M87 294q38 17 60 31q12 7 18 -5q4 -10 -6 -17q-26 -17 -92 -43q-36 -59 -80 -129q-4 -5 -10 -15l-8 -10q-1 -1 -2.5 -3t-3 -3.5l-2.5 -2.5q-30 -31 -63 -41q-32 -10 -55.5 8t-14.5 51q4 10 9.5 19t10.5 15.5t14 15t13.5 12t16 12t15.5 11.5q75 51 146 79q17 28 36 66
q-27 -23 -49 -36l-10 -6q-10 -7 -16 5q-6 10 4 16l9 6q49 32 63 46q3 3 18 17q9 5 12 5t6.5 -3t3.5 -6v-3v-4v-1t-0.5 -2l-0.5 -1q-2 -5 -6 -14.5t-6 -14.5q-6 -10 -30 -55zM20 222q9 14 12 24q-85 -42 -139 -82q-3 -4 -12 -12t-13.5 -12.5t-10 -13t-8.5 -17.5
q-5 -14 2 -22.5t21 -10.5q6 0 11.5 1t10 2t9.5 3t8.5 3.5t8 5t7 5.5t7 6.5l6 6t6.5 6t6 6.5l7 8q18 24 61 93zM145 466q0 -3 8 -3q2 0 4 1q10 0 27 19q3 4 7 4.5t7.5 -1.5t5.5 -5t2 -7t-4 -8l-0.5 -0.5t-1.5 -0.5l-1 -1l-3 -3t-4 -3q-26 -17 -39 -17q-16 0 -23 6l-1 1l-2 1
q-7 4 -6.5 11t6.5 10.5t13 0.5l3 -3q1 0 2 -2z" />
    <glyph glyph-name="k" unicode="k" horiz-adv-x="286" 
d="M130 209h2q31 10 60.5 30.5t60 46.5t52.5 39q6 4 12.5 0.5t7 -10t-5.5 -11.5q-11 -6 -64 -46q-68 -55 -116 -70h-3q-1 -1 -2.5 -1.5t-3 -0.5h-2.5q-47 -4 -65 27q-8 12 -7 26q0 4 1 7q-1 -2 -4 -4t-4 -3l-30 -27q-10 -8 -29 -27q-7 -7 -15 -1.5t-6 14.5q15 55 54 143
q43 95 88 157l16 20q36 43 60 54q11 8 27 6.5t24 -11.5q11 -14 11 -45q0 -20 -4 -29l-0.5 -0.5t-0.5 -1.5q-9 -28 -46 -63q-59 -57 -161 -122q-20 -49 -28 -69q0 -1 -0.5 -2t-0.5 -2q59 50 92 71l9 6l9 5q10 6 26 11q2 1 3 1l3 1h11l0.5 -0.5t1.5 -0.5q11 -12 5 -18l-1 -1
q-5 -5 -13 -10l-8 -5q-2 -1 -13 -7t-15 -8.5t-12 -8t-13 -10t-10 -10.5v-1v-1l-2 -5l-0.5 -1l-0.5 -1q-1 -1 -1 -3q0 -5 2 -10.5t6 -9.5t9.5 -6.5t10.5 -2.5q7 -2 17 0h2h2zM219 500q4 8 4 24q0 11 -2 18t-7.5 11t-15.5 -3q-19 -10 -52 -48l-15 -20q-30 -41 -62 -106
l-11 -23l-6 -9l11 8q69 47 116 94q27 27 39 51l1 2v1z" />
    <glyph glyph-name="l" unicode="l" horiz-adv-x="215" 
d="M-6 119h-2h-2.5h-2.5q-68 0 26 194q46 95 117 204q34 49 48 62q27 19 45 18q23 -1 36 -19t13 -41t-6 -46q-12 -35 -40 -64t-54 -45t-67.5 -38.5t-61.5 -35.5q-2 -5 -12 -24.5t-14 -28t-11 -24.5t-11.5 -30t-8.5 -28q-3 -13 -3 -22q0 -1 0.5 -3l0.5 -2h2l2 1q4 0 17 4
q30 12 73 51q3 3 17.5 16t18 16t16.5 14.5t18.5 15.5t17 13.5t19 14.5t17.5 12t19 13q2 1 5.5 3t4.5 3t4 2t4.5 1h3.5t4 -1.5t4 -4.5q6 -10 -5 -17q-55 -31 -150 -119q-56 -49 -100 -64zM-16 146zM241 501q13 37 -6 59q-6 7 -14 7q-13 0 -22 -9l-1 -0.5l-1 -0.5
q-10 -10 -42 -57q-43 -66 -89 -152q94 56 125 83q37 30 50 70z" />
    <glyph glyph-name="m" unicode="m" horiz-adv-x="501" 
d="M318 328q-1 3 -2 3h-2q-10 0 -28 -12q-10 -6 -22.5 -15t-25 -18.5t-22.5 -15.5q-9 -6 -17 -6h-3h-2q-13 7 -13 26v11q0 8 2 42.5t0 42.5q0 12 -4 15q-1 0 -5 -2q-12 -5 -33 -21q-14 -11 -87 -73q-18 -17 -31 -26l-4 -1l-1 -1t-3 -1q-15 0 -15 14v2l1 2v0v2q6 14 30 45
q6 6 57 64q7 9 16 1t2 -17q-5 -7 -20 -25q53 43 78 55q11 3 14 3h7q9 0 14 -9t5.5 -25t0 -31t-1.5 -32.5t-1 -23.5v-10v-4q2 0 3 1q4 2 41.5 31.5t64.5 36.5h8q13 0 19 -12v-1q4 -7 7.5 -42t20.5 -39q11 -2 28 2q40 11 92 41q16 9 25 14l9 6q10 6 16.5 -4t-3.5 -17
q-82 -54 -152 -68h-10q-27 0 -38 20t-12 53q0 4 -1.5 10.5t-1.5 8.5zM179 402z" />
    <glyph glyph-name="n" unicode="n" horiz-adv-x="330" 
d="M215 390q-1 -13 -7 -42t-7 -42.5t2 -41.5q1 -1 1 -2l1 -1v0l2 -1q1 -1 4 -1q11 -1 43 14q31 15 95 52q11 7 17 -7q2 -10 -5 -15q-5 -2 -33.5 -19t-49 -27t-39.5 -16q-36 -9 -51 6v1l-2 1q-7 15 -8 34t2.5 35t7.5 37.5t5 35.5v7q0 1 -0.5 2t-0.5 2h-2q-18 -4 -53 -26
q-38 -25 -106 -82q-1 0 -6 -4t-8 -5l-1 -0.5t-2 -0.5h-3q-6 2 -9 5q-2 3 -2 8q0 1 0.5 2l0.5 1v1.5v0.5q1 3 16 22q42 50 74 81q4 6 11 3.5t9 -8.5t-3 -12l-15 -16q43 32 76 47q21 9 35 2h1q8 -5 8 -9q3 -7 3 -13q0 -1 -0.5 -4t-0.5 -5zM194 402z" />
    <glyph glyph-name="o" unicode="o" horiz-adv-x="209" 
d="M90 314q-5 11 -5 22l-1 2q-1 12 11 13q10 0 14.5 -16t7.5 -19q13 -13 38 -13q39 0 74 22q8 4 12.5 0.5t4 -11t-5.5 -11.5q-43 -24 -87 -24q-28 0 -47 12q-23 -71 -81 -102q-16 -8 -26 -10h-4h-4q-14 0 -21.5 9t-7.5 24q0 23 20 63q29 59 72 73q10 3 15 -7t-4 -15
q-2 -2 -5 -4.5t-6.5 -4.5t-5.5 -4q-45 -45 -58 -93q-1 -6 -1 -9q0 -7 1 -9q23 0 45 18q40 32 51 72q4 13 4 22z" />
    <glyph glyph-name="p" unicode="p" horiz-adv-x="435" 
d="M374 367q0 -25 -25 -58q68 -3 101 13q1 1 3 2l1 1q3 2 7 2t7 -1.5t5 -4.5q7 -14 -21 -25t-57 -13q-23 -2 -70 1q-43 -33 -66 -10q-20 21 -7 34q5 7 18 7h7q8 0 22 -1.5t16 -1.5q34 27 34 55q0 12 -15 12q-1 0 -2 0.5t-2 0.5h-4q-12 0 -30 -4q-39 -12 -86 -45
q-29 -73 -81 -169q-35 -66 -57 -95q-26 -34 -49 -39q-20 -5 -31.5 10t-9.5 38q3 27 29 74q36 62 96 121q43 44 82 72q14 36 18 66v10q-3 0 -17 -4q-35 -17 -91.5 -61t-65.5 -50q-20 -13 -26 -3q-8 12 12 24q23 14 61 45t55 43q40 26 60 31q13 3 24.5 -3t11.5 -17q1 -7 0 -18
q-4 -22 -10 -39q2 1 7 4q19 11 29.5 16.5t29.5 11.5t38 6h4q1 0 2.5 -0.5t2.5 -0.5q17 0 28.5 -10.5t11.5 -26.5zM169 297q1 4 4 9q-91 -72 -145 -164q-24 -42 -26 -66q-2 -13 2 -21.5t14 -5.5q18 6 37 32q17 21 55 93q34 65 59 123zM208 421z" />
    <glyph glyph-name="q" unicode="q" horiz-adv-x="275" 
d="M209 355h-1l-2 -2h1q-2 -2 -9 -12l-24 -33q-7 -11 -22 -33t-23 -33q92 42 134 66q20 11 31 17q7 4 12.5 0t5.5 -10.5t-6 -11.5q-14 -8 -29 -16.5t-27 -14.5t-30.5 -15t-28 -13t-31.5 -14t-30 -13q1 -1 2 -1q13 -8 15 -26.5t-3 -34t-12 -30.5q-26 -53 -71 -104
q-1 -1 -3 -4q-53 -57 -80 -30v1l-1 1l-1 2v0v1.5v0.5q-2 6 -2 15q1 8 3 16t4 14.5t5.5 15t5 12.5t6.5 13.5t6.5 12t7.5 13t7 12.5q19 33 43 71v1q-2 -1 -5.5 -2.5t-5.5 -2.5q-7 -2 -12.5 2.5t-5 11.5t8.5 10q6 2 14 5.5l16 7t14 5.5q1 2 4 6.5t4 6.5q-39 -28 -66 -26
q-10 0 -23 6q-20 10 -20 29q-4 20 13 48q33 53 94 88q36 20 63 22h5h12q17 -3 16 -15q-2 -11 -13 -11h-13q-28 -4 -56 -21q-71 -43 -91 -95q-4 -18 8 -23q1 -1 2 -1h2q1 -1 3 -1q22 -1 63 32q38 31 83 87l6 8l3 4l5 4q-7 3 -2 3q18 -1 24 -10q2 -4 0 -8l-1 -1q-2 -2 -2 -3z
M110 134.5q16 33.5 13 51.5q-1 12 -18 12q-1 0 -3.5 -0.5t-3.5 -0.5q-69 -102 -93 -166q-9 -21 -7 -31q1 0 1.5 0.5l0.5 0.5q7 2 15 8q24 19 53 58q26 34 42 67.5zM208 356l-1 -2z" />
    <glyph glyph-name="r" unicode="r" horiz-adv-x="328" 
d="M139 374v-4q-7 -32 -31 -73q-14 -27 -35 -63q-1 0 -1 -0.5t-1 -1.5l41 41q64 62 100 92q3 2 12.5 10t13.5 11t11.5 8.5t14 9t14.5 6.5q30 10 40 -6q5 -8 5 -28l-2 -11v-1q-3 -11 -14.5 -8.5t-9.5 14.5v1q1 3 1 8v8v2q-9 0 -29 -12q-20 -13 -42 -31q-75 -63 -204 -204
l-21 -21h-1l-6 -2q-20 1 -14 19l2 2q4 9 14.5 24.5t11.5 17.5q28 45 73 127q14 25 19 37q-5 -2 -10.5 -5.5t-9.5 -7t-9.5 -7t-8.5 -5.5q-6 -4 -32 -18q-6 -4 -12 0.5t-6 10.5t6 11q33 18 65 41q27 19 36 22h6q3 0 7.5 -3t4.5 -6q1 -3 1 -5z" />
    <glyph glyph-name="s" unicode="s" horiz-adv-x="209" 
d="M262 473q5 0 9.5 -6t2.5 -11q0 -9 -19 -22l-11 -7q-13 -9 -64 -39q-37 -44 -54 -94q-2 -4 -5 -11.5t-5 -11.5q12 5 30 13t29 13.5l26 13t29 15.5h1q12 8 17 -5q4 -11 -6 -17q-13 -8 -32.5 -18t-34 -17t-39 -18t-35.5 -17q-45 -97 -102 -169q-15 -19 -22.5 -28
t-22.5 -22.5t-30 -20.5q-12 -5 -22 -4h-4q-37 9 -34 46q1 16 9 34q15 34 38.5 60t57.5 55q30 25 104 64l11 26q24 60 33 76l-85 -47q-4 -2 -7.5 -1.5t-6 3.5t-4 6.5t0 7t5.5 6.5q55 30 134 79q37 44 78 63q15 5 16 6h3h3h3h1h2l1 -0.5zM-99 17h3q5 0 10 2.5t7 4t8 6.5t7 6
q34 31 76 98q26 42 42 76q-5 -3 -30.5 -19t-38.5 -26q-66 -53 -88 -106q-5 -15 -6 -25q0 -17 10 -17zM245 464z" />
    <glyph glyph-name="t" unicode="t" horiz-adv-x="216" 
d="M2 522q206 -4 212 -4q31 38 71 91l1 1l1 1q1 2 2 2v1q16 9 22 -5q2 -3 2 -8q0 -2 -1 -4v-1q-14 -29 -46 -78q96 0 239 6l26 1q8 1 13 -5t3 -13t-11 -8q-138 -4 -280 -4q-27 -45 -78.5 -131t-82 -136t-71 -119t-71.5 -125l-25 -43q-4 -6 -10 -6t-10.5 5.5t-1.5 12.5
q11 20 89 158q80 140 202 344q-32 -36 -52.5 -57.5t-52.5 -49.5t-62 -46q-7 -4 -13 0t-6.5 10.5t5.5 11.5q48 29 89.5 70t91.5 101q-159 3 -194 3q-34 2 -50 -2q1 -2 5 -5.5t6 -5.5t3 -6.5t-4 -8.5q-8 -9 -17 -1q-1 1 -6 5.5t-8 7.5t-5.5 8t-2.5 11q0 5 2.5 9.5t8 6.5
t11 3.5t14 2t14.5 0.5t15 -0.5t13 -0.5zM308 591v-1v1z" />
    <glyph glyph-name="u" unicode="u" horiz-adv-x="296" 
d="M160 205q-21 21 -5 66q-9 -7 -25 -21.5t-30 -25t-27 -19.5q-15 -7 -21 -7h-4q-4 0 -8.5 3t-4.5 7q-4 14 6 30q20 43 25 60q3 11 3 18v3q-10 0 -35 -14q-10 -6 -16.5 5t4.5 17q30 17 47 17q8 0 14 -4t8.5 -10t2.5 -13q0 -13 -3.5 -26.5t-7.5 -22t-11 -21.5t-9 -19v-1
q36 22 82 66q27 25 32 31q8 7 16.5 0.5t3.5 -15.5q-19 -39 -24 -65q-1 -11 0 -14v-1v-1q6 0 24 11q17 11 56 42t62 44q10 6 17 -4.5t-4 -16.5q-23 -15 -61.5 -44.5t-55.5 -41.5q-24 -18 -42 -16q-2 0 -5 1l-3 1zM174 226z" />
    <glyph glyph-name="v" unicode="v" horiz-adv-x="262" 
d="M88 359q4 0 8.5 -4t4.5 -9q1 -8 -8 -30l-6 -18q-3 -6 -6 -18l-6 -19q-10 -34 -28 -105q27 29 76 83t67 74q47 50 62 63q3 4 7 4t7 -2t5 -5.5t1.5 -7.5t-3.5 -7h-1q-5 -5 -16 -14t-16 -15q-21 -19 -60 -61l-30 -32q-63 -70 -113 -132q-6 -7 -15 -3t-7 13l-1 1
q3 13 9.5 38.5t9.5 38.5l12 38q3 13 10.5 39t11.5 38l7 19q-1 0 -2.5 -1t-2.5 -2l-34 -20q-10 -7 -17 5q-5 10 5 16l33 20l9 4.5t9.5 5t8.5 4.5q1 1 4 1h5z" />
    <glyph glyph-name="w" unicode="w" horiz-adv-x="456" 
d="M200 136q4 -1 6 -1q0 1 1 1h1h1q10 3 25 12q40 27 88 87q35 44 72 103q42 73 50 111v1q3 12 15 10q12 -3 9 -17q-10 -45 -56 -119q-54 -86 -118 -153q-17 -17 -26.5 -25t-27.5 -18.5t-37 -15.5h-9q-53 10 12 140q2 5 3 7l30 57l12 23q-4 -2 -10 -8q-31 -29 -47 -43
l-48 -42q-33 -27 -97 -84q-5 -4 -11.5 -1.5t-8.5 7.5t2 11q11 20 39 67.5t47.5 84t34.5 71.5q-3 -2 -5 -4l-22 -20q-62 -56 -94 -75q-6 -4 -12.5 0t-6.5 10t6 11q37 23 91 72l22 20l7.5 7.5t9.5 9t10.5 6t13.5 1.5q3 0 7.5 -4t4.5 -8q1 -1 1 -7q-4 -22 -29 -73
q-8 -16 -68 -122q64 51 140 121q4 4 11.5 11t11.5 11l9 3q2 1 5 4t5.5 5t5.5 3h2h4h0.5h1.5q3 0 6 -5q0 -1 0.5 -1.5t0.5 -1.5v-6q-4 -12 -15 -36l-15 -28q-2 -5 -7.5 -15.5t-8.5 -15.5t-8 -14.5t-8 -15.5t-7 -15.5t-7 -16.5t-6.5 -15.5t-6 -17t-5.5 -17.5q-6 -21 0 -27h2h1
z" />
    <glyph glyph-name="x" unicode="x" horiz-adv-x="280" 
d="M142 404q-12 -36 -12 -91v-13q2 3 78 71q11 10 32.5 27t29.5 24t20 -1q7 -11 -3 -18v-1h-1q-56 -38 -130 -106l-7.5 -7.5l-8 -8l-6.5 -6.5q13 -100 73 -100q8 0 14 1.5t13.5 4.5t9.5 4h1q11 6 16.5 -5.5t-5.5 -16.5q-16 -11 -49 -11q-26 0 -46.5 16t-31 37.5t-15.5 47.5
q-45 -44 -65 -85q-2 -4 -6 -5.5t-7.5 -0.5t-6.5 3.5t-3.5 6t1.5 8.5l12 18t14.5 19.5t13 15.5t16.5 18t14 15l14 13q-2 18 -2 35v23q0 4 0.5 7.5t1 8t0.5 7.5q0 1 0.5 3t0.5 3q-23 -23 -81 -62q-11 -7 -17 5q-6 10 4 16q77 46 101 87l1 1l1 2l2 2q1 2 6 2q2 3 9 -2l3 -4
q1 -2 1 -3v-1v-4z" />
    <glyph glyph-name="y" unicode="y" horiz-adv-x="196" 
d="M161 402q5 5 10.5 4t9 -7t0.5 -11q-35 -64 -53 -96q60 18 87 33q14 8 18 -4q3 -11 -5 -17q-10 -6 -22 -11.5t-24.5 -9.5t-23.5 -7.5t-25 -8t-25 -8.5q-89 -153 -122 -201q-37 -55 -60 -78q-30 -26 -46 -2q-4 7 -5 21q0 23 8 50q16 60 56 119q12 16 44 49q41 37 108 63
q4 8 10 17.5t11.5 19.5t9.5 17q-4 -3 -38 -23q-16 -10 -30 -10h-5h-10h-2h-2q-10 2 -16 7.5t-7.5 13.5t-1 17t4.5 20t7 20.5t9 21t9.5 18t8.5 15l5 8.5l21 37q4 6 10.5 6t10.5 -6t1 -12l-19 -38q-26 -48 -35 -73q-4 -13 -4 -18v-7q0 -2 2 -2h6q1 0 4.5 1t4.5 1h3q7 0 22 10
q41 22 80 61zM-71 20q53 69 142 224q-45 -18 -88 -62l-2 -3q-48 -48 -74 -137q-7 -27 -7 -43q0 -5 1 -7q6 3 18 17q7 7 10 11z" />
    <glyph glyph-name="z" unicode="z" horiz-adv-x="273" 
d="M176 282q15 0 25 -10q8 5 21.5 13t17.5 10l52 30q6 4 12 0t6.5 -10.5t-5.5 -10.5q-15 -9 -47 -26.5t-48 -27.5v-4q0 -10 -6 -25q-7 -24 -24 -58q-42 -85 -99 -155q-21 -28 -35 -37l-1 -1q-12 -9 -19 -9h-7q-28 0 -18 60q15 70 75 146q7 6 19.5 18.5l22.5 22.5t19 18
q21 16 43 32h-4q-21 0 -53 -16q-30 -14 -52 -28q-9 -6 -16 3t1 17q33 34 49 51l15 17q38 43 42 67q2 2 2 5v4h-4q-5 0 -10 -1t-12 -4t-9 -4.5t-10.5 -6.5l-8.5 -5q-15 -9 -40 -27t-37 -26q-15 -8 -21 4q-4 10 5 16q13 7 59.5 39t64.5 39t32 3q11 -3 17 -13t6 -21v-4.5v-4.5
v-1q-1 -3 -2 -7q0 -10 -18 -36q-12 -19 -33 -40l15 3q12 1 18 1zM166 377q-1 0 -1 1zM21 -18zM181 227q2 5 2 6q-35 -24 -75 -64q-69 -72 -85 -151q-4 -16 -3 -27q0 -4 2 -8l1 1h2q1 0 8 6q8 6 14.5 12.5t15 17.5t11 14.5t13 19t11.5 15.5q64 98 83 158z" />
    <glyph glyph-name="braceleft" unicode="{" horiz-adv-x="135" 
d="M4 136q-4 22 -4 38q0 1 0.5 4.5t0.5 4.5q10 50 30 91q14 28 20 53q1 5 1 7q4 27 -19 53q-5 7 -1 14t12 7h7h7q10 1 19 5t16.5 12t11.5 14t11 18t10 15q9 18 17 30t20 25t27.5 21t33.5 11q6 1 10 -2t3 -8q1 -4 0 -6.5t-4 -4.5t-6 -2.5t-7.5 -1.5t-6.5 -2q-23 -12 -34 -23
q-11 -13 -23 -32.5t-24.5 -39t-24.5 -31.5q-19 -19 -41 -24h-2q12 -29 10 -51q0 -3 -2 -10q0 -3 -7 -25q-5 -14 -20 -46.5t-20 -53.5q-1 -5 -1 -7q0 -1 -0.5 -4t-0.5 -4v-7q0 -10 5 -30v-1q3 -7 -2 -12t-12.5 -4t-9.5 9z" />
    <glyph glyph-name="bar" unicode="|" horiz-adv-x="202" 
d="M282 589q-2 0 -43 -77q-48 -85 -78 -140t-69.5 -136t-66.5 -151v-1q-3 -7 -10 -7.5t-12 4.5t-2 12v1q13 32 28.5 66.5t29.5 64.5t33 66.5t32.5 62.5t35 65t33.5 61t34.5 62.5t33.5 59.5q4 6 10.5 6t10.5 -6t0 -13z" />
    <glyph glyph-name="braceright" unicode="}" horiz-adv-x="219" 
d="M196 512q-1 13 -8 20l-7 4q-6 4 -5 11.5t6.5 10.5t12.5 0q14 -9 24 -29q1 -5 0 -7q0 -1 0.5 -3.5t0.5 -4.5v-6q-2 -20 -13.5 -49.5t-13.5 -42.5q-1 -4 -1 -9q2 -7 4.5 -9t10.5 -5q7 -2 7.5 -10.5t-5.5 -11.5q-22 -13 -41 -33t-31.5 -39.5t-26.5 -47.5q-3 -5 -9 -17
t-9.5 -18t-9.5 -16.5t-11 -17t-11.5 -14t-13.5 -13.5q-56 -44 -65 -21q-4 12 7 17h3q29 8 51.5 30t34.5 45.5t28.5 55.5t30.5 50q14 24 44 47q-10 11 -10 25q-2 10 0 20t8 24t7 18q8 18 11 42v4z" />
    <glyph glyph-name="asciitilde" unicode="~" horiz-adv-x="197" 
d="M123 320q4 3 8 3.5t7 -1t5.5 -4.5t2.5 -7t-3 -7q-12 -14 -30 -14q-15 0 -43 14q-22 10 -30.5 11t-15.5 -9q-4 -7 -11.5 -6.5t-10.5 6.5t0 13q10 16 26 19.5t26.5 -0.5t26.5 -12q19 -9 27.5 -10.5t14.5 4.5z" />
    <glyph glyph-name="uni007F" 
 />
    <glyph glyph-name="exclamdown" unicode="&#xa1;" horiz-adv-x="269" 
d="M104 330h58l25 -512h-108zM196 478q0 -33 -16 -50t-46 -17t-46 17t-16 50q0 32 16.5 50t45.5 18t45.5 -17.5t16.5 -50.5z" />
    <glyph glyph-name="cent" unicode="&#xa2;" horiz-adv-x="571" 
d="M476 117q-55 -28 -124 -30v-97h-67v100q-100 15 -147 82.5t-47 189.5q0 248 194 278v84h68v-80q74 -3 132 -29l-26 -73q-70 26 -119 26q-82 0 -120.5 -51t-38.5 -154q0 -104 39 -151.5t116 -47.5q43 0 76 8.5t64 21.5v-77z" />
    <glyph glyph-name="sterling" unicode="&#xa3;" horiz-adv-x="571" 
d="M334 723q93 0 177 -41l-31 -70q-82 38 -144 38q-57 0 -87 -29.5t-30 -95.5v-139h204v-66h-204v-104q0 -47 -15.5 -80.5t-52.5 -55.5h384v-80h-503v74q99 23 99 141v105h-96v66h96v148q0 88 55 138.5t148 50.5z" />
    <glyph glyph-name="currency" unicode="&#xa4;" horiz-adv-x="571" 
d="M90 353q0 57 35 110l-66 68l49 47l66 -64q49 35 112 35q59 0 110 -35l67 64l48 -47l-64 -67q35 -54 35 -111q0 -63 -35 -112l63 -66l-47 -47l-67 64q-50 -34 -110 -34q-64 0 -112 35l-66 -64l-48 47l65 66q-35 53 -35 111zM157 353q0 -54 37.5 -91.5t91.5 -37.5t92 37
t38 92q0 56 -38 93.5t-92 37.5t-91.5 -38t-37.5 -93z" />
    <glyph glyph-name="yen" unicode="&#xa5;" horiz-adv-x="571" 
d="M285 365l179 349h92l-201 -375h124v-64h-151v-82h151v-64h-151v-129h-86v129h-151v64h151v82h-151v64h122l-199 375h93z" />
    <glyph glyph-name="brokenbar" unicode="&#xa6;" horiz-adv-x="550" 
d="M239 760h73v-381h-73v381zM239 140h73v-381h-73v381z" />
    <glyph glyph-name="section" unicode="&#xa7;" horiz-adv-x="513" 
d="M67 395q0 42 21 75t58 51q-36 20 -56 47t-20 68q0 60 50.5 94.5t146.5 34.5q45 0 82 -7t89 -27l-27 -67q-47 19 -80.5 26t-69.5 7q-56 0 -82.5 -14.5t-26.5 -44.5q0 -27 28 -47.5t104 -47.5q89 -33 126 -70t37 -90q0 -88 -75 -133q74 -39 74 -110q0 -69 -57.5 -107
t-160.5 -38t-169 33v75q42 -19 88.5 -30t84.5 -11q62 0 96 18t34 53q0 30 -26 49t-103 49q-96 36 -131 72.5t-35 91.5zM142 405q0 -25 13 -43.5t43 -35.5t109 -47q64 37 64 91q0 40 -34 66.5t-123 54.5q-32 -9 -52 -33t-20 -53z" />
    <glyph glyph-name="dieresis" unicode="&#xa8;" horiz-adv-x="580" 
d="M149 681q0 26 13.5 37.5t33.5 11.5q19 0 33 -11.5t14 -37.5t-14 -38t-33 -12q-20 0 -33.5 12t-13.5 38zM337 681q0 26 13.5 37.5t32.5 11.5t33 -11.5t14 -37.5t-14 -38t-33 -12t-32.5 12t-13.5 38z" />
    <glyph glyph-name="copyright" unicode="&#xa9;" horiz-adv-x="832" 
d="M436 515q-58 0 -91 -41.5t-33 -116.5q0 -77 28.5 -118t94.5 -41q46 0 105 23v-64q-29 -13 -53 -18.5t-56 -5.5q-94 0 -145.5 58.5t-51.5 165.5q0 102 54 162.5t147 60.5q63 0 123 -30l-29 -61q-52 26 -93 26zM49 357q0 98 48.5 183t134 134.5t184.5 49.5q98 0 183.5 -49
t134.5 -134t49 -184q0 -96 -47.5 -180.5t-132.5 -135.5t-187 -51q-101 0 -186.5 50.5t-133 135t-47.5 181.5zM102 357q0 -84 42 -157t115 -115t157 -42t157 42t115 115t42 157t-42 156.5t-115 115t-157 42.5t-156.5 -42t-115 -115t-42.5 -157z" />
    <glyph glyph-name="ordfeminine" unicode="&#xaa;" horiz-adv-x="356" 
d="M261 389l-12 42q-46 -48 -114 -48q-47 0 -75 24.5t-28 74.5t38.5 76t119.5 29l56 2v22q0 30 -19 44.5t-52 14.5q-49 0 -101 -26q-13 30 -22 49q60 29 125 29t98 -27t33 -86v-220h-47zM96 482q0 -48 54 -48q96 0 96 87v23l-48 -2q-54 -2 -78 -16t-24 -44z" />
    <glyph glyph-name="guillemotleft" unicode="&#xab;" horiz-adv-x="508" 
d="M40 270l168 201l63 -36l-140 -171l140 -171l-63 -37l-168 201v13zM238 270l170 201l62 -36l-140 -171l140 -171l-62 -37l-170 201v13z" />
    <glyph glyph-name="logicalnot" unicode="&#xac;" horiz-adv-x="571" 
d="M520 388v-260h-71v189h-399v71h470z" />
    <glyph glyph-name="uni00AD" unicode="&#xad;" horiz-adv-x="321" 
d="M40 229v78h242v-78h-242z" />
    <glyph glyph-name="registered" unicode="&#xae;" horiz-adv-x="832" 
d="M355 373h50q40 0 61.5 19.5t21.5 51.5q0 36 -20 51.5t-64 15.5h-49v-138zM565 446q0 -41 -21 -70.5t-57 -43.5l116 -194h-86l-100 173h-62v-173h-76v437h128q82 0 120 -32t38 -97zM49 357q0 98 48.5 183t134 134.5t184.5 49.5q98 0 183.5 -49t134.5 -134t49 -184
q0 -96 -47.5 -180.5t-132.5 -135.5t-187 -51q-101 0 -186.5 50.5t-133 135t-47.5 181.5zM102 357q0 -84 42 -157t115 -115t157 -42t157 42t115 115t42 157t-42 156.5t-115 115t-157 42.5t-156.5 -42t-115 -115t-42.5 -157z" />
    <glyph glyph-name="macron" unicode="&#xaf;" horiz-adv-x="339" 
d="M165 292q-18 2 -76 2h-52q-5 0 -10.5 -0.5t-6.5 -0.5l-7 -1q-7 0 -11 6t-1.5 12.5t10.5 7.5h26q33 0 53 -1q10 0 28 -0.5t24 -0.5l24 1q7 1 11 -5t1.5 -12.5t-10.5 -7.5h-3z" />
    <glyph glyph-name="degree" unicode="&#xb0;" horiz-adv-x="428" 
d="M60 570q0 66 45 110t109 44q65 0 109.5 -45t44.5 -109t-45 -108.5t-109 -44.5q-63 0 -108.5 44t-45.5 109zM120 570q0 -39 28 -66.5t67 -27.5q40 0 66.5 28t26.5 66q0 39 -27 66.5t-66 27.5t-67 -27t-28 -67z" />
    <glyph glyph-name="plusminus" unicode="&#xb1;" horiz-adv-x="571" 
d="M321 391h199v-71h-199v-206h-72v206h-199v71h199v207h72v-207zM50 0v71h470v-71h-470z" />
    <glyph glyph-name="uni00B2" unicode="&#xb2;" horiz-adv-x="350" 
d="M306 286h-282v54l115 112q62 60 79.5 87.5t17.5 61.5q0 32 -18.5 48t-48.5 16t-54.5 -11.5t-50.5 -31.5l-35 46q65 55 141 55q64 0 100.5 -32t36.5 -86q0 -22 -6 -41.5t-18.5 -39.5t-33 -42.5t-138.5 -133.5h195v-62z" />
    <glyph glyph-name="uni00B3" unicode="&#xb3;" horiz-adv-x="350" 
d="M308 613q0 -74 -74 -102q87 -21 87 -102q0 -62 -45 -96.5t-128 -34.5q-74 0 -131 28v63q69 -34 132 -34q100 0 100 76q0 69 -110 69h-57v55h57q50 0 73.5 19t23.5 51q0 29 -19 45t-51 16q-51 0 -111 -38l-36 46q36 27 71 38t75 11q66 0 104.5 -29.5t38.5 -80.5z" />
    <glyph glyph-name="acute" unicode="&#xb4;" horiz-adv-x="580" 
d="M189 618q19 23 47.5 66.5t47.5 81.5h106v-10q-21 -31 -66.5 -78.5t-76.5 -71.5h-58v12z" />
    <glyph glyph-name="mu" unicode="&#xb5;" horiz-adv-x="623" 
d="M173 190q0 -127 120 -127q83 0 120 45.5t37 148.5v279h88v-536h-71l-14 72h-5q-53 -82 -161 -82q-71 0 -115 45h-4q5 -36 5 -119v-156h-88v776h88v-346z" />
    <glyph glyph-name="paragraph" unicode="&#xb6;" horiz-adv-x="654" 
d="M549 -127h-58v831h-102v-831h-58v400q-30 -9 -71 -9q-105 0 -155 61t-50 184q0 127 53.5 189t166.5 62h274v-887z" />
    <glyph glyph-name="periodcentered" unicode="&#xb7;" horiz-adv-x="268" 
d="M72 353q0 32 16 50t45 18q30 0 46.5 -18.5t16.5 -49.5t-16.5 -49.5t-46.5 -18.5q-29 0 -45 18t-16 50z" />
    <glyph glyph-name="cedilla" unicode="&#xb8;" horiz-adv-x="225" 
d="M212 -139q0 -48 -37 -74.5t-111 -26.5q-32 0 -50 5v55q18 -5 53 -5q37 0 55.5 9.5t18.5 34.5q0 43 -91 55l43 86h58l-26 -53q87 -19 87 -86z" />
    <glyph glyph-name="uni00B9" unicode="&#xb9;" horiz-adv-x="350" 
d="M167 714h73v-428h-71v276q0 33 4 89q-15 -14 -26.5 -23t-74.5 -55l-35 49z" />
    <glyph glyph-name="ordmasculine" unicode="&#xba;" horiz-adv-x="375" 
d="M345 553q0 -80 -42 -125t-116 -45q-71 0 -113 45t-42 125q0 81 41 125t116 44q73 0 114.5 -44.5t41.5 -124.5zM95 553q0 -59 21.5 -88t71.5 -29q49 0 71 29t22 88t-22 87.5t-71 28.5t-71 -28.5t-22 -87.5z" />
    <glyph glyph-name="guillemotright" unicode="&#xbb;" horiz-adv-x="508" 
d="M469 257l-170 -201l-62 37l140 171l-140 171l62 36l170 -201v-13zM270 257l-169 -201l-62 37l140 171l-140 171l62 36l169 -201v-13z" />
    <glyph glyph-name="onequarter" unicode="&#xbc;" horiz-adv-x="790" 
d="M736 96h-61v-96h-75v96h-195v52l197 283h73v-275h61v-60zM600 156v93q0 52 3 101q-4 -9 -48 -77l-80 -117h125zM637 714l-436 -714h-75l436 714h75zM165 714h73v-428h-71v276q0 33 4 89q-15 -14 -26.5 -23t-74.5 -55l-35 49z" />
    <glyph glyph-name="onehalf" unicode="&#xbd;" horiz-adv-x="790" 
d="M607 714l-436 -714h-75l436 714h75zM152 714h73v-428h-71v276q0 33 4 89q-15 -14 -26.5 -23t-74.5 -55l-35 49zM727 0h-282v54l115 112q62 60 79.5 87.5t17.5 61.5q0 32 -18.5 48t-48.5 16t-54.5 -11.5t-50.5 -31.5l-35 46q65 55 141 55q64 0 100.5 -32t36.5 -86
q0 -22 -6 -41.5t-18.5 -39.5t-33 -42.5t-138.5 -133.5h195v-62z" />
    <glyph glyph-name="threequarters" unicode="&#xbe;" horiz-adv-x="790" 
d="M772 96h-61v-96h-75v96h-195v52l197 283h73v-275h61v-60zM636 156v93q0 52 3 101q-4 -9 -48 -77l-80 -117h125zM681 714l-436 -714h-75l436 714h75zM307 613q0 -74 -74 -102q87 -21 87 -102q0 -62 -45 -96.5t-128 -34.5q-74 0 -131 28v63q69 -34 132 -34q100 0 100 76
q0 69 -110 69h-57v55h57q50 0 73.5 19t23.5 51q0 29 -19 45t-51 16q-51 0 -111 -38l-36 46q36 27 71 38t75 11q66 0 104.5 -29.5t38.5 -80.5z" />
    <glyph glyph-name="questiondown" unicode="&#xbf;" horiz-adv-x="434" 
d="M294 330v-26q0 -57 -18 -93.5t-67 -77.5q-65 -54 -82 -81t-17 -68q0 -47 31 -73.5t89 -26.5q78 0 161 43l31 -71q-97 -48 -195 -48q-95 0 -148.5 45.5t-53.5 128.5q0 36 9.5 63.5t29.5 52.5t79 75q50 44 65 71t15 70v16h71zM317 478q0 -67 -62 -67q-30 0 -45.5 17.5
t-15.5 49.5q0 36 17.5 52t43.5 16t44 -16t18 -52z" />
    <glyph glyph-name="Agrave" unicode="&#xc0;" horiz-adv-x="585" 
d="M625 632q-5 10 5 18q12 5 17 -6v-1q16 -40 22 -59q2 -7 -2.5 -11.5t-10.5 -3.5t-8 7q-6 19 -23 56zM565 534q21 -7 21 -32q0 -22 -16 -56q-13 -29 -48 -94h6q5 0 9.5 -3.5t4.5 -9.5q0 -13 -13 -14h-2q-7 1 -19 2q-107 -185 -153 -295q-3 -8 -10 -8.5t-12 5t-2 12.5
q34 85 139 269q7 12 11 18h-2q-19 1 -77.5 4t-89.5 6q-87 -82 -164 -168q-18 -20 -32 -38q-5 -6 -12 -4t-9.5 8t1.5 12q5 5 15 18t17 21q67 79 145 153q-1 0 -4.5 0.5t-4.5 0.5q-144 8 -181 8q-41 0 -54 -6h-1q4 -12 -8 -17t-18 6v2t-0.5 1.5l-0.5 0.5q-1 4 -1 6q0 11 6 18
t19.5 9.5t23 3t26.5 0.5h8q49 -1 182 -11l30 -2q86 77 138 116q58 43 96 55q15 7 33 3h1h1h1zM27 345zM547 455q12 32 14 46q0 5 -2 6v1q-8 2 -21 -2q-37 -13 -89 -52q-61 -45 -115 -96l28 -2q82 -5 118 -5h14q2 4 7 13q29 54 46 91z" />
    <glyph glyph-name="Aacute" unicode="&#xc1;" horiz-adv-x="585" 
d="M666 607l-35 -17q-14 -7 -38 -14q-11 -2 -14 9q0 10 8 13q22 6 67 31q7 4 13 -0.5t6 -10.5t-7 -11zM565 534q21 -7 21 -32q0 -22 -16 -56q-13 -29 -48 -94h6q5 0 9.5 -3.5t4.5 -9.5q0 -13 -13 -14h-2q-7 1 -19 2q-107 -185 -153 -295q-3 -8 -10 -8.5t-12 5t-2 12.5
q34 85 139 269q7 12 11 18h-2q-19 1 -77.5 4t-89.5 6q-87 -82 -164 -168q-18 -20 -32 -38q-5 -6 -12 -4t-9.5 8t1.5 12q5 5 15 18t17 21q67 79 145 153q-1 0 -4.5 0.5t-4.5 0.5q-144 8 -181 8q-41 0 -54 -6h-1q4 -12 -8 -17t-18 6v2t-0.5 1.5l-0.5 0.5q-1 4 -1 6q0 11 6 18
t19.5 9.5t23 3t26.5 0.5h8q49 -1 182 -11l30 -2q86 77 138 116q58 43 96 55q15 7 33 3h1h1h1zM27 345zM547 455q12 32 14 46q0 5 -2 6v1q-8 2 -21 -2q-37 -13 -89 -52q-61 -45 -115 -96l28 -2q82 -5 118 -5h14q2 4 7 13q29 54 46 91z" />
    <glyph glyph-name="Acircumflex" unicode="&#xc2;" horiz-adv-x="585" 
d="M644 592q-1 5 -0.5 14.5t0.5 12.5l1 2q-5 -4 -10.5 -8t-12 -8.5t-10.5 -8.5q-2 0 -6 -3t-7 -4t-7 -2.5t-7.5 0.5t-5.5 6q-4 5 -0.5 10t6.5 7t9 5.5t8 5.5q9 5 34 25l7 7q4 3 8 7q7 7 14.5 2.5t6.5 -12.5q0 -3 -1 -8t-2 -8l-1 -17q-2 -11 -2 -16v-7v-2v-1q0 -2 1 -2v-5
q-1 -9 -9.5 -10t-11.5 6q-3 6 -2 12zM565 534q21 -7 21 -32q0 -22 -16 -56q-13 -29 -48 -94h6q5 0 9.5 -3.5t4.5 -9.5q0 -13 -13 -14h-2q-7 1 -19 2q-107 -185 -153 -295q-3 -8 -10 -8.5t-12 5t-2 12.5q34 85 139 269q7 12 11 18h-2q-19 1 -77.5 4t-89.5 6
q-87 -82 -164 -168q-18 -20 -32 -38q-5 -6 -12 -4t-9.5 8t1.5 12q5 5 15 18t17 21q67 79 145 153q-1 0 -4.5 0.5t-4.5 0.5q-144 8 -181 8q-41 0 -54 -6h-1q4 -12 -8 -17t-18 6v2t-0.5 1.5l-0.5 0.5q-1 4 -1 6q0 11 6 18t19.5 9.5t23 3t26.5 0.5h8q49 -1 182 -11l30 -2
q86 77 138 116q58 43 96 55q15 7 33 3h1h1h1zM27 345zM547 455q12 32 14 46q0 5 -2 6v1q-8 2 -21 -2q-37 -13 -89 -52q-61 -45 -115 -96l28 -2q82 -5 118 -5h14q2 4 7 13q29 54 46 91z" />
    <glyph glyph-name="Atilde" unicode="&#xc3;" horiz-adv-x="585" 
d="M684 616q5 6 12 4t9.5 -8t-2.5 -12q-12 -14 -29 -14q-16 0 -43 14q-22 10 -30.5 11t-15.5 -9q-5 -7 -12 -6.5t-10.5 6.5t0.5 13q10 16 26 19.5t26 -0.5t27 -12q19 -9 27.5 -10.5t14.5 4.5zM565 534q21 -7 21 -32q0 -22 -16 -56q-13 -29 -48 -94h6q5 0 9.5 -3.5t4.5 -9.5
q0 -13 -13 -14h-2q-7 1 -19 2q-107 -185 -153 -295q-3 -8 -10 -8.5t-12 5t-2 12.5q34 85 139 269q7 12 11 18h-2q-19 1 -77.5 4t-89.5 6q-87 -82 -164 -168q-18 -20 -32 -38q-5 -6 -12 -4t-9.5 8t1.5 12q5 5 15 18t17 21q67 79 145 153q-1 0 -4.5 0.5t-4.5 0.5
q-144 8 -181 8q-41 0 -54 -6h-1q4 -12 -8 -17t-18 6v2t-0.5 1.5l-0.5 0.5q-1 4 -1 6q0 11 6 18t19.5 9.5t23 3t26.5 0.5h8q49 -1 182 -11l30 -2q86 77 138 116q58 43 96 55q15 7 33 3h1h1h1zM27 345zM547 455q12 32 14 46q0 5 -2 6v1q-8 2 -21 -2q-37 -13 -89 -52
q-61 -45 -115 -96l28 -2q82 -5 118 -5h14q2 4 7 13q29 54 46 91z" />
    <glyph glyph-name="Adieresis" unicode="&#xc4;" horiz-adv-x="585" 
d="M602 606v-3q8 -5 4.5 -13.5t-12.5 -8.5h-2q-12 3 -17.5 11.5t-1 16.5t15.5 9q12 0 13 -12zM681 603q0 -3 -1 -7q2 -6 -2.5 -11t-9.5 -5h-3q-17 4 -17 18q0 7 6 11.5t14 5.5q12 0 13 -12zM565 534q21 -7 21 -32q0 -22 -16 -56q-13 -29 -48 -94h6q5 0 9.5 -3.5t4.5 -9.5
q0 -13 -13 -14h-2q-7 1 -19 2q-107 -185 -153 -295q-3 -8 -10 -8.5t-12 5t-2 12.5q34 85 139 269q7 12 11 18h-2q-19 1 -77.5 4t-89.5 6q-87 -82 -164 -168q-18 -20 -32 -38q-5 -6 -12 -4t-9.5 8t1.5 12q5 5 15 18t17 21q67 79 145 153q-1 0 -4.5 0.5t-4.5 0.5
q-144 8 -181 8q-41 0 -54 -6h-1q4 -12 -8 -17t-18 6v2t-0.5 1.5l-0.5 0.5q-1 4 -1 6q0 11 6 18t19.5 9.5t23 3t26.5 0.5h8q49 -1 182 -11l30 -2q86 77 138 116q58 43 96 55q15 7 33 3h1h1h1zM27 345zM547 455q12 32 14 46q0 5 -2 6v1q-8 2 -21 -2q-37 -13 -89 -52
q-61 -45 -115 -96l28 -2q82 -5 118 -5h14q2 4 7 13q29 54 46 91z" />
    <glyph glyph-name="Aring" unicode="&#xc5;" horiz-adv-x="585" 
d="M610 595q0 -1 5 -1.5t7 -0.5q4 0 8 3q19 8 34.5 28.5t11.5 40.5q-5 10 -8 10h-1h-1q-6 4 -6.5 10.5t5.5 11t13 0.5q4 0 8 -5.5t7 -11.5t4 -10q6 -27 -19 -61q-32 -40 -69 -36q-6 1 -11 4.5t-8 9t-3 12.5q1 15 9.5 29t20 22.5t23.5 12.5q4 2 5 2h2q8 2 12.5 -3.5
t2.5 -12.5t-9 -8h-1l-2 -1h-1.5h-1.5q0 -1 -1 -1t-2 -1q-3 -1 -7.5 -3.5t-9.5 -7t-9 -9t-6.5 -10t-2.5 -10.5zM565 534q21 -7 21 -32q0 -22 -16 -56q-13 -29 -48 -94h6q5 0 9.5 -3.5t4.5 -9.5q0 -13 -13 -14h-2q-7 1 -19 2q-107 -185 -153 -295q-3 -8 -10 -8.5t-12 5
t-2 12.5q34 85 139 269q7 12 11 18h-2q-19 1 -77.5 4t-89.5 6q-87 -82 -164 -168q-18 -20 -32 -38q-5 -6 -12 -4t-9.5 8t1.5 12q5 5 15 18t17 21q67 79 145 153q-1 0 -4.5 0.5t-4.5 0.5q-144 8 -181 8q-41 0 -54 -6h-1q4 -12 -8 -17t-18 6v2t-0.5 1.5l-0.5 0.5q-1 4 -1 6
q0 11 6 18t19.5 9.5t23 3t26.5 0.5h8q49 -1 182 -11l30 -2q86 77 138 116q58 43 96 55q15 7 33 3h1h1h1zM27 345zM547 455q12 32 14 46q0 5 -2 6v1q-8 2 -21 -2q-37 -13 -89 -52q-61 -45 -115 -96l28 -2q82 -5 118 -5h14q2 4 7 13q29 54 46 91z" />
    <glyph glyph-name="AE" unicode="&#xc6;" horiz-adv-x="880" 
d="M821 0h-372v221h-250l-107 -221h-93l339 714h483v-79h-282v-223h263v-78h-263v-255h282v-79zM234 301h215v333h-58z" />
    <glyph glyph-name="Ccedilla" unicode="&#xc7;" horiz-adv-x="468" 
d="M-31 116q2 7 8.5 7t13 -3t13.5 1q1 0 3 6q0 2 1 9t1.5 10l1.5 9t3 10l4 8q-16 12 -17 34t6 39t17 33q30 47 93 106q107 99 231 146q70 27 125 29q63 0 74 -29q2 -6 2 -11.5t-1.5 -10t-3 -8.5t-4.5 -8t-5.5 -6.5t-5.5 -6.5t-5 -6q-23 -28 -65 -55q-44 -29 -75 -26
q-10 1 -17.5 8t-7.5 19q0 1 0.5 2.5l0.5 1.5q3 15 20 38q8 10 18 1q9 -9 1 -17q-14 -15 -16 -28l1 -1l4 -1q21 -5 60 21q28 19 51 42l9 9q30 30 14 41q-15 11 -49 9q-53 -2 -118 -27q-121 -47 -224 -143q-60 -56 -88 -101q-38 -57 -10 -77q31 -25 143 1q146 35 311 133
q6 5 12 1t6.5 -10.5t-6.5 -11.5q-78 -50 -180 -91.5t-199 -53.5q-19 -2 -40.5 -1.5t-38.5 5.5q-7 -7 -11 -32t-16 -30q-7 -2 -18.5 -2t-20.5 4.5t-6 13.5z" />
    <glyph glyph-name="Egrave" unicode="&#xc8;" horiz-adv-x="443" 
d="M495 632q-5 10 5 18q12 5 17 -6v-1q16 -40 22 -59q2 -7 -2.5 -11.5t-10.5 -3.5t-8 7q-6 19 -23 56zM233 391q-5 0 -11.5 2.5t-11 7.5t-4.5 11l0.5 2l0.5 2q2 11 19 25q28 22 113 61q58 23 91 29q20 3 32 3q11 0 18 -2q11 0 17 -8t6 -20q-14 -42 -32 -28q-5 4 -5 8
t2.5 7.5t5.5 7.5t3 8h-1v1h-1q-1 0 -1.5 0.5t-1.5 0.5q-4 1 -12 1q-20 0 -58 -10q-56 -16 -112 -46l-26 -15q-26 -14 -33 -24q7 -3 19 -3q20 -1 60 4q50 6 60 10q12 0 14.5 -10.5t-8.5 -14.5q-124 -42 -215 -101q-90 -58 -126 -119q-18 -30 -5 -35q17 -5 52 4q24 5 56 18
q162 59 324 157q4 2 8 1.5t6.5 -3t3.5 -6t0 -7.5t-5 -6q-164 -101 -328 -160q-66 -24 -107 -24q-12 0 -21.5 4.5t-15 14t-2.5 22.5q3 15 13 32q40 67 134 129q61 39 131 69q-19 -2 -29 -1q-11 0 -17 1zM478 506z" />
    <glyph glyph-name="Eacute" unicode="&#xc9;" horiz-adv-x="443" 
d="M556 607l-35 -17q-14 -7 -38 -14q-11 -2 -14 9q0 10 8 13q22 6 67 31q7 4 13 -0.5t6 -10.5t-7 -11zM233 391q-5 0 -11.5 2.5t-11 7.5t-4.5 11l0.5 2l0.5 2q2 11 19 25q28 22 113 61q58 23 91 29q20 3 32 3q11 0 18 -2q11 0 17 -8t6 -20q-14 -42 -32 -28q-5 4 -5 8
t2.5 7.5t5.5 7.5t3 8h-1v1h-1q-1 0 -1.5 0.5t-1.5 0.5q-4 1 -12 1q-20 0 -58 -10q-56 -16 -112 -46l-26 -15q-26 -14 -33 -24q7 -3 19 -3q20 -1 60 4q50 6 60 10q12 0 14.5 -10.5t-8.5 -14.5q-124 -42 -215 -101q-90 -58 -126 -119q-18 -30 -5 -35q17 -5 52 4q24 5 56 18
q162 59 324 157q4 2 8 1.5t6.5 -3t3.5 -6t0 -7.5t-5 -6q-164 -101 -328 -160q-66 -24 -107 -24q-12 0 -21.5 4.5t-15 14t-2.5 22.5q3 15 13 32q40 67 134 129q61 39 131 69q-19 -2 -29 -1q-11 0 -17 1zM478 506z" />
    <glyph glyph-name="Ecircumflex" unicode="&#xca;" horiz-adv-x="443" 
d="M544 592q-1 5 -0.5 14.5t0.5 12.5l1 2q-6 -5 -18 -13.5t-15 -11.5q-2 0 -6 -3t-7 -4t-7 -2.5t-7.5 0.5t-5.5 6q-3 7 0 12t12.5 10t10.5 6q9 5 34 25l7 7q4 3 8 7q7 7 14.5 2.5t6.5 -12.5q0 -3 -1 -8t-2 -8l-1 -17q-2 -11 -2 -16v-7v-2v-1q0 -2 1 -2v-5q-1 -9 -9.5 -10
t-11.5 6q-3 6 -2 12zM233 391q-5 0 -11.5 2.5t-11 7.5t-4.5 11l0.5 2l0.5 2q2 11 19 25q28 22 113 61q58 23 91 29q20 3 32 3q11 0 18 -2q11 0 17 -8t6 -20q-14 -42 -32 -28q-5 4 -5 8t2.5 7.5t5.5 7.5t3 8h-1v1h-1q-1 0 -1.5 0.5t-1.5 0.5q-4 1 -12 1q-20 0 -58 -10
q-56 -16 -112 -46l-26 -15q-26 -14 -33 -24q7 -3 19 -3q20 -1 60 4q50 6 60 10q12 0 14.5 -10.5t-8.5 -14.5q-124 -42 -215 -101q-90 -58 -126 -119q-18 -30 -5 -35q17 -5 52 4q24 5 56 18q162 59 324 157q4 2 8 1.5t6.5 -3t3.5 -6t0 -7.5t-5 -6q-164 -101 -328 -160
q-66 -24 -107 -24q-12 0 -21.5 4.5t-15 14t-2.5 22.5q3 15 13 32q40 67 134 129q61 39 131 69q-19 -2 -29 -1q-11 0 -17 1zM478 506z" />
    <glyph glyph-name="Edieresis" unicode="&#xcb;" horiz-adv-x="443" 
d="M482 606v-3q8 -5 4.5 -13.5t-12.5 -8.5h-2q-12 3 -17.5 11.5t-1 16.5t15.5 9q12 0 13 -12zM561 603q0 -3 -1 -7q1 -4 -0.5 -8t-5 -6t-6.5 -2h-3q-17 4 -17 18q0 7 6 11.5t14 5.5q12 0 13 -12zM233 391q-5 0 -11.5 2.5t-11 7.5t-4.5 11l0.5 2l0.5 2q2 11 19 25
q28 22 113 61q58 23 91 29q20 3 32 3q11 0 18 -2q11 0 17 -8t6 -20q-14 -42 -32 -28q-5 4 -5 8t2.5 7.5t5.5 7.5t3 8h-1v1h-1q-1 0 -1.5 0.5t-1.5 0.5q-4 1 -12 1q-20 0 -58 -10q-56 -16 -112 -46l-26 -15q-26 -14 -33 -24q7 -3 19 -3q20 -1 60 4q50 6 60 10
q12 0 14.5 -10.5t-8.5 -14.5q-124 -42 -215 -101q-90 -58 -126 -119q-18 -30 -5 -35q17 -5 52 4q24 5 56 18q162 59 324 157q4 2 8 1.5t6.5 -3t3.5 -6t0 -7.5t-5 -6q-164 -101 -328 -160q-66 -24 -107 -24q-12 0 -21.5 4.5t-15 14t-2.5 22.5q3 15 13 32q40 67 134 129
q61 39 131 69q-19 -2 -29 -1q-11 0 -17 1zM478 506z" />
    <glyph glyph-name="Igrave" unicode="&#xcc;" horiz-adv-x="585" 
d="M685 632q-5 10 5 18q12 5 17 -6v-1q16 -40 22 -59q2 -7 -2.5 -11.5t-10.5 -3.5t-8 7q-6 19 -23 56zM649 526q11 0 10 -14v-1l-1 -1q-1 -1 -1 -2q-5 -9 -22.5 -18.5t-21.5 -16.5q-23 -26 -45 -66.5t-31.5 -61t-32.5 -76.5q-39 -87 -63 -118q-26 -34 -45 -38q-10 -1 -13 8
q-7 10 13 21q2 1 3 1q9 7 23 23q9 11 19 27.5t21.5 40.5t18.5 39.5t21 46t17 38.5q22 49 46 87q1 2 5 7.5t6 7.5q-164 -71 -303 -110q-98 -27 -159 -33q-77 -7 -108 27q-8 14 2 20q9 6 18 -4q0 -1 2 -2l0.5 -1l0.5 -1q29 -32 155 -8q69 12 177 49q149 51 244 100q1 1 11 9
q12 11 24 17l1 1l4 2h2h2z" />
    <glyph glyph-name="Iacute" unicode="&#xcd;" horiz-adv-x="585" 
d="M726 607l-35 -17q-14 -7 -38 -14q-11 -2 -14 9q0 10 8 13q22 6 67 31q7 4 13 -0.5t6 -10.5t-7 -11zM649 526q11 0 10 -14v-1l-1 -1q-1 -1 -1 -2q-5 -9 -22.5 -18.5t-21.5 -16.5q-23 -26 -45 -66.5t-31.5 -61t-32.5 -76.5q-39 -87 -63 -118q-26 -34 -45 -38q-10 -1 -13 8
q-7 10 13 21q2 1 3 1q9 7 23 23q9 11 19 27.5t21.5 40.5t18.5 39.5t21 46t17 38.5q22 49 46 87q1 2 5 7.5t6 7.5q-164 -71 -303 -110q-98 -27 -159 -33q-77 -7 -108 27q-8 14 2 20q9 6 18 -4q0 -1 2 -2l0.5 -1l0.5 -1q29 -32 155 -8q69 12 177 49q149 51 244 100q1 1 11 9
q12 11 24 17l1 1l4 2h2h2z" />
    <glyph glyph-name="Icircumflex" unicode="&#xce;" horiz-adv-x="585" 
d="M704 582q-1 5 -0.5 14.5t0.5 12.5l1 2q-4 -3 -8.5 -6.5t-8 -6t-8.5 -6t-8 -6.5q-2 0 -6 -3t-7 -4t-7 -2.5t-7.5 0.5t-5.5 6q-4 5 -0.5 10t6.5 7t9 5.5t8 5.5q9 5 34 25l7 7q4 3 8 7q7 7 14.5 2.5t6.5 -12.5q0 -3 -1 -8t-2 -8l-1 -17q-2 -11 -2 -16v-7v-2v-1q0 -2 1 -2v-5
q-1 -9 -9.5 -10t-11.5 6q-3 6 -2 12zM649 526q11 0 10 -14v-1l-1 -1q-1 -1 -1 -2q-5 -9 -22.5 -18.5t-21.5 -16.5q-23 -26 -45 -66.5t-31.5 -61t-32.5 -76.5q-39 -87 -63 -118q-26 -34 -45 -38q-10 -1 -13 8q-7 10 13 21q2 1 3 1q9 7 23 23q9 11 19 27.5t21.5 40.5
t18.5 39.5t21 46t17 38.5q22 49 46 87q1 2 5 7.5t6 7.5q-164 -71 -303 -110q-98 -27 -159 -33q-77 -7 -108 27q-8 14 2 20q9 6 18 -4q0 -1 2 -2l0.5 -1l0.5 -1q29 -32 155 -8q69 12 177 49q149 51 244 100q1 1 11 9q12 11 24 17l1 1l4 2h2h2z" />
    <glyph glyph-name="Idieresis" unicode="&#xcf;" horiz-adv-x="585" 
d="M662 606v-3q8 -5 4.5 -13.5t-12.5 -8.5h-2q-12 3 -17.5 11.5t-1 16.5t15.5 9q12 0 13 -12zM741 603q0 -3 -1 -7q2 -6 -2.5 -11t-9.5 -5h-3q-17 4 -17 18q0 7 6 11.5t14 5.5q12 0 13 -12zM649 526q11 0 10 -14v-1l-1 -1q-1 -1 -1 -2q-5 -9 -22.5 -18.5t-21.5 -16.5
q-23 -26 -45 -66.5t-31.5 -61t-32.5 -76.5q-39 -87 -63 -118q-26 -34 -45 -38q-10 -1 -13 8q-7 10 13 21q2 1 3 1q9 7 23 23q9 11 19 27.5t21.5 40.5t18.5 39.5t21 46t17 38.5q22 49 46 87q1 2 5 7.5t6 7.5q-164 -71 -303 -110q-98 -27 -159 -33q-77 -7 -108 27q-8 14 2 20
q9 6 18 -4q0 -1 2 -2l0.5 -1l0.5 -1q29 -32 155 -8q69 12 177 49q149 51 244 100q1 1 11 9q12 11 24 17l1 1l4 2h2h2z" />
    <glyph glyph-name="Eth" unicode="&#xd0;" horiz-adv-x="935" 
d="M430 345q12 0 25 -1q7 13 15 28q-19 -13 -40 -27zM424 272q-6 -6 -27 -26l-9 -11q-21 -21 -30 -46q-1 -8 0 -10v0q13 0 28 19q12 12 21 34l6 13q3 9 11 27zM898 534q8 1 12 1q14 1 26.5 -2.5t21.5 -11.5t12 -19q7 -30 -13 -64q-8 -18 -29 -49q-83 -114 -227 -204
q-146 -91 -278 -103q-64 -6 -113 6q-8 1 -10 8t2.5 12.5t11.5 3.5q2 0 7 -1q2 0 9 -1q3 0 12 -1q93 -10 199 28q160 58 296 190q70 68 96 123q22 48 0 57q-8 3 -23 3q-1 0 -3 -0.5t-4 -0.5h-6l-14 -3q-47 -9 -57 -12l-13 -3l-14 -4q-18 -6 -55 -19q-123 -46 -235 -126
q19 -1 34.5 -1.5t23.5 -1.5q7 0 9 -6t-1 -11t-10 -5q-11 1 -33.5 1.5t-52.5 1.5q-4 -3 -9 -7t-9 -7q-6 -14 -17 -40t-13 -29l-5 -13q-2 -3 -6 -10.5t-6 -10.5t-5.5 -9t-6.5 -9.5t-7.5 -8t-9 -8t-9.5 -6.5q-8 -4 -20 -4q-11 1 -16.5 8t-4.5 16t5 19.5t10 20t11 16.5t9 11
l10 11q2 3 6.5 7t8 8t6.5 7l23 20q6 6 19 16q0 1 0.5 1.5t0.5 1.5q-13 0 -26 0.5t-25 0.5q-84 -52 -155 -86q-7 -4 -20.5 -9.5t-20.5 -8.5t-8 -4l-15 -5q-21 -8 -46.5 -12.5t-53.5 -2.5t-46 13q-20 11 -27 24q-3 7 1.5 13t11 5.5t10.5 -7.5l2 -3q29 -29 86 -20q17 1 46 10.5
t32 9.5q6 3 12.5 6t14.5 6.5t13 5.5q29 14 59.5 30.5t62.5 35.5h-34q-17 0 -28 -1q-12 0 -13 12q0 12 12 13h8q5 1 21 1q20 0 73 -2q55 35 114 76q29 33 56 44q2 2 8 2q4 4 10 -8q3 -7 0 -7q-2 -6 -11 -12q-45 -33 -48 -36q-22 -25 -37 -56q17 13 38 28q131 87 243 124
q10 3 29 10l14 4l14 4q18 4 59 12l14 3h4z" />
    <glyph glyph-name="Ntilde" unicode="&#xd1;" horiz-adv-x="662" 
d="M684 606q5 6 12 4t9.5 -8t-2.5 -12q-12 -14 -29 -14q-16 0 -43 14q-22 10 -30.5 11t-15.5 -9q-5 -7 -12 -6.5t-10.5 6.5t0.5 13q10 16 26 19.5t26 -0.5t27 -12q19 -9 27.5 -10.5t14.5 4.5zM611 486q9 -5 14 -8t9.5 -10.5t3.5 -17.5q1 -7 1 -20q-2 -28 -16 -68
q-13 -34 -41.5 -96t-39.5 -92q-19 -51 -7 -58t3 -17q-11 -12 -22 1q-8 9 -8.5 24.5t2.5 27t11 30.5q10 28 39 91t43 98q0 2 1 5q25 64 7 82l-5 3h-2l-1 1h-1q-36 6 -84 -14q-61 -25 -132 -82l-3.5 -3.5l-3.5 -3.5q-67 -127 -81 -150q-28 -42 -49 -51q-5 -2 -8 -2h-5
q-17 5 -17 22q0 6 0.5 11.5t2 10.5t3.5 9l4.5 9t4.5 8.5t5 8.5t4 8l6 9l6 10q36 52 101 107q47 92 55 109q-42 -35 -129 -83q-114 -63 -191 -82q-35 -9 -60 -7q-6 0 -14 3t-9 3q-7 3 -8 10t4.5 11.5t12.5 2.5l1 -1t5 -3l2 -1h1.5h1.5q5 -2 6 -2t4 -0.5t5 -0.5h6q2 1 6 1
q11 0 31 5q73 17 185 80q109 62 152 105l2.5 3t4 4.5t4.5 3t5 1.5q3 0 6 -1.5t5.5 -4.5t2.5 -6v-5q-2 -10 -19 -47q-11 -25 -30 -60q54 40 109 64q43 18 77 18q2 0 5 -0.5t5 -0.5t5 -0.5t5 -1.5h1zM244 178zM255 192q19 18 40.5 61.5t31.5 57.5q-48 -48 -72 -96
q-9 -20 -11 -31q5 3 11 8z" />
    <glyph glyph-name="Ograve" unicode="&#xd2;" horiz-adv-x="530" 
d="M545 632q-5 10 5 18q12 5 17 -6v-1q16 -40 22 -59q2 -7 -2.5 -11.5t-10.5 -3.5t-8 7q-6 19 -23 56zM409 516q42 14 70 16h11h7h6q3 0 6 -1.5t5 -4.5t2 -6q0 -5 -3.5 -9t-8.5 -4h-1q-2 1 -5 1h-16q-16 -2 -32 -5q68 -31 57 -103q-9 -58 -66 -128q-66 -78 -145 -118
q-48 -23 -89 -26q-29 -1 -51 10.5t-27 35.5q-10 41 14 90q-12 -2 -19 -2q-41 0 -73.5 16.5t-44.5 45.5q-11 22 -4.5 45t17 38t25.5 29q58 54 197 76q48 9 90 9q47 0 78 -5zM123 286q15 0 33 3q25 45 58.5 84.5t73 71t83.5 53.5q-60 3 -127 -7q-98 -17 -155 -50
q-32 -19 -54 -47t-8 -61q10 -23 36.5 -35.5t59.5 -11.5zM179 295q56 17 106 53h1q10 7 17 -4t-3 -17q-64 -43 -122 -58q-2 0 -4 -0.5t-5 -1t-5 -1.5q-1 -3 -5.5 -14.5t-6.5 -17t-5.5 -18t-2.5 -19l3 -19.5q7 -25 36.5 -29t56 4t47.5 19q79 42 138 113q34 41 49 76
q21 52 9 83q-14 34 -72 48q-71 -25 -131 -77t-101 -120z" />
    <glyph glyph-name="Oacute" unicode="&#xd3;" horiz-adv-x="530" 
d="M556 607l-35 -17q-14 -7 -38 -14q-11 -2 -14 9q0 10 8 13q22 6 67 31q7 4 13 -0.5t6 -10.5t-7 -11zM409 516q42 14 70 16h11h7h6q3 0 6 -1.5t5 -4.5t2 -6q0 -5 -3.5 -9t-8.5 -4h-1q-2 1 -5 1h-16q-16 -2 -32 -5q68 -31 57 -103q-9 -58 -66 -128q-66 -78 -145 -118
q-48 -23 -89 -26q-29 -1 -51 10.5t-27 35.5q-10 41 14 90q-12 -2 -19 -2q-41 0 -73.5 16.5t-44.5 45.5q-11 22 -4.5 45t17 38t25.5 29q58 54 197 76q48 9 90 9q47 0 78 -5zM123 286q15 0 33 3q25 45 58.5 84.5t73 71t83.5 53.5q-60 3 -127 -7q-98 -17 -155 -50
q-32 -19 -54 -47t-8 -61q10 -23 36.5 -35.5t59.5 -11.5zM179 295q56 17 106 53h1q10 7 17 -4t-3 -17q-64 -43 -122 -58q-2 0 -4 -0.5t-5 -1t-5 -1.5q-1 -3 -5.5 -14.5t-6.5 -17t-5.5 -18t-2.5 -19l3 -19.5q7 -25 36.5 -29t56 4t47.5 19q79 42 138 113q34 41 49 76
q21 52 9 83q-14 34 -72 48q-71 -25 -131 -77t-101 -120z" />
    <glyph glyph-name="Ocircumflex" unicode="&#xd4;" horiz-adv-x="530" 
d="M544 582q-1 5 -0.5 14.5t0.5 12.5l1 2q-6 -5 -18 -13.5t-15 -11.5q-2 0 -6 -3t-7 -4t-7 -2.5t-7.5 0.5t-5.5 6q-3 7 0 12t12.5 10t10.5 6q9 5 34 25l7 7q4 3 8 7q7 7 14.5 2.5t6.5 -12.5q0 -3 -1 -8t-2 -8l-1 -17q-2 -11 -2 -16v-7v-2v-1q0 -2 1 -2v-5q-1 -9 -9.5 -10
t-11.5 6q-3 6 -2 12zM409 516q42 14 70 16h11h7h6q3 0 6 -1.5t5 -4.5t2 -6q0 -5 -3.5 -9t-8.5 -4h-1q-2 1 -5 1h-16q-16 -2 -32 -5q68 -31 57 -103q-9 -58 -66 -128q-66 -78 -145 -118q-48 -23 -89 -26q-29 -1 -51 10.5t-27 35.5q-10 41 14 90q-12 -2 -19 -2
q-41 0 -73.5 16.5t-44.5 45.5q-11 22 -4.5 45t17 38t25.5 29q58 54 197 76q48 9 90 9q47 0 78 -5zM123 286q15 0 33 3q25 45 58.5 84.5t73 71t83.5 53.5q-60 3 -127 -7q-98 -17 -155 -50q-32 -19 -54 -47t-8 -61q10 -23 36.5 -35.5t59.5 -11.5zM179 295q56 17 106 53h1
q10 7 17 -4t-3 -17q-64 -43 -122 -58q-2 0 -4 -0.5t-5 -1t-5 -1.5q-1 -3 -5.5 -14.5t-6.5 -17t-5.5 -18t-2.5 -19l3 -19.5q7 -25 36.5 -29t56 4t47.5 19q79 42 138 113q34 41 49 76q21 52 9 83q-14 34 -72 48q-71 -25 -131 -77t-101 -120z" />
    <glyph glyph-name="Otilde" unicode="&#xd5;" horiz-adv-x="530" 
d="M614 616q5 6 12 4t9.5 -8t-2.5 -12q-12 -14 -29 -14q-16 0 -43 14q-22 10 -30.5 11t-15.5 -9q-5 -7 -12 -6.5t-10.5 6.5t0.5 13q10 16 26 19.5t26 -0.5t27 -12q19 -9 27.5 -10.5t14.5 4.5zM409 516q42 14 70 16h11h7h6q3 0 6 -1.5t5 -4.5t2 -6q0 -5 -3.5 -9t-8.5 -4h-1
q-2 1 -5 1h-16q-16 -2 -32 -5q68 -31 57 -103q-9 -58 -66 -128q-66 -78 -145 -118q-48 -23 -89 -26q-29 -1 -51 10.5t-27 35.5q-10 41 14 90q-12 -2 -19 -2q-41 0 -73.5 16.5t-44.5 45.5q-11 22 -4.5 45t17 38t25.5 29q58 54 197 76q48 9 90 9q47 0 78 -5zM123 286
q15 0 33 3q25 45 58.5 84.5t73 71t83.5 53.5q-60 3 -127 -7q-98 -17 -155 -50q-32 -19 -54 -47t-8 -61q10 -23 36.5 -35.5t59.5 -11.5zM179 295q56 17 106 53h1q10 7 17 -4t-3 -17q-64 -43 -122 -58q-2 0 -4 -0.5t-5 -1t-5 -1.5q-1 -3 -5.5 -14.5t-6.5 -17t-5.5 -18
t-2.5 -19l3 -19.5q7 -25 36.5 -29t56 4t47.5 19q79 42 138 113q34 41 49 76q21 52 9 83q-14 34 -72 48q-71 -25 -131 -77t-101 -120z" />
    <glyph glyph-name="Odieresis" unicode="&#xd6;" horiz-adv-x="530" 
d="M542 606v-3q8 -5 4.5 -13.5t-12.5 -8.5h-2q-12 3 -17.5 11.5t-1 16.5t15.5 9q12 0 13 -12zM621 603q0 -3 -1 -7q2 -6 -2.5 -11t-9.5 -5h-3q-17 4 -17 18q0 7 6 11.5t14 5.5q12 0 13 -12zM409 516q42 14 70 16h11h7h6q3 0 6 -1.5t5 -4.5t2 -6q0 -5 -3.5 -9t-8.5 -4h-1
q-2 1 -5 1h-16q-16 -2 -32 -5q68 -31 57 -103q-9 -58 -66 -128q-66 -78 -145 -118q-48 -23 -89 -26q-29 -1 -51 10.5t-27 35.5q-10 41 14 90q-12 -2 -19 -2q-41 0 -73.5 16.5t-44.5 45.5q-11 22 -4.5 45t17 38t25.5 29q58 54 197 76q48 9 90 9q47 0 78 -5zM123 286
q15 0 33 3q25 45 58.5 84.5t73 71t83.5 53.5q-60 3 -127 -7q-98 -17 -155 -50q-32 -19 -54 -47t-8 -61q10 -23 36.5 -35.5t59.5 -11.5zM179 295q56 17 106 53h1q10 7 17 -4t-3 -17q-64 -43 -122 -58q-2 0 -4 -0.5t-5 -1t-5 -1.5q-1 -3 -5.5 -14.5t-6.5 -17t-5.5 -18
t-2.5 -19l3 -19.5q7 -25 36.5 -29t56 4t47.5 19q79 42 138 113q34 41 49 76q21 52 9 83q-14 34 -72 48q-71 -25 -131 -77t-101 -120z" />
    <glyph glyph-name="multiply" unicode="&#xd7;" horiz-adv-x="550" 
d="M224 321l-155 156l51 51l155 -155l157 155l51 -50l-157 -157l156 -156l-50 -50l-157 155l-155 -154l-50 51zM221 622z" />
    <glyph glyph-name="Oslash" unicode="&#xd8;" horiz-adv-x="530" 
d="M409 516q42 14 70 16h11h7h6q3 0 6 -1.5t5 -4.5t2 -6q0 -5 -3.5 -9t-8.5 -4h-1q-2 1 -5 1h-16q-16 -2 -32 -5q68 -31 57 -103q-9 -58 -66 -128q-66 -78 -145 -118q-48 -23 -89 -26q-29 -1 -51 10.5t-27 35.5q-10 41 14 90q-12 -2 -19 -2q-41 0 -73.5 16.5t-44.5 45.5
q-11 22 -4.5 45t17 38t25.5 29q58 54 197 76q48 9 90 9q47 0 78 -5zM123 286q15 0 33 3q25 45 58.5 84.5t73 71t83.5 53.5q-60 3 -127 -7q-98 -17 -155 -50q-32 -19 -54 -47t-8 -61q10 -23 36.5 -35.5t59.5 -11.5zM179 295q56 17 106 53h1q10 7 17 -4t-3 -17
q-64 -43 -122 -58q-2 0 -4 -0.5t-5 -1t-5 -1.5q-1 -3 -5.5 -14.5t-6.5 -17t-5.5 -18t-2.5 -19l3 -19.5q7 -25 36.5 -29t56 4t47.5 19q79 42 138 113q34 41 49 76q21 52 9 83q-14 34 -72 48q-71 -25 -131 -77t-101 -120z" />
    <glyph glyph-name="Ugrave" unicode="&#xd9;" horiz-adv-x="665" 
d="M655 652q-5 10 5 18q12 5 17 -6v-1q16 -40 22 -59q2 -7 -2.5 -11.5t-10.5 -3.5t-8 7q-6 19 -23 56zM322 222l2 -3v-1h1q0 -4 2.5 -5.5t7 -1t9.5 1.5t10 2.5t8 3l5 2.5q19 9 41.5 25t32.5 24t36 31q70 60 198 196q22 23 62 69q5 6 11.5 4t8.5 -8.5t-1 -12.5
q-161 -220 -230 -340q-29 -52 -44 -91q-1 -2 -4 -15q0 -2 -1 -7q0 -1 -0.5 -3.5t-0.5 -3.5v-2q0 -8 -6 -10.5t-12 1t-6 11.5v5.5v4.5q2 9 5 18.5t5 16t6.5 16.5t6 14t7.5 15.5t7.5 13.5t8.5 15t8 14q40 72 130 202l-10 -10q-70 -71 -135 -128q-69 -60 -115 -84
q-13 -6 -26 -9.5t-26.5 0.5t-18.5 18l-3 5v1q-3 10 -3 25q2 46 33 106q-129 -79 -225 -108q-61 -17 -90 -8q-4 0 -10.5 4.5t-6.5 11t5.5 11t12.5 0.5h1q22 -13 82 5q38 11 86 32q80 36 162 88q1 1 3.5 2.5t3.5 2.5q39 60 80 101q18 18 33 26h2h1l1 0.5t2 0.5q6 1 11.5 -4
t5.5 -12q0 -1 -0.5 -2.5l-0.5 -1.5q-4 -17 -13.5 -31.5t-18 -23t-23.5 -20.5q-28 -23 -67 -50q-2 -1 -3 -4q-26 -44 -39 -82q-7 -23 -7 -42q0 -13 2 -21v-1zM467 490q-8 -6 -16.5 -15t-14.5 -15.5t-15.5 -17.5t-13.5 -16q29 22 47 43q6 6 13 21z" />
    <glyph glyph-name="Uacute" unicode="&#xda;" horiz-adv-x="665" 
d="M706 627l-35 -17q-14 -7 -38 -14q-4 -1 -7.5 1t-5 5t-1.5 6.5t2 6.5t6 3q22 6 67 31q7 4 13 -0.5t6 -10.5t-7 -11zM322 222l2 -3v-1h1q0 -4 2.5 -5.5t7 -1t9.5 1.5t10 2.5t8 3l5 2.5q19 9 41.5 25t32.5 24t36 31q70 60 198 196q22 23 62 69q5 6 11.5 4t8.5 -8.5t-1 -12.5
q-161 -220 -230 -340q-29 -52 -44 -91q-1 -2 -4 -15q0 -2 -1 -7q0 -1 -0.5 -3.5t-0.5 -3.5v-2q0 -8 -6 -10.5t-12 1t-6 11.5v5.5v4.5q2 9 5 18.5t5 16t6.5 16.5t6 14t7.5 15.5t7.5 13.5t8.5 15t8 14q40 72 130 202l-10 -10q-70 -71 -135 -128q-69 -60 -115 -84
q-13 -6 -26 -9.5t-26.5 0.5t-18.5 18l-3 5v1q-3 10 -3 25q2 46 33 106q-129 -79 -225 -108q-61 -17 -90 -8q-4 0 -10.5 4.5t-6.5 11t5.5 11t12.5 0.5h1q22 -13 82 5q38 11 86 32q80 36 162 88q1 1 3.5 2.5t3.5 2.5q39 60 80 101q18 18 33 26h2h1l1 0.5t2 0.5q6 1 11.5 -4
t5.5 -12q0 -1 -0.5 -2.5l-0.5 -1.5q-4 -17 -13.5 -31.5t-18 -23t-23.5 -20.5q-28 -23 -67 -50q-2 -1 -3 -4q-26 -44 -39 -82q-7 -23 -7 -42q0 -13 2 -21v-1zM467 490q-8 -6 -16.5 -15t-14.5 -15.5t-15.5 -17.5t-13.5 -16q29 22 47 43q6 6 13 21z" />
    <glyph glyph-name="Ucircumflex" unicode="&#xdb;" horiz-adv-x="665" 
d="M694 602q-1 5 -0.5 14.5t0.5 12.5l1 2q-6 -5 -18 -13.5t-15 -11.5q-2 0 -6 -3t-7 -4t-7 -2.5t-7.5 0.5t-5.5 6q-3 7 0 12t12.5 10t10.5 6q9 5 34 25l7 7q4 3 8 7q7 7 14.5 2.5t6.5 -12.5q0 -2 -0.5 -5l-1 -6t-1.5 -5l-1 -17q-2 -11 -2 -16v-7v-2v-1q0 -2 1 -2v-5
q-1 -9 -9.5 -10t-11.5 6q-3 6 -2 12zM322 222l2 -3v-1h1q0 -4 2.5 -5.5t7 -1t9.5 1.5t10 2.5t8 3l5 2.5q19 9 41.5 25t32.5 24t36 31q70 60 198 196q22 23 62 69q5 6 11.5 4t8.5 -8.5t-1 -12.5q-161 -220 -230 -340q-29 -52 -44 -91q-1 -2 -4 -15q0 -2 -1 -7q0 -1 -0.5 -3.5
t-0.5 -3.5v-2q0 -8 -6 -10.5t-12 1t-6 11.5v5.5v4.5q2 9 5 18.5t5 16t6.5 16.5t6 14t7.5 15.5t7.5 13.5t8.5 15t8 14q40 72 130 202l-10 -10q-70 -71 -135 -128q-69 -60 -115 -84q-13 -6 -26 -9.5t-26.5 0.5t-18.5 18l-3 5v1q-3 10 -3 25q2 46 33 106q-129 -79 -225 -108
q-61 -17 -90 -8q-4 0 -10.5 4.5t-6.5 11t5.5 11t12.5 0.5h1q22 -13 82 5q38 11 86 32q80 36 162 88q1 1 3.5 2.5t3.5 2.5q39 60 80 101q18 18 33 26h2h1l1 0.5t2 0.5q6 1 11.5 -4t5.5 -12q0 -1 -0.5 -2.5l-0.5 -1.5q-4 -17 -13.5 -31.5t-18 -23t-23.5 -20.5q-28 -23 -67 -50
q-2 -1 -3 -4q-26 -44 -39 -82q-7 -23 -7 -42q0 -13 2 -21v-1zM467 490q-8 -6 -16.5 -15t-14.5 -15.5t-15.5 -17.5t-13.5 -16q29 22 47 43q6 6 13 21z" />
    <glyph glyph-name="Udieresis" unicode="&#xdc;" horiz-adv-x="665" 
d="M622 616v-3q8 -5 4.5 -13.5t-12.5 -8.5h-2q-12 3 -17.5 11.5t-1 16.5t15.5 9q12 0 13 -12zM701 613q0 -3 -1 -7q1 -4 -0.5 -8t-5 -6t-6.5 -2h-3q-17 4 -17 18q0 7 6 11.5t14 5.5q12 0 13 -12zM322 222l2 -3v-1h1q0 -4 2.5 -5.5t7 -1t9.5 1.5t10 2.5t8 3l5 2.5
q19 9 41.5 25t32.5 24t36 31q70 60 198 196q22 23 62 69q5 6 11.5 4t8.5 -8.5t-1 -12.5q-161 -220 -230 -340q-29 -52 -44 -91q-1 -2 -4 -15q0 -2 -1 -7q0 -1 -0.5 -3.5t-0.5 -3.5v-2q0 -8 -6 -10.5t-12 1t-6 11.5v5.5v4.5q2 9 5 18.5t5 16t6.5 16.5t6 14t7.5 15.5t7.5 13.5
t8.5 15t8 14q40 72 130 202l-10 -10q-70 -71 -135 -128q-69 -60 -115 -84q-13 -6 -26 -9.5t-26.5 0.5t-18.5 18l-3 5v1q-3 10 -3 25q2 46 33 106q-129 -79 -225 -108q-61 -17 -90 -8q-4 0 -10.5 4.5t-6.5 11t5.5 11t12.5 0.5h1q22 -13 82 5q38 11 86 32q80 36 162 88
q1 1 3.5 2.5t3.5 2.5q39 60 80 101q18 18 33 26h2h1l1 0.5t2 0.5q6 1 11.5 -4t5.5 -12q0 -1 -0.5 -2.5l-0.5 -1.5q-4 -17 -13.5 -31.5t-18 -23t-23.5 -20.5q-28 -23 -67 -50q-2 -1 -3 -4q-26 -44 -39 -82q-7 -23 -7 -42q0 -13 2 -21v-1zM467 490q-8 -6 -16.5 -15
t-14.5 -15.5t-15.5 -17.5t-13.5 -16q29 22 47 43q6 6 13 21z" />
    <glyph glyph-name="Yacute" unicode="&#xdd;" horiz-adv-x="395" 
d="M356 607l-35 -17q-14 -7 -38 -14q-11 -2 -14 9q0 10 8 13q22 6 67 31q7 4 13 -0.5t6 -10.5t-7 -11zM121 562q8 0 14 -5t6 -13q0 -12 -12 -27q-6 -8 -28 -37q-2 -2 -13.5 -16.5t-15 -18.5t-12.5 -16.5t-13 -20t-10 -18.5t-10 -21q-13 -36 -1 -58q1 -1 2 -2.5t1 -2.5
q33 -32 130 19q63 32 150 101q39 31 68 58q8 8 14.5 2t2.5 -14l-1 -1q-64 -147 -133 -245q-7 -10 -13 -17q14 -7 28.5 -23t-1.5 -24q-4 -3 -9 -1.5t-8 6.5q-8 15 -25 22q-41 -48 -70 -66q-26 -17 -50 -16q-24 0 -40.5 14t-5.5 36q18 31 73 51q45 16 83 10q68 90 128 216
l-31 -23q-12 -10 -37 -27l-37 -26q-76 -51 -121 -68q-63 -28 -96 -8q-11 4 -18.5 17.5t-8.5 26.5q-5 39 28 92q14 23 43.5 62.5t39.5 55.5q-6 -1 -10 2t-5 7t1.5 8.5t7.5 6.5h1q9 2 14 2zM89 139q0 -3 9.5 -5.5t15.5 -2.5q29 -2 70 39q14 15 22 23q-36 0 -68.5 -14
t-47.5 -36q-1 -2 -1 -4z" />
    <glyph glyph-name="Thorn" unicode="&#xde;" horiz-adv-x="604" 
d="M554 382q0 -110 -73.5 -168.5t-212.5 -58.5h-81v-155h-90v714h90v-124h96q137 0 204 -51.5t67 -156.5zM187 231h72q108 0 155 34.5t47 111.5q0 70 -44.5 103t-140.5 33h-89v-282z" />
    <glyph glyph-name="germandbls" unicode="&#xdf;" horiz-adv-x="388" 
d="M365 562q16 0 21 -14.5t-2 -29.5q-15 -36 -61 -92q-26 -33 -60 -64h1q29 -13 46 -37.5t8 -58.5q-12 -54 -68 -88q-11 -9 -31 -16q-20 -6 -21 -6l-11 -3q-15 -2 -23 -2h-22q-13 1 -13 12t13 11l1 1q13 0 19 1q26 0 48 8l9 4q50 20 69 63q7 17 7 36q-2 20 -12.5 31
t-29.5 20q-2 1 -11.5 3.5t-13.5 6t-2 11.5q1 3 4 6q57 51 104 118q24 36 28 52q-12 -2 -43 -23l-11 -8q-9 -6 -10 -7t-8.5 -7t-11.5 -9q-14 -11 -46 -47q-27 -33 -33 -41q-36 -46 -85 -134q-47 -91 -69 -143q-3 -7 -7 -15.5t-7.5 -17.5t-6.5 -16t-10 -7.5t-11.5 4.5t-1.5 12
q58 156 161 312q54 75 99 113q2 1 5 4t5.5 4.5t5.5 4t5 4.5q10 8 34 24q32 20 49 20z" />
    <glyph glyph-name="agrave" unicode="&#xe0;" horiz-adv-x="228" 
d="M184 485q-5 10 5 18q12 5 17 -6v-1q16 -40 22 -59q2 -7 -2.5 -11.5t-10.5 -3.5t-8 8q-6 18 -23 55zM-6 281v5q4 31 48 53q29 15 72 22q2 1 6 1h6q8 0 11 -8q2 2 6.5 5.5t6.5 5.5q7 8 15.5 2.5t4.5 -14.5q-4 -10 -15 -32.5t-15 -35.5l-2 -7h6q4 1 12.5 3t13.5 4
q30 13 77 40q6 4 12 0t6 -10.5t-7 -11.5q-7 -4 -17 -9.5t-17 -10t-17 -10t-18.5 -9t-18.5 -7.5t-20 -6q-7 -1 -10 -1h-5q-10 0 -18 6.5t-8 16.5q-1 15 7 35l-16 -11q-37 -23 -56 -30q-13 -6 -24 -6h-4h-1.5h-2.5q-14 5 -18 20zM19 282v2v-2zM19 286q9 2 19 6t15.5 7t18 11
t13.5 9q8 4 27 17h-3h-3q-59 -14 -82 -40q-4 -5 -5 -10zM135 278z" />
    <glyph glyph-name="aacute" unicode="&#xe1;" horiz-adv-x="228" 
d="M223 450l-35 -17q-15 -7 -38 -14q-7 -2 -11 3t-3 11.5t8 7.5q22 6 67 31q7 4 13 -0.5t5.5 -11t-6.5 -10.5zM-6 281v5q4 31 48 53q29 15 72 22q2 1 6 1h6q8 0 11 -8q2 2 6.5 5.5t6.5 5.5q7 8 15.5 2.5t4.5 -14.5q-4 -10 -15 -32.5t-15 -35.5l-2 -7h6q4 1 12.5 3t13.5 4
q30 13 77 40q6 4 12 0t6 -10.5t-7 -11.5q-7 -4 -17 -9.5t-17 -10t-17 -10t-18.5 -9t-18.5 -7.5t-20 -6q-7 -1 -10 -1h-5q-10 0 -18 6.5t-8 16.5q-1 15 7 35l-16 -11q-37 -23 -56 -30q-13 -6 -24 -6h-4h-1.5h-2.5q-14 5 -18 20zM19 282v2v-2zM19 286q9 2 19 6t15.5 7t18 11
t13.5 9q8 4 27 17h-3h-3q-59 -14 -82 -40q-4 -5 -5 -10zM135 278z" />
    <glyph glyph-name="acircumflex" unicode="&#xe2;" horiz-adv-x="228" 
d="M215 424v8.5t0.5 9t0.5 9.5v2q-4 -4 -10 -8.5t-12.5 -9t-10.5 -7.5q-1 -1 -5.5 -3.5t-7.5 -4t-7 -2.5t-7 1t-5 6q-4 7 -0.5 11.5t12.5 9.5t10 6q9 6 34 25l8 8q3 2 8 7q6 7 13.5 2.5t6.5 -13.5q0 -2 -1 -7.5t-1 -8.5l-2 -16q-1 -11 -1 -16q-1 -5 -1 -8l0.5 -1t0.5 -2v-1
v-6q-1 -8 -9.5 -9.5t-10.5 6.5q-3 6 -3 12zM-6 281v5q4 31 48 53q29 15 72 22q2 1 6 1h6q8 0 11 -8q2 2 6.5 5.5t6.5 5.5q7 8 15.5 2.5t4.5 -14.5q-4 -10 -15 -32.5t-15 -35.5l-2 -7h6q4 1 12.5 3t13.5 4q30 13 77 40q6 4 12 0t6 -10.5t-7 -11.5q-7 -4 -17 -9.5t-17 -10
t-17 -10t-18.5 -9t-18.5 -7.5t-20 -6q-7 -1 -10 -1h-5q-10 0 -18 6.5t-8 16.5q-1 15 7 35l-16 -11q-37 -23 -56 -30q-13 -6 -24 -6h-4h-1.5h-2.5q-14 5 -18 20zM19 282v2v-2zM19 286q9 2 19 6t15.5 7t18 11t13.5 9q8 4 27 17h-3h-3q-59 -14 -82 -40q-4 -5 -5 -10zM135 278z
" />
    <glyph glyph-name="atilde" unicode="&#xe3;" horiz-adv-x="228" 
d="M277 453q3 4 7 4.5t7.5 -1.5t5.5 -4.5t2 -7t-3 -7.5q-12 -14 -29 -14q-16 0 -43 14q-22 10 -30.5 11t-15.5 -9q-8 -13 -19 -3q-9 7 -3 16q10 16 26 19.5t26 -0.5t26 -12q20 -9 28.5 -10.5t14.5 4.5zM-6 281v5q4 31 48 53q29 15 72 22q2 1 6 1h6q8 0 11 -8q2 2 6.5 5.5
t6.5 5.5q7 8 15.5 2.5t4.5 -14.5q-4 -10 -15 -32.5t-15 -35.5l-2 -7h6q4 1 12.5 3t13.5 4q30 13 77 40q6 4 12 0t6 -10.5t-7 -11.5q-7 -4 -17 -9.5t-17 -10t-17 -10t-18.5 -9t-18.5 -7.5t-20 -6q-7 -1 -10 -1h-5q-10 0 -18 6.5t-8 16.5q-1 15 7 35l-16 -11q-37 -23 -56 -30
q-13 -6 -24 -6h-4h-1.5h-2.5q-14 5 -18 20zM19 282v2v-2zM19 286q9 2 19 6t15.5 7t18 11t13.5 9q8 4 27 17h-3h-3q-59 -14 -82 -40q-4 -5 -5 -10zM135 278z" />
    <glyph glyph-name="adieresis" unicode="&#xe4;" horiz-adv-x="228" 
d="M180 438v-3q7 -5 3.5 -13.5t-11.5 -8.5h-3q-12 3 -17.5 11.5t-1 16.5t15.5 9q13 0 14 -12zM258 435q0 -3 -1 -7q2 -6 -2.5 -11t-9.5 -5h-3q-17 4 -17 18q0 4 1.5 7t4.5 5t6.5 3.5t7.5 1.5q12 0 13 -12zM-6 281v5q4 31 48 53q29 15 72 22q2 1 6 1h6q8 0 11 -8q2 2 6.5 5.5
t6.5 5.5q7 8 15.5 2.5t4.5 -14.5q-4 -10 -15 -32.5t-15 -35.5l-2 -7h6q4 1 12.5 3t13.5 4q30 13 77 40q6 4 12 0t6 -10.5t-7 -11.5q-7 -4 -17 -9.5t-17 -10t-17 -10t-18.5 -9t-18.5 -7.5t-20 -6q-7 -1 -10 -1h-5q-10 0 -18 6.5t-8 16.5q-1 15 7 35l-16 -11q-37 -23 -56 -30
q-13 -6 -24 -6h-4h-1.5h-2.5q-14 5 -18 20zM19 282v2v-2zM19 286q9 2 19 6t15.5 7t18 11t13.5 9q8 4 27 17h-3h-3q-59 -14 -82 -40q-4 -5 -5 -10zM135 278z" />
    <glyph glyph-name="aring" unicode="&#xe5;" horiz-adv-x="228" 
d="M159 441q0 -1 4.5 -1.5t6.5 -0.5t8 2q15 7 26 22.5t8 32.5q-4 8 -7 8l-1 1h-1q-5 3 -5 8.5t5 9.5t11 1q5 0 10 -9t7 -15q5 -27 -11 -47q-29 -35 -61 -32q-20 5 -20 23q1 20 15.5 35t31.5 21l4 1h3q6 2 10 -3t2.5 -11t-8.5 -7h-2t-2 -1q-1 0 -2 -0.5l-1 -0.5
q-9 -3 -20 -13.5t-11 -20.5v-3zM-6 281v5q4 31 48 53q29 15 72 22q2 1 6 1h6q8 0 11 -8q2 2 6.5 5.5t6.5 5.5q7 8 15.5 2.5t4.5 -14.5q-4 -10 -15 -32.5t-15 -35.5l-2 -7h6q4 1 12.5 3t13.5 4q30 13 77 40q6 4 12 0t6 -10.5t-7 -11.5q-7 -4 -17 -9.5t-17 -10t-17 -10
t-18.5 -9t-18.5 -7.5t-20 -6q-7 -1 -10 -1h-5q-10 0 -18 6.5t-8 16.5q-1 15 7 35l-16 -11q-37 -23 -56 -30q-13 -6 -24 -6h-4h-1.5h-2.5q-14 5 -18 20zM19 282v2v-2zM19 286q9 2 19 6t15.5 7t18 11t13.5 9q8 4 27 17h-3h-3q-59 -14 -82 -40q-4 -5 -5 -10zM135 278z" />
    <glyph glyph-name="ae" unicode="&#xe6;" horiz-adv-x="863" 
d="M46 149q0 163 244 171l90 3v34q0 60 -27.5 88.5t-84.5 28.5q-68 0 -150 -41l-27 66q35 20 84.5 33t99.5 13q62 0 102.5 -20.5t61.5 -65.5q26 42 67.5 64.5t96.5 22.5q96 0 153 -66t57 -174v-54h-343q4 -187 155 -187q43 0 80.5 8t83.5 29v-77q-43 -19 -80 -27t-87 -8
q-142 0 -203 113q-40 -61 -88.5 -87t-114.5 -26q-80 0 -125 42t-45 117zM137 148q0 -45 25.5 -66t67.5 -21q68 0 108 40t40 113v48l-75 -3q-86 -3 -126 -29t-40 -82zM602 474q-58 0 -91 -39t-39 -114h248q0 74 -30.5 113.5t-87.5 39.5z" />
    <glyph glyph-name="ccedilla" unicode="&#xe7;" horiz-adv-x="192" 
d="M-73 152q2 8 8.5 8t13.5 -3t13 0q1 0 3 7q0 1 1 8.5t1.5 10.5t2 8.5t3 10t4.5 7.5q-27 30 20 92q42 56 92 73q12 3 18 3q24 0 24 -27q-1 -8 -4 -13v-1v-1l-1 -1q-5 -11 -16 -5.5t-7 15.5q0 1 1 2v0.5v1.5q1 0 1 1v2q-10 0 -32 -16q-24 -15 -55 -52q-14 -17 -21 -34
q-8 -21 7.5 -25t30.5 4q18 5 46 20t49 27.5t49.5 30t31.5 19.5q6 4 12 0t6.5 -10.5t-6.5 -11.5q-4 -2 -41 -26.5t-53 -34t-47 -23.5t-57 -19q-5 -1 -6 -1q-11 -2 -14 -1h-6l-2 -3.5t-3 -5.5q-2 -3 -6 -25.5t-16 -27.5q-9 -4 -28.5 0t-16.5 16z" />
    <glyph glyph-name="egrave" unicode="&#xe8;" horiz-adv-x="172" 
d="M174 485q-5 10 5 18q12 5 17 -6v-1q16 -40 22 -59q2 -7 -2.5 -11.5t-10.5 -3.5t-8 8q-6 18 -23 55zM37 288v-2v-2v-1q0 -4 3 -7.5t6.5 -5.5t7.5 -2q7 0 10.5 -1t11 1t10.5 3t10.5 4t10 4.5t9 4.5t8.5 4q40 19 68 37q5 3 10.5 -1t5.5 -10t-6 -11q-69 -42 -105 -55
q-25 -11 -52 -5t-34 31q0 1 -0.5 2t-0.5 2v1q-8 25 9 57q27 44 79 63q10 5 20 5h9q4 -1 9 -4t8 -8.5t1 -12.5q-2 -15 -24 -32q-31 -27 -84 -45h-1q-1 -8 1 -14zM96 368q-22 -10 -37 -25q19 11 37 25z" />
    <glyph glyph-name="eacute" unicode="&#xe9;" horiz-adv-x="172" 
d="M213 480l-35 -17q-15 -7 -38 -14q-7 -2 -11 3t-3 11.5t8 7.5q22 6 67 31q7 4 13 -0.5t5.5 -11t-6.5 -10.5zM37 288v-2v-2v-1q0 -4 3 -7.5t6.5 -5.5t7.5 -2q7 0 10.5 -1t11 1t10.5 3t10.5 4t10 4.5t9 4.5t8.5 4q40 19 68 37q5 3 10.5 -1t5.5 -10t-6 -11q-69 -42 -105 -55
q-25 -11 -52 -5t-34 31q0 1 -0.5 2t-0.5 2v1q-8 25 9 57q27 44 79 63q10 5 20 5h9q4 -1 9 -4t8 -8.5t1 -12.5q-2 -15 -24 -32q-31 -27 -84 -45h-1q-1 -8 1 -14zM96 368q-22 -10 -37 -25q19 11 37 25z" />
    <glyph glyph-name="ecircumflex" unicode="&#xea;" horiz-adv-x="172" 
d="M195 454q0 5 0.5 14.5t0.5 12.5v2q-6 -6 -18 -14.5t-15 -10.5q-1 -1 -5.5 -3.5t-7.5 -4t-7 -2.5t-7 1t-5 6q-4 7 -0.5 11.5t12.5 9.5t10 6q9 6 34 25l8 8q3 2 8 7q6 7 13.5 2.5t6.5 -13.5q0 -2 -1 -7.5t-1 -8.5l-2 -16q-1 -11 -1 -16q-1 -5 -1 -8l0.5 -1t0.5 -2v-1v-6
q-1 -8 -9.5 -9.5t-10.5 6.5q-3 6 -3 12zM37 288v-2v-2v-1q0 -4 3 -7.5t6.5 -5.5t7.5 -2q7 0 10.5 -1t11 1t10.5 3t10.5 4t10 4.5t9 4.5t8.5 4q40 19 68 37q5 3 10.5 -1t5.5 -10t-6 -11q-69 -42 -105 -55q-25 -11 -52 -5t-34 31q0 1 -0.5 2t-0.5 2v1q-8 25 9 57q27 44 79 63
q10 5 20 5h9q4 -1 9 -4t8 -8.5t1 -12.5q-2 -15 -24 -32q-31 -27 -84 -45h-1q-1 -8 1 -14zM96 368q-22 -10 -37 -25q19 11 37 25z" />
    <glyph glyph-name="edieresis" unicode="&#xeb;" horiz-adv-x="172" 
d="M150 468v-3q7 -5 3.5 -13.5t-11.5 -8.5h-3q-12 3 -17.5 11.5t-1 16.5t15.5 9q13 0 14 -12zM228 465q0 -3 -1 -7q2 -6 -2.5 -11t-9.5 -5h-3q-17 4 -17 18q0 7 6 11.5t14 5.5q12 0 13 -12zM37 288v-2v-2v-1q0 -4 3 -7.5t6.5 -5.5t7.5 -2q7 0 10.5 -1t11 1t10.5 3t10.5 4
t10 4.5t9 4.5t8.5 4q40 19 68 37q5 3 10.5 -1t5.5 -10t-6 -11q-69 -42 -105 -55q-25 -11 -52 -5t-34 31q0 1 -0.5 2t-0.5 2v1q-8 25 9 57q27 44 79 63q10 5 20 5h9q4 -1 9 -4t8 -8.5t1 -12.5q-2 -15 -24 -32q-31 -27 -84 -45h-1q-1 -8 1 -14zM96 368q-22 -10 -37 -25
q19 11 37 25z" />
    <glyph glyph-name="igrave" unicode="&#xec;" horiz-adv-x="173" 
d="M184 485q-5 10 5 18q12 5 17 -6v-1q16 -40 22 -59q2 -7 -2.5 -11.5t-10.5 -3.5t-8 8q-6 18 -23 55zM41 239q-15 7 -14 23.5t7.5 28.5t14.5 23q-14 -9 -20 -12t-11.5 1t-5.5 11t7 11q82 45 109 61q6 4 12 0.5t6.5 -10t-4.5 -12.5v-1q-9 -5 -31 -24q-39 -39 -50 -59
q-5 -8 -7 -15v-1h2q9 0 27 7q53 19 109 54q12 7 16 -7q3 -10 -5 -16q-4 -2 -31 -18t-38 -22t-33.5 -14.5t-42.5 -11.5h-7q-7 2 -10 3z" />
    <glyph glyph-name="iacute" unicode="&#xed;" horiz-adv-x="173" 
d="M223 450l-35 -17q-15 -7 -38 -14q-7 -2 -11 3t-3 11.5t8 7.5q22 6 67 31q7 4 13 -0.5t5.5 -11t-6.5 -10.5zM41 239q-15 7 -14 23.5t7.5 28.5t14.5 23q-14 -9 -20 -12t-11.5 1t-5.5 11t7 11q82 45 109 61q6 4 12 0.5t6.5 -10t-4.5 -12.5v-1q-9 -5 -31 -24q-39 -39 -50 -59
q-5 -8 -7 -15v-1h2q9 0 27 7q53 19 109 54q12 7 16 -7q3 -10 -5 -16q-4 -2 -31 -18t-38 -22t-33.5 -14.5t-42.5 -11.5h-7q-7 2 -10 3z" />
    <glyph glyph-name="icircumflex" unicode="&#xee;" horiz-adv-x="173" 
d="M215 424v8.5t0.5 9t0.5 9.5v2q-4 -4 -10 -8.5t-12.5 -9t-10.5 -7.5q-1 -1 -5.5 -3.5t-7.5 -4t-7 -2.5t-7 1t-5 6q-4 7 -0.5 11.5t12.5 9.5t10 6q9 6 34 25l8 8q3 2 8 7q6 7 13.5 2.5t6.5 -13.5q0 -2 -1 -7.5t-1 -8.5l-2 -16q-1 -11 -1 -16q-1 -5 -1 -8l0.5 -1t0.5 -2v-1
v-6q-1 -8 -9.5 -9.5t-10.5 6.5q-3 6 -3 12zM41 239q-15 7 -14 23.5t7.5 28.5t14.5 23q-14 -9 -20 -12t-11.5 1t-5.5 11t7 11q82 45 109 61q6 4 12 0.5t6.5 -10t-4.5 -12.5v-1q-9 -5 -31 -24q-39 -39 -50 -59q-5 -8 -7 -15v-1h2q9 0 27 7q53 19 109 54q12 7 16 -7
q3 -10 -5 -16q-4 -2 -31 -18t-38 -22t-33.5 -14.5t-42.5 -11.5h-7q-7 2 -10 3z" />
    <glyph glyph-name="idieresis" unicode="&#xef;" horiz-adv-x="173" 
d="M170 448v-3q7 -5 3.5 -13.5t-11.5 -8.5h-3q-12 3 -17.5 11.5t-1 16.5t15.5 9q13 0 14 -12zM248 445q0 -3 -1 -7q2 -6 -2.5 -11t-9.5 -5h-3q-17 4 -17 18q0 5 2.5 8.5t7.5 5.5t10 3q12 0 13 -12zM41 239q-15 7 -14 23.5t7.5 28.5t14.5 23q-14 -9 -20 -12t-11.5 1t-5.5 11
t7 11q82 45 109 61q6 4 12 0.5t6.5 -10t-4.5 -12.5v-1q-9 -5 -31 -24q-39 -39 -50 -59q-5 -8 -7 -15v-1h2q9 0 27 7q53 19 109 54q12 7 16 -7q3 -10 -5 -16q-4 -2 -31 -18t-38 -22t-33.5 -14.5t-42.5 -11.5h-7q-7 2 -10 3z" />
    <glyph glyph-name="eth" unicode="&#xf0;" horiz-adv-x="338" 
d="M240 416q-28 1 -56 1q-35 -48 -60 -109q61 51 116 108zM261 438q23 26 44 52q20 25 24 32q1 3 1 4l0.5 1l0.5 1v1q-1 1 -2 1q-9 1 -31 -8q-11 -6 -22 -13t-20.5 -14.5t-19.5 -16.5t-18 -18t-16 -19q29 -1 59 -3zM-21 224q2 2 7 2q16 3 31 9.5t35.5 19.5t25.5 16
q10 25 24 57q-3 1 -9 0q-15 0 -43 -16q-46 -24 -71 -66q-6 -9 -7 -17v-2q1 -1 3 -1q1 0 1.5 -0.5t1.5 -0.5zM332 554q9 0 16 -7t7 -16v-5v-1.5v-2.5q-2 -6 -6 -14t-7 -11.5t-10.5 -12t-8.5 -10.5q-15 -18 -32 -37q34 -1 49 -2q7 -1 9 -6.5t-1.5 -11t-9.5 -4.5q-18 1 -67 2
q-82 -87 -155 -145q-7 -6 -12 -10q-19 -51 -24 -98q-3 -41 7 -41h3l4 1q27 13 61 42q14 11 65 55.5t78 64.5q12 9 44 31q1 1 3.5 2.5t4 2.5t4 2.5t4.5 2t4 1.5t4 0.5t3.5 -1t3.5 -2.5t3 -4q4 -8 -6 -15q-33 -19 -64.5 -44.5t-71.5 -62.5t-62 -55q-45 -36 -67 -44
q-2 -2 -7.5 -3t-6.5 -2h-9q-2 1 -5 2t-5.5 2.5t-3.5 1.5q-32 33 -3 133l-1 -0.5l-1 -0.5q-39 -24 -74 -32q-1 0 -3.5 -0.5t-3.5 -0.5h-9q-13 1 -21 9.5t-8 22.5q2 24 27 51q31 36 65 56q31 17 56 17q5 0 12 -1.5t9 -1.5h1q21 39 40 67q-44 1 -63 1q-18 0 -28 -2
q-12 0 -13 12q0 12 12 13q3 1 8 1q4 1 21 1q6 0 14 -0.5t18.5 -0.5t22 -0.5t24.5 -0.5q38 49 83 81q33 22 55 28q12 4 24 3z" />
    <glyph glyph-name="ntilde" unicode="&#xf1;" horiz-adv-x="330" 
d="M297 493q3 4 7 4.5t7.5 -1.5t5.5 -4.5t2 -7t-3 -7.5q-12 -14 -29 -14q-16 0 -43 14q-22 10 -30.5 11t-15.5 -9q-8 -13 -19 -3q-9 7 -3 16q10 16 26 19.5t26 -0.5t26 -12q20 -9 28.5 -10.5t14.5 4.5zM215 390q-1 -13 -7 -42t-7 -42.5t2 -41.5q1 -1 1 -2l1 -1v0l2 -1
q1 -1 4 -1q11 -1 43 14q31 15 95 52q11 7 17 -7q2 -10 -5 -15q-5 -2 -33.5 -19t-49 -27t-39.5 -16q-36 -9 -51 6v1l-2 1q-7 15 -8 34t2.5 35t7.5 37.5t5 35.5v7q0 1 -0.5 2t-0.5 2h-2q-18 -4 -53 -26q-38 -25 -106 -82q-1 0 -6 -4t-8 -5l-1 -0.5t-2 -0.5h-3q-6 2 -9 5
q-2 3 -2 8q0 1 0.5 2l0.5 1v1.5v0.5q1 3 16 22q42 50 74 81q4 6 11 3.5t9 -8.5t-3 -12l-15 -16q43 32 76 47q21 9 35 2h1q8 -5 8 -9q3 -7 3 -13q0 -1 -0.5 -4t-0.5 -5zM194 402z" />
    <glyph glyph-name="ograve" unicode="&#xf2;" horiz-adv-x="209" 
d="M124 455q-5 10 5 18q12 5 17 -6v-1q16 -40 22 -59q2 -7 -2.5 -11.5t-10.5 -3.5t-8 8q-6 18 -23 55zM90 314q-5 11 -5 22l-1 2q-1 12 11 13q10 0 14.5 -16t7.5 -19q13 -13 38 -13q39 0 74 22q8 4 12.5 0.5t4 -11t-5.5 -11.5q-43 -24 -87 -24q-28 0 -47 12
q-23 -71 -81 -102q-16 -8 -26 -10h-4h-4q-14 0 -21.5 9t-7.5 24q0 23 20 63q29 59 72 73q10 3 15 -7t-4 -15q-2 -2 -5 -4.5t-6.5 -4.5t-5.5 -4q-45 -45 -58 -93q-1 -6 -1 -9q0 -7 1 -9q23 0 45 18q40 32 51 72q4 13 4 22z" />
    <glyph glyph-name="oacute" unicode="&#xf3;" horiz-adv-x="209" 
d="M183 430l-35 -17q-15 -7 -38 -14q-7 -2 -11 3t-3 11.5t8 7.5q22 6 67 31q7 4 13 -0.5t5.5 -11t-6.5 -10.5zM90 314q-5 11 -5 22l-1 2q-1 12 11 13q10 0 14.5 -16t7.5 -19q13 -13 38 -13q39 0 74 22q8 4 12.5 0.5t4 -11t-5.5 -11.5q-43 -24 -87 -24q-28 0 -47 12
q-23 -71 -81 -102q-16 -8 -26 -10h-4h-4q-14 0 -21.5 9t-7.5 24q0 23 20 63q29 59 72 73q10 3 15 -7t-4 -15q-2 -2 -5 -4.5t-6.5 -4.5t-5.5 -4q-45 -45 -58 -93q-1 -6 -1 -9q0 -7 1 -9q23 0 45 18q40 32 51 72q4 13 4 22z" />
    <glyph glyph-name="ocircumflex" unicode="&#xf4;" horiz-adv-x="209" 
d="M145 404q0 5 0.5 14.5t0.5 12.5v2q-6 -6 -18 -14.5t-15 -10.5q-1 -1 -5.5 -3.5t-7.5 -4t-7 -2.5t-7 1t-5 6q-4 7 -0.5 11.5t12.5 9.5t10 6q9 6 34 25l8 8q3 2 8 7q6 7 13.5 2.5t6.5 -13.5q0 -2 -1 -7.5t-1 -8.5l-2 -16q-1 -11 -1 -16q-1 -5 -1 -8l0.5 -1t0.5 -2v-1v-6
q-1 -8 -9.5 -9.5t-10.5 6.5q-3 6 -3 12zM90 314q-5 11 -5 22l-1 2q-1 12 11 13q10 0 14.5 -16t7.5 -19q13 -13 38 -13q39 0 74 22q8 4 12.5 0.5t4 -11t-5.5 -11.5q-43 -24 -87 -24q-28 0 -47 12q-23 -71 -81 -102q-16 -8 -26 -10h-4h-4q-14 0 -21.5 9t-7.5 24q0 23 20 63
q29 59 72 73q10 3 15 -7t-4 -15q-2 -2 -5 -4.5t-6.5 -4.5t-5.5 -4q-45 -45 -58 -93q-1 -6 -1 -9q0 -7 1 -9q23 0 45 18q40 32 51 72q4 13 4 22z" />
    <glyph glyph-name="otilde" unicode="&#xf5;" horiz-adv-x="209" 
d="M197 423q3 4 7 4.5t7.5 -1.5t5.5 -4.5t2 -7t-3 -7.5q-12 -14 -29 -14q-16 0 -43 14q-22 10 -30.5 11t-15.5 -9q-8 -13 -19 -3q-9 7 -3 16q10 16 26 19.5t26 -0.5t26 -12q20 -9 28.5 -10.5t14.5 4.5zM90 314q-5 11 -5 22l-1 2q-1 12 11 13q10 0 14.5 -16t7.5 -19
q13 -13 38 -13q39 0 74 22q8 4 12.5 0.5t4 -11t-5.5 -11.5q-43 -24 -87 -24q-28 0 -47 12q-23 -71 -81 -102q-16 -8 -26 -10h-4h-4q-14 0 -21.5 9t-7.5 24q0 23 20 63q29 59 72 73q10 3 15 -7t-4 -15q-2 -2 -5 -4.5t-6.5 -4.5t-5.5 -4q-45 -45 -58 -93q-1 -6 -1 -9
q0 -7 1 -9q23 0 45 18q40 32 51 72q4 13 4 22z" />
    <glyph glyph-name="odieresis" unicode="&#xf6;" horiz-adv-x="209" 
d="M120 418v-3q7 -5 3.5 -13.5t-11.5 -8.5h-3q-12 3 -17.5 11.5t-1 16.5t15.5 9q13 0 14 -12zM198 415q0 -3 -1 -7q2 -6 -2.5 -11t-9.5 -5h-3q-17 4 -17 18q0 5 2.5 8.5t7.5 5.5t10 3q12 0 13 -12zM90 314q-5 11 -5 22l-1 2q-1 12 11 13q10 0 14.5 -16t7.5 -19
q13 -13 38 -13q39 0 74 22q8 4 12.5 0.5t4 -11t-5.5 -11.5q-43 -24 -87 -24q-28 0 -47 12q-23 -71 -81 -102q-16 -8 -26 -10h-4h-4q-14 0 -21.5 9t-7.5 24q0 23 20 63q29 59 72 73q10 3 15 -7t-4 -15q-2 -2 -5 -4.5t-6.5 -4.5t-5.5 -4q-45 -45 -58 -93q-1 -6 -1 -9
q0 -7 1 -9q23 0 45 18q40 32 51 72q4 13 4 22z" />
    <glyph glyph-name="divide" unicode="&#xf7;" horiz-adv-x="550" 
d="M50 286v73h451v-73h-451zM219 156q0 17 4.5 28.5t12 19t17.5 10.5t22 3q11 0 21.5 -3t18 -10.5t12 -19t4.5 -28.5q0 -16 -4.5 -27.5t-12 -19t-18 -11t-21.5 -3.5q-12 0 -22 3.5t-17.5 11t-12 19t-4.5 27.5zM219 497q0 17 4.5 28.5t12 19t17.5 10.5t22 3q11 0 21.5 -3
t18 -10.5t12 -19t4.5 -28.5q0 -16 -4.5 -27.5t-12 -19t-18 -11t-21.5 -3.5q-12 0 -22 3.5t-17.5 11t-12 19t-4.5 27.5zM221 622z" />
    <glyph glyph-name="oslash" unicode="&#xf8;" horiz-adv-x="209" 
d="M90 314q-5 11 -5 22l-1 2q-1 12 11 13q10 0 14.5 -16t7.5 -19q13 -13 38 -13q39 0 74 22q8 4 12.5 0.5t4 -11t-5.5 -11.5q-43 -24 -87 -24q-28 0 -47 12q-23 -71 -81 -102q-16 -8 -26 -10h-4h-4q-14 0 -21.5 9t-7.5 24q0 23 20 63q29 59 72 73q10 3 15 -7t-4 -15
q-2 -2 -5 -4.5t-6.5 -4.5t-5.5 -4q-45 -45 -58 -93q-1 -6 -1 -9q0 -7 1 -9q23 0 45 18q40 32 51 72q4 13 4 22z" />
    <glyph glyph-name="ugrave" unicode="&#xf9;" horiz-adv-x="296" 
d="M184 455q-5 10 5 18q12 5 17 -6v-1q16 -40 22 -59q2 -7 -2.5 -11.5t-10.5 -3.5t-8 8q-6 18 -23 55zM160 205q-21 21 -5 66q-9 -7 -25 -21.5t-30 -25t-27 -19.5q-15 -7 -21 -7h-4q-4 0 -8.5 3t-4.5 7q-4 14 6 30q20 43 25 60q3 11 3 18v3q-10 0 -35 -14q-10 -6 -16.5 5
t4.5 17q30 17 47 17q8 0 14 -4t8.5 -10t2.5 -13q0 -13 -3.5 -26.5t-7.5 -22t-11 -21.5t-9 -19v-1q36 22 82 66q27 25 32 31q8 7 16.5 0.5t3.5 -15.5q-19 -39 -24 -65q-1 -11 0 -14v-1v-1q6 0 24 11q17 11 56 42t62 44q10 6 17 -4.5t-4 -16.5q-23 -15 -61.5 -44.5
t-55.5 -41.5q-24 -18 -42 -16q-2 0 -5 1l-3 1zM174 226z" />
    <glyph glyph-name="uacute" unicode="&#xfa;" horiz-adv-x="296" 
d="M233 410l-35 -17q-15 -7 -38 -14q-7 -2 -11 3t-3 11.5t8 7.5q22 6 67 31q7 4 13 -0.5t5.5 -11t-6.5 -10.5zM160 205q-21 21 -5 66q-9 -7 -25 -21.5t-30 -25t-27 -19.5q-15 -7 -21 -7h-4q-4 0 -8.5 3t-4.5 7q-4 14 6 30q20 43 25 60q3 11 3 18v3q-10 0 -35 -14
q-10 -6 -16.5 5t4.5 17q30 17 47 17q8 0 14 -4t8.5 -10t2.5 -13q0 -13 -3.5 -26.5t-7.5 -22t-11 -21.5t-9 -19v-1q36 22 82 66q27 25 32 31q8 7 16.5 0.5t3.5 -15.5q-19 -39 -24 -65q-1 -11 0 -14v-1v-1q6 0 24 11q17 11 56 42t62 44q10 6 17 -4.5t-4 -16.5
q-23 -15 -61.5 -44.5t-55.5 -41.5q-24 -18 -42 -16q-2 0 -5 1l-3 1zM174 226z" />
    <glyph glyph-name="ucircumflex" unicode="&#xfb;" horiz-adv-x="296" 
d="M205 384q0 5 0.5 14.5t0.5 12.5v2q-6 -6 -18 -14.5t-15 -10.5q-1 -1 -5.5 -3.5t-7.5 -4t-7 -2.5t-7 1t-5 6q-4 7 -0.5 11.5t12.5 9.5t10 6q9 6 34 25l8 8q3 2 8 7q6 7 13.5 2.5t6.5 -13.5q0 -2 -1 -7.5t-1 -8.5l-2 -16q-1 -11 -1 -16q-1 -5 -1 -8l0.5 -1t0.5 -2v-1v-6
q-1 -8 -9.5 -9.5t-10.5 6.5q-3 6 -3 12zM160 205q-21 21 -5 66q-9 -7 -25 -21.5t-30 -25t-27 -19.5q-15 -7 -21 -7h-4q-4 0 -8.5 3t-4.5 7q-4 14 6 30q20 43 25 60q3 11 3 18v3q-10 0 -35 -14q-10 -6 -16.5 5t4.5 17q30 17 47 17q8 0 14 -4t8.5 -10t2.5 -13
q0 -13 -3.5 -26.5t-7.5 -22t-11 -21.5t-9 -19v-1q36 22 82 66q27 25 32 31q8 7 16.5 0.5t3.5 -15.5q-19 -39 -24 -65q-1 -11 0 -14v-1v-1q6 0 24 11q17 11 56 42t62 44q10 6 17 -4.5t-4 -16.5q-23 -15 -61.5 -44.5t-55.5 -41.5q-24 -18 -42 -16q-2 0 -5 1l-3 1zM174 226z
" />
    <glyph glyph-name="udieresis" unicode="&#xfc;" horiz-adv-x="296" 
d="M160 408v-3q7 -5 3.5 -13.5t-11.5 -8.5h-3q-12 3 -17.5 11.5t-1 16.5t15.5 9q13 0 14 -12zM238 405q0 -3 -1 -7q2 -6 -2.5 -11t-9.5 -5h-3q-17 4 -17 18q0 4 1.5 7t4.5 5t6.5 3.5t7.5 1.5q12 0 13 -12zM160 205q-21 21 -5 66q-9 -7 -25 -21.5t-30 -25t-27 -19.5
q-15 -7 -21 -7h-4q-4 0 -8.5 3t-4.5 7q-4 14 6 30q20 43 25 60q3 11 3 18v3q-10 0 -35 -14q-10 -6 -16.5 5t4.5 17q30 17 47 17q8 0 14 -4t8.5 -10t2.5 -13q0 -13 -3.5 -26.5t-7.5 -22t-11 -21.5t-9 -19v-1q36 22 82 66q27 25 32 31q8 7 16.5 0.5t3.5 -15.5q-19 -39 -24 -65
q-1 -11 0 -14v-1v-1q6 0 24 11q17 11 56 42t62 44q10 6 17 -4.5t-4 -16.5q-23 -15 -61.5 -44.5t-55.5 -41.5q-24 -18 -42 -16q-2 0 -5 1l-3 1zM174 226z" />
    <glyph glyph-name="yacute" unicode="&#xfd;" horiz-adv-x="196" 
d="M223 520l-35 -17q-15 -7 -38 -14q-7 -2 -11 3t-3 11.5t8 7.5q22 6 67 31q7 4 13 -0.5t5.5 -11t-6.5 -10.5zM161 402q5 5 10.5 4t9 -7t0.5 -11q-35 -64 -53 -96q60 18 87 33q14 8 18 -4q3 -11 -5 -17q-10 -6 -22 -11.5t-24.5 -9.5t-23.5 -7.5t-25 -8t-25 -8.5
q-89 -153 -122 -201q-37 -55 -60 -78q-30 -26 -46 -2q-4 7 -5 21q0 23 8 50q16 60 56 119q12 16 44 49q41 37 108 63q4 8 10 17.5t11.5 19.5t9.5 17q-4 -3 -38 -23q-16 -10 -30 -10h-5h-10h-2h-2q-10 2 -16 7.5t-7.5 13.5t-1 17t4.5 20t7 20.5t9 21t9.5 18t8.5 15l5 8.5
l21 37q4 6 10.5 6t10.5 -6t1 -12l-19 -38q-26 -48 -35 -73q-4 -13 -4 -18v-7q0 -2 2 -2h6q1 0 4.5 1t4.5 1h3q7 0 22 10q41 22 80 61zM-71 20q53 69 142 224q-45 -18 -88 -62l-2 -3q-48 -48 -74 -137q-7 -27 -7 -43q0 -5 1 -7q6 3 18 17q7 7 10 11z" />
    <glyph glyph-name="thorn" unicode="&#xfe;" horiz-adv-x="615" 
d="M174 464q33 44 73.5 63t92.5 19q104 0 162 -73t58 -204t-58 -205t-162 -74q-108 0 -167 78h-6q6 -64 6 -84v-224h-88v1000h88v-224q0 -34 -3 -72h4zM325 472q-79 0 -115 -43.5t-37 -140.5v-19q0 -109 36 -157.5t117 -48.5q143 0 143 207q0 102 -35 152t-109 50z" />
    <glyph glyph-name="ydieresis" unicode="&#xff;" horiz-adv-x="196" 
d="M160 528v-3q7 -5 3.5 -13.5t-11.5 -8.5h-3q-12 3 -17.5 11.5t-1 16.5t15.5 9q13 0 14 -12zM238 525q0 -3 -1 -7q2 -6 -2.5 -11t-9.5 -5h-3q-17 4 -17 18q0 5 2.5 8.5t7.5 5.5t10 3q12 0 13 -12zM161 402q5 5 10.5 4t9 -7t0.5 -11q-35 -64 -53 -96q60 18 87 33q14 8 18 -4
q3 -11 -5 -17q-10 -6 -22 -11.5t-24.5 -9.5t-23.5 -7.5t-25 -8t-25 -8.5q-89 -153 -122 -201q-37 -55 -60 -78q-30 -26 -46 -2q-4 7 -5 21q0 23 8 50q16 60 56 119q12 16 44 49q41 37 108 63q4 8 10 17.5t11.5 19.5t9.5 17q-4 -3 -38 -23q-16 -10 -30 -10h-5h-10h-2h-2
q-10 2 -16 7.5t-7.5 13.5t-1 17t4.5 20t7 20.5t9 21t9.5 18t8.5 15l5 8.5l21 37q4 6 10.5 6t10.5 -6t1 -12l-19 -38q-26 -48 -35 -73q-4 -13 -4 -18v-7q0 -2 2 -2h6q1 0 4.5 1t4.5 1h3q7 0 22 10q41 22 80 61zM-71 20q53 69 142 224q-45 -18 -88 -62l-2 -3q-48 -48 -74 -137
q-7 -27 -7 -43q0 -5 1 -7q6 3 18 17q7 7 10 11z" />
    <glyph glyph-name="Amacron" unicode="&#x100;" horiz-adv-x="639" 
d="M178 842h297v-71h-297v71zM565 534q21 -7 21 -32q0 -22 -16 -56q-13 -29 -48 -94h6q5 0 9.5 -3.5t4.5 -9.5q0 -13 -13 -14h-2q-7 1 -19 2q-107 -185 -153 -295q-3 -8 -10 -8.5t-12 5t-2 12.5q34 85 139 269q7 12 11 18h-2q-19 1 -77.5 4t-89.5 6q-87 -82 -164 -168
q-18 -20 -32 -38q-5 -6 -12 -4t-9.5 8t1.5 12q5 5 15 18t17 21q67 79 145 153q-1 0 -4.5 0.5t-4.5 0.5q-144 8 -181 8q-41 0 -54 -6h-1q4 -12 -8 -17t-18 6v2t-0.5 1.5l-0.5 0.5q-1 4 -1 6q0 11 6 18t19.5 9.5t23 3t26.5 0.5h8q49 -1 182 -11l30 -2q86 77 138 116
q58 43 96 55q15 7 33 3h1h1h1zM27 345zM547 455q12 32 14 46q0 5 -2 6v1q-8 2 -21 -2q-37 -13 -89 -52q-61 -45 -115 -96l28 -2q82 -5 118 -5h14q2 4 7 13q29 54 46 91z" />
    <glyph glyph-name="amacron" unicode="&#x101;" horiz-adv-x="561" 
d="M143 677h297v-71h-297v71zM-6 281v5q4 31 48 53q29 15 72 22q2 1 6 1h6q8 0 11 -8q2 2 6.5 5.5t6.5 5.5q7 8 15.5 2.5t4.5 -14.5q-4 -10 -15 -32.5t-15 -35.5l-2 -7h6q4 1 12.5 3t13.5 4q30 13 77 40q6 4 12 0t6 -10.5t-7 -11.5q-7 -4 -17 -9.5t-17 -10t-17 -10t-18.5 -9
t-18.5 -7.5t-20 -6q-7 -1 -10 -1h-5q-10 0 -18 6.5t-8 16.5q-1 15 7 35l-16 -11q-37 -23 -56 -30q-13 -6 -24 -6h-4h-1.5h-2.5q-14 5 -18 20zM19 282v2v-2zM19 286q9 2 19 6t15.5 7t18 11t13.5 9q8 4 27 17h-3h-3q-59 -14 -82 -40q-4 -5 -5 -10zM135 278z" />
    <glyph glyph-name="Abreve" unicode="&#x102;" horiz-adv-x="639" 
d="M316 771q-69 0 -108.5 33.5t-44.5 100.5h54q4 -35 24.5 -49t76.5 -14q49 0 73 15.5t28 47.5h55q-6 -64 -48 -99t-110 -35zM565 534q21 -7 21 -32q0 -22 -16 -56q-13 -29 -48 -94h6q5 0 9.5 -3.5t4.5 -9.5q0 -13 -13 -14h-2q-7 1 -19 2q-107 -185 -153 -295
q-3 -8 -10 -8.5t-12 5t-2 12.5q34 85 139 269q7 12 11 18h-2q-19 1 -77.5 4t-89.5 6q-87 -82 -164 -168q-18 -20 -32 -38q-5 -6 -12 -4t-9.5 8t1.5 12q5 5 15 18t17 21q67 79 145 153q-1 0 -4.5 0.5t-4.5 0.5q-144 8 -181 8q-41 0 -54 -6h-1q4 -12 -8 -17t-18 6v2t-0.5 1.5
l-0.5 0.5q-1 4 -1 6q0 11 6 18t19.5 9.5t23 3t26.5 0.5h8q49 -1 182 -11l30 -2q86 77 138 116q58 43 96 55q15 7 33 3h1h1h1zM27 345zM547 455q12 32 14 46q0 5 -2 6v1q-8 2 -21 -2q-37 -13 -89 -52q-61 -45 -115 -96l28 -2q82 -5 118 -5h14q2 4 7 13q29 54 46 91z" />
    <glyph glyph-name="abreve" unicode="&#x103;" horiz-adv-x="561" 
d="M281 606q-69 0 -108.5 33.5t-44.5 100.5h54q4 -35 24.5 -49t76.5 -14q49 0 73 15.5t28 47.5h55q-6 -64 -48 -99t-110 -35zM-6 281v5q4 31 48 53q29 15 72 22q2 1 6 1h6q8 0 11 -8q2 2 6.5 5.5t6.5 5.5q7 8 15.5 2.5t4.5 -14.5q-4 -10 -15 -32.5t-15 -35.5l-2 -7h6
q4 1 12.5 3t13.5 4q30 13 77 40q6 4 12 0t6 -10.5t-7 -11.5q-7 -4 -17 -9.5t-17 -10t-17 -10t-18.5 -9t-18.5 -7.5t-20 -6q-7 -1 -10 -1h-5q-10 0 -18 6.5t-8 16.5q-1 15 7 35l-16 -11q-37 -23 -56 -30q-13 -6 -24 -6h-4h-1.5h-2.5q-14 5 -18 20zM19 282v2v-2zM19 286
q9 2 19 6t15.5 7t18 11t13.5 9q8 4 27 17h-3h-3q-59 -14 -82 -40q-4 -5 -5 -10zM135 278z" />
    <glyph glyph-name="Aogonek" unicode="&#x104;" horiz-adv-x="639" 
d="M540 -116q0 -22 12 -33.5t33 -11.5t48 6v-56q-34 -9 -62 -9q-103 0 -103 94q0 68 78 126h62q-34 -32 -51 -58.5t-17 -57.5zM565 534q21 -7 21 -32q0 -22 -16 -56q-13 -29 -48 -94h6q5 0 9.5 -3.5t4.5 -9.5q0 -13 -13 -14h-2q-7 1 -19 2q-107 -185 -153 -295
q-3 -8 -10 -8.5t-12 5t-2 12.5q34 85 139 269q7 12 11 18h-2q-19 1 -77.5 4t-89.5 6q-87 -82 -164 -168q-18 -20 -32 -38q-5 -6 -12 -4t-9.5 8t1.5 12q5 5 15 18t17 21q67 79 145 153q-1 0 -4.5 0.5t-4.5 0.5q-144 8 -181 8q-41 0 -54 -6h-1q4 -12 -8 -17t-18 6v2t-0.5 1.5
l-0.5 0.5q-1 4 -1 6q0 11 6 18t19.5 9.5t23 3t26.5 0.5h8q49 -1 182 -11l30 -2q86 77 138 116q58 43 96 55q15 7 33 3h1h1h1zM27 345zM547 455q12 32 14 46q0 5 -2 6v1q-8 2 -21 -2q-37 -13 -89 -52q-61 -45 -115 -96l28 -2q82 -5 118 -5h14q2 4 7 13q29 54 46 91z" />
    <glyph glyph-name="aogonek" unicode="&#x105;" horiz-adv-x="561" 
d="M410 -116q0 -22 12 -33.5t33 -11.5t48 6v-56q-34 -9 -62 -9q-103 0 -103 94q0 68 78 126h62q-34 -32 -51 -58.5t-17 -57.5zM-6 281v5q4 31 48 53q29 15 72 22q2 1 6 1h6q8 0 11 -8q2 2 6.5 5.5t6.5 5.5q7 8 15.5 2.5t4.5 -14.5q-4 -10 -15 -32.5t-15 -35.5l-2 -7h6
q4 1 12.5 3t13.5 4q30 13 77 40q6 4 12 0t6 -10.5t-7 -11.5q-7 -4 -17 -9.5t-17 -10t-17 -10t-18.5 -9t-18.5 -7.5t-20 -6q-7 -1 -10 -1h-5q-10 0 -18 6.5t-8 16.5q-1 15 7 35l-16 -11q-37 -23 -56 -30q-13 -6 -24 -6h-4h-1.5h-2.5q-14 5 -18 20zM19 282v2v-2zM19 286
q9 2 19 6t15.5 7t18 11t13.5 9q8 4 27 17h-3h-3q-59 -14 -82 -40q-4 -5 -5 -10zM135 278z" />
    <glyph glyph-name="Cacute" unicode="&#x106;" horiz-adv-x="631" 
d="M487 324q6 5 12 1t6.5 -10.5t-6.5 -11.5q-78 -50 -180 -91.5t-199 -53.5q-40 -5 -72.5 2t-42.5 29q-15 35 19 90q30 47 93 106q107 99 231 146q70 27 125 29q63 0 74 -29q2 -6 2 -11.5t-1.5 -10t-3 -8.5t-4.5 -8t-5.5 -6.5t-5.5 -6.5t-5 -6q-23 -28 -65 -55
q-44 -29 -75 -26q-10 1 -17.5 8t-7.5 19q0 1 0.5 2.5l0.5 1.5q3 15 20 38q8 10 18 1q9 -9 1 -17q-14 -15 -16 -28l1 -1l4 -1q21 -5 60 21q28 19 51 42l9 9q30 30 14 41q-15 11 -49 9q-53 -2 -118 -27q-121 -47 -224 -143q-60 -56 -88 -101q-38 -57 -10 -77q31 -25 143 1
q146 35 311 133zM318 783q19 23 47.5 66.5t47.5 81.5h106v-10q-21 -31 -66.5 -78.5t-76.5 -71.5h-58v12z" />
    <glyph glyph-name="cacute" unicode="&#x107;" horiz-adv-x="479" 
d="M35 228q18 5 46 20t49 27.5t49.5 30t31.5 19.5q6 4 12 0t6.5 -10.5t-6.5 -11.5q-4 -2 -41 -26.5t-53 -34t-47 -23.5t-57 -19q-5 -1 -6 -1q-11 -2 -14 -1h-6l-2 1q-11 0 -19.5 9.5t-10.5 20.5q-2 2 0 9t1 9t2 8t2.5 7.5t3 7.5t4 7t4.5 6.5t4.5 6t4 5.5t4.5 6q42 56 92 73
q12 3 18 3q24 0 24 -27q-1 -8 -4 -13v-1v-1l-1 -1q-5 -11 -16 -5.5t-7 15.5q0 1 1 2v0.5v1.5q1 0 1 1v2q-10 0 -32 -16q-24 -15 -55 -52q-14 -17 -21 -34q-8 -21 7.5 -25t30.5 4zM224 618q19 23 47.5 66.5t47.5 81.5h106v-10q-21 -31 -66.5 -78.5t-76.5 -71.5h-58v12z" />
    <glyph glyph-name="Ccircumflex" unicode="&#x108;" horiz-adv-x="631" 
d="M220 782q61 65 86 96.5t37 52.5h90q25 -49 125 -149v-11h-62q-44 26 -109 90q-64 -62 -107 -90h-60v11zM487 324q6 5 12 1t6.5 -10.5t-6.5 -11.5q-78 -50 -180 -91.5t-199 -53.5q-40 -5 -72.5 2t-42.5 29q-15 35 19 90q30 47 93 106q107 99 231 146q70 27 125 29
q63 0 74 -29q2 -6 2 -11.5t-1.5 -10t-3 -8.5t-4.5 -8t-5.5 -6.5t-5.5 -6.5t-5 -6q-23 -28 -65 -55q-44 -29 -75 -26q-10 1 -17.5 8t-7.5 19q0 1 0.5 2.5l0.5 1.5q3 15 20 38q8 10 18 1q9 -9 1 -17q-14 -15 -16 -28l1 -1l4 -1q21 -5 60 21q28 19 51 42l9 9q30 30 14 41
q-15 11 -49 9q-53 -2 -118 -27q-121 -47 -224 -143q-60 -56 -88 -101q-38 -57 -10 -77q31 -25 143 1q146 35 311 133z" />
    <glyph glyph-name="ccircumflex" unicode="&#x109;" horiz-adv-x="479" 
d="M118 617q61 65 86 96.5t37 52.5h90q25 -49 125 -149v-11h-62q-44 26 -109 90q-64 -62 -107 -90h-60v11zM35 228q18 5 46 20t49 27.5t49.5 30t31.5 19.5q6 4 12 0t6.5 -10.5t-6.5 -11.5q-4 -2 -41 -26.5t-53 -34t-47 -23.5t-57 -19q-5 -1 -6 -1q-11 -2 -14 -1h-6l-2 1
q-11 0 -19.5 9.5t-10.5 20.5q-2 2 0 9t1 9t2 8t2.5 7.5t3 7.5t4 7t4.5 6.5t4.5 6t4 5.5t4.5 6q42 56 92 73q12 3 18 3q24 0 24 -27q-1 -8 -4 -13v-1v-1l-1 -1q-5 -11 -16 -5.5t-7 15.5q0 1 1 2v0.5v1.5q1 0 1 1v2q-10 0 -32 -16q-24 -15 -55 -52q-14 -17 -21 -34
q-8 -21 7.5 -25t30.5 4z" />
    <glyph glyph-name="Cdotaccent" unicode="&#x10a;" horiz-adv-x="631" 
d="M337 846q0 29 15 42.5t37 13.5q21 0 36 -13.5t15 -42.5t-15.5 -42.5t-35.5 -13.5q-22 0 -37 13.5t-15 42.5zM487 324q6 5 12 1t6.5 -10.5t-6.5 -11.5q-78 -50 -180 -91.5t-199 -53.5q-40 -5 -72.5 2t-42.5 29q-15 35 19 90q30 47 93 106q107 99 231 146q70 27 125 29
q63 0 74 -29q2 -6 2 -11.5t-1.5 -10t-3 -8.5t-4.5 -8t-5.5 -6.5t-5.5 -6.5t-5 -6q-23 -28 -65 -55q-44 -29 -75 -26q-10 1 -17.5 8t-7.5 19q0 1 0.5 2.5l0.5 1.5q3 15 20 38q8 10 18 1q9 -9 1 -17q-14 -15 -16 -28l1 -1l4 -1q21 -5 60 21q28 19 51 42l9 9q30 30 14 41
q-15 11 -49 9q-53 -2 -118 -27q-121 -47 -224 -143q-60 -56 -88 -101q-38 -57 -10 -77q31 -25 143 1q146 35 311 133z" />
    <glyph glyph-name="cdotaccent" unicode="&#x10b;" horiz-adv-x="479" 
d="M241 681q0 29 15 42.5t37 13.5q21 0 36 -13.5t15 -42.5t-15.5 -42.5t-35.5 -13.5q-22 0 -37 13.5t-15 42.5zM35 228q18 5 46 20t49 27.5t49.5 30t31.5 19.5q6 4 12 0t6.5 -10.5t-6.5 -11.5q-4 -2 -41 -26.5t-53 -34t-47 -23.5t-57 -19q-5 -1 -6 -1q-11 -2 -14 -1h-6l-2 1
q-11 0 -19.5 9.5t-10.5 20.5q-2 2 0 9t1 9t2 8t2.5 7.5t3 7.5t4 7t4.5 6.5t4.5 6t4 5.5t4.5 6q42 56 92 73q12 3 18 3q24 0 24 -27q-1 -8 -4 -13v-1v-1l-1 -1q-5 -11 -16 -5.5t-7 15.5q0 1 1 2v0.5v1.5q1 0 1 1v2q-10 0 -32 -16q-24 -15 -55 -52q-14 -17 -21 -34
q-8 -21 7.5 -25t30.5 4z" />
    <glyph glyph-name="Ccaron" unicode="&#x10c;" horiz-adv-x="631" 
d="M220 931h60q56 -36 107 -92q62 62 109 92h62v-13q-100 -100 -125 -147h-90q-29 50 -123 147v13zM487 324q6 5 12 1t6.5 -10.5t-6.5 -11.5q-78 -50 -180 -91.5t-199 -53.5q-40 -5 -72.5 2t-42.5 29q-15 35 19 90q30 47 93 106q107 99 231 146q70 27 125 29q63 0 74 -29
q2 -6 2 -11.5t-1.5 -10t-3 -8.5t-4.5 -8t-5.5 -6.5t-5.5 -6.5t-5 -6q-23 -28 -65 -55q-44 -29 -75 -26q-10 1 -17.5 8t-7.5 19q0 1 0.5 2.5l0.5 1.5q3 15 20 38q8 10 18 1q9 -9 1 -17q-14 -15 -16 -28l1 -1l4 -1q21 -5 60 21q28 19 51 42l9 9q30 30 14 41q-15 11 -49 9
q-53 -2 -118 -27q-121 -47 -224 -143q-60 -56 -88 -101q-38 -57 -10 -77q31 -25 143 1q146 35 311 133z" />
    <glyph glyph-name="ccaron" unicode="&#x10d;" horiz-adv-x="479" 
d="M122 766h60q56 -36 107 -92q62 62 109 92h62v-13q-100 -100 -125 -147h-90q-29 50 -123 147v13zM35 228q18 5 46 20t49 27.5t49.5 30t31.5 19.5q6 4 12 0t6.5 -10.5t-6.5 -11.5q-4 -2 -41 -26.5t-53 -34t-47 -23.5t-57 -19q-5 -1 -6 -1q-11 -2 -14 -1h-6l-2 1
q-11 0 -19.5 9.5t-10.5 20.5q-2 2 0 9t1 9t2 8t2.5 7.5t3 7.5t4 7t4.5 6.5t4.5 6t4 5.5t4.5 6q42 56 92 73q12 3 18 3q24 0 24 -27q-1 -8 -4 -13v-1v-1l-1 -1q-5 -11 -16 -5.5t-7 15.5q0 1 1 2v0.5v1.5q1 0 1 1v2q-10 0 -32 -16q-24 -15 -55 -52q-14 -17 -21 -34
q-8 -21 7.5 -25t30.5 4z" />
    <glyph glyph-name="Dcaron" unicode="&#x10e;" horiz-adv-x="729" 
d="M170 931h60q56 -36 107 -92q62 62 109 92h62v-13q-100 -100 -125 -147h-90q-29 50 -123 147v13zM898 534q8 1 12 1q14 1 26.5 -2.5t21.5 -11.5t12 -19q7 -30 -13 -64q-8 -18 -29 -49q-83 -114 -227 -204q-146 -91 -278 -103q-64 -6 -113 6q-8 1 -10 8t2.5 12.5t11.5 3.5
q2 0 7 -1q2 0 9 -1q3 0 12 -1q93 -10 199 28q160 58 296 190q70 68 96 123q22 48 0 57q-8 3 -23 3q-1 0 -3 -0.5t-4 -0.5h-6l-14 -3q-47 -9 -57 -12l-13 -3l-14 -4q-18 -6 -55 -19q-153 -57 -283 -162q-6 -14 -17 -40t-13 -29l-5 -13q-2 -3 -6 -10.5t-6 -10.5t-5.5 -9
t-6.5 -9.5t-7.5 -8t-9 -8t-9.5 -6.5q-8 -4 -20 -4q-11 1 -16.5 8t-4.5 16t5 19.5t10 20t11 16.5t9 11l10 11q2 3 6.5 7t8 8t6.5 7l23 20q6 6 19 16q0 1 1 3t2 3q10 23 24 48q-121 -82 -232 -136q-7 -4 -20.5 -9.5t-20.5 -8.5t-8 -4l-15 -5q-21 -8 -46.5 -12.5t-53.5 -2.5
t-46 13q-20 11 -27 24q-3 7 1.5 13t11 5.5t10.5 -7.5l2 -3q29 -29 86 -20q17 1 46 10.5t32 9.5q6 3 12.5 6t14.5 6.5t13 5.5q121 57 275 165q29 33 56 44q2 2 8 2q4 4 10 -8q3 -7 0 -7q-2 -6 -11 -12q-45 -33 -48 -36q-22 -25 -37 -56q17 13 38 28q131 87 243 124
q10 3 29 10l14 4l14 4q18 4 59 12l14 3h4zM424 272q-6 -6 -27 -26l-9 -11q-21 -21 -30 -46q-1 -8 0 -10v0q13 0 28 19q12 12 21 34l6 13q3 9 11 27z" />
    <glyph glyph-name="dcaron" unicode="&#x10f;" horiz-adv-x="615" 
d="M575 612q11 32 20.5 77.5t12.5 70.5h87v-9q-6 -26 -27 -71t-45 -80h-48v12zM332 554q9 0 16 -7t7 -16v-5v-1.5v-2.5q-2 -6 -6 -14t-7 -11.5t-10.5 -12t-8.5 -10.5q-45 -53 -102 -110q-54 -53 -105 -94q-7 -6 -12 -10q-19 -51 -24 -98q-3 -41 7 -41h3l4 1q27 13 61 42
q14 11 65 55.5t78 64.5q12 9 44 31q1 1 3.5 2.5t4 2.5t4 2.5t4.5 2t4 1.5t4 0.5t3.5 -1t3.5 -2.5t3 -4q4 -8 -6 -15q-30 -17 -57 -39q-26 -19 -74 -62.5t-67 -60.5q-45 -36 -67 -44q-2 -2 -7.5 -3t-6.5 -2h-9q-2 1 -5 2t-5.5 2.5t-3.5 1.5q-32 33 -3 133l-1 -0.5l-1 -0.5
q-39 -24 -74 -32q-1 0 -3.5 -0.5t-3.5 -0.5h-9q-13 1 -21 9.5t-8 22.5q2 24 27 51q31 36 65 56q31 17 56 17q5 0 12 -1.5t9 -1.5h1q64 119 139 172q33 22 55 28q12 4 24 3zM267 503q-89 -64 -143 -195q100 83 181 182q20 25 24 32q1 3 1 4l0.5 1l0.5 1v1q-1 1 -2 1
q-9 1 -31 -8q-12 -6 -31 -19zM-21 224q2 2 7 2q16 3 31 9.5t35.5 19.5t25.5 16q10 25 24 57q-3 1 -9 0q-15 0 -43 -16q-46 -24 -71 -66q-6 -9 -7 -17v-2q1 -1 3 -1q1 0 1.5 -0.5t1.5 -0.5z" />
    <glyph glyph-name="Dcroat" unicode="&#x110;" horiz-adv-x="729" 
d="M430 345q12 0 25 -1q7 13 15 28q-19 -13 -40 -27zM424 272q-6 -6 -27 -26l-9 -11q-21 -21 -30 -46q-1 -8 0 -10v0q13 0 28 19q12 12 21 34l6 13q3 9 11 27zM898 534q8 1 12 1q14 1 26.5 -2.5t21.5 -11.5t12 -19q7 -30 -13 -64q-8 -18 -29 -49q-83 -114 -227 -204
q-146 -91 -278 -103q-64 -6 -113 6q-8 1 -10 8t2.5 12.5t11.5 3.5q2 0 7 -1q2 0 9 -1q3 0 12 -1q93 -10 199 28q160 58 296 190q70 68 96 123q22 48 0 57q-8 3 -23 3q-1 0 -3 -0.5t-4 -0.5h-6l-14 -3q-47 -9 -57 -12l-13 -3l-14 -4q-18 -6 -55 -19q-123 -46 -235 -126
q19 -1 34.5 -1.5t23.5 -1.5q7 0 9 -6t-1 -11t-10 -5q-11 1 -33.5 1.5t-52.5 1.5q-4 -3 -9 -7t-9 -7q-6 -14 -17 -40t-13 -29l-5 -13q-2 -3 -6 -10.5t-6 -10.5t-5.5 -9t-6.5 -9.5t-7.5 -8t-9 -8t-9.5 -6.5q-8 -4 -20 -4q-11 1 -16.5 8t-4.5 16t5 19.5t10 20t11 16.5t9 11
l10 11q2 3 6.5 7t8 8t6.5 7l23 20q6 6 19 16q0 1 0.5 1.5t0.5 1.5q-13 0 -26 0.5t-25 0.5q-84 -52 -155 -86q-7 -4 -20.5 -9.5t-20.5 -8.5t-8 -4l-15 -5q-21 -8 -46.5 -12.5t-53.5 -2.5t-46 13q-20 11 -27 24q-3 7 1.5 13t11 5.5t10.5 -7.5l2 -3q29 -29 86 -20q17 1 46 10.5
t32 9.5q6 3 12.5 6t14.5 6.5t13 5.5q29 14 59.5 30.5t62.5 35.5h-34q-17 0 -28 -1q-12 0 -13 12q0 12 12 13h8q5 1 21 1q20 0 73 -2q55 35 114 76q29 33 56 44q2 2 8 2q4 4 10 -8q3 -7 0 -7q-2 -6 -11 -12q-45 -33 -48 -36q-22 -25 -37 -56q17 13 38 28q131 87 243 124
q10 3 29 10l14 4l14 4q18 4 59 12l14 3h4z" />
    <glyph glyph-name="dcroat" unicode="&#x111;" horiz-adv-x="617" 
d="M275 -10q-104 0 -162 72t-58 203q0 132 57.5 205t162.5 73q109 0 167 -79h6q-1 7 -3.5 33.5t-2.5 46.5v61h-213v66h213v89h88v-89h76v-66h-76v-605h-72l-13 72h-4q-56 -82 -166 -82zM290 63q80 0 116.5 43t36.5 142v17q0 112 -37 158.5t-118 46.5q-68 0 -104.5 -52
t-36.5 -154q0 -96 35 -148.5t108 -52.5z" />
    <glyph glyph-name="Emacron" unicode="&#x112;" horiz-adv-x="556" 
d="M148 842h297v-71h-297v71zM233 391q-5 0 -11.5 2.5t-11 7.5t-4.5 11l0.5 2l0.5 2q2 11 19 25q28 22 113 61q58 23 91 29q20 3 32 3q11 0 18 -2q11 0 17 -8t6 -20q-14 -42 -32 -28q-5 4 -5 8t2.5 7.5t5.5 7.5t3 8h-1v1h-1q-1 0 -1.5 0.5t-1.5 0.5q-4 1 -12 1
q-20 0 -58 -10q-56 -16 -112 -46l-26 -15q-26 -14 -33 -24q7 -3 19 -3q20 -1 60 4q50 6 60 10q12 0 14.5 -10.5t-8.5 -14.5q-124 -42 -215 -101q-90 -58 -126 -119q-18 -30 -5 -35q17 -5 52 4q24 5 56 18q162 59 324 157q4 2 8 1.5t6.5 -3t3.5 -6t0 -7.5t-5 -6
q-164 -101 -328 -160q-66 -24 -107 -24q-12 0 -21.5 4.5t-15 14t-2.5 22.5q3 15 13 32q40 67 134 129q61 39 131 69q-19 -2 -29 -1q-11 0 -17 1zM478 506z" />
    <glyph glyph-name="emacron" unicode="&#x113;" horiz-adv-x="563" 
d="M150 677h297v-71h-297v71zM37 288v-2v-2v-1q0 -4 3 -7.5t6.5 -5.5t7.5 -2q7 0 10.5 -1t11 1t10.5 3t10.5 4t10 4.5t9 4.5t8.5 4q40 19 68 37q5 3 10.5 -1t5.5 -10t-6 -11q-69 -42 -105 -55q-25 -11 -52 -5t-34 31q0 1 -0.5 2t-0.5 2v1q-8 25 9 57q27 44 79 63q10 5 20 5
h9q4 -1 9 -4t8 -8.5t1 -12.5q-2 -15 -24 -32q-31 -27 -84 -45h-1q-1 -8 1 -14zM96 368q-22 -10 -37 -25q19 11 37 25z" />
    <glyph glyph-name="Ebreve" unicode="&#x114;" horiz-adv-x="556" 
d="M299 771q-69 0 -108.5 33.5t-44.5 100.5h54q4 -35 24.5 -49t76.5 -14q49 0 73 15.5t28 47.5h55q-6 -64 -48 -99t-110 -35zM233 391q-5 0 -11.5 2.5t-11 7.5t-4.5 11l0.5 2l0.5 2q2 11 19 25q28 22 113 61q58 23 91 29q20 3 32 3q11 0 18 -2q11 0 17 -8t6 -20
q-14 -42 -32 -28q-5 4 -5 8t2.5 7.5t5.5 7.5t3 8h-1v1h-1q-1 0 -1.5 0.5t-1.5 0.5q-4 1 -12 1q-20 0 -58 -10q-56 -16 -112 -46l-26 -15q-26 -14 -33 -24q7 -3 19 -3q20 -1 60 4q50 6 60 10q12 0 14.5 -10.5t-8.5 -14.5q-124 -42 -215 -101q-90 -58 -126 -119
q-18 -30 -5 -35q17 -5 52 4q24 5 56 18q162 59 324 157q4 2 8 1.5t6.5 -3t3.5 -6t0 -7.5t-5 -6q-164 -101 -328 -160q-66 -24 -107 -24q-12 0 -21.5 4.5t-15 14t-2.5 22.5q3 15 13 32q40 67 134 129q61 39 131 69q-19 -2 -29 -1q-11 0 -17 1zM478 506z" />
    <glyph glyph-name="ebreve" unicode="&#x115;" horiz-adv-x="563" 
d="M292 606q-69 0 -108.5 33.5t-44.5 100.5h54q4 -35 24.5 -49t76.5 -14q49 0 73 15.5t28 47.5h55q-6 -64 -48 -99t-110 -35zM37 288v-2v-2v-1q0 -4 3 -7.5t6.5 -5.5t7.5 -2q7 0 10.5 -1t11 1t10.5 3t10.5 4t10 4.5t9 4.5t8.5 4q40 19 68 37q5 3 10.5 -1t5.5 -10t-6 -11
q-69 -42 -105 -55q-25 -11 -52 -5t-34 31q0 1 -0.5 2t-0.5 2v1q-8 25 9 57q27 44 79 63q10 5 20 5h9q4 -1 9 -4t8 -8.5t1 -12.5q-2 -15 -24 -32q-31 -27 -84 -45h-1q-1 -8 1 -14zM96 368q-22 -10 -37 -25q19 11 37 25z" />
    <glyph glyph-name="Edotaccent" unicode="&#x116;" horiz-adv-x="556" 
d="M253 832q0 29 15 42.5t37 13.5q21 0 36 -13.5t15 -42.5t-15.5 -42.5t-35.5 -13.5q-22 0 -37 13.5t-15 42.5zM233 391q-5 0 -11.5 2.5t-11 7.5t-4.5 11l0.5 2l0.5 2q2 11 19 25q28 22 113 61q58 23 91 29q20 3 32 3q11 0 18 -2q11 0 17 -8t6 -20q-14 -42 -32 -28
q-5 4 -5 8t2.5 7.5t5.5 7.5t3 8h-1v1h-1q-1 0 -1.5 0.5t-1.5 0.5q-4 1 -12 1q-20 0 -58 -10q-56 -16 -112 -46l-26 -15q-26 -14 -33 -24q7 -3 19 -3q20 -1 60 4q50 6 60 10q12 0 14.5 -10.5t-8.5 -14.5q-124 -42 -215 -101q-90 -58 -126 -119q-18 -30 -5 -35q17 -5 52 4
q24 5 56 18q162 59 324 157q4 2 8 1.5t6.5 -3t3.5 -6t0 -7.5t-5 -6q-164 -101 -328 -160q-66 -24 -107 -24q-12 0 -21.5 4.5t-15 14t-2.5 22.5q3 15 13 32q40 67 134 129q61 39 131 69q-19 -2 -29 -1q-11 0 -17 1zM478 506z" />
    <glyph glyph-name="edotaccent" unicode="&#x117;" horiz-adv-x="563" 
d="M243 681q0 29 15 42.5t37 13.5q21 0 36 -13.5t15 -42.5t-15.5 -42.5t-35.5 -13.5q-22 0 -37 13.5t-15 42.5zM37 288v-2v-2v-1q0 -4 3 -7.5t6.5 -5.5t7.5 -2q7 0 10.5 -1t11 1t10.5 3t10.5 4t10 4.5t9 4.5t8.5 4q40 19 68 37q5 3 10.5 -1t5.5 -10t-6 -11q-69 -42 -105 -55
q-25 -11 -52 -5t-34 31q0 1 -0.5 2t-0.5 2v1q-8 25 9 57q27 44 79 63q10 5 20 5h9q4 -1 9 -4t8 -8.5t1 -12.5q-2 -15 -24 -32q-31 -27 -84 -45h-1q-1 -8 1 -14zM96 368q-22 -10 -37 -25q19 11 37 25z" />
    <glyph glyph-name="Eogonek" unicode="&#x118;" horiz-adv-x="556" 
d="M392 -116q0 -22 12 -33.5t33 -11.5t48 6v-56q-34 -9 -62 -9q-103 0 -103 94q0 68 78 126h62q-34 -32 -51 -58.5t-17 -57.5zM233 391q-5 0 -11.5 2.5t-11 7.5t-4.5 11l0.5 2l0.5 2q2 11 19 25q28 22 113 61q58 23 91 29q20 3 32 3q11 0 18 -2q11 0 17 -8t6 -20
q-14 -42 -32 -28q-5 4 -5 8t2.5 7.5t5.5 7.5t3 8h-1v1h-1q-1 0 -1.5 0.5t-1.5 0.5q-4 1 -12 1q-20 0 -58 -10q-56 -16 -112 -46l-26 -15q-26 -14 -33 -24q7 -3 19 -3q20 -1 60 4q50 6 60 10q12 0 14.5 -10.5t-8.5 -14.5q-124 -42 -215 -101q-90 -58 -126 -119
q-18 -30 -5 -35q17 -5 52 4q24 5 56 18q162 59 324 157q4 2 8 1.5t6.5 -3t3.5 -6t0 -7.5t-5 -6q-164 -101 -328 -160q-66 -24 -107 -24q-12 0 -21.5 4.5t-15 14t-2.5 22.5q3 15 13 32q40 67 134 129q61 39 131 69q-19 -2 -29 -1q-11 0 -17 1zM478 506z" />
    <glyph glyph-name="eogonek" unicode="&#x119;" horiz-adv-x="563" 
d="M387 -102q0 -22 12 -33.5t33 -11.5t48 6v-56q-34 -9 -62 -9q-103 0 -103 94q0 68 78 126h62q-34 -32 -51 -58.5t-17 -57.5zM37 288v-2v-2v-1q0 -4 3 -7.5t6.5 -5.5t7.5 -2q7 0 10.5 -1t11 1t10.5 3t10.5 4t10 4.5t9 4.5t8.5 4q40 19 68 37q5 3 10.5 -1t5.5 -10t-6 -11
q-69 -42 -105 -55q-25 -11 -52 -5t-34 31q0 1 -0.5 2t-0.5 2v1q-8 25 9 57q27 44 79 63q10 5 20 5h9q4 -1 9 -4t8 -8.5t1 -12.5q-2 -15 -24 -32q-31 -27 -84 -45h-1q-1 -8 1 -14zM96 368q-22 -10 -37 -25q19 11 37 25z" />
    <glyph glyph-name="Ecaron" unicode="&#x11a;" horiz-adv-x="556" 
d="M133 931h60q56 -36 107 -92q62 62 109 92h62v-13q-100 -100 -125 -147h-90q-29 50 -123 147v13zM233 391q-5 0 -11.5 2.5t-11 7.5t-4.5 11l0.5 2l0.5 2q2 11 19 25q28 22 113 61q58 23 91 29q20 3 32 3q11 0 18 -2q11 0 17 -8t6 -20q-14 -42 -32 -28q-5 4 -5 8t2.5 7.5
t5.5 7.5t3 8h-1v1h-1q-1 0 -1.5 0.5t-1.5 0.5q-4 1 -12 1q-20 0 -58 -10q-56 -16 -112 -46l-26 -15q-26 -14 -33 -24q7 -3 19 -3q20 -1 60 4q50 6 60 10q12 0 14.5 -10.5t-8.5 -14.5q-124 -42 -215 -101q-90 -58 -126 -119q-18 -30 -5 -35q17 -5 52 4q24 5 56 18
q162 59 324 157q4 2 8 1.5t6.5 -3t3.5 -6t0 -7.5t-5 -6q-164 -101 -328 -160q-66 -24 -107 -24q-12 0 -21.5 4.5t-15 14t-2.5 22.5q3 15 13 32q40 67 134 129q61 39 131 69q-19 -2 -29 -1q-11 0 -17 1zM478 506z" />
    <glyph glyph-name="ecaron" unicode="&#x11b;" horiz-adv-x="563" 
d="M126 766h60q56 -36 107 -92q62 62 109 92h62v-13q-100 -100 -125 -147h-90q-29 50 -123 147v13zM37 288v-2v-2v-1q0 -4 3 -7.5t6.5 -5.5t7.5 -2q7 0 10.5 -1t11 1t10.5 3t10.5 4t10 4.5t9 4.5t8.5 4q40 19 68 37q5 3 10.5 -1t5.5 -10t-6 -11q-69 -42 -105 -55
q-25 -11 -52 -5t-34 31q0 1 -0.5 2t-0.5 2v1q-8 25 9 57q27 44 79 63q10 5 20 5h9q4 -1 9 -4t8 -8.5t1 -12.5q-2 -15 -24 -32q-31 -27 -84 -45h-1q-1 -8 1 -14zM96 368q-22 -10 -37 -25q19 11 37 25z" />
    <glyph glyph-name="Gcircumflex" unicode="&#x11c;" horiz-adv-x="728" 
d="M248 782q61 65 86 96.5t37 52.5h90q25 -49 125 -149v-11h-62q-44 26 -109 90q-64 -62 -107 -90h-60v11zM58 180q-1 -1 -4 -2h-5q-12 2 -17.5 3.5t-12.5 5.5t-11 11q-21 30 14 90q37 62 126 131q99 78 188 110q80 28 122 11q14 -5 23.5 -18t5.5 -31q-3 -22 -36 -49
q-4 -2 -8 -2.5t-6.5 2t-4.5 6t-1 7.5t4 7q24 20 27 35q4 26 -52 22t-129 -44q-140 -79 -217 -174q-2 -3 -5 -7t-8 -11.5t-9 -15t-8 -16t-6 -16t-1.5 -14t5 -10.5t12.5 -5q1 -1 3 -1h4h7q50 10 113 38q127 58 252 131q5 3 10.5 1t7 -7.5t-1.5 -11.5l-26 -37q-35 -50 -87 -108
l-15 -17q-10 -11 -20 -21q6 -1 14 -3.5t18.5 -6.5t15.5 -10.5t1 -12.5q-5 -11 -17 -5q-21 13 -55 16q-5 -4 -15 -13l-9 -8q-23 -19 -37 -29t-38 -23t-47 -20q-13 -2 -14 -2h-4q-9 0 -15 6.5t-6 15t9 22.5q27 33 71 54.5t95 21.5q13 11 34 34l15 16q44 52 57 70q3 3 6.5 8
t7.5 10t6 8q-42 -24 -66 -37t-62 -32.5t-72.5 -34.5t-69.5 -27q-22 -8 -36 -10l-10 -2q-1 -1 -4 -1h-5q0 1 -1 2zM175 110q11 6 29 20t24 18q-34 -6 -66 -23t-49 -40q0 -1 -0.5 -1.5l-1.5 -1.5q38 13 64 28z" />
    <glyph glyph-name="gcircumflex" unicode="&#x11d;" horiz-adv-x="615" 
d="M132 617q61 65 86 96.5t37 52.5h90q25 -49 125 -149v-11h-62q-44 26 -109 90q-64 -62 -107 -90h-60v11zM13 263q0 1 -2 6v1q-3 5 -3 12v10q3 28 30 62q48 59 103 82q17 7 35 8q1 0 4.5 -0.5t5.5 -0.5q13 0 27 -17q4 -6 1 -12.5t-9 -7t-12 4.5l-2 3l-2 1q0 1 -1 1h-0.5
h-1.5q0 1 -2 1l-1 0.5l-1 0.5q-15 0 -31 -7q-33 -14 -61.5 -40.5t-45.5 -58.5q-7 -13 -8 -24v-6v-4v-1q1 -1 1.5 -2t0.5 -2v-1q8 -7 46 12q11 5 21.5 11.5t22 14.5t18.5 13.5t20.5 16t18.5 14.5q3 2 8 6t9 7.5t7 6.5q7 7 14.5 1t5.5 -14q-11 -33 -33 -90q40 18 78 38l28 16
q7 4 13 0t5.5 -10.5t-6.5 -11.5q-32 -18 -114 -57l-18 -9q-41 -100 -82 -168q-13 -20 -19.5 -29.5t-19.5 -24t-27 -23.5q-18 -14 -43.5 -18t-48.5 10q-17 13 -18 41.5t10 50.5q16 35 49 69l11 11q46 38 80 58q25 13 58 28l29 14q22 54 28 69q-8 -6 -27.5 -20.5t-34.5 -24.5
t-30 -18q-33 -16 -50 -16q-15 -2 -34 16v1zM75 84q33 55 69 135q-86 -43 -128 -86l-1 -1l-1 -1l-1 -1l-1 -1l-1 -1l-1 -1l-1 -1l-1 -1l-1 -1l-1 -1l-1 -1l-1 -1l-1 -1l-1 -1l-1 -1l-2 -1q-38 -38 -44 -81q-3 -21 8 -28t26 -3t29 13q23 13 57 66z" />
    <glyph glyph-name="Gbreve" unicode="&#x11e;" horiz-adv-x="728" 
d="M414 771q-69 0 -108.5 33.5t-44.5 100.5h54q4 -35 24.5 -49t76.5 -14q49 0 73 15.5t28 47.5h55q-6 -64 -48 -99t-110 -35zM58 180q-1 -1 -4 -2h-5q-12 2 -17.5 3.5t-12.5 5.5t-11 11q-21 30 14 90q37 62 126 131q99 78 188 110q80 28 122 11q14 -5 23.5 -18t5.5 -31
q-3 -22 -36 -49q-4 -2 -8 -2.5t-6.5 2t-4.5 6t-1 7.5t4 7q24 20 27 35q4 26 -52 22t-129 -44q-140 -79 -217 -174q-2 -3 -5 -7t-8 -11.5t-9 -15t-8 -16t-6 -16t-1.5 -14t5 -10.5t12.5 -5q1 -1 3 -1h4h7q50 10 113 38q127 58 252 131q5 3 10.5 1t7 -7.5t-1.5 -11.5l-26 -37
q-35 -50 -87 -108l-15 -17q-10 -11 -20 -21q6 -1 14 -3.5t18.5 -6.5t15.5 -10.5t1 -12.5q-5 -11 -17 -5q-21 13 -55 16q-5 -4 -15 -13l-9 -8q-23 -19 -37 -29t-38 -23t-47 -20q-13 -2 -14 -2h-4q-9 0 -15 6.5t-6 15t9 22.5q27 33 71 54.5t95 21.5q13 11 34 34l15 16
q44 52 57 70q3 3 6.5 8t7.5 10t6 8q-42 -24 -66 -37t-62 -32.5t-72.5 -34.5t-69.5 -27q-22 -8 -36 -10l-10 -2q-1 -1 -4 -1h-5q0 1 -1 2zM175 110q11 6 29 20t24 18q-34 -6 -66 -23t-49 -40q0 -1 -0.5 -1.5l-1.5 -1.5q38 13 64 28z" />
    <glyph glyph-name="gbreve" unicode="&#x11f;" horiz-adv-x="615" 
d="M300 606q-69 0 -108.5 33.5t-44.5 100.5h54q4 -35 24.5 -49t76.5 -14q49 0 73 15.5t28 47.5h55q-6 -64 -48 -99t-110 -35zM13 263q0 1 -2 6v1q-3 5 -3 12v10q3 28 30 62q48 59 103 82q17 7 35 8q1 0 4.5 -0.5t5.5 -0.5q13 0 27 -17q4 -6 1 -12.5t-9 -7t-12 4.5l-2 3l-2 1
q0 1 -1 1h-0.5h-1.5q0 1 -2 1l-1 0.5l-1 0.5q-15 0 -31 -7q-33 -14 -61.5 -40.5t-45.5 -58.5q-7 -13 -8 -24v-6v-4v-1q1 -1 1.5 -2t0.5 -2v-1q8 -7 46 12q11 5 21.5 11.5t22 14.5t18.5 13.5t20.5 16t18.5 14.5q3 2 8 6t9 7.5t7 6.5q7 7 14.5 1t5.5 -14q-11 -33 -33 -90
q40 18 78 38l28 16q7 4 13 0t5.5 -10.5t-6.5 -11.5q-32 -18 -114 -57l-18 -9q-41 -100 -82 -168q-13 -20 -19.5 -29.5t-19.5 -24t-27 -23.5q-18 -14 -43.5 -18t-48.5 10q-17 13 -18 41.5t10 50.5q16 35 49 69l11 11q46 38 80 58q25 13 58 28l29 14q22 54 28 69
q-8 -6 -27.5 -20.5t-34.5 -24.5t-30 -18q-33 -16 -50 -16q-15 -2 -34 16v1zM75 84q33 55 69 135q-86 -43 -128 -86l-1 -1l-1 -1l-1 -1l-1 -1l-1 -1l-1 -1l-1 -1l-1 -1l-1 -1l-1 -1l-1 -1l-1 -1l-1 -1l-1 -1l-1 -1l-2 -1q-38 -38 -44 -81q-3 -21 8 -28t26 -3t29 13
q23 13 57 66z" />
    <glyph glyph-name="Gdotaccent" unicode="&#x120;" horiz-adv-x="728" 
d="M371 846q0 29 15 42.5t37 13.5q21 0 36 -13.5t15 -42.5t-15.5 -42.5t-35.5 -13.5q-22 0 -37 13.5t-15 42.5zM58 180q-1 -1 -4 -2h-5q-12 2 -17.5 3.5t-12.5 5.5t-11 11q-21 30 14 90q37 62 126 131q99 78 188 110q80 28 122 11q14 -5 23.5 -18t5.5 -31q-3 -22 -36 -49
q-4 -2 -8 -2.5t-6.5 2t-4.5 6t-1 7.5t4 7q24 20 27 35q4 26 -52 22t-129 -44q-140 -79 -217 -174q-2 -3 -5 -7t-8 -11.5t-9 -15t-8 -16t-6 -16t-1.5 -14t5 -10.5t12.5 -5q1 -1 3 -1h4h7q50 10 113 38q127 58 252 131q5 3 10.5 1t7 -7.5t-1.5 -11.5l-26 -37q-35 -50 -87 -108
l-15 -17q-10 -11 -20 -21q6 -1 14 -3.5t18.5 -6.5t15.5 -10.5t1 -12.5q-5 -11 -17 -5q-21 13 -55 16q-5 -4 -15 -13l-9 -8q-23 -19 -37 -29t-38 -23t-47 -20q-13 -2 -14 -2h-4q-9 0 -15 6.5t-6 15t9 22.5q27 33 71 54.5t95 21.5q13 11 34 34l15 16q44 52 57 70q3 3 6.5 8
t7.5 10t6 8q-42 -24 -66 -37t-62 -32.5t-72.5 -34.5t-69.5 -27q-22 -8 -36 -10l-10 -2q-1 -1 -4 -1h-5q0 1 -1 2zM175 110q11 6 29 20t24 18q-34 -6 -66 -23t-49 -40q0 -1 -0.5 -1.5l-1.5 -1.5q38 13 64 28z" />
    <glyph glyph-name="gdotaccent" unicode="&#x121;" horiz-adv-x="615" 
d="M247 681q0 29 15 42.5t37 13.5q21 0 36 -13.5t15 -42.5t-15.5 -42.5t-35.5 -13.5q-22 0 -37 13.5t-15 42.5zM13 263q0 1 -2 6v1q-3 5 -3 12v10q3 28 30 62q48 59 103 82q17 7 35 8q1 0 4.5 -0.5t5.5 -0.5q13 0 27 -17q4 -6 1 -12.5t-9 -7t-12 4.5l-2 3l-2 1q0 1 -1 1
h-0.5h-1.5q0 1 -2 1l-1 0.5l-1 0.5q-15 0 -31 -7q-33 -14 -61.5 -40.5t-45.5 -58.5q-7 -13 -8 -24v-6v-4v-1q1 -1 1.5 -2t0.5 -2v-1q8 -7 46 12q11 5 21.5 11.5t22 14.5t18.5 13.5t20.5 16t18.5 14.5q3 2 8 6t9 7.5t7 6.5q7 7 14.5 1t5.5 -14q-11 -33 -33 -90q40 18 78 38
l28 16q7 4 13 0t5.5 -10.5t-6.5 -11.5q-32 -18 -114 -57l-18 -9q-41 -100 -82 -168q-13 -20 -19.5 -29.5t-19.5 -24t-27 -23.5q-18 -14 -43.5 -18t-48.5 10q-17 13 -18 41.5t10 50.5q16 35 49 69l11 11q46 38 80 58q25 13 58 28l29 14q22 54 28 69q-8 -6 -27.5 -20.5
t-34.5 -24.5t-30 -18q-33 -16 -50 -16q-15 -2 -34 16v1zM75 84q33 55 69 135q-86 -43 -128 -86l-1 -1l-1 -1l-1 -1l-1 -1l-1 -1l-1 -1l-1 -1l-1 -1l-1 -1l-1 -1l-1 -1l-1 -1l-1 -1l-1 -1l-1 -1l-2 -1q-38 -38 -44 -81q-3 -21 8 -28t26 -3t29 13q23 13 57 66z" />
    <glyph glyph-name="uni0122" unicode="&#x122;" horiz-adv-x="728" 
d="M322 -209q11 25 24 70.5t17 77.5h87v-9q-8 -31 -31.5 -76.5t-48.5 -74.5h-48v12zM58 180q-1 -1 -4 -2h-5q-12 2 -17.5 3.5t-12.5 5.5t-11 11q-21 30 14 90q37 62 126 131q99 78 188 110q80 28 122 11q14 -5 23.5 -18t5.5 -31q-3 -22 -36 -49q-4 -2 -8 -2.5t-6.5 2t-4.5 6
t-1 7.5t4 7q24 20 27 35q4 26 -52 22t-129 -44q-140 -79 -217 -174q-2 -3 -5 -7t-8 -11.5t-9 -15t-8 -16t-6 -16t-1.5 -14t5 -10.5t12.5 -5q1 -1 3 -1h4h7q50 10 113 38q127 58 252 131q5 3 10.5 1t7 -7.5t-1.5 -11.5l-26 -37q-35 -50 -87 -108l-15 -17q-10 -11 -20 -21
q6 -1 14 -3.5t18.5 -6.5t15.5 -10.5t1 -12.5q-5 -11 -17 -5q-21 13 -55 16q-5 -4 -15 -13l-9 -8q-23 -19 -37 -29t-38 -23t-47 -20q-13 -2 -14 -2h-4q-9 0 -15 6.5t-6 15t9 22.5q27 33 71 54.5t95 21.5q13 11 34 34l15 16q44 52 57 70q3 3 6.5 8t7.5 10t6 8q-42 -24 -66 -37
t-62 -32.5t-72.5 -34.5t-69.5 -27q-22 -8 -36 -10l-10 -2q-1 -1 -4 -1h-5q0 1 -1 2zM175 110q11 6 29 20t24 18q-34 -6 -66 -23t-49 -40q0 -1 -0.5 -1.5l-1.5 -1.5q38 13 64 28z" />
    <glyph glyph-name="uni0123" unicode="&#x123;" horiz-adv-x="615" 
d="M379 754q-13 -29 -26 -74.5t-16 -73.5h-87v9q7 27 31.5 74t48.5 77h49v-12zM13 263q0 1 -2 6v1q-3 5 -3 12v10q3 28 30 62q48 59 103 82q17 7 35 8q1 0 4.5 -0.5t5.5 -0.5q13 0 27 -17q4 -6 1 -12.5t-9 -7t-12 4.5l-2 3l-2 1q0 1 -1 1h-0.5h-1.5q0 1 -2 1l-1 0.5l-1 0.5
q-15 0 -31 -7q-33 -14 -61.5 -40.5t-45.5 -58.5q-7 -13 -8 -24v-6v-4v-1q1 -1 1.5 -2t0.5 -2v-1q8 -7 46 12q11 5 21.5 11.5t22 14.5t18.5 13.5t20.5 16t18.5 14.5q3 2 8 6t9 7.5t7 6.5q7 7 14.5 1t5.5 -14q-11 -33 -33 -90q40 18 78 38l28 16q7 4 13 0t5.5 -10.5
t-6.5 -11.5q-32 -18 -114 -57l-18 -9q-41 -100 -82 -168q-13 -20 -19.5 -29.5t-19.5 -24t-27 -23.5q-18 -14 -43.5 -18t-48.5 10q-17 13 -18 41.5t10 50.5q16 35 49 69l11 11q46 38 80 58q25 13 58 28l29 14q22 54 28 69q-8 -6 -27.5 -20.5t-34.5 -24.5t-30 -18
q-33 -16 -50 -16q-15 -2 -34 16v1zM75 84q33 55 69 135q-86 -43 -128 -86l-1 -1l-1 -1l-1 -1l-1 -1l-1 -1l-1 -1l-1 -1l-1 -1l-1 -1l-1 -1l-1 -1l-1 -1l-1 -1l-1 -1l-1 -1l-2 -1q-38 -38 -44 -81q-3 -21 8 -28t26 -3t29 13q23 13 57 66z" />
    <glyph glyph-name="Hcircumflex" unicode="&#x124;" horiz-adv-x="741" 
d="M200 782q61 65 86 96.5t37 52.5h90q25 -49 125 -149v-11h-62q-44 26 -109 90q-64 -62 -107 -90h-60v11zM671 307q10 1 42 7h1q12 2 14.5 -9.5t-9.5 -15.5h-1q-1 0 -4.5 -0.5t-5.5 -0.5q-35 -5 -39 -6h-6h-5q-64 -105 -86 -136q-19 -27 -42 -50q-1 -1 -3.5 -2.5t-3.5 -2.5
q-10 -5 -19 -5q-16 -1 -33 6.5t-26 14.5t-22 19q-34 32 -62 75q-43 -57 -80 -75q-1 -1 -3 -2q-7 -3 -11 -4t-9 0t-7 7q-5 12 7 16q1 0 11 5q38 21 79 74q-25 44 -27 76v15q7 28 44 28q23 0 57 -7q9 14 29 47t32 50l13 18q-52 -28 -139 -70q-162 -77 -245 -108
q-30 -12 -57 -19q-17 -4 -23 -4h-11q-13 0 -20 13v1v2q-1 4 1 13q3 11 15 8.5t9 -14.5h5q7 0 20 3q40 10 125 45q185 79 357 174q2 2 12.5 13t15 15t14.5 10.5t19 9.5h5h2q3 0 6 -3.5t3 -6.5v-3q0 -1 -0.5 -2t-0.5 -2q-1 -4 -8 -11q-17 -17 -48 -34q-1 0 -3 -1t-2 -2
q-44 -48 -100 -143q0 -1 -1 -2t-1 -2q8 -1 27 -5t27 -5.5t27 -5.5t27.5 -4.5t28 -3t29 -1.5t30.5 1q2 3 14 24t15.5 26.5t14.5 24t15.5 26.5t14.5 23.5t16 24.5t14.5 21t15.5 21.5t14 18.5q17 20 27 11q10 -7 1 -17q-11 -11 -31 -40q-36 -51 -102 -162zM343 308l-1 -2v-1
q0 -1 0.5 -3t0.5 -3q1 -18 18 -57q25 35 47 70q-27 5 -43 5q-19 0 -22 -8v-1zM433 308q-42 -64 -59 -87q50 -82 105 -108q13 -5 22 -4h3h1l6 2l1 1q1 0 6 5q22 22 62 85q23 36 48 78q-17 0 -34.5 1.5t-30.5 2.5t-33.5 5t-29.5 5.5t-32.5 6.5t-29.5 6q-1 0 -3 0.5z" />
    <glyph glyph-name="hcircumflex" unicode="&#x125;" horiz-adv-x="618" 
d="M143 809q61 65 86 96.5t37 52.5h90q25 -49 125 -149v-11h-62q-44 26 -109 90q-64 -62 -107 -90h-60v11zM106 320h8q17 -6 23 -13.5t9.5 -20l7 -25t8.5 -19.5q3 -4 8 -5.5t11 0t12.5 4.5t14 8t14 9t14 10t12 10t10 8.5t6.5 4.5q38 29 45 33q13 8 20 -2q3 -3 1.5 -9
t-6.5 -8q-9 -6 -36 -26.5t-51.5 -37t-41.5 -22.5q-11 -3 -16 -3h-9q-15 0 -23 9t-10.5 20t-6 25t-8.5 21q-7 10 -17 8q-15 -3 -33 -18q-35 -26 -76 -77q-5 -4 -11 -4t-10 5t-1 11q24 76 58 138q22 42 51 85l14 21q5 6 15 19.5t15 19.5q2 2 9.5 11.5t10 12.5t9 11t10.5 11.5
t10.5 9t13 9.5t12.5 7q25 9 39 -2q24 -22 9 -81q-4 -15 -17 -31q-32 -42 -114 -99q-49 -33 -73 -47l-19 -38q0 -1 -1 -3q15 14 22.5 20.5t23 16t29.5 12.5q1 0 2.5 0.5t2.5 0.5zM109 421q-5 -7 -42 -69q66 43 112 86l10.5 10.5t10.5 11t11 13t8 13.5t6 16.5t1.5 17.5
t-2.5 21l-2 3h-1q-8 0 -23 -13q-18 -15 -47 -52q-18 -21 -29 -38z" />
    <glyph glyph-name="Hbar" unicode="&#x126;" horiz-adv-x="741" 
d="M97 595v119h90v-119h366v119h90v-119h97v-72h-97v-523h-90v333h-366v-333h-90v523h-97v72h97zM553 412v111h-366v-111h366z" />
    <glyph glyph-name="hbar" unicode="&#x127;" horiz-adv-x="618" 
d="M450 0v323q0 65 -29 97t-91 32q-83 0 -120 -45t-37 -149v-258h-88v604h-76v66h76v90h88v-90h212v-66h-212v-87q0 -43 -5 -74h6q26 42 70.5 62.5t97.5 20.5q97 0 146 -47t49 -150v-329h-87z" />
    <glyph glyph-name="Itilde" unicode="&#x128;" horiz-adv-x="338" 
d="M244 772q-21 0 -41 9t-39.5 19.5t-37 19.5t-34.5 9q-24 0 -36 -14.5t-19 -43.5h-51q6 60 34 94t76 34q22 0 42.5 -9t39.5 -19.5t37 -19.5t33 -9q23 0 35.5 14.5t19.5 43.5h50q-6 -58 -34 -93t-75 -35zM649 526q11 0 10 -14v-1l-1 -1q-1 -1 -1 -2q-5 -9 -22.5 -18.5
t-21.5 -16.5q-23 -26 -45 -66.5t-31.5 -61t-32.5 -76.5q-39 -87 -63 -118q-26 -34 -45 -38q-10 -1 -13 8q-7 10 13 21q2 1 3 1q9 7 23 23q9 11 19 27.5t21.5 40.5t18.5 39.5t21 46t17 38.5q22 49 46 87q1 2 5 7.5t6 7.5q-164 -71 -303 -110q-98 -27 -159 -33q-77 -7 -108 27
q-8 14 2 20q9 6 18 -4q0 -1 2 -2l0.5 -1l0.5 -1q29 -32 155 -8q69 12 177 49q149 51 244 100q1 1 11 9q12 11 24 17l1 1l4 2h2h2z" />
    <glyph glyph-name="itilde" unicode="&#x129;" horiz-adv-x="257" 
d="M204 607q-21 0 -41 9t-39.5 19.5t-37 19.5t-34.5 9q-24 0 -36 -14.5t-19 -43.5h-51q6 60 34 94t76 34q22 0 42.5 -9t39.5 -19.5t37 -19.5t33 -9q23 0 35.5 14.5t19.5 43.5h50q-6 -58 -34 -93t-75 -35zM173 0h-88v536h88v-536z" />
    <glyph glyph-name="Imacron" unicode="&#x12a;" horiz-adv-x="338" 
d="M21 842h297v-71h-297v71zM649 526q11 0 10 -14v-1l-1 -1q-1 -1 -1 -2q-5 -9 -22.5 -18.5t-21.5 -16.5q-23 -26 -45 -66.5t-31.5 -61t-32.5 -76.5q-39 -87 -63 -118q-26 -34 -45 -38q-10 -1 -13 8q-7 10 13 21q2 1 3 1q9 7 23 23q9 11 19 27.5t21.5 40.5t18.5 39.5t21 46
t17 38.5q22 49 46 87q1 2 5 7.5t6 7.5q-164 -71 -303 -110q-98 -27 -159 -33q-77 -7 -108 27q-8 14 2 20q9 6 18 -4q0 -1 2 -2l0.5 -1l0.5 -1q29 -32 155 -8q69 12 177 49q149 51 244 100q1 1 11 9q12 11 24 17l1 1l4 2h2h2z" />
    <glyph glyph-name="imacron" unicode="&#x12b;" horiz-adv-x="257" 
d="M-18 677h297v-71h-297v71zM173 0h-88v536h88v-536z" />
    <glyph glyph-name="Ibreve" unicode="&#x12c;" horiz-adv-x="338" 
d="M168 771q-69 0 -108.5 33.5t-44.5 100.5h54q4 -35 24.5 -49t76.5 -14q49 0 73 15.5t28 47.5h55q-6 -64 -48 -99t-110 -35zM649 526q11 0 10 -14v-1l-1 -1q-1 -1 -1 -2q-5 -9 -22.5 -18.5t-21.5 -16.5q-23 -26 -45 -66.5t-31.5 -61t-32.5 -76.5q-39 -87 -63 -118
q-26 -34 -45 -38q-10 -1 -13 8q-7 10 13 21q2 1 3 1q9 7 23 23q9 11 19 27.5t21.5 40.5t18.5 39.5t21 46t17 38.5q22 49 46 87q1 2 5 7.5t6 7.5q-164 -71 -303 -110q-98 -27 -159 -33q-77 -7 -108 27q-8 14 2 20q9 6 18 -4q0 -1 2 -2l0.5 -1l0.5 -1q29 -32 155 -8
q69 12 177 49q149 51 244 100q1 1 11 9q12 11 24 17l1 1l4 2h2h2z" />
    <glyph glyph-name="ibreve" unicode="&#x12d;" horiz-adv-x="257" 
d="M126 606q-69 0 -108.5 33.5t-44.5 100.5h54q4 -35 24.5 -49t76.5 -14q49 0 73 15.5t28 47.5h55q-6 -64 -48 -99t-110 -35zM173 0h-88v536h88v-536z" />
    <glyph glyph-name="Iogonek" unicode="&#x12e;" horiz-adv-x="338" 
d="M160 -116q0 -22 12 -33.5t33 -11.5t48 6v-56q-34 -9 -62 -9q-103 0 -103 94q0 68 78 126h62q-34 -32 -51 -58.5t-17 -57.5zM649 526q11 0 10 -14v-1l-1 -1q-1 -1 -1 -2q-5 -9 -22.5 -18.5t-21.5 -16.5q-23 -26 -45 -66.5t-31.5 -61t-32.5 -76.5q-39 -87 -63 -118
q-26 -34 -45 -38q-10 -1 -13 8q-7 10 13 21q2 1 3 1q9 7 23 23q9 11 19 27.5t21.5 40.5t18.5 39.5t21 46t17 38.5q22 49 46 87q1 2 5 7.5t6 7.5q-164 -71 -303 -110q-98 -27 -159 -33q-77 -7 -108 27q-8 14 2 20q9 6 18 -4q0 -1 2 -2l0.5 -1l0.5 -1q29 -32 155 -8
q69 12 177 49q149 51 244 100q1 1 11 9q12 11 24 17l1 1l4 2h2h2z" />
    <glyph glyph-name="iogonek" unicode="&#x12f;" horiz-adv-x="257" 
d="M97 -116q0 -22 12 -33.5t33 -11.5t48 6v-56q-34 -9 -62 -9q-103 0 -103 94q0 68 78 126h62q-34 -32 -51 -58.5t-17 -57.5zM41 239q-15 7 -14 23.5t7.5 28.5t14.5 23q-14 -9 -20 -12t-11.5 1t-5.5 11t7 11q82 45 109 61q6 4 12 0.5t6.5 -10t-4.5 -12.5v-1q-9 -5 -31 -24
q-39 -39 -50 -59q-5 -8 -7 -15v-1h2q9 0 27 7q53 19 109 54q12 7 16 -7q3 -10 -5 -16q-4 -2 -31 -18t-38 -22t-33.5 -14.5t-42.5 -11.5h-7q-7 2 -10 3zM194 436q1 0 4.5 1t6.5 2l6 2t5 3t2 4q10 10 21 1q16 -14 -18 -30q-18 -9 -30 -9h-4q-6 0 -16 11l-1 3q-5 12 6 16
q4 1 9.5 -1.5l5.5 -2.5h1.5h1.5zM192 434q0 -2 1 -2z" />
    <glyph glyph-name="Idotaccent" unicode="&#x130;" horiz-adv-x="338" 
d="M117 846q0 29 15 42.5t37 13.5q21 0 36 -13.5t15 -42.5t-15.5 -42.5t-35.5 -13.5q-22 0 -37 13.5t-15 42.5zM649 526q11 0 10 -14v-1l-1 -1q-1 -1 -1 -2q-5 -9 -22.5 -18.5t-21.5 -16.5q-23 -26 -45 -66.5t-31.5 -61t-32.5 -76.5q-39 -87 -63 -118q-26 -34 -45 -38
q-10 -1 -13 8q-7 10 13 21q2 1 3 1q9 7 23 23q9 11 19 27.5t21.5 40.5t18.5 39.5t21 46t17 38.5q22 49 46 87q1 2 5 7.5t6 7.5q-164 -71 -303 -110q-98 -27 -159 -33q-77 -7 -108 27q-8 14 2 20q9 6 18 -4q0 -1 2 -2l0.5 -1l0.5 -1q29 -32 155 -8q69 12 177 49
q149 51 244 100q1 1 11 9q12 11 24 17l1 1l4 2h2h2z" />
    <glyph glyph-name="dotlessi" unicode="&#x131;" horiz-adv-x="257" 
d="M173 0h-88v536h88v-536z" />
    <glyph glyph-name="IJ" unicode="&#x132;" horiz-adv-x="611" 
d="M649 526q11 0 10 -14v-1l-1 -1q-1 -1 -1 -2q-5 -9 -22.5 -18.5t-21.5 -16.5q-23 -26 -45 -66.5t-31.5 -61t-32.5 -76.5q-39 -87 -63 -118q-26 -34 -45 -38q-10 -1 -13 8q-7 10 13 21q2 1 3 1q9 7 23 23q9 11 19 27.5t21.5 40.5t18.5 39.5t21 46t17 38.5q22 49 46 87
q1 2 5 7.5t6 7.5q-164 -71 -303 -110q-98 -27 -159 -33q-77 -7 -108 27q-8 14 2 20q9 6 18 -4q0 -1 2 -2l0.5 -1l0.5 -1q29 -32 155 -8q69 12 177 49q149 51 244 100q1 1 11 9q12 11 24 17l1 1l4 2h2h2zM825 231q3 -12 -9 -14.5t-15 8.5q-2 1 -6 1q-7 2 -16 2t-14.5 -1
t-18.5 -3.5t-16 -2.5q-44 -65 -85 -100q-59 -48 -142 -73q-70 -20 -123 -13q-48 9 -40 39q4 12 20 27q29 22 93 54q135 63 263 89l7 11q89 133 139 256l2 5q-1 -1 -5 -4q-60 -41 -155 -71q-49 -15 -84 -16q-43 0 -68 24l-4 6q-4 6 -0.5 12.5t10 7t11.5 -5.5l1 -1
q8 -24 52 -24q31 -1 79 13q28 8 59 22t61 33t49 38q2 2 3 2q1 1 2 1q0 1 2 1q3 0 7 -2.5t7.5 -5.5t4.5 -5v-0.5v-1.5q1 0 1 -2v-4l-10 -30q-19 -46 -62 -128q-35 -66 -75 -126q54 13 71 -9zM680 193q10 11 17 23q-169 -36 -294 -111q-32 -20 -39 -31q-5 -6 -3 -8
q0 -7 20.5 -9t38.5 -1q33 2 73 13q79 22 134 69q23 19 53 55z" />
    <glyph glyph-name="ij" unicode="&#x133;" horiz-adv-x="514" 
d="M41 239q-15 7 -14 23.5t7.5 28.5t14.5 23q-14 -9 -20 -12t-11.5 1t-5.5 11t7 11q82 45 109 61q6 4 12 0.5t6.5 -10t-4.5 -12.5v-1q-9 -5 -31 -24q-39 -39 -50 -59q-5 -8 -7 -15v-1h2q9 0 27 7q53 19 109 54q12 7 16 -7q3 -10 -5 -16q-4 -2 -31 -18t-38 -22t-33.5 -14.5
t-42.5 -11.5h-7q-7 2 -10 3zM194 436q1 0 4.5 1t6.5 2l6 2t5 3t2 4q10 10 21 1q16 -14 -18 -30q-18 -9 -30 -9h-4q-6 0 -16 11l-1 3q-5 12 6 16q4 1 9.5 -1.5l5.5 -2.5h1.5h1.5zM192 434q0 -2 1 -2zM343 294q38 17 60 31q12 7 18 -5q4 -10 -6 -17q-26 -17 -92 -43
q-36 -59 -80 -129q-4 -5 -10 -15l-8 -10q-1 -1 -2.5 -3t-3 -3.5l-2.5 -2.5q-30 -31 -63 -41q-32 -10 -55.5 8t-14.5 51q4 10 9.5 19t10.5 15.5t14 15t13.5 12t16 12t15.5 11.5q75 51 146 79q17 28 36 66q-27 -23 -49 -36l-10 -6q-10 -7 -16 5q-6 10 4 16l9 6q49 32 63 46
q3 3 18 17q9 5 12 5t6.5 -3t3.5 -6v-3v-4v-1t-0.5 -2l-0.5 -1q-2 -5 -6 -14.5t-6 -14.5q-6 -10 -30 -55zM276 222q9 14 12 24q-85 -42 -139 -82q-3 -4 -12 -12t-13.5 -12.5t-10 -13t-8.5 -17.5q-5 -14 2 -22.5t21 -10.5q6 0 11.5 1t10 2t9.5 3t8.5 3.5t8 5t7 5.5t7 6.5l6 6
t6.5 6t6 6.5l7 8q18 24 61 93zM401 466q0 -3 8 -3q2 0 4 1q10 0 27 19q3 4 7 4.5t7.5 -1.5t5.5 -5t2 -7t-4 -8l-0.5 -0.5t-1.5 -0.5l-1 -1l-3 -3t-4 -3q-26 -17 -39 -17q-16 0 -23 6l-1 1l-2 1q-7 4 -6.5 11t6.5 10.5t13 0.5l3 -3q1 0 2 -2z" />
    <glyph glyph-name="Jcircumflex" unicode="&#x134;" horiz-adv-x="272" 
d="M-31 782q61 65 86 96.5t37 52.5h90q25 -49 125 -149v-11h-62q-44 26 -109 90q-64 -62 -107 -90h-60v11zM486 231q3 -12 -9 -14.5t-15 8.5q-2 1 -6 1q-7 2 -16 2t-14.5 -1t-18.5 -3.5t-16 -2.5q-44 -65 -85 -100q-59 -48 -142 -73q-70 -20 -123 -13q-48 9 -40 39
q4 12 20 27q29 22 93 54q135 63 263 89l7 11q89 133 139 256l2 5q-1 -1 -5 -4q-60 -41 -155 -71q-49 -15 -84 -16q-43 0 -68 24l-4 6q-4 6 -0.5 12.5t10 7t11.5 -5.5l1 -1q8 -24 52 -24q31 -1 79 13q28 8 59 22t61 33t49 38q2 2 3 2q1 1 2 1q0 1 2 1q3 0 7 -2.5t7.5 -5.5
t4.5 -5v-0.5v-1.5q1 0 1 -2v-4l-10 -30q-19 -46 -62 -128q-35 -66 -75 -126q54 13 71 -9zM341 193q10 11 17 23q-169 -36 -294 -111q-32 -20 -39 -31q-5 -6 -3 -8q0 -7 20.5 -9t38.5 -1q33 2 73 13q79 22 134 69q23 19 53 55z" />
    <glyph glyph-name="jcircumflex" unicode="&#x135;" horiz-adv-x="257" 
d="M-42 617q61 65 86 96.5t37 52.5h90q25 -49 125 -149v-11h-62q-44 26 -109 90q-64 -62 -107 -90h-60v11zM22 -240q-46 0 -77 12v71q34 -10 66 -10q38 0 56 21t18 63v619h88v-616q0 -80 -38.5 -120t-112.5 -40z" />
    <glyph glyph-name="uni0136" unicode="&#x136;" horiz-adv-x="619" 
d="M246 -209q11 25 24 70.5t17 77.5h87v-9q-8 -31 -31.5 -76.5t-48.5 -74.5h-48v12zM135 171q7 29 32 84q-1 2 -3 5t-3 5l-10 19q-2 3 -5 10.5t-4 8.5l-9 19q-3 7 1 12t12 5q26 0 31 1q10 0 40 8q43 69 95 136q1 1 2.5 3t2.5 3q-83 -35 -172 -51q-100 -18 -133 9
q-21 16 -7 26q10 8 17 -2q0 -1 2 -2v-1q16 -16 63 -15q18 0 54 6q48 8 106 26.5t99 41.5q4 2 7 4.5t7 7.5t6 6l8 8q7 7 13 10h3h4q3 0 6.5 -3.5t3.5 -7.5v-3q-5 -17 -37 -37q-54 -62 -116 -158q116 36 263 134q63 44 101 89q6 7 17 4q11 -9 -10 -31q-8 -10 -39 -37
q-64 -52 -174 -115q-113 -56 -178 -72q-17 -28 -34 -63q36 -55 64 -76q40 -25 70 -27q7 -2 15 -3t15 -1t16.5 -0.5t15.5 -1.5q5 0 8.5 -4.5t2.5 -9.5q0 -4 -3.5 -7.5t-8.5 -3.5q-6 -1 -21 -1h-6.5h-8h-6.5q-18 0 -44 5q-29 0 -72 35l-9 7q-15 13 -42 52l-0.5 1l-0.5 1
q-6 -13 -14 -37.5t-9 -27.5v-1q-2 -7 -9 -8.5t-12 3.5t-3 12zM182 284q10 18 17 33q0 -1 -2 -1q-7 -1 -18 -2q-3 0 -7.5 -0.5t-6.5 -0.5q2 -3 5 -9t5 -8z" />
    <glyph glyph-name="uni0137" unicode="&#x137;" horiz-adv-x="534" 
d="M203 -209q11 25 24 70.5t17 77.5h87v-9q-8 -31 -31.5 -76.5t-48.5 -74.5h-48v12zM130 209h2q31 10 60.5 30.5t60 46.5t52.5 39q6 4 12.5 0.5t7 -10t-5.5 -11.5q-11 -6 -64 -46q-68 -55 -116 -70h-3q-1 -1 -2.5 -1.5t-3 -0.5h-2.5q-47 -4 -65 27q-8 12 -7 26q0 4 1 7
q-1 -2 -4 -4t-4 -3l-30 -27q-10 -8 -29 -27q-7 -7 -15 -1.5t-6 14.5q15 55 54 143q43 95 88 157l16 20q36 43 60 54q11 8 27 6.5t24 -11.5q11 -14 11 -45q0 -20 -4 -29l-0.5 -0.5t-0.5 -1.5q-9 -28 -46 -63q-59 -57 -161 -122q-20 -49 -28 -69q0 -1 -0.5 -2t-0.5 -2
q59 50 92 71l9 6l9 5q10 6 26 11q2 1 3 1l3 1h11l0.5 -0.5t1.5 -0.5q11 -12 5 -18l-1 -1q-5 -5 -13 -10l-8 -5q-2 -1 -13 -7t-15 -8.5t-12 -8t-13 -10t-10 -10.5v-1v-1l-2 -5l-0.5 -1l-0.5 -1q-1 -1 -1 -3q0 -5 2 -10.5t6 -9.5t9.5 -6.5t10.5 -2.5q7 -2 17 0h2h2zM219 500
q4 8 4 24q0 11 -2 18t-7.5 11t-15.5 -3q-19 -10 -52 -48l-15 -20q-30 -41 -62 -106l-11 -23l-6 -9l11 8q69 47 116 94q27 27 39 51l1 2v1z" />
    <glyph glyph-name="kgreenlandic" unicode="&#x138;" horiz-adv-x="534" 
d="M403 536h106l-203 -237l219 -299h-105l-176 242l-66 -54v-188h-93v536h93v-139q0 -68 -6 -135l41 50z" />
    <glyph glyph-name="Lacute" unicode="&#x139;" horiz-adv-x="523" 
d="M356 548q13 3 16 -10q2 -11 -10 -13l-2 -1h-1h-2q-1 -1 -2 -1l-1 -0.5l-1 -0.5q-1 0 -4 -1h-2q-2 0 -16 -10q-29 -23 -63 -82q-21 -34 -61.5 -118.5t-60.5 -120.5q27 -1 71 -19q57 -23 119 -78q18 -14 8 -25q-8 -10 -25 6q-83 84 -177 94h-8q-32 -50 -87 -63
q-15 -3 -26 -2l-1.5 0.5l-1.5 0.5q-2 0 -4 1q-3 0 -5 2q-3 0 -6 6t-3 10q1 2 1 4t0.5 3.5t1.5 2.5q8 14 25 25t29 15.5t35 12.5q23 3 31 3q17 28 57 112q43 93 69 137q36 63 67 90q14 12 30 18h2h1q0 1 2 1l1.5 0.5l1.5 0.5h2zM89 148l5 4q6 6 11 13h-1q-3 -1 -9 -2.5
t-9 -1.5l-9 -4l-2 -1q-4 -2 -14 -6.5t-15.5 -7.5t-12.5 -8t-12 -10h1q29 -4 67 24zM118 783q19 23 47.5 66.5t47.5 81.5h106v-10q-21 -31 -66.5 -78.5t-76.5 -71.5h-58v12z" />
    <glyph glyph-name="lacute" unicode="&#x13a;" horiz-adv-x="257" 
d="M-6 119h-2h-2.5h-2.5q-68 0 26 194q46 95 117 204q34 49 48 62q27 19 45 18q23 -1 36 -19t13 -41t-6 -46q-12 -35 -40 -64t-54 -45t-67.5 -38.5t-61.5 -35.5q-2 -5 -12 -24.5t-14 -28t-11 -24.5t-11.5 -30t-8.5 -28q-3 -13 -3 -22q0 -1 0.5 -3l0.5 -2h2l2 1q4 0 17 4
q30 12 73 51q3 3 17.5 16t18 16t16.5 14.5t18.5 15.5t17 13.5t19 14.5t17.5 12t19 13q2 1 5.5 3t4.5 3t4 2t4.5 1h3.5t4 -1.5t4 -4.5q6 -10 -5 -17q-55 -31 -150 -119q-56 -49 -100 -64zM-16 146zM241 501q13 37 -6 59q-6 7 -14 7q-13 0 -22 -9l-1 -0.5l-1 -0.5
q-10 -10 -42 -57q-43 -66 -89 -152q94 56 125 83q37 30 50 70zM81 811q19 23 47.5 66.5t47.5 81.5h106v-10q-21 -31 -66.5 -78.5t-76.5 -71.5h-58v12z" />
    <glyph glyph-name="uni013B" unicode="&#x13b;" horiz-adv-x="523" 
d="M204 -209q11 25 24 70.5t17 77.5h87v-9q-8 -31 -31.5 -76.5t-48.5 -74.5h-48v12zM356 548q13 3 16 -10q2 -11 -10 -13l-2 -1h-1h-2q-1 -1 -2 -1l-1 -0.5l-1 -0.5q-1 0 -4 -1h-2q-2 0 -16 -10q-29 -23 -63 -82q-21 -34 -61.5 -118.5t-60.5 -120.5q27 -1 71 -19
q57 -23 119 -78q18 -14 8 -25q-8 -10 -25 6q-83 84 -177 94h-8q-32 -50 -87 -63q-15 -3 -26 -2l-1.5 0.5l-1.5 0.5q-2 0 -4 1q-3 0 -5 2q-3 0 -6 6t-3 10q1 2 1 4t0.5 3.5t1.5 2.5q8 14 25 25t29 15.5t35 12.5q23 3 31 3q17 28 57 112q43 93 69 137q36 63 67 90q14 12 30 18
h2h1q0 1 2 1l1.5 0.5l1.5 0.5h2zM89 148l5 4q6 6 11 13h-1q-3 -1 -9 -2.5t-9 -1.5l-9 -4l-2 -1q-4 -2 -14 -6.5t-15.5 -7.5t-12.5 -8t-12 -10h1q29 -4 67 24z" />
    <glyph glyph-name="uni013C" unicode="&#x13c;" horiz-adv-x="257" 
d="M45 -209q11 25 24 70.5t17 77.5h87v-9q-8 -31 -31.5 -76.5t-48.5 -74.5h-48v12zM-6 119h-2h-2.5h-2.5q-68 0 26 194q46 95 117 204q34 49 48 62q27 19 45 18q23 -1 36 -19t13 -41t-6 -46q-12 -35 -40 -64t-54 -45t-67.5 -38.5t-61.5 -35.5q-2 -5 -12 -24.5t-14 -28
t-11 -24.5t-11.5 -30t-8.5 -28q-3 -13 -3 -22q0 -1 0.5 -3l0.5 -2h2l2 1q4 0 17 4q30 12 73 51q3 3 17.5 16t18 16t16.5 14.5t18.5 15.5t17 13.5t19 14.5t17.5 12t19 13q2 1 5.5 3t4.5 3t4 2t4.5 1h3.5t4 -1.5t4 -4.5q6 -10 -5 -17q-55 -31 -150 -119q-56 -49 -100 -64z
M-16 146zM241 501q13 37 -6 59q-6 7 -14 7q-13 0 -22 -9l-1 -0.5l-1 -0.5q-10 -10 -42 -57q-43 -66 -89 -152q94 56 125 83q37 30 50 70z" />
    <glyph glyph-name="Lcaron" unicode="&#x13d;" horiz-adv-x="523" 
d="M333 567q11 32 20.5 77.5t12.5 70.5h87v-9q-6 -26 -27 -71t-45 -80h-48v12zM356 548q13 3 16 -10q2 -11 -10 -13l-2 -1h-1h-2q-1 -1 -2 -1l-1 -0.5l-1 -0.5q-1 0 -4 -1h-2q-2 0 -16 -10q-29 -23 -63 -82q-21 -34 -61.5 -118.5t-60.5 -120.5q27 -1 71 -19q57 -23 119 -78
q18 -14 8 -25q-8 -10 -25 6q-83 84 -177 94h-8q-32 -50 -87 -63q-15 -3 -26 -2l-1.5 0.5l-1.5 0.5q-2 0 -4 1q-3 0 -5 2q-3 0 -6 6t-3 10q1 2 1 4t0.5 3.5t1.5 2.5q8 14 25 25t29 15.5t35 12.5q23 3 31 3q17 28 57 112q43 93 69 137q36 63 67 90q14 12 30 18h2h1q0 1 2 1
l1.5 0.5l1.5 0.5h2zM89 148l5 4q6 6 11 13h-1q-3 -1 -9 -2.5t-9 -1.5l-9 -4l-2 -1q-4 -2 -14 -6.5t-15.5 -7.5t-12.5 -8t-12 -10h1q29 -4 67 24z" />
    <glyph glyph-name="lcaron" unicode="&#x13e;" horiz-adv-x="257" 
d="M219 612q11 32 20.5 77.5t12.5 70.5h87v-9q-6 -26 -27 -71t-45 -80h-48v12zM-6 119h-2h-2.5h-2.5q-68 0 26 194q46 95 117 204q34 49 48 62q27 19 45 18q23 -1 36 -19t13 -41t-6 -46q-12 -35 -40 -64t-54 -45t-67.5 -38.5t-61.5 -35.5q-2 -5 -12 -24.5t-14 -28t-11 -24.5
t-11.5 -30t-8.5 -28q-3 -13 -3 -22q0 -1 0.5 -3l0.5 -2h2l2 1q4 0 17 4q30 12 73 51q3 3 17.5 16t18 16t16.5 14.5t18.5 15.5t17 13.5t19 14.5t17.5 12t19 13q2 1 5.5 3t4.5 3t4 2t4.5 1h3.5t4 -1.5t4 -4.5q6 -10 -5 -17q-55 -31 -150 -119q-56 -49 -100 -64zM-16 146z
M241 501q13 37 -6 59q-6 7 -14 7q-13 0 -22 -9l-1 -0.5l-1 -0.5q-10 -10 -42 -57q-43 -66 -89 -152q94 56 125 83q37 30 50 70z" />
    <glyph glyph-name="Ldot" unicode="&#x13f;" horiz-adv-x="523" 
d="M332 357q0 29 15 42.5t37 13.5q21 0 36 -13.5t15 -42.5t-15.5 -42.5t-35.5 -13.5q-22 0 -37 13.5t-15 42.5zM356 548q13 3 16 -10q2 -11 -10 -13l-2 -1h-1h-2q-1 -1 -2 -1l-1 -0.5l-1 -0.5q-1 0 -4 -1h-2q-2 0 -16 -10q-29 -23 -63 -82q-21 -34 -61.5 -118.5
t-60.5 -120.5q27 -1 71 -19q57 -23 119 -78q18 -14 8 -25q-8 -10 -25 6q-83 84 -177 94h-8q-32 -50 -87 -63q-15 -3 -26 -2l-1.5 0.5l-1.5 0.5q-2 0 -4 1q-3 0 -5 2q-3 0 -6 6t-3 10q1 2 1 4t0.5 3.5t1.5 2.5q8 14 25 25t29 15.5t35 12.5q23 3 31 3q17 28 57 112
q43 93 69 137q36 63 67 90q14 12 30 18h2h1q0 1 2 1l1.5 0.5l1.5 0.5h2zM89 148l5 4q6 6 11 13h-1q-3 -1 -9 -2.5t-9 -1.5l-9 -4l-2 -1q-4 -2 -14 -6.5t-15.5 -7.5t-12.5 -8t-12 -10h1q29 -4 67 24z" />
    <glyph glyph-name="ldot" unicode="&#x140;" horiz-adv-x="325" 
d="M240 333q0 29 15 42.5t37 13.5q21 0 36 -13.5t15 -42.5t-15.5 -42.5t-35.5 -13.5q-22 0 -37 13.5t-15 42.5zM-6 119h-2h-2.5h-2.5q-68 0 26 194q46 95 117 204q34 49 48 62q27 19 45 18q23 -1 36 -19t13 -41t-6 -46q-12 -35 -40 -64t-54 -45t-67.5 -38.5t-61.5 -35.5
q-2 -5 -12 -24.5t-14 -28t-11 -24.5t-11.5 -30t-8.5 -28q-3 -13 -3 -22q0 -1 0.5 -3l0.5 -2h2l2 1q4 0 17 4q30 12 73 51q3 3 17.5 16t18 16t16.5 14.5t18.5 15.5t17 13.5t19 14.5t17.5 12t19 13q2 1 5.5 3t4.5 3t4 2t4.5 1h3.5t4 -1.5t4 -4.5q6 -10 -5 -17
q-55 -31 -150 -119q-56 -49 -100 -64zM-16 146zM241 501q13 37 -6 59q-6 7 -14 7q-13 0 -22 -9l-1 -0.5l-1 -0.5q-10 -10 -42 -57q-43 -66 -89 -152q94 56 125 83q37 30 50 70z" />
    <glyph glyph-name="Lslash" unicode="&#x141;" horiz-adv-x="523" 
d="M97 0v247l-49 -28l-35 60l84 50v385h90v-332l137 81l36 -63l-173 -100v-220h312v-80h-402z" />
    <glyph glyph-name="lslash" unicode="&#x142;" horiz-adv-x="257" 
d="M166 425l64 44l37 -59l-101 -68v-342h-88v285l-51 -32l-36 59l87 56v392h88v-335z" />
    <glyph glyph-name="Nacute" unicode="&#x143;" horiz-adv-x="759" 
d="M611 486q9 -5 14 -8t9.5 -10.5t3.5 -17.5q1 -7 1 -20q-2 -28 -16 -68q-13 -34 -41.5 -96t-39.5 -92q-19 -51 -7 -58t3 -17q-11 -12 -22 1q-8 9 -8.5 24.5t2.5 27t11 30.5q10 28 39 91t43 98q0 2 1 5q25 64 7 82l-5 3h-2l-1 1h-1q-36 6 -84 -14q-61 -25 -132 -82
l-3.5 -3.5l-3.5 -3.5q-67 -127 -81 -150q-28 -42 -49 -51q-5 -2 -8 -2h-5q-17 5 -17 22q0 6 0.5 11.5t2 10.5t3.5 9l4.5 9t4.5 8.5t5 8.5t4 8l6 9l6 10q36 52 101 107q47 92 55 109q-42 -35 -129 -83q-114 -63 -191 -82q-35 -9 -60 -7q-6 0 -14 3t-9 3q-7 3 -8 10t4.5 11.5
t12.5 2.5l1 -1t5 -3l2 -1h1.5h1.5q5 -2 6 -2t4 -0.5t5 -0.5h6q2 1 6 1q11 0 31 5q73 17 185 80q109 62 152 105l2.5 3t4 4.5t4.5 3t5 1.5q3 0 6 -1.5t5.5 -4.5t2.5 -6v-5q-2 -10 -19 -47q-11 -25 -30 -60q54 40 109 64q43 18 77 18q2 0 5 -0.5t5 -0.5t5 -0.5t5 -1.5h1z
M244 178zM255 192q19 18 40.5 61.5t31.5 57.5q-48 -48 -72 -96q-9 -20 -11 -31q5 3 11 8zM318 783q19 23 47.5 66.5t47.5 81.5h106v-10q-21 -31 -66.5 -78.5t-76.5 -71.5h-58v12z" />
    <glyph glyph-name="nacute" unicode="&#x144;" horiz-adv-x="618" 
d="M215 390q-1 -13 -7 -42t-7 -42.5t2 -41.5q1 -1 1 -2l1 -1v0l2 -1q1 -1 4 -1q11 -1 43 14q31 15 95 52q11 7 17 -7q2 -10 -5 -15q-5 -2 -33.5 -19t-49 -27t-39.5 -16q-36 -9 -51 6v1l-2 1q-7 15 -8 34t2.5 35t7.5 37.5t5 35.5v7q0 1 -0.5 2t-0.5 2h-2q-18 -4 -53 -26
q-38 -25 -106 -82q-1 0 -6 -4t-8 -5l-1 -0.5t-2 -0.5h-3q-6 2 -9 5q-2 3 -2 8q0 1 0.5 2l0.5 1v1.5v0.5q1 3 16 22q42 50 74 81q4 6 11 3.5t9 -8.5t-3 -12l-15 -16q43 32 76 47q21 9 35 2h1q8 -5 8 -9q3 -7 3 -13q0 -1 -0.5 -4t-0.5 -5zM194 402zM250 618q19 23 47.5 66.5
t47.5 81.5h106v-10q-21 -31 -66.5 -78.5t-76.5 -71.5h-58v12z" />
    <glyph glyph-name="uni0145" unicode="&#x145;" horiz-adv-x="759" 
d="M281 -209q11 25 24 70.5t17 77.5h87v-9q-8 -31 -31.5 -76.5t-48.5 -74.5h-48v12zM611 486q9 -5 14 -8t9.5 -10.5t3.5 -17.5q1 -7 1 -20q-2 -28 -16 -68q-13 -34 -41.5 -96t-39.5 -92q-19 -51 -7 -58t3 -17q-11 -12 -22 1q-8 9 -8.5 24.5t2.5 27t11 30.5q10 28 39 91
t43 98q0 2 1 5q25 64 7 82l-5 3h-2l-1 1h-1q-36 6 -84 -14q-61 -25 -132 -82l-3.5 -3.5l-3.5 -3.5q-67 -127 -81 -150q-28 -42 -49 -51q-5 -2 -8 -2h-5q-17 5 -17 22q0 6 0.5 11.5t2 10.5t3.5 9l4.5 9t4.5 8.5t5 8.5t4 8l6 9l6 10q36 52 101 107q47 92 55 109
q-42 -35 -129 -83q-114 -63 -191 -82q-35 -9 -60 -7q-6 0 -14 3t-9 3q-7 3 -8 10t4.5 11.5t12.5 2.5l1 -1t5 -3l2 -1h1.5h1.5q5 -2 6 -2t4 -0.5t5 -0.5h6q2 1 6 1q11 0 31 5q73 17 185 80q109 62 152 105l2.5 3t4 4.5t4.5 3t5 1.5q3 0 6 -1.5t5.5 -4.5t2.5 -6v-5
q-2 -10 -19 -47q-11 -25 -30 -60q54 40 109 64q43 18 77 18q2 0 5 -0.5t5 -0.5t5 -0.5t5 -1.5h1zM244 178zM255 192q19 18 40.5 61.5t31.5 57.5q-48 -48 -72 -96q-9 -20 -11 -31q5 3 11 8z" />
    <glyph glyph-name="uni0146" unicode="&#x146;" horiz-adv-x="618" 
d="M222 -209q11 25 24 70.5t17 77.5h87v-9q-8 -31 -31.5 -76.5t-48.5 -74.5h-48v12zM215 390q-1 -13 -7 -42t-7 -42.5t2 -41.5q1 -1 1 -2l1 -1v0l2 -1q1 -1 4 -1q11 -1 43 14q31 15 95 52q11 7 17 -7q2 -10 -5 -15q-5 -2 -33.5 -19t-49 -27t-39.5 -16q-36 -9 -51 6v1l-2 1
q-7 15 -8 34t2.5 35t7.5 37.5t5 35.5v7q0 1 -0.5 2t-0.5 2h-2q-18 -4 -53 -26q-38 -25 -106 -82q-1 0 -6 -4t-8 -5l-1 -0.5t-2 -0.5h-3q-6 2 -9 5q-2 3 -2 8q0 1 0.5 2l0.5 1v1.5v0.5q1 3 16 22q42 50 74 81q4 6 11 3.5t9 -8.5t-3 -12l-15 -16q43 32 76 47q21 9 35 2h1
q8 -5 8 -9q3 -7 3 -13q0 -1 -0.5 -4t-0.5 -5zM194 402z" />
    <glyph glyph-name="Ncaron" unicode="&#x147;" horiz-adv-x="759" 
d="M211 931h60q56 -36 107 -92q62 62 109 92h62v-13q-100 -100 -125 -147h-90q-29 50 -123 147v13zM611 486q9 -5 14 -8t9.5 -10.5t3.5 -17.5q1 -7 1 -20q-2 -28 -16 -68q-13 -34 -41.5 -96t-39.5 -92q-19 -51 -7 -58t3 -17q-11 -12 -22 1q-8 9 -8.5 24.5t2.5 27t11 30.5
q10 28 39 91t43 98q0 2 1 5q25 64 7 82l-5 3h-2l-1 1h-1q-36 6 -84 -14q-61 -25 -132 -82l-3.5 -3.5l-3.5 -3.5q-67 -127 -81 -150q-28 -42 -49 -51q-5 -2 -8 -2h-5q-17 5 -17 22q0 6 0.5 11.5t2 10.5t3.5 9l4.5 9t4.5 8.5t5 8.5t4 8l6 9l6 10q36 52 101 107q47 92 55 109
q-42 -35 -129 -83q-114 -63 -191 -82q-35 -9 -60 -7q-6 0 -14 3t-9 3q-7 3 -8 10t4.5 11.5t12.5 2.5l1 -1t5 -3l2 -1h1.5h1.5q5 -2 6 -2t4 -0.5t5 -0.5h6q2 1 6 1q11 0 31 5q73 17 185 80q109 62 152 105l2.5 3t4 4.5t4.5 3t5 1.5q3 0 6 -1.5t5.5 -4.5t2.5 -6v-5
q-2 -10 -19 -47q-11 -25 -30 -60q54 40 109 64q43 18 77 18q2 0 5 -0.5t5 -0.5t5 -0.5t5 -1.5h1zM244 178zM255 192q19 18 40.5 61.5t31.5 57.5q-48 -48 -72 -96q-9 -20 -11 -31q5 3 11 8z" />
    <glyph glyph-name="ncaron" unicode="&#x148;" horiz-adv-x="618" 
d="M144 766h60q56 -36 107 -92q62 62 109 92h62v-13q-100 -100 -125 -147h-90q-29 50 -123 147v13zM215 390q-1 -13 -7 -42t-7 -42.5t2 -41.5q1 -1 1 -2l1 -1v0l2 -1q1 -1 4 -1q11 -1 43 14q31 15 95 52q11 7 17 -7q2 -10 -5 -15q-5 -2 -33.5 -19t-49 -27t-39.5 -16
q-36 -9 -51 6v1l-2 1q-7 15 -8 34t2.5 35t7.5 37.5t5 35.5v7q0 1 -0.5 2t-0.5 2h-2q-18 -4 -53 -26q-38 -25 -106 -82q-1 0 -6 -4t-8 -5l-1 -0.5t-2 -0.5h-3q-6 2 -9 5q-2 3 -2 8q0 1 0.5 2l0.5 1v1.5v0.5q1 3 16 22q42 50 74 81q4 6 11 3.5t9 -8.5t-3 -12l-15 -16
q43 32 76 47q21 9 35 2h1q8 -5 8 -9q3 -7 3 -13q0 -1 -0.5 -4t-0.5 -5zM194 402z" />
    <glyph glyph-name="napostrophe" unicode="&#x149;" horiz-adv-x="690" 
d="M145 714l7 -11q-25 -97 -86 -234h-65q34 139 50 245h94zM286 390q-1 -13 -7 -42t-7 -42.5t2 -41.5q1 -1 1 -2l1 -1v0l2 -1q1 -1 4 -1q11 -1 43 14q31 15 95 52q11 7 17 -7q2 -10 -5 -15q-5 -2 -33.5 -19t-49 -27t-39.5 -16q-36 -9 -51 6v1l-2 1q-7 15 -8 34t2.5 35
t7.5 37.5t5 35.5v7q0 1 -0.5 2t-0.5 2h-2q-18 -4 -53 -26q-38 -25 -106 -82q-1 0 -6 -4t-8 -5l-1 -0.5t-2 -0.5h-3q-6 2 -9 5q-2 3 -2 8q0 1 0.5 2l0.5 1v1.5v0.5q1 3 16 22q42 50 74 81q4 6 11 3.5t9 -8.5t-3 -12l-15 -16q43 32 76 47q21 9 35 2h1q8 -5 8 -9q3 -7 3 -13
q0 -1 -0.5 -4t-0.5 -5zM265 402z" />
    <glyph glyph-name="Eng" unicode="&#x14a;" horiz-adv-x="759" 
d="M475 -190q-48 0 -76 13v76q35 -10 76 -10q50 0 76.5 28.5t27.5 82.5l-403 593h-4q8 -125 8 -206v-387h-83v714h104l381 -572h4q-7 75 -7 200v372h84v-708q0 -96 -48.5 -146t-139.5 -50z" />
    <glyph glyph-name="eng" unicode="&#x14b;" horiz-adv-x="618" 
d="M394 -240q-42 0 -71 12v71q29 -10 60 -10q67 0 67 84v427q0 65 -29 96.5t-90 31.5q-83 0 -120.5 -45.5t-37.5 -147.5v-279h-88v536h71l14 -73h5q25 40 69 61.5t98 21.5q99 0 147.5 -46.5t48.5 -149.5v-430q0 -75 -35 -117.5t-109 -42.5z" />
    <glyph glyph-name="Omacron" unicode="&#x14c;" horiz-adv-x="780" 
d="M242 842h297v-71h-297v71zM409 516q42 14 70 16h11h7h6q3 0 6 -1.5t5 -4.5t2 -6q0 -5 -3.5 -9t-8.5 -4h-1q-2 1 -5 1h-16q-16 -2 -32 -5q68 -31 57 -103q-9 -58 -66 -128q-66 -78 -145 -118q-48 -23 -89 -26q-29 -1 -51 10.5t-27 35.5q-10 41 14 90q-12 -2 -19 -2
q-41 0 -73.5 16.5t-44.5 45.5q-11 22 -4.5 45t17 38t25.5 29q58 54 197 76q48 9 90 9q47 0 78 -5zM123 286q15 0 33 3q25 45 58.5 84.5t73 71t83.5 53.5q-60 3 -127 -7q-98 -17 -155 -50q-32 -19 -54 -47t-8 -61q10 -23 36.5 -35.5t59.5 -11.5zM179 295q56 17 106 53h1
q10 7 17 -4t-3 -17q-64 -43 -122 -58q-2 0 -4 -0.5t-5 -1t-5 -1.5q-1 -3 -5.5 -14.5t-6.5 -17t-5.5 -18t-2.5 -19l3 -19.5q7 -25 36.5 -29t56 4t47.5 19q79 42 138 113q34 41 49 76q21 52 9 83q-14 34 -72 48q-71 -25 -131 -77t-101 -120z" />
    <glyph glyph-name="omacron" unicode="&#x14d;" horiz-adv-x="604" 
d="M154 677h297v-71h-297v71zM90 314q-5 11 -5 22l-1 2q-1 12 11 13q10 0 14.5 -16t7.5 -19q13 -13 38 -13q39 0 74 22q8 4 12.5 0.5t4 -11t-5.5 -11.5q-43 -24 -87 -24q-28 0 -47 12q-23 -71 -81 -102q-16 -8 -26 -10h-4h-4q-14 0 -21.5 9t-7.5 24q0 23 20 63q29 59 72 73
q10 3 15 -7t-4 -15q-2 -2 -5 -4.5t-6.5 -4.5t-5.5 -4q-45 -45 -58 -93q-1 -6 -1 -9q0 -7 1 -9q23 0 45 18q40 32 51 72q4 13 4 22z" />
    <glyph glyph-name="Obreve" unicode="&#x14e;" horiz-adv-x="780" 
d="M387 771q-69 0 -108.5 33.5t-44.5 100.5h54q4 -35 24.5 -49t76.5 -14q49 0 73 15.5t28 47.5h55q-6 -64 -48 -99t-110 -35zM409 516q42 14 70 16h11h7h6q3 0 6 -1.5t5 -4.5t2 -6q0 -5 -3.5 -9t-8.5 -4h-1q-2 1 -5 1h-16q-16 -2 -32 -5q68 -31 57 -103q-9 -58 -66 -128
q-66 -78 -145 -118q-48 -23 -89 -26q-29 -1 -51 10.5t-27 35.5q-10 41 14 90q-12 -2 -19 -2q-41 0 -73.5 16.5t-44.5 45.5q-11 22 -4.5 45t17 38t25.5 29q58 54 197 76q48 9 90 9q47 0 78 -5zM123 286q15 0 33 3q25 45 58.5 84.5t73 71t83.5 53.5q-60 3 -127 -7
q-98 -17 -155 -50q-32 -19 -54 -47t-8 -61q10 -23 36.5 -35.5t59.5 -11.5zM179 295q56 17 106 53h1q10 7 17 -4t-3 -17q-64 -43 -122 -58q-2 0 -4 -0.5t-5 -1t-5 -1.5q-1 -3 -5.5 -14.5t-6.5 -17t-5.5 -18t-2.5 -19l3 -19.5q7 -25 36.5 -29t56 4t47.5 19q79 42 138 113
q34 41 49 76q21 52 9 83q-14 34 -72 48q-71 -25 -131 -77t-101 -120z" />
    <glyph glyph-name="obreve" unicode="&#x14f;" horiz-adv-x="604" 
d="M299 606q-69 0 -108.5 33.5t-44.5 100.5h54q4 -35 24.5 -49t76.5 -14q49 0 73 15.5t28 47.5h55q-6 -64 -48 -99t-110 -35zM90 314q-5 11 -5 22l-1 2q-1 12 11 13q10 0 14.5 -16t7.5 -19q13 -13 38 -13q39 0 74 22q8 4 12.5 0.5t4 -11t-5.5 -11.5q-43 -24 -87 -24
q-28 0 -47 12q-23 -71 -81 -102q-16 -8 -26 -10h-4h-4q-14 0 -21.5 9t-7.5 24q0 23 20 63q29 59 72 73q10 3 15 -7t-4 -15q-2 -2 -5 -4.5t-6.5 -4.5t-5.5 -4q-45 -45 -58 -93q-1 -6 -1 -9q0 -7 1 -9q23 0 45 18q40 32 51 72q4 13 4 22z" />
    <glyph glyph-name="Ohungarumlaut" unicode="&#x150;" horiz-adv-x="780" 
d="M246 783q17 22 42.5 65.5t44.5 82.5h96v-10q-16 -27 -58.5 -75t-74.5 -75h-50v12zM422 783q23 32 49 76.5t38 71.5h96v-10q-16 -27 -58.5 -75t-74.5 -75h-50v12zM409 516q42 14 70 16h11h7h6q3 0 6 -1.5t5 -4.5t2 -6q0 -5 -3.5 -9t-8.5 -4h-1q-2 1 -5 1h-16
q-16 -2 -32 -5q68 -31 57 -103q-9 -58 -66 -128q-66 -78 -145 -118q-48 -23 -89 -26q-29 -1 -51 10.5t-27 35.5q-10 41 14 90q-12 -2 -19 -2q-41 0 -73.5 16.5t-44.5 45.5q-11 22 -4.5 45t17 38t25.5 29q58 54 197 76q48 9 90 9q47 0 78 -5zM123 286q15 0 33 3
q25 45 58.5 84.5t73 71t83.5 53.5q-60 3 -127 -7q-98 -17 -155 -50q-32 -19 -54 -47t-8 -61q10 -23 36.5 -35.5t59.5 -11.5zM179 295q56 17 106 53h1q10 7 17 -4t-3 -17q-64 -43 -122 -58q-2 0 -4 -0.5t-5 -1t-5 -1.5q-1 -3 -5.5 -14.5t-6.5 -17t-5.5 -18t-2.5 -19l3 -19.5
q7 -25 36.5 -29t56 4t47.5 19q79 42 138 113q34 41 49 76q21 52 9 83q-14 34 -72 48q-71 -25 -131 -77t-101 -120z" />
    <glyph glyph-name="ohungarumlaut" unicode="&#x151;" horiz-adv-x="604" 
d="M154 618q17 22 42.5 65.5t44.5 82.5h96v-10q-16 -27 -58.5 -75t-74.5 -75h-50v12zM330 618q23 32 49 76.5t38 71.5h96v-10q-16 -27 -58.5 -75t-74.5 -75h-50v12zM90 314q-5 11 -5 22l-1 2q-1 12 11 13q10 0 14.5 -16t7.5 -19q13 -13 38 -13q39 0 74 22q8 4 12.5 0.5
t4 -11t-5.5 -11.5q-43 -24 -87 -24q-28 0 -47 12q-23 -71 -81 -102q-16 -8 -26 -10h-4h-4q-14 0 -21.5 9t-7.5 24q0 23 20 63q29 59 72 73q10 3 15 -7t-4 -15q-2 -2 -5 -4.5t-6.5 -4.5t-5.5 -4q-45 -45 -58 -93q-1 -6 -1 -9q0 -7 1 -9q23 0 45 18q40 32 51 72q4 13 4 22z
" />
    <glyph glyph-name="OE" unicode="&#x152;" horiz-adv-x="928" 
d="M868 0h-380q-50 -10 -97 -10q-159 0 -244.5 96.5t-85.5 272.5q0 175 84 270.5t241 95.5q52 0 96 -11h386v-79h-287v-223h268v-78h-268v-255h287v-79zM394 646q-118 0 -178.5 -73.5t-60.5 -214.5t60.5 -215.5t177.5 -74.5q57 0 99 17v545q-41 16 -98 16z" />
    <glyph glyph-name="oe" unicode="&#x153;" horiz-adv-x="945" 
d="M699 -10q-142 0 -204 111q-31 -55 -82 -83t-117 -28q-110 0 -176 75.5t-66 203.5q0 130 64.5 203t180.5 73q63 0 113 -28t80 -82q29 53 76 81.5t109 28.5q100 0 158.5 -64.5t58.5 -176.5v-53h-356q4 -186 162 -186q44 0 81.5 7.5t88.5 29.5v-77q-45 -20 -83 -27.5
t-88 -7.5zM146 269q0 -102 35.5 -154t115.5 -52q78 0 114 51t36 151q0 104 -36.5 155.5t-115.5 51.5t-114 -51.5t-35 -151.5zM676 473q-60 0 -95 -38.5t-41 -113.5h261q0 74 -31.5 113t-93.5 39z" />
    <glyph glyph-name="Racute" unicode="&#x154;" horiz-adv-x="622" 
d="M553 456q3 0 7 -4t4 -8v-3q0 -1 -0.5 -2l-0.5 -1q0 -7 -18 -14q-14 -8 -36 -19q-15 -22 -39 -90q128 101 233 155q71 37 137 58q88 28 151 17q30 -5 42.5 -19t-0.5 -32q-22 -21 -86 -53q-40 -19 -84 -36.5t-109 -41t-87 -31.5q-89 -33 -127 -45q23 -48 64.5 -75
t95.5 -35.5t130 -4.5h1q6 0 10 -4t4 -9q0 -19 -11 -20q-270 -7 -319 140l-4 12q-3 11 7 15h4q71 17 206 70q116 43 202 85q59 30 77 45l3 3q2 5 -6 8t-18 5q-28 6 -70 -1q-89 -14 -203 -73q-133 -70 -243 -160l-12 -9l-3 -9q-30 -93 -58 -124q-5 -7 -12 -11h-1q-8 -6 -18 -6
q-12 0 -18.5 9t-7.5 20q-2 26 15 49l7 8q4 4 12.5 13.5t12.5 13.5l13 14q13 12 39 34q0 1 11 36t18 51q0 2 2 5.5t2 4.5q-216 -103 -313 -139q-50 -18 -108 -30q-6 -1 -10 -1l-5 -1h-5q-4 1 -11 1q-7 1 -11 2t-7 4.5t-2 8.5q3 13 23 10h11h4q10 0 44 8q71 17 205 76
q25 11 209 97q16 23 46 33q4 1 7 1h2l1 -0.5zM366 150h3q1 1 4 2.5t4 2.5q10 11 18.5 26t18 38t13.5 32q-30 -25 -54 -55q-7 -8 -11 -22.5t3 -22.5l0.5 -0.5zM249 783q19 23 47.5 66.5t47.5 81.5h106v-10q-21 -31 -66.5 -78.5t-76.5 -71.5h-58v12z" />
    <glyph glyph-name="racute" unicode="&#x155;" horiz-adv-x="413" 
d="M139 374v-4q-7 -32 -31 -73q-14 -27 -35 -63q-1 0 -1 -0.5t-1 -1.5l41 41q64 62 100 92q3 2 12.5 10t13.5 11t11.5 8.5t14 9t14.5 6.5q30 10 40 -6q5 -8 5 -28l-2 -11v-1q-3 -11 -14.5 -8.5t-9.5 14.5v1q1 3 1 8v8v2q-9 0 -29 -12q-20 -13 -42 -31q-75 -63 -204 -204
l-21 -21h-1l-6 -2q-20 1 -14 19l2 2q4 9 14.5 24.5t11.5 17.5q28 45 73 127q14 25 19 37q-5 -2 -10.5 -5.5t-9.5 -7t-9.5 -7t-8.5 -5.5q-6 -4 -32 -18q-6 -4 -12 0.5t-6 10.5t6 11q33 18 65 41q27 19 36 22h6q3 0 7.5 -3t4.5 -6q1 -3 1 -5zM174 618q19 23 47.5 66.5
t47.5 81.5h106v-10q-21 -31 -66.5 -78.5t-76.5 -71.5h-58v12z" />
    <glyph glyph-name="uni0156" unicode="&#x156;" horiz-adv-x="622" 
d="M242 -209q11 25 24 70.5t17 77.5h87v-9q-8 -31 -31.5 -76.5t-48.5 -74.5h-48v12zM553 456q3 0 7 -4t4 -8v-3q0 -1 -0.5 -2l-0.5 -1q0 -7 -18 -14q-14 -8 -36 -19q-15 -22 -39 -90q128 101 233 155q71 37 137 58q88 28 151 17q30 -5 42.5 -19t-0.5 -32q-22 -21 -86 -53
q-40 -19 -84 -36.5t-109 -41t-87 -31.5q-89 -33 -127 -45q23 -48 64.5 -75t95.5 -35.5t130 -4.5h1q6 0 10 -4t4 -9q0 -19 -11 -20q-270 -7 -319 140l-4 12q-3 11 7 15h4q71 17 206 70q116 43 202 85q59 30 77 45l3 3q2 5 -6 8t-18 5q-28 6 -70 -1q-89 -14 -203 -73
q-133 -70 -243 -160l-12 -9l-3 -9q-30 -93 -58 -124q-5 -7 -12 -11h-1q-8 -6 -18 -6q-12 0 -18.5 9t-7.5 20q-2 26 15 49l7 8q4 4 12.5 13.5t12.5 13.5l13 14q13 12 39 34q0 1 11 36t18 51q0 2 2 5.5t2 4.5q-216 -103 -313 -139q-50 -18 -108 -30q-6 -1 -10 -1l-5 -1h-5
q-4 1 -11 1q-7 1 -11 2t-7 4.5t-2 8.5q3 13 23 10h11h4q10 0 44 8q71 17 205 76q25 11 209 97q16 23 46 33q4 1 7 1h2l1 -0.5zM366 150h3q1 1 4 2.5t4 2.5q10 11 18.5 26t18 38t13.5 32q-30 -25 -54 -55q-7 -8 -11 -22.5t3 -22.5l0.5 -0.5z" />
    <glyph glyph-name="uni0157" unicode="&#x157;" horiz-adv-x="413" 
d="M48 -209q11 25 24 70.5t17 77.5h87v-9q-8 -31 -31.5 -76.5t-48.5 -74.5h-48v12zM139 374v-4q-7 -32 -31 -73q-14 -27 -35 -63q-1 0 -1 -0.5t-1 -1.5l41 41q64 62 100 92q3 2 12.5 10t13.5 11t11.5 8.5t14 9t14.5 6.5q30 10 40 -6q5 -8 5 -28l-2 -11v-1q-3 -11 -14.5 -8.5
t-9.5 14.5v1q1 3 1 8v8v2q-9 0 -29 -12q-20 -13 -42 -31q-75 -63 -204 -204l-21 -21h-1l-6 -2q-20 1 -14 19l2 2q4 9 14.5 24.5t11.5 17.5q28 45 73 127q14 25 19 37q-5 -2 -10.5 -5.5t-9.5 -7t-9.5 -7t-8.5 -5.5q-6 -4 -32 -18q-6 -4 -12 0.5t-6 10.5t6 11q33 18 65 41
q27 19 36 22h6q3 0 7.5 -3t4.5 -6q1 -3 1 -5z" />
    <glyph glyph-name="Rcaron" unicode="&#x158;" horiz-adv-x="622" 
d="M141 931h60q56 -36 107 -92q62 62 109 92h62v-13q-100 -100 -125 -147h-90q-29 50 -123 147v13zM553 456q3 0 7 -4t4 -8v-3q0 -1 -0.5 -2l-0.5 -1q0 -7 -18 -14q-14 -8 -36 -19q-15 -22 -39 -90q128 101 233 155q71 37 137 58q88 28 151 17q30 -5 42.5 -19t-0.5 -32
q-22 -21 -86 -53q-40 -19 -84 -36.5t-109 -41t-87 -31.5q-89 -33 -127 -45q23 -48 64.5 -75t95.5 -35.5t130 -4.5h1q6 0 10 -4t4 -9q0 -19 -11 -20q-270 -7 -319 140l-4 12q-3 11 7 15h4q71 17 206 70q116 43 202 85q59 30 77 45l3 3q2 5 -6 8t-18 5q-28 6 -70 -1
q-89 -14 -203 -73q-133 -70 -243 -160l-12 -9l-3 -9q-30 -93 -58 -124q-5 -7 -12 -11h-1q-8 -6 -18 -6q-12 0 -18.5 9t-7.5 20q-2 26 15 49l7 8q4 4 12.5 13.5t12.5 13.5l13 14q13 12 39 34q0 1 11 36t18 51q0 2 2 5.5t2 4.5q-216 -103 -313 -139q-50 -18 -108 -30
q-6 -1 -10 -1l-5 -1h-5q-4 1 -11 1q-7 1 -11 2t-7 4.5t-2 8.5q3 13 23 10h11h4q10 0 44 8q71 17 205 76q25 11 209 97q16 23 46 33q4 1 7 1h2l1 -0.5zM366 150h3q1 1 4 2.5t4 2.5q10 11 18.5 26t18 38t13.5 32q-30 -25 -54 -55q-7 -8 -11 -22.5t3 -22.5l0.5 -0.5z" />
    <glyph glyph-name="rcaron" unicode="&#x159;" horiz-adv-x="413" 
d="M62 766h60q56 -36 107 -92q62 62 109 92h62v-13q-100 -100 -125 -147h-90q-29 50 -123 147v13zM139 374v-4q-7 -32 -31 -73q-14 -27 -35 -63q-1 0 -1 -0.5t-1 -1.5l41 41q64 62 100 92q3 2 12.5 10t13.5 11t11.5 8.5t14 9t14.5 6.5q30 10 40 -6q5 -8 5 -28l-2 -11v-1
q-3 -11 -14.5 -8.5t-9.5 14.5v1q1 3 1 8v8v2q-9 0 -29 -12q-20 -13 -42 -31q-75 -63 -204 -204l-21 -21h-1l-6 -2q-20 1 -14 19l2 2q4 9 14.5 24.5t11.5 17.5q28 45 73 127q14 25 19 37q-5 -2 -10.5 -5.5t-9.5 -7t-9.5 -7t-8.5 -5.5q-6 -4 -32 -18q-6 -4 -12 0.5t-6 10.5
t6 11q33 18 65 41q27 19 36 22h6q3 0 7.5 -3t4.5 -6q1 -3 1 -5z" />
    <glyph glyph-name="Sacute" unicode="&#x15a;" horiz-adv-x="548" 
d="M372 123q5 10 8 32q-45 -24 -139 -27q-48 -2 -65 8q-9 6 -12 16q0 17 16 33q29 29 81 47q31 13 69 10.5t54 -27.5q4 -7 8 -17q35 41 19 154q-2 20 2 42q-4 -2 -13 -6q-207 -84 -314 -99q-50 -8 -78 6q-5 3 -7 8.5t3 12.5q8 10 18 0l1 -1l1 -1q2 0 4.5 -1t3.5 -1
q18 -3 51 1q42 6 107 25t124 41t107 43q27 61 99 100q37 19 83 26q7 1 11 1q28 0 35 -11q1 -2 1 -2.5v-0.5v-4t-0.5 -5.5t-1.5 -4.5t-2.5 -4.5t-3 -4t-4 -3.5t-3.5 -3t-3.5 -3t-3.5 -3q-23 -18 -86 -50q-34 -17 -96 -44q-9 -26 -5 -49q15 -109 -18 -161q-6 -11 -18 -22v-13
q-1 -3 -9 -45q-1 -7 -8 -8.5t-12.5 3t-3.5 11.5v1zM240 148q91 3 132 31q0 18 -10.5 28.5t-27 12.5t-33.5 -0.5t-33 -7.5q-64 -21 -82 -51q-1 -3 -1 -4v-1q0 -8 55 -8zM600 506q6 4 15.5 11.5t11.5 9.5q-33 0 -83 -26q-52 -26 -79 -64q90 40 135 69zM227 783
q19 23 47.5 66.5t47.5 81.5h106v-10q-21 -31 -66.5 -78.5t-76.5 -71.5h-58v12z" />
    <glyph glyph-name="sacute" unicode="&#x15b;" horiz-adv-x="479" 
d="M262 473q5 0 9.5 -6t2.5 -11q0 -9 -19 -22l-11 -7q-13 -9 -64 -39q-37 -44 -54 -94q-2 -4 -5 -11.5t-5 -11.5q12 5 30 13t29 13.5l26 13t29 15.5h1q12 8 17 -5q4 -11 -6 -17q-13 -8 -32.5 -18t-34 -17t-39 -18t-35.5 -17q-45 -97 -102 -169q-15 -19 -22.5 -28
t-22.5 -22.5t-30 -20.5q-12 -5 -22 -4h-4q-37 9 -34 46q1 16 9 34q15 34 38.5 60t57.5 55q30 25 104 64l11 26q24 60 33 76l-85 -47q-4 -2 -7.5 -1.5t-6 3.5t-4 6.5t0 7t5.5 6.5q55 30 134 79q37 44 78 63q15 5 16 6h3h3h3h1h2l1 -0.5zM-99 17h3q5 0 10 2.5t7 4t8 6.5t7 6
q34 31 76 98q26 42 42 76q-5 -3 -30.5 -19t-38.5 -26q-66 -53 -88 -106q-5 -15 -6 -25q0 -17 10 -17zM245 464zM181 618q19 23 47.5 66.5t47.5 81.5h106v-10q-21 -31 -66.5 -78.5t-76.5 -71.5h-58v12z" />
    <glyph glyph-name="Scircumflex" unicode="&#x15c;" horiz-adv-x="548" 
d="M116 782q61 65 86 96.5t37 52.5h90q25 -49 125 -149v-11h-62q-44 26 -109 90q-64 -62 -107 -90h-60v11zM372 123q5 10 8 32q-45 -24 -139 -27q-48 -2 -65 8q-9 6 -12 16q0 17 16 33q29 29 81 47q31 13 69 10.5t54 -27.5q4 -7 8 -17q35 41 19 154q-2 20 2 42q-4 -2 -13 -6
q-207 -84 -314 -99q-50 -8 -78 6q-5 3 -7 8.5t3 12.5q8 10 18 0l1 -1l1 -1q2 0 4.5 -1t3.5 -1q18 -3 51 1q42 6 107 25t124 41t107 43q27 61 99 100q37 19 83 26q7 1 11 1q28 0 35 -11q1 -2 1 -2.5v-0.5v-4t-0.5 -5.5t-1.5 -4.5t-2.5 -4.5t-3 -4t-4 -3.5t-3.5 -3t-3.5 -3
t-3.5 -3q-23 -18 -86 -50q-34 -17 -96 -44q-9 -26 -5 -49q15 -109 -18 -161q-6 -11 -18 -22v-13q-1 -3 -9 -45q-1 -7 -8 -8.5t-12.5 3t-3.5 11.5v1zM240 148q91 3 132 31q0 18 -10.5 28.5t-27 12.5t-33.5 -0.5t-33 -7.5q-64 -21 -82 -51q-1 -3 -1 -4v-1q0 -8 55 -8zM600 506
q6 4 15.5 11.5t11.5 9.5q-33 0 -83 -26q-52 -26 -79 -64q90 40 135 69z" />
    <glyph glyph-name="scircumflex" unicode="&#x15d;" horiz-adv-x="479" 
d="M77 617q61 65 86 96.5t37 52.5h90q25 -49 125 -149v-11h-62q-44 26 -109 90q-64 -62 -107 -90h-60v11zM262 473q5 0 9.5 -6t2.5 -11q0 -9 -19 -22l-11 -7q-13 -9 -64 -39q-37 -44 -54 -94q-2 -4 -5 -11.5t-5 -11.5q12 5 30 13t29 13.5l26 13t29 15.5h1q12 8 17 -5
q4 -11 -6 -17q-13 -8 -32.5 -18t-34 -17t-39 -18t-35.5 -17q-45 -97 -102 -169q-15 -19 -22.5 -28t-22.5 -22.5t-30 -20.5q-12 -5 -22 -4h-4q-37 9 -34 46q1 16 9 34q15 34 38.5 60t57.5 55q30 25 104 64l11 26q24 60 33 76l-85 -47q-4 -2 -7.5 -1.5t-6 3.5t-4 6.5t0 7
t5.5 6.5q55 30 134 79q37 44 78 63q15 5 16 6h3h3h3h1h2l1 -0.5zM-99 17h3q5 0 10 2.5t7 4t8 6.5t7 6q34 31 76 98q26 42 42 76q-5 -3 -30.5 -19t-38.5 -26q-66 -53 -88 -106q-5 -15 -6 -25q0 -17 10 -17zM245 464z" />
    <glyph glyph-name="Scedilla" unicode="&#x15e;" horiz-adv-x="548" 
d="M372 123q5 10 8 32q-45 -24 -139 -27q-48 -2 -65 8q-9 6 -12 16q0 17 16 33q29 29 81 47q31 13 69 10.5t54 -27.5q4 -7 8 -17q35 41 19 154q-2 20 2 42q-4 -2 -13 -6q-207 -84 -314 -99q-50 -8 -78 6q-5 3 -7 8.5t3 12.5q8 10 18 0l1 -1l1 -1q2 0 4.5 -1t3.5 -1
q18 -3 51 1q42 6 107 25t124 41t107 43q27 61 99 100q37 19 83 26q7 1 11 1q28 0 35 -11q1 -2 1 -2.5v-0.5v-4t-0.5 -5.5t-1.5 -4.5t-2.5 -4.5t-3 -4t-4 -3.5t-3.5 -3t-3.5 -3t-3.5 -3q-23 -18 -86 -50q-34 -17 -96 -44q-9 -26 -5 -49q15 -109 -18 -161q-6 -11 -18 -22v-13
q-1 -3 -9 -45q-1 -7 -8 -8.5t-12.5 3t-3.5 11.5v1zM240 148q91 3 132 31q0 18 -10.5 28.5t-27 12.5t-33.5 -0.5t-33 -7.5q-64 -21 -82 -51q-1 -3 -1 -4v-1q0 -8 55 -8zM600 506q6 4 15.5 11.5t11.5 9.5q-33 0 -83 -26q-52 -26 -79 -64q90 40 135 69zM358 -139
q0 -48 -37 -74.5t-111 -26.5q-32 0 -50 5v55q18 -5 53 -5q37 0 55.5 9.5t18.5 34.5q0 43 -91 55l43 86h58l-26 -53q87 -19 87 -86z" />
    <glyph glyph-name="scedilla" unicode="&#x15f;" horiz-adv-x="479" 
d="M262 473q5 0 9.5 -6t2.5 -11q0 -9 -19 -22l-11 -7q-13 -9 -64 -39q-37 -44 -54 -94q-2 -4 -5 -11.5t-5 -11.5q12 5 30 13t29 13.5l26 13t29 15.5h1q12 8 17 -5q4 -11 -6 -17q-13 -8 -32.5 -18t-34 -17t-39 -18t-35.5 -17q-45 -97 -102 -169q-15 -19 -22.5 -28
t-22.5 -22.5t-30 -20.5q-12 -5 -22 -4h-4q-37 9 -34 46q1 16 9 34q15 34 38.5 60t57.5 55q30 25 104 64l11 26q24 60 33 76l-85 -47q-4 -2 -7.5 -1.5t-6 3.5t-4 6.5t0 7t5.5 6.5q55 30 134 79q37 44 78 63q15 5 16 6h3h3h3h1h2l1 -0.5zM-99 17h3q5 0 10 2.5t7 4t8 6.5t7 6
q34 31 76 98q26 42 42 76q-5 -3 -30.5 -19t-38.5 -26q-66 -53 -88 -106q-5 -15 -6 -25q0 -17 10 -17zM245 464zM320 -139q0 -48 -37 -74.5t-111 -26.5q-32 0 -50 5v55q18 -5 53 -5q37 0 55.5 9.5t18.5 34.5q0 43 -91 55l43 86h58l-26 -53q87 -19 87 -86z" />
    <glyph glyph-name="Scaron" unicode="&#x160;" horiz-adv-x="548" 
d="M114 931h60q56 -36 107 -92q62 62 109 92h62v-13q-100 -100 -125 -147h-90q-29 50 -123 147v13zM372 123q5 10 8 32q-45 -24 -139 -27q-48 -2 -65 8q-9 6 -12 16q0 17 16 33q29 29 81 47q31 13 69 10.5t54 -27.5q4 -7 8 -17q35 41 19 154q-2 20 2 42q-4 -2 -13 -6
q-207 -84 -314 -99q-50 -8 -78 6q-5 3 -7 8.5t3 12.5q8 10 18 0l1 -1l1 -1q2 0 4.5 -1t3.5 -1q18 -3 51 1q42 6 107 25t124 41t107 43q27 61 99 100q37 19 83 26q7 1 11 1q28 0 35 -11q1 -2 1 -2.5v-0.5v-4t-0.5 -5.5t-1.5 -4.5t-2.5 -4.5t-3 -4t-4 -3.5t-3.5 -3t-3.5 -3
t-3.5 -3q-23 -18 -86 -50q-34 -17 -96 -44q-9 -26 -5 -49q15 -109 -18 -161q-6 -11 -18 -22v-13q-1 -3 -9 -45q-1 -7 -8 -8.5t-12.5 3t-3.5 11.5v1zM240 148q91 3 132 31q0 18 -10.5 28.5t-27 12.5t-33.5 -0.5t-33 -7.5q-64 -21 -82 -51q-1 -3 -1 -4v-1q0 -8 55 -8zM600 506
q6 4 15.5 11.5t11.5 9.5q-33 0 -83 -26q-52 -26 -79 -64q90 40 135 69z" />
    <glyph glyph-name="scaron" unicode="&#x161;" horiz-adv-x="479" 
d="M83 766h60q56 -36 107 -92q62 62 109 92h62v-13q-100 -100 -125 -147h-90q-29 50 -123 147v13zM262 473q5 0 9.5 -6t2.5 -11q0 -9 -19 -22l-11 -7q-13 -9 -64 -39q-37 -44 -54 -94q-2 -4 -5 -11.5t-5 -11.5q12 5 30 13t29 13.5l26 13t29 15.5h1q12 8 17 -5q4 -11 -6 -17
q-13 -8 -32.5 -18t-34 -17t-39 -18t-35.5 -17q-45 -97 -102 -169q-15 -19 -22.5 -28t-22.5 -22.5t-30 -20.5q-12 -5 -22 -4h-4q-37 9 -34 46q1 16 9 34q15 34 38.5 60t57.5 55q30 25 104 64l11 26q24 60 33 76l-85 -47q-4 -2 -7.5 -1.5t-6 3.5t-4 6.5t0 7t5.5 6.5
q55 30 134 79q37 44 78 63q15 5 16 6h3h3h3h1h2l1 -0.5zM-99 17h3q5 0 10 2.5t7 4t8 6.5t7 6q34 31 76 98q26 42 42 76q-5 -3 -30.5 -19t-38.5 -26q-66 -53 -88 -106q-5 -15 -6 -25q0 -17 10 -17zM245 464z" />
    <glyph glyph-name="uni0162" unicode="&#x162;" horiz-adv-x="556" 
d="M385 551q12 0 178 8q11 1 14 -11q0 -13 -12 -14q-22 -1 -89 -3h-42.5h-48.5h-15q-9 -19 -28 -58l-66 -129q-34 -71 -61 -128l-15 -33q-13 -28 -37 -98v-1q-2 -7 -11.5 -7.5t-16.5 4.5t-4 12v1q21 44 60.5 130.5t59.5 129.5l85 176q-96 3 -257 14q-19 2 -35 2h-13
q6 -5 4 -12t-8 -9t-12 3h-1q-8 8 -14 20v3q0 1 0.5 1.5t0.5 1.5q1 6 7 10t13 4h7q21 0 44.5 -2t52.5 -5t45 -4q110 -6 175 -6l7 13h-1q-7 -1 -15 5l-4 3q-5 6 -2.5 12.5t8.5 8t12 -3.5q10 6 24 24v1q6 5 14 4.5t14 -6t3 -11.5l-25 -50h5zM351 589zM19 546zM371 -139
q0 -48 -37 -74.5t-111 -26.5q-32 0 -50 5v55q18 -5 53 -5q37 0 55.5 9.5t18.5 34.5q0 43 -91 55l43 86h58l-26 -53q87 -19 87 -86z" />
    <glyph glyph-name="uni0163" unicode="&#x163;" horiz-adv-x="360" 
d="M2 522q206 -4 212 -4q31 38 71 91l1 1l1 1q1 2 2 2v1q16 9 22 -5q2 -3 2 -8q0 -2 -1 -4v-1q-14 -29 -46 -78q96 0 239 6l26 1q8 1 13 -5t3 -13t-11 -8q-138 -4 -280 -4q-27 -45 -78.5 -131t-82 -136t-71 -119t-71.5 -125l-25 -43q-4 -6 -10 -6t-10.5 5.5t-1.5 12.5
q11 20 89 158q80 140 202 344q-32 -36 -52.5 -57.5t-52.5 -49.5t-62 -46q-7 -4 -13 0t-6.5 10.5t5.5 11.5q48 29 89.5 70t91.5 101q-159 3 -194 3q-34 2 -50 -2q1 -2 5 -5.5t6 -5.5t3 -6.5t-4 -8.5q-8 -9 -17 -1q-1 1 -6 5.5t-8 7.5t-5.5 8t-2.5 11q0 5 2.5 9.5t8 6.5
t11 3.5t14 2t14.5 0.5t15 -0.5t13 -0.5zM308 591v-1v1zM312 -139q0 -48 -37 -74.5t-111 -26.5q-32 0 -50 5v55q18 -5 53 -5q37 0 55.5 9.5t18.5 34.5q0 43 -91 55l43 86h58l-26 -53q87 -19 87 -86z" />
    <glyph glyph-name="Tcaron" unicode="&#x164;" horiz-adv-x="556" 
d="M110 931h60q56 -36 107 -92q62 62 109 92h62v-13q-100 -100 -125 -147h-90q-29 50 -123 147v13zM385 551q12 0 178 8q11 1 14 -11q0 -13 -12 -14q-22 -1 -89 -3h-42.5h-48.5h-15q-9 -19 -28 -58l-66 -129q-34 -71 -61 -128l-15 -33q-13 -28 -37 -98v-1q-2 -7 -11.5 -7.5
t-16.5 4.5t-4 12v1q21 44 60.5 130.5t59.5 129.5l85 176q-96 3 -257 14q-19 2 -35 2h-13q6 -5 4 -12t-8 -9t-12 3h-1q-8 8 -14 20v3q0 1 0.5 1.5t0.5 1.5q1 6 7 10t13 4h7q21 0 44.5 -2t52.5 -5t45 -4q110 -6 175 -6l7 13h-1q-7 -1 -15 5l-4 3q-5 6 -2.5 12.5t8.5 8t12 -3.5
q10 6 24 24v1q6 5 14 4.5t14 -6t3 -11.5l-25 -50h5zM351 589zM19 546z" />
    <glyph glyph-name="tcaron" unicode="&#x165;" horiz-adv-x="360" 
d="M246 612q11 32 20.5 77.5t12.5 70.5h87v-9q-6 -26 -27 -71t-45 -80h-48v12zM2 522q206 -4 212 -4q31 38 71 91l1 1l1 1q1 2 2 2v1q16 9 22 -5q2 -3 2 -8q0 -2 -1 -4v-1q-14 -29 -46 -78q96 0 239 6l26 1q8 1 13 -5t3 -13t-11 -8q-138 -4 -280 -4q-27 -45 -78.5 -131
t-82 -136t-71 -119t-71.5 -125l-25 -43q-4 -6 -10 -6t-10.5 5.5t-1.5 12.5q11 20 89 158q80 140 202 344q-32 -36 -52.5 -57.5t-52.5 -49.5t-62 -46q-7 -4 -13 0t-6.5 10.5t5.5 11.5q48 29 89.5 70t91.5 101q-159 3 -194 3q-34 2 -50 -2q1 -2 5 -5.5t6 -5.5t3 -6.5t-4 -8.5
q-8 -9 -17 -1q-1 1 -6 5.5t-8 7.5t-5.5 8t-2.5 11q0 5 2.5 9.5t8 6.5t11 3.5t14 2t14.5 0.5t15 -0.5t13 -0.5zM308 591v-1v1z" />
    <glyph glyph-name="Tbar" unicode="&#x166;" horiz-adv-x="556" 
d="M232 399v235h-222v80h535v-80h-223v-235h148v-74h-148v-325h-90v325h-149v74h149z" />
    <glyph glyph-name="tbar" unicode="&#x167;" horiz-adv-x="360" 
d="M266 62q42 0 73 11v-67q-13 -6 -39 -11t-54 -5q-154 0 -154 171v119h-68v66h68v122h-76v42l77 35l35 114h52v-123h155v-68h-155v-122h146v-66h-146v-114q0 -52 21 -78t65 -26z" />
    <glyph glyph-name="Utilde" unicode="&#x168;" horiz-adv-x="730" 
d="M440 772q-21 0 -41 9t-39.5 19.5t-37 19.5t-34.5 9q-24 0 -36 -14.5t-19 -43.5h-51q6 60 34 94t76 34q22 0 42.5 -9t39.5 -19.5t37 -19.5t33 -9q23 0 35.5 14.5t19.5 43.5h50q-6 -58 -34 -93t-75 -35zM322 222l2 -3v-1h1q0 -4 2.5 -5.5t7 -1t9.5 1.5t10 2.5t8 3l5 2.5
q19 9 41.5 25t32.5 24t36 31q70 60 198 196q22 23 62 69q5 6 11.5 4t8.5 -8.5t-1 -12.5q-161 -220 -230 -340q-29 -52 -44 -91q-1 -2 -4 -15q0 -2 -1 -7q0 -1 -0.5 -3.5t-0.5 -3.5v-2q0 -8 -6 -10.5t-12 1t-6 11.5v5.5v4.5q2 9 5 18.5t5 16t6.5 16.5t6 14t7.5 15.5t7.5 13.5
t8.5 15t8 14q40 72 130 202l-10 -10q-70 -71 -135 -128q-69 -60 -115 -84q-13 -6 -26 -9.5t-26.5 0.5t-18.5 18l-3 5v1q-3 10 -3 25q2 46 33 106q-129 -79 -225 -108q-61 -17 -90 -8q-4 0 -10.5 4.5t-6.5 11t5.5 11t12.5 0.5h1q22 -13 82 5q38 11 86 32q80 36 162 88
q1 1 3.5 2.5t3.5 2.5q39 60 80 101q18 18 33 26h2h1l1 0.5t2 0.5q6 1 11.5 -4t5.5 -12q0 -1 -0.5 -2.5l-0.5 -1.5q-4 -17 -13.5 -31.5t-18 -23t-23.5 -20.5q-28 -23 -67 -50q-2 -1 -3 -4q-26 -44 -39 -82q-7 -23 -7 -42q0 -13 2 -21v-1zM467 490q-8 -6 -16.5 -15
t-14.5 -15.5t-15.5 -17.5t-13.5 -16q29 22 47 43q6 6 13 21z" />
    <glyph glyph-name="utilde" unicode="&#x169;" horiz-adv-x="618" 
d="M383 607q-21 0 -41 9t-39.5 19.5t-37 19.5t-34.5 9q-24 0 -36 -14.5t-19 -43.5h-51q6 60 34 94t76 34q22 0 42.5 -9t39.5 -19.5t37 -19.5t33 -9q23 0 35.5 14.5t19.5 43.5h50q-6 -58 -34 -93t-75 -35zM160 205q-21 21 -5 66q-9 -7 -25 -21.5t-30 -25t-27 -19.5
q-15 -7 -21 -7h-4q-4 0 -8.5 3t-4.5 7q-4 14 6 30q20 43 25 60q3 11 3 18v3q-10 0 -35 -14q-10 -6 -16.5 5t4.5 17q30 17 47 17q8 0 14 -4t8.5 -10t2.5 -13q0 -13 -3.5 -26.5t-7.5 -22t-11 -21.5t-9 -19v-1q36 22 82 66q27 25 32 31q8 7 16.5 0.5t3.5 -15.5q-19 -39 -24 -65
q-1 -11 0 -14v-1v-1q6 0 24 11q17 11 56 42t62 44q10 6 17 -4.5t-4 -16.5q-23 -15 -61.5 -44.5t-55.5 -41.5q-24 -18 -42 -16q-2 0 -5 1l-3 1zM174 226z" />
    <glyph glyph-name="Umacron" unicode="&#x16a;" horiz-adv-x="730" 
d="M217 842h297v-71h-297v71zM322 222l2 -3v-1h1q0 -4 2.5 -5.5t7 -1t9.5 1.5t10 2.5t8 3l5 2.5q19 9 41.5 25t32.5 24t36 31q70 60 198 196q22 23 62 69q5 6 11.5 4t8.5 -8.5t-1 -12.5q-161 -220 -230 -340q-29 -52 -44 -91q-1 -2 -4 -15q0 -2 -1 -7q0 -1 -0.5 -3.5
t-0.5 -3.5v-2q0 -8 -6 -10.5t-12 1t-6 11.5v5.5v4.5q2 9 5 18.5t5 16t6.5 16.5t6 14t7.5 15.5t7.5 13.5t8.5 15t8 14q40 72 130 202l-10 -10q-70 -71 -135 -128q-69 -60 -115 -84q-13 -6 -26 -9.5t-26.5 0.5t-18.5 18l-3 5v1q-3 10 -3 25q2 46 33 106q-129 -79 -225 -108
q-61 -17 -90 -8q-4 0 -10.5 4.5t-6.5 11t5.5 11t12.5 0.5h1q22 -13 82 5q38 11 86 32q80 36 162 88q1 1 3.5 2.5t3.5 2.5q39 60 80 101q18 18 33 26h2h1l1 0.5t2 0.5q6 1 11.5 -4t5.5 -12q0 -1 -0.5 -2.5l-0.5 -1.5q-4 -17 -13.5 -31.5t-18 -23t-23.5 -20.5q-28 -23 -67 -50
q-2 -1 -3 -4q-26 -44 -39 -82q-7 -23 -7 -42q0 -13 2 -21v-1zM467 490q-8 -6 -16.5 -15t-14.5 -15.5t-15.5 -17.5t-13.5 -16q29 22 47 43q6 6 13 21z" />
    <glyph glyph-name="umacron" unicode="&#x16b;" horiz-adv-x="618" 
d="M159 677h297v-71h-297v71zM160 205q-21 21 -5 66q-9 -7 -25 -21.5t-30 -25t-27 -19.5q-15 -7 -21 -7h-4q-4 0 -8.5 3t-4.5 7q-4 14 6 30q20 43 25 60q3 11 3 18v3q-10 0 -35 -14q-10 -6 -16.5 5t4.5 17q30 17 47 17q8 0 14 -4t8.5 -10t2.5 -13q0 -13 -3.5 -26.5t-7.5 -22
t-11 -21.5t-9 -19v-1q36 22 82 66q27 25 32 31q8 7 16.5 0.5t3.5 -15.5q-19 -39 -24 -65q-1 -11 0 -14v-1v-1q6 0 24 11q17 11 56 42t62 44q10 6 17 -4.5t-4 -16.5q-23 -15 -61.5 -44.5t-55.5 -41.5q-24 -18 -42 -16q-2 0 -5 1l-3 1zM174 226z" />
    <glyph glyph-name="Ubreve" unicode="&#x16c;" horiz-adv-x="730" 
d="M361 771q-69 0 -108.5 33.5t-44.5 100.5h54q4 -35 24.5 -49t76.5 -14q49 0 73 15.5t28 47.5h55q-6 -64 -48 -99t-110 -35zM322 222l2 -3v-1h1q0 -4 2.5 -5.5t7 -1t9.5 1.5t10 2.5t8 3l5 2.5q19 9 41.5 25t32.5 24t36 31q70 60 198 196q22 23 62 69q5 6 11.5 4t8.5 -8.5
t-1 -12.5q-161 -220 -230 -340q-29 -52 -44 -91q-1 -2 -4 -15q0 -2 -1 -7q0 -1 -0.5 -3.5t-0.5 -3.5v-2q0 -8 -6 -10.5t-12 1t-6 11.5v5.5v4.5q2 9 5 18.5t5 16t6.5 16.5t6 14t7.5 15.5t7.5 13.5t8.5 15t8 14q40 72 130 202l-10 -10q-70 -71 -135 -128q-69 -60 -115 -84
q-13 -6 -26 -9.5t-26.5 0.5t-18.5 18l-3 5v1q-3 10 -3 25q2 46 33 106q-129 -79 -225 -108q-61 -17 -90 -8q-4 0 -10.5 4.5t-6.5 11t5.5 11t12.5 0.5h1q22 -13 82 5q38 11 86 32q80 36 162 88q1 1 3.5 2.5t3.5 2.5q39 60 80 101q18 18 33 26h2h1l1 0.5t2 0.5q6 1 11.5 -4
t5.5 -12q0 -1 -0.5 -2.5l-0.5 -1.5q-4 -17 -13.5 -31.5t-18 -23t-23.5 -20.5q-28 -23 -67 -50q-2 -1 -3 -4q-26 -44 -39 -82q-7 -23 -7 -42q0 -13 2 -21v-1zM467 490q-8 -6 -16.5 -15t-14.5 -15.5t-15.5 -17.5t-13.5 -16q29 22 47 43q6 6 13 21z" />
    <glyph glyph-name="ubreve" unicode="&#x16d;" horiz-adv-x="618" 
d="M303 606q-69 0 -108.5 33.5t-44.5 100.5h54q4 -35 24.5 -49t76.5 -14q49 0 73 15.5t28 47.5h55q-6 -64 -48 -99t-110 -35zM160 205q-21 21 -5 66q-9 -7 -25 -21.5t-30 -25t-27 -19.5q-15 -7 -21 -7h-4q-4 0 -8.5 3t-4.5 7q-4 14 6 30q20 43 25 60q3 11 3 18v3
q-10 0 -35 -14q-10 -6 -16.5 5t4.5 17q30 17 47 17q8 0 14 -4t8.5 -10t2.5 -13q0 -13 -3.5 -26.5t-7.5 -22t-11 -21.5t-9 -19v-1q36 22 82 66q27 25 32 31q8 7 16.5 0.5t3.5 -15.5q-19 -39 -24 -65q-1 -11 0 -14v-1v-1q6 0 24 11q17 11 56 42t62 44q10 6 17 -4.5t-4 -16.5
q-23 -15 -61.5 -44.5t-55.5 -41.5q-24 -18 -42 -16q-2 0 -5 1l-3 1zM174 226z" />
    <glyph glyph-name="Uring" unicode="&#x16e;" horiz-adv-x="730" 
d="M475 878q0 -49 -30.5 -78t-80.5 -29t-79.5 28.5t-29.5 77.5q0 48 29.5 76.5t79.5 28.5q49 0 80 -29t31 -75zM420 877q0 26 -16 41t-40 15t-40 -15t-16 -41t14.5 -41t41.5 -15q25 0 40.5 15t15.5 41zM322 222l2 -3v-1h1q0 -4 2.5 -5.5t7 -1t9.5 1.5t10 2.5t8 3l5 2.5
q19 9 41.5 25t32.5 24t36 31q70 60 198 196q22 23 62 69q5 6 11.5 4t8.5 -8.5t-1 -12.5q-161 -220 -230 -340q-29 -52 -44 -91q-1 -2 -4 -15q0 -2 -1 -7q0 -1 -0.5 -3.5t-0.5 -3.5v-2q0 -8 -6 -10.5t-12 1t-6 11.5v5.5v4.5q2 9 5 18.5t5 16t6.5 16.5t6 14t7.5 15.5t7.5 13.5
t8.5 15t8 14q40 72 130 202l-10 -10q-70 -71 -135 -128q-69 -60 -115 -84q-13 -6 -26 -9.5t-26.5 0.5t-18.5 18l-3 5v1q-3 10 -3 25q2 46 33 106q-129 -79 -225 -108q-61 -17 -90 -8q-4 0 -10.5 4.5t-6.5 11t5.5 11t12.5 0.5h1q22 -13 82 5q38 11 86 32q80 36 162 88
q1 1 3.5 2.5t3.5 2.5q39 60 80 101q18 18 33 26h2h1l1 0.5t2 0.5q6 1 11.5 -4t5.5 -12q0 -1 -0.5 -2.5l-0.5 -1.5q-4 -17 -13.5 -31.5t-18 -23t-23.5 -20.5q-28 -23 -67 -50q-2 -1 -3 -4q-26 -44 -39 -82q-7 -23 -7 -42q0 -13 2 -21v-1zM467 490q-8 -6 -16.5 -15
t-14.5 -15.5t-15.5 -17.5t-13.5 -16q29 22 47 43q6 6 13 21z" />
    <glyph glyph-name="uring" unicode="&#x16f;" horiz-adv-x="618" 
d="M417 713q0 -49 -30.5 -78t-80.5 -29t-79.5 28.5t-29.5 77.5q0 48 29.5 76.5t79.5 28.5q49 0 80 -29t31 -75zM362 712q0 26 -16 41t-40 15t-40 -15t-16 -41t14.5 -41t41.5 -15q25 0 40.5 15t15.5 41zM160 205q-21 21 -5 66q-9 -7 -25 -21.5t-30 -25t-27 -19.5
q-15 -7 -21 -7h-4q-4 0 -8.5 3t-4.5 7q-4 14 6 30q20 43 25 60q3 11 3 18v3q-10 0 -35 -14q-10 -6 -16.5 5t4.5 17q30 17 47 17q8 0 14 -4t8.5 -10t2.5 -13q0 -13 -3.5 -26.5t-7.5 -22t-11 -21.5t-9 -19v-1q36 22 82 66q27 25 32 31q8 7 16.5 0.5t3.5 -15.5q-19 -39 -24 -65
q-1 -11 0 -14v-1v-1q6 0 24 11q17 11 56 42t62 44q10 6 17 -4.5t-4 -16.5q-23 -15 -61.5 -44.5t-55.5 -41.5q-24 -18 -42 -16q-2 0 -5 1l-3 1zM174 226z" />
    <glyph glyph-name="Uhungarumlaut" unicode="&#x170;" horiz-adv-x="730" 
d="M221 783q17 22 42.5 65.5t44.5 82.5h96v-10q-16 -27 -58.5 -75t-74.5 -75h-50v12zM397 783q23 32 49 76.5t38 71.5h96v-10q-16 -27 -58.5 -75t-74.5 -75h-50v12zM322 222l2 -3v-1h1q0 -4 2.5 -5.5t7 -1t9.5 1.5t10 2.5t8 3l5 2.5q19 9 41.5 25t32.5 24t36 31
q70 60 198 196q22 23 62 69q5 6 11.5 4t8.5 -8.5t-1 -12.5q-161 -220 -230 -340q-29 -52 -44 -91q-1 -2 -4 -15q0 -2 -1 -7q0 -1 -0.5 -3.5t-0.5 -3.5v-2q0 -8 -6 -10.5t-12 1t-6 11.5v5.5v4.5q2 9 5 18.5t5 16t6.5 16.5t6 14t7.5 15.5t7.5 13.5t8.5 15t8 14q40 72 130 202
l-10 -10q-70 -71 -135 -128q-69 -60 -115 -84q-13 -6 -26 -9.5t-26.5 0.5t-18.5 18l-3 5v1q-3 10 -3 25q2 46 33 106q-129 -79 -225 -108q-61 -17 -90 -8q-4 0 -10.5 4.5t-6.5 11t5.5 11t12.5 0.5h1q22 -13 82 5q38 11 86 32q80 36 162 88q1 1 3.5 2.5t3.5 2.5q39 60 80 101
q18 18 33 26h2h1l1 0.5t2 0.5q6 1 11.5 -4t5.5 -12q0 -1 -0.5 -2.5l-0.5 -1.5q-4 -17 -13.5 -31.5t-18 -23t-23.5 -20.5q-28 -23 -67 -50q-2 -1 -3 -4q-26 -44 -39 -82q-7 -23 -7 -42q0 -13 2 -21v-1zM467 490q-8 -6 -16.5 -15t-14.5 -15.5t-15.5 -17.5t-13.5 -16
q29 22 47 43q6 6 13 21z" />
    <glyph glyph-name="uhungarumlaut" unicode="&#x171;" horiz-adv-x="618" 
d="M164 618q17 22 42.5 65.5t44.5 82.5h96v-10q-16 -27 -58.5 -75t-74.5 -75h-50v12zM340 618q23 32 49 76.5t38 71.5h96v-10q-16 -27 -58.5 -75t-74.5 -75h-50v12zM160 205q-21 21 -5 66q-9 -7 -25 -21.5t-30 -25t-27 -19.5q-15 -7 -21 -7h-4q-4 0 -8.5 3t-4.5 7
q-4 14 6 30q20 43 25 60q3 11 3 18v3q-10 0 -35 -14q-10 -6 -16.5 5t4.5 17q30 17 47 17q8 0 14 -4t8.5 -10t2.5 -13q0 -13 -3.5 -26.5t-7.5 -22t-11 -21.5t-9 -19v-1q36 22 82 66q27 25 32 31q8 7 16.5 0.5t3.5 -15.5q-19 -39 -24 -65q-1 -11 0 -14v-1v-1q6 0 24 11
q17 11 56 42t62 44q10 6 17 -4.5t-4 -16.5q-23 -15 -61.5 -44.5t-55.5 -41.5q-24 -18 -42 -16q-2 0 -5 1l-3 1zM174 226z" />
    <glyph glyph-name="Uogonek" unicode="&#x172;" horiz-adv-x="730" 
d="M356 -116q0 -22 12 -33.5t33 -11.5t48 6v-56q-34 -9 -62 -9q-103 0 -103 94q0 68 78 126h62q-34 -32 -51 -58.5t-17 -57.5zM322 222l2 -3v-1h1q0 -4 2.5 -5.5t7 -1t9.5 1.5t10 2.5t8 3l5 2.5q19 9 41.5 25t32.5 24t36 31q70 60 198 196q22 23 62 69q5 6 11.5 4t8.5 -8.5
t-1 -12.5q-161 -220 -230 -340q-29 -52 -44 -91q-1 -2 -4 -15q0 -2 -1 -7q0 -1 -0.5 -3.5t-0.5 -3.5v-2q0 -8 -6 -10.5t-12 1t-6 11.5v5.5v4.5q2 9 5 18.5t5 16t6.5 16.5t6 14t7.5 15.5t7.5 13.5t8.5 15t8 14q40 72 130 202l-10 -10q-70 -71 -135 -128q-69 -60 -115 -84
q-13 -6 -26 -9.5t-26.5 0.5t-18.5 18l-3 5v1q-3 10 -3 25q2 46 33 106q-129 -79 -225 -108q-61 -17 -90 -8q-4 0 -10.5 4.5t-6.5 11t5.5 11t12.5 0.5h1q22 -13 82 5q38 11 86 32q80 36 162 88q1 1 3.5 2.5t3.5 2.5q39 60 80 101q18 18 33 26h2h1l1 0.5t2 0.5q6 1 11.5 -4
t5.5 -12q0 -1 -0.5 -2.5l-0.5 -1.5q-4 -17 -13.5 -31.5t-18 -23t-23.5 -20.5q-28 -23 -67 -50q-2 -1 -3 -4q-26 -44 -39 -82q-7 -23 -7 -42q0 -13 2 -21v-1zM467 490q-8 -6 -16.5 -15t-14.5 -15.5t-15.5 -17.5t-13.5 -16q29 22 47 43q6 6 13 21z" />
    <glyph glyph-name="uogonek" unicode="&#x173;" horiz-adv-x="618" 
d="M458 -116q0 -22 12 -33.5t33 -11.5t48 6v-56q-34 -9 -62 -9q-103 0 -103 94q0 68 78 126h62q-34 -32 -51 -58.5t-17 -57.5zM160 205q-21 21 -5 66q-9 -7 -25 -21.5t-30 -25t-27 -19.5q-15 -7 -21 -7h-4q-4 0 -8.5 3t-4.5 7q-4 14 6 30q20 43 25 60q3 11 3 18v3
q-10 0 -35 -14q-10 -6 -16.5 5t4.5 17q30 17 47 17q8 0 14 -4t8.5 -10t2.5 -13q0 -13 -3.5 -26.5t-7.5 -22t-11 -21.5t-9 -19v-1q36 22 82 66q27 25 32 31q8 7 16.5 0.5t3.5 -15.5q-19 -39 -24 -65q-1 -11 0 -14v-1v-1q6 0 24 11q17 11 56 42t62 44q10 6 17 -4.5t-4 -16.5
q-23 -15 -61.5 -44.5t-55.5 -41.5q-24 -18 -42 -16q-2 0 -5 1l-3 1zM174 226z" />
    <glyph glyph-name="Wcircumflex" unicode="&#x174;" horiz-adv-x="930" 
d="M294 782q61 65 86 96.5t37 52.5h90q25 -49 125 -149v-11h-62q-44 26 -109 90q-64 -62 -107 -90h-60v11zM446 132h4h3q7 0 26 15q39 32 87 102q55 77 91 157q20 45 31 85q15 58 -8 68q-12 4 -8 15.5t16 7.5q14 -4 25 -18q12 -26 0 -77q-29 -109 -125 -251
q-24 -33 -34.5 -47.5t-34 -37.5t-46.5 -35q-5 -4 -21 -8h-7q-28 0 -43.5 20t-19 46.5t0.5 57.5v4q-23 -27 -63 -55q-3 -1 -7.5 -4t-6.5 -5l-15 -7q-4 -2 -13.5 -5t-13.5 -6h-2q-29 -4 -46 12t-20 45t-1 56.5t8 56.5q10 50 33 100q-88 -46 -158 -60q-19 -4 -41 -5h-9
q-4 0 -18 3q-13 2 -9 15q4 15 17 8q18 -9 56 -3q24 4 59 17q57 21 112 52q1 0 3 1.5t3 1.5q33 56 69 76q8 4 13 4h3q6 0 10 -5t4 -11q0 -1 -0.5 -2t-0.5 -2q0 -10 -16 -26q-22 -21 -66 -47q-48 -96 -53 -182q-3 -91 44 -82q21 7 35 15l13 8q46 32 87 84q7 8 16 3t6 -14
q-5 -20 -7.5 -41t-2 -44.5t10.5 -39t30 -16.5zM323 509q-19 -10 -28 -27q20 15 26 24l1.5 1.5t0.5 1.5z" />
    </font>
</defs>
</svg>
