<?xml version="1.0" standalone="no"?>
<!DOCTYPE svg PUBLIC "-//W3C//DTD SVG 1.1//EN" "http://www.w3.org/Graphics/SVG/1.1/DTD/svg11.dtd" >
<svg xmlns="http://www.w3.org/2000/svg" xmlns:xlink="http://www.w3.org/1999/xlink" version="1.1">
<metadata>
Created by FontForge 20190801 at Wed Jan 24 10:27:44 2024
 By root
Mats-Peter Forss
</metadata>
<defs>
<font id="FestiveScript-Pure" horiz-adv-x="200" >
  <font-face 
    font-family="Festive Script Pure"
    font-weight="400"
    font-stretch="normal"
    units-per-em="1000"
    panose-1="0 0 5 0 0 0 0 0 0 0"
    ascent="800"
    descent="-200"
    x-height="269"
    cap-height="672"
    bbox="-410 -295 1241.57 1046"
    underline-thickness="50"
    underline-position="-100"
    unicode-range="U+0001-206F"
  />
<missing-glyph horiz-adv-x="364" 
d="M33 0v666h265v-666h-265zM66 33h199v600h-199v-600z" />
    <glyph glyph-name=".notdef" horiz-adv-x="364" 
d="M33 0v666h265v-666h-265zM66 33h199v600h-199v-600z" />
    <glyph glyph-name="uni0000" 
 />
    <glyph glyph-name="uni0000" 
 />
    <glyph glyph-name="uni000D" unicode="&#xd;" 
 />
    <glyph glyph-name="uni0001" 
 />
    <glyph glyph-name="uni0002" 
 />
    <glyph glyph-name="uni0003" 
 />
    <glyph glyph-name="uni0004" 
 />
    <glyph glyph-name="uni0005" 
 />
    <glyph glyph-name="uni0006" 
 />
    <glyph glyph-name="uni0007" 
 />
    <glyph glyph-name="uni0008" 
 />
    <glyph glyph-name="uni0009" unicode="&#x9;" 
 />
    <glyph glyph-name="uni000A" unicode="&#xa;" 
 />
    <glyph glyph-name="uni000B" 
 />
    <glyph glyph-name="uni000C" 
 />
    <glyph glyph-name="uni000E" 
 />
    <glyph glyph-name="uni000F" 
 />
    <glyph glyph-name="uni0010" 
 />
    <glyph glyph-name="uni0011" 
 />
    <glyph glyph-name="uni0012" 
 />
    <glyph glyph-name="uni0013" 
 />
    <glyph glyph-name="uni0014" 
 />
    <glyph glyph-name="uni0015" 
 />
    <glyph glyph-name="uni0016" 
 />
    <glyph glyph-name="uni0017" 
 />
    <glyph glyph-name="uni0018" 
 />
    <glyph glyph-name="uni0019" 
 />
    <glyph glyph-name="uni001A" 
 />
    <glyph glyph-name="uni001B" 
 />
    <glyph glyph-name="uni001C" 
 />
    <glyph glyph-name="uni001D" 
 />
    <glyph glyph-name="uni001E" 
 />
    <glyph glyph-name="uni001F" 
 />
    <glyph glyph-name="space" unicode=" " 
 />
    <glyph glyph-name="exclam" unicode="!" horiz-adv-x="300" 
d="M42 216q-4 0 -7.5 3.5t-4.5 8.5q0 15 5 24l14 26l19 39l60 118q11 23 35 69l26 51l60 124l15 26q9 13 20 15q1 -1 7 -4l1 -3q1 -3 1 -9q0 -8 -3 -16q-4 -8 -10 -24l-9 -20l-83 -168l-115 -227l-8 -15q-4 -9 -13 -14l-5 -3q-2 -1 -5 -1zM-1 119q-8 4 -11 7q-5 3 -5 8
q-2 11 5 18t17 6q2 0 6 -2t6.5 -7t3.5 -6q2 -4 2 -7q0 -6 -5 -11.5t-12 -6.5q-2 -1 -7 1z" />
    <glyph glyph-name="quotedbl" unicode="&#x22;" horiz-adv-x="100" 
d="M0 535q0 4 1 6q13 48 31 71l4 6q4 4 10 3q6 -2 6 -6q2 -4 0 -9q-7 -28 -17 -47l-15 -29q-3 -7 -10 -8q-10 3 -10 13zM43 520l3 11l10 32q6 19 16 35q5 8 11 9q13 -3 13 -15q-3 -16 -3 -17l-3 -10l-21 -43q-2 -5 -5 -8t-9 -6q-10 0 -12 12z" />
    <glyph glyph-name="numbersign" unicode="#" horiz-adv-x="150" 
d="M82 164q-4 0 -9 7v6q0 14 6 22q2 2 4 9l-2 2q-9 1 -15.5 0.5t-10.5 -0.5q-4 -5 -8 -13t-7 -13q-5 -8 -12 -9q-6 0 -9 5q-3 4 -1 10l6 16l2.5 7.5t0.5 7.5q0 4 3 7q1 2 2 3.5t2 2.5q-1 3 -4 3l-23 -1q-7 0 -9 6q0 7 8 10q9 4 27 6l10 2l3 4q12 29 27 54q3 6 11 16
q5 7 12 8q9 -3 9 -12q0 -5 -2 -13q-3 -11 -8.5 -24t-8.5 -20l-3 -8q2 -1 6 -1q5 0 8.5 1t7.5 1l14 22l9 13q7 7 12 9h3q5 0 8 -3t3 -7q1 -4 -1 -8q-1 -6 -5 -13q-2 -6 -4 -9q6 -1 14 0.5t14 1.5t9 -1q5 -3 5 -8q0 -8 -8 -10l-31 -6q-4 0 -14 -2q-2 -3 -3.5 -6t-3.5 -6l23 -3
l4 -1q7 0 7 -8q0 -6 -6 -9q-2 -1 -8 -1h-19h-10q-4 -3 -5.5 -7.5t-2.5 -6.5l-9 -18q-1 -3 -5 -9t-11 -6h-2zM81 234l12 1l1 4q0 1 -0.5 1h-0.5q-13 0 -19 -1h-3l-2 -4z" />
    <glyph glyph-name="dollar" unicode="$" horiz-adv-x="250" 
d="M-49 19v3q1 3 2 6.5t3 7.5l21 53q3 9 4 11l-4 8q-10 25 -10 46q0 12 2.5 19t10.5 10l4 -2v-2q0 -1 -5 -9l-1 -11q0 -5 1 -8q4 -18 9 -30q1 4 2.5 5.5t1.5 2.5q9 22 37 78l45 88q28 54 63 115l5 10l-2 12q-1 16 -5 48v8q0 16 4 28q3 14 12 26q16 21 42 19q3 0 9 -2l15 -6
q1 0 2 1.5t1 2.5q16 27 30 57l3.5 7t7.5 8l5 -1q3 -3 2 -7q0 -4 -2 -10q-5 -23 -19 -51l-12 -26l5 -13q3 -7 3 -16q0 -4 -2 -12q0 -1 -2 -3q-4 1 -4 5l-1 12q-2 8 -6 12l-1 -2q-10 -17 -18 -32t-14 -27l-21 -39q0 -6 1 -10l7 -62q2 -22 2 -34q0 -14 -2 -40q-1 -28 -9 -57
q-22 -79 -95 -118q-25 -13 -48 -16q-19 0 -28 4q-4 2 -6 2q-4 -4 -5 -6l-25 -54l-5 -10l-4 -3q-4 0 -6 4zM191.5 506.5q12.5 21.5 18.5 33.5l-4 3q-2 0 -8 2l-5 1q-12 0 -19 -12q-1 -2 -4 -11q-4 -13 -4 -31q0 -7 2 -25q11 18 23.5 39.5zM28.5 109.5q4.5 1.5 9.5 3.5l28 14
q49 29 68 73q13 30 16 66q2 16 2 48q1 14 -1 32t-3 26l-8 -14l-53 -101q-4 -7 -8.5 -16l-10.5 -21q-41 -78 -60 -108v-4l13 -1z" />
    <glyph glyph-name="percent" unicode="%" horiz-adv-x="250" 
d="M6.5 100.5q-2.5 0.5 -3.5 1.5q-7 3 -5 12q3 16 10 28q16 33 52 97l30 52l10 18l30 52l15 26q25 42 30 52q22 36 27 43q9 11 15 15q4 2 6 2q4 0 7 -4q1 -5 0 -11q-24 -58 -36 -81l-33 -59l-38 -65l-17 -30l-28 -49q-21 -37 -35 -66l-10 -17q-9 -14 -23 -18q-1 1 -3.5 1.5z
M65 355q-11 0 -19 8q-12 11 -12 28q0 26 19 47q7 6 13.5 9t15.5 2l4 -3q3 -1 3 -4h4l13 7q10 -2 12 -6q3 -8 2 -14q-8 -35 -27 -56q-6 -7 -13 -13q-6 -5 -15 -5zM75 372l9 9q18 21 26 51l-1 4q-6 0 -10 -2t-9 -6q-13 -12 -19.5 -20.5t-7.5 -20.5l-6 -5q0 -5 1.5 -8t4.5 -5
q9 0 12 3zM124 152q-6 6 -6 16v6q0 10 3 17q7 23 23 33q10 2 19 6q3 1 14 4h4q9 -2 12 -7q1 -2 3 -7t0 -11q-2 -5 -7 -23q-8 -20 -17 -31q-6 -7 -11 -11t-13 -5q-13 0 -24 13zM172 174q10 14 13 31q1 4 1 13q0 5 -6 6q-12 -2 -18 -7q0 -1 -0.5 -3.5t-2.5 -5.5l-4 -9
q-1 -3 -6 -13.5t-7 -20.5q2 -8 9 -10q12 5 21 19z" />
    <glyph glyph-name="ampersand" unicode="&#x26;" horiz-adv-x="435" 
d="M468 638q0 -14 -7 -24q-11 -18 -32 -29q-24 -13 -49 -17q-6 0 -10.5 -1t-7.5 -2q-10 -2 -14 -1l-25 -2q-10 1 -30 1q-2 1 -5 0.5t-5 0.5q-11 -13 -19 -30q-13 -24 -15 -52q-1 -3 -1 -10q0 -12 5 -27q3 -10 16 -35q7 -13 17 -26t12 -16q5 -7 5 -8l5 -10q-2 -2 -2 -4t-1 -3
q-1 0 -2 -0.5t-2 0.5q-5 1 -13 6q-8 7 -17.5 10t-27.5 6q-33 3 -67 -10q-61 -23 -104 -65q-51 -53 -60 -122q-2 -10 -2 -29q0 -22 4 -39q6 -34 31 -62q39 -42 102 -55q18 -4 35 -3q60 8 88 55q7 15 11 26t4 24t-7.5 25.5t-20.5 18.5l-7 1q-4 0 -11 0.5t-16 2.5
q-18 1 -34 -10q-14 -10 -23 -25q-1 -2 -2.5 -4.5t-2.5 -4.5l-6 2q-1 1 -1 3q0 7 6 19q15 27 35 40q16 11 38 13l17 -1l32 -1q15 0 22 3q14 6 19 17q13 21 10 43l-2 15q0 5 4 6l3 -3q9 -16 8 -33q0 -19 -5 -33q-7 -26 -33 -40q-15 -6 -30 -9q8 -8 13 -21q5 -10 5 -26
q0 -12 -1 -18q-4 -23 -20 -48q-27 -41 -76 -54q-20 -5 -35 -5q-7 0 -21 2q-50 8 -90 32q-43 28 -62 67q-11 26 -12 40l-3 22q-1 6 -1 18q0 29 8 61q16 59 62 109q22 23 64 47q27 15 66 25q17 4 38 4q23 0 38 -5l16 -5q-1 1 -1 3q-16 16 -31 34q-21 30 -21 66q0 15 6 39
q9 26 18 40q4 6 4 9q-1 3 -3.5 3h-2.5q-33 7 -63.5 33.5t-30.5 62.5q0 35 35 73q4 2 5 2q5 0 7 -5t-3 -9q-31 -28 -31 -59q0 -29 25 -53.5t59 -35.5q9 0 12 1q5 5 11 15q29 33 65 55q36 20 66 26q24 3 26 3q7 0 11 -1q14 -3 26 -12q12 -11 12 -27zM454 633q0 10 -7 17
q-8 7 -23 7q-26 0 -48 -12q-42 -21 -82 -66q-1 -1 -3 -5q16 -4 38 -2q33 0 71 12q26 8 40 23q11 11 14 23v3z" />
    <glyph glyph-name="quotesingle" unicode="'" 
d="M73 311q-5 0 -8 3t-4 7q0 4 2 10q3 14 9 26q3 12 12 21q5 5 11 4q7 0 9 -8v-5l-2 -8q-3 -8 -8 -17q-1 -3 -5 -10t-5 -14q-2 -6 -7 -9h-4z" />
    <glyph glyph-name="parenleft" unicode="(" horiz-adv-x="175" 
d="M-30 96q0 7 4 12v8q-2 8 -2 12q0 5 2 13l11 63q7 43 20 87q28 102 68 206q21 58 46 104q16 30 27 43q10 14 22 15q1 -2 5 -4q1 -3 1 -8q0 -4 -2 -10q-4 -9 -11 -26t-13 -28q-17 -32 -43 -98q-14 -36 -31 -88q-32 -96 -47 -161q-3 -13 -10 -49l-10 -57q-2 -8 -4 -12
q-6 -13 -7 -22v-2q-2 -6 -6 -10q-5 -2 -14 -1q-6 6 -6 13z" />
    <glyph glyph-name="parenright" unicode=")" horiz-adv-x="175" 
d="M-35.5 54q-1.5 5 -0.5 10l3 7l10 26l9 19q19 34 40 79q37 77 57 143q7 20 25 91q16 65 30 137q6 32 8 44l4 22q1 7 5 21q1 4 5 10q3 4 8 4q6 0 9 -6q4 -5 4 -15l1 -5v-12q1 -10 -4 -38q-19 -105 -52 -231q-15 -55 -41 -119q-21 -49 -59 -126q-7 -13 -13.5 -22.5
t-10.5 -16.5l-15 -23q-3 -5 -7.5 -6.5t-9.5 0.5q-4 2 -5.5 7z" />
    <glyph glyph-name="asterisk" unicode="*" horiz-adv-x="100" 
d="M23 524q2 8 2 13q-4 -1 -9.5 -3.5t-10.5 0.5q-2 4 -1 9q2 2 13 9q10 4 14 7q3 3 -1 6l-18 19q-5 5 -5 12q0 5 5 6q0 1 2 1q8 -4 11 -7q1 -1 14 -11l6 10l3 7q4 5 9 4q4 -2 4 -7q0 -13 -2 -18q-2 -4 -2 -7q2 -1 3.5 0.5t2.5 1.5l20 9q7 2 12 1l4 -3q1 -5 -3 -7
q-4 -4 -10.5 -8.5t-10.5 -6.5l-8 -4l4 -7l9 -12q2 -6 2 -8v-2q0 -5 -5 -7q-1 -1 -3 -1q-4 0 -8 4l-1 3q-4 8 -17 19h-1q-3 -4 -5 -14q-4 -8 -2 -14q0 -3 -2 -5q-5 -4 -11 -1q-4 3 -4 12z" />
    <glyph glyph-name="plus" unicode="+" horiz-adv-x="225" 
d="M47 188q-9 0 -11 11q0 4 2 10q1 5 5 13l4 9l4 8q0 3 -5 5q-16 7 -28 7l-8 -1l-5 -1q-6 2 -5 7q2 4 10 6q12 2 38 8l19 3q2 2 3.5 6t2.5 6q12 26 28 49l9 11q5 5 11 5q3 -1 4.5 -2t2.5 -2l1 -8q0 -4 -2 -10l-11 -27l-9 -22q8 0 22 2q20 3 35 2q6 -3 1 -8l-21 -3
q-3 0 -8.5 -0.5t-12.5 -2.5q-4 -1 -11 -1.5t-11 -3.5l-17 -37l-10 -17l-15 -16q-4 -4 -8 -5q-1 -1 -4 -1zM59 254v4l-14 -3l5 -3l6 -2z" />
    <glyph glyph-name="comma" unicode="," horiz-adv-x="100" 
d="M-18 95q1 9 7.5 22.5t18.5 33.5q6 10 12 14q1 0 3.5 0.5t4.5 -0.5q8 0 8 -8q1 -2 1 -7q-1 -5 -3.5 -16t-6.5 -20l-11 -21q-3 -7 -6 -9.5t-12 -4.5q-14 2 -16 16z" />
    <glyph glyph-name="hyphen" unicode="-" horiz-adv-x="275" 
d="M10 228q-8 0 -24 2q-4 0 -7 1.5t-6 4.5q-2 5 3 7q2 1 5 1q19 0 29 1q23 0 35 1q19 0 29 1q4 0 9 0.5t12 -0.5q21 -1 58 -5q3 0 6 -1.5t4 -1.5q2 -1 2.5 -2.5t1.5 -2.5q-3 -7 -12 -7q-4 1 -12 1q-7 0 -11 -1q-25 -2 -37 -1q-8 0 -20 -0.5t-28 0.5q-13 0 -37 2z" />
    <glyph glyph-name="period" unicode="." horiz-adv-x="100" 
d="M36 128q-11 0 -17 10l-2 4l-3 9q1 13 12 22q7 5 14 5t13.5 -5t7.5 -13v-5q0 -8 -4 -15t-11 -10q-3 -2 -10 -2z" />
    <glyph glyph-name="slash" unicode="/" horiz-adv-x="250" 
d="M12 53q-9 0 -11 9q-2 5 0 10q3 17 9 34q22 60 47 119q19 41 48 111l14 32q6 12 28 64q22 53 54 125q7 19 25 55l14 31q4 13 19 17h4q8 -1 12 -11l1 -7q0 -3 -2 -9l-4 -7l-65 -144l-102 -238q-35 -81 -55 -134l-17 -40q-2 -3 -4 -6.5t-5 -6.5q-4 -4 -10 -4z" />
    <glyph glyph-name="zero" unicode="0" horiz-adv-x="234" 
d="M12 120l-7 11q-13 25 -13 60q0 37 9 67q5 21 10 39q16 44 43 99l10 20t14 26q31 49 52 75q14 18 24 26q9 9 22 14q7 3 16 3q18 0 29 -17q10 -18 14 -35q5 -16 7 -39q1 -6 1 -19q0 -16 -4 -48q-6 -43 -21 -84q-16 -48 -42 -98q-23 -42 -48 -69q-23 -25 -40 -34
q-19 -10 -40 -13q-23 0 -36 16zM57 125q1 0 11 2q15 4 40 23q36 33 61 76q23 41 41 94q21 66 21 126q1 22 -5 47q-4 17 -16 32q-1 3 -2 4.5t-2 2.5h-4q-4 0 -10 -2q-8 -5 -20 -17q-24 -26 -45 -60l-21 -34l-10 -18q-17 -30 -43 -90q-14 -33 -22 -77q-4 -28 -4 -45
q0 -15 3 -32q4 -22 12 -30q14 -2 15 -2z" />
    <glyph glyph-name="one" unicode="1" 
d="M6 89q-4 0 -7 3t-3 8q0 6 1 10q8 38 25 81q25 63 79 187q19 44 55 132q8 15 9 19q-28 -15 -47 -41q-3 -4 -7 -10t-10 -13l-6 -6q-6 -1 -9 3q0 2 1 3q2 6 6.5 12t6.5 9q17 19 20 24q5 5 15 13q11 11 35 25q4 3 8 3q8 0 13 -11q3 -8 2 -15q-5 -25 -13 -46q-9 -26 -23 -59
q-10 -25 -32 -73q-36 -80 -59 -142l-22 -57q-14 -34 -23 -49q-3 -5 -9 -8q-4 -2 -6 -2z" />
    <glyph glyph-name="two" unicode="2" horiz-adv-x="203" 
d="M-23 113q-5 1 -8 2q-10 2 -16 10.5t-5 19.5q4 21 10 30q4 6 9 13t11 16q28 35 69 80q29 31 56 62l30 33l39 43q22 25 31 50q4 11 5 14t1 9q0 13 -7 22t-20 13q-10 2 -16 2l-11 -1q-45 -9 -74 -40l-15 -15q-10 -11 -15 -22l-5 1q0 3 1 5l4 8q26 35 55 52q25 14 51 20
q4 1 12 1q11 0 22 -3q19 -6 28 -23.5t7 -34.5q-4 -37 -32 -81q-8 -13 -40 -51q2 2 -43 -49l-27 -29q-39 -43 -69 -79q-6 -6 -36 -47l-6 -11q4 -5 14 -7h15q26 2 40 4q9 1 23 1t23 1q7 0 11 -4q1 -4 -3 -5q0 -1 -2 -1q-26 0 -74 -6q-24 -4 -35 -4q-3 0 -8 1z" />
    <glyph glyph-name="three" unicode="3" 
d="M-11 97q-20 0 -36 12q-15 12 -15 30v5q0 11 5 23q6 13 20 37q4 8 10 10l4 -3q-12 -26 -14 -30q-4 -9 -8 -27v-4q0 -6 2.5 -10.5t8.5 -8.5q4 -1 11 -1q15 0 30 6q26 9 40 18q24 14 46 42q6 7 13 17t11 16q14 20 20 44q4 12 4 26q0 9 -1 13q-4 25 -32 35l-10 2
q-11 4 -14 17v6q0 15 7 23q7 10 25 26q27 23 47 53q4 5 7 13q5 14 3 25q-9 13 -27 13l-8 1q-14 0 -30 -7q-27 -12 -41 -30l-10 -10l-4 2q3 8 9 16q19 27 51 39q20 9 42 9q25 0 41 -15q11 -8 11 -25q3 -18 -8 -39q-14 -25 -32 -43l-54 -53l-5 -5q0 -4 4 -6q7 -3 16 -9t14 -9
q20 -13 29 -42q2 -5 2 -16t-3 -23q-9 -30 -35 -67q-20 -27 -37 -43q-38 -36 -91 -50q-9 -3 -18 -3z" />
    <glyph glyph-name="four" unicode="4" horiz-adv-x="208" 
d="M47 88q-6 7 -4 16q0 6 3 12q12 36 15 43q26 70 40 105l2 6q-3 -1 -13 -6q-10 -3 -20 -3q-7 0 -11 1q-7 1 -16 8q-15 15 -19 25q-8 18 -8 33q-1 2 -1 7t2 15q6 33 20 66q7 20 29 64l22 47q2 5 6 13.5t10 18.5q1 1 11 14l6 3h4q1 1 2 0.5t2 -0.5l5 -5q2 -8 2 -11t-2 -9
l-6 -17q-15 -38 -36 -79q-18 -38 -26 -58q-10 -23 -17 -61l-1 -23v-4q0 -18 7.5 -27.5t19.5 -9.5q3 0 11 2q14 5 24 15q4 6 6.5 12t4.5 10q30 66 46 99q17 35 36 66q8 11 15 18q3 4 9 8q2 1 5 1q5 0 8 -4t2 -8q0 -5 -4 -11q-9 -25 -28 -60l-17 -37l-18 -37q-27 -56 -55 -126
q-21 -54 -39 -108q-1 -2 -2 -6t-4 -9q-3 -12 -16 -15q-10 2 -12 6z" />
    <glyph glyph-name="five" unicode="5" horiz-adv-x="225" 
d="M36 82q-27 0 -52 20q-16 14 -22 38l-3 13v5q0 12 5 24q10 28 31 54q1 1 4.5 6.5t9.5 8.5l4 -3q-3 -4 -13.5 -20.5t-17.5 -31.5t-9 -30l2 -9q4 -18 16.5 -29t31.5 -13q15 -1 37 8q35 15 56 47q19 30 31 62q12 30 17 67q1 8 1 22q0 18 -2 27l-3 12q-4 9 -15 9h-6
q-8 0 -26 -4q-16 -4 -37 -16q-11 -7 -21 -11q-16 3 -19 19q-3 10 -2 19q1 29 19 66q12 25 38 73q6 12 19 27q4 4 7.5 6t9.5 2q3 -1 9 -5q5 -2 11 -10l8 -12q16 -26 39 -40q9 -5 24 -7q24 0 49 11l21 9l3 -3q0 -2 -1 -2l-3 -4l-30 -16q-30 -16 -69 -13q-23 3 -38 18
q-17 15 -22 25l-3 4l-3 -2l-32 -64l-24 -55l-9 -25q-2 -4 2 -7q3 0 5 1l25 11q20 11 53 18q25 3 40 -16q11 -14 15 -37q2 -12 2 -18q0 -10 -1 -17.5t-2 -12.5q-5 -37 -29 -92q-17 -36 -43 -64q-27 -27 -63 -39q-12 -4 -25 -4z" />
    <glyph glyph-name="six" unicode="6" 
d="M-12 115q-14 14 -22 38q-4 15 -4 33q0 15 1 22l3 19l-1 13q0 9 6 18q1 1 6 11q28 80 84 164q20 30 43 58q22 23 43 38q14 8 23 9h5q15 0 26 -8q21 -16 24 -42q1 -3 1 -9q0 -9 -4 -16q-1 0 -1.5 -0.5l-1.5 -1.5q0 2 -0.5 4.5t0.5 5.5q0 6 -4 18q-5 24 -28 27
q-10 -1 -19 -10l-13 -13q-33 -30 -59 -70q-38 -54 -65 -113l-3 -7v-0.5t1 -0.5q2 -2 4.5 0t3.5 3q16 8 37 15q17 3 31 2q17 -3 24 -17q11 -21 8 -39q-1 -4 -1 -10.5t-1 -10.5q-4 -23 -15 -45q-22 -45 -53 -75q-8 -8 -21 -16q-12 -7 -22 -8q-23 -2 -36 14zM46 125q12 8 17 13
q40 38 58 95q5 14 5 32l-1 20l-4 12q-6 14 -20 14q-13 0 -30 -5q-23 -9 -52 -26q-4 -8 -10 -24q-13 -45 -12 -73q0 -5 -1 -8q-2 -14 6 -38q1 -4 2.5 -6t2.5 -4q10 -12 24 -9q5 1 15 7z" />
    <glyph glyph-name="seven" unicode="7" horiz-adv-x="225" 
d="M18.5 117.5q-2.5 3.5 -1.5 7.5l3 13q0 1 1 3t0 3q0 11 4 22t5 13q28 81 57 135q22 40 50 86q34 55 70 106l4 7l-6 1q-5 0 -10 -1.5t-10 -1.5q-18 -2 -26 -2q-10 0 -26 2l-26 3q-24 5 -26 6t-10 2.5t-14 6.5q-1 1 -1 5l4 1l17 -3q32 -8 64 -12q18 -2 26 -2q27 0 49 7
q3 1 17 8q7 -4 8.5 -7t-0.5 -8l-2 -7q-3 -7 -13.5 -28.5t-20.5 -38.5l-63 -102q-38 -64 -67 -142l-10 -27q-5 -16 -7 -20l-1 -5q-8 -14 -14 -26q0 -1 -5 -8q-7 -5 -14 -2q-3 2 -5.5 5.5z" />
    <glyph glyph-name="eight" unicode="8" 
d="M22 87q-26 0 -48 20q-8 6 -12 15q-8 13 -11 33v6q0 10 3 19q8 29 28 51q14 14 37 30q16 12 24 17l10 8l-4 20q-7 25 -10 54q-1 10 -1 29q2 48 21 84q15 28 44 51q17 13 38 21q17 8 34 9h5q9 0 21 -5q6 -2 8 -8v-1q0 -4 -3.5 -6t-5.5 -3l3 -4q21 -25 18 -60q-1 -10 -7 -25
q-16 -35 -38 -60q-25 -30 -49 -50l-42 -36v-4q0 -5 1 -8q10 -34 14 -51q7 -29 6 -48q0 -25 -11 -50q-16 -39 -61 -47q-4 -1 -12 -1zM86 310q54 42 79 73q24 29 37 60q9 22 9 37q0 7 -1 11q-3 16 -10 27q-3 7 -10 11l-16 -3q-38 -13 -64 -37q-29 -26 -37 -67l-3 -23
q-2 -10 -2 -14q0 -23 10 -69l1 -4q0 -1 0.5 -2.5t2.5 -2.5zM67 127q13 15 15 38q1 5 1 14q0 18 -9 45l-15 44l-3 7l-5 -2q-39 -29 -49 -38q-26 -19 -36 -51q-3 -10 -3 -21q0 -15 9 -32q16 -26 48 -26q28 0 47 22z" />
    <glyph glyph-name="nine" unicode="9" 
d="M10 100q-24 0 -39 19q-11 14 -11 30v8q0 13 3 23q1 7 7 19t12 21h3l2 -1l1 -2l-1 -6q-2 -4 -4 -7q-9 -18 -9 -44q0 -25 18 -33q2 -1 5 -1.5t5 -1.5q9 1 17 8q37 30 55 64q14 25 33 72q24 63 31 79v3q-2 0 -3 -1l-16 -15q-7 -8 -29 -21q-10 -5 -18 -5q-3 0 -11 2
q-16 3 -23 21q-2 4 -4 16q-3 45 16 91q8 23 21 42q5 10 12 17q18 24 49 37q25 10 35 12q8 2 13 2q9 0 18 -3q15 -6 21 -21q4 -7 1 -16l-2 -2q-2 0 -4 2q-1 2 -2.5 6.5t-3.5 6.5q-8 15 -28 12q-21 -6 -39 -22q-55 -50 -70 -123q-2 -12 -2 -34q0 -8 3 -16q2 -4 4 -6.5t8 -5.5
q12 1 22 10q24 21 41 42q6 6 9 15l28 71l6 13q5 9 11 11q8 3 14 -1q6 -3 6 -9v-4q0 -6 -1 -10l-9 -23q-11 -33 -37 -97l-16 -40q-5 -15 -29 -74q-11 -29 -34 -68q-16 -24 -43 -45q-12 -10 -27 -15q-5 -2 -15 -2z" />
    <glyph glyph-name="colon" unicode=":" horiz-adv-x="100" 
d="M58 230q-14 6 -14 21q0 5 1 8q6 14 20 17h3q8 0 15 -6t7 -13v-3q0 -15 -12 -21q-11 -5 -13 -7zM36 128q-11 0 -17 10l-2 4l-3 9q1 13 12 22q7 5 14 5t13.5 -5t7.5 -13v-5q0 -8 -4 -15t-11 -10q-3 -2 -10 -2z" />
    <glyph glyph-name="semicolon" unicode=";" horiz-adv-x="100" 
d="M41 230q-14 6 -14 21q0 5 1 8q6 14 20 17h3q8 0 15 -6t7 -13v-3q0 -15 -12 -21q-11 -5 -13 -7zM-18 95q1 9 7.5 22.5t18.5 33.5q6 10 12 14q1 0 3.5 0.5t4.5 -0.5q8 0 8 -8q1 -2 1 -7q-1 -5 -3.5 -16t-6.5 -20l-11 -21q-3 -7 -6 -9.5t-12 -4.5q-14 2 -16 16z" />
    <glyph glyph-name="less" unicode="&#x3c;" 
d="M112 227q-12 1 -27 8q-17 6 -37 20q-9 7 -13 16q-4 7 -4 14q0 8 6 15l14 15q24 20 42 31l20 13q2 1 4.5 1.5t6.5 -0.5q3 -6 -2 -11q-18 -20 -28 -28l-23 -19q-4 -4 -10 -12q1 -4 5 -6l23 -13q5 -3 13.5 -6.5t13.5 -7.5l9 -3l6 -2l6 -2q9 -3 7 -13q0 -7 -5 -10
q-10 -5 -18 -2q-6 2 -9 2z" />
    <glyph glyph-name="equal" unicode="=" horiz-adv-x="250" 
d="M55 288l-13 6q-5 3 -5 9t7 9q6 2 10 2q8 1 22 1q5 0 12.5 -0.5t16.5 0.5l56 4h16q5 0 15 -2q8 0 12 -3q5 -4 7 -12q-3 -14 -20 -16q-22 -2 -62 -4q-7 0 -14.5 -1t-14.5 -1q-26 2 -45 8zM39 225q-6 2 -8 4q-4 4 -4 8q0 6 5 9t16 5q15 3 31 3l25 2q9 0 25 2h12l18 -2
q6 0 14 -2q6 -6 4 -13q-3 -7 -10 -8q-20 -6 -30 -8q-4 -2 -7 -2l-23 -1q-25 -3 -44 -2q-16 2 -24 5z" />
    <glyph glyph-name="greater" unicode="&#x3e;" 
d="M58 221q0 3 1 5q5 6 13 11l23 13l25 14l9 6q-15 18 -27 25l-28 12q-8 3 -16 5t-15 5q-2 1 -6 5l3 7q3 1 5 2t4 1q10 0 26 -2l20 -4q22 -5 38 -18l9 -8q13 -14 10 -29q-5 -13 -20 -21q-4 -2 -7.5 -3.5t-5.5 -2.5l-28 -12l-29 -16q-3 0 -4 5z" />
    <glyph glyph-name="question" unicode="?" horiz-adv-x="300" 
d="M43 205v4q0 3 2 11l9 27q12 30 14 38q8 21 18 38q35 66 89 138l61 77q26 31 42 60q11 18 14 36q3 11 3 21q0 16 -8 34q-5 15 -24 28q-22 16 -55 24q-15 4 -34 4q-10 0 -28 -2q-15 -1 -41 -13q-34 -17 -58 -52q-14 -19 -19 -35q-5 -12 -6 -25q0 -3 -1 -6.5t-1 -7.5
q0 -48 23 -82q12 -19 33 -33l2 -1.5t1 -3.5h-3q-5 0 -11 4q-12 9 -19 17q-23 24 -31 60q-3 17 -3 33q0 12 1 18l5 23q8 26 28 51q23 29 53 46q25 13 47 16q10 2 30 2q41 0 82 -18q10 -5 28 -19q15 -13 21 -33q6 -16 8 -42q0 -19 -6 -39q-8 -30 -26 -58q-12 -21 -35 -47
q-26 -31 -52 -67q-38 -51 -68 -104q-11 -18 -22 -43l-12 -20l-24 -48q-4 -8 -4 -12q-1 -11 -11 -11q-11 2 -12 12zM10 113q1 12 16 17l13 -9q4 -7 1 -16q-2 -1 -3.5 -2t-2.5 -2l-8 -3q-15 2 -16 15z" />
    <glyph glyph-name="at" unicode="@" horiz-adv-x="300" 
d="M-10 124q-24 8 -38 25t-20 32q-6 17 -6 33q0 34 23 71q26 44 66 74q24 18 52 32q19 9 40 9q16 0 34 -6q12 -3 24 -13q18 -14 24 -24q10 -13 12 -32q0 -26 -6 -43q-7 -22 -18 -46q-15 -28 -39 -49q-9 -9 -23 -14q-3 -1 -9 -1q-9 0 -19 4.5t-15 11.5q-8 11 -8 24v15
q-21 -11 -29 -15q-9 -4 -11 -5t-7 -1q-7 0 -11.5 5t-4.5 12q0 12 6 22q18 30 42 49q13 10 30 15q3 1 8 1q13 0 22 -14q7 -10 7 -27q0 -20 -5 -34q0 -1 -2 -5l-9 -1q-4 -10 -4 -15q0 -7 4 -12q6 -2 9 -4q12 2 24 13q24 21 35 46q14 30 17 47q2 8 2 26q-1 11 -10 21
q-11 12 -27 22q-20 10 -36 10q-13 0 -22 -4q-17 -5 -31 -14q-57 -38 -86 -85q-17 -26 -22 -51q-1 -5 -1 -16q0 -13 4 -24q6 -16 18 -30q4 -4 12 -10q19 -11 50 -16l8 1l10 1q22 0 46 13q14 8 40 26l20 13l12 8q6 3 10 -3q0 -7 -7 -12q-10 -8 -20 -14q-18 -14 -35 -26
q-35 -23 -68 -24l-10 -1q-2 0 -5 -0.5t-7 0.5q-20 1 -40 9zM66 239q5 3 8 8q11 16 27 20q0 14 -7 20h-2q-5 0 -10 -5q-15 -11 -28 -29q-13 -15 -15 -22l1 -1z" />
    <glyph glyph-name="A" unicode="A" horiz-adv-x="650" 
d="M378 -157q-8 10 -9 16l-6 26q-1 6 -1 14.5t-1 14.5q0 32 3 65q8 56 9 59l6 29q4 29 14 68l23 92q16 51 27 98q1 3 3.5 10t1.5 13q-5 1 -12.5 0.5t-12.5 0.5q-13 3 -26 3q-8 2 -26 4l-27 6q-19 5 -25 7l-25 8q-6 1 -25 10l-5 -6q-18 -32 -29 -47q-37 -62 -86 -132
q-26 -36 -56 -65q-20 -19 -44 -29q-12 -4 -23 -3q-13 0 -26 11q-13 15 -19 31q-8 23 -8 53v16q-1 1 -1 4q1 3 2.5 13.5t5.5 17.5q2 6 4 8q0 1 5 3l3 -5q-1 -3 -1 -8q-7 -20 -7 -43t8 -49q6 -14 10 -21q1 -3 6 -8q12 -13 28 -9q14 4 25 12q18 11 41 36q26 29 42 55
q49 72 100 161l5 10v2l-19 9l-31 15l-22 11q-45 24 -79 34q-23 7 -41 7q-41 0 -80 -17q-20 -10 -40 -25l-4 -2l-4 1q6 11 14 15q36 27 82 35q17 3 32 3q14 0 27 -3q8 -1 14 -3t10 -3q25 -7 50 -20t30 -15q21 -12 42 -21l22 -11q1 -1 4 -1l3 6q54 94 80 141q14 23 44 67
q29 38 55 58q6 6 19 14q17 10 36 10q1 -1 3 -1t3 -1q16 -5 23 -17q9 -10 11 -29q4 -24 3 -47l-5 -61q-2 -17 -8 -41q-3 -22 -9 -45q-2 -10 -4 -18.5t-4 -16.5l-6 -24l-11 -38l6 -1q5 0 9.5 1t7.5 1q70 10 139 46l26 14q44 23 52 28q3 0 5 2q5 0 5 -4q0 -2 -1 -3l-20 -12
l-73 -39q-67 -34 -136 -43q-16 -2 -22 -2q-4 -12 -6.5 -22t-5.5 -18l-24 -86q-3 -10 -7 -30l-9 -33l-5 -21q-3 -10 -7 -30q-5 -17 -10 -41l-9 -37q-7 -31 -11 -52q-6 -28 -7 -42q-4 -36 -3 -54q1 -4 1 -10.5t1 -10.5q0 -5 5 -8q5 -4 11 1q10 6 16 16q16 24 23 36l23 44
q9 17 10 30q0 6 4 7q2 -4 2 -6q-3 -22 -14 -44q-17 -37 -37 -70q-6 -10 -10 -14q-6 -8 -11 -11q-7 -5 -13 -5q-3 0 -9 2q-1 0 -7 3zM453 361q1 1 1 3q9 30 15 55q12 48 16 71q8 30 11 55q6 38 6 78q0 25 -4 36q-3 9 -8 12q-2 1 -6 1t-7 -1l-6 -2q-16 -10 -24 -16
q-21 -18 -48 -53q-31 -45 -42 -62q-25 -40 -48 -81l-33 -56l-2 -6q35 -16 87 -27t91 -10q0 2 1 3z" />
    <glyph glyph-name="B" unicode="B" horiz-adv-x="600" 
d="M82 -79q-12 0 -18 1q-29 4 -51 19q-28 19 -29 54v5q0 13 8 28q10 20 34 41q52 39 112 57q5 2 11 3.5t12 4.5l33 9l9 3l6 3q14 2 20 4q20 4 31 7q5 0 8 1q5 0 8 1h4q5 0 7 -4v-2l-1 -2q-2 -3 -45 -11q-9 -2 -17.5 -3.5t-15.5 -3.5l-24 -7q-20 -5 -38 -11q-49 -19 -80 -38
q-17 -10 -39 -32l-4 -5q-5 -5 -12 -21l-3 -8v0q-2 -8 -2 -11q0 -11 6 -21t17 -15q9 -5 21 -7q3 -1 10.5 -3t14.5 -2q4 0 6 1h5q5 0 6 -1h2q5 1 17.5 2.5t22.5 4.5q46 12 92 37q4 2 23 13t33 24q38 26 67 60q26 26 45 54q27 39 45 87q8 21 14 50l2 33q0 47 -38 67
q-22 9 -38 12l-33 3h-24q-9 0 -37 -8l-3 -1l-6 -2q0 -1 -0.5 -1h-0.5h-1q-2 -1 -6 -1h-1q-2 -2 -6 -4q-1 0 -5 -2q-1 -1 -6 -1h-1q0 -1 -2 -1q-9 1 -12 11v1l-1 2v2h-1q2 12 10 16l11 6q1 1 10 7q45 27 94 62q32 24 53 45q28 24 48 57q16 27 19 46q3 8 3 15t-3 14
q-3 17 -20 23q-4 2 -6 2q-10 4 -17 4h-8q-3 -1 -9 -1q-28 -6 -61 -22v-1q-24 -16 -44 -34q-21 -16 -51 -57q-45 -65 -73 -139q-23 -66 -54 -126q-16 -31 -48 -78l-12 -19q1 1 -20 -23l-19 -21l-3 -2q-12 -10 -17 -11q-2 0 -3 0.5l-1 0.5q-3 3 -3 6l2 8l1 1q81 97 120 192
q27 59 41.5 120t20.5 101q2 12 2 34q1 6 1 17v8q0 17 8 22l4 1l3 1q5 -1 6.5 -2.5t2.5 -6.5q2 -8 2 -25q0 -13 -5 -76l1 -1l-3 -17l-3 -17l-1 -4v-1q-1 -1 -1 -3h3q25 50 54.5 86t40.5 41q38 37 74 51q31 11 52 11h5q26 -2 40 -13q28 -16 28 -56q0 -6 -2 -22q-4 -21 -25 -57
q-10 -13 -35 -43l-48 -43q-25 -20 -83 -59l-4 -2h11h6h6h6q12 0 19 -3h10q4 0 6 -1q9 0 12 -2h1q32 -6 54 -23q24 -20 32 -52q0 -4 2 -10q3 -18 3 -21l-1 -3l-1 -6v-1q2 -3 2 -11q-3 -33 -10 -55q-15 -52 -52 -102q-24 -33 -50 -61q-7 -8 -19 -18.5t-19 -16.5l-12 -10
q-60 -48 -125 -73q-36 -17 -76 -21q-15 -3 -25 -3q-6 0 -9 1z" />
    <glyph glyph-name="C" unicode="C" horiz-adv-x="525" 
d="M56 36q-17 16 -30 38q-18 33 -24 71l-2 20l-2 20q-1 3 -0.5 5.5t0.5 4.5q1 2 1 8q1 41 23 101q21 60 65 127q18 28 52 68l3 4l-28 6q-7 1 -7 6q0 2 2.5 3.5t6.5 1.5q2 0 10 -2q12 -3 26 -3l8 7q40 43 91 80q45 32 77 49q33 16 66 23q9 2 26 2q14 0 21 -1q18 -3 29 -14
q10 -10 10 -20q0 -2 -2 -10q-4 -13 -13 -23q-11 -16 -40 -39q-47 -38 -116 -54q-27 -6 -54 -9q-50 -5 -62 -5q-8 -7 -22 -23q-43 -49 -76 -106q-28 -49 -44 -101q-9 -24 -14 -59q-5 -28 -5 -51q0 -47 17 -80q22 -45 72 -59q28 -6 42 -6q21 0 42 6q41 11 77 33q4 3 9 6t11 8
q46 29 72 51q5 4 15 12.5t16 16.5q3 -1 3.5 -2.5t-0.5 -2.5q-2 -4 -7 -9l-38 -34l-39 -32q-48 -38 -95 -54q-40 -14 -72 -14q-57 0 -101 35zM213 513q7 0 23 2q19 1 59 9q46 10 80 29q36 20 61 46q19 21 22 38q-5 9 -17 9h-7q-6 0 -20 -2q-23 -4 -50 -16q-42 -19 -92 -57
q-37 -28 -62 -52l-2.5 -2.5t-0.5 -3.5h6z" />
    <glyph glyph-name="D" unicode="D" horiz-adv-x="600" 
d="M127 -3q-15 3 -31 14q-19 14 -19 37q0 7 4 19q6 17 22 32q20 19 48 27h1q17 4 23 5h2q14 2 21 2h8q25 0 38 -2q5 0 13 -2l4 -1l2 -1l-1 -5h-1h-8l-19 2q-15 0 -22 -1h-9q-18 0 -43 -5q-33 -8 -53 -29q-13 -15 -15 -26q-2 -6 -2 -10v-4v-2l2 -4q5 -14 19 -20t31 -6
q27 0 62 15q47 21 88 53q37 31 59 56q25 30 44 60q36 57 59 118q18 44 29 93q10 43 10 87q1 25 -7 64q-4 20 -17 43q-9 15 -26 26q-11 7 -28 7q-13 0 -38 -9q-35 -15 -68 -44q-39 -34 -63 -66l-24 -32q-5 -5 -9 -15l-3 -6l-88 -195l-27 -62v0l-27 -62q-28 -59 -38 -76l-1 -2
q-16 -27 -24 -36q-6 -6 -11 -8l-8 2v1v0.5t-1 0.5q0 2 -1 2v4q0 2 2 10l10 30q23 57 60 126q16 34 23 51l5 11l89 198q37 82 71 163q21 52 31 86q0 2 1 3v2l-2 -1q-8 -16 -29.5 -34t-48.5 -31t-52 -13q-29 0 -48 20q-8 7 -8 15q0 9 6 9q2 0 7 -5q13 -22 41 -22
q22 0 48.5 12.5t48 31t29.5 34.5l6 7l9 11l3 3l2 2q5 6 13 3q8 -2 10 -10q1 -3 1 -9t-1 -10l-1 -2q-2 -11 -8 -33q-7 -25 -25 -70q-16 -40 -25 -59l-14 -34l-1 -5l2 2v1q16 20 28 32q45 50 94 77q31 17 57 21q35 3 60 -19q14 -12 26 -35q9 -19 15 -47q0 -5 2 -13l1 -8
q3 -18 3 -35q0 -61 -19 -131q-21 -75 -60 -146q-29 -54 -57 -88q-31 -39 -71 -72q-32 -26 -74 -49q-34 -18 -69 -22l-17 -1q-18 0 -31 4z" />
    <glyph glyph-name="E" unicode="E" horiz-adv-x="435" 
d="M53 -8q-43 28 -62 67q-11 26 -12 40l-3 22q-1 6 -1 18q0 29 8 61q16 59 62 109q22 23 64 47q27 15 66 25q17 4 38 4q23 0 38 -5l16 -5q-1 1 -1 3q-16 16 -31 34q-21 30 -21 66q0 15 6 39q9 26 18 40q4 6 4 9q-1 3 -3.5 3h-2.5q-33 7 -63.5 33.5t-30.5 62.5q0 35 35 73
q4 2 5 2q5 0 7 -5t-3 -9q-31 -28 -31 -59q0 -29 25 -53.5t59 -35.5q9 0 12 1q5 5 11 15q29 33 65 55q36 20 66 26q24 3 26 3q7 0 11 -1q14 -3 26 -12q12 -11 12 -27q0 -14 -7 -24q-11 -18 -32 -29q-24 -13 -49 -17q-6 0 -10.5 -1t-7.5 -2q-10 -2 -14 -1l-25 -2q-10 1 -30 1
q-2 1 -5 0.5t-5 0.5q-11 -13 -19 -30q-13 -24 -15 -52q-1 -3 -1 -10q0 -12 5 -27q3 -10 16 -35q7 -13 17 -26t12 -16q5 -7 5 -8l5 -10q-2 -2 -2 -4t-1 -3q-1 0 -2 -0.5t-2 0.5q-5 1 -13 6q-8 7 -17.5 10t-27.5 6q-33 3 -67 -10q-61 -23 -104 -65q-51 -53 -60 -122
q-2 -10 -2 -29q0 -22 4 -39q6 -34 31 -62q39 -42 102 -55q18 -4 35 -3q60 8 88 55q7 15 11 26t4 24q0 16 -10.5 30t-27.5 17q-18 2 -22 4.5t5 5.5q4 1 13 1t18 -3q22 -8 30 -31q5 -10 5 -26q0 -12 -1 -18q-4 -23 -20 -48q-27 -41 -76 -54q-20 -5 -35 -5q-7 0 -21 2
q-50 8 -90 32zM400 584q26 8 40 23q11 11 14 23v3q0 10 -7 17q-8 7 -23 7q-26 0 -48 -12q-42 -21 -82 -66q-1 -1 -3 -5q16 -4 38 -2q33 0 71 12z" />
    <glyph glyph-name="F" unicode="F" horiz-adv-x="600" 
d="M126 -115q-21 0 -41 12q-18 10 -29 31q-10 18 -12 38q-2 14 -2 20q0 5 1 14.5t2 16.5q10 57 48 109q15 22 37 44q26 26 56 47q39 29 84 51q32 16 79 34q6 2 10.5 4t8.5 3l26 9l6 14q50 136 74 204l25 68q6 14 25 67q1 1 3 8q-2 3 -7 1q-26 -7 -34 -10l-35 -10l-112 -27
q-22 -5 -66 -13q-28 -7 -63 -10q-50 -6 -74 -6l-20 -1q-19 0 -53 2q-52 6 -79 13q-35 8 -58 26q-12 10 -22 24q-9 15 -9 32q0 13 6 26q9 18 26 32q19 14 45 25q54 25 102 41q26 9 54 15q21 6 47 4q5 0 5 -4q-9 -3 -18 -3q-11 0 -41 -7q-35 -9 -103 -35q-34 -14 -58 -27
q-19 -10 -34 -25q-11 -11 -16 -27q-2 -8 -2 -13q0 -10 5 -20q6 -12 16 -19q20 -15 43 -21q24 -6 49 -9q34 -2 50 -2l49 1q13 0 39 4l25 3q16 2 82 14l83 18q52 12 77 19q44 12 104 30t93 28q60 19 135 37q34 7 72 12q9 1 22 1.5t22 2.5q9 -1 26.5 -2t30.5 -5l15 -7
q24 -15 24 -45q0 -26 -9 -49.5t-25 -50.5q-24 -38 -38 -55l-3 -4q-47 -50 -83 -72q-6 -5 -33 -19q-6 -4 -11 -1q0 2 2 2q16 5 32.5 17t23.5 17q26 17 56 51q21 24 40 54q16 25 28 55q11 29 8 58q-2 17 -14 25q-8 5 -16 6q-18 4 -27 4q-7 0 -10 -1q-8 -2 -26 -4
q-24 -3 -72 -15q-60 -15 -146 -41q-61 -19 -79 -25q-2 0 -6 -2l-3 -9q-7 -27 -17.5 -57.5t-13.5 -39.5q-10 -30 -32 -90q-34 -96 -52 -144l-6 -17q1 -3 4 0l40 12q60 19 102 29q4 1 13.5 3t18.5 1q13 0 17 -11l-2 -3h-3q-7 4 -14 4q-5 0 -13 -2q-30 -6 -44 -10
q-61 -16 -124 -37l-4 -8q-15 -41 -47 -123q-24 -60 -49 -108q-31 -58 -62 -97q-37 -46 -75 -73q-22 -16 -47 -23q-16 -4 -23 -4zM185 -72q27 23 52 58q25 34 51 84q32 60 73 160l22 59l3 6t1 9h1v1q0 -1 -1 -1l-9 -2q-13 -4 -39 -14q-63 -24 -120 -60q-67 -46 -104 -90
q-32 -38 -49 -81q-15 -43 -14 -78q2 -21 6 -31q9 -24 26 -36q19 -14 37 -14q11 0 24 5q23 9 40 25z" />
    <glyph glyph-name="G" unicode="G" horiz-adv-x="440" 
d="M467 553q0 -19 -11 -38q-15 -23 -38 -42q-25 -21 -63 -36l-45 -14q-7 -1 -17.5 -3.5t-17.5 -3.5q-8 0 -20 -2q-20 -2 -29 -2q-9 -1 -27 -1q-35 0 -75 5h-3l-7 -8q-38 -51 -53 -100q-8 -28 -8 -46q-3 -30 23 -51q27 -19 55 -19q8 0 12 1q44 6 76 30q13 9 27 26
q11 14 18 28q3 5 6 10.5t5 11.5q1 1 4 6.5t9 8.5h2q12 0 17 -17q-1 -33 -9 -71q-27 -112 -62 -185q-26 -56 -57 -93q-42 -52 -95 -79q-50 -26 -100 -26q-42 0 -74 22q-29 19 -42 48q-7 17 -7 37q2 43 19 74q10 21 31 39q28 22 61 29q19 5 57 5q62 -6 90 -13q4 -2 8.5 -3.5
t9.5 -3.5q3 -3 5 -3q-2 -5 -6 -4l-5 1q-40 10 -89 13q-21 0 -31 -2q-18 -2 -29 -4q-34 -11 -48 -20q-31 -19 -43 -51q-10 -24 -11 -44q-4 -37 25 -62q17 -17 37 -23q13 -4 33 -4q53 0 111 36q34 21 66 59q32 37 51 84q32 62 50 139q4 17 11 41q1 6 4.5 17.5t4.5 17.5
q-2 -4 -8 -12.5t-9 -12.5q-37 -42 -81 -57q-40 -15 -73 -12q-40 5 -61 25q-17 17 -20 40q-3 14 -3 27q0 15 5 35q9 38 33 82l24 37l-4 3q-51 21 -77.5 56.5t-26.5 77.5q0 20 6 41q4 8 9 8q3 0 4.5 -3.5t0.5 -7.5q-5 -17 -5 -40q0 -82 97 -121l6 -1l16 20q43 50 83 82
q27 24 67 46q22 13 58 26q9 3 21.5 5.5t19.5 3.5q16 2 23 2q15 0 33 -3q19 -3 34 -15q16 -13 20 -31q2 -10 2 -16zM423 588l-8 3q-7 2 -21 2t-31 -3q-2 -1 -5 -2t-5 -2q-20 -4 -28 -8q-38 -16 -83 -44q-46 -32 -97 -88l-14 -17l7 -3q34 -2 53 -2q22 0 33 2q7 1 20 1
q28 2 41 5q40 9 51 13q44 17 66 32q22 16 37 38q10 13 12 32q2 32 -28 41z" />
    <glyph glyph-name="H" unicode="H" horiz-adv-x="500" 
d="M241 18q-13 15 -15 38q-2 10 -2 30q0 23 4 42q7 34 21 72q18 56 59 132l3 7q-2 3 -6 1q-34 -15 -75 -25q-12 -3 -53 -13l-42 -9l-16 -3l-7 -8q-22 -35 -54 -76q-37 -45 -74 -73q-14 -10 -36 -22q-14 -8 -31 -8q-16 0 -25 13q-11 15 -9 34q4 29 21 55q23 36 67 55
q30 12 61 18l37 8l9 3q10 16 28 48q30 54 68 139q42 93 59 126q28 54 44 80q4 7 9 15.5t10 13.5q4 3 9 1q7 -4 4 -13q-2 -8 -4 -11q-4 -11 -8.5 -20.5t-7.5 -16.5l-12 -27q-31 -70 -38 -86l-40 -90q-33 -76 -72 -142l-3 -7v-2h6l51 11q18 4 27 7q58 15 103 34l7 4l9 16
q35 61 80 129q30 42 47 61q30 34 53 51q12 10 23 14q8 2 11 2q8 0 14.5 -5.5t7.5 -15.5q1 -4 1 -13q0 -14 -4 -26q-6 -19 -17 -38q-32 -52 -78 -93q-40 -35 -88 -61l-9 -5q-6 -3 -10 -10q-46 -86 -71 -145q-24 -59 -34 -96q-6 -24 -9 -48q0 -23 4 -34q6 -20 27 -23h5
q22 2 45 22q28 26 42 52q3 6 5.5 7.5t4 0t0.5 -4.5q-8 -17 -19 -31q-23 -31 -43 -43q-21 -14 -43 -13q-18 0 -31 15zM466 447q39 37 68 89q10 22 13 33q3 13 2 25q0 9 -6 13q-6 -1 -12 -7q-6 -4 -16 -14q-49 -51 -87 -111q-8 -12 -37 -60q-5 -7 -8 -12.5t-6 -10.5l-6 -11
q54 26 95 66zM-88 117q11 0 18 4q10 4 20 11q19 12 37 32q29 30 54 68q6 9 27 41q0 1 1.5 3t0.5 4h-2q-2 0 -14 -3q-27 -4 -56 -14q-41 -14 -65 -35q-35 -30 -42 -75q-3 -22 15 -36h6z" />
    <glyph glyph-name="I" unicode="I" horiz-adv-x="325" 
d="M348 672q3 0 5.5 -2t2.5 -6q-1 -2 -1 -4.5t-2 -5.5l-11 -22q-5 -11 -60 -96l-28 -44q-64 -116 -91 -176l-68 -151l-9 -20q-1 -3 -3 -8.5t-6 -12.5l-2 -9l8 -7q26 -24 23 -54q-5 -33 -22 -56q-12 -13 -28 -19q-18 1 -25 23q-4 13 -4 30q0 29 11 73l3 8l-2 3q-26 0 -42 -6
q-4 -2 -7.5 -4t-5.5 -3l-1.5 -0.5t-2.5 1.5q11 12 27 14q11 3 23 3q3 0 13 2q2 2 2 7q26 70 42 104l12 27q33 70 40 85q31 66 69 125q22 34 52.5 79.5t45.5 65.5l2.5 5t4.5 6q2 2 0 5q-2 0 -4 -1.5t-3 -2.5l-32 -20q-33 -20 -84 -36l-20 -5l-36 -9q-2 2 -2 3q0 5 22 9
q27 8 54 17q39 14 82 44q18 11 47 36q1 1 2.5 2t4.5 2q1 1 4 1zM315.5 631.5q0.5 0.5 -0.5 1.5q-1 0 -1 -1q1 -1 1.5 -0.5zM73.5 106q-1.5 0 -2.5 1q-8 -17 -15 -42q-8 -25 -8 -59q1 -2 2.5 -7t6.5 -6q13 4 24 18q17 25 17 51q0 27 -22 43q-1 1 -2.5 1z" />
    <glyph glyph-name="J" unicode="J" horiz-adv-x="475" 
d="M31 -13q-10 0 -19 3q-15 4 -25 21q-6 11 -6 25q0 6 1 9q8 35 30 60q24 27 56 43q38 20 82 28q37 6 70 5h14q3 2 5.5 6t3.5 6q37 63 65 120q28 59 48 115q17 46 45 138l6 21q12 36 20 64l2 7l-21 -10q-44 -24 -92 -40q-47 -14 -83 -19q-14 -3 -49 -7h-1l-15 -1q-15 0 -9 9
q51 3 96 13q90 19 159 64l20 12q4 2 6 2q8 0 12 -8t3 -12q0 -8 -1 -12q-7 -43 -25 -108q-16 -56 -41 -127q-22 -58 -35 -86q-11 -24 -35 -72q-17 -35 -41 -71q0 -1 -5 -8l9 -4q19 -3 58 -14q6 -1 5.5 -4.5t-5.5 -1.5l-18 4l-18 3q-6 2 -18 4q-6 2 -10.5 2.5t-7.5 0.5
q-2 -2 -10 -12q-29 -44 -77 -90q-35 -32 -75 -54q-32 -18 -63 -23q-4 -1 -11 -1zM70 17q36 17 64 43q51 45 91 107l3 5h-9h-12q-20 0 -30 -1q-34 -4 -49 -9q-51 -13 -86 -41q-29 -24 -41 -54q-6 -13 -6 -28t7.5 -25t24.5 -10t43 13z" />
    <glyph glyph-name="K" unicode="K" horiz-adv-x="750" 
d="M881 5l-1 -2l-27 -33l-17 -22q-5 -7 -17 -21q-32 -37 -70 -58q-20 -12 -43 -12q-20 0 -35 7q-28 12 -53 42q-28 33 -39 77q-7 23 -15 69l-7 39l-3 28l-5 35q-3 20 -9 62t-8 50q-2 10 -4 16q-3 18 -10 30h1l-5 11q-19 41 -66 50h-3l-4 -6q-20 -56 -31 -83
q-24 -61 -48 -102q-21 -35 -48 -63q-38 -39 -75 -62q-34 -21 -68 -28q-22 -5 -39 -5q-21 0 -45 8q-22 9 -33 20q-12 10 -19 20q-13 15 -18 40q-2 6 -2 19q0 26 18 55q11 20 33 38q28 25 59 44q5 3 12 7t16 9q50 27 135 60l47 17q37 14 65 23l13 6q16 40 23 60q22 58 34 86
q18 44 28 65q4 14 10 27t10 14l8 1q5 0 7 -3.5t4 -13.5q-1 -17 -8 -35.5t-9 -23.5l-29 -70l-32 -84q0 -1 -2 -7q9 1 23 7l104 39q79 31 139 68q13 8 39 20l3 -3l-4 -4q-55 -36 -127 -69q-35 -16 -107 -42l-25 -9l-39 -14q-3 -1 -5.5 -2t-4.5 -2l-3 -8l12 -3q29 -5 58 -31
q14 -12 25 -35q14 -25 25.5 -87t14.5 -93t9 -61q4 -20 5 -30q2 -14 4 -19q10 -54 33 -97q11 -21 33 -42q23 -19 49 -18q16 2 29 9q19 8 45 30q21 18 41 45q20 26 31 38q4 7 11 12q1 2 2 2t2 1zM409 379h-1q-4 0 -9 -3q-79 -27 -156 -57q-71 -30 -111 -55q-48 -28 -79 -62
q-14 -15 -24 -37q-7 -17 -7 -36q0 -22 12 -43q21 -34 61 -44q15 -3 29 -3q16 0 32 3q28 7 56 25q46 31 85 81q45 60 71 126q24 60 35 90z" />
    <glyph glyph-name="L" unicode="L" horiz-adv-x="515" 
d="M85 -94q-23 0 -43 7q-22 7 -34 29q-7 12 -9 27q0 14 8 27q10 19 29 33q20 16 53 30q38 14 74 20q26 4 39 5q18 2 39.5 2h28.5h6q4 6 5 9q11 22 29 68q12 32 34 98q4 14 14 42q34 102 54 152l2 7h-6q-19 -4 -31 -5q-18 -4 -28 -4q-42 -4 -65 -4l-20 1q-9 1 -30 2.5
t-38 4.5q-17 2 -27 5.5t-10 6.5q0 2 7 2l16 -2q10 -2 53 -7q27 -2 80 -2l48 4l39 6l16 4q4 6 5 9q28 66 63 125q22 37 49 62q25 27 60 42q18 8 36 8t31 -11t14 -29q0 -13 -5 -30q-6 -25 -27 -52q-24 -32 -60 -59q-51 -39 -116 -61l-12 -4q-9 -21 -11 -26l-12 -34
q-13 -30 -21 -58l-57 -166q-21 -60 -40 -104l-2 -4l13 -3q59 -9 118 -32l43 -17q26 -12 38 -19l61 -39l9 -6q4 -4 4 -8l-4 -2l-4 2q-41 24 -75 37l-76 32q-53 21 -114 34q-14 2 -21 4l-5 -7q-27 -51 -69 -90q-50 -46 -114 -59q-16 -3 -32 -3zM470 489q59 23 101 54
q37 28 61 61q23 29 27 62v10q0 11 -6 17t-17 6q-9 0 -19 -5q-22 -9 -39 -26q-40 -36 -69 -87q-12 -20 -41 -78q-3 -7 -6 -16zM76 -69q18 0 31 4q60 19 108 64q16 14 40 48q10 14 11 20q-4 3 -12 3q-32 0 -48 -1q-26 -2 -38 -4q-37 -6 -77 -20q-28 -10 -44 -23
q-20 -15 -29 -33q-6 -10 -3 -22q1 -7 7 -17q6 -9 14 -13q15 -5 19 -5q7 -1 21 -1z" />
    <glyph glyph-name="M" unicode="M" horiz-adv-x="850" 
d="M619 -68q-13 17 -20 47q-4 20 -4 30v9l-1 3l1 3q0 1 -0.5 2.5t0.5 3.5v10q2 10 2.5 17.5t0.5 12.5q8 39 19 78q19 70 45 142q15 43 49 127l24 64l7 14l9 23q4 12 14.5 39.5t17.5 50.5q3 11 7 31l5 23l1 9q0 10 -4 18l-1 1q-3 2 -9 2q-7 0 -13 -3q-10 -3 -24 -11
q-20 -10 -60 -38q-40 -29 -83 -67q-48 -46 -88 -93l-21 -26q-47 -56 -86 -107l-17 -22q-7 -10 -25 -33l-22 -31q-12 -15 -14 -17q-2 -4 -8 -12q-6 -6 -10 -8l-9 -2q-13 0 -16 15q-1 2 -1 6t1 8l2 8q4 10 7.5 20t7.5 19l16 43q24 60 33 84q6 16 16 48l4 16q2 2 2 8v4l1 2h-2
q-1 1 -3 1q-8 0 -18 -5h-1q-35 -13 -70 -39q-72 -53 -122 -105q-57 -53 -109 -124q-9 -9 -13 -22l-8 -18q-11 -17 -13 -19q-4 -6 -6.5 -7.5t-8.5 -1.5l-6 1q-9 5 -5 18q0 2 2 8l1 3l11 28q1 5 8 23q8 20 11 31l32 82q19 55 48 149q2 9 4.5 19t4.5 19q0 2 2.5 14t7.5 27.5
t9 17.5q3 1 7 1q5 0 6.5 -3t2 -7t1.5 -7q2 -12 2 -17q0 -4 -2 -22q-6 -29 -23 -87l-2 -9q-21 -66 -57 -166l-1 -2q-2 -4 -1 -8l2 -3l2 2l4 5l8 8q42 48 65 68l10 9l58 53q47 41 79 62q37 25 65 36q3 1 6.5 3t8.5 3h11h3q9 0 12 -9q4 -6 6 -19q-2 -20 -7 -39q-8 -34 -37 -107
l-6 -16l-10 -27q-1 0 -1 -2v-3l3 -3l10 12q5 6 9.5 11t9.5 11l49 58l25 29l43 51q58 67 106 109q2 2 37 31l20 16q10 8 13 9q8 7 50 41q23 17 47 31q16 7 29 6h4q13 -2 19 -12q4 -7 6 -14q3 -10 3 -22q0 -9 -1 -13q-3 -32 -12 -61t-25 -73l-15 -38q-9 -21 -25 -65l-27 -67
q-44 -114 -68 -199q-13 -49 -19 -83q-6 -36 -6 -59q0 -34 10 -55q6 -17 19 -24q2 -1 11 -4q1 -1 10 -4t9 -7q0 -5 -18 -9q-30 2 -50 29z" />
    <glyph glyph-name="N" unicode="N" horiz-adv-x="450" 
d="M413 545q0 -6 -2 -16q-9 -33 -21 -67q-15 -46 -50 -123q-47 -105 -73 -187q-13 -42 -19 -68q-8 -36 -8 -57q0 -10 4 -18q4 -10 14 -15t19 -2l6 2q5 0 5 -4q0 -3 -2.5 -7t-6.5 -5q-8 -2 -13 -2q-14 0 -26 8t-17 22q-3 8 -4 14t-2 10q-2 18 -2 27q0 57 18 111q18 55 44 116
q34 82 52 122q23 54 47 129l4 12q1 2 1 7t-1 8l-8 1q-9 0 -21 -8l-23 -16q-9 -7 -27 -25l-53 -52q-32 -33 -64 -75q-36 -45 -89 -119l-24 -33l-28 -41q-9 -13 -25 -41q-6 -8 -11 -16.5t-10 -16.5q-5 -7 -10 -7q-7 1 -9 4t-1 9q8 27 10 35q5 18 16 44q7 16 8 20q13 29 30 75
l25 66q14 39 44 115q36 98 56 163q1 1 3 10h-0.5t-0.5 1l-24 -14q-50 -32 -92 -52q-41 -19 -94 -32q-35 -6 -68 -6q-20 0 -30 1q-21 2 -32.5 5.5t-12.5 12.5q40 -8 61 -8h4q73 0 131 22q30 11 76 38q16 9 34.5 22t35.5 27q15 13 26 14q8 0 16 -9q5 -7 5 -21q-2 -14 -4 -23
q-16 -60 -39 -120l-61 -161l-13 -34l-22 -59q-1 -3 -3 -7t-1 -9q3 1 6 8q32 43 75 105q14 20 46 58l19 23q43 52 97 101q14 14 36 31q18 13 32 15q3 1 8 1q11 0 20 -7t12 -20zM58.5 241.5q-0.5 -0.5 0.5 -1.5l1 2q-1 0 -1.5 -0.5z" />
    <glyph glyph-name="O" unicode="O" horiz-adv-x="525" 
d="M101 -2q-25 0 -46 18q-14 12 -21 25q-16 30 -21 63q-3 17 -3 51q1 22 9 66q13 53 40 123q23 59 51 113q31 59 58 101l52 83l3 7h1v1l-1 -1l-10 -6q-82 -66 -161 -109q-53 -28 -98 -44q-15 -5 -34 -5q-9 0 -12 1.5t4 2.5q68 18 127 52q41 21 78 48q45 30 83 63l31 30
l23 23l17 17l8 1q7 0 11.5 -5.5t2.5 -12.5t-5 -12q-6 -12 -20 -36l-51 -84q-6 -9 -11 -17.5t-9 -14.5q-47 -76 -81 -152q-31 -68 -49 -126q-16 -49 -22 -85l-3 -31q-2 -12 -2 -18q0 -34 8 -58q8 -30 29 -45q15 -10 29 -10q13 0 25 4.5t21.5 10t12.5 7.5q29 19 51 40
q55 50 97 121q22 35 36 65q8 16 11 25l11 24v3q-1 2 -2 2h-2q-37 -9 -78 -7q-28 0 -52 21q-22 19 -32 53q-6 17 -6 35q-2 16 -2 23l4 36q4 34 20 81q18 48 50 90q20 27 41 40q8 5 19 10q9 4 23 4q28 0 46 -23q13 -17 22 -47q8 -30 8 -58q0 -7 1 -13.5t1 -13.5q-2 -38 -4 -59
q-4 -39 -15 -78q-5 -24 -21 -70q-4 -6 -3 -11q2 -2 3.5 -0.5t2.5 1.5q27 7 53 21q23 13 32 30l4 3q3 0 3 -4q-6 -14 -16 -21q-9 -9 -18 -13q-22 -14 -53 -22q-2 -1 -16 -5l-11 -27q-41 -96 -103 -174q-25 -32 -44 -50q-33 -31 -61 -49q-25 -15 -47 -20q-12 -2 -17 -2z
M303 316q9 0 25 2l31 4l17 4l3 7q24 68 33 122q5 27 6 52q2 30 2 44q0 23 -3 44q-3 23 -10 42q-5 15 -13 28l-12 14q-11 11 -28 11q-4 0 -14 -2q-15 -4 -31 -18q-31 -27 -52 -67q-27 -46 -41 -105q-6 -24 -8 -56v-9q0 -14 1 -21q3 -27 17 -54q23 -41 71 -42h6z" />
    <glyph glyph-name="P" unicode="P" horiz-adv-x="525" 
d="M-43 -3v3q0 7 3 11l4 13q4 9 10 26t12 28q6 14 8 21q8 21 24 59l11 28q24 59 39 92q23 52 47 99q5 9 15 32l8 22l24 65q16 44 43 126q10 40 22 76q6 14 8.5 23t3.5 13q4 15 7 19.5t10 1.5q6 -3 8 -12q2 -14 0 -19q-1 -3 -1 -8q-4 -14 -5 -21q-19 -65 -52 -169l-2 -5
l-3 -7v-3v0q3 0 5 4l2 2q28 33 67 65q5 3 21 13t30 15q35 17 75 17q29 -3 45 -16q33 -21 44 -62q5 -20 5 -38q0 -30 -9 -62q-12 -54 -43 -100q-12 -21 -31 -42q-36 -38 -83 -57q-25 -12 -58 -12q-27 0 -49 12q-16 9 -22 27q-4 11 -4 19q0 7 2.5 12t5 5.5t2.5 -3.5
q2 -21 11 -32q8 -9 17.5 -13.5t24.5 -4.5t39 8q34 13 76 45q37 33 60 81q16 31 22 57q10 40 10 72q0 22 -11 49q-22 41 -71 41q-38 -2 -67 -19q-31 -16 -71 -51q-22 -21 -34 -35q-4 -6 -9.5 -12t-10.5 -12l-5 -12q-3 -8 -6.5 -17t-7.5 -19l-6 -16l-6 -17q-4 -12 -8 -21.5
t-7 -18.5q-48 -122 -85 -204q-22 -57 -48 -104q-9 -17 -27 -45q-4 -4 -7 -10l-2 -2q-6 -6 -11 -7q-8 2 -9 6zM9.5 117h0.5q0 2 2 8l12 22q10 27 34 81l15 36l23 57v0.5t1 0.5l1 4h-1l-1 -2l-6 -11q-13 -28 -16 -34l-9 -21q-3 -7 -7 -17.5t-11 -24.5l-28 -72l-9 -19l-1 -2
q-1 -3 0 -7q0 1 0.5 1z" />
    <glyph glyph-name="Q" unicode="Q" horiz-adv-x="525" 
d="M487 381q-6 -14 -16 -21q-9 -9 -18 -13q-22 -14 -53 -22q-2 -1 -16 -5l-11 -27q-41 -96 -103 -174q-25 -32 -44 -50q-33 -31 -61 -49l-7 -4q5 -11 12 -18q11 -11 24.5 -14.5t26.5 -5t17 -2.5q9 -2 26 -2q11 1 31 1q4 2 7 2q4 1 8.5 2t10.5 1q-2 -4 -3 -4q-11 -4 -19 -5
q-28 -6 -42 -8h-21q-31 2 -51 9q-12 4 -27 13q-9 6 -23 20q-9 -4 -17 -5q-12 -2 -17 -2q-25 0 -46 18q-14 12 -21 25q-16 30 -21 63q-3 17 -3 51q2 28 4 40q-22 -2 -41 -16q-2 2 -1 4q4 9 13 13q2 1 5 3t9 4l17 3l3 15q13 53 40 123q23 59 51 113q31 59 58 101l52 83l3 7h1
v1l-1 -1l-10 -6q-82 -66 -161 -109q-53 -28 -98 -44q-15 -5 -34 -5q-9 0 -12 1.5t4 2.5q68 18 127 52q41 21 78 48q45 30 83 63l31 30l23 23l17 17l8 1q7 0 11.5 -5.5t2.5 -12.5t-5 -12q-6 -12 -20 -36l-51 -84q-6 -9 -11 -17.5t-9 -14.5q-47 -76 -81 -152q-31 -68 -49 -126
q-13 -45 -17 -59l5 -2q32 -12 49 -30q13 -14 20.5 -35.5t14.5 -54.5q8 -36 13 -51l13 7q29 19 51 40q55 50 97 121q22 35 36 65q8 16 11 25l11 24v3q-1 2 -2 2h-2q-37 -9 -78 -7q-28 0 -52 21q-22 19 -32 53q-6 17 -6 35q-2 16 -2 23l4 36q4 34 20 81q18 48 50 90
q20 27 41 40q8 5 19 10q9 4 23 4q28 0 46 -23q13 -17 22 -47q8 -30 8 -58q0 -7 1 -13.5t1 -13.5q-2 -38 -4 -59q-4 -39 -15 -78q-5 -24 -21 -70q-4 -6 -3 -11q2 -2 3.5 -0.5t2.5 1.5q27 7 53 21q23 13 32 30l4 3q3 0 3 -4zM412 455q5 27 6 52q2 30 2 44q0 23 -3 44
q-3 23 -10 42q-5 15 -13 28l-12 14q-11 11 -28 11q-4 0 -14 -2q-15 -4 -31 -18q-31 -27 -52 -67q-27 -46 -41 -105q-6 -24 -8 -56v-9q0 -14 1 -21q3 -27 17 -54q23 -41 71 -42h6q9 0 25 2l31 4l17 4l3 7q24 68 33 122zM124 18l-7 10q-12 19 -20 77q-4 28 -7 38q-9 30 -43 46
l-2 -12l-3 -31q-2 -12 -2 -18q0 -34 8 -58q8 -30 29 -45q16 -12 37 -9z" />
    <glyph glyph-name="R" unicode="R" horiz-adv-x="416" 
d="M554.5 -29.5q0.5 -0.5 0.5 -1.5q0 -2 -1 -2l-30 -34q-31 -36 -36 -42q-38 -40 -74 -58q-22 -10 -40 -10q-24 0 -41 8q-30 16 -53 45q-27 35 -38 82q-6 32 -8 48l-4 24l-5 40q-2 10 -2.5 17t-0.5 12l-3 39q-2 19 -1 28q-3 44 -16 103q-1 4 -4.5 18.5t-11.5 26.5
q-6 2 -13 5q-14 5 -16 6q-10 5 -12 19v2q0 7 5 10.5t13 1.5q6 -2 15 -9q8 -4 12 -7q19 0 39 6q37 9 82 33q56 31 101 76q31 31 51 67q14 33 17 44q3 17 3 33q0 15 -2 23q-8 26 -31 38q-22 9 -42 8q-43 -1 -90 -28q-38 -22 -75 -62q-26 -28 -58 -75q-7 -12 -13 -26l-43 -116
l-72 -181l-31 -71l-10 -19q-1 -4 -6 -7q-4 -4 -9 -4q-11 0 -11 9q2 14 7.5 31t7.5 22q16 46 33 86l15 38l30 75l29 76q10 25 46 121q20 51 33 97q1 2 1 6q1 3 4 14.5t6.5 18.5t8.5 7q4 0 8 -4q7 -6 9 -15q0 -7 -2 -21q-8 -36 -14 -54q-2 -6 -17 -46l-1 -9l4 4q28 37 38 48
q47 53 104 81q38 16 68 17q4 1 11 1q11 0 27 -4q36 -9 55 -44q14 -26 12 -54q0 -29 -20 -73q-18 -37 -49 -69q-56 -59 -138 -100q-18 -11 -43 -19q-19 -7 -34 -7q-4 0 -10 -2l-1 -3q8 -12 14 -28.5t10 -33.5q4 -20 8 -56q3 -26 5 -74q2 -37 8 -63q1 -8 2 -21t4 -30
q9 -59 30 -100q10 -23 33 -46q23 -22 50 -19q14 0 30 7q28 12 48 30q19 15 44 44l33 39q5 6 12 12q1 0 5 2q0 -1 0.5 -1.5zM165 344l-3 1v-1h3z" />
    <glyph glyph-name="S" unicode="S" horiz-adv-x="525" 
d="M57 -60q-24 11 -35 21q-28 28 -28 63q0 8 4 28q11 33 43 62q15 13 46 32q53 32 94 48q27 13 45 15q8 2 15 0q3 -2 0 -5l-5 -1q-17 -2 -42 -12q-52 -22 -114 -59q-26 -18 -37 -29q-20 -20 -30 -44q-7 -17 -7 -32q-1 -20 9 -36q11 -19 36 -31q28 -12 62 -14q26 0 45 5
q52 13 80 33q39 25 65 64q11 16 23 45q17 51 19 108q0 45 -1 68l-4 53q0 10 -2 32v5l-1 18l-3 63v47q1 3 1 7t-1 7q-41 0 -79 16t-62 44t-24 62q0 28 17 55q4 8 9 8q4 0 4 -5q0 -4 -3 -9q-15 -27 -15 -49q0 -33 25.5 -58.5t61.5 -39t67 -12.5q2 26 11 71q5 26 13 44
q11 33 35 61q25 29 56 39q15 5 28 5q23 0 44 -15q22 -19 22 -46q-1 -18 -9 -35q-9 -23 -29 -45q-38 -39 -81 -61q-9 -5 -27 -13q-4 -2 -29 -12q-2 -8 -1 -13q-1 -21 -1 -63l3 -49l2 -33q0 -8 2 -28q0 -7 1 -15t1 -16q0 -31 1 -47q1 -7 1 -20q0 -10 -2 -34q-1 -46 -15 -91
q-13 -43 -37 -76q-39 -53 -99 -77q-47 -18 -93 -18q-38 0 -75 14zM378 523q47 18 87 50q30 25 47 51q13 24 14 42q3 28 -23 40q-9 3 -17 3q-13 0 -27 -6q-19 -8 -37 -29q-25 -29 -37 -69q-11 -30 -14 -70q-2 -10 -1 -15z" />
    <glyph glyph-name="T" unicode="T" horiz-adv-x="475" 
d="M32 -25q-16 10 -24 33q-8 17 -8 38q0 18 7 35q8 23 29 40q14 12 27 21l7 4l10 5q0 -1 1 -1q-3 -1 -23 -14q-35 -26 -45 -61q-4 -12 -4 -26q0 -22 12 -43q5 -10 16 -17q22 -14 44 -14q13 0 25 4q17 3 43 19q56 39 89 98q26 45 51 120q15 46 43 158q6 18 8 32l6 26
q15 58 28 101q3 11 11 33l4 15q3 3 4 10v1l-1 1l-8 3v0q-31 9 -72.5 15.5t-81.5 6.5q-67 0 -110 -20q-6 -2 -7 -2q-6 0 -6 4q0 5 13 11q44 17 103 17q71 0 171 -25h1q5 1 7 7l2 3v0q14 29 35 57q42 50 87 70q34 14 66 14q25 0 46 -7q38 -12 59 -49q9 -16 9 -34q0 -10 -3 -19
q-8 -25 -27 -39q-26 -20 -65 -29q-31 -7 -58 -7l-25 1q-52 5 -77 12h-9l-7 1h-1v-1q-5 -4 -9 -14v-3q-13 -36 -19 -63l-51 -195q-17 -70 -43 -145q-23 -62 -51 -99q-36 -51 -75 -78q-38 -26 -79 -31q-5 -1 -14 -1q-34 0 -61 21zM625 591q26 8 44 23q24 19 24 47q0 16 -9 32
q-16 24 -43 34q-21 7 -38 7q-18 0 -36 -6q-30 -8 -65 -37q-29 -26 -54 -72q-1 -1 -1 -2.5t-1 -2.5q-7 -13 -8 -18v-2h1q14 -3 40 -7l6 -1q47 -5 74 -5q36 0 66 10z" />
    <glyph glyph-name="U" unicode="U" horiz-adv-x="500" 
d="M422 510q0 -10 -3 -22q-12 -48 -21 -72l-46 -128l-67 -184q-17 -48 -30 -103q-7 -20 -8 -36q-1 -5 -1 -15q0 -16 6 -26q5 -8 5 -12q0 -6 -8 -6q-15 4 -22 22q-8 24 -8 47q0 40 23 107q9 31 22.5 68t18.5 50l9 25l13 36q14 35 31 85q12 30 20 55q3 5 3 10q2 1 2 5
q-2 0 -2 -5q-4 -2 -5 -4q-43 -82 -77 -133q-28 -46 -61 -92q-39 -54 -69 -84q-12 -12 -26 -23.5t-26 -18.5l-19 -9q-8 -3 -22 -3q-15 2 -26 17l-6 13q-6 17 -7 34q-1 8 -1 24q0 38 10 83q13 52 32 109q32 96 49 143q8 25 20 55l14 39q5 14 18 65q15 65 23 73q5 5 9 5
q7 0 10 -12q2 -7 2 -21q-3 -28 -17 -82q-9 -32 -28 -82q-3 -9 -14 -41l-24 -70l-25 -70q-21 -63 -30 -100q-10 -38 -15 -81q-2 -16 -2 -48q0 -13 4 -22q0 -6 7 -10l10 -3q22 4 42 19q15 10 41 34q32 33 65 78q39 50 65 97q41 68 67 123q30 61 45 107q5 13 15 14q6 0 11 -6
q2 -3 4 -11v-7zM362.5 418.5l-1.5 1.5l1 -2q1 0 0.5 0.5z" />
    <glyph glyph-name="V" unicode="V" horiz-adv-x="400" 
d="M22 0q-14 0 -19 15l-4 16v22t2 31q1 3 3 35l5 37l2 25l6 50l7 52l2 29l4 33q3 24 3 26q2 13 4 37l4 40v2q0 24 3 49l4 49l1 25v54q0 26 -6 50q-2 8 -2 12l-3 4q-4 -1 -7 -4l-20 -21q-46 -58 -70 -86q-36 -42 -51 -59q-25 -30 -47 -52q-60 -60 -124 -100q-52 -33 -104 -50
q-5 -2 -16 -2q-9 0 -9 2q0 3 13 7q39 11 83 36q55 30 104 74q30 24 48 44q38 40 47 52q9 13 29 37l30 36l59 77q8 12 13 18q9 11 17 15q5 3 10 3q8 0 15 -7q6 -4 9 -10q2 -3 3.5 -8.5t2.5 -8.5q7 -29 8 -49q0 -60 -1 -89q0 -16 -4 -48v-3l-3 -49l-5 -60q-1 -15 -5 -45
l-7 -51q0 -9 -2 -31l-4 -29l-3 -23l-6 -55q-1 -17 -3 -30.5t-3 -22.5q-2 -20 -4 -29l-3 -33q-1 -5 -1 -15q2 -1 3.5 0.5t2.5 1.5l12 8q26 26 39 41q39 46 88 124q64 102 95 153q24 39 70 117l19 32l31 51q4 10 12 20t16 12q6 -1 11.5 -5t7.5 -5q19 -16 57 -26.5t71 -10.5
l14 1h6q9 0 9 -4q0 -2 -2.5 -4.5t-6.5 -3.5q-6 -1 -21 -1q-39 0 -81 11t-60 31q0 2 -3 2q0 1 -1 1q-4 0 -9 -7q-3 -4 -8.5 -12t-8.5 -15l-114 -188q-15 -25 -17 -29l-88 -143q-38 -62 -77 -112q-23 -31 -41 -47q-6 -5 -18 -13q-7 -4 -13 -4z" />
    <glyph glyph-name="W" unicode="W" horiz-adv-x="675" 
d="M643 529v-22q-11 -63 -41 -127q-29 -67 -75 -149l-37 -62q-25 -37 -56 -74q-30 -38 -71 -61q-20 -13 -37 -14q-4 -1 -11 -1q-27 0 -47 20q-14 18 -19 31q-9 19 -12 41l-2 17q-3 18 -3 36q0 74 17 129q1 1 0 4v-1l-3 -3q-18 -22 -68 -93q-27 -41 -40 -57q-18 -24 -33 -36
q-15 -11 -23 -14q-8 -4 -17 -4q-18 0 -28 15q-13 18 -14 32q-7 30 -5 79q4 58 22 124q21 85 53 169q20 58 55 133q7 19 14 31l13 31q3 4 6 4q5 0 12 -11l1 -6q1 -19 -12 -51l-36 -89q-28 -69 -49 -136q-17 -55 -26 -93q-16 -72 -21 -122q-3 -21 -3 -42q2 -22 4 -34
q2 -10 14 -17l6 -1q8 0 20 7q18 12 32 29l39 52l12 18q10 16 16 24q25 34 40 57q21 31 42 66l12 24q3 6 11 16q2 0 4.5 1t4.5 0h2q5 0 7 -7q3 -9 0 -16q0 -2 -5 -16l-16 -44q-23 -68 -24 -119l-1 -34q0 -11 2 -35v-3q0 -1 -0.5 -4t1.5 -6q3 -29 11 -49q1 -3 6 -11
q12 -18 33 -18q15 0 32 7q27 13 55 39l31 35q31 37 56 77q28 44 45 79q7 13 40 79l9 20q28 67 38 107l6 34q1 6 0.5 10t-0.5 8l-1 8l2 12q0 2 3 2.5t4 -1.5q3 -8 3 -24zM250 298l-1 -1h1v1z" />
    <glyph glyph-name="X" unicode="X" horiz-adv-x="460" 
d="M426 -21q-23 0 -43 10q-23 11 -40 29q-35 31 -64 78q-34 57 -54 137q-8 30 -11 56q0 1 -2 9q-3 0 -5 -2l-3 -3l-73 -79l-2 -1q-59 -62 -87 -92q-20 -19 -42 -44q-13 -11 -17 -13q-3 0 -5 2q0 1 -0.5 2t0.5 2l5 7l15 18l61 63q16 19 50 53l17 18l33 35l16 17l33 37
q0 6 -1 9l-7 56l-7 52q-2 18 -4 25l-3 41l-4 39l-3 26q-2 30 -4 45l-3 38q-8 -5 -11 -8q-32 -25 -75 -45q-16 -7 -23 -7q-3 0 -3 1q0 4 17 11q33 15 52 30q29 20 43 41q6 10 12 11q11 -1 16 -12q4 -13 5 -17q2 -6 2.5 -10.5t0.5 -7.5q2 -11 4 -37l3 -30l5 -36l2 -24l3 -38
l4 -29q2 -10 4 -26l3 -29q2 -10 4 -30l2 -2q3 0 8 5q27 30 56 59l27 27l55 55l54 51q4 4 24 19q3 3 7 0q0 -2 -1 -3q-5 -6 -14 -15l-15 -15l-12 -11l-34 -35q-22 -24 -67 -69q-14 -14 -25.5 -26t-21.5 -22l-34 -35l-4 -4q-2 -5 0 -14q8 -46 15 -77.5t19 -61.5
q25 -70 65 -126q17 -26 37 -39q23 -18 51 -18q23 0 39 9q12 7 22 7q6 0 7 -2.5t-4 -7.5q-16 -13 -32 -20q-18 -7 -38 -7z" />
    <glyph glyph-name="Y" unicode="Y" horiz-adv-x="475" 
d="M457 586v-2l-5 -19l-19 -55q-15 -41 -29 -84l-6 -20l-14 -44l-8 -25l-13 -38q-14 -44 -27 -79q-21 -59 -55 -121q-27 -48 -58 -83q-30 -36 -67 -62q-45 -31 -90 -39q-13 -3 -25 -3q-28 0 -53 14q-33 19 -33 57q0 27 11 52q18 39 55 70q35 29 83 46l10 3q16 6 73 25l41 12
q10 2 15 4h2.5t4.5 -3v-1l-2 -3q-4 -2 -12 -4q-80 -23 -140 -46q-58 -22 -102 -72q-24 -30 -30 -68q-1 -4 -1 -11q0 -11 3 -20q5 -15 16 -22q13 -10 35 -16q12 -2 16 -2q15 0 35 6q26 8 50 25q21 12 42 33q37 35 72 91q22 34 43 79q14 29 36 86q13 36 41 126q5 14 8 25
q2 5 7 22l10 28l10 31l1 6v1l-3 -3v-1l-14 -23l-28 -47q-33 -54 -69 -102q-23 -31 -49 -57q-28 -26 -45 -35q-18 -10 -30 -10q-20 0 -30 17q-7 12 -9 24q0 4 -1 5q-1 6 -1 18q0 9 1 13q1 5 1 15q1 4 1 12q3 19 12 52q22 82 51 154l16 36l8 17l6 14l9 19v1q3 3 1 4h-1
l-17 -14q-80 -68 -179 -100q-21 -7 -63 -14l-9 -1q-7 0 -7 2t5 4t11 3q35 4 83 21q36 12 79 38q48 29 84 67l15 16l12 11l4.5 4.5t8.5 4.5q7 -1 11 -7q2 -3 2 -11q0 -5 -2 -15q-8 -27 -22 -59q-4 -9 -5 -11l-27 -61q-21 -55 -35 -106q-11 -36 -23 -95q-4 -17 -5 -28
q0 -4 -1 -7q0 -11 3 -20q5 -13 19 -11q2 1 16 5q16 7 38 26q25 23 50 56q47 64 94 143q41 69 58 104q3 6 5.5 12.5t5.5 11.5l5 11l1 3q3 6 4 7q2 5 6 6q4 2 6 2q4 0 9 -5q5 -9 3 -16z" />
    <glyph glyph-name="Z" unicode="Z" horiz-adv-x="450" 
d="M-19 -73q-4 5 0 10l3 5q3 5 41 56l18 24l30 39l45 59q51 69 106 148l67 91q10 12 14 18l70 89q28 37 55 70q11 13 41 57q4 4 6.5 9t6.5 9q-3 2 -5.5 0t-3.5 -2l-52 -30q-48 -26 -73 -37q-33 -15 -80 -24q-19 -3 -40 -3q-24 0 -44 4q-24 4 -54 14q-31 11 -91 37q-8 4 -8 7
q0 2 5 2q8 0 17 -4q52 -24 97 -38q39 -14 78 -11q54 2 100 21q49 19 88 45l62 41l9 6l7 3q3 1 8 1q9 0 14 -6.5t3 -14.5q-2 -10 -5 -13q-1 -5 -5 -13q-30 -48 -60 -85q-69 -86 -135 -174q-13 -16 -87 -119l-12 -17q-47 -66 -78 -106l-53 -71l-25 -32q-2 -2 -4 -6l1 -1
q2 0 11 5q57 25 121 33q46 6 50 6q9 1 28 1q14 0 21 -1q42 -2 65 -4l74 -1h11q4 2 5 0q0 -3 -5 -6l-15 -2l-72 1q-15 1 -43 1h-32q-58 0 -115 -12q-52 -12 -89 -30q-22 -10 -33 -17q-16 -6 -25 -20q-16 -13 -17 -14l-8 -4q-8 4 -9 6z" />
    <glyph glyph-name="bracketleft" unicode="[" 
d="M41 64q-35 7 -59 7q-10 0 -19 3q-16 3 -16 21q0 9 1 13l9 22q24 55 68 167q46 118 71 177q22 56 34 84q14 36 36 70q1 2 9 13q14 11 26 7q15 -5 26.5 -7.5t18.5 -4.5l10 -5l5 -5l-3 -5q-3 -1 -9 -1q-5 0 -15 2q-8 1 -17 3t-14 3q-5 0 -7 1q-5 -5 -7 -12l-51 -132l-30 -73
l-54 -135q-9 -23 -20 -50t-23 -59q-3 -6 -6 -13.5l-7 -17.5q-5 -13 -10 -22.5t-8 -16.5l-2 -4q3 -3 11 -5l15 -1q8 -1 19.5 -4t17.5 -4l22 -3q0 -1 4 -5q-3 -9 -10 -9q-11 0 -16 1z" />
    <glyph glyph-name="backslash" unicode="\" horiz-adv-x="350" 
d="M274 32q-13 16 -19 29q-33 59 -58 114l-52 110l-44 94q-32 67 -58 123q-18 38 -26 58l-13 29q-3 6 -3 12q0 7 3 13l3 3q7 6 16 2q8 -5 11 -11l3 -8q21 -48 65 -144l111 -234q31 -69 64 -130l18 -39q4 -10 4 -16v-2q0 -7 -5 -10.5t-12 0.5q-4 1 -8 7z" />
    <glyph glyph-name="bracketright" unicode="]" 
d="M-25 57q-5 1 -15.5 4.5t-18.5 4.5q-8 2 -12 2q-8 0 -16 -5l-4 2q-8 8 1 13q12 5 23 5h15q10 0 15 -1q4 -1 10.5 -2t9.5 -1q4 2 6 6.5t2 5.5l6 24q29 110 50 168q24 69 54 145l47 118l11 28l13 33l-31 10l-14 3q-8 3 -9 10l3 5l8 1q11 0 31 -4l37 -10q9 -7 6 -21l-3 -11
q-15 -47 -51 -137q-60 -150 -82 -219q-13 -43 -31 -106q-7 -27 -10 -35l-8 -19q-9 -16 -30 -19q-5 0 -13 2z" />
    <glyph glyph-name="asciicircum" unicode="^" horiz-adv-x="550" 
d="M29 268l224 451h50l218 -451h-78l-165 359l-170 -359h-79z" />
    <glyph glyph-name="underscore" unicode="_" horiz-adv-x="275" 
d="M56.5 157q-9.5 1 -19.5 1q-7 2 -10 5v6l2 2q6 3 12 3q3 1 6 0.5t7 0.5l32 1q22 0 64 2q14 0 40 2h54h3q8 -1 7 -12q-4 -4 -10 -4q-9 0 -21 -2t-17 -3t-10.5 -0.5t-10.5 -0.5q-35 -3 -69 -3l-40 1q-10 0 -19.5 1z" />
    <glyph glyph-name="grave" unicode="`" horiz-adv-x="580" 
d="M390 606h-59q-37 29 -80.5 76t-61.5 74v10h105q16 -32 44.5 -76.5t51.5 -71.5v-12z" />
    <glyph glyph-name="a" unicode="a" horiz-adv-x="235" 
d="M-20 128q-1 8 1 23t6 27l4 13q-1 1 -2 0t-2 -1l-25 -21l-9 -6q-6 -2 -9 -2q-13 0 -14 15q-2 8 -2 11q0 4 2 10q7 28 19 43q17 25 43 29q3 1 9 1q7 0 15 -3q11 -3 18 -16q1 -2 0 -3.5t-3 -0.5l-5 4q-7 5 -13 5q-5 0 -13 -5q-10 -4 -23 -19q-20 -28 -27 -57q2 -2 4 0
q7 3 14.5 8.5t11.5 8.5q7 7 11 9q7 7 11 14q1 2 8 14q2 2 6 4q5 5 10 3q6 0 9 -7q-1 -7 -4 -16t-4 -13l-15 -40v0l-7 -22q-2 -10 -1 -17q6 -12 16 -12q14 0 37 19t59 55q40 39 65 60t45 26h1q6 0 6 -4q0 -3 -6 -5q-16 -5 -38 -24t-55 -53q-42 -43 -71 -66.5t-50 -23.5
q-19 0 -29 20q-2 3 -4 15z" />
    <glyph glyph-name="b" unicode="b" horiz-adv-x="306" 
d="M18.5 83q-5.5 5 -5.5 13q-1 4 1 11q7 18 17 28q16 16 44 40l5 4q1 5 5 16t3 20q-1 16 -31.5 -9.5t-58.5 -56.5q-4 -4 -8 -4q-7 0 -10.5 11.5t-3.5 30.5q0 14 1 21t3 17.5t6 24.5l4 16l2 6q17 48 44 99q39 76 105 162q40 52 73 84q32 32 67 53q19 12 40 17q14 2 19 2
q20 0 28 -12t10 -19q4 -15 4 -32q0 -53 -41 -118q-29 -48 -71 -90q-49 -49 -98 -79q-61 -39 -124 -62l-26 -9l-3 -5q-18 -46 -25 -79q-3 -12 -2 -23q0 -1 2 -3q2 0 16.5 22t35 39t45.5 17q15 0 19 -24q0 -8 1 -13q44 24 98 44t91 26h1q6 0 6.5 -4t-3.5 -6
q-37 -6 -91.5 -25.5t-102.5 -44.5l-3 -13q-7 -33 -20 -53q-13 -23 -31 -37q-14 -8 -22 -8q-10 0 -15.5 5zM42 283.5q10 4.5 21 8.5q59 23 111 57q66 46 102 86q8 8 22 26q20 25 44 67q16 28 22 55q7 23 7 41q0 7 -2 17q-6 23 -18 31q-3 1 -9 1q-8 0 -17 -3q-23 -8 -47 -27
q-42 -34 -80 -81q-43 -56 -91 -131q-39 -62 -80 -148q-1 -1 -0.5 -2.5t-0.5 -2.5q6 1 16 5.5zM34 96q8 8 11 13q17 23 27 49q0 1 2 4t3 6l-40 -38q-9 -9 -12 -22q-1 -2 -1 -7q0 -6 6 -7z" />
    <glyph glyph-name="c" unicode="c" 
d="M-56 94q-16 0 -24 16q-7 12 -7 22q-2 38 8 62q14 38 45 62l18 11q4 2 7 2q3 1 8 1q11 0 18 -10q5 -9 6 -19v-5q0 -12 -5 -24l-3 -4q-2 -2 -3.5 -1.5t-0.5 3.5q1 8 1 22v3q0 9 -7 16q-5 1 -8 -2q-16 -14 -23 -26q-25 -42 -32 -64q-1 -4 -3 -10t-3 -14q-1 -2 -1 -7
q0 -10 7 -17q17 -6 66 20.5t102 66.5t78 69q1 1 3 1q3 0 4 -3t-2 -7q-20 -27 -70.5 -68t-101.5 -69.5t-74 -26.5h-3z" />
    <glyph glyph-name="d" unicode="d" horiz-adv-x="325" 
d="M-12 61q0 19 3.5 35.5t3.5 19.5q1 5 2.5 11.5t3.5 15.5l-17 -10q-3 -2 -12 -4q-11 0 -17 6q-16 14 -16 35q0 48 29 81q15 19 35 19q23 0 32 -19l3 8q28 69 63 135q36 65 68 110q37 51 84 86q32 22 55 28q4 1 8.5 2t11.5 1l12 -1q19 -3 26 -21q5 -7 5 -21q2 -32 -14 -77
q-19 -48 -49 -93q-46 -68 -89 -110q-48 -46 -109 -80q-8 -5 -26.5 -13.5t-32.5 -12.5q-9 -27 -15 -49q-10 -44 -14 -65q-5 -24 -4 -41q0 -8 4 -24q3 -14 14 -19l2 -1q2 0 5.5 2.5t4.5 3.5q13 10 23 25l34 47q15 27 56.5 73.5t85.5 83t69 41.5h3q5 0 6.5 -3.5t-4.5 -5.5
q-27 -8 -69.5 -45t-82.5 -81.5t-56 -68.5l-24 -34q-6 -9 -23 -32q-19 -23 -36 -23q-8 0 -12 4q-30 26 -30 81zM61.5 208q3.5 1 4.5 2l15 6q28 13 37 19q77 48 123 104q49 57 78 109q28 52 35 100q1 4 1 12q0 11 -3 21q-4 15 -18 15l-8 -1q-17 -6 -27 -12q-21 -13 -42 -32
q-41 -36 -71 -83q-32 -47 -64 -109l-28 -59l-31 -71l-8 -23q3 1 6.5 2zM-10 150.5q5 3.5 17 15.5l24 75q-4 11 -13 11q-12 0 -19.5 -7.5t-12 -16t-6.5 -11.5q-8 -15 -13 -32t-5 -28q0 -17 12 -14q11 4 16 7.5z" />
    <glyph glyph-name="e" unicode="e" horiz-adv-x="247" 
d="M-36 195q0 54 44 98q3 4 19 15q10 7 21 4q3 -2 6 -4.5t2 -7.5q-2 -19 -10.5 -26t-28.5 -12l-14 -26q-11 -22 -11 -56q4 -27 33 -27q38 0 103 38t111 76q4 2 7 0t0 -6q-24 -23 -67.5 -52.5t-89 -50t-77.5 -20.5q-40 0 -47 37q-3 10 -1 20zM42 282q7 9 3 13q-4 1 -8 -3
q-2 -3 -6.5 -7.5t-10.5 -13.5q15 2 22 11z" />
    <glyph glyph-name="f" unicode="f" horiz-adv-x="268" 
d="M-42 -1q-11 0 -16 14q-5 13 -5 31q-1 51 13 105l1 4q-2 3 -8 3.5t-8 4.5q0 3 1 5q8 1 19 5q3 5 5 13t4 12l9 24q5 11 8.5 21.5t6.5 17.5q7 21 19 44q20 50 59 120q33 54 70 94q24 30 55 55q15 12 37 19q10 2 13 2q17 0 27 -16q10 -14 10 -33q0 -34 -16 -69
q-18 -35 -37 -59q-30 -38 -56 -61q-22 -24 -62 -50q-47 -29 -79 -42q-6 -10 -19 -45t-15 -46q123 6 265 96q1 1 3 1q4 0 6 -3.5t-2 -6.5q-52 -37 -128.5 -67.5t-146.5 -31.5q-1 -3 -5 -16l5 -7q16 -20 16 -48q1 -29 -16 -64q-11 -16 -15 -19l-4 -2q-8 -5 -14 -5zM42 280
q73 34 126 87q54 50 81 105q11 24 15 45q1 7 1 19q0 15 -2 22q-4 11 -9 15t-16 5q-10 -4 -15.5 -7.5t-10 -7t-7.5 -5.5q-6 -7 -12.5 -12.5t-12.5 -12.5q-37 -44 -74 -104q-30 -56 -44 -85l-27 -60l-4 -8zM-30 20q17 13 21 32q8 21 8 38q0 12 -3 25q-6 13 -13 18
q-7 -12 -17 -67q-4 -21 -4 -50z" />
    <glyph glyph-name="g" unicode="g" horiz-adv-x="223" 
d="M-258 -295q-26 0 -45.5 11t-26.5 34v2q-4 16 -4 35q0 48 25 96q14 30 51 75q40 46 102 98q55 45 126 88l32 20q4 37 2 34q-4 -4 -15.5 -15t-16.5 -17l-9 -7q-6 -3 -11 -3q-11 0 -14 14q-3 8 -3 16q0 28 15 53q16 27 42 34q8 3 16 3q6 0 9 -1q12 -3 21 -16q1 -1 0 -3
t-3 -1q-2 2 -3.5 2.5t-2.5 0.5q-8 4 -12 4q-8 0 -15 -6q-10 -5 -22 -23q-18 -33 -21 -62q1 -1 2 -0.5t2 0.5q8 4 14.5 11t9.5 10l11 11q4 4 10 16q3 8 8 14q1 2 5 6q4 6 10 4q14 0 15 -8q1 -12 -5 -45q51 32 96.5 52.5t78.5 26.5h2q5 0 5 -4t-4 -5q-33 -8 -81 -30t-100 -55
l-1 -9l-2 -13q-1 -5 -11.5 -61.5t-18.5 -90.5q-17 -60 -43 -113q-25 -57 -71 -104q-32 -33 -72 -57q-27 -15 -48 -19q-14 -3 -29 -3zM-262 -279q12 0 26 3q21 6 39 17q54 37 91 90q22 33 36 64q23 50 39 108q14 44 27 119l4 27q-34 -20 -36 -22q-16 -10 -48 -32
q-69 -47 -123 -99t-79 -92q-3 -5 -11 -18.5t-12 -25.5q-14 -39 -14 -69q0 -7 2 -25q10 -36 34 -42q12 -3 25 -3z" />
    <glyph glyph-name="h" unicode="h" horiz-adv-x="432" 
d="M48 -79q-9 12 -13 35q-1 5 -1 16q0 14 3 29q6 39 21 75l31 81q10 25 14 45v7q-1 0 -2.5 0.5t-2.5 -0.5q-29 -10 -53 -34q-26 -26 -49 -55q-10 -12 -16 -16q-6 -6 -15 -5q-10 4 -12 16q-4 26 -4 39q0 32 15 83l14 39q1 3 4 11.5t6 14.5q33 84 88 186q33 61 65 109
q38 57 73 96q48 53 97 81q24 14 44 19q12 4 29 4q41 0 56 -33q7 -15 7 -33q0 -34 -17 -73q-22 -51 -56 -99q-71 -102 -170 -172q-73 -53 -166 -86q-8 -2 -12 -4l-4 -2l-14 -36l-27 -81q-7 -27 -8 -35l-1 -7v-16q1 -1 4 1l25 27q23 30 59 62q9 9 29 21q7 4 13 5q3 1 9 1
q12 0 19 -8t7 -21q0 -16 -7 -35q-5 -18 -14 -41l-22 -56q-21 -55 -28 -106l-1 -13q0 -10 3 -22q7 -18 21 -19h4q7 0 10 1q21 4 39 18q37 26 74 63q52 54 81 92q38 50 56 76q19 28 59 84q12 15 16 19q2 2 4 0.5t2 -3.5q-1 -3 -6.5 -9t-6.5 -9l-61 -93l-22 -30
q-30 -41 -65 -83q-60 -69 -110 -110q-18 -15 -36 -23q-22 -10 -40 -10q-26 0 -39 22zM39 313q86 32 151 80q97 69 163 160q33 45 54 92q18 39 22 67q1 5 1 15q0 12 -3 22q-4 13 -14 21t-24 7q-21 -2 -31 -6q-21 -10 -25 -13q-39 -22 -73 -61q-38 -43 -65 -82
q-33 -47 -67 -105q-44 -76 -85 -165l-14 -33q4 -2 10 1z" />
    <glyph glyph-name="i" unicode="i" horiz-adv-x="164" 
d="M-1 306q1 9 11 12q6 2 9 -2q5 -5 2 -11l-4 -5q-1 -1 -7 -4q-10 3 -11 10zM-33 118q-9 0 -14.5 4t-10.5 13q-5 13 -5 25q0 7 1 11q5 40 32 82q9 13 19 16q5 2 9 -1q3 -2 1 -11q-2 -8 -4 -12l-19 -49q-8 -24 -11 -36q-2 -8 -2 -10l2 -12q3 -4 8 -4q13 1 29.5 14.5
t51.5 46.5q38 37 62 55.5t43 18.5q5 0 5.5 -4.5t-4.5 -4.5q-17 0 -38 -17.5t-55 -52.5q-36 -36 -55 -52t-35 -19q-4 -1 -10 -1z" />
    <glyph glyph-name="j" unicode="j" horiz-adv-x="193" 
d="M-11 343q0 4 3.5 6.5t7.5 0.5q5 0 8.5 -4.5t2.5 -10.5q-1 -4 -5 -7t-9 -3q-10 5 -8 18zM-278 -174q-2 8 -2 12q0 5 1 8q1 17 12 42q5 10 23 40q32 39 67 76q50 48 85 75l48 36l10 8q4 8 4 10l7 40q3 15 4 26.5t2 18.5v29q0 23 12 23q6 0 10 -6q6 -6 10 -21l1 -10v-11
q0 -17 -1 -25q-1 -7 -2 -19.5t-4 -21.5l-1 -11l7 5q36 25 63 45q91 65 107 74q5 2 6.5 -1.5t-2.5 -5.5q-17 -8 -85 -60q-87 -63 -92 -66l-8 -6q0 -4 -0.5 -5l-0.5 -1q-2 -16 -4 -24q0 -2 -1 -4.5t-1 -5.5q-10 -51 -40 -110q-19 -41 -57 -89q-31 -40 -79 -72q-15 -10 -33 -16
q-13 -5 -24 -5q-7 0 -10 1q-25 2 -32 27zM-210 -169q44 30 74 69q48 61 75 122q18 44 24 78q1 2 0.5 4t0.5 5l-8 -6q-54 -36 -107 -89q-43 -45 -64 -70q-19 -22 -34 -49q-2 -5 -8.5 -19t-7.5 -27l-1 -7q0 -13 9 -20q7 -4 14 -4t13 3z" />
    <glyph glyph-name="k" unicode="k" horiz-adv-x="344" 
d="M-60 45q-6 0 -10 6q-3 7 -2 12q2 26 4 38q5 22 10 38q2 8 5 20.5t6 20.5q7 23 16.5 51.5t14.5 40.5q19 57 43 105q25 51 48 83q40 62 87 108q41 41 86 62q23 13 52 13q28 0 42 -23q10 -16 8 -34q1 -30 -14 -66q-18 -40 -47 -77q-30 -38 -69 -69q-41 -34 -97 -63
q-44 -23 -105 -47l-2 -5q-2 -2 -2.5 -3.5t-0.5 -2.5l11 -2q3 1 9 -1l12 8q25 17 49 22q1 1 10 3l5 1l8 -2q5 -1 9 -10v-7q0 -2 -1 -3.5t-1 -3.5q-8 -12 -22 -19q-30 -16 -60 -16h-6q6 -15 16 -31q16 -21 46 -36q13 -8 34 -8q44 0 98 36.5t102 82.5q1 1 4 1q4 0 5 -3.5
t-3 -7.5q-44 -43 -104.5 -82.5t-105.5 -39.5q-14 0 -23 4q-29 11 -51 31q-21 19 -31 44q-2 6 -5 11q-16 -14 -23 -27l-2 -6q-13 -39 -20 -68q-5 -27 -17 -60q-2 -9 -7 -14q-3 -5 -9 -5zM40 285q77 31 136 71q64 44 105 95q29 37 44 74q12 27 13 50q0 10 -1 19.5t-6 17.5
q-8 13 -21 14q-3 1 -8 1q-8 0 -20 -4q-31 -9 -65 -36q-28 -26 -41 -41q-32 -37 -66 -90q-49 -76 -84 -171q-4 -4 0 -6q8 4 14 6zM104 268q-2 1 -6 1q-5 0 -13 -4q-8 -2 -12.5 -4.5t-8.5 -6.5q26 5 40 14zM11 233q-1 1 -1 3q-5 -3 -3 -9q1 3 4 6z" />
    <glyph glyph-name="l" unicode="l" horiz-adv-x="288" 
d="M14 58q-10 0 -21 3q-24 8 -32 32q-6 15 -6 32v24q0 24 9 56l10 32l13 30q14 35 45 86q38 62 90 125q24 30 49 54q35 35 89 68q31 19 53 19q28 0 28 -30q0 -28 -24 -69q-18 -32 -44 -66l-23 -25q-36 -37 -62 -59q-28 -23 -72 -53q-45 -30 -88 -51q-1 -1 -2.5 -2t-4.5 -2
q-26 -56 -36 -85q-12 -34 -9 -70q2 -21 14 -30q11 -7 25 -7h5q12 0 22 3q24 5 55 23q44 30 95.5 79.5t83.5 91.5q1 1 3 1q3 0 4 -2t-2 -6q-38 -51 -89 -102t-110 -82q-22 -11 -50 -16q-12 -2 -18 -2zM37 278q5 3 13.5 7t19.5 11q47 27 86 57q22 16 46 37q34 29 70 75
q20 28 35 56q11 19 18 37l6 22l1 6q0 14 -13 14q-6 0 -14 -4q-7 -3 -21 -11q-36 -23 -60 -47q-45 -41 -97 -109q-59 -76 -98 -152l-3 -5z" />
    <glyph glyph-name="m" unicode="m" horiz-adv-x="676" 
d="M321 -82q-9 8 -12 17q-6 12 -6 25q-3 45 12 87q6 20 21 52q14 31 48 91l70 118l17 32q6 13 7 17q-3 3 -10 1q-14 -4 -21 -7q-22 -9 -44 -23q-61 -36 -117 -81q-20 -15 -37 -31l-15 -14q-25 -23 -30 -28q-27 -24 -53 -50l-17 -15q-8 -8 -19 -8q-16 1 -19 18q-2 6 -2 17
q0 10 1 15q4 21 12 43l3.5 7t1.5 9h1v1l-1 -1q-1 0 -7 -3l-48 -36q-3 -2 -32 -23q-14 -11 -33 -19q-8 -4 -13 -4q-18 0 -25 15q-4 8 -4 20q-1 18 8 45q8 23 25 50q5 7 10 11.5t8 3.5l5 -3q8 -5 5 -15l-11 -32l-20 -50l-6 -16q-2 -7 0 -11q4 -5 11 -3l14 6q24 14 35 22
q42 32 61 50l21 20q8 10 18 10l8 -2q10 -7 10 -16q0 -12 -2 -18l-10 -30q-14 -41 -17 -53q-2 -5 1 -7q9 4 23 18l25 21l22 20q14 14 44 40q55 50 104 83q15 11 45 31q2 1 17 11q29 18 52 27q13 4 17 5q5 2 15 2q8 0 13 -5.5t6 -13.5l1 -7q0 -9 -6 -25q-6 -14 -26 -50
q-41 -69 -74 -128q-31 -52 -57 -117q-3 -7 -8.5 -22.5t-8.5 -27.5q-5 -24 -4 -32l3 -14q3 -12 15 -15h3q24 1 46 18q12 8 32 24q30 24 54 52q142 170 180 246q1 4 4.5 4.5t5.5 -1.5t1 -4q-19 -42 -76.5 -117.5t-86.5 -106.5q-29 -36 -67 -71q-24 -24 -50 -40l-22 -12
q-12 -6 -28 -4q-8 0 -17 7z" />
    <glyph glyph-name="n" unicode="n" horiz-adv-x="375" 
d="M46 -35q-4 6 -5 10q-8 19 -6 47q3 29 12 58q8 27 19 48q11 24 29 74l2 7l-6 1q-20 -5 -37 -16q-20 -14 -36 -30q-18 -15 -34 -31l-12 -9q-2 -2 -7 -2q-6 0 -9 6q-2 2 -4 12q0 17 6 32l19 51l6 16q2 12 5 20t9 10h2q10 0 14 -24q0 -15 -2 -23q-6 -22 -19 -56q-4 -8 -3 -10
h-1v-1l1 1q4 1 8.5 5t6.5 6l33 30q19 18 40 26q14 8 28 8q9 0 15.5 -5.5t7.5 -15.5v-5q0 -6 -2 -14q-12 -40 -26 -70q-22 -48 -36 -103q-6 -15 -4 -35q0 -5 1 -8l3 -5q27 1 61 37t88 107q52 69 86.5 107t64.5 47h3q6 0 7 -4t-5 -7q-25 -8 -56 -43t-82 -102
q-61 -79 -98 -118.5t-66 -39.5q-13 0 -21 11z" />
    <glyph glyph-name="o" unicode="o" horiz-adv-x="213" 
d="M-37 199q-1 32 19 59l7 8q7 6 18 4q4 -1 6.5 -4.5t1.5 -7.5q0 -4 -1 -7t-2 -5l-18 -39l-6 -11q-1 -3 -1 -7q2 -4 6 -2q8 3 16 9q34 29 42 72q-1 3 -3.5 4.5t-3.5 2.5q-8 8 -8 18q0 5 5 8q6 2 10 -1q7 -4 9 -13q1 -2 1.5 -6.5t1.5 -6.5q12 -9 35.5 -14t48.5 -5q39 0 57 11
q5 2 7.5 0.5t-1.5 -5.5q-24 -14 -66 -14q-25 0 -48.5 5t-34.5 12q-1 -1 -3 -6q-8 -33 -39 -68q-7 -7 -21 -15q-8 -4 -19 -2q-14 6 -16 26zM51.5 287.5q-1.5 1.5 -4.5 0.5l4 -4q2 2 0.5 3.5z" />
    <glyph glyph-name="p" unicode="p" horiz-adv-x="300" 
d="M-188 -292q-11 0 -21 6q-7 4 -9 13q-3 12 -3 13q0 25 1 38q3 23 12 48l15 50q11 31 20 48l18 37q28 54 59 103q21 33 56 76q8 10 13 15q4 6 5 10l7 52q0 5 1 8q0 14 2 38q3 8 11 8q4 0 6 -1.5t3 -5.5q4 -12 4 -29v-28q3 0 4 1.5t1 2.5q7 14 20 27q13 12 33 20q4 2 12 2
q10 0 19 -5t13 -12l7 -12q29 21 82 30.5t90 7.5q6 -1 6 -6t-5 -5q-112 2 -169 -36l-2 -2l-1 -3q0 -32 -23 -63q-14 -18 -38 -29q-10 -4 -16 -3q-9 0 -14.5 5.5t-5.5 14.5t5 17q10 17 22 26l33 24l10 7q1 2 1 6q0 23 -18 23q-14 0 -29 -12q-18 -14 -31 -38l-8 -13
q-2 -28 -4 -39l-6 -55l-6 -44q-8 -52 -20 -92q-16 -59 -46 -117q-15 -32 -33 -60q-23 -36 -55 -57q-9 -6 -20 -9q-3 -1 -8 -1zM49 141q3 1 6 4q8 7 17 19q7 9 17 31l0.5 1.5t-1.5 2.5l-16 -12q-4 -4 -24 -23q-8 -10 -9 -20q2 -2 2 -5q5 1 8 2zM-193 -275q6 0 12 3l4 3
q20 14 29 26q18 23 29 45l18 39q23 49 41 111q11 43 17 80l7 38l8 51l1 8l-1 8q-5 -5 -6 -7q-26 -34 -38 -51q-12 -16 -18 -26l-27 -42q-16 -27 -44 -83l-12 -25l-2 -5q-12 -34 -29 -91q-5 -18 -5 -45q0 -26 5 -34q6 -3 11 -3z" />
    <glyph glyph-name="q" unicode="q" 
d="M-168 -283q-8 0 -15 10q-4 12 -4 19v6q0 13 3 27q4 18 16 50l42 99q43 93 58 129l6 14q3 7 5 13l-14 7l-3 5q1 5 6 7q3 0 8.5 -2t10.5 1q3 7 23 48q5 10 10.5 22.5t13.5 27.5q-3 1 -5 -3q-9 -9 -27 -21q-15 -10 -28 -8q-8 3 -11 12q-3 8 -1 18q5 18 13 28q14 19 31 30
q13 9 31 14q4 1 11 1q9 0 17 -4q3 -1 7 -5q2 -1 1.5 -3.5t-1.5 -6.5l-6 -1l-6 1q-7 0 -16 -7q-35 -25 -53 -59v-1q1 0 2 -0.5t2 0.5q12 6 17 10l30 24q5 4 11 14q5 9 12 10q11 -2 9 -12q0 -6 -2 -14q-7 -27 -20 -56q-8 -20 -13 -30l-4 -10l11 7q21 12 136 103l47 37q1 1 3 1
q3 0 3 -3t-3 -6q-27 -26 -95.5 -80t-96.5 -67l-11 -7l-11 -22l-13 -29q-3 -5 -1 -11q1 -6 3 -14t3 -19q1 -5 1 -15l-3 -30q0 -3 -1 -9t-2 -10l-6 -25q-10 -33 -19 -55q-11 -30 -30 -61l-24 -40q-15 -23 -37 -39q-7 -5 -15 -8q-4 -2 -6 -2zM-158 -258q18 12 28 27l24 34
l15 25q2 6 4 8q12 19 21 42l18 53q6 17 10 54q2 14 2 21q0 5 -1 10.5t-1 11.5l-2 3q-4 -4 -6 -12q-6 -12 -16 -36l-21 -46q-20 -41 -36 -81q-13 -30 -35 -92l-6 -19l1 -3h1z" />
    <glyph glyph-name="r" unicode="r" horiz-adv-x="306" 
d="M-33.5 -65.5q-5.5 7.5 -6.5 17.5v9q0 13 3 28q12 60 35 105t46 81q4 7 7.5 14t6.5 12q5 12 3 21q-4 8 -12.5 12.5t-10.5 5.5l-12 5q-10 3 -25 10t-19 11q-15 11 -15 27q0 9 3 18q3 11 12 20q11 8 16 8q8 0 12 -9q4 -7 4 -17q0 -20 -11 -45q1 0 2 -1l2 -2l14 -5l30 -11
q12 -6 18 -10q18 -13 15 -37q-1 -22 -15 -50q-6 -12 -10 -18l-15 -28q-23 -41 -32 -67q-12 -34 -16 -62q0 -3 -2 -13v-5l-1 -5q0 -2 3 -8q0 -1 3 -4h2q3 0 7 4q3 5 9 13t8 14q23 50 73.5 118t106.5 119.5t96 58.5l4 1q4 0 3.5 -3.5t-4.5 -5.5q-40 -12 -92.5 -61.5t-99 -113
t-70.5 -115.5q-4 -9 -10 -19l-9 -15q-2 -4 -6 -7t-6 -4q-8 -5 -21 -5q-4 0 -10 2q-8 4 -13.5 11.5zM3 313q0 16 -9 16q-5 0 -9 -8.5t-6 -17.5q-1 -3 -1 -8q0 -14 17 -23q8 20 8 41z" />
    <glyph glyph-name="s" unicode="s" horiz-adv-x="225" 
d="M-91 -47q-31 0 -54 16.5t-30 47.5q-1 4 -1 11q0 32 28.5 65.5t66.5 58.5q5 3 38 24q33 19 44 24l-7 32l-4 13q0 4 -1 7.5t-1 7.5q-5 21 -4 43q2 4 3 8t2 7q5 11 11.5 16.5t16.5 4.5q10 -2 15 -12l2 -11q1 -19 -9 -38q-2 -3 -3.5 -7.5t-4.5 -9.5q6 -16 13 -48q26 14 92 34
t95 22q7 0 7.5 -5t-6.5 -5q-30 -1 -90 -20.5t-92 -35.5l-3 -2l6 -25q5 -23 5 -50q2 -54 -15 -90q-18 -49 -64 -69q-30 -14 -56 -14zM20 293q3 11 3 19q0 10 -7 9q-6 -6 -6 -15v-4l1 -14l2 -13q4 7 7 18zM7 82q2 18 2 31q0 29 -5 69q0 1 -0.5 2.5t0.5 3.5q-24 -12 -36 -19
l-36 -22q-37 -27 -64.5 -59t-27.5 -54q1 -26 17.5 -39.5t40.5 -13.5q23 0 47.5 12t41.5 35q15 20 20 54z" />
    <glyph glyph-name="t" unicode="t" horiz-adv-x="211" 
d="M361 450q3 1 1 -3q-3 -5 -9 -10q-21 -19 -45 -35q-54 -41 -121 -56q-35 -6 -71 -8q-23 0 -45 5q-27 -47 -46 -98l-6 -20q-2 -7 -6 -17q-4 -12 -6 -24q-1 -7 -4 -21t-3 -27q0 -20 7 -38q2 -8 9 -13q6 2 10 6q17 18 32 37q40 50 86 95q30 33 74 43q7 1 8.5 -2t-3.5 -5
q-51 -16 -86 -56q-51 -51 -91 -111q-6 -8 -13 -15q-1 -3 -5 -4l-6 -4q-5 -2 -10 -2q-8 0 -15 4q-9 9 -15 20q-14 29 -13 61q2 31 10 60q20 71 56 135l2 4q-6 2 -13 4l-52 21q-32 13 -67 17h-7t-10 1q-8 1 -4 7q2 3 7 3q18 0 35 -3q38 -9 73 -24l32 -11l11 -5q12 21 30 38
q9 11 23 14q2 1 5 1q5 1 6 -5q1 -2 1 -5q-1 -4 -4 -8l-23 -39l-3 -4q7 -1 15 -2q19 -3 38 -2q60 3 115 26q42 20 78 48l29 21q4 4 9 6z" />
    <glyph glyph-name="u" unicode="u" horiz-adv-x="201" 
d="M201 267q1 -3 -4 -5q-27 -5 -125 -91q-7 -6 -11.5 -9.5t-6.5 -5.5q-10 -7 -17 -8l-5 -1q-7 0 -12 7q-5 5 -7 16v9q0 17 4 29l-1 -1q-8 -9 -21 -19q-6 -4 -10 -5q-2 -1 -7 -1q-7 0 -13 6q-10 13 -7 29q3 23 17 42l10 9q4 3 10 1q5 -2 6 -7q0 -5 -5 -15q-8 -16 -15 -37
q-1 -4 -1 -6.5t1 -7.5h4q4 3 12 7q2 2 5.5 4.5t6.5 6.5t21 19l4 6q6 6 15 4q7 -3 8 -11q0 -1 -5 -13q-13 -30 -15 -38l-3 -14q0 -3 1 -5q4 0 12 4q16 9 51 40q34 29 57 45.5t40 17.5q5 1 6 -2z" />
    <glyph glyph-name="v" unicode="v" horiz-adv-x="246" 
d="M-24 67q-7 0 -11 4q-7 7 -9 20q0 17 2 25l4 23q2 18 8 46q3 10 7 32q1 2 4.5 21t9.5 29q4 6 9 6t10 -10q2 -6 2 -11l-1 -15q-2 -32 -5 -48q-2 -16 -4 -22l-4 -23q-7 -37 -10 -47l1 -3q1 -1 2 0t2 1q12 15 24 35l19 32q13 24 25 43q3 6 11 18q4 1 6.5 0.5t5.5 -3.5
q19 -30 43 -30q18 0 37 14t44 39q10 10 26 24q2 2 6 2t5 -3t-3 -7l-30 -27q-30 -27 -49 -40t-37 -13q-27 0 -50 29q-2 0 -8 -10.5t-9 -15.5q-6 -12 -28 -50l-12 -21q-7 -9 -13 -22q-5 -8 -12 -14q-4 -5 -9 -6q-3 -2 -9 -2z" />
    <glyph glyph-name="w" unicode="w" horiz-adv-x="397" 
d="M72 63q-5 0 -11 4q-7 4 -9 13q-5 16 -3 27q2 15 8 32.5t8 22.5q1 2 2 5.5t2 8.5q-18 -15 -16 -13q-19 -16 -37 -34l-19 -16q-8 -6 -10 -6q-5 -3 -9 -3q-5 0 -12 7q-8 11 -10 28q-2 26 5 45q5 18 14 41q3 11 7 20q1 2 3.5 13.5t9.5 11.5q4 0 8 -5t5 -13l1 -7q0 -3 -2 -9
q-2 -11 -8 -33q-10 -31 -12 -50q-2 -10 -2 -29l1 -2q5 1 12 8l62 55l20 19q8 6 12 6q9 0 12 -12l1 -4q-1 -16 -11 -50q-4 -13 -10 -39q-3 -5 -1 -14q7 4 19 14q11 10 46 50q18 22 56 64l7 6h3q5 0 7 -5q2 -6 2 -9q7 -19 30 -19q27 0 66 24t63 49q3 3 5 3q6 0 2 -8
q-23 -26 -66.5 -51.5t-74.5 -25.5q-29 0 -36 24l-1 2l-6 -5q-24 -30 -37 -44l-54 -65q-8 -9 -26 -25q-1 -1 -2.5 -2t-4.5 -2q-4 -3 -9 -3z" />
    <glyph glyph-name="x" unicode="x" horiz-adv-x="186" 
d="M-68 90q-4 14 -3 23v16l-30 -25q-22 -20 -34 -29q-7 4 -4 9q4 6 7 8q1 1 40 37l24 22l5 24q11 43 40 81q4 6 8.5 10.5t8.5 3.5q6 -4 7.5 -7t-0.5 -8q-2 -7 -4.5 -13t-4.5 -10q-10 -26 -16 -38q2 -3 5 0q5 3 10 6.5t12 7.5q4 3 14 7q2 1 4.5 0t3.5 -4q0 -3 -2.5 -4.5
t-3.5 -2.5q-20 -14 -53 -42q-7 -21 -11 -53v-9q0 -5 1 -8q1 -2 5 -2q6 0 12 3q27 18 47 37.5t53 54.5q33 36 54.5 55t48.5 28h3q4 0 4 -3t-5 -5q-17 -6 -37 -24t-50 -51q-36 -38 -59.5 -61t-51.5 -41q-13 -10 -26 -10q-18 0 -22 17z" />
    <glyph glyph-name="y" unicode="y" horiz-adv-x="271" 
d="M-262 -277.5q-18 11.5 -31 33.5q-8 19 -10 27l-1 8q-1 7 -1 22q0 53 30 103q17 33 55 71q39 42 107 93q61 45 130 81l31 17l6 44q0 3 -4 -1q-6 -5 -12.5 -13.5t-10.5 -13.5l-21 -25q-5 -7 -15 -10q-4 -2 -7 -2q-4 0 -9 3q-6 3 -8 10q-5 12 -5 22q0 19 4 36q7 20 11 28
q6 11 13 16l2 1q4 0 7.5 -5t3.5 -10l-1 -8l-14 -61q-2 -9 1 -14l7 3l16 16q1 1 13 16q-1 -1 13 16q5 8 23 21q3 2 5 2t3 1q7 -1 10 -7q8 -15 7 -30q0 -9 -1 -14q114 52 181 70h1q5 0 5.5 -4.5t-5.5 -5.5q-31 -8 -72 -25t-111 -48l-2 -10q0 -5 -1.5 -11t-1.5 -9
q-20 -103 -30 -148q-16 -60 -43 -113q-25 -57 -71 -104q-32 -33 -72 -57q-27 -15 -48 -19q-20 -4 -31 -4q-28 0 -46 11.5zM-218 -272q13 0 26 3q21 6 39 17q54 37 91 90q22 33 36 64q23 50 39 108q14 44 27 119q1 1 6 34q-17 -8 -26 -13t-10 -6l-49 -29q-71 -42 -129 -92
q-54 -47 -83 -88q-2 -3 -11.5 -16.5t-14.5 -26.5q-18 -41 -18 -75q0 -12 1 -18q1 -3 1 -6.5t1 -6.5q4 -15 14 -29q13 -21 35 -26q12 -3 25 -3z" />
    <glyph glyph-name="z" unicode="z" horiz-adv-x="184" 
d="M-143 -62q-10 13 -10 31q-3 42 41 87t119 104l-7 12l-5 8q-4 5 -4 13t7 15q4 5 14 13l19 14l4 3q-17 9 -40 19l-10 5l-10 8q-16 10 -16 30q0 11 6 20l11 13q13 12 29 9q13 -6 13 -24q0 -6 -4 -18l-12 -31q13 -10 55 -22q5 -3 5 -9q2 -5 -2 -10l-7 -10q-12 -14 -29 -27
q1 -4 8 -14q44 31 96 62l43 28q1 1 4 1t4 -3.5t-3 -4.5q-9 -6 -21.5 -14.5t-31.5 -20.5q-37 -24 -85 -57q4 -6 6 -11q10 -20 17 -48q4 -16 4 -36q0 -57 -44 -104q-30 -32 -67 -46q-26 -9 -52 -9q-29 1 -45 24zM6 310q1 5 1 15q-2 7 -7 8q-11 -1 -18 -8q-10 -8 -11 -18v-4
q0 -6 1 -10q1 -5 8 -12q1 -1 4.5 -3.5t6.5 -2.5q12 21 15 35zM-47 -53q27 17 44 35q36 41 36 91q0 17 -3 33q-5 25 -18 43l-16 -13q-63 -53 -99.5 -91.5t-36.5 -71.5q0 -15 9 -27q10 -14 29 -14q29 0 55 15z" />
    <glyph glyph-name="braceleft" unicode="{" 
d="M15 40q-20 0 -32 16q-15 21 -15 44q0 9 1 14q13 66 35 122q13 34 16 48q2 5 4 19q1 3 1 7q0 14 -13 24q-12 10 -17 11q-6 3 -6 9l4 5q4 1 12 1h3q6 0 12 3q21 12 35 29q24 28 43 71q12 26 31 85q14 40 26 64q9 19 24 33q5 7 20 12q2 1 7 1q7 0 14 -3q1 0 6 -5
q-1 -4 -5 -4l-8 1q-14 -2 -22 -12q-8 -13 -13 -32l-11 -37q-12 -44 -19 -66q-15 -54 -45 -102q-20 -31 -42 -43l-16 -8q-1 0 -3 -1t-2 -3v-1q16 -16 16 -43q0 -25 -17 -67q-19 -49 -33 -94q-3 -6 -10 -28l-4 -18q-3 -25 20 -36q8 -3 10 -4l6 -3q2 -4 -2 -8q-4 -1 -11 -1z
" />
    <glyph glyph-name="bar" unicode="|" horiz-adv-x="150" 
d="M26 -62q-10 0 -14 10q-1 3 -5 14q-3 6 -3 13t3 15q3 6 3 18l-1 159q-1 36 -1 110q-2 110 -2 165v99v49q0 19 -2 59l-1 30v22q1 4 5 12q2 4 6.5 4t6.5 -3l6 -8q8 -20 9 -32q6 -55 6 -111q-1 -62 -1 -185q0 -39 2 -115v-76l2 -172q0 -6 2 -14q1 -5 1 -14q0 -13 -1 -19
q0 -3 -2 -7q-1 -3 -2 -4.5t-2 -2.5q-2 -8 -12 -16h-3z" />
    <glyph glyph-name="braceright" unicode="}" 
d="M-99 8q-1 4 0 6t4 4q12 -2 18 -2h3q10 0 18 8q12 12 17 25q10 29 12 42l21 103l8 49q6 28 14 45q13 25 33 30l-5 12q-9 22 -8 44l3 19q12 52 39 95l52 81q17 26 22 42q3 11 3 21q-2 14 -10 22q-5 0 -13 2q-2 0 -2.5 2t-0.5 5q5 5 13 5t13 -4q8 -4 16 -15q7 -16 7 -27
q1 -27 -12 -55q-9 -20 -26 -46l-33 -51q-21 -37 -36 -88q-2 -6 -7 -25q-1 -5 -2 -11t-1 -15q0 -5 2 -13q1 -1 5.5 -6.5t1.5 -12.5q-1 0 -2 -1l-2 -2q-11 -5 -18 -21q-8 -19 -11 -37q-4 -18 -10 -52q-4 -21 -11 -52q-6 -22 -8 -33q-4 -16 -16 -46l-8 -16q-10 -22 -34 -33
q-3 -2 -8.5 -3.5t-8.5 -2.5z" />
    <glyph glyph-name="asciitilde" unicode="~" horiz-adv-x="300" 
d="M179 230q-18 0 -38 13l-25 20q-6 4 -9 7q-11 8 -23 9q-21 -1 -41 -20q1 1 -14 -11q-1 -1 -4 -1q-6 1 -4 7l6 11q20 26 39 35q13 7 27 7q5 0 17 -2q14 -5 24 -13q8 -5 13 -9t9 -7q13 -10 31 -17q6 -2 9 -2q5 0 11 2q13 5 25 17q5 3 13 11l9 7l5 -5q0 -3 -2 -7
q-10 -14 -16 -19q-13 -13 -25 -21q-19 -12 -37 -12z" />
    <glyph glyph-name="uni007F" 
 />
    <glyph glyph-name="exclamdown" unicode="&#xa1;" horiz-adv-x="269" 
d="M104 330h58l25 -512h-108zM196 478q0 -33 -16 -50t-46 -17t-46 17t-16 50q0 32 16.5 50t45.5 18t45.5 -17.5t16.5 -50.5z" />
    <glyph glyph-name="cent" unicode="&#xa2;" horiz-adv-x="150" 
d="M41 175v4l14 40l-10 7q-11 7 -14 21l-1 10q0 5 2 13q4 25 19 50q6 14 20 20q11 7 21 6l8 1l7 17.5t6 13.5q4 10 10 12l5 -3q3 -5 -1 -12q-2 -7 -11 -37l3 -7q4 -6 2 -16l-3 -5q-4 1 -5.5 4t-3.5 4q-5 -10 -16 -40t-13 -38l2 -1l9 3l10 2q4 0 7 -5q-1 -1 -1.5 -3t-2.5 -3
q-2 -2 -12 -8t-22 -9l-12 -31l-3 -8q-3 -4 -9 -6zM66 254h0.5t0.5 1l21 61v1v0.5t-1 0.5l-9 -12q-15 -22 -15 -41q0 -8 1 -12q2 0 2 1z" />
    <glyph glyph-name="sterling" unicode="&#xa3;" horiz-adv-x="300" 
d="M-44 83.5q-8 10.5 -9 21.5q0 13 4 22q27 55 86 70q11 3 23.5 3h16.5h12q7 17 13 39.5t9 32.5t7 25t11 35h-7h-22h-7q-4 0 -5.5 2t-1.5 7q2 5 7 5q3 0 8.5 1.5t10.5 1.5h22l3 6q20 58 47 122q9 24 24 44q14 16 22 22q26 21 55 18q24 -3 36 -17q8 -10 8 -23q0 -9 -5 -16
l-5 -7q0 -1 -3 -3l-4 3q3 5 4 11q2 6 2 10q0 17 -18 23q-5 2 -14 2q-28 0 -43 -24q-21 -27 -30 -53l-21 -54q-12 -32 -22 -55l-2 -10q3 -1 10 -1t23 2l9 6q6 -3 4 -6q-3 -7 -10 -9q-6 -3 -11 -3l-27 -3h-3q-2 -2 -2 -3q-4 -13 -9.5 -31.5t-8.5 -29.5q-13 -48 -23 -75v-3
l6 -4l29 -15q26 -17 40 -32l21 -21q4 -4 5 -7t-2 -6q-4 0 -5 1l-9 8q-34 31 -67 50q-11 8 -23 11q-2 -1 -3.5 -4l-2.5 -5q-12 -26 -28 -50q-22 -29 -48 -39q-19 -9 -42 -9l-13 1q-14 2 -22 12.5zM50 129q14 17 29 46l4 10l-4 2q-21 2 -41 -3q-15 -4 -35 -16q-30 -19 -40 -55
q1 -7 2.5 -10t6.5 -8l8 -1q43 1 70 35z" />
    <glyph glyph-name="currency" unicode="&#xa4;" horiz-adv-x="571" 
d="M90 353q0 57 35 110l-66 68l49 47l66 -64q49 35 112 35q59 0 110 -35l67 64l48 -47l-64 -67q35 -54 35 -111q0 -63 -35 -112l63 -66l-47 -47l-67 64q-50 -34 -110 -34q-64 0 -112 35l-66 -64l-48 47l65 66q-35 53 -35 111zM157 353q0 -54 37.5 -91.5t91.5 -37.5t92 37
t38 92q0 56 -38 93.5t-92 37.5t-91.5 -38t-37.5 -93z" />
    <glyph glyph-name="yen" unicode="&#xa5;" horiz-adv-x="571" 
d="M285 365l179 349h92l-201 -375h124v-64h-151v-82h151v-64h-151v-129h-86v129h-151v64h151v82h-151v64h122l-199 375h93z" />
    <glyph glyph-name="brokenbar" unicode="&#xa6;" horiz-adv-x="550" 
d="M239 760h73v-381h-73v381zM239 140h73v-381h-73v381z" />
    <glyph glyph-name="section" unicode="&#xa7;" horiz-adv-x="513" 
d="M67 395q0 42 21 75t58 51q-36 20 -56 47t-20 68q0 60 50.5 94.5t146.5 34.5q45 0 82 -7t89 -27l-27 -67q-47 19 -80.5 26t-69.5 7q-56 0 -82.5 -14.5t-26.5 -44.5q0 -27 28 -47.5t104 -47.5q89 -33 126 -70t37 -90q0 -88 -75 -133q74 -39 74 -110q0 -69 -57.5 -107
t-160.5 -38t-169 33v75q42 -19 88.5 -30t84.5 -11q62 0 96 18t34 53q0 30 -26 49t-103 49q-96 36 -131 72.5t-35 91.5zM142 405q0 -25 13 -43.5t43 -35.5t109 -47q64 37 64 91q0 40 -34 66.5t-123 54.5q-32 -9 -52 -33t-20 -53z" />
    <glyph glyph-name="dieresis" unicode="&#xa8;" horiz-adv-x="580" 
d="M149 681q0 26 13.5 37.5t33.5 11.5q19 0 33 -11.5t14 -37.5t-14 -38t-33 -12q-20 0 -33.5 12t-13.5 38zM337 681q0 26 13.5 37.5t32.5 11.5t33 -11.5t14 -37.5t-14 -38t-33 -12t-32.5 12t-13.5 38z" />
    <glyph glyph-name="copyright" unicode="&#xa9;" horiz-adv-x="250" 
d="M18 167q-21 14 -25 35q-2 14 -2 20q0 8 2 24q3 30 16 61q13 34 43 56q5 3 20 11q8 2 13 2q10 0 26 -7q7 -5 4 -12q-4 -2 -8 -2q-12 -1 -20 -8q-33 -22 -48 -57q-11 -27 -14 -61q0 -13 3 -25q4 -13 17 -19q11 -6 23 -6q11 0 19 4l6 3q34 14 48 52q10 24 10 51q0 15 -3 28
q-2 9 -5 13q-7 14 -17.5 29.5t-13.5 19.5q-1 2 -3.5 3.5t-3.5 3.5q-1 6 2 8q4 3 8 -1q5 -4 8 -9l30 -42q8 -12 9 -24q2 -18 2 -27q0 -7 -2 -23q-10 -57 -43 -84q-35 -26 -66 -26q-15 0 -35 9zM65 204q-11 0 -17 8q-5 6 -7 16q-2 6 -2 18q0 11 1 16q7 28 25 50q5 9 15 12
q6 3 11 3q9 0 16 -6t8 -15q1 -3 1 -10q0 -12 -8 -24l-4 2l-1 5v7q0 7 -5 12q-7 -3 -11 -14q-17 -34 -21 -44q-3 -12 -3 -15q-2 -5 5 -7q5 1 11 5t11 6q6 -6 2 -8q-7 -9 -22 -16q-2 -1 -5 -1z" />
    <glyph glyph-name="ordfeminine" unicode="&#xaa;" horiz-adv-x="356" 
d="M261 389l-12 42q-46 -48 -114 -48q-47 0 -75 24.5t-28 74.5t38.5 76t119.5 29l56 2v22q0 30 -19 44.5t-52 14.5q-49 0 -101 -26q-13 30 -22 49q60 29 125 29t98 -27t33 -86v-220h-47zM96 482q0 -48 54 -48q96 0 96 87v23l-48 -2q-54 -2 -78 -16t-24 -44z" />
    <glyph glyph-name="guillemotleft" unicode="&#xab;" horiz-adv-x="508" 
d="M40 270l168 201l63 -36l-140 -171l140 -171l-63 -37l-168 201v13zM238 270l170 201l62 -36l-140 -171l140 -171l-62 -37l-170 201v13z" />
    <glyph glyph-name="logicalnot" unicode="&#xac;" horiz-adv-x="571" 
d="M520 388v-260h-71v189h-399v71h470z" />
    <glyph glyph-name="uni00AD" unicode="&#xad;" horiz-adv-x="321" 
d="M40 229v78h242v-78h-242z" />
    <glyph glyph-name="registered" unicode="&#xae;" horiz-adv-x="832" 
d="M355 373h50q40 0 61.5 19.5t21.5 51.5q0 36 -20 51.5t-64 15.5h-49v-138zM565 446q0 -41 -21 -70.5t-57 -43.5l116 -194h-86l-100 173h-62v-173h-76v437h128q82 0 120 -32t38 -97zM49 357q0 98 48.5 183t134 134.5t184.5 49.5q98 0 183.5 -49t134.5 -134t49 -184
q0 -96 -47.5 -180.5t-132.5 -135.5t-187 -51q-101 0 -186.5 50.5t-133 135t-47.5 181.5zM102 357q0 -84 42 -157t115 -115t157 -42t157 42t115 115t42 157t-42 156.5t-115 115t-157 42.5t-156.5 -42t-115 -115t-42.5 -157z" />
    <glyph glyph-name="macron" unicode="&#xaf;" horiz-adv-x="339" 
d="M10 228q-8 0 -24 2q-4 0 -7 1.5t-6 4.5q-2 5 3 7q2 1 5 1q19 0 29 1q23 0 35 1q19 0 29 1q4 0 9 0.5t12 -0.5q21 -1 58 -5q3 0 6 -1.5t4 -1.5q2 -1 2.5 -2.5t1.5 -2.5q-3 -7 -12 -7q-4 1 -12 1q-7 0 -11 -1q-25 -2 -37 -1q-8 0 -20 -0.5t-28 0.5q-13 0 -37 2z" />
    <glyph glyph-name="degree" unicode="&#xb0;" horiz-adv-x="150" 
d="M64 481q-8 1 -12 9q-6 11 -6 21q0 8 2 13q5 15 23 31l5 4q11 11 26 12q4 0 6 -1q6 -3 10.5 -9t3.5 -12q-2 -30 -19 -52q-6 -9 -12.5 -12.5t-18.5 -5.5q-2 0 -8 2zM97 507q12 16 15 39v2q0 7 -6 10q-5 3 -10 3l-2 -1l3 -7q-2 -4 -4 -6l-7 -8q-11 -11 -14 -25q-1 -2 -1 -6
q0 -6 6 -11q12 0 20 10z" />
    <glyph glyph-name="plusminus" unicode="&#xb1;" horiz-adv-x="300" 
d="M137 242q-6 0 -13 7q-6 8 -6 16v12q0 13 2 19q1 2 0.5 4.5t0.5 4.5q-18 14 -39 15l-40 6q-5 0 -8 3q-2 1 -3 3t-2 3l3 5q3 2 10 2q53 0 80 -1h10q1 3 2 5.5t2 4.5l13 34q4 10 8 13q4 4 9 4q7 0 10 -7q3 -5 1 -14q-1 -9 -7 -29l-3 -12q1 -3 5 -3l43 -3l16 -3q7 -1 10 -10
l-4 -8q-1 0 -3 -0.5t-5 0.5q-13 4 -30 4h-31h-8q-4 -12 -6 -24l2 -4q4 -7 4 -14q0 -13 -13 -28q-4 -5 -10 -5zM178 181q-7 1 -15 0.5t-15 0.5l-86 3q-12 0 -36 2l-4 5q0 7 7 9q10 4 16 4q22 2 32 2q12 0 32 -2q40 -4 60 -7h15q18 -2 26 -2q15 0 24 1q5 -4 5 -6t-3 -8
q-8 -4 -18 -4q-27 0 -40 2z" />
    <glyph glyph-name="uni00B2" unicode="&#xb2;" horiz-adv-x="350" 
d="M306 286h-282v54l115 112q62 60 79.5 87.5t17.5 61.5q0 32 -18.5 48t-48.5 16t-54.5 -11.5t-50.5 -31.5l-35 46q65 55 141 55q64 0 100.5 -32t36.5 -86q0 -22 -6 -41.5t-18.5 -39.5t-33 -42.5t-138.5 -133.5h195v-62z" />
    <glyph glyph-name="uni00B3" unicode="&#xb3;" horiz-adv-x="350" 
d="M308 613q0 -74 -74 -102q87 -21 87 -102q0 -62 -45 -96.5t-128 -34.5q-74 0 -131 28v63q69 -34 132 -34q100 0 100 76q0 69 -110 69h-57v55h57q50 0 73.5 19t23.5 51q0 29 -19 45t-51 16q-51 0 -111 -38l-36 46q36 27 71 38t75 11q66 0 104.5 -29.5t38.5 -80.5z" />
    <glyph glyph-name="acute" unicode="&#xb4;" horiz-adv-x="580" 
d="M189 618q19 23 47.5 66.5t47.5 81.5h106v-10q-21 -31 -66.5 -78.5t-76.5 -71.5h-58v12z" />
    <glyph glyph-name="mu" unicode="&#xb5;" horiz-adv-x="623" 
d="M173 190q0 -127 120 -127q83 0 120 45.5t37 148.5v279h88v-536h-71l-14 72h-5q-53 -82 -161 -82q-71 0 -115 45h-4q5 -36 5 -119v-156h-88v776h88v-346z" />
    <glyph glyph-name="paragraph" unicode="&#xb6;" horiz-adv-x="654" 
d="M549 -127h-58v831h-102v-831h-58v400q-30 -9 -71 -9q-105 0 -155 61t-50 184q0 127 53.5 189t166.5 62h274v-887z" />
    <glyph glyph-name="periodcentered" unicode="&#xb7;" horiz-adv-x="50" 
d="M9 243q-9 8 -9 19q0 5 2 11q2 7 9.5 12t15.5 5q8 -2 12 -7l11 -14l1 -5q0 -10 -9 -19q-11 -9 -25 -6q-6 2 -8 4z" />
    <glyph glyph-name="cedilla" unicode="&#xb8;" horiz-adv-x="225" 
d="M212 -139q0 -48 -37 -74.5t-111 -26.5q-32 0 -50 5v55q18 -5 53 -5q37 0 55.5 9.5t18.5 34.5q0 43 -91 55l43 86h58l-26 -53q87 -19 87 -86z" />
    <glyph glyph-name="uni00B9" unicode="&#xb9;" horiz-adv-x="350" 
d="M167 714h73v-428h-71v276q0 33 4 89q-15 -14 -26.5 -23t-74.5 -55l-35 49z" />
    <glyph glyph-name="ordmasculine" unicode="&#xba;" horiz-adv-x="375" 
d="M345 553q0 -80 -42 -125t-116 -45q-71 0 -113 45t-42 125q0 81 41 125t116 44q73 0 114.5 -44.5t41.5 -124.5zM95 553q0 -59 21.5 -88t71.5 -29q49 0 71 29t22 88t-22 87.5t-71 28.5t-71 -28.5t-22 -87.5z" />
    <glyph glyph-name="guillemotright" unicode="&#xbb;" horiz-adv-x="508" 
d="M469 257l-170 -201l-62 37l140 171l-140 171l62 36l170 -201v-13zM270 257l-169 -201l-62 37l140 171l-140 171l62 36l169 -201v-13z" />
    <glyph glyph-name="onequarter" unicode="&#xbc;" horiz-adv-x="790" 
d="M736 96h-61v-96h-75v96h-195v52l197 283h73v-275h61v-60zM600 156v93q0 52 3 101q-4 -9 -48 -77l-80 -117h125zM637 714l-436 -714h-75l436 714h75zM165 714h73v-428h-71v276q0 33 4 89q-15 -14 -26.5 -23t-74.5 -55l-35 49z" />
    <glyph glyph-name="onehalf" unicode="&#xbd;" horiz-adv-x="790" 
d="M607 714l-436 -714h-75l436 714h75zM152 714h73v-428h-71v276q0 33 4 89q-15 -14 -26.5 -23t-74.5 -55l-35 49zM727 0h-282v54l115 112q62 60 79.5 87.5t17.5 61.5q0 32 -18.5 48t-48.5 16t-54.5 -11.5t-50.5 -31.5l-35 46q65 55 141 55q64 0 100.5 -32t36.5 -86
q0 -22 -6 -41.5t-18.5 -39.5t-33 -42.5t-138.5 -133.5h195v-62z" />
    <glyph glyph-name="threequarters" unicode="&#xbe;" horiz-adv-x="790" 
d="M772 96h-61v-96h-75v96h-195v52l197 283h73v-275h61v-60zM636 156v93q0 52 3 101q-4 -9 -48 -77l-80 -117h125zM681 714l-436 -714h-75l436 714h75zM307 613q0 -74 -74 -102q87 -21 87 -102q0 -62 -45 -96.5t-128 -34.5q-74 0 -131 28v63q69 -34 132 -34q100 0 100 76
q0 69 -110 69h-57v55h57q50 0 73.5 19t23.5 51q0 29 -19 45t-51 16q-51 0 -111 -38l-36 46q36 27 71 38t75 11q66 0 104.5 -29.5t38.5 -80.5z" />
    <glyph glyph-name="questiondown" unicode="&#xbf;" horiz-adv-x="434" 
d="M294 330v-26q0 -57 -18 -93.5t-67 -77.5q-65 -54 -82 -81t-17 -68q0 -47 31 -73.5t89 -26.5q78 0 161 43l31 -71q-97 -48 -195 -48q-95 0 -148.5 45.5t-53.5 128.5q0 36 9.5 63.5t29.5 52.5t79 75q50 44 65 71t15 70v16h71zM317 478q0 -67 -62 -67q-30 0 -45.5 17.5
t-15.5 49.5q0 36 17.5 52t43.5 16t44 -16t18 -52z" />
    <glyph glyph-name="Agrave" unicode="&#xc0;" horiz-adv-x="650" 
d="M516 753q-12 16 -15 26q-1 5 -4 17t-4 22l-1 18q0 9 9 12q7 -1 10 -8l4.5 -9t4.5 -12q10 -31 11 -41v-9q0 -4 -2 -14q-1 -3 -6 -6q-6 3 -7 4zM378 -157q-8 10 -9 16l-6 26q-1 6 -1 14.5t-1 14.5q0 32 3 65q8 56 9 59l6 29q4 29 14 68l23 92q16 51 27 98q1 3 3.5 10
t1.5 13q-5 1 -12.5 0.5t-12.5 0.5q-13 3 -26 3q-8 2 -26 4l-27 6q-19 5 -25 7l-25 8q-6 1 -25 10l-5 -6q-18 -32 -29 -47q-37 -62 -86 -132q-26 -36 -56 -65q-20 -19 -44 -29q-12 -4 -23 -3q-13 0 -26 11q-13 15 -19 31q-8 23 -8 53v16q-1 1 -1 4q1 3 2.5 13.5t5.5 17.5
q2 6 4 8q0 1 5 3l3 -5q-1 -3 -1 -8q-7 -20 -7 -43t8 -49q6 -14 10 -21q1 -3 6 -8q12 -13 28 -9q14 4 25 12q18 11 41 36q26 29 42 55q49 72 100 161l5 10v2l-19 9l-31 15l-22 11q-45 24 -79 34q-23 7 -41 7q-41 0 -80 -17q-20 -10 -40 -25l-4 -2l-4 1q6 11 14 15
q36 27 82 35q17 3 32 3q14 0 27 -3q8 -1 14 -3t10 -3q25 -7 50 -20t30 -15q21 -12 42 -21l22 -11q1 -1 4 -1l3 6q54 94 80 141q14 23 44 67q29 38 55 58q6 6 19 14q17 10 36 10q1 -1 3 -1t3 -1q16 -5 23 -17q9 -10 11 -29q4 -24 3 -47l-5 -61q-2 -17 -8 -41q-3 -22 -9 -45
q-2 -10 -4 -18.5t-4 -16.5l-6 -24l-11 -38l6 -1q5 0 9.5 1t7.5 1q70 10 139 46l26 14q44 23 52 28q3 0 5 2q5 0 5 -4q0 -2 -1 -3l-20 -12l-73 -39q-67 -34 -136 -43q-16 -2 -22 -2q-4 -12 -6.5 -22t-5.5 -18l-24 -86q-3 -10 -7 -30l-9 -33l-5 -21q-3 -10 -7 -30
q-5 -17 -10 -41l-9 -37q-7 -31 -11 -52q-6 -28 -7 -42q-4 -36 -3 -54q1 -4 1 -10.5t1 -10.5q0 -5 5 -8q5 -4 11 1q10 6 16 16q16 24 23 36l23 44q9 17 10 30q0 6 4 7q2 -4 2 -6q-3 -22 -14 -44q-17 -37 -37 -70q-6 -10 -10 -14q-6 -8 -11 -11q-7 -5 -13 -5q-3 0 -9 2
q-1 0 -7 3zM453 361q1 1 1 3q9 30 15 55q12 48 16 71q8 30 11 55q6 38 6 78q0 25 -4 36q-3 9 -8 12q-2 1 -6 1t-7 -1l-6 -2q-16 -10 -24 -16q-21 -18 -48 -53q-31 -45 -42 -62q-25 -40 -48 -81l-33 -56l-2 -6q35 -16 87 -27t91 -10q0 2 1 3z" />
    <glyph glyph-name="Aacute" unicode="&#xc1;" horiz-adv-x="650" 
d="M507 746q-4 4 -4 10q0 10 4 17q24 38 41 59l3 4q3 1 7 1q5 0 8 -4q2 -7 -1 -12q-2 -10 -11 -26q-8 -16 -13 -24l-17 -25q-1 -2 -7 -5q-7 0 -10 5zM378 -157q-8 10 -9 16l-6 26q-1 6 -1 14.5t-1 14.5q0 32 3 65q8 56 9 59l6 29q4 29 14 68l23 92q16 51 27 98q1 3 3.5 10
t1.5 13q-5 1 -12.5 0.5t-12.5 0.5q-13 3 -26 3q-8 2 -26 4l-27 6q-19 5 -25 7l-25 8q-6 1 -25 10l-5 -6q-18 -32 -29 -47q-37 -62 -86 -132q-26 -36 -56 -65q-20 -19 -44 -29q-12 -4 -23 -3q-13 0 -26 11q-13 15 -19 31q-8 23 -8 53v16q-1 1 -1 4q1 3 2.5 13.5t5.5 17.5
q2 6 4 8q0 1 5 3l3 -5q-1 -3 -1 -8q-7 -20 -7 -43t8 -49q6 -14 10 -21q1 -3 6 -8q12 -13 28 -9q14 4 25 12q18 11 41 36q26 29 42 55q49 72 100 161l5 10v2l-19 9l-31 15l-22 11q-45 24 -79 34q-23 7 -41 7q-41 0 -80 -17q-20 -10 -40 -25l-4 -2l-4 1q6 11 14 15
q36 27 82 35q17 3 32 3q14 0 27 -3q8 -1 14 -3t10 -3q25 -7 50 -20t30 -15q21 -12 42 -21l22 -11q1 -1 4 -1l3 6q54 94 80 141q14 23 44 67q29 38 55 58q6 6 19 14q17 10 36 10q1 -1 3 -1t3 -1q16 -5 23 -17q9 -10 11 -29q4 -24 3 -47l-5 -61q-2 -17 -8 -41q-3 -22 -9 -45
q-2 -10 -4 -18.5t-4 -16.5l-6 -24l-11 -38l6 -1q5 0 9.5 1t7.5 1q70 10 139 46l26 14q44 23 52 28q3 0 5 2q5 0 5 -4q0 -2 -1 -3l-20 -12l-73 -39q-67 -34 -136 -43q-16 -2 -22 -2q-4 -12 -6.5 -22t-5.5 -18l-24 -86q-3 -10 -7 -30l-9 -33l-5 -21q-3 -10 -7 -30
q-5 -17 -10 -41l-9 -37q-7 -31 -11 -52q-6 -28 -7 -42q-4 -36 -3 -54q1 -4 1 -10.5t1 -10.5q0 -5 5 -8q5 -4 11 1q10 6 16 16q16 24 23 36l23 44q9 17 10 30q0 6 4 7q2 -4 2 -6q-3 -22 -14 -44q-17 -37 -37 -70q-6 -10 -10 -14q-6 -8 -11 -11q-7 -5 -13 -5q-3 0 -9 2
q-1 0 -7 3zM453 361q1 1 1 3q9 30 15 55q12 48 16 71q8 30 11 55q6 38 6 78q0 25 -4 36q-3 9 -8 12q-2 1 -6 1t-7 -1l-6 -2q-16 -10 -24 -16q-21 -18 -48 -53q-31 -45 -42 -62q-25 -40 -48 -81l-33 -56l-2 -6q35 -16 87 -27t91 -10q0 2 1 3z" />
    <glyph glyph-name="Acircumflex" unicode="&#xc2;" horiz-adv-x="650" 
d="M556 719l-3 3q-3 7 -9 22t-7 28q-2 12 -4 16l-1 6q-2 0 -6 -4l-41 -41q-8 -8 -13 -10l-4 4q2 6 4 8q8 12 14 18q33 41 35 44q9 13 17 14q10 -1 14 -12q11 -40 14 -53q0 -2 1.5 -7.5t-0.5 -10.5q-1 -3 -0.5 -5.5t0.5 -4.5v-13l-4 -3q-4 -2 -7 1zM378 -157q-8 10 -9 16
l-6 26q-1 6 -1 14.5t-1 14.5q0 32 3 65q8 56 9 59l6 29q4 29 14 68l23 92q16 51 27 98q1 3 3.5 10t1.5 13q-5 1 -12.5 0.5t-12.5 0.5q-13 3 -26 3q-8 2 -26 4l-27 6q-19 5 -25 7l-25 8q-6 1 -25 10l-5 -6q-18 -32 -29 -47q-37 -62 -86 -132q-26 -36 -56 -65q-20 -19 -44 -29
q-12 -4 -23 -3q-13 0 -26 11q-13 15 -19 31q-8 23 -8 53v16q-1 1 -1 4q1 3 2.5 13.5t5.5 17.5q2 6 4 8q0 1 5 3l3 -5q-1 -3 -1 -8q-7 -20 -7 -43t8 -49q6 -14 10 -21q1 -3 6 -8q12 -13 28 -9q14 4 25 12q18 11 41 36q26 29 42 55q49 72 100 161l5 10v2l-19 9l-31 15l-22 11
q-45 24 -79 34q-23 7 -41 7q-41 0 -80 -17q-20 -10 -40 -25l-4 -2l-4 1q6 11 14 15q36 27 82 35q17 3 32 3q14 0 27 -3q8 -1 14 -3t10 -3q25 -7 50 -20t30 -15q21 -12 42 -21l22 -11q1 -1 4 -1l3 6q54 94 80 141q14 23 44 67q29 38 55 58q6 6 19 14q17 10 36 10q1 -1 3 -1
t3 -1q16 -5 23 -17q9 -10 11 -29q4 -24 3 -47l-5 -61q-2 -17 -8 -41q-3 -22 -9 -45q-2 -10 -4 -18.5t-4 -16.5l-6 -24l-11 -38l6 -1q5 0 9.5 1t7.5 1q70 10 139 46l26 14q44 23 52 28q3 0 5 2q5 0 5 -4q0 -2 -1 -3l-20 -12l-73 -39q-67 -34 -136 -43q-16 -2 -22 -2
q-4 -12 -6.5 -22t-5.5 -18l-24 -86q-3 -10 -7 -30l-9 -33l-5 -21q-3 -10 -7 -30q-5 -17 -10 -41l-9 -37q-7 -31 -11 -52q-6 -28 -7 -42q-4 -36 -3 -54q1 -4 1 -10.5t1 -10.5q0 -5 5 -8q5 -4 11 1q10 6 16 16q16 24 23 36l23 44q9 17 10 30q0 6 4 7q2 -4 2 -6q-3 -22 -14 -44
q-17 -37 -37 -70q-6 -10 -10 -14q-6 -8 -11 -11q-7 -5 -13 -5q-3 0 -9 2q-1 0 -7 3zM453 361q1 1 1 3q9 30 15 55q12 48 16 71q8 30 11 55q6 38 6 78q0 25 -4 36q-3 9 -8 12q-2 1 -6 1t-7 -1l-6 -2q-16 -10 -24 -16q-21 -18 -48 -53q-31 -45 -42 -62q-25 -40 -48 -81
l-33 -56l-2 -6q35 -16 87 -27t91 -10q0 2 1 3z" />
    <glyph glyph-name="Atilde" unicode="&#xc3;" horiz-adv-x="650" 
d="M490 767.5q-7 5.5 -11 9.5l-15 1q-5 0 -8.5 -1t-6.5 -2l-3 5q11 18 34 21q19 -3 36 -20q1 -1 8.5 -7.5t16.5 -8.5q13 0 23.5 6t12.5 7q1 -1 2.5 -1t2.5 -1q-9 -16 -21.5 -23.5t-26.5 -7.5q-20 0 -33 13q-4 4 -11 9.5zM378 -157q-8 10 -9 16l-6 26q-1 6 -1 14.5t-1 14.5
q0 32 3 65q8 56 9 59l6 29q4 29 14 68l23 92q16 51 27 98q1 3 3.5 10t1.5 13q-5 1 -12.5 0.5t-12.5 0.5q-13 3 -26 3q-8 2 -26 4l-27 6q-19 5 -25 7l-25 8q-6 1 -25 10l-5 -6q-18 -32 -29 -47q-37 -62 -86 -132q-26 -36 -56 -65q-20 -19 -44 -29q-12 -4 -23 -3q-13 0 -26 11
q-13 15 -19 31q-8 23 -8 53v16q-1 1 -1 4q1 3 2.5 13.5t5.5 17.5q2 6 4 8q0 1 5 3l3 -5q-1 -3 -1 -8q-7 -20 -7 -43t8 -49q6 -14 10 -21q1 -3 6 -8q12 -13 28 -9q14 4 25 12q18 11 41 36q26 29 42 55q49 72 100 161l5 10v2l-19 9l-31 15l-22 11q-45 24 -79 34q-23 7 -41 7
q-41 0 -80 -17q-20 -10 -40 -25l-4 -2l-4 1q6 11 14 15q36 27 82 35q17 3 32 3q14 0 27 -3q8 -1 14 -3t10 -3q25 -7 50 -20t30 -15q21 -12 42 -21l22 -11q1 -1 4 -1l3 6q54 94 80 141q14 23 44 67q29 38 55 58q6 6 19 14q17 10 36 10q1 -1 3 -1t3 -1q16 -5 23 -17
q9 -10 11 -29q4 -24 3 -47l-5 -61q-2 -17 -8 -41q-3 -22 -9 -45q-2 -10 -4 -18.5t-4 -16.5l-6 -24l-11 -38l6 -1q5 0 9.5 1t7.5 1q70 10 139 46l26 14q44 23 52 28q3 0 5 2q5 0 5 -4q0 -2 -1 -3l-20 -12l-73 -39q-67 -34 -136 -43q-16 -2 -22 -2q-4 -12 -6.5 -22t-5.5 -18
l-24 -86q-3 -10 -7 -30l-9 -33l-5 -21q-3 -10 -7 -30q-5 -17 -10 -41l-9 -37q-7 -31 -11 -52q-6 -28 -7 -42q-4 -36 -3 -54q1 -4 1 -10.5t1 -10.5q0 -5 5 -8q5 -4 11 1q10 6 16 16q16 24 23 36l23 44q9 17 10 30q0 6 4 7q2 -4 2 -6q-3 -22 -14 -44q-17 -37 -37 -70
q-6 -10 -10 -14q-6 -8 -11 -11q-7 -5 -13 -5q-3 0 -9 2q-1 0 -7 3zM453 361q1 1 1 3q9 30 15 55q12 48 16 71q8 30 11 55q6 38 6 78q0 25 -4 36q-3 9 -8 12q-2 1 -6 1t-7 -1l-6 -2q-16 -10 -24 -16q-21 -18 -48 -53q-31 -45 -42 -62q-25 -40 -48 -81l-33 -56l-2 -6
q35 -16 87 -27t91 -10q0 2 1 3z" />
    <glyph glyph-name="Adieresis" unicode="&#xc4;" horiz-adv-x="650" 
d="M482 768q-6 0 -11 8l-1 5q2 8 4 11q1 5 7 9q7 3 11 1q12 -5 17 -15q-3 -11 -13 -14q-3 -2 -9 -4zM560 747q-4 0 -10 4q-9 4 -6 16l10 14l17 3l7 -3.5t7 -7.5q-5 -16 -16 -23q-4 -3 -9 -3zM378 -157q-8 10 -9 16l-6 26q-1 6 -1 14.5t-1 14.5q0 32 3 65q8 56 9 59l6 29
q4 29 14 68l23 92q16 51 27 98q1 3 3.5 10t1.5 13q-5 1 -12.5 0.5t-12.5 0.5q-13 3 -26 3q-8 2 -26 4l-27 6q-19 5 -25 7l-25 8q-6 1 -25 10l-5 -6q-18 -32 -29 -47q-37 -62 -86 -132q-26 -36 -56 -65q-20 -19 -44 -29q-12 -4 -23 -3q-13 0 -26 11q-13 15 -19 31
q-8 23 -8 53v16q-1 1 -1 4q1 3 2.5 13.5t5.5 17.5q2 6 4 8q0 1 5 3l3 -5q-1 -3 -1 -8q-7 -20 -7 -43t8 -49q6 -14 10 -21q1 -3 6 -8q12 -13 28 -9q14 4 25 12q18 11 41 36q26 29 42 55q49 72 100 161l5 10v2l-19 9l-31 15l-22 11q-45 24 -79 34q-23 7 -41 7q-41 0 -80 -17
q-20 -10 -40 -25l-4 -2l-4 1q6 11 14 15q36 27 82 35q17 3 32 3q14 0 27 -3q8 -1 14 -3t10 -3q25 -7 50 -20t30 -15q21 -12 42 -21l22 -11q1 -1 4 -1l3 6q54 94 80 141q14 23 44 67q29 38 55 58q6 6 19 14q17 10 36 10q1 -1 3 -1t3 -1q16 -5 23 -17q9 -10 11 -29
q4 -24 3 -47l-5 -61q-2 -17 -8 -41q-3 -22 -9 -45q-2 -10 -4 -18.5t-4 -16.5l-6 -24l-11 -38l6 -1q5 0 9.5 1t7.5 1q70 10 139 46l26 14q44 23 52 28q3 0 5 2q5 0 5 -4q0 -2 -1 -3l-20 -12l-73 -39q-67 -34 -136 -43q-16 -2 -22 -2q-4 -12 -6.5 -22t-5.5 -18l-24 -86
q-3 -10 -7 -30l-9 -33l-5 -21q-3 -10 -7 -30q-5 -17 -10 -41l-9 -37q-7 -31 -11 -52q-6 -28 -7 -42q-4 -36 -3 -54q1 -4 1 -10.5t1 -10.5q0 -5 5 -8q5 -4 11 1q10 6 16 16q16 24 23 36l23 44q9 17 10 30q0 6 4 7q2 -4 2 -6q-3 -22 -14 -44q-17 -37 -37 -70q-6 -10 -10 -14
q-6 -8 -11 -11q-7 -5 -13 -5q-3 0 -9 2q-1 0 -7 3zM453 361q1 1 1 3q9 30 15 55q12 48 16 71q8 30 11 55q6 38 6 78q0 25 -4 36q-3 9 -8 12q-2 1 -6 1t-7 -1l-6 -2q-16 -10 -24 -16q-21 -18 -48 -53q-31 -45 -42 -62q-25 -40 -48 -81l-33 -56l-2 -6q35 -16 87 -27t91 -10
q0 2 1 3z" />
    <glyph glyph-name="Aring" unicode="&#xc5;" horiz-adv-x="650" 
d="M522 749q-9 0 -15 8q-9 9 -9 21q0 6 2 10q5 17 16 29q10 13 29 18q9 -3 19 -11q6 -5 8 -15q0 -19 -9 -36q-10 -16 -30 -21l-6 -2zM537 766q6 2 9 6q14 13 14 35q0 3 -1 4q-2 5 -5 5q-9 -7 -15 -17t-13 -26q-2 -3 1 -7q5 -2 10 0zM378 -157q-8 10 -9 16l-6 26
q-1 6 -1 14.5t-1 14.5q0 32 3 65q8 56 9 59l6 29q4 29 14 68l23 92q16 51 27 98q1 3 3.5 10t1.5 13q-5 1 -12.5 0.5t-12.5 0.5q-13 3 -26 3q-8 2 -26 4l-27 6q-19 5 -25 7l-25 8q-6 1 -25 10l-5 -6q-18 -32 -29 -47q-37 -62 -86 -132q-26 -36 -56 -65q-20 -19 -44 -29
q-12 -4 -23 -3q-13 0 -26 11q-13 15 -19 31q-8 23 -8 53v16q-1 1 -1 4q1 3 2.5 13.5t5.5 17.5q2 6 4 8q0 1 5 3l3 -5q-1 -3 -1 -8q-7 -20 -7 -43t8 -49q6 -14 10 -21q1 -3 6 -8q12 -13 28 -9q14 4 25 12q18 11 41 36q26 29 42 55q49 72 100 161l5 10v2l-19 9l-31 15l-22 11
q-45 24 -79 34q-23 7 -41 7q-41 0 -80 -17q-20 -10 -40 -25l-4 -2l-4 1q6 11 14 15q36 27 82 35q17 3 32 3q14 0 27 -3q8 -1 14 -3t10 -3q25 -7 50 -20t30 -15q21 -12 42 -21l22 -11q1 -1 4 -1l3 6q54 94 80 141q14 23 44 67q29 38 55 58q6 6 19 14q17 10 36 10q1 -1 3 -1
t3 -1q16 -5 23 -17q9 -10 11 -29q4 -24 3 -47l-5 -61q-2 -17 -8 -41q-3 -22 -9 -45q-2 -10 -4 -18.5t-4 -16.5l-6 -24l-11 -38l6 -1q5 0 9.5 1t7.5 1q70 10 139 46l26 14q44 23 52 28q3 0 5 2q5 0 5 -4q0 -2 -1 -3l-20 -12l-73 -39q-67 -34 -136 -43q-16 -2 -22 -2
q-4 -12 -6.5 -22t-5.5 -18l-24 -86q-3 -10 -7 -30l-9 -33l-5 -21q-3 -10 -7 -30q-5 -17 -10 -41l-9 -37q-7 -31 -11 -52q-6 -28 -7 -42q-4 -36 -3 -54q1 -4 1 -10.5t1 -10.5q0 -5 5 -8q5 -4 11 1q10 6 16 16q16 24 23 36l23 44q9 17 10 30q0 6 4 7q2 -4 2 -6q-3 -22 -14 -44
q-17 -37 -37 -70q-6 -10 -10 -14q-6 -8 -11 -11q-7 -5 -13 -5q-3 0 -9 2q-1 0 -7 3zM453 361q1 1 1 3q9 30 15 55q12 48 16 71q8 30 11 55q6 38 6 78q0 25 -4 36q-3 9 -8 12q-2 1 -6 1t-7 -1l-6 -2q-16 -10 -24 -16q-21 -18 -48 -53q-31 -45 -42 -62q-25 -40 -48 -81
l-33 -56l-2 -6q35 -16 87 -27t91 -10q0 2 1 3z" />
    <glyph glyph-name="AE" unicode="&#xc6;" horiz-adv-x="600" 
 />
    <glyph glyph-name="Ccedilla" unicode="&#xc7;" horiz-adv-x="525" 
d="M480 641q0 -2 -2 -10q-4 -13 -13 -23q-11 -16 -40 -39q-47 -38 -116 -54q-27 -6 -54 -9q-50 -5 -62 -5q-8 -7 -22 -23q-43 -49 -76 -106q-28 -49 -44 -101q-9 -24 -14 -59q-5 -28 -5 -51q0 -47 17 -80q22 -45 72 -59q28 -6 42 -6q21 0 42 6q41 11 77 33q4 3 9 6t11 8
q46 29 72 51q5 4 15 12.5t16 16.5q3 -1 3.5 -2.5t-0.5 -2.5q-2 -4 -7 -9l-38 -34l-39 -32q-48 -38 -95 -54q-43 -15 -78 -14q-7 0 -19 2v-4q0 -7 -1 -11q-2 -4 -7 -19q2 -2 4 -1.5t3 0.5l8 2h7q12 -5 15 -22q-3 -26 -25 -48q-12 -12 -31 -12q-11 1 -18.5 8.5t-7.5 18.5
q0 9 1 13q0 7 5 10q2 4 6 0q1 -3 0 -6.5t0 -7.5q0 -10 7 -14l4 -1q5 0 12 5q18 13 28 37q3 4 -2 9q-2 1 -6 1q-8 0 -17 -7q-1 -1 -4.5 -4t-8.5 -3q-8 2 -9 7q-1 3 -1 10q0 2 2 4l16 33q2 3 5 5q-32 7 -61 30q-17 16 -30 38q-18 33 -24 71l-2 20l-2 20q-1 3 -0.5 5.5t0.5 4.5
q1 2 1 8q1 41 23 101q21 60 65 127q18 28 52 68l3 4l-28 6q-7 1 -7 6q0 2 2.5 3.5t6.5 1.5q2 0 10 -2q12 -3 26 -3l8 7q40 43 91 80q45 32 77 49q33 16 66 23q9 2 26 2q14 0 21 -1q18 -3 29 -14q10 -10 10 -20zM458 637q-5 9 -17 9h-7q-6 0 -20 -2q-23 -4 -50 -16
q-42 -19 -92 -57q-37 -28 -62 -52l-2.5 -2.5t-0.5 -3.5h6q7 0 23 2q19 1 59 9q46 10 80 29q36 20 61 46q19 21 22 38z" />
    <glyph glyph-name="Egrave" unicode="&#xc8;" horiz-adv-x="435" 
d="M410 722q-12 14 -15 26q-1 5 -4 17t-4 22q-2 12 -2 18q0 9 10 12q6 -1 10 -9q8 -15 9 -20q2 -6 6 -18.5t5 -22.5v-9q0 -3 -2 -15l-6 -5q-6 3 -7 4zM53 -8q-43 28 -62 67q-11 26 -12 40l-3 22q-1 6 -1 18q0 29 8 61q16 59 62 109q22 23 64 47q27 15 66 25q17 4 38 4
q23 0 38 -5l16 -5q-1 1 -1 3q-16 16 -31 34q-21 30 -21 66q0 15 6 39q9 26 18 40q4 6 4 9q-1 3 -3.5 3h-2.5q-33 7 -63.5 33.5t-30.5 62.5q0 35 35 73q4 2 5 2q5 0 7 -5t-3 -9q-31 -28 -31 -59q0 -29 25 -53.5t59 -35.5q9 0 12 1q5 5 11 15q29 33 65 55q36 20 66 26
q24 3 26 3q7 0 11 -1q14 -3 26 -12q12 -11 12 -27q0 -14 -7 -24q-11 -18 -32 -29q-24 -13 -49 -17q-6 0 -10.5 -1t-7.5 -2q-10 -2 -14 -1l-25 -2q-10 1 -30 1q-2 1 -5 0.5t-5 0.5q-11 -13 -19 -30q-13 -24 -15 -52q-1 -3 -1 -10q0 -12 5 -27q3 -10 16 -35q7 -13 17 -26
t12 -16q5 -7 5 -8l5 -10q-2 -2 -2 -4t-1 -3q-1 0 -2 -0.5t-2 0.5q-5 1 -13 6q-8 7 -17.5 10t-27.5 6q-33 3 -67 -10q-61 -23 -104 -65q-51 -53 -60 -122q-2 -10 -2 -29q0 -22 4 -39q6 -34 31 -62q39 -42 102 -55q18 -4 35 -3q60 8 88 55q7 15 11 26t4 24q0 16 -10.5 30
t-27.5 17q-18 2 -22 4.5t5 5.5q4 1 13 1t18 -3q22 -8 30 -31q5 -10 5 -26q0 -12 -1 -18q-4 -23 -20 -48q-27 -41 -76 -54q-20 -5 -35 -5q-7 0 -21 2q-50 8 -90 32zM400 584q26 8 40 23q11 11 14 23v3q0 10 -7 17q-8 7 -23 7q-26 0 -48 -12q-42 -21 -82 -66q-1 -1 -3 -5
q16 -4 38 -2q33 0 71 12z" />
    <glyph glyph-name="Eacute" unicode="&#xc9;" horiz-adv-x="435" 
d="M428 738q-3 5 -3 10v4q0 8 4 13q24 40 41 59q2 4 3 4q3 1 7 1t7 -4q2 -6 0 -12q-4 -12 -11 -26l-14 -24q-5 -9 -17 -25q-2 -3 -7 -5q-7 0 -10 5zM53 -8q-43 28 -62 67q-11 26 -12 40l-3 22q-1 6 -1 18q0 29 8 61q16 59 62 109q22 23 64 47q27 15 66 25q17 4 38 4
q23 0 38 -5l16 -5q-1 1 -1 3q-16 16 -31 34q-21 30 -21 66q0 15 6 39q9 26 18 40q4 6 4 9q-1 3 -3.5 3h-2.5q-33 7 -63.5 33.5t-30.5 62.5q0 35 35 73q4 2 5 2q5 0 7 -5t-3 -9q-31 -28 -31 -59q0 -29 25 -53.5t59 -35.5q9 0 12 1q5 5 11 15q29 33 65 55q36 20 66 26
q24 3 26 3q7 0 11 -1q14 -3 26 -12q12 -11 12 -27q0 -14 -7 -24q-11 -18 -32 -29q-24 -13 -49 -17q-6 0 -10.5 -1t-7.5 -2q-10 -2 -14 -1l-25 -2q-10 1 -30 1q-2 1 -5 0.5t-5 0.5q-11 -13 -19 -30q-13 -24 -15 -52q-1 -3 -1 -10q0 -12 5 -27q3 -10 16 -35q7 -13 17 -26
t12 -16q5 -7 5 -8l5 -10q-2 -2 -2 -4t-1 -3q-1 0 -2 -0.5t-2 0.5q-5 1 -13 6q-8 7 -17.5 10t-27.5 6q-33 3 -67 -10q-61 -23 -104 -65q-51 -53 -60 -122q-2 -10 -2 -29q0 -22 4 -39q6 -34 31 -62q39 -42 102 -55q18 -4 35 -3q60 8 88 55q7 15 11 26t4 24q0 16 -10.5 30
t-27.5 17q-18 2 -22 4.5t5 5.5q4 1 13 1t18 -3q22 -8 30 -31q5 -10 5 -26q0 -12 -1 -18q-4 -23 -20 -48q-27 -41 -76 -54q-20 -5 -35 -5q-7 0 -21 2q-50 8 -90 32zM400 584q26 8 40 23q11 11 14 23v3q0 10 -7 17q-8 7 -23 7q-26 0 -48 -12q-42 -21 -82 -66q-1 -1 -3 -5
q16 -4 38 -2q33 0 71 12z" />
    <glyph glyph-name="Ecircumflex" unicode="&#xca;" horiz-adv-x="435" 
d="M498 713q-2 2 -2 4q-2 5 -9 20t-8 29q0 6 -1 10t-2 7l-2 5q-2 1 -3.5 -0.5l-2.5 -2.5l-41 -42q-9 -8 -13 -10l-4 4q2 6 4 9l14 18q24 28 35 44q8 12 17 13q11 -1 14 -12q12 -41 14 -53q0 -2 1.5 -7.5t-0.5 -10.5q-1 -3 -0.5 -5t0.5 -4v-13l-4 -4q-4 -2 -7 1zM53 -8
q-43 28 -62 67q-11 26 -12 40l-3 22q-1 6 -1 18q0 29 8 61q16 59 62 109q22 23 64 47q27 15 66 25q17 4 38 4q23 0 38 -5l16 -5q-1 1 -1 3q-16 16 -31 34q-21 30 -21 66q0 15 6 39q9 26 18 40q4 6 4 9q-1 3 -3.5 3h-2.5q-33 7 -63.5 33.5t-30.5 62.5q0 35 35 73q4 2 5 2
q5 0 7 -5t-3 -9q-31 -28 -31 -59q0 -29 25 -53.5t59 -35.5q9 0 12 1q5 5 11 15q29 33 65 55q36 20 66 26q24 3 26 3q7 0 11 -1q14 -3 26 -12q12 -11 12 -27q0 -14 -7 -24q-11 -18 -32 -29q-24 -13 -49 -17q-6 0 -10.5 -1t-7.5 -2q-10 -2 -14 -1l-25 -2q-10 1 -30 1
q-2 1 -5 0.5t-5 0.5q-11 -13 -19 -30q-13 -24 -15 -52q-1 -3 -1 -10q0 -12 5 -27q3 -10 16 -35q7 -13 17 -26t12 -16q5 -7 5 -8l5 -10q-2 -2 -2 -4t-1 -3q-1 0 -2 -0.5t-2 0.5q-5 1 -13 6q-8 7 -17.5 10t-27.5 6q-33 3 -67 -10q-61 -23 -104 -65q-51 -53 -60 -122
q-2 -10 -2 -29q0 -22 4 -39q6 -34 31 -62q39 -42 102 -55q18 -4 35 -3q60 8 88 55q7 15 11 26t4 24q0 16 -10.5 30t-27.5 17q-18 2 -22 4.5t5 5.5q4 1 13 1t18 -3q22 -8 30 -31q5 -10 5 -26q0 -12 -1 -18q-4 -23 -20 -48q-27 -41 -76 -54q-20 -5 -35 -5q-7 0 -21 2
q-50 8 -90 32zM400 584q26 8 40 23q11 11 14 23v3q0 10 -7 17q-8 7 -23 7q-26 0 -48 -12q-42 -21 -82 -66q-1 -1 -3 -5q16 -4 38 -2q33 0 71 12z" />
    <glyph glyph-name="Edieresis" unicode="&#xcb;" horiz-adv-x="435" 
d="M416 771q-8 0 -11 9l-2 4l4 12q4 6 8 8q4 4 11 1q11 -5 16 -14q-3 -11 -13 -15l-8 -4zM477 771q-1 -1 11 14l17 3q2 -1 6.5 -4t6.5 -7q-5 -16 -15 -23q-4 -3 -9 -3t-11 3q-9 5 -6 17zM53 -8q-43 28 -62 67q-11 26 -12 40l-3 22q-1 6 -1 18q0 29 8 61q16 59 62 109
q22 23 64 47q27 15 66 25q17 4 38 4q23 0 38 -5l16 -5q-1 1 -1 3q-16 16 -31 34q-21 30 -21 66q0 15 6 39q9 26 18 40q4 6 4 9q-1 3 -3.5 3h-2.5q-33 7 -63.5 33.5t-30.5 62.5q0 35 35 73q4 2 5 2q5 0 7 -5t-3 -9q-31 -28 -31 -59q0 -29 25 -53.5t59 -35.5q9 0 12 1
q5 5 11 15q29 33 65 55q36 20 66 26q24 3 26 3q7 0 11 -1q14 -3 26 -12q12 -11 12 -27q0 -14 -7 -24q-11 -18 -32 -29q-24 -13 -49 -17q-6 0 -10.5 -1t-7.5 -2q-10 -2 -14 -1l-25 -2q-10 1 -30 1q-2 1 -5 0.5t-5 0.5q-11 -13 -19 -30q-13 -24 -15 -52q-1 -3 -1 -10
q0 -12 5 -27q3 -10 16 -35q7 -13 17 -26t12 -16q5 -7 5 -8l5 -10q-2 -2 -2 -4t-1 -3q-1 0 -2 -0.5t-2 0.5q-5 1 -13 6q-8 7 -17.5 10t-27.5 6q-33 3 -67 -10q-61 -23 -104 -65q-51 -53 -60 -122q-2 -10 -2 -29q0 -22 4 -39q6 -34 31 -62q39 -42 102 -55q18 -4 35 -3
q60 8 88 55q7 15 11 26t4 24q0 16 -10.5 30t-27.5 17q-18 2 -22 4.5t5 5.5q4 1 13 1t18 -3q22 -8 30 -31q5 -10 5 -26q0 -12 -1 -18q-4 -23 -20 -48q-27 -41 -76 -54q-20 -5 -35 -5q-7 0 -21 2q-50 8 -90 32zM400 584q26 8 40 23q11 11 14 23v3q0 10 -7 17q-8 7 -23 7
q-26 0 -48 -12q-42 -21 -82 -66q-1 -1 -3 -5q16 -4 38 -2q33 0 71 12z" />
    <glyph glyph-name="Igrave" unicode="&#xcc;" horiz-adv-x="325" 
d="M367 785.5q4 -12.5 5 -22.5v-9q0 -3 -2 -15l-6 -5q-6 3 -7 4q-12 13 -15 25q-1 6 -4 18t-4 22l-1 18q0 9 9 12q6 -1 10 -9q8 -15 9 -20q2 -6 6 -18.5zM348 672q3 0 5.5 -2t2.5 -6q-1 -2 -1 -4.5t-2 -5.5l-11 -22q-5 -11 -60 -96l-28 -44q-64 -116 -91 -176l-68 -151
l-9 -20q-1 -3 -3 -8.5t-6 -12.5l-2 -9l8 -7q26 -24 23 -54q-5 -33 -22 -56q-12 -13 -28 -19q-18 1 -25 23q-4 13 -4 30q0 29 11 73l3 8l-2 3q-26 0 -42 -6q-4 -2 -7.5 -4t-5.5 -3l-1.5 -0.5t-2.5 1.5q11 12 27 14q11 3 23 3q3 0 13 2q2 2 2 7q26 70 42 104l12 27
q33 70 40 85q31 66 69 125q22 34 52.5 79.5t45.5 65.5l2.5 5t4.5 6q2 2 0 5q-2 0 -4 -1.5t-3 -2.5l-32 -20q-33 -20 -84 -36l-20 -5l-36 -9q-2 2 -2 3q0 5 22 9q27 8 54 17q39 14 82 44q18 11 47 36q1 1 2.5 2t4.5 2q1 1 4 1zM315.5 631.5q0.5 0.5 -0.5 1.5q-1 0 -1 -1
q1 -1 1.5 -0.5zM73.5 106q-1.5 0 -2.5 1q-8 -17 -15 -42q-8 -25 -8 -59q1 -2 2.5 -7t6.5 -6q13 4 24 18q17 25 17 51q0 27 -22 43q-1 1 -2.5 1z" />
    <glyph glyph-name="Iacute" unicode="&#xcd;" horiz-adv-x="325" 
d="M435 817q0 -5 -1 -8q-6 -18 -11 -26q-7 -15 -14 -24q-5 -9 -17 -25q-1 -3 -7 -5q-6 0 -10 4q-3 5 -3 11q0 10 4 17q26 40 41 59q3 2 3 4q3 1 7 1q5 0 8 -4v-4zM348 672q3 0 5.5 -2t2.5 -6q-1 -2 -1 -4.5t-2 -5.5l-11 -22q-5 -11 -60 -96l-28 -44q-64 -116 -91 -176
l-68 -151l-9 -20q-1 -3 -3 -8.5t-6 -12.5l-2 -9l8 -7q26 -24 23 -54q-5 -33 -22 -56q-12 -13 -28 -19q-18 1 -25 23q-4 13 -4 30q0 29 11 73l3 8l-2 3q-26 0 -42 -6q-4 -2 -7.5 -4t-5.5 -3l-1.5 -0.5t-2.5 1.5q11 12 27 14q11 3 23 3q3 0 13 2q2 2 2 7q26 70 42 104l12 27
q33 70 40 85q31 66 69 125q22 34 52.5 79.5t45.5 65.5l2.5 5t4.5 6q2 2 0 5q-2 0 -4 -1.5t-3 -2.5l-32 -20q-33 -20 -84 -36l-20 -5l-36 -9q-2 2 -2 3q0 5 22 9q27 8 54 17q39 14 82 44q18 11 47 36q1 1 2.5 2t4.5 2q1 1 4 1zM315.5 631.5q0.5 0.5 -0.5 1.5q-1 0 -1 -1
q1 -1 1.5 -0.5zM73.5 106q-1.5 0 -2.5 1q-8 -17 -15 -42q-8 -25 -8 -59q1 -2 2.5 -7t6.5 -6q13 4 24 18q17 25 17 51q0 27 -22 43q-1 1 -2.5 1z" />
    <glyph glyph-name="Icircumflex" unicode="&#xce;" horiz-adv-x="325" 
d="M422 727q-1 -2 -0.5 -5t0.5 -5v-13l-4 -3q-2 -2 -7 0l-2 4q-2 4 -9 19.5t-8 30.5q0 1 -3 16l-2 6q-2 0 -6 -4q-20 -21 -41 -41q-9 -8 -13 -10l-4 3q2 7 4 9l14 18q19 22 35 44q8 12 17 14q10 -1 14 -12q2 -7 7 -24t7 -30q3 -12 1 -17zM348 672q3 0 5.5 -2t2.5 -6
q-1 -2 -1 -4.5t-2 -5.5l-11 -22q-5 -11 -60 -96l-28 -44q-64 -116 -91 -176l-68 -151l-9 -20q-1 -3 -3 -8.5t-6 -12.5l-2 -9l8 -7q26 -24 23 -54q-5 -33 -22 -56q-12 -13 -28 -19q-18 1 -25 23q-4 13 -4 30q0 29 11 73l3 8l-2 3q-26 0 -42 -6q-4 -2 -7.5 -4t-5.5 -3
l-1.5 -0.5t-2.5 1.5q11 12 27 14q11 3 23 3q3 0 13 2q2 2 2 7q26 70 42 104l12 27q33 70 40 85q31 66 69 125q22 34 52.5 79.5t45.5 65.5l2.5 5t4.5 6q2 2 0 5q-2 0 -4 -1.5t-3 -2.5l-32 -20q-33 -20 -84 -36l-20 -5l-36 -9q-2 2 -2 3q0 5 22 9q27 8 54 17q39 14 82 44
q18 11 47 36q1 1 2.5 2t4.5 2q1 1 4 1zM315.5 631.5q0.5 0.5 -0.5 1.5q-1 0 -1 -1q1 -1 1.5 -0.5zM73.5 106q-1.5 0 -2.5 1q-8 -17 -15 -42q-8 -25 -8 -59q1 -2 2.5 -7t6.5 -6q13 4 24 18q17 25 17 51q0 27 -22 43q-1 1 -2.5 1z" />
    <glyph glyph-name="Idieresis" unicode="&#xcf;" horiz-adv-x="325" 
d="M363 747q-4 -12 -13 -15l-8 -4l-5 -1q-8 0 -11 8l-2 5l4 12q4 6 7 8q6 4 12 1q11 -5 16 -14zM432.5 740q4.5 -3 6.5 -7q-5 -16 -15 -23q-5 -3 -9 -3q-7 0 -11 3q-9 5 -6 17l10 14q7 0 18 3q2 -1 6.5 -4zM348 672q3 0 5.5 -2t2.5 -6q-1 -2 -1 -4.5t-2 -5.5l-11 -22
q-5 -11 -60 -96l-28 -44q-64 -116 -91 -176l-68 -151l-9 -20q-1 -3 -3 -8.5t-6 -12.5l-2 -9l8 -7q26 -24 23 -54q-5 -33 -22 -56q-12 -13 -28 -19q-18 1 -25 23q-4 13 -4 30q0 29 11 73l3 8l-2 3q-26 0 -42 -6q-4 -2 -7.5 -4t-5.5 -3l-1.5 -0.5t-2.5 1.5q11 12 27 14
q11 3 23 3q3 0 13 2q2 2 2 7q26 70 42 104l12 27q33 70 40 85q31 66 69 125q22 34 52.5 79.5t45.5 65.5l2.5 5t4.5 6q2 2 0 5q-2 0 -4 -1.5t-3 -2.5l-32 -20q-33 -20 -84 -36l-20 -5l-36 -9q-2 2 -2 3q0 5 22 9q27 8 54 17q39 14 82 44q18 11 47 36q1 1 2.5 2t4.5 2q1 1 4 1
zM315.5 631.5q0.5 0.5 -0.5 1.5q-1 0 -1 -1q1 -1 1.5 -0.5zM73.5 106q-1.5 0 -2.5 1q-8 -17 -15 -42q-8 -25 -8 -59q1 -2 2.5 -7t6.5 -6q13 4 24 18q17 25 17 51q0 27 -22 43q-1 1 -2.5 1z" />
    <glyph glyph-name="Eth" unicode="&#xd0;" horiz-adv-x="600" 
d="M525 502q0 -61 -19 -131q-21 -75 -60 -146q-29 -54 -57 -88q-31 -39 -71 -72q-32 -26 -74 -49q-34 -18 -69 -22l-17 -1q-18 0 -31 4q-15 3 -31 14q-19 14 -19 37q0 7 4 19q6 17 22 32q20 19 48 27h1q17 4 23 5h2q14 2 21 2h8q25 0 38 -2q5 0 13 -2l4 -1l2 -1l-1 -5h-1h-8
l-19 2q-15 0 -22 -1h-9q-18 0 -43 -5q-33 -8 -53 -29q-13 -15 -15 -26q-2 -6 -2 -10v-4v-2l2 -4q5 -14 19 -20t31 -6q27 0 62 15q47 21 88 53q37 31 59 56q25 30 44 60q36 57 59 118q18 44 29 93q10 43 10 87q1 25 -7 64q-4 20 -17 43q-9 15 -26 26q-11 7 -28 7
q-13 0 -38 -9q-35 -15 -68 -44q-39 -34 -63 -66l-24 -32q-5 -5 -9 -15l-3 -6l-55 -122q14 1 41 1h41q5 0 8.5 -1t6 -3t4.5 -3v-6q0 -9 -9 -11q-5 -2 -14 -2q-9 -1 -28 -1h-62l-21 -47l-27 -62l-27 -62q-28 -59 -38 -76l-1 -2q-16 -27 -24 -36q-6 -6 -11 -8l-8 2v1v0.5
t-1 0.5q0 2 -1 2v4q0 2 2 10l10 30q23 57 60 126q16 34 23 51l5 11l24 54h-2q-29 0 -53 -4l-35 -3q-6 -1 -14.5 -2t-20.5 -1h-13q-6 0 -7 6q1 5 8 8l18 5q40 8 72 11q20 3 58 5l21 47l33 72q37 82 71 163q21 52 31 86q0 2 1 3v2l-2 -1q-8 -16 -29.5 -34t-48.5 -31t-52 -13
q-29 0 -48 20q-8 7 -8 15q0 9 6 9q2 0 7 -5q13 -22 41 -22q22 0 48.5 12.5t48 31t29.5 34.5l6 7l9 11l3 3l2 2q5 6 13 3q8 -2 10 -10q1 -3 1 -9t-1 -10l-1 -2q-2 -11 -8 -33q-7 -25 -25 -70q-16 -40 -25 -59l-14 -34l-1 -5l2 2v1q16 20 28 32q45 50 94 77q31 17 57 21
q35 3 60 -19q14 -12 26 -35q9 -19 15 -47q0 -5 2 -13l1 -8q3 -18 3 -35z" />
    <glyph glyph-name="Ntilde" unicode="&#xd1;" horiz-adv-x="450" 
d="M290 726l-4 5q11 18 34 21q19 -3 36 -20q1 -1 8.5 -7.5t16.5 -8.5q13 0 23.5 6t12.5 7q3 0 5 -2q-9 -16 -21.5 -23.5t-26.5 -7.5q-20 0 -33 13q-4 4 -11 9.5t-11 9.5l-15 1q-2 0 -14 -3zM380 584q11 0 20 -7t12 -20l1 -12q0 -6 -2 -16q-9 -33 -21 -67q-15 -46 -50 -123
q-47 -105 -73 -187q-13 -42 -19 -68q-8 -36 -8 -57q0 -10 4 -18q4 -10 14 -15t19 -2l6 2q5 0 5 -4q0 -3 -2.5 -7t-6.5 -5q-8 -2 -13 -2q-14 0 -26 8t-17 22q-3 8 -4 14t-2 10q-2 18 -2 27q0 57 18 111q18 55 44 116q34 82 52 122q23 54 47 129l4 12q1 2 1 7t-1 8l-8 1
q-9 0 -21 -8l-23 -16q-9 -7 -27 -25l-53 -52q-32 -33 -64 -75q-36 -45 -89 -119l-24 -33l-28 -41q-9 -13 -25 -41q-6 -8 -11 -16.5t-10 -16.5q-5 -7 -10 -7q-7 1 -9 4t-1 9q8 27 10 35q5 18 16 44q7 16 8 20q13 29 30 75l25 66q14 39 44 115q36 98 56 163q1 1 3 10h-0.5
t-0.5 1l-24 -14q-50 -32 -92 -52q-41 -19 -94 -32q-35 -6 -68 -6q-20 0 -30 1q-21 2 -32.5 5.5t-12.5 12.5q40 -8 61 -8h4q73 0 131 22q30 11 76 38q16 9 34.5 22t35.5 27q15 13 26 14q8 0 16 -9q5 -7 5 -21q-2 -14 -4 -23q-16 -60 -39 -120l-61 -161l-13 -34l-22 -59
q-1 -3 -3 -7t-1 -9q3 1 6 8q32 43 75 105q14 20 46 58l19 23q43 52 97 101q14 14 36 31q18 13 32 15q3 1 8 1zM58.5 241.5q-0.5 -0.5 0.5 -1.5l1 2q-1 0 -1.5 -0.5z" />
    <glyph glyph-name="Ograve" unicode="&#xd2;" horiz-adv-x="525" 
d="M371 765q-13 15 -15 26q-7 22 -8 39q-2 12 -2 18q0 9 9 12q8 -1 11 -8q6 -14 8 -21q9 -24 11 -41q2 -4 0 -9q0 -3 -2 -15l-5 -5q-6 2 -7 4zM101 -2q-25 0 -46 18q-14 12 -21 25q-16 30 -21 63q-3 17 -3 51q1 22 9 66q13 53 40 123q23 59 51 113q31 59 58 101l52 83l3 7h1
v1l-1 -1l-10 -6q-82 -66 -161 -109q-53 -28 -98 -44q-15 -5 -34 -5q-9 0 -12 1.5t4 2.5q68 18 127 52q41 21 78 48q45 30 83 63l31 30l23 23l17 17l8 1q7 0 11.5 -5.5t2.5 -12.5t-5 -12q-6 -12 -20 -36l-51 -84q-6 -9 -11 -17.5t-9 -14.5q-47 -76 -81 -152q-31 -68 -49 -126
q-16 -49 -22 -85l-3 -31q-2 -12 -2 -18q0 -34 8 -58q8 -30 29 -45q15 -10 29 -10q13 0 25 4.5t21.5 10t12.5 7.5q29 19 51 40q55 50 97 121q22 35 36 65q8 16 11 25l11 24v3q-1 2 -2 2h-2q-37 -9 -78 -7q-28 0 -52 21q-22 19 -32 53q-6 17 -6 35q-2 16 -2 23l4 36
q4 34 20 81q18 48 50 90q20 27 41 40q8 5 19 10q9 4 23 4q28 0 46 -23q13 -17 22 -47q8 -30 8 -58q0 -7 1 -13.5t1 -13.5q-2 -38 -4 -59q-4 -39 -15 -78q-5 -24 -21 -70q-4 -6 -3 -11q2 -2 3.5 -0.5t2.5 1.5q27 7 53 21q23 13 32 30l4 3q3 0 3 -4q-6 -14 -16 -21
q-9 -9 -18 -13q-22 -14 -53 -22q-2 -1 -16 -5l-11 -27q-41 -96 -103 -174q-25 -32 -44 -50q-33 -31 -61 -49q-25 -15 -47 -20q-12 -2 -17 -2zM303 316q9 0 25 2l31 4l17 4l3 7q24 68 33 122q5 27 6 52q2 30 2 44q0 23 -3 44q-3 23 -10 42q-5 15 -13 28l-12 14q-11 11 -28 11
q-4 0 -14 -2q-15 -4 -31 -18q-31 -27 -52 -67q-27 -46 -41 -105q-6 -24 -8 -56v-9q0 -14 1 -21q3 -27 17 -54q23 -41 71 -42h6z" />
    <glyph glyph-name="Oacute" unicode="&#xd3;" horiz-adv-x="525" 
d="M371 757q-2 2 -3 6t-1 5q0 10 4 17q26 40 42 59l3 4q2 1 6 1q5 0 8 -4q2 -7 -1 -12q-3 -13 -11 -26q-10 -21 -13 -25q-12 -16 -17 -25q-1 -1 -7 -4q-7 0 -10 4zM101 -2q-25 0 -46 18q-14 12 -21 25q-16 30 -21 63q-3 17 -3 51q1 22 9 66q13 53 40 123q23 59 51 113
q31 59 58 101l52 83l3 7h1v1l-1 -1l-10 -6q-82 -66 -161 -109q-53 -28 -98 -44q-15 -5 -34 -5q-9 0 -12 1.5t4 2.5q68 18 127 52q41 21 78 48q45 30 83 63l31 30l23 23l17 17l8 1q7 0 11.5 -5.5t2.5 -12.5t-5 -12q-6 -12 -20 -36l-51 -84q-6 -9 -11 -17.5t-9 -14.5
q-47 -76 -81 -152q-31 -68 -49 -126q-16 -49 -22 -85l-3 -31q-2 -12 -2 -18q0 -34 8 -58q8 -30 29 -45q15 -10 29 -10q13 0 25 4.5t21.5 10t12.5 7.5q29 19 51 40q55 50 97 121q22 35 36 65q8 16 11 25l11 24v3q-1 2 -2 2h-2q-37 -9 -78 -7q-28 0 -52 21q-22 19 -32 53
q-6 17 -6 35q-2 16 -2 23l4 36q4 34 20 81q18 48 50 90q20 27 41 40q8 5 19 10q9 4 23 4q28 0 46 -23q13 -17 22 -47q8 -30 8 -58q0 -7 1 -13.5t1 -13.5q-2 -38 -4 -59q-4 -39 -15 -78q-5 -24 -21 -70q-4 -6 -3 -11q2 -2 3.5 -0.5t2.5 1.5q27 7 53 21q23 13 32 30l4 3
q3 0 3 -4q-6 -14 -16 -21q-9 -9 -18 -13q-22 -14 -53 -22q-2 -1 -16 -5l-11 -27q-41 -96 -103 -174q-25 -32 -44 -50q-33 -31 -61 -49q-25 -15 -47 -20q-12 -2 -17 -2zM303 316q9 0 25 2l31 4l17 4l3 7q24 68 33 122q5 27 6 52q2 30 2 44q0 23 -3 44q-3 23 -10 42
q-5 15 -13 28l-12 14q-11 11 -28 11q-4 0 -14 -2q-15 -4 -31 -18q-31 -27 -52 -67q-27 -46 -41 -105q-6 -24 -8 -56v-9q0 -14 1 -21q3 -27 17 -54q23 -41 71 -42h6z" />
    <glyph glyph-name="Ocircumflex" unicode="&#xd4;" horiz-adv-x="525" 
d="M413 734q-2 2 -2 4q-2 5 -9 20t-8 29q0 6 -1 10t-2 7q-1 1 -1 2.5t-1 2.5q-2 0 -6 -4l-41 -41q-8 -8 -13 -10l-4 4l4 8q10 14 14 18q33 41 35 44q3 5 7.5 9t10.5 5q10 -1 13 -12q10 -31 14 -53q0 -2 1.5 -7.5t-0.5 -10.5q-1 -3 -0.5 -5t0.5 -4v-13l-4 -4q-4 -2 -7 1z
M101 -2q-25 0 -46 18q-14 12 -21 25q-16 30 -21 63q-3 17 -3 51q1 22 9 66q13 53 40 123q23 59 51 113q31 59 58 101l52 83l3 7h1v1l-1 -1l-10 -6q-82 -66 -161 -109q-53 -28 -98 -44q-15 -5 -34 -5q-9 0 -12 1.5t4 2.5q68 18 127 52q41 21 78 48q45 30 83 63l31 30l23 23
l17 17l8 1q7 0 11.5 -5.5t2.5 -12.5t-5 -12q-6 -12 -20 -36l-51 -84q-6 -9 -11 -17.5t-9 -14.5q-47 -76 -81 -152q-31 -68 -49 -126q-16 -49 -22 -85l-3 -31q-2 -12 -2 -18q0 -34 8 -58q8 -30 29 -45q15 -10 29 -10q13 0 25 4.5t21.5 10t12.5 7.5q29 19 51 40q55 50 97 121
q22 35 36 65q8 16 11 25l11 24v3q-1 2 -2 2h-2q-37 -9 -78 -7q-28 0 -52 21q-22 19 -32 53q-6 17 -6 35q-2 16 -2 23l4 36q4 34 20 81q18 48 50 90q20 27 41 40q8 5 19 10q9 4 23 4q28 0 46 -23q13 -17 22 -47q8 -30 8 -58q0 -7 1 -13.5t1 -13.5q-2 -38 -4 -59
q-4 -39 -15 -78q-5 -24 -21 -70q-4 -6 -3 -11q2 -2 3.5 -0.5t2.5 1.5q27 7 53 21q23 13 32 30l4 3q3 0 3 -4q-6 -14 -16 -21q-9 -9 -18 -13q-22 -14 -53 -22q-2 -1 -16 -5l-11 -27q-41 -96 -103 -174q-25 -32 -44 -50q-33 -31 -61 -49q-25 -15 -47 -20q-12 -2 -17 -2z
M303 316q9 0 25 2l31 4l17 4l3 7q24 68 33 122q5 27 6 52q2 30 2 44q0 23 -3 44q-3 23 -10 42q-5 15 -13 28l-12 14q-11 11 -28 11q-4 0 -14 -2q-15 -4 -31 -18q-31 -27 -52 -67q-27 -46 -41 -105q-6 -24 -8 -56v-9q0 -14 1 -21q3 -27 17 -54q23 -41 71 -42h6z" />
    <glyph glyph-name="Otilde" unicode="&#xd5;" horiz-adv-x="525" 
d="M366 782.5q-7 5.5 -11 9.5l-15 1q-5 0 -8 -1l-6 -2q-2 4 -4 5q11 18 34 21q18 -3 37 -20q14 -14 25 -16q12 0 22.5 6t12.5 7q2 0 6 -2q-9 -16 -21.5 -23.5t-26.5 -7.5q-21 0 -34 13q-4 4 -11 9.5zM101 -2q-25 0 -46 18q-14 12 -21 25q-16 30 -21 63q-3 17 -3 51
q1 22 9 66q13 53 40 123q23 59 51 113q31 59 58 101l52 83l3 7h1v1l-1 -1l-10 -6q-82 -66 -161 -109q-53 -28 -98 -44q-15 -5 -34 -5q-9 0 -12 1.5t4 2.5q68 18 127 52q41 21 78 48q45 30 83 63l31 30l23 23l17 17l8 1q7 0 11.5 -5.5t2.5 -12.5t-5 -12q-6 -12 -20 -36
l-51 -84q-6 -9 -11 -17.5t-9 -14.5q-47 -76 -81 -152q-31 -68 -49 -126q-16 -49 -22 -85l-3 -31q-2 -12 -2 -18q0 -34 8 -58q8 -30 29 -45q15 -10 29 -10q13 0 25 4.5t21.5 10t12.5 7.5q29 19 51 40q55 50 97 121q22 35 36 65q8 16 11 25l11 24v3q-1 2 -2 2h-2
q-37 -9 -78 -7q-28 0 -52 21q-22 19 -32 53q-6 17 -6 35q-2 16 -2 23l4 36q4 34 20 81q18 48 50 90q20 27 41 40q8 5 19 10q9 4 23 4q28 0 46 -23q13 -17 22 -47q8 -30 8 -58q0 -7 1 -13.5t1 -13.5q-2 -38 -4 -59q-4 -39 -15 -78q-5 -24 -21 -70q-4 -6 -3 -11q2 -2 3.5 -0.5
t2.5 1.5q27 7 53 21q23 13 32 30l4 3q3 0 3 -4q-6 -14 -16 -21q-9 -9 -18 -13q-22 -14 -53 -22q-2 -1 -16 -5l-11 -27q-41 -96 -103 -174q-25 -32 -44 -50q-33 -31 -61 -49q-25 -15 -47 -20q-12 -2 -17 -2zM303 316q9 0 25 2l31 4l17 4l3 7q24 68 33 122q5 27 6 52
q2 30 2 44q0 23 -3 44q-3 23 -10 42q-5 15 -13 28l-12 14q-11 11 -28 11q-4 0 -14 -2q-15 -4 -31 -18q-31 -27 -52 -67q-27 -46 -41 -105q-6 -24 -8 -56v-9q0 -14 1 -21q3 -27 17 -54q23 -41 71 -42h6z" />
    <glyph glyph-name="Odieresis" unicode="&#xd6;" horiz-adv-x="525" 
d="M346 779q-6 0 -11 8l-1 5q2 8 4 12q1 4 7 8q5 4 11 1q12 -5 17 -15q-4 -11 -13 -14l-9 -4zM408 779l10 13q10 2 17 4q1 -1 6.5 -3.5t7.5 -8.5q-6 -15 -16 -22q-5 -3 -8 -3q-6 0 -11 3q-9 5 -6 17zM101 -2q-25 0 -46 18q-14 12 -21 25q-16 30 -21 63q-3 17 -3 51
q1 22 9 66q13 53 40 123q23 59 51 113q31 59 58 101l52 83l3 7h1v1l-1 -1l-10 -6q-82 -66 -161 -109q-53 -28 -98 -44q-15 -5 -34 -5q-9 0 -12 1.5t4 2.5q68 18 127 52q41 21 78 48q45 30 83 63l31 30l23 23l17 17l8 1q7 0 11.5 -5.5t2.5 -12.5t-5 -12q-6 -12 -20 -36
l-51 -84q-6 -9 -11 -17.5t-9 -14.5q-47 -76 -81 -152q-31 -68 -49 -126q-16 -49 -22 -85l-3 -31q-2 -12 -2 -18q0 -34 8 -58q8 -30 29 -45q15 -10 29 -10q13 0 25 4.5t21.5 10t12.5 7.5q29 19 51 40q55 50 97 121q22 35 36 65q8 16 11 25l11 24v3q-1 2 -2 2h-2
q-37 -9 -78 -7q-28 0 -52 21q-22 19 -32 53q-6 17 -6 35q-2 16 -2 23l4 36q4 34 20 81q18 48 50 90q20 27 41 40q8 5 19 10q9 4 23 4q28 0 46 -23q13 -17 22 -47q8 -30 8 -58q0 -7 1 -13.5t1 -13.5q-2 -38 -4 -59q-4 -39 -15 -78q-5 -24 -21 -70q-4 -6 -3 -11q2 -2 3.5 -0.5
t2.5 1.5q27 7 53 21q23 13 32 30l4 3q3 0 3 -4q-6 -14 -16 -21q-9 -9 -18 -13q-22 -14 -53 -22q-2 -1 -16 -5l-11 -27q-41 -96 -103 -174q-25 -32 -44 -50q-33 -31 -61 -49q-25 -15 -47 -20q-12 -2 -17 -2zM303 316q9 0 25 2l31 4l17 4l3 7q24 68 33 122q5 27 6 52
q2 30 2 44q0 23 -3 44q-3 23 -10 42q-5 15 -13 28l-12 14q-11 11 -28 11q-4 0 -14 -2q-15 -4 -31 -18q-31 -27 -52 -67q-27 -46 -41 -105q-6 -24 -8 -56v-9q0 -14 1 -21q3 -27 17 -54q23 -41 71 -42h6z" />
    <glyph glyph-name="multiply" unicode="&#xd7;" horiz-adv-x="175" 
d="M30 215q0 6 7 15l14 17q7 10 7 11l-31 26v11q5 8 12 4l22 -12q6 -2 14 -9l6 5q20 20 37 33q4 4 12 10q4 2 7 2q7 0 10 -8q-1 -9 -12 -20q-14 -16 -28 -31l-8 -9q16 -14 28 -18q4 -2 5 -2q4 -2 4.5 -6t-1.5 -8q-7 -7 -13 -4q-8 2 -14 4l-20 12q-1 0 -8 5l-6 -6l-25 -24
l-8 -7q-10 2 -11 9z" />
    <glyph glyph-name="Oslash" unicode="&#xd8;" horiz-adv-x="525" 
d="M487 381q-6 -14 -16 -21q-9 -9 -18 -13q-22 -14 -53 -22q-2 -1 -16 -5l-11 -27q-41 -96 -103 -174q-25 -32 -44 -50q-33 -31 -61 -49q-25 -15 -47 -20q-12 -2 -17 -2q-17 0 -30 7l-20 -34l-9 -15q-3 -7 -11 -8l-6 3q-1 2 -1 6q0 3 2 9q6 16 10 24l7 17.5t6 13.5
q-8 8 -15 20q-16 30 -21 63q-3 17 -3 51q1 22 9 66q13 53 40 123q23 59 51 113q31 59 58 101l52 83l3 7h1v1l-1 -1l-10 -6q-82 -66 -161 -109q-53 -28 -98 -44q-15 -5 -34 -5q-9 0 -12 1.5t4 2.5q68 18 127 52q41 21 78 48q45 30 83 63l31 30l23 23l17 17l8 1q7 0 11.5 -5.5
t2.5 -12.5t-5 -12q-6 -12 -20 -36l-51 -84q-6 -9 -11 -17.5t-9 -14.5q-47 -76 -81 -152q-31 -68 -49 -126q-16 -49 -22 -85l-3 -31q-2 -12 -2 -18q0 -34 8 -58q6 -18 11 -26l7 17l4 8l52 109l83 166l9 18q-6 11 -9 22q-6 17 -6 35q-2 16 -2 23l4 36q4 34 20 81q18 48 50 90
q20 27 41 40q8 5 19 10q11 4 23 4q14 0 24 -5l5 12q4 10 7 15l3 6q4 4 7 4q9 0 9 -8t-1 -12q-5 -18 -10 -32l2 -3q13 -17 22 -47q8 -30 8 -58q0 -7 1 -13.5t1 -13.5q-2 -38 -4 -59q-4 -39 -15 -78q-5 -24 -21 -70q-4 -6 -3 -11q2 -2 3.5 -0.5t2.5 1.5q27 7 53 21
q23 13 32 30l4 3q3 0 3 -4zM219 373l27 51l92 187q15 30 34 75q-7 4 -17 4q-5 0 -15 -2q-15 -4 -31 -18q-31 -27 -52 -67q-27 -46 -41 -105q-6 -24 -8 -56v-9q0 -14 1 -21q1 -18 10 -39zM412 455q5 27 6 52q2 30 2 44q0 23 -3 44q-3 23 -10 42q-5 15 -13 28l-1 2
q-18 -49 -47 -106l-56 -115l-20 -40q-9 -20 -29 -60l-3 -5q22 -24 59 -25h6q9 0 25 2l31 4l17 4l3 7q24 68 33 122zM371 315q-1 2 -2 2h-2q-37 -9 -78 -7q-28 0 -52 21l-2 2l-93 -184l-41 -85q-10 -23 -21 -41q13 -8 25 -8q13 0 24.5 4.5t21.5 10t14 7.5q29 19 51 40
q55 50 97 121q22 35 36 65q8 16 11 25l11 24v3z" />
    <glyph glyph-name="Ugrave" unicode="&#xd9;" horiz-adv-x="500" 
d="M322 740q-3 12 -4 23q-2 12 -2 17q0 10 9 12q7 0 11 -8l9 -21q8 -25 10 -41q1 -3 1 -9q-2 -8 -2 -14q-3 -1 -6 -6l-4 2t-3 2q-1 2 -7 9.5t-8 16.5q-1 5 -4 17zM422 510q0 -10 -3 -22q-12 -48 -21 -72l-46 -128l-67 -184q-17 -48 -30 -103q-7 -20 -8 -36q-1 -5 -1 -15
q0 -16 6 -26q5 -8 5 -12q0 -6 -8 -6q-15 4 -22 22q-8 24 -8 47q0 40 23 107q9 31 22.5 68t18.5 50l9 25l13 36q14 35 31 85q12 30 20 55q3 5 3 10q2 1 2 5q-2 0 -2 -5q-4 -2 -5 -4q-43 -82 -77 -133q-28 -46 -61 -92q-39 -54 -69 -84q-12 -12 -26 -23.5t-26 -18.5l-19 -9
q-8 -3 -22 -3q-15 2 -26 17l-6 13q-6 17 -7 34q-1 8 -1 24q0 38 10 83q13 52 32 109q32 96 49 143q8 25 20 55l14 39q5 14 18 65q15 65 23 73q5 5 9 5q7 0 10 -12q2 -7 2 -21q-3 -28 -17 -82q-9 -32 -28 -82q-3 -9 -14 -41l-24 -70l-25 -70q-21 -63 -30 -100
q-10 -38 -15 -81q-2 -16 -2 -48q0 -13 4 -22q0 -6 7 -10l10 -3q22 4 42 19q15 10 41 34q32 33 65 78q39 50 65 97q41 68 67 123q30 61 45 107q5 13 15 14q6 0 11 -6q2 -3 4 -11v-7zM362.5 418.5l-1.5 1.5l1 -2q1 0 0.5 0.5z" />
    <glyph glyph-name="Uacute" unicode="&#xda;" horiz-adv-x="500" 
d="M325 705q-4 4 -4 10q0 10 4 17q24 38 41 59l3 4q3 1 7 1q5 0 8 -4q2 -7 -1 -12q-3 -13 -11 -26q-8 -16 -13 -24l-17 -25q-1 -2 -7 -5q-7 0 -10 5zM422 510q0 -10 -3 -22q-12 -48 -21 -72l-46 -128l-67 -184q-17 -48 -30 -103q-7 -20 -8 -36q-1 -5 -1 -15q0 -16 6 -26
q5 -8 5 -12q0 -6 -8 -6q-15 4 -22 22q-8 24 -8 47q0 40 23 107q9 31 22.5 68t18.5 50l9 25l13 36q14 35 31 85q12 30 20 55q3 5 3 10q2 1 2 5q-2 0 -2 -5q-4 -2 -5 -4q-43 -82 -77 -133q-28 -46 -61 -92q-39 -54 -69 -84q-12 -12 -26 -23.5t-26 -18.5l-19 -9q-8 -3 -22 -3
q-15 2 -26 17l-6 13q-6 17 -7 34q-1 8 -1 24q0 38 10 83q13 52 32 109q32 96 49 143q8 25 20 55l14 39q5 14 18 65q15 65 23 73q5 5 9 5q7 0 10 -12q2 -7 2 -21q-3 -28 -17 -82q-9 -32 -28 -82q-3 -9 -14 -41l-24 -70l-25 -70q-21 -63 -30 -100q-10 -38 -15 -81
q-2 -16 -2 -48q0 -13 4 -22q0 -6 7 -10l10 -3q22 4 42 19q15 10 41 34q32 33 65 78q39 50 65 97q41 68 67 123q30 61 45 107q5 13 15 14q6 0 11 -6q2 -3 4 -11v-7zM362.5 418.5l-1.5 1.5l1 -2q1 0 0.5 0.5z" />
    <glyph glyph-name="Ucircumflex" unicode="&#xdb;" horiz-adv-x="500" 
d="M307 709l-5 4l5 9q4 6 14 18q24 28 35 44q8 12 17 13q11 -1 14 -12q9 -31 14 -53q0 -2 1.5 -7.5t-0.5 -10.5q-1 -3 -0.5 -5t0.5 -4v-13l-4 -4q-4 -1 -7 1l-3 4q-2 6 -8.5 21t-7.5 28q-2 10 -4 17l-1 5q-2 0 -3.5 -1t-2.5 -2l-41 -42q-9 -9 -13 -10zM422 510q0 -10 -3 -22
q-12 -48 -21 -72l-46 -128l-67 -184q-17 -48 -30 -103q-7 -20 -8 -36q-1 -5 -1 -15q0 -16 6 -26q5 -8 5 -12q0 -6 -8 -6q-15 4 -22 22q-8 24 -8 47q0 40 23 107q9 31 22.5 68t18.5 50l9 25l13 36q14 35 31 85q12 30 20 55q3 5 3 10q2 1 2 5q-2 0 -2 -5q-4 -2 -5 -4
q-43 -82 -77 -133q-28 -46 -61 -92q-39 -54 -69 -84q-12 -12 -26 -23.5t-26 -18.5l-19 -9q-8 -3 -22 -3q-15 2 -26 17l-6 13q-6 17 -7 34q-1 8 -1 24q0 38 10 83q13 52 32 109q32 96 49 143q8 25 20 55l14 39q5 14 18 65q15 65 23 73q5 5 9 5q7 0 10 -12q2 -7 2 -21
q-3 -28 -17 -82q-9 -32 -28 -82q-3 -9 -14 -41l-24 -70l-25 -70q-21 -63 -30 -100q-10 -38 -15 -81q-2 -16 -2 -48q0 -13 4 -22q0 -6 7 -10l10 -3q22 4 42 19q15 10 41 34q32 33 65 78q39 50 65 97q41 68 67 123q30 61 45 107q5 13 15 14q6 0 11 -6q2 -3 4 -11v-7z
M362.5 418.5l-1.5 1.5l1 -2q1 0 0.5 0.5z" />
    <glyph glyph-name="Udieresis" unicode="&#xdc;" horiz-adv-x="500" 
d="M315 722q-6 0 -11 8q-1 1 -1 2.5t-1 2.5q1 2 4 11q3 7 8 9q6 4 11 1q12 -5 16 -15q-4 -11 -13 -14l-8 -4zM376 722l11 13l17 3l7 -3.5t7 -7.5q-5 -15 -16 -22q-4 -3 -9 -3t-11 3q-9 5 -6 17zM422 510q0 -10 -3 -22q-12 -48 -21 -72l-46 -128l-67 -184q-17 -48 -30 -103
q-7 -20 -8 -36q-1 -5 -1 -15q0 -16 6 -26q5 -8 5 -12q0 -6 -8 -6q-15 4 -22 22q-8 24 -8 47q0 40 23 107q9 31 22.5 68t18.5 50l9 25l13 36q14 35 31 85q12 30 20 55q3 5 3 10q2 1 2 5q-2 0 -2 -5q-4 -2 -5 -4q-43 -82 -77 -133q-28 -46 -61 -92q-39 -54 -69 -84
q-12 -12 -26 -23.5t-26 -18.5l-19 -9q-8 -3 -22 -3q-15 2 -26 17l-6 13q-6 17 -7 34q-1 8 -1 24q0 38 10 83q13 52 32 109q32 96 49 143q8 25 20 55l14 39q5 14 18 65q15 65 23 73q5 5 9 5q7 0 10 -12q2 -7 2 -21q-3 -28 -17 -82q-9 -32 -28 -82q-3 -9 -14 -41l-24 -70
l-25 -70q-21 -63 -30 -100q-10 -38 -15 -81q-2 -16 -2 -48q0 -13 4 -22q0 -6 7 -10l10 -3q22 4 42 19q15 10 41 34q32 33 65 78q39 50 65 97q41 68 67 123q30 61 45 107q5 13 15 14q6 0 11 -6q2 -3 4 -11v-7zM362.5 418.5l-1.5 1.5l1 -2q1 0 0.5 0.5z" />
    <glyph glyph-name="Yacute" unicode="&#xdd;" horiz-adv-x="475" 
d="M348 684q-3 5 -3 11q0 10 4 17q26 40 41 58q3 3 3 5q3 1 7 1q5 0 8 -4v-4q0 -5 -1 -9q-3 -11 -11 -25l-13 -25q-12 -16 -17 -25l-7 -5q-7 1 -11 5zM457 586v-2l-5 -19l-19 -55q-15 -41 -29 -84l-6 -20l-14 -44l-8 -25l-13 -38q-14 -44 -27 -79q-21 -59 -55 -121
q-27 -48 -58 -83q-30 -36 -67 -62q-45 -31 -90 -39q-13 -3 -25 -3q-28 0 -53 14q-33 19 -33 57q0 27 11 52q18 39 55 70q35 29 83 46l10 3q16 6 73 25l41 12q10 2 15 4h2.5t4.5 -3v-1l-2 -3q-4 -2 -12 -4q-80 -23 -140 -46q-58 -22 -102 -72q-24 -30 -30 -68q-1 -4 -1 -11
q0 -11 3 -20q5 -15 16 -22q13 -10 35 -16q12 -2 16 -2q15 0 35 6q26 8 50 25q21 12 42 33q37 35 72 91q22 34 43 79q14 29 36 86q13 36 41 126q5 14 8 25q2 5 7 22l10 28l10 31l1 6v1l-3 -3v-1l-14 -23l-28 -47q-33 -54 -69 -102q-23 -31 -49 -57q-28 -26 -45 -35
q-18 -10 -30 -10q-20 0 -30 17q-7 12 -9 24q0 4 -1 5q-1 6 -1 18q0 9 1 13q1 5 1 15q1 4 1 12q3 19 12 52q22 82 51 154l16 36l8 17l6 14l9 19v1q3 3 1 4h-1l-17 -14q-80 -68 -179 -100q-21 -7 -63 -14l-9 -1q-7 0 -7 2t5 4t11 3q35 4 83 21q36 12 79 38q48 29 84 67l15 16
l12 11l4.5 4.5t8.5 4.5q7 -1 11 -7q2 -3 2 -11q0 -5 -2 -15q-8 -27 -22 -59q-4 -9 -5 -11l-27 -61q-21 -55 -35 -106q-11 -36 -23 -95q-4 -17 -5 -28q0 -4 -1 -7q0 -11 3 -20q5 -13 19 -11q2 1 16 5q16 7 38 26q25 23 50 56q47 64 94 143q41 69 58 104q3 6 5.5 12.5
t5.5 11.5l5 11l1 3q3 6 4 7q2 5 6 6q4 2 6 2q4 0 9 -5q5 -9 3 -16z" />
    <glyph glyph-name="Thorn" unicode="&#xde;" horiz-adv-x="600" 
 />
    <glyph glyph-name="germandbls" unicode="&#xdf;" horiz-adv-x="366" 
d="M64 388l-62 -181l-4 -12l-6 -15q-11 -29 -33 -86q-17 -42 -35 -76q-18 -36 -43 -68q-23 -29 -53 -51q-15 -11 -32 -16q-8 -2 -17 -3l-3 9q9 0 17 4q16 6 28 17q21 18 36 41q20 28 36 59q65 146 74 173l4 10q11 30 28.5 74t22.5 59l31 92q1 7 4 21t5.5 30t4.5 24
q2 12 2 24l0.5 2.5t0.5 5v3.5q1 3 0 6q0 3 2 8.5t4 6.5q1 1 3 1l1 1h1q4 -1 5 -2q1 -4 1 -5q0 -8 1 -19q0 -11 -4.5 -39t-4.5 -35l3 -1q12 32 35 58q14 15 28 28q24 22 54 35q34 19 69 0q23 -16 20 -44q0 -9 -3 -16q-6 -21 -18 -39q-12 -16 -25 -30q-14 -14 -33 -30
q-26 -22 -55 -40l-1 -0.5l-1 -0.5h19q7 0 13 -2q4 -1 8 0q2 0 4 -1q4 0 8 -1l3 -1q19 -4 35 -16q16 -15 22 -37q2 -6 2 -7q2 -7 4 -12v-2v-0.5v-2v-1.5v-1q2 -3 3 -6q3 -17 1 -34q-3 -35 -20 -66q-12 -21 -26 -40q-5 -7 -11 -13q-9 -8 -11 -10l-3.5 -3.5l-3.5 -3.5
q-34 -29 -76 -45q-18 -8 -38 -8h-13q-2 1 -5 2q-4 0 -9 2q-16 5 -28 16q-17 16 -14 39v4q1 10 6 18q9 13 20 24q19 16 41 26l4 2q3 1 6 3q8 3 16 5q3 1 5 2q1 0 1.5 1t1.5 1q2 0 3.5 0.5t4 1t4.5 0.5t8.5 1.5t8.5 2t4 0.5h2h2l3 1l1 -0.5t1 0.5q5 0 5 -3q1 -2 0 -2h1l-1 -1
q-13 -5 -27 -6l-2 -0.5l-4 -1t-4 -0.5q-4 0 -8 -1q-2 -1 -4 -1.5t-4.5 -1.5t-4.5 -2q-8 -2 -17 -6q-15 -7 -28 -17q-8 -7 -14 -15q-1 -1 -2 -3q-5 -6 -8 -13q-1 -1 -1.5 -2.5t-0.5 -2.5q-2 -4 -3 -9q-1 -7 1 -15q4 -6 10 -11q5 -4 11 -6q3 -1 6 -2.5t7 -2.5h3h3t3 -1h1h9
q5 -1 10 0q25 6 48 18q0 1 2.5 2t5.5 3t5 3q10 7 19 15q20 17 37 39q13 16 22 36q13 25 17 53q3 16 2 31q0 2 -0.5 6l-1 8t-0.5 6q0 32 -27 48q-12 7 -26 9q-11 2 -22 3h-18q-13 -2 -25 -6q-1 -1 -2 -1q-2 0 -4 -1l-1 -1h-1q-2 -1 -4 -1h-1l-1.5 -1t-2.5 -1q-2 -1 -3 -2
q-3 -1 -5 0h-1v-1h-1q-9 1 -9 6v1.5t-0.5 0.5t-0.5 1v1h-1q-3 5 7 10l8 4l2 2t2 1.5t3 2.5q38 25 64 44q8 5 37 31q19 18 34 39q9 14 14 31q2 6 2 12q1 3 0 5l-2 5q-3 11 -13 16q-2 1 -5 1q-5 3 -11 3h-6h-3t-4 -1q-42 -11 -75 -40q-21 -18 -36 -41q-31 -44 -50 -96z" />
    <glyph glyph-name="agrave" unicode="&#xe0;" horiz-adv-x="235" 
d="M8 308q-1 7 -4.5 17.5t-5.5 19.5q1 9 9 9l5 -5q10 -17 12 -29q2 -6 2 -10q0 -6 -8 -8q-10 0 -10 6zM-20 128q-1 8 1 23t6 27l4 13q-1 1 -2 0t-2 -1l-25 -21l-9 -6q-6 -2 -9 -2q-13 0 -14 15q-2 8 -2 11q0 4 2 10q7 28 19 43q17 25 43 29q3 1 9 1q7 0 15 -3q11 -3 18 -16
q1 -2 0 -3.5t-3 -0.5l-5 4q-7 5 -13 5q-5 0 -13 -5q-10 -4 -23 -19q-20 -28 -27 -57q2 -2 4 0q7 3 14.5 8.5t11.5 8.5q7 7 11 9q7 7 11 14q1 2 8 14q2 2 6 4q5 5 10 3q6 0 9 -7q-1 -7 -4 -16t-4 -13l-15 -40v0l-7 -22q-2 -10 -1 -17q6 -12 16 -12q14 0 37 19t59 55
q40 39 65 60t45 26h1q6 0 6 -4q0 -3 -6 -5q-16 -5 -38 -24t-55 -53q-42 -43 -71 -66.5t-50 -23.5q-19 0 -29 20q-2 3 -4 15z" />
    <glyph glyph-name="aacute" unicode="&#xe1;" horiz-adv-x="235" 
d="M17 299q-6 0 -8.5 4t-0.5 9q0 1 5 8l15 18q7 9 16 10q7 -2 8 -7q3 -5 -1 -9l-9 -12l-19 -19l-4 -2h-2zM-20 128q-1 8 1 23t6 27l4 13q-1 1 -2 0t-2 -1l-25 -21l-9 -6q-6 -2 -9 -2q-13 0 -14 15q-2 8 -2 11q0 4 2 10q7 28 19 43q17 25 43 29q3 1 9 1q7 0 15 -3
q11 -3 18 -16q1 -2 0 -3.5t-3 -0.5l-5 4q-7 5 -13 5q-5 0 -13 -5q-10 -4 -23 -19q-20 -28 -27 -57q2 -2 4 0q7 3 14.5 8.5t11.5 8.5q7 7 11 9q7 7 11 14q1 2 8 14q2 2 6 4q5 5 10 3q6 0 9 -7q-1 -7 -4 -16t-4 -13l-15 -40v0l-7 -22q-2 -10 -1 -17q6 -12 16 -12q14 0 37 19
t59 55q40 39 65 60t45 26h1q6 0 6 -4q0 -3 -6 -5q-16 -5 -38 -24t-55 -53q-42 -43 -71 -66.5t-50 -23.5q-19 0 -29 20q-2 3 -4 15z" />
    <glyph glyph-name="acircumflex" unicode="&#xe2;" horiz-adv-x="235" 
d="M37 297q-3 5 -3 11q-1 6 -1 20l-5 -3q-5 -5 -15 -13q-2 -2 -3.5 -2t-2.5 -1q-5 0 -5 5q1 1 1 2t2 2l30 29q2 2 5 2q9 -1 9 -10q1 -4 1 -14q0 -17 -1 -25q0 -2 -4 -7q-7 -2 -8 4zM-20 128q-1 8 1 23t6 27l4 13q-1 1 -2 0t-2 -1l-25 -21l-9 -6q-6 -2 -9 -2q-13 0 -14 15
q-2 8 -2 11q0 4 2 10q7 28 19 43q17 25 43 29q3 1 9 1q7 0 15 -3q11 -3 18 -16q1 -2 0 -3.5t-3 -0.5l-5 4q-7 5 -13 5q-5 0 -13 -5q-10 -4 -23 -19q-20 -28 -27 -57q2 -2 4 0q7 3 14.5 8.5t11.5 8.5q7 7 11 9q7 7 11 14q1 2 8 14q2 2 6 4q5 5 10 3q6 0 9 -7q-1 -7 -4 -16
t-4 -13l-15 -40v0l-7 -22q-2 -10 -1 -17q6 -12 16 -12q14 0 37 19t59 55q40 39 65 60t45 26h1q6 0 6 -4q0 -3 -6 -5q-16 -5 -38 -24t-55 -53q-42 -43 -71 -66.5t-50 -23.5q-19 0 -29 20q-2 3 -4 15z" />
    <glyph glyph-name="atilde" unicode="&#xe3;" horiz-adv-x="235" 
d="M8.5 315q-4.5 4 -7.5 5q-4 1 -10 0q-5 0 -9 -2q-4 0 -2 4q3 7 9 11t12 4q11 0 24 -13q11 -11 17 -11h1q4 0 11 3.5t11 6.5q3 2 4 1.5t0 -2.5q-6 -12 -14.5 -18t-17.5 -6q-14 0 -21 9q-3 4 -7.5 8zM-20 128q-1 8 1 23t6 27l4 13q-1 1 -2 0t-2 -1l-25 -21l-9 -6
q-6 -2 -9 -2q-13 0 -14 15q-2 8 -2 11q0 4 2 10q7 28 19 43q17 25 43 29q3 1 9 1q7 0 15 -3q11 -3 18 -16q1 -2 0 -3.5t-3 -0.5l-5 4q-7 5 -13 5q-5 0 -13 -5q-10 -4 -23 -19q-20 -28 -27 -57q2 -2 4 0q7 3 14.5 8.5t11.5 8.5q7 7 11 9q7 7 11 14q1 2 8 14q2 2 6 4q5 5 10 3
q6 0 9 -7q-1 -7 -4 -16t-4 -13l-15 -40v0l-7 -22q-2 -10 -1 -17q6 -12 16 -12q14 0 37 19t59 55q40 39 65 60t45 26h1q6 0 6 -4q0 -3 -6 -5q-16 -5 -38 -24t-55 -53q-42 -43 -71 -66.5t-50 -23.5q-19 0 -29 20q-2 3 -4 15z" />
    <glyph glyph-name="adieresis" unicode="&#xe4;" horiz-adv-x="235" 
d="M-12 311q-2 4 -1 8q1 9 13 11q3 0 3 -1q10 0 10 -8q0 -9 -10 -13q-8 -2 -10 -2q-3 1 -5 5zM32 305q1 6 4.5 10t8.5 4q8 0 12 -11v-2q0 -6 -6 -9.5t-13 -1.5q-6 2 -6 10zM-20 128q-1 8 1 23t6 27l4 13q-1 1 -2 0t-2 -1l-25 -21l-9 -6q-6 -2 -9 -2q-13 0 -14 15q-2 8 -2 11
q0 4 2 10q7 28 19 43q17 25 43 29q3 1 9 1q7 0 15 -3q11 -3 18 -16q1 -2 0 -3.5t-3 -0.5l-5 4q-7 5 -13 5q-5 0 -13 -5q-10 -4 -23 -19q-20 -28 -27 -57q2 -2 4 0q7 3 14.5 8.5t11.5 8.5q7 7 11 9q7 7 11 14q1 2 8 14q2 2 6 4q5 5 10 3q6 0 9 -7q-1 -7 -4 -16t-4 -13
l-15 -40v0l-7 -22q-2 -10 -1 -17q6 -12 16 -12q14 0 37 19t59 55q40 39 65 60t45 26h1q6 0 6 -4q0 -3 -6 -5q-16 -5 -38 -24t-55 -53q-42 -43 -71 -66.5t-50 -23.5q-19 0 -29 20q-2 3 -4 15z" />
    <glyph glyph-name="aring" unicode="&#xe5;" horiz-adv-x="235" 
d="M5 318l-2 4q0 9 5 14.5t15 9.5q7 0 11 -1q3 0 4.5 -1t3.5 -2q0 -2 2 -6q3 -4 3 -10q0 -5 -3 -11q-2 -5 -7.5 -8t-11.5 -3q-15 0 -20 14zM36 321q1 6 -1 11q-9 -2 -17 -14q2 -5 9 -5q6 1 9 8zM-20 128q-1 8 1 23t6 27l4 13q-1 1 -2 0t-2 -1l-25 -21l-9 -6q-6 -2 -9 -2
q-13 0 -14 15q-2 8 -2 11q0 4 2 10q7 28 19 43q17 25 43 29q3 1 9 1q7 0 15 -3q11 -3 18 -16q1 -2 0 -3.5t-3 -0.5l-5 4q-7 5 -13 5q-5 0 -13 -5q-10 -4 -23 -19q-20 -28 -27 -57q2 -2 4 0q7 3 14.5 8.5t11.5 8.5q7 7 11 9q7 7 11 14q1 2 8 14q2 2 6 4q5 5 10 3q6 0 9 -7
q-1 -7 -4 -16t-4 -13l-15 -40v0l-7 -22q-2 -10 -1 -17q6 -12 16 -12q14 0 37 19t59 55q40 39 65 60t45 26h1q6 0 6 -4q0 -3 -6 -5q-16 -5 -38 -24t-55 -53q-42 -43 -71 -66.5t-50 -23.5q-19 0 -29 20q-2 3 -4 15z" />
    <glyph glyph-name="ae" unicode="&#xe6;" horiz-adv-x="297" 
d="M291 299q3 0 4 -3t-2 -7q-23 -27 -63.5 -57t-84 -50.5t-74.5 -20.5q-38 0 -46 32q-5 -11 -13 -33l-7 -22q-2 -10 -1 -17q2 -6 2 -7q0 -8 -10 -8q-9 0 -12 7q-2 3 -4 15q-1 8 1 23t6 27l4 13q-1 1 -2 0t-2 -1l-25 -21l-9 -6q-6 -2 -9 -2q-13 0 -14 15q-2 8 -2 11q0 4 2 10
q7 28 19 43q17 25 43 29q3 1 9 1q7 0 15 -3q8 -2 12 -7q11 31 38 58q3 4 19 15q10 7 21 4q7 -4 8 -12q1 -12 -3.5 -21t-14.5 -22q-9 -9 -18.5 -14.5t-16.5 -5.5v-1q-11 -22 -11 -56q4 -27 34 -27q26 0 65.5 20t78 48t58.5 51q2 2 5 2zM65 272q15 3 27 19q17 27 11 29
q-4 1 -8 -3q-18 -18 -29 -43zM16 233q3 3 7 3l3 15q-7 5 -13 5q-5 0 -13 -5q-10 -4 -23 -19q-20 -28 -27 -57q2 -2 4 0q7 3 14.5 8.5t11.5 8.5q7 7 11 9q7 7 11 14q1 2 8 14q2 2 6 4z" />
    <glyph glyph-name="ccedilla" unicode="&#xe7;" 
d="M191 268q3 0 4 -3t-2 -7q-18 -25 -64 -63t-94.5 -67.5t-76.5 -33.5v-1q2 -13 -6.5 -25.5t-19.5 -16.5q-6 -3 -13 -1q-9 3 -11 13v12q0 5 6 6l2 -2q0 -11 4 -15q5 -2 8 0q14 6 20 20q1 2 1 4.5t1 3.5v2h-3q-8 0 -11 1l-3 -2q-3 -1 -7 -1q-3 0 -4.5 2.5t-2.5 6.5l2 6l-1 3
q-7 12 -7 22q-2 38 8 62q14 38 45 62l18 11q4 2 7 2q3 1 8 1q11 0 18 -10q5 -9 6 -19v-5q0 -12 -5 -24l-3 -4q-2 -2 -3.5 -1.5t-0.5 3.5q1 8 1 22v3q0 9 -7 16q-5 1 -8 -2q-16 -14 -23 -26q-25 -42 -32 -64q-1 -4 -3 -10t-3 -14v-3v1q5 2 8 0l1 -2l1 -7q0 -3 -2 -9
q0 -3 -1 -4q18 -5 67 21.5t101.5 66t76.5 68.5q1 1 3 1z" />
    <glyph glyph-name="egrave" unicode="&#xe8;" horiz-adv-x="247" 
d="M58 413q-1 7 -4.5 17.5t-5.5 19.5q1 9 9 9l5 -5q10 -17 12 -29q2 -6 2 -10q0 -6 -8 -8q-10 0 -10 6zM-36 195q0 54 44 98q3 4 19 15q10 7 21 4q3 -2 6 -4.5t2 -7.5q-2 -19 -10.5 -26t-28.5 -12l-14 -26q-11 -22 -11 -56q4 -27 33 -27q38 0 103 38t111 76q4 2 7 0t0 -6
q-24 -23 -67.5 -52.5t-89 -50t-77.5 -20.5q-40 0 -47 37q-3 10 -1 20zM42 282q7 9 3 13q-4 1 -8 -3q-2 -3 -6.5 -7.5t-10.5 -13.5q15 2 22 11z" />
    <glyph glyph-name="eacute" unicode="&#xe9;" horiz-adv-x="247" 
d="M74 404q-6 0 -8.5 4t-0.5 9q0 1 5 8l15 18q7 9 16 10q7 -2 8 -7q3 -5 -1 -9l-9 -12l-19 -19l-4 -2h-2zM-36 195q0 54 44 98q3 4 19 15q10 7 21 4q3 -2 6 -4.5t2 -7.5q-2 -19 -10.5 -26t-28.5 -12l-14 -26q-11 -22 -11 -56q4 -27 33 -27q38 0 103 38t111 76q4 2 7 0t0 -6
q-24 -23 -67.5 -52.5t-89 -50t-77.5 -20.5q-40 0 -47 37q-3 10 -1 20zM42 282q7 9 3 13q-4 1 -8 -3q-2 -3 -6.5 -7.5t-10.5 -13.5q15 2 22 11z" />
    <glyph glyph-name="ecircumflex" unicode="&#xea;" horiz-adv-x="247" 
d="M88 397q-3 5 -3 11q-1 6 -1 20l-5 -3q-5 -5 -15 -13q-2 -2 -3.5 -2t-2.5 -1q-5 0 -5 5q1 1 1 2t2 2l30 29q2 2 5 2q9 -1 9 -10q1 -4 1 -14q0 -17 -1 -25q0 -2 -4 -7q-7 -2 -8 4zM-36 195q0 54 44 98q3 4 19 15q10 7 21 4q3 -2 6 -4.5t2 -7.5q-2 -19 -10.5 -26t-28.5 -12
l-14 -26q-11 -22 -11 -56q4 -27 33 -27q38 0 103 38t111 76q4 2 7 0t0 -6q-24 -23 -67.5 -52.5t-89 -50t-77.5 -20.5q-40 0 -47 37q-3 10 -1 20zM42 282q7 9 3 13q-4 1 -8 -3q-2 -3 -6.5 -7.5t-10.5 -13.5q15 2 22 11z" />
    <glyph glyph-name="edieresis" unicode="&#xeb;" horiz-adv-x="247" 
d="M46 420q-2 4 -1 8q1 9 13 11q3 0 3 -1q10 0 10 -8q0 -9 -10 -13q-8 -2 -10 -2q-3 1 -5 5zM90 414q1 6 4.5 10t8.5 4q8 0 12 -11v-2q0 -6 -6 -9.5t-13 -1.5q-6 2 -6 10zM-36 195q0 54 44 98q3 4 19 15q10 7 21 4q3 -2 6 -4.5t2 -7.5q-2 -19 -10.5 -26t-28.5 -12l-14 -26
q-11 -22 -11 -56q4 -27 33 -27q38 0 103 38t111 76q4 2 7 0t0 -6q-24 -23 -67.5 -52.5t-89 -50t-77.5 -20.5q-40 0 -47 37q-3 10 -1 20zM42 282q7 9 3 13q-4 1 -8 -3q-2 -3 -6.5 -7.5t-10.5 -13.5q15 2 22 11z" />
    <glyph glyph-name="igrave" unicode="&#xec;" horiz-adv-x="164" 
d="M5 348q-1 7 -4.5 17.5t-5.5 19.5q1 9 9 9l5 -5q10 -17 12 -29q2 -6 2 -10q0 -6 -8 -8q-10 0 -10 6zM-26 150q-9 0 -14.5 4t-10.5 13q-5 13 -5 25q0 7 1 11q5 40 32 82q9 13 19 16q3 1 7 -3q3 -1 3 -6t-4 -15l-19 -49q-8 -24 -11 -36q-2 -8 -2 -10l2 -12q3 -4 8 -4
q12 1 27.5 11t49.5 35q36 28 60 42.5t43 14.5q5 0 5.5 -4.5t-4.5 -4.5q-17 0 -38.5 -14t-53.5 -41q-30 -25 -49 -38t-36 -16q-4 -1 -10 -1z" />
    <glyph glyph-name="iacute" unicode="&#xed;" horiz-adv-x="164" 
d="M17 334q-6 0 -8.5 4t-0.5 9q0 1 5 8l15 18q7 9 16 10q7 -2 8 -7q3 -5 -1 -9l-9 -12l-19 -19l-4 -2h-2zM-26 150q-9 0 -14.5 4t-10.5 13q-5 13 -5 25q0 7 1 11q5 40 32 82q9 13 19 16q3 1 7 -3q3 -1 3 -6t-4 -15l-19 -49q-8 -24 -11 -36q-2 -8 -2 -10l2 -12q3 -4 8 -4
q12 1 27.5 11t49.5 35q36 28 60 42.5t43 14.5q5 0 5.5 -4.5t-4.5 -4.5q-17 0 -38.5 -14t-53.5 -41q-30 -25 -49 -38t-36 -16q-4 -1 -10 -1z" />
    <glyph glyph-name="icircumflex" unicode="&#xee;" horiz-adv-x="164" 
d="M29 328q-3 5 -3 11q-1 6 -1 20l-5 -3q-5 -5 -15 -13q-2 -2 -3.5 -2t-2.5 -1q-5 0 -5 5q1 1 1 2t2 2l30 29q2 2 5 2q9 -1 9 -10q1 -4 1 -14q0 -17 -1 -25q0 -2 -4 -7q-7 -2 -8 4zM-26 150q-9 0 -14.5 4t-10.5 13q-5 13 -5 25q0 7 1 11q5 40 32 82q9 13 19 16q3 1 7 -3
q3 -1 3 -6t-4 -15l-19 -49q-8 -24 -11 -36q-2 -8 -2 -10l2 -12q3 -4 8 -4q12 1 27.5 11t49.5 35q36 28 60 42.5t43 14.5q5 0 5.5 -4.5t-4.5 -4.5q-17 0 -38.5 -14t-53.5 -41q-30 -25 -49 -38t-36 -16q-4 -1 -10 -1z" />
    <glyph glyph-name="idieresis" unicode="&#xef;" horiz-adv-x="164" 
d="M-12 349q-2 4 -1 8q1 9 13 11q3 0 3 -1q10 0 10 -8q0 -9 -10 -13q-8 -2 -10 -2q-3 1 -5 5zM32 343q1 6 4.5 10t8.5 4q8 0 12 -11v-2q0 -6 -6 -9.5t-13 -1.5q-6 2 -6 10zM-26 150q-9 0 -14.5 4t-10.5 13q-5 13 -5 25q0 7 1 11q5 40 32 82q9 13 19 16q3 1 7 -3q3 -1 3 -6
t-4 -15l-19 -49q-8 -24 -11 -36q-2 -8 -2 -10l2 -12q3 -4 8 -4q12 1 27.5 11t49.5 35q36 28 60 42.5t43 14.5q5 0 5.5 -4.5t-4.5 -4.5q-17 0 -38.5 -14t-53.5 -41q-30 -25 -49 -38t-36 -16q-4 -1 -10 -1z" />
    <glyph glyph-name="eth" unicode="&#xf0;" horiz-adv-x="600" 
 />
    <glyph glyph-name="ntilde" unicode="&#xf1;" horiz-adv-x="375" 
d="M77.5 349q-4.5 4 -7.5 5q-4 1 -10 0q-5 0 -9 -2q-4 0 -2 4q3 7 9 11t12 4q11 0 24 -13q11 -11 17 -11h1q4 0 11 3.5t11 6.5q3 2 4 1.5t0 -2.5q-6 -12 -14.5 -18t-17.5 -6q-14 0 -21 9q-3 4 -7.5 8zM46 -35q-4 6 -5 10q-8 19 -6 47q3 29 12 58q8 27 19 48q11 24 29 74l2 7
l-6 1q-20 -5 -37 -16q-20 -14 -36 -30q-18 -15 -34 -31l-12 -9q-2 -2 -7 -2q-6 0 -9 6q-2 2 -4 12q0 17 6 32l19 51l6 16q2 12 5 20t9 10h2q10 0 14 -24q0 -15 -2 -23q-6 -22 -19 -56q-4 -8 -3 -10h-1v-1l1 1q4 1 8.5 5t6.5 6l33 30q19 18 40 26q14 8 28 8q9 0 15.5 -5.5
t7.5 -15.5v-5q0 -6 -2 -14q-12 -40 -26 -70q-22 -48 -36 -103q-6 -15 -4 -35q0 -5 1 -8l3 -5q27 1 61 37t88 107q52 69 86.5 107t64.5 47h3q6 0 7 -4t-5 -7q-25 -8 -56 -43t-82 -102q-61 -79 -98 -118.5t-66 -39.5q-13 0 -21 11z" />
    <glyph glyph-name="ograve" unicode="&#xf2;" horiz-adv-x="213" 
d="M32 343q-1 7 -4.5 17.5t-5.5 19.5q1 9 9 9l5 -5q10 -17 12 -29q2 -6 2 -10q0 -6 -8 -8q-10 0 -10 6zM-37 199q-1 32 19 59l7 8q7 6 18 4q4 -1 6.5 -4.5t1.5 -7.5q0 -4 -1 -7t-2 -5l-18 -39l-6 -11q-1 -3 -1 -7q2 -4 6 -2q8 3 16 9q34 29 42 72q-1 3 -3.5 4.5t-3.5 2.5
q-8 8 -8 18q0 5 5 8q6 2 10 -1q7 -4 9 -13q1 -2 1.5 -6.5t1.5 -6.5q12 -9 35.5 -14t48.5 -5q39 0 57 11q5 2 7.5 0.5t-1.5 -5.5q-24 -14 -66 -14q-25 0 -48.5 5t-34.5 12q-1 -1 -3 -6q-8 -33 -39 -68q-7 -7 -21 -15q-8 -4 -19 -2q-14 6 -16 26zM51.5 287.5
q-1.5 1.5 -4.5 0.5l4 -4q2 2 0.5 3.5z" />
    <glyph glyph-name="oacute" unicode="&#xf3;" horiz-adv-x="213" 
d="M47 340q-6 0 -8.5 4t-0.5 9q0 1 5 8l15 18q7 9 16 10q7 -2 8 -7q3 -5 -1 -9l-9 -12l-19 -19l-4 -2h-2zM-37 199q-1 32 19 59l7 8q7 6 18 4q4 -1 6.5 -4.5t1.5 -7.5q0 -4 -1 -7t-2 -5l-18 -39l-6 -11q-1 -3 -1 -7q2 -4 6 -2q8 3 16 9q34 29 42 72q-1 3 -3.5 4.5t-3.5 2.5
q-8 8 -8 18q0 5 5 8q6 2 10 -1q7 -4 9 -13q1 -2 1.5 -6.5t1.5 -6.5q12 -9 35.5 -14t48.5 -5q39 0 57 11q5 2 7.5 0.5t-1.5 -5.5q-24 -14 -66 -14q-25 0 -48.5 5t-34.5 12q-1 -1 -3 -6q-8 -33 -39 -68q-7 -7 -21 -15q-8 -4 -19 -2q-14 6 -16 26zM51.5 287.5
q-1.5 1.5 -4.5 0.5l4 -4q2 2 0.5 3.5z" />
    <glyph glyph-name="ocircumflex" unicode="&#xf4;" horiz-adv-x="213" 
d="M57 336q-3 5 -3 11q-1 6 -1 20l-5 -3q-5 -5 -15 -13q-2 -2 -3.5 -2t-2.5 -1q-5 0 -5 5q1 1 1 2t2 2l30 29q2 2 5 2q9 -1 9 -10q1 -4 1 -14q0 -17 -1 -25q0 -2 -4 -7q-7 -2 -8 4zM-37 199q-1 32 19 59l7 8q7 6 18 4q4 -1 6.5 -4.5t1.5 -7.5q0 -4 -1 -7t-2 -5l-18 -39
l-6 -11q-1 -3 -1 -7q2 -4 6 -2q8 3 16 9q34 29 42 72q-1 3 -3.5 4.5t-3.5 2.5q-8 8 -8 18q0 5 5 8q6 2 10 -1q7 -4 9 -13q1 -2 1.5 -6.5t1.5 -6.5q12 -9 35.5 -14t48.5 -5q39 0 57 11q5 2 7.5 0.5t-1.5 -5.5q-24 -14 -66 -14q-25 0 -48.5 5t-34.5 12q-1 -1 -3 -6
q-8 -33 -39 -68q-7 -7 -21 -15q-8 -4 -19 -2q-14 6 -16 26zM51.5 287.5q-1.5 1.5 -4.5 0.5l4 -4q2 2 0.5 3.5z" />
    <glyph glyph-name="otilde" unicode="&#xf5;" horiz-adv-x="213" 
d="M31.5 349q-4.5 4 -7.5 5q-4 1 -10 0q-5 0 -9 -2q-4 0 -2 4q3 7 9 11t12 4q11 0 24 -13q11 -11 17 -11h1q4 0 11 3.5t11 6.5q3 2 4 1.5t0 -2.5q-6 -12 -14.5 -18t-17.5 -6q-14 0 -21 9q-3 4 -7.5 8zM-37 199q-1 32 19 59l7 8q7 6 18 4q4 -1 6.5 -4.5t1.5 -7.5q0 -4 -1 -7
t-2 -5l-18 -39l-6 -11q-1 -3 -1 -7q2 -4 6 -2q8 3 16 9q34 29 42 72q-1 3 -3.5 4.5t-3.5 2.5q-8 8 -8 18q0 5 5 8q6 2 10 -1q7 -4 9 -13q1 -2 1.5 -6.5t1.5 -6.5q12 -9 35.5 -14t48.5 -5q39 0 57 11q5 2 7.5 0.5t-1.5 -5.5q-24 -14 -66 -14q-25 0 -48.5 5t-34.5 12
q-1 -1 -3 -6q-8 -33 -39 -68q-7 -7 -21 -15q-8 -4 -19 -2q-14 6 -16 26zM51.5 287.5q-1.5 1.5 -4.5 0.5l4 -4q2 2 0.5 3.5z" />
    <glyph glyph-name="odieresis" unicode="&#xf6;" horiz-adv-x="213" 
d="M10 341q-2 4 -1 8q1 9 13 11q3 0 3 -1q10 0 10 -8q0 -9 -10 -13q-8 -2 -10 -2q-3 1 -5 5zM54 335q1 6 4.5 10t8.5 4q8 0 12 -11v-2q0 -6 -6 -9.5t-13 -1.5q-6 2 -6 10zM-37 199q-1 32 19 59l7 8q7 6 18 4q4 -1 6.5 -4.5t1.5 -7.5q0 -4 -1 -7t-2 -5l-18 -39l-6 -11
q-1 -3 -1 -7q2 -4 6 -2q8 3 16 9q34 29 42 72q-1 3 -3.5 4.5t-3.5 2.5q-8 8 -8 18q0 5 5 8q6 2 10 -1q7 -4 9 -13q1 -2 1.5 -6.5t1.5 -6.5q12 -9 35.5 -14t48.5 -5q39 0 57 11q5 2 7.5 0.5t-1.5 -5.5q-24 -14 -66 -14q-25 0 -48.5 5t-34.5 12q-1 -1 -3 -6q-8 -33 -39 -68
q-7 -7 -21 -15q-8 -4 -19 -2q-14 6 -16 26zM51.5 287.5q-1.5 1.5 -4.5 0.5l4 -4q2 2 0.5 3.5z" />
    <glyph glyph-name="divide" unicode="&#xf7;" horiz-adv-x="250" 
d="M97 329.5q-5 8.5 -3 17.5q6 22 26 34q6 3 7 3h4q4 0 7.5 1t8.5 1q9 0 15 -7t4 -16q0 -5 -1 -8.5t-2 -6.5l-14 -16q-8 -10 -23 -13q-10 -2 -15 0q-9 2 -14 10.5zM154 366q1 5 -2 9q-9 0 -14 -6q6 -8 15 -9q0 1 1 6zM126 337q8 0 20 12l-17 11q-1 -2 -5.5 -8.5t-3.5 -13.5z
M10 279q2 6 8 8q10 2 14 2q37 4 84 4l21 1h6q18 1 54 1h12l4 -6q-1 -10 -11 -10l-45 -3l-52 -5h-12h-65h-10q-6 2 -8 8zM58 166q-13 0 -19 12q-5 10 -2 20q8 27 32 32l6 6q8 1 15 0q3 -1 10 -1q6 1 19.5 2t23.5 5h2q4 -6 1 -8l-5 -3l-19 -5l-14 -2l-1 -3q2 -16 -13 -33
q-8 -9 -22 -18q-3 -2 -11 -4h-3zM86.5 200q7.5 6 11.5 18l-4 5l-14 -1v-3q0 -5 -6 -13q-8 -10 -9 -14q14 2 21.5 8z" />
    <glyph glyph-name="oslash" unicode="&#xf8;" horiz-adv-x="213" 
d="M211.5 266.5q2.5 -1.5 -1.5 -5.5q-24 -14 -66 -14q-25 0 -48.5 5t-34.5 12q-1 -1 -3 -6q-8 -33 -39 -68q-5 -5 -17 -13l-13 -23q-1 -2 -17 -23l-2 -1q-6 0 -9 7v2q6 14 10 20l8 14v0q-14 6 -16 26q-1 32 19 59l7 8q7 6 18 4q4 -1 6.5 -4.5t1.5 -7.5q0 -4 -1 -7t-2 -5
l-18 -39l-6 -11q-1 -3 -1 -7v-0.5t1 -0.5q6 13 20 39l30 56q-2 6 -2 10q0 5 5 8q4 1 8 0l9 17q1 2 3.5 6.5t6.5 5.5q7 -2 5 -7q0 -6 -3 -11q-1 -4 -11 -23l1 -2q1 -2 1.5 -6.5t1.5 -6.5q12 -9 35.5 -14t48.5 -5q39 0 57 11q5 2 7.5 0.5zM51 268l-1 2q-1 -3 -8 -17l-24 -46
l-3 -6q28 28 36 67z" />
    <glyph glyph-name="ugrave" unicode="&#xf9;" horiz-adv-x="201" 
d="M33 323q-1 7 -4.5 17.5t-5.5 19.5q1 9 9 9l5 -5q10 -17 12 -29q2 -6 2 -10q0 -6 -8 -8q-10 0 -10 6zM201 267q1 -3 -4 -5q-27 -5 -125 -91q-7 -6 -11.5 -9.5t-6.5 -5.5q-10 -7 -17 -8l-5 -1q-7 0 -12 7q-5 5 -7 16v9q0 17 4 29l-1 -1q-8 -9 -21 -19q-6 -4 -10 -5
q-2 -1 -7 -1q-7 0 -13 6q-10 13 -7 29q3 23 17 42l10 9q4 3 10 1q5 -2 6 -7q0 -5 -5 -15q-8 -16 -15 -37q-1 -4 -1 -6.5t1 -7.5h4q4 3 12 7q2 2 5.5 4.5t6.5 6.5t21 19l4 6q6 6 15 4q7 -3 8 -11q0 -1 -5 -13q-13 -30 -15 -38l-3 -14q0 -3 1 -5q4 0 12 4q16 9 51 40
q34 29 57 45.5t40 17.5q5 1 6 -2z" />
    <glyph glyph-name="uacute" unicode="&#xfa;" horiz-adv-x="201" 
d="M40 317q-6 0 -8.5 4t-0.5 9q0 1 5 8l15 18q7 9 16 10q7 -2 8 -7q3 -5 -1 -9l-9 -12l-19 -19l-4 -2h-2zM201 267q1 -3 -4 -5q-27 -5 -125 -91q-7 -6 -11.5 -9.5t-6.5 -5.5q-10 -7 -17 -8l-5 -1q-7 0 -12 7q-5 5 -7 16v9q0 17 4 29l-1 -1q-8 -9 -21 -19q-6 -4 -10 -5
q-2 -1 -7 -1q-7 0 -13 6q-10 13 -7 29q3 23 17 42l10 9q4 3 10 1q5 -2 6 -7q0 -5 -5 -15q-8 -16 -15 -37q-1 -4 -1 -6.5t1 -7.5h4q4 3 12 7q2 2 5.5 4.5t6.5 6.5t21 19l4 6q6 6 15 4q7 -3 8 -11q0 -1 -5 -13q-13 -30 -15 -38l-3 -14q0 -3 1 -5q4 0 12 4q16 9 51 40
q34 29 57 45.5t40 17.5q5 1 6 -2z" />
    <glyph glyph-name="ucircumflex" unicode="&#xfb;" horiz-adv-x="201" 
d="M50 311q-3 5 -3 11q-1 6 -1 20l-5 -3q-5 -5 -15 -13q-2 -2 -3.5 -2t-2.5 -1q-5 0 -5 5q1 1 1 2t2 2l30 29q2 2 5 2q9 -1 9 -10q1 -4 1 -14q0 -17 -1 -25q0 -2 -4 -7q-7 -2 -8 4zM201 267q1 -3 -4 -5q-27 -5 -125 -91q-7 -6 -11.5 -9.5t-6.5 -5.5q-10 -7 -17 -8l-5 -1
q-7 0 -12 7q-5 5 -7 16v9q0 17 4 29l-1 -1q-8 -9 -21 -19q-6 -4 -10 -5q-2 -1 -7 -1q-7 0 -13 6q-10 13 -7 29q3 23 17 42l10 9q4 3 10 1q5 -2 6 -7q0 -5 -5 -15q-8 -16 -15 -37q-1 -4 -1 -6.5t1 -7.5h4q4 3 12 7q2 2 5.5 4.5t6.5 6.5t21 19l4 6q6 6 15 4q7 -3 8 -11
q0 -1 -5 -13q-13 -30 -15 -38l-3 -14q0 -3 1 -5q4 0 12 4q16 9 51 40q34 29 57 45.5t40 17.5q5 1 6 -2z" />
    <glyph glyph-name="udieresis" unicode="&#xfc;" horiz-adv-x="201" 
d="M12 334q-2 4 -1 8q1 9 13 11q3 0 3 -1q10 0 10 -8q0 -9 -10 -13q-8 -2 -10 -2q-3 1 -5 5zM56 328q1 6 4.5 10t8.5 4q8 0 12 -11v-2q0 -6 -6 -9.5t-13 -1.5q-6 2 -6 10zM201 267q1 -3 -4 -5q-27 -5 -125 -91q-7 -6 -11.5 -9.5t-6.5 -5.5q-10 -7 -17 -8l-5 -1q-7 0 -12 7
q-5 5 -7 16v9q0 17 4 29l-1 -1q-8 -9 -21 -19q-6 -4 -10 -5q-2 -1 -7 -1q-7 0 -13 6q-10 13 -7 29q3 23 17 42l10 9q4 3 10 1q5 -2 6 -7q0 -5 -5 -15q-8 -16 -15 -37q-1 -4 -1 -6.5t1 -7.5h4q4 3 12 7q2 2 5.5 4.5t6.5 6.5t21 19l4 6q6 6 15 4q7 -3 8 -11q0 -1 -5 -13
q-13 -30 -15 -38l-3 -14q0 -3 1 -5q4 0 12 4q16 9 51 40q34 29 57 45.5t40 17.5q5 1 6 -2z" />
    <glyph glyph-name="yacute" unicode="&#xfd;" horiz-adv-x="285" 
d="M48 332q-6 0 -8.5 4t-0.5 9q0 1 5 8l15 18q7 9 16 10q7 -2 8 -7q3 -5 -1 -9l-9 -12l-19 -19l-4 -2h-2zM-262 -277.5q-18 11.5 -31 33.5q-8 19 -10 27l-1 8q-1 7 -1 22q0 53 30 103q17 33 55 71q39 42 107 93q61 45 130 81l31 17l6 44q0 3 -4 -1q-6 -5 -12.5 -13.5
t-10.5 -13.5l-21 -25q-5 -7 -15 -10q-4 -2 -7 -2q-4 0 -9 3q-6 3 -8 10q-5 12 -5 22q0 19 4 36q7 20 11 28q6 11 13 16l2 1q4 0 7.5 -5t3.5 -10l-1 -8l-14 -61q-2 -9 1 -14l7 3l16 16q1 1 13 16q-1 -1 13 16q5 8 23 21q3 2 5 2t3 1q7 -1 10 -7q8 -15 7 -30q0 -9 -1 -14
q114 52 181 70h1q5 0 5.5 -4.5t-5.5 -5.5q-31 -8 -72 -25t-111 -48l-2 -10q0 -5 -1.5 -11t-1.5 -9q-20 -103 -30 -148q-16 -60 -43 -113q-25 -57 -71 -104q-32 -33 -72 -57q-27 -15 -48 -19q-20 -4 -31 -4q-28 0 -46 11.5zM-218 -272q13 0 26 3q21 6 39 17q54 37 91 90
q22 33 36 64q23 50 39 108q14 44 27 119q1 1 6 34q-17 -8 -26 -13t-10 -6l-49 -29q-71 -42 -129 -92q-54 -47 -83 -88q-2 -3 -11.5 -16.5t-14.5 -26.5q-18 -41 -18 -75q0 -12 1 -18q1 -3 1 -6.5t1 -6.5q4 -15 14 -29q13 -21 35 -26q12 -3 25 -3z" />
    <glyph glyph-name="thorn" unicode="&#xfe;" horiz-adv-x="600" 
 />
    <glyph glyph-name="ydieresis" unicode="&#xff;" horiz-adv-x="285" 
d="M20 341q-2 4 -1 8q1 9 13 11q3 0 3 -1q10 0 10 -8q0 -9 -10 -13q-8 -2 -10 -2q-3 1 -5 5zM64 335q1 6 4.5 10t8.5 4q8 0 12 -11v-2q0 -6 -6 -9.5t-13 -1.5q-6 2 -6 10zM-262 -277.5q-18 11.5 -31 33.5q-8 19 -10 27l-1 8q-1 7 -1 22q0 53 30 103q17 33 55 71
q39 42 107 93q61 45 130 81l31 17l6 44q0 3 -4 -1q-6 -5 -12.5 -13.5t-10.5 -13.5l-21 -25q-5 -7 -15 -10q-4 -2 -7 -2q-4 0 -9 3q-6 3 -8 10q-5 12 -5 22q0 19 4 36q7 20 11 28q6 11 13 16l2 1q4 0 7.5 -5t3.5 -10l-1 -8l-14 -61q-2 -9 1 -14l7 3l16 16q1 1 13 16
q-1 -1 13 16q5 8 23 21q3 2 5 2t3 1q7 -1 10 -7q8 -15 7 -30q0 -9 -1 -14q114 52 181 70h1q5 0 5.5 -4.5t-5.5 -5.5q-31 -8 -72 -25t-111 -48l-2 -10q0 -5 -1.5 -11t-1.5 -9q-20 -103 -30 -148q-16 -60 -43 -113q-25 -57 -71 -104q-32 -33 -72 -57q-27 -15 -48 -19
q-20 -4 -31 -4q-28 0 -46 11.5zM-218 -272q13 0 26 3q21 6 39 17q54 37 91 90q22 33 36 64q23 50 39 108q14 44 27 119q1 1 6 34q-17 -8 -26 -13t-10 -6l-49 -29q-71 -42 -129 -92q-54 -47 -83 -88q-2 -3 -11.5 -16.5t-14.5 -26.5q-18 -41 -18 -75q0 -12 1 -18q1 -3 1 -6.5
t1 -6.5q4 -15 14 -29q13 -21 35 -26q12 -3 25 -3z" />
    <glyph glyph-name="Amacron" unicode="&#x100;" horiz-adv-x="639" 
d="M178 842h297v-71h-297v71zM378 -157q-8 10 -9 16l-6 26q-1 6 -1 14.5t-1 14.5q0 32 3 65q8 56 9 59l6 29q4 29 14 68l23 92q16 51 27 98q1 3 3.5 10t1.5 13q-5 1 -12.5 0.5t-12.5 0.5q-13 3 -26 3q-8 2 -26 4l-27 6q-19 5 -25 7l-25 8q-6 1 -25 10l-5 -6q-18 -32 -29 -47
q-37 -62 -86 -132q-26 -36 -56 -65q-20 -19 -44 -29q-12 -4 -23 -3q-13 0 -26 11q-13 15 -19 31q-8 23 -8 53v16q-1 1 -1 4q1 3 2.5 13.5t5.5 17.5q2 6 4 8q0 1 5 3l3 -5q-1 -3 -1 -8q-7 -20 -7 -43t8 -49q6 -14 10 -21q1 -3 6 -8q12 -13 28 -9q14 4 25 12q18 11 41 36
q26 29 42 55q49 72 100 161l5 10v2l-19 9l-31 15l-22 11q-45 24 -79 34q-23 7 -41 7q-41 0 -80 -17q-20 -10 -40 -25l-4 -2l-4 1q6 11 14 15q36 27 82 35q17 3 32 3q14 0 27 -3q8 -1 14 -3t10 -3q25 -7 50 -20t30 -15q21 -12 42 -21l22 -11q1 -1 4 -1l3 6q54 94 80 141
q14 23 44 67q29 38 55 58q6 6 19 14q17 10 36 10q1 -1 3 -1t3 -1q16 -5 23 -17q9 -10 11 -29q4 -24 3 -47l-5 -61q-2 -17 -8 -41q-3 -22 -9 -45q-2 -10 -4 -18.5t-4 -16.5l-6 -24l-11 -38l6 -1q5 0 9.5 1t7.5 1q70 10 139 46l26 14q44 23 52 28q3 0 5 2q5 0 5 -4q0 -2 -1 -3
l-20 -12l-73 -39q-67 -34 -136 -43q-16 -2 -22 -2q-4 -12 -6.5 -22t-5.5 -18l-24 -86q-3 -10 -7 -30l-9 -33l-5 -21q-3 -10 -7 -30q-5 -17 -10 -41l-9 -37q-7 -31 -11 -52q-6 -28 -7 -42q-4 -36 -3 -54q1 -4 1 -10.5t1 -10.5q0 -5 5 -8q5 -4 11 1q10 6 16 16q16 24 23 36
l23 44q9 17 10 30q0 6 4 7q2 -4 2 -6q-3 -22 -14 -44q-17 -37 -37 -70q-6 -10 -10 -14q-6 -8 -11 -11q-7 -5 -13 -5q-3 0 -9 2q-1 0 -7 3zM453 361q1 1 1 3q9 30 15 55q12 48 16 71q8 30 11 55q6 38 6 78q0 25 -4 36q-3 9 -8 12q-2 1 -6 1t-7 -1l-6 -2q-16 -10 -24 -16
q-21 -18 -48 -53q-31 -45 -42 -62q-25 -40 -48 -81l-33 -56l-2 -6q35 -16 87 -27t91 -10q0 2 1 3z" />
    <glyph glyph-name="amacron" unicode="&#x101;" horiz-adv-x="561" 
d="M143 677h297v-71h-297v71zM-20 128q-1 8 1 23t6 27l4 13q-1 1 -2 0t-2 -1l-25 -21l-9 -6q-6 -2 -9 -2q-13 0 -14 15q-2 8 -2 11q0 4 2 10q7 28 19 43q17 25 43 29q3 1 9 1q7 0 15 -3q11 -3 18 -16q1 -2 0 -3.5t-3 -0.5l-5 4q-7 5 -13 5q-5 0 -13 -5q-10 -4 -23 -19
q-20 -28 -27 -57q2 -2 4 0q7 3 14.5 8.5t11.5 8.5q7 7 11 9q7 7 11 14q1 2 8 14q2 2 6 4q5 5 10 3q6 0 9 -7q-1 -7 -4 -16t-4 -13l-15 -40v0l-7 -22q-2 -10 -1 -17q6 -12 16 -12q14 0 37 19t59 55q40 39 65 60t45 26h1q6 0 6 -4q0 -3 -6 -5q-16 -5 -38 -24t-55 -53
q-42 -43 -71 -66.5t-50 -23.5q-19 0 -29 20q-2 3 -4 15z" />
    <glyph glyph-name="Abreve" unicode="&#x102;" horiz-adv-x="639" 
d="M316 771q-69 0 -108.5 33.5t-44.5 100.5h54q4 -35 24.5 -49t76.5 -14q49 0 73 15.5t28 47.5h55q-6 -64 -48 -99t-110 -35zM378 -157q-8 10 -9 16l-6 26q-1 6 -1 14.5t-1 14.5q0 32 3 65q8 56 9 59l6 29q4 29 14 68l23 92q16 51 27 98q1 3 3.5 10t1.5 13q-5 1 -12.5 0.5
t-12.5 0.5q-13 3 -26 3q-8 2 -26 4l-27 6q-19 5 -25 7l-25 8q-6 1 -25 10l-5 -6q-18 -32 -29 -47q-37 -62 -86 -132q-26 -36 -56 -65q-20 -19 -44 -29q-12 -4 -23 -3q-13 0 -26 11q-13 15 -19 31q-8 23 -8 53v16q-1 1 -1 4q1 3 2.5 13.5t5.5 17.5q2 6 4 8q0 1 5 3l3 -5
q-1 -3 -1 -8q-7 -20 -7 -43t8 -49q6 -14 10 -21q1 -3 6 -8q12 -13 28 -9q14 4 25 12q18 11 41 36q26 29 42 55q49 72 100 161l5 10v2l-19 9l-31 15l-22 11q-45 24 -79 34q-23 7 -41 7q-41 0 -80 -17q-20 -10 -40 -25l-4 -2l-4 1q6 11 14 15q36 27 82 35q17 3 32 3
q14 0 27 -3q8 -1 14 -3t10 -3q25 -7 50 -20t30 -15q21 -12 42 -21l22 -11q1 -1 4 -1l3 6q54 94 80 141q14 23 44 67q29 38 55 58q6 6 19 14q17 10 36 10q1 -1 3 -1t3 -1q16 -5 23 -17q9 -10 11 -29q4 -24 3 -47l-5 -61q-2 -17 -8 -41q-3 -22 -9 -45q-2 -10 -4 -18.5
t-4 -16.5l-6 -24l-11 -38l6 -1q5 0 9.5 1t7.5 1q70 10 139 46l26 14q44 23 52 28q3 0 5 2q5 0 5 -4q0 -2 -1 -3l-20 -12l-73 -39q-67 -34 -136 -43q-16 -2 -22 -2q-4 -12 -6.5 -22t-5.5 -18l-24 -86q-3 -10 -7 -30l-9 -33l-5 -21q-3 -10 -7 -30q-5 -17 -10 -41l-9 -37
q-7 -31 -11 -52q-6 -28 -7 -42q-4 -36 -3 -54q1 -4 1 -10.5t1 -10.5q0 -5 5 -8q5 -4 11 1q10 6 16 16q16 24 23 36l23 44q9 17 10 30q0 6 4 7q2 -4 2 -6q-3 -22 -14 -44q-17 -37 -37 -70q-6 -10 -10 -14q-6 -8 -11 -11q-7 -5 -13 -5q-3 0 -9 2q-1 0 -7 3zM453 361q1 1 1 3
q9 30 15 55q12 48 16 71q8 30 11 55q6 38 6 78q0 25 -4 36q-3 9 -8 12q-2 1 -6 1t-7 -1l-6 -2q-16 -10 -24 -16q-21 -18 -48 -53q-31 -45 -42 -62q-25 -40 -48 -81l-33 -56l-2 -6q35 -16 87 -27t91 -10q0 2 1 3z" />
    <glyph glyph-name="abreve" unicode="&#x103;" horiz-adv-x="561" 
d="M281 606q-69 0 -108.5 33.5t-44.5 100.5h54q4 -35 24.5 -49t76.5 -14q49 0 73 15.5t28 47.5h55q-6 -64 -48 -99t-110 -35zM-20 128q-1 8 1 23t6 27l4 13q-1 1 -2 0t-2 -1l-25 -21l-9 -6q-6 -2 -9 -2q-13 0 -14 15q-2 8 -2 11q0 4 2 10q7 28 19 43q17 25 43 29q3 1 9 1
q7 0 15 -3q11 -3 18 -16q1 -2 0 -3.5t-3 -0.5l-5 4q-7 5 -13 5q-5 0 -13 -5q-10 -4 -23 -19q-20 -28 -27 -57q2 -2 4 0q7 3 14.5 8.5t11.5 8.5q7 7 11 9q7 7 11 14q1 2 8 14q2 2 6 4q5 5 10 3q6 0 9 -7q-1 -7 -4 -16t-4 -13l-15 -40v0l-7 -22q-2 -10 -1 -17q6 -12 16 -12
q14 0 37 19t59 55q40 39 65 60t45 26h1q6 0 6 -4q0 -3 -6 -5q-16 -5 -38 -24t-55 -53q-42 -43 -71 -66.5t-50 -23.5q-19 0 -29 20q-2 3 -4 15z" />
    <glyph glyph-name="Aogonek" unicode="&#x104;" horiz-adv-x="639" 
d="M540 -116q0 -22 12 -33.5t33 -11.5t48 6v-56q-34 -9 -62 -9q-103 0 -103 94q0 68 78 126h62q-34 -32 -51 -58.5t-17 -57.5zM378 -157q-8 10 -9 16l-6 26q-1 6 -1 14.5t-1 14.5q0 32 3 65q8 56 9 59l6 29q4 29 14 68l23 92q16 51 27 98q1 3 3.5 10t1.5 13q-5 1 -12.5 0.5
t-12.5 0.5q-13 3 -26 3q-8 2 -26 4l-27 6q-19 5 -25 7l-25 8q-6 1 -25 10l-5 -6q-18 -32 -29 -47q-37 -62 -86 -132q-26 -36 -56 -65q-20 -19 -44 -29q-12 -4 -23 -3q-13 0 -26 11q-13 15 -19 31q-8 23 -8 53v16q-1 1 -1 4q1 3 2.5 13.5t5.5 17.5q2 6 4 8q0 1 5 3l3 -5
q-1 -3 -1 -8q-7 -20 -7 -43t8 -49q6 -14 10 -21q1 -3 6 -8q12 -13 28 -9q14 4 25 12q18 11 41 36q26 29 42 55q49 72 100 161l5 10v2l-19 9l-31 15l-22 11q-45 24 -79 34q-23 7 -41 7q-41 0 -80 -17q-20 -10 -40 -25l-4 -2l-4 1q6 11 14 15q36 27 82 35q17 3 32 3
q14 0 27 -3q8 -1 14 -3t10 -3q25 -7 50 -20t30 -15q21 -12 42 -21l22 -11q1 -1 4 -1l3 6q54 94 80 141q14 23 44 67q29 38 55 58q6 6 19 14q17 10 36 10q1 -1 3 -1t3 -1q16 -5 23 -17q9 -10 11 -29q4 -24 3 -47l-5 -61q-2 -17 -8 -41q-3 -22 -9 -45q-2 -10 -4 -18.5
t-4 -16.5l-6 -24l-11 -38l6 -1q5 0 9.5 1t7.5 1q70 10 139 46l26 14q44 23 52 28q3 0 5 2q5 0 5 -4q0 -2 -1 -3l-20 -12l-73 -39q-67 -34 -136 -43q-16 -2 -22 -2q-4 -12 -6.5 -22t-5.5 -18l-24 -86q-3 -10 -7 -30l-9 -33l-5 -21q-3 -10 -7 -30q-5 -17 -10 -41l-9 -37
q-7 -31 -11 -52q-6 -28 -7 -42q-4 -36 -3 -54q1 -4 1 -10.5t1 -10.5q0 -5 5 -8q5 -4 11 1q10 6 16 16q16 24 23 36l23 44q9 17 10 30q0 6 4 7q2 -4 2 -6q-3 -22 -14 -44q-17 -37 -37 -70q-6 -10 -10 -14q-6 -8 -11 -11q-7 -5 -13 -5q-3 0 -9 2q-1 0 -7 3zM453 361q1 1 1 3
q9 30 15 55q12 48 16 71q8 30 11 55q6 38 6 78q0 25 -4 36q-3 9 -8 12q-2 1 -6 1t-7 -1l-6 -2q-16 -10 -24 -16q-21 -18 -48 -53q-31 -45 -42 -62q-25 -40 -48 -81l-33 -56l-2 -6q35 -16 87 -27t91 -10q0 2 1 3z" />
    <glyph glyph-name="aogonek" unicode="&#x105;" horiz-adv-x="561" 
d="M410 -116q0 -22 12 -33.5t33 -11.5t48 6v-56q-34 -9 -62 -9q-103 0 -103 94q0 68 78 126h62q-34 -32 -51 -58.5t-17 -57.5zM-20 128q-1 8 1 23t6 27l4 13q-1 1 -2 0t-2 -1l-25 -21l-9 -6q-6 -2 -9 -2q-13 0 -14 15q-2 8 -2 11q0 4 2 10q7 28 19 43q17 25 43 29q3 1 9 1
q7 0 15 -3q11 -3 18 -16q1 -2 0 -3.5t-3 -0.5l-5 4q-7 5 -13 5q-5 0 -13 -5q-10 -4 -23 -19q-20 -28 -27 -57q2 -2 4 0q7 3 14.5 8.5t11.5 8.5q7 7 11 9q7 7 11 14q1 2 8 14q2 2 6 4q5 5 10 3q6 0 9 -7q-1 -7 -4 -16t-4 -13l-15 -40v0l-7 -22q-2 -10 -1 -17q6 -12 16 -12
q14 0 37 19t59 55q40 39 65 60t45 26h1q6 0 6 -4q0 -3 -6 -5q-16 -5 -38 -24t-55 -53q-42 -43 -71 -66.5t-50 -23.5q-19 0 -29 20q-2 3 -4 15z" />
    <glyph glyph-name="Cacute" unicode="&#x106;" horiz-adv-x="631" 
d="M56 36q-17 16 -30 38q-18 33 -24 71l-2 20l-2 20q-1 3 -0.5 5.5t0.5 4.5q1 2 1 8q1 41 23 101q21 60 65 127q18 28 52 68l3 4l-28 6q-7 1 -7 6q0 2 2.5 3.5t6.5 1.5q2 0 10 -2q12 -3 26 -3l8 7q40 43 91 80q45 32 77 49q33 16 66 23q9 2 26 2q14 0 21 -1q18 -3 29 -14
q10 -10 10 -20q0 -2 -2 -10q-4 -13 -13 -23q-11 -16 -40 -39q-47 -38 -116 -54q-27 -6 -54 -9q-50 -5 -62 -5q-8 -7 -22 -23q-43 -49 -76 -106q-28 -49 -44 -101q-9 -24 -14 -59q-5 -28 -5 -51q0 -47 17 -80q22 -45 72 -59q28 -6 42 -6q21 0 42 6q41 11 77 33q4 3 9 6t11 8
q46 29 72 51q5 4 15 12.5t16 16.5q3 -1 3.5 -2.5t-0.5 -2.5q-2 -4 -7 -9l-38 -34l-39 -32q-48 -38 -95 -54q-40 -14 -72 -14q-57 0 -101 35zM213 513q7 0 23 2q19 1 59 9q46 10 80 29q36 20 61 46q19 21 22 38q-5 9 -17 9h-7q-6 0 -20 -2q-23 -4 -50 -16q-42 -19 -92 -57
q-37 -28 -62 -52l-2.5 -2.5t-0.5 -3.5h6zM318 783q19 23 47.5 66.5t47.5 81.5h106v-10q-21 -31 -66.5 -78.5t-76.5 -71.5h-58v12z" />
    <glyph glyph-name="cacute" unicode="&#x107;" horiz-adv-x="479" 
d="M-56 94q-16 0 -24 16q-7 12 -7 22q-2 38 8 62q14 38 45 62l18 11q4 2 7 2q3 1 8 1q11 0 18 -10q5 -9 6 -19v-5q0 -12 -5 -24l-3 -4q-2 -2 -3.5 -1.5t-0.5 3.5q1 8 1 22v3q0 9 -7 16q-5 1 -8 -2q-16 -14 -23 -26q-25 -42 -32 -64q-1 -4 -3 -10t-3 -14q-1 -2 -1 -7
q0 -10 7 -17q17 -6 66 20.5t102 66.5t78 69q1 1 3 1q3 0 4 -3t-2 -7q-20 -27 -70.5 -68t-101.5 -69.5t-74 -26.5h-3zM224 618q19 23 47.5 66.5t47.5 81.5h106v-10q-21 -31 -66.5 -78.5t-76.5 -71.5h-58v12z" />
    <glyph glyph-name="Ccircumflex" unicode="&#x108;" horiz-adv-x="631" 
d="M220 782q61 65 86 96.5t37 52.5h90q25 -49 125 -149v-11h-62q-44 26 -109 90q-64 -62 -107 -90h-60v11zM56 36q-17 16 -30 38q-18 33 -24 71l-2 20l-2 20q-1 3 -0.5 5.5t0.5 4.5q1 2 1 8q1 41 23 101q21 60 65 127q18 28 52 68l3 4l-28 6q-7 1 -7 6q0 2 2.5 3.5t6.5 1.5
q2 0 10 -2q12 -3 26 -3l8 7q40 43 91 80q45 32 77 49q33 16 66 23q9 2 26 2q14 0 21 -1q18 -3 29 -14q10 -10 10 -20q0 -2 -2 -10q-4 -13 -13 -23q-11 -16 -40 -39q-47 -38 -116 -54q-27 -6 -54 -9q-50 -5 -62 -5q-8 -7 -22 -23q-43 -49 -76 -106q-28 -49 -44 -101
q-9 -24 -14 -59q-5 -28 -5 -51q0 -47 17 -80q22 -45 72 -59q28 -6 42 -6q21 0 42 6q41 11 77 33q4 3 9 6t11 8q46 29 72 51q5 4 15 12.5t16 16.5q3 -1 3.5 -2.5t-0.5 -2.5q-2 -4 -7 -9l-38 -34l-39 -32q-48 -38 -95 -54q-40 -14 -72 -14q-57 0 -101 35zM213 513q7 0 23 2
q19 1 59 9q46 10 80 29q36 20 61 46q19 21 22 38q-5 9 -17 9h-7q-6 0 -20 -2q-23 -4 -50 -16q-42 -19 -92 -57q-37 -28 -62 -52l-2.5 -2.5t-0.5 -3.5h6z" />
    <glyph glyph-name="ccircumflex" unicode="&#x109;" horiz-adv-x="479" 
d="M118 617q61 65 86 96.5t37 52.5h90q25 -49 125 -149v-11h-62q-44 26 -109 90q-64 -62 -107 -90h-60v11zM-56 94q-16 0 -24 16q-7 12 -7 22q-2 38 8 62q14 38 45 62l18 11q4 2 7 2q3 1 8 1q11 0 18 -10q5 -9 6 -19v-5q0 -12 -5 -24l-3 -4q-2 -2 -3.5 -1.5t-0.5 3.5
q1 8 1 22v3q0 9 -7 16q-5 1 -8 -2q-16 -14 -23 -26q-25 -42 -32 -64q-1 -4 -3 -10t-3 -14q-1 -2 -1 -7q0 -10 7 -17q17 -6 66 20.5t102 66.5t78 69q1 1 3 1q3 0 4 -3t-2 -7q-20 -27 -70.5 -68t-101.5 -69.5t-74 -26.5h-3z" />
    <glyph glyph-name="Cdotaccent" unicode="&#x10a;" horiz-adv-x="631" 
d="M337 846q0 29 15 42.5t37 13.5q21 0 36 -13.5t15 -42.5t-15.5 -42.5t-35.5 -13.5q-22 0 -37 13.5t-15 42.5zM56 36q-17 16 -30 38q-18 33 -24 71l-2 20l-2 20q-1 3 -0.5 5.5t0.5 4.5q1 2 1 8q1 41 23 101q21 60 65 127q18 28 52 68l3 4l-28 6q-7 1 -7 6q0 2 2.5 3.5
t6.5 1.5q2 0 10 -2q12 -3 26 -3l8 7q40 43 91 80q45 32 77 49q33 16 66 23q9 2 26 2q14 0 21 -1q18 -3 29 -14q10 -10 10 -20q0 -2 -2 -10q-4 -13 -13 -23q-11 -16 -40 -39q-47 -38 -116 -54q-27 -6 -54 -9q-50 -5 -62 -5q-8 -7 -22 -23q-43 -49 -76 -106q-28 -49 -44 -101
q-9 -24 -14 -59q-5 -28 -5 -51q0 -47 17 -80q22 -45 72 -59q28 -6 42 -6q21 0 42 6q41 11 77 33q4 3 9 6t11 8q46 29 72 51q5 4 15 12.5t16 16.5q3 -1 3.5 -2.5t-0.5 -2.5q-2 -4 -7 -9l-38 -34l-39 -32q-48 -38 -95 -54q-40 -14 -72 -14q-57 0 -101 35zM213 513q7 0 23 2
q19 1 59 9q46 10 80 29q36 20 61 46q19 21 22 38q-5 9 -17 9h-7q-6 0 -20 -2q-23 -4 -50 -16q-42 -19 -92 -57q-37 -28 -62 -52l-2.5 -2.5t-0.5 -3.5h6z" />
    <glyph glyph-name="cdotaccent" unicode="&#x10b;" horiz-adv-x="479" 
d="M241 681q0 29 15 42.5t37 13.5q21 0 36 -13.5t15 -42.5t-15.5 -42.5t-35.5 -13.5q-22 0 -37 13.5t-15 42.5zM-56 94q-16 0 -24 16q-7 12 -7 22q-2 38 8 62q14 38 45 62l18 11q4 2 7 2q3 1 8 1q11 0 18 -10q5 -9 6 -19v-5q0 -12 -5 -24l-3 -4q-2 -2 -3.5 -1.5t-0.5 3.5
q1 8 1 22v3q0 9 -7 16q-5 1 -8 -2q-16 -14 -23 -26q-25 -42 -32 -64q-1 -4 -3 -10t-3 -14q-1 -2 -1 -7q0 -10 7 -17q17 -6 66 20.5t102 66.5t78 69q1 1 3 1q3 0 4 -3t-2 -7q-20 -27 -70.5 -68t-101.5 -69.5t-74 -26.5h-3z" />
    <glyph glyph-name="Ccaron" unicode="&#x10c;" horiz-adv-x="631" 
d="M220 931h60q56 -36 107 -92q62 62 109 92h62v-13q-100 -100 -125 -147h-90q-29 50 -123 147v13zM56 36q-17 16 -30 38q-18 33 -24 71l-2 20l-2 20q-1 3 -0.5 5.5t0.5 4.5q1 2 1 8q1 41 23 101q21 60 65 127q18 28 52 68l3 4l-28 6q-7 1 -7 6q0 2 2.5 3.5t6.5 1.5
q2 0 10 -2q12 -3 26 -3l8 7q40 43 91 80q45 32 77 49q33 16 66 23q9 2 26 2q14 0 21 -1q18 -3 29 -14q10 -10 10 -20q0 -2 -2 -10q-4 -13 -13 -23q-11 -16 -40 -39q-47 -38 -116 -54q-27 -6 -54 -9q-50 -5 -62 -5q-8 -7 -22 -23q-43 -49 -76 -106q-28 -49 -44 -101
q-9 -24 -14 -59q-5 -28 -5 -51q0 -47 17 -80q22 -45 72 -59q28 -6 42 -6q21 0 42 6q41 11 77 33q4 3 9 6t11 8q46 29 72 51q5 4 15 12.5t16 16.5q3 -1 3.5 -2.5t-0.5 -2.5q-2 -4 -7 -9l-38 -34l-39 -32q-48 -38 -95 -54q-40 -14 -72 -14q-57 0 -101 35zM213 513q7 0 23 2
q19 1 59 9q46 10 80 29q36 20 61 46q19 21 22 38q-5 9 -17 9h-7q-6 0 -20 -2q-23 -4 -50 -16q-42 -19 -92 -57q-37 -28 -62 -52l-2.5 -2.5t-0.5 -3.5h6z" />
    <glyph glyph-name="ccaron" unicode="&#x10d;" horiz-adv-x="479" 
d="M122 766h60q56 -36 107 -92q62 62 109 92h62v-13q-100 -100 -125 -147h-90q-29 50 -123 147v13zM-56 94q-16 0 -24 16q-7 12 -7 22q-2 38 8 62q14 38 45 62l18 11q4 2 7 2q3 1 8 1q11 0 18 -10q5 -9 6 -19v-5q0 -12 -5 -24l-3 -4q-2 -2 -3.5 -1.5t-0.5 3.5q1 8 1 22v3
q0 9 -7 16q-5 1 -8 -2q-16 -14 -23 -26q-25 -42 -32 -64q-1 -4 -3 -10t-3 -14q-1 -2 -1 -7q0 -10 7 -17q17 -6 66 20.5t102 66.5t78 69q1 1 3 1q3 0 4 -3t-2 -7q-20 -27 -70.5 -68t-101.5 -69.5t-74 -26.5h-3z" />
    <glyph glyph-name="Dcaron" unicode="&#x10e;" horiz-adv-x="729" 
d="M170 931h60q56 -36 107 -92q62 62 109 92h62v-13q-100 -100 -125 -147h-90q-29 50 -123 147v13zM127 -3q-15 3 -31 14q-19 14 -19 37q0 7 4 19q6 17 22 32q20 19 48 27h1q17 4 23 5h2q14 2 21 2h8q25 0 38 -2q5 0 13 -2l4 -1l2 -1l-1 -5h-1h-8l-19 2q-15 0 -22 -1h-9
q-18 0 -43 -5q-33 -8 -53 -29q-13 -15 -15 -26q-2 -6 -2 -10v-4v-2l2 -4q5 -14 19 -20t31 -6q27 0 62 15q47 21 88 53q37 31 59 56q25 30 44 60q36 57 59 118q18 44 29 93q10 43 10 87q1 25 -7 64q-4 20 -17 43q-9 15 -26 26q-11 7 -28 7q-13 0 -38 -9q-35 -15 -68 -44
q-39 -34 -63 -66l-24 -32q-5 -5 -9 -15l-3 -6l-88 -195l-27 -62v0l-27 -62q-28 -59 -38 -76l-1 -2q-16 -27 -24 -36q-6 -6 -11 -8l-8 2v1v0.5t-1 0.5q0 2 -1 2v4q0 2 2 10l10 30q23 57 60 126q16 34 23 51l5 11l89 198q37 82 71 163q21 52 31 86q0 2 1 3v2l-2 -1
q-8 -16 -29.5 -34t-48.5 -31t-52 -13q-29 0 -48 20q-8 7 -8 15q0 9 6 9q2 0 7 -5q13 -22 41 -22q22 0 48.5 12.5t48 31t29.5 34.5l6 7l9 11l3 3l2 2q5 6 13 3q8 -2 10 -10q1 -3 1 -9t-1 -10l-1 -2q-2 -11 -8 -33q-7 -25 -25 -70q-16 -40 -25 -59l-14 -34l-1 -5l2 2v1
q16 20 28 32q45 50 94 77q31 17 57 21q35 3 60 -19q14 -12 26 -35q9 -19 15 -47q0 -5 2 -13l1 -8q3 -18 3 -35q0 -61 -19 -131q-21 -75 -60 -146q-29 -54 -57 -88q-31 -39 -71 -72q-32 -26 -74 -49q-34 -18 -69 -22l-17 -1q-18 0 -31 4z" />
    <glyph glyph-name="dcaron" unicode="&#x10f;" horiz-adv-x="615" 
d="M575 612q11 32 20.5 77.5t12.5 70.5h87v-9q-6 -26 -27 -71t-45 -80h-48v12zM-12 61q0 19 3.5 35.5t3.5 19.5q1 5 2.5 11.5t3.5 15.5l-17 -10q-3 -2 -12 -4q-11 0 -17 6q-16 14 -16 35q0 48 29 81q15 19 35 19q23 0 32 -19l3 8q28 69 63 135q36 65 68 110q37 51 84 86
q32 22 55 28q4 1 8.5 2t11.5 1l12 -1q19 -3 26 -21q5 -7 5 -21q2 -32 -14 -77q-19 -48 -49 -93q-46 -68 -89 -110q-48 -46 -109 -80q-8 -5 -26.5 -13.5t-32.5 -12.5q-9 -27 -15 -49q-10 -44 -14 -65q-5 -24 -4 -41q0 -8 4 -24q3 -14 14 -19l2 -1q2 0 5.5 2.5t4.5 3.5
q13 10 23 25l34 47q15 27 56.5 73.5t85.5 83t69 41.5h3q5 0 6.5 -3.5t-4.5 -5.5q-27 -8 -69.5 -45t-82.5 -81.5t-56 -68.5l-24 -34q-6 -9 -23 -32q-19 -23 -36 -23q-8 0 -12 4q-30 26 -30 81zM61.5 208q3.5 1 4.5 2l15 6q28 13 37 19q77 48 123 104q49 57 78 109
q28 52 35 100q1 4 1 12q0 11 -3 21q-4 15 -18 15l-8 -1q-17 -6 -27 -12q-21 -13 -42 -32q-41 -36 -71 -83q-32 -47 -64 -109l-28 -59l-31 -71l-8 -23q3 1 6.5 2zM-10 150.5q5 3.5 17 15.5l24 75q-4 11 -13 11q-12 0 -19.5 -7.5t-12 -16t-6.5 -11.5q-8 -15 -13 -32t-5 -28
q0 -17 12 -14q11 4 16 7.5z" />
    <glyph glyph-name="Dcroat" unicode="&#x110;" horiz-adv-x="729" 
d="M525 502q0 -61 -19 -131q-21 -75 -60 -146q-29 -54 -57 -88q-31 -39 -71 -72q-32 -26 -74 -49q-34 -18 -69 -22l-17 -1q-18 0 -31 4q-15 3 -31 14q-19 14 -19 37q0 7 4 19q6 17 22 32q20 19 48 27h1q17 4 23 5h2q14 2 21 2h8q25 0 38 -2q5 0 13 -2l4 -1l2 -1l-1 -5h-1h-8
l-19 2q-15 0 -22 -1h-9q-18 0 -43 -5q-33 -8 -53 -29q-13 -15 -15 -26q-2 -6 -2 -10v-4v-2l2 -4q5 -14 19 -20t31 -6q27 0 62 15q47 21 88 53q37 31 59 56q25 30 44 60q36 57 59 118q18 44 29 93q10 43 10 87q1 25 -7 64q-4 20 -17 43q-9 15 -26 26q-11 7 -28 7
q-13 0 -38 -9q-35 -15 -68 -44q-39 -34 -63 -66l-24 -32q-5 -5 -9 -15l-3 -6l-55 -122q14 1 41 1h41q5 0 8.5 -1t6 -3t4.5 -3v-6q0 -9 -9 -11q-5 -2 -14 -2q-9 -1 -28 -1h-62l-21 -47l-27 -62l-27 -62q-28 -59 -38 -76l-1 -2q-16 -27 -24 -36q-6 -6 -11 -8l-8 2v1v0.5
t-1 0.5q0 2 -1 2v4q0 2 2 10l10 30q23 57 60 126q16 34 23 51l5 11l24 54h-2q-29 0 -53 -4l-35 -3q-6 -1 -14.5 -2t-20.5 -1h-13q-6 0 -7 6q1 5 8 8l18 5q40 8 72 11q20 3 58 5l21 47l33 72q37 82 71 163q21 52 31 86q0 2 1 3v2l-2 -1q-8 -16 -29.5 -34t-48.5 -31t-52 -13
q-29 0 -48 20q-8 7 -8 15q0 9 6 9q2 0 7 -5q13 -22 41 -22q22 0 48.5 12.5t48 31t29.5 34.5l6 7l9 11l3 3l2 2q5 6 13 3q8 -2 10 -10q1 -3 1 -9t-1 -10l-1 -2q-2 -11 -8 -33q-7 -25 -25 -70q-16 -40 -25 -59l-14 -34l-1 -5l2 2v1q16 20 28 32q45 50 94 77q31 17 57 21
q35 3 60 -19q14 -12 26 -35q9 -19 15 -47q0 -5 2 -13l1 -8q3 -18 3 -35z" />
    <glyph glyph-name="dcroat" unicode="&#x111;" horiz-adv-x="617" 
d="M275 -10q-104 0 -162 72t-58 203q0 132 57.5 205t162.5 73q109 0 167 -79h6q-1 7 -3.5 33.5t-2.5 46.5v61h-213v66h213v89h88v-89h76v-66h-76v-605h-72l-13 72h-4q-56 -82 -166 -82zM290 63q80 0 116.5 43t36.5 142v17q0 112 -37 158.5t-118 46.5q-68 0 -104.5 -52
t-36.5 -154q0 -96 35 -148.5t108 -52.5z" />
    <glyph glyph-name="Emacron" unicode="&#x112;" horiz-adv-x="556" 
d="M148 842h297v-71h-297v71zM53 -8q-43 28 -62 67q-11 26 -12 40l-3 22q-1 6 -1 18q0 29 8 61q16 59 62 109q22 23 64 47q27 15 66 25q17 4 38 4q23 0 38 -5l16 -5q-1 1 -1 3q-16 16 -31 34q-21 30 -21 66q0 15 6 39q9 26 18 40q4 6 4 9q-1 3 -3.5 3h-2.5q-33 7 -63.5 33.5
t-30.5 62.5q0 35 35 73q4 2 5 2q5 0 7 -5t-3 -9q-31 -28 -31 -59q0 -29 25 -53.5t59 -35.5q9 0 12 1q5 5 11 15q29 33 65 55q36 20 66 26q24 3 26 3q7 0 11 -1q14 -3 26 -12q12 -11 12 -27q0 -14 -7 -24q-11 -18 -32 -29q-24 -13 -49 -17q-6 0 -10.5 -1t-7.5 -2
q-10 -2 -14 -1l-25 -2q-10 1 -30 1q-2 1 -5 0.5t-5 0.5q-11 -13 -19 -30q-13 -24 -15 -52q-1 -3 -1 -10q0 -12 5 -27q3 -10 16 -35q7 -13 17 -26t12 -16q5 -7 5 -8l5 -10q-2 -2 -2 -4t-1 -3q-1 0 -2 -0.5t-2 0.5q-5 1 -13 6q-8 7 -17.5 10t-27.5 6q-33 3 -67 -10
q-61 -23 -104 -65q-51 -53 -60 -122q-2 -10 -2 -29q0 -22 4 -39q6 -34 31 -62q39 -42 102 -55q18 -4 35 -3q60 8 88 55q7 15 11 26t4 24q0 16 -10.5 30t-27.5 17q-18 2 -22 4.5t5 5.5q4 1 13 1t18 -3q22 -8 30 -31q5 -10 5 -26q0 -12 -1 -18q-4 -23 -20 -48q-27 -41 -76 -54
q-20 -5 -35 -5q-7 0 -21 2q-50 8 -90 32zM400 584q26 8 40 23q11 11 14 23v3q0 10 -7 17q-8 7 -23 7q-26 0 -48 -12q-42 -21 -82 -66q-1 -1 -3 -5q16 -4 38 -2q33 0 71 12z" />
    <glyph glyph-name="emacron" unicode="&#x113;" horiz-adv-x="563" 
d="M150 677h297v-71h-297v71zM-36 195q0 54 44 98q3 4 19 15q10 7 21 4q3 -2 6 -4.5t2 -7.5q-2 -19 -10.5 -26t-28.5 -12l-14 -26q-11 -22 -11 -56q4 -27 33 -27q38 0 103 38t111 76q4 2 7 0t0 -6q-24 -23 -67.5 -52.5t-89 -50t-77.5 -20.5q-40 0 -47 37q-3 10 -1 20z
M42 282q7 9 3 13q-4 1 -8 -3q-2 -3 -6.5 -7.5t-10.5 -13.5q15 2 22 11z" />
    <glyph glyph-name="Ebreve" unicode="&#x114;" horiz-adv-x="556" 
d="M299 771q-69 0 -108.5 33.5t-44.5 100.5h54q4 -35 24.5 -49t76.5 -14q49 0 73 15.5t28 47.5h55q-6 -64 -48 -99t-110 -35zM53 -8q-43 28 -62 67q-11 26 -12 40l-3 22q-1 6 -1 18q0 29 8 61q16 59 62 109q22 23 64 47q27 15 66 25q17 4 38 4q23 0 38 -5l16 -5q-1 1 -1 3
q-16 16 -31 34q-21 30 -21 66q0 15 6 39q9 26 18 40q4 6 4 9q-1 3 -3.5 3h-2.5q-33 7 -63.5 33.5t-30.5 62.5q0 35 35 73q4 2 5 2q5 0 7 -5t-3 -9q-31 -28 -31 -59q0 -29 25 -53.5t59 -35.5q9 0 12 1q5 5 11 15q29 33 65 55q36 20 66 26q24 3 26 3q7 0 11 -1q14 -3 26 -12
q12 -11 12 -27q0 -14 -7 -24q-11 -18 -32 -29q-24 -13 -49 -17q-6 0 -10.5 -1t-7.5 -2q-10 -2 -14 -1l-25 -2q-10 1 -30 1q-2 1 -5 0.5t-5 0.5q-11 -13 -19 -30q-13 -24 -15 -52q-1 -3 -1 -10q0 -12 5 -27q3 -10 16 -35q7 -13 17 -26t12 -16q5 -7 5 -8l5 -10q-2 -2 -2 -4
t-1 -3q-1 0 -2 -0.5t-2 0.5q-5 1 -13 6q-8 7 -17.5 10t-27.5 6q-33 3 -67 -10q-61 -23 -104 -65q-51 -53 -60 -122q-2 -10 -2 -29q0 -22 4 -39q6 -34 31 -62q39 -42 102 -55q18 -4 35 -3q60 8 88 55q7 15 11 26t4 24q0 16 -10.5 30t-27.5 17q-18 2 -22 4.5t5 5.5q4 1 13 1
t18 -3q22 -8 30 -31q5 -10 5 -26q0 -12 -1 -18q-4 -23 -20 -48q-27 -41 -76 -54q-20 -5 -35 -5q-7 0 -21 2q-50 8 -90 32zM400 584q26 8 40 23q11 11 14 23v3q0 10 -7 17q-8 7 -23 7q-26 0 -48 -12q-42 -21 -82 -66q-1 -1 -3 -5q16 -4 38 -2q33 0 71 12z" />
    <glyph glyph-name="ebreve" unicode="&#x115;" horiz-adv-x="563" 
d="M292 606q-69 0 -108.5 33.5t-44.5 100.5h54q4 -35 24.5 -49t76.5 -14q49 0 73 15.5t28 47.5h55q-6 -64 -48 -99t-110 -35zM-36 195q0 54 44 98q3 4 19 15q10 7 21 4q3 -2 6 -4.5t2 -7.5q-2 -19 -10.5 -26t-28.5 -12l-14 -26q-11 -22 -11 -56q4 -27 33 -27q38 0 103 38
t111 76q4 2 7 0t0 -6q-24 -23 -67.5 -52.5t-89 -50t-77.5 -20.5q-40 0 -47 37q-3 10 -1 20zM42 282q7 9 3 13q-4 1 -8 -3q-2 -3 -6.5 -7.5t-10.5 -13.5q15 2 22 11z" />
    <glyph glyph-name="Edotaccent" unicode="&#x116;" horiz-adv-x="556" 
d="M253 832q0 29 15 42.5t37 13.5q21 0 36 -13.5t15 -42.5t-15.5 -42.5t-35.5 -13.5q-22 0 -37 13.5t-15 42.5zM53 -8q-43 28 -62 67q-11 26 -12 40l-3 22q-1 6 -1 18q0 29 8 61q16 59 62 109q22 23 64 47q27 15 66 25q17 4 38 4q23 0 38 -5l16 -5q-1 1 -1 3q-16 16 -31 34
q-21 30 -21 66q0 15 6 39q9 26 18 40q4 6 4 9q-1 3 -3.5 3h-2.5q-33 7 -63.5 33.5t-30.5 62.5q0 35 35 73q4 2 5 2q5 0 7 -5t-3 -9q-31 -28 -31 -59q0 -29 25 -53.5t59 -35.5q9 0 12 1q5 5 11 15q29 33 65 55q36 20 66 26q24 3 26 3q7 0 11 -1q14 -3 26 -12q12 -11 12 -27
q0 -14 -7 -24q-11 -18 -32 -29q-24 -13 -49 -17q-6 0 -10.5 -1t-7.5 -2q-10 -2 -14 -1l-25 -2q-10 1 -30 1q-2 1 -5 0.5t-5 0.5q-11 -13 -19 -30q-13 -24 -15 -52q-1 -3 -1 -10q0 -12 5 -27q3 -10 16 -35q7 -13 17 -26t12 -16q5 -7 5 -8l5 -10q-2 -2 -2 -4t-1 -3
q-1 0 -2 -0.5t-2 0.5q-5 1 -13 6q-8 7 -17.5 10t-27.5 6q-33 3 -67 -10q-61 -23 -104 -65q-51 -53 -60 -122q-2 -10 -2 -29q0 -22 4 -39q6 -34 31 -62q39 -42 102 -55q18 -4 35 -3q60 8 88 55q7 15 11 26t4 24q0 16 -10.5 30t-27.5 17q-18 2 -22 4.5t5 5.5q4 1 13 1t18 -3
q22 -8 30 -31q5 -10 5 -26q0 -12 -1 -18q-4 -23 -20 -48q-27 -41 -76 -54q-20 -5 -35 -5q-7 0 -21 2q-50 8 -90 32zM400 584q26 8 40 23q11 11 14 23v3q0 10 -7 17q-8 7 -23 7q-26 0 -48 -12q-42 -21 -82 -66q-1 -1 -3 -5q16 -4 38 -2q33 0 71 12z" />
    <glyph glyph-name="edotaccent" unicode="&#x117;" horiz-adv-x="563" 
d="M243 681q0 29 15 42.5t37 13.5q21 0 36 -13.5t15 -42.5t-15.5 -42.5t-35.5 -13.5q-22 0 -37 13.5t-15 42.5zM-36 195q0 54 44 98q3 4 19 15q10 7 21 4q3 -2 6 -4.5t2 -7.5q-2 -19 -10.5 -26t-28.5 -12l-14 -26q-11 -22 -11 -56q4 -27 33 -27q38 0 103 38t111 76q4 2 7 0
t0 -6q-24 -23 -67.5 -52.5t-89 -50t-77.5 -20.5q-40 0 -47 37q-3 10 -1 20zM42 282q7 9 3 13q-4 1 -8 -3q-2 -3 -6.5 -7.5t-10.5 -13.5q15 2 22 11z" />
    <glyph glyph-name="Eogonek" unicode="&#x118;" horiz-adv-x="556" 
d="M392 -116q0 -22 12 -33.5t33 -11.5t48 6v-56q-34 -9 -62 -9q-103 0 -103 94q0 68 78 126h62q-34 -32 -51 -58.5t-17 -57.5zM53 -8q-43 28 -62 67q-11 26 -12 40l-3 22q-1 6 -1 18q0 29 8 61q16 59 62 109q22 23 64 47q27 15 66 25q17 4 38 4q23 0 38 -5l16 -5q-1 1 -1 3
q-16 16 -31 34q-21 30 -21 66q0 15 6 39q9 26 18 40q4 6 4 9q-1 3 -3.5 3h-2.5q-33 7 -63.5 33.5t-30.5 62.5q0 35 35 73q4 2 5 2q5 0 7 -5t-3 -9q-31 -28 -31 -59q0 -29 25 -53.5t59 -35.5q9 0 12 1q5 5 11 15q29 33 65 55q36 20 66 26q24 3 26 3q7 0 11 -1q14 -3 26 -12
q12 -11 12 -27q0 -14 -7 -24q-11 -18 -32 -29q-24 -13 -49 -17q-6 0 -10.5 -1t-7.5 -2q-10 -2 -14 -1l-25 -2q-10 1 -30 1q-2 1 -5 0.5t-5 0.5q-11 -13 -19 -30q-13 -24 -15 -52q-1 -3 -1 -10q0 -12 5 -27q3 -10 16 -35q7 -13 17 -26t12 -16q5 -7 5 -8l5 -10q-2 -2 -2 -4
t-1 -3q-1 0 -2 -0.5t-2 0.5q-5 1 -13 6q-8 7 -17.5 10t-27.5 6q-33 3 -67 -10q-61 -23 -104 -65q-51 -53 -60 -122q-2 -10 -2 -29q0 -22 4 -39q6 -34 31 -62q39 -42 102 -55q18 -4 35 -3q60 8 88 55q7 15 11 26t4 24q0 16 -10.5 30t-27.5 17q-18 2 -22 4.5t5 5.5q4 1 13 1
t18 -3q22 -8 30 -31q5 -10 5 -26q0 -12 -1 -18q-4 -23 -20 -48q-27 -41 -76 -54q-20 -5 -35 -5q-7 0 -21 2q-50 8 -90 32zM400 584q26 8 40 23q11 11 14 23v3q0 10 -7 17q-8 7 -23 7q-26 0 -48 -12q-42 -21 -82 -66q-1 -1 -3 -5q16 -4 38 -2q33 0 71 12z" />
    <glyph glyph-name="eogonek" unicode="&#x119;" horiz-adv-x="563" 
d="M387 -102q0 -22 12 -33.5t33 -11.5t48 6v-56q-34 -9 -62 -9q-103 0 -103 94q0 68 78 126h62q-34 -32 -51 -58.5t-17 -57.5zM-36 195q0 54 44 98q3 4 19 15q10 7 21 4q3 -2 6 -4.5t2 -7.5q-2 -19 -10.5 -26t-28.5 -12l-14 -26q-11 -22 -11 -56q4 -27 33 -27q38 0 103 38
t111 76q4 2 7 0t0 -6q-24 -23 -67.5 -52.5t-89 -50t-77.5 -20.5q-40 0 -47 37q-3 10 -1 20zM42 282q7 9 3 13q-4 1 -8 -3q-2 -3 -6.5 -7.5t-10.5 -13.5q15 2 22 11z" />
    <glyph glyph-name="Ecaron" unicode="&#x11a;" horiz-adv-x="556" 
d="M133 931h60q56 -36 107 -92q62 62 109 92h62v-13q-100 -100 -125 -147h-90q-29 50 -123 147v13zM53 -8q-43 28 -62 67q-11 26 -12 40l-3 22q-1 6 -1 18q0 29 8 61q16 59 62 109q22 23 64 47q27 15 66 25q17 4 38 4q23 0 38 -5l16 -5q-1 1 -1 3q-16 16 -31 34
q-21 30 -21 66q0 15 6 39q9 26 18 40q4 6 4 9q-1 3 -3.5 3h-2.5q-33 7 -63.5 33.5t-30.5 62.5q0 35 35 73q4 2 5 2q5 0 7 -5t-3 -9q-31 -28 -31 -59q0 -29 25 -53.5t59 -35.5q9 0 12 1q5 5 11 15q29 33 65 55q36 20 66 26q24 3 26 3q7 0 11 -1q14 -3 26 -12q12 -11 12 -27
q0 -14 -7 -24q-11 -18 -32 -29q-24 -13 -49 -17q-6 0 -10.5 -1t-7.5 -2q-10 -2 -14 -1l-25 -2q-10 1 -30 1q-2 1 -5 0.5t-5 0.5q-11 -13 -19 -30q-13 -24 -15 -52q-1 -3 -1 -10q0 -12 5 -27q3 -10 16 -35q7 -13 17 -26t12 -16q5 -7 5 -8l5 -10q-2 -2 -2 -4t-1 -3
q-1 0 -2 -0.5t-2 0.5q-5 1 -13 6q-8 7 -17.5 10t-27.5 6q-33 3 -67 -10q-61 -23 -104 -65q-51 -53 -60 -122q-2 -10 -2 -29q0 -22 4 -39q6 -34 31 -62q39 -42 102 -55q18 -4 35 -3q60 8 88 55q7 15 11 26t4 24q0 16 -10.5 30t-27.5 17q-18 2 -22 4.5t5 5.5q4 1 13 1t18 -3
q22 -8 30 -31q5 -10 5 -26q0 -12 -1 -18q-4 -23 -20 -48q-27 -41 -76 -54q-20 -5 -35 -5q-7 0 -21 2q-50 8 -90 32zM400 584q26 8 40 23q11 11 14 23v3q0 10 -7 17q-8 7 -23 7q-26 0 -48 -12q-42 -21 -82 -66q-1 -1 -3 -5q16 -4 38 -2q33 0 71 12z" />
    <glyph glyph-name="ecaron" unicode="&#x11b;" horiz-adv-x="563" 
d="M126 766h60q56 -36 107 -92q62 62 109 92h62v-13q-100 -100 -125 -147h-90q-29 50 -123 147v13zM-36 195q0 54 44 98q3 4 19 15q10 7 21 4q3 -2 6 -4.5t2 -7.5q-2 -19 -10.5 -26t-28.5 -12l-14 -26q-11 -22 -11 -56q4 -27 33 -27q38 0 103 38t111 76q4 2 7 0t0 -6
q-24 -23 -67.5 -52.5t-89 -50t-77.5 -20.5q-40 0 -47 37q-3 10 -1 20zM42 282q7 9 3 13q-4 1 -8 -3q-2 -3 -6.5 -7.5t-10.5 -13.5q15 2 22 11z" />
    <glyph glyph-name="Gcircumflex" unicode="&#x11c;" horiz-adv-x="728" 
d="M248 782q61 65 86 96.5t37 52.5h90q25 -49 125 -149v-11h-62q-44 26 -109 90q-64 -62 -107 -90h-60v11zM467 553q0 -19 -11 -38q-15 -23 -38 -42q-25 -21 -63 -36l-45 -14q-7 -1 -17.5 -3.5t-17.5 -3.5q-8 0 -20 -2q-20 -2 -29 -2q-9 -1 -27 -1q-35 0 -75 5h-3l-7 -8
q-38 -51 -53 -100q-8 -28 -8 -46q-3 -30 23 -51q27 -19 55 -19q8 0 12 1q44 6 76 30q13 9 27 26q11 14 18 28q3 5 6 10.5t5 11.5q1 1 4 6.5t9 8.5h2q12 0 17 -17q-1 -33 -9 -71q-27 -112 -62 -185q-26 -56 -57 -93q-42 -52 -95 -79q-50 -26 -100 -26q-42 0 -74 22
q-29 19 -42 48q-7 17 -7 37q2 43 19 74q10 21 31 39q28 22 61 29q19 5 57 5q62 -6 90 -13q4 -2 8.5 -3.5t9.5 -3.5q3 -3 5 -3q-2 -5 -6 -4l-5 1q-40 10 -89 13q-21 0 -31 -2q-18 -2 -29 -4q-34 -11 -48 -20q-31 -19 -43 -51q-10 -24 -11 -44q-4 -37 25 -62q17 -17 37 -23
q13 -4 33 -4q53 0 111 36q34 21 66 59q32 37 51 84q32 62 50 139q4 17 11 41q1 6 4.5 17.5t4.5 17.5q-2 -4 -8 -12.5t-9 -12.5q-37 -42 -81 -57q-40 -15 -73 -12q-40 5 -61 25q-17 17 -20 40q-3 14 -3 27q0 15 5 35q9 38 33 82l24 37l-4 3q-51 21 -77.5 56.5t-26.5 77.5
q0 20 6 41q4 8 9 8q3 0 4.5 -3.5t0.5 -7.5q-5 -17 -5 -40q0 -82 97 -121l6 -1l16 20q43 50 83 82q27 24 67 46q22 13 58 26q9 3 21.5 5.5t19.5 3.5q16 2 23 2q15 0 33 -3q19 -3 34 -15q16 -13 20 -31q2 -10 2 -16zM423 588l-8 3q-7 2 -21 2t-31 -3q-2 -1 -5 -2t-5 -2
q-20 -4 -28 -8q-38 -16 -83 -44q-46 -32 -97 -88l-14 -17l7 -3q34 -2 53 -2q22 0 33 2q7 1 20 1q28 2 41 5q40 9 51 13q44 17 66 32q22 16 37 38q10 13 12 32q2 32 -28 41z" />
    <glyph glyph-name="gcircumflex" unicode="&#x11d;" horiz-adv-x="615" 
d="M132 617q61 65 86 96.5t37 52.5h90q25 -49 125 -149v-11h-62q-44 26 -109 90q-64 -62 -107 -90h-60v11zM-258 -295q-26 0 -45.5 11t-26.5 34v2q-4 16 -4 35q0 48 25 96q14 30 51 75q40 46 102 98q55 45 126 88l32 20q4 37 2 34q-4 -4 -15.5 -15t-16.5 -17l-9 -7
q-6 -3 -11 -3q-11 0 -14 14q-3 8 -3 16q0 28 15 53q16 27 42 34q8 3 16 3q6 0 9 -1q12 -3 21 -16q1 -1 0 -3t-3 -1q-2 2 -3.5 2.5t-2.5 0.5q-8 4 -12 4q-8 0 -15 -6q-10 -5 -22 -23q-18 -33 -21 -62q1 -1 2 -0.5t2 0.5q8 4 14.5 11t9.5 10l11 11q4 4 10 16q3 8 8 14q1 2 5 6
q4 6 10 4q14 0 15 -8q1 -12 -5 -45q51 32 96.5 52.5t78.5 26.5h2q5 0 5 -4t-4 -5q-33 -8 -81 -30t-100 -55l-1 -9l-2 -13q-1 -5 -11.5 -61.5t-18.5 -90.5q-17 -60 -43 -113q-25 -57 -71 -104q-32 -33 -72 -57q-27 -15 -48 -19q-14 -3 -29 -3zM-262 -279q12 0 26 3
q21 6 39 17q54 37 91 90q22 33 36 64q23 50 39 108q14 44 27 119l4 27q-34 -20 -36 -22q-16 -10 -48 -32q-69 -47 -123 -99t-79 -92q-3 -5 -11 -18.5t-12 -25.5q-14 -39 -14 -69q0 -7 2 -25q10 -36 34 -42q12 -3 25 -3z" />
    <glyph glyph-name="Gbreve" unicode="&#x11e;" horiz-adv-x="728" 
d="M414 771q-69 0 -108.5 33.5t-44.5 100.5h54q4 -35 24.5 -49t76.5 -14q49 0 73 15.5t28 47.5h55q-6 -64 -48 -99t-110 -35zM467 553q0 -19 -11 -38q-15 -23 -38 -42q-25 -21 -63 -36l-45 -14q-7 -1 -17.5 -3.5t-17.5 -3.5q-8 0 -20 -2q-20 -2 -29 -2q-9 -1 -27 -1
q-35 0 -75 5h-3l-7 -8q-38 -51 -53 -100q-8 -28 -8 -46q-3 -30 23 -51q27 -19 55 -19q8 0 12 1q44 6 76 30q13 9 27 26q11 14 18 28q3 5 6 10.5t5 11.5q1 1 4 6.5t9 8.5h2q12 0 17 -17q-1 -33 -9 -71q-27 -112 -62 -185q-26 -56 -57 -93q-42 -52 -95 -79q-50 -26 -100 -26
q-42 0 -74 22q-29 19 -42 48q-7 17 -7 37q2 43 19 74q10 21 31 39q28 22 61 29q19 5 57 5q62 -6 90 -13q4 -2 8.5 -3.5t9.5 -3.5q3 -3 5 -3q-2 -5 -6 -4l-5 1q-40 10 -89 13q-21 0 -31 -2q-18 -2 -29 -4q-34 -11 -48 -20q-31 -19 -43 -51q-10 -24 -11 -44q-4 -37 25 -62
q17 -17 37 -23q13 -4 33 -4q53 0 111 36q34 21 66 59q32 37 51 84q32 62 50 139q4 17 11 41q1 6 4.5 17.5t4.5 17.5q-2 -4 -8 -12.5t-9 -12.5q-37 -42 -81 -57q-40 -15 -73 -12q-40 5 -61 25q-17 17 -20 40q-3 14 -3 27q0 15 5 35q9 38 33 82l24 37l-4 3q-51 21 -77.5 56.5
t-26.5 77.5q0 20 6 41q4 8 9 8q3 0 4.5 -3.5t0.5 -7.5q-5 -17 -5 -40q0 -82 97 -121l6 -1l16 20q43 50 83 82q27 24 67 46q22 13 58 26q9 3 21.5 5.5t19.5 3.5q16 2 23 2q15 0 33 -3q19 -3 34 -15q16 -13 20 -31q2 -10 2 -16zM423 588l-8 3q-7 2 -21 2t-31 -3q-2 -1 -5 -2
t-5 -2q-20 -4 -28 -8q-38 -16 -83 -44q-46 -32 -97 -88l-14 -17l7 -3q34 -2 53 -2q22 0 33 2q7 1 20 1q28 2 41 5q40 9 51 13q44 17 66 32q22 16 37 38q10 13 12 32q2 32 -28 41z" />
    <glyph glyph-name="gbreve" unicode="&#x11f;" horiz-adv-x="615" 
d="M300 606q-69 0 -108.5 33.5t-44.5 100.5h54q4 -35 24.5 -49t76.5 -14q49 0 73 15.5t28 47.5h55q-6 -64 -48 -99t-110 -35zM-258 -295q-26 0 -45.5 11t-26.5 34v2q-4 16 -4 35q0 48 25 96q14 30 51 75q40 46 102 98q55 45 126 88l32 20q4 37 2 34q-4 -4 -15.5 -15
t-16.5 -17l-9 -7q-6 -3 -11 -3q-11 0 -14 14q-3 8 -3 16q0 28 15 53q16 27 42 34q8 3 16 3q6 0 9 -1q12 -3 21 -16q1 -1 0 -3t-3 -1q-2 2 -3.5 2.5t-2.5 0.5q-8 4 -12 4q-8 0 -15 -6q-10 -5 -22 -23q-18 -33 -21 -62q1 -1 2 -0.5t2 0.5q8 4 14.5 11t9.5 10l11 11q4 4 10 16
q3 8 8 14q1 2 5 6q4 6 10 4q14 0 15 -8q1 -12 -5 -45q51 32 96.5 52.5t78.5 26.5h2q5 0 5 -4t-4 -5q-33 -8 -81 -30t-100 -55l-1 -9l-2 -13q-1 -5 -11.5 -61.5t-18.5 -90.5q-17 -60 -43 -113q-25 -57 -71 -104q-32 -33 -72 -57q-27 -15 -48 -19q-14 -3 -29 -3zM-262 -279
q12 0 26 3q21 6 39 17q54 37 91 90q22 33 36 64q23 50 39 108q14 44 27 119l4 27q-34 -20 -36 -22q-16 -10 -48 -32q-69 -47 -123 -99t-79 -92q-3 -5 -11 -18.5t-12 -25.5q-14 -39 -14 -69q0 -7 2 -25q10 -36 34 -42q12 -3 25 -3z" />
    <glyph glyph-name="Gdotaccent" unicode="&#x120;" horiz-adv-x="728" 
d="M371 846q0 29 15 42.5t37 13.5q21 0 36 -13.5t15 -42.5t-15.5 -42.5t-35.5 -13.5q-22 0 -37 13.5t-15 42.5zM467 553q0 -19 -11 -38q-15 -23 -38 -42q-25 -21 -63 -36l-45 -14q-7 -1 -17.5 -3.5t-17.5 -3.5q-8 0 -20 -2q-20 -2 -29 -2q-9 -1 -27 -1q-35 0 -75 5h-3l-7 -8
q-38 -51 -53 -100q-8 -28 -8 -46q-3 -30 23 -51q27 -19 55 -19q8 0 12 1q44 6 76 30q13 9 27 26q11 14 18 28q3 5 6 10.5t5 11.5q1 1 4 6.5t9 8.5h2q12 0 17 -17q-1 -33 -9 -71q-27 -112 -62 -185q-26 -56 -57 -93q-42 -52 -95 -79q-50 -26 -100 -26q-42 0 -74 22
q-29 19 -42 48q-7 17 -7 37q2 43 19 74q10 21 31 39q28 22 61 29q19 5 57 5q62 -6 90 -13q4 -2 8.5 -3.5t9.5 -3.5q3 -3 5 -3q-2 -5 -6 -4l-5 1q-40 10 -89 13q-21 0 -31 -2q-18 -2 -29 -4q-34 -11 -48 -20q-31 -19 -43 -51q-10 -24 -11 -44q-4 -37 25 -62q17 -17 37 -23
q13 -4 33 -4q53 0 111 36q34 21 66 59q32 37 51 84q32 62 50 139q4 17 11 41q1 6 4.5 17.5t4.5 17.5q-2 -4 -8 -12.5t-9 -12.5q-37 -42 -81 -57q-40 -15 -73 -12q-40 5 -61 25q-17 17 -20 40q-3 14 -3 27q0 15 5 35q9 38 33 82l24 37l-4 3q-51 21 -77.5 56.5t-26.5 77.5
q0 20 6 41q4 8 9 8q3 0 4.5 -3.5t0.5 -7.5q-5 -17 -5 -40q0 -82 97 -121l6 -1l16 20q43 50 83 82q27 24 67 46q22 13 58 26q9 3 21.5 5.5t19.5 3.5q16 2 23 2q15 0 33 -3q19 -3 34 -15q16 -13 20 -31q2 -10 2 -16zM423 588l-8 3q-7 2 -21 2t-31 -3q-2 -1 -5 -2t-5 -2
q-20 -4 -28 -8q-38 -16 -83 -44q-46 -32 -97 -88l-14 -17l7 -3q34 -2 53 -2q22 0 33 2q7 1 20 1q28 2 41 5q40 9 51 13q44 17 66 32q22 16 37 38q10 13 12 32q2 32 -28 41z" />
    <glyph glyph-name="gdotaccent" unicode="&#x121;" horiz-adv-x="615" 
d="M247 681q0 29 15 42.5t37 13.5q21 0 36 -13.5t15 -42.5t-15.5 -42.5t-35.5 -13.5q-22 0 -37 13.5t-15 42.5zM-258 -295q-26 0 -45.5 11t-26.5 34v2q-4 16 -4 35q0 48 25 96q14 30 51 75q40 46 102 98q55 45 126 88l32 20q4 37 2 34q-4 -4 -15.5 -15t-16.5 -17l-9 -7
q-6 -3 -11 -3q-11 0 -14 14q-3 8 -3 16q0 28 15 53q16 27 42 34q8 3 16 3q6 0 9 -1q12 -3 21 -16q1 -1 0 -3t-3 -1q-2 2 -3.5 2.5t-2.5 0.5q-8 4 -12 4q-8 0 -15 -6q-10 -5 -22 -23q-18 -33 -21 -62q1 -1 2 -0.5t2 0.5q8 4 14.5 11t9.5 10l11 11q4 4 10 16q3 8 8 14q1 2 5 6
q4 6 10 4q14 0 15 -8q1 -12 -5 -45q51 32 96.5 52.5t78.5 26.5h2q5 0 5 -4t-4 -5q-33 -8 -81 -30t-100 -55l-1 -9l-2 -13q-1 -5 -11.5 -61.5t-18.5 -90.5q-17 -60 -43 -113q-25 -57 -71 -104q-32 -33 -72 -57q-27 -15 -48 -19q-14 -3 -29 -3zM-262 -279q12 0 26 3
q21 6 39 17q54 37 91 90q22 33 36 64q23 50 39 108q14 44 27 119l4 27q-34 -20 -36 -22q-16 -10 -48 -32q-69 -47 -123 -99t-79 -92q-3 -5 -11 -18.5t-12 -25.5q-14 -39 -14 -69q0 -7 2 -25q10 -36 34 -42q12 -3 25 -3z" />
    <glyph glyph-name="uni0122" unicode="&#x122;" horiz-adv-x="728" 
d="M322 -209q11 25 24 70.5t17 77.5h87v-9q-8 -31 -31.5 -76.5t-48.5 -74.5h-48v12zM467 553q0 -19 -11 -38q-15 -23 -38 -42q-25 -21 -63 -36l-45 -14q-7 -1 -17.5 -3.5t-17.5 -3.5q-8 0 -20 -2q-20 -2 -29 -2q-9 -1 -27 -1q-35 0 -75 5h-3l-7 -8q-38 -51 -53 -100
q-8 -28 -8 -46q-3 -30 23 -51q27 -19 55 -19q8 0 12 1q44 6 76 30q13 9 27 26q11 14 18 28q3 5 6 10.5t5 11.5q1 1 4 6.5t9 8.5h2q12 0 17 -17q-1 -33 -9 -71q-27 -112 -62 -185q-26 -56 -57 -93q-42 -52 -95 -79q-50 -26 -100 -26q-42 0 -74 22q-29 19 -42 48q-7 17 -7 37
q2 43 19 74q10 21 31 39q28 22 61 29q19 5 57 5q62 -6 90 -13q4 -2 8.5 -3.5t9.5 -3.5q3 -3 5 -3q-2 -5 -6 -4l-5 1q-40 10 -89 13q-21 0 -31 -2q-18 -2 -29 -4q-34 -11 -48 -20q-31 -19 -43 -51q-10 -24 -11 -44q-4 -37 25 -62q17 -17 37 -23q13 -4 33 -4q53 0 111 36
q34 21 66 59q32 37 51 84q32 62 50 139q4 17 11 41q1 6 4.5 17.5t4.5 17.5q-2 -4 -8 -12.5t-9 -12.5q-37 -42 -81 -57q-40 -15 -73 -12q-40 5 -61 25q-17 17 -20 40q-3 14 -3 27q0 15 5 35q9 38 33 82l24 37l-4 3q-51 21 -77.5 56.5t-26.5 77.5q0 20 6 41q4 8 9 8
q3 0 4.5 -3.5t0.5 -7.5q-5 -17 -5 -40q0 -82 97 -121l6 -1l16 20q43 50 83 82q27 24 67 46q22 13 58 26q9 3 21.5 5.5t19.5 3.5q16 2 23 2q15 0 33 -3q19 -3 34 -15q16 -13 20 -31q2 -10 2 -16zM423 588l-8 3q-7 2 -21 2t-31 -3q-2 -1 -5 -2t-5 -2q-20 -4 -28 -8
q-38 -16 -83 -44q-46 -32 -97 -88l-14 -17l7 -3q34 -2 53 -2q22 0 33 2q7 1 20 1q28 2 41 5q40 9 51 13q44 17 66 32q22 16 37 38q10 13 12 32q2 32 -28 41z" />
    <glyph glyph-name="uni0123" unicode="&#x123;" horiz-adv-x="615" 
d="M379 754q-13 -29 -26 -74.5t-16 -73.5h-87v9q7 27 31.5 74t48.5 77h49v-12zM-258 -295q-26 0 -45.5 11t-26.5 34v2q-4 16 -4 35q0 48 25 96q14 30 51 75q40 46 102 98q55 45 126 88l32 20q4 37 2 34q-4 -4 -15.5 -15t-16.5 -17l-9 -7q-6 -3 -11 -3q-11 0 -14 14
q-3 8 -3 16q0 28 15 53q16 27 42 34q8 3 16 3q6 0 9 -1q12 -3 21 -16q1 -1 0 -3t-3 -1q-2 2 -3.5 2.5t-2.5 0.5q-8 4 -12 4q-8 0 -15 -6q-10 -5 -22 -23q-18 -33 -21 -62q1 -1 2 -0.5t2 0.5q8 4 14.5 11t9.5 10l11 11q4 4 10 16q3 8 8 14q1 2 5 6q4 6 10 4q14 0 15 -8
q1 -12 -5 -45q51 32 96.5 52.5t78.5 26.5h2q5 0 5 -4t-4 -5q-33 -8 -81 -30t-100 -55l-1 -9l-2 -13q-1 -5 -11.5 -61.5t-18.5 -90.5q-17 -60 -43 -113q-25 -57 -71 -104q-32 -33 -72 -57q-27 -15 -48 -19q-14 -3 -29 -3zM-262 -279q12 0 26 3q21 6 39 17q54 37 91 90
q22 33 36 64q23 50 39 108q14 44 27 119l4 27q-34 -20 -36 -22q-16 -10 -48 -32q-69 -47 -123 -99t-79 -92q-3 -5 -11 -18.5t-12 -25.5q-14 -39 -14 -69q0 -7 2 -25q10 -36 34 -42q12 -3 25 -3z" />
    <glyph glyph-name="Hcircumflex" unicode="&#x124;" horiz-adv-x="741" 
d="M200 782q61 65 86 96.5t37 52.5h90q25 -49 125 -149v-11h-62q-44 26 -109 90q-64 -62 -107 -90h-60v11zM241 18q-13 15 -15 38q-2 10 -2 30q0 23 4 42q7 34 21 72q18 56 59 132l3 7q-2 3 -6 1q-34 -15 -75 -25q-12 -3 -53 -13l-42 -9l-16 -3l-7 -8q-22 -35 -54 -76
q-37 -45 -74 -73q-14 -10 -36 -22q-14 -8 -31 -8q-16 0 -25 13q-11 15 -9 34q4 29 21 55q23 36 67 55q30 12 61 18l37 8l9 3q10 16 28 48q30 54 68 139q42 93 59 126q28 54 44 80q4 7 9 15.5t10 13.5q4 3 9 1q7 -4 4 -13q-2 -8 -4 -11q-4 -11 -8.5 -20.5t-7.5 -16.5l-12 -27
q-31 -70 -38 -86l-40 -90q-33 -76 -72 -142l-3 -7v-2h6l51 11q18 4 27 7q58 15 103 34l7 4l9 16q35 61 80 129q30 42 47 61q30 34 53 51q12 10 23 14q8 2 11 2q8 0 14.5 -5.5t7.5 -15.5q1 -4 1 -13q0 -14 -4 -26q-6 -19 -17 -38q-32 -52 -78 -93q-40 -35 -88 -61l-9 -5
q-6 -3 -10 -10q-46 -86 -71 -145q-24 -59 -34 -96q-6 -24 -9 -48q0 -23 4 -34q6 -20 27 -23h5q22 2 45 22q28 26 42 52q3 6 5.5 7.5t4 0t0.5 -4.5q-8 -17 -19 -31q-23 -31 -43 -43q-21 -14 -43 -13q-18 0 -31 15zM466 447q39 37 68 89q10 22 13 33q3 13 2 25q0 9 -6 13
q-6 -1 -12 -7q-6 -4 -16 -14q-49 -51 -87 -111q-8 -12 -37 -60q-5 -7 -8 -12.5t-6 -10.5l-6 -11q54 26 95 66zM-88 117q11 0 18 4q10 4 20 11q19 12 37 32q29 30 54 68q6 9 27 41q0 1 1.5 3t0.5 4h-2q-2 0 -14 -3q-27 -4 -56 -14q-41 -14 -65 -35q-35 -30 -42 -75
q-3 -22 15 -36h6z" />
    <glyph glyph-name="hcircumflex" unicode="&#x125;" horiz-adv-x="618" 
d="M143 809q61 65 86 96.5t37 52.5h90q25 -49 125 -149v-11h-62q-44 26 -109 90q-64 -62 -107 -90h-60v11zM48 -79q-9 12 -13 35q-1 5 -1 16q0 14 3 29q6 39 21 75l31 81q10 25 14 45v7q-1 0 -2.5 0.5t-2.5 -0.5q-29 -10 -53 -34q-26 -26 -49 -55q-10 -12 -16 -16
q-6 -6 -15 -5q-10 4 -12 16q-4 26 -4 39q0 32 15 83l14 39q1 3 4 11.5t6 14.5q33 84 88 186q33 61 65 109q38 57 73 96q48 53 97 81q24 14 44 19q12 4 29 4q41 0 56 -33q7 -15 7 -33q0 -34 -17 -73q-22 -51 -56 -99q-71 -102 -170 -172q-73 -53 -166 -86q-8 -2 -12 -4l-4 -2
l-14 -36l-27 -81q-7 -27 -8 -35l-1 -7v-16q1 -1 4 1l25 27q23 30 59 62q9 9 29 21q7 4 13 5q3 1 9 1q12 0 19 -8t7 -21q0 -16 -7 -35q-5 -18 -14 -41l-22 -56q-21 -55 -28 -106l-1 -13q0 -10 3 -22q7 -18 21 -19h4q7 0 10 1q21 4 39 18q37 26 74 63q52 54 81 92q38 50 56 76
q19 28 59 84q12 15 16 19q2 2 4 0.5t2 -3.5q-1 -3 -6.5 -9t-6.5 -9l-61 -93l-22 -30q-30 -41 -65 -83q-60 -69 -110 -110q-18 -15 -36 -23q-22 -10 -40 -10q-26 0 -39 22zM39 313q86 32 151 80q97 69 163 160q33 45 54 92q18 39 22 67q1 5 1 15q0 12 -3 22q-4 13 -14 21
t-24 7q-21 -2 -31 -6q-21 -10 -25 -13q-39 -22 -73 -61q-38 -43 -65 -82q-33 -47 -67 -105q-44 -76 -85 -165l-14 -33q4 -2 10 1z" />
    <glyph glyph-name="Hbar" unicode="&#x126;" horiz-adv-x="741" 
d="M97 595v119h90v-119h366v119h90v-119h97v-72h-97v-523h-90v333h-366v-333h-90v523h-97v72h97zM553 412v111h-366v-111h366z" />
    <glyph glyph-name="hbar" unicode="&#x127;" horiz-adv-x="618" 
d="M450 0v323q0 65 -29 97t-91 32q-83 0 -120 -45t-37 -149v-258h-88v604h-76v66h76v90h88v-90h212v-66h-212v-87q0 -43 -5 -74h6q26 42 70.5 62.5t97.5 20.5q97 0 146 -47t49 -150v-329h-87z" />
    <glyph glyph-name="Itilde" unicode="&#x128;" horiz-adv-x="338" 
d="M244 772q-21 0 -41 9t-39.5 19.5t-37 19.5t-34.5 9q-24 0 -36 -14.5t-19 -43.5h-51q6 60 34 94t76 34q22 0 42.5 -9t39.5 -19.5t37 -19.5t33 -9q23 0 35.5 14.5t19.5 43.5h50q-6 -58 -34 -93t-75 -35zM348 672q3 0 5.5 -2t2.5 -6q-1 -2 -1 -4.5t-2 -5.5l-11 -22
q-5 -11 -60 -96l-28 -44q-64 -116 -91 -176l-68 -151l-9 -20q-1 -3 -3 -8.5t-6 -12.5l-2 -9l8 -7q26 -24 23 -54q-5 -33 -22 -56q-12 -13 -28 -19q-18 1 -25 23q-4 13 -4 30q0 29 11 73l3 8l-2 3q-26 0 -42 -6q-4 -2 -7.5 -4t-5.5 -3l-1.5 -0.5t-2.5 1.5q11 12 27 14
q11 3 23 3q3 0 13 2q2 2 2 7q26 70 42 104l12 27q33 70 40 85q31 66 69 125q22 34 52.5 79.5t45.5 65.5l2.5 5t4.5 6q2 2 0 5q-2 0 -4 -1.5t-3 -2.5l-32 -20q-33 -20 -84 -36l-20 -5l-36 -9q-2 2 -2 3q0 5 22 9q27 8 54 17q39 14 82 44q18 11 47 36q1 1 2.5 2t4.5 2q1 1 4 1
zM315.5 631.5q0.5 0.5 -0.5 1.5q-1 0 -1 -1q1 -1 1.5 -0.5zM73.5 106q-1.5 0 -2.5 1q-8 -17 -15 -42q-8 -25 -8 -59q1 -2 2.5 -7t6.5 -6q13 4 24 18q17 25 17 51q0 27 -22 43q-1 1 -2.5 1z" />
    <glyph glyph-name="itilde" unicode="&#x129;" horiz-adv-x="257" 
d="M204 607q-21 0 -41 9t-39.5 19.5t-37 19.5t-34.5 9q-24 0 -36 -14.5t-19 -43.5h-51q6 60 34 94t76 34q22 0 42.5 -9t39.5 -19.5t37 -19.5t33 -9q23 0 35.5 14.5t19.5 43.5h50q-6 -58 -34 -93t-75 -35zM173 0h-88v536h88v-536z" />
    <glyph glyph-name="Imacron" unicode="&#x12a;" horiz-adv-x="338" 
d="M21 842h297v-71h-297v71zM348 672q3 0 5.5 -2t2.5 -6q-1 -2 -1 -4.5t-2 -5.5l-11 -22q-5 -11 -60 -96l-28 -44q-64 -116 -91 -176l-68 -151l-9 -20q-1 -3 -3 -8.5t-6 -12.5l-2 -9l8 -7q26 -24 23 -54q-5 -33 -22 -56q-12 -13 -28 -19q-18 1 -25 23q-4 13 -4 30
q0 29 11 73l3 8l-2 3q-26 0 -42 -6q-4 -2 -7.5 -4t-5.5 -3l-1.5 -0.5t-2.5 1.5q11 12 27 14q11 3 23 3q3 0 13 2q2 2 2 7q26 70 42 104l12 27q33 70 40 85q31 66 69 125q22 34 52.5 79.5t45.5 65.5l2.5 5t4.5 6q2 2 0 5q-2 0 -4 -1.5t-3 -2.5l-32 -20q-33 -20 -84 -36
l-20 -5l-36 -9q-2 2 -2 3q0 5 22 9q27 8 54 17q39 14 82 44q18 11 47 36q1 1 2.5 2t4.5 2q1 1 4 1zM315.5 631.5q0.5 0.5 -0.5 1.5q-1 0 -1 -1q1 -1 1.5 -0.5zM73.5 106q-1.5 0 -2.5 1q-8 -17 -15 -42q-8 -25 -8 -59q1 -2 2.5 -7t6.5 -6q13 4 24 18q17 25 17 51q0 27 -22 43
q-1 1 -2.5 1z" />
    <glyph glyph-name="imacron" unicode="&#x12b;" horiz-adv-x="257" 
d="M-18 677h297v-71h-297v71zM173 0h-88v536h88v-536z" />
    <glyph glyph-name="Ibreve" unicode="&#x12c;" horiz-adv-x="338" 
d="M168 771q-69 0 -108.5 33.5t-44.5 100.5h54q4 -35 24.5 -49t76.5 -14q49 0 73 15.5t28 47.5h55q-6 -64 -48 -99t-110 -35zM348 672q3 0 5.5 -2t2.5 -6q-1 -2 -1 -4.5t-2 -5.5l-11 -22q-5 -11 -60 -96l-28 -44q-64 -116 -91 -176l-68 -151l-9 -20q-1 -3 -3 -8.5t-6 -12.5
l-2 -9l8 -7q26 -24 23 -54q-5 -33 -22 -56q-12 -13 -28 -19q-18 1 -25 23q-4 13 -4 30q0 29 11 73l3 8l-2 3q-26 0 -42 -6q-4 -2 -7.5 -4t-5.5 -3l-1.5 -0.5t-2.5 1.5q11 12 27 14q11 3 23 3q3 0 13 2q2 2 2 7q26 70 42 104l12 27q33 70 40 85q31 66 69 125q22 34 52.5 79.5
t45.5 65.5l2.5 5t4.5 6q2 2 0 5q-2 0 -4 -1.5t-3 -2.5l-32 -20q-33 -20 -84 -36l-20 -5l-36 -9q-2 2 -2 3q0 5 22 9q27 8 54 17q39 14 82 44q18 11 47 36q1 1 2.5 2t4.5 2q1 1 4 1zM315.5 631.5q0.5 0.5 -0.5 1.5q-1 0 -1 -1q1 -1 1.5 -0.5zM73.5 106q-1.5 0 -2.5 1
q-8 -17 -15 -42q-8 -25 -8 -59q1 -2 2.5 -7t6.5 -6q13 4 24 18q17 25 17 51q0 27 -22 43q-1 1 -2.5 1z" />
    <glyph glyph-name="ibreve" unicode="&#x12d;" horiz-adv-x="257" 
d="M126 606q-69 0 -108.5 33.5t-44.5 100.5h54q4 -35 24.5 -49t76.5 -14q49 0 73 15.5t28 47.5h55q-6 -64 -48 -99t-110 -35zM173 0h-88v536h88v-536z" />
    <glyph glyph-name="Iogonek" unicode="&#x12e;" horiz-adv-x="338" 
d="M160 -116q0 -22 12 -33.5t33 -11.5t48 6v-56q-34 -9 -62 -9q-103 0 -103 94q0 68 78 126h62q-34 -32 -51 -58.5t-17 -57.5zM348 672q3 0 5.5 -2t2.5 -6q-1 -2 -1 -4.5t-2 -5.5l-11 -22q-5 -11 -60 -96l-28 -44q-64 -116 -91 -176l-68 -151l-9 -20q-1 -3 -3 -8.5t-6 -12.5
l-2 -9l8 -7q26 -24 23 -54q-5 -33 -22 -56q-12 -13 -28 -19q-18 1 -25 23q-4 13 -4 30q0 29 11 73l3 8l-2 3q-26 0 -42 -6q-4 -2 -7.5 -4t-5.5 -3l-1.5 -0.5t-2.5 1.5q11 12 27 14q11 3 23 3q3 0 13 2q2 2 2 7q26 70 42 104l12 27q33 70 40 85q31 66 69 125q22 34 52.5 79.5
t45.5 65.5l2.5 5t4.5 6q2 2 0 5q-2 0 -4 -1.5t-3 -2.5l-32 -20q-33 -20 -84 -36l-20 -5l-36 -9q-2 2 -2 3q0 5 22 9q27 8 54 17q39 14 82 44q18 11 47 36q1 1 2.5 2t4.5 2q1 1 4 1zM315.5 631.5q0.5 0.5 -0.5 1.5q-1 0 -1 -1q1 -1 1.5 -0.5zM73.5 106q-1.5 0 -2.5 1
q-8 -17 -15 -42q-8 -25 -8 -59q1 -2 2.5 -7t6.5 -6q13 4 24 18q17 25 17 51q0 27 -22 43q-1 1 -2.5 1z" />
    <glyph glyph-name="iogonek" unicode="&#x12f;" horiz-adv-x="257" 
d="M97 -116q0 -22 12 -33.5t33 -11.5t48 6v-56q-34 -9 -62 -9q-103 0 -103 94q0 68 78 126h62q-34 -32 -51 -58.5t-17 -57.5zM-1 306q1 9 11 12q6 2 9 -2q5 -5 2 -11l-4 -5q-1 -1 -7 -4q-10 3 -11 10zM-33 118q-9 0 -14.5 4t-10.5 13q-5 13 -5 25q0 7 1 11q5 40 32 82
q9 13 19 16q5 2 9 -1q3 -2 1 -11q-2 -8 -4 -12l-19 -49q-8 -24 -11 -36q-2 -8 -2 -10l2 -12q3 -4 8 -4q13 1 29.5 14.5t51.5 46.5q38 37 62 55.5t43 18.5q5 0 5.5 -4.5t-4.5 -4.5q-17 0 -38 -17.5t-55 -52.5q-36 -36 -55 -52t-35 -19q-4 -1 -10 -1z" />
    <glyph glyph-name="Idotaccent" unicode="&#x130;" horiz-adv-x="338" 
d="M117 846q0 29 15 42.5t37 13.5q21 0 36 -13.5t15 -42.5t-15.5 -42.5t-35.5 -13.5q-22 0 -37 13.5t-15 42.5zM348 672q3 0 5.5 -2t2.5 -6q-1 -2 -1 -4.5t-2 -5.5l-11 -22q-5 -11 -60 -96l-28 -44q-64 -116 -91 -176l-68 -151l-9 -20q-1 -3 -3 -8.5t-6 -12.5l-2 -9l8 -7
q26 -24 23 -54q-5 -33 -22 -56q-12 -13 -28 -19q-18 1 -25 23q-4 13 -4 30q0 29 11 73l3 8l-2 3q-26 0 -42 -6q-4 -2 -7.5 -4t-5.5 -3l-1.5 -0.5t-2.5 1.5q11 12 27 14q11 3 23 3q3 0 13 2q2 2 2 7q26 70 42 104l12 27q33 70 40 85q31 66 69 125q22 34 52.5 79.5t45.5 65.5
l2.5 5t4.5 6q2 2 0 5q-2 0 -4 -1.5t-3 -2.5l-32 -20q-33 -20 -84 -36l-20 -5l-36 -9q-2 2 -2 3q0 5 22 9q27 8 54 17q39 14 82 44q18 11 47 36q1 1 2.5 2t4.5 2q1 1 4 1zM315.5 631.5q0.5 0.5 -0.5 1.5q-1 0 -1 -1q1 -1 1.5 -0.5zM73.5 106q-1.5 0 -2.5 1q-8 -17 -15 -42
q-8 -25 -8 -59q1 -2 2.5 -7t6.5 -6q13 4 24 18q17 25 17 51q0 27 -22 43q-1 1 -2.5 1z" />
    <glyph glyph-name="dotlessi" unicode="&#x131;" horiz-adv-x="257" 
d="M173 0h-88v536h88v-536z" />
    <glyph glyph-name="IJ" unicode="&#x132;" horiz-adv-x="611" 
d="M348 672q3 0 5.5 -2t2.5 -6q-1 -2 -1 -4.5t-2 -5.5l-11 -22q-5 -11 -60 -96l-28 -44q-64 -116 -91 -176l-68 -151l-9 -20q-1 -3 -3 -8.5t-6 -12.5l-2 -9l8 -7q26 -24 23 -54q-5 -33 -22 -56q-12 -13 -28 -19q-18 1 -25 23q-4 13 -4 30q0 29 11 73l3 8l-2 3q-26 0 -42 -6
q-4 -2 -7.5 -4t-5.5 -3l-1.5 -0.5t-2.5 1.5q11 12 27 14q11 3 23 3q3 0 13 2q2 2 2 7q26 70 42 104l12 27q33 70 40 85q31 66 69 125q22 34 52.5 79.5t45.5 65.5l2.5 5t4.5 6q2 2 0 5q-2 0 -4 -1.5t-3 -2.5l-32 -20q-33 -20 -84 -36l-20 -5l-36 -9q-2 2 -2 3q0 5 22 9
q27 8 54 17q39 14 82 44q18 11 47 36q1 1 2.5 2t4.5 2q1 1 4 1zM315.5 631.5q0.5 0.5 -0.5 1.5q-1 0 -1 -1q1 -1 1.5 -0.5zM73.5 106q-1.5 0 -2.5 1q-8 -17 -15 -42q-8 -25 -8 -59q1 -2 2.5 -7t6.5 -6q13 4 24 18q17 25 17 51q0 27 -22 43q-1 1 -2.5 1zM370 -13q-10 0 -19 3
q-15 4 -25 21q-6 11 -6 25q0 6 1 9q8 35 30 60q24 27 56 43q38 20 82 28q37 6 70 5h14q3 2 5.5 6t3.5 6q37 63 65 120q28 59 48 115q17 46 45 138l6 21q12 36 20 64l2 7l-21 -10q-44 -24 -92 -40q-47 -14 -83 -19q-14 -3 -49 -7h-1l-15 -1q-15 0 -9 9q51 3 96 13
q90 19 159 64l20 12q4 2 6 2q8 0 12 -8t3 -12q0 -8 -1 -12q-7 -43 -25 -108q-16 -56 -41 -127q-22 -58 -35 -86q-11 -24 -35 -72q-17 -35 -41 -71q0 -1 -5 -8l9 -4q19 -3 58 -14q6 -1 5.5 -4.5t-5.5 -1.5l-18 4l-18 3q-6 2 -18 4q-6 2 -10.5 2.5t-7.5 0.5q-2 -2 -10 -12
q-29 -44 -77 -90q-35 -32 -75 -54q-32 -18 -63 -23q-4 -1 -11 -1zM409 17q36 17 64 43q51 45 91 107l3 5h-9h-12q-20 0 -30 -1q-34 -4 -49 -9q-51 -13 -86 -41q-29 -24 -41 -54q-6 -13 -6 -28t7.5 -25t24.5 -10t43 13z" />
    <glyph glyph-name="ij" unicode="&#x133;" horiz-adv-x="514" 
d="M-1 306q1 9 11 12q6 2 9 -2q5 -5 2 -11l-4 -5q-1 -1 -7 -4q-10 3 -11 10zM-33 118q-9 0 -14.5 4t-10.5 13q-5 13 -5 25q0 7 1 11q5 40 32 82q9 13 19 16q5 2 9 -1q3 -2 1 -11q-2 -8 -4 -12l-19 -49q-8 -24 -11 -36q-2 -8 -2 -10l2 -12q3 -4 8 -4q13 1 29.5 14.5
t51.5 46.5q38 37 62 55.5t43 18.5q5 0 5.5 -4.5t-4.5 -4.5q-17 0 -38 -17.5t-55 -52.5q-36 -36 -55 -52t-35 -19q-4 -1 -10 -1zM245 343q0 4 3.5 6.5t7.5 0.5q5 0 8.5 -4.5t2.5 -10.5q-1 -4 -5 -7t-9 -3q-10 5 -8 18zM-22 -174q-2 8 -2 12q0 5 1 8q1 17 12 42q5 10 23 40
q32 39 67 76q50 48 85 75l48 36l10 8q4 8 4 10l7 40q3 15 4 26.5t2 18.5v29q0 23 12 23q6 0 10 -6q6 -6 10 -21l1 -10v-11q0 -17 -1 -25q-1 -7 -2 -19.5t-4 -21.5l-1 -11l7 5q36 25 63 45q91 65 107 74q5 2 6.5 -1.5t-2.5 -5.5q-17 -8 -85 -60q-87 -63 -92 -66l-8 -6
q0 -4 -0.5 -5l-0.5 -1q-2 -16 -4 -24q0 -2 -1 -4.5t-1 -5.5q-10 -51 -40 -110q-19 -41 -57 -89q-31 -40 -79 -72q-15 -10 -33 -16q-13 -5 -24 -5q-7 0 -10 1q-25 2 -32 27zM46 -169q44 30 74 69q48 61 75 122q18 44 24 78q1 2 0.5 4t0.5 5l-8 -6q-54 -36 -107 -89
q-43 -45 -64 -70q-19 -22 -34 -49q-2 -5 -8.5 -19t-7.5 -27l-1 -7q0 -13 9 -20q7 -4 14 -4t13 3z" />
    <glyph glyph-name="Jcircumflex" unicode="&#x134;" horiz-adv-x="272" 
d="M-31 782q61 65 86 96.5t37 52.5h90q25 -49 125 -149v-11h-62q-44 26 -109 90q-64 -62 -107 -90h-60v11zM31 -13q-10 0 -19 3q-15 4 -25 21q-6 11 -6 25q0 6 1 9q8 35 30 60q24 27 56 43q38 20 82 28q37 6 70 5h14q3 2 5.5 6t3.5 6q37 63 65 120q28 59 48 115
q17 46 45 138l6 21q12 36 20 64l2 7l-21 -10q-44 -24 -92 -40q-47 -14 -83 -19q-14 -3 -49 -7h-1l-15 -1q-15 0 -9 9q51 3 96 13q90 19 159 64l20 12q4 2 6 2q8 0 12 -8t3 -12q0 -8 -1 -12q-7 -43 -25 -108q-16 -56 -41 -127q-22 -58 -35 -86q-11 -24 -35 -72
q-17 -35 -41 -71q0 -1 -5 -8l9 -4q19 -3 58 -14q6 -1 5.5 -4.5t-5.5 -1.5l-18 4l-18 3q-6 2 -18 4q-6 2 -10.5 2.5t-7.5 0.5q-2 -2 -10 -12q-29 -44 -77 -90q-35 -32 -75 -54q-32 -18 -63 -23q-4 -1 -11 -1zM70 17q36 17 64 43q51 45 91 107l3 5h-9h-12q-20 0 -30 -1
q-34 -4 -49 -9q-51 -13 -86 -41q-29 -24 -41 -54q-6 -13 -6 -28t7.5 -25t24.5 -10t43 13z" />
    <glyph glyph-name="jcircumflex" unicode="&#x135;" horiz-adv-x="257" 
d="M-42 617q61 65 86 96.5t37 52.5h90q25 -49 125 -149v-11h-62q-44 26 -109 90q-64 -62 -107 -90h-60v11zM22 -240q-46 0 -77 12v71q34 -10 66 -10q38 0 56 21t18 63v619h88v-616q0 -80 -38.5 -120t-112.5 -40z" />
    <glyph glyph-name="uni0136" unicode="&#x136;" horiz-adv-x="619" 
d="M246 -209q11 25 24 70.5t17 77.5h87v-9q-8 -31 -31.5 -76.5t-48.5 -74.5h-48v12zM881 5l-1 -2l-27 -33l-17 -22q-5 -7 -17 -21q-32 -37 -70 -58q-20 -12 -43 -12q-20 0 -35 7q-28 12 -53 42q-28 33 -39 77q-7 23 -15 69l-7 39l-3 28l-5 35q-3 20 -9 62t-8 50q-2 10 -4 16
q-3 18 -10 30h1l-5 11q-19 41 -66 50h-3l-4 -6q-20 -56 -31 -83q-24 -61 -48 -102q-21 -35 -48 -63q-38 -39 -75 -62q-34 -21 -68 -28q-22 -5 -39 -5q-21 0 -45 8q-22 9 -33 20q-12 10 -19 20q-13 15 -18 40q-2 6 -2 19q0 26 18 55q11 20 33 38q28 25 59 44q5 3 12 7t16 9
q50 27 135 60l47 17q37 14 65 23l13 6q16 40 23 60q22 58 34 86q18 44 28 65q4 14 10 27t10 14l8 1q5 0 7 -3.5t4 -13.5q-1 -17 -8 -35.5t-9 -23.5l-29 -70l-32 -84q0 -1 -2 -7q9 1 23 7l104 39q79 31 139 68q13 8 39 20l3 -3l-4 -4q-55 -36 -127 -69q-35 -16 -107 -42
l-25 -9l-39 -14q-3 -1 -5.5 -2t-4.5 -2l-3 -8l12 -3q29 -5 58 -31q14 -12 25 -35q14 -25 25.5 -87t14.5 -93t9 -61q4 -20 5 -30q2 -14 4 -19q10 -54 33 -97q11 -21 33 -42q23 -19 49 -18q16 2 29 9q19 8 45 30q21 18 41 45q20 26 31 38q4 7 11 12q1 2 2 2t2 1zM409 379h-1
q-4 0 -9 -3q-79 -27 -156 -57q-71 -30 -111 -55q-48 -28 -79 -62q-14 -15 -24 -37q-7 -17 -7 -36q0 -22 12 -43q21 -34 61 -44q15 -3 29 -3q16 0 32 3q28 7 56 25q46 31 85 81q45 60 71 126q24 60 35 90z" />
    <glyph glyph-name="uni0137" unicode="&#x137;" horiz-adv-x="534" 
d="M203 -209q11 25 24 70.5t17 77.5h87v-9q-8 -31 -31.5 -76.5t-48.5 -74.5h-48v12zM-60 45q-6 0 -10 6q-3 7 -2 12q2 26 4 38q5 22 10 38q2 8 5 20.5t6 20.5q7 23 16.5 51.5t14.5 40.5q19 57 43 105q25 51 48 83q40 62 87 108q41 41 86 62q23 13 52 13q28 0 42 -23
q10 -16 8 -34q1 -30 -14 -66q-18 -40 -47 -77q-30 -38 -69 -69q-41 -34 -97 -63q-44 -23 -105 -47l-2 -5q-2 -2 -2.5 -3.5t-0.5 -2.5l11 -2q3 1 9 -1l12 8q25 17 49 22q1 1 10 3l5 1l8 -2q5 -1 9 -10v-7q0 -2 -1 -3.5t-1 -3.5q-8 -12 -22 -19q-30 -16 -60 -16h-6
q6 -15 16 -31q16 -21 46 -36q13 -8 34 -8q44 0 98 36.5t102 82.5q1 1 4 1q4 0 5 -3.5t-3 -7.5q-44 -43 -104.5 -82.5t-105.5 -39.5q-14 0 -23 4q-29 11 -51 31q-21 19 -31 44q-2 6 -5 11q-16 -14 -23 -27l-2 -6q-13 -39 -20 -68q-5 -27 -17 -60q-2 -9 -7 -14q-3 -5 -9 -5z
M40 285q77 31 136 71q64 44 105 95q29 37 44 74q12 27 13 50q0 10 -1 19.5t-6 17.5q-8 13 -21 14q-3 1 -8 1q-8 0 -20 -4q-31 -9 -65 -36q-28 -26 -41 -41q-32 -37 -66 -90q-49 -76 -84 -171q-4 -4 0 -6q8 4 14 6zM104 268q-2 1 -6 1q-5 0 -13 -4q-8 -2 -12.5 -4.5
t-8.5 -6.5q26 5 40 14zM11 233q-1 1 -1 3q-5 -3 -3 -9q1 3 4 6z" />
    <glyph glyph-name="kgreenlandic" unicode="&#x138;" horiz-adv-x="534" 
d="M403 536h106l-203 -237l219 -299h-105l-176 242l-66 -54v-188h-93v536h93v-139q0 -68 -6 -135l41 50z" />
    <glyph glyph-name="Lacute" unicode="&#x139;" horiz-adv-x="523" 
d="M85 -94q-23 0 -43 7q-22 7 -34 29q-7 12 -9 27q0 14 8 27q10 19 29 33q20 16 53 30q38 14 74 20q26 4 39 5q18 2 39.5 2h28.5h6q4 6 5 9q11 22 29 68q12 32 34 98q4 14 14 42q34 102 54 152l2 7h-6q-19 -4 -31 -5q-18 -4 -28 -4q-42 -4 -65 -4l-20 1q-9 1 -30 2.5
t-38 4.5q-17 2 -27 5.5t-10 6.5q0 2 7 2l16 -2q10 -2 53 -7q27 -2 80 -2l48 4l39 6l16 4q4 6 5 9q28 66 63 125q22 37 49 62q25 27 60 42q18 8 36 8t31 -11t14 -29q0 -13 -5 -30q-6 -25 -27 -52q-24 -32 -60 -59q-51 -39 -116 -61l-12 -4q-9 -21 -11 -26l-12 -34
q-13 -30 -21 -58l-57 -166q-21 -60 -40 -104l-2 -4l13 -3q59 -9 118 -32l43 -17q26 -12 38 -19l61 -39l9 -6q4 -4 4 -8l-4 -2l-4 2q-41 24 -75 37l-76 32q-53 21 -114 34q-14 2 -21 4l-5 -7q-27 -51 -69 -90q-50 -46 -114 -59q-16 -3 -32 -3zM470 489q59 23 101 54
q37 28 61 61q23 29 27 62v10q0 11 -6 17t-17 6q-9 0 -19 -5q-22 -9 -39 -26q-40 -36 -69 -87q-12 -20 -41 -78q-3 -7 -6 -16zM76 -69q18 0 31 4q60 19 108 64q16 14 40 48q10 14 11 20q-4 3 -12 3q-32 0 -48 -1q-26 -2 -38 -4q-37 -6 -77 -20q-28 -10 -44 -23
q-20 -15 -29 -33q-6 -10 -3 -22q1 -7 7 -17q6 -9 14 -13q15 -5 19 -5q7 -1 21 -1zM118 783q19 23 47.5 66.5t47.5 81.5h106v-10q-21 -31 -66.5 -78.5t-76.5 -71.5h-58v12z" />
    <glyph glyph-name="lacute" unicode="&#x13a;" horiz-adv-x="257" 
d="M14 58q-10 0 -21 3q-24 8 -32 32q-6 15 -6 32v24q0 24 9 56l10 32l13 30q14 35 45 86q38 62 90 125q24 30 49 54q35 35 89 68q31 19 53 19q28 0 28 -30q0 -28 -24 -69q-18 -32 -44 -66l-23 -25q-36 -37 -62 -59q-28 -23 -72 -53q-45 -30 -88 -51q-1 -1 -2.5 -2t-4.5 -2
q-26 -56 -36 -85q-12 -34 -9 -70q2 -21 14 -30q11 -7 25 -7h5q12 0 22 3q24 5 55 23q44 30 95.5 79.5t83.5 91.5q1 1 3 1q3 0 4 -2t-2 -6q-38 -51 -89 -102t-110 -82q-22 -11 -50 -16q-12 -2 -18 -2zM37 278q5 3 13.5 7t19.5 11q47 27 86 57q22 16 46 37q34 29 70 75
q20 28 35 56q11 19 18 37l6 22l1 6q0 14 -13 14q-6 0 -14 -4q-7 -3 -21 -11q-36 -23 -60 -47q-45 -41 -97 -109q-59 -76 -98 -152l-3 -5zM81 811q19 23 47.5 66.5t47.5 81.5h106v-10q-21 -31 -66.5 -78.5t-76.5 -71.5h-58v12z" />
    <glyph glyph-name="uni013B" unicode="&#x13b;" horiz-adv-x="523" 
d="M204 -209q11 25 24 70.5t17 77.5h87v-9q-8 -31 -31.5 -76.5t-48.5 -74.5h-48v12zM85 -94q-23 0 -43 7q-22 7 -34 29q-7 12 -9 27q0 14 8 27q10 19 29 33q20 16 53 30q38 14 74 20q26 4 39 5q18 2 39.5 2h28.5h6q4 6 5 9q11 22 29 68q12 32 34 98q4 14 14 42
q34 102 54 152l2 7h-6q-19 -4 -31 -5q-18 -4 -28 -4q-42 -4 -65 -4l-20 1q-9 1 -30 2.5t-38 4.5q-17 2 -27 5.5t-10 6.5q0 2 7 2l16 -2q10 -2 53 -7q27 -2 80 -2l48 4l39 6l16 4q4 6 5 9q28 66 63 125q22 37 49 62q25 27 60 42q18 8 36 8t31 -11t14 -29q0 -13 -5 -30
q-6 -25 -27 -52q-24 -32 -60 -59q-51 -39 -116 -61l-12 -4q-9 -21 -11 -26l-12 -34q-13 -30 -21 -58l-57 -166q-21 -60 -40 -104l-2 -4l13 -3q59 -9 118 -32l43 -17q26 -12 38 -19l61 -39l9 -6q4 -4 4 -8l-4 -2l-4 2q-41 24 -75 37l-76 32q-53 21 -114 34q-14 2 -21 4l-5 -7
q-27 -51 -69 -90q-50 -46 -114 -59q-16 -3 -32 -3zM470 489q59 23 101 54q37 28 61 61q23 29 27 62v10q0 11 -6 17t-17 6q-9 0 -19 -5q-22 -9 -39 -26q-40 -36 -69 -87q-12 -20 -41 -78q-3 -7 -6 -16zM76 -69q18 0 31 4q60 19 108 64q16 14 40 48q10 14 11 20q-4 3 -12 3
q-32 0 -48 -1q-26 -2 -38 -4q-37 -6 -77 -20q-28 -10 -44 -23q-20 -15 -29 -33q-6 -10 -3 -22q1 -7 7 -17q6 -9 14 -13q15 -5 19 -5q7 -1 21 -1z" />
    <glyph glyph-name="uni013C" unicode="&#x13c;" horiz-adv-x="257" 
d="M45 -209q11 25 24 70.5t17 77.5h87v-9q-8 -31 -31.5 -76.5t-48.5 -74.5h-48v12zM14 58q-10 0 -21 3q-24 8 -32 32q-6 15 -6 32v24q0 24 9 56l10 32l13 30q14 35 45 86q38 62 90 125q24 30 49 54q35 35 89 68q31 19 53 19q28 0 28 -30q0 -28 -24 -69q-18 -32 -44 -66
l-23 -25q-36 -37 -62 -59q-28 -23 -72 -53q-45 -30 -88 -51q-1 -1 -2.5 -2t-4.5 -2q-26 -56 -36 -85q-12 -34 -9 -70q2 -21 14 -30q11 -7 25 -7h5q12 0 22 3q24 5 55 23q44 30 95.5 79.5t83.5 91.5q1 1 3 1q3 0 4 -2t-2 -6q-38 -51 -89 -102t-110 -82q-22 -11 -50 -16
q-12 -2 -18 -2zM37 278q5 3 13.5 7t19.5 11q47 27 86 57q22 16 46 37q34 29 70 75q20 28 35 56q11 19 18 37l6 22l1 6q0 14 -13 14q-6 0 -14 -4q-7 -3 -21 -11q-36 -23 -60 -47q-45 -41 -97 -109q-59 -76 -98 -152l-3 -5z" />
    <glyph glyph-name="Lcaron" unicode="&#x13d;" horiz-adv-x="523" 
d="M333 567q11 32 20.5 77.5t12.5 70.5h87v-9q-6 -26 -27 -71t-45 -80h-48v12zM85 -94q-23 0 -43 7q-22 7 -34 29q-7 12 -9 27q0 14 8 27q10 19 29 33q20 16 53 30q38 14 74 20q26 4 39 5q18 2 39.5 2h28.5h6q4 6 5 9q11 22 29 68q12 32 34 98q4 14 14 42q34 102 54 152l2 7
h-6q-19 -4 -31 -5q-18 -4 -28 -4q-42 -4 -65 -4l-20 1q-9 1 -30 2.5t-38 4.5q-17 2 -27 5.5t-10 6.5q0 2 7 2l16 -2q10 -2 53 -7q27 -2 80 -2l48 4l39 6l16 4q4 6 5 9q28 66 63 125q22 37 49 62q25 27 60 42q18 8 36 8t31 -11t14 -29q0 -13 -5 -30q-6 -25 -27 -52
q-24 -32 -60 -59q-51 -39 -116 -61l-12 -4q-9 -21 -11 -26l-12 -34q-13 -30 -21 -58l-57 -166q-21 -60 -40 -104l-2 -4l13 -3q59 -9 118 -32l43 -17q26 -12 38 -19l61 -39l9 -6q4 -4 4 -8l-4 -2l-4 2q-41 24 -75 37l-76 32q-53 21 -114 34q-14 2 -21 4l-5 -7
q-27 -51 -69 -90q-50 -46 -114 -59q-16 -3 -32 -3zM470 489q59 23 101 54q37 28 61 61q23 29 27 62v10q0 11 -6 17t-17 6q-9 0 -19 -5q-22 -9 -39 -26q-40 -36 -69 -87q-12 -20 -41 -78q-3 -7 -6 -16zM76 -69q18 0 31 4q60 19 108 64q16 14 40 48q10 14 11 20q-4 3 -12 3
q-32 0 -48 -1q-26 -2 -38 -4q-37 -6 -77 -20q-28 -10 -44 -23q-20 -15 -29 -33q-6 -10 -3 -22q1 -7 7 -17q6 -9 14 -13q15 -5 19 -5q7 -1 21 -1z" />
    </font>
</defs>
</svg>
