<?xml version="1.0" standalone="no"?>
<!DOCTYPE svg PUBLIC "-//W3C//DTD SVG 1.1//EN" "http://www.w3.org/Graphics/SVG/1.1/DTD/svg11.dtd" >
<svg xmlns="http://www.w3.org/2000/svg" xmlns:xlink="http://www.w3.org/1999/xlink" version="1.1">
<metadata>
Created by FontForge 20190801 at Mon Feb  8 12:14:43 2021
 By root
Copyright (c) 2015 by Laura Condouris. All rights reserved.
</metadata>
<defs>
<font id="Freeland" horiz-adv-x="360" >
  <font-face 
    font-family="Freeland"
    font-weight="400"
    font-stretch="normal"
    units-per-em="1000"
    panose-1="0 0 0 0 0 0 0 0 0 0"
    ascent="800"
    descent="-200"
    x-height="275"
    cap-height="679.5"
    bbox="-240.615 -631 1436 1046"
    underline-thickness="60"
    underline-position="-120"
    unicode-range="U+0001-206F"
  />
<missing-glyph horiz-adv-x="364" 
d="M33 0v666h265v-666h-265zM66 33h199v600h-199v-600z" />
    <glyph glyph-name=".notdef" horiz-adv-x="364" 
d="M33 0v666h265v-666h-265zM66 33h199v600h-199v-600z" />
    <glyph glyph-name=".null" horiz-adv-x="0" 
 />
    <glyph glyph-name="nonmarkingreturn" unicode="&#xd;" 
 />
    <glyph glyph-name="NULL" 
 />
    <glyph glyph-name="NULL" 
 />
    <glyph glyph-name="uni0001" 
 />
    <glyph glyph-name="uni0002" 
 />
    <glyph glyph-name="uni0003" 
 />
    <glyph glyph-name="uni0004" 
 />
    <glyph glyph-name="uni0005" 
 />
    <glyph glyph-name="uni0006" 
 />
    <glyph glyph-name="uni0007" 
 />
    <glyph glyph-name="uni0008" 
 />
    <glyph glyph-name="uni0009" unicode="&#x9;" 
 />
    <glyph glyph-name="uni000A" unicode="&#xa;" 
 />
    <glyph glyph-name="uni000B" 
 />
    <glyph glyph-name="uni000C" 
 />
    <glyph glyph-name="uni000E" 
 />
    <glyph glyph-name="uni000F" 
 />
    <glyph glyph-name="uni0010" 
 />
    <glyph glyph-name="uni0011" 
 />
    <glyph glyph-name="uni0012" 
 />
    <glyph glyph-name="uni0013" 
 />
    <glyph glyph-name="uni0014" 
 />
    <glyph glyph-name="uni0015" 
 />
    <glyph glyph-name="uni0016" 
 />
    <glyph glyph-name="uni0017" 
 />
    <glyph glyph-name="uni0018" 
 />
    <glyph glyph-name="uni0019" 
 />
    <glyph glyph-name="uni001A" 
 />
    <glyph glyph-name="uni001B" 
 />
    <glyph glyph-name="uni001C" 
 />
    <glyph glyph-name="uni001D" 
 />
    <glyph glyph-name="uni001E" 
 />
    <glyph glyph-name="uni001F" 
 />
    <glyph glyph-name="space" unicode=" " 
 />
    <glyph glyph-name="exclam" unicode="!" horiz-adv-x="348" 
d="M68 49q6 0 10 2t7.5 3.5t7.5 2t9 -1.5q9 -1 11.5 -2t10.5 -4q8 -5 13 -5.5t7 -2.5q1 -2 1.5 -7.5t2.5 -8.5q1 -7 2 -11t2 -6q0 -10 -4.5 -16t-9.5 -11q-8 -9 -16 -19t-21 -3q-1 2 -3.5 4.5t-3.5 4.5q-4 1 -7.5 1t-7.5 2q-7 9 -12 22.5t-6 20.5q-2 11 1 20t6 15zM240 347
q-4 -9 -7 -16.5t-11 -12.5q0 4 6 11t7 18q-10 -1 -12.5 -9t-4.5 -15q-2 -4 -6.5 -9t-8.5 -8q0 -8 -1 -12q-2 -1 -3.5 -1.5t-4.5 -3.5q-2 -5 -2 -9t-1 -6t-2.5 -7t-1.5 -9v-3t-1 -4q-5 -14 -7 -33.5t-7 -33.5q-5 -2 -8 -0.5t-8 1.5q-1 1 -3 0.5t-3 -0.5q0 1 -2 1.5t-3 0.5
q-2 0 -4 -1.5t-3 -1.5q-8 2 -16 11.5t-13 18.5q-6 17 -6.5 36.5t-1.5 36.5q4 2 4.5 10.5t2.5 20.5q5 44 16.5 79t23.5 73q2 10 2 12q1 2 3.5 5.5t2.5 6.5q1 3 0 5t0 5q1 2 3 5t3 7q2 5 6 10t4 10q11 22 19.5 42t20.5 39q4 8 5.5 13.5t5.5 11.5q0 2 1.5 2t2.5 2q2 5 7.5 10
t10.5 10q8 13 16 28t23 25q2 -7 4 -14.5t6 -19.5q3 -2 4 -5t3 -6q0 -2 -0.5 -5t0.5 -5q1 0 3 -0.5t2 -3.5q2 -3 1 -4t-1 -3q2 -8 4 -11.5t4 -12.5q2 -7 4 -9.5t2 -5.5q-1 -6 -0.5 -10t-0.5 -9q-2 -2 -4.5 -5.5t-2.5 -8.5q0 -2 2.5 -2t1.5 -3q-1 -5 -2 -9q-1 -2 -1 -6
q0 -2 -1 -3q0 -1 -2 -1.5t-2 -2.5q-1 -2 -3.5 -6.5t-4.5 -8.5q-2 -5 -11 -7q2 -11 -1 -14.5t-5 -11.5q2 -3 -0.5 -6t-2.5 -9q3 -5 8 -2t4 8q3 -8 -3 -12.5t-9 -10.5q-3 -8 -2.5 -16.5t-7.5 -13.5q5 -5 2 -7.5t-8 -8.5q0 -7 1 -8q-1 -5 -3 -6.5t-2 -4.5q-2 -2 -2 -4.5t2 -4.5
q-5 -4 -7.5 -9.5t-5.5 -10.5q0 -3 1 -6.5t-1 -3.5q1 -3 -2.5 -3.5t-4.5 -0.5q0 -5 -2 -8.5t-2 -8.5q2 -1 1 -1.5t-2 -0.5q1 -1 1.5 0.5t3.5 -0.5zM220 616q-3 -3 -3 -9q-14 -20 -29.5 -45t-25.5 -54q-2 -5 -3.5 -12t-3.5 -14q-5 -16 -9 -29l-8 -26q-5 -14 -9.5 -28t-7.5 -28
q-2 -8 -3 -15t-3 -12q-1 -17 -3.5 -32t2.5 -30q2 27 7.5 55.5t10.5 50.5q4 5 3 8t2 8q1 5 6 5q5 5 6 14t2 15q3 6 6.5 13.5t5.5 11.5q1 7 6 15q2 3 3 5.5t3 6.5q3 9 4.5 16t7.5 15q2 10 6 13v5t1 5q0 2 2.5 4.5t2.5 4.5q8 14 14 29.5t9 33.5h-2z" />
    <glyph glyph-name="quotedbl" unicode="&#x22;" horiz-adv-x="419" 
d="M97 265q-2 1 0.5 1t2.5 2q2 20 6 41t8 43q1 11 3.5 20.5t4.5 21.5q3 7 5 16q1 4 2.5 7.5t3.5 8.5t1.5 10.5t1.5 12.5q5 8 6.5 17t3.5 18q2 10 4.5 18t6.5 19q1 6 3 14t-4 15q3 8 13 8q2 1 3 -0.5t2 -1.5q2 0 1.5 1.5t0.5 0.5q3 0 3 -1q2 -1 3 -0.5t4 -0.5q7 0 8 -2
q6 -1 15 -4.5t12 -7.5q2 -5 5.5 -9.5t1.5 -11.5q-1 -8 -0.5 -14.5t-1.5 -14.5q-6 -33 -16 -64q-2 -9 -5.5 -19.5t-6.5 -22.5q-4 -8 -4 -13q-1 -4 -1.5 -8t-5.5 -6q3 -2 2 -4t1 -5q-2 -2 -2.5 -3t-2.5 -3q-1 -2 -0.5 -4.5t-0.5 -4.5q-4 -5 -8 -6.5t-6 -6.5q-5 -9 -9.5 -17
t-10.5 -16q-2 -2 0 -3l-6 -3t-4 -1q-2 -9 -7 -14q-6 -7 -17 -8t-19 5zM311 559q2 0 1.5 3t3.5 3q5 3 14.5 -0.5t15.5 -5.5q7 -1 15 -2.5t13 -10.5q4 -6 1.5 -19t-3.5 -19v-8.5t-1 -12.5t-3 -10t-6 -2q-2 -14 -8.5 -34.5t-15.5 -33.5q-6 -5 -6 -11.5t-6 -9.5q-3 -1 -6 -8
t-7 -15t-8.5 -15t-9.5 -7q-6 -1 -7 -6.5t-6 -10.5t-7.5 -10t-10.5 -9q-5 -2 -7.5 1t-3 7.5t0 9t0.5 6.5q-1 7 1.5 11t3.5 12q2 7 1.5 12.5t-1.5 13.5q-1 3 1 6t2 7q-2 5 -3 9.5t-1 9.5q2 11 3.5 22.5t4.5 22.5q0 2 1.5 12t3.5 22t3.5 23t2.5 17q0 3 -1 7t0 6q1 4 4 5.5
t2 5.5q0 3 3.5 5t8.5 2.5t10 0t7 -1.5z" />
    <glyph glyph-name="numbersign" unicode="#" horiz-adv-x="476" 
d="M431 374q-3 -3 -1.5 -6.5t1.5 -6.5q-3 -8 -11.5 -11.5t-12.5 -14.5q-19 -3 -37.5 -7t-38.5 -9q-13 -2 -15.5 -4t-7.5 -16q-2 -5 -5.5 -10.5t-3.5 -10.5q-2 -3 -1 -5.5t1 -3.5q-2 0 -3 -2t-1 -3q0 -2 0.5 -3.5t0.5 -3.5q-1 -4 -3.5 -5t-0.5 -6q4 0 5 2t2 4.5t2.5 4.5
t6.5 2q-2 -5 -3.5 -6.5t0.5 -6.5q18 5 36 4t35 -6q10 0 19 -0.5t12 -3.5q1 -1 4 -6.5t1 -7.5q0 -5 -6.5 -7t-14.5 -7q-11 -3 -25 -5.5t-25 -3.5q-5 -5 -10 -5h-17q-4 -5 -9 -5h-9q-5 0 -10.5 -3t-7.5 -4q-6 -5 -3.5 -9.5t0.5 -9.5q-4 -3 -6 -5.5t-5 -7.5v-9
q-1 -10 -4.5 -18.5t-6.5 -18.5q-4 13 3.5 25.5t6.5 23.5q-3 5 -1 11t2 10q-5 -8 -7 -20.5t-7 -25.5q0 -4 -1.5 -6t-3.5 -6q0 -14 -1 -19q-2 -10 -6.5 -16.5t-4.5 -17.5q-1 -6 -0.5 -11.5t-0.5 -13.5q-2 -1 -3 -3.5t-3 -3.5q0 -3 -1.5 -4t-3.5 -6q-2 -6 -2 -10.5t-5 -6.5
q-4 -1 -7 -1t-5 -0.5t-4 1.5q-4 2 -9 17t-7 23q-2 11 0.5 26t4.5 32v15q3 12 6.5 24t3.5 23q-3 3 -7 1.5t-6 -2.5q-4 5 -11 2t-10 -9q-5 -2 -4.5 2.5t-4.5 4.5q-6 -3 -12 -7t-11 -6q-5 0 -12 1t-11 -1q-3 -2 -4 -12t-3 -15l-2.5 -5t-1.5 -8q-5 -6 -6 -10.5t-6 -9.5
q0 15 -0.5 29.5t-2.5 30.5q-5 2 -6 -0.5t-6 -2.5q-4 3 -6 3q-20 2 -43 2t-41 7q-8 3 -20.5 8t-15.5 13q-6 6 -6 10q23 -1 41 4.5t43 9.5q9 3 16 5t17 2q7 2 18.5 2.5t12.5 2.5q4 2 3 8t-1 10q2 6 4 17.5t2 22.5q-7 5 -13.5 4.5t-14.5 1.5q-5 2 -13 4t-15 7h-7q-2 3 -1.5 4
t-1.5 1q-5 0 -7.5 -0.5t-7.5 -0.5q-7 1 -13.5 5t-11.5 8q-6 3 -7 4t-1 2q-6 1 -9.5 0.5t-8.5 4.5v6q-2 1 -6.5 2t-7.5 5l-6 8t-8 6q-4 4 -8.5 10.5t-7.5 13.5q23 -3 42.5 -1t39.5 5q29 5 57.5 11.5t60.5 11.5q0 7 -2 10.5t2 9.5q0 2 3.5 4.5t5.5 6.5q3 0 3.5 3t0.5 5t2.5 7
t2.5 10q0 3 -1.5 5t1.5 5q0 7 3.5 12.5t6.5 13.5v15.5t2 12.5t7 7t5 7q17 3 29.5 0t27.5 -8q-2 -5 -1 -8t1 -5q0 -4 -2.5 -6.5t-2.5 -4.5q-2 -8 -3.5 -15.5t-6.5 -14.5q-5 -8 -5 -12q-3 -5 -3.5 -9.5t-2.5 -9.5q-5 -5 -9 -13t-3 -16q14 -2 32.5 0.5t32.5 2.5q3 0 6.5 0.5
t6.5 2.5q5 0 4 4.5t2 8.5q1 24 17 55q6 17 11 31t8 27q0 5 -1.5 9t-1.5 10q7 -3 13.5 -2t13.5 -3q0 -1 1 -2q3 -3 5 -4q11 -4 21 -10.5t5 -25.5v-5.5t-1 -8.5q-3 -4 -4.5 -7t-3.5 -6q0 -2 1.5 -3.5t1.5 -4.5l-2 -2q-1 -1 -1 -4q-2 -11 -2.5 -19t-2.5 -15q-3 -2 -5.5 -7
t-4.5 -11q8 -4 16.5 -3.5t14.5 0.5q5 -2 10 -2h8q4 -2 10.5 -4.5t12.5 -4.5q9 -2 13 -4t6 -10q2 -1 4 -1.5t2 -3.5q-3 -2 -7.5 -2.5t-4.5 -5.5q3 -4 7.5 -5.5t7.5 -3.5zM218 281q2 6 5 13t3 13q-7 -2 -13.5 -2.5t-14.5 -4.5q-4 0 -11 -5q-4 0 -7.5 -2t-9.5 -4q-7 0 -10 -3
q-6 -2 -11 -2.5t-11 -5.5q-5 -11 -6 -21.5t-1 -23.5q13 0 26 2.5t25 2.5h13t14 1q4 1 8 14t4 17q0 3 -1.5 6t-1.5 5zM268 167q0 1 2.5 3t-2.5 3q0 -1 -2 -3.5t2 -2.5z" />
    <glyph glyph-name="dollar" unicode="$" horiz-adv-x="428" 
d="M143 474q-1 -6 -2.5 -11t-2.5 -12q3 1 7 3t6 6q1 2 0 5.5t-1 6.5q0 2 4 10q2 8 3 16.5t3 16.5q2 14 4 28.5t0 20.5q0 2 -1 4t-5 3q0 3 2.5 4t3.5 5q-3 2 -1 6.5t4 11.5q4 17 6.5 35.5t7.5 37.5q3 8 6.5 15t2.5 18q9 2 14.5 0t9.5 -6q2 2 7.5 2h10.5q3 -7 6.5 -10.5
t8.5 -10.5q8 -11 22 -20.5t21 -23.5q2 -4 4 -10.5t4 -10.5q1 -11 -3 -21t-6 -22q-2 -13 -4 -24.5t-7 -25.5q-2 -8 -4.5 -14t-1.5 -10q2 -7 15.5 -13t23.5 -14q9 -6 18 -14.5t17 -13.5q3 -2 8 -2.5t7 -2.5t4.5 -7.5t5.5 -8.5q4 -4 8.5 -6t6.5 -7q-2 -8 -9 -7.5t-11 1.5
q-11 1 -20.5 7.5t-19.5 13t-20.5 10.5t-23.5 -1q-3 -2 -5 -4.5t-5 -6.5q-6 -6 -7.5 -8t-4.5 -13l-3 -9q-3 -7 -4.5 -13.5t-7.5 -11.5q1 -2 2 -1t1 3q3 -8 -2.5 -15.5t-7.5 -15.5q-3 -6 -4.5 -15t-6.5 -12q3 9 3 22q-10 -6 -12.5 -22t-2.5 -30q0 -6 -1.5 -10t0.5 -6
q2 -5 15.5 -10t21.5 -10q22 -11 35.5 -20t32.5 -24q4 -2 8.5 -5t8.5 -7q1 -1 2 -3.5t3 -4.5t5 -3t3 -2q4 -5 7.5 -19t1.5 -23q-2 -6 -7 -10.5t-10 -9.5q-2 -2 -3.5 -5.5t-3.5 -4.5q-3 -2 -7.5 -2.5t-8.5 -2.5q-8 -5 -14 -11t-14 -13q-7 -5 -17.5 -10.5t-20.5 -10.5
q-5 -2 -10 -4.5t-10 -4.5q-6 -1 -14.5 -1h-17t-15.5 -2t-10 -6q-4 -7 -2 -13t0 -12q-1 -7 -3.5 -18.5t-6.5 -19.5q-1 -2 -3.5 -3.5t-4.5 -4.5q-2 -2 -2 -5t-4 -3q-4 15 -7.5 29.5t-7.5 33.5q-1 5 -1.5 12.5t-2.5 9.5q-4 4 -12 4t-15 2q-4 0 -12 5l-10.5 3t-9.5 5
q-2 1 -4.5 1.5t-4.5 2.5q-2 1 -3 4t-3 5q-3 3 -7 4t-8 5q-1 3 2.5 3t2.5 3q-2 3 -6 3.5t-8 2.5q4 7 -1 12.5t-7 13.5q11 -3 28 -5.5t32 -2.5q18 -2 30.5 -0.5t11.5 15.5q0 14 -0.5 31t0.5 39q1 9 3.5 21t0.5 17q-2 7 -9.5 10.5t-12.5 8.5q-11 11 -21.5 25.5t-15.5 31.5
q-1 5 -0.5 10.5t-0.5 10.5q-2 5 -3.5 8.5t-1.5 8.5q0 3 1 3.5t2 3.5v13.5t2 13.5q1 4 5 6.5t7 6.5q3 5 11.5 12t14.5 12q5 5 12.5 10t11.5 10q3 5 4.5 12t3.5 15q0 2 -1 4.5t4 2.5zM212 179q-3 -3 -5 -2.5t-3 -1.5q-2 -1 -2.5 -5.5t-3.5 -7.5q-1 -1 -2.5 -0.5t-2.5 -1.5
q-2 -5 -2.5 -11.5t-2.5 -11.5q8 0 17 6.5t16 13.5q5 5 8.5 13.5t-2.5 16.5q-9 3 -10.5 -1.5t-4.5 -6.5z" />
    <glyph glyph-name="percent" unicode="%" horiz-adv-x="640" 
d="M74 496q2 1 5 1t5 2q1 5 6.5 10.5t7.5 14.5q8 3 12.5 -0.5t9.5 -5.5q5 0 9 1.5t11 1.5q3 0 7.5 -2.5t9.5 -4.5q4 -2 6.5 -4t8.5 -4q5 -2 10.5 -2t10.5 -1q5 -2 9 -3t9 -3q13 -4 20 -8.5t16 -9.5q5 -3 9.5 -5.5t6.5 -5.5q5 -3 8.5 -11t5.5 -13q1 -10 -3 -25t-8 -22
q-5 -9 -14 -17t-17 -14q-7 -8 -14 -15t-15 -16q-2 -4 -9.5 -11.5t-10.5 -9.5q-1 -1 -4 -1t-7 -2q-2 -3 -3 -5.5t-3 -4.5l-6 -3t-9 -3q-7 -4 -13.5 -6.5t-14.5 -4.5q-5 -1 -8 -0.5t-6 0.5q-8 -1 -16.5 -5t-15.5 -3q-5 2 -10.5 7t-10.5 10q-5 2 -11 5.5t-10 8.5q-5 8 -8 18.5
t-6 23.5q-2 11 -4.5 24t-1.5 22q0 5 2.5 9.5t3.5 9.5q3 8 5.5 13t5.5 12q1 1 2 3t3 3q2 5 2.5 9.5t1.5 9.5l8 6l8 6q5 5 8 10zM106 343q9 2 19.5 7.5t20 12t17.5 13t12 12.5q8 9 7.5 17.5t-5 16t-12 13.5t-13.5 11q-9 -8 -16.5 -13.5t-15.5 -16.5q-6 -7 -12 -13t-12 -18
q-1 -2 -2.5 -5.5t-2.5 -8.5q-5 -8 -7 -13t0 -16h10.5t11.5 1zM308 347q-3 -1 -1 -5t-5 -4q0 3 0.5 7t5.5 2zM301 328q1 -8 -3 -7.5t-6 -3.5q-3 2 0.5 6.5t8.5 4.5zM400 156q-3 3 -1.5 4.5t2.5 3.5q2 -3 5 -0.5t8 0.5q3 -1 5.5 -2.5t5.5 -3.5q10 -3 16 -5.5t17 -8.5
q5 -2 9 -5.5t9 -5.5q14 -6 26.5 -8.5t20.5 -9.5q8 -4 19 -15t12 -14q3 -10 -1 -22.5t-11 -22.5q-2 -3 -5.5 -5t-6.5 -5q0 -2 -1.5 -5.5t-2.5 -5.5q-7 -5 -14 -9t-12 -9q-3 -3 -6 -8t-7 -7q-2 -3 -6 -3.5t-8 -2.5q-5 -2 -9.5 -4t-8.5 -2q-5 -1 -8.5 0.5t-8.5 1.5
q-10 -2 -16 -3.5t-15 3.5q-11 4 -23.5 17t-17.5 23q-5 14 -5 32.5t-2 38.5q0 5 -0.5 8.5t-0.5 4.5q0 7 6 13t12 11q1 2 0.5 3t0.5 4q2 1 5 2t4 4q3 5 4.5 10t9.5 8zM433 35q8 2 19 6t11 11q0 5 -5 7.5t-9 6.5q-5 -6 -9.5 -14t-6.5 -17zM163 28q4 -3 0.5 -5.5t-3.5 -4.5
q-4 2 -1 4.5t4 5.5zM106 -59q0 5 1.5 4t0.5 -4q-3 -10 -7 -18.5t-6 -18.5q-5 -1 -5 -4t-2 -7q-3 0 -3 3t-5 3q-9 3 -10.5 15.5t3.5 29.5q4 14 5.5 18.5t4.5 17.5v10q2 3 4.5 8t4.5 7q3 4 6.5 6.5t-0.5 10.5q6 2 7.5 6t3.5 10q3 3 11 9v4t2 4q2 4 4.5 5.5t4.5 5.5q2 5 2 8
t5 4q0 3 -0.5 3.5t-0.5 2.5q6 -2 5.5 -2.5t1.5 6.5q0 2 -1 0t-3 0q-2 9 5 10t10 6q2 3 2 6.5t1 7.5q1 0 2 1q3 0 3 2q4 5 8.5 8.5t7.5 8.5q1 1 1 3.5t2 3.5q5 8 10.5 15.5t10.5 15.5q2 3 4.5 6t3.5 5q2 1 1.5 4t1.5 5t3.5 2.5t4.5 3.5t5 8.5t6 9.5q7 11 16 22.5t15 21.5
q4 8 6 11q2 4 5.5 6t6.5 6q1 2 0.5 4t0.5 4q3 3 6.5 4.5t4.5 4.5q5 5 7 13.5t7 14.5q3 3 6 5t5 4q3 2 4 4t3 4q6 7 10.5 13.5t9.5 14.5q-5 1 -8 -3.5t-7 -9.5h-2q-4 -3 -7.5 -9t-8.5 -8q-1 10 7 17.5t14 15.5q2 7 6.5 11.5t7.5 10.5q8 9 17 18t18 20q13 13 23.5 26t21.5 24
q5 5 10.5 9t7.5 12q9 -1 14 -3.5t13 -7.5q4 4 7.5 3.5t7 -3.5t7 -7.5t7.5 -7.5q3 -5 6.5 -7.5t7.5 -4.5q8 -5 15 -12t-1 -18q0 -5 -4.5 -9.5t-8.5 -9.5q-3 -8 -6 -11q-2 -3 -4 -2.5t-4 -2.5t-4 -7t-5 -7q-2 -4 -5 -5.5t-5 -5.5q-3 -2 -5.5 -6t-4.5 -6h-5q-2 -1 -3 -3.5
t-3 -5.5q-4 -5 -7 -10.5t-7 -10.5q-3 -2 -5 -3t-5 -3q-2 -3 -3.5 -7t-3.5 -6q-3 -4 -7.5 -5.5t-6.5 -3.5l-10 -10t-8 -10q-11 -10 -21.5 -19t-19.5 -20q-1 -1 -1.5 -4t-3.5 -5q-3 -3 -6 -4.5t-7 -6.5q-5 -8 -7 -16t-9 -13q-4 -2 -7.5 -4t-5.5 -5q-3 -4 -2 -7t-2 -8
q-2 -1 -4.5 -2.5t-4.5 -3.5q-1 -2 -1.5 -4t-3.5 -4q-5 -5 -11.5 -10.5t-11.5 -10.5q0 6 2 7.5t1 6.5q-6 0 -5.5 -6t-4.5 -10q2 -2 3.5 -0.5t3.5 0.5q0 -6 -3.5 -8t-1.5 -9q-7 -2 -8.5 -9.5t-11.5 -7.5q3 9 8.5 16.5t9.5 15.5q-3 -3 -7.5 -6.5t-6.5 -8.5q-2 -2 -2.5 -4
t-0.5 -4q-1 -3 -3.5 -3.5t-4.5 -2.5q0 -1 -1.5 -3t-2.5 -3q-2 -3 -4.5 -4.5t-4.5 -2.5q-3 -5 -4.5 -10t-4.5 -8q-2 -4 -6 -5.5t-6 -4.5t-2 -7t-4 -6q-4 7 0 8.5t6 4.5q1 3 1 5.5t2 4.5q5 6 10 14l10 16q2 2 3.5 6t3.5 6q0 1 2 0.5t2 0.5q2 2 1 3t1 3q1 1 3 1t3 2q7 11 13 23
t11 23q-11 -8 -18 -20.5t-18 -20.5q1 -8 -3.5 -11.5t-9.5 -8.5q-4 -5 -9.5 -13t-9.5 -16q-2 -2 -4.5 -3.5t-2.5 -3.5q-2 -3 -1 -5t1 -5q-2 -4 -7 -8t-9 -7q-3 -3 -5 -9t-7 -8q3 13 10.5 19t11.5 17q-4 -2 -5.5 -3.5t-2.5 -3.5l-2.5 -5t-5.5 -9q-7 -7 -12 -18q-4 -4 -4 -8
q-3 -6 -6.5 -9.5t-6.5 -9.5q0 -4 4 -4q-3 -4 -4 -3.5t-6 -4.5q-2 -5 -4.5 -11t-7.5 -8q-2 1 -0.5 3t0.5 7q-5 -5 -7.5 -12.5t-5.5 -14.5q3 -1 5.5 5.5t5.5 11.5q2 -3 0.5 -8t-4.5 -9q-2 -3 -3.5 -7.5t-3.5 -7.5q0 1 -1 2t-3 1q-5 -2 -7 -8.5t-6 -12.5q7 -1 6 5t3 6zM233 192
q2 5 5 8t1 5q0 -2 -5 -5t-1 -8zM288 180q-3 -3 -6.5 -5.5t0.5 -7.5q1 5 4.5 7t7.5 6q6 6 10 14q1 3 4 5.5t-2 3.5q-5 -5 -9 -11.5t-9 -11.5zM272 188q7 0 9 3.5t3 8.5q-5 -2 -6.5 -5.5t-5.5 -6.5zM204 149q1 4 5 8t2 6q-1 -4 -5.5 -7t-1.5 -7zM175 115q3 -4 0.5 -5.5
t-3.5 -2.5v-4q-7 -4 -10 -13q-10 -10 -8 -18q3 3 5 7t4 7q0 2 1 3q1 0 2 1q5 8 11 19.5t11 17.5q4 4 7.5 8.5t3.5 9.5q-8 -5 -12 -14t-12 -16zM152 30q0 1 1 2t-1 3v-5zM142 20q2 0 3 1l3 3q-3 0 -3.5 -1t-2.5 -3zM133 -1q0 2 2.5 5t-2.5 3q2 -2 0 -4t0 -4zM91 -92
q0 2 3 5.5t0 4.5q-2 -2 -3.5 -5.5t0.5 -4.5zM175 53q4 2 1.5 -0.5t-2.5 -3.5q1 -2 2.5 -2.5t-0.5 -2.5q-1 -5 -5 -7.5t-7 -7.5q-1 5 4 12t7 12z" />
    <glyph glyph-name="ampersand" unicode="&#x26;" horiz-adv-x="464" 
d="M98 278q2 0 3 -1t2 -1q-1 -1 -5 -3t-2 -3q-1 -3 -2 -1.5t-3 1.5q1 3 3.5 4.5t3.5 3.5zM246 265q1 -10 10 -15q-4 -11 3 -18.5t12 -14.5q4 -7 6 -15t6 -16q23 15 41 35q11 11 21 19t19 19q6 8 15.5 19t18.5 23t14 24.5t1 23.5q2 3 5 0t8 -3q5 -14 -2.5 -31t-13.5 -28
q-8 -14 -17 -28t-14 -30q-5 -15 -16 -25.5t-17 -23.5q-3 -3 -1.5 -4.5t-0.5 -3.5q-1 -3 -3.5 -5.5l-4.5 -4.5q-5 -5 -8.5 -12t-8.5 -12q-7 -12 -10 -24.5t10 -22.5q4 -2 4.5 -9t2.5 -12q7 -15 12 -30q5 -18 10.5 -36t11.5 -38q4 -9 6.5 -18.5t9.5 -17.5q1 -5 6 -11t1 -14
q-17 -4 -33 3t-28 18q-5 5 -11 9.5t-13 9.5q-5 5 -8.5 12t-6.5 12l-4 4t-3 4q-1 3 0 7.5t-1 8.5q-3 5 -4 9t-3 9q-2 4 -1 7t-1 8q-5 9 -9 17.5t-6 16.5q-1 3 0.5 6t-0.5 7q-1 4 -4 5.5t-2 5.5q-4 0 -5.5 -2t-4.5 -3q0 -4 2 -3t-1 -2t-8 -5.5t-9.5 -6t-7.5 -7t-2 -7.5
q0 -3 -4.5 -7.5t-10.5 -9l-12 -9t-8 -6.5q-4 -4 -7.5 -5t-5.5 -3q-7 -3 -10.5 -8t-10.5 -7q-14 -5 -27.5 -7.5t-27.5 -7.5q0 2 2 2t2 2q-17 -5 -41 -2.5t-41 8.5q-9 3 -16.5 9t-10.5 14q-3 2 -6.5 5.5t-4.5 8.5q0 8 -5 13q-1 8 -3 17t4 17q-2 4 -4.5 8t-1.5 9t5 6.5t4 7.5
q1 8 7 16.5t14 13.5q3 4 5 8t7 9q2 2 6 4t4 7q4 0 4.5 1.5t2.5 0.5q4 8 11 11.5t11 11.5q0 -8 -8.5 -13.5t-12.5 -12.5q-5 -8 -13 -11.5t-12 -12.5q0 -4 2.5 -1t2.5 -2q6 8 11.5 14t13.5 11q-2 -4 -2 -3q2 -1 4.5 2t3.5 5q4 4 5 4q5 -2 5.5 1t2.5 5q4 5 7.5 7t5.5 5q2 5 4 6
l6 3q4 3 7 5.5t4 4.5q2 6 5 9.5t6 8.5q8 5 16 11.5t10 17.5q-1 2 -3 -1.5t-3 -4.5q0 4 3.5 7.5t7.5 7t7 7t2 8.5q-3 1 -4.5 0t-2 -2.5t-2 -3t-5.5 0.5q9 6 18 14t17 16q0 5 -3 3t-6 0l4 4q0 1 -3 1.5t-4 2.5q1 9 9 12.5t10 9.5q4 4 2.5 8.5l-2.5 7.5v3.5t-1 3.5t-3 1t0 -2
q-2 4 -2.5 7.5t-5.5 6.5q-2 4 -2.5 13t-3.5 14q-1 2 -1 7t-1 7q-2 2 -4 3t-4 3q-2 4 -1.5 7.5t-0.5 5.5q0 2 -2 2.5t-3 2.5q0 14 -3.5 27t-5.5 27q0 4 1.5 13t4.5 18t7 15t9 2q2 9 11 13q7 3 11 9t11 8q6 3 14.5 4.5t17.5 2t17.5 -0.5t13.5 -5q7 -5 14.5 -3t11.5 -5l10 -10
t11 -8q8 -3 10 -9t7 -11q3 -2 4.5 -3.5t3.5 -4.5q3 -3 2.5 -5.5t1.5 -7.5q1 -5 2.5 -4t2.5 -4t0.5 -11t-0.5 -12q-2 -10 -4 -18.5t-5 -18.5q-2 -18 -5 -37.5t-10 -35.5q-1 -3 -3.5 -1t-1.5 -3q0 -5 -3 -7t-5 -5q-2 -4 -1.5 -6t-2.5 -6l-6 -8t-7 -8q-3 -7 -5 -15.5t-8 -16.5
q-4 -5 0 -9t6 -9q0 -1 -1 -0.5t-1 1.5h-2zM83 206q1 0 0.5 3.5t-1.5 1.5v-3t1 -2zM254 485q2 8 2 21.5t-9 20.5q-9 4 -22 -4t-19 -15q-15 -23 -15 -45q0 -17 5 -33.5t12 -33.5q11 19 25.5 41t20.5 48zM176 170q-5 -6 -7 -9.5t-6 -8.5q-5 -5 -8.5 -9.5t-8.5 -9.5
q-8 -11 -14.5 -21t-11.5 -23q13 4 24.5 10t23.5 14q14 6 28 12.5t28 14.5q-2 11 -6.5 21t-0.5 20q-2 0 -2.5 -2.5t-2.5 2.5q5 7 1.5 16.5t-11.5 13.5q-7 -13 -14 -22.5t-12 -18.5zM222 160q1 0 2.5 1t-0.5 3q-2 0 -1.5 2t-1.5 2v-8h1zM230 151q-2 0 -1.5 3.5t-4.5 3.5
q-2 -2 0.5 -5.5t5.5 -1.5zM132 310q5 0 2.5 -1.5t-2.5 -3.5q1 -1 2.5 -0.5t-0.5 -4.5q-10 0 -13.5 -7.5t-13.5 -9.5q4 7 12 13t13 14z" />
    <glyph glyph-name="quotesingle" unicode="'" horiz-adv-x="234" 
d="M132 541q2 0 2.5 2t2.5 2q5 2 13.5 -2t13.5 -6l13.5 -4.5t10.5 -9.5q2 -7 -1 -16.5t-5 -15.5q0 -2 -1 -6.5t-2.5 -9.5t-3.5 -8t-5 -1q-5 -13 -12.5 -29t-17.5 -25q-6 -4 -6.5 -8.5t-5.5 -6.5q-3 -1 -7 -6.5t-8 -11.5t-9 -10.5t-9 -4.5q-7 0 -8 -4.5t-6 -8.5t-8 -8t-10 -5
q-6 -1 -7.5 1.5t-1.5 6t1.5 7.5t1.5 5q0 7 2.5 9.5t4.5 8.5q2 5 2 10v12q-1 2 1.5 4.5t2.5 6.5q0 5 -0.5 8t-0.5 8q5 18 12 35q0 2 2.5 10t5.5 17.5t6 18.5t4 13q0 3 -0.5 6.5t1.5 5.5q1 3 3.5 4.5t2.5 3.5q0 3 3.5 4t8 1t9 -1t5.5 -2z" />
    <glyph glyph-name="parenleft" unicode="(" horiz-adv-x="389" 
d="M193 472q3 -3 6.5 0.5t5.5 8.5q3 3 4 6.5t2 8.5q3 2 6.5 5t4.5 5q2 0 3.5 1.5t0.5 1.5q8 8 15.5 19t14.5 25h-1q-1 0 -2 -1l-2 -2q0 3 3.5 4.5t1.5 8.5q5 -4 3 -0.5t0 5.5q3 2 8.5 5t9.5 8q1 -5 -3.5 -8.5t-7.5 -7.5q5 1 10 6.5t5 11.5q2 1 3 -0.5t3 0.5q5 5 9.5 11
t9.5 11q1 2 0 2.5t0 2.5q13 5 19 14.5t15 17.5q2 0 1.5 -2t0.5 0q13 8 25.5 16t23.5 14q-25 -22 -42.5 -54.5t-35.5 -61.5q-6 -11 -14 -24t-17 -24q-17 -28 -28 -51v-8t-1 -4l-3 -6t-4 -6q-18 -32 -29 -64q-2 -7 -6 -14.5t-6 -14.5q-2 -5 -3 -10.5t-3 -13.5
q-10 -29 -16.5 -67.5t-8.5 -80.5q0 -20 0.5 -40t3.5 -41q-3 -2 -1.5 -6t2.5 -6q-1 -4 1.5 -6.5t4.5 -6.5q-2 -2 0 -8q2 -14 5.5 -30.5t6.5 -33.5q4 -20 7.5 -35.5t9.5 -29.5q2 -5 2 -6.5t1 -2.5q6 -5 6 -9q1 0 1 -3t2 -4q3 -6 6.5 -10.5t-2.5 -15.5q-14 8 -34 12.5t-35 9.5
q-23 11 -38 28.5t-28 40.5q-3 5 -5 12t-7 13q-4 4 -9 8t-7 10q-2 5 -3 14t-5 20q-6 24 -6 52q0 11 1 21t4 19q-5 0 -4 -3.5t-4 -4.5q2 10 -0.5 17.5t-1.5 18.5q0 2 2.5 4.5t2.5 4.5q1 10 1.5 25t5.5 24q-1 5 2 6.5t3 3.5l2 12t3 10q5 14 9.5 28.5t9.5 25.5q2 -8 -1.5 -13
t-4.5 -10t1 -11.5t1 -11.5q5 12 8.5 26t8.5 28q8 24 21.5 52t26.5 51q5 8 8.5 16t10.5 13q7 10 14.5 14.5t7.5 15.5q4 0 4 -1t-2 -1zM262 558q1 -2 -2 -1.5t-2 -2.5q1 -1 3.5 1t0.5 3zM266 562q-1 2 -2 2t-2 5q-2 -8 4 -11q-1 2 0 4zM283 587q-2 -2 -0.5 4.5t6.5 6.5
q0 -4 -2.5 -5.5t-3.5 -5.5z" />
    <glyph glyph-name="parenright" unicode=")" horiz-adv-x="412" 
d="M199 68q-2 3 -6 -0.5t-6 -8.5q-5 -6 -6 -15q-2 -2 -5.5 -5t-5.5 -5q-2 0 -3 -1.5t0 -1.5q-8 -8 -16 -19t-14 -25q0 -1 2 1q1 1 3 2q0 -3 -3.5 -4.5t-1.5 -8.5q-5 4 -3.5 0.5t-0.5 -5.5t-8 -5t-10 -8q-1 5 3.5 8.5t7.5 7.5q-5 -1 -9.5 -6.5t-4.5 -11.5q-2 -1 -3 0.5
t-3 -0.5q-6 -5 -10 -11t-10 -11q-1 -2 0.5 -2.5t-0.5 -2.5q-12 -5 -18 -14.5t-15 -17.5q-2 0 -1.5 2t-1.5 0q-12 -8 -24.5 -16t-24.5 -14q26 22 43 54.5t35 61.5q7 11 14.5 24t16.5 24q8 14 15.5 26t12.5 25v8t1 4l3 6t4 6q18 32 29 64q3 7 6.5 14.5t5.5 14.5q3 5 3.5 10.5
t2.5 13.5q10 29 16.5 67.5t8.5 80.5q0 20 -0.5 40t-2.5 41q2 2 1 6t-2 6q1 4 -1.5 6.5t-4.5 6.5q2 2 0 8q-2 14 -6 30.5t-6 33.5q-4 20 -8 35.5t-9 29.5q-3 5 -3 6.5t-1 2.5l-4 4t-2 5q-1 0 -0.5 3t-1.5 4l-7 10.5t2 15.5q14 -8 34 -12.5t36 -9.5q23 -11 38 -28.5t28 -40.5
q2 -5 4.5 -12t7.5 -13q3 -4 8 -8t7 -10q2 -5 3.5 -14t5.5 -20q2 -12 4 -25t2 -27q0 -20 -5 -40q5 0 3.5 3.5t3.5 4.5q-2 -10 1 -17.5t1 -18.5q0 -2 -2 -4.5t-2 -4.5q-2 -10 -2.5 -25t-5.5 -24q2 -5 -1 -6.5t-3 -3.5q-2 -6 -2.5 -12t-2.5 -10q-5 -14 -9.5 -28.5t-9.5 -25.5
q-2 8 1 13t5 10q1 5 -1.5 11.5t-1.5 11.5q-5 -12 -8 -26t-9 -28q-7 -24 -21 -52t-27 -51q-5 -8 -8 -16t-11 -13q-6 -10 -13.5 -14.5t-7.5 -15.5q-4 0 -4.5 1t1.5 1zM131 -18q-1 2 2 1.5t1 2.5q-1 1 -3.5 -1t0.5 -3zM126 -22q1 -2 2.5 -2t2.5 -5q1 9 -5 11q1 -2 0 -4z
M109 -47q2 2 0.5 -4.5t-6.5 -6.5q0 4 2.5 5.5t3.5 5.5z" />
    <glyph glyph-name="asterisk" unicode="*" horiz-adv-x="534" 
d="M151 406q-2 0 -2 -1.5t-1 -2.5q-3 1 0.5 3t5.5 5q-2 5 -6.5 6t-8.5 4q-1 2 0 2.5t1 2.5q-9 8 -18 17.5t-14 20.5q-3 5 -6 9t-10 6q-6 2 -10 8t-9 10q1 1 1.5 3t2.5 4q4 -1 5.5 -2t5.5 -2q2 0 2 2v3q8 -4 19.5 -5.5t20.5 -5.5q10 -5 19.5 -9t19.5 -10q4 12 6 22t5 21
q5 10 10.5 22.5t0.5 23.5q5 2 11.5 -0.5t13.5 -7t12.5 -10t7.5 -9.5v-7q2 -2 4 -5t4 -8q3 -6 -1 -15.5t-2 -18.5q13 9 25.5 18.5t25.5 16.5q6 5 10 9t8 9q5 5 10.5 0t9.5 -7q6 -6 17 -14t13 -17q2 -14 -2.5 -20.5t-14.5 -16.5q-11 -12 -22.5 -23.5l-22.5 -22.5
q-3 -3 -9.5 -7.5t-11.5 -10t-7 -11t4 -9.5q11 -8 20 -16.5t18 -19.5q11 -13 18 -21.5t2 -26.5q-10 -3 -16.5 -6.5t-19.5 1.5q-9 4 -18 10t-19 9q-1 3 -6 8.5t-11 11t-11.5 9.5t-7.5 3q-7 -3 -10 -9t-5 -13l-4 -14t-6 -12q-2 -2 -4 -9l-4 -14t-5.5 -12t-9.5 -4q-3 0 -6 7
t-5.5 15.5t-4 16t-2.5 10.5q-5 0 -7 -2.5t-5 -4.5q-2 1 -2 2t-3 1q-8 -4 -13 -12q0 3 4 7.5t1 9.5q-3 -1 -4 -4.5t-3 -3.5q-1 -1 -2.5 -2t-4.5 1q0 -4 -3.5 -7t-5.5 -5t-1 -4t-1 -5q-10 -5 -12 -15q-6 -8 -9.5 -6t-5 8t-2 13.5t0.5 9.5q0 5 2 9t4 9t6.5 9t6.5 9
q7 14 16 27.5t16 28.5q1 2 0 -1.5t-5 -0.5q5 9 12.5 16.5t13.5 18.5z" />
    <glyph glyph-name="plus" unicode="+" horiz-adv-x="474" 
d="M170 90q-1 8 -4 15.5t-4 15.5q-2 8 -1 18.5t-6 15.5q-3 -1 -2 -6t-1 -9q-2 2 -2 6v8q-17 2 -31.5 8t-29.5 11q-8 2 -11.5 7.5t-10.5 9.5q-6 3 -13 5.5t-12 7.5q0 2 0.5 2.5t0.5 2.5q-2 0 -5.5 7t-2.5 9q9 -3 18 -5t18 -2q11 0 21.5 1.5t21.5 3.5q9 2 25.5 2.5t23.5 5.5
q2 1 4.5 9.5t4 18.5t3 18.5t1.5 11.5q3 8 3.5 14.5t7.5 13.5q1 2 -0.5 2t-1.5 2q2 18 12.5 31t17.5 29q2 -3 5.5 -5t6.5 -4q2 -3 4.5 -6.5t4.5 -6.5q8 -8 13 -15.5t5 -18.5q2 -10 -1 -16t-5 -14q-2 -9 -3 -17.5t-3 -17.5q2 -2 3 1.5t2 4.5q3 -5 -2.5 -9t-3.5 -11
q19 -8 41.5 -6t42.5 0q26 -3 50.5 -8.5t49.5 -13.5q-7 -10 -18.5 -10.5t-21.5 -1.5q-11 -2 -24 -7t-24 -10q-24 -9 -47.5 -16t-49.5 -16q-4 -14 -3 -31.5t1 -33.5q0 -2 1 -8t-1 -10q-2 -6 -8.5 -5.5t-9.5 -5.5q-3 0 -6 1.5t-3 -3.5l-22 6t-17 12q-5 5 -10.5 15.5t-3.5 18.5
q4 -5 5.5 -11.5t6.5 -10.5z" />
    <glyph glyph-name="comma" unicode="," horiz-adv-x="296" 
d="M109 101q7 0 11 -9q8 -1 16 -3t13 -9l4.5 -4.5t7.5 -4.5q2 -1 3.5 -2t3.5 -1q0 -2 -2 -6q3 -6 10.5 -9t9.5 -12q0 -2 -2 -10.5t-3 -13.5q-2 -8 -5.5 -15.5t-8.5 -9.5q0 -3 -2 -5t-3 -6l-2.5 -5t-1.5 -6q-1 -1 -2.5 -1t-3.5 -1q-2 -4 -4 -9t-9 -7q-3 -9 -8 -12
q-2 -2 -5 -1t-5 -1q-1 0 -3.5 -1.5t-4.5 -3.5q-5 -5 -6.5 -8.5t-6.5 -8.5q-5 -8 -9.5 -12t-12.5 -10q-4 -5 -7.5 -7.5t-5.5 -4.5q-3 -1 -6 -1q-2 -1 -5 -1h-2l-4 4q-2 1 -4.5 0.5t-3.5 -0.5q-7 2 -9 6t-7 7q5 14 7 25.5t9 22.5q3 11 9 20.5t12 20.5q7 9 11.5 20t9.5 22
q6 11 12.5 21t9.5 21q2 7 1.5 15t3.5 16z" />
    <glyph glyph-name="hyphen" unicode="-" horiz-adv-x="498" 
d="M194 196q-2 1 -1.5 1.5t-4.5 0.5q-3 0 -6 -2t-7 -3h-8q-7 -1 -11.5 -2t-15.5 -1q-23 0 -39.5 15t-32.5 27q3 3 7 1.5t9 -1.5q11 1 23.5 5t24.5 9q23 8 43 13.5t46 11.5q18 5 46.5 8t56.5 2q10 -1 25.5 -3.5t27.5 -5.5q6 -1 14 -1.5t16 -2t13.5 -3t6.5 -3.5q4 -11 -7 -14
t-20 -4q-9 -2 -20 -3t-20 -2t-19 -3t-22 -2q-5 0 -10.5 -0.5t-14.5 -3.5q-5 -1 -9 -2.5t-8 -1.5q-5 -2 -9 -2.5t-9 -2.5q-2 -2 -3 -1.5t-5 -1.5q-2 -1 -2.5 -1.5t-1.5 -0.5q-13 -5 -27 -9.5t-26 -10.5z" />
    <glyph glyph-name="period" unicode="." horiz-adv-x="296" 
d="M68 96q13 1 18.5 6t16.5 0q9 -1 12 -2l12 -4q9 -5 14 -5.5t7 -2.5q1 -2 2 -8.5t3 -9.5q1 -6 2 -10.5t2 -6.5q0 -11 -5.5 -17t-10.5 -14q-5 -4 -9 -9t-8.5 -9t-9.5 -5.5t-12 2.5q-1 1 -3.5 4.5t-4.5 5.5q-3 1 -6.5 1t-8.5 3q-8 8 -13 22t-6 24q-2 9 1 19t7 16z" />
    <glyph glyph-name="slash" unicode="/" horiz-adv-x="443" 
d="M61 67q-2 2 0.5 4.5t0.5 4.5q3 -2 1 -4.5t-2 -4.5zM222 342q1 0 1 -0.5t-1 -0.5q4 0 8 5.5t8.5 12.5t8 13.5t6.5 9.5q4 5 4 7.5t3 7.5q2 5 7.5 7t3.5 9q3 2 2.5 1t2.5 0q5 11 10.5 22.5t11.5 19.5q2 4 6 6t7 6q4 4 5.5 8.5t6.5 8.5q0 2 5 8t8 6q4 11 13 18.5t17 15.5
q9 8 15.5 18t14.5 19l36.5 36.5t41.5 31.5q4 -7 2.5 -14t-5.5 -13t-8.5 -11.5t-7.5 -10.5q1 -2 2.5 2t4.5 4q-14 -24 -27.5 -46.5t-30.5 -42.5q-5 -5 -11 -11.5t-13 -13.5q-15 -17 -25 -38t-23 -39q2 1 2.5 -2t-0.5 -6.5t-4 -6t-7 -0.5q3 -7 -3 -11q2 -4 5.5 -0.5t6.5 9.5
t5 13t1 10q8 7 13.5 16t12.5 18q6 9 14.5 17.5t13.5 18.5q1 -10 -7.5 -18t-12.5 -17q-1 -5 -6 -14t-7 -10q-5 -2 -8.5 -12t-6.5 -15q-7 -11 -14 -20.5t-12 -21.5q-9 -2 -13.5 -15t-8.5 -20q-5 -10 -14 -19.5t-11 -21.5q-1 -9 -6 -14.5t-6 -15.5q0 -8 -4.5 -13.5t-7.5 -12.5
q-2 -8 -3 -14t-5 -14q2 -3 3.5 2t2.5 9q2 -9 -4.5 -15.5t-8.5 -15.5q-2 -2 -3.5 -3t-5.5 -2q-4 -17 -12.5 -28t-13.5 -27q-2 1 -5.5 -2t-7 -7t-5.5 -8t0 -5q-5 0 -2.5 1.5t1.5 3.5q-7 -7 -7 -15.5t-9 -13.5q-2 -3 -5 -5.5t-5 -4.5q2 -2 2 -4q-3 -4 -4.5 -4.5t-1.5 -6.5
q-5 1 -8 -3.5t-6 -10.5l-6 -12t-6 -8q-9 -8 -12 -23.5t-13 -24.5q-7 -9 -10.5 -23t-18.5 -19q-5 -3 -14.5 -5t-20 -2.5t-20 1t-14.5 4.5q0 4 6 9t8 10l7.5 22.5t5.5 21.5q13 43 32 88q5 1 2.5 -1t-1.5 -5q2 5 7 12t0 11q2 2 3.5 5.5t1.5 8.5q5 0 2.5 -2t-1.5 -4q1 3 2.5 8
t2.5 8q2 0 4.5 9.5t4.5 9.5q6 3 10.5 10t8.5 15.5t7.5 17.5t7.5 16q22 42 48.5 80t53.5 77zM248 230q-1 -5 -3.5 -7t1.5 -5q0 3 2.5 6.5t-0.5 5.5zM229 185l-2.5 -3t-4.5 -7.5t-3 -9t1 -7.5q2 7 4.5 12.5t4.5 14.5zM346 406q0 5 2 6.5t4 5.5q-3 -2 -6.5 -6t0.5 -6zM233 190
l2 4.5t4.5 9t3 8.5t-2.5 4q0 -6 -4.5 -13.5t-2.5 -12.5zM264 262q3 -3 0.5 -7t-2.5 -8q0 1 0.5 6.5t1.5 8.5z" />
    <glyph glyph-name="zero" unicode="0" horiz-adv-x="498" 
d="M216 -30q-6 0 -4 3t2 5q-12 -3 -22.5 -8t-22.5 -7q-6 0 -11 -1.5t-10 -1.5q-8 0 -9 2t-7 6q-24 0 -41 8q-6 -2 -3.5 0.5t-2.5 4.5q-9 3 -20 11t-20 19t-14.5 22.5t-4.5 22.5q0 17 -4 35t-2 35q2 18 7 35.5t7 35.5q2 5 1.5 11t2.5 14q7 6 7 15t4 16l4 14t5 13q4 4 7 8
q2 4 1 7.5t1 8.5q2 2 4.5 3.5t4.5 5.5q2 2 1 4.5t1 6.5q4 5 9 11.5t9 11.5q8 14 15 28.5t19 26.5q0 4 -2.5 3.5t-2.5 3.5q15 14 28 30.5t29 32.5q4 5 12 10.5t6 13.5q0 7 7.5 9.5t6.5 10.5q7 -4 12 1.5t10 9.5q7 2 9.5 0.5t6.5 -5.5q6 -5 10.5 -7t9.5 -6q9 -9 14 -9t6 -2
t4 -2q4 0 9.5 -0.5t8.5 -4.5q2 -3 6 -6t8 -3q5 2 4 -1t3 -3q5 0 10.5 1t10.5 -1q6 -7 12 -8t11 -3q7 -2 12 -4t10 -7q2 -2 4 -3.5t5 -3.5q2 -2 5.5 -1.5t5.5 -1.5q5 -6 9.5 -14.5t8.5 -16.5q8 -10 10.5 -21.5t2.5 -22.5q0 -14 1 -27.5t-1 -27.5q0 -14 -2.5 -27t-5.5 -27
l-3.5 -7l-3.5 -7q-2 -3 -2.5 -9.5t-2.5 -10.5q-3 -6 -7 -19t-12 -18q2 -4 -1.5 -5.5t-1.5 -6.5q-11 -3 -12 -9.5t-3 -14.5q-2 -10 -8.5 -17.5t-12.5 -13.5q-8 -11 -14 -18.5l-14 -17.5q-6 -8 -11.5 -17t-15.5 -15q-5 -3 -10.5 -10t-9.5 -14q-5 -7 -11.5 -13.5l-11.5 -11.5
q-5 -2 -7.5 -1t-8.5 -1q-5 0 -8 -3.5t-5 -7.5q-8 -6 -15.5 -13.5t-15.5 -10.5zM341 422q-7 0 -11 -4l-8 -4t-8 -7q-16 -8 -28 -23q-6 -8 -12 -17t-11 -17q-8 -11 -16 -22.5t-15 -21.5q-12 -22 -23.5 -43.5t-21.5 -42.5q-4 -11 -6.5 -19.5t-6.5 -16.5q-5 -12 -2.5 -23.5
t-2.5 -21.5q-16 8 -21.5 24.5t-7.5 33.5q0 19 6.5 39.5t4.5 40.5q-2 -4 -5.5 -8t-5.5 -7q0 -2 1 -2.5t-1 -2.5q-2 -5 -2 -7v-4q-2 -12 -3 -23t-8 -21q-2 -4 -2.5 -9.5t-2.5 -8.5q-2 -8 -6.5 -14t-6.5 -13q-3 -13 -8 -25v-11q2 -4 3.5 -3.5t-3.5 -4.5q-2 -4 -0.5 -7t3.5 -5
q0 -5 -1.5 -7t-1.5 -4q0 -4 1.5 -6t1.5 -7q2 -12 5 -24.5t11 -20.5q8 -7 19.5 -6.5t21.5 2.5q14 3 25.5 10.5t23.5 17.5q22 16 41.5 36.5t36.5 41.5q18 22 31.5 46.5t23.5 49.5q0 6 0.5 11t2.5 10t5 9t3 9q4 11 3 23.5t-1 26.5q0 21 4.5 43.5t0.5 44.5q-5 2 -10 8.5t-10 6.5
z" />
    <glyph glyph-name="one" unicode="1" horiz-adv-x="359" 
d="M174 -80q-8 5 -19 5t-18 7q-5 2 -12 13t-10 19q-5 14 -6.5 32.5t-1.5 39.5q0 19 1 38t2 35q4 53 14 96.5t21 78.5q-5 0 -12.5 -3.5t-16.5 -6.5q-7 -4 -14.5 -6.5t-15.5 -7.5q-5 -3 -11 -11.5t-11 -8.5q-3 0 -8.5 2.5t-11 7t-8.5 9.5t-2 9q1 5 5.5 6.5t9.5 3.5
q11 7 21.5 21.5t19.5 26.5q24 33 51 62t51 60q6 8 11.5 14t8.5 12q0 1 2.5 7.5t2.5 11.5q3 12 2.5 19.5t13.5 8.5q9 1 14.5 -3t16.5 -7q9 -2 19.5 -2.5t17.5 -5.5q4 -2 13 -9.5t11 -12.5q3 -14 -6 -22.5t-14 -15.5q-1 -4 -2 -6l-3 -6q-3 -7 -6.5 -14t-9.5 -15
q-3 -4 -6.5 -13t-6.5 -17q-14 -30 -22 -67.5t-19 -71.5q-2 -8 -4 -14t-4 -14q-2 -6 -5 -12.5t-5 -12.5t-2.5 -13t-1.5 -13q-4 -20 -8 -39t-6 -39q-2 -14 -3 -28.5t-4 -27.5q-4 -14 -6.5 -27t-4.5 -24q-1 -13 1 -25t-3 -24z" />
    <glyph glyph-name="two" unicode="2" horiz-adv-x="486" 
d="M115 30q14 3 29.5 11t30.5 13q8 3 15 5.5t16 6.5q15 6 30 11q7 2 16 2.5t17 2.5q7 2 14.5 5t15.5 4q15 3 32.5 4t33.5 2q8 1 20 0t23 -3q12 -2 20 -8t8 -14q-1 -2 -4.5 -5t-8 -6t-9 -6.5t-7.5 -4.5q-10 -5 -18.5 -7.5t-14.5 -7.5l-35 -17.5l-31 -15.5q-23 -11 -49.5 -22
t-55.5 -20q-20 -5 -40.5 -8.5t-46.5 -3.5q-11 0 -20 2t-19 4q-4 2 -9 0.5t-8 -0.5q-6 2 -12.5 7.5t-12.5 8.5q2 5 5.5 7t6.5 7q0 6 -2 13t-2 13q0 7 2 13t2 15q2 8 1 15.5t1 12.5q1 3 4 4.5t5 3.5q7 9 12.5 25.5t13.5 27.5q10 22 23 39q19 25 40.5 50.5t42.5 53.5
q19 26 37 54t35 59q-14 -3 -27 -8.5t-29 -10.5q-28 -8 -54 -16.5t-50 -22.5q-8 -2 -13 -6t-10 -7q-15 -3 -30 2.5t-17 13.5q-1 5 2 6.5t8 7.5q8 6 18 20t17 20q19 20 40 39t45 33.5t52 24.5t62 12q12 2 25.5 2t24.5 -5q8 -3 13.5 -8.5t13.5 -10.5q10 -8 18.5 -11.5
t13.5 -12.5q7 -9 11 -22.5t-1 -30.5q-1 -6 -4.5 -11.5t-6.5 -13.5q-3 -6 -5 -12.5t-5 -11.5q-11 -20 -28.5 -35t-29.5 -33q-6 -8 -12.5 -14.5t-13.5 -14.5q-3 -5 -5.5 -11t-6.5 -9q-2 -3 -5.5 -3t-6.5 -2q-2 -2 -2 -4.5t-2 -5.5q-8 -9 -20 -20t-20 -23q-12 3 -21.5 -10
t-18.5 -25q-5 -6 -7 -12.5t-7 -14.5q-3 -5 -7.5 -9t-6.5 -8q-11 -13 -22.5 -27.5t-16.5 -31.5z" />
    <glyph glyph-name="three" unicode="3" horiz-adv-x="504" 
d="M185 -40v-3h-3v3h3zM314 299q-3 -1 -3.5 0.5t-3.5 2.5q-7 -5 -12 -11t-11 -13q-3 -2 -7.5 -5.5t-5.5 -8.5q5 -5 12.5 -4t14.5 -1q5 -2 10 -5l10 -6q5 -2 9.5 -4.5t9.5 -4.5q1 -1 2.5 -3.5t3.5 -3.5q4 -4 7.5 -5t5.5 -4q2 -2 2.5 -4.5t1.5 -4.5q1 -5 2.5 -7.5t3.5 -9.5
q5 -14 10 -23t1 -23q0 -2 -2 -4.5t-3 -4.5q-3 -9 -4.5 -16.5t-6.5 -16.5q0 -4 -5 -9q-5 -8 -12 -15.5t-4 -18.5q-8 -13 -18.5 -22.5t-21.5 -20.5l-3 -3l-2 -2q-6 -6 -16 -12.5t-19 -11.5q2 8 9.5 10.5t8.5 12.5q-2 2 -4 -3q-4 -2 -10 -3.5t-10 -5.5q-1 -2 -1 -4.5t-2 -4.5
q-5 -3 -12 -5.5t-9 -7.5q-2 -2 -1.5 -4t-1.5 -4q-4 -5 -11.5 -9t-11.5 -6q-4 -1 -8 0.5t-6 -0.5q-2 4 1 4t3 2q-5 6 -9.5 3t-12.5 -4q-5 0 -3.5 2t1.5 4q-11 1 -13 -7q-3 -2 -7 -1.5t-8 0.5t-7.5 -1t-4.5 -5q2 -3 8.5 -1.5t7.5 -1.5q0 -5 -2.5 -5.5t-6 0.5t-7 2.5t-6.5 -0.5
q-2 1 -1.5 4.5t-3.5 1.5q-5 1 -4 -2t-1 -5q-8 2 -14 0.5t-12 3.5q-3 2 -4 5.5t-4 5.5q-2 1 -5 2t-5 3q-5 3 -8 6t-8 0q-5 5 -8.5 10t-8.5 8q-1 4 -1 4.5t2 2.5q-2 3 -4 1t-3 0q-4 2 -1 6t-2 5q-4 -1 -1.5 -3t1.5 -4q-7 1 -11 4.5t-4 12.5q-6 -2 -7.5 4.5t-9.5 6.5q0 6 6 6
q2 3 -0.5 3t-2.5 3q1 2 4 4.5t7 4.5q5 -4 4.5 -9.5t-8.5 -8.5q1 -2 2.5 -4t2.5 -4q2 0 1.5 2.5t0.5 3.5q4 -1 5.5 -4t4.5 3q4 2 3.5 -1.5t1.5 -3.5q2 -1 5 1t5 1q3 0 5 -2t5 -4t8 -2.5t9 -3.5q5 -2 9 -4.5t6 -2.5q3 -1 13 -1t13 1q1 0 2.5 2t5.5 4q5 2 9 2t2 8q9 -2 13 1
t6.5 7l5 8t7.5 5q1 3 2 5.5t2 6.5q5 0 10.5 2t10.5 4q7 4 12.5 8t14.5 9q24 15 50.5 39t36.5 55q5 12 2 19.5t-21 5.5q-2 0 -6 -1.5t-11 -1.5q-16 -2 -33 -8.5t-33 -10.5q-2 0 -4.5 0.5t-4.5 -0.5q-3 0 -4 -1t-3 -1t-9 1.5t-9 3.5q-2 1 -3 3.5t-2 4.5q-5 5 -9 8t-6 5
q-5 12 2 24q9 -1 14.5 1t9.5 6.5t7.5 10t8.5 12.5q6 7 11.5 13t10.5 11q11 14 22.5 27.5t21.5 24.5q3 2 6.5 4t5.5 4q12 10 22.5 22.5t18.5 25.5q-6 4 -13.5 1.5t-13.5 -3.5q-3 -1 -5 -0.5t-5 0.5q-17 -2 -35 -7.5t-37 -7.5q-15 -1 -33 -2t-33 -4q-10 -2 -14 -7
q-4 7 -6.5 12t-7.5 11q-2 4 -4.5 6.5t-2.5 4.5q0 4 4.5 6.5t4.5 8.5q1 3 -1.5 7.5t-1.5 6.5q2 6 9 8t6 7q10 0 20 0.5t20 2.5q20 2 38 8t37 10q6 2 14 2t16 2q20 5 41 9t42 7q6 1 11 1t10 3q4 1 9 7t12 5q12 -2 26 -7.5t26 -10.5q5 -2 9 -3t7 -3t8 -6.5t5 -5.5
q2 -7 0.5 -14.5t-5 -15t-7.5 -14t-6 -9.5q-2 -2 -3.5 -4t-2.5 -3q-2 -2 -3.5 -1t-3.5 -1q-5 -5 -9 -10t-9 -10q-4 -4 -7 -6.5t-5 -5.5q-9 -9 -19 -17t-22 -17q-4 -3 -4.5 -3.5t-8.5 -3.5q-11 -4 -18.5 -11.5t-15.5 -14.5zM25 14q-1 4 -1.5 6.5t-3.5 2.5q-1 -5 5 -9zM161 -20
q2 2 6 3l8 2t7.5 2.5t4.5 5.5q-4 0 -16 -4t-10 -9z" />
    <glyph glyph-name="four" unicode="4" horiz-adv-x="521" 
d="M191 296q2 -2 -0.5 -7t-6 -10.5t-8 -10t-7.5 -5.5q5 6 8 12t9 9q-1 4 1.5 7t3.5 5zM397 534q3 1 3.5 -0.5t1.5 -3.5q5 3 13 2t11 -5q8 4 16 -2.5t13 -14.5q6 -1 9.5 -4t5.5 -7l4 -8t6 -6q0 -6 -4.5 -16t-10 -20t-10.5 -18.5t-6 -11.5q-2 -2 -5.5 -8l-7 -12t-6.5 -11
t-4 -6q-1 -4 -1 -11q-5 -1 -5.5 -3.5t-1.5 -6.5q-3 -2 -1 -3t2 -3q-3 -3 -6.5 -9.5t-7.5 -14t-6.5 -14.5t-3.5 -10q-2 -2 -4.5 -9t-6 -15.5t-7 -16.5t-5.5 -12q-1 -1 -2.5 -2t-3.5 1q0 -9 -2 -13q-2 -5 -4.5 -9.5t-4.5 -8.5q7 -5 14 -5.5t13 -0.5q9 0 16.5 -2.5t15.5 -4.5
q9 -4 13.5 -9t8 -11t7 -12.5t8.5 -12.5q-2 0 -7 1t-7 -1q-1 -2 -1.5 -5t-2.5 -5q-14 1 -28.5 1t-30.5 -5q-5 0 -1.5 2.5t1.5 5.5q-4 0 -9 0.5t-10 0t-9 -2.5t-5 -7q-3 2 -7.5 -0.5t-8.5 -7t-7.5 -9t-4.5 -6.5q-2 -8 -5.5 -14t-7.5 -11q-5 -10 -10 -19t-9 -18
q-5 -11 -7.5 -21t-4.5 -20q-2 -9 -5 -22t2 -19q3 -5 1.5 -13.5t-2.5 -14.5q-2 -11 -2 -22.5t-1 -23.5q-6 3 -8.5 2.5t-3.5 -6.5q-5 4 -11.5 6t-12.5 3.5t-11.5 4.5t-9.5 10q-7 13 -12.5 35t-0.5 38q3 10 2.5 18.5t1.5 17.5q1 14 8 31q0 8 -1 16t5 14q6 8 6.5 17t1.5 19
q-15 -3 -32 -8.5t-33 -11.5q-7 -3 -14.5 -5.5t-15.5 -5.5q-5 -2 -7.5 -5t-6.5 -4q-5 -2 -7 -0.5t-8 0.5q-5 -3 -9 -4.5t-7 -3.5q-6 -2 -11 -6t-9 -4q-5 -2 -9.5 0.5t-10.5 -0.5l-10 6t-7 9q-5 2 -6 -1.5t-6 -3.5q-4 3 -12.5 6.5t-8.5 10.5q-2 5 1 8.5t-4 7.5q-8 10 3 18
q6 5 8 12.5t8 12.5q3 -3 1.5 -8t-1.5 -10q8 0 8.5 7.5t3.5 12.5q4 4 8 6.5t8 4.5q2 3 9.5 13t16 21t15 19.5t6.5 10.5q2 2 4 2.5t3 2.5q3 5 5.5 10.5t10.5 8.5q3 2 6 8.5t8 9.5q8 7 10 14.5t7 12.5q0 4 -2 2.5t-2 2.5q0 5 3 6.5t4 6.5q2 4 1.5 7.5t3.5 7.5q1 2 10.5 15
t21.5 28.5t23 29.5t14 17q6 7 17 6t19 -3t12 -7.5t10 -8.5q4 -2 0 -12t-12.5 -22t-17.5 -23t-14 -14q-2 -5 -2.5 -12.5t-4.5 -11.5l1 -2v-1q-3 -1 -4 2t-3 -2q-1 -2 -2 -3.5t-7 -3.5q-6 -1 -10.5 -7.5t-8.5 -11.5t-7 -12.5t-8 -12.5q-3 -8 -11 -11t-4 -12q5 1 8.5 7t8.5 10
q2 -8 -6 -16q-4 -5 -4.5 -9.5t-2.5 -10.5q-3 -9 -12.5 -16t-11.5 -18q18 0 36.5 3t36.5 3q1 -5 -4 -4.5t-7 -3.5q5 -5 16 0t18 5q4 0 9.5 2t-0.5 5q-7 2 -12.5 -2t-11.5 -2q2 4 6.5 5t10 1.5t10 1t7.5 5.5q5 8 9 21t4 21q2 7 6 10.5t4 9.5q-1 4 1.5 11.5t6.5 15t8 14t5 9.5
q0 3 0.5 7.5t2.5 8.5q1 2 3 2t2 5q-2 11 7.5 25t16.5 25q7 12 15 25t13 27q2 2 2 4.5t2 3.5q1 5 2 5.5t6 1.5q7 5 10 10l6 10q4 5 6.5 11t5.5 13q1 6 1.5 13.5t5.5 12.5zM130 226q-3 -3 -2.5 -3t2 1.5l2.5 2.5t-2 0v-1zM173 184q8 0 12 1q0 6 -6.5 4t-5.5 -5z" />
    <glyph glyph-name="five" unicode="5" horiz-adv-x="458" 
d="M151 252q0 -3 2.5 0t1.5 -4q-5 -16 -13.5 -30t-11.5 -33q11 -1 18 3.5t16 7.5q11 2 24 4t26 2q11 0 22.5 -2t22.5 -4q5 -3 9 -6t9 -5q4 -1 7.5 -1t5.5 -2t2 -3t1 -3h3t3 -1q4 -2 7 -8t8 -11q5 -4 10 -6t7 -6q2 -1 3.5 -4.5t3.5 -6.5q9 -13 7.5 -25t-9.5 -29
q-1 -2 -0.5 -3t-1.5 -4q-4 -3 -5.5 -9t-3.5 -10q-1 -5 -4.5 -8t-6.5 -5q-7 -8 -14.5 -16t-15.5 -14q2 2 3.5 3t0.5 6q-5 -2 -9 -8t-9 -11q-2 -2 -4 -2h-3q-4 -4 -4.5 -8.5t-2.5 -7.5q-2 -1 -6 -5l-6 -6q-3 -2 -6.5 -1.5t-5.5 -1.5q-8 -7 -15 -10q-5 -4 -7.5 -6.5t-6.5 -4.5
q-9 -5 -16.5 -10.5t-14.5 -8.5q-3 -1 -7.5 -1.5t-8.5 -2.5q-4 -1 -5.5 -2.5t-4.5 -3.5q-2 -1 -5.5 -0.5t-6.5 0.5l-12 -1.5t-12 -0.5q-5 0 -7.5 -2t-4.5 -2q-1 0 -3 2t-4 3q-5 1 -10.5 1.5t-10.5 3.5q-9 5 -12.5 13.5t-7.5 17.5q25 1 39.5 10.5t28.5 19.5q5 1 2 3.5t0 2.5
q21 13 41 27t38 30q17 16 33.5 35t24.5 44q-2 5 -8.5 3.5t-12.5 -2.5q-5 0 -10 -0.5t-10 -1.5q-14 -3 -29.5 -5t-30.5 -5q-9 -2 -19 -5.5t-19.5 -5.5t-19 -3t-18.5 1q-4 0 -8 2q-3 1 -3.5 3t-1.5 4q-2 2 -4.5 1t-4.5 1q-8 5 -16 10.5t-11 10.5q8 0 19.5 2.5t13.5 7.5
q1 4 -0.5 9.5t-2.5 10.5q-2 23 0 45t6 43q0 5 0.5 9.5t2.5 9.5q2 3 4 7t4 7q1 5 0.5 9t0.5 9q1 4 3.5 6.5t2.5 5.5q1 4 0.5 8.5t-0.5 7.5q4 20 13.5 36t15.5 34q-3 5 -8 5t-9 2q-5 2 -7 4t-6 4t-8 2.5t-6 6.5q2 3 6 2t7 0q7 1 15.5 5t19.5 8q12 5 17.5 8t8.5 17q1 6 -0.5 12
t-1.5 11q6 4 11.5 3t10.5 -3.5l10 -5t11 -1.5l4.5 -4.5t6.5 -3.5q5 0 9.5 2t10.5 4q13 2 33.5 4.5t39.5 3.5q26 1 49.5 -1.5t44.5 -9.5q8 -4 11.5 -6t8.5 -9q3 -2 5 -3.5t1 -5.5q0 -7 -15.5 -11t-29.5 -9q-26 -5 -58.5 -10t-63.5 -11q-7 0 -15 -0.5t-11 -2.5q-4 -2 -8 -9
t-7.5 -16t-6.5 -18.5t-6 -16.5q-3 -12 -8 -22l-10 -20q-5 -8 -6 -13t-3 -14q-1 -3 -2.5 -5.5t-3.5 -6.5q-2 -3 -2.5 -6.5t-1.5 -7.5z" />
    <glyph glyph-name="six" unicode="6" horiz-adv-x="490" 
d="M92 122q3 -3 7 -1t7 -2q-4 -17 -8 -36.5t-2 -40.5q6 2 6 7.5t2 8.5t4 6.5t4 7.5q1 1 0.5 4t0.5 6q1 1 4 2.5t5 4.5q4 5 9 12.5t11 13.5q11 11 24 20t25 20q0 -4 -5.5 -6.5t-9.5 -8.5l-1 -1q-4 -1 -5.5 -4.5t-1.5 -6.5q-11 -3 -18 -12l-14 -18q-4 -5 -7.5 -10t-4.5 -10
q2 -2 4.5 3.5t2.5 9.5q5 -1 5 1t2 4q5 2 8 7q17 16 35.5 33t39.5 31q-5 -1 -12 -5.5t-15 -4.5q2 5 7 6.5t10 5.5q10 8 22 15t26 12q4 2 6.5 4t3.5 3q4 1 6.5 0.5t4.5 0.5t4 2.5t4 2.5q4 2 6 5q4 2 7.5 5t6.5 4q1 -1 2 -1h4q4 0 6.5 1t3.5 1t4 -1t6 -1t12 -0.5t12 -0.5
q5 -2 11 -2t14 -2q4 0 6.5 -2t5.5 -4q9 -2 15 -4t14 -7q2 -1 4.5 -2t4.5 -2q3 -2 6 -3q2 -2 5.5 -12.5t1.5 -18.5q0 -3 -2 -4.5t-4 -6.5q-1 -5 -1 -9t-2 -8q-2 -3 -6 -5t-6 -4l-2.5 -5t-2.5 -7q-3 -5 -4 -8.5t-3 -6.5q-4 -5 -8.5 -7.5t-6.5 -7.5q-10 -1 -17 -9.5t-13 -15.5
q-11 0 -19 -8.5t-14 -13.5q-8 -8 -13.5 -12.5t-13.5 -9.5q4 -7 -1 -11t-5 -11q-5 0 -7 -4.5t-5 -6.5q-2 -1 -5 -0.5t-5 -0.5q-5 -3 -8 -6.5t-10 -2.5q-2 1 -0.5 1.5t1.5 2.5q-8 -4 -17.5 -7t-17.5 -8q-3 -1 -1.5 -3t-0.5 -5q-4 -1 -7.5 -4t-8.5 2q-1 -2 -3 -5t-5 -3
q-8 -1 -22.5 -4t-22.5 -4q-5 0 -15.5 3t-16.5 4q-8 2 -15.5 2t-13.5 2q-9 4 -20.5 11.5t-19.5 15.5q-12 13 -21.5 34t-10.5 41q-2 5 -1 11t1 14q-2 11 -3 23t-1 25q0 17 2 33t4 31q2 9 6 17t8 17q5 15 7.5 26t11.5 16q-3 5 0 7.5t5 6.5q1 2 0.5 5t0.5 5q2 3 4.5 6t4.5 5
q2 5 2.5 9t2.5 7q3 7 8 12t9 13q13 17 24.5 35t25.5 35q16 15 29.5 31.5t30.5 30.5q8 6 18 12t14 18q2 2 3 0.5t4 0.5q2 3 2 6.5t4 5.5q19 -15 50 -32q8 -5 15 -9.5t2 -18.5q-2 -6 -7.5 -8t-12.5 -5q-14 -5 -30 -14t-27 -20q-5 -6 -12.5 -14.5t-14.5 -16.5q-5 -5 -8 -11
t-8 -12q-4 -3 -6 -5l-5 -5q-1 -2 -3 -4.5t0 -7.5q-3 -2 -4.5 -3.5t-4.5 -2.5q0 -3 0.5 -4t-0.5 -6q-5 -5 -10 -13.5t-9 -17.5q-2 -3 -2.5 -5.5t-3.5 -4.5q-3 -4 -4.5 -5t-3.5 -4q-5 -11 -10 -22.5t-10 -23.5q-3 -8 -5.5 -11.5t-4.5 -11.5q-2 -2 -3 -5.5t3 -2.5
q-4 -11 -9 -29.5t-11 -33.5zM167 311q2 -1 3.5 2.5t-2.5 4.5q0 -3 -1 -3t0 -4zM226 173q4 0 6 1q-3 0 -4 -0.5t-2 -0.5zM264 32q26 16 49 31.5t41 32.5q4 5 12 14.5t12 14.5q1 2 4 9.5t2 9.5q0 2 -4 5.5t-9 6.5t-10 5t-7 1q-13 -5 -28.5 -15.5t-26.5 -18.5q-7 -3 -9 -4
t-7 -6q-5 -8 -13.5 -13.5t-16.5 -8.5q-2 -1 -5 -0.5t-6 -0.5q-2 -2 -7 -5.5t-11 -5.5q-5 -3 -6 -4.5t-4 -3.5q-5 -3 -9.5 -7t-10.5 -9q-5 -5 -5 -6.5t-3 -6.5q-2 -4 -5.5 -8t-5.5 -7q-4 -2 -6.5 -3t-5.5 -3q-2 -1 -2.5 -2.5t-2.5 -3.5q-3 -6 -7.5 -11t-5.5 -13q38 0 67 11
t52 25zM94 114q1 1 1.5 3t-3.5 1v-2q0 -2 2 -2zM91 -42q-8 5 -15.5 11.5t-15.5 13.5q4 -10 13 -17t18 -8z" />
    <glyph glyph-name="seven" unicode="7" horiz-adv-x="527" 
d="M253 74q-5 0 -5.5 2.5t-2.5 3.5q-5 -6 -8.5 -14t-8.5 -16t-8 -15.5t-6 -15.5q-8 -11 -15 -22t-12 -22q-4 -8 -6.5 -14t-7.5 -14q-3 2 -2 9.5t-2 9.5q-7 -10 -11 -22t-3 -32q-3 2 -5.5 -2t-4.5 -4q-8 -2 -17.5 1.5t-13.5 7.5q-3 7 -3.5 20.5t-0.5 26.5q2 11 3.5 25.5
t6.5 28.5q2 5 4 9t3 9t1.5 10.5t2.5 10.5q1 3 4.5 5t6.5 7q3 8 3.5 15t4.5 12q-5 0 -7 3.5t-7 8.5q-6 5 -14.5 7.5t-13.5 7.5q-1 2 -1.5 5t-4.5 6q-3 5 -6.5 9.5t-3.5 13.5q15 -5 34 -5q17 0 32 5t18 19q3 0 3 -3.5v-4.5q5 8 7.5 17.5t7.5 18.5q17 30 39 62q2 5 5 8.5t6 7.5
q2 5 3.5 9.5t5.5 8.5q2 5 4.5 7t7.5 8q3 5 5.5 11t7.5 11q8 7 14.5 14t8.5 15q4 5 2.5 9.5t3.5 9.5q-1 5 -1.5 2.5t-5.5 -2.5q1 5 4.5 7.5t3.5 10.5q-11 1 -20.5 1.5t-19.5 0.5q-66 0 -117 -20.5t-93 -46.5q-8 4 -15.5 8t-14.5 9t-11.5 12t-5.5 18q20 2 35 11t32 16
q42 20 93 33.5t119 11.5q6 -1 14 -1t15 -3q9 -2 20 -8t20 -5q5 0 10 6.5t10 11.5q2 3 4.5 3.5t2.5 2.5q4 5 4.5 11t3.5 9q6 -1 9 1.5t6 5.5t7 5t12 -1q5 -2 5.5 -2.5t2.5 -5.5q3 2 7 0.5t7 -4.5q2 -2 4.5 -2.5t5.5 -3.5q2 -2 2 -3.5t2 -2.5q6 -5 11.5 -7.5t8.5 -5.5
q0 -2 1.5 -9.5t1.5 -9.5q-2 -9 -12 -17.5t-19 -18.5q-17 -18 -29.5 -32t-26.5 -34q-2 -2 -1.5 -4.5t-1.5 -4.5h-3.5t-3.5 -2q-2 -1 -2 -3.5t-2 -6.5q-2 -2 -5.5 -6t-6.5 -9q-2 -5 -4.5 -10t-7.5 -13q-2 -1 -5 -4t-3 -6q-1 -2 0.5 -5.5t1.5 -6.5q-2 -10 -8.5 -19t-13.5 -18
q-5 -9 -10.5 -15.5t-4.5 -11.5q1 -2 8 -4t15.5 -3.5t15 -3t8.5 -3.5q8 -7 5.5 -14.5t-12.5 -10.5q-5 -2 -9 -1t-6 1q-10 -2 -17.5 -4.5t-16.5 -6.5q-8 -3 -10 -3.5t-7 -4.5q-7 -5 -10.5 -12t-10.5 -14q-5 -8 -11 -14t-8 -18z" />
    <glyph glyph-name="eight" unicode="8" horiz-adv-x="464" 
d="M484 540q0 -2 2 -4q-3 -3 -7.5 -7t-8.5 -6v-3q0 -4 -2.5 -12.5t-7 -17.5t-10 -18t-12.5 -15q0 -5 -5.5 -13t-12.5 -16t-13 -16t-6 -14t3.5 -19t5.5 -20q0 -12 -9.5 -19.5t-21.5 -8.5q-10 1 -20 6.5t-19 5.5q-5 -4 -7.5 -10t-4.5 -11q-10 -6 -20 -14.5t-18 -16.5t-13 -15
t-5 -8q2 -6 8.5 -16.5t6.5 -21.5q-4 -5 -7.5 -8t-3.5 -6l8 -24t6 -26q-2 -4 -3 -5t-5 -4q1 -5 4 -4t3 -4q0 -3 -1 -7t-1 -8q0 -2 0.5 -3.5t0.5 -4.5q0 -6 -2.5 -12t-2.5 -11q1 -2 1 -6v-6q0 -5 -2.5 -14.5t-7 -19t-9.5 -17.5t-9 -11q-10 -34 -23.5 -53.5t-28.5 -30.5
t-30.5 -16t-28.5 -11q-6 3 -13.5 8t-11.5 7q-8 5 -17 5.5t-14 2.5q-18 5 -36.5 18.5t-18.5 30.5q0 4 1 5q-1 3 -1 10q0 5 0.5 9.5t0.5 5.5v3q0 2 1 4.5t1 4.5t-1 4.5t-2 4.5q7 4 13 17t11 28.5t9 29.5t9 21q-9 -3 -11 -12.5t-11 -12.5q1 6 6 15.5t10 18.5t9.5 16t5.5 7
q6 0 10 -2q11 23 29 45.5t36 40.5l-35 75v2q0 3 2.5 2.5t2.5 3.5q-3 2 -7.5 10t-8 17t-6 16.5t-2.5 8.5q-2 14 -1.5 29.5t-7.5 25.5q6 4 9.5 10t7 12.5t8.5 12t15 8.5q-2 5 -3 8.5t-3 7.5q1 1 3 1q4 0 8 -4q1 0 1 1q0 2 -0.5 2.5t-0.5 1.5q0 3 7 2.5t12 -0.5h20t21 -1h1
q2 0 6.5 -2.5t6.5 -2.5q10 0 14 1t6 2q3 0 5 -1.5t5 -1.5q2 0 4 2q4 -4 12 -4q7 0 15 1t16 1q8 -5 16 -4.5t13 0.5h9q8 -3 12 -7t9 -4q13 6 25.5 15t24 19.5t21.5 21.5t17 19q11 7 20.5 18t12.5 16q-6 9 -7 16q6 2 12 2q9 0 11 -5t2 -21v-8v-2q0 -2 -2 -4l-1 -1q0 -2 2.5 -5
t2.5 -6q-1 -8 -5 -12t-4 -8zM191 -6q13 0 21.5 12t13 27t6.5 30t2 21q-1 12 -6.5 30t-12.5 35.5t-13.5 29.5t-9.5 12q-3 -3 -7 -7.5t-6 -9.5q-4 -5 -11 -13.5t-13.5 -18t-11.5 -18t-5 -12.5v-2q-9 -10 -13 -24t-5.5 -27t-1.5 -21.5t0 -7.5q0 -2 3 -10.5t7.5 -18.5t8.5 -17.5
t7 -7.5q6 0 8 4t14 7q3 1 7 4t9 3h9zM247 383q2 0 3 -0.5t3 -0.5q-5 8 -3.5 15.5t-2.5 14.5l-11 12q-10 -4 -14 -14.5t-4 -23.5q0 -5 1 -9.5t2 -9.5q11 3 15 9.5t11 6.5z" />
    <glyph glyph-name="nine" unicode="9" horiz-adv-x="500" 
d="M348 478q6 -2 7.5 2t6.5 4q4 -7 11 -7t13 -2q13 -3 22 -14q2 0 2 -2v-4q5 -5 11.5 -11t8.5 -12v-11q2 -8 3.5 -23.5t-0.5 -27.5q0 -5 -1.5 -7t-1.5 -4q-2 -5 -1 -9t1 -6q-2 -9 -7 -20.5t-10 -22.5q-7 -10 -10 -20t-5 -23q-2 0 -2.5 2t-0.5 4q-17 -23 -30.5 -51t-28.5 -51
q-9 -15 -21 -30t-25 -30q-3 -8 -7.5 -14.5t-12.5 -14.5q-11 -10 -21 -22t-21 -23l-3 -6q-1 -2 -2 -3q-2 -2 -3.5 -1t-3.5 -1q-1 -1 -1 -2q-1 -1 -1 -4h-9q-5 -5 -9 -10.5t-8 -8.5q-1 -1 -2 -1q-1 -1 -1 -3l-3 -2q0 -2 -3 -1.5t-5 -1.5q-8 0 -11 -3q-4 -2 -7 -6.5t-8 -8.5h-9
q-6 -5 -10 -10.5t-9 -12.5q-5 0 -7 3t-7 3q-3 1 -6 0.5t-6 -0.5t-5.5 2.5t-3.5 8.5q0 2 4.5 3t6.5 3q5 4 9 14t13 21q6 6 16 12t8 20q5 4 9 9.5t7 10.5q3 6 7 10l9 9q2 4 2.5 8t3.5 9q0 2 2.5 2t2.5 2q11 11 19.5 25t18.5 27q10 14 20.5 30t18.5 32q14 23 27.5 46t26.5 49
q5 8 9.5 17t4.5 17q-5 0 -8.5 -5t-8.5 -10q-5 0 -11 -4q-2 0 -4 -3t-4 -3q-3 -2 -5.5 -1.5t-4.5 -1.5q-5 -2 -7.5 -5.5t-8.5 -8.5q-5 -2 -9.5 -5.5t-10.5 -5.5h-5.5t-6.5 -2q-11 -4 -23.5 -14t-27.5 -16q-3 -3 -9 -3q-3 0 -5.5 -3t-4.5 -5q-6 -2 -12 -3t-12 -3
q-15 -7 -32 -14t-33 -7q-19 -2 -27.5 2.5t-15.5 15.5q-2 5 -5.5 10t-5.5 7q0 7 0.5 8.5t-4.5 6.5q-4 3 -4 9.5t-7 10.5q5 5 8.5 6t8.5 5q8 5 14 13.5t13 17.5q20 23 43 45.5t50 40.5q16 13 34 26t37 24q26 11 55.5 21t69.5 5q2 0 2.5 -4t4.5 -4zM284 424q-19 -7 -34 -13.5
t-29 -15.5q-14 -11 -27 -21.5t-26 -23.5q-4 -6 -9 -13t-11 -13h-6q-2 -3 -2.5 -4.5t-2.5 -3.5q-3 -3 -6.5 -5t-8.5 -4q-2 -2 -3.5 -5.5t-4.5 -5.5q-6 -5 -13.5 -10t-9.5 -14q26 0 45 8t36 19q27 14 48.5 33t41.5 40q14 13 27.5 24.5t26.5 24.5q2 2 7 5.5t-1 5.5
q-11 -2 -20.5 -2.5t-17.5 -5.5z" />
    <glyph glyph-name="colon" unicode=":" horiz-adv-x="300" 
d="M95 56q11 2 16 6t15 0q8 -1 10.5 -2t9.5 -4q8 -5 13 -5t7 -2q1 -2 1.5 -7.5t1.5 -7.5q1 -6 2.5 -9.5t2.5 -6.5q0 -9 -4.5 -14.5t-9.5 -11.5q-4 -4 -8 -8.5t-8 -8.5t-8.5 -5t-10.5 2q-1 2 -3 5t-4 4q-3 1 -6.5 1t-7.5 2q-6 8 -10.5 20.5t-5.5 20.5q-2 8 0.5 17t6.5 14z
M120 276q6 8 10 3.5t9 -4.5t8.5 2.5t10.5 0.5q5 0 8 -2.5t8 -5.5q4 -2 8 -3.5t8 -3.5q1 0 7.5 -6.5t7.5 -9.5l3 -7q0 -1 -2 -6t-4 -7q0 -1 -1.5 -2.5t-2.5 -4.5q-2 -4 -4 -5.5t-4 -6.5q-3 -5 -5 -5q-2 -2 -4.5 -3.5t-4.5 -3.5t-3 -5t-5 -5l-2 -4t-3 -3q-5 -4 -7 -5t-7 -5
q-3 -2 -6 -5.5t-11 -3.5q-2 0 -6.5 2t-5.5 4q-5 3 -10 13l-9 18q-1 5 -2 11t-1 12q-2 8 -4 13.5t2 13.5q0 3 1 3.5t1 2.5q4 5 5.5 13t4.5 10q4 2 5.5 1t6.5 -1z" />
    <glyph glyph-name="semicolon" unicode=";" horiz-adv-x="300" 
d="M119 276q6 8 10 3.5t9 -4.5t8.5 2.5t10.5 0.5q5 0 8 -2.5t8 -5.5q4 -2 8 -3.5t7 -3.5q2 0 8.5 -6.5t7.5 -9.5l2 -7q0 -1 -1.5 -6t-4.5 -7q0 -1 -1 -2.5t-2 -4.5q-2 -4 -4 -5.5t-5 -6.5q-2 -5 -4 -5q-2 -2 -4.5 -3.5t-4.5 -3.5t-3 -5t-5 -5l-2 -4t-3 -3q-5 -4 -7 -5t-7 -5
q-3 -2 -6 -5.5t-11 -3.5q-2 0 -6.5 2t-5.5 4q-5 3 -10.5 13t-8.5 18q-3 10 -3 23q-2 8 -4 13.5t2 13.5q0 3 1 3.5t1 2.5q4 5 5.5 13t4.5 10q4 2 5.5 1t6.5 -1zM113 78q5 0 7 -2.5t4 -5.5q7 -2 15 -4t13 -8l5 -5t7 -5q6 -2 8 -2q0 -3 -1 -4l-2 -2q4 -7 11.5 -10t9.5 -12
q0 -2 -2 -10.5t-3 -13.5q-2 -8 -5.5 -15.5t-9.5 -9.5q0 -3 -1.5 -5t-2.5 -6q-4 -4 -4 -11q-1 -1 -3 -1t-3 -1q-3 -4 -5 -9t-8 -7q-4 -8 -9 -12q-2 -2 -4.5 -1t-4.5 -1q-1 0 -3.5 -1.5t-5.5 -3.5q-5 -5 -6.5 -8.5t-6.5 -8.5q-5 -7 -9.5 -11.5t-11.5 -9.5q-8 -10 -14 -12
l-6 -2q-2 -1 -5 -1h-2l-3 4q-2 1 -5 0.5t-4 -0.5q-6 2 -8 6t-7 7q5 14 7 25.5t8 22.5q4 11 9.5 21t12.5 20q6 9 10.5 20.5t9.5 21.5q7 11 13 21.5t10 20.5q2 7 1.5 15t3.5 16z" />
    <glyph glyph-name="less" unicode="&#x3c;" horiz-adv-x="540" 
d="M382 342q-5 -8 -9 -15t-11 -15q-2 -4 -5 -6t-8 -6q-5 -5 -11 -11.5t-12 -11.5q-3 -4 -6 -6.5t-7 -6.5q-2 -3 -4.5 -5.5t-3.5 -4.5q-1 -1 -1.5 -2t-2.5 -2q-1 -3 -3 -3.5t-4 -1.5q-2 -2 -3.5 -4.5t-3.5 -4.5l-8.5 -8.5t-8.5 -9.5q-2 -2 -3.5 -4t-3.5 -4q-7 -6 -15 -10
t-13 -12q1 -2 4 -3.5t7 -4.5q8 -5 19.5 -9t21.5 -9q13 -8 25 -14t26 -14q24 -15 49 -30t58 -20q-18 -13 -45 -13q-2 0 -4.5 0.5t-4.5 -0.5q-4 0 -6 -2t-6 -1q0 -1 1.5 -2t1.5 -4q-2 -1 -4 -1t-2 1q-2 2 -2 0t2 -1q-3 -1 -14 -1q-2 0 -5 0.5t-8 1.5h-6q-2 2 -5.5 4.5
t-6.5 4.5h-6q-2 2 -4 5t-3 3q-2 1 -6.5 2t-7.5 2q-7 1 -10 1t-8 1q-6 1 -11 3.5t-10 3.5q-13 2 -24.5 6t-25.5 8q-11 2 -22 3.5t-21 3.5q-14 5 -26.5 8t-25.5 5q-3 1 -2 -1.5t-2 -0.5q-5 3 -7 9.5t-8 8.5q1 7 -5 12t-1 12q-3 2 -4.5 9t1.5 10q-2 2 -3 2q-1 3 0 3.5t2 2.5
q-2 4 -4 6t1 7q3 -2 9 -4.5t12 -4.5q2 0 7 -1t8 1q5 1 7.5 7.5t6.5 11.5q6 8 17.5 16.5t19.5 14.5q7 5 10 8.5t8 8.5q23 17 50 32.5t50 33.5q8 5 14.5 9t14.5 9q7 3 10 8q5 3 8.5 8t11.5 1q3 -1 6 -4.5t7 -5.5l6 -3t5 -3q2 -2 2.5 -4.5t3.5 -2.5z" />
    <glyph glyph-name="equal" unicode="=" horiz-adv-x="464" 
d="M390 295q0 -5 -3 -7t-6 -3.5l-6 -3t-4 -4.5q-7 1 -15 -4t-14 -5q-13 2 -22 -3t-20 -6q-29 -2 -56 -8t-56 -11q-14 -3 -31.5 -5t-34.5 -2q-19 0 -34 3q-27 6 -34 22t-5 40q21 -6 43.5 -1t45.5 7q20 1 39.5 1h39.5q23 0 44 -0.5t44 -2.5h21t23 -2q10 -2 21.5 -1t19.5 -4z
M397 206q-2 -14 -12 -17t-18 -8q-4 -4 -6 -6.5t-11 -4.5q-5 -1 -11 -4t-14 -5q-20 -9 -42 -17.5t-47 -15.5q-25 -8 -51 -13.5t-54 -1.5l-24 8t-17 15q-8 11 -13.5 23t-15.5 22v3q1 2 4 -0.5t5 -2.5h9.5t9.5 1q13 5 24 7.5t25 4.5q20 4 38 4.5t40 0.5q24 -2 49.5 -0.5
t51.5 1.5q8 2 18 2t18 2q11 2 23 -0.5t21 2.5z" />
    <glyph glyph-name="greater" unicode="&#x3e;" horiz-adv-x="540" 
d="M73 350q3 2 3 4.5t1 5.5q4 2 5.5 2.5t3.5 4.5q4 2 6.5 6.5t5.5 5.5q8 7 12 3t10 -6q4 -5 10 -8q9 -3 16.5 -5t17.5 -4q26 -14 53.5 -24t56.5 -23q6 -2 10.5 -5.5t9.5 -6.5q9 -5 22.5 -10.5t20.5 -12.5q5 -5 9.5 -11t8.5 -4q4 -2 8.5 -1t7.5 3q5 4 10 7.5t8 5.5
q3 -4 0 -13q1 -2 2 -1.5t0 -3.5q-2 -1 -2 -1.5t-1 -1.5q3 0 3 -8t-2 -12q8 -5 3 -11t-2 -15q-6 -2 -8 -8t-4 -10q-2 -1 -2 1.5t-3 0.5q-20 -9 -48 -25q-9 -4 -19.5 -6.5t-21.5 -8.5q-11 -7 -22.5 -13t-22.5 -11q-5 -3 -9.5 -5t-9.5 -6q-5 -2 -8.5 -2.5t-8.5 -2.5
q-3 -2 -7.5 -4t-5.5 -4q-2 0 -4 -8q-2 -1 -3.5 -1t-3.5 -2q-4 -3 -6.5 -5t-4.5 -4q-2 0 -3.5 -1t-2.5 -1q-5 -1 -7 -3t-4 -2q-5 -2 -8.5 -2h-5.5q2 0 2 1t-2 0q0 -1 -2 -1t-4 1q-1 3 0.5 4t1.5 2q-5 -1 -7 0t-5 -1q-6 1 -9 0q-12 -4 -25.5 -3t-24.5 6q32 11 53.5 30.5
t41.5 38.5q13 10 24 19.5t23 19.5q9 7 18.5 13t17.5 15q6 1 8 8q-6 8 -14.5 9.5t-16.5 5.5q-2 2 -5 4l-6 4q-3 5 -8 8t-10 5q-2 2 -4.5 5t-4.5 3q-3 1 -9 1q-2 2 -2 4t-2 3q-3 3 -9 6q-5 4 -8.5 6t-8.5 4q-5 3 -13 9t-13 10q-8 2 -10.5 4t-6.5 4q-7 7 -12 12.5t-12 12.5z
" />
    <glyph glyph-name="question" unicode="?" horiz-adv-x="514" 
d="M91 4q5 5 2 8t-5 11q0 4 0.5 9.5t-6.5 5.5q5 4 7.5 1t6.5 -3q8 1 12.5 7.5t6.5 11.5q5 -1 11.5 -2t11.5 -3q1 0 1.5 -2t2.5 -2q5 -2 12.5 -4t13.5 -5.5t9.5 -9t2.5 -14.5q1 1 -0.5 -4t-3.5 -5q-2 -2 -4 -2.5t-3 -2.5q-5 -3 -7.5 -8l-4.5 -9q-1 -2 -3.5 -3.5t-4.5 -3.5
q-4 -4 -6 -8t-10 -5q-4 0 -11 2.5t-8 5.5q-1 0 -2 4.5t-3 8.5q-5 5 -7.5 11t-10.5 10zM269 334q13 0 20.5 8t15.5 13q1 -5 -3 -10t-9 -7q-5 -5 -10.5 -9.5t-13.5 -9.5q0 -1 -3 -1v-2q-7 -5 -12.5 -8.5t-12.5 -9.5q-1 -2 -2 -5t-3 -5q-2 -4 -6 -4q-3 -2 -6 -6.5t-6 -7.5
q-2 -3 -6 -6t-7 -5q-6 -7 -11.5 -16t-13.5 -17q-1 -2 -4.5 -4t-5.5 -4q-5 -5 -7 -12.5t-2 -12.5q-1 -5 1 -11t1 -13q-1 -2 -8 -7.5t-5 -11.5q-5 1 -7.5 4.5t-8.5 8.5q-5 5 -11.5 7.5t-8.5 13.5q-2 3 -4 14.5t-1 16.5q0 4 2 7t3 5q0 4 -0.5 8t0.5 6q0 1 3 6t7 9q1 3 2 8t2 7
q2 2 5.5 3t4.5 3q4 5 5.5 11.5t5.5 11.5q5 5 9 12t10 13q3 5 7.5 9t5.5 7q0 4 1.5 7l2.5 5q8 13 19 27q6 8 15 15.5t17 17.5q17 15 35 29t33 32q7 8 12.5 13t13.5 12q1 0 3.5 2t4.5 4t2.5 6t2.5 4q0 2 2.5 3t4.5 4q6 5 10 9.5t11 9.5q4 5 9 13t12 15q8 8 17 13.5t10 17.5
q14 14 29 27.5t26 31.5q-5 4 -10 2.5t-10 -1.5h-11t-10 -1q-8 -2 -17 -6t-18 -6q-3 -4 -8.5 -7t-10.5 -6t-11.5 -4.5t-11.5 -4.5q-6 -1 -9.5 -5t-8.5 -6q-5 -1 -8 -1h-8q-8 -2 -15 -7.5t-18 -7.5q-2 -2 -5.5 -1t-6.5 -1q-5 -2 -9.5 -4.5t-10.5 -4.5q-10 -2 -15 -4.5
t-12 -8.5q-6 -5 -7.5 -7.5t-6.5 -9.5q-5 -5 -7.5 -8.5t-3.5 -13.5q-1 3 -6.5 2t-8.5 2q-7 2 -9.5 9.5t-10.5 16.5q-3 5 -7.5 9t-6.5 8t-4 9t-2 7q2 3 4.5 4t3.5 6q3 4 3.5 7t1.5 8q6 4 6 11q32 16 71 38t84 34q6 1 13.5 2t14.5 4q6 1 14 2.5t13 1.5q23 5 49.5 2t46.5 -5
q6 0 15 -3q9 -2 13 -5t11 -9q3 1 6 -2.5t8 -5.5q3 -2 6 -1t7 -1q5 -2 9.5 -6.5t12.5 -2.5q1 -5 5.5 -11.5t6.5 -13.5q2 -5 0.5 -11.5t4.5 -9.5q-3 -6 -3.5 -14.5t-6.5 -16.5q-3 -2 -0.5 -2t2.5 -4q-2 -4 -3 -8t-5 -8q-2 -1 -4 -1.5t-6 -2.5q-6 -6 -13 -15t-12 -17l-6 -6
q-2 -4 -5 -6q-11 -11 -24.5 -18.5t-25.5 -18.5q-3 -5 -8.5 -7.5t-10.5 -7.5q-7 -6 -12.5 -11.5t-12.5 -10.5q-14 -13 -32.5 -25.5t-35.5 -23.5q-6 -5 -11 -7.5t-10 -4.5q-4 -4 -8.5 -8t-9.5 -7q-13 -11 -25 -21.5t-23 -24.5zM396 454q-3 -8 -13 -11q-3 -4 -5.5 -8t-4.5 -8
q-2 -2 -8 -3.5t-5 -8.5q11 1 17 8t14 14q5 5 13 8t15 9q5 3 9 7l9 9q4 4 9.5 7t7.5 8q0 3 -3 5q-14 -8 -28.5 -18t-26.5 -18zM330 427q0 -10 -6.5 -9.5t-11.5 -2.5q-5 -1 -7 -3.5t-5 -4.5q-2 -3 -5 -4.5t-6 -2.5q-4 -5 -6.5 -11t-7.5 -9q-4 -2 -7.5 -3t-5.5 -6
q-5 -1 -7 -4.5t-4 -6.5q2 -5 4 -1.5t7 5.5q3 1 15 3q5 2 6.5 5.5t3.5 1.5v-3q0 -2 1 -1q0 -1 2 0.5t4 3.5t4 3.5t2 0.5q1 2 0 3.5t1 2.5q7 5 15 8.5t15 9.5q3 4 4 6.5t6 4.5q6 8 16.5 12.5t14.5 17.5q-6 1 -11.5 -2.5t-10.5 -7.5t-10 -6.5t-10 0.5zM266 355q10 0 15 11
q-12 0 -15 -11zM242 331q8 2 16 7.5t8 13.5q-3 -6 -13.5 -9.5t-10.5 -11.5z" />
    <glyph glyph-name="at" unicode="@" horiz-adv-x="547" 
d="M396 2q0 -5 -8.5 -7.5t-11.5 -5.5q-8 -7 -19 -11t-20 -9q-5 4 -9 1.5t-6 -5.5q-2 1 -9 -1t-15.5 -6t-16 -7.5t-10.5 -3.5q1 5 4.5 6.5t7.5 6.5q-5 0 -10 -2.5t-10 -4.5t-9 -1.5t-9 -1.5q-5 -4 -17.5 -7t-18.5 -3q-2 3 0 4t0 1q-3 1 -3 -1v-3q-2 2 -2 4q-5 2 -8.5 -1
t-7.5 -4q-3 0 -6 2t-7 0q-5 0 -6 -2t-6 0q-7 3 -14.5 2.5t-15.5 1.5q-4 1 -5 3.5t-4 3.5q-6 2 -12 1t-11 1q2 0 2 3q-4 7 -10.5 4t-12.5 -2q3 0 1 3t-2 -1q-2 0 -1.5 3t0.5 5q-5 6 -14 11.5t-14 13.5q-2 7 -6 9.5t-6 7.5q-2 10 -4.5 19t-5.5 18q-3 7 -3 18t-3 18q0 2 1 1
t1 -2q-2 20 3.5 42.5t10.5 42.5q2 11 7.5 19.5t12.5 18.5q9 13 15.5 25t17.5 23q20 17 43 33.5t46 29.5q4 3 16 9.5t28.5 14t37 15t42.5 12.5q5 1 15 2t19.5 0t17.5 -3t10 -6q1 -1 8 -3.5t9 -4.5q10 -5 19.5 -7.5t19.5 -7.5q11 -7 24.5 -20t19.5 -24q8 -18 11 -40.5
t-2 -38.5q-4 -17 -11 -33q-5 -9 -8.5 -17.5t-9.5 -15.5q-11 -20 -27.5 -39.5t-33.5 -34.5q-13 -11 -28 -18t-33 -8q-12 0 -20.5 5.5t-14.5 14t-10.5 18t-8.5 17.5q-8 -1 -14 -10t-11 -14q-8 -7 -18 -14.5t-21 -14.5q-12 -7 -22 -6.5t-19 5.5t-17.5 13t-17.5 15q-7 5 -9 14
t-2 19q0 16 4 30.5t10 22.5q14 21 28 37t32 33q2 -3 6.5 -1.5t6.5 -1.5q2 3 0 4.5t-1 5.5q0 1 7.5 3.5t8.5 2.5q8 0 15.5 -3.5t14.5 -7.5q15 -5 25 -12q5 -2 8.5 -8t7.5 -5q1 -6 4 -10.5t5 -11.5q10 2 14.5 -4t12.5 -10q-3 -5 -1 -9t2 -9q-1 -5 -3.5 -11t-3.5 -11
q-5 -11 -8.5 -23t-3.5 -23q16 3 31 14t28 25.5t23.5 30.5t16.5 30q7 13 8.5 30t-3.5 34t-11 31.5t-23 23.5q-40 6 -73.5 -3.5t-59.5 -24t-43.5 -29.5l-24.5 -21q-20 -15 -38 -37t-30.5 -47.5t-17.5 -52.5t1 -52q2 2 2 6v9q5 -5 10 -18t7 -20q-5 4 -9 7.5t-6 9.5
q2 -29 23.5 -38.5t51.5 -9.5q18 0 36.5 2.5t35.5 6t31 7.5t23 6q17 6 33.5 11.5t33.5 11.5q12 4 25 8.5t24 9.5q26 14 51 26t46 35q-1 -12 -6.5 -20t-12 -14.5t-14 -13t-13.5 -14.5q-1 2 -6.5 -2t-12.5 -10t-13.5 -12t-8.5 -7q-1 -1 -1 -3t-2 -4q-12 0 -18 -8q-8 5 -12 -2
q2 0 4 2zM234 176q-8 -2 -16 -12l-12 -15l-7.5 -10l-9 -12t-7 -11.5t-1.5 -8.5q20 15 42 29.5t41 32.5q-6 5 -14 7.5t-16 -0.5z" />
    <glyph glyph-name="A" unicode="A" horiz-adv-x="640" 
d="M486 -94q-2 2 -1 4t-1 5q-4 -5 -4 -12.5t-2 -12.5q0 -2 -5 -1.5t-3 -4.5q-5 -2 -4 1t-3 3q-1 -3 -3 -4.5t-4 -2.5q-2 -5 -3 -6t-7 -3q-2 0 -6.5 3.5t-9 8t-8.5 9.5t-4 7q-6 7 -8 17t-3 21q-4 9 -7 18.5t-4 17.5v12t-1 12q-2 14 -2.5 28.5t-0.5 28.5v51v28t-2 28
q-17 -5 -34.5 -9.5t-35.5 -12.5q-5 -2 -13.5 -5t-13.5 -5l-1 -3q-6 -4 -12.5 -6.5t-11.5 -7.5q-11 -7 -22.5 -10.5t-27.5 -8.5q-17 -4 -31 -10t-36 -8q-9 -2 -21.5 -0.5t-19.5 -2.5q-6 -5 -12.5 -22.5t-11.5 -27.5q-2 -4 -3 -4.5t-3 -2.5q-6 -13 -9.5 -26.5t-16.5 -14.5
q-3 -1 -9 0t-12.5 3t-12.5 4.5t-9 4.5q-3 4 -5 12t4 13l2.5 2.5t0.5 3.5q5 8 8 17t7 19q1 9 5.5 16t7.5 18q-18 5 -35 10.5t-31 14.5q-5 4 -9.5 5.5t-9.5 6.5q-2 1 -2 4t-2 7q-8 5 -16 8.5t-13 10.5q2 4 8.5 3t12.5 0q5 0 10 2t10 1q26 5 50 13.5t48 16.5q7 1 12 1t6 2
q9 7 13 20t8 27q2 9 8 18t9 18q3 11 8.5 21t9.5 20q8 13 13 29t13 30q12 23 22.5 45.5t20.5 45.5q7 10 12.5 16.5t10.5 17.5q4 7 8.5 13t7.5 14q0 7 2 11q1 2 3 4.5t4 5.5q7 7 11.5 16t12.5 20q5 5 8.5 9.5t8.5 9.5q0 5 4 6q2 5 5.5 7t7.5 7q5 8 10.5 14t10.5 13q2 1 2 8
q6 3 14 5q5 8 11.5 15.5t12.5 16.5q6 5 17 11.5t20 4.5q20 -1 38 -8t28 -21t14.5 -31t4.5 -37q3 -4 1.5 -6.5t-2.5 -4.5q3 -3 3.5 -5t2.5 -4q0 -10 -2 -19t0 -17l2 -6t1 -6q0 -2 -1 -4l-2 -4q1 -2 1 -3t1 -2q0 -1 1 -2v-19t2 -20q0 -5 2 -7t2 -6q2 -4 0 -10t-2 -14
q0 -11 2.5 -26t4.5 -29v-38v-77q-1 -15 4 -29q-1 -9 -3 -18t0 -17v-18t2 -19q0 -6 -2 -12t0 -13q-1 -5 -0.5 -9.5t0.5 -9.5q2 -11 -0.5 -20.5t-2.5 -19.5q0 -3 3.5 -7.5t3.5 -6.5q-1 -8 -1.5 -15t-2.5 -15q-2 -17 -0.5 -34t-3.5 -31q-2 -3 -4 -5t-4 -7t-1.5 -9.5t0.5 -9.5
q-2 -4 -3.5 -6.5t-3.5 -4.5q-3 -11 -3 -22.5t-3 -22.5zM410 676q-11 -3 -20.5 -12t-15.5 -17q-8 -8 -14 -17t-12 -17q-4 -5 -8.5 -8.5t-7.5 -5.5q-2 -1 -3 -4.5t-3 -5.5q-1 -2 -2 -4.5t-1 -6.5q-8 -6 -13 -18q-6 -6 -11 -12.5t-10 -11.5q-5 -6 -6 -10.5t-6 -13.5
q-6 -11 -10.5 -23t-12.5 -22q-5 -14 -12.5 -26.5t-12.5 -26.5q-2 -8 -4.5 -11.5t-4.5 -10.5q-2 -2 -1 -5.5t-4 -2.5q0 -4 1 -6.5t1 -5.5q-5 0 -4.5 -10t-4.5 -14q-3 0 -2 3t-3 1q5 -5 0.5 -10.5t-0.5 -11.5q-10 -10 -13.5 -26t-8.5 -33q3 -4 1.5 -11.5t-2.5 -11.5
q-3 0 -2.5 -1t-1.5 -3q-2 -5 -4 -12.5t0 -15.5q48 6 104 6q29 0 57.5 -2t55.5 -8q0 51 4 102.5t9.5 103.5t10 104t5.5 102q-2 15 -1 29t-4 23q-1 1 -2 1t-1 -1zM198 302q5 -6 0 -16t-6 -15q-4 8 0 16.5t6 14.5zM467 -120q1 0 2 -1q0 -5 -2 -2.5t0 3.5z" />
    <glyph glyph-name="B" unicode="B" horiz-adv-x="698" 
d="M511 544q0 -2 -1 0t1 3v-3zM470 472q2 -2 -0.5 -2.5t-2.5 -1.5q-2 1 0 1.5t3 2.5zM71 143q-1 -3 -1 -13q-3 6 1 13zM70 128q0 -1 1 -2q-1 -2 -2 -1t1 3zM527 32q1 -2 -1 -4t-3 -2q-2 2 0.5 3.5t3.5 2.5zM522 25q-2 -2 -2.5 -3.5t-3.5 0.5q1 0 2 1.5t4 1.5zM514 20
q2 -1 0.5 -2t-4.5 1q1 1 2.5 0.5t1.5 0.5zM61 95q2 -1 1.5 -3.5t-1.5 -3.5q-2 0 0 7zM467 -16q0 -2 -2.5 -4t-3.5 -2q0 4 6 6zM401 -55q-2 -1 -4 -3t-5 -2l4 4t5 1zM322 -83q-2 1 -2 0t-2 0q1 1 4 0zM274 -85q2 -2 0 -4.5t-3 -1.5q0 4 1.5 4.5t1.5 1.5zM287 -92
q-1 -2 0.5 -1.5t1.5 -1.5q0 -1 -5 -3q-3 0 -4.5 -1.5t-3.5 -1.5q-4 -2 -8.5 -2t-4.5 -4q0 9 8.5 8.5t15.5 6.5zM302 -98q-2 -4 -12 -6q2 5 5.5 6t6.5 0zM494 608q3 -1 2 -5.5t1 -8.5q2 0 1.5 3.5t1.5 2.5q2 -4 5.5 -7t-0.5 -10q2 4 2.5 3t0.5 -4t-0.5 -6t0.5 -4q-2 -2 0 -4
t2 -4q0 -5 -0.5 -9t-0.5 -7q-1 -2 -1.5 -4.5t-2.5 -4.5q0 -2 -2 -4t0 -2q-2 -3 -5 -5l-6 -4q-1 -2 -0.5 -4.5t-1.5 -4.5q-2 -3 -4 -3.5t-2 -3.5q5 1 6 4t4 6q0 -8 -6 -18q-3 -2 -6 -7.5t-6 -8.5l-6 -9q-2 0 -1 -1t-1 -1q-2 -3 -4 -3.5t-2 -3.5q-1 2 -6.5 -4t-6.5 -10
q-5 0 -6 -1l-3 -3q-5 -2 -7.5 -5.5t-6.5 -6.5q-8 -5 -14 -12.5t-15 -13.5q23 -5 47 -7.5t48 -8.5q10 -2 22 -6t20 -11h2q2 -1 1.5 -1t4.5 0q2 -4 2 -5q7 -3 13 -4.5t11 -6.5q2 -3 6 -4.5t6 -6.5q5 1 7.5 -4t7.5 -7q3 -2 7.5 -4.5t7.5 -4.5q2 -1 3 -5t6 -6q2 -3 5 -8.5
t5 -10.5q2 -3 2.5 -6.5t2.5 -5.5q2 -3 3 -5.5l3 -7.5q5 -15 8 -33t0 -35q-1 -6 -2 -11t-4 -9q0 -5 -3 -14.5t-5 -15.5q-2 -5 -3 -9.5t-3 -7.5q-5 -2 -5 -3q-1 -2 -1 -3t-2 -3q-1 -3 -5 -6t-3 -5q-2 -1 -4 -1t-4 -2q0 -7 -3.5 -8.5t-7.5 -5.5q-5 -5 -7.5 -8.5t-5.5 -7.5
q-4 -2 -7.5 -5t-6.5 -5q-2 -4 -4 -5.5t-4 -4.5q-5 -1 -10 -10q-2 -2 -3 -1.5t-3 -0.5q-2 -2 -3 -5.5t-6 -5.5q-2 -1 -3.5 -1.5t-3.5 -3.5q-5 4 -11 -3t-12 -12q-2 -2 -5 -3t-6 -3q-11 -13 -23 -22t-26 -17q-28 -20 -66 -36q-13 -6 -26 -14t-28 -11q4 5 10 6t10 6q5 -1 7 3
t8 3q5 8 11.5 10t12.5 8q-8 -2 -14 -5t-13 -7q-2 0 -7.5 -3.5t-7.5 -2.5q-2 -1 -3.5 -0.5t-2.5 -0.5q-5 -2 -7 -4l-4 -4q-5 -2 -10.5 -2.5t-7.5 -2.5q-7 -2 -13.5 -4.5t-14.5 -2.5q-4 1 -0.5 1.5t1.5 2.5q-6 -1 -11.5 -5.5t-10.5 -6.5q-5 3 -9 2l-5 -3q-2 -1 -4 0.5t-3 -1.5
q-2 0 -1 1t1 3q-4 -2 -6.5 -2.5t-4.5 -2.5q-1 -1 -2 -2.5t-2 -2.5q-2 -1 -5 -0.5t-5 -0.5q-5 -2 -10.5 -6.5t-13.5 -5.5q-2 0 -4.5 0.5t-5.5 0.5q-5 -1 -10 -3t-10 -2q-2 -1 -3.5 -0.5t-3.5 -0.5q-5 -1 -8.5 -4t-8.5 -1q-2 5 0 4.5t5 0.5q2 1 7.5 1.5t9.5 0.5q5 2 9.5 3
t9.5 3q2 0 3 1.5t4 1.5q4 1 5.5 0t4.5 0q2 1 4 3t3 2q2 1 8 3q2 0 5 3q4 2 7.5 3t3.5 9q-4 0 -8.5 -0.5t-9.5 -3.5q-10 -4 -16 -4q-2 -1 -4 -0.5t-4 -0.5q-9 -2 -13 -6q-3 -2 -7 -2t-7 -1q-6 0 -9.5 -2t-5.5 -2q-1 0 -2.5 0.5t-3.5 0.5q-3 0 -6 -3q-2 -2 -3.5 -0.5t-2.5 0.5
q-2 -1 -4 -3l-1 -1q-1 0 -1 1t-1 1q-2 2 -3 0t-3 -3h-7t-4 -4q-2 0 -1.5 2t-2.5 3q-4 2 -8 -1t-6 2q-2 -4 -4.5 -4t-4.5 -3q0 -4 4.5 -4t6.5 3q6 -1 5 -4q5 1 10 0q2 1 1 -1t0 -2q8 2 14.5 4.5t15.5 1.5q-1 -5 -4 -5t-7 -1q-3 -2 -4 -2.5l-3 -1.5h-3.5t-3.5 1q-2 -2 -4 -2
t-5 -1q1 2 0.5 3t-0.5 4q-4 2 -5 -1t-4 -5q-7 -1 -15 1.5t-13 5.5q-2 -1 -8 -0.5t-8 6.5q-2 0 -3.5 -1t-5.5 0v1l-1 1q-2 0 -4.5 1.5t-7.5 3.5q-2 0 -2 2q-1 2 -3.5 1.5t-2.5 1.5q-1 0 -2.5 3t-3.5 4q-1 2 -2.5 3.5t0.5 3.5q-5 0 -6 1.5t-5 2.5q-1 4 1 8t-2 6q3 4 8 8.5
t2 9.5q8 5 12 16t10 19q2 -8 -1.5 -17.5t1.5 -16.5q2 2 2 3t1 2q1 -4 2.5 -6t3.5 -6q3 0 4.5 -2t2.5 -4.5t2.5 -4t4.5 -0.5q1 0 2 1q1 0 1 0.5t1 0.5q4 -4 3 -4q6 0 10 1t10 0q-3 -1 -6.5 -2t-3.5 -6q1 -5 6.5 -3.5t7.5 6.5q2 0 1 -3t2 -1q2 -2 2 0.5t1 3.5q11 2 20 5.5
t20 3.5q3 1 2.5 -1t-0.5 -3q5 0 9 0.5t8 3.5q0 1 -0.5 1t0.5 2q12 3 22 6.5t20 8.5q2 0 2.5 -2t2.5 -2l12 4t12 3q2 2 3 2.5t-1 2.5q2 0 3 -1t3 0q2 2 1 4t2 3q5 0 10.5 2.5t7.5 6.5q4 -2 10.5 0.5t8.5 5.5q4 1 5.5 6t6.5 7q3 2 4.5 1.5t3.5 0.5q6 2 9 6.5t7 6.5
q2 0 4.5 1.5t3.5 2.5q2 0 6 2q7 3 11.5 7t8.5 5q1 2 4 1t0 3q3 -2 4.5 -2.5t3.5 -2.5q2 0 2 2t2 3q3 2 6.5 5.5t7.5 5.5q1 4 4.5 5t4.5 4q5 -1 8.5 1.5t9.5 6.5l9 3q3 2 6 4.5t7 4.5q5 2 7.5 4.5t6.5 4.5q7 2 7 3q10 2 11 10q-1 2 -4 0t-5 2q13 7 30 20q3 3 6.5 5.5t7.5 4.5
q5 3 10 5.5t8 10.5q2 0 2.5 1.5t2.5 0.5q-1 5 2.5 7t5.5 6q0 2 3 5q0 -1 2 1q3 2 7 6t6 9v2q0 1 0.5 1t0.5 1q4 2 5 4q4 9 8 21t7 22q2 8 4 17.5t3 17.5q-1 2 -1 10q1 27 -22 42.5t-53 21.5q-10 2 -19 3t-19 2q-8 2 -10 2q-4 1 -6 0t-5 1q-5 -1 -10 2q-5 -3 -8 -2h-15
q-8 -1 -16.5 -1.5t-18.5 0.5q-8 -1 -16 -2.5t-13 -3.5q-2 0 -6 1.5t-6 -0.5q-4 0 -7.5 -0.5l-10.5 -1.5l-2 -2q-1 0 -1.5 0.5t-2.5 0.5q-5 -2 -12 -6t-12 -6q0 -1 2.5 0t3.5 1q0 -3 -4 -4t-5 0q-3 2 -2 -0.5t-2 -2.5h-4q-2 0 -2.5 -2.5t-1.5 -2.5q-8 -3 -13 -7t-13 -6
q-12 -5 -27.5 -12.5t-29.5 -12.5q-4 -2 -7 -2.5t-5 -1.5q-5 -1 -6.5 -3t-4.5 -3q-8 -3 -17.5 -4.5t-18.5 -3.5q-3 -15 -10 -24q-2 -4 -2.5 -5.5t-1.5 -6.5q0 -5 -2.5 -10t-2.5 -10l-3 2q0 2 1 3t1 5q-3 -3 -4.5 -5.5t-6.5 -2.5q5 -3 4 -6t-3 -8q-1 -8 -1.5 -15t-2.5 -13
q-1 -5 -0.5 -9t-1.5 -8q0 -4 -2.5 -7t-4.5 -5q-1 -2 0 -5t1 -5q0 -5 1.5 -9.5t-3.5 -7.5q-4 2 -2 6.5t-3 5.5q-2 -1 -1 -4.5t1 -7.5q1 0 1 -1t-1 -1q5 -2 5 -1q-2 -2 -1 -4.5t1 -4.5q0 -10 2 -18.5t7 -13.5q2 0 3.5 2t2.5 3q1 -2 3 -3l4 -2v-11t-7 -9h-8t-3 -6q-5 2 -8 1
t-5 1q-8 2 -14 9t-10 15.5t-7 18t-5 15.5q-1 3 -3.5 7t0.5 9q0 2 0.5 2t0.5 1q0 4 -2 9t-2 10q0 11 -1 16q0 8 -0.5 17.5t-0.5 20.5q0 27 3 50q2 4 2 6.5v4.5q-2 5 -6 8t-8 8q-1 2 -1 4.5t-2 6.5q-7 7 -8.5 8t3.5 11q2 2 4 5t3 3q4 3 10.5 5t7.5 7q1 1 3.5 0t5.5 0
q12 57 31 104t37 92q11 24 22.5 46.5t23.5 42.5q-7 2 -11 -1t-9 -4q-10 -3 -21 -5.5t-22 -5.5l-2.5 -2.5t-5.5 0.5q-3 -2 -5.5 -2t-4.5 -1q-7 -4 -15 -7.5t-15 -3.5q-2 2 -6.5 2.5t-6.5 1.5q-17 4 -28 12t-21 18q2 1 6 2t7 4q2 1 4.5 1.5t3.5 2.5q6 2 9 6t8 7q8 2 13 6t14 6
q6 5 13 7t15 6q20 8 38.5 14t41.5 11q3 1 8 2.5t8 2.5q9 1 18 1.5t17 4.5q10 4 13 5q4 0 6.5 -0.5t4.5 -0.5q8 -2 17.5 0.5t17.5 2.5q14 2 31.5 3t34.5 -2q1 0 2 1t3 1l1 -3l2 2q2 2 -1 2q3 -1 3 -2.5t2 -2.5q3 -1 7 0.5t7 0.5q11 -1 22 -3t20 -4q16 -5 32.5 -12t26.5 -12
q5 0 9 -4q1 0 1 -1t1 -1q4 -3 7.5 -4t5.5 -4q1 -2 2 -2.5t1 -1.5t2 -1h1q2 -2 2.5 -3t2.5 -2q1 -1 2.5 -0.5t1.5 -0.5v-2q0 -3 1 -3q4 -3 5.5 -2.5t1.5 -5.5q1 -3 1.5 -1.5t3.5 -0.5q-4 -1 -1.5 -2t1.5 0q2 -1 2 -2t3 -6q0 2 -2 4zM187 376q22 8 45 13.5t46 7.5q6 2 10.5 3
t6.5 2q4 2 8 5.5t9 8.5q9 7 18.5 12t19.5 11q3 3 6 5t6 7q11 8 22 17t20 19q15 14 27.5 30.5t18.5 34.5q5 19 0 31.5t-16 21.5q-3 2 -5.5 3t-4.5 3l-4 2q-2 0 -10 1.5t-10 2.5q-4 1 -4 0.5t-4 0.5q-1 -1 -4 -0.5t-6 1.5h-29h-15q-3 0 -6.5 -1t-7.5 -1q0 1 -1 0q-1 0 -2 -1
h-1q-2 0 -4 1t-3 0q-4 -1 -6.5 -2t-5.5 -2q-2 0 -4.5 0.5t-3.5 -1.5q-11 -3 -25.5 -4t-28.5 -3q-7 -1 -15.5 -2t-9.5 -2q-2 -2 -3 -7l-2 -10q-5 -29 -12.5 -56t-12.5 -58l-4 -16t-5 -17q-5 -10 -7.5 -20t-6.5 -17q-4 -8 -6.5 -16t-2.5 -17q8 2 17.5 4.5t17.5 4.5zM496 528
q1 -1 2 3t-1 3q-2 -2 -1.5 -3.5t0.5 -2.5zM538 371q-12 7 -24.5 11t-27.5 7q13 -5 26 -10.5t26 -7.5zM553 364q-4 2 -7 4.5t-5 3.5l5.5 -5.5t6.5 -2.5zM233 318q-6 -4 -11 -4q-1 0 -1 -3q-2 -3 -5.5 -3.5t-1.5 -3.5q8 5 15 9t15 7q-6 2 -7.5 0.5t-3.5 -2.5zM203 301
q5 -1 9 3q-2 0 -4.5 -1t-4.5 -2zM168 284q5 2 10.5 3.5t7.5 2.5q5 2 6.5 3t4.5 2q2 1 4.5 1t0.5 5q-9 -5 -16.5 -8t-17.5 -9zM60 156q-1 1 2 1q0 3 1 5.5t1 5.5q1 1 4 6t-2 6q-1 -9 -3.5 -13.5t-2.5 -10.5zM438 -16q5 2 8 5.5t6 5.5q-5 -2 -8 -3.5t-6 -7.5zM430 -16
q-2 -3 -6.5 -6t-5.5 -6q2 2 6 3.5t6 -0.5q0 5 3 4.5t4 4.5h-7zM412 -12q-8 -5 -16.5 -11t-17.5 -11q-5 -2 -8.5 -3.5t-5.5 -3.5q-3 -1 -4.5 -4t-6.5 1q-2 -4 -5.5 -5.5t-4.5 -4.5q7 -1 11.5 2t7.5 8q6 -2 8 1t7 7q4 2 6.5 1.5t4.5 0.5q1 2 1 3t1 2q2 1 5 1.5t5 2.5q0 3 1 5
q2 1 2.5 -0.5t2.5 0.5q5 2 9 8h-3zM383 -47q6 0 9 4q3 1 6.5 4.5t5.5 3.5q4 1 8 0.5t4 5.5q-11 -1 -18.5 -6t-14.5 -12zM403 -40q2 0 3 1t3 2q-6 2 -6 -3zM396 -44q1 1 2 1.5t-1 0.5l-1 -1q-1 0 -1 -0.5t1 -0.5zM330 -59q4 -2 5 3q-2 2 -5 -3zM305 -64q-2 2 -3 2
q-2 0 -2.5 -2t-1.5 -4q6 1 11.5 5.5t12.5 9.5q-7 -2 -9.5 -6.5t-6.5 -5.5zM326 -62q0 1 2.5 1.5t0.5 1.5q-1 -1 -3 -1.5t0 -1.5zM301 -74q-1 0 -5.5 -1.5t-2.5 -3.5q8 4 15.5 8t15.5 6v3q-4 -2 -11 -6t-12 -6zM274 -78q13 2 21 8q-5 -1 -12 -3t-9 -5zM253 -78q5 0 10 6
q-3 -2 -7 -2.5t-3 -3.5zM259 -82q5 0 7 3q-6 0 -7 -3zM246 -80l5 2q-7 0 -5 -2zM258 -84v2v-2zM250 -88q2 0 4 2t0 3q-1 -1 -2 -1.5t-2 -3.5zM235 -88q0 2 2.5 2t0.5 2q-2 -2 -3.5 -2t0.5 -2zM222 -86q6 0 7 2h-4t-3 -2zM247 -90q0 1 1.5 0.5t-0.5 1.5q0 2 -1.5 0.5
t0.5 -2.5zM53 -88q0 3 -1 3q1 -2 -1.5 -1t-1.5 -2h4zM456 -24q3 -1 0.5 -1.5t-4.5 -2.5q-2 0 0.5 1.5t3.5 2.5zM445 -29q1 0 0 -2.5t-3 -2.5q0 3 1 3t2 2zM260 -95q-7 -6 -21 -11q-5 0 -8 -2.5t-5 -4.5q-3 1 -8 1q-5 -1 -8 -2.5t-8 -3.5q-3 -1 -5.5 -1t-8.5 -1
q-3 -2 -9.5 -4.5t-14.5 -0.5q4 3 9 4t11 2h2q8 0 16 3.5t16 7.5q3 1 8 1q2 1 2.5 2.5t1.5 2.5h5q4 1 5.5 3t3.5 3h12q2 0 2 2t2 -1z" />
    <glyph glyph-name="C" unicode="C" horiz-adv-x="620" 
d="M134 448q2 1 1 2.5t1 3.5q1 2 3.5 4.5t4.5 5.5q3 7 5.5 10t7.5 5q-2 -4 -5 -7.5t-6 -8.5q-2 -5 -4 -9t-8 -6zM109 406q4 0 1 -3l-2 -2q-3 1 -0.5 2t1.5 3zM61 323q2 0 2 -1.5t2 -1.5q-2 -7 -6 -8q1 3 1 5t1 6zM54 275q0 -6 -4 -7q-1 2 -1 4.5t5 2.5zM7 252q3 -1 1 -3
t-2 -3q-3 1 -1 3t2 3zM638 167q3 0 5 -4t-3 -15q-2 -4 -5.5 -13.5t-12.5 -19.5l-7.5 -7.5t-1.5 -2.5t-2 -2.5t-10 -6.5q-2 -2 -6.5 -7.5t-5.5 -8.5q-5 -8 -8.5 -11.5t-8 -6t-9.5 -5.5t-12 -10q-7 -5 -13 -11t-11 -14q-1 -3 -4.5 -3.5t-6.5 -2.5q-3 -3 -5.5 -7t-6.5 -7
q-6 -5 -10.5 -8t-8 -6t-8 -6t-10.5 -8q-7 -7 -11.5 -11t-9 -7.5t-10 -6.5t-14.5 -8q-17 -8 -29.5 -15.5t-26.5 -13.5q-3 -1 -7 -1.5t-5 -4.5q-4 -1 -3 1.5t-1 2.5q0 -3 -3.5 -8t-5.5 -4q0 3 1.5 4.5t0.5 3.5q-5 -2 -9.5 -4.5t-9.5 -4.5q1 -3 3 -1t4 2q-1 -5 -8 -7q0 1 0.5 2
t0.5 3q-11 -6 -21.5 -8.5t-21.5 -7.5q-3 -1 -6.5 -1.5t-4.5 0.5q-5 2 -5 -0.5t-3 -3.5q-8 1 -15 0t-15 -2t-17 0t-17 2l-34 6t-31 10q-9 4 -15.5 8t-14.5 7q-2 3 -5.5 5t-8.5 4t-9.5 3t-7.5 4q-2 1 -2 3.5t-2 4.5t-5.5 3.5t-6.5 4.5q-2 2 -3 6t-3 8q-2 5 -5 8t-5 8
q-19 22 -29 54q-3 7 -5 14.5t-6 15.5q-1 2 -2.5 4.5t0.5 7.5q0 8 -3 12q-5 5 -4 13t-1 13q-1 8 -1.5 17.5t0.5 17.5q0 6 0.5 12.5t-0.5 11.5q0 1 -1 3.5t-2 4.5q0 2 -2 6t-1 6q1 3 3.5 2.5t2.5 1.5q4 0 3.5 -3.5t1.5 -5.5q2 6 3 11t2 11q-1 3 -2 0.5t-3 -0.5v16t-2 13
q4 4 12 7h2q4 4 4.5 8.5t0.5 9.5t-3.5 11t-1.5 9q1 2 4 6.5t6 3.5q9 -6 9 -13q5 4 5.5 10t5.5 10q0 -5 -2 -7t-3 -7q3 0 2 2t3 0q-3 -5 -4.5 -12t-3.5 -12q-2 4 0.5 9t2.5 12q-5 -5 -5 -12q-2 -2 -2 -2.5t-4 0.5q0 -5 -3 -9.5t-5 -9.5q-1 -5 0.5 -9t0.5 -9t-3.5 -13t1.5 -12
q4 -2 1 -6.5t-1 -7.5q7 6 6 18q0 2 -1 7.5t3 7.5q3 -4 2 -8.5t-1 -6.5q8 0 8.5 5.5t1.5 10.5q0 4 2 7t4 7q3 3 3.5 8t0.5 10q5 2 6.5 8.5t3.5 10.5q3 5 3.5 9.5t2.5 9.5l14 22t9 24q-5 1 -7 -7t-4 -11q-2 5 0 10t2 10q-2 1 -5 0t-4 -6q-2 2 1 6t-2 6q3 3 4.5 6.5t5.5 3.5
q0 -3 -1 -4t-1 -4q3 4 5 7.5t7 4.5q3 -6 -1.5 -7t-4.5 -7q4 -1 3.5 2t2.5 2v-2v-2q6 1 3.5 5.5t2.5 6.5q7 5 10 11.5t6 12.5q9 17 17 33t18 33q-8 -6 -12 -15t-9 -17q-2 2 -1 4.5t3 4.5q-2 2 -3 0t-3 -1q2 5 5 10t4 10q6 0 12 8q1 1 2.5 5.5t2.5 4.5q6 2 6 9q3 5 4.5 3
t3.5 -4q4 2 2 6.5t0 8.5q2 1 2.5 -1t1.5 -2q2 2 4 5t4 5q3 6 6.5 9.5t8.5 7.5q5 3 8.5 9t8.5 12q3 2 5 8.5t8 7.5q-5 0 -8.5 -3.5t-6.5 -5.5q-10 -9 -17 -18q0 5 4 9t7 6l3 9q9 6 11 8q8 9 15 18t17 17q5 4 7.5 9t7.5 8q10 10 23.5 18t25.5 14q1 0 5.5 1.5t2.5 3.5
q-1 1 -2.5 0t0.5 1q8 8 23 11q6 3 10.5 6.5t12.5 5.5q14 5 26.5 10t27.5 8q9 2 22 2.5t27 -0.5t28 -4.5t26 -9.5q23 -15 35.5 -28t25.5 -33q14 -23 19 -48t3 -53q-2 -26 -8 -51t-16 -51q-3 -9 -8.5 -15t-14.5 -1q-3 1 -9 4t-11.5 6.5t-8.5 8t0 9.5q8 11 10 24.5t2 24.5
q0 14 -1 29t-4 30q-1 6 -3.5 12.5t-3.5 11.5t-1.5 8.5t-2.5 7.5q-3 5 -6 7.5t-6 8.5q-1 3 -4 9t-6 8q-11 5 -11 16q0 4 -3.5 6t-6.5 3q-8 6 -25 1.5t-26 -8.5q-17 -9 -39 -23t-42 -33q-20 -20 -40.5 -41.5t-37.5 -45.5q-5 -12 -15.5 -29t-14.5 -35q-2 -7 -7 -11.5t-7 -10.5
q-5 -14 -11.5 -25t-12.5 -24q-2 -8 -3 -13.5t-2 -10.5q0 -8 -3.5 -13.5t-3.5 -13.5q-3 -10 -8.5 -21.5t-9.5 -22.5q-3 -6 -2 -10.5t1 -12.5t-3.5 -16.5t-6.5 -14.5q-2 -5 -4 -10.5t0 -13.5q3 -10 2 -20q-3 -16 -4 -32.5t0 -30.5q0 -25 7.5 -47t30.5 -33q24 -14 52 -19.5
t54 -3.5q34 2 64 12q2 1 5 3t5 2q5 2 8 0.5t7 -0.5q7 1 7 0.5t7 1.5q14 7 20 8t20 9q6 4 9.5 6t6.5 3.5t6.5 3t10.5 5.5q3 2 5.5 2.5t4.5 3.5q3 3 4.5 6t3.5 5q6 4 12.5 6.5t13.5 7.5q6 5 10.5 8t10.5 9q6 5 10 7.5t8.5 5t9.5 6t12 10.5q8 5 14 12t12 12q8 7 14 11.5
t13 12.5q6 6 9.5 6.5t6.5 5.5zM-1 204q4 -1 4 3t-3 5q0 -2 -1 -3.5t0 -4.5zM4 150q-2 3 -1.5 5.5t-2.5 4.5v-6.5t4 -3.5zM4 146q0 -3 1 -5.5t2 -4.5q0 -2 -1.5 -1.5t-1.5 -1.5q0 -5 0.5 -11.5t5.5 -9.5q0 11 3 20.5t-1 21.5h-1q-1 -2 -3.5 -3.5t-3.5 -4.5zM-6 114
q2 5 2.5 0.5t2.5 -4.5q0 2 1 4t0 6q-4 1 -7 1q-1 -1 -1 -3q0 -4 2 -4zM102 391q-5 -5 -7 -12t-9 -11q6 14 16 23zM26 224q-1 4 0.5 8t2.5 8q2 0 -0.5 -6t-2.5 -10z" />
    <glyph glyph-name="D" unicode="D" horiz-adv-x="691" 
d="M176 -50l-10 2zM478 108q3 2 7 5q3 2 7 4.5t8 6.5q-1 -8 -7.5 -13t-14.5 -3zM637 314l-1.5 -12t-2 -8t-4 -8t-7.5 -11v-9q-4 1 -5 -0.5t-1 -3.5t-1 -3.5t-4 -0.5q-2 -8 -9.5 -14t-14.5 -14q-4 -2 -8 -5q-4 -2 -7.5 -4.5t-8.5 -5.5v-10.5t-1 -10.5l-10 2l-2 -10
q-9 -5 -11.5 -6t-10.5 0l-1 -11q-10 -14 -25 -26.5t-33 -24.5q0 -3 -2 -5t-4 -3.5t-6 -0.5l-9 -8q-8 2 -9 1t-1 -8q-3 0 -6 -1q-6 -2 -7 -9l11 -1q7 -2 3.5 -2t-5.5 -8q8 5 15.5 12t17.5 13q4 0 6 -0.5t3 0t1 3t1 7.5q0 -8 2.5 -8.5t6.5 2.5t9.5 7t12.5 4q-6 -6 -11 -10
q-5 -5 -8.5 -9t-4.5 -8q-3 0 -6 1t-5 2q-1 -8 -6 -10t-5 -9q-5 -4 -5.5 -6l-1 -4t-1.5 -3.5t-6 -4.5l-10 -9l-1 -9q-9 -8 -17 -9.5t-17 -7.5v-10q-9 -5 -11.5 -6t-9.5 0q-2 -5 -2 -8t-1 -6q-1 -4 -1 -6l-1 -11l-8 2q-5 1 -6.5 0t-3.5 -3t-2 -5l-10 1q-9 -5 -17 -10t-15 -4
q8 6 14 7.5t7 9.5q-2 1 -5 1h-5.5t-7.5 1q-1 -3 -2 -5q-4 -4 -9 -2h-9q-5 -4 -9.5 -6.5t-7.5 -4.5q-4 -3 -7 -5q-8 -6 -19 -11t-22 -3q-3 0 -7 -1q-3 -1 -6.5 -2t-8.5 -4l-1 -11q-5 1 -8 1t-6 1q-4 0 -6 1q1 8 5 11.5t9 6t10.5 4t8.5 4.5q-7 1 -14.5 1t-15.5 -6l-10 -10
l-12 -8q-8 1 -10.5 1t-10.5 1q-3 0 -7.5 -2t-9.5 -5t-11 -5t-13 -1q4 7 10 10t12 5t11.5 3.5t10.5 5.5q0 5 5 8q2 1 5 0q8 -1 16.5 3.5t16.5 12.5l1 10h10q-8 0 -15.5 -4.5t-14.5 -3.5q-9 -6 -11.5 -7t-10.5 0q-1 -7 -2 -8t-9 0q0 -3 -2 -5q-4 -4 -10 -2q-2 -8 -7.5 -9
t-13.5 0l-32 -14q4 0 1.5 -2t-8 -3.5t-12.5 -2t-11 1.5q1 7 2 4.5t9 3.5q-5 7 -9 0q-2 -4 -2 -8q-5 1 -13 7q-4 3 -6 6q2 8 7.5 9t7.5 8q-5 -2 -9 -2q-5 0 -10 1t-13 6q1 4 2.5 4h3.5t4 0.5t2 4.5l10 -1q3 4 6 7q6 6 5 0q3 0 4 1.5t1.5 3t1.5 3t5 1.5q-1 -8 -3 -10t-4 -3
t-3.5 -1.5t-1.5 -3.5l9 8q9 6 16.5 6t13.5 -1q4 0 8.5 2.5t9 5.5t8.5 6t8 3q9 6 16 12t18 12l1 10q7 -1 15 3t16 2q2 8 8 10t15 7q0 3 1 5q2 3 8 2q9 8 17 10.5t18 16.5l-9 2q16 5 25 10.5t18 12.5l11 8q3 0 5 1q4 2 5 9q8 -2 14.5 0t11.5 5t9 5.5t7 1.5l3 9q7 7 9.5 9
t11.5 9l10 -2l2 10q1 5 7 7q3 1 5 1q6 -1 8 5q1 3 2 5q21 16 41.5 33.5t38 39t30 48t17.5 59.5q9 15 5.5 35t-16.5 37q-3 8 -10 16.5t-16.5 16t-19 14t-16.5 11.5q-8 2 -14 4.5t-12 10.5q-8 0 -15.5 2.5t-13.5 11.5q-22 4 -50 7.5t-56 8.5q-29 4 -48.5 5t-41.5 -3
q-11 -28 -16 -53t-10 -54q-3 -21 -12.5 -48.5t-12.5 -56.5q0 -2 -1 -6q-2 -8 -2 -13q-2 -8 -2 -10.5t-1 -10.5l-2 -9q0 -8 -6 -14t-7 -14t-1 -10t-2 -10q-2 -7 -2.5 -14.5t-2.5 -14.5q-1 -16 -4.5 -30t-13.5 -28q-3 -14 -4.5 -28t-4.5 -29q-2 -16 -6 -35.5t-13 -33.5
q-1 -7 -3 -13t-10 -4q-4 1 -6.5 7.5t-4.5 16t-4.5 20t-6.5 18.5q-2 14 -3 30t-1 33q0 36 3 75.5t5 81.5q10 66 19.5 126t23.5 118q0 4 2 12q1 4 2 7q-30 -5 -63 0.5t-55 16.5q-27 20 -45.5 43t-29.5 48q21 -4 44 -1t46 8q15 5 42 7t49 -1q52 0 105 -6.5t112 -14.5
q14 -3 28 -9.5t28 -8.5q8 -1 16.5 -2.5t23.5 -3.5l8 -11q8 -1 10 -1.5l10 -2.5q8 -1 9.5 -5t8.5 -5q8 -2 15.5 -8.5t22.5 -7.5l10 -2l10 -2q-1 -7 4.5 -10t10.5 -12q3 0 7 -1q8 -2 13 -2q0 -3 1 -6q2 -6 9 -6q6 -8 16.5 -16.5t16.5 -16.5q8 -3 9 -7q1 -3 1 -5q5 -9 6 -11.5
t0 -10.5q6 0 9 5q1 2 2 5q5 -17 8.5 -38.5t-0.5 -44.5q4 -1 6 0.5t4 3.5t2 4q-2 -14 1 -24.5t0 -24.5q0 -4 -2 -10t-3.5 -12t-2 -11t3.5 -5q-2 -8 -6.5 -10t-5.5 -8q7 -2 10 3.5t11 12.5zM36 -48l-1 -11zM301 -7q9 5 17 7t16 10q-15 1 -19.5 -5.5t-13.5 -11.5zM415 58
q6 0 7 6q-6 0 -9 -3l-3 -3h5zM436 83q-2 -8 -8.5 -9.5t-14.5 -8.5q1 8 8 13.5t15 4.5z" />
    <glyph glyph-name="E" unicode="E" horiz-adv-x="640" 
d="M354 662q1 0 1 -2t3 -3v-2q-4 2 -8 1t-5 -3q-3 2 -2 3t3.5 2t5 1.5t2.5 2.5zM253 537q8 0 1 -3.5t-13 -3.5q2 5 5.5 6t6.5 1zM154 314q10 2 30 7t39 7q26 4 53.5 6.5t56.5 2.5q35 0 71 -4.5t71 -15.5q12 -2 23 -6.5t12 -9.5q0 -8 -9.5 -13.5t-14.5 -7.5q-9 0 -16 0.5
t-14 0.5q-11 -1 -25.5 -2t-28.5 -1q-17 -1 -31.5 -4t-30.5 -3q-9 0 -20.5 -3t-20.5 -6q-11 -2 -24.5 -5t-24.5 -7q-3 -2 -6.5 -3t-8.5 -3q-18 -6 -35.5 -16.5t-40.5 -18.5q-15 -5 -21.5 -8t-7.5 -16q-3 -6 -3.5 -14.5t0.5 -16.5q-1 -2 0.5 -2.5t2.5 -3.5q0 -2 -2 -4.5
t-2 -3.5q0 -2 2.5 -0.5t2.5 -0.5q-1 -13 -4.5 -25t-5.5 -25q-2 -20 -1 -39t3 -42q32 7 66 15t70.5 15t75 10.5t78.5 1.5q21 -2 43 -5t42 -8.5t36.5 -14t26.5 -20.5q-2 -3 -3.5 -4.5t-6.5 0.5q-1 -6 3.5 -6t3.5 -7q-4 2 -4.5 0t2.5 -2q-8 1 -13.5 -0.5t-10.5 -7.5
q-12 3 -21.5 2.5t-19.5 -0.5q-4 0 -6.5 1.5t-5.5 1.5q-4 0 -8.5 -1t-9.5 -1h-10t-12 -3q-4 0 -8 -6q-5 -2 -10 -3t-9 -4q-31 -13 -65 -23.5t-68 -18.5q-23 -6 -45.5 -10t-47.5 -7q-9 0 -18 -1.5t-17 -2.5q-9 0 -17 0.5t-19 0.5q-5 0 -8 -0.5t-11 0.5q-2 0 -4.5 -0.5
t-3.5 -0.5q-3 0 -7 3.5t-9 5.5q-2 1 -6 0t-6 0t-4 6t-5 7q-8 6 -13.5 8.5t-10.5 9.5q-4 6 -7.5 11.5t-7.5 10.5q-2 6 -1 23.5t0 28.5q6 -4 9 0t8 7q8 -5 12.5 -4.5t12.5 0.5q1 23 -0.5 51.5t-0.5 54.5q1 14 1 27.5t1 25.5q0 2 1.5 2.5t2.5 3.5l-4 3q1 8 2.5 11t-8.5 6
q-2 1 -4.5 0.5t-6.5 0.5q-12 5 -20.5 17t-22.5 19q5 2 3 5t2 5q-13 4 -15 15.5t-5 22.5q19 -12 43 -12q14 0 26 3t23 8q12 57 24.5 106t29.5 102q-8 3 -15.5 -1.5t-16.5 -3.5q-6 0 -9 1.5t-8 3.5t-10 1.5t-12 0.5q-5 4 -12 9t-14 9q-8 8 -15.5 11.5t-9.5 8.5q-2 2 1 5t-4 1
q3 5 6.5 3.5t8.5 -1.5q14 2 28 13t29 20q18 10 37 17t40 14q0 8 3 10.5t-3 7.5q8 2 17.5 -2t17.5 -2q6 1 10 4.5t8 4.5t9 0.5t10 -0.5q13 4 24 7t24 5q28 5 53 9t55 7q11 0 23 0.5t20 2.5q4 2 7.5 5.5l5.5 5.5q6 -2 15 -2q8 1 18 1.5t21 -0.5q22 -3 46.5 -5.5t47.5 -7.5
q11 -4 22.5 -8.5t20.5 -9.5q7 -2 13 -3.5t9 -3.5l2 -4q4 -2 8.5 -3.5t8.5 -3.5l6 -3t5 -3q0 -8 -3 -11.5t-6 -9.5q-11 -2 -30.5 -1.5t-32.5 1.5q-4 0 -7.5 1.5t-7.5 -1.5q-2 -2 -12 -2.5t-18 0.5q-10 -1 -19 0t-21 1q-18 0 -35.5 -3t-35.5 -4q-5 -1 -10.5 1t-8.5 -3
q-3 0 -3 3.5t3 5.5q-8 3 -13.5 -3t-10.5 -9q-5 -1 -9 -0.5t-6 0.5q-6 -1 -11 -3t-10 -3q-11 -2 -21 -5.5t-21 -7.5q-11 -3 -20.5 -5.5t-20.5 -5.5q-2 -1 -2 1q0 1 1 3q-2 0 -7 -1.5t-5 -9.5q1 10 -5.5 6.5t-14.5 -8.5q-10 -5 -16.5 -9.5t-17.5 -10.5q-5 -2 -11.5 -2.5
t-8.5 -4.5q-2 -2 -2 -8.5t-1 -14.5q-4 -15 -8 -32.5t-8 -35.5t-8 -34t-7 -26q0 -5 4 -5q-7 -8 -8.5 -21t-6.5 -23zM478 661q5 0 11 -2t7 5q-5 1 -9 0t-9 -3zM461 663q3 -1 7 -3t7 -1q1 3 -1 4.5t-4.5 1.5t-5 -0.5t-3.5 -1.5zM382 662q0 -5 -2.5 -1.5t-3.5 -1.5q-5 3 -1 4
t7 -1z" />
    <glyph glyph-name="F" unicode="F" horiz-adv-x="636" 
d="M184 390q2 0 1.5 -4.5t-4.5 -1.5q0 3 2 3.5t1 2.5zM581 558q5 5 12 14t3 17q-1 4 -10.5 6.5t-22 4t-25 1t-20.5 -2.5q-3 0 -6.5 -2.5t-6.5 -2.5q-4 -2 -9 -0.5t-9 -0.5q-8 -2 -15.5 -5t-15.5 -4q-4 -2 -8 -2.5t-8 -0.5q-29 -8 -57 -19t-55 -22q-7 -3 -14 -6.5t-18 -5.5
q-3 -2 -8 -3t-8 -3q-5 -1 -9 -3t-7 -2q-4 0 -5.5 1t-5.5 3q-5 -2 -15 -5t-12 -9q-3 -2 -2.5 -6t0.5 -7q-3 -20 -10 -38t-15 -34t-16 -31.5t-14 -31.5q5 -2 6.5 3t3.5 9q-1 -14 -7 -27.5t-5 -30.5q52 11 116 20.5t133 5.5q40 -2 74 -10q11 -3 26.5 -8t29.5 -12
q10 -5 26.5 -13.5t17.5 -13.5q2 -3 0.5 -3t-2.5 -1q0 -1 -0.5 -5.5t-1.5 -7.5q-2 -2 -9 -3.5t-14 -1.5q-19 -2 -42.5 -1.5t-41.5 -0.5q-8 -1 -20.5 -1t-21.5 -2q-8 2 -16.5 0.5t-16.5 -0.5q-7 0 -13.5 -2t-10.5 -4q-3 2 -6 3.5t-7 1.5q-2 1 -5.5 -1t-8.5 -2q-4 0 -7 1.5
t-5 1.5q-4 -1 -6 -3.5t-6 -3.5q-8 -3 -15.5 -2.5t-13.5 -3.5q-1 4 2 3t2 3q-8 0 -16.5 -3t-16.5 -7q-6 -2 -9 -2t-14 -1q-3 -1 -5 -3t-5 -3q-14 -5 -34 -7q-14 -4 -28.5 -7.5t-32.5 -4.5q-5 -7 -3 -15t0 -15q0 -3 -1 -4.5t-2 -4.5q-1 -6 -2 -11.5t-1 -12.5q-2 -5 -4.5 -10.5
t-4.5 -13.5q-3 -15 -4 -29.5t-3 -31.5q1 -2 2 -1l2.5 2.5t3 2t1.5 -1.5q2 -7 -0.5 -14t-4.5 -14q-1 -4 0.5 -7.5t1.5 -7.5q-2 -6 -4 -12.5t-4 -13.5q0 -12 2.5 -24t1.5 -22q-2 -2 -3.5 -5.5t-1.5 -5.5q-2 -5 2 -11t2 -14q-3 -1 -8.5 0.5t-9.5 4.5q-3 0 -3.5 -2.5t-2.5 -2.5
q-17 13 -24 37t-10 50q-2 14 -3.5 25t2.5 23q0 2 -0.5 2t-1.5 -0.5t-2 -0.5t0 3q2 3 -0.5 3.5t-1.5 4.5q0 2 2 2.5t4 4.5q0 2 -1 5.5t0 7.5q-2 8 -0.5 16.5t3.5 18.5q0 26 1.5 53.5t1.5 48.5q2 6 3.5 11t-0.5 9q-1 4 -4.5 5.5t-8.5 5.5q-9 8 -17 17.5t-13 23.5
q10 -5 25 -7.5t23 2.5q8 62 18.5 115t22.5 109q-23 0 -53 0.5t-61 4.5q-5 1 -15 9.5t-15 13.5q-3 5 -6 9.5t-8 9.5q-4 5 -7.5 8.5t-7.5 8.5q2 3 8.5 1t12.5 -2q10 1 21.5 5.5t20.5 9.5q21 8 39 17t40 18q5 2 10.5 3.5t10.5 3.5t10 5.5t8 3.5q2 2 3 1t3 -1q5 2 7.5 4.5
t4.5 3.5q3 2 3.5 0.5t2.5 -1.5q7 1 13.5 5t12.5 7t13 5.5t14 5.5q13 5 27 8.5t28 6.5q29 11 60 17t60 7q39 0 78.5 -1.5t76.5 -8.5q20 -4 39.5 -10.5t36.5 -13.5q8 -4 18 -10t14 -13q4 -4 6.5 -13t0.5 -12q-1 -3 -3.5 -6t-2.5 -8q-1 -3 1 -7t2 -7q-1 -3 -7 -10.5t-9 -8.5
q-8 -8 -23 -11q-5 -3 -10.5 -5.5t-10.5 -0.5zM167 350q2 -2 3.5 1.5t-1.5 3.5q0 -1 -2 -5z" />
    <glyph glyph-name="G" unicode="G" horiz-adv-x="725" 
d="M475 504q0 4 3 7q-5 5 -8 11t-8 11v2q0 2 -1 1.5t-3 1.5q0 2 1 4t1 4q-4 3 -4 6q-3 6 -5 10.5t-3 11.5q-2 3 -1.5 7t-2.5 6q-4 3 -11 1.5t-15.5 -4.5t-16 -6.5t-12.5 -6.5q-7 -2 -12 -6t-11 -9q-17 -11 -29.5 -24t-25.5 -29q-19 -28 -38.5 -57.5t-37.5 -56.5
q-4 -5 -8.5 -11.5t-6.5 -11.5q-2 -4 -3.5 -9.5t-5.5 -10.5q-2 -5 -5 -9t-3 -8q-2 -1 -1.5 -3.5t0.5 -5.5q0 -2 -2 -5t-2 -5q-1 -4 -1 -7v-5q-1 -3 -2.5 -5t-3.5 -5q-4 -4 -6 -14q-5 -15 -12 -31t-11 -35q-2 -7 -3 -13t-2 -14q-5 -11 -9 -31.5t-4 -40.5q2 -16 6 -33t13 -28
q9 -9 30.5 -16.5t40.5 -8.5q26 -1 49 1t42 10q6 -3 14 -2.5t16 3.5t15.5 6.5t13.5 5.5q32 14 63 35.5t57 45.5q-11 -2 -23.5 -7.5t-25.5 -7.5q-7 1 -12.5 3t-11.5 -3q-3 8 -10 12t-12 12q-2 2 -4 5.5t-4 7.5q-1 5 -3.5 8.5t-3.5 5.5q-2 5 -2 11.5v11.5q5 3 11 -2t13 -6
q8 0 18.5 6t21.5 11q10 5 19.5 8t20.5 7q23 9 44 13t37 9q8 2 13 5.5t11 2.5q0 2 4 0.5t9 -2.5q17 2 34.5 2t34.5 -13q4 -3 6.5 -5.5t7.5 -5.5q5 -5 9 -8t-2 -15q-3 -5 -3 -6l-7.5 -1.5t-7.5 -2.5q-3 1 -8 -1t-8 -2q-6 -3 -9 -6q-2 -1 -6 -0.5t-6 -1.5q-7 -5 -15.5 -18.5
t-11.5 -24.5q-5 -6 -9 -13t-6 -14q-11 -18 -19 -37.5t-16 -41.5q-5 -10 -7 -18.5t-6 -19.5q-5 -16 -12.5 -35t-8.5 -42q-2 -5 -2 -10.5t-1 -13.5q-1 -5 1 -9t-1 -6q0 -2 -3.5 -4t-3.5 -4q-23 8 -32.5 33t-7.5 59t10 64.5t16 53.5q-7 2 -10.5 1t-9.5 -3q-10 -12 -24 -24
t-26 -23q0 -3 0.5 -6t-1.5 -4q-5 -4 -7.5 -2.5t-4.5 1.5q-2 -8 -6.5 -14.5t-8.5 -10.5q-6 -4 -13.5 -6t-13.5 -6q-8 -8 -13 -15t-12 -15q-3 1 -2 4t-2 4q-5 -5 -8.5 -7.5t-10.5 -5.5q-5 -3 -11.5 -4t-12.5 -3q-4 -1 -7 -3t-4 -3q-4 -2 -6.5 -2.5t-4.5 -0.5
q-16 -5 -38.5 -10.5t-46.5 0.5q-8 2 -18.5 4.5t-19.5 7.5q-2 2 -3.5 4.5t-4.5 4.5q-3 1 -6.5 0t-5.5 1q-3 0 -8 5t-10 6q-5 4 -9.5 5.5t-9.5 4.5q-6 9 -13 18q-2 2 -4 2t-4 1q0 9 -3 11q-4 5 -9.5 10t-10.5 13q-14 23 -25.5 58t-13.5 70q-3 50 3 94q2 5 1 9.5t-1 7.5
q2 4 4.5 5.5t2.5 6.5q2 5 2 12.5t2 14.5q3 11 5.5 18t4.5 16q2 5 2.5 8t2.5 5q0 3 2.5 7t3.5 9q4 6 4 12.5t5 13.5q3 11 9 17.5t10 15.5q1 -2 -1 -9q5 3 6 8.5t6 8.5q2 6 5.5 10.5t6.5 9.5q2 0 2 2v4q1 2 2.5 4.5t1.5 4.5t-0.5 4.5t1.5 4.5q2 7 12 21.5t15 24.5q5 8 11 14.5
t11 13.5q5 5 8 9t6 6q4 5 7 8t8 5q2 4 1.5 9t0.5 7q4 3 10 6t8 8q3 2 5 5.5t4 4.5q3 6 8 8.5t8 5.5q4 3 5.5 6.5t4.5 5.5q2 2 4.5 3t6.5 3q5 4 8 7t12 5q1 2 2.5 2.5t2.5 1.5q5 3 12 9t12 8q4 1 8 0t9 0q11 2 20 7t22 2q4 0 4 3t4 3q3 -1 6 -4t4 3q6 -6 14.5 -6.5t17.5 -2.5
q9 -6 18 -11t18 -12q8 -5 17 -12t16 -15q16 -11 25.5 -30.5t11.5 -42.5q0 -2 -1.5 -5.5t0.5 -8.5q-2 -7 0.5 -13.5t0.5 -13.5q-1 -5 -9.5 -10.5t-15.5 -7.5q-7 2 -15 6.5t-18 3.5zM161 510q2 3 6 7t6 9q4 3 6.5 8t4.5 10q-7 -9 -14.5 -15.5t-8.5 -18.5zM150 502q3 -2 6.5 3
t-0.5 5q0 -5 -3 -5t-3 -3z" />
    <glyph glyph-name="H" unicode="H" horiz-adv-x="697" 
d="M418 184q0 -2 -3.5 -2h-6.5q-5 -3 -8.5 -6.5t-10.5 -3.5q2 8 10 10t19 2zM418 62q6 -7 0 -13q-3 0 -1.5 5t1.5 8zM421 29q-5 0 -4 5.5t1 8.5l3 2q2 -2 0 -7.5t0 -8.5zM631 272q-2 2 -3 4.5t-6 2.5q0 -5 4.5 -6.5t4.5 -6.5t-3.5 -4.5t-5.5 -1.5q-3 0 0 -2.5t3 -4.5h-7
q0 -3 1.5 -5t-1.5 -5q0 -3 -1.5 -3.5t-4.5 -2.5q-3 -3 -4 -7t-6 -6q-5 -3 -13 -5.5t-13 -4.5q-12 -5 -23.5 -9.5t-20.5 -9.5q0 -8 -0.5 -15t-3.5 -15q0 -8 -2 -13t-2 -12v-2q0 -2 -3 -2q-2 -7 -2.5 -12.5t-0.5 -10.5q0 -6 3 -9l-4 -10t-2 -13q-3 0 -3.5 -3t-2.5 -3
q3 -5 -4 -17q5 0 5.5 2.5t0.5 4.5q3 -2 2.5 -9t-8.5 -7q3 -3 1.5 -5.5t-1.5 -8.5q0 -2 1 -2t2 1t1.5 1t-0.5 -2q0 -13 -5 -23.5t-5 -22.5q0 -4 1 -5l2 -2q0 -11 -4.5 -23.5t-1.5 -24.5v-9q-3 -8 -1 -23t4 -23q-5 3 -8 -1t-3 -9q-2 3 -2.5 5t-3.5 5q-5 0 -7.5 -3t-7.5 -3
q-3 2 -9 6.5t-12 9.5q-14 21 -18.5 56t-6.5 67q-2 2 -2.5 6.5t-0.5 6.5t1.5 4.5t1.5 5.5q2 2 1 2.5t-1 3.5q2 3 4 5t2 5q0 5 -1.5 11.5t-1.5 14.5q0 5 2 10t5 13q0 22 0.5 42.5t2.5 37.5q0 4 -7 4q0 5 3.5 6.5t3.5 6.5q-5 5 -10 0.5t-12 -4.5q-8 0 -15 -0.5t-15 -2.5
q-2 0 -3 -2t-3 -4q-8 -3 -17.5 -4.5t-9.5 -8.5q-9 0 -18.5 -3.5t-19.5 -6.5q-5 0 -1.5 2t1.5 4q-10 -5 -20.5 -9.5t-21.5 -9.5q-3 0 -2 1q0 1 2 2q-14 -2 -26 -9.5t-26 -12.5q-2 0 -1.5 2t-1.5 4q-11 -8 -18.5 -11.5t-17.5 -8.5q-2 0 -10 -6q-3 0 -4 1l-2 2q-10 0 -18.5 -8
t-19.5 -8q-6 -34 -11 -74t-3 -78q2 -12 2.5 -25t0.5 -27q-2 3 -3 1.5t-3 -1.5q0 -2 2.5 -2t0.5 -5q-2 5 -6 4.5t-7 -0.5q-17 12 -25 36t-11 51q-1 9 -1 18v18q0 18 0.5 35.5t0.5 35.5q-7 -3 -14.5 -5.5t-17.5 -7.5q-8 -2 -13.5 -2.5t-15.5 -0.5q-5 2 -11.5 5t-11.5 -2
l-4.5 4.5l-4.5 4.5q-5 3 -13.5 6t-13.5 8q-2 2 -2.5 5.5t-3.5 3.5q11 -1 21 4t19 12t17.5 14t17.5 12q17 13 32 21.5t32 18.5q8 46 14 91t15 96q8 47 18 86t24 86q5 17 14 40t9 38q0 2 -1 4.5t-1 4.5q0 5 4 12t11 7h3q3 0 7 -2q5 0 11.5 1t11.5 1q2 -2 6.5 -8t9.5 -11
q6 -6 10 -9q1 -3 6 -5q2 -1 4 -1q9 -13 9 -38q0 -23 -7 -47.5t-12 -38.5q-3 -5 -4 -9.5t-3 -6.5q0 -5 -0.5 -10t-2.5 -10q-2 -8 -7 -14.5t-3 -14.5q-8 -2 -9 -9.5t-3 -13.5q2 -5 4.5 -1t4.5 1q-5 -16 -13 -13q-8 -33 -19.5 -60t-18.5 -59q0 -1 1 0q0 1 1 3q0 -9 -5 -18.5
t-7 -20.5q19 3 36.5 10.5t34.5 12.5q17 8 35.5 13t35.5 10q69 20 142 29q-2 5 0.5 10t-0.5 13q-2 0 -2.5 -3.5t-0.5 -6.5q-2 17 2.5 35.5t6.5 35.5q3 2 1.5 4.5t-1.5 4.5q3 6 5.5 9t4.5 8v16t-2 13q2 0 2 -4q5 8 4.5 16t-0.5 17q1 1 3 4q4 4 4 9q-4 0 -4 -4q8 42 21 89.5
t27 89.5q1 6 4.5 14t6.5 16.5t4 15.5t-2 12q0 2 -3.5 5t-5.5 6q5 7 10 6.5t13 -0.5q2 2 8 3.5t11 -0.5q5 -7 7 -13t10 -13q5 -5 11 -10t11 -13q2 -3 4.5 -7t5.5 -6q3 -9 10 -16q2 -7 1 -19.5t1 -22.5v-23q-2 -14 -6.5 -32.5t-9.5 -35.5t-8 -34.5t-8 -30.5q-2 -7 -4.5 -12
l-5.5 -11q-2 -7 -3 -15t-7 -13l-2 -4v-16q-2 -3 -4.5 -9.5l-5 -13t-3 -13t1.5 -9.5q-2 -5 -4 -6.5t-2 -6.5q0 -2 3 1t1 8q2 -5 1 -10.5t-1 -10.5q9 -4 18 -5.5l18 -3t17 -4t14 -8.5q3 -5 4.5 -11t6.5 -12q2 -5 6 -4.5t6 -7.5q-3 3 -10 3z" />
    <glyph glyph-name="I" unicode="I" horiz-adv-x="389" 
d="M304 652q5 -11 4.5 -20.5t9.5 -14.5q-5 -12 -6.5 -29t-4.5 -34q-6 -38 -18 -74.5t-21 -71.5q3 -3 6.5 5t5.5 6q-3 -10 -8 -21.5t-9 -24.5q-7 -19 -12.5 -40.5t-10.5 -44.5t-9 -46.5t-11 -49.5q-4 -14 -7 -30t-5 -30q0 -5 0.5 -10.5t-0.5 -11.5q0 -6 -2 -12t-3 -14
q-1 -15 -2.5 -30t-4.5 -29q1 -5 -1.5 -4t-3.5 1q0 -14 -4 -26q-2 -2 -3.5 -1.5t-2.5 -1.5q-2 -3 -1.5 -7.5t-1.5 -7.5q-2 -2 -3.5 -1.5t-2.5 -1.5q-3 -12 0 -19.5t2 -16.5q-1 -12 -6.5 -21.5t-5.5 -23.5q1 -5 -4.5 -3.5t-6.5 -2.5q-4 0 -3.5 -4.5t-4.5 -4.5
q-20 15 -31.5 35.5t-18 46t-8.5 54.5t-2 59v39t1 39q0 7 0.5 15t0.5 18q7 134 42 254q13 42 28.5 81.5t32.5 80.5q6 13 12 26.5t8 26.5q2 8 1 13t1 7q2 3 10.5 5.5t14.5 -0.5q5 -1 9.5 -1t9.5 -2q16 -4 27.5 -13t22.5 -11z" />
    <glyph glyph-name="J" unicode="J" horiz-adv-x="601" 
d="M371 419q-3 -3 -3.5 -8.5t-2.5 -12.5q-1 15 3 24t6 20q2 5 2 9v7q0 9 4.5 15.5t1.5 11.5q1 1 3 6.5t3.5 12.5t3.5 14.5t4 13.5q-8 1 -16.5 -2.5t-17.5 -8.5t-17.5 -9.5t-15.5 -5.5q-8 0 -14.5 -3t-15.5 -10q-10 -4 -21 -8t-20 -3q-18 -11 -35 -15.5t-36 -10.5
q-4 -3 -15 -7t-22.5 -9.5t-21 -11.5t-9.5 -12q-1 -6 12.5 -14t28 -17t23.5 -18t-1 -18q-5 -5 -14 -4.5t-19 3t-20.5 6t-18.5 5.5q-40 17 -70 44q-4 3 -10.5 7.5t-11.5 10.5t-7.5 12.5t2.5 12.5q8 11 24.5 22t30.5 22q6 1 15.5 5t19 8.5t19 8.5t15.5 6q25 12 48 21.5t47 16.5
q51 15 97 29t96 25q11 3 18 8.5t13 13t11.5 16t12.5 17.5q2 5 8.5 11.5t11.5 17.5q2 5 5 5.5t1 8.5q9 -1 13.5 4t6.5 13q4 -8 4 -16q4 3 7 6.5t5.5 5t4.5 0t5 -8.5q10 -2 16 -7.5t18 -9.5q3 -2 9 -1t11 -6t12.5 -10.5t15 -5.5t15 -5t13.5 -8q-2 -9 5 -13t9 -9q-2 -4 -6 -1
t-9 1q-3 -2 -3 -7q-3 0 -3.5 2.5t-1.5 3.5q-4 0 -5.5 -3t-4.5 -2q5 -9 0.5 -13t-1.5 -6q-9 -6 -18 -11.5t-13 -13.5q-8 -5 -17.5 -6t-16.5 -5q-6 -6 -14 -22.5t-16.5 -38.5t-17.5 -46.5t-16.5 -45.5t-12.5 -36.5t-6 -19.5q0 -5 -4 -21.5t-9 -36.5t-10 -38t-7 -24
q-5 -26 -8.5 -52t-11.5 -53q-3 -23 -6 -45.5t-14 -41.5q-5 -7 -11.5 -14.5t-12 -16t-7.5 -17.5t1 -19q-6 -12 -13 -25.5t-19 -27.5q-5 -4 -10 -6t-10 -6q-6 -5 -10.5 -10.5t-9.5 -8.5q-14 -3 -24 -8q-7 -7 -16 -8t-17 -3q-14 -4 -27 -4h-26q-33 1 -69.5 9.5t-65.5 32.5
q-10 8 -19.5 18t-16.5 25q-2 4 -4 11.5t-5 15t-6.5 13.5t-9.5 8q-3 14 0 22t6 22q5 -2 9.5 1.5t8 6.5t5.5 1t2 -14q8 -4 14.5 -7t12.5 -6q11 -4 23 -9t21 -12q7 -13 19 -20q2 1 9 -3t16 -9t18.5 -10t16.5 -6q14 -5 28.5 -5t28.5 2q7 1 18.5 9.5t22.5 19t19 20.5t10 14
q3 4 5.5 21t4.5 39.5t3.5 49t2.5 51t1.5 43.5t1.5 27q2 8 2 17t3 17q2 3 4.5 15t5 26t4.5 27t4 18q1 6 4 19t1 18zM70 -62q-4 5 -5 9.5t-6 3.5q0 -5 3.5 -8.5t7.5 -4.5z" />
    <glyph glyph-name="K" unicode="K" horiz-adv-x="517" 
d="M194 409q3 0 3 -5t-1 -10q-2 -7 -4 -12t-7 -6q4 6 5 16t4 17zM48 400q2 -2 1 -3t-1 -2q-1 1 0 5zM32 323q-1 -1 -1.5 -3t1.5 -2q-2 -5 -3.5 0t3.5 5zM35 300l2 -1h1q2 -8 0 -5t-3 -2q-4 1 -1.5 3t1.5 5zM34 268q2 -2 1 -4.5t-3 -4.5q-3 1 0 3.5t2 5.5zM22 212q6 -2 2 -4
q-2 0 -1.5 1.5t-0.5 2.5zM22 193q5 0 5 -5.5t-5 -6.5q0 5 0.5 6t-0.5 6zM18 25q1 4 1 -0.5t-1 -4.5q0 -2 -1 -1t1 6zM52 323q-2 -10 -4.5 -16.5t-0.5 -17.5q5 14 9 29t2 26q0 2 -1.5 2.5t-1.5 1.5q0 2 2 2t2 2q2 9 0.5 20t4.5 23q-2 2 -4.5 -1t-4.5 -2q4 17 7.5 34t5.5 34
q-7 -12 -10 -27.5t-8 -29.5q-5 7 -1 12.5t5 10.5q2 8 1.5 16t6.5 13q-3 13 2.5 28.5t6.5 30.5q-5 -2 -5 -7t-2 -9q2 13 6 26t6 27q6 26 14 51.5t16 51.5q5 18 12.5 32t6.5 34q4 -4 6.5 -1.5t5.5 2.5q1 1 1.5 -0.5t4.5 -1.5q2 0 1.5 2t3.5 0q7 -2 17.5 -10t18.5 -13
q5 -5 14 -11.5t11 -14.5q0 -4 -2 -11l-4 -14q-1 -17 -2 -29t-2 -25q-2 -25 -2.5 -50.5t-4.5 -39.5q-1 -3 -3 -5.5t-2 -4.5q-2 -7 0.5 -13.5t-1.5 -11.5q1 -1 3 -3.5t2 -0.5q2 -1 -0.5 -4.5t-3.5 -5.5q1 -2 2 -6t1 -9q0 -2 -2 -4t-2 -3q0 -2 0.5 -4t0.5 -4q2 -14 -4.5 -28
t-6.5 -28q1 -2 3 -2t3.5 0.5t3 0t0.5 -4.5q6 6 15 6.5t11 10.5q-2 2 -5 -1t-7 -1q3 4 8.5 5t7.5 -4q3 1 5.5 2.5t5.5 3.5q-1 4 -4 1t-7 -1q4 4 9 5l10 2t9.5 2.5t7.5 6.5q-1 5 -2.5 1.5t-2.5 -1.5q13 14 30 24l34 20q5 4 11.5 8t8.5 8v4q1 2 4.5 3t5.5 3q1 2 0.5 4t1.5 4
t9.5 5t11.5 7q3 2 6 6t7 7q4 4 8 5.5t9 3.5q2 3 3 6.5t3 5.5q3 4 8.5 5.5t9.5 5.5q2 3 3 7.5t4 7.5q4 3 9 4t6 6q7 -1 12 -4t10 -5q3 -1 5.5 -0.5t5.5 -0.5q7 -4 18 -11t20 -11q2 -2 7.5 -5t11 -6.5t10 -7t4.5 -6.5q2 -5 -2.5 -8.5t-9.5 -9.5q-5 -8 -8.5 -12t-11.5 -7
q-5 -3 -9.5 -6t-9.5 -6t-9.5 -5.5t-10.5 -4.5q-4 -4 -8 -6t-9 -5q-2 -2 -3.5 -4t-2.5 -3q-4 -3 -7.5 -4.5t-6.5 -3.5t-5 -4.5t-5 -5.5q-10 -8 -18.5 -11t-19.5 -11q-7 -6 -10.5 -8t-11.5 -7q-11 -5 -22 -12t-19 -13q-5 -3 -8.5 -4.5t-6.5 -5.5l-16 -10l-16 -10
q-8 -8 -15 -14.5t-16 -9.5q-5 -4 -10 -5.5t-9 -4.5t-5.5 -7t-4.5 -6q-2 0 -4.5 0.5t-3.5 -0.5q-8 -4 -12.5 -7.5t-9.5 -5.5q22 -30 45 -66.5t49 -69.5q1 -1 1 -3t1 -3q2 -2 4 -2t4 -2q3 -5 5.5 -10.5t7.5 -9.5q13 -18 29.5 -36.5t30.5 -36.5q5 -8 7.5 -14t9.5 -15
q6 -8 15.5 -18t8.5 -16q-2 -9 -11 -9.5t-20.5 3.5t-22 10.5t-15.5 10.5q-10 5 -14 8t-13 12q-4 3 -6.5 7t-4.5 6l-10 10q-4 5 -8.5 9.5l-9.5 9.5q-6 7 -11.5 14t-14.5 5q-19 26 -42 49t-43 47q-3 -8 -5 -22.5t-5 -29.5q-3 -9 -4.5 -19t-1.5 -16q-4 0 -4 -3q-1 -3 -0.5 -3.5
t-5.5 0.5q-3 -10 -3.5 -20.5t-3.5 -22.5q0 -6 -3 -11t-3 -9q0 -2 1.5 -4.5t1.5 -4.5q1 -26 -6.5 -50.5t-7.5 -50.5q-9 -1 -9 -13q-14 -4 -27.5 -4.5t-21.5 7.5q-2 3 -5.5 7.5t-5.5 9.5q-2 2 -4.5 3t-4.5 3q-5 10 -9.5 25.5t-6.5 27.5q5 0 3.5 -5.5t3.5 -5.5q2 4 -1.5 12
t-1.5 16q0 2 1 4t1 4t-2 4.5t-2 4.5q0 1 2 2.5t2 3.5q-4 6 -2 14q-1 5 -0.5 9t-1.5 9q5 -14 5.5 -28t5.5 -25q1 4 1 12t-5 11q7 13 2.5 28t-2.5 31q0 2 1.5 2.5t1.5 2.5q1 14 1 26v25q0 18 2.5 41.5t0.5 45.5q0 1 -1 3t-1 4q0 1 1 3t1 4q5 13 4 32t1 30q0 2 2 2h2
q0 1 -1.5 4t6.5 3q0 4 -3 3.5t-5 2.5q2 4 2.5 7.5t5.5 4.5q-5 5 -2 9t5 9q1 4 -0.5 8.5t3.5 3.5zM73 464q-2 -7 -3.5 -13.5t-1.5 -13.5q-2 -5 -2.5 -10.5t1.5 -8.5q7 20 11.5 44t6.5 46q-4 -11 -7 -22t-5 -22zM71 470q-1 2 -0.5 3t-0.5 2q0 -2 -1.5 -1t-2.5 -1q3 0 2.5 -2
t2.5 -1zM43 253v4.5t-2 0.5q-1 -5 0 -6t2 1zM40 241q2 1 1.5 3t-1.5 0q-2 -2 -1 -3.5t1 0.5zM53 379q2 -4 0.5 -7t-3.5 -8q-1 -4 0 -10t-6 -8q3 8 5 16.5t4 16.5z" />
    <glyph glyph-name="L" unicode="L" horiz-adv-x="514" 
d="M206 637q6 -5 14 -9.5t9 -13.5q-1 -12 -3 -29.5t-4 -33.5q-3 -9 -3 -17.5t-2 -12.5q-2 -2 -1 -9q-2 -5 -2.5 -12.5t-2.5 -12.5q-5 -8 -5 -13q0 -1 1 -3.5t-1 -3.5q-2 -9 -5.5 -18.5t-6.5 -22.5q0 -2 1 -3.5t1 -3.5q-4 -9 -8 -18.5t-6 -17.5q-1 -7 -2.5 -22.5t-3.5 -30.5
q0 -5 -1 -7q0 -2 -1 -3t-1 -3q-4 -8 -4.5 -17t-4.5 -17q-13 -21 -18 -43q-1 -1 1 -3.5t1 -4.5q-2 -9 -6.5 -21.5t-4.5 -24.5q5 0 3.5 3.5t-0.5 7.5q0 2 1.5 2t2.5 1q-1 2 -2.5 4.5t0.5 4.5l7 14q1 5 1 10t2 6q2 4 6 5.5t4 6.5q-1 2 -3 2.5t-3 4.5q1 4 2 3t5 -1
q-6 5 -0.5 11.5t7.5 12.5q2 3 2.5 6.5t2.5 3.5q0 -5 -2.5 -11.5t-3.5 -11.5q-2 -4 -2 -11q0 -2 0.5 -4t0.5 -3q1 -5 -2 -9t-5 -9l-3 -23q-3 -32 -12 -62t-13 -56q-1 -4 -1.5 -12.5t-0.5 -10.5q0 -6 -2.5 -13t-4 -14t-1.5 -13t5 -8q1 0 10 1.5t20 4t21 5t12 2.5q25 6 44.5 10
t48.5 6q26 0 49 -2.5t47 -5.5q18 -5 35 -10t36 -9q5 -1 11.5 -1t13.5 -5q-5 -7 -8 -14t-12 -12q-4 -3 -11 -4.5t-14 -4.5q-3 0 -4 -3t-2 -3q-7 -1 -13 -1.5t-11 -2.5t-9 -4t-9 -4q-5 -1 -11 -1.5t-11 -2.5l-7.5 -4.5t-7.5 -3.5l-39 -12q-15 -6 -31 -12.5t-31 -14.5
q-9 -5 -23 -9.5t-28 -8.5q1 0 -9 2q-2 -1 -3 -1t-1 -1q-5 -1 -9.5 -2t-9.5 1q-8 -2 -13 0t-11 0q-2 -2 -5 -2.5t-5 0.5q-5 0 -7 3t-6 6q-1 0 -4.5 -2.5t-7.5 -2.5q-7 1 -11 4.5t-8 -2.5q-4 2 -6.5 2h-6.5q-2 2 -3 4l-4 4q-2 1 -1.5 -1.5t-1.5 -0.5q1 0 -1 7q-4 2 -12 -1.5
t-13 -1.5l-11 4q-8 2 -14 1.5t-12 5.5q-2 1 -2 5q-2 1 -4 0.5t-3 0.5q-1 2 0 3t0 2q-2 2 -3 2q1 3 2 5t-2 4q1 2 3 2t4 4q-1 2 -5.5 3t-4.5 6q3 2 6.5 0t6.5 3q0 4 -2 5t-3.5 1.5t-2.5 1t0 3.5q4 6 5 3t6 -2q2 1 4.5 2t2.5 3q0 5 -3.5 5t-4.5 4h4q2 2 0.5 6t-0.5 6q2 2 3 2
t3 3q3 8 3 17t2 19q-1 2 -1.5 5t-0.5 5q0 5 3 11t4 9q0 5 2 12.5t2 13.5q-2 11 1 18.5t6 20.5q2 -5 5.5 -5t3.5 -5q2 1 4 8.5t3 17t1.5 18t0.5 13.5q-1 1 -1 3t-4 4q6 6 7 15t1 18q-2 -2 -4.5 -5t-3.5 -5q0 3 -1 8t0 10q0 2 4.5 8t-1.5 12q-5 -3 -4 -9.5t0 -12.5
q-2 -5 -3 -7t-2 -5q-8 -19 -10 -44t-9 -42q0 2 -1 7.5t1 8.5q0 2 1 4t1 4v22q1 2 3 5t1 8q3 8 4.5 15t7.5 12q-2 4 -1.5 8t2.5 12q1 1 1 3l-1 6l1 2q0 1 1 2q0 1 -2 3q2 3 3.5 6t2.5 6q2 4 0.5 7t-0.5 5q2 9 6.5 14t6.5 14q-1 2 -2.5 3t0.5 2q0 1 2 3.5t2 4.5q0 11 4 13
q3 4 2.5 5t1.5 6l4 6t2 5q2 10 2 18t2 16q-1 2 -1.5 0t-0.5 -4q1 18 10 32q0 2 0.5 5.5t1.5 4.5v2v3q2 13 7.5 22.5t9.5 24.5q0 7 1 15.5t4 15.5l3 9q5 8 7.5 17t4.5 22q5 11 6 20.5t7 23.5q2 7 4 12.5t2 11.5q2 7 6.5 18t8.5 18q2 -1 3 -3t6 0q5 -5 8 -5t5.5 1t5.5 0.5
t9 -5.5q8 0 13 -2t1 -10zM94 245q-6 -8 -9.5 -18t-5.5 -19l-6 -22q-1 -13 -3.5 -27t-5.5 -32q2 1 2.5 4t0.5 5q1 -7 1 -12v-9q6 -6 6 -7q0 -2 -1 -3.5t3 -1.5q5 7 3 13.5t3 11.5q0 -6 3 -8q3 1 2 6t1 8q0 2 1 2.5t1 1.5q1 3 0 6t0 5q0 6 3 18.5t3 17.5t1 12t0 14
q-2 -4 -3.5 -8.5t-3.5 -11.5q-1 -3 -0.5 -8t-4.5 -5q-5 3 -1 9.5t5 14.5q4 9 2.5 17.5t5.5 13.5v-9.5t-1 -9.5q6 2 7 8.5t3 11.5q0 3 4 7q3 5 4.5 13t6.5 16q-4 -2 -4 -5t-2 -6q-2 -5 -4.5 -9.5t-3.5 -8.5q0 11 3.5 24t7.5 21q5 20 8 39.5t6 33.5h-5q-7 -18 -12.5 -41.5
t-16.5 -40.5q-1 -8 -1.5 -12.5t-0.5 -6.5v-4q-1 -1 -1 -2t-1 -7zM122 232q-2 -8 -4.5 -18.5t-4.5 -15.5q-1 -5 -3.5 -9t-3.5 -9q-2 -5 -2 -11.5t-2 -11.5q-1 -1 -2.5 -2t-1.5 -3q0 -1 -0.5 -3.5t-5.5 -0.5q3 -9 -1 -16.5t1 -11.5q5 8 7.5 15.5t6.5 15.5q2 5 4 8.5t3 9.5
q1 2 0 4.5t-1 6.5q2 5 5 8.5t4 9.5q3 5 3.5 10.5t0.5 11.5q1 6 4.5 13t1.5 13q1 2 -1 2q1 -3 -2 -6.5t-6 -9.5zM11 103q4 -2 2.5 -7t-0.5 -7q-2 -5 -1.5 -11.5t-4.5 -10.5q0 3 -1 4.5t1 5.5q-3 1 -3 -4q-5 7 -0.5 15.5t7.5 14.5zM90 293q-5 -1 -5.5 -6.5t-2.5 -8.5
q-2 -6 -5.5 -11.5t-3.5 -13.5q2 -2 5 0q4 8 5.5 19t6.5 21zM76 353q1 5 4 13.5t-1 12.5q-2 -5 -4.5 -13t1.5 -13zM90 328q5 -2 7.5 7t-0.5 11q0 -4 -4 -8.5t-3 -9.5zM-1 25q4 -4 2.5 -8t-1.5 -9q-8 3 -4 7t3 10zM64 220q1 3 1 7q0 7 -1 7q-2 -2 -3.5 -7.5t3.5 -6.5zM53 290
q5 0 6.5 5t-1.5 6q-4 -4 -5 -11zM95 301q2 1 4 5.5t-2 6.5q-2 -1 -2.5 -6t0.5 -6zM100 292q2 -2 3 -0.5t3 3.5q-4 3 -6 -3zM38 185q4 0 2.5 -2.5t0.5 -6.5q-4 2 -3.5 5t0.5 4zM59 310q1 1 1.5 3t-2.5 4q0 -6 1 -7zM34 155q1 -3 4 -3h2q0 -1 -3 -4h-2q-2 0 -3 1q2 3 2 6z
M14 119q3 -5 -1 -9q1 2 0.5 4.5t0.5 4.5zM12 103q-3 2 -1 6q2 -2 2 1q-1 -2 -1 -7zM174 311q1 0 1 -2v-2q-2 0 -1 4zM2 44q0 -2 1.5 -4.5t1.5 -4.5q-3 -2 -3.5 1t0.5 8zM42 214v-4v4z" />
    <glyph glyph-name="M" unicode="M" horiz-adv-x="853" 
d="M798 -138q-14 -6 -27 -3t-24.5 10.5t-22 17.5t-17.5 18q-12 12 -25.5 36.5t-20.5 42.5q-1 3 -0.5 9.5t-0.5 11.5q-1 6 -3.5 9.5t-3.5 7.5q-1 5 -1 11t-2 10q-2 20 -3 41t-1 43q0 52 5 103t13 93q-5 -3 -10.5 -11t-10.5 -14q-4 -7 -9 -14t-10 -15q-2 -3 -3 -6.5t-3 -4.5
q-2 -3 -4 -4t-3 -3q-2 -3 -2.5 -5l-1.5 -6q-5 -10 -12.5 -19.5t-12.5 -20.5q-11 -15 -21 -29.5t-19 -31.5q-9 -15 -20 -31t-20 -30q-3 -5 -6 -8t-5 -6q-14 -21 -34 -44q-2 -3 -5.5 -5.5t-6.5 -6.5q-5 -5 -6 -9.5t-3 -6.5t-4.5 -2t-7.5 -2q-4 -2 -10.5 -7.5t-11.5 -6.5
q-5 -2 -9.5 -0.5t-9.5 2.5t-11 0.5t-8 0.5q-17 7 -28 24t-20 31q-1 3 0.5 3h3t2.5 0.5t1 4.5q-3 19 -4 37.5t-1 37.5q0 38 3.5 75.5t8.5 75.5q8 56 15 110.5t19 107.5q-8 -6 -12 -16t-8 -18q-12 -35 -30 -70q-2 -5 -4 -9t-4 -9q-3 -10 -4 -19t-3 -17q-6 -11 -11 -18
q-3 -5 -5 -9t-5 -9q-5 -8 -10 -15.5t-10 -16.5t-9 -18.5t-9 -17.5q-3 -4 -5.5 -8.5t-4.5 -9.5q-2 -4 -3 -8.5t-5 -9.5q-2 -5 -7 -9t-7 -9q-2 -4 -4 -9.5t-4 -10.5q-5 -7 -8 -20q-1 -5 -4.5 -9.5t-5.5 -10.5q-2 -4 -3 -9t-3 -10q-9 -20 -13.5 -42.5t-12.5 -45.5
q-8 -27 -17 -59t-23 -64q-1 -5 -3 -9t-4 -11t-3.5 -13t-3.5 -7q-3 -3 -12.5 -4.5t-16.5 -0.5q-5 1 -14.5 5.5t-19.5 10.5t-18 12.5t-9 11.5q-2 8 2.5 12.5t4.5 12.5t-6 18t-7 20q-1 6 0 12t1 14q0 19 -3 40t-2 41v18q2 19 3.5 36.5t1.5 40.5q0 8 1.5 16.5t2.5 17.5
q5 59 14 121t19 121q8 50 18 98.5t23 98.5q4 18 6 32q2 10 4 20.5t1 15.5t-4.5 6.5t-5.5 6.5q3 31 44 20q11 -3 26 -8t26 -12q8 -5 15 -15t9 -13q2 -6 -1 -12t-3 -14q-2 -5 -1 -10t1 -10q-2 -6 -3.5 -12.5t-2.5 -13.5q-3 -15 -4.5 -28.5t-5.5 -25.5q-2 -14 -4.5 -27
t-7.5 -25q-4 -19 -8 -37t-10 -39q0 -7 -2 -12t-5.5 -14t-4.5 -17q-1 -7 -0.5 -14t-0.5 -13q-1 -3 -4 -5t-5 -6q-2 -5 -3.5 -14.5t-5.5 -16.5q-3 -8 -4.5 -17.5t-4.5 -18.5q-1 -4 -3.5 -8t-3.5 -8t0 -8t0 -6q-2 -11 -7 -22t-7 -24q-2 -6 -1.5 -13t-1.5 -13q-2 -13 -5 -25.5
t-2 -27.5q1 0 0 -7t-3 -17t-4 -20.5t-2 -19.5q8 20 15 35.5t15 31.5q5 11 10 18.5t9 15.5q2 5 2 10t3 10q2 7 6 13t7 13q14 32 31 64t34 62q15 30 31 60.5t32 61.5q17 23 31 46.5t30 47.5q3 6 7 11l8 10q2 5 2 10.5t4 10.5q5 9 14.5 16.5t18.5 16.5q0 4 -5 3t-3 3
q15 7 35.5 10t38.5 -5q3 -1 4.5 -4t5.5 -4q7 -7 9.5 -7t7.5 -10q4 -8 3 -29t-2 -35q-1 -13 -4.5 -25t-6.5 -24l-10 -62t-8 -63q-2 -19 -2 -31t-5 -30q-1 -5 -2.5 -10t-1.5 -10t1.5 -9t1.5 -7q-1 -5 -3 -9t-3 -8q-1 -5 0.5 -7.5t0.5 -7.5q0 -5 -3.5 -9.5t-4.5 -10.5
q0 -2 1 -4.5t1 -4.5q0 -5 -2.5 -8.5t-2.5 -7.5q0 -7 0.5 -12.5t-1.5 -14.5q-2 -8 -4 -11q-2 -8 -7 -18.5t-3 -27.5q3 -2 5.5 3t4.5 7q21 24 37.5 51.5t36.5 52.5q17 26 35.5 54t34.5 54q3 4 5 8t5 7q2 3 7 4t7 5q5 5 8 12.5t7 14.5q9 10 18.5 18.5t19.5 19.5q4 8 8.5 14.5
t7.5 13.5q2 3 1 8t0 7l11 11q5 9 16.5 21t19.5 16q1 1 5 1t8 2q6 1 9.5 1.5t12.5 -1.5q1 0 1 -1.5t2 -1.5q3 0 11 -0.5t11 -2.5q6 -3 12 -9.5t7 -8.5q4 -5 4.5 -15.5t0.5 -18.5q-1 -28 -8.5 -58.5t-16.5 -56.5q-2 -3 -2 -6.5t-1 -6.5q-4 -8 -5.5 -17.5t-5.5 -21.5
q-1 -11 -4.5 -20.5t-5.5 -20.5q-2 -5 -0.5 -9t0.5 -9q-2 -15 -7.5 -30t-8.5 -31q-1 -7 -0.5 -16t-0.5 -17q-1 -7 -3 -13.5t-2 -12.5q-1 -3 0.5 -8.5t0.5 -10.5q0 -5 -1.5 -8.5t-1.5 -6.5q0 -8 1 -16.5t2 -16.5q7 -74 48 -121q10 -12 22 -21t23 -20q-2 -4 -4.5 -5t-5.5 -2z
" />
    <glyph glyph-name="N" unicode="N" horiz-adv-x="697" 
d="M323 -23q-5 1 -4.5 -1.5t-0.5 -4.5q-6 5 -4.5 12.5t-2.5 11.5q-1 7 -5.5 10.5t-4.5 11.5q-1 2 -5 9.5t-7 5.5q-5 2 -6.5 9.5l-2.5 12.5q-3 7 -8.5 13t-10 12t-8 12.5t-3.5 14.5q-2 18 -12.5 37t-20.5 33q-5 6 -6 16t-3 18q-5 9 -8.5 18t-8.5 19q-7 21 -13.5 42t-11.5 41
q-4 23 -8.5 44t-7.5 42q-1 11 -2 20t-4 19q-1 5 -1.5 13.5t-4.5 12.5q-5 -5 -5 -12.5t-1 -14.5q-1 -5 -0.5 -15t-0.5 -15q-1 -14 -1.5 -28.5t-2.5 -37.5q1 -49 -4 -108.5t-7 -119.5q0 -11 1 -20.5t-1 -20.5q2 -11 -1 -21t-5 -19q-2 -7 -4.5 -15.5t-4.5 -13.5t-6 -6t-5 -6
q-4 -2 -3 -7t-4 -7q-3 0 -6.5 1t-6.5 0q-5 -1 -7.5 -4t-4.5 -4q-7 1 -14 2.5t-10 5.5q-12 12 -22 30t-10 36q-1 25 4 52t8 54q3 23 7 47t9 50q9 53 18.5 105t19.5 106q6 20 11 42t10 43q2 7 3.5 10t1.5 8q0 4 -4 6.5t-9 4t-10.5 2.5t-6.5 3q-4 3 -1 7.5t8.5 9t11 7.5t6.5 4
q10 5 13 9t1 16q12 2 24.5 0t21.5 -9q14 -3 17 -13q4 -3 4 -9q4 1 7 -1t7 -4q11 -8 19.5 -21t16.5 -24l3.5 -10.5t6 -15.5t7.5 -14.5t8 -7.5q14 0 16 -10.5t2 -21.5q2 -15 7 -29t10 -29q8 -32 10 -63.5t10 -63.5q0 -2 2.5 0.5t4.5 -0.5q1 -20 6 -37.5t10 -36.5q5 2 3 8.5
t0 11.5q8 -10 8.5 -22t2.5 -21q7 -14 11.5 -27t6.5 -27q0 -13 3 -23t6 -23q7 -9 13 -22t14 -22q16 35 24 70.5t17 68.5q10 38 21 74t22 71q3 14 8 25.5t10 24.5l4 14t2 17q0 9 6 15.5t9 13.5q7 16 10.5 33t11.5 34q1 4 2.5 12.5t3 16.5t4 13.5t7.5 4.5q-2 2 -2 8t2 10
q5 -2 2.5 -5t1.5 -4q2 8 7 14.5t7 15.5q-9 0 -9 -6.5t-5 -11.5q-2 0 0 5.5t5 12.5t6.5 13.5t5.5 8.5q6 6 7 11.5t6 11.5q5 3 9.5 9.5t10.5 11.5q3 1 2 2l-3 3q4 1 8.5 4.5t9.5 6.5t11 4t13 -3q-1 -8 -7 -17.5t-9 -17.5q-1 0 -4.5 -6.5t-7 -13.5t-6 -13t-1.5 -6
q-3 -1 -5.5 -7.5t-4 -15t-2.5 -16t-1 -11.5q-2 -19 -7.5 -37.5t-10.5 -37.5q-4 -20 -7 -39t-9 -36q0 -8 -4.5 -14t-5.5 -14q0 -3 0.5 -4.5t1.5 -3.5q-1 -5 -4 -8.5t-2 -9.5q4 1 5.5 4.5t2.5 7.5t2.5 7.5t6.5 4.5q-2 -12 -7 -27t-4 -29q2 2 5 10.5t6 18t6.5 17t7.5 7.5
q-2 -9 -2 -16.5t-1 -13.5q-3 -7 -2.5 -12t-1.5 -10q-6 -23 -8.5 -44t-5.5 -47q-4 -20 -6.5 -30.5t-4.5 -28.5q-3 -17 -5.5 -34t-6.5 -37q-5 -32 -10.5 -65t-16.5 -67q-2 -18 -4.5 -37.5t-10.5 -37.5q-3 -5 -7 -10t-5 -13q-4 -6 -3.5 -15.5t-5.5 -14.5q-7 1 -13.5 2.5
t-10.5 -3.5q-4 -6 -8.5 -5.5t-9 3t-8.5 5.5t-8 2q-14 -7 -32 3t-26 22q-5 6 -9 10.5t-8 12.5q-8 7 -4.5 11t5.5 15q-1 10 -10.5 21.5t-15.5 19.5q1 1 4 -3q3 2 2 6t-1 5zM582 522q6 1 5.5 10t1.5 13q-1 1 -5 1q-2 -5 -3.5 -10.5t1.5 -13.5zM574 492q-3 -5 -6.5 -12t2.5 -13
q2 2 4 9t3 15t1.5 15t-0.5 9q-5 -5 -4.5 -11t0.5 -12zM568 452q0 2 1.5 3t1.5 3q-2 0 -3 1.5t-4 1.5q0 -7 4 -9zM547 323q-1 8 2.5 13.5t0.5 9.5q1 -5 -3 -10t0 -13z" />
    <glyph glyph-name="O" unicode="O" horiz-adv-x="738" 
d="M658 602q32 -29 44.5 -58.5t12.5 -67.5q0 -9 -0.5 -17t-1.5 -19q-3 -18 -8.5 -47t-11.5 -47l2 2l-2 -2q-2 -5 -3 -8.5t-3 -5.5q-4 -9 -7 -17.5t-10 -15.5q4 7 6.5 14t5.5 15q-4 -1 -9.5 -12t-10.5 -23t-9 -19.5t-5 -2.5q-14 -24 -28 -49.5t-34 -46.5q-14 -14 -34 -33.5
t-29 -37.5q5 -1 8 4q3 -14 -6 -21t-18 -13q-17 -6 -31 -18t-27.5 -25.5t-27.5 -27t-30 -22.5q-30 -17 -63.5 -30t-69.5 -12q-34 0 -68.5 10t-65 28.5t-53.5 44.5t-34 58q5 -3 7.5 -7t6.5 -8q-6 29 -16.5 56.5t-10.5 57.5q-9 -16 -3 -34q-11 5 -11 33q0 19 4.5 45.5t11.5 51
t14.5 44t12.5 25.5q-8 -5 -8 -14q-2 3 -3 9t5 16q7 21 21 43l28 44q11 17 25 36.5t27 36.5q16 23 33.5 41t40.5 36q4 3 15 8t22.5 10.5t20.5 11t9 9.5q-5 -1 -8 -1.5t-8 -0.5q11 5 23.5 8t25.5 3q23 0 41 -12q17 -13 28 -12.5t28 13.5q3 2 14.5 6t26.5 8t32 7.5t31 5
t23 -0.5t9 -8q8 7 20 2t24 -13.5t24 -16.5t20 -8q-2 -1 -3 -1t-3 -2q5 0 9.5 -3.5t8 -7.5t7 -7t7.5 -2q-3 4 -6 7.5t-5 6.5zM699 484q0 2 0.5 4t-2.5 2q2 -2 1 -3t1 -3zM167 391q-4 -6 -8.5 -18.5t-8.5 -26t-6.5 -26.5t-2.5 -21q8 8 14.5 24.5t13 33.5t15.5 30.5t21 15.5
q-7 -14 -17 -27t-15 -29q2 3 9.5 13.5t15 22t12 21.5t0.5 12q2 -6 -5 -13q-2 4 -0.5 11t5 13t8.5 9.5t11 2.5q0 -2 -4.5 -11.5t-5.5 -9.5q12 1 18 16t8 28l2 4h1l1 -2q5 4 13.5 13t18 19.5t17.5 20.5l12 15q10 9 20.5 21.5t11.5 20.5q-11 -9 -12.5 -9.5t1 2.5t6.5 7t5 6
q-11 -8 -6 2q-6 0 -16.5 -5t-20.5 -12.5t-17 -16.5t-7 -16q-2 0 -5 -3t-12 -8q5 0 3 -2t-6.5 -4.5t-9.5 -5.5t-7 -6q-7 -9 -15.5 -16.5t-13.5 -17.5q-5 -9 -9.5 -16.5t-9.5 -16.5q-8 -12 -11.5 -19l-5.5 -11t-3 -7.5t-3 -7.5zM331 517q2 1 5 3.5t0 5.5q2 0 5 2.5t0 4.5
q-2 -5 -6 -8t-4 -8zM240 401q6 13 17 23.5t22.5 20t21.5 19.5t15 24q-11 -9 -22 -17.5t-19 -20.5q-5 -5 -8 -11t-8 -11q-28 -23 -45 -53t-40 -57q2 2 -1 2q-3 -9 1 -3q-2 -5 -5.5 -11t-6.5 -11q1 5 3 9l4 8q-6 -6 -12 -14t-6 -18q2 2 6 7q0 -3 1 -5t1 -5q1 2 4.5 9.5t7.5 15
t8 13t6 3.5q0 4 1 6q-2 -2 -3 -4q2 4 3 5q3 9 10.5 19t16 20t16.5 19.5t11 17.5zM256 396q2 0 5 3t2 8q-3 -3 -4 -5.5t-3 -5.5zM221 353h1q1 -2 2.5 0t3.5 7zM177 305q2 2 4.5 5.5t1.5 7.5q-2 -2 -3.5 -6.5t-2.5 -6.5zM173 296q1 2 2 3.5t-2 1.5q-1 -1 0 -5zM178 338
q2 0 5 4t1 5q-2 -3 -3.5 -4.5t-2.5 -4.5zM193 358q3 6 8.5 11t5.5 11q-4 -5 -9 -11t-5 -11zM238 422q-3 -4 -3.5 -3.5t0.5 2t3 3.5l2 2q0 4 1.5 6.5t3.5 6.5l-12 -16t-10 -17q9 7 15 16zM311 498q1 0 4 3.5t6.5 7.5t6.5 7.5t3 4.5q-3 0 -12 -7.5t-19 -16.5t-17.5 -16.5
t-5.5 -8.5q-6 2 -8.5 -3.5t-5.5 -8.5h2q3 1 6 4q-1 3 3 3l-1 -1q5 3 10 7l10 8q5 5 10 9t8 8zM120 -13q2 -4 8 -8t11 -2q-5 3 -9.5 4.5t-9.5 5.5zM600 512q-2 14 -9 25.5t-12 24.5q-9 -3 -13 6t-9 14q-39 -5 -74 -22.5t-66.5 -42.5t-60 -54t-52.5 -57q-28 -32 -52 -66
t-44 -72q-10 -20 -19.5 -40.5t-16.5 -42.5q-4 -11 -6 -24.5t-10 -21.5q-4 9 -2 17.5t5.5 17t6 16.5t-0.5 15q-11 -11 -11 -27.5t-1 -31.5q-3 -18 -2.5 -37t8.5 -36q-8 6 -11.5 18.5t-4.5 26.5t0 27t1 22q2 22 6.5 36t10.5 31q-5 -15 -8 -31t-5 -31q4 3 8 18.5t6 21.5
q5 13 9.5 26t9.5 26q3 9 9.5 20t13.5 22t12 22t4 20q0 -1 0 0.5t1 3.5q-6 -8 -11.5 -13.5t-7.5 -10.5q-9 -17 -15.5 -34.5t-17.5 -34.5q3 14 11 25.5t11 25.5q-5 -7 -12.5 -17t-14.5 -21.5t-13 -22.5t-7 -19q-1 6 1 11.5t4.5 11t4.5 11t2 11.5q-27 -53 -32 -112q2 2 3.5 4
t2.5 5q0 -8 -2.5 -16.5t-3.5 -16.5t1 -15.5t10 -13.5q-5 7 0 15q1 -8 1.5 -16.5t0.5 -17.5q3 -5 5.5 -10.5t5.5 -10.5q-2 5 1 8q10 -32 30 -45.5t46 -13.5q23 0 49 8.5t50.5 21t46 27t36.5 25.5q48 36 87.5 82.5t63.5 103.5q16 33 23 67q2 9 4 21.5t6 22.5q8 23 11 42t3 33
q0 15 -2 25.5t-3 13.5zM654 282q4 1 4 7q0 -1 -3 -3.5t-1 -3.5zM658 290q2 0 2 1.5t-2 2.5v-4zM675 348q2 8 4.5 15.5t2.5 15.5q-3 -6 -4.5 -12.5t-2.5 -12.5q0 3 1 11t-4 8q-6 -18 -16 -36t-19.5 -36t-18 -35.5t-12.5 -35.5q9 8 21 23.5t22.5 33t18 35t7.5 30.5v-4z
M685 529q0 -3 -0.5 -9t0.5 -12.5t3 -11.5t6 -6q2 11 0 21.5t-9 17.5zM695 416q2 11 0 18q0 -5 -2.5 -9t2.5 -9zM697 439q3 10 3 20.5t-1 21.5q-4 -5 -3.5 -13t0.5 -13q-1 -4 -1 -8.5t2 -7.5z" />
    <glyph glyph-name="P" unicode="P" horiz-adv-x="626" 
d="M286 210q0 -2 -4 -2q0 2 4 2zM222 187q-3 0 -1.5 2t-0.5 1q14 3 28.5 8.5t29.5 9.5q-3 -6 -12.5 -7.5t-17.5 -4.5q-2 0 -3.5 -2t-3.5 -2q-5 -2 -10 -1.5t-9 -3.5zM209 199q1 0 1 -0.5t1 -0.5q-1 -1 -1 -2q-1 1 -2 1q0 1 0.5 1t0.5 1zM181 191q5 2 10 4.5t11 1.5
q-6 -4 -14 -5.5t-15 -4.5q-1 4 2.5 3.5t5.5 0.5zM277 266q0 3 3 3q0 -3 -3 -3zM264 265q2 1 5.5 3t5.5 -2q-5 0 -8.5 -1.5t-8.5 -2.5q0 2 2 2t4 1zM197 179q-8 1 -17 -2t-17 -4q5 4 14 5.5t16 3.5q7 3 12 4.5t11 3.5q1 -6 -8 -6.5t-11 -4.5zM252 257q0 2 2 2h4q-2 -2 -6 -2z
M236 253q2 1 4 1t5 2q-2 -2 -4 -3t-5 0zM689 552q2 -2 3.5 -10.5t3.5 -14.5q0 -5 -0.5 -18.5t-0.5 -20.5q-3 -21 -14.5 -33.5t-18.5 -30.5q-1 -2 -1.5 -4t-2.5 -4q-5 -10 -14 -18l-18 -16l-13 -18q-5 -4 -10 -7t-10 -7q-1 -1 -1 -2.5t-2 -3.5q-20 -14 -35.5 -24t-27.5 -17.5
t-22 -13t-19 -11.5l-17 -9q0 -3 -0.5 -4.5t-0.5 -2.5q-2 -3 -7.5 -6t-10.5 -5q-3 -1 -5.5 -3t-6.5 -4q-3 -2 -6 -3t-6 -3t-4.5 -4t-5.5 -4q-7 -2 -13 -5t-8 -9q-2 -1 -1 1.5t-2 0.5q-3 0 -6.5 -1t-8.5 -3q-1 0 -2.5 -1t-3.5 -2t-3.5 -0.5t-3.5 -0.5q-3 -1 -6.5 -2.5
t-7.5 -3.5q-8 -4 -16.5 -6.5t-19.5 -5.5q-4 -2 -7 -2q-1 -2 -2 -0.5t-3 0.5q-7 -2 -13 -5.5t-14 -2.5q5 2 9 3.5t9 4.5q2 2 8 4.5t11 2.5q1 0 2.5 -0.5t2.5 -0.5q2 1 2.5 1.5t2.5 1.5q5 1 9.5 1.5t8.5 2.5q2 1 3 2l3 3q3 2 8.5 4.5t9.5 4.5q-7 1 -13.5 -2.5t-14.5 -5.5
q-3 -1 -7 -2t-6 -2q-4 -1 -7 -3t-5 -3q-4 -1 -7.5 -0.5t-8.5 -0.5q-5 -2 -9 -4t-11 -3q-2 0 -3.5 -1.5t-2.5 -1.5q-2 0 -3 1t-2 1q-8 -4 -12 -5h-6q-5 -2 -9 -4t-9 -3q-2 -2 -3.5 -1t-3.5 -1q-2 0 -3 -1t-3 -1q-1 0 -2 0.5t-2 0.5q-2 0 -3.5 -1t-3.5 -1t-3.5 0.5t-3.5 -0.5
q-13 -2 -26.5 -5.5t-27.5 -1.5q1 2 4 2t5 1q3 0 5 3q9 0 13 1q2 1 4.5 0.5t5.5 -0.5q2 1 3.5 2t3.5 1q7 2 16 2.5t14 2.5t12.5 3.5t14.5 3.5q5 4 14 5q5 2 10.5 3t11.5 3q2 0 4.5 2t4.5 2q3 2 6.5 2.5t5.5 2.5q4 2 7 4.5t8 4.5q2 2 6 4q1 2 0 3.5t1 3.5q-20 -6 -39.5 -12.5
t-39.5 -12.5q-5 -1 -8.5 -2t-7.5 -3q-5 -2 -10 -4.5t-13 -2.5q1 2 4 2.5t5 2.5q-2 2 -0.5 2t3.5 2q3 -1 1.5 -1.5t-2.5 -2.5q4 -2 5 1t3 5q3 1 6 1t5 1q9 3 19 8q-11 0 -25 -5t-29 -8h-19q-4 -1 -7 -2t-7 -3q-3 -1 -5.5 -0.5t-5.5 -0.5q-4 0 -8 -2q-4 0 -6 -1q-3 3 -3 7
q-1 -4 -1 -7.5t-1 -7.5q0 -1 -0.5 -1t-0.5 -1q-4 -5 -7 -10t-4 -12q-1 -3 -0.5 -7t-0.5 -8l-8 -22q-1 -5 -3.5 -10.5t-2.5 -9.5t2 -6t2 -5t-2 -5.5t-4 -4.5q-1 -5 -1 -10v-10q0 -3 1.5 -6t1.5 -8q0 -2 -1.5 -5.5t-1.5 -5.5q-1 -21 1 -41t2 -40q0 -10 -1.5 -15.5t-0.5 -12.5
q2 -6 4 -11.5t3 -12.5l6 -12t3 -10q-2 -8 -9 -11t-15 -2q-11 2 -19.5 11t-13.5 16q-2 4 -5.5 8.5t-6.5 9.5q-2 5 -5.5 10t-5.5 8v10q-8 29 -13.5 61.5t-4.5 68.5q0 12 2 25t2 26q8 93 23.5 184t35.5 171q-13 0 -27 3.5t-18 11.5q9 -2 17.5 0t16.5 7q14 6 17.5 11t8.5 20
q8 31 16.5 59t19.5 55q4 13 7.5 24.5t8.5 20.5q2 1 8 0t13 -3t12.5 -4.5t6.5 -3.5q3 -2 4 -7t4 -8q5 -7 15.5 -15t16.5 -17q3 -8 4 -15.5t4 -19.5q16 1 27.5 3t22 5t22 6.5t26.5 7.5l41 9q2 0 12 4l53 7q11 2 20 2.5t18 0.5q23 0 45 -3t49 -8q30 -8 51.5 -24t41.5 -36l5 -10
q3 -2 6 -3t5 -4zM186 204q11 2 21.5 2.5t18.5 7.5q-11 0 -22 -2.5t-23 -3.5q-7 -2 -14 -3.5t-15 -2.5q-2 -2 -5.5 -1.5t-7.5 -1.5h20.5t19.5 3q2 0 3.5 1t3.5 1zM230 214q5 2 10.5 3t10.5 4q-5 0 -11 -2t-10 -5zM262 224q-2 -1 0 -0.5t2 2.5l-1 -1q0 -1 -1 -1zM368 220
q-1 2 -3 -2h3v2zM407 233q0 2 -0.5 5t-2.5 4q-3 -2 -5.5 -4.5t-7.5 -2.5l-3 -9q3 0 5 2.5t4 4.5q6 -6 10 0zM602 484l4 12t5 19.5t3 19.5t-1 13q-3 23 -25 28q-5 2 -10 4.5t-10 2.5q-8 2 -10 4t-3 2.5t-3.5 0.5t-10.5 -2q-7 0 -15 1.5t-15 -0.5q-14 -2 -27 -1.5t-27 -0.5
l-49 -13q-5 -3 -11 -3.5t-11 -1.5l-16 -7q-11 -2 -18.5 -2.5t-14.5 -2.5q-6 -2 -7.5 -3t-2.5 -2t-2 -1.5t-6 -2.5q-4 -1 -7 -1t-6 -2q-5 -1 -11.5 -4t-8.5 -6q-8 -4 -12 -10t-9 -11q-2 -3 -7.5 -4t-9.5 -4q-3 -3 -7 -9t-8 -11l-12 -15t0 -15q4 -14 -1 -30q-2 -4 -2 -6.5
t-2 -4.5q-1 -2 -2 -7t-4 -6q-4 -4 -8 -6t-6 -7q-3 -2 -4 -6.5t-2 -6.5l-10 -16l-6.5 -6.5t-4.5 -7.5t-2 -10.5t-1 -12.5q-3 -8 -6.5 -17t-4.5 -17q-1 -6 -2.5 -12.5t-1.5 -10.5q-1 -7 -3.5 -18.5t-2.5 -12.5q9 -1 19.5 1t19.5 3q2 1 4.5 0.5t4.5 -0.5q5 1 10 3t11 3q5 1 8 1
t8 1q2 1 2.5 2t1.5 1q4 2 7.5 1.5t6.5 1.5q11 4 21 8l20 8q-1 2 -3.5 0t-3.5 0q6 5 16 8.5t18 6.5q17 8 28.5 13.5t22.5 10.5q2 1 19.5 10.5t41.5 23t48.5 28t39.5 26.5q19 14 34.5 27t27.5 28q8 9 13.5 16.5t10.5 16.5zM41 -59q-1 4 0 0.5t3 -1.5q-1 -4 -2.5 -2.5t-0.5 3.5
z" />
    <glyph glyph-name="Q" unicode="Q" horiz-adv-x="746" 
d="M394 548q-4 -4 -9 -4q1 2 9 4zM638 552q2 -3 0 -2.5t-2 -1.5q2 -2 5 -1.5t6 1.5q1 -2 -0.5 -3.5t1.5 -4.5q14 0 28.5 -12.5t21.5 -23.5q3 -5 4.5 -9.5t5.5 -9.5q3 -4 0 -11q5 -4 7 -9l4 -10q0 -13 1 -24q1 -9 2 -17.5t3 -10.5q0 1 -1 -2.5t-2 -8.5t-1.5 -9.5t-0.5 -5.5
q-8 -8 -9.5 -23t-3.5 -25q-5 -13 -13.5 -23.5t-13.5 -23.5q-5 -10 -10 -25t-15 -22q0 -2 0.5 -3t0.5 -3q-2 -2 -2 -1t-4 1q-3 -7 -5 -11t-3.5 -7.5t-1.5 -1.5q1 -8 -6.5 -17.5t-7.5 -17.5q0 -3 -2.5 -9t-6 -12t-7 -11t-6.5 -6q5 10 10 19.5t8 20.5q-7 -16 -18.5 -27.5
t-16.5 -26.5q-7 -17 -24 -37q-7 -9 -10.5 -16t-11.5 -15q-5 -8 -12 -14.5t-13 -13.5q-5 -5 -11 -14.5t-15 -15.5q3 -7 10.5 -11.5t14.5 -9.5l14 -16t15 -14q19 -14 38.5 -29t39.5 -29q17 -13 36.5 -24.5t37.5 -22.5q18 -12 37 -19t40 -6q-2 -12 -11 -20.5t-21.5 -13t-26 -6
t-23.5 0.5q-26 3 -51 16t-48 24q-26 16 -49.5 34t-48.5 37q-11 10 -24.5 21t-26.5 22q-4 4 -8.5 3t-9 -4.5t-9.5 -7.5t-9 -6q2 3 0.5 2.5t-4 -2t-5.5 -3t-3 -2.5q-3 -4 -7 -6.5t-8 -4.5q-12 -11 -29.5 -17.5t-33.5 -6.5q-23 -1 -42 1t-42 8q-4 0 -13.5 2t-14.5 1
q-10 -4 -22.5 3t-22.5 9q-2 1 -3 3l-2 4q-8 5 -15.5 7.5t-14.5 4.5q-5 2 -7.5 7t-5.5 7q-17 11 -28.5 26.5t-22.5 31.5q-14 26 -21.5 51t-13.5 54q-1 11 -1.5 22.5t-0.5 21.5q0 20 2.5 36.5t7.5 30.5q5 17 4 34t4 34l2 12t3 13q0 3 3.5 9t6.5 12.5t5 12.5t-1 10
q-2 5 -2.5 -0.5t-5.5 -4.5q19 49 43 95q5 10 11.5 21t13.5 21q3 4 5 3t4 4q2 7 7.5 13t7.5 11q4 -1 1 -1.5t-3 -2.5q11 6 17 16.5t13 20.5q5 4 13 12.5t8 13.5q0 1 -0.5 0.5t-0.5 -1.5q4 7 13.5 17.5t20 21t21 18.5t17.5 11q8 4 18.5 12t15.5 15t17 12.5t20 10.5
q11 7 22 7.5t22 -3.5t21 -10t19 -12q11 -7 22 -13t22 -13q8 -5 11 -9t3.5 -8.5t0 -9.5t1.5 -11q3 -4 8 -3t4 -5q4 2 9 1.5t8 1.5q1 -2 1 -4t5 -2q0 -5 -2.5 -4.5t-3.5 -2.5q5 -3 9.5 -4t9.5 -1q4 1 3 1.5t-1 3.5q4 0 10.5 0.5t13 0.5t11.5 -1.5t6 -6.5q1 -4 6 -4t10 0.5
t9.5 -0.5t4.5 -7q5 4 9 0.5t7 -5.5q5 -5 10.5 -4t10.5 -3zM562 577q4 0 4 1q-1 2 -2.5 2t-1.5 -3zM352 512q11 5 17 11t16 11q4 3 11 8t15 9.5t15.5 7t13.5 1.5q-2 4 0 5t2 4q-2 0 -3.5 -1t-1.5 2q6 2 13 4.5t12 8.5q-2 0 -4 3q0 1 4 1t2 2q-7 1 -14 2.5t-12 4.5
q-1 -7 -7.5 -8.5t-11.5 -5.5q-7 -5 -12.5 -11.5t-12.5 -11.5t-13 -9.5t-11 -10.5q-4 -7 -11 -9.5t-11 -8.5q4 -2 7.5 1t4.5 -1q-12 -3 -20 -8.5t-15 -13.5q4 0 6.5 2.5l4.5 4.5q5 5 6.5 2.5t4.5 0.5q2 2 0.5 1.5t-3.5 1.5q6 2 8.5 4.5t-0.5 -4.5zM505 578q0 2 1.5 1.5
t-0.5 2.5q-1 1 -2 -1.5t1 -2.5zM451 564q3 0 5 2q-5 0 -5 -2zM599 566q-7 0 -7 -1q2 -2 7 1zM404 535q6 0 6 4q-2 0 -3 -1.5t-3 -2.5zM299 90q14 2 25 -0.5t25 -9.5q7 -3 13 -6l12 -6q8 -3 15.5 -6.5t14.5 -6.5q5 -2 11 -7.5t11 -4.5q5 0 10 7t10 10q13 9 21.5 20.5
t18.5 22.5q26 28 42.5 60.5t28.5 66.5q6 20 10 38.5t8 38.5q1 11 4 26.5t-4 26.5q3 -1 12 -1q0 6 4 8t2 9q2 0 2.5 -2t3.5 -2q0 8 -4.5 15.5t-2.5 15.5q0 5 0.5 9t0.5 8q0 9 -1.5 9.5t-3.5 7.5q-1 13 -1.5 26.5t-3.5 27.5q-3 13 -18.5 15t-35 -2t-38.5 -11t-27 -11
q-16 -6 -30.5 -11.5t-30.5 -13.5q-16 -9 -31.5 -18t-31.5 -19q-20 -11 -37 -23.5t-37 -28.5q-6 -5 -13 -11t-14 -10q-5 -3 -7.5 -2.5t-7.5 -2.5q-2 -3 -5 -5.5t-5 -4.5q2 8 6 15t8 15q3 5 8.5 11t8.5 11q-7 2 -14.5 -5t-14 -17.5t-11.5 -21t-7 -14.5q0 -2 4 -1.5t3 -2.5
q-2 -8 -5 -18t-8 -17q-3 -4 -6 -9t-7 -8q-5 -1 -4.5 -6.5t-1.5 -7.5q-2 -6 -6 -8.5t-4 -7.5t-1.5 -10.5t-3.5 -11.5q-2 -14 -4.5 -26t-2.5 -26q-4 1 -3.5 -1.5t-2.5 -2.5q0 -28 1 -60.5t12 -54.5q4 -15 8.5 -24.5t10.5 -16.5t14 -13.5t20 -15.5q12 -8 26 -10t28 -2
q27 1 55.5 11.5t51.5 27.5q-9 9 -17.5 18t-19.5 15q-11 7 -18 12.5t-19 10.5q-17 6 -33 8t-30 9q-4 2 -9 2t-8 5q21 5 41 8t40 -2zM312 487q2 -2 3.5 1t-1.5 3q-1 -2 -1.5 -2.5t-0.5 -1.5zM352 476q-3 0 -9.5 -2t-13 -5t-11 -7.5t-4.5 -9.5q3 1 11.5 5.5t17.5 10t15.5 10.5
t6.5 7q-3 -1 -5.5 -5t-7.5 -4zM258 422q8 0 15.5 5t16.5 6q1 0 4 2.5t6 5.5t5 6t0 3q-16 -1 -25.5 -10.5t-21.5 -17.5zM274 424q2 1 4 2.5t4 4.5q-8 0 -8 -7zM596 422q0 2 -0.5 5t-0.5 0q-2 -4 -1 -5.5t2 0.5zM265 407q1 0 5.5 1.5t8.5 3.5t6 4t-1 4q-11 -1 -19 -13z
M248 410q2 2 5 4.5t1 4.5q-1 -2 -5 -3.5t-1 -5.5zM239 397q5 0 10.5 6t8.5 11q-5 -4 -11.5 -6.5t-7.5 -10.5zM599 406q0 4 -4 4q0 -1 -0.5 -3.5t4.5 -0.5zM156 -74q-2 2 -9 5.5t-13 2.5q6 -3 11.5 -7t10.5 -1zM421 562q3 -2 0 -3.5t-6 -1.5q0 2 3 2.5t3 2.5z" />
    <glyph glyph-name="R" unicode="R" horiz-adv-x="613" 
d="M613 498q4 -8 7 -18q2 -8 2 -19.5t-6 -24.5q1 -4 -5 -15.5t-7 -13.5q-3 -5 -10 -14t-14 -5q-3 -7 -7.5 -12.5t-9.5 -10.5q-3 4 1 5t5 3q-7 1 -12.5 -6t-11.5 -13q-3 -2 -6.5 -3t-5.5 -3q1 0 -2.5 -3.5t-0.5 -2.5q18 8 30 22q-5 -11 -14.5 -15t-17.5 -11q-3 0 -1.5 1
t0.5 2q-2 1 -7 -1.5t-10 -6t-9 -8t-4 -6.5q-8 4 -17 -3t-14 -10q-8 -5 -17 -10.5t-16 -12.5q13 3 23 11.5t24 11.5q-5 -4 -9.5 -6.5t-8.5 -6.5q4 0 6 1.5t7 1.5q-11 -11 -26.5 -16.5t-29.5 -15.5q-11 -8 -23 -13.5t-25 -10.5q10 -3 23 4.5t22 11.5q-3 -5 -7 -6t-8 -4
q-3 0 -6 -2t-9 -4q-3 -4 -9 -6.5t-12 -6.5h5q-8 -4 -15 -8t-15 -7q5 -3 9.5 0.5t9.5 3.5q-4 -3 -8 -4.5t-9 -3.5q-3 -3 -8.5 -5t-7.5 -6q-10 -1 -19 -10q8 2 15 6.5t16 6.5q2 2 3.5 1.5t6.5 1.5q6 0 12 4.5t11 6.5q11 2 20 6.5t18 9.5q-1 -5 -4.5 -6.5t-7.5 -2.5
q-11 -7 -23 -12.5t-24 -11.5q-5 -2 -13.5 -4.5t-10.5 -8.5q-9 0 -17 -4.5t-16 -6.5q-12 -4 -22.5 -8.5t-22.5 -7.5q23 -28 41.5 -56.5t37 -55.5t41 -52t54.5 -46l13.5 -9t18.5 -9l15 -7.5t21 -9.5q5 -2 12 -3.5t9 -6.5q-2 1 -2 -1.5t3 -4.5q-1 -5 -7.5 -5.5t-22.5 -0.5
q-6 1 -12 1t-12 2q-9 3 -17.5 4t-16.5 3q-31 9 -62 26q-12 6 -25 15.5t-25 17.5q-7 5 -15.5 13t-17 16.5t-16.5 16t-13 12.5q-12 11 -22 22.5t-20 24.5q-8 11 -17 21.5t-16 23.5q-2 4 -8.5 12.5t-5.5 10.5q-2 -3 -2.5 -5t-1.5 -7q0 -1 1 0q3 -3 -0.5 -7.5t2.5 -6.5
q-6 -2 -6 -7.5t-2 -13.5q-2 0 -3 -2t-4 1q0 -2 3 -2q-4 -3 -4 -7v-8q-1 -5 -4 -7t-3 -7q-3 -3 -6 -14t-6 -23.5t-5 -25.5t-4 -20q0 -2 -0.5 -8t-0.5 -12.5t-1 -11.5t-2 -5q1 -11 -2 -20.5t-4 -20.5q-2 -6 -3 -18.5t-7 -12.5q-5 -5 -8 -11.5t-11 -5.5q-7 3 -11 11t-6 17.5
t-3.5 19.5t-3.5 16q-3 10 -5 19t-2 20q2 11 -2 22v11q-1 3 -2 8.5t-6 6.5q-3 31 -6.5 63t0.5 63q4 0 6 5t2.5 11.5t-0.5 11.5t-3 5q0 2 2.5 5.5t-2.5 3.5q-1 1 -0.5 -4.5t-3.5 -3.5q3 8 1 16t0 17q2 2 7.5 9t0.5 11q1 -2 -0.5 -5.5t-3.5 -4.5q-4 8 -2 14t3 14q4 9 4 19t2 21
q0 2 4 20t9.5 43.5t12 54.5t12 54t9.5 42t5 19q0 3 2.5 11t5.5 17t5.5 17t3.5 10q-8 0 -10 5q-11 -5 -23.5 5.5t-20.5 23.5q-2 5 -6 9t-2 9l6 -1q3 0 2.5 2t-0.5 4q3 0 3 1v2q-1 1 6 2.5t16 2t18 1.5t13 2q8 0 16 3q5 2 4.5 10t1.5 13q3 11 7.5 24.5t-5.5 23.5q4 0 3 4t2 4
q1 3 -2 5t-3 5q0 1 8.5 1t19.5 -2t21.5 -6t15.5 -11q6 -8 7 -14.5t0 -15.5q0 -5 1 -10t6 -8q2 0 9.5 0.5t17.5 1t20 1.5t18 1q19 0 36 -0.5t35 -4.5q19 -4 39 -9.5t38 -11.5q16 -5 32 -11t30 -14q8 -4 14.5 -8.5t14.5 -9.5q4 -2 7 -4.5t6 -4.5t6.5 -2t4.5 -1q1 -4 4.5 -6.5
t7.5 -4.5q9 -5 18.5 -14t17 -18.5t13 -17.5t7.5 -12zM35 68q3 3 0 6q1 -1 -1 -3.5t1 -2.5zM32 73q5 5 5 12.5t-1 12.5q-5 -2 -4.5 -5t3.5 -3q2 -8 -0.5 -10.5t-2.5 -6.5zM40 212q2 2 2 5t-2 3q0 -2 -1 -5t1 -3zM42 8q2 0 2 2.5t-2 2.5q0 -1 -1 -3t1 -2zM44 28q0 8 0.5 14.5
t-2.5 11.5q-2 -8 -0.5 -14.5t2.5 -11.5zM48 126v4q-2 -2 -3 -6t3 -4v6zM44 224q0 15 6.5 28t3.5 29q-1 -3 -1 -11q-2 -2 -5 -9t-5 -14.5t-2 -14.5t3 -8zM150 90q-1 3 1 4.5t-1 3.5q-1 -2 -2 -4.5t2 -3.5zM514 583q-7 4 -13.5 9.5t-14.5 5.5q8 -2 14.5 -8.5t13.5 -6.5z
M198 200q1 -2 3 -1t3 3h-3t-3 -2zM214 185q5 -5 10 -4.5t9.5 2.5t9.5 5t10 3l-1 2v1q3 3 8 0q4 4 8 4q-4 0 -5 4q9 0 19 2.5t18 9.5q-3 2 -5.5 5t-5.5 -3q-6 1 -13 -3t-8 -7q-11 -2 -22 -3t-13 -9q-5 -1 -9.5 -4t-9.5 -5zM221 192q2 0 4.5 0.5t1.5 1.5q-6 0 -6 -2zM245 158
q2 -1 5 1t3 5q-2 -3 -4.5 -2.5t-3.5 -3.5zM340 217q2 -1 6 0h-6q-8 -2 -14 -5t-14 -3q-6 0 -9.5 -2t-8.5 -4q-11 -5 -24.5 -7.5t-21.5 -13.5q-5 -3 -10.5 -3.5t-10.5 -2.5q-1 -5 3.5 -4.5t7.5 1.5q-2 -3 -3.5 -3.5t-1.5 -1.5q8 -8 13.5 -4.5t13.5 5.5q6 3 9.5 4t7.5 2h2
q1 0 2 -1q2 1 3.5 4t2.5 2v-1q5 1 9.5 3.5t8.5 5.5q-13 2 -21.5 -2t-14.5 -11q-1 0 -3 1q1 0 2 1l2 2q-4 2 -6 2q4 1 6.5 3t6.5 4q0 2 0.5 2t0.5 2q8 4 19.5 5t19.5 5q0 1 3 4h2q1 0 2 -0.5t2 -0.5q3 4 6 7t8 5zM317 226q-5 -2 -11 -3.5t-6 -4.5q4 4 9 4t8 4zM314 229
q-1 0 -4.5 -1t-1.5 -2q2 2 3.5 1.5t2.5 1.5zM318 232q2 -4 2 0h-2zM325 220q1 -1 3 -1q1 0 1 1q-3 1 -4 0zM342 235q5 -1 5 1.5t3 3.5q5 2 10 3.5t7 6.5q-11 -4 -23 -7t-20 -11q3 2 5 -1t3 -2q4 2 3 4.5t7 1.5zM349 229q12 1 21 10q-14 -5 -21 -10zM373 252q1 -1 2.5 0
t2.5 2q-5 0 -5 -2zM306 230q19 8 39 14.5t37 19.5q-4 -2 -7.5 -1t-7.5 0q-4 0 -6.5 -2.5t-6.5 -3.5q-4 -2 -13.5 -3.5t-11.5 -5.5q-5 -2 -7 -5t-9 -1q-5 2 -7 -2.5t-7 -4.5q2 -1 2 -2q-5 2 -7 -2t-6 -5q0 3 -4 1.5t-8.5 -3.5t-9 -4.5l-4.5 -2.5q-5 -2 -12 -4.5t-12 -3.5
q-7 -3 -14 -6.5t-10 -5.5q-10 0 -10 -4q8 -4 15 1t15 8q8 2 17.5 8t17.5 6q7 4 17 6t16 7h3q1 0 1 1zM230 212q-3 0 -6.5 -2.5t-6.5 -4.5q-2 -1 -6 -0.5t-6 -2.5q14 2 27.5 9t27.5 12q-2 0 3 1.5t6 1.5q7 2 16 3.5t14 8.5q-5 -2 -3.5 -0.5t-1.5 3.5q-5 -2 -10.5 -4.5
t-11.5 -4.5q-11 -5 -22 -9.5t-21 -10.5h1zM289 248q9 0 9 4q-4 0 -9 -4zM336 259q11 3 19.5 5.5t16.5 6.5q-10 -1 -18.5 -5t-17.5 -7zM374 272q2 -2 3.5 -1.5t1.5 1.5h-5zM385 256q1 2 2.5 2t3.5 4q-4 0 -5.5 -2.5t-0.5 -3.5zM382 266q3 3 8 3.5t7 4.5q-4 0 -10.5 -2
t-4.5 -6zM401 276q1 -1 4 -0.5t1 2.5q0 -2 -2 -0.5t-3 -1.5zM414 274q5 -2 7.5 0t2.5 4q-4 2 -5 -0.5t-5 -3.5h-3.5t-1.5 -3q5 -1 5 3zM420 282q3 -3 5 -1.5t0 3.5q-1 -1 -3 -1q-1 0 -2 -1zM427 284q4 -1 6 0q-2 0 -3.5 1t-2.5 -1zM520 421q6 18 3 34t-12 29
q-7 9 -18.5 16.5t-24.5 13.5t-26.5 10.5t-23.5 8.5q-22 7 -37 9.5t-40 7.5q-12 2 -30 3t-35 -1l-26 -4t-27 -3q-2 -10 -3.5 -23.5t-2.5 -23.5q0 -1 -1 -15.5t-3.5 -36.5t-6 -47.5t-7 -48.5t-7 -40.5t-6.5 -22.5q5 1 5.5 5t1.5 8q1 6 4.5 13t8.5 12q-2 -9 -3 -17.5t-3 -17.5
q-1 -5 -1.5 -9t-1.5 -7q0 -2 -5.5 -12.5t-9.5 -26.5q-1 -5 -4.5 -16t-2.5 -14q8 -2 9.5 2t3.5 10q5 -4 2 -11q7 0 12 3.5t8 7.5q13 3 24 7t22 9q6 5 14.5 7t15.5 8q-3 2 -6.5 -1.5t-5.5 0.5q9 1 21 5.5t17 13.5q-4 2 -6.5 0t-6.5 -1q5 3 26.5 15t46.5 27t48 29t31 20
q9 7 18.5 13.5t17.5 14.5q8 6 18.5 16t14.5 21zM516 580q4 -2 6 -5t6 -5q0 5 -4.5 8.5t-7.5 1.5zM596 427q-2 -1 -5.5 -4t-6.5 -6.5t-4 -5.5t2 -2q-1 -1 -2.5 -1.5t-2.5 -3.5q5 -1 6 4t6 5q2 2 2.5 5t1.5 2v-1z" />
    <glyph glyph-name="S" unicode="S" horiz-adv-x="546" 
d="M395 160q4 -5 2 -14q-2 4 -2 14zM408 90q0 -2 -2.5 -5t-4.5 -3q0 4 7 8zM218 -13q-2 -1 -4.5 -2t-5.5 -1q-2 3 2.5 2.5t7.5 0.5zM-28 76q6 -3 5.5 -10t0.5 -12q0 -3 2 -5.5t2 -4.5q2 -6 0 -15t6 -15q0 -5 -2 -6t1 -4q4 -2 2.5 1.5t2.5 1.5q5 -1 12 -3t7 6q2 -4 7 -5.5
t13 -5.5q7 -4 12.5 -6.5t16.5 -4.5q0 1 -2 -5q17 -10 33 -8.5t35 -3.5q0 5 1 5q-4 7 -12.5 3.5t-12.5 -1.5q2 6 8 6.5t13 -0.5t13.5 -1.5t8.5 4.5q7 -5 19.5 -3t20.5 2q0 -3 -3 -2t-1 -3q9 -3 19.5 -3.5t20.5 4.5q2 0 7 1t10 5q-3 5 -7.5 1.5t-8.5 -2.5q0 5 2.5 5t3.5 2
q1 1 2 4t9 3q2 4 -2 4.5t-3 2.5q5 4 9.5 7.5t2.5 12.5q4 -2 9.5 -2.5t10 0t6.5 3t-2 5.5q12 -1 25 1.5t25 7t21.5 11t14.5 12.5q5 8 4.5 18t-2.5 20q-7 22 -18.5 42.5t-22.5 37.5q-10 12 -19 23t-20 22q-5 7 -8.5 12t-11.5 10q-2 2 -7 4.5t-7 4.5q0 2 0.5 4t-0.5 4
q-2 2 -6.5 3t-7.5 5q-2 2 -3.5 5t-3.5 5h-2q-2 0 -3 1q-2 2 -5 6t-5 7q-7 0 -11 4q-5 5 -9 10.5t-8 8.5q-5 4 -8.5 3.5t-7.5 3.5q-5 4 -7 8t-6 9q-4 6 -14 8q-5 3 -6 7t-4 6q-2 2 -5.5 4.5t-5.5 4.5q-6 2 -12 9q-1 0 -0.5 2t-0.5 3q-4 5 -11.5 9.5t-11.5 11.5l-10 20
q-4 10 -8.5 17.5t-8.5 16.5q-6 8 -6 10q0 1 1 2t1 3q-1 3 -2 5.5t-1 4.5t0.5 7.5t0.5 10.5t-1.5 8.5t0.5 6.5q0 2 0.5 3t0.5 3q0 11 -2 20.5t-4 20.5q0 5 6 1q0 6 -2.5 9t-2.5 8q4 2 4.5 0.5t1.5 -1.5q1 2 0 2.5t-1 3.5q0 4 5.5 10.5t7.5 9.5q-3 -10 2 -13.5t9 5.5
q0 1 0.5 1.5t0.5 2.5v3q5 11 15.5 25.5t19.5 22.5q7 8 15.5 16.5t19.5 13.5q5 5 11.5 6.5t16.5 3.5q7 1 12 3.5t10 3.5q9 2 18.5 2t19.5 2h33q4 0 8.5 -1t5.5 1q5 1 5 2.5t-1 6.5q14 -5 26.5 -9.5t24.5 -10.5q6 -2 10 -3.5t10 -6.5q5 -2 7.5 -5t7.5 -2q1 -4 5 -8
q5 2 11.5 -1.5t12.5 -6.5q8 0 12 -1q3 -1 3.5 -3t2.5 -3q4 -4 6.5 -4.5t5.5 -0.5q8 -2 13 -6.5t12 -9.5q13 -11 23.5 -21.5t21.5 -24.5q5 -10 6.5 -17t3.5 -19q2 -5 3.5 -14.5t2 -19.5t-1 -18.5t-5.5 -11.5q-11 0 -20 3t-21 8q-3 1 -8.5 1.5t-10.5 3.5q-1 1 -2.5 3.5
t-3.5 4.5q0 2 -4 4q-2 1 -3 1v6q0 1 -1 1q-2 0 -2 1q-1 1 -2 1q-1 2 1 2.5t2 1.5q0 2 -1.5 4t-2.5 4q-3 2 -2 6t0 6q-3 6 -6.5 10.5t-10.5 7.5q1 5 -1.5 7t-4.5 7q-5 8 -10.5 15t-22.5 9q-6 1 -18.5 -1.5t-20.5 -2.5q-3 0 -4.5 1.5t-2.5 1.5q-7 0 -11.5 -2.5t-8.5 -2.5
q-2 1 -1.5 2.5t-2.5 2.5q-2 2 -9.5 -2.5t-13.5 -4.5q-6 2 -7 2q-5 -1 -9.5 -3.5t-10.5 -4.5q-10 -4 -17 -9t-15 -12q-4 -2 -8.5 -5.5t-8.5 -3.5q-5 -4 -9 -4.5t-8 -3.5l-4.5 -4.5l-4.5 -4.5q-2 -1 -8.5 -8t-6.5 -9q-5 -10 -4 -18.5t-3 -13.5q-2 2 -2.5 6.5t-4.5 7.5
q-10 -5 -5.5 -11.5t4.5 -8.5q-1 -7 -5.5 -12t0.5 -12q4 -9 14.5 -18.5t19.5 -16.5q2 -1 3.5 -3.5t3.5 -5.5q5 -3 9 -6t9 -8q2 -1 4.5 -3t2.5 -4q2 -1 1 -4t1 -5q11 -11 26 -21.5t24 -22.5q5 -5 11.5 -11t12.5 -11q11 -10 21.5 -23t22.5 -25q8 -10 14.5 -16.5t14.5 -16.5
q5 -5 5.5 -9t1.5 -13q1 -7 4 -11t1 -13q-1 -2 -2.5 -3t-0.5 -3q0 -6 3.5 -7t8.5 -4q2 -10 6 -19t5 -23q2 -2 4 0.5t3 -1.5q2 -5 2.5 -12.5t0.5 -14.5q2 -3 3.5 -0.5t1.5 4.5q7 -11 3 -21.5t-5 -23.5q0 -3 1.5 -5t0.5 -7q0 -2 -1 -4.5t-2 -5.5q-2 -4 -0.5 -6.5t1.5 -4.5
l-2 -2l-1 -1q-3 -7 -4 -13t-3 -11q-2 -4 -5 -6t-5 -4q0 -1 0.5 -3.5t-0.5 -3.5q-3 -5 -8 -9.5t-9 -9.5q-1 -3 -1.5 -4t-3.5 -5q-1 -1 -8.5 -7.5t-12.5 -8.5q-1 0 -2 1t-3 0q-4 -3 -7 -9q-5 -5 -12.5 -9t-17.5 -6q6 -5 15 -2t12 1q-8 -6 -19 -7.5t-20 -3.5q-18 -7 -40 -12
q-14 -2 -32 -4t-37 -2q-13 0 -24.5 1t-22.5 4q-2 0 -3.5 1t-3.5 2q-6 1 -11 1h-10q-2 2 -7.5 4.5t-7.5 5.5v2v2q-3 1 -8 1t-7 1t-4.5 3.5l-4.5 4.5q-3 2 -5.5 3t-3.5 5q3 0 4 -2t3 -1q4 3 1.5 4.5t-1.5 6.5q11 -5 19 -11t19 -8q9 -1 16.5 -0.5t15.5 -3.5q1 5 -2 5t0 4
q2 -3 10 -4.5t16 -3.5q11 -2 21.5 -1.5t13.5 7.5q4 3 11.5 1t7.5 3t-7 3t-15 -2q-3 0 -5.5 1.5t-6.5 -0.5q-12 -1 -30 0.5t-31 3.5q-2 -5 3 -5.5t1 -1.5q0 -4 -9 0t-13 6t-11.5 2t-11.5 3q-1 1 0.5 3.5t-1.5 0.5q9 -1 17 -1t19 -3q3 -2 5 -3t5 -1q4 0 9.5 1t10.5 0
q8 -2 10 -2q2 1 6.5 1t10.5 1q6 0 11 -0.5t10 4.5q2 2 5.5 0t5.5 2q-2 7 -6.5 5t-7.5 -1q-2 0 -5 0.5t-4 0.5q-5 0 -10.5 -2t-10.5 0q-2 0 -4 1.5t-4 1.5q-5 1 -9.5 0.5t-8.5 -0.5q-6 1 -13.5 3t-13.5 -3q-3 2 -4 4.5t-5 2.5q-3 2 -2.5 -1t-1.5 -2q-2 -1 -3 1t-3 2
q-3 2 -8 0t-10 0q-2 0 -4 2.5t-5 2.5q-2 1 -5.5 -1t-8.5 -1l-3 1t-7 2t-7.5 2.5l-3.5 1.5q-2 0 -2 5q-3 -4 -6.5 -4.5t-5.5 -5.5q-5 0 -6.5 3.5t-3.5 7.5q-7 -4 -11 0.5t-7 9.5q-1 2 0.5 3t-0.5 4q2 2 -0.5 2.5t-2.5 2.5q0 7 1.5 16.5t-7.5 8.5q-3 -2 -2 -1l2 2q5 8 7 19.5
t2 26.5zM280 710q2 0 2 -0.5t1 -0.5q3 1 1 2t-4 -1zM361 205q0 7 -3 12q1 -4 1 -7.5t2 -4.5zM244 -12q5 -5 7 2q-2 3 -4.5 2.5t-2.5 -4.5zM146 -24q7 -2 15 -2.5t11 6.5q-19 2 -26 -4zM23 -20q7 -4 11.5 -2.5t9.5 -3.5q2 5 -1.5 4.5t-0.5 4.5q3 0 3 -2.5t4 -0.5q0 2 4 2
q-3 8 -9 6.5t-14 0.5q2 -5 -0.5 -4.5t-6.5 -4.5zM233 -36q-31 -6 -29 -17q5 -1 9 1.5t8 4.5q5 2 10 1t9 -1q6 0 12 2.5t11 6.5q-5 2 -13 2.5t-17 -0.5zM65 -29q2 5 -2 6t-4 -1q2 -1 3 -2.5t3 -2.5zM203 -53q0 3 -5 3v-3h5z" />
    <glyph glyph-name="T" unicode="T" horiz-adv-x="618" 
d="M358 204q2 13 3.5 29t6.5 29q2 -5 1.5 -11.5t-2 -13.5t-3 -13l-2.5 -10q-2 -17 -3 -31t-6 -29q-5 8 0 23.5t5 26.5zM631 583q23 -8 47 -17.5t47 -20.5q0 -7 -15 -8.5t-34.5 -0.5t-37 3.5t-21.5 2.5q-27 -2 -51 -9t-51 -12q-11 -3 -21.5 -7t-21.5 -4q-14 -3 -28 -3t-28 -4
h-3q-6 -11 -7 -18q-6 -14 -9 -26.5t-5 -26.5q4 1 5.5 6t3.5 6q3 1 4.5 -1.5t1.5 -7t-1 -9t-2 -5.5q0 -5 -1.5 -15t-4 -19.5t-6 -17.5t-9.5 -10q-1 -18 -5.5 -32t-9.5 -31q-5 -20 -7.5 -39.5t-6.5 -39.5t-6.5 -39.5t-4.5 -38.5q-2 -20 -8 -37.5t-10 -34.5q-4 2 -2 7t0 8
q-9 -11 -8 -27.5t-1 -28.5q5 4 5 12.5t4 11.5q2 -1 2 2.5t1 3.5q1 1 1 -3.5t-1 -10.5t-2 -11.5t-1 -8.5q-1 -11 -5.5 -21.5t-6.5 -18.5q-3 -11 -4.5 -22.5t-5.5 -20.5q-2 -12 -7.5 -21.5t-7.5 -18.5q-2 -11 -4.5 -12t-7.5 -8q-5 -3 -9 -6t-9 1q-9 4 -16 20.5t-10 27.5
q-2 9 -0.5 16.5t-1.5 14.5q-3 8 -1 16t-1 13q-3 6 -4 16t-2 18q-2 9 0 18.5t0 20.5q-2 4 -1.5 19.5t2 33.5t3 34t3.5 22q4 13 6.5 22.5t2.5 23.5q-1 22 1.5 45t7.5 46l2 45q1 7 3 22.5t4.5 33t5.5 32.5t5 21q4 10 6 16t-2 9q-9 -3 -18.5 -5.5t-18.5 -7.5h-3q-18 1 -35 -1
t-34 -2q-24 0 -48 9q-33 10 -57 35t-43 54l-12 30q-5 6 -6.5 14t5.5 13q5 7 12 7t11 -8q9 -12 25 -12q19 2 37.5 5t37.5 6q20 2 40.5 1.5t41.5 3.5q9 2 18.5 -2t18.5 -6q11 0 20.5 1t20.5 1q9 -3 16 1l19 -1q1 8 2.5 10t4.5 10q3 6 4 13.5t3 13.5t5.5 8.5t11.5 -1.5
q10 -4 21 -4.5t19 -11.5q16 -4 21 -8.5t4 -21.5q5 -2 15.5 -5t16.5 -2q26 -1 46 -6.5t45 -6.5q26 -3 48.5 -7.5t46.5 -13.5z" />
    <glyph glyph-name="U" unicode="U" horiz-adv-x="734" 
d="M596 647q9 -5 13.5 0.5t9.5 7.5q5 0 9.5 -1.5t9.5 -1.5q3 -2 8.5 -2.5t7.5 -0.5q5 -2 8 -4l6 -4q9 -2 19.5 -4.5t19.5 -6.5q0 -14 -7 -23t-14 -17q-6 -12 -11 -26.5t-11 -28.5q-4 -7 -7 -13.5t-5 -15.5q-3 -6 -5 -10.5t-6 -10.5q-2 -5 -4.5 -12.5t-4.5 -12.5
q-5 -14 -11 -29t-9 -29q-5 -10 -9 -19t-7 -19q-3 -12 -6 -20.5t-8 -19.5q-6 -19 -10.5 -40t-9.5 -42q-2 -17 -6 -32t-9 -31q0 -8 -3 -12t-3 -9q-2 -8 -2 -16v-14q-3 -15 -4.5 -28.5t-4.5 -29.5v-15q-2 -4 -4 -6.5t-2 -4.5v-21q0 -17 2 -35l4 -36q3 -12 3.5 -22.5t1.5 -21.5
q5 -11 9 -19.5t7 -15.5q2 0 3 -3.5t3 -8.5q2 0 5 -2t3 -4q0 1 -2 -1.5t-4 -6t-4.5 -6.5t-3.5 -3q-2 -1 -8.5 0t-14.5 2.5t-15 3.5t-9 4q-13 5 -25.5 14.5t-21.5 19.5q-33 36 -50 93t-17 123q0 24 2.5 48.5t7.5 47.5q-7 -3 -11 -13q-6 -3 -6 -8q-2 -3 -4 -5t-2 -4
q-11 -5 -15 -14q-5 -2 -6 -7t-6 -7q-24 -30 -52 -58q-11 -15 -24.5 -30.5t-27.5 -27.5q-5 -9 -13.5 -15t-15.5 -13q-18 -19 -37 -30q-6 -5 -23 -12t-32 -3q-7 3 -10.5 7.5t-8.5 9.5q-2 3 -6 3.5t-6 2.5q-32 18 -42 57t-10 87q0 17 0.5 32.5t1.5 32.5q2 48 6.5 93.5
t14.5 87.5q6 42 19.5 80.5t25.5 75.5q5 17 14.5 35t14.5 37q3 8 7 18t8 18q3 8 8 17t7 19q7 5 14.5 -2t16.5 -11q3 -2 6.5 -2.5t5.5 -0.5q11 -5 21.5 -13.5t12.5 -19.5q0 -11 -4.5 -20t-9.5 -22q0 -2 -0.5 -6t-2.5 -6q-6 -14 -11 -32t-12 -34q-2 -5 -4 -10.5t-4 -10.5
q-3 -3 -5.5 -8t-4.5 -10q0 -5 1 -8t-1 -6q0 -4 -2 -6.5t-2 -7.5q-3 -8 -5 -15.5t-4 -12.5t-6 -9.5t-6 -9.5q-5 -9 -7.5 -17.5t-4.5 -16.5q-2 -2 -2.5 -4t-3.5 -4q-5 -13 -7 -30.5t-6 -34.5q0 -8 -1 -16.5t-1 -18.5q-4 -16 -6.5 -31t-4.5 -29q0 -16 -1.5 -31.5t-1.5 -29.5
q-2 -9 -2 -17.5v-17.5v-18t2 -17q2 -11 8.5 -24.5t8.5 -15.5q4 -1 11 2.5t13.5 8t12.5 9.5t8 7q28 25 54 49t50 53q44 54 82 108.5t73 116.5q5 5 8.5 10t8.5 11q10 23 20.5 46t24.5 42q5 14 12 24t13 21q8 11 12.5 23t10.5 22q14 22 28 43t21 47z" />
    <glyph glyph-name="V" unicode="V" horiz-adv-x="610" 
d="M251 -108q-2 0 -2.5 2t-2.5 3q-3 1 -3.5 -3t-2.5 -6q-5 0 -5 3.5t-5 5.5q-5 -5 -14.5 -8t-16.5 3q-5 -1 -11.5 -2.5t-17.5 0.5q-1 0 -5.5 1.5t-10 3.5t-10.5 4t-5 3q-5 2 -5.5 7t-1.5 13q-2 6 -5 12t-3 11q1 1 1 2v5q-1 0 -1 1v2v2q0 2 1.5 2.5t-0.5 3.5q0 10 -4 21.5
t-7 20.5q-5 11 -10 21.5t-10 19.5q1 5 3.5 0.5t4.5 -2.5q-1 10 -2.5 19t-3 17.5t-2.5 18t0 20.5q0 5 -1.5 3t-3.5 0q1 11 1 19v19v12t-2 12q-2 1 -5 1t-3 2q0 8 2.5 16.5t1.5 16.5q0 1 -1 2.5t0 5.5q0 3 1 4.5t1 3.5q1 8 0.5 22.5t-3.5 19.5q2 4 -0.5 7.5t0.5 6.5q0 2 -4 2
q3 12 4 23t1 23q0 16 -0.5 33t1.5 36q-5 3 -6.5 -1.5t-5.5 -0.5q0 5 1.5 14t3 19.5t1.5 21t-2 19.5q-2 5 -3 9t-1 12q-2 17 -4.5 40t-9.5 40q-4 9 -9.5 14.5t-8.5 14.5q5 0 9 0.5t9 4.5q1 0 1 1.5t1 1.5q9 1 18 -0.5t17 -7.5q5 0 5.5 2t2.5 4q7 -3 12.5 -7.5t10.5 -8.5
q15 -14 22.5 -34t15.5 -47q5 -17 10.5 -34t5.5 -31q0 -1 -1.5 -3t0.5 -4q0 -4 2 -7.5t4 -8.5v-3.5t1 -7.5t4 -7.5t3 -6.5q1 -11 -2 -25.5t0 -25.5q5 0 4 4.5t4 4.5q-1 -10 5 -5q-3 -15 -1 -30t1 -28q-1 -2 -3.5 -6.5t-2.5 -9.5q-3 -9 -2.5 -18t-4.5 -17q5 -1 4.5 3t3.5 4
q-2 -13 0.5 -24t3.5 -24q-1 -12 -4.5 -23.5t-0.5 -23.5q4 12 7 20.5t4 20.5q5 -6 2 -12.5t-1 -13.5q1 -3 3 -4.5t2 -6.5v-31t-1 -33q-8 8 -4 18t1 21q-5 -8 -6.5 -17t-1.5 -19q0 -17 3.5 -34.5t5.5 -31.5q8 1 12 7.5t6 11.5q15 29 30.5 61t31.5 64q7 11 13.5 23.5t8.5 26.5
q7 3 11 14.5t7 20.5q11 18 22.5 37.5t19.5 41.5q3 0 1.5 -3.5t-1.5 -6.5q7 4 7.5 10.5t2.5 11.5q2 2 5 4t5 4q1 2 0.5 4t0.5 4q0 4 5 9q2 3 2 10q2 4 4.5 6t2.5 5q3 1 3 7q2 5 6 8.5t4 5.5q7 12 10 23.5t11 22.5q0 2 1.5 3t3.5 5q5 11 11.5 25t14.5 26q15 25 31 52.5
t34 52.5q1 3 3 5.5t4 4.5t2 5t2 6h3q1 1 3.5 5.5t5.5 6.5q5 11 11 20t13 20q3 6 9.5 14t10.5 15q4 4 5 7.5t3 5.5q4 8 8 11.5t6 12.5q7 -8 3.5 -17.5t-5.5 -15.5q-2 -5 -2 -9.5t-2 -11.5q-3 -5 -6.5 -8.5t-5.5 -10.5q-2 0 -2 -6q-2 -2 -3 -7t-3 -8q-2 -6 -5.5 -10.5
t-6.5 -7.5q-7 -14 -15.5 -28.5t-15.5 -28.5q4 0 7 8t8 11q2 -5 -0.5 -7t-3.5 -7q-2 -3 -3 -5.5t-3 -5.5q0 -2 -2.5 -4t-4.5 -4q-5 -7 -6 -15t-6 -15q-5 -10 -11 -19.5t-11 -21.5q-2 -3 -1.5 -6t-1.5 -7q-2 -5 -5 -7.5t-4 -5.5q-5 -11 -7.5 -20.5t-9.5 -17.5q6 3 9 8.5
t6 12.5q1 0 1 -2.5t1 -2.5q5 3 6 9t5 11q1 3 5 6t6 6q2 6 3.5 11.5t7.5 10.5q-2 -14 -9 -25t-13 -23q-5 -11 -9.5 -21t-8.5 -21q-5 -13 -11.5 -24t-11.5 -23q-2 -4 -3 -7t-3 -8t-7 -12.5t-6 -15.5q5 0 9 6.5t7 12.5q2 3 3 6.5t3 5.5q5 10 12 16q0 -9 -8 -22.5t-10 -24.5
q-2 -8 -8.5 -20.5t-8.5 -23.5q-5 -11 -10 -22.5t-12 -25.5q0 -2 -2.5 -4.5t-2.5 -4.5q-2 -5 -0.5 -9.5t-6.5 -3.5q-2 -13 -7.5 -24.5t-11.5 -23.5q-3 -5 -4.5 -14.5t-6.5 -20.5q-2 -10 -7.5 -20t-9.5 -21q-9 -20 -18 -40.5t-19 -40.5q-8 -14 -15.5 -29.5t-15.5 -30.5
q-8 -11 -16 -24t-15 -24q-3 -3 -4 -7t-3 -4q-2 -2 -5 -2.5t-4 -3.5q-2 -2 -2.5 -3.5t-2.5 -3.5q-8 -1 -9 -5zM556 596q-2 2 0 4t0 4q0 -2 -2 -4t2 -4zM550 589q0 2 2 3t0 3q-1 -2 -3 -3t1 -3zM535 557q2 6 7.5 13t3.5 14q-5 -5 -9 -13t-2 -14zM511 520q1 0 0.5 3t-2.5 0
q0 -1 1 -2q0 -1 1 -1zM479 455q5 0 5.5 4t0.5 7q0 2 3 3.5t4 4.5q2 4 4 10l4 12q2 2 3 5.5t3 6.5q0 2 1.5 5t-1.5 5q-5 -17 -14 -30.5t-13 -32.5zM491 444q2 0 2 3.5t1 6.5q-5 0 -3 -10zM457 434q-2 3 1 4.5t-1 3.5q-1 -2 -1 -4q0 -4 1 -4zM200 148q2 3 2.5 8t-2.5 5
q-4 -7 0 -13z" />
    <glyph glyph-name="W" unicode="W" horiz-adv-x="755" 
d="M709 514q5 5 6.5 12t5.5 12q0 -8 -2 -15t-10 -9zM719 628q6 -5 7 -13.5t1 -13.5q-2 -5 -3 -10.5t-3 -12.5q0 -12 -0.5 -22.5t-4.5 -20.5q-2 -5 -6.5 -9t-2.5 -12v-10q-2 -8 -3 -13t-3 -10q-2 0 -2.5 3t-2.5 3q-2 -6 -5 -13.5t3 -16.5q-2 5 -5 2.5t-5 -4.5q-2 -5 -3 -12
t-8 -13q-2 -7 -2.5 -12.5t-2.5 -10.5t-4 -9t-4 -6q-2 -11 -2.5 -21.5t-5.5 -18.5q-2 -2 -1.5 -4t-4.5 -2q5 -7 2 -11.5t-5 -10.5q-2 -4 -1.5 -9t-1.5 -9q-2 -8 -5 -13t-5 -17q0 -2 1 -2.5t-1 -2.5q0 -2 -3 -10.5t-1 -14.5q8 0 8.5 8t0.5 15q2 2 5 1t3 1q2 7 4.5 15t4.5 16
q2 5 3 11.5t5 8.5q0 -8 -1.5 -15t-3.5 -15q0 -3 -1.5 -3.5t-1.5 -2.5v-10q-5 -12 -8.5 -22.5t-3.5 -21.5l-8 -56q0 -8 -3 -17t-3 -17q0 -4 2 -6.5t2 -4.5q0 -4 -3 -10.5t-3 -12.5q-4 -20 -7.5 -37t-8.5 -31v-12q0 -2 -3 -3t-3 -3v-16v-17q0 -2 -2 -5.5t-2 -5.5q-2 -6 -3 -14
t-3 -14q-4 -13 -11.5 -25.5t-17.5 -24.5q-4 -5 -8.5 -10.5t-8.5 -5.5q-5 0 -9 2t-9 2q-9 0 -13 -2t-12 0q-7 2 -16.5 1.5t-18.5 4.5q-18 6 -30.5 26.5t-23.5 37.5q-26 44 -45.5 104t-21.5 119q-1 13 -1 25v25v23.5t-2 23.5q-6 -5 -7 -13.5t-1 -22.5q-2 -5 -1 -8.5t1 -5.5
q-2 -2 -4 -4.5t-4 -7.5q-2 -8 -3 -19t-6 -19q0 -2 -3 -5l-5 -5q0 -4 -0.5 -9.5t-2.5 -8.5q0 -5 -2.5 -8.5t-5.5 -8.5q-4 -4 -4.5 -8.5t-0.5 -6.5q-4 -8 -10.5 -18.5t-12.5 -21.5t-11 -20t-11 -19q-6 -9 -11 -19t-11 -20q-8 -11 -11 -22t-9 -20q-6 -5 -10.5 -8t-4.5 -9
q-6 0 -10 1t-8 -4q-11 5 -19.5 4.5t-17.5 1.5q-5 0 -8.5 3t-5.5 5q-7 0 -11.5 0.5t-9.5 2.5q-2 0 -6.5 2.5t-6.5 4.5q-11 9 -13.5 18t-10.5 26q-5 8 -11.5 20t-11.5 20q0 5 -0.5 9t-2.5 9q-2 8 -4 15t-5 13q-4 17 -4 31.5t2 30.5v20q5 5 8 13q0 9 -1 18t-1 20q-6 26 0 57
q0 12 1 23.5t1 22.5v11q-1 1 -1 2q-1 1 -1 4l2 3q2 11 3 23t3 23q5 18 10 34.5t7 33.5q0 2 -1 6t1 6q0 9 3.5 17.5t6.5 20.5q2 17 6 34.5t9 36.5q0 11 2.5 22.5t0.5 18.5q-2 9 -9 13t-7 11q7 1 13.5 -0.5t12 -4l11 -5t12.5 -2.5q4 -5 12 -13t12 -16q2 -5 1 -11.5t-1 -12.5
q2 -37 4.5 -80t0.5 -85q-2 -11 -2 -22.5v-22.5q-2 -4 -2.5 -8t-0.5 -8q-4 -11 -0.5 -19.5t3.5 -16.5q-2 -10 -6 -17.5t-2 -15.5q6 0 7 4t3 -2q-4 -9 -3 -27.5t1 -32.5q0 -4 -1.5 -6t-1.5 -6q0 -2 1 -3l2 -2q0 -5 -1.5 -7t-1.5 -7q-5 -17 -5 -34q0 -13 2.5 -26t5.5 -23
q3 2 5.5 7.5t4.5 9.5q7 13 15.5 29.5t16.5 30.5q2 5 5 9.5t5 10.5q6 4 7.5 10t4.5 11q16 29 33 57t35 57q3 11 9.5 19.5t14.5 17.5q10 14 17.5 25t20.5 19q2 0 1 3.5t1 3.5q7 5 19 7t28 -1h21q11 -5 19.5 -17t12.5 -26q3 -6 4.5 -17.5t1.5 -19.5q2 -11 2 -20v-14q0 -3 -1 -6
t-1 -9q0 -2 1 -4t1 -5q3 -11 1.5 -22.5t-1.5 -21.5q0 -36 2 -73.5t6.5 -72.5t13 -66t20.5 -54q7 14 11.5 27.5t8.5 27.5q7 26 13.5 55.5t14.5 58.5q3 8 4 14t5 12q0 8 4 13.5t8 10.5q0 4 -1.5 5.5t-1.5 6.5q8 8 10 18t6 19q0 4 4 6.5t7 4.5q2 5 2 21q2 3 5.5 8.5t3.5 7.5v16
q0 2 2 4t2 4q3 4 2 8t2 6q0 5 3 9t3 7q2 5 2.5 10.5t4.5 10.5q2 5 3.5 9t3.5 9q3 5 6 13t5 13q5 10 6 22t6 23q2 3 5.5 5t5.5 4v11l1 1q1 0 2 0.5t3 0.5v10t2 10q0 2 3 3.5t7 6.5q3 4 4 9.5t4 10.5q4 9 7 13t5 12q5 15 13 28.5t8 30.5zM612 246q2 9 6.5 17.5t0.5 16.5
q0 -3 -2.5 -7t-5 -8.5t-3 -9.5t3.5 -9zM624 234q0 5 -1 7t1 5q5 0 5 -6t-5 -6zM646 377q2 5 5 6t1 6q-9 -3 -9.5 -12.5t-2.5 -14.5q7 -2 6.5 4t-0.5 11zM655 389q0 2 1 4t-1 2q-1 -2 -1 -3q0 -3 1 -3z" />
    <glyph glyph-name="X" unicode="X" horiz-adv-x="557" 
d="M-59 -167q5 -2 2.5 -5.5t-3.5 -5.5q-2 2 -0.5 5.5t1.5 5.5zM433 397q-4 1 -1.5 2.5t0.5 3.5q-8 -1 -8 -4.5t-3 -7.5q-1 -2 -3.5 -2t-4.5 -1l-6 -8t-5 -7q-6 -7 -12.5 -14t-13.5 -15l-12 -12q-6 -7 -10 -14t-10 -12q-2 -3 -4 -4l-4 -2q0 -4 -4 -10q-2 -2 -5.5 -5t-6.5 -7
q-1 -1 -7 -6q-4 -5 -7 -9.5t-8 -10.5q-10 -10 -10 -13q-1 -5 2.5 -13.5t5.5 -16.5q3 -8 5 -16t5 -15q1 -2 2.5 -3.5t1.5 -5.5q2 -2 2 -4.5t1 -4.5q4 -11 8 -20.5t8 -20.5q2 -5 3.5 -11.5t3.5 -11.5l6 -10l6 -10l4.5 -9t2.5 -8q4 -7 6 -8t6 -7q1 -1 1 -2.5t2 -3.5t2.5 -2
t1.5 -2q-2 -5 -1 -8l3 -9q2 -4 4.5 -8t4.5 -9q5 -10 10 -21.5t13 -21.5q-3 -7 1.5 -16t6.5 -19q1 -5 1 -11.5t-2.5 -11t-7.5 -6.5t-13 3q-9 5 -17.5 11.5t-17.5 14.5q-16 15 -31 30.5t-29 30.5l-6.5 6.5t-2.5 6.5q8 -1 10 -6t6 -9q4 -5 9.5 -9t8.5 -9q2 2 -1.5 7t-5.5 8
q-17 18 -34 39t-32 41q-1 -9 3.5 -15t7.5 -14q-11 11 -19.5 24t-16.5 27q-5 8 -7.5 13t-4.5 11q1 2 2 2t1 1q0 5 -2 7.5t-4 4.5q-4 -2 -1.5 -4.5t2.5 -4.5q-2 0 -3 1.5t-4 1.5q-7 -5 -15 -12t-15 -15q-2 -2 -4 -5t-4 -5q0 -2 -1.5 -0.5t-2.5 1.5q-4 -3 -5.5 -7t-5.5 -4
q-3 -1 -1.5 2.5t-0.5 3.5q-4 1 -5 -2t-3 -5q-2 -1 -4.5 -0.5t-4.5 -2.5l-5 -5t-6 -7q-2 -2 -3.5 -6t-5.5 -7q-1 -2 -4 -3.5t-5 -3.5q-2 -4 -4.5 -6t-4.5 -4q4 8 6.5 16t5.5 16q-8 -5 -15 -10t-9 -16q-4 0 -5.5 -2t-3.5 -5q4 -5 5.5 -1.5t3.5 1.5q-1 -2 -5 -6t-5 1
q0 -3 -3 -5.5t-6 -5.5t-5 -6.5t0 -8.5q-2 -1 -5 -3t-6 -2q4 -8 -2.5 -14t-11.5 -13q-3 -8 -6.5 -13.5t-5.5 -12.5q-2 -1 -2 -3.5t-2 -3.5q-1 -2 -2.5 -2t-2.5 -1q-5 -5 -6.5 -12.5t-6.5 -9.5q-2 -11 -7 -20l-10 -18q-3 -10 -12 -17q-1 -2 -1.5 -4.5t-1.5 -4.5q-8 -4 -9 -6
q-5 -3 -6.5 -8.5t-6.5 -10.5q-2 3 -1 6.5t1 6.5q4 13 9.5 25t10.5 23q2 5 3 9t2 9q5 9 11 22t11 24q8 17 15 33t12 33q3 -1 6 -1q26 54 57 101.5t63 95.5q-5 7 0.5 12t5.5 13q0 2 -2 9.5t-5 14.5q-16 42 -31.5 84.5t-29.5 85.5q-14 44 -29.5 85.5t-30.5 83.5q-2 7 -5 15.5
t-3 10.5q2 5 9 2.5t12 -4.5q8 -2 16 -2t15 -2q6 -2 12.5 -5t14.5 -5q7 -5 14 -8.5t15 -8.5q6 -2 10 -5t9 -7q4 -4 8.5 -7t8.5 -8q7 -5 10.5 -9.5t8.5 -11.5q6 -8 10 -16t9 -16q6 -12 13 -24.5t13 -26.5q3 -9 6.5 -17t5.5 -19q4 -8 6 -13t4 -14q0 -4 2 -8t2 -8q2 -5 4.5 -11
t4.5 -15q14 16 26.5 34.5t26.5 33.5q4 4 5 7t3 5q7 8 13 15t13 16q1 3 3 5t4 6q1 2 4 3t5 4q2 2 2 4t2 4l2 2q1 1 1.5 1t1.5 1q5 5 9.5 10.5t10.5 9.5q0 2 -0.5 3t-0.5 4q8 5 12.5 12.5t12.5 14.5q17 20 36 40t37 40q5 2 8 6q2 1 2 3.5t1 3.5q5 5 10.5 7t10.5 6q3 6 7 10
q6 6 12.5 13.5t12.5 13.5q12 12 26 23q8 5 15.5 11.5t12.5 4.5q8 -2 16.5 -11.5t13.5 -14.5q9 -11 17 -19.5t11 -19.5v-10t-2 -11q-1 -2 -4 -3t-5 -5q-3 -2 -3.5 -4.5t-1.5 -3.5q-5 -5 -9.5 -8.5t-9.5 -8.5q-5 -3 -8 -6.5t-8 -5.5q-2 -4 -5.5 -8.5t-7.5 -8.5
q-5 -4 -9.5 -6.5t-8.5 -7.5q-4 -4 -5 -8q-5 -3 -9 -9.5t-9 -11.5q-20 -20 -40 -41t-40 -43q-5 -5 -8 -9.5t-8 -8.5q-2 -2 -5.5 -3t-5.5 -4q-6 -5 -9 -11t-10 -10zM224 94q3 2 1 3t-3 3q0 -6 2 -6zM164 79l5.5 5.5t-1.5 4.5q0 -4 -3 -5.5t-1 -4.5zM347 -61q4 -4 7.5 -8
t9.5 -4q-9 5 -15 14.5t-17 11.5q4 -5 7.5 -7.5t7.5 -6.5z" />
    <glyph glyph-name="Y" unicode="Y" horiz-adv-x="603" 
d="M482 714q3 2 5 0t5 -1q5 -1 2.5 -3.5t-0.5 -3.5q5 1 8 0.5t7 0.5q2 2 2.5 3.5t6.5 -1.5q6 0 6 -9h14q11 0 21 -5.5t19 -10.5q8 -5 15.5 -7t10.5 -5q2 -2 5 -8.5t3 -10.5q-1 -7 -6 -18.5t-7 -17.5q-2 -4 -3.5 -5.5t-3.5 -5.5q-5 -5 -7 -12.5t-5 -12.5q-2 -5 -5.5 -11
t-8.5 -13q-5 -10 -9 -21t-9 -22q-12 -22 -22 -44t-23 -45q-5 -10 -10 -21.5t-12 -20.5q-1 -2 -4 -3.5t-3 -2.5q-1 -2 -1.5 -4.5t-2.5 -6.5q-2 -3 -5 -7t-4 -6q-2 -3 -3.5 -4.5t-2.5 -5.5q-8 -9 -14.5 -25t-12.5 -30q-5 -8 -10 -15.5t-6 -18.5q-4 -7 -5 -12t-6 -12
q-1 -5 -4 -9t-6 -9q-3 -2 -3 -9q-6 -9 -9.5 -16.5t-5.5 -14.5q-2 -11 -6 -18t-7 -15q-5 -11 -9 -21.5t-9 -20.5q-2 -8 -5.5 -15l-7.5 -15q-11 -15 -18.5 -34t-15.5 -37q0 -2 1.5 -4t-1.5 -3q-8 -2 -7 3t1 10q0 2 -1 4t-1 4q0 3 1 6.5t2 8.5v6.5t2 5.5q2 5 4 7.5t4 7.5
q2 2 1 6t1 7q2 5 4 8.5t0 8.5q-3 0 -3 -3q0 -2 1 -3q-5 -6 -6 -7t-6 -9q0 -3 -1 -10.5t-3 -12.5q0 -5 -3.5 -7.5t-6.5 -7.5q0 -4 1 -7.5t-1 -7.5q0 -4 -2 -5.5t-4 -5.5q0 -1 1 -2.5t-1 -4.5q0 -2 -1 -2.5t-1 -2.5q-2 -5 -2 -15.5t-2 -24.5q0 -4 -2 -12.5t-1 -17.5
q0 -13 4 -32t-3 -32q0 -1 -1 -3q-2 -4 -3 -5h-3q-2 -5 -1.5 -8.5t-1.5 -6.5q-5 1 -6 -1.5t-3 -5.5q-8 2 -12 8t-6 11q-5 0 -5 -5q-3 2 -2 5t1 4q-1 4 -3.5 2t-5.5 -2q4 9 -2 15.5t-8 13.5q0 2 -1.5 5.5t-1.5 7.5q-2 6 -2 12q-1 2 -0.5 5.5t0.5 7.5q-1 3 -3 5.5t-4 7.5
q-2 10 -2.5 17.5t-5.5 15.5q6 4 6 12v21q0 2 4 6q2 3 -1 0.5t-3 -0.5q2 11 2 22v23v7q0 1 -2.5 4t-2.5 5q0 4 1 8t2 9q0 7 -1 15.5t1 17.5q0 1 2 4t3 5q0 2 0.5 6t2.5 7l4 12t2 11q0 2 -1 4.5t1 4.5q2 9 7 17.5t5 20.5q-11 0 -21 -2.5t-23 0.5q-10 3 -19 9t-17 13
q-7 8 -15.5 16t-10.5 16q-2 2 -2.5 6t-2.5 9q-4 9 -10 18.5t-10 18.5q-3 9 -4.5 16.5t-10.5 12.5q2 16 -2.5 27t-3.5 27q4 -2 2.5 -8.5t3.5 -6.5q3 20 -2 34q0 2 -2 4.5t-2 5.5q-2 9 0 16t-1 15q0 5 -2.5 3t-0.5 1q0 30 3 69q2 26 7.5 52t7.5 49q0 5 -1.5 9t2.5 7
q9 -1 15 -6.5t15 -10.5q8 -6 12 -10t9 -15q5 -12 7.5 -28t6.5 -30q2 -39 8 -79q2 -23 2.5 -43.5t4.5 -39.5q8 -28 14 -53t19 -46q2 -7 7.5 -14.5t7.5 -8.5q4 -2 9 1.5t10 8.5t9.5 10.5t7.5 8.5q9 7 14.5 12t10.5 14q3 6 5 10.5t5 9.5q8 17 15.5 33.5t15.5 31.5
q25 48 48.5 92.5t47.5 88.5q10 16 18 30t17 30q2 3 3.5 6.5t3.5 8.5q5 7 9 17t7 21q-2 4 -3.5 0t-0.5 3q1 5 4 1t8 -4q5 -1 11 2t8 8q0 6 -3 10t-3 9z" />
    <glyph glyph-name="Z" unicode="Z" horiz-adv-x="600" 
d="M360 685q4 5 9 4.5t7 -0.5q4 0 2.5 -0.5t-3.5 -1t-3.5 -0.5t1.5 1q-4 -2 -7 -1.5t-6 -1.5zM358 689q-30 -5 -61 -7.5t-65 -3.5q30 6 62 7t64 4zM342 680q0 -3 -7 -3q1 2 3 2t4 1zM400 676q-2 3 3 3q0 -3 -3 -3zM118 142q1 -3 -1 -4t-1 -4q-5 2 -3.5 5.5t5.5 2.5zM113 133
q-2 -2 -2 -5t-4 -3q-1 8 6 8zM218 137q-5 -3 -7 -7.5t-6 -9.5q-9 -14 -20.5 -31t-21.5 -31q-1 -2 -3 -4t-3 -4t-0.5 -4.5t-0.5 -4.5t-6 -6.5t-6 -8.5q-2 3 1.5 7.5t3.5 7.5q-4 2 -4.5 -0.5t-1.5 -4.5q-5 -3 -6 -6q-5 -6 -6.5 -14t-6.5 -14q0 8 3 14t4 14q-4 0 -5.5 -4.5
t-3.5 -8.5q-3 -5 -6 -14.5t-3 -14.5q14 -1 31 2.5t32 4.5q-10 -5 -26 -6t-26 -8q8 -4 18 -1t18 3q12 1 24 1t24 2q12 1 24.5 1h24.5q24 0 47.5 -0.5t48.5 -0.5q-5 6 -13.5 8t-17.5 4q11 0 23 -2.5t23 -7.5q4 -1 6 -3t8 -3q10 -4 19 -4.5t15 -9.5q0 -3 -2 -4t-4 -4
q2 -5 5.5 -6t3.5 -6q1 -3 -4 -2.5t-5 -3.5q4 -5 8.5 -7t8.5 -7q-5 -2 -2 -7t3 -9q-6 2 -11.5 -1t-9.5 -5q-8 -3 -17 -5.5t-23 -3.5q-10 -1 -20.5 -1t-21.5 -2q-20 -2 -40 -2t-38 -2q-6 -2 -11 -3.5t-12 -1.5q-29 -2 -57.5 0t-59.5 6q-4 -1 -4.5 -3.5t-4.5 -3.5
q-7 0 -10.5 6.5t-9.5 9.5q-3 2 -7 2t-6 1q-8 2 -15.5 8t-14.5 12l-22.5 15t-17.5 18q7 2 8.5 5t10.5 1q2 2 2 4t2 4q2 1 4 3q2 1 3.5 2t3.5 1q2 1 4.5 0.5t4.5 -0.5q7 5 10 13.5t10 17.5q5 8 11 15.5t9 14.5q3 9 3 17.5t9 11.5q-1 6 3 10.5t8 9.5q2 4 2.5 8.5t2.5 8.5t5.5 7
t6.5 6q6 11 13 24t12 24q1 2 1 3t-1 0q1 2 3 1.5t3 0.5q1 0 0.5 3t0.5 4q2 3 5 6t5 8h-8q-2 -2 -0.5 -2.5t-0.5 -2.5q-2 -3 -4.5 -4.5t-1.5 -6.5q-8 1 -8 -6t-6 -8q0 -4 1 -6t-1 -4q-2 3 -3 2t-1.5 -2.5t-2.5 -3t-5 -1.5q1 2 2 5.5t5 0.5q1 8 6 15.5t10 15.5q6 8 10 14.5
t10 7.5q-4 2 -1 4.5t7 2.5q-3 -10 -12 -17q2 -2 3 1t3 5h6q5 3 6 9t6 8q-1 1 -4 1.5t-4 -3.5q-5 2 -1.5 6t5.5 7t4.5 6.5t6.5 1.5q-2 -3 -4.5 -5t-4.5 -7q5 -2 7 2.5t5 7.5q2 0 0 -2.5t-2 -3.5q7 1 11 11l-7.5 1.5t-5.5 -1.5q-2 1 0 3q-16 2 -27.5 8t-22 13t-20 15t-21.5 14
q27 7 58.5 16t63.5 9q9 0 16 1t13 8q-1 4 -2.5 3.5t-2.5 1.5q7 14 17 24.5t16 26.5q-9 -7 -14.5 -15t-12.5 -15q35 53 74 108t74 114q-5 2 -9 -0.5t-9 -4.5q-8 -1 -16.5 -1t-16.5 -2q-23 -5 -54 -8t-60 -8q-10 -2 -19 -5t-18 -4q-8 -1 -15 1t-15 0q-8 -1 -15 -2t-15 -1
q-2 0 -4 0.5t-4 0.5q-5 -1 -8.5 -2.5t-8.5 -1.5q-12 2 -21 9.5t-23 5.5q0 5 1 8q-5 1 -9.5 4.5t-7.5 -1.5q-2 3 -5.5 2.5t-6.5 0.5q-8 4 -14 9l-12 10q-11 9 -19 17.5t-19 17.5q18 2 36 8.5t36 14.5q12 5 24 7t24 6q33 8 67.5 14t70.5 10q-2 -4 -6 -3.5t-7 -1.5
q-2 -1 -5.5 -1.5t-6.5 -2.5q-11 -3 -20 -6.5t-18 -5.5q6 -3 13 -1t12 3q8 2 14 1t12 1q4 0 7 2t5 3q2 0 4 -0.5t4 -0.5q2 -1 3.5 0t4.5 1q5 1 10 0.5t12 -0.5q3 1 6.5 2.5t7.5 2.5q6 1 15 -1t14 1q2 1 2.5 2.5t2.5 1.5q5 2 7.5 1t7.5 0q-1 -3 -5 -3q8 -3 14 0.5t14 4.5
q3 0 2.5 -1t-0.5 -2q4 -2 7.5 -1t7.5 1q11 1 22 -0.5t21 -1.5q3 5 -0.5 4.5t-3.5 1.5q-1 3 1.5 4.5t-4.5 3.5q14 2 25 -2t22 -2q3 1 8.5 6t10.5 2l1 -1v-1q2 0 2 1.5t2 -0.5q2 0 1.5 -0.5t1.5 -1.5q3 -1 5.5 -0.5t5.5 -0.5q5 -2 10 -6t10 -6q7 -5 13 -7.5t13 -7.5
q-2 -2 -0.5 -4t1.5 -4q5 1 7.5 -2t7.5 -5q4 -3 9 -4.5t6 -5.5q-1 3 0 -3t1 -4q0 -4 -2.5 -6t1.5 -7h-6q-2 -5 -1.5 -8t-2.5 -8q-2 -3 -5.5 -4.5t-6.5 -3.5l-7 -14q-1 -3 -2.5 -6.5t-3.5 -6.5q-1 -1 -2.5 -1t-2.5 -1q-9 -13 -15 -29q-11 -18 -21 -36t-21 -34q-2 -2 -2.5 -3.5
t-2.5 -3.5q-3 -5 -7.5 -10.5t-8.5 -10.5l-4 -10t-4 -8q-2 -2 -4 -3t-3 -3l-6 -12t-6 -11q-5 -8 -9 -15.5t-9 -12.5q-2 -2 -4.5 -2.5t-4.5 -3.5q-1 -2 -2 -5t-3 -6q-5 -5 -8.5 -13.5t-11.5 -14.5q7 -2 21 -5.5t26 -9t17 -13.5t-5 -19v-11q-17 -15 -47 -22t-56 -10
q-8 -2 -15.5 -1t-12.5 -3q-1 0 -4 -4.5t-7 -9.5q-2 -5 -6 -9t-6 -7q-17 -23 -34 -41.5t-31 -43.5q-3 -5 -5.5 -7.5l-7.5 -7.5q-2 -2 -2.5 -4.5t-2.5 -4.5l-7.5 -6t-6.5 -7q1 1 -0.5 -2t-3.5 -1q13 18 22 35.5t20 34.5zM163 194q4 4 -1 5q0 -2 -0.5 -2.5t-0.5 -2.5h2z
M247 336q2 0 2.5 -0.5t2.5 -0.5q1 1 2 3t-2 3q1 -4 -1.5 -3t0.5 3q-3 0 -4 -3v-2zM422 673q2 -2 8 -1.5t4 5.5q-2 -1 -7 0t-5 -4zM438 672q5 0 5 2q-4 0 -5 -2zM248 218q5 -1 5.5 2.5t2.5 5.5q-4 0 -5 -2.5t-3 -5.5zM178 89q-2 5 2.5 7.5t0.5 5.5q0 -4 -4.5 -6.5t1.5 -6.5z
M157 83q5 0 9 7q-4 0 -5.5 -2.5t-3.5 -4.5zM150 49q8 8 12 18t12 18q-1 1 -0.5 2t-1.5 1q-7 -8 -12.5 -17.5t-9.5 -21.5zM83 50q1 4 0 5q0 -2 -1 -2.5t1 -2.5zM200 665q2 4 8.5 2.5t8.5 0.5q-3 -3 -17 -3zM103 122q5 -2 3 -4.5t-4 -4.5q0 -2 -2.5 -6.5t-4.5 -10t-4.5 -10.5
t-2.5 -7q0 -1 1 -1h1q-1 -4 -3 -7.5t-2 -5.5q1 14 7 28.5t11 28.5z" />
    <glyph glyph-name="bracketleft" unicode="[" horiz-adv-x="415" 
d="M349 576q-5 -3 -5 2q2 2 4.5 1.5t0.5 -3.5zM126 247q1 0 1 -3q0 -1 -1 -2q-3 0 -2 2.5t2 2.5zM151 384q4 1 6 4.5t4 8.5q-5 -23 -11.5 -46t-10.5 -45q-4 -19 -12.5 -38.5t-10.5 -38.5q2 2 2.5 3.5t2.5 1.5q3 -3 0 -9t-5 -14q-2 4 1 6.5t2 9.5q-5 -3 -8.5 -17l-4.5 -18
q-2 -11 -2.5 -20t-2.5 -20q-5 -9 -5.5 -19t-1.5 -18q-2 -5 -1.5 -12.5t1 -15.5t-0.5 -15.5t-4 -11.5q-5 -5 -3 -15t-3 -19q-5 -10 -2.5 -20.5t1.5 -21.5q44 15 89.5 28t102.5 13q24 0 51 -3q1 -4 2 -7.5t-1 -8.5q-2 -8 -7.5 -7.5t-8.5 -5.5q-4 -5 -8.5 -4.5t-8.5 -2.5
q-5 -2 -10 -6t-13 -6q-11 -4 -21.5 -12t-21.5 -14q-11 -5 -26.5 -10t-30.5 -10q-20 -8 -42 -13.5t-45 -5.5q-6 1 -17.5 5.5t-22 11.5t-16.5 15t-1 16q-5 4 -9 8.5t-3 10.5q5 3 11.5 2t11.5 -1q-3 4 -6 4q0 2 4 2.5t1 2.5q2 2 4.5 0t7.5 0q-8 29 -10 59t-2 59q0 54 7 107.5
t15 106.5q7 44 13.5 86t17.5 84q5 21 10.5 40.5t10.5 40.5q10 18 11 39q0 3 -2.5 7t-4.5 8.5t-3 9t1 8.5q8 -1 14 -2.5t10 -6.5l9.5 -9.5t9.5 -3.5q6 0 12.5 2t11.5 4q6 3 13.5 2t13.5 -2q32 0 67 -3.5t63 -23.5q-4 -11 5 -11q-5 -9 2 -13q0 -2 -2 -2.5t-4 -2.5
q-4 -45 -53 -52q-4 0 -10.5 -1.5t-13.5 -3t-13.5 -1.5t-10.5 3q-3 3 -9.5 3t-14 -1.5t-14.5 -3t-11 -0.5q-9 -29 -17 -64t-19 -64z" />
    <glyph glyph-name="backslash" unicode="\" horiz-adv-x="342" 
d="M216 11q0 2 -0.5 5t1.5 3q-2 -1 0 -3.5t-1 -4.5zM149 323q14 -45 27 -90t21 -93q2 -7 2.5 -16.5t1.5 -18.5t2.5 -17.5t6.5 -13.5q2 0 2 -9.5t2 -10.5q-2 -3 -2 -8v-8q2 0 0.5 3t3.5 1q-2 -7 0 -14q-5 -2 -2.5 -10.5t2.5 -13.5q1 2 0 5t4 1q1 -14 1 -27v-27v-20.5
t-1 -19.5v-47q0 -5 4 -12t3 -11q-6 -1 -15.5 1t-19 5.5t-18 8t-12.5 9.5q-6 5 -8.5 11.5t-3 13.5t-0.5 13.5t-2 11.5q-4 6 -5 13t-1 14.5v14t-3 12.5q-2 3 -3 9.5l-2 13t-3 11.5t-6 5q2 7 1 7.5t-2 4.5q0 3 1 5q-1 1 -3 5t-2 7q-8 8 -5 16t-1 16q-2 -2 0.5 -4t-2.5 0
q1 1 0 5t-2.5 9t-4 8.5t-4.5 3.5q1 17 -4.5 30.5t-4.5 30.5q-2 1 -3 3t-3 4q2 9 -2.5 17t0.5 16q-1 -4 -1 -9t3 -2q-1 8 0.5 14.5t-0.5 14.5q0 7 -2.5 14t-0.5 15q2 10 -0.5 16t-0.5 15q2 11 -4 23.5t-7 23.5q-1 8 -1.5 21t-8.5 18q0 14 -4 25.5t-8 22.5q-1 7 -0.5 17.5
t-4.5 13.5q-2 3 -4 13t0 15q-2 10 -8 20t-2 18q3 -11 8 -21t10 -21q3 -11 5 -21t7 -19q-2 -3 -2 -10t1 -14t3 -11t5 -1q-4 6 1 10q-5 0 -6.5 3t-1.5 7t1 7.5t3 2.5q-7 20 -9.5 42.5t-12.5 44.5q-3 8 -7 16t-7 15q-9 24 -15.5 49.5t-11.5 52.5q3 0 3 -5t2 -3q-2 6 -4.5 13
t-4 14t-1 13.5t5.5 12.5q17 -19 29.5 -43t23.5 -46q5 -12 8 -23t10 -21q5 -9 11 -20t6 -22q3 -2 6.5 -9t1.5 -9q3 -5 3.5 -10t2.5 -10t5 -8t4 -7q4 -10 4.5 -22.5t2.5 -24.5q3 -2 3 -1t2 -1q-4 -6 0.5 -10t4.5 -10q2 -5 1 -8t1 -8q2 -4 3.5 -11.5t3.5 -15t4.5 -14t5.5 -7.5
q-1 0 -1 0.5t1 0.5zM89 226q-4 -2 -2 -6.5t1 -7.5q5 2 3 5t-2 9zM92 175q-1 -9 -0.5 -14.5t2.5 -12.5q6 5 3 15.5t-5 11.5zM53 422q4 0 1.5 5t-4.5 7q-1 -3 1.5 -5.5t1.5 -6.5zM91 181q4 5 1.5 14t-0.5 14q-3 1 -3.5 -3.5t0 -9.5t1.5 -10zM84 259q0 -2 -0.5 -7.5t-0.5 -6.5
q0 4 -1.5 8t2.5 6z" />
    <glyph glyph-name="bracketright" unicode="]" horiz-adv-x="377" 
d="M302 470q0 -1 1 -1.5t2 -2.5q0 -3 -2 -9t-3 -8q-2 -2 -4.5 -4t-0.5 -5q1 -2 2.5 -1t1.5 4q1 -4 -1 -7t-3 -6q0 -2 0.5 -2.5t0.5 -1.5h-1h-2q-2 -6 -1.5 -10t0.5 -10q-2 -9 -5.5 -19t-5.5 -20q0 -2 -0.5 -5.5t-2.5 -5.5q0 -2 -0.5 -3.5t-0.5 -4.5t0.5 -4t0.5 -3
q0 -3 -0.5 -5t-0.5 -4q-1 -8 -5 -16.5t-6 -16.5q0 -2 2 -3t2 -3q-4 -2 -4 -5v-8l-2 -2q-1 -1 -1 -2t1.5 -3t0.5 -4q-3 -3 -3 -6q-2 -3 -2 -6.5t-1 -8.5t-2 -8t-3 -6q0 -5 -1 -9t-3 -9q0 -1 -2 -1q-1 0 -2 -1q0 -2 2 -3.5t2 -4.5q-2 -3 -3.5 -6t-2.5 -7q-2 -6 -2.5 -15
t-2.5 -17q-2 -14 -4.5 -24.5t-4.5 -24.5q-1 -12 -3 -24t3 -18q-2 -3 -2 -9q0 -4 0.5 -5.5t0.5 -3.5q0 -4 -1.5 -7t-1.5 -7q0 -3 0.5 -10t0.5 -15q0 -2 -0.5 -6t-2.5 -7q4 -4 4 -10q0 -5 -2.5 -9.5t-2.5 -8.5q1 -2 2.5 -4.5t1.5 -4.5t-0.5 -3t-0.5 -3v-3q1 -5 6 -9.5t-2 -9.5
q-2 -2 -3.5 -5t-5.5 -6h-1l-2 -2l-2 -2q-4 -2 -11.5 0t-11.5 2q-5 -1 -7 -3t-5 -3q-4 1 -6.5 1.5t-6.5 -0.5q-3 0 -5 -1t-5 -1h-9q-13 0 -25 -1.5t-23 2.5q-3 0 -5 0.5t-4 1.5q-2 3 -4.5 3.5t-4.5 0.5q-1 1 -1 2.5t-2 2.5t-7.5 2t-7.5 3q-8 5 -12.5 19t-6.5 21q0 4 2 1t2 2
q-1 2 -3 2h-3.5t-3 0.5t-0.5 4.5q3 0 5.5 1.5t3.5 -3.5q4 0 5 2t4 4q5 -3 12.5 -2t15.5 4q7 1 17 4.5t9 8.5q3 3 10 3q3 2 3 7q5 0 7 2q1 3 -1.5 4t0.5 3q4 -1 10 -0.5t12 1.5t10.5 3t5.5 4q0 2 -0.5 19.5t0.5 28.5q0 51 7.5 93.5t13.5 92.5q2 18 5 36t5 37q8 56 23 104
t24 101q-7 1 -11 -3t-10 -2q-6 -5 -17 -6.5t-23 -4.5q-2 0 -5.5 -1.5t-5.5 -0.5q-2 -2 -5 -1t-6 1q-2 0 -2.5 -2t-3.5 -2q-2 -1 -3.5 0.5t-4.5 -0.5q-8 -2 -18.5 -4t-21.5 -3q-3 1 -6.5 1h-6.5q-5 0 -8.5 -1t-5.5 0q-3 0 -5 2t-6 4q-3 1 -7 7.5t-6 8.5q-2 1 -5.5 4t-5.5 5
q-3 3 -7 6t-5 5q-3 6 -5 12q-1 3 -3.5 4.5t-2.5 5.5q17 -5 32.5 -1.5t32.5 6.5q26 5 59.5 9t62.5 6q7 1 13 1t11 2q4 1 6.5 3.5t5 5.5t6 4.5t9.5 1.5q4 -1 13 -6t14 -6q11 -5 15 -8t9 -10q2 -1 2.5 -3t2.5 -4q4 -2 7.5 -2t5.5 -5q3 -6 -2 -11q-2 -3 -4 -4.5t-2 -2.5
q-1 -3 -1.5 -6.5t-2.5 -5.5q-1 -4 -2 -5t-1 -4q-5 -14 -7.5 -30.5t-7.5 -29.5z" />
    <glyph glyph-name="asciicircum" unicode="^" horiz-adv-x="550" 
d="M287 762q11 0 27 -1t30 -6q4 -2 7 -5.5t8 -3.5q11 -7 18 -8.5t14 -12.5q5 -7 11 -17t11 -22q8 -9 14.5 -19.5t8.5 -16.5q5 -12 6.5 -25.5t7.5 -22.5q4 -11 11.5 -26.5t16.5 -33.5q2 -3 8.5 -11t11 -17.5t4 -18t-11.5 -11.5q-6 -2 -13.5 2t-15.5 10.5t-14 13.5t-9 11
q-35 38 -55 78t-40 83q-2 -2 -6.5 -3.5t-6.5 -5.5q-3 -1 -4 -4t-3 -7q-3 -5 -10.5 -11.5t-13.5 -14.5q-28 -31 -60 -65.5t-61 -65.5q-7 -6 -13.5 -10.5t-13.5 -10.5q-6 -7 -11 -13.5t-12 -13.5q-12 -9 -23.5 -8t-22 8.5t-20 19t-16.5 22.5q-7 3 -8 2.5t-10 1.5q20 5 38 16.5
t35 27.5q8 10 15 21t18 19q2 2 7.5 1.5t7.5 0.5q8 8 15 17t16 18q17 17 32.5 34t35.5 33q9 7 19.5 15t13.5 15q2 5 2 11.5t1 11.5q3 6 5 7t5 7q-2 -2 -2.5 0.5t-4.5 3.5z" />
    <glyph glyph-name="underscore" unicode="_" horiz-adv-x="857" 
d="M200 -61q-2 -3 -11 -5t-11 0q2 5 9.5 4.5t12.5 0.5zM536 -66q-3 1 -10 1q2 3 5 2t8 1q-3 -3 -3 -4zM558 -125q2 0 2.5 -0.5t2.5 -0.5q0 -2 -2.5 -1.5t-2.5 2.5zM577 -128q4 3 10.5 2.5t10.5 -0.5q-4 -3 -10 -1.5t-11 -0.5zM622 -128q12 3 22 2q0 -2 -10 -3.5t-12 1.5z
M617 -128q0 2 2.5 2t2.5 -2q0 -1 -3 -1q-1 0 -2 1zM673 -130q0 2 2.5 2t3.5 2q0 -4 -6 -4zM596 -133q5 4 12 2.5t14 0.5q-7 -5 -12.5 -3.5t-13.5 0.5zM478 -142q8 3 16 3h14q-9 -2 -15.5 -1.5t-14.5 -1.5zM218 -59q0 3 5 2t7 2q-2 -4 -12 -4zM736 -79q16 -3 39 -6t39 -12
q-3 -7 -10 -12t-12 -9q-5 0 -8.5 -0.5t-8.5 -0.5q-2 -2 -10 -2.5t-10 -2.5q5 0 5 -1q-2 -4 -10 -3.5t-13 0.5q-4 0 -7 1.5t-8 1.5q-3 0 -7 -2t-9 1q2 4 6 2t7 0q-5 4 -12.5 2t-12.5 -3q-3 3 -5 1t-4 -2q2 1 3 3t6 2q-8 6 -19.5 4t-19.5 -4q0 2 1.5 2t1.5 1q-9 -1 -18 -4
t-23 -3q5 2 5 4q-4 -1 -7 -2q-2 -1 -4 -1t-1 0q3 2 -1 1.5t-9 -1t-10 0t-4 4.5q1 2 -1.5 1.5t-5.5 -1.5t-4.5 -2t0.5 0q-5 -2 -3 -1t-1 3q-5 0 -10 -2t-9 0q0 2 2.5 1t2.5 1q-2 3 -3.5 1.5t-3.5 -1.5q0 -2 1 -2.5t-1 -3.5h7q-5 -2 -14.5 -3.5t-14.5 0.5q3 2 6 1.5t6 1.5
q-2 4 -6 4.5t-8 0.5t-7.5 0.5t-3.5 4.5q-5 -2 -9.5 -3t-9.5 -3q-4 -8 -8 -5l1 1q0 1 2 3q1 2 3 3q8 0 10 6q-8 -2 -16.5 -2t-11.5 -6q-5 0 -7.5 -1.5t-6.5 -1.5q0 -2 1 -1t1 -1q4 2 8 1t8 -1q-8 -3 -15 -4.5t-9 -8.5q-14 0 -26.5 -3t-26.5 -4q-11 0 -23.5 0.5t-25.5 -0.5
q15 2 29 5.5t30 8.5q8 2 19.5 0t18.5 6q-2 1 -6 0q0 2 3 2t3 3q-7 -1 -11.5 -2t-8.5 -2t-8.5 -1.5t-12.5 -1.5q0 2 4 2q-4 5 -12.5 4.5t-18 -3.5t-18.5 -7.5l-13 -6.5q-26 -11 -55 -10.5t-56 -6.5q0 5 4 4t7 2q-13 1 -25.5 -1.5t-23.5 -4.5q-2 2 -1 2t1 2q-5 -1 -14 -1.5
t-18.5 -0.5h-16.5h-8v4q-19 -3 -42 4q-10 2 -22 1.5t-20 2.5q-2 2 -5 3t-5 1q-2 5 -4.5 8.5t-5.5 5.5q-5 8 -8.5 16t1.5 18q1 0 7 -2t7 0q2 2 2.5 4.5t2.5 4.5h13.5t15.5 1q23 4 46 9.5t49 7.5q0 -1 -2 -1h-2q4 -4 13 -4t19 2t19 4t14 2l121 3q-2 -3 -0.5 -3.5t4 0t5.5 1
l3 0.5q5 4 16.5 1.5t19.5 -2.5q9 0 19 -1.5t21 -1.5q24 -1 48 -1t49 -2q0 3 -4 3q13 0 25.5 1t25.5 -2q-2 -5 -5.5 -3t-8.5 -1q2 -2 6.5 -1t8.5 -1q2 2 1 3t1 3q17 -2 29 -3t28 -1q-5 -3 -10 -3q23 -3 46.5 -3.5t47.5 -2.5zM419 -125q1 -1 4.5 0t3.5 4q-2 -2 -4.5 -2.5
t-3.5 -1.5zM460 -126v1q-4 0 -2 -1h2zM516 -118q6 0 6 3q-2 3 -6 -3zM547 -68q4 0 10.5 -1t5.5 4q-4 -4 -8 -1t-8 -2zM560 -115q3 -2 3 1t-3 1v-2zM588 -119q1 0 2.5 0.5t2.5 0.5q-1 2 -2.5 3.5t-2.5 -0.5v-4zM622 -121q2 -2 4.5 0t4.5 0q0 5 -4.5 3.5t-4.5 -3.5zM641 -73
q-3 3 -6 0q4 1 4.5 -0.5t1.5 0.5zM354 -146q-3 -2 -5.5 -2.5t-5.5 -1.5q3 1 5.5 1.5t5.5 2.5zM508 -139q3 1 10 1q2 0 -2.5 -0.5t-7.5 -0.5z" />
    <glyph glyph-name="grave" unicode="`" horiz-adv-x="419" 
d="M88 477q8 -3 16.5 -3t18.5 -1q14 0 29 -3t31 -5q55 -15 103 -38q11 -5 26 -12.5t16 -14.5q0 -8 -8 -11t-18.5 -3t-22.5 2t-19 2q-4 -2 -5 -2q-9 1 -18.5 3t-20.5 4q-5 1 -9.5 1.5t-8.5 0.5q-5 2 -9.5 2.5t-8.5 2.5q-2 1 -4.5 2.5t-7.5 2.5q-5 2 -9 2h-6q-3 2 -5.5 4.5
t-6.5 4.5t-7 3t-5 3q-1 0 -2 1.5t-3 3.5q-1 2 -2.5 2t-2.5 1q-6 9 -8 11q-3 2 -6.5 3.5t-4.5 3.5q-1 1 -1 3.5t-1 5.5q-2 2 -4 2.5t-4 1.5q-1 4 -1 11q0 1 -1 1t0 2z" />
    <glyph glyph-name="a" unicode="a" horiz-adv-x="451" 
d="M474 161q0 -5 -2.5 -11t-6.5 -13t-8.5 -13t-6.5 -9q-6 -11 -21 -28t-29 -27q-3 -3 -6 -7.5t-6 -6.5q-5 -2 -8.5 -6t-7.5 -6l-6 -4.5t-6 -5.5q-2 -1 -5 -0.5t-5 -1.5q-1 -2 -1 -3.5t-1 -2.5q-29 -23 -57 -28.5t-45 -6.5q-36 0 -61.5 5t-42 18t-25 35.5t-9.5 56.5
q-5 5 -8.5 0t-7.5 -8q-4 -6 -11 -15t-15.5 -18t-18 -16.5t-18.5 -8.5q-13 -2 -29.5 3.5t-30.5 10.5q-14 7 -19.5 16t-13.5 23q4 5 3 14.5t6 10.5q2 6 -1 8t-2 8q15 25 28 49.5t32 42.5q14 12 26 22q11 8 20.5 14t12.5 5q9 1 15.5 7t14.5 11q7 4 15.5 7t15.5 8q15 -1 24 -8.5
t23 -11.5q8 6 11 17t11 18q29 5 49.5 -4.5t31.5 -26.5q2 -15 -1.5 -29.5t-9.5 -29t-14 -29t-14 -29.5q-2 -5 -4.5 -12t-4.5 -13q-5 -14 -9.5 -32t-4.5 -38q0 -11 3 -23t9 -20q13 -5 23.5 -5t20 3t19 8.5t20.5 11.5q9 6 14 9t8.5 6l7 6t9.5 8q2 2 3 5t3 5l4 2l4 2
q8 7 20.5 18t26 23t26 23t20.5 18q7 6 13 7.5t10 -3.5v-5zM138 222q2 0 1.5 2t-5.5 2q-32 -21 -54.5 -51t-43.5 -62q23 8 39.5 27t30.5 34q9 11 18.5 22.5t13.5 25.5z" />
    <glyph glyph-name="b" unicode="b" horiz-adv-x="574" 
d="M67 -58q3 -2 3 2q3 -2 4.5 -5.5t7.5 -5.5q0 5 -5 9t-7 9q0 4 -6 11t-9 9q3 4 1 9.5t-6 5.5q-2 6 -4.5 14t-4.5 16v-2q1 0 0.5 3.5t-1.5 8t-2 8.5l-1 4q-2 9 -1.5 18t-1.5 17q-6 -2 -4.5 4t1.5 8q2 8 1.5 21.5t-1.5 20.5l-12 -7q-7 -4 -8.5 -4.5l-10.5 -3.5q-8 -3 -16 -3
t-12 1q-7 2 -11 3t-4 6q5 5 18.5 16.5t24.5 22.5q6 6 9 9.5t5 6.5t4.5 7t7.5 11q9 11 10.5 16.5t9.5 14.5q5 7 6.5 10t6.5 11q2 -1 3.5 2t3 7t2.5 7.5t3 3.5q0 3 2.5 9.5t9.5 8.5q4 2 4.5 5t1.5 8q1 4 4 7.5t3 5.5q1 -1 0 -2q8 2 4 11q3 4 2.5 8.5t1.5 8.5q3 3 5 7t5 9
q1 3 5 4q1 2 0.5 3.5t0.5 2.5h1l1 1q2 9 4.5 15t5.5 12q0 1 3 6t5 10.5t3.5 10t-1.5 4.5q2 5 4.5 11t5.5 13q4 5 8 11t7 14q4 13 10.5 26t13.5 24q7 12 15 23t16 23q11 20 23 38t26 38q2 5 8.5 12.5t6.5 12.5q0 1 4 5l6 6q6 2 6 8q2 1 5 3t4 5v4v1q2 3 6.5 5t6.5 6
q2 6 6.5 10.5t9.5 8.5q2 4 6.5 11t11.5 7q8 8 15.5 17t15.5 17q-1 5 1 7t4 5q3 0 6 -1t8 1q1 2 2.5 2t2.5 1q6 -1 9.5 3.5t8.5 4.5q1 1 2 0.5t3 0.5q2 0 2 2t2 4q6 1 11 3t10 3q11 4 27 0q0 -5 6 -4t8 0q0 -1 1 -1q0 -1 2 -1q4 2 5 -2t5 -2v-2q2 -2 6 -2.5t6 -2.5
q9 -5 18 -5q-1 -4 1 -3t4 1l4.5 -4.5t7.5 -2.5q3 -8 5.5 -12t3.5 -12q5 -5 1 -16.5t-6 -16.5t-3 -14.5t-6 -11.5q-3 -1 -1.5 -5.5t0.5 -6.5q-3 -3 -3.5 -6.5t-2.5 -5.5q-4 -8 -7.5 -16.5t-7.5 -16.5v-3q0 -2 -1 -2.5t-2 -2.5q-3 -1 -5 -8t-6 -9q-6 -2 0 -6l-6 -8t-5 -9
q-8 -14 -19 -26t-22 -25q-5 -5 -9 -9.5t-9 -12.5q-2 -5 -7.5 -9.5t-10.5 -8.5t-8 -9t-9 -8q3 4 4.5 7t4.5 7q2 1 3 4.5t6 5.5q3 2 9 9t8 11q-5 1 -7.5 -2t-5.5 -7q-2 -4 -7 -6.5t-7 -5.5q-8 -5 -12 -12q-2 -2 -4 -5.5t-4 -5.5q0 -1 -4 -5.5t-5 -6.5q-2 0 -5 -2.5t-6.5 -5.5
t-6.5 -5t-4 -1t1.5 1.5t1.5 0.5q-7 0 -9 -3.5t-5 -6.5q-2 -3 -6 -4.5t-6 -6.5h-3q2 -4 -4 -7t-8 -6q-2 -5 -9 -10.5t-12 -7.5q-8 -7 -16 -16.5t-16 -16.5q-2 -1 -5 -2q-6 -2 -6 -3q-7 -3 -12.5 -11.5t-13.5 -13.5q-12 -9 -17.5 -15t-10.5 -14q1 -9 -2 -10t-4 -9
q0 -5 -1 -10.5t-4 -13.5t-5 -18.5t-4 -20.5q-1 -2 -1 -8q-3 -1 -4.5 -1t-3.5 -2v-6q0 -2 -1.5 -4t-1.5 -5q-3 -5 -3.5 -11.5t-1.5 -13.5q0 -2 -3 -6t-3 -8q-2 -2 -3 -4t1 -5q0 -3 -1.5 -6.5t-3.5 -7.5l-2 -8t-1 -8l-1.5 -7.5t-2.5 -7.5q0 -2 -1 -4.5t-1 -5.5q0 -1 1 -1.5
t1 -1.5q-2 -2 -4 -5q0 -5 -0.5 -11.5t-0.5 -12.5q0 -5 -1.5 -8t-1.5 -8q-1 -5 0.5 -8.5t1.5 -8.5q0 -19 3.5 -39t14.5 -36q0 -3 -1 -4t-1 -5q29 11 49.5 36.5t36.5 50.5q15 23 29.5 44t20.5 48q-1 5 -6 6t-8 3q-7 2 -12.5 5t-9.5 5q-13 8 -23 19.5t-18 22.5t-11.5 23.5
t-3.5 24.5q0 13 3.5 25t11.5 22q4 -5 7.5 -2.5t7.5 3.5q3 2 10 2.5t9 3.5q2 0 3 -0.5t3 -0.5q1 3 -1 2.5t-2 2.5q2 -1 5 -0.5t3 -0.5q1 -2 0.5 -0.5t0.5 1.5h12t13 -2q5 -2 13 -4t16 -6q6 -4 18.5 -8.5t14.5 -10.5h2q5 -2 6.5 -4t6.5 -3q1 0 3.5 -2t3.5 -3q1 -5 3 -9.5
t2 -9.5q1 -4 0.5 -9t4.5 -6q2 0 2 4q0 -1 1 -2t1 2q5 -6 3 -19q2 -5 4 -9q4 -10 5 -11q2 -2 1 -10.5t-2 -18.5t-1.5 -18t2.5 -10q10 -5 28.5 -8.5t42.5 -3.5q18 0 41 5.5t52 20.5q8 3 16 4t8 -4q-2 1 -7 -11t-17 -21q-15 -9 -33 -16q-3 -2 -9 -4t-12.5 -3.5t-13 -2.5
t-9.5 -1q-8 0 -13 -0.5t-12 -1.5q-7 0 -12.5 2t-10.5 2q-1 -2 -7.5 -1t-15 3.5t-17.5 5t-15 4.5q-1 0 -3 -4t-4.5 -10t-6 -11.5t-6.5 -8.5q-2 -3 -2 -4.5t-2 -5.5q-3 -5 -3 -2.5t-2 -4.5q-1 -2 -2 -4.5t-3 -6.5q-5 -8 -12.5 -18t-15.5 -18q-5 -5 -15 -12t-10 -15
q-7 -8 -16 -16t-17 -15q-14 -12 -28 -18q-5 -2 -12 -7t-12 -5t-11 -2t-11 -3q-7 -4 -15 -5l-16 -2q-6 0 -12.5 1t-12.5 1q-5 3 -11 2t-11 2q-5 0 -13 3t-13 5q-5 1 -8 5.5t-8 5.5l-2 -1q-2 2 -6.5 4.5t-4.5 5.5zM268 427q38 35 70.5 71.5t65.5 75.5q18 23 34 44t30 47
q6 7 11 19l2 4t3 4q1 3 3.5 4t3.5 4q5 5 7 13t4 14q0 7 -1.5 11t-3.5 7t-5 6.5t-6 8.5q-9 -2 -18 -7.5t-17 -10.5q-10 -5 -18.5 -11.5t-14.5 -12.5q-7 -6 -11.5 -11.5t-10.5 -9.5q-8 -8 -13.5 -16.5t-15.5 -15.5l-2 -3.5t-5 -8t-5.5 -8t-2.5 -4.5q-3 -5 -6.5 -9.5t-5.5 -9.5
q-4 -3 -5 -7.5t-5 -8.5q-15 -15 -23 -36q-4 -12 -10 -23.5t-14 -24.5q-4 -9 -8 -15.5t-7 -15.5q-2 -5 -2.5 -10.5t-2.5 -10.5q-2 -2 -3.5 -4t-2.5 -4q-2 -4 -6 -9t-4 -10q0 1 2 2t3 0q-5 -9 -10 -21.5t-8 -20.5q5 2 16.5 11t17.5 13zM312 168q10 19 5 39t-12 29q-1 2 -5 5
t-9 5.5t-10 3.5t-7 0q-13 -10 -10.5 -25.5t11.5 -30t20.5 -23t16.5 -3.5zM535 636q3 -3 0.5 -5.5t-3.5 -7.5q-2 2 0.5 5.5t2.5 7.5zM529 622q2 0 0 -2q-1 -1 -2 -1q-2 0 -1 0.5t3 2.5z" />
    <glyph glyph-name="c" unicode="c" horiz-adv-x="391" 
d="M241 253q1 -25 -13.5 -45t-25.5 -32q-16 3 -23 11.5t-15 16.5q-1 9 -2 19.5t-8 18.5q-12 0 -20 -8t-14 -16q-4 -2 -7 -4.5l-9 -7.5q-3 -2 -8 -6.5t-8 -9.5q-13 -19 -24 -36q-8 -13 -15 -28t-7 -31q0 -8 2 -16.5t9 -16.5q16 -9 43 -9q17 0 35 3t33 8q1 -1 5.5 -0.5t10 2
t9.5 3t4 2.5q4 -3 7 -1t6 1q9 2 10.5 5t11.5 7q8 -3 11.5 1t8.5 6q5 3 9.5 2.5t13.5 4.5q2 0 7.5 1t10.5 6l3.5 1.5t7.5 3.5t7.5 3.5t4.5 1.5q10 5 11.5 7.5t10.5 4.5q9 5 13.5 6.5t11.5 3.5q10 5 15.5 9.5t16.5 12.5q8 5 12.5 8t10.5 2q4 -8 2.5 -16t-12.5 -22
q-6 -8 -7.5 -9.5t-5.5 -6.5q-5 -3 -7.5 -5.5t-7.5 -5.5q-2 -2 -9 -5.5t-11 -6.5q0 -1 -8 -1.5t-10 -4.5q-2 -2 -7.5 -7t-16.5 -4q2 -7 -9.5 -9t-15.5 -6q-1 -3 -4 -4q-2 -1 -4 -1q-8 -9 -20 -11t-20 -8q-3 0 -6 -1q-5 -5 -9.5 -7t-11.5 -4q-7 -4 -13 -6t-11 -4
q-17 -9 -42.5 -11t-52.5 -3q-35 0 -64 13t-47 30q-5 12 -13.5 23t-11.5 21q4 8 4.5 16t2.5 16q-1 6 1.5 14t4.5 17q0 4 3 8.5t5 9.5q2 2 3.5 8t3.5 9q2 5 5 10t7 10q5 5 6 9t5 9q2 1 3.5 1.5t3.5 2.5q4 5 6.5 10.5t10.5 10.5q3 11 4 12q4 3 8.5 4t7.5 5q1 2 1.5 5t2.5 5
q5 5 10 6t9 5q4 2 6.5 6.5t4.5 6.5t5.5 2t1.5 6q4 0 12.5 -1.5t18 -3.5t18 -4.5t13.5 -4.5q5 -1 12 -4.5t15 -5.5q5 -2 10 -3t10 -3q2 0 4.5 -3.5t2.5 -5.5q2 -2 3.5 -2t3.5 -1v-3q0 -3 3 -3q5 -6 10.5 -6t9.5 -3z" />
    <glyph glyph-name="d" unicode="d" horiz-adv-x="642" 
d="M239 -43q-1 -7 1 -11t6 -2q-2 -4 -4.5 -1.5t-5 8t-3 10.5t1.5 7q-9 8 -14.5 21t-8 29t-3 32.5t-0.5 31.5q-8 0 -16 -7t-14 -14q-2 -2 -3 -4t-3 -4q-1 -1 -4 -0.5t-3 -0.5q-2 -2 -1 -4t1 -4q-4 -2 -8 -4.5t-7 -4.5q-14 -9 -25.5 -15.5t-25.5 -17.5q-11 -3 -18.5 -9
t-23.5 -12q-8 -2 -18 -6.5t-15 -3.5q-14 0 -29.5 14t-26.5 25q-5 30 -1 53.5t14 43.5q-2 3 -1.5 5t1.5 3.5t1 2.5t-3 3q1 3 3 8t5 9t4 7t2 5.5t2.5 5.5t5.5 8q5 5 9 11t9 13q3 2 6 5.5t6 6.5q4 3 12 7t6 13q12 -2 16 4t11 11q2 2 4.5 2t4.5 3q4 5 4 9.5t2 8.5q4 4 10 5t10 3
q2 2 2.5 4.5t3.5 4.5q6 6 15 12.5t16 12.5q5 -3 10 -1.5t7 -0.5q5 0 8 -2.5t10 -5.5q3 -3 7.5 -3.5t6.5 -3.5q13 -10 23 -21t23 -17q14 5 12.5 16t1.5 22q8 20 18 40q2 8 2 15v12q2 4 4.5 8t4.5 10q17 45 31.5 77t31 60.5t36.5 57.5t48 67q11 17 24 34.5t27 36.5
q4 8 11 17.5t10 17.5q6 9 8 19.5t14 17.5q15 1 21 -4.5t16 -7.5q18 -5 26.5 -18t0.5 -33q-2 -5 -6 -7.5t-6 -7.5q-3 -4 -3 -7v-5q-10 -21 -26 -48t-28 -47q-14 -23 -25.5 -48.5t-25.5 -48.5q-2 -2 -2 -5.5t-1 -5.5q-5 -10 -7.5 -13.5t-4 -5.5t-2 -4.5t-0.5 -11.5
q-5 -11 -7.5 -15.5t-4.5 -7.5t-4.5 -7t-6.5 -14q-4 -9 -6.5 -17t-7.5 -17l-3 -7l1 1t0 0t-7 -9q0 -2 -0.5 -3.5t-4.5 -4.5l-14 -14q3 -17 -7 -23l-3 -6t-6 -7q-3 -5 -11.5 -16t-12.5 -19q-1 -4 -1.5 -8.5t-1.5 -8.5q-5 -10 -11 -21t-11 -23q-1 -2 -0.5 -5.5t-0.5 -5.5
q-3 -3 -6 -3q-1 -5 -0.5 -10t-1.5 -7q-8 -17 -14.5 -35t-8.5 -42v-31t-1 -29q2 -24 6.5 -41t15.5 -36q25 -10 69 15q36 20 71.5 42.5t68.5 55.5q1 1 14 10.5t25 20.5q5 4 13 10.5t13 11.5q5 4 13 9.5t17 11.5t16.5 12t12.5 12q5 4 10.5 8.5t10 7t6.5 0.5t-1 -10
q-1 -2 -2 -10.5t-6 -10.5q0 -2 -4 -8.5t-6 -7.5q-2 -6 -4.5 -8.5t-4.5 -9.5q0 -2 -3.5 -6t-8 -7.5t-8 -7l-3.5 -3.5q-5 -5 -15 -11.5t-20 -17.5q-8 -4 -12.5 -6t-8 -5t-7 -7.5t-8.5 -12.5q-5 -2 -11 -5t-8 -7q-8 -5 -13.5 -11.5t-10.5 -11.5q-4 -5 -12 -11t-16 -11
q-5 -5 -12 -10.5t-13 -10.5q-4 -1 -13 -6t-16 -7q-5 -5 -7 -9.5t-6 -6.5q-5 -2 -10 -2t-12 -5q-7 -2 -16 -6t-19 -7t-20 -4.5t-19 0.5q-14 2 -25.5 10.5t-27.5 12.5q-2 14 -11 20.5t-15 13.5zM167 200q-9 -5 -11.5 -7.5l-10.5 -10.5q-4 -3 -7 -4t-6 -4q-8 -5 -11.5 -11
t-10.5 -11q-14 -14 -26.5 -25.5t-17.5 -19.5t-10.5 -21t-11.5 -18q-5 -2 -7 -7.5t-1 -7.5q-7 -20 -8 -36q20 5 39 19.5t28 25.5q16 13 30.5 26t24.5 25q10 16 22.5 29.5t23.5 27.5q5 6 12 11t7 16q-13 15 -26.5 11.5t-21.5 -8.5z" />
    <glyph glyph-name="e" unicode="e" horiz-adv-x="358" 
d="M372 174q8 -2 11 -14t-7 -22q-2 -5 -6.5 -11.5t-8.5 -11.5q-2 -2 -7.5 -5.5t-5.5 -5.5q-3 -1 -8.5 -7t-7.5 -7t-9.5 -6.5t-10.5 -7.5q-11 -5 -13.5 -9.5t-12.5 -11.5q-7 -2 -16 -5.5t-14 -8.5q-7 -5 -13 -5t-11 -8q-6 1 -13 -2.5t-16 -5.5q-5 -2 -11.5 -3t-12.5 -1
q-22 -10 -46 -10q-13 -3 -31 0q-3 1 -5.5 1.5t-5.5 0.5q-9 4 -18.5 4.5t-17.5 3.5q-1 0 -6.5 2.5t-11.5 5t-11.5 5t-6.5 2.5q-5 2 -9 7.5t-7.5 12t-7.5 12t-8 8.5q-2 1 -4.5 0.5t-4.5 0.5q-3 2 -4.5 6t-2.5 6q-2 9 2 16.5t1 12.5q2 1 4 1.5t4 3.5q-6 5 -5.5 14.5t4 19.5
t7.5 19t6 14q1 6 1 10t1 7q2 3 5.5 5.5t5.5 4.5q2 8 7 15q5 10 15 20.5t21 22.5q4 6 10 10.5t13 11.5q8 3 13 6.5t12 8.5q15 12 32 11t31 -4q5 -1 6.5 -5t4.5 -5q2 -2 3.5 -0.5t4.5 1.5q6 -2 14 -6t15.5 -9t13 -10t6.5 -9q1 -2 3 -4t3 -4q4 -14 -0.5 -20.5t-6.5 -13.5
q-8 -9 -14.5 -14t-11.5 -12q0 -2 -5.5 -6t-6.5 -7q-8 -7 -18.5 -12.5t-19.5 -13.5q-1 -2 -5 -4.5t-9 -5.5q-6 -4 -13 -8q-2 -2 -6 -3t-6 -3q-3 -2 -8 -7.5t-13 -8.5q-2 -2 -5 -1.5t-4 -1.5q-5 -2 -10 -7t-12 -4q-2 -4 -3.5 -12t0 -17t7 -16.5t18.5 -8.5q2 0 10 -2t11 -4
q16 -1 35.5 2.5t36.5 6.5q38 9 74 26t63 35q5 4 6.5 4.5t5.5 2.5t12 7.5t15.5 12t13.5 14t6 13.5zM85 164q17 9 32 23t32 25q6 5 12.5 11t8.5 11q2 4 1 8t-1 5q-3 1 -6 1q-1 0 -1 -1q-24 -13 -45 -35.5t-38 -45.5q0 -3 2 -3q1 0 3 1z" />
    <glyph glyph-name="f" unicode="f" horiz-adv-x="469" 
d="M530 630q2 -9 1 -13.5t-2 -16.5q0 -6 -0.5 -12t-2.5 -11q-2 -4 -5 -7.5t-5 -9.5l-20 -42l-14 -14q0 -1 -0.5 -2t-0.5 -2q-1 -2 -1 -3t3 -1.5t1 -2.5t-4 -4.5t-4 -4.5q-5 -8 -9.5 -21t-10.5 -21q-1 -2 -3.5 -2t-2.5 -1q-2 -5 -5 -11l-6 -12q-1 -1 -3 -1q-1 0 -2 -1
q1 -1 1 -2q0 -3 -1 -4l-2 -2l-2 -2q0 -1 0.5 -2.5t-0.5 -3.5l-12 -10q-4 -4 -6.5 -7.5t-7.5 -4.5q0 -5 -0.5 -6t-1 0t-1 3t-1.5 3q-6 -8 -11.5 -14t-11.5 -13q-4 -5 -8.5 -9.5t-12.5 -7.5q-5 -5 -8 -11t-8 -11q-2 -2 -4 -2t-4 -2q-5 -4 -10 -10t-12 -8q10 13 18.5 25.5
t19.5 26.5q-6 1 -8.5 -3t-5.5 -8t-9 -4l-2 -2l-1 -1v-4q0 -1 1 -2q-8 -8 -16 -15t-13 -11q-2 -5 -4 -13t-6 -14q-5 -8 -13 -11t-14 -11q-10 -9 -20 -22t-21 -25l-6 -9q-3 -5 -4.5 -9.5t-6.5 -7.5l-24 -25q-4 -5 -8.5 -9.5l-8.5 -8.5q-3 -4 -8.5 -11t-9 -14.5t-4.5 -14.5
t4 -12q4 -3 10 -6.5t13 -5.5t13.5 -2.5t10.5 1.5q28 4 48 6t42 10q13 -1 20.5 1.5t14.5 6t14.5 6.5t19.5 5q11 5 21 10.5t23 10.5q5 2 9.5 3.5t8.5 1.5q15 4 30 13.5t31 17.5q5 3 10 5t13 9q6 -1 9 -4q2 -3 1 -8t-10 -16q-5 -8 -12 -12.5t-11 -7.5q-12 -10 -21.5 -15.5
t-18.5 -9.5t-18 -8.5t-20 -12.5q-29 -12 -66 -24t-80 -19q-10 -2 -18 -3q-4 -1 -7 -1.5t-6 -0.5q-4 -1 -6 -1q-8 -3 -16.5 -2t-21.5 -4q-9 -4 -15.5 -5.5t-11 -2l-9 -1t-10.5 -1.5q2 -8 6 -10.5t10 -8.5q2 -1 1 -3.5t1 -2.5q0 -1 2 0t2 0q2 -2 1 -4t1 -3q1 -1 2.5 -2t1.5 -2
q2 -4 3 -8.5t3 -6.5q4 -7 6 -17q5 -4 6 -8.5t3 -9.5l7 -11q0 -4 -0.5 -8.5t0.5 -8.5q0 -2 1 -2.5t3 -2.5q0 -2 1 -4q2 -14 4.5 -28t3.5 -28q3 -41 -7 -79.5t-30 -68.5q-1 -2 -0.5 -3t-1.5 -3q0 -1 -1 -2t-2 -1q-6 -11 -15 -20t-17 -19q-11 -13 -28 -22q-11 -8 -21.5 -12.5
t-27.5 2.5q14 6 23.5 13.5t16.5 24.5q-11 1 -20.5 5t-18.5 9q-10 8 -15.5 15t-14.5 16q-5 8 -11.5 14t-11.5 13q-6 15 -10 31.5t-18 28.5q0 3 3.5 3.5t6.5 2.5q-3 2 -1.5 5.5t1.5 6.5q0 11 -4 19.5t-4 19.5q-1 18 2 36t5 36q2 17 4.5 34.5t5.5 30.5q-3 5 -8.5 7.5t-11.5 5
t-11.5 5.5t-8.5 8q0 8 6 14h7q2 2 1 3.5t4 3.5q3 4 11 4.5t14 1.5q1 3 6.5 17t12 32t12 36t7.5 29q-5 -3 -5.5 -4t-1 -2.5t-3.5 -3.5t-12 -6q-6 -2 -7.5 -3t-2 -1h-1.5t-5 -1q-10 -2 -17 -2t-17 8q5 8 13 13.5t13 10.5q6 11 10 13t15 11q14 12 25.5 31.5t20.5 30.5
q3 4 5.5 5.5t5 2.5t5 3t7.5 7q0 7 7.5 9.5t7.5 10.5q11 8 12 8.5t6 11.5q3 7 4.5 11t3 6t4 4t7.5 5q-2 5 -1 8t0 13q5 2 7 7.5t10 8.5q3 16 9 28.5t13.5 24t15.5 23.5t14 27q10 11 10 19q11 19 21.5 39.5t22.5 38.5q0 7 2 11h1q1 0 1 0.5t1 0.5h2q2 5 2.5 8t4.5 7q9 8 17 25
q5 6 9.5 11.5t7.5 12.5q2 2 4 2t2 1q5 11 16 20.5t20 20.5q7 8 16.5 15.5t16.5 15.5q10 2 19.5 5.5t17.5 8.5q29 3 49.5 -5.5t40.5 -17.5q16 -12 22.5 -19.5t12.5 -26.5v-5.5t1 -7.5zM127 -116q-2 10 -5 22.5t-3 20.5q0 5 1.5 7t-0.5 8q-1 12 -6.5 21t-10.5 15q0 3 -1 3
q1 -5 -2.5 -8t-3.5 -5q-1 -3 1 -9q-11 -33 -18 -71.5t-5 -79.5q2 -27 6.5 -51t4.5 -47q4 -8 7.5 -17t7.5 -17q9 1 9 8.5t4 14.5q7 28 12 63.5t5 73.5q0 11 -1 23.5t-2 24.5zM412 544q1 5 8 22t11.5 35.5t2.5 33.5t-19 17h-1q-11 -2 -19.5 -7.5t-15.5 -10.5l-25 -22
q-2 -3 -2.5 -5t-2.5 -5q-2 -2 -5.5 -3.5t-5.5 -4.5q-8 -11 -17 -23t-15 -23q-1 -5 -5 -9q-2 -5 -7.5 -9.5t-7.5 -9.5l-4 -9l-17 -32q-11 -22 -19 -44t-16 -45q-5 -5 -7.5 -9.5t-5.5 -9.5q-7 -18 -13.5 -36.5t-11.5 -38.5q14 7 24.5 16t21.5 19q25 22 47.5 46.5t45.5 49.5
q5 8 12 13.5t11 10.5q2 7 4 10l4 6q2 2 5 3.5t3 2.5q2 2 1.5 3.5t1.5 3.5q2 3 5 6l6 6q2 3 2 6t2 7q1 1 2 1.5t2 3.5q6 6 10.5 15.5t9.5 18.5z" />
    <glyph glyph-name="g" unicode="g" horiz-adv-x="598" 
d="M391 172q-2 -4 0.5 -7.5t2.5 -6.5q1 -9 -1 -15.5t-3 -14.5q-1 -11 -3 -14t-1 -14q2 -11 -2 -26.5t0 -27.5q2 -1 1.5 -3.5t-1.5 -5t-2 -4t1 0.5q2 0 12 5.5t21 12t21 12t13 7.5q2 2 8 5t13 6q8 4 17 7q9 11 21.5 14t25.5 11q7 4 11 6.5t7 4t6 3.5l9 6q7 4 23 10.5t27 9.5
q5 -8 4 -14t-5 -10.5t-9.5 -7.5t-8.5 -6q-7 -5 -12 -9.5t-13 -9.5q-11 -6 -13.5 -7t-8.5 -7q-9 -8 -18.5 -13.5t-17.5 -13.5q-2 -1 -8.5 -5t-20.5 -15q-9 -6 -14 -10t-13 -9q-2 -2 -10.5 -10t-10.5 -11q-4 -3 -8 -7q-4 -3 -7.5 -6.5t-7.5 -6.5q-5 -2 -10 -16
q-14 -23 -17.5 -29t-3.5 -5.5t1 2t-3 -5.5t-8.5 -24t-8.5 -35.5t-8 -35.5t-6 -23q-6 -29 -16 -55q-5 -9 -6 -19.5t-7 -21.5q-2 -7 -4.5 -14.5t-5.5 -15.5q-8 -20 -16 -38t-13 -35q-5 -14 -11.5 -26.5t-13.5 -26.5q-1 -2 -1 -3.5t-2 -4.5q-5 -5 -5 -7q-3 -4 -6 -10
q0 -1 -1.5 -2t-1.5 -3q-2 -6 -3.5 -10t-5.5 -6q-1 -4 -4 -7t-6 -8q-2 -4 -3 -8t-5 -9q-2 -2 -8.5 -7.5t-13.5 -7.5q-1 -1 -2.5 0.5t-3.5 -0.5q-6 -5 -13 -10t-10 -6q-3 -2 -8 0.5t-7 0.5q-5 -1 -4 -5t-6 -2q-16 7 -34.5 13t-33.5 5q2 8 4 18.5t-1 22.5q-1 4 -2 5t-1 6
q1 8 4 17t5 19q4 20 7 38t8 36q8 26 17.5 49.5t17.5 46.5q2 5 3 8.5t4 8.5q1 2 3.5 3.5t1.5 3.5q1 5 4.5 11t5.5 12q2 4 3 8t3 6q5 8 10.5 16.5t11.5 19.5q7 26 19 51t27 47.5t31 42.5t32 38q4 22 7 36.5t5.5 26.5t5.5 25t6 32q-5 9 -15.5 13t-16.5 11q-26 -13 -59 -31.5
t-65 -36.5q-16 -10 -32.5 -18.5t-30.5 -17.5q-3 0 -6 -2.5t-5 -4.5t-3.5 0t-1.5 1q-5 -1 -8 -5t-5 -6q-3 -2 -5.5 -2t-5.5 -2q-3 0 -7 -2.5t-5 -5.5q-5 -2 -5.5 -1.5t-2.5 -0.5q-1 -1 -5 -2.5t-8.5 -3.5t-8.5 -3.5t-5 -2.5q-16 -2 -28.5 -0.5t-25.5 13.5q-2 2 -4 6l-4 8
q-5 5 -8.5 11t-8.5 14q-1 3 -3.5 14t-0.5 20t11 21t20 23t23.5 21t22.5 15q4 3 10 9q2 5 6.5 8.5t11.5 11.5q3 0 5 -1q0 1 -1 2.5t1 -0.5q2 2 4.5 3.5t3.5 2.5q5 3 12.5 9.5t12.5 10.5q8 5 16.5 11.5t18.5 12.5q9 8 20 13t21 11q2 1 5.5 1t5.5 1q7 5 9.5 9.5t8.5 6.5
q2 2 5.5 2h4.5q2 0 3 2.5t6 3.5q24 -5 44.5 -10t38.5 -13l8 -8t8 -3q9 -5 19 -17t15 -26q21 -6 36.5 -14.5t30.5 -18.5zM198 233q-5 0 -12 -3t-8 -3l-4 -2t-5 -2q-2 -2 -4.5 -2.5t-6.5 -3.5q-1 -2 -2.5 -3t-3.5 -3q-5 -1 -9 -4t-9 -7q-5 -1 -9.5 -4t-8.5 -4q-1 -2 -1.5 -4
t-2.5 -4q-4 -3 -7 -3.5t-7 -2.5q-4 -7 -14 -12q-8 -7 -14.5 -15.5t-14.5 -16.5l-17.5 -17.5t-12.5 -16.5q-10 -9 -14.5 -19t-10.5 -21q19 0 34 9t31 14q48 18 93.5 37.5t93.5 37.5q2 8 -1 13.5t-4 8.5q0 2 1.5 3.5t-0.5 4.5q-2 5 -5 8.5t-5 6.5q-2 2 -2 3.5t-1 3.5
q-4 6 -9 9.5t-3 10.5q-10 -2 -16.5 0t-8.5 3zM205 -326q-1 -4 -1 -12q-4 -4 -8 -7t-6 -5q-8 -26 -15 -45q-4 -7 -6.5 -17.5t-2.5 -21.5q11 2 15 12t7 18q17 25 28.5 56t12.5 65q-5 -13 -12 -24t-12 -19z" />
    <glyph glyph-name="h" unicode="h" horiz-adv-x="672" 
d="M704 178q3 0 4 -4.5t0.5 -10t-1.5 -11t-1 -6.5l-35 -31l-29 -29q-11 -3 -17.5 -11t-24.5 -22q-5 -4 -13 -11.5t-17 -16t-17.5 -15.5t-13.5 -10q-1 -1 -6.5 -5t-11.5 -8.5t-11.5 -9t-6.5 -5.5q-12 -5 -28 -10q-10 -6 -22 -10t-26 -4q-19 0 -38 11q-12 10 -28.5 22.5
t-22.5 28.5q-3 7 -5.5 16t-3.5 20q2 6 -1 6t-3 7q-2 0 -1.5 2t1.5 4.5t1.5 4.5t-1.5 2v1q0 2 -1 4t-1 3q0 20 4.5 40t11 40t12.5 40t8 40q-12 -6 -17.5 -9t-9.5 -6t-8 -7.5t-14 -13.5q-9 -6 -18.5 -12.5t-16.5 -15.5q-3 -2 -7.5 -5.5t-7.5 -8.5l-8 -7q-3 -4 -5 -8t-8 -2
q-5 -6 -11 -10t-10 -10q-2 -3 -5 -4.5t-8 -5.5q-10 -8 -24.5 -24t-22.5 -27l-21 -22q-5 -6 -8.5 -11t-14.5 -15q-5 -2 -10.5 4t-7.5 9q-22 1 -44 19l-8 4l4 2q-17 12 -14 26q-5 11 -9.5 16t-2.5 17q0 4 1 6t1 5v4q-2 2 -8 -4.5t-11 -8.5q-10 -4 -14.5 -6.5t-16.5 -4.5
q-4 0 -9 1.5t-9 4.5t-5.5 5.5t0.5 3.5q5 2 12.5 8t15.5 13t15 13.5t11 9.5l23 30l10 25l3 6q1 3 2 3.5t2 -0.5t2 -1t2 3q1 -2 -1 -9l8 13q5 11 8.5 24t7.5 26q-9 -6 -14 -18t-11 -21q-1 2 0 4t1 4q3 10 8.5 24t9.5 26l8 22q2 1 2 4q2 5 5.5 14.5t6.5 16.5q2 5 5 11.5t7 11.5
q7 19 14.5 32.5t14.5 26.5t14 26.5t14 31.5q1 3 1.5 6.5t2.5 6.5q1 3 4 6l5 5l6 11q5 9 9 18t13 16q0 2 -0.5 3.5t1.5 5.5q1 2 3.5 3t3.5 3q2 1 1 3t1 4q5 9 10.5 16t11.5 16q3 3 3 6l7 8q2 4 5.5 6.5t7.5 6.5q5 8 12.5 15t9.5 18q4 2 5.5 3.5l3.5 3.5q-6 5 1 8.5l13 6.5
q5 7 9.5 11t6.5 6q4 1 0.5 1.5t-1.5 2.5q3 0 5 1.5t4 3.5q9 6 16 10t13 7.5t12.5 6.5t14.5 7q0 -1 4.5 0t9.5 3l10 4l5 2q10 3 16 0t11.5 -9t11.5 -12t15 -7q6 -11 18 -15t24 -11q2 -1 2.5 -1.5t4.5 -2.5q3 -2 8 -7.5t6 -8.5q5 -14 4 -33.5t-5 -30.5q-2 -7 -6 -16t-6 -17
q-2 -3 -2 -5t-1 -6q-5 -1 -5 -4v-1q0 -1 1 -2q-2 -5 -5.5 -10t-5.5 -12q-2 -6 -7 -10.5t-7 -10.5q-5 -5 -7.5 -13t-14.5 -20q-2 -2 -3 -6t-5 -7q0 -2 -2 -3.5t-4 -3.5q-10 -14 -24 -27t-27 -26q-5 -5 -7.5 -10t-7.5 -9q-2 -3 -5 -4.5t-7 -4.5l-25 -25q-3 -5 -5 -6t-9 -3
q-5 -4 -7.5 -8t-7.5 -9q-1 -1 -4 -1t-5 -2q-3 -3 -5.5 -7t-7.5 -8q-7 -7 -13.5 -11.5t-12.5 -13.5l-10 -12q-4 -2 -8 -3.5t-6 -6.5l-13 -16l-28 -25q-3 -1 -5 -3.5t-3 -3.5q-8 -5 -14.5 -14t-8.5 -11l-13 -28q-2 -3 -2.5 -6.5t-1.5 -5.5q-1 -3 -1 -5q0 -1 -1.5 -6t-2.5 -9
q10 2 17 8l14 12q20 18 40 33t43 32q16 8 36.5 21t38.5 20q12 3 16.5 3.5t8.5 0t9.5 -1t19.5 0.5q10 2 29 -0.5t27 -8.5q3 -3 4.5 -12t3.5 -16q2 -14 2.5 -18t-2.5 -14q-2 -19 -6 -33q0 -5 0.5 -8t-2.5 -11v-1q0 -1 -0.5 -1t-0.5 -1q0 -2 -0.5 -3t-0.5 -2q2 -2 0 -5v-1
q0 -1 -0.5 -1t-0.5 -1q-1 -1 -1 -2q0 -4 -2 -8v-7q0 -1 -2 -3l-10 -41v-2q-2 -13 -7 -26.5t-7 -27.5l-3 -2q-4 -12 -6 -24t0 -24q13 -4 23.5 -0.5t21.5 8.5t19.5 11.5t17.5 11.5t24.5 17.5t32.5 26.5t32.5 27.5t24.5 21.5q25 22 42 35t35 27q5 3 13 8t15 4zM200 306
q16 13 29.5 25.5t26 25l26 26t31.5 29.5l10.5 10.5t13 13.5t12.5 14t9 11q5 6 10.5 11t9.5 10l6 6t5 9l4 4t3 4q10 14 20.5 28t20.5 31q5 6 10.5 16t9.5 14q1 1 5 8.5t4 8.5q21 54 7 66q-5 7 -8.5 10.5t-9.5 3.5q-3 0 -7 -1.5t-11 -3.5q-13 -3 -19.5 -7.5t-15.5 -11.5
q-9 -6 -15.5 -17.5t-14.5 -19.5l-6.5 -6.5t-6.5 -5.5q-2 -3 -3 -7t-3 -7q-4 -9 -10 -16t-11 -13q-2 -5 -3.5 -9.5t-4.5 -8.5q-6 -9 -16.5 -28t-21.5 -39.5t-20.5 -39t-13.5 -26.5q1 -2 -4 -16t-10 -23l-6 -14zM112 324q8 17 12.5 30.5t12.5 27.5q-3 2 -7 2q10 13 16.5 33
t11.5 29q-5 -1 -6 -5.5t-3 -9.5l-3 -1q0 -2 1.5 -3t0.5 -3q-2 -2 -3.5 -4.5t-5.5 -6.5l-5 -12q-2 -8 -5 -15.5t-7 -11.5l-7 -12q-1 -1 -1.5 -3.5t-2.5 -5.5q-2 -4 -3 -7q0 -4 1 -5.5t0 -3.5q-1 -4 -4 -6.5t-5 -6.5q-2 -2 -1 -5t-1 -6q-2 -6 -7 -9q0 -2 2 -3.5t1 -2.5
q0 -2 -2 -3.5t-3 -2.5q-4 -7 -4 -12.5t-3 -11.5l-10 -18l-4 -5v-4q4 1 12 9.5t10 13.5q6 13 9.5 26t8.5 27q1 2 2.5 3.5t1.5 3.5zM49 110q0 13 7.5 31.5t3.5 33.5q-1 -3 -4.5 -9.5t-6.5 -12t-3.5 -9t4.5 -0.5q-2 -5 -1.5 -8.5t-1.5 -8.5l-6 -2q1 -4 1 -8.5t7 -6.5zM65 292
q2 -2 5.5 2t5.5 5q1 1 1 5q1 2 3.5 2t2.5 2q1 2 0 3.5t-1 4.5q-5 -9 -10 -8q-1 -5 -3 -8t-4 -8zM88 329q-2 -2 -3 -5t-3 -7q2 4 5.5 6.5t0.5 5.5zM76 294q-4 -1 -4 -11zM59 276q-3 -5 1 -2.5t0 3.5q0 -1 -0.5 -1.5t-0.5 0.5z" />
    <glyph glyph-name="i" unicode="i" horiz-adv-x="328" 
d="M155 350q0 -12 -6 -23t-11 -19q-5 -1 -7 0.5t-6 1.5q-10 1 -14.5 5.5t-13.5 14.5q-15 10 -15 14q0 13 7 17t18 2.5t24 -6t24 -7.5zM120 226q1 -8 -4 -14t-10 -13q-4 -11 -5 -24t-7 -27q-2 -4 -2.5 -6.5t-1.5 -5.5q0 -2 -1 -5.5t-3 -5.5q-2 -8 -6 -12.5t-6 -9.5
q0 -11 -2 -13q-3 -13 -12.5 -29t-6.5 -32q20 4 37.5 8t34.5 15q14 10 37.5 22t41.5 22l14 7t12 9q4 2 8.5 4.5t9.5 5.5q5 2 12.5 6t15.5 9q2 0 1.5 2.5t0.5 3.5q4 2 10 3.5t12 7.5q4 2 12.5 6.5t17.5 9.5q6 3 10.5 6.5t9.5 2.5q4 -8 1.5 -19t-4.5 -22q-2 -6 -7 -10.5
t-11 -12.5q-13 -11 -29.5 -24t-33.5 -26q-9 -7 -17 -12t-19 -12q-13 -11 -37 -24q-2 -1 -4.5 -2t-6.5 -3q-6 -8 -9 -11q-4 -1 -9 -2t-12 -3q-2 0 -3.5 -1.5t-9.5 -5.5q-14 -4 -23.5 -6t-19.5 -2q-21 0 -46 11q-14 5 -26 11t-19 13q-8 8 -13.5 24t-4.5 34q0 11 3 24t6 27
q3 10 4.5 21t7.5 21q-1 2 1.5 4.5t3.5 7.5q4 14 13 33.5t20 32.5q19 10 40.5 1t33.5 -20z" />
    <glyph glyph-name="j" unicode="j" horiz-adv-x="424" 
d="M194 433l3 -1.5l3 -1.5q4 2 6.5 1.5t7.5 -0.5q3 0 6.5 -2.5t6.5 -4.5l16 -10t17 -6q2 -1 3.5 -9.5t2.5 -10.5q-1 -2 -2 -2t-2 -2q1 -6 -3.5 -7.5t-5.5 -6.5q-5 -3 -11 -7t-11.5 -6t-11 -1.5t-9.5 5.5q-3 4 -4 8t-3 7q-2 5 -7 9.5t-8 9.5q2 0 2.5 1.5t2.5 0.5l-1.5 6
t-5.5 7q4 7 3.5 13t4.5 10zM53 -49q-1 -1 -2.5 -1t-3.5 -2q1 2 3.5 3.5t2.5 -0.5zM-160 -198q3 -2 0.5 -2.5t-0.5 -2.5q-2 0 -1 2t1 3zM-168 -209q1 -1 -2.5 -6.5t-5.5 -4.5q0 3 3 6zM-163 -209q2 0 0.5 -0.5t-0.5 -2.5q-3 1 -2 1.5t2 1.5zM-168 -212q4 -2 2 -3t-1 -3
q-1 0 -1 6zM-187 -242q1 -2 0.5 -2t-0.5 -1v2v1zM326 30q-16 -14 -38 -28.5t-43 -29t-38.5 -28.5t-24.5 -26q-5 -8 -4 -12.5t-4 -14.5q-5 -9 -7 -20t-6 -20q-3 -11 -2.5 -21.5t-4.5 -21.5q-2 -5 -3 -10.5t-2 -11.5q-1 -5 -3 -8.5t-1 -9.5q-2 -9 -5 -15q-1 -2 -1 -9
q0 -3 1 -6q5 2 5 3.5v6.5q5 -16 -5 -31q-2 -8 -6 -12q-1 -3 0.5 -6.5t-1.5 -5.5q-11 -11 -15 -24q-5 -8 -11 -12.5t-12 -12.5q1 10 5 21q-5 -2 -8 -5.5t-8 -8.5l-9.5 -9.5t-8.5 -11.5q-2 -5 -7 -7.5t-7 -7.5q-4 -8 -8 -13.5t-9 -13.5q-8 -9 -14 -15.5t-14 -14.5
q-9 -10 -19 -21t-22 -18q-5 -4 -10 -7.5t-9 -4.5q-5 -4 -11.5 -5.5t-11.5 -4.5q-5 -2 -10 -2.5t-8 -4.5q-5 -3 -8.5 -8.5t-11.5 -8.5q-10 -7 -24.5 -6t-27.5 3q-7 1 -12.5 1.5t-11.5 2.5q-6 3 -11 2.5t-10 -0.5q-2 8 -6.5 13t-9.5 12q0 1 2 0.5t2 1.5q-10 23 -14.5 51.5
t-2.5 51.5q1 13 1.5 27.5t4.5 25.5q2 7 4 9q1 3 -1 5.5t-2 4.5q-1 6 2.5 11.5t3.5 11.5q0 4 5 4q-2 3 0 8.5t5.5 11l7 11t5.5 8.5q3 4 5 8t7 8q4 5 7.5 7.5t5.5 8.5q0 -2 -1.5 -5t-1.5 -4q1 -4 1 -5.5t-4 -3.5q-1 0 0.5 3t-1.5 5q-1 0 -1 -6t-1 -7q-4 -9 -10 -16.5t-8 -17.5
l1 1q0 1 1 2q0 -2 -2 -3.5t0 -4.5q5 5 9 11.5t6 12.5q3 9 9 15.5t14 13.5q11 14 25 28.5t28 28.5q6 5 10.5 9.5t9.5 6.5q5 6 9.5 10.5t8.5 7.5q3 6 10 11t11 7q5 4 16 10.5t14 12.5q-1 0 -5.5 -2.5t-9 -6t-8.5 -6.5t-5 -4h-2q-2 -1 -5.5 -6t-6.5 -5q-2 0 -7 -2.5l-7 -3.5
l-3 -5q0 -2 -1.5 -2t-3.5 -2q-3 -3 -7 -6t-4 -5q-2 2 -7.5 -1t-7.5 -4q7 11 19 20.5t23 16.5q11 10 24.5 18t26.5 17v-4q3 2 3 3.5t1 2.5q7 4 14.5 7t15.5 7q8 6 17 11.5t18 10.5q0 -5 -5 -5.5t-7 -2.5q-5 -3 -9 -5.5t-9 -8.5q9 3 16 8l14 10q8 5 18 9.5t18 9.5l15 7.5
t6 13.5q-1 11 2 13t3 13q-3 8 -1 9.5t3 11.5q0 2 0.5 7.5t2 11.5t2.5 12t1 8q0 3 -0.5 7t0.5 9q2 11 5 20.5t5 20.5q1 6 3 15t4.5 19t5 18.5t4.5 14.5q-9 -6 -20.5 -6.5t-30.5 -13.5q-8 -5 -22.5 -15t-29.5 -19.5t-26.5 -17t-12.5 -7.5q-12 -2 -21.5 -1.5t-14 3.5t-3 8.5
t12.5 12.5q14 10 19 14t7 6q12 9 30 20.5t37 24.5t37.5 26.5t33.5 27.5q6 5 8 6.5t3.5 1.5t4.5 0.5t11 3.5q9 3 12.5 2t5 -2.5t3 -1.5t5.5 4q10 -2 18 -7t17 -7q20 -5 20 -10t-2 -15q-2 -12 -9 -27.5t-7 -26.5q-2 -8 -3.5 -14.5t0.5 -15.5q-2 -4 -2 -7.5t-1 -6.5
q-4 -2 -3.5 -4.5l1.5 -7.5q0 -1 -1 -6.5t-2.5 -11.5t-2.5 -11.5t-1 -6.5q-3 -5 -2.5 -8t0.5 -8q-2 -17 -5.5 -33t-3.5 -36q6 2 25 16t41 30.5t41 30.5t25 17q8 3 20 11.5t24.5 18.5l25 20t20.5 17q8 6 11 8t8 10q3 4 6.5 -1t5.5 -7q5 -6 -1 -15t-9 -14l-7.5 -10.5
t-13.5 -17.5q0 -1 -11 -11.5t-26 -24t-32 -27t-30 -22.5zM-190 -240q-2 -4 -4 -7.5t0 -5.5q2 2 4 6t0 7zM-23 -101q1 2 6.5 4.5t6.5 7.5q-2 -2 -7.5 -6t-5.5 -6zM-19 -114q-17 -14 -35 -25.5t-35 -26.5l-8 -6t-6 -7q-7 -9 -11 -9q-8 -3 -13 -11.5t-13 -15.5v4
q-8 -7 -15 -13.5t-9 -17.5q1 0 6.5 4t6.5 4q4 7 15 17l16.5 16.5t17.5 16.5q23 22 49 40.5t51 40.5q-7 -3 -10 -5.5t-7 -5.5zM-118 -186q2 1 10 7t16 13t14 14t5 9q1 -1 -6 -6t-9 -7q-2 -4 -6.5 -6t-7.5 -4l-8 -8t-12 -12.5t-10.5 -12.5t-3.5 -7q6 5 9.5 10t8.5 10zM80 -125
q-5 -3 -10 -12q-2 -2 -2.5 -4.5t-2.5 -4.5q-5 -5 -9 -10.5t-12 -10.5q-11 -11 -22 -23.5t-18 -24.5q-8 -11 -17.5 -21t-18.5 -21q-12 -13 -22.5 -27.5t-21.5 -28.5q-18 -23 -35 -52.5t-22 -60.5v-12t1 -13.5t4.5 -11t11.5 -3.5q11 5 19.5 10.5t14.5 10.5q12 5 21.5 13
t18.5 14q5 4 10.5 8t6.5 10q1 3 2 3.5t3 2.5q2 6 3 8t5 4q3 2 4 7t3 5q1 1 2 3l3 6q14 19 25 43q5 13 12.5 24t14.5 25q9 28 20 53q6 11 7 24t3 24q2 15 5 28.5t2 27.5q0 2 -1 2q-4 -5 -8 -15zM-42 -122q1 -2 2 -0.5t-1 1.5zM-49 -128q0 2 3.5 2.5t1.5 3.5q-2 0 -4.5 -2
t-0.5 -4zM-62 -140q3 5 6 6t6 4q-5 -1 -8 -4.5t-4 -5.5zM-121 -162q2 -2 -2 -5.5t-7 -6.5q0 -3 2 -1.5t2 -0.5q-3 -7 -5 -3q0 1 0.5 1t0.5 2h-2q-4 -7 -6.5 -10t-4.5 -7q0 -4 -1.5 -4.5t-4 0t-4.5 1t-4 -0.5q6 8 16 16.5t20 18.5z" />
    <glyph glyph-name="k" unicode="k" horiz-adv-x="743" 
d="M326 114q-1 -8 2 -18t7 -18q16 -27 35 -47.5t34 -28.5q12 -6 21.5 -9t23.5 -1q27 1 47 5.5t34.5 10t23 10.5t12.5 7q2 1 12 7.5t23 14.5t24.5 15t16.5 10q4 2 13 9.5t18.5 15t17 14t8.5 7.5q30 28 44 43.5t22 20.5q0 -5 1.5 -10.5t1 -12.5t-3.5 -15.5t-12 -19.5
q-5 -7 -6 -6.5t-3 -3.5q-2 -5 -8 -11l-15 -15q-8 -3 -19.5 -15.5t-15.5 -17.5l-5 -4.5t-11.5 -9t-12 -8.5t-7.5 -4q-14 -9 -34.5 -21t-28.5 -18q-5 -3 -17.5 -8.5t-27 -11t-27 -9.5t-16.5 -4q-3 -1 -11 -1.5t-17 -1t-17 -1t-11 -1.5q-7 -2 -12.5 0.5t-17.5 4.5
q-23 6 -43.5 13.5t-34.5 19.5q-8 6 -18.5 18t-11.5 14q-6 3 -7.5 9t-3.5 12q-2 0 -3 1l-2 2q-5 5 -13.5 20.5t-8.5 24.5q-2 2 -2.5 8.5t-9.5 6.5q-7 4 -14 2.5t-14 -6t-12.5 -10.5t-9.5 -9q-11 -10 -19.5 -18.5t-16.5 -18.5q-5 -5 -11 -12.5t-6 -14.5q-1 -1 -4.5 -3t-6.5 -3
q-2 -2 -4 -7.5t-5.5 -11.5t-8 -9.5t-10.5 -0.5q1 -9 -2 -21.5t-6 -20.5q-14 -3 -25 8.5t-18 19.5q-1 4 -7 6.5t-6 5.5q-1 8 0 13.5t-1 10.5q2 5 0 7t-5 7q-2 11 -2 21v20q0 17 1.5 34t5.5 37q-1 0 -6 -2.5t-11 -5t-12.5 -5.5t-9.5 -4q-8 -4 -15.5 -7.5t-14.5 -5.5
q-6 0 -11.5 1t-8.5 2.5t-3 4.5t5 8q11 10 24.5 22t22.5 22q8 9 19.5 24t20.5 23q1 6 4.5 10.5t7.5 9t8 10t6 14.5q1 2 3.5 8t5.5 12.5t6.5 12t5.5 6.5q0 12 7.5 29.5t8.5 32.5q8 10 13.5 18.5t10 17t9.5 18.5t11 23q20 31 41 60.5t38 62.5l10 8t7 6q1 5 3 9.5t4 12.5
q2 6 12 10q2 2 2.5 6.5t4.5 6.5q12 13 23 26t24 26q2 4 5.5 6.5t5.5 7.5q6 8 14.5 16.5l19.5 19.5q8 7 16 11t16 12q5 4 11 5.5t11 6.5q11 5 18 9t15 4q4 3 4.5 1t1.5 -2h12q2 -1 7.5 -4.5t12.5 -8.5q16 -8 22 -24t8 -29q2 -10 -0.5 -23t-4.5 -25q-1 -1 -1 -1.5t-1 -1.5
l-1 -1v-2q0 -1 1 -2q0 -4 -2.5 -4t-3.5 -2q-1 -4 1.5 -8.5t0.5 -7.5q-1 1 -3.5 1t-2.5 -2v-4v-3q-3 -4 -4.5 -8.5t-8.5 -9.5q-2 -5 -2 -6.5v-3.5q-3 -11 -1.5 -16.5t-2.5 -18.5q-11 0 -11.5 -6t-3.5 -14q-2 -1 -3 -1t-3 -2t-3 -5t-6 -3q-1 -5 -3.5 -7.5t-3.5 -4.5
q-10 -9 -16 -19t-15 -23q-4 -4 -10.5 -8.5t-11.5 -7.5q-2 -3 -4.5 -4t-4.5 -4q-8 -6 -15 -13.5t-12 -14.5q-5 -2 -9.5 -7.5t-10.5 -7.5q-5 -4 -9.5 -9t-11.5 -10q-5 -5 -9 -11.5t-6 -8.5q-7 -2 -10.5 -6t-6.5 -9q-11 -9 -22 -18.5t-22 -17.5q-4 -4 -7 -9t-7 -12
q-12 -11 -24 -19t-19 -19q-1 -4 -3.5 -8t-5.5 -9q-4 -14 -7 -27.5t-11 -27.5q-4 -9 -7 -14.5t-5 -10t-3 -9.5t0 -15q-2 -2 -6 -6.5t-7 -12.5q0 -2 -3.5 -11.5t-4.5 -11.5q12 7 19.5 14.5t14.5 15t17 16.5t27 20q9 5 14 12t10 12q8 7 17 10.5t14 9.5q5 4 12.5 8t17.5 9
q13 8 27 17.5t28 17.5q14 6 31.5 9.5t34.5 10.5q3 1 9.5 2t14.5 3q27 8 66 8q17 0 33.5 -2.5t30.5 -9.5q9 -3 13 -7t11 -15q3 -8 3 -15q0 -11 -12.5 -21t-28.5 -16q-5 -5 -9.5 -12t-9.5 -10q-6 -1 -11.5 -2.5t-11.5 -1.5q-2 -2 -5.5 -6t-8.5 -8q-9 -2 -14.5 -5t-10.5 -7
q-3 0 -5.5 1t-5.5 -1q-2 -2 -7 -3t-9 0q-9 -6 -9 -7q-3 0 -8 -1.5t-8 -3.5q-5 -1 -7 -2l-4 -2q-8 -1 -21 -1t-21 -2q-7 0 -17.5 -1.5t-18.5 -2.5zM446 684q-3 -3 -7.5 -4.5t-5.5 -3.5q-7 -4 -10 -8.5t-8 -9.5q-5 -3 -9 -4t-8 -6q-6 -6 -12.5 -13t-11.5 -15q-6 -5 -10 -11
l-6 -9v-1.5t-2 -3.5q-6 -11 -13.5 -21t-12.5 -18q-26 -36 -44 -76t-38 -73q0 -2 -1 -3.5t1 -0.5q0 3 3 1q-1 -6 -2.5 -13.5t-3.5 -12.5q10 0 15 17q8 2 11.5 5t8.5 8q11 12 19 20t19 16q3 4 7.5 7.5t9.5 5.5q1 2 2 6t4 5q9 15 19.5 24.5t21.5 22.5q12 11 22 24.5t21 23.5
q7 11 11.5 18.5t7.5 18.5q0 4 1 6h2q1 0 3 -0.5t4 -0.5q1 5 3 7.5t0 5.5q5 8 6 16.5t3 13.5q3 4 8 9t7 13q4 7 4 13.5v17.5q-6 1 -12 -1t-11 -4.5t-9.5 -6t-6.5 -5.5zM434 239q-11 -8 -21 -11.5t-18 -9.5q-2 -1 -4.5 -3.5t-4.5 -2.5q-2 -1 -5.5 -2t-6.5 -2
q-11 -8 -21.5 -13.5t-18.5 -10.5q-2 -3 -7 -4.5t-10 -9.5q7 3 11.5 3t11.5 1q5 4 9.5 7.5t12.5 5.5q13 7 29.5 11t33.5 11q15 9 28 18.5t29 14.5q2 2 4 3t-5 1q-11 -2 -22 -3.5t-25 -3.5z" />
    <glyph glyph-name="l" unicode="l" horiz-adv-x="457" 
d="M277 565q-24 -38 -44.5 -83t-40.5 -86q5 1 9 5l7 7q6 5 10.5 12t9.5 12q1 2 3.5 3.5t4.5 3.5v4q2 2 5.5 6t4.5 6q13 17 25.5 32.5t21.5 33.5q6 9 10 19.5t9 21.5q1 1 3.5 1.5t3.5 1.5q14 29 25 55.5t28 52.5v6q0 3 -4 3q-14 -6 -23 -19t-17 -23q-4 -4 -8.5 -11t-7.5 -10
q-4 -4 -5.5 -6.5t-4.5 -4.5q-8 -11 -14 -22t-11 -21zM484 166q2 -7 1.5 -13t-5.5 -14q-5 -6 -6 -9t-7 -6q-4 -3 -5 -4.5t-5 -4.5q-2 -2 -5.5 -4.5t-7.5 -4.5l-7 -7t-4 -3t-4.5 -2.5t-6.5 -5.5q-2 -2 -9.5 -7.5t-9.5 -8.5q-8 -8 -11.5 -10.5t-13.5 -9.5q-5 -8 -8.5 -10
t-11.5 -7q1 -5 -2 -7.5t-4 -4.5q-2 -1 -1 -2.5t1 -2.5q-2 -2 -3.5 -2t-1.5 -2q-1 -1 0 -2t0 -1q-1 -1 -1.5 -1t-1.5 -1t-2 -1q-8 -14 -16.5 -21.5t-19.5 -21.5q-5 -6 -9.5 -12.5t-10.5 -11.5q-25 -25 -55 -43.5t-64 -21.5q-17 -1 -34.5 1.5t-28.5 7.5q-1 0 -2 1.5t-2 1.5
q-5 2 -13.5 4.5t-13.5 7.5l-3 4q-11 6 -19.5 23.5t-15.5 30.5q-5 8 -6 13q-9 9 -10 12q-2 5 -5 13l-6 16q-6 22 -8 49t-7 55q-9 -5 -15 -8.5t-12 -4.5q-11 -2 -16 0.5t-5 3.5l4.5 4t10.5 9.5t12 10.5t8 8q3 4 3.5 5l1 2l1.5 3t6 7q2 17 5 31t5 19q8 33 15 62t18 61
q7 20 17 39t18 40q8 18 13.5 35.5t16.5 34.5q2 2 4.5 3.5t4.5 3.5q2 4 3 7t4 7l16 22q2 2 3.5 5.5t4.5 6.5q4 6 8.5 10.5t8.5 10.5q2 3 3 7t3 8l4.5 4.5t2.5 4.5q2 2 2.5 5t2.5 4l12 15q4 7 6.5 13.5t11.5 7.5q10 16 22.5 29.5t25.5 26t25.5 25t23.5 26.5q13 0 18.5 6
t11.5 12q16 2 24.5 -2.5t17.5 -7.5q5 -5 14 -6.5t13 -9.5q0 -14 -0.5 -30t-2.5 -27q-1 -2 1 -4q1 -1 2 -1q-1 -8 -4 -14t-5 -11q-1 -5 -1.5 -11.5t-2.5 -10.5q-2 -2 -4.5 -15.5t-5.5 -22.5q-18 -45 -49.5 -84.5t-62.5 -76.5l-10.5 -14t-11.5 -14q-2 -1 -3 -1t-2 -1
q-5 -11 -16 -21.5t-21 -20.5l-4 -1q-1 -3 -1 -6.5t-1 -5.5q-2 -3 -5 -4t-4 -3q-4 -3 -5 -5t-4 -7q-4 -3 -7 -10t-8 -13l-13.5 -18t-13.5 -21l-6 -25q-2 -5 -4.5 -9t-4.5 -8q-4 -15 -6 -32t-6 -36q-2 -14 -7.5 -31t-6.5 -33v-11t0.5 -7t1 -6.5t1.5 -9.5q-1 0 0 -4
q2 0 2.5 0.5t2.5 0.5q-2 -19 1.5 -35t10.5 -30q1 -2 3.5 -3.5t3.5 -3.5l3 -8q5 -9 10 -17t14 -13q4 2 8 3.5t7 3.5l24 18l23 20l34 32q22 21 46 35t47 34q13 10 19 14.5t20 13.5l23 14q3 1 4 2.5t3 2.5q10 7 14 8.5t16 10.5l3 1.5t3 2.5l15 9q11 5 14 8t12 6z" />
    <glyph glyph-name="m" unicode="m" horiz-adv-x="598" 
d="M263 250q-7 1 -8 -3.5t-8 -1.5q-2 -2 -1.5 -3.5t-1.5 -2.5t-4 -1t-2 1q0 -2 0.5 -2.5t-0.5 -2.5q0 -1 -1.5 -0.5t-2.5 -0.5q-8 -8 -15 -17t-16 -14q-3 -2 -5 -4q-3 -1 -5 -8q-4 -9 -9 -11q-3 -2 -10 -6.5t-8 -8.5q-11 -14 -22.5 -27t-23.5 -24q-7 -10 -12 -16t-9 -10.5
t-8.5 -10t-10.5 -14.5q-2 -3 -9.5 -14.5t-10.5 -13.5q-5 -3 -6.5 -6t-6.5 -11q-1 2 -7.5 -0.5t-8.5 -3.5q-1 0 -2 0.5t-3 -0.5q0 -1 -1 2.5t-5 0.5q-3 0 -5 -1.5t-1 -3.5q-2 0 -4.5 1.5t-3.5 3.5q-10 -3 -15.5 -0.5t-12.5 6.5q-5 5 -8.5 9t-5.5 6q-1 4 1.5 7.5t0.5 5.5
q-3 5 1 23t11 42t16 51t17.5 50t15 39.5t8.5 20.5q5 5 6 13.5t5 15.5q1 1 2.5 0t4.5 -1q0 2 1 2h3h4q3 2 5.5 4t7.5 2q3 1 4.5 2.5t0.5 -0.5q2 2 3 -0.5t3 -2.5q2 -1 3 0.5t2 0.5q4 -3 7.5 -4.5t4.5 -5.5q5 6 11.5 2t14.5 -6q7 -3 12.5 -6.5t7.5 -7.5q-2 -3 -3.5 -9
t-1.5 -11q-5 -14 -8 -24t-6.5 -19t-7 -19.5t-7.5 -25.5q7 6 9 8l3 3t2 3t6 8q5 5 6 7q23 27 54 51.5t65 36.5q13 5 22.5 7.5t20.5 -0.5q4 -2 6.5 -3.5t7.5 -2.5q8 -3 11.5 -2.5t8.5 -7.5q8 -10 4 -25t-6 -26q-4 -11 -6 -20t-4 -20q8 9 15.5 19t18.5 21q8 10 16.5 17.5
t17.5 15.5q4 3 7.5 3.5l10.5 1.5l6 2t5 2q2 0 2 -0.5t2 -2.5l7 3.5t5 1.5q4 1 8 -0.5t9 -2.5q2 0 3.5 0.5t3.5 0.5q17 -7 26 -17t5 -35q-2 -14 -7.5 -33.5t-10.5 -35.5q-4 -7 -6 -12t-6 -11q-2 -16 -3.5 -30t-6.5 -25q-2 -11 -4 -23.5t-2 -23.5q0 -23 6 -39
q2 -10 10.5 -17.5t22.5 -2.5q2 -1 5 1t3 10q4 -4 7.5 -1t5.5 1q3 -2 5 -7.5t-2 -9.5q-1 -2 -4.5 -4t-5.5 -4q-1 -1 -1 -2h-1q-1 -2 -1 -4.5t-2 -4.5q-3 -4 -7.5 -4h-5.5q0 -4 1.5 -3.5t1.5 -2.5q-4 -1 -8.5 -1.5t-8.5 -3.5q-2 -3 -3 -3q-5 -2 -11.5 0t-14.5 5q-4 1 -7 -0.5
t-5 0.5q-4 0 -9 3.5t-10 5.5q-11 4 -19 10t-15 19q-8 6 -10.5 10t-0.5 13q-1 1 -3.5 3t-3.5 3q0 2 0.5 4t0.5 4q0 3 -1.5 5.5t-2.5 4.5q-3 14 -4 25t-1 25q1 7 0 15t0 16q2 8 4.5 16t1.5 16q-23 -25 -42 -53.5t-48 -45.5q1 -5 -2.5 -6t-6.5 -2q-6 2 -11 -1t-8 -2
q-5 2 -12 10.5t-12 13.5q-1 1 -1.5 2t-2.5 2t-3 2q0 8 -3.5 13.5t-1.5 13.5q0 7 3 16t7 16q4 17 11.5 34.5t15.5 34.5q8 19 14 36.5t13 35.5z" />
    <glyph glyph-name="n" unicode="n" horiz-adv-x="368" 
d="M275 292q3 -24 3 -48t-4 -44q-2 -5 -5.5 -12.5t-5.5 -13.5q-3 -15 -5.5 -30.5t-7.5 -31.5q-3 -8 -5.5 -15t-4.5 -14q-5 -16 -9.5 -30t-8.5 -29v-18q-3 -9 -4 -20t4 -21q2 -3 6 -8t9.5 -9t13 -6t15.5 0q-1 -5 -1.5 -11t-5.5 -10q-1 -1 -4.5 -1h-4.5q-2 -2 -3 -4t-3 -4
q-12 -2 -27.5 4t-26.5 11q-13 7 -21.5 16.5t-14.5 15.5q2 9 -4.5 18t-10.5 21q-1 5 -1.5 11.5t-0.5 13.5q-5 57 9 110q3 16 9.5 30t4.5 28q-2 -7 -6.5 -10.5t-8.5 -8.5q-2 -2 -2.5 -6t-3.5 -9q-1 -1 -3.5 -2t-2.5 -4q-8 -10 -14 -19t-13 -19q-6 -7 -11 -14t-12 -13
q-2 -5 -4.5 -9.5t-4.5 -8.5q-2 -2 -5 -4.5t-5 -7.5q-3 -5 -6.5 -9.5t-5.5 -8.5q-4 -3 -10 -5.5t-8 -7.5q-1 -3 -4 -3.5t-6.5 -1.5t-5 -2.5t0.5 -7.5q-6 6 -16 7t-20 3q-13 16 -13 47q0 30 7.5 64.5t12.5 58.5q8 21 12 43.5t12 46.5q2 2 4 3t5 1q-1 8 -3 15t5 9q4 2 14 1
t20 -3.5t18.5 -6t10.5 -5.5q0 -2 1 -4q0 -2 0.5 -3t0.5 0q1 -5 0 -11.5t-6 -15.5q-3 -20 -5 -41t-7 -41q3 -3 4 0.5t3 5.5q3 2 5.5 3t5.5 4q-1 1 -1 2v3q0 1 2.5 0.5t2.5 0.5q1 1 1 2t1 3q12 12 27 28t33 32q2 1 4.5 1.5t6.5 2.5q2 5 6 7l8 4v3t1 3q3 2 6 2.5t6 2.5
q6 5 9 9.5t8 6.5t9.5 -0.5t9.5 -1.5q9 -2 17 0t16 0q4 -2 5.5 -6t6.5 -4z" />
    <glyph glyph-name="o" unicode="o" horiz-adv-x="384" 
d="M407 172q2 -27 -10 -48q-7 -6 -5.5 -5.5t-5.5 -3.5q-5 -2 -9.5 -6t-11.5 -7q-14 -5 -24 -7t-22 -9q-9 -3 -19.5 -3.5t-21.5 -4.5q-15 -4 -25 -3.5t-24 3.5q-1 0 -5.5 -5.5t-7.5 -7.5q-3 -4 -5.5 -7.5t-2.5 -4.5q-4 -5 -4.5 -4.5t-1.5 -1.5q-3 -7 -11.5 -12t-15.5 -10
q-2 -2 -3 -3.5t-3 -2.5q-1 -2 -3 -2.5t-4 -2.5q-4 -3 -5.5 -5t-3 -3t-4.5 -2t-9 -4q-5 -3 -14 -5.5t-19.5 -4t-21 -2t-17.5 1.5t-14 6.5t-12 8.5q-21 18 -39 43t-16 61q2 8 2 16t1 13q2 2 4 3.5t4 6.5q1 2 1 5t1 5q1 3 3 5t3 5q2 3 1.5 6t0.5 5q2 5 5.5 8.5l5.5 5.5
q2 5 2.5 9t2.5 7q4 10 6 13.5t10 11.5q5 5 7.5 7t10.5 0q5 -1 7 2.5t2 7.5q2 9 5.5 11.5t3.5 3.5q-4 6 -10 5.5t-11 2.5q-3 8 -1 21q23 -1 50.5 2t51.5 -2q12 -1 22.5 -4.5t21.5 -6.5q15 -5 25.5 -14t18.5 -22q5 -6 10.5 -8.5t7.5 -13.5q2 -4 4 -21.5t-1 -29.5
q-2 -11 -4.5 -18.5t-5.5 -14t-6.5 -13.5t-6.5 -17q13 -1 22.5 -1.5t18 0.5t16.5 3l20 5q13 3 22 6t16 6.5t13.5 7.5t15.5 10q5 3 7 6t3.5 5.5t3.5 5.5t7 6zM116 58q9 5 16.5 11t18.5 23q-24 12 -41 30.5t-30 41.5q-1 -1 -1.5 -1t-1.5 -1q-8 -7 -15 -19.5t-11.5 -27.5
t-6.5 -30.5t0 -29.5q3 -11 14 -14.5t18 -2.5q9 2 21.5 8.5t18.5 11.5zM184 221q-4 8 -12 16q-4 4 -8 7q-3 5 -13 9.5t-17 9.5q-5 2 -16 2.5t-14 0.5q8 -8 7 -20t1 -23q11 -1 15.5 -7.5t4.5 -17.5q-1 -4 -7 -3t-9 -2q2 -7 1.5 -14.5t1.5 -14.5q1 -2 3.5 -3t3.5 -5
q2 -3 3.5 -5.5t2.5 -4.5q8 -11 15.5 -19.5t20.5 -13.5q9 15 18 33t2 41q7 5 2.5 15.5t-6.5 18.5z" />
    <glyph glyph-name="p" unicode="p" horiz-adv-x="514" 
d="M480 89q-3 -2 -11.5 -7t-18.5 -10q-11 -6 -24 -12q-5 -2 -12 -5.5t-13.5 -6.5t-12.5 -5t-9 -1q-13 -8 -22.5 -10t-28.5 -8q-7 -3 -9.5 -4t-4 -2t-3 -1.5l-7.5 -2.5l-17 -6q-3 -1 -10 -3.5t-9 -3.5q-2 0 -9 -1.5t-9 -3.5q-9 -5 -12.5 -4.5t-6 1.5t-5.5 1t-11 -4
q-9 -6 -19 -9t-18 -5q-14 -5 -30.5 -8.5t-33.5 -3.5q-9 0 -17.5 1t-17.5 5q-6 5 -10.5 11t-15.5 8q-3 -2 -4 -5.5t-3 -6.5q-7 -8 -15 -11q0 -7 -2 -11t-4 -7.5t-3.5 -7.5t0.5 -10q-11 -11 -14.5 -24.5t-8.5 -30.5q-5 -14 -11 -29t-11 -31q-1 12 2.5 24.5t8 24.5t8 24t3.5 23
q2 4 4.5 10.5t4.5 11.5q-3 4 -5 -2.5t-4 -8.5q-3 -5 -4 -9.5t-2 -7.5q-8 -14 -12 -26t-9 -29q-1 -3 -1 -7q0 -2 -1 -4q-4 -6 -6 -12t-5 -14q-1 -12 -5 -19q-1 -6 -1 -14.5t-1 -15.5q-1 -5 -3 -9t-4 -9q-5 -35 -5 -66t-2 -59q2 0 2 -2.5v-3.5q2 -1 2 2q2 4 3 3t0 -4
q-1 -2 -1 -5t-3 -2q2 -11 4.5 -19.5t4.5 -21.5q2 -5 3.5 -11.5t3.5 -17.5q-18 -10 -28.5 -1.5t-18.5 28.5q-10 23 -10 39q-6 17 -6.5 42.5t-1.5 50.5q2 71 13.5 136t28.5 126q11 60 29 115t37 112q12 31 19.5 58.5t12.5 56.5q-1 1 -1 2v1q-1 15 -2.5 28.5t-6.5 27.5
q16 3 29.5 1.5t24.5 -12.5q-1 1 4 -1t11 -5t10.5 -6.5t1.5 -6.5q2 4 4 2.5t7 -3.5q-2 -5 1 -8t4 -14q2 -3 5 0t4 -3q-1 -5 4 -6.5t6 -6.5q3 -11 1 -23.5t-2 -23.5l28.5 9.5t35 10t39 6.5t40.5 0q12 -4 23 -6.5t19 -10.5q5 -2 6.5 -4.5t3.5 -2.5l22 -13q1 -1 1 -3t1 -4
q3 -1 6.5 -8t5.5 -14q3 -15 0.5 -41t-24.5 -52q4 0 1.5 -5t-6 -11.5t-6 -11.5t2.5 -5q10 1 35 10.5t54.5 23t57.5 28.5t45 29q3 2 7 4q8 4 10 2q1 -2 -1 -8t-4 -14q-3 -9 -7 -20q-8 -9 -11 -12.5t-4 -4.5t-1 -0.5t-3 -2.5q-5 -5 -17 -13t-17 -12zM292 179q2 2 6.5 8.5
t2.5 14.5q-26 0 -53 -9.5t-50 -18.5q-4 -4 -9.5 -5.5t-13.5 -5.5l-2 -3l-9 -3q-8 -6 -13 -11.5t-15 -11.5q-9 -5 -14 -8t-8 -8q-1 -2 -2.5 -2t-1.5 -1q-1 -2 -0.5 -3.5t0.5 -3.5q-3 -3 -5 -4t-3 -2q-5 -10 -7.5 -23t-10.5 -19q12 2 22.5 8.5t20.5 8.5q5 2 10.5 2.5t7.5 2.5
q5 2 6.5 5t5.5 7q1 0 3 -1t3 1q3 1 7 5t9 4q10 9 23 15t26 14q28 8 40 23q9 6 13 11t11 13z" />
    <glyph glyph-name="q" unicode="q" horiz-adv-x="560" 
d="M32 -294q0 -1 -0.5 0.5t-0.5 3.5q0 1 0.5 -0.5t0.5 -3.5zM581 149q5 -1 8.5 -3t-0.5 -8q-2 -5 -11.5 -13t-14.5 -10q-16 -4 -27.5 -6.5t-13.5 -2.5t-6.5 -2t-10 -5t-10 -5.5t-5.5 -1.5q-2 1 -9 0t-15.5 -4t-15.5 -6t-8 -5q-16 0 -25.5 -10t-22.5 -15q-6 -5 -11.5 -6.5
t-11.5 -7.5q-12 -10 -21 -16t-24 -15q-5 -6 -9.5 -9.5t-10.5 -7.5q-7 -13 -16 -14q-2 -3 -5 -4t-5 -3q-2 -3 -4.5 -3t-4.5 -2q-2 -1 -3 -3.5t-4 -4.5q-5 -2 -9.5 -8.5t-7.5 -8.5q3 -7 6.5 -10.5t5.5 -8.5q2 -4 4.5 -8.5t2.5 -9.5q2 -4 3.5 -5.5t2.5 -4.5q0 -5 2 -8
q2 -9 4 -14t4 -12q5 -24 5 -50t1 -52q-1 -8 -1 -15t-1 -12q1 -5 2.5 -7.5t3.5 -7.5q-3 -8 -1.5 -14t2.5 -11q-1 -5 -2 -10.5t-1 -10.5q-2 -27 -10.5 -50.5t-22.5 -48.5q-3 -4 -4 -10t-3 -10q-4 -3 -5.5 -7.5t-5.5 -7.5q-8 -11 -17 -23t-18 -21q-8 -10 -16.5 -19.5
t-14.5 -21.5q-4 -5 -8.5 -6.5t-7.5 -4.5q-2 -3 -2.5 -5.5t-2.5 -4.5t-4.5 -4t-4.5 -4q-8 -6 -14 -13t-17 -11q-7 -1 -12.5 -1.5t-10.5 1.5q-5 0 -12 0.5t-11 4.5q-6 4 -0.5 7t7.5 5q8 3 14 11t1 16q-4 2 -5.5 4t-5.5 4q-4 3 -5.5 7.5t-4.5 6.5q-5 13 -9 21.5t-9 16.5
q-5 10 -7 20.5t-7 21.5q-1 5 -2.5 9.5t-2.5 9.5q-1 7 -0.5 13t1.5 11q-1 11 -4.5 22t-4.5 19q1 3 2.5 5.5t0.5 7.5q2 5 1.5 10.5t-0.5 13.5q2 11 3.5 22.5t6.5 24.5q1 6 2.5 11t-0.5 8q0 4 -1 5t0 3q0 7 1.5 8.5t1.5 2.5q-3 5 -1 13.5t2 15.5l1 2q0 2 2 6q1 4 3 7
q-1 0 -1 -1q-2 5 3.5 11t3.5 10q-2 15 3.5 29t9.5 28q4 19 8.5 36.5t9.5 34.5q4 8 6 14t5 14q0 3 0.5 6t0.5 7l2.5 5t2.5 8q4 8 5.5 13.5t6.5 12.5q5 8 8.5 16t8.5 17q-8 -1 -17 -9t-15 -10q-5 -7 -13.5 -12.5t-16.5 -11.5q-7 -6 -15 -9.5t-16 -11.5q-2 -2 -8 -4t-9 -4
t-6.5 -3.5t-6.5 -3.5q-18 -6 -37 0.5t-29 20.5q-4 4 -6.5 7t-7.5 4q-5 3 -5.5 5.5t-3.5 7.5q-1 1 -2.5 5t-3.5 5q-3 1 -2 4t1 5q-1 3 1 1t3 -2q-1 5 2 11v14q0 4 3 5t7 5q2 3 2.5 6.5t4.5 5.5t4.5 4t1.5 4q4 6 6.5 10.5t7.5 7.5q6 7 13 15.5t14 16.5q7 7 13.5 15.5
t11.5 16.5q3 3 4 7t3 7q3 4 6.5 7.5t5.5 7.5q4 0 6 2q4 0 4.5 1l2.5 5q4 5 5 10q3 2 6.5 4t8.5 7q2 4 4 10q3 3 5 5.5t5 4.5q3 4 7.5 5.5t6.5 5.5q2 2 5.5 3t5.5 5q3 3 4 5q0 2 1.5 1.5t3.5 0.5q1 3 1 4q2 1 2.5 0.5t2.5 1.5q1 5 5.5 5.5t7.5 2.5q5 5 11 7t14 7q4 3 5.5 4.5
t6.5 -0.5q3 -2 8.5 -2h11.5q8 -2 16 -3.5t18 -6.5q5 -4 11.5 -9.5t8.5 -13.5q4 -8 6.5 -14.5t3.5 -14.5q5 1 6.5 6t4.5 6q5 2 5.5 4t2.5 3q3 1 5 0.5t7 -1.5q5 5 12 2.5t12 -4.5q8 -4 17 -6.5t19 -5.5q7 -4 10.5 -4.5t5.5 -5.5q1 1 3 -1.5t3 -3.5q0 -4 -2.5 -8t-0.5 -7
q-1 -2 -7 -6q-2 -8 -8.5 -16.5t-6.5 -19.5q-2 -9 -7 -18.5t-10 -17.5q-1 -8 -7 -12t-9 -11q-4 -11 -10.5 -31t-13.5 -29q17 10 28 13.5t25 12.5q12 8 28.5 15.5t32.5 13.5q3 2 15.5 6t26 8t24.5 6.5t12 2.5q11 1 29.5 5.5t28.5 6.5q18 2 24.5 2.5t11.5 -0.5q4 -1 9 -1t9 -1z
M42 -228q-1 4 1.5 5t-1.5 2q1 -2 0 -3t0 -4zM115 143q11 5 18.5 12.5l16.5 16.5q6 3 14.5 6t17.5 13q4 4 9 6t6 8q2 8 1.5 14.5t-0.5 12.5q-1 11 -2 24.5t-14 15.5q-9 0 -17 -5.5t-10 -8.5q-11 -8 -18.5 -14.5t-15.5 -13.5q-17 -14 -33.5 -31t-31.5 -35l-12 -16l-12 -16
q-2 -5 -6 -7t-6 -6q-2 -3 -2.5 -5t-5.5 -6q-2 -3 -2.5 -7.5t-4.5 -8.5q-2 -2 -3.5 -5t-3.5 -5q-6 -11 -10.5 -19.5t-7.5 -21.5q20 10 37 23.5t32 24.5q17 13 33 26.5t33 27.5zM193 -218q2 11 3.5 22.5t-3.5 25.5q-1 7 -3 20t-10 18q-1 0 -4 -5q0 -2 -1.5 -3t-2.5 -4
q-3 -9 -7.5 -16.5t-7.5 -11.5q-1 -5 -2 -8t-1 -6q0 -4 -1.5 -5t-2.5 -3q-2 -6 -2 -10.5t-2 -7.5q-4 -5 -4 -10q0 -2 -2 -3.5t-3 -4.5t-1 -11q-4 -8 -5.5 -15.5t-3.5 -13.5q-2 -8 -4 -15t-4 -15q0 -6 -1.5 -15t1.5 -14q4 5 4.5 12t2.5 13q-2 -18 -3.5 -38.5t-1.5 -36.5
q1 -4 0.5 -8t0.5 -9q-1 -9 0 -13q-1 -5 0.5 -9t2.5 -9q2 -13 2.5 -27.5t4.5 -30.5q-4 3 -4.5 -1t0.5 -6q3 0 3.5 5.5t0.5 8.5q9 11 11 21q5 11 8.5 22.5t6.5 25.5q8 24 14 50t8 49q1 12 4.5 20.5t5.5 19.5q1 14 1.5 27t1.5 25z" />
    <glyph glyph-name="r" unicode="r" horiz-adv-x="328" 
d="M144 248q5 -10 16 -10t19 -4q5 -3 9 -5.5t8 -6.5q7 0 10 -4l2 -2q0 -1 1 -2q6 -3 7.5 -6.5t6.5 -10.5q3 -2 5 -3.5t5 -3.5q-2 -11 2.5 -14.5t9.5 -6.5q-5 -7 -9 -14.5t-9 -12.5q-3 -12 -7 -26t-9 -25q0 -1 -2.5 -3t-3.5 -3q-4 -9 -5.5 -20t-3.5 -23q-5 -20 -10 -44.5
t-1 -50.5q2 -9 4 -19t7 -16l1 -3q4 -3 8 -3t6 -2q4 -4 2 -5t2 -6q11 -1 20.5 1.5t20.5 3.5q-7 -8 -17 -12.5t-18 -6.5q-28 -5 -53 5t-36 27q-3 3 -6 13t-5 14q-2 5 -3.5 9t-2.5 9q-4 12 -5 26.5t-1 29.5q0 24 3 49.5t8.5 49.5t12 45t13.5 36q-2 8 -9 10t-13 7q-4 0 -6 1.5
t-4 3.5t-3.5 3t-4.5 -1q-6 -8 -8 -11t-4 -5.5t-4 -5.5t-8 -10q-2 -3 -11.5 -9t-10.5 -8q-4 -11 -10 -14t-14 -11q-9 -11 -17 -15t-19 -12q-40 -2 -40 10q13 11 25 20t17 16q11 13 14.5 16.5t11.5 12.5l9.5 9.5t14.5 16.5q7 10 9 13.5t7 12.5q-2 3 -5.5 6t-7.5 6
q-3 4 -3.5 4.5t-0.5 1v2t-2 7.5q0 1 -3 4t-3 4q-1 7 0 16.5t2.5 19t4 18t4.5 13.5q3 12 11 28q1 1 3.5 1t2.5 1q1 2 0.5 3.5t-0.5 2.5t3 1q1 0 3 -1q1 2 0 3.5t0 1.5q1 1 3 2t2 2q2 5 7 11t12 13q5 5 17 17.5t19 17.5q2 2 5.5 2t6.5 4q1 0 2 0.5t3 -2.5q9 -9 19.5 -15
t18.5 -15q0 -6 2 -6q2 -35 -4 -59t-15 -49q-5 -16 -14 -30t-17 -30zM136 359q-2 -10 -7.5 -18.5l-11 -17t-9 -18.5t-0.5 -22q8 19 17 34.5t15 30.5q2 3 4 7.5t0 8.5q-1 -3 -3.5 -3t-4.5 -2z" />
    <glyph glyph-name="s" unicode="s" horiz-adv-x="382" 
d="M394 157q8 2 10.5 0.5t2.5 -4.5q-1 -4 -4 -9q-5 -6 -10 -15.5t-11 -13.5q-5 -4 -7.5 -5.5l-5 -3l-5 -3t-8.5 -5.5q-3 -2 -4.5 -2.5l-3 -1t-4.5 -2l-9 -4.5q-10 -6 -26.5 -12.5t-33.5 -8.5l-6.5 -3t-14.5 -6.5t-14.5 -7t-7.5 -4.5q2 -11 0.5 -15t-4.5 -15l-2 -8t-4 -8
q-1 -1 -2 -2.5t-3 -3.5l-19 -19q-6 -8 -13.5 -13.5t-12.5 -11.5q-13 -5 -25 -12t-29 -14q-11 -3 -25.5 -6t-32.5 -1q-8 2 -12 5t-14 7q-8 7 -19 13t-15 16q0 4 1 6.5t3 5.5t4.5 9t7.5 8q1 2 0.5 0.5t0.5 -0.5q2 1 5 3q5 11 14 18t17 16q19 17 45.5 34t46.5 28
q-10 15 -18 20.5t-14 19.5l-3 3.5t-6 8t-6 8l-3 3.5q-5 7 -7 12t-4 9t-2 8q-3 -4 -6 -6t-6 -4.5t-7 -6t-11 -10.5q-5 -4 -8.5 -7.5t-14.5 -10.5q-7 -4 -14 -10t-15 -8q-15 -4 -24.5 3.5t-11.5 12.5q7 5 11.5 8.5t8.5 6.5t7.5 5.5t8.5 6.5q17 13 28 25.5t24 22.5l16 14l9 12
q2 2 4.5 5.5t3.5 7.5q4 1 3 -1t3 0q1 2 3.5 7.5t5.5 8.5l6 -4q2 5 3 9.5t4 8.5q1 7 8 10t10 8q5 8 11.5 10t9.5 10q2 1 0.5 3.5t-0.5 2.5q11 0 21 -2l1 -4q1 1 4 2.5t8 -1.5q10 -10 25.5 -17t28.5 -16q0 -6 -2.5 -9t1.5 -6q1 -7 -3 -7.5t-9 -3.5q-10 -14 -32.5 -25.5
t-40.5 -24.5q-7 -5 -11 -9.5t-6 -10.5q-4 -10 -1.5 -18t9 -14.5t15 -13t15.5 -13.5h1q7 -7 14.5 -15.5t11.5 -14.5q23 3 49 11q14 2 26.5 5.5t23.5 8.5l25 5q12 7 26.5 13t13.5 6q1 1 4 2q2 1 4.5 2t5.5 3zM85 -28q23 7 43 16t28 30q-14 -3 -24.5 -11.5t-19.5 -14.5
q-9 -5 -16 -8.5t-11 -11.5z" />
    <glyph glyph-name="t" unicode="t" horiz-adv-x="293" 
d="M255 593q-4 -14 -12 -28.5t-17 -31.5q-6 -15 -12.5 -32t-11.5 -35q2 -5 5.5 -5t6.5 1q15 -2 24.5 -1.5t23.5 0.5q12 -2 24.5 -3t26.5 -1q41 -3 84.5 -7t82.5 -18q-5 -2 -4.5 -3.5t1.5 -5.5q-2 -1 -4 -2.5t-4 0.5q-1 -4 1 -2.5t1 -1.5q-15 -1 -30.5 0t-30.5 -1
q-8 0 -15 0.5t-14 -1.5q-11 -1 -23.5 -1.5t-25.5 1.5q-17 -2 -32.5 -3.5t-31.5 -3.5q-4 -1 -10 0q-2 -2 -4.5 -1t-4.5 1q-1 0 -1.5 -1t-1.5 -1q-5 -2 -9 -3t-8 -1q-7 2 -15 -0.5t-13 -3.5q-14 2 -19 -3q-2 -3 -8.5 -14t-8.5 -18q-2 -5 -3 -8t-3 -8q-3 -8 -4 -15t-5 -17
q-2 -6 -4 -9t-1 -6q-2 0 -1 -4t2 -6q-3 -5 -5.5 -11t-3.5 -14q-5 -14 -9 -29t-9 -30q0 -3 -3 -8t-3 -7l-2 -16t-3 -13q-3 -8 -2.5 -14.5t-4.5 -10.5q-1 -5 -1 -10t-2 -12q-2 -5 -2 -13.5t-4 -16.5q-1 -2 -2.5 -4t-1.5 -3q1 0 1 -1v-3q-1 -1 -2 -1t-1 -1q-1 1 -0.5 -2.5
t0.5 -5.5t-1 0t-1 0q-3 -7 -3.5 -17t-2.5 -15l-2 -2v-8.5t2 -9.5q-2 -28 2.5 -51.5t15.5 -38.5q1 -4 0 -2t-1 -2q6 -7 11 -14t16 -5q8 -2 15 1.5t12 9.5q2 2 2.5 5.5t5.5 6.5q4 -5 0.5 -9.5t-3.5 -7.5q-2 -2 -2.5 -4t-1.5 -2q-2 -4 -10 -8q-2 -5 -7 -9t-12 -10
q-5 -3 -8.5 -5.5t-12.5 -4.5q-20 -5 -42 5.5t-35 24.5q-3 4 -3.5 6.5t-5.5 10.5q0 5 -3.5 10.5t-8.5 9.5q-1 4 -2.5 8.5t-0.5 8.5q-2 5 -3.5 11.5t-3.5 11.5q0 9 -2.5 21t-3.5 23q-2 11 -2 22.5v22.5q0 2 -1.5 4.5t-0.5 4.5q0 2 1 3.5t0 3.5q6 8 3 11q-2 4 1 18t5 23
q0 5 2 8.5t1 8.5q3 6 2.5 19t2.5 18q1 3 3 8t2 7q4 14 6 21.5t6 16.5q-2 -2 -7.5 -12t-8.5 -13h-6q1 -2 1 -5q-5 -8 -10.5 -16.5t-8.5 -16.5q0 9 7 21q0 4 2 10q2 2 3.5 4t0.5 4q2 2 1.5 4.5t0.5 4.5q0 2 2 2t2 2q2 1 0.5 2.5t-0.5 2.5q2 2 3.5 2.5t0.5 3.5q1 2 1 5t1 6
q-1 2 0.5 3.5t1.5 4.5q2 3 2 7q1 2 2.5 3.5t1.5 3.5q1 3 0.5 5t-0.5 4q0 1 1.5 2.5t2.5 6.5q2 4 1 7.5t1 5.5t4 4.5t2 5.5q1 5 0.5 7t1.5 7q2 4 4.5 5t3.5 3q1 1 0 3t0 4q3 3 3 2q2 3 1.5 6t-0.5 5t5 5q-2 2 -1 4t2 2q2 8 4.5 12t3.5 9q-1 0 0.5 0.5t-13.5 -3.5
q-16 -1 -31 -1.5t-29 -3.5q-20 1 -39 0.5t-33 4.5q-4 0 -8 1t-10 3q-9 5 -16.5 8.5t-14.5 11.5q-6 4 -12.5 8t-8.5 9q-2 2 -2.5 5t-0.5 5q11 -2 21 0.5t18 5.5q18 8 39 11.5t41 8.5q36 5 70.5 8t76.5 2q10 1 7.5 0.5t0.5 1.5q3 1 3.5 4t2.5 7q1 5 3.5 7t5.5 4q1 2 1 4t1 4
q0 1 2.5 2.5t3.5 3.5q-2 4 -2 5l3 3q10 8 11 14q12 22 31 51q4 5 6.5 11t6.5 8q3 4 4.5 5.5t2.5 4.5q2 1 3 3.5t1 3.5q0 7 10 2q2 0 2.5 1.5t1.5 -0.5q4 0 5.5 1t5.5 1q1 0 4 -1.5t6 -1.5l4.5 -4.5t7.5 -5.5h2v-2q3 -2 5.5 -3t4.5 -6z" />
    <glyph glyph-name="u" unicode="u" horiz-adv-x="499" 
d="M37 12q25 0 43.5 16.5t33.5 32.5h2h3q0 1 -0.5 4t0.5 2q0 1 1.5 0t3.5 0q0 1 -1 3t1 3q1 1 4 2t5 2l4 5q1 1 3.5 1.5t4.5 2.5q5 3 9 10.5t9 12.5q7 5 13 11t12 13q13 12 30 34.5t34 37.5q3 1 5.5 9t11.5 10q9 -1 18.5 -8t18 -16t14.5 -18.5t9 -15.5q0 -11 -2.5 -19.5
t-6.5 -16.5q-2 -4 -4.5 -7t-2.5 -4q-4 -7 -7 -22q-8 -15 -13.5 -36t3.5 -38q10 -4 23.5 0.5t27.5 13t27.5 18.5t22.5 17q11 9 24.5 20t27.5 22.5t27.5 23t23.5 20.5q2 2 6.5 6t9 7t8.5 4t4 -2q1 -11 0 -14.5t-2 -19.5q-3 -5 -9 -10t-17 -16q-3 -4 -9 -10.5t-12 -11.5
q-2 -1 -6 -4.5l-8 -7t-7 -6.5t-4 -3q-8 -7 -11.5 -12.5t-15.5 -10.5q-2 -3 -8.5 -9t-8.5 -7q-5 -5 -16 -14.5t-17 -11.5q-5 -2 -5.5 -2.5t-1.5 -1t-3.5 -2t-10.5 -5.5q-11 -5 -25 -9t-29 -4q-11 0 -22.5 4t-21.5 13q-2 2 -7 6.5t-9 14.5q-2 7 -7 25t-7 29q-8 -1 -10.5 -5
t-5.5 -12q-14 -11 -23.5 -22.5t-26.5 -22.5q-6 -6 -22 -13q-5 -2 -6.5 -4t-3.5 -4q-6 -3 -18 -8.5t-26 -10t-28 -5.5t-23 6q-3 2 -6.5 3t-5.5 6q-4 1 -11 3.5t-7 4.5q-1 0 -1 2q0 1 1 2q-2 1 -7.5 3.5t-7.5 7.5q-1 2 -4.5 13.5t-5.5 16.5q-2 10 -0.5 28t4.5 32q2 22 6 45.5
t9.5 45t12.5 39.5t14 29q2 7 5.5 13.5t4.5 8.5q-3 -1 -2.5 2.5t0.5 6.5q5 -1 3.5 2t-0.5 4q3 2 5.5 5t4.5 4q5 6 6.5 9t4.5 6q4 0 12 -2.5t16 -6t15.5 -8t10.5 -8.5q2 -5 4 -16.5t-2 -25.5q0 -9 -4 -18.5t-10 -23.5q-2 -1 -2.5 -5t-1.5 -7q-3 -5 -7.5 -10.5t-9.5 -14.5
q-1 -3 -1 -6t-1 -7q-5 -2 -7 -7q-2 -4 -3 -9.5t-2 -7.5q-1 -4 -3 -6.5t-2 -4.5q-2 -8 -5 -15t-6 -16q-5 -9 -7 -18.5t-4 -23.5q-1 -9 -3 -17t2 -18z" />
    <glyph glyph-name="v" unicode="v" horiz-adv-x="449" 
d="M420 80q-17 -5 -28.5 -11.5t-25.5 -3.5q-5 1 -11 -3t-15 -3h-12t-19 0.5t-19.5 1t-13.5 1.5q-8 2 -16.5 5.5t-18.5 6.5q-9 -11 -12 -14.5t-5.5 -6.5t-7.5 -8t-20 -19q-2 -2 -7 -4.5t-10 -5.5q-2 -2 -1.5 -4.5t-2.5 -4.5h-3h-2q-1 -1 -0.5 -3.5t0.5 -3.5q-5 -5 -11 -9.5
t-11 -10.5q-2 0 -2 -3t-1 -5q-11 -16 -23 -30t-27 -26q-11 5 -17 3t-17 -5q-11 9 -23 12t-25 13q-2 1 -2.5 2.5t-2.5 3.5q-5 6 -8 23.5t-7 37.5q-5 17 -0.5 39.5t6.5 42.5q5 29 4 59.5t4 61.5l-0.5 10t-1 23t-0.5 23v10q5 9 16 21.5t23 19.5q15 9 38 4t36 -15
q2 -12 7.5 -23.5t6.5 -24.5q2 -14 -2.5 -30.5t-7.5 -33.5q-7 -46 -16.5 -92.5t-16.5 -89.5q9 -3 12 5t8 12q4 5 8.5 9.5t8.5 9.5l16 22t13 22q17 21 31 37.5t25 41.5q3 2 6.5 2.5t6.5 2.5q4 2 7 6t5 5q9 4 19.5 -2.5t24.5 -13.5q3 -1 3 -8.5t-0.5 -16.5t-1 -17t1.5 -9
q19 -10 48 -10q27 0 57 9q20 6 41.5 13.5t43.5 32.5q0 -17 -4 -27.5t-17 -21.5l-15 -19z" />
    <glyph glyph-name="w" unicode="w" horiz-adv-x="608" 
d="M467 178v-9q7 -18 21.5 -27t25.5 -10q13 -4 33 -2q11 0 22 2q10 4 15.5 5t10.5 3t11.5 6.5t17.5 15.5q2 -8 3 -9.5t1 -9.5q-2 -4 -2.5 -6.5t-2.5 -4.5l-8 -8q-4 -4 -5 -6t-2 -3q-5 -2 -15 -7t-24 -10q-16 -2 -28.5 -2t-30.5 1q-11 1 -22.5 4.5t-23.5 7.5q0 -2 -0.5 -4
t-0.5 -4l-11 -37q-2 -6 -3.5 -12t-3.5 -11q-1 -1 -3 -2.5t-3 -3.5q-2 -3 -2 -5.5t-1 -5.5q-4 0 -5 -1q0 -5 -3 -5q-5 -10 -13.5 -18.5t-14.5 -16.5q-3 -1 -4.5 -3t-3.5 -3q-8 -7 -16.5 -14.5t-19.5 -14.5q-7 -5 -16 -9t-20 -6q-7 -1 -12 0.5t-14 1.5q-8 1 -13.5 1t-10.5 2
q-3 0 -4.5 1t-3.5 3q-4 2 -8.5 2.5t-7.5 2.5l-4 4q-3 2 -5.5 4.5t-3.5 8.5q-2 3 -1.5 4.5t-1.5 6.5q0 5 -4 10t-2 11v-1h3q-1 10 -2 19t-1 17q-2 9 0 18t0 16q-15 -9 -30.5 -23.5t-36.5 -28.5q-7 -6 -16 -12.5t-20 -12.5l-37 -19q-5 -2 -11 -2.5t-9 -2.5q-7 -3 -15.5 -5
t-17.5 0q-5 0 -9.5 2t-9.5 3q-6 0 -10 0.5t-10 4.5q-14 6 -19.5 13.5t-9.5 27.5q-3 8 -3.5 14.5t-0.5 16.5q2 8 4.5 15t4.5 14q0 8 3.5 15.5t4.5 15.5q2 14 5 29.5t7 29.5q9 29 20.5 52.5t23.5 46.5q6 14 12 26.5t6 26.5q9 17 12.5 29t8.5 11q10 -2 11 -4t10 -4
q11 -3 20.5 -7.5t15.5 -12.5q4 0 6 -6v-4t2 -6q2 -2 3 -3.5t1 -3.5q2 -1 1 -3.5t1 -5.5v-15t-2 -15q0 -2 -1 -2.5t-1 -1.5v-2q0 -1 0.5 -1.5t0.5 -2.5q-3 -3 -3 -6q-2 -2 -2 -4v-3q-2 -8 -8 -18q-4 -5 -8.5 -11t-7.5 -12q-1 0 -0.5 -1t-0.5 -1q0 -1 -1 -2v-1h-1
q-4 -7 -6 -13t-6 -10q-2 -2 -3.5 -4.5t-3.5 -3.5q-4 -8 -8.5 -15.5t-9.5 -15.5q-4 -7 -6.5 -12.5t-4.5 -10.5l-6.5 -19.5t-8.5 -21.5q-3 -14 -6.5 -28.5t-3.5 -28.5q11 0 19 6t14 12q36 28 70.5 61.5t70.5 62.5q24 22 55 38q8 1 15 8q2 2 1.5 5.5t2.5 5.5q7 0 8 -4q6 5 13 3
t16 -3q11 0 24 -1t13 -10q0 -3 -1 -3q1 -1 8 -4.5t8 -8.5q2 -6 -2 -11.5t-7 -9.5q-2 -5 -4 -9.5t-4 -9.5q-6 -17 -13.5 -35t-15.5 -35q-4 -6 -6 -17t-5 -22q-4 -7 -4 -13q-4 -8 -4 -20q12 3 20 13t16 19t14 19.5t10 24.5q6 19 9 41t9 43q2 2 3 5.5t3 5.5q2 6 3.5 11t-1.5 12
q8 0 9.5 7t1.5 12q5 -2 9 -3.5t8 0.5q0 1 6 0.5t13 -2t14 -5t9 -7.5z" />
    <glyph glyph-name="x" unicode="x" horiz-adv-x="337" 
d="M348 262q0 -4 -3 -7t-1 -5q-7 -4 -8 -8.5t-4 -6.5q-2 -2 -5 -2.5t-5 -2.5q-6 -2 -16 -8q-1 -2 -0.5 -3.5t-0.5 -3.5q-3 -4 -10 -7.5t-9 -7.5q-2 -1 -2 -2t-1 -2q-2 -3 -5 -4.5t-6 -3.5q-3 -3 -3 -9q-5 -3 -6.5 -5.5t-5.5 -7.5q-1 -2 -4.5 -2t-5.5 -1q-2 -2 -3 -4.5
t-3 -3.5q-9 -7 -16 -14.5t-14 -15.5q-7 -5 -12.5 -9t-8.5 -9q-3 -4 -5.5 -8t-8.5 -10q0 -2 -2 -4q-4 -4 -10.5 -8.5t-11.5 -9.5q-3 -4 -10.5 -9.5t-7.5 -8.5q0 -1 3 -3.5t5 -4.5q1 -4 0.5 -5.5t0.5 -3.5q0 -2 0.5 -3.5l1.5 -4.5v-2q2 -5 7 -13.5t10 -12.5q9 -2 17.5 -2h16.5
q-2 -2 -4.5 -5.5t-4.5 -5.5l-1 -2q-4 -1 -6.5 -1.5t-4.5 -3.5q-1 -1 -1 -3t-2 -3q-1 -1 -3 -1t-3.5 -0.5t-3.5 -0.5q-14 -5 -37 -4q-11 0 -23 5q-14 5 -24.5 11.5t-21.5 17.5q-3 8 -4.5 8.5t-9.5 -4.5t-13.5 -6.5t-11.5 -3.5q-3 -2 -7 -4t-6 -3.5t-3 -1.5q-2 -1 -5 -1t-7 -1
q-9 -4 -19 -10.5t-18 -8.5q-4 -2 -6 -1.5t-4 -1.5q-6 -2 -12 -5q-2 0 -3 1.5t-3 1.5q-7 1 -15 0.5t-17 0.5q-2 5 -7 8l21 21t18 23q6 2 12 7.5t10 10.5q11 12 21.5 21t22.5 22q6 2 15 7.5t11 9.5q0 6 -2 14.5t-3 16.5v10t-1 9q0 8 -1 14t-1 14q0 2 -1.5 5t-1.5 4t1.5 2
t1.5 2t-1.5 1t-1.5 2t1.5 3.5t1.5 4.5q0 1 -1.5 1.5t-1.5 1.5q-2 13 1.5 31.5t1.5 33.5q-2 4 -1 7.5t1 5.5q0 4 -1.5 6.5t-1.5 4.5q0 1 1.5 3t1.5 4q2 8 1.5 16t-4.5 14q0 33 -10 63q5 0 9.5 0.5t7.5 0.5q9 0 16 -2.5t18 -4.5q7 -3 13 -5.5t14 -9.5q2 -1 4 -5l7.5 -3t4.5 -5
q1 -2 1 -3.5t1 -2.5q4 -6 7 -12t5 -13q5 -8 5.5 -17.5t1.5 -17.5q2 -23 1.5 -51.5t3.5 -54.5q11 7 22.5 14.5t22.5 13.5q32 18 68 34.5t78 24.5q7 0 12 1q1 0 1 0.5t1 0.5q6 0 16.5 -0.5t11.5 -2.5z" />
    <glyph glyph-name="y" unicode="y" horiz-adv-x="576" 
d="M137 262q5 -14 -0.5 -22.5t-8.5 -17.5q-1 -4 -1 -7.5t-1 -5.5q-3 -4 -4.5 -10t-3.5 -11q-11 -24 -21.5 -50.5t-20.5 -54.5q7 -4 11 2t9 10q31 25 66 54t76 48q17 8 44.5 13t51.5 -1q5 -1 10.5 -2t9.5 -3q3 -1 4.5 -4.5t3.5 -5.5q7 -3 15.5 -8.5t12.5 -10.5q2 -5 5 -15
t6 -17q1 -4 1.5 -9t1.5 -10q3 -14 3 -35q0 -22 -1.5 -46.5t-1.5 -43.5q3 6 8.5 14t12.5 16.5t14 15.5t12 11q4 3 10.5 10t14 14.5t14.5 14t12 9.5q28 21 43.5 35t32.5 19q8 3 14.5 6t26.5 -3q3 -1 3.5 -5.5t0 -9t-2.5 -7.5t-4 -1q-9 -4 -12.5 -5t-6 -2t-6 -4t-13.5 -12
q-2 -2 -12 -9t-12 -9t-5.5 -5t-8.5 -7q-8 -6 -11 -10t-9 -9q-12 -9 -22.5 -20.5t-23.5 -25.5q-1 -1 -7 -7.5t-13 -14.5t-13 -15t-7 -8q-1 -2 -4.5 -7.5t-7.5 -12.5t-8 -13.5t-6 -8.5q-8 -5 -10.5 -15t-6.5 -15q-2 -8 -4.5 -18.5t-6.5 -21.5q-6 -27 -12 -61t-14 -64
q-2 -8 -5 -17.5t-6 -19.5q-1 -2 0 -5.5t0 -6.5q-1 -4 -5.5 -10.5t-7.5 -14.5q-2 -8 -1.5 -10.5t0.5 -4.5t-0.5 -5t-3.5 -10q0 -1 -3 -3t-3 -3q-1 -3 0 -7t0 -6q-4 -8 -6.5 -17.5t-7.5 -17.5q-4 -8 -8 -17.5t-8 -17.5q-2 -5 -2.5 -6t-1.5 -1.5t-1.5 -1t-2.5 -4.5
q-3 -5 -3.5 -5.5l-0.5 -0.5v0l-2 -4q-8 -17 -18.5 -32t-16.5 -32q-8 -17 -14 -34.5t-12 -36.5q-8 -4 -18 -8.5t-18 -9.5q-20 5 -41 7.5t-35 11.5q0 38 10 72.5t19 69.5q6 23 10 38t8 28.5t8.5 28t12.5 35.5q2 7 4 11.5t6 11.5l2 6q2 4 3 8.5t3 8.5q0 1 2.5 3.5t2.5 3.5
q8 26 15 40t21 37q0 1 0.5 4.5t2.5 5.5q1 1 2.5 1.5t3.5 1.5q1 4 1 8.5t2 7.5q0 1 2 1t3 1l1.5 7.5t3.5 5.5q5 8 10.5 14.5t10.5 14.5q2 4 5.5 7t6.5 6q2 2 0 5.5t0 4.5q2 2 5.5 2t5.5 4q4 4 5 8t4 9q5 6 10.5 12.5t10.5 14.5q-2 24 1 45.5t3 43.5q0 14 -0.5 34t-2.5 39
t-7.5 33.5t-14.5 17.5q-9 2 -25.5 -6.5t-27.5 -16.5q-8 -5 -13.5 -10t-13.5 -10q-2 -2 -4 -2t-4 -2q-5 -5 -15.5 -13.5t-15.5 -15.5q-13 -11 -25.5 -25t-25.5 -25q-2 -2 -4 -2t-4 -2q-8 -7 -20.5 -21t-22.5 -21q-4 -1 -8 -1t-8 -1q-14 -5 -25 -9.5t-28 2.5q-5 1 -11.5 6
t-13.5 10.5t-12 11.5t-6 10q-2 6 -3 13t-4 12q-5 22 -3 41t10 42l2 8t3 9q1 4 1 8t1 7q4 8 12.5 20t11.5 21t6 21t5 19q3 7 7 11t7.5 8.5t6 9.5t4.5 13q8 2 17 4t17 2q15 0 31 -4t34 -9zM277 -235q-5 -11 -9 -21.5t-8 -19.5q-6 -19 -10.5 -36t-11.5 -31q3 -10 -1 -21t-5 -24
q-2 -5 -0.5 -10t0.5 -12q-2 -6 -4 -10t-4 -12v-12t8 -10q27 60 47 126t31 144q0 3 -3 3q-8 -13 -15 -27t-15 -27z" />
    <glyph glyph-name="z" unicode="z" horiz-adv-x="651" 
d="M668 143q-4 -7 -5.5 -10.5t-3.5 -6t-4.5 -4.5t-7.5 -7q-1 -1 -7.5 -6t-7.5 -5q-5 0 -11 -5.5t-8 -10.5q-6 -6 -9 -6.5t-9 -5.5l-16 -11q-9 -5 -18 -12t-19 -11q-5 -5 -11 -9.5t-13 -8.5q-1 -1 -6 -4.5t-6 -3.5q-2 -1 -6 -5t-9 -8t-9.5 -7.5t-6.5 -3.5q6 -23 -3 -45
t-14 -45q-6 -8 -6 -11q-1 -7 -3 -12l-4 -10q-2 -2 -2 -4.5t-1 -4.5q-2 -3 -2.5 -4.5t-2.5 -3.5l-3 -8l-1 -13q-6 -8 -9 -14t-6 -13q-6 -10 -10 -17t-8 -15t-8.5 -14.5t-9.5 -14.5q-5 -5 -8.5 -13.5t-8.5 -15.5q-3 -5 -6 -11t-7 -13l-9 -15q-5 -4 -6 -5.5t-2 -2.5t-2.5 -3
t-7.5 -6q0 -5 -1.5 -8t-3.5 -5q-4 -2 -8 -6t-8 -7q-2 -2 -2 -4.5t-1 -4.5q-3 0 -4 -1q-8 -11 -14.5 -21t-17.5 -16l-8 -5q-2 -2 -2.5 -4t-4.5 -4q-5 -4 -9.5 -7t-9.5 -9q-5 -4 -10.5 -6.5t-11.5 -6.5q-7 -2 -7 -3q-2 -1 -7.5 -6t-19.5 -12q-3 -2 -7 -2.5t-7 -1.5
q-6 0 -7.5 -2.5t-4.5 -3.5h-7q-19 2 -27 12l-9 1l-2 3q-3 2 -5 2.5t-4 2.5q-7 0 -7.5 4.5t-6.5 4.5q3 14 -5 21q2 18 4 30.5t5 23.5t8 22.5t13 28.5q8 18 18 36t21 37q4 8 8 14q0 1 2.5 1t3.5 2t0 3.5t0 3.5q2 5 8 11t10 12q9 15 20.5 23.5t9.5 12.5q0 2 4 5.5t6 7.5
q0 3 9 11q0 4 1 7q4 0 4 1q4 4 5 4.5t1.5 0.5t1 0.5t3.5 4.5q10 8 17 16.5t16 16.5q4 4 11 9t10 13q2 -3 3.5 -2.5t2.5 2t1 3.5t-1 2l11 5.5t8 8.5h5q3 2 9 10q12 9 22 17t18 19q4 14 6.5 30.5t4.5 32.5v16l2 2q0 8 -9.5 10.5t-16.5 0.5q-2 -1 -3 -5t-6 -6q-7 -7 -17.5 -17
t-18.5 -18q-5 -3 -8 -7t-7 -8q-2 -1 -3.5 -0.5t-2.5 -0.5l-3 -6q-1 -4 -5.5 -6.5t-6.5 -3.5q-7 -4 -12.5 -8t-12.5 -11q-2 -2 -7.5 -3t-7.5 -2q-2 -2 -6.5 -4t-7.5 -2h-4q-6 -2 -8.5 -3.5t-7.5 -3.5q-4 -1 -6.5 -3t-6.5 -4q-4 0 -8 0.5t-8 -2.5q-4 -1 -8.5 -3.5t-12.5 -2.5
q-6 -1 -20 0q-1 0 -1.5 1t-2.5 2q-11 0 -16 1q-6 1 -8 8q-14 7 -22.5 14.5t-21.5 20.5q6 2 3 4t-5 6q11 5 15.5 13.5t10.5 13.5q3 -2 3 -6.5t5 -7.5q35 35 74.5 63.5t95.5 39.5q2 1 5.5 1t8.5 2q4 2 8.5 10t8.5 16q11 14 17 26t13 29q1 2 3 9.5t3.5 16.5t2 17t-1.5 11
t-8.5 4t-14 1.5t-15 0t-10.5 -1.5q-32 -1 -57.5 -15t-52.5 -27q-10 -9 -24 -13q-14 -8 -26.5 -14.5t-24.5 -13t-25 -14t-28 -16.5q-3 -2 -10.5 -7.5t-11.5 -9.5q-2 0 -6 -2.5t-8.5 -5.5t-8.5 -6t-5 -4q-2 -2 -5.5 -4.5t-6.5 -3.5q-7 -5 -10 -7t-4.5 -2.5t-3.5 -1.5t-6 -2
q1 12 1.5 12.5t1.5 -1t2 0t3 13.5q2 6 9.5 16t9.5 15q1 2 7.5 7t17.5 17q8 8 21 16.5t22 18.5q12 13 25 18.5t34 16.5q8 5 18.5 12t22.5 9q9 2 21 11.5t17 9.5q2 0 5 -1.5t7 -0.5q3 2 4 3l2 2q27 1 56.5 8t54.5 3q14 0 27.5 -9t27.5 -14l13 -6q4 -5 6.5 -12.5t6.5 -12.5
q2 -5 3.5 -12.5t1.5 -13.5q0 -3 1 -9t1.5 -12.5t1 -12t0.5 -8.5q0 -4 -1.5 -5.5l-3.5 -3.5q0 -5 -0.5 -10t-2.5 -11q-2 -2 -4 -5t-4 -11q-2 -4 -3.5 -7.5t-1.5 -4.5q1 -2 7.5 -4.5t10.5 -6.5q4 -2 7.5 -7t5.5 -5q11 -9 15 -12.5t4.5 -5t0.5 -3.5t4 -6q1 -1 3.5 -6.5t5 -12.5
t5 -13t2.5 -7q5 4 18 13t17 12q2 2 1 0t0 0q5 6 14.5 11.5t17.5 10.5q2 1 7.5 5.5t12 9.5t12.5 9t8 6q13 11 24 17.5t16 10.5q7 7 11.5 9t7.5 3.5t7 4t10 9.5q11 6 16 9t10 1q3 -4 -1 -15.5t-6 -13.5zM109 -422q0 -6 0.5 -7.5t0.5 -2t0.5 -1.5t0.5 -5q0 4 1 4q8 14 21 26
q3 0 3 4q0 -5 -1 -9q20 14 37 31.5t34 37.5q19 16 35 37t30 42q16 20 25.5 44.5t23.5 50.5q11 26 20 48t18 49q1 2 1 4v4q-4 -9 -19 -19q-6 -6 -12.5 -11t-11.5 -13l-25 -23q-3 -2 -4 -2.5l-1 -0.5h-1t-4 -3l-20 -26q-1 -2 -1.5 -4.5t-2.5 -4.5q-2 -1 -4 -1.5t-4 -2.5
q-5 -6 -9.5 -12t-6.5 -9q-10 -16 -22 -25q-2 -11 -9 -18l-12 -12v-4l-2 -1q-1 -2 -1 -3t-2 -4q0 -2 -2.5 -3t-4.5 -3l-2 -10q-5 -7 -13 -19t-10 -20l-2 -7l-4 -10l-7.5 -15t-5.5 -14q-4 -7 -6 -15t-6 -16q-4 -5 -6 -12.5t-7 -13.5z" />
    <glyph glyph-name="braceleft" unicode="{" horiz-adv-x="371" 
d="M355 570q-9 0 -15.5 4t-14.5 -2q-6 3 -7 9.5t-6 8.5q-6 1 -18.5 -2.5t-16.5 -4.5q-20 -8 -37 -21.5t-31 -26.5q-2 0 -0.5 -2t0.5 -6q-7 -3 -10 -7.5t-5 -9.5q-8 -9 -14 -20q-5 -8 -8.5 -16t-9.5 -17q-1 -1 -1 -2q-1 -1 -1 -4q-5 -8 -6 -21t-6 -24q0 -4 -2 -7t-2 -5v-18
v-15q0 -22 2 -43t4 -41q0 -14 -1.5 -31t-6.5 -30v-1q-4 -5 -4.5 -9.5t-1.5 -8.5q0 -4 -3 -5.5t-6 -6.5q-5 -5 -7 -8.5t-5 -8.5q-5 -3 -7 -5t-7 -3q-7 -4 -15.5 -5.5t-17.5 -5.5q0 -3 3 -3h3q2 -2 3 -4.5t3 -2.5q7 -5 9.5 -8.5t5.5 -11.5q6 -17 3.5 -39.5t-3.5 -37.5
q0 -8 -0.5 -13t-2.5 -10q0 -5 -0.5 -12.5t-2.5 -12.5q-2 -1 -3 -2q-2 -2 -2 -4q-1 -8 -1.5 -14t-2.5 -12q0 -6 -1.5 -9t-1.5 -8t-0.5 -8t-2.5 -7v-31q9 -65 74 -89q-4 -5 -11.5 -6.5t-16 -1t-16.5 2.5t-13 5q-8 4 -17.5 11t-15.5 12q-13 15 -21 29q-9 14 -15.5 32t-8.5 41
q-2 14 -3.5 29.5t-1.5 30.5q0 26 2 51.5t3 51.5q0 8 1 15t-1 9q-2 5 -6 6.5t-9 3.5q-3 0 -3 1v1q-4 2 -6 2.5t-3.5 1.5t-3 2.5t-4.5 5.5q-2 3 -3 7t-4 11q-2 3 -4.5 7t-2.5 7q0 1 2.5 4t2.5 6q-4 5 -6 10t0 7q1 2 7.5 6t13.5 4q5 0 10 -1.5t7 -1.5q8 0 13.5 2t15.5 4
q17 4 34 2t28 3q19 5 23.5 28t3.5 51q-1 25 -5.5 48t-3.5 47q0 12 3 23t5 24q3 30 16 58.5t28 53.5q17 23 37.5 43.5t51.5 32.5q2 0 5.5 1.5t5.5 2.5q2 0 3 2t3 3q6 0 9.5 -0.5t8.5 0.5q3 2 5 4t4 2q13 2 19.5 -5.5t15.5 -12.5q2 -5 5.5 -6.5t7.5 -6.5q1 0 3 -4t6 -4
q3 -3 7 -3q0 -1 -1 -4.5t1 -6.5q0 -5 2.5 -6.5t-2.5 -6.5q0 -1 -0.5 -5t-3.5 -6z" />
    </font>
</defs>
</svg>
