<?xml version="1.0" standalone="no"?>
<!DOCTYPE svg PUBLIC "-//W3C//DTD SVG 1.1//EN" "http://www.w3.org/Graphics/SVG/1.1/DTD/svg11.dtd" >
<svg xmlns="http://www.w3.org/2000/svg" xmlns:xlink="http://www.w3.org/1999/xlink" version="1.1">
<metadata>
Created by FontForge 20190801 at Mon Feb  8 12:14:45 2021
 By root
Copyright \(c\) 2018 by Oksana Petrenko. All rights reserved.
</metadata>
<defs>
<font id="Galanthia-Regular" horiz-adv-x="180" >
  <font-face 
    font-family="Galanthia"
    font-weight="400"
    font-stretch="normal"
    units-per-em="1000"
    panose-1="0 0 5 0 0 0 0 0 0 0"
    ascent="800"
    descent="-200"
    x-height="256"
    cap-height="717"
    bbox="-603.225 -241 1511.8 1046"
    underline-thickness="50"
    underline-position="-100"
    stemh="7"
    stemv="7"
    unicode-range="U+0001-206F"
  />
<missing-glyph horiz-adv-x="500" 
d="M50 0v533h400v-533h-400zM100 50h300v433h-300v-433z" />
    <glyph glyph-name=".notdef" horiz-adv-x="500" 
d="M50 0v533h400v-533h-400zM100 50h300v433h-300v-433z" />
    <glyph glyph-name="uni0000" 
 />
    <glyph glyph-name="uni0000" 
 />
    <glyph glyph-name="uni0001" 
 />
    <glyph glyph-name="uni0002" 
 />
    <glyph glyph-name="uni0003" 
 />
    <glyph glyph-name="uni0004" 
 />
    <glyph glyph-name="uni0005" 
 />
    <glyph glyph-name="uni0006" 
 />
    <glyph glyph-name="uni0007" 
 />
    <glyph glyph-name="uni0008" 
 />
    <glyph glyph-name="uni0009" unicode="&#x9;" 
 />
    <glyph glyph-name="uni000A" unicode="&#xa;" 
 />
    <glyph glyph-name="uni000B" 
 />
    <glyph glyph-name="uni000C" 
 />
    <glyph glyph-name="uni000D" unicode="&#xd;" 
 />
    <glyph glyph-name="uni000E" 
 />
    <glyph glyph-name="uni000F" 
 />
    <glyph glyph-name="uni0010" 
 />
    <glyph glyph-name="uni0011" 
 />
    <glyph glyph-name="uni0012" 
 />
    <glyph glyph-name="uni0013" 
 />
    <glyph glyph-name="uni0014" 
 />
    <glyph glyph-name="uni0015" 
 />
    <glyph glyph-name="uni0016" 
 />
    <glyph glyph-name="uni0017" 
 />
    <glyph glyph-name="uni0018" 
 />
    <glyph glyph-name="uni0019" 
 />
    <glyph glyph-name="uni001A" 
 />
    <glyph glyph-name="uni001B" 
 />
    <glyph glyph-name="uni001C" 
 />
    <glyph glyph-name="uni001D" 
 />
    <glyph glyph-name="uni001E" 
 />
    <glyph glyph-name="uni001F" 
 />
    <glyph glyph-name="space" unicode=" " 
 />
    <glyph glyph-name="exclam" unicode="!" horiz-adv-x="412" 
d="M104 216c-6 11 11 28 17 35c30 34 64 66 97 97c35 33 71 65 110 94c16 11 32 23 50 31l4 1c3 1 5 1 8 -1s3 -7 0 -10c-2 -3 -5 -5 -9 -7c-30 -16 -57 -34 -84 -56c-35 -28 -68 -60 -102 -91c-16 -15 -33 -29 -49 -45c-12 -11 -27 -25 -35 -40c-1 -2 -2 -5 -1 -8
c1 -5 -4 -6 -6 0zM52 118c-3 1 -3 8 1 12s8 4 8 1c0 -4 -7 -14 -9 -13z" />
    <glyph glyph-name="quotedbl" unicode="&#x22;" horiz-adv-x="177" 
d="M108 329c-6 -6 -10 -4 -7 0c4 7 30 29 42 35c2 1 5 1 5 1c4 0 -3 -5 -18 -18c-11 -8 -21 -17 -22 -18zM119 319c0 4 32 38 45 41c5 1 13 1 13 -2c0 -1 -7 -4 -13 -10l-30 -21c-7 -5 -15 -9 -15 -8z" />
    <glyph glyph-name="numbersign" unicode="#" horiz-adv-x="328" 
d="M70 167c-5 2 -2 11 5 22l8 11c0 2 -26 -3 -37 -7c-16 -6 -16 -6 -16 -1c0 2 1 4 6 6c6 2 33 8 49 10c7 1 10 3 23 15c8 7 16 14 16 15s-1 2 -3 2c-5 0 -52 -7 -59 -9c-8 -2 -11 -2 -10 1c1 4 13 6 37 9c40 5 46 6 59 15c6 4 15 10 18 11c11 4 12 2 3 -7
c-4 -4 -7 -7 -7 -8s15 1 16 1c9 0 17 5 25 9c2 1 7 4 10 3c5 -2 -3 -6 -3 -9c0 -1 -1 -1 0 -2h1l12 -2l13 -1c18 -3 24 -5 22 -7c-1 -1 -6 0 -11 1c-6 1 -18 2 -27 3l-18 1l-22 -14c-12 -7 -23 -14 -23 -15s5 -2 16 -3c25 -2 56 -9 61 -14c4 -4 0 -4 -21 2
c-15 4 -21 5 -45 5h-27l-13 -10c-7 -6 -16 -14 -20 -20c-7 -10 -10 -11 -10 -6c0 4 12 21 19 27c6 5 5 6 -6 4c-9 -2 -11 -3 -23 -15c-9 -9 -13 -15 -13 -17c0 -4 -2 -7 -5 -6zM125 214c8 1 10 3 19 9l21 14c6 4 11 7 11 8c0 2 -20 0 -22 -1c-7 -4 -14 -10 -20 -15l-18 -15
c-1 0 3 -1 9 0z" />
    <glyph glyph-name="dollar" unicode="$" horiz-adv-x="214" 
d="M-23 54c-1 3 12 22 31 48c14 19 14 17 9 22c-4 4 -6 10 -6 17c0 3 0 8 2 11s3 5 6 8c1 1 2 3 3 3c2 0 5 0 5 -2v-3l-2 -2h-3c-1 0 -3 -3 -3 -4c0 -2 -2 -3 -2 -5v-9c0 -5 5 -12 8 -12c1 0 14 15 30 34c48 57 69 74 130 135c10 10 13 13 16 20c13 29 37 55 70 70
c11 5 22 8 22 8l16 15c9 8 20 17 27 22c12 9 13 10 17 6c2 -2 1 -4 -2 -4c-7 0 -40 -28 -50 -39c0 0 3 0 7 -3c3 -2 6 -8 6 -14c0 -9 -3 -18 -14 -32c-9 -11 -45 -45 -48 -45c-5 0 1 7 17 21c32 28 48 52 38 62c-1 1 -3 2 -6 3c-6 2 -8 0 -60 -47c-40 -36 -39 -32 -50 -74
c-4 -15 -19 -52 -26 -65c-18 -34 -51 -59 -78 -75c-5 -3 -11 -5 -16 -6c-7 -1 -13 -3 -20 -3c-6 0 -11 0 -16 1l-4 1c-1 0 -2 1 -2 0h-1l-6 -6c-8 -8 -39 -49 -39 -54c0 -4 -5 -7 -6 -3zM208 314c0 0 14 14 27 26c28 25 35 32 39 35l10 8c-5 -1 -10 -4 -11 -5
c-2 -2 -17 -10 -23 -14c-10 -7 -27 -24 -36 -37c-2 -3 -6 -13 -6 -13zM34 124c0 -5 26 -5 41 1c20 8 47 31 67 54c12 14 25 38 31 54l6 18l3 10l4 12l4 14l1 4c-3 -2 -5 -5 -8 -8l-9 -7c-16 -13 -31 -29 -46 -44c-20 -20 -39 -40 -57 -62l-26 -32c-2 -2 -11 -11 -11 -14z
" />
    <glyph glyph-name="percent" unicode="%" horiz-adv-x="277" 
d="M8 103c-3 2 -5 5 -5 9c0 10 4 17 11 25c25 29 55 53 88 73c52 33 128 66 164 78c2 1 6 0 6 -3c0 -4 -1 -1 -21 -9c-71 -28 -122 -51 -193 -105c-25 -19 -43 -39 -43 -56c0 -3 1 -6 4 -7c1 -4 -4 -9 -11 -5zM63 216c-14 -2 -22 2 -24 10c0 7 9 14 14 17c7 5 18 10 27 10
c3 0 5 -1 7 -1c17 -12 -14 -34 -24 -36zM50 230c0 -10 9 -8 25 4c6 4 12 10 10 13c-6 3 -35 -11 -35 -17zM157 166c-19 -19 -41 -16 -36 2c2 5 12 17 27 25c26 16 34 -1 9 -27zM130 159c6 0 33 22 34 27c0 6 -9 5 -24 -8c-14 -10 -17 -18 -10 -19z" />
    <glyph glyph-name="ampersand" unicode="&#x26;" horiz-adv-x="338" 
d="M97 119c-1 3 9 13 23 32c6 8 12 15 13 18c-17 -1 -48 1 -79 9c-8 2 -18 10 -21 16c-6 12 -1 32 15 48c27 27 86 61 134 78c35 12 70 23 101 29c30 6 37 7 37 8s-3 2 -8 4c-19 8 -41 17 -44 20c-4 4 -2 8 5 12c6 4 15 5 49 13l25 6l11 10l20 17c9 7 16 9 16 4
c0 -2 -1 -3 -4 -5c-7 -4 -31 -23 -28 -23l20 2c19 2 26 1 26 -3c0 -3 -21 -4 -24 -4c-14 0 -29 -2 -43 -5c-15 -3 -30 -5 -44 -9l-14 -4c-3 -1 -7 -1 -8 -4c-1 -2 -1 -3 1 -5c7 -7 55 -25 67 -25c7 0 13 -3 11 -7c-1 -2 -3 -3 -16 -2c-15 1 -22 1 -59 -7l-19 -4
c-65 -18 -94 -30 -149 -59c-15 -8 -41 -26 -54 -39c-36 -36 -22 -60 41 -65l36 -3c1 1 2 1 4 1c9 0 10 1 10 -1v-1l79 -3c3 0 6 -2 10 0c2 1 6 1 8 -1c3 -3 -9 -2 -9 -2h-30c-19 0 -39 0 -58 1l-3 1c-11 -14 -47 -50 -48 -48z" />
    <glyph glyph-name="quotesingle" unicode="'" horiz-adv-x="132" 
d="M104 346c5 2 6 2 8 -1c1 -3 -1 -6 -30 -28c-26 -19 -32 -23 -32 -19c1 2 49 45 54 48z" />
    <glyph glyph-name="parenleft" unicode="(" horiz-adv-x="290" 
d="M37 112c-19 5 -22 25 -10 57c11 30 35 58 57 78c45 39 123 81 164 91c6 1 9 2 12 2s5 0 8 -1c1 -1 3 -3 0 -6c-3 -5 -12 -6 -9 -2c2 3 1 3 -4 2c-22 -2 -93 -40 -137 -73c-25 -18 -44 -36 -56 -52c-36 -48 -44 -89 -17 -93c3 0 7 -2 7 -3c0 -2 -8 -2 -15 0z" />
    <glyph glyph-name="parenright" unicode=")" horiz-adv-x="234" 
d="M-46 92h-3c-1 1 -1 3 1 4c1 1 2 1 4 1c17 2 33 11 49 20c63 38 133 89 160 160c5 11 8 23 7 34c0 9 -3 19 -12 21c-4 1 -9 0 -12 3c8 5 17 3 24 -3c31 -26 -6 -80 -23 -104c-23 -33 -54 -60 -87 -83c-17 -12 -30 -22 -49 -32c-12 -7 -30 -15 -43 -19c-5 -1 -10 -2 -16 -2
z" />
    <glyph glyph-name="asterisk" unicode="*" horiz-adv-x="268" 
d="M213 473c-2 -2 -6 4 -8 11c-1 4 -2 7 -3 7s-9 -3 -16 -8c-15 -11 -23 -9 -8 1c12 8 16 13 11 13c-6 0 -13 2 -16 7c-1 2 -2 5 3 5c3 0 4 -1 6 -4s6 -3 13 -3c6 0 7 2 7 13c0 4 1 9 2 11c3 6 7 3 7 -8c0 -7 2 -8 8 -3s12 5 15 2c1 -1 -2 -5 -7 -7s-9 -5 -9 -6
c0 -2 8 -4 23 -4c12 0 7 -4 0 -5h-10h-18c-1 0 -1 -7 0 -12s1 -9 0 -10z" />
    <glyph glyph-name="plus" unicode="+" horiz-adv-x="154" 
d="M28 150c-1 2 1 3 17 18l16 17l-12 -2c-7 0 -19 -2 -28 -4c-18 -4 -21 -4 -21 -1c0 1 1 3 3 3c7 3 23 5 43 7l22 2l15 12c17 13 28 20 38 24c9 3 10 3 12 0c3 -3 2 -2 -10 -8l-13 -7l-16 -11c-13 -8 -8 -7 17 -7c8 0 14 -1 14 -2s-10 -2 -23 -2c-26 -2 -23 0 -53 -27
c-14 -12 -19 -14 -21 -12z" />
    <glyph glyph-name="comma" unicode="," horiz-adv-x="100" 
d="M-53 97c-2 0 -2 1 8 12l19 23c7 9 13 17 15 17c5 3 9 -3 6 -8c-2 -5 -46 -44 -48 -44z" />
    <glyph glyph-name="hyphen" unicode="-" horiz-adv-x="208" 
d="M43 225c-18 -2 -24 -1 -23 2c1 4 6 4 60 6c24 1 54 -6 47 -6c-1 0 -16 -1 -34 -1c-17 0 -40 0 -50 -1z" />
    <glyph glyph-name="period" unicode="." horiz-adv-x="30" 
d="M1 137c-2 2 0 4 3 6c1 1 5 3 6 1s-1 -5 -3 -6s-5 -2 -6 -1z" />
    <glyph glyph-name="slash" unicode="/" horiz-adv-x="214" 
d="M-87 94c-8 3 -1 15 26 42c34 36 69 65 119 105l124 98c15 12 32 25 38 29c13 8 14 8 14 4c0 -3 -2 -6 -9 -11l-164 -131c-57 -45 -63 -50 -97 -84c-42 -42 -45 -54 -51 -52z" />
    <glyph glyph-name="zero" unicode="0" horiz-adv-x="153" 
d="M79 167c-88 -40 -100 29 -5 94c59 41 100 48 106 25c19 -1 6 -35 -19 -60c-20 -22 -63 -50 -82 -59zM138 212c41 33 56 69 42 71c-1 -13 -13 -16 -13 -13c-1 4 8 2 9 13l-6 -2c-4 -1 -8 2 1 4l5 1c-10 30 -104 -28 -134 -60c-73 -80 13 -83 96 -14z" />
    <glyph glyph-name="one" unicode="1" horiz-adv-x="146" 
d="M77 168c-19 8 -22 30 -10 45c9 10 37 30 57 42l46 25c-23 -5 -71 -13 -85 -15c-9 -1 -8 4 -4 4c26 4 44 7 66 11c33 8 37 9 59 19c12 4 16 3 17 0c1 -6 -14 -10 -34 -18c-21 -7 -37 -17 -64 -34c-18 -11 -38 -21 -51 -38c-3 -5 -7 -15 -7 -20c0 -9 1 -14 8 -18
c5 -3 5 -5 2 -3zM87 149c-2 -1 -5 -1 -5 2l1 1h3c0 4 -9 10 -22 14c-18 5 -34 8 -58 2c-4 -1 -6 0 -5 4c1 2 10 4 26 4c25 0 47 -5 57 -15c6 -5 7 -9 3 -12z" />
    <glyph glyph-name="two" unicode="2" horiz-adv-x="175" 
d="M150 132c-3 -2 0 7 -30 15c-35 10 -69 7 -103 2c-6 -2 -8 -7 -10 -6c-20 8 12 28 35 35c43 15 83 28 122 52c18 11 33 22 46 37c6 5 18 19 9 27c-17 13 -66 3 -93 -15c-36 -25 -41 -47 -43 -47c-5 2 4 22 17 34c36 36 105 51 125 31c20 -18 -37 -65 -89 -90
c-24 -12 -49 -20 -74 -29c-19 -5 -38 -10 -53 -23c40 6 73 8 108 -1c13 -3 20 -5 28 -11c5 -3 6 -10 5 -11z" />
    <glyph glyph-name="three" unicode="3" horiz-adv-x="208" 
d="M80 162c42 -9 94 -10 116 12c17 17 5 41 -9 53c-18 15 -53 23 -70 23c-16 0 -21 -2 -21 -5s-4 -2 -7 0c-1 2 -3 2 -3 2c-7 4 22 10 61 25l13 5c-36 -5 -34 12 -53 8c-19 -5 -22 -12 -21 -12c-4 0 -6 2 -5 4c14 13 38 13 45 9c8 -5 15 -6 34 -5c12 1 22 1 27 4
c3 1 4 0 3 -3s-3 -4 -7 -4c-12 0 -13 -1 -34 -10l-35 -13c31 0 58 -12 75 -25c15 -11 27 -33 17 -52c-16 -30 -86 -34 -146 -16c-34 11 -50 39 -32 53c7 5 15 4 17 2c3 -3 0 -6 -2 -4s-8 4 -13 -1c-17 -21 13 -42 50 -50z" />
    <glyph glyph-name="four" unicode="4" horiz-adv-x="135" 
d="M69 136c-25 16 10 56 41 81c-11 0 -39 1 -59 1c-10 -1 -7 -1 -15 -5c-29 -17 -40 -7 -30 -1c11 6 30 8 31 9c18 12 24 16 34 24c65 45 80 54 92 61c3 3 4 -3 4 -4c-1 -1 -2 -2 -16 -11c-62 -40 -73 -49 -102 -69h66c23 18 25 20 48 33c6 4 13 1 8 -1
c-3 -2 -26 -14 -51 -34c10 1 33 -2 35 -4c1 -1 -2 -3 -5 -1c-7 1 -20 2 -32 2c-29 -25 -67 -62 -48 -78c1 -2 1 -4 -1 -3zM7 207c2 -1 10 1 22 8l2 1c-9 -1 -26 -6 -24 -9z" />
    <glyph glyph-name="five" unicode="5" horiz-adv-x="133" 
d="M190 285c0 -2 -56 8 -87 8c-20 0 -17 -5 -17 -6c0 -3 -5 -3 -5 0c0 8 10 8 23 8s55 -3 81 -6c4 0 5 0 5 -4zM-16 152c33 -14 113 2 136 34c19 25 9 41 -12 43c-20 2 -43 -10 -44 -7c-6 12 35 45 66 60l3 1c1 0 3 -1 2 -3l-1 -1l-21 -12c-15 -9 -37 -27 -42 -40
c36 13 62 7 64 -15c2 -25 -26 -47 -45 -55c-83 -36 -154 -3 -100 27c16 7 33 9 58 3c5 -1 12 -5 10 -6c-4 -2 -6 3 -26 5c-42 5 -72 -24 -48 -34z" />
    <glyph glyph-name="six" unicode="6" horiz-adv-x="177" 
d="M42 150c46 2 90 19 123 50c44 42 1 65 -63 37c-27 -11 -58 -32 -67 -52c-8 -20 0 -19 -4 -21c-2 -2 -8 5 -2 20c7 23 45 49 92 64c40 13 76 0 67 -28c-9 -29 -68 -63 -115 -73c-66 -14 -82 20 -37 68c24 27 63 50 91 64c43 20 84 26 80 9c-1 -6 -5 -9 -6 -7c-2 3 1 1 2 7
c4 12 -32 5 -50 -3c-35 -13 -85 -46 -108 -68c-35 -37 -44 -67 -3 -67z" />
    <glyph glyph-name="seven" unicode="7" horiz-adv-x="169" 
d="M48 139c0 -4 -9 -1 -9 7c-1 22 25 42 41 58l1 1c-22 10 -35 14 -53 4c-6 -4 -7 -5 -8 -3c-2 1 4 6 9 9c15 7 24 6 35 2l22 -7c25 23 61 43 123 80c-15 -1 -27 -5 -48 -2c-15 2 -35 8 -51 1c-34 -14 -48 -29 -51 -26s24 20 35 25c17 8 32 12 50 8c23 -5 32 -3 67 -1
c8 0 8 0 28 11c17 8 36 18 54 24c8 2 10 2 10 0c0 0 -4 -3 -8 -4c-15 -5 -23 -9 -54 -25c-4 -2 -8 -4 -6 -4c1 0 1 0 1 -1c0 -3 -4 -3 -15 -5c-9 -3 -18 -9 -26 -14l-31 -18c-20 -12 -39 -25 -58 -40l-14 -12c6 -2 15 -3 26 -3c32 1 44 5 58 9c3 2 6 -2 3 -3
c-18 -11 -67 -15 -92 -7c-28 -24 -39 -35 -42 -53c-1 -7 3 -10 3 -11z" />
    <glyph glyph-name="eight" unicode="8" horiz-adv-x="177" 
d="M35 142c-14 -6 -41 -10 -45 7c-6 25 39 49 65 59c15 6 33 11 53 19c13 26 21 43 27 51c37 48 74 7 15 -23c-7 -3 -13 -4 -13 -2c0 1 1 1 1 1c11 3 22 11 31 20c5 5 12 18 3 21c-12 3 -31 -11 -41 -33c-2 -4 -6 -16 -14 -34c94 27 122 43 131 62c6 12 -3 20 -13 19
c-7 -1 -2 2 4 2c13 -1 16 -14 11 -23c-11 -22 -40 -33 -64 -42c-19 -7 -47 -15 -72 -23c-25 -44 -53 -70 -79 -81zM0 144c12 -7 38 4 50 12c15 11 27 26 39 40c7 8 15 20 18 26l-13 -5c-32 -12 -69 -21 -91 -46c-5 -6 -14 -21 -3 -27z" />
    <glyph glyph-name="nine" unicode="9" horiz-adv-x="157" 
d="M38 129c-3 -1 -13 7 -9 28c3 22 43 54 69 71c27 19 33 21 40 25c-40 -14 -72 -15 -81 -5c-8 8 4 24 12 31c30 20 69 30 82 12c6 -9 -2 -25 -16 -36l19 8c27 16 36 20 45 24c33 15 38 -2 5 -12c-20 -6 -30 -10 -46 -17c-15 -8 -32 -18 -46 -28c-28 -18 -66 -49 -75 -66
c-11 -23 6 -32 1 -35zM104 249c15 2 21 4 26 7c7 7 13 13 16 21c6 20 -19 22 -45 13c-12 -5 -31 -15 -38 -29c-11 -18 20 -16 41 -12zM171 267c37 12 50 16 51 20c1 5 -14 0 -26 -6c-15 -7 -26 -14 -25 -14z" />
    <glyph glyph-name="colon" unicode=":" horiz-adv-x="201" 
d="M83 227c-1 -1 -4 0 -5 2c-2 3 4 10 4 12c3 6 12 6 13 1c1 -3 -8 -14 -12 -15zM37 161c-11 -7 -10 9 -4 13c5 3 7 3 9 2c4 -4 -3 -13 -5 -15z" />
    <glyph glyph-name="semicolon" unicode=";" horiz-adv-x="249" 
d="M130 220c-6 4 8 21 15 20c2 0 3 -1 4 -3c2 -8 -12 -23 -19 -17zM20 124c-2 1 6 8 17 15c23 16 33 25 39 35l7 10c5 3 8 2 9 -5c0 -5 -1 -7 -8 -13c-16 -16 -59 -43 -64 -42z" />
    <glyph glyph-name="less" unicode="&#x3c;" horiz-adv-x="139" 
d="M97 167l-27 9c-18 6 -51 21 -56 27c-6 7 -5 11 -1 15s12 7 27 12l49 15c26 8 30 11 30 5c0 -1 -10 -5 -21 -8c-53 -14 -70 -23 -74 -27c-5 -5 -5 -5 -2 -8c9 -9 49 -26 79 -36c6 -2 6 -2 7 -3c3 -3 3 -6 -11 -1z" />
    <glyph glyph-name="equal" unicode="=" horiz-adv-x="86" 
d="M0 194c0 4 6 7 19 8c8 1 16 1 24 1h12c2 0 8 1 9 0s1 -2 0 -3c0 -1 -2 -1 -3 -1l-30 -2c-8 -1 -16 0 -24 -3c-5 -2 -7 -2 -7 0zM6 168c-3 -1 -4 0 -4 3c0 4 9 4 12 4l14 2l26 1c2 1 9 2 11 0c2 -3 -2 -4 -5 -5c-18 -1 -37 0 -54 -5z" />
    <glyph glyph-name="greater" unicode="&#x3e;" horiz-adv-x="126" 
d="M0 143c0 4 14 14 41 28c38 19 51 27 51 29s-17 10 -27 14c-2 0 -43 17 -46 19c-1 1 -1 3 0 4c3 1 43 -15 63 -23l19 -8c10 -4 6 -10 -16 -21c-57 -27 -71 -35 -76 -39c-6 -6 -9 -7 -9 -3z" />
    <glyph glyph-name="question" unicode="?" horiz-adv-x="430" 
d="M57 181c3 10 19 26 75 77c25 22 31 27 61 48l33 22l74 46c33 19 65 42 79 55c15 14 23 26 20 31c-3 4 -26 3 -48 -2c-16 -4 -52 -17 -65 -23l-7 -2l-23 -10c-63 -31 -74 -38 -65 -40c4 -1 4 -1 -1 -3c-10 -4 -15 2 -8 10c4 4 19 11 74 38c27 13 82 33 106 38
c21 4 38 4 44 -2c11 -10 1 -30 -25 -49c-14 -10 -76 -53 -88 -60c-15 -9 -21 -13 -58 -38c-40 -27 -58 -40 -100 -75l-32 -26c-9 -7 -23 -19 -30 -26c-14 -14 -18 -16 -16 -9zM28 119c-4 -4 -8 -2 -8 2c0 2 0 5 1 5c1 1 3 1 5 1c4 0 6 -4 2 -8z" />
    <glyph glyph-name="at" unicode="@" horiz-adv-x="424" 
d="M124 160c-41 -3 -124 7 -124 64c0 11 5 22 11 32c21 35 59 58 97 74c39 16 83 26 128 29c35 2 70 0 103 -10c22 -7 55 -24 43 -53c-6 -14 -18 -23 -31 -30c-37 -20 -81 -21 -123 -27c-7 -1 -14 -1 -20 3s-9 12 -5 18c-16 -7 -34 -11 -51 -11c-6 0 -14 2 -14 8
c0 2 1 4 3 6c17 17 40 26 64 26c4 0 9 0 12 -2c4 -2 6 -7 4 -10l21 12c2 1 4 2 6 1c3 -1 1 -6 -2 -8c-8 -5 -37 -18 -35 -30s49 -6 57 -5c30 4 58 12 84 27c7 4 15 9 20 16c10 14 3 29 -9 39c-13 11 -29 18 -46 21c-42 7 -86 1 -128 -5c-39 -6 -77 -19 -111 -40
c-25 -15 -56 -36 -66 -64c-17 -48 38 -70 72 -76c35 -6 76 0 110 10c17 5 34 11 51 19c10 5 20 10 29 17c1 -2 1 -4 1 -5c0 -4 -4 -4 -7 -6l-10 -6c-6 -4 -13 -7 -20 -10c-14 -6 -28 -10 -43 -14c-23 -6 -47 -8 -71 -10zM148 257c2 -3 17 -1 32 4c26 9 37 15 34 19
c-2 3 -13 3 -26 1c-22 -3 -44 -17 -40 -24z" />
    <glyph glyph-name="A" unicode="A" horiz-adv-x="743" 
d="M647 -10c-23 -1 -47 15 -61 42c-7 14 -15 42 -18 57c-3 19 -3 54 0 73c2 16 4 23 11 53c7 28 27 76 48 113l13 24l-38 -6c-3 0 -16 -2 -26 -5c-3 -1 -5 -3 -10 -6l-39 -25c-28 -17 -55 -35 -84 -52c-54 -32 -109 -63 -166 -88c-56 -26 -116 -46 -177 -57
c-23 -4 -47 -7 -68 4c-4 3 -9 7 -11 12c-2 8 0 17 5 24c7 9 18 19 23 15c5 -2 -3 -4 -13 -14c-5 -6 -8 -13 -8 -17c-1 -11 10 -17 20 -19c27 -5 54 0 80 6c42 10 83 24 123 41c61 25 119 55 176 88c27 15 54 32 81 49l33 22c2 2 14 10 20 14l-169 -35
c-34 -8 -67 -17 -100 -25c-18 -5 -37 -11 -56 -13c-9 0 -9 4 0 9c4 2 10 7 15 12c8 10 17 16 19 15c0 -1 -2 -5 -6 -8c-4 -4 -8 -10 -11 -13l-4 -6l8 1c4 1 23 5 43 10l121 29l34 7l102 21c13 2 20 7 39 20l23 17c11 7 24 16 64 46c10 8 17 14 25 24l22 30
c28 36 54 73 80 110c14 21 31 41 43 63c6 11 11 14 10 5c-4 -11 -13 -21 -20 -31l-28 -42c-18 -27 -37 -55 -57 -81c-18 -24 -32 -44 -33 -46c-10 -12 139 112 173 149c13 13 25 27 37 41c8 10 15 21 22 31c13 20 30 51 11 72c-8 10 -22 14 -35 15c-19 3 -38 2 -56 0
c-41 -3 -80 -12 -119 -23c-137 -40 -269 -100 -381 -189c-15 -12 -30 -27 -30 -46c-5 1 -8 6 -7 11s4 8 7 12c26 29 58 52 92 73c40 26 83 50 127 70c56 27 114 49 174 67c58 17 116 32 177 31c12 0 24 -1 35 -4c12 -4 24 -12 29 -25c4 -12 3 -26 -3 -40
c-12 -27 -46 -73 -79 -104c-26 -26 -71 -66 -97 -87l-27 -23l-35 -27c-23 -18 -30 -24 -41 -39c-13 -18 -40 -57 -40 -60c0 -2 5 0 45 5c39 5 48 6 96 8c46 3 56 1 61 -4c4 -3 4 -4 2 -8c-3 -5 -15 -11 -18 -9c0 1 2 3 6 6c3 2 5 5 5 6c-3 5 -52 7 -84 3l-34 -3
c-24 -1 -38 -4 -51 -6l-33 -6s-2 -2 -10 -14c-10 -17 -29 -57 -37 -77c-31 -76 -37 -135 -22 -194c11 -47 30 -70 58 -73c10 -1 15 -1 22 3c5 2 7 4 7 3c2 -3 -10 -11 -25 -12zM583 347l56 10c4 1 5 2 25 31l16 22l12 16l-67 -49c-10 -6 -15 -9 -18 -12z" />
    <glyph glyph-name="B" unicode="B" horiz-adv-x="972" 
d="M47 -45c-15 4 -23 13 -26 27c-2 8 -2 16 2 19c8 4 5 -3 5 -9c0 -19 12 -27 27 -30c22 -6 43 -2 66 5c28 8 72 26 98 40c73 40 140 92 204 145c35 30 55 48 67 60l10 9c-16 3 -21 16 -12 25c15 14 39 22 58 29c15 5 18 7 30 19c18 17 94 99 121 130c31 35 110 134 131 165
c16 23 49 79 53 85c1 2 -13 -5 -26 -12c-31 -15 -62 -28 -93 -45c-81 -44 -157 -98 -226 -158c-17 -16 -34 -31 -50 -47c-29 -30 -55 -62 -77 -97c-3 -5 -6 -10 -8 -15s-5 -11 -5 -17c0 -2 1 -4 3 -6c4 -4 12 1 15 4c5 4 7 7 10 12c3 4 3 9 5 10c2 0 4 -1 5 -5
c0 -2 -9 -19 -23 -26c-3 -1 -7 -2 -10 -2c-8 0 -12 9 -11 17c1 13 9 27 16 37c36 52 76 93 122 133l34 30c74 61 156 114 242 157c16 8 31 15 46 22l29 14c9 4 9 8 16 29c10 26 13 48 11 55c-3 7 -6 13 -13 16c-9 5 -23 5 -33 5c-24 0 -47 -7 -69 -14
c-240 -77 -440 -247 -603 -439c-27 -31 -53 -64 -71 -102c-4 -8 -5 -22 4 -23c3 0 5 0 10 2s10 -5 -6 -8c-12 -2 -21 8 -16 24c8 25 24 47 41 67c14 18 29 36 44 54c55 64 114 126 178 182s132 107 205 150l28 16c42 24 86 45 131 63c26 10 52 20 79 26c24 6 57 13 80 3
c31 -13 18 -56 9 -79l-8 -21c3 1 17 7 29 11c6 2 24 10 60 21c55 18 112 26 133 21c13 -3 24 -11 29 -20c6 -10 6 -28 1 -44c-12 -35 -50 -86 -103 -137c-38 -36 -120 -102 -179 -143l-32 -23l-117 -76c51 -13 78 -31 72 -68c-1 -5 -3 -10 -2 -10c0 -1 17 0 36 2
c14 1 29 1 44 2l46 1h30c3 0 7 0 9 -2c1 -1 1 -3 -1 -3h-12c-28 1 -31 1 -80 -1c-23 -1 -42 -4 -57 -5l-18 -2l-2 -3c-10 -14 -20 -25 -33 -37c-22 -19 -61 -46 -87 -59c-55 -28 -72 -36 -107 -48c-45 -15 -59 -17 -94 -19c-13 -1 -26 0 -38 2c-30 9 -34 26 -22 45
c13 21 60 46 88 56c16 7 23 11 67 24l31 10c34 10 87 22 175 34l13 1l3 10c7 21 0 34 -23 48c-24 14 -48 17 -64 8c-23 -12 -77 -38 -94 -44c-23 -8 -45 -16 -68 -19c-9 -1 -18 -1 -20 -2l-29 -25c-56 -50 -105 -89 -159 -127c-12 -9 -25 -16 -37 -25
c-41 -27 -84 -52 -130 -70c-33 -14 -72 -26 -107 -15zM585 287c0 -1 12 1 27 4c24 4 63 7 81 5c9 0 17 4 25 8c24 14 47 29 70 45c79 52 156 109 227 172c16 14 31 29 46 45c26 27 51 57 68 90c10 22 23 58 -4 73c-14 7 -30 8 -44 6c-55 -8 -105 -25 -157 -44
c-9 -3 -30 -12 -30 -12s-8 -14 -14 -23l-19 -31c-13 -21 -27 -42 -41 -63c-56 -77 -118 -150 -184 -219c-44 -47 -52 -55 -51 -56zM523 228c4 -2 42 5 53 10l29 11c24 8 84 38 84 40c0 1 -7 1 -14 1c-25 1 -99 -10 -105 -16l-25 -24c-16 -15 -22 -22 -22 -22zM507 230
c4 2 22 16 38 34l7 6c-16 -5 -28 -11 -45 -20c-21 -11 -13 -25 0 -20zM480 52c70 10 145 41 218 91c31 21 57 43 73 67c-10 -1 -58 -8 -63 -9c-46 -9 -93 -18 -138 -31c-23 -7 -45 -14 -67 -23c-31 -14 -73 -33 -91 -54c-28 -32 16 -48 68 -41z" />
    <glyph glyph-name="C" unicode="C" horiz-adv-x="643" 
d="M140 30c-33 -2 -72 4 -96 29s-25 58 -23 90c2 35 12 69 25 101c33 76 87 142 144 201c80 84 177 157 287 206c37 16 71 29 110 39c41 11 158 35 145 -44c-6 -33 -31 -61 -53 -85c-14 -15 -28 -29 -43 -42c-46 -41 -96 -78 -148 -109c-26 -16 -53 -30 -80 -43
c-18 -9 -40 -20 -61 -20c-11 0 -18 7 -19 18c-3 39 33 75 59 98c30 26 66 53 106 65c6 2 16 3 21 -2c3 -2 1 -9 1 -12c-8 8 -21 6 -31 3c-18 -5 -38 -19 -53 -30c-17 -13 -34 -27 -49 -42c-19 -20 -47 -46 -46 -76c0 -12 4 -16 17 -15c18 2 36 10 85 36c26 13 30 15 56 32
c18 10 64 43 86 59c30 23 58 48 84 75c23 24 47 51 59 83c2 7 4 15 3 22c-1 24 -26 33 -47 34c-50 2 -102 -13 -149 -30c-48 -17 -94 -40 -137 -66c-91 -53 -174 -126 -240 -208c-59 -72 -95 -136 -113 -199c-7 -28 -10 -50 -10 -73s5 -49 23 -64c17 -15 40 -21 62 -23
c32 -3 66 2 97 9c33 7 65 18 97 30c77 30 150 72 224 110c91 47 124 76 124 67c0 0 0 -1 -1 -2c-7 -7 -116 -70 -180 -104c-54 -28 -110 -53 -166 -77c-53 -22 -112 -39 -170 -41z" />
    <glyph glyph-name="D" unicode="D" horiz-adv-x="1014" 
d="M101 38c-43 -7 -65 2 -74 15c-17 25 -3 69 57 131c40 40 131 116 208 169c52 35 105 69 158 102c112 69 227 136 346 192c27 12 51 23 53 25c8 7 8 24 8 34c0 13 -4 23 -14 32c-31 26 -76 22 -112 18c-32 -3 -63 -10 -94 -19c-61 -17 -119 -43 -176 -71
c-104 -50 -205 -112 -281 -201c3 12 11 21 19 29c102 110 240 179 381 230c47 17 95 32 145 39l20 2c32 2 67 1 95 -16c19 -11 28 -35 25 -57c-1 -10 -1 -13 2 -12l41 15c37 13 68 24 106 33c63 17 207 49 219 -51c3 -23 -4 -47 -13 -69c-17 -43 -45 -80 -74 -116
c-78 -94 -176 -169 -280 -233c-80 -49 -168 -91 -258 -117c-44 -12 -89 -19 -134 -19c-27 0 -85 -1 -93 34c-1 5 -2 10 -2 12l-26 -17c-56 -35 -67 -41 -114 -64c-46 -23 -86 -41 -138 -50zM429 131c87 -10 175 11 255 44c58 24 114 54 168 85c54 32 105 70 152 110
c45 37 88 78 126 122c36 43 69 96 80 128c22 65 11 101 -36 113c-36 9 -78 4 -115 -2c-38 -7 -76 -18 -112 -30l-60 -20c-3 -2 -24 -9 -26 -12l-6 -16c-19 -48 -59 -106 -125 -182c-85 -96 -192 -192 -292 -262c-46 -32 -47 -33 -49 -38c-10 -23 24 -38 40 -40zM74 43
c40 0 75 10 143 42c50 24 70 35 123 68c36 22 39 25 40 31c4 25 21 47 27 46c8 -1 0 -5 -9 -19c-7 -13 -11 -29 -8 -27c9 6 41 29 84 60c146 110 302 277 358 385c8 16 16 35 14 35l-34 -17l-70 -34c-53 -26 -106 -55 -158 -85l-122 -72c-16 -9 -13 -8 -83 -52
c-39 -25 -74 -51 -112 -78c-52 -36 -102 -78 -145 -116c-36 -32 -92 -91 -93 -128c-1 -26 8 -38 45 -39z" />
    <glyph glyph-name="E" unicode="E" horiz-adv-x="448" 
d="M37 87c-15 21 0 52 21 75c13 13 28 25 43 35l16 10l-9 2c-21 4 -38 12 -53 23c-37 27 -44 85 -26 132c29 77 111 158 171 204c46 36 88 66 132 92c65 39 169 81 234 91c47 7 85 4 101 -23c18 -23 3 -59 -18 -87c-13 -18 -28 -33 -44 -48c-33 -30 -68 -58 -105 -83
c-67 -41 -135 -83 -173 -79c-43 5 -20 59 6 91c39 49 84 82 138 114c12 7 25 13 28 5c1 -3 -6 -3 -13 -7c-54 -31 -74 -46 -97 -66c-37 -32 -63 -65 -75 -99c-9 -26 8 -34 28 -32c44 8 114 50 157 80c40 28 79 59 115 92c17 16 32 35 44 55c11 19 18 41 4 60
c-24 35 -80 25 -126 13c-38 -9 -124 -43 -171 -68c-37 -20 -77 -47 -111 -72c-75 -56 -145 -113 -195 -194c-19 -31 -34 -65 -32 -101c1 -32 19 -61 49 -75c17 -8 31 -15 47 -15c0 0 1 0 10 5c22 13 35 19 52 27c28 14 85 35 109 39c13 2 41 4 46 -4c9 -15 -24 -34 -58 -46
c-46 -16 -92 -26 -147 -26c-6 0 -10 -2 -21 -9c-7 -4 -14 -10 -21 -15c-29 -20 -55 -47 -55 -77c3 -20 15 -27 36 -27c24 -1 52 6 74 14c54 19 88 37 133 58c47 22 126 75 176 104c4 2 5 0 6 -2c-65 -39 -133 -84 -206 -120c-62 -30 -84 -39 -126 -51c-39 -11 -80 -14 -94 5
zM140 211l31 2c33 3 61 10 93 19c27 9 59 22 67 30c28 28 -38 21 -80 4l-28 -11c-18 -6 -74 -34 -89 -44h6z" />
    <glyph glyph-name="F" unicode="F" horiz-adv-x="673" 
d="M-13 102c-8 19 -3 36 1 43c5 9 17 13 18 9c3 -5 0 -2 -6 -10c-6 -9 -10 -23 -3 -39c17 -40 101 -22 151 -6c91 29 179 70 260 120c50 30 134 91 129 91l-44 -4c-29 -3 -58 -5 -80 -8l-51 -5c-26 -2 -27 -2 -29 0c-1 2 4 3 43 7l141 13c28 3 28 3 49 20
c58 47 123 119 155 164c11 16 12 19 12 19l-34 -3c-21 -2 -41 -4 -62 -5c-24 -2 -47 -1 -70 -2c-24 -2 -49 -3 -72 -6c-24 -4 -47 -8 -69 -18c-17 -8 -33 -19 -46 -34c-6 -7 -11 -16 -13 -25c-1 -4 -2 -18 -7 -9c-5 10 13 38 34 55c32 24 82 37 163 41c79 2 108 5 138 7
c39 4 41 4 47 11c6 10 16 26 21 37c13 29 24 56 5 82c-16 23 -69 34 -109 34c-67 1 -133 -14 -198 -33c-176 -52 -365 -159 -441 -298c-7 2 17 42 33 60c90 104 213 175 341 223c19 7 38 13 57 18c44 15 91 25 138 31s98 9 144 -6c19 -6 35 -16 44 -33
c15 -31 -2 -68 -17 -97c-13 -20 -15 -22 -10 -22c8 1 88 15 135 27c38 10 45 12 46 18s9 10 17 9c14 -2 -4 -16 -11 -19c-32 -12 -68 -18 -139 -32c-61 -9 -52 -6 -74 -35c-41 -57 -76 -94 -148 -161c-6 -5 -15 -14 -14 -14c9 1 12 2 30 5c15 2 16 4 35 19
c27 22 39 25 49 12c7 -7 1 -14 -22 -19c-7 -3 -18 -6 -21 -9c-12 -8 -43 -35 -48 -46c-5 -10 -5 -15 -4 -21c3 -4 3 -5 0 -5c-4 2 -7 10 -6 17c1 9 4 19 11 28c6 10 10 14 15 21c-5 -1 -39 -6 -47 -8c-2 -1 -25 -18 -51 -37c-64 -46 -128 -85 -196 -120
c-60 -29 -124 -53 -189 -70c-53 -13 -116 -18 -131 18zM654 340c2 0 9 3 10 5c0 3 -3 2 -8 -2c-2 -1 -3 -3 -2 -3z" />
    <glyph glyph-name="G" unicode="G" horiz-adv-x="582" 
d="M108 2c-10 3 -15 6 -15 7s2 1 4 0c9 -6 27 -3 37 -2c16 2 31 11 45 18c34 16 65 34 95 56c75 55 144 122 213 184c18 17 37 34 56 50l48 41c-12 -7 -19 -12 -26 -15c-92 -45 -135 -63 -211 -97c-50 -22 -98 -40 -151 -54c-41 -10 -84 -19 -126 -13c-20 4 -38 9 -51 24
c-23 32 -14 81 0 114c16 39 45 70 73 100c23 25 42 41 92 81c22 18 90 67 123 89c41 27 84 52 128 74c57 28 113 56 174 73c55 17 125 31 179 3c18 -10 29 -25 29 -46c1 -75 -72 -134 -127 -174c-30 -21 -61 -41 -94 -58c-30 -17 -60 -34 -94 -43c-16 -5 -47 -8 -59 4
c-13 14 -4 39 4 52c12 24 27 41 46 58c22 20 54 47 83 55c12 2 14 2 11 -2c-2 -2 -4 -3 -4 -3c-1 0 -5 -1 -9 -4c-37 -25 -70 -48 -99 -80c-14 -15 -47 -53 -25 -75c4 -4 10 -5 16 -6c25 -1 48 8 70 18c24 10 49 24 72 37c44 25 87 55 126 88c36 33 70 72 77 121
c2 12 1 25 -6 34c-19 32 -66 35 -99 35c-36 -1 -69 -10 -104 -20c-59 -20 -118 -47 -172 -77c-108 -58 -212 -128 -303 -211c-74 -68 -113 -131 -115 -184c-2 -25 6 -47 19 -57c19 -15 59 -21 103 -15c19 2 37 6 55 11c63 15 123 40 181 66c61 27 122 53 180 85
c53 27 60 31 74 41c44 31 57 41 68 48c13 9 33 19 44 22c7 2 10 3 12 0c5 -8 -40 -23 -44 -26c-84 -50 -159 -116 -230 -180c-92 -83 -181 -175 -295 -228c-22 -11 -51 -27 -78 -19z" />
    <glyph glyph-name="H" unicode="H" horiz-adv-x="1005" 
d="M100 -35c-37 0 -84 10 -101 32c0 2 2 2 4 0c32 -23 69 -26 107 -26c28 0 55 2 84 5c94 12 186 43 273 82c73 32 145 73 210 119l25 18c10 6 32 22 43 30c0 0 -22 -7 -74 -19c-85 -21 -172 -38 -257 -65c-12 -4 -24 -6 -28 -7c-2 -1 -3 -1 -5 -1c5 8 32 13 41 17
c95 28 193 46 288 70c40 11 45 13 89 51c111 93 184 182 201 242c9 33 0 62 -34 74c-40 15 -86 13 -128 9c-44 -3 -87 -11 -130 -20c-96 -22 -191 -49 -284 -83c-115 -43 -244 -104 -330 -162c-30 -22 -65 -50 -74 -67c-4 -7 -5 -8 -6 -4c-1 3 1 8 3 12c7 11 46 45 72 62
c24 16 93 57 114 67c45 24 123 60 179 82c72 28 140 50 241 78c48 12 97 24 146 32c95 16 193 22 230 -21c40 -48 -14 -129 -61 -182c-35 -38 -54 -57 -100 -98c-31 -27 -61 -55 -59 -54c12 3 31 10 48 16c59 18 69 22 84 28c0 0 33 35 61 57c56 42 111 73 135 69
c31 -5 -24 -46 -71 -71c-33 -18 -46 -24 -106 -54c0 0 -10 -5 -42 -47c-15 -18 -43 -66 -29 -82c7 -8 -5 -10 -10 2c-9 22 23 85 57 119c1 1 -17 -7 -35 -12c-16 -5 -21 -8 -46 -15c-52 -16 -61 -20 -83 -38c-40 -29 -88 -60 -130 -85c-82 -49 -166 -89 -256 -119
c-84 -27 -168 -44 -256 -41zM933 290c-4 -4 111 55 146 79c39 30 37 43 0 26c-27 -11 -107 -56 -146 -105z" />
    <glyph glyph-name="I" unicode="I" horiz-adv-x="638" 
d="M87 48c-18 0 -37 2 -52 10c-11 7 -20 15 -23 26c-5 15 3 33 15 44c-6 -12 -13 -25 -10 -38c1 -11 9 -20 19 -26c10 -5 21 -6 32 -8c39 -3 77 5 115 15c94 23 183 78 262 133c97 67 181 149 258 237c26 30 63 81 84 115c37 61 51 112 37 137c-17 28 -72 20 -98 15
c-117 -20 -226 -88 -315 -150c-45 -33 -90 -66 -125 -110c-1 10 7 19 13 26c37 36 77 67 120 96c49 34 98 65 152 91s121 52 182 56c9 1 16 1 25 0c21 0 46 -7 55 -29c10 -18 6 -41 1 -61c-21 -72 -98 -176 -216 -290c-24 -24 -49 -48 -75 -70c-94 -78 -198 -145 -313 -189
c-45 -17 -94 -28 -143 -30z" />
    <glyph glyph-name="J" unicode="J" horiz-adv-x="661" 
d="M-61 -2c-23 6 -44 20 -34 45c15 37 102 66 214 96c124 33 177 45 307 71c22 4 124 103 158 139c52 54 107 113 135 182c10 25 16 51 12 71c-13 72 -151 48 -235 18c-81 -29 -158 -66 -230 -114c-36 -24 -64 -45 -104 -79c-38 -32 -55 -57 -55 -68c0 -3 2 -7 4 -7
c4 0 3 -3 0 -4c-5 -2 -11 0 -12 6c-2 10 12 31 35 54c44 44 96 80 149 114c155 100 428 201 454 79c8 -37 -13 -81 -32 -113c-23 -38 -48 -72 -77 -103c-16 -18 -156 -165 -171 -168c43 9 83 14 124 22c53 10 71 13 80 15c6 1 12 4 11 0s-8 -5 -18 -7
c-31 -6 -148 -28 -200 -37c-6 -1 -14 -6 -51 -33c-30 -22 -63 -45 -95 -64c-118 -70 -280 -137 -369 -115zM-47 4c63 -9 186 33 250 66c71 36 85 44 220 133c-10 -3 -23 -5 -28 -6c-256 -57 -342 -82 -427 -116c-59 -24 -82 -67 -15 -77z" />
    <glyph glyph-name="K" unicode="K" horiz-adv-x="982" 
d="M9 92c-10 2 -21 6 -29 15c-3 3 -5 5 -7 10s-2 13 2 13c1 0 0 -5 5 -14c22 -39 155 -15 222 6c62 19 114 44 173 72c28 13 57 27 84 45l60 37c6 4 13 8 21 14l-8 5c-7 4 -24 16 -29 20c-35 -3 -77 -7 -112 -2c-48 7 -87 18 -95 38c-4 10 6 18 15 22c19 10 39 10 60 7
c47 -8 90 -33 131 -57l74 11c16 2 26 4 31 6c11 4 16 7 34 21c48 35 98 78 144 119c21 19 53 55 66 74c14 17 28 38 34 59c19 70 -67 92 -119 96c-71 6 -143 -1 -213 -12c-174 -25 -370 -83 -487 -184c-23 -21 -12 -40 -28 -34c-5 2 -5 13 2 23c29 40 112 82 175 110
c109 48 231 76 345 92c102 15 204 18 269 -1c43 -12 76 -50 65 -96c-9 -36 -36 -68 -62 -95c-27 -29 -56 -59 -87 -84l-54 -43l-41 -34c-4 -3 11 0 25 4c33 8 65 15 96 27c33 12 67 20 100 32c94 35 183 80 275 116c14 6 18 6 21 6c15 -1 -8 -6 -29 -17
c-15 -6 -72 -30 -105 -45c-30 -14 -58 -27 -90 -40c-90 -34 -180 -64 -280 -89c-26 -6 -35 -7 -67 -30c-18 -13 -35 -27 -35 -27l21 -18l101 -75c51 -38 103 -82 166 -100c53 -17 117 -5 166 15c9 4 15 8 17 8c1 0 2 -2 2 -3c0 -4 -4 -6 -20 -13c-27 -11 -64 -20 -95 -22
c-56 -4 -95 15 -145 44c-27 15 -52 36 -77 55c-35 24 -70 49 -104 74l-25 18l-15 10c-34 -22 -63 -40 -96 -58c-40 -22 -79 -44 -122 -61c-44 -18 -89 -37 -135 -51c-63 -18 -134 -31 -191 -19zM387 319c33 -2 44 -3 106 3l-42 24c-19 10 -40 19 -60 24c-35 9 -85 5 -89 -13
c-3 -20 54 -35 85 -38zM547 295c5 -1 37 22 52 36c2 2 -11 -1 -28 -3c-10 -2 -49 -8 -59 -11c0 0 29 -20 35 -22z" />
    <glyph glyph-name="L" unicode="L" horiz-adv-x="733" 
d="M96 80c-17 0 -62 1 -55 32c4 20 26 37 41 48c21 15 59 32 99 42c38 9 75 14 113 12c40 -3 65 -18 88 -19c1 0 30 16 60 34c56 34 113 74 166 115c35 29 69 58 105 89c66 58 144 125 182 205c10 20 13 41 -7 61c-28 27 -128 14 -188 0c-125 -30 -246 -78 -354 -144
l-18 -11c-25 -15 -49 -28 -72 -46c-22 -18 -44 -38 -65 -58c-10 -10 -19 -21 -26 -32c-8 -10 -13 -18 -14 -33c-1 -4 3 -4 1 -6s-6 -1 -8 1c-5 6 3 27 9 36c6 12 15 22 26 33c116 111 262 181 412 236c65 24 103 29 156 39c57 10 124 16 153 -15c37 -38 -18 -114 -83 -180
c-76 -78 -160 -147 -246 -211c-27 -21 -56 -40 -84 -58c-22 -15 -44 -23 -74 -46c-7 -6 -19 -13 -19 -13c32 -16 41 -23 112 -69c29 -19 55 -41 92 -46c34 -4 68 10 93 32c2 2 5 5 7 3c2 -1 1 -5 0 -7c-24 -42 -85 -40 -125 -27c-27 9 -50 25 -72 41c-48 34 -86 60 -113 68
c-42 -20 -63 -31 -84 -39c-76 -32 -154 -67 -208 -67zM147 95c63 16 117 36 198 78l21 11c10 5 17 6 2 11c-8 2 -29 8 -38 9c-62 11 -122 4 -182 -17c-21 -8 -42 -18 -61 -31s-40 -37 -39 -51c2 -25 62 -20 99 -10z" />
    <glyph glyph-name="M" unicode="M" horiz-adv-x="1121" 
d="M24 102c-36 9 -46 35 -35 61c4 9 12 11 17 9c4 -1 -6 -3 -10 -11c-8 -17 -8 -37 13 -48c35 -18 102 -16 154 -5c60 13 121 30 179 53c90 36 177 79 261 129c72 43 146 89 212 142c31 25 31 28 34 39c11 40 10 47 10 72c0 1 -1 3 0 3c2 0 5 -2 5 -3c0 -13 3 -38 -5 -74
c8 6 49 41 72 63c76 73 110 127 112 174c1 21 -2 29 -13 42c-21 25 -70 39 -137 35c-71 -4 -144 -22 -211 -44c-92 -30 -182 -69 -269 -112c-111 -55 -209 -122 -281 -198c-16 -17 -33 -37 -40 -58c-1 -3 -1 -8 -3 -10c-1 -1 -2 0 -3 0s-1 2 -1 3c0 33 90 116 140 154
c54 41 111 76 171 107c87 45 178 83 271 114c84 28 174 53 263 50c34 -1 75 -7 102 -30c22 -19 25 -50 19 -78c-11 -51 -65 -117 -159 -199c-30 -26 -38 -33 -40 -40c-12 -43 -34 -93 -50 -120c-7 -12 -20 -40 -19 -39c9 9 110 59 146 78c60 32 121 61 181 91s127 66 190 91
c5 2 14 8 28 18c61 44 113 73 135 81c21 8 33 4 30 -10c-2 -9 -24 -19 -70 -41l-51 -24c-8 -4 -19 -9 -24 -12l-9 -5c-15 -8 -48 -29 -89 -61l-45 -36c-90 -72 -199 -168 -267 -253c-16 -20 -42 -59 -53 -82c-16 -34 -27 -78 -20 -102c5 -18 -1 -15 -7 3c-8 25 -1 62 10 92
c15 42 44 84 100 144c42 45 93 94 143 135c48 39 90 81 142 116l31 21c16 11 -200 -95 -244 -117c-115 -57 -124 -70 -253 -134c-14 -7 -12 -6 -27 -28c-17 -24 -37 -48 -55 -71c-30 -39 -73 -70 -95 -83c-25 -15 -51 -24 -63 -23c-21 2 -20 21 -1 43c19 23 64 57 108 90
c12 9 59 38 100 62c7 4 11 8 19 23c19 36 38 72 53 109s15 40 15 40l-69 -51c-76 -56 -158 -106 -242 -150c-86 -45 -176 -84 -270 -111c-74 -21 -159 -43 -236 -24zM1366 572l75 35c21 10 51 24 47 27c-5 4 -38 -9 -57 -20s-57 -38 -65 -42zM582 87c44 20 106 74 142 127
l29 43c-94 -55 -171 -108 -205 -151c-23 -29 -7 -38 34 -19z" />
    <glyph glyph-name="N" unicode="N" horiz-adv-x="926" 
d="M75 71c-29 0 -62 8 -83 25c-22 18 -16 48 -2 62c1 1 4 2 5 1s0 -1 -2 -3c-12 -12 -12 -19 -12 -29c0 -27 30 -41 61 -46c61 -10 162 14 232 40c163 61 317 156 435 266c40 37 78 76 111 119c16 21 27 45 37 70s18 51 14 77s-20 44 -44 54c-43 18 -95 12 -139 4
c-48 -9 -94 -24 -139 -41c-118 -45 -232 -102 -336 -173c-38 -26 -78 -55 -111 -86c-15 -14 -20 -24 -23 -32c-2 -6 -2 -9 -5 -8c-2 1 -3 3 -2 9c2 12 17 30 53 60c53 45 112 83 173 118c111 64 228 117 351 149c42 11 87 21 131 17c36 -3 79 -16 95 -52l3 -5
c22 -60 -23 -118 -40 -171s-24 -83 -39 -129l-11 -33c-4 -12 -7 -17 -12 -30c14 14 26 24 41 37l39 33c25 21 50 37 76 56c99 73 206 135 316 189c67 33 138 62 211 70c29 3 40 1 48 -7s6 -25 -6 -26c-11 1 30 38 -37 29c-96 -13 -185 -52 -271 -98
c-124 -66 -241 -142 -350 -231c-27 -22 -37 -32 -71 -65c0 0 -36 -68 -54 -97c-23 -39 -68 -87 -83 -79c-19 10 32 74 57 101c14 15 27 30 43 46c33 33 66 155 85 231c-144 -178 -332 -292 -491 -361c-52 -22 -164 -61 -254 -61zM640 122c5 -3 28 19 48 47c8 11 29 46 41 66
c7 12 13 26 13 26c0 1 -19 -20 -36 -39l-20 -23c-23 -28 -54 -73 -46 -77z" />
    <glyph glyph-name="O" unicode="O" horiz-adv-x="634" 
d="M67 33c-22 3 -42 12 -54 31c-14 19 -14 48 -11 71c6 52 27 96 75 164l11 15l-19 11c-7 5 -21 16 -26 22c-14 15 -17 25 -20 32c-8 26 -3 56 19 89c44 62 133 106 198 126c53 15 110 18 172 13l29 -3l23 10c25 12 51 23 78 32l5 2c62 20 125 32 189 17c14 -3 30 -9 42 -16
c19 -11 33 -27 39 -50c12 -40 -11 -80 -37 -111c-16 -20 -39 -35 -53 -57c-13 -18 -28 -35 -44 -52c-16 -19 -34 -38 -52 -57c-64 -67 -144 -125 -223 -173c-79 -47 -154 -88 -245 -110c-28 -7 -66 -10 -96 -6zM756 470c10 10 24 25 33 40c17 23 29 49 25 80
c-5 50 -55 66 -97 75c-37 6 -77 2 -114 -6c-31 -7 -57 -15 -87 -28c-15 -5 -49 -21 -63 -28c35 -7 49 -13 69 -19c21 -8 34 -13 51 -21c16 -9 15 -9 19 -7c52 23 77 32 118 38c49 5 72 -11 74 -40c2 -18 -3 -35 -14 -56zM94 319l18 21c29 35 63 65 96 95c36 32 74 62 113 90
c20 15 41 29 62 42l30 19l23 14c-35 4 -46 5 -75 5c-79 0 -144 -18 -213 -56c-38 -21 -73 -48 -99 -83c-31 -45 -27 -89 -1 -115c23 -22 46 -32 46 -32zM235 283c0 0 9 19 34 46c40 42 97 87 146 120c91 59 105 69 169 104c-22 10 -28 14 -61 26c-40 14 -48 15 -72 20
c-3 1 -2 1 -37 -20c-15 -8 -56 -35 -88 -58l-18 -14c-20 -14 -32 -23 -38 -29l-22 -18c-59 -50 -110 -103 -143 -146c10 -4 15 -6 27 -10c25 -8 43 -12 103 -21zM345 282c45 5 94 13 159 34c31 11 80 32 107 47c44 24 70 41 97 63c15 13 24 20 33 33c13 18 24 37 31 59
c8 20 12 44 -6 61c-13 11 -34 13 -50 12c-29 -2 -51 -10 -98 -28l-23 -11l10 -8c12 -10 24 -23 21 -23c-8 1 -5 3 -8 6c-14 14 -22 20 -28 23c-54 -30 -91 -51 -163 -99c-67 -45 -162 -129 -184 -170c0 0 50 -5 102 1zM66 41c31 -7 60 -3 89 2c28 4 62 16 88 27
c23 10 41 18 64 29c44 22 86 46 127 72s80 55 117 85c39 31 74 65 107 101c15 18 30 37 46 55l3 4l5 5l-9 -5c-20 -15 -40 -28 -62 -40c-31 -19 -63 -33 -96 -47c-46 -18 -92 -34 -139 -42c-49 -9 -85 -14 -148 -11l-16 2c-5 -10 -7 -19 -10 -32c-3 -12 -1 -31 12 -32
c4 0 -1 -9 -9 -5s-12 10 -13 22c0 7 0 20 11 47c-57 9 -80 13 -116 25c-8 3 -16 7 -17 6l-11 -14c-19 -23 -34 -48 -47 -74c-27 -55 -62 -160 24 -180z" />
    <glyph glyph-name="P" unicode="P" horiz-adv-x="1162" 
d="M97 46c-69 3 -101 41 -68 69c5 4 22 4 5 -12c-24 -23 18 -42 41 -46c70 -12 147 14 211 40c42 17 121 58 159 83l20 14l-12 9c-3 3 -12 11 -19 21c-11 18 -13 29 -11 45c2 11 12 30 16 32c5 1 6 -1 3 -4c-1 -1 -5 -7 -7 -13c-11 -23 -5 -52 19 -72c7 -7 18 -14 18 -14
l29 20c115 82 210 188 294 327l18 36c7 14 13 30 17 45l-20 -10c-11 -7 -53 -31 -77 -47c-35 -23 -68 -49 -100 -77c-47 -41 -55 -50 -58 -68c0 -2 0 -4 -1 -5c-1 -2 -2 -3 -4 -3c-3 0 -4 3 -4 6c2 26 45 61 86 95c42 34 85 65 132 92c32 18 41 24 47 27c0 0 2 0 2 8
c0 53 -49 61 -88 60c-84 0 -201 -40 -302 -94c-64 -34 -163 -102 -187 -131c-4 -5 0 -10 3 -14c-3 -1 -5 -2 -7 -2c-3 0 -5 2 -7 4c-1 3 0 7 2 10c10 18 49 47 88 76c69 47 144 89 222 117c50 19 53 19 102 31s97 14 127 7c42 -11 59 -38 57 -65l27 11c71 29 201 58 280 56
c109 0 190 -49 173 -156c-11 -67 -38 -109 -95 -175c-46 -54 -148 -127 -214 -161c-80 -41 -173 -68 -262 -71c-127 -5 -202 6 -280 42c0 0 -1 -1 -11 -7c-30 -18 -57 -36 -89 -53c-84 -43 -178 -87 -275 -83zM964 202c79 34 152 83 215 142c61 56 122 128 136 213
c6 40 -1 79 -35 107c-19 17 -44 26 -69 31c-94 19 -191 1 -281 -27c-38 -13 -75 -27 -87 -34c0 0 -2 -9 -6 -22c-18 -54 -86 -158 -161 -245c-44 -51 -106 -107 -171 -154c-19 -14 -19 -14 -25 -19c28 -15 70 -29 106 -34c136 -17 261 -8 378 42z" />
    <glyph glyph-name="Q" unicode="Q" horiz-adv-x="629" 
d="M347 19c-3 1 -21 11 -30 21c-5 6 -16 19 -23 30c-8 11 -12 19 -13 21l-9 -3c-35 -13 -79 -24 -115 -27c-80 -8 -158 22 -159 110c0 86 58 178 129 263c42 50 101 101 173 152c49 34 147 74 211 86c10 1 23 5 46 14c43 18 71 27 99 32c18 2 52 1 64 -2
c17 -6 30 -15 39 -28c9 -14 13 -26 14 -49c2 -16 1 -22 -3 -40c-7 -38 -19 -70 -41 -111l-17 -31l-13 -21c-10 -17 -27 -38 -47 -63c-21 -26 -71 -78 -94 -98l-25 -22c-12 -11 -29 -25 -41 -34l-33 -25c-26 -18 -36 -25 -46 -31l-13 -9c-22 -14 -44 -26 -64 -38l-15 -8
l-11 -5l-13 -5l3 -10c2 -5 6 -12 8 -17l11 -17c3 -4 10 -14 18 -22c6 -6 11 -13 10 -13zM294 103l30 13c43 23 95 56 136 88l21 16c93 74 179 160 233 265c18 35 34 71 43 110c4 19 4 38 3 57c-5 76 -89 67 -142 50c-14 -3 -22 -6 -36 -11c-7 -4 -22 -9 -34 -15
c-4 -2 1 0 6 -1c19 1 35 -5 46 -8c24 -8 45 -36 51 -67c4 -19 1 -46 -5 -69c-22 -84 -89 -157 -156 -211c-62 -50 -140 -96 -220 -110c-9 -2 -14 -4 -14 -6c0 -3 26 -74 32 -86zM60 80c51 -28 142 -14 218 17c1 1 -4 9 -7 17c-9 19 -20 49 -26 72c-3 11 -5 20 -6 21
c-2 0 0 9 2 12s6 3 9 -3c3 -7 7 -6 30 -1c94 22 181 81 248 149c35 37 55 65 79 105c30 53 66 168 -18 193c-23 7 -53 11 -75 0c-87 -43 -170 -106 -227 -168c-11 -12 -17 -20 -18 -20c-8 7 50 64 124 120c27 21 45 31 81 53l31 17s-49 -13 -65 -19
c-64 -23 -122 -54 -177 -94c-95 -71 -176 -164 -230 -271c-17 -36 -31 -78 -26 -118c2 -36 21 -66 53 -82z" />
    <glyph glyph-name="R" unicode="R" horiz-adv-x="1128" 
d="M38 26c-23 4 -55 13 -59 39c-2 8 1 16 4 23c1 3 9 17 15 14c1 -1 1 -2 1 -3l-2 -1c-11 -7 -16 -25 -11 -38c5 -15 23 -22 38 -26c71 -18 149 -8 219 8c112 23 219 71 319 124c25 14 101 58 128 75l16 11l15 11c1 1 5 2 4 3l-3 11l-2 9c-7 0 -17 2 -24 4
c-12 3 -20 7 -22 14c-3 9 0 19 11 25c10 4 29 10 40 -18l5 -16c1 -3 2 -4 18 -3c14 0 16 1 28 9c81 59 160 137 200 194c18 26 36 61 38 78l2 11s-20 -6 -51 -17c-23 -9 -44 -19 -65 -30c-79 -41 -157 -98 -218 -161c-10 -10 -17 -20 -26 -30c-4 -4 -8 -11 -7 -16
c0 -6 -7 -8 -10 -4c-10 10 61 81 139 141c58 43 148 93 215 118l18 6c5 2 6 1 7 5v11c-4 48 -27 77 -77 100c-98 45 -244 15 -355 -25c-104 -36 -202 -87 -291 -150c-66 -46 -242 -197 -226 -216c3 -2 2 -3 0 -5c-3 -3 -10 2 -9 8c1 15 26 43 56 73c80 80 208 178 296 221
c119 63 204 90 260 104c88 20 183 27 254 3c53 -17 96 -45 104 -108c2 -8 1 -12 1 -12c40 10 69 18 99 22c40 9 70 10 107 2c9 -2 21 -5 28 -10c11 -7 16 -14 19 -26c5 -15 -2 -42 -15 -62c-25 -35 -58 -63 -93 -87c-96 -70 -208 -113 -324 -139c-14 -2 -42 -9 -59 -11
c-20 -3 -21 -4 -35 -13c-21 -13 -21 -13 -16 -32c9 -43 30 -71 59 -91c36 -28 87 -49 142 -56c35 -5 98 -6 123 -5c13 1 17 2 19 0c2 -1 1 -3 1 -4c-2 -2 -40 -3 -78 -2c-132 2 -234 50 -266 126c-5 12 -9 23 -14 44l-21 -14c-94 -60 -193 -115 -297 -156
c-114 -44 -250 -86 -372 -60zM784 295c13 2 19 1 71 12c155 34 306 113 389 203c22 24 52 74 12 96c-17 9 -32 13 -51 15c-38 2 -68 -4 -103 -11c-11 -2 -32 -8 -42 -11l-29 -9l-2 -11c-13 -64 -64 -132 -159 -215c-17 -14 -43 -36 -56 -46c-14 -11 -31 -23 -30 -23z
M708 295l8 -1l4 -1l-5 17c-10 20 -31 13 -33 1c-1 -9 9 -12 26 -16zM736 273l11 9l4 2l-16 1h-2z" />
    <glyph glyph-name="S" unicode="S" horiz-adv-x="817" 
d="M196 30c-93 0 -176 22 -186 111c-12 101 96 222 213 324c101 84 236 154 363 186c48 12 97 20 147 22c92 3 161 -14 188 -64c16 -29 7 -66 -6 -106c73 31 122 56 122 56c42 41 107 114 158 133c35 15 37 -19 -8 -52c-12 -9 -25 -19 -38 -27c-28 -19 -97 -60 -97 -60
l-93 -88c-47 -43 -96 -87 -144 -128c-71 -60 -200 -153 -267 -194c-110 -66 -236 -115 -352 -113zM1059 567c0 0 51 27 74 42c35 22 67 48 75 59c16 23 -3 21 -20 13c-15 -9 -37 -23 -56 -42zM121 45c62 -13 132 -7 193 8c102 24 189 69 274 127c117 80 200 141 299 231
c46 41 103 94 146 138c-27 -14 -65 -30 -90 -41l-30 -13l-16 -26c-78 -127 -260 -260 -403 -309c-37 -10 -85 -14 -85 -3c0 9 16 -3 48 3c84 15 210 90 288 155c63 52 125 120 158 177c-106 -35 -210 -66 -317 -103c-46 -16 -120 -43 -168 -74c-42 -26 -79 -53 -79 -91
c0 -10 10 -9 3 -17c-2 -2 -7 0 -9 6c-9 23 16 59 39 78c22 19 53 35 77 47c73 36 150 61 226 86l231 76c62 142 -61 181 -240 161c-55 -8 -144 -33 -199 -56c-44 -18 -87 -40 -127 -65c-18 -11 -35 -22 -52 -33c-53 -36 -108 -89 -155 -138c-52 -55 -103 -125 -114 -186
c-13 -73 28 -122 102 -138z" />
    <glyph glyph-name="T" unicode="T" horiz-adv-x="507" 
d="M29 28c-17 0 -29 8 -23 19c2 3 6 3 9 3c-11 -33 85 4 133 33s188 143 243 191c39 33 129 117 158 146s35 34 71 72c30 31 79 75 117 107c19 15 37 30 36 30l-8 -1c-84 -14 -166 -22 -250 -31l-85 -8c-49 -6 -96 -12 -144 -19c-47 -8 -91 -14 -136 -30
c-18 -6 -44 -24 -49 -38c-5 -13 -3 -21 3 -24l-1 -4c-1 -3 -4 -5 -8 -4c-12 6 -7 29 -1 38c23 37 87 48 129 57c99 18 200 26 300 37c51 6 99 11 149 18c34 4 63 8 107 16c6 1 14 5 25 13c59 43 127 91 200 104c16 2 36 3 49 -3c13 -8 14 -19 3 -29
c-23 -21 -63 -36 -116 -52c-38 -12 -73 -21 -112 -29c-23 -5 -22 -3 -32 -11c-23 -16 -106 -89 -140 -124c-95 -97 -218 -210 -303 -280l-38 -33l-28 -22c-70 -53 -84 -64 -117 -84c-49 -30 -99 -58 -141 -58zM814 643c34 6 55 11 73 16c117 32 167 59 168 75
c0 14 -29 20 -65 10c-26 -5 -53 -19 -111 -56c-23 -14 -65 -45 -65 -45z" />
    <glyph glyph-name="U" unicode="U" horiz-adv-x="996" 
d="M749 -5c-7 2 -11 9 -12 14c-6 23 0 45 4 64c7 28 22 55 38 79c64 95 180 185 271 257l-78 -43c-45 -25 -93 -53 -137 -80c-26 -17 -36 -22 -60 -38l-36 -21l-39 -22c-44 -25 -77 -43 -132 -69c-41 -21 -96 -49 -143 -56c-49 -11 -44 44 -15 91c50 77 120 138 189 199
c64 56 131 109 195 167c28 25 57 52 83 82c17 18 46 54 12 71c-38 21 -156 -5 -225 -31c-94 -34 -229 -100 -318 -157c-75 -46 -150 -99 -214 -161c-18 -17 -35 -35 -50 -55c-14 -17 -28 -35 -39 -54c-13 -22 -26 -48 -28 -73c-1 -12 3 -25 11 -34c11 -9 26 -10 40 -9
c30 2 60 13 84 30c2 -1 0 -3 -1 -4c-19 -13 -41 -21 -63 -26c-17 -3 -36 -6 -53 1c-9 4 -16 9 -20 17c-4 7 -5 16 -5 24c3 45 31 87 58 122c52 65 118 120 185 168c79 54 160 103 245 145c86 42 175 83 270 102c52 12 124 16 142 -10c18 -28 -21 -74 -63 -114
c-22 -20 -43 -39 -64 -59c-69 -60 -141 -117 -209 -178c-33 -31 -65 -62 -96 -96c-58 -64 -112 -152 -51 -152c40 5 124 44 168 68c88 44 172 95 255 146s167 102 255 144c0 -5 -1 -10 -3 -14c-6 -13 -27 -23 -39 -32c-112 -77 -220 -167 -289 -284
c-37 -66 -36 -106 -17 -114c2 -1 3 -2 1 -4c-1 -1 -4 -2 -7 -1z" />
    <glyph glyph-name="V" unicode="V" horiz-adv-x="647" 
d="M264 53c-52 -8 -70 23 -52 63c23 54 111 150 174 213c67 68 139 131 208 196c61 58 102 97 131 141c12 17 27 38 25 60c-1 27 -31 31 -52 31c-46 1 -96 -13 -139 -26c-44 -14 -86 -29 -128 -48c-114 -52 -250 -136 -333 -217c-37 -39 -71 -77 -78 -115
c-5 -17 -3 -38 10 -51c16 -16 35 -15 55 -16c16 0 42 6 65 13c8 3 11 6 10 2c-1 -3 -6 -5 -14 -7c-31 -10 -45 -12 -70 -11c-33 -1 -60 14 -63 45c-4 27 8 55 24 77c57 82 170 165 262 218c112 65 274 134 376 142c46 2 74 -7 81 -28c4 -12 3 -23 -1 -35
c-37 -82 -149 -174 -328 -344c-63 -61 -123 -123 -175 -195c-36 -49 -56 -99 -9 -102c96 -8 386 266 530 413c5 5 11 12 9 19c-1 4 -3 8 -3 12c1 3 4 5 8 7c7 4 15 8 23 11c26 9 52 12 79 10c9 0 19 -2 26 -8c7 -5 12 -16 7 -24c2 8 -3 16 -9 20c-7 4 -15 6 -23 5
c-20 2 -39 0 -58 -5c-8 -1 -20 -6 -26 -10c-23 -11 -8 -20 -15 -29c-34 -36 -53 -56 -83 -85c-118 -116 -339 -319 -444 -342z" />
    <glyph glyph-name="W" unicode="W" horiz-adv-x="1010" 
d="M432 32c-17 3 -24 10 -26 26c-2 36 33 81 74 131c62 75 134 143 202 212c61 63 122 128 173 201c92 129 33 183 -115 164c-80 -10 -157 -39 -231 -71c-51 -23 -99 -48 -147 -76c-128 -75 -277 -199 -322 -300c-10 -22 -14 -53 -6 -73c24 -58 53 -15 47 -33
c-6 -13 -38 -14 -54 26s4 96 36 139c31 42 70 81 110 115c46 37 87 72 137 104c152 97 370 191 512 179c90 -4 107 -70 67 -142c-21 -38 -55 -78 -83 -111c-50 -57 -101 -111 -153 -166c-67 -71 -141 -140 -200 -218c-15 -19 -54 -81 -27 -97c18 -10 61 12 90 31
s61 46 86 68c77 67 150 127 225 195l98 89c13 12 28 25 33 28c9 6 18 8 18 4c-1 -2 -9 -9 -18 -17c-25 -20 -55 -57 -100 -119c-95 -135 -100 -223 23 -109c55 51 144 142 181 197c4 6 -7 8 -6 12c2 3 5 4 8 4c58 12 114 15 182 13c7 -2 14 0 14 -8c-1 -2 -3 -4 -5 -3
c1 1 0 3 -2 4c-8 5 -40 3 -76 3c-32 -1 -67 -6 -99 -12c-3 -1 -11 -3 -12 -4s7 -3 1 -13c-4 -8 -11 -16 -17 -23c-57 -64 -110 -129 -161 -174c-50 -44 -89 -69 -105 -51c-11 12 -5 41 13 81c15 32 37 70 67 110l20 27c12 13 -11 -5 -74 -64c-18 -17 -50 -44 -87 -76
c-96 -84 -237 -213 -291 -203z" />
    <glyph glyph-name="X" unicode="X" horiz-adv-x="904" 
d="M29 138c-9 5 -18 10 -24 19c-6 6 -13 17 -7 25c1 2 3 3 5 3c7 0 7 -5 5 -9c-2 1 -3 -2 -4 -4c0 -3 0 -5 2 -8c4 -11 20 -20 31 -23c17 -6 39 -8 56 -8c16 0 25 1 41 4c122 21 237 88 337 159c36 25 77 52 104 87c29 33 69 73 107 102c32 24 57 58 80 90
c18 24 34 49 44 76c8 21 21 53 7 74c-15 25 -59 30 -84 30c-34 0 -67 -9 -100 -16c-55 -14 -109 -35 -161 -58c-105 -46 -212 -99 -303 -168c-38 -29 -71 -59 -105 -93c-15 -16 -29 -31 -42 -50c-6 -8 -10 -13 -15 -22c-5 -11 -8 -16 -8 -23c0 -1 0 -2 1 -3c0 -2 1 -2 2 -2
c1 -2 0 -4 -1 -5c-5 -2 -8 0 -8 4c-2 9 3 20 7 28c3 8 9 17 14 25c29 40 65 75 104 107c38 31 78 59 119 86c78 49 160 91 245 127c83 35 175 72 266 69c15 1 44 -6 55 -12c33 -17 40 -66 14 -120c-8 -19 -24 -45 -46 -73c-11 -15 -19 -28 -19 -28c1 -1 9 5 17 9
c48 25 87 38 112 42c18 2 39 -2 49 -8c13 -12 20 -32 11 -48c-2 -4 -6 -10 -10 -11c-2 0 -3 0 -5 1s-2 3 -1 5l3 1l3 2c1 1 4 4 4 6c3 5 3 10 3 16c0 8 -3 16 -11 20c-14 12 -35 11 -52 7c-38 -10 -51 -17 -106 -45c-35 -16 -36 -17 -73 -55c-32 -33 -78 -76 -109 -101
c-51 -42 -79 -123 -56 -185c22 -66 116 -89 176 -92c72 -5 136 11 203 32c19 6 37 13 55 21c18 6 35 13 52 22c1 1 2 2 3 1c2 0 3 0 4 -1c1 -6 -17 -12 -20 -14c-6 -2 -12 -5 -18 -8l-55 -21c-37 -13 -76 -25 -114 -31c-76 -14 -158 -14 -228 20c-81 38 -94 121 -58 196
c5 9 7 17 7 18l-115 -78c-45 -27 -93 -53 -142 -74c-22 -9 -44 -18 -67 -26c-29 -10 -59 -18 -89 -21s-64 -2 -92 10z" />
    <glyph glyph-name="Y" unicode="Y" horiz-adv-x="896" 
d="M307 -45c-37 8 -33 45 12 76c40 27 121 56 190 78c27 8 83 26 81 24c16 16 23 24 38 40c76 85 162 164 254 233l-64 -37c-83 -48 -164 -94 -248 -137c-90 -45 -170 -78 -193 -34c-15 31 7 74 24 99c33 48 115 129 187 195c44 40 94 82 126 134c8 14 12 29 7 46
c-7 22 -33 36 -90 30c-75 -8 -107 -15 -158 -32c-121 -39 -229 -104 -329 -183c-18 -14 -67 -54 -83 -72c-17 -18 -40 -38 -34 -49c1 -2 3 -4 -1 -6s-9 1 -9 6c-1 11 5 20 11 28c25 30 46 46 71 67c59 50 94 76 144 106c90 54 146 86 239 113c48 16 101 26 151 29
c131 5 124 -69 23 -163c-71 -67 -143 -131 -207 -203c-29 -32 -70 -79 -68 -126c2 -59 81 -26 149 6c102 45 325 174 428 242c27 18 54 35 86 43l8 2c-164 -100 -312 -225 -436 -371c29 10 34 11 52 17c62 22 98 33 167 66c67 32 71 35 72 33c2 -5 -5 -6 -64 -35
c-26 -13 -55 -27 -84 -38c-49 -20 -103 -37 -148 -52c0 0 -79 -76 -113 -102c-59 -44 -135 -85 -191 -73zM329 -42c31 1 62 12 88 27c43 24 79 57 115 90c20 19 28 28 36 35c9 8 13 14 13 14s-25 -7 -57 -17c-26 -8 -59 -18 -85 -27c-74 -26 -123 -52 -141 -77
c-22 -30 2 -48 31 -45z" />
    <glyph glyph-name="Z" unicode="Z" horiz-adv-x="594" 
d="M169 6c-27 -8 -52 -9 -53 1c0 8 39 32 99 61l43 20l18 8c14 7 18 10 26 21c24 31 29 42 32 60c3 22 -16 32 -36 38l-8 -3c-37 -12 -75 -18 -94 -14c-12 3 -12 10 -3 15c15 8 42 10 63 10l39 -2l41 19c139 64 273 197 358 309c36 46 71 96 83 154c2 10 3 21 1 31
c-2 9 -5 16 -12 23c-13 13 -30 19 -48 21c-13 1 -26 1 -39 -1c-22 -3 -48 -10 -70 -17s-37 -11 -58 -20c-44 -17 -91 -39 -133 -61c-42 -21 -82 -45 -122 -70c-100 -62 -198 -134 -262 -233c-5 -9 -12 -24 -4 -31c2 -1 4 1 5 -1c3 -5 -4 -12 -9 -9c-16 8 -1 43 16 64
c90 120 221 203 353 274l57 30c43 22 87 41 133 57c22 7 45 14 68 19c24 5 49 8 73 4c18 -3 35 -11 47 -25c34 -42 -4 -118 -47 -179c-105 -146 -224 -262 -381 -341c-36 -18 -42 -19 -42 -19c48 -13 47 -49 19 -87l-13 -19c28 11 56 23 83 35c30 14 61 28 92 43l55 28
l62 35c2 1 4 2 5 2c2 0 3 -3 -1 -5l-82 -45c-23 -12 -37 -19 -62 -31c-40 -19 -75 -36 -116 -53c-44 -20 -44 -19 -66 -42c-12 -12 -25 -25 -33 -31c-16 -13 -53 -35 -77 -43zM234 204l55 12s-25 2 -45 2c-17 0 -41 -2 -50 -9c-14 -9 20 -9 40 -5zM124 6c2 -3 22 -2 36 3
c28 10 54 22 77 41c25 19 48 45 48 45l-25 -11c-49 -22 -85 -41 -96 -48c-17 -11 -43 -24 -40 -30z" />
    <glyph glyph-name="bracketleft" unicode="[" horiz-adv-x="341" 
d="M33 98c-3 1 -7 1 -9 3c-12 7 4 34 9 41c12 17 27 33 41 48c27 29 55 58 83 86l66 68c9 9 16 19 27 25c10 6 21 4 32 3c31 -1 39 -3 39 -10c0 -5 -8 -9 -11 -5c-1 2 -11 4 -23 5c-11 1 -21 3 -31 -2c-9 -6 -17 -14 -25 -22l-46 -45c-37 -40 -33 -37 -74 -79
c-60 -58 -85 -94 -82 -103c2 -5 22 -5 62 1c17 3 32 4 33 3c0 -2 -2 -3 -5 -4c-28 -7 -57 -15 -86 -13z" />
    <glyph glyph-name="backslash" unicode="\" horiz-adv-x="154" 
d="M134 58c-3 -6 -23 19 -41 51c-17 30 -36 86 -46 132l-9 43c-10 48 -18 94 -18 110c0 6 1 10 2 10c2 1 3 0 5 -7c1 -5 2 -11 2 -13c0 -4 8 -44 19 -100c13 -61 33 -127 49 -160c9 -21 25 -48 32 -57c4 -5 6 -8 5 -9z" />
    <glyph glyph-name="bracketright" unicode="]" horiz-adv-x="296" 
d="M-5 89c-13 -3 -18 -2 -13 3c2 2 7 3 21 4c9 0 19 1 22 3c2 1 7 7 12 15c17 32 56 79 92 112c20 18 64 54 95 77l25 20c20 15 18 16 -15 15c-15 0 -26 -1 -29 -3c-3 -1 -5 -2 -6 -1c-2 2 3 6 9 8c7 2 58 2 63 0c10 -4 6 -9 -39 -46l-59 -49c-29 -24 -48 -42 -68 -65
c-27 -29 -32 -35 -43 -50c-26 -35 -25 -34 -21 -36c5 -2 -1 -4 -3 -4c-5 -1 -9 -2 -14 -2c-10 0 -20 1 -29 -1z" />
    <glyph glyph-name="asciicircum" unicode="^" horiz-adv-x="550" 
d="M29 268l224 451h50l218 -451h-78l-165 359l-170 -359h-79z" />
    <glyph glyph-name="underscore" unicode="_" horiz-adv-x="273" 
d="M50 181c-23 -1 -30 1 -30 3c0 1 5 3 10 4c9 2 19 2 29 2h124c2 -6 -12 -6 -15 -6h-20c-19 0 -54 -2 -65 -2c-1 0 -15 0 -33 -1z" />
    <glyph glyph-name="grave" unicode="`" horiz-adv-x="124" 
d="M79 524c1 -5 2 -14 -11 2c-21 26 -33 44 -30 48c2 3 4 2 10 -4c5 -5 29 -41 31 -46z" />
    <glyph glyph-name="a" unicode="a" 
d="M187 255c3 1 5 2 6 1c2 -3 -3 -5 -10 -8c-36 -17 -45 -21 -72 -32c-42 -18 -75 -32 -91 -22c-11 10 -2 30 3 36c-16 -8 -27 -12 -37 -12c-21 3 -9 22 7 30c32 17 58 23 67 18c3 -2 5 -1 10 1c7 2 16 5 17 -1c1 -5 -2 -9 -7 -9c-9 0 -27 -11 -44 -27
c-14 -14 -16 -28 -8 -32c9 -3 27 1 65 16c14 6 28 12 46 19c20 9 39 17 48 22zM51 259c1 12 -64 -20 -68 -28c-5 -10 14 -9 41 5c18 10 27 21 27 23z" />
    <glyph glyph-name="b" unicode="b" horiz-adv-x="214" 
d="M-13 195c-39 35 104 142 214 208c81 49 130 74 161 88c22 10 39 11 37 1c-3 -13 -27 -33 -66 -54c-48 -26 -113 -56 -206 -92c-13 -8 -15 -11 -35 -25c-30 -21 -98 -80 -98 -99c0 -1 3 2 8 6l12 8l13 8c17 10 41 20 58 23c34 6 21 -12 -2 -36c4 0 11 3 31 6l92 16l16 3
c4 1 6 -2 4 -4c-1 -1 -5 -1 -23 -4l-13 -2l-105 -20c-6 1 -8 0 -8 0l-11 -8c-20 -14 -26 -17 -36 -21c-15 -6 -28 -9 -43 -2zM139 356c0 0 33 12 47 18c65 28 88 38 122 57c66 37 85 51 84 59c-2 13 -81 -31 -134 -61c-37 -21 -70 -44 -119 -73zM5 218c1 -1 18 4 46 9l17 3
c8 6 17 12 23 20c4 5 7 9 5 11c-6 5 -45 -9 -63 -20c-11 -9 -29 -21 -28 -23zM3 198c8 0 38 11 49 19l10 7l-16 -4c-19 -4 -47 -11 -48 -17c-1 -4 1 -5 5 -5z" />
    <glyph glyph-name="c" unicode="c" horiz-adv-x="146" 
d="M-14 186c-21 -4 -32 4 -30 19c2 13 15 27 28 35c14 10 36 22 46 22c6 0 6 -7 1 -15c-6 -8 -12 -9 -10 -1c1 6 -1 6 -11 1c-28 -15 -45 -32 -45 -46c0 -8 5 -12 22 -9c30 6 78 23 106 35s30 14 53 25c8 4 12 6 12 2c0 -1 -7 -5 -9 -6c-29 -14 -35 -17 -67 -31
c-25 -10 -63 -24 -96 -31z" />
    <glyph glyph-name="d" unicode="d" horiz-adv-x="196" 
d="M-13 88c-6 -2 -12 -3 -15 0c-19 19 69 98 99 125c88 79 93 82 129 118c1 1 -4 -1 -33 -20c-34 -22 -70 -44 -107 -63c-19 -10 -34 -20 -54 -30c-23 -11 -44 -25 -52 -12c-3 5 2 11 6 16c16 20 52 40 63 35c7 -3 10 -10 8 -18c47 23 83 42 123 68l55 36l34 23
c15 10 34 23 42 29c14 11 20 12 23 9c2 -2 0 -7 -5 -10c-11 -6 -34 -24 -47 -34c-91 -70 -100 -84 -231 -204c-50 -46 -43 -62 -37 -61c12 2 6 -5 -1 -7zM-38 206c2 -3 21 7 38 16c14 7 26 16 25 23c-1 5 -8 8 -22 1c-20 -10 -46 -32 -41 -40z" />
    <glyph glyph-name="e" unicode="e" horiz-adv-x="129" 
d="M-9 186c-29 -7 -46 -2 -39 23c3 10 18 24 42 38c29 17 44 21 46 13c3 -9 -5 -15 -37 -31c-17 -8 -25 -11 -34 -13c-7 -1 -13 -15 -11 -20c6 -13 42 -3 71 7c30 10 77 35 92 43l15 8c2 1 8 2 7 0c-1 -3 -35 -21 -42 -25c-32 -17 -82 -37 -110 -43zM-26 223c1 0 23 9 30 13
c15 8 26 15 27 17c1 4 -6 2 -23 -7c-17 -8 -39 -25 -34 -23z" />
    <glyph glyph-name="f" unicode="f" horiz-adv-x="122" 
d="M-103 80c-9 -4 -18 9 -18 19c0 14 6 28 13 41c10 17 19 33 60 73c-12 4 -19 10 -22 14c-7 9 0 13 7 4c5 -6 13 -12 19 -12c3 0 9 7 26 21c109 89 121 93 191 140c105 71 158 102 163 85c6 -19 -42 -54 -98 -87c-28 -16 -120 -65 -159 -79c-16 -6 -23 -11 -35 -20
s-73 -61 -72 -61c8 0 26 0 44 3c44 7 79 21 95 27l16 6l5 2c2 -5 0 -5 -7 -8c-33 -12 -52 -20 -94 -30c-35 -8 -52 -6 -65 -7c-27 -23 -38 -35 -49 -50c-9 -12 -18 -24 -24 -38c-4 -9 -8 -23 -1 -33c2 -3 5 -5 6 -5c3 0 3 -3 -1 -5zM78 304c1 0 23 9 43 19
c48 24 126 64 150 82c35 24 67 48 59 57c-5 6 -27 -6 -104 -57l-100 -67c-7 -5 -23 -17 -48 -34z" />
    <glyph glyph-name="g" unicode="g" 
d="M-552 -190c-9 -1 -18 0 -25 4c-11 5 -14 16 -13 27c1 10 9 18 15 25c13 15 29 27 46 38c39 25 81 47 123 67c45 23 91 43 138 64c44 20 88 40 133 58c16 6 29 14 36 20c9 9 31 28 42 37l20 19l20 20c7 6 14 13 21 20l-4 -3c-39 -26 -53 -31 -56 -21c-4 16 26 50 60 68
c19 10 29 6 31 -2c1 -4 -2 -12 -6 -17l8 8l27 26c3 3 18 19 22 12l1 -2c0 -4 -20 -22 -45 -47l-35 -36l-83 -76c0 -1 65 27 100 44c49 24 65 33 96 51l65 39c5 3 5 1 6 1c2 -1 0 -3 -2 -4l-23 -14c-48 -29 -88 -52 -121 -68c-22 -11 -43 -21 -66 -31c-19 -8 -38 -17 -57 -25
c-14 -6 -17 -9 -29 -20l-66 -57l-73 -58l-40 -29c-33 -25 -68 -48 -98 -66l-22 -13c-8 -5 -49 -28 -56 -31c-15 -7 -30 -14 -45 -20c-15 -5 -30 -7 -45 -8zM-46 186c7 2 38 21 54 33c14 10 22 25 19 31s-15 1 -37 -15c-18 -12 -32 -27 -37 -38c-4 -9 -4 -12 1 -11z
M-571 -182c9 -4 31 -3 50 2c37 10 97 41 161 83c36 23 114 81 141 104l25 21l36 31c21 19 23 20 38 35c-10 -4 -37 -16 -50 -21c-46 -20 -93 -40 -139 -61l-29 -14l-20 -9c-20 -9 -37 -17 -54 -26l-21 -11c-6 -2 -73 -39 -83 -46c-27 -17 -46 -33 -55 -47
c-9 -12 -11 -15 -12 -23c-1 -7 4 -14 12 -18z" />
    <glyph glyph-name="h" unicode="h" horiz-adv-x="241" 
d="M-62 147c-9 -4 -14 -3 -18 1c-3 4 -8 7 -2 17c6 9 25 35 52 60c17 17 59 49 110 88c81 59 162 117 198 138c56 36 93 58 108 63c5 2 16 4 17 2c0 -1 -5 -4 -14 -10l-29 -15c-24 -14 -38 -23 -50 -31s-127 -78 -299 -216c-38 -29 -50 -44 -64 -62c-7 -8 -15 -21 -13 -21
c1 0 12 8 19 13c26 17 76 45 119 65c25 11 34 14 53 20c12 4 16 2 17 0c4 -3 2 -6 -10 -19c-26 -24 -31 -50 -13 -53c14 -2 41 11 55 20c55 34 59 37 74 47c3 2 8 0 6 -2l-19 -12c-62 -40 -89 -58 -114 -58c-10 0 -18 6 -19 17c-1 17 7 27 18 39c7 8 13 14 12 15
c0 1 -13 -3 -32 -10c-15 -5 -61 -27 -78 -36c-20 -11 -40 -22 -58 -34c-8 -5 -17 -10 -23 -17c-2 -3 -2 -3 1 -3c5 0 3 -3 -4 -6z" />
    <glyph glyph-name="i" unicode="i" horiz-adv-x="149" 
d="M40 275c-1 3 4 6 8 10c1 1 3 0 4 -2c2 -3 1 -4 -2 -7c-4 -4 -9 -5 -10 -1zM-43 186c-11 2 -7 17 -3 25c8 15 34 39 53 45c3 1 8 1 8 -3s-7 -6 -10 -8c-25 -14 -49 -38 -46 -48c4 -11 40 0 74 11c32 10 53 19 111 42l11 5c5 2 10 2 7 -2c0 0 -3 -2 -8 -4
c-58 -23 -60 -26 -121 -47c-12 -4 -41 -13 -53 -15c-5 -1 -18 -2 -23 -1z" />
    <glyph glyph-name="j" unicode="j" horiz-adv-x="119" 
d="M54 311c-1 3 4 6 8 10c1 1 3 0 4 -2c2 -3 1 -4 -2 -7c-4 -4 -9 -5 -10 -1zM-542 -66c39 25 81 47 123 67c46 22 92 43 138 64c44 20 89 40 134 58c16 6 30 13 38 20c33 29 34 31 103 102c10 10 15 16 26 28c12 14 15 17 16 6c1 -10 -44 -53 -122 -130c0 -1 76 33 97 43
c44 21 77 40 97 51c9 5 7 -2 -4 -7l-26 -15c-14 -8 -31 -16 -45 -23l-66 -31c-55 -25 -62 -29 -84 -47c-9 -7 -71 -63 -178 -143c-77 -58 -154 -104 -225 -129c-100 -33 -113 24 -22 86zM-545 -153c50 11 118 50 173 85c35 24 113 81 140 105c17 13 89 74 102 87
c-65 -25 -239 -104 -295 -132c-46 -21 -130 -66 -159 -103c-26 -36 -5 -48 39 -42z" />
    <glyph glyph-name="k" unicode="k" horiz-adv-x="183" 
d="M-67 159c3 -9 -13 -9 -13 0c0 15 35 56 66 81c51 41 73 62 115 90c41 28 82 53 124 80c51 33 103 56 124 62c37 11 51 5 36 -18s-102 -62 -143 -82c-23 -11 -134 -53 -154 -62c-7 -2 -13 -9 -36 -27c-9 -7 -36 -28 -52 -42c34 17 68 26 62 8c-5 -16 -50 -30 -70 -30
c-3 0 -5 -9 -3 -14c7 -18 21 -21 34 -22c46 -1 100 31 143 57l23 14c2 1 3 2 4 2c5 0 3 -3 -20 -17c-30 -18 -75 -44 -103 -53c-33 -11 -60 -11 -75 0c-10 7 -16 26 -14 35c1 5 -36 -35 -44 -48c-4 -7 -5 -11 -4 -14zM103 323c24 8 88 34 111 43c37 15 89 37 123 59
c31 20 65 44 41 47c-19 2 -60 -12 -119 -49c-69 -43 -165 -103 -156 -100zM0 225c11 1 42 10 54 22c13 13 -12 4 -26 -1l-17 -6c-14 -5 -21 -16 -11 -15z" />
    <glyph glyph-name="l" unicode="l" horiz-adv-x="93" 
d="M-97 80c-9 -4 -18 9 -18 19c0 14 6 28 13 41c27 45 52 68 90 100c109 89 121 93 191 140c105 71 158 102 163 85c6 -19 -42 -54 -98 -87c-28 -16 -120 -65 -159 -79c-16 -6 -23 -10 -35 -20c-61 -47 -97 -77 -127 -118c-9 -12 -18 -24 -24 -38c-4 -9 -8 -23 -1 -33
c2 -3 5 -5 6 -5c3 0 3 -3 -1 -5zM84 304c1 0 23 9 43 19c48 24 126 64 150 82c35 24 67 48 59 57c-5 6 -27 -6 -104 -57l-100 -67c-7 -5 -23 -17 -48 -34z" />
    <glyph glyph-name="m" unicode="m" horiz-adv-x="303" 
d="M-37 174c-4 5 -2 17 2 27c10 22 45 64 69 80c8 5 15 6 15 2c0 -2 -8 -11 -17 -21c-25 -28 -44 -50 -46 -54s-7 -9 2 -2c33 27 68 44 80 44c6 0 8 -4 8 -14c0 -11 3 -21 15 -19c24 3 50 13 71 24c6 3 12 5 14 5c5 0 3 -5 -3 -8c-15 -6 -27 -16 -27 -31
c0 -12 13 -16 23 -17c37 -3 80 23 130 57c4 3 6 7 6 0c0 -5 -74 -51 -99 -57c-23 -6 -42 -7 -58 2c-7 4 -14 15 -9 27c3 6 4 9 2 8c-4 -1 -15 -5 -24 -8c-12 -4 -34 -14 -43 -1c-5 7 -1 22 -7 25c-7 3 -37 -12 -70 -37c-19 -15 -27 -23 -27 -29s-3 -7 -7 -3z" />
    <glyph glyph-name="n" unicode="n" horiz-adv-x="270" 
d="M101 170c-41 -6 -54 19 -33 52c5 8 10 12 11 17c2 8 -10 4 -21 1c-10 -3 -32 -11 -58 -25c-14 -8 -34 -23 -35 -28s-2 -6 -7 -2c-8 7 -4 18 16 41c15 17 37 33 46 36c6 3 13 4 13 0c0 -3 -12 -10 -29 -23c-15 -13 -26 -26 -22 -27l28 14c36 17 72 29 78 19
c2 -3 -2 -9 -11 -21c-15 -22 -16 -43 0 -48c31 -8 104 20 200 78c5 3 6 1 6 -1c0 -1 -12 -9 -23 -15c-94 -51 -119 -61 -159 -68z" />
    <glyph glyph-name="o" unicode="o" horiz-adv-x="200" 
d="M-34 197c-4 1 -6 3 -6 5c0 13 22 37 47 54l3 2l3 1l2 1c2 1 6 4 9 1c1 -1 3 -5 4 -7c2 -4 3 -11 -1 -15c-3 -3 -3 -3 2 -6c12 -7 87 4 157 18l24 5c2 0 5 -3 -3 -5c-14 -3 -28 -7 -128 -23c-12 -2 -24 -3 -37 -3c-15 0 -20 2 -22 5c-10 -12 -17 -17 -28 -24
c-5 -3 -19 -11 -26 -9zM-28 206c2 -2 18 6 28 14c9 7 20 22 18 28c-2 5 -11 0 -26 -14c-14 -13 -23 -25 -20 -28z" />
    <glyph glyph-name="p" unicode="p" horiz-adv-x="155" 
d="M-278 -90c-5 -3 -6 -3 -9 0c-6 6 14 46 22 59c53 79 104 141 173 212c3 3 9 9 16 15l-1 2c-2 4 -5 16 2 23c6 6 16 7 35 10c10 1 17 5 49 31c78 64 113 91 134 102c11 6 17 6 17 0c0 -3 -12 -11 -12 -7c-1 1 -4 0 -6 -1c-4 -2 -32 -21 -63 -47l-33 -26
c-17 -13 -25 -22 -33 -29c-1 -1 17 10 27 14c32 13 56 14 49 0c-3 -5 -11 -15 -20 -22l-12 -10l35 1c33 1 44 0 44 -4c0 -2 -2 -2 -6 -2c-16 1 -45 1 -63 0l-16 -1c-36 -22 -75 -38 -93 -41c-16 -3 -20 -2 -26 -1l-27 -25c-63 -61 -120 -133 -165 -209
c-19 -32 -7 -37 -18 -44zM-15 232h13l44 3l14 10c13 10 23 21 23 25c0 5 -20 0 -48 -12c-10 -5 -19 -10 -22 -12l-12 -7zM-42 195c10 2 25 9 45 18l14 7l15 9l-38 -2c-8 -1 -16 -1 -17 -2c-5 -3 -26 -18 -33 -25c-8 -8 -4 -9 14 -5zM-71 199c1 -1 19 15 19 15
c3 3 13 11 12 11c-10 -1 -26 -3 -31 -9c-3 -3 -4 -11 0 -17z" />
    <glyph glyph-name="q" unicode="q" horiz-adv-x="170" 
d="M-242 -125c-20 -17 -24 15 12 65c20 28 40 53 194 205c59 58 94 88 118 107c6 4 -45 -22 -53 -26c-10 -4 -45 -23 -54 -9c-5 10 8 23 15 28c9 7 19 12 29 16c9 4 26 13 36 9c8 -3 0 -17 -3 -21c-3 -3 -4 -5 -4 -5c30 15 35 17 58 31l26 15c6 3 16 12 18 5
c1 -3 -3 -7 -13 -15c-49 -39 -80 -59 -183 -159c-79 -77 -133 -134 -153 -158c-17 -18 -50 -64 -45 -80c2 -6 8 -3 2 -8zM-15 222c3 -3 17 0 29 5c10 5 15 8 24 18c6 7 11 14 11 15c0 3 -7 3 -16 0l-10 -4c-6 -1 -27 -15 -32 -20c-4 -4 -8 -12 -6 -14z" />
    <glyph glyph-name="r" unicode="r" horiz-adv-x="113" 
d="M-40 143c-8 2 -10 8 -9 17c1 7 8 20 15 28s24 24 37 35c7 6 26 19 31 22c2 1 1 2 -6 3l-11 2c-3 1 -6 1 -9 1c-2 0 -3 2 -2 3s2 4 13 0c8 -3 11 -3 22 -3c9 0 12 0 12 -1c0 -2 0 -5 -8 -8c-3 -1 -8 -4 -11 -6c-43 -29 -73 -66 -73 -82c0 -7 5 -7 8 -6c4 2 4 -1 0 -4
c-2 -1 -5 -2 -9 -1z" />
    <glyph glyph-name="s" unicode="s" horiz-adv-x="130" 
d="M-148 105c-12 3 -15 12 -8 23c6 11 36 27 77 42c20 7 21 7 27 15c21 33 44 61 69 80c15 11 28 15 35 17c8 2 15 1 17 -2c3 -3 -4 -11 -13 -10c-9 -1 -32 -17 -40 -24c-12 -9 -23 -20 -33 -31c-7 -7 -20 -24 -26 -34c0 0 2 0 40 14c39 14 70 26 117 49c13 6 24 12 26 12
c3 0 3 -3 -3 -6c-73 -37 -107 -48 -165 -69c-17 -6 -19 -6 -23 -12c-28 -39 -66 -73 -97 -64zM-135 111c11 1 27 11 39 22c11 10 30 31 34 37c2 2 -7 -1 -17 -5c-12 -4 -44 -19 -56 -27c-7 -4 -14 -11 -15 -19s9 -9 15 -8z" />
    <glyph glyph-name="t" unicode="t" horiz-adv-x="74" 
d="M-128 67c-11 3 -10 22 -5 32c32 65 165 180 303 287l95 74c-32 0 -65 0 -80 -1c-32 -2 -49 -2 -76 -5c-28 -2 -57 -6 -84 -10c-21 -3 -41 -6 -61 -11c-6 -1 -21 -4 -23 -11c-1 -5 -11 -5 -12 -1c-8 16 85 26 93 28c83 11 166 14 250 16l11 8l51 41c22 18 57 44 57 29
c0 -18 -35 -38 -69 -59c-15 -10 -30 -19 -30 -19c72 -4 97 -4 167 -13c19 -3 37 -6 56 -10c9 -2 33 -7 45 -15c1 -1 0 -2 -1 -3c-26 10 -54 17 -82 21c-58 9 -117 13 -191 15l-22 -15c-69 -52 -139 -106 -205 -160l-33 -29c-37 -32 -75 -64 -107 -102
c-13 -16 -23 -28 -35 -47c-9 -13 -16 -30 -7 -34c4 -1 15 4 28 14c4 3 2 -2 1 -3c-10 -9 -21 -19 -34 -17zM290 469c0 -1 26 16 43 27c29 18 51 36 51 40s-10 0 -31 -16c-10 -8 -63 -50 -63 -51z" />
    <glyph glyph-name="u" unicode="u" horiz-adv-x="199" 
d="M29 189c-15 5 1 28 7 34c4 4 6 8 6 8c-1 1 -7 -2 -26 -10c-21 -9 -35 -14 -41 -11c-4 2 -5 3 -5 7c0 6 5 12 24 28s29 22 32 21c4 -1 3 -4 -2 -6c-10 -4 -44 -36 -44 -42c0 -4 16 1 38 10c31 13 43 19 55 29c6 5 11 8 14 8s4 -1 4 -2s-10 -10 -22 -21s-24 -23 -27 -27
c-14 -18 -16 -25 4 -20c24 6 119 42 162 60c3 1 6 1 6 -2c0 -1 -7 -3 -7 -3l-62 -24c-59 -22 -104 -41 -116 -37z" />
    <glyph glyph-name="v" unicode="v" horiz-adv-x="124" 
d="M-25 191c-10 -4 -15 -4 -19 0c-7 7 8 29 35 54c31 26 38 29 40 22c1 -2 -5 -3 -18 -13c-20 -15 -51 -45 -51 -58c0 -7 18 0 50 19c19 11 17 13 20 18c1 2 1 3 3 5c1 1 4 2 6 2c62 12 83 10 83 4c0 -2 -1 -2 -4 -1c-8 3 -24 1 -38 -1c-45 -6 -40 -8 -41 -11
c-2 -6 -40 -30 -66 -40z" />
    <glyph glyph-name="w" unicode="w" horiz-adv-x="144" 
d="M-61 176c-18 -4 -15 10 -9 19c11 16 41 38 65 54c13 9 18 10 19 7c1 -4 -1 -8 -10 -8c-2 0 -11 -6 -15 -9l-12 -9c-10 -7 -35 -30 -40 -38c-6 -9 -6 -13 0 -12c10 2 27 11 35 16l20 13c8 5 17 11 20 14c6 6 11 9 14 8c4 -1 2 -3 -4 -8c-11 -10 -18 -17 -21 -26
c-4 -13 0 -14 12 -6s45 39 45 43c0 1 -2 1 -3 1c-4 0 -3 1 2 6c1 1 2 2 4 3s4 0 6 0h14c10 0 20 0 30 1l33 4s1 0 1 -1s0 -1 -1 -2s-5 -2 -17 -3c-20 -2 -37 -3 -55 -3c-5 0 -6 0 -6 -1c0 -2 0 -5 -2 -7l-25 -25c-14 -14 -34 -31 -42 -27c-3 2 -4 10 -1 20c1 3 3 6 5 9
c-32 -22 -47 -30 -62 -33z" />
    <glyph glyph-name="x" unicode="x" horiz-adv-x="105" 
d="M-133 128c-3 7 44 43 93 75l26 17l3 6c9 18 27 43 32 44s3 -2 -7 -18c-7 -11 -10 -14 -16 -26c0 0 15 10 22 14l17 10c15 9 28 16 44 24c14 7 28 14 42 19c55 21 72 22 78 12c1 -2 2 -5 0 -8c-3 -5 -6 -4 -5 0s1 5 -2 8c-2 2 -7 2 -10 2c-15 0 -33 -8 -47 -13
c-35 -12 -74 -33 -97 -47l-23 -14l-19 -12c-3 -2 -3 -3 -5 -7c-6 -14 -8 -22 -8 -37c0 -2 1 -4 2 -5s3 -2 3 -3c0 -2 -5 -2 -8 0c-6 5 -3 31 1 44c-2 -1 -4 -2 -19 -12l-19 -13l-23 -16l-22 -17c-7 -5 -14 -12 -21 -19l-7 -8c-1 -1 -4 -2 -5 0z" />
    <glyph glyph-name="y" unicode="y" horiz-adv-x="160" 
d="M-456 -112c-24 12 15 59 58 93c25 20 52 39 80 56c66 40 146 78 225 106c24 9 27 11 27 11l31 25c23 19 49 42 58 50c1 1 -17 -8 -25 -12c-36 -19 -53 -14 -34 6c8 8 18 14 27 21c8 6 19 15 22 10c1 -2 -5 -5 -20 -15c-14 -9 -37 -30 -31 -30c15 0 73 29 100 53
c5 5 10 4 10 1c0 -2 -2 -4 -24 -23c-17 -15 -72 -63 -97 -84l47 17c49 18 80 32 124 56c22 12 31 18 48 27c6 -1 5 -3 -8 -10c-58 -34 -69 -38 -101 -53c-30 -14 -45 -18 -93 -36l-27 -10l-35 -29l-69 -61c-29 -25 -58 -46 -88 -69s-56 -41 -88 -60
c-25 -15 -89 -54 -117 -40zM-442 -109c27 0 53 15 76 28c33 19 65 41 96 64c59 44 114 93 170 140l26 22l-43 -16l-59 -24c-34 -14 -69 -32 -101 -50c-33 -18 -63 -38 -93 -60c-28 -20 -66 -49 -79 -73c-12 -22 -9 -31 7 -31z" />
    <glyph glyph-name="z" unicode="z" horiz-adv-x="172" 
d="M-307 -94c0 20 83 91 123 119c69 47 108 69 151 93c3 2 31 38 42 61c9 18 12 31 6 38c-4 5 -12 4 -33 -6c-16 -8 -30 -12 -29 -8s26 16 36 19c11 3 35 15 51 25c22 14 40 27 40 33c0 8 -54 -20 -79 -33c-10 -5 -10 -3 -8 -1c6 7 45 27 71 36c14 5 22 5 23 0
c1 -7 -24 -27 -59 -47l-18 -10c11 -1 15 -9 15 -19c0 -12 -20 -49 -26 -57l-15 -22c32 19 51 32 61 38c48 30 50 32 131 88c4 3 9 1 4 -3l-37 -26c-65 -43 -94 -62 -164 -106c0 0 -5 -6 -12 -13c-54 -54 -67 -69 -132 -123c-51 -42 -142 -104 -142 -76zM-302 -92
c0 -19 85 41 151 96c80 67 97 89 113 106c-21 -11 -35 -20 -70 -41c-25 -15 -43 -28 -67 -45c-26 -18 -52 -37 -75 -58c-33 -31 -52 -52 -52 -58z" />
    <glyph glyph-name="braceleft" unicode="{" horiz-adv-x="312" 
d="M100 80c-3 -3 -47 -2 -55 1c-12 4 -18 8 -21 13c-10 17 0 35 45 82c29 30 44 47 44 50c0 1 -2 2 -5 3c-10 2 -12 7 -3 13c5 3 14 3 23 0c4 -1 24 9 37 19c11 8 33 29 62 60c19 19 36 33 46 37c9 5 16 5 18 1c3 -4 -3 -23 -9 -28c-6 -6 -7 -1 -1 10c4 9 5 14 2 14
c-4 0 -28 -18 -35 -27c-13 -15 -48 -50 -60 -60c-16 -14 -40 -28 -54 -32c-2 -1 -4 -4 -5 -7c-4 -9 -21 -31 -45 -55c-24 -25 -36 -40 -43 -54c-6 -12 -7 -23 -2 -28s20 -8 42 -10c11 0 19 -2 19 -2z" />
    <glyph glyph-name="bar" unicode="|" horiz-adv-x="118" 
d="M39 88c-2 3 -2 11 -2 15c0 26 6 55 17 93c6 22 12 45 19 69c5 20 11 40 16 61l13 52c1 7 3 12 3 14c3 4 5 4 5 0c1 -2 -4 -30 -7 -44c-7 -31 -25 -98 -34 -131c-17 -57 -23 -84 -25 -107c0 -6 -1 -12 0 -16c1 -3 1 -4 1 -6c0 -5 -5 -3 -6 0z" />
    <glyph glyph-name="braceright" unicode="}" horiz-adv-x="272" 
d="M-16 78c-5 4 -6 9 -1 15c4 5 8 3 4 -3c-3 -8 2 -11 16 -10c29 2 44 18 72 74c13 25 16 29 29 43c19 19 30 27 58 41l22 12l-8 2c-11 4 -15 7 -15 15c0 16 10 30 38 54c33 28 36 30 39 38c5 9 4 11 -8 11c-8 0 -12 -1 -20 -5c-5 -3 -10 -5 -11 -4l2 5c3 4 13 8 24 10h10
c26 -3 23 -18 -12 -46c-36 -29 -51 -48 -51 -63c0 -4 1 -6 5 -7c10 -4 24 -5 35 -2c16 4 20 3 30 -4c3 -2 -6 -4 -18 -4c-27 0 -61 -16 -96 -46c-18 -15 -23 -21 -40 -55c-21 -40 -35 -58 -56 -68s-37 -11 -48 -3z" />
    <glyph glyph-name="asciitilde" unicode="~" horiz-adv-x="136" 
d="M1 185c-4 4 11 13 27 18c19 7 29 6 39 -1c11 -8 20 -11 30 -8c13 3 19 5 19 3c0 -3 -11 -8 -23 -9c-8 0 -19 0 -26 7c-9 7 -13 8 -24 7c-10 -2 -29 -10 -36 -15c-3 -2 -5 -3 -6 -2z" />
    <glyph glyph-name="uni007F" 
 />
    <glyph glyph-name="exclamdown" unicode="&#xa1;" horiz-adv-x="333" 
d="M309 559c4 0 6 -8 2 -12s-9 -5 -9 -2c0 4 5 14 7 14zM272 456c7 -11 -8 -30 -13 -38c-24 -39 -55 -73 -83 -109c-30 -38 -60 -75 -96 -108c-14 -13 -29 -27 -46 -37l-4 -2c-2 -1 -5 -1 -7 0c-4 2 -3 7 -2 10c1 4 4 5 8 8c28 21 52 42 76 67c31 33 60 67 88 103
c14 18 29 35 43 52c11 13 22 29 30 44c1 2 1 6 0 8c-3 5 3 7 6 2z" />
    <glyph glyph-name="cent" unicode="&#xa2;" horiz-adv-x="152" 
d="M15 108c-5 1 -5 1 -5 8s3 17 27 45l-2 6c-4 11 -2 23 9 36c23 27 64 48 89 59c9 4 17 9 30 20l25 21c9 7 11 7 14 3c2 -3 -16 -15 -31 -30c-6 -6 -7 -6 -5 -9c4 -5 2 -11 -1 -18c-4 -9 -11 -17 -15 -17s-4 4 0 8c10 10 13 21 8 21c-10 0 -105 -91 -104 -98
c1 -5 23 -2 50 -2c5 0 8 0 8 -1c0 -3 -24 -9 -48 -7c-22 2 -17 5 -19 2l-15 -18c-10 -11 -12 -17 -11 -24c1 -5 0 -6 -4 -5zM43 170c2 -2 4 2 9 9c10 13 22 25 34 37l10 10l11 10l4 3l6 4l9 8l-10 -5l-10 -6l-24 -15c-20 -12 -35 -26 -41 -42c-2 -5 0 -11 2 -13z" />
    <glyph glyph-name="sterling" unicode="&#xa3;" horiz-adv-x="250" 
d="M-37 95c-9 5 4 19 29 34c10 6 33 16 43 20c7 3 47 37 78 67l30 29c7 7 16 16 15 16c-9 0 -12 -3 -47 -11c-18 -4 -26 -6 -27 -2s5 4 16 6l56 11c10 2 12 3 33 23l49 46c52 49 60 59 68 64c10 6 14 6 14 -2c0 -4 -8 -14 -12 -16s-5 0 0 6c3 4 3 5 2 5
c-4 0 -13 -11 -31 -28l-31 -30l-29 -27l-21 -20c-9 -9 -18 -16 -16 -16c1 0 12 2 22 3c19 2 35 0 36 -3c1 -2 -3 -3 -12 -1c-5 1 -14 1 -32 -2c-20 -3 -22 -3 -25 -6l-13 -12l-17 -16c-25 -24 -45 -43 -50 -47l-12 -10l-13 -12l-8 -9c11 2 20 3 31 4c13 1 51 3 95 0
c27 -2 24 -2 21 -5c-4 -4 -8 0 -43 1c-40 1 -70 -2 -94 -5l-21 -3l-22 -15c-53 -36 -58 -39 -62 -37zM-27 106c0 -3 17 7 34 20l12 9c4 2 1 1 -9 -3c-7 -3 -37 -21 -37 -26z" />
    <glyph glyph-name="currency" unicode="&#xa4;" horiz-adv-x="571" 
d="M90 353c0 38 11.667 74.667 35 110l-66 68l49 47l66 -64c32.667 23.333 70 35 112 35c39.333 0 76 -11.667 110 -35l67 64l48 -47l-64 -67c23.333 -36 35 -73 35 -111c0 -42 -11.667 -79.333 -35 -112l63 -66l-47 -47l-67 64c-33.333 -22.667 -70 -34 -110 -34
c-42.667 0 -80 11.667 -112 35l-66 -64l-48 47l65 66c-23.333 35.333 -35 72.333 -35 111zM157 353c0 -36 12.5 -66.501 37.5 -91.501s55.5 -37.5 91.5 -37.5s66.667 12.333 92 37s38 55.334 38 92.001c0 37.333 -12.667 68.5 -38 93.5s-56 37.5 -92 37.5
s-66.5 -12.667 -91.5 -38s-37.5 -56.333 -37.5 -93z" />
    <glyph glyph-name="yen" unicode="&#xa5;" horiz-adv-x="216" 
d="M47 117c-2 0 -3 1 -3 6c0 6 4 13 12 26c3 5 5 9 5 10s-7 2 -15 1c-13 -2 -15 -1 -16 2s0 3 19 4l19 1l9 11l24 27c8 8 14 16 15 17s-1 2 -3 2c-8 0 -54 -2 -63 -5c-10 -3 -14 -3 -11 2c2 3 28 6 61 8c14 1 27 2 28 3c2 2 2 4 3 8c4 15 14 38 95 135c21 25 28 31 28 25
c0 -3 -8 -16 -62 -82c-18 -22 -35 -45 -38 -50c-10 -17 -16 -33 -11 -33c3 0 5 2 7 3l14 6c7 3 13 7 19 11l21 13l40 27c12 8 24 17 35 25l43 30l20 15c7 5 13 7 18 12c1 1 1 2 3 2s4 0 1 -3c-5 -5 -9 -7 -14 -10l-18 -13l-36 -25c-25 -17 -49 -36 -75 -52l-36 -23
c-13 -9 -34 -18 -33 -19s11 -1 15 -1c27 0 38 -3 45 -8c4 -3 8 -9 7 -11c-2 -4 -6 -4 -8 2c-1 3 -5 6 -8 7c-8 3 -28 5 -49 4l-19 -1l-8 -8c-10 -10 -44 -46 -44 -48c0 -1 1 -3 21 -3c7 0 14 -1 15 -2c4 -4 -2 -4 -11 -3c-12 1 -29 0 -33 -3c-9 -6 -25 -33 -25 -39
c0 -3 -1 -3 -3 -3z" />
    <glyph glyph-name="brokenbar" unicode="&#xa6;" horiz-adv-x="550" 
d="M239 760h73v-381h-73v381zM239 140h73v-381h-73v381z" />
    <glyph glyph-name="section" unicode="&#xa7;" horiz-adv-x="513" 
d="M67 395c0 28 6.99609 52.999 20.9961 74.999s33.333 39 58 51c-24 13.333 -42.667 29 -56 47s-20 40.667 -20 68c0 40 16.833 71.5 50.5 94.5s82.5 34.5 146.5 34.5c30 0 57.333 -2.33301 82 -7s54.334 -13.667 89.001 -27l-27 -67
c-31.333 12.667 -58.166 21.334 -80.499 26.001s-45.5 7 -69.5 7c-37.333 0 -64.833 -4.83301 -82.5 -14.5s-26.5 -24.5 -26.5 -44.5c0 -18 9.33301 -33.833 28 -47.5s53.334 -29.5 104.001 -47.5c59.333 -22 101.333 -45.333 126 -70s37 -54.667 37 -90
c0 -58.667 -25 -103 -75 -133c49.333 -26 74 -62.667 74 -110c0 -46 -19.167 -81.667 -57.5 -107s-91.833 -38 -160.5 -38s-125 11 -169 33v75c28 -12.667 57.5 -22.667 88.5 -30s59.167 -11 84.5 -11c41.333 0 73.333 6 96 18s34 29.667 34 53c0 20 -8.66699 36.333 -26 49
s-51.666 29 -102.999 49c-64 24 -107.667 48.167 -131 72.5s-35 54.833 -35 91.5zM141.996 404.999c0 -16.667 4.33203 -31.1699 12.999 -43.5029s23 -24.166 43 -35.499s56.333 -27 109 -47c42.667 24.667 64 55 64 91c0 26.667 -11.333 48.834 -34 66.501
s-63.667 35.834 -123 54.501c-21.333 -6 -38.666 -17 -51.999 -33s-20 -33.667 -20 -53z" />
    <glyph glyph-name="dieresis" unicode="&#xa8;" horiz-adv-x="123" 
d="M39 538c-9 -3 -7 2 2 11c6 5 11 9 12 9c4 1 9 0 8 -3c0 -3 -16 -15 -22 -17zM64 536c-2 5 2 11 8 14c7 3 14 2 14 -2c-1 -1 -3 -4 -6 -5s-7 -4 -8 -5c-4 -5 -8 -6 -8 -2z" />
    <glyph glyph-name="copyright" unicode="&#xa9;" horiz-adv-x="289" 
d="M100 132c-22 -4 -47 -6 -68 2c-18 6 -33 21 -32 42c1 12 7 24 15 34c29 33 74 53 117 62c8 1 20 -1 25 -4c6 -5 12 -14 12 -19c0 -4 1 -5 6 -7c12 -4 15 -17 14 -28v-10c-2 -15 -10 -29 -21 -39l-9 -8c-18 -13 -38 -21 -59 -25zM56 133c12 -2 25 -1 37 1
c20 3 40 10 57 21c19 11 33 29 36 52c1 4 2 9 1 13c-2 9 -9 18 -18 19c-6 1 -6 2 -5 7c1 7 -3 12 -12 17c-9 4 -15 4 -39 -3c-45 -13 -90 -43 -102 -70c-4 -10 -4 -22 0 -32c8 -15 29 -22 45 -25zM97 167c-17 -1 -25 2 -28 10c-5 15 9 30 45 45c6 2 13 4 17 4c6 0 7 -1 7 -5
c1 -6 -5 -15 -9 -15s-3 1 1 7c5 8 4 9 -4 7c-11 -1 -30 -12 -39 -21c-8 -8 -10 -10 -10 -16s2 -7 6 -8c7 -3 35 -2 51 3c3 0 3 0 1 -1c-5 -4 -24 -9 -38 -10z" />
    <glyph glyph-name="ordfeminine" unicode="&#xaa;" horiz-adv-x="356" 
d="M261 389l-11.999 42.002c-30.667 -32 -68.667 -48 -114 -48c-31.333 0 -56.333 8.16699 -75 24.5s-28 41.166 -28 74.499s12.833 58.666 38.5 75.999s65.5 27 119.5 29l56 2v22c0 20 -6.33301 34.833 -19 44.5s-30 14.5 -52 14.5
c-32.667 0 -66.334 -8.66699 -101.001 -26c-8.66699 20 -16 36.333 -22 49c40 19.333 81.667 29 125 29s76 -9 98 -27s33 -46.667 33 -86v-220h-47zM96.001 482.002c0 -32 18 -48.001 54 -48.001c64 0 96 29 96 87v23l-48 -2c-36 -1.33301 -62 -6.66602 -78 -15.999
s-24 -24 -24 -44z" />
    <glyph glyph-name="guillemotleft" unicode="&#xab;" horiz-adv-x="268" 
d="M67 166c-29 2 -39 5 -45 13c-3 4 -2 9 1 14c10 15 29 24 44 33l43 21l3 1c7 3 27 11 27 5c0 -2 -5 -5 -14 -7c-7 -2 -31 -13 -54 -26c-31 -17 -46 -32 -40 -39c4 -6 11 -8 38 -11c36 -4 34 -7 -3 -4zM168 183c0 -2 -40 0 -57 2c-13 2 -21 7 -20 14c1 8 26 24 53 33
c5 2 10 4 14 4c5 -1 6 -5 2 -7c-12 -5 -24 -9 -35 -15l-14 -7c-3 -2 -8 -5 -8 -9c-1 -4 9 -8 31 -10c26 -2 34 -3 34 -5z" />
    <glyph glyph-name="logicalnot" unicode="&#xac;" horiz-adv-x="571" 
d="M520 388v-260h-71v189h-399v71h470z" />
    <glyph glyph-name="uni00AD" unicode="&#xad;" horiz-adv-x="321" 
d="M40 229v78h242v-78h-242z" />
    <glyph glyph-name="registered" unicode="&#xae;" horiz-adv-x="252" 
d="M68 139c-35 -6 -76 14 -67 56c7 33 47 57 76 70l4 1c10 3 18 2 28 -4c6 -4 14 -7 16 -8c9 -2 15 -7 20 -18c11 -23 10 -44 -8 -63c-19 -19 -42 -30 -69 -34zM64 143c27 2 54 15 72 35c13 14 14 31 6 48c-6 12 -12 20 -14 20c-1 0 0 -1 0 -3c-1 -3 -1 -2 -9 6
c-5 5 -13 10 -17 11c-13 6 -27 -2 -39 -8c-13 -8 -26 -15 -37 -26c-14 -14 -25 -38 -18 -58c8 -21 36 -27 56 -25zM79 169c-5 5 -10 14 -13 25c-1 4 -3 8 -4 8c-4 0 -15 -11 -19 -18c-3 -6 -7 -8 -9 -4c-1 4 6 15 15 24c5 4 9 9 10 11s3 4 5 4c1 0 7 3 12 6c6 4 12 7 17 8
c13 2 21 0 21 -6s-20 -15 -32 -15c-4 0 -8 -1 -8 -2c-2 -2 4 -23 9 -33s3 -13 -4 -8zM87 221c0 -2 10 1 12 3s1 3 -4 2s-8 -3 -8 -5z" />
    <glyph glyph-name="macron" unicode="&#xaf;" horiz-adv-x="204" 
d="M51 535c-3 6 4 8 40 11c49 4 64 4 63 -5c-1 -5 -4 -4 -17 -3c-6 0 -17 1 -28 0c-54 -5 -57 -5 -58 -3z" />
    <glyph glyph-name="degree" unicode="&#xb0;" horiz-adv-x="167" 
d="M122 315c-5 -2 -11 -3 -17 0c-2 2 -4 4 -5 6c-1 6 3 11 8 14c7 3 22 3 26 -1c7 -7 2 -14 -12 -19zM110 320c3 -1 5 -1 11 2c5 2 8 4 9 5c0 2 -12 3 -18 1c-5 -1 -6 -5 -2 -8z" />
    <glyph glyph-name="plusminus" unicode="&#xb1;" horiz-adv-x="571" 
d="M321 391h199v-71h-199v-206h-72v206h-199v71h199v207h72v-207zM50 0v71h470v-71h-470z" />
    <glyph glyph-name="uni00B2" unicode="&#xb2;" horiz-adv-x="350" 
d="M306 286h-282v54l115 112c41.333 40 67.833 69.167 79.5 87.5s17.5 38.833 17.5 61.5c0 21.333 -6.16699 37.333 -18.5 48s-28.5 16 -48.5 16s-38.167 -3.83301 -54.5 -11.5s-33.166 -18.167 -50.499 -31.5l-35 46c43.333 36.667 90.333 55 141 55
c42.667 0 76.167 -10.667 100.5 -32s36.5 -50 36.5 -86c0 -14.667 -2 -28.5 -6 -41.5s-10.167 -26.167 -18.5 -39.5s-19.333 -27.5 -33 -42.5s-59.834 -59.5 -138.501 -133.5h195v-62z" />
    <glyph glyph-name="uni00B3" unicode="&#xb3;" horiz-adv-x="350" 
d="M308 613c0 -49.333 -24.667 -83.333 -74 -102c58 -14 87 -48 87 -102c0 -41.333 -15 -73.5 -45 -96.5s-72.667 -34.5 -128 -34.5c-49.333 0 -93 9.33301 -131 28v63c46 -22.667 90 -34 132 -34c66.667 0 100 25.333 100 76c0 46 -36.667 69 -110 69h-57v55h57
c33.333 0 57.833 6.33301 73.5 19s23.5 29.667 23.5 51c0 19.333 -6.33301 34.333 -19 45s-29.667 16 -51 16c-34 0 -71 -12.667 -111 -38l-36 46c24 18 47.667 30.667 71 38s48.333 11 75 11c44 0 78.833 -9.83301 104.5 -29.5s38.5 -46.5 38.5 -80.5z" />
    <glyph glyph-name="acute" unicode="&#xb4;" horiz-adv-x="150" 
d="M36 521c0 2 14 17 29 30c11 9 19 15 33 23c5 3 10 3 11 2c5 -2 -1 -5 -30 -28c-19 -15 -21 -17 -31 -27c-4 -4 -12 -5 -12 0z" />
    <glyph glyph-name="mu" unicode="&#xb5;" horiz-adv-x="623" 
d="M173 190c0 -84.667 39.999 -127 119.999 -127c55.333 0 95.333 15.167 120 45.5s37 79.833 37 148.5v279h88v-536h-71l-14 72h-5c-35.333 -54.667 -89 -82 -161 -82c-47.333 0 -85.666 15 -114.999 45h-4c3.33301 -24 5 -63.667 5 -119v-156h-88v776h88v-346z" />
    <glyph glyph-name="paragraph" unicode="&#xb6;" horiz-adv-x="654" 
d="M549 -127h-58v831h-102v-831h-58v400c-20 -6 -43.667 -9 -71 -9c-70 0 -121.667 20.333 -155 61s-50 102 -50 184c0 84.667 17.833 147.667 53.5 189s91.167 62 166.5 62h274v-887z" />
    <glyph glyph-name="periodcentered" unicode="&#xb7;" horiz-adv-x="138" 
d="M21 208c-2 4 -2 10 2 12c7 5 19 -1 14 -8c-2 -4 -14 -7 -16 -4z" />
    <glyph glyph-name="cedilla" unicode="&#xb8;" horiz-adv-x="135" 
d="M61 94c-13 -1 -22 2 -22 7c0 3 5 3 15 3c19 0 27 4 27 14c0 7 0 9 -8 11c-5 2 -6 4 -6 6c0 6 7 15 17 23c6 3 11 6 12 6c6 0 3 -6 -6 -14c-10 -7 -11 -9 -6 -11c4 -2 11 -14 11 -20c0 -13 -13 -22 -34 -25z" />
    <glyph glyph-name="uni00B9" unicode="&#xb9;" horiz-adv-x="350" 
d="M167 714h73v-428h-71v276c0 22 1.33301 51.667 4 89c-10 -9.33301 -18.833 -17 -26.5 -23s-32.5 -24.333 -74.5 -55l-35 49z" />
    <glyph glyph-name="ordmasculine" unicode="&#xba;" horiz-adv-x="375" 
d="M345 553c0 -53.333 -14.001 -95 -42.001 -125s-66.667 -45 -116 -45c-47.333 0 -85 15 -113 45s-42 71.667 -42 125c0 54 13.667 95.667 41 125s66 44 116 44c48.667 0 86.834 -14.833 114.501 -44.5s41.5 -71.167 41.5 -124.5zM94.999 553
c0 -39.333 7.16895 -68.666 21.502 -87.999s38.166 -29 71.499 -29c32.667 0 56.334 9.66699 71.001 29s22 48.666 22 87.999s-7.33301 68.5 -22 87.5s-38.334 28.5 -71.001 28.5s-56.334 -9.5 -71.001 -28.5s-22 -48.167 -22 -87.5z" />
    <glyph glyph-name="guillemotright" unicode="&#xbb;" horiz-adv-x="271" 
d="M48 149c0 5 26 23 64 43c27 14 46 26 47 28c1 3 -2 7 -16 17c-8 5 -15 7 -21 9c-10 4 -11 5 -11 9c0 2 3 3 10 0c11 -4 22 -8 38 -22c10 -8 13 -12 12 -15c0 -4 -13 -12 -48 -30c-36 -18 -56 -29 -64 -36c-7 -5 -11 -7 -11 -3zM29 174c-7 -3 -11 -2 -7 3c3 3 26 12 42 18
c23 8 42 19 40 25c-1 3 -13 8 -31 13c-17 4 -19 4 -17 6c1 3 2 4 16 0c17 -4 22 -5 29 -9c13 -6 17 -13 12 -20c-3 -4 -24 -14 -44 -21c-32 -11 -34 -12 -40 -15z" />
    <glyph glyph-name="onequarter" unicode="&#xbc;" horiz-adv-x="790" 
d="M736 96h-61v-96h-75v96h-195v52l197 283h73v-275h61v-60zM600 156v93c0 34.667 1 68.333 3 101c-2.66699 -6 -18.667 -31.667 -48 -77l-80 -117h125zM284 80c-15 0 -7 17 29 63c22 30 50 62 91 103l52 53c23 24 42 40 53 46c7 4 8 4 8 0c0 -1 1 -3 -3 -6
c-14 -13 -29 -24 -57 -55c-11 -13 -31 -34 -45 -49l-32 -33l-21 -23c-8 -9 -22 -25 -31 -36c-9 -12 -17 -21 -18 -22c0 0 -6 -7 -12 -16c-10 -13 -12 -16 -11 -20c1 -5 1 -5 -3 -5zM165 714h73v-428h-71v276c0 22 1.33301 51.667 4 89c-10 -9.33301 -18.833 -17 -26.5 -23
s-32.5 -24.333 -74.5 -55l-35 49z" />
    <glyph glyph-name="onehalf" unicode="&#xbd;" horiz-adv-x="790" 
d="M254 80c-15 0 -7 17 29 63c22 30 50 62 91 103l52 53c23 24 42 40 53 46c7 4 8 4 8 0c0 -1 1 -3 -3 -6c-14 -13 -29 -24 -57 -55c-11 -13 -31 -34 -45 -49l-32 -33l-21 -23c-8 -9 -22 -25 -31 -36c-9 -12 -17 -21 -18 -22c0 0 -6 -7 -12 -16c-10 -13 -12 -16 -11 -20
c1 -5 1 -5 -3 -5zM152 714h73v-428h-71v276c0 22 1.33301 51.667 4 89c-10 -9.33301 -18.833 -17 -26.5 -23s-32.5 -24.333 -74.5 -55l-35 49zM727 0h-282v54l115 112c41.333 40 67.833 69.167 79.5 87.5s17.5 38.833 17.5 61.5c0 21.333 -6.16699 37.333 -18.5 48
s-28.5 16 -48.5 16s-38.167 -3.83301 -54.5 -11.5s-33.167 -18.167 -50.5 -31.5l-35 46c43.333 36.667 90.333 55 141 55c42.667 0 76.167 -10.667 100.5 -32s36.5 -50 36.5 -86c0 -14.667 -2 -28.5 -6 -41.5s-10.167 -26.167 -18.5 -39.5s-19.333 -27.5 -33 -42.5
s-59.833 -59.5 -138.5 -133.5h195v-62z" />
    <glyph glyph-name="threequarters" unicode="&#xbe;" horiz-adv-x="790" 
d="M772 96h-61v-96h-75v96h-195v52l197 283h73v-275h61v-60zM636 156v93c0 34.667 1 68.333 3 101c-2.66699 -6 -18.667 -31.667 -48 -77l-80 -117h125zM328 80c-15 0 -7 17 29 63c22 30 50 62 91 103l52 53c23 24 42 40 53 46c7 4 8 4 8 0c0 -1 1 -3 -3 -6
c-14 -13 -29 -24 -57 -55c-11 -13 -31 -34 -45 -49l-32 -33l-21 -23c-8 -9 -22 -25 -31 -36c-9 -12 -17 -21 -18 -22c0 0 -6 -7 -12 -16c-10 -13 -12 -16 -11 -20c1 -5 1 -5 -3 -5zM307 613c0 -49.333 -24.667 -83.333 -74 -102c58 -14 87 -48 87 -102
c0 -41.333 -15 -73.5 -45 -96.5s-72.667 -34.5 -128 -34.5c-49.333 0 -93 9.33301 -131 28v63c46 -22.667 90 -34 132 -34c66.667 0 100 25.333 100 76c0 46 -36.667 69 -110 69h-57v55h57c33.333 0 57.833 6.33301 73.5 19s23.5 29.667 23.5 51
c0 19.333 -6.33301 34.333 -19 45s-29.667 16 -51 16c-34 0 -71 -12.667 -111 -38l-36 46c24 18 47.667 30.667 71 38s48.333 11 75 11c44 0 78.833 -9.83301 104.5 -29.5s38.5 -46.5 38.5 -80.5z" />
    <glyph glyph-name="questiondown" unicode="&#xbf;" horiz-adv-x="399" 
d="M370 476c4 5 8 3 8 -1c1 -2 1 -5 0 -5c-1 -1 -3 -1 -5 -2c-4 0 -6 4 -3 8zM347 412c-2 -10 -16 -28 -67 -84c-23 -24 -29 -30 -57 -53l-30 -25l-70 -53c-31 -22 -61 -48 -73 -62c-14 -15 -21 -28 -17 -33c3 -4 26 0 47 7c16 5 50 21 63 29l7 2l22 12c59 37 70 45 61 46
c-5 1 -5 1 0 3c10 5 15 0 9 -9c-3 -4 -18 -13 -70 -45c-26 -15 -79 -40 -102 -47c-21 -6 -37 -8 -44 -2c-12 8 -4 29 20 51l82 68c14 10 20 14 55 43c37 30 54 45 92 84l30 29c8 7 21 21 27 28c13 16 17 18 15 11z" />
    <glyph glyph-name="Agrave" unicode="&#xc0;" horiz-adv-x="743" 
d="M900 820c1 -5 2 -14 -11 2c-21 26 -33 44 -30 48c2 3 4 2 10 -4c5 -5 29 -41 31 -46zM647 -10c-23 -1 -47 15 -61 42c-7 14 -15 42 -18 57c-3 19 -3 54 0 73c2 16 4 23 11 53c7 28 27 76 48 113l13 24l-38 -6c-3 0 -16 -2 -26 -5c-3 -1 -5 -3 -10 -6l-39 -25
c-28 -17 -55 -35 -84 -52c-54 -32 -109 -63 -166 -88c-56 -26 -116 -46 -177 -57c-23 -4 -47 -7 -68 4c-4 3 -9 7 -11 12c-2 8 0 17 5 24c7 9 18 19 23 15c5 -2 -3 -4 -13 -14c-5 -6 -8 -13 -8 -17c-1 -11 10 -17 20 -19c27 -5 54 0 80 6c42 10 83 24 123 41
c61 25 119 55 176 88c27 15 54 32 81 49l33 22c2 2 14 10 20 14l-169 -35c-34 -8 -67 -17 -100 -25c-18 -5 -37 -11 -56 -13c-9 0 -9 4 0 9c4 2 10 7 15 12c8 10 17 16 19 15c0 -1 -2 -5 -6 -8c-4 -4 -8 -10 -11 -13l-4 -6l8 1c4 1 23 5 43 10l121 29l34 7l102 21
c13 2 20 7 39 20l23 17c11 7 24 16 64 46c10 8 17 14 25 24l22 30c28 36 54 73 80 110c14 21 31 41 43 63c6 11 11 14 10 5c-4 -11 -13 -21 -20 -31l-28 -42c-18 -27 -37 -55 -57 -81c-18 -24 -32 -44 -33 -46c-10 -12 139 112 173 149c13 13 25 27 37 41c8 10 15 21 22 31
c13 20 30 51 11 72c-8 10 -22 14 -35 15c-19 3 -38 2 -56 0c-41 -3 -80 -12 -119 -23c-137 -40 -269 -100 -381 -189c-15 -12 -30 -27 -30 -46c-5 1 -8 6 -7 11s4 8 7 12c26 29 58 52 92 73c40 26 83 50 127 70c56 27 114 49 174 67c58 17 116 32 177 31c12 0 24 -1 35 -4
c12 -4 24 -12 29 -25c4 -12 3 -26 -3 -40c-12 -27 -46 -73 -79 -104c-26 -26 -71 -66 -97 -87l-27 -23l-35 -27c-23 -18 -30 -24 -41 -39c-13 -18 -40 -57 -40 -60c0 -2 5 0 45 5c39 5 48 6 96 8c46 3 56 1 61 -4c4 -3 4 -4 2 -8c-3 -5 -15 -11 -18 -9c0 1 2 3 6 6
c3 2 5 5 5 6c-3 5 -52 7 -84 3l-34 -3c-24 -1 -38 -4 -51 -6l-33 -6s-2 -2 -10 -14c-10 -17 -29 -57 -37 -77c-31 -76 -37 -135 -22 -194c11 -47 30 -70 58 -73c10 -1 15 -1 22 3c5 2 7 4 7 3c2 -3 -10 -11 -25 -12zM583 347l56 10c4 1 5 2 25 31l16 22l12 16l-67 -49
c-10 -6 -15 -9 -18 -12z" />
    <glyph glyph-name="Aacute" unicode="&#xc1;" horiz-adv-x="743" 
d="M949 813c0 2 14 17 29 30c11 9 19 15 33 23c5 3 10 3 11 2c5 -2 -1 -5 -30 -28c-19 -15 -21 -17 -31 -27c-4 -4 -12 -5 -12 0zM647 -10c-23 -1 -47 15 -61 42c-7 14 -15 42 -18 57c-3 19 -3 54 0 73c2 16 4 23 11 53c7 28 27 76 48 113l13 24l-38 -6c-3 0 -16 -2 -26 -5
c-3 -1 -5 -3 -10 -6l-39 -25c-28 -17 -55 -35 -84 -52c-54 -32 -109 -63 -166 -88c-56 -26 -116 -46 -177 -57c-23 -4 -47 -7 -68 4c-4 3 -9 7 -11 12c-2 8 0 17 5 24c7 9 18 19 23 15c5 -2 -3 -4 -13 -14c-5 -6 -8 -13 -8 -17c-1 -11 10 -17 20 -19c27 -5 54 0 80 6
c42 10 83 24 123 41c61 25 119 55 176 88c27 15 54 32 81 49l33 22c2 2 14 10 20 14l-169 -35c-34 -8 -67 -17 -100 -25c-18 -5 -37 -11 -56 -13c-9 0 -9 4 0 9c4 2 10 7 15 12c8 10 17 16 19 15c0 -1 -2 -5 -6 -8c-4 -4 -8 -10 -11 -13l-4 -6l8 1c4 1 23 5 43 10l121 29
l34 7l102 21c13 2 20 7 39 20l23 17c11 7 24 16 64 46c10 8 17 14 25 24l22 30c28 36 54 73 80 110c14 21 31 41 43 63c6 11 11 14 10 5c-4 -11 -13 -21 -20 -31l-28 -42c-18 -27 -37 -55 -57 -81c-18 -24 -32 -44 -33 -46c-10 -12 139 112 173 149c13 13 25 27 37 41
c8 10 15 21 22 31c13 20 30 51 11 72c-8 10 -22 14 -35 15c-19 3 -38 2 -56 0c-41 -3 -80 -12 -119 -23c-137 -40 -269 -100 -381 -189c-15 -12 -30 -27 -30 -46c-5 1 -8 6 -7 11s4 8 7 12c26 29 58 52 92 73c40 26 83 50 127 70c56 27 114 49 174 67c58 17 116 32 177 31
c12 0 24 -1 35 -4c12 -4 24 -12 29 -25c4 -12 3 -26 -3 -40c-12 -27 -46 -73 -79 -104c-26 -26 -71 -66 -97 -87l-27 -23l-35 -27c-23 -18 -30 -24 -41 -39c-13 -18 -40 -57 -40 -60c0 -2 5 0 45 5c39 5 48 6 96 8c46 3 56 1 61 -4c4 -3 4 -4 2 -8c-3 -5 -15 -11 -18 -9
c0 1 2 3 6 6c3 2 5 5 5 6c-3 5 -52 7 -84 3l-34 -3c-24 -1 -38 -4 -51 -6l-33 -6s-2 -2 -10 -14c-10 -17 -29 -57 -37 -77c-31 -76 -37 -135 -22 -194c11 -47 30 -70 58 -73c10 -1 15 -1 22 3c5 2 7 4 7 3c2 -3 -10 -11 -25 -12zM583 347l56 10c4 1 5 2 25 31l16 22l12 16
l-67 -49c-10 -6 -15 -9 -18 -12z" />
    <glyph glyph-name="Acircumflex" unicode="&#xc2;" horiz-adv-x="743" 
d="M970 834c-3 -3 -7 4 -11 14c-2 7 -4 12 -5 12c-4 0 -40 -18 -46 -22c-7 -7 -13 -8 -13 -3s7 9 41 25c26 12 29 12 31 2l3 -17c0 -6 1 -10 0 -11zM647 -10c-23 -1 -47 15 -61 42c-7 14 -15 42 -18 57c-3 19 -3 54 0 73c2 16 4 23 11 53c7 28 27 76 48 113l13 24l-38 -6
c-3 0 -16 -2 -26 -5c-3 -1 -5 -3 -10 -6l-39 -25c-28 -17 -55 -35 -84 -52c-54 -32 -109 -63 -166 -88c-56 -26 -116 -46 -177 -57c-23 -4 -47 -7 -68 4c-4 3 -9 7 -11 12c-2 8 0 17 5 24c7 9 18 19 23 15c5 -2 -3 -4 -13 -14c-5 -6 -8 -13 -8 -17c-1 -11 10 -17 20 -19
c27 -5 54 0 80 6c42 10 83 24 123 41c61 25 119 55 176 88c27 15 54 32 81 49l33 22c2 2 14 10 20 14l-169 -35c-34 -8 -67 -17 -100 -25c-18 -5 -37 -11 -56 -13c-9 0 -9 4 0 9c4 2 10 7 15 12c8 10 17 16 19 15c0 -1 -2 -5 -6 -8c-4 -4 -8 -10 -11 -13l-4 -6l8 1
c4 1 23 5 43 10l121 29l34 7l102 21c13 2 20 7 39 20l23 17c11 7 24 16 64 46c10 8 17 14 25 24l22 30c28 36 54 73 80 110c14 21 31 41 43 63c6 11 11 14 10 5c-4 -11 -13 -21 -20 -31l-28 -42c-18 -27 -37 -55 -57 -81c-18 -24 -32 -44 -33 -46c-10 -12 139 112 173 149
c13 13 25 27 37 41c8 10 15 21 22 31c13 20 30 51 11 72c-8 10 -22 14 -35 15c-19 3 -38 2 -56 0c-41 -3 -80 -12 -119 -23c-137 -40 -269 -100 -381 -189c-15 -12 -30 -27 -30 -46c-5 1 -8 6 -7 11s4 8 7 12c26 29 58 52 92 73c40 26 83 50 127 70c56 27 114 49 174 67
c58 17 116 32 177 31c12 0 24 -1 35 -4c12 -4 24 -12 29 -25c4 -12 3 -26 -3 -40c-12 -27 -46 -73 -79 -104c-26 -26 -71 -66 -97 -87l-27 -23l-35 -27c-23 -18 -30 -24 -41 -39c-13 -18 -40 -57 -40 -60c0 -2 5 0 45 5c39 5 48 6 96 8c46 3 56 1 61 -4c4 -3 4 -4 2 -8
c-3 -5 -15 -11 -18 -9c0 1 2 3 6 6c3 2 5 5 5 6c-3 5 -52 7 -84 3l-34 -3c-24 -1 -38 -4 -51 -6l-33 -6s-2 -2 -10 -14c-10 -17 -29 -57 -37 -77c-31 -76 -37 -135 -22 -194c11 -47 30 -70 58 -73c10 -1 15 -1 22 3c5 2 7 4 7 3c2 -3 -10 -11 -25 -12zM583 347l56 10
c4 1 5 2 25 31l16 22l12 16l-67 -49c-10 -6 -15 -9 -18 -12z" />
    <glyph glyph-name="Atilde" unicode="&#xc3;" horiz-adv-x="743" 
d="M941 840c-9 9 -17 9 -26 2c-8 -6 -12 -11 -16 -11c-13 0 -5 11 13 19c12 7 21 6 31 -2c25 -19 40 -16 55 -8c9 6 18 7 14 2c-13 -19 -48 -25 -71 -2zM647 -10c-23 -1 -47 15 -61 42c-7 14 -15 42 -18 57c-3 19 -3 54 0 73c2 16 4 23 11 53c7 28 27 76 48 113l13 24
l-38 -6c-3 0 -16 -2 -26 -5c-3 -1 -5 -3 -10 -6l-39 -25c-28 -17 -55 -35 -84 -52c-54 -32 -109 -63 -166 -88c-56 -26 -116 -46 -177 -57c-23 -4 -47 -7 -68 4c-4 3 -9 7 -11 12c-2 8 0 17 5 24c7 9 18 19 23 15c5 -2 -3 -4 -13 -14c-5 -6 -8 -13 -8 -17
c-1 -11 10 -17 20 -19c27 -5 54 0 80 6c42 10 83 24 123 41c61 25 119 55 176 88c27 15 54 32 81 49l33 22c2 2 14 10 20 14l-169 -35c-34 -8 -67 -17 -100 -25c-18 -5 -37 -11 -56 -13c-9 0 -9 4 0 9c4 2 10 7 15 12c8 10 17 16 19 15c0 -1 -2 -5 -6 -8
c-4 -4 -8 -10 -11 -13l-4 -6l8 1c4 1 23 5 43 10l121 29l34 7l102 21c13 2 20 7 39 20l23 17c11 7 24 16 64 46c10 8 17 14 25 24l22 30c28 36 54 73 80 110c14 21 31 41 43 63c6 11 11 14 10 5c-4 -11 -13 -21 -20 -31l-28 -42c-18 -27 -37 -55 -57 -81
c-18 -24 -32 -44 -33 -46c-10 -12 139 112 173 149c13 13 25 27 37 41c8 10 15 21 22 31c13 20 30 51 11 72c-8 10 -22 14 -35 15c-19 3 -38 2 -56 0c-41 -3 -80 -12 -119 -23c-137 -40 -269 -100 -381 -189c-15 -12 -30 -27 -30 -46c-5 1 -8 6 -7 11s4 8 7 12
c26 29 58 52 92 73c40 26 83 50 127 70c56 27 114 49 174 67c58 17 116 32 177 31c12 0 24 -1 35 -4c12 -4 24 -12 29 -25c4 -12 3 -26 -3 -40c-12 -27 -46 -73 -79 -104c-26 -26 -71 -66 -97 -87l-27 -23l-35 -27c-23 -18 -30 -24 -41 -39c-13 -18 -40 -57 -40 -60
c0 -2 5 0 45 5c39 5 48 6 96 8c46 3 56 1 61 -4c4 -3 4 -4 2 -8c-3 -5 -15 -11 -18 -9c0 1 2 3 6 6c3 2 5 5 5 6c-3 5 -52 7 -84 3l-34 -3c-24 -1 -38 -4 -51 -6l-33 -6s-2 -2 -10 -14c-10 -17 -29 -57 -37 -77c-31 -76 -37 -135 -22 -194c11 -47 30 -70 58 -73
c10 -1 15 -1 22 3c5 2 7 4 7 3c2 -3 -10 -11 -25 -12zM583 347l56 10c4 1 5 2 25 31l16 22l12 16l-67 -49c-10 -6 -15 -9 -18 -12z" />
    <glyph glyph-name="Adieresis" unicode="&#xc4;" horiz-adv-x="743" 
d="M950 826c-9 -3 -7 2 2 11c6 5 11 9 12 9c4 1 9 0 8 -3c0 -3 -16 -15 -22 -17zM975 824c-2 5 2 11 8 14c7 3 14 2 14 -2c-1 -1 -3 -4 -6 -5s-7 -4 -8 -5c-4 -5 -8 -6 -8 -2zM647 -10c-23 -1 -47 15 -61 42c-7 14 -15 42 -18 57c-3 19 -3 54 0 73c2 16 4 23 11 53
c7 28 27 76 48 113l13 24l-38 -6c-3 0 -16 -2 -26 -5c-3 -1 -5 -3 -10 -6l-39 -25c-28 -17 -55 -35 -84 -52c-54 -32 -109 -63 -166 -88c-56 -26 -116 -46 -177 -57c-23 -4 -47 -7 -68 4c-4 3 -9 7 -11 12c-2 8 0 17 5 24c7 9 18 19 23 15c5 -2 -3 -4 -13 -14
c-5 -6 -8 -13 -8 -17c-1 -11 10 -17 20 -19c27 -5 54 0 80 6c42 10 83 24 123 41c61 25 119 55 176 88c27 15 54 32 81 49l33 22c2 2 14 10 20 14l-169 -35c-34 -8 -67 -17 -100 -25c-18 -5 -37 -11 -56 -13c-9 0 -9 4 0 9c4 2 10 7 15 12c8 10 17 16 19 15
c0 -1 -2 -5 -6 -8c-4 -4 -8 -10 -11 -13l-4 -6l8 1c4 1 23 5 43 10l121 29l34 7l102 21c13 2 20 7 39 20l23 17c11 7 24 16 64 46c10 8 17 14 25 24l22 30c28 36 54 73 80 110c14 21 31 41 43 63c6 11 11 14 10 5c-4 -11 -13 -21 -20 -31l-28 -42c-18 -27 -37 -55 -57 -81
c-18 -24 -32 -44 -33 -46c-10 -12 139 112 173 149c13 13 25 27 37 41c8 10 15 21 22 31c13 20 30 51 11 72c-8 10 -22 14 -35 15c-19 3 -38 2 -56 0c-41 -3 -80 -12 -119 -23c-137 -40 -269 -100 -381 -189c-15 -12 -30 -27 -30 -46c-5 1 -8 6 -7 11s4 8 7 12
c26 29 58 52 92 73c40 26 83 50 127 70c56 27 114 49 174 67c58 17 116 32 177 31c12 0 24 -1 35 -4c12 -4 24 -12 29 -25c4 -12 3 -26 -3 -40c-12 -27 -46 -73 -79 -104c-26 -26 -71 -66 -97 -87l-27 -23l-35 -27c-23 -18 -30 -24 -41 -39c-13 -18 -40 -57 -40 -60
c0 -2 5 0 45 5c39 5 48 6 96 8c46 3 56 1 61 -4c4 -3 4 -4 2 -8c-3 -5 -15 -11 -18 -9c0 1 2 3 6 6c3 2 5 5 5 6c-3 5 -52 7 -84 3l-34 -3c-24 -1 -38 -4 -51 -6l-33 -6s-2 -2 -10 -14c-10 -17 -29 -57 -37 -77c-31 -76 -37 -135 -22 -194c11 -47 30 -70 58 -73
c10 -1 15 -1 22 3c5 2 7 4 7 3c2 -3 -10 -11 -25 -12zM583 347l56 10c4 1 5 2 25 31l16 22l12 16l-67 -49c-10 -6 -15 -9 -18 -12z" />
    <glyph glyph-name="Aring" unicode="&#xc5;" horiz-adv-x="743" 
d="M950 822c-11 1 -13 7 -14 11c-3 13 34 27 36 7c1 -10 -9 -18 -22 -18zM957 829c6 3 9 5 9 11c0 4 -12 6 -19 1c-10 -6 0 -17 10 -12zM647 -10c-23 -1 -47 15 -61 42c-7 14 -15 42 -18 57c-3 19 -3 54 0 73c2 16 4 23 11 53c7 28 27 76 48 113l13 24l-38 -6
c-3 0 -16 -2 -26 -5c-3 -1 -5 -3 -10 -6l-39 -25c-28 -17 -55 -35 -84 -52c-54 -32 -109 -63 -166 -88c-56 -26 -116 -46 -177 -57c-23 -4 -47 -7 -68 4c-4 3 -9 7 -11 12c-2 8 0 17 5 24c7 9 18 19 23 15c5 -2 -3 -4 -13 -14c-5 -6 -8 -13 -8 -17c-1 -11 10 -17 20 -19
c27 -5 54 0 80 6c42 10 83 24 123 41c61 25 119 55 176 88c27 15 54 32 81 49l33 22c2 2 14 10 20 14l-169 -35c-34 -8 -67 -17 -100 -25c-18 -5 -37 -11 -56 -13c-9 0 -9 4 0 9c4 2 10 7 15 12c8 10 17 16 19 15c0 -1 -2 -5 -6 -8c-4 -4 -8 -10 -11 -13l-4 -6l8 1
c4 1 23 5 43 10l121 29l34 7l102 21c13 2 20 7 39 20l23 17c11 7 24 16 64 46c10 8 17 14 25 24l22 30c28 36 54 73 80 110c14 21 31 41 43 63c6 11 11 14 10 5c-4 -11 -13 -21 -20 -31l-28 -42c-18 -27 -37 -55 -57 -81c-18 -24 -32 -44 -33 -46c-10 -12 139 112 173 149
c13 13 25 27 37 41c8 10 15 21 22 31c13 20 30 51 11 72c-8 10 -22 14 -35 15c-19 3 -38 2 -56 0c-41 -3 -80 -12 -119 -23c-137 -40 -269 -100 -381 -189c-15 -12 -30 -27 -30 -46c-5 1 -8 6 -7 11s4 8 7 12c26 29 58 52 92 73c40 26 83 50 127 70c56 27 114 49 174 67
c58 17 116 32 177 31c12 0 24 -1 35 -4c12 -4 24 -12 29 -25c4 -12 3 -26 -3 -40c-12 -27 -46 -73 -79 -104c-26 -26 -71 -66 -97 -87l-27 -23l-35 -27c-23 -18 -30 -24 -41 -39c-13 -18 -40 -57 -40 -60c0 -2 5 0 45 5c39 5 48 6 96 8c46 3 56 1 61 -4c4 -3 4 -4 2 -8
c-3 -5 -15 -11 -18 -9c0 1 2 3 6 6c3 2 5 5 5 6c-3 5 -52 7 -84 3l-34 -3c-24 -1 -38 -4 -51 -6l-33 -6s-2 -2 -10 -14c-10 -17 -29 -57 -37 -77c-31 -76 -37 -135 -22 -194c11 -47 30 -70 58 -73c10 -1 15 -1 22 3c5 2 7 4 7 3c2 -3 -10 -11 -25 -12zM583 347l56 10
c4 1 5 2 25 31l16 22l12 16l-67 -49c-10 -6 -15 -9 -18 -12z" />
    <glyph glyph-name="AE" unicode="&#xc6;" horiz-adv-x="1131" 
d="M647 -10c-23 -2 -48 15 -61 42c-7 14 -16 42 -18 57c-3 19 -2 54 0 73c2 16 4 23 11 53c7 28 28 76 48 113l13 24l-38 -6c-3 0 -16 -2 -26 -5c-3 -1 -6 -3 -10 -6l-39 -25c-28 -18 -56 -35 -84 -52c-54 -33 -109 -62 -166 -88s-116 -46 -177 -57c-23 -4 -48 -8 -68 4
c-5 3 -10 7 -11 12c-2 8 -1 18 4 24c8 9 19 19 24 15c5 -2 -4 -3 -13 -14c-5 -6 -8 -13 -8 -17c0 -11 10 -17 20 -19c27 -5 54 0 80 6c42 10 83 24 123 41c60 25 118 56 176 88c27 15 54 31 81 49l33 22c2 2 13 10 20 14c-34 -7 -155 -31 -170 -35c-33 -9 -66 -16 -99 -25
c-19 -5 -37 -13 -56 -13c-9 0 -9 3 0 9c3 2 10 7 14 12c8 11 18 16 19 15s-2 -5 -5 -8c-4 -4 -9 -10 -11 -13l-4 -6l7 1c4 1 24 5 43 10l122 29c8 2 24 5 34 7l102 21c12 2 20 6 39 20l23 17c10 8 25 15 64 46c10 8 17 14 25 24l22 30c27 37 53 73 79 110c15 21 32 41 44 63
c6 11 11 14 9 5c-3 -11 -12 -21 -19 -31l-28 -42c-18 -27 -38 -54 -58 -81c-18 -24 -31 -44 -33 -46c-11 -11 138 113 174 149c13 13 25 27 36 41c8 10 16 21 23 31c14 20 30 51 11 72c-9 10 -22 13 -35 15c-19 3 -38 1 -57 0c-40 -2 -79 -12 -118 -23
c-137 -39 -270 -100 -381 -189c-15 -12 -31 -27 -31 -46c-4 1 -6 6 -6 11s3 8 7 12c28 28 58 52 91 73c41 26 84 49 128 70c56 27 114 49 174 67c58 17 116 31 177 31c12 0 23 0 35 -4s25 -12 29 -25c4 -12 3 -26 -3 -40c-12 -27 -47 -73 -79 -104c-27 -26 -72 -65 -97 -87
l-27 -23l-35 -27c-23 -18 -30 -24 -41 -39c-13 -18 -40 -57 -40 -60c0 -2 5 2 45 5l12 1c14 34 36 65 60 92c0 2 7 7 8 9c22 44 69 69 108 99c37 29 77 54 115 81l10 7c40 28 81 45 126 62l31 12c23 9 52 17 76 21c23 4 43 5 67 -1c13 -3 24 -11 33 -22c4 -5 5 -11 7 -18
c1 -3 1 -7 1 -10c0 -23 -13 -42 -26 -59c-13 -18 -29 -33 -45 -48c-32 -30 -67 -60 -104 -83l-38 -24c-20 -12 -41 -24 -63 -34s-44 -21 -69 -19c-10 1 -22 5 -26 14s-1 19 3 28c6 14 16 28 26 40c40 48 90 86 142 121c6 4 18 12 26 7c-3 -3 -8 -6 -12 -8l-14 -8l-26 -17
c-17 -11 -33 -25 -49 -39c-17 -15 -31 -31 -47 -48c-15 -16 -31 -34 -39 -54c-2 -5 -3 -10 -3 -15c0 -15 19 -19 31 -17c11 2 22 6 33 10c45 16 85 43 124 70c40 28 79 59 115 92c17 16 32 35 44 55c11 19 17 40 4 60c-12 18 -34 25 -54 26c-24 1 -48 -5 -70 -10
c-13 -3 -25 -8 -37 -12c-47 -16 -93 -36 -136 -59c-37 -20 -77 -47 -111 -72c-75 -55 -144 -114 -195 -194c-7 -11 -13 -22 -18 -34c24 3 37 3 76 6c46 4 56 1 61 -4c3 -3 3 -3 1 -8s-17 -12 -17 -9c0 1 1 4 5 6s7 5 6 6c-4 4 -52 6 -85 3l-49 -4c-8 -20 -13 -41 -12 -63
c1 -32 19 -68 50 -79c11 -4 22 -8 34 -11c4 -1 8 0 12 0s8 3 11 5c16 11 34 19 51 27c22 10 45 20 68 28c14 5 27 9 41 11c12 2 27 5 38 1c3 -1 6 -3 7 -5c6 -12 -9 -23 -17 -27c-13 -7 -26 -12 -40 -17c-46 -16 -89 -28 -147 -28c-6 0 -10 -3 -21 -9c-7 -4 -14 -9 -21 -14
c-17 -12 -33 -27 -45 -44c-7 -10 -11 -22 -11 -34c0 -7 3 -13 9 -19c7 -7 18 -8 28 -8c24 0 47 6 70 13c48 15 92 37 137 58c46 22 98 57 147 82c4 2 6 3 9 1c-65 -39 -130 -76 -193 -105l-43 -20c-23 -11 -46 -19 -70 -26c-22 -6 -48 -14 -72 -9c-9 2 -20 5 -25 14
s-5 20 -3 30c3 17 14 32 27 45s27 26 43 35c15 9 16 11 16 11l-9 1c-21 4 -39 12 -53 23c-15 11 -24 27 -30 45c-9 28 6 56 6 86v1l-28 -4l-32 -6s-3 -2 -10 -14c-10 -17 -30 -57 -38 -77c-30 -76 -37 -135 -22 -194c12 -47 31 -70 59 -73c10 -1 15 -1 22 3c4 2 7 4 7 3
c0 -3 -10 -11 -25 -12zM583 347l55 10c5 1 5 3 26 31l16 22l12 16l-67 -49c-9 -7 -15 -9 -18 -12zM823 211l31 2c33 2 62 8 93 19c11 4 20 8 32 12c10 3 27 10 35 18c5 5 8 11 1 16c-3 2 -7 3 -10 3c-25 0 -49 -5 -72 -15l-27 -11c-11 -4 -22 -10 -33 -15
c-19 -9 -38 -19 -56 -29h6z" />
    <glyph glyph-name="Ccedilla" unicode="&#xc7;" horiz-adv-x="643" 
d="M587 696c41 11 158 35 145 -44c-6 -33 -31 -61 -53 -85c-14 -15 -28 -29 -43 -42c-46 -41 -96 -78 -148 -109c-26 -16 -53 -30 -80 -43c-18 -9 -40 -20 -61 -20c-11 0 -18 7 -19 18c-3 39 33 75 59 98c30 26 66 53 106 65c6 2 16 3 21 -2c3 -2 1 -9 1 -12
c-8 8 -21 6 -31 3c-18 -5 -38 -19 -53 -30c-17 -13 -34 -27 -49 -42c-19 -20 -47 -46 -46 -76c0 -12 4 -16 17 -15c18 2 36 10 85 36c26 13 30 15 56 32c18 10 64 43 86 59c30 23 58 48 84 75c23 24 47 51 59 83c2 7 4 15 3 22c-1 24 -26 33 -47 34c-50 2 -102 -13 -149 -30
c-48 -17 -94 -40 -137 -66c-91 -53 -174 -126 -240 -208c-59 -72 -95 -136 -113 -199c-7 -28 -10 -50 -10 -73s5 -49 23 -64c7 -6 14 -10 22 -14c1 1 2 1 2 1c2 0 3 -1 3 -3c11 -4 23 -6 35 -7c32 -3 66 2 97 9c33 7 65 18 97 30c77 30 150 72 224 110c91 47 124 76 124 67
c0 0 0 -1 -1 -2c-7 -7 -116 -70 -180 -104c-54 -28 -110 -53 -166 -77c-53 -22 -112 -39 -170 -41c-21 -1 -44 1 -64 9l-5 -5c-10 -7 -11 -9 -6 -11c4 -2 11 -14 11 -20c0 -13 -13 -22 -34 -25c-13 -1 -22 2 -22 7c0 3 5 3 15 3c19 0 27 4 27 14c0 7 0 9 -8 11
c-5 2 -6 4 -6 6c0 6 7 15 17 23c0 0 1 0 1 1c-8 4 -16 9 -22 16c-24 25 -25 58 -23 90c2 35 12 69 25 101c33 76 87 142 144 201c80 84 177 157 287 206c37 16 71 29 110 39z" />
    <glyph glyph-name="Egrave" unicode="&#xc8;" horiz-adv-x="448" 
d="M634 788c1 -5 2 -14 -11 2c-21 26 -33 44 -30 48c2 3 4 2 10 -4c5 -5 29 -41 31 -46zM37 87c-15 21 0 52 21 75c13 13 28 25 43 35l16 10l-9 2c-21 4 -38 12 -53 23c-37 27 -44 85 -26 132c29 77 111 158 171 204c46 36 88 66 132 92c65 39 169 81 234 91
c47 7 85 4 101 -23c18 -23 3 -59 -18 -87c-13 -18 -28 -33 -44 -48c-33 -30 -68 -58 -105 -83c-67 -41 -135 -83 -173 -79c-43 5 -20 59 6 91c39 49 84 82 138 114c12 7 25 13 28 5c1 -3 -6 -3 -13 -7c-54 -31 -74 -46 -97 -66c-37 -32 -63 -65 -75 -99c-9 -26 8 -34 28 -32
c44 8 114 50 157 80c40 28 79 59 115 92c17 16 32 35 44 55c11 19 18 41 4 60c-24 35 -80 25 -126 13c-38 -9 -124 -43 -171 -68c-37 -20 -77 -47 -111 -72c-75 -56 -145 -113 -195 -194c-19 -31 -34 -65 -32 -101c1 -32 19 -61 49 -75c17 -8 31 -15 47 -15c0 0 1 0 10 5
c22 13 35 19 52 27c28 14 85 35 109 39c13 2 41 4 46 -4c9 -15 -24 -34 -58 -46c-46 -16 -92 -26 -147 -26c-6 0 -10 -2 -21 -9c-7 -4 -14 -10 -21 -15c-29 -20 -55 -47 -55 -77c3 -20 15 -27 36 -27c24 -1 52 6 74 14c54 19 88 37 133 58c47 22 126 75 176 104
c4 2 5 0 6 -2c-65 -39 -133 -84 -206 -120c-62 -30 -84 -39 -126 -51c-39 -11 -80 -14 -94 5zM140 211l31 2c33 3 61 10 93 19c27 9 59 22 67 30c28 28 -38 21 -80 4l-28 -11c-18 -6 -74 -34 -89 -44h6z" />
    <glyph glyph-name="Eacute" unicode="&#xc9;" horiz-adv-x="448" 
d="M676 801c0 2 14 17 29 30c11 9 19 15 33 23c5 3 10 3 11 2c5 -2 -1 -5 -30 -28c-19 -15 -21 -17 -31 -27c-4 -4 -12 -5 -12 0zM37 87c-15 21 0 52 21 75c13 13 28 25 43 35l16 10l-9 2c-21 4 -38 12 -53 23c-37 27 -44 85 -26 132c29 77 111 158 171 204
c46 36 88 66 132 92c65 39 169 81 234 91c47 7 85 4 101 -23c18 -23 3 -59 -18 -87c-13 -18 -28 -33 -44 -48c-33 -30 -68 -58 -105 -83c-67 -41 -135 -83 -173 -79c-43 5 -20 59 6 91c39 49 84 82 138 114c12 7 25 13 28 5c1 -3 -6 -3 -13 -7c-54 -31 -74 -46 -97 -66
c-37 -32 -63 -65 -75 -99c-9 -26 8 -34 28 -32c44 8 114 50 157 80c40 28 79 59 115 92c17 16 32 35 44 55c11 19 18 41 4 60c-24 35 -80 25 -126 13c-38 -9 -124 -43 -171 -68c-37 -20 -77 -47 -111 -72c-75 -56 -145 -113 -195 -194c-19 -31 -34 -65 -32 -101
c1 -32 19 -61 49 -75c17 -8 31 -15 47 -15c0 0 1 0 10 5c22 13 35 19 52 27c28 14 85 35 109 39c13 2 41 4 46 -4c9 -15 -24 -34 -58 -46c-46 -16 -92 -26 -147 -26c-6 0 -10 -2 -21 -9c-7 -4 -14 -10 -21 -15c-29 -20 -55 -47 -55 -77c3 -20 15 -27 36 -27
c24 -1 52 6 74 14c54 19 88 37 133 58c47 22 126 75 176 104c4 2 5 0 6 -2c-65 -39 -133 -84 -206 -120c-62 -30 -84 -39 -126 -51c-39 -11 -80 -14 -94 5zM140 211l31 2c33 3 61 10 93 19c27 9 59 22 67 30c28 28 -38 21 -80 4l-28 -11c-18 -6 -74 -34 -89 -44h6z" />
    <glyph glyph-name="Ecircumflex" unicode="&#xca;" horiz-adv-x="448" 
d="M689 797c-3 -3 -7 4 -11 14c-2 7 -4 12 -5 12c-4 0 -40 -18 -46 -22c-7 -7 -13 -8 -13 -3s7 9 41 25c26 12 29 12 31 2l3 -17c0 -6 1 -10 0 -11zM37 87c-15 21 0 52 21 75c13 13 28 25 43 35l16 10l-9 2c-21 4 -38 12 -53 23c-37 27 -44 85 -26 132
c29 77 111 158 171 204c46 36 88 66 132 92c65 39 169 81 234 91c47 7 85 4 101 -23c18 -23 3 -59 -18 -87c-13 -18 -28 -33 -44 -48c-33 -30 -68 -58 -105 -83c-67 -41 -135 -83 -173 -79c-43 5 -20 59 6 91c39 49 84 82 138 114c12 7 25 13 28 5c1 -3 -6 -3 -13 -7
c-54 -31 -74 -46 -97 -66c-37 -32 -63 -65 -75 -99c-9 -26 8 -34 28 -32c44 8 114 50 157 80c40 28 79 59 115 92c17 16 32 35 44 55c11 19 18 41 4 60c-24 35 -80 25 -126 13c-38 -9 -124 -43 -171 -68c-37 -20 -77 -47 -111 -72c-75 -56 -145 -113 -195 -194
c-19 -31 -34 -65 -32 -101c1 -32 19 -61 49 -75c17 -8 31 -15 47 -15c0 0 1 0 10 5c22 13 35 19 52 27c28 14 85 35 109 39c13 2 41 4 46 -4c9 -15 -24 -34 -58 -46c-46 -16 -92 -26 -147 -26c-6 0 -10 -2 -21 -9c-7 -4 -14 -10 -21 -15c-29 -20 -55 -47 -55 -77
c3 -20 15 -27 36 -27c24 -1 52 6 74 14c54 19 88 37 133 58c47 22 126 75 176 104c4 2 5 0 6 -2c-65 -39 -133 -84 -206 -120c-62 -30 -84 -39 -126 -51c-39 -11 -80 -14 -94 5zM140 211l31 2c33 3 61 10 93 19c27 9 59 22 67 30c28 28 -38 21 -80 4l-28 -11
c-18 -6 -74 -34 -89 -44h6z" />
    <glyph glyph-name="Edieresis" unicode="&#xcb;" horiz-adv-x="448" 
d="M650 790c-9 -3 -7 2 2 11c6 5 11 9 12 9c4 1 9 0 8 -3c0 -3 -16 -15 -22 -17zM675 788c-2 5 2 11 8 14c7 3 14 2 14 -2c-1 -1 -3 -4 -6 -5s-7 -4 -8 -5c-4 -5 -8 -6 -8 -2zM37 87c-15 21 0 52 21 75c13 13 28 25 43 35l16 10l-9 2c-21 4 -38 12 -53 23
c-37 27 -44 85 -26 132c29 77 111 158 171 204c46 36 88 66 132 92c65 39 169 81 234 91c47 7 85 4 101 -23c18 -23 3 -59 -18 -87c-13 -18 -28 -33 -44 -48c-33 -30 -68 -58 -105 -83c-67 -41 -135 -83 -173 -79c-43 5 -20 59 6 91c39 49 84 82 138 114c12 7 25 13 28 5
c1 -3 -6 -3 -13 -7c-54 -31 -74 -46 -97 -66c-37 -32 -63 -65 -75 -99c-9 -26 8 -34 28 -32c44 8 114 50 157 80c40 28 79 59 115 92c17 16 32 35 44 55c11 19 18 41 4 60c-24 35 -80 25 -126 13c-38 -9 -124 -43 -171 -68c-37 -20 -77 -47 -111 -72
c-75 -56 -145 -113 -195 -194c-19 -31 -34 -65 -32 -101c1 -32 19 -61 49 -75c17 -8 31 -15 47 -15c0 0 1 0 10 5c22 13 35 19 52 27c28 14 85 35 109 39c13 2 41 4 46 -4c9 -15 -24 -34 -58 -46c-46 -16 -92 -26 -147 -26c-6 0 -10 -2 -21 -9c-7 -4 -14 -10 -21 -15
c-29 -20 -55 -47 -55 -77c3 -20 15 -27 36 -27c24 -1 52 6 74 14c54 19 88 37 133 58c47 22 126 75 176 104c4 2 5 0 6 -2c-65 -39 -133 -84 -206 -120c-62 -30 -84 -39 -126 -51c-39 -11 -80 -14 -94 5zM140 211l31 2c33 3 61 10 93 19c27 9 59 22 67 30
c28 28 -38 21 -80 4l-28 -11c-18 -6 -74 -34 -89 -44h6z" />
    <glyph glyph-name="Igrave" unicode="&#xcc;" horiz-adv-x="638" 
d="M785 754c1 -5 2 -14 -11 2c-21 26 -33 44 -30 48c2 3 4 2 10 -4c5 -5 29 -41 31 -46zM87 48c-18 0 -37 2 -52 10c-11 7 -20 15 -23 26c-5 15 3 33 15 44c-6 -12 -13 -25 -10 -38c1 -11 9 -20 19 -26c10 -5 21 -6 32 -8c39 -3 77 5 115 15c94 23 183 78 262 133
c97 67 181 149 258 237c26 30 63 81 84 115c37 61 51 112 37 137c-17 28 -72 20 -98 15c-117 -20 -226 -88 -315 -150c-45 -33 -90 -66 -125 -110c-1 10 7 19 13 26c37 36 77 67 120 96c49 34 98 65 152 91s121 52 182 56c9 1 16 1 25 0c21 0 46 -7 55 -29
c10 -18 6 -41 1 -61c-21 -72 -98 -176 -216 -290c-24 -24 -49 -48 -75 -70c-94 -78 -198 -145 -313 -189c-45 -17 -94 -28 -143 -30z" />
    <glyph glyph-name="Iacute" unicode="&#xcd;" horiz-adv-x="638" 
d="M803 750c0 2 14 17 29 30c11 9 19 15 33 23c5 3 10 3 11 2c5 -2 -1 -5 -30 -28c-19 -15 -21 -17 -31 -27c-4 -4 -12 -5 -12 0zM87 48c-18 0 -37 2 -52 10c-11 7 -20 15 -23 26c-5 15 3 33 15 44c-6 -12 -13 -25 -10 -38c1 -11 9 -20 19 -26c10 -5 21 -6 32 -8
c39 -3 77 5 115 15c94 23 183 78 262 133c97 67 181 149 258 237c26 30 63 81 84 115c37 61 51 112 37 137c-17 28 -72 20 -98 15c-117 -20 -226 -88 -315 -150c-45 -33 -90 -66 -125 -110c-1 10 7 19 13 26c37 36 77 67 120 96c49 34 98 65 152 91s121 52 182 56
c9 1 16 1 25 0c21 0 46 -7 55 -29c10 -18 6 -41 1 -61c-21 -72 -98 -176 -216 -290c-24 -24 -49 -48 -75 -70c-94 -78 -198 -145 -313 -189c-45 -17 -94 -28 -143 -30z" />
    <glyph glyph-name="Icircumflex" unicode="&#xce;" horiz-adv-x="638" 
d="M849 756c-3 -3 -7 4 -11 14c-2 7 -4 12 -5 12c-4 0 -40 -18 -46 -22c-7 -7 -13 -8 -13 -3s7 9 41 25c26 12 29 12 31 2l3 -17c0 -6 1 -10 0 -11zM87 48c-18 0 -37 2 -52 10c-11 7 -20 15 -23 26c-5 15 3 33 15 44c-6 -12 -13 -25 -10 -38c1 -11 9 -20 19 -26
c10 -5 21 -6 32 -8c39 -3 77 5 115 15c94 23 183 78 262 133c97 67 181 149 258 237c26 30 63 81 84 115c37 61 51 112 37 137c-17 28 -72 20 -98 15c-117 -20 -226 -88 -315 -150c-45 -33 -90 -66 -125 -110c-1 10 7 19 13 26c37 36 77 67 120 96c49 34 98 65 152 91
s121 52 182 56c9 1 16 1 25 0c21 0 46 -7 55 -29c10 -18 6 -41 1 -61c-21 -72 -98 -176 -216 -290c-24 -24 -49 -48 -75 -70c-94 -78 -198 -145 -313 -189c-45 -17 -94 -28 -143 -30z" />
    <glyph glyph-name="Idieresis" unicode="&#xcf;" horiz-adv-x="638" 
d="M785 758c-9 -3 -7 2 2 11c6 5 11 9 12 9c4 1 9 0 8 -3c0 -3 -16 -15 -22 -17zM810 756c-2 5 2 11 8 14c7 3 14 2 14 -2c-1 -1 -3 -4 -6 -5s-7 -4 -8 -5c-4 -5 -8 -6 -8 -2zM87 48c-18 0 -37 2 -52 10c-11 7 -20 15 -23 26c-5 15 3 33 15 44c-6 -12 -13 -25 -10 -38
c1 -11 9 -20 19 -26c10 -5 21 -6 32 -8c39 -3 77 5 115 15c94 23 183 78 262 133c97 67 181 149 258 237c26 30 63 81 84 115c37 61 51 112 37 137c-17 28 -72 20 -98 15c-117 -20 -226 -88 -315 -150c-45 -33 -90 -66 -125 -110c-1 10 7 19 13 26c37 36 77 67 120 96
c49 34 98 65 152 91s121 52 182 56c9 1 16 1 25 0c21 0 46 -7 55 -29c10 -18 6 -41 1 -61c-21 -72 -98 -176 -216 -290c-24 -24 -49 -48 -75 -70c-94 -78 -198 -145 -313 -189c-45 -17 -94 -28 -143 -30z" />
    <glyph glyph-name="Eth" unicode="&#xd0;" horiz-adv-x="1014" 
d="M1233 677c3 -23 -4 -47 -13 -69c-17 -43 -45 -80 -74 -116c-78 -94 -176 -169 -280 -233c-80 -49 -168 -91 -258 -117c-44 -12 -89 -19 -134 -19c-27 0 -85 -1 -93 34c-1 5 -2 10 -2 12l-26 -17c-56 -35 -67 -41 -114 -64c-46 -23 -86 -41 -138 -50c-43 -7 -65 2 -74 15
c-17 25 -3 69 57 131c40 40 131 116 208 169c52 35 105 69 158 102c112 69 227 136 346 192c27 12 51 23 53 25c8 7 8 24 8 34c0 13 -4 23 -14 32c-31 26 -76 22 -112 18c-32 -3 -63 -10 -94 -19c-61 -17 -119 -43 -176 -71c-104 -50 -205 -112 -281 -201c3 12 11 21 19 29
c102 110 240 179 381 230c47 17 95 32 145 39l20 2c32 2 67 1 95 -16c19 -11 28 -35 25 -57c-1 -10 -1 -13 2 -12l41 15c37 13 68 24 106 33c63 17 207 49 219 -51zM1210 620c22 65 11 101 -36 113c-36 9 -78 4 -115 -2c-38 -7 -76 -18 -112 -30l-60 -20
c-3 -2 -24 -9 -26 -12l-6 -16c-19 -48 -59 -106 -125 -182c-7 -8 -14 -16 -22 -24c65 0 124 -1 128 -4c4 -1 -3 -5 -7 -5c-32 -1 -83 -1 -131 -2c-79 -84 -172 -165 -260 -227c-46 -32 -47 -33 -49 -38c-10 -23 24 -38 40 -40c87 -10 175 11 255 44c58 24 114 54 168 85
c54 32 105 70 152 110c45 37 88 78 126 122c36 43 69 96 80 128zM380 184c4 25 21 47 27 46c8 -1 0 -5 -9 -19c-7 -13 -11 -29 -8 -27c9 6 41 29 84 60c73 55 148 124 212 192h-103c-24 0 -62 0 -62 3s3 4 7 6c9 1 91 2 168 2c60 66 109 131 136 182c8 16 16 35 14 35
l-34 -17l-70 -34c-53 -26 -106 -55 -158 -85l-122 -72c-16 -9 -13 -8 -83 -52c-39 -25 -74 -51 -112 -78c-52 -36 -102 -78 -145 -116c-36 -32 -92 -91 -93 -128c-1 -26 8 -38 45 -39c40 0 75 10 143 42c50 24 70 35 123 68c36 22 39 25 40 31z" />
    <glyph glyph-name="Ntilde" unicode="&#xd1;" horiz-adv-x="926" 
d="M1088 770c-9 9 -17 9 -26 2c-8 -6 -12 -11 -16 -11c-13 0 -5 11 13 19c12 7 21 6 31 -2c25 -19 40 -16 55 -8c9 6 18 7 14 2c-13 -19 -48 -25 -71 -2zM75 71c-29 0 -62 8 -83 25c-22 18 -16 48 -2 62c1 1 4 2 5 1s0 -1 -2 -3c-12 -12 -12 -19 -12 -29
c0 -27 30 -41 61 -46c61 -10 162 14 232 40c163 61 317 156 435 266c40 37 78 76 111 119c16 21 27 45 37 70s18 51 14 77s-20 44 -44 54c-43 18 -95 12 -139 4c-48 -9 -94 -24 -139 -41c-118 -45 -232 -102 -336 -173c-38 -26 -78 -55 -111 -86c-15 -14 -20 -24 -23 -32
c-2 -6 -2 -9 -5 -8c-2 1 -3 3 -2 9c2 12 17 30 53 60c53 45 112 83 173 118c111 64 228 117 351 149c42 11 87 21 131 17c36 -3 79 -16 95 -52l3 -5c22 -60 -23 -118 -40 -171s-24 -83 -39 -129l-11 -33c-4 -12 -7 -17 -12 -30c14 14 26 24 41 37l39 33c25 21 50 37 76 56
c99 73 206 135 316 189c67 33 138 62 211 70c29 3 40 1 48 -7s6 -25 -6 -26c-11 1 30 38 -37 29c-96 -13 -185 -52 -271 -98c-124 -66 -241 -142 -350 -231c-27 -22 -37 -32 -71 -65c0 0 -36 -68 -54 -97c-23 -39 -68 -87 -83 -79c-19 10 32 74 57 101c14 15 27 30 43 46
c33 33 66 155 85 231c-144 -178 -332 -292 -491 -361c-52 -22 -164 -61 -254 -61zM640 122c5 -3 28 19 48 47c8 11 29 46 41 66c7 12 13 26 13 26c0 1 -19 -20 -36 -39l-20 -23c-23 -28 -54 -73 -46 -77z" />
    <glyph glyph-name="Ograve" unicode="&#xd2;" horiz-adv-x="634" 
d="M713 721c1 -5 2 -14 -11 2c-21 26 -33 44 -30 48c2 3 4 2 10 -4c5 -5 29 -41 31 -46zM67 33c-22 3 -42 12 -54 31c-14 19 -14 48 -11 71c6 52 27 96 75 164l11 15l-19 11c-7 5 -21 16 -26 22c-14 15 -17 25 -20 32c-8 26 -3 56 19 89c44 62 133 106 198 126
c53 15 110 18 172 13l29 -3l23 10c25 12 51 23 78 32l5 2c62 20 125 32 189 17c14 -3 30 -9 42 -16c19 -11 33 -27 39 -50c12 -40 -11 -80 -37 -111c-16 -20 -39 -35 -53 -57c-13 -18 -28 -35 -44 -52c-16 -19 -34 -38 -52 -57c-64 -67 -144 -125 -223 -173
c-79 -47 -154 -88 -245 -110c-28 -7 -66 -10 -96 -6zM756 470c10 10 24 25 33 40c17 23 29 49 25 80c-5 50 -55 66 -97 75c-37 6 -77 2 -114 -6c-31 -7 -57 -15 -87 -28c-15 -5 -49 -21 -63 -28c35 -7 49 -13 69 -19c21 -8 34 -13 51 -21c16 -9 15 -9 19 -7
c52 23 77 32 118 38c49 5 72 -11 74 -40c2 -18 -3 -35 -14 -56zM94 319l18 21c29 35 63 65 96 95c36 32 74 62 113 90c20 15 41 29 62 42l30 19l23 14c-35 4 -46 5 -75 5c-79 0 -144 -18 -213 -56c-38 -21 -73 -48 -99 -83c-31 -45 -27 -89 -1 -115c23 -22 46 -32 46 -32z
M235 283c0 0 9 19 34 46c40 42 97 87 146 120c91 59 105 69 169 104c-22 10 -28 14 -61 26c-40 14 -48 15 -72 20c-3 1 -2 1 -37 -20c-15 -8 -56 -35 -88 -58l-18 -14c-20 -14 -32 -23 -38 -29l-22 -18c-59 -50 -110 -103 -143 -146c10 -4 15 -6 27 -10
c25 -8 43 -12 103 -21zM345 282c45 5 94 13 159 34c31 11 80 32 107 47c44 24 70 41 97 63c15 13 24 20 33 33c13 18 24 37 31 59c8 20 12 44 -6 61c-13 11 -34 13 -50 12c-29 -2 -51 -10 -98 -28l-23 -11l10 -8c12 -10 24 -23 21 -23c-8 1 -5 3 -8 6c-14 14 -22 20 -28 23
c-54 -30 -91 -51 -163 -99c-67 -45 -162 -129 -184 -170c0 0 50 -5 102 1zM66 41c31 -7 60 -3 89 2c28 4 62 16 88 27c23 10 41 18 64 29c44 22 86 46 127 72s80 55 117 85c39 31 74 65 107 101c15 18 30 37 46 55l3 4l5 5l-9 -5c-20 -15 -40 -28 -62 -40
c-31 -19 -63 -33 -96 -47c-46 -18 -92 -34 -139 -42c-49 -9 -85 -14 -148 -11l-16 2c-5 -10 -7 -19 -10 -32c-3 -12 -1 -31 12 -32c4 0 -1 -9 -9 -5s-12 10 -13 22c0 7 0 20 11 47c-57 9 -80 13 -116 25c-8 3 -16 7 -17 6l-11 -14c-19 -23 -34 -48 -47 -74
c-27 -55 -62 -160 24 -180z" />
    <glyph glyph-name="Oacute" unicode="&#xd3;" horiz-adv-x="634" 
d="M789 717c0 2 14 17 29 30c11 9 19 15 33 23c5 3 10 3 11 2c5 -2 -1 -5 -30 -28c-19 -15 -21 -17 -31 -27c-4 -4 -12 -5 -12 0zM67 33c-22 3 -42 12 -54 31c-14 19 -14 48 -11 71c6 52 27 96 75 164l11 15l-19 11c-7 5 -21 16 -26 22c-14 15 -17 25 -20 32
c-8 26 -3 56 19 89c44 62 133 106 198 126c53 15 110 18 172 13l29 -3l23 10c25 12 51 23 78 32l5 2c62 20 125 32 189 17c14 -3 30 -9 42 -16c19 -11 33 -27 39 -50c12 -40 -11 -80 -37 -111c-16 -20 -39 -35 -53 -57c-13 -18 -28 -35 -44 -52c-16 -19 -34 -38 -52 -57
c-64 -67 -144 -125 -223 -173c-79 -47 -154 -88 -245 -110c-28 -7 -66 -10 -96 -6zM756 470c10 10 24 25 33 40c17 23 29 49 25 80c-5 50 -55 66 -97 75c-37 6 -77 2 -114 -6c-31 -7 -57 -15 -87 -28c-15 -5 -49 -21 -63 -28c35 -7 49 -13 69 -19c21 -8 34 -13 51 -21
c16 -9 15 -9 19 -7c52 23 77 32 118 38c49 5 72 -11 74 -40c2 -18 -3 -35 -14 -56zM94 319l18 21c29 35 63 65 96 95c36 32 74 62 113 90c20 15 41 29 62 42l30 19l23 14c-35 4 -46 5 -75 5c-79 0 -144 -18 -213 -56c-38 -21 -73 -48 -99 -83c-31 -45 -27 -89 -1 -115
c23 -22 46 -32 46 -32zM235 283c0 0 9 19 34 46c40 42 97 87 146 120c91 59 105 69 169 104c-22 10 -28 14 -61 26c-40 14 -48 15 -72 20c-3 1 -2 1 -37 -20c-15 -8 -56 -35 -88 -58l-18 -14c-20 -14 -32 -23 -38 -29l-22 -18c-59 -50 -110 -103 -143 -146
c10 -4 15 -6 27 -10c25 -8 43 -12 103 -21zM345 282c45 5 94 13 159 34c31 11 80 32 107 47c44 24 70 41 97 63c15 13 24 20 33 33c13 18 24 37 31 59c8 20 12 44 -6 61c-13 11 -34 13 -50 12c-29 -2 -51 -10 -98 -28l-23 -11l10 -8c12 -10 24 -23 21 -23c-8 1 -5 3 -8 6
c-14 14 -22 20 -28 23c-54 -30 -91 -51 -163 -99c-67 -45 -162 -129 -184 -170c0 0 50 -5 102 1zM66 41c31 -7 60 -3 89 2c28 4 62 16 88 27c23 10 41 18 64 29c44 22 86 46 127 72s80 55 117 85c39 31 74 65 107 101c15 18 30 37 46 55l3 4l5 5l-9 -5
c-20 -15 -40 -28 -62 -40c-31 -19 -63 -33 -96 -47c-46 -18 -92 -34 -139 -42c-49 -9 -85 -14 -148 -11l-16 2c-5 -10 -7 -19 -10 -32c-3 -12 -1 -31 12 -32c4 0 -1 -9 -9 -5s-12 10 -13 22c0 7 0 20 11 47c-57 9 -80 13 -116 25c-8 3 -16 7 -17 6l-11 -14
c-19 -23 -34 -48 -47 -74c-27 -55 -62 -160 24 -180z" />
    <glyph glyph-name="Ocircumflex" unicode="&#xd4;" horiz-adv-x="634" 
d="M799 708c-3 -3 -7 4 -11 14c-2 7 -4 12 -5 12c-4 0 -40 -18 -46 -22c-7 -7 -13 -8 -13 -3s7 9 41 25c26 12 29 12 31 2l3 -17c0 -6 1 -10 0 -11zM67 33c-22 3 -42 12 -54 31c-14 19 -14 48 -11 71c6 52 27 96 75 164l11 15l-19 11c-7 5 -21 16 -26 22
c-14 15 -17 25 -20 32c-8 26 -3 56 19 89c44 62 133 106 198 126c53 15 110 18 172 13l29 -3l23 10c25 12 51 23 78 32l5 2c62 20 125 32 189 17c14 -3 30 -9 42 -16c19 -11 33 -27 39 -50c12 -40 -11 -80 -37 -111c-16 -20 -39 -35 -53 -57c-13 -18 -28 -35 -44 -52
c-16 -19 -34 -38 -52 -57c-64 -67 -144 -125 -223 -173c-79 -47 -154 -88 -245 -110c-28 -7 -66 -10 -96 -6zM756 470c10 10 24 25 33 40c17 23 29 49 25 80c-5 50 -55 66 -97 75c-37 6 -77 2 -114 -6c-31 -7 -57 -15 -87 -28c-15 -5 -49 -21 -63 -28c35 -7 49 -13 69 -19
c21 -8 34 -13 51 -21c16 -9 15 -9 19 -7c52 23 77 32 118 38c49 5 72 -11 74 -40c2 -18 -3 -35 -14 -56zM94 319l18 21c29 35 63 65 96 95c36 32 74 62 113 90c20 15 41 29 62 42l30 19l23 14c-35 4 -46 5 -75 5c-79 0 -144 -18 -213 -56c-38 -21 -73 -48 -99 -83
c-31 -45 -27 -89 -1 -115c23 -22 46 -32 46 -32zM235 283c0 0 9 19 34 46c40 42 97 87 146 120c91 59 105 69 169 104c-22 10 -28 14 -61 26c-40 14 -48 15 -72 20c-3 1 -2 1 -37 -20c-15 -8 -56 -35 -88 -58l-18 -14c-20 -14 -32 -23 -38 -29l-22 -18
c-59 -50 -110 -103 -143 -146c10 -4 15 -6 27 -10c25 -8 43 -12 103 -21zM345 282c45 5 94 13 159 34c31 11 80 32 107 47c44 24 70 41 97 63c15 13 24 20 33 33c13 18 24 37 31 59c8 20 12 44 -6 61c-13 11 -34 13 -50 12c-29 -2 -51 -10 -98 -28l-23 -11l10 -8
c12 -10 24 -23 21 -23c-8 1 -5 3 -8 6c-14 14 -22 20 -28 23c-54 -30 -91 -51 -163 -99c-67 -45 -162 -129 -184 -170c0 0 50 -5 102 1zM66 41c31 -7 60 -3 89 2c28 4 62 16 88 27c23 10 41 18 64 29c44 22 86 46 127 72s80 55 117 85c39 31 74 65 107 101
c15 18 30 37 46 55l3 4l5 5l-9 -5c-20 -15 -40 -28 -62 -40c-31 -19 -63 -33 -96 -47c-46 -18 -92 -34 -139 -42c-49 -9 -85 -14 -148 -11l-16 2c-5 -10 -7 -19 -10 -32c-3 -12 -1 -31 12 -32c4 0 -1 -9 -9 -5s-12 10 -13 22c0 7 0 20 11 47c-57 9 -80 13 -116 25
c-8 3 -16 7 -17 6l-11 -14c-19 -23 -34 -48 -47 -74c-27 -55 -62 -160 24 -180z" />
    <glyph glyph-name="Otilde" unicode="&#xd5;" horiz-adv-x="634" 
d="M744 740c-9 9 -17 9 -26 2c-8 -6 -12 -11 -16 -11c-13 0 -5 11 13 19c12 7 21 6 31 -2c25 -19 40 -16 55 -8c9 6 18 7 14 2c-13 -19 -48 -25 -71 -2zM67 33c-22 3 -42 12 -54 31c-14 19 -14 48 -11 71c6 52 27 96 75 164l11 15l-19 11c-7 5 -21 16 -26 22
c-14 15 -17 25 -20 32c-8 26 -3 56 19 89c44 62 133 106 198 126c53 15 110 18 172 13l29 -3l23 10c25 12 51 23 78 32l5 2c62 20 125 32 189 17c14 -3 30 -9 42 -16c19 -11 33 -27 39 -50c12 -40 -11 -80 -37 -111c-16 -20 -39 -35 -53 -57c-13 -18 -28 -35 -44 -52
c-16 -19 -34 -38 -52 -57c-64 -67 -144 -125 -223 -173c-79 -47 -154 -88 -245 -110c-28 -7 -66 -10 -96 -6zM756 470c10 10 24 25 33 40c17 23 29 49 25 80c-5 50 -55 66 -97 75c-37 6 -77 2 -114 -6c-31 -7 -57 -15 -87 -28c-15 -5 -49 -21 -63 -28c35 -7 49 -13 69 -19
c21 -8 34 -13 51 -21c16 -9 15 -9 19 -7c52 23 77 32 118 38c49 5 72 -11 74 -40c2 -18 -3 -35 -14 -56zM94 319l18 21c29 35 63 65 96 95c36 32 74 62 113 90c20 15 41 29 62 42l30 19l23 14c-35 4 -46 5 -75 5c-79 0 -144 -18 -213 -56c-38 -21 -73 -48 -99 -83
c-31 -45 -27 -89 -1 -115c23 -22 46 -32 46 -32zM235 283c0 0 9 19 34 46c40 42 97 87 146 120c91 59 105 69 169 104c-22 10 -28 14 -61 26c-40 14 -48 15 -72 20c-3 1 -2 1 -37 -20c-15 -8 -56 -35 -88 -58l-18 -14c-20 -14 -32 -23 -38 -29l-22 -18
c-59 -50 -110 -103 -143 -146c10 -4 15 -6 27 -10c25 -8 43 -12 103 -21zM345 282c45 5 94 13 159 34c31 11 80 32 107 47c44 24 70 41 97 63c15 13 24 20 33 33c13 18 24 37 31 59c8 20 12 44 -6 61c-13 11 -34 13 -50 12c-29 -2 -51 -10 -98 -28l-23 -11l10 -8
c12 -10 24 -23 21 -23c-8 1 -5 3 -8 6c-14 14 -22 20 -28 23c-54 -30 -91 -51 -163 -99c-67 -45 -162 -129 -184 -170c0 0 50 -5 102 1zM66 41c31 -7 60 -3 89 2c28 4 62 16 88 27c23 10 41 18 64 29c44 22 86 46 127 72s80 55 117 85c39 31 74 65 107 101
c15 18 30 37 46 55l3 4l5 5l-9 -5c-20 -15 -40 -28 -62 -40c-31 -19 -63 -33 -96 -47c-46 -18 -92 -34 -139 -42c-49 -9 -85 -14 -148 -11l-16 2c-5 -10 -7 -19 -10 -32c-3 -12 -1 -31 12 -32c4 0 -1 -9 -9 -5s-12 10 -13 22c0 7 0 20 11 47c-57 9 -80 13 -116 25
c-8 3 -16 7 -17 6l-11 -14c-19 -23 -34 -48 -47 -74c-27 -55 -62 -160 24 -180z" />
    <glyph glyph-name="Odieresis" unicode="&#xd6;" horiz-adv-x="634" 
d="M741 715c-9 -3 -7 2 2 11c6 5 11 9 12 9c4 1 9 0 8 -3c0 -3 -16 -15 -22 -17zM766 713c-2 5 2 11 8 14c7 3 14 2 14 -2c-1 -1 -3 -4 -6 -5s-7 -4 -8 -5c-4 -5 -8 -6 -8 -2zM67 33c-22 3 -42 12 -54 31c-14 19 -14 48 -11 71c6 52 27 96 75 164l11 15l-19 11
c-7 5 -21 16 -26 22c-14 15 -17 25 -20 32c-8 26 -3 56 19 89c44 62 133 106 198 126c53 15 110 18 172 13l29 -3l23 10c25 12 51 23 78 32l5 2c62 20 125 32 189 17c14 -3 30 -9 42 -16c19 -11 33 -27 39 -50c12 -40 -11 -80 -37 -111c-16 -20 -39 -35 -53 -57
c-13 -18 -28 -35 -44 -52c-16 -19 -34 -38 -52 -57c-64 -67 -144 -125 -223 -173c-79 -47 -154 -88 -245 -110c-28 -7 -66 -10 -96 -6zM756 470c10 10 24 25 33 40c17 23 29 49 25 80c-5 50 -55 66 -97 75c-37 6 -77 2 -114 -6c-31 -7 -57 -15 -87 -28
c-15 -5 -49 -21 -63 -28c35 -7 49 -13 69 -19c21 -8 34 -13 51 -21c16 -9 15 -9 19 -7c52 23 77 32 118 38c49 5 72 -11 74 -40c2 -18 -3 -35 -14 -56zM94 319l18 21c29 35 63 65 96 95c36 32 74 62 113 90c20 15 41 29 62 42l30 19l23 14c-35 4 -46 5 -75 5
c-79 0 -144 -18 -213 -56c-38 -21 -73 -48 -99 -83c-31 -45 -27 -89 -1 -115c23 -22 46 -32 46 -32zM235 283c0 0 9 19 34 46c40 42 97 87 146 120c91 59 105 69 169 104c-22 10 -28 14 -61 26c-40 14 -48 15 -72 20c-3 1 -2 1 -37 -20c-15 -8 -56 -35 -88 -58l-18 -14
c-20 -14 -32 -23 -38 -29l-22 -18c-59 -50 -110 -103 -143 -146c10 -4 15 -6 27 -10c25 -8 43 -12 103 -21zM345 282c45 5 94 13 159 34c31 11 80 32 107 47c44 24 70 41 97 63c15 13 24 20 33 33c13 18 24 37 31 59c8 20 12 44 -6 61c-13 11 -34 13 -50 12
c-29 -2 -51 -10 -98 -28l-23 -11l10 -8c12 -10 24 -23 21 -23c-8 1 -5 3 -8 6c-14 14 -22 20 -28 23c-54 -30 -91 -51 -163 -99c-67 -45 -162 -129 -184 -170c0 0 50 -5 102 1zM66 41c31 -7 60 -3 89 2c28 4 62 16 88 27c23 10 41 18 64 29c44 22 86 46 127 72s80 55 117 85
c39 31 74 65 107 101c15 18 30 37 46 55l3 4l5 5l-9 -5c-20 -15 -40 -28 -62 -40c-31 -19 -63 -33 -96 -47c-46 -18 -92 -34 -139 -42c-49 -9 -85 -14 -148 -11l-16 2c-5 -10 -7 -19 -10 -32c-3 -12 -1 -31 12 -32c4 0 -1 -9 -9 -5s-12 10 -13 22c0 7 0 20 11 47
c-57 9 -80 13 -116 25c-8 3 -16 7 -17 6l-11 -14c-19 -23 -34 -48 -47 -74c-27 -55 -62 -160 24 -180z" />
    <glyph glyph-name="multiply" unicode="&#xd7;" horiz-adv-x="142" 
d="M6 166c-4 -3 -6 -3 -6 0s14 12 42 29l18 11l-1 12c-1 8 0 13 1 16c4 8 9 3 11 -12c1 -5 2 -9 3 -9l17 7c17 8 31 11 31 7c0 -1 -1 -2 -3 -2c-6 0 -43 -19 -43 -23c-1 -4 12 -16 17 -16c3 0 5 -1 5 -3s-1 -2 -5 -1c-8 2 -18 7 -21 10c-5 5 -9 5 -20 -1l-26 -14z" />
    <glyph glyph-name="Oslash" unicode="&#xd8;" horiz-adv-x="634" 
d="M838 590c36 17 38 18 37 14c-2 -2 -8 -7 -28 -17l-27 -14c-1 -31 -20 -61 -40 -85c-16 -20 -39 -35 -53 -57c-13 -18 -28 -35 -44 -52c-16 -19 -34 -38 -52 -57c-64 -67 -144 -125 -223 -173c-79 -47 -154 -88 -245 -110c-28 -7 -66 -10 -96 -6c-22 3 -42 12 -54 31
c-11 16 -14 38 -12 58c-26 -16 -33 -20 -41 -22c-15 -2 -3 7 42 35c6 52 27 96 75 164l11 15l-19 11c-7 5 -21 16 -26 22c-14 15 -17 25 -20 32c-8 26 -3 56 19 89c44 62 133 106 198 126c53 15 110 18 172 13l29 -3l23 10c25 12 51 23 78 32l5 2c62 20 125 32 189 17
c14 -3 30 -9 42 -16c19 -11 33 -27 39 -50c2 -6 3 -12 3 -19c8 4 14 8 18 10zM516 631c-15 -5 -49 -21 -63 -28c35 -7 49 -13 69 -19c21 -8 34 -13 51 -21c16 -9 15 -9 19 -7c52 23 77 32 118 38c45 5 68 -9 73 -33c12 6 23 12 32 16c0 5 0 9 -1 13c-5 50 -55 66 -97 75
c-37 6 -77 2 -114 -6c-31 -7 -57 -15 -87 -28zM48 351c23 -22 46 -32 46 -32l18 21c29 35 63 65 96 95c36 32 74 62 113 90c20 15 41 29 62 42l30 19l23 14c-35 4 -46 5 -75 5c-79 0 -144 -18 -213 -56c-38 -21 -73 -48 -99 -83c-31 -45 -27 -89 -1 -115zM451 599
c-3 1 -2 1 -37 -20c-15 -8 -56 -35 -88 -58l-18 -14c-20 -14 -32 -23 -38 -29l-22 -18c-59 -50 -110 -103 -143 -146c10 -4 15 -6 27 -10c25 -8 43 -12 103 -21c0 0 9 19 34 46c40 42 97 87 146 120c91 59 105 69 169 104c-22 10 -28 14 -61 26c-40 14 -48 15 -72 20z
M243 281c0 0 5 -1 14 -1c38 21 79 43 125 67l350 187l46 24c-2 8 -5 15 -12 21c-13 11 -34 13 -50 12c-29 -2 -51 -10 -98 -28l-23 -11l10 -8c12 -10 24 -23 21 -23c-8 1 -5 3 -8 6c-14 14 -22 20 -28 23c-54 -30 -91 -51 -163 -99c-67 -45 -162 -129 -184 -170zM789 510
c13 18 23 37 25 60l-30 -17c2 -17 -3 -34 -14 -55l-14 -28c10 10 24 25 33 40zM741 459c13 18 24 37 31 59c4 10 7 22 7 32l-394 -210c-49 -26 -85 -45 -113 -61c19 0 46 0 73 3c45 5 94 13 159 34c31 11 80 32 107 47c44 24 70 41 97 63c15 13 24 20 33 33zM707 416l5 5
l-9 -5c-20 -15 -40 -28 -62 -40c-31 -19 -63 -33 -96 -47c-46 -18 -92 -34 -139 -42c-47 -9 -82 -14 -141 -11l-30 -16c-1 -5 -2 -9 -3 -14c-3 -12 -1 -31 12 -32c4 0 -1 -9 -9 -5s-12 10 -13 22c0 4 0 11 3 23c-37 -21 -66 -38 -116 -67c-45 -26 -76 -45 -96 -58
c-5 -40 5 -77 53 -88c31 -7 60 -3 89 2c28 4 62 16 88 27c23 10 41 18 64 29c44 22 86 46 127 72s80 55 117 85c39 31 74 65 107 101c15 18 30 37 46 55zM42 221c-10 -21 -22 -50 -27 -78l27 16c59 35 118 68 186 105c1 4 3 9 5 14c-57 9 -80 13 -116 25c-8 3 -16 7 -17 6
l-11 -14c-19 -23 -34 -48 -47 -74zM251 277c-4 1 -9 1 -9 1c-1 -3 -3 -5 -4 -8c5 2 9 5 13 7z" />
    <glyph glyph-name="Ugrave" unicode="&#xd9;" horiz-adv-x="996" 
d="M1025 723c1 -5 2 -14 -11 2c-21 26 -33 44 -30 48c2 3 4 2 10 -4c5 -5 29 -41 31 -46zM749 -5c-7 2 -11 9 -12 14c-6 23 0 45 4 64c7 28 22 55 38 79c64 95 180 185 271 257l-78 -43c-45 -25 -93 -53 -137 -80c-26 -17 -36 -22 -60 -38l-36 -21l-39 -22
c-44 -25 -77 -43 -132 -69c-41 -21 -96 -49 -143 -56c-49 -11 -44 44 -15 91c50 77 120 138 189 199c64 56 131 109 195 167c28 25 57 52 83 82c17 18 46 54 12 71c-38 21 -156 -5 -225 -31c-94 -34 -229 -100 -318 -157c-75 -46 -150 -99 -214 -161
c-18 -17 -35 -35 -50 -55c-14 -17 -28 -35 -39 -54c-13 -22 -26 -48 -28 -73c-1 -12 3 -25 11 -34c11 -9 26 -10 40 -9c30 2 60 13 84 30c2 -1 0 -3 -1 -4c-19 -13 -41 -21 -63 -26c-17 -3 -36 -6 -53 1c-9 4 -16 9 -20 17c-4 7 -5 16 -5 24c3 45 31 87 58 122
c52 65 118 120 185 168c79 54 160 103 245 145c86 42 175 83 270 102c52 12 124 16 142 -10c18 -28 -21 -74 -63 -114c-22 -20 -43 -39 -64 -59c-69 -60 -141 -117 -209 -178c-33 -31 -65 -62 -96 -96c-58 -64 -112 -152 -51 -152c40 5 124 44 168 68c88 44 172 95 255 146
s167 102 255 144c0 -5 -1 -10 -3 -14c-6 -13 -27 -23 -39 -32c-112 -77 -220 -167 -289 -284c-37 -66 -36 -106 -17 -114c2 -1 3 -2 1 -4c-1 -1 -4 -2 -7 -1z" />
    <glyph glyph-name="Uacute" unicode="&#xda;" horiz-adv-x="996" 
d="M1076 705c0 2 14 17 29 30c11 9 19 15 33 23c5 3 10 3 11 2c5 -2 -1 -5 -30 -28c-19 -15 -21 -17 -31 -27c-4 -4 -12 -5 -12 0zM749 -5c-7 2 -11 9 -12 14c-6 23 0 45 4 64c7 28 22 55 38 79c64 95 180 185 271 257l-78 -43c-45 -25 -93 -53 -137 -80
c-26 -17 -36 -22 -60 -38l-36 -21l-39 -22c-44 -25 -77 -43 -132 -69c-41 -21 -96 -49 -143 -56c-49 -11 -44 44 -15 91c50 77 120 138 189 199c64 56 131 109 195 167c28 25 57 52 83 82c17 18 46 54 12 71c-38 21 -156 -5 -225 -31c-94 -34 -229 -100 -318 -157
c-75 -46 -150 -99 -214 -161c-18 -17 -35 -35 -50 -55c-14 -17 -28 -35 -39 -54c-13 -22 -26 -48 -28 -73c-1 -12 3 -25 11 -34c11 -9 26 -10 40 -9c30 2 60 13 84 30c2 -1 0 -3 -1 -4c-19 -13 -41 -21 -63 -26c-17 -3 -36 -6 -53 1c-9 4 -16 9 -20 17c-4 7 -5 16 -5 24
c3 45 31 87 58 122c52 65 118 120 185 168c79 54 160 103 245 145c86 42 175 83 270 102c52 12 124 16 142 -10c18 -28 -21 -74 -63 -114c-22 -20 -43 -39 -64 -59c-69 -60 -141 -117 -209 -178c-33 -31 -65 -62 -96 -96c-58 -64 -112 -152 -51 -152c40 5 124 44 168 68
c88 44 172 95 255 146s167 102 255 144c0 -5 -1 -10 -3 -14c-6 -13 -27 -23 -39 -32c-112 -77 -220 -167 -289 -284c-37 -66 -36 -106 -17 -114c2 -1 3 -2 1 -4c-1 -1 -4 -2 -7 -1z" />
    <glyph glyph-name="Ucircumflex" unicode="&#xdb;" horiz-adv-x="996" 
d="M1117 733c-3 -3 -7 4 -11 14c-2 7 -4 12 -5 12c-4 0 -40 -18 -46 -22c-7 -7 -13 -8 -13 -3s7 9 41 25c26 12 29 12 31 2l3 -17c0 -6 1 -10 0 -11zM749 -5c-7 2 -11 9 -12 14c-6 23 0 45 4 64c7 28 22 55 38 79c64 95 180 185 271 257l-78 -43c-45 -25 -93 -53 -137 -80
c-26 -17 -36 -22 -60 -38l-36 -21l-39 -22c-44 -25 -77 -43 -132 -69c-41 -21 -96 -49 -143 -56c-49 -11 -44 44 -15 91c50 77 120 138 189 199c64 56 131 109 195 167c28 25 57 52 83 82c17 18 46 54 12 71c-38 21 -156 -5 -225 -31c-94 -34 -229 -100 -318 -157
c-75 -46 -150 -99 -214 -161c-18 -17 -35 -35 -50 -55c-14 -17 -28 -35 -39 -54c-13 -22 -26 -48 -28 -73c-1 -12 3 -25 11 -34c11 -9 26 -10 40 -9c30 2 60 13 84 30c2 -1 0 -3 -1 -4c-19 -13 -41 -21 -63 -26c-17 -3 -36 -6 -53 1c-9 4 -16 9 -20 17c-4 7 -5 16 -5 24
c3 45 31 87 58 122c52 65 118 120 185 168c79 54 160 103 245 145c86 42 175 83 270 102c52 12 124 16 142 -10c18 -28 -21 -74 -63 -114c-22 -20 -43 -39 -64 -59c-69 -60 -141 -117 -209 -178c-33 -31 -65 -62 -96 -96c-58 -64 -112 -152 -51 -152c40 5 124 44 168 68
c88 44 172 95 255 146s167 102 255 144c0 -5 -1 -10 -3 -14c-6 -13 -27 -23 -39 -32c-112 -77 -220 -167 -289 -284c-37 -66 -36 -106 -17 -114c2 -1 3 -2 1 -4c-1 -1 -4 -2 -7 -1z" />
    <glyph glyph-name="Udieresis" unicode="&#xdc;" horiz-adv-x="996" 
d="M1089 717c-9 -3 -7 2 2 11c6 5 11 9 12 9c4 1 9 0 8 -3c0 -3 -16 -15 -22 -17zM1114 715c-2 5 2 11 8 14c7 3 14 2 14 -2c-1 -1 -3 -4 -6 -5s-7 -4 -8 -5c-4 -5 -8 -6 -8 -2zM749 -5c-7 2 -11 9 -12 14c-6 23 0 45 4 64c7 28 22 55 38 79c64 95 180 185 271 257l-78 -43
c-45 -25 -93 -53 -137 -80c-26 -17 -36 -22 -60 -38l-36 -21l-39 -22c-44 -25 -77 -43 -132 -69c-41 -21 -96 -49 -143 -56c-49 -11 -44 44 -15 91c50 77 120 138 189 199c64 56 131 109 195 167c28 25 57 52 83 82c17 18 46 54 12 71c-38 21 -156 -5 -225 -31
c-94 -34 -229 -100 -318 -157c-75 -46 -150 -99 -214 -161c-18 -17 -35 -35 -50 -55c-14 -17 -28 -35 -39 -54c-13 -22 -26 -48 -28 -73c-1 -12 3 -25 11 -34c11 -9 26 -10 40 -9c30 2 60 13 84 30c2 -1 0 -3 -1 -4c-19 -13 -41 -21 -63 -26c-17 -3 -36 -6 -53 1
c-9 4 -16 9 -20 17c-4 7 -5 16 -5 24c3 45 31 87 58 122c52 65 118 120 185 168c79 54 160 103 245 145c86 42 175 83 270 102c52 12 124 16 142 -10c18 -28 -21 -74 -63 -114c-22 -20 -43 -39 -64 -59c-69 -60 -141 -117 -209 -178c-33 -31 -65 -62 -96 -96
c-58 -64 -112 -152 -51 -152c40 5 124 44 168 68c88 44 172 95 255 146s167 102 255 144c0 -5 -1 -10 -3 -14c-6 -13 -27 -23 -39 -32c-112 -77 -220 -167 -289 -284c-37 -66 -36 -106 -17 -114c2 -1 3 -2 1 -4c-1 -1 -4 -2 -7 -1z" />
    <glyph glyph-name="Yacute" unicode="&#xdd;" horiz-adv-x="896" 
d="M916 682c0 2 14 17 29 30c11 9 19 15 33 23c5 3 10 3 11 2c5 -2 -1 -5 -30 -28c-19 -15 -21 -17 -31 -27c-4 -4 -12 -5 -12 0zM307 -45c-37 8 -33 45 12 76c40 27 121 56 190 78c27 8 83 26 81 24c16 16 23 24 38 40c76 85 162 164 254 233l-64 -37
c-83 -48 -164 -94 -248 -137c-90 -45 -170 -78 -193 -34c-15 31 7 74 24 99c33 48 115 129 187 195c44 40 94 82 126 134c8 14 12 29 7 46c-7 22 -33 36 -90 30c-75 -8 -107 -15 -158 -32c-121 -39 -229 -104 -329 -183c-18 -14 -67 -54 -83 -72c-17 -18 -40 -38 -34 -49
c1 -2 3 -4 -1 -6s-9 1 -9 6c-1 11 5 20 11 28c25 30 46 46 71 67c59 50 94 76 144 106c90 54 146 86 239 113c48 16 101 26 151 29c131 5 124 -69 23 -163c-71 -67 -143 -131 -207 -203c-29 -32 -70 -79 -68 -126c2 -59 81 -26 149 6c102 45 325 174 428 242
c27 18 54 35 86 43l8 2c-164 -100 -312 -225 -436 -371c29 10 34 11 52 17c62 22 98 33 167 66c67 32 71 35 72 33c2 -5 -5 -6 -64 -35c-26 -13 -55 -27 -84 -38c-49 -20 -103 -37 -148 -52c0 0 -79 -76 -113 -102c-59 -44 -135 -85 -191 -73zM329 -42c31 1 62 12 88 27
c43 24 79 57 115 90c20 19 28 28 36 35c9 8 13 14 13 14s-25 -7 -57 -17c-26 -8 -59 -18 -85 -27c-74 -26 -123 -52 -141 -77c-22 -30 2 -48 31 -45z" />
    <glyph glyph-name="Thorn" unicode="&#xde;" horiz-adv-x="1162" 
d="M97 46c-69 3 -101 41 -68 69c5 4 22 4 5 -12c-24 -23 18 -42 41 -46c70 -12 147 14 211 40c42 17 121 58 159 83l20 14l-12 9c-3 3 -12 11 -19 21c-11 18 -13 29 -11 45c2 11 12 30 16 32c5 1 6 -1 3 -4c-1 -1 -5 -7 -7 -13c-11 -23 -5 -52 19 -72c7 -7 18 -14 18 -14
l29 20c147 102 285 270 348 418l-39 -20c-12 -6 -53 -31 -77 -47c-35 -23 -68 -49 -100 -77c-47 -41 -55 -50 -58 -68c0 -2 0 -4 -1 -5c-1 -2 -2 -3 -4 -3c-3 0 -4 3 -4 6c2 26 45 61 86 95c42 34 85 65 132 92c32 18 69 37 69 37c39 101 77 235 -49 240
c-84 3 -201 -40 -302 -94c-64 -34 -163 -102 -187 -131c-4 -5 0 -10 3 -14c-3 -1 -5 -2 -7 -2c-3 0 -6 1 -7 4s0 7 2 10c11 17 48 49 88 76c69 47 145 88 222 117c85 32 180 53 229 33c82 -33 49 -159 18 -234c100 44 204 61 287 59c109 0 190 -49 173 -156
c-11 -67 -38 -109 -95 -175c-46 -54 -148 -127 -214 -161c-80 -41 -173 -68 -262 -71c-127 -5 -202 6 -280 42c0 0 -1 -1 -11 -7c-30 -18 -57 -36 -89 -53c-84 -43 -178 -87 -275 -83zM964 202c79 34 152 83 215 142c61 56 122 128 136 213c6 40 -1 79 -35 107
c-19 17 -44 26 -69 31c-94 19 -191 1 -281 -27c-38 -13 -70 -27 -70 -27c-64 -146 -145 -229 -184 -274c-44 -51 -106 -107 -171 -154c-19 -14 -19 -14 -25 -19c28 -15 70 -29 106 -34c136 -17 261 -8 378 42z" />
    <glyph glyph-name="germandbls" unicode="&#xdf;" horiz-adv-x="106" 
d="M-178 96c-4 0 -2 4 0 6c10 10 51 45 74 64c18 14 107 88 101 83c61 49 79 59 88 54c2 -1 1 -3 -5 -9c-9 -9 -31 -29 -42 -37c-4 -3 -9 -8 -11 -10l-5 -5l12 -4c18 -6 19 -10 8 -22c-6 -7 -26 -18 -41 -24l-20 -8c-11 -4 -21 -5 -24 -3c-5 4 -2 6 9 7c9 1 16 3 31 10
c27 12 41 22 41 28c0 3 -7 6 -17 7c-8 1 -9 1 -16 -5c-14 -12 -22 -12 -22 -3c0 2 0 4 -1 4c-15 -13 -25 -20 -35 -29c-84 -69 -124 -105 -121 -102c-1 -1 -2 -2 -4 -2zM4 240c3 0 12 6 30 22l26 22c5 6 -4 2 -19 -9c-24 -17 -42 -34 -42 -34c0 -1 1 -1 5 -1z" />
    <glyph glyph-name="agrave" unicode="&#xe0;" 
d="M64 306c1 -5 2 -14 -11 2c-21 26 -33 44 -30 48c2 3 4 2 10 -4c5 -5 29 -41 31 -46zM187 255c3 1 5 2 6 1c2 -3 -3 -5 -10 -8c-36 -17 -45 -21 -72 -32c-42 -18 -75 -32 -91 -22c-11 10 -2 30 3 36c-16 -8 -27 -12 -37 -12c-21 3 -9 22 7 30c32 17 58 23 67 18
c3 -2 5 -1 10 1c7 2 16 5 17 -1c1 -5 -2 -9 -7 -9c-9 0 -27 -11 -44 -27c-14 -14 -16 -28 -8 -32c9 -3 27 1 65 16c14 6 28 12 46 19c20 9 39 17 48 22zM51 259c1 12 -64 -20 -68 -28c-5 -10 14 -9 41 5c18 10 27 21 27 23z" />
    <glyph glyph-name="aacute" unicode="&#xe1;" 
d="M58 302c0 2 14 17 29 30c11 9 19 15 33 23c5 3 10 3 11 2c5 -2 -1 -5 -30 -28c-19 -15 -21 -17 -31 -27c-4 -4 -12 -5 -12 0zM187 255c3 1 5 2 6 1c2 -3 -3 -5 -10 -8c-36 -17 -45 -21 -72 -32c-42 -18 -75 -32 -91 -22c-11 10 -2 30 3 36c-16 -8 -27 -12 -37 -12
c-21 3 -9 22 7 30c32 17 58 23 67 18c3 -2 5 -1 10 1c7 2 16 5 17 -1c1 -5 -2 -9 -7 -9c-9 0 -27 -11 -44 -27c-14 -14 -16 -28 -8 -32c9 -3 27 1 65 16c14 6 28 12 46 19c20 9 39 17 48 22zM51 259c1 12 -64 -20 -68 -28c-5 -10 14 -9 41 5c18 10 27 21 27 23z" />
    <glyph glyph-name="acircumflex" unicode="&#xe2;" 
d="M94 319c-3 -3 -7 4 -11 14c-2 7 -4 12 -5 12c-4 0 -40 -18 -46 -22c-7 -7 -13 -8 -13 -3s7 9 41 25c26 12 29 12 31 2l3 -17c0 -6 1 -10 0 -11zM187 255c3 1 5 2 6 1c2 -3 -3 -5 -10 -8c-36 -17 -45 -21 -72 -32c-42 -18 -75 -32 -91 -22c-11 10 -2 30 3 36
c-16 -8 -27 -12 -37 -12c-21 3 -9 22 7 30c32 17 58 23 67 18c3 -2 5 -1 10 1c7 2 16 5 17 -1c1 -5 -2 -9 -7 -9c-9 0 -27 -11 -44 -27c-14 -14 -16 -28 -8 -32c9 -3 27 1 65 16c14 6 28 12 46 19c20 9 39 17 48 22zM51 259c1 12 -64 -20 -68 -28c-5 -10 14 -9 41 5
c18 10 27 21 27 23z" />
    <glyph glyph-name="atilde" unicode="&#xe3;" 
d="M52 324c-7 7 -13 7 -20 1c-6 -4 -9 -8 -12 -8c-10 0 -4 8 10 14c9 6 16 5 24 -1c19 -15 31 -12 42 -6c7 4 14 5 11 1c-10 -14 -37 -19 -55 -1zM187 255c3 1 5 2 6 1c2 -3 -3 -5 -10 -8c-36 -17 -45 -21 -72 -32c-42 -18 -75 -32 -91 -22c-11 10 -2 30 3 36
c-16 -8 -27 -12 -37 -12c-21 3 -9 22 7 30c32 17 58 23 67 18c3 -2 5 -1 10 1c7 2 16 5 17 -1c1 -5 -2 -9 -7 -9c-9 0 -27 -11 -44 -27c-14 -14 -16 -28 -8 -32c9 -3 27 1 65 16c14 6 28 12 46 19c20 9 39 17 48 22zM51 259c1 12 -64 -20 -68 -28c-5 -10 14 -9 41 5
c18 10 27 21 27 23z" />
    <glyph glyph-name="adieresis" unicode="&#xe4;" 
d="M39 326c-9 -3 -7 2 2 11c6 5 11 9 12 9c4 1 9 0 8 -3c0 -3 -16 -15 -22 -17zM64 324c-2 5 2 11 8 14c7 3 14 2 14 -2c-1 -1 -3 -4 -6 -5s-7 -4 -8 -5c-4 -5 -8 -6 -8 -2zM187 255c3 1 5 2 6 1c2 -3 -3 -5 -10 -8c-36 -17 -45 -21 -72 -32c-42 -18 -75 -32 -91 -22
c-11 10 -2 30 3 36c-16 -8 -27 -12 -37 -12c-21 3 -9 22 7 30c32 17 58 23 67 18c3 -2 5 -1 10 1c7 2 16 5 17 -1c1 -5 -2 -9 -7 -9c-9 0 -27 -11 -44 -27c-14 -14 -16 -28 -8 -32c9 -3 27 1 65 16c14 6 28 12 46 19c20 9 39 17 48 22zM51 259c1 12 -64 -20 -68 -28
c-5 -10 14 -9 41 5c18 10 27 21 27 23z" />
    <glyph glyph-name="aring" unicode="&#xe5;" 
d="M66 300c-8 0 -10 5 -10 8c-3 9 24 19 26 5c1 -8 -7 -13 -16 -13zM71 305c4 2 7 3 7 8c0 3 -9 4 -14 1c-8 -5 0 -13 7 -9zM187 255c3 1 5 2 6 1c2 -3 -3 -5 -10 -8c-36 -17 -45 -21 -72 -32c-42 -18 -75 -32 -91 -22c-11 10 -2 30 3 36c-16 -8 -27 -12 -37 -12
c-21 3 -9 22 7 30c32 17 58 23 67 18c3 -2 5 -1 10 1c7 2 16 5 17 -1c1 -5 -2 -9 -7 -9c-9 0 -27 -11 -44 -27c-14 -14 -16 -28 -8 -32c9 -3 27 1 65 16c14 6 28 12 46 19c20 9 39 17 48 22zM51 259c1 12 -64 -20 -68 -28c-5 -10 14 -9 41 5c18 10 27 21 27 23z" />
    <glyph glyph-name="ae" unicode="&#xe6;" horiz-adv-x="196" 
d="M53 190c-62 -15 -50 26 -30 40c-16 -8 -27 -12 -37 -12c-21 3 -9 22 7 30c32 17 58 23 67 18c3 -2 5 -1 10 1c7 2 16 5 17 -1c9 3 13 2 15 -2c3 -9 -5 -15 -37 -31c-17 -8 -25 -11 -34 -13c-2 0 -3 -1 -4 -2c-5 -4 -9 -14 -7 -18c5 -12 37 -4 65 5c2 1 4 1 6 2
c14 5 32 13 49 21l48 21l10 5c7 4 13 6 12 3s-40 -20 -47 -24c-32 -17 -82 -37 -110 -43zM-17 231c-5 -10 14 -9 41 5c18 10 27 21 27 23c1 12 -64 -20 -68 -28zM36 227c1 0 23 9 30 13c15 8 26 15 27 17c1 4 -6 2 -23 -7c-17 -8 -39 -25 -34 -23z" />
    <glyph glyph-name="ccedilla" unicode="&#xe7;" horiz-adv-x="146" 
d="M146 252c8 4 12 6 12 2c0 -1 -7 -5 -9 -6c-29 -14 -35 -17 -67 -31c-24 -10 -61 -23 -93 -30c-1 -2 -2 -3 -4 -4c-6 -4 -6 -5 -4 -7c3 -1 7 -7 7 -11c0 -7 -8 -12 -20 -14c-7 -1 -12 1 -12 4c0 2 3 2 8 2c11 0 16 2 16 8c0 4 0 5 -5 6c-3 1 -3 2 -3 3c0 3 3 7 7 11
c-16 -1 -25 7 -23 20s15 27 28 35c14 10 36 22 46 22c6 0 6 -7 1 -15c-6 -8 -12 -9 -10 -1c1 6 -1 6 -11 1c-28 -15 -45 -32 -45 -46c0 -8 5 -12 22 -9c30 6 78 23 106 35s30 14 53 25z" />
    <glyph glyph-name="egrave" unicode="&#xe8;" horiz-adv-x="129" 
d="M38 304c1 -5 2 -14 -11 2c-21 26 -33 44 -30 48c2 3 4 2 10 -4c5 -5 29 -41 31 -46zM-9 186c-29 -7 -46 -2 -39 23c3 10 18 24 42 38c29 17 44 21 46 13c3 -9 -5 -15 -37 -31c-17 -8 -25 -11 -34 -13c-7 -1 -13 -15 -11 -20c6 -13 42 -3 71 7c30 10 77 35 92 43l15 8
c2 1 8 2 7 0c-1 -3 -35 -21 -42 -25c-32 -17 -82 -37 -110 -43zM-26 223c1 0 23 9 30 13c15 8 26 15 27 17c1 4 -6 2 -23 -7c-17 -8 -39 -25 -34 -23z" />
    <glyph glyph-name="eacute" unicode="&#xe9;" horiz-adv-x="129" 
d="M56 292c1 2 14 12 28 21c11 6 18 9 31 14c4 2 8 1 9 0c4 -2 -2 -4 -29 -19c-17 -9 -19 -11 -29 -17c-4 -3 -10 -3 -10 1zM-9 186c-29 -7 -46 -2 -39 23c3 10 18 24 42 38c29 17 44 21 46 13c3 -9 -5 -15 -37 -31c-17 -8 -25 -11 -34 -13c-7 -1 -13 -15 -11 -20
c6 -13 42 -3 71 7c30 10 77 35 92 43l15 8c2 1 8 2 7 0c-1 -3 -35 -21 -42 -25c-32 -17 -82 -37 -110 -43zM-26 223c1 0 23 9 30 13c15 8 26 15 27 17c1 4 -6 2 -23 -7c-17 -8 -39 -25 -34 -23z" />
    <glyph glyph-name="ecircumflex" unicode="&#xea;" horiz-adv-x="129" 
d="M83 292c-2 -2 -6 3 -9 12c-2 6 -3 10 -4 10c-4 0 -33 -15 -38 -19c-6 -5 -11 -6 -11 -2s6 7 34 21c21 10 24 10 26 1l2 -14c0 -5 1 -8 0 -9zM-9 186c-29 -7 -46 -2 -39 23c3 10 18 24 42 38c29 17 44 21 46 13c3 -9 -5 -15 -37 -31c-17 -8 -25 -11 -34 -13
c-7 -1 -13 -15 -11 -20c6 -13 42 -3 71 7c30 10 77 35 92 43l15 8c2 1 8 2 7 0c-1 -3 -35 -21 -42 -25c-32 -17 -82 -37 -110 -43zM-26 223c1 0 23 9 30 13c15 8 26 15 27 17c1 4 -6 2 -23 -7c-17 -8 -39 -25 -34 -23z" />
    <glyph glyph-name="edieresis" unicode="&#xeb;" horiz-adv-x="129" 
d="M39 296c-9 -3 -7 2 2 11c6 5 11 9 12 9c4 1 9 0 8 -3c0 -3 -16 -15 -22 -17zM64 294c-2 5 2 11 8 14c7 3 14 2 14 -2c-1 -1 -3 -4 -6 -5s-7 -4 -8 -5c-4 -5 -8 -6 -8 -2zM-9 186c-29 -7 -46 -2 -39 23c3 10 18 24 42 38c29 17 44 21 46 13c3 -9 -5 -15 -37 -31
c-17 -8 -25 -11 -34 -13c-7 -1 -13 -15 -11 -20c6 -13 42 -3 71 7c30 10 77 35 92 43l15 8c2 1 8 2 7 0c-1 -3 -35 -21 -42 -25c-32 -17 -82 -37 -110 -43zM-26 223c1 0 23 9 30 13c15 8 26 15 27 17c1 4 -6 2 -23 -7c-17 -8 -39 -25 -34 -23z" />
    <glyph glyph-name="igrave" unicode="&#xec;" horiz-adv-x="149" 
d="M34 294c1 -5 2 -14 -11 2c-21 26 -33 44 -30 48c2 3 4 2 10 -4c5 -5 29 -41 31 -46zM-43 186c-11 2 -7 17 -3 25c8 15 34 39 53 45c3 1 8 1 8 -3s-7 -6 -10 -8c-25 -14 -49 -38 -46 -48c4 -11 40 0 74 11c32 10 53 19 111 42l11 5c5 2 10 2 7 -2c0 0 -3 -2 -8 -4
c-58 -23 -60 -26 -121 -47c-12 -4 -41 -13 -53 -15c-5 -1 -18 -2 -23 -1z" />
    <glyph glyph-name="iacute" unicode="&#xed;" horiz-adv-x="149" 
d="M38 293c0 1 14 13 28 22c10 7 17 11 30 17c5 2 9 1 10 0c4 -2 -2 -4 -29 -21c-17 -10 -19 -12 -29 -20c-4 -3 -11 -3 -10 2zM-43 186c-11 2 -7 17 -3 25c8 15 34 39 53 45c3 1 8 1 8 -3s-7 -6 -10 -8c-25 -14 -49 -38 -46 -48c4 -11 40 0 74 11c32 10 53 19 111 42l11 5
c5 2 10 2 7 -2c0 0 -3 -2 -8 -4c-58 -23 -60 -26 -121 -47c-12 -4 -41 -13 -53 -15c-5 -1 -18 -2 -23 -1z" />
    <glyph glyph-name="icircumflex" unicode="&#xee;" horiz-adv-x="149" 
d="M86 296c-3 -3 -7 4 -11 14c-2 7 -4 12 -5 12c-4 0 -40 -18 -46 -22c-7 -7 -13 -8 -13 -3s7 9 41 25c26 12 29 12 31 2l3 -17c0 -6 1 -10 0 -11zM-43 186c-11 2 -7 17 -3 25c8 15 34 39 53 45c3 1 8 1 8 -3s-7 -6 -10 -8c-25 -14 -49 -38 -46 -48c4 -11 40 0 74 11
c32 10 53 19 111 42l11 5c5 2 10 2 7 -2c0 0 -3 -2 -8 -4c-58 -23 -60 -26 -121 -47c-12 -4 -41 -13 -53 -15c-5 -1 -18 -2 -23 -1z" />
    <glyph glyph-name="idieresis" unicode="&#xef;" horiz-adv-x="149" 
d="M39 293c-9 -3 -7 2 2 11c6 5 11 9 12 9c4 1 9 0 8 -3c0 -3 -16 -15 -22 -17zM64 291c-2 5 2 11 8 14c7 3 14 2 14 -2c-1 -1 -3 -4 -6 -5s-7 -4 -8 -5c-4 -5 -8 -6 -8 -2zM-43 186c-11 2 -7 17 -3 25c8 15 34 39 53 45c3 1 8 1 8 -3s-7 -6 -10 -8c-25 -14 -49 -38 -46 -48
c4 -11 40 0 74 11c32 10 53 19 111 42l11 5c5 2 10 2 7 -2c0 0 -3 -2 -8 -4c-58 -23 -60 -26 -121 -47c-12 -4 -41 -13 -53 -15c-5 -1 -18 -2 -23 -1z" />
    <glyph glyph-name="eth" unicode="&#xf0;" horiz-adv-x="224" 
d="M-27 177c-29 1 -35 19 -19 41c20 27 95 63 116 43c9 -8 9 -24 0 -26c-5 -1 3 11 -4 19c-21 24 -87 -20 -105 -42c-17 -21 6 -30 22 -28c82 10 189 66 235 133l3 5c-9 0 -15 0 -25 -1c-42 -4 -55 -4 -67 -5c-4 0 -33 -2 -33 0c-2 4 75 8 89 9l39 3l3 7
c32 83 -31 131 -104 112c-11 -3 10 7 27 8c66 4 104 -43 89 -103c-2 -8 -3 -12 -7 -24l10 1c18 2 35 1 37 -3c2 -5 -2 -7 -5 -9l-3 -1s-3 0 -2 1c14 14 -39 6 -39 6c-43 -74 -180 -148 -257 -146z" />
    <glyph glyph-name="ntilde" unicode="&#xf1;" horiz-adv-x="270" 
d="M86 312c-9 9 -17 9 -26 2c-8 -6 -12 -11 -16 -11c-13 0 -5 11 13 19c12 7 21 6 31 -2c25 -19 40 -16 55 -8c9 6 18 7 14 2c-13 -19 -48 -25 -71 -2zM101 170c-41 -6 -54 19 -33 52c5 8 10 12 11 17c2 8 -10 4 -21 1c-10 -3 -32 -11 -58 -25c-14 -8 -34 -23 -35 -28
s-2 -6 -7 -2c-8 7 -4 18 16 41c15 17 37 33 46 36c6 3 13 4 13 0c0 -3 -12 -10 -29 -23c-15 -13 -26 -26 -22 -27l28 14c36 17 72 29 78 19c2 -3 -2 -9 -11 -21c-15 -22 -16 -43 0 -48c31 -8 104 20 200 78c5 3 6 1 6 -1c0 -1 -12 -9 -23 -15c-94 -51 -119 -61 -159 -68z
" />
    <glyph glyph-name="ograve" unicode="&#xf2;" horiz-adv-x="200" 
d="M31 283c1 -5 2 -14 -11 2c-21 26 -33 44 -30 48c2 3 4 2 10 -4c5 -5 29 -41 31 -46zM-34 197c-4 1 -6 3 -6 5c0 13 22 37 47 54l3 2l3 1l2 1c2 1 6 4 9 1c1 -1 3 -5 4 -7c2 -4 3 -11 -1 -15c-3 -3 -3 -3 2 -6c12 -7 87 4 157 18l24 5c2 0 5 -3 -3 -5
c-14 -3 -28 -7 -128 -23c-12 -2 -24 -3 -37 -3c-15 0 -20 2 -22 5c-10 -12 -17 -17 -28 -24c-5 -3 -19 -11 -26 -9zM-28 206c2 -2 18 6 28 14c9 7 20 22 18 28c-2 5 -11 0 -26 -14c-14 -13 -23 -25 -20 -28z" />
    <glyph glyph-name="oacute" unicode="&#xf3;" horiz-adv-x="200" 
d="M46 290c0 1 10 12 20 21c8 6 13 10 23 16c4 2 7 2 8 1c3 -1 -1 -3 -21 -19c-13 -11 -15 -12 -22 -19c-2 -3 -8 -4 -8 0zM-34 197c-4 1 -6 3 -6 5c0 13 22 37 47 54l3 2l3 1l2 1c2 1 6 4 9 1c1 -1 3 -5 4 -7c2 -4 3 -11 -1 -15c-3 -3 -3 -3 2 -6c12 -7 87 4 157 18l24 5
c2 0 5 -3 -3 -5c-14 -3 -28 -7 -128 -23c-12 -2 -24 -3 -37 -3c-15 0 -20 2 -22 5c-10 -12 -17 -17 -28 -24c-5 -3 -19 -11 -26 -9zM-28 206c2 -2 18 6 28 14c9 7 20 22 18 28c-2 5 -11 0 -26 -14c-14 -13 -23 -25 -20 -28z" />
    <glyph glyph-name="ocircumflex" unicode="&#xf4;" horiz-adv-x="200" 
d="M79 290c-3 -3 -7 4 -11 14c-2 7 -4 12 -5 12c-4 0 -40 -18 -46 -22c-7 -7 -13 -8 -13 -3s7 9 41 25c26 12 29 12 31 2l3 -17c0 -6 1 -10 0 -11zM-34 197c-4 1 -6 3 -6 5c0 13 22 37 47 54l3 2l3 1l2 1c2 1 6 4 9 1c1 -1 3 -5 4 -7c2 -4 3 -11 -1 -15c-3 -3 -3 -3 2 -6
c12 -7 87 4 157 18l24 5c2 0 5 -3 -3 -5c-14 -3 -28 -7 -128 -23c-12 -2 -24 -3 -37 -3c-15 0 -20 2 -22 5c-10 -12 -17 -17 -28 -24c-5 -3 -19 -11 -26 -9zM-28 206c2 -2 18 6 28 14c9 7 20 22 18 28c-2 5 -11 0 -26 -14c-14 -13 -23 -25 -20 -28z" />
    <glyph glyph-name="otilde" unicode="&#xf5;" horiz-adv-x="200" 
d="M36 297c-6 6 -12 6 -18 1c-6 -4 -9 -8 -12 -8c-9 0 -3 8 9 14c9 5 15 4 22 -2c18 -13 28 -11 39 -5c6 4 12 5 10 1c-9 -13 -34 -17 -50 -1zM-34 197c-4 1 -6 3 -6 5c0 13 22 37 47 54l3 2l3 1l2 1c2 1 6 4 9 1c1 -1 3 -5 4 -7c2 -4 3 -11 -1 -15c-3 -3 -3 -3 2 -6
c12 -7 87 4 157 18l24 5c2 0 5 -3 -3 -5c-14 -3 -28 -7 -128 -23c-12 -2 -24 -3 -37 -3c-15 0 -20 2 -22 5c-10 -12 -17 -17 -28 -24c-5 -3 -19 -11 -26 -9zM-28 206c2 -2 18 6 28 14c9 7 20 22 18 28c-2 5 -11 0 -26 -14c-14 -13 -23 -25 -20 -28z" />
    <glyph glyph-name="odieresis" unicode="&#xf6;" horiz-adv-x="200" 
d="M31 286c-9 -3 -7 2 2 11c6 5 11 9 12 9c4 1 9 0 8 -3c0 -3 -16 -15 -22 -17zM56 284c-2 5 2 11 8 14c7 3 14 2 14 -2c-1 -1 -3 -4 -6 -5s-7 -4 -8 -5c-4 -5 -8 -6 -8 -2zM-34 197c-4 1 -6 3 -6 5c0 13 22 37 47 54l3 2l3 1l2 1c2 1 6 4 9 1c1 -1 3 -5 4 -7
c2 -4 3 -11 -1 -15c-3 -3 -3 -3 2 -6c12 -7 87 4 157 18l24 5c2 0 5 -3 -3 -5c-14 -3 -28 -7 -128 -23c-12 -2 -24 -3 -37 -3c-15 0 -20 2 -22 5c-10 -12 -17 -17 -28 -24c-5 -3 -19 -11 -26 -9zM-28 206c2 -2 18 6 28 14c9 7 20 22 18 28c-2 5 -11 0 -26 -14
c-14 -13 -23 -25 -20 -28z" />
    <glyph glyph-name="divide" unicode="&#xf7;" horiz-adv-x="120" 
d="M61 224c-2 2 4 7 6 9c3 3 8 9 13 10c7 2 5 -4 2 -8c-2 -2 -18 -18 -21 -11zM16 194c-13 -2 -18 -1 -16 3c2 2 7 3 30 5c19 2 65 0 69 -2c2 -1 2 -1 -1 -1c-28 -1 -72 -3 -82 -5zM11 151c-2 -3 -6 -3 -6 0s8 13 12 15c10 4 11 -4 2 -9c-4 -3 -8 -5 -8 -6z" />
    <glyph glyph-name="oslash" unicode="&#xf8;" horiz-adv-x="200" 
d="M210 256c2 0 5 -3 -3 -5c-14 -3 -28 -7 -128 -23c-12 -2 -24 -3 -37 -3c-15 0 -20 2 -22 5c-10 -12 -17 -17 -28 -24c-5 -3 -19 -11 -26 -9c-1 0 -2 1 -3 1c-8 -9 -10 -12 -11 -11c-1 2 1 6 9 13c-1 1 -1 1 -1 2c0 13 22 37 47 54l3 2l3 1l2 1c2 1 6 4 9 1
c1 -1 2 -3 3 -5l10 8c3 2 4 2 3 0c0 -1 -1 -2 -2 -3l-10 -8c2 -4 3 -10 -1 -14c-3 -3 -3 -3 2 -6c12 -7 87 4 157 18zM-8 234c-9 -8 -16 -16 -19 -22c6 6 13 11 21 17l24 19c-3 5 -11 0 -26 -14zM0 220c8 6 17 18 18 25l-24 -19c-13 -11 -16 -13 -22 -19v-1c2 -2 18 6 28 14
z" />
    <glyph glyph-name="ugrave" unicode="&#xf9;" horiz-adv-x="199" 
d="M79 310c1 -5 2 -14 -11 2c-21 26 -33 44 -30 48c2 3 4 2 10 -4c5 -5 29 -41 31 -46zM29 189c-15 5 1 28 7 34c4 4 6 8 6 8c-1 1 -7 -2 -26 -10c-21 -9 -35 -14 -41 -11c-4 2 -5 3 -5 7c0 6 5 12 24 28s29 22 32 21c4 -1 3 -4 -2 -6c-10 -4 -44 -36 -44 -42
c0 -4 16 1 38 10c31 13 43 19 55 29c6 5 11 8 14 8s4 -1 4 -2s-10 -10 -22 -21s-24 -23 -27 -27c-14 -18 -16 -25 4 -20c24 6 119 42 162 60c3 1 6 1 6 -2c0 -1 -7 -3 -7 -3l-62 -24c-59 -22 -104 -41 -116 -37z" />
    <glyph glyph-name="uacute" unicode="&#xfa;" horiz-adv-x="199" 
d="M83 320c0 2 14 17 29 30c11 9 19 15 33 23c5 3 10 3 11 2c5 -2 -1 -5 -30 -28c-19 -15 -21 -17 -31 -27c-4 -4 -12 -5 -12 0zM29 189c-15 5 1 28 7 34c4 4 6 8 6 8c-1 1 -7 -2 -26 -10c-21 -9 -35 -14 -41 -11c-4 2 -5 3 -5 7c0 6 5 12 24 28s29 22 32 21
c4 -1 3 -4 -2 -6c-10 -4 -44 -36 -44 -42c0 -4 16 1 38 10c31 13 43 19 55 29c6 5 11 8 14 8s4 -1 4 -2s-10 -10 -22 -21s-24 -23 -27 -27c-14 -18 -16 -25 4 -20c24 6 119 42 162 60c3 1 6 1 6 -2c0 -1 -7 -3 -7 -3l-62 -24c-59 -22 -104 -41 -116 -37z" />
    <glyph glyph-name="ucircumflex" unicode="&#xfb;" horiz-adv-x="199" 
d="M137 339c-3 -3 -7 4 -11 14c-2 7 -4 12 -5 12c-4 0 -40 -18 -46 -22c-7 -7 -13 -8 -13 -3s7 9 41 25c26 12 29 12 31 2l3 -17c0 -6 1 -10 0 -11zM29 189c-15 5 1 28 7 34c4 4 6 8 6 8c-1 1 -7 -2 -26 -10c-21 -9 -35 -14 -41 -11c-4 2 -5 3 -5 7c0 6 5 12 24 28
s29 22 32 21c4 -1 3 -4 -2 -6c-10 -4 -44 -36 -44 -42c0 -4 16 1 38 10c31 13 43 19 55 29c6 5 11 8 14 8s4 -1 4 -2s-10 -10 -22 -21s-24 -23 -27 -27c-14 -18 -16 -25 4 -20c24 6 119 42 162 60c3 1 6 1 6 -2c0 -1 -7 -3 -7 -3l-62 -24c-59 -22 -104 -41 -116 -37z" />
    <glyph glyph-name="udieresis" unicode="&#xfc;" horiz-adv-x="199" 
d="M79 323c-9 -3 -7 2 2 11c6 5 11 9 12 9c4 1 9 0 8 -3c0 -3 -16 -15 -22 -17zM104 321c-2 5 2 11 8 14c7 3 14 2 14 -2c-1 -1 -3 -4 -6 -5s-7 -4 -8 -5c-4 -5 -8 -6 -8 -2zM29 189c-15 5 1 28 7 34c4 4 6 8 6 8c-1 1 -7 -2 -26 -10c-21 -9 -35 -14 -41 -11c-4 2 -5 3 -5 7
c0 6 5 12 24 28s29 22 32 21c4 -1 3 -4 -2 -6c-10 -4 -44 -36 -44 -42c0 -4 16 1 38 10c31 13 43 19 55 29c6 5 11 8 14 8s4 -1 4 -2s-10 -10 -22 -21s-24 -23 -27 -27c-14 -18 -16 -25 4 -20c24 6 119 42 162 60c3 1 6 1 6 -2c0 -1 -7 -3 -7 -3l-62 -24
c-59 -22 -104 -41 -116 -37z" />
    <glyph glyph-name="yacute" unicode="&#xfd;" horiz-adv-x="160" 
d="M72 328c0 1 11 11 24 20c8 6 15 10 26 15c4 2 8 1 8 0c4 -1 -1 -3 -24 -18c-15 -10 -17 -12 -25 -18c-4 -3 -10 -3 -9 1zM-456 -112c-24 12 15 59 58 93c25 20 52 39 80 56c66 40 146 78 225 106c24 9 27 11 27 11l31 25c23 19 49 42 58 50c1 1 -17 -8 -25 -12
c-36 -19 -53 -14 -34 6c8 8 18 14 27 21c8 6 19 15 22 10c1 -2 -5 -5 -20 -15c-14 -9 -37 -30 -31 -30c15 0 73 29 100 53c5 5 10 4 10 1c0 -2 -2 -4 -24 -23c-17 -15 -72 -63 -97 -84l47 17c49 18 80 32 124 56c22 12 31 18 48 27c6 -1 5 -3 -8 -10
c-58 -34 -69 -38 -101 -53c-30 -14 -45 -18 -93 -36l-27 -10l-35 -29l-69 -61c-29 -25 -58 -46 -88 -69s-56 -41 -88 -60c-25 -15 -89 -54 -117 -40zM-442 -109c27 0 53 15 76 28c33 19 65 41 96 64c59 44 114 93 170 140l26 22l-43 -16l-59 -24c-34 -14 -69 -32 -101 -50
c-33 -18 -63 -38 -93 -60c-28 -20 -66 -49 -79 -73c-12 -22 -9 -31 7 -31z" />
    <glyph glyph-name="thorn" unicode="&#xfe;" horiz-adv-x="155" 
d="M-287 -90c-6 6 14 46 22 59c53 79 104 141 173 212c5 5 11 9 15 14l1 1l-1 2c-2 4 -2 9 -2 14c0 4 1 7 4 9c3 4 16 7 35 10c10 1 17 5 49 31c78 64 198 145 219 156c11 6 17 6 17 0c0 -3 -12 -11 -12 -7c-1 1 -4 0 -6 -1c-4 -2 -117 -75 -148 -101l-33 -26
c-17 -13 -25 -22 -33 -29c-1 -1 17 10 27 14c29 12 46 14 49 8c2 -3 2 -5 0 -8c-3 -6 -12 -14 -20 -22l-9 -8c-3 -3 6 -2 32 -1c33 1 44 0 44 -4c0 -2 -2 -2 -6 -2c-16 1 -45 1 -63 0c-19 -1 -19 -1 -34 -10l-42 -21c-11 -4 -21 -9 -33 -11c-5 -1 -12 -3 -18 -2
c-4 0 -7 2 -11 -2l-10 -9c-5 -4 -9 -9 -14 -13c-63 -61 -120 -133 -165 -209c-19 -32 -7 -37 -18 -44c-5 -3 -6 -3 -9 0zM-15 232h13l44 3l14 10c13 10 23 21 23 25c0 5 -20 0 -48 -12c-10 -5 -19 -10 -22 -12zM-42 195c6 1 11 3 16 5c10 4 20 9 29 13l14 7l15 9l-38 -2
c-8 -1 -16 -1 -17 -2c-5 -3 -24 -18 -31 -25c-8 -8 -6 -9 12 -5zM-69 199c1 0 2 0 2 1l19 18l2 1c1 1 7 6 6 6l-8 -2c-7 0 -10 -1 -17 -3c-2 0 -5 -2 -6 -4c-3 -4 -2 -8 -1 -12c0 -3 2 -5 3 -5z" />
    <glyph glyph-name="ydieresis" unicode="&#xff;" horiz-adv-x="160" 
d="M61 305c-6 -2 -5 2 2 8c4 3 7 6 8 6c3 1 6 0 6 -2s-11 -10 -16 -12zM79 304c-2 3 1 8 5 10c5 2 10 1 10 -2c0 0 -2 -3 -4 -3l-6 -4c-2 -3 -5 -4 -5 -1zM-456 -112c-24 12 15 59 58 93c25 20 52 39 80 56c66 40 146 78 225 106c24 9 27 11 27 11l31 25c23 19 49 42 58 50
c1 1 -17 -8 -25 -12c-36 -19 -53 -14 -34 6c8 8 18 14 27 21c8 6 19 15 22 10c1 -2 -5 -5 -20 -15c-14 -9 -37 -30 -31 -30c15 0 73 29 100 53c5 5 10 4 10 1c0 -2 -2 -4 -24 -23c-17 -15 -72 -63 -97 -84l47 17c49 18 80 32 124 56c22 12 31 18 48 27c6 -1 5 -3 -8 -10
c-58 -34 -69 -38 -101 -53c-30 -14 -45 -18 -93 -36l-27 -10l-35 -29l-69 -61c-29 -25 -58 -46 -88 -69s-56 -41 -88 -60c-25 -15 -89 -54 -117 -40zM-442 -109c27 0 53 15 76 28c33 19 65 41 96 64c59 44 114 93 170 140l26 22l-43 -16l-59 -24c-34 -14 -69 -32 -101 -50
c-33 -18 -63 -38 -93 -60c-28 -20 -66 -49 -79 -73c-12 -22 -9 -31 7 -31z" />
    <glyph glyph-name="Amacron" unicode="&#x100;" horiz-adv-x="743" 
d="M853 829c-3 6 4 8 40 11c49 4 64 4 63 -5c-1 -5 -4 -4 -17 -3c-6 0 -17 1 -28 0c-54 -5 -57 -5 -58 -3zM647 -10c-23 -1 -47 15 -61 42c-7 14 -15 42 -18 57c-3 19 -3 54 0 73c2 16 4 23 11 53c7 28 27 76 48 113l13 24l-38 -6c-3 0 -16 -2 -26 -5c-3 -1 -5 -3 -10 -6
l-39 -25c-28 -17 -55 -35 -84 -52c-54 -32 -109 -63 -166 -88c-56 -26 -116 -46 -177 -57c-23 -4 -47 -7 -68 4c-4 3 -9 7 -11 12c-2 8 0 17 5 24c7 9 18 19 23 15c5 -2 -3 -4 -13 -14c-5 -6 -8 -13 -8 -17c-1 -11 10 -17 20 -19c27 -5 54 0 80 6c42 10 83 24 123 41
c61 25 119 55 176 88c27 15 54 32 81 49l33 22c2 2 14 10 20 14l-169 -35c-34 -8 -67 -17 -100 -25c-18 -5 -37 -11 -56 -13c-9 0 -9 4 0 9c4 2 10 7 15 12c8 10 17 16 19 15c0 -1 -2 -5 -6 -8c-4 -4 -8 -10 -11 -13l-4 -6l8 1c4 1 23 5 43 10l121 29l34 7l102 21
c13 2 20 7 39 20l23 17c11 7 24 16 64 46c10 8 17 14 25 24l22 30c28 36 54 73 80 110c14 21 31 41 43 63c6 11 11 14 10 5c-4 -11 -13 -21 -20 -31l-28 -42c-18 -27 -37 -55 -57 -81c-18 -24 -32 -44 -33 -46c-10 -12 139 112 173 149c13 13 25 27 37 41c8 10 15 21 22 31
c13 20 30 51 11 72c-8 10 -22 14 -35 15c-19 3 -38 2 -56 0c-41 -3 -80 -12 -119 -23c-137 -40 -269 -100 -381 -189c-15 -12 -30 -27 -30 -46c-5 1 -8 6 -7 11s4 8 7 12c26 29 58 52 92 73c40 26 83 50 127 70c56 27 114 49 174 67c58 17 116 32 177 31c12 0 24 -1 35 -4
c12 -4 24 -12 29 -25c4 -12 3 -26 -3 -40c-12 -27 -46 -73 -79 -104c-26 -26 -71 -66 -97 -87l-27 -23l-35 -27c-23 -18 -30 -24 -41 -39c-13 -18 -40 -57 -40 -60c0 -2 5 0 45 5c39 5 48 6 96 8c46 3 56 1 61 -4c4 -3 4 -4 2 -8c-3 -5 -15 -11 -18 -9c0 1 2 3 6 6
c3 2 5 5 5 6c-3 5 -52 7 -84 3l-34 -3c-24 -1 -38 -4 -51 -6l-33 -6s-2 -2 -10 -14c-10 -17 -29 -57 -37 -77c-31 -76 -37 -135 -22 -194c11 -47 30 -70 58 -73c10 -1 15 -1 22 3c5 2 7 4 7 3c2 -3 -10 -11 -25 -12zM583 347l56 10c4 1 5 2 25 31l16 22l12 16l-67 -49
c-10 -6 -15 -9 -18 -12z" />
    <glyph glyph-name="amacron" unicode="&#x101;" 
d="M25 308c-2 5 3 7 32 9c38 4 50 4 49 -4c0 -4 -3 -3 -13 -2h-22c-43 -5 -45 -5 -46 -3zM187 255c3 1 5 2 6 1c2 -3 -3 -5 -10 -8c-36 -17 -45 -21 -72 -32c-42 -18 -75 -32 -91 -22c-11 10 -2 30 3 36c-16 -8 -27 -12 -37 -12c-21 3 -9 22 7 30c32 17 58 23 67 18
c3 -2 5 -1 10 1c7 2 16 5 17 -1c1 -5 -2 -9 -7 -9c-9 0 -27 -11 -44 -27c-14 -14 -16 -28 -8 -32c9 -3 27 1 65 16c14 6 28 12 46 19c20 9 39 17 48 22zM51 259c1 12 -64 -20 -68 -28c-5 -10 14 -9 41 5c18 10 27 21 27 23z" />
    <glyph glyph-name="Abreve" unicode="&#x102;" horiz-adv-x="743" 
d="M992 816c-14 0 -21 2 -25 10c-3 6 -4 17 -2 19c4 4 7 1 10 -8c5 -16 10 -17 44 -10c14 3 31 10 36 14c4 4 7 1 5 -4c-2 -7 -47 -21 -68 -21zM647 -10c-23 -1 -47 15 -61 42c-7 14 -15 42 -18 57c-3 19 -3 54 0 73c2 16 4 23 11 53c7 28 27 76 48 113l13 24l-38 -6
c-3 0 -16 -2 -26 -5c-3 -1 -5 -3 -10 -6l-39 -25c-28 -17 -55 -35 -84 -52c-54 -32 -109 -63 -166 -88c-56 -26 -116 -46 -177 -57c-23 -4 -47 -7 -68 4c-4 3 -9 7 -11 12c-2 8 0 17 5 24c7 9 18 19 23 15c5 -2 -3 -4 -13 -14c-5 -6 -8 -13 -8 -17c-1 -11 10 -17 20 -19
c27 -5 54 0 80 6c42 10 83 24 123 41c61 25 119 55 176 88c27 15 54 32 81 49l33 22c2 2 14 10 20 14l-169 -35c-34 -8 -67 -17 -100 -25c-18 -5 -37 -11 -56 -13c-9 0 -9 4 0 9c4 2 10 7 15 12c8 10 17 16 19 15c0 -1 -2 -5 -6 -8c-4 -4 -8 -10 -11 -13l-4 -6l8 1
c4 1 23 5 43 10l121 29l34 7l102 21c13 2 20 7 39 20l23 17c11 7 24 16 64 46c10 8 17 14 25 24l22 30c28 36 54 73 80 110c14 21 31 41 43 63c6 11 11 14 10 5c-4 -11 -13 -21 -20 -31l-28 -42c-18 -27 -37 -55 -57 -81c-18 -24 -32 -44 -33 -46c-10 -12 139 112 173 149
c13 13 25 27 37 41c8 10 15 21 22 31c13 20 30 51 11 72c-8 10 -22 14 -35 15c-19 3 -38 2 -56 0c-41 -3 -80 -12 -119 -23c-137 -40 -269 -100 -381 -189c-15 -12 -30 -27 -30 -46c-5 1 -8 6 -7 11s4 8 7 12c26 29 58 52 92 73c40 26 83 50 127 70c56 27 114 49 174 67
c58 17 116 32 177 31c12 0 24 -1 35 -4c12 -4 24 -12 29 -25c4 -12 3 -26 -3 -40c-12 -27 -46 -73 -79 -104c-26 -26 -71 -66 -97 -87l-27 -23l-35 -27c-23 -18 -30 -24 -41 -39c-13 -18 -40 -57 -40 -60c0 -2 5 0 45 5c39 5 48 6 96 8c46 3 56 1 61 -4c4 -3 4 -4 2 -8
c-3 -5 -15 -11 -18 -9c0 1 2 3 6 6c3 2 5 5 5 6c-3 5 -52 7 -84 3l-34 -3c-24 -1 -38 -4 -51 -6l-33 -6s-2 -2 -10 -14c-10 -17 -29 -57 -37 -77c-31 -76 -37 -135 -22 -194c11 -47 30 -70 58 -73c10 -1 15 -1 22 3c5 2 7 4 7 3c2 -3 -10 -11 -25 -12zM583 347l56 10
c4 1 5 2 25 31l16 22l12 16l-67 -49c-10 -6 -15 -9 -18 -12z" />
    <glyph glyph-name="abreve" unicode="&#x103;" 
d="M50 304c-14 0 -21 2 -25 10c-3 6 -4 17 -2 19c4 4 7 1 10 -8c5 -16 10 -17 44 -10c14 3 31 10 36 14c4 4 7 1 5 -4c-2 -7 -47 -21 -68 -21zM187 255c3 1 5 2 6 1c2 -3 -3 -5 -10 -8c-36 -17 -45 -21 -72 -32c-42 -18 -75 -32 -91 -22c-11 10 -2 30 3 36
c-16 -8 -27 -12 -37 -12c-21 3 -9 22 7 30c32 17 58 23 67 18c3 -2 5 -1 10 1c7 2 16 5 17 -1c1 -5 -2 -9 -7 -9c-9 0 -27 -11 -44 -27c-14 -14 -16 -28 -8 -32c9 -3 27 1 65 16c14 6 28 12 46 19c20 9 39 17 48 22zM51 259c1 12 -64 -20 -68 -28c-5 -10 14 -9 41 5
c18 10 27 21 27 23z" />
    <glyph glyph-name="Aogonek" unicode="&#x104;" horiz-adv-x="743" 
d="M981 742c4 -12 3 -26 -3 -40c-12 -27 -46 -73 -79 -104c-26 -26 -71 -66 -97 -87l-27 -23l-35 -27c-23 -18 -30 -24 -41 -39c-13 -18 -40 -57 -40 -60c0 -2 5 0 45 5c39 5 48 6 96 8c46 3 56 1 61 -4c4 -3 4 -4 2 -8c-3 -5 -15 -11 -18 -9c0 1 2 3 6 6c3 2 5 5 5 6
c-3 5 -52 7 -84 3l-34 -3c-24 -1 -38 -4 -51 -6l-33 -6s-2 -2 -10 -14c-10 -17 -29 -57 -37 -77c-31 -76 -37 -135 -22 -194c11 -47 30 -70 58 -73c10 -1 15 -1 22 3c5 2 7 4 7 3c2 -3 -10 -11 -25 -12h-4c-1 0 -2 -1 -3 -1c-12 -4 -25 -12 -35 -30c-7 -13 -9 -23 -6 -31
c4 -11 16 -15 11 -18c-11 -6 -29 7 -26 31c2 18 17 34 38 48l7 4c-17 5 -33 19 -43 39c-7 14 -15 42 -18 57c-3 19 -3 54 0 73c2 16 4 23 11 53c7 28 27 76 48 113l13 24l-38 -6c-3 0 -16 -2 -26 -5c-3 -1 -5 -3 -10 -6l-39 -25c-28 -17 -55 -35 -84 -52
c-54 -32 -109 -63 -166 -88c-56 -26 -116 -46 -177 -57c-23 -4 -47 -7 -68 4c-4 3 -9 7 -11 12c-2 8 0 17 5 24c7 9 18 19 23 15c5 -2 -3 -4 -13 -14c-5 -6 -8 -13 -8 -17c-1 -11 10 -17 20 -19c27 -5 54 0 80 6c42 10 83 24 123 41c61 25 119 55 176 88c27 15 54 32 81 49
l33 22c2 2 14 10 20 14l-169 -35c-34 -8 -67 -17 -100 -25c-18 -5 -37 -11 -56 -13c-9 0 -9 4 0 9c4 2 10 7 15 12c8 10 17 16 19 15c0 -1 -2 -5 -6 -8c-4 -4 -8 -10 -11 -13l-4 -6l8 1c4 1 23 5 43 10l121 29l34 7l102 21c13 2 20 7 39 20l23 17c11 7 24 16 64 46
c10 8 17 14 25 24l22 30c28 36 54 73 80 110c14 21 31 41 43 63c6 11 11 14 10 5c-4 -11 -13 -21 -20 -31l-28 -42c-18 -27 -37 -55 -57 -81c-18 -24 -32 -44 -33 -46c-10 -12 139 112 173 149c13 13 25 27 37 41c8 10 15 21 22 31c13 20 30 51 11 72c-8 10 -22 14 -35 15
c-19 3 -38 2 -56 0c-41 -3 -80 -12 -119 -23c-137 -40 -269 -100 -381 -189c-15 -12 -30 -27 -30 -46c-5 1 -8 6 -7 11s4 8 7 12c26 29 58 52 92 73c40 26 83 50 127 70c56 27 114 49 174 67c58 17 116 32 177 31c12 0 24 -1 35 -4c12 -4 24 -12 29 -25zM680 410l12 16
l-67 -49c-10 -6 -15 -9 -18 -12l-24 -18l56 10c4 1 5 2 25 31z" />
    <glyph glyph-name="aogonek" unicode="&#x105;" 
d="M193 256c2 -3 -3 -5 -10 -8c-36 -17 -45 -21 -72 -32c-31 -13 -57 -24 -75 -25c-7 -3 -15 -9 -21 -19c-4 -9 -6 -16 -4 -21c3 -8 11 -11 8 -13c-8 -4 -20 5 -18 21c2 13 12 24 25 32l-6 3c-11 10 -2 30 3 36c-16 -8 -27 -12 -37 -12c-21 3 -9 22 7 30c32 17 58 23 67 18
c3 -2 5 -1 10 1c7 2 16 5 17 -1c1 -5 -2 -9 -7 -9c-9 0 -27 -11 -44 -27c-14 -14 -16 -28 -8 -32c9 -3 27 1 65 16c14 6 28 12 46 19c20 9 39 17 48 22c3 1 5 2 6 1zM-17 231c-5 -10 14 -9 41 5c18 10 27 21 27 23c1 12 -64 -20 -68 -28z" />
    <glyph glyph-name="Cacute" unicode="&#x106;" horiz-adv-x="643" 
d="M714 740c0 2 14 17 29 30c11 9 19 15 33 23c5 3 10 3 11 2c5 -2 -1 -5 -30 -28c-19 -15 -21 -17 -31 -27c-4 -4 -12 -5 -12 0zM140 30c-33 -2 -72 4 -96 29s-25 58 -23 90c2 35 12 69 25 101c33 76 87 142 144 201c80 84 177 157 287 206c37 16 71 29 110 39
c41 11 158 35 145 -44c-6 -33 -31 -61 -53 -85c-14 -15 -28 -29 -43 -42c-46 -41 -96 -78 -148 -109c-26 -16 -53 -30 -80 -43c-18 -9 -40 -20 -61 -20c-11 0 -18 7 -19 18c-3 39 33 75 59 98c30 26 66 53 106 65c6 2 16 3 21 -2c3 -2 1 -9 1 -12c-8 8 -21 6 -31 3
c-18 -5 -38 -19 -53 -30c-17 -13 -34 -27 -49 -42c-19 -20 -47 -46 -46 -76c0 -12 4 -16 17 -15c18 2 36 10 85 36c26 13 30 15 56 32c18 10 64 43 86 59c30 23 58 48 84 75c23 24 47 51 59 83c2 7 4 15 3 22c-1 24 -26 33 -47 34c-50 2 -102 -13 -149 -30
c-48 -17 -94 -40 -137 -66c-91 -53 -174 -126 -240 -208c-59 -72 -95 -136 -113 -199c-7 -28 -10 -50 -10 -73s5 -49 23 -64c17 -15 40 -21 62 -23c32 -3 66 2 97 9c33 7 65 18 97 30c77 30 150 72 224 110c91 47 124 76 124 67c0 0 0 -1 -1 -2c-7 -7 -116 -70 -180 -104
c-54 -28 -110 -53 -166 -77c-53 -22 -112 -39 -170 -41z" />
    <glyph glyph-name="cacute" unicode="&#x107;" horiz-adv-x="146" 
d="M60 288c0 1 11 12 22 20c9 6 15 10 26 16c4 2 7 1 8 0c3 -1 -1 -3 -24 -19c-14 -10 -16 -11 -24 -18c-3 -2 -9 -3 -8 1zM-14 186c-21 -4 -32 4 -30 19c2 13 15 27 28 35c14 10 36 22 46 22c6 0 6 -7 1 -15c-6 -8 -12 -9 -10 -1c1 6 -1 6 -11 1c-28 -15 -45 -32 -45 -46
c0 -8 5 -12 22 -9c30 6 78 23 106 35s30 14 53 25c8 4 12 6 12 2c0 -1 -7 -5 -9 -6c-29 -14 -35 -17 -67 -31c-25 -10 -63 -24 -96 -31z" />
    <glyph glyph-name="Ccircumflex" unicode="&#x108;" horiz-adv-x="631" 
d="M216 698c-3 -3 -7 4 -11 14c-2 7 -4 12 -5 12c-4 0 -40 -18 -46 -22c-7 -7 -13 -8 -13 -3s7 9 41 25c26 12 29 12 31 2l3 -17c0 -6 1 -10 0 -11zM140 30c-33 -2 -72 4 -96 29s-25 58 -23 90c2 35 12 69 25 101c33 76 87 142 144 201c80 84 177 157 287 206
c37 16 71 29 110 39c41 11 158 35 145 -44c-6 -33 -31 -61 -53 -85c-14 -15 -28 -29 -43 -42c-46 -41 -96 -78 -148 -109c-26 -16 -53 -30 -80 -43c-18 -9 -40 -20 -61 -20c-11 0 -18 7 -19 18c-3 39 33 75 59 98c30 26 66 53 106 65c6 2 16 3 21 -2c3 -2 1 -9 1 -12
c-8 8 -21 6 -31 3c-18 -5 -38 -19 -53 -30c-17 -13 -34 -27 -49 -42c-19 -20 -47 -46 -46 -76c0 -12 4 -16 17 -15c18 2 36 10 85 36c26 13 30 15 56 32c18 10 64 43 86 59c30 23 58 48 84 75c23 24 47 51 59 83c2 7 4 15 3 22c-1 24 -26 33 -47 34c-50 2 -102 -13 -149 -30
c-48 -17 -94 -40 -137 -66c-91 -53 -174 -126 -240 -208c-59 -72 -95 -136 -113 -199c-7 -28 -10 -50 -10 -73s5 -49 23 -64c17 -15 40 -21 62 -23c32 -3 66 2 97 9c33 7 65 18 97 30c77 30 150 72 224 110c91 47 124 76 124 67c0 0 0 -1 -1 -2c-7 -7 -116 -70 -180 -104
c-54 -28 -110 -53 -166 -77c-53 -22 -112 -39 -170 -41z" />
    <glyph glyph-name="ccircumflex" unicode="&#x109;" horiz-adv-x="479" 
d="M114 533c-3 -3 -7 4 -11 14c-2 7 -4 12 -5 12c-4 0 -40 -18 -46 -22c-7 -7 -13 -8 -13 -3s7 9 41 25c26 12 29 12 31 2l3 -17c0 -6 1 -10 0 -11zM-14 186c-21 -4 -32 4 -30 19c2 13 15 27 28 35c14 10 36 22 46 22c6 0 6 -7 1 -15c-6 -8 -12 -9 -10 -1c1 6 -1 6 -11 1
c-28 -15 -45 -32 -45 -46c0 -8 5 -12 22 -9c30 6 78 23 106 35s30 14 53 25c8 4 12 6 12 2c0 -1 -7 -5 -9 -6c-29 -14 -35 -17 -67 -31c-25 -10 -63 -24 -96 -31z" />
    <glyph glyph-name="Cdotaccent" unicode="&#x10a;" horiz-adv-x="643" 
d="M745 738c-10 0 -13 9 -10 16c3 6 13 6 17 1c5 -6 3 -17 -7 -17zM140 30c-33 -2 -72 4 -96 29s-25 58 -23 90c2 35 12 69 25 101c33 76 87 142 144 201c80 84 177 157 287 206c37 16 71 29 110 39c41 11 158 35 145 -44c-6 -33 -31 -61 -53 -85c-14 -15 -28 -29 -43 -42
c-46 -41 -96 -78 -148 -109c-26 -16 -53 -30 -80 -43c-18 -9 -40 -20 -61 -20c-11 0 -18 7 -19 18c-3 39 33 75 59 98c30 26 66 53 106 65c6 2 16 3 21 -2c3 -2 1 -9 1 -12c-8 8 -21 6 -31 3c-18 -5 -38 -19 -53 -30c-17 -13 -34 -27 -49 -42c-19 -20 -47 -46 -46 -76
c0 -12 4 -16 17 -15c18 2 36 10 85 36c26 13 30 15 56 32c18 10 64 43 86 59c30 23 58 48 84 75c23 24 47 51 59 83c2 7 4 15 3 22c-1 24 -26 33 -47 34c-50 2 -102 -13 -149 -30c-48 -17 -94 -40 -137 -66c-91 -53 -174 -126 -240 -208c-59 -72 -95 -136 -113 -199
c-7 -28 -10 -50 -10 -73s5 -49 23 -64c17 -15 40 -21 62 -23c32 -3 66 2 97 9c33 7 65 18 97 30c77 30 150 72 224 110c91 47 124 76 124 67c0 0 0 -1 -1 -2c-7 -7 -116 -70 -180 -104c-54 -28 -110 -53 -166 -77c-53 -22 -112 -39 -170 -41z" />
    <glyph glyph-name="cdotaccent" unicode="&#x10b;" horiz-adv-x="146" 
d="M60 286c-8 0 -10 7 -8 13c2 4 11 4 14 0c4 -4 2 -13 -6 -13zM-14 186c-21 -4 -32 4 -30 19c2 13 15 27 28 35c14 10 36 22 46 22c6 0 6 -7 1 -15c-6 -8 -12 -9 -10 -1c1 6 -1 6 -11 1c-28 -15 -45 -32 -45 -46c0 -8 5 -12 22 -9c30 6 78 23 106 35s30 14 53 25
c8 4 12 6 12 2c0 -1 -7 -5 -9 -6c-29 -14 -35 -17 -67 -31c-25 -10 -63 -24 -96 -31z" />
    <glyph glyph-name="Ccaron" unicode="&#x10c;" horiz-adv-x="643" 
d="M726 744c-9 3 -16 38 -10 46c4 5 4 5 7 1c2 -3 4 -8 4 -12c0 -13 2 -20 6 -20c2 0 10 4 17 11c8 6 22 15 31 21c9 5 17 9 19 8c5 -1 0 -7 -12 -14c-8 -4 -20 -12 -27 -17c-19 -17 -31 -25 -35 -24zM140 30c-33 -2 -72 4 -96 29s-25 58 -23 90c2 35 12 69 25 101
c33 76 87 142 144 201c80 84 177 157 287 206c37 16 71 29 110 39c41 11 158 35 145 -44c-6 -33 -31 -61 -53 -85c-14 -15 -28 -29 -43 -42c-46 -41 -96 -78 -148 -109c-26 -16 -53 -30 -80 -43c-18 -9 -40 -20 -61 -20c-11 0 -18 7 -19 18c-3 39 33 75 59 98
c30 26 66 53 106 65c6 2 16 3 21 -2c3 -2 1 -9 1 -12c-8 8 -21 6 -31 3c-18 -5 -38 -19 -53 -30c-17 -13 -34 -27 -49 -42c-19 -20 -47 -46 -46 -76c0 -12 4 -16 17 -15c18 2 36 10 85 36c26 13 30 15 56 32c18 10 64 43 86 59c30 23 58 48 84 75c23 24 47 51 59 83
c2 7 4 15 3 22c-1 24 -26 33 -47 34c-50 2 -102 -13 -149 -30c-48 -17 -94 -40 -137 -66c-91 -53 -174 -126 -240 -208c-59 -72 -95 -136 -113 -199c-7 -28 -10 -50 -10 -73s5 -49 23 -64c17 -15 40 -21 62 -23c32 -3 66 2 97 9c33 7 65 18 97 30c77 30 150 72 224 110
c91 47 124 76 124 67c0 0 0 -1 -1 -2c-7 -7 -116 -70 -180 -104c-54 -28 -110 -53 -166 -77c-53 -22 -112 -39 -170 -41z" />
    <glyph glyph-name="ccaron" unicode="&#x10d;" horiz-adv-x="146" 
d="M46 294c-7 3 -12 30 -8 36c3 4 3 4 6 1c1 -2 3 -6 3 -9c0 -10 2 -16 5 -16c1 0 8 3 13 9c6 4 17 12 25 16c7 4 13 7 14 7c4 -1 0 -6 -9 -11c-6 -4 -16 -10 -21 -14c-15 -13 -25 -20 -28 -19zM-14 186c-21 -4 -32 4 -30 19c2 13 15 27 28 35c14 10 36 22 46 22
c6 0 6 -7 1 -15c-6 -8 -12 -9 -10 -1c1 6 -1 6 -11 1c-28 -15 -45 -32 -45 -46c0 -8 5 -12 22 -9c30 6 78 23 106 35s30 14 53 25c8 4 12 6 12 2c0 -1 -7 -5 -9 -6c-29 -14 -35 -17 -67 -31c-25 -10 -63 -24 -96 -31z" />
    <glyph glyph-name="Dcaron" unicode="&#x10e;" horiz-adv-x="1014" 
d="M1135 792c-9 3 -16 38 -10 46c4 5 4 5 7 1c2 -3 4 -8 4 -12c0 -13 2 -20 6 -20c2 0 10 4 17 11c8 6 22 15 31 21c9 5 17 9 19 8c5 -1 0 -7 -12 -14c-8 -4 -20 -12 -27 -17c-19 -17 -31 -25 -35 -24zM101 38c-43 -7 -65 2 -74 15c-17 25 -3 69 57 131
c40 40 131 116 208 169c52 35 105 69 158 102c112 69 227 136 346 192c27 12 51 23 53 25c8 7 8 24 8 34c0 13 -4 23 -14 32c-31 26 -76 22 -112 18c-32 -3 -63 -10 -94 -19c-61 -17 -119 -43 -176 -71c-104 -50 -205 -112 -281 -201c3 12 11 21 19 29
c102 110 240 179 381 230c47 17 95 32 145 39l20 2c32 2 67 1 95 -16c19 -11 28 -35 25 -57c-1 -10 -1 -13 2 -12l41 15c37 13 68 24 106 33c63 17 207 49 219 -51c3 -23 -4 -47 -13 -69c-17 -43 -45 -80 -74 -116c-78 -94 -176 -169 -280 -233c-80 -49 -168 -91 -258 -117
c-44 -12 -89 -19 -134 -19c-27 0 -85 -1 -93 34c-1 5 -2 10 -2 12l-26 -17c-56 -35 -67 -41 -114 -64c-46 -23 -86 -41 -138 -50zM429 131c87 -10 175 11 255 44c58 24 114 54 168 85c54 32 105 70 152 110c45 37 88 78 126 122c36 43 69 96 80 128c22 65 11 101 -36 113
c-36 9 -78 4 -115 -2c-38 -7 -76 -18 -112 -30l-60 -20c-3 -2 -24 -9 -26 -12l-6 -16c-19 -48 -59 -106 -125 -182c-85 -96 -192 -192 -292 -262c-46 -32 -47 -33 -49 -38c-10 -23 24 -38 40 -40zM74 43c40 0 75 10 143 42c50 24 70 35 123 68c36 22 39 25 40 31
c4 25 21 47 27 46c8 -1 0 -5 -9 -19c-7 -13 -11 -29 -8 -27c9 6 41 29 84 60c146 110 302 277 358 385c8 16 16 35 14 35l-34 -17l-70 -34c-53 -26 -106 -55 -158 -85l-122 -72c-16 -9 -13 -8 -83 -52c-39 -25 -74 -51 -112 -78c-52 -36 -102 -78 -145 -116
c-36 -32 -92 -91 -93 -128c-1 -26 8 -38 45 -39z" />
    <glyph glyph-name="dcaron" unicode="&#x10f;" horiz-adv-x="196" 
d="M361 423c5 2 6 2 8 -1c1 -3 -1 -6 -30 -28c-26 -19 -32 -23 -32 -19c1 2 49 45 54 48zM-13 88c-6 -2 -12 -3 -15 0c-19 19 69 98 99 125c88 79 93 82 129 118c1 1 -4 -1 -33 -20c-34 -22 -70 -44 -107 -63c-19 -10 -34 -20 -54 -30c-23 -11 -44 -25 -52 -12
c-3 5 2 11 6 16c16 20 52 40 63 35c7 -3 10 -10 8 -18c47 23 83 42 123 68l55 36l34 23c15 10 34 23 42 29c14 11 20 12 23 9c2 -2 0 -7 -5 -10c-11 -6 -34 -24 -47 -34c-91 -70 -100 -84 -231 -204c-50 -46 -43 -62 -37 -61c12 2 6 -5 -1 -7zM-38 206c2 -3 21 7 38 16
c14 7 26 16 25 23c-1 5 -8 8 -22 1c-20 -10 -46 -32 -41 -40z" />
    <glyph glyph-name="Dcroat" unicode="&#x110;" horiz-adv-x="1014" 
d="M1233 677c3 -23 -4 -47 -13 -69c-17 -43 -45 -80 -74 -116c-78 -94 -176 -169 -280 -233c-80 -49 -168 -91 -258 -117c-44 -12 -89 -19 -134 -19c-27 0 -85 -1 -93 34c-1 5 -2 10 -2 12l-26 -17c-56 -35 -67 -41 -114 -64c-46 -23 -86 -41 -138 -50c-43 -7 -65 2 -74 15
c-17 25 -3 69 57 131c40 40 131 116 208 169c52 35 105 69 158 102c112 69 227 136 346 192c27 12 51 23 53 25c8 7 8 24 8 34c0 13 -4 23 -14 32c-31 26 -76 22 -112 18c-32 -3 -63 -10 -94 -19c-61 -17 -119 -43 -176 -71c-104 -50 -205 -112 -281 -201c3 12 11 21 19 29
c102 110 240 179 381 230c47 17 95 32 145 39l20 2c32 2 67 1 95 -16c19 -11 28 -35 25 -57c-1 -10 -1 -13 2 -12l41 15c37 13 68 24 106 33c63 17 207 49 219 -51zM1210 620c22 65 11 101 -36 113c-36 9 -78 4 -115 -2c-38 -7 -76 -18 -112 -30l-60 -20
c-3 -2 -24 -9 -26 -12l-6 -16c-19 -48 -59 -106 -125 -182c-7 -8 -14 -16 -22 -24c65 0 124 -1 128 -4c4 -1 -3 -5 -7 -5c-32 -1 -83 -1 -131 -2c-79 -84 -172 -165 -260 -227c-46 -32 -47 -33 -49 -38c-10 -23 24 -38 40 -40c87 -10 175 11 255 44c58 24 114 54 168 85
c54 32 105 70 152 110c45 37 88 78 126 122c36 43 69 96 80 128zM380 184c4 25 21 47 27 46c8 -1 0 -5 -9 -19c-7 -13 -11 -29 -8 -27c9 6 41 29 84 60c73 55 148 124 212 192h-103c-24 0 -62 0 -62 3s3 4 7 6c9 1 91 2 168 2c60 66 109 131 136 182c8 16 16 35 14 35
l-34 -17l-70 -34c-53 -26 -106 -55 -158 -85l-122 -72c-16 -9 -13 -8 -83 -52c-39 -25 -74 -51 -112 -78c-52 -36 -102 -78 -145 -116c-36 -32 -92 -91 -93 -128c-1 -26 8 -38 45 -39c40 0 75 10 143 42c50 24 70 35 123 68c36 22 39 25 40 31z" />
    <glyph glyph-name="dcroat" unicode="&#x111;" horiz-adv-x="196" 
d="M308 404c2 -2 0 -7 -5 -10c-11 -6 -34 -24 -47 -34l-35 -27c13 -1 23 -2 24 -3s-1 -4 -2 -4c-8 0 -19 -1 -31 -1c-55 -44 -81 -72 -187 -169c-50 -46 -43 -62 -37 -61c12 2 6 -5 -1 -7c-6 -2 -12 -3 -15 0c-19 19 69 98 99 125c83 74 92 81 123 112h-5
c-5 -3 -12 -8 -22 -14c-34 -22 -70 -44 -107 -63c-19 -10 -34 -20 -54 -30c-23 -11 -44 -25 -52 -12c-3 5 2 11 6 16c16 20 52 40 63 35c7 -3 10 -10 8 -18c47 23 83 42 123 68c12 7 21 13 28 18h-10c-7 0 -18 0 -18 2s1 3 2 4c2 1 19 2 37 2c7 4 12 7 16 10l34 23
c15 10 34 23 42 29c14 11 20 12 23 9zM0 222c14 7 26 16 25 23c-1 5 -8 8 -22 1c-20 -10 -46 -32 -41 -40c2 -3 21 7 38 16z" />
    <glyph glyph-name="Emacron" unicode="&#x112;" horiz-adv-x="448" 
d="M575 793c-3 6 4 8 40 11c49 4 64 4 63 -5c-1 -5 -4 -4 -17 -3c-6 0 -17 1 -28 0c-54 -5 -57 -5 -58 -3zM37 87c-15 21 0 52 21 75c13 13 28 25 43 35l16 10l-9 2c-21 4 -38 12 -53 23c-37 27 -44 85 -26 132c29 77 111 158 171 204c46 36 88 66 132 92
c65 39 169 81 234 91c47 7 85 4 101 -23c18 -23 3 -59 -18 -87c-13 -18 -28 -33 -44 -48c-33 -30 -68 -58 -105 -83c-67 -41 -135 -83 -173 -79c-43 5 -20 59 6 91c39 49 84 82 138 114c12 7 25 13 28 5c1 -3 -6 -3 -13 -7c-54 -31 -74 -46 -97 -66c-37 -32 -63 -65 -75 -99
c-9 -26 8 -34 28 -32c44 8 114 50 157 80c40 28 79 59 115 92c17 16 32 35 44 55c11 19 18 41 4 60c-24 35 -80 25 -126 13c-38 -9 -124 -43 -171 -68c-37 -20 -77 -47 -111 -72c-75 -56 -145 -113 -195 -194c-19 -31 -34 -65 -32 -101c1 -32 19 -61 49 -75
c17 -8 31 -15 47 -15c0 0 1 0 10 5c22 13 35 19 52 27c28 14 85 35 109 39c13 2 41 4 46 -4c9 -15 -24 -34 -58 -46c-46 -16 -92 -26 -147 -26c-6 0 -10 -2 -21 -9c-7 -4 -14 -10 -21 -15c-29 -20 -55 -47 -55 -77c3 -20 15 -27 36 -27c24 -1 52 6 74 14c54 19 88 37 133 58
c47 22 126 75 176 104c4 2 5 0 6 -2c-65 -39 -133 -84 -206 -120c-62 -30 -84 -39 -126 -51c-39 -11 -80 -14 -94 5zM140 211l31 2c33 3 61 10 93 19c27 9 59 22 67 30c28 28 -38 21 -80 4l-28 -11c-18 -6 -74 -34 -89 -44h6z" />
    <glyph glyph-name="emacron" unicode="&#x113;" horiz-adv-x="129" 
d="M-23 303c-3 6 4 8 40 11c49 4 64 4 63 -5c-1 -5 -4 -4 -17 -3c-6 0 -17 1 -28 0c-54 -5 -57 -5 -58 -3zM-9 186c-29 -7 -46 -2 -39 23c3 10 18 24 42 38c29 17 44 21 46 13c3 -9 -5 -15 -37 -31c-17 -8 -25 -11 -34 -13c-7 -1 -13 -15 -11 -20c6 -13 42 -3 71 7
c30 10 77 35 92 43l15 8c2 1 8 2 7 0c-1 -3 -35 -21 -42 -25c-32 -17 -82 -37 -110 -43zM-26 223c1 0 23 9 30 13c15 8 26 15 27 17c1 4 -6 2 -23 -7c-17 -8 -39 -25 -34 -23z" />
    <glyph glyph-name="Ebreve" unicode="&#x114;" horiz-adv-x="556" 
d="M74 682c-14 0 -21 2 -25 10c-3 6 -4 17 -2 19c4 4 7 1 10 -8c5 -16 10 -17 44 -10c14 3 31 10 36 14c4 4 7 1 5 -4c-2 -7 -47 -21 -68 -21zM37 87c-15 21 0 52 21 75c13 13 28 25 43 35l16 10l-9 2c-21 4 -38 12 -53 23c-37 27 -44 85 -26 132c29 77 111 158 171 204
c46 36 88 66 132 92c65 39 169 81 234 91c47 7 85 4 101 -23c18 -23 3 -59 -18 -87c-13 -18 -28 -33 -44 -48c-33 -30 -68 -58 -105 -83c-67 -41 -135 -83 -173 -79c-43 5 -20 59 6 91c39 49 84 82 138 114c12 7 25 13 28 5c1 -3 -6 -3 -13 -7c-54 -31 -74 -46 -97 -66
c-37 -32 -63 -65 -75 -99c-9 -26 8 -34 28 -32c44 8 114 50 157 80c40 28 79 59 115 92c17 16 32 35 44 55c11 19 18 41 4 60c-24 35 -80 25 -126 13c-38 -9 -124 -43 -171 -68c-37 -20 -77 -47 -111 -72c-75 -56 -145 -113 -195 -194c-19 -31 -34 -65 -32 -101
c1 -32 19 -61 49 -75c17 -8 31 -15 47 -15c0 0 1 0 10 5c22 13 35 19 52 27c28 14 85 35 109 39c13 2 41 4 46 -4c9 -15 -24 -34 -58 -46c-46 -16 -92 -26 -147 -26c-6 0 -10 -2 -21 -9c-7 -4 -14 -10 -21 -15c-29 -20 -55 -47 -55 -77c3 -20 15 -27 36 -27
c24 -1 52 6 74 14c54 19 88 37 133 58c47 22 126 75 176 104c4 2 5 0 6 -2c-65 -39 -133 -84 -206 -120c-62 -30 -84 -39 -126 -51c-39 -11 -80 -14 -94 5zM140 211l31 2c33 3 61 10 93 19c27 9 59 22 67 30c28 28 -38 21 -80 4l-28 -11c-18 -6 -74 -34 -89 -44h6z" />
    <glyph glyph-name="ebreve" unicode="&#x115;" horiz-adv-x="563" 
d="M67 517c-14 0 -21 2 -25 10c-3 6 -4 17 -2 19c4 4 7 1 10 -8c5 -16 10 -17 44 -10c14 3 31 10 36 14c4 4 7 1 5 -4c-2 -7 -47 -21 -68 -21zM-9 186c-29 -7 -46 -2 -39 23c3 10 18 24 42 38c29 17 44 21 46 13c3 -9 -5 -15 -37 -31c-17 -8 -25 -11 -34 -13
c-7 -1 -13 -15 -11 -20c6 -13 42 -3 71 7c30 10 77 35 92 43l15 8c2 1 8 2 7 0c-1 -3 -35 -21 -42 -25c-32 -17 -82 -37 -110 -43zM-26 223c1 0 23 9 30 13c15 8 26 15 27 17c1 4 -6 2 -23 -7c-17 -8 -39 -25 -34 -23z" />
    <glyph glyph-name="Edotaccent" unicode="&#x116;" horiz-adv-x="448" 
d="M659 785c-10 0 -13 9 -10 16c3 6 13 6 17 1c5 -6 3 -17 -7 -17zM37 87c-15 21 0 52 21 75c13 13 28 25 43 35l16 10l-9 2c-21 4 -38 12 -53 23c-37 27 -44 85 -26 132c29 77 111 158 171 204c46 36 88 66 132 92c65 39 169 81 234 91c47 7 85 4 101 -23
c18 -23 3 -59 -18 -87c-13 -18 -28 -33 -44 -48c-33 -30 -68 -58 -105 -83c-67 -41 -135 -83 -173 -79c-43 5 -20 59 6 91c39 49 84 82 138 114c12 7 25 13 28 5c1 -3 -6 -3 -13 -7c-54 -31 -74 -46 -97 -66c-37 -32 -63 -65 -75 -99c-9 -26 8 -34 28 -32
c44 8 114 50 157 80c40 28 79 59 115 92c17 16 32 35 44 55c11 19 18 41 4 60c-24 35 -80 25 -126 13c-38 -9 -124 -43 -171 -68c-37 -20 -77 -47 -111 -72c-75 -56 -145 -113 -195 -194c-19 -31 -34 -65 -32 -101c1 -32 19 -61 49 -75c17 -8 31 -15 47 -15c0 0 1 0 10 5
c22 13 35 19 52 27c28 14 85 35 109 39c13 2 41 4 46 -4c9 -15 -24 -34 -58 -46c-46 -16 -92 -26 -147 -26c-6 0 -10 -2 -21 -9c-7 -4 -14 -10 -21 -15c-29 -20 -55 -47 -55 -77c3 -20 15 -27 36 -27c24 -1 52 6 74 14c54 19 88 37 133 58c47 22 126 75 176 104
c4 2 5 0 6 -2c-65 -39 -133 -84 -206 -120c-62 -30 -84 -39 -126 -51c-39 -11 -80 -14 -94 5zM140 211l31 2c33 3 61 10 93 19c27 9 59 22 67 30c28 28 -38 21 -80 4l-28 -11c-18 -6 -74 -34 -89 -44h6z" />
    <glyph glyph-name="edotaccent" unicode="&#x117;" horiz-adv-x="129" 
d="M69 273c-9 0 -11 7 -9 13c3 5 11 5 15 1c4 -5 2 -14 -6 -14zM-9 186c-29 -7 -46 -2 -39 23c3 10 18 24 42 38c29 17 44 21 46 13c3 -9 -5 -15 -37 -31c-17 -8 -25 -11 -34 -13c-7 -1 -13 -15 -11 -20c6 -13 42 -3 71 7c30 10 77 35 92 43l15 8c2 1 8 2 7 0
c-1 -3 -35 -21 -42 -25c-32 -17 -82 -37 -110 -43zM-26 223c1 0 23 9 30 13c15 8 26 15 27 17c1 4 -6 2 -23 -7c-17 -8 -39 -25 -34 -23z" />
    <glyph glyph-name="Eogonek" unicode="&#x118;" horiz-adv-x="448" 
d="M667 728c18 -23 3 -59 -18 -87c-13 -18 -28 -33 -44 -48c-33 -30 -68 -58 -105 -83c-67 -41 -135 -83 -173 -79c-43 5 -20 59 6 91c39 49 84 82 138 114c12 7 25 13 28 5c1 -3 -6 -3 -13 -7c-54 -31 -74 -46 -97 -66c-37 -32 -63 -65 -75 -99c-9 -26 8 -34 28 -32
c44 8 114 50 157 80c40 28 79 59 115 92c17 16 32 35 44 55c11 19 18 41 4 60c-24 35 -80 25 -126 13c-38 -9 -124 -43 -171 -68c-37 -20 -77 -47 -111 -72c-75 -56 -145 -113 -195 -194c-19 -31 -34 -65 -32 -101c1 -32 19 -61 49 -75c17 -8 31 -15 47 -15c0 0 1 0 10 5
c22 13 35 19 52 27c28 14 85 35 109 39c13 2 41 4 46 -4c9 -15 -24 -34 -58 -46c-46 -16 -92 -26 -147 -26c-6 0 -10 -2 -21 -9c-7 -4 -14 -10 -21 -15c-29 -20 -55 -47 -55 -77c3 -20 15 -27 36 -27c24 -1 52 6 74 14c54 19 88 37 133 58c47 22 126 75 176 104
c4 2 5 0 6 -2c-65 -39 -133 -84 -206 -120c-62 -30 -84 -39 -126 -51c-22 -6 -45 -10 -63 -8c-10 -4 -19 -10 -27 -23c-5 -11 -7 -19 -4 -25c3 -9 12 -12 8 -14c-8 -5 -23 5 -20 24c1 15 13 27 30 38c1 0 1 1 2 1c-9 2 -16 6 -20 12c-15 21 0 52 21 75c13 13 28 25 43 35
l16 10l-9 2c-21 4 -38 12 -53 23c-37 27 -44 85 -26 132c29 77 111 158 171 204c46 36 88 66 132 92c65 39 169 81 234 91c47 7 85 4 101 -23zM223 255c-18 -6 -74 -34 -89 -44h6l31 2c33 3 61 10 93 19c27 9 59 22 67 30c28 28 -38 21 -80 4z" />
    <glyph glyph-name="eogonek" unicode="&#x119;" horiz-adv-x="129" 
d="M136 254c2 1 8 2 7 0c-1 -3 -35 -21 -42 -25c-32 -17 -82 -37 -110 -43c-14 -3 -25 -4 -32 -1c-8 -3 -17 -9 -23 -21c-5 -9 -6 -16 -4 -22c3 -8 11 -11 8 -13c-8 -4 -21 5 -19 22c1 13 12 25 27 35l6 3c-4 4 -5 10 -2 20s18 24 42 38c29 17 44 21 46 13
c3 -9 -5 -15 -37 -31c-17 -8 -25 -11 -34 -13c-7 -1 -13 -15 -11 -20c6 -13 42 -3 71 7c30 10 77 35 92 43zM8 246c-17 -8 -39 -25 -34 -23c1 0 23 9 30 13c15 8 26 15 27 17c1 4 -6 2 -23 -7z" />
    <glyph glyph-name="Ecaron" unicode="&#x11a;" horiz-adv-x="448" 
d="M635 788c-9 3 -16 38 -10 46c4 5 4 5 7 1c2 -3 4 -8 4 -12c0 -13 2 -20 6 -20c2 0 10 4 17 11c8 6 22 15 31 21c9 5 17 9 19 8c5 -1 0 -7 -12 -14c-8 -4 -20 -12 -27 -17c-19 -17 -31 -25 -35 -24zM37 87c-15 21 0 52 21 75c13 13 28 25 43 35l16 10l-9 2
c-21 4 -38 12 -53 23c-37 27 -44 85 -26 132c29 77 111 158 171 204c46 36 88 66 132 92c65 39 169 81 234 91c47 7 85 4 101 -23c18 -23 3 -59 -18 -87c-13 -18 -28 -33 -44 -48c-33 -30 -68 -58 -105 -83c-67 -41 -135 -83 -173 -79c-43 5 -20 59 6 91
c39 49 84 82 138 114c12 7 25 13 28 5c1 -3 -6 -3 -13 -7c-54 -31 -74 -46 -97 -66c-37 -32 -63 -65 -75 -99c-9 -26 8 -34 28 -32c44 8 114 50 157 80c40 28 79 59 115 92c17 16 32 35 44 55c11 19 18 41 4 60c-24 35 -80 25 -126 13c-38 -9 -124 -43 -171 -68
c-37 -20 -77 -47 -111 -72c-75 -56 -145 -113 -195 -194c-19 -31 -34 -65 -32 -101c1 -32 19 -61 49 -75c17 -8 31 -15 47 -15c0 0 1 0 10 5c22 13 35 19 52 27c28 14 85 35 109 39c13 2 41 4 46 -4c9 -15 -24 -34 -58 -46c-46 -16 -92 -26 -147 -26c-6 0 -10 -2 -21 -9
c-7 -4 -14 -10 -21 -15c-29 -20 -55 -47 -55 -77c3 -20 15 -27 36 -27c24 -1 52 6 74 14c54 19 88 37 133 58c47 22 126 75 176 104c4 2 5 0 6 -2c-65 -39 -133 -84 -206 -120c-62 -30 -84 -39 -126 -51c-39 -11 -80 -14 -94 5zM140 211l31 2c33 3 61 10 93 19
c27 9 59 22 67 30c28 28 -38 21 -80 4l-28 -11c-18 -6 -74 -34 -89 -44h6z" />
    <glyph glyph-name="ecaron" unicode="&#x11b;" horiz-adv-x="129" 
d="M66 287c-6 2 -11 24 -7 29c3 3 3 3 5 0c1 -2 3 -5 3 -7c0 -8 1 -13 4 -13c1 0 7 3 12 7s15 10 22 13c6 3 12 6 13 5c3 0 0 -4 -9 -8l-19 -11c-13 -10 -21 -15 -24 -15zM-9 186c-29 -7 -46 -2 -39 23c3 10 18 24 42 38c29 17 44 21 46 13c3 -9 -5 -15 -37 -31
c-17 -8 -25 -11 -34 -13c-7 -1 -13 -15 -11 -20c6 -13 42 -3 71 7c30 10 77 35 92 43l15 8c2 1 8 2 7 0c-1 -3 -35 -21 -42 -25c-32 -17 -82 -37 -110 -43zM-26 223c1 0 23 9 30 13c15 8 26 15 27 17c1 4 -6 2 -23 -7c-17 -8 -39 -25 -34 -23z" />
    <glyph glyph-name="Gcircumflex" unicode="&#x11c;" horiz-adv-x="728" 
d="M244 698c-3 -3 -7 4 -11 14c-2 7 -4 12 -5 12c-4 0 -40 -18 -46 -22c-7 -7 -13 -8 -13 -3s7 9 41 25c26 12 29 12 31 2l3 -17c0 -6 1 -10 0 -11zM108 2c-10 3 -15 6 -15 7s2 1 4 0c9 -6 27 -3 37 -2c16 2 31 11 45 18c34 16 65 34 95 56c75 55 144 122 213 184
c18 17 37 34 56 50l48 41c-12 -7 -19 -12 -26 -15c-92 -45 -135 -63 -211 -97c-50 -22 -98 -40 -151 -54c-41 -10 -84 -19 -126 -13c-20 4 -38 9 -51 24c-23 32 -14 81 0 114c16 39 45 70 73 100c23 25 42 41 92 81c22 18 90 67 123 89c41 27 84 52 128 74
c57 28 113 56 174 73c55 17 125 31 179 3c18 -10 29 -25 29 -46c1 -75 -72 -134 -127 -174c-30 -21 -61 -41 -94 -58c-30 -17 -60 -34 -94 -43c-16 -5 -47 -8 -59 4c-13 14 -4 39 4 52c12 24 27 41 46 58c22 20 54 47 83 55c12 2 14 2 11 -2c-2 -2 -4 -3 -4 -3
c-1 0 -5 -1 -9 -4c-37 -25 -70 -48 -99 -80c-14 -15 -47 -53 -25 -75c4 -4 10 -5 16 -6c25 -1 48 8 70 18c24 10 49 24 72 37c44 25 87 55 126 88c36 33 70 72 77 121c2 12 1 25 -6 34c-19 32 -66 35 -99 35c-36 -1 -69 -10 -104 -20c-59 -20 -118 -47 -172 -77
c-108 -58 -212 -128 -303 -211c-74 -68 -113 -131 -115 -184c-2 -25 6 -47 19 -57c19 -15 59 -21 103 -15c19 2 37 6 55 11c63 15 123 40 181 66c61 27 122 53 180 85c53 27 60 31 74 41c44 31 57 41 68 48c13 9 33 19 44 22c7 2 10 3 12 0c5 -8 -40 -23 -44 -26
c-84 -50 -159 -116 -230 -180c-92 -83 -181 -175 -295 -228c-22 -11 -51 -27 -78 -19z" />
    <glyph glyph-name="gcircumflex" unicode="&#x11d;" horiz-adv-x="615" 
d="M128 533c-3 -3 -7 4 -11 14c-2 7 -4 12 -5 12c-4 0 -40 -18 -46 -22c-7 -7 -13 -8 -13 -3s7 9 41 25c26 12 29 12 31 2l3 -17c0 -6 1 -10 0 -11zM-552 -190c-9 -1 -18 0 -25 4c-11 5 -14 16 -13 27c1 10 9 18 15 25c13 15 29 27 46 38c39 25 81 47 123 67
c45 23 91 43 138 64c44 20 88 40 133 58c16 6 29 14 36 20c9 9 31 28 42 37l20 19l20 20c7 6 14 13 21 20l-4 -3c-39 -26 -53 -31 -56 -21c-4 16 26 50 60 68c19 10 29 6 31 -2c1 -4 -2 -12 -6 -17l8 8l27 26c3 3 18 19 22 12l1 -2c0 -4 -20 -22 -45 -47l-35 -36l-83 -76
c0 -1 65 27 100 44c49 24 65 33 96 51l65 39c5 3 5 1 6 1c2 -1 0 -3 -2 -4l-23 -14c-48 -29 -88 -52 -121 -68c-22 -11 -43 -21 -66 -31c-19 -8 -38 -17 -57 -25c-14 -6 -17 -9 -29 -20l-66 -57l-73 -58l-40 -29c-33 -25 -68 -48 -98 -66l-22 -13c-8 -5 -49 -28 -56 -31
c-15 -7 -30 -14 -45 -20c-15 -5 -30 -7 -45 -8zM-46 186c7 2 38 21 54 33c14 10 22 25 19 31s-15 1 -37 -15c-18 -12 -32 -27 -37 -38c-4 -9 -4 -12 1 -11zM-571 -182c9 -4 31 -3 50 2c37 10 97 41 161 83c36 23 114 81 141 104l25 21l36 31c21 19 23 20 38 35
c-10 -4 -37 -16 -50 -21c-46 -20 -93 -40 -139 -61l-29 -14l-20 -9c-20 -9 -37 -17 -54 -26l-21 -11c-6 -2 -73 -39 -83 -46c-27 -17 -46 -33 -55 -47c-9 -12 -11 -15 -12 -23c-1 -7 4 -14 12 -18z" />
    <glyph glyph-name="Gbreve" unicode="&#x11e;" horiz-adv-x="582" 
d="M824 792c-14 0 -21 2 -25 10c-3 6 -4 17 -2 19c4 4 7 1 10 -8c5 -16 10 -17 44 -10c14 3 31 10 36 14c4 4 7 1 5 -4c-2 -7 -47 -21 -68 -21zM108 2c-10 3 -15 6 -15 7s2 1 4 0c9 -6 27 -3 37 -2c16 2 31 11 45 18c34 16 65 34 95 56c75 55 144 122 213 184
c18 17 37 34 56 50l48 41c-12 -7 -19 -12 -26 -15c-92 -45 -135 -63 -211 -97c-50 -22 -98 -40 -151 -54c-41 -10 -84 -19 -126 -13c-20 4 -38 9 -51 24c-23 32 -14 81 0 114c16 39 45 70 73 100c23 25 42 41 92 81c22 18 90 67 123 89c41 27 84 52 128 74
c57 28 113 56 174 73c55 17 125 31 179 3c18 -10 29 -25 29 -46c1 -75 -72 -134 -127 -174c-30 -21 -61 -41 -94 -58c-30 -17 -60 -34 -94 -43c-16 -5 -47 -8 -59 4c-13 14 -4 39 4 52c12 24 27 41 46 58c22 20 54 47 83 55c12 2 14 2 11 -2c-2 -2 -4 -3 -4 -3
c-1 0 -5 -1 -9 -4c-37 -25 -70 -48 -99 -80c-14 -15 -47 -53 -25 -75c4 -4 10 -5 16 -6c25 -1 48 8 70 18c24 10 49 24 72 37c44 25 87 55 126 88c36 33 70 72 77 121c2 12 1 25 -6 34c-19 32 -66 35 -99 35c-36 -1 -69 -10 -104 -20c-59 -20 -118 -47 -172 -77
c-108 -58 -212 -128 -303 -211c-74 -68 -113 -131 -115 -184c-2 -25 6 -47 19 -57c19 -15 59 -21 103 -15c19 2 37 6 55 11c63 15 123 40 181 66c61 27 122 53 180 85c53 27 60 31 74 41c44 31 57 41 68 48c13 9 33 19 44 22c7 2 10 3 12 0c5 -8 -40 -23 -44 -26
c-84 -50 -159 -116 -230 -180c-92 -83 -181 -175 -295 -228c-22 -11 -51 -27 -78 -19z" />
    <glyph glyph-name="gbreve" unicode="&#x11f;" 
d="M74 319c-14 0 -21 2 -25 10c-3 6 -4 17 -2 19c4 4 7 1 10 -8c5 -16 10 -17 44 -10c14 3 31 10 36 14c4 4 7 1 5 -4c-2 -7 -47 -21 -68 -21zM-552 -190c-9 -1 -18 0 -25 4c-11 5 -14 16 -13 27c1 10 9 18 15 25c13 15 29 27 46 38c39 25 81 47 123 67c45 23 91 43 138 64
c44 20 88 40 133 58c16 6 29 14 36 20c9 9 31 28 42 37l20 19l20 20c7 6 14 13 21 20l-4 -3c-39 -26 -53 -31 -56 -21c-4 16 26 50 60 68c19 10 29 6 31 -2c1 -4 -2 -12 -6 -17l8 8l27 26c3 3 18 19 22 12l1 -2c0 -4 -20 -22 -45 -47l-35 -36l-83 -76c0 -1 65 27 100 44
c49 24 65 33 96 51l65 39c5 3 5 1 6 1c2 -1 0 -3 -2 -4l-23 -14c-48 -29 -88 -52 -121 -68c-22 -11 -43 -21 -66 -31c-19 -8 -38 -17 -57 -25c-14 -6 -17 -9 -29 -20l-66 -57l-73 -58l-40 -29c-33 -25 -68 -48 -98 -66l-22 -13c-8 -5 -49 -28 -56 -31
c-15 -7 -30 -14 -45 -20c-15 -5 -30 -7 -45 -8zM-46 186c7 2 38 21 54 33c14 10 22 25 19 31s-15 1 -37 -15c-18 -12 -32 -27 -37 -38c-4 -9 -4 -12 1 -11zM-571 -182c9 -4 31 -3 50 2c37 10 97 41 161 83c36 23 114 81 141 104l25 21l36 31c21 19 23 20 38 35
c-10 -4 -37 -16 -50 -21c-46 -20 -93 -40 -139 -61l-29 -14l-20 -9c-20 -9 -37 -17 -54 -26l-21 -11c-6 -2 -73 -39 -83 -46c-27 -17 -46 -33 -55 -47c-9 -12 -11 -15 -12 -23c-1 -7 4 -14 12 -18z" />
    <glyph glyph-name="Gdotaccent" unicode="&#x120;" horiz-adv-x="582" 
d="M831 769c-10 0 -13 9 -10 16c3 6 13 6 17 1c5 -6 3 -17 -7 -17zM108 2c-10 3 -15 6 -15 7s2 1 4 0c9 -6 27 -3 37 -2c16 2 31 11 45 18c34 16 65 34 95 56c75 55 144 122 213 184c18 17 37 34 56 50l48 41c-12 -7 -19 -12 -26 -15c-92 -45 -135 -63 -211 -97
c-50 -22 -98 -40 -151 -54c-41 -10 -84 -19 -126 -13c-20 4 -38 9 -51 24c-23 32 -14 81 0 114c16 39 45 70 73 100c23 25 42 41 92 81c22 18 90 67 123 89c41 27 84 52 128 74c57 28 113 56 174 73c55 17 125 31 179 3c18 -10 29 -25 29 -46c1 -75 -72 -134 -127 -174
c-30 -21 -61 -41 -94 -58c-30 -17 -60 -34 -94 -43c-16 -5 -47 -8 -59 4c-13 14 -4 39 4 52c12 24 27 41 46 58c22 20 54 47 83 55c12 2 14 2 11 -2c-2 -2 -4 -3 -4 -3c-1 0 -5 -1 -9 -4c-37 -25 -70 -48 -99 -80c-14 -15 -47 -53 -25 -75c4 -4 10 -5 16 -6
c25 -1 48 8 70 18c24 10 49 24 72 37c44 25 87 55 126 88c36 33 70 72 77 121c2 12 1 25 -6 34c-19 32 -66 35 -99 35c-36 -1 -69 -10 -104 -20c-59 -20 -118 -47 -172 -77c-108 -58 -212 -128 -303 -211c-74 -68 -113 -131 -115 -184c-2 -25 6 -47 19 -57
c19 -15 59 -21 103 -15c19 2 37 6 55 11c63 15 123 40 181 66c61 27 122 53 180 85c53 27 60 31 74 41c44 31 57 41 68 48c13 9 33 19 44 22c7 2 10 3 12 0c5 -8 -40 -23 -44 -26c-84 -50 -159 -116 -230 -180c-92 -83 -181 -175 -295 -228c-22 -11 -51 -27 -78 -19z" />
    <glyph glyph-name="gdotaccent" unicode="&#x121;" 
d="M75 311c-6 0 -8 6 -6 10s8 4 11 1c3 -4 2 -11 -5 -11zM-552 -190c-9 -1 -18 0 -25 4c-11 5 -14 16 -13 27c1 10 9 18 15 25c13 15 29 27 46 38c39 25 81 47 123 67c45 23 91 43 138 64c44 20 88 40 133 58c16 6 29 14 36 20c9 9 31 28 42 37l20 19l20 20c7 6 14 13 21 20
l-4 -3c-39 -26 -53 -31 -56 -21c-4 16 26 50 60 68c19 10 29 6 31 -2c1 -4 -2 -12 -6 -17l8 8l27 26c3 3 18 19 22 12l1 -2c0 -4 -20 -22 -45 -47l-35 -36l-83 -76c0 -1 65 27 100 44c49 24 65 33 96 51l65 39c5 3 5 1 6 1c2 -1 0 -3 -2 -4l-23 -14
c-48 -29 -88 -52 -121 -68c-22 -11 -43 -21 -66 -31c-19 -8 -38 -17 -57 -25c-14 -6 -17 -9 -29 -20l-66 -57l-73 -58l-40 -29c-33 -25 -68 -48 -98 -66l-22 -13c-8 -5 -49 -28 -56 -31c-15 -7 -30 -14 -45 -20c-15 -5 -30 -7 -45 -8zM-46 186c7 2 38 21 54 33
c14 10 22 25 19 31s-15 1 -37 -15c-18 -12 -32 -27 -37 -38c-4 -9 -4 -12 1 -11zM-571 -182c9 -4 31 -3 50 2c37 10 97 41 161 83c36 23 114 81 141 104l25 21l36 31c21 19 23 20 38 35c-10 -4 -37 -16 -50 -21c-46 -20 -93 -40 -139 -61l-29 -14l-20 -9
c-20 -9 -37 -17 -54 -26l-21 -11c-6 -2 -73 -39 -83 -46c-27 -17 -46 -33 -55 -47c-9 -12 -11 -15 -12 -23c-1 -7 4 -14 12 -18z" />
    <glyph glyph-name="Gcommaaccent" unicode="&#x122;" horiz-adv-x="582" 
d="M108 2c-10 3 -15 6 -15 7s2 1 4 0c9 -6 27 -3 37 -2c16 2 31 11 45 18c34 16 65 34 95 56c75 55 144 122 213 184c18 17 37 34 56 50l48 41c-12 -7 -19 -12 -26 -15c-92 -45 -135 -63 -211 -97c-50 -22 -98 -40 -151 -54c-41 -10 -84 -19 -126 -13c-20 4 -38 9 -51 24
c-23 32 -14 81 0 114c16 39 45 70 73 100c23 25 42 41 92 81c22 18 90 67 123 89c41 27 84 52 128 74c57 28 113 56 174 73c55 17 125 31 179 3c18 -10 29 -25 29 -46c1 -75 -72 -134 -127 -174c-30 -21 -61 -41 -94 -58c-30 -17 -60 -34 -94 -43c-16 -5 -47 -8 -59 4
c-13 14 -4 39 4 52c12 24 27 41 46 58c22 20 54 47 83 55c12 2 14 2 11 -2c-2 -2 -4 -3 -4 -3c-1 0 -5 -1 -9 -4c-37 -25 -70 -48 -99 -80c-14 -15 -47 -53 -25 -75c4 -4 10 -5 16 -6c25 -1 48 8 70 18c24 10 49 24 72 37c44 25 87 55 126 88c36 33 70 72 77 121
c2 12 1 25 -6 34c-19 32 -66 35 -99 35c-36 -1 -69 -10 -104 -20c-59 -20 -118 -47 -172 -77c-108 -58 -212 -128 -303 -211c-74 -68 -113 -131 -115 -184c-2 -25 6 -47 19 -57c19 -15 59 -21 103 -15c19 2 37 6 55 11c63 15 123 40 181 66c61 27 122 53 180 85
c53 27 60 31 74 41c44 31 57 41 68 48c13 9 33 19 44 22c7 2 10 3 12 0c5 -8 -40 -23 -44 -26c-84 -50 -159 -116 -230 -180c-92 -83 -181 -175 -295 -228c-22 -11 -51 -27 -78 -19zM13 5c-2 0 -2 1 8 12l19 23c7 9 13 17 15 17c5 3 9 -3 6 -8c-2 -5 -46 -44 -48 -44z" />
    <glyph glyph-name="gcommaaccent" unicode="&#x123;" 
d="M104 346c5 2 6 2 8 -1c1 -3 -1 -6 -30 -28c-26 -19 -32 -23 -32 -19c1 2 49 45 54 48zM-552 -190c-9 -1 -18 0 -25 4c-11 5 -14 16 -13 27c1 10 9 18 15 25c13 15 29 27 46 38c39 25 81 47 123 67c45 23 91 43 138 64c44 20 88 40 133 58c16 6 29 14 36 20
c9 9 31 28 42 37l20 19l20 20c7 6 14 13 21 20l-4 -3c-39 -26 -53 -31 -56 -21c-4 16 26 50 60 68c19 10 29 6 31 -2c1 -4 -2 -12 -6 -17l8 8l27 26c3 3 18 19 22 12l1 -2c0 -4 -20 -22 -45 -47l-35 -36l-83 -76c0 -1 65 27 100 44c49 24 65 33 96 51l65 39c5 3 5 1 6 1
c2 -1 0 -3 -2 -4l-23 -14c-48 -29 -88 -52 -121 -68c-22 -11 -43 -21 -66 -31c-19 -8 -38 -17 -57 -25c-14 -6 -17 -9 -29 -20l-66 -57l-73 -58l-40 -29c-33 -25 -68 -48 -98 -66l-22 -13c-8 -5 -49 -28 -56 -31c-15 -7 -30 -14 -45 -20c-15 -5 -30 -7 -45 -8zM-46 186
c7 2 38 21 54 33c14 10 22 25 19 31s-15 1 -37 -15c-18 -12 -32 -27 -37 -38c-4 -9 -4 -12 1 -11zM-571 -182c9 -4 31 -3 50 2c37 10 97 41 161 83c36 23 114 81 141 104l25 21l36 31c21 19 23 20 38 35c-10 -4 -37 -16 -50 -21c-46 -20 -93 -40 -139 -61l-29 -14l-20 -9
c-20 -9 -37 -17 -54 -26l-21 -11c-6 -2 -73 -39 -83 -46c-27 -17 -46 -33 -55 -47c-9 -12 -11 -15 -12 -23c-1 -7 4 -14 12 -18z" />
    <glyph glyph-name="Hcircumflex" unicode="&#x124;" horiz-adv-x="741" 
d="M196 698c-3 -3 -7 4 -11 14c-2 7 -4 12 -5 12c-4 0 -40 -18 -46 -22c-7 -7 -13 -8 -13 -3s7 9 41 25c26 12 29 12 31 2l3 -17c0 -6 1 -10 0 -11zM100 -35c-37 0 -84 10 -101 32c0 2 2 2 4 0c32 -23 69 -26 107 -26c28 0 55 2 84 5c94 12 186 43 273 82
c73 32 145 73 210 119l25 18c10 6 32 22 43 30c0 0 -22 -7 -74 -19c-85 -21 -172 -38 -257 -65c-12 -4 -24 -6 -28 -7c-2 -1 -3 -1 -5 -1c5 8 32 13 41 17c95 28 193 46 288 70c40 11 45 13 89 51c111 93 184 182 201 242c9 33 0 62 -34 74c-40 15 -86 13 -128 9
c-44 -3 -87 -11 -130 -20c-96 -22 -191 -49 -284 -83c-115 -43 -244 -104 -330 -162c-30 -22 -65 -50 -74 -67c-4 -7 -5 -8 -6 -4c-1 3 1 8 3 12c7 11 46 45 72 62c24 16 93 57 114 67c45 24 123 60 179 82c72 28 140 50 241 78c48 12 97 24 146 32c95 16 193 22 230 -21
c40 -48 -14 -129 -61 -182c-35 -38 -54 -57 -100 -98c-31 -27 -61 -55 -59 -54c12 3 31 10 48 16c59 18 69 22 84 28c0 0 33 35 61 57c56 42 111 73 135 69c31 -5 -24 -46 -71 -71c-33 -18 -46 -24 -106 -54c0 0 -10 -5 -42 -47c-15 -18 -43 -66 -29 -82c7 -8 -5 -10 -10 2
c-9 22 23 85 57 119c1 1 -17 -7 -35 -12c-16 -5 -21 -8 -46 -15c-52 -16 -61 -20 -83 -38c-40 -29 -88 -60 -130 -85c-82 -49 -166 -89 -256 -119c-84 -27 -168 -44 -256 -41zM933 290c-4 -4 111 55 146 79c39 30 37 43 0 26c-27 -11 -107 -56 -146 -105z" />
    <glyph glyph-name="hcircumflex" unicode="&#x125;" horiz-adv-x="618" 
d="M139 725c-3 -3 -7 4 -11 14c-2 7 -4 12 -5 12c-4 0 -40 -18 -46 -22c-7 -7 -13 -8 -13 -3s7 9 41 25c26 12 29 12 31 2l3 -17c0 -6 1 -10 0 -11zM-62 147c-9 -4 -14 -3 -18 1c-3 4 -8 7 -2 17c6 9 25 35 52 60c17 17 59 49 110 88c81 59 162 117 198 138
c56 36 93 58 108 63c5 2 16 4 17 2c0 -1 -5 -4 -14 -10l-29 -15c-24 -14 -38 -23 -50 -31s-127 -78 -299 -216c-38 -29 -50 -44 -64 -62c-7 -8 -15 -21 -13 -21c1 0 12 8 19 13c26 17 76 45 119 65c25 11 34 14 53 20c12 4 16 2 17 0c4 -3 2 -6 -10 -19
c-26 -24 -31 -50 -13 -53c14 -2 41 11 55 20c55 34 59 37 74 47c3 2 8 0 6 -2l-19 -12c-62 -40 -89 -58 -114 -58c-10 0 -18 6 -19 17c-1 17 7 27 18 39c7 8 13 14 12 15c0 1 -13 -3 -32 -10c-15 -5 -61 -27 -78 -36c-20 -11 -40 -22 -58 -34c-8 -5 -17 -10 -23 -17
c-2 -3 -2 -3 1 -3c5 0 3 -3 -4 -6z" />
    <glyph glyph-name="Hbar" unicode="&#x126;" horiz-adv-x="1005" 
d="M1107 408c31 -5 -24 -46 -71 -71c-1 0 -1 -1 -2 -1h6c6 0 8 -3 9 -5c1 -3 0 -3 -2 -2s-14 0 -26 0c-23 -13 -41 -21 -91 -46c0 0 -10 -5 -42 -47c-15 -18 -43 -66 -29 -82c7 -8 -5 -10 -10 2c-9 22 23 85 57 119c1 1 -17 -7 -35 -12c-16 -5 -21 -8 -46 -15
c-52 -16 -61 -20 -83 -38c-40 -29 -88 -60 -130 -85c-82 -49 -166 -89 -256 -119c-84 -27 -168 -44 -256 -41c-37 0 -84 10 -101 32c0 2 2 2 4 0c32 -23 69 -26 107 -26c28 0 55 2 84 5c94 12 186 43 273 82c73 32 145 73 210 119l25 18c10 6 32 22 43 30
c0 0 -22 -7 -74 -19c-85 -21 -172 -38 -257 -65c-12 -4 -24 -6 -28 -7c-2 -1 -3 -1 -5 -1c5 8 32 13 41 17c95 28 193 46 288 70c40 11 45 13 89 51c21 18 41 35 59 53c-20 -2 -36 -2 -41 -3c-4 0 -6 4 -6 5c0 3 6 3 34 4c6 0 13 0 21 1c73 70 121 135 134 182
c9 33 0 62 -34 74c-40 15 -86 13 -128 9c-44 -3 -87 -11 -130 -20c-96 -22 -191 -49 -284 -83c-115 -43 -244 -104 -330 -162c-30 -22 -65 -50 -74 -67c-4 -7 -5 -8 -6 -4c-1 3 1 8 3 12c7 11 46 45 72 62c24 16 93 57 114 67c45 24 123 60 179 82c72 28 140 50 241 78
c48 12 97 24 146 32c95 16 193 22 230 -21c40 -48 -14 -129 -61 -182c-22 -24 -37 -40 -57 -59l85 3c2 2 4 4 6 5c56 42 111 73 135 69zM980 335c15 0 30 1 43 1c23 12 44 25 56 33c39 30 37 43 0 26c-18 -7 -61 -31 -99 -60zM933 290c-2 -2 37 17 77 39c-10 0 -23 0 -38 -1
c-15 -12 -29 -25 -39 -38zM911 282c0 0 23 25 47 46l-85 -4c-10 -9 -21 -20 -35 -32c-31 -27 -61 -55 -59 -54c12 3 31 10 48 16c59 18 69 22 84 28z" />
    <glyph glyph-name="hbar" unicode="&#x127;" horiz-adv-x="241" 
d="M386 514c5 2 16 4 17 2c0 -1 -5 -4 -14 -10l-29 -15c-24 -14 -38 -23 -50 -31c-8 -5 -61 -37 -145 -98c16 -1 29 -1 30 -3c1 -1 -1 -4 -2 -4c-9 0 -24 -1 -38 -1c-42 -30 -90 -67 -144 -110c-38 -29 -50 -44 -64 -62c-7 -8 -15 -21 -13 -21c1 0 12 8 19 13
c26 17 76 45 119 65c25 11 34 14 53 20c12 4 16 2 17 0c4 -3 2 -6 -10 -19c-26 -24 -31 -50 -13 -53c14 -2 41 11 55 20c55 34 59 37 74 47c3 2 8 0 6 -2l-19 -12c-62 -40 -89 -58 -114 -58c-10 0 -18 6 -19 17c-1 17 7 27 18 39c7 8 13 14 12 15c0 1 -13 -3 -32 -10
c-15 -5 -61 -27 -78 -36c-20 -11 -40 -22 -58 -34c-8 -5 -17 -10 -23 -17c-2 -3 -2 -3 1 -3c5 0 3 -3 -4 -6c-9 -4 -14 -3 -18 1c-3 4 -8 7 -2 17c6 9 25 35 52 60c17 17 59 49 110 88c19 14 38 28 57 41h-15c-7 0 -18 0 -18 2s1 3 2 4c2 1 21 2 41 2c56 40 105 74 131 89
c56 36 93 58 108 63z" />
    <glyph glyph-name="Itilde" unicode="&#x128;" horiz-adv-x="338" 
d="M-32 720c-9 9 -17 9 -26 2c-8 -6 -12 -11 -16 -11c-13 0 -5 11 13 19c12 7 21 6 31 -2c25 -19 40 -16 55 -8c9 6 18 7 14 2c-13 -19 -48 -25 -71 -2zM87 48c-18 0 -37 2 -52 10c-11 7 -20 15 -23 26c-5 15 3 33 15 44c-6 -12 -13 -25 -10 -38c1 -11 9 -20 19 -26
c10 -5 21 -6 32 -8c39 -3 77 5 115 15c94 23 183 78 262 133c97 67 181 149 258 237c26 30 63 81 84 115c37 61 51 112 37 137c-17 28 -72 20 -98 15c-117 -20 -226 -88 -315 -150c-45 -33 -90 -66 -125 -110c-1 10 7 19 13 26c37 36 77 67 120 96c49 34 98 65 152 91
s121 52 182 56c9 1 16 1 25 0c21 0 46 -7 55 -29c10 -18 6 -41 1 -61c-21 -72 -98 -176 -216 -290c-24 -24 -49 -48 -75 -70c-94 -78 -198 -145 -313 -189c-45 -17 -94 -28 -143 -30z" />
    <glyph glyph-name="itilde" unicode="&#x129;" horiz-adv-x="257" 
d="M-72 555c-9 9 -17 9 -26 2c-8 -6 -12 -11 -16 -11c-13 0 -5 11 13 19c12 7 21 6 31 -2c25 -19 40 -16 55 -8c9 6 18 7 14 2c-13 -19 -48 -25 -71 -2zM-43 186c-11 2 -7 17 -3 25c8 15 34 39 53 45c3 1 8 1 8 -3s-7 -6 -10 -8c-25 -14 -49 -38 -46 -48c4 -11 40 0 74 11
c32 10 53 19 111 42l11 5c5 2 10 2 7 -2c0 0 -3 -2 -8 -4c-58 -23 -60 -26 -121 -47c-12 -4 -41 -13 -53 -15c-5 -1 -18 -2 -23 -1z" />
    <glyph glyph-name="Imacron" unicode="&#x12a;" horiz-adv-x="638" 
d="M745 764c-3 6 4 8 40 11c49 4 64 4 63 -5c-1 -5 -4 -4 -17 -3c-6 0 -17 1 -28 0c-54 -5 -57 -5 -58 -3zM87 48c-18 0 -37 2 -52 10c-11 7 -20 15 -23 26c-5 15 3 33 15 44c-6 -12 -13 -25 -10 -38c1 -11 9 -20 19 -26c10 -5 21 -6 32 -8c39 -3 77 5 115 15
c94 23 183 78 262 133c97 67 181 149 258 237c26 30 63 81 84 115c37 61 51 112 37 137c-17 28 -72 20 -98 15c-117 -20 -226 -88 -315 -150c-45 -33 -90 -66 -125 -110c-1 10 7 19 13 26c37 36 77 67 120 96c49 34 98 65 152 91s121 52 182 56c9 1 16 1 25 0
c21 0 46 -7 55 -29c10 -18 6 -41 1 -61c-21 -72 -98 -176 -216 -290c-24 -24 -49 -48 -75 -70c-94 -78 -198 -145 -313 -189c-45 -17 -94 -28 -143 -30z" />
    <glyph glyph-name="imacron" unicode="&#x12b;" horiz-adv-x="149" 
d="M10 291c-3 5 3 6 28 8c36 3 46 3 46 -3c-1 -4 -3 -3 -13 -3c-4 0 -12 1 -20 0c-38 -3 -41 -3 -41 -2zM-43 186c-11 2 -7 17 -3 25c8 15 34 39 53 45c3 1 8 1 8 -3s-7 -6 -10 -8c-25 -14 -49 -38 -46 -48c4 -11 40 0 74 11c32 10 53 19 111 42l11 5c5 2 10 2 7 -2
c0 0 -3 -2 -8 -4c-58 -23 -60 -26 -121 -47c-12 -4 -41 -13 -53 -15c-5 -1 -18 -2 -23 -1z" />
    <glyph glyph-name="Ibreve" unicode="&#x12c;" horiz-adv-x="338" 
d="M-57 682c-14 0 -21 2 -25 10c-3 6 -4 17 -2 19c4 4 7 1 10 -8c5 -16 10 -17 44 -10c14 3 31 10 36 14c4 4 7 1 5 -4c-2 -7 -47 -21 -68 -21zM87 48c-18 0 -37 2 -52 10c-11 7 -20 15 -23 26c-5 15 3 33 15 44c-6 -12 -13 -25 -10 -38c1 -11 9 -20 19 -26
c10 -5 21 -6 32 -8c39 -3 77 5 115 15c94 23 183 78 262 133c97 67 181 149 258 237c26 30 63 81 84 115c37 61 51 112 37 137c-17 28 -72 20 -98 15c-117 -20 -226 -88 -315 -150c-45 -33 -90 -66 -125 -110c-1 10 7 19 13 26c37 36 77 67 120 96c49 34 98 65 152 91
s121 52 182 56c9 1 16 1 25 0c21 0 46 -7 55 -29c10 -18 6 -41 1 -61c-21 -72 -98 -176 -216 -290c-24 -24 -49 -48 -75 -70c-94 -78 -198 -145 -313 -189c-45 -17 -94 -28 -143 -30z" />
    <glyph glyph-name="ibreve" unicode="&#x12d;" horiz-adv-x="257" 
d="M-99 517c-14 0 -21 2 -25 10c-3 6 -4 17 -2 19c4 4 7 1 10 -8c5 -16 10 -17 44 -10c14 3 31 10 36 14c4 4 7 1 5 -4c-2 -7 -47 -21 -68 -21zM-43 186c-11 2 -7 17 -3 25c8 15 34 39 53 45c3 1 8 1 8 -3s-7 -6 -10 -8c-25 -14 -49 -38 -46 -48c4 -11 40 0 74 11
c32 10 53 19 111 42l11 5c5 2 10 2 7 -2c0 0 -3 -2 -8 -4c-58 -23 -60 -26 -121 -47c-12 -4 -41 -13 -53 -15c-5 -1 -18 -2 -23 -1z" />
    <glyph glyph-name="Iogonek" unicode="&#x12e;" horiz-adv-x="638" 
d="M833 688c10 -18 6 -41 1 -61c-21 -72 -98 -176 -216 -290c-24 -24 -49 -48 -75 -70c-94 -78 -198 -145 -313 -189c-45 -17 -94 -28 -143 -30c-6 0 -12 0 -19 1c0 0 -1 -1 -2 -1c-12 -4 -25 -12 -35 -30c-7 -13 -9 -23 -6 -31c4 -11 16 -15 11 -18c-11 -6 -29 7 -26 31
c2 18 17 34 38 48l6 3c-7 2 -13 4 -19 7c-11 7 -20 15 -23 26c-5 15 3 33 15 44c-6 -12 -13 -25 -10 -38c1 -11 9 -20 19 -26c10 -5 21 -6 32 -8c39 -3 77 5 115 15c94 23 183 78 262 133c97 67 181 149 258 237c26 30 63 81 84 115c37 61 51 112 37 137
c-17 28 -72 20 -98 15c-117 -20 -226 -88 -315 -150c-45 -33 -90 -66 -125 -110c-1 10 7 19 13 26c37 36 77 67 120 96c49 34 98 65 152 91s121 52 182 56c9 1 16 1 25 0c21 0 46 -7 55 -29z" />
    <glyph glyph-name="iogonek" unicode="&#x12f;" horiz-adv-x="149" 
d="M64 281c-7 0 -9 6 -7 11c2 4 9 4 12 1c4 -5 2 -12 -5 -12zM155 255c5 2 10 2 7 -2c0 0 -3 -2 -8 -4c-58 -23 -60 -26 -121 -47c-12 -4 -41 -13 -53 -15c-1 0 -3 -1 -5 -1c-5 -2 -10 -6 -14 -13c-3 -7 -4 -12 -3 -16c2 -6 8 -8 6 -9c-6 -3 -15 3 -13 15c1 9 7 16 16 23
h-10c-11 2 -7 17 -3 25c8 15 34 39 53 45c3 1 8 1 8 -3s-7 -6 -10 -8c-25 -14 -49 -38 -46 -48c4 -11 40 0 74 11c32 10 53 19 111 42z" />
    <glyph glyph-name="Idotaccent" unicode="&#x130;" horiz-adv-x="638" 
d="M814 756c-10 0 -13 9 -10 16c3 6 13 6 17 1c5 -6 3 -17 -7 -17zM87 48c-18 0 -37 2 -52 10c-11 7 -20 15 -23 26c-5 15 3 33 15 44c-6 -12 -13 -25 -10 -38c1 -11 9 -20 19 -26c10 -5 21 -6 32 -8c39 -3 77 5 115 15c94 23 183 78 262 133c97 67 181 149 258 237
c26 30 63 81 84 115c37 61 51 112 37 137c-17 28 -72 20 -98 15c-117 -20 -226 -88 -315 -150c-45 -33 -90 -66 -125 -110c-1 10 7 19 13 26c37 36 77 67 120 96c49 34 98 65 152 91s121 52 182 56c9 1 16 1 25 0c21 0 46 -7 55 -29c10 -18 6 -41 1 -61
c-21 -72 -98 -176 -216 -290c-24 -24 -49 -48 -75 -70c-94 -78 -198 -145 -313 -189c-45 -17 -94 -28 -143 -30z" />
    <glyph glyph-name="dotlessi" unicode="&#x131;" horiz-adv-x="149" 
d="M-43 186c-11 2 -7 17 -3 25c8 15 34 39 53 45c3 1 8 1 8 -3s-7 -6 -10 -8c-25 -14 -49 -38 -46 -48c4 -11 40 0 74 11c32 10 53 19 111 42l11 5c5 2 10 2 7 -2c0 0 -3 -2 -8 -4c-58 -23 -60 -26 -121 -47c-12 -4 -41 -13 -53 -15c-5 -1 -18 -2 -23 -1z" />
    <glyph glyph-name="IJ" unicode="&#x132;" horiz-adv-x="611" 
d="M87 48c-18 0 -37 2 -52 10c-11 7 -20 15 -23 26c-5 15 3 33 15 44c-6 -12 -13 -25 -10 -38c1 -11 9 -20 19 -26c10 -5 21 -6 32 -8c39 -3 77 5 115 15c94 23 183 78 262 133c97 67 181 149 258 237c26 30 63 81 84 115c37 61 51 112 37 137c-17 28 -72 20 -98 15
c-117 -20 -226 -88 -315 -150c-45 -33 -90 -66 -125 -110c-1 10 7 19 13 26c37 36 77 67 120 96c49 34 98 65 152 91s121 52 182 56c9 1 16 1 25 0c21 0 46 -7 55 -29c10 -18 6 -41 1 -61c-21 -72 -98 -176 -216 -290c-24 -24 -49 -48 -75 -70c-94 -78 -198 -145 -313 -189
c-45 -17 -94 -28 -143 -30zM278 -2c-23 6 -44 20 -34 45c15 37 102 66 214 96c124 33 177 45 307 71c22 4 124 103 158 139c52 54 107 113 135 182c10 25 16 51 12 71c-13 72 -151 48 -235 18c-81 -29 -158 -66 -230 -114c-36 -24 -64 -45 -104 -79c-38 -32 -55 -57 -55 -68
c0 -3 2 -7 4 -7c4 0 3 -3 0 -4c-5 -2 -11 0 -12 6c-2 10 12 31 35 54c44 44 96 80 149 114c155 100 428 201 454 79c8 -37 -13 -81 -32 -113c-23 -38 -48 -72 -77 -103c-16 -18 -156 -165 -171 -168c43 9 83 14 124 22c53 10 71 13 80 15c6 1 12 4 11 0s-8 -5 -18 -7
c-31 -6 -148 -28 -200 -37c-6 -1 -14 -6 -51 -33c-30 -22 -63 -45 -95 -64c-118 -70 -280 -137 -369 -115zM292 4c63 -9 186 33 250 66c71 36 85 44 220 133c-10 -3 -23 -5 -28 -6c-256 -57 -342 -82 -427 -116c-59 -24 -82 -67 -15 -77z" />
    <glyph glyph-name="ij" unicode="&#x133;" horiz-adv-x="514" 
d="M40 275c-1 3 4 6 8 10c1 1 3 0 4 -2c2 -3 1 -4 -2 -7c-4 -4 -9 -5 -10 -1zM-43 186c-11 2 -7 17 -3 25c8 15 34 39 53 45c3 1 8 1 8 -3s-7 -6 -10 -8c-25 -14 -49 -38 -46 -48c4 -11 40 0 74 11c32 10 53 19 111 42l11 5c5 2 10 2 7 -2c0 0 -3 -2 -8 -4
c-58 -23 -60 -26 -121 -47c-12 -4 -41 -13 -53 -15c-5 -1 -18 -2 -23 -1zM310 311c-1 3 4 6 8 10c1 1 3 0 4 -2c2 -3 1 -4 -2 -7c-4 -4 -9 -5 -10 -1zM-286 -66c39 25 81 47 123 67c46 22 92 43 138 64c44 20 89 40 134 58c16 6 30 13 38 20c33 29 34 31 103 102
c10 10 15 16 26 28c12 14 15 17 16 6c1 -10 -44 -53 -122 -130c0 -1 76 33 97 43c44 21 77 40 97 51c9 5 7 -2 -4 -7l-26 -15c-14 -8 -31 -16 -45 -23l-66 -31c-55 -25 -62 -29 -84 -47c-9 -7 -71 -63 -178 -143c-77 -58 -154 -104 -225 -129c-100 -33 -113 24 -22 86z
M-289 -153c50 11 118 50 173 85c35 24 113 81 140 105c17 13 89 74 102 87c-65 -25 -239 -104 -295 -132c-46 -21 -130 -66 -159 -103c-26 -36 -5 -48 39 -42z" />
    <glyph glyph-name="Jcircumflex" unicode="&#x134;" horiz-adv-x="272" 
d="M-35 698c-3 -3 -7 4 -11 14c-2 7 -4 12 -5 12c-4 0 -40 -18 -46 -22c-7 -7 -13 -8 -13 -3s7 9 41 25c26 12 29 12 31 2l3 -17c0 -6 1 -10 0 -11zM-61 -2c-23 6 -44 20 -34 45c15 37 102 66 214 96c124 33 177 45 307 71c22 4 124 103 158 139c52 54 107 113 135 182
c10 25 16 51 12 71c-13 72 -151 48 -235 18c-81 -29 -158 -66 -230 -114c-36 -24 -64 -45 -104 -79c-38 -32 -55 -57 -55 -68c0 -3 2 -7 4 -7c4 0 3 -3 0 -4c-5 -2 -11 0 -12 6c-2 10 12 31 35 54c44 44 96 80 149 114c155 100 428 201 454 79c8 -37 -13 -81 -32 -113
c-23 -38 -48 -72 -77 -103c-16 -18 -156 -165 -171 -168c43 9 83 14 124 22c53 10 71 13 80 15c6 1 12 4 11 0s-8 -5 -18 -7c-31 -6 -148 -28 -200 -37c-6 -1 -14 -6 -51 -33c-30 -22 -63 -45 -95 -64c-118 -70 -280 -137 -369 -115zM-47 4c63 -9 186 33 250 66
c71 36 85 44 220 133c-10 -3 -23 -5 -28 -6c-256 -57 -342 -82 -427 -116c-59 -24 -82 -67 -15 -77z" />
    <glyph glyph-name="jcircumflex" unicode="&#x135;" horiz-adv-x="257" 
d="M-46 533c-3 -3 -7 4 -11 14c-2 7 -4 12 -5 12c-4 0 -40 -18 -46 -22c-7 -7 -13 -8 -13 -3s7 9 41 25c26 12 29 12 31 2l3 -17c0 -6 1 -10 0 -11zM22 -240c-30.667 0 -56.333 4 -77 12v71c22.667 -6.66699 44.667 -10 66 -10c25.333 0 44 7 56 21s18 35 18 63v619h88v-616
c0 -53.333 -12.833 -93.333 -38.5 -120s-63.167 -40 -112.5 -40z" />
    <glyph glyph-name="Kcommaaccent" unicode="&#x136;" horiz-adv-x="982" 
d="M9 92c-10 2 -21 6 -29 15c-3 3 -5 5 -7 10s-2 13 2 13c1 0 0 -5 5 -14c22 -39 155 -15 222 6c62 19 114 44 173 72c28 13 57 27 84 45l60 37c6 4 13 8 21 14l-8 5c-7 4 -24 16 -29 20c-35 -3 -77 -7 -112 -2c-48 7 -87 18 -95 38c-4 10 6 18 15 22c19 10 39 10 60 7
c47 -8 90 -33 131 -57l74 11c16 2 26 4 31 6c11 4 16 7 34 21c48 35 98 78 144 119c21 19 53 55 66 74c14 17 28 38 34 59c19 70 -67 92 -119 96c-71 6 -143 -1 -213 -12c-174 -25 -370 -83 -487 -184c-23 -21 -12 -40 -28 -34c-5 2 -5 13 2 23c29 40 112 82 175 110
c109 48 231 76 345 92c102 15 204 18 269 -1c43 -12 76 -50 65 -96c-9 -36 -36 -68 -62 -95c-27 -29 -56 -59 -87 -84l-54 -43l-41 -34c-4 -3 11 0 25 4c33 8 65 15 96 27c33 12 67 20 100 32c94 35 183 80 275 116c14 6 18 6 21 6c15 -1 -8 -6 -29 -17
c-15 -6 -72 -30 -105 -45c-30 -14 -58 -27 -90 -40c-90 -34 -180 -64 -280 -89c-26 -6 -35 -7 -67 -30c-18 -13 -35 -27 -35 -27l21 -18l101 -75c51 -38 103 -82 166 -100c53 -17 117 -5 166 15c9 4 15 8 17 8c1 0 2 -2 2 -3c0 -4 -4 -6 -20 -13c-27 -11 -64 -20 -95 -22
c-56 -4 -95 15 -145 44c-27 15 -52 36 -77 55c-35 24 -70 49 -104 74l-25 18l-15 10c-34 -22 -63 -40 -96 -58c-40 -22 -79 -44 -122 -61c-44 -18 -89 -37 -135 -51c-63 -18 -134 -31 -191 -19zM387 319c33 -2 44 -3 106 3l-42 24c-19 10 -40 19 -60 24c-35 9 -85 5 -89 -13
c-3 -20 54 -35 85 -38zM547 295c5 -1 37 22 52 36c2 2 -11 -1 -28 -3c-10 -2 -49 -8 -59 -11c0 0 29 -20 35 -22zM364 19c-2 0 -2 1 8 12l19 23c7 9 13 17 15 17c5 3 9 -3 6 -8c-2 -5 -46 -44 -48 -44z" />
    <glyph glyph-name="kcommaaccent" unicode="&#x137;" horiz-adv-x="183" 
d="M-67 159c3 -9 -13 -9 -13 0c0 15 35 56 66 81c51 41 73 62 115 90c41 28 82 53 124 80c51 33 103 56 124 62c37 11 51 5 36 -18s-102 -62 -143 -82c-23 -11 -134 -53 -154 -62c-7 -2 -13 -9 -36 -27c-9 -7 -36 -28 -52 -42c34 17 68 26 62 8c-5 -16 -50 -30 -70 -30
c-3 0 -5 -9 -3 -14c7 -18 21 -21 34 -22c46 -1 100 31 143 57l23 14c2 1 3 2 4 2c5 0 3 -3 -20 -17c-30 -18 -75 -44 -103 -53c-33 -11 -60 -11 -75 0c-10 7 -16 26 -14 35c1 5 -36 -35 -44 -48c-4 -7 -5 -11 -4 -14zM103 323c24 8 88 34 111 43c37 15 89 37 123 59
c31 20 65 44 41 47c-19 2 -60 -12 -119 -49c-69 -43 -165 -103 -156 -100zM0 225c11 1 42 10 54 22c13 13 -12 4 -26 -1l-17 -6c-14 -5 -21 -16 -11 -15zM-70 77c-2 0 -2 1 8 12l19 23c7 9 13 17 15 17c5 3 9 -3 6 -8c-2 -5 -46 -44 -48 -44z" />
    <glyph glyph-name="kgreenlandic" unicode="&#x138;" horiz-adv-x="534" 
d="M403 536h106l-203 -237l219 -299h-105l-176 242l-66 -54v-188h-93v536h93v-139c0 -45.333 -2 -90.333 -6 -135l41 50z" />
    <glyph glyph-name="Lacute" unicode="&#x139;" horiz-adv-x="733" 
d="M855 761c0 2 14 17 29 30c11 9 19 15 33 23c5 3 10 3 11 2c5 -2 -1 -5 -30 -28c-19 -15 -21 -17 -31 -27c-4 -4 -12 -5 -12 0zM96 80c-17 0 -62 1 -55 32c4 20 26 37 41 48c21 15 59 32 99 42c38 9 75 14 113 12c40 -3 65 -18 88 -19c1 0 30 16 60 34
c56 34 113 74 166 115c35 29 69 58 105 89c66 58 144 125 182 205c10 20 13 41 -7 61c-28 27 -128 14 -188 0c-125 -30 -246 -78 -354 -144l-18 -11c-25 -15 -49 -28 -72 -46c-22 -18 -44 -38 -65 -58c-10 -10 -19 -21 -26 -32c-8 -10 -13 -18 -14 -33c-1 -4 3 -4 1 -6
s-6 -1 -8 1c-5 6 3 27 9 36c6 12 15 22 26 33c116 111 262 181 412 236c65 24 103 29 156 39c57 10 124 16 153 -15c37 -38 -18 -114 -83 -180c-76 -78 -160 -147 -246 -211c-27 -21 -56 -40 -84 -58c-22 -15 -44 -23 -74 -46c-7 -6 -19 -13 -19 -13c32 -16 41 -23 112 -69
c29 -19 55 -41 92 -46c34 -4 68 10 93 32c2 2 5 5 7 3c2 -1 1 -5 0 -7c-24 -42 -85 -40 -125 -27c-27 9 -50 25 -72 41c-48 34 -86 60 -113 68c-42 -20 -63 -31 -84 -39c-76 -32 -154 -67 -208 -67zM147 95c63 16 117 36 198 78l21 11c10 5 17 6 2 11c-8 2 -29 8 -38 9
c-62 11 -122 4 -182 -17c-21 -8 -42 -18 -61 -31s-40 -37 -39 -51c2 -25 62 -20 99 -10z" />
    </font>
</defs>
</svg>
