<?xml version="1.0" standalone="no"?>
<!DOCTYPE svg PUBLIC "-//W3C//DTD SVG 1.1//EN" "http://www.w3.org/Graphics/SVG/1.1/DTD/svg11.dtd" >
<svg xmlns="http://www.w3.org/2000/svg" xmlns:xlink="http://www.w3.org/1999/xlink" version="1.1">
<metadata>
Created by FontForge 20190801 at Wed Jan 24 10:27:45 2024
 By root
Copyright (c) 2018 by Oksana Petrenko. All rights reserved.
</metadata>
<defs>
<font id="Galanthia-Regular" horiz-adv-x="180" >
  <font-face 
    font-family="Galanthia"
    font-weight="400"
    font-stretch="normal"
    units-per-em="1000"
    panose-1="0 0 5 0 0 0 0 0 0 0"
    ascent="800"
    descent="-200"
    x-height="258"
    cap-height="718"
    bbox="-603 -241 1522 1046"
    underline-thickness="50"
    underline-position="-100"
    unicode-range="U+0001-206F"
  />
<missing-glyph horiz-adv-x="364" 
d="M33 0v666h265v-666h-265zM66 33h199v600h-199v-600z" />
    <glyph glyph-name=".notdef" horiz-adv-x="364" 
d="M33 0v666h265v-666h-265zM66 33h199v600h-199v-600z" />
    <glyph glyph-name="uni0000" 
 />
    <glyph glyph-name="uni0000" 
 />
    <glyph glyph-name="uni000D" unicode="&#xd;" 
 />
    <glyph glyph-name="uni0001" 
 />
    <glyph glyph-name="uni0002" 
 />
    <glyph glyph-name="uni0003" 
 />
    <glyph glyph-name="uni0004" 
 />
    <glyph glyph-name="uni0005" 
 />
    <glyph glyph-name="uni0006" 
 />
    <glyph glyph-name="uni0007" 
 />
    <glyph glyph-name="uni0008" 
 />
    <glyph glyph-name="uni0009" unicode="&#x9;" 
 />
    <glyph glyph-name="uni000A" unicode="&#xa;" 
 />
    <glyph glyph-name="uni000B" 
 />
    <glyph glyph-name="uni000C" 
 />
    <glyph glyph-name="uni000E" 
 />
    <glyph glyph-name="uni000F" 
 />
    <glyph glyph-name="uni0010" 
 />
    <glyph glyph-name="uni0011" 
 />
    <glyph glyph-name="uni0012" 
 />
    <glyph glyph-name="uni0013" 
 />
    <glyph glyph-name="uni0014" 
 />
    <glyph glyph-name="uni0015" 
 />
    <glyph glyph-name="uni0016" 
 />
    <glyph glyph-name="uni0017" 
 />
    <glyph glyph-name="uni0018" 
 />
    <glyph glyph-name="uni0019" 
 />
    <glyph glyph-name="uni001A" 
 />
    <glyph glyph-name="uni001B" 
 />
    <glyph glyph-name="uni001C" 
 />
    <glyph glyph-name="uni001D" 
 />
    <glyph glyph-name="uni001E" 
 />
    <glyph glyph-name="uni001F" 
 />
    <glyph glyph-name="space" unicode=" " 
 />
    <glyph glyph-name="exclam" unicode="!" horiz-adv-x="412" 
d="M112 219q0 -1 0.5 -2.5l0.5 -1.5q-2 -4 -5 -6q-8 0 -8 12q0 3 1 6t2.5 5.5t4 6t4 5t4 5t3.5 4.5q11 12 22.5 24t25.5 26t23.5 23t25.5 24q14 13 27 24.5t27 23.5t28 23.5t29 22.5q2 1 9 6.5t10.5 7.5t9.5 6t11 6.5t10 4.5q7 2 8 2q4 0 7 -2.5t3 -6.5t-3 -7q-3 -4 -10 -7
q-44 -24 -83 -56q-15 -11 -31.5 -26t-29.5 -27t-30.5 -28.5t-30.5 -26.5q-20 -18 -29 -28q-5 -4 -8 -7l-7.5 -7.5t-7.5 -8t-6.5 -8t-5.5 -8.5q-1 -2 -1 -4zM52 115q-5 0 -5 7q0 3 1 5t2.5 4t4 3.5t4.5 1.5q5 0 5 -5q0 -4 -4 -10t-8 -6z" />
    <glyph glyph-name="quotedbl" unicode="&#x22;" horiz-adv-x="177" 
d="M148 368q3 -2 4 -4q0 -1 -1 -2l-2.5 -2.5t-3 -2.5t-3 -2.5l-2.5 -2.5q-5 -4 -8 -7q-5 -4 -10.5 -8t-8.5 -6.5t-3 -3.5q-5 -4 -8 -4q-2 0 -3.5 1t-1.5 3q0 1 0.5 1.5l1.5 1.5q2 4 10 11.5t17.5 14.5t15.5 10zM116 319q0 3 9 13t20.5 19.5t18.5 10.5l6 1h4t4 -1.5t2 -3.5
t-5 -4q-1 -1 -2.5 -2t-3.5 -2.5t-3 -3.5q-15 -10 -31 -21q-5 -4 -9.5 -6.5t-6.5 -2.5q-3 0 -3 3z" />
    <glyph glyph-name="numbersign" unicode="#" horiz-adv-x="328" 
d="M217 263l-4 -7q2 0 5.5 -0.5t4.5 -1.5l13 -1q25 -4 25 -8t-5 -4q-2 0 -9 2q-9 1 -19.5 2t-24.5 1q-4 -2 -20 -12t-21 -13q4 -1 11 -2q20 -1 39 -5.5t24 -8.5q2 -2 2 -4q-1 -3 -4 -3q-5 0 -22 5q-11 3 -19 4t-25 1h-26q-26 -20 -32 -29q-7 -10 -11 -10q-2 0 -2.5 1.5
t-0.5 3.5q0 3 3 8.5t8 11.5t8 9q-9 -1 -12 -3t-13 -12q-12 -12 -12 -15t-2 -6t-5 -3t-4.5 2.5t-1.5 4.5q0 7 8 19l5 8q-18 -2 -33 -8q-1 0 -2 -1q-9 -3 -11 -3q-5 0 -5 6q0 5 8 8q19 7 50 10q4 1 8 3.5t13 11.5q3 2 6 5t5 4.5t3 2.5q-36 -2 -57 -8q-6 -2 -9 -2q-4 2 -5 4
q0 2 1 3.5t3.5 2.5l5 2t7 1.5t7 1t8 1t8.5 0.5q31 4 39.5 6.5t19.5 9.5q14 9 17 10t5 1.5t4 0.5q4 0 4 -3q0 -2 -11 -14q10 2 11 2q8 0 23 8q1 0 2 1q5 3 9 3q5 0 5 -5zM122 216q9 1 21 9q1 1 11.5 8t15.5 10q-8 0 -15 -1q-3 -2 -7 -5t-5.5 -4.5t-6.5 -5.5z" />
    <glyph glyph-name="dollar" unicode="$" horiz-adv-x="224" 
d="M20 162q3 4 4 4h1q7 0 7 -5v-4l-3 -3h-4q0 -1 -1 -3t-1 -3l-1 -1v-9q0 -5 5 -9q5 5 29 33q11 13 23 26t21.5 23t21.5 21.5t21 20t22.5 21t23.5 22.5q13 12 16 19q22 48 72 70q11 5 22 8l16 15q12 10 30 24q9 6 12 6q1 0 3 -1t3 -2.5t1 -3.5q0 -4 -6 -4q-3 0 -19 -12.5
t-26 -22.5q11 -4 11 -18t-15 -33q-8 -9 -27 -27t-22 -18q-5 0 -5 4t20 21q40 35 40 53q0 6 -7 8h-2q-4 0 -52 -43l-14 -13q-23 -19 -28 -26.5t-13 -36.5q-9 -33 -27 -64q-23 -42 -81 -75q-7 -5 -24 -8q-9 -2 -13 -2q-14 0 -21 2h-1h-1l-5 -5q-5 -6 -21.5 -28t-16.5 -24
q0 -7 -6 -7q-5 0 -5 5q0 6 33 49q3 5 10 15q-1 0 -2 2q-7 7 -7 19q0 8 2 12q5 6 7 8zM259 362q-20 -14 -36 -36q8 7 27.5 25l19.5 18q-10 -6 -11 -7zM39 124q4 -1 11 -1q15 0 27 4q30 13 67 54q20 22 32 53q5 15 9 26.5t7 22.5q-1 -2 -11 -9q-11 -9 -48 -44q-35 -34 -58 -62
l-26 -32q-8 -8 -10 -12z" />
    <glyph glyph-name="percent" unicode="%" horiz-adv-x="282" 
d="M24 110v-3q0 -7 -9 -7q-3 0 -6 1.5t-4.5 4.5t-1.5 6q0 13 12 27q35 40 88 72q25 15 57.5 31.5t60 27.5t47.5 18h2q7 0 7 -5q0 -4 -6 -6q-8 -2 -17 -6q-60 -23 -101.5 -44.5t-90.5 -58.5q-42 -31 -42 -53q0 -4 4 -5zM54 245q15 11 28 11q2 0 4 -1t4 -1q7 -4 7 -11
q0 -9 -11.5 -18.5t-19.5 -10.5q-4 -1 -7 -1q-17 0 -20 13q0 10 15 19zM55 230q0 -4 2 -4q6 0 19 10q7 5 9 9q-5 0 -16.5 -5.5t-13.5 -9.5zM161 164q-13 -13 -27 -13t-14 12q0 3 1 6q6 14 28 26q11 7 18 7q10 0 10 -10q0 -11 -16 -28zM144 176q-13 -9 -13 -14h1h1
q3 0 16.5 10.5t14.5 13.5q0 1 -1 1q-6 0 -19 -11z" />
    <glyph glyph-name="ampersand" unicode="&#x26;" horiz-adv-x="338" 
d="M233 170q1 0 3.5 0.5t3.5 0.5q8 0 8 -5q0 -2 -2 -3t-4 -1h-1h-1h-2h-2h-30q-5 0 -11.5 0.5t-12 0.5h-11t-12 0.5t-11.5 0.5h-2q-11 -13 -28 -30.5t-21 -17.5q-3 0 -3 3t10 16q17 21 25 31h-5q-35 0 -71 10q-16 4 -22 17q-1 1 -1.5 2.5l-1 3t-0.5 3.5v3q0 21 18 39
q21 20 60 42.5t75 35.5q64 22 102 29q3 1 9.5 2.5t12 2.5t9.5 2q-45 19 -48 21q-3 3 -3 6q0 5 9 10q3 3 49 13l25 6q6 6 30 27q5 4 8.5 5.5t6.5 1.5q4 -1 5 -5q0 -4 -5 -7q-7 -4 -23 -18h3q19 2 26 2q6 0 9.5 -1t3.5 -5q0 -7 -24 -7h-2v1q-4 0 -9.5 -0.5t-9.5 -1t-10 -1.5
t-9.5 -1.5t-9.5 -2t-9 -1.5q-5 -1 -9 -2t-8.5 -2t-8.5 -2l-8 -2l-12 -3q-6 -1 -3 -4q4 -5 30.5 -15t34.5 -10q14 0 14 -7t-11 -7q-2 0 -5.5 0.5t-7.5 0.5h-6q-7 0 -17.5 -1.5t-29.5 -5.5l-19 -4q-78 -22 -149 -59q-32 -17 -53 -39q-10 -9 -14.5 -17.5t-4.5 -14.5
q0 -24 58 -29l35 -2q2 1 5 1h3h2.5h2.5q3 0 4 -3l77 -3h3h3z" />
    <glyph glyph-name="quotesingle" unicode="'" horiz-adv-x="132" 
d="M109 350q6 0 6 -6q0 -5 -32 -29l-2 -2q-26 -19 -30 -19q-2 0 -2.5 1.5t-0.5 2.5v1q1 3 25.5 24.5t29.5 24.5q4 2 6 2z" />
    <glyph glyph-name="parenleft" unicode="(" horiz-adv-x="290" 
d="M47 108q-14 0 -22 7.5t-8 21t8 33.5q14 40 57 79q34 29 84 56.5t81 34.5l13 2q5 0 9 -1h1q2 -2 2 -5q0 -1 -0.5 -2l-1.5 -3q-4 -4 -10 -5q-3 2 -4 4v1h-1q-15 -2 -59 -25.5t-77 -47.5q-36 -26 -55 -51q-10 -14 -17.5 -27.5t-11.5 -24.5t-4 -19q0 -16 14 -19q3 0 6 -1
t3 -4q0 -4 -6 -4h-1z" />
    <glyph glyph-name="parenright" unicode=")" horiz-adv-x="234" 
d="M-52 94q1 5 8 6q16 1 48 19q128 77 159 159q7 15 7 29v4q0 16 -11 19h-4t-5 0.5t-4 2.5l-2 2q8 5 14 5q4 0 8 -1.5t8 -4.5q12 -11 12 -29q0 -7 -1.5 -14.5t-4.5 -15t-6.5 -13.5t-8 -13.5t-7.5 -12t-7 -9.5q-31 -44 -88 -84q-2 -2 -7 -6q-9 -6 -14 -9t-12.5 -8t-15.5 -9
q-21 -13 -43 -19l-6 -1.5t-5 -0.5h-6h-4z" />
    <glyph glyph-name="asterisk" unicode="*" horiz-adv-x="268" 
d="M215 491q0 -2 0.5 -7t0.5 -8q0 -6 -4 -6q-2 0 -4 2t-3 4.5t-2.5 6.5t-1.5 5q-7 -2 -14 -7q-5 -4 -9 -6t-7 -2q-1 0 -2.5 1t-1.5 2q0 4 10 10q6 5 10 9q-12 0 -16 8l-1 4q0 5 6 5q3 0 4.5 -1.5t3.5 -4.5l11 -2h1q3 0 3.5 2t0.5 9v4.5t1 5.5t2.5 5t3.5 2q4 0 5.5 -4
t1.5 -10v-2v-1l3 2q6 5 12 5q1 0 2.5 -0.5t3.5 -2t2 -3.5t-2.5 -4.5t-7 -4.5t-5.5 -3q3 0 7.5 -1t11.5 -1v1q10 0 10 -5q0 -3 -3 -4t-7 -2h-26v-1z" />
    <glyph glyph-name="plus" unicode="+" horiz-adv-x="154" 
d="M98 195q3 0 7 0.5t6 0.5h1.5h1.5q13 0 13.5 -5t-17.5 -5q-2 0 -4.5 0.5t-3.5 0.5q-1 -1 -4 -1q-19 -1 -30 -10q-3 -3 -13 -12l-2 -1l-2 -3q-16 -13 -21 -13t-5 4q0 2 8 9l2 2l8 8l11 11h-2h-1h-1l-1 -1h-4h-4t-4.5 -0.5l-5 -1l-5 -1t-4.5 -0.5q-6 -2 -9 -2.5t-5.5 -1
t-4.5 -0.5q-5 0 -5 5q0 2 1 3.5t3 1.5q10 4 65 9l14 12q25 19 39 24q7 3 10 3q2 0 5 -4q2 -1 2 -3q0 -3 -5 -4l-1 -1q-5 -2 -20 -10q-1 -1 -8 -6t-11 -7q3 -1 6 -1z" />
    <glyph glyph-name="comma" unicode="," horiz-adv-x="100" 
d="M-57 98q0 2 10 13q20 24 24 30q8 10 15 11q2 0 3.5 -1t2.5 -2.5t1 -3.5q0 -3 -2 -5q-2 -5 -24.5 -25t-25.5 -21q-4 0 -4 4z" />
    <glyph glyph-name="hyphen" unicode="-" horiz-adv-x="208" 
d="M127 224h-8h-7.5h-8.5h-10q-9 0 -14 -0.5t-13 -0.5h-13.5h-9.5q-9 -2 -15 -2q-11 0 -11 5t6 6.5t27 1.5q4 1 6 1h5.5h6h5.5t6 0.5t6 0.5q46 0 46 -9l-3 -3h-1z" />
    <glyph glyph-name="period" unicode="." horiz-adv-x="30" 
d="M2 134q-4 0 -4 5q0 2 1 3.5t3 2.5q3 2 6 2q5 0 5 -4q0 -9 -11 -9z" />
    <glyph glyph-name="slash" unicode="/" horiz-adv-x="214" 
d="M-86 91q-2 0 -3.5 1t-2.5 2.5t-1 3.5q0 10 30 40q24 25 50.5 48t68.5 57l124 98q28 22 39 29q0 1 2 2q9 5 12 5q3 -1 3 -5q0 -3 -2 -6t-7 -7l-164 -131q-62 -49 -97 -84q-21 -20 -40 -43q-8 -10 -12 -10z" />
    <glyph glyph-name="zero" unicode="0" horiz-adv-x="158" 
d="M83 167q-27 -12 -46 -12q-29 0 -29 24q0 17 17 39t50 44q55 37 87 37q18 0 22 -13q10 -1 10 -12q0 -22 -29 -50q-14 -15 -40 -32.5t-42 -24.5zM46 224q-27 -28 -27 -44q0 -13 19 -13q18 0 45.5 12.5t55.5 34.5q21 17 33.5 34.5t12.5 26.5q0 2 -1 3q-3 -12 -13 -12
q-4 0 -4 4q0 2 4 4q3 2 4 4q-2 -1 -4 -1q-5 0 -5 4t9 5q-3 4 -11 4q-20 0 -59 -22.5t-59 -43.5z" />
    <glyph glyph-name="one" unicode="1" horiz-adv-x="151" 
d="M84 169v-1q10 -7 10 -13q0 -7 -7 -7q-5 0 -5 5v1l2 3q-5 5 -21.5 9.5t-28.5 4.5t-25 -4h-3q-5 0 -5 5v3q3 5 29 5q21 0 37 -4q-7 8 -7 18q0 12 8 21q15 17 57 41l32 17q-40 -8 -69 -12h-3q-7 0 -7 5q0 4 5 4q36 5 66 11q37 8 59 18q8 3 13 3q7 0 7 -6t-24 -15
q-8 -2 -12 -4q-21 -7 -63 -33q-3 -1 -7 -3.5t-7 -4t-7 -4t-6.5 -4.5t-6 -4.5t-6.5 -4.5t-5.5 -5t-4.5 -6q-7 -11 -7 -18q0 -11 7 -15q5 -3 5 -6z" />
    <glyph glyph-name="two" unicode="2" 
d="M155 135q0 -3 -3 -3q-2 0 -4 2q-6 7 -26 13q-23 6 -50 6q-21 0 -52 -4q-1 -1 -6 -5q-2 -1 -4 -1h-1q-8 3 -8 8q0 8 13.5 16.5t29.5 13.5q86 30 121 51q29 17 46 35q11 10 11 19q0 2 -2 4q-7 5 -22 5q-37 0 -68 -20q-27 -19 -40 -42q-3 -5 -4 -5q-1 2 -1 0q-3 1 -3 5
q0 15 19 33q18 18 45.5 29t51.5 11q22 0 31 -9q5 -4 5 -10q0 -17 -29 -41t-65 -41q-31 -15 -75 -29q-38 -12 -44 -15q32 4 48 4q27 0 51 -7q20 -4 29 -11q6 -4 6 -12z" />
    <glyph glyph-name="three" unicode="3" horiz-adv-x="213" 
d="M47 210q-2 0 -3.5 1.5t-3.5 1.5q-3 0 -5.5 -2.5t-3.5 -5.5t-1 -5q0 -10 15 -19.5t38 -14.5q28 -6 53 -6q43 0 61 17q7 7 7 18q0 17 -16 30q-12 10 -33 16.5t-35 6.5q-8 0 -12.5 -1t-5.5 -1l-1 -1q0 -4 -4 -4q-6 0 -8 3q0 1 -1 0q-3 2 -3 4q0 4 26 12l36 12q-11 0 -21 5
q-7 4 -11 4q-2 0 -5 -1q-15 -4 -19 -9v-3h-1h-2q-7 0 -7 6q0 2 1 3q13 11 34 11q9 0 14 -2q8 -5 21 -5q31 0 37 4h3q4 0 4 -3q0 -9 -9 -9q-11 0 -28 -7q-8 -3 -29 -10q36 -4 64 -24q22 -16 22 -38q0 -8 -4 -16q-15 -27 -77 -27q-36 0 -72 11q-19 5 -30 16.5t-11 22.5
q0 10 8 16q6 4 13 4q9 0 9 -7q0 -4 -4 -4z" />
    <glyph glyph-name="four" unicode="4" horiz-adv-x="140" 
d="M60 153q0 24 46 62q-4 0 -23.5 0.5t-28.5 0.5q-6 -1 -14 -5q-17 -10 -28 -10q-10 0 -10 6q0 4 5 7q4 2 8.5 3.5t8 2t8 1.5t6.5 2q24 15 34 23q65 44 95 61q5 0 5 -7v-1q-3 -3 -17 -12q-38 -24 -95 -63h57q26 21 47 33q4 2 8 2q6 0 6 -3t-3 -4q-40 -25 -45 -29q30 0 30 -7
q0 -4 -5 -4q-2 0 -3 1q-14 2 -31 2q-51 -43 -51 -63q0 -5 5 -9q1 -2 1 -4q0 -3 -4 -3h-2q-10 6 -10 17z" />
    <glyph glyph-name="five" unicode="5" horiz-adv-x="138" 
d="M106 288q-14 0 -15 -2v-0.5v-1.5q0 -4 -5 -4t-5 4q0 11 23 11h2q30 0 82 -6q7 0 7 -7q0 -2 -3 -2q-4 0 -23 2q-46 6 -63 6zM51 190q12 -2 12 -8q0 -3 -4 -3q-2 0 -5 1q-9 3 -20 5h-9q-19 0 -32 -7t-13 -14q0 -5 7 -7q12 -5 31 -5q29 0 60 10.5t43 26.5q9 13 9 22
q0 17 -24 17q-11 0 -30 -6q-6 -2 -8 -2q-5 0 -5 6q0 11 22.5 29.5t46.5 29.5q1 1 3 1h1q4 0 4 -4q0 -3 -2 -4l-21 -12q-27 -16 -38 -34q19 6 30 5q31 -1 31 -26q0 -17 -14.5 -32t-32.5 -22q-36 -16 -71 -16q-22 0 -36.5 6.5t-14.5 17.5t21 22q15 7 32 7q12 0 27 -4z" />
    <glyph glyph-name="six" unicode="6" horiz-adv-x="182" 
d="M40 184q-4 -9 -4 -14q0 -1 0.5 -2.5t0.5 -2.5q0 -2 -4 -3q-7 0 -7 10q0 6 3 13q6 18 32 36t62 29q16 6 31 6q17 0 28.5 -7.5t11.5 -19.5q0 -5 -1 -9q-7 -22 -43.5 -43.5t-73.5 -29.5q-15 -3 -27 -3q-38 0 -38 25q0 20 26 48q30 32 91 62q42 19 67 19q17 0 17 -9
q0 -14 -8 -14q-1 0 -4 5v1q0 1 2 2q1 2 1 5q-1 1 -7 1q-19 0 -40 -9q-25 -9 -57 -28.5t-50 -36.5q-29 -30 -29 -47q0 -13 24 -13q73 3 122 48q17 16 17 28q0 16 -28 16q-22 0 -50 -12q-21 -9 -40 -23t-25 -28z" />
    <glyph glyph-name="seven" unicode="7" horiz-adv-x="174" 
d="M147 297q14 -3 27 -3q2 0 40 2h1q6 0 25 10q44 21 55 24q6 2 9 2q4 0 4 -4v-2q-5 -4 -10 -5q-20 -6 -57 -26v-1q0 -2 -1 -3t-3.5 -1.5t-4 -1t-4.5 -1t-4 -0.5q-7 -2 -25 -13l-31 -18q-31 -18 -58 -39l-10 -9q8 -2 20 -2q30 1 60 10q5 0 5 -5q0 -2 -2 -3q-19 -11 -60 -11
q-20 0 -33 3q-15 -12 -22.5 -19t-12 -14t-5.5 -15v-2q0 -3 2 -6q1 -2 1 -3q0 -4 -4 -4t-7 3t-3 8v1q0 6 2 11.5t4.5 9.5t7.5 9.5t8.5 8.5t9.5 8.5t8 7.5q-3 2 -28 8q-11 0 -22 -7q-4 -3 -5 -3q-2 0 -4 4v1q0 4 10 10q12 6 21 6q7 0 16 -4l21 -6q21 19 97 64l15 9
q-14 -2 -22 -2t-24 2.5t-24 2.5q-9 0 -17 -3q-19 -8 -40 -22q-8 -4 -10 -4q-4 0 -4 3t4 6.5t10.5 7.5t12 7t9.5 5q21 10 38 10q7 0 14 -2z" />
    <glyph glyph-name="eight" unicode="8" horiz-adv-x="182" 
d="M250 295q0 9 -11 9h-1.5h-2.5q-3 0 -3 3q0 4 10 4q15 -1 15 -16q0 -5 -2 -10q-12 -22 -66 -42l-71 -22q-36 -61 -80 -79q-12 -5 -25 -5q-24 0 -24 19q0 16 21.5 31t46.5 24q8 3 25.5 9t26.5 9q22 44 27 50q17 23 35 23q15 0 15 -14q0 -19 -33 -36q-7 -3 -11.5 -3t-4.5 4
q0 2 3 3q14 4 30 18q6 7 6 13q0 4 -5 4q-8 0 -18.5 -8.5t-16.5 -22.5q-1 -1 -4 -8q-4 -12 -8 -20q64 18 91 31t33 26q2 3 2 6zM7 171q-7 -9 -7 -17t12 -8q18 0 39 14q12 9 39 39q7 8 14 20q-6 -3 -25.5 -9.5t-28.5 -10.5t-22 -11.5t-21 -16.5z" />
    <glyph glyph-name="nine" unicode="9" horiz-adv-x="162" 
d="M42 138q2 -3 2 -5q0 -4 -4 -4t-8 5.5t-4 15.5q0 4 1 9q4 29 70 71q13 8 22 14q-26 -6 -38 -6q-19 0 -25 7q-4 4 -4 9q0 12 16 25q33 21 61 21q17 0 25 -10q2 -3 2 -8q0 -10 -9 -21l6 3q27 15 45 23q14 6 23 6q8 0 8 -6q0 -9 -24 -16q-22 -7 -45 -16q-27 -14 -46 -27
q-23 -15 -45.5 -34t-28.5 -30q-4 -7 -4 -13t4 -13zM146 277q1 2 1 4q0 10 -17 10q-11 0 -26 -5q-28 -11 -36 -27q-2 -3 -2 -5q0 -5 16 -5q10 0 24 2q18 3 25 7q12 12 15 19zM221 286q-8 0 -25 -9q21 7 25 9z" />
    <glyph glyph-name="colon" unicode=":" horiz-adv-x="201" 
d="M75 231l5 10v1q3 6 10 6q6 -2 8 -7q0 -4 -5.5 -10.5t-10.5 -6.5q-6 2 -7 7zM32 157q-3 0 -4.5 2t-1.5 5q0 8 6 12l8 3q5 -1 6 -6q-1 -8 -8 -14q-3 -2 -6 -2z" />
    <glyph glyph-name="semicolon" unicode=";" horiz-adv-x="249" 
d="M134 216q-8 0 -8 7q0 6 6.5 13t11.5 7q4 0 6 -2t2 -6q0 -6 -6 -12.5t-12 -6.5zM17 124q0 5 19 17q30 21 38 34l7 11q2 1 3.5 1.5t2.5 0.5q3 0 4.5 -1t2 -3t0.5 -5q0 -7 -8 -15q-8 -7 -22 -17.5t-27 -18t-17 -7.5q-3 0 -3 3z" />
    <glyph glyph-name="less" unicode="&#x3c;" horiz-adv-x="139" 
d="M7 212q0 4 4 8q5 5 28 12q55 17 65 20l1 1q3 1 5 1.5t3.5 1t3.5 0.5q5 0 5 -6q0 -3 -6 -5t-17 -5q-19 -5 -33.5 -9.5t-22.5 -8t-12 -5.5t-5 -4l-2 -2l-1 -1q12 -14 79 -37q4 -1 5.5 -1.5t2.5 -1.5q2 -3 2 -5t-1.5 -2.5t-2.5 -0.5q-4 0 -12 3l-27 9q-15 5 -34 13.5
t-23 13.5q-2 3 -3.5 5.5t-1.5 5.5z" />
    <glyph glyph-name="equal" unicode="=" horiz-adv-x="86" 
d="M55 206h3h4q5 0 5 -4q-1 -4 -5 -6h-1t-15.5 -1t-22.5 -1h-5t-5 -0.5t-5 -1.5q-4 -2 -6 -2q-4 0 -4 4q0 9 21 10q8 2 24 2h12zM68 177q0 -4 -8 -6q-3 -1 -7 -1h-7h-6.5t-7 -0.5t-7 -0.5t-6.5 -0.5l-6 -1t-6 -1.5q-2 -1 -3 -1q-4 0 -4 6q0 4 3.5 5.5t8.5 1.5h1v0h1
q9 1 39 2q2 1 4 1.5t4 0.5q7 0 7 -5z" />
    <glyph glyph-name="greater" unicode="&#x3e;" horiz-adv-x="126" 
d="M-2 143q0 8 42 30q38 19 49 27q-3 2 -11 5.5t-14 6.5q-4 0 -24 8.5t-23 10.5q0 1 -0.5 2t-0.5 2q0 5 3 5q2 0 5 -1t8 -2.5t9 -3.5t11 -4.5t11 -4t11 -4.5t9 -4l19 -8q7 -2 7 -7q0 -7 -23 -18q-39 -19 -55 -27.5t-20 -11.5q-7 -6 -10 -6q-3 1 -3 5z" />
    <glyph glyph-name="question" unicode="?" horiz-adv-x="430" 
d="M387 471q12 0 19 -4t7 -13t-8 -19.5t-23 -21.5q-66 -47 -88 -60q-4 -3 -8 -5.5t-7.5 -4.5t-10 -6.5l-13 -9t-19.5 -12.5q-52 -36 -99 -75l-32 -26q-18 -14 -30 -26q-1 0 -1 -1q-13 -12 -17 -12q-1 0 -2 1t-1 2.5t1 3.5q2 8 16.5 23t58.5 55q20 17 30 25t32 23
q41 29 107 68q24 15 46 30t32 25q10 8 15 15.5t5 11.5q0 2 -11 2h-5.5t-7 -0.5l-7 -1t-7.5 -1.5t-7 -1q-8 -2 -21 -6.5t-25.5 -9t-18.5 -7.5l-10 -4t-11 -4.5t-9 -3.5q-20 -10 -35.5 -18.5t-21.5 -12t-8 -5.5q4 0 4 -3q0 -6 -12 -6q-8 0 -8 7q0 2 1 4.5t3 4.5q4 3 48 25
q4 2 8.5 4.5t10 5t8.5 3.5q58 28 107 38q14 3 25 3zM25 130h1q7 0 7 -7q0 -3 -3 -6t-6 -3q-6 0 -6 7l-0.5 1l-0.5 1q0 3 2.5 5t5.5 2z" />
    <glyph glyph-name="at" unicode="@" horiz-adv-x="424" 
d="M213 253q0 -3 6 -4.5t17 -1.5q13 0 32 2q23 4 43.5 10t39.5 17q23 14 23 28q0 12 -13 23q-27 24 -85 24q-13 0 -29.5 -1.5t-27.5 -3t-30 -3.5q-61 -10 -110 -40q-53 -33 -65 -63q0 -2 -1 -4t-1 -4t-0.5 -4t-0.5 -4q0 -23 23 -37.5t50 -19.5q7 -1 14.5 -1.5t15.5 -0.5
q37 0 79 12q14 4 26.5 9t24.5 10q20 10 31 19q3 -5 3 -9t-6 -7q-2 -1 -3 -1l-10 -6q-6 -4 -20 -10q-16 -7 -43 -14q-24 -6 -72 -10q-2 -1 -4 -1h-4.5h-5.5q-18 0 -36 3t-36 10t-29.5 21t-10.5 33q0 14 11 33q27 45 98 75q30 12 62.5 19.5t66.5 9.5q12 1 24 1q44 0 80 -11
q18 -6 32.5 -16.5t14.5 -26.5q0 -6 -3 -13q-7 -18 -32 -31q-9 -5 -19 -9t-19 -6t-21 -4t-20.5 -3t-22 -2.5l-22.5 -2.5q-4 -1 -7 -1t-5.5 0.5t-5 1.5t-4.5 2.5t-4 3.5t-2.5 4.5t-0.5 5.5v2q-26 -10 -47 -10h-2v1q-14 0 -14 10q0 4 3 8q7 6 14.5 11t16 8.5t17.5 5t18 1.5h1
q1 0 3.5 -0.5l5 -1t3.5 -0.5q3 -1 4.5 -3t1.5 -4l17 9q3 2 5 2q5 -2 6 -5q0 -6 -9 -11q-1 0 -2 -1q-11 -6 -19.5 -12t-8.5 -11zM150 259q0 -1 0.5 -1h3.5q4 0 11 1.5t14 3.5l17.5 7t11 5t4.5 4q-2 1 -8 1q-3 0 -7 -0.5t-9 -0.5q-9 -2 -18.5 -6t-14.5 -8t-5 -6z" />
    <glyph glyph-name="A" unicode="A" horiz-adv-x="753" 
d="M853 353v1q0 2 1 4t3 4l3 3q-2 1 -8 1.5t-15.5 1.5t-18.5 1q-15 0 -73 -5q-18 -1 -50 -6l-33 -6q-3 -3 -9 -13q-19 -33 -37 -76q-15 -37 -22.5 -69t-7.5 -61q0 -31 8 -61q16 -67 56 -71q6 -1 9 -1q7 0 18 6q1 1 2 1q2 0 3 -3q0 -5 -8.5 -9t-19.5 -5h-1h-1
q-18 0 -34.5 11.5t-27.5 31.5q-11 22 -18 57q-3 15 -3 37q0 33 14 89q5 22 19 54t30 59l10 20q-3 -1 -6.5 -1.5l-7 -1t-6.5 -1t-6.5 -1t-6.5 -0.5q-10 0 -26 -5q-1 -1 -3 -2t-3.5 -2t-2.5 -2q-9 -6 -75 -47q-33 -20 -50 -30q-99 -58 -167 -87q-90 -41 -179 -57
q-21 -4 -34 -4q-21 0 -36 8q-9 7 -12 14q-1 3 -1 7q0 10 7 19q13 16 22 16q7 0 7 -4q0 -2 -6 -6q-6 -5 -10 -8q-1 -2 -7 -16v-1q0 -17 41 -17q21 0 56 8q61 14 124 40q113 46 258 136l33 22q2 2 10 7l-158 -32q-18 -5 -52 -13.5t-48 -11.5q-42 -12 -58 -13q-9 0 -9 5
q0 4 8 8q6 3 15 12q12 16 20 16q1 0 3 -1v-2q0 -5 -7 -10q-1 -1 -5 -6t-6 -6v-2q2 1 4 1.5t6 0.5q21 5 75 18.5t82 19.5l138 27q12 2 37 20l23 17q18 11 65 45q16 13 24 24l23 30q28 35 80 109q3 4 19.5 26.5t23.5 35.5q7 12 11 12q2 0 3 -2t1 -4v-3q-2 -5 -21 -31
q-63 -94 -85 -123q-14 -18 -26 -35q18 15 50.5 42t66 56.5t46.5 42.5t37 41q2 3 21 30q19 29 19 48q0 12 -7 21q-10 12 -34 14q-12 2 -25 2t-30 -2q-51 -4 -120 -23q-227 -66 -382 -188q-30 -24 -30 -45v-3q-12 3 -12 13q0 5 8 15q33 37 93 74q64 41 128 70q21 10 43 19
t44 17.5t44 16t45 14.5q107 31 173 31h5q21 0 36 -4q33 -11 33 -43q0 -12 -5 -25q-10 -21 -32.5 -51.5t-47.5 -52.5q-45 -45 -97 -87l-28 -23l-35 -27q-29 -22 -41 -38q-8 -12 -21 -31t-17 -25q2 0 8 1q26 4 43 6t39 3.5t48 2.5q22 2 34 2q23 0 29 -6q4 -3 4 -6
q2 -6 -4.5 -11t-12.5 -5q-1 0 -2 0.5t-2 1.5zM644 359q4 1 24 30q2 3 5.5 8t6.5 9l6 8l-54 -39q-15 -9 -18 -12q-2 -2 -7 -6t-8 -6z" />
    <glyph glyph-name="B" unicode="B" horiz-adv-x="982" 
d="M729 297q23 -6 37.5 -13.5t23 -19t8.5 -26.5q0 -4 -2 -18h1t3.5 0.5t6 0.5t7 0.5t7.5 0.5t8 1q8 0 22.5 0.5t22.5 1.5l46 1h31h3t3.5 -0.5t3.5 -2t1 -3.5q0 -4 -4 -4h-12h-27q-13 0 -53 -1q-12 -1 -30.5 -3t-27.5 -2l-16 -2q-14 -19 -35 -39q-44 -37 -88 -60
q-30 -15 -46 -22.5t-30 -13.5t-32 -12q-33 -10 -50.5 -13.5t-45.5 -5.5h-10q-14 0 -29 2q-30 9 -30 29q0 9 7 20q9 15 36.5 31.5t52.5 25.5q2 1 8 3.5t7.5 3t6.5 2.5t8 3l9 3t13 4t16 5l31 10q30 8 72.5 17t104.5 17l11 1l1 3t1.5 4t1 3.5t1 4t0.5 3.5v3q0 17 -24 32
q-22 13 -42 13q-12 0 -20 -5q-23 -12 -55 -26.5t-47 -19.5q-46 -16 -73 -18q-6 0 -8 -1l-29 -24q-80 -71 -160 -126q-6 -5 -18.5 -13t-18.5 -12q-73 -47 -131 -70q-47 -19 -79 -19q-16 0 -30 4q-23 6 -28 29q-1 5 -1 10q0 13 9 13q5 0 5 -5q0 -1 -0.5 -3.5t-0.5 -4.5
q0 -22 25 -27q11 -3 22 -3q17 0 43 8q50 14 98 39q50 28 99 63t105 81q26 22 42.5 36t25.5 23l6 6q-14 5 -14 17q0 3 1.5 6t4.5 5q14 13 59 29q16 6 29 19q9 8 33 33.5t49.5 53t39.5 43.5q24 26 70 84t61 80q4 6 50 80q-8 -4 -19 -10q-10 -5 -24 -11.5t-24 -11t-22.5 -10.5
t-23.5 -12q-118 -64 -227 -158q-5 -5 -15.5 -14.5t-19 -17.5t-15.5 -15q-46 -47 -77 -96q-5 -10 -9 -17q-4 -9 -4 -14t5 -5q2 0 5 1.5t4 3.5q6 4 10 12q1 1 2 3.5t2 4.5t3 3q6 0 8 -8q0 -4 -7.5 -13.5t-17.5 -14.5q-7 -2 -11 -2q-7 0 -10.5 5t-3.5 11q0 11 5 21t12 20
q47 68 123 133l34 30q112 91 244 156q15 8 42 20.5t34 15.5q3 2 5 4t3 4.5t4 11.5l2 8q12 29 12 48q0 3 -1 5q-5 11 -11 14q-9 5 -32 5q-25 0 -69 -14q-318 -101 -605 -438q-50 -57 -71 -102q-3 -5 -3 -11q0 -7 5 -8v0q4 0 9 2h2q6 0 6 -4t-5 -6.5t-11 -2.5q-5 0 -9 2
t-6 6.5t-2 9.5q0 4 1 9q10 31 42 68q14 18 44 54q91 106 179 182q103 90 207 151l28 16q62 35 132 63q52 20 80 26q32 8 52 8q18 0 30 -5q21 -9 21 -36q0 -19 -11 -46l-6 -16l6 2t6 2.5t6.5 2.5t6.5 2t6 2.5t4.5 2t5 2t6.5 2.5l7.5 2.5l9 3t10 3t10.5 3.5q70 22 118 22
q35 0 48 -22q5 -8 5 -22q0 -12 -4 -24q-20 -57 -104 -137q-11 -11 -27.5 -25t-35.5 -29.5t-39 -31t-40.5 -30.5t-37.5 -27l-32 -22zM617 293q5 1 12 2l14 2t14 1.5t14 0.5h13q9 0 15 -1q8 1 24 8q32 19 70 45q129 84 228 171q11 9 22.5 20t23.5 24q46 48 67 89q12 26 12 42
q0 19 -15 27q-13 7 -30 7q-6 0 -12 -1q-61 -9 -157 -44q-4 -1 -11 -3.5t-11 -4.5t-8 -3q-3 -6 -8.5 -15.5t-13 -21.5t-10.5 -16q-13 -21 -42 -63q-81 -111 -185 -218q-41 -43 -48 -51q7 1 22 3zM680 288h-1h-2q-13 0 -36.5 -3t-42.5 -7t-21 -6q-3 -2 -11 -10t-12.5 -12
t-10.5 -10l-10 -10q9 1 25 4.5t22 5.5l29 11q33 11 78 36q-3 0 -7 1zM513 248q-6 -3 -9 -6.5t-3 -5.5q2 -4 5 -5q1 0 2 0.5t3 0.5q12 7 35 32q-12 -5 -33 -16zM418 91q-8 -9 -8 -16q0 -10 14 -16t37 -6q11 0 23 1q108 16 218 91q48 32 70 62q-41 -5 -64 -10
q-29 -5 -45.5 -8.5t-41.5 -9.5t-45 -11q-8 -3 -14 -5t-13.5 -4t-13.5 -4.5t-13 -5t-14 -4.5q-72 -33 -90 -54z" />
    <glyph glyph-name="C" unicode="C" horiz-adv-x="653" 
d="M509 538q4 0 7 -1t6 -3.5t3 -6.5q0 -1 -0.5 -3.5t-0.5 -3.5v-6q-1 0 -1 1l-3 3q-5 5 -14 5q-7 0 -15 -2q-19 -6 -53 -30q-32 -25 -54 -47q-13 -13 -20 -21t-14 -21.5t-7 -24.5v-2q0 -8 2 -10.5t9 -2.5h3q22 3 86 36q30 15 56 32q21 12 87 59q45 34 84 75q45 47 58 82
l3 17q0 36 -54 36q-56 0 -140 -30q-67 -24 -138 -66q-137 -80 -241 -208q-86 -104 -113 -198q-10 -39 -10 -72q0 -44 22 -62q21 -19 61 -23h19q34 0 78 9q23 5 46.5 12.5t50.5 17.5q28 11 59.5 25.5t54 26t59 30.5t53.5 28q48 25 100 57q21 12 25 12t4 -4q0 -2 -2 -4
t-15.5 -10.5t-33.5 -20t-43 -24.5t-47 -26t-43 -23q-66 -34 -168 -77q-93 -39 -172 -41q-3 -1 -6 -1h-6q-57 0 -86 30q-25 26 -25 73q0 57 26 121q42 96 145 202q131 136 291 206q31 13 57.5 22.5t54.5 16.5q46 13 81 13q68 0 68 -47q0 -6 -1 -12q-6 -35 -54 -87
q-23 -25 -43 -42q-104 -92 -231 -152q-40 -21 -62 -21t-22 26q0 42 60 95q60 51 108 65q6 2 11 2z" />
    <glyph glyph-name="D" unicode="D" horiz-adv-x="1024" 
d="M847 749q27 -16 27 -51v-5.5t-0.5 -6.5t-0.5 -5v-1q103 38 147 48q70 19 118 19q96 0 105 -72q1 -6 1 -12q0 -24 -14 -58q-19 -48 -75 -117q-103 -124 -281 -234q-133 -80 -260 -117q-71 -19 -136 -19h-4q-84 0 -92 37q-1 5 -1 7l-23 -15q-29 -18 -45.5 -27.5t-30 -16.5
t-39.5 -20q-80 -40 -139 -50q-15 -2 -28 -2q-36 0 -49 18q-7 11 -7 25q0 43 65 109q32 32 92.5 82t116.5 88q72 48 159 102q201 123 348 192q50 22 52 24q5 4 6.5 13t1.5 20q0 18 -14 30q-24 20 -68 20q-16 0 -42 -3q-42 -4 -94 -19q-73 -20 -177 -71q-186 -89 -281 -200
q-4 -4 -7 -8q0 2 1 5t1 5q4 14 20 30q130 139 384 231q85 30 146 39q10 1 14.5 1.5t13 1t15.5 0.5q46 0 74 -17zM433 131l22 -2t23 -1q97 0 210 47q72 29 169 85q75 44 152 109q72 59 127 122q60 73 79 127q11 32 11 54q0 45 -45 56q-19 5 -44 5q-28 0 -70 -7
q-15 -3 -31 -6.5t-27.5 -7t-30.5 -9t-27 -8.5t-29.5 -10t-27.5 -9q-1 -1 -12 -5t-13 -6l-5 -15q-10 -25 -27 -52.5t-41.5 -60t-58.5 -70.5q-135 -152 -294 -263q-46 -32 -48 -36q-1 -2 -1.5 -4t-0.5 -4q0 -10 14 -18.5t26 -10.5zM381 184q2 9 5.5 18t7.5 15.5t8.5 11
t7.5 4.5t5 -1t2 -4q0 -2 -1 -3l-4 -4q-1 -2 -2 -3.5t-3 -3.5t-3 -4q-6 -11 -8 -22q3 3 9 7t13 9t17 12t19.5 14t22.5 16q110 83 213.5 193.5t145.5 190.5q9 18 13 30q-14 -7 -100 -49q-72 -35 -159 -85l-123 -72q-6 -4 -10 -6.5t-16 -9.5q-27 -17 -57 -36q-23 -15 -112 -78
q-64 -44 -146 -116q-34 -30 -62.5 -66t-29.5 -60v-4q0 -17 9 -24.5t34 -8.5q20 0 39.5 4t43.5 13t59 25q60 29 123 68q38 23 39 29z" />
    <glyph glyph-name="E" unicode="E" horiz-adv-x="458" 
d="M97 180q-54 -37 -54 -75q2 -14 11 -19.5t27 -5.5q30 0 69 14q36 13 134 58q28 13 99.5 56.5t78.5 47.5q2 1 4 1q4 0 7 -6q-18 -11 -51 -30.5t-54 -32.5t-50.5 -29.5t-55.5 -28.5q-77 -37 -128 -51q-31 -9 -55 -9q-48 0 -48 36q0 26 28 57q22 22 54 42l-3 1q-30 5 -54 23
q-36 27 -36 83q0 26 9 52q11 27 31 57t44 57t48.5 49.5t49.5 40.5q74 57 134 92q50 30 119.5 57t117.5 34q22 3 39 3q48 0 65 -27q8 -11 8 -26q0 -28 -26 -64q-16 -21 -45 -48q-59 -53 -106 -83q-127 -79 -171 -79q-16 0 -24 8t-8 20q0 30 31 68q49 61 140 114q16 9 24 9
q3 0 5.5 -1.5t2.5 -5.5q0 -3 -6 -5q-5 -2 -8 -3q-39 -22 -59 -36t-39 -30q-28 -24 -47 -48.5t-28 -49.5q-2 -7 -2 -12q0 -17 22 -17h6q29 6 73.5 29.5t83.5 50.5q63 43 116 91q25 23 43 54q12 20 12 35q0 12 -8 22q-15 23 -54 23q-26 0 -69 -11q-29 -7 -83 -28t-90 -39
q-17 -10 -37.5 -22.5t-38 -24.5t-36.5 -25q-68 -50 -114.5 -94t-80.5 -99q-32 -51 -32 -93q0 -56 48 -79q31 -14 45 -14q3 0 9 4q22 13 53 27q22 11 57.5 23.5t53.5 15.5q12 2 24 2q27 0 27 -13q0 -22 -62 -43q-76 -26 -149 -26q-7 0 -20 -9q-3 -2 -6.5 -4.5t-8 -5.5
t-6.5 -5zM334 264q6 6 6 9q0 5 -16 5q-31 0 -68 -14l-29 -11q-30 -10 -81 -39l28 1q37 4 93 19q56 19 67 30z" />
    <glyph glyph-name="F" unicode="F" horiz-adv-x="683" 
d="M726 498l9 15q-98 -9 -134 -9h-1h-27q-7 -1 -18 -2t-19 -1.5t-17.5 -1t-17.5 -1.5q-12 -2 -19 -3.5t-16.5 -3.5t-17.5 -5l-16 -6q-9 -4 -16.5 -9t-15 -11t-14.5 -14q-11 -12 -13 -28q-2 -9 -6 -9q-6 0 -6 9q0 10 10.5 25.5t25.5 27.5q48 36 166 41q53 2 138 7l4 1
q27 3 32.5 4t9.5 5q17 29 21 37q15 33 15 50q0 16 -10 30q-5 7 -17.5 13.5t-27.5 10.5t-31 6t-32 2q-3 1 -6 1q-79 0 -192 -33q-144 -43 -266.5 -121.5t-176.5 -177.5q-5 1 -5 5q0 8 11.5 27.5t23.5 32.5q122 141 344 223q9 4 18.5 7t19.5 6t19 5q22 8 45.5 14t46.5 10t48 7
q38 5 67 5q45 0 79 -11q51 -16 51 -62q0 -26 -23 -71q-1 -3 -3.5 -6.5l-5 -7t-2.5 -4.5q68 10 134 26q43 12 44 16q2 12 17 12q10 0 10 -7q0 -5 -6 -10t-12 -7q-26 -10 -116 -28q-5 -1 -8.5 -1.5t-8.5 -1.5t-9.5 -2t-8.5 -1q-32 -5 -38.5 -7.5t-16.5 -16.5l-6 -8
q-21 -29 -42 -53.5t-45.5 -49t-62.5 -59.5l-9 -9q4 1 7.5 1.5t8 1.5t8.5 1q6 1 10 2.5t7 3.5t11 9q3 2 5 4q26 20 38 20q9 0 15 -8l4 -7q0 -4 -3.5 -7t-9 -5.5t-14.5 -3.5l-20 -9q-10 -7 -27.5 -22.5t-20.5 -22.5q-4 -9 -4 -15v-4q3 -3 3 -5q-1 -3 -5 -4h-1q-2 2 -4 4.5
t-3 6t-1 6.5v2v1q2 17 12 29q4 7 10 15l1 1q-37 -5 -40 -6q-3 -2 -10 -7t-13 -9.5t-15.5 -11.5t-12.5 -9q-95 -67 -198 -120q-94 -45 -191 -70q-40 -10 -70 -10q-52 0 -64 29q-4 11 -4 22q0 13 5 23q7 12 18 12q6 0 6 -7q0 -2 -2 -3q-12 -9 -12 -26q0 -8 4 -16q9 -23 52 -23
q39 0 96 18q136 44 261 120q67 40 125 86l-70 -7q-34 -3 -48 -4l-52 -5q-19 -2 -23 -2q-9 0 -9 4.5t28 7.5q7 0 11 1q7 1 149 13q16 2 21.5 3.5t10 4.5t16.5 12q17 14 35.5 31t35.5 34t33 35t29 34t23 29z" />
    <glyph glyph-name="G" unicode="G" horiz-adv-x="592" 
d="M190 21q-43 -21 -64 -21q-9 0 -21 3.5t-12 7.5t4 4q2 0 4 -1q5 -4 15 -4q4 0 20 2q5 0 9.5 1.5t9.5 3.5t8.5 3.5t9.5 5t8 4.5q52 24 95 55q27 19 57.5 44t50.5 43t56 50t51 46q25 23 83 72l-2 -1q-63 -30 -213 -96q-81 -36 -152 -54q-62 -15 -99 -15q-15 0 -29 2
q-37 7 -53 25q-14 20 -14 50q0 32 14 65q16 39 74 100q26 29 92 81q47 38 125 89q67 43 135 76q110 54 170 70q62 19 108 19q42 0 74 -16q30 -17 30 -48v-2q0 -21 -8.5 -43t-20.5 -39t-31 -35.5t-33.5 -30t-34.5 -26.5q-46 -31 -95 -57q-67 -36 -95 -43q-7 -2 -15 -3.5
t-16 -1.5q-22 0 -32 9q-7 8 -7 21q0 8 3.5 17.5t7.5 16.5q16 31 47 59q52 46 85 55q8 2 11 2q4 0 4 -4t-7 -8h-1q-3 0 -7 -3q-69 -46 -100 -80q-32 -34 -32 -55q0 -10 7 -16q6 -6 18 -6q26 0 66 18q25 10 72 37q34 19 66 41t61 46q68 62 76 119q1 5 1 10q0 14 -7 22
q-20 34 -96 34q-38 -1 -105 -20q-86 -29 -173 -76q-175 -93 -305 -209q-111 -102 -114 -182v-7q0 -34 18 -48q21 -16 68 -16q16 0 33 2q25 3 55 11q69 16 205 75q108 47 159 75q40 20 52 26.5t22 14.5q20 13 43 30q20 14 26 18q10 7 23.5 13.5t22.5 9.5q6 1 8 1q6 0 6 -6
q0 -7 -35 -22q-9 -3 -10 -4q-57 -34 -110.5 -76t-121.5 -103q-12 -11 -53 -48t-60.5 -53.5t-54 -44.5t-66 -47t-64.5 -34z" />
    <glyph glyph-name="H" unicode="H" horiz-adv-x="1015" 
d="M978 342q93 70 132 70q16 0 16 -10q0 -11 -24.5 -30t-56.5 -36q-23 -12 -107 -54q-9 -4 -41 -46q-7 -8 -14 -19.5t-13 -25.5t-6 -23q0 -3 1 -6t3 -5q2 -3 2 -5q0 -5 -5 -5q-7 0 -12 10q-1 4 -1 10q0 13 7 31.5t19 37.5t26 35q-6 -3 -22 -8t-21 -7q-14 -5 -29 -9
q-39 -12 -52.5 -18t-29.5 -19q-60 -43 -131 -85q-129 -76 -258 -119q-130 -41 -238 -41h-21q-31 0 -60.5 8.5t-42.5 25.5v1q0 4 4 4q2 0 4 -3q9 -6 22 -10.5t26.5 -7t25 -4t21 -2.5t10.5 -1q36 0 85 5q126 16 273 81q55 24 108.5 54t102.5 64q25 18 26 18q2 2 5.5 4.5t8 5.5
t8.5 6t9 6q-36 -10 -148 -35.5t-171 -44.5q-2 0 -28 -7q-3 -1 -6 -1q-2 -1 -5 0q2 2 3 4t4 4t6.5 3.5t8 3t8.5 2.5t8.5 2.5l7.5 2.5q32 9 71.5 19t71.5 17t74 16.5t72 17.5q23 6 32.5 10t21 12t35.5 28q55 46 97.5 90.5t69 82.5t34.5 68q3 11 3 22q0 36 -36 49
q-31 11 -75 11q-22 0 -52 -2q-51 -4 -131 -20q-74 -17 -145.5 -38t-139.5 -45q-202 -76 -331 -162q-63 -46 -73 -66q-5 -8 -7 -8q-4 0 -4 7q0 4 3 11q6 9 29.5 29.5t43.5 33.5q19 13 59 36.5t56 30.5q84 45 180 82q101 39 243 78q95 24 147 32q16 3 31 5t30.5 4t30.5 2.5
t29 0.5q83 0 112 -33q15 -18 15 -42q0 -59 -76 -144q-46 -49 -101 -98q-24 -21 -52 -47q7 2 39 13q59 18 84 28q33 36 61 57zM1085 371q28 21 28 28q0 1 -3 1q-7 0 -22 -7q-15 -6 -38 -19t-52.5 -35t-48.5 -43q94 46 136 75z" />
    <glyph glyph-name="I" unicode="I" horiz-adv-x="648" 
d="M12 81q-2 5 -2 10q0 20 18 36l10 9q-5 -8 -6 -11q-11 -21 -11 -31q0 -19 19 -30q6 -4 31 -8q8 -1 16 -1q39 0 98 16q110 27 264 133q129 88 259 236q45 52 84 115q42 69 42 111q0 14 -5 23q-11 19 -50 19q-19 0 -45 -5q-29 -5 -58 -13.5t-57 -20.5t-53.5 -25t-52.5 -29
t-49 -30t-47 -32q-90 -65 -127 -111l-2 -3q-1 7 -1 8q0 3 1 6.5t2 5.5t4 5.5t3.5 4t3.5 4.5q51 50 122 97q84 58 153 91q107 51 184 56q7 1 13 1t13 -1q44 0 57 -30q6 -12 6 -28q0 -14 -5 -35q-16 -55 -72.5 -130.5t-145.5 -160.5q-43 -43 -75 -70q-157 -129 -317 -190
q-72 -27 -144 -30q-34 0 -54 10q-20 13 -24 28z" />
    <glyph glyph-name="J" unicode="J" horiz-adv-x="671" 
d="M115 354q4 0 4 -3q-1 -6 -9 -6q-11 0 -11 11q0 18 37 54q52 51 150 114q86 55 190 95t176 40q83 0 95 -57q2 -9 2 -18q0 -40 -34 -97q-36 -59 -78 -104q-6 -7 -26 -27.5t-45.5 -46.5t-51 -51t-39.5 -35q16 3 36.5 6.5t40.5 6.5t36 6q19 4 27 5.5t18 3t21 3.5q12 2 19 4
q4 1 5 1q4 0 4 -4q0 -2 -1 -3.5t-4 -2.5l-4.5 -1.5t-5.5 -1.5t-5 -1q-29 -5 -97.5 -17.5t-103.5 -18.5q-3 -1 -7.5 -3.5t-14.5 -9.5t-29 -20q-55 -39 -96 -63q-55 -32 -111.5 -58t-117 -43.5t-105.5 -17.5q-22 0 -39 4q-39 10 -39 35q0 6 3 13q11 27 65 49t152 48
q146 38 309 70q14 3 69 52.5t89 85.5q33 34 53.5 57t44.5 57.5t37 66.5q13 33 13 56q0 59 -85 59q-66 0 -149 -29q-128 -46 -231 -114q-52 -34 -105 -79q-26 -22 -40 -40t-14 -26q0 -3 2 -5zM-44 8q8 -1 19 -1q45 0 113.5 21t117.5 46q53 27 85.5 46t123.5 79q-1 -1 -3 -1
t-3.5 -0.5t-3.5 -1t-4 -0.5q-187 -41 -275 -65t-155 -51q-16 -7 -28.5 -15.5t-19 -16.5t-6.5 -16q0 -18 39 -24z" />
    <glyph glyph-name="K" unicode="K" horiz-adv-x="992" 
d="M540 289q-22 14 -33 22q-50 -4 -74 -4q-21 0 -38 3q-87 12 -98 39q-1 3 -1 6q0 12 17 19q18 9 40 9q10 0 22 -2q23 -3 48 -13t41 -19t43 -24l74 10q23 3 30 6q5 2 8 3.5t6.5 3.5t8 5.5t11.5 8.5q58 42 144 118q16 14 36.5 37t30.5 37q11 14 20 28.5t13 29.5q3 9 3 18
q0 24 -21 41t-46 24t-53 9q-26 2 -54 2q-38 0 -77.5 -3.5t-82.5 -10.5q-144 -21 -275 -67t-213 -116q-11 -10 -16 -26q-3 -10 -9 -10q-2 0 -5 1q-6 2 -6 10t6 17q35 48 177 111q146 64 348 92q84 12 153 12q17 0 33 -0.5t31 -2.5t28.5 -4.5t25.5 -5.5q30 -8 49.5 -30
t19.5 -50q0 -9 -2 -19q-3 -13 -9.5 -26t-15.5 -25.5t-18 -22.5t-20 -21q-52 -56 -88 -84q-18 -15 -30.5 -25t-29 -23t-30.5 -25q3 0 7 1l8 2t8.5 2.5t7.5 1.5q56 14 83 24q17 6 50.5 16t50.5 16q50 19 142 59t134 56q15 7 22 7q7 -1 7 -4t-13 -8q-15 -6 -23 -10
q-49 -20 -105 -45q-57 -26 -90 -40q-150 -56 -282 -89q-2 0 -5 -1q-14 -3 -20.5 -5t-16.5 -7.5t-24 -15.5q-16 -11 -33 -25l19 -16q107 -79 122 -90q29 -23 46.5 -35t45.5 -27t53 -23t55 -8q28 0 56 6.5t54 16.5q5 2 12 6q5 3 6 3q5 0 5 -6t-19 -14q-2 -1 -3 -1
q-47 -19 -96 -22q-8 -1 -15 -1q-34 0 -63 11t-69 34q-18 9 -78 55q-26 18 -129 92l-14 9q-53 -34 -104 -62q-74 -40 -114 -56q-96 -39 -136 -51q-84 -24 -144 -24q-27 0 -49 5q-20 4 -30 15q-9 9 -9 19q0 9 6 9q2 0 3 -4q1 -6 4 -12q11 -19 63 -19q71 0 156 26q61 19 174 72
q26 12 46 22.5t38 22.5q57 35 66 41q8 5 12 8zM394 321h10t7.5 -0.5t8.5 -0.5h8q21 0 61 4l-35 20q-32 17 -60 24q-17 4 -38 4q-44 0 -48 -15v-2q0 -11 30 -21.5t56 -12.5zM553 321q-23 -3 -30 -5q24 -17 29 -19q3 1 18.5 11.5t27.5 20.5q-8 -1 -45 -8z" />
    <glyph glyph-name="L" unicode="L" horiz-adv-x="743" 
d="M156 373v-1l1 -1t1 -2q0 -5 -6 -5q-10 0 -10 10q0 15 11 32q8 14 27 33q145 138 416 236q19 7 34.5 12t35 9.5t25 6t32.5 6t31 5.5q46 8 78 8q55 0 77 -23q13 -13 13 -32q0 -54 -96 -152q-99 -101 -248 -210q-30 -24 -85 -59q-4 -2 -27 -15q-9 -5 -14.5 -8t-14.5 -9
t-18 -13q-5 -4 -15 -10q16 -9 29 -16.5t45 -28.5q41 -26 49 -33q47 -31 77 -35q6 -1 12 -1q43 0 80 32q4 5 7 5q5 0 5 -7q0 -3 -1 -5q-21 -36 -77 -36q-8 0 -16 0.5t-15.5 2t-14 3t-13.5 4.5t-12 5.5t-11.5 6t-11 6t-11 7t-10.5 7.5t-10 7q-83 59 -112 68q-73 -35 -84 -39
l-20 -8q-47 -20 -71.5 -29.5t-60 -19.5t-59.5 -10q-58 0 -58 27q0 4 1 7q4 22 42 50q38 27 100 43q53 12 98 12h17q22 -2 55 -12q23 -6 33 -7q105 54 226 147q65 54 112 95q44 38 69 61t57.5 62.5t49.5 74.5q8 15 8 28q0 16 -14 30q-16 15 -65 15q-54 0 -122 -16
q-196 -47 -356 -143q-20 -13 -33 -20q-39 -23 -57 -37q-29 -24 -65 -57q-16 -16 -26 -32q-13 -15 -14 -32zM91 155q-14 -10 -26 -25t-12 -24q0 -16 38 -16q28 0 58 8q100 26 206 82q9 4 22 11q-3 2 -15 5q-22 6 -28 7q-15 2 -29.5 3.5t-29.5 1.5q-60 0 -124 -22
q-35 -14 -60 -31z" />
    <glyph glyph-name="M" unicode="M" horiz-adv-x="1131" 
d="M88 357q-3 0 -3 5v1q0 23 47 71t94 84q78 58 173 107q129 66 272 114q152 50 250 50h7.5h7.5q70 -2 104 -30q12 -10 17 -24.5t5 -30.5q0 -12 -2 -25q-17 -76 -161 -201q-23 -20 -30.5 -27t-8.5 -11q-19 -68 -51 -121q-5 -9 -15 -30q11 7 36.5 20t58.5 29.5t45 23.5
q20 11 43 22.5l45 22.5t43.5 21.5t45.5 22.5l44 22q101 50 151 70q6 2 28 18q43 31 80 52.5t56 28.5q11 4 19 4q14 0 14 -12v-4q-2 -10 -47 -32h-1l-1 -1h-1l-1 -1l-2 -1h-1l-1 -1h-1l-1 -1h-1q-14 -7 -31.5 -15.5t-27 -13t-23 -11t-23.5 -12.5t-23 -14.5t-27.5 -18.5
t-30.5 -23l-46 -35q-180 -143 -267 -252q-34 -43 -53 -82q-22 -47 -22 -84q0 -10 2 -17t2 -10.5t-4 -3.5t-10 16q-4 11 -4 26q0 30 14 68q22 60 101 144q71 76 144 135q16 14 44 38t51.5 43t47.5 35l10 7q-89 -41 -222 -107q-51 -25 -88.5 -45.5t-76 -41.5t-89.5 -47
q-9 -4 -11.5 -6.5t-9.5 -13.5q-8 -12 -60 -77q-38 -50 -96 -84q-39 -23 -63 -23q-20 0 -20 16q0 13 15 31q20 24 109 90q21 16 101 62q9 5 18 22q38 72 53 108q3 9 6 15.5t4.5 10.5t2.5 7l-63 -47q-110 -80 -244 -149q-142 -74 -271 -111q-111 -31 -174 -31q-34 0 -64 7
q-41 10 -41 43q0 10 4 21q5 12 16 12q7 0 7 -5q0 -2 -3 -3q-2 -1 -3 -2l-2.5 -2.5t-2.5 -3.5q-5 -10 -5 -20q0 -16 17 -24q25 -13 73 -13q40 0 79 8q100 22 180 53q135 53 261 128q138 82 213 141q12 10 17.5 15t9 9.5t4 6l2.5 7.5q10 36 10 61q1 8 0 11v2q1 2 2 2
q3 0 5.5 -1t2.5 -3q0 -4 0.5 -11.5t0.5 -12.5q0 -22 -5 -44q37 29 67 58q109 104 112 173v3v3q0 19 -13 33q-29 35 -113 35q-11 0 -22 -1q-93 -5 -211 -44q-125 -40 -270 -112q-177 -86 -282 -196q-31 -34 -39 -57q0 -1 -0.5 -3.5t-1 -4.5t-1.5 -3t-4 -1h-0.5h-1.5z
M1491 631q-18 -1 -51 -20q-4 -2 -33 -21q24 11 50 23q28 13 34 18zM554 105q-10 -13 -10 -20q0 -5 8 -5q12 0 33 10q34 15 74.5 51t67.5 75l23 33q-152 -88 -196 -144z" />
    <glyph glyph-name="N" unicode="N" horiz-adv-x="936" 
d="M725 192q-17 -29 -42 -55t-40 -26q-4 0 -7 3t-3 7q0 7 4.5 17t11 20t15.5 21.5t16.5 20.5t14.5 17q5 5 13.5 14t15.5 16.5t14 14.5q35 35 82 219q-184 -222 -487 -352q-53 -22 -124 -41.5t-131 -19.5q-53 0 -85 25q-16 13 -16 32q0 20 14 34q2 2 5 2q4 0 4 -4q0 -1 -3 -4
q-4 -4 -6 -8.5t-3 -8t-1.5 -6.5t-0.5 -4q0 -23 27 -34t63 -11q86 0 200 42q251 93 436 264q68 63 111 118q19 25 37 70q7 18 11 33t4 29q0 7 -1 14q-6 36 -43 51q-27 12 -65 12q-30 0 -73 -8q-33 -6 -67 -16.5t-72 -24.5q-187 -71 -337 -172l-38.5 -27.5t-37 -28
t-35.5 -29.5q-16 -16 -22 -31q-3 -10 -6 -10q-6 0 -6 7v5q3 19 54 61q68 58 174 118q183 105 353 149q21 5 37 8.5t36.5 6.5t38.5 3h6.5t7 -0.5t6.5 -0.5q33 -3 59.5 -15.5t38.5 -37.5l3 -5q6 -16 6 -34q0 -17 -5.5 -37t-12.5 -35t-15.5 -34.5t-12.5 -32.5q-8 -24 -21 -67.5
t-22 -70.5q-9 -28 -15 -42q4 4 8.5 8t9 7.5t9 7.5t9 7.5t9 8t9 8t9.5 7.5t9 7q4 4 76 57q138 101 318 188q37 18 69 31t70 24t73 15q13 1 22 1q19 0 28 -8q6 -6 6 -14q0 -16 -13 -17h-1q-4 1 -4 6q0 1 2 6q3 7 3 11q0 7 -19 7q-8 0 -18 -1q-117 -16 -271 -98
q-95 -50 -183 -107t-168 -122q-12 -10 -24 -21t-20.5 -18.5t-26.5 -25.5q-36 -68 -54 -96zM732 237q3 5 6 12q-6 -7 -12.5 -14t-12.5 -14l-20 -23q-11 -13 -21.5 -27.5t-18 -27.5t-7.5 -18q4 1 18 14.5t27 31.5q8 11 41 66z" />
    <glyph glyph-name="O" unicode="O" horiz-adv-x="644" 
d="M23 378q-3 12 -3 25q0 32 23 66q30 44 86.5 77t113.5 50q55 16 121 16q25 0 53 -3l29 -2q82 35 101 41l5 2q75 24 132 24q63 0 103 -23q31 -18 40 -51q3 -12 3 -23q0 -42 -40 -91q-7 -8 -26.5 -26t-26.5 -30q-17 -24 -45 -53q-16 -19 -52 -57q-87 -89 -226 -173
q-46 -28 -80 -45.5t-79 -36t-88 -28.5q-15 -4 -33 -6t-35 -2q-16 0 -30 2q-39 5 -55 32q-14 17 -14 48q0 11 2 24q5 39 22 76.5t54 88.5l9 13q-3 2 -8.5 5t-8.5 5q-19 14 -26 22q-12 13 -21 33zM717 596q9 1 17 1q61 0 61 -51q0 -21 -15 -49l-7 -13q14 15 22 27q25 35 25 67
q0 6 -1 12q-3 32 -29 48t-66 25q-9 1 -18.5 1.5t-18.5 0.5q-36 0 -77 -8q-16 -4 -29.5 -8t-28 -9t-29.5 -11q-17 -6 -57 -25q28 -6 63 -18q23 -7 52 -21l5 -3q9 -5 10 -5q0 1 2 1q71 31 119 38zM434 598q-38 4 -68 4q-112 0 -214 -55q-63 -35 -98 -82q-22 -32 -22 -62
t20 -50q21 -20 44 -31l17 20q26 31 97 95q26 23 55 46t59 44q7 5 15 11t14.5 10.5t16.5 10.5t15 9.5t16 10t16 9.5zM456 597h-1q-1 0 -19 -11l-16 -9q-7 -4 -22 -13.5t-32.5 -21.5t-33.5 -23l-18 -14q-30 -21 -38 -29q-3 -2 -6 -4.5t-5.5 -4.5t-5.5 -4.5t-6 -4.5
q-87 -73 -141 -143q12 -5 24 -9q32 -10 101 -20q11 20 34 45q58 60 148 120l30 19q83 54 136 83q-4 2 -9 4t-8 3.5t-7.5 3.5t-8.5 3.5t-10 4t-14 5.5q-33 11 -72 20zM777 519q7 16 7 29q0 18 -12 29q-14 12 -41 12h-7q-11 -1 -20.5 -3t-22 -5.5t-23.5 -7.5t-32 -12l-20 -10
q30 -23 30 -30q0 -3 -3 -2q-7 0 -8 4l-2 2q-17 17 -26 22q-87 -48 -163 -98q-52 -34 -108.5 -85t-74.5 -81q20 -1 43 -1q30 0 55 2q83 10 160 34q62 22 108 47q65 35 102 67q20 17 28 28q21 30 30 59zM69 43q17 -3 35 -3q20 0 53 5q37 6 89 27q37 16 64 29q64 32 128 72
q56 35 118 85q53 42 107 101q1 1 17.5 21t25.5 30q-14 -10 -28 -19t-29 -17q-33 -21 -97 -47q-26 -10 -47 -17.5t-46 -14.5t-48 -10q-65 -12 -114 -12q-3 0 -8.5 -0.5t-9 -0.5t-8.5 0.5t-9 1.5l-15 1q-4 -9 -9 -30q-1 -2 -1 -4.5v-4.5q0 -6 1 -10t3.5 -6.5t6.5 -3.5
q1 0 2.5 -1t1.5 -2q0 -8 -9 -8l-6 2q-13 6 -14 24q0 20 10 45q-76 12 -114 25q-1 0 -7 2.5t-8 3.5l-10 -14q-26 -30 -47 -73q-30 -62 -30 -107q0 -57 52 -70z" />
    <glyph glyph-name="P" unicode="P" horiz-adv-x="1172" 
d="M582 424v-1q0 -9 -7 -9t-7 8q1 10 8 21t23.5 26.5t25 23t30.5 25.5q70 56 133 92q6 3 10 5.5t7.5 4.5t6.5 3.5t6 3.5t5 3.5t5 2.5q5 3 8 4v7q0 32 -22.5 44.5t-57.5 12.5h-2.5t-3.5 -1q-40 0 -92 -12t-105 -33t-105 -48q-49 -26 -109.5 -68t-77.5 -62q-1 -1 -1 -1.5v-0.5
q0 -3 5 -10l1 -1q-10 -4 -11 -4q-4 0 -9 6q-1 2 -1 4q0 4 3 8q7 13 31 32.5t58 43.5q110 77 224 117q44 17 102 31q46 12 87 12q24 0 42 -5q29 -7 44 -24t15 -38v-1l24 9q35 15 83.5 27.5t100 21t90.5 8.5h8q79 0 128.5 -33t49.5 -98q0 -13 -2 -28q-8 -48 -29 -85.5
t-67 -90.5q-55 -64 -169 -134l-46 -26q-131 -67 -265 -71q-29 -2 -54 -2q-16 0 -30.5 0.5t-28.5 1.5t-27 2.5t-25.5 3.5t-24.5 4.5t-23.5 6t-22.5 7t-22 8t-23 9.5q-1 -1 -3.5 -2.5t-6.5 -3.5q-83 -50 -89 -53q-78 -40 -140 -62t-125 -22q-6 0 -13 1q-18 0 -34 4t-26.5 10.5
t-16.5 14.5t-6 17q0 14 14 27q3 3 9 3q7 0 7 -7q0 -5 -8 -12q-6 -7 -6 -13t7.5 -12.5t18 -10.5t20.5 -6q17 -3 36 -3q68 0 174 43q32 13 81.5 38.5t78.5 44.5l17 12q-9 6 -12 9q-11 11 -17 19q-12 20 -12 36v10q1 6 4.5 13.5t7 13.5t6.5 7q2 1 3 1q5 0 5 -4q0 -2 -3 -5
q-4 -5 -6 -12q-5 -11 -5 -22q0 -27 24 -46q6 -6 16 -13l28 19q175 124 294 325q23 38 34 74l-15 -7q-10 -6 -38 -22.5t-39 -24.5q-17 -11 -34.5 -24t-33.5 -25.5t-33 -27.5q-35 -30 -45 -41.5t-12 -23.5zM1320 557q2 13 2 25q0 50 -36 79q-24 22 -68 31q-39 7 -81 7
q-88 0 -200 -34q-67 -23 -86 -34q-2 -9 -6 -20q-9 -27 -33 -68t-58 -88t-71 -90q-70 -80 -172 -153q-19 -14 -22 -17q48 -24 102 -32q15 -1 30.5 -2.5t30.5 -2.5t29.5 -1.5t29.5 -0.5q142 0 258 49q118 50 216 141q53 49 89.5 101t45.5 110z" />
    <glyph glyph-name="Q" unicode="Q" horiz-adv-x="639" 
d="M160 58q-13 -1 -25 -1q-27 0 -51 6.5t-43.5 19.5t-31 35t-11.5 52q0 109 130 264q62 73 175 152q37 25 101 51t113 35q13 1 46 14q60 25 100 32q10 1 24 1q29 0 41 -3q52 -18 55 -78q1 -8 1 -14q0 -9 -4 -27q-10 -55 -42 -114q-19 -34 -29 -50q-3 -4 -6 -8.5l-7 -10.5
t-7.5 -10t-9.5 -11.5t-8.5 -11t-9.5 -11.5q-15 -20 -46 -51.5t-49 -46.5q-50 -44 -67 -56q-33 -25 -39 -29q-11 -8 -19.5 -13.5t-16.5 -10.5t-18 -12q-12 -8 -35.5 -21t-28.5 -17q-18 -9 -27 -13l-11 -4l3 -8q7 -18 20 -35q10 -13 16 -20q11 -11 11 -15q0 -2 -1 -2h-1
q-1 2 -1 0l-8 4t-13.5 8.5t-11.5 10.5q-15 18 -22 29q-7 10 -12 19l-7 -2q-14 -5 -28.5 -9.5t-29.5 -8t-30 -6t-29 -3.5zM661 599q2 -9 2 -20q0 -24 -7 -50q-29 -109 -158 -212q-115 -91 -224 -110q-9 -2 -12 -5q1 -3 7.5 -21t14.5 -38l10 -25l6 -12l27 12q34 17 70.5 40.5
t66.5 46.5l21 16q51 40 91.5 78.5t78.5 86.5t64 98q32 62 43 110q4 17 4 38q0 8 -1 18q-4 59 -72 59q-25 0 -67 -12q-24 -6 -36 -11q-5 -3 -25 -11q12 0 43 -8q19 -6 33.5 -25.5t19.5 -42.5zM239 209q0 15 9 15q5 0 8 -6q1 -2 2 -3t3 -1q3 0 8 1t14 3q132 31 250 148
q43 46 79 104q34 60 34 115q0 59 -51 74q-22 6 -42 6q-18 0 -32 -6q-133 -66 -228 -167q-4 -4 -8.5 -9t-5.5 -7l-1 -1q-3 -3 -5 -3h-1l-2 4q0 7 17 25.5t46 43t64 50.5q21 17 82 53l12 7q-14 -4 -26 -7.5t-19 -5.5q-95 -34 -178 -94q-150 -111 -230 -269q-27 -57 -27 -100
q0 -9 1 -17q3 -55 52 -79q27 -15 70 -15q67 0 145 32q0 1 -1.5 3.5t-3 5.5t-1.5 4q-17 35 -29 82q-2 9 -3 11z" />
    <glyph glyph-name="R" unicode="R" horiz-adv-x="1138" 
d="M300 528q-33 -23 -86 -67.5t-97 -87.5t-44 -55q0 -1 1.5 -2.5t1.5 -2.5q0 -6 -7 -6q-3 0 -6 3t-3 7v1q1 19 57 74q62 62 147.5 126t150.5 95q140 74 262 104q80 18 149 18q62 0 107 -15q45 -14 73 -39.5t33 -69.5q2 -5 2 -9q71 17 96 21q33 7 60 7q23 0 48 -5
q21 -5 29 -11q16 -10 20 -27q2 -5 2 -12q0 -26 -17 -52q-33 -45 -94 -87q-136 -98 -327 -138q-42 -9 -59 -11q-14 -3 -19 -4.5t-15 -8.5q-11 -7 -14.5 -10t-3.5 -6t3 -13q3 -16 8.5 -29.5t13 -24.5t16.5 -19.5t20 -16.5q58 -45 142 -56q37 -5 101 -5q19 0 29 1q6 1 8 1
q8 0 8 -6v-1v-1v-1q-4 -4 -45 -4h-3h-3q-15 0 -30 1q-100 1 -172.5 35t-97.5 92q-8 19 -13 41l-18 -12q-161 -102 -299 -156q-178 -68 -295 -68q-42 0 -80 8q-56 9 -61 40q-1 3 -1 6q0 8 5 19q2 4 6.5 10t9.5 6t5 -6v-2q-2 0 -3 -1q-12 -8 -12 -25q0 -24 38 -35q38 -9 82 -9
q60 0 137 17q139 29 319 124q81 45 129 75q16 11 31 22q1 1 3 2q-3 10 -5 17q-10 0 -22 4q-13 3 -19 7.5t-6 15.5q0 9 8.5 16.5t20.5 7.5q19 0 28 -23l5 -16q0 -2 6 -2h4.5h5.5q7 0 10.5 1t6 2t9.5 6q30 22 60 47t56 50t48 50t37 46q34 49 37 77l2 7q-22 -7 -48 -16
q-16 -6 -32 -13.5t-33 -16.5q-125 -64 -218 -160q-4 -4 -8.5 -9t-9.5 -11t-8 -10q-7 -6 -7 -12q0 -1 1 -2q0 -4 -2.5 -6.5t-6.5 -2.5q-7 0 -7 8q0 13 42 54.5t99 84.5q45 33 106 66t111 52q2 1 6.5 2.5t8.5 2.5t7 2q1 0 1 2v4.5v5.5q-3 35 -20.5 57.5t-55.5 39.5
q-48 22 -118 22q-104 0 -236 -47q-156 -53 -292 -149zM1250 512q31 33 31 62q0 20 -19 30q-28 15 -64 15q-31 0 -88 -11q-14 -3 -42 -11l-28 -9l-2 -9q-19 -94 -160 -217q-58 -47 -73 -58q-4 -4 -7 -5q26 3 63 10q116 26 221.5 81t167.5 122zM714 297h2.5h3t2.5 -1l-4 13
q-1 3 -3 4.5t-4 2.5t-4.5 2t-4.5 2q-5 0 -8.5 -3t-3.5 -7q0 -7 24 -13zM743 277l5 5h-6z" />
    <glyph glyph-name="S" unicode="S" horiz-adv-x="827" 
d="M554 141q-190 -114 -348 -114q-1 0 -3.5 0.5t-3.5 0.5q-176 0 -189 113q-1 8 -1 16q0 123 215 310q77 64 174 113t192 73q78 20 149 22q10 1 20 1q135 0 171 -66q4 -8 6.5 -17.5t2.5 -19.5q0 -14 -3.5 -30t-9.5 -36q68 30 117 54q6 6 35 35.5t43.5 42.5t38 30.5
t42.5 24.5q9 4 15 4q14 0 14 -13q0 -21 -35 -47q-27 -20 -38 -27q-28 -19 -97 -60l-94 -88q-12 -11 -23.5 -21.5t-24 -21.5t-24.5 -21.5t-24 -21.5t-24.5 -21.5t-23.5 -20.5q-21 -17 -49 -39t-57.5 -43.5t-59 -42.5t-56.5 -39t-47 -30zM1213 669q6 8 6 12q0 3 -4 3
q-7 0 -18 -5q-35 -21 -56 -42l-61 -60q41 23 59 34q59 37 74 58zM348 217q3 -3 3 -5q0 -8 -7 -8q-6 0 -9 6.5t-3 13.5q0 11 6.5 24.5t16 24.5t19.5 20q24 20 78 47q33 17 75 33t69 25.5t77 25.5l238 78q15 36 15 65q0 49 -45.5 72.5t-127.5 23.5q-19 0 -39.5 -1t-41.5 -3
q-42 -6 -100.5 -22.5t-99.5 -33.5q-67 -27 -127 -65q-18 -11 -52 -33q-65 -44 -156 -138q-99 -104 -113 -184q-2 -14 -2 -26q0 -42 26.5 -70.5t75.5 -39.5q34 -7 73 -7q30 0 60 4t60 11q134 32 274 127q182 124 301 231q78 69 136 127q-20 -10 -107 -47l-15 -25
q-39 -62 -108 -125.5t-148 -112t-151 -72.5q-36 -10 -65 -10q-24 0 -24 9q0 3 2 4.5t5 1.5q2 0 7 -1q11 -1 18 -1q10 0 19 1q59 11 142 57t146 98q47 38 88.5 84t66.5 87q-32 -11 -142 -46t-170 -55q-30 -11 -54.5 -20t-58.5 -24.5t-56 -29.5q-38 -23 -58 -43.5t-20 -45.5
q0 -3 3 -7z" />
    <glyph glyph-name="T" unicode="T" horiz-adv-x="517" 
d="M174 83q-96 -58 -142 -58q-28 0 -28 15q0 3 2 7q3 5 11 5h4q-2 -6 -2 -8q0 -5 11 -5q18 0 55 14.5t64 30.5q33 20 114 84t131 106q18 16 51 46t63 58t44 42q54 53 72 72q44 45 118 107q2 1 4 2.5t4 3.5t3.5 3t3.5 3t3.5 3t3.5 2.5t3 2.5l2.5 2.5t2.5 1.5
q-104 -17 -337 -39q-113 -14 -164 -22q-26 -4 -40.5 -7t-36.5 -8t-41 -12q-13 -4 -28.5 -15.5t-18.5 -20.5q-3 -6 -3 -11q0 -8 6 -11q-3 -11 -9 -11h-1h-3q-8 5 -8 18t6 23q4 6 9 11.5t12.5 10t12.5 8t15.5 7t15 5.5t17.5 5t16 4t17.5 4t16.5 3q35 6 76.5 12t70.5 9t80 8
t75 8q128 15 150 18q54 6 107 16q9 1 24 13q28 20 47.5 33t47 29.5t54.5 26.5t53 15q13 2 23 2q17 0 28 -5q12 -7 12 -17q0 -8 -9 -16q-28 -26 -117 -53q-63 -20 -126 -32q-11 -2 -18 -7q-18 -12 -67 -55t-73 -69q-156 -157 -305 -279l-39 -33q-28 -22 -43 -33
q-47 -35 -64 -47.5t-39 -25.5zM1060 733q0 11 -29 11q-15 0 -33 -5q-19 -4 -42.5 -16t-68.5 -39q-10 -7 -25.5 -18t-30.5 -21q35 6 62 14q56 15 95 30.5t55.5 26t16.5 17.5z" />
    <glyph glyph-name="U" unicode="U" horiz-adv-x="1006" 
d="M762 5q4 -3 4 -6q0 -4 -8 -4q-7 0 -11.5 5t-5.5 10q-2 5 -2.5 10.5t-0.5 10.5q0 13 7 44q5 20 15 40t23 40q28 41 74 87.5t82 76.5t93 74q-117 -63 -189 -108q-12 -8 -60 -38q-7 -4 -14.5 -8.5t-16 -9t-14.5 -8t-16 -8.5t-15 -8q-70 -39 -133 -69q-96 -49 -144 -56
q-7 -1 -12 -1q-28 0 -28 30q0 29 22 65q11 17 23.5 33.5t23.5 29t28 30t26.5 27t30.5 28t28.5 25t30.5 26.5q25 22 92.5 78.5t103.5 88.5q53 47 83 82q27 29 27 47q0 7 -4.5 12.5t-13 8.5t-18 4.5t-20.5 1.5q-25 0 -59 -6t-65.5 -14.5t-58.5 -18.5q-71 -26 -162 -70
t-157 -86q-131 -80 -215 -160q-30 -28 -50 -55q-25 -31 -38 -53q-26 -43 -28 -73v-3q0 -16 10 -28q11 -8 30 -8h8q46 3 85 30q3 -3 3 -5t-3 -4q-26 -17 -64 -26q-19 -3 -30 -3q-34 0 -46 22q-5 9 -5 25q3 52 59 123q66 83 186 169q127 86 247 144q167 81 272 102q41 9 78 9
q24 0 42 -4.5t25 -15.5q5 -8 5 -16q0 -39 -74 -106q-40 -36 -59 -54q-28 -24 -100 -84t-110 -93q-29 -27 -52 -49.5t-45 -46.5q-32 -35 -54.5 -71.5t-22.5 -56.5q0 -19 24 -19q27 3 77.5 24.5t90.5 43.5q94 46 256 145q164 100 260 145v-3q0 -9 -3 -16q-3 -6 -9.5 -11.5
t-17 -12t-13.5 -9.5q-205 -140 -290 -282q-29 -53 -29 -86q0 -10 3 -16t8 -8z" />
    <glyph glyph-name="V" unicode="V" horiz-adv-x="657" 
d="M778 471q9 9 9 15q0 2 -1.5 7t-1.5 7v1q1 5 9 9q12 7 24 11q31 11 64 11q8 0 16 -1q17 0 27 -9q10 -7 10 -18q0 -5 -6 -14l-5 -8q3 10 3 11q1 5 1 7q0 9 -7.5 14t-17.5 5h-4q-9 1 -16 1q-20 0 -42 -6q-13 -2 -25 -10q-13 -6 -13 -13q0 -1 0.5 -3.5t0.5 -3.5q0 -5 -3 -8
q-52 -55 -83 -85q-53 -52 -107.5 -101t-120 -104t-124.5 -92.5t-97 -45.5q-9 -1 -16 -1q-11 0 -20 2.5t-14.5 8t-8.5 12.5t-3 15q0 14 7 29q29 69 176 214q30 30 64.5 63t78 72.5t66.5 60.5q24 23 35.5 34t28.5 28t27 28t21 24.5t20 26.5q25 35 25 54v4q-1 29 -50 29h-5
q-48 0 -135 -26q-23 -7 -43.5 -14t-42.5 -15.5t-42 -18.5q-91 -40 -183 -98.5t-152 -116.5q-22 -23 -35.5 -39t-26 -36.5t-15.5 -37.5q-3 -8 -3 -17q0 -20 12 -31q3 -3 6 -5t5.5 -3.5t6.5 -3t6 -2t7 -1t7 -0.5h8t8 -1q21 0 64 13l3 1.5l3 1.5q3 1 4 1q3 0 3 -3q0 -6 -16 -10
q-35 -12 -60 -12h-10h-4q-25 0 -42.5 12.5t-19.5 34.5q-1 6 -1 11q0 33 25 68q40 57 113 115t151 102q93 53 200 94.5t180 47.5h7h6q61 0 72 -30q1 -4 1.5 -8t0.5 -8q0 -9 -4 -21q-14 -31 -49 -72t-69 -73.5t-110 -102.5l-18 -18q-61 -56 -95 -88t-83 -85t-83 -100
q-36 -49 -36 -76q0 -22 30 -22q34 0 101.5 42.5t147 110.5t148.5 132.5t130 126.5z" />
    <glyph glyph-name="W" unicode="W" horiz-adv-x="1020" 
d="M1260 428q-3 4 -32 4h-21.5h-21.5q-42 -2 -99 -12q-1 -1 -4.5 -2t-4.5 -1q2 -2 2 -5q0 -2 -0.5 -4t-2.5 -4q-4 -8 -17 -24q-12 -13 -38.5 -43.5t-43 -49t-39.5 -42t-41 -39.5q-66 -57 -93 -57q-22 0 -22 26q0 11 4.5 27.5t14.5 36.5q26 55 67 110l12 17q-22 -19 -62 -57
q-12 -11 -32.5 -28.5t-45.5 -39t-36 -30.5q-48 -42 -74 -64t-67.5 -55t-71 -48t-49.5 -15q-3 0 -6 1q-26 4 -29 28v3q0 25 19 54.5t56 75.5q15 18 32.5 37t33 35.5t34.5 36t34 34t35.5 35t33.5 34.5q118 120 174 199q44 61 44 100q0 63 -104 63q-8 0 -16.5 -0.5t-18 -1.5
t-18.5 -2q-94 -12 -232 -71q-74 -33 -147 -76q-104 -60 -197.5 -144t-124.5 -155q-10 -22 -10 -46q0 -14 4 -25q12 -30 29 -30q4 0 11 3q3 1 4 1q4 0 4 -4q0 -7 -6 -10.5t-13 -3.5q-27 0 -41 36q-6 14 -6 32q0 52 42 109q43 58 111 115q100 80 138 105q118 75 253.5 127.5
t236.5 52.5h7h6.5t6.5 -0.5t6 -0.5q44 -2 67 -22.5t23 -53.5q0 -15 -5 -32.5t-16 -36.5q-21 -38 -83 -110q-51 -58 -154 -166q-16 -17 -63.5 -65t-79 -83t-58.5 -70q-7 -8 -14.5 -20.5t-14.5 -28.5t-7 -27q0 -19 18 -19q27 0 78 33q34 22 86 68q14 12 98 83.5t128 111.5
l99 89q11 10 20 18t13 10q10 6 17 6q5 0 5 -4v-1q-1 -3 -16 -15l-3 -3q-32 -26 -100 -118q-70 -100 -70 -144q0 -14 11 -14q22 0 78 52q49 44 103 101.5t79 94.5v2l-2 2q-5 4 -5 6t1 2q3 5 10 5q66 14 146 14q17 0 37 -1q2 0 5.5 -0.5t5.5 -1t3.5 -2.5t1.5 -6v-1
q-3 -5 -6 -5q-2 0 -6 2z" />
    <glyph glyph-name="X" unicode="X" horiz-adv-x="914" 
d="M947 519q-6 -10 -12 -12q0 2 -1 0q-9 0 -9 6q0 4 3 5q2 0 5 2l3 4v1q3 5 3 15q0 13 -10 18q-11 10 -29 10q-10 0 -21 -3q-37 -9 -100 -42l-6 -3q-26 -12 -35.5 -19t-37.5 -35q-59 -60 -110 -101q-29 -24 -46.5 -61t-17.5 -75q0 -25 9 -47q7 -22 27 -40t46 -28t51.5 -15.5
t49.5 -6.5q14 -1 27 -1q71 0 177 33q26 8 55 21q28 9 51 22q2 1 4 1h1q6 0 6 -4t-3.5 -7t-10 -5.5t-7.5 -3.5q-7 -2 -19 -8l-55 -21q-67 -24 -115 -31q-48 -9 -91 -9q-79 0 -140 29q-39 19 -58.5 50.5t-19.5 69.5q0 40 19 80q3 5 5 11l-110 -75q-109 -65 -211 -100
q-50 -17 -90 -21q-15 -1 -28 -1q-38 0 -66 11q-18 11 -24 20q-10 10 -10 20q0 12 10 12q8 0 8 -7q0 -3 -2 -8l-2 1q0 -1 -1 -2q0 -4 2 -6q5 -15 29 -22q23 -8 56 -8q19 0 40 4q150 26 338 159q2 1 11.5 7.5t11.5 8t10.5 7.5t12 8.5t11 8t11 8.5t9.5 8.5t10 10t9 9.5t9 10
q54 62 108 103q14 11 29.5 27t25.5 29t25 33q30 40 44 77q13 32 13 49q0 12 -6 21q-10 16 -34 22.5t-49 6.5q-11 0 -26.5 -2t-22.5 -3t-28 -6t-23 -5q-38 -10 -78 -24.5t-83 -32.5q-194 -84 -305 -167q-51 -39 -105 -92q-28 -31 -42 -50q-12 -16 -17 -26q-5 -12 -5 -17
q0 -1 1 -2v-1h1q1 -2 1 -4q0 -6 -7 -6t-7 11q0 10 7 25q3 6 14 25q39 54 105 107q49 39 120 86q29 18 59.5 35t61.5 33t62 30.5t64 27.5q38 16 63.5 25.5t61 21t68.5 17t65 5.5h10h4q30 0 53 -12q31 -16 31 -60q0 -15 -4 -31t-12 -32q-13 -32 -46 -74l-6 -8t-5 -6.5t-4 -5.5
q7 3 9 5q68 35 114 42q5 1 10 1q26 0 41 -9q16 -15 16 -35q0 -9 -4 -17z" />
    <glyph glyph-name="Y" unicode="Y" horiz-adv-x="906" 
d="M33 363q0 -6 -7 -6q-9 0 -9 11.5t12 27.5q20 24 71 67q79 66 145 105q78 47 127 71t114 42q74 25 152 29q7 1 13 1q89 0 89 -49q0 -47 -77 -119q-12 -11 -51 -47t-57.5 -53.5t-47.5 -47t-52 -54.5q-68 -74 -68 -120q0 -33 32 -33q33 0 115 38q73 32 210 109.5t220 131.5
q52 34 87 42q12 4 24 7q-1 -1 -14 -9q-248 -150 -432 -361q11 3 23 7l21 7q113 39 168 65l11 5.5t10 4.5t8 3.5l8 4t7 3t8 3.5q18 9 20 9q4 0 4 -4.5t-21 -13.5q-4 -2 -7.5 -3.5t-7.5 -3.5t-6.5 -3t-7.5 -3.5l-7 -3.5q-63 -30 -94 -42q-36 -15 -148 -52q-80 -76 -114 -101
q-102 -75 -172 -75q-12 0 -22 2q-27 6 -27 27q0 12 10 26t28 27q50 33 192 78q12 4 41 12q2 1 5 2q31 10 35 10l12.5 12.5t14 14.5t11.5 12q103 114 225 209q-184 -105 -281 -154q-110 -55 -155 -55q-31 0 -42 22q-6 10 -6 24q0 33 30 76q49 70 204 209q10 9 15.5 14
t15 13.5t15 14.5t14 14t14.5 15t13 15.5t13 16.5t11 17q9 16 9 30q0 7 -2 14q-10 29 -64 29q-11 0 -24 -1q-38 -5 -64 -9t-47 -9t-48 -14q-165 -53 -330 -183q-61 -47 -83 -71q-34 -36 -34 -43q0 -1 1 -3.5t1 -3.5zM304 4q-9 -12 -9 -21t9 -14.5t22 -5.5q47 0 94 27
q43 23 115 89q8 7 17.5 16.5l14.5 14.5q9 8 12 12q-80 -23 -135 -42q-56 -20 -91.5 -39t-48.5 -37z" />
    <glyph glyph-name="Z" unicode="Z" horiz-adv-x="604" 
d="M31 353q0 -4 3 -7h1h1q5 0 5 -6q0 -3 -3 -6t-7 -3q-2 0 -4 1q-8 4 -8 15q0 24 23 52q63 83 151 147.5t206 126.5l57 30q67 33 135 57q42 13 69 19q28 6 50 6q24 0 43 -7t31 -23.5t12 -39.5q0 -53 -60 -139q-170 -233 -385 -340q-24 -11 -36 -16q33 -12 33 -40
q0 -22 -20 -48l-8 -13q45 18 105 45q80 36 119 58l63 35q4 2 6 2q4 0 4 -4t-4 -6l-83 -44q-13 -7 -25.5 -13t-24 -12t-27.5 -13q-22 -10 -34.5 -16t-31.5 -14.5t-37 -15.5q-1 0 -4 -1.5l-5 -2.5q-27 -12 -34 -16.5t-22 -20.5q-26 -25 -34 -31q-13 -10 -37 -23.5t-41 -19.5
q-11 -3 -20.5 -4.5t-17.5 -1.5q-18 0 -19 9q0 15 101 63q55 25 62 28q10 5 14.5 8.5t10.5 11.5q28 36 32 59v4q0 20 -34 30q-49 -18 -89 -18q-10 0 -18 2.5t-8 8.5q0 3 2 5.5t6 4.5q19 10 65 10l38 -2l41 19q98 44 193.5 128.5t167.5 177.5q69 88 82 152q2 10 2 19
q0 20 -12 33q-21 21 -63 21q-12 0 -22 -2q-27 -4 -83 -21q-29 -9 -46 -16q-63 -24 -134 -61q-50 -24 -123 -69q-87 -54 -152.5 -109t-109.5 -122q-8 -13 -8 -21zM197 206q1 -1 5 -1.5t8 -0.5q14 0 27 2l38 9q-16 1 -27 1q-41 0 -51 -10zM265 83q-23 -10 -44.5 -20t-34 -17
t-18.5 -11q-3 -1 -10 -5.5t-12 -7.5t-10.5 -7t-6.5 -6q2 -1 6 -1q14 0 27 5q23 8 42 17.5t35 22.5q19 15 40 36z" />
    <glyph glyph-name="bracketleft" unicode="[" horiz-adv-x="341" 
d="M42 95q-25 0 -25 15q0 14 14 33q12 17 41 49q41 43 83 86l66 68q2 2 9 9.5t10.5 10.5t11 6.5t15.5 3.5q4 0 11 -1q3 0 4 -1q24 0 33 -2.5t9 -9.5q0 -4 -3.5 -6.5t-7.5 -2.5q-1 0 -2 0.5t-3 2.5q-8 5 -37 5q-4 0 -7.5 -1t-6.5 -2q-8 -6 -24 -22l-46 -45q-57 -61 -74 -79
q-17 -16 -30.5 -30.5t-23 -25.5t-16 -20t-9.5 -14.5t-3 -8.5q3 -3 13 -3l47 4q9 2 17 3t13 1h1q3 0 4 -2v-1q0 -5 -12 -8q-48 -12 -72 -12z" />
    <glyph glyph-name="backslash" unicode="\" horiz-adv-x="154" 
d="M18 394l-0.5 0.5l-0.5 0.5q0 4 0.5 6t2 4t3.5 2q4 0 6 -9q3 -11 3 -14t14 -77l4 -22q23 -105 49 -160q15 -35 32 -56q0 -1 1 -2q5 -6 5 -8q-2 -3 -4 -4q-4 0 -11 7.5t-15 19t-16 26.5q-28 50 -46 132l-9 43q-18 87 -18 111z" />
    <glyph glyph-name="bracketright" unicode="]" horiz-adv-x="296" 
d="M41 98h1q3 -1 3 -4t-9 -5q-7 -1 -12 -1h-7h-8q-8 0 -13 -1q-8 -2 -12 -2q-6 0 -6 4q0 1 0.5 2.5t1.5 2.5q4 3 23 4q17 0 21 3q4 4 11 14q29 54 92 113q42 37 95 77l26 20q7 6 11 10q-3 1 -11 1h-14q-24 0 -28 -3q-5 -2 -6 -2q-3 2 -4 4q0 6 11 9q6 2 33.5 2t31.5 -2
q6 -2 6 -6q0 -5 -8 -13t-33 -28l-3 -3l-59 -49q-41 -34 -68 -65q-30 -32 -43 -49q-20 -28 -23 -33z" />
    <glyph glyph-name="asciicircum" unicode="^" horiz-adv-x="550" 
d="M29 268l224 451h50l218 -451h-78l-165 359l-170 -359h-79z" />
    <glyph glyph-name="underscore" unicode="_" horiz-adv-x="273" 
d="M169 181l-1 1h-20q-8 0 -32.5 -1t-32.5 -1q-1 0 -2 -0.5t-3 -0.5h-5h-6.5h-8h-8.5l-11 -1q-11 0 -16 1t-5 5q0 3 3 4t8 2q4 1 7.5 1.5t7.5 0.5h6.5h7.5h127q1 -2 1 -3q0 -8 -16 -8h-1z" />
    <glyph glyph-name="grave" unicode="`" horiz-adv-x="124" 
d="M35 572q0 3 1.5 4.5t3.5 1.5q3 0 10 -6q4 -4 17 -23.5t14 -23.5q1 -3 1 -5q0 -6 -4 -6q-2 0 -5 2.5t-7 7.5q-10 13 -16.5 21.5t-10.5 16t-4 10.5z" />
    <glyph glyph-name="a" unicode="a" horiz-adv-x="185" 
d="M40 226q-12 -12 -12 -22q0 -7 9 -7q15 0 58 17q7 3 29 12t33 14q25 11 31 15q5 1 6 1q4 0 4 -4t-11 -9q-42 -19 -73 -32q-59 -25 -78 -25q-11 0 -15 4q-6 5 -6 15q0 8 4 17q-21 -9 -29 -9h-4l-3 1q-8 2 -8 10q0 14 19 24q38 20 60 20q6 0 10 -2q1 -1 1.5 -1t5.5 1l2 1
q8 3 11 3q8 0 8 -8q0 -10 -10 -10q-14 0 -42 -26zM51 257h-1q-6 0 -21 -6.5t-27.5 -13.5t-13.5 -10l-1 -1q0 -2 4 -2q12 0 34 12q21 11 26 21z" />
    <glyph glyph-name="b" unicode="b" horiz-adv-x="226" 
d="M3 202v-1t3 -1q6 0 22.5 5t23.5 12q-3 0 -9 -1.5t-10.5 -2t-9.5 -2t-9 -3t-7 -3t-4 -3.5zM96 257h-2q-8 0 -27 -6.5t-30 -13.5q-3 -3 -11.5 -9t-11.5 -9q31 7 55 11q23 17 27 27zM399 487h-2q-15 0 -129 -63q-7 -3 -100 -59q15 6 23 9q91 38 125 57q81 46 83 56zM-12 190
q-8 8 -8 18q0 32 69 88t157 107q107 62 164 88q19 8 30 8t11 -7v-2q-5 -23 -67 -57q-75 -40 -212 -92q-10 -5 -21 -13t-15 -11q-23 -17 -55 -46.5t-40 -44.5l2 2q12 8 25 16q32 18 59 23q3 1 6 1h6q12 0 12 -7q0 -8 -19 -29q14 3 65 12q48 8 71 12h1h1q2 0 4 -1t2 -3
q0 -5 -11 -7q-2 0 -6 -0.5t-7.5 -1t-8.5 -1.5t-7 -1l-108 -20h-5h-2l-11 -7q-22 -16 -37 -22t-26 -6q-9 0 -19 4zM80 223l1 1h-1h-1z" />
    <glyph glyph-name="c" unicode="c" horiz-adv-x="151" 
d="M32 262q8 0 8 -7q0 -6 -5 -13t-10 -7q-4 0 -4 6v2.5v1.5q-2 0 -7 -3q-44 -23 -44 -44q0 -7 10 -7q4 0 9 1q64 13 141 51l8 4t11 5q7 4 10 4q4 0 4 -4t-10 -9q-38 -18 -68 -31q-56 -23 -96 -31q-6 -1 -10 -1q-23 0 -23 19v4q3 21 29 37q31 22 47 22z" />
    <glyph glyph-name="d" unicode="d" horiz-adv-x="206" 
d="M-11 100q0 -3 1 -3t2 0.5t2 0.5q6 0 6 -4q0 -5 -7 -7.5t-13 -2.5q-11 0 -11 11q0 27 103 119q106 90 120 103q-8 -5 -17 -11q-63 -38 -111 -63q-9 -4 -26.5 -14t-27.5 -16q-3 -1 -10.5 -5t-12 -6t-11 -4t-10.5 -2q-13 0 -13 11q0 5 8 14q11 14 30 25.5t30 11.5
q5 0 8.5 -2.5t5.5 -6.5t2 -8q75 37 122 66q54 34 90 59l42 28q14 11 21 11t7 -5.5t-7 -10.5q-10 -5 -47 -33q-67 -51 -149 -125l-87 -77q-40 -37 -40 -54zM7 242q-14 -7 -27.5 -18.5t-13.5 -16.5v-1q6 1 35 17q24 12 24 20q0 3 -5 3q-6 0 -13 -4z" />
    <glyph glyph-name="e" unicode="e" horiz-adv-x="134" 
d="M-28 211q-3 0 -6 -5t-3 -9q0 -7 13 -7q17 0 55 13q30 10 91 43l15 8q3 1 7 1h1q3 0 3 -2q0 -3 -7.5 -8.5t-21 -12.5t-14.5 -8q-62 -32 -111 -43q-12 -3 -21 -3q-23 0 -23 19q0 5 2 11q5 17 43 39q30 17 41 17q10 0 10 -9q0 -7 -8.5 -13t-30.5 -18q-23 -10 -35 -13z
M32 253q-27 -5 -44 -24q31 7 44 24z" />
    <glyph glyph-name="f" unicode="f" horiz-adv-x="132" 
d="M-102 121q-5 -10 -5 -18q0 -12 8 -16q4 0 4 -4q0 -6 -9 -6q-5 0 -9 3.5t-6 8.5t-2 10q0 19 14 43q19 32 57 69q-13 5 -19 13q-4 4 -4 8q0 5 5 5t9 -6q10 -11 17 -11q2 0 10 7q8 8 15 13q33 26 54.5 43t41 30.5t28 19.5t33 21.5t38.5 25.5q135 90 158 90q11 0 11 -11
q0 -27 -100 -86q-29 -16 -82.5 -42.5t-80.5 -36.5q-16 -6 -35 -20q-16 -11 -68 -56q21 0 38 3q40 6 103 29q10 4 17 7q2 -5 2 -6q0 -4 -10 -8q-62 -21 -96 -29q-15 -4 -24.5 -5t-22 -1.5t-19.5 -0.5q-32 -27 -48 -49q-17 -23 -23 -37zM277 405q59 40 59 51q0 2 -2 2
q-12 0 -99 -58l-102 -67q-4 -2 -13.5 -9t-15.5 -11q12 5 21 10q123 60 152 82z" />
    <glyph glyph-name="g" unicode="g" horiz-adv-x="190" 
d="M191 253q4 2 6 2l2 -1q3 -1 3 -2q0 -4 -4 -6q-125 -75 -211 -111q-10 -4 -29 -12.5t-29 -12.5q-13 -6 -29 -20l-66 -55l-74 -58l-40 -29q-49 -37 -122 -79q-6 -4 -28.5 -16t-28.5 -15q-30 -14 -45 -20q-19 -6 -45 -8h-7q-11 0 -20 4q-14 7 -14 25q0 12 16 31t46 38
q52 33 124 68q37 18 139 63q89 39 135 57q22 8 35 19q15 14 43 36l40 38l2 2q-27 -15 -33 -15h-2q-8 2 -8 11q0 14 19 33.5t44 32.5q12 6 20 6q15 0 15 -11q0 -2 -1 -5q25 24 27 26q13 13 19 13q4 0 7 -5l-2 -1h2q0 -4 -22 -25l-27 -27q-21 -22 -32 -32l-74 -66q48 20 88 39
q61 29 161 88zM13 219q19 13 19 26q0 2 -2 2q-8 0 -32 -16q-28 -19 -36 -37q-3 -6 -3 -7v-1h1q5 1 23.5 12.5t29.5 20.5zM-567 -177q5 -2 15 -2q16 0 33 4q58 16 161 82q17 11 46 31.5t56 41t40 31.5q36 30 77 66q10 8 13 11q-134 -55 -207 -90q-53 -24 -75 -35
q-2 -1 -9.5 -5t-11.5 -6q-4 -1 -40 -21t-43 -25q-41 -26 -54 -46q-11 -15 -12 -23v-1q0 -8 11 -13z" />
    <glyph glyph-name="h" unicode="h" horiz-adv-x="251" 
d="M-54 154q4 -1 4 -4q0 -4 -7.5 -7t-11.5 -3q-7 0 -12 7q-4 4 -4 8t3 10q21 31 53 60q26 26 111 88q145 105 202 138q88 56 109 63q7 3 14 3h1q3 0 5 -2l-2 -1h2q0 -2 -15 -13q-15 -7 -29 -15t-58 -36q-144 -90 -296 -210q-39 -30 -64 -62q-4 -5 -9 -12q2 1 12 8
q52 34 120 65q27 11 55 20q7 2 12 2t8 -3q1 0 1.5 -1t0.5 -3q0 -4 -13 -18q-23 -21 -23 -38q0 -11 11 -11q20 0 52 20q47 28 75 47q2 1 5 1q6 0 6 -4q0 -3 -5 -5l-1 -1q-15 -10 -23 -14q-27 -18 -38.5 -25t-27 -15.5t-25 -11t-19 -2.5t-16 6t-6.5 17q0 6 1.5 11.5t5.5 11
t6.5 8.5t7.5 8.5t7 7.5q-10 -3 -26 -9q-29 -9 -79 -36q-40 -22 -58 -33q-17 -11 -22 -15z" />
    <glyph glyph-name="i" unicode="i" horiz-adv-x="154" 
d="M51 285q7 0 7 -7q0 -4 -4.5 -7.5t-7.5 -3.5q-6 0 -6 6q0 2 1.5 4t4 4.5t3.5 2.5q1 1 2 1zM9 240q-17 -9 -31 -23t-14 -21q0 -4 8 -4q15 0 63 16q24 7 110 42l12 5q3 1 6 1q5 0 5 -3t-2 -5q-3 -2 -9 -4q-102 -40 -121 -47q-37 -12 -53 -15q-7 -1 -17 -1h-7q-9 2 -9 12
q0 8 4 17q7 12 23.5 26.5t31.5 19.5q2 1 4 1q7 0 7 -7q0 -2 -2 -4t-5.5 -3.5t-3.5 -2.5z" />
    <glyph glyph-name="j" unicode="j" horiz-adv-x="129" 
d="M77 315q0 -4 -4.5 -8t-7.5 -4q-6 0 -6 7q0 2 1 3.5t2.5 2.5t3 2.5l2.5 2.5h2q7 0 7 -6zM27 274q10 12 14 12q5 0 5 -9q0 -7 -18 -26.5t-65 -65.5q-6 -5 -9 -8q-7 -7 -22 -21q51 21 85 37q33 15 97 50q4 2 6 2q4 0 4 -2q0 -6 -11 -11l-26 -15q-7 -4 -45 -23l-67 -30
q-41 -18 -54 -25.5t-30 -20.5q-2 -1 -12 -9q-81 -69 -168 -132q-126 -93 -228 -129q-29 -10 -50 -10q-36 0 -36 24q0 33 62 76q52 33 124 67q48 22 140 63q81 36 135 57q26 10 38 19q28 24 75 72l11 11l13 13l11.5 11.5t10.5 11.5q1 1 3 3.5t4 4.5zM-580 -110
q-10 -16 -10 -26q0 -13 28 -13q8 0 19 1q60 13 173 84q97 66 141 105q36 27 94 77q-53 -20 -148 -62.5t-138 -63.5q-44 -20 -91.5 -49t-67.5 -53z" />
    <glyph glyph-name="k" unicode="k" horiz-adv-x="193" 
d="M-58 169q-4 -7 -4 -10v-2.5v-2.5q0 -7 -8 -7q-10 0 -10 9q0 13 21 38t46 45q10 8 28 23t29 24t27.5 21t31.5 23q8 4 127 80q76 48 126 62q18 5 29 5q16 0 16 -11q0 -6 -6 -16q-3 -4 -8 -8.5t-12 -9.5t-14.5 -9.5t-17.5 -10t-18.5 -10t-19.5 -9.5t-19.5 -9t-19 -9
t-16.5 -8q-10 -4 -44 -17.5t-68.5 -26.5t-45.5 -18q-4 -1 -17 -11q-9 -8 -27.5 -22t-29.5 -23q25 10 38 10q12 0 12 -9l-1 -4q-4 -13 -29 -22.5t-43 -9.5q-2 -2 -2 -7q0 -2 1 -4q8 -20 34 -20q17 0 36 5t43.5 17.5t35 18t37.5 22.5q12 7 16 9q1 1 3 1q4 -2 5 -3
q0 -4 -24 -19q-74 -43 -106 -53q-26 -8 -46 -8t-32 8q-15 11 -15 33q-8 -7 -21.5 -22.5t-17.5 -22.5zM343 425q48 31 48 39q0 3 -9 3q-36 0 -114 -49q-115 -69 -146 -90q10 4 23 9t24.5 9.5t26 10t23.5 9.5q37 14 69.5 29t54.5 30zM0 228zM0 227h1h1q11 1 30 8.5t25 15.5
q-6 0 -26 -7l-17 -6q-11 -5 -14 -11z" />
    <glyph glyph-name="l" unicode="l" horiz-adv-x="103" 
d="M-89 83q0 -6 -9 -6q-7 0 -12 7t-5 15q0 17 13 42q19 31 38.5 51.5t52.5 48.5q33 26 54.5 42.5t41 30t28 19.5t33 21.5t38.5 25.5q135 90 158 90q11 0 11 -11q0 -27 -100 -86q-29 -16 -82.5 -42.5t-80.5 -36.5q-20 -7 -35 -19q-51 -38 -78.5 -63t-49.5 -54
q-17 -23 -23 -37q-5 -10 -5 -18q0 -12 8 -16q4 0 4 -4zM283 405q59 40 59 51q0 2 -2 2q-12 0 -99 -58l-102 -67q-4 -2 -13.5 -9t-15.5 -11q12 5 21 10q123 60 152 82z" />
    <glyph glyph-name="m" unicode="m" horiz-adv-x="313" 
d="M1 202q-26 -21 -26 -28t-5 -7q-9 0 -9 13q0 9 4 20q8 17 30 43t40 38q8 4 13 4q6 0 6 -5q0 -3 -18 -22q-28 -32 -41 -47q13 10 32 19.5t30.5 14.5t13.5 5h-1q11 0 11 -16q0 -17 10 -17h1.5h1.5q34 4 73 24q11 5 16 5q6 0 6 -4q0 -5 -8 -9q-27 -10 -27 -29q0 -14 28 -14
q40 0 123 57l6 4q4 0 4 -6v-1q0 -5 -34 -26q-46 -28 -67 -33q-18 -5 -32 -5q-7 0 -14 1.5t-13.5 4.5t-10.5 9t-4 13q0 5 4 13q-7 -2 -27 -9q-17 -5 -26 -5q-11 0 -17 7q-2 4 -3 15q-1 9 -4 9q-17 0 -66 -36z" />
    <glyph glyph-name="n" unicode="n" horiz-adv-x="280" 
d="M75 231q4 5 4 7q0 1 -1 1q-4 0 -17 -3q-26 -8 -57 -25q-10 -6 -22 -15t-12 -11q-1 -6 -5 -6q-2 0 -6 3q-5 4 -5 10q0 11 21 34q26 29 47 36q5 3 10 3q6 0 6 -5q0 -4 -15 -14q-9 -7 -15 -11q-12 -10 -20 -20l23 11q49 23 70 23q3 0 6 -0.5t5 -2.5t2 -5q0 -5 -12 -20
q-12 -16 -12 -29q0 -16 22 -16q60 0 191 78q3 2 6 2q4 0 4 -5q0 -4 -24 -17q-110 -59 -164 -67q-7 -1 -12 -1q-35 0 -35 26q0 14 10 29q3 5 7 10z" />
    <glyph glyph-name="o" unicode="o" horiz-adv-x="205" 
d="M35 244q0 -6 -4 -10q4 -3 16 -3q40 0 141 20q12 2 24 5q5 0 5 -4t-12 -7q-35 -8 -123 -22q-18 -3 -38 -3q-16 0 -21 4q-11 -12 -27 -23q-16 -9 -25 -9q-11 0 -11 8q0 11 15.5 27.5t35.5 30.5q4 1 6 2q4 2 6 2q5 0 10 -9q2 -4 2 -9zM1 220q6 5 11.5 13t5.5 12v1
q-5 0 -22 -15q-17 -16 -19 -24q10 3 24 13z" />
    <glyph glyph-name="p" unicode="p" horiz-adv-x="165" 
d="M99 264q-7 -13 -27 -27q37 1 47 1q27 0 27 -7q0 -4 -7 -4h-2h-30q-20 0 -48 -1q-58 -35 -95 -41q-11 -2 -18 -2q-3 0 -8 1l-27 -24q-98 -90 -166 -205q-11 -17 -12 -32q-1 -9 -7 -13q-5 -2 -7 -2q-7 0 -7 8q0 19 23 57q75 110 176 209q8 8 15 13q-2 4 -3 13
q-2 11 5.5 16.5t15 6.5t21.5 1q7 -1 15.5 4.5t33.5 24.5q109 89 135 103q9 4 14 4q7 0 7 -6q0 -4 -5 -7.5t-8 -3.5q-2 0 -3 1q-2 0 -3 -1q-17 -8 -63 -46l-33 -26q-10 -8 -19 -16l10 5q26 10 41 10q13 0 13 -8q0 -3 -1 -6zM84 267h-1q-11 0 -44 -14q-13 -6 -38 -21h3l45 3
l13 10q18 13 22 22zM-52 195h1q4 0 14 2q15 3 60 25l6 4q-23 -1 -38 -2q-6 -1 -7 -1q-20 -12 -33 -25q-2 -1 -3 -3zM-64 214q-2 -3 -2 -6t1 -6q4 3 23 19q-20 -2 -22 -7z" />
    <glyph glyph-name="q" unicode="q" 
d="M144 293q7 5 10 5q6 0 6 -5t-14 -17q-13 -11 -34.5 -27.5t-31.5 -24t-28 -23t-39.5 -35t-51.5 -47.5q-114 -107 -156 -156q-14 -14 -29.5 -38.5t-15.5 -36.5q0 -3 3 -4.5t3 -4.5q0 -1 -4 -4q-6 -5 -11 -5q-8 0 -8 11q0 24 27 63q13 16 26 31.5t55 57.5t117 113
q60 57 104 93q-30 -15 -41 -20q-26 -12 -38 -12q-16 0 -16 14q0 12 18 24q8 6 34 18q19 8 28 8q11 0 11 -8q0 -7 -4 -15q29 15 48 27q29 16 32 18zM-1 232q-6 -5 -6 -10q0 -1 3 -1q9 0 24 6q14 7 24 17q4 6 9 13h-1q-5 0 -21 -6q-4 0 -16 -7.5t-16 -11.5z" />
    <glyph glyph-name="r" unicode="r" horiz-adv-x="118" 
d="M43 251h1h3h3h1q7 0 7 -3q0 -7 -10 -11q-3 -1 -10 -5q-31 -20 -51.5 -43.5t-20.5 -34.5q0 -4 3 -4q1 0 4 1h1q3 0 3 -3q0 -8 -11 -8q-15 0 -15 16v4q2 13 16 29q12 14 37 34q9 8 28 20q-2 0 -7 1t-6 1q-7 1 -9 1q-4 0 -4 5q0 1 1 2q2 3 5.5 3t9.5 -2q8 -3 21 -3z" />
    <glyph glyph-name="s" unicode="s" horiz-adv-x="135" 
d="M-46 166q-48 -66 -89 -66q-25 0 -25 16q0 6 4 12q11 19 83 44q12 4 14.5 5.5t6.5 7.5q35 53 70 80q16 11 36 17q4 1 8 1q13 0 13 -7q0 -4 -4.5 -7.5t-10.5 -3.5h-1q-6 -1 -19 -9.5t-20 -14.5q-15 -11 -33 -30q-9 -10 -22 -28q11 3 34 12q63 23 116 49q7 3 17 8q9 4 10 4
q5 0 5 -3.5t-6 -7.5q-64 -32 -166 -68q-2 -1 -6 -2q-12 -5 -15 -9zM-131 136q-14 -8 -14 -18q0 -5 9 -5h3q16 2 38 22q14 13 30 31q-41 -13 -66 -30z" />
    <glyph glyph-name="t" unicode="t" horiz-adv-x="84" 
d="M-90 79q-20 -17 -32 -17q-15 0 -15 18q0 10 4 18q42 85 306 287l90 70h-14.5h-14.5h-14h-11.5t-10.5 -0.5t-8 -0.5q-72 -4 -77 -5q-32 -2 -85 -10q-40 -6 -61 -11q-19 -3 -21 -9q-1 -6 -9 -6q-6 0 -8 5v2q0 15 84 27q95 14 264 18q12 9 35 27.5t27 20.5q42 34 55 34
q2 0 3.5 -0.5t2 -2t0.5 -4.5q0 -6 -4.5 -13t-16.5 -15.5t-18 -12.5t-24 -15q-4 -2 -9.5 -5.5t-12 -7.5t-9.5 -6q107 -6 161 -13q37 -6 58 -10q32 -8 44 -16q1 -1 1 -2q0 -2 -3 -5q-40 15 -83 21q-14 2 -29 4t-30 3.5t-30.5 2.5t-32 2t-33.5 1.5t-36 1.5l-22 -14
q-121 -91 -207 -160q-33 -29 -44 -38q-69 -60 -99 -96q-21 -26 -32 -44q-11 -15 -11 -25q0 -5 3 -5q7 0 25 14q2 1 3 1q3 0 3 -3t-2 -6zM359 517q-19 -14 -32 -28q11 5 20 11q34 22 39 33q-9 -3 -27 -16z" />
    <glyph glyph-name="u" unicode="u" horiz-adv-x="204" 
d="M116 209q-25 -10 -36 -14t-24.5 -8t-19.5 -4q-13 0 -13 12q0 13 14 27l2 2q-4 -1 -11 -4t-9 -4q-28 -12 -37 -12q-12 0 -12 10q0 9 25 30q26 22 33 22q5 0 5 -5q0 -3 -6 -5.5t-22 -18t-20 -20.5q8 0 35 11q40 17 54 28q10 9 16 9t6 -5q0 -1 -18 -18q-26 -24 -32 -31
q-10 -13 -10 -17q0 -1 3 -1t9 2q46 11 162 60q2 1 4 1q5 0 5 -6q0 -4 -9 -5q-51 -20 -94 -36z" />
    <glyph glyph-name="v" unicode="v" horiz-adv-x="129" 
d="M-8 244q31 26 38 26q6 0 6 -6q0 -2 -5 -5q-8 -5 -14 -10q-17 -12 -33.5 -30t-16.5 -26h1q9 0 45 22q6 3 8.5 4.5t4.5 3.5l2.5 2.5t1.5 2.5l2 4q2 4 4 5q2 3 7 3q46 9 67 9q19 0 19 -7q0 -5 -4 -5q-1 0 -3 1q-4 2 -11 2q-9 0 -26 -3q-20 -3 -28.5 -4.5t-9 -2t-1.5 -2.5
q-2 -6 -25 -20t-43 -22q-8 -3 -12 -3q-12 0 -12 10q0 17 38 51z" />
    <glyph glyph-name="w" unicode="w" horiz-adv-x="149" 
d="M53 233q0 3 4.5 7t8.5 4h1.5h2.5h14q19 0 29 1q33 4 34 4q3 0 3 -3t-2 -4q-2 -3 -18 -4q-30 -3 -56 -3h-3q0 -5 -3 -7l-25 -25q-28 -29 -41 -29q-8 0 -8 12q0 6 2 13q-35 -24 -54 -28q-3 -1 -6 -1q-11 0 -11 10q0 6 5 14q14 20 66 55q13 9 18 9t5 -6q0 -9 -12 -9
q-4 -1 -14 -9l-12 -9q-8 -5 -22 -18.5t-17 -18.5q-4 -6 -4 -8h1q13 3 34 16l20 13q16 9 20 13q9 9 14 9q6 0 6 -4q0 -3 -7 -8q-17 -16 -20 -25q-2 -5 -2 -7q0 -1 1 -1q2 0 9 4.5t22.5 19t20.5 20.5q-4 0 -4 3z" />
    <glyph glyph-name="x" unicode="x" horiz-adv-x="115" 
d="M201 294q0 1 0.5 2.5t0.5 2.5q0 3 -10.5 3t-46.5 -13q-44 -15 -123 -60l-19 -12q-2 -2 -5 -6q-8 -18 -8 -35q0 -4 3 -5q2 -2 2 -3q0 -4 -5 -4q-11 0 -11 18q0 11 3 23q-10 -6 -33 -21q-23 -16 -45 -33q-11 -8 -28 -26q-2 -2 -4 -2q-5 0 -5 4q0 15 94 76l26 16
q7 16 19.5 33t18.5 18h2q4 0 4 -2q0 -4 -17 -28l-6 -9q38 23 80 43q28 14 42 19q48 18 65 18q11 0 16 -7q1 -2 1 -4.5t-1 -5t-2.5 -4t-3.5 -1.5q-4 0 -4 5z" />
    <glyph glyph-name="y" unicode="y" horiz-adv-x="170" 
d="M-337 -73q-71 -42 -102 -42q-24 0 -24 17q0 15 19 38.5t47 44.5q39 31 81 56q105 62 228 104l26 10l32 25q19 15 45 38q-3 -2 -9 -5q-23 -12 -36 -12q-10 0 -10 7q0 6 9 15q2 2 30 23q13 10 18 10q6 0 6 -5q0 -3 -12 -10q-6 -4 -10 -6q-17 -11 -29 -25q14 3 46 19.5
t50 31.5q4 5 8 5q6 0 6 -6q0 -3 -22 -22q-5 -4 -23 -19.5l-36 -31t-31 -26.5l34 12q76 28 149 70q15 8 24 13q7 -1 7 -4.5t-13 -9.5q-48 -28 -101 -53q-13 -5 -95 -35l-27 -10q-18 -14 -105 -88q-16 -13 -89 -67q-43 -33 -91 -62zM-444 -77q-7 -13 -7 -19q0 -8 11 -8
q26 0 75 28q29 16 56.5 34.5t58 42t49.5 39t55 46t50 41.5l15 13q-24 -9 -89 -35q-46 -18 -102 -50q-45 -24 -94 -60q-64 -45 -78 -72z" />
    <glyph glyph-name="z" unicode="z" horiz-adv-x="182" 
d="M71 282q11 4 17 4q9 0 9 -6q0 -15 -61 -49l-13 -7q11 -4 11 -19q0 -9 -10 -29t-17 -29l-8 -12q10 6 26 16t26 16q41 24 98 63l33 23q3 2 5 2q5 0 5 -3q0 -4 -3 -6l-37 -26q-86 -56 -166 -104q-4 -5 -33 -33q-57 -55 -113 -101q-17 -14 -36.5 -27.5t-39 -26.5t-36 -21
t-25.5 -8q-10 0 -10 9q0 15 43 54.5t81 65.5q73 48 154 92q8 7 21.5 26t20.5 33q9 18 9 27t-7 9t-26 -8q-20 -10 -28 -10q-5 0 -5 5t14 11t24 9q20 6 52 25q31 20 38 29q-13 -2 -76 -34q-7 -3 -9 -3q-4 0 -4 4q0 1 2 3q6 6 29.5 17.5t44.5 18.5zM-149 8q69 57 104 94
q-7 -4 -58 -33q-23 -13 -68 -45q-47 -32 -75 -58q-51 -48 -51 -56q1 -1 2 -1q11 0 55 30.5t91 68.5z" />
    <glyph glyph-name="braceleft" unicode="{" horiz-adv-x="312" 
d="M97 235q0 5 5.5 8.5t12.5 3.5q2 0 4.5 -0.5t4.5 -1t5 -1.5q2 0 7.5 3t13.5 7.5t14 8.5q5 4 14 12t21 20.5t26 27.5q31 31 47 37q2 1 5.5 2t5.5 1.5l2 0.5q9 0 9 -9q0 -17 -10 -26q-4 -3 -6 -3v0q-3 1 -4 4q0 2 1.5 5l3.5 7q3 7 3 10q-5 -2 -16.5 -11t-15.5 -15
q-31 -36 -60 -60q-29 -25 -55 -32q-2 -1 -4 -6q-3 -8 -15.5 -23t-29.5 -33q-33 -34 -43 -53q-5 -10 -5 -18q0 -5 3 -7q3 -3 13.5 -5.5t26.5 -4.5q11 0 24 -3l-3 -3q-2 -1 -6 -1.5t-11 -0.5h-3h-2q-28 0 -36 3q-17 5 -22 14q-4 6 -4 13q0 20 49 72q8 7 14.5 14.5t11.5 12.5
t8.5 9.5t5.5 7t3 3.5l-3 2q-4 1 -7 3t-3 5z" />
    <glyph glyph-name="bar" unicode="|" horiz-adv-x="118" 
d="M46 99q0 -2 0.5 -4l1 -4t0.5 -3q0 -6 -5 -6q-9 0 -9 19v0v2q0 35 18 94q30 111 48 181q0 4 2 10v4v1q4 5 7 5q4 0 4 -7q0 -10 -8 -44q-8 -36 -34 -131q-22 -74 -25 -106v-6v-5z" />
    <glyph glyph-name="braceright" unicode="}" horiz-adv-x="272" 
d="M198 259q3 0 7 0.5t7.5 1.5t7 1.5t6.5 0.5q8 0 17 -7q2 -1 2 -3q0 -5 -21 -5q-41 0 -94 -46q-14 -11 -20.5 -20t-19.5 -34q-11 -21 -19.5 -34t-17.5 -21.5t-20 -13.5q-9 -5 -17 -7t-14 -2q-4 0 -8 1t-8 2.5t-6.5 5t-2.5 7.5q0 2 1.5 5t4 5t4.5 2q4 0 4 -4q0 -1 -1 -4
t-1 -4q0 -4 9 -4h5q21 2 35 16.5t35 56.5q9 18 14 25.5t15 18.5q10 10 18 16t17 12t24 13l16 9q-19 5 -19 18q0 9 4 17t12.5 17.5t22.5 21.5l9 7q14 12 19 16.5t7 7t4 6.5l2 6v0.5t-2 1t-6 0.5q-9 0 -19 -5q-7 -5 -11 -5q-2 0 -4 2q0 1 1 3q1 3 2 4q5 8 26 12h10v-1
q9 -1 14.5 -4t5.5 -9q0 -3 -2 -7t-6 -9t-9.5 -10t-12.5 -11q-27 -21 -39 -36t-12 -25q0 -3 4 -5q2 -1 4.5 -1.5l5 -1t5 -0.5h5.5z" />
    <glyph glyph-name="asciitilde" unicode="~" horiz-adv-x="136" 
d="M89 195q4 0 13 2.5t13 2.5q2 -1 3 -3q0 -9 -25 -11h-1h-9t-8.5 2t-9.5 5q-2 2 -4 3.5t-4 2l-4 1t-4 0.5h-6q-20 -5 -35 -15q-4 -3 -6 -3q-4 0 -4 5q0 7 19.5 15t32.5 8q10 0 18 -6q7 -4 12 -6.5t9 -2.5z" />
    <glyph glyph-name="uni007F" 
 />
    <glyph glyph-name="exclamdown" unicode="&#xa1;" horiz-adv-x="333" 
d="M316 553q-2 -11 -12 -12q-4 0 -4 4t2.5 10.5t6.5 6.5q2 0 3.5 -1.5t2.5 -3.5t1 -4zM264 450q0 1 -0.5 3t-0.5 4t1.5 3t3.5 1q8 0 8 -12q0 -8 -15 -32q-6 -10 -12.5 -20t-13 -18.5t-14.5 -18t-14.5 -17.5t-14.5 -18t-14 -18q-18 -22 -31 -38t-31 -35t-35 -35
q-32 -30 -50 -39q-1 -1 -2 -1h-3q-4 0 -6 2.5t-2 5.5q1 9 10 15q41 31 75 67q46 48 88 103q6 7 13.5 16t16 19t13.5 17q18 20 30 43v1v2z" />
    <glyph glyph-name="cent" unicode="&#xa2;" horiz-adv-x="152" 
d="M104 164h2h2q6 -2 6 -4q0 -5 -12 -7.5t-28 -2.5q-5 0 -10 1q-7 0 -11 1t-6 1l-15 -18q-11 -11 -11 -19q0 -1 0.5 -3t0.5 -3q0 -5 -5 -5q-1 0 -2 1q-7 1 -7 10q0 14 26 46v1q-3 9 -3 14q0 4 0.5 7t2 6.5t3.5 7t5 7.5q28 32 90 59q7 3 13.5 7.5t15.5 12.5l25 21q3 2 5 3.5
t3.5 2t3.5 0.5q7 0 7 -6q0 -1 -1 -2.5t-3 -3t-3 -2.5l-3.5 -3.5t-3.5 -2.5l-21 -19l-2 -3q3 -4 3 -8q0 -9 -7.5 -20t-13.5 -11t-6 4t4 8q10 9 10 16l-5 -2q-16 -11 -54.5 -48.5t-41.5 -43.5q1 -1 3.5 -1h6.5q6 0 18.5 0.5t18.5 0.5zM43 178q0 -3 1 -5q2 2 6 7l8 10t9.5 10.5
t8 8.5t10 10t8.5 9l2 2t2.5 2t2.5 2l-18 -11q-32 -19 -40 -41v-4z" />
    <glyph glyph-name="sterling" unicode="&#xa3;" horiz-adv-x="250" 
d="M236.5 265q-2.5 0 -7.5 1l-8 1q-4 0 -12.5 -1t-17.5 -2q-16 -3 -18 -5q-4 -3 -10.5 -9.5t-14.5 -14t-17 -16t-16.5 -15.5t-13.5 -12.5t-8 -7.5q-19 -15 -28 -25q5 1 11 1.5t13 0.5q8 1 20 1.5t27 0.5q24 0 56 -2h4q4 -1 6 -1t4 -0.5t2.5 -1.5t0.5 -2t-2.5 -3.5t-6.5 -2.5
h-7q-5 1 -8 1t-9.5 0.5t-13.5 1.5h-8h-8q-41 0 -98 -8l-22 -15q-55 -38 -61 -38q-7 0 -7 7q0 12 33 32q14 9 43 20q3 2 15.5 12t30 25.5t31.5 29.5q31 30 41 40l-9 -2q-6 -2 -15.5 -4.5t-19.5 -4.5q-5 -1 -6.5 -1.5t-4.5 -1t-5 -1t-4 -0.5t-4.5 1.5t-2.5 4.5q0 2 1.5 3t4 2
t4.5 1.5t4.5 0.5h4.5l56 11q5 2 8 3t7.5 5t15.5 15q70 65 96 91q17 16 22 19q7 5 11 5q6 0 6 -9q0 -4 -4.5 -10t-8.5 -8q-1 -1 -2 -1h-1q-2 0 -3 1t-1 2t1 3l-2 -2l-2.5 -2.5l-2.5 -2.5q-5 -5 -96 -92q-2 -2 -12 -11q9 2 16.5 2.5t14.5 0.5h8t7.5 -0.5t6.5 -2t2 -4t-2 -3.5
t-4.5 -1zM-13 115q4 3 9 6q-5 -3 -9 -6z" />
    <glyph glyph-name="currency" unicode="&#xa4;" horiz-adv-x="571" 
d="M90 353q0 57 35 110l-66 68l49 47l66 -64q49 35 112 35q59 0 110 -35l67 64l48 -47l-64 -67q35 -54 35 -111q0 -63 -35 -112l63 -66l-47 -47l-67 64q-50 -34 -110 -34q-64 0 -112 35l-66 -64l-48 47l65 66q-35 53 -35 111zM157 353q0 -54 37.5 -91.5t91.5 -37.5t92 37
t38 92q0 56 -38 93.5t-92 37.5t-91.5 -38t-37.5 -93z" />
    <glyph glyph-name="yen" unicode="&#xa5;" horiz-adv-x="216" 
d="M363 382h1q4 0 4 -4q0 -2 -2 -4q-4 -4 -15 -10q-11 -9 -25.5 -19t-30 -20.5t-26.5 -18.5l-12 -9t-10.5 -7.5t-12.5 -8.5t-12 -7q-46 -30 -60 -37q-1 -1 -3 -1h8q35 0 46 -9q9 -6 9 -12t-7 -6q-4 0 -6 6q-1 2 -3 3.5t-4 2.5q-11 4 -37 4q-6 0 -29 -1q-26 -26 -50 -53
q6 -1 18 -1h1h2q4 0 7 -0.5t6 -2t3 -4.5t-2 -3.5t-5 -0.5v0q-3 0 -9 0.5t-9 0.5q-18 0 -22 -3q-5 -4 -14.5 -18.5t-9.5 -18.5q0 -6 -5 -6t-5 9q0 3 0.5 5.5t2.5 6t3.5 6.5t5.5 9l2 4l2 4h-5t-4.5 -0.5t-4.5 -0.5t-4.5 -0.5t-3.5 -0.5q-8 2 -9 7q0 4 22 5l18 1q2 3 32 38
q3 3 13 14q-49 0 -61 -4q-7 -3 -11 -3q-3 2 -4 4v2t1 2t2.5 2t4.5 1.5t6 1.5t7.5 1.5l9 1t10.5 0.5t11 0.5t12 0.5q20 2 26 3q1 1 3 7q8 31 95 136q24 28 29 28q3 0 3 -5q0 -7 -62 -84q-30 -36 -38 -49q-1 -3 -2.5 -5.5l-3 -5t-2.5 -5t-2 -4.5t-1.5 -4t-0.5 -3v-2q1 0 3 1
l2 1l14 6q7 3 19 11q9 6 18 11.5t25 16.5t18 12q9 7 26.5 19.5l24.5 17.5q10 7 16 11t15 10.5t16 11.5q1 1 8 5t10 7q1 3 4 3z" />
    <glyph glyph-name="brokenbar" unicode="&#xa6;" horiz-adv-x="550" 
d="M239 760h73v-381h-73v381zM239 140h73v-381h-73v381z" />
    <glyph glyph-name="section" unicode="&#xa7;" horiz-adv-x="513" 
d="M67 395q0 42 21 75t58 51q-36 20 -56 47t-20 68q0 60 50.5 94.5t146.5 34.5q45 0 82 -7t89 -27l-27 -67q-47 19 -80.5 26t-69.5 7q-56 0 -82.5 -14.5t-26.5 -44.5q0 -27 28 -47.5t104 -47.5q89 -33 126 -70t37 -90q0 -88 -75 -133q74 -39 74 -110q0 -69 -57.5 -107
t-160.5 -38t-169 33v75q42 -19 88.5 -30t84.5 -11q62 0 96 18t34 53q0 30 -26 49t-103 49q-96 36 -131 72.5t-35 91.5zM142 405q0 -25 13 -43.5t43 -35.5t109 -47q64 37 64 91q0 40 -34 66.5t-123 54.5q-32 -9 -52 -33t-20 -53z" />
    <glyph glyph-name="dieresis" unicode="&#xa8;" horiz-adv-x="123" 
d="M35 535q-3 1 -4 3q0 6 11 15q1 1 3 2.5t2.5 2.5t2 1.5l3 1t3.5 0.5q8 0 8 -5t-9 -11.5t-15 -8.5zM61 539q0 4 2.5 7.5t7 5.5t9.5 2q8 0 8 -6v-1q0 -1 -1 -2q-3 -3 -6 -4l-7 -5q-4 -5 -8 -5q-5 0 -5 8z" />
    <glyph glyph-name="copyright" unicode="&#xa9;" horiz-adv-x="289" 
d="M66 126q-10 0 -18.5 1.5t-16.5 4.5q-14 4 -24 15.5t-10 26.5q0 18 16 38q41 46 119 62q2 1 5 1q16 0 22 -5q5 -4 9 -10t4 -11l-1 -1q0 -2 5 -4q16 -5 16 -26q0 -2 -1 -4v-10q-3 -24 -21 -41l-10 -8q-26 -19 -60 -25q-19 -4 -34 -4zM161 243l0.5 2t0.5 3q0 7 -11 13
q-3 1 -5.5 1.5t-5.5 0.5q-7 0 -26 -5q-34 -10 -63 -30t-38 -39q-3 -7 -3 -15t3 -15q10 -17 43 -24h3.5h3.5t3.5 -0.5t3.5 -0.5q5 0 11 0.5t12 1.5q15 3 29 8t27 13q30 18 35 50q0 3 0.5 5t0.5 4q0 8 -5 14t-11 7q-8 1 -8 6zM91 164q-12 0 -18.5 4.5t-6.5 14.5q0 22 47 41
q13 4 18 4t7.5 -2t2.5 -6q0 -6 -4 -11t-8 -5v-1q-5 0 -5 4q0 1 4 7l2 4h-4q-7 -1 -19 -7.5t-18 -13.5q-9 -9 -9 -14q1 -5 4 -6t14 -1q21 0 36 4q0 1 0.5 1h1.5l3 -3q0 -2 -3 -3q-14 -11 -45 -11z" />
    <glyph glyph-name="ordfeminine" unicode="&#xaa;" horiz-adv-x="356" 
d="M261 389l-12 42q-46 -48 -114 -48q-47 0 -75 24.5t-28 74.5t38.5 76t119.5 29l56 2v22q0 30 -19 44.5t-52 14.5q-49 0 -101 -26q-13 30 -22 49q60 29 125 29t98 -27t33 -86v-220h-47zM96 482q0 -48 54 -48q96 0 96 87v23l-48 -2q-54 -2 -78 -16t-24 -44z" />
    <glyph glyph-name="guillemotleft" unicode="&#xab;" horiz-adv-x="268" 
d="M93 162h-2h-1q-8 0 -23 2q-38 2 -47 14l-2 6q0 5 3 10q12 18 45 34l43 21q2 1 8 3.5t11 4t9 1.5q2 0 3.5 -1t1.5 -4q0 -6 -15 -9q-16 -5 -54 -26q-19 -11 -29.5 -20t-10.5 -13q0 -2 1 -2q3 -4 10 -6t26 -5q28 -3 28 -7q0 -3 -5 -3zM163 180h-1.5h-2.5q-9 0 -24 0.5
t-24 2.5q-5 0 -9 1.5t-7 3t-5 4.5t-2 6t2.5 6t6 6.5t9 7t11.5 6.5t12.5 5.5t13.5 4.5q11 4 15 4q7 -1 7 -6q0 -3 -4 -5q-32 -13 -35 -15q-14 -7 -14 -8q-6 -4 -6 -6l-1 -1q4 -4 29 -7h5h7q14 -1 19 -2.5t5 -4.5t-6 -3h-1z" />
    <glyph glyph-name="logicalnot" unicode="&#xac;" horiz-adv-x="571" 
d="M520 388v-260h-71v189h-399v71h470z" />
    <glyph glyph-name="uni00AD" unicode="&#xad;" horiz-adv-x="321" 
d="M40 229v78h242v-78h-242z" />
    <glyph glyph-name="registered" unicode="&#xae;" horiz-adv-x="252" 
d="M56 135q-24 0 -41.5 13t-17.5 36q0 5 2 12q8 40 77 71q1 1 2 1q2 0 3.5 0.5l3 1t3.5 0.5h3q9 0 19 -6l16 -8q5 -1 8.5 -3t7 -6t5.5 -10q8 -15 8 -29q0 -20 -16 -37q-29 -28 -71 -34q-3 -1 -6 -1.5t-6 -0.5zM8 181q0 -18 14.5 -27t34.5 -9h7q42 4 70 35q11 11 11 25
q0 5 -1.5 10t-3.5 10q-5 10 -10 16q0 -1 -1 -1.5t-2 -0.5q-2 0 -5 3l-1 1l-4 4q-8 9 -16 11q-4 2 -9 2q-7 0 -15.5 -4t-18.5 -10q-7 -4 -11 -6.5t-9.5 -7t-9.5 -8.5q-9 -8 -14.5 -20t-5.5 -23zM82 210q-6 0 -6 -2t1.5 -7.5t3.5 -12t4 -10.5q2 -3 2.5 -5t0.5 -4q-1 -4 -4 -5
q-1 0 -3 1l-4 2q-3 3 -5.5 7t-4.5 9t-3 10q-1 4 -3 6q-9 -4 -16 -16q-1 -3 -3.5 -5.5t-4.5 -2.5q-6 0 -6 6q0 9 16 25q8 6 10 10q1 2 2.5 3.5t4.5 1.5q1 1 4.5 2.5t6.5 3.5q13 9 27 9t14 -9q0 -6 -12 -11.5t-22 -5.5z" />
    <glyph glyph-name="macron" unicode="&#xaf;" horiz-adv-x="204" 
d="M137 536h-8.5h-8.5h-5.5h-5.5q-13 -2 -21 -2.5t-15 -1t-11 -1t-6 -0.5q-4 0 -6 1.5t-2 4.5q0 8 35 11h6h2q16 2 26.5 2.5t17.5 0.5q11 0 16.5 -2t5.5 -7q0 -7 -9 -7h-3h-4.5t-3.5 1z" />
    <glyph glyph-name="degree" unicode="&#xb0;" horiz-adv-x="167" 
d="M121 340q19 0 19 -12q0 -9 -17 -15q-5 -2 -10 -2t-9 2h-1q-4 5 -5 7q-1 1 -1 1.5v1.5q0 9 10 14q5 3 14 3zM120 327q-3 0 -6.5 -1t-3.5 -2t1 -2h2q3 0 11 4z" />
    <glyph glyph-name="plusminus" unicode="&#xb1;" horiz-adv-x="571" 
d="M321 391h199v-71h-199v-206h-72v206h-199v71h199v207h72v-207zM50 0v71h470v-71h-470z" />
    <glyph glyph-name="uni00B2" unicode="&#xb2;" horiz-adv-x="350" 
d="M306 286h-282v54l115 112q62 60 79.5 87.5t17.5 61.5q0 32 -18.5 48t-48.5 16t-54.5 -11.5t-50.5 -31.5l-35 46q65 55 141 55q64 0 100.5 -32t36.5 -86q0 -22 -6 -41.5t-18.5 -39.5t-33 -42.5t-138.5 -133.5h195v-62z" />
    <glyph glyph-name="uni00B3" unicode="&#xb3;" horiz-adv-x="350" 
d="M308 613q0 -74 -74 -102q87 -21 87 -102q0 -62 -45 -96.5t-128 -34.5q-74 0 -131 28v63q69 -34 132 -34q100 0 100 76q0 69 -110 69h-57v55h57q50 0 73.5 19t23.5 51q0 29 -19 45t-51 16q-51 0 -111 -38l-36 46q36 27 71 38t75 11q66 0 104.5 -29.5t38.5 -80.5z" />
    <glyph glyph-name="acute" unicode="&#xb4;" horiz-adv-x="150" 
d="M106 579q7 0 7 -5q0 -3 -12 -12q-3 -2 -5 -4t-4.5 -3.5t-5 -3.5t-5.5 -5q-19 -15 -31 -27q-2 -1 -3.5 -2t-3 -1.5t-3.5 -0.5t-4 1.5t-2 4.5q0 6 29 32q17 14 34 23z" />
    <glyph glyph-name="mu" unicode="&#xb5;" horiz-adv-x="623" 
d="M173 190q0 -127 120 -127q83 0 120 45.5t37 148.5v279h88v-536h-71l-14 72h-5q-53 -82 -161 -82q-71 0 -115 45h-4q5 -36 5 -119v-156h-88v776h88v-346z" />
    <glyph glyph-name="paragraph" unicode="&#xb6;" horiz-adv-x="654" 
d="M549 -127h-58v831h-102v-831h-58v400q-30 -9 -71 -9q-105 0 -155 61t-50 184q0 127 53.5 189t166.5 62h274v-887z" />
    <glyph glyph-name="periodcentered" unicode="&#xb7;" horiz-adv-x="138" 
d="M41 215q0 -11 -16 -11q-5 1 -6 3q-1 1 -1.5 3t-0.5 4q0 10 12 10t12 -9z" />
    <glyph glyph-name="cedilla" unicode="&#xb8;" horiz-adv-x="135" 
d="M56 91q-20 0 -20 10q0 6 13 6h1l4 -1q25 0 25 12v2v1q0 4 -7 6q-8 3 -8 8t5 12t14 13l4 2l4 2q4 2 5 2q2 0 4 -1t2 -3q0 -5 -10 -14q-3 -2 -5 -3.5t-3 -2.5l1 -1q4 -2 8.5 -9.5t4.5 -12.5q0 -22 -37 -27q-2 -1 -5 -1z" />
    <glyph glyph-name="uni00B9" unicode="&#xb9;" horiz-adv-x="350" 
d="M167 714h73v-428h-71v276q0 33 4 89q-15 -14 -26.5 -23t-74.5 -55l-35 49z" />
    <glyph glyph-name="ordmasculine" unicode="&#xba;" horiz-adv-x="375" 
d="M345 553q0 -80 -42 -125t-116 -45q-71 0 -113 45t-42 125q0 81 41 125t116 44q73 0 114.5 -44.5t41.5 -124.5zM95 553q0 -59 21.5 -88t71.5 -29q49 0 71 29t22 88t-22 87.5t-71 28.5t-71 -28.5t-22 -87.5z" />
    <glyph glyph-name="guillemotright" unicode="&#xbb;" horiz-adv-x="271" 
d="M46 149q0 11 65 45q22 12 36 20q8 5 10 7q-1 1 -1.5 2t-2 2.5t-4.5 4t-7 5.5q-7 4 -21 9q-8 3 -10.5 5t-2.5 6q2 4 6 4q3 0 8 -2q7 -2 11.5 -4t12 -6.5t15.5 -11.5q13 -11 13 -16q0 -6 -10 -12t-40 -21q-53 -27 -63 -36q-8 -6 -11 -6q-2 0 -3 1.5t-1 3.5zM23 170
q-5 0 -5 4q0 2 2 5q4 4 43 18q3 2 6.5 3t6.5 2.5t5.5 2.5t5 2.5t4.5 2.5t3.5 2l3 2t2.5 2t1.5 2l0.5 1h-1q-7 7 -39 14q-8 3 -9 5q0 1 1 2q1 4 6 4h1.5t3.5 -0.5l4 -1l4 -1t3 -0.5q12 -3 16.5 -4.5t9.5 -4.5q4 -1 6.5 -3t4.5 -4t3.5 -4.5t1.5 -4.5t-1 -4t-2 -3
q-6 -9 -45 -22q-31 -11 -40 -15q-4 -2 -7 -2z" />
    <glyph glyph-name="onequarter" unicode="&#xbc;" horiz-adv-x="790" 
d="M736 96h-61v-96h-75v96h-195v52l197 283h73v-275h61v-60zM600 156v93q0 52 3 101q-4 -9 -48 -77l-80 -117h125zM519 345l1 -1q0 -2 -1 -3.5t-3 -3.5q-6 -5 -17.5 -15t-19.5 -18t-20 -22q-7 -8 -45 -49q-55 -56 -84 -91q-12 -17 -18 -23l-0.5 -0.5l-2 -2t-3 -3.5t-3 -4.5
t-3.5 -5.5q-6 -8 -8.5 -11.5t-2.5 -4.5t0.5 -3t0.5 -3q0 -4 -5 -4l-0.5 0.5l-0.5 0.5q-10 0 -10 7q0 13 37 59q33 46 91 104l52 53q35 36 54 46l1 1l7 2q3 0 3 -5zM165 714h73v-428h-71v276q0 33 4 89q-15 -14 -26.5 -23t-74.5 -55l-35 49z" />
    <glyph glyph-name="onehalf" unicode="&#xbd;" horiz-adv-x="790" 
d="M489 345l1 -1q0 -2 -1 -3.5t-3 -3.5q-6 -5 -17.5 -15t-19.5 -18t-20 -22q-7 -8 -45 -49q-55 -56 -84 -91q-12 -17 -18 -23l-0.5 -0.5l-2 -2t-3 -3.5t-3 -4.5t-3.5 -5.5q-6 -8 -8.5 -11.5t-2.5 -4.5t0.5 -3t0.5 -3q0 -4 -5 -4l-0.5 0.5l-0.5 0.5q-10 0 -10 7q0 13 37 59
q33 46 91 104l52 53q35 36 54 46l1 1l7 2q3 0 3 -5zM152 714h73v-428h-71v276q0 33 4 89q-15 -14 -26.5 -23t-74.5 -55l-35 49zM727 0h-282v54l115 112q62 60 79.5 87.5t17.5 61.5q0 32 -18.5 48t-48.5 16t-54.5 -11.5t-50.5 -31.5l-35 46q65 55 141 55q64 0 100.5 -32
t36.5 -86q0 -22 -6 -41.5t-18.5 -39.5t-33 -42.5t-138.5 -133.5h195v-62z" />
    <glyph glyph-name="threequarters" unicode="&#xbe;" horiz-adv-x="790" 
d="M772 96h-61v-96h-75v96h-195v52l197 283h73v-275h61v-60zM636 156v93q0 52 3 101q-4 -9 -48 -77l-80 -117h125zM563 345l1 -1q0 -2 -1 -3.5t-3 -3.5q-6 -5 -17.5 -15t-19.5 -18t-20 -22q-7 -8 -45 -49q-55 -56 -84 -91q-12 -17 -18 -23l-0.5 -0.5l-2 -2t-3 -3.5t-3 -4.5
t-3.5 -5.5q-6 -8 -8.5 -11.5t-2.5 -4.5t0.5 -3t0.5 -3q0 -4 -5 -4l-0.5 0.5l-0.5 0.5q-10 0 -10 7q0 13 37 59q33 46 91 104l52 53q35 36 54 46l1 1l7 2q3 0 3 -5zM307 613q0 -74 -74 -102q87 -21 87 -102q0 -62 -45 -96.5t-128 -34.5q-74 0 -131 28v63q69 -34 132 -34
q100 0 100 76q0 69 -110 69h-57v55h57q50 0 73.5 19t23.5 51q0 29 -19 45t-51 16q-51 0 -111 -38l-36 46q36 27 71 38t75 11q66 0 104.5 -29.5t38.5 -80.5z" />
    <glyph glyph-name="questiondown" unicode="&#xbf;" horiz-adv-x="399" 
d="M366 472q0 4 3 6.5t6 2.5q5 0 5 -5q1 -1 1 -2v-2l-1 -2l-1 -2q-1 -1 -3 -2h-2h-1q-7 0 -7 6zM39 92q-21 0 -21 17q0 18 26 42l83 68q22 16 54 43q49 39 92 84l30 29q4 3 9.5 8.5t10 10.5t7.5 9q13 15 17 15q1 0 2 -1t1 -2.5t-1 -3.5q-1 -8 -15 -25t-52 -60l-15 -15
l-11.5 -11.5t-13.5 -12t-17 -14.5l-30 -25l-71 -53q-50 -36 -72 -62q-8 -8 -13 -16t-5 -11q0 -2 1 -2.5t4 -0.5q15 0 40 8q32 10 63 29l7 2l22 12q14 9 26 17t19 12.5t11 7.5t5 5q-5 0 -5 3q0 2 5 4q2 1 4 1.5t4 0.5q7 0 7 -6q0 -4 -3 -8q-3 -5 -50 -33q-5 -4 -21 -13
q-59 -34 -102 -47l-6 -2t-6 -1.5t-5.5 -1l-5 -1t-5 -0.5h-4.5z" />
    <glyph glyph-name="Agrave" unicode="&#xc0;" horiz-adv-x="753" 
d="M895 818q-32 38 -32 48q2 4 6 6q3 0 9 -7q4 -4 17 -23t15 -24q1 -3 1 -5q0 -5 -4 -5t-12 10zM853 353v1q0 2 1 4t3 4l3 3q-2 1 -8 1.5t-15.5 1.5t-18.5 1q-15 0 -73 -5q-18 -1 -50 -6l-33 -6q-3 -3 -9 -13q-19 -33 -37 -76q-15 -37 -22.5 -69t-7.5 -61q0 -31 8 -61
q16 -67 56 -71q6 -1 9 -1q7 0 18 6q1 1 2 1q2 0 3 -3q0 -5 -8.5 -9t-19.5 -5h-1h-1q-18 0 -34.5 11.5t-27.5 31.5q-11 22 -18 57q-3 15 -3 37q0 33 14 89q5 22 19 54t30 59l10 20q-3 -1 -6.5 -1.5l-7 -1t-6.5 -1t-6.5 -1t-6.5 -0.5q-10 0 -26 -5q-1 -1 -3 -2t-3.5 -2
t-2.5 -2q-9 -6 -75 -47q-33 -20 -50 -30q-99 -58 -167 -87q-90 -41 -179 -57q-21 -4 -34 -4q-21 0 -36 8q-9 7 -12 14q-1 3 -1 7q0 10 7 19q13 16 22 16q7 0 7 -4q0 -2 -6 -6q-6 -5 -10 -8q-1 -2 -7 -16v-1q0 -17 41 -17q21 0 56 8q61 14 124 40q113 46 258 136l33 22
q2 2 10 7l-158 -32q-18 -5 -52 -13.5t-48 -11.5q-42 -12 -58 -13q-9 0 -9 5q0 4 8 8q6 3 15 12q12 16 20 16q1 0 3 -1v-2q0 -5 -7 -10q-1 -1 -5 -6t-6 -6v-2q2 1 4 1.5t6 0.5q21 5 75 18.5t82 19.5l138 27q12 2 37 20l23 17q18 11 65 45q16 13 24 24l23 30q28 35 80 109
q3 4 19.5 26.5t23.5 35.5q7 12 11 12q2 0 3 -2t1 -4v-3q-2 -5 -21 -31q-63 -94 -85 -123q-14 -18 -26 -35q18 15 50.5 42t66 56.5t46.5 42.5t37 41q2 3 21 30q19 29 19 48q0 12 -7 21q-10 12 -34 14q-12 2 -25 2t-30 -2q-51 -4 -120 -23q-227 -66 -382 -188q-30 -24 -30 -45
v-3q-12 3 -12 13q0 5 8 15q33 37 93 74q64 41 128 70q21 10 43 19t44 17.5t44 16t45 14.5q107 31 173 31h5q21 0 36 -4q33 -11 33 -43q0 -12 -5 -25q-10 -21 -32.5 -51.5t-47.5 -52.5q-45 -45 -97 -87l-28 -23l-35 -27q-29 -22 -41 -38q-8 -12 -21 -31t-17 -25q2 0 8 1
q26 4 43 6t39 3.5t48 2.5q22 2 34 2q23 0 29 -6q4 -3 4 -6q2 -6 -4.5 -11t-12.5 -5q-1 0 -2 0.5t-2 1.5zM644 359q4 1 24 30q2 3 5.5 8t6.5 9l6 8l-54 -39q-15 -9 -18 -12q-2 -2 -7 -6t-8 -6z" />
    <glyph glyph-name="Aacute" unicode="&#xc1;" horiz-adv-x="753" 
d="M1017 866q5 3 10 3q7 0 7 -5q0 -3 -13 -13q-10 -8 -20 -15q-19 -15 -31 -27q-4 -4 -9 -4q-7 0 -7 6t30 31q17 14 33 24zM852 353v1q0 2 1.5 4t3.5 4l3 3q-12 4 -42 4q-15 0 -73 -5q-7 -1 -13 -1.5t-11.5 -1t-8 -1t-9 -1.5t-8.5 -1l-33 -6q-3 -3 -9 -13q-19 -33 -37 -76
q-30 -72 -30 -130q0 -31 8 -61q16 -67 56 -71q6 -1 8 -1q8 0 18 6q2 1 3 1q2 0 3 -3q0 -5 -8.5 -9t-19.5 -5h-1h-1q-18 0 -34.5 11.5t-27.5 31.5q-11 22 -18 57q-1 5 -1.5 11t-1 12.5t-0.5 13.5q0 8 0.5 14.5t1.5 14t1 11.5t2 12.5t2.5 10.5t3 13t3.5 13q13 51 48 113l11 20
q-5 -1 -16.5 -3t-16.5 -2h-1q-9 0 -25 -5q-1 -1 -3 -2t-3.5 -2t-2.5 -2q-9 -6 -75 -47q-33 -20 -50 -30q-99 -58 -167 -87q-90 -41 -179 -57q-21 -4 -34 -4q-21 0 -36 8q-9 7 -12 14q-1 3 -1 7q0 10 7 19q13 16 22 16q7 0 7 -4q0 -2 -6 -6q-6 -5 -10 -8q-1 -2 -7 -16v-1
q0 -17 41 -17q21 0 56 8q61 14 124 40q113 46 258 136l33 22q2 2 10 7l-158 -32q-18 -5 -52 -13.5t-49 -11.5q-41 -12 -57 -13q-9 0 -9 5q0 4 8 8q6 3 15 12q5 7 11 11.5t9 4.5q1 0 3 -1v-2q0 -2 -2 -4.5t-5 -5.5q-2 -1 -5.5 -6t-5.5 -6v-2q3 1 10 2q20 5 49.5 12.5t57.5 14
t50 11.5l138 27q12 2 37 20l23 17q18 11 64 45q16 13 25 24l22 30q29 35 81 109q4 6 10.5 15t11.5 15.5t11 15.5t10 16q6 12 11 12q4 0 4 -6v-3q-2 -4 -4.5 -8.5t-5 -7.5t-6 -8t-5.5 -7q-63 -93 -85 -123q-8 -9 -14.5 -18.5t-11.5 -16.5q31 25 87.5 73t75.5 68q13 13 37 41
q2 3 21 30q19 29 19 48q0 12 -7 21q-10 12 -34 14q-12 2 -25 2t-30 -2q-51 -4 -120 -23q-227 -66 -382 -188q-30 -24 -30 -45v-3q-12 3 -12 13q0 5 8 15q33 37 93 74q63 41 128 70q82 39 176 67q107 31 173 31h5q21 0 36 -4q33 -11 33 -43q0 -12 -5 -25q-3 -7 -8 -15.5
t-11 -17t-13 -18t-15 -19t-16.5 -18.5t-16.5 -16q-12 -13 -30.5 -29.5t-36 -31.5t-31.5 -26l-27 -23l-35 -27q-29 -22 -41 -38q-27 -37 -38 -56q2 0 8 1q69 10 130 12q21 2 34 2q9 0 14.5 -0.5t9 -2t5.5 -3.5q4 -3 4 -6q1 -3 0 -5.5t-3 -4t-5 -3t-5.5 -2.5t-4.5 -1t-4 2z
M644 359q2 1 3.5 2t6 7.5t14.5 20.5q2 3 4.5 6.5t4.5 6t4.5 6t4.5 6.5l-54 -39l-12 -7.5t-6 -4.5t-7 -6t-8 -6z" />
    <glyph glyph-name="Acircumflex" unicode="&#xc2;" horiz-adv-x="753" 
d="M980 833q0 -5 -4 -5t-6.5 4.5t-5.5 13t-3 9.5q-23 -8 -44 -21q-7 -7 -12 -7t-5 5q0 6 7.5 10.5t34.5 17.5q21 9 27 9t8 -9q0 -2 0.5 -5.5t1.5 -6.5t1 -5v-1v-4v-5zM853 353v1q0 2 1 4t3 4l3 3q-2 1 -8 1.5t-15.5 1.5t-18.5 1q-15 0 -73 -5q-18 -1 -50 -6l-33 -6
q-3 -3 -9 -13q-19 -33 -37 -76q-15 -37 -22.5 -69t-7.5 -61q0 -31 8 -61q16 -67 56 -71q6 -1 9 -1q7 0 18 6q1 1 2 1q2 0 3 -3q0 -5 -8.5 -9t-19.5 -5h-1h-1q-18 0 -34.5 11.5t-27.5 31.5q-11 22 -18 57q-3 15 -3 37q0 33 14 89q5 22 19 54t30 59l10 20q-3 -1 -6.5 -1.5
l-7 -1t-6.5 -1t-6.5 -1t-6.5 -0.5q-10 0 -26 -5q-1 -1 -3 -2t-3.5 -2t-2.5 -2q-9 -6 -75 -47q-33 -20 -50 -30q-99 -58 -167 -87q-90 -41 -179 -57q-21 -4 -34 -4q-21 0 -36 8q-9 7 -12 14q-1 3 -1 7q0 10 7 19q13 16 22 16q7 0 7 -4q0 -2 -6 -6q-6 -5 -10 -8q-1 -2 -7 -16
v-1q0 -17 41 -17q21 0 56 8q61 14 124 40q113 46 258 136l33 22q2 2 10 7l-158 -32q-18 -5 -52 -13.5t-48 -11.5q-42 -12 -58 -13q-9 0 -9 5q0 4 8 8q6 3 15 12q12 16 20 16q1 0 3 -1v-2q0 -5 -7 -10q-1 -1 -5 -6t-6 -6v-2q2 1 4 1.5t6 0.5q21 5 75 18.5t82 19.5l138 27
q12 2 37 20l23 17q18 11 65 45q16 13 24 24l23 30q28 35 80 109q3 4 19.5 26.5t23.5 35.5q7 12 11 12q2 0 3 -2t1 -4v-3q-2 -5 -21 -31q-63 -94 -85 -123q-14 -18 -26 -35q18 15 50.5 42t66 56.5t46.5 42.5t37 41q2 3 21 30q19 29 19 48q0 12 -7 21q-10 12 -34 14
q-12 2 -25 2t-30 -2q-51 -4 -120 -23q-227 -66 -382 -188q-30 -24 -30 -45v-3q-12 3 -12 13q0 5 8 15q33 37 93 74q64 41 128 70q21 10 43 19t44 17.5t44 16t45 14.5q107 31 173 31h5q21 0 36 -4q33 -11 33 -43q0 -12 -5 -25q-10 -21 -32.5 -51.5t-47.5 -52.5
q-45 -45 -97 -87l-28 -23l-35 -27q-29 -22 -41 -38q-8 -12 -21 -31t-17 -25q2 0 8 1q26 4 43 6t39 3.5t48 2.5q22 2 34 2q23 0 29 -6q4 -3 4 -6q2 -6 -4.5 -11t-12.5 -5q-1 0 -2 0.5t-2 1.5zM644 359q4 1 24 30q2 3 5.5 8t6.5 9l6 8l-54 -39q-15 -9 -18 -12q-2 -2 -7 -6
t-8 -6z" />
    <glyph glyph-name="Atilde" unicode="&#xc3;" horiz-adv-x="753" 
d="M947 836q-7 6 -12.5 6t-17.5 -10q-7 -6 -11 -6q-8 0 -8 6q0 8 20 18q9 5 16 5q9 0 18 -8q18 -13 32 -13q9 0 20 6q9 5 15 5h-1q5 0 5 -3q0 -2 -1 -4q-13 -18 -38 -18q-22 0 -37 16zM852 353v1q0 1 1 3t2 3l2.5 2.5l2.5 2.5q-12 4 -42 4q-8 0 -15.5 -0.5l-15 -1t-14 -1
t-15 -1.5t-13.5 -1q-19 -1 -50 -6l-33 -6q-3 -3 -9 -13q-19 -33 -37 -76q-30 -72 -30 -130q0 -31 8 -61q16 -67 56 -71q6 -1 8 -1q8 0 19 6q1 1 2 1q2 0 3 -3q0 -3 -4 -6t-10.5 -5.5t-13.5 -2.5h-1h-1q-18 0 -34.5 11.5t-27.5 31.5q-11 22 -18 57q-3 15 -3 37q0 33 14 89
q13 51 48 113l11 20q-6 -1 -17 -3t-16 -2h-1q-9 0 -25 -5q-2 -1 -6 -4l-3 -2q-9 -6 -75 -47q-33 -20 -50 -30q-30 -18 -55 -31.5t-55 -28.5t-57 -27q-90 -41 -179 -57q-21 -4 -34 -4q-21 0 -36 8q-9 7 -12 14q-1 3 -1 7q0 10 7 19q13 16 22 16q7 0 7 -4q0 -2 -6 -6
q-6 -5 -10 -8q-1 -2 -7 -16v-1q0 -17 41 -17q21 0 56 8q61 14 124 40q113 46 258 136l33 22q2 2 10 7l-158 -32q-18 -5 -52 -13.5t-49 -11.5q-41 -12 -57 -13q-9 0 -9 5q0 4 8 8q6 3 15 12q12 16 20 16q1 0 3 -1v-2q0 -5 -7 -10q-2 -1 -5.5 -6t-5.5 -6v-2q3 1 10 2
q21 5 75 18.5t82 19.5l138 27q12 2 37 20l23 17q10 6 23 15t42 30q16 13 24 24l22 30q29 35 81 109q3 4 19.5 26.5t23.5 35.5q6 12 11 12q4 0 4 -6v-3q-2 -5 -21 -31q-63 -93 -85 -123q-15 -18 -26 -35q31 25 87.5 73t75.5 68q13 13 37 41q2 3 21 30q19 29 19 48q0 12 -7 21
q-10 12 -34 14q-12 2 -25 2t-30 -2q-51 -4 -120 -23q-227 -66 -382 -188q-30 -24 -30 -45v-3q-12 3 -12 13q0 5 8 15q33 37 93 74q63 41 128 70q82 39 176 67q33 10 57.5 16t56 10.5t59.5 4.5h5q21 0 36 -4q33 -11 33 -43q0 -12 -5 -25q-10 -21 -32.5 -51.5t-47.5 -52.5
q-45 -45 -97 -87l-28 -23l-35 -27q-29 -22 -41 -38q-8 -12 -21 -31t-17 -25q2 0 8 1q69 10 130 12q11 1 19.5 1.5t14.5 0.5q13 0 19.5 -1.5t9.5 -4.5q4 -3 4 -6q2 -6 -5 -11t-13 -5q-1 0 -4 2zM644 359q4 1 24 30l18 25l-54 -39q-6 -4 -9 -5.5t-5 -3.5t-4 -3q-2 -2 -7 -6
t-8 -6z" />
    <glyph glyph-name="Adieresis" unicode="&#xc4;" horiz-adv-x="753" 
d="M958 821q-3 -1 -5 -1q-4 0 -4 4q0 5 11 14q10 8 15 8q7 0 7 -5q0 -3 -4.5 -7.5t-10 -8t-9.5 -4.5zM984 817q-5 0 -5 7q0 4 3 8t7.5 6t8.5 2q9 0 9 -6v-2q-6 -5 -8 -6q-3 -1 -7 -4q-4 -5 -8 -5zM852 353v1q0 1 1 3t2 3l2.5 2.5l2.5 2.5q-4 1 -16 2.5t-26 1.5q-15 0 -73 -5
q-18 -1 -50 -6l-33 -6q-3 -3 -9 -13q-19 -33 -37 -76q-30 -72 -30 -130q0 -31 8 -61q16 -67 56 -71q6 -1 8 -1q8 0 19 6q1 1 2 1q2 0 3 -2v-1q0 -3 -4 -6t-10.5 -5.5t-13.5 -2.5h-1h-1q-9 0 -18 3t-17 8.5t-15 13.5t-12 18t-10.5 27.5t-7.5 29.5q-3 15 -3 37q0 33 14 89
q3 14 10.5 33.5t17.5 40.5t21 39l10 20q-4 -1 -10.5 -2t-12.5 -2t-10 -1q-2 0 -6 -1t-9.5 -2t-10.5 -2q-2 -1 -6 -4l-3 -2q-12 -7 -23.5 -14.5t-28.5 -18t-23 -14.5q-33 -20 -50 -30q-99 -58 -167 -87q-90 -41 -179 -57q-21 -4 -34 -4q-21 0 -36 8q-9 7 -12 14q-1 3 -1 7
q0 10 7 19q13 16 22 16q7 0 7 -4q0 -2 -6 -6q-6 -5 -10 -8q-1 -2 -7 -16v-1q0 -17 41 -17q21 0 56 8q61 14 124 40q113 46 258 136l33 22q1 1 2.5 2t3.5 2t4 3l-158 -32q-18 -5 -52 -13.5t-48 -11.5q-3 -1 -11 -3l-12 -3t-10.5 -3t-12.5 -3t-12 -1q-9 0 -9 5q0 4 8 8
q6 3 15 12q5 7 11 11.5t9 4.5q1 0 3 -1v-2q0 -1 -0.5 -2t-1.5 -2.5l-2 -3t-3 -2.5q-1 -1 -3 -3.5l-4 -5t-4 -3.5v-2q1 1 2.5 1t3 0.5t4.5 0.5q13 3 30 7.5t32.5 8t31.5 7.5t32.5 8t30.5 7l138 27q12 2 37 20l23 17q18 11 65 45q16 13 24 24l23 30q28 35 80 109
q3 4 19.5 26.5t23.5 35.5q6 12 11 12q4 0 4 -6v-3q-2 -5 -21 -31q-63 -94 -85 -123q-15 -18 -26 -35q18 15 50.5 42t66 56.5t46.5 42.5t37 41q2 3 21 30q19 29 19 48q0 12 -7 21q-10 12 -34 14q-12 2 -25 2t-30 -2q-51 -4 -120 -23q-108 -31 -204.5 -77.5t-177.5 -110.5
q-30 -24 -30 -45v-3q-12 3 -12 13q0 5 8 15q33 37 93 74q64 41 128 70q82 39 176 67q107 31 173 31h5q21 0 36 -4q33 -11 33 -43q0 -12 -5 -25q-10 -21 -32.5 -51.5t-47.5 -52.5q-44 -45 -97 -87l-28 -23l-35 -27q-29 -22 -41 -38q-27 -37 -38 -56q2 0 8 1q38 5 65 8t65 4
q7 1 13.5 1.5t11.5 0.5h9q23 0 29 -6q4 -3 4 -6q2 -4 -1.5 -8t-8 -6t-7.5 -2q-2 0 -5 2zM644 359q4 1 24 30l18 25l-54 -39l-12 -7.5t-6 -4.5t-7 -6t-8 -6z" />
    <glyph glyph-name="Aring" unicode="&#xc5;" horiz-adv-x="753" 
d="M941 830v2q0 5 4 9t10.5 6.5t11.5 2.5q15 0 15 -14q0 -8 -7.5 -13.5t-17.5 -5.5q-13 1 -16 13zM971 837q-2 2 -6 2t-8 -2t-4 -5q0 -4 6 -4q2 0 4 1q8 4 8 8zM853 353v1q0 2 1 4t3 4l3 3q-2 1 -8 1.5t-15.5 1.5t-18.5 1q-15 0 -73 -5q-18 -1 -50 -6l-33 -6q-3 -3 -9 -13
q-19 -33 -37 -76q-15 -37 -22.5 -69t-7.5 -61q0 -31 8 -61q16 -67 56 -71q6 -1 9 -1q7 0 18 6q1 1 2 1q2 0 3 -3q0 -5 -8.5 -9t-19.5 -5h-1h-1q-18 0 -34.5 11.5t-27.5 31.5q-11 22 -18 57q-3 15 -3 37q0 33 14 89q5 22 19 54t30 59l10 20q-3 -1 -6.5 -1.5l-7 -1t-6.5 -1
t-6.5 -1t-6.5 -0.5q-10 0 -26 -5q-1 -1 -3 -2t-3.5 -2t-2.5 -2q-9 -6 -75 -47q-33 -20 -50 -30q-99 -58 -167 -87q-90 -41 -179 -57q-21 -4 -34 -4q-21 0 -36 8q-9 7 -12 14q-1 3 -1 7q0 10 7 19q13 16 22 16q7 0 7 -4q0 -2 -6 -6q-6 -5 -10 -8q-1 -2 -7 -16v-1
q0 -17 41 -17q21 0 56 8q61 14 124 40q113 46 258 136l33 22q2 2 10 7l-158 -32q-18 -5 -52 -13.5t-48 -11.5q-42 -12 -58 -13q-9 0 -9 5q0 4 8 8q6 3 15 12q12 16 20 16q1 0 3 -1v-2q0 -5 -7 -10q-1 -1 -5 -6t-6 -6v-2q2 1 4 1.5t6 0.5q21 5 75 18.5t82 19.5l138 27
q12 2 37 20l23 17q18 11 65 45q16 13 24 24l23 30q28 35 80 109q3 4 19.5 26.5t23.5 35.5q7 12 11 12q2 0 3 -2t1 -4v-3q-2 -5 -21 -31q-63 -94 -85 -123q-14 -18 -26 -35q18 15 50.5 42t66 56.5t46.5 42.5t37 41q2 3 21 30q19 29 19 48q0 12 -7 21q-10 12 -34 14
q-12 2 -25 2t-30 -2q-51 -4 -120 -23q-227 -66 -382 -188q-30 -24 -30 -45v-3q-12 3 -12 13q0 5 8 15q33 37 93 74q64 41 128 70q21 10 43 19t44 17.5t44 16t45 14.5q107 31 173 31h5q21 0 36 -4q33 -11 33 -43q0 -12 -5 -25q-10 -21 -32.5 -51.5t-47.5 -52.5
q-45 -45 -97 -87l-28 -23l-35 -27q-29 -22 -41 -38q-8 -12 -21 -31t-17 -25q2 0 8 1q26 4 43 6t39 3.5t48 2.5q22 2 34 2q23 0 29 -6q4 -3 4 -6q2 -6 -4.5 -11t-12.5 -5q-1 0 -2 0.5t-2 1.5zM644 359q4 1 24 30q2 3 5.5 8t6.5 9l6 8l-54 -39q-15 -9 -18 -12q-2 -2 -7 -6
t-8 -6z" />
    <glyph glyph-name="AE" unicode="&#xc6;" horiz-adv-x="1141" 
d="M802 215q2 -1 3 -1q2 0 4.5 0.5t3.5 0.5q3 0 10 4q14 10 52 28q41 18 69 28q21 7 44 11q15 3 23 3q24 0 24 -15q0 -14 -20 -24q-15 -8 -41 -17t-46.5 -14.5t-47 -9.5t-54.5 -4q-4 0 -20 -8q-7 -4 -21 -14q-28 -19 -45 -43q-5 -7 -8 -15.5t-3 -16.5q0 -9 9 -17q7 -8 26 -8
q11 0 23.5 2t23 4.5t23.5 6.5q38 12 138 58q20 9 46.5 24.5t54 31t47.5 25.5q4 2 6.5 2t7.5 -3q-120 -71 -198 -107l-43 -20q-33 -15 -75 -27q-11 -3 -17.5 -4.5t-16.5 -3t-19 -1.5t-16 1q-5 1 -8 2t-7 3t-7 4.5t-5 6.5q-5 8 -5 19q0 3 0.5 6t0.5 6q4 22 28 46q25 25 44 35
q7 4 11 7q-33 5 -57 24q-21 15 -32 46q-1 4 -2 9t-1 11q0 10 4 31.5t4 32.5q-23 -3 -55 -9q-4 -3 -9 -13q-23 -38 -39 -77q-29 -74 -29 -131q0 -30 7 -59q18 -67 58 -71q5 -1 8 -1q7 0 16 6q3 1 4 1q3 0 3 -3q0 -5 -10 -9.5t-21 -4.5q-18 0 -34.5 12t-25.5 31q-15 29 -19 57
q-2 12 -2 33q0 39 10 80l3 13q12 45 49 113l11 20q-5 -1 -16.5 -3t-17.5 -2q-9 0 -25 -5q-4 -1 -10 -6q-69 -44 -124 -77q-80 -48 -167 -87q-92 -41 -179 -57q-23 -4 -36 -4q-20 0 -34 8q-13 8 -13 22q0 11 6 18q15 16 23 16q6 0 6 -4q0 -2 -4 -5q-6 -4 -11 -9q-7 -9 -7 -16
q0 -18 41 -18q21 0 56 8q60 14 123 40q68 28 178 88q45 24 81 48l33 22q2 2 9 7q-8 -2 -25.5 -5.5t-32 -6t-32.5 -6.5t-31 -6.5t-23.5 -4.5t-13.5 -3q-13 -4 -54 -13.5t-62 -16.5q-27 -8 -41 -8q-9 0 -9 4t8 9q9 6 13 12q6 7 12 11.5t9 4.5t3 -3.5t-6 -9.5t-11 -13q2 0 8 1
q22 5 36 9l123 28q4 2 34 7l103 21q16 3 37 20q29 21 36 26q26 16 51 36q9 7 14.5 12t10.5 12q63 85 102 139q4 6 14 19t17 23t13 20q3 6 5.5 9t4.5 3q4 0 4 -5q0 -1 -1 -4q-2 -6 -19 -31l-28 -42q-15 -21 -46 -63.5t-36 -49.5q35 28 88.5 73.5t72.5 64.5q29 28 59 71
q8 12 14 24t6 23q0 38 -64 38q-5 0 -35 -2q-44 -2 -118 -23q-226 -64 -382 -188q-30 -25 -30 -45v-3l-2 1q-9 2 -9 14q0 6 8 13q42 42 92 74q57 36 128 70q82 39 176 67q106 31 178 31q24 0 36 -4q11 -4 19.5 -10.5t11.5 -16.5q2 -7 2 -16q0 -12 -5 -26q-10 -20 -33 -50.5
t-47 -53.5q-20 -19 -98 -87l-27 -23l-35 -27q-29 -23 -41 -39q-26 -36 -38 -56q26 4 41 5l10 1q19 45 60 91q0 1 2 2.5t4 3.5t2 3q6 10 14 20.5t16 18.5t19 16.5t19.5 14.5t21 14.5t19.5 14.5q17 13 36.5 27t42.5 29.5t37 25.5l10 7q9 6 19 12t18.5 10.5t20 10t19 9
t20.5 8.5l19.5 7.5t21 8.5t20.5 8q18 7 38.5 12.5t38.5 8.5q19 3 34 3q17 0 34 -4q19 -5 34 -23q4 -4 8 -19q1 -3 1 -10v0q0 -26 -26 -61q-14 -18 -46 -48q-13 -12 -25 -22.5t-25 -21t-27 -20.5t-27 -19q-69 -43 -102 -57q-1 -1 -6 -3t-6 -2.5t-6 -2.5t-6.5 -3t-6 -2.5
t-7 -2t-6.5 -1.5t-7 -1.5t-6.5 -1t-7.5 -0.5q-36 0 -36 26q0 9 5 20q8 18 27 41q49 59 143 121q13 9 21 9q4 0 10 -4q-6 -6 -15 -10q-8 -4 -40 -25q-17 -11 -49 -39q-10 -9 -47 -48q-14 -15 -23.5 -27.5t-14.5 -25.5q-1 -2 -1.5 -4.5l-1 -5t-0.5 -4.5q0 -15 22 -15h6
q11 2 33 10q21 8 44 20t39 22.5t41 27.5q30 21 59 44t56 47q25 23 43 54q11 19 11 34q0 12 -7 23q-16 25 -57 25q-10 0 -23 -2t-18.5 -3t-22.5 -5q-3 -1 -37 -12q-71 -24 -136 -58q-50 -27 -111 -72q-65 -46 -112.5 -91.5t-83.5 -100.5q-9 -15 -16 -29q12 1 23.5 2t25.5 2
t23 1q6 1 11 1.5t9 0.5h8h7q22 0 29 -7q3 -2 3 -5q1 -4 -2.5 -8t-8 -6t-7.5 -2q-4 0 -4 3q0 6 5 8q2 1 3 3q-12 3 -46 3q-18 0 -83 -5q-10 -33 -10 -55q0 -28 13 -51t36 -31q22 -8 34 -11zM642 359q2 1 4 2.5t8 11.5q24 31 31 41l-54 -39q-5 -4 -12 -8l-6 -4l-14 -12z
M1021 264q5 4 5 7t-4 5t-8 2q-37 0 -72 -14q-38 -16 -49 -21q-37 -18 -58 -29l27 1q53 4 105 24q13 5 20 7q24 7 34 18z" />
    <glyph glyph-name="Ccedilla" unicode="&#xc7;" horiz-adv-x="653" 
d="M509 539q16 0 16 -11q0 -1 -0.5 -3.5t-0.5 -3.5v-6l-1 1l-1 1l-2 2q-6 5 -14 5q-3 0 -5.5 -0.5l-5 -1t-4.5 -0.5q-12 -4 -25 -11.5t-28 -18.5q-32 -25 -54 -47q-41 -42 -41 -67v-2q0 -5 1 -7.5t3.5 -4t6.5 -1.5h3q22 3 86 36q30 15 56 32q21 12 87 59q15 11 29 23.5
l28 25t27 26.5q45 47 58 82l3 17q0 36 -54 36q-56 0 -140 -30q-67 -24 -138 -66q-137 -80 -241 -208q-86 -104 -113 -198q-10 -39 -10 -72q0 -44 22 -62q8 -7 20 -13q1 0 3 1q4 0 5 -4q21 -7 52 -7q34 0 78 9q39 9 97 30q28 11 59.5 25.5t54 26t59 30.5t53.5 28
q48 25 100 57q21 12 25 12t4 -4q0 -2 -2 -4q-6 -5 -69 -41.5t-113 -62.5q-66 -33 -168 -76q-93 -39 -172 -41q-5 -1 -10 -1q-31 0 -54 9l-4 -4q-5 -4 -8 -6q1 0 2 -1q4 -2 8 -9t4 -13q0 -22 -36 -27h-5q-20 0 -20 10q0 5 13 5h5q24 0 24 11v2v1.5v0.5q0 3 -6 5q-8 3 -8 8
q0 10 16 24q-12 6 -19 14q-25 26 -25 73q0 57 26 120q42 96 145 202q131 136 291 206q62 27 112 39q46 13 81 13q68 0 68 -47q0 -6 -1 -12q-6 -35 -54 -87q-23 -25 -43 -42q-104 -92 -231 -152q-40 -20 -62 -20t-22 25q0 42 60 95q28 23 54 40t54 25q6 2 11 2z" />
    <glyph glyph-name="Egrave" unicode="&#xc8;" horiz-adv-x="458" 
d="M629 786q-31 38 -31 48q0 6 5 6q3 0 9 -7q4 -4 17 -23t15 -24q1 -3 1 -5q0 -5 -4 -5t-12 10zM97 180q-54 -37 -54 -75q2 -14 11 -19.5t27 -5.5q30 0 69 14q36 13 134 58q28 13 99.5 56.5t78.5 47.5q2 1 4 1q4 0 7 -6q-18 -11 -51 -30.5t-54 -32.5t-50.5 -29.5
t-55.5 -28.5q-77 -37 -128 -51q-31 -9 -55 -9q-48 0 -48 36q0 26 28 57q22 22 54 42l-3 1q-30 5 -54 23q-36 27 -36 83q0 26 9 52q11 27 31 57t44 57t48.5 49.5t49.5 40.5q74 57 134 92q50 30 119.5 57t117.5 34q22 3 39 3q48 0 65 -27q8 -11 8 -26q0 -28 -26 -64
q-16 -21 -45 -48q-59 -53 -106 -83q-127 -79 -171 -79q-16 0 -24 8t-8 20q0 30 31 68q49 61 140 114q16 9 24 9q3 0 5.5 -1.5t2.5 -5.5q0 -3 -6 -5q-5 -2 -8 -3q-39 -22 -59 -36t-39 -30q-28 -24 -47 -48.5t-28 -49.5q-2 -7 -2 -12q0 -17 22 -17h6q29 6 73.5 29.5t83.5 50.5
q63 43 116 91q25 23 43 54q12 20 12 35q0 12 -8 22q-15 23 -54 23q-26 0 -69 -11q-29 -7 -83 -28t-90 -39q-17 -10 -37.5 -22.5t-38 -24.5t-36.5 -25q-68 -50 -114.5 -94t-80.5 -99q-32 -51 -32 -93q0 -56 48 -79q31 -14 45 -14q3 0 9 4q22 13 53 27q22 11 57.5 23.5
t53.5 15.5q12 2 24 2q27 0 27 -13q0 -22 -62 -43q-76 -26 -149 -26q-7 0 -20 -9q-3 -2 -6.5 -4.5t-8 -5.5t-6.5 -5zM334 264q6 6 6 9q0 5 -16 5q-31 0 -68 -14l-29 -11q-30 -10 -81 -39l28 1q37 4 93 19q56 19 67 30z" />
    <glyph glyph-name="Eacute" unicode="&#xc9;" horiz-adv-x="458" 
d="M744 854q5 3 10 3q7 0 7 -5q0 -3 -13 -13q-10 -8 -20 -15q-19 -15 -31 -27q-4 -4 -9 -4q-7 0 -7 6t30 31q17 14 33 24zM97 180q-54 -37 -54 -75q2 -14 11 -19.5t27 -5.5q30 0 69 14q35 13 134 58q28 13 99 56.5t79 47.5q2 1 4 1q3 0 6 -5v-1q-14 -8 -62.5 -38
t-81.5 -48.5t-66 -34.5q-77 -37 -128 -51q-31 -9 -55 -9q-48 0 -48 36q0 26 28 57q22 22 54 42l-3 1q-30 5 -54 23q-36 27 -36 83q0 26 9 52q20 53 69.5 108.5t103.5 95.5q73 57 133 92q51 30 120 57t117 34q11 2 21 2.5t19 0.5q11 0 20.5 -1.5t18 -4.5t15 -8.5t11.5 -12.5
q8 -11 8 -26q0 -28 -26 -64q-16 -21 -45 -48q-29 -25 -54.5 -45.5t-52.5 -37.5q-126 -79 -170 -79q-16 0 -24 8t-8 20q0 30 31 68q49 61 140 114q15 9 23 9q9 0 9 -7q0 -3 -7 -5q-5 -2 -8 -3q-38 -22 -58 -36t-39 -30q-58 -49 -75 -98q-3 -7 -3 -12q0 -17 23 -17h5
q57 11 158 80q30 21 59.5 44t56.5 47q25 23 43 54q12 20 12 35q0 12 -8 22q-15 23 -55 23q-26 0 -69 -11q-29 -7 -83 -28t-89 -39q-50 -27 -112 -72q-44 -33 -74 -58t-64 -61t-57 -74q-32 -51 -32 -93q0 -56 48 -79q31 -14 45 -14q3 0 9 4q22 13 53 27q22 11 57.5 23.5
t53.5 15.5q12 2 23 2q28 0 28 -13q0 -22 -62 -43q-76 -26 -149 -26q-7 0 -20 -9q-3 -2 -6.5 -4.5t-8 -5.5t-6.5 -5zM334 264q6 6 6 9q0 1 -1 2t-3 1.5t-5 1t-8 0.5q-31 0 -67 -14l-29 -11q-30 -10 -81 -39l28 1q37 4 93 19q55 19 67 30z" />
    <glyph glyph-name="Ecircumflex" unicode="&#xca;" horiz-adv-x="458" 
d="M699 796q0 -5 -4 -5t-6.5 4.5t-5.5 13t-3 9.5q-23 -8 -44 -21q-7 -7 -12 -7t-5 6q0 5 7.5 9.5t34.5 17.5q21 9 27 9t8 -9q0 -3 1 -8.5t2 -8.5v-5v-5zM97 180q-54 -37 -54 -75q2 -14 11 -19.5t27 -5.5q30 0 69 14q36 13 134 58q28 13 99.5 56.5t78.5 47.5q2 1 4 1
q3 0 7 -6q-17 -10 -41 -24.5t-42.5 -25.5t-40.5 -24t-44 -25t-43 -22q-77 -37 -128 -51q-31 -9 -55 -9q-48 0 -48 36q0 26 28 57q22 22 54 42l-3 1q-30 5 -54 23q-36 27 -36 83q0 26 9 52q20 53 69.5 108.5t103.5 95.5q74 57 133 92q51 30 120.5 57t117.5 34q22 3 39 3
q48 0 65 -27q8 -11 8 -26q0 -28 -26 -64q-16 -21 -45 -48q-59 -53 -106 -83q-127 -79 -171 -79q-16 0 -24 8t-8 20q0 30 31 68q49 61 140 114q16 9 24 9t8 -7q0 -3 -6 -5t-8 -3q-63 -36 -98 -66q-58 -49 -75 -98q-2 -7 -2 -12q0 -9 6 -13t16 -4h5q58 11 158 80q63 43 116 91
q25 23 43 54q12 20 12 35q0 12 -8 22q-15 23 -54 23q-26 0 -69 -11q-29 -7 -83.5 -28t-89.5 -39q-49 -27 -112 -72q-68 -50 -114.5 -94t-80.5 -99q-32 -51 -32 -93q0 -56 48 -79q31 -14 45 -14q3 0 9 4q22 13 53 27q22 11 57.5 23.5t53.5 15.5q5 1 11.5 1.5t12.5 0.5
q27 0 27 -13q0 -22 -62 -43q-76 -26 -149 -26q-7 0 -20 -9q-3 -2 -6.5 -4.5t-8 -5.5t-6.5 -5zM334 264q3 3 4.5 5.5t1.5 3.5q0 5 -16 5q-9 0 -21 -1.5t-24.5 -5t-22.5 -7.5l-29 -11q-30 -10 -81 -39l28 1q37 4 93 19q56 19 67 30z" />
    <glyph glyph-name="Edieresis" unicode="&#xcb;" horiz-adv-x="458" 
d="M658 785q-3 -1 -5 -1q-4 0 -4 4q0 5 11 14q10 8 15 8q7 0 7 -5q0 -3 -4.5 -7.5t-10 -8t-9.5 -4.5zM684 781q-5 0 -5 7q0 4 3 8t7.5 6t8.5 2q9 0 9 -6v-2q-6 -5 -8 -6q-3 -1 -7 -4q-4 -5 -8 -5zM97 180q-54 -37 -54 -75q2 -14 11 -19.5t27 -5.5q30 0 69 14q35 13 134 58
q28 13 99 56.5t79 47.5q1 1 2 1h2q3 0 6 -6q-14 -8 -62.5 -38t-81 -48.5t-66.5 -34.5q-77 -37 -128 -51q-31 -9 -55 -9q-48 0 -48 36q0 26 28 57q22 22 54 42l-3 1q-30 5 -54 23q-36 27 -36 83q0 26 9 52q20 53 69.5 108.5t103.5 95.5q74 57 133 92q51 30 120 57t118 34
q22 3 39 3q48 0 65 -27q8 -11 8 -26q0 -28 -26 -64q-16 -21 -45 -48q-59 -53 -106 -83q-38 -23 -64.5 -38t-57 -28t-49.5 -13q-8 0 -14 2t-10 6t-6 9t-2 11q0 30 31 68q49 61 140 114q16 9 23 9q9 0 9 -7q0 -2 -1.5 -3t-5.5 -2q-1 0 -2 -0.5t-2.5 -1t-2.5 -1.5
q-63 -36 -98 -66q-58 -49 -75 -98q-1 -3 -1.5 -6t-0.5 -6q0 -17 22 -17h5q58 11 158 80q63 43 116 91q25 23 43 54q12 20 12 35q0 12 -8 22q-15 23 -54 23q-26 0 -69 -11q-29 -7 -83.5 -28t-89.5 -39q-18 -10 -38 -22.5t-37.5 -24.5t-36.5 -25q-68 -50 -114.5 -94t-80.5 -99
q-32 -51 -32 -93q0 -56 48 -79q31 -14 45 -14q3 0 9 4q22 13 53 27q22 11 57.5 23.5t53.5 15.5q12 2 24 2q27 0 27 -13q0 -22 -62 -43q-76 -26 -149 -26q-7 0 -20 -9q-3 -2 -6.5 -4.5t-8 -5.5t-6.5 -5zM334 264q6 6 6 9q0 5 -16 5q-32 0 -68 -14l-29 -11q-11 -4 -37.5 -17
t-43.5 -22l28 1q37 4 93 19q56 19 67 30z" />
    <glyph glyph-name="Igrave" unicode="&#xcc;" horiz-adv-x="648" 
d="M780 752q-31 38 -31 48q0 6 5 6q3 0 9 -7q3 -2 10.5 -12.5t14 -21t7.5 -13.5t1 -5q0 -5 -4 -5t-12 10zM12 81q-2 5 -2 10q0 20 18 36l10 9q-5 -8 -6 -11q-11 -21 -11 -31q0 -19 19 -30q6 -4 31 -8q8 -1 16 -1q39 0 98 16q110 27 264 133q129 88 259 236q45 52 84 115
q42 69 42 111q0 14 -5 23q-11 19 -50 19q-19 0 -45 -5q-29 -5 -58 -13.5t-57 -20.5t-53.5 -25t-52.5 -29t-49 -30t-47 -32q-90 -65 -127 -111l-2 -3q-1 7 -1 8q0 3 1 6.5t2 5.5t4 5.5t3.5 4t3.5 4.5q51 50 122 97q84 58 153 91q107 51 184 56q7 1 13 1t13 -1q44 0 57 -30
q6 -12 6 -28q0 -14 -5 -35q-16 -55 -72.5 -130.5t-145.5 -160.5q-43 -43 -75 -70q-157 -129 -317 -190q-72 -27 -144 -30q-34 0 -54 10q-20 13 -24 28z" />
    <glyph glyph-name="Iacute" unicode="&#xcd;" horiz-adv-x="648" 
d="M871 803q5 3 10 3q7 0 7 -5q0 -3 -13 -13q-10 -8 -20 -15q-19 -15 -31 -27q-4 -4 -9 -4q-7 0 -7 6t30 31q17 14 33 24zM12 81q-2 5 -2 10q0 20 18 36l10 9q-5 -8 -6 -11q-11 -21 -11 -31q0 -19 19 -30q6 -4 31 -8q8 -1 16 -1q39 0 98 16q110 27 264 133q128 88 259 236
q46 52 84 115q42 69 42 111q0 14 -5 23q-11 19 -50 19q-19 0 -45 -5q-80 -13 -156.5 -52.5t-160.5 -97.5q-29 -21 -46.5 -34.5t-40.5 -34.5t-40 -42l-2 -3v2l-1 6q0 5 3 10.5t4.5 8t6.5 7.5q51 50 121 97q85 58 154 91q107 51 184 56q7 1 13 1t13 -1q44 0 57 -30
q6 -12 6 -28q0 -14 -5 -35q-33 -115 -218 -291q-43 -43 -76 -70q-156 -129 -316 -190q-72 -27 -144 -30q-34 0 -54 10q-20 13 -24 28z" />
    <glyph glyph-name="Icircumflex" unicode="&#xce;" horiz-adv-x="648" 
d="M859 755q0 -5 -4 -5t-6.5 4.5t-5.5 13t-3 9.5q-23 -8 -44 -21q-7 -7 -12 -7t-5 5q0 6 7 10t32 16q2 1 3 2q21 9 27 9t8 -9q0 -2 0.5 -4.5t1 -4.5l1 -4t0.5 -4v-1v-4v-5zM12 81q-2 5 -2 10q0 20 18 36l10 9q-5 -8 -6 -11q-11 -21 -11 -31q0 -19 19 -30q6 -4 31 -8
q8 -1 16 -1q39 0 98 16q110 27 264 133q128 88 259 236q45 52 84 115q42 69 42 111q0 14 -5 23q-11 19 -50 19q-19 0 -45 -5q-55 -9 -115.5 -34.5t-104 -52t-97.5 -63.5q-90 -65 -127 -111l-2 -3q0 1 -0.5 2.5t-0.5 3v2.5q0 10 14 26q51 50 121 97q85 58 154 91
q107 51 184 56q7 1 13 1t13 -1q44 0 57 -30q6 -12 6 -28q0 -14 -5 -35q-16 -55 -72.5 -130.5t-145.5 -160.5q-43 -43 -75 -70q-157 -129 -317 -190q-72 -27 -144 -30q-34 0 -54 10q-20 13 -24 28z" />
    <glyph glyph-name="Idieresis" unicode="&#xcf;" horiz-adv-x="648" 
d="M793 753q-3 -1 -5 -1q-4 0 -4 4q0 5 11 14q10 8 15 8q7 0 7 -5q0 -4 -9 -11t-15 -9zM819 749q-5 0 -5 7q0 4 3 8t7.5 6t8.5 2q9 0 9 -6v-2q-6 -5 -8 -6q-3 -1 -7 -4q-4 -5 -8 -5zM12 81q-2 5 -2 10q0 20 18 36l10 9q-5 -8 -6 -11q-11 -21 -11 -31q0 -19 19 -30
q6 -4 31 -8q8 -1 16 -1q39 0 98 16q110 27 264 133q129 88 259 236q45 52 84 115q42 69 42 111q0 14 -5 23q-11 19 -50 19q-19 0 -45 -5q-29 -5 -58 -13.5t-57 -20.5t-53.5 -25t-52.5 -29t-49 -30t-47 -32q-90 -65 -127 -111l-2 -3q-1 7 -1 8q0 3 1 6.5t2 5.5t4 5.5t3.5 4
t3.5 4.5q51 50 122 97q84 58 153 91q107 51 184 56q7 1 13 1t13 -1q44 0 57 -30q6 -12 6 -28q0 -14 -5 -35q-16 -55 -72.5 -130.5t-145.5 -160.5q-43 -43 -75 -70q-157 -129 -317 -190q-72 -27 -144 -30q-34 0 -54 10q-20 13 -24 28z" />
    <glyph glyph-name="Eth" unicode="&#xd0;" horiz-adv-x="1024" 
d="M847 749q27 -16 27 -51v-5.5t-0.5 -6.5t-0.5 -5v-1q103 38 147 48q70 19 118 19q96 0 105 -72q1 -6 1 -12q0 -24 -14 -58q-19 -48 -75 -117q-103 -124 -281 -234q-133 -80 -260 -117q-71 -19 -136 -19h-4q-84 0 -92 37q-1 5 -1 7l-23 -15q-29 -18 -45.5 -27.5t-30 -16.5
t-39.5 -20q-80 -40 -139 -50q-15 -2 -28 -2q-36 0 -49 18q-7 11 -7 25q0 43 65 109q32 32 92.5 82t116.5 88q72 48 159 102q201 123 348 192q50 22 52 24q5 4 6.5 13t1.5 20q0 18 -14 30q-24 20 -68 20q-16 0 -42 -3q-42 -4 -94 -19q-73 -20 -177 -71q-186 -89 -281 -200
q-4 -4 -7 -8q0 2 1 5t1 5q4 14 20 30q130 139 384 231q85 30 146 39q10 1 14.5 1.5t13 1t15.5 0.5q46 0 74 -17zM1215 619q11 32 11 54q0 44 -45 55q-19 5 -44 5q-28 0 -70 -7q-15 -3 -31 -6.5t-27.5 -6.5t-30.5 -9t-27 -8.5t-29.5 -9.5t-27.5 -9q-1 -1 -12 -5.5t-13 -5.5
l-5 -16q-15 -36 -46 -80t-81 -101q-11 -13 -18 -20q116 0 124 -4l3 -3q0 -6 -11 -6q-16 -1 -39.5 -1.5t-49.5 -0.5h-42q-122 -130 -261 -227q-46 -32 -48 -37q-1 -2 -1.5 -3.5t-0.5 -3.5q0 -11 14 -19.5t26 -10.5q11 -1 22 -1.5t23 -0.5q97 0 210 46q72 30 169 85
q75 44 152 110q72 58 127 121q60 72 79 126zM381 184q2 9 5.5 18t7.5 15.5t8.5 11t7.5 4.5t5 -1t2 -4q0 -2 -1 -3l-4 -4q-1 -2 -2 -3.5t-3 -3.5t-3 -4q-6 -11 -8 -22q3 3 9 7t13 9t17 12t19.5 14t22.5 16q105 79 208 188h-97l-19 -1h-5.5h-5.5q-35 0 -35 6q0 4 9 8
q18 2 168 3q95 103 136 180q9 18 13 30q-14 -7 -100 -49q-72 -35 -159 -85l-123 -72q-6 -4 -10 -6.5t-16 -9.5q-27 -17 -57 -36q-23 -15 -112 -78q-64 -44 -146 -116q-34 -30 -62.5 -66t-29.5 -60v-4q0 -17 9 -24.5t34 -8.5q20 0 39.5 4t43.5 13t59 25q60 29 123 68
q38 23 39 29z" />
    <glyph glyph-name="Ntilde" unicode="&#xd1;" horiz-adv-x="936" 
d="M1093 766q-7 6 -13 6q-3 0 -7.5 -3t-9.5 -7q-7 -6 -11 -6t-6.5 1.5t-2.5 4.5q0 4 6 9t15 9q9 5 16 5q9 0 18 -8q18 -13 32 -13q9 0 20 6q9 5 15 5q4 0 4 -3q0 -2 -1 -4q-13 -18 -38 -18q-5 0 -10 1t-9.5 3t-9 5t-8.5 7zM1508 651q-4 0 -4 5q0 2 2.5 8t2.5 9q0 8 -19 8
q-8 0 -18 -1q-46 -6 -94.5 -21t-89 -33.5t-87.5 -43.5q-193 -102 -351 -230q-25 -21 -71 -65q-36 -68 -54 -97q-17 -29 -42 -55t-40 -26q-3 0 -5.5 1.5t-3.5 4t-1 5.5q0 8 6.5 21t16.5 27t20 25.5t19 21.5q42 45 43 46q21 21 42 82t40 137q-184 -222 -487 -353
q-53 -22 -124 -41.5t-131 -19.5q-54 0 -85 26q-16 12 -16 32t14 33q2 2 5 2q4 0 4 -3q0 -1 -3 -4q-11 -12 -11 -27v-1q0 -22 27 -33.5t63 -11.5q86 0 200 42q251 93 436 265q68 63 111 119q19 25 37 69q15 38 15 62q0 48 -44 66q-27 12 -65 12q-17 0 -35 -2t-38 -6
q-60 -11 -139 -41q-187 -71 -337 -173q-21 -14 -38.5 -26.5t-37 -28.5t-35.5 -30q-16 -16 -22 -31q-3 -10 -6 -10q-6 0 -6 7v5q3 19 54 61q68 58 174 119q183 105 353 149q69 18 112 18q10 0 20 -1q21 -2 38.5 -7t34.5 -17t25 -29q3 -5 3 -6q3 -8 4.5 -17t1.5 -17
q0 -22 -8 -46t-21 -51t-17 -41q-6 -17 -11.5 -36.5t-9.5 -33.5t-10 -33t-12 -36q-9 -28 -15 -42q4 4 8.5 8t9 7.5t9 7.5t9 7.5t9 8t9 8t9.5 7.5t9 7q4 4 76 57q72 52 151.5 99t166.5 90q123 60 212 70q13 1 22 1q19 0 28 -9q6 -5 6 -14q0 -15 -13 -16h-1zM693 197
q-11 -12 -21.5 -27t-18 -28t-7.5 -17v-1q2 0 9 6t17 17t19 23q8 11 41 66q1 3 3 6t3 7q-6 -7 -14 -16.5t-16 -18.5t-15 -17z" />
    <glyph glyph-name="Ograve" unicode="&#xd2;" horiz-adv-x="644" 
d="M708 719q-32 38 -32 48q0 2 2 4t4 2q3 0 9 -7q4 -4 17 -23t15 -24q1 -3 1 -5q0 -5 -4 -5t-12 10zM23 378q-3 12 -3 25q0 32 23 66q30 44 86.5 77t113.5 50q55 16 121 16q25 0 53 -3l29 -2q82 35 101 41l5 2q75 24 132 24q63 0 103 -23q31 -18 40 -51q3 -12 3 -23
q0 -42 -40 -91q-7 -8 -26.5 -26t-26.5 -30q-17 -24 -45 -53q-16 -19 -52 -57q-87 -89 -226 -173q-46 -28 -80 -45.5t-79 -36t-88 -28.5q-15 -4 -33 -6t-35 -2q-16 0 -30 2q-39 5 -55 32q-14 17 -14 48q0 11 2 24q5 39 22 76.5t54 88.5l9 13l-17 10q-19 14 -26 22
q-12 13 -21 33zM717 596q9 1 17 1q61 0 61 -51q0 -21 -15 -49l-7 -13q14 15 22 27q25 35 25 67q0 6 -1 12q-3 32 -29 48t-66 25q-9 1 -18.5 1.5t-18.5 0.5q-36 0 -77 -8q-16 -4 -29.5 -8t-28 -9t-29.5 -11q-17 -6 -57 -25q28 -6 63 -18q23 -7 52 -21l5 -3q9 -5 10 -5
q0 1 2 1q71 31 119 38zM434 598q-38 4 -68 4q-112 0 -214 -55q-63 -35 -98 -82q-22 -32 -22 -62t20 -50q21 -20 44 -31l17 20q26 31 97 95q26 23 55 46t59 44q7 5 15 11t14.5 10.5t16.5 10.5t15 9.5t16 10t16 9.5zM456 597h-1q-1 0 -19 -11l-16 -9q-7 -4 -22 -13.5
t-32.5 -21.5t-33.5 -23l-18 -14q-30 -21 -38 -29q-3 -2 -6 -4.5t-5.5 -4.5t-5.5 -4.5t-6 -4.5q-87 -73 -141 -143q12 -5 24 -9q32 -10 101 -20q11 20 34 45q58 60 148 120l30 19q83 54 136 83q-4 2 -9 4t-8 3.5t-7.5 3.5t-8.5 3.5t-10 4t-14 5.5q-33 11 -72 20zM777 519
q7 16 7 29q0 18 -12 29q-14 12 -41 12h-7q-11 -1 -20.5 -3t-22 -5.5t-23.5 -7.5t-32 -12l-20 -10q30 -23 30 -30q0 -3 -3 -2q-7 0 -8 4l-2 2q-17 17 -26 22q-87 -48 -163 -98q-52 -34 -108.5 -85t-74.5 -81q20 -1 43 -1q30 0 55 2q83 10 160 34q62 22 108 47q65 35 102 67
q20 17 28 28q21 30 30 59zM69 43q17 -3 35 -3q20 0 53 5q37 6 89 27q37 16 64 29q64 32 128 72q56 35 118 85q53 42 107 101q1 1 17.5 21t25.5 30q-14 -10 -28 -19t-29 -17q-33 -21 -97 -47q-26 -10 -47 -17.5t-46 -14.5t-48 -10q-65 -12 -114 -12q-3 0 -8.5 -0.5t-9 -0.5
t-8.5 0.5t-9 1.5l-15 1q-4 -9 -9 -30q-1 -2 -1 -4.5v-4.5q0 -6 1 -10t3.5 -6.5t6.5 -3.5q1 0 2.5 -1t1.5 -2q0 -8 -9 -8l-6 2q-13 6 -14 24q0 20 10 45q-76 12 -114 25q-1 0 -7 2.5t-8 3.5l-10 -14q-26 -30 -47 -73q-30 -62 -30 -107q0 -57 52 -70z" />
    <glyph glyph-name="Oacute" unicode="&#xd3;" horiz-adv-x="644" 
d="M857 770q5 3 10 3q7 0 7 -5q0 -3 -13 -13q-10 -8 -20 -15q-19 -15 -31 -27q-4 -4 -9 -4q-7 0 -7 6t30 31q17 14 33 24zM23 378q-3 12 -3 25q0 32 23 66q30 44 86.5 77t113.5 50q54 16 121 16q13 0 26 -0.5t27 -2.5l29 -2q82 35 101 41l5 2q75 24 131 24q64 0 104 -23
q31 -18 40 -51q3 -12 3 -23q0 -42 -40 -91q-7 -8 -26.5 -26t-27.5 -30q-9 -13 -20 -25.5t-24 -27.5q-16 -19 -52 -57q-87 -89 -226 -173q-71 -42 -128 -68.5t-119 -41.5q-32 -8 -68 -8q-16 0 -30 2q-39 5 -55 32q-14 17 -14 48q0 11 2 24q5 39 22 76.5t54 88.5l9 13l-17 10
q-19 14 -26 22q-12 13 -21 33zM717 596q9 1 17 1q61 0 61 -51q0 -21 -15 -49l-7 -13q14 15 22 27q25 35 25 67q0 6 -1 12q-3 32 -29 48t-66 25q-18 2 -38 2q-18 0 -37 -2t-39 -6q-47 -11 -87 -28q-17 -6 -57 -25q28 -6 63 -18q23 -7 51 -21l5 -3q9 -5 10 -5q1 1 2 1
q71 31 120 38zM434 598q-38 4 -68 4q-112 0 -214 -55q-63 -35 -98 -82q-22 -32 -22 -62t20 -50q21 -20 44 -31l17 20q26 31 97 95q26 23 55 46t59 44q23 18 93 61zM456 597h-1q-1 0 -19 -11l-16 -9q-11 -6 -37.5 -23.5t-50.5 -34.5l-18 -14q-30 -21 -38 -29q-12 -9 -23 -18
q-87 -73 -141 -143q12 -5 24 -9q32 -10 101 -20q11 20 34 45q58 60 148 120l30 19q82 54 136 83q-35 16 -57 24q-34 11 -72 20zM777 519q7 16 7 29q0 18 -12 29q-14 12 -41 12h-7q-31 -3 -98 -28l-20 -10q7 -5 12.5 -9.5t11.5 -11t6 -9.5t-4 -2q-2 0 -4 0.5t-2.5 1.5t-1.5 2
q0 1 -1 2q-17 17 -27 22q-86 -48 -163 -98q-51 -34 -107.5 -85t-74.5 -81q20 -1 43 -1q29 0 55 2q39 5 77 12.5t83 21.5q62 22 107 47q65 35 103 67q20 17 27 28q22 30 31 59zM69 43q17 -3 35 -3q20 0 53 5q37 6 89 27q37 16 64 29q64 32 128 72q56 35 117 85q54 42 108 101
q1 0 17.5 20.5t25.5 30.5q-28 -20 -57 -36q-34 -21 -97 -47q-84 -33 -141 -42q-65 -12 -115 -12q-27 0 -35 1l-14 1q-3 -6 -4.5 -12l-4.5 -18q0 -1 -0.5 -2.5t-0.5 -3.5v-3q0 -19 11 -20q4 0 4 -3q0 -8 -9 -8q-3 0 -6 2q-13 6 -14 24q0 20 10 45q-76 12 -114 25q-1 0 -7 2.5
t-8 3.5l-10 -14q-26 -30 -47 -73q-30 -62 -30 -107q0 -57 52 -70z" />
    <glyph glyph-name="Ocircumflex" unicode="&#xd4;" horiz-adv-x="644" 
d="M810 707q0 -5 -5 -5q-3 0 -5.5 3.5t-4 7t-3.5 9t-2 7.5q-23 -8 -44 -21q-7 -7 -12 -7t-5 5q0 6 7.5 10.5t35.5 17.5q20 9 26 9t8 -9q1 -3 2 -8.5t1 -8.5v-1q0 -1 0.5 -4t0.5 -5zM23 378q-3 12 -3 25q0 32 23 66q30 44 86.5 77t113.5 50q55 16 121 16q25 0 53 -3l29 -2
q82 35 101 41l5 2q75 24 132 24q63 0 103 -23q31 -18 40 -51q3 -12 3 -23q0 -42 -40 -91q-7 -8 -26.5 -26t-26.5 -30q-17 -24 -45 -53q-16 -19 -52 -57q-87 -89 -226 -173q-46 -28 -80 -45.5t-79 -36t-88 -28.5q-15 -4 -33 -6t-35 -2q-16 0 -30 2q-39 5 -55 32
q-14 17 -14 48q0 11 2 24q5 39 22 76.5t54 88.5l9 13l-17 10q-19 14 -26 22q-12 13 -21 33zM717 596q9 1 17 1q61 0 61 -51q0 -21 -15 -49l-7 -13q14 15 22 27q25 35 25 67q0 6 -1 12q-3 32 -29 48t-66 25q-9 1 -18.5 1.5t-18.5 0.5q-36 0 -77 -8q-16 -4 -29.5 -8t-28 -9
t-29.5 -11q-17 -6 -57 -25q28 -6 63 -18q23 -7 52 -21l5 -3q9 -5 10 -5q0 1 2 1q71 31 119 38zM434 598q-38 4 -68 4q-112 0 -214 -55q-63 -35 -98 -82q-22 -32 -22 -62t20 -50q21 -20 44 -31l17 20q26 31 97 95q26 23 55 46t59 44q7 5 15 11t14.5 10.5t16.5 10.5t15 9.5
t16 10t16 9.5zM456 597h-1q-1 0 -19 -11l-16 -9q-7 -4 -22 -13.5t-32.5 -21.5t-33.5 -23l-18 -14q-30 -21 -38 -29q-3 -2 -6 -4.5t-5.5 -4.5t-5.5 -4.5t-6 -4.5q-87 -73 -141 -143q12 -5 24 -9q32 -10 101 -20q11 20 34 45q58 60 148 120l30 19q83 54 136 83q-4 2 -9 4
t-8 3.5t-7.5 3.5t-8.5 3.5t-10 4t-14 5.5q-33 11 -72 20zM777 519q7 16 7 29q0 18 -12 29q-14 12 -41 12h-7q-11 -1 -20.5 -3t-22 -5.5t-23.5 -7.5t-32 -12l-20 -10q30 -23 30 -30q0 -3 -3 -2q-7 0 -8 4l-2 2q-17 17 -26 22q-87 -48 -163 -98q-52 -34 -108.5 -85t-74.5 -81
q20 -1 43 -1q30 0 55 2q83 10 160 34q62 22 108 47q65 35 102 67q20 17 28 28q21 30 30 59zM69 43q17 -3 35 -3q20 0 53 5q37 6 89 27q37 16 64 29q64 32 128 72q56 35 118 85q53 42 107 101q1 1 17.5 21t25.5 30q-14 -10 -28 -19t-29 -17q-33 -21 -97 -47
q-26 -10 -47 -17.5t-46 -14.5t-48 -10q-65 -12 -114 -12q-3 0 -8.5 -0.5t-9 -0.5t-8.5 0.5t-9 1.5l-15 1q-4 -9 -9 -30q-1 -2 -1 -4.5v-4.5q0 -6 1 -10t3.5 -6.5t6.5 -3.5q1 0 2.5 -1t1.5 -2q0 -8 -9 -8l-6 2q-13 6 -14 24q0 20 10 45q-76 12 -114 25q-1 0 -7 2.5t-8 3.5
l-10 -14q-26 -30 -47 -73q-30 -62 -30 -107q0 -57 52 -70z" />
    <glyph glyph-name="Otilde" unicode="&#xd5;" horiz-adv-x="644" 
d="M750 736q-6 6 -12 6t-18 -10q-3 -2 -4 -3t-3 -2t-3 -1q-9 0 -9 6q0 8 20 18q9 5 16 5q9 0 18 -8q18 -13 32 -13q9 0 20 6q9 5 15 5q4 0 4 -3q0 -2 -1 -4q-13 -18 -38 -18q-22 0 -37 16zM23 378q-3 12 -3 25q0 32 23 66q30 44 86.5 77t113.5 50q55 16 121 16q25 0 53 -3
l29 -2q82 35 101 41l5 2q75 24 132 24q63 0 103 -23q31 -18 40 -51q3 -12 3 -23q0 -42 -40 -91q-7 -8 -26.5 -26t-26.5 -30q-17 -24 -45 -53q-16 -19 -52 -57q-87 -89 -226 -173q-46 -28 -80 -45.5t-79 -36t-88 -28.5q-15 -4 -33 -6t-35 -2q-16 0 -30 2q-39 5 -55 32
q-14 17 -14 48q0 11 2 24q5 39 22 76.5t54 88.5l9 13l-17 10q-19 14 -26 22q-12 13 -21 33zM717 596q9 1 17 1q61 0 61 -51q0 -21 -15 -49l-7 -13q14 15 22 27q25 35 25 67q0 6 -1 12q-3 32 -29 48t-66 25q-9 1 -18.5 1.5t-18.5 0.5q-36 0 -77 -8q-16 -4 -29.5 -8t-28 -9
t-29.5 -11q-17 -6 -57 -25q28 -6 63 -18q23 -7 52 -21l5 -3q9 -5 10 -5q0 1 2 1q71 31 119 38zM434 598q-38 4 -68 4q-112 0 -214 -55q-63 -35 -98 -82q-22 -32 -22 -62t20 -50q21 -20 44 -31l17 20q26 31 97 95q26 23 55 46t59 44q7 5 15 11t14.5 10.5t16.5 10.5t15 9.5
t16 10t16 9.5zM456 597h-1q-1 0 -19 -11l-16 -9q-7 -4 -22 -13.5t-32.5 -21.5t-33.5 -23l-18 -14q-30 -21 -38 -29q-3 -2 -6 -4.5t-5.5 -4.5t-5.5 -4.5t-6 -4.5q-87 -73 -141 -143q12 -5 24 -9q32 -10 101 -20q11 20 34 45q58 60 148 120l30 19q83 54 136 83q-4 2 -9 4
t-8 3.5t-7.5 3.5t-8.5 3.5t-10 4t-14 5.5q-33 11 -72 20zM777 519q7 16 7 29q0 18 -12 29q-14 12 -41 12h-7q-11 -1 -20.5 -3t-22 -5.5t-23.5 -7.5t-32 -12l-20 -10q30 -23 30 -30q0 -3 -3 -2q-7 0 -8 4l-2 2q-17 17 -26 22q-87 -48 -163 -98q-52 -34 -108.5 -85t-74.5 -81
q20 -1 43 -1q30 0 55 2q83 10 160 34q62 22 108 47q65 35 102 67q20 17 28 28q21 30 30 59zM69 43q17 -3 35 -3q20 0 53 5q37 6 89 27q37 16 64 29q64 32 128 72q56 35 118 85q53 42 107 101q1 1 17.5 21t25.5 30q-14 -10 -28 -19t-29 -17q-33 -21 -97 -47
q-26 -10 -47 -17.5t-46 -14.5t-48 -10q-65 -12 -114 -12q-3 0 -8.5 -0.5t-9 -0.5t-8.5 0.5t-9 1.5l-15 1q-4 -9 -9 -30q-1 -2 -1 -4.5v-4.5q0 -6 1 -10t3.5 -6.5t6.5 -3.5q1 0 2.5 -1t1.5 -2q0 -8 -9 -8l-6 2q-13 6 -14 24q0 20 10 45q-76 12 -114 25q-1 0 -7 2.5t-8 3.5
l-10 -14q-26 -30 -47 -73q-30 -62 -30 -107q0 -57 52 -70z" />
    <glyph glyph-name="Odieresis" unicode="&#xd6;" horiz-adv-x="644" 
d="M749 710q-3 -1 -4 -1q-5 0 -5 4q0 5 11 14q10 8 15 8q7 0 7 -5q0 -4 -9 -11t-15 -9zM775 706q-4 0 -4 7q0 4 2.5 8t7 6t8.5 2q9 0 9 -7v-1q-6 -5 -8 -6q-3 -1 -7 -4q-4 -5 -8 -5zM23 378q-3 12 -3 25q0 32 23 66q30 44 86.5 77t113.5 50q55 16 121 16q25 0 53 -3l29 -2
q82 35 101 41l5 2q75 24 132 24q63 0 103 -23q31 -18 40 -51q3 -12 3 -23q0 -42 -40 -91q-7 -8 -26.5 -26t-26.5 -30q-17 -24 -45 -53q-16 -19 -52 -57q-87 -89 -226 -173q-46 -28 -80 -45.5t-79 -36t-88 -28.5q-15 -4 -33 -6t-35 -2q-16 0 -30 2q-39 5 -55 32
q-14 17 -14 48q0 11 2 24q5 39 22 76.5t54 88.5l9 13l-17 10q-19 14 -26 22q-12 13 -21 33zM717 596q9 1 17 1q61 0 61 -51q0 -21 -15 -49l-7 -13q14 15 22 27q25 35 25 67q0 6 -1 12q-3 32 -29 48t-66 25q-9 1 -18.5 1.5t-18.5 0.5q-36 0 -77 -8q-16 -4 -29.5 -8t-28 -9
t-29.5 -11q-17 -6 -57 -25q28 -6 63 -18q23 -7 52 -21l5 -3q9 -5 10 -5q0 1 2 1q71 31 119 38zM434 598q-38 4 -68 4q-112 0 -214 -55q-63 -35 -98 -82q-22 -32 -22 -62t20 -50q21 -20 44 -31l17 20q26 31 97 95q26 23 55 46t59 44q7 5 15 11t14.5 10.5t16.5 10.5t15 9.5
t16 10t16 9.5zM456 597h-1q-1 0 -19 -11l-16 -9q-7 -4 -22 -13.5t-32.5 -21.5t-33.5 -23l-18 -14q-30 -21 -38 -29q-3 -2 -6 -4.5t-5.5 -4.5t-5.5 -4.5t-6 -4.5q-87 -73 -141 -143q12 -5 24 -9q32 -10 101 -20q11 20 34 45q58 60 148 120l30 19q83 54 136 83q-4 2 -9 4
t-8 3.5t-7.5 3.5t-8.5 3.5t-10 4t-14 5.5q-33 11 -72 20zM777 519q7 16 7 29q0 18 -12 29q-14 12 -41 12h-7q-11 -1 -20.5 -3t-22 -5.5t-23.5 -7.5t-32 -12l-20 -10q30 -23 30 -30q0 -3 -3 -2q-7 0 -8 4l-2 2q-17 17 -26 22q-87 -48 -163 -98q-52 -34 -108.5 -85t-74.5 -81
q20 -1 43 -1q30 0 55 2q83 10 160 34q62 22 108 47q65 35 102 67q20 17 28 28q21 30 30 59zM69 43q17 -3 35 -3q20 0 53 5q37 6 89 27q37 16 64 29q64 32 128 72q56 35 118 85q53 42 107 101q1 1 17.5 21t25.5 30q-14 -10 -28 -19t-29 -17q-33 -21 -97 -47
q-26 -10 -47 -17.5t-46 -14.5t-48 -10q-65 -12 -114 -12q-3 0 -8.5 -0.5t-9 -0.5t-8.5 0.5t-9 1.5l-15 1q-4 -9 -9 -30q-1 -2 -1 -4.5v-4.5q0 -6 1 -10t3.5 -6.5t6.5 -3.5q1 0 2.5 -1t1.5 -2q0 -8 -9 -8l-6 2q-13 6 -14 24q0 20 10 45q-76 12 -114 25q-1 0 -7 2.5t-8 3.5
l-10 -14q-26 -30 -47 -73q-30 -62 -30 -107q0 -57 52 -70z" />
    <glyph glyph-name="multiply" unicode="&#xd7;" horiz-adv-x="142" 
d="M57 207q0 1 -0.5 5t-0.5 7v5q0 7 1.5 11.5t6.5 4.5q3 0 5 -2.5t2.5 -5.5t1.5 -8.5t2 -7.5q1 1 8 4t10.5 4t9 3t9.5 3t7 1q4 -1 5 -4q0 -5 -5 -5q-3 0 -20 -8.5t-21 -11.5v-1q1 -1 7 -6.5t8 -6.5q7 0 7 -5q0 -4 -3 -4q-2 0 -5 1q-6 1 -12.5 4t-9.5 6t-5 3h-2t-2.5 -0.5
t-3.5 -1.5l-4 -2q-29 -16 -46 -25l-6 -3h1q-4 0 -4 5t43 31z" />
    <glyph glyph-name="Oslash" unicode="&#xd8;" horiz-adv-x="644" 
d="M853 596q26 12 29 12t3 -3q0 -2 -1 -3q-6 -6 -28 -17l-26 -14q-2 -38 -41 -85q-6 -7 -16.5 -17.5t-20.5 -20t-16 -18.5q-16 -23 -44 -53q-16 -19 -53 -57q-86 -89 -225 -173q-71 -42 -127.5 -68.5t-119.5 -41.5q-32 -8 -68 -8q-16 0 -30 2q-39 5 -56 32q-13 19 -13 47
q0 4 1 7q-29 -17 -38 -19q-2 -1 -4 -1q-5 0 -5 4t9 10.5t39 24.5q5 39 22 76t54 88l9 13l-17 10q-19 14 -26 22q-12 13 -21 33q-4 12 -4 25q0 32 23 66q31 44 87.5 77t113.5 50q55 16 121 16q25 0 53 -3l29 -2q82 35 101 41l5 2q75 24 131 24q30 0 57 -6t47 -17
q31 -18 40 -51q2 -8 3 -16q2 1 5 3t5.5 3.5t5.5 2.5t7 3zM734 598q49 0 58 -33q25 12 28 14q0 7 -1 11q-3 32 -29 48t-66 25q-18 2 -38 2q-35 0 -76 -8q-47 -11 -87 -28l-12.5 -5t-15.5 -6.5t-15 -7t-14 -6.5q28 -6 63 -18q23 -7 51 -21l5 -3q9 -5 10 -5l2 1q71 31 120 38
q9 2 17 2zM434 598q-38 4 -68 4q-112 0 -214 -55q-63 -35 -98 -82q-22 -32 -22 -62t20 -50q21 -20 44 -31l17 20q26 31 97 95q11 9 22 18.5t22.5 18.5l23 18l23 18t23.5 17q24 18 93 61zM456 597h-1q-1 0 -19 -11l-16 -9q-28 -15 -88 -58l-18 -14q-30 -21 -38 -29
q-9 -7 -23 -18q-87 -73 -141 -143q12 -5 24 -9q32 -10 101 -20q11 20 34 45q29 30 68.5 62t79.5 58l30 19q82 54 136 83q-4 2 -10.5 5t-10 4.5t-9 3.5t-12 4.5t-15.5 6.5q-34 11 -72 20zM772 577q-7 6 -18 9t-23 3h-8q-30 -3 -98 -28l-19 -10q30 -23 30 -30q0 -3 -4 -2
q-6 0 -8 4q0 1 -1 2q-17 17 -27 22q-86 -48 -163 -98q-51 -34 -107.5 -85t-74.5 -81h9q58 31 126 66q33 18 176 94t221 116q-4 12 -11 18zM794 552v-6q0 -21 -14 -49l-7 -13q14 15 21 27q21 29 24 54zM616 365q65 35 103 67q20 17 27 28q22 30 31 59q6 14 7 27l-404 -214
q-25 -13 -37.5 -20t-29 -15.5t-27.5 -14.5q17 0 32.5 0.5t30.5 1.5q82 10 160 34q62 22 107 47zM411 285q-62 -12 -109 -12h-16h-17l-28 -15q-4 -18 -4 -22q0 -8 3 -13.5t8 -6.5q2 0 3 -1t1 -2q0 -8 -9 -8q-3 0 -5 2q-13 6 -15 24q0 9 2 18q-152 -86 -207 -121q-1 -9 -1 -17
q0 -56 52 -68q9 -1 17.5 -2t17.5 -1q20 0 54 5q36 6 88 27q37 16 64 29q64 32 128 72q56 35 117 85q54 42 108 101q1 0 17.5 20.5t25.5 30.5q-28 -20 -57 -36q-34 -21 -97 -47q-84 -33 -141 -42zM233 276q-76 12 -114 25q-1 0 -5 2l-4.5 1.5l-3 1t-2.5 1.5l-10 -14
q-14 -16 -25.5 -34t-21.5 -39q-19 -40 -26 -72q100 59 208 118q2 3 4 10z" />
    <glyph glyph-name="Ugrave" unicode="&#xd9;" horiz-adv-x="1006" 
d="M1020 721q-31 39 -31 49q0 5 5 5q3 0 9 -6q3 -3 10.5 -13.5t14 -20.5t7.5 -13t1 -5q0 -6 -4 -6t-12 10zM762 5q4 -3 4 -6q0 -4 -8 -4q-7 0 -11.5 5t-5.5 10q-2 5 -2.5 10.5t-0.5 10.5q0 13 7 44q5 20 15 40t23 40q28 41 74 87.5t82 76.5t93 74q-117 -63 -189 -108
q-12 -8 -60 -38q-7 -4 -14.5 -8.5t-16 -9t-14.5 -8t-16 -8.5t-15 -8q-70 -39 -133 -69q-96 -49 -144 -56q-7 -1 -12 -1q-28 0 -28 30q0 29 22 65q11 17 23.5 33.5t23.5 29t28 30t26.5 27t30.5 28t28.5 25t30.5 26.5q25 22 92.5 78.5t103.5 88.5q53 47 83 82q27 29 27 47
q0 7 -4.5 12.5t-13 8.5t-18 4.5t-20.5 1.5q-25 0 -59 -6t-65.5 -14.5t-58.5 -18.5q-71 -26 -162 -70t-157 -86q-131 -80 -215 -160q-30 -28 -50 -55q-25 -31 -38 -53q-26 -43 -28 -73v-3q0 -16 10 -28q11 -8 30 -8h8q46 3 85 30q3 -3 3 -5t-3 -4q-26 -17 -64 -26
q-19 -3 -30 -3q-34 0 -46 22q-5 9 -5 25q3 52 59 123q66 83 186 169q127 86 247 144q167 81 272 102q41 9 78 9q24 0 42 -4.5t25 -15.5q5 -8 5 -16q0 -39 -74 -106q-40 -36 -59 -54q-28 -24 -100 -84t-110 -93q-29 -27 -52 -49.5t-45 -46.5q-32 -35 -54.5 -71.5t-22.5 -56.5
q0 -19 24 -19q27 3 77.5 24.5t90.5 43.5q94 46 256 145q164 100 260 145v-3q0 -9 -3 -16q-3 -6 -9.5 -11.5t-17 -12t-13.5 -9.5q-205 -140 -290 -282q-29 -53 -29 -86q0 -10 3 -16t8 -8z" />
    <glyph glyph-name="Uacute" unicode="&#xda;" horiz-adv-x="1006" 
d="M1144 758q5 3 10 3q7 0 7 -4q0 -3 -13 -13q-3 -3 -6 -5.5t-7 -5.5t-7 -5q-19 -15 -31 -27q-4 -4 -9 -4q-7 0 -7 7q0 5 30 31q17 13 33 23zM762 5q4 -3 4 -6q0 -4 -8 -4q-7 0 -11.5 5t-6.5 10q-2 10 -2 21q0 13 6 44q9 36 39 80q21 31 50 63t65.5 64.5t64 55.5t69.5 55
l-52 -28q-22 -12 -45.5 -25.5t-46.5 -27t-45 -27.5q-8 -4 -14 -8l-12 -8l-10.5 -7t-11.5 -7t-13 -8q-15 -9 -75 -42q-70 -39 -133 -69q-96 -49 -144 -56q-7 -1 -13 -1q-27 0 -27 30q0 29 22 65q18 28 39.5 53.5t51 54t46 44t53.5 47.5q26 22 93.5 78.5t103.5 88.5
q52 47 83 82q5 5 9 10t8.5 11.5t7 13.5t2.5 12q0 27 -56 27q-37 0 -89 -11.5t-94 -27.5q-71 -26 -162 -70t-157 -86q-131 -80 -215 -160q-30 -28 -50 -55q-25 -31 -38 -53q-26 -43 -28 -73v-3q0 -16 10 -28q11 -8 30 -8h8q46 3 85 30q3 -2 3 -5q0 -2 -3 -4q-26 -17 -64 -26
q-19 -3 -30 -3q-34 0 -46 22q-5 9 -5 25q3 52 59 123q66 83 186 169q127 86 246 144q168 81 272 102q19 4 39.5 6.5t39.5 2.5q53 0 67 -20q1 -1 2 -2.5t1.5 -3.5t0.5 -3.5t0.5 -3.5t0.5 -3q0 -39 -74 -106q-40 -36 -59 -54q-28 -24 -100 -84t-110 -93q-60 -55 -97 -96
q-32 -35 -54.5 -71.5t-22.5 -56.5q0 -19 24 -19q27 3 77.5 24.5t90.5 43.5q94 46 256 145q164 99 260 145v-3q0 -9 -3 -16q-3 -6 -9.5 -11.5t-17 -12t-13.5 -9.5q-205 -140 -290 -282q-30 -53 -30 -86q0 -10 3.5 -16t8.5 -8z" />
    <glyph glyph-name="Ucircumflex" unicode="&#xdb;" horiz-adv-x="1006" 
d="M1127 743v-1v-4v-5q0 -6 -4 -6q-3 0 -5.5 3.5t-4 7t-3.5 9t-2 7.5q-22 -8 -44 -21q-7 -7 -12 -7t-5 6t7.5 10t34.5 17q21 9 27 9t8 -8q1 -9 3 -17zM762 5q4 -3 4 -6q0 -4 -8 -4q-7 0 -11.5 5t-5.5 10q-3 10 -3 21q0 13 7 44q9 36 38 80q28 41 74 87.5t82 76.5t93 74
q-116 -63 -189 -108q-13 -8 -60 -38q-9 -5 -19.5 -11l-17.5 -10t-20.5 -11t-18.5 -10q-70 -39 -133 -69q-96 -49 -144 -56q-7 -1 -13 -1q-27 0 -27 30q0 29 22 65q24 36 59.5 75t59 60.5t72.5 63.5q25 22 92.5 78.5t103.5 88.5q53 47 83 82q27 29 27 47q0 27 -56 27
q-37 0 -89 -11.5t-94 -27.5q-71 -26 -162 -70t-157 -86q-131 -80 -215 -160q-30 -28 -50 -55q-25 -31 -38 -53q-26 -43 -28 -73v-3q0 -16 10 -28q11 -8 30 -8h8q46 3 85 30q3 -2 3 -5q0 -2 -3 -4q-26 -17 -64 -26q-19 -3 -30 -3q-34 0 -46 22q-5 9 -5 25q3 52 59 123
q66 83 186 169q127 86 247 144q167 81 272 102q9 2 18.5 3.5t19.5 3t20 2t20 0.5q53 0 67 -20q5 -7 5 -16q0 -39 -74 -106q-40 -36 -59 -54q-28 -24 -100 -84t-110 -93q-29 -27 -52 -49.5t-45 -46.5q-20 -22 -37.5 -45.5t-28.5 -46t-11 -36.5q0 -19 24 -19q27 3 77.5 24.5
t90.5 43.5q94 46 256 145q164 100 260 145v-3q0 -9 -3 -16q-3 -6 -9.5 -11.5t-17 -12t-13.5 -9.5q-205 -140 -290 -282q-29 -53 -29 -86q0 -20 11 -24z" />
    <glyph glyph-name="Udieresis" unicode="&#xdc;" horiz-adv-x="1006" 
d="M1097 712q-3 -1 -5 -1q-4 0 -4 4.5t11 14.5q10 7 15 7q7 0 7 -4t-9 -11.5t-15 -9.5zM1123 708q-5 0 -5 8q0 4 3 7.5t7.5 5.5t8.5 2q9 0 9 -5v-2q-6 -6 -8 -7q-3 -1 -7 -4q-4 -5 -8 -5zM762 5q4 -3 4 -6q0 -4 -8 -4q-7 0 -11.5 5t-6.5 10q-2 10 -2 21q0 5 0.5 9.5t1 9.5
t1 8t2 9.5t2.5 7.5q2 11 6 21.5t9.5 20.5t11 19.5t11.5 18.5q28 41 74 87.5t82 76.5t93 74q-55 -29 -101 -55.5t-88 -52.5q-13 -8 -61 -38q-15 -9 -75 -42q-15 -8 -26 -14t-24 -13t-25 -13.5t-27 -13.5t-31 -15q-96 -49 -144 -56q-7 -1 -13 -1q-27 0 -27 30q0 29 22 65
q23 36 59 75t59.5 60.5t71.5 63.5q21 19 49 42t50 41t49 41t49 43q53 47 83 82q27 29 27 47q0 14 -16 20.5t-40 6.5q-15 0 -34 -2.5t-38 -6t-39 -8.5t-38 -10.5t-34 -11.5q-71 -26 -162 -70t-157 -86q-131 -80 -215 -160q-30 -28 -50 -55q-25 -31 -38 -53q-26 -43 -28 -73
v-3q0 -16 10 -28q11 -8 30 -8h8q46 3 85 30q3 -2 3 -5q0 -2 -3 -4q-26 -17 -64 -26q-19 -3 -30 -3q-34 0 -46 22q-5 9 -5 25q3 52 59 123q66 83 186 169q127 86 246 144q168 81 273 102q40 9 78 9q53 0 67 -20q5 -7 5 -16q0 -39 -74 -106q-10 -9 -15.5 -14t-14 -12.5
t-15.5 -14.5t-14 -13q-28 -24 -100 -84t-110 -93q-60 -55 -97 -96q-32 -35 -54.5 -71.5t-22.5 -56.5q0 -19 24 -19q18 2 51 14.5t63 26.5t54 27q60 29 118.5 63t137.5 82q164 99 260 145v-3q0 -9 -3 -16q-3 -6 -9.5 -11.5t-17 -12t-13.5 -9.5q-205 -140 -290 -282
q-15 -27 -22 -49t-7 -37q0 -20 11 -24z" />
    <glyph glyph-name="Yacute" unicode="&#xdd;" horiz-adv-x="906" 
d="M984 735q5 3 10 3q7 0 7 -4q0 -3 -13 -13q-4 -3 -10.5 -8.5t-9.5 -7.5q-17 -14 -31 -27q-4 -4 -10 -4q-2 0 -4 1.5t-2 4.5t4.5 8t11 11t14.5 13q17 13 33 23zM33 363q0 -6 -7 -6q-9 0 -9 11.5t12 27.5q20 24 71 67q79 66 145 105q78 47 127 71t114 42q74 25 152 29
q7 1 13 1q89 0 89 -49q0 -47 -77 -119q-12 -11 -51 -47t-57.5 -53.5t-47.5 -47t-52 -54.5q-68 -74 -68 -120q0 -33 32 -33q33 0 115 38q73 32 210 109.5t220 131.5q52 34 87 42q12 4 24 7q-1 -1 -14 -9q-248 -150 -432 -361q11 3 23 7l21 7q113 39 168 65l11 5.5t10 4.5
t8 3.5l8 4t7 3t8 3.5q18 9 20 9q4 0 4 -4.5t-21 -13.5q-4 -2 -7.5 -3.5t-7.5 -3.5t-6.5 -3t-7.5 -3.5l-7 -3.5q-63 -30 -94 -42q-36 -15 -148 -52q-80 -76 -114 -101q-102 -75 -172 -75q-12 0 -22 2q-27 6 -27 27q0 12 10 26t28 27q50 33 192 78q12 4 41 12q2 1 5 2
q31 10 35 10l12.5 12.5t14 14.5t11.5 12q103 114 225 209q-184 -105 -281 -154q-110 -55 -155 -55q-31 0 -42 22q-6 10 -6 24q0 33 30 76q49 70 204 209q10 9 15.5 14t15 13.5t15 14.5t14 14t14.5 15t13 15.5t13 16.5t11 17q9 16 9 30q0 7 -2 14q-10 29 -64 29q-11 0 -24 -1
q-38 -5 -64 -9t-47 -9t-48 -14q-165 -53 -330 -183q-61 -47 -83 -71q-34 -36 -34 -43q0 -1 1 -3.5t1 -3.5zM304 4q-9 -12 -9 -21t9 -14.5t22 -5.5q47 0 94 27q43 23 115 89q8 7 17.5 16.5l14.5 14.5q9 8 12 12q-80 -23 -135 -42q-56 -20 -91.5 -39t-48.5 -37z" />
    <glyph glyph-name="Thorn" unicode="&#xde;" horiz-adv-x="1172" 
d="M325 643q-9 -3 -11 -3q-10 0 -10 10q0 2 1 4l2 4q20 30 89 77q111 75 224 117q109 41 182 41q30 0 50 -8q19 -8 31 -22.5t17 -32t5 -39.5q0 -59 -31 -137q133 56 270 56h6.5h6.5q79 0 128.5 -32.5t49.5 -96.5q0 -14 -2 -28q-8 -49 -29 -86.5t-67 -89.5q-9 -11 -22.5 -24
t-28.5 -25.5t-32 -25.5t-34 -25t-34.5 -23t-33.5 -20.5t-30 -16.5q-131 -67 -265 -71q-29 -2 -54 -2q-16 0 -30.5 0.5t-28.5 1.5t-27 2.5t-25.5 3.5t-24.5 4.5t-23.5 6t-22.5 7t-22 8t-23 9.5q-1 -1 -3.5 -2.5t-6.5 -3.5q-83 -50 -89 -53q-78 -40 -140 -62t-125 -22
q-6 0 -13 1q-18 0 -34 4t-26.5 10.5t-16.5 14.5t-6 17q0 14 14 27q3 3 9 3q7 0 7 -7q0 -5 -8 -12q-6 -7 -6 -13t7.5 -12.5t18 -10.5t20.5 -6q17 -3 36 -3q68 0 174 43q32 13 81.5 38.5t78.5 44.5l17 12q-9 6 -12 9q-11 11 -17 19q-12 20 -12 36v10q1 6 4.5 13.5t7 13.5
t6.5 7q2 1 3 1q5 0 5 -4q0 -2 -3 -5q-4 -5 -6 -12q-5 -11 -5 -22q0 -27 24 -46q6 -6 16 -13l28 19q108 74 202.5 186t143.5 222l-33 -17q-26 -13 -77 -47q-26 -16 -50.5 -35t-50.5 -41q-24 -21 -35 -32t-15.5 -18t-6.5 -16v0q0 -10 -7 -10t-7 9q1 10 8 21t23.5 26.5t25 22.5
t30.5 26q70 55 133 91q10 6 22 12.5t22 11.5t15.5 8t9.5 5q37 96 37 150q0 82 -84 85h-9q-117 0 -294 -94q-31 -16 -70.5 -41.5t-72 -50t-44.5 -38.5q-1 -1 -1 -2q0 -3 6 -12zM1320 557q2 13 2 25q0 50 -36 79q-24 22 -68 31q-39 7 -81 7q-88 0 -200 -34q-36 -13 -69 -27
q-27 -60 -63 -116t-56.5 -81t-52.5 -61q-9 -10 -13 -15q-22 -25 -49.5 -51.5t-59 -52.5t-63.5 -49q-19 -14 -22 -17q48 -24 102 -32q15 -1 30.5 -2.5t30.5 -2.5t29.5 -1.5t29.5 -0.5q142 0 258 49q118 50 216 141q53 49 89.5 101t45.5 110z" />
    <glyph glyph-name="germandbls" unicode="&#xdf;" horiz-adv-x="111" 
d="M38 223q-5 5 -20 5q-3 0 -9 -4q-12 -10 -19 -10t-7 8q-4 -4 -15 -12.5t-17 -13.5q-64 -53 -116 -98l-5 -5q-3 -2 -6 -2q-4 0 -4 4q0 3 3 6q16 17 74 64q15 13 99 82l3 2q21 17 41.5 30.5t31 19.5t11.5 6v-1q8 0 8 -5q0 -3 -7 -9q-24 -24 -42 -38q-5 -3 -13 -11l8 -3
q17 -6 17 -13q0 -5 -8 -13q-10 -12 -62 -33q-11 -4 -19 -4q-10 0 -10 7q0 5 13 6q12 1 30 10q40 17 40 26v-1zM35 261l14 12q-22 -15 -42 -33q7 3 28 21z" />
    <glyph glyph-name="agrave" unicode="&#xe0;" horiz-adv-x="185" 
d="M54 304q-31 38 -31 48q0 6 5 6q3 0 9 -7q4 -4 17 -23t15 -24q1 -3 1 -5q0 -5 -4 -5t-12 10zM40 226q-12 -12 -12 -22q0 -7 9 -7q15 0 58 17q7 3 29 12t33 14q25 11 32 15q4 1 5 1q4 0 4 -4t-11 -9q-42 -19 -73 -32q-59 -25 -78 -25q-9 0 -15 4q-6 5 -6 15q0 8 4 17
q-21 -9 -31 -9h-1q-12 3 -12 11q0 14 19 24q38 20 60 20q6 0 10 -2q1 -1 1.5 -1t5.5 1l2 1q8 3 11 3q8 0 8 -8q0 -10 -10 -10q-14 0 -42 -26zM51 257h-1q-6 0 -21 -6.5t-27.5 -13.5t-13.5 -10l-1 -1q0 -2 4 -2q12 0 34 12q21 11 26 21z" />
    <glyph glyph-name="aacute" unicode="&#xe1;" horiz-adv-x="185" 
d="M121 355q5 3 10 3q7 0 7 -5q0 -3 -13 -13q-10 -8 -20 -15q-19 -15 -31 -27q-4 -4 -9 -4q-7 0 -7 6t30 31q17 14 33 24zM40 226q-12 -12 -12 -22q0 -7 9 -7q15 0 58 17q7 3 29 12t33 14q25 11 32 15q4 1 5 1q4 0 4 -4t-11 -9q-42 -19 -73 -32q-59 -25 -78 -25q-9 0 -15 4
q-6 5 -6 15q0 8 4 17q-21 -9 -31 -9h-1q-12 3 -12 11q0 14 19 24q38 20 60 20q6 0 10 -2q1 -1 1.5 -1t5.5 1l2 1q8 3 11 3q8 0 8 -8q0 -10 -10 -10q-14 0 -42 -26zM51 257h-1q-6 0 -21 -6.5t-27.5 -13.5t-13.5 -10l-1 -1q0 -2 4 -2q12 0 34 12q21 11 26 21z" />
    <glyph glyph-name="acircumflex" unicode="&#xe2;" horiz-adv-x="185" 
d="M99 318q0 -5 -4 -5q-3 0 -5.5 3.5t-4 7t-3.5 9t-2 7.5q-23 -8 -44 -21q-7 -7 -12 -7t-5 6q0 7 26 19l16 8q21 9 27 9t8 -9q0 -3 1 -8.5t2 -8.5v-5v-5zM40 226q-12 -12 -12 -22q0 -7 9 -7q15 0 58 17q7 3 29 12t33 14q25 11 32 15q4 1 5 1q4 0 4 -4t-11 -9
q-42 -19 -73 -32q-59 -25 -78 -25q-9 0 -15 4q-6 5 -6 15q0 8 4 17q-21 -9 -31 -9h-1q-12 3 -12 11q0 14 19 24q38 20 60 20q6 0 10 -2q1 -1 1.5 -1t5.5 1l2 1q8 3 11 3q8 0 8 -8q0 -10 -10 -10q-14 0 -42 -26zM51 257h-1q-6 0 -21 -6.5t-27.5 -13.5t-13.5 -10l-1 -1
q0 -2 4 -2q12 0 34 12q21 11 26 21z" />
    <glyph glyph-name="atilde" unicode="&#xe3;" horiz-adv-x="185" 
d="M53 320q-5 4 -9 4t-14 -8q-5 -4 -8 -4q-7 0 -7 5q0 7 16 14q7 4 13 4q7 0 14 -6q13 -10 24 -10q7 0 15 5q7 4 12 4q4 0 4 -4q0 -1 -1 -3q-10 -14 -30 -14q-17 0 -29 13zM40 226q-12 -12 -12 -22q0 -7 9 -7q15 0 58 17q7 3 29 12t33 14q25 11 32 15q4 1 5 1q4 0 4 -4
t-11 -9q-42 -19 -73 -32q-59 -25 -78 -25q-9 0 -15 4q-6 5 -6 15q0 8 4 17q-21 -9 -31 -9h-1q-12 3 -12 11q0 14 19 24q38 20 60 20q6 0 10 -2q1 -1 1.5 -1t5.5 1l2 1q8 3 11 3q8 0 8 -8q0 -10 -10 -10q-14 0 -42 -26zM51 257h-1q-6 0 -21 -6.5t-27.5 -13.5t-13.5 -10l-1 -1
q0 -2 4 -2q12 0 34 12q21 11 26 21z" />
    <glyph glyph-name="adieresis" unicode="&#xe4;" horiz-adv-x="185" 
d="M42 321q-3 -1 -5 -1q-4 0 -4 4q0 5 11 14q10 8 15 8q7 0 7 -5q0 -4 -9 -11t-15 -9zM68 317q-5 0 -5 7q0 6 6 11t13 5q9 0 9 -6v-2q-6 -5 -8 -6q-3 -1 -7 -4q-4 -5 -8 -5zM40 226q-12 -12 -12 -22q0 -7 9 -7q15 0 58 17q7 3 29 12t33 14q25 11 32 15q4 1 5 1q4 0 4 -4
t-11 -9q-42 -19 -73 -32q-59 -25 -78 -25q-9 0 -15 4q-6 5 -6 15q0 8 4 17q-21 -9 -31 -9h-1q-12 3 -12 11q0 14 19 24q38 20 60 20q6 0 10 -2q1 -1 1.5 -1t5.5 1l2 1q8 3 11 3q8 0 8 -8q0 -10 -10 -10q-14 0 -42 -26zM51 257h-1q-6 0 -21 -6.5t-27.5 -13.5t-13.5 -10l-1 -1
q0 -2 4 -2q12 0 34 12q21 11 26 21z" />
    <glyph glyph-name="aring" unicode="&#xe5;" horiz-adv-x="185" 
d="M75 320q12 0 12 -11q0 -6 -5.5 -10t-13.5 -4q-12 0 -12 12q0 5 6.5 9t12.5 4zM74 311q-8 0 -8 -4q0 -3 4 -3q1 0 4 1q4 2 4 5q-1 1 -4 1zM40 226q-12 -12 -12 -22q0 -7 9 -7q15 0 58 17q7 3 29 12t33 14q25 11 32 15q4 1 5 1q4 0 4 -4t-11 -9q-42 -19 -73 -32
q-59 -25 -78 -25q-9 0 -15 4q-6 5 -6 15q0 8 4 17q-21 -9 -31 -9h-1q-12 3 -12 11q0 14 19 24q38 20 60 20q6 0 10 -2q1 -1 1.5 -1t5.5 1l2 1q8 3 11 3q8 0 8 -8q0 -10 -10 -10q-14 0 -42 -26zM51 257h-1q-6 0 -21 -6.5t-27.5 -13.5t-13.5 -10l-1 -1q0 -2 4 -2q12 0 34 12
q21 11 26 21z" />
    <glyph glyph-name="ae" unicode="&#xe6;" horiz-adv-x="201" 
d="M31 214q-7 -7 -7 -14q0 -6 13 -6q16 0 50 11q1 0 3 1t3 1q9 3 20.5 8t26.5 12t22 10q25 11 37 17q9 4 12.5 4t3.5 -3q0 -2 -4 -5t-10 -6t-12.5 -6t-13 -5.5t-8.5 -4.5q-62 -32 -111 -43q-14 -3 -24 -3q-25 0 -25 18q0 10 7 19q-15 -6 -26 -6v0q-13 2 -13 11q0 14 19 24
q38 20 60 20q7 0 10 -2q1 -1 1.5 -1t5.5 1l2 1q8 3 11 3q5 0 7 -3q4 1 7 1q10 0 10 -10q0 -7 -8.5 -12.5t-30.5 -17.5q-23 -10 -35 -13q-1 0 -3 -1zM-12 227l-1 -1q0 -2 4 -2q12 0 34 12q21 11 26 21h-1q-6 0 -21 -6.5t-27.5 -13.5t-13.5 -10zM90 254q-18 -6 -38 -20
q22 9 38 20z" />
    <glyph glyph-name="ccedilla" unicode="&#xe7;" horiz-adv-x="151" 
d="M32 262q8 0 8 -7q0 -6 -5 -13t-10 -7q-4 0 -4 6v2.5v1.5q-2 0 -7 -3q-44 -23 -44 -44q0 -7 10 -7q4 0 9 1q64 13 141 51l8 4t11 5q7 4 10 4q4 0 4 -4t-12 -9q-96 -46 -158 -59q-1 -2 -5 -4l-3 -3q8 -3 8 -12q0 -13 -22 -16q-2 -1 -4 -1q-11 0 -11 7q0 5 8 5h1.5h0.5
q14 0 14 5v1t-3 2q-5 2 -5 5.5t4 8.5q-20 2 -20 19v3q3 21 29 36q32 22 47 22z" />
    <glyph glyph-name="egrave" unicode="&#xe8;" horiz-adv-x="134" 
d="M43 302q1 -3 1 -5q0 -5 -4 -5t-12 10q-31 38 -31 48q0 6 5 6q3 0 9 -7q4 -4 17 -23t15 -24zM-28 211q-2 0 -4 -2.5t-3.5 -6t-1.5 -6.5q0 -6 13 -6q17 0 55 13q30 10 91 43l15 8q3 1 7 1t4 -3q0 -2 -3.5 -5t-9 -6l-11 -6t-11.5 -6t-8 -5q-62 -32 -111 -43q-12 -3 -21 -3
q-23 0 -23 18q0 5 2 11q5 18 43 40q30 17 41 17q10 0 10 -10q0 -7 -8.5 -12.5t-30.5 -17.5q-23 -10 -35 -13zM28 251q-18 -6 -38 -20q22 9 38 20z" />
    <glyph glyph-name="eacute" unicode="&#xe9;" horiz-adv-x="134" 
d="M62 284q-6 0 -6 6q3 6 29 23q13 7 31 14q3 1 6 1q8 0 8 -5q0 -3 -11 -9q-22 -12 -49 -28q-4 -2 -8 -2zM-28 211q-2 0 -4 -2.5t-3.5 -6t-1.5 -6.5q0 -6 13 -6q17 0 55 13q30 10 91 43l15 8q3 1 7 1t4 -3q0 -2 -3.5 -5t-9 -6l-11 -6t-11.5 -6t-8 -5q-62 -32 -111 -43
q-12 -3 -21 -3q-23 0 -23 18q0 5 2 11q5 18 43 40q30 17 41 17q10 0 10 -10q0 -7 -8.5 -12.5t-30.5 -17.5q-23 -10 -35 -13zM28 251q-24 -4 -42 -22q27 5 42 22z" />
    <glyph glyph-name="ecircumflex" unicode="&#xea;" horiz-adv-x="134" 
d="M88 300v-1v-3.5v-3.5q0 -5 -4 -5q-3 0 -5.5 3.5t-4.5 10.5t-3 8l-18 -9t-17 -9q-6 -5 -10 -5q-5 0 -5 6q0 4 5 7t24 12q5 2 6 3q17 8 22 8q6 0 8 -8q1 -6 2 -14zM-28 211q-3 0 -6 -5t-3 -9q0 -7 13 -7q17 0 55 13q30 10 91 43l15 8q3 1 7 1h1q3 0 3 -2q0 -3 -7.5 -8.5
t-21 -12.5t-14.5 -8q-62 -32 -111 -43q-12 -3 -21 -3q-23 0 -23 19q0 5 2 11q5 17 43 39q30 17 41 17q10 0 10 -9q0 -7 -8.5 -13t-30.5 -18q-23 -10 -35 -13zM26 249q-21 -4 -37 -20q21 4 37 20z" />
    <glyph glyph-name="edieresis" unicode="&#xeb;" horiz-adv-x="134" 
d="M42 291q-3 -1 -5 -1q-4 0 -4 4q0 5 11 14q10 8 15 8q7 0 7 -5q0 -4 -9 -11t-15 -9zM68 287q-5 0 -5 7q0 6 6 11t13 5q9 0 9 -6v-2q-6 -5 -8 -6q-3 -1 -7 -4q-4 -5 -8 -5zM-28 211q-2 0 -4 -2.5t-3.5 -6t-1.5 -6.5q0 -6 13 -6q17 0 55 13q30 10 91 43l15 8q3 1 7 1t4 -3
q0 -2 -3.5 -5t-9 -6l-11 -6t-11.5 -6t-8 -5q-62 -32 -111 -43q-12 -3 -21 -3q-23 0 -23 18q0 5 2 11q5 18 43 40q30 17 41 17q10 0 10 -10q0 -7 -8.5 -12.5t-30.5 -17.5q-23 -10 -35 -13zM28 251q-20 -4 -38 -20q25 5 38 20z" />
    <glyph glyph-name="igrave" unicode="&#xec;" horiz-adv-x="154" 
d="M24 292q-31 38 -31 48q0 6 5 6q3 0 9 -7q4 -4 17 -23t15 -24q1 -3 1 -5q0 -5 -4 -5t-12 10zM9 240q-17 -9 -31 -23t-14 -21q0 -4 8 -4q15 0 63 16q24 7 110 42l12 5q3 1 6 1q5 0 5 -3t-2 -5q-3 -2 -9 -4q-102 -40 -121 -47q-37 -12 -53 -15q-7 -1 -17 -1h-7q-9 2 -9 12
q0 8 4 17q7 12 23.5 26.5t31.5 19.5q2 1 4 1q7 0 7 -7q0 -2 -2 -4t-5.5 -3.5t-3.5 -2.5z" />
    <glyph glyph-name="iacute" unicode="&#xed;" horiz-adv-x="154" 
d="M98 332q3 1 6 1q8 0 8 -5q0 -2 -14 -11q-10 -6 -17 -11q-15 -8 -29 -20q-3 -2 -8 -2q-6 0 -6 6t29 25q13 9 31 17zM9 240q-17 -9 -31 -23t-14 -21q0 -4 8 -4q15 0 63 16q24 7 110 42l12 5q3 1 6 1q5 0 5 -3t-2 -5q-3 -2 -9 -4q-102 -40 -121 -47q-37 -12 -53 -15
q-7 -1 -17 -1h-7q-9 2 -9 12q0 8 4 17q7 12 23.5 26.5t31.5 19.5q2 1 4 1q7 0 7 -7q0 -2 -2 -4t-5.5 -3.5t-3.5 -2.5z" />
    <glyph glyph-name="icircumflex" unicode="&#xee;" horiz-adv-x="156" 
d="M92 306v-1v-4v-5q0 -6 -4 -6q-3 0 -5.5 3.5t-4 7t-3.5 9t-3 7.5q-22 -7 -44 -21q-7 -7 -12 -7t-5 7q0 5 7.5 9t35.5 17q21 9 26 9q7 0 9 -8q1 -9 3 -17zM9 240q-17 -9 -31 -22.5t-14 -20.5q0 -5 8 -5q15 0 63 16q24 7 112 42l12 5q3 1 6 1h1q4 0 4 -2q0 -4 -2 -5
q-3 -3 -9 -5q-16 -6 -37.5 -15t-39 -15.5t-45.5 -16.5q-38 -12 -54 -15q-7 -1 -17 -1h-7q-9 2 -9 13q0 8 4 16q7 13 23.5 27t31.5 19q2 1 4 1q7 0 7 -5q0 -4 -1.5 -5.5t-5.5 -3.5t-4 -3z" />
    <glyph glyph-name="idieresis" unicode="&#xef;" horiz-adv-x="154" 
d="M42 288q-3 -1 -5 -1q-4 0 -4 4q0 5 11 14q10 8 15 8q7 0 7 -5q0 -3 -4.5 -7.5t-10 -8t-9.5 -4.5zM68 284q-5 0 -5 7q0 6 6 11t13 5q9 0 9 -7v-1q-6 -5 -8 -6q-3 -1 -7 -4q-4 -5 -8 -5zM9 240q-17 -9 -31 -23t-14 -21q0 -4 8 -4q15 0 63 16q24 7 110 42l12 5q3 1 6 1
q5 0 5 -3t-2 -5q-3 -2 -9 -4q-102 -40 -121 -47q-37 -12 -53 -15q-7 -1 -17 -1h-7q-9 2 -9 12q0 8 4 17q7 12 23.5 26.5t31.5 19.5q2 1 4 1q7 0 7 -7q0 -2 -2 -4t-5.5 -3.5t-3.5 -2.5z" />
    <glyph glyph-name="eth" unicode="&#xf0;" horiz-adv-x="234" 
d="M126 441q-3 0 -3 3q0 4 15 7.5t27 3.5q39 0 63 -22.5t24 -57.5q0 -18 -9 -47q16 2 24 2q23 0 23 -9q0 -4 -7 -9l-4 -1h-1q-4 0 -4 3q0 1 1 2t1 3q-2 1 -11 1q-11 0 -26 -2q-32 -54 -116 -100t-144 -46q-34 0 -34 22q0 10 9 23q13 17 45 33.5t55 16.5q13 0 21 -7
q8 -6 8 -17q0 -13 -11 -13q-4 0 -4 4q0 2 0.5 4.5t0.5 4.5q0 13 -18.5 13t-46 -16.5t-39.5 -31.5q-5 -7 -5 -12t6 -8.5t15 -3.5h4q41 5 87.5 23.5t87.5 47.5t63 61l1 1q-11 0 -20 -1q-21 -2 -40 -3t-29 -2v0h-6.5t-7 -0.5t-7 -0.5h-6.5h-1.5h-1.5h-1q-6 0 -6 4t33 7
q9 1 20 1.5t22.5 1t18.5 1.5l38 3l2 5q9 22 9 41q0 33 -22.5 52.5t-57.5 19.5q-15 0 -32 -4q-2 -1 -3 -1z" />
    <glyph glyph-name="ntilde" unicode="&#xf1;" horiz-adv-x="280" 
d="M87 308q-6 6 -12 6t-18 -10q-7 -6 -11 -6q-8 0 -8 6q0 8 20 18q9 5 16 5q9 0 19 -7q10 -8 18.5 -11t15.5 -3q9 0 21 6q9 5 15 5q5 0 5 -3q0 -1 -0.5 -2t-1.5 -2q-13 -18 -39 -18q-23 0 -40 16zM75 231q4 5 4 7q0 1 -1 1q-4 0 -17 -3q-26 -8 -57 -25q-10 -6 -22 -15
t-12 -11q-1 -6 -5 -6q-2 0 -6 3q-5 4 -5 10q0 11 21 34q26 29 47 36q5 3 10 3q6 0 6 -5q0 -4 -15 -14q-9 -7 -15 -11q-12 -10 -20 -20l23 11q49 23 70 23q3 0 6 -0.5t5 -2.5t2 -5q0 -5 -12 -20q-12 -16 -12 -29q0 -16 22 -16q60 0 191 78q3 2 6 2q4 0 4 -5q0 -4 -24 -17
q-110 -59 -164 -67q-7 -1 -12 -1q-35 0 -35 26q0 14 10 29q3 5 7 10z" />
    <glyph glyph-name="ograve" unicode="&#xf2;" horiz-adv-x="205" 
d="M21 281q-31 38 -31 48q0 6 5 6q3 0 9 -7q4 -4 17 -23t15 -24q1 -3 1 -5q0 -5 -4 -5t-12 10zM35 244q0 -6 -4 -10q4 -3 16 -3q40 0 141 20q12 2 24 5q5 0 5 -4t-12 -7q-35 -8 -123 -22q-18 -3 -38 -3q-16 0 -21 4q-11 -12 -27 -23q-16 -9 -25 -9q-11 0 -11 8
q0 11 15.5 27.5t35.5 30.5q4 1 6 2q4 2 6 2q5 0 10 -9q2 -4 2 -9zM1 220q6 5 11.5 13t5.5 12v1q-5 0 -22 -15q-17 -16 -19 -24q10 3 24 13z" />
    <glyph glyph-name="oacute" unicode="&#xf3;" horiz-adv-x="205" 
d="M90 327q4 2 7 2q6 0 6 -4q0 -3 -11 -11q-7 -5 -22 -18q-7 -6 -12 -10q-2 -4 -7 -4t-5 6q0 2 8 10.5t16 14.5q11 8 20 14zM35 244q0 -6 -4 -10q4 -3 16 -3q40 0 141 20q12 2 24 5q5 0 5 -4t-12 -7q-35 -8 -123 -22q-18 -3 -38 -3q-16 0 -21 4q-11 -12 -27 -23
q-16 -9 -25 -9q-11 0 -11 8q0 11 15.5 27.5t35.5 30.5q4 1 6 2q4 2 6 2q5 0 10 -9q2 -4 2 -9zM1 220q6 5 11.5 13t5.5 12v1q-5 0 -22 -15q-17 -16 -19 -24q10 3 24 13z" />
    <glyph glyph-name="ocircumflex" unicode="&#xf4;" horiz-adv-x="205" 
d="M84 300v-1v-4v-5q0 -6 -4 -6q-3 0 -6 4.5t-6 12.5t-3 10q-22 -8 -44 -21q-7 -7 -12 -7t-5 7q0 5 7.5 9t34.5 17q21 9 27 9t8 -8q1 -9 3 -17zM35 245q0 -6 -4 -11q4 -3 16 -3q40 0 141 20l24 5q5 0 5 -3q0 -5 -12 -8q-35 -8 -123 -22q-18 -3 -38 -3q-16 0 -21 4
q-11 -12 -27 -22t-25 -10q-11 0 -11 8q0 12 15.5 28t35.5 30l6 2q4 2 6 2q5 0 10 -9q2 -4 2 -8zM18 245q-5 0 -22 -15q-20 -18 -20 -24q11 2 25 14q6 4 11.5 12.5t5.5 12.5z" />
    <glyph glyph-name="otilde" unicode="&#xf5;" horiz-adv-x="205" 
d="M37 293q-4 4 -8 4t-13 -8q-5 -4 -8 -4q-6 0 -6 5q0 6 14 14q7 3 12 3q6 0 13 -5q13 -10 22 -10q6 0 14 5q6 4 10 4t4 -4v-3q-9 -12 -27 -12q-16 0 -27 11zM35 244q0 -6 -4 -10q4 -3 16 -3q40 0 141 20q12 2 24 5q5 0 5 -4t-12 -7q-35 -8 -123 -22q-18 -3 -38 -3
q-16 0 -21 4q-11 -12 -27 -23q-16 -9 -25 -9q-11 0 -11 8q0 11 15.5 27.5t35.5 30.5q4 1 6 2q4 2 6 2q5 0 10 -9q2 -4 2 -9zM1 220q6 5 11.5 13t5.5 12v1q-5 0 -22 -15q-17 -16 -19 -24q10 3 24 13z" />
    <glyph glyph-name="odieresis" unicode="&#xf6;" horiz-adv-x="205" 
d="M34 281q-3 -1 -5 -1q-4 0 -4 4q0 5 11 14q10 8 15 8q7 0 7 -5q0 -3 -4.5 -7.5t-10 -8t-9.5 -4.5zM60 277q-5 0 -5 7q0 6 6 11t13 5q9 0 9 -6v-2q-6 -5 -8 -6q-3 -1 -7 -4q-4 -5 -8 -5zM35 244q0 -6 -4 -10q4 -3 16 -3q40 0 141 20q12 2 24 5q5 0 5 -4t-12 -7
q-35 -8 -123 -22q-18 -3 -38 -3q-16 0 -21 4q-11 -12 -27 -23q-16 -9 -25 -9q-11 0 -11 8q0 11 15.5 27.5t35.5 30.5q4 1 6 2q4 2 6 2q5 0 10 -9q2 -4 2 -9zM1 220q6 5 11.5 13t5.5 12v1q-5 0 -22 -15q-17 -16 -19 -24q10 3 24 13z" />
    <glyph glyph-name="divide" unicode="&#xf7;" horiz-adv-x="120" 
d="M64 220q-5 1 -6 5q0 4 7 10q2 1 3 2q8 9 14 9q3 0 4 -1.5t1 -3.5q0 -1 -0.5 -2.5t-1.5 -3t-1 -2.5h-1q-1 -2 -2 -2.5t-3 -2.5t-3.5 -3t-3.5 -2.5t-4 -2t-3 -0.5zM100 196h-2v1q-16 -1 -31.5 -2t-30.5 -2t-20 -1q-6 -2 -10 -2q-9 0 -9 5q0 3 1 4q3 3 32 5q4 1 9.5 1h12.5
q42 0 48 -3q3 -1 3 -3zM28 164q0 -2 -2 -4.5t-4 -3.5t-4.5 -3t-4.5 -3q-1 -2 -2.5 -3t-3.5 -1q-5 0 -5 5q0 4 5 9.5t9 7.5q3 2 6 2q6 0 6 -6z" />
    <glyph glyph-name="oslash" unicode="&#xf8;" horiz-adv-x="205" 
d="M-29 192q-2 0 -5 1q-9 -11 -11 -11q-3 0 -3 4t8 12v2q0 11 15.5 27.5t35.5 30.5q4 1 6 2q4 2 6 2q5 0 7 -5l8 7q3 2 4 2q3 0 3 -3t-3 -6l-8 -7q1 -3 1 -6q0 -6 -4 -10q4 -3 16 -3q40 0 141 20q12 2 24 5q5 0 5 -4t-12 -7q-35 -8 -123 -22q-18 -3 -38 -3q-16 0 -21 4
q-11 -12 -27 -23q-16 -9 -25 -9zM15 247q-6 -3 -19 -15zM1 222q7 6 13 15q-24 -20 -32 -27q11 5 19 12z" />
    <glyph glyph-name="ugrave" unicode="&#xf9;" horiz-adv-x="204" 
d="M69 308q-31 38 -31 48q0 6 5 6q3 0 9 -7q2 -1 5.5 -6t7.5 -11l8 -12t7 -11t4 -7q1 -3 1 -5q0 -5 -4 -5t-12 10zM116 209q-25 -10 -36 -14t-24.5 -8t-19.5 -4q-13 0 -13 12q0 13 14 27l2 2q-4 -1 -11 -4t-9 -4q-28 -12 -37 -12q-12 0 -12 10q0 9 25 30q26 22 33 22
q5 0 5 -5q0 -3 -6 -5.5t-22 -18t-20 -20.5q8 0 35 11q40 17 54 28q10 9 16 9t6 -5q0 -1 -18 -18q-26 -24 -32 -31q-10 -13 -10 -17q0 -1 3 -1t9 2q46 11 162 60q2 1 4 1q5 0 5 -6q0 -4 -9 -5q-51 -20 -94 -36z" />
    <glyph glyph-name="uacute" unicode="&#xfa;" horiz-adv-x="204" 
d="M146 373q5 3 10 3q7 0 7 -5q0 -3 -13 -13q-10 -8 -20 -15q-19 -15 -31 -27q-4 -4 -9 -4q-7 0 -7 6t30 31q17 14 33 24zM116 209q-25 -10 -36 -14t-24.5 -8t-19.5 -4q-13 0 -13 12q0 13 14 27l2 2q-4 -1 -11 -4t-9 -4q-28 -12 -37 -12q-12 0 -12 10q0 9 25 30q26 22 33 22
q5 0 5 -5q0 -3 -6 -5.5t-22 -18t-20 -20.5q8 0 35 11q40 17 54 28q10 9 16 9t6 -5q0 -1 -18 -18q-26 -24 -32 -31q-10 -13 -10 -17q0 -1 3 -1t9 2q46 11 162 60q2 1 4 1q5 0 5 -6q0 -4 -9 -5q-51 -20 -94 -36z" />
    <glyph glyph-name="ucircumflex" unicode="&#xfb;" horiz-adv-x="204" 
d="M142 338q0 -5 -4 -5t-6.5 4.5t-5.5 13t-3 9.5q-23 -8 -44 -21q-7 -7 -12 -7t-5 6q0 5 7.5 9.5t34.5 17.5q21 9 27 9t8 -9q0 -3 1 -8.5t2 -8.5v-5v-5zM116 209q-25 -10 -36 -14t-24.5 -8t-19.5 -4q-13 0 -13 12q0 13 14 27l2 2q-4 -1 -11 -4t-9 -4q-28 -12 -37 -12
q-12 0 -12 10q0 9 25 30q26 22 33 22q5 0 5 -5q0 -3 -6 -5.5t-22 -18t-20 -20.5q8 0 35 11q40 17 54 28q10 9 16 9t6 -5q0 -1 -18 -18q-26 -24 -32 -31q-10 -13 -10 -17q0 -1 3 -1t9 2q46 11 162 60q2 1 4 1q5 0 5 -6q0 -4 -9 -5q-51 -20 -94 -36z" />
    <glyph glyph-name="udieresis" unicode="&#xfc;" horiz-adv-x="204" 
d="M82 318q-3 -1 -5 -1q-4 0 -4 4q0 5 11 14q10 8 15 8q7 0 7 -5q0 -4 -9 -11t-15 -9zM108 314q-5 0 -5 7q0 6 6 11t13 5q9 0 9 -7v-1q-6 -5 -8 -6q-3 -1 -7 -4q-4 -5 -8 -5zM116 209q-25 -10 -36 -14t-24.5 -8t-19.5 -4q-13 0 -13 12q0 13 14 27l2 2q-4 -1 -11 -4t-9 -4
q-28 -12 -37 -12q-12 0 -12 10q0 9 25 30q26 22 33 22q5 0 5 -5q0 -3 -6 -5.5t-22 -18t-20 -20.5q8 0 35 11q40 17 54 28q10 9 16 9t6 -5q0 -1 -18 -18q-26 -24 -32 -31q-10 -13 -10 -17q0 -1 3 -1t9 2q46 11 162 60q2 1 4 1q5 0 5 -6q0 -4 -9 -5q-51 -20 -94 -36z" />
    <glyph glyph-name="yacute" unicode="&#xfd;" horiz-adv-x="170" 
d="M90 322q-4 -2 -7 -2q-6 0 -6 5t25 23q11 8 26 15q3 1 6 1q1 0 3 -0.5l2 -0.5q2 -1 2 -3q0 -3 -12 -11q-8 -5 -14 -9q-9 -6 -25 -18zM-337 -73q-71 -42 -102 -42q-24 0 -24 17q0 15 19 38.5t47 44.5q39 31 81 56q105 62 228 104l26 10l32 25q19 15 45 38q-3 -2 -9 -5
q-23 -12 -36 -12q-10 0 -10 7q0 6 9 15q2 2 30 23q13 10 18 10q6 0 6 -5q0 -3 -12 -10q-6 -4 -10 -6q-17 -11 -29 -25q14 3 46 19.5t50 31.5q4 5 8 5q6 0 6 -6q0 -3 -22 -22q-5 -4 -23 -19.5l-36 -31t-31 -26.5l34 12q76 28 149 70q15 8 24 13q7 -1 7 -4.5t-13 -9.5
q-48 -28 -101 -53q-13 -5 -95 -35l-27 -10q-18 -14 -105 -88q-16 -13 -89 -67q-43 -33 -91 -62zM-444 -77q-7 -13 -7 -19q0 -8 11 -8q26 0 75 28q29 16 56.5 34.5t58 42t49.5 39t55 46t50 41.5l15 13q-24 -9 -89 -35q-46 -18 -102 -50q-45 -24 -94 -60q-64 -45 -78 -72z" />
    <glyph glyph-name="thorn" unicode="&#xfe;" horiz-adv-x="165" 
d="M-37 185q-12 -2 -15 -2q-2 0 -5 0.5t-4 0.5q-2 0 -9 -6q-8 -7 -12 -11q-2 -2 -3 -2.5t-2 -2t-3 -2.5q-97 -91 -165 -205q-11 -17 -12 -32q-1 -9 -7 -13q-5 -2 -7 -2q-7 0 -7 8q0 19 23 57q75 109 175 209q2 1 4 3t4 3.5t4 3.5l3 3q-2 6 -2 15q0 8 4 11q5 6 37 11
q12 1 49 29q54 44 127.5 95t93.5 62q9 4 14 4q7 0 7 -6q0 -3 -2.5 -5.5t-5.5 -4t-5 -1.5t-3 1q-2 0 -3 -1q-3 -1 -32.5 -20t-66 -44t-50.5 -36l-33 -26q-10 -8 -19 -16l10 5q28 11 42 11q9 0 11 -4q2 -3 2 -5.5t-2 -5.5q-2 -4 -21 -22l-6 -6h1q6 0 23.5 1t23.5 1q27 0 27 -7
q0 -4 -7 -4h-2h-31h-33q-6 -1 -9 -1t-6.5 -1t-4.5 -1.5t-5.5 -3t-7.5 -3.5l-43 -21q-29 -10 -34 -11zM3 232l44 3l14 10q18 13 22 22h-1q-12 0 -44 -14q-13 -6 -39 -21h4zM21 222l7 4q-23 -1 -38 -2q-6 -1 -7 -1q-22 -13 -34 -28q12 1 29 7q15 6 43 20zM-45 220q-6 0 -15 -2
h-1q-1 0 -3 -3t-2 -5t1 -6v-2q2 1 9 8t11 10z" />
    <glyph glyph-name="ydieresis" unicode="&#xff;" horiz-adv-x="170" 
d="M69 300q-2 -1 -3 -1q-4 0 -4 4t11 13q4 3 8 3q6 0 6 -5q0 -3 -6.5 -7.5t-11.5 -6.5zM83 304q0 3 2 5.5t5 4t7 1.5q7 0 7 -5v-1v-1q-2 -3 -6 -4l-5 -3q-2 -4 -5 -4q-4 0 -5 7zM-337 -73q-71 -42 -102 -42q-24 0 -24 17q0 15 19 38.5t47 44.5q39 31 81 56q105 62 228 104
l26 10l32 25q19 15 45 38q-3 -2 -9 -5q-23 -12 -36 -12q-10 0 -10 7q0 6 9 15q2 2 30 23q13 10 18 10q6 0 6 -5q0 -3 -12 -10q-6 -4 -10 -6q-17 -11 -29 -25q14 3 46 19.5t50 31.5q4 5 8 5q6 0 6 -6q0 -3 -22 -22q-5 -4 -23 -19.5l-36 -31t-31 -26.5l34 12q76 28 149 70
q15 8 24 13q7 -1 7 -4.5t-13 -9.5q-48 -28 -101 -53q-13 -5 -95 -35l-27 -10q-18 -14 -105 -88q-16 -13 -89 -67q-43 -33 -91 -62zM-444 -77q-7 -13 -7 -19q0 -8 11 -8q26 0 75 28q29 16 56.5 34.5t58 42t49.5 39t55 46t50 41.5l15 13q-24 -9 -89 -35q-46 -18 -102 -50
q-45 -24 -94 -60q-64 -45 -78 -72z" />
    <glyph glyph-name="Amacron" unicode="&#x100;" horiz-adv-x="753" 
d="M958 826q-1 0 -12 1h-5h-6h-6h-10q-27 -2 -38 -3t-16 -1q-2 0 -4 0.5t-3 1.5t-1 4q0 5 8.5 7t34.5 4q32 3 44 3q22 0 22 -10q0 -7 -8 -7zM853 353v1q0 2 1 4t3 4l3 3q-2 1 -8 1.5t-15.5 1.5t-18.5 1q-15 0 -73 -5q-18 -1 -50 -6l-33 -6q-3 -3 -9 -13q-19 -33 -37 -76
q-15 -37 -22.5 -69t-7.5 -61q0 -31 8 -61q16 -67 56 -71q6 -1 9 -1q7 0 18 6q1 1 2 1q2 0 3 -3q0 -5 -8.5 -9t-19.5 -5h-1h-1q-18 0 -34.5 11.5t-27.5 31.5q-11 22 -18 57q-3 15 -3 37q0 33 14 89q5 22 19 54t30 59l10 20q-3 -1 -6.5 -1.5l-7 -1t-6.5 -1t-6.5 -1t-6.5 -0.5
q-10 0 -26 -5q-1 -1 -3 -2t-3.5 -2t-2.5 -2q-9 -6 -75 -47q-33 -20 -50 -30q-99 -58 -167 -87q-90 -41 -179 -57q-21 -4 -34 -4q-21 0 -36 8q-9 7 -12 14q-1 3 -1 7q0 10 7 19q13 16 22 16q7 0 7 -4q0 -2 -6 -6q-6 -5 -10 -8q-1 -2 -7 -16v-1q0 -17 41 -17q21 0 56 8
q61 14 124 40q113 46 258 136l33 22q2 2 10 7l-158 -32q-18 -5 -52 -13.5t-48 -11.5q-42 -12 -58 -13q-9 0 -9 5q0 4 8 8q6 3 15 12q12 16 20 16q1 0 3 -1v-2q0 -5 -7 -10q-1 -1 -5 -6t-6 -6v-2q2 1 4 1.5t6 0.5q21 5 75 18.5t82 19.5l138 27q12 2 37 20l23 17q18 11 65 45
q16 13 24 24l23 30q28 35 80 109q3 4 19.5 26.5t23.5 35.5q7 12 11 12q2 0 3 -2t1 -4v-3q-2 -5 -21 -31q-63 -94 -85 -123q-14 -18 -26 -35q18 15 50.5 42t66 56.5t46.5 42.5t37 41q2 3 21 30q19 29 19 48q0 12 -7 21q-10 12 -34 14q-12 2 -25 2t-30 -2q-51 -4 -120 -23
q-227 -66 -382 -188q-30 -24 -30 -45v-3q-12 3 -12 13q0 5 8 15q33 37 93 74q64 41 128 70q21 10 43 19t44 17.5t44 16t45 14.5q107 31 173 31h5q21 0 36 -4q33 -11 33 -43q0 -12 -5 -25q-10 -21 -32.5 -51.5t-47.5 -52.5q-45 -45 -97 -87l-28 -23l-35 -27q-29 -22 -41 -38
q-8 -12 -21 -31t-17 -25q2 0 8 1q26 4 43 6t39 3.5t48 2.5q22 2 34 2q23 0 29 -6q4 -3 4 -6q2 -6 -4.5 -11t-12.5 -5q-1 0 -2 0.5t-2 1.5zM644 359q4 1 24 30q2 3 5.5 8t6.5 9l6 8l-54 -39q-15 -9 -18 -12q-2 -2 -7 -6t-8 -6z" />
    <glyph glyph-name="amacron" unicode="&#x101;" horiz-adv-x="185" 
d="M111 311q0 -6 -6 -6q-1 0 -10 1h-21q-37 -4 -43 -4t-6 5t7 7t27 3q25 3 35 3q17 0 17 -9zM40 226q-12 -12 -12 -22q0 -7 9 -7q15 0 58 17q7 3 29 12t33 14q25 11 32 15q4 1 5 1q4 0 4 -4t-11 -9q-42 -19 -73 -32q-59 -25 -78 -25q-9 0 -15 4q-6 5 -6 15q0 8 4 17
q-21 -9 -31 -9h-1q-12 3 -12 11q0 14 19 24q38 20 60 20q6 0 10 -2q1 -1 1.5 -1t5.5 1l2 1q8 3 11 3q8 0 8 -8q0 -10 -10 -10q-14 0 -42 -26zM51 257h-1q-6 0 -21 -6.5t-27.5 -13.5t-13.5 -10l-1 -1q0 -2 4 -2q12 0 34 12q21 11 26 21z" />
    <glyph glyph-name="Abreve" unicode="&#x102;" horiz-adv-x="753" 
d="M972 822q-3 7 -3 16t7 9q5 0 9 -12q2 -7 4.5 -9.5t9.5 -2.5t27 4q24 5 35 13q2 3 5 3q5 0 5 -6q0 -1 -1 -3q-2 -7 -28 -15t-42 -8q-22 0 -28 11zM852 353v1q0 2 1 4t3.5 4t3.5 3q-3 1 -9 1.5t-15 1.5t-18 1q-15 0 -74 -5q-18 -1 -49 -6l-33 -6q-1 -1 -1.5 -2t-2.5 -4
t-5 -7q-20 -33 -37 -76q-30 -72 -30 -130q0 -31 8 -61q8 -35 22 -52t34 -19q5 -1 8 -1q8 0 18 6q2 1 3 1q2 0 3 -2v-1q0 -5 -9 -9t-19 -5h-1.5h-0.5q-18 0 -34.5 11.5t-27.5 31.5q-11 22 -18 57q-3 15 -3 37q0 33 14 89q13 51 48 113l11 20q-6 -1 -17 -3t-16 -2h-1
q-9 0 -25 -5q-2 -1 -6 -4q-3 -1 -4 -2q-8 -6 -74 -47q-33 -20 -50 -30q-99 -58 -167 -87q-90 -41 -179 -57q-21 -4 -34 -4q-21 0 -36 8q-9 7 -12 14q-1 3 -1 7q0 10 7 19q13 16 22 16q7 0 7 -4q0 -2 -6 -6q-6 -5 -10 -8q-1 -2 -7 -16v-1q0 -17 41 -17q21 0 56 8
q61 14 123 40q114 46 259 136l33 22q2 2 10 7l-158 -32q-18 -5 -52 -13.5t-49 -11.5q-41 -12 -57 -13q-9 0 -9 5q0 4 8 8q6 3 15 12q12 16 20 16q1 0 3 -1v-2q0 -5 -7 -10q-2 -1 -5.5 -6t-5.5 -6v-2q3 1 10 2q20 5 49.5 12.5t57.5 14t50 11.5l138 27q12 2 37 20l23 17
q18 11 64 45q16 13 25 24l22 30q7 8 14 17t14 19t13 17.5t14 19t12.5 18t13.5 18.5q2 4 19 26.5t24 35.5q6 12 11 12q4 0 4 -6q0 -2 -1 -3q-2 -5 -5 -10t-8.5 -12t-6.5 -9q-63 -93 -86 -123q-5 -6 -10 -13t-8.5 -12t-6.5 -10q18 15 50.5 42t66 56.5t45.5 42.5q13 13 37 41
q2 2 4 4.5l4 5l4 5t3.5 5t3.5 5.5t3 5q19 29 19 48q0 12 -7 21q-10 12 -34 14q-12 2 -25 2q-14 0 -31 -2q-50 -4 -119 -23q-227 -66 -382 -188q-30 -24 -30 -45v-3q-5 2 -8.5 4.5t-3.5 8t8 15.5q18 21 41 38.5t52 35.5q63 41 128 70q82 39 176 67q106 31 173 31h2.5h2.5
q10 0 19 -1t17 -3q33 -11 33 -43q0 -12 -5 -25q-10 -21 -32.5 -51.5t-47.5 -52.5q-45 -45 -98 -87l-27 -23l-35 -27q-18 -14 -25.5 -20.5t-15.5 -17.5q-27 -37 -39 -56q3 0 9 1q38 5 64.5 8t64.5 4q22 2 35 2t19 -1.5t10 -4.5t4 -6q2 -6 -5 -11t-13 -5q-2 0 -4 2zM644 359
q3 1 24 30l18 25l-54 -39q-15 -9 -18 -12q-3 -2 -7.5 -6t-7.5 -6z" />
    <glyph glyph-name="abreve" unicode="&#x103;" horiz-adv-x="185" 
d="M25 310q-3 7 -3 16t7 9q5 0 9 -12q2 -7 4.5 -9.5t9.5 -2.5t27 4q24 5 35 13q2 3 5 3q5 0 5 -6q0 -1 -1 -3q-2 -7 -28 -15t-43 -8q-21 0 -27 11zM40 226q-12 -12 -12 -22q0 -7 9 -7q15 0 58 17q7 3 29 12t33 14q25 11 32 15q4 1 5 1q4 0 4 -4t-11 -9q-42 -19 -73 -32
q-59 -25 -78 -25q-9 0 -15 4q-6 5 -6 15q0 8 4 17q-21 -9 -31 -9h-1q-12 3 -12 11q0 14 19 24q38 20 60 20q6 0 10 -2q1 -1 1.5 -1t5.5 1l2 1q8 3 11 3q8 0 8 -8q0 -10 -10 -10q-14 0 -42 -26zM51 257h-1q-6 0 -21 -6.5t-27.5 -13.5t-13.5 -10l-1 -1q0 -2 4 -2q12 0 34 12
q21 11 26 21z" />
    <glyph glyph-name="Aogonek" unicode="&#x104;" horiz-adv-x="753" 
d="M853 353v1q0 2 1 4t3 4l3 3q-2 1 -8 1.5t-15.5 1.5t-18.5 1q-15 0 -73 -5q-18 -1 -50 -6l-33 -6q-3 -3 -9 -13q-19 -33 -37 -76q-15 -37 -22.5 -69t-7.5 -61q0 -31 8 -61q16 -67 56 -71q6 -1 9 -1q7 0 18 6q1 1 2 1q2 0 3 -3q0 -5 -8.5 -9t-19.5 -5h-4q-25 -9 -36 -30
q-7 -13 -7 -22t10 -18q3 -4 3 -6q0 -5 -9 -5q-6 0 -11.5 3.5t-8.5 10.5t-3 15v6q3 28 42 51q-26 10 -40 38q-11 22 -18 57q-3 15 -3 37q0 33 14 89q5 22 19 54t30 59l10 20q-4 -1 -10.5 -2t-12.5 -2t-10 -1q-10 0 -26 -5q-2 -1 -6 -4l-3 -2q-9 -6 -75 -47q-33 -20 -50 -30
q-99 -58 -167 -87q-90 -41 -179 -57q-21 -4 -34 -4q-21 0 -36 8q-9 7 -12 14q-1 3 -1 7q0 10 7 19q13 16 22 16q7 0 7 -4q0 -2 -6 -6q-6 -5 -10 -8q-1 -2 -7 -16v-1q0 -17 41 -17q21 0 56 8q61 14 124 40q113 46 258 136l33 22q2 2 10 7l-158 -32q-14 -4 -32 -8.5t-36.5 -9
t-31.5 -7.5q-42 -12 -58 -13q-9 0 -9 5q0 4 8 8q6 3 15 12q12 16 20 16q1 0 3 -1v-2q0 -4 -7 -10q-1 -1 -5 -6t-6 -6v-2q3 1 9 2h1q21 5 75 18.5t82 19.5l138 27q12 2 37 20l23 17q18 11 65 45q16 13 24 24l23 30q28 35 80 109q4 6 10.5 15t11.5 15.5t11 15.5t10 16
q7 12 11 12q2 0 3 -2t1 -4v-3q-2 -5 -21 -31q-63 -94 -85 -123q-14 -18 -26 -35q31 25 87.5 73t75.5 68q13 13 37 41q2 3 21 30q19 29 19 48q0 12 -7 21q-10 12 -34 14q-12 2 -25 2t-30 -2q-51 -4 -120 -23q-227 -66 -382 -188q-30 -24 -30 -45v-3q-12 3 -12 13q0 5 8 15
q33 37 93 74q64 41 128 70q21 10 43 19t44 17.5t44 16t45 14.5q107 31 173 31h5q21 0 36 -4q33 -11 33 -43q0 -12 -5 -25q-10 -21 -32.5 -51.5t-47.5 -52.5q-45 -45 -97 -87l-28 -23l-35 -27q-29 -22 -41 -38q-8 -12 -21 -31t-17 -25q2 0 8 1q26 4 43 6t39 3.5t48 2.5
q22 2 34 2q23 0 29 -6q4 -3 4 -6q2 -6 -4.5 -11t-12.5 -5q-1 0 -2 0.5t-2 1.5zM686 414l-54 -39q-15 -9 -18 -12q-2 -2 -7 -6t-8 -6l45 8q4 1 24 30q2 3 5.5 8t6.5 9z" />
    <glyph glyph-name="aogonek" unicode="&#x105;" horiz-adv-x="185" 
d="M1 157q3 18 22 31q-8 4 -8 17q0 8 4 17q-6 -3 -13.5 -5t-12 -3t-5.5 -1h-7l3 1q-9 3 -9 10q0 14 19 24q38 20 60 20q6 0 10 -2q1 -1 1.5 -1t5.5 1l2 1q8 3 11 3q8 0 8 -8q0 -10 -10 -10q-14 0 -42 -26q-12 -12 -12 -22q0 -7 9 -7q15 0 58 17q7 3 29 12t33 14q25 11 31 15
q5 1 6 1q4 0 4 -4t-11 -9q-35 -16 -75 -33q-55 -23 -73 -24q-12 -5 -19 -18q-2 -3 -5 -15q0 -5 7 -12q3 -3 3 -4q0 -5 -8 -5q-6 0 -11 6t-5 15v4zM-12 227l-1 -1q0 -2 4 -2q12 0 34 12q21 11 26 21h-1q-6 0 -21 -6.5t-27.5 -13.5t-13.5 -10z" />
    <glyph glyph-name="Cacute" unicode="&#x106;" horiz-adv-x="653" 
d="M782 793q5 3 10 3q7 0 7 -5q0 -3 -13 -13q-10 -8 -20 -15q-19 -15 -31 -27q-4 -4 -9 -4q-7 0 -7 6t30 31q17 14 33 24zM509 538q15 0 15 -11v-3.5v-3.5v-6q-2 1 -5 4q-5 5 -14 5q-6 0 -15 -2q-11 -4 -24 -11.5t-28 -18.5q-33 -25 -55 -47q-9 -10 -14 -16t-12 -15
t-10.5 -18t-3.5 -18v-2q0 -8 2 -10.5t9 -2.5h3q22 3 85 36q30 15 57 32q6 4 17 11t24.5 16.5t24 17t20.5 14.5q23 17 44 36t41 39q45 47 58 82l3 17q0 36 -54 36q-56 0 -140 -30q-68 -24 -138 -66q-137 -80 -241 -208q-86 -104 -113 -198q-10 -39 -10 -72q0 -44 22 -62
q21 -19 61 -23h19q34 0 78 9q15 4 32.5 9t32 10t32.5 11q22 9 45.5 19.5t47.5 22t43.5 22t46 24.5t43.5 22q22 12 43 23.5t30.5 17t26.5 16.5q21 12 25 12t4 -4l-2 -4q-6 -6 -69.5 -42t-112.5 -62q-66 -34 -168 -77q-43 -18 -87 -29t-85 -12q-6 -1 -12 -1q-57 0 -86 30
q-25 26 -25 73q0 57 26 121q42 95 145 202q131 136 291 206q20 9 36.5 15.5t36 13t38.5 10.5q46 13 82 13q19 0 33.5 -4t24.5 -15t10 -28q0 -6 -1 -12q-6 -35 -54 -87q-23 -24 -43 -42q-18 -15 -35.5 -29.5t-36 -28t-37.5 -26t-39 -24.5t-40.5 -23t-42.5 -21
q-41 -21 -62.5 -21t-21.5 26q0 42 60 95q60 51 108 65q5 2 11 2z" />
    <glyph glyph-name="cacute" unicode="&#x107;" horiz-adv-x="151" 
d="M72 282q-3 -2 -7 -2q-5 0 -5 5q0 6 23 23q15 10 26 16q3 1 6 1t5 -1t2 -3q0 -3 -10 -9q-30 -21 -40 -30zM32 262q8 0 8 -7q0 -6 -5 -13t-10 -7q-4 0 -4 6v2.5v1.5q-2 0 -7 -3q-44 -23 -44 -44q0 -7 10 -7q4 0 9 1q64 13 141 51l8 4t11 5q7 4 10 4q4 0 4 -4t-10 -9
q-38 -18 -68 -31q-56 -23 -96 -31q-6 -1 -10 -1q-23 0 -23 19v4q3 21 29 37q31 22 47 22z" />
    <glyph glyph-name="Ccircumflex" unicode="&#x108;" horiz-adv-x="631" 
d="M219 709v-3v-3.5v-2.5q0 -5 -5 -5q-3 0 -6 4.5t-5.5 12.5t-3.5 9q-22 -7 -43 -21q-7 -7 -12 -7t-5 6q0 5 7 9.5t35 17.5q21 10 26 10q4 0 6 -2.5t2 -7.5q1 -1 1 -3t0.5 -3.5t1 -3.5t0.5 -3.5t1 -3.5zM509 538q4 0 7 -1t6 -3.5t3 -6.5q0 -1 -0.5 -3.5t-0.5 -3.5v-6
q-1 0 -1 1l-3 3q-5 5 -14 5q-7 0 -15 -2q-19 -6 -53 -30q-32 -25 -54 -47q-13 -13 -20 -21t-14 -21.5t-7 -24.5v-2q0 -8 2 -10.5t9 -2.5h3q22 3 86 36q30 15 56 32q21 12 87 59q45 34 84 75q45 47 58 82l3 17q0 36 -54 36q-56 0 -140 -30q-67 -24 -138 -66
q-137 -80 -241 -208q-86 -104 -113 -198q-10 -39 -10 -72q0 -44 22 -62q21 -19 61 -23h19q34 0 78 9q23 5 46.5 12.5t50.5 17.5q28 11 59.5 25.5t54 26t59 30.5t53.5 28q48 25 100 57q21 12 25 12t4 -4q0 -2 -2 -4t-15.5 -10.5t-33.5 -20t-43 -24.5t-47 -26t-43 -23
q-66 -34 -168 -77q-93 -39 -172 -41q-3 -1 -6 -1h-6q-57 0 -86 30q-25 26 -25 73q0 57 26 121q42 96 145 202q131 136 291 206q31 13 57.5 22.5t54.5 16.5q46 13 81 13q68 0 68 -47q0 -6 -1 -12q-6 -35 -54 -87q-23 -25 -43 -42q-104 -92 -231 -152q-40 -21 -62 -21t-22 26
q0 42 60 95q60 51 108 65q6 2 11 2z" />
    <glyph glyph-name="ccircumflex" unicode="&#x109;" horiz-adv-x="479" 
d="M117 544v-3v-3.5v-2.5q0 -5 -5 -5q-3 0 -6 4.5t-5.5 12.5t-3.5 9q-22 -7 -43 -21q-7 -7 -12 -7t-5 6q0 5 7 9.5t35 17.5q21 10 26 10q4 0 6 -2.5t2 -7.5q1 -1 1 -3t0.5 -3.5t1 -3.5t0.5 -3.5t1 -3.5zM32 262q8 0 8 -7q0 -6 -5 -13t-10 -7q-4 0 -4 6v2.5v1.5q-2 0 -7 -3
q-44 -23 -44 -44q0 -7 10 -7q4 0 9 1q64 13 141 51l8 4t11 5q7 4 10 4q4 0 4 -4t-10 -9q-38 -18 -68 -31q-56 -23 -96 -31q-6 -1 -10 -1q-23 0 -23 19v4q3 21 29 37q31 22 47 22z" />
    <glyph glyph-name="Cdotaccent" unicode="&#x10a;" horiz-adv-x="653" 
d="M752 733q-13 0 -13 13t12 13q4 0 7 -2t5 -5t2 -7q0 -12 -13 -12zM509 538q15 0 15 -11v-3.5v-3.5v-6l-1 1l-1 1l-1 1l-1 1q-5 5 -14 5q-7 0 -15 -2q-20 -6 -53 -30q-32 -25 -55 -47q-40 -42 -40 -67v-2q0 -8 2 -10.5t9 -2.5h3q22 3 85 36q31 15 57 32q12 7 37 24.5
t49 34.5q23 17 44 36t41 39q45 47 58 82l3 17q0 36 -54 36q-56 0 -140 -30q-67 -24 -138 -66q-137 -80 -241 -208q-86 -104 -113 -198q-10 -39 -10 -72q0 -44 22 -62q21 -19 61 -23h19q18 0 37.5 2.5t40.5 6.5q39 9 97 30q27 11 59 25.5t54.5 26t59 30.5t53.5 28
q47 24 101 57q20 12 24 12t4 -4q0 -2 -2 -4t-11.5 -8t-24.5 -14.5t-33.5 -19.5t-38 -21.5t-39 -21.5t-35.5 -19q-66 -34 -168 -77q-93 -39 -172 -41q-6 -1 -12 -1q-57 0 -86 30q-25 26 -25 73q0 57 26 121q42 96 145 202q131 136 291 206q62 27 111 39q47 13 82 13
q68 0 68 -47q0 -6 -1 -12q-6 -35 -54 -87q-23 -25 -43 -42q-104 -92 -231 -152q-13 -7 -20 -10t-19.5 -7t-22.5 -4q-22 0 -22 26q0 42 60 95q60 51 108 65q3 1 5.5 1.5t5.5 0.5z" />
    <glyph glyph-name="cdotaccent" unicode="&#x10b;" horiz-adv-x="151" 
d="M52 298q2 4 9 4q12 0 12 -11q0 -10 -11 -10t-11 11q0 4 1 6zM32 262q8 0 8 -7q0 -6 -5 -13t-10 -7q-4 0 -4 6v2.5v1.5q-2 0 -7 -3q-44 -23 -44 -44q0 -7 10 -7q4 0 9 1q64 13 141 51l8 4t11 5q7 4 10 4q4 0 4 -4t-10 -9q-38 -18 -68 -31q-56 -23 -96 -31q-6 -1 -10 -1
q-23 0 -23 19v4q3 21 29 37q31 22 47 22z" />
    <glyph glyph-name="Ccaron" unicode="&#x10c;" horiz-adv-x="653" 
d="M787 791q16 8 20 8q5 0 5 -4q0 -6 -15 -15q-11 -5 -27 -16q-7 -7 -16 -13t-14 -9t-6 -3v0h-1q-7 2 -10.5 14t-3.5 24q0 8 3 13q3 4 5.5 4t5.5 -4q4 -7 4 -14q0 -17 3 -17q8 2 16 10q4 4 31 22zM509 538q15 0 15 -11q0 -1 -0.5 -3.5t-0.5 -3.5v-6q0 1 -1.5 2.5t-2.5 1.5
q-5 5 -14 5q-3 0 -7 -0.5t-8 -1.5q-19 -6 -52 -30q-33 -25 -55 -47q-40 -42 -40 -67v-2q0 -8 2 -10.5t9 -2.5h3q22 3 85 36q30 15 57 32q20 12 86 59q45 34 85 75q45 47 58 82l3 17q0 10 -4.5 17.5t-12 11t-17 5.5t-20.5 2q-32 0 -66.5 -8t-73.5 -22q-35 -13 -69.5 -29.5
t-68.5 -36.5q-137 -80 -241 -208q-86 -104 -113 -198q-10 -39 -10 -72q0 -44 22 -62q21 -19 61 -23h19q34 0 78 9q39 9 97 30q27 11 59 25.5t54.5 26t58.5 30.5t54 28q46 24 100 57q21 12 25 12t4 -4q0 -2 -2 -4q-6 -6 -69.5 -42t-112.5 -62q-66 -34 -168 -77
q-94 -39 -172 -41q-6 -1 -12 -1q-57 0 -86 30q-25 26 -25 73q0 57 26 121q42 95 145 202q15 16 31 31t33 29.5t34.5 28.5t35.5 27t37 25.5t38.5 23.5t40 21.5t41.5 19.5q62 27 111 39q46 13 82 13q68 0 68 -47q0 -6 -1 -12q-3 -16 -12.5 -33t-18 -27.5t-23.5 -26.5
q-23 -25 -43 -42q-105 -92 -231 -152q-41 -21 -62.5 -21t-21.5 26q0 42 60 95q60 51 108 65z" />
    <glyph glyph-name="ccaron" unicode="&#x10d;" horiz-adv-x="151" 
d="M48 289q-11 5 -11 31q0 6 2.5 9.5t4.5 3.5q3 0 5 -4q3 -6 3 -9q0 -11 2 -14q7 2 12 8q21 15 25 17q13 7 15 7q1 2 1 0q4 -1 4 -4q0 -4 -19 -16q-11 -7 -14 -9q-23 -20 -29 -20h-1zM32 262q8 0 8 -7q0 -6 -5 -13t-10 -7q-4 0 -4 6v2.5v1.5q-2 0 -7 -3q-44 -23 -44 -44
q0 -7 10 -7q4 0 9 1q64 13 141 51l8 4t11 5q7 4 10 4q4 0 4 -4t-10 -9q-38 -18 -68 -31q-56 -23 -96 -31q-6 -1 -10 -1q-23 0 -23 19v4q3 21 29 37q31 22 47 22z" />
    <glyph glyph-name="Dcaron" unicode="&#x10e;" horiz-adv-x="1024" 
d="M1196 839q16 8 20 8q5 0 5 -4q0 -6 -15 -15q-11 -5 -27 -16q-7 -7 -16 -13t-14 -9t-6 -3v0h-1q-7 2 -10.5 14t-3.5 24q0 8 3 13q3 4 5.5 4t5.5 -4q4 -7 4 -14q0 -17 4 -17q7 2 15 10q4 4 31 22zM847 749q27 -16 27 -51v-5.5t-0.5 -6.5t-0.5 -5v-1q103 38 147 48
q70 19 118 19q96 0 105 -72q1 -6 1 -12q0 -24 -14 -58q-19 -48 -75 -117q-103 -124 -281 -234q-133 -80 -260 -117q-71 -19 -136 -19h-4q-84 0 -92 37q-1 5 -1 7l-23 -15q-29 -18 -45.5 -27.5t-30 -16.5t-39.5 -20q-80 -40 -139 -50q-15 -2 -28 -2q-36 0 -49 18q-7 11 -7 25
q0 43 65 109q32 32 92.5 82t116.5 88q72 48 159 102q201 123 348 192q50 22 52 24q5 4 6.5 13t1.5 20q0 18 -14 30q-24 20 -68 20q-16 0 -42 -3q-42 -4 -94 -19q-73 -20 -177 -71q-186 -89 -281 -200q-4 -4 -7 -8q0 2 1 5t1 5q4 14 20 30q130 139 384 231q85 30 146 39
q10 1 14.5 1.5t13 1t15.5 0.5q46 0 74 -17zM433 131l22 -2t23 -1q97 0 210 47q72 29 169 85q75 44 152 109q72 59 127 122q60 73 79 127q11 32 11 54q0 45 -45 56q-19 5 -44 5q-28 0 -70 -7q-15 -3 -31 -6.5t-27.5 -7t-30.5 -9t-27 -8.5t-29.5 -10t-27.5 -9q-1 -1 -12 -5
t-13 -6l-5 -15q-10 -25 -27 -52.5t-41.5 -60t-58.5 -70.5q-135 -152 -294 -263q-46 -32 -48 -36q-1 -2 -1.5 -4t-0.5 -4q0 -10 14 -18.5t26 -10.5zM381 184q2 9 5.5 18t7.5 15.5t8.5 11t7.5 4.5t5 -1t2 -4q0 -2 -1 -3l-4 -4q-1 -2 -2 -3.5t-3 -3.5t-3 -4q-6 -11 -8 -22
q3 3 9 7t13 9t17 12t19.5 14t22.5 16q110 83 213.5 193.5t145.5 190.5q9 18 13 30q-14 -7 -100 -49q-72 -35 -159 -85l-123 -72q-6 -4 -10 -6.5t-16 -9.5q-27 -17 -57 -36q-23 -15 -112 -78q-64 -44 -146 -116q-34 -30 -62.5 -66t-29.5 -60v-4q0 -17 9 -24.5t34 -8.5
q20 0 39.5 4t43.5 13t59 25q60 29 123 68q38 23 39 29z" />
    <glyph glyph-name="dcaron" unicode="&#x10f;" horiz-adv-x="206" 
d="M367 423q5 1 6 1q6 0 6 -6q0 -2 -1 -3.5t-5 -5.5t-9 -7.5t-16 -12.5l-2 -1q-27 -19 -30 -19q-4 0 -4 3v1q1 3 26 25t29 25zM-11 100q0 -3 1 -3t2 0.5t2 0.5q6 0 6 -4q0 -5 -7 -7.5t-13 -2.5q-11 0 -11 11q0 27 103 119q105 90 118 103q-2 -1 -4.5 -3t-5.5 -3.5t-6 -4.5
q-62 -38 -110 -63q-9 -4 -26.5 -14t-27.5 -16q-3 -1 -10.5 -5t-12 -6t-11 -4t-10.5 -2q-13 0 -13 11q0 5 8 14q11 14 30 25.5t30 11.5q5 0 8.5 -2.5t5.5 -6.5t2 -8q73 36 120 66q67 42 92 59q28 18 42 28q14 11 21 11t7 -5.5t-7 -10.5q-10 -5 -47 -33q-68 -51 -167 -140
q-10 -9 -69 -62q-40 -37 -40 -54zM7 242q-14 -7 -27.5 -18.5t-13.5 -16.5v-1q6 1 35 17q24 12 24 20q0 3 -5 3q-6 0 -13 -4z" />
    <glyph glyph-name="Dcroat" unicode="&#x110;" horiz-adv-x="1024" 
d="M847 749q27 -16 27 -51v-5.5t-0.5 -6.5t-0.5 -5v-1q103 38 147 48q70 19 118 19q96 0 105 -72q1 -6 1 -12q0 -24 -14 -58q-19 -48 -75 -117q-103 -124 -281 -234q-133 -80 -260 -117q-71 -19 -136 -19h-4q-84 0 -92 37q-1 5 -1 7l-23 -15q-29 -18 -45.5 -27.5t-30 -16.5
t-39.5 -20q-80 -40 -139 -50q-15 -2 -28 -2q-36 0 -49 18q-7 11 -7 25q0 43 65 109q32 32 92.5 82t116.5 88q72 48 159 102q201 123 348 192q50 22 52 24q5 4 6.5 13t1.5 20q0 18 -14 30q-24 20 -68 20q-16 0 -42 -3q-42 -4 -94 -19q-73 -20 -177 -71q-186 -89 -281 -200
q-4 -4 -7 -8q0 2 1 5t1 5q4 14 20 30q130 139 384 231q85 30 146 39q10 1 14.5 1.5t13 1t15.5 0.5q46 0 74 -17zM1215 619q11 32 11 54q0 44 -45 55q-19 5 -44 5q-28 0 -70 -7q-15 -3 -31 -6.5t-27.5 -6.5t-30.5 -9t-27 -8.5t-29.5 -9.5t-27.5 -9q-1 -1 -12 -5.5t-13 -5.5
l-5 -16q-15 -36 -46 -80t-81 -101q-11 -13 -18 -20q116 0 124 -4l3 -3q0 -6 -11 -6q-16 -1 -39.5 -1.5t-49.5 -0.5h-42q-122 -130 -261 -227q-46 -32 -48 -37q-1 -2 -1.5 -3.5t-0.5 -3.5q0 -11 14 -19.5t26 -10.5q11 -1 22 -1.5t23 -0.5q97 0 210 46q72 30 169 85
q75 44 152 110q72 58 127 121q60 72 79 126zM381 184q2 9 5.5 18t7.5 15.5t8.5 11t7.5 4.5t5 -1t2 -4q0 -2 -1 -3l-4 -4q-1 -2 -2 -3.5t-3 -3.5t-3 -4q-6 -11 -8 -22q3 3 9 7t13 9t17 12t19.5 14t22.5 16q105 79 208 188h-97l-19 -1h-5.5h-5.5q-35 0 -35 6q0 4 9 8
q18 2 168 3q95 103 136 180q9 18 13 30q-14 -7 -100 -49q-72 -35 -159 -85l-123 -72q-6 -4 -10 -6.5t-16 -9.5q-27 -17 -57 -36q-23 -15 -112 -78q-64 -44 -146 -116q-34 -30 -62.5 -66t-29.5 -60v-4q0 -17 9 -24.5t34 -8.5q20 0 39.5 4t43.5 13t59 25q60 29 123 68
q38 23 39 29z" />
    <glyph glyph-name="dcroat" unicode="&#x111;" horiz-adv-x="206" 
d="M181 320h-2h-3h-4h-1h-1q-13 0 -13 4.5t4 6.5q5 2 39 2q6 4 34 22q43 29 57 39q14 11 21 11t7 -5.5t-7 -10.5q-10 -5 -47 -33l-30 -23q20 -2 20 -6q0 -6 -5 -6h-9t-10.5 -0.5t-10.5 -0.5q-36 -28 -105 -89l-86 -77q-40 -37 -40 -54q0 -3 1 -3t2 0.5t2 0.5q6 0 6 -4
q0 -5 -7 -7.5t-13 -2.5q-11 0 -11 11q0 27 103 119l47 40q53 44 73 63q-80 -50 -128 -74q-9 -4 -26.5 -14t-27.5 -16q-3 -1 -10.5 -5t-12 -6t-11 -4t-10.5 -2q-13 0 -13 11q0 5 8 14q11 14 30 25.5t30 11.5q5 0 8.5 -2.5t5.5 -6.5t2 -8q75 37 122 66q12 6 22 13zM7 242
q-14 -7 -27.5 -18.5t-13.5 -16.5v-1q6 1 35 17q24 12 24 20q0 3 -5 3q-6 0 -13 -4z" />
    <glyph glyph-name="Emacron" unicode="&#x112;" horiz-adv-x="458" 
d="M680 790q-1 0 -12 1h-8h-9h-10q-46 -4 -54 -4t-8 6q0 5 8.5 7t33.5 4h1q32 3 44 3q22 0 22 -10q0 -7 -8 -7zM97 180q-54 -37 -54 -75q2 -14 11 -19.5t27 -5.5q30 0 69 14q36 13 134 58q21 10 53 29t69.5 42t55.5 33q2 1 4 1q3 0 7 -6q-15 -9 -34.5 -21t-34.5 -21
t-34.5 -20.5t-35.5 -20.5t-35 -19.5t-37 -18.5q-77 -37 -128 -51q-31 -9 -55 -9q-48 0 -48 36q0 26 28 57q22 22 54 42l-3 1q-30 5 -54 23q-36 27 -36 83q0 26 9 52q20 53 69.5 108.5t103.5 95.5q74 57 134 92q50 30 119.5 57t117.5 34q22 3 39 3q48 0 65 -27q8 -11 8 -26
q0 -28 -26 -64q-16 -21 -45 -48q-59 -53 -106 -83q-127 -79 -171 -79q-6 0 -11.5 1.5t-9 4t-6.5 6t-4 7.5t-1 9q0 30 31 68q49 61 140 114q16 9 24 9t8 -7q0 -3 -6 -5q-5 -2 -8 -3q-63 -36 -98 -66q-58 -49 -75 -98q-2 -7 -2 -12q0 -17 22 -17h6q57 11 157 80q63 43 116 91
q25 23 43 54q12 20 12 35q0 12 -8 22q-15 23 -54 23q-26 0 -69 -11q-29 -7 -83 -28t-90 -39q-26 -14 -54.5 -33t-57.5 -39q-68 -50 -114.5 -94t-80.5 -99q-32 -51 -32 -93q0 -56 48 -79q31 -14 45 -14q3 0 9 4q22 13 53 27q22 11 57.5 23.5t53.5 15.5q3 1 6.5 1.5t8.5 0.5h9
q27 0 27 -13q0 -22 -62 -43q-76 -26 -149 -26q-7 0 -20 -9q-3 -2 -6.5 -4.5t-8 -5.5t-6.5 -5zM334 264q6 6 6 9q0 5 -16 5q-31 0 -68 -14l-29 -11q-30 -10 -81 -39l28 1q37 4 93 19q56 19 67 30z" />
    <glyph glyph-name="emacron" unicode="&#x113;" horiz-adv-x="134" 
d="M77 300q-1 0 -12 1h-8h-9h-10q-46 -4 -54 -4t-8 7q0 5 8.5 6.5t34.5 3.5q32 3 44 3q22 0 22 -8.5t-8 -8.5zM-28 211q-3 0 -6 -5t-3 -9q0 -7 13 -7q17 0 55 13q30 10 91 43l15 8q3 1 7 1h1q3 0 3 -2q0 -3 -7.5 -8.5t-21 -12.5t-14.5 -8q-62 -32 -111 -43q-12 -3 -21 -3
q-23 0 -23 19q0 5 2 11q5 17 43 39q30 17 41 17q10 0 10 -9q0 -7 -8.5 -13t-30.5 -18q-23 -10 -35 -13zM25 249q-17 -7 -35 -19q18 8 35 19z" />
    <glyph glyph-name="Ebreve" unicode="&#x114;" horiz-adv-x="556" 
d="M43 706q0 9 7 9q6 0 9 -11q3 -8 5.5 -10.5t8.5 -2.5q3 0 7 0.5t9 1.5t11 2q7 2 14.5 4.5t13 5t7.5 4.5q3 2 6 2h-1q5 0 5 -5v-2t-1 -2q-2 -7 -27.5 -15t-42.5 -8q-6 0 -10 0.5t-7.5 2t-6 3.5t-3.5 6zM97 180q-54 -37 -54 -75q2 -14 11 -19.5t27 -5.5q30 0 69 14
q36 13 134 58q28 13 99.5 56.5t78.5 47.5q2 1 4 1q4 0 7 -6q-18 -11 -51 -30.5t-54 -32.5t-50.5 -29.5t-55.5 -28.5q-77 -37 -128 -51q-31 -9 -55 -9q-48 0 -48 36q0 26 28 57q22 22 54 42l-3 1q-30 5 -54 23q-36 27 -36 83q0 26 9 52q11 27 31 57t44 57t48.5 49.5
t49.5 40.5q74 57 134 92q50 30 119.5 57t117.5 34q22 3 39 3q48 0 65 -27q8 -11 8 -26q0 -28 -26 -64q-16 -21 -45 -48q-59 -53 -106 -83q-127 -79 -171 -79q-16 0 -24 8t-8 20q0 30 31 68q49 61 140 114q16 9 24 9q3 0 5.5 -1.5t2.5 -5.5q0 -3 -6 -5q-5 -2 -8 -3
q-39 -22 -59 -36t-39 -30q-28 -24 -47 -48.5t-28 -49.5q-2 -7 -2 -12q0 -17 22 -17h6q29 6 73.5 29.5t83.5 50.5q63 43 116 91q25 23 43 54q12 20 12 35q0 12 -8 22q-15 23 -54 23q-26 0 -69 -11q-29 -7 -83 -28t-90 -39q-17 -10 -37.5 -22.5t-38 -24.5t-36.5 -25
q-68 -50 -114.5 -94t-80.5 -99q-32 -51 -32 -93q0 -56 48 -79q31 -14 45 -14q3 0 9 4q22 13 53 27q22 11 57.5 23.5t53.5 15.5q12 2 24 2q27 0 27 -13q0 -22 -62 -43q-76 -26 -149 -26q-7 0 -20 -9q-3 -2 -6.5 -4.5t-8 -5.5t-6.5 -5zM334 264q6 6 6 9q0 5 -16 5
q-31 0 -68 -14l-29 -11q-30 -10 -81 -39l28 1q37 4 93 19q56 19 67 30z" />
    <glyph glyph-name="ebreve" unicode="&#x115;" horiz-adv-x="563" 
d="M36 541q0 9 7 9q6 0 9 -11q3 -8 5.5 -10.5t8.5 -2.5q3 0 7 0.5t9 1.5t11 2q7 2 14.5 4.5t13 5t7.5 4.5q3 2 6 2h-1q5 0 5 -5v-2t-1 -2q-2 -7 -27.5 -15t-42.5 -8q-6 0 -10 0.5t-7.5 2t-6 3.5t-3.5 6zM-28 211q-3 0 -6 -5t-3 -9q0 -7 13 -7q17 0 55 13q30 10 91 43l15 8
q3 1 7 1h1q3 0 3 -2q0 -3 -7.5 -8.5t-21 -12.5t-14.5 -8q-62 -32 -111 -43q-12 -3 -21 -3q-23 0 -23 19q0 5 2 11q5 17 43 39q30 17 41 17q10 0 10 -9q0 -7 -8.5 -13t-30.5 -18q-23 -10 -35 -13zM32 253q-27 -5 -44 -24q31 7 44 24z" />
    <glyph glyph-name="Edotaccent" unicode="&#x116;" horiz-adv-x="458" 
d="M666 780q-13 0 -13 13t12 13q4 0 7 -2t5 -5t2 -7q0 -12 -13 -12zM97 180q-54 -37 -54 -75q2 -14 11 -19.5t27 -5.5q30 0 69 14q36 13 134 58q28 13 99.5 56.5t78.5 47.5q2 1 4 1q4 0 7 -6q-18 -11 -51 -30.5t-54 -32.5t-50.5 -29.5t-55.5 -28.5q-77 -37 -128 -51
q-31 -9 -55 -9q-48 0 -48 36q0 26 28 57q22 22 54 42l-3 1q-30 5 -54 23q-36 27 -36 83q0 26 9 52q11 27 31 57t44 57t48.5 49.5t49.5 40.5q74 57 134 92q50 30 119.5 57t117.5 34q22 3 39 3q48 0 65 -27q8 -11 8 -26q0 -28 -26 -64q-16 -21 -45 -48q-59 -53 -106 -83
q-127 -79 -171 -79q-16 0 -24 8t-8 20q0 30 31 68q49 61 140 114q16 9 24 9q3 0 5.5 -1.5t2.5 -5.5q0 -3 -6 -5q-5 -2 -8 -3q-39 -22 -59 -36t-39 -30q-28 -24 -47 -48.5t-28 -49.5q-2 -7 -2 -12q0 -17 22 -17h6q29 6 73.5 29.5t83.5 50.5q63 43 116 91q25 23 43 54
q12 20 12 35q0 12 -8 22q-15 23 -54 23q-26 0 -69 -11q-29 -7 -83 -28t-90 -39q-17 -10 -37.5 -22.5t-38 -24.5t-36.5 -25q-68 -50 -114.5 -94t-80.5 -99q-32 -51 -32 -93q0 -56 48 -79q31 -14 45 -14q3 0 9 4q22 13 53 27q22 11 57.5 23.5t53.5 15.5q12 2 24 2q27 0 27 -13
q0 -22 -62 -43q-76 -26 -149 -26q-7 0 -20 -9q-3 -2 -6.5 -4.5t-8 -5.5t-6.5 -5zM334 264q6 6 6 9q0 5 -16 5q-31 0 -68 -14l-29 -11q-30 -10 -81 -39l28 1q37 4 93 19q56 19 67 30z" />
    <glyph glyph-name="edotaccent" unicode="&#x117;" horiz-adv-x="134" 
d="M72 268q-13 0 -13 11t11 11q12 0 12 -11t-10 -11zM-28 211q-2 0 -4 -2.5t-3.5 -6t-1.5 -6.5q0 -6 13 -6q17 0 55 13q30 10 91 43l15 8q3 1 7 1t4 -3q0 -2 -3.5 -5t-9 -6l-11 -6t-11.5 -6t-8 -5q-62 -32 -111 -43q-12 -3 -21 -3q-23 0 -23 18q0 5 2 11q5 18 43 40
q30 17 41 17q10 0 10 -10q0 -7 -8.5 -12.5t-30.5 -17.5q-23 -10 -35 -13zM28 251q-18 -6 -38 -20q22 9 38 20z" />
    <glyph glyph-name="Eogonek" unicode="&#x118;" horiz-adv-x="458" 
d="M97 180q-54 -37 -54 -75q2 -14 11 -19.5t27 -5.5q30 0 69 14q36 13 134 58q28 13 99.5 56.5t78.5 47.5q2 1 4 1q4 0 7 -6q-18 -11 -51 -30.5t-54 -32.5t-50.5 -29.5t-55.5 -28.5q-77 -37 -128 -51q-31 -9 -53 -9h-10q-16 -6 -25 -21q-2 -4 -5 -18q0 -7 7 -14q3 -3 3 -5
q0 -5 -8 -5q-5 0 -9 3t-6.5 8.5t-2.5 11.5q0 24 28 43q-10 4 -16 12q-6 9 -6 21q0 26 28 57q22 22 54 42l-3 1q-30 5 -54 23q-36 27 -36 83q0 26 9 52q11 27 31 57t44 57t48.5 49.5t49.5 40.5q74 57 134 92q50 30 119.5 57t117.5 34q22 3 39 3q48 0 65 -27q8 -11 8 -26
q0 -28 -26 -64q-16 -21 -45 -48q-59 -53 -106 -83q-127 -79 -171 -79q-16 0 -24 8t-8 20q0 30 31 68q49 61 140 114q16 9 24 9q3 0 5.5 -1.5t2.5 -5.5q0 -3 -6 -5q-5 -2 -8 -3q-39 -22 -59 -36t-39 -30q-28 -24 -47 -48.5t-28 -49.5q-2 -7 -2 -12q0 -17 22 -17h6
q29 6 73.5 29.5t83.5 50.5q63 43 116 91q25 23 43 54q12 20 12 35q0 12 -8 22q-15 23 -54 23q-26 0 -69 -11q-29 -7 -83 -28t-90 -39q-17 -10 -37.5 -22.5t-38 -24.5t-36.5 -25q-68 -50 -114.5 -94t-80.5 -99q-32 -51 -32 -93q0 -56 48 -79q31 -14 45 -14q3 0 9 4
q22 13 53 27q22 11 57.5 23.5t53.5 15.5q12 2 24 2q27 0 27 -13q0 -22 -62 -43q-76 -26 -149 -26q-7 0 -20 -9q-3 -2 -6.5 -4.5t-8 -5.5t-6.5 -5zM334 264q6 6 6 9q0 5 -16 5q-31 0 -68 -14l-29 -11q-30 -10 -81 -39l28 1q37 4 93 19q56 19 67 30z" />
    <glyph glyph-name="eogonek" unicode="&#x119;" horiz-adv-x="134" 
d="M-28 211q-3 0 -6 -5t-3 -9q0 -7 13 -7q17 0 55 13q30 10 91 43l15 8q3 1 7 1h1q3 0 3 -2q0 -3 -7.5 -8.5t-21 -12.5t-14.5 -8q-62 -32 -111 -43q-13 -3 -22 -3q-6 0 -11 2q-13 -5 -20 -19q-5 -8 -5 -14q0 -7 7 -14q3 -3 3 -4q0 -5 -8 -5q-4 0 -8 2.5t-6.5 8t-2.5 11.5
q0 25 32 41q-3 5 -3 10t2 11q5 17 43 39q30 17 41 17q10 0 10 -9q0 -7 -8.5 -13t-30.5 -18q-23 -10 -35 -13zM25 249q-17 -7 -35 -19q18 8 35 19z" />
    <glyph glyph-name="Ecaron" unicode="&#x11a;" horiz-adv-x="458" 
d="M696 835q16 8 20 8q5 0 5 -4q0 -6 -15 -15q-11 -5 -27 -16q-7 -7 -16 -13t-14 -9t-6 -3v0h-1q-7 2 -10.5 14t-3.5 24q0 8 3 13q3 4 5.5 4t5.5 -4q4 -7 4 -14q0 -17 4 -17q7 2 15 10q4 4 31 22zM97 180q-54 -37 -54 -75q2 -14 11 -19.5t27 -5.5q30 0 69 14q35 13 134 58
q28 13 99 56.5t79 47.5q2 1 4 1q3 0 6 -6q-14 -9 -34 -21l-35 -21t-34 -20.5t-35 -20.5t-35 -19.5t-37 -18.5q-77 -37 -128 -51q-31 -9 -55 -9q-48 0 -48 36q0 26 28 57q22 22 54 42l-3 1q-30 5 -54 23q-36 27 -36 83q0 26 9 52q20 53 69.5 108.5t103.5 95.5q74 57 133 92
q51 30 120 57t118 34q22 3 39 3q48 0 65 -27q8 -11 8 -26q0 -28 -26 -64q-16 -21 -45 -48q-28 -25 -54 -45.5t-52 -37.5q-38 -23 -64.5 -38t-57 -28t-49.5 -13q-16 0 -24 8t-8 20q0 30 31 68q49 61 140 114q16 9 23 9q9 0 9 -7q0 -3 -7 -5q-5 -2 -7 -3q-63 -36 -98 -66
q-28 -24 -47 -48.5t-28 -49.5q-3 -7 -3 -12q0 -17 23 -17h5q58 11 158 80q63 43 116 91q25 23 43 54q12 20 12 35q0 12 -8 22q-15 23 -54 23q-27 0 -70 -11q-28 -7 -82.5 -28t-89.5 -39q-50 -27 -112 -72q-68 -50 -114.5 -94t-80.5 -99q-32 -51 -32 -93q0 -56 48 -79
q31 -14 45 -14q3 0 9 4q11 6 20.5 11.5t15 8t17.5 7.5q14 7 35.5 15.5t42.5 15.5t33 8.5t24 1.5q27 0 27 -13q0 -22 -62 -43q-76 -26 -149 -26q-7 0 -20 -9q-3 -2 -6.5 -4.5t-8 -5.5t-6.5 -5zM334 264q6 6 6 9q0 5 -16 5q-32 0 -68 -14l-29 -11q-30 -10 -81 -39l28 1
q37 4 93 19q56 19 67 30z" />
    <glyph glyph-name="ecaron" unicode="&#x11b;" horiz-adv-x="134" 
d="M108 317q9 4 12 4q4 0 4 -3q0 -5 -11 -10l-19 -11q-20 -15 -26 -15q-10 4 -10 25q0 6 2 9q3 2 4 2q3 0 6 -5q2 -4 2 -7q0 -7 2 -10q4 2 10 6q7 6 24 15zM-28 211q-2 0 -4 -2.5t-3.5 -6t-1.5 -6.5q0 -6 13 -6q17 0 55 13q30 10 91 43l15 8q3 1 7 1t4 -3q0 -2 -3.5 -5
t-9 -6l-11 -6t-11.5 -6t-8 -5q-62 -32 -111 -43q-12 -3 -21 -3q-23 0 -23 18q0 5 2 11q5 18 43 40q30 17 41 17q10 0 10 -10q0 -7 -8.5 -12.5t-30.5 -17.5q-23 -10 -35 -13zM28 251q-18 -6 -38 -20q22 9 38 20z" />
    <glyph glyph-name="Gcircumflex" unicode="&#x11c;" horiz-adv-x="728" 
d="M247 709v-3v-3.5v-2.5q0 -5 -5 -5q-3 0 -6 4.5t-5.5 12.5t-3.5 9q-22 -7 -43 -21q-7 -7 -12 -7t-5 6q0 5 7 9.5t35 17.5q21 10 26 10q4 0 6 -2.5t2 -7.5q1 -1 1 -3t0.5 -3.5t1 -3.5t0.5 -3.5t1 -3.5zM190 21q-43 -21 -64 -21q-9 0 -21 3.5t-12 7.5t4 4q2 0 4 -1
q5 -4 15 -4q4 0 20 2q5 0 9.5 1.5t9.5 3.5t8.5 3.5t9.5 5t8 4.5q52 24 95 55q27 19 57.5 44t50.5 43t56 50t51 46q25 23 83 72l-2 -1q-63 -30 -213 -96q-81 -36 -152 -54q-62 -15 -99 -15q-15 0 -29 2q-37 7 -53 25q-14 20 -14 50q0 32 14 65q16 39 74 100q26 29 92 81
q47 38 125 89q67 43 135 76q110 54 170 70q62 19 108 19q42 0 74 -16q30 -17 30 -48v-2q0 -21 -8.5 -43t-20.5 -39t-31 -35.5t-33.5 -30t-34.5 -26.5q-46 -31 -95 -57q-67 -36 -95 -43q-7 -2 -15 -3.5t-16 -1.5q-22 0 -32 9q-7 8 -7 21q0 8 3.5 17.5t7.5 16.5q16 31 47 59
q52 46 85 55q8 2 11 2q4 0 4 -4t-7 -8h-1q-3 0 -7 -3q-69 -46 -100 -80q-32 -34 -32 -55q0 -10 7 -16q6 -6 18 -6q26 0 66 18q25 10 72 37q34 19 66 41t61 46q68 62 76 119q1 5 1 10q0 14 -7 22q-20 34 -96 34q-38 -1 -105 -20q-86 -29 -173 -76q-175 -93 -305 -209
q-111 -102 -114 -182v-7q0 -34 18 -48q21 -16 68 -16q16 0 33 2q25 3 55 11q69 16 205 75q108 47 159 75q40 20 52 26.5t22 14.5q20 13 43 30q20 14 26 18q10 7 23.5 13.5t22.5 9.5q6 1 8 1q6 0 6 -6q0 -7 -35 -22q-9 -3 -10 -4q-57 -34 -110.5 -76t-121.5 -103
q-12 -11 -53 -48t-60.5 -53.5t-54 -44.5t-66 -47t-64.5 -34z" />
    <glyph glyph-name="gcircumflex" unicode="&#x11d;" horiz-adv-x="615" 
d="M131 544v-3v-3.5v-2.5q0 -5 -5 -5q-3 0 -6 4.5t-5.5 12.5t-3.5 9q-22 -7 -43 -21q-7 -7 -12 -7t-5 6q0 5 7 9.5t35 17.5q21 10 26 10q4 0 6 -2.5t2 -7.5q1 -1 1 -3t0.5 -3.5t1 -3.5t0.5 -3.5t1 -3.5zM191 253q4 2 6 2l2 -1q3 -1 3 -2q0 -4 -4 -6q-125 -75 -211 -111
q-10 -4 -29 -12.5t-29 -12.5q-13 -6 -29 -20l-66 -55l-74 -58l-40 -29q-49 -37 -122 -79q-6 -4 -28.5 -16t-28.5 -15q-30 -14 -45 -20q-19 -6 -45 -8h-7q-11 0 -20 4q-14 7 -14 25q0 12 16 31t46 38q52 33 124 68q37 18 139 63q89 39 135 57q22 8 35 19q15 14 43 36l40 38
l2 2q-27 -15 -33 -15h-2q-8 2 -8 11q0 14 19 33.5t44 32.5q12 6 20 6q15 0 15 -11q0 -2 -1 -5q25 24 27 26q13 13 19 13q4 0 7 -5l-2 -1h2q0 -4 -22 -25l-27 -27q-21 -22 -32 -32l-74 -66q48 20 88 39q61 29 161 88zM13 219q19 13 19 26q0 2 -2 2q-8 0 -32 -16
q-28 -19 -36 -37q-3 -6 -3 -7v-1h1q5 1 23.5 12.5t29.5 20.5zM-567 -177q5 -2 15 -2q16 0 33 4q58 16 161 82q17 11 46 31.5t56 41t40 31.5q36 30 77 66q10 8 13 11q-134 -55 -207 -90q-53 -24 -75 -35q-2 -1 -9.5 -5t-11.5 -6q-4 -1 -40 -21t-43 -25q-41 -26 -54 -46
q-11 -15 -12 -23v-1q0 -8 11 -13z" />
    <glyph glyph-name="Gbreve" unicode="&#x11e;" horiz-adv-x="592" 
d="M804 798q-3 7 -3 16t7 9q5 0 9 -12q2 -7 4.5 -9.5t9.5 -2.5t27 4q24 5 35 13q2 3 5 3q5 0 5 -6q0 -1 -1 -3q-2 -7 -28 -15t-42 -8q-22 0 -28 11zM190 21q-1 0 -6 -3t-7 -3.5t-6.5 -3t-7 -3t-7 -2.5t-7.5 -2.5t-7.5 -1.5t-8 -1.5t-7.5 -0.5q-9 0 -21 3.5t-12 7.5t4 4
q2 0 4 -1q5 -4 15 -4q4 0 20 2q5 0 9.5 1.5t9.5 3.5t8.5 3.5t9.5 5t8 4.5q52 24 95 55q27 19 57.5 44t50.5 43t56 50t51 46q25 23 82 72q0 -1 -1 -1q-63 -30 -213 -96q-81 -36 -152 -54q-62 -15 -99 -15q-15 0 -29 2q-37 7 -53 25q-14 20 -14 50q0 32 14 65q16 39 74 100
q16 18 34.5 34t57.5 47q47 38 125 89q33 21 66.5 40t68.5 36q110 54 170 70q62 19 107 19q43 0 75 -16q30 -17 30 -48v-2q0 -21 -8.5 -43t-20.5 -39t-31 -35.5t-34 -30t-35 -26.5q-46 -31 -95 -57q-66 -36 -95 -43q-14 -5 -31 -5q-22 0 -31 9q-7 8 -7 21q0 17 11 34
q15 31 47 59q51 46 85 55q8 2 10 2q5 0 5 -4t-7 -8h-1q-4 0 -8 -3q-68 -46 -99 -80q-7 -7 -13 -15t-12.5 -19.5t-6.5 -20.5q0 -3 0.5 -6t2 -5.5t4.5 -4.5q5 -6 18 -6q26 0 66 18q25 10 72 37q67 38 127 87q68 62 76 119q1 5 1 10q0 14 -7 22q-20 34 -97 34q-38 -1 -104 -20
q-43 -14 -87 -33.5t-86 -42.5q-175 -93 -305 -209q-111 -102 -114 -182v-7q0 -34 18 -48q21 -16 68 -16q16 0 33 2q25 3 55 11q69 16 205 75q107 47 159 75q58 30 74 41q19 13 43 30q19 14 25 18q24 16 47 23q6 1 8 1t4 -1.5t2 -4.5q0 -7 -36 -22q-9 -3 -10 -4
q-89 -53 -231 -179q-15 -13 -44 -40q-121 -110 -191 -153q-32 -20 -63 -34z" />
    <glyph glyph-name="gbreve" unicode="&#x11f;" horiz-adv-x="190" 
d="M54 325q-3 7 -3 16t7 9q5 0 9 -12q1 -5 2.5 -7.5t4 -3.5t7.5 -1q7 0 27 4q24 5 35 13q2 3 5 3q5 0 5 -6q0 -1 -1 -3q-2 -5 -15 -10.5t-29 -9t-27 -3.5q-21 0 -27 11zM191 253q4 2 6 2q1 0 2 -1q3 -1 3 -3q0 -3 -4 -5q-125 -75 -211 -111q-8 -4 -18.5 -8.5l-21 -9
t-18.5 -7.5q-13 -6 -29 -19l-66 -56l-74 -58l-40 -28q-49 -37 -122 -80q-31 -19 -57 -31q-4 -2 -5.5 -2.5t-5.5 -2.5l-6 -3t-5.5 -2.5t-5.5 -2.5t-5 -2t-6 -2.5t-6 -2.5q-19 -6 -45 -8h-7q-11 0 -20 4q-14 7 -14 26q0 12 16 30q16 19 46 39q52 33 124 67q37 18 139 63
q89 39 135 57q22 8 35 19q15 14 43 36q20 19 40 39q1 0 2 1q-27 -15 -33 -15h-2v1q-8 1 -8 10t9 21.5t23.5 24.5t30.5 20q12 6 20 6q15 0 15 -12q0 -2 -1 -4q25 24 27 26q13 13 19 13q4 0 7 -6q0 -5 -22 -25q-7 -7 -27.5 -28t-31.5 -31l-74 -66q48 20 88 39q61 29 161 88z
M13 220q19 13 19 25q0 3 -2 3q-8 0 -32 -17q-28 -18 -36 -37q-3 -5 -3 -7h1q5 1 23.5 12.5t29.5 20.5zM-567 -177q5 -2 15 -2q16 0 33 4q58 16 161 83q27 16 74 51t68 52q36 30 77 66q9 8 14 12q-135 -56 -208 -91q-53 -23 -75 -35q-11 -5 -21 -11q-4 -1 -40 -21t-43 -25
q-41 -26 -54 -46q-11 -14 -12 -22v-1q0 -9 11 -14z" />
    <glyph glyph-name="Gdotaccent" unicode="&#x120;" horiz-adv-x="592" 
d="M838 764q-13 0 -13 13t12 13q4 0 7 -2t5 -5t2 -7q0 -12 -13 -12zM190 21q-1 -1 -5.5 -3t-6 -2.5t-6 -2.5t-6.5 -3l-6 -3t-7 -2.5t-6.5 -1.5t-6.5 -1.5t-7 -1t-7 -0.5q-9 0 -21 3.5t-12 7.5t4 4q2 0 4 -1q5 -4 15 -4q4 0 20 2q12 1 45 18q52 24 95 55q27 19 57.5 44
t50.5 43t56 50t51 46q12 11 28.5 25t25 21.5t29.5 25.5q-1 -1 -2 -1q-33 -16 -63.5 -30t-46 -21t-52.5 -23t-51 -22q-40 -18 -77 -31t-75 -23q-62 -15 -99 -15q-15 0 -29 2q-37 7 -53 25q-14 20 -14 50q0 32 14 65q16 39 74 100q26 29 92 81q47 38 125 89q33 21 67 40t68 36
q110 54 170 70q62 19 108 19q42 0 74 -16q30 -17 30 -48v-2q0 -27 -11.5 -52.5t-33 -48.5t-40 -38.5t-43.5 -34.5q-23 -15 -47 -29.5t-48 -27.5q-67 -36 -96 -43q-14 -5 -31 -5q-21 0 -31 9q-2 2 -3 4.5l-2 5t-1.5 5.5t-0.5 6q0 17 11 34q16 31 47 59q52 46 85 55q8 2 11 2
q4 0 4 -4t-7 -8h-1q-3 0 -7 -3q-35 -23 -57.5 -40.5t-42.5 -39.5q-7 -7 -13 -15t-12.5 -19.5t-6.5 -20.5q1 -10 7 -16q5 -6 18 -6q26 0 66 18q25 10 72 37q68 38 127 87q68 62 76 119q1 5 1 10q0 14 -7 22q-20 34 -97 34q-24 -1 -47 -5.5t-57 -14.5q-22 -7 -44 -16
t-44 -18.5t-43 -20t-42 -21.5q-175 -93 -305 -209q-111 -102 -114 -182v-7q0 -34 18 -48q21 -16 68 -16q16 0 33 2q25 3 55 11q26 6 51 14t56 20.5t46 18.5t52 22q108 47 159 75q58 30 74 41q19 13 43 30q20 14 26 18q24 16 46 23q6 1 8 1q6 0 6 -6q0 -7 -35 -22
q-4 -1 -7 -2.5l-3 -1.5q-57 -34 -110.5 -76t-121.5 -103q-12 -11 -53 -48t-60.5 -53.5t-54 -44.5t-66 -47t-64.5 -34z" />
    <glyph glyph-name="gdotaccent" unicode="&#x121;" horiz-adv-x="190" 
d="M82 306q-9 0 -9 9t9 9q10 0 10 -9t-10 -9zM191 253q4 2 6 2q1 0 2 -1q3 -1 3 -3q0 -3 -4 -5q-125 -75 -211 -111q-8 -4 -18.5 -8.5l-21 -9t-18.5 -7.5q-13 -6 -29 -19l-66 -56l-74 -58l-40 -28q-49 -37 -122 -80q-31 -19 -57 -31q-4 -2 -5.5 -2.5t-5.5 -2.5l-6 -3
t-5.5 -2.5t-5.5 -2.5t-5 -2t-6 -2.5t-6 -2.5q-19 -6 -45 -8h-7q-11 0 -20 4q-14 7 -14 26q0 12 16 30q16 19 46 39q52 33 124 67q37 18 139 63q89 39 135 57q22 8 35 19q15 14 43 36q20 19 40 39q1 0 2 1q-27 -15 -33 -15h-2v1q-8 1 -8 10t9 21.5t23.5 24.5t30.5 20
q12 6 20 6q15 0 15 -12q0 -2 -1 -4q25 24 27 26q13 13 19 13q4 0 7 -6q0 -5 -22 -25q-7 -7 -27.5 -28t-31.5 -31l-74 -66q48 20 88 39q61 29 161 88zM13 220q19 13 19 25q0 3 -2 3q-8 0 -32 -17q-28 -18 -36 -37q-3 -5 -3 -7h1q5 1 23.5 12.5t29.5 20.5zM-567 -177
q5 -2 15 -2q16 0 33 4q58 16 161 83q27 16 74 51t68 52q36 30 77 66q9 8 14 12q-135 -56 -208 -91q-53 -23 -75 -35q-11 -5 -21 -11q-4 -1 -40 -21t-43 -25q-41 -26 -54 -46q-11 -14 -12 -22v-1q0 -9 11 -14z" />
    <glyph glyph-name="Gcommaaccent" unicode="&#x122;" horiz-adv-x="592" 
d="M190 21q-43 -21 -64 -21q-9 0 -21 3.5t-12 7.5t4 4q2 0 4 -1q5 -4 15 -4q4 0 20 2q5 0 9.5 1.5t9.5 3.5t8.5 3.5t9.5 5t8 4.5q52 24 95 55q27 19 57.5 44t50.5 43t56 50t51 46q25 23 83 72l-2 -1q-63 -30 -213 -96q-81 -36 -152 -54q-62 -15 -99 -15q-15 0 -29 2
q-37 7 -53 25q-14 20 -14 50q0 32 14 65q16 39 74 100q26 29 92 81q47 38 125 89q67 43 135 76q110 54 170 70q62 19 108 19q42 0 74 -16q30 -17 30 -48v-2q0 -21 -8.5 -43t-20.5 -39t-31 -35.5t-33.5 -30t-34.5 -26.5q-46 -31 -95 -57q-67 -36 -95 -43q-7 -2 -15 -3.5
t-16 -1.5q-22 0 -32 9q-7 8 -7 21q0 8 3.5 17.5t7.5 16.5q16 31 47 59q52 46 85 55q8 2 11 2q4 0 4 -4t-7 -8h-1q-3 0 -7 -3q-69 -46 -100 -80q-32 -34 -32 -55q0 -10 7 -16q6 -6 18 -6q26 0 66 18q25 10 72 37q34 19 66 41t61 46q68 62 76 119q1 5 1 10q0 14 -7 22
q-20 34 -96 34q-38 -1 -105 -20q-86 -29 -173 -76q-175 -93 -305 -209q-111 -102 -114 -182v-7q0 -34 18 -48q21 -16 68 -16q16 0 33 2q25 3 55 11q69 16 205 75q108 47 159 75q40 20 52 26.5t22 14.5q20 13 43 30q20 14 26 18q10 7 23.5 13.5t22.5 9.5q6 1 8 1q6 0 6 -6
q0 -7 -35 -22q-9 -3 -10 -4q-57 -34 -110.5 -76t-121.5 -103q-12 -11 -53 -48t-60.5 -53.5t-54 -44.5t-66 -47t-64.5 -34zM16 2q-4 0 -4 4q0 2 10 13q20 24 24 30q8 10 14 11q7 0 7 -7q0 -3 -1 -5q-3 -5 -25 -25.5t-25 -20.5z" />
    <glyph glyph-name="gcommaaccent" unicode="&#x123;" horiz-adv-x="190" 
d="M110 346q5 1 6 1q6 0 6 -5q0 -3 -5.5 -8.5t-25.5 -20.5l-2 -2q-27 -19 -31 -19q-3 0 -3 4q1 3 25.5 25t29.5 25zM191 253q4 2 6 2l2 -1q3 -1 3 -2q0 -4 -4 -6q-125 -75 -211 -111q-10 -4 -29 -12.5t-29 -12.5q-13 -6 -29 -20l-66 -55l-74 -58l-40 -29q-49 -37 -122 -79
q-6 -4 -28.5 -16t-28.5 -15q-30 -14 -45 -20q-19 -6 -45 -8h-7q-11 0 -20 4q-14 7 -14 25q0 12 16 31t46 38q52 33 124 68q37 18 139 63q89 39 135 57q22 8 35 19q15 14 43 36l40 38l2 2q-27 -15 -33 -15h-2q-8 2 -8 11q0 14 19 33.5t44 32.5q12 6 20 6q15 0 15 -11
q0 -2 -1 -5q25 24 27 26q13 13 19 13q4 0 7 -5l-2 -1h2q0 -4 -22 -25l-27 -27q-21 -22 -32 -32l-74 -66q48 20 88 39q61 29 161 88zM13 219q19 13 19 26q0 2 -2 2q-8 0 -32 -16q-28 -19 -36 -37q-3 -6 -3 -7v-1h1q5 1 23.5 12.5t29.5 20.5zM-567 -177q5 -2 15 -2q16 0 33 4
q58 16 161 82q17 11 46 31.5t56 41t40 31.5q36 30 77 66q10 8 13 11q-134 -55 -207 -90q-53 -24 -75 -35q-2 -1 -9.5 -5t-11.5 -6q-4 -1 -40 -21t-43 -25q-41 -26 -54 -46q-11 -15 -12 -23v-1q0 -8 11 -13z" />
    <glyph glyph-name="Hcircumflex" unicode="&#x124;" horiz-adv-x="741" 
d="M199 709v-3v-3.5v-2.5q0 -5 -5 -5q-3 0 -6 4.5t-5.5 12.5t-3.5 9q-22 -7 -43 -21q-7 -7 -12 -7t-5 6q0 5 7 9.5t35 17.5q21 10 26 10q4 0 6 -2.5t2 -7.5q1 -1 1 -3t0.5 -3.5t1 -3.5t0.5 -3.5t1 -3.5zM978 342q93 70 132 70q16 0 16 -10q0 -11 -24.5 -30t-56.5 -36
q-23 -12 -107 -54q-9 -4 -41 -46q-7 -8 -14 -19.5t-13 -25.5t-6 -23q0 -3 1 -6t3 -5q2 -3 2 -5q0 -5 -5 -5q-7 0 -12 10q-1 4 -1 10q0 13 7 31.5t19 37.5t26 35q-6 -3 -22 -8t-21 -7q-14 -5 -29 -9q-39 -12 -52.5 -18t-29.5 -19q-60 -43 -131 -85q-129 -76 -258 -119
q-130 -41 -238 -41h-21q-31 0 -60.5 8.5t-42.5 25.5v1q0 4 4 4q2 0 4 -3q9 -6 22 -10.5t26.5 -7t25 -4t21 -2.5t10.5 -1q36 0 85 5q126 16 273 81q55 24 108.5 54t102.5 64q25 18 26 18q2 2 5.5 4.5t8 5.5t8.5 6t9 6q-36 -10 -148 -35.5t-171 -44.5q-2 0 -28 -7q-3 -1 -6 -1
q-2 -1 -5 0q2 2 3 4t4 4t6.5 3.5t8 3t8.5 2.5t8.5 2.5l7.5 2.5q32 9 71.5 19t71.5 17t74 16.5t72 17.5q23 6 32.5 10t21 12t35.5 28q55 46 97.5 90.5t69 82.5t34.5 68q3 11 3 22q0 36 -36 49q-31 11 -75 11q-22 0 -52 -2q-51 -4 -131 -20q-74 -17 -145.5 -38t-139.5 -45
q-202 -76 -331 -162q-63 -46 -73 -66q-5 -8 -7 -8q-4 0 -4 7q0 4 3 11q6 9 29.5 29.5t43.5 33.5q19 13 59 36.5t56 30.5q84 45 180 82q101 39 243 78q95 24 147 32q16 3 31 5t30.5 4t30.5 2.5t29 0.5q83 0 112 -33q15 -18 15 -42q0 -59 -76 -144q-46 -49 -101 -98
q-24 -21 -52 -47q7 2 39 13q59 18 84 28q33 36 61 57zM1085 371q28 21 28 28q0 1 -3 1q-7 0 -22 -7q-15 -6 -38 -19t-52.5 -35t-48.5 -43q94 46 136 75z" />
    <glyph glyph-name="hcircumflex" unicode="&#x125;" horiz-adv-x="618" 
d="M142 736v-3v-3.5v-2.5q0 -5 -5 -5q-3 0 -6 4.5t-5.5 12.5t-3.5 9q-22 -7 -43 -21q-7 -7 -12 -7t-5 6q0 5 7 9.5t35 17.5q21 10 26 10q4 0 6 -2.5t2 -7.5q1 -1 1 -3t0.5 -3.5t1 -3.5t0.5 -3.5t1 -3.5zM-54 154q4 -1 4 -4q0 -4 -7.5 -7t-11.5 -3q-7 0 -12 7q-4 4 -4 8t3 10
q21 31 53 60q26 26 111 88q145 105 202 138q88 56 109 63q7 3 14 3h1q3 0 5 -2l-2 -1h2q0 -2 -15 -13q-15 -7 -29 -15t-58 -36q-144 -90 -296 -210q-39 -30 -64 -62q-4 -5 -9 -12q2 1 12 8q52 34 120 65q27 11 55 20q7 2 12 2t8 -3q1 0 1.5 -1t0.5 -3q0 -4 -13 -18
q-23 -21 -23 -38q0 -11 11 -11q20 0 52 20q47 28 75 47q2 1 5 1q6 0 6 -4q0 -3 -5 -5l-1 -1q-15 -10 -23 -14q-27 -18 -38.5 -25t-27 -15.5t-25 -11t-19 -2.5t-16 6t-6.5 17q0 6 1.5 11.5t5.5 11t6.5 8.5t7.5 8.5t7 7.5q-10 -3 -26 -9q-29 -9 -79 -36q-40 -22 -58 -33
q-17 -11 -22 -15z" />
    <glyph glyph-name="Hbar" unicode="&#x126;" horiz-adv-x="1015" 
d="M1112 411q14 -1 14 -10q0 -21 -75 -63q8 -2 8 -9q0 -3 -3 -3q-1 0 -3 1h-3h-11h-10q-8 -5 -91 -46q-9 -4 -41 -46q-11 -13 -22 -33.5t-11 -34.5q0 -7 4 -10q2 -3 2 -6q0 -5 -5 -5q-7 0 -12 10q-1 4 -1 10q0 13 7 31.5t19 37.5t26 35q-5 -2 -13 -5t-16.5 -5.5t-13.5 -4.5
q-14 -5 -29 -9q-39 -12 -52.5 -18t-29.5 -19q-60 -43 -131 -85q-129 -76 -258 -118q-130 -41 -238 -41h-21q-31 0 -60.5 8.5t-42.5 25.5v1q0 4 4 4q2 0 4 -3q9 -6 22 -10.5t26.5 -7t25 -4t21 -2.5t10.5 -1q36 0 85 5q126 16 273 81q111 48 211 118q25 18 26 18q8 5 31 21
q-36 -9 -148 -35t-171 -44q-5 -2 -9.5 -3t-10 -2t-8.5 -2t-6 -1q-2 -1 -5 0q1 1 1.5 2t1.5 2q3 4 10.5 7t17.5 6t15 5q54 16 157.5 39t131.5 30l21 6t14.5 5t15 8.5t15.5 12t23 18.5q38 33 54 48q-8 -1 -21 -1q-11 -1 -13 -2h-1q-3 0 -5.5 3t-2.5 5q0 5 20 6h4h13q1 0 3 0.5
t3.5 0.5h3h3h3.5h4q54 53 88.5 99.5t44.5 81.5q3 11 3 22q0 36 -36 49q-31 11 -75 11q-22 0 -52 -2q-51 -4 -131 -20q-74 -17 -145.5 -38t-139.5 -45q-202 -76 -331 -162q-63 -46 -73 -66q-5 -8 -7 -8q-4 0 -4 7q0 4 3 11q6 9 29.5 29.5t43.5 33.5q19 13 59 36.5t56 30.5
q84 45 180 82q101 39 243 78q95 24 147 32q16 3 31 5t30.5 4t30.5 2.5t29 0.5q83 0 112 -33q15 -18 15 -42q0 -59 -76 -144q-32 -35 -53 -54l78 2q4 4 6 5q14 11 32.5 21.5t35 19t31 15.5t24 10.5t10.5 3.5h1zM1085 371q28 21 28 28q0 1 -3 1q-7 0 -22 -7q-7 -3 -17 -8
t-22 -12t-26.5 -16.5t-27.5 -18.5h16h19q29 16 55 33zM980 326q-19 -16 -31 -30q27 13 59 30h-28zM958 325l-77 -3q-4 -4 -9 -8.5t-8.5 -7.5t-8 -7.5t-9.5 -8.5q-15 -13 -29 -26t-23 -21q4 1 9.5 3t9 3.5t11 4t9.5 2.5q59 18 84 28q20 22 41 41z" />
    <glyph glyph-name="hbar" unicode="&#x127;" horiz-adv-x="251" 
d="M315 453q-67 -41 -138 -91h6.5t7 -0.5t6 -1t5 -1.5t2.5 -3q0 -6 -5 -6h-12t-14 -0.5t-12 -0.5q-60 -42 -146 -109q-39 -30 -64 -62q-4 -5 -9 -13q2 2 12 9q52 34 120 65q27 11 55 20q7 2 12 2q6 0 8 -3q2 -2 2 -5q0 -4 -13 -17q-23 -21 -23 -39q0 -10 11 -10q20 0 52 20
q49 29 75 47q2 1 5 1q6 0 6 -5q0 -2 -6 -5q-15 -9 -23 -14q-35 -23 -50 -31.5t-31 -15.5t-29 -7q-9 0 -15.5 6t-6.5 16q0 8 3.5 15.5t6 11t10 11.5t8.5 10q-10 -3 -26 -9q-29 -9 -79 -36q-14 -7 -21 -11t-18 -10.5t-19 -12.5q-17 -10 -22 -15q4 -1 4 -4q0 -4 -7.5 -7
t-11.5 -3q-7 0 -12 7q-4 4 -4 8t3 10q21 31 53 60q16 16 70 57.5t92 67.5h-7h-3h-3h-1h-1q-13 0 -13 4.5t4 6.5t42 2q99 69 133 89q88 56 109 63q7 3 14 3q5 0 6 -3q0 -3 -15 -13l-29 -15q-9 -5 -16.5 -9.5l-12.5 -7.5t-12 -7.5t-13 -8.5z" />
    <glyph glyph-name="Itilde" unicode="&#x128;" horiz-adv-x="338" 
d="M-46 725q-4 0 -8 -3t-10 -8l-3 -3t-3 -1.5t-4 -0.5q-4 0 -6.5 1t-2.5 4q0 9 21 18q8 5 16 5q9 0 18 -7q18 -14 32 -14q5 0 9.5 1.5t10.5 4.5q8 6 14 6q4 0 4 -4l-1 -3q-6 -9 -16 -13.5t-21 -4.5t-20.5 3.5t-17.5 11.5q-6 7 -12 7zM12 81q-2 5 -2 10q0 20 18 36l10 9
q-5 -8 -6 -11q-11 -21 -11 -31q0 -19 19 -30q6 -4 31 -8q8 -1 16 -1q39 0 98 16q110 27 264 133q129 88 259 236q45 52 84 115q42 69 42 111q0 14 -5 23q-11 19 -50 19q-19 0 -45 -5q-29 -5 -58 -13.5t-57 -20.5t-53.5 -25t-52.5 -29t-49 -30t-47 -32q-90 -65 -127 -111
l-2 -3q-1 7 -1 8q0 3 1 6.5t2 5.5t4 5.5t3.5 4t3.5 4.5q51 50 122 97q84 58 153 91q107 51 184 56q7 1 13 1t13 -1q44 0 57 -30q6 -12 6 -28q0 -14 -5 -35q-16 -55 -72.5 -130.5t-145.5 -160.5q-43 -43 -75 -70q-157 -129 -317 -190q-72 -27 -144 -30q-34 0 -54 10
q-20 13 -24 28z" />
    <glyph glyph-name="itilde" unicode="&#x129;" horiz-adv-x="257" 
d="M-86 560q-4 0 -8 -3t-10 -8l-3 -3t-3 -1.5t-4 -0.5q-4 0 -6.5 1t-2.5 4q0 9 21 18q8 5 16 5q9 0 18 -7q18 -14 32 -14q5 0 9.5 1.5t10.5 4.5q8 6 14 6q4 0 4 -4l-1 -3q-6 -9 -16 -13.5t-21 -4.5t-20.5 3.5t-17.5 11.5q-6 7 -12 7zM9 240q-17 -9 -31 -23t-14 -21
q0 -4 8 -4q15 0 63 16q24 7 110 42l12 5q3 1 6 1q5 0 5 -3t-2 -5q-3 -2 -9 -4q-102 -40 -121 -47q-37 -12 -53 -15q-7 -1 -17 -1h-7q-9 2 -9 12q0 8 4 17q7 12 23.5 26.5t31.5 19.5q2 1 4 1q7 0 7 -7q0 -2 -2 -4t-5.5 -3.5t-3.5 -2.5z" />
    <glyph glyph-name="Imacron" unicode="&#x12a;" horiz-adv-x="648" 
d="M850 761q-1 0 -12 1h-5h-6h-6h-10q-46 -4 -54 -4t-8 6q0 5 8.5 7t34.5 4q32 3 44 3q22 0 22 -10q0 -7 -8 -7zM12 81q-2 5 -2 10q0 20 18 36l10 9q-5 -8 -6 -11q-11 -21 -11 -31q0 -19 19 -30q6 -4 31 -8q8 -1 16 -1q39 0 98 16q110 27 264 133q128 88 259 236
q45 52 84 115q42 69 42 111q0 14 -5 23q-11 19 -50 19q-19 0 -45 -5q-79 -13 -156 -52.5t-161 -97.5q-90 -65 -127 -111l-2 -3q-1 7 -1 8q0 3 1 6.5t2 5.5t4 5.5t3.5 4t3.5 4.5q51 50 121 97q85 58 154 91q107 51 184 56q7 1 13 1t13 -1q44 0 57 -30q6 -12 6 -28
q0 -14 -5 -35q-16 -55 -72.5 -130.5t-145.5 -160.5q-43 -43 -75 -70q-157 -129 -317 -190q-72 -27 -144 -30q-34 0 -54 10q-20 13 -24 28z" />
    <glyph glyph-name="imacron" unicode="&#x12b;" horiz-adv-x="156" 
d="M90 294q-1 -6 -8 -6h-3.5h-4.5h-6h-6h-8q-33 -3 -39 -3q-1 0 -4 2q-2 3 -2 5q0 5 25 7h7q24 2 33 2q16 0 16 -7zM9 240q-17 -9 -31 -22.5t-14 -20.5q0 -5 8 -5q15 0 63 16q24 7 112 42l12 5q3 1 6 1h1q4 0 4 -2q0 -4 -2 -5q-3 -3 -9 -5q-16 -6 -37.5 -15t-39 -15.5
t-45.5 -16.5q-38 -12 -54 -15q-7 -1 -17 -1h-7q-9 2 -9 13q0 8 4 16q7 13 23.5 27t31.5 19q2 1 4 1q7 0 7 -5q0 -4 -1.5 -5.5t-5.5 -3.5t-4 -3z" />
    <glyph glyph-name="Ibreve" unicode="&#x12c;" horiz-adv-x="338" 
d="M-88 706q0 9 7 9q6 0 9 -11q3 -8 5.5 -10.5t8.5 -2.5q3 0 7 0.5t9 1.5t11 2q7 2 14.5 4.5t13 5t7.5 4.5q3 2 6 2h-1q5 0 5 -5v-2t-1 -2q-2 -7 -27.5 -15t-42.5 -8q-6 0 -10 0.5t-7.5 2t-6 3.5t-3.5 6zM12 81q-2 5 -2 10q0 20 18 36l10 9q-5 -8 -6 -11q-11 -21 -11 -31
q0 -19 19 -30q6 -4 31 -8q8 -1 16 -1q39 0 98 16q110 27 264 133q129 88 259 236q45 52 84 115q42 69 42 111q0 14 -5 23q-11 19 -50 19q-19 0 -45 -5q-29 -5 -58 -13.5t-57 -20.5t-53.5 -25t-52.5 -29t-49 -30t-47 -32q-90 -65 -127 -111l-2 -3q-1 7 -1 8q0 3 1 6.5t2 5.5
t4 5.5t3.5 4t3.5 4.5q51 50 122 97q84 58 153 91q107 51 184 56q7 1 13 1t13 -1q44 0 57 -30q6 -12 6 -28q0 -14 -5 -35q-16 -55 -72.5 -130.5t-145.5 -160.5q-43 -43 -75 -70q-157 -129 -317 -190q-72 -27 -144 -30q-34 0 -54 10q-20 13 -24 28z" />
    <glyph glyph-name="ibreve" unicode="&#x12d;" horiz-adv-x="257" 
d="M-130 541q0 9 7 9q6 0 9 -11q3 -8 5.5 -10.5t8.5 -2.5q3 0 7 0.5t9 1.5t11 2q7 2 14.5 4.5t13 5t7.5 4.5q3 2 6 2h-1q5 0 5 -5v-2t-1 -2q-2 -7 -27.5 -15t-42.5 -8q-6 0 -10 0.5t-7.5 2t-6 3.5t-3.5 6zM9 240q-17 -9 -31 -23t-14 -21q0 -4 8 -4q15 0 63 16q24 7 110 42
l12 5q3 1 6 1q5 0 5 -3t-2 -5q-3 -2 -9 -4q-102 -40 -121 -47q-37 -12 -53 -15q-7 -1 -17 -1h-7q-9 2 -9 12q0 8 4 17q7 12 23.5 26.5t31.5 19.5q2 1 4 1q7 0 7 -7q0 -2 -2 -4t-5.5 -3.5t-3.5 -2.5z" />
    <glyph glyph-name="Iogonek" unicode="&#x12e;" horiz-adv-x="648" 
d="M234 78q-72 -27 -144 -30q-4 0 -10 0.5t-9 0.5q-1 -1 -2 -1q-21 -8 -33 -29q-7 -13 -7 -22t10 -18q3 -4 3 -6q0 -5 -9 -5t-16 8t-7 21v6q3 25 39 49l1 1q-8 2 -14 5q-20 13 -24 27q-2 5 -2 10q0 21 18 36q5 5 10 9q-5 -8 -6 -11q-11 -21 -11 -31q0 -19 19 -30q6 -3 31 -7
q8 -1 16 -1q39 0 98 15q110 27 264 132q129 88 259 235q20 22 44 55t40 59q42 69 42 111q0 14 -5 22q-11 19 -50 19q-19 0 -45 -5q-79 -13 -156 -52t-161 -97q-29 -22 -46.5 -35t-40.5 -34t-40 -42l-2 -3q-1 7 -1 8q0 10 14 26q27 26 57 49.5t65 46.5q84 58 153 91
q107 51 184 56q7 1 13 1t13 -1q44 0 57 -30q6 -12 6 -28q0 -14 -5 -35q-16 -54 -72.5 -129t-145.5 -160q-9 -9 -18 -17.5t-18.5 -17.5t-19.5 -17.5t-19 -16.5q-157 -128 -317 -188z" />
    <glyph glyph-name="iogonek" unicode="&#x12f;" horiz-adv-x="154" 
d="M66 276q-10 0 -10 10q0 9 10 9t10 -10q0 -9 -10 -9zM9 240q-17 -9 -31 -23t-14 -21q0 -4 8 -4q15 0 63 16q24 7 110 42l12 5q3 1 6 1q5 0 5 -3t-2 -5q-3 -2 -9 -4q-102 -40 -121 -47q-37 -12 -53 -15h-1l-1.5 -0.5t-2.5 -0.5q-7 -3 -12 -12q-1 -2 -3 -11q0 -5 4 -9
q2 -1 2 -3q0 -4 -6 -4q-5 0 -8.5 4.5t-3.5 10.5q0 13 12 24h-2h-2q-9 2 -9 12q0 8 4 17q7 12 23.5 26.5t31.5 19.5q2 1 4 1q7 0 7 -7q0 -2 -2 -4t-5.5 -3.5t-3.5 -2.5z" />
    <glyph glyph-name="Idotaccent" unicode="&#x130;" horiz-adv-x="648" 
d="M822 751q-14 0 -14 13t12 13q4 0 7 -2t5 -5t2 -7q0 -12 -12 -12zM12 81q-2 5 -2 10q0 20 18 36l10 9q-5 -8 -6 -11q-11 -21 -11 -31q0 -19 19 -30q6 -4 31 -8q8 -1 16 -1q39 0 98 16q110 27 264 133q129 88 259 236q45 52 84 115q42 69 42 111q0 14 -5 23q-11 19 -50 19
q-19 0 -45 -5q-29 -5 -58 -13.5t-57 -20.5t-53.5 -25t-52.5 -29t-49 -30t-47 -32q-90 -65 -127 -111l-2 -3q-1 7 -1 8q0 3 1 6.5t2 5.5t4 5.5t3.5 4t3.5 4.5q51 50 122 97q84 58 153 91q107 51 184 56q7 1 13 1t13 -1q44 0 57 -30q6 -12 6 -28q0 -14 -5 -35
q-16 -55 -72.5 -130.5t-145.5 -160.5q-43 -43 -75 -70q-157 -129 -317 -190q-72 -27 -144 -30q-34 0 -54 10q-20 13 -24 28z" />
    <glyph glyph-name="dotlessi" unicode="&#x131;" horiz-adv-x="154" 
d="M9 240q-17 -9 -31 -23t-14 -21q0 -4 8 -4q15 0 63 16q24 7 110 42l12 5q3 1 6 1q5 0 5 -3t-2 -5q-3 -2 -9 -4q-102 -40 -121 -47q-37 -12 -53 -15q-7 -1 -17 -1h-7q-9 2 -9 12q0 8 4 17q7 12 23.5 26.5t31.5 19.5q2 1 4 1q7 0 7 -7q0 -2 -2 -4t-5.5 -3.5t-3.5 -2.5z" />
    <glyph glyph-name="IJ" unicode="&#x132;" horiz-adv-x="611" 
d="M12 81q-2 5 -2 10q0 20 18 36l10 9q-5 -8 -6 -11q-11 -21 -11 -31q0 -19 19 -30q6 -4 31 -8q8 -1 16 -1q39 0 98 16q110 27 264 133q129 88 259 236q45 52 84 115q42 69 42 111q0 14 -5 23q-11 19 -50 19q-19 0 -45 -5q-29 -5 -58 -13.5t-57 -20.5t-53.5 -25t-52.5 -29
t-49 -30t-47 -32q-90 -65 -127 -111l-2 -3q-1 7 -1 8q0 3 1 6.5t2 5.5t4 5.5t3.5 4t3.5 4.5q51 50 122 97q84 58 153 91q107 51 184 56q7 1 13 1t13 -1q44 0 57 -30q6 -12 6 -28q0 -14 -5 -35q-16 -55 -72.5 -130.5t-145.5 -160.5q-43 -43 -75 -70q-157 -129 -317 -190
q-72 -27 -144 -30q-34 0 -54 10q-20 13 -24 28zM454 354q4 0 4 -3q-1 -6 -9 -6q-11 0 -11 11q0 18 37 54q52 51 150 114q86 55 190 95t176 40q83 0 95 -57q2 -9 2 -18q0 -40 -34 -97q-36 -59 -78 -104q-6 -7 -26 -27.5t-45.5 -46.5t-51 -51t-39.5 -35q16 3 36.5 6.5
t40.5 6.5t36 6q19 4 27 5.5t18 3t21 3.5q12 2 19 4q4 1 5 1q4 0 4 -4q0 -2 -1 -3.5t-4 -2.5l-4.5 -1.5t-5.5 -1.5t-5 -1q-29 -5 -97.5 -17.5t-103.5 -18.5q-3 -1 -7.5 -3.5t-14.5 -9.5t-29 -20q-55 -39 -96 -63q-55 -32 -111.5 -58t-117 -43.5t-105.5 -17.5q-22 0 -39 4
q-39 10 -39 35q0 6 3 13q11 27 65 49t152 48q146 38 309 70q14 3 69 52.5t89 85.5q33 34 53.5 57t44.5 57.5t37 66.5q13 33 13 56q0 59 -85 59q-66 0 -149 -29q-128 -46 -231 -114q-52 -34 -105 -79q-26 -22 -40 -40t-14 -26q0 -3 2 -5zM295 8q8 -1 19 -1q45 0 113.5 21
t117.5 46q53 27 85.5 46t123.5 79q-1 -1 -3 -1t-3.5 -0.5t-3.5 -1t-4 -0.5q-187 -41 -275 -65t-155 -51q-16 -7 -28.5 -15.5t-19 -16.5t-6.5 -16q0 -18 39 -24z" />
    <glyph glyph-name="ij" unicode="&#x133;" horiz-adv-x="514" 
d="M51 285q7 0 7 -7q0 -4 -4.5 -7.5t-7.5 -3.5q-6 0 -6 6q0 2 1.5 4t4 4.5t3.5 2.5q1 1 2 1zM9 240q-17 -9 -31 -23t-14 -21q0 -4 8 -4q15 0 63 16q24 7 110 42l12 5q3 1 6 1q5 0 5 -3t-2 -5q-3 -2 -9 -4q-102 -40 -121 -47q-37 -12 -53 -15q-7 -1 -17 -1h-7q-9 2 -9 12
q0 8 4 17q7 12 23.5 26.5t31.5 19.5q2 1 4 1q7 0 7 -7q0 -2 -2 -4t-5.5 -3.5t-3.5 -2.5zM333 315q0 -4 -4.5 -8t-7.5 -4q-6 0 -6 7q0 2 1 3.5t2.5 2.5t3 2.5l2.5 2.5h2q7 0 7 -6zM283 274q10 12 14 12q5 0 5 -9q0 -7 -18 -26.5t-65 -65.5q-6 -5 -9 -8q-7 -7 -22 -21
q51 21 85 37q33 15 97 50q4 2 6 2q4 0 4 -2q0 -6 -11 -11l-26 -15q-7 -4 -45 -23l-67 -30q-41 -18 -54 -25.5t-30 -20.5q-2 -1 -12 -9q-81 -69 -168 -132q-126 -93 -228 -129q-29 -10 -50 -10q-36 0 -36 24q0 33 62 76q52 33 124 67q48 22 140 63q81 36 135 57q26 10 38 19
q28 24 75 72l11 11l13 13l11.5 11.5t10.5 11.5q1 1 3 3.5t4 4.5zM-324 -110q-10 -16 -10 -26q0 -13 28 -13q8 0 19 1q60 13 173 84q97 66 141 105q36 27 94 77q-53 -20 -148 -62.5t-138 -63.5q-44 -20 -91.5 -49t-67.5 -53z" />
    <glyph glyph-name="Jcircumflex" unicode="&#x134;" horiz-adv-x="272" 
d="M-32 709v-3v-3.5v-2.5q0 -5 -5 -5q-3 0 -6 4.5t-5.5 12.5t-3.5 9q-22 -7 -43 -21q-7 -7 -12 -7t-5 6q0 5 7 9.5t35 17.5q21 10 26 10q4 0 6 -2.5t2 -7.5q1 -1 1 -3t0.5 -3.5t1 -3.5t0.5 -3.5t1 -3.5zM115 354q4 0 4 -3q-1 -6 -9 -6q-11 0 -11 11q0 18 37 54
q52 51 150 114q86 55 190 95t176 40q83 0 95 -57q2 -9 2 -18q0 -40 -34 -97q-36 -59 -78 -104q-6 -7 -26 -27.5t-45.5 -46.5t-51 -51t-39.5 -35q16 3 36.5 6.5t40.5 6.5t36 6q19 4 27 5.5t18 3t21 3.5q12 2 19 4q4 1 5 1q4 0 4 -4q0 -2 -1 -3.5t-4 -2.5l-4.5 -1.5t-5.5 -1.5
t-5 -1q-29 -5 -97.5 -17.5t-103.5 -18.5q-3 -1 -7.5 -3.5t-14.5 -9.5t-29 -20q-55 -39 -96 -63q-55 -32 -111.5 -58t-117 -43.5t-105.5 -17.5q-22 0 -39 4q-39 10 -39 35q0 6 3 13q11 27 65 49t152 48q146 38 309 70q14 3 69 52.5t89 85.5q33 34 53.5 57t44.5 57.5t37 66.5
q13 33 13 56q0 59 -85 59q-66 0 -149 -29q-128 -46 -231 -114q-52 -34 -105 -79q-26 -22 -40 -40t-14 -26q0 -3 2 -5zM-44 8q8 -1 19 -1q45 0 113.5 21t117.5 46q53 27 85.5 46t123.5 79q-1 -1 -3 -1t-3.5 -0.5t-3.5 -1t-4 -0.5q-187 -41 -275 -65t-155 -51
q-16 -7 -28.5 -15.5t-19 -16.5t-6.5 -16q0 -18 39 -24z" />
    <glyph glyph-name="jcircumflex" unicode="&#x135;" horiz-adv-x="257" 
d="M-43 544v-3v-3.5v-2.5q0 -5 -5 -5q-3 0 -6 4.5t-5.5 12.5t-3.5 9q-22 -7 -43 -21q-7 -7 -12 -7t-5 6q0 5 7 9.5t35 17.5q21 10 26 10q4 0 6 -2.5t2 -7.5q1 -1 1 -3t0.5 -3.5t1 -3.5t0.5 -3.5t1 -3.5zM22 -240q-46 0 -77 12v71q34 -10 66 -10q38 0 56 21t18 63v619h88
v-616q0 -80 -38.5 -120t-112.5 -40z" />
    </font>
</defs>
</svg>
