<?xml version="1.0" standalone="no"?>
<!DOCTYPE svg PUBLIC "-//W3C//DTD SVG 1.1//EN" "http://www.w3.org/Graphics/SVG/1.1/DTD/svg11.dtd" >
<svg xmlns="http://www.w3.org/2000/svg" xmlns:xlink="http://www.w3.org/1999/xlink" version="1.1">
<metadata>
Created by FontForge 20190801 at Mon Feb  8 12:14:47 2021
 By root
Genome is a trademark of Alfredo Marco Pradil (c)2015
</metadata>
<defs>
<font id="Genome-Thin" horiz-adv-x="270" >
  <font-face 
    font-family="Genome Thin"
    font-weight="250"
    font-stretch="normal"
    units-per-em="1000"
    panose-1="0 0 3 0 0 0 0 0 0 0"
    ascent="740"
    descent="-260"
    x-height="485"
    cap-height="690"
    bbox="-213 -241 1280 1046"
    underline-thickness="50"
    underline-position="-170"
    unicode-range="U+0001-206F"
  />
<missing-glyph horiz-adv-x="364" 
d="M33 0v666h265v-666h-265zM66 33h199v600h-199v-600z" />
    <glyph glyph-name=".notdef" horiz-adv-x="364" 
d="M33 0v666h265v-666h-265zM66 33h199v600h-199v-600z" />
    <glyph glyph-name="uni0000" 
 />
    <glyph glyph-name="uni0000" 
 />
    <glyph glyph-name="uni000D" unicode="&#xd;" 
 />
    <glyph glyph-name="uni0001" 
 />
    <glyph glyph-name="uni0002" 
 />
    <glyph glyph-name="uni0003" 
 />
    <glyph glyph-name="uni0004" 
 />
    <glyph glyph-name="uni0005" 
 />
    <glyph glyph-name="uni0006" 
 />
    <glyph glyph-name="uni0007" 
 />
    <glyph glyph-name="uni0008" 
 />
    <glyph glyph-name="uni0009" unicode="&#x9;" 
 />
    <glyph glyph-name="uni000A" unicode="&#xa;" 
 />
    <glyph glyph-name="uni000B" 
 />
    <glyph glyph-name="uni000C" 
 />
    <glyph glyph-name="uni000E" 
 />
    <glyph glyph-name="uni000F" 
 />
    <glyph glyph-name="uni0010" 
 />
    <glyph glyph-name="uni0011" 
 />
    <glyph glyph-name="uni0012" 
 />
    <glyph glyph-name="uni0013" 
 />
    <glyph glyph-name="uni0014" 
 />
    <glyph glyph-name="uni0015" 
 />
    <glyph glyph-name="uni0016" 
 />
    <glyph glyph-name="uni0017" 
 />
    <glyph glyph-name="uni0018" 
 />
    <glyph glyph-name="uni0019" 
 />
    <glyph glyph-name="uni001A" 
 />
    <glyph glyph-name="uni001B" 
 />
    <glyph glyph-name="uni001C" 
 />
    <glyph glyph-name="uni001D" 
 />
    <glyph glyph-name="uni001E" 
 />
    <glyph glyph-name="uni001F" 
 />
    <glyph glyph-name="space" unicode=" " 
 />
    <glyph glyph-name="exclam" unicode="!" horiz-adv-x="190" 
d="M105 740v-535h-20v535h20zM105 99v-99h-20v99h20z" />
    <glyph glyph-name="quotedbl" unicode="&#x22;" horiz-adv-x="290" 
d="M105 690v-198h-20v198h20zM205 690v-198h-20v198h20z" />
    <glyph glyph-name="numbersign" unicode="#" horiz-adv-x="804" 
d="M590 495h184l-7 -20h-184l-89 -248h184l-7 -20h-184l-74 -207h-21l74 207h-230l-74 -207h-21l74 207h-185l7 20h185l89 248h-185l7 20h185l69 195h22l-70 -195h230l69 195h22zM473 227l89 248h-230l-89 -248h230z" />
    <glyph glyph-name="dollar" unicode="$" horiz-adv-x="592" 
d="M306 680v-322q30 -7 42 -10t39 -10.5t39.5 -13.5t33 -16.5t30.5 -22.5t21.5 -28t16 -36.5t4.5 -44.5q0 -95 -63.5 -140.5t-162.5 -45.5v-70h-20v71q-184 8 -236 175l19 6q49 -153 217 -161v331q-37 9 -60 15.5t-52.5 20.5t-46 30.5t-28 43.5t-11.5 61q0 83 57 133.5
t141 53.5v70h20v-70q79 -2 135 -43t79 -117l-20 -6q-20 70 -71 107t-123 39zM286 363v317q-76 -3 -127 -47.5t-51 -119.5q0 -37 13.5 -63t41.5 -42.5t54.5 -26t68.5 -18.5zM306 338v-328q90 0 148 39.5t58 126.5q0 33 -12.5 59t-29 41t-48 28t-54 19t-62.5 15z" />
    <glyph glyph-name="percent" unicode="%" horiz-adv-x="618" 
d="M271 574q0 -52 -27.5 -89t-80.5 -37q-54 0 -81 37t-27 89t27 89t81 37q53 0 80.5 -37t27.5 -89zM424 690h21l-251 -690h-21zM251 574q0 45 -22 76t-66 31t-66 -31t-22 -76t22 -76t66 -31t66 31t22 76zM563 126q0 -52 -27 -89t-81 -37q-53 0 -80.5 37t-27.5 89t27.5 89
t80.5 37q54 0 81 -37t27 -89zM543 126q0 45 -22 76t-66 31t-66 -31t-22 -76t22 -76t66 -31t66 31t22 76z" />
    <glyph glyph-name="ampersand" unicode="&#x26;" horiz-adv-x="621" 
d="M529 339l20 -2q-10 -124 -65 -210l112 -130l-15 -14q-55 66 -109 127q-88 -120 -231 -120q-72 0 -122 30t-65 96q-4 13 -4 32q0 29 15 58.5t31.5 50t51 47.5t49.5 37.5t51 33.5q-3 4 -27 31.5t-31.5 38.5t-23 34t-21 43.5t-5.5 41.5q0 63 46 99.5t110 36.5
q59 0 100.5 -38.5t41.5 -97.5q0 -18 -4.5 -35.5t-9.5 -30t-18 -27.5t-20 -23t-26.5 -22.5t-25 -18.5t-29 -19.5t-27.5 -17.5q36 -44 104 -123.5t88 -103.5q49 80 59 196zM418 564q0 50 -35.5 83t-86.5 33q-56 0 -96 -30.5t-40 -85.5q0 -19 6 -38t20.5 -41t22.5 -33
t30.5 -36.5t25.5 -29.5q5 3 28.5 18t31.5 20.5t27 20t27 25t19.5 26t15.5 32.5t4 36zM459 126q-138 161 -198 233q-33 -21 -48 -31t-48 -35t-49.5 -44.5t-31 -47t-14.5 -53.5q0 -14 3 -28q28 -110 168 -110q66 0 122.5 30.5t95.5 85.5z" />
    <glyph glyph-name="quotesingle" unicode="'" horiz-adv-x="190" 
d="M105 690v-198h-20v198h20z" />
    <glyph glyph-name="parenleft" unicode="(" horiz-adv-x="281" 
d="M271 -134v-20q-79 0 -134 129q-52 123 -52 328q0 183 52 308q55 129 134 129v-20q-31 0 -61 -30q-31 -30 -54 -87q-51 -120 -51 -320q0 -106 24.5 -220t80.5 -167q30 -30 61 -30z" />
    <glyph glyph-name="parenright" unicode=")" horiz-adv-x="281" 
d="M10 720v20q79 0 134 -129q52 -125 52 -308q0 -205 -52 -328q-55 -129 -134 -129v20q31 0 61 30q56 53 80.5 167t24.5 220q0 200 -51 320q-23 57 -54 87q-30 30 -61 30z" />
    <glyph glyph-name="asterisk" unicode="*" horiz-adv-x="367" 
d="M334 594l11 -34l-154 -27l103 -129l-28 -21l-82 144l-82 -144l-29 21l103 129l-154 27l11 34l146 -52l-13 148h35l-13 -148z" />
    <glyph glyph-name="plus" unicode="+" horiz-adv-x="375" 
d="M355 253v-20h-157v-158h-20v158h-158v20h158v157h20v-157h157z" />
    <glyph glyph-name="comma" unicode="," horiz-adv-x="210" 
d="M120 99v-99q0 -39 -12 -60.5t-48 -21.5v19q15 0 23.5 4.5t12 16t4 19t0.5 23.5v99h20z" />
    <glyph glyph-name="hyphen" unicode="-" horiz-adv-x="345" 
d="M325 253v-20h-305v20h305z" />
    <glyph glyph-name="period" unicode="." horiz-adv-x="190" 
d="M105 99v-99h-20v99h20z" />
    <glyph glyph-name="slash" unicode="/" horiz-adv-x="277" 
d="M288 747l19 -7l-318 -874l-19 7z" />
    <glyph glyph-name="zero" unicode="0" horiz-adv-x="628" 
d="M558 345q0 -62 -12.5 -120.5t-39 -113t-76 -88t-116.5 -33.5t-116.5 33.5t-76 88t-39 113t-12.5 120.5t12.5 120.5t39 113t76 88t116.5 33.5t116.5 -33.5t76 -88t39 -113t12.5 -120.5zM538 345q0 57 -11 112t-35 107t-70 84t-108 32t-108 -32t-70 -84t-35 -107t-11 -112
t11 -112t35 -107t70 -84t108 -32t108 32t70 84t35 107t11 112z" />
    <glyph glyph-name="one" unicode="1" horiz-adv-x="384" 
d="M264 690v-690h-20v669l-191 -160l-13 16l199 165h25z" />
    <glyph glyph-name="two" unicode="2" horiz-adv-x="557" 
d="M502 20v-20h-447q9 55 36.5 102t63 80.5t76.5 64t80.5 59.5t71.5 59.5t51.5 71t19.5 88.5q0 69 -46.5 112t-116.5 43q-88 0 -138 -58t-56 -148l-20 2q7 98 62.5 161t151.5 63q78 0 130.5 -49t52.5 -126q0 -49 -19 -91t-50.5 -74t-69.5 -61.5t-78.5 -59t-76 -60
t-63.5 -71.5t-38 -88h423z" />
    <glyph glyph-name="three" unicode="3" horiz-adv-x="586" 
d="M124 530h-20q0 81 52.5 125.5t134.5 44.5q81 0 133.5 -45t52.5 -125q0 -57 -29 -99t-82 -60q70 -17 110 -66t40 -120q0 -94 -64.5 -144.5t-160.5 -50.5q-97 0 -161.5 50.5t-64.5 144.5h20q0 -85 59 -130t147 -45t146.5 45t58.5 130q0 84 -58 129.5t-144 45.5h-14v20h14
q71 0 117 39.5t46 110.5q0 72 -46.5 111t-119.5 39q-74 0 -120.5 -39t-46.5 -111z" />
    <glyph glyph-name="four" unicode="4" horiz-adv-x="556" 
d="M521 208v-20h-130v-188h-20v188h-361l381 533v-513h130zM49 208h322v451z" />
    <glyph glyph-name="five" unicode="5" horiz-adv-x="561" 
d="M155 670l-54 -310q67 76 167 76q92 0 157.5 -65.5t65.5 -157.5t-65.5 -157.5t-157.5 -65.5q-79 0 -140.5 50t-77.5 127l20 5q14 -71 70 -116.5t128 -45.5q84 0 143.5 59.5t59.5 143.5t-59.5 143.5t-143.5 59.5q-50 0 -94 -23t-72 -64l-25 11l61 350h325v-20h-308z" />
    <glyph glyph-name="six" unicode="6" horiz-adv-x="583" 
d="M522 546l-20 -4q-15 69 -67.5 103.5t-126.5 34.5q-64 0 -110 -39t-68 -101.5t-31 -121.5t-9 -119v-13q24 67 80.5 108.5t129.5 41.5q92 0 157.5 -65.5t65.5 -157.5t-65.5 -157.5t-157.5 -65.5q-100 0 -154 61t-69 159l-1 4q-6 42 -6 85q0 41 4 82t13.5 88t27.5 87
t43.5 73t64 52t85.5 19q81 0 139 -39t75 -115zM503 213q0 84 -59.5 143.5t-143.5 59.5t-141.5 -58t-62.5 -143q14 -92 63 -148.5t141 -56.5q84 0 143.5 59.5t59.5 143.5z" />
    <glyph glyph-name="seven" unicode="7" horiz-adv-x="512" 
d="M40 690h452l-349 -694l-18 9l335 665h-420v20z" />
    <glyph glyph-name="eight" unicode="8" horiz-adv-x="571" 
d="M511 185q0 -94 -64.5 -144.5t-160.5 -50.5q-97 0 -161.5 50.5t-64.5 144.5q0 75 41.5 122t109.5 64q-51 17 -81.5 58t-30.5 101q0 81 52.5 125.5t134.5 44.5q81 0 133.5 -45t52.5 -125q0 -60 -30 -101t-82 -58q68 -17 109.5 -64t41.5 -122zM452 530q0 72 -46.5 111
t-119.5 39q-74 0 -120.5 -39t-46.5 -111t46.5 -111t120.5 -39q73 0 119.5 39t46.5 111zM491 185q0 85 -58.5 130t-146.5 45t-147 -45t-59 -130t59 -130t147 -45t146.5 45t58.5 130z" />
    <glyph glyph-name="nine" unicode="9" horiz-adv-x="583" 
d="M493 377v27q-24 -68 -81 -109t-129 -41q-92 0 -157.5 65.5t-65.5 157.5t65.5 157.5t157.5 65.5q52 0 92.5 -18t66 -47t42 -69.5t23 -83t6.5 -90.5q0 -52 -5.5 -101.5t-21 -106t-41 -98t-69.5 -69t-101 -27.5q-80 0 -137 39t-77 114l20 6q18 -69 69.5 -104t124.5 -35
q64 0 110 36.5t68 96t31 117t9 117.5zM485 472q0 29 -12 63q-45 145 -190 145q-83 0 -143 -59.5t-60 -143.5t59.5 -143.5t143.5 -59.5q82 0 142 58.5t60 139.5z" />
    <glyph glyph-name="colon" unicode=":" horiz-adv-x="190" 
d="M105 386v-99h-20v99h20zM105 99v-99h-20v99h20z" />
    <glyph glyph-name="semicolon" unicode=";" horiz-adv-x="190" 
d="M105 386v-99h-20v99h20zM105 99v-99q0 -39 -12 -60.5t-48 -21.5v19q15 0 23.5 4.5t12 16t4 19t0.5 23.5v99h20z" />
    <glyph glyph-name="less" unicode="&#x3c;" horiz-adv-x="620" 
d="M570 21v-21l-520 227v29l520 227v-21l-508 -220z" />
    <glyph glyph-name="equal" unicode="=" horiz-adv-x="335" 
d="M315 323v-20h-295v20h295zM315 183v-20h-295v20h295z" />
    <glyph glyph-name="greater" unicode="&#x3e;" horiz-adv-x="630" 
d="M575 256v-29l-520 -227v21l508 221l-508 220v21z" />
    <glyph glyph-name="question" unicode="?" horiz-adv-x="418" 
d="M35 530h-20q0 80 52.5 125t134.5 45q81 0 133.5 -45t52.5 -125q0 -121 -117 -160q-27 -10 -43.5 -31t-16.5 -49v-85h-20v85q0 35 20.5 61t54.5 38q102 34 102 141q0 72 -46.5 111t-119.5 39q-74 0 -120.5 -39t-46.5 -111zM211 99v-99h-20v99h20z" />
    <glyph glyph-name="at" unicode="@" horiz-adv-x="989" 
d="M710 -88l10 -17q-105 -64 -226 -64q-179 0 -306.5 128t-127.5 307t127.5 306.5t306.5 127.5t307 -127.5t128 -306.5q0 -49 -12.5 -97t-37 -90t-66 -68t-93.5 -26q-48 0 -78.5 29t-30.5 76q0 27 9 65q-30 -50 -77.5 -79.5t-103.5 -29.5q-72 0 -110 44.5t-38 118.5
q0 108 63.5 197t167.5 89q56 0 94 -29.5t49 -83.5l20 105l20 -4l-71 -365q-3 -14 -3 -28q0 -39 24.5 -62t64.5 -23q48 0 85.5 24.5t59.5 64t33 83.5t11 89q0 171 -122 292.5t-293 121.5t-292.5 -121.5t-121.5 -292.5t121.5 -293t292.5 -122q114 0 216 61zM649 332
q0 66 -31 104.5t-96 38.5q-96 0 -153.5 -83.5t-57.5 -183.5q0 -65 32 -103.5t96 -38.5q99 0 154.5 81t55.5 185z" />
    <glyph glyph-name="A" unicode="A" horiz-adv-x="596" 
d="M308 690l258 -690h-22l-82 220h-329l-82 -220h-21l257 690h21zM141 240h314l-157 421z" />
    <glyph glyph-name="B" unicode="B" horiz-adv-x="638" 
d="M95 690h247q84 0 144.5 -47.5t60.5 -129.5q0 -56 -32 -99.5t-84 -63.5q66 -13 109 -59.5t43 -112.5q0 -82 -60.5 -130t-144.5 -48h-283v690zM115 355h227q76 0 130.5 42t54.5 116q0 73 -54.5 115t-130.5 42h-227v-315zM115 20h263q76 0 130.5 42t54.5 116q0 73 -54.5 115
t-130.5 42h-263v-315z" />
    <glyph glyph-name="C" unicode="C" horiz-adv-x="685" 
d="M617 176l18 -7q-36 -87 -106.5 -133t-164.5 -46q-147 0 -225.5 102t-78.5 253t78.5 253t225.5 102q94 0 164.5 -46t106.5 -132l-18 -8q-34 81 -99.5 123.5t-153.5 42.5q-94 0 -159.5 -47.5t-95 -121.5t-29.5 -166t29.5 -166t95 -121.5t159.5 -47.5q88 0 153.5 42.5
t99.5 123.5z" />
    <glyph glyph-name="D" unicode="D" horiz-adv-x="662" 
d="M95 690h158q169 0 256.5 -87.5t87.5 -257.5t-87.5 -257.5t-256.5 -87.5h-158v690zM115 20h138q324 0 324 325t-324 325h-138v-650z" />
    <glyph glyph-name="E" unicode="E" horiz-adv-x="577" 
d="M512 20v-20h-417v690h417v-20h-397v-315h350v-20h-350v-315h397z" />
    <glyph glyph-name="F" unicode="F" horiz-adv-x="552" 
d="M512 690v-20h-397v-315h350v-20h-350v-335h-20v690h417z" />
    <glyph glyph-name="G" unicode="G" horiz-adv-x="694" 
d="M609 316v-286q-79 -40 -219 -40q-165 0 -247.5 94t-82.5 261q0 95 29 173t96.5 130t163.5 52q98 0 164 -46t93 -128l-19 -8q-51 162 -238 162q-91 0 -153.5 -49.5t-89 -123t-26.5 -162.5q0 -159 76.5 -247t233.5 -88q120 0 199 32v254h-225v20h245z" />
    <glyph glyph-name="H" unicode="H" horiz-adv-x="642" 
d="M547 690v-690h-20v335h-412v-335h-20v690h20v-335h412v335h20z" />
    <glyph glyph-name="I" unicode="I" horiz-adv-x="210" 
d="M115 690v-690h-20v690h20z" />
    <glyph glyph-name="J" unicode="J" horiz-adv-x="560" 
d="M470 690v-461q0 -109 -56 -174t-163 -65q-92 0 -148 50t-68 141l20 3q11 -84 61 -129t135 -45q99 0 149 59t50 160v461h20z" />
    <glyph glyph-name="K" unicode="K" horiz-adv-x="645" 
d="M322 401l283 -401h-24l-273 386l-193 -204v-182h-20v690h20v-479l454 479h27z" />
    <glyph glyph-name="L" unicode="L" horiz-adv-x="547" 
d="M512 20v-20h-417v690h20v-670h397z" />
    <glyph glyph-name="M" unicode="M" horiz-adv-x="835" 
d="M740 690v-690h-20v644l-292 -644h-21l-292 644v-644h-20v690h21l302 -666l301 666h21z" />
    <glyph glyph-name="N" unicode="N" horiz-adv-x="652" 
d="M557 690v-690h-22l-420 656v-656h-20v690h22l420 -656v656h20z" />
    <glyph glyph-name="O" unicode="O" horiz-adv-x="728" 
d="M668 345q0 -98 -32 -176.5t-102.5 -128.5t-169.5 -50q-147 0 -225.5 102t-78.5 253t78.5 253t225.5 102q99 0 169.5 -50t102.5 -128.5t32 -176.5zM648 345q0 92 -29.5 166t-95 121.5t-159.5 47.5t-159.5 -47.5t-95 -121.5t-29.5 -166t29.5 -166t95 -121.5t159.5 -47.5
t159.5 47.5t95 121.5t29.5 166z" />
    <glyph glyph-name="P" unicode="P" horiz-adv-x="587" 
d="M95 690h247q85 0 145 -47.5t60 -129.5q0 -83 -60 -130.5t-145 -47.5h-227v-335h-20v690zM115 355h227q76 0 130.5 42t54.5 116q0 73 -54.5 115t-130.5 42h-227v-315z" />
    <glyph glyph-name="Q" unicode="Q" horiz-adv-x="728" 
d="M612 -69l-90 101q-66 -42 -158 -42q-147 0 -225.5 102t-78.5 253t78.5 253t225.5 102q99 0 169.5 -50t102.5 -128.5t32 -176.5q0 -92 -31.5 -172.5t-97.5 -129.5l88 -98zM411 187l115 -129q63 46 92.5 122.5t29.5 164.5q0 92 -29.5 166t-95 121.5t-159.5 47.5
t-159.5 -47.5t-95 -121.5t-29.5 -166t29.5 -166t95 -121.5t159.5 -47.5q82 0 145 37l-113 127z" />
    <glyph glyph-name="R" unicode="R" horiz-adv-x="614" 
d="M370 337l196 -337h-23l-195 335h-233v-335h-20v690h247q85 0 145 -47.5t60 -129.5q0 -75 -50.5 -121.5t-126.5 -54.5zM115 355h227q76 0 130.5 42t54.5 116q0 73 -54.5 115t-130.5 42h-227v-315z" />
    <glyph glyph-name="S" unicode="S" horiz-adv-x="592" 
d="M520 540l-20 -6q-21 72 -74.5 109t-129.5 37q-79 0 -133.5 -45t-54.5 -122q0 -46 23.5 -76.5t61 -45.5t82.5 -25.5t90 -22t82.5 -28.5t61 -52t23.5 -87q0 -96 -64 -141t-163 -45q-200 0 -255 176l19 6q52 -162 236 -162q91 0 149 39.5t58 126.5q0 48 -23.5 79.5t-61 47
t-82.5 26t-90 22t-82.5 28t-61 50.5t-23.5 84q0 86 60 136.5t148 50.5q83 0 141.5 -41t82.5 -119z" />
    <glyph glyph-name="T" unicode="T" horiz-adv-x="582" 
d="M552 690v-20h-251v-670h-20v670h-251v20h522z" />
    <glyph glyph-name="U" unicode="U" horiz-adv-x="704" 
d="M614 690v-413q0 -131 -66.5 -209t-195.5 -78t-195.5 78t-66.5 209v413h20v-413q0 -123 61 -195t181 -72t181 72t61 195v413h20z" />
    <glyph glyph-name="V" unicode="V" horiz-adv-x="603" 
d="M552 690h21l-257 -690h-29l-257 690h21l251 -671z" />
    <glyph glyph-name="W" unicode="W" horiz-adv-x="945" 
d="M894 690h21l-193 -690h-27l-222 659l-223 -659h-27l-193 690h21l186 -666l225 666h21l225 -666z" />
    <glyph glyph-name="X" unicode="X" horiz-adv-x="533" 
d="M278 345l225 -345h-24l-213 327l-212 -327h-24l225 345l-225 345h24l212 -327l213 327h24z" />
    <glyph glyph-name="Y" unicode="Y" horiz-adv-x="606" 
d="M552 690h24l-263 -423v-277h-20v277l-263 423h24l249 -401z" />
    <glyph glyph-name="Z" unicode="Z" horiz-adv-x="620" 
d="M560 20v-20h-508v29l488 641h-468v20h488v-27l-490 -643h490z" />
    <glyph glyph-name="bracketleft" unicode="[" horiz-adv-x="264" 
d="M239 -134v-20h-139v894h139v-20h-119v-854h119z" />
    <glyph glyph-name="backslash" unicode="\" horiz-adv-x="277" 
d="M-11 747l318 -874l-19 -7l-318 874z" />
    <glyph glyph-name="bracketright" unicode="]" horiz-adv-x="264" 
d="M164 740v-894h-139v20h119v854h-119v20h139z" />
    <glyph glyph-name="asciicircum" unicode="^" horiz-adv-x="298" 
d="M160 690l108 -295h-23l-96 274l-96 -274h-23l107 295h23z" />
    <glyph glyph-name="underscore" unicode="_" horiz-adv-x="375" 
d="M355 0v-20h-335v20h335z" />
    <glyph glyph-name="grave" unicode="`" horiz-adv-x="0" 
d="M-98 690l112 -112l-14 -15l-112 113z" />
    <glyph glyph-name="a" unicode="a" horiz-adv-x="510" 
d="M425 331v-331h-20v142q-21 -71 -76.5 -111.5t-127.5 -40.5q-64 0 -105 33.5t-41 96.5q0 83 60.5 121.5t148.5 38.5h141v51q0 64 -41.5 104t-106.5 40q-114 0 -155 -99l-18 8q46 111 173 111q73 0 120.5 -45.5t47.5 -118.5zM405 220v40h-141q-79 0 -134 -33t-55 -107
q0 -55 35 -82.5t91 -27.5q84 0 144 63t60 147z" />
    <glyph glyph-name="b" unicode="b" horiz-adv-x="556" 
d="M110 740v-377q24 62 72 97t114 35q101 0 153 -73.5t52 -178.5q0 -106 -52 -179.5t-153 -73.5q-66 0 -114 35t-72 97v-122h-20v740h20zM481 243q0 97 -46.5 164.5t-138.5 67.5q-93 0 -139.5 -67.5t-46.5 -164.5t46.5 -165t139.5 -68q92 0 138.5 68t46.5 165z" />
    <glyph glyph-name="c" unicode="c" horiz-adv-x="482" 
d="M423 119l19 -7q-25 -58 -72 -90t-109 -32q-101 0 -153.5 73.5t-52.5 179.5q0 105 52.5 178.5t153.5 73.5q128 0 180 -121l-18 -8q-47 109 -162 109q-93 0 -139.5 -67.5t-46.5 -164.5t46.5 -165t139.5 -68q115 0 162 109z" />
    <glyph glyph-name="d" unicode="d" horiz-adv-x="556" 
d="M466 740v-740h-20v123q-24 -63 -71.5 -98t-113.5 -35q-102 0 -154 73.5t-52 179.5t52 179t154 73q66 0 113.5 -35t71.5 -98v378h20zM446 243q0 97 -46.5 164.5t-138.5 67.5q-93 0 -139.5 -67.5t-46.5 -164.5t46.5 -165t139.5 -68q92 0 138.5 68t46.5 165z" />
    <glyph glyph-name="e" unicode="e" horiz-adv-x="511" 
d="M466 243v-7h-391q2 -95 49 -160.5t137 -65.5q115 0 162 110l19 -8q-25 -58 -72 -90t-109 -32q-102 0 -154 73.5t-52 179.5t52 179t154 73q101 0 153 -73.5t52 -178.5zM75 253h371q-2 93 -49 157.5t-136 64.5q-90 0 -137 -64t-49 -158z" />
    <glyph glyph-name="f" unicode="f" horiz-adv-x="348" 
d="M146 485v136q0 119 103 119q32 0 69 -10l-4 -20q-37 10 -65 10q-46 0 -64.5 -25.5t-18.5 -73.5v-136h146v-20h-146v-465h-20v465h-116v20h116z" />
    <glyph glyph-name="g" unicode="g" horiz-adv-x="556" 
d="M466 485v-485q0 -88 -59 -150t-146 -62q-146 0 -197 123l19 8q45 -111 178 -111q79 0 132 56.5t53 135.5v123q-24 -63 -71.5 -98t-113.5 -35q-102 0 -154 73.5t-52 179.5t52 179t154 73q66 0 113.5 -35t71.5 -98v123h20zM446 243q0 97 -46.5 164.5t-138.5 67.5
q-93 0 -139.5 -67.5t-46.5 -164.5t46.5 -165t139.5 -68q92 0 138.5 68t46.5 165z" />
    <glyph glyph-name="h" unicode="h" horiz-adv-x="556" 
d="M471 293v-293h-20v293q0 182 -146 182q-73 0 -121.5 -45t-67.5 -118q-6 -27 -6 -30v-282h-20v740h20v-382q26 63 77.5 100t117.5 37q87 0 126.5 -56t39.5 -146z" />
    <glyph glyph-name="i" unicode="i" horiz-adv-x="190" 
d="M105 690v-99h-20v99h20zM105 485v-485h-20v485h20z" />
    <glyph glyph-name="j" unicode="j" horiz-adv-x="227" 
d="M142 690v-99h-20v99h20zM142 485v-581q0 -119 -102 -119q-32 0 -70 10l5 20q35 -10 65 -10q46 0 64 25.5t18 73.5v581h20z" />
    <glyph glyph-name="k" unicode="k" horiz-adv-x="462" 
d="M240 282l202 -282h-25l-191 266l-116 -132v-134h-20v740h20v-576l282 321h27z" />
    <glyph glyph-name="l" unicode="l" horiz-adv-x="200" 
d="M110 740v-740h-20v740h20z" />
    <glyph glyph-name="m" unicode="m" horiz-adv-x="876" 
d="M791 293v-293h-20v293q0 79 -31.5 130.5t-105.5 51.5q-73 0 -128 -59t-55 -130v-286h-20v289q0 186 -137 186q-72 0 -128 -60t-56 -133v-282h-20v485h20v-125q21 57 71 96t113 39q66 0 104 -38.5t49 -105.5q18 62 69 103t118 41q83 0 120 -57t37 -145z" />
    <glyph glyph-name="n" unicode="n" horiz-adv-x="556" 
d="M471 293v-293h-20v293q0 182 -146 182q-73 0 -121.5 -45t-67.5 -118q-6 -27 -6 -30v-282h-20v485h20v-127q26 63 77.5 100t117.5 37q87 0 126.5 -56t39.5 -146z" />
    <glyph glyph-name="o" unicode="o" horiz-adv-x="521" 
d="M466 243q0 -106 -52 -179.5t-153 -73.5q-102 0 -154 73.5t-52 179.5t52 179t154 73q101 0 153 -73.5t52 -178.5zM446 243q0 97 -46.5 164.5t-138.5 67.5q-93 0 -139.5 -67.5t-46.5 -164.5t46.5 -165t139.5 -68q92 0 138.5 68t46.5 165z" />
    <glyph glyph-name="p" unicode="p" horiz-adv-x="556" 
d="M110 485v-122q52 132 186 132q101 0 153 -73.5t52 -178.5q0 -106 -52 -179.5t-153 -73.5q-134 0 -186 132v-338h-20v459v242h20zM481 243q0 97 -46.5 164.5t-138.5 67.5q-93 0 -139.5 -67.5t-46.5 -164.5t46.5 -165t139.5 -68q92 0 138.5 68t46.5 165z" />
    <glyph glyph-name="q" unicode="q" horiz-adv-x="556" 
d="M466 485v-701h-20v339q-24 -63 -71.5 -98t-113.5 -35q-102 0 -154 73.5t-52 179.5t52 179t154 73q66 0 113.5 -35t71.5 -98v123h20zM446 243q0 97 -46.5 164.5t-138.5 67.5q-93 0 -139.5 -67.5t-46.5 -164.5t46.5 -165t139.5 -68q92 0 138.5 68t46.5 165z" />
    <glyph glyph-name="r" unicode="r" horiz-adv-x="382" 
d="M110 485v-128q26 65 76.5 101.5t118.5 36.5q32 0 57 -8l-6 -19q-24 7 -51 7q-66 0 -112 -37.5t-69 -101.5q-14 -35 -14 -54v-282h-20v485h20z" />
    <glyph glyph-name="s" unicode="s" horiz-adv-x="431" 
d="M380 384l-18 -7q-45 98 -150 98q-54 0 -91.5 -31t-37.5 -84q0 -42 30.5 -65.5t74.5 -33t88 -20t74.5 -39.5t30.5 -79q0 -69 -45 -101t-117 -32q-67 0 -110 29t-69 90l18 8q24 -56 62 -81.5t99 -25.5q142 0 142 113q0 44 -30.5 69t-74.5 34.5t-88 19.5t-74.5 37.5
t-30.5 76.5q0 62 43 98.5t106 36.5q121 0 168 -111z" />
    <glyph glyph-name="t" unicode="t" horiz-adv-x="348" 
d="M304 20l4 -20q-37 -10 -70 -10q-102 0 -102 119v356h-116v20h116v135h20v-135h146v-20h-146v-356q0 -48 18.5 -73.5t64.5 -25.5q28 0 65 10z" />
    <glyph glyph-name="u" unicode="u" horiz-adv-x="556" 
d="M466 485v-485h-20v127q-26 -63 -77.5 -100t-117.5 -37q-87 0 -126.5 56t-39.5 146v293h20v-293q0 -182 146 -182q73 0 121.5 45t67.5 118q6 27 6 30v282h20z" />
    <glyph glyph-name="v" unicode="v" horiz-adv-x="430" 
d="M389 485h21l-180 -485h-29l-181 485h21l174 -466z" />
    <glyph glyph-name="w" unicode="w" horiz-adv-x="690" 
d="M644 485h21l-136 -485h-27l-157 465l-157 -465h-27l-136 485h21l129 -461l155 461h29l156 -461z" />
    <glyph glyph-name="x" unicode="x" horiz-adv-x="390" 
d="M207 243l158 -243h-24l-146 224l-146 -224h-24l158 243l-158 242h24l146 -224l146 224h23z" />
    <glyph glyph-name="y" unicode="y" horiz-adv-x="430" 
d="M389 485h21l-259 -698h-22l76 203l-185 495h21l174 -467z" />
    <glyph glyph-name="z" unicode="z" horiz-adv-x="492" 
d="M71 485h376l-361 -465h350v-20h-391l362 465h-336v20z" />
    <glyph glyph-name="braceleft" unicode="{" horiz-adv-x="254" 
d="M234 -134v-20q-61 0 -104.5 43.5t-43.5 104.5q0 13 3 26l23 130q2 16 2 23q0 73 -64 111v18q29 17 46.5 47t17.5 64q0 8 -2 22l-23 131q-3 12 -3 26q0 61 43.5 104.5t104.5 43.5v-20q-53 0 -90.5 -37.5t-37.5 -90.5q0 -7 2 -23l24 -130q2 -18 2 -26q0 -75 -61 -120
q61 -45 61 -120q0 -8 -2 -26l-24 -130q-2 -16 -2 -23q0 -53 37.5 -90.5t90.5 -37.5z" />
    <glyph glyph-name="bar" unicode="|" horiz-adv-x="200" 
d="M110 740v-930h-20v930h20z" />
    <glyph glyph-name="braceright" unicode="}" horiz-adv-x="254" 
d="M204 302v-18q-64 -38 -64 -111q0 -7 2 -23l24 -130q2 -18 2 -26q0 -62 -43 -105t-105 -43v20q53 0 90.5 37.5t37.5 90.5q0 7 -2 23l-23 130q-3 13 -3 26q0 75 61 120q-61 45 -61 120q0 13 3 26l23 130q2 16 2 23q0 53 -37.5 90.5t-90.5 37.5v20q62 0 105 -43t43 -105
q0 -10 -2 -26l-24 -131q-2 -14 -2 -22q0 -34 17.5 -64t46.5 -47z" />
    <glyph glyph-name="asciitilde" unicode="~" horiz-adv-x="403" 
d="M328 293l20 -2q-4 -36 -22.5 -61t-51.5 -25q-32 0 -76.5 35.5t-69.5 35.5q-24 0 -37 -21t-16 -48l-20 3q4 35 22.5 60.5t50.5 25.5t76.5 -35.5t70.5 -35.5q24 0 36.5 20.5t16.5 47.5z" />
    <glyph glyph-name="uni007F" 
 />
    <glyph glyph-name="uni00A0" unicode="&#xa0;" 
 />
    <glyph glyph-name="exclamdown" unicode="&#xa1;" horiz-adv-x="269" 
d="M104 330h58l25 -512h-108zM196 478q0 -33 -16 -50t-46 -17t-46 17t-16 50q0 32 16.5 50t45.5 18t45.5 -17.5t16.5 -50.5z" />
    <glyph glyph-name="cent" unicode="&#xa2;" horiz-adv-x="482" 
d="M423 119l19 -7q-50 -117 -172 -122v-90h-20v90q-96 4 -145.5 77t-49.5 176q0 102 49.5 175t145.5 77v95h20v-95q122 -5 171 -121l-18 -8q-44 104 -153 109v-465q109 5 153 109zM250 10v465q-60 -3 -100.5 -38t-57.5 -84.5t-17 -109.5t17 -110t57.5 -85t100.5 -38z" />
    <glyph glyph-name="sterling" unicode="&#xa3;" horiz-adv-x="547" 
d="M502 20v-20h-457v25q118 113 118 180q0 36 -18 106h-100v20h95q-29 114 -29 177q0 80 46 136t124 56q56 0 98.5 -34.5t62.5 -90.5l-19 -7q-18 50 -55 81t-87 31q-69 0 -109.5 -50.5t-40.5 -121.5q0 -63 31 -177h225v-20h-220q16 -62 16 -106q0 -21 -6 -41t-22 -43
t-23.5 -33t-33 -37.5t-28.5 -30.5h432z" />
    <glyph glyph-name="currency" unicode="&#xa4;" horiz-adv-x="571" 
d="M90 353q0 57 35 110l-66 68l49 47l66 -64q49 35 112 35q59 0 110 -35l67 64l48 -47l-64 -67q35 -54 35 -111q0 -63 -35 -112l63 -66l-47 -47l-67 64q-50 -34 -110 -34q-64 0 -112 35l-66 -64l-48 47l65 66q-35 53 -35 111zM157 353q0 -54 37.5 -91.5t91.5 -37.5t92 37
t38 92q0 56 -38 93.5t-92 37.5t-91.5 -38t-37.5 -93z" />
    <glyph glyph-name="yen" unicode="&#xa5;" horiz-adv-x="606" 
d="M552 690h24l-263 -423v-14h137v-20h-137v-120h137v-20h-137v-103h-20v103h-138v20h138v120h-138v20h138v14l-263 423h24l249 -401z" />
    <glyph glyph-name="brokenbar" unicode="&#xa6;" horiz-adv-x="550" 
d="M239 760h73v-381h-73v381zM239 140h73v-381h-73v381z" />
    <glyph glyph-name="section" unicode="&#xa7;" horiz-adv-x="448" 
d="M384 588l-19 -6q-14 48 -50 73t-88 25q-53 0 -89.5 -30t-36.5 -82q0 -42 30 -64.5t73 -32t86 -19.5t73 -38.5t30 -77.5q0 -80 -68 -113q68 -30 68 -102q0 -67 -45 -99t-114 -32q-140 0 -179 124l19 6q34 -110 160 -110q60 0 99.5 26.5t39.5 84.5q0 43 -30 67t-73 33.5
t-86 19.5t-73 37t-30 75q0 37 18.5 68t51.5 47q-70 30 -70 100q0 60 42 96t104 36q58 0 99.5 -28.5t57.5 -83.5zM373 336q0 28 -12.5 48.5t-37 32t-45 18t-53.5 13t-46 10.5q-36 -11 -57 -39.5t-21 -65.5q0 -27 13 -46.5t37.5 -31t46.5 -18t53.5 -13t45.5 -10.5
q76 23 76 102z" />
    <glyph glyph-name="dieresis" unicode="&#xa8;" horiz-adv-x="340" 
d="M105 690v-99h-20v99h20zM255 690v-99h-20v99h20z" />
    <glyph glyph-name="copyright" unicode="&#xa9;" horiz-adv-x="830" 
d="M770 345q0 -147 -104 -251t-251 -104t-251 104t-104 251t104 251t251 104t251 -104t104 -251zM750 345q0 139 -98 237t-237 98t-237 -98t-98 -237t98 -237t237 -98t237 98t98 237zM544 263l19 -8q-39 -92 -140 -92q-76 0 -116.5 52t-40.5 130t40.5 130t116.5 52
q100 0 140 -92l-19 -8q-34 80 -121 80q-67 0 -102 -46t-35 -116t35 -116t102 -46q87 0 121 80z" />
    <glyph glyph-name="ordfeminine" unicode="&#xaa;" horiz-adv-x="356" 
d="M261 389l-12 42q-46 -48 -114 -48q-47 0 -75 24.5t-28 74.5t38.5 76t119.5 29l56 2v22q0 30 -19 44.5t-52 14.5q-49 0 -101 -26q-13 30 -22 49q60 29 125 29t98 -27t33 -86v-220h-47zM96 482q0 -48 54 -48q96 0 96 87v23l-48 -2q-54 -2 -78 -16t-24 -44z" />
    <glyph glyph-name="guillemotleft" unicode="&#xab;" horiz-adv-x="508" 
d="M40 270l168 201l63 -36l-140 -171l140 -171l-63 -37l-168 201v13zM238 270l170 201l62 -36l-140 -171l140 -171l-62 -37l-170 201v13z" />
    <glyph glyph-name="logicalnot" unicode="&#xac;" horiz-adv-x="571" 
d="M520 388v-260h-71v189h-399v71h470z" />
    <glyph glyph-name="uni00AD" unicode="&#xad;" horiz-adv-x="321" 
d="M40 229v78h242v-78h-242z" />
    <glyph glyph-name="registered" unicode="&#xae;" horiz-adv-x="830" 
d="M770 345q0 -147 -104 -251t-251 -104t-251 104t-104 251t104 251t251 104t251 -104t104 -251zM750 345q0 139 -98 237t-237 98t-237 -98t-98 -237t98 -237t237 -98t237 98t98 237zM474 332l103 -177h-23l-102 175h-118v-175h-20v375h137q47 0 81 -27t34 -73
q0 -39 -26 -65.5t-66 -32.5zM334 350h117q39 0 67 21t28 59t-28 59t-67 21h-117v-160z" />
    <glyph glyph-name="macron" unicode="&#xaf;" horiz-adv-x="339" 
d="M325 253v-20h-305v20h305z" />
    <glyph glyph-name="degree" unicode="&#xb0;" horiz-adv-x="428" 
d="M60 570q0 66 45 110t109 44q65 0 109.5 -45t44.5 -109t-45 -108.5t-109 -44.5q-63 0 -108.5 44t-45.5 109zM120 570q0 -39 28 -66.5t67 -27.5q40 0 66.5 28t26.5 66q0 39 -27 66.5t-66 27.5t-67 -27t-28 -67z" />
    <glyph glyph-name="plusminus" unicode="&#xb1;" horiz-adv-x="571" 
d="M321 391h199v-71h-199v-206h-72v206h-199v71h199v207h72v-207zM50 0v71h470v-71h-470z" />
    <glyph glyph-name="uni00B2" unicode="&#xb2;" horiz-adv-x="350" 
d="M306 286h-282v54l115 112q62 60 79.5 87.5t17.5 61.5q0 32 -18.5 48t-48.5 16t-54.5 -11.5t-50.5 -31.5l-35 46q65 55 141 55q64 0 100.5 -32t36.5 -86q0 -22 -6 -41.5t-18.5 -39.5t-33 -42.5t-138.5 -133.5h195v-62z" />
    <glyph glyph-name="uni00B3" unicode="&#xb3;" horiz-adv-x="350" 
d="M308 613q0 -74 -74 -102q87 -21 87 -102q0 -62 -45 -96.5t-128 -34.5q-74 0 -131 28v63q69 -34 132 -34q100 0 100 76q0 69 -110 69h-57v55h57q50 0 73.5 19t23.5 51q0 29 -19 45t-51 16q-51 0 -111 -38l-36 46q36 27 71 38t75 11q66 0 104.5 -29.5t38.5 -80.5z" />
    <glyph glyph-name="acute" unicode="&#xb4;" horiz-adv-x="0" 
d="M98 690l14 -14l-112 -113l-14 15z" />
    <glyph glyph-name="mu" unicode="&#xb5;" horiz-adv-x="623" 
d="M173 190q0 -127 120 -127q83 0 120 45.5t37 148.5v279h88v-536h-71l-14 72h-5q-53 -82 -161 -82q-71 0 -115 45h-4q5 -36 5 -119v-156h-88v776h88v-346z" />
    <glyph glyph-name="paragraph" unicode="&#xb6;" horiz-adv-x="654" 
d="M549 -127h-58v831h-102v-831h-58v400q-30 -9 -71 -9q-105 0 -155 61t-50 184q0 127 53.5 189t166.5 62h274v-887z" />
    <glyph glyph-name="periodcentered" unicode="&#xb7;" horiz-adv-x="268" 
d="M72 353q0 32 16 50t45 18q30 0 46.5 -18.5t16.5 -49.5t-16.5 -49.5t-46.5 -18.5q-29 0 -45 18t-16 50z" />
    <glyph glyph-name="cedilla" unicode="&#xb8;" horiz-adv-x="0" 
d="M17 7l-25 -44q23 -1 41.5 -11t18.5 -31q0 -22 -19.5 -34.5t-42.5 -12.5q-25 0 -52 12l8 18q22 -10 44 -10q14 0 28 6.5t14 19.5q0 23 -42 23q-6 0 -19 -1.5t-15 -1.5l38 67h23z" />
    <glyph glyph-name="uni00B9" unicode="&#xb9;" horiz-adv-x="350" 
d="M167 714h73v-428h-71v276q0 33 4 89q-15 -14 -26.5 -23t-74.5 -55l-35 49z" />
    <glyph glyph-name="ordmasculine" unicode="&#xba;" horiz-adv-x="375" 
d="M345 553q0 -80 -42 -125t-116 -45q-71 0 -113 45t-42 125q0 81 41 125t116 44q73 0 114.5 -44.5t41.5 -124.5zM95 553q0 -59 21.5 -88t71.5 -29q49 0 71 29t22 88t-22 87.5t-71 28.5t-71 -28.5t-22 -87.5z" />
    <glyph glyph-name="guillemotright" unicode="&#xbb;" horiz-adv-x="508" 
d="M469 257l-170 -201l-62 37l140 171l-140 171l62 36l170 -201v-13zM270 257l-169 -201l-62 37l140 171l-140 171l62 36l169 -201v-13z" />
    <glyph glyph-name="onequarter" unicode="&#xbc;" horiz-adv-x="790" 
d="M736 96h-61v-96h-75v96h-195v52l197 283h73v-275h61v-60zM600 156v93q0 52 3 101q-4 -9 -48 -77l-80 -117h125zM538 690h21l-251 -690h-21zM165 714h73v-428h-71v276q0 33 4 89q-15 -14 -26.5 -23t-74.5 -55l-35 49z" />
    <glyph glyph-name="onehalf" unicode="&#xbd;" horiz-adv-x="790" 
d="M508 690h21l-251 -690h-21zM152 714h73v-428h-71v276q0 33 4 89q-15 -14 -26.5 -23t-74.5 -55l-35 49zM727 0h-282v54l115 112q62 60 79.5 87.5t17.5 61.5q0 32 -18.5 48t-48.5 16t-54.5 -11.5t-50.5 -31.5l-35 46q65 55 141 55q64 0 100.5 -32t36.5 -86q0 -22 -6 -41.5
t-18.5 -39.5t-33 -42.5t-138.5 -133.5h195v-62z" />
    <glyph glyph-name="threequarters" unicode="&#xbe;" horiz-adv-x="790" 
d="M772 96h-61v-96h-75v96h-195v52l197 283h73v-275h61v-60zM636 156v93q0 52 3 101q-4 -9 -48 -77l-80 -117h125zM582 690h21l-251 -690h-21zM307 613q0 -74 -74 -102q87 -21 87 -102q0 -62 -45 -96.5t-128 -34.5q-74 0 -131 28v63q69 -34 132 -34q100 0 100 76
q0 69 -110 69h-57v55h57q50 0 73.5 19t23.5 51q0 29 -19 45t-51 16q-51 0 -111 -38l-36 46q36 27 71 38t75 11q66 0 104.5 -29.5t38.5 -80.5z" />
    <glyph glyph-name="questiondown" unicode="&#xbf;" horiz-adv-x="434" 
d="M294 330v-26q0 -57 -18 -93.5t-67 -77.5q-65 -54 -82 -81t-17 -68q0 -47 31 -73.5t89 -26.5q78 0 161 43l31 -71q-97 -48 -195 -48q-95 0 -148.5 45.5t-53.5 128.5q0 36 9.5 63.5t29.5 52.5t79 75q50 44 65 71t15 70v16h71zM317 478q0 -67 -62 -67q-30 0 -45.5 17.5
t-15.5 49.5q0 36 17.5 52t43.5 16t44 -16t18 -52z" />
    <glyph glyph-name="Agrave" unicode="&#xc0;" horiz-adv-x="596" 
d="M197 870l112 -112l-14 -15l-112 113zM308 690l258 -690h-22l-82 220h-329l-82 -220h-21l257 690h21zM141 240h314l-157 421z" />
    <glyph glyph-name="Aacute" unicode="&#xc1;" horiz-adv-x="596" 
d="M398 870l14 -14l-113 -113l-14 15zM308 690l258 -690h-22l-82 220h-329l-82 -220h-21l257 690h21zM141 240h314l-157 421z" />
    <glyph glyph-name="Acircumflex" unicode="&#xc2;" horiz-adv-x="596" 
d="M298 870l112 -112l-14 -15l-98 99l-98 -99l-15 15zM308 690l258 -690h-22l-82 220h-329l-82 -220h-21l257 690h21zM141 240h314l-157 421z" />
    <glyph glyph-name="Atilde" unicode="&#xc3;" horiz-adv-x="596" 
d="M424 835l20 -2q-4 -35 -22.5 -60.5t-50.5 -25.5t-76.5 35.5t-70.5 35.5q-44 0 -53 -69l-20 3q4 35 22.5 60.5t50.5 25.5q33 0 77 -35.5t70 -35.5q24 0 37 20.5t16 47.5zM308 690l258 -690h-22l-82 220h-329l-82 -220h-21l257 690h21zM141 240h314l-157 421z" />
    <glyph glyph-name="Adieresis" unicode="&#xc4;" horiz-adv-x="596" 
d="M233 850v-99h-20v99h20zM383 850v-99h-20v99h20zM308 690l258 -690h-22l-82 220h-329l-82 -220h-21l257 690h21zM141 240h314l-157 421z" />
    <glyph glyph-name="Aring" unicode="&#xc5;" horiz-adv-x="596" 
d="M312 681l254 -681h-22l-82 220h-329l-82 -220h-21l254 681q-28 5 -46.5 27t-18.5 51q0 32 23 55t56 23q32 0 55 -23t23 -55q0 -29 -18.5 -51t-45.5 -27zM356 759q0 24 -17 41t-41 17q-25 0 -42 -17t-17 -41q0 -25 17 -42t42 -17q24 0 41 17t17 42zM141 240h314l-157 421z
" />
    <glyph glyph-name="AE" unicode="&#xc6;" horiz-adv-x="898" 
d="M833 20v-20h-417v220h-240l-123 -220h-23l386 690h417v-20h-397v-315h350v-20h-350v-315h397zM187 240h229v409z" />
    <glyph glyph-name="Ccedilla" unicode="&#xc7;" horiz-adv-x="685" 
d="M617 176l18 -7q-34 -81 -98.5 -127t-151.5 -51l-16 -28q23 -1 41.5 -11t18.5 -31q0 -22 -19.5 -34.5t-43.5 -12.5t-51 12l7 18q23 -10 44 -10q14 0 28.5 6.5t14.5 19.5q0 23 -42 23q-1 0 -34 -3l29 50q-99 1 -168.5 51.5t-101.5 128.5t-32 175q0 151 78.5 253t225.5 102
q94 0 164.5 -46t106.5 -132l-18 -8q-34 81 -99.5 123.5t-153.5 42.5q-94 0 -159.5 -47.5t-95 -121.5t-29.5 -166t29.5 -166t95 -121.5t159.5 -47.5q88 0 153.5 42.5t99.5 123.5z" />
    <glyph glyph-name="Egrave" unicode="&#xc8;" horiz-adv-x="577" 
d="M239 870l113 -112l-14 -15l-113 113zM512 20v-20h-417v690h417v-20h-397v-315h350v-20h-350v-315h397z" />
    <glyph glyph-name="Eacute" unicode="&#xc9;" horiz-adv-x="577" 
d="M338 870l14 -14l-113 -113l-14 15zM512 20v-20h-417v690h417v-20h-397v-315h350v-20h-350v-315h397z" />
    <glyph glyph-name="Ecircumflex" unicode="&#xca;" horiz-adv-x="577" 
d="M299 870l112 -112l-14 -15l-99 99l-98 -99l-14 15zM512 20v-20h-417v690h417v-20h-397v-315h350v-20h-350v-315h397z" />
    <glyph glyph-name="Edieresis" unicode="&#xcb;" horiz-adv-x="577" 
d="M224 850v-99h-20v99h20zM374 850v-99h-20v99h20zM512 20v-20h-417v690h417v-20h-397v-315h350v-20h-350v-315h397z" />
    <glyph glyph-name="Igrave" unicode="&#xcc;" horiz-adv-x="210" 
d="M6 870l112 -112l-14 -15l-112 113zM115 690v-690h-20v690h20z" />
    <glyph glyph-name="Iacute" unicode="&#xcd;" horiz-adv-x="210" 
d="M204 870l14 -14l-112 -113l-14 15zM115 690v-690h-20v690h20z" />
    <glyph glyph-name="Icircumflex" unicode="&#xce;" horiz-adv-x="210" 
d="M105 870l112 -112l-14 -15l-98 99l-98 -99l-14 15zM115 690v-690h-20v690h20z" />
    <glyph glyph-name="Idieresis" unicode="&#xcf;" horiz-adv-x="210" 
d="M40 850v-99h-20v99h20zM190 850v-99h-20v99h20zM115 690v-690h-20v690h20z" />
    <glyph glyph-name="Eth" unicode="&#xd0;" horiz-adv-x="662" 
d="M95 690h158q169 0 256.5 -87.5t87.5 -257.5t-87.5 -257.5t-256.5 -87.5h-158v321h-75v20h75v349zM115 20h138q324 0 324 325t-324 325h-138v-329h240v-20h-240v-301z" />
    <glyph glyph-name="Ntilde" unicode="&#xd1;" horiz-adv-x="652" 
d="M452 835l20 -2q-4 -36 -22 -61t-51 -25q-32 0 -76.5 35.5t-70.5 35.5q-24 0 -36.5 -21t-15.5 -48l-20 3q4 35 22.5 60.5t50.5 25.5t76.5 -35.5t69.5 -35.5q24 0 37 20.5t16 47.5zM557 690v-690h-22l-420 656v-656h-20v690h22l420 -656v656h20z" />
    <glyph glyph-name="Ograve" unicode="&#xd2;" horiz-adv-x="728" 
d="M265 870l113 -112l-15 -15l-112 113zM668 345q0 -98 -32 -176.5t-102.5 -128.5t-169.5 -50q-147 0 -225.5 102t-78.5 253t78.5 253t225.5 102q99 0 169.5 -50t102.5 -128.5t32 -176.5zM648 345q0 92 -29.5 166t-95 121.5t-159.5 47.5t-159.5 -47.5t-95 -121.5t-29.5 -166
t29.5 -166t95 -121.5t159.5 -47.5t159.5 47.5t95 121.5t29.5 166z" />
    <glyph glyph-name="Oacute" unicode="&#xd3;" horiz-adv-x="728" 
d="M463 870l15 -14l-113 -113l-14 15zM668 345q0 -98 -32 -176.5t-102.5 -128.5t-169.5 -50q-147 0 -225.5 102t-78.5 253t78.5 253t225.5 102q99 0 169.5 -50t102.5 -128.5t32 -176.5zM648 345q0 92 -29.5 166t-95 121.5t-159.5 47.5t-159.5 -47.5t-95 -121.5t-29.5 -166
t29.5 -166t95 -121.5t159.5 -47.5t159.5 47.5t95 121.5t29.5 166z" />
    <glyph glyph-name="Ocircumflex" unicode="&#xd4;" horiz-adv-x="728" 
d="M364 870l113 -112l-14 -15l-99 99l-98 -99l-14 15zM668 345q0 -98 -32 -176.5t-102.5 -128.5t-169.5 -50q-147 0 -225.5 102t-78.5 253t78.5 253t225.5 102q99 0 169.5 -50t102.5 -128.5t32 -176.5zM648 345q0 92 -29.5 166t-95 121.5t-159.5 47.5t-159.5 -47.5
t-95 -121.5t-29.5 -166t29.5 -166t95 -121.5t159.5 -47.5t159.5 47.5t95 121.5t29.5 166z" />
    <glyph glyph-name="Otilde" unicode="&#xd5;" horiz-adv-x="728" 
d="M491 835l20 -2q-4 -36 -22.5 -61t-51.5 -25q-32 0 -76.5 35.5t-69.5 35.5q-24 0 -37 -21t-16 -48l-20 3q4 35 22.5 60.5t50.5 25.5t76.5 -35.5t70.5 -35.5q24 0 36.5 20.5t16.5 47.5zM668 345q0 -98 -32 -176.5t-102.5 -128.5t-169.5 -50q-147 0 -225.5 102t-78.5 253
t78.5 253t225.5 102q99 0 169.5 -50t102.5 -128.5t32 -176.5zM648 345q0 92 -29.5 166t-95 121.5t-159.5 47.5t-159.5 -47.5t-95 -121.5t-29.5 -166t29.5 -166t95 -121.5t159.5 -47.5t159.5 47.5t95 121.5t29.5 166z" />
    <glyph glyph-name="Odieresis" unicode="&#xd6;" horiz-adv-x="728" 
d="M299 850v-99h-20v99h20zM449 850v-99h-20v99h20zM668 345q0 -98 -32 -176.5t-102.5 -128.5t-169.5 -50q-147 0 -225.5 102t-78.5 253t78.5 253t225.5 102q99 0 169.5 -50t102.5 -128.5t32 -176.5zM648 345q0 92 -29.5 166t-95 121.5t-159.5 47.5t-159.5 -47.5t-95 -121.5
t-29.5 -166t29.5 -166t95 -121.5t159.5 -47.5t159.5 47.5t95 121.5t29.5 166z" />
    <glyph glyph-name="multiply" unicode="&#xd7;" horiz-adv-x="375" 
d="M299 368l14 -14l-111 -112l111 -111l-14 -14l-111 111l-112 -111l-14 14l111 112l-111 111l14 14l112 -111z" />
    <glyph glyph-name="Oslash" unicode="&#xd8;" horiz-adv-x="728" 
d="M722 697l13 -14l-123 -117q56 -90 56 -221q0 -98 -32 -176.5t-102.5 -128.5t-169.5 -50q-155 0 -237 117l-120 -114l-14 14l123 117q-56 90 -56 221q0 151 78.5 253t225.5 102q155 0 237 -117zM131 138l456 431q-77 111 -223 111q-94 0 -159.5 -47.5t-95 -121.5
t-29.5 -166q0 -122 51 -207zM598 552l-456 -431q75 -111 222 -111q94 0 159.5 47.5t95 121.5t29.5 166q0 122 -50 207z" />
    <glyph glyph-name="Ugrave" unicode="&#xd9;" horiz-adv-x="704" 
d="M265 870l113 -112l-15 -15l-112 113zM614 690v-413q0 -131 -66.5 -209t-195.5 -78t-195.5 78t-66.5 209v413h20v-413q0 -123 61 -195t181 -72t181 72t61 195v413h20z" />
    <glyph glyph-name="Uacute" unicode="&#xda;" horiz-adv-x="704" 
d="M453 870l15 -14l-113 -113l-14 15zM614 690v-413q0 -131 -66.5 -209t-195.5 -78t-195.5 78t-66.5 209v413h20v-413q0 -123 61 -195t181 -72t181 72t61 195v413h20z" />
    <glyph glyph-name="Ucircumflex" unicode="&#xdb;" horiz-adv-x="704" 
d="M352 870l112 -112l-14 -15l-98 99l-98 -99l-14 15zM614 690v-413q0 -131 -66.5 -209t-195.5 -78t-195.5 78t-66.5 209v413h20v-413q0 -123 61 -195t181 -72t181 72t61 195v413h20z" />
    <glyph glyph-name="Udieresis" unicode="&#xdc;" horiz-adv-x="704" 
d="M287 850v-99h-20v99h20zM437 850v-99h-20v99h20zM614 690v-413q0 -131 -66.5 -209t-195.5 -78t-195.5 78t-66.5 209v413h20v-413q0 -123 61 -195t181 -72t181 72t61 195v413h20z" />
    <glyph glyph-name="Yacute" unicode="&#xdd;" horiz-adv-x="606" 
d="M398 870l14 -14l-113 -113l-14 15zM552 690h24l-263 -423v-277h-20v277l-263 423h24l249 -401z" />
    <glyph glyph-name="Thorn" unicode="&#xde;" horiz-adv-x="587" 
d="M115 610h227q84 0 144.5 -47.5t60.5 -129.5t-60.5 -130t-144.5 -48h-227v-255h-20v740h20v-130zM115 275h227q76 0 130.5 42t54.5 116q0 73 -54.5 115t-130.5 42h-227v-315z" />
    <glyph glyph-name="germandbls" unicode="&#xdf;" horiz-adv-x="535" 
d="M90 0v536q0 76 51.5 120t129.5 44q67 0 121.5 -41.5t54.5 -106.5q0 -28 -18 -51.5t-40 -37.5t-40 -35t-18 -45q0 -21 25 -50t54.5 -55t54.5 -65.5t25 -79.5q0 -63 -41 -103t-104 -40q-59 0 -128 33l8 18q69 -31 120 -31q54 0 89.5 34t35.5 88q0 31 -16.5 61t-40 53.5
t-46.5 45.5t-39.5 45.5t-16.5 45.5q0 29 18 52.5t39.5 36.5t39.5 34t18 46q0 57 -48 92.5t-107 35.5q-70 0 -115.5 -38t-45.5 -106v-536h-20z" />
    <glyph glyph-name="agrave" unicode="&#xe0;" horiz-adv-x="510" 
d="M155 690l112 -112l-14 -15l-112 113zM425 331v-331h-20v142q-21 -71 -76.5 -111.5t-127.5 -40.5q-64 0 -105 33.5t-41 96.5q0 83 60.5 121.5t148.5 38.5h141v51q0 64 -41.5 104t-106.5 40q-114 0 -155 -99l-18 8q46 111 173 111q73 0 120.5 -45.5t47.5 -118.5zM405 220
v40h-141q-79 0 -134 -33t-55 -107q0 -55 35 -82.5t91 -27.5q84 0 144 63t60 147z" />
    <glyph glyph-name="aacute" unicode="&#xe1;" horiz-adv-x="510" 
d="M348 690l14 -14l-112 -113l-14 15zM425 331v-331h-20v142q-21 -71 -76.5 -111.5t-127.5 -40.5q-64 0 -105 33.5t-41 96.5q0 83 60.5 121.5t148.5 38.5h141v51q0 64 -41.5 104t-106.5 40q-114 0 -155 -99l-18 8q46 111 173 111q73 0 120.5 -45.5t47.5 -118.5zM405 220v40
h-141q-79 0 -134 -33t-55 -107q0 -55 35 -82.5t91 -27.5q84 0 144 63t60 147z" />
    <glyph glyph-name="acircumflex" unicode="&#xe2;" horiz-adv-x="510" 
d="M245 690l112 -112l-14 -15l-98 99l-98 -99l-14 15zM425 331v-331h-20v142q-21 -71 -76.5 -111.5t-127.5 -40.5q-64 0 -105 33.5t-41 96.5q0 83 60.5 121.5t148.5 38.5h141v51q0 64 -41.5 104t-106.5 40q-114 0 -155 -99l-18 8q46 111 173 111q73 0 120.5 -45.5
t47.5 -118.5zM405 220v40h-141q-79 0 -134 -33t-55 -107q0 -55 35 -82.5t91 -27.5q84 0 144 63t60 147z" />
    <glyph glyph-name="atilde" unicode="&#xe3;" horiz-adv-x="510" 
d="M381 655l20 -2q-4 -35 -22.5 -60.5t-50.5 -25.5t-76.5 35.5t-70.5 35.5q-44 0 -53 -69l-19 3q3 34 22 60t51 26t76.5 -35.5t69.5 -35.5q24 0 37 20.5t16 47.5zM425 331v-331h-20v142q-21 -71 -76.5 -111.5t-127.5 -40.5q-64 0 -105 33.5t-41 96.5q0 83 60.5 121.5
t148.5 38.5h141v51q0 64 -41.5 104t-106.5 40q-114 0 -155 -99l-18 8q46 111 173 111q73 0 120.5 -45.5t47.5 -118.5zM405 220v40h-141q-79 0 -134 -33t-55 -107q0 -55 35 -82.5t91 -27.5q84 0 144 63t60 147z" />
    <glyph glyph-name="adieresis" unicode="&#xe4;" horiz-adv-x="510" 
d="M180 690v-99h-20v99h20zM330 690v-99h-20v99h20zM425 331v-331h-20v142q-21 -71 -76.5 -111.5t-127.5 -40.5q-64 0 -105 33.5t-41 96.5q0 83 60.5 121.5t148.5 38.5h141v51q0 64 -41.5 104t-106.5 40q-114 0 -155 -99l-18 8q46 111 173 111q73 0 120.5 -45.5t47.5 -118.5
zM405 220v40h-141q-79 0 -134 -33t-55 -107q0 -55 35 -82.5t91 -27.5q84 0 144 63t60 147z" />
    <glyph glyph-name="aring" unicode="&#xe5;" horiz-adv-x="510" 
d="M333 639q0 -33 -23 -56t-55 -23t-55.5 23t-23.5 56q0 32 23.5 55t55.5 23t55 -23t23 -55zM313 639q0 24 -17 41t-41 17t-41.5 -17t-17.5 -41q0 -25 17.5 -42t41.5 -17t41 17t17 42zM425 331v-331h-20v142q-21 -71 -76.5 -111.5t-127.5 -40.5q-64 0 -105 33.5t-41 96.5
q0 83 60.5 121.5t148.5 38.5h141v51q0 64 -41.5 104t-106.5 40q-114 0 -155 -99l-18 8q46 111 173 111q73 0 120.5 -45.5t47.5 -118.5zM405 220v40h-141q-79 0 -134 -33t-55 -107q0 -55 35 -82.5t91 -27.5q84 0 144 63t60 147z" />
    <glyph glyph-name="ae" unicode="&#xe6;" horiz-adv-x="871" 
d="M102 376l-18 8q45 111 173 111q65 0 111 -37.5t55 -100.5q23 66 71 102t116 36q105 0 155.5 -74.5t50.5 -184.5h-391q2 -60 20.5 -109.5t61 -83t103.5 -33.5q116 0 163 110l18 -8q-24 -58 -71 -90t-110 -32q-77 0 -127 45.5t-69 122.5q-21 -75 -75 -121.5t-138 -46.5
q-64 0 -105 33.5t-41 96.5q0 83 60.5 121.5t148.5 38.5h141v51q0 64 -41.5 104t-106.5 40q-115 0 -155 -99zM425 253h371q-2 93 -49 157.5t-137 64.5q-89 0 -136 -64t-49 -158zM405 220v40h-141q-79 0 -134 -33t-55 -107q0 -54 35 -82t91 -28q84 0 144 63t60 147z" />
    <glyph glyph-name="ccedilla" unicode="&#xe7;" horiz-adv-x="482" 
d="M423 119l19 -7q-50 -114 -168 -122l-16 -27q23 -1 41.5 -11t18.5 -31q0 -22 -19.5 -34.5t-43.5 -12.5t-51 12l8 18q22 -10 43 -10q14 0 28.5 6.5t14.5 19.5q0 23 -42 23q-1 0 -34 -3l29 50q-65 3 -111 40.5t-65.5 92t-19.5 120.5q0 105 52.5 178.5t153.5 73.5
q128 0 180 -121l-18 -8q-47 109 -162 109q-93 0 -139.5 -67.5t-46.5 -164.5t46.5 -165t139.5 -68q115 0 162 109z" />
    <glyph glyph-name="egrave" unicode="&#xe8;" horiz-adv-x="511" 
d="M155 690l112 -112l-14 -15l-112 113zM466 243v-7h-391q2 -95 49 -160.5t137 -65.5q115 0 162 110l19 -8q-25 -58 -72 -90t-109 -32q-102 0 -154 73.5t-52 179.5t52 179t154 73q101 0 153 -73.5t52 -178.5zM75 253h371q-2 93 -49 157.5t-136 64.5q-90 0 -137 -64t-49 -158
z" />
    <glyph glyph-name="eacute" unicode="&#xe9;" horiz-adv-x="511" 
d="M355 690l14 -14l-112 -113l-15 15zM466 243v-7h-391q2 -95 49 -160.5t137 -65.5q115 0 162 110l19 -8q-25 -58 -72 -90t-109 -32q-102 0 -154 73.5t-52 179.5t52 179t154 73q101 0 153 -73.5t52 -178.5zM75 253h371q-2 93 -49 157.5t-136 64.5q-90 0 -137 -64t-49 -158z
" />
    <glyph glyph-name="ecircumflex" unicode="&#xea;" horiz-adv-x="511" 
d="M256 690l112 -112l-14 -15l-98 99l-99 -99l-14 15zM466 243v-7h-391q2 -95 49 -160.5t137 -65.5q115 0 162 110l19 -8q-25 -58 -72 -90t-109 -32q-102 0 -154 73.5t-52 179.5t52 179t154 73q101 0 153 -73.5t52 -178.5zM75 253h371q-2 93 -49 157.5t-136 64.5
q-90 0 -137 -64t-49 -158z" />
    <glyph glyph-name="edieresis" unicode="&#xeb;" horiz-adv-x="511" 
d="M191 690v-99h-20v99h20zM341 690v-99h-20v99h20zM466 243v-7h-391q2 -95 49 -160.5t137 -65.5q115 0 162 110l19 -8q-25 -58 -72 -90t-109 -32q-102 0 -154 73.5t-52 179.5t52 179t154 73q101 0 153 -73.5t52 -178.5zM75 253h371q-2 93 -49 157.5t-136 64.5
q-90 0 -137 -64t-49 -158z" />
    <glyph glyph-name="igrave" unicode="&#xec;" horiz-adv-x="190" 
d="M0 690l112 -112l-14 -15l-113 113zM105 485v-485h-20v485h20z" />
    <glyph glyph-name="iacute" unicode="&#xed;" horiz-adv-x="190" 
d="M193 690l14 -14l-112 -113l-15 15zM105 485v-485h-20v485h20z" />
    <glyph glyph-name="icircumflex" unicode="&#xee;" horiz-adv-x="190" 
d="M95 690l112 -112l-14 -15l-98 99l-98 -99l-14 15zM105 485v-485h-20v485h20z" />
    <glyph glyph-name="idieresis" unicode="&#xef;" horiz-adv-x="190" 
d="M30 690v-99h-20v99h20zM180 690v-99h-20v99h20zM105 485v-485h-20v485h20z" />
    <glyph glyph-name="eth" unicode="&#xf0;" horiz-adv-x="556" 
d="M556 616v-20h-90v-596h-20v123q-24 -63 -71.5 -98t-113.5 -35q-102 0 -154 73.5t-52 179.5t52 179t154 73q66 0 113.5 -35t71.5 -98v234h-225v20h225v124h20v-124h90zM446 243q0 97 -46.5 164.5t-138.5 67.5q-93 0 -139.5 -67.5t-46.5 -164.5t46.5 -165t139.5 -68
q92 0 138.5 68t46.5 165z" />
    <glyph glyph-name="ntilde" unicode="&#xf1;" horiz-adv-x="556" 
d="M414 655l20 -2q-4 -36 -22 -61t-51 -25q-32 0 -76.5 35.5t-70.5 35.5q-24 0 -36.5 -21t-15.5 -48l-20 3q4 35 22.5 60.5t50.5 25.5t76.5 -35.5t69.5 -35.5q24 0 37 20.5t16 47.5zM471 293v-293h-20v293q0 182 -146 182q-73 0 -121.5 -45t-67.5 -118q-6 -27 -6 -30v-282
h-20v485h20v-127q26 63 77.5 100t117.5 37q87 0 126.5 -56t39.5 -146z" />
    <glyph glyph-name="ograve" unicode="&#xf2;" horiz-adv-x="521" 
d="M163 690l112 -112l-14 -15l-112 113zM466 243q0 -106 -52 -179.5t-153 -73.5q-102 0 -154 73.5t-52 179.5t52 179t154 73q101 0 153 -73.5t52 -178.5zM446 243q0 97 -46.5 164.5t-138.5 67.5q-93 0 -139.5 -67.5t-46.5 -164.5t46.5 -165t139.5 -68q92 0 138.5 68
t46.5 165z" />
    <glyph glyph-name="oacute" unicode="&#xf3;" horiz-adv-x="521" 
d="M360 690l14 -14l-113 -113l-14 15zM466 243q0 -106 -52 -179.5t-153 -73.5q-102 0 -154 73.5t-52 179.5t52 179t154 73q101 0 153 -73.5t52 -178.5zM446 243q0 97 -46.5 164.5t-138.5 67.5q-93 0 -139.5 -67.5t-46.5 -164.5t46.5 -165t139.5 -68q92 0 138.5 68t46.5 165z
" />
    <glyph glyph-name="ocircumflex" unicode="&#xf4;" horiz-adv-x="521" 
d="M261 690l112 -112l-14 -15l-98 99l-99 -99l-14 15zM466 243q0 -106 -52 -179.5t-153 -73.5q-102 0 -154 73.5t-52 179.5t52 179t154 73q101 0 153 -73.5t52 -178.5zM446 243q0 97 -46.5 164.5t-138.5 67.5q-93 0 -139.5 -67.5t-46.5 -164.5t46.5 -165t139.5 -68
q92 0 138.5 68t46.5 165z" />
    <glyph glyph-name="otilde" unicode="&#xf5;" horiz-adv-x="521" 
d="M387 655l20 -2q-4 -35 -22.5 -60.5t-50.5 -25.5t-76.5 35.5t-70.5 35.5q-44 0 -53 -69l-20 3q4 35 22.5 60.5t50.5 25.5t76.5 -35.5t70.5 -35.5q24 0 37 20.5t16 47.5zM466 243q0 -106 -52 -179.5t-153 -73.5q-102 0 -154 73.5t-52 179.5t52 179t154 73q101 0 153 -73.5
t52 -178.5zM446 243q0 97 -46.5 164.5t-138.5 67.5q-93 0 -139.5 -67.5t-46.5 -164.5t46.5 -165t139.5 -68q92 0 138.5 68t46.5 165z" />
    <glyph glyph-name="odieresis" unicode="&#xf6;" horiz-adv-x="521" 
d="M196 690v-99h-20v99h20zM346 690v-99h-20v99h20zM466 243q0 -106 -52 -179.5t-153 -73.5q-102 0 -154 73.5t-52 179.5t52 179t154 73q101 0 153 -73.5t52 -178.5zM446 243q0 97 -46.5 164.5t-138.5 67.5q-93 0 -139.5 -67.5t-46.5 -164.5t46.5 -165t139.5 -68
q92 0 138.5 68t46.5 165z" />
    <glyph glyph-name="divide" unicode="&#xf7;" horiz-adv-x="550" 
d="M50 286v73h451v-73h-451zM219 156q0 17 4.5 28.5t12 19t17.5 10.5t22 3q11 0 21.5 -3t18 -10.5t12 -19t4.5 -28.5q0 -16 -4.5 -27.5t-12 -19t-18 -11t-21.5 -3.5q-12 0 -22 3.5t-17.5 11t-12 19t-4.5 27.5zM219 497q0 17 4.5 28.5t12 19t17.5 10.5t22 3q11 0 21.5 -3
t18 -10.5t12 -19t4.5 -28.5q0 -16 -4.5 -27.5t-12 -19t-18 -11t-21.5 -3.5q-12 0 -22 3.5t-17.5 11t-12 19t-4.5 27.5zM221 622z" />
    <glyph glyph-name="oslash" unicode="&#xf8;" horiz-adv-x="521" 
d="M514 492l14 -14l-94 -88q32 -63 32 -147q0 -106 -52 -179.5t-153 -73.5q-108 0 -163 87l-91 -84l-14 14l94 88q-32 63 -32 148q0 106 52 179t154 73q107 0 162 -87zM103 109l306 285q-51 81 -148 81q-93 0 -139.5 -67.5t-46.5 -164.5q0 -75 28 -134zM418 376l-305 -285
q49 -81 148 -81q92 0 138.5 68t46.5 165q0 78 -28 133z" />
    <glyph glyph-name="ugrave" unicode="&#xf9;" horiz-adv-x="556" 
d="M185 690l112 -112l-14 -15l-112 113zM466 485v-485h-20v127q-26 -63 -77.5 -100t-117.5 -37q-87 0 -126.5 56t-39.5 146v293h20v-293q0 -182 146 -182q73 0 121.5 45t67.5 118q6 27 6 30v282h20z" />
    <glyph glyph-name="uacute" unicode="&#xfa;" horiz-adv-x="556" 
d="M357 690l14 -14l-112 -113l-14 15zM466 485v-485h-20v127q-26 -63 -77.5 -100t-117.5 -37q-87 0 -126.5 56t-39.5 146v293h20v-293q0 -182 146 -182q73 0 121.5 45t67.5 118q6 27 6 30v282h20z" />
    <glyph glyph-name="ucircumflex" unicode="&#xfb;" horiz-adv-x="556" 
d="M268 690l112 -112l-14 -15l-98 99l-98 -99l-14 15zM466 485v-485h-20v127q-26 -63 -77.5 -100t-117.5 -37q-87 0 -126.5 56t-39.5 146v293h20v-293q0 -182 146 -182q73 0 121.5 45t67.5 118q6 27 6 30v282h20z" />
    <glyph glyph-name="udieresis" unicode="&#xfc;" horiz-adv-x="556" 
d="M213 690v-99h-20v99h20zM363 690v-99h-20v99h20zM466 485v-485h-20v127q-26 -63 -77.5 -100t-117.5 -37q-87 0 -126.5 56t-39.5 146v293h20v-293q0 -182 146 -182q73 0 121.5 45t67.5 118q6 27 6 30v282h20z" />
    <glyph glyph-name="yacute" unicode="&#xfd;" horiz-adv-x="430" 
d="M308 690l14 -14l-112 -113l-14 15zM389 485h21l-259 -698h-22l76 203l-185 495h21l174 -467z" />
    <glyph glyph-name="thorn" unicode="&#xfe;" horiz-adv-x="556" 
d="M110 740v-377q52 132 186 132q101 0 153 -73.5t52 -178.5q0 -106 -52 -179.5t-153 -73.5q-134 0 -186 132v-338h-20v459v497h20zM481 243q0 97 -46.5 164.5t-138.5 67.5q-93 0 -139.5 -67.5t-46.5 -164.5t46.5 -165t139.5 -68q92 0 138.5 68t46.5 165z" />
    <glyph glyph-name="ydieresis" unicode="&#xff;" horiz-adv-x="430" 
d="M150 690v-99h-20v99h20zM300 690v-99h-20v99h20zM389 485h21l-259 -698h-22l76 203l-185 495h21l174 -467z" />
    <glyph glyph-name="Amacron" unicode="&#x100;" horiz-adv-x="639" 
d="M178 842h297v-71h-297v71zM308 690l258 -690h-22l-82 220h-329l-82 -220h-21l257 690h21zM141 240h314l-157 421z" />
    <glyph glyph-name="amacron" unicode="&#x101;" horiz-adv-x="561" 
d="M143 677h297v-71h-297v71zM425 331v-331h-20v142q-21 -71 -76.5 -111.5t-127.5 -40.5q-64 0 -105 33.5t-41 96.5q0 83 60.5 121.5t148.5 38.5h141v51q0 64 -41.5 104t-106.5 40q-114 0 -155 -99l-18 8q46 111 173 111q73 0 120.5 -45.5t47.5 -118.5zM405 220v40h-141
q-79 0 -134 -33t-55 -107q0 -55 35 -82.5t91 -27.5q84 0 144 63t60 147z" />
    <glyph glyph-name="Abreve" unicode="&#x102;" horiz-adv-x="639" 
d="M316 771q-69 0 -108.5 33.5t-44.5 100.5h54q4 -35 24.5 -49t76.5 -14q49 0 73 15.5t28 47.5h55q-6 -64 -48 -99t-110 -35zM308 690l258 -690h-22l-82 220h-329l-82 -220h-21l257 690h21zM141 240h314l-157 421z" />
    <glyph glyph-name="abreve" unicode="&#x103;" horiz-adv-x="561" 
d="M281 606q-69 0 -108.5 33.5t-44.5 100.5h54q4 -35 24.5 -49t76.5 -14q49 0 73 15.5t28 47.5h55q-6 -64 -48 -99t-110 -35zM425 331v-331h-20v142q-21 -71 -76.5 -111.5t-127.5 -40.5q-64 0 -105 33.5t-41 96.5q0 83 60.5 121.5t148.5 38.5h141v51q0 64 -41.5 104
t-106.5 40q-114 0 -155 -99l-18 8q46 111 173 111q73 0 120.5 -45.5t47.5 -118.5zM405 220v40h-141q-79 0 -134 -33t-55 -107q0 -55 35 -82.5t91 -27.5q84 0 144 63t60 147z" />
    <glyph glyph-name="Aogonek" unicode="&#x104;" horiz-adv-x="639" 
d="M540 -116q0 -22 12 -33.5t33 -11.5t48 6v-56q-34 -9 -62 -9q-103 0 -103 94q0 68 78 126h62q-34 -32 -51 -58.5t-17 -57.5zM308 690l258 -690h-22l-82 220h-329l-82 -220h-21l257 690h21zM141 240h314l-157 421z" />
    <glyph glyph-name="aogonek" unicode="&#x105;" horiz-adv-x="561" 
d="M410 -116q0 -22 12 -33.5t33 -11.5t48 6v-56q-34 -9 -62 -9q-103 0 -103 94q0 68 78 126h62q-34 -32 -51 -58.5t-17 -57.5zM425 331v-331h-20v142q-21 -71 -76.5 -111.5t-127.5 -40.5q-64 0 -105 33.5t-41 96.5q0 83 60.5 121.5t148.5 38.5h141v51q0 64 -41.5 104
t-106.5 40q-114 0 -155 -99l-18 8q46 111 173 111q73 0 120.5 -45.5t47.5 -118.5zM405 220v40h-141q-79 0 -134 -33t-55 -107q0 -55 35 -82.5t91 -27.5q84 0 144 63t60 147z" />
    <glyph glyph-name="Cacute" unicode="&#x106;" horiz-adv-x="631" 
d="M617 176l18 -7q-36 -87 -106.5 -133t-164.5 -46q-147 0 -225.5 102t-78.5 253t78.5 253t225.5 102q94 0 164.5 -46t106.5 -132l-18 -8q-34 81 -99.5 123.5t-153.5 42.5q-94 0 -159.5 -47.5t-95 -121.5t-29.5 -166t29.5 -166t95 -121.5t159.5 -47.5q88 0 153.5 42.5
t99.5 123.5zM227 855l14 -14l-112 -113l-14 15z" />
    <glyph glyph-name="cacute" unicode="&#x107;" horiz-adv-x="479" 
d="M423 119l19 -7q-25 -58 -72 -90t-109 -32q-101 0 -153.5 73.5t-52.5 179.5q0 105 52.5 178.5t153.5 73.5q128 0 180 -121l-18 -8q-47 109 -162 109q-93 0 -139.5 -67.5t-46.5 -164.5t46.5 -165t139.5 -68q115 0 162 109zM133 690l14 -14l-112 -113l-14 15z" />
    <glyph glyph-name="Ccircumflex" unicode="&#x108;" horiz-adv-x="631" 
d="M220 782q61 65 86 96.5t37 52.5h90q25 -49 125 -149v-11h-62q-44 26 -109 90q-64 -62 -107 -90h-60v11zM617 176l18 -7q-36 -87 -106.5 -133t-164.5 -46q-147 0 -225.5 102t-78.5 253t78.5 253t225.5 102q94 0 164.5 -46t106.5 -132l-18 -8q-34 81 -99.5 123.5
t-153.5 42.5q-94 0 -159.5 -47.5t-95 -121.5t-29.5 -166t29.5 -166t95 -121.5t159.5 -47.5q88 0 153.5 42.5t99.5 123.5z" />
    <glyph glyph-name="ccircumflex" unicode="&#x109;" horiz-adv-x="479" 
d="M118 617q61 65 86 96.5t37 52.5h90q25 -49 125 -149v-11h-62q-44 26 -109 90q-64 -62 -107 -90h-60v11zM423 119l19 -7q-25 -58 -72 -90t-109 -32q-101 0 -153.5 73.5t-52.5 179.5q0 105 52.5 178.5t153.5 73.5q128 0 180 -121l-18 -8q-47 109 -162 109
q-93 0 -139.5 -67.5t-46.5 -164.5t46.5 -165t139.5 -68q115 0 162 109z" />
    <glyph glyph-name="Cdotaccent" unicode="&#x10a;" horiz-adv-x="631" 
d="M337 846q0 29 15 42.5t37 13.5q21 0 36 -13.5t15 -42.5t-15.5 -42.5t-35.5 -13.5q-22 0 -37 13.5t-15 42.5zM617 176l18 -7q-36 -87 -106.5 -133t-164.5 -46q-147 0 -225.5 102t-78.5 253t78.5 253t225.5 102q94 0 164.5 -46t106.5 -132l-18 -8q-34 81 -99.5 123.5
t-153.5 42.5q-94 0 -159.5 -47.5t-95 -121.5t-29.5 -166t29.5 -166t95 -121.5t159.5 -47.5q88 0 153.5 42.5t99.5 123.5z" />
    <glyph glyph-name="cdotaccent" unicode="&#x10b;" horiz-adv-x="479" 
d="M241 681q0 29 15 42.5t37 13.5q21 0 36 -13.5t15 -42.5t-15.5 -42.5t-35.5 -13.5q-22 0 -37 13.5t-15 42.5zM423 119l19 -7q-25 -58 -72 -90t-109 -32q-101 0 -153.5 73.5t-52.5 179.5q0 105 52.5 178.5t153.5 73.5q128 0 180 -121l-18 -8q-47 109 -162 109
q-93 0 -139.5 -67.5t-46.5 -164.5t46.5 -165t139.5 -68q115 0 162 109z" />
    <glyph glyph-name="Ccaron" unicode="&#x10c;" horiz-adv-x="631" 
d="M220 931h60q56 -36 107 -92q62 62 109 92h62v-13q-100 -100 -125 -147h-90q-29 50 -123 147v13zM617 176l18 -7q-36 -87 -106.5 -133t-164.5 -46q-147 0 -225.5 102t-78.5 253t78.5 253t225.5 102q94 0 164.5 -46t106.5 -132l-18 -8q-34 81 -99.5 123.5t-153.5 42.5
q-94 0 -159.5 -47.5t-95 -121.5t-29.5 -166t29.5 -166t95 -121.5t159.5 -47.5q88 0 153.5 42.5t99.5 123.5z" />
    <glyph glyph-name="ccaron" unicode="&#x10d;" horiz-adv-x="479" 
d="M122 766h60q56 -36 107 -92q62 62 109 92h62v-13q-100 -100 -125 -147h-90q-29 50 -123 147v13zM423 119l19 -7q-25 -58 -72 -90t-109 -32q-101 0 -153.5 73.5t-52.5 179.5q0 105 52.5 178.5t153.5 73.5q128 0 180 -121l-18 -8q-47 109 -162 109q-93 0 -139.5 -67.5
t-46.5 -164.5t46.5 -165t139.5 -68q115 0 162 109z" />
    <glyph glyph-name="Dcaron" unicode="&#x10e;" horiz-adv-x="729" 
d="M170 931h60q56 -36 107 -92q62 62 109 92h62v-13q-100 -100 -125 -147h-90q-29 50 -123 147v13zM95 690h158q169 0 256.5 -87.5t87.5 -257.5t-87.5 -257.5t-256.5 -87.5h-158v690zM115 20h138q324 0 324 325t-324 325h-138v-650z" />
    <glyph glyph-name="dcaron" unicode="&#x10f;" horiz-adv-x="615" 
d="M575 612q11 32 20.5 77.5t12.5 70.5h87v-9q-6 -26 -27 -71t-45 -80h-48v12zM466 740v-740h-20v123q-24 -63 -71.5 -98t-113.5 -35q-102 0 -154 73.5t-52 179.5t52 179t154 73q66 0 113.5 -35t71.5 -98v378h20zM446 243q0 97 -46.5 164.5t-138.5 67.5q-93 0 -139.5 -67.5
t-46.5 -164.5t46.5 -165t139.5 -68q92 0 138.5 68t46.5 165z" />
    <glyph glyph-name="Dcroat" unicode="&#x110;" horiz-adv-x="729" 
d="M95 690h158q169 0 256.5 -87.5t87.5 -257.5t-87.5 -257.5t-256.5 -87.5h-158v321h-75v20h75v349zM115 20h138q324 0 324 325t-324 325h-138v-329h240v-20h-240v-301z" />
    <glyph glyph-name="dcroat" unicode="&#x111;" horiz-adv-x="617" 
d="M275 -10q-104 0 -162 72t-58 203q0 132 57.5 205t162.5 73q109 0 167 -79h6q-1 7 -3.5 33.5t-2.5 46.5v61h-213v66h213v89h88v-89h76v-66h-76v-605h-72l-13 72h-4q-56 -82 -166 -82zM290 63q80 0 116.5 43t36.5 142v17q0 112 -37 158.5t-118 46.5q-68 0 -104.5 -52
t-36.5 -154q0 -96 35 -148.5t108 -52.5z" />
    <glyph glyph-name="Emacron" unicode="&#x112;" horiz-adv-x="556" 
d="M148 842h297v-71h-297v71zM512 20v-20h-417v690h417v-20h-397v-315h350v-20h-350v-315h397z" />
    <glyph glyph-name="emacron" unicode="&#x113;" horiz-adv-x="563" 
d="M150 677h297v-71h-297v71zM466 243v-7h-391q2 -95 49 -160.5t137 -65.5q115 0 162 110l19 -8q-25 -58 -72 -90t-109 -32q-102 0 -154 73.5t-52 179.5t52 179t154 73q101 0 153 -73.5t52 -178.5zM75 253h371q-2 93 -49 157.5t-136 64.5q-90 0 -137 -64t-49 -158z" />
    <glyph glyph-name="Ebreve" unicode="&#x114;" horiz-adv-x="556" 
d="M299 771q-69 0 -108.5 33.5t-44.5 100.5h54q4 -35 24.5 -49t76.5 -14q49 0 73 15.5t28 47.5h55q-6 -64 -48 -99t-110 -35zM512 20v-20h-417v690h417v-20h-397v-315h350v-20h-350v-315h397z" />
    <glyph glyph-name="ebreve" unicode="&#x115;" horiz-adv-x="563" 
d="M292 606q-69 0 -108.5 33.5t-44.5 100.5h54q4 -35 24.5 -49t76.5 -14q49 0 73 15.5t28 47.5h55q-6 -64 -48 -99t-110 -35zM466 243v-7h-391q2 -95 49 -160.5t137 -65.5q115 0 162 110l19 -8q-25 -58 -72 -90t-109 -32q-102 0 -154 73.5t-52 179.5t52 179t154 73
q101 0 153 -73.5t52 -178.5zM75 253h371q-2 93 -49 157.5t-136 64.5q-90 0 -137 -64t-49 -158z" />
    <glyph glyph-name="Edotaccent" unicode="&#x116;" horiz-adv-x="556" 
d="M253 832q0 29 15 42.5t37 13.5q21 0 36 -13.5t15 -42.5t-15.5 -42.5t-35.5 -13.5q-22 0 -37 13.5t-15 42.5zM512 20v-20h-417v690h417v-20h-397v-315h350v-20h-350v-315h397z" />
    <glyph glyph-name="edotaccent" unicode="&#x117;" horiz-adv-x="563" 
d="M243 681q0 29 15 42.5t37 13.5q21 0 36 -13.5t15 -42.5t-15.5 -42.5t-35.5 -13.5q-22 0 -37 13.5t-15 42.5zM466 243v-7h-391q2 -95 49 -160.5t137 -65.5q115 0 162 110l19 -8q-25 -58 -72 -90t-109 -32q-102 0 -154 73.5t-52 179.5t52 179t154 73q101 0 153 -73.5
t52 -178.5zM75 253h371q-2 93 -49 157.5t-136 64.5q-90 0 -137 -64t-49 -158z" />
    <glyph glyph-name="Eogonek" unicode="&#x118;" horiz-adv-x="556" 
d="M392 -116q0 -22 12 -33.5t33 -11.5t48 6v-56q-34 -9 -62 -9q-103 0 -103 94q0 68 78 126h62q-34 -32 -51 -58.5t-17 -57.5zM512 20v-20h-417v690h417v-20h-397v-315h350v-20h-350v-315h397z" />
    <glyph glyph-name="eogonek" unicode="&#x119;" horiz-adv-x="563" 
d="M387 -102q0 -22 12 -33.5t33 -11.5t48 6v-56q-34 -9 -62 -9q-103 0 -103 94q0 68 78 126h62q-34 -32 -51 -58.5t-17 -57.5zM466 243v-7h-391q2 -95 49 -160.5t137 -65.5q115 0 162 110l19 -8q-25 -58 -72 -90t-109 -32q-102 0 -154 73.5t-52 179.5t52 179t154 73
q101 0 153 -73.5t52 -178.5zM75 253h371q-2 93 -49 157.5t-136 64.5q-90 0 -137 -64t-49 -158z" />
    <glyph glyph-name="Ecaron" unicode="&#x11a;" horiz-adv-x="556" 
d="M133 931h60q56 -36 107 -92q62 62 109 92h62v-13q-100 -100 -125 -147h-90q-29 50 -123 147v13zM512 20v-20h-417v690h417v-20h-397v-315h350v-20h-350v-315h397z" />
    <glyph glyph-name="ecaron" unicode="&#x11b;" horiz-adv-x="563" 
d="M126 766h60q56 -36 107 -92q62 62 109 92h62v-13q-100 -100 -125 -147h-90q-29 50 -123 147v13zM466 243v-7h-391q2 -95 49 -160.5t137 -65.5q115 0 162 110l19 -8q-25 -58 -72 -90t-109 -32q-102 0 -154 73.5t-52 179.5t52 179t154 73q101 0 153 -73.5t52 -178.5z
M75 253h371q-2 93 -49 157.5t-136 64.5q-90 0 -137 -64t-49 -158z" />
    <glyph glyph-name="Gcircumflex" unicode="&#x11c;" horiz-adv-x="728" 
d="M248 782q61 65 86 96.5t37 52.5h90q25 -49 125 -149v-11h-62q-44 26 -109 90q-64 -62 -107 -90h-60v11zM609 316v-286q-79 -40 -219 -40q-165 0 -247.5 94t-82.5 261q0 95 29 173t96.5 130t163.5 52q98 0 164 -46t93 -128l-19 -8q-51 162 -238 162q-91 0 -153.5 -49.5
t-89 -123t-26.5 -162.5q0 -159 76.5 -247t233.5 -88q120 0 199 32v254h-225v20h245z" />
    <glyph glyph-name="gcircumflex" unicode="&#x11d;" horiz-adv-x="615" 
d="M132 617q61 65 86 96.5t37 52.5h90q25 -49 125 -149v-11h-62q-44 26 -109 90q-64 -62 -107 -90h-60v11zM466 485v-485q0 -88 -59 -150t-146 -62q-146 0 -197 123l19 8q45 -111 178 -111q79 0 132 56.5t53 135.5v123q-24 -63 -71.5 -98t-113.5 -35q-102 0 -154 73.5
t-52 179.5t52 179t154 73q66 0 113.5 -35t71.5 -98v123h20zM446 243q0 97 -46.5 164.5t-138.5 67.5q-93 0 -139.5 -67.5t-46.5 -164.5t46.5 -165t139.5 -68q92 0 138.5 68t46.5 165z" />
    <glyph glyph-name="Gbreve" unicode="&#x11e;" horiz-adv-x="728" 
d="M414 771q-69 0 -108.5 33.5t-44.5 100.5h54q4 -35 24.5 -49t76.5 -14q49 0 73 15.5t28 47.5h55q-6 -64 -48 -99t-110 -35zM609 316v-286q-79 -40 -219 -40q-165 0 -247.5 94t-82.5 261q0 95 29 173t96.5 130t163.5 52q98 0 164 -46t93 -128l-19 -8q-51 162 -238 162
q-91 0 -153.5 -49.5t-89 -123t-26.5 -162.5q0 -159 76.5 -247t233.5 -88q120 0 199 32v254h-225v20h245z" />
    <glyph glyph-name="gbreve" unicode="&#x11f;" horiz-adv-x="615" 
d="M300 606q-69 0 -108.5 33.5t-44.5 100.5h54q4 -35 24.5 -49t76.5 -14q49 0 73 15.5t28 47.5h55q-6 -64 -48 -99t-110 -35zM466 485v-485q0 -88 -59 -150t-146 -62q-146 0 -197 123l19 8q45 -111 178 -111q79 0 132 56.5t53 135.5v123q-24 -63 -71.5 -98t-113.5 -35
q-102 0 -154 73.5t-52 179.5t52 179t154 73q66 0 113.5 -35t71.5 -98v123h20zM446 243q0 97 -46.5 164.5t-138.5 67.5q-93 0 -139.5 -67.5t-46.5 -164.5t46.5 -165t139.5 -68q92 0 138.5 68t46.5 165z" />
    <glyph glyph-name="Gdotaccent" unicode="&#x120;" horiz-adv-x="728" 
d="M371 846q0 29 15 42.5t37 13.5q21 0 36 -13.5t15 -42.5t-15.5 -42.5t-35.5 -13.5q-22 0 -37 13.5t-15 42.5zM609 316v-286q-79 -40 -219 -40q-165 0 -247.5 94t-82.5 261q0 95 29 173t96.5 130t163.5 52q98 0 164 -46t93 -128l-19 -8q-51 162 -238 162
q-91 0 -153.5 -49.5t-89 -123t-26.5 -162.5q0 -159 76.5 -247t233.5 -88q120 0 199 32v254h-225v20h245z" />
    <glyph glyph-name="gdotaccent" unicode="&#x121;" horiz-adv-x="615" 
d="M247 681q0 29 15 42.5t37 13.5q21 0 36 -13.5t15 -42.5t-15.5 -42.5t-35.5 -13.5q-22 0 -37 13.5t-15 42.5zM466 485v-485q0 -88 -59 -150t-146 -62q-146 0 -197 123l19 8q45 -111 178 -111q79 0 132 56.5t53 135.5v123q-24 -63 -71.5 -98t-113.5 -35q-102 0 -154 73.5
t-52 179.5t52 179t154 73q66 0 113.5 -35t71.5 -98v123h20zM446 243q0 97 -46.5 164.5t-138.5 67.5q-93 0 -139.5 -67.5t-46.5 -164.5t46.5 -165t139.5 -68q92 0 138.5 68t46.5 165z" />
    <glyph glyph-name="uni0122" unicode="&#x122;" horiz-adv-x="728" 
d="M322 -209q11 25 24 70.5t17 77.5h87v-9q-8 -31 -31.5 -76.5t-48.5 -74.5h-48v12zM609 316v-286q-79 -40 -219 -40q-165 0 -247.5 94t-82.5 261q0 95 29 173t96.5 130t163.5 52q98 0 164 -46t93 -128l-19 -8q-51 162 -238 162q-91 0 -153.5 -49.5t-89 -123t-26.5 -162.5
q0 -159 76.5 -247t233.5 -88q120 0 199 32v254h-225v20h245z" />
    <glyph glyph-name="uni0123" unicode="&#x123;" horiz-adv-x="615" 
d="M379 754q-13 -29 -26 -74.5t-16 -73.5h-87v9q7 27 31.5 74t48.5 77h49v-12zM466 485v-485q0 -88 -59 -150t-146 -62q-146 0 -197 123l19 8q45 -111 178 -111q79 0 132 56.5t53 135.5v123q-24 -63 -71.5 -98t-113.5 -35q-102 0 -154 73.5t-52 179.5t52 179t154 73
q66 0 113.5 -35t71.5 -98v123h20zM446 243q0 97 -46.5 164.5t-138.5 67.5q-93 0 -139.5 -67.5t-46.5 -164.5t46.5 -165t139.5 -68q92 0 138.5 68t46.5 165z" />
    <glyph glyph-name="Hcircumflex" unicode="&#x124;" horiz-adv-x="741" 
d="M200 782q61 65 86 96.5t37 52.5h90q25 -49 125 -149v-11h-62q-44 26 -109 90q-64 -62 -107 -90h-60v11zM547 690v-690h-20v335h-412v-335h-20v690h20v-335h412v335h20z" />
    <glyph glyph-name="hcircumflex" unicode="&#x125;" horiz-adv-x="618" 
d="M143 809q61 65 86 96.5t37 52.5h90q25 -49 125 -149v-11h-62q-44 26 -109 90q-64 -62 -107 -90h-60v11zM471 293v-293h-20v293q0 182 -146 182q-73 0 -121.5 -45t-67.5 -118q-6 -27 -6 -30v-282h-20v740h20v-382q26 63 77.5 100t117.5 37q87 0 126.5 -56t39.5 -146z" />
    <glyph glyph-name="Hbar" unicode="&#x126;" horiz-adv-x="741" 
d="M97 595v119h90v-119h366v119h90v-119h97v-72h-97v-523h-90v333h-366v-333h-90v523h-97v72h97zM553 412v111h-366v-111h366z" />
    <glyph glyph-name="hbar" unicode="&#x127;" horiz-adv-x="618" 
d="M450 0v323q0 65 -29 97t-91 32q-83 0 -120 -45t-37 -149v-258h-88v604h-76v66h76v90h88v-90h212v-66h-212v-87q0 -43 -5 -74h6q26 42 70.5 62.5t97.5 20.5q97 0 146 -47t49 -150v-329h-87z" />
    <glyph glyph-name="Itilde" unicode="&#x128;" horiz-adv-x="338" 
d="M244 772q-21 0 -41 9t-39.5 19.5t-37 19.5t-34.5 9q-24 0 -36 -14.5t-19 -43.5h-51q6 60 34 94t76 34q22 0 42.5 -9t39.5 -19.5t37 -19.5t33 -9q23 0 35.5 14.5t19.5 43.5h50q-6 -58 -34 -93t-75 -35zM115 690v-690h-20v690h20z" />
    <glyph glyph-name="itilde" unicode="&#x129;" horiz-adv-x="257" 
d="M204 607q-21 0 -41 9t-39.5 19.5t-37 19.5t-34.5 9q-24 0 -36 -14.5t-19 -43.5h-51q6 60 34 94t76 34q22 0 42.5 -9t39.5 -19.5t37 -19.5t33 -9q23 0 35.5 14.5t19.5 43.5h50q-6 -58 -34 -93t-75 -35zM105 485v-485h-20v485h20z" />
    <glyph glyph-name="Imacron" unicode="&#x12a;" horiz-adv-x="338" 
d="M21 842h297v-71h-297v71zM115 690v-690h-20v690h20z" />
    <glyph glyph-name="imacron" unicode="&#x12b;" horiz-adv-x="257" 
d="M-18 677h297v-71h-297v71zM105 485v-485h-20v485h20z" />
    <glyph glyph-name="Ibreve" unicode="&#x12c;" horiz-adv-x="338" 
d="M168 771q-69 0 -108.5 33.5t-44.5 100.5h54q4 -35 24.5 -49t76.5 -14q49 0 73 15.5t28 47.5h55q-6 -64 -48 -99t-110 -35zM115 690v-690h-20v690h20z" />
    <glyph glyph-name="ibreve" unicode="&#x12d;" horiz-adv-x="257" 
d="M126 606q-69 0 -108.5 33.5t-44.5 100.5h54q4 -35 24.5 -49t76.5 -14q49 0 73 15.5t28 47.5h55q-6 -64 -48 -99t-110 -35zM105 485v-485h-20v485h20z" />
    <glyph glyph-name="Iogonek" unicode="&#x12e;" horiz-adv-x="338" 
d="M160 -116q0 -22 12 -33.5t33 -11.5t48 6v-56q-34 -9 -62 -9q-103 0 -103 94q0 68 78 126h62q-34 -32 -51 -58.5t-17 -57.5zM115 690v-690h-20v690h20z" />
    <glyph glyph-name="iogonek" unicode="&#x12f;" horiz-adv-x="257" 
d="M97 -116q0 -22 12 -33.5t33 -11.5t48 6v-56q-34 -9 -62 -9q-103 0 -103 94q0 68 78 126h62q-34 -32 -51 -58.5t-17 -57.5zM105 690v-99h-20v99h20zM105 485v-485h-20v485h20z" />
    <glyph glyph-name="Idotaccent" unicode="&#x130;" horiz-adv-x="338" 
d="M117 846q0 29 15 42.5t37 13.5q21 0 36 -13.5t15 -42.5t-15.5 -42.5t-35.5 -13.5q-22 0 -37 13.5t-15 42.5zM115 690v-690h-20v690h20z" />
    <glyph glyph-name="dotlessi" unicode="&#x131;" horiz-adv-x="190" 
d="M105 485v-485h-20v485h20z" />
    <glyph glyph-name="IJ" unicode="&#x132;" horiz-adv-x="611" 
d="M115 690v-690h-20v690h20zM809 690v-461q0 -109 -56 -174t-163 -65q-92 0 -148 50t-68 141l20 3q11 -84 61 -129t135 -45q99 0 149 59t50 160v461h20z" />
    <glyph glyph-name="ij" unicode="&#x133;" horiz-adv-x="514" 
d="M105 690v-99h-20v99h20zM105 485v-485h-20v485h20zM398 690v-99h-20v99h20zM398 485v-581q0 -119 -102 -119q-32 0 -70 10l5 20q35 -10 65 -10q46 0 64 25.5t18 73.5v581h20z" />
    <glyph glyph-name="Jcircumflex" unicode="&#x134;" horiz-adv-x="272" 
d="M-31 782q61 65 86 96.5t37 52.5h90q25 -49 125 -149v-11h-62q-44 26 -109 90q-64 -62 -107 -90h-60v11zM470 690v-461q0 -109 -56 -174t-163 -65q-92 0 -148 50t-68 141l20 3q11 -84 61 -129t135 -45q99 0 149 59t50 160v461h20z" />
    <glyph glyph-name="jcircumflex" unicode="&#x135;" horiz-adv-x="257" 
d="M-42 617q61 65 86 96.5t37 52.5h90q25 -49 125 -149v-11h-62q-44 26 -109 90q-64 -62 -107 -90h-60v11zM22 -240q-46 0 -77 12v71q34 -10 66 -10q38 0 56 21t18 63v619h88v-616q0 -80 -38.5 -120t-112.5 -40z" />
    <glyph glyph-name="uni0136" unicode="&#x136;" horiz-adv-x="619" 
d="M246 -209q11 25 24 70.5t17 77.5h87v-9q-8 -31 -31.5 -76.5t-48.5 -74.5h-48v12zM322 401l283 -401h-24l-273 386l-193 -204v-182h-20v690h20v-479l454 479h27z" />
    <glyph glyph-name="uni0137" unicode="&#x137;" horiz-adv-x="534" 
d="M203 -209q11 25 24 70.5t17 77.5h87v-9q-8 -31 -31.5 -76.5t-48.5 -74.5h-48v12zM240 282l202 -282h-25l-191 266l-116 -132v-134h-20v740h20v-576l282 321h27z" />
    <glyph glyph-name="kgreenlandic" unicode="&#x138;" horiz-adv-x="534" 
d="M403 536h106l-203 -237l219 -299h-105l-176 242l-66 -54v-188h-93v536h93v-139q0 -68 -6 -135l41 50z" />
    <glyph glyph-name="Lacute" unicode="&#x139;" horiz-adv-x="523" 
d="M512 20v-20h-417v690h20v-670h397zM27 855l14 -14l-112 -113l-14 15z" />
    <glyph glyph-name="lacute" unicode="&#x13a;" horiz-adv-x="257" 
d="M110 740v-740h-20v740h20zM-10 883l14 -14l-112 -113l-14 15z" />
    <glyph glyph-name="uni013B" unicode="&#x13b;" horiz-adv-x="523" 
d="M204 -209q11 25 24 70.5t17 77.5h87v-9q-8 -31 -31.5 -76.5t-48.5 -74.5h-48v12zM512 20v-20h-417v690h20v-670h397z" />
    <glyph glyph-name="uni013C" unicode="&#x13c;" horiz-adv-x="257" 
d="M45 -209q11 25 24 70.5t17 77.5h87v-9q-8 -31 -31.5 -76.5t-48.5 -74.5h-48v12zM110 740v-740h-20v740h20z" />
    <glyph glyph-name="Lcaron" unicode="&#x13d;" horiz-adv-x="523" 
d="M333 567q11 32 20.5 77.5t12.5 70.5h87v-9q-6 -26 -27 -71t-45 -80h-48v12zM512 20v-20h-417v690h20v-670h397z" />
    <glyph glyph-name="lcaron" unicode="&#x13e;" horiz-adv-x="257" 
d="M219 612q11 32 20.5 77.5t12.5 70.5h87v-9q-6 -26 -27 -71t-45 -80h-48v12zM110 740v-740h-20v740h20z" />
    <glyph glyph-name="Ldot" unicode="&#x13f;" horiz-adv-x="523" 
d="M332 357q0 29 15 42.5t37 13.5q21 0 36 -13.5t15 -42.5t-15.5 -42.5t-35.5 -13.5q-22 0 -37 13.5t-15 42.5zM512 20v-20h-417v690h20v-670h397z" />
    <glyph glyph-name="ldot" unicode="&#x140;" horiz-adv-x="325" 
d="M240 333q0 29 15 42.5t37 13.5q21 0 36 -13.5t15 -42.5t-15.5 -42.5t-35.5 -13.5q-22 0 -37 13.5t-15 42.5zM110 740v-740h-20v740h20z" />
    <glyph glyph-name="Lslash" unicode="&#x141;" horiz-adv-x="547" 
d="M512 20v-20h-417v299l-85 -49l-10 17l95 55v368h20v-356l75 43l10 -17l-85 -49v-291h397z" />
    <glyph glyph-name="lslash" unicode="&#x142;" horiz-adv-x="200" 
d="M190 377l10 -17l-90 -52v-308h-20v296l-80 -46l-10 17l90 52v421h20v-409z" />
    <glyph glyph-name="Nacute" unicode="&#x143;" horiz-adv-x="759" 
d="M557 690v-690h-22l-420 656v-656h-20v690h22l420 -656v656h20zM227 855l14 -14l-112 -113l-14 15z" />
    <glyph glyph-name="nacute" unicode="&#x144;" horiz-adv-x="618" 
d="M471 293v-293h-20v293q0 182 -146 182q-73 0 -121.5 -45t-67.5 -118q-6 -27 -6 -30v-282h-20v485h20v-127q26 63 77.5 100t117.5 37q87 0 126.5 -56t39.5 -146zM159 690l14 -14l-112 -113l-14 15z" />
    <glyph glyph-name="uni0145" unicode="&#x145;" horiz-adv-x="759" 
d="M281 -209q11 25 24 70.5t17 77.5h87v-9q-8 -31 -31.5 -76.5t-48.5 -74.5h-48v12zM557 690v-690h-22l-420 656v-656h-20v690h22l420 -656v656h20z" />
    <glyph glyph-name="uni0146" unicode="&#x146;" horiz-adv-x="618" 
d="M222 -209q11 25 24 70.5t17 77.5h87v-9q-8 -31 -31.5 -76.5t-48.5 -74.5h-48v12zM471 293v-293h-20v293q0 182 -146 182q-73 0 -121.5 -45t-67.5 -118q-6 -27 -6 -30v-282h-20v485h20v-127q26 63 77.5 100t117.5 37q87 0 126.5 -56t39.5 -146z" />
    <glyph glyph-name="Ncaron" unicode="&#x147;" horiz-adv-x="759" 
d="M211 931h60q56 -36 107 -92q62 62 109 92h62v-13q-100 -100 -125 -147h-90q-29 50 -123 147v13zM557 690v-690h-22l-420 656v-656h-20v690h22l420 -656v656h20z" />
    <glyph glyph-name="ncaron" unicode="&#x148;" horiz-adv-x="618" 
d="M144 766h60q56 -36 107 -92q62 62 109 92h62v-13q-100 -100 -125 -147h-90q-29 50 -123 147v13zM471 293v-293h-20v293q0 182 -146 182q-73 0 -121.5 -45t-67.5 -118q-6 -27 -6 -30v-282h-20v485h20v-127q26 63 77.5 100t117.5 37q87 0 126.5 -56t39.5 -146z" />
    <glyph glyph-name="napostrophe" unicode="&#x149;" horiz-adv-x="690" 
d="M145 714l7 -11q-25 -97 -86 -234h-65q34 139 50 245h94zM542 293v-293h-20v293q0 182 -146 182q-73 0 -121.5 -45t-67.5 -118q-6 -27 -6 -30v-282h-20v485h20v-127q26 63 77.5 100t117.5 37q87 0 126.5 -56t39.5 -146z" />
    <glyph glyph-name="Eng" unicode="&#x14a;" horiz-adv-x="759" 
d="M475 -190q-48 0 -76 13v76q35 -10 76 -10q50 0 76.5 28.5t27.5 82.5l-403 593h-4q8 -125 8 -206v-387h-83v714h104l381 -572h4q-7 75 -7 200v372h84v-708q0 -96 -48.5 -146t-139.5 -50z" />
    <glyph glyph-name="eng" unicode="&#x14b;" horiz-adv-x="618" 
d="M394 -240q-42 0 -71 12v71q29 -10 60 -10q67 0 67 84v427q0 65 -29 96.5t-90 31.5q-83 0 -120.5 -45.5t-37.5 -147.5v-279h-88v536h71l14 -73h5q25 40 69 61.5t98 21.5q99 0 147.5 -46.5t48.5 -149.5v-430q0 -75 -35 -117.5t-109 -42.5z" />
    <glyph glyph-name="Omacron" unicode="&#x14c;" horiz-adv-x="780" 
d="M242 842h297v-71h-297v71zM668 345q0 -98 -32 -176.5t-102.5 -128.5t-169.5 -50q-147 0 -225.5 102t-78.5 253t78.5 253t225.5 102q99 0 169.5 -50t102.5 -128.5t32 -176.5zM648 345q0 92 -29.5 166t-95 121.5t-159.5 47.5t-159.5 -47.5t-95 -121.5t-29.5 -166t29.5 -166
t95 -121.5t159.5 -47.5t159.5 47.5t95 121.5t29.5 166z" />
    <glyph glyph-name="omacron" unicode="&#x14d;" horiz-adv-x="604" 
d="M154 677h297v-71h-297v71zM466 243q0 -106 -52 -179.5t-153 -73.5q-102 0 -154 73.5t-52 179.5t52 179t154 73q101 0 153 -73.5t52 -178.5zM446 243q0 97 -46.5 164.5t-138.5 67.5q-93 0 -139.5 -67.5t-46.5 -164.5t46.5 -165t139.5 -68q92 0 138.5 68t46.5 165z" />
    <glyph glyph-name="Obreve" unicode="&#x14e;" horiz-adv-x="780" 
d="M387 771q-69 0 -108.5 33.5t-44.5 100.5h54q4 -35 24.5 -49t76.5 -14q49 0 73 15.5t28 47.5h55q-6 -64 -48 -99t-110 -35zM668 345q0 -98 -32 -176.5t-102.5 -128.5t-169.5 -50q-147 0 -225.5 102t-78.5 253t78.5 253t225.5 102q99 0 169.5 -50t102.5 -128.5t32 -176.5z
M648 345q0 92 -29.5 166t-95 121.5t-159.5 47.5t-159.5 -47.5t-95 -121.5t-29.5 -166t29.5 -166t95 -121.5t159.5 -47.5t159.5 47.5t95 121.5t29.5 166z" />
    <glyph glyph-name="obreve" unicode="&#x14f;" horiz-adv-x="604" 
d="M299 606q-69 0 -108.5 33.5t-44.5 100.5h54q4 -35 24.5 -49t76.5 -14q49 0 73 15.5t28 47.5h55q-6 -64 -48 -99t-110 -35zM466 243q0 -106 -52 -179.5t-153 -73.5q-102 0 -154 73.5t-52 179.5t52 179t154 73q101 0 153 -73.5t52 -178.5zM446 243q0 97 -46.5 164.5
t-138.5 67.5q-93 0 -139.5 -67.5t-46.5 -164.5t46.5 -165t139.5 -68q92 0 138.5 68t46.5 165z" />
    <glyph glyph-name="Ohungarumlaut" unicode="&#x150;" horiz-adv-x="780" 
d="M246 783q17 22 42.5 65.5t44.5 82.5h96v-10q-16 -27 -58.5 -75t-74.5 -75h-50v12zM422 783q23 32 49 76.5t38 71.5h96v-10q-16 -27 -58.5 -75t-74.5 -75h-50v12zM668 345q0 -98 -32 -176.5t-102.5 -128.5t-169.5 -50q-147 0 -225.5 102t-78.5 253t78.5 253t225.5 102
q99 0 169.5 -50t102.5 -128.5t32 -176.5zM648 345q0 92 -29.5 166t-95 121.5t-159.5 47.5t-159.5 -47.5t-95 -121.5t-29.5 -166t29.5 -166t95 -121.5t159.5 -47.5t159.5 47.5t95 121.5t29.5 166z" />
    <glyph glyph-name="ohungarumlaut" unicode="&#x151;" horiz-adv-x="604" 
d="M154 618q17 22 42.5 65.5t44.5 82.5h96v-10q-16 -27 -58.5 -75t-74.5 -75h-50v12zM330 618q23 32 49 76.5t38 71.5h96v-10q-16 -27 -58.5 -75t-74.5 -75h-50v12zM466 243q0 -106 -52 -179.5t-153 -73.5q-102 0 -154 73.5t-52 179.5t52 179t154 73q101 0 153 -73.5
t52 -178.5zM446 243q0 97 -46.5 164.5t-138.5 67.5q-93 0 -139.5 -67.5t-46.5 -164.5t46.5 -165t139.5 -68q92 0 138.5 68t46.5 165z" />
    <glyph glyph-name="OE" unicode="&#x152;" horiz-adv-x="846" 
d="M781 20v-20h-417q-147 0 -225.5 97t-78.5 248t78.5 248t225.5 97h417v-20h-397v-315h350v-20h-350v-315h397zM364 20v650q-139 0 -211.5 -91.5t-72.5 -233.5t72.5 -233.5t211.5 -91.5z" />
    <glyph glyph-name="oe" unicode="&#x153;" horiz-adv-x="902" 
d="M814 120l19 -8q-25 -58 -72 -90t-109 -32q-77 0 -127 45t-69 121q-19 -76 -69 -121t-126 -45q-101 0 -153.5 73.5t-52.5 179.5q0 105 52.5 178.5t153.5 73.5q76 0 126 -45t69 -121q19 76 69 121t127 45q105 0 155 -74.5t50 -184.5h-391q2 -60 20.5 -109.5t61.5 -83
t104 -33.5q116 0 162 110zM446 243q0 97 -46.5 164.5t-138.5 67.5q-93 0 -139.5 -67.5t-46.5 -164.5t46.5 -165t139.5 -68q92 0 138.5 68t46.5 165zM466 253h371q-2 93 -49 157.5t-136 64.5q-90 0 -137 -64t-49 -158z" />
    <glyph glyph-name="Racute" unicode="&#x154;" horiz-adv-x="622" 
d="M370 337l196 -337h-23l-195 335h-233v-335h-20v690h247q85 0 145 -47.5t60 -129.5q0 -75 -50.5 -121.5t-126.5 -54.5zM115 355h227q76 0 130.5 42t54.5 116q0 73 -54.5 115t-130.5 42h-227v-315zM158 855l14 -14l-112 -113l-14 15z" />
    <glyph glyph-name="racute" unicode="&#x155;" horiz-adv-x="413" 
d="M110 485v-128q26 65 76.5 101.5t118.5 36.5q32 0 57 -8l-6 -19q-24 7 -51 7q-66 0 -112 -37.5t-69 -101.5q-14 -35 -14 -54v-282h-20v485h20zM83 690l14 -14l-112 -113l-14 15z" />
    <glyph glyph-name="uni0156" unicode="&#x156;" horiz-adv-x="622" 
d="M242 -209q11 25 24 70.5t17 77.5h87v-9q-8 -31 -31.5 -76.5t-48.5 -74.5h-48v12zM370 337l196 -337h-23l-195 335h-233v-335h-20v690h247q85 0 145 -47.5t60 -129.5q0 -75 -50.5 -121.5t-126.5 -54.5zM115 355h227q76 0 130.5 42t54.5 116q0 73 -54.5 115t-130.5 42h-227
v-315z" />
    <glyph glyph-name="uni0157" unicode="&#x157;" horiz-adv-x="413" 
d="M48 -209q11 25 24 70.5t17 77.5h87v-9q-8 -31 -31.5 -76.5t-48.5 -74.5h-48v12zM110 485v-128q26 65 76.5 101.5t118.5 36.5q32 0 57 -8l-6 -19q-24 7 -51 7q-66 0 -112 -37.5t-69 -101.5q-14 -35 -14 -54v-282h-20v485h20z" />
    <glyph glyph-name="Rcaron" unicode="&#x158;" horiz-adv-x="622" 
d="M141 931h60q56 -36 107 -92q62 62 109 92h62v-13q-100 -100 -125 -147h-90q-29 50 -123 147v13zM370 337l196 -337h-23l-195 335h-233v-335h-20v690h247q85 0 145 -47.5t60 -129.5q0 -75 -50.5 -121.5t-126.5 -54.5zM115 355h227q76 0 130.5 42t54.5 116q0 73 -54.5 115
t-130.5 42h-227v-315z" />
    <glyph glyph-name="rcaron" unicode="&#x159;" horiz-adv-x="413" 
d="M62 766h60q56 -36 107 -92q62 62 109 92h62v-13q-100 -100 -125 -147h-90q-29 50 -123 147v13zM110 485v-128q26 65 76.5 101.5t118.5 36.5q32 0 57 -8l-6 -19q-24 7 -51 7q-66 0 -112 -37.5t-69 -101.5q-14 -35 -14 -54v-282h-20v485h20z" />
    <glyph glyph-name="Sacute" unicode="&#x15a;" horiz-adv-x="548" 
d="M520 540l-20 -6q-21 72 -74.5 109t-129.5 37q-79 0 -133.5 -45t-54.5 -122q0 -46 23.5 -76.5t61 -45.5t82.5 -25.5t90 -22t82.5 -28.5t61 -52t23.5 -87q0 -96 -64 -141t-163 -45q-200 0 -255 176l19 6q52 -162 236 -162q91 0 149 39.5t58 126.5q0 48 -23.5 79.5t-61 47
t-82.5 26t-90 22t-82.5 28t-61 50.5t-23.5 84q0 86 60 136.5t148 50.5q83 0 141.5 -41t82.5 -119zM136 855l14 -14l-112 -113l-14 15z" />
    <glyph glyph-name="sacute" unicode="&#x15b;" horiz-adv-x="479" 
d="M380 384l-18 -7q-45 98 -150 98q-54 0 -91.5 -31t-37.5 -84q0 -42 30.5 -65.5t74.5 -33t88 -20t74.5 -39.5t30.5 -79q0 -69 -45 -101t-117 -32q-67 0 -110 29t-69 90l18 8q24 -56 62 -81.5t99 -25.5q142 0 142 113q0 44 -30.5 69t-74.5 34.5t-88 19.5t-74.5 37.5
t-30.5 76.5q0 62 43 98.5t106 36.5q121 0 168 -111zM90 690l14 -14l-112 -113l-14 15z" />
    <glyph glyph-name="Scircumflex" unicode="&#x15c;" horiz-adv-x="548" 
d="M116 782q61 65 86 96.5t37 52.5h90q25 -49 125 -149v-11h-62q-44 26 -109 90q-64 -62 -107 -90h-60v11zM520 540l-20 -6q-21 72 -74.5 109t-129.5 37q-79 0 -133.5 -45t-54.5 -122q0 -46 23.5 -76.5t61 -45.5t82.5 -25.5t90 -22t82.5 -28.5t61 -52t23.5 -87
q0 -96 -64 -141t-163 -45q-200 0 -255 176l19 6q52 -162 236 -162q91 0 149 39.5t58 126.5q0 48 -23.5 79.5t-61 47t-82.5 26t-90 22t-82.5 28t-61 50.5t-23.5 84q0 86 60 136.5t148 50.5q83 0 141.5 -41t82.5 -119z" />
    <glyph glyph-name="scircumflex" unicode="&#x15d;" horiz-adv-x="479" 
d="M77 617q61 65 86 96.5t37 52.5h90q25 -49 125 -149v-11h-62q-44 26 -109 90q-64 -62 -107 -90h-60v11zM380 384l-18 -7q-45 98 -150 98q-54 0 -91.5 -31t-37.5 -84q0 -42 30.5 -65.5t74.5 -33t88 -20t74.5 -39.5t30.5 -79q0 -69 -45 -101t-117 -32q-67 0 -110 29t-69 90
l18 8q24 -56 62 -81.5t99 -25.5q142 0 142 113q0 44 -30.5 69t-74.5 34.5t-88 19.5t-74.5 37.5t-30.5 76.5q0 62 43 98.5t106 36.5q121 0 168 -111z" />
    <glyph glyph-name="Scedilla" unicode="&#x15e;" horiz-adv-x="548" 
d="M520 540l-20 -6q-21 72 -74.5 109t-129.5 37q-79 0 -133.5 -45t-54.5 -122q0 -46 23.5 -76.5t61 -45.5t82.5 -25.5t90 -22t82.5 -28.5t61 -52t23.5 -87q0 -96 -64 -141t-163 -45q-200 0 -255 176l19 6q52 -162 236 -162q91 0 149 39.5t58 126.5q0 48 -23.5 79.5t-61 47
t-82.5 26t-90 22t-82.5 28t-61 50.5t-23.5 84q0 86 60 136.5t148 50.5q83 0 141.5 -41t82.5 -119zM163 7l-25 -44q23 -1 41.5 -11t18.5 -31q0 -22 -19.5 -34.5t-42.5 -12.5q-25 0 -52 12l8 18q22 -10 44 -10q14 0 28 6.5t14 19.5q0 23 -42 23q-6 0 -19 -1.5t-15 -1.5l38 67
h23z" />
    <glyph glyph-name="scedilla" unicode="&#x15f;" horiz-adv-x="479" 
d="M380 384l-18 -7q-45 98 -150 98q-54 0 -91.5 -31t-37.5 -84q0 -42 30.5 -65.5t74.5 -33t88 -20t74.5 -39.5t30.5 -79q0 -69 -45 -101t-117 -32q-67 0 -110 29t-69 90l18 8q24 -56 62 -81.5t99 -25.5q142 0 142 113q0 44 -30.5 69t-74.5 34.5t-88 19.5t-74.5 37.5
t-30.5 76.5q0 62 43 98.5t106 36.5q121 0 168 -111zM125 7l-25 -44q23 -1 41.5 -11t18.5 -31q0 -22 -19.5 -34.5t-42.5 -12.5q-25 0 -52 12l8 18q22 -10 44 -10q14 0 28 6.5t14 19.5q0 23 -42 23q-6 0 -19 -1.5t-15 -1.5l38 67h23z" />
    <glyph glyph-name="Scaron" unicode="&#x160;" horiz-adv-x="592" 
d="M394 870l14 -14l-112 -113l-113 113l15 14l98 -98zM520 540l-20 -6q-21 72 -74.5 109t-129.5 37q-79 0 -133.5 -45t-54.5 -122q0 -46 23.5 -76.5t61 -45.5t82.5 -25.5t90 -22t82.5 -28.5t61 -52t23.5 -87q0 -96 -64 -141t-163 -45q-200 0 -255 176l19 6q52 -162 236 -162
q91 0 149 39.5t58 126.5q0 48 -23.5 79.5t-61 47t-82.5 26t-90 22t-82.5 28t-61 50.5t-23.5 84q0 86 60 136.5t148 50.5q83 0 141.5 -41t82.5 -119z" />
    <glyph glyph-name="scaron" unicode="&#x161;" horiz-adv-x="431" 
d="M314 690l14 -14l-112 -113l-113 113l14 14l99 -98zM380 384l-18 -7q-45 98 -150 98q-54 0 -91.5 -31t-37.5 -84q0 -42 30.5 -65.5t74.5 -33t88 -20t74.5 -39.5t30.5 -79q0 -69 -45 -101t-117 -32q-67 0 -110 29t-69 90l18 8q24 -56 62 -81.5t99 -25.5q142 0 142 113
q0 44 -30.5 69t-74.5 34.5t-88 19.5t-74.5 37.5t-30.5 76.5q0 62 43 98.5t106 36.5q121 0 168 -111z" />
    <glyph glyph-name="uni0162" unicode="&#x162;" horiz-adv-x="556" 
d="M552 690v-20h-251v-670h-20v670h-251v20h522zM176 7l-25 -44q23 -1 41.5 -11t18.5 -31q0 -22 -19.5 -34.5t-42.5 -12.5q-25 0 -52 12l8 18q22 -10 44 -10q14 0 28 6.5t14 19.5q0 23 -42 23q-6 0 -19 -1.5t-15 -1.5l38 67h23z" />
    <glyph glyph-name="uni0163" unicode="&#x163;" horiz-adv-x="360" 
d="M304 20l4 -20q-37 -10 -70 -10q-102 0 -102 119v356h-116v20h116v135h20v-135h146v-20h-146v-356q0 -48 18.5 -73.5t64.5 -25.5q28 0 65 10zM117 7l-25 -44q23 -1 41.5 -11t18.5 -31q0 -22 -19.5 -34.5t-42.5 -12.5q-25 0 -52 12l8 18q22 -10 44 -10q14 0 28 6.5t14 19.5
q0 23 -42 23q-6 0 -19 -1.5t-15 -1.5l38 67h23z" />
    <glyph glyph-name="Tcaron" unicode="&#x164;" horiz-adv-x="556" 
d="M110 931h60q56 -36 107 -92q62 62 109 92h62v-13q-100 -100 -125 -147h-90q-29 50 -123 147v13zM552 690v-20h-251v-670h-20v670h-251v20h522z" />
    <glyph glyph-name="tcaron" unicode="&#x165;" horiz-adv-x="360" 
d="M246 612q11 32 20.5 77.5t12.5 70.5h87v-9q-6 -26 -27 -71t-45 -80h-48v12zM304 20l4 -20q-37 -10 -70 -10q-102 0 -102 119v356h-116v20h116v135h20v-135h146v-20h-146v-356q0 -48 18.5 -73.5t64.5 -25.5q28 0 65 10z" />
    <glyph glyph-name="Tbar" unicode="&#x166;" horiz-adv-x="556" 
d="M232 399v235h-222v80h535v-80h-223v-235h148v-74h-148v-325h-90v325h-149v74h149z" />
    <glyph glyph-name="tbar" unicode="&#x167;" horiz-adv-x="360" 
d="M266 62q42 0 73 11v-67q-13 -6 -39 -11t-54 -5q-154 0 -154 171v119h-68v66h68v122h-76v42l77 35l35 114h52v-123h155v-68h-155v-122h146v-66h-146v-114q0 -52 21 -78t65 -26z" />
    <glyph glyph-name="Utilde" unicode="&#x168;" horiz-adv-x="730" 
d="M440 772q-21 0 -41 9t-39.5 19.5t-37 19.5t-34.5 9q-24 0 -36 -14.5t-19 -43.5h-51q6 60 34 94t76 34q22 0 42.5 -9t39.5 -19.5t37 -19.5t33 -9q23 0 35.5 14.5t19.5 43.5h50q-6 -58 -34 -93t-75 -35zM614 690v-413q0 -131 -66.5 -209t-195.5 -78t-195.5 78t-66.5 209
v413h20v-413q0 -123 61 -195t181 -72t181 72t61 195v413h20z" />
    <glyph glyph-name="utilde" unicode="&#x169;" horiz-adv-x="618" 
d="M383 607q-21 0 -41 9t-39.5 19.5t-37 19.5t-34.5 9q-24 0 -36 -14.5t-19 -43.5h-51q6 60 34 94t76 34q22 0 42.5 -9t39.5 -19.5t37 -19.5t33 -9q23 0 35.5 14.5t19.5 43.5h50q-6 -58 -34 -93t-75 -35zM466 485v-485h-20v127q-26 -63 -77.5 -100t-117.5 -37
q-87 0 -126.5 56t-39.5 146v293h20v-293q0 -182 146 -182q73 0 121.5 45t67.5 118q6 27 6 30v282h20z" />
    <glyph glyph-name="Umacron" unicode="&#x16a;" horiz-adv-x="730" 
d="M217 842h297v-71h-297v71zM614 690v-413q0 -131 -66.5 -209t-195.5 -78t-195.5 78t-66.5 209v413h20v-413q0 -123 61 -195t181 -72t181 72t61 195v413h20z" />
    <glyph glyph-name="umacron" unicode="&#x16b;" horiz-adv-x="618" 
d="M159 677h297v-71h-297v71zM466 485v-485h-20v127q-26 -63 -77.5 -100t-117.5 -37q-87 0 -126.5 56t-39.5 146v293h20v-293q0 -182 146 -182q73 0 121.5 45t67.5 118q6 27 6 30v282h20z" />
    <glyph glyph-name="Ubreve" unicode="&#x16c;" horiz-adv-x="730" 
d="M361 771q-69 0 -108.5 33.5t-44.5 100.5h54q4 -35 24.5 -49t76.5 -14q49 0 73 15.5t28 47.5h55q-6 -64 -48 -99t-110 -35zM614 690v-413q0 -131 -66.5 -209t-195.5 -78t-195.5 78t-66.5 209v413h20v-413q0 -123 61 -195t181 -72t181 72t61 195v413h20z" />
    <glyph glyph-name="ubreve" unicode="&#x16d;" horiz-adv-x="618" 
d="M303 606q-69 0 -108.5 33.5t-44.5 100.5h54q4 -35 24.5 -49t76.5 -14q49 0 73 15.5t28 47.5h55q-6 -64 -48 -99t-110 -35zM466 485v-485h-20v127q-26 -63 -77.5 -100t-117.5 -37q-87 0 -126.5 56t-39.5 146v293h20v-293q0 -182 146 -182q73 0 121.5 45t67.5 118
q6 27 6 30v282h20z" />
    <glyph glyph-name="Uring" unicode="&#x16e;" horiz-adv-x="730" 
d="M475 878q0 -49 -30.5 -78t-80.5 -29t-79.5 28.5t-29.5 77.5q0 48 29.5 76.5t79.5 28.5q49 0 80 -29t31 -75zM420 877q0 26 -16 41t-40 15t-40 -15t-16 -41t14.5 -41t41.5 -15q25 0 40.5 15t15.5 41zM614 690v-413q0 -131 -66.5 -209t-195.5 -78t-195.5 78t-66.5 209v413
h20v-413q0 -123 61 -195t181 -72t181 72t61 195v413h20z" />
    <glyph glyph-name="uring" unicode="&#x16f;" horiz-adv-x="618" 
d="M417 713q0 -49 -30.5 -78t-80.5 -29t-79.5 28.5t-29.5 77.5q0 48 29.5 76.5t79.5 28.5q49 0 80 -29t31 -75zM362 712q0 26 -16 41t-40 15t-40 -15t-16 -41t14.5 -41t41.5 -15q25 0 40.5 15t15.5 41zM466 485v-485h-20v127q-26 -63 -77.5 -100t-117.5 -37q-87 0 -126.5 56
t-39.5 146v293h20v-293q0 -182 146 -182q73 0 121.5 45t67.5 118q6 27 6 30v282h20z" />
    <glyph glyph-name="Uhungarumlaut" unicode="&#x170;" horiz-adv-x="730" 
d="M221 783q17 22 42.5 65.5t44.5 82.5h96v-10q-16 -27 -58.5 -75t-74.5 -75h-50v12zM397 783q23 32 49 76.5t38 71.5h96v-10q-16 -27 -58.5 -75t-74.5 -75h-50v12zM614 690v-413q0 -131 -66.5 -209t-195.5 -78t-195.5 78t-66.5 209v413h20v-413q0 -123 61 -195t181 -72
t181 72t61 195v413h20z" />
    <glyph glyph-name="uhungarumlaut" unicode="&#x171;" horiz-adv-x="618" 
d="M164 618q17 22 42.5 65.5t44.5 82.5h96v-10q-16 -27 -58.5 -75t-74.5 -75h-50v12zM340 618q23 32 49 76.5t38 71.5h96v-10q-16 -27 -58.5 -75t-74.5 -75h-50v12zM466 485v-485h-20v127q-26 -63 -77.5 -100t-117.5 -37q-87 0 -126.5 56t-39.5 146v293h20v-293
q0 -182 146 -182q73 0 121.5 45t67.5 118q6 27 6 30v282h20z" />
    <glyph glyph-name="Uogonek" unicode="&#x172;" horiz-adv-x="730" 
d="M356 -116q0 -22 12 -33.5t33 -11.5t48 6v-56q-34 -9 -62 -9q-103 0 -103 94q0 68 78 126h62q-34 -32 -51 -58.5t-17 -57.5zM614 690v-413q0 -131 -66.5 -209t-195.5 -78t-195.5 78t-66.5 209v413h20v-413q0 -123 61 -195t181 -72t181 72t61 195v413h20z" />
    <glyph glyph-name="uogonek" unicode="&#x173;" horiz-adv-x="618" 
d="M458 -116q0 -22 12 -33.5t33 -11.5t48 6v-56q-34 -9 -62 -9q-103 0 -103 94q0 68 78 126h62q-34 -32 -51 -58.5t-17 -57.5zM466 485v-485h-20v127q-26 -63 -77.5 -100t-117.5 -37q-87 0 -126.5 56t-39.5 146v293h20v-293q0 -182 146 -182q73 0 121.5 45t67.5 118
q6 27 6 30v282h20z" />
    <glyph glyph-name="Wcircumflex" unicode="&#x174;" horiz-adv-x="930" 
d="M294 782q61 65 86 96.5t37 52.5h90q25 -49 125 -149v-11h-62q-44 26 -109 90q-64 -62 -107 -90h-60v11zM894 690h21l-193 -690h-27l-222 659l-223 -659h-27l-193 690h21l186 -666l225 666h21l225 -666z" />
    <glyph glyph-name="wcircumflex" unicode="&#x175;" horiz-adv-x="786" 
d="M224 617q61 65 86 96.5t37 52.5h90q25 -49 125 -149v-11h-62q-44 26 -109 90q-64 -62 -107 -90h-60v11zM644 485h21l-136 -485h-27l-157 465l-157 -465h-27l-136 485h21l129 -461l155 461h29l156 -461z" />
    <glyph glyph-name="Ycircumflex" unicode="&#x176;" horiz-adv-x="565" 
d="M114 782q61 65 86 96.5t37 52.5h90q25 -49 125 -149v-11h-62q-44 26 -109 90q-64 -62 -107 -90h-60v11zM552 690h24l-263 -423v-277h-20v277l-263 423h24l249 -401z" />
    <glyph glyph-name="ycircumflex" unicode="&#x177;" horiz-adv-x="509" 
d="M89 617q61 65 86 96.5t37 52.5h90q25 -49 125 -149v-11h-62q-44 26 -109 90q-64 -62 -107 -90h-60v11zM389 485h21l-259 -698h-22l76 203l-185 495h21l174 -467z" />
    <glyph glyph-name="Ydieresis" unicode="&#x178;" horiz-adv-x="606" 
d="M238 850v-99h-20v99h20zM388 850v-99h-20v99h20zM552 690h24l-263 -423v-277h-20v277l-263 423h24l249 -401z" />
    <glyph glyph-name="Zacute" unicode="&#x179;" horiz-adv-x="571" 
d="M560 20v-20h-508v29l488 641h-468v20h488v-27l-490 -643h490zM130 855l14 -14l-112 -113l-14 15z" />
    <glyph glyph-name="zacute" unicode="&#x17a;" horiz-adv-x="470" 
d="M71 485h376l-361 -465h350v-20h-391l362 465h-336v20zM90 690l14 -14l-112 -113l-14 15z" />
    <glyph glyph-name="Zdotaccent" unicode="&#x17b;" horiz-adv-x="571" 
d="M233 846q0 29 15 42.5t37 13.5q21 0 36 -13.5t15 -42.5t-15.5 -42.5t-35.5 -13.5q-22 0 -37 13.5t-15 42.5zM560 20v-20h-508v29l488 641h-468v20h488v-27l-490 -643h490z" />
    <glyph glyph-name="zdotaccent" unicode="&#x17c;" horiz-adv-x="470" 
d="M185 681q0 29 15 42.5t37 13.5q21 0 36 -13.5t15 -42.5t-15.5 -42.5t-35.5 -13.5q-22 0 -37 13.5t-15 42.5zM71 485h376l-361 -465h350v-20h-391l362 465h-336v20z" />
    <glyph glyph-name="Zcaron" unicode="&#x17d;" horiz-adv-x="620" 
d="M408 870l15 -14l-113 -113l-112 113l14 14l98 -98zM560 20v-20h-508v29l488 641h-468v20h488v-27l-490 -643h490z" />
    <glyph glyph-name="zcaron" unicode="&#x17e;" horiz-adv-x="492" 
d="M354 690l15 -14l-113 -113l-112 113l14 14l98 -98zM71 485h376l-361 -465h350v-20h-391l362 465h-336v20z" />
    <glyph glyph-name="longs" unicode="&#x17f;" horiz-adv-x="326" 
d="M261 692q-46 0 -67 -28.5t-21 -86.5v-577h-88v577q0 188 177 188q49 0 100 -19l-23 -69q-44 15 -78 15z" />
    <glyph glyph-name="uni0180" unicode="&#x180;" horiz-adv-x="615" 
d="M339 545q106 0 163.5 -73t57.5 -204q0 -133 -58.5 -205.5t-162.5 -72.5q-54 0 -96.5 19.5t-69.5 58.5h-7q-15 -59 -18 -68h-63v605h-76v66h76v89h88v-89h213v-66h-213v-30q0 -55 -5 -110h5q54 80 166 80zM324 472q-81 0 -116 -46t-35 -155v-4q0 -110 36 -157t117 -47
q72 0 107.5 53t35.5 153q0 102 -35.5 152.5t-109.5 50.5z" />
    <glyph glyph-name="uni0181" unicode="&#x181;" horiz-adv-x="729" 
d="M151 637q-61 0 -61 -50q0 -30 10 -54h-79q-4 10 -7.5 26.5t-3.5 28.5q0 65 34.5 95.5t106.5 30.5h230q144 0 207.5 -43t63.5 -134q0 -63 -34.5 -104.5t-101.5 -53.5v-5q82 -14 121 -57t39 -114q0 -96 -66 -149.5t-182 -53.5h-251v637h-26zM267 410h132q84 0 122 27t38 90
q0 59 -41.5 84.5t-132.5 25.5h-118v-227zM267 335v-259h144q86 0 127.5 33.5t41.5 100.5q0 64 -44 94.5t-132 30.5h-137z" />
    <glyph glyph-name="uni0182" unicode="&#x182;" horiz-adv-x="615" 
d="M564 209q0 -105 -63.5 -157t-194.5 -52h-209v714h424v-79h-334v-223h106q137 0 204 -48.5t67 -154.5zM187 77h110q92 0 133 31t41 101q0 68 -43 96.5t-146 28.5h-95v-257z" />
    <glyph glyph-name="uni0183" unicode="&#x183;" horiz-adv-x="615" 
d="M339 545q106 0 163.5 -73t57.5 -204q0 -133 -58.5 -205.5t-162.5 -72.5q-54 0 -96.5 19.5t-69.5 58.5h-7q-15 -59 -18 -68h-63v760h421v-74h-333v-111q0 -55 -5 -110h5q54 80 166 80zM324 472q-81 0 -116 -46t-35 -155v-4q0 -110 36 -157t117 -47q72 0 107.5 53t35.5 153
q0 102 -35.5 152.5t-109.5 50.5z" />
    <glyph glyph-name="uni0184" unicode="&#x184;" horiz-adv-x="634" 
d="M180 210q0 -77 37.5 -110t122.5 -33q80 0 115.5 35.5t35.5 102.5q0 69 -48 99t-140 30h-123v-124zM90 714h90v-302h134q129 0 199.5 -53t70.5 -154t-63.5 -158t-179.5 -57q-251 0 -251 220v504z" />
    <glyph glyph-name="uni0185" unicode="&#x185;" horiz-adv-x="611" 
d="M322 -10q-115 0 -177.5 72.5t-62.5 204.5v493h88v-185q0 -55 -5 -110h5q54 80 166 80q106 0 163.5 -73t57.5 -204q0 -134 -61 -206t-174 -72zM170 265q0 -96 40.5 -149t112.5 -53t107.5 53t35.5 153q0 102 -35.5 152.5t-109.5 50.5q-81 0 -116 -46t-35 -155v-6z" />
    <glyph glyph-name="uni0186" unicode="&#x186;" horiz-adv-x="631" 
d="M243 724q158 0 243 -96t85 -272q0 -110 -39.5 -192.5t-114.5 -128t-174 -45.5q-55 0 -98 6.5t-86 22.5v78q94 -28 170 -28q115 0 181 77t66 211q0 137 -63.5 212.5t-183.5 75.5q-77 0 -162 -39l-36 76q84 42 212 42z" />
    <glyph glyph-name="uni0187" unicode="&#x187;" horiz-adv-x="631" 
d="M403 645q-115 0 -181 -77t-66 -211q0 -138 64 -213t182 -75q76 0 171 28v-78q-45 -17 -87 -23t-97 -6q-158 0 -243 96t-85 272q0 110 41 193t118.5 128t183.5 45q61 0 117 -14v14q0 64 27 99t88 35q30 0 60 -13v-72q-24 10 -52 10q-47 0 -47 -48v-51l-36 -78
q-33 15 -71.5 27t-86.5 12z" />
    <glyph glyph-name="uni0188" unicode="&#x188;" horiz-adv-x="502" 
d="M300 -10q-116 0 -180.5 71t-64.5 204q0 135 65.5 208t185.5 73q27 0 65 -6v91q0 64 26.5 99t88.5 35q29 0 60 -13v-73q-23 10 -52 10q-47 0 -47 -48v-124l-27 -73q-68 25 -116 25q-81 0 -119.5 -51t-38.5 -152q0 -97 38.5 -148.5t114.5 -51.5q71 0 139 31v-78
q-55 -29 -138 -29z" />
    <glyph glyph-name="uni0189" unicode="&#x189;" horiz-adv-x="729" 
d="M95 690h158q169 0 256.5 -87.5t87.5 -257.5t-87.5 -257.5t-256.5 -87.5h-158v321h-75v20h75v349zM115 20h138q324 0 324 325t-324 325h-138v-329h240v-20h-240v-301z" />
    <glyph glyph-name="uni018A" unicode="&#x18a;" horiz-adv-x="810" 
d="M654 361q0 136 -67 206t-203 70h-117v-560h97q290 0 290 284zM397 714q168 0 260 -92.5t92 -257.5q0 -177 -96.5 -270.5t-276.5 -93.5h-199v637h-26q-61 0 -61 -50q0 -30 10 -54h-79q-4 10 -7.5 26.5t-3.5 28.5q0 65 34.5 95.5t106.5 30.5h246z" />
    <glyph glyph-name="uni018B" unicode="&#x18b;" horiz-adv-x="615" 
d="M428 335h-82q-106 0 -154 -32t-48 -101q0 -63 44 -94t139 -31h101v258zM518 714v-714h-199q-268 0 -268 198q0 103 73.5 158.5t211.5 55.5h92v223h-334v79h424z" />
    <glyph glyph-name="uni018C" unicode="&#x18c;" horiz-adv-x="615" 
d="M289 63q80 0 117 43.5t37 143.5v16q0 112 -37.5 159.5t-117.5 47.5q-68 0 -105 -54t-37 -154t37 -151t106 -51zM530 0h-71l-13 72h-4q-56 -82 -167 -82q-104 0 -162 72.5t-58 204.5q0 131 58 205t163 74q108 0 166 -79h6q-1 10 -3.5 39.5t-2.5 39.5v140h-333v74h421v-760
z" />
    <glyph glyph-name="uni018D" unicode="&#x18d;" horiz-adv-x="604" 
d="M341 294q66 -38 95 -77t29 -87q0 -64 -48 -102t-132 -38q-51 0 -97 11.5t-109 42.5l38 69q37 -21 79 -36t93 -15q40 0 63.5 18.5t23.5 50.5q0 34 -26.5 60t-107.5 70q-104 57 -146 117t-42 136q0 115 66 180.5t184 65.5q112 0 179 -60.5t67 -163.5q0 -87 -54 -149.5
t-155 -92.5zM145 515q0 -62 30 -105.5t96 -77.5q92 22 139.5 74t47.5 131q0 67 -41.5 108.5t-112.5 41.5q-77 0 -118 -44.5t-41 -127.5z" />
    <glyph glyph-name="uni018E" unicode="&#x18e;" horiz-adv-x="556" 
d="M60 79h309v255h-291v78h291v223h-309v79h399v-714h-399v79z" />
    <glyph glyph-name="uni018F" unicode="&#x18f;" horiz-adv-x="738" 
d="M332 646q-110 0 -228 -41v82q61 21 114 29.5t116 8.5q162 0 252.5 -97.5t90.5 -271.5q0 -171 -85 -268.5t-237 -97.5q-147 0 -221.5 92t-74.5 275v34h523q-8 126 -71 190.5t-179 64.5zM355 69q100 0 159.5 63.5t67.5 179.5h-427q0 -125 49 -184t151 -59z" />
    <glyph glyph-name="uni0190" unicode="&#x190;" horiz-adv-x="587" 
d="M87 547q0 82 60.5 129.5t166.5 47.5q64 0 124 -18.5t109 -55.5l-43 -61q-52 36 -94 48.5t-94 12.5q-63 0 -99.5 -30.5t-36.5 -81.5q0 -60 48 -95.5t145 -35.5h97v-75h-102q-110 0 -165 -33t-55 -97q0 -67 48.5 -102.5t139.5 -35.5q105 0 214 52v-82q-90 -44 -219 -44
q-135 0 -206 52t-71 153q0 76 46.5 121t137.5 57v4q-72 12 -111.5 56.5t-39.5 113.5z" />
    <glyph glyph-name="uni0191" unicode="&#x191;" horiz-adv-x="519" 
d="M45 -240q-32 0 -56 13v76q21 -10 45 -10q35 0 49 20t14 62v793h399v-79h-309v-253h290v-79h-290v-386q0 -157 -142 -157z" />
    <glyph glyph-name="florin" unicode="&#x192;" horiz-adv-x="571" 
d="M161 -240q-36 0 -68 9v73q34 -9 63 -9q45 0 63.5 23.5t18.5 79.5v470h-105v41l105 30v65q0 94 39.5 138t129.5 44q45 0 103 -21l-22 -68q-50 16 -78 16q-46 0 -65 -24.5t-19 -83.5v-69h135v-68h-133v-470q0 -91 -40 -133.5t-127 -42.5z" />
    <glyph glyph-name="uni0193" unicode="&#x193;" horiz-adv-x="728" 
d="M407 377h247v-350q-57 -18 -115.5 -27.5t-135.5 -9.5q-163 0 -252.5 97t-89.5 270q0 112 44.5 195.5t128 127.5t197.5 44q71 0 137 -17v17q0 64 27 99t88 35q29 0 60 -13v-72q-24 10 -52 10q-47 0 -47 -48v-53l-34 -78q-94 41 -184 41q-127 0 -199 -77t-72 -211
q0 -142 68.5 -215.5t200.5 -73.5q72 0 140 17v212h-157v80z" />
    <glyph glyph-name="uni0194" unicode="&#x194;" horiz-adv-x="569" 
d="M334 108q33 -65 50 -121t17 -94q0 -59 -32 -96t-84 -37q-54 0 -85 37.5t-31 95.5q0 78 67 214l-236 607h94q89 -237 136.5 -362t54.5 -167q10 51 50 158l140 371h95zM319 -105q0 26 -8.5 62t-25.5 68q-19 -38 -26.5 -72t-7.5 -56q0 -31 9.5 -45t24.5 -14q34 0 34 57z" />
    <glyph glyph-name="uni0195" unicode="&#x195;" horiz-adv-x="934" 
d="M639 63q67 0 96.5 36t29.5 113v324h88v-327q0 -114 -51 -166.5t-163 -52.5q-110 0 -162 48.5t-52 147.5v157q0 65 -26 97t-83 32q-74 0 -108.5 -45.5t-34.5 -149.5v-277h-88v760h88v-223q0 -44 -5 -75h6q24 42 66 62.5t90 20.5q91 0 137 -46.5t46 -149.5v-157
q0 -65 30.5 -97t95.5 -32z" />
    <glyph glyph-name="uni0196" unicode="&#x196;" horiz-adv-x="348" 
d="M179 714v-549q0 -48 18 -72t59 -24q21 0 44 3.5t38 7.5v-74q-13 -6 -40 -11t-55 -5q-80 0 -116.5 41.5t-36.5 125.5v557h89z" />
    <glyph glyph-name="uni0197" unicode="&#x197;" horiz-adv-x="338" 
d="M298 0h-258v52l84 19v256h-90v78h90v237l-84 20v52h258v-52l-84 -20v-237h90v-78h-90v-256l84 -19v-52z" />
    <glyph glyph-name="uni0198" unicode="&#x198;" horiz-adv-x="619" 
d="M327 405l292 -405h-106q-30 40 -121 172q-71 103 -126 170l-79 -77v-265h-90v714h90v-360q28 35 60 72q21 24 185 225q29 38 54.5 53.5t66.5 15.5q30 0 50 -8v-70q-21 3 -44 3q-17 0 -31.5 -10t-36.5 -36z" />
    <glyph glyph-name="uni0199" unicode="&#x199;" horiz-adv-x="534" 
d="M172 363l-4 -87h4l30 38l34 41l171 181h103l-217 -229l232 -307h-106l-186 250l-61 -53v-197h-87v625q0 140 121 140q33 0 65 -13v-73q-23 10 -52 10q-23 0 -35 -13t-12 -45v-268z" />
    <glyph glyph-name="uni019A" unicode="&#x19a;" horiz-adv-x="257" 
d="M173 420h70v-66h-70v-354h-88v354h-70v66h70v340h88v-340z" />
    <glyph glyph-name="uni019B" unicode="&#x19b;" horiz-adv-x="541" 
d="M-6 0l231 526l-23 64l-106 -32l-19 63l99 30q-13 22 -29.5 32t-45.5 10q-30 0 -56 -6v71q33 8 66 8q53 0 87 -21t59 -69l109 33l19 -63l-102 -32l179 -498q10 -28 21.5 -41t28.5 -13q12 0 30 5v-65q-24 -12 -57 -12q-36 0 -58 18t-38 63l-73 205q-42 119 -50 159h-4
q-16 -62 -55 -154l-122 -281h-91z" />
    <glyph glyph-name="uni019C" unicode="&#x19c;" horiz-adv-x="1029" 
d="M180 714v-506q0 -70 29 -105t92 -35q84 0 124.5 47t40.5 147v452h90v-506q0 -70 29 -105t94 -35q84 0 123.5 49.5t39.5 164.5v432h90v-714h-71l-15 82h-5q-25 -42 -74 -67t-107 -25q-68 0 -110.5 24.5t-64.5 75.5h-5q-28 -48 -79.5 -74t-113.5 -26q-103 0 -150 53
t-47 165v506h90z" />
    <glyph glyph-name="uni019D" unicode="&#x19d;" horiz-adv-x="759" 
d="M97 714h104l22 -35l235 -362l124 -194h4q-1 12 -4 84t-3 104v403h84v-714h-105l-382 593h-4l2 -40q6 -89 6 -154v-482q0 -83 -34 -120t-101 -37q-32 0 -56 13v76q21 -10 45 -10q35 0 49 20t14 62v793z" />
    <glyph glyph-name="uni019E" unicode="&#x19e;" horiz-adv-x="618" 
d="M450 -240v583q0 64 -28.5 96.5t-91.5 32.5q-83 0 -120 -46.5t-37 -147.5v-278h-88v536h71l13 -73h5q25 40 70 61.5t99 21.5q99 0 146.5 -48t47.5 -149v-589h-87z" />
    <glyph glyph-name="uni019F" unicode="&#x19f;" horiz-adv-x="782" 
d="M720 358q0 -171 -86.5 -269.5t-242.5 -98.5q-158 0 -244 96.5t-86 272.5q0 174 85.5 270t245.5 96q155 0 241.5 -97.5t86.5 -269.5zM391 68q108 0 167.5 65t65.5 192h-467q6 -127 65.5 -192t168.5 -65zM392 646q-106 0 -165.5 -61.5t-69.5 -181.5h466q-9 121 -67.5 182
t-163.5 61z" />
    <glyph glyph-name="Ohorn" unicode="&#x1a0;" horiz-adv-x="784" 
d="M719 358q0 -173 -86.5 -270.5t-241.5 -97.5q-158 0 -244 96t-86 273q0 176 86 271t245 95t247 -104q33 9 48.5 39.5t15.5 99.5h95l7 -11q-15 -78 -47.5 -120.5t-83.5 -61.5q45 -85 45 -209zM156 358q0 -142 59.5 -216t175.5 -74t174.5 73t58.5 217q0 143 -58.5 215.5
t-173.5 72.5q-118 0 -177 -73.5t-59 -214.5z" />
    <glyph glyph-name="ohorn" unicode="&#x1a1;" horiz-adv-x="616" 
d="M551 269q0 -131 -66.5 -205t-183.5 -74q-73 0 -129 34t-86.5 97.5t-30.5 147.5q0 131 65.5 204t183.5 73q53 0 97.5 -18t76.5 -51q24 7 38.5 23.5t21.5 41t7 76.5h94l7 -11q-16 -79 -46.5 -121.5t-82.5 -61.5q34 -69 34 -155zM146 269q0 -105 38.5 -155.5t118.5 -50.5
q83 0 120 52t37 154q0 100 -38 151.5t-120 51.5q-83 0 -119.5 -51.5t-36.5 -151.5z" />
    <glyph glyph-name="uni01A2" unicode="&#x1a2;" horiz-adv-x="1075" 
d="M688 358q0 -173 -82.5 -270.5t-230.5 -97.5q-150 0 -232 96.5t-82 272.5q0 174 82 270t233 96q142 0 224 -91q28 43 78 67t110 24q102 0 149.5 -52.5t47.5 -165.5v-507h-90v507q0 70 -29 105t-92 35q-53 0 -86.5 -15t-52.5 -46q53 -92 53 -228zM156 358q0 -142 56 -216
t163 -74t162.5 73t55.5 217q0 143 -55 215.5t-162 72.5q-108 0 -164 -73.5t-56 -214.5z" />
    <glyph glyph-name="uni01A3" unicode="&#x1a3;" horiz-adv-x="845" 
d="M526 269q0 -132 -63.5 -205.5t-173.5 -73.5q-69 0 -122.5 34t-82.5 98t-29 147q0 130 62.5 203.5t173.5 73.5q106 0 169 -72q26 37 64 54.5t80 17.5q80 0 120 -47t40 -150v-589h-87v585q0 127 -92 127q-63 0 -94 -44q35 -63 35 -159zM146 269q0 -101 36.5 -153.5
t107.5 -52.5t108 52t37 154q0 101 -37 152t-108 51q-144 0 -144 -203z" />
    <glyph glyph-name="uni01A4" unicode="&#x1a4;" horiz-adv-x="685" 
d="M267 355h72q106 0 154 34.5t48 110.5q0 69 -44.5 103t-138.5 34h-91v-282zM366 714q268 0 268 -210q0 -109 -74.5 -167.5t-210.5 -58.5h-82v-278h-90v637h-26q-61 0 -61 -50q0 -30 10 -54h-79q-4 10 -7.5 26.5t-3.5 28.5q0 65 34.5 95.5t106.5 30.5h215z" />
    <glyph glyph-name="uni01A5" unicode="&#x1a5;" horiz-adv-x="615" 
d="M207 765q33 0 65 -13v-73q-23 10 -52 10q-23 0 -35 -13t-12 -45v-80q0 -30 -4 -68l-2 -20h6q31 44 72 63.5t95 19.5q104 0 162 -72.5t58 -204.5q0 -131 -58 -205t-163 -74q-108 0 -166 78h-6l2 -20q4 -38 4 -68v-220h-88l1 865q0 140 121 140zM324 472q-80 0 -115 -45
t-36 -141v-17q0 -109 36 -157.5t117 -48.5q67 0 105 54.5t38 152.5t-38 150t-107 52z" />
    <glyph glyph-name="uni01A6" unicode="&#x1a6;" horiz-adv-x="622" 
d="M187 271h107q87 0 127 34t40 102q0 67 -40.5 98t-131.5 31h-102v-265zM187 195v-195h-90v714h90v-100h107q133 0 196.5 -50.5t63.5 -152.5q0 -142 -143 -191l196 -320h-105l-173 295h-142z" />
    <glyph glyph-name="uni01A7" unicode="&#x1a7;" horiz-adv-x="548" 
d="M47 191q0 48 20 84t61 63.5t124 58.5q68 25 98.5 44t44 42t13.5 58q0 49 -36 76.5t-99 27.5q-72 0 -154 -38l-28 77q85 40 180 40q102 0 165 -49.5t63 -132.5q0 -76 -41.5 -125.5t-142.5 -86.5q-78 -28 -113 -48t-50 -43t-15 -56q0 -54 40.5 -84.5t120.5 -30.5
q91 0 200 47v-86q-34 -17 -85 -28t-111 -11q-120 0 -187.5 54t-67.5 147z" />
    <glyph glyph-name="uni01A8" unicode="&#x1a8;" horiz-adv-x="479" 
d="M45 148q0 37 15 64t46.5 48.5t99.5 46.5q88 34 113 53t25 49t-28 47.5t-83 17.5q-50 0 -132 -34l-30 70q81 36 156 36q98 0 149.5 -36.5t51.5 -105.5q0 -37 -14.5 -63t-45 -47t-106.5 -50q-53 -20 -81 -35.5t-39.5 -31t-11.5 -37.5q0 -39 32 -59t95 -20q84 0 170 43v-80
q-62 -34 -168 -34q-214 0 -214 158z" />
    <glyph glyph-name="uni01A9" unicode="&#x1a9;" horiz-adv-x="569" 
d="M36 0v74l234 299l-228 266v75h475v-80h-325l-47 1l225 -261l-235 -296l163 1h248v-79h-510z" />
    <glyph glyph-name="uni01AA" unicode="&#x1aa;" horiz-adv-x="309" 
d="M67 542q-60 0 -91.5 29.5t-31.5 82.5q0 54 32.5 82.5t92.5 28.5q63 0 96.5 -36t33.5 -105v-696q0 -49 18 -72.5t59 -23.5q19 0 43.5 3t38.5 8v-67q-15 -7 -41.5 -11.5t-52.5 -4.5q-80 0 -116 41t-36 126v615h-45zM63 693q-21 0 -30 -12t-9 -27q0 -40 49 -40h39v13
q0 35 -12.5 50.5t-36.5 15.5z" />
    <glyph glyph-name="uni01AB" unicode="&#x1ab;" horiz-adv-x="360" 
d="M222 -240q-29 0 -60 12v73q22 -9 50 -9q48 0 48 52v102h-11q-157 0 -157 166v312h-76v42l77 35l35 114h52v-123h155v-68h-155v-310q0 -46 22.5 -71t61.5 -25q17 0 40 3.5t35 7.5v-180q0 -133 -117 -133z" />
    <glyph glyph-name="uni01AC" unicode="&#x1ac;" horiz-adv-x="576" 
d="M151 635q-61 0 -61 -48q0 -30 10 -54h-79q-4 10 -7.5 26.5t-3.5 28.5q0 65 34.5 95.5t106.5 30.5h414v-79h-222v-635h-90v635h-102z" />
    <glyph glyph-name="uni01AD" unicode="&#x1ad;" horiz-adv-x="360" 
d="M180 536h155v-68h-155v-310q0 -46 22.5 -71t61.5 -25q17 0 40 3.5t35 7.5v-67q-12 -5 -38 -10.5t-52 -5.5q-157 0 -157 166v312h-76v42l77 35v66q0 154 147 154q39 0 77 -13v-73q-11 4 -34.5 7t-42.5 3q-32 0 -46 -17t-14 -51v-85z" />
    <glyph glyph-name="uni01AE" unicode="&#x1ae;" horiz-adv-x="556" 
d="M233 635h-223v79h535v-79h-222v-714q0 -42 14.5 -62t48.5 -20q24 0 45 10v-76q-24 -13 -63 -13q-68 0 -101.5 37t-33.5 120v718z" />
    <glyph glyph-name="Uhorn" unicode="&#x1af;" horiz-adv-x="779" 
d="M640 714v-97q40 5 59 37t19 106h93l7 -11q-16 -90 -59 -135.5t-119 -58.5v-303q0 -125 -70.5 -193.5t-200.5 -68.5q-133 0 -206 70.5t-73 193.5v460h90v-464q0 -86 47.5 -134t143.5 -48q88 0 134 46.5t46 136.5v463h89z" />
    <glyph glyph-name="uhorn" unicode="&#x1b0;" horiz-adv-x="673" 
d="M168 535v-344q0 -65 29 -96.5t90 -31.5q83 0 120.5 46t37.5 148v278h88v-59q39 6 57 37.5t18 105.5h93l7 -11q-16 -93 -59 -139.5t-116 -54.5v-414h-72l-13 71h-4q-24 -39 -67.5 -60t-100.5 -21q-98 0 -147.5 46.5t-49.5 148.5v350h89z" />
    <glyph glyph-name="uni01B1" unicode="&#x1b1;" horiz-adv-x="782" 
d="M391 68q114 0 173 62t59 183q0 110 -40.5 189t-126.5 140v72h288v-79h-178q74 -57 113 -141t39 -184q0 -150 -87 -235.5t-240 -85.5q-155 0 -241.5 85t-86.5 235q0 100 39 185t112 141h-177v79h288v-72q-87 -62 -127.5 -142t-40.5 -187q0 -120 59.5 -182.5t174.5 -62.5z
" />
    <glyph glyph-name="uni01B2" unicode="&#x1b2;" horiz-adv-x="600" 
d="M571 580q0 -53 -45 -157l-181 -423h-90l-255 714h94l162 -466q31 -88 45 -156q8 30 27 73q21 50 32 81l85 203q36 88 36 125q0 39 -16 55t-47 16q-24 0 -45 -10v76q22 13 63 13q135 0 135 -144z" />
    <glyph glyph-name="uni01B3" unicode="&#x1b3;" horiz-adv-x="565" 
d="M39 649q-21 0 -39 -8v73q28 11 60 11q37 0 59.5 -17.5t40.5 -57.5l128 -287l181 351h97l-233 -437v-277h-90v273l-162 341q-18 35 -42 35z" />
    <glyph glyph-name="uni01B4" unicode="&#x1b4;" horiz-adv-x="541" 
d="M485 546q33 0 57 -12v-65q-18 5 -30 5q-18 0 -28.5 -13t-21.5 -41l-183 -494q-32 -87 -79 -126.5t-116 -39.5q-37 0 -73 8v70q24 -6 59 -6q85 0 121 95l26 71l-216 538h94l116 -305q37 -100 45 -146h4q8 36 48 147l76 217q19 54 41 75.5t60 21.5z" />
    <glyph glyph-name="uni01B5" unicode="&#x1b5;" horiz-adv-x="571" 
d="M79 407h184l151 227h-364v80h473v-68l-159 -239h122v-71h-169l-170 -256h386v-80h-495v68l178 268h-137v71z" />
    <glyph glyph-name="uni01B6" unicode="&#x1b6;" horiz-adv-x="470" 
d="M57 313h161l109 155h-271v68h368v-66l-111 -157h101v-70h-151l-123 -175h291v-68h-392v58l130 185h-112v70z" />
    <glyph glyph-name="uni01B7" unicode="&#x1b7;" horiz-adv-x="583" 
d="M291 440q68 -2 122.5 -30t85 -76.5t30.5 -112.5q0 -109 -76 -170t-212 -61q-126 0 -206 39v82q49 -23 104 -35t103 -12q97 0 145 41t48 117q0 69 -49.5 107t-143.5 38h-62v65l206 202h-331v80h444v-71z" />
    <glyph glyph-name="uni01B8" unicode="&#x1b8;" horiz-adv-x="583" 
d="M85 643v71h444v-80h-330l205 -202v-65h-78q-84 0 -130.5 -40.5t-46.5 -113.5q0 -71 49.5 -110t143.5 -39q49 0 103.5 11.5t103.5 35.5v-82q-45 -21 -98.5 -30t-119.5 -9q-87 0 -149 27t-94.5 77t-32.5 117q0 68 30 119t84.5 79.5t123.5 30.5z" />
    <glyph glyph-name="uni01B9" unicode="&#x1b9;" horiz-adv-x="498" 
d="M61 472v64h409v-74h-306l219 -243v-61h-59q-101 0 -151.5 -42.5t-50.5 -124.5q0 -71 47 -114.5t126 -43.5q100 0 189 42v-80q-68 -35 -196 -35q-113 0 -183.5 63t-70.5 166q0 105 64.5 168t181.5 71z" />
    <glyph glyph-name="uni01BA" unicode="&#x1ba;" horiz-adv-x="498" 
d="M216 -167q84 0 160 36v-80q-60 -29 -161 -29q-90 0 -138.5 31t-48.5 88q0 62 46.5 91.5t137.5 29.5q80 0 114.5 27.5t34.5 94.5q0 60 -44.5 88t-142.5 28h-59v61l183 163h-270v74h394v-64l-187 -164q104 -5 159 -51.5t55 -133.5q0 -95 -59.5 -145.5t-175.5 -50.5
q-53 0 -78 -10.5t-25 -37.5q0 -21 26.5 -33.5t78.5 -12.5z" />
    <glyph glyph-name="uni01BB" unicode="&#x1bb;" horiz-adv-x="569" 
d="M78 419h241q27 44 39 82t12 81q0 50 -29.5 78t-82.5 28q-45 0 -81.5 -16.5t-73.5 -49.5l-47 59q93 84 204 84q94 0 147.5 -48.5t53.5 -132.5q0 -42 -10.5 -81.5t-35.5 -83.5h100v-70h-144q-11 -16 -23.5 -32.5t-201.5 -242.5v-4h374v-70h-472v73l175 215l47 61h-192v70z
" />
    <glyph glyph-name="uni01BC" unicode="&#x1bc;" horiz-adv-x="583" 
d="M224 634v-193h42q77 0 137 -27t93 -76.5t33 -116.5q0 -109 -76 -170t-212 -61q-126 0 -206 39v82q49 -23 104 -35t103 -12q97 0 145 41t48 117q0 68 -47 106.5t-130 38.5h-124v267h-79v80h444v-80h-275z" />
    <glyph glyph-name="uni01BD" unicode="&#x1bd;" horiz-adv-x="490" 
d="M198 462v-117h23q107 0 165.5 -46.5t58.5 -135.5q0 -82 -60.5 -127.5t-168.5 -45.5q-118 0 -183 35v79q89 -42 182 -42q69 0 106 26.5t37 79.5t-37.5 79t-115.5 26h-95v189h-62v74h364v-74h-214z" />
    <glyph glyph-name="uni01BE" unicode="&#x1be;" horiz-adv-x="462" 
d="M136 378v90h-91v42l92 35l35 114h52v-123h155v-68h-155v-92q0 -34 10.5 -49.5t36.5 -24.5q83 -31 115 -66.5t32 -87.5q0 -75 -56 -116.5t-158 -41.5q-105 0 -168 34v80q86 -43 170 -43q66 0 96.5 21.5t30.5 57.5q0 29 -24 49.5t-90 47.5q-47 20 -65 52t-18 89z" />
    <glyph glyph-name="uni01BF" unicode="&#x1bf;" horiz-adv-x="586" 
d="M173 -240h-88v776h72l12 -73h4q55 83 158 83q96 0 152 -59t56 -164q0 -91 -45.5 -164.5t-130 -117.5t-190.5 -51v-230zM173 62q131 17 203 85.5t72 173.5q0 69 -36 110t-99 41q-73 0 -106.5 -44t-33.5 -142v-224z" />
    <glyph glyph-name="uni01C0" unicode="&#x1c0;" horiz-adv-x="516" 
d="M297 -240h-78v1000h78v-1000z" />
    <glyph glyph-name="uni01C1" unicode="&#x1c1;" horiz-adv-x="516" 
d="M169 -240h-78v1000h78v-1000zM426 -240h-78v1000h78v-1000z" />
    <glyph glyph-name="uni01C2" unicode="&#x1c2;" horiz-adv-x="516" 
d="M65 402h154v358h78v-358h154v-72h-154v-124h154v-72h-154v-374h-78v374h-154v72h154v124h-154v72z" />
    <glyph glyph-name="uni01C3" unicode="&#x1c3;" horiz-adv-x="269" 
d="M163 201h-57l-25 513h107zM72 54q0 32 16 49.5t46 17.5t46 -18t16 -49t-16.5 -49.5t-45.5 -18.5q-30 0 -46 18t-16 50z" />
    <glyph glyph-name="uni01C4" unicode="&#x1c4;" horiz-adv-x="1291" 
d="M827 931h60q56 -36 107 -92q62 62 109 92h62v-13q-100 -100 -125 -147h-90q-29 50 -123 147v13zM95 690h158q169 0 256.5 -87.5t87.5 -257.5t-87.5 -257.5t-256.5 -87.5h-158v690zM115 20h138q324 0 324 325t-324 325h-138v-650zM1280 20v-20h-508v29l488 641h-468v20
h488v-27l-490 -643h490z" />
    <glyph glyph-name="uni01C5" unicode="&#x1c5;" horiz-adv-x="1200" 
d="M800 766h60q56 -36 107 -92q62 62 109 92h62v-13q-100 -100 -125 -147h-90q-29 50 -123 147v13zM95 690h158q169 0 256.5 -87.5t87.5 -257.5t-87.5 -257.5t-256.5 -87.5h-158v690zM115 20h138q324 0 324 325t-324 325h-138v-650zM801 485h376l-361 -465h350v-20h-391
l362 465h-336v20z" />
    <glyph glyph-name="uni01C6" unicode="&#x1c6;" horiz-adv-x="1084" 
d="M687 766h60q56 -36 107 -92q62 62 109 92h62v-13q-100 -100 -125 -147h-90q-29 50 -123 147v13zM466 740v-740h-20v123q-24 -63 -71.5 -98t-113.5 -35q-102 0 -154 73.5t-52 179.5t52 179t154 73q66 0 113.5 -35t71.5 -98v378h20zM446 243q0 97 -46.5 164.5t-138.5 67.5
q-93 0 -139.5 -67.5t-46.5 -164.5t46.5 -165t139.5 -68q92 0 138.5 68t46.5 165zM686 485h376l-361 -465h350v-20h-391l362 465h-336v20z" />
    <glyph glyph-name="uni01C7" unicode="&#x1c7;" horiz-adv-x="796" 
d="M512 20v-20h-417v690h20v-670h397zM994 690v-461q0 -109 -56 -174t-163 -65q-92 0 -148 50t-68 141l20 3q11 -84 61 -129t135 -45q99 0 149 59t50 160v461h20z" />
    <glyph glyph-name="uni01C8" unicode="&#x1c8;" horiz-adv-x="782" 
d="M512 20v-20h-417v690h20v-670h397zM666 690v-99h-20v99h20zM666 485v-581q0 -119 -102 -119q-32 0 -70 10l5 20q35 -10 65 -10q46 0 64 25.5t18 73.5v581h20z" />
    <glyph glyph-name="uni01C9" unicode="&#x1c9;" horiz-adv-x="516" 
d="M110 740v-740h-20v740h20zM400 690v-99h-20v99h20zM400 485v-581q0 -119 -102 -119q-32 0 -70 10l5 20q35 -10 65 -10q46 0 64 25.5t18 73.5v581h20z" />
    <glyph glyph-name="uni01CA" unicode="&#x1ca;" horiz-adv-x="1033" 
d="M557 690v-690h-22l-420 656v-656h-20v690h22l420 -656v656h20zM1230 690v-461q0 -109 -56 -174t-163 -65q-92 0 -148 50t-68 141l20 3q11 -84 61 -129t135 -45q99 0 149 59t50 160v461h20z" />
    <glyph glyph-name="uni01CB" unicode="&#x1cb;" horiz-adv-x="1018" 
d="M557 690v-690h-22l-420 656v-656h-20v690h22l420 -656v656h20zM902 690v-99h-20v99h20zM902 485v-581q0 -119 -102 -119q-32 0 -70 10l5 20q35 -10 65 -10q46 0 64 25.5t18 73.5v581h20z" />
    <glyph glyph-name="uni01CC" unicode="&#x1cc;" horiz-adv-x="875" 
d="M471 293v-293h-20v293q0 182 -146 182q-73 0 -121.5 -45t-67.5 -118q-6 -27 -6 -30v-282h-20v485h20v-127q26 63 77.5 100t117.5 37q87 0 126.5 -56t39.5 -146zM760 690v-99h-20v99h20zM760 485v-581q0 -119 -102 -119q-32 0 -70 10l5 20q35 -10 65 -10q46 0 64 25.5
t18 73.5v581h20z" />
    <glyph glyph-name="uni01CD" unicode="&#x1cd;" horiz-adv-x="639" 
d="M150 944h60q56 -36 107 -92q62 62 109 92h62v-13q-100 -100 -125 -147h-90q-29 50 -123 147v13zM308 690l258 -690h-22l-82 220h-329l-82 -220h-21l257 690h21zM141 240h314l-157 421z" />
    <glyph glyph-name="uni01CE" unicode="&#x1ce;" horiz-adv-x="561" 
d="M112 766h60q56 -36 107 -92q62 62 109 92h62v-13q-100 -100 -125 -147h-90q-29 50 -123 147v13zM425 331v-331h-20v142q-21 -71 -76.5 -111.5t-127.5 -40.5q-64 0 -105 33.5t-41 96.5q0 83 60.5 121.5t148.5 38.5h141v51q0 64 -41.5 104t-106.5 40q-114 0 -155 -99l-18 8
q46 111 173 111q73 0 120.5 -45.5t47.5 -118.5zM405 220v40h-141q-79 0 -134 -33t-55 -107q0 -55 35 -82.5t91 -27.5q84 0 144 63t60 147z" />
    <glyph glyph-name="uni01CF" unicode="&#x1cf;" horiz-adv-x="338" 
d="M2 944h60q56 -36 107 -92q62 62 109 92h62v-13q-100 -100 -125 -147h-90q-29 50 -123 147v13zM115 690v-690h-20v690h20z" />
    <glyph glyph-name="uni01D0" unicode="&#x1d0;" horiz-adv-x="257" 
d="M-40 766h60q56 -36 107 -92q62 62 109 92h62v-13q-100 -100 -125 -147h-90q-29 50 -123 147v13zM105 485v-485h-20v485h20z" />
    <glyph glyph-name="uni01D1" unicode="&#x1d1;" horiz-adv-x="780" 
d="M221 944h60q56 -36 107 -92q62 62 109 92h62v-13q-100 -100 -125 -147h-90q-29 50 -123 147v13zM668 345q0 -98 -32 -176.5t-102.5 -128.5t-169.5 -50q-147 0 -225.5 102t-78.5 253t78.5 253t225.5 102q99 0 169.5 -50t102.5 -128.5t32 -176.5zM648 345q0 92 -29.5 166
t-95 121.5t-159.5 47.5t-159.5 -47.5t-95 -121.5t-29.5 -166t29.5 -166t95 -121.5t159.5 -47.5t159.5 47.5t95 121.5t29.5 166z" />
    <glyph glyph-name="uni01D2" unicode="&#x1d2;" horiz-adv-x="604" 
d="M133 766h60q56 -36 107 -92q62 62 109 92h62v-13q-100 -100 -125 -147h-90q-29 50 -123 147v13zM466 243q0 -106 -52 -179.5t-153 -73.5q-102 0 -154 73.5t-52 179.5t52 179t154 73q101 0 153 -73.5t52 -178.5zM446 243q0 97 -46.5 164.5t-138.5 67.5q-93 0 -139.5 -67.5
t-46.5 -164.5t46.5 -165t139.5 -68q92 0 138.5 68t46.5 165z" />
    <glyph glyph-name="uni01D3" unicode="&#x1d3;" horiz-adv-x="730" 
d="M196 944h60q56 -36 107 -92q62 62 109 92h62v-13q-100 -100 -125 -147h-90q-29 50 -123 147v13zM614 690v-413q0 -131 -66.5 -209t-195.5 -78t-195.5 78t-66.5 209v413h20v-413q0 -123 61 -195t181 -72t181 72t61 195v413h20z" />
    <glyph glyph-name="uni01D4" unicode="&#x1d4;" horiz-adv-x="618" 
d="M140 766h60q56 -36 107 -92q62 62 109 92h62v-13q-100 -100 -125 -147h-90q-29 50 -123 147v13zM466 485v-485h-20v127q-26 -63 -77.5 -100t-117.5 -37q-87 0 -126.5 56t-39.5 146v293h20v-293q0 -182 146 -182q73 0 121.5 45t67.5 118q6 27 6 30v282h20z" />
    <glyph glyph-name="uni01D5" unicode="&#x1d5;" horiz-adv-x="730" 
d="M508 815q0 -23 -12.5 -36t-34.5 -13t-34.5 13t-12.5 36q0 26 14 38t33 12q20 0 33.5 -12t13.5 -38zM320 815q0 -26 -13.5 -37.5t-32.5 -11.5q-22 0 -34.5 13t-12.5 36q0 26 14 38t33 12t32.5 -12t13.5 -38zM219 1001h297v-71h-297v71zM614 690v-413q0 -131 -66.5 -209
t-195.5 -78t-195.5 78t-66.5 209v413h20v-413q0 -123 61 -195t181 -72t181 72t61 195v413h20z" />
    <glyph glyph-name="uni01D6" unicode="&#x1d6;" horiz-adv-x="618" 
d="M447 650q0 -23 -12.5 -36t-34.5 -13t-34.5 13t-12.5 36q0 26 14 38t33 12q20 0 33.5 -12t13.5 -38zM259 650q0 -26 -13.5 -37.5t-32.5 -11.5q-22 0 -34.5 13t-12.5 36q0 26 14 38t33 12t32.5 -12t13.5 -38zM158 836h297v-71h-297v71zM466 485v-485h-20v127
q-26 -63 -77.5 -100t-117.5 -37q-87 0 -126.5 56t-39.5 146v293h20v-293q0 -182 146 -182q73 0 121.5 45t67.5 118q6 27 6 30v282h20z" />
    <glyph glyph-name="uni01D7" unicode="&#x1d7;" horiz-adv-x="730" 
d="M499 815q0 -23 -12.5 -36t-34.5 -13t-34.5 13t-12.5 36q0 26 14 38t33 12q20 0 33.5 -12t13.5 -38zM311 815q0 -26 -13.5 -37.5t-32.5 -11.5q-22 0 -34.5 13t-12.5 36q0 26 14 38t33 12t32.5 -12t13.5 -38zM305 903q73 84 96 133h105v-10q-28 -43 -142 -135h-59v12z
M614 690v-413q0 -131 -66.5 -209t-195.5 -78t-195.5 78t-66.5 209v413h20v-413q0 -123 61 -195t181 -72t181 72t61 195v413h20z" />
    <glyph glyph-name="uni01D8" unicode="&#x1d8;" horiz-adv-x="618" 
d="M446 650q0 -23 -12.5 -36t-34.5 -13t-34.5 13t-12.5 36q0 26 14 38t33 12q20 0 33.5 -12t13.5 -38zM258 650q0 -26 -13.5 -37.5t-32.5 -11.5q-22 0 -34.5 13t-12.5 36q0 26 14 38t33 12t32.5 -12t13.5 -38zM252 738q73 84 96 133h105v-10q-28 -43 -142 -135h-59v12z
M466 485v-485h-20v127q-26 -63 -77.5 -100t-117.5 -37q-87 0 -126.5 56t-39.5 146v293h20v-293q0 -182 146 -182q73 0 121.5 45t67.5 118q6 27 6 30v282h20z" />
    <glyph glyph-name="uni01D9" unicode="&#x1d9;" horiz-adv-x="730" 
d="M504 815q0 -23 -12.5 -36t-34.5 -13t-34.5 13t-12.5 36q0 26 14 38t33 12q20 0 33.5 -12t13.5 -38zM316 815q0 -26 -13.5 -37.5t-32.5 -11.5q-22 0 -34.5 13t-12.5 36q0 26 14 38t33 12t32.5 -12t13.5 -38zM195 1046h60q26 -17 54 -36t53 -46q27 27 55 46t54 36h62v-13
l-32 -31q-73 -69 -93 -106h-90q-21 36 -92 106l-31 31v13zM614 690v-413q0 -131 -66.5 -209t-195.5 -78t-195.5 78t-66.5 209v413h20v-413q0 -123 61 -195t181 -72t181 72t61 195v413h20z" />
    <glyph glyph-name="uni01DA" unicode="&#x1da;" horiz-adv-x="618" 
d="M444 650q0 -23 -12.5 -36t-34.5 -13t-34.5 13t-12.5 36q0 26 14 38t33 12q20 0 33.5 -12t13.5 -38zM256 650q0 -26 -13.5 -37.5t-32.5 -11.5q-22 0 -34.5 13t-12.5 36q0 26 14 38t33 12t32.5 -12t13.5 -38zM135 881h60q26 -17 54 -36t53 -46q27 27 55 46t54 36h62v-13
l-32 -31q-73 -69 -93 -106h-90q-21 36 -92 106l-31 31v13zM466 485v-485h-20v127q-26 -63 -77.5 -100t-117.5 -37q-87 0 -126.5 56t-39.5 146v293h20v-293q0 -182 146 -182q73 0 121.5 45t67.5 118q6 27 6 30v282h20z" />
    <glyph glyph-name="uni01DB" unicode="&#x1db;" horiz-adv-x="730" 
d="M500 815q0 -23 -12.5 -36t-34.5 -13t-34.5 13t-12.5 36q0 26 14 38t33 12q20 0 33.5 -12t13.5 -38zM312 815q0 -26 -13.5 -37.5t-32.5 -11.5q-22 0 -34.5 13t-12.5 36q0 26 14 38t33 12t32.5 -12t13.5 -38zM414 891h-59q-114 91 -142 135v10h105q23 -49 96 -133v-12z
M614 690v-413q0 -131 -66.5 -209t-195.5 -78t-195.5 78t-66.5 209v413h20v-413q0 -123 61 -195t181 -72t181 72t61 195v413h20z" />
    <glyph glyph-name="uni01DC" unicode="&#x1dc;" horiz-adv-x="618" 
d="M447 650q0 -23 -12.5 -36t-34.5 -13t-34.5 13t-12.5 36q0 26 14 38t33 12q20 0 33.5 -12t13.5 -38zM259 650q0 -26 -13.5 -37.5t-32.5 -11.5q-22 0 -34.5 13t-12.5 36q0 26 14 38t33 12t32.5 -12t13.5 -38zM361 726h-59q-114 91 -142 135v10h105q23 -49 96 -133v-12z
M466 485v-485h-20v127q-26 -63 -77.5 -100t-117.5 -37q-87 0 -126.5 56t-39.5 146v293h20v-293q0 -182 146 -182q73 0 121.5 45t67.5 118q6 27 6 30v282h20z" />
    <glyph glyph-name="uni01DD" unicode="&#x1dd;" horiz-adv-x="563" 
d="M251 546q121 0 189.5 -73t68.5 -201q0 -129 -64 -205.5t-173 -76.5q-101 0 -161 65.5t-60 176.5v53h367q-2 91 -46 138.5t-125 47.5q-43 0 -81.5 -7.5t-90.5 -29.5v77q44 19 83.5 27t92.5 8zM273 62q63 0 99.5 40.5t43.5 112.5h-273q1 -74 34.5 -113.5t95.5 -39.5z" />
    <glyph glyph-name="uni01DE" unicode="&#x1de;" horiz-adv-x="639" 
d="M460 815q0 -23 -12.5 -36t-34.5 -13t-34.5 13t-12.5 36q0 26 14 38t33 12q20 0 33.5 -12t13.5 -38zM272 815q0 -26 -13.5 -37.5t-32.5 -11.5q-22 0 -34.5 13t-12.5 36q0 26 14 38t33 12t32.5 -12t13.5 -38zM171 1001h297v-71h-297v71zM308 690l258 -690h-22l-82 220h-329
l-82 -220h-21l257 690h21zM141 240h314l-157 421z" />
    <glyph glyph-name="uni01DF" unicode="&#x1df;" horiz-adv-x="561" 
d="M426 650q0 -23 -12.5 -36t-34.5 -13t-34.5 13t-12.5 36q0 26 14 38t33 12q20 0 33.5 -12t13.5 -38zM238 650q0 -26 -13.5 -37.5t-32.5 -11.5q-22 0 -34.5 13t-12.5 36q0 26 14 38t33 12t32.5 -12t13.5 -38zM137 836h297v-71h-297v71zM425 331v-331h-20v142
q-21 -71 -76.5 -111.5t-127.5 -40.5q-64 0 -105 33.5t-41 96.5q0 83 60.5 121.5t148.5 38.5h141v51q0 64 -41.5 104t-106.5 40q-114 0 -155 -99l-18 8q46 111 173 111q73 0 120.5 -45.5t47.5 -118.5zM405 220v40h-141q-79 0 -134 -33t-55 -107q0 -55 35 -82.5t91 -27.5
q84 0 144 63t60 147z" />
    <glyph glyph-name="uni01E0" unicode="&#x1e0;" horiz-adv-x="639" 
d="M269 826q0 29 15 42.5t37 13.5q23 0 37 -15t14 -41t-14.5 -41t-36.5 -15t-37 13.5t-15 42.5zM171 1001h297v-71h-297v71zM308 690l258 -690h-22l-82 220h-329l-82 -220h-21l257 690h21zM141 240h314l-157 421z" />
    <glyph glyph-name="uni01E1" unicode="&#x1e1;" horiz-adv-x="561" 
d="M235 662q0 29 15 42.5t37 13.5q23 0 37 -15t14 -41t-14.5 -41t-36.5 -15t-37 13.5t-15 42.5zM137 837h297v-71h-297v71zM425 331v-331h-20v142q-21 -71 -76.5 -111.5t-127.5 -40.5q-64 0 -105 33.5t-41 96.5q0 83 60.5 121.5t148.5 38.5h141v51q0 64 -41.5 104t-106.5 40
q-114 0 -155 -99l-18 8q46 111 173 111q73 0 120.5 -45.5t47.5 -118.5zM405 220v40h-141q-79 0 -134 -33t-55 -107q0 -55 35 -82.5t91 -27.5q84 0 144 63t60 147z" />
    <glyph glyph-name="uni01E2" unicode="&#x1e2;" horiz-adv-x="880" 
d="M347 842h297v-71h-297v71zM833 20v-20h-417v220h-240l-123 -220h-23l386 690h417v-20h-397v-315h350v-20h-350v-315h397zM187 240h229v409z" />
    <glyph glyph-name="uni01E3" unicode="&#x1e3;" horiz-adv-x="863" 
d="M283 677h297v-71h-297v71zM102 376l-18 8q45 111 173 111q65 0 111 -37.5t55 -100.5q23 66 71 102t116 36q105 0 155.5 -74.5t50.5 -184.5h-391q2 -60 20.5 -109.5t61 -83t103.5 -33.5q116 0 163 110l18 -8q-24 -58 -71 -90t-110 -32q-77 0 -127 45.5t-69 122.5
q-21 -75 -75 -121.5t-138 -46.5q-64 0 -105 33.5t-41 96.5q0 83 60.5 121.5t148.5 38.5h141v51q0 64 -41.5 104t-106.5 40q-115 0 -155 -99zM425 253h371q-2 93 -49 157.5t-137 64.5q-89 0 -136 -64t-49 -158zM405 220v40h-141q-79 0 -134 -33t-55 -107q0 -54 35 -82t91 -28
q84 0 144 63t60 147z" />
    <glyph glyph-name="uni01E4" unicode="&#x1e4;" horiz-adv-x="728" 
d="M407 377h247v-150h64v-71h-64v-129q-57 -18 -115.5 -27.5t-135.5 -9.5q-163 0 -252.5 97t-89.5 270q0 112 44.5 195.5t128 127.5t197.5 44t213 -42l-34 -78q-94 41 -184 41q-127 0 -199 -77t-72 -211q0 -142 68.5 -215.5t200.5 -73.5q72 0 140 17v71h-147v71h147v70h-157
v80z" />
    <glyph glyph-name="uni01E5" unicode="&#x1e5;" horiz-adv-x="615" 
d="M443 15l3 66h-4q-54 -81 -166 -81q-105 0 -163 71t-58 201q0 128 58 201t162 73q109 0 168 -81h5l12 71h70v-545q0 -20 -2 -37h57v-71h-72q-47 -123 -223 -123q-117 0 -193 34v81q78 -42 198 -42q77 0 117 50h-149v71h178l2 30v31zM289 72q83 0 119 42.5t36 136.5v16
q0 107 -37 156t-120 49q-68 0 -104.5 -50.5t-36.5 -150.5q0 -199 143 -199z" />
    <glyph glyph-name="Gcaron" unicode="&#x1e6;" horiz-adv-x="728" 
d="M248 931h60q56 -36 107 -92q62 62 109 92h62v-13q-100 -100 -125 -147h-90q-29 50 -123 147v13zM609 316v-286q-79 -40 -219 -40q-165 0 -247.5 94t-82.5 261q0 95 29 173t96.5 130t163.5 52q98 0 164 -46t93 -128l-19 -8q-51 162 -238 162q-91 0 -153.5 -49.5t-89 -123
t-26.5 -162.5q0 -159 76.5 -247t233.5 -88q120 0 199 32v254h-225v20h245z" />
    <glyph glyph-name="gcaron" unicode="&#x1e7;" horiz-adv-x="615" 
d="M138 766h60q56 -36 107 -92q62 62 109 92h62v-13q-100 -100 -125 -147h-90q-29 50 -123 147v13zM466 485v-485q0 -88 -59 -150t-146 -62q-146 0 -197 123l19 8q45 -111 178 -111q79 0 132 56.5t53 135.5v123q-24 -63 -71.5 -98t-113.5 -35q-102 0 -154 73.5t-52 179.5
t52 179t154 73q66 0 113.5 -35t71.5 -98v123h20zM446 243q0 97 -46.5 164.5t-138.5 67.5q-93 0 -139.5 -67.5t-46.5 -164.5t46.5 -165t139.5 -68q92 0 138.5 68t46.5 165z" />
    <glyph glyph-name="uni01E8" unicode="&#x1e8;" horiz-adv-x="619" 
d="M164 931h60q56 -36 107 -92q62 62 109 92h62v-13q-100 -100 -125 -147h-90q-29 50 -123 147v13zM322 401l283 -401h-24l-273 386l-193 -204v-182h-20v690h20v-479l454 479h27z" />
    <glyph glyph-name="uni01E9" unicode="&#x1e9;" horiz-adv-x="534" 
d="M128 951h60q56 -36 107 -92q62 62 109 92h62v-13q-100 -100 -125 -147h-90q-29 50 -123 147v13zM240 282l202 -282h-25l-191 266l-116 -132v-134h-20v740h20v-576l282 321h27z" />
    <glyph glyph-name="uni01EA" unicode="&#x1ea;" horiz-adv-x="780" 
d="M400 -116q0 -22 12 -33.5t33 -11.5t48 6v-56q-34 -9 -62 -9q-103 0 -103 94q0 68 78 126h62q-34 -32 -51 -58.5t-17 -57.5zM668 345q0 -98 -32 -176.5t-102.5 -128.5t-169.5 -50q-147 0 -225.5 102t-78.5 253t78.5 253t225.5 102q99 0 169.5 -50t102.5 -128.5t32 -176.5z
M648 345q0 92 -29.5 166t-95 121.5t-159.5 47.5t-159.5 -47.5t-95 -121.5t-29.5 -166t29.5 -166t95 -121.5t159.5 -47.5t159.5 47.5t95 121.5t29.5 166z" />
    <glyph glyph-name="uni01EB" unicode="&#x1eb;" horiz-adv-x="604" 
d="M302 -116q0 -22 12 -33.5t33 -11.5t48 6v-56q-34 -9 -62 -9q-103 0 -103 94q0 68 78 126h62q-34 -32 -51 -58.5t-17 -57.5zM466 243q0 -106 -52 -179.5t-153 -73.5q-102 0 -154 73.5t-52 179.5t52 179t154 73q101 0 153 -73.5t52 -178.5zM446 243q0 97 -46.5 164.5
t-138.5 67.5q-93 0 -139.5 -67.5t-46.5 -164.5t46.5 -165t139.5 -68q92 0 138.5 68t46.5 165z" />
    <glyph glyph-name="uni01EC" unicode="&#x1ec;" horiz-adv-x="780" 
d="M400 -116q0 -22 12 -33.5t33 -11.5t48 6v-56q-34 -9 -62 -9q-103 0 -103 94q0 68 78 126h62q-34 -32 -51 -58.5t-17 -57.5zM242 842h297v-71h-297v71zM668 345q0 -98 -32 -176.5t-102.5 -128.5t-169.5 -50q-147 0 -225.5 102t-78.5 253t78.5 253t225.5 102
q99 0 169.5 -50t102.5 -128.5t32 -176.5zM648 345q0 92 -29.5 166t-95 121.5t-159.5 47.5t-159.5 -47.5t-95 -121.5t-29.5 -166t29.5 -166t95 -121.5t159.5 -47.5t159.5 47.5t95 121.5t29.5 166z" />
    <glyph glyph-name="uni01ED" unicode="&#x1ed;" horiz-adv-x="604" 
d="M302 -116q0 -22 12 -33.5t33 -11.5t48 6v-56q-34 -9 -62 -9q-103 0 -103 94q0 68 78 126h62q-34 -32 -51 -58.5t-17 -57.5zM154 677h297v-71h-297v71zM466 243q0 -106 -52 -179.5t-153 -73.5q-102 0 -154 73.5t-52 179.5t52 179t154 73q101 0 153 -73.5t52 -178.5z
M446 243q0 97 -46.5 164.5t-138.5 67.5q-93 0 -139.5 -67.5t-46.5 -164.5t46.5 -165t139.5 -68q92 0 138.5 68t46.5 165z" />
    <glyph glyph-name="uni01EE" unicode="&#x1ee;" horiz-adv-x="583" 
d="M103 931h60q56 -36 107 -92q62 62 109 92h62v-13q-100 -100 -125 -147h-90q-29 50 -123 147v13zM291 440q68 -2 122.5 -30t85 -76.5t30.5 -112.5q0 -109 -76 -170t-212 -61q-126 0 -206 39v82q49 -23 104 -35t103 -12q97 0 145 41t48 117q0 69 -49.5 107t-143.5 38h-62
v65l206 202h-331v80h444v-71z" />
    <glyph glyph-name="uni01EF" unicode="&#x1ef;" horiz-adv-x="498" 
d="M218 228q115 -8 180.5 -68.5t65.5 -158.5q0 -70 -33 -125.5t-93.5 -85.5t-138.5 -30q-117 0 -185 35v80q89 -42 189 -42q79 0 126 45t47 121q0 77 -51 118t-151 41h-59v61l219 243h-306v74h409v-64zM58 766h60q56 -36 107 -92q62 62 109 92h62v-13q-100 -100 -125 -147
h-90q-29 50 -123 147v13z" />
    <glyph glyph-name="uni01F0" unicode="&#x1f0;" horiz-adv-x="257" 
d="M-40 766h60q56 -36 107 -92q62 62 109 92h62v-13q-100 -100 -125 -147h-90q-29 50 -123 147v13zM22 -240q-46 0 -77 12v71q34 -10 66 -10q38 0 56 21t18 63v619h88v-616q0 -80 -38.5 -120t-112.5 -40z" />
    <glyph glyph-name="uni01F1" unicode="&#x1f1;" horiz-adv-x="1291" 
d="M95 690h158q169 0 256.5 -87.5t87.5 -257.5t-87.5 -257.5t-256.5 -87.5h-158v690zM115 20h138q324 0 324 325t-324 325h-138v-650zM1280 20v-20h-508v29l488 641h-468v20h488v-27l-490 -643h490z" />
    <glyph glyph-name="uni01F2" unicode="&#x1f2;" horiz-adv-x="1200" 
d="M95 690h158q169 0 256.5 -87.5t87.5 -257.5t-87.5 -257.5t-256.5 -87.5h-158v690zM115 20h138q324 0 324 325t-324 325h-138v-650zM801 485h376l-361 -465h350v-20h-391l362 465h-336v20z" />
    <glyph glyph-name="uni01F3" unicode="&#x1f3;" horiz-adv-x="1084" 
d="M466 740v-740h-20v123q-24 -63 -71.5 -98t-113.5 -35q-102 0 -154 73.5t-52 179.5t52 179t154 73q66 0 113.5 -35t71.5 -98v378h20zM446 243q0 97 -46.5 164.5t-138.5 67.5q-93 0 -139.5 -67.5t-46.5 -164.5t46.5 -165t139.5 -68q92 0 138.5 68t46.5 165zM686 485h376
l-361 -465h350v-20h-391l362 465h-336v20z" />
    <glyph glyph-name="uni01F4" unicode="&#x1f4;" horiz-adv-x="728" 
d="M609 316v-286q-79 -40 -219 -40q-165 0 -247.5 94t-82.5 261q0 95 29 173t96.5 130t163.5 52q98 0 164 -46t93 -128l-19 -8q-51 162 -238 162q-91 0 -153.5 -49.5t-89 -123t-26.5 -162.5q0 -159 76.5 -247t233.5 -88q120 0 199 32v254h-225v20h245zM272 855l14 -14
l-112 -113l-14 15z" />
    <glyph glyph-name="uni01F5" unicode="&#x1f5;" horiz-adv-x="615" 
d="M466 485v-485q0 -88 -59 -150t-146 -62q-146 0 -197 123l19 8q45 -111 178 -111q79 0 132 56.5t53 135.5v123q-24 -63 -71.5 -98t-113.5 -35q-102 0 -154 73.5t-52 179.5t52 179t154 73q66 0 113.5 -35t71.5 -98v123h20zM446 243q0 97 -46.5 164.5t-138.5 67.5
q-93 0 -139.5 -67.5t-46.5 -164.5t46.5 -165t139.5 -68q92 0 138.5 68t46.5 165zM134 690l14 -14l-112 -113l-14 15z" />
    <glyph glyph-name="uni01F6" unicode="&#x1f6;" horiz-adv-x="937" 
d="M187 333v-333h-90v714h90v-302h296v302h90v-550q0 -45 23 -70t70 -25q44 0 68 25t24 71v371h90v-371q0 -81 -49 -127.5t-136 -46.5q-85 0 -132.5 46t-47.5 129v167h-296z" />
    <glyph glyph-name="uni01F7" unicode="&#x1f7;" horiz-adv-x="661" 
d="M389 725q103 0 160 -64t57 -179q0 -161 -106.5 -284.5t-312.5 -207.5v-230h-90v955h71l15 -97h5q37 55 86.5 81t114.5 26zM187 74q161 67 245 171.5t84 235.5q0 81 -37 123.5t-106 42.5q-94 0 -140 -55.5t-46 -173.5v-344z" />
    <glyph glyph-name="uni01F8" unicode="&#x1f8;" horiz-adv-x="759" 
d="M557 690v-690h-22l-420 656v-656h-20v690h22l420 -656v656h20zM-48 855l112 -112l-14 -15l-112 113z" />
    <glyph glyph-name="uni01F9" unicode="&#x1f9;" horiz-adv-x="618" 
d="M471 293v-293h-20v293q0 182 -146 182q-73 0 -121.5 -45t-67.5 -118q-6 -27 -6 -30v-282h-20v485h20v-127q26 63 77.5 100t117.5 37q87 0 126.5 -56t39.5 -146zM-109 690l112 -112l-14 -15l-112 113z" />
    <glyph glyph-name="Aringacute" unicode="&#x1fa;" horiz-adv-x="640" 
d="M430 699q0 -32 -13 -54.5t-35 -35.5l258 -609h-93l-82 192h-295l-78 -192h-92l258 608q-49 26 -49 90q0 48 29.5 77t79.5 29t81 -29.5t31 -75.5zM439 272l-84 207q-13 30 -36 101q-15 -52 -35 -103l-83 -205h238zM271 838q28 33 51 67t34 53h106v-8q-15 -21 -58 -60.5
t-74 -60.5h-59v9zM374 698q0 27 -15.5 41.5t-40.5 14.5q-24 0 -40 -14.5t-16 -41.5q0 -26 14.5 -41t41.5 -15q25 0 40.5 14.5t15.5 41.5z" />
    <glyph glyph-name="aringacute" unicode="&#x1fb;" horiz-adv-x="561" 
d="M416 0l-17 76h-4q-40 -50 -80 -68t-100 -18q-79 0 -124 41.5t-45 117.5q0 163 257 171l91 3v32q0 61 -26.5 90t-84.5 29q-42 0 -80 -12.5t-71 -28.5l-27 66q41 21 88.5 33.5t94.5 12.5q97 0 144.5 -43t47.5 -137v-365h-64zM235 61q74 0 116 40t42 113v48l-79 -3
q-92 -3 -134.5 -29t-42.5 -82q0 -42 26 -64.5t72 -22.5zM396 713q0 -49 -30.5 -78t-80.5 -29t-79.5 29t-29.5 77q0 47 29 76t80 29q49 0 80 -29t31 -75zM341 712q0 26 -16 41t-40 15t-40 -15t-16 -41t14.5 -41t41.5 -15q25 0 40.5 15t15.5 41zM230 856v8q22 21 48 50t37 44
h131v-6q-10 -12 -50.5 -37.5t-102.5 -58.5h-63z" />
    <glyph glyph-name="AEacute" unicode="&#x1fc;" horiz-adv-x="880" 
d="M833 20v-20h-417v220h-240l-123 -220h-23l386 690h417v-20h-397v-315h350v-20h-350v-315h397zM187 240h229v409zM389 855l14 -14l-112 -113l-14 15z" />
    <glyph glyph-name="aeacute" unicode="&#x1fd;" horiz-adv-x="863" 
d="M102 376l-18 8q45 111 173 111q65 0 111 -37.5t55 -100.5q23 66 71 102t116 36q105 0 155.5 -74.5t50.5 -184.5h-391q2 -60 20.5 -109.5t61 -83t103.5 -33.5q116 0 163 110l18 -8q-24 -58 -71 -90t-110 -32q-77 0 -127 45.5t-69 122.5q-21 -75 -75 -121.5t-138 -46.5
q-64 0 -105 33.5t-41 96.5q0 83 60.5 121.5t148.5 38.5h141v51q0 64 -41.5 104t-106.5 40q-115 0 -155 -99zM425 253h371q-2 93 -49 157.5t-137 64.5q-89 0 -136 -64t-49 -158zM405 220v40h-141q-79 0 -134 -33t-55 -107q0 -54 35 -82t91 -28q84 0 144 63t60 147zM291 690
l14 -14l-112 -113l-14 15z" />
    <glyph glyph-name="Oslashacute" unicode="&#x1fe;" horiz-adv-x="780" 
d="M722 697l13 -14l-123 -117q56 -90 56 -221q0 -98 -32 -176.5t-102.5 -128.5t-169.5 -50q-155 0 -237 117l-120 -114l-14 14l123 117q-56 90 -56 221q0 151 78.5 253t225.5 102q155 0 237 -117zM131 138l456 431q-77 111 -223 111q-94 0 -159.5 -47.5t-95 -121.5
t-29.5 -166q0 -122 51 -207zM598 552l-456 -431q75 -111 222 -111q94 0 159.5 47.5t95 121.5t29.5 166q0 122 -50 207zM236 855l14 -14l-112 -113l-14 15z" />
    <glyph glyph-name="oslashacute" unicode="&#x1ff;" horiz-adv-x="604" 
d="M514 492l14 -14l-94 -88q32 -63 32 -147q0 -106 -52 -179.5t-153 -73.5q-108 0 -163 87l-91 -84l-14 14l94 88q-32 63 -32 148q0 106 52 179t154 73q107 0 162 -87zM103 109l306 285q-51 81 -148 81q-93 0 -139.5 -67.5t-46.5 -164.5q0 -75 28 -134zM418 376l-305 -285
q49 -81 148 -81q92 0 138.5 68t46.5 165q0 78 -28 133zM141 690l14 -14l-112 -113l-14 15z" />
    <glyph glyph-name="uni0200" unicode="&#x200;" horiz-adv-x="639" 
d="M449 771h-50q-29 23 -72 72t-61 78v10h97q14 -30 38 -72.5t48 -75.5v-12zM273 771h-50q-32 25 -74.5 74t-58.5 76v10h97q14 -30 38 -72.5t48 -75.5v-12zM308 690l258 -690h-22l-82 220h-329l-82 -220h-21l257 690h21zM141 240h314l-157 421z" />
    <glyph glyph-name="uni0201" unicode="&#x201;" horiz-adv-x="561" 
d="M415 606h-50q-29 23 -72 72t-61 78v10h97q14 -30 38 -72.5t48 -75.5v-12zM239 606h-50q-32 25 -74.5 74t-58.5 76v10h97q14 -30 38 -72.5t48 -75.5v-12zM425 331v-331h-20v142q-21 -71 -76.5 -111.5t-127.5 -40.5q-64 0 -105 33.5t-41 96.5q0 83 60.5 121.5t148.5 38.5
h141v51q0 64 -41.5 104t-106.5 40q-114 0 -155 -99l-18 8q46 111 173 111q73 0 120.5 -45.5t47.5 -118.5zM405 220v40h-141q-79 0 -134 -33t-55 -107q0 -55 35 -82.5t91 -27.5q84 0 144 63t60 147z" />
    <glyph glyph-name="uni0202" unicode="&#x202;" horiz-adv-x="639" 
d="M322 905q69 0 108.5 -33.5t44.5 -100.5h-54q-4 36 -25 49.5t-76 13.5q-50 0 -73.5 -15.5t-27.5 -47.5h-55q5 63 47.5 98.5t110.5 35.5zM308 690l258 -690h-22l-82 220h-329l-82 -220h-21l257 690h21zM141 240h314l-157 421z" />
    <glyph glyph-name="uni0203" unicode="&#x203;" horiz-adv-x="561" 
d="M293 740q69 0 108.5 -33.5t44.5 -100.5h-54q-4 36 -25 49.5t-76 13.5q-50 0 -73.5 -15.5t-27.5 -47.5h-55q5 63 47.5 98.5t110.5 35.5zM425 331v-331h-20v142q-21 -71 -76.5 -111.5t-127.5 -40.5q-64 0 -105 33.5t-41 96.5q0 83 60.5 121.5t148.5 38.5h141v51
q0 64 -41.5 104t-106.5 40q-114 0 -155 -99l-18 8q46 111 173 111q73 0 120.5 -45.5t47.5 -118.5zM405 220v40h-141q-79 0 -134 -33t-55 -107q0 -55 35 -82.5t91 -27.5q84 0 144 63t60 147z" />
    <glyph glyph-name="uni0204" unicode="&#x204;" horiz-adv-x="556" 
d="M437 771h-50q-29 23 -72 72t-61 78v10h97q14 -30 38 -72.5t48 -75.5v-12zM261 771h-50q-32 25 -74.5 74t-58.5 76v10h97q14 -30 38 -72.5t48 -75.5v-12zM512 20v-20h-417v690h417v-20h-397v-315h350v-20h-350v-315h397z" />
    <glyph glyph-name="uni0205" unicode="&#x205;" horiz-adv-x="563" 
d="M431 606h-50q-29 23 -72 72t-61 78v10h97q14 -30 38 -72.5t48 -75.5v-12zM255 606h-50q-32 25 -74.5 74t-58.5 76v10h97q14 -30 38 -72.5t48 -75.5v-12zM466 243v-7h-391q2 -95 49 -160.5t137 -65.5q115 0 162 110l19 -8q-25 -58 -72 -90t-109 -32q-102 0 -154 73.5
t-52 179.5t52 179t154 73q101 0 153 -73.5t52 -178.5zM75 253h371q-2 93 -49 157.5t-136 64.5q-90 0 -137 -64t-49 -158z" />
    <glyph glyph-name="uni0206" unicode="&#x206;" horiz-adv-x="556" 
d="M300 905q69 0 108.5 -33.5t44.5 -100.5h-54q-4 36 -25 49.5t-76 13.5q-50 0 -73.5 -15.5t-27.5 -47.5h-55q5 63 47.5 98.5t110.5 35.5zM512 20v-20h-417v690h417v-20h-397v-315h350v-20h-350v-315h397z" />
    <glyph glyph-name="uni0207" unicode="&#x207;" horiz-adv-x="563" 
d="M294 740q69 0 108.5 -33.5t44.5 -100.5h-54q-4 36 -25 49.5t-76 13.5q-50 0 -73.5 -15.5t-27.5 -47.5h-55q5 63 47.5 98.5t110.5 35.5zM466 243v-7h-391q2 -95 49 -160.5t137 -65.5q115 0 162 110l19 -8q-25 -58 -72 -90t-109 -32q-102 0 -154 73.5t-52 179.5t52 179
t154 73q101 0 153 -73.5t52 -178.5zM75 253h371q-2 93 -49 157.5t-136 64.5q-90 0 -137 -64t-49 -158z" />
    <glyph glyph-name="uni0208" unicode="&#x208;" horiz-adv-x="338" 
d="M299 771h-50q-29 23 -72 72t-61 78v10h97q14 -30 38 -72.5t48 -75.5v-12zM123 771h-50q-32 25 -74.5 74t-58.5 76v10h97q14 -30 38 -72.5t48 -75.5v-12zM115 690v-690h-20v690h20z" />
    <glyph glyph-name="uni0209" unicode="&#x209;" horiz-adv-x="257" 
d="M258 606h-50q-29 23 -72 72t-61 78v10h97q14 -30 38 -72.5t48 -75.5v-12zM82 606h-50q-32 25 -74.5 74t-58.5 76v10h97q14 -30 38 -72.5t48 -75.5v-12zM105 485v-485h-20v485h20z" />
    <glyph glyph-name="uni020A" unicode="&#x20a;" horiz-adv-x="338" 
d="M172 905q69 0 108.5 -33.5t44.5 -100.5h-54q-4 36 -25 49.5t-76 13.5q-50 0 -73.5 -15.5t-27.5 -47.5h-55q5 63 47.5 98.5t110.5 35.5zM115 690v-690h-20v690h20z" />
    <glyph glyph-name="uni020B" unicode="&#x20b;" horiz-adv-x="257" 
d="M131 740q69 0 108.5 -33.5t44.5 -100.5h-54q-4 36 -25 49.5t-76 13.5q-50 0 -73.5 -15.5t-27.5 -47.5h-55q5 63 47.5 98.5t110.5 35.5zM105 485v-485h-20v485h20z" />
    <glyph glyph-name="uni020C" unicode="&#x20c;" horiz-adv-x="780" 
d="M521 771h-50q-29 23 -72 72t-61 78v10h97q14 -30 38 -72.5t48 -75.5v-12zM345 771h-50q-32 25 -74.5 74t-58.5 76v10h97q14 -30 38 -72.5t48 -75.5v-12zM668 345q0 -98 -32 -176.5t-102.5 -128.5t-169.5 -50q-147 0 -225.5 102t-78.5 253t78.5 253t225.5 102
q99 0 169.5 -50t102.5 -128.5t32 -176.5zM648 345q0 92 -29.5 166t-95 121.5t-159.5 47.5t-159.5 -47.5t-95 -121.5t-29.5 -166t29.5 -166t95 -121.5t159.5 -47.5t159.5 47.5t95 121.5t29.5 166z" />
    <glyph glyph-name="uni020D" unicode="&#x20d;" horiz-adv-x="604" 
d="M438 606h-50q-29 23 -72 72t-61 78v10h97q14 -30 38 -72.5t48 -75.5v-12zM262 606h-50q-32 25 -74.5 74t-58.5 76v10h97q14 -30 38 -72.5t48 -75.5v-12zM466 243q0 -106 -52 -179.5t-153 -73.5q-102 0 -154 73.5t-52 179.5t52 179t154 73q101 0 153 -73.5t52 -178.5z
M446 243q0 97 -46.5 164.5t-138.5 67.5q-93 0 -139.5 -67.5t-46.5 -164.5t46.5 -165t139.5 -68q92 0 138.5 68t46.5 165z" />
    <glyph glyph-name="uni020E" unicode="&#x20e;" horiz-adv-x="780" 
d="M393 905q69 0 108.5 -33.5t44.5 -100.5h-54q-4 36 -25 49.5t-76 13.5q-50 0 -73.5 -15.5t-27.5 -47.5h-55q5 63 47.5 98.5t110.5 35.5zM668 345q0 -98 -32 -176.5t-102.5 -128.5t-169.5 -50q-147 0 -225.5 102t-78.5 253t78.5 253t225.5 102q99 0 169.5 -50t102.5 -128.5
t32 -176.5zM648 345q0 92 -29.5 166t-95 121.5t-159.5 47.5t-159.5 -47.5t-95 -121.5t-29.5 -166t29.5 -166t95 -121.5t159.5 -47.5t159.5 47.5t95 121.5t29.5 166z" />
    <glyph glyph-name="uni020F" unicode="&#x20f;" horiz-adv-x="604" 
d="M305 740q69 0 108.5 -33.5t44.5 -100.5h-54q-4 36 -25 49.5t-76 13.5q-50 0 -73.5 -15.5t-27.5 -47.5h-55q5 63 47.5 98.5t110.5 35.5zM466 243q0 -106 -52 -179.5t-153 -73.5q-102 0 -154 73.5t-52 179.5t52 179t154 73q101 0 153 -73.5t52 -178.5zM446 243
q0 97 -46.5 164.5t-138.5 67.5q-93 0 -139.5 -67.5t-46.5 -164.5t46.5 -165t139.5 -68q92 0 138.5 68t46.5 165z" />
    <glyph glyph-name="uni0210" unicode="&#x210;" horiz-adv-x="622" 
d="M440 771h-50q-29 23 -72 72t-61 78v10h97q14 -30 38 -72.5t48 -75.5v-12zM264 771h-50q-32 25 -74.5 74t-58.5 76v10h97q14 -30 38 -72.5t48 -75.5v-12zM370 337l196 -337h-23l-195 335h-233v-335h-20v690h247q85 0 145 -47.5t60 -129.5q0 -75 -50.5 -121.5t-126.5 -54.5
zM115 355h227q76 0 130.5 42t54.5 116q0 73 -54.5 115t-130.5 42h-227v-315z" />
    <glyph glyph-name="uni0211" unicode="&#x211;" horiz-adv-x="413" 
d="M376 606h-50q-29 23 -72 72t-61 78v10h97q14 -30 38 -72.5t48 -75.5v-12zM200 606h-50q-32 25 -74.5 74t-58.5 76v10h97q14 -30 38 -72.5t48 -75.5v-12zM110 485v-128q26 65 76.5 101.5t118.5 36.5q32 0 57 -8l-6 -19q-24 7 -51 7q-66 0 -112 -37.5t-69 -101.5
q-14 -35 -14 -54v-282h-20v485h20z" />
    <glyph glyph-name="uni0212" unicode="&#x212;" horiz-adv-x="622" 
d="M313 905q69 0 108.5 -33.5t44.5 -100.5h-54q-4 36 -25 49.5t-76 13.5q-50 0 -73.5 -15.5t-27.5 -47.5h-55q5 63 47.5 98.5t110.5 35.5zM370 337l196 -337h-23l-195 335h-233v-335h-20v690h247q85 0 145 -47.5t60 -129.5q0 -75 -50.5 -121.5t-126.5 -54.5zM115 355h227
q76 0 130.5 42t54.5 116q0 73 -54.5 115t-130.5 42h-227v-315z" />
    <glyph glyph-name="uni0213" unicode="&#x213;" horiz-adv-x="413" 
d="M244 740q69 0 108.5 -33.5t44.5 -100.5h-54q-4 36 -25 49.5t-76 13.5q-50 0 -73.5 -15.5t-27.5 -47.5h-55q5 63 47.5 98.5t110.5 35.5zM110 485v-128q26 65 76.5 101.5t118.5 36.5q32 0 57 -8l-6 -19q-24 7 -51 7q-66 0 -112 -37.5t-69 -101.5q-14 -35 -14 -54v-282h-20
v485h20z" />
    <glyph glyph-name="uni0214" unicode="&#x214;" horiz-adv-x="730" 
d="M509 771h-50q-29 23 -72 72t-61 78v10h97q14 -30 38 -72.5t48 -75.5v-12zM333 771h-50q-32 25 -74.5 74t-58.5 76v10h97q14 -30 38 -72.5t48 -75.5v-12zM614 690v-413q0 -131 -66.5 -209t-195.5 -78t-195.5 78t-66.5 209v413h20v-413q0 -123 61 -195t181 -72t181 72
t61 195v413h20z" />
    <glyph glyph-name="uni0215" unicode="&#x215;" horiz-adv-x="618" 
d="M438 606h-50q-29 23 -72 72t-61 78v10h97q14 -30 38 -72.5t48 -75.5v-12zM262 606h-50q-32 25 -74.5 74t-58.5 76v10h97q14 -30 38 -72.5t48 -75.5v-12zM466 485v-485h-20v127q-26 -63 -77.5 -100t-117.5 -37q-87 0 -126.5 56t-39.5 146v293h20v-293q0 -182 146 -182
q73 0 121.5 45t67.5 118q6 27 6 30v282h20z" />
    <glyph glyph-name="uni0216" unicode="&#x216;" horiz-adv-x="730" 
d="M368 905q69 0 108.5 -33.5t44.5 -100.5h-54q-4 36 -25 49.5t-76 13.5q-50 0 -73.5 -15.5t-27.5 -47.5h-55q5 63 47.5 98.5t110.5 35.5zM614 690v-413q0 -131 -66.5 -209t-195.5 -78t-195.5 78t-66.5 209v413h20v-413q0 -123 61 -195t181 -72t181 72t61 195v413h20z" />
    <glyph glyph-name="uni0217" unicode="&#x217;" horiz-adv-x="618" 
d="M311 740q69 0 108.5 -33.5t44.5 -100.5h-54q-4 36 -25 49.5t-76 13.5q-50 0 -73.5 -15.5t-27.5 -47.5h-55q5 63 47.5 98.5t110.5 35.5zM466 485v-485h-20v127q-26 -63 -77.5 -100t-117.5 -37q-87 0 -126.5 56t-39.5 146v293h20v-293q0 -182 146 -182q73 0 121.5 45
t67.5 118q6 27 6 30v282h20z" />
    <glyph glyph-name="uni0218" unicode="&#x218;" horiz-adv-x="548" 
d="M190 -209q11 25 24 70.5t17 77.5h87v-9q-8 -31 -31.5 -76.5t-48.5 -74.5h-48v12zM520 540l-20 -6q-21 72 -74.5 109t-129.5 37q-79 0 -133.5 -45t-54.5 -122q0 -46 23.5 -76.5t61 -45.5t82.5 -25.5t90 -22t82.5 -28.5t61 -52t23.5 -87q0 -96 -64 -141t-163 -45
q-200 0 -255 176l19 6q52 -162 236 -162q91 0 149 39.5t58 126.5q0 48 -23.5 79.5t-61 47t-82.5 26t-90 22t-82.5 28t-61 50.5t-23.5 84q0 86 60 136.5t148 50.5q83 0 141.5 -41t82.5 -119z" />
    <glyph glyph-name="uni0219" unicode="&#x219;" horiz-adv-x="479" 
d="M161 -209q11 25 24 70.5t17 77.5h87v-9q-8 -31 -31.5 -76.5t-48.5 -74.5h-48v12zM380 384l-18 -7q-45 98 -150 98q-54 0 -91.5 -31t-37.5 -84q0 -42 30.5 -65.5t74.5 -33t88 -20t74.5 -39.5t30.5 -79q0 -69 -45 -101t-117 -32q-67 0 -110 29t-69 90l18 8q24 -56 62 -81.5
t99 -25.5q142 0 142 113q0 44 -30.5 69t-74.5 34.5t-88 19.5t-74.5 37.5t-30.5 76.5q0 62 43 98.5t106 36.5q121 0 168 -111z" />
    <glyph glyph-name="uni021A" unicode="&#x21a;" horiz-adv-x="556" 
d="M191 -209q11 25 24 70.5t17 77.5h87v-9q-8 -31 -31.5 -76.5t-48.5 -74.5h-48v12zM552 690v-20h-251v-670h-20v670h-251v20h522z" />
    <glyph glyph-name="uni021B" unicode="&#x21b;" horiz-adv-x="360" 
d="M141 -209q11 25 24 70.5t17 77.5h87v-9q-8 -31 -31.5 -76.5t-48.5 -74.5h-48v12zM304 20l4 -20q-37 -10 -70 -10q-102 0 -102 119v356h-116v20h116v135h20v-135h146v-20h-146v-356q0 -48 18.5 -73.5t64.5 -25.5q28 0 65 10z" />
    <glyph glyph-name="uni021C" unicode="&#x21c;" horiz-adv-x="587" 
d="M519 547q0 -69 -44.5 -113.5t-124.5 -56.5v-4q91 -12 137.5 -56t46.5 -115q0 -100 -75.5 -156t-212.5 -56q-128 0 -208 39v82q48 -23 103.5 -35t103.5 -12q97 0 146 35.5t49 102.5q0 64 -55 97t-165 33h-102v75h97q106 0 158.5 35.5t52.5 95.5q0 52 -39 82t-105 30
q-56 0 -100.5 -13t-97.5 -48l-43 61q103 74 242 74q110 0 173 -47.5t63 -129.5z" />
    <glyph glyph-name="uni021D" unicode="&#x21d;" horiz-adv-x="498" 
d="M193 228q70 0 111.5 35t41.5 90t-38.5 88t-103.5 33q-30 0 -60.5 -7.5t-72.5 -26.5l-30 70q44 21 83 28.5t85 7.5q103 0 162 -48t59 -133q0 -61 -31.5 -105t-95.5 -65q81 -21 121 -71t40 -123q0 -70 -33 -125.5t-93.5 -85.5t-138.5 -30q-116 0 -189 37v80
q44 -21 95 -32.5t98 -11.5q79 0 126 45t47 121q0 77 -51 118t-151 41h-79v70h98z" />
    <glyph glyph-name="uni021E" unicode="&#x21e;" horiz-adv-x="741" 
d="M201 931h60q56 -36 107 -92q62 62 109 92h62v-13q-100 -100 -125 -147h-90q-29 50 -123 147v13zM547 690v-690h-20v335h-412v-335h-20v690h20v-335h412v335h20z" />
    <glyph glyph-name="uni021F" unicode="&#x21f;" horiz-adv-x="618" 
d="M165 951h60q56 -36 107 -92q62 62 109 92h62v-13q-100 -100 -125 -147h-90q-29 50 -123 147v13zM471 293v-293h-20v293q0 182 -146 182q-73 0 -121.5 -45t-67.5 -118q-6 -27 -6 -30v-282h-20v740h20v-382q26 63 77.5 100t117.5 37q87 0 126.5 -56t39.5 -146z" />
    <glyph glyph-name="uni0220" unicode="&#x220;" horiz-adv-x="741" 
d="M392 647q-205 0 -205 -224v-423h-90v715h71l15 -92h5q32 45 93 73.5t122 28.5q247 0 247 -264v-701h-90v701q0 97 -41 141.5t-127 44.5z" />
    <glyph glyph-name="uni0221" unicode="&#x221;" horiz-adv-x="615" 
d="M530 -72q0 -52 12 -74t45 -22q36 0 57 11v-67q-23 -16 -76 -16q-126 0 -126 167v63q0 12 2.5 41t3.5 38h-6q-58 -79 -166 -79q-105 0 -163 73t-58 204t58 205t163 74q108 0 166 -79h6q-1 10 -3.5 39.5t-2.5 39.5v214h88v-832zM289 63q80 0 117 43.5t37 143.5v16
q0 112 -37.5 159.5t-117.5 47.5q-68 0 -105 -54t-37 -154t37 -151t106 -51z" />
    <glyph glyph-name="uni0222" unicode="&#x222;" horiz-adv-x="670" 
d="M335 470q74 0 113 41t39 115v88h90v-88q0 -145 -115 -193q74 -23 112.5 -74t38.5 -127q0 -112 -74.5 -177t-205.5 -65q-81 0 -143.5 29.5t-97 85t-34.5 127.5q0 157 149 202q-113 46 -113 192v88h90v-88q0 -74 39 -115t112 -41zM153 232q0 -82 46 -123t136 -41
t136.5 41.5t46.5 122.5q0 161 -184 161q-181 0 -181 -161z" />
    <glyph glyph-name="uni0223" unicode="&#x223;" horiz-adv-x="604" 
d="M303 485q67 0 96.5 36t29.5 113v126h88v-129q0 -77 -23 -121t-74 -63q65 -25 98 -78t33 -130q0 -117 -67 -183t-183 -66q-111 0 -178.5 67.5t-67.5 181.5q0 162 130 209q-51 19 -73.5 63.5t-22.5 119.5v129h88v-126q0 -77 29.5 -113t96.5 -36zM146 239q0 -86 39.5 -131
t117.5 -45q77 0 117 44.5t40 131.5t-41 130t-117 43q-77 0 -116.5 -43.5t-39.5 -129.5z" />
    <glyph glyph-name="uni0224" unicode="&#x224;" horiz-adv-x="571" 
d="M416 -198q-29 0 -60 12v73q22 -9 50 -9q48 0 48 52v150h79v-145q0 -133 -117 -133zM560 20v-20h-508v29l488 641h-468v20h488v-27l-490 -643h490z" />
    <glyph glyph-name="uni0225" unicode="&#x225;" horiz-adv-x="470" 
d="M431 -65q0 -133 -117 -133q-29 0 -60 12v73q22 -9 50 -9q48 0 48 52v70h-313v58l288 410h-271v68h368v-66l-284 -402h291v-133z" />
    <glyph glyph-name="uni0226" unicode="&#x226;" horiz-adv-x="639" 
d="M268 846q0 29 15 42.5t37 13.5q21 0 36 -13.5t15 -42.5t-15.5 -42.5t-35.5 -13.5q-22 0 -37 13.5t-15 42.5zM308 690l258 -690h-22l-82 220h-329l-82 -220h-21l257 690h21zM141 240h314l-157 421z" />
    <glyph glyph-name="uni0227" unicode="&#x227;" horiz-adv-x="561" 
d="M229 681q0 29 15 42.5t37 13.5q21 0 36 -13.5t15 -42.5t-15.5 -42.5t-35.5 -13.5q-22 0 -37 13.5t-15 42.5zM425 331v-331h-20v142q-21 -71 -76.5 -111.5t-127.5 -40.5q-64 0 -105 33.5t-41 96.5q0 83 60.5 121.5t148.5 38.5h141v51q0 64 -41.5 104t-106.5 40
q-114 0 -155 -99l-18 8q46 111 173 111q73 0 120.5 -45.5t47.5 -118.5zM405 220v40h-141q-79 0 -134 -33t-55 -107q0 -55 35 -82.5t91 -27.5q84 0 144 63t60 147z" />
    <glyph glyph-name="uni0228" unicode="&#x228;" horiz-adv-x="556" 
d="M512 20v-20h-417v690h417v-20h-397v-315h350v-20h-350v-315h397zM202 7l-25 -44q23 -1 41.5 -11t18.5 -31q0 -22 -19.5 -34.5t-42.5 -12.5q-25 0 -52 12l8 18q22 -10 44 -10q14 0 28 6.5t14 19.5q0 23 -42 23q-6 0 -19 -1.5t-15 -1.5l38 67h23z" />
    <glyph glyph-name="uni0229" unicode="&#x229;" horiz-adv-x="563" 
d="M466 243v-7h-391q2 -95 49 -160.5t137 -65.5q115 0 162 110l19 -8q-25 -58 -72 -90t-109 -32q-102 0 -154 73.5t-52 179.5t52 179t154 73q101 0 153 -73.5t52 -178.5zM75 253h371q-2 93 -49 157.5t-136 64.5q-90 0 -137 -64t-49 -158zM196 7l-25 -44q23 -1 41.5 -11
t18.5 -31q0 -22 -19.5 -34.5t-42.5 -12.5q-25 0 -52 12l8 18q22 -10 44 -10q14 0 28 6.5t14 19.5q0 23 -42 23q-6 0 -19 -1.5t-15 -1.5l38 67h23z" />
    <glyph glyph-name="uni022A" unicode="&#x22a;" horiz-adv-x="780" 
d="M531 828q0 -23 -12.5 -36t-34.5 -13t-34.5 13t-12.5 36q0 26 14 38t33 12q20 0 33.5 -12t13.5 -38zM343 828q0 -26 -13.5 -37.5t-32.5 -11.5q-22 0 -34.5 13t-12.5 36q0 26 14 38t33 12t32.5 -12t13.5 -38zM242 1014h297v-71h-297v71zM668 345q0 -98 -32 -176.5
t-102.5 -128.5t-169.5 -50q-147 0 -225.5 102t-78.5 253t78.5 253t225.5 102q99 0 169.5 -50t102.5 -128.5t32 -176.5zM648 345q0 92 -29.5 166t-95 121.5t-159.5 47.5t-159.5 -47.5t-95 -121.5t-29.5 -166t29.5 -166t95 -121.5t159.5 -47.5t159.5 47.5t95 121.5t29.5 166z
" />
    <glyph glyph-name="uni022B" unicode="&#x22b;" horiz-adv-x="604" 
d="M443 650q0 -23 -12.5 -36t-34.5 -13t-34.5 13t-12.5 36q0 26 14 38t33 12q20 0 33.5 -12t13.5 -38zM255 650q0 -26 -13.5 -37.5t-32.5 -11.5q-22 0 -34.5 13t-12.5 36q0 26 14 38t33 12t32.5 -12t13.5 -38zM154 836h297v-71h-297v71zM466 243q0 -106 -52 -179.5
t-153 -73.5q-102 0 -154 73.5t-52 179.5t52 179t154 73q101 0 153 -73.5t52 -178.5zM446 243q0 97 -46.5 164.5t-138.5 67.5q-93 0 -139.5 -67.5t-46.5 -164.5t46.5 -165t139.5 -68q92 0 138.5 68t46.5 165z" />
    <glyph glyph-name="uni022C" unicode="&#x22c;" horiz-adv-x="780" 
d="M461 784q-19 0 -38 7.5t-36.5 16.5t-35 16.5t-32.5 7.5q-19 0 -29 -11t-17 -38h-51q5 55 30.5 84.5t66.5 29.5q21 0 40.5 -7.5t37 -16.5t34 -16.5t31.5 -7.5q21 0 30 13t16 36h50q-5 -55 -30 -84.5t-67 -29.5zM241 1014h297v-71h-297v71zM668 345q0 -98 -32 -176.5
t-102.5 -128.5t-169.5 -50q-147 0 -225.5 102t-78.5 253t78.5 253t225.5 102q99 0 169.5 -50t102.5 -128.5t32 -176.5zM648 345q0 92 -29.5 166t-95 121.5t-159.5 47.5t-159.5 -47.5t-95 -121.5t-29.5 -166t29.5 -166t95 -121.5t159.5 -47.5t159.5 47.5t95 121.5t29.5 166z
" />
    <glyph glyph-name="uni022D" unicode="&#x22d;" horiz-adv-x="604" 
d="M373 606q-19 0 -38 7.5t-36.5 16.5t-35 16.5t-32.5 7.5q-19 0 -29 -11t-17 -38h-51q5 55 30.5 84.5t66.5 29.5q21 0 40.5 -7.5t37 -16.5t34 -16.5t31.5 -7.5q21 0 30 13t16 36h50q-5 -55 -30 -84.5t-67 -29.5zM153 836h297v-71h-297v71zM466 243q0 -106 -52 -179.5
t-153 -73.5q-102 0 -154 73.5t-52 179.5t52 179t154 73q101 0 153 -73.5t52 -178.5zM446 243q0 97 -46.5 164.5t-138.5 67.5q-93 0 -139.5 -67.5t-46.5 -164.5t46.5 -165t139.5 -68q92 0 138.5 68t46.5 165z" />
    <glyph glyph-name="uni022E" unicode="&#x22e;" horiz-adv-x="780" 
d="M339 846q0 29 15 42.5t37 13.5q21 0 36 -13.5t15 -42.5t-15.5 -42.5t-35.5 -13.5q-22 0 -37 13.5t-15 42.5zM668 345q0 -98 -32 -176.5t-102.5 -128.5t-169.5 -50q-147 0 -225.5 102t-78.5 253t78.5 253t225.5 102q99 0 169.5 -50t102.5 -128.5t32 -176.5zM648 345
q0 92 -29.5 166t-95 121.5t-159.5 47.5t-159.5 -47.5t-95 -121.5t-29.5 -166t29.5 -166t95 -121.5t159.5 -47.5t159.5 47.5t95 121.5t29.5 166z" />
    <glyph glyph-name="uni022F" unicode="&#x22f;" horiz-adv-x="604" 
d="M251 681q0 29 15 42.5t37 13.5q21 0 36 -13.5t15 -42.5t-15.5 -42.5t-35.5 -13.5q-22 0 -37 13.5t-15 42.5zM466 243q0 -106 -52 -179.5t-153 -73.5q-102 0 -154 73.5t-52 179.5t52 179t154 73q101 0 153 -73.5t52 -178.5zM446 243q0 97 -46.5 164.5t-138.5 67.5
q-93 0 -139.5 -67.5t-46.5 -164.5t46.5 -165t139.5 -68q92 0 138.5 68t46.5 165z" />
    <glyph glyph-name="uni0230" unicode="&#x230;" horiz-adv-x="780" 
d="M339 826q0 29 15 42.5t37 13.5q23 0 37 -15t14 -41t-14.5 -41t-36.5 -15t-37 13.5t-15 42.5zM241 1001h297v-71h-297v71zM668 345q0 -98 -32 -176.5t-102.5 -128.5t-169.5 -50q-147 0 -225.5 102t-78.5 253t78.5 253t225.5 102q99 0 169.5 -50t102.5 -128.5t32 -176.5z
M648 345q0 92 -29.5 166t-95 121.5t-159.5 47.5t-159.5 -47.5t-95 -121.5t-29.5 -166t29.5 -166t95 -121.5t159.5 -47.5t159.5 47.5t95 121.5t29.5 166z" />
    <glyph glyph-name="uni0231" unicode="&#x231;" horiz-adv-x="604" 
d="M252 662q0 29 15 42.5t37 13.5q23 0 37 -15t14 -41t-14.5 -41t-36.5 -15t-37 13.5t-15 42.5zM154 837h297v-71h-297v71zM466 243q0 -106 -52 -179.5t-153 -73.5q-102 0 -154 73.5t-52 179.5t52 179t154 73q101 0 153 -73.5t52 -178.5zM446 243q0 97 -46.5 164.5
t-138.5 67.5q-93 0 -139.5 -67.5t-46.5 -164.5t46.5 -165t139.5 -68q92 0 138.5 68t46.5 165z" />
    <glyph glyph-name="uni0232" unicode="&#x232;" horiz-adv-x="565" 
d="M135 842h297v-71h-297v71zM552 690h24l-263 -423v-277h-20v277l-263 423h24l249 -401z" />
    <glyph glyph-name="uni0233" unicode="&#x233;" horiz-adv-x="509" 
d="M107 677h297v-71h-297v71zM389 485h21l-259 -698h-22l76 203l-185 495h21l174 -467z" />
    <glyph glyph-name="uni0234" unicode="&#x234;" horiz-adv-x="380" 
d="M85 760h88v-542q31 12 68 12q61 0 95.5 -33.5t34.5 -86.5q0 -56 -34.5 -88t-98.5 -32q-46 0 -79 17.5t-51 46.5q-15 -30 -34 -84l-67 30q36 98 78 151v609zM237 58q29 0 41.5 15t12.5 37q0 26 -15.5 39t-41.5 13q-30 0 -61 -24q3 -80 64 -80z" />
    <glyph glyph-name="uni0235" unicode="&#x235;" horiz-adv-x="745" 
d="M537 218q31 12 68 12q61 0 95.5 -33.5t34.5 -86.5q0 -56 -34 -88t-99 -32q-88 0 -129 64q-15 -28 -34 -84l-67 30q36 98 78 151v192q0 65 -29 97t-91 32q-83 0 -120 -45.5t-37 -148.5v-278h-88v536h71l13 -73h5q25 40 70 61.5t99 21.5q99 0 146.5 -48t47.5 -149v-131z
M601 58q25 0 39.5 13t14.5 39t-15 39t-42 13q-30 0 -61 -24q3 -80 64 -80z" />
    <glyph glyph-name="uni0236" unicode="&#x236;" horiz-adv-x="388" 
d="M92 468h-76v42l77 35l35 114h52v-123h155v-68h-155v-250q31 12 68 12q61 0 95.5 -33.5t34.5 -86.5q0 -56 -34 -88t-99 -32q-46 0 -78.5 17.5t-51.5 46.5q-15 -28 -34 -84l-67 30q37 99 78 151v317zM244 58q25 0 39.5 13t14.5 39t-15 39t-42 13q-30 0 -61 -24
q3 -80 64 -80z" />
    <glyph glyph-name="uni0237" unicode="&#x237;" horiz-adv-x="257" 
d="M22 -240q-46 0 -77 12v71q34 -10 66 -10q38 0 56 21t18 63v619h88v-616q0 -80 -38.5 -120t-112.5 -40z" />
    <glyph glyph-name="uni0238" unicode="&#x238;" horiz-adv-x="972" 
d="M292 -10q-115 0 -176 71t-61 206q0 131 58 205t163 74q108 0 166 -79h6q-2 13 -4 45t-2 60v188h88v-185q0 -55 -5 -110h5q54 80 166 80q106 0 163.5 -73t57.5 -204q0 -135 -62 -206.5t-177 -71.5q-138 0 -193 125q-56 -125 -193 -125zM679 63q147 0 147 206
q0 102 -35.5 152.5t-109.5 50.5q-81 0 -116 -46t-35 -155q0 -208 149 -208zM295 63q71 0 109.5 55t38.5 153q0 110 -37 156t-118 46q-68 0 -105 -54t-37 -154t38 -151t111 -51z" />
    <glyph glyph-name="uni0239" unicode="&#x239;" horiz-adv-x="972" 
d="M680 546q115 0 176 -71t61 -206q0 -131 -58 -205t-163 -74q-108 0 -166 79h-6l2 -17q4 -37 4 -88v-204h-88v201q0 55 5 110h-5q-52 -80 -166 -80q-105 0 -163 73t-58 204q0 135 62 206.5t177 71.5q137 0 193 -125q28 64 78.5 94.5t114.5 30.5zM293 473q-147 0 -147 -206
q0 -102 35.5 -152.5t109.5 -50.5q81 0 116 46t35 155q0 208 -149 208zM677 473q-70 0 -109 -54.5t-39 -153.5q0 -109 36.5 -155.5t118.5 -46.5q68 0 105 54t37 154t-37.5 151t-111.5 51z" />
    <glyph glyph-name="uni023A" unicode="&#x23a;" horiz-adv-x="639" 
d="M499 760l-74 -212l213 -548h-93l-86 221h-148l-102 -296h-67l103 296h-69l-85 -221h-91l279 717h81l30 -78l42 121h67zM273 301l77 222q-20 55 -32 101q-15 -59 -31 -107l-81 -216h67zM384 430l-45 -129h93z" />
    <glyph glyph-name="uni023B" unicode="&#x23b;" horiz-adv-x="631" 
d="M559 760l-19 -55q30 -8 61 -23l-36 -76q-36 16 -53 21l-190 -548q36 -10 80 -10q76 0 171 28v-78q-45 -17 -87 -23t-97 -6q-46 0 -94 10l-26 -75h-67l33 95q-85 40 -129.5 126.5t-44.5 211.5q0 110 41 193t118.5 128t183.5 45q38 0 74 -5l14 41h67zM403 645
q-115 0 -181 -77t-66 -211q0 -183 108 -252l187 536q-19 4 -48 4z" />
    <glyph glyph-name="uni023C" unicode="&#x23c;" horiz-adv-x="479" 
d="M479 760l-81 -226q28 -8 49 -17l-27 -73q-31 11 -48 15l-136 -382q28 -11 63 -11q71 0 139 31v-78q-56 -29 -138 -29q-45 0 -91 13l-75 -211h-67l85 239q-97 70 -97 234q0 135 65.5 208t185.5 73h15l14 -1l77 215h67zM146 266q0 -97 37 -147l125 350h-4q-81 0 -119.5 -51
t-38.5 -152z" />
    <glyph glyph-name="uni023D" unicode="&#x23d;" horiz-adv-x="523" 
d="M10 403h87v311h90v-311h170v-71h-170v-252h312v-80h-402v332h-87v71z" />
    <glyph glyph-name="uni023E" unicode="&#x23e;" horiz-adv-x="556" 
d="M520 760l-22 -46h47v-79h-83l-139 -299v-336h-90v142l-101 -217h-70l171 368v342h-223v79h418l22 46h70zM323 487l69 148h-69v-148z" />
    <glyph glyph-name="uni023F" unicode="&#x23f;" horiz-adv-x="479" 
d="M235 -9q18 -26 29 -74q17 -84 105 -84q19 0 41 4.5t31 8.5v-72q-34 -14 -81 -14q-80 0 -121.5 36.5t-56.5 120.5q-13 69 -75 86q-34 9 -55 21v80q88 -43 170 -43q66 0 96.5 21.5t30.5 57.5q0 32 -29 54t-103 50q-76 29 -106.5 50t-45 47t-14.5 63q0 66 53.5 104t147.5 38
q91 0 171 -36l-30 -70q-82 34 -147 34q-55 0 -83 -17.5t-28 -47.5q0 -29 24.5 -48.5t113.5 -53.5q67 -25 99 -46.5t47 -48t15 -64.5q0 -72 -51 -113t-148 -44z" />
    <glyph glyph-name="uni0240" unicode="&#x240;" horiz-adv-x="470" 
d="M140 68q55 -10 87 -46t50 -105q11 -44 39 -64t77 -20q34 0 66 11v-72q-29 -12 -72 -12q-82 0 -126.5 35t-68.5 122q-13 47 -39.5 65t-78.5 18h-35v58l288 410h-271v68h368v-66z" />
    <glyph glyph-name="uni0241" unicode="&#x241;" horiz-adv-x="448" 
d="M124 0v322q88 27 140.5 82t52.5 126q0 56 -33.5 85.5t-96.5 29.5q-36 0 -79.5 -13.5t-72.5 -35.5l-33 72q37 26 87 41t102 15q103 0 162 -51t59 -140q0 -82 -50.5 -149.5t-147.5 -112.5v-271h-90z" />
    <glyph glyph-name="uni0242" unicode="&#x242;" horiz-adv-x="436" 
d="M124 0v144q87 27 136.5 82t49.5 126q0 121 -123 121q-34 0 -72 -13t-70 -36l-33 66q77 56 179 56q100 0 154.5 -49.5t54.5 -141.5q0 -81 -49 -148t-139 -109v-98h-88z" />
    <glyph glyph-name="uni0243" unicode="&#x243;" horiz-adv-x="649" 
d="M97 171h-82v78h82v465h204q144 0 207.5 -43t63.5 -134q0 -63 -35 -104.5t-101 -53.5v-5q83 -14 121.5 -57t38.5 -114q0 -96 -65.5 -149.5t-182.5 -53.5h-251v171zM187 335v-86h148v-78h-148v-95h144q86 0 127.5 33.5t41.5 100.5q0 64 -44 94.5t-132 30.5h-137zM187 410
h132q84 0 122 27t38 90q0 59 -41.5 84.5t-132.5 25.5h-118v-227z" />
    <glyph glyph-name="uni0244" unicode="&#x244;" horiz-adv-x="730" 
d="M640 714v-282h81v-78h-81v-102q0 -122 -73.5 -192t-204.5 -70q-129 0 -200.5 70.5t-71.5 193.5v100h-80v78h80v282h90v-282h371v282h89zM367 68q88 0 136 47.5t48 136.5v102h-371v-103q0 -87 46.5 -135t140.5 -48z" />
    <glyph glyph-name="uni0245" unicode="&#x245;" horiz-adv-x="607" 
d="M350 714l257 -714h-95l-158 450q-36 101 -52 166q-10 -48 -50 -165l-157 -451h-95l256 714h94z" />
    <glyph glyph-name="uni0246" unicode="&#x246;" horiz-adv-x="556" 
d="M459 760l-12 -46h49v-79h-69l-57 -223h108v-78h-128l-64 -255h210v-79h-230l-19 -75h-65l19 75h-104v714h285l12 46h65zM187 412h119l56 223h-175v-223zM187 79h34l65 255h-99v-255z" />
    <glyph glyph-name="uni0247" unicode="&#x247;" horiz-adv-x="563" 
d="M77 -208l83 240q-105 70 -105 232q0 129 64 205.5t173 76.5q15 0 44 -4l76 218h67l-82 -237q55 -28 85.5 -84.5t30.5 -134.5v-53h-210l-60 -173q30 -13 74 -13q43 0 81.5 7.5t90.5 29.5v-77q-44 -19 -83.5 -27t-92.5 -8q-52 0 -96 14l-73 -212h-67zM291 474
q-63 0 -99.5 -40.5t-43.5 -112.5h112l52 151zM421 321q-2 90 -50 128l-44 -128h94zM146 251q2 -88 43 -135l47 135h-90z" />
    <glyph glyph-name="uni0248" unicode="&#x248;" horiz-adv-x="272" 
d="M-4 -190q-46 0 -74 13v76q35 -10 72 -10q49 0 73.5 29.5t24.5 85.5v310h-82v78h82v322h90v-322h81v-78h-81v-303q0 -97 -48 -149t-138 -52z" />
    <glyph glyph-name="uni0249" unicode="&#x249;" horiz-adv-x="257" 
d="M22 -240q-46 0 -77 12v71q34 -10 66 -10q38 0 56 21t18 63v331h-75v71h75v217h88v-217h75v-71h-75v-328q0 -80 -38.5 -120t-112.5 -40zM78 681q0 29 15 42.5t37 13.5q21 0 36 -13.5t15 -42.5t-15.5 -42.5t-35.5 -13.5q-22 0 -37 13.5t-15 42.5z" />
    <glyph glyph-name="uni024A" unicode="&#x24a;" horiz-adv-x="767" 
d="M361 646q-97 0 -151.5 -76t-54.5 -213q0 -135 54 -212t153 -77q77 0 125 22.5t70 67t22 122.5v154q0 79 -22.5 123.5t-70.5 66.5t-125 22zM579 20q0 26 4 72h-5q-28 -47 -84 -74.5t-136 -27.5q-91 0 -158.5 44.5t-103 128t-35.5 195.5q0 172 80 269t222 97q70 0 128 -27
t87 -75h5l15 92h71v-793q0 -42 14 -62t49 -20q24 0 45 10v-76q-23 -13 -56 -13q-142 0 -142 157v103z" />
    <glyph glyph-name="uni024B" unicode="&#x24b;" horiz-adv-x="615" 
d="M290 63q79 0 115 43t38 142v18q0 111 -37 159t-118 48q-69 0 -105.5 -54t-36.5 -154q0 -98 36.5 -150t107.5 -52zM442 -11q0 54 5 83h-6q-56 -82 -168 -82q-104 0 -161 73.5t-57 203.5q0 131 58.5 205t162.5 74q110 0 167 -83h4l13 73h70v-608q0 -55 11 -75.5t38 -20.5
q31 0 50 11v-67q-21 -16 -70 -16q-117 0 -117 167v62z" />
    <glyph glyph-name="uni024C" unicode="&#x24c;" horiz-adv-x="622" 
d="M187 295v-295h-90v295h-87v76h87v343h197q133 0 196.5 -50.5t63.5 -152.5q0 -142 -143 -191l196 -320h-105l-173 295h-142zM187 371h107q87 0 127 34t40 102q0 67 -40.5 98t-131.5 31h-102v-265z" />
    <glyph glyph-name="uni024D" unicode="&#x24d;" horiz-adv-x="413" 
d="M299 248h-126v-248h-88v248h-75v71h75v217h72l10 -98h4q31 53 73 80.5t91 27.5q36 0 63 -6l-11 -81q-30 7 -58 7q-57 0 -100.5 -40.5t-53.5 -106.5h124v-71z" />
    <glyph glyph-name="uni024E" unicode="&#x24e;" horiz-adv-x="565" 
d="M165 586h236l68 128h97l-70 -128h60v-78h-102l-126 -231v-277h-90v273l-127 235h-101v78h59l-69 128h98zM283 363l77 145h-154z" />
    <glyph glyph-name="uni024F" unicode="&#x24f;" horiz-adv-x="509" 
d="M100 288h-90v71h62l-71 177h94l67 -177h189l64 177h95l-67 -177h57v-71h-84l-137 -362q-34 -89 -80.5 -127.5t-114.5 -38.5q-37 0 -73 8v70q24 -6 59 -6q42 0 71 23t48 72l28 71zM260 85q12 52 66 203h-137q31 -81 46 -124t21 -79h4z" />
    <glyph glyph-name="uni2000" unicode="&#x2000;" horiz-adv-x="500" 
 />
    <glyph glyph-name="uni2001" unicode="&#x2001;" horiz-adv-x="1000" 
 />
    <glyph glyph-name="uni2002" unicode="&#x2002;" horiz-adv-x="500" 
 />
    <glyph glyph-name="uni2003" unicode="&#x2003;" horiz-adv-x="1000" 
 />
    <glyph glyph-name="uni2004" unicode="&#x2004;" horiz-adv-x="333" 
 />
    <glyph glyph-name="uni2005" unicode="&#x2005;" horiz-adv-x="250" 
 />
    <glyph glyph-name="uni2006" unicode="&#x2006;" horiz-adv-x="166" 
 />
    <glyph glyph-name="uni2007" unicode="&#x2007;" horiz-adv-x="559" 
 />
    <glyph glyph-name="uni2008" unicode="&#x2008;" horiz-adv-x="268" 
 />
    <glyph glyph-name="uni2009" unicode="&#x2009;" horiz-adv-x="200" 
 />
    <glyph glyph-name="uni200A" unicode="&#x200a;" horiz-adv-x="100" 
 />
    <glyph glyph-name="uni200B" unicode="&#x200b;" horiz-adv-x="0" 
 />
    <glyph glyph-name="uni200C" unicode="&#x200c;" horiz-adv-x="0" 
d="M-26 -166v954h52v-954h-52z" />
    <glyph glyph-name="uni200D" unicode="&#x200d;" horiz-adv-x="0" 
d="M36 646l110 -107l-37 -36l-83 82v-750h-52v750l-83 -82l-37 36l110 107l-110 106l37 36l109 -108l109 108l37 -37z" />
    <glyph glyph-name="uni200E" unicode="&#x200e;" horiz-adv-x="0" 
d="M212 583l-108 -107l-27 26l64 61h-121v-696h-40v735h161l-64 61l27 27z" />
    <glyph glyph-name="uni200F" unicode="&#x200f;" horiz-adv-x="0" 
d="M20 -133h-41v696h-121l65 -61l-27 -26l-109 107l109 107l27 -27l-65 -61h162v-735z" />
    <glyph glyph-name="figuredash" unicode="&#x2012;" horiz-adv-x="571" 
d="M40 321v73h492v-73h-492z" />
    <glyph glyph-name="endash" unicode="&#x2013;" horiz-adv-x="375" 
d="M355 253v-20h-335v20h335z" />
    <glyph glyph-name="emdash" unicode="&#x2014;" horiz-adv-x="655" 
d="M655 253v-20h-655v20h655z" />
    <glyph glyph-name="uni2015" unicode="&#x2015;" horiz-adv-x="1000" 
d="M40 229v78h920v-78h-920z" />
    <glyph glyph-name="uni2016" unicode="&#x2016;" horiz-adv-x="550" 
d="M349 760h73v-1001h-73v1001zM130 760h73v-1001h-73v1001z" />
    <glyph glyph-name="underscoredbl" unicode="&#x2017;" horiz-adv-x="411" 
d="M413 -222h-415v64h415v-64zM413 -90h-415v64h415v-64z" />
    <glyph glyph-name="quoteleft" unicode="&#x2018;" horiz-adv-x="312" 
d="M89 484l-7 11q7 26 16.5 56t20.5 60.5t24 60.5t25 57h67q-7 -30 -14.5 -62t-13.5 -64t-11.5 -62.5t-9.5 -56.5h-97zM221 622zM219 896z" />
    <glyph glyph-name="quoteright" unicode="&#x2019;" horiz-adv-x="311" 
d="M227 729l7 -11q-7 -27 -16.5 -56.5t-21 -60t-24 -60t-24.5 -57.5h-67q7 29 14 61.5t13.5 65t12 62.5t9.5 56h97zM221 622zM219 896z" />
    <glyph glyph-name="quotesinglbase" unicode="&#x201a;" horiz-adv-x="250" 
d="M175 116l7 -11q-23 -91 -86 -234h-65q33 126 50 245h94z" />
    <glyph glyph-name="quotereversed" unicode="&#x201b;" horiz-adv-x="174" 
d="M114 714q18 -123 50 -245h-65q-22 46 -48.5 115.5t-38.5 118.5l7 11h95z" />
    <glyph glyph-name="quotedblleft" unicode="&#x201c;" horiz-adv-x="499" 
d="M277 484l-6 11q7 26 16 56t20.5 60.5t24 60.5t24.5 57h67q-7 -30 -14 -62t-13.5 -64t-12 -62.5t-8.5 -56.5h-98zM89 484l-6 11q7 26 16 56t20.5 60.5t24 60.5t24.5 57h67q-7 -30 -14 -62t-13.5 -64t-12 -62.5t-8.5 -56.5h-98zM221 622zM219 896z" />
    <glyph glyph-name="quotedblright" unicode="&#x201d;" horiz-adv-x="499" 
d="M227 729l7 -11q-7 -27 -16.5 -56.5t-21 -60t-24 -60t-24.5 -57.5h-67q7 29 14 61.5t13.5 65t12 62.5t9.5 56h97zM415 729l7 -11q-7 -27 -16.5 -56.5t-21 -60t-24 -60t-24.5 -57.5h-67q7 29 14 61.5t13.5 65t12 62.5t9.5 56h97zM221 622zM219 896z" />
    <glyph glyph-name="quotedblbase" unicode="&#x201e;" horiz-adv-x="416" 
d="M157 116l7 -11q-23 -91 -86 -234h-65q32 122 50 245h94zM342 116l7 -11q-23 -91 -86 -234h-66q13 51 28 122.5t23 122.5h94z" />
    <glyph glyph-name="uni201F" unicode="&#x201f;" horiz-adv-x="358" 
d="M297 714q18 -115 50 -245h-65q-22 46 -48 113.5t-39 120.5l7 11h95zM112 714q18 -115 50 -245h-64q-26 56 -51 123.5t-35 110.5l6 11h94z" />
    <glyph glyph-name="dagger" unicode="&#x2020;" horiz-adv-x="280" 
d="M240 485v-20h-90v-465h-20v465h-90v20h90v255h20v-255h90z" />
    <glyph glyph-name="daggerdbl" unicode="&#x2021;" horiz-adv-x="280" 
d="M240 275v-20h-90v-255h-20v255h-90v20h90v190h-90v20h90v255h20v-255h90v-20h-90v-190h90z" />
    <glyph glyph-name="bullet" unicode="&#x2022;" horiz-adv-x="192" 
d="M137 235q0 -17 -12 -29t-29 -12t-29 12t-12 29t12 29t29 12t29 -12t12 -29z" />
    <glyph glyph-name="ellipsis" unicode="&#x2026;" horiz-adv-x="490" 
d="M105 99v-99h-20v99h20zM255 99v-99h-20v99h20zM405 99v-99h-20v99h20z" />
    <glyph glyph-name="uni202A" unicode="&#x202a;" horiz-adv-x="0" 
d="M21 563v-696h-41v735h232v-39h-191z" />
    <glyph glyph-name="uni202B" unicode="&#x202b;" horiz-adv-x="0" 
d="M-212 563v39h232v-735h-41v696h-191z" />
    <glyph glyph-name="uni202C" unicode="&#x202c;" horiz-adv-x="0" 
d="M116 477h-95v-610h-42v610h-95v212h232v-212z" />
    <glyph glyph-name="uni202D" unicode="&#x202d;" horiz-adv-x="0" 
d="M116 477h-95v-610h-42v610h-95v212h232v-39h-193v-135h193v-38z" />
    <glyph glyph-name="uni202E" unicode="&#x202e;" horiz-adv-x="0" 
d="M-116 515h193v135h-193v39h232v-212h-95v-610h-42v610h-95v38z" />
    <glyph glyph-name="uni202F" unicode="&#x202f;" horiz-adv-x="200" 
 />
    <glyph glyph-name="perthousand" unicode="&#x2030;" horiz-adv-x="1176" 
d="M122 501q0 -81 17.5 -121.5t55.5 -40.5q77 0 77 162q0 161 -77 161q-38 0 -55.5 -40t-17.5 -121zM345 501q0 -111 -38 -168t-112 -57q-69 0 -107.5 58.5t-38.5 166.5q0 112 37.5 167.5t108.5 55.5q72 0 111 -58t39 -165zM559 215q0 -82 17.5 -122t55.5 -40q40 0 58.5 40
t18.5 122q0 160 -77 160q-38 0 -55.5 -39.5t-17.5 -120.5zM782 215q0 -111 -38.5 -168t-111.5 -57q-69 0 -107.5 58.5t-38.5 166.5q0 112 37 167.5t109 55.5t111 -58t39 -165zM652 714l-396 -714h-77l396 714h77zM905 215q0 -82 17 -122t56 -40q77 0 77 162q0 160 -77 160
q-39 0 -56 -39.5t-17 -120.5zM1128 215q0 -110 -38 -167.5t-112 -57.5q-70 0 -108 58.5t-38 166.5q0 112 37 167.5t109 55.5q71 0 110.5 -58t39.5 -165z" />
    <glyph glyph-name="minute" unicode="&#x2032;" horiz-adv-x="225" 
d="M160 714l-20 -258h-55l-20 258h95z" />
    <glyph glyph-name="second" unicode="&#x2033;" horiz-adv-x="408" 
d="M160 714l-20 -258h-55l-20 258h95zM343 714l-20 -258h-55l-20 258h95z" />
    <glyph glyph-name="uni2034" unicode="&#x2034;" horiz-adv-x="590" 
d="M526 714l-20 -258h-55l-20 258h95zM160 714l-20 -258h-55l-20 258h95zM343 714l-20 -258h-55l-20 258h95z" />
    <glyph glyph-name="guilsinglleft" unicode="&#x2039;" horiz-adv-x="310" 
d="M40 270l168 201l63 -36l-140 -171l140 -171l-63 -37l-168 201v13z" />
    <glyph glyph-name="guilsinglright" unicode="&#x203a;" horiz-adv-x="310" 
d="M270 257l-169 -201l-62 37l140 171l-140 171l62 36l169 -201v-13z" />
    <glyph glyph-name="exclamdbl" unicode="&#x203c;" horiz-adv-x="499" 
d="M163 201h-57l-25 513h107zM72 54q0 32 16 49.5t46 17.5t46 -18t16 -49t-16.5 -49.5t-45.5 -18.5q-30 0 -46 18t-16 50zM393 201h-57l-25 513h107zM302 54q0 32 16 49.5t46 17.5t46 -18t16 -49t-16.5 -49.5t-45.5 -18.5q-30 0 -46 18t-16 50z" />
    <glyph glyph-name="uni203E" unicode="&#x203e;" horiz-adv-x="500" 
d="M503 760h-506v66h506v-66z" />
    <glyph glyph-name="fraction" unicode="&#x2044;" horiz-adv-x="212" 
d="M221 690h21l-251 -690h-21z" />
    <glyph glyph-name="uni205E" unicode="&#x205e;" horiz-adv-x="268" 
d="M72 54q0 32 15.5 50t46.5 18q30 0 46 -17.5t16 -50.5t-16.5 -50.5t-45.5 -17.5q-30 0 -46 18t-16 50zM72 456q0 32 15.5 50t46.5 18q30 0 46 -17.5t16 -50.5q0 -32 -16.5 -50t-45.5 -18q-30 0 -46 18t-16 50zM72 255q0 33 16 50.5t46 17.5t46 -17.5t16 -50.5
q0 -32 -16.5 -50t-45.5 -18q-30 0 -46 18t-16 50zM72 657q0 32 15.5 50t46.5 18q30 0 46 -17.5t16 -50.5t-16.5 -50.5t-45.5 -17.5q-30 0 -46 18t-16 50z" />
    <glyph glyph-name="uni206A" unicode="&#x206a;" horiz-adv-x="0" 
d="M-116 515h95v135h-95v39h232v-39h-95v-135h95v-38h-95v-610h-42v610h-95v38z" />
    <glyph glyph-name="uni206B" unicode="&#x206b;" horiz-adv-x="0" 
d="M-77 515h154v135h-154v-135zM-116 477v212h232v-212h-95v-610h-42v610h-95z" />
    <glyph glyph-name="uni206C" unicode="&#x206c;" horiz-adv-x="0" 
d="M21 -133h-42v643l-96 179h234l-96 -179v-643z" />
    <glyph glyph-name="uni206D" unicode="&#x206d;" horiz-adv-x="0" 
d="M21 477v-610h-42v610h-96l117 215l117 -215h-96z" />
    <glyph glyph-name="uni206E" unicode="&#x206e;" horiz-adv-x="0" 
d="M21 -133h-42v627l-96 89l117 107l117 -107l-96 -89v-627zM62 583l-62 55l-62 -55l62 -55z" />
    <glyph glyph-name="uni206F" unicode="&#x206f;" horiz-adv-x="0" 
d="M-116 515h95v135h-95v39h137v-174h95v-38h-95v-610h-42v610h-95v38z" />
  </font>
</defs>
</svg>
