<?xml version="1.0" standalone="no"?>
<!DOCTYPE svg PUBLIC "-//W3C//DTD SVG 1.1//EN" "http://www.w3.org/Graphics/SVG/1.1/DTD/svg11.dtd" >
<svg xmlns="http://www.w3.org/2000/svg" xmlns:xlink="http://www.w3.org/1999/xlink" version="1.1">
<metadata>
Created by FontForge 20190801 at Tue May  4 08:59:06 2021
 By root
Copyright (c) 2019 by Sans And Sons. All rights reserved.
</metadata>
<defs>
<font id="GourmetLeFrench" horiz-adv-x="302" >
  <font-face 
    font-family="Gourmet Le French"
    font-weight="400"
    font-stretch="normal"
    units-per-em="1000"
    panose-1="0 0 0 0 0 0 0 0 0 0"
    ascent="750"
    descent="-250"
    x-height="489"
    cap-height="700.5"
    bbox="-213 -241 1325.59 1066"
    underline-thickness="50"
    underline-position="-100"
    unicode-range="U+0001-206F"
  />
<missing-glyph horiz-adv-x="364" 
d="M33 0v666h265v-666h-265zM66 33h199v600h-199v-600z" />
    <glyph glyph-name=".notdef" horiz-adv-x="364" 
d="M33 0v666h265v-666h-265zM66 33h199v600h-199v-600z" />
    <glyph glyph-name=".null" horiz-adv-x="0" 
 />
    <glyph glyph-name="nonmarkingreturn" unicode="&#xd;" 
 />
    <glyph glyph-name="NULL" 
 />
    <glyph glyph-name="NULL" 
 />
    <glyph glyph-name="uni0001" 
 />
    <glyph glyph-name="uni0002" 
 />
    <glyph glyph-name="uni0003" 
 />
    <glyph glyph-name="uni0004" 
 />
    <glyph glyph-name="uni0005" 
 />
    <glyph glyph-name="uni0006" 
 />
    <glyph glyph-name="uni0007" 
 />
    <glyph glyph-name="uni0008" 
 />
    <glyph glyph-name="uni0009" unicode="&#x9;" 
 />
    <glyph glyph-name="uni000A" unicode="&#xa;" 
 />
    <glyph glyph-name="uni000B" 
 />
    <glyph glyph-name="uni000C" 
 />
    <glyph glyph-name="uni000E" 
 />
    <glyph glyph-name="uni000F" 
 />
    <glyph glyph-name="uni0010" 
 />
    <glyph glyph-name="uni0011" 
 />
    <glyph glyph-name="uni0012" 
 />
    <glyph glyph-name="uni0013" 
 />
    <glyph glyph-name="uni0014" 
 />
    <glyph glyph-name="uni0015" 
 />
    <glyph glyph-name="uni0016" 
 />
    <glyph glyph-name="uni0017" 
 />
    <glyph glyph-name="uni0018" 
 />
    <glyph glyph-name="uni0019" 
 />
    <glyph glyph-name="uni001A" 
 />
    <glyph glyph-name="uni001B" 
 />
    <glyph glyph-name="uni001C" 
 />
    <glyph glyph-name="uni001D" 
 />
    <glyph glyph-name="uni001E" 
 />
    <glyph glyph-name="uni001F" 
 />
    <glyph glyph-name="space" unicode=" " 
 />
    <glyph glyph-name="exclam" unicode="!" horiz-adv-x="229" 
d="M165 415v-5q0 -5 0.5 -8.5t0.5 -6.5q0 -9 -1 -18.5t-1 -24.5q0 -6 0.5 -12t1.5 -11q0 -18 -0.5 -36.5t-0.5 -35.5v-43q0 -11 -3 -19.5t-7 -16.5l-4 -6q-7 -4 -15 -6.5t-15 -2.5q-3 0 -11 1t-16.5 5.5t-14.5 13.5t-6 24v69q-1 3 -1 9.5v13.5q0 23 1 29t1 13q0 12 -1 25
t-1 23v133q0 7 1 12v16q0 4 -0.5 10t-0.5 14q0 15 0.5 30.5t0.5 22.5v33q0 20 17 31t33 11q14 0 27 -13l4 -5q11 -21 11.5 -42t0.5 -38v-2q0 -13 -0.5 -25t-0.5 -26v-17q1 -5 1 -8v-8v-22zM175 54q0 -30 -18 -43t-41 -13q-19 0 -36 15t-17 46q0 23 16.5 36t33.5 13h7t12 -1
t11.5 -3.5t7.5 -6.5l10 -11q5 -3 9.5 -15t4.5 -17z" />
    <glyph glyph-name="quotedbl" unicode="&#x22;" horiz-adv-x="342" 
d="M78 667q0 11 5.5 18.5t13.5 7.5q6 0 15.5 0.5t18.5 -1.5t16 -7.5t7 -17.5q0 -9 0.5 -20t-1 -22.5t-5 -22.5t-11.5 -19q-3 -3 -8.5 -10t-11.5 -14t-13.5 -12.5t-15.5 -5.5q-13 0 -13 14q0 19 2.5 40t2.5 44q0 7 -0.5 9.5t-0.5 4t-0.5 4t-0.5 10.5zM203 672q0 10 6 15
t14.5 7t16.5 2h12q9 0 17.5 -10t8.5 -21q0 -9 -0.5 -14t-1 -8.5t-1 -8t-0.5 -13.5q0 -8 -4.5 -21t-12.5 -26.5t-18.5 -23t-23.5 -9.5q-5 0 -7.5 9.5t-4 24t-2 32.5t-0.5 35q0 8 0.5 13t0.5 17z" />
    <glyph glyph-name="numbersign" unicode="#" horiz-adv-x="682" 
d="M325 211q-19 0 -33.5 -8.5t-24.5 -21.5t-15.5 -27t-6.5 -24q0 -2 -0.5 -23t-5.5 -45t-16.5 -43.5t-32.5 -19.5q-16 0 -26 15t-10 32q0 5 1 7v13q2 6 3 19t2.5 28.5t3.5 30.5t5 25q0 22 -12.5 33t-34.5 11q-2 0 -3.5 -0.5t-3.5 -0.5q-5 0 -12.5 2t-14.5 7t-12 12.5
t-5 18.5q0 14 8 23.5t22 14.5h8q27 0 44 7t26.5 18.5t13 27.5t3.5 34q0 24 -14 31.5t-31.5 11.5t-34 11t-20.5 28q0 14 13.5 27.5t30.5 13.5h16q27 0 42 22t22.5 48.5t9.5 50t2 26.5v10q2 17 13 30t29 13q15 0 25 -14t10 -32v3l-1 -7.5t-1.5 -18.5t-1.5 -23t-1 -21l-5 -26
q-1 -2 -1 -9q0 -19 5.5 -29.5t15 -16t23.5 -6.5t31 -1q4 0 8 0.5t6 0.5q7 0 17.5 1.5t20.5 10t17 27t7 52.5q2 15 3.5 34t6 35.5t14 27.5t28.5 11q9 0 15.5 -5t11 -12.5t6.5 -16t2 -15.5q0 -15 -1.5 -30.5t-4 -29.5t-4 -24t-1.5 -13q0 -26 15 -36t33 -15t33 -12.5t15 -29.5
q0 -11 -15 -25.5t-37 -14.5q-4 0 -6 1t-5 1q-15 0 -32 -12l-8 -7q-7 -6 -10 -14t-5 -16v-7q-1 -8 -1.5 -14.5t-0.5 -14.5q0 -16 8 -31.5t30 -15.5q3 0 6 1t5 1q4 0 11.5 -3t15 -8t12.5 -12.5t5 -17.5q0 -15 -6.5 -23t-16.5 -11.5t-22 -4.5t-23 -1q-24 0 -35.5 -15.5
t-16 -39.5t-5.5 -51t-4.5 -51t-12 -39.5t-28.5 -15.5q-13 0 -27 10t-14 33v8t1 8l3 24q0 15 3.5 30.5t3.5 37.5q0 5 -1.5 14.5t-4.5 18.5t-8 15.5t-12 6.5zM360 291q34 -1 47.5 25t13.5 59q0 29 -17 38t-46 9q-16 0 -30 -0.5t-24 -7.5l-12 -12q-13 -11 -16 -28l-3 -32
q-1 -5 -1 -10q0 -13 10.5 -26.5t24.5 -13.5z" />
    <glyph glyph-name="dollar" unicode="$" horiz-adv-x="584" 
d="M303 813q17 -2 27 -15t10 -26q0 -3 -0.5 -6t-0.5 -5q0 -7 4 -16t10 -17t13.5 -14.5t15.5 -7.5q10 -2 25.5 -11t30 -22t25 -29t10.5 -32q0 -20 -15 -29t-27 -9q-17 0 -30.5 10.5t-29 22.5t-37 22.5t-54.5 10.5l-7.5 -1.5t-19 -5t-24.5 -10.5t-22 -17q-10 -14 -16.5 -32
t-6.5 -29q0 -9 2.5 -8.5t2.5 -5.5q0 -14 9.5 -27.5t20.5 -23t20 -15.5t8 -5l23 -15q12 -5 22.5 -15.5t22.5 -15.5q23 -9 51.5 -27t49.5 -32q8 -7 18 -12.5t19 -11.5t16.5 -13.5t10.5 -19.5l16 -38q1 -2 2.5 -9t3 -16.5t3 -21.5t1.5 -22v-5l-4 -20q-2 -20 -8.5 -37t-18.5 -32
l-7 -13q-14 -21 -34 -35t-39.5 -27.5t-35.5 -30.5t-20 -42q-2 -20 -12 -36t-31 -16q-26 0 -35.5 14t-9.5 34q-3 16 -12 28.5t-20 21.5t-22.5 15t-18.5 9q-9 0 -20.5 7t-22 16.5t-19 19t-11.5 14.5l-18 35q-5 6 -12.5 22.5t-7.5 30.5q0 17 9 29.5t25 17.5q1 -1 5.5 -1.5
t10.5 -2.5t13.5 -7t14.5 -16l7 -8q4 -4 8.5 -12t8 -17t7 -16.5t6.5 -11.5q14 -20 44 -32.5t59 -12.5q1 0 7 1t13.5 2.5t15.5 3.5t14 3q48 16 67 47.5t19 72.5q0 22 -13 40.5t-35 35.5t-50.5 34.5t-58.5 39.5q-2 0 -10 4t-17 9t-17.5 11t-12.5 10q-12 3 -23 11.5t-20.5 19.5
t-18.5 23t-16 23q-3 6 -7 12.5t-8 16.5t-7 25t-3 37q0 27 9.5 46t20.5 39q13 12 20 21t13 16t12.5 13.5t18.5 12.5q9 4 17 12t15 16.5t11 17t4 13.5q2 29 17 39.5t41 10.5z" />
    <glyph glyph-name="percent" unicode="%" horiz-adv-x="802" 
d="M82 489q-5 14 -7.5 24.5t-2.5 25.5t2.5 31.5t6.5 32.5t9.5 29.5t12.5 21.5q5 6 11 14t16.5 15.5t26.5 13t40 5.5q22 0 44.5 -10t39.5 -29t28 -47t11 -64q0 -21 -2 -34t-7 -29q-3 -9 -10.5 -21t-21 -22.5t-35 -18t-51.5 -7.5q-41 0 -70.5 22.5t-40.5 46.5zM465 669
q4 14 16 23.5t25 9.5q7 0 15.5 -1t15.5 -4t11.5 -9.5t4.5 -18.5q0 -5 -1 -7q-3 -8 -4.5 -13t-2.5 -9.5t-2 -9.5t-4 -14q-8 -26 -21.5 -59t-25.5 -64q-22 -49 -36 -79t-24 -53.5t-18.5 -46.5t-18.5 -57l-13 -42q-11 -29 -25 -62t-25 -73q-2 -8 -7 -21.5t-12.5 -26.5
t-18 -22.5t-23.5 -9.5q-18 0 -29 8t-11 30q0 21 12 42t18 43q6 23 16.5 46t17.5 44l14 44q6 23 16 49t20.5 51.5t20.5 49.5t15 42q3 12 10.5 27.5t17 36t21.5 48t25 63.5q2 9 3 14t1.5 9.5t1.5 9t4 12.5zM238 504q6 13 10.5 22t4.5 22t-2.5 30t-8.5 31t-16 24t-26 10
q-21 0 -33 -11t-17 -26t-6 -31t-1 -27q0 -8 2 -19.5t7 -22.5t15 -18.5t27 -7.5q5 0 12.5 3t14 6.5t11.5 7.5t6 7zM475 75q-5 14 -8 25t-3 25t3.5 38t8.5 43q5 12 13 28t34 36q7 4 26 14t43 10q33 0 58.5 -13t42 -35t25 -49.5t8.5 -56.5q0 -15 -1.5 -32t-7.5 -33
q-3 -7 -5 -10t-5 -5.5t-6.5 -5t-8.5 -7.5q-17 -21 -37 -32.5t-58 -11.5q-12 0 -30.5 4.5t-37 13.5t-33.5 22.5t-21 31.5zM533 138q0 -15 3 -24t8 -23q1 -3 6.5 -9t13 -11t16 -9t16.5 -4q21 0 33.5 9.5t19 22.5t8.5 26.5t2 21.5q0 12 -2.5 26.5t-9.5 27.5t-19 22t-30 9
q-26 0 -39 -9t-19 -22.5t-6.5 -28t-0.5 -25.5z" />
    <glyph glyph-name="ampersand" unicode="&#x26;" horiz-adv-x="726" 
d="M658 27q0 -3 -2.5 -9t-7 -12t-10 -10.5t-12.5 -4.5q-20 0 -33 5.5t-22 14t-16 18.5t-16 19l-11 13q-9 6 -20 10t-22 4q-16 0 -29 -9.5t-19 -9.5h-1q-11 -8 -21 -14q-8 -5 -16.5 -10t-11.5 -6q-5 -1 -16.5 -7t-26.5 -13t-31.5 -12.5t-30.5 -5.5t-27.5 2.5t-27.5 4.5l-10 4
q-41 16 -70.5 34.5t-48 43.5t-27.5 58t-9 77q0 14 7 29.5t15 26.5l15 31q1 5 8 12l28 30q8 16 12 29.5t4 27.5q0 12 -6.5 31t-14 38t-13.5 36t-6 25q0 22 7 45t10 37l8 14q3 3 5.5 6.5t4.5 7.5q10 16 26 30.5t35 28.5l9 4q12 2 26 3t25 1t20 -1.5t20 -1.5q12 0 26 -4
t27.5 -11t25.5 -16.5t21 -19.5l13 -15q11 -13 14.5 -31.5t8.5 -32.5v-9q0 -16 -2 -31t-7.5 -31t-14.5 -34.5t-22 -40.5q-5 -7 -8 -18.5t-3 -24.5q0 -26 15 -41l11 -12l25 -28q34 -39 72 -39q13 0 22 4.5t17 10t15 10t15 4.5q17 0 28.5 -14.5t11.5 -24.5q0 -14 -8 -23
l-22 -24l-5 -10q-7 -2 -10 -13t-3 -19q0 -17 7 -31l4 -7q5 -9 12.5 -19t16.5 -15l11 -12q8 -11 17.5 -20t15.5 -21l3 -5v-7zM191 563q-3 -6 -3 -15q0 -12 6 -28.5t17.5 -31t29 -24.5t41.5 -10q14 0 28.5 6t26.5 19.5t20 35.5t8 53q0 1 -2 8.5t-6 16t-9 16t-12 9.5l-11 6
q-3 1 -20.5 4t-41.5 3q-9 0 -21.5 -7t-23.5 -17.5t-19 -22t-8 -21.5zM371 110q12 11 24 28.5t12 40.5q0 21 -16 47t-35 50l-8 10q-34 43 -72 43q-14 0 -27.5 -6t-28.5 -17q-5 -4 -12 -13.5t-14 -20t-13.5 -20.5t-10.5 -14q-11 -16 -15.5 -33t-4.5 -33q0 -6 2 -9l4 -7
q2 -7 3.5 -13t6.5 -13l7 -8q2 -6 9 -11.5t16.5 -11l19 -11t17.5 -10.5l11 -4q2 0 4.5 -0.5t4.5 -0.5q5 0 10 0.5t10 0.5t8.5 -0.5t7.5 -0.5q15 1 33.5 7.5t31.5 17.5z" />
    <glyph glyph-name="quotesingle" unicode="'" horiz-adv-x="229" 
d="M78 667q0 11 5.5 18.5t13.5 7.5q6 0 15.5 0.5t18.5 -1.5t16 -7.5t7 -17.5q0 -9 0.5 -20t-1 -22.5t-5 -22.5t-11.5 -19q-3 -3 -8.5 -10t-11.5 -14t-13.5 -12.5t-15.5 -5.5q-13 0 -13 14q0 19 2.5 40t2.5 44q0 7 -0.5 9.5t-0.5 4t-0.5 4t-0.5 10.5z" />
    <glyph glyph-name="parenleft" unicode="(" horiz-adv-x="300" 
d="M73 373l2 16q0 7 1 13.5t2 14.5q-1 1 -1 5q0 5 1 12.5t2 14.5t2.5 12.5t1.5 7.5q6 26 9.5 42t5.5 27.5t4 20.5t4 20q7 18 10.5 38.5t8.5 38t13 30t24 15.5h7q9 0 23.5 -9t14.5 -26q0 -12 -7.5 -28.5t-12.5 -32.5l-7 -23q-7 -17 -12.5 -41t-9 -49.5t-5.5 -49t-2 -39.5
q0 -4 1 -5q0 -12 -0.5 -20t-1.5 -17t-1.5 -20t-0.5 -27q0 -17 2 -40t8 -46l4 -16v-12v1q0 -1 2 -12.5t6 -28.5t9.5 -38t13.5 -40l10 -33q3 -6 3 -13q0 -14 -12 -25t-28 -11q-18 0 -29 19t-18.5 44.5t-11.5 52t-8 40.5q-9 23 -12 44.5t-3 27.5l-5 33q-5 20 -5.5 34.5
t-1.5 22.5v55z" />
    <glyph glyph-name="parenright" unicode=")" horiz-adv-x="272" 
d="M209 326l-2 -16q0 -7 -1 -14t-2 -15q0 -1 0.5 -2t0.5 -3q0 -5 -1 -12.5t-2 -14.5t-2.5 -13t-1.5 -7q-3 -8 -3 -13.5t-2 -13.5q-11 -31 -16.5 -67t-18.5 -79l-5 -17q-5 -14 -11 -26t-23 -15h-8q-4 0 -10.5 2.5t-12.5 7t-10.5 11t-4.5 14.5q0 3 2 9.5t5 15t6.5 18t7.5 17.5
l7 23q2 6 6.5 17.5t4.5 19.5q0 1 -0.5 1.5t-0.5 1.5q0 6 3 27t6.5 45t6.5 44.5t3 24.5v29.5t2 31.5q0 21 -1 42q-1 17 -3 37t-4 34l-4 16l-1.5 13.5t-5 33t-10 41.5t-15.5 41l-10 33q-3 6 -3 12q0 13 11 25t28 12q11 0 19.5 -7t11.5 -14q1 -6 6 -17t10 -24.5t9 -28.5t4 -30
q8 -46 15.5 -70.5t7.5 -35.5q5 -29 8 -55.5t4 -35.5v-54z" />
    <glyph glyph-name="asterisk" unicode="*" horiz-adv-x="402" 
d="M129 533q0 12 10 20.5t10 15.5q0 11 -7.5 16t-17 8.5t-17 9.5t-7.5 19q3 17 11 20t16 3q11 0 18 -3t13 -3q8 0 14 7t6 12t-0.5 8.5t-0.5 8.5q0 12 8 19.5t20 7.5q5 0 14 -6t9 -23v-5q0 -13 4 -21.5t14 -8.5q7 0 15 4l10 3q3 1 8 1q12 0 19.5 -7.5t7.5 -16.5
q0 -8 -5.5 -17.5t-14.5 -9.5q-2 0 -7 -0.5t-10.5 -3t-10 -6.5t-4.5 -12t3.5 -13.5t7 -10t7 -8t3.5 -6.5q0 -4 -1 -6v-5q0 -9 -7.5 -14t-14.5 -5q-15 0 -19 7t-11 14l-4 7q-3 7 -12 7q-11 0 -16.5 -5.5t-10 -12t-10 -12t-15.5 -5.5q-9 0 -17 7.5t-8 20.5z" />
    <glyph glyph-name="plus" unicode="+" horiz-adv-x="571" 
d="M387 260q-67 0 -67 -60v-29q0 -32 -9.5 -49.5t-31.5 -17.5q-9 0 -21.5 8.5t-12.5 28.5q0 14 1 27t1 21q0 42 -14 59t-48 17h-34q-2 0 -8 -1t-11 -1q-20 0 -37 6.5t-17 35.5q4 22 17.5 29t39.5 7q36 0 57.5 2.5t33.5 10t16 20t4 33.5v12q-1 4 -1 11q0 32 6 52.5t33 20.5
q11 0 18.5 -6t11.5 -14.5t5.5 -19t1.5 -19.5q0 -10 -1 -17.5t-1 -13.5q0 -28 8 -42t21.5 -20t32.5 -7t40 -2q10 0 18.5 1t16.5 1q15 0 25.5 -11.5t10.5 -28.5q0 -18 -8.5 -26.5t-20.5 -12t-25 -4t-22 -1.5h-29z" />
    <glyph glyph-name="comma" unicode="," horiz-adv-x="233" 
d="M78 51q0 11 5.5 18.5t13.5 7.5q6 0 15.5 0.5t18.5 -1.5t16 -7.5t7 -17.5q0 -9 0.5 -20t-1 -22.5t-5 -22.5t-11.5 -19q-3 -3 -8.5 -10t-11.5 -14t-13.5 -12.5t-15.5 -5.5q-13 0 -13 14q0 19 2.5 40t2.5 44q0 7 -0.5 9.5t-0.5 4t-0.5 4t-0.5 10.5z" />
    <glyph glyph-name="hyphen" unicode="-" horiz-adv-x="573" 
d="M368 264q-29 0 -47.5 0.5t-33 1t-30 0.5t-38.5 -1h-59q-1 0 -2 1t-3 -1q-15 -1 -31 0q-10 2 -20 3.5t-18 7.5q-5 5 -6 14t-1 17q2 11 7.5 19.5t17.5 12.5q6 3 13 3h23h27h26.5h21.5q24 0 29.5 0.5t4.5 1t-2.5 1t8.5 1t37 0.5h84h16.5t14.5 -1h11t11 1q11 3 21 2.5
t19 -7.5q6 -5 9.5 -9.5t5.5 -12.5q1 -3 1 -11.5t-1 -11.5q-6 -18 -20 -24q-16 -7 -27 -7h-17.5t-17.5 -1h-34z" />
    <glyph glyph-name="period" unicode="." horiz-adv-x="236" 
d="M76 53q0 11 6 18.5t14 7.5h9.5t6 -0.5t5.5 -0.5h10q9 0 17 -7t8 -18v-19v-13.5t-4 -12.5q-3 -8 -14 -11t-23 -2.5t-22.5 3.5t-11.5 9q-2 7 -2.5 9.5t0 4t1 4t0.5 10.5v2v1v4v11z" />
    <glyph glyph-name="slash" unicode="/" horiz-adv-x="519" 
d="M87 -96q-15 1 -27.5 11.5t-12.5 28.5q0 12 6.5 26.5t14.5 28.5q1 3 6 15t10.5 25.5t10.5 24.5t5 14q6 8 6.5 13t5.5 17q13 31 21.5 52t17.5 42.5t21 48.5t33 69q2 7 7.5 15.5t7.5 15.5q-1 2 5.5 18t15 35.5t15.5 36.5t7 22l15 26q3 2 11 19.5t16 38t14 38.5l7 21
q8 12 13 24t10 26q3 6 7.5 16t6.5 17l11 22q5 11 17 17.5t20 6.5q19 0 27 -13t14 -25q0 -5 -6.5 -19t-14 -30.5t-13.5 -30.5t-6 -19q-3 -13 -6 -20.5t-9 -20t-17 -35.5t-29 -66q-1 -6 -8 -22t-14.5 -34t-14 -33.5t-7.5 -20.5l-20 -36t-10 -37q-11 -19 -20 -39t-20 -44
q-1 -11 -8.5 -28t-16.5 -34t-16 -31.5t-8 -20.5q-1 -8 -3.5 -13t-6 -10.5t-8 -13.5t-8.5 -23q-3 -11 -10.5 -25.5t-9.5 -23.5q-9 -11 -13 -22t-8.5 -20t-11.5 -15t-22 -6z" />
    <glyph glyph-name="zero" unicode="0" horiz-adv-x="607" 
d="M460 79q-3 -3 -12.5 -12t-20.5 -19.5t-22.5 -19.5t-17.5 -13q-14 -7 -30 -12q-14 -5 -32.5 -8t-39.5 -3q-9 2 -18 3.5t-18 3.5q-1 0 -7 1.5t-16 6.5t-24 15t-31 27q-2 1 -8 8t-14 17t-17.5 23.5t-18.5 28.5q-14 24 -22 51.5t-18 74.5q-2 9 -2.5 21.5t-0.5 23.5
q0 3 0.5 6.5t0.5 5.5q-2 13 -2.5 18.5t0 9.5t1 10t0.5 22q0 34 3 60.5t8.5 49t13 42t16.5 40.5q1 2 5 8.5t8.5 15t9.5 16t8 10.5q51 51 93.5 67.5t85.5 16.5q16 0 37 -8t41 -21t37 -28t26 -28q4 -4 8 -8.5t9.5 -13t12.5 -22.5t16 -36l3 -7t7 -19t7.5 -28t4.5 -34
q2 -9 2.5 -17.5t2.5 -20.5q0 -4 -0.5 -9t-0.5 -10q2 -10 2 -19v-5q0 -8 1 -16t1 -16q0 -2 -2.5 -17.5t-2.5 -28.5q0 -8 1 -10q0 -2 -3 -13.5t-6.5 -26.5t-6.5 -29.5t-4 -21.5q-1 -1 -6 -13.5t-12.5 -28.5t-16 -31.5t-16.5 -23.5zM340 82q24 10 41 25.5t28.5 34t19 40
t12.5 44.5q2 3 9 29.5t7 67.5q0 31 -2.5 63.5t-6.5 62.5q-2 7 -5.5 28.5t-18.5 49.5q-21 38 -47 59q-5 5 -24 15.5t-50 10.5q-19 0 -41.5 -7.5t-43.5 -26.5t-37 -50.5t-23 -79.5q-3 -20 -4.5 -31.5t-3 -20.5t-2 -19t-0.5 -25q0 -10 0.5 -22.5t0.5 -20.5q0 -1 2 -16.5
t5.5 -35.5t8 -41t10.5 -33q19 -43 41.5 -69.5t64.5 -35.5z" />
    <glyph glyph-name="one" unicode="1" horiz-adv-x="321" 
d="M215 697q13 0 21 -6.5t12 -22t5 -42.5t1 -67q0 -32 -0.5 -65t-0.5 -62q0 -12 0.5 -16t0.5 -16q0 -17 -0.5 -32.5t-0.5 -30.5q0 -12 0.5 -16t0.5 -16q0 -23 -0.5 -48t-0.5 -47q0 -12 0.5 -16t0.5 -16t-0.5 -16t-0.5 -16q0 -25 0.5 -51t0.5 -45q0 -16 -11.5 -27t-26.5 -11
q-18 0 -33 9t-15 28q0 13 0.5 17t0.5 16t-0.5 16t-0.5 16q0 24 0.5 49.5t0.5 48.5q0 13 -1.5 17t-1.5 16t1.5 16t1.5 16t-0.5 16t-0.5 17q0 15 0.5 31.5t0.5 32.5q0 12 -1.5 16t-1.5 17v30.5t0.5 35t0.5 34.5v29q0 6 -4 16t-11.5 19.5t-18 17t-23.5 7.5h-3q-11 0 -25.5 7
t-14.5 16q0 5 5 17t10 20q9 15 23.5 23t32.5 11.5t38 4t39 0.5v2z" />
    <glyph glyph-name="two" unicode="2" horiz-adv-x="552" 
d="M446 102q18 0 28 -14.5t10 -36.5q0 -17 -10.5 -27t-27.5 -10q-50 0 -103.5 -1t-105.5 -1q-5 0 -28 -1.5t-49 1.5t-46.5 12.5t-20.5 32.5q0 8 6.5 21t16.5 27.5t21.5 29t21.5 26.5q26 32 54.5 63t50.5 66q60 71 92.5 119t32.5 93q0 28 -11 51.5t-29 40t-41.5 25.5t-48.5 9
q-38 0 -58.5 -20.5t-35 -45.5t-27.5 -45.5t-36 -20.5q-14 0 -25 7t-11 22q0 3 2 11q17 74 66.5 120.5t126.5 46.5q26 0 62 -10t61 -28q42 -31 65 -73.5t23 -91.5q0 -25 -8.5 -54.5t-21.5 -51.5q-35 -59 -65.5 -97t-53 -64.5t-35.5 -45.5t-13 -40q0 -17 10.5 -26t31.5 -13.5
t53.5 -5t76.5 -0.5h-1z" />
    <glyph glyph-name="three" unicode="3" horiz-adv-x="552" 
d="M484 242q1 -8 1.5 -16.5t0.5 -16.5q0 -23 -9.5 -57.5t-34 -67.5t-66.5 -56.5t-108 -23.5q-24 0 -53.5 6.5t-57 20t-49.5 35.5t-32 54q-5 16 -7 22t-2.5 8t0 2t0.5 3q0 14 10.5 24t25.5 10q17 0 32 -12.5t20 -28.5q35 -69 113 -69q59 0 95.5 36.5t36.5 95.5q0 31 -13 61
t-43 46q-12 6 -27 9.5t-28.5 8.5t-22.5 13t-9 24q0 11 11 23.5t28 14.5q44 -2 69 27t25 78q0 24 -9 44.5t-25 35.5t-37.5 23.5t-45.5 8.5q-25 0 -49 -10t-40 -37q-6 -11 -11.5 -20t-13 -15.5t-18.5 -10.5t-28 -4q-11 0 -19 7t-8 18q0 1 2.5 9t7 18.5t10 22.5t12.5 23
q23 35 61 54t95 19q21 0 44.5 -4t46.5 -14q17 -7 36 -21.5t35 -35t26.5 -47t10.5 -56.5q0 -25 -5 -46t-14 -42q-4 -8 -8.5 -26.5t-4.5 -41.5q0 -20 5.5 -35.5t13 -29.5t14.5 -28.5t10 -32.5z" />
    <glyph glyph-name="four" unicode="4" horiz-adv-x="672" 
d="M594 169q2 -5 4 -13t2 -17t-11 -20.5t-22 -12.5q-26 -2 -44.5 -26.5t-18.5 -64.5q0 -17 -11 -25t-23 -8h-12q-14 0 -22 8t-8 25q0 45 -30.5 69.5t-80.5 24.5h-19.5t-15.5 -1q-11 0 -27 0.5t-32 0.5t-21 -1h-21.5t-12.5 0.5t-10 0.5h-14q-38 0 -58.5 16t-20.5 42
q0 23 14.5 45.5t26.5 42.5l25 33q7 13 11 17.5t12 16.5l23 35q11 20 20 33.5t16 24.5l68 103q5 9 9.5 16t10 15.5t12.5 20t18 28.5q30 48 65.5 77.5t64.5 29.5q22 0 32.5 -18t14.5 -40.5t3 -43.5t-1 -27v-41q0 -7 -0.5 -11t-0.5 -7.5t-0.5 -8.5t-0.5 -14q0 -8 0.5 -12.5
t0.5 -8t0.5 -8.5t0.5 -14q0 -41 -1.5 -81t-0.5 -75t6 -61.5t17 -38.5q7 -7 16.5 -8.5t19 -2.5t17 -3.5t10.5 -11.5zM427 363q1 16 0.5 41t-2.5 40v1q-1 14 -3 29t-7 27t-13 20t-21 8q-6 0 -18.5 -11.5t-28 -30t-31 -41.5t-27.5 -46l-37 -58q-6 -10 -9 -16.5t-11 -13.5v-1
q-8 -10 -12.5 -24t-4.5 -30q0 -9 3 -23t13 -26.5t29.5 -21.5t52.5 -9q21 0 43.5 4t41 16.5t30.5 36.5t12 64v65z" />
    <glyph glyph-name="five" unicode="5" horiz-adv-x="573" 
d="M504 215q-4 -28 -19 -64.5t-43.5 -69t-73 -55t-107.5 -22.5q-12 0 -29.5 1.5t-38 6.5t-42 14.5t-39.5 25.5q-19 17 -29 27.5t-14 17.5t-4 12.5v12.5q0 13 11 26t30 13t27 -12.5t20 -24.5q24 -26 52 -35.5t61 -9.5q34 0 62.5 14t49 37t32 53t11.5 63q0 41 -13.5 71.5
t-36 50.5t-51 30t-59.5 10q-28 -2 -50 -7t-37 -5q-12 0 -19 6.5t-7 23.5q0 19 7 47q1 3 3 15t4.5 26.5t5.5 28.5t5 22q5 14 7 30.5t6 31.5q10 41 32 53.5t62 12.5q15 0 32.5 -0.5t32.5 -0.5q12 0 22 0.5t22 0.5q17 0 35 0.5t33 -2.5t25 -11t10 -25q0 -14 -10.5 -27.5
t-27.5 -13.5q-12 0 -16 0.5t-17 0.5q-16 0 -36.5 -0.5t-41.5 -0.5q-14 0 -29.5 -3t-28.5 -10t-22 -18t-9 -27q0 -2 -2.5 -11.5t-2.5 -15.5q0 -13 6.5 -21t18.5 -14t29 -10.5t37 -10.5q71 -20 114.5 -73.5t50.5 -125.5z" />
    <glyph glyph-name="six" unicode="6" horiz-adv-x="583" 
d="M513 262q1 -8 1.5 -14.5t0.5 -13.5q-1 -41 -15 -85.5t-49 -77.5q-5 -5 -19 -16.5t-35 -23.5t-47 -21.5t-56 -9.5q-23 0 -41.5 5t-43.5 13q-4 2 -26 17t-47.5 41.5t-46 64t-20.5 84.5q0 6 0.5 13.5t2.5 14.5q1 10 8 28.5t14.5 36t14 30.5l6.5 13q2 4 16.5 24t35 48.5
t44.5 60.5t46 61q9 14 25 38t34 47.5t34.5 41.5t25.5 19q23 0 32.5 -12t9.5 -26q0 -12 -7 -20q-23 -33 -39 -55.5t-26 -38t-14.5 -27t-4.5 -23.5q0 -15 8 -24.5t22 -19.5t33.5 -22.5t43.5 -32.5q31 -26 52 -59.5t27 -73.5v-5zM429 185q2 5 3 11.5t1 13.5q0 25 -8.5 53
t-26 50.5t-44.5 37.5t-64 15q-29 0 -54.5 -11t-44.5 -30t-29.5 -45t-10.5 -56q0 -38 16 -73t45 -53q2 -2 10.5 -6t19.5 -8.5t23 -7.5t21 -3q10 0 21 1t21 4q4 1 16 5t26.5 15.5t30.5 32t28 55.5v-1z" />
    <glyph glyph-name="seven" unicode="7" horiz-adv-x="571" 
d="M425 676q36 3 53.5 -12t17.5 -41q0 -14 -4 -27t-12 -28.5t-20.5 -36t-28.5 -47.5q-19 -32 -29 -48t-14.5 -23.5t-5 -9t-2 -4t-5 -9t-13 -23.5t-27.5 -48.5t-48 -83.5q-7 -11 -10 -15t-5.5 -8t-6.5 -10t-12.5 -21t-23.5 -42t-40 -71l-8 -16t-15 -24.5t-21 -22t-28 -9.5
t-29.5 11t-13.5 26q0 11 8.5 24.5t13.5 22.5q41 68 86.5 141.5t94.5 151.5q6 10 17.5 27.5t22.5 37.5t19 40t8 36q0 21 -10.5 35.5t-25.5 23.5t-32 13t-30 4q-7 0 -12 -0.5t-9 -0.5q-10 0 -26.5 0.5t-27.5 0.5q-7 0 -24 -1.5t-35 0.5t-32 10.5t-14 28.5q0 19 6.5 29
t16.5 14.5t22.5 4.5h23.5q15 0 31.5 -1.5t32.5 -1.5q13 0 17 1.5t16 1.5t16 -0.5t16 -0.5q15 0 31.5 0.5t32.5 0.5q12 0 16 -0.5t16 -0.5q14 0 31.5 0.5t33.5 0.5z" />
    <glyph glyph-name="eight" unicode="8" horiz-adv-x="557" 
d="M467 290q8 -21 13.5 -44t5.5 -53q0 -43 -15 -80.5t-42.5 -65.5t-66 -44t-84.5 -16q-32 0 -69.5 11t-69.5 35.5t-53.5 63.5t-21.5 96q0 33 5 54.5t17 42.5q18 32 25 54t7 38q0 14 -4 24t-9.5 18.5t-10 16.5t-5.5 18q-2 14 -4.5 26.5t-2.5 27.5q0 27 4.5 47t15.5 40
q4 12 19.5 30t37.5 34.5t48 28.5t52 12q60 0 101 -16.5t66.5 -44t37 -63.5t11.5 -75q0 -16 -3 -34q-1 -6 -6 -17t-10.5 -25t-10 -31t-4.5 -35t5.5 -36.5t20.5 -37.5zM375 100q19 19 26.5 47t7.5 49q0 15 -5.5 36.5t-18 41.5t-32.5 34t-48 14q-35 0 -64.5 -8.5t-52 -25
t-35 -41t-12.5 -56.5q0 -3 2 -16.5t8.5 -30.5t18 -35t30.5 -31q17 -13 38.5 -17t38.5 -4q59 0 98 43zM161 516q0 -8 0.5 -16.5t2.5 -16.5q1 -13 13 -28t28.5 -28.5t36 -22.5t37.5 -9t31.5 4.5t27.5 11.5q9 6 19.5 18t19 27t14.5 30t6 27q0 13 -7.5 33t-20.5 38.5t-30.5 31.5
t-36.5 13q-21 0 -46 -4.5t-46 -16.5t-35.5 -34t-14.5 -58h1z" />
    <glyph glyph-name="nine" unicode="9" horiz-adv-x="584" 
d="M426 280q-6 -9 -16.5 -22.5t-28 -36.5t-44 -58.5t-63.5 -88.5q-5 -5 -11.5 -15.5t-15 -21.5t-18.5 -19t-22 -8q-17 0 -27.5 10.5t-10.5 25.5q0 6 4 14.5t10 18.5t13.5 20l13.5 18t15.5 21t18 28t14.5 29.5t6 26.5q0 15 -12.5 30t-45.5 29q-14 5 -27.5 11t-26.5 17
q-7 6 -20.5 21t-27.5 37.5t-24.5 51t-10.5 60.5q0 22 6 49.5t18 53.5q1 2 12 20.5t32.5 40.5t53 39.5t72.5 17.5q9 0 24.5 -1t32.5 -2.5t33 -4t26 -5.5q76 -34 107 -87.5t31 -113.5q0 -5 -1 -14.5t-5.5 -25.5t-14 -39.5t-27.5 -54.5q-8 -14 -20 -34.5t-23 -37.5zM292 340
q20 -2 35 2t34 16q11 5 24 21t23.5 35t17.5 37t7 29q0 9 -6 28.5t-19.5 40.5t-35.5 41t-54 31q-5 0 -18 -1t-29 -3.5t-30.5 -6t-20.5 -7.5q-11 -5 -24 -17t-23.5 -28t-17.5 -35t-7 -40q0 -17 3 -29t9 -26q4 -9 14.5 -24t27 -29.5t39 -24.5t51.5 -10z" />
    <glyph glyph-name="colon" unicode=":" horiz-adv-x="229" 
d="M127 413q9 0 19 -6.5t10 -15.5v-7.5t-0.5 -4.5t-0.5 -4.5v-8.5q0 -9 -6 -16t-15 -7q-14 0 -19 -1.5t-20 -1.5q-8 0 -15.5 10.5t-7.5 19.5q0 6 0.5 7t0.5 1.5t0.5 1.5t0.5 7q0 8 8 17.5t17 9.5h10h4.5t4 -0.5t9.5 -0.5zM123 263q9 0 20.5 -9t11.5 -19q0 -5 -0.5 -7.5
t-1 -4t-1 -3.5t-0.5 -8q0 -9 -9 -15.5t-17 -6.5q-7 0 -9 -0.5t-3.5 -0.5t-4 -0.5t-9.5 -0.5q-9 0 -18.5 9.5t-9.5 18.5v17q0 10 9.5 20t18.5 10h9h3h2.5h8.5z" />
    <glyph glyph-name="semicolon" unicode=";" horiz-adv-x="236" 
d="M129 414q9 0 19.5 -6.5t10.5 -16.5v-7.5t-0.5 -4.5t-0.5 -4.5v-8.5q0 -9 -6.5 -16.5t-15.5 -7.5q-8 0 -12 -0.5t-8 -1.5t-8.5 -1.5t-12.5 -0.5t-15.5 11t-7.5 21v7t0.5 1.5t0.5 1.5v7q0 9 8.5 18.5t18.5 9.5h10h4.5t4 -0.5t10.5 -0.5zM71 233q0 9 9 19.5t19 10.5h28
q11 0 18.5 -6.5t7.5 -16.5v-8t-0.5 -1t-0.5 -1v-8q0 -8 -3.5 -11.5t-11.5 -9.5q-5 -3 -6.5 -4t-3 -1t-4 -0.5t-7.5 -3.5q-5 -4 -7 -5t-3.5 -2t-4 -2t-6.5 -4q-8 -5 -17 -3t-9 11q0 6 0.5 8.5t0.5 4t0.5 3t0.5 7.5v23z" />
    <glyph glyph-name="less" unicode="&#x3c;" horiz-adv-x="565" 
d="M445 132q-14 -14 -29 -14q-8 0 -18.5 3.5l-25.5 8.5q-9 3 -11.5 5t-4 4t-4 4t-11.5 6t-14 6t-9.5 4t-9.5 4.5t-14 7.5l-47 20l-133 64q-18 5 -26 24.5t-8 36.5q0 24 17.5 40.5t41 27.5t46 18t32.5 12q9 4 13.5 8t8.5 8t8.5 7.5t13.5 7.5q8 4 13.5 5t10.5 2t11 2t15 5
q12 5 26.5 17t31.5 12h5q2 0 8.5 3t17.5 3q20 0 34 -10.5t14 -30.5q0 -13 -5.5 -23t-19.5 -11q-11 -3 -26.5 -13t-29.5 -15q-13 -5 -31 -12.5t-35 -18.5t-29 -25.5t-12 -33.5q0 -21 25 -35t60 -31q17 -8 34.5 -14t29.5 -17q21 -3 35 -15t14 -28t-13 -29z" />
    <glyph glyph-name="equal" unicode="=" horiz-adv-x="567" 
d="M355 264q-20 0 -34.5 0.5t-26 0.5t-21.5 0.5t-21 0.5q-8 0 -17.5 -0.5t-21.5 -0.5h-56h-3q-4 0 -8 -0.5t-9 -0.5h-17.5t-18.5 4t-15 13t-6 26q5 23 19 29.5t47 6.5q17 0 34.5 -0.5t28.5 -0.5q15 0 29.5 0.5t32.5 1.5t40.5 1.5t51.5 0.5h14.5t13.5 -1q10 0 19 1.5t18 1.5
q14 0 26 -10t12 -31q0 -19 -9.5 -27.5t-22.5 -12t-26.5 -3t-21.5 -0.5h-31zM196 190q20 0 34 -0.5t25.5 -0.5t21 -0.5t20.5 -0.5q8 -1 18 0t22 1h55q1 0 1.5 -0.5t2.5 -0.5q4 0 8.5 1t8.5 1q7 0 17 -0.5t19 -4t15.5 -12.5t6.5 -25q-5 -21 -17 -29.5t-50 -8.5
q-17 0 -34.5 0.5t-29.5 0.5q-14 0 -22 -0.5t-21 -1t-37.5 -1t-71.5 -0.5h-15.5t-13.5 1q-10 0 -18.5 -2t-18.5 -2q-14 0 -25.5 10.5t-11.5 30.5t9.5 29t22.5 12t26.5 2.5t20.5 0.5h32z" />
    <glyph glyph-name="greater" unicode="&#x3e;" horiz-adv-x="581" 
d="M111 475q12 13 26 13q15 0 45 -12q9 -3 11.5 -5t4 -4t4 -4t11.5 -6l93 -41q4 -2 21.5 -10t38.5 -18t41 -19.5t31 -14.5q19 -8 27 -27.5t8 -34.5q0 -23 -17 -39t-40 -27.5t-46 -19t-34 -12.5q-9 -4 -14 -8t-8.5 -7.5t-8 -7t-12.5 -7.5q-9 -5 -14.5 -6.5t-10.5 -2t-11 -1.5
t-15 -5q-8 -5 -12.5 -7.5t-8.5 -5t-9.5 -4.5t-14.5 -6q-10 -5 -13 -5q-2 0 -2 0.5t-2 0.5t-8 -3.5t-18 -3.5q-21 0 -34 10t-13 30q0 13 6 23t18 12q14 5 28.5 12.5t27.5 13.5q12 6 30 13t34.5 17.5t28.5 24.5t12 33q0 20 -23.5 36t-59.5 33q-17 6 -35.5 12.5t-29.5 16.5
q-20 4 -33.5 15.5t-13.5 27.5t14 30z" />
    <glyph glyph-name="question" unicode="?" horiz-adv-x="500" 
d="M75 537q0 10 1 20t5 17q3 6 8.5 19.5t13 27t16 24.5t15.5 14q8 4 14.5 10.5t14.5 11.5q17 10 37 16t39 6q38 0 66.5 -10t46.5 -26q12 -6 26.5 -17t26.5 -28.5t20.5 -41.5t8.5 -55q0 -48 -20 -91t-52 -88q-17 -27 -27 -41t-16 -23t-10 -18t-9 -26v-14v-16t-2 -24.5
t-7.5 -22.5t-16.5 -10h-11q0 -1 1 -1h1h-13q-6 0 -12 5t-10.5 12t-7 15t-2.5 13q0 40 6.5 68.5t16.5 49.5t22.5 36.5t25.5 30.5l18 31q8 8 13.5 23t8.5 23q2 4 5 12.5t6 18t5 19t2 15.5q0 18 -7 37.5t-20.5 35.5t-34 26.5t-48.5 10.5q-11 0 -21 -6t-18.5 -14.5t-15.5 -18
t-12 -17.5q-7 -11 -10 -25.5t-6.5 -28.5t-9 -23.5t-17.5 -9.5t-12 -1l4 -1q0 -1 -11 -1q-16 0 -25.5 11.5t-9.5 21.5v18zM214 50q0 11 10 24.5t24 13.5h13q0 -1 -1 -1h-1h13q17 0 25 -7t11 -16.5t2.5 -19t-0.5 -13.5q0 -10 -8.5 -23.5t-23.5 -13.5h-10h3q3 0 3 1
q-23 -2 -35 3.5t-17.5 14t-6.5 19t-1 18.5z" />
    <glyph glyph-name="at" unicode="@" horiz-adv-x="947" 
d="M885 388q0 -11 1 -26t-1 -26q-1 -9 -2 -19.5t-3 -22.5q-3 -9 -6 -22.5t-7 -23.5q-2 -6 -10 -20t-17.5 -29.5t-18.5 -29.5t-15 -21q-29 -38 -62 -56.5t-78 -11.5q-13 2 -21 7t-13 10.5t-9.5 10t-9.5 4.5q-9 0 -26 -8t-40.5 -17t-52.5 -17t-62 -8q-42 0 -80 15.5t-63 43.5
q-18 20 -27.5 45.5t-9.5 52t10 51.5t30 44q21 19 47 30.5t54.5 17t57.5 7t56 2.5q12 0 28 -1t30 1t24 9.5t10 24.5q-1 29 -14 52.5t-41 34.5q-25 11 -52.5 10t-53.5 -7q-13 -3 -26 -6.5t-24 -10.5q-11 -6 -20.5 -14t-20.5 -14q-11 -7 -23 -9.5t-24 5.5q-11 6 -17 17.5
t-4 23.5t10 20.5t19 15t23 11t21 9.5q55 29 118 37t122 -15l4 -1q31 -12 50.5 -34t30 -49.5t13.5 -58.5t3 -61q0 -14 0.5 -24.5t0.5 -20.5v-20.5v-24.5v-15t1.5 -31.5t4.5 -32.5t9 -18q10 -5 18.5 -1.5t27.5 25.5q10 11 22 33t18 40q2 4 2 7t1 7q3 11 7 22t6 20t3.5 19
t1.5 20q0 3 -1 17.5t-2 31.5t-3 32.5t-3 20.5q-2 8 -8 16.5t-11 16.5q-1 2 -1.5 3.5t-1.5 3.5q-2 2 -3 4t-2 5q-3 7 -6.5 14t-8.5 13q-6 8 -15.5 19.5t-16.5 18.5l-3 2q-6 7 -13.5 14t-15.5 14q-4 3 -11.5 7.5t-15.5 9.5t-16 9t-12 7l-24 9q-4 2 -7 2.5t-7 2.5q-7 3 -13 4.5
t-13 3.5q-4 2 -23 4.5t-41 5t-40 3.5t-19 1q-3 0 -6 -0.5t-6 -0.5q-5 -2 -15 -2q-6 -1 -12.5 -1t-12.5 -2q-8 -2 -28 -11.5t-44 -22t-47 -26t-36 -22.5q-8 -9 -18 -21q-2 -3 -9 -10q-8 -8 -14 -17t-11 -16q-6 -8 -11 -16.5t-10 -18.5l-2 -3q-5 -8 -9.5 -16.5t-7.5 -16.5
q-4 -10 -10 -20.5t-8 -18.5q-9 -32 -11.5 -64.5t-1.5 -58.5t4 -43.5t5 -20.5q3 -9 5 -19.5t5 -19.5l1 -3q4 -8 10 -18.5t12 -20.5q3 -7 7 -12l8 -10l6 -9q4 -5 6.5 -8.5t5.5 -8.5q3 -6 6.5 -10.5t7.5 -9.5q3 -4 10 -10t14.5 -12t14.5 -12t11 -9q7 -7 15.5 -13t17.5 -12
q6 -5 13.5 -8.5t15.5 -8.5q4 -2 7 -4q2 -1 4.5 -2t5.5 -3q6 -3 12.5 -6.5t12.5 -5.5q12 -5 24 -6q4 -1 8 -1.5t8 -1.5t7.5 -2t8.5 -3q13 -4 23 -5q12 -2 21.5 -2.5t19.5 -1.5q2 0 10.5 1t18 2.5t18 2.5t9.5 1q4 1 6.5 1t5.5 1q3 0 6.5 0.5t5.5 0.5q7 1 13.5 2t12.5 2
q4 1 6.5 1.5t4.5 0.5q7 2 13.5 3.5t14.5 3.5q3 1 6.5 1.5t5.5 1.5l16.5 5.5t29.5 10.5t30.5 11.5t20.5 8.5q15 5 25.5 -1t15.5 -16.5t4 -21t-9 -14.5q-2 -1 -5.5 -2.5t-5.5 -4.5q-6 -2 -10 -3t-10 -5q-5 -2 -12 -5t-12 -5q-4 -2 -12.5 -4t-13.5 -4t-8.5 -3t-9.5 -3
q-6 -3 -12 -5l-12 -4q-3 -2 -6.5 -2.5t-6.5 -2.5q-5 -1 -8.5 -3t-7.5 -4q-5 -2 -12 -1.5t-13 -1.5q-3 -1 -13.5 -2t-22 -1.5t-22 -1.5t-13.5 -1q-5 -1 -9 -1.5t-7 -1.5q-12 -2 -22 -3t-19 -1q-3 0 -20.5 1.5t-38.5 4t-40 6t-25 7.5q-7 2 -13 4.5t-12 5.5q-5 2 -15 7
q-3 1 -19.5 10t-36 19.5t-35.5 20t-18 12.5q-10 7 -17.5 14t-14.5 14q-8 8 -15 16.5t-13 16.5q-12 15 -19 28q-2 2 -6 7q-3 7 -6.5 13t-6.5 13q-2 3 -3 6.5t-3 6.5q-1 2 -1.5 4t-2.5 4q-4 7 -8 14.5t-6 16.5q-3 3 -3 5q-3 9 -6.5 17.5t-5.5 17.5q-2 10 -5 20.5t-5 21.5
q0 4 -0.5 7t-1.5 8q-2 4 -2 26.5t0.5 48t2 46t3.5 22.5q1 4 1.5 7t1.5 7q2 3 2.5 7t1.5 8q1 7 2 13.5t4 13.5q0 1 2 5q5 19 12 35q4 7 7 13.5t8 14.5q4 6 5 10q7 10 12.5 19t11.5 17q3 4 18.5 21t34.5 36t35.5 34t22.5 17q2 2 5.5 3.5t5.5 3.5q7 5 13.5 8t12.5 6q3 1 15.5 7
t27.5 12.5t28 12t17 5.5h2l12 3q7 3 13.5 4.5t13.5 3.5q7 1 13.5 1t12.5 2q2 0 15.5 0.5t29.5 0.5t30.5 0.5t17.5 0.5q8 0 16 -2.5t17 -4.5q3 -1 24 -7t45.5 -13.5t44 -14t19.5 -7.5q7 -3 12.5 -7t11.5 -9q2 -2 5.5 -4t5.5 -5q8 -5 17 -11t17 -14q8 -5 15.5 -12.5
l15.5 -15.5q12 -14 21 -27q2 -2 3 -3.5t3 -3.5q2 -3 4.5 -6.5t5.5 -5.5q4 -5 8 -10.5t7 -12.5q11 -17 19 -39q4 -10 7.5 -20t5.5 -21q2 -7 2 -13.5v-13.5v-8.5t2 -8.5q0 -5 2 -15q3 -14 3 -28zM471 126q23 2 45 9t40 19.5t30 30.5t15 43v5q2 24 -5 42.5t-35 21.5
q-26 3 -54 2.5t-54 -2.5q-21 -2 -43 -7.5t-39.5 -16.5t-27 -29t-5.5 -45q3 -23 17 -38t33.5 -23.5t41 -11t41.5 -0.5z" />
    <glyph glyph-name="A" unicode="A" horiz-adv-x="704" 
d="M629 74q3 -14 5 -33t-11 -30t-35 -11.5t-36 9.5q-10 8 -13.5 20t-5.5 23q-2 14 -8 28t-11 27q-6 15 -14.5 32t-22.5 27q-13 9 -28.5 12t-31.5 3.5t-32 -0.5t-31 1t-30 2t-30 -1q-19 -2 -36 -1.5t-34 -7.5q-22 -10 -30.5 -30.5t-16.5 -39.5q-5 -12 -7.5 -24.5t-6.5 -25.5
q-3 -11 -6.5 -23.5t-12.5 -20.5q-11 -10 -32 -9.5t-33 9.5q-10 7 -10.5 18.5t3.5 24.5t10 25t9 21q7 20 11 39.5t10 39.5q32 110 69.5 216.5t75.5 214.5q4 12 9 25.5t12.5 26.5t17 23t23.5 14q13 4 32 4t30 -10q7 -6 10.5 -14t7.5 -16q5 -11 11 -21.5t12 -21.5
q24 -44 43 -87.5t36 -91.5q17 -50 35 -98t34 -98q8 -23 15 -46.5t14 -46.5q3 -11 6 -20.5t7 -19.5q2 -6 9.5 -18t7.5 -19zM449 276q8 12 5.5 26t-7.5 26q-7 17 -13 38q-2 8 -6 16.5t-7 16.5q-5 13 -10.5 33t-13.5 39t-21 32t-33 12q-20 -2 -32.5 -21.5t-18.5 -36.5
q-8 -22 -15 -45.5t-11 -46.5q-2 -11 -5.5 -22.5t-6 -23.5t-2 -24t6.5 -22q9 -14 29.5 -17.5t36.5 -4.5q13 -1 30.5 -1.5t35.5 1.5t33.5 7.5t24.5 16.5v1z" />
    <glyph glyph-name="B" unicode="B" horiz-adv-x="709" 
d="M652 232q2 -21 -1 -40.5t-8 -39.5q-4 -17 -10.5 -32t-18.5 -28q-8 -9 -17.5 -20t-20.5 -19q-5 -3 -9 -4.5t-9 -3.5l-16 -8t-17 -8q-35 -17 -71 -25t-74 -8q-23 0 -45.5 1.5t-45.5 2.5q-43 2 -86 -1t-85 8q-17 5 -30 15t-15 28q-3 20 -1.5 40t0.5 39q-2 38 3 77t6 77
q1 19 3 38.5t0 38.5q-1 14 -1.5 26.5t-0.5 25.5q-1 29 -1 59v59q0 24 1 48.5t3 47.5q3 46 41 63q26 10 56 10h57q19 0 38.5 0.5t39.5 -1.5q19 -2 39 -3.5t38 -7.5q17 -6 30.5 -16t27.5 -20q9 -6 18 -13t17 -15q20 -20 30.5 -48.5t5.5 -56.5q-3 -17 -11 -33.5t-6 -33.5
q2 -12 11.5 -19.5t19.5 -13.5q26 -19 54 -40.5t44 -50.5q11 -21 14 -47.5t4 -49.5zM161 558q0 -17 0.5 -33.5t5 -31.5t14.5 -27t28 -20q17 -6 33.5 -7.5t33.5 -1.5q20 -1 42.5 -1.5t42.5 3.5q22 4 39 16t26.5 29t10.5 37.5t-8 42.5q-9 20 -26 34t-38 22t-43.5 11t-42.5 2
q-19 -1 -40 -4t-38 -11t-28.5 -22.5t-12.5 -38.5zM562 207q2 32 -11 65.5t-38 55.5q-14 12 -32 19.5t-37.5 12t-39 6t-37.5 2.5q-18 2 -35 0t-35 -3q-14 -1 -28 0.5t-28 -0.5q-13 -2 -27 -8t-26 -15t-20.5 -21.5t-9.5 -25.5q-1 -18 -2.5 -37t-1.5 -37.5t3.5 -37t11.5 -35.5
q18 -37 54 -55t74 -24q44 -8 91.5 -4.5t88.5 22.5q18 8 38 20.5t32 28.5q11 16 12.5 34t3.5 36z" />
    <glyph glyph-name="C" unicode="C" horiz-adv-x="718" 
d="M621 168q14 -6 23.5 -21.5t4.5 -31.5t-19 -30.5t-26 -24.5q-19 -15 -40.5 -28.5t-44.5 -21.5q-32 -12 -63 -12.5t-63 -2.5q-12 -1 -22.5 -1.5t-22.5 1.5q-11 2 -20.5 5.5t-19.5 7.5q-19 7 -37 13t-35 17q-25 15 -47.5 31.5t-41.5 39.5q-26 31 -43 68t-25.5 77t-9 81
t7.5 79q16 83 67 149t126 103q28 14 54.5 23.5t57.5 11.5q43 3 85 -4t81 -26q13 -6 29 -15.5t28.5 -21.5t20 -27t3.5 -33q-2 -13 -11 -23t-23 -12q-17 -3 -28 6.5t-22 19.5q-30 26 -61.5 38.5t-71.5 13.5q-41 1 -79 -13.5t-70 -40.5q-35 -28 -57 -68t-32 -85t-7 -91t19 -86
q10 -26 27.5 -52.5t40 -49t49.5 -37.5t56 -18q42 -4 84.5 3.5t76.5 33.5q10 7 21.5 20t24 23.5t26.5 15.5t29 -3v-1z" />
    <glyph glyph-name="D" unicode="D" horiz-adv-x="675" 
d="M602 460q11 -41 9.5 -84.5t-6.5 -85.5q0 -69 -26.5 -129.5t-85.5 -99.5q-8 -6 -17 -11.5t-18 -10.5q-15 -8 -27.5 -16t-29.5 -12q-34 -8 -67 -13.5t-68 -0.5q-26 3 -52 5t-52 2q-10 0 -23 -1.5t-25.5 -0.5t-23.5 4.5t-17 14.5q-9 18 -8.5 42.5t0.5 44.5q0 17 0.5 35
t2.5 36q5 35 3.5 68.5t2.5 68.5q3 25 3.5 50t1.5 51t2 53.5t-1 53.5q-2 29 -3.5 58.5t4.5 59.5q13 54 70 57q32 2 65 0q38 -1 76 -6.5t75 -15.5q27 -8 49 -19.5t45 -29.5q24 -18 45 -33t38 -41q16 -22 32.5 -47t24.5 -51zM519 329q1 48 -7.5 97t-40.5 87q-6 13 -17.5 24.5
t-25 21t-27 18t-25.5 14.5q-32 18 -71 21t-71 -20q-24 -17 -38.5 -43t-21.5 -55q-6 -26 -6 -48q-1 -20 -2.5 -39t-1.5 -39q0 -36 -1 -72t-3 -71t4.5 -67t32.5 -56q26 -23 62.5 -28.5t68.5 2.5q38 10 73.5 27t64.5 45q17 18 27.5 39.5t16.5 45t8 48t2 48.5h-1z" />
    <glyph glyph-name="E" unicode="E" horiz-adv-x="605" 
d="M483 98q21 0 38.5 -10.5t17.5 -34.5q-1 -21 -14.5 -34.5t-33.5 -15.5q-26 -2 -52.5 -1t-51.5 3q-23 1 -46 1h-46q-25 0 -49.5 -3t-49.5 -2q-15 1 -30.5 1.5t-30.5 3.5t-28 9.5t-23 19.5q-15 20 -17 43t-3 47q0 7 -0.5 16t-0.5 17q-1 12 1 24t2 25q1 45 0.5 89t-1.5 88
q-1 38 2 74t1 73q0 17 -1 35.5t0.5 36.5t6.5 34.5t17 31.5q11 14 25 20t29 8t31 1.5t32 -0.5q32 0 63 -0.5t63 -2.5q25 -1 49 -1.5t49 -0.5q20 0 45.5 2t45.5 -8q13 -6 19.5 -18t6.5 -25t-7 -24.5t-22 -15.5q-13 -4 -28.5 -2.5t-29.5 1.5q-30 1 -59.5 1.5t-59.5 0.5h-51
t-49 -2q-47 -5 -68.5 -35t-18.5 -76q1 -22 8.5 -42.5t24.5 -34.5q18 -16 40.5 -18.5t45.5 -2.5q20 0 39 1t37 -1q19 -2 27 -17.5t6 -32.5q-2 -16 -10 -27.5t-24 -13.5q-23 -4 -46 -5.5t-46 -2.5q-26 -1 -50.5 -10t-38.5 -34q-8 -16 -8.5 -36.5t1.5 -38.5q4 -27 25.5 -47
t45.5 -28q26 -10 52.5 -7t52.5 2q20 -1 38.5 -1t37.5 -2q19 -1 36.5 1t32.5 4z" />
    <glyph glyph-name="F" unicode="F" horiz-adv-x="602" 
d="M512 686q16 -11 24.5 -29.5t0.5 -36.5q-6 -10 -17 -14t-23.5 -5t-25.5 0t-22 1h-86h-52q-15 0 -34 -1t-37 -5t-32.5 -11t-21.5 -20q-11 -21 -17.5 -48.5t1.5 -69.5q3 -19 14 -30.5t26.5 -17.5t33.5 -7.5t36 -1.5h33.5t54.5 0.5t54.5 1t33.5 0.5q11 0 20 -2t16 -12
q7 -11 8.5 -24.5t-3 -25t-14 -20t-22.5 -9.5q-7 -1 -31 -1h-51t-51.5 -0.5t-32.5 -0.5q-23 -2 -48.5 -6.5t-41.5 -18.5q-19 -17 -29 -41.5t-14 -49.5q-2 -17 -2.5 -35t-0.5 -35q0 -10 1.5 -21.5t2.5 -23.5t0 -23t-6 -20q-7 -14 -25 -19.5t-32 -3.5q-12 1 -19 7.5t-10 15
t-3.5 18.5t-0.5 20v89q0 20 1.5 39t0.5 38q-1 31 1 62t0 62q-3 40 0.5 79.5t2.5 80.5q0 20 -1.5 41.5t0.5 42.5t8.5 40.5t22.5 34.5q17 18 38 19.5t44 1.5h89h98q20 0 40 0.5t40 1.5q14 0 31.5 -0.5t30.5 -9.5z" />
    <glyph glyph-name="G" unicode="G" horiz-adv-x="720" 
d="M634 367q5 -6 9.5 -15t4.5 -17q6 -38 5 -82t-14 -82q-15 -45 -46.5 -81.5t-72.5 -60.5q-49 -29 -109.5 -35t-115.5 10q-19 5 -36 15.5t-34 20.5q-45 27 -81 66q-16 17 -29 38t-21 43q-8 23 -9.5 49t-6.5 50q-4 20 -7 42.5t1 43.5q3 19 7 36.5t6 36.5t13 37t20 35
q8 15 15 30.5t18 29.5q12 16 28.5 28t32.5 23q20 14 40.5 26t43.5 20q32 12 69.5 17t71.5 -1q9 -2 18 -5.5t18 -6.5q14 -5 27.5 -9.5t26.5 -12.5t24.5 -18t22.5 -21q12 -11 25 -21.5t22 -24.5q11 -17 10 -37t-21 -32q-14 -9 -27 -6t-24 12t-21 20.5t-18 20.5
q-19 20 -46 32.5t-54 16.5t-51.5 0.5t-50.5 -11.5q-48 -14 -83 -51t-55 -81q-6 -12 -8 -26t-6 -27q-6 -21 -6 -40t2 -41q2 -23 4 -45t7 -45q2 -11 4.5 -21.5t7.5 -20.5q6 -11 16 -21t18 -19q9 -10 19.5 -18t19.5 -18q14 -16 35 -23q38 -13 79 -20q26 -5 50 3.5t46 21.5
q21 12 41 27.5t32 37.5q9 15 14 34t4.5 37.5t-7 36t-21.5 29.5q-17 14 -39 15.5t-43 0.5q-12 0 -21 4.5t-14 17.5q-6 17 2.5 35t25.5 23q20 6 44 4.5t44 -3.5q15 -1 29.5 -2t28.5 -3q14 0 24.5 -4.5t21.5 -17.5z" />
    <glyph glyph-name="H" unicode="H" horiz-adv-x="666" 
d="M595 119q-2 -14 -2 -30v-30t-0.5 -27.5t-12.5 -22.5q-8 -6 -19.5 -8.5t-23.5 -2t-22.5 4.5t-16.5 12q-7 11 -4.5 23.5t3.5 23.5q1 10 1 20t1 20q1 18 0 29.5t-2 30.5q-1 11 -0.5 23t0 23t-3.5 22t-10 21q-14 19 -33.5 28.5t-42 12.5t-45.5 2.5t-44 -0.5q-25 0 -51 1.5
t-49 -8.5q-21 -9 -37 -27t-18 -41v-18q0 -22 -0.5 -43t-0.5 -43q0 -20 1.5 -41.5t-4.5 -41.5q-7 -20 -22 -24t-33 -3q-15 1 -22.5 7t-11 15.5t-3.5 21v23.5q0 17 0.5 32.5t0.5 31.5v37t1 37q1 35 -0.5 72t2.5 73q6 51 6 101q0 13 1.5 25.5t-0.5 26.5q-2 11 -0.5 20.5
t0.5 20.5q-2 23 -2 45t1 45q2 23 9 34.5t33 13.5q20 2 36 -6.5t20 -30.5q2 -14 1.5 -29t-0.5 -29q-1 -33 1 -66t0 -66q2 -21 13 -38t28 -28t36.5 -12.5t40.5 -2.5q20 -1 41 -0.5t41 1.5q17 1 33.5 1t32.5 5q17 5 30 14t21 24q9 19 8.5 41.5t-0.5 42.5v57t-2 57q-1 14 -1 34
t12 31q10 9 25.5 11t27.5 -2q16 -5 23 -19t8.5 -31.5t-0.5 -35.5t-2 -31q-2 -96 1 -190.5t3 -191.5q2 -22 1 -38.5t-3 -39.5z" />
    <glyph glyph-name="I" unicode="I" horiz-adv-x="238" 
d="M82 9q-9 7 -10.5 16t0 18.5t3.5 19.5t-1 19q0 9 1.5 18t1.5 18v19t-0.5 25l-1 26t-0.5 22v60q0 29 1.5 59t-2.5 59q-3 23 -1 45t0 45q-1 11 -0.5 23.5t0.5 24.5v35t1 35q1 8 1.5 15t0.5 15q0 11 -0.5 24.5t2.5 24.5q4 15 17 21t27.5 4.5t27.5 -9.5t16 -21q5 -17 3 -33
t-3 -33q-1 -18 -0.5 -41t0.5 -41q0 -29 -2 -58.5t-2 -58.5q0 -35 1.5 -70t0.5 -70q-1 -32 -2 -63t-3 -63q-1 -15 -0.5 -29.5t2.5 -29.5q2 -17 3 -34.5t-11 -31.5q-6 -7 -15.5 -10t-20 -3.5t-20.5 2t-17 7.5z" />
    <glyph glyph-name="J" unicode="J" horiz-adv-x="568" 
d="M499 660q0 -21 -2.5 -45.5t-2.5 -50.5q-3 -16 -1 -32t0 -32q-1 -8 0.5 -13.5t2.5 -12.5q2 -9 1 -18.5t-2 -18.5q-2 -38 -3 -72t1 -72q2 -25 -2.5 -49.5t-5.5 -49.5q0 -16 -2.5 -28t-7.5 -26q-5 -17 -11 -35.5t-17 -32.5q-10 -14 -23.5 -25.5t-27.5 -20.5q-12 -8 -24 -11
t-26 -7q-11 -3 -20.5 -6t-21.5 -4q-11 -1 -22.5 -1t-22.5 -1q-45 -2 -87.5 13.5t-71.5 50.5q-7 9 -14.5 19.5t-13 22.5t-6 24t7.5 23q16 22 37.5 18t33.5 -24q13 -21 27 -38t39 -25q23 -8 49.5 -8t50.5 6q28 7 45 24.5t26.5 40.5t14 49t8.5 51q2 15 3.5 30t0.5 30
q0 7 -1.5 13t-2.5 13q-2 11 -0.5 17t1.5 17q0 18 0.5 38.5t0.5 38.5q0 13 -1 25.5t-1 25.5q0 16 1.5 31.5t1.5 31.5v73q0 13 -2 28t5 27q10 16 26 18.5t33 -3.5q14 -5 20.5 -13t8.5 -24z" />
    <glyph glyph-name="K" unicode="K" horiz-adv-x="660" 
d="M592 52q1 -17 -13 -31t-30 -18q-17 -4 -28.5 5.5t-19.5 23.5q-6 11 -13 20.5t-13 20.5t-17 27t-20 20q-1 1 -4.5 9.5t-4.5 10.5l-8 10l-8 10q-8 11 -15 21t-15 21q-17 21 -30.5 44t-30.5 44q-13 17 -29 25.5t-38 -2.5q-14 -7 -25 -18.5t-22 -22.5q-22 -20 -33.5 -40
t-12.5 -51q-1 -29 -0.5 -58.5t0.5 -58.5q0 -18 -3.5 -37t-23.5 -25q-18 -5 -36 -2.5t-25 22.5q-4 10 -3.5 20.5t-0.5 21.5t-1.5 22.5t-0.5 22.5q1 31 2 61.5t3 61.5q2 29 2 58.5t1 58.5q2 54 4 108.5t-1 108.5q-1 14 -2.5 35.5t1 42t11 36.5t27.5 20q23 5 37 -6t15 -32
q1 -15 1 -34v-34q-1 -34 -1 -68.5t2 -68.5q0 -8 1 -18t4.5 -18.5t10 -13.5t17.5 -3q17 3 30 17.5t24 26.5q17 19 35 36t35 35q11 12 21.5 25t21.5 25q23 23 49 50t49 50q7 7 15.5 14.5t17.5 12t18.5 5.5t20.5 -5q22 -12 22.5 -35.5t-12.5 -40.5q-11 -14 -26.5 -28.5
t-27.5 -27.5q-14 -14 -27 -28.5t-27 -28.5l-48 -45q-14 -14 -28.5 -29.5t-11.5 -37.5q1 -11 7.5 -21.5t14.5 -21t16.5 -20t15.5 -17.5q9 -11 17.5 -22t16.5 -22q20 -29 39.5 -58t38.5 -58q8 -13 19 -25t21 -25t18.5 -26t12.5 -28z" />
    <glyph glyph-name="L" unicode="L" horiz-adv-x="605" 
d="M535 67q2 -6 3 -14t0.5 -16.5t-3 -16t-8.5 -11.5q-7 -5 -16.5 -7t-19.5 -2t-20 1t-19 1q-20 1 -41 1t-41 1q-45 2 -90 0.5t-90 -2.5q-12 0 -27.5 -1t-30.5 0t-28 6t-22 16q-6 8 -9 19t-3.5 22.5t-0.5 23.5v22q-2 51 1 101.5t2 101.5v55t1 55q1 17 2 33t1 33
q0 11 -0.5 22.5t-1.5 22.5t1 22t2 22q0 18 0.5 36t1.5 36q1 13 4.5 28t16.5 22q11 6 28 3.5t27 -10.5q8 -7 11 -16t4 -20q7 -64 2 -129t-10 -129q-2 -26 -1.5 -52t2.5 -52q2 -21 0.5 -42.5t1.5 -42.5q5 -30 23 -54t44 -39q19 -11 39 -16t40.5 -7t41.5 -2h42q24 -1 48 -1
t48 -1q13 0 25 -3.5t17 -17.5z" />
    <glyph glyph-name="M" unicode="M" horiz-adv-x="792" 
d="M697 689q5 -4 10.5 -13.5t1.5 -17.5q-3 -15 -1 -32t3 -33q1 -23 0.5 -46t-1.5 -46q-2 -32 -1.5 -64.5t0.5 -64.5v-81t-3 -80q-2 -20 -2 -39t-2 -39q-1 -10 -0.5 -23.5t1 -28t0 -28.5t-3.5 -23q-8 -22 -33 -30t-45 6q-14 10 -13.5 29t0.5 34q0 19 -0.5 42.5t-0.5 47
t1 46.5t3 42q2 15 0.5 29.5t0.5 29.5q2 12 1.5 24t-0.5 24q0 20 -5 44t-24 36q-10 7 -19.5 6t-18.5 -6t-17 -12.5t-14 -14.5q-25 -28 -47 -56q-8 -11 -16 -21t-17.5 -17.5t-20.5 -12t-26 -2.5q-24 3 -37 17t-29 28q-11 9 -19.5 18t-16.5 20q-10 13 -22 24t-28 16
q-24 8 -45 -4.5t-28 -36.5q-4 -13 -2.5 -26t0.5 -26q-1 -20 -0.5 -38.5t-0.5 -38.5q-2 -26 -1.5 -52.5t-0.5 -52.5q0 -12 1.5 -29t2.5 -35t0 -34.5t-7 -26.5q-5 -8 -15 -13.5t-21 -7t-22 0.5t-18 9q-11 11 -11 26.5t1 29.5q0 7 0.5 18t0.5 22v22v18v81v36t-2 36
q-2 17 0.5 32.5t3.5 32.5q1 16 0.5 31.5t0.5 31.5q1 29 -2.5 57.5t0.5 57.5q2 21 2.5 42t0.5 42q0 12 1.5 24t6.5 22t13.5 17t23.5 8q23 2 39 -12t27 -32q20 -31 39 -61t42 -59q12 -16 25.5 -30t26.5 -29q7 -8 15.5 -18t18 -19t20.5 -15.5t23 -6.5t22 5.5t18.5 14.5t16 19
t14.5 18q14 17 27.5 34t27.5 34q15 20 30 40.5t29 41.5q6 10 12 21t13 21.5t15.5 19t20.5 12.5q12 5 28 4t27 -9z" />
    <glyph glyph-name="N" unicode="N" horiz-adv-x="714" 
d="M638 627q2 -38 -1 -77t-5 -77q-2 -30 -1 -60t1 -60q0 -23 -1.5 -46.5t0.5 -46.5q2 -17 2.5 -33.5t-1.5 -33.5q-1 -11 -1.5 -22.5t-0.5 -23.5q1 -27 4.5 -55.5t-2.5 -55.5q-5 -22 -26 -28.5t-41 0.5q-13 4 -21 20q-8 14 -13.5 29.5t-13.5 29.5q-26 49 -62 96
q-21 28 -44 54l-46 52q-16 18 -31 36.5t-31 36.5q-8 10 -21 21t-27.5 19t-30 10.5t-28.5 -4.5q-11 -6 -17.5 -16t-10 -22t-4.5 -24.5t-1 -23.5v-38t1 -38q2 -33 1.5 -68t-2.5 -68q-1 -14 -0.5 -32.5t0.5 -32.5q0 -9 -2 -19.5t-10 -16.5q-10 -8 -28.5 -9.5t-30.5 2.5
q-11 4 -15.5 13t-5.5 20q-2 31 1 67.5t3 67.5q0 34 0.5 67.5t-0.5 67.5q-1 26 -3 52t1 53q2 11 1.5 21t-0.5 21q1 14 2 27t2 27q2 22 1 43.5t-1 43.5v40t8 39q10 19 31.5 23.5t39.5 -3.5t31 -28t24 -36l57 -84q19 -28 38.5 -56t40.5 -54q17 -22 36 -42t37 -41
q8 -9 18.5 -22.5t22.5 -24t26 -14.5t29 5q12 8 14.5 19.5t3.5 24.5q1 17 1 34.5v34.5q1 32 2.5 63t2.5 63q1 26 0.5 53t0.5 54q1 18 4.5 35.5t22.5 25.5q12 5 26.5 4.5t25.5 -9.5q13 -11 15 -29.5t1 -33.5z" />
    <glyph glyph-name="O" unicode="O" horiz-adv-x="779" 
d="M77 453q8 29 19.5 57.5t28.5 51.5q6 10 13.5 18.5t15.5 16.5q10 10 18 21t19 20q19 15 43 25.5t46 18.5q50 20 106.5 24t107.5 -16q51 -19 88.5 -53.5t73.5 -74.5q17 -20 27 -43.5t18 -47.5q8 -27 15 -55.5t9 -56.5t-2 -56t-10 -55q-7 -29 -19.5 -52t-25.5 -49
q-5 -9 -10.5 -18t-13.5 -16q-9 -8 -19.5 -15t-19.5 -18q-16 -18 -36.5 -31.5t-43.5 -23.5q-51 -22 -105 -26.5t-107 2.5q-26 3 -48.5 13.5t-43 25t-39 31.5t-37.5 34q-10 8 -19.5 18t-15.5 21q-7 12 -10.5 25.5t-8.5 25.5q-14 32 -18 64t-4 66q0 32 -1.5 64.5t9.5 63.5z
M333 605q-43 -9 -76.5 -36.5t-56 -64.5t-34 -80t-11.5 -83q-3 -36 4.5 -74.5t26.5 -69.5q20 -31 50.5 -55t63.5 -38q37 -17 74.5 -17t73 11.5t67.5 33.5t57 51q26 28 41 61t14 71q-1 42 -6.5 83.5t-21.5 79.5q-14 35 -43.5 65.5t-63.5 47.5q-17 8 -35 15.5t-38 7.5
q-10 0 -19.5 -1.5t-20.5 -2.5t-22 -1t-22 -2z" />
    <glyph glyph-name="P" unicode="P" horiz-adv-x="650" 
d="M577 532q5 -23 8 -44t1 -44q-1 -25 -6 -50.5t-16 -48.5q-15 -32 -34 -54t-40 -37q-30 -22 -60 -29t-50 -7h-25.5t-32 -0.5t-32 -1t-25.5 -0.5q-8 0 -21 -1.5t-27 -8.5t-27.5 -21.5t-23.5 -40.5q-5 -20 -6.5 -40t-3.5 -40q-1 -10 -1 -19.5t-2 -18t-7.5 -15t-17.5 -9.5
q-21 -5 -37.5 2.5t-17.5 30.5q-1 27 -0.5 53.5t2.5 53.5q4 60 1.5 119t-1.5 119q1 56 0 111t1 110q1 25 3 48t24 40q11 8 24.5 10t26.5 3q17 2 34 2h34q29 -1 59 -1.5t60 -2.5q34 -2 70.5 -9t65.5 -26q6 -3 11.5 -6.5t10.5 -6.5q4 -2 6 -4q11 -8 20 -20t17 -22
q11 -14 19 -35t16 -39zM458 344q26 27 34 60.5t6 68.5q-2 20 -4 44t-13 41q-11 16 -28 28.5t-34 21.5q-14 5 -29 9t-22 6q-24 6 -49.5 5.5t-49.5 -5.5q-45 -8 -77 -36t-33 -76v-100q3 -33 12.5 -53.5t22 -32.5t26.5 -17t26 -5q17 -1 42.5 -1t42.5 1t33 1t32 3.5t31.5 12
t32.5 25.5z" />
    <glyph glyph-name="Q" unicode="Q" horiz-adv-x="791" 
d="M724 -25q16 -7 22 -21.5t3 -29t-14 -25.5t-28 -11l-30 -2t-30 3q-17 4 -34 11.5t-31 18.5q-23 16 -34 30t-23 31q-1 1 -6.5 6t-14 10t-20.5 8.5t-27 1.5l-12 -3q-38 -7 -76.5 -4t-73.5 18q-50 20 -85.5 47t-70.5 68q-17 19 -29.5 48t-20.5 54q-8 27 -12 56.5t-6 57.5
t2.5 55.5t10.5 54.5q7 28 19 50.5t25 48.5q5 9 10 17.5t13 15.5q9 8 19.5 14.5t18.5 16.5q16 18 36 31t42 22q49 21 102 24.5t106 -4.5q25 -4 47 -14.5t41.5 -25t38 -31.5t36.5 -34q10 -10 19 -19.5t15 -20.5q7 -12 10.5 -25.5t8.5 -25.5q13 -32 17 -63.5t4 -65.5
q0 -32 1.5 -64.5t-9.5 -63.5q-9 -26 -21 -54.5t-28 -50.5q-6 -9 -13.5 -17.5t-15.5 -16.5q-5 -5 -10 -11l-10 -12q-12 -20 -9 -41.5t16 -38.5q8 -11 19.5 -19t25.5 -9q16 -1 32 3.5t34 0.5zM426 91q5 3 7 11.5t-3 14.5q-8 9 -22.5 14.5t-37.5 3.5q-11 -1 -18 -6t-9 -12
t-0.5 -14t7.5 -11l9 -3q10 -2 26.5 -2.5t26.5 0.5q4 0 14 2v2zM564 164q30 38 45.5 90.5t15.5 103.5q3 36 -4 74t-26 70t-49 55.5t-62 39.5q-36 17 -73 18.5t-71.5 -10t-65.5 -32.5t-56 -49q-25 -27 -39.5 -60t-13.5 -71q1 -41 4 -83t18 -80q5 -11 11 -22q8 -11 30.5 -19
t52.5 3q32 11 64.5 17t61.5 1q21 -3 37 -10t34 -16q8 -4 18 -11t21 -11.5t23 -4.5t24 10v-3z" />
    <glyph glyph-name="R" unicode="R" horiz-adv-x="639" 
d="M516 67q2 -4 5.5 -8.5t6.5 -10.5t4 -12.5t-1 -15.5q-21 -27 -44 -24.5t-38 25.5q-9 13 -19.5 28.5t-21 31.5t-20.5 30.5t-17 25.5q-11 15 -21 30t-22.5 26.5t-28 18.5t-36.5 7q-6 0 -14 0.5t-13 0.5q-24 0 -39 -11t-24 -27t-12.5 -34.5t-4.5 -34.5v-19.5v-26.5t-1 -26.5
t-4 -18.5q-6 -14 -17.5 -20.5t-26.5 -4.5q-10 2 -20.5 7.5t-13.5 15.5q-2 5 -1 10.5t1 10.5q0 11 -1 21t-2 21q-2 26 -1.5 53t0.5 53q0 27 2.5 53.5t3.5 53.5q1 38 0.5 77t0.5 77t-1.5 74.5t-0.5 72.5q1 25 6 51q4 18 16.5 29t29.5 17q23 8 48.5 8t49.5 1h35.5t44.5 -1
t44.5 -2.5t35.5 -2.5q33 -4 65.5 -14.5t58.5 -30.5q32 -26 44.5 -63.5t16.5 -76.5q1 -18 0.5 -39.5t-3.5 -43t-8 -42.5t-13 -37q-14 -29 -35 -49.5t-40 -36.5t-30.5 -30t-6.5 -30q4 -12 12.5 -26.5t18 -29t19.5 -28t17 -24.5q6 -9 8.5 -13.5l7.5 -13.5v-2zM447 364
q16 25 23.5 56.5t5 62.5t-15.5 59.5t-36 48.5q-18 15 -41.5 20.5t-46.5 6.5q-9 0 -26 1t-35 1t-35 -1.5t-26 -5.5q-22 -9 -34 -26.5t-17.5 -39.5t-6 -45.5t0.5 -43.5q0 -12 0.5 -28t2 -33t5 -32.5t11.5 -25.5q14 -20 43.5 -33.5t73.5 -13.5q22 0 47 1.5t45 12.5t36 26.5
t28 33.5z" />
    <glyph glyph-name="S" unicode="S" horiz-adv-x="641" 
d="M545 272q12 -17 19.5 -37.5t7.5 -40.5q0 -56 -28 -103.5t-79 -73.5q-54 -27 -119.5 -27t-122.5 17q-49 14 -88.5 49.5t-56.5 83.5q-5 15 -9 38t-1 44t15 35.5t38 13.5q12 -1 19 -7t10.5 -15t5 -20t2.5 -20q2 -22 8 -41.5t20 -36.5q14 -18 34.5 -30.5t44 -19t47.5 -8.5
t45 0q23 2 45.5 11t39.5 24t26.5 36t6.5 48q-2 16 -11 30t-21 25t-26 20t-27 17q-68 40 -135 78q-32 18 -63.5 37.5t-53.5 49.5q-13 18 -18.5 40t-5 44.5t7 44.5t18.5 40q14 22 35 39.5t45.5 29t51 17.5t52.5 6q41 1 82 -9t74.5 -31t56 -53.5t27.5 -76.5q2 -18 -2 -38
t-24 -26q-14 -5 -23.5 -2t-17 10t-12 17.5t-7.5 21.5q-11 41 -36.5 67t-67.5 34q-21 4 -51.5 1.5t-57 -13.5t-43 -31t-11.5 -51q3 -18 12 -31.5t21.5 -24.5t27.5 -19.5t29 -16.5q34 -19 67 -37.5t68 -38.5q11 -6 20.5 -12.5t20.5 -13.5q20 -12 37.5 -29t30.5 -35z" />
    <glyph glyph-name="T" unicode="T" horiz-adv-x="706" 
d="M390 454q-5 -36 -5 -73v-75q0 -30 -2 -60t-3 -60q-1 -28 -1.5 -60t-0.5 -60q0 -20 -3.5 -39.5t-25.5 -26.5q-10 -3 -21.5 -2.5t-20.5 5.5q-14 8 -15 21.5t-1 27.5q1 67 1 139t5 138q2 32 1 63.5t-3 63.5q0 10 1.5 22.5t2.5 24.5t0.5 24t-5.5 22q-10 21 -30.5 34.5
t-42.5 18.5q-19 5 -37 4t-37 -1q-14 0 -32.5 -2t-30.5 7q-11 8 -15 21.5t-1 27t11.5 24.5t21.5 14q9 2 18.5 0.5t18.5 -0.5q9 0 17.5 1t17.5 0q17 -1 33 -2t33 -2q58 -2 116 -1l116 2q29 0 58.5 -2.5t58.5 -1.5q25 1 40 -16t9 -43q-5 -19 -19 -25t-31.5 -6t-36.5 3t-32 2
q-17 -1 -33.5 -3t-31.5 -7.5t-27 -15.5t-21 -27q-11 -21 -12 -48.5t-3 -50.5z" />
    <glyph glyph-name="U" unicode="U" horiz-adv-x="660" 
d="M71 449q-1 14 0.5 28.5t2.5 28.5q4 9 2 20.5t-2 21.5v54q0 16 1 32t4 32q3 18 17 27t30 9t29.5 -9t15.5 -27q2 -14 1 -28.5t-2 -28.5q-2 -26 -2 -51t-2 -51q-1 -12 -1 -24v-24q0 -14 -1.5 -27t-0.5 -27q1 -24 0 -49t3 -48q5 -31 13.5 -62t24.5 -58q8 -14 17.5 -28
t22.5 -25q34 -27 78 -37q39 -9 76.5 2t60.5 46q20 32 26 69.5t8 74.5q2 26 1 51.5t2 51.5q4 28 3.5 56t0.5 56q0 10 0.5 19.5t0.5 19.5q0 24 -2 47.5t-2 47.5q0 14 3.5 28t14.5 24t28.5 12t30.5 -6q12 -7 14.5 -15.5t2.5 -21.5q1 -14 2.5 -28t0.5 -28q-1 -25 0 -49.5
t0 -49.5q-1 -17 -3 -33t-4 -33q-2 -18 -0.5 -35.5t-0.5 -35.5q-3 -27 -2 -53t0 -53q0 -23 -5 -46t-12 -45q-12 -41 -36 -77q-11 -16 -27 -28t-32 -22q-20 -13 -42.5 -23t-45.5 -17t-48.5 -5.5t-48.5 7.5q-35 10 -71 29.5t-62 45.5q-8 7 -13.5 17t-11.5 18q-7 9 -11.5 18.5
t-8.5 20.5q-8 21 -15.5 42t-12.5 43q-10 39 -9 78t0 79q0 13 -1.5 25t-2.5 25z" />
    <glyph glyph-name="V" unicode="V" horiz-adv-x="677" 
d="M608 686q7 -14 4.5 -25.5t-2.5 -23.5q-13 -29 -24 -61.5t-20.5 -66l-19 -67t-18.5 -63.5q-8 -27 -18 -53t-19 -53q-14 -42 -27.5 -83.5t-27.5 -83.5q-8 -24 -16.5 -45t-29.5 -37q-16 -12 -33 -17t-37 -6q-24 -1 -44.5 5t-35.5 26q-11 14 -15 28.5t-9 30.5
q-18 60 -30.5 120.5t-33.5 119.5q-20 55 -32 117.5t-27 119.5q-3 12 -11 29.5t-13.5 35.5t-4.5 34t16 25q14 8 31 7t28 -11q12 -11 15.5 -23.5t6.5 -26.5q2 -7 4 -13l4 -12q2 -8 3.5 -15t3.5 -14q3 -12 8.5 -29t9.5 -29q7 -26 13.5 -51t12.5 -51q6 -25 14 -49t14 -49
q6 -24 16.5 -48.5t26.5 -44.5q13 -17 26.5 -20.5t26 2t23.5 17.5t20 27q17 29 27.5 60.5t21.5 63.5q10 30 20 60.5t21 60.5q6 15 12 32.5t11.5 36t10.5 36.5t8 33q3 14 7.5 30.5t18.5 23.5t34 5t29 -15z" />
    <glyph glyph-name="W" unicode="W" horiz-adv-x="986" 
d="M856 698q15 6 27.5 1.5t21 -14.5t12 -24t0.5 -26q-5 -26 -14 -52.5t-17 -52.5l-12 -44t-13 -44q-11 -32 -21.5 -65t-16.5 -67t-16.5 -67.5t-20.5 -66.5q-4 -14 -8 -27t-9 -26q-6 -17 -9 -34q-1 -2 -1 -6t-1 -8l-2 -10q-2 -11 -5.5 -22.5t-10.5 -20.5q-10 -13 -22 -15.5
t-27 -3.5t-28.5 0t-24.5 14q-8 8 -13 18.5t-7 21.5q1 1 -3.5 13.5t-10.5 28.5t-12 31t-7 20q-6 17 -12.5 36t-16 36.5t-23.5 30.5t-34 19q-24 7 -41 -3t-29 -28t-20.5 -39.5t-14.5 -37.5l-10 -28t-11 -28q-1 -3 -3.5 -11t-4.5 -17t-4 -15.5t-3 -6.5q-2 -11 -7 -20.5
t-12 -17.5q-11 -14 -23 -15.5t-28 -0.5q-15 1 -27 3t-22 16q-14 18 -17 43q-1 5 -2 9q-2 10 -2 12q-3 19 -9 37q-4 12 -7 24l-6 24q-15 60 -30.5 118.5t-32.5 117.5q-10 34 -19 68t-17 69q-3 13 -6 25.5t-7 25.5q-5 17 -11.5 34t-4.5 35q1 12 7 21.5t15 15t20 5.5t23 -7
q10 -6 16 -16t10.5 -22t7.5 -24.5t8 -23.5q1 0 2 -4.5t2.5 -10.5l3 -12t2.5 -8l18 -72q4 -14 8 -28.5t7 -28.5q1 -3 1 -6t1 -6q2 -14 8 -27t9 -27t8.5 -39t15 -46.5t25.5 -31t40 8.5q11 8 18.5 20.5t13 26.5t10 28.5t9.5 26.5q10 23 20.5 46t22.5 46l10.5 21t13 20.5
t16.5 16.5t22 8q15 1 26 -2.5t19 -11t14.5 -18t12.5 -22.5q7 -14 13 -28l12 -28q8 -20 15.5 -39t15.5 -39q5 -11 9 -22.5t11 -21.5q10 -14 23 -22.5t26 -9.5t24.5 6.5t19.5 25.5q6 14 9.5 29.5t8.5 30.5l10 34t9 34q3 13 5.5 25t6.5 25q6 21 12 41.5t12 40.5q1 2 3 9.5
t4 15.5t4.5 14t3.5 6q3 16 7.5 33.5t12.5 31.5q4 7 12 14t13 9v1z" />
    <glyph glyph-name="X" unicode="X" horiz-adv-x="641" 
d="M574 30q-1 -10 -6 -17.5t-13 -12t-17 -5.5t-18 1q-15 4 -27.5 14t-22.5 23t-18 27.5t-15 27.5q-10 17 -20.5 33t-21.5 32q-12 17 -21 34.5t-29 26.5q-22 10 -38.5 3t-29 -21.5t-23 -33t-20.5 -32.5q-17 -26 -32 -53t-35 -51q-7 -9 -17 -16t-21 -11t-22.5 -4t-22.5 7
q-9 6 -11.5 13.5t-0.5 16t6 17t9 14.5q14 21 30.5 42t30.5 43q8 11 14 23t13 24q14 23 29 46.5t26 49.5q15 36 7.5 70.5t-22.5 67.5q-14 31 -32.5 58.5t-36.5 56.5q-8 13 -13.5 26t-12.5 27q-8 14 -16.5 28.5t-15.5 29.5q-9 19 -2 31t21.5 16.5t31 1t27.5 -15.5
q8 -8 11.5 -16t8.5 -17q5 -10 11.5 -19t11.5 -19q11 -20 23.5 -37.5t23.5 -37.5q9 -15 21.5 -28t27 -19.5t30.5 -4t31 18.5q18 19 30.5 43.5t27.5 45.5q10 14 18 29.5t17 30.5q12 19 23.5 33.5t37.5 14.5q17 0 29 -7t11 -25q-1 -13 -6.5 -23.5t-11.5 -21.5
q-10 -18 -19 -36.5t-20 -36.5q-17 -29 -35 -55.5t-32 -55.5q-10 -21 -21.5 -43t-14.5 -45q-4 -29 7.5 -52t25.5 -47q18 -30 35 -61t37 -60l18 -26t19 -25q9 -11 20.5 -25t10.5 -30z" />
    <glyph glyph-name="Y" unicode="Y" horiz-adv-x="663" 
d="M585 636q-10 -17 -19 -33.5t-17 -33.5q-3 -7 -8 -13.5t-9 -13.5q-7 -12 -13.5 -24t-13.5 -23q-16 -27 -31.5 -54.5t-34.5 -53.5q-10 -13 -19.5 -25t-17.5 -28q-9 -19 -14.5 -39t-6.5 -41q-2 -34 -5.5 -67.5t-4.5 -67.5v-27t2 -27q2 -12 2 -26.5t-9 -24.5
q-11 -12 -33 -15.5t-35 6.5q-12 10 -14 25t-1 29q1 13 0.5 25.5t0.5 25.5q1 15 0.5 30.5t-2.5 30.5q-2 19 0 38t1 39q-1 17 -6.5 35t-13.5 34q-17 38 -39 76t-45 74q-14 21 -28.5 42.5t-27.5 43.5q-8 14 -15.5 29.5t-15.5 29.5q-6 11 -13 21.5t-10 21.5q-8 26 14 40
q33 22 59 -6q9 -9 15 -19.5t13 -21.5q8 -13 16.5 -25.5t15.5 -26.5q13 -25 24.5 -48t28.5 -46q11 -14 20 -28t26 -22q13 -6 27 -5.5t27 5.5q24 10 36 30.5t24 41.5q14 26 29.5 50.5t30.5 49.5q5 9 11.5 17.5t12.5 17.5q8 11 17.5 21t22.5 15t28.5 1.5t23.5 -17.5
q6 -11 2 -23.5t-10 -22.5z" />
    <glyph glyph-name="Z" unicode="Z" horiz-adv-x="662" 
d="M579 67q19 -5 24.5 -20t-3.5 -36q-6 -9 -16.5 -12.5t-22.5 -4.5t-23.5 0t-20.5 2q-19 2 -37.5 0t-37.5 -1q-27 1 -54 2.5t-54 2.5q-10 0 -19 -0.5t-18 -0.5q-12 0 -23.5 2t-23.5 2q-11 0 -23 -1.5t-23 -1.5h-50t-50 2q-19 2 -31.5 14.5t-7.5 32.5q4 20 17 33t25 27
q9 11 19.5 21.5t18.5 23.5q5 8 11.5 17.5t11.5 18.5q2 5 3.5 9t5.5 9q5 5 9.5 8.5t9.5 9.5q13 20 25.5 39.5t26.5 38.5q28 39 54 78q6 9 11.5 16.5t10.5 18.5q5 10 13 19t14 19q8 14 19 33t18 38.5t5.5 38.5t-17.5 33q-17 14 -38 18t-42 5q-18 1 -36.5 1.5t-37.5 1.5
q-8 0 -24.5 -1t-35 -1t-37 1.5t-32 7.5t-19 17t1.5 29q3 9 10.5 14.5t17 7.5t19.5 2.5t19 0.5q11 0 20.5 -1t20.5 0q7 1 14 0.5t14 -0.5q4 0 6.5 1t5.5 1q26 0 53 -3t53 -4q11 0 22 0.5t22 -0.5q27 -2 53.5 0t53.5 1q22 -1 45 -1t40 -16q17 -15 16 -35t-12 -37
q-15 -21 -32 -47t-31 -47q-22 -30 -46 -59t-44 -60q-17 -26 -33 -52t-33 -52q-14 -22 -30.5 -42.5t-30.5 -41.5q-19 -32 -10 -66q7 -22 20.5 -34.5t31 -18.5t37.5 -8.5t39 -4.5q23 -4 46 -5t46 0q19 1 40 1.5t40 -4.5z" />
    <glyph glyph-name="bracketleft" unicode="[" horiz-adv-x="321" 
d="M235 693q0 -12 -7.5 -21t-17.5 -9q-4 0 -5 0.5t-5 0.5q-9 0 -16 -9t-7 -22q0 -7 0.5 -11t0.5 -7.5t0.5 -8t0.5 -11.5v-116q0 -15 -2 -20t-2 -19q1 -6 1.5 -19.5t1 -28.5t1 -28t0.5 -19q0 -7 -0.5 -11t-1.5 -7.5t-1.5 -8t-0.5 -11.5v-78q0 -15 1 -20t1 -18v-110v-11
t0.5 -7.5t0.5 -8v-11.5v-19t1.5 -26t6.5 -23t14 -10q4 0 5 1t5 1q10 0 16 -9t6 -22v-7q0 -11 -6 -19t-16 -8h-35h-7.5t-2 -0.5t-2 -0.5h-7.5q-20 0 -38 18t-18 53v29q0 14 0.5 19t0.5 20v40v31.5t0.5 39.5t0.5 36v20q0 30 -1.5 61.5t-1.5 57.5q0 6 0.5 22t1 36t1 41t0.5 37
q0 8 -0.5 12.5t-0.5 8t-0.5 8t-0.5 11.5q0 20 1 40t1 40q0 18 -1.5 33t-1.5 34q0 8 1 21.5t5 26.5t12.5 22.5t23.5 9.5q10 0 13.5 -0.5t15.5 -0.5h18h14t15.5 -3t12.5 -10.5t5 -21.5z" />
    <glyph glyph-name="backslash" unicode="\" horiz-adv-x="535" 
d="M77 723q13 11 29 11q23 0 34 -19.5t19 -44.5q2 -3 6.5 -14.5t10 -25t10 -25t6.5 -13.5l65 -169q1 -1 6 -11.5t10 -23.5t9 -25t5 -16q5 -5 6.5 -14.5t6.5 -17.5q3 -1 9.5 -17.5t14 -36t14.5 -36.5t9 -19q8 -27 18 -53q8 -23 18.5 -48t21.5 -44q2 -14 7 -26.5t11 -25.5
q1 -4 5 -11.5t8 -17t7 -19.5t3 -20q0 -18 -10 -30t-27 -12q-7 0 -14.5 3t-14.5 6q-4 2 -10 14t-12 26t-10.5 28t-5.5 20t-5 14.5t-8.5 17t-8.5 17t-5 15.5l-17 41q-4 9 -8.5 21.5t-9.5 26.5q-3 4 -9 20t-13 34t-13.5 34t-9.5 20q-5 14 -9 27t-11 26l-4 8q-3 9 -13 35
t-22.5 57.5t-25 64.5t-21.5 57q-5 7 -6 9t-4 9.5t-10 27t-25 63.5l-5 15q-7 8 -10.5 23t-3.5 20q0 4 4.5 14t7.5 10z" />
    <glyph glyph-name="bracketright" unicode="]" horiz-adv-x="318" 
d="M89 -63q0 12 8 22t16 10q5 0 6 -0.5t5 -0.5q9 0 16.5 7.5t7.5 21.5t-1.5 19t-1.5 19v78v39q0 7 0.5 11t1.5 8t1.5 8.5t0.5 12.5q0 6 -1 19t-1.5 27.5t-1 27.5t-0.5 19q0 14 2 19t2 19v79q0 14 -0.5 19t-0.5 19v110q0 14 -0.5 19t-0.5 19q0 15 -1 20t-1 20q0 11 -6 25
t-15 14q-4 0 -5 -1t-6 -1q-8 0 -14.5 8.5t-6.5 22.5v7q0 11 6.5 18.5t14.5 7.5h18h18h7.5t2 0.5t2 0.5h6.5q20 0 39 -17.5t18 -52.5v-30q0 -15 -0.5 -20t-0.5 -19v-39v-32t-0.5 -40t-0.5 -36v-20q0 -20 0.5 -40.5t0.5 -38.5q0 -8 0.5 -12.5t0.5 -8.5t0.5 -8t0.5 -11
q0 -15 -1 -20t-1 -20v-21t-0.5 -29t-0.5 -28.5v-17.5q0 -8 0.5 -12t0.5 -8t0.5 -8.5t0.5 -12.5q0 -18 -1 -39t-1 -39q0 -20 1.5 -34.5t1.5 -34.5q0 -7 -0.5 -11.5t-0.5 -8t-0.5 -8t-0.5 -12.5q0 -6 -4.5 -13t-10.5 -13t-13 -10t-11 -4q-11 0 -14.5 0.5t-14.5 0.5h-19
q-11 0 -11.5 0.5t-11.5 0.5q-8 0 -14.5 8t-6.5 19q-1 2 -2 3t-1 4z" />
    <glyph glyph-name="asciicircum" unicode="^" horiz-adv-x="494" 
d="M199 872q14 18 40 23q15 3 20 2t19 -1q11 0 22.5 -9.5t17.5 -18.5q8 -12 10.5 -14.5t10.5 -13.5q7 -12 11 -14t12 -14q4 -6 5.5 -8t2.5 -3.5t2.5 -4t5.5 -8.5q6 -9 3 -21.5t-14 -12.5h-17q-11 0 -21 6.5t-16 15.5q-7 9 -9 12.5t-8 12.5q-3 4 -11 11t-18 10t-22 -0.5
t-24 -19.5q-6 -9 -7.5 -12.5t-8.5 -13.5q-6 -9 -15 -17t-23 -5q-9 1 -8 1t-8 2t-11.5 13t3.5 21q4 6 5.5 7t2.5 2l2 2t5 7l6 9t3 6t2.5 6t5.5 9q8 12 12 16t12 17z" />
    <glyph glyph-name="underscore" unicode="_" horiz-adv-x="708" 
d="M398 -18q33 0 62 0.5t43 0.5q11 0 17.5 0.5t12.5 1.5t12.5 1.5t18.5 0.5q17 0 35.5 -6t18.5 -16q0 -11 -5 -18t-5 -15q0 -11 -13.5 -17.5t-30.5 -6.5h-61q-33 0 -62 -1.5t-43 -1.5h-76.5h-19.5l12 0.5t18 0.5t-1 0h-45h-17.5t-12.5 -0.5t-12.5 -0.5h-18.5h-46
q-12 0 -18.5 0.5t-12.5 1t-12.5 1t-17.5 0.5q-18 0 -28 6.5t-10 17.5q0 8 -1 11t-1 14q0 12 11 19t29 7q11 0 17 1t11 2.5t11 2.5t18 1q15 0 19 -1t6 -2.5t6 -2.5t19 -1h61z" />
    <glyph glyph-name="grave" unicode="`" horiz-adv-x="405" 
d="M274 796q6 -9 0 -17.5t-17 -8.5q-5 0 -3 -0.5t-3 -0.5q-11 0 -22.5 7.5t-19.5 15.5l-5.5 5.5l-2 2t-2 1.5t-5.5 6q-9 10 -14 12.5t-13 12.5l-5 5l-1.5 1.5t-1.5 1t-5 5.5q-9 9 -13.5 12t-12.5 13q-8 8 -4.5 18.5t14.5 10.5t14 1t12 1h14q11 0 22 -6.5t17 -15.5q4 -6 7 -9
t5.5 -6l5 -6t6.5 -9l19 -31q4 -6 5.5 -8t2 -3l1.5 -3t5 -8z" />
    <glyph glyph-name="a" unicode="a" horiz-adv-x="560" 
d="M397 507q31 -12 50.5 -34t30 -49.5t13.5 -58.5t3 -61q-1 -38 -2.5 -76.5t-1.5 -76.5q0 -15 2 -33.5t2 -37.5t-4 -36.5t-16 -28.5q-18 -17 -40.5 -12t-33.5 25q-8 14 -15.5 18t-22.5 -4q-13 -8 -26 -14t-27 -11q-27 -9 -57 -11t-59.5 3.5t-56 19t-46.5 35.5
q-18 20 -27.5 45.5t-9.5 52t10 51.5t30 44q21 19 47 30.5t54.5 17t57.5 7t56 2.5q12 0 28 -1t30 1t24 9.5t10 24.5q-1 29 -14 52.5t-41 34.5q-25 11 -52.5 10t-53.5 -7q-13 -3 -26 -6.5t-24 -10.5q-11 -6 -20.5 -14t-20.5 -14q-11 -7 -23 -9.5t-24 5.5q-11 6 -17 17.5
t-4 23.5t10 20.5t19 15t23 11t21 9.5q55 29 118 37t122 -15zM402 176q2 24 -5 42.5t-35 21.5q-26 3 -54 2.5t-54 -2.5q-21 -2 -43 -7.5t-39.5 -16.5t-27 -29t-5.5 -45q3 -23 17 -38t33.5 -23.5t41 -11t41.5 -0.5q23 2 45.5 10t40.5 21t30 32t15 44h-1z" />
    <glyph glyph-name="b" unicode="b" horiz-adv-x="658" 
d="M570 353q8 -25 15.5 -48t7.5 -46q0 -5 -0.5 -11t-1.5 -11q-12 -64 -36.5 -109t-60 -73.5t-80.5 -41.5t-98 -13q-18 0 -36 2.5t-34 9.5q-15 6 -32 18.5t-34 12.5q-7 0 -13 -4t-13 -9.5t-15.5 -9.5t-21.5 -4q-20 0 -33.5 9.5t-13.5 29.5q0 14 2.5 27.5t2.5 27.5v30v40
q0 17 -1 35t-1 35q0 27 1.5 54.5t1.5 54.5q0 13 -0.5 25.5t-0.5 24.5q0 14 0.5 26.5t0.5 26.5q0 20 -2 41t-2 41q0 14 2.5 29.5t2.5 30.5q0 12 -0.5 24.5t-0.5 24.5q0 10 1.5 19.5t6 17t12.5 12.5t22 5q24 0 38.5 -14.5t14.5 -42.5q0 -31 -2.5 -61.5t-2.5 -60.5
q0 -15 11 -26t27 -11q14 0 27.5 6.5t27.5 10.5q36 9 76 9t77.5 -11.5t69 -32.5t54.5 -51.5t34 -68.5zM479 157q13 20 19 44.5t6 50.5q0 40 -13.5 74.5t-36.5 60.5t-52.5 41t-62.5 15q-10 0 -15.5 -1.5t-14.5 -1.5q-44 0 -72 -18t-44 -46.5t-22 -64t-6 -70.5t11.5 -65
t31.5 -52.5t48.5 -35t61.5 -12.5q23 0 46 6t44 16.5t39.5 25.5t31.5 33z" />
    <glyph glyph-name="c" unicode="c" horiz-adv-x="582" 
d="M476 474q11 -8 23 -21t12 -28q0 -9 -11 -23.5t-34 -14.5q-14 0 -24.5 10.5t-20.5 17.5q-14 10 -33.5 16t-31.5 6q-10 0 -21 -2t-24 -2q-38 0 -67 -16t-49 -41.5t-30.5 -58.5t-10.5 -66q0 -34 12 -65t33.5 -54.5t50.5 -37.5t62 -14q17 0 35.5 6t36.5 13.5t33.5 13.5
t27.5 6t19.5 -4.5t12 -11t6.5 -14t2 -12.5q0 -20 -17 -35t-42 -25t-53.5 -14.5t-50.5 -4.5q-33 0 -64 7t-59 25q-38 25 -63 51t-40 54.5t-21.5 58.5t-6.5 62q0 35 6.5 63t19 52t30 46t39.5 44q15 15 37 25t46.5 16t48.5 9t44 3q38 0 72 -9.5t65 -30.5z" />
    <glyph glyph-name="d" unicode="d" horiz-adv-x="661" 
d="M572 694q9 -6 13 -17t4.5 -23t-0.5 -24t-1 -22q-2 -33 -1.5 -66t-0.5 -66q-2 -63 -1.5 -124.5t-1.5 -124.5q-1 -26 -2.5 -51t-2.5 -51q0 -10 -0.5 -19.5t0.5 -19.5q1 -12 3.5 -24.5t0.5 -25.5q-3 -13 -11.5 -20t-19.5 -9t-23 -0.5t-21 6.5q-10 5 -16 14t-17 12
q-7 2 -12.5 0.5t-10.5 -5.5t-9.5 -8t-10.5 -6q-66 -26 -136 -17.5t-127 51.5q-11 8 -23 16.5t-18 17.5q-8 12 -16.5 24t-16.5 25q-18 28 -21 62.5t-4 66.5q-1 27 6 54t19 52.5t29.5 47.5t37.5 39t47 28t52 18q55 15 113 4q11 -2 23 -7t24 -9t23.5 -5t23.5 4q14 6 19.5 16
t7 22t0.5 24.5t-1 24.5q0 17 1.5 34t0.5 34q0 11 2.5 20.5t11.5 17.5q13 11 32 12.5t31 -3.5zM483 163q12 25 10 53t-3 54q-1 28 -5.5 52.5t-21.5 48.5q-19 26 -42.5 42.5t-55.5 22.5q-9 2 -18.5 4.5t-18.5 3.5q-8 0 -23 -2.5t-24 -4.5q-5 -1 -9 -2t-9 -3q-46 -18 -74 -59
t-34 -89q-4 -29 -2.5 -58t15.5 -55q14 -27 39 -46.5t54 -31.5q33 -14 68.5 -11.5t67.5 16.5q26 11 52 32q11 9 19.5 15.5t14.5 17.5z" />
    <glyph glyph-name="e" unicode="e" horiz-adv-x="635" 
d="M556 372q5 -14 8 -27.5t1 -28.5q-3 -20 -12.5 -35t-23.5 -25.5t-31.5 -16.5t-36.5 -7q-37 -3 -74.5 -2t-74.5 0q-19 0 -37.5 -1t-37.5 -2q-14 -1 -26 -2t-22 -12q-11 -11 -12 -22.5t4.5 -23t14 -21.5t17.5 -17q23 -20 51 -32.5t59 -13.5q29 -1 54.5 9t49.5 24
q9 5 18.5 12t20 12t21 7t21.5 -3q23 -11 28.5 -33t-15.5 -39q-18 -14 -39 -25.5t-42 -20.5q-60 -26 -125.5 -20t-120 37t-90 84t-36.5 122v41t5 41q5 18 14 34l18 32q17 29 40 55t54 40q34 16 70.5 24t73.5 6.5t72.5 -13t67.5 -33.5q27 -19 44 -47t29 -57zM454 319
q10 5 13.5 13t2.5 17t-5 17.5t-8 16.5q-14 23 -32.5 37t-40 20.5t-45.5 6.5t-49 -5q-15 -3 -37 -12.5t-40 -24t-27 -32.5t2 -38q10 -18 28 -21t36 -2q27 1 53.5 2.5t53.5 1.5h28.5t28.5 -1q9 0 18.5 -1t17.5 4z" />
    <glyph glyph-name="f" unicode="f" horiz-adv-x="471" 
d="M358 711q25 -7 37.5 -20.5t5.5 -39.5q-5 -17 -21.5 -24t-35.5 1q-23 9 -46.5 12.5t-46.5 -13.5q-17 -13 -21.5 -36.5t-4.5 -43.5q1 -8 6 -17.5t8 -14.5q12 -15 32 -18t44.5 -0.5t43.5 -5.5q9 -4 13.5 -12t5.5 -17.5t-1 -19.5t-6 -17q-6 -11 -14.5 -14t-18.5 -3t-20.5 1.5
t-20.5 -0.5q-11 -2 -22 0t-22 -3q-23 -11 -28 -37q-3 -16 -2 -33t0 -33q-1 -17 -1 -34.5v-34.5t-1 -37t-2 -41t-1.5 -41.5t1.5 -36.5q1 -11 2 -22.5t-0.5 -21.5t-8 -18t-19.5 -12q-19 -5 -35 1t-24 25q-9 23 -6.5 46t4.5 46q1 15 1 30v30q0 25 1 60.5t1 60.5q0 12 1 25.5
t0.5 27t-4.5 25.5t-14 21q-6 6 -13 8.5t-13.5 5.5t-12.5 7.5t-9 13.5q-5 13 -2 29t14 24q6 4 13 6.5t13.5 5.5t11.5 7.5t8 13.5q5 18 4 36q-1 12 2.5 24t7.5 23q7 21 16 39.5t26 33.5q35 32 82 37.5t92 -5.5z" />
    <glyph glyph-name="g" unicode="g" horiz-adv-x="645" 
d="M573 399q-1 -20 -1 -40.5v-40.5q-1 -81 -0.5 -163t-9.5 -163q-4 -30 -10 -60.5t-20 -57.5q-14 -29 -40.5 -49.5t-55.5 -33.5q-68 -30 -146 -25t-143 40q-15 8 -26.5 18.5t-10.5 29.5q1 15 9 24t21 13q8 2 15.5 0.5t14.5 -5t13.5 -8t13.5 -8.5q30 -16 65 -24
q38 -8 79.5 -3t72.5 31t46 63q6 15 12 35t3 37q-5 21 -19 19t-28 -8q-17 -8 -35.5 -14t-36.5 -10q-38 -8 -76.5 -3t-73.5 25q-29 17 -56 39.5t-43 51.5q-5 8 -10 14.5t-10 14.5t-8 18.5t-5 20.5q-4 19 -4.5 38t-1.5 38q-1 26 2 49.5t15 47.5q8 17 19 33t22 31q5 7 10 12
t11 10t11 12t12 12q15 12 34.5 18t36.5 13q38 14 80.5 14t80.5 -15q6 -3 15 -8l18 -10t18 -8t16 -1q6 2 10 7t7 11t6.5 12t9.5 10q9 6 20.5 7.5t22 -1t18 -10t10.5 -19.5q5 -19 3 -39t-3 -40v-2zM479 189q5 14 3.5 26.5t-1.5 26.5v51q0 29 -14 51.5t-35 42.5
q-11 11 -23.5 19.5t-26.5 13.5q-12 5 -28.5 9.5t-29.5 3.5q-6 -1 -11.5 -3t-11.5 -3q-7 -1 -13 -1.5t-13 -2.5q-21 -6 -39 -18q-39 -26 -60.5 -70.5t-21.5 -91.5q-3 -34 10 -65.5t36.5 -55.5t54.5 -39t64 -15q25 0 52 8.5t49.5 25t38.5 38.5t20 49z" />
    <glyph glyph-name="h" unicode="h" horiz-adv-x="594" 
d="M71 262v1v-2v1zM525 206q2 -31 -1 -63t-2 -64v-21.5t-2.5 -22t-8.5 -19t-17 -12.5q-15 -5 -32.5 -0.5t-25.5 18.5q-7 12 -8.5 27t-0.5 31.5t3 32t2 28.5l3 129q1 29 0 55t-19 50q-15 20 -39.5 32.5t-49.5 12.5q-28 0 -55 -7t-49 -21.5t-37.5 -36.5t-20.5 -52
q-4 -23 -1.5 -45.5t1.5 -45.5t-3 -46.5t-3 -46.5q-1 -21 4 -43.5t-1 -43.5q-6 -20 -24 -26.5t-36 -2.5q-19 4 -25.5 19t-6.5 34t2.5 38.5t1.5 33.5q-1 38 0 77v125q1 21 -1 41.5t-2 41.5q0 78 3 158q1 18 0.5 36t-0.5 36q0 11 3 21t12 18q13 11 32.5 13t33.5 -9
q9 -8 11.5 -20.5t2 -26.5t-3 -28.5t-2.5 -24.5q0 -17 0.5 -35t1.5 -35q0 -24 20 -35q13 -6 26 -5q5 1 7 3t4 3q14 6 28.5 9t28.5 5q64 8 122 -13q23 -8 43.5 -21.5t35.5 -33.5q8 -11 15 -23l14 -24t8.5 -24.5t5.5 -26.5q2 -14 1 -29.5t-1 -29.5q0 -17 0.5 -32.5t1.5 -32.5z
" />
    <glyph glyph-name="i" unicode="i" horiz-adv-x="239" 
d="M165 601q-7 -14 -21 -20.5t-28.5 -6.5t-27 7t-15.5 20q-2 5 -3.5 10.5t-1.5 10.5q0 6 1.5 12t3.5 11q5 14 18 20.5t28 6t28 -7.5t17 -20q3 -8 3 -17l1 -2q1 -7 0.5 -12.5t-4.5 -13.5zM171 473q5 -21 3.5 -42.5t-1.5 -42.5q0 -20 1 -40.5t-1 -40.5q-2 -30 -3.5 -60
t-3.5 -60q-2 -23 -2.5 -46.5t0.5 -46.5q0 -13 1 -27t-1 -26.5t-10 -22t-25 -12.5q-12 -2 -25.5 0.5t-21.5 11.5q-7 7 -7.5 15t-0.5 17q1 23 2 45t1 45q0 62 0.5 122.5t2.5 122.5q0 12 -2 27.5t-2 30.5t5 27.5t20 19.5q8 4 18.5 5t20.5 -1t18.5 -7t12.5 -14z" />
    <glyph glyph-name="j" unicode="j" horiz-adv-x="244" 
d="M105 570q-14 7 -20.5 21t-6.5 28.5t7 27t20 15.5q5 2 10.5 3.5t10.5 1.5q6 0 12 -1.5t11 -3.5q14 -5 20.5 -18t6 -28t-7.5 -28t-20 -17q-5 -2 -9.5 -2.5t-9.5 -1.5q-7 -1 -12.5 -0.5t-13.5 4.5zM99 485q13 13 36 11.5t33 -17.5q10 -17 9 -41.5t-1 -43.5q0 -21 -1 -42
t-1 -42q-1 -42 0.5 -84t-0.5 -84q-1 -12 0.5 -24t1.5 -24q1 -14 -0.5 -28.5t-2.5 -28.5q-1 -26 1 -51.5t-3 -51.5q-8 -48 -36.5 -81.5t-76.5 -44.5q-13 -3 -43.5 -3t-59 6t-45.5 20.5t-4 40.5q4 9 12 14.5t15 6.5q13 2 24.5 -4.5t23.5 -10.5q22 -7 46 -2.5t38 24.5
q8 12 13 22.5t4 24.5v12t-1 12q0 37 3 75q2 17 2 34v34q-3 132 0 264q0 12 -1.5 26.5t-1.5 29t3 28t12 23.5h1z" />
    <glyph glyph-name="k" unicode="k" horiz-adv-x="555" 
d="M486 62q7 -16 1.5 -30.5t-17.5 -23.5t-28 -10t-29 11q-10 9 -17.5 21.5t-15.5 23.5t-15.5 23t-15.5 24q-14 23 -29.5 44.5t-32.5 43.5q-10 13 -22.5 21t-29.5 3q-8 -3 -11 -7.5l-7 -10.5q-5 -7 -11.5 -12t-13.5 -10q-16 -12 -24 -26.5t-7 -35.5q1 -18 4 -36.5t0 -36.5
q-6 -30 -40 -35q-11 -2 -25 -0.5t-21 11.5q-5 7 -7 16.5t-2 19.5t1.5 19.5t1.5 17.5q1 20 0.5 39t-0.5 39q1 40 0 80t4 80q2 25 1.5 48t-1.5 48q-1 20 -2 40.5t1 40.5q2 19 1 38.5t-2.5 39.5t-2 39.5t3.5 38.5q3 12 10.5 20t18 12t22.5 3.5t22 -7.5q13 -9 15 -25t3 -30
q1 -21 -0.5 -42t-1.5 -42q0 -45 -3 -90q-1 -20 -3 -42t3 -42q3 -14 14 -23.5t25 -10.5q17 -1 28.5 9t22.5 21q17 17 34 34.5t34 34.5q14 13 27 25.5t24 26.5t24.5 26.5t33.5 8.5q14 -2 26 -12t17 -23q6 -17 -5 -30t-23 -24q-11 -10 -21.5 -20t-20.5 -21q-15 -16 -31 -32.5
t-30 -31.5q-16 -17 -11.5 -34t15.5 -34q11 -18 22.5 -35.5t22.5 -34.5q13 -19 25 -38.5t26 -37.5q11 -14 23.5 -27t21.5 -28z" />
    <glyph glyph-name="l" unicode="l" horiz-adv-x="244" 
d="M175 461q1 -16 0 -32t-2 -33q-2 -21 -3.5 -42t-2.5 -42q0 -18 -2 -35.5t0 -35.5q2 -15 0 -29t-1 -29q1 -23 1.5 -45t0.5 -45v-38.5t-11 -35.5q-8 -11 -21.5 -13t-26.5 -1q-20 1 -28 15t-9.5 32.5t1 38t2.5 32.5q2 50 0 99.5t-1 99.5q1 44 4.5 87t3.5 87q0 41 -1.5 82
t4.5 81q2 12 9.5 21t18.5 13.5t23 3t23 -8.5q13 -9 15.5 -25t3.5 -30q1 -21 0 -42t-1 -42q0 -22 -1 -44t1 -44z" />
    <glyph glyph-name="m" unicode="m" horiz-adv-x="939" 
d="M865 82q-4 -13 -3 -25.5t-3 -24.5q-6 -21 -26.5 -26t-38.5 4q-11 6 -16.5 15t-8 19.5t-2 21.5t1.5 22q2 29 2 58.5t2 58.5q1 25 3.5 52t0.5 52.5t-12 48.5t-33 40q-37 27 -79 24t-76 -32q-16 -14 -29.5 -29.5t-22.5 -34.5q-11 -22 -12 -45.5t1 -46.5q2 -47 2 -92.5
t-1 -92.5q0 -20 -10 -33t-31 -14q-17 -1 -32 7t-19 25q-3 13 -0.5 26.5t2.5 26.5v28.5t-1 28.5q-1 30 0 59t4 59q2 26 2 53.5t-13 50.5q-21 40 -65 52q-18 5 -38.5 5.5t-40 -4t-37 -14t-30.5 -23.5q-16 -17 -24.5 -36t-12.5 -39.5t-5 -42t-1 -43.5q0 -30 -2.5 -59.5
t-3.5 -59.5q0 -9 1 -20t1.5 -22t-1.5 -21t-9 -18t-17.5 -12t-21.5 -4t-21 4t-16 14q-10 17 -6 40.5t6 41.5q2 29 -1 57t-2 57q1 28 2.5 55.5t1.5 55.5q0 27 0.5 54t0.5 54q0 22 9 38t35 15q22 -1 40 -18q8 -7 14.5 -11.5t17.5 -2.5t21.5 9t21.5 12q25 10 56 13q54 6 109 -13
q12 -4 23.5 -8.5t22.5 -10.5q10 -5 18 -12.5t18 -12.5q20 -10 38.5 -2t33.5 18q20 14 40.5 24t43.5 15q50 12 100.5 -1.5t84.5 -53.5q33 -38 44 -89q6 -29 4 -59t0 -60q2 -22 2 -43.5v-43.5q0 -15 -3 -29.5t-4 -29.5z" />
    <glyph glyph-name="n" unicode="n" horiz-adv-x="598" 
d="M530 118q-1 -14 0 -32t-1.5 -35.5t-10.5 -31t-26 -17.5q-11 -2 -23.5 0.5t-20.5 10.5q-10 10 -11 26t-1 29q0 37 0.5 74t2.5 74q1 18 2.5 36.5t1 37.5t-3.5 36.5t-12 34.5q-14 26 -42 43.5t-59 15.5q-25 -2 -50.5 -12t-48 -26t-39.5 -37t-24 -46q-5 -15 -3.5 -29t1.5 -29
q0 -21 0.5 -42t-0.5 -42t-1.5 -41.5t1.5 -41.5q1 -16 -0.5 -35t-14.5 -30q-9 -8 -21 -9.5t-23.5 2t-20 11.5t-11.5 20q-5 22 -1.5 45t2.5 46q0 12 -0.5 24t-1.5 24q-1 11 0.5 20.5t2.5 20.5q2 38 0.5 76.5t0.5 76.5q1 21 0 42.5t1 42.5q1 11 4.5 20t13.5 15q8 5 18.5 7
t20.5 0t18.5 -8t13.5 -15q6 -12 13.5 -20.5t24.5 -2.5q15 5 29 13.5t30 14.5q74 27 147 2q27 -10 50.5 -24.5t39.5 -39.5q17 -26 23.5 -53t6.5 -56q1 -47 2.5 -93t-0.5 -93z" />
    <glyph glyph-name="o" unicode="o" horiz-adv-x="661" 
d="M574 348q9 -26 15 -51.5t4 -51.5q-2 -21 -7.5 -42.5t-13.5 -41.5q-15 -41 -44 -76t-69 -54t-82 -26.5t-86 -1.5q-44 5 -80.5 24.5t-68.5 48.5q-13 11 -23.5 26.5t-20.5 30.5q-11 17 -16.5 37t-7.5 40q-1 10 -1 20t-2 20q-2 12 -3 22.5t1 23.5q2 22 9.5 42t17.5 39
q17 33 41.5 62t59.5 45q20 9 38.5 17.5t39.5 13.5q40 9 84 4q78 -7 134.5 -52t80.5 -119zM508 239q3 38 -5 74.5t-30 65.5q-20 26 -49 43q-4 2 -7.5 4.5t-7.5 3.5l-4.5 1.5t-10 3t-11.5 3.5t-10 4q-15 5 -25.5 2t-25.5 -4q-12 -1 -24 -1t-24 -4q-22 -7 -41 -20.5t-34 -30.5
q-35 -41 -44 -95q-2 -8 -3 -15.5t0 -15.5q0 -3 1.5 -10t1.5 -9q0 -28 11 -55q13 -30 35 -52.5t49.5 -36t59 -16.5t63.5 6q27 8 51.5 22t44.5 34t28 45.5t11 52.5z" />
    <glyph glyph-name="p" unicode="p" horiz-adv-x="659" 
d="M573 344q24 -73 7 -144q-3 -14 -8 -30t-11 -32t-14.5 -30t-19.5 -24q-22 -21 -44 -37.5t-51 -27.5q-35 -14 -71.5 -18t-73.5 0q-34 3 -63 19q-11 5 -21 7t-21 -4q-12 -6 -18 -19.5t-8 -29t-1.5 -31t1.5 -27.5t3 -26.5t1 -28t-7 -24t-21 -16.5q-23 -8 -42.5 0t-21.5 34
q-2 37 2.5 74t4.5 74q0 35 -1.5 68.5t-0.5 68.5q1 19 0 37.5t-2 37.5q-1 17 1 33t2 33t0.5 34.5t0.5 34.5q0 15 -2 29.5t0 29.5q1 10 0.5 23.5t1 27t5.5 25t14 18.5q14 10 32 8.5t29 -14.5q6 -8 7.5 -16t8.5 -14q6 -5 11.5 -4.5t11 3.5t10.5 7.5t10 7.5q24 18 53.5 26
t61 8.5t62 -6t56.5 -18.5q23 -11 41 -26t34 -34q9 -11 17.5 -21.5t15.5 -22.5q7 -14 12 -27q2 -5 4.5 -9t1.5 -7zM499 235q5 35 0 69t-25 62q-18 26 -43 41.5t-54 25.5q-13 5 -29.5 7t-29.5 -1q-5 -1 -8 -2.5t-8 -2.5q-8 -2 -14.5 -1.5t-14.5 -1.5q-55 -13 -87 -62
q-17 -25 -22 -52t-5 -56t1 -57t18 -52q38 -51 92 -70.5t115 4.5q23 9 45.5 23.5t39.5 34.5q17 19 22 43t7 48z" />
    <glyph glyph-name="q" unicode="q" horiz-adv-x="659" 
d="M588 411q0 -20 0.5 -40t0.5 -40q0 -19 1 -37.5t1 -36.5q0 -32 -3.5 -64.5t-3.5 -64.5q-1 -63 -2.5 -124.5t-2.5 -124.5q0 -28 -11 -46t-41 -17q-26 1 -34 15.5t-9 37.5q-1 30 -0.5 60t0.5 60q0 25 -18 36t-41 -3q-13 -8 -22 -13.5t-25 -8.5t-31.5 -3.5t-31.5 -0.5
q-32 0 -60 5.5t-56 20.5q-24 13 -48 32q-12 9 -18 16.5t-13 20.5q-6 11 -14 20.5t-15 20.5q-8 12 -12.5 26t-7.5 28q-6 29 -1 61q2 14 0 27t0 27q3 28 16.5 54t29.5 49q32 45 78.5 70.5t101.5 30.5q29 2 58 -2t56 -15q10 -4 21 -10.5t21.5 -10.5t21 -2.5t20.5 13.5
q8 8 12 16t16 12q20 6 42 -2q15 -6 21 -16.5t6.5 -23.5t-1.5 -27t-2 -26zM492 242q2 29 -0.5 56t-16.5 53q-14 25 -37.5 43.5t-51.5 29t-58 12t-57 -7.5q-47 -15 -78 -55t-40 -88q-11 -63 15.5 -117t86.5 -81q26 -12 55 -15t57 3t53 20.5t43 37.5q17 22 22.5 51.5t7.5 56.5z
" />
    <glyph glyph-name="r" unicode="r" horiz-adv-x="436" 
d="M364 468q9 -18 1.5 -35.5t-25.5 -23.5q-11 -4 -24 -2.5t-25 -0.5q-9 -2 -17.5 -3.5t-16.5 -4.5q-65 -25 -84 -92q-10 -35 -8 -73t-2 -74q-2 -15 -2.5 -29.5t0.5 -29.5q1 -16 1.5 -34t-2.5 -34q-3 -18 -16.5 -24.5t-29.5 -3.5t-29 14t-15 27q-3 23 2 45.5t5 45.5
q0 25 -2 50t-3 50q-2 44 0.5 87.5t0.5 88.5q-1 18 -1 38t16 32q19 14 44 11q27 -3 34 -26q2 -8 4 -15t13 -7q8 0 16.5 8t15.5 12q12 7 34 15.5t44.5 12.5t42.5 -1t28 -24z" />
    <glyph glyph-name="s" unicode="s" horiz-adv-x="506" 
d="M375 257q73 -45 62 -130q-5 -35 -25 -64t-52 -46q-36 -19 -78.5 -20.5t-81.5 6.5q-18 4 -36 10.5t-35 14.5q-10 5 -17 11t-12 12q-8 9 -16.5 23.5t-12 29.5t0 28.5t21.5 19.5q14 5 24.5 0t19 -14.5t15.5 -21t15 -18.5q12 -11 32.5 -18t44 -9.5t46.5 0.5t40.5 12.5
t25.5 26t2 41.5q-4 16 -14 27.5t-22.5 20.5t-27 15t-28.5 11q-28 10 -54.5 21.5t-51.5 27.5t-43 38t-22 52q-3 29 4 58t27 51q21 23 50.5 36.5t62.5 17.5t66 -1.5t59 -20.5q9 -5 19 -12.5t18.5 -17.5t14.5 -22.5t6 -25.5q0 -12 -10 -25.5t-24 -12.5t-23.5 14t-17.5 21
q-16 16 -42 24.5t-52 7t-47.5 -14.5t-27.5 -40q-4 -17 1 -29t14.5 -21.5t23 -16t25.5 -12.5q20 -9 37 -16.5t36 -18.5q8 -4 15 -8t15 -8q7 -4 14.5 -7t14.5 -7h1z" />
    <glyph glyph-name="t" unicode="t" horiz-adv-x="476" 
d="M405 77q8 -17 0.5 -30t-22.5 -22t-33 -14t-31 -5q-38 0 -74.5 9t-65.5 35q-26 24 -33.5 54.5t-9.5 64.5q-3 38 -4.5 77.5t2.5 77.5q1 8 2 18t1.5 20t-1.5 19.5t-7 16.5q-5 6 -11 8.5t-12.5 4t-13 3.5t-11.5 7q-10 10 -11.5 25.5t3.5 28.5q3 9 7.5 12t9.5 4t10.5 1t12.5 3
q18 7 19.5 24.5t1.5 33.5t0.5 31.5t0.5 31.5q0 9 -1.5 19t-2 20.5t1.5 20.5t9 17q8 8 20.5 9t23.5 -1q19 -4 26.5 -14.5t9 -24.5t-0.5 -29.5t-2 -29.5q0 -13 1.5 -25.5t1.5 -25.5q0 -9 -0.5 -18.5t2.5 -17.5q2 -7 7 -10.5t10.5 -5.5t9.5 -2.5t4 -1.5q12 0 31 2t37.5 0.5
t33.5 -7.5t20 -22q4 -12 1.5 -28t-13.5 -24t-26 -5.5t-28 2.5h-28.5t-27 -3.5t-20.5 -12.5t-8 -27q-2 -46 -1 -93t1 -92q-1 -5 -0.5 -11t0.5 -12q0 -11 1 -20.5t6 -18.5q8 -13 20 -20t26 -10q10 -2 20.5 -2.5t20.5 1.5q8 2 16 6.5t16 6.5q16 3 31 -6t21 -23z" />
    <glyph glyph-name="u" unicode="u" horiz-adv-x="601" 
d="M532 326q1 -17 -1 -32.5t-2 -29.5q0 -16 -0.5 -31.5t-1.5 -31.5q-1 -30 -4.5 -61t-1.5 -61l2 -22t-0.5 -21.5t-7 -19t-18.5 -12.5q-20 -6 -41 2q-11 4 -14.5 9.5t-10.5 13.5q-9 10 -18 9t-18.5 -7t-18.5 -13t-17 -10q-49 -15 -103 -10.5t-99 30.5q-17 10 -29.5 23
t-22.5 29q-7 11 -13 22t-11 22q-2 6 -3.5 12t-3.5 12q-5 27 -4 56.5t0 58.5q-1 24 -3 47.5t0 47.5q2 23 2 46.5t4 46.5q2 16 9 26.5t24 14.5q11 2 23.5 0t21.5 -10q12 -11 12.5 -27t-1.5 -30q-2 -24 -1 -47t2 -47q1 -20 -0.5 -40.5t-3.5 -40.5q-2 -19 -2.5 -38.5t1.5 -38
t9 -35.5t22 -31q14 -13 33 -22t37 -10q8 0 14.5 -0.5t14.5 -1.5q9 -1 16.5 2t15.5 6q20 7 37.5 14t32.5 22q12 12 20.5 27t13.5 32q11 38 9 78t-1 78q1 23 4.5 45t2.5 45q-1 15 -2 31.5t13 27.5q9 7 21 8.5t23.5 -1.5t21 -10.5t12.5 -18.5q5 -17 1.5 -35t-3.5 -35
q0 -16 2.5 -31.5t3.5 -31.5z" />
    <glyph glyph-name="v" unicode="v" horiz-adv-x="570" 
d="M487 509q9 -9 11 -19.5t0 -21t-6.5 -22t-9.5 -21.5q-14 -30 -24.5 -61t-24.5 -61q-11 -26 -20.5 -52.5t-18.5 -52.5q-11 -19 -21.5 -41.5t-19.5 -44.5q-8 -20 -12 -40.5t-13 -39.5q-10 -20 -29 -26t-39 5q-17 10 -21 26t-9 33q-6 22 -17 42.5t-20 41.5q-8 20 -16 39
t-16 39q-17 43 -32.5 86.5t-34.5 85.5q-6 14 -14 29t-11.5 29t1.5 27t24 23q11 6 23.5 7t23.5 -7q13 -10 17 -28t10 -32q8 -20 17.5 -38t17.5 -38t14 -39.5t15 -38.5q4 -10 10 -26t15 -28.5t20.5 -17.5t28.5 7q13 10 17.5 28.5t9.5 32.5q7 19 13 38t15 37q10 20 16 40.5
t17 39.5q9 15 13 32.5t14 31.5q12 17 32.5 12.5t33.5 -16.5z" />
    <glyph glyph-name="w" unicode="w" horiz-adv-x="828" 
d="M720 512q27 -9 34 -28.5t2.5 -42.5t-14 -46t-15.5 -40q-4 -11 -9.5 -20t-10.5 -19q-5 -12 -8.5 -24.5t-8.5 -24.5l-27 -69q-9 -23 -15 -47t-14 -47q-7 -23 -13.5 -49.5t-22.5 -43.5q-5 -5 -14 -8.5t-18.5 -4t-18.5 1t-15 5.5q-18 13 -24 38.5t-12 45.5q-10 34 -21 69.5
t-22 67.5q-6 15 -16.5 20.5t-22 4t-22 -10t-15.5 -20.5q-13 -34 -24 -68.5t-22 -69.5q-6 -19 -13 -40.5t-22 -35.5q-11 -10 -29.5 -10t-29.5 10q-16 14 -22.5 35t-11.5 40q-6 21 -14 41l-16 40q-5 16 -10 31.5t-10 31.5q-6 17 -14.5 33.5t-13.5 34.5q-7 23 -15 44.5
t-19 44.5q-8 17 -15.5 37t-6.5 38t13.5 28.5t29.5 14.5q29 7 46 -20q11 -19 16 -39.5t14 -40.5q8 -19 16.5 -36.5t15.5 -37.5q3 -8 5.5 -18.5t5.5 -21t8 -19.5t12 -13q13 -8 26 -3t19 18q9 19 13 41t12 42q7 20 16.5 37.5t15.5 37.5q4 14 10 32.5t15.5 32.5t23.5 18.5
t35 -9.5q19 -13 27 -31.5t13 -38.5q6 -20 15.5 -39t17.5 -39t13.5 -41t14.5 -40q6 -12 18 -17.5t25 2.5q7 4 11.5 13t8 19.5t6.5 21t6 18.5l16 42l16 42q5 14 9.5 33t12.5 35.5t20.5 26t32.5 4.5z" />
    <glyph glyph-name="x" unicode="x" horiz-adv-x="554" 
d="M463 93q5 -7 11 -15t9.5 -16.5t4 -17t-5.5 -17.5q-12 -17 -32.5 -24.5t-37.5 5.5t-28 32.5t-22 36.5q-13 18 -26 37.5t-28 35.5q-10 11 -23.5 17t-27.5 -4q-6 -5 -8.5 -11t-6.5 -12q-5 -9 -12.5 -17.5t-14.5 -16.5q-14 -16 -24.5 -33t-21.5 -34l-9 -13.5t-11.5 -13.5
t-13.5 -9.5t-16 -2.5q-14 1 -31 14t-19 28q-2 16 9 31.5t19 27.5q13 19 25.5 37.5t26.5 36.5q10 14 19.5 28.5t14.5 31.5q12 35 1 65.5t-32 56.5q-5 7 -8 15t-8 16t-10.5 14.5t-10.5 13.5q-11 14 -22.5 30.5t-11.5 35.5q0 17 13 30.5t30 16.5q15 3 26 -6t19 -20
q13 -17 22.5 -35t20.5 -36q5 -8 10.5 -14t12.5 -13q1 -2 3.5 -5t4 -6.5t2.5 -6t1 -1.5q13 -17 31 -11t28 19q17 21 30.5 44t30.5 44q6 8 12.5 17.5t14.5 17t17 11t21 -0.5q23 -8 33.5 -28t-0.5 -43q-6 -13 -15 -23.5t-17 -22.5q-7 -11 -12.5 -21.5t-11.5 -21.5
q-13 -22 -27 -41.5t-16 -46.5q-2 -24 6 -44.5t22 -40.5q18 -25 35.5 -50t34.5 -51z" />
    <glyph glyph-name="y" unicode="y" horiz-adv-x="602" 
d="M484 489q17 -5 30 -16t12 -30t-9 -37.5t-15 -35.5q-16 -38 -33 -76t-31 -77q-17 -50 -36 -98.5t-38 -98.5q-9 -23 -15 -46.5t-17 -45.5t-24.5 -45t-31.5 -40q-24 -23 -56 -31.5t-64 -5.5q-12 1 -28 4.5t-31 10t-25.5 17.5t-10.5 26q0 14 9.5 27t23.5 17q9 2 16 0.5
t13.5 -5t13.5 -7t15 -4.5q18 -2 32 4t25.5 17t20.5 25t16 28q17 35 7 71.5t-26 68.5q-9 17 -18.5 34.5t-16.5 35.5q-4 11 -6.5 21.5t-7.5 21.5q-17 32 -33 64t-33 64q-6 12 -14.5 28.5t-13.5 34t-4 34t13 28.5q9 9 23.5 14.5t27.5 2.5t20 -13t12 -21q8 -18 13.5 -38
t16.5 -37q8 -14 16 -27.5t15 -27.5q8 -18 15.5 -36t15.5 -36q5 -12 10.5 -26t18.5 -20q17 -9 28.5 -2.5t19.5 20t13 29.5t9 27q14 34 28.5 67t26.5 68q4 13 9 28t12.5 26t18.5 17t29 1z" />
    <glyph glyph-name="z" unicode="z" horiz-adv-x="552" 
d="M434 81q8 1 17 -0.5t16 -9.5q14 -16 9 -37t-23 -30q-14 -8 -32 -7.5t-34 0.5q-17 0 -32.5 0.5t-32.5 1.5q-27 2 -54.5 -0.5t-55.5 -1.5q-19 1 -37 0.5t-37 -1.5q-14 -1 -32 -0.5t-29 11.5q-8 7 -10 17t-0.5 20t5 20t8.5 18q13 25 37.5 48.5t41.5 46.5q19 25 38.5 48.5
t39.5 48.5q11 14 27 30.5t27 30.5q7 9 12.5 19t10.5 20q6 11 9 21.5t-5 20.5q-9 10 -19 10.5t-21 0.5q-14 0 -28 1.5t-28 1.5q-17 0 -44.5 -2.5t-44.5 -1.5q-14 1 -27 5t-19 18q-9 19 -2 41q4 12 13 17t20.5 6.5t24 1t21.5 -0.5q36 1 72 0t72 0q29 1 56 2t56 0q23 0 40.5 -6
t19.5 -32q1 -8 -3 -17t-8 -17q-8 -9 -16 -19q-7 -8 -14 -17t-12 -16q-12 -16 -24 -31.5t-23 -32.5q-21 -32 -40.5 -62.5t-46.5 -57.5q-8 -8 -19 -22t-19.5 -30.5t-12.5 -32t4 -25.5q8 -11 19.5 -12.5t22.5 0.5q18 2 37 2t37 -1t36 -2.5t36 -3.5z" />
    <glyph glyph-name="braceleft" unicode="{" horiz-adv-x="294" 
d="M187 7q-3 1 -9 1q-26 0 -42 9.5t-24.5 27t-11.5 41.5t-3 54q0 2 0.5 2.5t0.5 1.5v22v18t-1 17v6q1 11 1 22.5v25.5v6q-2 6 -2 15t-1 17q-5 17 -18 26t-14 14l-4 5q-4 9 -4 16q0 11 6.5 23t20.5 21q4 4 7 12.5t5 16.5t2.5 13.5l0.5 5.5q0 2 -0.5 4.5t-0.5 4.5q0 3 2 9v101
q0 2 -0.5 4.5t-0.5 4.5q0 13 3 24v10q0 14 4.5 34.5t15.5 37.5l15 11l15 5q7 2 16.5 3.5t21.5 1.5q24 0 35.5 -6.5t11.5 -35.5q0 -12 -9 -15.5t-20.5 -6t-20.5 -6.5t-9 -18v-10q0 -8 -2 -17t-2 -18q0 -2 0.5 -4t0.5 -4v-11q-1 -8 -1 -15.5v-15.5v-3q1 -8 1 -16v-16
q0 -17 -1 -34t-1 -35q0 -7 -4.5 -15t-9.5 -16.5t-9.5 -17t-4.5 -16.5q0 -10 10 -21t10 -26l4 -10l2 -15q0 -6 1.5 -11.5t1.5 -14.5v-10q1 -4 1 -14v-26q-1 -2 -1 -7q0 -4 1 -6v-13q-1 -3 -1 -8q0 -8 0.5 -16t0.5 -15v-20q0 -23 11 -30t24.5 -9.5t24.5 -6t11 -19.5
q0 -29 -7.5 -37.5t-25.5 -8.5q-6 0 -12.5 1t-11.5 1z" />
    <glyph glyph-name="bar" unicode="|" horiz-adv-x="265" 
d="M99 143v97v74v60v25q5 9 5 11t-5 12v86v34q-2 18 -2.5 33t0 29t1.5 28t1 31v50q-5 28 -1.5 40.5t12.5 21.5q1 2 1.5 3.5t3.5 3t10 2.5t22 3l8 -12q5 -9 8.5 -20.5t3.5 -28.5q-4 -19 -2 -43.5t2 -41.5q0 -18 -1.5 -30t-4.5 -33q5 -10 5.5 -24.5t0.5 -24.5v-45
q0 -18 -0.5 -29.5t-5.5 -32.5q0 -27 1 -48t5 -50q0 -16 -0.5 -33.5t-5.5 -37.5q0 -10 1 -26t5 -34v-86q-4 -11 -4 -22.5t4 -28.5v-95q-4 -19 -6 -29.5t-13 -20.5q-2 0 -7.5 1t-15.5 4q-10 2 -14.5 5.5t-6 7.5t-2.5 9t-3 10q-5 27 -2.5 56.5t2.5 64.5v74z" />
    <glyph glyph-name="braceright" unicode="}" horiz-adv-x="306" 
d="M111 698q2 -2 8 -2q45 0 64 -30t19 -102q0 -3 -1 -4v-23v-17.5t2 -15.5v-6q-2 -12 -2 -24v-25v-6q2 -7 2.5 -16t1.5 -16q2 -9 6.5 -15.5t10 -11.5t10 -8.5t5.5 -6.5l3 -3q4 -9 4 -18q0 -8 -3.5 -17t-7.5 -13l-17 -13q-4 -4 -6.5 -12t-4 -16.5t-2.5 -14.5t-1 -5
q0 -2 0.5 -4.5t0.5 -4.5t-0.5 -4t-1.5 -5v-102q0 -3 0.5 -5.5t0.5 -5.5q0 -5 -0.5 -10.5t-1.5 -10.5v-11v-9t-1 -9q0 -9 -3 -21.5t-12 -24t-26.5 -20t-46.5 -8.5q-27 0 -38.5 6.5t-11.5 35.5q0 12 9.5 15.5t21 5.5t21 6.5t9.5 17.5v11q0 14 1 21t1 21v13q1 8 1 14.5v13.5v5
q-1 8 -1.5 15.5t-0.5 15.5q0 17 2 33.5t2 37.5q0 7 4.5 15.5t10 17t10 16.5t4.5 15q0 5 -3.5 10t-7 11t-7 12.5t-3.5 14.5l-7 23q0 5 -2 10t-2 13q0 1 0.5 2t0.5 3v10q-1 3 -1 12v29q0 1 0.5 2t0.5 3t-0.5 3.5t-0.5 3.5v13q0 2 0.5 3.5t0.5 3.5q0 4 -1 8t-1 8t0.5 8t0.5 9
v18q0 14 -6.5 27t-16.5 13q-2 0 -3.5 -0.5t-5.5 -0.5q-15 0 -26.5 7t-11.5 21q0 29 7 37.5t25 8.5q7 0 13.5 -0.5t11.5 -1.5z" />
    <glyph glyph-name="asciitilde" unicode="~" horiz-adv-x="555" 
d="M422 876q11 0 18.5 -9t4.5 -20q-2 -5 -3 -8t-2.5 -5.5t-3.5 -6t-6 -9.5q-7 -11 -21 -25q-10 -14 -24 -22q-8 -3 -15.5 -5.5t-16.5 -2.5q-7 0 -16 2t-20 5l-36 12q-8 4 -16.5 7t-16.5 6q-23 7 -38.5 3.5t-21.5 -13.5t-19 -18t-23 -8q-11 0 -15 8t-1 19q5 11 8 13.5
t11 13.5q4 7 7.5 14t9.5 13q5 6 12 10.5t15 8.5q13 8 30 8q7 0 13 -2.5t17 -5.5l35 -11q9 -4 18 -5.5t17 -3.5q29 -9 42.5 -6t27.5 19q8 8 13 16t16 8z" />
    <glyph glyph-name="uni007F" 
 />
    <glyph glyph-name="exclamdown" unicode="&#xa1;" horiz-adv-x="269" 
d="M104 330h58l25 -512h-108zM196 478q0 -33 -16 -50t-46 -17t-46 17t-16 50q0 32 16.5 50t45.5 18t45.5 -17.5t16.5 -50.5z" />
    <glyph glyph-name="cent" unicode="&#xa2;" horiz-adv-x="582" 
d="M281 621q14 0 21.5 -10.5t7.5 -24.5v-7t2 -9q5 -16 12 -25.5t24 -13.5q12 -3 16 -3.5t16 -5.5q14 -5 21.5 -18.5t8.5 -27.5q2 -11 0.5 -15t-3.5 -15q-2 -13 -17.5 -20t-31.5 3q-8 5 -17.5 7t-22.5 7q-5 2 -7 3t-4.5 1h-6h-12.5q-22 0 -47 -10q-22 -7 -39 -26
q-9 -10 -15.5 -20t-11.5 -24q-4 -11 -7 -23t-3 -26t3 -25.5t7 -22.5q5 -13 9.5 -24.5t12.5 -19.5q10 -9 20.5 -15.5t23.5 -11.5q19 -6 47 -6q20 0 29.5 2t22.5 9q31 25 50.5 15.5t19.5 -44.5v-11q0 -15 -9 -28t-22 -18q-4 -1 -5 -1.5t-2.5 -0.5h-4.5t-9 -1q-16 -6 -31 -15
t-15 -30q0 -8 1 -10.5t1 -8.5q0 -14 -10.5 -24t-24.5 -10q-2 0 -3 1t-4 1q-14 0 -23 9t-9 23q0 9 0.5 11.5t-0.5 9.5q-2 14 -9 23t-15.5 15t-17 9.5t-12.5 5.5q-8 5 -18.5 13t-18.5 13q-5 2 -11.5 10.5t-14.5 18.5q-5 9 -11.5 17.5t-8.5 14.5q-4 7 -6.5 10t-4 6t-3 7
l-4.5 12q-3 7 -4.5 16.5t-2.5 18.5q-2 9 -5 18t-3 20q0 10 3 19.5t6 20.5q13 52 46 94.5t87 63.5q13 6 20.5 21t7.5 29q0 7 0.5 9t0.5 9q0 14 8.5 24.5t22.5 10.5q3 -2 5 -1t4 1z" />
    <glyph glyph-name="sterling" unicode="&#xa3;" horiz-adv-x="603" 
d="M188 431q9 -24 31 -40.5t47.5 -26.5t49 -14.5t36.5 -4.5t22 -10.5t9 -24.5v-4q0 -15 -9 -25.5t-22 -10.5q-14 0 -28 1t-28 1t-22 -8t-8 -20t2.5 -18t2.5 -13v-12q0 -8 2 -21.5t7.5 -28t13.5 -26.5t20 -18q6 -3 17 -7.5t23.5 -9t23.5 -8t16 -3.5q20 0 39 9t29 22q1 1 2 1
q3 0 6 4.5t8.5 10t13.5 10t21 4.5q8 0 16 -3t8 -5q-1 1 -2 1h-2q0 1 2.5 -1.5t6 -7t6 -10t2.5 -11.5q0 -14 -6 -23q-23 -42 -52.5 -63t-77.5 -21q-8 0 -17.5 1.5t-21.5 3.5l-38 9l-36 11l-51 21q-18 5 -31.5 6.5t-21.5 1.5q-19 0 -29.5 -7.5t-18.5 -16t-16 -16t-21 -7.5
q-20 0 -30 12.5t-10 25.5q0 14 8.5 27.5t20 25t23.5 19t20 10.5q31 10 37.5 32.5t6.5 57.5q0 25 -17.5 42t-43.5 17q-9 0 -12.5 -0.5t-5.5 -1t-5 -1t-12 -0.5q-15 0 -26 9t-11 24v8q0 13 10 21t22 15t22 15.5t10 21.5q0 17 -10 35.5t-12 32.5q-2 11 -2.5 21t-0.5 18
q0 68 41 118q21 29 44 47t47 28.5t48.5 14.5t48.5 4q59 0 99.5 -20t65 -49.5t35.5 -64t11 -63.5q0 -14 -10 -27t-24 -13v1q-1 0 -7 -2t-11 -2q-11 0 -18 8.5t-8 19.5q-1 10 -6 31.5t-20 43.5t-41 38t-69 16q-39 0 -66 -14t-43.5 -34.5t-24 -44.5t-7.5 -44q0 -10 2 -23.5
t7 -27.5z" />
    <glyph glyph-name="currency" unicode="&#xa4;" horiz-adv-x="649" 
d="M80 97q-5 4 -7 10t-2 12q0 12 9 21q28 23 40.5 40t12.5 34q0 9 -4 21.5t-9.5 27.5t-9.5 31.5t-4 32.5q0 15 4 30.5t9 30t9 26.5t4 21q0 10 -6.5 23t-23.5 33q-9 10 -20.5 19.5t-11.5 24.5q0 14 13 26t24 12q17 0 26 -12t18 -21q16 -11 29.5 -15.5t26.5 -4.5q26 0 52 9.5
t60 9.5q40 0 68 -10t48 -10q12 0 24.5 4.5t25.5 17.5q9 8 17 19.5t23 11.5q14 0 23 -9l7 -7q9 -11 9 -21q-1 -11 -11.5 -23t-18.5 -20q-9 -10 -21.5 -19.5t-12.5 -29.5q0 -6 5 -17.5t10.5 -27t10.5 -33.5t5 -36q0 -11 -4 -31.5t-9 -35.5q-5 -12 -11 -25.5t-6 -26.5
q0 -15 11 -26q3 -3 12 -10t18.5 -16.5t17 -20t7.5 -19.5q0 -14 -9 -21l-6 -7q-8 -8 -19 -8q-13 0 -22 10l-23 22q-11 10 -24 21.5t-30 11.5q-7 0 -15 -4.5t-19.5 -10.5t-26 -10.5t-33.5 -4.5q-36 0 -59 4t-37.5 8.5t-23.5 8.5t-18 4q-11 0 -21.5 -7t-27.5 -24l-24 -21
q-10 -8 -20 -8q-8 0 -16 4.5t-13 10.5zM451 362q-5 17 -12 33.5t-20 28.5q-8 7 -22.5 13.5t-29.5 11.5t-28.5 8.5t-19.5 3.5q-26 0 -50.5 -10t-43.5 -28t-30 -43t-11 -55q0 -27 10 -51t28 -42t43 -28.5t54 -10.5q25 0 46 8.5t37.5 22t27.5 31t17 35.5z" />
    <glyph glyph-name="yen" unicode="&#xa5;" horiz-adv-x="663" 
d="M548 566q-2 -4 -5 -6.5t-4 -4.5q-2 -4 -19 -34t-38 -65q-8 -13 -8 -23.5t5 -18t12.5 -12t13.5 -4.5h40q16 0 25 -11.5t9 -25.5q0 -2 1.5 -2.5t1.5 -1.5q0 -15 -10.5 -26.5t-26.5 -11.5q-15 0 -41 0.5t-41 0.5q-8 0 -10.5 0.5t-4 1t-4.5 0.5h-10q-23 -2 -37.5 -15
t-16.5 -29q0 -15 13 -25t19 -10q17 0 26 -0.5t25 -0.5h42q15 0 20 1t20 1q16 0 26.5 -11t10.5 -27q0 -2 -1.5 -1.5t-1.5 -0.5q2 -16 -8 -27t-26 -11h-43q-17 0 -23 1t-22 1h-24q-6 0 -15.5 -2t-19 -7t-17.5 -13t-11 -19q-1 -12 -0.5 -31.5t2.5 -29.5v-1q0 -3 1 -10.5
t0 -16.5t-4.5 -17.5t-10.5 -12.5q-20 -11 -38 -10t-26 10q-11 14 -11.5 29t-0.5 20q2 3 1.5 14t-1.5 16l1 5v25q-1 14 -8 23.5t-16 15t-17.5 8t-13.5 2.5h-32h-43h-14t-9 0.5t-8.5 0.5h-12.5q-15 0 -26.5 10.5t-9.5 26.5q0 1 -1.5 1t-1.5 1q0 16 11.5 26t26.5 10h11.5
t8.5 0.5t8.5 0.5h12.5h12.5t8 0.5t8 0.5h11.5q11 0 25.5 -0.5t26.5 -1.5q3 0 9 2t12.5 6.5t11 12t4.5 18.5q-1 3 -6 10t-14.5 13.5t-24 11.5t-34.5 4q-14 0 -28 -0.5t-22 -0.5h-41q-15 0 -26.5 11.5t-11.5 26.5q0 1 1.5 1.5t1.5 2.5q-2 14 9 25.5t26 11.5h39q5 0 14.5 4.5
t16 13.5t8 23t-8.5 32q0 2 -1.5 6t-6.5 9q-20 36 -31 50t-14 18q0 7 -4 12q-8 19 -21 40.5t-18 30.5q-4 6 -8 15t-2.5 18.5t9.5 18.5t28 14q15 5 23.5 -1.5t14.5 -13.5q4 -3 8.5 -9.5t9 -13.5t7.5 -12.5t4 -6.5q6 -10 11 -18t10 -18q2 -5 4.5 -8t3.5 -5l15 -30
q6 -12 11.5 -23.5t7.5 -15.5l29 -39l1 -3q13 -23 31.5 -32t36.5 -7.5t33.5 10.5t23.5 22l3 4q3 5 10.5 19t16.5 29.5t17 29.5t12 20q6 16 11 16q0 5 6 11q5 11 11.5 21t11.5 15q1 1 6.5 10.5t14.5 20t21.5 18t29.5 5.5q8 -2 14 -5.5t10 -7.5t6 -9q2 -4 1 -16t-9 -23
q-7 -11 -18.5 -31.5t-19.5 -39.5z" />
    <glyph glyph-name="brokenbar" unicode="&#xa6;" horiz-adv-x="550" 
d="M239 760h73v-381h-73v381zM239 140h73v-381h-73v381z" />
    <glyph glyph-name="section" unicode="&#xa7;" horiz-adv-x="513" 
d="M67 395q0 42 21 75t58 51q-36 20 -56 47t-20 68q0 60 50.5 94.5t146.5 34.5q45 0 82 -7t89 -27l-27 -67q-47 19 -80.5 26t-69.5 7q-56 0 -82.5 -14.5t-26.5 -44.5q0 -27 28 -47.5t104 -47.5q89 -33 126 -70t37 -90q0 -88 -75 -133q74 -39 74 -110q0 -69 -57.5 -107
t-160.5 -38t-169 33v75q42 -19 88.5 -30t84.5 -11q62 0 96 18t34 53q0 30 -26 49t-103 49q-96 36 -131 72.5t-35 91.5zM142 405q0 -25 13 -43.5t43 -35.5t109 -47q64 37 64 91q0 40 -34 66.5t-123 54.5q-32 -9 -52 -33t-20 -53z" />
    <glyph glyph-name="dieresis" unicode="&#xa8;" horiz-adv-x="580" 
d="M149 681q0 26 13.5 37.5t33.5 11.5q19 0 33 -11.5t14 -37.5t-14 -38t-33 -12q-20 0 -33.5 12t-13.5 38zM337 681q0 26 13.5 37.5t32.5 11.5t33 -11.5t14 -37.5t-14 -38t-33 -12t-32.5 12t-13.5 38z" />
    <glyph glyph-name="copyright" unicode="&#xa9;" horiz-adv-x="832" 
d="M436 515q-58 0 -91 -41.5t-33 -116.5q0 -77 28.5 -118t94.5 -41q46 0 105 23v-64q-29 -13 -53 -18.5t-56 -5.5q-94 0 -145.5 58.5t-51.5 165.5q0 102 54 162.5t147 60.5q63 0 123 -30l-29 -61q-52 26 -93 26zM49 357q0 98 48.5 183t134 134.5t184.5 49.5q98 0 183.5 -49
t134.5 -134t49 -184q0 -96 -47.5 -180.5t-132.5 -135.5t-187 -51q-101 0 -186.5 50.5t-133 135t-47.5 181.5zM102 357q0 -84 42 -157t115 -115t157 -42t157 42t115 115t42 157t-42 156.5t-115 115t-157 42.5t-156.5 -42t-115 -115t-42.5 -157z" />
    <glyph glyph-name="ordfeminine" unicode="&#xaa;" horiz-adv-x="356" 
d="M261 389l-12 42q-46 -48 -114 -48q-47 0 -75 24.5t-28 74.5t38.5 76t119.5 29l56 2v22q0 30 -19 44.5t-52 14.5q-49 0 -101 -26q-13 30 -22 49q60 29 125 29t98 -27t33 -86v-220h-47zM96 482q0 -48 54 -48q96 0 96 87v23l-48 -2q-54 -2 -78 -16t-24 -44z" />
    <glyph glyph-name="guillemotleft" unicode="&#xab;" horiz-adv-x="508" 
d="M40 270l168 201l63 -36l-140 -171l140 -171l-63 -37l-168 201v13zM238 270l170 201l62 -36l-140 -171l140 -171l-62 -37l-170 201v13z" />
    <glyph glyph-name="logicalnot" unicode="&#xac;" horiz-adv-x="571" 
d="M520 388v-260h-71v189h-399v71h470z" />
    <glyph glyph-name="uni00AD" unicode="&#xad;" horiz-adv-x="321" 
d="M40 229v78h242v-78h-242z" />
    <glyph glyph-name="registered" unicode="&#xae;" horiz-adv-x="832" 
d="M355 373h50q40 0 61.5 19.5t21.5 51.5q0 36 -20 51.5t-64 15.5h-49v-138zM565 446q0 -41 -21 -70.5t-57 -43.5l116 -194h-86l-100 173h-62v-173h-76v437h128q82 0 120 -32t38 -97zM49 357q0 98 48.5 183t134 134.5t184.5 49.5q98 0 183.5 -49t134.5 -134t49 -184
q0 -96 -47.5 -180.5t-132.5 -135.5t-187 -51q-101 0 -186.5 50.5t-133 135t-47.5 181.5zM102 357q0 -84 42 -157t115 -115t157 -42t157 42t115 115t42 157t-42 156.5t-115 115t-157 42.5t-156.5 -42t-115 -115t-42.5 -157z" />
    <glyph glyph-name="macron" unicode="&#xaf;" horiz-adv-x="339" 
d="M368 264q-29 0 -47.5 0.5t-33 1t-30 0.5t-38.5 -1h-59q-1 0 -2 1t-3 -1q-15 -1 -31 0q-10 2 -20 3.5t-18 7.5q-5 5 -6 14t-1 17q2 11 7.5 19.5t17.5 12.5q6 3 13 3h23h27h26.5h21.5q24 0 29.5 0.5t4.5 1t-2.5 1t8.5 1t37 0.5h84h16.5t14.5 -1h11t11 1q11 3 21 2.5
t19 -7.5q6 -5 9.5 -9.5t5.5 -12.5q1 -3 1 -11.5t-1 -11.5q-6 -18 -20 -24q-16 -7 -27 -7h-17.5t-17.5 -1h-34z" />
    <glyph glyph-name="degree" unicode="&#xb0;" horiz-adv-x="428" 
d="M60 570q0 66 45 110t109 44q65 0 109.5 -45t44.5 -109t-45 -108.5t-109 -44.5q-63 0 -108.5 44t-45.5 109zM120 570q0 -39 28 -66.5t67 -27.5q40 0 66.5 28t26.5 66q0 39 -27 66.5t-66 27.5t-67 -27t-28 -67z" />
    <glyph glyph-name="plusminus" unicode="&#xb1;" horiz-adv-x="571" 
d="M321 391h199v-71h-199v-206h-72v206h-199v71h199v207h72v-207zM50 0v71h470v-71h-470z" />
    <glyph glyph-name="uni00B2" unicode="&#xb2;" horiz-adv-x="350" 
d="M306 286h-282v54l115 112q62 60 79.5 87.5t17.5 61.5q0 32 -18.5 48t-48.5 16t-54.5 -11.5t-50.5 -31.5l-35 46q65 55 141 55q64 0 100.5 -32t36.5 -86q0 -22 -6 -41.5t-18.5 -39.5t-33 -42.5t-138.5 -133.5h195v-62z" />
    <glyph glyph-name="uni00B3" unicode="&#xb3;" horiz-adv-x="350" 
d="M308 613q0 -74 -74 -102q87 -21 87 -102q0 -62 -45 -96.5t-128 -34.5q-74 0 -131 28v63q69 -34 132 -34q100 0 100 76q0 69 -110 69h-57v55h57q50 0 73.5 19t23.5 51q0 29 -19 45t-51 16q-51 0 -111 -38l-36 46q36 27 71 38t75 11q66 0 104.5 -29.5t38.5 -80.5z" />
    <glyph glyph-name="acute" unicode="&#xb4;" horiz-adv-x="580" 
d="M189 618q19 23 47.5 66.5t47.5 81.5h106v-10q-21 -31 -66.5 -78.5t-76.5 -71.5h-58v12z" />
    <glyph glyph-name="mu" unicode="&#xb5;" horiz-adv-x="623" 
d="M173 190q0 -127 120 -127q83 0 120 45.5t37 148.5v279h88v-536h-71l-14 72h-5q-53 -82 -161 -82q-71 0 -115 45h-4q5 -36 5 -119v-156h-88v776h88v-346z" />
    <glyph glyph-name="paragraph" unicode="&#xb6;" horiz-adv-x="654" 
d="M549 -127h-58v831h-102v-831h-58v400q-30 -9 -71 -9q-105 0 -155 61t-50 184q0 127 53.5 189t166.5 62h274v-887z" />
    <glyph glyph-name="periodcentered" unicode="&#xb7;" horiz-adv-x="268" 
d="M72 353q0 32 16 50t45 18q30 0 46.5 -18.5t16.5 -49.5t-16.5 -49.5t-46.5 -18.5q-29 0 -45 18t-16 50z" />
    <glyph glyph-name="cedilla" unicode="&#xb8;" horiz-adv-x="225" 
d="M212 -139q0 -48 -37 -74.5t-111 -26.5q-32 0 -50 5v55q18 -5 53 -5q37 0 55.5 9.5t18.5 34.5q0 43 -91 55l43 86h58l-26 -53q87 -19 87 -86z" />
    <glyph glyph-name="uni00B9" unicode="&#xb9;" horiz-adv-x="350" 
d="M167 714h73v-428h-71v276q0 33 4 89q-15 -14 -26.5 -23t-74.5 -55l-35 49z" />
    <glyph glyph-name="ordmasculine" unicode="&#xba;" horiz-adv-x="375" 
d="M345 553q0 -80 -42 -125t-116 -45q-71 0 -113 45t-42 125q0 81 41 125t116 44q73 0 114.5 -44.5t41.5 -124.5zM95 553q0 -59 21.5 -88t71.5 -29q49 0 71 29t22 88t-22 87.5t-71 28.5t-71 -28.5t-22 -87.5z" />
    <glyph glyph-name="guillemotright" unicode="&#xbb;" horiz-adv-x="508" 
d="M469 257l-170 -201l-62 37l140 171l-140 171l62 36l170 -201v-13zM270 257l-169 -201l-62 37l140 171l-140 171l62 36l169 -201v-13z" />
    <glyph glyph-name="onequarter" unicode="&#xbc;" horiz-adv-x="790" 
d="M736 96h-61v-96h-75v96h-195v52l197 283h73v-275h61v-60zM600 156v93q0 52 3 101q-4 -9 -48 -77l-80 -117h125zM637 714l-436 -714h-75l436 714h75zM165 714h73v-428h-71v276q0 33 4 89q-15 -14 -26.5 -23t-74.5 -55l-35 49z" />
    <glyph glyph-name="onehalf" unicode="&#xbd;" horiz-adv-x="790" 
d="M607 714l-436 -714h-75l436 714h75zM152 714h73v-428h-71v276q0 33 4 89q-15 -14 -26.5 -23t-74.5 -55l-35 49zM727 0h-282v54l115 112q62 60 79.5 87.5t17.5 61.5q0 32 -18.5 48t-48.5 16t-54.5 -11.5t-50.5 -31.5l-35 46q65 55 141 55q64 0 100.5 -32t36.5 -86
q0 -22 -6 -41.5t-18.5 -39.5t-33 -42.5t-138.5 -133.5h195v-62z" />
    <glyph glyph-name="threequarters" unicode="&#xbe;" horiz-adv-x="790" 
d="M772 96h-61v-96h-75v96h-195v52l197 283h73v-275h61v-60zM636 156v93q0 52 3 101q-4 -9 -48 -77l-80 -117h125zM681 714l-436 -714h-75l436 714h75zM307 613q0 -74 -74 -102q87 -21 87 -102q0 -62 -45 -96.5t-128 -34.5q-74 0 -131 28v63q69 -34 132 -34q100 0 100 76
q0 69 -110 69h-57v55h57q50 0 73.5 19t23.5 51q0 29 -19 45t-51 16q-51 0 -111 -38l-36 46q36 27 71 38t75 11q66 0 104.5 -29.5t38.5 -80.5z" />
    <glyph glyph-name="questiondown" unicode="&#xbf;" horiz-adv-x="434" 
d="M294 330v-26q0 -57 -18 -93.5t-67 -77.5q-65 -54 -82 -81t-17 -68q0 -47 31 -73.5t89 -26.5q78 0 161 43l31 -71q-97 -48 -195 -48q-95 0 -148.5 45.5t-53.5 128.5q0 36 9.5 63.5t29.5 52.5t79 75q50 44 65 71t15 70v16h71zM317 478q0 -67 -62 -67q-30 0 -45.5 17.5
t-15.5 49.5q0 36 17.5 52t43.5 16t44 -16t18 -52z" />
    <glyph glyph-name="Agrave" unicode="&#xc0;" horiz-adv-x="704" 
d="M629 74q3 -14 5 -33t-11 -30t-35 -11.5t-36 9.5q-10 8 -13.5 20t-5.5 23q-2 14 -8 28t-11 27q-6 15 -14.5 32t-22.5 27q-13 9 -28.5 12t-31.5 3.5t-32 -0.5t-31 1t-30 2t-30 -1q-19 -2 -36 -1.5t-34 -7.5q-22 -10 -30.5 -30.5t-16.5 -39.5q-5 -12 -7.5 -24.5t-6.5 -25.5
q-3 -11 -6.5 -23.5t-12.5 -20.5q-11 -10 -32 -9.5t-33 9.5q-10 7 -10.5 18.5t3.5 24.5t10 25t9 21q7 20 11 39.5t10 39.5q32 110 69.5 216.5t75.5 214.5q4 12 9 25.5t12.5 26.5t17 23t23.5 14q13 4 32 4t30 -10q7 -6 10.5 -14t7.5 -16q5 -11 11 -21.5t12 -21.5
q24 -44 43 -87.5t36 -91.5q17 -50 35 -98t34 -98q8 -23 15 -46.5t14 -46.5q3 -11 6 -20.5t7 -19.5q2 -6 9.5 -18t7.5 -19zM449 276q8 12 5.5 26t-7.5 26q-7 17 -13 38q-2 8 -6 16.5t-7 16.5q-5 13 -10.5 33t-13.5 39t-21 32t-33 12q-20 -2 -32.5 -21.5t-18.5 -36.5
q-8 -22 -15 -45.5t-11 -46.5q-2 -11 -5.5 -22.5t-6 -23.5t-2 -24t6.5 -22q9 -14 29.5 -17.5t36.5 -4.5q13 -1 30.5 -1.5t35.5 1.5t33.5 7.5t24.5 16.5v1zM361 796q6 -9 0 -17.5t-17 -8.5q-5 0 -3 -0.5t-3 -0.5q-11 0 -22.5 7.5t-19.5 15.5l-5.5 5.5l-2 2t-2 1.5t-5.5 6
q-9 10 -14 12.5t-13 12.5l-5 5l-1.5 1.5t-1.5 1t-5 5.5q-9 9 -13.5 12t-12.5 13q-8 8 -4.5 18.5t14.5 10.5t14 1t12 1h14q11 0 22 -6.5t17 -15.5q4 -6 7 -9t5.5 -6l5 -6t6.5 -9l19 -31q4 -6 5.5 -8t2 -3l1.5 -3t5 -8z" />
    <glyph glyph-name="Aacute" unicode="&#xc1;" horiz-adv-x="704" 
d="M629 74q3 -14 5 -33t-11 -30t-35 -11.5t-36 9.5q-10 8 -13.5 20t-5.5 23q-2 14 -8 28t-11 27q-6 15 -14.5 32t-22.5 27q-13 9 -28.5 12t-31.5 3.5t-32 -0.5t-31 1t-30 2t-30 -1q-19 -2 -36 -1.5t-34 -7.5q-22 -10 -30.5 -30.5t-16.5 -39.5q-5 -12 -7.5 -24.5t-6.5 -25.5
q-3 -11 -6.5 -23.5t-12.5 -20.5q-11 -10 -32 -9.5t-33 9.5q-10 7 -10.5 18.5t3.5 24.5t10 25t9 21q7 20 11 39.5t10 39.5q32 110 69.5 216.5t75.5 214.5q4 12 9 25.5t12.5 26.5t17 23t23.5 14q13 4 32 4t30 -10q7 -6 10.5 -14t7.5 -16q5 -11 11 -21.5t12 -21.5
q24 -44 43 -87.5t36 -91.5q17 -50 35 -98t34 -98q8 -23 15 -46.5t14 -46.5q3 -11 6 -20.5t7 -19.5q2 -6 9.5 -18t7.5 -19zM449 276q8 12 5.5 26t-7.5 26q-7 17 -13 38q-2 8 -6 16.5t-7 16.5q-5 13 -10.5 33t-13.5 39t-21 32t-33 12q-20 -2 -32.5 -21.5t-18.5 -36.5
q-8 -22 -15 -45.5t-11 -46.5q-2 -11 -5.5 -22.5t-6 -23.5t-2 -24t6.5 -22q9 -14 29.5 -17.5t36.5 -4.5q13 -1 30.5 -1.5t35.5 1.5t33.5 7.5t24.5 16.5v1zM355 846q7 12 11.5 15t12.5 15q5 9 16.5 15.5t22.5 6.5h13q10 0 13 -1t14 -1t14 -10.5t-5 -18.5q-8 -10 -12 -13
t-13 -12q-5 -5 -6 -5.5t-1 -1t-1.5 -1.5t-5.5 -5q-8 -10 -12.5 -12.5t-13.5 -12.5l-6 -6t-2 -1.5t-2.5 -2l-5.5 -5.5q-7 -8 -19 -15.5t-23 -7.5q-4 0 -2.5 0.5t-2.5 0.5q-11 0 -17 8.5t0 17.5q4 6 5 8l1.5 3t2 3t5.5 8z" />
    <glyph glyph-name="Acircumflex" unicode="&#xc2;" horiz-adv-x="704" 
d="M629 74q3 -14 5 -33t-11 -30t-35 -11.5t-36 9.5q-10 8 -13.5 20t-5.5 23q-2 14 -8 28t-11 27q-6 15 -14.5 32t-22.5 27q-13 9 -28.5 12t-31.5 3.5t-32 -0.5t-31 1t-30 2t-30 -1q-19 -2 -36 -1.5t-34 -7.5q-22 -10 -30.5 -30.5t-16.5 -39.5q-5 -12 -7.5 -24.5t-6.5 -25.5
q-3 -11 -6.5 -23.5t-12.5 -20.5q-11 -10 -32 -9.5t-33 9.5q-10 7 -10.5 18.5t3.5 24.5t10 25t9 21q7 20 11 39.5t10 39.5q32 110 69.5 216.5t75.5 214.5q4 12 9 25.5t12.5 26.5t17 23t23.5 14q13 4 32 4t30 -10q7 -6 10.5 -14t7.5 -16q5 -11 11 -21.5t12 -21.5
q24 -44 43 -87.5t36 -91.5q17 -50 35 -98t34 -98q8 -23 15 -46.5t14 -46.5q3 -11 6 -20.5t7 -19.5q2 -6 9.5 -18t7.5 -19zM449 276q8 12 5.5 26t-7.5 26q-7 17 -13 38q-2 8 -6 16.5t-7 16.5q-5 13 -10.5 33t-13.5 39t-21 32t-33 12q-20 -2 -32.5 -21.5t-18.5 -36.5
q-8 -22 -15 -45.5t-11 -46.5q-2 -11 -5.5 -22.5t-6 -23.5t-2 -24t6.5 -22q9 -14 29.5 -17.5t36.5 -4.5q13 -1 30.5 -1.5t35.5 1.5t33.5 7.5t24.5 16.5v1zM286 872q14 18 40 23q15 3 20 2t19 -1q11 0 22.5 -9.5t17.5 -18.5q8 -12 10.5 -14.5t10.5 -13.5q7 -12 11 -14t12 -14
q4 -6 5.5 -8t2.5 -3.5t2.5 -4t5.5 -8.5q6 -9 3 -21.5t-14 -12.5h-17q-11 0 -21 6.5t-16 15.5q-7 9 -9 12.5t-8 12.5q-3 4 -11 11t-18 10t-22 -0.5t-24 -19.5q-6 -9 -7.5 -12.5t-8.5 -13.5q-6 -9 -15 -17t-23 -5q-9 1 -8 1t-8 2t-11.5 13t3.5 21q4 6 5.5 7t2.5 2l2 2t5 7l6 9
t3 6t2.5 6t5.5 9q8 12 12 16t12 17z" />
    <glyph glyph-name="Atilde" unicode="&#xc3;" horiz-adv-x="704" 
d="M629 74q3 -14 5 -33t-11 -30t-35 -11.5t-36 9.5q-10 8 -13.5 20t-5.5 23q-2 14 -8 28t-11 27q-6 15 -14.5 32t-22.5 27q-13 9 -28.5 12t-31.5 3.5t-32 -0.5t-31 1t-30 2t-30 -1q-19 -2 -36 -1.5t-34 -7.5q-22 -10 -30.5 -30.5t-16.5 -39.5q-5 -12 -7.5 -24.5t-6.5 -25.5
q-3 -11 -6.5 -23.5t-12.5 -20.5q-11 -10 -32 -9.5t-33 9.5q-10 7 -10.5 18.5t3.5 24.5t10 25t9 21q7 20 11 39.5t10 39.5q32 110 69.5 216.5t75.5 214.5q4 12 9 25.5t12.5 26.5t17 23t23.5 14q13 4 32 4t30 -10q7 -6 10.5 -14t7.5 -16q5 -11 11 -21.5t12 -21.5
q24 -44 43 -87.5t36 -91.5q17 -50 35 -98t34 -98q8 -23 15 -46.5t14 -46.5q3 -11 6 -20.5t7 -19.5q2 -6 9.5 -18t7.5 -19zM449 276q8 12 5.5 26t-7.5 26q-7 17 -13 38q-2 8 -6 16.5t-7 16.5q-5 13 -10.5 33t-13.5 39t-21 32t-33 12q-20 -2 -32.5 -21.5t-18.5 -36.5
q-8 -22 -15 -45.5t-11 -46.5q-2 -11 -5.5 -22.5t-6 -23.5t-2 -24t6.5 -22q9 -14 29.5 -17.5t36.5 -4.5q13 -1 30.5 -1.5t35.5 1.5t33.5 7.5t24.5 16.5v1zM486 876q11 0 18.5 -9t4.5 -20q-2 -5 -3 -8t-2.5 -5.5t-3.5 -6t-6 -9.5q-7 -11 -21 -25q-10 -14 -24 -22
q-8 -3 -15.5 -5.5t-16.5 -2.5q-7 0 -16 2t-20 5q-17 6 -36 12q-8 4 -16.5 7t-16.5 6q-23 7 -38.5 3.5t-21.5 -13.5t-19 -18t-23 -8q-11 0 -15 8t-1 19q5 11 8 13.5t11 13.5q4 7 7.5 14t9.5 13q5 6 12 10.5t15 8.5q13 8 30 8q7 0 13 -2.5t17 -5.5q8 -2 17 -5l18 -6
q9 -4 18 -5.5t17 -3.5q29 -9 42.5 -6t27.5 19q8 8 13 16t16 8z" />
    <glyph glyph-name="Adieresis" unicode="&#xc4;" horiz-adv-x="704" 
d="M629 74q3 -14 5 -33t-11 -30t-35 -11.5t-36 9.5q-10 8 -13.5 20t-5.5 23q-2 14 -8 28t-11 27q-6 15 -14.5 32t-22.5 27q-13 9 -28.5 12t-31.5 3.5t-32 -0.5t-31 1t-30 2t-30 -1q-19 -2 -36 -1.5t-34 -7.5q-22 -10 -30.5 -30.5t-16.5 -39.5q-5 -12 -7.5 -24.5t-6.5 -25.5
q-3 -11 -6.5 -23.5t-12.5 -20.5q-11 -10 -32 -9.5t-33 9.5q-10 7 -10.5 18.5t3.5 24.5t10 25t9 21q7 20 11 39.5t10 39.5q32 110 69.5 216.5t75.5 214.5q4 12 9 25.5t12.5 26.5t17 23t23.5 14q13 4 32 4t30 -10q7 -6 10.5 -14t7.5 -16q5 -11 11 -21.5t12 -21.5
q24 -44 43 -87.5t36 -91.5q17 -50 35 -98t34 -98q8 -23 15 -46.5t14 -46.5q3 -11 6 -20.5t7 -19.5q2 -6 9.5 -18t7.5 -19zM449 276q8 12 5.5 26t-7.5 26q-7 17 -13 38q-2 8 -6 16.5t-7 16.5q-5 13 -10.5 33t-13.5 39t-21 32t-33 12q-20 -2 -32.5 -21.5t-18.5 -36.5
q-8 -22 -15 -45.5t-11 -46.5q-2 -11 -5.5 -22.5t-6 -23.5t-2 -24t6.5 -22q9 -14 29.5 -17.5t36.5 -4.5q13 -1 30.5 -1.5t35.5 1.5t33.5 7.5t24.5 16.5v1zM226 846q0 11 11.5 21.5t22.5 10.5h7.5t2.5 -0.5t2.5 -0.5h8.5q11 0 20.5 -11.5t9.5 -22.5q0 -9 0.5 -12t1.5 -5
t1.5 -5t0.5 -12q0 -11 -11.5 -21.5t-22.5 -10.5h-8.5t-2.5 0.5t-2.5 0.5h-7.5q-11 0 -23 12t-12 23v12v4.5t0.5 4.5t0.5 12zM382 845q0 11 9 21.5t20 10.5h25q11 0 23 -10.5t12 -21.5v-12.5t0.5 -6.5t0.5 -6.5v-12.5q0 -11 -10.5 -21t-21.5 -10h-19q-15 0 -27.5 12.5
t-12.5 23.5v12v4.5t0.5 4.5t0.5 12z" />
    <glyph glyph-name="Aring" unicode="&#xc5;" horiz-adv-x="704" 
d="M342 919q15 0 31 -6.5t28.5 -18.5t21 -28.5t8.5 -36.5q0 -15 -5 -30.5t-15 -28t-24.5 -20t-32.5 -7.5q-14 0 -31 3.5t-33 13.5t-26.5 26.5t-10.5 42.5q0 13 7 29t19.5 29.5t28.5 22.5t34 9zM342 787q19 0 31.5 12t12.5 30q0 16 -12.5 28.5t-31.5 12.5q-24 0 -33 -13.5
t-9 -27.5q0 -27 14 -34.5t28 -7.5zM629 74q3 -14 5 -33t-11 -30t-35 -11.5t-36 9.5q-10 8 -13.5 20t-5.5 23q-2 14 -8 28t-11 27q-6 15 -14.5 32t-22.5 27q-13 9 -28.5 12t-31.5 3.5t-32 -0.5t-31 1t-30 2t-30 -1q-19 -2 -36 -1.5t-34 -7.5q-22 -10 -30.5 -30.5t-16.5 -39.5
q-5 -12 -7.5 -24.5t-6.5 -25.5q-3 -11 -6.5 -23.5t-12.5 -20.5q-11 -10 -32 -9.5t-33 9.5q-10 7 -10.5 18.5t3.5 24.5t10 25t9 21q7 20 11 39.5t10 39.5q32 110 69.5 216.5t75.5 214.5q4 12 9 25.5t12.5 26.5t17 23t23.5 14q13 4 32 4t30 -10q7 -6 10.5 -14t7.5 -16
q5 -11 11 -21.5t12 -21.5q24 -44 43 -87.5t36 -91.5q17 -50 35 -98t34 -98q8 -23 15 -46.5t14 -46.5q3 -11 6 -20.5t7 -19.5q2 -6 9.5 -18t7.5 -19zM449 276q8 12 5.5 26t-7.5 26q-7 17 -13 38q-2 8 -6 16.5t-7 16.5q-5 13 -10.5 33t-13.5 39t-21 32t-33 12
q-20 -2 -32.5 -21.5t-18.5 -36.5q-8 -22 -15 -45.5t-11 -46.5q-2 -11 -5.5 -22.5t-6 -23.5t-2 -24t6.5 -22q9 -14 29.5 -17.5t36.5 -4.5q13 -1 30.5 -1.5t35.5 1.5t33.5 7.5t24.5 16.5v1z" />
    <glyph glyph-name="AE" unicode="&#xc6;" horiz-adv-x="1031" 
d="M671 605q-18 0 -38 -2.5t-37 -12.5t-28 -30.5t-11 -56.5q0 -14 3.5 -31t12 -33t24 -27.5t39.5 -13.5q9 -1 26 -1h34h49q18 0 26.5 -12.5t8.5 -28.5q0 -17 -4.5 -27.5t-18.5 -16t-39 -7t-65 -1.5q-23 0 -40 -7t-28.5 -17.5t-17.5 -24t-6 -26.5v-6v-28q1 -19 11.5 -34.5
t26 -27t34 -18t36.5 -6.5h7q6 0 10.5 1t9.5 1h6h30q4 0 7 -0.5t5 -0.5t3 0.5t2 0.5h12h15t19 -1l45 -3q6 1 14 1.5t16.5 1t15 0.5h9.5t13.5 0.5t21 -3t19 -12.5t8.5 -28q-2 -28 -18.5 -38t-26.5 -10h-21q-13 1 -32.5 1.5t-40.5 1t-40 1t-31 0.5q-11 0 -19 -0.5t-13 -0.5h-25
q-28 0 -45.5 -3t-25.5 -3q-9 0 -20.5 0.5t-23.5 1.5q-11 0 -26.5 1t-30.5 7.5t-27.5 20.5t-17.5 41q0 5 -4.5 15.5t-13 22.5t-21.5 24t-29 20q-13 6 -41.5 8t-54.5 2q-31 0 -56 -7.5t-39 -33.5q-3 -11 -9 -23.5t-14 -25.5q0 -3 -4.5 -13.5t-9.5 -23t-10.5 -23t-8.5 -13.5
q-8 -11 -25 -11q-26 0 -40 8.5t-14 23.5q0 7 2.5 15t5.5 15t6 11.5t4 5.5q6 8 5.5 8.5t1.5 3.5q4 6 13 29.5t22.5 57.5t31.5 75.5t40 83.5q0 3 3 8q3 3 4 5.5t3.5 8.5t7.5 16.5t15 29.5q0 -3 5.5 7t14.5 29.5t22 47.5t28 62q3 8 7 13t4 7q12 16 21.5 37.5t26.5 40.5t45.5 32
t79.5 13q15 0 35 -2.5t49 -2.5h93q18 0 35.5 -0.5t38 -1.5t44 -1.5t52.5 -0.5q12 0 25 0.5t27 0.5q32 0 50 -10.5t18 -39.5q0 -11 -4 -18.5t-10 -12t-12.5 -6.5t-11.5 -2h-2h-14q-1 0 -21.5 0.5t-45.5 1t-46.5 1t-24.5 0.5h-37h-9h-4.5t-14 -0.5t-37.5 -0.5zM395 248
q2 -1 11 -1t20 2.5t21.5 9t17.5 19t7 33.5v5q0 5 0.5 15.5t0.5 15.5v13t-0.5 19.5t-1 19.5t-1.5 12v28q0 2 -0.5 4t-2.5 7q-8 20 -20.5 36t-29.5 16q-11 0 -20 -4t-19 -17t-21.5 -37t-27.5 -64q-4 -3 -8.5 -12t-8.5 -19t-7.5 -19t-5.5 -13q-5 -10 -6.5 -22t2.5 -22t15 -17
t31 -7q6 0 15 -0.5t18 -0.5h21z" />
    <glyph glyph-name="Ccedilla" unicode="&#xc7;" horiz-adv-x="718" 
d="M621 168q12 -5 20.5 -17t8.5 -26q0 -19 -16 -36.5t-30 -28.5q-44 -35 -87 -48.5t-94 -15.5q-18 0 -36.5 -9.5t-23.5 -15.5q-4 -4 -4 -8q0 -5 6 -5q1 0 10 1t15 1q9 0 16.5 -5.5t13.5 -14t9 -17.5t3 -15q0 -5 -3.5 -16t-15 -22t-32.5 -19.5t-55 -8.5q-11 0 -25 8t-14 18
q0 14 16 14q8 0 12 -1t7 -2.5t6.5 -2.5t10.5 -1q11 0 23.5 6.5t12.5 23.5q0 11 -10.5 19t-19.5 8t-11.5 -1.5t-7.5 -1.5q-6 0 -10.5 2.5t-4.5 8.5q0 4 1.5 5.5t3 4t3 7.5t1.5 16q0 8 -4 18t-15 20q-62 19 -106 53.5t-71.5 78t-40.5 93.5t-13 102q0 69 26 134.5t71 116.5
t107 82t134 31q28 0 66.5 -7t73 -21.5t58.5 -36.5t24 -52q0 -17 -11 -32t-31 -15q-14 0 -23.5 9t-19.5 18q-30 26 -61.5 39t-71.5 13q-56 0 -101 -23t-77.5 -61.5t-50 -88t-17.5 -103.5q0 -47 15.5 -94t44.5 -85.5t70 -62.5t92 -24q35 0 69.5 8.5t62.5 29.5q9 6 18.5 16.5
t20 20t21.5 16.5t23 7q10 0 18 -4v-1v0z" />
    <glyph glyph-name="Egrave" unicode="&#xc8;" horiz-adv-x="605" 
d="M483 98q21 0 38.5 -10.5t17.5 -34.5q-1 -21 -14.5 -34.5t-33.5 -15.5q-26 -2 -52.5 -1t-51.5 3q-23 1 -46 1h-46q-25 0 -49.5 -3t-49.5 -2q-15 1 -30.5 1.5t-30.5 3.5t-28 9.5t-23 19.5q-15 20 -17 43t-3 47q0 7 -0.5 16t-0.5 17q-1 12 1 24t2 25q1 45 0.5 89t-1.5 88
q-1 38 2 74t1 73q0 17 -1 35.5t0.5 36.5t6.5 34.5t17 31.5q11 14 25 20t29 8t31 1.5t32 -0.5q32 0 63 -0.5t63 -2.5q25 -1 49 -1.5t49 -0.5q20 0 45.5 2t45.5 -8q13 -6 19.5 -18t6.5 -25t-7 -24.5t-22 -15.5q-13 -4 -28.5 -2.5t-29.5 1.5q-30 1 -59.5 1.5t-59.5 0.5h-51
t-49 -2q-47 -5 -68.5 -35t-18.5 -76q1 -22 8.5 -42.5t24.5 -34.5q18 -16 40.5 -18.5t45.5 -2.5q20 0 39 1t37 -1q19 -2 27 -17.5t6 -32.5q-2 -16 -10 -27.5t-24 -13.5q-23 -4 -46 -5.5t-46 -2.5q-26 -1 -50.5 -10t-38.5 -34q-8 -16 -8.5 -36.5t1.5 -38.5q4 -27 25.5 -47
t45.5 -28q26 -10 52.5 -7t52.5 2q20 -1 38.5 -1t37.5 -2q19 -1 36.5 1t32.5 4zM361 796q6 -9 0 -17.5t-17 -8.5q-5 0 -3 -0.5t-3 -0.5q-11 0 -22.5 7.5t-19.5 15.5l-5.5 5.5l-2 2t-2 1.5t-5.5 6q-9 10 -14 12.5t-13 12.5l-5 5l-1.5 1.5t-1.5 1t-5 5.5q-9 9 -13.5 12
t-12.5 13q-8 8 -4.5 18.5t14.5 10.5t14 1t12 1h14q11 0 22 -6.5t17 -15.5q4 -6 7 -9t5.5 -6l5 -6t6.5 -9l19 -31q4 -6 5.5 -8t2 -3l1.5 -3t5 -8z" />
    <glyph glyph-name="Eacute" unicode="&#xc9;" horiz-adv-x="605" 
d="M483 98q21 0 38.5 -10.5t17.5 -34.5q-1 -21 -14.5 -34.5t-33.5 -15.5q-26 -2 -52.5 -1t-51.5 3q-23 1 -46 1h-46q-25 0 -49.5 -3t-49.5 -2q-15 1 -30.5 1.5t-30.5 3.5t-28 9.5t-23 19.5q-15 20 -17 43t-3 47q0 7 -0.5 16t-0.5 17q-1 12 1 24t2 25q1 45 0.5 89t-1.5 88
q-1 38 2 74t1 73q0 17 -1 35.5t0.5 36.5t6.5 34.5t17 31.5q11 14 25 20t29 8t31 1.5t32 -0.5q32 0 63 -0.5t63 -2.5q25 -1 49 -1.5t49 -0.5q20 0 45.5 2t45.5 -8q13 -6 19.5 -18t6.5 -25t-7 -24.5t-22 -15.5q-13 -4 -28.5 -2.5t-29.5 1.5q-30 1 -59.5 1.5t-59.5 0.5h-51
t-49 -2q-47 -5 -68.5 -35t-18.5 -76q1 -22 8.5 -42.5t24.5 -34.5q18 -16 40.5 -18.5t45.5 -2.5q20 0 39 1t37 -1q19 -2 27 -17.5t6 -32.5q-2 -16 -10 -27.5t-24 -13.5q-23 -4 -46 -5.5t-46 -2.5q-26 -1 -50.5 -10t-38.5 -34q-8 -16 -8.5 -36.5t1.5 -38.5q4 -27 25.5 -47
t45.5 -28q26 -10 52.5 -7t52.5 2q20 -1 38.5 -1t37.5 -2q19 -1 36.5 1t32.5 4zM311 846q7 12 11.5 15t12.5 15q5 9 16.5 15.5t22.5 6.5h13q10 0 13 -1t14 -1t14 -10.5t-5 -18.5q-8 -10 -12 -13t-13 -12q-5 -5 -6 -5.5t-1 -1t-1.5 -1.5t-5.5 -5q-8 -10 -12.5 -12.5
t-13.5 -12.5l-6 -6t-2 -1.5t-2.5 -2l-5.5 -5.5q-7 -8 -19 -15.5t-23 -7.5q-4 0 -2.5 0.5t-2.5 0.5q-11 0 -17 8.5t0 17.5q4 6 5 8l1.5 3t2 3t5.5 8z" />
    <glyph glyph-name="Ecircumflex" unicode="&#xca;" horiz-adv-x="605" 
d="M483 98q21 0 38.5 -10.5t17.5 -34.5q-1 -21 -14.5 -34.5t-33.5 -15.5q-26 -2 -52.5 -1t-51.5 3q-23 1 -46 1h-46q-25 0 -49.5 -3t-49.5 -2q-15 1 -30.5 1.5t-30.5 3.5t-28 9.5t-23 19.5q-15 20 -17 43t-3 47q0 7 -0.5 16t-0.5 17q-1 12 1 24t2 25q1 45 0.5 89t-1.5 88
q-1 38 2 74t1 73q0 17 -1 35.5t0.5 36.5t6.5 34.5t17 31.5q11 14 25 20t29 8t31 1.5t32 -0.5q32 0 63 -0.5t63 -2.5q25 -1 49 -1.5t49 -0.5q20 0 45.5 2t45.5 -8q13 -6 19.5 -18t6.5 -25t-7 -24.5t-22 -15.5q-13 -4 -28.5 -2.5t-29.5 1.5q-30 1 -59.5 1.5t-59.5 0.5h-51
t-49 -2q-47 -5 -68.5 -35t-18.5 -76q1 -22 8.5 -42.5t24.5 -34.5q18 -16 40.5 -18.5t45.5 -2.5q20 0 39 1t37 -1q19 -2 27 -17.5t6 -32.5q-2 -16 -10 -27.5t-24 -13.5q-23 -4 -46 -5.5t-46 -2.5q-26 -1 -50.5 -10t-38.5 -34q-8 -16 -8.5 -36.5t1.5 -38.5q4 -27 25.5 -47
t45.5 -28q26 -10 52.5 -7t52.5 2q20 -1 38.5 -1t37.5 -2q19 -1 36.5 1t32.5 4zM244 872q14 18 40 23q15 3 20 2t19 -1q11 0 22.5 -9.5t17.5 -18.5q8 -12 10.5 -14.5t10.5 -13.5q7 -12 11 -14t12 -14q4 -6 5.5 -8t2.5 -3.5t2.5 -4t5.5 -8.5q6 -9 3 -21.5t-14 -12.5h-17
q-11 0 -21 6.5t-16 15.5q-7 9 -9 12.5t-8 12.5q-3 4 -11 11t-18 10t-22 -0.5t-24 -19.5q-6 -9 -7.5 -12.5t-8.5 -13.5q-6 -9 -15 -17t-23 -5q-9 1 -8 1t-8 2t-11.5 13t3.5 21q4 6 5.5 7t2.5 2l2 2t5 7l6 9t3 6t2.5 6t5.5 9q8 12 12 16t12 17z" />
    <glyph glyph-name="Edieresis" unicode="&#xcb;" horiz-adv-x="605" 
d="M483 98q21 0 38.5 -10.5t17.5 -34.5q-1 -21 -14.5 -34.5t-33.5 -15.5q-26 -2 -52.5 -1t-51.5 3q-23 1 -46 1h-46q-25 0 -49.5 -3t-49.5 -2q-15 1 -30.5 1.5t-30.5 3.5t-28 9.5t-23 19.5q-15 20 -17 43t-3 47q0 7 -0.5 16t-0.5 17q-1 12 1 24t2 25q1 45 0.5 89t-1.5 88
q-1 38 2 74t1 73q0 17 -1 35.5t0.5 36.5t6.5 34.5t17 31.5q11 14 25 20t29 8t31 1.5t32 -0.5q32 0 63 -0.5t63 -2.5q25 -1 49 -1.5t49 -0.5q20 0 45.5 2t45.5 -8q13 -6 19.5 -18t6.5 -25t-7 -24.5t-22 -15.5q-13 -4 -28.5 -2.5t-29.5 1.5q-30 1 -59.5 1.5t-59.5 0.5h-51
t-49 -2q-47 -5 -68.5 -35t-18.5 -76q1 -22 8.5 -42.5t24.5 -34.5q18 -16 40.5 -18.5t45.5 -2.5q20 0 39 1t37 -1q19 -2 27 -17.5t6 -32.5q-2 -16 -10 -27.5t-24 -13.5q-23 -4 -46 -5.5t-46 -2.5q-26 -1 -50.5 -10t-38.5 -34q-8 -16 -8.5 -36.5t1.5 -38.5q4 -27 25.5 -47
t45.5 -28q26 -10 52.5 -7t52.5 2q20 -1 38.5 -1t37.5 -2q19 -1 36.5 1t32.5 4zM179 846q0 11 11.5 21.5t22.5 10.5h7.5t2.5 -0.5t2.5 -0.5h8.5q11 0 20.5 -11.5t9.5 -22.5q0 -9 0.5 -12t1.5 -5t1.5 -5t0.5 -12q0 -11 -11.5 -21.5t-22.5 -10.5h-8.5t-2.5 0.5t-2.5 0.5h-7.5
q-11 0 -23 12t-12 23v12v4.5t0.5 4.5t0.5 12zM335 845q0 11 9 21.5t20 10.5h25q11 0 23 -10.5t12 -21.5v-12.5t0.5 -6.5t0.5 -6.5v-12.5q0 -11 -10.5 -21t-21.5 -10h-19q-15 0 -27.5 12.5t-12.5 23.5v12v4.5t0.5 4.5t0.5 12z" />
    <glyph glyph-name="Igrave" unicode="&#xcc;" horiz-adv-x="238" 
d="M82 9q-9 7 -10.5 16t0 18.5t3.5 19.5t-1 19q0 9 1.5 18t1.5 18v19t-0.5 25l-1 26t-0.5 22v60q0 29 1.5 59t-2.5 59q-3 23 -1 45t0 45q-1 11 -0.5 23.5t0.5 24.5v35t1 35q1 8 1.5 15t0.5 15q0 11 -0.5 24.5t2.5 24.5q4 15 17 21t27.5 4.5t27.5 -9.5t16 -21q5 -17 3 -33
t-3 -33q-1 -18 -0.5 -41t0.5 -41q0 -29 -2 -58.5t-2 -58.5q0 -35 1.5 -70t0.5 -70q-1 -32 -2 -63t-3 -63q-1 -15 -0.5 -29.5t2.5 -29.5q2 -17 3 -34.5t-11 -31.5q-6 -7 -15.5 -10t-20 -3.5t-20.5 2t-17 7.5zM154 796q6 -9 0 -17.5t-17 -8.5q-5 0 -3 -0.5t-3 -0.5
q-11 0 -22.5 7.5t-19.5 15.5l-5.5 5.5l-2 2t-2 1.5t-5.5 6q-9 10 -14 12.5t-13 12.5l-5 5l-1.5 1.5t-1.5 1t-5 5.5q-9 9 -13.5 12t-12.5 13q-8 8 -4.5 18.5t14.5 10.5t14 1t12 1h14q11 0 22 -6.5t17 -15.5q4 -6 7 -9t5.5 -6l5 -6t6.5 -9l19 -31q4 -6 5.5 -8t2 -3l1.5 -3
t5 -8z" />
    <glyph glyph-name="Iacute" unicode="&#xcd;" horiz-adv-x="238" 
d="M82 9q-9 7 -10.5 16t0 18.5t3.5 19.5t-1 19q0 9 1.5 18t1.5 18v19t-0.5 25l-1 26t-0.5 22v60q0 29 1.5 59t-2.5 59q-3 23 -1 45t0 45q-1 11 -0.5 23.5t0.5 24.5v35t1 35q1 8 1.5 15t0.5 15q0 11 -0.5 24.5t2.5 24.5q4 15 17 21t27.5 4.5t27.5 -9.5t16 -21q5 -17 3 -33
t-3 -33q-1 -18 -0.5 -41t0.5 -41q0 -29 -2 -58.5t-2 -58.5q0 -35 1.5 -70t0.5 -70q-1 -32 -2 -63t-3 -63q-1 -15 -0.5 -29.5t2.5 -29.5q2 -17 3 -34.5t-11 -31.5q-6 -7 -15.5 -10t-20 -3.5t-20.5 2t-17 7.5zM133 846q7 12 11.5 15t12.5 15q5 9 16.5 15.5t22.5 6.5h13
q10 0 13 -1t14 -1t14 -10.5t-5 -18.5q-8 -10 -12 -13t-13 -12q-5 -5 -6 -5.5t-1 -1t-1.5 -1.5t-5.5 -5q-8 -10 -12.5 -12.5t-13.5 -12.5l-6 -6t-2 -1.5t-2.5 -2l-5.5 -5.5q-7 -8 -19 -15.5t-23 -7.5q-4 0 -2.5 0.5t-2.5 0.5q-11 0 -17 8.5t0 17.5q4 6 5 8l1.5 3t2 3t5.5 8z
" />
    <glyph glyph-name="Icircumflex" unicode="&#xce;" horiz-adv-x="238" 
d="M82 9q-9 7 -10.5 16t0 18.5t3.5 19.5t-1 19q0 9 1.5 18t1.5 18v19t-0.5 25l-1 26t-0.5 22v60q0 29 1.5 59t-2.5 59q-3 23 -1 45t0 45q-1 11 -0.5 23.5t0.5 24.5v35t1 35q1 8 1.5 15t0.5 15q0 11 -0.5 24.5t2.5 24.5q4 15 17 21t27.5 4.5t27.5 -9.5t16 -21q5 -17 3 -33
t-3 -33q-1 -18 -0.5 -41t0.5 -41q0 -29 -2 -58.5t-2 -58.5q0 -35 1.5 -70t0.5 -70q-1 -32 -2 -63t-3 -63q-1 -15 -0.5 -29.5t2.5 -29.5q2 -17 3 -34.5t-11 -31.5q-6 -7 -15.5 -10t-20 -3.5t-20.5 2t-17 7.5zM61 872q14 18 40 23q15 3 20 2t19 -1q11 0 22.5 -9.5t17.5 -18.5
q8 -12 10.5 -14.5t10.5 -13.5q7 -12 11 -14t12 -14q4 -6 5.5 -8t2.5 -3.5t2.5 -4t5.5 -8.5q6 -9 3 -21.5t-14 -12.5h-17q-11 0 -21 6.5t-16 15.5q-7 9 -9 12.5t-8 12.5q-3 4 -11 11t-18 10t-22 -0.5t-24 -19.5q-6 -9 -7.5 -12.5t-8.5 -13.5q-6 -9 -15 -17t-23 -5q-9 1 -8 1
t-8 2t-11.5 13t3.5 21q4 6 5.5 7t2.5 2l2 2t5 7l6 9t3 6t2.5 6t5.5 9q8 12 12 16t12 17z" />
    <glyph glyph-name="Idieresis" unicode="&#xcf;" horiz-adv-x="238" 
d="M82 9q-9 7 -10.5 16t0 18.5t3.5 19.5t-1 19q0 9 1.5 18t1.5 18v19t-0.5 25l-1 26t-0.5 22v60q0 29 1.5 59t-2.5 59q-3 23 -1 45t0 45q-1 11 -0.5 23.5t0.5 24.5v35t1 35q1 8 1.5 15t0.5 15q0 11 -0.5 24.5t2.5 24.5q4 15 17 21t27.5 4.5t27.5 -9.5t16 -21q5 -17 3 -33
t-3 -33q-1 -18 -0.5 -41t0.5 -41q0 -29 -2 -58.5t-2 -58.5q0 -35 1.5 -70t0.5 -70q-1 -32 -2 -63t-3 -63q-1 -15 -0.5 -29.5t2.5 -29.5q2 -17 3 -34.5t-11 -31.5q-6 -7 -15.5 -10t-20 -3.5t-20.5 2t-17 7.5zM4 846q0 11 11.5 21.5t22.5 10.5h7.5t2.5 -0.5t2.5 -0.5h8.5
q11 0 20.5 -11.5t9.5 -22.5q0 -9 0.5 -12t1.5 -5t1.5 -5t0.5 -12q0 -11 -11.5 -21.5t-22.5 -10.5h-8.5t-2.5 0.5t-2.5 0.5h-7.5q-11 0 -23 12t-12 23v12v4.5t0.5 4.5t0.5 12zM160 845q0 11 9 21.5t20 10.5h25q11 0 23 -10.5t12 -21.5v-12.5t0.5 -6.5t0.5 -6.5v-12.5
q0 -11 -10.5 -21t-21.5 -10h-19q-15 0 -27.5 12.5t-12.5 23.5v12v4.5t0.5 4.5t0.5 12z" />
    <glyph glyph-name="Eth" unicode="&#xd0;" horiz-adv-x="729" 
d="M669 364q0 -175 -96 -269.5t-278 -94.5h-191v314h-74v78h74v322h213q167 0 259.5 -92t92.5 -258zM574 361q0 137 -68 206.5t-202 69.5h-110v-245h178v-78h-178v-237h90q290 0 290 284z" />
    <glyph glyph-name="Ntilde" unicode="&#xd1;" horiz-adv-x="714" 
d="M638 627q2 -38 -1 -77t-5 -77q-2 -30 -1 -60t1 -60q0 -23 -1.5 -46.5t0.5 -46.5q2 -17 2.5 -33.5t-1.5 -33.5q-1 -11 -1.5 -22.5t-0.5 -23.5q1 -27 4.5 -55.5t-2.5 -55.5q-5 -22 -26 -28.5t-41 0.5q-13 4 -21 20q-8 14 -13.5 29.5t-13.5 29.5q-26 49 -62 96
q-21 28 -44 54l-46 52q-16 18 -31 36.5t-31 36.5q-8 10 -21 21t-27.5 19t-30 10.5t-28.5 -4.5q-11 -6 -17.5 -16t-10 -22t-4.5 -24.5t-1 -23.5v-38t1 -38q2 -33 1.5 -68t-2.5 -68q-1 -14 -0.5 -32.5t0.5 -32.5q0 -9 -2 -19.5t-10 -16.5q-10 -8 -28.5 -9.5t-30.5 2.5
q-11 4 -15.5 13t-5.5 20q-2 31 1 67.5t3 67.5q0 34 0.5 67.5t-0.5 67.5q-1 26 -3 52t1 53q2 11 1.5 21t-0.5 21q1 14 2 27t2 27q2 22 1 43.5t-1 43.5v40t8 39q10 19 31.5 23.5t39.5 -3.5t31 -28t24 -36l57 -84q19 -28 38.5 -56t40.5 -54q17 -22 36 -42t37 -41
q8 -9 18.5 -22.5t22.5 -24t26 -14.5t29 5q12 8 14.5 19.5t3.5 24.5q1 17 1 34.5v34.5q1 32 2.5 63t2.5 63q1 26 0.5 53t0.5 54q1 18 4.5 35.5t22.5 25.5q12 5 26.5 4.5t25.5 -9.5q13 -11 15 -29.5t1 -33.5zM488 882q11 0 18.5 -9t4.5 -20q-2 -5 -3 -8t-2.5 -5.5t-3.5 -6
t-6 -9.5q-7 -11 -21 -25q-10 -14 -24 -22q-8 -3 -15.5 -5.5t-16.5 -2.5q-7 0 -16 2t-20 5l-36 12q-8 4 -16.5 7t-16.5 6q-23 7 -38.5 3.5t-21.5 -13.5t-19 -18t-23 -8q-11 0 -15 8t-1 19q5 11 8 13.5t11 13.5q4 7 7.5 14t9.5 13q5 6 12 10.5t15 8.5q13 8 30 8q7 0 13 -2.5
t17 -5.5l35 -11q9 -4 18 -5.5t17 -3.5q29 -9 42.5 -6t27.5 19q8 8 13 16t16 8z" />
    <glyph glyph-name="Ograve" unicode="&#xd2;" horiz-adv-x="779" 
d="M77 453q8 29 19.5 57.5t28.5 51.5q6 10 13.5 18.5t15.5 16.5q10 10 18 21t19 20q19 15 43 25.5t46 18.5q50 20 106.5 24t107.5 -16q51 -19 88.5 -53.5t73.5 -74.5q17 -20 27 -43.5t18 -47.5q8 -27 15 -55.5t9 -56.5t-2 -56t-10 -55q-7 -29 -19.5 -52t-25.5 -49
q-5 -9 -10.5 -18t-13.5 -16q-9 -8 -19.5 -15t-19.5 -18q-16 -18 -36.5 -31.5t-43.5 -23.5q-51 -22 -105 -26.5t-107 2.5q-26 3 -48.5 13.5t-43 25t-39 31.5t-37.5 34q-10 8 -19.5 18t-15.5 21q-7 12 -10.5 25.5t-8.5 25.5q-14 32 -18 64t-4 66q0 32 -1.5 64.5t9.5 63.5z
M333 605q-43 -9 -76.5 -36.5t-56 -64.5t-34 -80t-11.5 -83q-3 -36 4.5 -74.5t26.5 -69.5q20 -31 50.5 -55t63.5 -38q37 -17 74.5 -17t73 11.5t67.5 33.5t57 51q26 28 41 61t14 71q-1 42 -6.5 83.5t-21.5 79.5q-14 35 -43.5 65.5t-63.5 47.5q-17 8 -35 15.5t-38 7.5
q-10 0 -19.5 -1.5t-20.5 -2.5t-22 -1t-22 -2zM429 796q6 -9 0 -17.5t-17 -8.5q-5 0 -3 -0.5t-3 -0.5q-11 0 -22.5 7.5t-19.5 15.5l-5.5 5.5l-2 2t-2 1.5t-5.5 6q-9 10 -14 12.5t-13 12.5l-5 5l-1.5 1.5t-1.5 1t-5 5.5q-9 9 -13.5 12t-12.5 13q-8 8 -4.5 18.5t14.5 10.5t14 1
t12 1h14q11 0 22 -6.5t17 -15.5q4 -6 7 -9t5.5 -6l5 -6t6.5 -9l19 -31q4 -6 5.5 -8t2 -3l1.5 -3t5 -8z" />
    <glyph glyph-name="Oacute" unicode="&#xd3;" horiz-adv-x="779" 
d="M77 453q8 29 19.5 57.5t28.5 51.5q6 10 13.5 18.5t15.5 16.5q10 10 18 21t19 20q19 15 43 25.5t46 18.5q50 20 106.5 24t107.5 -16q51 -19 88.5 -53.5t73.5 -74.5q17 -20 27 -43.5t18 -47.5q8 -27 15 -55.5t9 -56.5t-2 -56t-10 -55q-7 -29 -19.5 -52t-25.5 -49
q-5 -9 -10.5 -18t-13.5 -16q-9 -8 -19.5 -15t-19.5 -18q-16 -18 -36.5 -31.5t-43.5 -23.5q-51 -22 -105 -26.5t-107 2.5q-26 3 -48.5 13.5t-43 25t-39 31.5t-37.5 34q-10 8 -19.5 18t-15.5 21q-7 12 -10.5 25.5t-8.5 25.5q-14 32 -18 64t-4 66q0 32 -1.5 64.5t9.5 63.5z
M333 605q-43 -9 -76.5 -36.5t-56 -64.5t-34 -80t-11.5 -83q-3 -36 4.5 -74.5t26.5 -69.5q20 -31 50.5 -55t63.5 -38q37 -17 74.5 -17t73 11.5t67.5 33.5t57 51q26 28 41 61t14 71q-1 42 -6.5 83.5t-21.5 79.5q-14 35 -43.5 65.5t-63.5 47.5q-17 8 -35 15.5t-38 7.5
q-10 0 -19.5 -1.5t-20.5 -2.5t-22 -1t-22 -2zM397 846q7 12 11.5 15t12.5 15q5 9 16.5 15.5t22.5 6.5h13q10 0 13 -1t14 -1t14 -10.5t-5 -18.5q-8 -10 -12 -13t-13 -12q-5 -5 -6 -5.5t-1 -1t-1.5 -1.5t-5.5 -5q-8 -10 -12.5 -12.5t-13.5 -12.5l-6 -6t-2 -1.5t-2.5 -2
l-5.5 -5.5q-7 -8 -19 -15.5t-23 -7.5q-4 0 -2.5 0.5t-2.5 0.5q-11 0 -17 8.5t0 17.5q4 6 5 8l1.5 3t2 3t5.5 8z" />
    <glyph glyph-name="Ocircumflex" unicode="&#xd4;" horiz-adv-x="779" 
d="M77 453q8 29 19.5 57.5t28.5 51.5q6 10 13.5 18.5t15.5 16.5q10 10 18 21t19 20q19 15 43 25.5t46 18.5q50 20 106.5 24t107.5 -16q51 -19 88.5 -53.5t73.5 -74.5q17 -20 27 -43.5t18 -47.5q8 -27 15 -55.5t9 -56.5t-2 -56t-10 -55q-7 -29 -19.5 -52t-25.5 -49
q-5 -9 -10.5 -18t-13.5 -16q-9 -8 -19.5 -15t-19.5 -18q-16 -18 -36.5 -31.5t-43.5 -23.5q-51 -22 -105 -26.5t-107 2.5q-26 3 -48.5 13.5t-43 25t-39 31.5t-37.5 34q-10 8 -19.5 18t-15.5 21q-7 12 -10.5 25.5t-8.5 25.5q-14 32 -18 64t-4 66q0 32 -1.5 64.5t9.5 63.5z
M333 605q-43 -9 -76.5 -36.5t-56 -64.5t-34 -80t-11.5 -83q-3 -36 4.5 -74.5t26.5 -69.5q20 -31 50.5 -55t63.5 -38q37 -17 74.5 -17t73 11.5t67.5 33.5t57 51q26 28 41 61t14 71q-1 42 -6.5 83.5t-21.5 79.5q-14 35 -43.5 65.5t-63.5 47.5q-17 8 -35 15.5t-38 7.5
q-10 0 -19.5 -1.5t-20.5 -2.5t-22 -1t-22 -2zM341 872q14 18 40 23q15 3 20 2t19 -1q11 0 22.5 -9.5t17.5 -18.5q8 -12 10.5 -14.5t10.5 -13.5q7 -12 11 -14t12 -14q4 -6 5.5 -8t2.5 -3.5t2.5 -4t5.5 -8.5q6 -9 3 -21.5t-14 -12.5h-17q-11 0 -21 6.5t-16 15.5q-7 9 -9 12.5
t-8 12.5q-3 4 -11 11t-18 10t-22 -0.5t-24 -19.5q-6 -9 -7.5 -12.5t-8.5 -13.5q-6 -9 -15 -17t-23 -5q-9 1 -8 1t-8 2t-11.5 13t3.5 21q4 6 5.5 7t2.5 2l2 2t5 7l6 9t3 6t2.5 6t5.5 9q8 12 12 16t12 17z" />
    <glyph glyph-name="Otilde" unicode="&#xd5;" horiz-adv-x="779" 
d="M77 453q8 29 19.5 57.5t28.5 51.5q6 10 13.5 18.5t15.5 16.5q10 10 18 21t19 20q19 15 43 25.5t46 18.5q50 20 106.5 24t107.5 -16q51 -19 88.5 -53.5t73.5 -74.5q17 -20 27 -43.5t18 -47.5q8 -27 15 -55.5t9 -56.5t-2 -56t-10 -55q-7 -29 -19.5 -52t-25.5 -49
q-5 -9 -10.5 -18t-13.5 -16q-9 -8 -19.5 -15t-19.5 -18q-16 -18 -36.5 -31.5t-43.5 -23.5q-51 -22 -105 -26.5t-107 2.5q-26 3 -48.5 13.5t-43 25t-39 31.5t-37.5 34q-10 8 -19.5 18t-15.5 21q-7 12 -10.5 25.5t-8.5 25.5q-14 32 -18 64t-4 66q0 32 -1.5 64.5t9.5 63.5z
M333 605q-43 -9 -76.5 -36.5t-56 -64.5t-34 -80t-11.5 -83q-3 -36 4.5 -74.5t26.5 -69.5q20 -31 50.5 -55t63.5 -38q37 -17 74.5 -17t73 11.5t67.5 33.5t57 51q26 28 41 61t14 71q-1 42 -6.5 83.5t-21.5 79.5q-14 35 -43.5 65.5t-63.5 47.5q-17 8 -35 15.5t-38 7.5
q-10 0 -19.5 -1.5t-20.5 -2.5t-22 -1t-22 -2zM541 876q11 0 18.5 -9t4.5 -20q-2 -5 -3 -8t-2.5 -5.5t-3.5 -6t-6 -9.5q-7 -11 -21 -25q-10 -14 -24 -22q-8 -3 -15.5 -5.5t-16.5 -2.5q-7 0 -16 2t-20 5l-36 12q-8 4 -16.5 7t-16.5 6q-23 7 -38.5 3.5t-21.5 -13.5t-19 -18
t-23 -8q-11 0 -15 8t-1 19q5 11 8 13.5t11 13.5q4 7 7.5 14t9.5 13q5 6 12 10.5t15 8.5q13 8 30 8q7 0 13 -2.5t17 -5.5l35 -11q9 -4 18 -5.5t17 -3.5q29 -9 42.5 -6t27.5 19q8 8 13 16t16 8z" />
    <glyph glyph-name="Odieresis" unicode="&#xd6;" horiz-adv-x="779" 
d="M77 453q8 29 19.5 57.5t28.5 51.5q6 10 13.5 18.5t15.5 16.5q10 10 18 21t19 20q19 15 43 25.5t46 18.5q50 20 106.5 24t107.5 -16q51 -19 88.5 -53.5t73.5 -74.5q17 -20 27 -43.5t18 -47.5q8 -27 15 -55.5t9 -56.5t-2 -56t-10 -55q-7 -29 -19.5 -52t-25.5 -49
q-5 -9 -10.5 -18t-13.5 -16q-9 -8 -19.5 -15t-19.5 -18q-16 -18 -36.5 -31.5t-43.5 -23.5q-51 -22 -105 -26.5t-107 2.5q-26 3 -48.5 13.5t-43 25t-39 31.5t-37.5 34q-10 8 -19.5 18t-15.5 21q-7 12 -10.5 25.5t-8.5 25.5q-14 32 -18 64t-4 66q0 32 -1.5 64.5t9.5 63.5z
M333 605q-43 -9 -76.5 -36.5t-56 -64.5t-34 -80t-11.5 -83q-3 -36 4.5 -74.5t26.5 -69.5q20 -31 50.5 -55t63.5 -38q37 -17 74.5 -17t73 11.5t67.5 33.5t57 51q26 28 41 61t14 71q-1 42 -6.5 83.5t-21.5 79.5q-14 35 -43.5 65.5t-63.5 47.5q-17 8 -35 15.5t-38 7.5
q-10 0 -19.5 -1.5t-20.5 -2.5t-22 -1t-22 -2zM276 846q0 11 11.5 21.5t22.5 10.5h7.5t2.5 -0.5t2.5 -0.5h8.5q11 0 20.5 -11.5t9.5 -22.5q0 -9 0.5 -12t1.5 -5t1.5 -5t0.5 -12q0 -11 -11.5 -21.5t-22.5 -10.5h-8.5t-2.5 0.5t-2.5 0.5h-7.5q-11 0 -23 12t-12 23v12v4.5
t0.5 4.5t0.5 12zM432 845q0 11 9 21.5t20 10.5h25q11 0 23 -10.5t12 -21.5v-12.5t0.5 -6.5t0.5 -6.5v-12.5q0 -11 -10.5 -21t-21.5 -10h-19q-15 0 -27.5 12.5t-12.5 23.5v12v4.5t0.5 4.5t0.5 12z" />
    <glyph glyph-name="multiply" unicode="&#xd7;" horiz-adv-x="550" 
d="M224 321l-155 156l51 51l155 -155l157 155l51 -50l-157 -157l156 -156l-50 -50l-157 155l-155 -154l-50 51zM221 622z" />
    <glyph glyph-name="Oslash" unicode="&#xd8;" horiz-adv-x="779" 
d="M727 424q3 -13 6.5 -24.5t3.5 -23.5q-2 -46 -7.5 -79.5t-12.5 -56.5t-14 -36.5t-11 -19.5q0 3 -3.5 -3.5t-9.5 -17.5t-14 -22.5t-17 -18.5q-14 -10 -27 -22.5t-21 -26.5q3 1 -15.5 -10t-46 -24.5t-59 -24.5t-54.5 -11q-2 0 -4 0.5t-4 0.5q-5 -2 -6.5 -2h-3.5h-44
q-6 0 -13 -0.5t-16.5 -4t-23.5 -11.5t-34 -22q-2 -4 -4 -7.5t-3 -8.5q-4 -24 -22 -39.5t-33 -15.5q-17 0 -32.5 12t-15.5 29q0 11 5 23t10.5 24t10.5 24t5 23q0 19 -12.5 37t-38.5 42q-10 9 -16.5 15.5t-12 15t-10.5 21.5t-11 34q-13 23 -18 54.5t-5 70.5q0 2 0.5 16t0.5 28
q0 15 -1 23t-1 12q0 16 5 34t12.5 35t16 33.5t16.5 29.5q2 6 4 11.5t7 13.5l1 1q7 10 17 23.5t22 27t25 24.5t26 17l5 1q2 4 7 7l10 6q5 2 15 7.5t21.5 11.5t23.5 10.5t21 4.5l62 9q5 1 8.5 1h8.5q14 0 27 -2t25 -2q19 0 40 12t38 53l11 26q5 13 20 18.5t24 5.5
q13 0 20.5 -4t12.5 -10t8 -13t8 -13q0 -8 -1 -13l-6 -14q-6 -14 -16.5 -32t-10.5 -35q0 -14 12 -42t52 -73q9 -11 16.5 -23.5t12.5 -24.5l5 -12v-4q-2 1 1.5 -8t8 -21.5t9 -26.5t4.5 -23zM192 198q8 -16 16.5 -22.5t16.5 -6.5q10 0 20.5 9t20.5 22.5t19 28.5t17 28
q5 7 13.5 19.5t11.5 26.5q8 20 12 30.5t11 23.5q2 5 7.5 14.5t10.5 20.5v2q0 6 8 24t17 38t17 37t8 21q20 29 20 54q0 22 -14.5 35t-39.5 13q-10 0 -30 -6t-40 -15t-36.5 -19t-19.5 -18q0 1 -10.5 -8t-17.5 -24q-6 -5 -15 -21.5t-18 -34.5t-15.5 -32.5t-6.5 -15.5
q-5 -14 -7.5 -28t-2.5 -28v-30v-7q0 -21 3.5 -43.5t8 -41t9 -31.5t6.5 -15zM640 292q0 2 0.5 5.5t0.5 8.5q0 62 -8 103t-19 65t-22.5 34t-18.5 10q-14 0 -29.5 -16t-29.5 -38t-26 -43.5t-19 -33.5q-7 -17 -15 -30t-12 -27q0 -11 -12 -29t-20 -35l-20 -55q-5 -13 -11 -23.5
t-12 -20t-10 -19t-4 -19.5q0 -17 9.5 -30t28.5 -13q10 0 19 4q4 1 16.5 4t27 7t28 9t19.5 10q2 4 6.5 7l7.5 5l19 12q13 10 28.5 24.5t30.5 33t27.5 41t19.5 49.5z" />
    <glyph glyph-name="Ugrave" unicode="&#xd9;" horiz-adv-x="660" 
d="M71 449q-1 14 0.5 28.5t2.5 28.5q4 9 2 20.5t-2 21.5v54q0 16 1 32t4 32q3 18 17 27t30 9t29.5 -9t15.5 -27q2 -14 1 -28.5t-2 -28.5q-2 -26 -2 -51t-2 -51q-1 -12 -1 -24v-24q0 -14 -1.5 -27t-0.5 -27q1 -24 0 -49t3 -48q5 -31 13.5 -62t24.5 -58q8 -14 17.5 -28
t22.5 -25q34 -27 78 -37q39 -9 76.5 2t60.5 46q20 32 26 69.5t8 74.5q2 26 1 51.5t2 51.5q4 28 3.5 56t0.5 56q0 10 0.5 19.5t0.5 19.5q0 24 -2 47.5t-2 47.5q0 14 3.5 28t14.5 24t28.5 12t30.5 -6q12 -7 14.5 -15.5t2.5 -21.5q1 -14 2.5 -28t0.5 -28q-1 -25 0 -49.5
t0 -49.5q-1 -17 -3 -33t-4 -33q-2 -18 -0.5 -35.5t-0.5 -35.5q-3 -27 -2 -53t0 -53q0 -23 -5 -46t-12 -45q-12 -41 -36 -77q-11 -16 -27 -28t-32 -22q-20 -13 -42.5 -23t-45.5 -17t-48.5 -5.5t-48.5 7.5q-35 10 -71 29.5t-62 45.5q-8 7 -13.5 17t-11.5 18q-7 9 -11.5 18.5
t-8.5 20.5q-8 21 -15.5 42t-12.5 43q-10 39 -9 78t0 79q0 13 -1.5 25t-2.5 25zM361 796q6 -9 0 -17.5t-17 -8.5q-5 0 -3 -0.5t-3 -0.5q-11 0 -22.5 7.5t-19.5 15.5l-5.5 5.5l-2 2t-2 1.5t-5.5 6q-9 10 -14 12.5t-13 12.5l-5 5l-1.5 1.5t-1.5 1t-5 5.5q-9 9 -13.5 12
t-12.5 13q-8 8 -4.5 18.5t14.5 10.5t14 1t12 1h14q11 0 22 -6.5t17 -15.5q4 -6 7 -9t5.5 -6l5 -6t6.5 -9l19 -31q4 -6 5.5 -8t2 -3l1.5 -3t5 -8z" />
    <glyph glyph-name="Uacute" unicode="&#xda;" horiz-adv-x="660" 
d="M71 449q-1 14 0.5 28.5t2.5 28.5q4 9 2 20.5t-2 21.5v54q0 16 1 32t4 32q3 18 17 27t30 9t29.5 -9t15.5 -27q2 -14 1 -28.5t-2 -28.5q-2 -26 -2 -51t-2 -51q-1 -12 -1 -24v-24q0 -14 -1.5 -27t-0.5 -27q1 -24 0 -49t3 -48q5 -31 13.5 -62t24.5 -58q8 -14 17.5 -28
t22.5 -25q34 -27 78 -37q39 -9 76.5 2t60.5 46q20 32 26 69.5t8 74.5q2 26 1 51.5t2 51.5q4 28 3.5 56t0.5 56q0 10 0.5 19.5t0.5 19.5q0 24 -2 47.5t-2 47.5q0 14 3.5 28t14.5 24t28.5 12t30.5 -6q12 -7 14.5 -15.5t2.5 -21.5q1 -14 2.5 -28t0.5 -28q-1 -25 0 -49.5
t0 -49.5q-1 -17 -3 -33t-4 -33q-2 -18 -0.5 -35.5t-0.5 -35.5q-3 -27 -2 -53t0 -53q0 -23 -5 -46t-12 -45q-12 -41 -36 -77q-11 -16 -27 -28t-32 -22q-20 -13 -42.5 -23t-45.5 -17t-48.5 -5.5t-48.5 7.5q-35 10 -71 29.5t-62 45.5q-8 7 -13.5 17t-11.5 18q-7 9 -11.5 18.5
t-8.5 20.5q-8 21 -15.5 42t-12.5 43q-10 39 -9 78t0 79q0 13 -1.5 25t-2.5 25zM355 846q7 12 11.5 15t12.5 15q5 9 16.5 15.5t22.5 6.5h13q10 0 13 -1t14 -1t14 -10.5t-5 -18.5q-8 -10 -12 -13t-13 -12q-5 -5 -6 -5.5t-1 -1t-1.5 -1.5t-5.5 -5q-8 -10 -12.5 -12.5
t-13.5 -12.5l-6 -6t-2 -1.5t-2.5 -2l-5.5 -5.5q-7 -8 -19 -15.5t-23 -7.5q-4 0 -2.5 0.5t-2.5 0.5q-11 0 -17 8.5t0 17.5q4 6 5 8l1.5 3t2 3t5.5 8z" />
    <glyph glyph-name="Ucircumflex" unicode="&#xdb;" horiz-adv-x="660" 
d="M71 449q-1 14 0.5 28.5t2.5 28.5q4 9 2 20.5t-2 21.5v54q0 16 1 32t4 32q3 18 17 27t30 9t29.5 -9t15.5 -27q2 -14 1 -28.5t-2 -28.5q-2 -26 -2 -51t-2 -51q-1 -12 -1 -24v-24q0 -14 -1.5 -27t-0.5 -27q1 -24 0 -49t3 -48q5 -31 13.5 -62t24.5 -58q8 -14 17.5 -28
t22.5 -25q34 -27 78 -37q39 -9 76.5 2t60.5 46q20 32 26 69.5t8 74.5q2 26 1 51.5t2 51.5q4 28 3.5 56t0.5 56q0 10 0.5 19.5t0.5 19.5q0 24 -2 47.5t-2 47.5q0 14 3.5 28t14.5 24t28.5 12t30.5 -6q12 -7 14.5 -15.5t2.5 -21.5q1 -14 2.5 -28t0.5 -28q-1 -25 0 -49.5
t0 -49.5q-1 -17 -3 -33t-4 -33q-2 -18 -0.5 -35.5t-0.5 -35.5q-3 -27 -2 -53t0 -53q0 -23 -5 -46t-12 -45q-12 -41 -36 -77q-11 -16 -27 -28t-32 -22q-20 -13 -42.5 -23t-45.5 -17t-48.5 -5.5t-48.5 7.5q-35 10 -71 29.5t-62 45.5q-8 7 -13.5 17t-11.5 18q-7 9 -11.5 18.5
t-8.5 20.5q-8 21 -15.5 42t-12.5 43q-10 39 -9 78t0 79q0 13 -1.5 25t-2.5 25zM286 872q14 18 40 23q15 3 20 2t19 -1q11 0 22.5 -9.5t17.5 -18.5q8 -12 10.5 -14.5t10.5 -13.5q7 -12 11 -14t12 -14q4 -6 5.5 -8t2.5 -3.5t2.5 -4t5.5 -8.5q6 -9 3 -21.5t-14 -12.5h-17
q-11 0 -21 6.5t-16 15.5q-7 9 -9 12.5t-8 12.5q-3 4 -11 11t-18 10t-22 -0.5t-24 -19.5q-6 -9 -7.5 -12.5t-8.5 -13.5q-6 -9 -15 -17t-23 -5q-9 1 -8 1t-8 2t-11.5 13t3.5 21q4 6 5.5 7t2.5 2l2 2t5 7l6 9t3 6t2.5 6t5.5 9q8 12 12 16t12 17z" />
    <glyph glyph-name="Udieresis" unicode="&#xdc;" horiz-adv-x="660" 
d="M71 449q-1 14 0.5 28.5t2.5 28.5q4 9 2 20.5t-2 21.5v54q0 16 1 32t4 32q3 18 17 27t30 9t29.5 -9t15.5 -27q2 -14 1 -28.5t-2 -28.5q-2 -26 -2 -51t-2 -51q-1 -12 -1 -24v-24q0 -14 -1.5 -27t-0.5 -27q1 -24 0 -49t3 -48q5 -31 13.5 -62t24.5 -58q8 -14 17.5 -28
t22.5 -25q34 -27 78 -37q39 -9 76.5 2t60.5 46q20 32 26 69.5t8 74.5q2 26 1 51.5t2 51.5q4 28 3.5 56t0.5 56q0 10 0.5 19.5t0.5 19.5q0 24 -2 47.5t-2 47.5q0 14 3.5 28t14.5 24t28.5 12t30.5 -6q12 -7 14.5 -15.5t2.5 -21.5q1 -14 2.5 -28t0.5 -28q-1 -25 0 -49.5
t0 -49.5q-1 -17 -3 -33t-4 -33q-2 -18 -0.5 -35.5t-0.5 -35.5q-3 -27 -2 -53t0 -53q0 -23 -5 -46t-12 -45q-12 -41 -36 -77q-11 -16 -27 -28t-32 -22q-20 -13 -42.5 -23t-45.5 -17t-48.5 -5.5t-48.5 7.5q-35 10 -71 29.5t-62 45.5q-8 7 -13.5 17t-11.5 18q-7 9 -11.5 18.5
t-8.5 20.5q-8 21 -15.5 42t-12.5 43q-10 39 -9 78t0 79q0 13 -1.5 25t-2.5 25zM220 846q0 11 11.5 21.5t22.5 10.5h7.5t2.5 -0.5t2.5 -0.5h8.5q11 0 20.5 -11.5t9.5 -22.5q0 -9 0.5 -12t1.5 -5t1.5 -5t0.5 -12q0 -11 -11.5 -21.5t-22.5 -10.5h-8.5t-2.5 0.5t-2.5 0.5h-7.5
q-11 0 -23 12t-12 23v12v4.5t0.5 4.5t0.5 12zM376 845q0 11 9 21.5t20 10.5h25q11 0 23 -10.5t12 -21.5v-12.5t0.5 -6.5t0.5 -6.5v-12.5q0 -11 -10.5 -21t-21.5 -10h-19q-15 0 -27.5 12.5t-12.5 23.5v12v4.5t0.5 4.5t0.5 12z" />
    <glyph glyph-name="Yacute" unicode="&#xdd;" horiz-adv-x="663" 
d="M585 636q-10 -17 -19 -33.5t-17 -33.5q-3 -7 -8 -13.5t-9 -13.5q-7 -12 -13.5 -24t-13.5 -23q-16 -27 -31.5 -54.5t-34.5 -53.5q-10 -13 -19.5 -25t-17.5 -28q-9 -19 -14.5 -39t-6.5 -41q-2 -34 -5.5 -67.5t-4.5 -67.5v-27t2 -27q2 -12 2 -26.5t-9 -24.5
q-11 -12 -33 -15.5t-35 6.5q-12 10 -14 25t-1 29q1 13 0.5 25.5t0.5 25.5q1 15 0.5 30.5t-2.5 30.5q-2 19 0 38t1 39q-1 17 -6.5 35t-13.5 34q-17 38 -39 76t-45 74q-14 21 -28.5 42.5t-27.5 43.5q-8 14 -15.5 29.5t-15.5 29.5q-6 11 -13 21.5t-10 21.5q-8 26 14 40
q33 22 59 -6q9 -9 15 -19.5t13 -21.5q8 -13 16.5 -25.5t15.5 -26.5q13 -25 24.5 -48t28.5 -46q11 -14 20 -28t26 -22q13 -6 27 -5.5t27 5.5q24 10 36 30.5t24 41.5q14 26 29.5 50.5t30.5 49.5q5 9 11.5 17.5t12.5 17.5q8 11 17.5 21t22.5 15t28.5 1.5t23.5 -17.5
q6 -11 2 -23.5t-10 -22.5zM361 796q6 -9 0 -17.5t-17 -8.5q-5 0 -3 -0.5t-3 -0.5q-11 0 -22.5 7.5t-19.5 15.5l-5.5 5.5l-2 2t-2 1.5t-5.5 6q-9 10 -14 12.5t-13 12.5l-5 5l-1.5 1.5t-1.5 1t-5 5.5q-9 9 -13.5 12t-12.5 13q-8 8 -4.5 18.5t14.5 10.5t14 1t12 1h14
q11 0 22 -6.5t17 -15.5q4 -6 7 -9t5.5 -6l5 -6t6.5 -9l19 -31q4 -6 5.5 -8t2 -3l1.5 -3t5 -8z" />
    <glyph glyph-name="Thorn" unicode="&#xde;" horiz-adv-x="504" 
d="M76 661q0 10 8 24.5t19 14.5h31q20 -3 23.5 -21.5t4 -39.5t4.5 -37.5t25 -16.5q26 0 50 -4t49 -12q39 -9 63 -25t37.5 -37t18.5 -47.5t5 -56.5q0 -82 -11 -132q-12 -33 -23 -50t-24.5 -26.5t-30.5 -14.5t-39 -13q-20 -10 -43.5 -17t-50.5 -7q-14 0 -20.5 -6.5t-9 -15
t-2.5 -17.5v-15v-33v-7t0.5 -3t0.5 -2.5v-7.5q0 -14 -8 -22t-17.5 -12t-18.5 -4.5t-11 -0.5q-11 0 -22 12.5t-11 23.5v28q0 25 1.5 54t1.5 46q0 7 -0.5 11t-1 7t-1 7t-0.5 10q0 13 2 17t2 17q0 17 -0.5 34t-0.5 34v69q0 11 -2 15.5t-2 18.5q0 6 0.5 9.5t1.5 6.5t1.5 7
t0.5 11v68q0 23 -1.5 50.5t-1.5 50.5q0 12 1.5 16.5t1.5 13.5v5v22zM296 254q14 10 26 38t12 88q0 10 -3 26.5t-8 25.5q-9 19 -15.5 29t-13.5 15t-17.5 8.5t-28.5 11.5q-9 3 -18 3q-23 0 -36.5 -12.5t-21 -29t-10 -33.5t-2.5 -26q0 -7 0.5 -11t1 -7t1 -7t0.5 -10
q0 -13 -1.5 -34.5t-1.5 -35.5q2 -31 24.5 -44t49.5 -13q17 0 34 5t28 13z" />
    <glyph glyph-name="germandbls" unicode="&#xdf;" horiz-adv-x="621" 
d="M125 601q21 22 39 40t39 31t47.5 20t63.5 7q16 0 44.5 -3t60 -11.5t60 -24.5t45.5 -41q3 -8 4.5 -15.5t4.5 -16.5q4 -11 7.5 -21t3.5 -23q0 -5 -0.5 -10t-0.5 -12q0 -29 -8 -46t-18 -28.5t-18 -20.5t-8 -21q1 -8 6 -20t19 -29q21 -24 26 -58.5t5 -62.5q0 -15 -2 -20
t-2 -18v-40q0 -30 -21 -58.5t-51 -51.5t-62 -37t-54 -14q-17 0 -23 11t-6 25v12q0 11 10 19.5t24 13.5q39 15 59.5 30.5t29 36.5t9.5 49t1 67q0 13 -3.5 17t-3.5 17q0 14 -11 22.5t-26.5 15.5t-33.5 13t-31 14q-12 7 -17 12t-6.5 9t-0.5 8t1 9q0 18 5 31.5t28 15.5
q3 1 17 5.5t29 10.5t27.5 13t14.5 12q5 9 5 23v38.5t-10 35t-33.5 25.5t-70.5 10q-33 0 -65 -6t-48 -19q-17 -14 -28 -34t-17 -40t-8 -36.5t-2 -23.5t0.5 -11t0.5 -7.5t0.5 -7.5t0.5 -11q0 -13 -1.5 -17.5t-1.5 -18.5q0 -12 1 -33t2.5 -46t2.5 -51.5t1 -48.5q0 -7 -1 -11
t-2 -7t-2 -7t-1 -11q0 -14 1 -18.5t1 -16.5q0 -14 -1 -18.5t-1 -17.5q0 -17 1 -32.5t1 -30.5q0 -19 -5.5 -28t-13 -12.5t-16.5 -3t-16 0.5q-17 0 -28.5 11.5t-11.5 22.5v34v70q0 14 2.5 33t2.5 36q0 6 -1 9.5t-1.5 6.5t-1.5 7t-1 11v35v105q0 25 1 54.5t5 60t12.5 59.5
t24.5 53z" />
    <glyph glyph-name="agrave" unicode="&#xe0;" horiz-adv-x="560" 
d="M333 619q3 -5 3 -9q0 -9 -8 -13.5t-18 -4.5t-21.5 6.5t-23.5 16.5t-22 21t-17 19l-7 5.5t-15.5 13t-15 16.5t-6.5 16t4.5 11t11.5 5.5t13.5 1.5h11.5q30 0 47.5 -16.5t29.5 -35.5l19 -31q4 -6 5.5 -8t2 -3t2 -3t4.5 -8zM397 507q31 -12 50.5 -34t30 -49.5t13.5 -58.5
t3 -61q-1 -38 -2.5 -76.5t-1.5 -76.5q0 -15 2 -33.5t2 -37.5t-4 -36.5t-16 -28.5q-18 -17 -40.5 -12t-33.5 25q-8 14 -15.5 18t-22.5 -4q-13 -8 -26 -14t-27 -11q-27 -9 -57 -11t-59.5 3.5t-56 19t-46.5 35.5q-18 20 -27.5 45.5t-9.5 52t10 51.5t30 44q21 19 47 30.5
t54.5 17t57.5 7t56 2.5q12 0 28 -1t30 1t24 9.5t10 24.5q-1 29 -14 52.5t-41 34.5q-25 11 -52.5 10t-53.5 -7q-13 -3 -26 -6.5t-24 -10.5q-11 -6 -20.5 -14t-20.5 -14q-11 -7 -23 -9.5t-24 5.5q-11 6 -17 17.5t-4 23.5t10 20.5t19 15t23 11t21 9.5q55 29 118 37t122 -15z
M402 176q2 24 -5 42.5t-35 21.5q-26 3 -54 2.5t-54 -2.5q-21 -2 -43 -7.5t-39.5 -16.5t-27 -29t-5.5 -45q3 -23 17 -38t33.5 -23.5t41 -11t41.5 -0.5q23 2 45.5 10t40.5 21t30 32t15 44h-1z" />
    <glyph glyph-name="aacute" unicode="&#xe1;" horiz-adv-x="560" 
d="M301 672q14 22 31 37t45 15h11.5t14 -1.5t11.5 -5.5t5 -11t-7 -15.5t-17.5 -18t-23 -20t-23.5 -22.5q-3 -3 -8.5 -9t-13.5 -12.5t-17 -11.5t-19 -5h-3q0 -1 -11 3.5t-11 14.5q0 11 6 17.5t11 13.5zM397 507q31 -12 50.5 -34t30 -49.5t13.5 -58.5t3 -61q-1 -38 -2.5 -76.5
t-1.5 -76.5q0 -15 2 -33.5t2 -37.5t-4 -36.5t-16 -28.5q-18 -17 -40.5 -12t-33.5 25q-8 14 -15.5 18t-22.5 -4q-13 -8 -26 -14t-27 -11q-27 -9 -57 -11t-59.5 3.5t-56 19t-46.5 35.5q-18 20 -27.5 45.5t-9.5 52t10 51.5t30 44q21 19 47 30.5t54.5 17t57.5 7t56 2.5
q12 0 28 -1t30 1t24 9.5t10 24.5q-1 29 -14 52.5t-41 34.5q-25 11 -52.5 10t-53.5 -7q-13 -3 -26 -6.5t-24 -10.5q-11 -6 -20.5 -14t-20.5 -14q-11 -7 -23 -9.5t-24 5.5q-11 6 -17 17.5t-4 23.5t10 20.5t19 15t23 11t21 9.5q55 29 118 37t122 -15zM402 176q2 24 -5 42.5
t-35 21.5q-26 3 -54 2.5t-54 -2.5q-21 -2 -43 -7.5t-39.5 -16.5t-27 -29t-5.5 -45q3 -23 17 -38t33.5 -23.5t41 -11t41.5 -0.5q23 2 45.5 10t40.5 21t30 32t15 44h-1z" />
    <glyph glyph-name="acircumflex" unicode="&#xe2;" horiz-adv-x="560" 
d="M244 711q9 12 25 18.5t32 6.5q18 0 30.5 -5.5t22 -13.5t16.5 -18l14 -20q4 -6 11 -13t14 -15t12.5 -17.5t5.5 -20.5q0 -8 -4 -14t-11 -6h-17q-18 0 -26.5 11t-16 24t-18.5 24t-33 11q-15 0 -23.5 -11t-16.5 -24.5t-17.5 -24.5t-25.5 -11h-5t-11.5 2t-12 7t-5.5 14
q0 6 6.5 17t15.5 24.5t19.5 28t18.5 26.5zM397 507q31 -12 50.5 -34t30 -49.5t13.5 -58.5t3 -61q-1 -38 -2.5 -76.5t-1.5 -76.5q0 -15 2 -33.5t2 -37.5t-4 -36.5t-16 -28.5q-18 -17 -40.5 -12t-33.5 25q-8 14 -15.5 18t-22.5 -4q-13 -8 -26 -14t-27 -11q-27 -9 -57 -11
t-59.5 3.5t-56 19t-46.5 35.5q-18 20 -27.5 45.5t-9.5 52t10 51.5t30 44q21 19 47 30.5t54.5 17t57.5 7t56 2.5q12 0 28 -1t30 1t24 9.5t10 24.5q-1 29 -14 52.5t-41 34.5q-25 11 -52.5 10t-53.5 -7q-13 -3 -26 -6.5t-24 -10.5q-11 -6 -20.5 -14t-20.5 -14q-11 -7 -23 -9.5
t-24 5.5q-11 6 -17 17.5t-4 23.5t10 20.5t19 15t23 11t21 9.5q55 29 118 37t122 -15zM402 176q2 24 -5 42.5t-35 21.5q-26 3 -54 2.5t-54 -2.5q-21 -2 -43 -7.5t-39.5 -16.5t-27 -29t-5.5 -45q3 -23 17 -38t33.5 -23.5t41 -11t41.5 -0.5q23 2 45.5 10t40.5 21t30 32t15 44
h-1z" />
    <glyph glyph-name="atilde" unicode="&#xe3;" horiz-adv-x="560" 
d="M432 708q9 0 16.5 -7t7.5 -17q0 -1 -0.5 -2t-0.5 -3l-5.5 -13t-16.5 -28.5t-28.5 -29t-41.5 -13.5q-16 0 -36 7l-36 12q-15 7 -30.5 12t-29.5 5q-15 0 -24 -6.5t-16.5 -14t-15 -13.5t-19.5 -6q-17 0 -17 19q-1 15 6 19.5t14 15.5q11 18 27 36t47 18q7 0 13 -2.5t17 -5.5
l35 -11q18 -8 38.5 -12t29.5 -4q12 0 20.5 7t16 15t14.5 15t15 7zM397 507q31 -12 50.5 -34t30 -49.5t13.5 -58.5t3 -61q-1 -38 -2.5 -76.5t-1.5 -76.5q0 -15 2 -33.5t2 -37.5t-4 -36.5t-16 -28.5q-18 -17 -40.5 -12t-33.5 25q-8 14 -15.5 18t-22.5 -4q-13 -8 -26 -14
t-27 -11q-27 -9 -57 -11t-59.5 3.5t-56 19t-46.5 35.5q-18 20 -27.5 45.5t-9.5 52t10 51.5t30 44q21 19 47 30.5t54.5 17t57.5 7t56 2.5q12 0 28 -1t30 1t24 9.5t10 24.5q-1 29 -14 52.5t-41 34.5q-25 11 -52.5 10t-53.5 -7q-13 -3 -26 -6.5t-24 -10.5q-11 -6 -20.5 -14
t-20.5 -14q-11 -7 -23 -9.5t-24 5.5q-11 6 -17 17.5t-4 23.5t10 20.5t19 15t23 11t21 9.5q55 29 118 37t122 -15zM402 176q2 24 -5 42.5t-35 21.5q-26 3 -54 2.5t-54 -2.5q-21 -2 -43 -7.5t-39.5 -16.5t-27 -29t-5.5 -45q3 -23 17 -38t33.5 -23.5t41 -11t41.5 -0.5
q23 2 45.5 10t40.5 21t30 32t15 44h-1z" />
    <glyph glyph-name="adieresis" unicode="&#xe4;" horiz-adv-x="560" 
d="M179 663q0 11 11.5 21.5t22.5 10.5h7.5t2.5 -0.5t2.5 -0.5h8.5q12 0 19 -9t10 -20.5t4 -23t1 -15.5q0 -11 -11.5 -21.5t-22.5 -10.5q-30 0 -43 12.5t-13 33.5v4.5t0.5 3t0.5 5v10.5zM335 662q0 11 9 21.5t20 10.5h25q15 0 22.5 -8.5t10.5 -20t3 -23.5v-18
q0 -11 -10.5 -21t-21.5 -10h-19q-12 0 -19.5 5t-12 12.5t-6.5 15.5t-2 13v4.5t0.5 3t0.5 5v10.5zM397 507q31 -12 50.5 -34t30 -49.5t13.5 -58.5t3 -61q-1 -38 -2.5 -76.5t-1.5 -76.5q0 -15 2 -33.5t2 -37.5t-4 -36.5t-16 -28.5q-18 -17 -40.5 -12t-33.5 25q-8 14 -15.5 18
t-22.5 -4q-13 -8 -26 -14t-27 -11q-27 -9 -57 -11t-59.5 3.5t-56 19t-46.5 35.5q-18 20 -27.5 45.5t-9.5 52t10 51.5t30 44q21 19 47 30.5t54.5 17t57.5 7t56 2.5q12 0 28 -1t30 1t24 9.5t10 24.5q-1 29 -14 52.5t-41 34.5q-25 11 -52.5 10t-53.5 -7q-13 -3 -26 -6.5
t-24 -10.5q-11 -6 -20.5 -14t-20.5 -14q-11 -7 -23 -9.5t-24 5.5q-11 6 -17 17.5t-4 23.5t10 20.5t19 15t23 11t21 9.5q55 29 118 37t122 -15zM402 176q2 24 -5 42.5t-35 21.5q-26 3 -54 2.5t-54 -2.5q-21 -2 -43 -7.5t-39.5 -16.5t-27 -29t-5.5 -45q3 -23 17 -38
t33.5 -23.5t41 -11t41.5 -0.5q23 2 45.5 10t40.5 21t30 32t15 44h-1z" />
    <glyph glyph-name="aring" unicode="&#xe5;" horiz-adv-x="560" 
d="M397 507q31 -12 50.5 -34t30 -49.5t13.5 -58.5t3 -61q-1 -38 -2.5 -76.5t-1.5 -76.5q0 -15 2 -33.5t2 -37.5t-4 -36.5t-16 -28.5q-18 -17 -40.5 -12t-33.5 25q-8 14 -15.5 18t-22.5 -4q-13 -8 -26 -14t-27 -11q-27 -9 -57 -11t-59.5 3.5t-56 19t-46.5 35.5
q-18 20 -27.5 45.5t-9.5 52t10 51.5t30 44q21 19 47 30.5t54.5 17t57.5 7t56 2.5q12 0 28 -1t30 1t24 9.5t10 24.5q-1 29 -14 52.5t-41 34.5q-25 11 -52.5 10t-53.5 -7q-13 -3 -26 -6.5t-24 -10.5q-11 -6 -20.5 -14t-20.5 -14q-11 -7 -23 -9.5t-24 5.5q-11 6 -17 17.5
t-4 23.5t10 20.5t19 15t23 11t21 9.5q55 29 118 37t122 -15zM402 176q2 24 -5 42.5t-35 21.5q-26 3 -54 2.5t-54 -2.5q-21 -2 -43 -7.5t-39.5 -16.5t-27 -29t-5.5 -45q3 -23 17 -38t33.5 -23.5t41 -11t41.5 -0.5q23 2 45.5 10t40.5 21t30 32t15 44h-1zM296 751q15 0 31 -6.5
t28.5 -18.5t21 -28.5t8.5 -36.5q0 -15 -5 -30.5t-15 -28t-24.5 -20t-32.5 -7.5q-14 0 -31 3.5t-33 13.5t-26.5 26.5t-10.5 42.5q0 13 7 29t19.5 29.5t28.5 22.5t34 9zM296 619q19 0 31.5 12t12.5 30q0 16 -12.5 28.5t-31.5 12.5q-24 0 -33 -13.5t-9 -27.5q0 -27 14 -34.5
t28 -7.5z" />
    <glyph glyph-name="ae" unicode="&#xe6;" horiz-adv-x="863" 
d="M46 149q0 163 244 171l90 3v34q0 60 -27.5 88.5t-84.5 28.5q-68 0 -150 -41l-27 66q35 20 84.5 33t99.5 13q62 0 102.5 -20.5t61.5 -65.5q26 42 67.5 64.5t96.5 22.5q96 0 153 -66t57 -174v-54h-343q4 -187 155 -187q43 0 80.5 8t83.5 29v-77q-43 -19 -80 -27t-87 -8
q-142 0 -203 113q-40 -61 -88.5 -87t-114.5 -26q-80 0 -125 42t-45 117zM137 148q0 -45 25.5 -66t67.5 -21q68 0 108 40t40 113v48l-75 -3q-86 -3 -126 -29t-40 -82zM602 474q-58 0 -91 -39t-39 -114h248q0 74 -30.5 113.5t-87.5 39.5z" />
    <glyph glyph-name="ccedilla" unicode="&#xe7;" horiz-adv-x="582" 
d="M474 477q13 -8 25 -21.5t12 -28.5q0 -10 -9.5 -23t-34.5 -13q-17 0 -27.5 10.5t-21.5 18.5q-14 9 -33 15.5t-32 6.5q-10 0 -21 -2t-24 -2q-36 0 -65.5 -16t-50 -42.5t-32 -60t-11.5 -69.5q0 -33 13 -64t35 -55t51.5 -38.5t63.5 -14.5q19 0 38.5 6.5t37.5 15t33.5 15
t26.5 6.5t18.5 -5.5t14.5 -12.5l4 2q8 -11 8 -24q0 -20 -18 -35t-44.5 -25t-56 -15.5t-52.5 -5.5q-15 0 -24 -5t-13.5 -10.5t-6 -9.5t-1.5 -3q0 -5 6 -5q1 0 10 1t15 1q9 0 16.5 -5.5t13.5 -14t9 -17.5t3 -15q0 -5 -3.5 -16t-15 -22t-32.5 -19.5t-55 -8.5q-11 0 -25 8
t-14 18q0 14 16 14q8 0 12 -1t7 -2.5t6.5 -2.5t10.5 -1q11 0 23.5 6.5t12.5 23.5q0 11 -10.5 19t-19.5 8t-11.5 -1.5t-7.5 -1.5q-6 0 -10.5 2.5t-4.5 8.5t3 9t6.5 7t6.5 10.5t3 18.5t-11 19q-50 21 -82.5 49.5t-52 61t-27 67t-7.5 67.5q0 35 6.5 63t19 52t30 46t39.5 44
q15 15 37 25t46.5 16t48.5 9t44 3q38 0 72 -9.5t65 -30.5l-2 1v0z" />
    <glyph glyph-name="egrave" unicode="&#xe8;" horiz-adv-x="635" 
d="M358 619q3 -5 3 -9q0 -9 -8 -13.5t-18 -4.5t-21.5 6.5t-23.5 16.5t-22 21t-17 19l-7 5.5t-15.5 13t-15 16.5t-6.5 16t4.5 11t11.5 5.5t13.5 1.5h11.5q30 0 47.5 -16.5t29.5 -35.5l19 -31q4 -6 5.5 -8t2 -3t2 -3t4.5 -8zM556 372q5 -14 8 -27.5t1 -28.5q-3 -20 -12.5 -35
t-23.5 -25.5t-31.5 -16.5t-36.5 -7q-37 -3 -74.5 -2t-74.5 0q-19 0 -37.5 -1t-37.5 -2q-14 -1 -26 -2t-22 -12q-11 -11 -12 -22.5t4.5 -23t14 -21.5t17.5 -17q23 -20 51 -32.5t59 -13.5q29 -1 54.5 9t49.5 24q9 5 18.5 12t20 12t21 7t21.5 -3q23 -11 28.5 -33t-15.5 -39
q-18 -14 -39 -25.5t-42 -20.5q-60 -26 -125.5 -20t-120 37t-90 84t-36.5 122v41t5 41q5 18 14 34l18 32q17 29 40 55t54 40q34 16 70.5 24t73.5 6.5t72.5 -13t67.5 -33.5q27 -19 44 -47.5t28 -58.5zM454 319q10 5 13.5 13t2.5 17t-5 17.5t-8 16.5q-14 23 -32.5 37t-40 20.5
t-45.5 6.5t-49 -5q-15 -3 -37 -12.5t-40 -24t-27 -32.5t2 -38q10 -18 28 -21t36 -2q27 1 53.5 2.5t53.5 1.5h28.5t28.5 -1q9 0 18.5 -1t17.5 4z" />
    <glyph glyph-name="eacute" unicode="&#xe9;" horiz-adv-x="635" 
d="M555 370q6 -13 9 -26t1 -28q-3 -20 -12.5 -35t-23.5 -25.5t-31.5 -16.5t-36.5 -7q-37 -3 -74.5 -2t-74.5 0q-19 0 -37.5 -1t-37.5 -2q-14 -1 -26 -2t-22 -12q-11 -11 -12 -22.5t4.5 -23t14 -21.5t17.5 -17q23 -20 51 -32.5t59 -13.5q29 -1 54.5 9t49.5 24q9 5 18.5 12
t20 12t21 7t21.5 -3q23 -11 28.5 -33t-15.5 -39q-18 -14 -39 -25.5t-42 -20.5q-60 -26 -125.5 -20t-120 37t-90 84t-36.5 122v41t5 41q5 18 14 34l18 32q17 29 40 55t54 40q34 16 70.5 24t73.5 6.5t72.5 -13t67.5 -33.5q27 -19 44 -47.5t28 -58.5zM454 319q10 5 13.5 13
t2.5 17t-5 17.5t-8 16.5q-14 23 -32.5 37t-40 20.5t-45.5 6.5t-49 -5q-15 -3 -37 -12.5t-40 -24t-27 -32.5t2 -38q10 -18 28 -21t36 -2q27 1 53.5 2.5t53.5 1.5h28.5t28.5 -1q9 0 18.5 -1t17.5 4zM329 672q14 22 31 37t45 15h11.5t14 -1.5t11.5 -5.5t5 -11t-7 -15.5
t-17.5 -18t-23 -20t-23.5 -22.5q-3 -3 -8.5 -9t-13.5 -12.5t-17 -11.5t-19 -5h-3q0 -1 -11 3.5t-11 14.5q0 11 6 17.5t11 13.5z" />
    <glyph glyph-name="ecircumflex" unicode="&#xea;" horiz-adv-x="635" 
d="M556 372q5 -14 8 -27.5t1 -28.5q-3 -20 -12.5 -35t-23.5 -25.5t-31.5 -16.5t-36.5 -7q-37 -3 -74.5 -2t-74.5 0q-19 0 -37.5 -1t-37.5 -2q-14 -1 -26 -2t-22 -12q-11 -11 -12 -22.5t4.5 -23t14 -21.5t17.5 -17q23 -20 51 -32.5t59 -13.5q29 -1 54.5 9t49.5 24
q9 5 18.5 12t20 12t21 7t21.5 -3q23 -11 28.5 -33t-15.5 -39q-18 -14 -39 -25.5t-42 -20.5q-60 -26 -125.5 -20t-120 37t-90 84t-36.5 122v41t5 41q5 18 14 34l18 32q17 29 40 55t54 40q34 16 70.5 24t73.5 6.5t72.5 -13t67.5 -33.5q27 -19 44 -47.5t28 -58.5zM454 319
q10 5 13.5 13t2.5 17t-5 17.5t-8 16.5q-14 23 -32.5 37t-40 20.5t-45.5 6.5t-49 -5q-15 -3 -37 -12.5t-40 -24t-27 -32.5t2 -38q10 -18 28 -21t36 -2q27 1 53.5 2.5t53.5 1.5h28.5t28.5 -1q9 0 18.5 -1t17.5 4zM274 711q9 12 25 18.5t32 6.5q18 0 30.5 -5.5t22 -13.5
t16.5 -18l14 -20q4 -6 11 -13t14 -15t12.5 -17.5t5.5 -20.5q0 -8 -4 -14t-11 -6h-17q-18 0 -26.5 11t-16 24t-18.5 24t-33 11q-15 0 -23.5 -11t-16.5 -24.5t-17.5 -24.5t-25.5 -11h-5t-11.5 2t-12 7t-5.5 14q0 6 6.5 17t15.5 24.5t19.5 28t18.5 26.5z" />
    <glyph glyph-name="edieresis" unicode="&#xeb;" horiz-adv-x="635" 
d="M556 372q5 -14 8 -27.5t1 -28.5q-3 -20 -12.5 -35t-23.5 -25.5t-31.5 -16.5t-36.5 -7q-37 -3 -74.5 -2t-74.5 0q-19 0 -37.5 -1t-37.5 -2q-14 -1 -26 -2t-22 -12q-11 -11 -12 -22.5t4.5 -23t14 -21.5t17.5 -17q23 -20 51 -32.5t59 -13.5q29 -1 54.5 9t49.5 24
q9 5 18.5 12t20 12t21 7t21.5 -3q23 -11 28.5 -33t-15.5 -39q-18 -14 -39 -25.5t-42 -20.5q-60 -26 -125.5 -20t-120 37t-90 84t-36.5 122v41t5 41q5 18 14 34l18 32q17 29 40 55t54 40q34 16 70.5 24t73.5 6.5t72.5 -13t67.5 -33.5q27 -19 44 -47.5t28 -58.5zM454 319
q10 5 13.5 13t2.5 17t-5 17.5t-8 16.5q-14 23 -32.5 37t-40 20.5t-45.5 6.5t-49 -5q-15 -3 -37 -12.5t-40 -24t-27 -32.5t2 -38q10 -18 28 -21t36 -2q27 1 53.5 2.5t53.5 1.5h28.5t28.5 -1q9 0 18.5 -1t17.5 4zM217 663q0 11 11.5 21.5t22.5 10.5h7.5t2.5 -0.5t2.5 -0.5h8.5
q12 0 19 -9t10 -20.5t4 -23t1 -15.5q0 -11 -11.5 -21.5t-22.5 -10.5q-30 0 -43 12.5t-13 33.5v4.5t0.5 3t0.5 5v10.5zM373 662q0 11 9 21.5t20 10.5h25q15 0 22.5 -8.5t10.5 -20t3 -23.5v-18q0 -11 -10.5 -21t-21.5 -10h-19q-12 0 -19.5 5t-12 12.5t-6.5 15.5t-2 13v4.5
t0.5 3t0.5 5v10.5z" />
    <glyph glyph-name="igrave" unicode="&#xec;" horiz-adv-x="239" 
d="M171 473q5 -21 3.5 -42.5t-1.5 -42.5q0 -20 1 -40.5t-1 -40.5q-2 -30 -3.5 -60t-3.5 -60q-2 -23 -2.5 -46.5t0.5 -46.5q0 -13 1 -27t-1 -26.5t-10 -22t-25 -12.5q-12 -2 -25.5 0.5t-21.5 11.5q-7 7 -7.5 15t-0.5 17q1 23 2 45t1 45q0 62 0.5 122.5t2.5 122.5
q0 12 -2 27.5t-2 30.5t5 27.5t20 19.5q8 4 18 5t20 -1.5t17.5 -8.5t10.5 -16zM158 607q3 -5 3 -9q0 -9 -8 -13.5t-18 -4.5t-21.5 6.5t-23.5 16.5t-22 21t-17 19l-7 5.5t-15.5 13t-15 16.5t-6.5 16t4.5 11t11.5 5.5t13.5 1.5h11.5q30 0 47.5 -16.5t29.5 -35.5l19 -31
q4 -6 5.5 -8t2 -3t2 -3t4.5 -8z" />
    <glyph glyph-name="iacute" unicode="&#xed;" horiz-adv-x="239" 
d="M171 473q5 -21 3.5 -42.5t-1.5 -42.5q0 -20 1 -40.5t-1 -40.5q-2 -30 -3.5 -60t-3.5 -60q-2 -23 -2.5 -46.5t0.5 -46.5q0 -13 1 -27t-1 -26.5t-10 -22t-25 -12.5q-12 -2 -25.5 0.5t-21.5 11.5q-7 7 -7.5 15t-0.5 17q1 23 2 45t1 45q0 62 0.5 122.5t2.5 122.5
q0 12 -2 27.5t-2 30.5t5 27.5t20 19.5q8 4 18 5t20 -1.5t17.5 -8.5t10.5 -16zM128 648q14 22 31 37t45 15h11.5t14 -1.5t11.5 -5.5t5 -11t-7 -15.5t-17.5 -18t-23 -20t-23.5 -22.5q-3 -3 -8.5 -9t-13.5 -12.5t-17 -11.5t-19 -5h-3q0 -1 -11 3.5t-11 14.5q0 11 6 17.5
t11 13.5z" />
    <glyph glyph-name="icircumflex" unicode="&#xee;" horiz-adv-x="239" 
d="M171 473q5 -21 3.5 -42.5t-1.5 -42.5q0 -20 1 -40.5t-1 -40.5q-2 -30 -3.5 -60t-3.5 -60q-2 -23 -2.5 -46.5t0.5 -46.5q0 -13 1 -27t-1 -26.5t-10 -22t-25 -12.5q-12 -2 -25.5 0.5t-21.5 11.5q-7 7 -7.5 15t-0.5 17q1 23 2 45t1 45q0 62 0.5 122.5t2.5 122.5
q0 12 -2 27.5t-2 30.5t5 27.5t20 19.5q8 4 18 5t20 -1.5t17.5 -8.5t10.5 -16zM64 694q9 12 25 18.5t32 6.5q18 0 30.5 -5.5t22 -13.5t16.5 -18l14 -20q4 -6 11 -13t14 -15t12.5 -17.5t5.5 -20.5q0 -8 -4 -14t-11 -6h-17q-18 0 -26.5 11t-16 24t-18.5 24t-33 11
q-15 0 -23.5 -11t-16.5 -24.5t-17.5 -24.5t-25.5 -11h-5t-11.5 2t-12 7t-5.5 14q0 6 6.5 17t15.5 24.5t19.5 28t18.5 26.5z" />
    <glyph glyph-name="idieresis" unicode="&#xef;" horiz-adv-x="239" 
d="M14 643q0 11 11.5 21.5t22.5 10.5h7.5t2.5 -0.5t2.5 -0.5h8.5q12 0 19 -9t10 -20.5t4 -23t1 -15.5q0 -11 -11.5 -21.5t-22.5 -10.5q-30 0 -43 12.5t-13 33.5v4.5t0.5 3t0.5 5v10.5zM157 642q0 11 9 21.5t20 10.5h25q12 0 19.5 -5.5t11 -14t4.5 -18.5t1 -19
q0 -14 -6.5 -29t-25.5 -15h-19q-12 0 -19.5 5t-12 12.5t-6.5 15.5t-2 13v4.5t0.5 3t0.5 5v10.5zM171 473q5 -21 3.5 -42.5t-1.5 -42.5q0 -20 1 -40.5t-1 -40.5q-2 -30 -3.5 -60t-3.5 -60q-2 -23 -2.5 -46.5t0.5 -46.5q0 -13 1 -27t-1 -26.5t-10 -22t-25 -12.5
q-12 -2 -25.5 0.5t-21.5 11.5q-7 7 -7.5 15t-0.5 17q1 23 2 45t1 45q0 62 0.5 122.5t2.5 122.5q0 12 -2 27.5t-2 30.5t5 27.5t20 19.5q8 4 18 5t20 -1.5t17.5 -8.5t10.5 -16z" />
    <glyph glyph-name="eth" unicode="&#xf0;" horiz-adv-x="659" 
d="M578 346q5 -20 10.5 -46.5t2.5 -51.5q-8 -46 -17.5 -75t-19.5 -47t-20 -29t-18 -21l-17 -16l-34 -26q-6 -3 -13 -8t-15 -8q-6 -3 -16 -5t-34 -10h-3l-67 -4h-13q-7 0 -11 1t-10 3q-1 0 -3.5 1t-10 3.5t-22 7.5t-41.5 15h-2q-2 0 -3 3q-5 3 -12.5 8t-14.5 9
q-4 4 -12.5 11.5t-16.5 14.5q-4 6 -10.5 12t-23.5 26q-2 2 -3 4.5t-3 4.5q-1 2 -2 5t-3 5l-3 8q-2 3 -5.5 10.5t-13.5 27.5q-3 4 -3 9q-2 3 -2.5 6t-1.5 6q0 7 -0.5 9t-1 6.5t-1 15t-0.5 33.5q0 7 1 25t6 44q0 1 1 8t5 15q10 21 17 35.5t21 34.5q2 2 4 5t2 4q-2 0 1 2.5
t5 3.5q16 14 33.5 28t37.5 23q3 1 8.5 2.5t11.5 3t10 4t4 4.5q5 1 11.5 3t15.5 5h2l68 7h14q3 0 9.5 1.5t12 5.5t8 11.5t-2.5 18.5q-5 13 -11 21t-11 13q-6 5 -13 8q-11 11 -30.5 13.5t-32.5 -5.5l-45 -24q-13 -7 -25.5 -3t-20.5 17q-6 12 -2 26t16 21l22 11q13 7 9.5 19.5
t-10.5 15.5q-7 5 -16 10t-17 9q-3 2 -9.5 6.5t-11.5 11t-7 14.5t4 18l4 5q8 11 22.5 16t28.5 0l6 -3q3 -2 8.5 -4.5t13.5 -6.5t14 -7.5t11 -5.5q5 -3 9 -5q6 -3 17 -7t23 -6.5t23 -3t17 2.5l43 25q12 6 26 2.5t21 -16.5q8 -13 4 -27t-17 -21l-22 -12q-11 -8 -13.5 -20.5
t7.5 -23.5q25 -30 49 -62q20 -27 41 -58.5t35 -60.5q5 -11 11 -27t12 -30.5t10 -25l4 -10.5q2 -3 3 -8t3 -11l1 -2v-1zM483 173q3 7 9 22.5t10 36t4 44t-9 46.5q-12 32 -35 51.5t-41 34.5q-3 3 -4 3q-8 5 -16.5 9.5t-17.5 5.5q-8 1 -13 2.5t-8 2.5q-5 2 -9 1t-12 1h-4
q-3 0 -6 0.5t-6 0.5q-2 1 -4 1q-10 0 -26 -4t-36 -10q0 -1 -1 -2l-11 -7q-6 -5 -14.5 -9.5t-17.5 -11.5q-12 -5 -21.5 -12t-18.5 -15q0 -2 -4 -7q-8 -10 -13 -27t-7.5 -36.5t-1.5 -39.5t4 -36q4 -14 13 -28t20 -27.5t23.5 -26t22.5 -21.5q3 -3 4 -3q8 -5 16.5 -10t16.5 -7
t13 -3t9 -3q5 -1 9.5 -1h11.5h4q3 0 5.5 -1.5t5.5 -1.5h4q9 0 26 3.5t35.5 10t36 16t28.5 22.5l3 4.5t2 3.5l6 7v1l1 1q5 5 9.5 10t4.5 8v1z" />
    <glyph glyph-name="ntilde" unicode="&#xf1;" horiz-adv-x="598" 
d="M530 118q-1 -14 0 -32t-1.5 -35.5t-10.5 -31t-26 -17.5q-11 -2 -23.5 0.5t-20.5 10.5q-10 10 -11 26t-1 29q0 37 0.5 74t2.5 74q1 18 2.5 36.5t1 37.5t-3.5 36.5t-12 34.5q-14 26 -42 43.5t-59 15.5q-25 -2 -50.5 -12t-48 -26t-39.5 -37t-24 -46q-5 -15 -3.5 -29t1.5 -29
q0 -21 0.5 -42t-0.5 -42t-1.5 -41.5t1.5 -41.5q1 -16 -0.5 -35t-14.5 -30q-9 -8 -21 -9.5t-23.5 2t-20 11.5t-11.5 20q-5 22 -1.5 45t2.5 46q0 12 -0.5 24t-1.5 24q-1 11 0.5 20.5t2.5 20.5q2 38 0.5 76.5t0.5 76.5q1 21 0 42.5t1 42.5q1 11 4.5 20t13.5 15q8 5 18.5 7
t20.5 0t18.5 -8t13.5 -15q6 -12 13.5 -20.5t24.5 -2.5q15 5 29 13.5t30 14.5q74 27 147 2q27 -10 50.5 -24.5t39.5 -39.5q17 -26 23.5 -53t6.5 -56q1 -47 2 -93t-2 -93h2zM432 708q9 0 16.5 -7t7.5 -17q0 -1 -0.5 -2t-0.5 -3l-5.5 -13t-16.5 -28.5t-28.5 -29t-41.5 -13.5
q-16 0 -36 7l-36 12q-15 7 -30.5 12t-29.5 5q-15 0 -24 -6.5t-16.5 -14t-15 -13.5t-19.5 -6q-17 0 -17 19q-1 15 6 19.5t14 15.5q11 18 27 36t47 18q7 0 13 -2.5t17 -5.5l35 -11q18 -8 38.5 -12t29.5 -4q12 0 20.5 7t16 15t14.5 15t15 7z" />
    <glyph glyph-name="ograve" unicode="&#xf2;" horiz-adv-x="661" 
d="M575 347q8 -25 14 -50.5t4 -51.5q-2 -21 -7.5 -42.5t-13.5 -41.5q-15 -41 -44 -76t-69 -54t-82 -26.5t-86 -1.5q-44 5 -80.5 24.5t-68.5 48.5q-13 11 -23.5 26.5t-20.5 30.5q-11 17 -16.5 37t-7.5 40q-1 10 -1 20t-2 20q-2 12 -3 22.5t1 23.5q2 22 9.5 42t17.5 39
q17 33 41.5 62t59.5 45q20 9 38.5 17.5t39.5 13.5q40 9 84 4q78 -7 134.5 -52t80.5 -119zM507 242q4 35 -4 71.5t-30 65.5q-20 26 -49 43q-4 2 -7.5 4.5t-7.5 3.5l-4.5 1.5t-10 3t-11.5 3.5t-10 4q-15 5 -25.5 2t-25.5 -4q-12 -1 -24 -1t-24 -4q-22 -7 -41 -20.5t-34 -30.5
q-35 -41 -44 -95q-2 -8 -3 -15.5t0 -15.5q0 -3 1.5 -10t1.5 -9q0 -28 11 -55q13 -30 35 -52.5t49.5 -36t59 -16.5t63.5 6q27 8 51.5 22t44.5 34t28 45.5t11 52.5zM364 619q3 -5 3 -9q0 -9 -8 -13.5t-18 -4.5t-21.5 6.5t-23.5 16.5t-22 21t-17 19l-7 5.5t-15.5 13t-15 16.5
t-6.5 16t4.5 11t11.5 5.5t13.5 1.5h11.5q30 0 47.5 -16.5t29.5 -35.5l19 -31q4 -6 5.5 -8t2 -3t2 -3t4.5 -8z" />
    <glyph glyph-name="oacute" unicode="&#xf3;" horiz-adv-x="661" 
d="M575 347q8 -25 14 -50.5t4 -51.5q-2 -21 -7.5 -42.5t-13.5 -41.5q-15 -41 -44 -76t-69 -54t-82 -26.5t-86 -1.5q-44 5 -80.5 24.5t-68.5 48.5q-13 11 -23.5 26.5t-20.5 30.5q-11 17 -16.5 37t-7.5 40q-1 10 -1 20t-2 20q-2 12 -3 22.5t1 23.5q2 22 9.5 42t17.5 39
q17 33 41.5 62t59.5 45q20 9 38.5 17.5t39.5 13.5q40 9 84 4q78 -7 134.5 -52t80.5 -119zM507 242q4 35 -4 71.5t-30 65.5q-20 26 -49 43q-4 2 -7.5 4.5t-7.5 3.5l-4.5 1.5t-10 3t-11.5 3.5t-10 4q-15 5 -25.5 2t-25.5 -4q-12 -1 -24 -1t-24 -4q-22 -7 -41 -20.5t-34 -30.5
q-35 -41 -44 -95q-2 -8 -3 -15.5t0 -15.5q0 -3 1.5 -10t1.5 -9q0 -28 11 -55q13 -30 35 -52.5t49.5 -36t59 -16.5t63.5 6q27 8 51.5 22t44.5 34t28 45.5t11 52.5zM351 672q14 22 31 37t45 15h11.5t14 -1.5t11.5 -5.5t5 -11t-7 -15.5t-17.5 -18t-23 -20t-23.5 -22.5
q-3 -3 -8.5 -9t-13.5 -12.5t-17 -11.5t-19 -5h-3q0 -1 -11 3.5t-11 14.5q0 11 6 17.5t11 13.5z" />
    <glyph glyph-name="ocircumflex" unicode="&#xf4;" horiz-adv-x="661" 
d="M575 347q8 -25 14 -50.5t4 -51.5q-2 -21 -7.5 -42.5t-13.5 -41.5q-15 -41 -44 -76t-69 -54t-82 -26.5t-86 -1.5q-44 5 -80.5 24.5t-68.5 48.5q-13 11 -23.5 26.5t-20.5 30.5q-11 17 -16.5 37t-7.5 40q-1 10 -1 20t-2 20q-2 12 -3 22.5t1 23.5q2 22 9.5 42t17.5 39
q17 33 41.5 62t59.5 45q20 9 38.5 17.5t39.5 13.5q40 9 84 4q78 -7 134.5 -52t80.5 -119zM507 242q4 35 -4 71.5t-30 65.5q-20 26 -49 43q-4 2 -7.5 4.5t-7.5 3.5l-4.5 1.5t-10 3t-11.5 3.5t-10 4q-15 5 -25.5 2t-25.5 -4q-12 -1 -24 -1t-24 -4q-22 -7 -41 -20.5t-34 -30.5
q-35 -41 -44 -95q-2 -8 -3 -15.5t0 -15.5q0 -3 1.5 -10t1.5 -9q0 -28 11 -55q13 -30 35 -52.5t49.5 -36t59 -16.5t63.5 6q27 8 51.5 22t44.5 34t28 45.5t11 52.5zM282 711q9 12 25 18.5t32 6.5q18 0 30.5 -5.5t22 -13.5t16.5 -18l14 -20q4 -6 11 -13t14 -15t12.5 -17.5
t5.5 -20.5q0 -8 -4 -14t-11 -6h-17q-18 0 -26.5 11t-16 24t-18.5 24t-33 11q-15 0 -23.5 -11t-16.5 -24.5t-17.5 -24.5t-25.5 -11h-5t-11.5 2t-12 7t-5.5 14q0 6 6.5 17t15.5 24.5t19.5 28t18.5 26.5z" />
    <glyph glyph-name="otilde" unicode="&#xf5;" horiz-adv-x="661" 
d="M575 347q8 -25 14 -50.5t4 -51.5q-2 -21 -7.5 -42.5t-13.5 -41.5q-15 -41 -44 -76t-69 -54t-82 -26.5t-86 -1.5q-44 5 -80.5 24.5t-68.5 48.5q-13 11 -23.5 26.5t-20.5 30.5q-11 17 -16.5 37t-7.5 40q-1 10 -1 20t-2 20q-2 12 -3 22.5t1 23.5q2 22 9.5 42t17.5 39
q17 33 41.5 62t59.5 45q20 9 38.5 17.5t39.5 13.5q40 9 84 4q78 -7 134.5 -52t80.5 -119zM507 242q4 35 -4 71.5t-30 65.5q-20 26 -49 43q-4 2 -7.5 4.5t-7.5 3.5l-4.5 1.5t-10 3t-11.5 3.5t-10 4q-15 5 -25.5 2t-25.5 -4q-12 -1 -24 -1t-24 -4q-22 -7 -41 -20.5t-34 -30.5
q-35 -41 -44 -95q-2 -8 -3 -15.5t0 -15.5q0 -3 1.5 -10t1.5 -9q0 -28 11 -55q13 -30 35 -52.5t49.5 -36t59 -16.5t63.5 6q27 8 51.5 22t44.5 34t28 45.5t11 52.5zM481 708q9 0 16.5 -7t7.5 -17q0 -1 -0.5 -2t-0.5 -3l-5.5 -13t-16.5 -28.5t-28.5 -29t-41.5 -13.5
q-16 0 -36 7l-36 12q-15 7 -30.5 12t-29.5 5q-15 0 -24 -6.5t-16.5 -14t-15 -13.5t-19.5 -6q-17 0 -17 19q-1 15 6 19.5t14 15.5q11 18 27 36t47 18q7 0 13 -2.5t17 -5.5l35 -11q18 -8 38.5 -12t29.5 -4q12 0 20.5 7t16 15t14.5 15t15 7z" />
    <glyph glyph-name="odieresis" unicode="&#xf6;" horiz-adv-x="661" 
d="M575 347q8 -25 14 -50.5t4 -51.5q-2 -21 -7.5 -42.5t-13.5 -41.5q-15 -41 -44 -76t-69 -54t-82 -26.5t-86 -1.5q-44 5 -80.5 24.5t-68.5 48.5q-13 11 -23.5 26.5t-20.5 30.5q-11 17 -16.5 37t-7.5 40q-1 10 -1 20t-2 20q-2 12 -3 22.5t1 23.5q2 22 9.5 42t17.5 39
q17 33 41.5 62t59.5 45q20 9 38.5 17.5t39.5 13.5q40 9 84 4q78 -7 134.5 -52t80.5 -119zM507 242q4 35 -4 71.5t-30 65.5q-20 26 -49 43q-4 2 -7.5 4.5t-7.5 3.5l-4.5 1.5t-10 3t-11.5 3.5t-10 4q-15 5 -25.5 2t-25.5 -4q-12 -1 -24 -1t-24 -4q-22 -7 -41 -20.5t-34 -30.5
q-35 -41 -44 -95q-2 -8 -3 -15.5t0 -15.5q0 -3 1.5 -10t1.5 -9q0 -28 11 -55q13 -30 35 -52.5t49.5 -36t59 -16.5t63.5 6q27 8 51.5 22t44.5 34t28 45.5t11 52.5zM220 663q0 11 11.5 21.5t22.5 10.5h7.5t2.5 -0.5t2.5 -0.5h8.5q12 0 19 -9t10 -20.5t4 -23t1 -15.5
q0 -11 -11.5 -21.5t-22.5 -10.5q-30 0 -43 12.5t-13 33.5v4.5t0.5 3t0.5 5v10.5zM376 662q0 11 9 21.5t20 10.5h25q15 0 22.5 -8.5t10.5 -20t3 -23.5v-18q0 -11 -10.5 -21t-21.5 -10h-19q-12 0 -19.5 5t-12 12.5t-6.5 15.5t-2 13v4.5t0.5 3t0.5 5v10.5z" />
    <glyph glyph-name="divide" unicode="&#xf7;" horiz-adv-x="550" 
d="M50 286v73h451v-73h-451zM219 156q0 17 4.5 28.5t12 19t17.5 10.5t22 3q11 0 21.5 -3t18 -10.5t12 -19t4.5 -28.5q0 -16 -4.5 -27.5t-12 -19t-18 -11t-21.5 -3.5q-12 0 -22 3.5t-17.5 11t-12 19t-4.5 27.5zM219 497q0 17 4.5 28.5t12 19t17.5 10.5t22 3q11 0 21.5 -3
t18 -10.5t12 -19t4.5 -28.5q0 -16 -4.5 -27.5t-12 -19t-18 -11t-21.5 -3.5q-12 0 -22 3.5t-17.5 11t-12 19t-4.5 27.5zM221 622z" />
    <glyph glyph-name="oslash" unicode="&#xf8;" horiz-adv-x="661" 
d="M585 314q2 -9 5 -17.5t3 -16.5q-2 -35 -6 -60t-9.5 -42.5t-11 -27.5t-8.5 -14q0 1 -3 -5t-8 -14t-10.5 -16t-11.5 -11q-16 -10 -32.5 -24.5t-36.5 -28.5t-46 -24t-60 -10q-2 0 -3 0.5t-2 0.5q-5 -1 -8 -1h-34q-5 0 -10 -0.5t-12.5 -3.5t-18 -9t-25.5 -17q-2 -3 -4 -5.5
t-3 -6.5q-6 -24 -20.5 -31.5t-23.5 -9.5q-15 1 -26 11t-11 24q0 6 3.5 14.5t8 17t8.5 17.5t4 17q0 23 -39 59q-8 8 -17 14.5t-12 19.5q0 5 -4.5 13.5t-7.5 14.5q-16 35 -16 94q0 2 0.5 12t0.5 21q0 13 -2 21q0 15 6 34.5t14 37.5t16 31.5t11 17.5l1 1q0 -1 6 7.5t16 20
t22.5 23.5t24.5 18l3 1q11 8 24 12t34 16l20 6l48 6q5 1 14 1q11 0 20.5 -1t18.5 -1q5 0 14 1.5t18 7t17 15t11 24.5l11 20q5 10 14 12l10 5q3 1 10 1q20 0 26.5 -12t11.5 -19q0 -6 -1 -10l-5 -8q-4 -11 -12 -24.5t-8 -26.5q0 -12 9.5 -31.5t40.5 -54.5q16 -18 21 -34l5 -9
v-3q2 -2 2 -3t-0.5 -1.5t-0.5 -1.5q1 -2 3.5 -8.5t5.5 -15t5 -17t2 -14.5zM169 146q11 -21 26 -21q13 0 24 11.5t20.5 27t17 30.5t13.5 22q2 3 7 12t11 20t11 22.5t7 20.5q-2 1 4.5 14t14 29.5t14.5 31.5t7 18q15 21 15 38q0 16 -11.5 26t-30.5 10q-30 0 -56 -13.5
t-47 -34.5t-36 -47t-23 -51q-4 -11 -6.5 -20t-2.5 -19v-24q0 -14 2.5 -31t6 -32.5t7 -26.5t5.5 -13zM518 217q0 81 -16.5 125t-35.5 44q-11 0 -23.5 -12t-23.5 -28.5t-20.5 -33t-14.5 -25.5q-7 -17 -17 -32.5t-10 -28.5l-18 -29q-2 -10 -6.5 -20t-9.5 -21q-3 -10 -7.5 -17.5
t-9.5 -14.5t-8.5 -14t-3.5 -15q0 -12 7.5 -21t22.5 -9q8 0 22.5 3t31 9t32 14t24.5 17q10 7 22.5 17t24.5 24t21.5 31t15.5 37z" />
    <glyph glyph-name="ugrave" unicode="&#xf9;" horiz-adv-x="601" 
d="M532 323q1 -15 -1 -30t-2 -29q0 -16 -0.5 -31.5t-1.5 -31.5q-1 -30 -4.5 -61t-1.5 -61l2 -22t-0.5 -21.5t-7 -19t-18.5 -12.5q-20 -6 -41 2q-11 4 -14.5 9.5t-10.5 13.5q-9 10 -18 9t-18.5 -7t-18.5 -13t-17 -10q-49 -15 -103 -10.5t-99 30.5q-17 10 -29.5 23t-22.5 29
q-7 11 -13 22t-11 22q-2 6 -3.5 12t-3.5 12q-1 4 -1.5 10t0.5 6q-4 25 -3 49t0 50q-1 24 -3 47.5t0 47.5q2 23 2 46.5t4 46.5q2 16 9 26.5t24 14.5q11 2 23.5 0t21.5 -10q12 -11 12.5 -27t-1.5 -30q-2 -24 -1 -47t2 -47q1 -20 -0.5 -40.5t-3.5 -40.5q-2 -19 -2.5 -38.5
t1.5 -38t9 -35.5t22 -31q14 -13 33 -22t37 -10q8 0 14.5 -0.5t14.5 -1.5q9 -1 16.5 2t15.5 6q20 7 37.5 14t32.5 22q12 12 20.5 27t13.5 32q11 38 9 78t-1 78q1 23 4.5 45t2.5 45q-1 15 -2 31.5t13 27.5q9 7 21 8.5t23.5 -1.5t21 -10.5t12.5 -18.5q5 -17 1.5 -35t-3.5 -35
q0 -16 2.5 -31.5t3.5 -31.5v-3zM333 619q3 -5 3 -9q0 -9 -8 -13.5t-18 -4.5t-21.5 6.5t-23.5 16.5t-22 21t-17 19l-7 5.5t-15.5 13t-15 16.5t-6.5 16t4.5 11t11.5 5.5t13.5 1.5h11.5q30 0 47.5 -16.5t29.5 -35.5l19 -31q4 -6 5.5 -8t2 -3t2 -3t4.5 -8z" />
    <glyph glyph-name="uacute" unicode="&#xfa;" horiz-adv-x="601" 
d="M532 323q1 -15 -1 -30t-2 -29q0 -16 -0.5 -31.5t-1.5 -31.5q-1 -30 -4.5 -61t-1.5 -61l2 -22t-0.5 -21.5t-7 -19t-18.5 -12.5q-20 -6 -41 2q-11 4 -14.5 9.5t-10.5 13.5q-9 10 -18 9t-18.5 -7t-18.5 -13t-17 -10q-49 -15 -103 -10.5t-99 30.5q-17 10 -29.5 23t-22.5 29
q-7 11 -13 22t-11 22q-2 6 -3.5 12t-3.5 12q-1 4 -1.5 10t0.5 6q-4 25 -3 49t0 50q-1 24 -3 47.5t0 47.5q2 23 2 46.5t4 46.5q2 16 9 26.5t24 14.5q11 2 23.5 0t21.5 -10q12 -11 12.5 -27t-1.5 -30q-2 -24 -1 -47t2 -47q1 -20 -0.5 -40.5t-3.5 -40.5q-2 -19 -2.5 -38.5
t1.5 -38t9 -35.5t22 -31q14 -13 33 -22t37 -10q8 0 14.5 -0.5t14.5 -1.5q9 -1 16.5 2t15.5 6q20 7 37.5 14t32.5 22q12 12 20.5 27t13.5 32q11 38 9 78t-1 78q1 23 4.5 45t2.5 45q-1 15 -2 31.5t13 27.5q9 7 21 8.5t23.5 -1.5t21 -10.5t12.5 -18.5q5 -17 1.5 -35t-3.5 -35
q0 -16 2.5 -31.5t3.5 -31.5v-3zM301 672q14 22 31 37t45 15h11.5t14 -1.5t11.5 -5.5t5 -11t-7 -15.5t-17.5 -18t-23 -20t-23.5 -22.5q-3 -3 -8.5 -9t-13.5 -12.5t-17 -11.5t-19 -5h-3q0 -1 -11 3.5t-11 14.5q0 11 6 17.5t11 13.5z" />
    <glyph glyph-name="ucircumflex" unicode="&#xfb;" horiz-adv-x="601" 
d="M532 323q1 -15 -1 -30t-2 -29q0 -16 -0.5 -31.5t-1.5 -31.5q-1 -30 -4.5 -61t-1.5 -61l2 -22t-0.5 -21.5t-7 -19t-18.5 -12.5q-20 -6 -41 2q-11 4 -14.5 9.5t-10.5 13.5q-9 10 -18 9t-18.5 -7t-18.5 -13t-17 -10q-49 -15 -103 -10.5t-99 30.5q-17 10 -29.5 23t-22.5 29
q-7 11 -13 22t-11 22q-2 6 -3.5 12t-3.5 12q-1 4 -1.5 10t0.5 6q-4 25 -3 49t0 50q-1 24 -3 47.5t0 47.5q2 23 2 46.5t4 46.5q2 16 9 26.5t24 14.5q11 2 23.5 0t21.5 -10q12 -11 12.5 -27t-1.5 -30q-2 -24 -1 -47t2 -47q1 -20 -0.5 -40.5t-3.5 -40.5q-2 -19 -2.5 -38.5
t1.5 -38t9 -35.5t22 -31q14 -13 33 -22t37 -10q8 0 14.5 -0.5t14.5 -1.5q9 -1 16.5 2t15.5 6q20 7 37.5 14t32.5 22q12 12 20.5 27t13.5 32q11 38 9 78t-1 78q1 23 4.5 45t2.5 45q-1 15 -2 31.5t13 27.5q9 7 21 8.5t23.5 -1.5t21 -10.5t12.5 -18.5q5 -17 1.5 -35t-3.5 -35
q0 -16 2.5 -31.5t3.5 -31.5v-3zM244 711q9 12 25 18.5t32 6.5q18 0 30.5 -5.5t22 -13.5t16.5 -18l14 -20q4 -6 11 -13t14 -15t12.5 -17.5t5.5 -20.5q0 -8 -4 -14t-11 -6h-17q-18 0 -26.5 11t-16 24t-18.5 24t-33 11q-15 0 -23.5 -11t-16.5 -24.5t-17.5 -24.5t-25.5 -11h-5
t-11.5 2t-12 7t-5.5 14q0 6 6.5 17t15.5 24.5t19.5 28t18.5 26.5z" />
    <glyph glyph-name="udieresis" unicode="&#xfc;" horiz-adv-x="601" 
d="M532 323q1 -15 -1 -30t-2 -29q0 -16 -0.5 -31.5t-1.5 -31.5q-1 -30 -4.5 -61t-1.5 -61l2 -22t-0.5 -21.5t-7 -19t-18.5 -12.5q-20 -6 -41 2q-11 4 -14.5 9.5t-10.5 13.5q-9 10 -18 9t-18.5 -7t-18.5 -13t-17 -10q-49 -15 -103 -10.5t-99 30.5q-17 10 -29.5 23t-22.5 29
q-7 11 -13 22t-11 22q-2 6 -3.5 12t-3.5 12q-1 4 -1.5 10t0.5 6q-4 25 -3 49t0 50q-1 24 -3 47.5t0 47.5q2 23 2 46.5t4 46.5q2 16 9 26.5t24 14.5q11 2 23.5 0t21.5 -10q12 -11 12.5 -27t-1.5 -30q-2 -24 -1 -47t2 -47q1 -20 -0.5 -40.5t-3.5 -40.5q-2 -19 -2.5 -38.5
t1.5 -38t9 -35.5t22 -31q14 -13 33 -22t37 -10q8 0 14.5 -0.5t14.5 -1.5q9 -1 16.5 2t15.5 6q20 7 37.5 14t32.5 22q12 12 20.5 27t13.5 32q11 38 9 78t-1 78q1 23 4.5 45t2.5 45q-1 15 -2 31.5t13 27.5q9 7 21 8.5t23.5 -1.5t21 -10.5t12.5 -18.5q5 -17 1.5 -35t-3.5 -35
q0 -16 2.5 -31.5t3.5 -31.5v-3zM179 663q0 11 11.5 21.5t22.5 10.5h7.5t2.5 -0.5t2.5 -0.5h8.5q12 0 19 -9t10 -20.5t4 -23t1 -15.5q0 -11 -11.5 -21.5t-22.5 -10.5q-30 0 -43 12.5t-13 33.5v4.5t0.5 3t0.5 5v10.5zM335 662q0 11 9 21.5t20 10.5h25q15 0 22.5 -8.5t10.5 -20
t3 -23.5v-18q0 -11 -10.5 -21t-21.5 -10h-19q-12 0 -19.5 5t-12 12.5t-6.5 15.5t-2 13v4.5t0.5 3t0.5 5v10.5z" />
    <glyph glyph-name="yacute" unicode="&#xfd;" horiz-adv-x="602" 
d="M484 489q17 -5 30 -16t12 -30t-9 -37.5t-15 -35.5q-16 -38 -33 -76t-31 -77q-17 -50 -36 -98.5t-38 -98.5q-9 -23 -15 -46.5t-17 -45.5t-24.5 -45t-31.5 -40q-24 -23 -56 -31.5t-64 -5.5q-12 1 -28 4.5t-31 10t-25.5 17.5t-10.5 26q0 14 9.5 27t23.5 17q9 2 16 0.5
t13.5 -5t13.5 -7t15 -4.5q18 -2 32 4t25.5 17t20.5 25t16 28q17 35 7 71.5t-26 68.5q-9 17 -18.5 34.5t-16.5 35.5q-4 11 -6.5 21.5t-7.5 21.5q-17 32 -33 64t-33 64q-6 12 -14.5 28.5t-13.5 34t-4 34t13 28.5q9 9 23.5 14.5t27.5 2.5t20 -13t12 -21q8 -18 13.5 -38
t16.5 -37q8 -14 16 -27.5t15 -27.5q8 -18 15.5 -36t15.5 -36q5 -12 10.5 -26t18.5 -20q17 -9 28.5 -2.5t19.5 20t13 29.5t9 27q14 34 28.5 67t26.5 68q4 13 9 28t12.5 26t18.5 17t29 1zM314 -83l3 -3q0 3 -3 2v1zM301 672q14 22 31 37t45 15h11.5t14 -1.5t11.5 -5.5t5 -11
t-7 -15.5t-17.5 -18t-23 -20t-23.5 -22.5q-3 -3 -8.5 -9t-13.5 -12.5t-17 -11.5t-19 -5h-3q0 -1 -11 3.5t-11 14.5q0 11 6 17.5t11 13.5z" />
    <glyph glyph-name="thorn" unicode="&#xfe;" horiz-adv-x="504" 
d="M76 661q0 10 8 24.5t19 14.5h31q20 -3 23.5 -21.5t4 -39.5t4.5 -37.5t25 -16.5q26 0 50 -4t49 -12q39 -9 63 -25t37.5 -37t18.5 -47.5t5 -56.5q0 -82 -11 -132q-12 -33 -23 -50t-24.5 -26.5t-30.5 -14.5t-39 -13q-20 -10 -43.5 -17t-50.5 -7q-14 0 -20.5 -6.5t-9 -15
t-2.5 -17.5v-15v-33v-7t0.5 -3t0.5 -2.5v-7.5q0 -14 -8 -22t-17.5 -12t-18.5 -4.5t-11 -0.5q-11 0 -22 12.5t-11 23.5v28q0 25 1.5 54t1.5 46q0 7 -0.5 11t-1 7t-1 7t-0.5 10q0 13 2 17t2 17q0 17 -0.5 34t-0.5 34v69q0 11 -2 15.5t-2 18.5q0 6 0.5 9.5t1.5 6.5t1.5 7
t0.5 11v68q0 23 -1.5 50.5t-1.5 50.5q0 12 1.5 16.5t1.5 13.5v5v22zM296 254q14 10 26 38t12 88q0 10 -3 26.5t-8 25.5q-9 19 -15.5 29t-13.5 15t-17.5 8.5t-28.5 11.5q-9 3 -18 3q-23 0 -36.5 -12.5t-21 -29t-10 -33.5t-2.5 -26q0 -7 0.5 -11t1 -7t1 -7t0.5 -10
q0 -13 -1.5 -34.5t-1.5 -35.5q2 -31 24.5 -44t49.5 -13q17 0 34 5t28 13z" />
    <glyph glyph-name="ydieresis" unicode="&#xff;" horiz-adv-x="602" 
d="M484 489q17 -5 30 -16t12 -30t-9 -37.5t-15 -35.5q-16 -38 -33 -76t-31 -77q-17 -50 -36 -98.5t-38 -98.5q-9 -23 -15 -46.5t-17 -45.5t-24.5 -45t-31.5 -40q-24 -23 -56 -31.5t-64 -5.5q-12 1 -28 4.5t-31 10t-25.5 17.5t-10.5 26q0 14 9.5 27t23.5 17q9 2 16 0.5
t13.5 -5t13.5 -7t15 -4.5q18 -2 32 4t25.5 17t20.5 25t16 28q17 35 7 71.5t-26 68.5q-9 17 -18.5 34.5t-16.5 35.5q-4 11 -6.5 21.5t-7.5 21.5q-17 32 -33 64t-33 64q-6 12 -14.5 28.5t-13.5 34t-4 34t13 28.5q9 9 23.5 14.5t27.5 2.5t20 -13t12 -21q8 -18 13.5 -38
t16.5 -37q8 -14 16 -27.5t15 -27.5q8 -18 15.5 -36t15.5 -36q5 -12 10.5 -26t18.5 -20q17 -9 28.5 -2.5t19.5 20t13 29.5t9 27q14 34 28.5 67t26.5 68q4 13 9 28t12.5 26t18.5 17t29 1zM314 -83l3 -3q0 3 -3 2v1zM179 663q0 11 11.5 21.5t22.5 10.5h7.5t2.5 -0.5t2.5 -0.5
h8.5q12 0 19 -9t10 -20.5t4 -23t1 -15.5q0 -11 -11.5 -21.5t-22.5 -10.5q-30 0 -43 12.5t-13 33.5v4.5t0.5 3t0.5 5v10.5zM335 662q0 11 9 21.5t20 10.5h25q15 0 22.5 -8.5t10.5 -20t3 -23.5v-18q0 -11 -10.5 -21t-21.5 -10h-19q-12 0 -19.5 5t-12 12.5t-6.5 15.5t-2 13v4.5
t0.5 3t0.5 5v10.5z" />
    <glyph glyph-name="Amacron" unicode="&#x100;" horiz-adv-x="639" 
d="M178 842h297v-71h-297v71zM629 74q3 -14 5 -33t-11 -30t-35 -11.5t-36 9.5q-10 8 -13.5 20t-5.5 23q-2 14 -8 28t-11 27q-6 15 -14.5 32t-22.5 27q-13 9 -28.5 12t-31.5 3.5t-32 -0.5t-31 1t-30 2t-30 -1q-19 -2 -36 -1.5t-34 -7.5q-22 -10 -30.5 -30.5t-16.5 -39.5
q-5 -12 -7.5 -24.5t-6.5 -25.5q-3 -11 -6.5 -23.5t-12.5 -20.5q-11 -10 -32 -9.5t-33 9.5q-10 7 -10.5 18.5t3.5 24.5t10 25t9 21q7 20 11 39.5t10 39.5q32 110 69.5 216.5t75.5 214.5q4 12 9 25.5t12.5 26.5t17 23t23.5 14q13 4 32 4t30 -10q7 -6 10.5 -14t7.5 -16
q5 -11 11 -21.5t12 -21.5q24 -44 43 -87.5t36 -91.5q17 -50 35 -98t34 -98q8 -23 15 -46.5t14 -46.5q3 -11 6 -20.5t7 -19.5q2 -6 9.5 -18t7.5 -19zM449 276q8 12 5.5 26t-7.5 26q-7 17 -13 38q-2 8 -6 16.5t-7 16.5q-5 13 -10.5 33t-13.5 39t-21 32t-33 12
q-20 -2 -32.5 -21.5t-18.5 -36.5q-8 -22 -15 -45.5t-11 -46.5q-2 -11 -5.5 -22.5t-6 -23.5t-2 -24t6.5 -22q9 -14 29.5 -17.5t36.5 -4.5q13 -1 30.5 -1.5t35.5 1.5t33.5 7.5t24.5 16.5v1z" />
    <glyph glyph-name="amacron" unicode="&#x101;" horiz-adv-x="561" 
d="M143 677h297v-71h-297v71zM397 507q31 -12 50.5 -34t30 -49.5t13.5 -58.5t3 -61q-1 -38 -2.5 -76.5t-1.5 -76.5q0 -15 2 -33.5t2 -37.5t-4 -36.5t-16 -28.5q-18 -17 -40.5 -12t-33.5 25q-8 14 -15.5 18t-22.5 -4q-13 -8 -26 -14t-27 -11q-27 -9 -57 -11t-59.5 3.5t-56 19
t-46.5 35.5q-18 20 -27.5 45.5t-9.5 52t10 51.5t30 44q21 19 47 30.5t54.5 17t57.5 7t56 2.5q12 0 28 -1t30 1t24 9.5t10 24.5q-1 29 -14 52.5t-41 34.5q-25 11 -52.5 10t-53.5 -7q-13 -3 -26 -6.5t-24 -10.5q-11 -6 -20.5 -14t-20.5 -14q-11 -7 -23 -9.5t-24 5.5
q-11 6 -17 17.5t-4 23.5t10 20.5t19 15t23 11t21 9.5q55 29 118 37t122 -15zM402 176q2 24 -5 42.5t-35 21.5q-26 3 -54 2.5t-54 -2.5q-21 -2 -43 -7.5t-39.5 -16.5t-27 -29t-5.5 -45q3 -23 17 -38t33.5 -23.5t41 -11t41.5 -0.5q23 2 45.5 10t40.5 21t30 32t15 44h-1z" />
    <glyph glyph-name="Abreve" unicode="&#x102;" horiz-adv-x="639" 
d="M316 771q-69 0 -108.5 33.5t-44.5 100.5h54q4 -35 24.5 -49t76.5 -14q49 0 73 15.5t28 47.5h55q-6 -64 -48 -99t-110 -35zM629 74q3 -14 5 -33t-11 -30t-35 -11.5t-36 9.5q-10 8 -13.5 20t-5.5 23q-2 14 -8 28t-11 27q-6 15 -14.5 32t-22.5 27q-13 9 -28.5 12t-31.5 3.5
t-32 -0.5t-31 1t-30 2t-30 -1q-19 -2 -36 -1.5t-34 -7.5q-22 -10 -30.5 -30.5t-16.5 -39.5q-5 -12 -7.5 -24.5t-6.5 -25.5q-3 -11 -6.5 -23.5t-12.5 -20.5q-11 -10 -32 -9.5t-33 9.5q-10 7 -10.5 18.5t3.5 24.5t10 25t9 21q7 20 11 39.5t10 39.5q32 110 69.5 216.5
t75.5 214.5q4 12 9 25.5t12.5 26.5t17 23t23.5 14q13 4 32 4t30 -10q7 -6 10.5 -14t7.5 -16q5 -11 11 -21.5t12 -21.5q24 -44 43 -87.5t36 -91.5q17 -50 35 -98t34 -98q8 -23 15 -46.5t14 -46.5q3 -11 6 -20.5t7 -19.5q2 -6 9.5 -18t7.5 -19zM449 276q8 12 5.5 26t-7.5 26
q-7 17 -13 38q-2 8 -6 16.5t-7 16.5q-5 13 -10.5 33t-13.5 39t-21 32t-33 12q-20 -2 -32.5 -21.5t-18.5 -36.5q-8 -22 -15 -45.5t-11 -46.5q-2 -11 -5.5 -22.5t-6 -23.5t-2 -24t6.5 -22q9 -14 29.5 -17.5t36.5 -4.5q13 -1 30.5 -1.5t35.5 1.5t33.5 7.5t24.5 16.5v1z" />
    <glyph glyph-name="abreve" unicode="&#x103;" horiz-adv-x="561" 
d="M281 606q-69 0 -108.5 33.5t-44.5 100.5h54q4 -35 24.5 -49t76.5 -14q49 0 73 15.5t28 47.5h55q-6 -64 -48 -99t-110 -35zM397 507q31 -12 50.5 -34t30 -49.5t13.5 -58.5t3 -61q-1 -38 -2.5 -76.5t-1.5 -76.5q0 -15 2 -33.5t2 -37.5t-4 -36.5t-16 -28.5
q-18 -17 -40.5 -12t-33.5 25q-8 14 -15.5 18t-22.5 -4q-13 -8 -26 -14t-27 -11q-27 -9 -57 -11t-59.5 3.5t-56 19t-46.5 35.5q-18 20 -27.5 45.5t-9.5 52t10 51.5t30 44q21 19 47 30.5t54.5 17t57.5 7t56 2.5q12 0 28 -1t30 1t24 9.5t10 24.5q-1 29 -14 52.5t-41 34.5
q-25 11 -52.5 10t-53.5 -7q-13 -3 -26 -6.5t-24 -10.5q-11 -6 -20.5 -14t-20.5 -14q-11 -7 -23 -9.5t-24 5.5q-11 6 -17 17.5t-4 23.5t10 20.5t19 15t23 11t21 9.5q55 29 118 37t122 -15zM402 176q2 24 -5 42.5t-35 21.5q-26 3 -54 2.5t-54 -2.5q-21 -2 -43 -7.5
t-39.5 -16.5t-27 -29t-5.5 -45q3 -23 17 -38t33.5 -23.5t41 -11t41.5 -0.5q23 2 45.5 10t40.5 21t30 32t15 44h-1z" />
    <glyph glyph-name="Aogonek" unicode="&#x104;" horiz-adv-x="639" 
d="M540 -116q0 -22 12 -33.5t33 -11.5t48 6v-56q-34 -9 -62 -9q-103 0 -103 94q0 68 78 126h62q-34 -32 -51 -58.5t-17 -57.5zM629 74q3 -14 5 -33t-11 -30t-35 -11.5t-36 9.5q-10 8 -13.5 20t-5.5 23q-2 14 -8 28t-11 27q-6 15 -14.5 32t-22.5 27q-13 9 -28.5 12t-31.5 3.5
t-32 -0.5t-31 1t-30 2t-30 -1q-19 -2 -36 -1.5t-34 -7.5q-22 -10 -30.5 -30.5t-16.5 -39.5q-5 -12 -7.5 -24.5t-6.5 -25.5q-3 -11 -6.5 -23.5t-12.5 -20.5q-11 -10 -32 -9.5t-33 9.5q-10 7 -10.5 18.5t3.5 24.5t10 25t9 21q7 20 11 39.5t10 39.5q32 110 69.5 216.5
t75.5 214.5q4 12 9 25.5t12.5 26.5t17 23t23.5 14q13 4 32 4t30 -10q7 -6 10.5 -14t7.5 -16q5 -11 11 -21.5t12 -21.5q24 -44 43 -87.5t36 -91.5q17 -50 35 -98t34 -98q8 -23 15 -46.5t14 -46.5q3 -11 6 -20.5t7 -19.5q2 -6 9.5 -18t7.5 -19zM449 276q8 12 5.5 26t-7.5 26
q-7 17 -13 38q-2 8 -6 16.5t-7 16.5q-5 13 -10.5 33t-13.5 39t-21 32t-33 12q-20 -2 -32.5 -21.5t-18.5 -36.5q-8 -22 -15 -45.5t-11 -46.5q-2 -11 -5.5 -22.5t-6 -23.5t-2 -24t6.5 -22q9 -14 29.5 -17.5t36.5 -4.5q13 -1 30.5 -1.5t35.5 1.5t33.5 7.5t24.5 16.5v1z" />
    <glyph glyph-name="aogonek" unicode="&#x105;" horiz-adv-x="561" 
d="M410 -116q0 -22 12 -33.5t33 -11.5t48 6v-56q-34 -9 -62 -9q-103 0 -103 94q0 68 78 126h62q-34 -32 -51 -58.5t-17 -57.5zM397 507q31 -12 50.5 -34t30 -49.5t13.5 -58.5t3 -61q-1 -38 -2.5 -76.5t-1.5 -76.5q0 -15 2 -33.5t2 -37.5t-4 -36.5t-16 -28.5
q-18 -17 -40.5 -12t-33.5 25q-8 14 -15.5 18t-22.5 -4q-13 -8 -26 -14t-27 -11q-27 -9 -57 -11t-59.5 3.5t-56 19t-46.5 35.5q-18 20 -27.5 45.5t-9.5 52t10 51.5t30 44q21 19 47 30.5t54.5 17t57.5 7t56 2.5q12 0 28 -1t30 1t24 9.5t10 24.5q-1 29 -14 52.5t-41 34.5
q-25 11 -52.5 10t-53.5 -7q-13 -3 -26 -6.5t-24 -10.5q-11 -6 -20.5 -14t-20.5 -14q-11 -7 -23 -9.5t-24 5.5q-11 6 -17 17.5t-4 23.5t10 20.5t19 15t23 11t21 9.5q55 29 118 37t122 -15zM402 176q2 24 -5 42.5t-35 21.5q-26 3 -54 2.5t-54 -2.5q-21 -2 -43 -7.5
t-39.5 -16.5t-27 -29t-5.5 -45q3 -23 17 -38t33.5 -23.5t41 -11t41.5 -0.5q23 2 45.5 10t40.5 21t30 32t15 44h-1z" />
    <glyph glyph-name="Cacute" unicode="&#x106;" horiz-adv-x="631" 
d="M621 168q14 -6 23.5 -21.5t4.5 -31.5t-19 -30.5t-26 -24.5q-19 -15 -40.5 -28.5t-44.5 -21.5q-32 -12 -63 -12.5t-63 -2.5q-12 -1 -22.5 -1.5t-22.5 1.5q-11 2 -20.5 5.5t-19.5 7.5q-19 7 -37 13t-35 17q-25 15 -47.5 31.5t-41.5 39.5q-26 31 -43 68t-25.5 77t-9 81
t7.5 79q16 83 67 149t126 103q28 14 54.5 23.5t57.5 11.5q43 3 85 -4t81 -26q13 -6 29 -15.5t28.5 -21.5t20 -27t3.5 -33q-2 -13 -11 -23t-23 -12q-17 -3 -28 6.5t-22 19.5q-30 26 -61.5 38.5t-71.5 13.5q-41 1 -79 -13.5t-70 -40.5q-35 -28 -57 -68t-32 -85t-7 -91t19 -86
q10 -26 27.5 -52.5t40 -49t49.5 -37.5t56 -18q42 -4 84.5 3.5t76.5 33.5q10 7 21.5 20t24 23.5t26.5 15.5t29 -3v-1zM318 783q19 23 47.5 66.5t47.5 81.5h106v-10q-21 -31 -66.5 -78.5t-76.5 -71.5h-58v12z" />
    <glyph glyph-name="cacute" unicode="&#x107;" horiz-adv-x="479" 
d="M476 474q11 -8 23 -21t12 -28q0 -9 -11 -23.5t-34 -14.5q-14 0 -24.5 10.5t-20.5 17.5q-14 10 -33.5 16t-31.5 6q-10 0 -21 -2t-24 -2q-38 0 -67 -16t-49 -41.5t-30.5 -58.5t-10.5 -66q0 -34 12 -65t33.5 -54.5t50.5 -37.5t62 -14q17 0 35.5 6t36.5 13.5t33.5 13.5
t27.5 6t19.5 -4.5t12 -11t6.5 -14t2 -12.5q0 -20 -17 -35t-42 -25t-53.5 -14.5t-50.5 -4.5q-33 0 -64 7t-59 25q-38 25 -63 51t-40 54.5t-21.5 58.5t-6.5 62q0 35 6.5 63t19 52t30 46t39.5 44q15 15 37 25t46.5 16t48.5 9t44 3q38 0 72 -9.5t65 -30.5zM224 618
q19 23 47.5 66.5t47.5 81.5h106v-10q-21 -31 -66.5 -78.5t-76.5 -71.5h-58v12z" />
    <glyph glyph-name="Ccircumflex" unicode="&#x108;" horiz-adv-x="631" 
d="M220 782q61 65 86 96.5t37 52.5h90q25 -49 125 -149v-11h-62q-44 26 -109 90q-64 -62 -107 -90h-60v11zM621 168q14 -6 23.5 -21.5t4.5 -31.5t-19 -30.5t-26 -24.5q-19 -15 -40.5 -28.5t-44.5 -21.5q-32 -12 -63 -12.5t-63 -2.5q-12 -1 -22.5 -1.5t-22.5 1.5
q-11 2 -20.5 5.5t-19.5 7.5q-19 7 -37 13t-35 17q-25 15 -47.5 31.5t-41.5 39.5q-26 31 -43 68t-25.5 77t-9 81t7.5 79q16 83 67 149t126 103q28 14 54.5 23.5t57.5 11.5q43 3 85 -4t81 -26q13 -6 29 -15.5t28.5 -21.5t20 -27t3.5 -33q-2 -13 -11 -23t-23 -12
q-17 -3 -28 6.5t-22 19.5q-30 26 -61.5 38.5t-71.5 13.5q-41 1 -79 -13.5t-70 -40.5q-35 -28 -57 -68t-32 -85t-7 -91t19 -86q10 -26 27.5 -52.5t40 -49t49.5 -37.5t56 -18q42 -4 84.5 3.5t76.5 33.5q10 7 21.5 20t24 23.5t26.5 15.5t29 -3v-1z" />
    <glyph glyph-name="ccircumflex" unicode="&#x109;" horiz-adv-x="479" 
d="M118 617q61 65 86 96.5t37 52.5h90q25 -49 125 -149v-11h-62q-44 26 -109 90q-64 -62 -107 -90h-60v11zM476 474q11 -8 23 -21t12 -28q0 -9 -11 -23.5t-34 -14.5q-14 0 -24.5 10.5t-20.5 17.5q-14 10 -33.5 16t-31.5 6q-10 0 -21 -2t-24 -2q-38 0 -67 -16t-49 -41.5
t-30.5 -58.5t-10.5 -66q0 -34 12 -65t33.5 -54.5t50.5 -37.5t62 -14q17 0 35.5 6t36.5 13.5t33.5 13.5t27.5 6t19.5 -4.5t12 -11t6.5 -14t2 -12.5q0 -20 -17 -35t-42 -25t-53.5 -14.5t-50.5 -4.5q-33 0 -64 7t-59 25q-38 25 -63 51t-40 54.5t-21.5 58.5t-6.5 62q0 35 6.5 63
t19 52t30 46t39.5 44q15 15 37 25t46.5 16t48.5 9t44 3q38 0 72 -9.5t65 -30.5z" />
    <glyph glyph-name="Cdotaccent" unicode="&#x10a;" horiz-adv-x="631" 
d="M337 846q0 29 15 42.5t37 13.5q21 0 36 -13.5t15 -42.5t-15.5 -42.5t-35.5 -13.5q-22 0 -37 13.5t-15 42.5zM621 168q14 -6 23.5 -21.5t4.5 -31.5t-19 -30.5t-26 -24.5q-19 -15 -40.5 -28.5t-44.5 -21.5q-32 -12 -63 -12.5t-63 -2.5q-12 -1 -22.5 -1.5t-22.5 1.5
q-11 2 -20.5 5.5t-19.5 7.5q-19 7 -37 13t-35 17q-25 15 -47.5 31.5t-41.5 39.5q-26 31 -43 68t-25.5 77t-9 81t7.5 79q16 83 67 149t126 103q28 14 54.5 23.5t57.5 11.5q43 3 85 -4t81 -26q13 -6 29 -15.5t28.5 -21.5t20 -27t3.5 -33q-2 -13 -11 -23t-23 -12
q-17 -3 -28 6.5t-22 19.5q-30 26 -61.5 38.5t-71.5 13.5q-41 1 -79 -13.5t-70 -40.5q-35 -28 -57 -68t-32 -85t-7 -91t19 -86q10 -26 27.5 -52.5t40 -49t49.5 -37.5t56 -18q42 -4 84.5 3.5t76.5 33.5q10 7 21.5 20t24 23.5t26.5 15.5t29 -3v-1z" />
    <glyph glyph-name="cdotaccent" unicode="&#x10b;" horiz-adv-x="479" 
d="M241 681q0 29 15 42.5t37 13.5q21 0 36 -13.5t15 -42.5t-15.5 -42.5t-35.5 -13.5q-22 0 -37 13.5t-15 42.5zM476 474q11 -8 23 -21t12 -28q0 -9 -11 -23.5t-34 -14.5q-14 0 -24.5 10.5t-20.5 17.5q-14 10 -33.5 16t-31.5 6q-10 0 -21 -2t-24 -2q-38 0 -67 -16t-49 -41.5
t-30.5 -58.5t-10.5 -66q0 -34 12 -65t33.5 -54.5t50.5 -37.5t62 -14q17 0 35.5 6t36.5 13.5t33.5 13.5t27.5 6t19.5 -4.5t12 -11t6.5 -14t2 -12.5q0 -20 -17 -35t-42 -25t-53.5 -14.5t-50.5 -4.5q-33 0 -64 7t-59 25q-38 25 -63 51t-40 54.5t-21.5 58.5t-6.5 62q0 35 6.5 63
t19 52t30 46t39.5 44q15 15 37 25t46.5 16t48.5 9t44 3q38 0 72 -9.5t65 -30.5z" />
    <glyph glyph-name="Ccaron" unicode="&#x10c;" horiz-adv-x="631" 
d="M220 931h60q56 -36 107 -92q62 62 109 92h62v-13q-100 -100 -125 -147h-90q-29 50 -123 147v13zM621 168q14 -6 23.5 -21.5t4.5 -31.5t-19 -30.5t-26 -24.5q-19 -15 -40.5 -28.5t-44.5 -21.5q-32 -12 -63 -12.5t-63 -2.5q-12 -1 -22.5 -1.5t-22.5 1.5q-11 2 -20.5 5.5
t-19.5 7.5q-19 7 -37 13t-35 17q-25 15 -47.5 31.5t-41.5 39.5q-26 31 -43 68t-25.5 77t-9 81t7.5 79q16 83 67 149t126 103q28 14 54.5 23.5t57.5 11.5q43 3 85 -4t81 -26q13 -6 29 -15.5t28.5 -21.5t20 -27t3.5 -33q-2 -13 -11 -23t-23 -12q-17 -3 -28 6.5t-22 19.5
q-30 26 -61.5 38.5t-71.5 13.5q-41 1 -79 -13.5t-70 -40.5q-35 -28 -57 -68t-32 -85t-7 -91t19 -86q10 -26 27.5 -52.5t40 -49t49.5 -37.5t56 -18q42 -4 84.5 3.5t76.5 33.5q10 7 21.5 20t24 23.5t26.5 15.5t29 -3v-1z" />
    <glyph glyph-name="ccaron" unicode="&#x10d;" horiz-adv-x="479" 
d="M122 766h60q56 -36 107 -92q62 62 109 92h62v-13q-100 -100 -125 -147h-90q-29 50 -123 147v13zM476 474q11 -8 23 -21t12 -28q0 -9 -11 -23.5t-34 -14.5q-14 0 -24.5 10.5t-20.5 17.5q-14 10 -33.5 16t-31.5 6q-10 0 -21 -2t-24 -2q-38 0 -67 -16t-49 -41.5t-30.5 -58.5
t-10.5 -66q0 -34 12 -65t33.5 -54.5t50.5 -37.5t62 -14q17 0 35.5 6t36.5 13.5t33.5 13.5t27.5 6t19.5 -4.5t12 -11t6.5 -14t2 -12.5q0 -20 -17 -35t-42 -25t-53.5 -14.5t-50.5 -4.5q-33 0 -64 7t-59 25q-38 25 -63 51t-40 54.5t-21.5 58.5t-6.5 62q0 35 6.5 63t19 52t30 46
t39.5 44q15 15 37 25t46.5 16t48.5 9t44 3q38 0 72 -9.5t65 -30.5z" />
    <glyph glyph-name="Dcaron" unicode="&#x10e;" horiz-adv-x="729" 
d="M170 931h60q56 -36 107 -92q62 62 109 92h62v-13q-100 -100 -125 -147h-90q-29 50 -123 147v13zM602 460q11 -41 9.5 -84.5t-6.5 -85.5q0 -69 -26.5 -129.5t-85.5 -99.5q-8 -6 -17 -11.5t-18 -10.5q-15 -8 -27.5 -16t-29.5 -12q-34 -8 -67 -13.5t-68 -0.5q-26 3 -52 5
t-52 2q-10 0 -23 -1.5t-25.5 -0.5t-23.5 4.5t-17 14.5q-9 18 -8.5 42.5t0.5 44.5q0 17 0.5 35t2.5 36q5 35 3.5 68.5t2.5 68.5q3 25 3.5 50t1.5 51t2 53.5t-1 53.5q-2 29 -3.5 58.5t4.5 59.5q13 54 70 57q32 2 65 0q38 -1 76 -6.5t75 -15.5q27 -8 49 -19.5t45 -29.5
q24 -18 45 -33t38 -41q16 -22 32.5 -47t24.5 -51zM519 329q1 48 -7.5 97t-40.5 87q-6 13 -17.5 24.5t-25 21t-27 18t-25.5 14.5q-32 18 -71 21t-71 -20q-24 -17 -38.5 -43t-21.5 -55q-6 -26 -6 -48q-1 -20 -2.5 -39t-1.5 -39q0 -36 -1 -72t-3 -71t4.5 -67t32.5 -56
q26 -23 62.5 -28.5t68.5 2.5q38 10 73.5 27t64.5 45q17 18 27.5 39.5t16.5 45t8 48t2 48.5h-1z" />
    <glyph glyph-name="dcaron" unicode="&#x10f;" horiz-adv-x="615" 
d="M575 612q11 32 20.5 77.5t12.5 70.5h87v-9q-6 -26 -27 -71t-45 -80h-48v12zM572 694q9 -6 13 -17t4.5 -23t-0.5 -24t-1 -22q-2 -33 -1.5 -66t-0.5 -66q-2 -63 -1.5 -124.5t-1.5 -124.5q-1 -26 -2.5 -51t-2.5 -51q0 -10 -0.5 -19.5t0.5 -19.5q1 -12 3.5 -24.5t0.5 -25.5
q-3 -13 -11.5 -20t-19.5 -9t-23 -0.5t-21 6.5q-10 5 -16 14t-17 12q-7 2 -12.5 0.5t-10.5 -5.5t-9.5 -8t-10.5 -6q-66 -26 -136 -17.5t-127 51.5q-11 8 -23 16.5t-18 17.5q-8 12 -16.5 24t-16.5 25q-18 28 -21 62.5t-4 66.5q-1 27 6 54t19 52.5t29.5 47.5t37.5 39t47 28
t52 18q55 15 113 4q11 -2 23 -7t24 -9t23.5 -5t23.5 4q14 6 19.5 16t7 22t0.5 24.5t-1 24.5q0 17 1.5 34t0.5 34q0 11 2.5 20.5t11.5 17.5q13 11 32 12.5t31 -3.5zM483 163q12 25 10 53t-3 54q-1 28 -5.5 52.5t-21.5 48.5q-19 26 -42.5 42.5t-55.5 22.5q-9 2 -18.5 4.5
t-18.5 3.5q-8 0 -23 -2.5t-24 -4.5q-5 -1 -9 -2t-9 -3q-46 -18 -74 -59t-34 -89q-4 -29 -2.5 -58t15.5 -55q14 -27 39 -46.5t54 -31.5q33 -14 68.5 -11.5t67.5 16.5q26 11 52 32q11 9 19.5 15.5t14.5 17.5z" />
    <glyph glyph-name="Dcroat" unicode="&#x110;" horiz-adv-x="729" 
d="M669 364q0 -175 -96 -269.5t-278 -94.5h-191v314h-74v78h74v322h213q167 0 259.5 -92t92.5 -258zM574 361q0 137 -68 206.5t-202 69.5h-110v-245h178v-78h-178v-237h90q290 0 290 284z" />
    <glyph glyph-name="dcroat" unicode="&#x111;" horiz-adv-x="617" 
d="M275 -10q-104 0 -162 72t-58 203q0 132 57.5 205t162.5 73q109 0 167 -79h6q-1 7 -3.5 33.5t-2.5 46.5v61h-213v66h213v89h88v-89h76v-66h-76v-605h-72l-13 72h-4q-56 -82 -166 -82zM290 63q80 0 116.5 43t36.5 142v17q0 112 -37 158.5t-118 46.5q-68 0 -104.5 -52
t-36.5 -154q0 -96 35 -148.5t108 -52.5z" />
    <glyph glyph-name="Emacron" unicode="&#x112;" horiz-adv-x="556" 
d="M148 842h297v-71h-297v71zM483 98q21 0 38.5 -10.5t17.5 -34.5q-1 -21 -14.5 -34.5t-33.5 -15.5q-26 -2 -52.5 -1t-51.5 3q-23 1 -46 1h-46q-25 0 -49.5 -3t-49.5 -2q-15 1 -30.5 1.5t-30.5 3.5t-28 9.5t-23 19.5q-15 20 -17 43t-3 47q0 7 -0.5 16t-0.5 17q-1 12 1 24
t2 25q1 45 0.5 89t-1.5 88q-1 38 2 74t1 73q0 17 -1 35.5t0.5 36.5t6.5 34.5t17 31.5q11 14 25 20t29 8t31 1.5t32 -0.5q32 0 63 -0.5t63 -2.5q25 -1 49 -1.5t49 -0.5q20 0 45.5 2t45.5 -8q13 -6 19.5 -18t6.5 -25t-7 -24.5t-22 -15.5q-13 -4 -28.5 -2.5t-29.5 1.5
q-30 1 -59.5 1.5t-59.5 0.5h-51t-49 -2q-47 -5 -68.5 -35t-18.5 -76q1 -22 8.5 -42.5t24.5 -34.5q18 -16 40.5 -18.5t45.5 -2.5q20 0 39 1t37 -1q19 -2 27 -17.5t6 -32.5q-2 -16 -10 -27.5t-24 -13.5q-23 -4 -46 -5.5t-46 -2.5q-26 -1 -50.5 -10t-38.5 -34
q-8 -16 -8.5 -36.5t1.5 -38.5q4 -27 25.5 -47t45.5 -28q26 -10 52.5 -7t52.5 2q20 -1 38.5 -1t37.5 -2q19 -1 36.5 1t32.5 4z" />
    <glyph glyph-name="emacron" unicode="&#x113;" horiz-adv-x="563" 
d="M150 677h297v-71h-297v71zM556 372q5 -14 8 -27.5t1 -28.5q-3 -20 -12.5 -35t-23.5 -25.5t-31.5 -16.5t-36.5 -7q-37 -3 -74.5 -2t-74.5 0q-19 0 -37.5 -1t-37.5 -2q-14 -1 -26 -2t-22 -12q-11 -11 -12 -22.5t4.5 -23t14 -21.5t17.5 -17q23 -20 51 -32.5t59 -13.5
q29 -1 54.5 9t49.5 24q9 5 18.5 12t20 12t21 7t21.5 -3q23 -11 28.5 -33t-15.5 -39q-18 -14 -39 -25.5t-42 -20.5q-60 -26 -125.5 -20t-120 37t-90 84t-36.5 122v41t5 41q5 18 14 34l18 32q17 29 40 55t54 40q34 16 70.5 24t73.5 6.5t72.5 -13t67.5 -33.5q27 -19 44 -47
t29 -57zM454 319q10 5 13.5 13t2.5 17t-5 17.5t-8 16.5q-14 23 -32.5 37t-40 20.5t-45.5 6.5t-49 -5q-15 -3 -37 -12.5t-40 -24t-27 -32.5t2 -38q10 -18 28 -21t36 -2q27 1 53.5 2.5t53.5 1.5h28.5t28.5 -1q9 0 18.5 -1t17.5 4z" />
    <glyph glyph-name="Ebreve" unicode="&#x114;" horiz-adv-x="556" 
d="M299 771q-69 0 -108.5 33.5t-44.5 100.5h54q4 -35 24.5 -49t76.5 -14q49 0 73 15.5t28 47.5h55q-6 -64 -48 -99t-110 -35zM483 98q21 0 38.5 -10.5t17.5 -34.5q-1 -21 -14.5 -34.5t-33.5 -15.5q-26 -2 -52.5 -1t-51.5 3q-23 1 -46 1h-46q-25 0 -49.5 -3t-49.5 -2
q-15 1 -30.5 1.5t-30.5 3.5t-28 9.5t-23 19.5q-15 20 -17 43t-3 47q0 7 -0.5 16t-0.5 17q-1 12 1 24t2 25q1 45 0.5 89t-1.5 88q-1 38 2 74t1 73q0 17 -1 35.5t0.5 36.5t6.5 34.5t17 31.5q11 14 25 20t29 8t31 1.5t32 -0.5q32 0 63 -0.5t63 -2.5q25 -1 49 -1.5t49 -0.5
q20 0 45.5 2t45.5 -8q13 -6 19.5 -18t6.5 -25t-7 -24.5t-22 -15.5q-13 -4 -28.5 -2.5t-29.5 1.5q-30 1 -59.5 1.5t-59.5 0.5h-51t-49 -2q-47 -5 -68.5 -35t-18.5 -76q1 -22 8.5 -42.5t24.5 -34.5q18 -16 40.5 -18.5t45.5 -2.5q20 0 39 1t37 -1q19 -2 27 -17.5t6 -32.5
q-2 -16 -10 -27.5t-24 -13.5q-23 -4 -46 -5.5t-46 -2.5q-26 -1 -50.5 -10t-38.5 -34q-8 -16 -8.5 -36.5t1.5 -38.5q4 -27 25.5 -47t45.5 -28q26 -10 52.5 -7t52.5 2q20 -1 38.5 -1t37.5 -2q19 -1 36.5 1t32.5 4z" />
    <glyph glyph-name="ebreve" unicode="&#x115;" horiz-adv-x="563" 
d="M292 606q-69 0 -108.5 33.5t-44.5 100.5h54q4 -35 24.5 -49t76.5 -14q49 0 73 15.5t28 47.5h55q-6 -64 -48 -99t-110 -35zM556 372q5 -14 8 -27.5t1 -28.5q-3 -20 -12.5 -35t-23.5 -25.5t-31.5 -16.5t-36.5 -7q-37 -3 -74.5 -2t-74.5 0q-19 0 -37.5 -1t-37.5 -2
q-14 -1 -26 -2t-22 -12q-11 -11 -12 -22.5t4.5 -23t14 -21.5t17.5 -17q23 -20 51 -32.5t59 -13.5q29 -1 54.5 9t49.5 24q9 5 18.5 12t20 12t21 7t21.5 -3q23 -11 28.5 -33t-15.5 -39q-18 -14 -39 -25.5t-42 -20.5q-60 -26 -125.5 -20t-120 37t-90 84t-36.5 122v41t5 41
q5 18 14 34l18 32q17 29 40 55t54 40q34 16 70.5 24t73.5 6.5t72.5 -13t67.5 -33.5q27 -19 44 -47t29 -57zM454 319q10 5 13.5 13t2.5 17t-5 17.5t-8 16.5q-14 23 -32.5 37t-40 20.5t-45.5 6.5t-49 -5q-15 -3 -37 -12.5t-40 -24t-27 -32.5t2 -38q10 -18 28 -21t36 -2
q27 1 53.5 2.5t53.5 1.5h28.5t28.5 -1q9 0 18.5 -1t17.5 4z" />
    <glyph glyph-name="Edotaccent" unicode="&#x116;" horiz-adv-x="556" 
d="M253 832q0 29 15 42.5t37 13.5q21 0 36 -13.5t15 -42.5t-15.5 -42.5t-35.5 -13.5q-22 0 -37 13.5t-15 42.5zM483 98q21 0 38.5 -10.5t17.5 -34.5q-1 -21 -14.5 -34.5t-33.5 -15.5q-26 -2 -52.5 -1t-51.5 3q-23 1 -46 1h-46q-25 0 -49.5 -3t-49.5 -2q-15 1 -30.5 1.5
t-30.5 3.5t-28 9.5t-23 19.5q-15 20 -17 43t-3 47q0 7 -0.5 16t-0.5 17q-1 12 1 24t2 25q1 45 0.5 89t-1.5 88q-1 38 2 74t1 73q0 17 -1 35.5t0.5 36.5t6.5 34.5t17 31.5q11 14 25 20t29 8t31 1.5t32 -0.5q32 0 63 -0.5t63 -2.5q25 -1 49 -1.5t49 -0.5q20 0 45.5 2t45.5 -8
q13 -6 19.5 -18t6.5 -25t-7 -24.5t-22 -15.5q-13 -4 -28.5 -2.5t-29.5 1.5q-30 1 -59.5 1.5t-59.5 0.5h-51t-49 -2q-47 -5 -68.5 -35t-18.5 -76q1 -22 8.5 -42.5t24.5 -34.5q18 -16 40.5 -18.5t45.5 -2.5q20 0 39 1t37 -1q19 -2 27 -17.5t6 -32.5q-2 -16 -10 -27.5
t-24 -13.5q-23 -4 -46 -5.5t-46 -2.5q-26 -1 -50.5 -10t-38.5 -34q-8 -16 -8.5 -36.5t1.5 -38.5q4 -27 25.5 -47t45.5 -28q26 -10 52.5 -7t52.5 2q20 -1 38.5 -1t37.5 -2q19 -1 36.5 1t32.5 4z" />
    <glyph glyph-name="edotaccent" unicode="&#x117;" horiz-adv-x="563" 
d="M243 681q0 29 15 42.5t37 13.5q21 0 36 -13.5t15 -42.5t-15.5 -42.5t-35.5 -13.5q-22 0 -37 13.5t-15 42.5zM556 372q5 -14 8 -27.5t1 -28.5q-3 -20 -12.5 -35t-23.5 -25.5t-31.5 -16.5t-36.5 -7q-37 -3 -74.5 -2t-74.5 0q-19 0 -37.5 -1t-37.5 -2q-14 -1 -26 -2t-22 -12
q-11 -11 -12 -22.5t4.5 -23t14 -21.5t17.5 -17q23 -20 51 -32.5t59 -13.5q29 -1 54.5 9t49.5 24q9 5 18.5 12t20 12t21 7t21.5 -3q23 -11 28.5 -33t-15.5 -39q-18 -14 -39 -25.5t-42 -20.5q-60 -26 -125.5 -20t-120 37t-90 84t-36.5 122v41t5 41q5 18 14 34l18 32
q17 29 40 55t54 40q34 16 70.5 24t73.5 6.5t72.5 -13t67.5 -33.5q27 -19 44 -47t29 -57zM454 319q10 5 13.5 13t2.5 17t-5 17.5t-8 16.5q-14 23 -32.5 37t-40 20.5t-45.5 6.5t-49 -5q-15 -3 -37 -12.5t-40 -24t-27 -32.5t2 -38q10 -18 28 -21t36 -2q27 1 53.5 2.5t53.5 1.5
h28.5t28.5 -1q9 0 18.5 -1t17.5 4z" />
    <glyph glyph-name="Eogonek" unicode="&#x118;" horiz-adv-x="556" 
d="M392 -116q0 -22 12 -33.5t33 -11.5t48 6v-56q-34 -9 -62 -9q-103 0 -103 94q0 68 78 126h62q-34 -32 -51 -58.5t-17 -57.5zM483 98q21 0 38.5 -10.5t17.5 -34.5q-1 -21 -14.5 -34.5t-33.5 -15.5q-26 -2 -52.5 -1t-51.5 3q-23 1 -46 1h-46q-25 0 -49.5 -3t-49.5 -2
q-15 1 -30.5 1.5t-30.5 3.5t-28 9.5t-23 19.5q-15 20 -17 43t-3 47q0 7 -0.5 16t-0.5 17q-1 12 1 24t2 25q1 45 0.5 89t-1.5 88q-1 38 2 74t1 73q0 17 -1 35.5t0.5 36.5t6.5 34.5t17 31.5q11 14 25 20t29 8t31 1.5t32 -0.5q32 0 63 -0.5t63 -2.5q25 -1 49 -1.5t49 -0.5
q20 0 45.5 2t45.5 -8q13 -6 19.5 -18t6.5 -25t-7 -24.5t-22 -15.5q-13 -4 -28.5 -2.5t-29.5 1.5q-30 1 -59.5 1.5t-59.5 0.5h-51t-49 -2q-47 -5 -68.5 -35t-18.5 -76q1 -22 8.5 -42.5t24.5 -34.5q18 -16 40.5 -18.5t45.5 -2.5q20 0 39 1t37 -1q19 -2 27 -17.5t6 -32.5
q-2 -16 -10 -27.5t-24 -13.5q-23 -4 -46 -5.5t-46 -2.5q-26 -1 -50.5 -10t-38.5 -34q-8 -16 -8.5 -36.5t1.5 -38.5q4 -27 25.5 -47t45.5 -28q26 -10 52.5 -7t52.5 2q20 -1 38.5 -1t37.5 -2q19 -1 36.5 1t32.5 4z" />
    <glyph glyph-name="eogonek" unicode="&#x119;" horiz-adv-x="563" 
d="M387 -102q0 -22 12 -33.5t33 -11.5t48 6v-56q-34 -9 -62 -9q-103 0 -103 94q0 68 78 126h62q-34 -32 -51 -58.5t-17 -57.5zM556 372q5 -14 8 -27.5t1 -28.5q-3 -20 -12.5 -35t-23.5 -25.5t-31.5 -16.5t-36.5 -7q-37 -3 -74.5 -2t-74.5 0q-19 0 -37.5 -1t-37.5 -2
q-14 -1 -26 -2t-22 -12q-11 -11 -12 -22.5t4.5 -23t14 -21.5t17.5 -17q23 -20 51 -32.5t59 -13.5q29 -1 54.5 9t49.5 24q9 5 18.5 12t20 12t21 7t21.5 -3q23 -11 28.5 -33t-15.5 -39q-18 -14 -39 -25.5t-42 -20.5q-60 -26 -125.5 -20t-120 37t-90 84t-36.5 122v41t5 41
q5 18 14 34l18 32q17 29 40 55t54 40q34 16 70.5 24t73.5 6.5t72.5 -13t67.5 -33.5q27 -19 44 -47t29 -57zM454 319q10 5 13.5 13t2.5 17t-5 17.5t-8 16.5q-14 23 -32.5 37t-40 20.5t-45.5 6.5t-49 -5q-15 -3 -37 -12.5t-40 -24t-27 -32.5t2 -38q10 -18 28 -21t36 -2
q27 1 53.5 2.5t53.5 1.5h28.5t28.5 -1q9 0 18.5 -1t17.5 4z" />
    <glyph glyph-name="Ecaron" unicode="&#x11a;" horiz-adv-x="556" 
d="M133 931h60q56 -36 107 -92q62 62 109 92h62v-13q-100 -100 -125 -147h-90q-29 50 -123 147v13zM483 98q21 0 38.5 -10.5t17.5 -34.5q-1 -21 -14.5 -34.5t-33.5 -15.5q-26 -2 -52.5 -1t-51.5 3q-23 1 -46 1h-46q-25 0 -49.5 -3t-49.5 -2q-15 1 -30.5 1.5t-30.5 3.5
t-28 9.5t-23 19.5q-15 20 -17 43t-3 47q0 7 -0.5 16t-0.5 17q-1 12 1 24t2 25q1 45 0.5 89t-1.5 88q-1 38 2 74t1 73q0 17 -1 35.5t0.5 36.5t6.5 34.5t17 31.5q11 14 25 20t29 8t31 1.5t32 -0.5q32 0 63 -0.5t63 -2.5q25 -1 49 -1.5t49 -0.5q20 0 45.5 2t45.5 -8
q13 -6 19.5 -18t6.5 -25t-7 -24.5t-22 -15.5q-13 -4 -28.5 -2.5t-29.5 1.5q-30 1 -59.5 1.5t-59.5 0.5h-51t-49 -2q-47 -5 -68.5 -35t-18.5 -76q1 -22 8.5 -42.5t24.5 -34.5q18 -16 40.5 -18.5t45.5 -2.5q20 0 39 1t37 -1q19 -2 27 -17.5t6 -32.5q-2 -16 -10 -27.5
t-24 -13.5q-23 -4 -46 -5.5t-46 -2.5q-26 -1 -50.5 -10t-38.5 -34q-8 -16 -8.5 -36.5t1.5 -38.5q4 -27 25.5 -47t45.5 -28q26 -10 52.5 -7t52.5 2q20 -1 38.5 -1t37.5 -2q19 -1 36.5 1t32.5 4z" />
    <glyph glyph-name="ecaron" unicode="&#x11b;" horiz-adv-x="563" 
d="M126 766h60q56 -36 107 -92q62 62 109 92h62v-13q-100 -100 -125 -147h-90q-29 50 -123 147v13zM556 372q5 -14 8 -27.5t1 -28.5q-3 -20 -12.5 -35t-23.5 -25.5t-31.5 -16.5t-36.5 -7q-37 -3 -74.5 -2t-74.5 0q-19 0 -37.5 -1t-37.5 -2q-14 -1 -26 -2t-22 -12
q-11 -11 -12 -22.5t4.5 -23t14 -21.5t17.5 -17q23 -20 51 -32.5t59 -13.5q29 -1 54.5 9t49.5 24q9 5 18.5 12t20 12t21 7t21.5 -3q23 -11 28.5 -33t-15.5 -39q-18 -14 -39 -25.5t-42 -20.5q-60 -26 -125.5 -20t-120 37t-90 84t-36.5 122v41t5 41q5 18 14 34l18 32
q17 29 40 55t54 40q34 16 70.5 24t73.5 6.5t72.5 -13t67.5 -33.5q27 -19 44 -47t29 -57zM454 319q10 5 13.5 13t2.5 17t-5 17.5t-8 16.5q-14 23 -32.5 37t-40 20.5t-45.5 6.5t-49 -5q-15 -3 -37 -12.5t-40 -24t-27 -32.5t2 -38q10 -18 28 -21t36 -2q27 1 53.5 2.5t53.5 1.5
h28.5t28.5 -1q9 0 18.5 -1t17.5 4z" />
    <glyph glyph-name="Gcircumflex" unicode="&#x11c;" horiz-adv-x="728" 
d="M248 782q61 65 86 96.5t37 52.5h90q25 -49 125 -149v-11h-62q-44 26 -109 90q-64 -62 -107 -90h-60v11zM634 367q5 -6 9.5 -15t4.5 -17q6 -38 5 -82t-14 -82q-15 -45 -46.5 -81.5t-72.5 -60.5q-49 -29 -109.5 -35t-115.5 10q-19 5 -36 15.5t-34 20.5q-45 27 -81 66
q-16 17 -29 38t-21 43q-8 23 -9.5 49t-6.5 50q-4 20 -7 42.5t1 43.5q3 19 7 36.5t6 36.5t13 37t20 35q8 15 15 30.5t18 29.5q12 16 28.5 28t32.5 23q20 14 40.5 26t43.5 20q32 12 69.5 17t71.5 -1q9 -2 18 -5.5t18 -6.5q14 -5 27.5 -9.5t26.5 -12.5t24.5 -18t22.5 -21
q12 -11 25 -21.5t22 -24.5q11 -17 10 -37t-21 -32q-14 -9 -27 -6t-24 12t-21 20.5t-18 20.5q-19 20 -46 32.5t-54 16.5t-51.5 0.5t-50.5 -11.5q-48 -14 -83 -51t-55 -81q-6 -12 -8 -26t-6 -27q-6 -21 -6 -40t2 -41q2 -23 4 -45t7 -45q2 -11 4.5 -21.5t7.5 -20.5
q6 -11 16 -21t18 -19q9 -10 19.5 -18t19.5 -18q14 -16 35 -23q38 -13 79 -20q26 -5 50 3.5t46 21.5q21 12 41 27.5t32 37.5q9 15 14 34t4.5 37.5t-7 36t-21.5 29.5q-17 14 -39 15.5t-43 0.5q-12 0 -21 4.5t-14 17.5q-6 17 2.5 35t25.5 23q20 6 44 4.5t44 -3.5q15 -1 29.5 -2
t28.5 -3q14 0 24.5 -4.5t21.5 -17.5z" />
    <glyph glyph-name="gcircumflex" unicode="&#x11d;" horiz-adv-x="615" 
d="M132 617q61 65 86 96.5t37 52.5h90q25 -49 125 -149v-11h-62q-44 26 -109 90q-64 -62 -107 -90h-60v11zM573 399q-1 -20 -1 -40.5v-40.5q-1 -81 -0.5 -163t-9.5 -163q-4 -30 -10 -60.5t-20 -57.5q-14 -29 -40.5 -49.5t-55.5 -33.5q-68 -30 -146 -25t-143 40
q-15 8 -26.5 18.5t-10.5 29.5q1 15 9 24t21 13q8 2 15.5 0.5t14.5 -5t13.5 -8t13.5 -8.5q30 -16 65 -24q38 -8 79.5 -3t72.5 31t46 63q6 15 12 35t3 37q-5 21 -19 19t-28 -8q-17 -8 -35.5 -14t-36.5 -10q-38 -8 -76.5 -3t-73.5 25q-29 17 -56 39.5t-43 51.5q-5 8 -10 14.5
t-10 14.5t-8 18.5t-5 20.5q-4 19 -4.5 38t-1.5 38q-1 26 2 49.5t15 47.5q8 17 19 33t22 31q5 7 10 12t11 10t11 12t12 12q15 12 34.5 18t36.5 13q38 14 80.5 14t80.5 -15q6 -3 15 -8l18 -10t18 -8t16 -1q6 2 10 7t7 11t6.5 12t9.5 10q9 6 20.5 7.5t22 -1t18 -10t10.5 -19.5
q5 -19 3 -39t-3 -40v-2zM479 189q5 14 3.5 26.5t-1.5 26.5v51q0 29 -14 51.5t-35 42.5q-11 11 -23.5 19.5t-26.5 13.5q-12 5 -28.5 9.5t-29.5 3.5q-6 -1 -11.5 -3t-11.5 -3q-7 -1 -13 -1.5t-13 -2.5q-21 -6 -39 -18q-39 -26 -60.5 -70.5t-21.5 -91.5q-3 -34 10 -65.5
t36.5 -55.5t54.5 -39t64 -15q25 0 52 8.5t49.5 25t38.5 38.5t20 49z" />
    <glyph glyph-name="Gbreve" unicode="&#x11e;" horiz-adv-x="728" 
d="M414 771q-69 0 -108.5 33.5t-44.5 100.5h54q4 -35 24.5 -49t76.5 -14q49 0 73 15.5t28 47.5h55q-6 -64 -48 -99t-110 -35zM634 367q5 -6 9.5 -15t4.5 -17q6 -38 5 -82t-14 -82q-15 -45 -46.5 -81.5t-72.5 -60.5q-49 -29 -109.5 -35t-115.5 10q-19 5 -36 15.5t-34 20.5
q-45 27 -81 66q-16 17 -29 38t-21 43q-8 23 -9.5 49t-6.5 50q-4 20 -7 42.5t1 43.5q3 19 7 36.5t6 36.5t13 37t20 35q8 15 15 30.5t18 29.5q12 16 28.5 28t32.5 23q20 14 40.5 26t43.5 20q32 12 69.5 17t71.5 -1q9 -2 18 -5.5t18 -6.5q14 -5 27.5 -9.5t26.5 -12.5t24.5 -18
t22.5 -21q12 -11 25 -21.5t22 -24.5q11 -17 10 -37t-21 -32q-14 -9 -27 -6t-24 12t-21 20.5t-18 20.5q-19 20 -46 32.5t-54 16.5t-51.5 0.5t-50.5 -11.5q-48 -14 -83 -51t-55 -81q-6 -12 -8 -26t-6 -27q-6 -21 -6 -40t2 -41q2 -23 4 -45t7 -45q2 -11 4.5 -21.5t7.5 -20.5
q6 -11 16 -21t18 -19q9 -10 19.5 -18t19.5 -18q14 -16 35 -23q38 -13 79 -20q26 -5 50 3.5t46 21.5q21 12 41 27.5t32 37.5q9 15 14 34t4.5 37.5t-7 36t-21.5 29.5q-17 14 -39 15.5t-43 0.5q-12 0 -21 4.5t-14 17.5q-6 17 2.5 35t25.5 23q20 6 44 4.5t44 -3.5q15 -1 29.5 -2
t28.5 -3q14 0 24.5 -4.5t21.5 -17.5z" />
    <glyph glyph-name="gbreve" unicode="&#x11f;" horiz-adv-x="615" 
d="M300 606q-69 0 -108.5 33.5t-44.5 100.5h54q4 -35 24.5 -49t76.5 -14q49 0 73 15.5t28 47.5h55q-6 -64 -48 -99t-110 -35zM573 399q-1 -20 -1 -40.5v-40.5q-1 -81 -0.5 -163t-9.5 -163q-4 -30 -10 -60.5t-20 -57.5q-14 -29 -40.5 -49.5t-55.5 -33.5q-68 -30 -146 -25
t-143 40q-15 8 -26.5 18.5t-10.5 29.5q1 15 9 24t21 13q8 2 15.5 0.5t14.5 -5t13.5 -8t13.5 -8.5q30 -16 65 -24q38 -8 79.5 -3t72.5 31t46 63q6 15 12 35t3 37q-5 21 -19 19t-28 -8q-17 -8 -35.5 -14t-36.5 -10q-38 -8 -76.5 -3t-73.5 25q-29 17 -56 39.5t-43 51.5
q-5 8 -10 14.5t-10 14.5t-8 18.5t-5 20.5q-4 19 -4.5 38t-1.5 38q-1 26 2 49.5t15 47.5q8 17 19 33t22 31q5 7 10 12t11 10t11 12t12 12q15 12 34.5 18t36.5 13q38 14 80.5 14t80.5 -15q6 -3 15 -8l18 -10t18 -8t16 -1q6 2 10 7t7 11t6.5 12t9.5 10q9 6 20.5 7.5t22 -1
t18 -10t10.5 -19.5q5 -19 3 -39t-3 -40v-2zM479 189q5 14 3.5 26.5t-1.5 26.5v51q0 29 -14 51.5t-35 42.5q-11 11 -23.5 19.5t-26.5 13.5q-12 5 -28.5 9.5t-29.5 3.5q-6 -1 -11.5 -3t-11.5 -3q-7 -1 -13 -1.5t-13 -2.5q-21 -6 -39 -18q-39 -26 -60.5 -70.5t-21.5 -91.5
q-3 -34 10 -65.5t36.5 -55.5t54.5 -39t64 -15q25 0 52 8.5t49.5 25t38.5 38.5t20 49z" />
    <glyph glyph-name="Gdotaccent" unicode="&#x120;" horiz-adv-x="728" 
d="M371 846q0 29 15 42.5t37 13.5q21 0 36 -13.5t15 -42.5t-15.5 -42.5t-35.5 -13.5q-22 0 -37 13.5t-15 42.5zM634 367q5 -6 9.5 -15t4.5 -17q6 -38 5 -82t-14 -82q-15 -45 -46.5 -81.5t-72.5 -60.5q-49 -29 -109.5 -35t-115.5 10q-19 5 -36 15.5t-34 20.5q-45 27 -81 66
q-16 17 -29 38t-21 43q-8 23 -9.5 49t-6.5 50q-4 20 -7 42.5t1 43.5q3 19 7 36.5t6 36.5t13 37t20 35q8 15 15 30.5t18 29.5q12 16 28.5 28t32.5 23q20 14 40.5 26t43.5 20q32 12 69.5 17t71.5 -1q9 -2 18 -5.5t18 -6.5q14 -5 27.5 -9.5t26.5 -12.5t24.5 -18t22.5 -21
q12 -11 25 -21.5t22 -24.5q11 -17 10 -37t-21 -32q-14 -9 -27 -6t-24 12t-21 20.5t-18 20.5q-19 20 -46 32.5t-54 16.5t-51.5 0.5t-50.5 -11.5q-48 -14 -83 -51t-55 -81q-6 -12 -8 -26t-6 -27q-6 -21 -6 -40t2 -41q2 -23 4 -45t7 -45q2 -11 4.5 -21.5t7.5 -20.5
q6 -11 16 -21t18 -19q9 -10 19.5 -18t19.5 -18q14 -16 35 -23q38 -13 79 -20q26 -5 50 3.5t46 21.5q21 12 41 27.5t32 37.5q9 15 14 34t4.5 37.5t-7 36t-21.5 29.5q-17 14 -39 15.5t-43 0.5q-12 0 -21 4.5t-14 17.5q-6 17 2.5 35t25.5 23q20 6 44 4.5t44 -3.5q15 -1 29.5 -2
t28.5 -3q14 0 24.5 -4.5t21.5 -17.5z" />
    <glyph glyph-name="gdotaccent" unicode="&#x121;" horiz-adv-x="615" 
d="M247 681q0 29 15 42.5t37 13.5q21 0 36 -13.5t15 -42.5t-15.5 -42.5t-35.5 -13.5q-22 0 -37 13.5t-15 42.5zM573 399q-1 -20 -1 -40.5v-40.5q-1 -81 -0.5 -163t-9.5 -163q-4 -30 -10 -60.5t-20 -57.5q-14 -29 -40.5 -49.5t-55.5 -33.5q-68 -30 -146 -25t-143 40
q-15 8 -26.5 18.5t-10.5 29.5q1 15 9 24t21 13q8 2 15.5 0.5t14.5 -5t13.5 -8t13.5 -8.5q30 -16 65 -24q38 -8 79.5 -3t72.5 31t46 63q6 15 12 35t3 37q-5 21 -19 19t-28 -8q-17 -8 -35.5 -14t-36.5 -10q-38 -8 -76.5 -3t-73.5 25q-29 17 -56 39.5t-43 51.5q-5 8 -10 14.5
t-10 14.5t-8 18.5t-5 20.5q-4 19 -4.5 38t-1.5 38q-1 26 2 49.5t15 47.5q8 17 19 33t22 31q5 7 10 12t11 10t11 12t12 12q15 12 34.5 18t36.5 13q38 14 80.5 14t80.5 -15q6 -3 15 -8l18 -10t18 -8t16 -1q6 2 10 7t7 11t6.5 12t9.5 10q9 6 20.5 7.5t22 -1t18 -10t10.5 -19.5
q5 -19 3 -39t-3 -40v-2zM479 189q5 14 3.5 26.5t-1.5 26.5v51q0 29 -14 51.5t-35 42.5q-11 11 -23.5 19.5t-26.5 13.5q-12 5 -28.5 9.5t-29.5 3.5q-6 -1 -11.5 -3t-11.5 -3q-7 -1 -13 -1.5t-13 -2.5q-21 -6 -39 -18q-39 -26 -60.5 -70.5t-21.5 -91.5q-3 -34 10 -65.5
t36.5 -55.5t54.5 -39t64 -15q25 0 52 8.5t49.5 25t38.5 38.5t20 49z" />
    <glyph glyph-name="uni0122" unicode="&#x122;" horiz-adv-x="728" 
d="M322 -209q11 25 24 70.5t17 77.5h87v-9q-8 -31 -31.5 -76.5t-48.5 -74.5h-48v12zM634 367q5 -6 9.5 -15t4.5 -17q6 -38 5 -82t-14 -82q-15 -45 -46.5 -81.5t-72.5 -60.5q-49 -29 -109.5 -35t-115.5 10q-19 5 -36 15.5t-34 20.5q-45 27 -81 66q-16 17 -29 38t-21 43
q-8 23 -9.5 49t-6.5 50q-4 20 -7 42.5t1 43.5q3 19 7 36.5t6 36.5t13 37t20 35q8 15 15 30.5t18 29.5q12 16 28.5 28t32.5 23q20 14 40.5 26t43.5 20q32 12 69.5 17t71.5 -1q9 -2 18 -5.5t18 -6.5q14 -5 27.5 -9.5t26.5 -12.5t24.5 -18t22.5 -21q12 -11 25 -21.5t22 -24.5
q11 -17 10 -37t-21 -32q-14 -9 -27 -6t-24 12t-21 20.5t-18 20.5q-19 20 -46 32.5t-54 16.5t-51.5 0.5t-50.5 -11.5q-48 -14 -83 -51t-55 -81q-6 -12 -8 -26t-6 -27q-6 -21 -6 -40t2 -41q2 -23 4 -45t7 -45q2 -11 4.5 -21.5t7.5 -20.5q6 -11 16 -21t18 -19q9 -10 19.5 -18
t19.5 -18q14 -16 35 -23q38 -13 79 -20q26 -5 50 3.5t46 21.5q21 12 41 27.5t32 37.5q9 15 14 34t4.5 37.5t-7 36t-21.5 29.5q-17 14 -39 15.5t-43 0.5q-12 0 -21 4.5t-14 17.5q-6 17 2.5 35t25.5 23q20 6 44 4.5t44 -3.5q15 -1 29.5 -2t28.5 -3q14 0 24.5 -4.5t21.5 -17.5z
" />
    <glyph glyph-name="uni0123" unicode="&#x123;" horiz-adv-x="615" 
d="M379 754q-13 -29 -26 -74.5t-16 -73.5h-87v9q7 27 31.5 74t48.5 77h49v-12zM573 399q-1 -20 -1 -40.5v-40.5q-1 -81 -0.5 -163t-9.5 -163q-4 -30 -10 -60.5t-20 -57.5q-14 -29 -40.5 -49.5t-55.5 -33.5q-68 -30 -146 -25t-143 40q-15 8 -26.5 18.5t-10.5 29.5q1 15 9 24
t21 13q8 2 15.5 0.5t14.5 -5t13.5 -8t13.5 -8.5q30 -16 65 -24q38 -8 79.5 -3t72.5 31t46 63q6 15 12 35t3 37q-5 21 -19 19t-28 -8q-17 -8 -35.5 -14t-36.5 -10q-38 -8 -76.5 -3t-73.5 25q-29 17 -56 39.5t-43 51.5q-5 8 -10 14.5t-10 14.5t-8 18.5t-5 20.5q-4 19 -4.5 38
t-1.5 38q-1 26 2 49.5t15 47.5q8 17 19 33t22 31q5 7 10 12t11 10t11 12t12 12q15 12 34.5 18t36.5 13q38 14 80.5 14t80.5 -15q6 -3 15 -8l18 -10t18 -8t16 -1q6 2 10 7t7 11t6.5 12t9.5 10q9 6 20.5 7.5t22 -1t18 -10t10.5 -19.5q5 -19 3 -39t-3 -40v-2zM479 189
q5 14 3.5 26.5t-1.5 26.5v51q0 29 -14 51.5t-35 42.5q-11 11 -23.5 19.5t-26.5 13.5q-12 5 -28.5 9.5t-29.5 3.5q-6 -1 -11.5 -3t-11.5 -3q-7 -1 -13 -1.5t-13 -2.5q-21 -6 -39 -18q-39 -26 -60.5 -70.5t-21.5 -91.5q-3 -34 10 -65.5t36.5 -55.5t54.5 -39t64 -15
q25 0 52 8.5t49.5 25t38.5 38.5t20 49z" />
    <glyph glyph-name="Hcircumflex" unicode="&#x124;" horiz-adv-x="741" 
d="M200 782q61 65 86 96.5t37 52.5h90q25 -49 125 -149v-11h-62q-44 26 -109 90q-64 -62 -107 -90h-60v11zM595 119q-2 -14 -2 -30v-30t-0.5 -27.5t-12.5 -22.5q-8 -6 -19.5 -8.5t-23.5 -2t-22.5 4.5t-16.5 12q-7 11 -4.5 23.5t3.5 23.5q1 10 1 20t1 20q1 18 0 29.5t-2 30.5
q-1 11 -0.5 23t0 23t-3.5 22t-10 21q-14 19 -33.5 28.5t-42 12.5t-45.5 2.5t-44 -0.5q-25 0 -51 1.5t-49 -8.5q-21 -9 -37 -27t-18 -41v-18q0 -22 -0.5 -43t-0.5 -43q0 -20 1.5 -41.5t-4.5 -41.5q-7 -20 -22 -24t-33 -3q-15 1 -22.5 7t-11 15.5t-3.5 21v23.5q0 17 0.5 32.5
t0.5 31.5v37t1 37q1 35 -0.5 72t2.5 73q6 51 6 101q0 13 1.5 25.5t-0.5 26.5q-2 11 -0.5 20.5t0.5 20.5q-2 23 -2 45t1 45q2 23 9 34.5t33 13.5q20 2 36 -6.5t20 -30.5q2 -14 1.5 -29t-0.5 -29q-1 -33 1 -66t0 -66q2 -21 13 -38t28 -28t36.5 -12.5t40.5 -2.5q20 -1 41 -0.5
t41 1.5q17 1 33.5 1t32.5 5q17 5 30 14t21 24q9 19 8.5 41.5t-0.5 42.5v57t-2 57q-1 14 -1 34t12 31q10 9 25.5 11t27.5 -2q16 -5 23 -19t8.5 -31.5t-0.5 -35.5t-2 -31q-2 -96 1 -190.5t3 -191.5q2 -22 1 -38.5t-3 -39.5z" />
    <glyph glyph-name="hcircumflex" unicode="&#x125;" horiz-adv-x="618" 
d="M143 809q61 65 86 96.5t37 52.5h90q25 -49 125 -149v-11h-62q-44 26 -109 90q-64 -62 -107 -90h-60v11zM71 262v1v-2v1zM525 206q2 -31 -1 -63t-2 -64v-21.5t-2.5 -22t-8.5 -19t-17 -12.5q-15 -5 -32.5 -0.5t-25.5 18.5q-7 12 -8.5 27t-0.5 31.5t3 32t2 28.5l3 129
q1 29 0 55t-19 50q-15 20 -39.5 32.5t-49.5 12.5q-28 0 -55 -7t-49 -21.5t-37.5 -36.5t-20.5 -52q-4 -23 -1.5 -45.5t1.5 -45.5t-3 -46.5t-3 -46.5q-1 -21 4 -43.5t-1 -43.5q-6 -20 -24 -26.5t-36 -2.5q-19 4 -25.5 19t-6.5 34t2.5 38.5t1.5 33.5q-1 38 0 77v125
q1 21 -1 41.5t-2 41.5q0 78 3 158q1 18 0.5 36t-0.5 36q0 11 3 21t12 18q13 11 32.5 13t33.5 -9q9 -8 11.5 -20.5t2 -26.5t-3 -28.5t-2.5 -24.5q0 -17 0.5 -35t1.5 -35q0 -24 20 -35q13 -6 26 -5q5 1 7 3t4 3q14 6 28.5 9t28.5 5q64 8 122 -13q23 -8 43.5 -21.5t35.5 -33.5
q8 -11 15 -23l14 -24t8.5 -24.5t5.5 -26.5q2 -14 1 -29.5t-1 -29.5q0 -17 0.5 -32.5t1.5 -32.5z" />
    <glyph glyph-name="Hbar" unicode="&#x126;" horiz-adv-x="741" 
d="M97 595v119h90v-119h366v119h90v-119h97v-72h-97v-523h-90v333h-366v-333h-90v523h-97v72h97zM553 412v111h-366v-111h366z" />
    <glyph glyph-name="hbar" unicode="&#x127;" horiz-adv-x="618" 
d="M450 0v323q0 65 -29 97t-91 32q-83 0 -120 -45t-37 -149v-258h-88v604h-76v66h76v90h88v-90h212v-66h-212v-87q0 -43 -5 -74h6q26 42 70.5 62.5t97.5 20.5q97 0 146 -47t49 -150v-329h-87z" />
    <glyph glyph-name="Itilde" unicode="&#x128;" horiz-adv-x="338" 
d="M244 772q-21 0 -41 9t-39.5 19.5t-37 19.5t-34.5 9q-24 0 -36 -14.5t-19 -43.5h-51q6 60 34 94t76 34q22 0 42.5 -9t39.5 -19.5t37 -19.5t33 -9q23 0 35.5 14.5t19.5 43.5h50q-6 -58 -34 -93t-75 -35zM82 9q-9 7 -10.5 16t0 18.5t3.5 19.5t-1 19q0 9 1.5 18t1.5 18v19
t-0.5 25l-1 26t-0.5 22v60q0 29 1.5 59t-2.5 59q-3 23 -1 45t0 45q-1 11 -0.5 23.5t0.5 24.5v35t1 35q1 8 1.5 15t0.5 15q0 11 -0.5 24.5t2.5 24.5q4 15 17 21t27.5 4.5t27.5 -9.5t16 -21q5 -17 3 -33t-3 -33q-1 -18 -0.5 -41t0.5 -41q0 -29 -2 -58.5t-2 -58.5
q0 -35 1.5 -70t0.5 -70q-1 -32 -2 -63t-3 -63q-1 -15 -0.5 -29.5t2.5 -29.5q2 -17 3 -34.5t-11 -31.5q-6 -7 -15.5 -10t-20 -3.5t-20.5 2t-17 7.5z" />
    <glyph glyph-name="itilde" unicode="&#x129;" horiz-adv-x="257" 
d="M204 607q-21 0 -41 9t-39.5 19.5t-37 19.5t-34.5 9q-24 0 -36 -14.5t-19 -43.5h-51q6 60 34 94t76 34q22 0 42.5 -9t39.5 -19.5t37 -19.5t33 -9q23 0 35.5 14.5t19.5 43.5h50q-6 -58 -34 -93t-75 -35zM173 0h-88v536h88v-536z" />
    <glyph glyph-name="Imacron" unicode="&#x12a;" horiz-adv-x="338" 
d="M21 842h297v-71h-297v71zM82 9q-9 7 -10.5 16t0 18.5t3.5 19.5t-1 19q0 9 1.5 18t1.5 18v19t-0.5 25l-1 26t-0.5 22v60q0 29 1.5 59t-2.5 59q-3 23 -1 45t0 45q-1 11 -0.5 23.5t0.5 24.5v35t1 35q1 8 1.5 15t0.5 15q0 11 -0.5 24.5t2.5 24.5q4 15 17 21t27.5 4.5
t27.5 -9.5t16 -21q5 -17 3 -33t-3 -33q-1 -18 -0.5 -41t0.5 -41q0 -29 -2 -58.5t-2 -58.5q0 -35 1.5 -70t0.5 -70q-1 -32 -2 -63t-3 -63q-1 -15 -0.5 -29.5t2.5 -29.5q2 -17 3 -34.5t-11 -31.5q-6 -7 -15.5 -10t-20 -3.5t-20.5 2t-17 7.5z" />
    <glyph glyph-name="imacron" unicode="&#x12b;" horiz-adv-x="257" 
d="M-18 677h297v-71h-297v71zM173 0h-88v536h88v-536z" />
    <glyph glyph-name="Ibreve" unicode="&#x12c;" horiz-adv-x="338" 
d="M168 771q-69 0 -108.5 33.5t-44.5 100.5h54q4 -35 24.5 -49t76.5 -14q49 0 73 15.5t28 47.5h55q-6 -64 -48 -99t-110 -35zM82 9q-9 7 -10.5 16t0 18.5t3.5 19.5t-1 19q0 9 1.5 18t1.5 18v19t-0.5 25l-1 26t-0.5 22v60q0 29 1.5 59t-2.5 59q-3 23 -1 45t0 45
q-1 11 -0.5 23.5t0.5 24.5v35t1 35q1 8 1.5 15t0.5 15q0 11 -0.5 24.5t2.5 24.5q4 15 17 21t27.5 4.5t27.5 -9.5t16 -21q5 -17 3 -33t-3 -33q-1 -18 -0.5 -41t0.5 -41q0 -29 -2 -58.5t-2 -58.5q0 -35 1.5 -70t0.5 -70q-1 -32 -2 -63t-3 -63q-1 -15 -0.5 -29.5t2.5 -29.5
q2 -17 3 -34.5t-11 -31.5q-6 -7 -15.5 -10t-20 -3.5t-20.5 2t-17 7.5z" />
    <glyph glyph-name="ibreve" unicode="&#x12d;" horiz-adv-x="257" 
d="M126 606q-69 0 -108.5 33.5t-44.5 100.5h54q4 -35 24.5 -49t76.5 -14q49 0 73 15.5t28 47.5h55q-6 -64 -48 -99t-110 -35zM173 0h-88v536h88v-536z" />
    <glyph glyph-name="Iogonek" unicode="&#x12e;" horiz-adv-x="338" 
d="M160 -116q0 -22 12 -33.5t33 -11.5t48 6v-56q-34 -9 -62 -9q-103 0 -103 94q0 68 78 126h62q-34 -32 -51 -58.5t-17 -57.5zM82 9q-9 7 -10.5 16t0 18.5t3.5 19.5t-1 19q0 9 1.5 18t1.5 18v19t-0.5 25l-1 26t-0.5 22v60q0 29 1.5 59t-2.5 59q-3 23 -1 45t0 45
q-1 11 -0.5 23.5t0.5 24.5v35t1 35q1 8 1.5 15t0.5 15q0 11 -0.5 24.5t2.5 24.5q4 15 17 21t27.5 4.5t27.5 -9.5t16 -21q5 -17 3 -33t-3 -33q-1 -18 -0.5 -41t0.5 -41q0 -29 -2 -58.5t-2 -58.5q0 -35 1.5 -70t0.5 -70q-1 -32 -2 -63t-3 -63q-1 -15 -0.5 -29.5t2.5 -29.5
q2 -17 3 -34.5t-11 -31.5q-6 -7 -15.5 -10t-20 -3.5t-20.5 2t-17 7.5z" />
    <glyph glyph-name="iogonek" unicode="&#x12f;" horiz-adv-x="257" 
d="M97 -116q0 -22 12 -33.5t33 -11.5t48 6v-56q-34 -9 -62 -9q-103 0 -103 94q0 68 78 126h62q-34 -32 -51 -58.5t-17 -57.5zM165 601q-7 -14 -21 -20.5t-28.5 -6.5t-27 7t-15.5 20q-2 5 -3.5 10.5t-1.5 10.5q0 6 1.5 12t3.5 11q5 14 18 20.5t28 6t28 -7.5t17 -20
q3 -8 3 -17l1 -2q1 -7 0.5 -12.5t-4.5 -13.5zM171 473q5 -21 3.5 -42.5t-1.5 -42.5q0 -20 1 -40.5t-1 -40.5q-2 -30 -3.5 -60t-3.5 -60q-2 -23 -2.5 -46.5t0.5 -46.5q0 -13 1 -27t-1 -26.5t-10 -22t-25 -12.5q-12 -2 -25.5 0.5t-21.5 11.5q-7 7 -7.5 15t-0.5 17q1 23 2 45
t1 45q0 62 0.5 122.5t2.5 122.5q0 12 -2 27.5t-2 30.5t5 27.5t20 19.5q8 4 18.5 5t20.5 -1t18.5 -7t12.5 -14z" />
    <glyph glyph-name="Idotaccent" unicode="&#x130;" horiz-adv-x="338" 
d="M117 846q0 29 15 42.5t37 13.5q21 0 36 -13.5t15 -42.5t-15.5 -42.5t-35.5 -13.5q-22 0 -37 13.5t-15 42.5zM82 9q-9 7 -10.5 16t0 18.5t3.5 19.5t-1 19q0 9 1.5 18t1.5 18v19t-0.5 25l-1 26t-0.5 22v60q0 29 1.5 59t-2.5 59q-3 23 -1 45t0 45q-1 11 -0.5 23.5t0.5 24.5
v35t1 35q1 8 1.5 15t0.5 15q0 11 -0.5 24.5t2.5 24.5q4 15 17 21t27.5 4.5t27.5 -9.5t16 -21q5 -17 3 -33t-3 -33q-1 -18 -0.5 -41t0.5 -41q0 -29 -2 -58.5t-2 -58.5q0 -35 1.5 -70t0.5 -70q-1 -32 -2 -63t-3 -63q-1 -15 -0.5 -29.5t2.5 -29.5q2 -17 3 -34.5t-11 -31.5
q-6 -7 -15.5 -10t-20 -3.5t-20.5 2t-17 7.5z" />
    <glyph glyph-name="dotlessi" unicode="&#x131;" horiz-adv-x="257" 
d="M173 0h-88v536h88v-536z" />
    <glyph glyph-name="IJ" unicode="&#x132;" horiz-adv-x="611" 
d="M82 9q-9 7 -10.5 16t0 18.5t3.5 19.5t-1 19q0 9 1.5 18t1.5 18v19t-0.5 25l-1 26t-0.5 22v60q0 29 1.5 59t-2.5 59q-3 23 -1 45t0 45q-1 11 -0.5 23.5t0.5 24.5v35t1 35q1 8 1.5 15t0.5 15q0 11 -0.5 24.5t2.5 24.5q4 15 17 21t27.5 4.5t27.5 -9.5t16 -21q5 -17 3 -33
t-3 -33q-1 -18 -0.5 -41t0.5 -41q0 -29 -2 -58.5t-2 -58.5q0 -35 1.5 -70t0.5 -70q-1 -32 -2 -63t-3 -63q-1 -15 -0.5 -29.5t2.5 -29.5q2 -17 3 -34.5t-11 -31.5q-6 -7 -15.5 -10t-20 -3.5t-20.5 2t-17 7.5zM838 660q0 -21 -2.5 -45.5t-2.5 -50.5q-3 -16 -1 -32t0 -32
q-1 -8 0.5 -13.5t2.5 -12.5q2 -9 1 -18.5t-2 -18.5q-2 -38 -3 -72t1 -72q2 -25 -2.5 -49.5t-5.5 -49.5q0 -16 -2.5 -28t-7.5 -26q-5 -17 -11 -35.5t-17 -32.5q-10 -14 -23.5 -25.5t-27.5 -20.5q-12 -8 -24 -11t-26 -7q-11 -3 -20.5 -6t-21.5 -4q-11 -1 -22.5 -1t-22.5 -1
q-45 -2 -87.5 13.5t-71.5 50.5q-7 9 -14.5 19.5t-13 22.5t-6 24t7.5 23q16 22 37.5 18t33.5 -24q13 -21 27 -38t39 -25q23 -8 49.5 -8t50.5 6q28 7 45 24.5t26.5 40.5t14 49t8.5 51q2 15 3.5 30t0.5 30q0 7 -1.5 13t-2.5 13q-2 11 -0.5 17t1.5 17q0 18 0.5 38.5t0.5 38.5
q0 13 -1 25.5t-1 25.5q0 16 1.5 31.5t1.5 31.5v73q0 13 -2 28t5 27q10 16 26 18.5t33 -3.5q14 -5 20.5 -13t8.5 -24z" />
    <glyph glyph-name="ij" unicode="&#x133;" horiz-adv-x="514" 
d="M165 601q-7 -14 -21 -20.5t-28.5 -6.5t-27 7t-15.5 20q-2 5 -3.5 10.5t-1.5 10.5q0 6 1.5 12t3.5 11q5 14 18 20.5t28 6t28 -7.5t17 -20q3 -8 3 -17l1 -2q1 -7 0.5 -12.5t-4.5 -13.5zM171 473q5 -21 3.5 -42.5t-1.5 -42.5q0 -20 1 -40.5t-1 -40.5q-2 -30 -3.5 -60
t-3.5 -60q-2 -23 -2.5 -46.5t0.5 -46.5q0 -13 1 -27t-1 -26.5t-10 -22t-25 -12.5q-12 -2 -25.5 0.5t-21.5 11.5q-7 7 -7.5 15t-0.5 17q1 23 2 45t1 45q0 62 0.5 122.5t2.5 122.5q0 12 -2 27.5t-2 30.5t5 27.5t20 19.5q8 4 18.5 5t20.5 -1t18.5 -7t12.5 -14zM361 570
q-14 7 -20.5 21t-6.5 28.5t7 27t20 15.5q5 2 10.5 3.5t10.5 1.5q6 0 12 -1.5t11 -3.5q14 -5 20.5 -18t6 -28t-7.5 -28t-20 -17q-5 -2 -9.5 -2.5t-9.5 -1.5q-7 -1 -12.5 -0.5t-13.5 4.5zM355 485q13 13 36 11.5t33 -17.5q10 -17 9 -41.5t-1 -43.5q0 -21 -1 -42t-1 -42
q-1 -42 0.5 -84t-0.5 -84q-1 -12 0.5 -24t1.5 -24q1 -14 -0.5 -28.5t-2.5 -28.5q-1 -26 1 -51.5t-3 -51.5q-8 -48 -36.5 -81.5t-76.5 -44.5q-13 -3 -43.5 -3t-59 6t-45.5 20.5t-4 40.5q4 9 12 14.5t15 6.5q13 2 24.5 -4.5t23.5 -10.5q22 -7 46 -2.5t38 24.5q8 12 13 22.5
t4 24.5v12t-1 12q0 37 3 75q2 17 2 34v34q-3 132 0 264q0 12 -1.5 26.5t-1.5 29t3 28t12 23.5h1z" />
    </font>
</defs>
</svg>
