<?xml version="1.0" standalone="no"?>
<!DOCTYPE svg PUBLIC "-//W3C//DTD SVG 1.1//EN" "http://www.w3.org/Graphics/SVG/1.1/DTD/svg11.dtd" >
<svg xmlns="http://www.w3.org/2000/svg" xmlns:xlink="http://www.w3.org/1999/xlink" version="1.1">
<metadata>
Created by FontForge 20190801 at Tue May  4 08:59:07 2021
 By root
Copyright (c) 2019 by Sans&#38;Sons. All rights reserved.
</metadata>
<defs>
<font id="HelloParisSerif-ExtraLight" horiz-adv-x="174" >
  <font-face 
    font-family="Hello Paris Serif Thin"
    font-weight="100"
    font-stretch="normal"
    units-per-em="1000"
    panose-1="0 0 0 0 0 0 0 0 0 0"
    ascent="700"
    descent="-300"
    x-height="490"
    cap-height="490"
    bbox="-242 -294 1411 1046"
    underline-thickness="50"
    underline-position="-100"
    unicode-range="U+0001-206F"
  />
<missing-glyph horiz-adv-x="364" 
d="M33 0v666h265v-666h-265zM66 33h199v600h-199v-600z" />
    <glyph glyph-name=".notdef" horiz-adv-x="364" 
d="M33 0v666h265v-666h-265zM66 33h199v600h-199v-600z" />
    <glyph glyph-name="uni0000" 
 />
    <glyph glyph-name="uni0000" 
 />
    <glyph glyph-name="uni000D" unicode="&#xd;" 
 />
    <glyph glyph-name="uni0001" 
 />
    <glyph glyph-name="uni0002" 
 />
    <glyph glyph-name="uni0003" 
 />
    <glyph glyph-name="uni0004" 
 />
    <glyph glyph-name="uni0005" 
 />
    <glyph glyph-name="uni0006" 
 />
    <glyph glyph-name="uni0007" 
 />
    <glyph glyph-name="uni0008" 
 />
    <glyph glyph-name="uni0009" unicode="&#x9;" 
 />
    <glyph glyph-name="uni000A" unicode="&#xa;" 
 />
    <glyph glyph-name="uni000B" 
 />
    <glyph glyph-name="uni000C" 
 />
    <glyph glyph-name="uni000E" 
 />
    <glyph glyph-name="uni000F" 
 />
    <glyph glyph-name="uni0010" 
 />
    <glyph glyph-name="uni0011" 
 />
    <glyph glyph-name="uni0012" 
 />
    <glyph glyph-name="uni0013" 
 />
    <glyph glyph-name="uni0014" 
 />
    <glyph glyph-name="uni0015" 
 />
    <glyph glyph-name="uni0016" 
 />
    <glyph glyph-name="uni0017" 
 />
    <glyph glyph-name="uni0018" 
 />
    <glyph glyph-name="uni0019" 
 />
    <glyph glyph-name="uni001A" 
 />
    <glyph glyph-name="uni001B" 
 />
    <glyph glyph-name="uni001C" 
 />
    <glyph glyph-name="uni001D" 
 />
    <glyph glyph-name="uni001E" 
 />
    <glyph glyph-name="uni001F" 
 />
    <glyph glyph-name="space" unicode=" " 
 />
    <glyph glyph-name="exclam" unicode="!" horiz-adv-x="155" 
d="M80 493q12 0 18.5 -9t5.5 -20l-19 -360h-10l-18 360q-1 11 5.5 20t17.5 9zM109 29q0 -12 -8.5 -21t-20.5 -9t-20.5 9t-8.5 21t9 20t20 8t20 -8.5t9 -19.5z" />
    <glyph glyph-name="quotedbl" unicode="&#x22;" horiz-adv-x="230" 
d="M106 458q0 -17 -8 -34t-20 -28l-5 5q4 5 7 11t3 13q0 6 -5.5 8t-12.5 4t-12.5 7.5t-5.5 18.5q0 11 8.5 19.5t19.5 8.5q15 0 23 -9.5t8 -23.5zM185 458q0 -17 -8 -34t-20 -28l-5 5q4 5 7 11t3 13q0 6 -5.5 7.5t-12.5 4t-12.5 8t-5.5 18.5q0 11 8.5 19.5t19.5 8.5
q15 0 23 -9.5t8 -23.5z" />
    <glyph glyph-name="numbersign" unicode="#" horiz-adv-x="467" 
d="M149 172l-46 -172h-20l47 172h-80l5 19h79l30 108h-79l5 20h79l46 171h19l-46 -171h128l46 171h20l-47 -171h86l-4 -20h-87l-29 -108h87l-6 -19h-86l-46 -172h-20l47 172h-128zM154 191h127l30 108h-128z" />
    <glyph glyph-name="dollar" unicode="$" horiz-adv-x="383" 
d="M348 113q0 -29 -13.5 -51t-35.5 -37.5t-48 -23.5t-52 -9v-51h-20v52q-34 5 -73.5 19.5t-70.5 29.5l-1 90q17 -53 52.5 -89t92.5 -40v228q-23 11 -47.5 24t-44 30.5t-32 40t-12.5 52.5t10.5 52.5t29 38t43.5 23.5t53 8v48h20v-50q38 -2 72 -14t69 -29v-57
q-7 24 -21.5 40.5t-33.5 27.5t-41 17t-45 8v-218q25 -12 51.5 -26.5t48 -33.5t35.5 -43.5t14 -56.5zM67 400q0 -23 11 -40.5t27.5 -31.5t36 -25t37.5 -20v209q-21 0 -41 -5.5t-36 -17t-25.5 -28.5t-9.5 -41zM326 99q0 25 -12.5 44t-31.5 33.5t-41.5 25.5t-41.5 20v-220
q21 1 43.5 6.5t41 17.5t30.5 30t12 43z" />
    <glyph glyph-name="percent" unicode="%" horiz-adv-x="424" 
d="M312 491l-179 -491h-20l180 491h19zM197 400q0 -16 -5 -32.5t-14.5 -29.5t-23.5 -21t-32 -8t-31.5 8.5t-23.5 21.5t-15 29t-5 32t5.5 32t15 29t23.5 21t31 8q18 0 31.5 -8t23.5 -21t15 -29t5 -32zM83 400q0 -8 1.5 -22t6 -28t12 -24.5t19.5 -10.5t19.5 10t12 24t6.5 28.5
t2 22.5t-1.5 22.5t-6 28t-12.5 23.5t-20 10t-19.5 -10t-12 -23.5t-6 -28t-1.5 -22.5zM382 90q0 -16 -5 -32t-15 -29t-24 -21t-31 -8q-18 0 -32 8t-23.5 21t-15 29t-5.5 32t5.5 32.5t15 29.5t23.5 21t32 8t31.5 -8.5t23.5 -21.5t15 -29t5 -32zM267 90q0 -8 2 -22.5t6.5 -28
t12 -23.5t19.5 -10t19.5 10t12 24t6.5 28t2 22t-2 22t-6.5 28t-12 24.5t-19.5 10.5t-19.5 -10t-12 -24t-6.5 -28.5t-2 -22.5z" />
    <glyph glyph-name="ampersand" unicode="&#x26;" horiz-adv-x="458" 
d="M350 83q-33 -41 -71.5 -64t-92.5 -23q-32 0 -61 10.5t-50.5 30t-34 46.5t-12.5 61q0 51 27.5 92.5t72.5 63.5q-13 20 -22 43t-9 48q0 23 9 41t24.5 31.5t35.5 20.5t41 7q17 0 33 -5.5t29 -16t21 -25t8 -32.5q0 -25 -18 -46q2 6 2 12v11q0 17 -4.5 34t-14 30t-23.5 21
t-33 8q-38 0 -65 -23t-27 -63q0 -21 13.5 -47t35 -53t48 -53.5t53 -50.5t50 -43.5t39.5 -31.5q12 21 20.5 44t8.5 48q0 23 -16.5 33t-34.5 16h107q-10 -6 -19 -25.5t-17.5 -42.5t-17.5 -46t-20 -36q20 -15 40 -30.5t40 -30.5t41.5 -27.5t45.5 -20.5q-9 0 -20 -0.5t-23 0
t-22.5 3t-17.5 7.5zM59 155q0 -29 11 -55t30 -45.5t44.5 -30.5t55.5 -11q45 0 79 22.5t60 56.5q-57 45 -108.5 92.5t-95.5 105.5q-33 -23 -54.5 -58.5t-21.5 -76.5z" />
    <glyph glyph-name="quotesingle" unicode="'" horiz-adv-x="151" 
d="M106 458q0 -17 -8 -34t-20 -28l-5 5q4 5 7 11t3 13q0 6 -5.5 8t-12.5 4t-12.5 7.5t-5.5 18.5q0 11 8.5 19.5t19.5 8.5q15 0 23 -9.5t8 -23.5z" />
    <glyph glyph-name="parenleft" unicode="(" horiz-adv-x="195" 
d="M60 246q0 -28 6.5 -65.5t19 -74.5t32 -68t45.5 -46v-7q-31 16 -56 46.5t-43 67t-27.5 75.5t-9.5 72q0 38 8.5 77.5t25.5 75.5t43 66t61 49v-8q-30 -16 -50 -47t-32.5 -68.5t-17.5 -76t-5 -68.5z" />
    <glyph glyph-name="parenright" unicode=")" horiz-adv-x="191" 
d="M165 246q0 -38 -8.5 -77.5t-25.5 -76t-43 -66.5t-61 -48v7q30 16 50 47t32.5 68.5t17.5 76t5 69.5q0 27 -6.5 64.5t-19 74.5t-32 68t-45.5 46v7q31 -16 56 -46t43 -66.5t27.5 -75.5t9.5 -72z" />
    <glyph glyph-name="asterisk" unicode="*" horiz-adv-x="158" 
d="M91 396l-4 -6t-6 -3q-8 0 -8 8q0 11 1.5 22.5t3.5 22.5q-3 -2 -8.5 -7t-11.5 -10t-11.5 -9t-8.5 -4t-6 2.5t-3 5.5q0 5 6 9t14.5 8t16 7t10.5 4q-3 1 -10.5 4t-15.5 6.5t-14.5 7.5t-6.5 8q0 9 9 9q2 0 7.5 -4t12 -9t12.5 -10t8 -7l-6 40q-1 5 2.5 8t8.5 3q3 0 6.5 -3
t2.5 -7l-8 -41q2 2 8 6.5t12.5 9.5t12.5 9t8 4q9 0 9 -10q-4 -10 -20.5 -15.5t-25.5 -9.5q4 -2 11 -4.5t14 -6t13 -7.5t8 -8q0 -9 -9 -9q-2 0 -8 4.5t-13 9.5t-12.5 10t-7.5 6z" />
    <glyph glyph-name="plus" unicode="+" horiz-adv-x="235" 
d="M134 210v-50h-19v50h-44v8h44v55h19v-55h43v-8h-43z" />
    <glyph glyph-name="comma" unicode="," horiz-adv-x="146" 
d="M102 25q0 -17 -7.5 -34t-20.5 -29l-5 5q4 5 7 11t3 13q0 6 -5.5 8t-12.5 4t-12.5 7.5t-5.5 18.5q0 11 8.5 19.5t19.5 8.5q15 0 23 -9t8 -23z" />
    <glyph glyph-name="hyphen" unicode="-" horiz-adv-x="253" 
d="M185 221v-19h-113v19h113z" />
    <glyph glyph-name="period" unicode="." horiz-adv-x="146" 
d="M101 29q0 -11 -9 -20t-20 -9q-12 0 -20.5 8.5t-8.5 20.5t8.5 20t20.5 8q11 0 20 -8t9 -20z" />
    <glyph glyph-name="slash" unicode="/" horiz-adv-x="292" 
d="M241 490l-173 -490h-20l173 490h20z" />
    <glyph glyph-name="zero" unicode="0" horiz-adv-x="387" 
d="M358 246q0 -36 -9.5 -79t-29.5 -80.5t-51 -62.5t-75 -25q-43 0 -74.5 25.5t-51.5 63t-29.5 80.5t-9.5 78t9.5 78t29.5 80.5t51.5 63t74.5 25.5q44 0 75 -25.5t51 -63t29.5 -80.5t9.5 -78zM69 246q0 -26 6 -66.5t20.5 -79t38 -66.5t59.5 -28t60 27.5t38.5 66t20.5 79.5
t6 67t-6 67t-20.5 79.5t-38.5 66t-60 27.5t-59.5 -28t-38 -66.5t-20.5 -79t-6 -66.5z" />
    <glyph glyph-name="one" unicode="1" horiz-adv-x="160" 
d="M101 50q0 -17 7 -30.5t24 -19.5h-97q18 6 25 19t7 32v371q0 25 -25 25q-5 0 -13 -2l72 46v-441z" />
    <glyph glyph-name="two" unicode="2" horiz-adv-x="373" 
d="M244 29q12 0 26 1t27.5 5t24.5 11.5t17 19.5l-17 -66h-287q8 4 21.5 16t29.5 28.5t33 36t32 37.5t27.5 33.5t19.5 24.5q18 23 34 47t28.5 49.5t20 53t7.5 57.5q0 45 -23 66t-68 21q-21 0 -40 -8t-35 -21.5t-29 -30.5t-22 -35l-6 2q11 22 27 42.5t35.5 36.5t42.5 25.5
t49 9.5q52 0 81 -30.5t29 -81.5q0 -25 -13 -55.5t-34.5 -63t-48 -65.5t-53.5 -63.5t-51 -57t-41 -45.5h156z" />
    <glyph glyph-name="three" unicode="3" horiz-adv-x="377" 
d="M351 148q0 -34 -15.5 -62t-40.5 -48.5t-56 -31.5t-63 -11q-37 0 -70 14.5t-61 38.5l8 7q20 -23 48 -36t59 -13q71 0 112.5 43.5t41.5 113.5q0 49 -29 72.5t-76 23.5q-11 0 -21 -1t-20 -3q17 11 37.5 27t38.5 35.5t30 41t12 43.5q0 19 -8 33t-20.5 23t-29 13t-33.5 4
q-21 0 -39.5 -7.5t-34 -20.5t-28 -29.5t-22.5 -33.5l-6 2q12 22 27.5 42t34.5 35t41.5 24t49.5 9q18 0 36 -5t31.5 -15t22 -25.5t8.5 -35.5q0 -25 -12 -46.5t-29.5 -40.5t-38.5 -34.5t-39 -28.5q26 7 53.5 0t50 -24t36.5 -41.5t14 -51.5z" />
    <glyph glyph-name="four" unicode="4" horiz-adv-x="393" 
d="M295 50q0 -17 7.5 -30.5t24.5 -19.5h-98q18 6 25 19t7 32v83h-224l258 357v-327q21 0 43 8.5t33 28.5l-17 -67h-59v-84zM74 164h187v264z" />
    <glyph glyph-name="five" unicode="5" horiz-adv-x="351" 
d="M323 175q0 -36 -12.5 -68.5t-35 -56.5t-53.5 -38t-68 -14q-36 0 -59.5 11t-53.5 27l7 10q25 -17 50.5 -27.5t55.5 -10.5q31 0 55.5 12.5t42 33.5t26.5 48t9 56q0 46 -16 79.5t-44 55t-65 32t-79 10.5l23 155h111h19t19.5 2t17.5 6t13 13l-13 -52h-162l-18 -117
q41 0 82 -7.5t74 -26.5t53.5 -51.5t20.5 -81.5z" />
    <glyph glyph-name="six" unicode="6" horiz-adv-x="379" 
d="M350 171q0 -34 -11.5 -65t-32 -54.5t-49.5 -37.5t-64 -14q-41 0 -71.5 19.5t-50.5 50t-30 68t-10 73.5q0 55 18.5 101.5t51 83t77 61.5t96.5 36l3 -10q-49 -7 -85 -29.5t-61 -55t-39 -74t-19 -87.5q17 33 51.5 55t72.5 22q33 0 61 -9.5t48.5 -28t32 -45t11.5 -60.5z
M71 189q0 -27 6.5 -58.5t21 -58t38 -44t56.5 -17.5t55.5 11t36.5 30.5t20 45t6 54.5q0 26 -5.5 53.5t-18.5 50t-34 37t-53 14.5q-24 0 -47 -9t-41.5 -24.5t-29.5 -37t-11 -47.5z" />
    <glyph glyph-name="seven" unicode="7" horiz-adv-x="379" 
d="M337 490l-213 -490h-13l201 459h-169q-13 0 -28 -1t-28.5 -5t-25.5 -11.5t-19 -20.5l18 69h277z" />
    <glyph glyph-name="eight" unicode="8" horiz-adv-x="344" 
d="M315 124q0 -28 -12 -51t-32 -39.5t-45.5 -25.5t-51.5 -9t-52 9t-47 25.5t-34 40t-13 51.5q0 27 10.5 47.5t27.5 37.5t38 30t41 25q-15 12 -30 25.5t-27 28.5t-19.5 33t-7.5 39q0 24 10 42.5t26.5 32t38 20.5t43.5 7q21 0 42 -6.5t37.5 -19t27 -31t10.5 -41.5
q0 -22 -10 -39.5t-26 -32t-34.5 -26t-35.5 -20.5q21 -10 43.5 -26t40.5 -35.5t29.5 -42.5t11.5 -49zM85 399q0 -21 9 -38t23 -31t31 -25.5t33 -20.5q34 20 59 46.5t25 69.5q0 37 -23.5 60.5t-60.5 23.5q-18 0 -35.5 -6t-31 -17t-21.5 -26.5t-8 -35.5zM61 120q0 -23 9 -43.5
t25 -35.5t36.5 -24t43.5 -9q21 0 42 8t37.5 22.5t27 34t10.5 41.5q0 28 -14.5 48.5t-35.5 37t-45 30.5t-43 28q-46 -25 -69.5 -55t-23.5 -83z" />
    <glyph glyph-name="nine" unicode="9" horiz-adv-x="382" 
d="M350 281q0 -55 -18.5 -101.5t-51 -83t-77 -61.5t-96.5 -36l-2 10q49 8 85 30t61 55t39 74t19 87q-9 -16 -22.5 -30t-30 -24t-35 -16t-36.5 -6q-33 0 -61 9.5t-49 27.5t-32.5 44.5t-11.5 60.5t11.5 65t32.5 54.5t50 37.5t64 14q42 0 72 -19.5t50 -50t29.5 -68t9.5 -73.5z
M71 340q0 -27 5.5 -54t18 -49.5t34 -36.5t53.5 -14q24 0 47 9t41 24.5t29 37t11 46.5q0 27 -6.5 58.5t-21 58t-37.5 44.5t-56 18t-55.5 -11.5t-36.5 -31t-20 -45t-6 -54.5z" />
    <glyph glyph-name="colon" unicode=":" horiz-adv-x="139" 
d="M101 293q0 -12 -8.5 -21t-20.5 -9t-20.5 9t-8.5 21t9 20t20 8t20 -8.5t9 -19.5zM101 181q0 -11 -9 -20t-20 -9q-12 0 -20.5 8.5t-8.5 20.5t8.5 20t20.5 8q11 0 20 -8t9 -20z" />
    <glyph glyph-name="semicolon" unicode=";" horiz-adv-x="141" 
d="M101 293q0 -12 -8.5 -21t-20.5 -9t-20.5 9t-8.5 21t9 20t20 8t20 -8.5t9 -19.5zM102 176q0 -17 -8 -34t-20 -28l-5 5q4 5 7 11t3 13q0 6 -5.5 8t-12.5 4t-12.5 7.5t-5.5 18.5q0 11 8.5 19.5t19.5 8.5q15 0 23 -9.5t8 -23.5z" />
    <glyph glyph-name="less" unicode="&#x3c;" horiz-adv-x="170" 
d="M135 141v-39l-99 140l99 133v-35l-71 -98z" />
    <glyph glyph-name="equal" unicode="=" horiz-adv-x="251" 
d="M185 277v-20h-113v20h113zM185 221v-19h-113v19h113z" />
    <glyph glyph-name="greater" unicode="&#x3e;" horiz-adv-x="194" 
d="M146 242l-98 -132v34l71 98l-71 102v38z" />
    <glyph glyph-name="question" unicode="?" horiz-adv-x="394" 
d="M329 379q0 -48 -22.5 -84.5t-50 -69.5t-50 -66.5t-22.5 -76.5h-8q0 42 17.5 78t38.5 71.5t38.5 72.5t17.5 80q0 41 -26 63.5t-65 22.5q-21 0 -40 -8t-35 -21.5t-29 -30.5t-22 -35l-6 2q11 22 27 42.5t35.5 36.5t42.5 25.5t49 9.5q52 0 81 -30.5t29 -81.5zM207 29
q0 -11 -8 -20.5t-20 -9.5q-13 0 -21 9t-8 21t8.5 20t20.5 8q11 0 19.5 -8.5t8.5 -19.5z" />
    <glyph glyph-name="at" unicode="@" horiz-adv-x="575" 
d="M487 74q-40 -32 -89 -53t-101 -21q-49 0 -94 16.5t-79.5 46.5t-55 72t-20.5 93q0 58 21.5 106t59 82.5t87.5 53.5t107 19q48 0 88.5 -14.5t70 -41.5t46.5 -66t17 -88q0 -31 -8.5 -61.5t-26 -55.5t-43 -40.5t-60.5 -15.5q-26 0 -46 16t-20 43q-11 -23 -33 -41t-48 -18
q-48 0 -73.5 30.5t-25.5 75.5q0 32 11.5 61t31.5 50.5t47.5 34.5t60.5 13q20 0 40 -12t24 -34l11 37h37q-5 -21 -14 -47.5t-17.5 -54.5t-14.5 -54t-6 -47q0 -44 45 -44q27 0 44.5 17.5t28.5 42.5t15.5 52.5t4.5 47.5q0 42 -11.5 80t-35 66t-58 44.5t-79.5 16.5
q-51 0 -95 -21t-76 -55.5t-50.5 -80t-18.5 -95.5q0 -48 16.5 -88t46 -69t70 -45.5t88.5 -16.5q20 0 42 5t43.5 13.5t41 20t34.5 24.5h19zM198 207q0 -16 3.5 -31.5t11 -28.5t20.5 -21t31 -8q24 0 43 20t32 47.5t19.5 57t6.5 48.5q0 12 -2 24t-7 22t-14.5 16.5t-23.5 6.5
q-29 0 -51.5 -14.5t-37.5 -36.5t-23 -49t-8 -53z" />
    <glyph glyph-name="A" unicode="A" horiz-adv-x="414" 
d="M91 54q0 -37 -6 -78t-21 -78.5t-41 -67.5t-65 -43l-4 9q31 11 51.5 33t31.5 49.5t15.5 58.5t4.5 61q0 49 -7 97t-7 97q0 48 12 93q-32 -4 -63.5 -17.5t-55.5 -34.5h-13q32 26 63 40.5t72 20.5q28 95 101 145.5t170 50.5h61q-18 -6 -25 -19.5t-7 -31.5v-388q0 -17 7 -31.5
t25 -19.5h-99q18 6 25.5 19.5t7.5 31.5v92q0 11 -4 19q-15 32 -40.5 55t-57 38.5t-66.5 23t-68 7.5q-4 -19 -5 -37.5t-1 -37.5q0 -39 4.5 -78t4.5 -79zM89 297q33 0 68 -8t66.5 -23.5t58 -38.5t42.5 -54v266q0 5 -1 12t-3.5 13.5t-7 11t-12.5 4.5q-40 0 -75 -14.5t-62.5 -39
t-46 -58t-27.5 -71.5z" />
    <glyph glyph-name="B" unicode="B" horiz-adv-x="430" 
d="M398 134q0 -36 -15.5 -61.5t-40.5 -41.5t-56 -23.5t-62 -7.5h-190q18 5 25.5 19.5t7.5 31.5v389q0 17 -8 31t-25 19h100q-19 -5 -26.5 -19t-7.5 -32v-173h104q33 0 59.5 19.5t45 48t28 62.5t9.5 62q0 50 -18 88t-49 63t-72.5 37.5t-88.5 12.5q-66 0 -124.5 -20.5
t-103 -58.5t-70 -93t-25.5 -124q0 -49 15.5 -100t45.5 -92.5t73 -68t98 -26.5q4 0 7 0.5t7 0.5l-7 -10q-55 0 -104 24t-86 63t-58.5 90t-21.5 105q0 79 27.5 139t75.5 100t112.5 60.5t138.5 20.5q48 0 95.5 -14t85.5 -41t61.5 -67.5t23.5 -94.5q0 -33 -11 -62.5t-30 -53.5
t-45 -42t-56 -29q30 -1 58.5 -9t50 -24t34.5 -40t13 -58zM100 8h123q60 0 95.5 33t35.5 93t-36 92t-95 32h-123v-250z" />
    <glyph glyph-name="C" unicode="C" horiz-adv-x="327" 
d="M837 -42q63 0 121 -23.5t103 -66.5l-3 -4q-49 42 -103.5 55t-117.5 13q-47 0 -94 -5t-94 -10.5t-94 -10.5t-94 -5q-93 0 -172 25.5t-137.5 76t-91.5 124.5t-33 171q0 63 20.5 117t58 94t90.5 62.5t117 22.5q16 0 31 -2.5t31 -2.5q13 0 22.5 5t13.5 18l20 -97
q-14 33 -48.5 52t-69.5 19q-61 0 -107 -24t-76.5 -64t-45.5 -92t-15 -108q0 -86 26 -157.5t75 -122.5t118.5 -79.5t156.5 -28.5q50 0 98.5 7.5t97 16.5t97.5 16.5t99 7.5z" />
    <glyph glyph-name="D" unicode="D" horiz-adv-x="505" 
d="M473 312q0 -66 -20 -123t-58 -99t-92.5 -66t-123.5 -24h-145q18 5 25.5 19.5t7.5 31.5v389q0 17 -8 31t-25 19h101q-18 -5 -25.5 -19.5t-7.5 -31.5v-430h75q64 0 111.5 26.5t78.5 69.5t46.5 98.5t15.5 112.5q0 69 -23 131t-65 108.5t-100.5 73.5t-130.5 27
q-67 0 -126 -24t-102 -66.5t-68 -100.5t-25 -126q0 -221 210 -286l-10 -8q-48 12 -90 41t-73 68.5t-48.5 87t-17.5 97.5q0 74 29 134t77.5 102.5t112.5 66t134 23.5q73 0 138.5 -27.5t114.5 -75t78 -112t29 -138.5z" />
    <glyph glyph-name="E" unicode="E" horiz-adv-x="371" 
d="M839 -87q-53 -37 -103 -56.5t-115 -19.5q-44 0 -86 12t-83 30t-81.5 39.5t-82.5 39.5t-85.5 30t-90.5 12h-78q18 5 25.5 19t7.5 32v388q0 18 -7.5 32t-25.5 19h289l18 -72q-17 30 -38 47t-58 17h-144v-229h103q18 0 32.5 6.5t18.5 26.5v-72q-5 19 -19.5 25t-31.5 6h-103
v-235q75 0 145.5 -23t138.5 -51t133.5 -51t130.5 -23q31 0 54.5 2.5t44.5 9t42 17.5t46 28z" />
    <glyph glyph-name="F" unicode="F" horiz-adv-x="333" 
d="M101 50q0 -17 8 -31t25 -19h-100q18 5 25.5 19t7.5 32v388q0 18 -7.5 32t-25.5 19h69q91 0 170.5 25t152.5 55t142.5 55t139.5 25q60 0 110 -24t95 -61l-4 -5q-36 29 -78 48t-90 19q-81 0 -157.5 -22.5t-153.5 -50t-158 -50t-171 -22.5v-229h103q18 0 32 6.5t19 25.5v-71
q-5 18 -19.5 24.5t-31.5 6.5h-103v-195z" />
    <glyph glyph-name="G" unicode="G" horiz-adv-x="519" 
d="M493 300q-16 -5 -23 -17.5t-7 -28.5v-258q-8 12 -20.5 22t-28.5 10q-14 0 -29 -5t-31.5 -11t-34.5 -11t-38 -5q-59 0 -104.5 26.5t-76.5 69t-47 95.5t-16 106q0 55 18.5 104.5t52.5 87.5t81 60.5t104 22.5q29 0 56 -8t55 -8q20 0 27 16l20 -95q-7 21 -22.5 37t-35 27.5
t-41.5 17t-43 5.5q-60 0 -104 -23t-72.5 -62t-42 -89.5t-13.5 -104.5q0 -50 13 -99t40 -87.5t68 -62.5t98 -24q20 0 43 6.5t42.5 18.5t33 30t13.5 41v149q0 17 -6.5 29.5t-23.5 17.5h95z" />
    <glyph glyph-name="H" unicode="H" horiz-adv-x="464" 
d="M735 -85q44 0 81.5 -7t71 -22t65 -37.5t62.5 -52.5l-4 -5q-29 26 -64.5 44t-73.5 29t-78 16t-78 5q-66 0 -130 -10.5t-128.5 -22.5t-128.5 -22.5t-130 -10.5q-53 0 -103.5 15t-89.5 44.5t-63 73.5t-24 103q0 36 10 71t29 65t46.5 53.5t61.5 36.5v157q0 18 -6.5 32.5
t-25.5 19.5h97q-18 -6 -24.5 -20.5t-6.5 -31.5v-145q16 4 32 5.5t33 1.5q57 0 107.5 -18.5t89.5 -62.5v220q0 17 -6.5 31.5t-24.5 19.5h97q-18 -5 -24.5 -19.5t-6.5 -31.5v-390q0 -17 7.5 -30.5t24.5 -18.5h-98q18 5 24.5 19t6.5 31v159q-35 35 -77 57t-93 22q-23 0 -46 -1
t-46 -8v-230q0 -17 7.5 -30.5t23.5 -18.5h-97q18 5 25 18.5t7 31.5v213q-32 -16 -55 -39.5t-38 -52.5t-22 -62t-7 -68q0 -56 23 -96.5t60.5 -66.5t85.5 -39t97 -13q67 0 132 14t130 30.5t130 30.5t132 14z" />
    <glyph glyph-name="I" unicode="I" horiz-adv-x="159" 
d="M636 -83q80 0 149 -33t126 -87l-4 -5q-57 51 -131.5 72.5t-149.5 21.5q-66 0 -130.5 -10.5t-128.5 -22.5t-128.5 -22.5t-130.5 -10.5q-51 0 -103.5 14t-95 42.5t-70 72t-27.5 101.5q0 55 19.5 101t53.5 79t81 51.5t101 18.5v139q0 17 -6.5 31.5t-24.5 19.5h95
q-18 -5 -24 -19.5t-6 -31.5v-140q29 0 58 -8.5t55 -24t47 -37t34 -47.5l-7 -4q-12 27 -32 47.5t-45 34.5t-53 21.5t-57 7.5v-239q0 -15 6.5 -30t23.5 -20h-95q18 5 24.5 20t6.5 32v236q-51 0 -93.5 -17t-73 -48t-47.5 -73.5t-17 -93.5q0 -59 25 -102t65.5 -71.5t92 -42
t103.5 -13.5q66 0 129.5 14t127 31t127.5 31t130 14z" />
    <glyph glyph-name="J" unicode="J" horiz-adv-x="161" 
d="M100 64q0 -37 -8.5 -78.5t-26.5 -78t-47 -64t-71 -36.5v5q40 12 63.5 39.5t36 63t16 74.5t3.5 75v359q0 21 -5 40t-28 27h99q-20 -7 -26 -21t-6 -33v-372z" />
    <glyph glyph-name="K" unicode="K" horiz-adv-x="417" 
d="M678 -126q-31 -7 -61.5 -12t-62.5 -5q-73 0 -119.5 24.5t-77.5 63t-50 85t-37 91.5t-38.5 83t-54.5 58q-5 4 -14 4q-4 0 -11.5 -6t-15 -14.5t-14.5 -16.5t-10 -11q-7 -8 -9.5 -12.5t-2.5 -15.5v-134q0 -17 6.5 -33.5t24.5 -22.5h-97q20 6 26 21.5t6 33.5v384
q0 17 -7.5 31t-24.5 20h97q-18 -6 -24.5 -20t-6.5 -32v-221l212 225q7 7 7 16q0 11 -8.5 19.5t-18.5 12.5h94q-20 -8 -36.5 -22t-30.5 -30l-147 -157q-2 -2 -2 -4q0 -3 3 -5q36 -17 62 -53.5t50 -81t48.5 -92.5t57.5 -87t77.5 -64.5t107.5 -25.5q26 0 51.5 4t50.5 11v-9z
" />
    <glyph glyph-name="L" unicode="L" horiz-adv-x="231" 
d="M608 -101q-35 -18 -67.5 -30t-73.5 -12q-33 0 -63 10.5t-58 26.5t-56 34.5t-57 34.5t-61 26.5t-68 10.5h-71q19 5 26.5 19t7.5 32v389q0 18 -7.5 31.5t-26.5 18.5h101q-19 -5 -26 -18.5t-7 -31.5v-431q55 -2 104 -22.5t97 -44t97 -43t103 -19.5q30 0 53 6.5t50 18.5z" />
    <glyph glyph-name="M" unicode="M" horiz-adv-x="592" 
d="M620 -200q-11 -1 -21.5 -1.5t-21.5 -0.5q-74 0 -129 36.5t-98 94.5t-76.5 131t-64 146.5t-61 140.5t-67.5 113v-409q0 -21 12.5 -33.5t31.5 -17.5h-97q19 5 32 17.5t13 33.5v418q-77 86 -189 86q-21 0 -42.5 -3.5t-41.5 -8.5l-3 7q50 14 97 14q62 0 112 -25t90.5 -66.5
t72.5 -95t58 -110.5t47.5 -113t40.5 -103l184 439h66q-18 -6 -25 -19.5t-7 -31.5v-388q0 -18 7 -31.5t25 -19.5h-97q18 6 24.5 20t6.5 31v417l-180 -427q18 -42 40.5 -84t52.5 -75t69.5 -54t91.5 -21q11 0 22.5 0.5t22.5 2.5z" />
    <glyph glyph-name="N" unicode="N" horiz-adv-x="491" 
d="M755 -203q-23 -4 -50 -4q-75 0 -137 36t-115.5 94t-100 130.5t-90.5 146t-87 140t-89 111.5v-401q0 -20 13.5 -32.5t30.5 -17.5h-93q17 5 29.5 17.5t12.5 32.5v407q-42 43 -98.5 68.5t-117.5 25.5q-46 0 -89 -12l-3 10q48 12 98 12q65 0 122 -25t106.5 -67t92.5 -96
t80 -112t69.5 -115t60.5 -105v399q0 20 -12 32.5t-30 17.5h95q-17 -5 -30.5 -17.5t-13.5 -32.5v-412q25 -39 54 -79.5t64.5 -72.5t78.5 -52.5t94 -20.5h27t27 3z" />
    <glyph glyph-name="O" unicode="O" horiz-adv-x="583" 
d="M530 245q0 -51 -19.5 -96t-53 -78.5t-78.5 -53t-96 -19.5t-96 19.5t-78.5 53t-53 78.5t-19.5 96t19.5 96t53 78.5t78.5 53t96 19.5t96 -19.5t78.5 -53t53 -78.5t19.5 -96zM77 257q0 -45 16 -90t45 -81.5t69.5 -59t88.5 -22.5q45 0 81 20t61 52.5t38.5 73.5t13.5 83
q0 45 -16 90t-44.5 81t-68.5 58t-89 22q-45 0 -81 -20t-61.5 -52t-39 -72.5t-13.5 -82.5z" />
    <glyph glyph-name="P" unicode="P" horiz-adv-x="396" 
d="M100 50q0 -17 7 -31t24 -19h-95q18 5 24.5 19.5t6.5 31.5v388q0 17 -6.5 31.5t-24.5 19.5h95q-18 -5 -24.5 -19.5t-6.5 -31.5v-239q62 0 105 11t70 36.5t39 67.5t12 105q0 51 -20 94.5t-53.5 75.5t-78.5 50.5t-95 18.5q-67 0 -121.5 -24.5t-93 -66.5t-59.5 -99t-21 -122
q0 -53 15.5 -102t45.5 -86.5t74.5 -60t102.5 -22.5v-9q-63 0 -112 24t-83 64.5t-51.5 94.5t-17.5 113q0 71 25.5 127t69.5 96t103.5 61t127.5 21q53 0 103 -17.5t88.5 -50t62 -78t23.5 -102.5q0 -66 -18 -110t-51.5 -70.5t-82 -37t-109.5 -10.5v-142z" />
    <glyph glyph-name="Q" unicode="Q" horiz-adv-x="564" 
d="M885 -90q-46 -38 -97 -65.5t-113 -27.5q-41 0 -77.5 13.5t-70.5 33.5t-66 43.5t-64.5 43.5t-66 33.5t-70.5 13.5q-42 0 -80.5 -14.5t-71.5 -40.5l-5 9q32 20 62.5 34t69.5 17q-43 9 -79 31t-62 54t-41 72t-15 84q0 52 19.5 97t53 78.5t78.5 52.5t97 19q51 0 96 -19.5
t78.5 -53t52.5 -78.5t19 -96q0 -46 -16 -88t-44.5 -75t-68 -54t-85.5 -27q35 -4 68.5 -17.5t65.5 -31.5t63 -38t62.5 -36.5t64 -27.5t66.5 -11q23 0 46 7t45.5 18t43 25t36.5 29zM78 256q0 -44 16 -89t45 -81t69 -58.5t88 -22.5q47 0 83.5 19.5t61.5 51t38 72.5t13 84
q0 45 -16 90t-44.5 81t-68.5 58.5t-88 22.5q-46 0 -82.5 -19.5t-62 -52t-39 -73.5t-13.5 -83z" />
    <glyph glyph-name="R" unicode="R" horiz-adv-x="426" 
d="M727 -91q-23 -12 -42.5 -20t-39 -13.5t-40.5 -8t-47 -2.5q-54 0 -91 24.5t-63.5 60.5t-47.5 79t-44 79t-52.5 60.5t-72.5 24.5h-85v-143q0 -17 7 -31t25 -19h-99q19 5 25.5 19.5t6.5 31.5v389q0 17 -7 31t-25 19h162q36 0 69.5 -8t59.5 -26t42 -46.5t16 -68.5
q0 -33 -12.5 -59.5t-34 -45.5t-49.5 -29.5t-59 -12.5q33 -10 59.5 -37.5t50.5 -62t48.5 -72t53.5 -69t64.5 -51.5t83.5 -20q40 0 69.5 8t63.5 28zM102 200h96q65 0 105.5 37.5t40.5 103.5t-40.5 103t-105.5 37h-96v-281z" />
    <glyph glyph-name="S" unicode="S" horiz-adv-x="485" 
d="M458 23q0 -47 -15 -86t-42 -66.5t-65.5 -43t-85.5 -15.5q-45 0 -87 14t-73.5 40t-50.5 64.5t-19 86.5q0 44 14.5 77t40 55t60.5 33t77 11h18v-4q-38 0 -71.5 -14t-58 -39t-39 -58t-14.5 -72q0 -44 14.5 -78t40.5 -57t61.5 -35.5t77.5 -12.5q86 0 135.5 51t49.5 136
q0 44 -19 81t-48 70.5t-62 64.5t-62 61t-48 60.5t-19 63.5q0 45 28.5 68t71.5 23q26 0 50.5 -10.5t49.5 -10.5q10 0 16 9v-97q-4 20 -14.5 39t-26.5 33t-35.5 22.5t-40.5 8.5q-37 0 -63.5 -20t-26.5 -60q0 -31 21 -59.5t52 -57.5t67.5 -58.5t67.5 -63t52 -71.5t21 -83z" />
    <glyph glyph-name="T" unicode="T" horiz-adv-x="220" 
d="M99 47q0 -17 7 -29.5t24 -17.5h-96q17 5 24.5 18t7.5 30v462q-26 1 -54.5 5t-55.5 12.5t-52 22t-44 32.5l3 9q41 -38 88 -53t102 -15q57 0 112 13t109.5 29t109.5 29t112 13q61 0 115 -16t94 -65l-9 -4q-29 44 -72 57.5t-93 13.5q-55 0 -109 -13t-107 -28.5t-107 -28.5
t-109 -13v-463z" />
    <glyph glyph-name="U" unicode="U" horiz-adv-x="442" 
d="M583 658q-48 0 -83 -30t-58 -73.5t-34.5 -93t-11.5 -88.5v-205q0 -39 -9 -71t-28 -54.5t-48.5 -35t-70.5 -12.5q-85 0 -129 45t-44 128v272q0 18 -7 31.5t-25 18.5h97q-18 -5 -24 -19t-6 -31v-271q0 -33 8.5 -62t25.5 -51t43 -34.5t62 -12.5q77 0 111.5 43.5t34.5 116.5
v208q0 43 7 93.5t26.5 94t54 72.5t89.5 29q31 0 61 -9l-2 -5q-10 4 -19.5 5t-20.5 1z" />
    <glyph glyph-name="V" unicode="V" horiz-adv-x="490" 
d="M246 31q18 -53 41 -109t56.5 -101.5t80.5 -75t114 -29.5v-10q-88 0 -148.5 39.5t-104 105t-74 148.5t-59 170t-58.5 170t-72.5 148.5t-101.5 105t-144 39.5v9q73 0 131 -29t103 -77t80 -110t62 -128t48.5 -132t40.5 -121q4 11 18 43.5t32.5 76t38.5 92t37 90t28 70.5
t11 34q0 16 -12.5 26.5t-26.5 13.5h101q-21 -5 -35 -20t-22 -35z" />
    <glyph glyph-name="W" unicode="W" horiz-adv-x="664" 
d="M468 58q17 -57 37.5 -108t50.5 -92t74.5 -69.5t109.5 -39.5l-1 -9q-76 9 -130 46t-93 92t-65.5 122.5t-47 138.5t-38 139.5t-38.5 124.5l-120 -402l-131 437q-5 17 -15.5 30.5t-26.5 21.5h98q-12 -4 -17 -15t-5 -22q0 -6 7.5 -33t18.5 -65.5t24.5 -82.5t26 -84t22 -70.5
t12.5 -41.5l101 338q-45 103 -118 156.5t-185 66.5v6q79 -5 138 -32t102.5 -69t74.5 -96.5t54 -116t41 -126.5t35 -128q3 10 12.5 40.5t21.5 70.5t26 85t25 83t18.5 65t7.5 32q0 15 -10.5 25.5t-24.5 13.5h95q-20 -4 -33.5 -17.5t-19.5 -32.5z" />
    <glyph glyph-name="X" unicode="X" horiz-adv-x="433" 
d="M234 256q25 -43 51 -91.5t55 -96.5t62.5 -92.5t73.5 -78.5t88 -54t107 -20v-9q-88 0 -157 38.5t-123.5 98.5t-98.5 132t-82 139q-8 -12 -26 -37.5t-36.5 -54t-32.5 -54.5t-14 -38q0 -14 8 -24t22 -14h-98q19 6 35.5 26t26.5 35l110 169q-27 43 -53 90t-53 93.5
t-58.5 88.5t-70 73.5t-87 50.5t-109.5 19v10q56 0 104.5 -17t90.5 -46.5t78 -68t67.5 -82t59.5 -88.5t54 -88q8 12 26 38t37.5 55.5t34 55.5t14.5 37q0 14 -9.5 24t-21.5 14h98q-19 -7 -34.5 -26t-26.5 -35z" />
    <glyph glyph-name="Y" unicode="Y" horiz-adv-x="447" 
d="M238 50q0 -17 7 -31t24 -19h-97q18 5 24.5 19.5t6.5 31.5v162l-114 222q-8 16 -22 32.5t-31 22.5h97q-15 -7 -15 -26q0 -7 7.5 -25t19 -41.5t25 -49.5t26.5 -50.5t23.5 -43.5t15.5 -28q32 31 52 72.5t37.5 86t36.5 87.5t47.5 77.5t71.5 55.5t108 21v-8q-45 0 -80 -22
t-63.5 -57.5t-52.5 -80t-47.5 -89t-49.5 -84.5t-57 -68v-167z" />
    <glyph glyph-name="Z" unicode="Z" horiz-adv-x="408" 
d="M691 -90q-35 -16 -76.5 -33t-80.5 -17q-63 0 -119 22t-111 48t-112 48t-120 22h-36l297 482h-171q-33 0 -57.5 -17.5t-38.5 -46.5l17 72h295l-297 -481q61 0 120 -19.5t118.5 -43.5t119 -43.5t121.5 -19.5q33 0 66 8t62 24z" />
    <glyph glyph-name="bracketleft" unicode="[" horiz-adv-x="200" 
d="M145 -31v-30h-78v614h78v-31h-44v-553h44z" />
    <glyph glyph-name="backslash" unicode="\" horiz-adv-x="334" 
d="M62 490l229 -490h-19l-230 490h20z" />
    <glyph glyph-name="bracketright" unicode="]" horiz-adv-x="180" 
d="M134 553v-614h-79v32h44v552h-44v30h79z" />
    <glyph glyph-name="asciicircum" unicode="^" horiz-adv-x="252" 
d="M127 571l-29 -40h-27l44 56h24l44 -56h-25z" />
    <glyph glyph-name="underscore" unicode="_" horiz-adv-x="319" 
d="M255 -8v-19h-193v19h193z" />
    <glyph glyph-name="grave" unicode="`" horiz-adv-x="195" 
d="M105 594l22 -61h-12l-50 61h40z" />
    <glyph glyph-name="a" unicode="a" horiz-adv-x="492" 
d="M147 197q-4 -11 -13 -32t-18 -44t-15.5 -44t-6.5 -33q0 -19 11 -29t28 -15h-97q16 6 28 20t18 30l169 446l163 -444q6 -16 16 -31t27 -21h-102q11 4 18.5 15t7.5 23q0 7 -7.5 29.5t-17 48t-18.5 49t-12 32.5h-179zM149 204h172l-85 231z" />
    <glyph glyph-name="b" unicode="b" horiz-adv-x="419" 
d="M383 134q0 -35 -14.5 -60.5t-38 -42t-53.5 -24t-61 -7.5h-181q18 6 25 19.5t7 31.5v388q0 18 -7 31.5t-25 19.5h147q28 0 54.5 -6.5t47 -21t33 -36.5t12.5 -54q0 -42 -24.5 -69.5t-63.5 -37.5q29 -2 54.5 -11t45 -25.5t31 -40t11.5 -54.5zM100 266h81q51 0 80.5 27
t29.5 79t-29 81t-81 29h-81v-216zM100 8h116q58 0 91.5 34t33.5 92t-33.5 91t-91.5 33h-116v-250z" />
    <glyph glyph-name="c" unicode="c" horiz-adv-x="498" 
d="M463 71q-17 -14 -39 -27.5t-46 -23.5t-48.5 -16t-47.5 -6q-51 0 -96 19.5t-78.5 53t-53 78.5t-19.5 96t19.5 96t53 78.5t78.5 53t96 19.5q20 0 41.5 -2.5t43 -8t41 -14.5t34.5 -22v-60q-29 42 -73.5 70t-96.5 28q-46 0 -82.5 -18t-61 -48.5t-37.5 -70.5t-13 -83
q0 -45 13.5 -90.5t40 -82t65.5 -60t89 -23.5q52 0 96 27.5t74 69.5z" />
    <glyph glyph-name="d" unicode="d" horiz-adv-x="490" 
d="M455 245q0 -51 -19.5 -95.5t-52.5 -77.5t-77.5 -52.5t-95.5 -19.5h-175q18 5 25 19.5t7 31.5v387q0 17 -7 32t-25 20h167q50 0 96 -19t81 -52.5t55.5 -78t20.5 -95.5zM101 9h68q53 0 98 16.5t77.5 47t51 74.5t18.5 98t-18.5 98t-51 75t-77.5 47.5t-98 16.5h-68v-473z" />
    <glyph glyph-name="e" unicode="e" horiz-adv-x="376" 
d="M245 8q35 0 58 17.5t38 46.5l-18 -72h-288q18 6 25 19t7 32v388q0 19 -7 32t-25 19h288l18 -72q-15 29 -38 46.5t-58 17.5h-144v-229h103q18 0 32 6.5t19 25.5v-71q-5 18 -19.5 24.5t-31.5 6.5h-103v-237h144z" />
    <glyph glyph-name="f" unicode="f" horiz-adv-x="376" 
d="M101 50q0 -17 7 -30.5t24 -19.5h-97q18 6 25 19t7 32v388q0 19 -7 32t-25 19h288l18 -72q-15 29 -38 46.5t-58 17.5h-144v-229h103q18 0 32 6.5t19 25.5v-71q-5 18 -19.5 24.5t-31.5 6.5h-103v-195z" />
    <glyph glyph-name="g" unicode="g" horiz-adv-x="505" 
d="M494 196q-17 -6 -24 -19.5t-7 -30.5v-150q-3 5 -7.5 12t-9.5 13.5t-11.5 11t-13.5 4.5q-6 0 -20.5 -6t-33.5 -13.5t-41 -13.5t-43 -6q-51 0 -96 19.5t-78.5 53t-53 78.5t-19.5 96t19.5 96t53 78.5t78.5 53t96 19.5q39 0 84 -10.5t76 -36.5v-60q-29 42 -73.5 70t-97.5 28
q-45 0 -81 -20t-61.5 -52.5t-39 -73t-13.5 -82.5q0 -43 15.5 -87.5t44 -80t68 -58t86.5 -22.5q19 0 43 6.5t45 19t35 30.5t14 40q0 12 0.5 26t-1.5 27.5t-8.5 24t-21.5 15.5h97z" />
    <glyph glyph-name="h" unicode="h" horiz-adv-x="464" 
d="M101 50q0 -17 7 -30.5t24 -19.5h-97q18 6 25 18.5t7 31.5v389q0 19 -7 32t-25 19h97q-18 -6 -24.5 -19.5t-6.5 -31.5v-184h262v184q0 18 -6.5 31.5t-24.5 19.5h97q-18 -6 -24.5 -19.5t-6.5 -31.5v-388q0 -18 6.5 -31.5t24.5 -19.5h-97q18 6 24.5 19.5t6.5 31.5v196h-262
v-197z" />
    <glyph glyph-name="i" unicode="i" horiz-adv-x="167" 
d="M101 51q0 -18 6.5 -31.5t24.5 -19.5h-97q18 6 25 19t7 32v388q0 19 -7 32t-25 19h97q-18 -6 -24.5 -19.5t-6.5 -31.5v-388z" />
    <glyph glyph-name="j" unicode="j" horiz-adv-x="294" 
d="M259 490q-18 -6 -25 -19t-7 -32v-305q0 -29 -3.5 -54.5t-14 -44t-31 -29t-55.5 -10.5q-11 0 -26 3t-29 9t-23.5 16t-9.5 24q0 9 4 17t15 8q10 0 13 -5t4 -12.5t2 -16t6 -16t16 -12.5t33 -5q26 0 39 13.5t19 33t6.5 42t0.5 40.5v304q0 18 -6.5 31.5t-24.5 19.5h97z" />
    <glyph glyph-name="k" unicode="k" horiz-adv-x="458" 
d="M100 51q0 -18 7 -31.5t25 -19.5h-98q18 6 25 19t7 32v388q0 14 -9 30t-23 21h98q-18 -6 -25 -19t-7 -32v-223l212 226q7 9 7 17q0 11 -8.5 19.5t-18.5 11.5h94q-19 -6 -35.5 -21t-29.5 -29l-119 -127q-4 -4 -4 -12q0 -5 3 -10l161 -243q8 -13 26 -28t33 -20h-59
q-11 0 -16 9l-163 246q-6 9 -18 9q-7 0 -16.5 -7.5t-18.5 -17t-17 -19.5t-13 -15v-154z" />
    <glyph glyph-name="l" unicode="l" horiz-adv-x="376" 
d="M245 8q35 0 58 17.5t38 46.5l-18 -72h-288q18 6 25 19t7 32v388q0 19 -7 32t-25 19h97q-18 -6 -24.5 -19.5t-6.5 -31.5v-431h144z" />
    <glyph glyph-name="m" unicode="m" horiz-adv-x="608" 
d="M88 51q0 -22 13 -33.5t32 -17.5h-97q18 6 31.5 18t13.5 33v388q0 22 -13 33t-32 18h78l210 -435l183 435h66q-18 -6 -24.5 -19.5t-6.5 -31.5v-389q0 -18 7 -31t24 -19h-97q17 6 24 19t7 31v418l-197 -467l-222 464v-414z" />
    <glyph glyph-name="n" unicode="n" horiz-adv-x="486" 
d="M86 50q0 -20 13.5 -32t30.5 -18h-94q17 6 30 18t13 32v389q0 22 -12 33.5t-31 17.5h77l287 -414v364q0 21 -12.5 32.5t-30.5 17.5h94q-17 -6 -29.5 -18t-12.5 -32v-440l-323 465v-415z" />
    <glyph glyph-name="o" unicode="o" horiz-adv-x="565" 
d="M530 245q0 -51 -19.5 -96t-53 -78.5t-78.5 -53t-96 -19.5t-96 19.5t-78.5 53t-53 78.5t-19.5 96t19.5 96t53 78.5t78.5 53t96 19.5t96 -19.5t78.5 -53t53 -78.5t19.5 -96zM77 257q0 -45 16 -90t45 -81t69.5 -58.5t88.5 -22.5q45 0 81 20t61 52.5t38.5 73t13.5 82.5
q0 45 -16 90t-44.5 81t-68.5 58t-89 22q-45 0 -81 -20t-61.5 -52t-39 -72.5t-13.5 -82.5z" />
    <glyph glyph-name="p" unicode="p" horiz-adv-x="419" 
d="M101 50q0 -17 7 -31t24 -19h-97q18 6 25 19.5t7 31.5v387q0 18 -7 32t-25 20h162q36 0 69.5 -8t59.5 -26t42 -46.5t16 -68.5q0 -39 -16.5 -67t-42.5 -46.5t-59.5 -27t-68.5 -8.5h-96v-142zM101 200h96q65 0 105 37.5t40 103.5t-40 103.5t-105 37.5h-96v-282z" />
    <glyph glyph-name="q" unicode="q" horiz-adv-x="565" 
d="M508 -59q-9 -17 -25 -27.5t-36 -10.5q-27 0 -48 14t-41.5 30.5t-42 30.5t-49.5 14q-23 0 -43.5 -8.5t-39.5 -19.5q26 25 63 37q-45 7 -83 29t-66 54.5t-43.5 74t-15.5 86.5q0 51 19.5 96t53 78.5t78.5 53t96 19.5t96 -19.5t78.5 -53t53 -78.5t19.5 -96q0 -49 -18 -92.5
t-49.5 -77t-73.5 -54t-91 -23.5q17 -7 36 -18.5t39 -23t39.5 -19.5t36.5 -8q15 0 29 3.5t28 8.5zM78 257q0 -45 16 -90t45.5 -81t69.5 -59t88 -23q45 0 81 20.5t61 53t38.5 73.5t13.5 82q0 45 -16 90t-44.5 80.5t-69 58t-88.5 22.5q-45 0 -81.5 -20t-61.5 -52t-38.5 -72.5
t-13.5 -82.5z" />
    <glyph glyph-name="r" unicode="r" horiz-adv-x="442" 
d="M102 50q0 -18 7 -31t24 -19h-97q18 6 24.5 19.5t6.5 31.5v388q0 18 -6.5 31.5t-24.5 19.5h161q36 0 69.5 -8t59.5 -26t42 -46.5t16 -68.5q0 -29 -10.5 -53.5t-28.5 -42.5t-42 -30.5t-51 -17.5l108 -164q8 -11 20 -19.5t25 -13.5h-63l-128 193h-112v-143zM102 200h97
q65 0 105 37.5t40 103.5t-40 103.5t-105 37.5h-97v-282z" />
    <glyph glyph-name="s" unicode="s" horiz-adv-x="380" 
d="M351 113q0 -30 -15 -52t-38 -37t-50.5 -22.5t-53.5 -7.5q-18 0 -34.5 4.5t-32.5 9.5t-31 9.5t-29 4.5q-20 0 -33 -18v128q18 -54 57 -91t99 -37q23 0 47 5t43.5 16t32 30t12.5 46q0 33 -20.5 55.5t-51.5 40t-66.5 33t-66.5 36t-51.5 47.5t-20.5 68q0 30 12 52.5t31.5 37
t45.5 22t53 7.5q22 0 41.5 -6t35 -13.5t26.5 -13.5t17 -6q13 0 20.5 9.5t9.5 20.5v-72v-35q-7 23 -21 42.5t-33 34.5t-41.5 23.5t-46.5 8.5q-22 0 -44.5 -4.5t-40.5 -15.5t-29.5 -28.5t-11.5 -44.5q0 -33 20.5 -55.5t51.5 -40.5t67.5 -34.5t67.5 -37.5t51.5 -49t20.5 -70z
" />
    <glyph glyph-name="t" unicode="t" horiz-adv-x="444" 
d="M238 51q0 -17 7.5 -31t24.5 -20h-98q18 6 25 19t7 32v431h-72q-35 0 -58 -17.5t-38 -46.5l17 72h338l18 -71q-15 29 -38.5 46t-57.5 17h-75v-431z" />
    <glyph glyph-name="u" unicode="u" horiz-adv-x="470" 
d="M440 490q-19 -6 -32 -18t-13 -33v-272q0 -78 -36.5 -125t-119.5 -47q-85 0 -128.5 44.5t-43.5 127.5v272q0 18 -7 31.5t-25 19.5h97q-18 -6 -24.5 -19.5t-6.5 -31.5v-271q0 -33 8.5 -62t26 -50.5t43.5 -34t61 -12.5q77 0 112 42.5t35 116.5v272q0 21 -13.5 32.5
t-31.5 17.5h98z" />
    <glyph glyph-name="v" unicode="v" horiz-adv-x="519" 
d="M485 490q-20 -8 -32.5 -19.5t-20.5 -31.5l-181 -439l-175 439q-6 16 -15 30t-26 21h97q-11 -4 -16.5 -14t-5.5 -21q0 -6 10.5 -34.5t26 -69t34.5 -87.5t36.5 -89t31 -74.5t17.5 -43.5q5 11 18.5 43t31.5 74.5t37.5 89.5t36 87.5t27 69t10.5 33.5q0 14 -11.5 23.5
t-24.5 12.5h94z" />
    <glyph glyph-name="w" unicode="w" horiz-adv-x="666" 
d="M631 490q-40 -9 -52 -50l-130 -439l-121 408l-120 -408l-130 438q-5 17 -15 30.5t-27 20.5h97q-11 -4 -16.5 -15t-5.5 -22q0 -7 7 -34.5t18 -65.5t24.5 -81.5t25.5 -83t22 -70t13 -42.5l103 347q-7 22 -15.5 40t-31.5 27h98q-11 -4 -16.5 -15t-5.5 -22q0 -7 7 -34.5
t18 -65.5t24.5 -81.5t25.5 -83t21.5 -70t13.5 -42.5q3 10 12.5 40.5t21.5 70.5t25.5 84.5t24.5 82.5t18.5 65t7.5 32q0 15 -10.5 25.5t-24.5 13.5h93z" />
    <glyph glyph-name="x" unicode="x" horiz-adv-x="458" 
d="M113 72q-5 -8 -8 -16t-3 -17q0 -14 8.5 -24t21.5 -15h-97q18 6 35 26t27 35l115 179l-127 195q-9 14 -21 31.5t-29 23.5h97q-15 -6 -15 -25q0 -15 9 -29l106 -164l95 146q5 8 8.5 16.5t3.5 17.5q0 14 -9 23.5t-22 14.5h97q-18 -6 -34.5 -26t-26.5 -35l-107 -166l138 -211
q9 -14 20.5 -30t27.5 -22h-97q15 6 15 25q0 17 -9 29l-116 178z" />
    <glyph glyph-name="y" unicode="y" horiz-adv-x="440" 
d="M238 50q0 -18 7.5 -31t24.5 -19h-98q18 6 25 19t7 32v163l-116 221q-8 15 -21.5 32t-30.5 23h97q-15 -6 -15 -25q0 -15 8 -29l106 -204l96 185q4 8 6.5 16t2.5 16q0 14 -8 25t-21 16h98q-18 -7 -37 -26.5t-27 -36.5l-104 -202v-175z" />
    <glyph glyph-name="z" unicode="z" horiz-adv-x="412" 
d="M256 8q35 0 57.5 17.5t37.5 46.5l-17 -72h-299l297 482h-171q-34 0 -57.5 -17.5t-38.5 -46.5l18 72h294l-296 -482h175z" />
    <glyph glyph-name="braceleft" unicode="{" horiz-adv-x="196" 
d="M39 250q21 -15 30 -34.5t13.5 -42t7.5 -46t10 -46.5t22.5 -44t44.5 -38v-11q-44 24 -67.5 49t-34 49.5t-12 48t-2.5 44t-5 37.5t-19 29v12q13 10 17 24.5t5 33.5t3.5 42t14 48.5t34.5 53t66 55.5v-11q-45 -29 -60 -64.5t-20 -70.5t-12 -65.5t-36 -50.5v-2z" />
    <glyph glyph-name="bar" unicode="|" horiz-adv-x="206" 
d="M130 554v-615h-35v615h35z" />
    <glyph glyph-name="braceright" unicode="}" horiz-adv-x="193" 
d="M169 244q-13 -10 -17 -25t-5 -34t-3.5 -42t-14 -48t-34.5 -52.5t-66 -55.5v10q30 20 46 42.5t23.5 46t10.5 47t7 44.5t12.5 39.5t28.5 31.5v3q-20 15 -29.5 34.5t-14 41.5t-7.5 46t-10 47t-22.5 44t-44.5 38v10q44 -24 67.5 -48.5t34 -49t12.5 -48t2.5 -44t4.5 -38
t19 -29.5v-11z" />
    <glyph glyph-name="asciitilde" unicode="~" horiz-adv-x="239" 
d="M190 221q-5 -13 -19 -18.5t-26 -5.5q-14 0 -27 3.5t-27 3.5q-7 0 -14 -1t-14 -4q5 12 19.5 18t26.5 6q14 0 28 -3.5t28 -3.5q12 0 25 5z" />
    <glyph glyph-name="uni007F" 
 />
    <glyph glyph-name="exclamdown" unicode="&#xa1;" horiz-adv-x="155" 
d="M109 463q0 -11 -9 -19.5t-20 -8.5t-20 8t-9 20t8.5 21t20.5 9t20.5 -9t8.5 -21zM104 28q1 -11 -5.5 -20t-18.5 -9q-11 0 -17.5 9t-5.5 20l18 361h10z" />
    <glyph glyph-name="cent" unicode="&#xa2;" horiz-adv-x="498" 
d="M463 71q-36 -31 -86.5 -52t-98.5 -21v-68h-13v69q-48 3 -90 24t-73 54t-49 76.5t-18 91.5q0 49 18 92t49 76t73 54t90 24v72h13v-71q42 0 86.5 -10.5t77.5 -36.5v-60q-28 40 -70.5 68t-93.5 30v-476q57 0 101.5 26t76.5 71zM78 263q0 -42 12 -85t35.5 -79t58.5 -61
t81 -30v475q-45 -1 -80 -20t-58.5 -49.5t-36 -69.5t-12.5 -81z" />
    <glyph glyph-name="sterling" unicode="&#xa3;" horiz-adv-x="410" 
d="M239 8q50 0 84 25.5t59 66.5l-22 -100h-315v8q16 0 29.5 7t24 18.5t16.5 26t6 29.5q0 33 -7.5 65t-21.5 62h-67v9h62l-28 62t-14 66q0 69 39.5 108t108.5 39q20 0 39 -6t35 -17.5t25.5 -28t9.5 -38.5q0 -9 -3 -19.5t-8 -19.5t-13 -15t-18 -6q8 9 11 20.5t3 22.5
q0 41 -22 70.5t-66 29.5q-47 0 -75 -27.5t-28 -74.5q0 -29 3.5 -49.5t10 -38t15 -35.5t17.5 -43h162v-9h-159q12 -37 12 -77q0 -18 -2.5 -37.5t-9.5 -37.5t-19 -33t-30 -23h156z" />
    <glyph glyph-name="currency" unicode="&#xa4;" horiz-adv-x="571" 
d="M90 353q0 57 35 110l-66 68l49 47l66 -64q49 35 112 35q59 0 110 -35l67 64l48 -47l-64 -67q35 -54 35 -111q0 -63 -35 -112l63 -66l-47 -47l-67 64q-50 -34 -110 -34q-64 0 -112 35l-66 -64l-48 47l65 66q-35 53 -35 111zM157 353q0 -54 37.5 -91.5t91.5 -37.5t92 37
t38 92q0 56 -38 93.5t-92 37.5t-91.5 -38t-37.5 -93z" />
    <glyph glyph-name="yen" unicode="&#xa5;" horiz-adv-x="440" 
d="M238 50q0 -18 7.5 -31t24.5 -19h-98q18 6 25 19t7 32v74h-103l2 9h101v50h-101v9h101v21l-116 221q-8 15 -21.5 32t-30.5 23h97q-15 -6 -15 -25q0 -15 8 -29l106 -204l96 185q4 8 6.5 16t2.5 16q0 14 -8 25t-21 16h98q-18 -7 -37 -26.5t-27 -36.5l-104 -202v-32h94v-9
h-94v-50h94l-2 -9h-92v-75z" />
    <glyph glyph-name="brokenbar" unicode="&#xa6;" horiz-adv-x="550" 
d="M239 760h73v-381h-73v381zM239 140h73v-381h-73v381z" />
    <glyph glyph-name="section" unicode="&#xa7;" horiz-adv-x="269" 
d="M232 68q0 -18 -9.5 -32t-24 -23.5t-31.5 -14t-33 -4.5q-21 0 -40 9t-39 9q-12 0 -21 -12v80q11 -34 35.5 -57t62.5 -23q14 0 29 3t27 10t20 19t8 29q0 21 -13 35t-32 25t-41.5 20.5t-41.5 22t-32 30t-13 42.5q0 38 27 56t62 18q13 0 25 -3q-18 9 -38 18t-37 21t-28 28.5
t-11 40.5q0 38 27 56t62 18q14 0 26 -3.5t21.5 -8t16.5 -8.5t11 -4q8 0 12 6t6 13v-45v-22q-8 28 -33.5 48t-54.5 20q-14 0 -28 -2.5t-25.5 -9.5t-18.5 -18t-7 -28q0 -21 13 -35t32 -25t42 -21.5t42 -23.5t32 -31t13 -44q0 -19 -9.5 -33t-24.5 -23t-32.5 -13.5t-34.5 -4.5
q17 -8 35 -17.5t32.5 -21.5t24 -28t9.5 -38zM58 248q0 -27 20.5 -42.5t41.5 -26.5q15 0 32 2t31.5 8.5t23.5 18.5t9 32q0 14 -7.5 26t-19 21t-25.5 14t-27 5q-14 0 -28 -2.5t-25.5 -9.5t-18.5 -18t-7 -28z" />
    <glyph glyph-name="dieresis" unicode="&#xa8;" horiz-adv-x="161" 
d="M129 546q0 -18 -18 -18t-18 18t18 18t18 -18zM68 546q0 -18 -19 -18q-18 0 -18 18t18 18q19 0 19 -18z" />
    <glyph glyph-name="copyright" unicode="&#xa9;" horiz-adv-x="662" 
d="M627 304q0 -61 -23.5 -115t-64 -94t-94.5 -63.5t-115 -23.5t-115 23.5t-94 63.5t-63.5 94t-23.5 115t23.5 115t63.5 94t94 63.5t115 23.5q62 0 116 -23t94 -63.5t63.5 -94t23.5 -115.5zM52 304q0 -57 22 -108t59.5 -88.5t88.5 -59.5t108 -22q58 0 108.5 22t88.5 59.5
t60 88t22 108.5t-22 108.5t-60 88.5t-88.5 60t-108.5 22q-57 0 -108 -22t-88.5 -60t-59.5 -89t-22 -108zM450 191q-23 -20 -56.5 -34.5t-63.5 -14.5q-34 0 -63.5 13t-52 35.5t-35.5 52t-13 63.5t13 63.5t35.5 52t52 35.5t63.5 13q26 0 56 -7t50 -24v-40q-20 28 -49 46.5
t-64 18.5q-31 0 -54.5 -12.5t-40 -32.5t-25 -46.5t-8.5 -54.5q0 -30 9 -60t26 -54.5t43 -40t59 -15.5q35 0 64 18t49 46z" />
    <glyph glyph-name="ordfeminine" unicode="&#xaa;" horiz-adv-x="356" 
d="M261 389l-12 42q-46 -48 -114 -48q-47 0 -75 24.5t-28 74.5t38.5 76t119.5 29l56 2v22q0 30 -19 44.5t-52 14.5q-49 0 -101 -26q-13 30 -22 49q60 29 125 29t98 -27t33 -86v-220h-47zM96 482q0 -48 54 -48q96 0 96 87v23l-48 -2q-54 -2 -78 -16t-24 -44z" />
    <glyph glyph-name="guillemotleft" unicode="&#xab;" horiz-adv-x="277" 
d="M135 141v-39l-99 140l99 133v-35l-71 -98zM241 141v-39l-99 140l99 133v-35l-71 -98z" />
    <glyph glyph-name="logicalnot" unicode="&#xac;" horiz-adv-x="571" 
d="M520 388v-260h-71v189h-399v71h470z" />
    <glyph glyph-name="uni00AD" unicode="&#xad;" horiz-adv-x="321" 
d="M40 229v78h242v-78h-242z" />
    <glyph glyph-name="registered" unicode="&#xae;" horiz-adv-x="662" 
d="M627 304q0 -61 -23.5 -115t-64 -94t-94.5 -63.5t-115 -23.5t-115 23.5t-94 63.5t-63.5 94t-23.5 115t23.5 115t63.5 94t94 63.5t115 23.5q62 0 116 -23t94 -63.5t63.5 -94t23.5 -115.5zM52 304q0 -57 22 -108t59.5 -88.5t88.5 -59.5t108 -22q58 0 108.5 22t88.5 59.5
t60 88t22 108.5t-22 108.5t-60 88.5t-88.5 60t-108.5 22q-57 0 -108 -22t-88.5 -60t-59.5 -89t-22 -108zM254 175q0 -11 4.5 -20t15.5 -13h-64q11 4 15.5 13.5t4.5 20.5v259q0 11 -4.5 20.5t-15.5 13.5h107q24 0 46.5 -5.5t40 -17t28 -30.5t10.5 -46q0 -39 -25.5 -64
t-62.5 -32l72 -110q5 -8 13.5 -13.5t16.5 -8.5h-42l-86 129h-74v-96zM254 276h64q44 0 70.5 24.5t26.5 69.5q0 44 -26.5 69t-70.5 25h-64v-188z" />
    <glyph glyph-name="macron" unicode="&#xaf;" horiz-adv-x="300" 
d="M245 539v-17h-183v17h183z" />
    <glyph glyph-name="degree" unicode="&#xb0;" horiz-adv-x="173" 
d="M115 549q0 -13 -8 -22t-22 -9t-22 9t-8 22t8.5 22t21.5 9t21.5 -9t8.5 -22zM69 549q0 -7 3.5 -16.5t12.5 -9.5q8 0 11.5 10t3.5 16t-3.5 16t-11.5 10q-9 0 -12.5 -9.5t-3.5 -16.5z" />
    <glyph glyph-name="plusminus" unicode="&#xb1;" horiz-adv-x="571" 
d="M321 391h199v-71h-199v-206h-72v206h-199v71h199v207h72v-207zM50 0v71h470v-71h-470z" />
    <glyph glyph-name="twosuperior" unicode="&#xb2;" horiz-adv-x="270" 
d="M151 433q14 0 29 3t22 17l-9 -35h-155q7 3 19.5 16t26 28t25 29.5t17.5 21.5q20 26 34 52.5t14 59.5q0 46 -49 46q-23 0 -40.5 -15.5t-27.5 -35.5l-3 1q12 23 33 42.5t50 19.5q28 0 44 -16.5t16 -44.5q0 -21 -15.5 -47t-36.5 -52.5t-43 -50t-35 -39.5h84z" />
    <glyph glyph-name="threesuperior" unicode="&#xb3;" horiz-adv-x="265" 
d="M211 496q0 -18 -8.5 -33t-22 -26t-30 -17t-33.5 -6q-20 0 -38 8t-32 21l4 4q11 -12 25.5 -19.5t31.5 -7.5q37 0 60 22.5t23 59.5q0 28 -15 41t-42 13q-5 0 -11 -0.5t-11 -1.5q9 6 20.5 14.5t21 19t16 22t6.5 23.5q0 21 -15.5 30t-33.5 9q-23 0 -39.5 -15.5t-27.5 -33.5
l-3 1q13 23 33 41t49 18q20 0 36.5 -10.5t16.5 -32.5q0 -13 -6.5 -25t-16 -22t-20.5 -18.5t-21 -15.5q14 3 29 -0.5t27 -12.5t19.5 -22t7.5 -28z" />
    <glyph glyph-name="acute" unicode="&#xb4;" 
d="M126 603l-49 -60h-10l20 60h39z" />
    <glyph glyph-name="mu" unicode="&#xb5;" horiz-adv-x="623" 
d="M173 190q0 -127 120 -127q83 0 120 45.5t37 148.5v279h88v-536h-71l-14 72h-5q-53 -82 -161 -82q-71 0 -115 45h-4q5 -36 5 -119v-156h-88v776h88v-346z" />
    <glyph glyph-name="paragraph" unicode="&#xb6;" horiz-adv-x="654" 
d="M549 -127h-58v831h-102v-831h-58v400q-30 -9 -71 -9q-105 0 -155 61t-50 184q0 127 53.5 189t166.5 62h274v-887z" />
    <glyph glyph-name="periodcentered" unicode="&#xb7;" horiz-adv-x="140" 
d="M101 237q0 -11 -9 -20t-20 -9q-12 0 -20.5 8.5t-8.5 20.5t8.5 20t20.5 8q11 0 20 -8t9 -20z" />
    <glyph glyph-name="cedilla" unicode="&#xb8;" horiz-adv-x="225" 
d="M212 -139q0 -48 -37 -74.5t-111 -26.5q-32 0 -50 5v55q18 -5 53 -5q37 0 55.5 9.5t18.5 34.5q0 43 -91 55l43 86h58l-26 -53q87 -19 87 -86z" />
    <glyph glyph-name="onesuperior" unicode="&#xb9;" horiz-adv-x="163" 
d="M93 445q0 -22 17 -27h-53q18 6 18 28v200q0 13 -14 13q-5 0 -7 -1l39 25v-238z" />
    <glyph glyph-name="ordmasculine" unicode="&#xba;" horiz-adv-x="375" 
d="M345 553q0 -80 -42 -125t-116 -45q-71 0 -113 45t-42 125q0 81 41 125t116 44q73 0 114.5 -44.5t41.5 -124.5zM95 553q0 -59 21.5 -88t71.5 -29q49 0 71 29t22 88t-22 87.5t-71 28.5t-71 -28.5t-22 -87.5z" />
    <glyph glyph-name="guillemotright" unicode="&#xbb;" horiz-adv-x="277" 
d="M241 242l-99 -140v39l71 101l-71 98v35zM135 242l-99 -140v39l71 101l-71 98v35z" />
    <glyph glyph-name="onequarter" unicode="&#xbc;" horiz-adv-x="790" 
d="M736 96h-61v-96h-75v96h-195v52l197 283h73v-275h61v-60zM600 156v93q0 52 3 101q-4 -9 -48 -77l-80 -117h125zM637 714l-436 -714h-75l436 714h75zM91 445q0 -22 17 -27h-53q18 6 18 28v200q0 13 -14 13q-5 0 -7 -1l39 25v-238z" />
    <glyph glyph-name="onehalf" unicode="&#xbd;" horiz-adv-x="790" 
d="M607 714l-436 -714h-75l436 714h75zM78 445q0 -22 17 -27h-53q18 6 18 28v200q0 13 -14 13q-5 0 -7 -1l39 25v-238zM572 147q14 0 29 3t22 17l-9 -35h-155q7 3 19.5 16t26 28t25 29.5t17.5 21.5q20 26 34 52.5t14 59.5q0 46 -49 46q-23 0 -40.5 -15.5t-27.5 -35.5l-3 1
q12 23 33 42.5t50 19.5q28 0 44 -16.5t16 -44.5q0 -21 -15.5 -47t-36.5 -52.5t-43 -50t-35 -39.5h84z" />
    <glyph glyph-name="threequarters" unicode="&#xbe;" horiz-adv-x="790" 
d="M772 96h-61v-96h-75v96h-195v52l197 283h73v-275h61v-60zM636 156v93q0 52 3 101q-4 -9 -48 -77l-80 -117h125zM681 714l-436 -714h-75l436 714h75zM210 496q0 -18 -8.5 -33t-22 -26t-30 -17t-33.5 -6q-20 0 -38 8t-32 21l4 4q11 -12 25.5 -19.5t31.5 -7.5q37 0 60 22.5
t23 59.5q0 28 -15 41t-42 13q-5 0 -11 -0.5t-11 -1.5q9 6 20.5 14.5t21 19t16 22t6.5 23.5q0 21 -15.5 30t-33.5 9q-23 0 -39.5 -15.5t-27.5 -33.5l-3 1q13 23 33 41t49 18q20 0 36.5 -10.5t16.5 -32.5q0 -13 -6.5 -25t-16 -22t-20.5 -18.5t-21 -15.5q14 3 29 -0.5t27 -12.5
t19.5 -22t7.5 -28z" />
    <glyph glyph-name="questiondown" unicode="&#xbf;" horiz-adv-x="394" 
d="M207 461q0 -11 -8.5 -19.5t-19.5 -8.5q-12 0 -20.5 8t-8.5 20t8 21t21 9q12 0 20 -9.5t8 -20.5zM329 111q0 -51 -29 -81.5t-81 -30.5q-26 0 -49 9.5t-42.5 25.5t-35.5 36.5t-27 42.5l6 2q9 -18 22 -35t29 -30.5t35 -21.5t40 -8q39 0 65 22.5t26 63.5q0 44 -17.5 80.5
t-38.5 72t-38.5 71.5t-17.5 78h8q0 -43 22.5 -76.5t50 -66.5t50 -69.5t22.5 -84.5z" />
    <glyph glyph-name="Agrave" unicode="&#xc0;" horiz-adv-x="414" 
d="M258 603l22 -60h-11l-51 60h40zM91 54q0 -37 -6 -78t-21 -78.5t-41 -67.5t-65 -43l-4 9q31 11 51.5 33t31.5 49.5t15.5 58.5t4.5 61q0 49 -7 97t-7 97q0 48 12 93q-32 -4 -63.5 -17.5t-55.5 -34.5h-13q32 26 63 40.5t72 20.5q28 95 101 145.5t170 50.5h61
q-18 -6 -25 -19.5t-7 -31.5v-388q0 -17 7 -31.5t25 -19.5h-99q18 6 25.5 19.5t7.5 31.5v92q0 11 -4 19q-15 32 -40.5 55t-57 38.5t-66.5 23t-68 7.5q-4 -19 -5 -37.5t-1 -37.5q0 -39 4.5 -78t4.5 -79zM89 297q33 0 68 -8t66.5 -23.5t58 -38.5t42.5 -54v266q0 5 -1 12
t-3.5 13.5t-7 11t-12.5 4.5q-40 0 -75 -14.5t-62.5 -39t-46 -58t-27.5 -71.5z" />
    <glyph glyph-name="Aacute" unicode="&#xc1;" horiz-adv-x="414" 
d="M329 603l-49 -60h-10l20 60h39zM91 54q0 -37 -6 -78t-21 -78.5t-41 -67.5t-65 -43l-4 9q31 11 51.5 33t31.5 49.5t15.5 58.5t4.5 61q0 49 -7 97t-7 97q0 48 12 93q-32 -4 -63.5 -17.5t-55.5 -34.5h-13q32 26 63 40.5t72 20.5q28 95 101 145.5t170 50.5h61
q-18 -6 -25 -19.5t-7 -31.5v-388q0 -17 7 -31.5t25 -19.5h-99q18 6 25.5 19.5t7.5 31.5v92q0 11 -4 19q-15 32 -40.5 55t-57 38.5t-66.5 23t-68 7.5q-4 -19 -5 -37.5t-1 -37.5q0 -39 4.5 -78t4.5 -79zM89 297q33 0 68 -8t66.5 -23.5t58 -38.5t42.5 -54v266q0 5 -1 12
t-3.5 13.5t-7 11t-12.5 4.5q-40 0 -75 -14.5t-62.5 -39t-46 -58t-27.5 -71.5z" />
    <glyph glyph-name="Acircumflex" unicode="&#xc2;" horiz-adv-x="414" 
d="M251 583l-45 -40h-11l43 56h25l44 -56h-10zM91 54q0 -37 -6 -78t-21 -78.5t-41 -67.5t-65 -43l-4 9q31 11 51.5 33t31.5 49.5t15.5 58.5t4.5 61q0 49 -7 97t-7 97q0 48 12 93q-32 -4 -63.5 -17.5t-55.5 -34.5h-13q32 26 63 40.5t72 20.5q28 95 101 145.5t170 50.5h61
q-18 -6 -25 -19.5t-7 -31.5v-388q0 -17 7 -31.5t25 -19.5h-99q18 6 25.5 19.5t7.5 31.5v92q0 11 -4 19q-15 32 -40.5 55t-57 38.5t-66.5 23t-68 7.5q-4 -19 -5 -37.5t-1 -37.5q0 -39 4.5 -78t4.5 -79zM89 297q33 0 68 -8t66.5 -23.5t58 -38.5t42.5 -54v266q0 5 -1 12
t-3.5 13.5t-7 11t-12.5 4.5q-40 0 -75 -14.5t-62.5 -39t-46 -58t-27.5 -71.5z" />
    <glyph glyph-name="Atilde" unicode="&#xc3;" horiz-adv-x="414" 
d="M323 560q-6 -12 -18.5 -18t-25.5 -6q-14 0 -26 5t-26 5q-16 0 -30 -8q8 11 20 17t26 6t25.5 -4.5t24.5 -4.5q8 0 15.5 2.5t14.5 5.5zM91 54q0 -37 -6 -78t-21 -78.5t-41 -67.5t-65 -43l-4 9q31 11 51.5 33t31.5 49.5t15.5 58.5t4.5 61q0 49 -7 97t-7 97q0 48 12 93
q-32 -4 -63.5 -17.5t-55.5 -34.5h-13q32 26 63 40.5t72 20.5q28 95 101 145.5t170 50.5h61q-18 -6 -25 -19.5t-7 -31.5v-388q0 -17 7 -31.5t25 -19.5h-99q18 6 25.5 19.5t7.5 31.5v92q0 11 -4 19q-15 32 -40.5 55t-57 38.5t-66.5 23t-68 7.5q-4 -19 -5 -37.5t-1 -37.5
q0 -39 4.5 -78t4.5 -79zM89 297q33 0 68 -8t66.5 -23.5t58 -38.5t42.5 -54v266q0 5 -1 12t-3.5 13.5t-7 11t-12.5 4.5q-40 0 -75 -14.5t-62.5 -39t-46 -58t-27.5 -71.5z" />
    <glyph glyph-name="Adieresis" unicode="&#xc4;" horiz-adv-x="414" 
d="M319 546q0 -18 -18 -18t-18 18t18 18t18 -18zM258 546q0 -18 -19 -18q-18 0 -18 18t18 18q19 0 19 -18zM91 54q0 -37 -6 -78t-21 -78.5t-41 -67.5t-65 -43l-4 9q31 11 51.5 33t31.5 49.5t15.5 58.5t4.5 61q0 49 -7 97t-7 97q0 48 12 93q-32 -4 -63.5 -17.5t-55.5 -34.5
h-13q32 26 63 40.5t72 20.5q28 95 101 145.5t170 50.5h61q-18 -6 -25 -19.5t-7 -31.5v-388q0 -17 7 -31.5t25 -19.5h-99q18 6 25.5 19.5t7.5 31.5v92q0 11 -4 19q-15 32 -40.5 55t-57 38.5t-66.5 23t-68 7.5q-4 -19 -5 -37.5t-1 -37.5q0 -39 4.5 -78t4.5 -79zM89 297
q33 0 68 -8t66.5 -23.5t58 -38.5t42.5 -54v266q0 5 -1 12t-3.5 13.5t-7 11t-12.5 4.5q-40 0 -75 -14.5t-62.5 -39t-46 -58t-27.5 -71.5z" />
    <glyph glyph-name="Aring" unicode="&#xc5;" horiz-adv-x="414" 
d="M292 549q0 -13 -8 -22t-22 -9t-22 9t-8 22t8.5 22t21.5 9t21.5 -9t8.5 -22zM246 549q0 -7 3.5 -16.5t12.5 -9.5q8 0 11.5 10t3.5 16t-3.5 16t-11.5 10q-9 0 -12.5 -9.5t-3.5 -16.5zM91 54q0 -37 -6 -78t-21 -78.5t-41 -67.5t-65 -43l-4 9q31 11 51.5 33t31.5 49.5
t15.5 58.5t4.5 61q0 49 -7 97t-7 97q0 48 12 93q-32 -4 -63.5 -17.5t-55.5 -34.5h-13q32 26 63 40.5t72 20.5q28 95 101 145.5t170 50.5h61q-18 -6 -25 -19.5t-7 -31.5v-388q0 -17 7 -31.5t25 -19.5h-99q18 6 25.5 19.5t7.5 31.5v92q0 11 -4 19q-15 32 -40.5 55t-57 38.5
t-66.5 23t-68 7.5q-4 -19 -5 -37.5t-1 -37.5q0 -39 4.5 -78t4.5 -79zM89 297q33 0 68 -8t66.5 -23.5t58 -38.5t42.5 -54v266q0 5 -1 12t-3.5 13.5t-7 11t-12.5 4.5q-40 0 -75 -14.5t-62.5 -39t-46 -58t-27.5 -71.5z" />
    <glyph glyph-name="AE" unicode="&#xc6;" horiz-adv-x="785" 
d="M91 54q0 -37 -6 -78t-21 -78.5t-41 -67.5t-65 -43l-4 9q31 11 51.5 33t31.5 49.5t15.5 58.5t4.5 61q0 49 -7 97t-7 97q0 48 12 93q-32 -4 -63.5 -17.5t-55.5 -34.5h-13q32 26 63 40.5t72 20.5q28 95 101 145.5t170 50.5h251l18 -72q-17 30 -38 47t-58 17h-128
q-10 -8 -13 -19.5t-3 -23.5v-186h103q18 0 32 6.5t19 26.5v-72q-5 19 -19.5 25t-31.5 6h-103v-194q0 -11 3 -22t12 -19q48 -2 94.5 -13.5t91.5 -28t89.5 -35t87.5 -34.5t85.5 -26.5t84.5 -10.5q31 0 54.5 2.5t44.5 9t42 17.5t46 28l3 -6q-53 -37 -103 -56.5t-115 -19.5
q-44 0 -86 12t-83 30t-81.5 39.5t-82.5 39.5t-85.5 30t-90.5 12h-78q18 5 25.5 19t7.5 32v92q0 11 -4 19q-15 32 -40.5 55.5t-57 38.5t-66.5 22.5t-68 7.5q-4 -19 -5 -37.5t-1 -37.5q0 -39 4.5 -78t4.5 -79zM89 297q33 0 68 -8t66.5 -23.5t58 -38.5t42.5 -54v275q0 10 -6 21
t-18 11q-40 0 -75 -14.5t-62.5 -39t-46 -58t-27.5 -71.5z" />
    <glyph glyph-name="Ccedilla" unicode="&#xc7;" horiz-adv-x="327" 
d="M284 -113q0 -17 -13 -25t-27 -8q-16 0 -29 7q17 0 32 9t15 29q0 6 -3 12t-10 8v21q-55 24 -96.5 61t-69.5 83.5t-42 101t-14 112.5q0 63 20.5 117t58 94t90 62.5t116.5 22.5q17 0 32.5 -3t31.5 -3q28 0 35 24l20 -97q-14 34 -49 52.5t-70 18.5q-62 0 -107.5 -24
t-75.5 -64t-45 -92t-15 -108q0 -86 26 -157.5t74.5 -122.5t118.5 -79.5t157 -28.5q50 0 98.5 7.5t97 16.5t97.5 16.5t99 7.5q63 0 121 -24t103 -66l-3 -4q-49 42 -103.5 55t-117.5 13q-47 0 -94 -5t-94.5 -10.5t-94.5 -10.5t-94 -5q-51 0 -102 8t-99 27v-11q10 -6 17.5 -16
t7.5 -22z" />
    <glyph glyph-name="Egrave" unicode="&#xc8;" horiz-adv-x="371" 
d="M171 594l22 -61h-12l-50 61h40zM839 -87q-53 -37 -103 -56.5t-115 -19.5q-44 0 -86 12t-83 30t-81.5 39.5t-82.5 39.5t-85.5 30t-90.5 12h-78q18 5 25.5 19t7.5 32v388q0 18 -7.5 32t-25.5 19h289l18 -72q-17 30 -38 47t-58 17h-144v-229h103q18 0 32.5 6.5t18.5 26.5
v-72q-5 19 -19.5 25t-31.5 6h-103v-235q75 0 145.5 -23t138.5 -51t133.5 -51t130.5 -23q31 0 54.5 2.5t44.5 9t42 17.5t46 28z" />
    <glyph glyph-name="Eacute" unicode="&#xc9;" horiz-adv-x="371" 
d="M223 594l-49 -61h-10l20 61h39zM839 -87q-53 -37 -103 -56.5t-115 -19.5q-44 0 -86 12t-83 30t-81.5 39.5t-82.5 39.5t-85.5 30t-90.5 12h-78q18 5 25.5 19t7.5 32v388q0 18 -7.5 32t-25.5 19h289l18 -72q-17 30 -38 47t-58 17h-144v-229h103q18 0 32.5 6.5t18.5 26.5
v-72q-5 19 -19.5 25t-31.5 6h-103v-235q75 0 145.5 -23t138.5 -51t133.5 -51t130.5 -23q31 0 54.5 2.5t44.5 9t42 17.5t46 28z" />
    <glyph glyph-name="Ecircumflex" unicode="&#xca;" horiz-adv-x="371" 
d="M181 572l-45 -41h-11l43 56h25l44 -56h-10zM839 -87q-53 -37 -103 -56.5t-115 -19.5q-44 0 -86 12t-83 30t-81.5 39.5t-82.5 39.5t-85.5 30t-90.5 12h-78q18 5 25.5 19t7.5 32v388q0 18 -7.5 32t-25.5 19h289l18 -72q-17 30 -38 47t-58 17h-144v-229h103q18 0 32.5 6.5
t18.5 26.5v-72q-5 19 -19.5 25t-31.5 6h-103v-235q75 0 145.5 -23t138.5 -51t133.5 -51t130.5 -23q31 0 54.5 2.5t44.5 9t42 17.5t46 28z" />
    <glyph glyph-name="Edieresis" unicode="&#xcb;" horiz-adv-x="371" 
d="M227 551q0 -8 -5 -13.5t-13 -5.5t-13 5.5t-5 13.5q0 7 5.5 12t12.5 5t12.5 -4.5t5.5 -12.5zM169 551q0 -7 -4.5 -13t-12.5 -6q-19 0 -19 19q0 8 6 12.5t13 4.5t12 -5t5 -12zM839 -87q-53 -37 -103 -56.5t-115 -19.5q-44 0 -86 12t-83 30t-81.5 39.5t-82.5 39.5t-85.5 30
t-90.5 12h-78q18 5 25.5 19t7.5 32v388q0 18 -7.5 32t-25.5 19h289l18 -72q-17 30 -38 47t-58 17h-144v-229h103q18 0 32.5 6.5t18.5 26.5v-72q-5 19 -19.5 25t-31.5 6h-103v-235q75 0 145.5 -23t138.5 -51t133.5 -51t130.5 -23q31 0 54.5 2.5t44.5 9t42 17.5t46 28z" />
    <glyph glyph-name="Igrave" unicode="&#xcc;" horiz-adv-x="167" 
d="M79 594l22 -61h-11l-51 61h40zM101 51q0 -18 6.5 -31.5t24.5 -19.5h-97q18 6 25 19t7 32v388q0 19 -7 32t-25 19h97q-18 -6 -24.5 -19.5t-6.5 -31.5v-388z" />
    <glyph glyph-name="Iacute" unicode="&#xcd;" horiz-adv-x="167" 
d="M143 594l-49 -61h-11l21 61h39zM101 51q0 -18 6.5 -31.5t24.5 -19.5h-97q18 6 25 19t7 32v388q0 19 -7 32t-25 19h97q-18 -6 -24.5 -19.5t-6.5 -31.5v-388z" />
    <glyph glyph-name="Icircumflex" unicode="&#xce;" horiz-adv-x="167" 
d="M85 564l-45 -41h-11l43 56h25l44 -56h-10zM101 51q0 -18 6.5 -31.5t24.5 -19.5h-97q18 6 25 19t7 32v388q0 19 -7 32t-25 19h97q-18 -6 -24.5 -19.5t-6.5 -31.5v-388z" />
    <glyph glyph-name="Idieresis" unicode="&#xcf;" horiz-adv-x="167" 
d="M78 550q0 -18 -18 -18t-18 18t18 18t18 -18zM130 550q0 -18 -18 -18t-18 18t18 18t18 -18zM101 51q0 -18 6.5 -31.5t24.5 -19.5h-97q18 6 25 19t7 32v388q0 19 -7 32t-25 19h97q-18 -6 -24.5 -19.5t-6.5 -31.5v-388z" />
    <glyph glyph-name="Eth" unicode="&#xd0;" horiz-adv-x="490" 
d="M455 245q0 -51 -19.5 -95.5t-52.5 -77.5t-77.5 -52.5t-95.5 -19.5h-175q18 5 25 19.5t7 31.5v180h-67v17h67v190q0 17 -7 32t-25 20h167q50 0 96 -19t81 -52.5t55.5 -78t20.5 -95.5zM101 9h68q53 0 98 16.5t77.5 47t51 74.5t18.5 98t-18.5 98t-51 75t-77.5 47.5t-98 16.5
h-68v-234h72v-17h-72v-222z" />
    <glyph glyph-name="Ntilde" unicode="&#xd1;" horiz-adv-x="491" 
d="M755 -203q-23 -4 -50 -4q-75 0 -137 36t-115.5 94t-100 130.5t-90.5 146t-87 140t-89 111.5v-401q0 -20 13.5 -32.5t30.5 -17.5h-93q17 5 29.5 17.5t12.5 32.5v407q-42 43 -98.5 68.5t-117.5 25.5q-46 0 -89 -12l-3 10q48 12 98 12q65 0 122 -25t106.5 -67t92.5 -96
t80 -112t69.5 -115t60.5 -105v399q0 20 -12 32.5t-30 17.5h95q-17 -5 -30.5 -17.5t-13.5 -32.5v-412q25 -39 54 -79.5t64.5 -72.5t78.5 -52.5t94 -20.5h27t27 3zM309 548q-6 -12 -19 -18t-26 -6q-14 0 -26 5t-26 5q-8 0 -15.5 -2.5t-14.5 -5.5q8 11 20 17.5t26 6.5t26 -4
t25 -4q8 0 15 2t15 4z" />
    <glyph glyph-name="Ograve" unicode="&#xd2;" horiz-adv-x="565" 
d="M266 594l22 -61h-11l-51 61h40zM530 245q0 -51 -19.5 -96t-53 -78.5t-78.5 -53t-96 -19.5t-96 19.5t-78.5 53t-53 78.5t-19.5 96t19.5 96t53 78.5t78.5 53t96 19.5t96 -19.5t78.5 -53t53 -78.5t19.5 -96zM77 257q0 -45 16 -90t45 -81.5t69 -59t89 -22.5q46 0 82 20.5
t61 53t38 73.5t13 83q0 45 -16 89.5t-44.5 80.5t-69 58t-88.5 22q-45 0 -81.5 -20t-61.5 -52t-38.5 -72.5t-13.5 -82.5z" />
    <glyph glyph-name="Oacute" unicode="&#xd3;" horiz-adv-x="565" 
d="M333 594l-49 -61h-11l20 61h40zM530 245q0 -51 -19.5 -96t-53 -78.5t-78.5 -53t-96 -19.5t-96 19.5t-78.5 53t-53 78.5t-19.5 96t19.5 96t53 78.5t78.5 53t96 19.5t96 -19.5t78.5 -53t53 -78.5t19.5 -96zM77 257q0 -45 16 -90t45 -81.5t69 -59t89 -22.5q46 0 82 20.5
t61 53t38 73.5t13 83q0 45 -16 89.5t-44.5 80.5t-69 58t-88.5 22q-45 0 -81.5 -20t-61.5 -52t-38.5 -72.5t-13.5 -82.5z" />
    <glyph glyph-name="Ocircumflex" unicode="&#xd4;" horiz-adv-x="565" 
d="M284 572l-45 -41h-12l44 56h24l45 -56h-10zM530 245q0 -51 -19.5 -96t-53 -78.5t-78.5 -53t-96 -19.5t-96 19.5t-78.5 53t-53 78.5t-19.5 96t19.5 96t53 78.5t78.5 53t96 19.5t96 -19.5t78.5 -53t53 -78.5t19.5 -96zM77 257q0 -45 16 -90t45 -81.5t69.5 -59t88.5 -22.5
q45 0 81 20t61 52.5t38.5 73.5t13.5 83q0 45 -16 90t-44.5 81t-68.5 58t-89 22q-45 0 -81 -20t-61.5 -52t-39 -72.5t-13.5 -82.5z" />
    <glyph glyph-name="Otilde" unicode="&#xd5;" horiz-adv-x="565" 
d="M347 548q-6 -12 -19 -18t-26 -6q-14 0 -26 5t-26 5q-16 0 -30 -8q8 11 20 17.5t26 6.5t25.5 -4t24.5 -4q16 0 31 6zM530 245q0 -51 -19.5 -96t-53 -78.5t-78.5 -53t-96 -19.5t-96 19.5t-78.5 53t-53 78.5t-19.5 96t19.5 96t53 78.5t78.5 53t96 19.5t96 -19.5t78.5 -53
t53 -78.5t19.5 -96zM77 257q0 -45 16 -90t45 -81.5t69 -59t89 -22.5q46 0 82 20.5t61 53t38 73.5t13 83q0 45 -16 89.5t-44.5 80.5t-69 58t-88.5 22q-45 0 -81.5 -20t-61.5 -52t-38.5 -72.5t-13.5 -82.5z" />
    <glyph glyph-name="Odieresis" unicode="&#xd6;" horiz-adv-x="565" 
d="M260 550q0 -18 -19 -18q-18 0 -18 18t18 18q19 0 19 -18zM336 550q0 -18 -18 -18t-18 18t18 18t18 -18zM530 245q0 -51 -19.5 -96t-53 -78.5t-78.5 -53t-96 -19.5t-96 19.5t-78.5 53t-53 78.5t-19.5 96t19.5 96t53 78.5t78.5 53t96 19.5t96 -19.5t78.5 -53t53 -78.5
t19.5 -96zM77 257q0 -45 16 -90t45 -81.5t69 -59t89 -22.5q46 0 82 20.5t61 53t38 73.5t13 83q0 45 -16 89.5t-44.5 80.5t-69 58t-88.5 22q-45 0 -81.5 -20t-61.5 -52t-38.5 -72.5t-13.5 -82.5z" />
    <glyph glyph-name="multiply" unicode="&#xd7;" horiz-adv-x="279" 
d="M142 232l-76 -126h-31l91 152l-91 151h31l76 -126l75 126h31l-90 -151l90 -152h-31z" />
    <glyph glyph-name="Oslash" unicode="&#xd8;" horiz-adv-x="583" 
d="M283 -2q-35 0 -68.5 9.5t-62.5 28.5l-56 -84h-20l62 93q-48 35 -75 87.5t-27 112.5q0 51 19.5 96t53 78.5t78.5 53t96 19.5q34 0 67 -9t62 -27l57 85h20l-63 -94q49 -35 76.5 -88.5t27.5 -113.5q0 -51 -19.5 -96t-53 -78.5t-78.5 -53t-96 -19.5zM77 257q0 -53 19.5 -102
t56.5 -87l246 367q-26 23 -58.5 36.5t-67.5 13.5q-45 0 -81.5 -20t-62 -52.5t-39 -73.5t-13.5 -82zM165 57q27 -24 60.5 -38.5t70.5 -14.5q46 0 82 20.5t61 53t38 73.5t13 83q0 53 -20.5 103.5t-58.5 86.5z" />
    <glyph glyph-name="Ugrave" unicode="&#xd9;" horiz-adv-x="470" 
d="M244 594l22 -61h-11l-51 61h40zM440 490q-19 -6 -32 -18t-13 -33v-272q0 -78 -36.5 -125t-119.5 -47q-85 0 -128.5 44.5t-43.5 127.5v272q0 18 -7 31.5t-25 19.5h97q-18 -6 -24.5 -19.5t-6.5 -31.5v-271q0 -33 8.5 -62t26 -50.5t43.5 -34t61 -12.5q77 0 112 42.5
t35 116.5v272q0 21 -13.5 32.5t-31.5 17.5h98z" />
    <glyph glyph-name="Uacute" unicode="&#xda;" horiz-adv-x="470" 
d="M295 594l-49 -61h-10l20 61h39zM440 490q-19 -6 -32 -18t-13 -33v-272q0 -78 -36.5 -125t-119.5 -47q-85 0 -128.5 44.5t-43.5 127.5v272q0 18 -7 31.5t-25 19.5h97q-18 -6 -24.5 -19.5t-6.5 -31.5v-271q0 -33 8.5 -62t26 -50.5t43.5 -34t61 -12.5q77 0 112 42.5
t35 116.5v272q0 21 -13.5 32.5t-31.5 17.5h98z" />
    <glyph glyph-name="Ucircumflex" unicode="&#xdb;" horiz-adv-x="470" 
d="M241 572l-45 -41h-11l43 56h25l44 -56h-10zM440 490q-19 -6 -32 -18t-13 -33v-272q0 -78 -36.5 -125t-119.5 -47q-85 0 -128.5 44.5t-43.5 127.5v272q0 18 -7 31.5t-25 19.5h97q-18 -6 -24.5 -19.5t-6.5 -31.5v-271q0 -33 8.5 -62t26 -50.5t43.5 -34t61 -12.5
q77 0 112 42.5t35 116.5v272q0 21 -13.5 32.5t-31.5 17.5h98z" />
    <glyph glyph-name="Udieresis" unicode="&#xdc;" horiz-adv-x="470" 
d="M308 550q0 -18 -18 -18t-18 18t18 18t18 -18zM221 550q0 -18 -19 -18q-18 0 -18 18t18 18q19 0 19 -18zM440 490q-19 -6 -32 -18t-13 -33v-272q0 -78 -36.5 -125t-119.5 -47q-85 0 -128.5 44.5t-43.5 127.5v272q0 18 -7 31.5t-25 19.5h97q-18 -6 -24.5 -19.5t-6.5 -31.5
v-271q0 -33 8.5 -62t26 -50.5t43.5 -34t61 -12.5q77 0 112 42.5t35 116.5v272q0 21 -13.5 32.5t-31.5 17.5h98z" />
    <glyph glyph-name="Yacute" unicode="&#xdd;" horiz-adv-x="447" 
d="M238 50q0 -17 7 -31t24 -19h-97q18 5 24.5 19.5t6.5 31.5v162l-114 222q-8 16 -22 32.5t-31 22.5h97q-15 -7 -15 -26q0 -7 7.5 -25t19 -41.5t25 -49.5t26.5 -50.5t23.5 -43.5t15.5 -28q32 31 52 72.5t37.5 86t36.5 87.5t47.5 77.5t71.5 55.5t108 21v-8q-45 0 -80 -22
t-63.5 -57.5t-52.5 -80t-47.5 -89t-49.5 -84.5t-57 -68v-167zM295 594l-49 -61h-10l20 61h39z" />
    <glyph glyph-name="Thorn" unicode="&#xde;" horiz-adv-x="604" 
d="M554 382q0 -110 -73.5 -168.5t-212.5 -58.5h-81v-155h-90v714h90v-124h96q137 0 204 -51.5t67 -156.5zM187 231h72q108 0 155 34.5t47 111.5q0 70 -44.5 103t-140.5 33h-89v-282z" />
    <glyph glyph-name="germandbls" unicode="&#xdf;" horiz-adv-x="442" 
d="M101 64q0 -20 7 -38.5t29 -25.5h-107q22 7 29.5 25.5t7.5 38.5v298q0 60 34 99.5t97 39.5q23 0 46 -4.5t41.5 -16t30 -29.5t11.5 -45q0 -31 -13.5 -52t-30 -38t-30 -32t-13.5 -35q0 -12 11.5 -19.5t29.5 -14t38 -14t38 -19t29.5 -29t11.5 -44.5q0 -25 -10 -45.5
t-26.5 -34.5t-38.5 -21.5t-46 -7.5q-15 0 -29.5 2.5t-28.5 5.5q21 0 45 6.5t44 18.5t33.5 30.5t13.5 43.5q0 31 -19.5 49.5t-43 33t-43 29t-19.5 36.5q0 20 9.5 33t21 26.5t21 31.5t9.5 47q0 18 -8.5 36t-22 32.5t-31 23t-36.5 8.5q-16 0 -32.5 -6t-29.5 -16.5t-21.5 -25.5
t-8.5 -32v-349z" />
    <glyph glyph-name="agrave" unicode="&#xe0;" horiz-adv-x="492" 
d="M235 594l22 -61h-11l-51 61h40zM147 197q-4 -11 -13 -32t-18 -44t-15.5 -44t-6.5 -33q0 -19 11 -29t28 -15h-97q16 6 28 20t18 30l169 446l163 -444q6 -16 16 -31t27 -21h-102q11 4 18.5 15t7.5 23q0 7 -7.5 29.5t-17 48t-18.5 49t-12 32.5h-179zM149 204h172l-85 231z
" />
    <glyph glyph-name="aacute" unicode="&#xe1;" horiz-adv-x="492" 
d="M309 594l-49 -61h-11l21 61h39zM147 197q-4 -11 -13 -32t-18 -44t-15.5 -44t-6.5 -33q0 -19 11 -29t28 -15h-97q16 6 28 20t18 30l169 446l163 -444q6 -16 16 -31t27 -21h-102q11 4 18.5 15t7.5 23q0 7 -7.5 29.5t-17 48t-18.5 49t-12 32.5h-179zM149 204h172l-85 231z
" />
    <glyph glyph-name="acircumflex" unicode="&#xe2;" horiz-adv-x="492" 
d="M251 557l-45 -41h-11l43 56h25l44 -56h-10zM147 197q-4 -11 -13 -32t-18 -44t-15.5 -44t-6.5 -33q0 -19 11 -29t28 -15h-97q16 6 28 20t18 30l169 446l163 -444q6 -16 16 -31t27 -21h-102q11 4 18.5 15t7.5 23q0 7 -7.5 29.5t-17 48t-18.5 49t-12 32.5h-179zM149 204h172
l-85 231z" />
    <glyph glyph-name="atilde" unicode="&#xe3;" horiz-adv-x="492" 
d="M309 548q-6 -12 -19 -18t-26 -6q-14 0 -26 5t-26 5q-8 0 -15.5 -2.5t-14.5 -5.5q8 11 20 17.5t26 6.5t26 -4t25 -4q8 0 15 2t15 4zM147 197q-4 -11 -13 -32t-18 -44t-15.5 -44t-6.5 -33q0 -19 11 -29t28 -15h-97q16 6 28 20t18 30l169 446l163 -444q6 -16 16 -31t27 -21
h-102q11 4 18.5 15t7.5 23q0 7 -7.5 29.5t-17 48t-18.5 49t-12 32.5h-179zM149 204h172l-85 231z" />
    <glyph glyph-name="adieresis" unicode="&#xe4;" horiz-adv-x="492" 
d="M293 540q0 -8 -5.5 -13t-13.5 -5t-12.5 5.5t-4.5 12.5t4.5 12.5t12.5 5.5t13.5 -5t5.5 -13zM235 540q0 -7 -4.5 -12.5t-12.5 -5.5t-13.5 5t-5.5 13t5.5 13t13.5 5t12.5 -5.5t4.5 -12.5zM147 197q-4 -11 -13 -32t-18 -44t-15.5 -44t-6.5 -33q0 -19 11 -29t28 -15h-97
q16 6 28 20t18 30l169 446l163 -444q6 -16 16 -31t27 -21h-102q11 4 18.5 15t7.5 23q0 7 -7.5 29.5t-17 48t-18.5 49t-12 32.5h-179zM149 204h172l-85 231z" />
    <glyph glyph-name="aring" unicode="&#xe5;" horiz-adv-x="492" 
d="M276 549q0 -13 -8 -22t-22 -9t-22 9t-8 22t8.5 22t21.5 9t21.5 -9t8.5 -22zM230 549q0 -7 3.5 -16.5t12.5 -9.5q8 0 11.5 10t3.5 16t-3.5 16t-11.5 10q-9 0 -12.5 -9.5t-3.5 -16.5zM147 197q-4 -11 -13 -32t-18 -44t-15.5 -44t-6.5 -33q0 -19 11 -29t28 -15h-97
q16 6 28 20t18 30l169 446l163 -444q6 -16 16 -31t27 -21h-102q11 4 18.5 15t7.5 23q0 7 -7.5 29.5t-17 48t-18.5 49t-12 32.5h-179zM149 204h172l-85 231z" />
    <glyph glyph-name="ae" unicode="&#xe6;" horiz-adv-x="868" 
d="M294 72q-5 -8 -8 -16.5t-3 -17.5q0 -15 10 -24t23 -14h-97q16 6 29.5 21t21.5 29l244 408q-2 13 -10 20t-20 12h288l18 -72q-15 29 -38 46.5t-58 17.5h-144v-229h103q18 0 32 6.5t19 25.5v-71q-5 18 -19.5 24.5t-31.5 6.5h-103v-237h144q35 0 58 17.5t38 46.5l-18 -72
h-288q18 6 25 19t7 32v194h-119zM401 253h115v193z" />
    <glyph glyph-name="ccedilla" unicode="&#xe7;" horiz-adv-x="498" 
d="M288 -55q0 -17 -12.5 -25t-27.5 -8q-13 0 -29 7q7 0 16 2t16.5 6t12.5 10.5t5 15.5q0 8 -5 14t-11 10v23q-46 5 -86 26.5t-69.5 54.5t-46 75t-16.5 89q0 51 19.5 96t53 78.5t78.5 53t96 19.5q20 0 41.5 -2.5t43 -8t41 -14.5t34.5 -22v-60q-29 42 -73.5 70t-96.5 28
q-45 0 -81.5 -19.5t-62 -52t-39 -73t-13.5 -82.5q0 -45 15.5 -89.5t44 -80t68.5 -57.5t88 -22q24 0 47.5 8.5t45 22t40 31t31.5 35.5l7 -33q-17 -14 -39 -27.5t-46 -23.5t-48.5 -16t-47.5 -6q-5 0 -9.5 0.5t-9.5 0.5v-16q11 -6 18 -16t7 -22z" />
    <glyph glyph-name="egrave" unicode="&#xe8;" horiz-adv-x="376" 
d="M171 594l22 -61h-12l-50 61h40zM245 8q35 0 58 17.5t38 46.5l-18 -72h-288q18 6 25 19t7 32v388q0 19 -7 32t-25 19h288l18 -72q-15 29 -38 46.5t-58 17.5h-144v-229h103q18 0 32 6.5t19 25.5v-71q-5 18 -19.5 24.5t-31.5 6.5h-103v-237h144z" />
    <glyph glyph-name="eacute" unicode="&#xe9;" horiz-adv-x="376" 
d="M223 594l-49 -61h-10l20 61h39zM245 8q35 0 58 17.5t38 46.5l-18 -72h-288q18 6 25 19t7 32v388q0 19 -7 32t-25 19h288l18 -72q-15 29 -38 46.5t-58 17.5h-144v-229h103q18 0 32 6.5t19 25.5v-71q-5 18 -19.5 24.5t-31.5 6.5h-103v-237h144z" />
    <glyph glyph-name="ecircumflex" unicode="&#xea;" horiz-adv-x="376" 
d="M181 572l-45 -41h-11l43 56h25l44 -56h-10zM245 8q35 0 58 17.5t38 46.5l-18 -72h-288q18 6 25 19t7 32v388q0 19 -7 32t-25 19h288l18 -72q-15 29 -38 46.5t-58 17.5h-144v-229h103q18 0 32 6.5t19 25.5v-71q-5 18 -19.5 24.5t-31.5 6.5h-103v-237h144z" />
    <glyph glyph-name="edieresis" unicode="&#xeb;" horiz-adv-x="376" 
d="M227 551q0 -8 -5 -13.5t-13 -5.5t-13 5.5t-5 13.5q0 7 5.5 12t12.5 5t12.5 -4.5t5.5 -12.5zM169 551q0 -7 -4.5 -13t-12.5 -6q-19 0 -19 19q0 8 6 12.5t13 4.5t12 -5t5 -12zM245 8q35 0 58 17.5t38 46.5l-18 -72h-288q18 6 25 19t7 32v388q0 19 -7 32t-25 19h288l18 -72
q-15 29 -38 46.5t-58 17.5h-144v-229h103q18 0 32 6.5t19 25.5v-71q-5 18 -19.5 24.5t-31.5 6.5h-103v-237h144z" />
    <glyph glyph-name="igrave" unicode="&#xec;" horiz-adv-x="167" 
d="M79 594l22 -61h-11l-51 61h40zM101 51q0 -18 6.5 -31.5t24.5 -19.5h-97q18 6 25 19t7 32v388q0 19 -7 32t-25 19h97q-18 -6 -24.5 -19.5t-6.5 -31.5v-388z" />
    <glyph glyph-name="iacute" unicode="&#xed;" horiz-adv-x="167" 
d="M143 594l-49 -61h-11l21 61h39zM101 51q0 -18 6.5 -31.5t24.5 -19.5h-97q18 6 25 19t7 32v388q0 19 -7 32t-25 19h97q-18 -6 -24.5 -19.5t-6.5 -31.5v-388z" />
    <glyph glyph-name="icircumflex" unicode="&#xee;" horiz-adv-x="167" 
d="M85 564l-45 -41h-11l43 56h25l44 -56h-10zM101 51q0 -18 6.5 -31.5t24.5 -19.5h-97q18 6 25 19t7 32v388q0 19 -7 32t-25 19h97q-18 -6 -24.5 -19.5t-6.5 -31.5v-388z" />
    <glyph glyph-name="idieresis" unicode="&#xef;" horiz-adv-x="167" 
d="M78 550q0 -18 -18 -18t-18 18t18 18t18 -18zM130 550q0 -18 -18 -18t-18 18t18 18t18 -18zM101 51q0 -18 6.5 -31.5t24.5 -19.5h-97q18 6 25 19t7 32v388q0 19 -7 32t-25 19h97q-18 -6 -24.5 -19.5t-6.5 -31.5v-388z" />
    <glyph glyph-name="eth" unicode="&#xf0;" horiz-adv-x="490" 
d="M455 245q0 -51 -19.5 -95.5t-52.5 -77.5t-77.5 -52.5t-95.5 -19.5h-175q18 5 25 19.5t7 31.5v180h-67v17h67v190q0 17 -7 32t-25 20h167q50 0 96 -19t81 -52.5t55.5 -78t20.5 -95.5zM101 9h68q53 0 98 16.5t77.5 47t51 74.5t18.5 98t-18.5 98t-51 75t-77.5 47.5t-98 16.5
h-68v-234h72v-17h-72v-222z" />
    <glyph glyph-name="ntilde" unicode="&#xf1;" horiz-adv-x="486" 
d="M309 548q-6 -12 -19 -18t-26 -6q-14 0 -26 5t-26 5q-8 0 -15.5 -2.5t-14.5 -5.5q8 11 20 17.5t26 6.5t26 -4t25 -4q8 0 15 2t15 4zM86 50q0 -20 13.5 -32t30.5 -18h-94q17 6 30 18t13 32v389q0 22 -12 33.5t-31 17.5h77l287 -414v364q0 21 -12.5 32.5t-30.5 17.5h94
q-17 -6 -29.5 -18t-12.5 -32v-440l-323 465v-415z" />
    <glyph glyph-name="ograve" unicode="&#xf2;" horiz-adv-x="565" 
d="M266 594l22 -61h-11l-51 61h40zM530 245q0 -51 -19.5 -96t-53 -78.5t-78.5 -53t-96 -19.5t-96 19.5t-78.5 53t-53 78.5t-19.5 96t19.5 96t53 78.5t78.5 53t96 19.5t96 -19.5t78.5 -53t53 -78.5t19.5 -96zM77 257q0 -45 16 -90t45 -81.5t69 -59t89 -22.5q46 0 82 20.5
t61 53t38 73.5t13 83q0 45 -16 89.5t-44.5 80.5t-69 58t-88.5 22q-45 0 -81.5 -20t-61.5 -52t-38.5 -72.5t-13.5 -82.5z" />
    <glyph glyph-name="oacute" unicode="&#xf3;" horiz-adv-x="565" 
d="M333 594l-49 -61h-11l20 61h40zM530 245q0 -51 -19.5 -96t-53 -78.5t-78.5 -53t-96 -19.5t-96 19.5t-78.5 53t-53 78.5t-19.5 96t19.5 96t53 78.5t78.5 53t96 19.5t96 -19.5t78.5 -53t53 -78.5t19.5 -96zM77 257q0 -45 16 -90t45 -81.5t69 -59t89 -22.5q46 0 82 20.5
t61 53t38 73.5t13 83q0 45 -16 89.5t-44.5 80.5t-69 58t-88.5 22q-45 0 -81.5 -20t-61.5 -52t-38.5 -72.5t-13.5 -82.5z" />
    <glyph glyph-name="ocircumflex" unicode="&#xf4;" horiz-adv-x="565" 
d="M284 572l-45 -41h-12l44 56h24l45 -56h-10zM530 245q0 -51 -19.5 -96t-53 -78.5t-78.5 -53t-96 -19.5t-96 19.5t-78.5 53t-53 78.5t-19.5 96t19.5 96t53 78.5t78.5 53t96 19.5t96 -19.5t78.5 -53t53 -78.5t19.5 -96zM77 257q0 -45 16 -90t45 -81.5t69.5 -59t88.5 -22.5
q45 0 81 20t61 52.5t38.5 73.5t13.5 83q0 45 -16 90t-44.5 81t-68.5 58t-89 22q-45 0 -81 -20t-61.5 -52t-39 -72.5t-13.5 -82.5z" />
    <glyph glyph-name="otilde" unicode="&#xf5;" horiz-adv-x="565" 
d="M347 548q-6 -12 -19 -18t-26 -6q-14 0 -26 5t-26 5q-16 0 -30 -8q8 11 20 17.5t26 6.5t25.5 -4t24.5 -4q16 0 31 6zM530 245q0 -51 -19.5 -96t-53 -78.5t-78.5 -53t-96 -19.5t-96 19.5t-78.5 53t-53 78.5t-19.5 96t19.5 96t53 78.5t78.5 53t96 19.5t96 -19.5t78.5 -53
t53 -78.5t19.5 -96zM77 257q0 -45 16 -90t45 -81.5t69 -59t89 -22.5q46 0 82 20.5t61 53t38 73.5t13 83q0 45 -16 89.5t-44.5 80.5t-69 58t-88.5 22q-45 0 -81.5 -20t-61.5 -52t-38.5 -72.5t-13.5 -82.5z" />
    <glyph glyph-name="odieresis" unicode="&#xf6;" horiz-adv-x="565" 
d="M260 550q0 -18 -19 -18q-18 0 -18 18t18 18q19 0 19 -18zM336 550q0 -18 -18 -18t-18 18t18 18t18 -18zM530 245q0 -51 -19.5 -96t-53 -78.5t-78.5 -53t-96 -19.5t-96 19.5t-78.5 53t-53 78.5t-19.5 96t19.5 96t53 78.5t78.5 53t96 19.5t96 -19.5t78.5 -53t53 -78.5
t19.5 -96zM77 257q0 -45 16 -90t45 -81.5t69 -59t89 -22.5q46 0 82 20.5t61 53t38 73.5t13 83q0 45 -16 89.5t-44.5 80.5t-69 58t-88.5 22q-45 0 -81.5 -20t-61.5 -52t-38.5 -72.5t-13.5 -82.5z" />
    <glyph glyph-name="divide" unicode="&#xf7;" horiz-adv-x="550" 
d="M50 286v73h451v-73h-451zM219 156q0 17 4.5 28.5t12 19t17.5 10.5t22 3q11 0 21.5 -3t18 -10.5t12 -19t4.5 -28.5q0 -16 -4.5 -27.5t-12 -19t-18 -11t-21.5 -3.5q-12 0 -22 3.5t-17.5 11t-12 19t-4.5 27.5zM219 497q0 17 4.5 28.5t12 19t17.5 10.5t22 3q11 0 21.5 -3
t18 -10.5t12 -19t4.5 -28.5q0 -16 -4.5 -27.5t-12 -19t-18 -11t-21.5 -3.5q-12 0 -22 3.5t-17.5 11t-12 19t-4.5 27.5zM221 622z" />
    <glyph glyph-name="oslash" unicode="&#xf8;" horiz-adv-x="565" 
d="M283 -2q-35 0 -68.5 9.5t-62.5 28.5l-56 -84h-20l62 93q-48 35 -75 87.5t-27 112.5q0 51 19.5 96t53 78.5t78.5 53t96 19.5q34 0 67 -9t62 -27l57 85h20l-63 -94q49 -35 76.5 -88.5t27.5 -113.5q0 -51 -19.5 -96t-53 -78.5t-78.5 -53t-96 -19.5zM77 257q0 -53 19.5 -102
t56.5 -87l246 367q-26 23 -58.5 36.5t-67.5 13.5q-45 0 -81.5 -20t-62 -52.5t-39 -73.5t-13.5 -82zM165 57q27 -24 60.5 -38.5t70.5 -14.5q46 0 82 20.5t61 53t38 73.5t13 83q0 53 -20.5 103.5t-58.5 86.5z" />
    <glyph glyph-name="ugrave" unicode="&#xf9;" horiz-adv-x="470" 
d="M244 594l22 -61h-11l-51 61h40zM440 490q-19 -6 -32 -18t-13 -33v-272q0 -78 -36.5 -125t-119.5 -47q-85 0 -128.5 44.5t-43.5 127.5v272q0 18 -7 31.5t-25 19.5h97q-18 -6 -24.5 -19.5t-6.5 -31.5v-271q0 -33 8.5 -62t26 -50.5t43.5 -34t61 -12.5q77 0 112 42.5
t35 116.5v272q0 21 -13.5 32.5t-31.5 17.5h98z" />
    <glyph glyph-name="uacute" unicode="&#xfa;" horiz-adv-x="470" 
d="M295 594l-49 -61h-10l20 61h39zM440 490q-19 -6 -32 -18t-13 -33v-272q0 -78 -36.5 -125t-119.5 -47q-85 0 -128.5 44.5t-43.5 127.5v272q0 18 -7 31.5t-25 19.5h97q-18 -6 -24.5 -19.5t-6.5 -31.5v-271q0 -33 8.5 -62t26 -50.5t43.5 -34t61 -12.5q77 0 112 42.5
t35 116.5v272q0 21 -13.5 32.5t-31.5 17.5h98z" />
    <glyph glyph-name="ucircumflex" unicode="&#xfb;" horiz-adv-x="470" 
d="M241 572l-45 -41h-11l43 56h25l44 -56h-10zM440 490q-19 -6 -32 -18t-13 -33v-272q0 -78 -36.5 -125t-119.5 -47q-85 0 -128.5 44.5t-43.5 127.5v272q0 18 -7 31.5t-25 19.5h97q-18 -6 -24.5 -19.5t-6.5 -31.5v-271q0 -33 8.5 -62t26 -50.5t43.5 -34t61 -12.5
q77 0 112 42.5t35 116.5v272q0 21 -13.5 32.5t-31.5 17.5h98z" />
    <glyph glyph-name="udieresis" unicode="&#xfc;" horiz-adv-x="470" 
d="M304 551q0 -8 -5.5 -13.5t-13.5 -5.5t-13 5.5t-5 13.5q0 7 5.5 12t12.5 5t13 -4.5t6 -12.5zM222 551q0 -8 -5 -13.5t-13 -5.5t-13 5.5t-5 13.5t5.5 12.5t12.5 4.5t12.5 -4.5t5.5 -12.5zM440 490q-19 -6 -32 -18t-13 -33v-272q0 -78 -36.5 -125t-119.5 -47
q-85 0 -128.5 44.5t-43.5 127.5v272q0 18 -7 31.5t-25 19.5h97q-18 -6 -24.5 -19.5t-6.5 -31.5v-271q0 -33 8.5 -62t26 -50.5t43.5 -34t61 -12.5q77 0 112 42.5t35 116.5v272q0 21 -13.5 32.5t-31.5 17.5h98z" />
    <glyph glyph-name="yacute" unicode="&#xfd;" horiz-adv-x="440" 
d="M295 594l-49 -61h-10l20 61h39zM238 50q0 -18 7.5 -31t24.5 -19h-98q18 6 25 19t7 32v163l-116 221q-8 15 -21.5 32t-30.5 23h97q-15 -6 -15 -25q0 -15 8 -29l106 -204l96 185q4 8 6.5 16t2.5 16q0 14 -8 25t-21 16h98q-18 -7 -37 -26.5t-27 -36.5l-104 -202v-175z" />
    <glyph glyph-name="thorn" unicode="&#xfe;" horiz-adv-x="615" 
d="M174 464q33 44 73.5 63t92.5 19q104 0 162 -73t58 -204t-58 -205t-162 -74q-108 0 -167 78h-6q6 -64 6 -84v-224h-88v1000h88v-224q0 -34 -3 -72h4zM325 472q-79 0 -115 -43.5t-37 -140.5v-19q0 -109 36 -157.5t117 -48.5q143 0 143 207q0 102 -35 152t-109 50z" />
    <glyph glyph-name="ydieresis" unicode="&#xff;" horiz-adv-x="440" 
d="M304 551q0 -8 -5.5 -13.5t-13.5 -5.5t-13 5.5t-5 13.5q0 7 5.5 12t12.5 5t13 -4.5t6 -12.5zM222 551q0 -8 -5 -13.5t-13 -5.5t-13 5.5t-5 13.5t5.5 12.5t12.5 4.5t12.5 -4.5t5.5 -12.5zM238 50q0 -18 7.5 -31t24.5 -19h-98q18 6 25 19t7 32v163l-116 221q-8 15 -21.5 32
t-30.5 23h97q-15 -6 -15 -25q0 -15 8 -29l106 -204l96 185q4 8 6.5 16t2.5 16q0 14 -8 25t-21 16h98q-18 -7 -37 -26.5t-27 -36.5l-104 -202v-175z" />
    <glyph glyph-name="Amacron" unicode="&#x100;" horiz-adv-x="414" 
d="M352 560v-17h-183v17h183zM91 54q0 -37 -6 -78t-21 -78.5t-41 -67.5t-65 -43l-4 9q31 11 51.5 33t31.5 49.5t15.5 58.5t4.5 61q0 49 -7 97t-7 97q0 48 12 93q-32 -4 -63.5 -17.5t-55.5 -34.5h-13q32 26 63 40.5t72 20.5q28 95 101 145.5t170 50.5h61q-18 -6 -25 -19.5
t-7 -31.5v-388q0 -17 7 -31.5t25 -19.5h-99q18 6 25.5 19.5t7.5 31.5v92q0 11 -4 19q-15 32 -40.5 55t-57 38.5t-66.5 23t-68 7.5q-4 -19 -5 -37.5t-1 -37.5q0 -39 4.5 -78t4.5 -79zM89 297q33 0 68 -8t66.5 -23.5t58 -38.5t42.5 -54v266q0 5 -1 12t-3.5 13.5t-7 11
t-12.5 4.5q-40 0 -75 -14.5t-62.5 -39t-46 -58t-27.5 -71.5z" />
    <glyph glyph-name="amacron" unicode="&#x101;" horiz-adv-x="492" 
d="M342 560v-17h-183v17h183zM147 197q-4 -11 -13 -32t-18 -44t-15.5 -44t-6.5 -33q0 -19 11 -29t28 -15h-97q16 6 28 20t18 30l169 446l163 -444q6 -16 16 -31t27 -21h-102q11 4 18.5 15t7.5 23q0 7 -7.5 29.5t-17 48t-18.5 49t-12 32.5h-179zM149 204h172l-85 231z" />
    <glyph glyph-name="Abreve" unicode="&#x102;" horiz-adv-x="414" 
d="M359 608q-4 -30 -22.5 -46t-48.5 -16t-50 15.5t-24 46.5q10 -20 30.5 -31t42.5 -11t42.5 10.5t29.5 31.5zM91 54q0 -37 -6 -78t-21 -78.5t-41 -67.5t-65 -43l-4 9q31 11 51.5 33t31.5 49.5t15.5 58.5t4.5 61q0 49 -7 97t-7 97q0 48 12 93q-32 -4 -63.5 -17.5t-55.5 -34.5
h-13q32 26 63 40.5t72 20.5q28 95 101 145.5t170 50.5h61q-18 -6 -25 -19.5t-7 -31.5v-388q0 -17 7 -31.5t25 -19.5h-99q18 6 25.5 19.5t7.5 31.5v92q0 11 -4 19q-15 32 -40.5 55t-57 38.5t-66.5 23t-68 7.5q-4 -19 -5 -37.5t-1 -37.5q0 -39 4.5 -78t4.5 -79zM89 297
q33 0 68 -8t66.5 -23.5t58 -38.5t42.5 -54v266q0 5 -1 12t-3.5 13.5t-7 11t-12.5 4.5q-40 0 -75 -14.5t-62.5 -39t-46 -58t-27.5 -71.5z" />
    <glyph glyph-name="abreve" unicode="&#x103;" horiz-adv-x="492" 
d="M321 608q-4 -30 -22.5 -46t-48.5 -16t-50 15.5t-24 46.5q10 -20 30.5 -31t42.5 -11t42.5 10.5t29.5 31.5zM147 197q-4 -11 -13 -32t-18 -44t-15.5 -44t-6.5 -33q0 -19 11 -29t28 -15h-97q16 6 28 20t18 30l169 446l163 -444q6 -16 16 -31t27 -21h-102q11 4 18.5 15
t7.5 23q0 7 -7.5 29.5t-17 48t-18.5 49t-12 32.5h-179zM149 204h172l-85 231z" />
    <glyph glyph-name="Aogonek" unicode="&#x104;" horiz-adv-x="414" 
d="M91 54q0 -37 -6 -78t-21 -78.5t-41 -67.5t-65 -43l-4 9q31 11 51.5 33t31.5 49.5t15.5 58.5t4.5 61q0 49 -7 97t-7 97q0 48 12 93q-32 -4 -63.5 -17t-55.5 -35h-13q31 25 63.5 40t71.5 21q28 95 101 145.5t170 50.5h61q-18 -5 -25 -19.5t-7 -31.5v-388q0 -17 7.5 -31.5
t24.5 -19.5q-14 -9 -25.5 -21.5t-11.5 -30.5q0 -13 6 -21t15.5 -12.5t21 -6.5t21.5 -2q-8 -5 -17.5 -8.5t-20.5 -3.5q-20 0 -34 13.5t-14 33.5q0 22 16.5 36t33.5 23h-90q18 5 25.5 19.5t7.5 31.5v92q0 11 -4 19q-14 32 -40 55t-57.5 38.5t-66.5 23t-68 7.5q-4 -19 -5 -37.5
t-1 -37.5q0 -39 4.5 -78.5t4.5 -78.5zM89 297q34 0 68.5 -8t66 -23.5t58 -38.5t42.5 -54v266q0 11 -4 26t-20 15q-40 0 -75 -14.5t-62.5 -39t-46 -58t-27.5 -71.5z" />
    <glyph glyph-name="aogonek" unicode="&#x105;" horiz-adv-x="492" 
d="M484 -94q-8 -5 -17.5 -8.5t-20.5 -3.5q-20 0 -34 13.5t-14 33.5q0 22 16.5 36t33.5 23h-93q11 4 18.5 15t7.5 23q0 6 -7.5 28.5t-17 48.5t-18.5 49.5t-12 32.5h-179q-4 -12 -13 -32.5t-18 -43.5t-15.5 -44t-6.5 -33q0 -19 11 -29t28 -15h-97q16 6 28 20t18 30l169 446
l163 -444q6 -16 16 -31t27 -21q-14 -9 -25.5 -21.5t-11.5 -30.5q0 -13 6 -21t15.5 -12.5t21 -6.5t21.5 -2zM149 204h172l-85 231z" />
    <glyph glyph-name="Cacute" unicode="&#x106;" horiz-adv-x="327" 
d="M353 690l-49 -61h-10l20 61h39zM837 -42q63 0 121 -23.5t103 -66.5l-3 -4q-49 42 -103.5 55t-117.5 13q-47 0 -94 -5t-94 -10.5t-94 -10.5t-94 -5q-93 0 -172 25.5t-137.5 76t-91.5 124.5t-33 171q0 63 20.5 117t58 94t90.5 62.5t117 22.5q16 0 31 -2.5t31 -2.5
q13 0 22.5 5t13.5 18l20 -97q-14 33 -48.5 52t-69.5 19q-61 0 -107 -24t-76.5 -64t-45.5 -92t-15 -108q0 -86 26 -157.5t75 -122.5t118.5 -79.5t156.5 -28.5q50 0 98.5 7.5t97 16.5t97.5 16.5t99 7.5z" />
    <glyph glyph-name="cacute" unicode="&#x107;" horiz-adv-x="498" 
d="M323 599l-49 -61h-10l20 61h39zM463 71q-17 -14 -39 -27.5t-46 -23.5t-48.5 -16t-47.5 -6q-51 0 -96 19.5t-78.5 53t-53 78.5t-19.5 96t19.5 96t53 78.5t78.5 53t96 19.5q20 0 41.5 -2.5t43 -8t41 -14.5t34.5 -22v-60q-29 42 -73.5 70t-96.5 28q-46 0 -82.5 -18
t-61 -48.5t-37.5 -70.5t-13 -83q0 -45 13.5 -90.5t40 -82t65.5 -60t89 -23.5q52 0 96 27.5t74 69.5z" />
    <glyph glyph-name="Ccircumflex" unicode="&#x108;" horiz-adv-x="327" 
d="M294 681l-45 -41h-11l43 56h25l44 -56h-10zM837 -42q63 0 121 -23.5t103 -66.5l-3 -4q-49 42 -103.5 55t-117.5 13q-47 0 -94 -5t-94 -10.5t-94 -10.5t-94 -5q-93 0 -172 25.5t-137.5 76t-91.5 124.5t-33 171q0 63 20.5 117t58 94t90.5 62.5t117 22.5q16 0 31 -2.5
t31 -2.5q13 0 22.5 5t13.5 18l20 -97q-14 33 -48.5 52t-69.5 19q-61 0 -107 -24t-76.5 -64t-45.5 -92t-15 -108q0 -86 26 -157.5t75 -122.5t118.5 -79.5t156.5 -28.5q50 0 98.5 7.5t97 16.5t97.5 16.5t99 7.5z" />
    <glyph glyph-name="ccircumflex" unicode="&#x109;" horiz-adv-x="498" 
d="M282 580l-45 -41h-11l43 56h25l44 -56h-10zM463 71q-17 -14 -39 -27.5t-46 -23.5t-48.5 -16t-47.5 -6q-51 0 -96 19.5t-78.5 53t-53 78.5t-19.5 96t19.5 96t53 78.5t78.5 53t96 19.5q20 0 41.5 -2.5t43 -8t41 -14.5t34.5 -22v-60q-29 42 -73.5 70t-96.5 28
q-46 0 -82.5 -18t-61 -48.5t-37.5 -70.5t-13 -83q0 -45 13.5 -90.5t40 -82t65.5 -60t89 -23.5q52 0 96 27.5t74 69.5z" />
    <glyph glyph-name="Cdotaccent" unicode="&#x10a;" horiz-adv-x="327" 
d="M320 669q0 -9 -7 -16t-16 -7q-10 0 -16.5 6.5t-6.5 16.5t6.5 16t16.5 6q9 0 16 -6.5t7 -15.5zM837 -42q63 0 121 -23.5t103 -66.5l-3 -4q-49 42 -103.5 55t-117.5 13q-47 0 -94 -5t-94 -10.5t-94 -10.5t-94 -5q-93 0 -172 25.5t-137.5 76t-91.5 124.5t-33 171
q0 63 20.5 117t58 94t90.5 62.5t117 22.5q16 0 31 -2.5t31 -2.5q13 0 22.5 5t13.5 18l20 -97q-14 33 -48.5 52t-69.5 19q-61 0 -107 -24t-76.5 -64t-45.5 -92t-15 -108q0 -86 26 -157.5t75 -122.5t118.5 -79.5t156.5 -28.5q50 0 98.5 7.5t97 16.5t97.5 16.5t99 7.5z" />
    <glyph glyph-name="cdotaccent" unicode="&#x10b;" horiz-adv-x="498" 
d="M304 563q0 -9 -7 -16t-16 -7q-10 0 -16.5 6.5t-6.5 16.5t6.5 16t16.5 6q9 0 16 -6.5t7 -15.5zM463 71q-17 -14 -39 -27.5t-46 -23.5t-48.5 -16t-47.5 -6q-51 0 -96 19.5t-78.5 53t-53 78.5t-19.5 96t19.5 96t53 78.5t78.5 53t96 19.5q20 0 41.5 -2.5t43 -8t41 -14.5
t34.5 -22v-60q-29 42 -73.5 70t-96.5 28q-46 0 -82.5 -18t-61 -48.5t-37.5 -70.5t-13 -83q0 -45 13.5 -90.5t40 -82t65.5 -60t89 -23.5q52 0 96 27.5t74 69.5z" />
    <glyph glyph-name="Ccaron" unicode="&#x10c;" horiz-adv-x="327" 
d="M340 690l-43 -56h-25l-44 56h10l46 -41l45 41h11zM837 -42q63 0 121 -23.5t103 -66.5l-3 -4q-49 42 -103.5 55t-117.5 13q-47 0 -94 -5t-94 -10.5t-94 -10.5t-94 -5q-93 0 -172 25.5t-137.5 76t-91.5 124.5t-33 171q0 63 20.5 117t58 94t90.5 62.5t117 22.5q16 0 31 -2.5
t31 -2.5q13 0 22.5 5t13.5 18l20 -97q-14 33 -48.5 52t-69.5 19q-61 0 -107 -24t-76.5 -64t-45.5 -92t-15 -108q0 -86 26 -157.5t75 -122.5t118.5 -79.5t156.5 -28.5q50 0 98.5 7.5t97 16.5t97.5 16.5t99 7.5z" />
    <glyph glyph-name="ccaron" unicode="&#x10d;" horiz-adv-x="498" 
d="M329 599l-43 -56h-25l-44 56h10l46 -41l45 41h11zM463 71q-17 -14 -39 -27.5t-46 -23.5t-48.5 -16t-47.5 -6q-51 0 -96 19.5t-78.5 53t-53 78.5t-19.5 96t19.5 96t53 78.5t78.5 53t96 19.5q20 0 41.5 -2.5t43 -8t41 -14.5t34.5 -22v-60q-29 42 -73.5 70t-96.5 28
q-46 0 -82.5 -18t-61 -48.5t-37.5 -70.5t-13 -83q0 -45 13.5 -90.5t40 -82t65.5 -60t89 -23.5q52 0 96 27.5t74 69.5z" />
    <glyph glyph-name="Dcaron" unicode="&#x10e;" horiz-adv-x="505" 
d="M473 312q0 -66 -20 -123t-58 -99t-92.5 -66t-123.5 -24h-145q18 5 25.5 19.5t7.5 31.5v389q0 17 -8 31t-25 19h101q-18 -5 -25.5 -19.5t-7.5 -31.5v-430h75q64 0 111.5 26.5t78.5 69.5t46.5 98.5t15.5 112.5q0 69 -23 131t-65 108.5t-100.5 73.5t-130.5 27
q-67 0 -126 -24t-102 -66.5t-68 -100.5t-25 -126q0 -221 210 -286l-10 -8q-48 12 -90 41t-73 68.5t-48.5 87t-17.5 97.5q0 74 29 134t77.5 102.5t112.5 66t134 23.5q73 0 138.5 -27.5t114.5 -75t78 -112t29 -138.5zM142 610l-43 -56h-25l-44 56h10l46 -41l45 41h11z" />
    <glyph glyph-name="dcaron" unicode="&#x10f;" horiz-adv-x="490" 
d="M218 596l-43 -56h-25l-44 56h10l46 -41l45 41h11zM455 245q0 -51 -19.5 -95.5t-52.5 -77.5t-77.5 -52.5t-95.5 -19.5h-175q18 5 25 19.5t7 31.5v387q0 17 -7 32t-25 20h167q50 0 96 -19t81 -52.5t55.5 -78t20.5 -95.5zM101 9h68q53 0 98 16.5t77.5 47t51 74.5t18.5 98
t-18.5 98t-51 75t-77.5 47.5t-98 16.5h-68v-473z" />
    <glyph glyph-name="Dcroat" unicode="&#x110;" horiz-adv-x="505" 
d="M473 312q0 -66 -20 -123t-58 -99t-92.5 -66t-123.5 -24h-145q18 5 25.5 19.5t7.5 31.5v200h-67v17h67v172q0 17 -8 31t-25 19h101q-18 -5 -25.5 -19.5t-7.5 -31.5v-171h71v-17h-71v-242h75q64 0 111.5 26.5t78.5 69.5t46.5 98.5t15.5 112.5q0 69 -23 131t-65 108.5
t-100.5 73.5t-130.5 27q-67 0 -126 -24t-102 -66.5t-68 -100.5t-25 -126q0 -221 210 -286l-10 -8q-48 12 -90 41t-73 68.5t-48.5 87t-17.5 97.5q0 74 29 134t77.5 102.5t112.5 66t134 23.5q73 0 138.5 -27.5t114.5 -75t78 -112t29 -138.5z" />
    <glyph glyph-name="dcroat" unicode="&#x111;" horiz-adv-x="490" 
d="M455 245q0 -51 -19.5 -95.5t-52.5 -77.5t-77.5 -52.5t-95.5 -19.5h-175q18 5 25 19.5t7 31.5v180h-67v17h67v190q0 17 -7 32t-25 20h167q50 0 96 -19t81 -52.5t55.5 -78t20.5 -95.5zM101 9h68q53 0 98 16.5t77.5 47t51 74.5t18.5 98t-18.5 98t-51 75t-77.5 47.5t-98 16.5
h-68v-234h72v-17h-72v-222z" />
    <glyph glyph-name="Emacron" unicode="&#x112;" horiz-adv-x="371" 
d="M274 577v-17h-183v17h183zM839 -87q-53 -37 -103 -56.5t-115 -19.5q-44 0 -86 12t-83 30t-81.5 39.5t-82.5 39.5t-85.5 30t-90.5 12h-78q18 5 25.5 19t7.5 32v388q0 18 -7.5 32t-25.5 19h289l18 -72q-17 30 -38 47t-58 17h-144v-229h103q18 0 32.5 6.5t18.5 26.5v-72
q-5 19 -19.5 25t-31.5 6h-103v-235q75 0 145.5 -23t138.5 -51t133.5 -51t130.5 -23q31 0 54.5 2.5t44.5 9t42 17.5t46 28z" />
    <glyph glyph-name="emacron" unicode="&#x113;" horiz-adv-x="376" 
d="M274 577v-17h-183v17h183zM245 8q35 0 58 17.5t38 46.5l-18 -72h-288q18 6 25 19t7 32v388q0 19 -7 32t-25 19h288l18 -72q-15 29 -38 46.5t-58 17.5h-144v-229h103q18 0 32 6.5t19 25.5v-71q-5 18 -19.5 24.5t-31.5 6.5h-103v-237h144z" />
    <glyph glyph-name="Ebreve" unicode="&#x114;" horiz-adv-x="371" 
d="M254 608q-4 -30 -22.5 -46t-48.5 -16t-50 15.5t-24 46.5q10 -20 30.5 -31t42.5 -11t42.5 10.5t29.5 31.5zM839 -87q-53 -37 -103 -56.5t-115 -19.5q-44 0 -86 12t-83 30t-81.5 39.5t-82.5 39.5t-85.5 30t-90.5 12h-78q18 5 25.5 19t7.5 32v388q0 18 -7.5 32t-25.5 19h289
l18 -72q-17 30 -38 47t-58 17h-144v-229h103q18 0 32.5 6.5t18.5 26.5v-72q-5 19 -19.5 25t-31.5 6h-103v-235q75 0 145.5 -23t138.5 -51t133.5 -51t130.5 -23q31 0 54.5 2.5t44.5 9t42 17.5t46 28z" />
    <glyph glyph-name="ebreve" unicode="&#x115;" horiz-adv-x="376" 
d="M254 608q-4 -30 -22.5 -46t-48.5 -16t-50 15.5t-24 46.5q10 -20 30.5 -31t42.5 -11t42.5 10.5t29.5 31.5zM245 8q35 0 58 17.5t38 46.5l-18 -72h-288q18 6 25 19t7 32v388q0 19 -7 32t-25 19h288l18 -72q-15 29 -38 46.5t-58 17.5h-144v-229h103q18 0 32 6.5t19 25.5v-71
q-5 18 -19.5 24.5t-31.5 6.5h-103v-237h144z" />
    <glyph glyph-name="Edotaccent" unicode="&#x116;" horiz-adv-x="371" 
d="M202 563q0 -9 -7 -16t-16 -7q-10 0 -16.5 6.5t-6.5 16.5t6.5 16t16.5 6q9 0 16 -6.5t7 -15.5zM839 -87q-53 -37 -103 -56.5t-115 -19.5q-44 0 -86 12t-83 30t-81.5 39.5t-82.5 39.5t-85.5 30t-90.5 12h-78q18 5 25.5 19t7.5 32v388q0 18 -7.5 32t-25.5 19h289l18 -72
q-17 30 -38 47t-58 17h-144v-229h103q18 0 32.5 6.5t18.5 26.5v-72q-5 19 -19.5 25t-31.5 6h-103v-235q75 0 145.5 -23t138.5 -51t133.5 -51t130.5 -23q31 0 54.5 2.5t44.5 9t42 17.5t46 28z" />
    <glyph glyph-name="edotaccent" unicode="&#x117;" horiz-adv-x="376" 
d="M202 563q0 -9 -7 -16t-16 -7q-10 0 -16.5 6.5t-6.5 16.5t6.5 16t16.5 6q9 0 16 -6.5t7 -15.5zM245 8q35 0 58 17.5t38 46.5l-18 -72h-288q18 6 25 19t7 32v388q0 19 -7 32t-25 19h288l18 -72q-15 29 -38 46.5t-58 17.5h-144v-229h103q18 0 32 6.5t19 25.5v-71
q-5 18 -19.5 24.5t-31.5 6.5h-103v-237h144z" />
    <glyph glyph-name="Eogonek" unicode="&#x118;" horiz-adv-x="371" 
d="M839 -87q-53 -37 -103 -56.5t-115 -19.5q-44 0 -86 12t-83 30t-81.5 39.5t-82.5 39.5t-85.5 30t-90.5 12q-14 -9 -25.5 -21.5t-11.5 -30.5q0 -13 6 -21t15.5 -12.5t21 -6.5t21.5 -2q-8 -5 -18 -8.5t-20 -3.5q-20 0 -34 13.5t-14 33.5q0 22 16.5 36t33.5 23h-69
q18 6 25.5 19t7.5 32v388q0 19 -7.5 32t-25.5 19h289l18 -72q-17 30 -38 47t-58 17h-144v-229h103q19 0 32.5 6.5t18.5 26.5v-72q-5 19 -19.5 25t-31.5 6h-103v-235q75 0 145.5 -23t138.5 -51t133.5 -51t130.5 -23q31 0 54.5 2.5t44.5 9t42 17.5t46 28z" />
    <glyph glyph-name="eogonek" unicode="&#x119;" horiz-adv-x="376" 
d="M350 -94q-8 -5 -17.5 -8.5t-20.5 -3.5q-20 0 -34 13.5t-14 33.5q0 22 16.5 36t33.5 23h-279q18 6 25 19t7 32v388q0 19 -7 32t-25 19h288l18 -72q-15 29 -38 46.5t-58 17.5h-144v-229h103q18 0 32 6.5t19 25.5v-71q-5 18 -19.5 24.5t-31.5 6.5h-103v-237h144
q35 0 58 17.5t38 46.5l-18 -72q-14 -9 -25.5 -21.5t-11.5 -30.5q0 -13 6 -21t15.5 -12.5t21 -6.5t21.5 -2z" />
    <glyph glyph-name="Ecaron" unicode="&#x11a;" horiz-adv-x="371" 
d="M219 595l-43 -56h-25l-44 56h10l46 -41l45 41h11zM839 -87q-53 -37 -103 -56.5t-115 -19.5q-44 0 -86 12t-83 30t-81.5 39.5t-82.5 39.5t-85.5 30t-90.5 12h-78q18 5 25.5 19t7.5 32v388q0 18 -7.5 32t-25.5 19h289l18 -72q-17 30 -38 47t-58 17h-144v-229h103
q18 0 32.5 6.5t18.5 26.5v-72q-5 19 -19.5 25t-31.5 6h-103v-235q75 0 145.5 -23t138.5 -51t133.5 -51t130.5 -23q31 0 54.5 2.5t44.5 9t42 17.5t46 28z" />
    <glyph glyph-name="ecaron" unicode="&#x11b;" horiz-adv-x="376" 
d="M243 595l-43 -56h-25l-44 56h10l46 -41l45 41h11zM245 8q35 0 58 17.5t38 46.5l-18 -72h-288q18 6 25 19t7 32v388q0 19 -7 32t-25 19h288l18 -72q-15 29 -38 46.5t-58 17.5h-144v-229h103q18 0 32 6.5t19 25.5v-71q-5 18 -19.5 24.5t-31.5 6.5h-103v-237h144z" />
    <glyph glyph-name="Gcircumflex" unicode="&#x11c;" horiz-adv-x="519" 
d="M293 647l-45 -41h-11l43 56h25l44 -56h-10zM493 300q-16 -5 -23 -17.5t-7 -28.5v-258q-8 12 -20.5 22t-28.5 10q-14 0 -29 -5t-31.5 -11t-34.5 -11t-38 -5q-59 0 -104.5 26.5t-76.5 69t-47 95.5t-16 106q0 55 18.5 104.5t52.5 87.5t81 60.5t104 22.5q29 0 56 -8t55 -8
q20 0 27 16l20 -95q-7 21 -22.5 37t-35 27.5t-41.5 17t-43 5.5q-60 0 -104 -23t-72.5 -62t-42 -89.5t-13.5 -104.5q0 -50 13 -99t40 -87.5t68 -62.5t98 -24q20 0 43 6.5t42.5 18.5t33 30t13.5 41v149q0 17 -6.5 29.5t-23.5 17.5h95z" />
    <glyph glyph-name="gcircumflex" unicode="&#x11d;" horiz-adv-x="505" 
d="M283 584l-45 -41h-11l43 56h25l44 -56h-10zM494 196q-17 -6 -24 -19.5t-7 -30.5v-150q-3 5 -7.5 12t-9.5 13.5t-11.5 11t-13.5 4.5q-6 0 -20.5 -6t-33.5 -13.5t-41 -13.5t-43 -6q-51 0 -96 19.5t-78.5 53t-53 78.5t-19.5 96t19.5 96t53 78.5t78.5 53t96 19.5
q39 0 84 -10.5t76 -36.5v-60q-29 42 -73.5 70t-97.5 28q-45 0 -81 -20t-61.5 -52.5t-39 -73t-13.5 -82.5q0 -43 15.5 -87.5t44 -80t68 -58t86.5 -22.5q19 0 43 6.5t45 19t35 30.5t14 40q0 12 0.5 26t-1.5 27.5t-8.5 24t-21.5 15.5h97z" />
    <glyph glyph-name="Gbreve" unicode="&#x11e;" horiz-adv-x="519" 
d="M369 671q-4 -30 -22.5 -46t-48.5 -16t-50 15.5t-24 46.5q10 -20 30.5 -31t42.5 -11t42.5 10.5t29.5 31.5zM493 300q-16 -5 -23 -17.5t-7 -28.5v-258q-8 12 -20.5 22t-28.5 10q-14 0 -29 -5t-31.5 -11t-34.5 -11t-38 -5q-59 0 -104.5 26.5t-76.5 69t-47 95.5t-16 106
q0 55 18.5 104.5t52.5 87.5t81 60.5t104 22.5q29 0 56 -8t55 -8q20 0 27 16l20 -95q-7 21 -22.5 37t-35 27.5t-41.5 17t-43 5.5q-60 0 -104 -23t-72.5 -62t-42 -89.5t-13.5 -104.5q0 -50 13 -99t40 -87.5t68 -62.5t98 -24q20 0 43 6.5t42.5 18.5t33 30t13.5 41v149
q0 17 -6.5 29.5t-23.5 17.5h95z" />
    <glyph glyph-name="gbreve" unicode="&#x11f;" horiz-adv-x="505" 
d="M354 611q-4 -30 -22.5 -46t-48.5 -16t-50 15.5t-24 46.5q10 -20 30.5 -31t42.5 -11t42.5 10.5t29.5 31.5zM494 196q-17 -6 -24 -19.5t-7 -30.5v-150q-3 5 -7.5 12t-9.5 13.5t-11.5 11t-13.5 4.5q-6 0 -20.5 -6t-33.5 -13.5t-41 -13.5t-43 -6q-51 0 -96 19.5t-78.5 53
t-53 78.5t-19.5 96t19.5 96t53 78.5t78.5 53t96 19.5q39 0 84 -10.5t76 -36.5v-60q-29 42 -73.5 70t-97.5 28q-45 0 -81 -20t-61.5 -52.5t-39 -73t-13.5 -82.5q0 -43 15.5 -87.5t44 -80t68 -58t86.5 -22.5q19 0 43 6.5t45 19t35 30.5t14 40q0 12 0.5 26t-1.5 27.5t-8.5 24
t-21.5 15.5h97z" />
    <glyph glyph-name="Gdotaccent" unicode="&#x120;" horiz-adv-x="519" 
d="M316 634q0 -9 -7 -16t-16 -7q-10 0 -16.5 6.5t-6.5 16.5t6.5 16t16.5 6q9 0 16 -6.5t7 -15.5zM493 300q-16 -5 -23 -17.5t-7 -28.5v-258q-8 12 -20.5 22t-28.5 10q-14 0 -29 -5t-31.5 -11t-34.5 -11t-38 -5q-59 0 -104.5 26.5t-76.5 69t-47 95.5t-16 106q0 55 18.5 104.5
t52.5 87.5t81 60.5t104 22.5q29 0 56 -8t55 -8q20 0 27 16l20 -95q-7 21 -22.5 37t-35 27.5t-41.5 17t-43 5.5q-60 0 -104 -23t-72.5 -62t-42 -89.5t-13.5 -104.5q0 -50 13 -99t40 -87.5t68 -62.5t98 -24q20 0 43 6.5t42.5 18.5t33 30t13.5 41v149q0 17 -6.5 29.5
t-23.5 17.5h95z" />
    <glyph glyph-name="gdotaccent" unicode="&#x121;" horiz-adv-x="505" 
d="M302 568q0 -9 -7 -16t-16 -7q-10 0 -16.5 6.5t-6.5 16.5t6.5 16t16.5 6q9 0 16 -6.5t7 -15.5zM494 196q-17 -6 -24 -19.5t-7 -30.5v-150q-3 5 -7.5 12t-9.5 13.5t-11.5 11t-13.5 4.5q-6 0 -20.5 -6t-33.5 -13.5t-41 -13.5t-43 -6q-51 0 -96 19.5t-78.5 53t-53 78.5
t-19.5 96t19.5 96t53 78.5t78.5 53t96 19.5q39 0 84 -10.5t76 -36.5v-60q-29 42 -73.5 70t-97.5 28q-45 0 -81 -20t-61.5 -52.5t-39 -73t-13.5 -82.5q0 -43 15.5 -87.5t44 -80t68 -58t86.5 -22.5q19 0 43 6.5t45 19t35 30.5t14 40q0 12 0.5 26t-1.5 27.5t-8.5 24t-21.5 15.5
h97z" />
    <glyph glyph-name="uni0122" unicode="&#x122;" horiz-adv-x="519" 
d="M493 300q-16 -5 -23 -17.5t-7 -28.5v-258q-8 12 -20.5 22t-28.5 10q-14 0 -29 -5t-31.5 -11t-34.5 -11t-38 -5q-59 0 -104.5 26.5t-76.5 69t-47 95.5t-16 106q0 55 18.5 104.5t52.5 87.5t81 60.5t104 22.5q29 0 56 -8t55 -8q20 0 27 16l20 -95q-7 21 -22.5 37t-35 27.5
t-41.5 17t-43 5.5q-60 0 -104 -23t-72.5 -62t-42 -89.5t-13.5 -104.5q0 -50 13 -99t40 -87.5t68 -62.5t98 -24q20 0 43 6.5t42.5 18.5t33 30t13.5 41v149q0 17 -6.5 29.5t-23.5 17.5h95zM299 -73q0 -14 -6 -27t-16 -22l-4 3q3 5 5.5 10t2.5 10q0 4 -4.5 5.5t-10 3.5t-10 6
t-4.5 15q0 9 6.5 15.5t15.5 6.5q11 0 18 -7.5t7 -18.5z" />
    <glyph glyph-name="uni0123" unicode="&#x123;" horiz-adv-x="505" 
d="M494 196q-17 -6 -24 -19.5t-7 -30.5v-150q-3 5 -7.5 12t-9.5 13.5t-11.5 11t-13.5 4.5q-6 0 -20.5 -6t-33.5 -13.5t-41 -13.5t-43 -6q-51 0 -96 19.5t-78.5 53t-53 78.5t-19.5 96t19.5 96t53 78.5t78.5 53t96 19.5q39 0 84 -10.5t76 -36.5v-60q-29 42 -73.5 70t-97.5 28
q-45 0 -81 -20t-61.5 -52.5t-39 -73t-13.5 -82.5q0 -43 15.5 -87.5t44 -80t68 -58t86.5 -22.5q19 0 43 6.5t45 19t35 30.5t14 40q0 12 0.5 26t-1.5 27.5t-8.5 24t-21.5 15.5h97zM292 -73q0 -14 -6 -27t-16 -22l-4 3q3 5 5.5 10t2.5 10q0 4 -4.5 5.5t-10 3.5t-10 6t-4.5 15
q0 9 6.5 15.5t15.5 6.5q11 0 18 -7.5t7 -18.5z" />
    <glyph glyph-name="Hcircumflex" unicode="&#x124;" horiz-adv-x="464" 
d="M238 595l-45 -41h-11l43 56h25l44 -56h-10zM735 -85q44 0 81.5 -7t71 -22t65 -37.5t62.5 -52.5l-4 -5q-29 26 -64.5 44t-73.5 29t-78 16t-78 5q-66 0 -130 -10.5t-128.5 -22.5t-128.5 -22.5t-130 -10.5q-53 0 -103.5 15t-89.5 44.5t-63 73.5t-24 103q0 36 10 71t29 65
t46.5 53.5t61.5 36.5v157q0 18 -6.5 32.5t-25.5 19.5h97q-18 -6 -24.5 -20.5t-6.5 -31.5v-145q16 4 32 5.5t33 1.5q57 0 107.5 -18.5t89.5 -62.5v220q0 17 -6.5 31.5t-24.5 19.5h97q-18 -5 -24.5 -19.5t-6.5 -31.5v-390q0 -17 7.5 -30.5t24.5 -18.5h-98q18 5 24.5 19t6.5 31
v159q-35 35 -77 57t-93 22q-23 0 -46 -1t-46 -8v-230q0 -17 7.5 -30.5t23.5 -18.5h-97q18 5 25 18.5t7 31.5v213q-32 -16 -55 -39.5t-38 -52.5t-22 -62t-7 -68q0 -56 23 -96.5t60.5 -66.5t85.5 -39t97 -13q67 0 132 14t130 30.5t130 30.5t132 14z" />
    <glyph glyph-name="hcircumflex" unicode="&#x125;" horiz-adv-x="464" 
d="M238 595l-45 -41h-11l43 56h25l44 -56h-10zM101 50q0 -17 7 -30.5t24 -19.5h-97q18 6 25 18.5t7 31.5v389q0 19 -7 32t-25 19h97q-18 -6 -24.5 -19.5t-6.5 -31.5v-184h262v184q0 18 -6.5 31.5t-24.5 19.5h97q-18 -6 -24.5 -19.5t-6.5 -31.5v-388q0 -18 6.5 -31.5
t24.5 -19.5h-97q18 6 24.5 19.5t6.5 31.5v196h-262v-197z" />
    <glyph glyph-name="Hbar" unicode="&#x126;" horiz-adv-x="464" 
d="M735 -85q44 0 81.5 -7t71 -22t65 -37.5t62.5 -52.5l-4 -5q-29 26 -64.5 44t-73.5 29t-78 16t-78 5q-66 0 -130 -10.5t-128.5 -22.5t-128.5 -22.5t-130 -10.5q-53 0 -103.5 15t-89.5 44.5t-63 73.5t-24 103q0 36 10 71t29 65t46.5 53.5t61.5 36.5v92h-77v17h77
q0 13 1 28.5t-1 29.5t-9 25.5t-23 16.5h97q-18 -6 -24.5 -20.5t-6.5 -31.5v-48h72v-17h-72v-80q16 4 32 5.5t33 1.5q57 0 107.5 -18.5t89.5 -62.5v220q0 17 -6.5 31.5t-24.5 19.5h97q-18 -5 -24.5 -19.5t-6.5 -31.5v-390q0 -17 7.5 -30.5t24.5 -18.5h-98q18 5 24.5 19
t6.5 31v159q-35 35 -77 57t-93 22q-23 0 -46 -1t-46 -8v-230q0 -17 7.5 -30.5t23.5 -18.5h-97q18 5 25 18.5t7 31.5v213q-32 -16 -55 -39.5t-38 -52.5t-22 -62t-7 -68q0 -56 23 -96.5t60.5 -66.5t85.5 -39t97 -13q67 0 132 14t130 30.5t130 30.5t132 14z" />
    <glyph glyph-name="hbar" unicode="&#x127;" horiz-adv-x="464" 
d="M101 50q0 -17 7 -30.5t24 -19.5h-97q18 6 25 18.5t7 31.5v323h-77v17h77v49q0 19 -7 32t-25 19h97q-18 -6 -24.5 -19.5t-6.5 -31.5v-49h72v-17h-72v-118h262v184q0 18 -6.5 31.5t-24.5 19.5h97q-18 -6 -24.5 -19.5t-6.5 -31.5v-388q0 -18 6.5 -31.5t24.5 -19.5h-97
q18 6 24.5 19.5t6.5 31.5v196h-262v-197z" />
    <glyph glyph-name="Itilde" unicode="&#x128;" horiz-adv-x="159" 
d="M153 559q-6 -12 -19 -18t-26 -6q-14 0 -26 5t-26 5q-8 0 -15.5 -2.5t-14.5 -5.5q8 11 20 17.5t26 6.5t26 -4t25 -4q8 0 15 2t15 4zM636 -83q80 0 149 -33t126 -87l-4 -5q-57 51 -131.5 72.5t-149.5 21.5q-66 0 -130.5 -10.5t-128.5 -22.5t-128.5 -22.5t-130.5 -10.5
q-51 0 -103.5 14t-95 42.5t-70 72t-27.5 101.5q0 55 19.5 101t53.5 79t81 51.5t101 18.5v139q0 17 -6.5 31.5t-24.5 19.5h95q-18 -5 -24 -19.5t-6 -31.5v-140q29 0 58 -8.5t55 -24t47 -37t34 -47.5l-7 -4q-12 27 -32 47.5t-45 34.5t-53 21.5t-57 7.5v-239q0 -15 6.5 -30
t23.5 -20h-95q18 5 24.5 20t6.5 32v236q-51 0 -93.5 -17t-73 -48t-47.5 -73.5t-17 -93.5q0 -59 25 -102t65.5 -71.5t92 -42t103.5 -13.5q66 0 129.5 14t127 31t127.5 31t130 14z" />
    <glyph glyph-name="itilde" unicode="&#x129;" horiz-adv-x="167" 
d="M153 559q-6 -12 -19 -18t-26 -6q-14 0 -26 5t-26 5q-8 0 -15.5 -2.5t-14.5 -5.5q8 11 20 17.5t26 6.5t26 -4t25 -4q8 0 15 2t15 4zM101 51q0 -18 6.5 -31.5t24.5 -19.5h-97q18 6 25 19t7 32v388q0 19 -7 32t-25 19h97q-18 -6 -24.5 -19.5t-6.5 -31.5v-388z" />
    <glyph glyph-name="Imacron" unicode="&#x12a;" horiz-adv-x="159" 
d="M148 577v-17h-125v17h125zM636 -83q80 0 149 -33t126 -87l-4 -5q-57 51 -131.5 72.5t-149.5 21.5q-66 0 -130.5 -10.5t-128.5 -22.5t-128.5 -22.5t-130.5 -10.5q-51 0 -103.5 14t-95 42.5t-70 72t-27.5 101.5q0 55 19.5 101t53.5 79t81 51.5t101 18.5v139q0 17 -6.5 31.5
t-24.5 19.5h95q-18 -5 -24 -19.5t-6 -31.5v-140q29 0 58 -8.5t55 -24t47 -37t34 -47.5l-7 -4q-12 27 -32 47.5t-45 34.5t-53 21.5t-57 7.5v-239q0 -15 6.5 -30t23.5 -20h-95q18 5 24.5 20t6.5 32v236q-51 0 -93.5 -17t-73 -48t-47.5 -73.5t-17 -93.5q0 -59 25 -102
t65.5 -71.5t92 -42t103.5 -13.5q66 0 129.5 14t127 31t127.5 31t130 14z" />
    <glyph glyph-name="imacron" unicode="&#x12b;" horiz-adv-x="167" 
d="M148 577v-17h-125v17h125zM101 51q0 -18 6.5 -31.5t24.5 -19.5h-97q18 6 25 19t7 32v388q0 19 -7 32t-25 19h97q-18 -6 -24.5 -19.5t-6.5 -31.5v-388z" />
    <glyph glyph-name="Ibreve" unicode="&#x12c;" horiz-adv-x="338" 
d="M36 773q-4 -30 -22.5 -46t-48.5 -16t-50 15.5t-24 46.5q10 -20 30.5 -31t42.5 -11t42.5 10.5t29.5 31.5zM636 -83q80 0 149 -33t126 -87l-4 -5q-57 51 -131.5 72.5t-149.5 21.5q-66 0 -130.5 -10.5t-128.5 -22.5t-128.5 -22.5t-130.5 -10.5q-51 0 -103.5 14t-95 42.5
t-70 72t-27.5 101.5q0 55 19.5 101t53.5 79t81 51.5t101 18.5v139q0 17 -6.5 31.5t-24.5 19.5h95q-18 -5 -24 -19.5t-6 -31.5v-140q29 0 58 -8.5t55 -24t47 -37t34 -47.5l-7 -4q-12 27 -32 47.5t-45 34.5t-53 21.5t-57 7.5v-239q0 -15 6.5 -30t23.5 -20h-95q18 5 24.5 20
t6.5 32v236q-51 0 -93.5 -17t-73 -48t-47.5 -73.5t-17 -93.5q0 -59 25 -102t65.5 -71.5t92 -42t103.5 -13.5q66 0 129.5 14t127 31t127.5 31t130 14z" />
    <glyph glyph-name="ibreve" unicode="&#x12d;" horiz-adv-x="257" 
d="M-6 608q-4 -30 -22.5 -46t-48.5 -16t-50 15.5t-24 46.5q10 -20 30.5 -31t42.5 -11t42.5 10.5t29.5 31.5zM101 51q0 -18 6.5 -31.5t24.5 -19.5h-97q18 6 25 19t7 32v388q0 19 -7 32t-25 19h97q-18 -6 -24.5 -19.5t-6.5 -31.5v-388z" />
    <glyph glyph-name="Iogonek" unicode="&#x12e;" horiz-adv-x="159" 
d="M636 -83q80 0 149 -33t126 -87l-4 -5q-57 51 -131.5 72.5t-149.5 21.5q-66 0 -130.5 -10.5t-128.5 -22.5t-128.5 -22.5t-130.5 -10.5q-51 0 -103.5 14t-95 42.5t-70 72t-27.5 101.5q0 55 19.5 101t53.5 79t81 51.5t101 18.5v139q0 17 -6.5 31.5t-24.5 19.5h95
q-18 -5 -24 -19.5t-6 -31.5v-140q29 0 58 -8.5t55 -24t47 -37t34 -47.5l-7 -4q-12 27 -32 47.5t-45 34.5t-53 21.5t-57 7.5v-239q0 -16 6.5 -30.5t23.5 -19.5q-14 -8 -25.5 -21t-11.5 -31q0 -13 6 -21t15.5 -12.5t21 -6.5t21.5 -2q-8 -5 -18 -8.5t-20 -3.5q-20 0 -34 13.5
t-14 33.5q0 22 16.5 36.5t33.5 22.5h-86q18 5 24.5 20t6.5 32v236q-51 0 -93.5 -17t-73 -48t-47.5 -73.5t-17 -93.5q0 -59 25 -102t65.5 -71.5t92 -42t103.5 -13.5q66 0 129.5 14t127 31t127.5 31t130 14z" />
    <glyph glyph-name="iogonek" unicode="&#x12f;" horiz-adv-x="167" 
d="M159 -94q-8 -5 -17.5 -8.5t-20.5 -3.5q-20 0 -34 13.5t-14 33.5q0 22 16.5 36t33.5 23h-88q18 6 25 19t7 32v388q0 19 -7 32t-25 19h97q-18 -6 -24.5 -19.5t-6.5 -31.5v-388q0 -18 6.5 -31.5t24.5 -19.5q-14 -9 -25.5 -21.5t-11.5 -30.5q0 -13 6 -21t15.5 -12.5t21 -6.5
t21.5 -2z" />
    <glyph glyph-name="Idotaccent" unicode="&#x130;" horiz-adv-x="159" 
d="M110 555q0 -9 -7 -16t-16 -7q-10 0 -16.5 6.5t-6.5 16.5t6.5 16t16.5 6q9 0 16 -6.5t7 -15.5zM636 -83q80 0 149 -33t126 -87l-4 -5q-57 51 -131.5 72.5t-149.5 21.5q-66 0 -130.5 -10.5t-128.5 -22.5t-128.5 -22.5t-130.5 -10.5q-51 0 -103.5 14t-95 42.5t-70 72
t-27.5 101.5q0 55 19.5 101t53.5 79t81 51.5t101 18.5v139q0 17 -6.5 31.5t-24.5 19.5h95q-18 -5 -24 -19.5t-6 -31.5v-140q29 0 58 -8.5t55 -24t47 -37t34 -47.5l-7 -4q-12 27 -32 47.5t-45 34.5t-53 21.5t-57 7.5v-239q0 -15 6.5 -30t23.5 -20h-95q18 5 24.5 20t6.5 32
v236q-51 0 -93.5 -17t-73 -48t-47.5 -73.5t-17 -93.5q0 -59 25 -102t65.5 -71.5t92 -42t103.5 -13.5q66 0 129.5 14t127 31t127.5 31t130 14z" />
    <glyph glyph-name="dotlessi" unicode="&#x131;" horiz-adv-x="167" 
d="M101 51q0 -18 6.5 -31.5t24.5 -19.5h-97q18 6 25 19t7 32v388q0 19 -7 32t-25 19h97q-18 -6 -24.5 -19.5t-6.5 -31.5v-388z" />
    <glyph glyph-name="IJ" unicode="&#x132;" horiz-adv-x="611" 
d="M636 -83q80 0 149 -33t126 -87l-4 -5q-57 51 -131.5 72.5t-149.5 21.5q-66 0 -130.5 -10.5t-128.5 -22.5t-128.5 -22.5t-130.5 -10.5q-51 0 -103.5 14t-95 42.5t-70 72t-27.5 101.5q0 55 19.5 101t53.5 79t81 51.5t101 18.5v139q0 17 -6.5 31.5t-24.5 19.5h95
q-18 -5 -24 -19.5t-6 -31.5v-140q29 0 58 -8.5t55 -24t47 -37t34 -47.5l-7 -4q-12 27 -32 47.5t-45 34.5t-53 21.5t-57 7.5v-239q0 -15 6.5 -30t23.5 -20h-95q18 5 24.5 20t6.5 32v236q-51 0 -93.5 -17t-73 -48t-47.5 -73.5t-17 -93.5q0 -59 25 -102t65.5 -71.5t92 -42
t103.5 -13.5q66 0 129.5 14t127 31t127.5 31t130 14zM439 64q0 -37 -8.5 -78.5t-26.5 -78t-47 -64t-71 -36.5v5q40 12 63.5 39.5t36 63t16 74.5t3.5 75v359q0 21 -5 40t-28 27h99q-20 -7 -26 -21t-6 -33v-372z" />
    <glyph glyph-name="ij" unicode="&#x133;" horiz-adv-x="514" 
d="M101 51q0 -18 6.5 -31.5t24.5 -19.5h-97q18 6 25 19t7 32v388q0 19 -7 32t-25 19h97q-18 -6 -24.5 -19.5t-6.5 -31.5v-388zM515 490q-18 -6 -25 -19t-7 -32v-305q0 -29 -3.5 -54.5t-14 -44t-31 -29t-55.5 -10.5q-11 0 -26 3t-29 9t-23.5 16t-9.5 24q0 9 4 17t15 8
q10 0 13 -5t4 -12.5t2 -16t6 -16t16 -12.5t33 -5q26 0 39 13.5t19 33t6.5 42t0.5 40.5v304q0 18 -6.5 31.5t-24.5 19.5h97z" />
    <glyph glyph-name="Jcircumflex" unicode="&#x134;" horiz-adv-x="272" 
d="M-35 760l-45 -41h-11l43 56h25l44 -56h-10zM100 64q0 -37 -8.5 -78.5t-26.5 -78t-47 -64t-71 -36.5v5q40 12 63.5 39.5t36 63t16 74.5t3.5 75v359q0 21 -5 40t-28 27h99q-20 -7 -26 -21t-6 -33v-372z" />
    <glyph glyph-name="jcircumflex" unicode="&#x135;" horiz-adv-x="257" 
d="M-46 595l-45 -41h-11l43 56h25l44 -56h-10zM22 -240q-46 0 -77 12v71q34 -10 66 -10q38 0 56 21t18 63v619h88v-616q0 -80 -38.5 -120t-112.5 -40z" />
    <glyph glyph-name="uni0136" unicode="&#x136;" horiz-adv-x="417" 
d="M678 -126q-31 -7 -61.5 -12t-62.5 -5q-73 0 -119.5 24.5t-77.5 63t-50 85t-37 91.5t-38.5 83t-54.5 58q-5 4 -14 4q-4 0 -11.5 -6t-15 -14.5t-14.5 -16.5t-10 -11q-7 -8 -9.5 -12.5t-2.5 -15.5v-134q0 -17 6.5 -33.5t24.5 -22.5h-97q20 6 26 21.5t6 33.5v384
q0 17 -7.5 31t-24.5 20h97q-18 -6 -24.5 -20t-6.5 -32v-221l212 225q7 7 7 16q0 11 -8.5 19.5t-18.5 12.5h94q-20 -8 -36.5 -22t-30.5 -30l-147 -157q-2 -2 -2 -4q0 -3 3 -5q36 -17 62 -53.5t50 -81t48.5 -92.5t57.5 -87t77.5 -64.5t107.5 -25.5q26 0 51.5 4t50.5 11v-9z
M206 -73q0 -14 -6 -27t-16 -22l-4 3q3 5 5.5 10t2.5 10q0 4 -4.5 5.5t-10 3.5t-10 6t-4.5 15q0 9 6.5 15.5t15.5 6.5q11 0 18 -7.5t7 -18.5z" />
    <glyph glyph-name="uni0137" unicode="&#x137;" horiz-adv-x="458" 
d="M100 51q0 -18 7 -31.5t25 -19.5h-98q18 6 25 19t7 32v388q0 14 -9 30t-23 21h98q-18 -6 -25 -19t-7 -32v-223l212 226q7 9 7 17q0 11 -8.5 19.5t-18.5 11.5h94q-19 -6 -35.5 -21t-29.5 -29l-119 -127q-4 -4 -4 -12q0 -5 3 -10l161 -243q8 -13 26 -28t33 -20h-59
q-11 0 -16 9l-163 246q-6 9 -18 9q-7 0 -16.5 -7.5t-18.5 -17t-17 -19.5t-13 -15v-154zM206 -73q0 -14 -6 -27t-16 -22l-4 3q3 5 5.5 10t2.5 10q0 4 -4.5 5.5t-10 3.5t-10 6t-4.5 15q0 9 6.5 15.5t15.5 6.5q11 0 18 -7.5t7 -18.5z" />
    <glyph glyph-name="kgreenlandic" unicode="&#x138;" horiz-adv-x="534" 
d="M403 536h106l-203 -237l219 -299h-105l-176 242l-66 -54v-188h-93v536h93v-139q0 -68 -6 -135l41 50z" />
    <glyph glyph-name="Lacute" unicode="&#x139;" horiz-adv-x="231" 
d="M143 594l-49 -61h-10l20 61h39zM608 -101q-35 -18 -67.5 -30t-73.5 -12q-33 0 -63 10.5t-58 26.5t-56 34.5t-57 34.5t-61 26.5t-68 10.5h-71q19 5 26.5 19t7.5 32v389q0 18 -7.5 31.5t-26.5 18.5h101q-19 -5 -26 -18.5t-7 -31.5v-431q55 -2 104 -22.5t97 -44t97 -43
t103 -19.5q30 0 53 6.5t50 18.5z" />
    <glyph glyph-name="lacute" unicode="&#x13a;" horiz-adv-x="376" 
d="M143 594l-49 -61h-10l20 61h39zM245 8q35 0 58 17.5t38 46.5l-18 -72h-288q18 6 25 19t7 32v388q0 19 -7 32t-25 19h97q-18 -6 -24.5 -19.5t-6.5 -31.5v-431h144z" />
    <glyph glyph-name="uni013B" unicode="&#x13b;" horiz-adv-x="231" 
d="M608 -101q-35 -18 -67.5 -30t-73.5 -12q-33 0 -63 10.5t-58 26.5t-56 34.5t-57 34.5t-61 26.5t-68 10.5h-71q19 5 26.5 19t7.5 32v389q0 18 -7.5 31.5t-26.5 18.5h101q-19 -5 -26 -18.5t-7 -31.5v-431q55 -2 104 -22.5t97 -44t97 -43t103 -19.5q30 0 53 6.5t50 18.5z
M104 -73q0 -14 -6 -27t-16 -22l-4 3q3 5 5.5 10t2.5 10q0 4 -4.5 5.5t-10 3.5t-10 6t-4.5 15q0 9 6.5 15.5t15.5 6.5q11 0 18 -7.5t7 -18.5z" />
    <glyph glyph-name="uni013C" unicode="&#x13c;" horiz-adv-x="376" 
d="M245 8q35 0 58 17.5t38 46.5l-18 -72h-288q18 6 25 19t7 32v388q0 19 -7 32t-25 19h97q-18 -6 -24.5 -19.5t-6.5 -31.5v-431h144zM206 -73q0 -14 -6 -27t-16 -22l-4 3q3 5 5.5 10t2.5 10q0 4 -4.5 5.5t-10 3.5t-10 6t-4.5 15q0 9 6.5 15.5t15.5 6.5q11 0 18 -7.5t7 -18.5
z" />
    <glyph glyph-name="Lcaron" unicode="&#x13d;" horiz-adv-x="231" 
d="M147 595l-43 -56h-25l-44 56h10l46 -41l45 41h11zM608 -101q-35 -18 -67.5 -30t-73.5 -12q-33 0 -63 10.5t-58 26.5t-56 34.5t-57 34.5t-61 26.5t-68 10.5h-71q19 5 26.5 19t7.5 32v389q0 18 -7.5 31.5t-26.5 18.5h101q-19 -5 -26 -18.5t-7 -31.5v-431q55 -2 104 -22.5
t97 -44t97 -43t103 -19.5q30 0 53 6.5t50 18.5z" />
    <glyph glyph-name="lcaron" unicode="&#x13e;" horiz-adv-x="376" 
d="M147 595l-43 -56h-25l-44 56h10l46 -41l45 41h11zM245 8q35 0 58 17.5t38 46.5l-18 -72h-288q18 6 25 19t7 32v388q0 19 -7 32t-25 19h97q-18 -6 -24.5 -19.5t-6.5 -31.5v-431h144z" />
    <glyph glyph-name="Ldot" unicode="&#x13f;" horiz-adv-x="231" 
d="M608 -101q-35 -18 -67.5 -30t-73.5 -12q-33 0 -63 10.5t-58 26.5t-56 34.5t-57 34.5t-61 26.5t-68 10.5h-71q19 5 26.5 19t7.5 32v389q0 18 -7.5 31.5t-26.5 18.5h101q-19 -5 -26 -18.5t-7 -31.5v-431q55 -2 104 -22.5t97 -44t97 -43t103 -19.5q30 0 53 6.5t50 18.5z
M221 249q0 -9 -7 -16t-16 -7q-10 0 -16.5 6.5t-6.5 16.5t6.5 16t16.5 6q9 0 16 -6.5t7 -15.5z" />
    <glyph glyph-name="ldot" unicode="&#x140;" horiz-adv-x="376" 
d="M245 8q35 0 58 17.5t38 46.5l-18 -72h-288q18 6 25 19t7 32v388q0 19 -7 32t-25 19h97q-18 -6 -24.5 -19.5t-6.5 -31.5v-431h144zM221 249q0 -9 -7 -16t-16 -7q-10 0 -16.5 6.5t-6.5 16.5t6.5 16t16.5 6q9 0 16 -6.5t7 -15.5z" />
    <glyph glyph-name="Lslash" unicode="&#x141;" horiz-adv-x="231" 
d="M608 -101q-35 -18 -67.5 -30t-73.5 -12q-33 0 -63 10.5t-58 26.5t-56 34.5t-57 34.5t-61 26.5t-68 10.5h-71q19 5 26.5 19t7.5 32v243l-67 -17v17l67 17v129q0 18 -7.5 31.5t-26.5 18.5h101q-19 -5 -26 -18.5t-7 -31.5v-120l72 19v-17l-72 -19v-294q55 -2 104 -22.5
t97 -44t97 -43t103 -19.5q30 0 53 6.5t50 18.5z" />
    <glyph glyph-name="lslash" unicode="&#x142;" horiz-adv-x="376" 
d="M245 8q35 0 58 17.5t38 46.5l-18 -72h-288q18 6 25 19t7 32v243l-67 -17v17l67 17v128q0 19 -7 32t-25 19h97q-18 -6 -24.5 -19.5t-6.5 -31.5v-119l72 19v-17l-72 -19v-295h144z" />
    <glyph glyph-name="Nacute" unicode="&#x143;" horiz-adv-x="491" 
d="M297 599l-49 -61h-10l20 61h39zM755 -203q-23 -4 -50 -4q-75 0 -137 36t-115.5 94t-100 130.5t-90.5 146t-87 140t-89 111.5v-401q0 -20 13.5 -32.5t30.5 -17.5h-93q17 5 29.5 17.5t12.5 32.5v407q-42 43 -98.5 68.5t-117.5 25.5q-46 0 -89 -12l-3 10q48 12 98 12
q65 0 122 -25t106.5 -67t92.5 -96t80 -112t69.5 -115t60.5 -105v399q0 20 -12 32.5t-30 17.5h95q-17 -5 -30.5 -17.5t-13.5 -32.5v-412q25 -39 54 -79.5t64.5 -72.5t78.5 -52.5t94 -20.5h27t27 3z" />
    <glyph glyph-name="nacute" unicode="&#x144;" horiz-adv-x="486" 
d="M297 599l-49 -61h-10l20 61h39zM86 50q0 -20 13.5 -32t30.5 -18h-94q17 6 30 18t13 32v389q0 22 -12 33.5t-31 17.5h77l287 -414v364q0 21 -12.5 32.5t-30.5 17.5h94q-17 -6 -29.5 -18t-12.5 -32v-440l-323 465v-415z" />
    <glyph glyph-name="uni0145" unicode="&#x145;" horiz-adv-x="491" 
d="M755 -203q-23 -4 -50 -4q-75 0 -137 36t-115.5 94t-100 130.5t-90.5 146t-87 140t-89 111.5v-401q0 -20 13.5 -32.5t30.5 -17.5h-93q17 5 29.5 17.5t12.5 32.5v407q-42 43 -98.5 68.5t-117.5 25.5q-46 0 -89 -12l-3 10q48 12 98 12q65 0 122 -25t106.5 -67t92.5 -96
t80 -112t69.5 -115t60.5 -105v399q0 20 -12 32.5t-30 17.5h95q-17 -5 -30.5 -17.5t-13.5 -32.5v-412q25 -39 54 -79.5t64.5 -72.5t78.5 -52.5t94 -20.5h27t27 3zM262 -73q0 -14 -6 -27t-16 -22l-4 3q3 5 5.5 10t2.5 10q0 4 -4.5 5.5t-10 3.5t-10 6t-4.5 15q0 9 6.5 15.5
t15.5 6.5q11 0 18 -7.5t7 -18.5z" />
    <glyph glyph-name="uni0146" unicode="&#x146;" horiz-adv-x="486" 
d="M86 50q0 -20 13.5 -32t30.5 -18h-94q17 6 30 18t13 32v389q0 22 -12 33.5t-31 17.5h77l287 -414v364q0 21 -12.5 32.5t-30.5 17.5h94q-17 -6 -29.5 -18t-12.5 -32v-440l-323 465v-415zM262 -73q0 -14 -6 -27t-16 -22l-4 3q3 5 5.5 10t2.5 10q0 4 -4.5 5.5t-10 3.5t-10 6
t-4.5 15q0 9 6.5 15.5t15.5 6.5q11 0 18 -7.5t7 -18.5z" />
    <glyph glyph-name="Ncaron" unicode="&#x147;" horiz-adv-x="491" 
d="M300 595l-43 -56h-25l-44 56h10l46 -41l45 41h11zM755 -203q-23 -4 -50 -4q-75 0 -137 36t-115.5 94t-100 130.5t-90.5 146t-87 140t-89 111.5v-401q0 -20 13.5 -32.5t30.5 -17.5h-93q17 5 29.5 17.5t12.5 32.5v407q-42 43 -98.5 68.5t-117.5 25.5q-46 0 -89 -12l-3 10
q48 12 98 12q65 0 122 -25t106.5 -67t92.5 -96t80 -112t69.5 -115t60.5 -105v399q0 20 -12 32.5t-30 17.5h95q-17 -5 -30.5 -17.5t-13.5 -32.5v-412q25 -39 54 -79.5t64.5 -72.5t78.5 -52.5t94 -20.5h27t27 3z" />
    <glyph glyph-name="ncaron" unicode="&#x148;" horiz-adv-x="486" 
d="M300 595l-43 -56h-25l-44 56h10l46 -41l45 41h11zM86 50q0 -20 13.5 -32t30.5 -18h-94q17 6 30 18t13 32v389q0 22 -12 33.5t-31 17.5h77l287 -414v364q0 21 -12.5 32.5t-30.5 17.5h94q-17 -6 -29.5 -18t-12.5 -32v-440l-323 465v-415z" />
    <glyph glyph-name="napostrophe" unicode="&#x149;" horiz-adv-x="690" 
d="M145 714l7 -11q-25 -97 -86 -234h-65q34 139 50 245h94zM157 50q0 -20 13.5 -32t30.5 -18h-94q17 6 30 18t13 32v389q0 22 -12 33.5t-31 17.5h77l287 -414v364q0 21 -12.5 32.5t-30.5 17.5h94q-17 -6 -29.5 -18t-12.5 -32v-440l-323 465v-415z" />
    <glyph glyph-name="Eng" unicode="&#x14a;" horiz-adv-x="759" 
d="M475 -190q-48 0 -76 13v76q35 -10 76 -10q50 0 76.5 28.5t27.5 82.5l-403 593h-4q8 -125 8 -206v-387h-83v714h104l381 -572h4q-7 75 -7 200v372h84v-708q0 -96 -48.5 -146t-139.5 -50z" />
    <glyph glyph-name="eng" unicode="&#x14b;" horiz-adv-x="618" 
d="M394 -240q-42 0 -71 12v71q29 -10 60 -10q67 0 67 84v427q0 65 -29 96.5t-90 31.5q-83 0 -120.5 -45.5t-37.5 -147.5v-279h-88v536h71l14 -73h5q25 40 69 61.5t98 21.5q99 0 147.5 -46.5t48.5 -149.5v-430q0 -75 -35 -117.5t-109 -42.5z" />
    <glyph glyph-name="Omacron" unicode="&#x14c;" horiz-adv-x="583" 
d="M371 577v-17h-183v17h183zM530 245q0 -51 -19.5 -96t-53 -78.5t-78.5 -53t-96 -19.5t-96 19.5t-78.5 53t-53 78.5t-19.5 96t19.5 96t53 78.5t78.5 53t96 19.5t96 -19.5t78.5 -53t53 -78.5t19.5 -96zM77 257q0 -45 16 -90t45 -81.5t69.5 -59t88.5 -22.5q45 0 81 20
t61 52.5t38.5 73.5t13.5 83q0 45 -16 90t-44.5 81t-68.5 58t-89 22q-45 0 -81 -20t-61.5 -52t-39 -72.5t-13.5 -82.5z" />
    <glyph glyph-name="omacron" unicode="&#x14d;" horiz-adv-x="583" 
d="M371 577v-17h-183v17h183zM530 245q0 -51 -19.5 -96t-53 -78.5t-78.5 -53t-96 -19.5t-96 19.5t-78.5 53t-53 78.5t-19.5 96t19.5 96t53 78.5t78.5 53t96 19.5t96 -19.5t78.5 -53t53 -78.5t19.5 -96zM77 257q0 -45 16 -90t45 -81.5t69.5 -59t88.5 -22.5q45 0 81 20
t61 52.5t38.5 73.5t13.5 83q0 45 -16 90t-44.5 81t-68.5 58t-89 22q-45 0 -81 -20t-61.5 -52t-39 -72.5t-13.5 -82.5z" />
    <glyph glyph-name="Obreve" unicode="&#x14e;" horiz-adv-x="583" 
d="M354 608q-4 -30 -22.5 -46t-48.5 -16t-50 15.5t-24 46.5q10 -20 30.5 -31t42.5 -11t42.5 10.5t29.5 31.5zM530 245q0 -51 -19.5 -96t-53 -78.5t-78.5 -53t-96 -19.5t-96 19.5t-78.5 53t-53 78.5t-19.5 96t19.5 96t53 78.5t78.5 53t96 19.5t96 -19.5t78.5 -53t53 -78.5
t19.5 -96zM77 257q0 -45 16 -90t45 -81.5t69.5 -59t88.5 -22.5q45 0 81 20t61 52.5t38.5 73.5t13.5 83q0 45 -16 90t-44.5 81t-68.5 58t-89 22q-45 0 -81 -20t-61.5 -52t-39 -72.5t-13.5 -82.5z" />
    <glyph glyph-name="obreve" unicode="&#x14f;" horiz-adv-x="583" 
d="M354 608q-4 -30 -22.5 -46t-48.5 -16t-50 15.5t-24 46.5q10 -20 30.5 -31t42.5 -11t42.5 10.5t29.5 31.5zM530 245q0 -51 -19.5 -96t-53 -78.5t-78.5 -53t-96 -19.5t-96 19.5t-78.5 53t-53 78.5t-19.5 96t19.5 96t53 78.5t78.5 53t96 19.5t96 -19.5t78.5 -53t53 -78.5
t19.5 -96zM77 257q0 -45 16 -90t45 -81.5t69.5 -59t88.5 -22.5q45 0 81 20t61 52.5t38.5 73.5t13.5 83q0 45 -16 90t-44.5 81t-68.5 58t-89 22q-45 0 -81 -20t-61.5 -52t-39 -72.5t-13.5 -82.5z" />
    <glyph glyph-name="Ohungarumlaut" unicode="&#x150;" horiz-adv-x="583" 
d="M314 657q0 -6 -10 -18.5t-22.5 -27t-24.5 -27t-17 -17.5l-6 4l54 92q5 8 13 8q13 0 13 -14zM374 657q0 -6 -10 -18.5t-22.5 -27t-24.5 -27t-17 -17.5l-6 4l54 92q5 8 13 8q13 0 13 -14zM530 245q0 -51 -19.5 -96t-53 -78.5t-78.5 -53t-96 -19.5t-96 19.5t-78.5 53
t-53 78.5t-19.5 96t19.5 96t53 78.5t78.5 53t96 19.5t96 -19.5t78.5 -53t53 -78.5t19.5 -96zM77 257q0 -45 16 -90t45 -81.5t69.5 -59t88.5 -22.5q45 0 81 20t61 52.5t38.5 73.5t13.5 83q0 45 -16 90t-44.5 81t-68.5 58t-89 22q-45 0 -81 -20t-61.5 -52t-39 -72.5
t-13.5 -82.5z" />
    <glyph glyph-name="ohungarumlaut" unicode="&#x151;" horiz-adv-x="583" 
d="M314 657q0 -6 -10 -18.5t-22.5 -27t-24.5 -27t-17 -17.5l-6 4l54 92q5 8 13 8q13 0 13 -14zM374 657q0 -6 -10 -18.5t-22.5 -27t-24.5 -27t-17 -17.5l-6 4l54 92q5 8 13 8q13 0 13 -14zM530 245q0 -51 -19.5 -96t-53 -78.5t-78.5 -53t-96 -19.5t-96 19.5t-78.5 53
t-53 78.5t-19.5 96t19.5 96t53 78.5t78.5 53t96 19.5t96 -19.5t78.5 -53t53 -78.5t19.5 -96zM77 257q0 -45 16 -90t45 -81.5t69.5 -59t88.5 -22.5q45 0 81 20t61 52.5t38.5 73.5t13.5 83q0 45 -16 90t-44.5 81t-68.5 58t-89 22q-45 0 -81 -20t-61.5 -52t-39 -72.5
t-13.5 -82.5z" />
    <glyph glyph-name="OE" unicode="&#x152;" horiz-adv-x="954" 
d="M1071 -87q-53 -37 -103 -56.5t-115 -19.5q-44 0 -86 12t-83 30t-81.5 39.5t-82.5 39.5t-85.5 30t-90.5 12q-15 0 -30.5 -1t-30.5 -1q-51 0 -96 19.5t-78.5 53t-53 78.5t-19.5 96t19.5 96t53 78.5t78.5 53t96 19.5q69 0 136 -1t136 -1l18 -72q-17 30 -38.5 47t-57.5 17
h-144v-229h103q18 0 32.5 6.5t18.5 26.5v-72q-5 19 -19.5 25t-31.5 6h-103v-235q75 0 145.5 -23t138.5 -51t133.5 -51t130.5 -23q31 0 54.5 2.5t44.5 9t42 17.5t46 28zM77 257q0 -42 14.5 -85t40.5 -78.5t63 -59.5t82 -29q13 7 17.5 19.5t4.5 26.5v388q0 13 -4 25.5
t-15 19.5q-47 0 -84.5 -18.5t-64 -50t-40.5 -72.5t-14 -86z" />
    <glyph glyph-name="oe" unicode="&#x153;" horiz-adv-x="929" 
d="M572 0q-72 0 -144.5 -1t-144.5 -1q-51 0 -96 19.5t-78.5 53t-53 78.5t-19.5 96t19.5 96t53 78.5t78.5 53t96 19.5q72 0 144.5 -1t144.5 -1l18 -72q-15 29 -38 46.5t-58 17.5h-144v-229h103q17 0 31.5 6.5t19.5 25.5v-71q-5 18 -19.5 24.5t-31.5 6.5h-103v-237h144
q35 0 58 17.5t38 46.5zM77 257q0 -45 16 -89.5t44.5 -80.5t68 -59t87.5 -24q14 7 18.5 20t4.5 27v388q0 11 -3 23t-13 20q-7 1 -14 1.5t-14 0.5q-45 0 -81 -20t-61.5 -52t-39 -72.5t-13.5 -82.5z" />
    <glyph glyph-name="Racute" unicode="&#x154;" horiz-adv-x="426" 
d="M239 599l-49 -61h-10l20 61h39zM727 -91q-23 -12 -42.5 -20t-39 -13.5t-40.5 -8t-47 -2.5q-54 0 -91 24.5t-63.5 60.5t-47.5 79t-44 79t-52.5 60.5t-72.5 24.5h-85v-143q0 -17 7 -31t25 -19h-99q19 5 25.5 19.5t6.5 31.5v389q0 17 -7 31t-25 19h162q36 0 69.5 -8
t59.5 -26t42 -46.5t16 -68.5q0 -33 -12.5 -59.5t-34 -45.5t-49.5 -29.5t-59 -12.5q33 -10 59.5 -37.5t50.5 -62t48.5 -72t53.5 -69t64.5 -51.5t83.5 -20q40 0 69.5 8t63.5 28zM102 200h96q65 0 105.5 37.5t40.5 103.5t-40.5 103t-105.5 37h-96v-281z" />
    <glyph glyph-name="racute" unicode="&#x155;" horiz-adv-x="442" 
d="M239 599l-49 -61h-10l20 61h39zM102 50q0 -18 7 -31t24 -19h-97q18 6 24.5 19.5t6.5 31.5v388q0 18 -6.5 31.5t-24.5 19.5h161q36 0 69.5 -8t59.5 -26t42 -46.5t16 -68.5q0 -29 -10.5 -53.5t-28.5 -42.5t-42 -30.5t-51 -17.5l108 -164q8 -11 20 -19.5t25 -13.5h-63
l-128 193h-112v-143zM102 200h97q65 0 105 37.5t40 103.5t-40 103.5t-105 37.5h-97v-282z" />
    <glyph glyph-name="uni0156" unicode="&#x156;" horiz-adv-x="426" 
d="M727 -91q-23 -12 -42.5 -20t-39 -13.5t-40.5 -8t-47 -2.5q-54 0 -91 24.5t-63.5 60.5t-47.5 79t-44 79t-52.5 60.5t-72.5 24.5h-85v-143q0 -17 7 -31t25 -19h-99q19 5 25.5 19.5t6.5 31.5v389q0 17 -7 31t-25 19h162q36 0 69.5 -8t59.5 -26t42 -46.5t16 -68.5
q0 -33 -12.5 -59.5t-34 -45.5t-49.5 -29.5t-59 -12.5q33 -10 59.5 -37.5t50.5 -62t48.5 -72t53.5 -69t64.5 -51.5t83.5 -20q40 0 69.5 8t63.5 28zM102 200h96q65 0 105.5 37.5t40.5 103.5t-40.5 103t-105.5 37h-96v-281zM262 -73q0 -14 -6 -27t-16 -22l-4 3q3 5 5.5 10
t2.5 10q0 4 -4.5 5.5t-10 3.5t-10 6t-4.5 15q0 9 6.5 15.5t15.5 6.5q11 0 18 -7.5t7 -18.5z" />
    <glyph glyph-name="uni0157" unicode="&#x157;" horiz-adv-x="442" 
d="M102 50q0 -18 7 -31t24 -19h-97q18 6 24.5 19.5t6.5 31.5v388q0 18 -6.5 31.5t-24.5 19.5h161q36 0 69.5 -8t59.5 -26t42 -46.5t16 -68.5q0 -29 -10.5 -53.5t-28.5 -42.5t-42 -30.5t-51 -17.5l108 -164q8 -11 20 -19.5t25 -13.5h-63l-128 193h-112v-143zM102 200h97
q65 0 105 37.5t40 103.5t-40 103.5t-105 37.5h-97v-282zM262 -73q0 -14 -6 -27t-16 -22l-4 3q3 5 5.5 10t2.5 10q0 4 -4.5 5.5t-10 3.5t-10 6t-4.5 15q0 9 6.5 15.5t15.5 6.5q11 0 18 -7.5t7 -18.5z" />
    <glyph glyph-name="Rcaron" unicode="&#x158;" horiz-adv-x="426" 
d="M251 595l-43 -56h-25l-44 56h10l46 -41l45 41h11zM727 -91q-23 -12 -42.5 -20t-39 -13.5t-40.5 -8t-47 -2.5q-54 0 -91 24.5t-63.5 60.5t-47.5 79t-44 79t-52.5 60.5t-72.5 24.5h-85v-143q0 -17 7 -31t25 -19h-99q19 5 25.5 19.5t6.5 31.5v389q0 17 -7 31t-25 19h162
q36 0 69.5 -8t59.5 -26t42 -46.5t16 -68.5q0 -33 -12.5 -59.5t-34 -45.5t-49.5 -29.5t-59 -12.5q33 -10 59.5 -37.5t50.5 -62t48.5 -72t53.5 -69t64.5 -51.5t83.5 -20q40 0 69.5 8t63.5 28zM102 200h96q65 0 105.5 37.5t40.5 103.5t-40.5 103t-105.5 37h-96v-281z" />
    <glyph glyph-name="rcaron" unicode="&#x159;" horiz-adv-x="442" 
d="M251 595l-43 -56h-25l-44 56h10l46 -41l45 41h11zM102 50q0 -18 7 -31t24 -19h-97q18 6 24.5 19.5t6.5 31.5v388q0 18 -6.5 31.5t-24.5 19.5h161q36 0 69.5 -8t59.5 -26t42 -46.5t16 -68.5q0 -29 -10.5 -53.5t-28.5 -42.5t-42 -30.5t-51 -17.5l108 -164q8 -11 20 -19.5
t25 -13.5h-63l-128 193h-112v-143zM102 200h97q65 0 105 37.5t40 103.5t-40 103.5t-105 37.5h-97v-282z" />
    <glyph glyph-name="Sacute" unicode="&#x15a;" horiz-adv-x="485" 
d="M325 599l-49 -61h-10l20 61h39zM458 23q0 -47 -15 -86t-42 -66.5t-65.5 -43t-85.5 -15.5q-45 0 -87 14t-73.5 40t-50.5 64.5t-19 86.5q0 44 14.5 77t40 55t60.5 33t77 11h18v-4q-38 0 -71.5 -14t-58 -39t-39 -58t-14.5 -72q0 -44 14.5 -78t40.5 -57t61.5 -35.5
t77.5 -12.5q86 0 135.5 51t49.5 136q0 44 -19 81t-48 70.5t-62 64.5t-62 61t-48 60.5t-19 63.5q0 45 28.5 68t71.5 23q26 0 50.5 -10.5t49.5 -10.5q10 0 16 9v-97q-4 20 -14.5 39t-26.5 33t-35.5 22.5t-40.5 8.5q-37 0 -63.5 -20t-26.5 -60q0 -31 21 -59.5t52 -57.5
t67.5 -58.5t67.5 -63t52 -71.5t21 -83z" />
    <glyph glyph-name="sacute" unicode="&#x15b;" horiz-adv-x="380" 
d="M239 599l-49 -61h-10l20 61h39zM351 113q0 -30 -15 -52t-38 -37t-50.5 -22.5t-53.5 -7.5q-18 0 -34.5 4.5t-32.5 9.5t-31 9.5t-29 4.5q-20 0 -33 -18v128q18 -54 57 -91t99 -37q23 0 47 5t43.5 16t32 30t12.5 46q0 33 -20.5 55.5t-51.5 40t-66.5 33t-66.5 36t-51.5 47.5
t-20.5 68q0 30 12 52.5t31.5 37t45.5 22t53 7.5q22 0 41.5 -6t35 -13.5t26.5 -13.5t17 -6q13 0 20.5 9.5t9.5 20.5v-72v-35q-7 23 -21 42.5t-33 34.5t-41.5 23.5t-46.5 8.5q-22 0 -44.5 -4.5t-40.5 -15.5t-29.5 -28.5t-11.5 -44.5q0 -33 20.5 -55.5t51.5 -40.5t67.5 -34.5
t67.5 -37.5t51.5 -49t20.5 -70z" />
    <glyph glyph-name="Scircumflex" unicode="&#x15c;" horiz-adv-x="485" 
d="M273 595l-45 -41h-11l43 56h25l44 -56h-10zM458 23q0 -47 -15 -86t-42 -66.5t-65.5 -43t-85.5 -15.5q-45 0 -87 14t-73.5 40t-50.5 64.5t-19 86.5q0 44 14.5 77t40 55t60.5 33t77 11h18v-4q-38 0 -71.5 -14t-58 -39t-39 -58t-14.5 -72q0 -44 14.5 -78t40.5 -57
t61.5 -35.5t77.5 -12.5q86 0 135.5 51t49.5 136q0 44 -19 81t-48 70.5t-62 64.5t-62 61t-48 60.5t-19 63.5q0 45 28.5 68t71.5 23q26 0 50.5 -10.5t49.5 -10.5q10 0 16 9v-97q-4 20 -14.5 39t-26.5 33t-35.5 22.5t-40.5 8.5q-37 0 -63.5 -20t-26.5 -60q0 -31 21 -59.5
t52 -57.5t67.5 -58.5t67.5 -63t52 -71.5t21 -83z" />
    <glyph glyph-name="scircumflex" unicode="&#x15d;" horiz-adv-x="380" 
d="M203 595l-45 -41h-11l43 56h25l44 -56h-10zM351 113q0 -30 -15 -52t-38 -37t-50.5 -22.5t-53.5 -7.5q-18 0 -34.5 4.5t-32.5 9.5t-31 9.5t-29 4.5q-20 0 -33 -18v128q18 -54 57 -91t99 -37q23 0 47 5t43.5 16t32 30t12.5 46q0 33 -20.5 55.5t-51.5 40t-66.5 33t-66.5 36
t-51.5 47.5t-20.5 68q0 30 12 52.5t31.5 37t45.5 22t53 7.5q22 0 41.5 -6t35 -13.5t26.5 -13.5t17 -6q13 0 20.5 9.5t9.5 20.5v-72v-35q-7 23 -21 42.5t-33 34.5t-41.5 23.5t-46.5 8.5q-22 0 -44.5 -4.5t-40.5 -15.5t-29.5 -28.5t-11.5 -44.5q0 -33 20.5 -55.5t51.5 -40.5
t67.5 -34.5t67.5 -37.5t51.5 -49t20.5 -70z" />
    <glyph glyph-name="Scedilla" unicode="&#x15e;" horiz-adv-x="485" 
d="M272 -238q0 -17 -13 -25t-27 -8q-16 0 -29 7q17 0 32 9t15 29q0 15 -13 20v18q-44 2 -83.5 17t-69 41t-47 63t-17.5 84q0 44 14.5 77t40 55t60.5 33t77 11h18v-4q-38 0 -71.5 -14t-58 -39t-39 -58.5t-14.5 -71.5q0 -44 14.5 -78t40.5 -57t61.5 -35.5t77.5 -12.5
q86 0 135.5 51t49.5 136q0 44 -19 81.5t-48 70.5t-62 63.5t-62 60.5t-48 61t-19 64q0 45 28.5 68t71.5 23q26 0 50.5 -10.5t49.5 -10.5q10 0 16 9v-97q-4 20 -14.5 39t-26.5 33t-35.5 22.5t-40.5 8.5q-37 0 -63.5 -20t-26.5 -60q0 -31 21 -60t52 -57.5t67.5 -58.5t67.5 -63
t52 -71t21 -83q0 -48 -15 -87t-42.5 -66.5t-66.5 -42.5t-87 -15v-12q10 -6 17.5 -16t7.5 -22z" />
    <glyph glyph-name="scedilla" unicode="&#x15f;" horiz-adv-x="380" 
d="M224 -53q0 -17 -13 -25t-27 -8q-16 0 -29 7q17 0 32 9t15 29q0 15 -13 20v15q-16 1 -32 5.5t-31.5 9.5t-30 9t-28.5 4q-21 0 -33 -18v128q18 -54 57 -91t99 -37q23 0 47 5t43.5 16t32 30t12.5 46q0 33 -20.5 55.5t-51.5 40t-66.5 33t-66.5 36t-51.5 47.5t-20.5 68
q0 30 12 52.5t31.5 37t45.5 22t53 7.5q22 0 41.5 -6t35 -13.5t26.5 -13.5t17 -6q13 0 20 9.5t10 20.5v-72v-35q-7 23 -21 42.5t-33 34.5t-41.5 23.5t-46.5 8.5q-22 0 -44.5 -4.5t-40.5 -15.5t-29.5 -28.5t-11.5 -44.5q0 -33 20.5 -55.5t51.5 -40.5t67.5 -34.5t67.5 -37.5
t51.5 -49t20.5 -70q0 -29 -14.5 -51t-36.5 -37t-49 -22.5t-52 -8.5v-9q10 -6 17.5 -16t7.5 -22z" />
    <glyph glyph-name="Scaron" unicode="&#x160;" horiz-adv-x="485" 
d="M319 606l-43 -56h-25l-44 56h10l46 -41l45 41h11zM458 23q0 -47 -15 -86t-42 -66.5t-65.5 -43t-85.5 -15.5q-45 0 -87 14t-73.5 40t-50.5 64.5t-19 86.5q0 44 14.5 77t40 55t60.5 33t77 11h18v-4q-38 0 -71.5 -14t-58 -39t-39 -58t-14.5 -72q0 -44 14.5 -78t40.5 -57
t61.5 -35.5t77.5 -12.5q86 0 135.5 51t49.5 136q0 44 -19 81t-48 70.5t-62 64.5t-62 61t-48 60.5t-19 63.5q0 45 28.5 68t71.5 23q26 0 50.5 -10.5t49.5 -10.5q10 0 16 9v-97q-4 20 -14.5 39t-26.5 33t-35.5 22.5t-40.5 8.5q-37 0 -63.5 -20t-26.5 -60q0 -31 21 -59.5
t52 -57.5t67.5 -58.5t67.5 -63t52 -71.5t21 -83z" />
    <glyph glyph-name="scaron" unicode="&#x161;" horiz-adv-x="380" 
d="M244 595l-43 -56h-25l-44 56h10l46 -41l45 41h11zM351 113q0 -30 -15 -52t-38 -37t-50.5 -22.5t-53.5 -7.5q-18 0 -34.5 4.5t-32.5 9.5t-31 9.5t-29 4.5q-20 0 -33 -18v128q18 -54 57 -91t99 -37q23 0 47 5t43.5 16t32 30t12.5 46q0 33 -20.5 55.5t-51.5 40t-66.5 33
t-66.5 36t-51.5 47.5t-20.5 68q0 30 12 52.5t31.5 37t45.5 22t53 7.5q22 0 41.5 -6t35 -13.5t26.5 -13.5t17 -6q13 0 20.5 9.5t9.5 20.5v-72v-35q-7 23 -21 42.5t-33 34.5t-41.5 23.5t-46.5 8.5q-22 0 -44.5 -4.5t-40.5 -15.5t-29.5 -28.5t-11.5 -44.5q0 -33 20.5 -55.5
t51.5 -40.5t67.5 -34.5t67.5 -37.5t51.5 -49t20.5 -70z" />
    <glyph glyph-name="uni0162" unicode="&#x162;" horiz-adv-x="556" 
d="M99 47q0 -17 7 -29.5t24 -17.5h-96q17 5 24.5 18t7.5 30v462q-26 1 -54.5 5t-55.5 12.5t-52 22t-44 32.5l3 9q41 -38 88 -53t102 -15q57 0 112 13t109.5 29t109.5 29t112 13q61 0 115 -16t94 -65l-9 -4q-29 44 -72 57.5t-93 13.5q-55 0 -109 -13t-107 -28.5t-107 -28.5
t-109 -13v-463zM371 -139q0 -48 -37 -74.5t-111 -26.5q-32 0 -50 5v55q18 -5 53 -5q37 0 55.5 9.5t18.5 34.5q0 43 -91 55l43 86h58l-26 -53q87 -19 87 -86z" />
    <glyph glyph-name="uni0163" unicode="&#x163;" horiz-adv-x="360" 
d="M238 51q0 -17 7.5 -31t24.5 -20h-98q18 6 25 19t7 32v431h-72q-35 0 -58 -17.5t-38 -46.5l17 72h338l18 -71q-15 29 -38.5 46t-57.5 17h-75v-431zM312 -139q0 -48 -37 -74.5t-111 -26.5q-32 0 -50 5v55q18 -5 53 -5q37 0 55.5 9.5t18.5 34.5q0 43 -91 55l43 86h58
l-26 -53q87 -19 87 -86z" />
    <glyph glyph-name="Tcaron" unicode="&#x164;" horiz-adv-x="220" 
d="M144 618l-43 -56h-25l-44 56h10l46 -41l45 41h11zM99 47q0 -17 7 -29.5t24 -17.5h-96q17 5 24.5 18t7.5 30v462q-26 1 -54.5 5t-55.5 12.5t-52 22t-44 32.5l3 9q41 -38 88 -53t102 -15q57 0 112 13t109.5 29t109.5 29t112 13q61 0 115 -16t94 -65l-9 -4q-29 44 -72 57.5
t-93 13.5q-55 0 -109 -13t-107 -28.5t-107 -28.5t-109 -13v-463z" />
    <glyph glyph-name="tcaron" unicode="&#x165;" horiz-adv-x="444" 
d="M278 595l-43 -56h-25l-44 56h10l46 -41l45 41h11zM238 51q0 -17 7.5 -31t24.5 -20h-98q18 6 25 19t7 32v431h-72q-35 0 -58 -17.5t-38 -46.5l17 72h338l18 -71q-15 29 -38.5 46t-57.5 17h-75v-431z" />
    <glyph glyph-name="Tbar" unicode="&#x166;" horiz-adv-x="556" 
d="M232 399v235h-222v80h535v-80h-223v-235h148v-74h-148v-325h-90v325h-149v74h149z" />
    <glyph glyph-name="tbar" unicode="&#x167;" horiz-adv-x="360" 
d="M266 62q42 0 73 11v-67q-13 -6 -39 -11t-54 -5q-154 0 -154 171v119h-68v66h68v122h-76v42l77 35l35 114h52v-123h155v-68h-155v-122h146v-66h-146v-114q0 -52 21 -78t65 -26z" />
    <glyph glyph-name="Utilde" unicode="&#x168;" horiz-adv-x="442" 
d="M583 658q-48 0 -83 -30t-58 -73.5t-34.5 -93t-11.5 -88.5v-205q0 -39 -9 -71t-28 -54.5t-48.5 -35t-70.5 -12.5q-85 0 -129 45t-44 128v272q0 18 -7 31.5t-25 18.5h97q-18 -5 -24 -19t-6 -31v-271q0 -33 8.5 -62t25.5 -51t43 -34.5t62 -12.5q77 0 111.5 43.5t34.5 116.5
v208q0 43 7 93.5t26.5 94t54 72.5t89.5 29q31 0 61 -9l-2 -5q-10 4 -19.5 5t-20.5 1zM310 559q-6 -12 -19 -18t-26 -6q-14 0 -26 5t-26 5q-8 0 -15.5 -2.5t-14.5 -5.5q8 11 20 17.5t26 6.5t26 -4t25 -4q8 0 15 2t15 4z" />
    <glyph glyph-name="utilde" unicode="&#x169;" horiz-adv-x="470" 
d="M310 559q-6 -12 -19 -18t-26 -6q-14 0 -26 5t-26 5q-8 0 -15.5 -2.5t-14.5 -5.5q8 11 20 17.5t26 6.5t26 -4t25 -4q8 0 15 2t15 4zM440 490q-19 -6 -32 -18t-13 -33v-272q0 -78 -36.5 -125t-119.5 -47q-85 0 -128.5 44.5t-43.5 127.5v272q0 18 -7 31.5t-25 19.5h97
q-18 -6 -24.5 -19.5t-6.5 -31.5v-271q0 -33 8.5 -62t26 -50.5t43.5 -34t61 -12.5q77 0 112 42.5t35 116.5v272q0 21 -13.5 32.5t-31.5 17.5h98z" />
    <glyph glyph-name="Umacron" unicode="&#x16a;" horiz-adv-x="442" 
d="M583 658q-48 0 -83 -30t-58 -73.5t-34.5 -93t-11.5 -88.5v-205q0 -39 -9 -71t-28 -54.5t-48.5 -35t-70.5 -12.5q-85 0 -129 45t-44 128v272q0 18 -7 31.5t-25 18.5h97q-18 -5 -24 -19t-6 -31v-271q0 -33 8.5 -62t25.5 -51t43 -34.5t62 -12.5q77 0 111.5 43.5t34.5 116.5
v208q0 43 7 93.5t26.5 94t54 72.5t89.5 29q31 0 61 -9l-2 -5q-10 4 -19.5 5t-20.5 1zM333 577v-17h-183v17h183z" />
    <glyph glyph-name="umacron" unicode="&#x16b;" horiz-adv-x="470" 
d="M325 577v-17h-183v17h183zM440 490q-19 -6 -32 -18t-13 -33v-272q0 -78 -36.5 -125t-119.5 -47q-85 0 -128.5 44.5t-43.5 127.5v272q0 18 -7 31.5t-25 19.5h97q-18 -6 -24.5 -19.5t-6.5 -31.5v-271q0 -33 8.5 -62t26 -50.5t43.5 -34t61 -12.5q77 0 112 42.5t35 116.5v272
q0 21 -13.5 32.5t-31.5 17.5h98z" />
    <glyph glyph-name="Ubreve" unicode="&#x16c;" horiz-adv-x="442" 
d="M583 658q-48 0 -83 -30t-58 -73.5t-34.5 -93t-11.5 -88.5v-205q0 -39 -9 -71t-28 -54.5t-48.5 -35t-70.5 -12.5q-85 0 -129 45t-44 128v272q0 18 -7 31.5t-25 18.5h97q-18 -5 -24 -19t-6 -31v-271q0 -33 8.5 -62t25.5 -51t43 -34.5t62 -12.5q77 0 111.5 43.5t34.5 116.5
v208q0 43 7 93.5t26.5 94t54 72.5t89.5 29q31 0 61 -9l-2 -5q-10 4 -19.5 5t-20.5 1zM314 608q-4 -30 -22.5 -46t-48.5 -16t-50 15.5t-24 46.5q10 -20 30.5 -31t42.5 -11t42.5 10.5t29.5 31.5z" />
    <glyph glyph-name="ubreve" unicode="&#x16d;" horiz-adv-x="470" 
d="M314 608q-4 -30 -22.5 -46t-48.5 -16t-50 15.5t-24 46.5q10 -20 30.5 -31t42.5 -11t42.5 10.5t29.5 31.5zM440 490q-19 -6 -32 -18t-13 -33v-272q0 -78 -36.5 -125t-119.5 -47q-85 0 -128.5 44.5t-43.5 127.5v272q0 18 -7 31.5t-25 19.5h97q-18 -6 -24.5 -19.5
t-6.5 -31.5v-271q0 -33 8.5 -62t26 -50.5t43.5 -34t61 -12.5q77 0 112 42.5t35 116.5v272q0 21 -13.5 32.5t-31.5 17.5h98z" />
    <glyph glyph-name="Uring" unicode="&#x16e;" horiz-adv-x="442" 
d="M583 658q-48 0 -83 -30t-58 -73.5t-34.5 -93t-11.5 -88.5v-205q0 -39 -9 -71t-28 -54.5t-48.5 -35t-70.5 -12.5q-85 0 -129 45t-44 128v272q0 18 -7 31.5t-25 18.5h97q-18 -5 -24 -19t-6 -31v-271q0 -33 8.5 -62t25.5 -51t43 -34.5t62 -12.5q77 0 111.5 43.5t34.5 116.5
v208q0 43 7 93.5t26.5 94t54 72.5t89.5 29q31 0 61 -9l-2 -5q-10 4 -19.5 5t-20.5 1zM276 549q0 -13 -8 -22t-22 -9t-22 9t-8 22t8.5 22t21.5 9t21.5 -9t8.5 -22zM230 549q0 -7 3.5 -16.5t12.5 -9.5q8 0 11.5 10t3.5 16t-3.5 16t-11.5 10q-9 0 -12.5 -9.5t-3.5 -16.5z" />
    <glyph glyph-name="uring" unicode="&#x16f;" horiz-adv-x="470" 
d="M276 549q0 -13 -8 -22t-22 -9t-22 9t-8 22t8.5 22t21.5 9t21.5 -9t8.5 -22zM230 549q0 -7 3.5 -16.5t12.5 -9.5q8 0 11.5 10t3.5 16t-3.5 16t-11.5 10q-9 0 -12.5 -9.5t-3.5 -16.5zM440 490q-19 -6 -32 -18t-13 -33v-272q0 -78 -36.5 -125t-119.5 -47q-85 0 -128.5 44.5
t-43.5 127.5v272q0 18 -7 31.5t-25 19.5h97q-18 -6 -24.5 -19.5t-6.5 -31.5v-271q0 -33 8.5 -62t26 -50.5t43.5 -34t61 -12.5q77 0 112 42.5t35 116.5v272q0 21 -13.5 32.5t-31.5 17.5h98z" />
    <glyph glyph-name="Uhungarumlaut" unicode="&#x170;" horiz-adv-x="442" 
d="M294 657q0 -6 -10 -18.5t-22.5 -27t-24.5 -27t-17 -17.5l-6 4l54 92q5 8 13 8q13 0 13 -14zM354 657q0 -6 -10 -18.5t-22.5 -27t-24.5 -27t-17 -17.5l-6 4l54 92q5 8 13 8q13 0 13 -14zM583 658q-48 0 -83 -30t-58 -73.5t-34.5 -93t-11.5 -88.5v-205q0 -39 -9 -71
t-28 -54.5t-48.5 -35t-70.5 -12.5q-85 0 -129 45t-44 128v272q0 18 -7 31.5t-25 18.5h97q-18 -5 -24 -19t-6 -31v-271q0 -33 8.5 -62t25.5 -51t43 -34.5t62 -12.5q77 0 111.5 43.5t34.5 116.5v208q0 43 7 93.5t26.5 94t54 72.5t89.5 29q31 0 61 -9l-2 -5q-10 4 -19.5 5
t-20.5 1z" />
    <glyph glyph-name="uhungarumlaut" unicode="&#x171;" horiz-adv-x="470" 
d="M294 657q0 -6 -10 -18.5t-22.5 -27t-24.5 -27t-17 -17.5l-6 4l54 92q5 8 13 8q13 0 13 -14zM354 657q0 -6 -10 -18.5t-22.5 -27t-24.5 -27t-17 -17.5l-6 4l54 92q5 8 13 8q13 0 13 -14zM440 490q-19 -6 -32 -18t-13 -33v-272q0 -78 -36.5 -125t-119.5 -47
q-85 0 -128.5 44.5t-43.5 127.5v272q0 18 -7 31.5t-25 19.5h97q-18 -6 -24.5 -19.5t-6.5 -31.5v-271q0 -33 8.5 -62t26 -50.5t43.5 -34t61 -12.5q77 0 112 42.5t35 116.5v272q0 21 -13.5 32.5t-31.5 17.5h98z" />
    <glyph glyph-name="Uogonek" unicode="&#x172;" horiz-adv-x="442" 
d="M278 -98q-8 -5 -17.5 -8.5t-20.5 -3.5q-20 0 -34 13.5t-14 33.5q0 21 15.5 35t32.5 23q-85 0 -129 45t-44 128v272q0 18 -7 31.5t-25 18.5h97q-18 -5 -24 -19t-6 -31v-271q0 -33 8.5 -62t25.5 -51t43 -34.5t62 -12.5q77 0 111.5 43.5t34.5 116.5v208q0 43 7 93.5t26.5 94
t54 72.5t89.5 29q31 0 61 -9l-2 -5q-10 4 -19.5 5t-20.5 1q-48 0 -83 -30t-58 -73.5t-34.5 -93t-11.5 -88.5v-205q0 -37 -8 -68t-25.5 -54t-45.5 -36.5t-67 -14.5q-14 -8 -25 -20.5t-11 -30.5q0 -13 6 -21t15.5 -12.5t21 -6.5t21.5 -2z" />
    <glyph glyph-name="uogonek" unicode="&#x173;" horiz-adv-x="470" 
d="M278 -98q-8 -5 -17.5 -8.5t-20.5 -3.5q-20 0 -34 13.5t-14 33.5q0 21 15.5 35t32.5 23q-85 0 -129 44.5t-44 127.5v272q0 18 -7 31.5t-25 19.5h97q-18 -6 -24.5 -19.5t-6.5 -31.5v-271q0 -33 8.5 -62t26 -50.5t43.5 -34t61 -12.5q77 0 112 42.5t35 116.5v272
q0 21 -13.5 32.5t-31.5 17.5h98q-19 -6 -32 -18t-13 -33v-272q0 -37 -8 -68t-25 -53.5t-45 -36t-67 -14.5q-14 -9 -25 -21t-11 -30q0 -13 6 -21t15.5 -12.5t21 -6.5t21.5 -2z" />
    <glyph glyph-name="Wcircumflex" unicode="&#x174;" horiz-adv-x="930" 
d="M290 760l-45 -41h-11l43 56h25l44 -56h-10zM468 58q17 -57 37.5 -108t50.5 -92t74.5 -69.5t109.5 -39.5l-1 -9q-76 9 -130 46t-93 92t-65.5 122.5t-47 138.5t-38 139.5t-38.5 124.5l-120 -402l-131 437q-5 17 -15.5 30.5t-26.5 21.5h98q-12 -4 -17 -15t-5 -22
q0 -6 7.5 -33t18.5 -65.5t24.5 -82.5t26 -84t22 -70.5t12.5 -41.5l101 338q-45 103 -118 156.5t-185 66.5v6q79 -5 138 -32t102.5 -69t74.5 -96.5t54 -116t41 -126.5t35 -128q3 10 12.5 40.5t21.5 70.5t26 85t25 83t18.5 65t7.5 32q0 15 -10.5 25.5t-24.5 13.5h95
q-20 -4 -33.5 -17.5t-19.5 -32.5z" />
    <glyph glyph-name="wcircumflex" unicode="&#x175;" horiz-adv-x="786" 
d="M220 595l-45 -41h-11l43 56h25l44 -56h-10zM631 490q-40 -9 -52 -50l-130 -439l-121 408l-120 -408l-130 438q-5 17 -15 30.5t-27 20.5h97q-11 -4 -16.5 -15t-5.5 -22q0 -7 7 -34.5t18 -65.5t24.5 -81.5t25.5 -83t22 -70t13 -42.5l103 347q-7 22 -15.5 40t-31.5 27h98
q-11 -4 -16.5 -15t-5.5 -22q0 -7 7 -34.5t18 -65.5t24.5 -81.5t25.5 -83t21.5 -70t13.5 -42.5q3 10 12.5 40.5t21.5 70.5t25.5 84.5t24.5 82.5t18.5 65t7.5 32q0 15 -10.5 25.5t-24.5 13.5h93z" />
    <glyph glyph-name="Ycircumflex" unicode="&#x176;" horiz-adv-x="565" 
d="M110 760l-45 -41h-11l43 56h25l44 -56h-10zM238 50q0 -17 7 -31t24 -19h-97q18 5 24.5 19.5t6.5 31.5v162l-114 222q-8 16 -22 32.5t-31 22.5h97q-15 -7 -15 -26q0 -7 7.5 -25t19 -41.5t25 -49.5t26.5 -50.5t23.5 -43.5t15.5 -28q32 31 52 72.5t37.5 86t36.5 87.5
t47.5 77.5t71.5 55.5t108 21v-8q-45 0 -80 -22t-63.5 -57.5t-52.5 -80t-47.5 -89t-49.5 -84.5t-57 -68v-167z" />
    <glyph glyph-name="ycircumflex" unicode="&#x177;" horiz-adv-x="509" 
d="M85 595l-45 -41h-11l43 56h25l44 -56h-10zM238 50q0 -18 7.5 -31t24.5 -19h-98q18 6 25 19t7 32v163l-116 221q-8 15 -21.5 32t-30.5 23h97q-15 -6 -15 -25q0 -15 8 -29l106 -204l96 185q4 8 6.5 16t2.5 16q0 14 -8 25t-21 16h98q-18 -7 -37 -26.5t-27 -36.5l-104 -202
v-175z" />
    <glyph glyph-name="Ydieresis" unicode="&#x178;" horiz-adv-x="447" 
d="M238 50q0 -17 7 -31t24 -19h-97q18 5 24.5 19.5t6.5 31.5v162l-114 222q-8 16 -22 32.5t-31 22.5h97q-15 -7 -15 -26q0 -7 7.5 -25t19 -41.5t25 -49.5t26.5 -50.5t23.5 -43.5t15.5 -28q32 31 52 72.5t37.5 86t36.5 87.5t47.5 77.5t71.5 55.5t108 21v-8q-45 0 -80 -22
t-63.5 -57.5t-52.5 -80t-47.5 -89t-49.5 -84.5t-57 -68v-167zM219 550q0 -19 -18 -19t-18 19q0 18 18 18t18 -18zM298 550q0 -19 -19 -19q-18 0 -18 19q0 18 18 18q19 0 19 -18z" />
    <glyph glyph-name="Zacute" unicode="&#x179;" horiz-adv-x="408" 
d="M314 599l-49 -61h-10l20 61h39zM691 -90q-35 -16 -76.5 -33t-80.5 -17q-63 0 -119 22t-111 48t-112 48t-120 22h-36l297 482h-171q-33 0 -57.5 -17.5t-38.5 -46.5l17 72h295l-297 -481q61 0 120 -19.5t118.5 -43.5t119 -43.5t121.5 -19.5q33 0 66 8t62 24z" />
    <glyph glyph-name="zacute" unicode="&#x17a;" horiz-adv-x="412" 
d="M314 599l-49 -61h-10l20 61h39zM256 8q35 0 57.5 17.5t37.5 46.5l-17 -72h-299l297 482h-171q-34 0 -57.5 -17.5t-38.5 -46.5l18 72h294l-296 -482h175z" />
    <glyph glyph-name="Zdotaccent" unicode="&#x17b;" horiz-adv-x="408" 
d="M268 555q0 -9 -7 -16t-16 -7q-10 0 -16.5 6.5t-6.5 16.5t6.5 16t16.5 6q9 0 16 -6.5t7 -15.5zM691 -90q-35 -16 -76.5 -33t-80.5 -17q-63 0 -119 22t-111 48t-112 48t-120 22h-36l297 482h-171q-33 0 -57.5 -17.5t-38.5 -46.5l17 72h295l-297 -481q61 0 120 -19.5
t118.5 -43.5t119 -43.5t121.5 -19.5q33 0 66 8t62 24z" />
    <glyph glyph-name="zdotaccent" unicode="&#x17c;" horiz-adv-x="412" 
d="M268 555q0 -9 -7 -16t-16 -7q-10 0 -16.5 6.5t-6.5 16.5t6.5 16t16.5 6q9 0 16 -6.5t7 -15.5zM256 8q35 0 57.5 17.5t37.5 46.5l-17 -72h-299l297 482h-171q-34 0 -57.5 -17.5t-38.5 -46.5l18 72h294l-296 -482h175z" />
    <glyph glyph-name="Zcaron" unicode="&#x17d;" horiz-adv-x="408" 
d="M310 595l-43 -56h-25l-44 56h10l46 -41l45 41h11zM691 -90q-35 -16 -76.5 -33t-80.5 -17q-63 0 -119 22t-111 48t-112 48t-120 22h-36l297 482h-171q-33 0 -57.5 -17.5t-38.5 -46.5l17 72h295l-297 -481q61 0 120 -19.5t118.5 -43.5t119 -43.5t121.5 -19.5q33 0 66 8
t62 24z" />
    <glyph glyph-name="zcaron" unicode="&#x17e;" horiz-adv-x="412" 
d="M310 595l-43 -56h-25l-44 56h10l46 -41l45 41h11zM256 8q35 0 57.5 17.5t37.5 46.5l-17 -72h-299l297 482h-171q-34 0 -57.5 -17.5t-38.5 -46.5l18 72h294l-296 -482h175z" />
    <glyph glyph-name="longs" unicode="&#x17f;" horiz-adv-x="326" 
d="M261 692q-46 0 -67 -28.5t-21 -86.5v-577h-88v577q0 188 177 188q49 0 100 -19l-23 -69q-44 15 -78 15z" />
    <glyph glyph-name="uni0180" unicode="&#x180;" horiz-adv-x="615" 
d="M339 545q106 0 163.5 -73t57.5 -204q0 -133 -58.5 -205.5t-162.5 -72.5q-54 0 -96.5 19.5t-69.5 58.5h-7q-15 -59 -18 -68h-63v605h-76v66h76v89h88v-89h213v-66h-213v-30q0 -55 -5 -110h5q54 80 166 80zM324 472q-81 0 -116 -46t-35 -155v-4q0 -110 36 -157t117 -47
q72 0 107.5 53t35.5 153q0 102 -35.5 152.5t-109.5 50.5z" />
    <glyph glyph-name="uni0181" unicode="&#x181;" horiz-adv-x="729" 
d="M151 637q-61 0 -61 -50q0 -30 10 -54h-79q-4 10 -7.5 26.5t-3.5 28.5q0 65 34.5 95.5t106.5 30.5h230q144 0 207.5 -43t63.5 -134q0 -63 -34.5 -104.5t-101.5 -53.5v-5q82 -14 121 -57t39 -114q0 -96 -66 -149.5t-182 -53.5h-251v637h-26zM267 410h132q84 0 122 27t38 90
q0 59 -41.5 84.5t-132.5 25.5h-118v-227zM267 335v-259h144q86 0 127.5 33.5t41.5 100.5q0 64 -44 94.5t-132 30.5h-137z" />
    <glyph glyph-name="uni0182" unicode="&#x182;" horiz-adv-x="615" 
d="M564 209q0 -105 -63.5 -157t-194.5 -52h-209v714h424v-79h-334v-223h106q137 0 204 -48.5t67 -154.5zM187 77h110q92 0 133 31t41 101q0 68 -43 96.5t-146 28.5h-95v-257z" />
    <glyph glyph-name="uni0183" unicode="&#x183;" horiz-adv-x="615" 
d="M339 545q106 0 163.5 -73t57.5 -204q0 -133 -58.5 -205.5t-162.5 -72.5q-54 0 -96.5 19.5t-69.5 58.5h-7q-15 -59 -18 -68h-63v760h421v-74h-333v-111q0 -55 -5 -110h5q54 80 166 80zM324 472q-81 0 -116 -46t-35 -155v-4q0 -110 36 -157t117 -47q72 0 107.5 53t35.5 153
q0 102 -35.5 152.5t-109.5 50.5z" />
    <glyph glyph-name="uni0184" unicode="&#x184;" horiz-adv-x="634" 
d="M180 210q0 -77 37.5 -110t122.5 -33q80 0 115.5 35.5t35.5 102.5q0 69 -48 99t-140 30h-123v-124zM90 714h90v-302h134q129 0 199.5 -53t70.5 -154t-63.5 -158t-179.5 -57q-251 0 -251 220v504z" />
    <glyph glyph-name="uni0185" unicode="&#x185;" horiz-adv-x="611" 
d="M322 -10q-115 0 -177.5 72.5t-62.5 204.5v493h88v-185q0 -55 -5 -110h5q54 80 166 80q106 0 163.5 -73t57.5 -204q0 -134 -61 -206t-174 -72zM170 265q0 -96 40.5 -149t112.5 -53t107.5 53t35.5 153q0 102 -35.5 152.5t-109.5 50.5q-81 0 -116 -46t-35 -155v-6z" />
    <glyph glyph-name="uni0186" unicode="&#x186;" horiz-adv-x="631" 
d="M243 724q158 0 243 -96t85 -272q0 -110 -39.5 -192.5t-114.5 -128t-174 -45.5q-55 0 -98 6.5t-86 22.5v78q94 -28 170 -28q115 0 181 77t66 211q0 137 -63.5 212.5t-183.5 75.5q-77 0 -162 -39l-36 76q84 42 212 42z" />
    <glyph glyph-name="uni0187" unicode="&#x187;" horiz-adv-x="631" 
d="M403 645q-115 0 -181 -77t-66 -211q0 -138 64 -213t182 -75q76 0 171 28v-78q-45 -17 -87 -23t-97 -6q-158 0 -243 96t-85 272q0 110 41 193t118.5 128t183.5 45q61 0 117 -14v14q0 64 27 99t88 35q30 0 60 -13v-72q-24 10 -52 10q-47 0 -47 -48v-51l-36 -78
q-33 15 -71.5 27t-86.5 12z" />
    <glyph glyph-name="uni0188" unicode="&#x188;" horiz-adv-x="502" 
d="M300 -10q-116 0 -180.5 71t-64.5 204q0 135 65.5 208t185.5 73q27 0 65 -6v91q0 64 26.5 99t88.5 35q29 0 60 -13v-73q-23 10 -52 10q-47 0 -47 -48v-124l-27 -73q-68 25 -116 25q-81 0 -119.5 -51t-38.5 -152q0 -97 38.5 -148.5t114.5 -51.5q71 0 139 31v-78
q-55 -29 -138 -29z" />
    <glyph glyph-name="uni0189" unicode="&#x189;" horiz-adv-x="729" 
d="M455 245q0 -51 -19.5 -95.5t-52.5 -77.5t-77.5 -52.5t-95.5 -19.5h-175q18 5 25 19.5t7 31.5v180h-67v17h67v190q0 17 -7 32t-25 20h167q50 0 96 -19t81 -52.5t55.5 -78t20.5 -95.5zM101 9h68q53 0 98 16.5t77.5 47t51 74.5t18.5 98t-18.5 98t-51 75t-77.5 47.5t-98 16.5
h-68v-234h72v-17h-72v-222z" />
    <glyph glyph-name="uni018A" unicode="&#x18a;" horiz-adv-x="810" 
d="M654 361q0 136 -67 206t-203 70h-117v-560h97q290 0 290 284zM397 714q168 0 260 -92.5t92 -257.5q0 -177 -96.5 -270.5t-276.5 -93.5h-199v637h-26q-61 0 -61 -50q0 -30 10 -54h-79q-4 10 -7.5 26.5t-3.5 28.5q0 65 34.5 95.5t106.5 30.5h246z" />
    <glyph glyph-name="uni018B" unicode="&#x18b;" horiz-adv-x="615" 
d="M428 335h-82q-106 0 -154 -32t-48 -101q0 -63 44 -94t139 -31h101v258zM518 714v-714h-199q-268 0 -268 198q0 103 73.5 158.5t211.5 55.5h92v223h-334v79h424z" />
    <glyph glyph-name="uni018C" unicode="&#x18c;" horiz-adv-x="615" 
d="M289 63q80 0 117 43.5t37 143.5v16q0 112 -37.5 159.5t-117.5 47.5q-68 0 -105 -54t-37 -154t37 -151t106 -51zM530 0h-71l-13 72h-4q-56 -82 -167 -82q-104 0 -162 72.5t-58 204.5q0 131 58 205t163 74q108 0 166 -79h6q-1 10 -3.5 39.5t-2.5 39.5v140h-333v74h421v-760
z" />
    <glyph glyph-name="uni018D" unicode="&#x18d;" horiz-adv-x="604" 
d="M341 294q66 -38 95 -77t29 -87q0 -64 -48 -102t-132 -38q-51 0 -97 11.5t-109 42.5l38 69q37 -21 79 -36t93 -15q40 0 63.5 18.5t23.5 50.5q0 34 -26.5 60t-107.5 70q-104 57 -146 117t-42 136q0 115 66 180.5t184 65.5q112 0 179 -60.5t67 -163.5q0 -87 -54 -149.5
t-155 -92.5zM145 515q0 -62 30 -105.5t96 -77.5q92 22 139.5 74t47.5 131q0 67 -41.5 108.5t-112.5 41.5q-77 0 -118 -44.5t-41 -127.5z" />
    <glyph glyph-name="uni018E" unicode="&#x18e;" horiz-adv-x="556" 
d="M60 79h309v255h-291v78h291v223h-309v79h399v-714h-399v79z" />
    <glyph glyph-name="uni018F" unicode="&#x18f;" horiz-adv-x="738" 
d="M332 646q-110 0 -228 -41v82q61 21 114 29.5t116 8.5q162 0 252.5 -97.5t90.5 -271.5q0 -171 -85 -268.5t-237 -97.5q-147 0 -221.5 92t-74.5 275v34h523q-8 126 -71 190.5t-179 64.5zM355 69q100 0 159.5 63.5t67.5 179.5h-427q0 -125 49 -184t151 -59z" />
    <glyph glyph-name="uni0190" unicode="&#x190;" horiz-adv-x="587" 
d="M87 547q0 82 60.5 129.5t166.5 47.5q64 0 124 -18.5t109 -55.5l-43 -61q-52 36 -94 48.5t-94 12.5q-63 0 -99.5 -30.5t-36.5 -81.5q0 -60 48 -95.5t145 -35.5h97v-75h-102q-110 0 -165 -33t-55 -97q0 -67 48.5 -102.5t139.5 -35.5q105 0 214 52v-82q-90 -44 -219 -44
q-135 0 -206 52t-71 153q0 76 46.5 121t137.5 57v4q-72 12 -111.5 56.5t-39.5 113.5z" />
    <glyph glyph-name="uni0191" unicode="&#x191;" horiz-adv-x="519" 
d="M45 -240q-32 0 -56 13v76q21 -10 45 -10q35 0 49 20t14 62v793h399v-79h-309v-253h290v-79h-290v-386q0 -157 -142 -157z" />
    <glyph glyph-name="florin" unicode="&#x192;" horiz-adv-x="571" 
d="M161 -240q-36 0 -68 9v73q34 -9 63 -9q45 0 63.5 23.5t18.5 79.5v470h-105v41l105 30v65q0 94 39.5 138t129.5 44q45 0 103 -21l-22 -68q-50 16 -78 16q-46 0 -65 -24.5t-19 -83.5v-69h135v-68h-133v-470q0 -91 -40 -133.5t-127 -42.5z" />
    <glyph glyph-name="uni0193" unicode="&#x193;" horiz-adv-x="728" 
d="M407 377h247v-350q-57 -18 -115.5 -27.5t-135.5 -9.5q-163 0 -252.5 97t-89.5 270q0 112 44.5 195.5t128 127.5t197.5 44q71 0 137 -17v17q0 64 27 99t88 35q29 0 60 -13v-72q-24 10 -52 10q-47 0 -47 -48v-53l-34 -78q-94 41 -184 41q-127 0 -199 -77t-72 -211
q0 -142 68.5 -215.5t200.5 -73.5q72 0 140 17v212h-157v80z" />
    <glyph glyph-name="uni0194" unicode="&#x194;" horiz-adv-x="569" 
d="M334 108q33 -65 50 -121t17 -94q0 -59 -32 -96t-84 -37q-54 0 -85 37.5t-31 95.5q0 78 67 214l-236 607h94q89 -237 136.5 -362t54.5 -167q10 51 50 158l140 371h95zM319 -105q0 26 -8.5 62t-25.5 68q-19 -38 -26.5 -72t-7.5 -56q0 -31 9.5 -45t24.5 -14q34 0 34 57z" />
    <glyph glyph-name="uni0195" unicode="&#x195;" horiz-adv-x="934" 
d="M639 63q67 0 96.5 36t29.5 113v324h88v-327q0 -114 -51 -166.5t-163 -52.5q-110 0 -162 48.5t-52 147.5v157q0 65 -26 97t-83 32q-74 0 -108.5 -45.5t-34.5 -149.5v-277h-88v760h88v-223q0 -44 -5 -75h6q24 42 66 62.5t90 20.5q91 0 137 -46.5t46 -149.5v-157
q0 -65 30.5 -97t95.5 -32z" />
    <glyph glyph-name="uni0196" unicode="&#x196;" horiz-adv-x="348" 
d="M179 714v-549q0 -48 18 -72t59 -24q21 0 44 3.5t38 7.5v-74q-13 -6 -40 -11t-55 -5q-80 0 -116.5 41.5t-36.5 125.5v557h89z" />
    <glyph glyph-name="uni0197" unicode="&#x197;" horiz-adv-x="338" 
d="M298 0h-258v52l84 19v256h-90v78h90v237l-84 20v52h258v-52l-84 -20v-237h90v-78h-90v-256l84 -19v-52z" />
    <glyph glyph-name="uni0198" unicode="&#x198;" horiz-adv-x="619" 
d="M327 405l292 -405h-106q-30 40 -121 172q-71 103 -126 170l-79 -77v-265h-90v714h90v-360q28 35 60 72q21 24 185 225q29 38 54.5 53.5t66.5 15.5q30 0 50 -8v-70q-21 3 -44 3q-17 0 -31.5 -10t-36.5 -36z" />
    <glyph glyph-name="uni0199" unicode="&#x199;" horiz-adv-x="534" 
d="M172 363l-4 -87h4l30 38l34 41l171 181h103l-217 -229l232 -307h-106l-186 250l-61 -53v-197h-87v625q0 140 121 140q33 0 65 -13v-73q-23 10 -52 10q-23 0 -35 -13t-12 -45v-268z" />
    <glyph glyph-name="uni019A" unicode="&#x19a;" horiz-adv-x="257" 
d="M173 420h70v-66h-70v-354h-88v354h-70v66h70v340h88v-340z" />
    <glyph glyph-name="uni019B" unicode="&#x19b;" horiz-adv-x="541" 
d="M-6 0l231 526l-23 64l-106 -32l-19 63l99 30q-13 22 -29.5 32t-45.5 10q-30 0 -56 -6v71q33 8 66 8q53 0 87 -21t59 -69l109 33l19 -63l-102 -32l179 -498q10 -28 21.5 -41t28.5 -13q12 0 30 5v-65q-24 -12 -57 -12q-36 0 -58 18t-38 63l-73 205q-42 119 -50 159h-4
q-16 -62 -55 -154l-122 -281h-91z" />
    <glyph glyph-name="uni019C" unicode="&#x19c;" horiz-adv-x="1029" 
d="M180 714v-506q0 -70 29 -105t92 -35q84 0 124.5 47t40.5 147v452h90v-506q0 -70 29 -105t94 -35q84 0 123.5 49.5t39.5 164.5v432h90v-714h-71l-15 82h-5q-25 -42 -74 -67t-107 -25q-68 0 -110.5 24.5t-64.5 75.5h-5q-28 -48 -79.5 -74t-113.5 -26q-103 0 -150 53
t-47 165v506h90z" />
    <glyph glyph-name="uni019D" unicode="&#x19d;" horiz-adv-x="759" 
d="M97 714h104l22 -35l235 -362l124 -194h4q-1 12 -4 84t-3 104v403h84v-714h-105l-382 593h-4l2 -40q6 -89 6 -154v-482q0 -83 -34 -120t-101 -37q-32 0 -56 13v76q21 -10 45 -10q35 0 49 20t14 62v793z" />
    <glyph glyph-name="uni019E" unicode="&#x19e;" horiz-adv-x="618" 
d="M450 -240v583q0 64 -28.5 96.5t-91.5 32.5q-83 0 -120 -46.5t-37 -147.5v-278h-88v536h71l13 -73h5q25 40 70 61.5t99 21.5q99 0 146.5 -48t47.5 -149v-589h-87z" />
    <glyph glyph-name="uni019F" unicode="&#x19f;" horiz-adv-x="782" 
d="M720 358q0 -171 -86.5 -269.5t-242.5 -98.5q-158 0 -244 96.5t-86 272.5q0 174 85.5 270t245.5 96q155 0 241.5 -97.5t86.5 -269.5zM391 68q108 0 167.5 65t65.5 192h-467q6 -127 65.5 -192t168.5 -65zM392 646q-106 0 -165.5 -61.5t-69.5 -181.5h466q-9 121 -67.5 182
t-163.5 61z" />
    <glyph glyph-name="Ohorn" unicode="&#x1a0;" horiz-adv-x="784" 
d="M719 358q0 -173 -86.5 -270.5t-241.5 -97.5q-158 0 -244 96t-86 273q0 176 86 271t245 95t247 -104q33 9 48.5 39.5t15.5 99.5h95l7 -11q-15 -78 -47.5 -120.5t-83.5 -61.5q45 -85 45 -209zM156 358q0 -142 59.5 -216t175.5 -74t174.5 73t58.5 217q0 143 -58.5 215.5
t-173.5 72.5q-118 0 -177 -73.5t-59 -214.5z" />
    <glyph glyph-name="ohorn" unicode="&#x1a1;" horiz-adv-x="616" 
d="M551 269q0 -131 -66.5 -205t-183.5 -74q-73 0 -129 34t-86.5 97.5t-30.5 147.5q0 131 65.5 204t183.5 73q53 0 97.5 -18t76.5 -51q24 7 38.5 23.5t21.5 41t7 76.5h94l7 -11q-16 -79 -46.5 -121.5t-82.5 -61.5q34 -69 34 -155zM146 269q0 -105 38.5 -155.5t118.5 -50.5
q83 0 120 52t37 154q0 100 -38 151.5t-120 51.5q-83 0 -119.5 -51.5t-36.5 -151.5z" />
    <glyph glyph-name="uni01A2" unicode="&#x1a2;" horiz-adv-x="1075" 
d="M688 358q0 -173 -82.5 -270.5t-230.5 -97.5q-150 0 -232 96.5t-82 272.5q0 174 82 270t233 96q142 0 224 -91q28 43 78 67t110 24q102 0 149.5 -52.5t47.5 -165.5v-507h-90v507q0 70 -29 105t-92 35q-53 0 -86.5 -15t-52.5 -46q53 -92 53 -228zM156 358q0 -142 56 -216
t163 -74t162.5 73t55.5 217q0 143 -55 215.5t-162 72.5q-108 0 -164 -73.5t-56 -214.5z" />
    <glyph glyph-name="uni01A3" unicode="&#x1a3;" horiz-adv-x="845" 
d="M526 269q0 -132 -63.5 -205.5t-173.5 -73.5q-69 0 -122.5 34t-82.5 98t-29 147q0 130 62.5 203.5t173.5 73.5q106 0 169 -72q26 37 64 54.5t80 17.5q80 0 120 -47t40 -150v-589h-87v585q0 127 -92 127q-63 0 -94 -44q35 -63 35 -159zM146 269q0 -101 36.5 -153.5
t107.5 -52.5t108 52t37 154q0 101 -37 152t-108 51q-144 0 -144 -203z" />
    <glyph glyph-name="uni01A4" unicode="&#x1a4;" horiz-adv-x="685" 
d="M267 355h72q106 0 154 34.5t48 110.5q0 69 -44.5 103t-138.5 34h-91v-282zM366 714q268 0 268 -210q0 -109 -74.5 -167.5t-210.5 -58.5h-82v-278h-90v637h-26q-61 0 -61 -50q0 -30 10 -54h-79q-4 10 -7.5 26.5t-3.5 28.5q0 65 34.5 95.5t106.5 30.5h215z" />
    <glyph glyph-name="uni01A5" unicode="&#x1a5;" horiz-adv-x="615" 
d="M207 765q33 0 65 -13v-73q-23 10 -52 10q-23 0 -35 -13t-12 -45v-80q0 -30 -4 -68l-2 -20h6q31 44 72 63.5t95 19.5q104 0 162 -72.5t58 -204.5q0 -131 -58 -205t-163 -74q-108 0 -166 78h-6l2 -20q4 -38 4 -68v-220h-88l1 865q0 140 121 140zM324 472q-80 0 -115 -45
t-36 -141v-17q0 -109 36 -157.5t117 -48.5q67 0 105 54.5t38 152.5t-38 150t-107 52z" />
    <glyph glyph-name="uni01A6" unicode="&#x1a6;" horiz-adv-x="622" 
d="M187 271h107q87 0 127 34t40 102q0 67 -40.5 98t-131.5 31h-102v-265zM187 195v-195h-90v714h90v-100h107q133 0 196.5 -50.5t63.5 -152.5q0 -142 -143 -191l196 -320h-105l-173 295h-142z" />
    <glyph glyph-name="uni01A7" unicode="&#x1a7;" horiz-adv-x="548" 
d="M47 191q0 48 20 84t61 63.5t124 58.5q68 25 98.5 44t44 42t13.5 58q0 49 -36 76.5t-99 27.5q-72 0 -154 -38l-28 77q85 40 180 40q102 0 165 -49.5t63 -132.5q0 -76 -41.5 -125.5t-142.5 -86.5q-78 -28 -113 -48t-50 -43t-15 -56q0 -54 40.5 -84.5t120.5 -30.5
q91 0 200 47v-86q-34 -17 -85 -28t-111 -11q-120 0 -187.5 54t-67.5 147z" />
    <glyph glyph-name="uni01A8" unicode="&#x1a8;" horiz-adv-x="479" 
d="M45 148q0 37 15 64t46.5 48.5t99.5 46.5q88 34 113 53t25 49t-28 47.5t-83 17.5q-50 0 -132 -34l-30 70q81 36 156 36q98 0 149.5 -36.5t51.5 -105.5q0 -37 -14.5 -63t-45 -47t-106.5 -50q-53 -20 -81 -35.5t-39.5 -31t-11.5 -37.5q0 -39 32 -59t95 -20q84 0 170 43v-80
q-62 -34 -168 -34q-214 0 -214 158z" />
    <glyph glyph-name="uni01A9" unicode="&#x1a9;" horiz-adv-x="569" 
d="M36 0v74l234 299l-228 266v75h475v-80h-325l-47 1l225 -261l-235 -296l163 1h248v-79h-510z" />
    <glyph glyph-name="uni01AA" unicode="&#x1aa;" horiz-adv-x="309" 
d="M67 542q-60 0 -91.5 29.5t-31.5 82.5q0 54 32.5 82.5t92.5 28.5q63 0 96.5 -36t33.5 -105v-696q0 -49 18 -72.5t59 -23.5q19 0 43.5 3t38.5 8v-67q-15 -7 -41.5 -11.5t-52.5 -4.5q-80 0 -116 41t-36 126v615h-45zM63 693q-21 0 -30 -12t-9 -27q0 -40 49 -40h39v13
q0 35 -12.5 50.5t-36.5 15.5z" />
    <glyph glyph-name="uni01AB" unicode="&#x1ab;" horiz-adv-x="360" 
d="M222 -240q-29 0 -60 12v73q22 -9 50 -9q48 0 48 52v102h-11q-157 0 -157 166v312h-76v42l77 35l35 114h52v-123h155v-68h-155v-310q0 -46 22.5 -71t61.5 -25q17 0 40 3.5t35 7.5v-180q0 -133 -117 -133z" />
    <glyph glyph-name="uni01AC" unicode="&#x1ac;" horiz-adv-x="576" 
d="M151 635q-61 0 -61 -48q0 -30 10 -54h-79q-4 10 -7.5 26.5t-3.5 28.5q0 65 34.5 95.5t106.5 30.5h414v-79h-222v-635h-90v635h-102z" />
    <glyph glyph-name="uni01AD" unicode="&#x1ad;" horiz-adv-x="360" 
d="M180 536h155v-68h-155v-310q0 -46 22.5 -71t61.5 -25q17 0 40 3.5t35 7.5v-67q-12 -5 -38 -10.5t-52 -5.5q-157 0 -157 166v312h-76v42l77 35v66q0 154 147 154q39 0 77 -13v-73q-11 4 -34.5 7t-42.5 3q-32 0 -46 -17t-14 -51v-85z" />
    <glyph glyph-name="uni01AE" unicode="&#x1ae;" horiz-adv-x="556" 
d="M233 635h-223v79h535v-79h-222v-714q0 -42 14.5 -62t48.5 -20q24 0 45 10v-76q-24 -13 -63 -13q-68 0 -101.5 37t-33.5 120v718z" />
    <glyph glyph-name="Uhorn" unicode="&#x1af;" horiz-adv-x="779" 
d="M640 714v-97q40 5 59 37t19 106h93l7 -11q-16 -90 -59 -135.5t-119 -58.5v-303q0 -125 -70.5 -193.5t-200.5 -68.5q-133 0 -206 70.5t-73 193.5v460h90v-464q0 -86 47.5 -134t143.5 -48q88 0 134 46.5t46 136.5v463h89z" />
    <glyph glyph-name="uhorn" unicode="&#x1b0;" horiz-adv-x="673" 
d="M168 535v-344q0 -65 29 -96.5t90 -31.5q83 0 120.5 46t37.5 148v278h88v-59q39 6 57 37.5t18 105.5h93l7 -11q-16 -93 -59 -139.5t-116 -54.5v-414h-72l-13 71h-4q-24 -39 -67.5 -60t-100.5 -21q-98 0 -147.5 46.5t-49.5 148.5v350h89z" />
    <glyph glyph-name="uni01B1" unicode="&#x1b1;" horiz-adv-x="782" 
d="M391 68q114 0 173 62t59 183q0 110 -40.5 189t-126.5 140v72h288v-79h-178q74 -57 113 -141t39 -184q0 -150 -87 -235.5t-240 -85.5q-155 0 -241.5 85t-86.5 235q0 100 39 185t112 141h-177v79h288v-72q-87 -62 -127.5 -142t-40.5 -187q0 -120 59.5 -182.5t174.5 -62.5z
" />
    <glyph glyph-name="uni01B2" unicode="&#x1b2;" horiz-adv-x="600" 
d="M571 580q0 -53 -45 -157l-181 -423h-90l-255 714h94l162 -466q31 -88 45 -156q8 30 27 73q21 50 32 81l85 203q36 88 36 125q0 39 -16 55t-47 16q-24 0 -45 -10v76q22 13 63 13q135 0 135 -144z" />
    <glyph glyph-name="uni01B3" unicode="&#x1b3;" horiz-adv-x="565" 
d="M39 649q-21 0 -39 -8v73q28 11 60 11q37 0 59.5 -17.5t40.5 -57.5l128 -287l181 351h97l-233 -437v-277h-90v273l-162 341q-18 35 -42 35z" />
    <glyph glyph-name="uni01B4" unicode="&#x1b4;" horiz-adv-x="541" 
d="M485 546q33 0 57 -12v-65q-18 5 -30 5q-18 0 -28.5 -13t-21.5 -41l-183 -494q-32 -87 -79 -126.5t-116 -39.5q-37 0 -73 8v70q24 -6 59 -6q85 0 121 95l26 71l-216 538h94l116 -305q37 -100 45 -146h4q8 36 48 147l76 217q19 54 41 75.5t60 21.5z" />
    <glyph glyph-name="uni01B5" unicode="&#x1b5;" horiz-adv-x="571" 
d="M79 407h184l151 227h-364v80h473v-68l-159 -239h122v-71h-169l-170 -256h386v-80h-495v68l178 268h-137v71z" />
    <glyph glyph-name="uni01B6" unicode="&#x1b6;" horiz-adv-x="470" 
d="M57 313h161l109 155h-271v68h368v-66l-111 -157h101v-70h-151l-123 -175h291v-68h-392v58l130 185h-112v70z" />
    <glyph glyph-name="uni01B7" unicode="&#x1b7;" horiz-adv-x="583" 
d="M291 440q68 -2 122.5 -30t85 -76.5t30.5 -112.5q0 -109 -76 -170t-212 -61q-126 0 -206 39v82q49 -23 104 -35t103 -12q97 0 145 41t48 117q0 69 -49.5 107t-143.5 38h-62v65l206 202h-331v80h444v-71z" />
    <glyph glyph-name="uni01B8" unicode="&#x1b8;" horiz-adv-x="583" 
d="M85 643v71h444v-80h-330l205 -202v-65h-78q-84 0 -130.5 -40.5t-46.5 -113.5q0 -71 49.5 -110t143.5 -39q49 0 103.5 11.5t103.5 35.5v-82q-45 -21 -98.5 -30t-119.5 -9q-87 0 -149 27t-94.5 77t-32.5 117q0 68 30 119t84.5 79.5t123.5 30.5z" />
    <glyph glyph-name="uni01B9" unicode="&#x1b9;" horiz-adv-x="498" 
d="M61 472v64h409v-74h-306l219 -243v-61h-59q-101 0 -151.5 -42.5t-50.5 -124.5q0 -71 47 -114.5t126 -43.5q100 0 189 42v-80q-68 -35 -196 -35q-113 0 -183.5 63t-70.5 166q0 105 64.5 168t181.5 71z" />
    <glyph glyph-name="uni01BA" unicode="&#x1ba;" horiz-adv-x="498" 
d="M216 -167q84 0 160 36v-80q-60 -29 -161 -29q-90 0 -138.5 31t-48.5 88q0 62 46.5 91.5t137.5 29.5q80 0 114.5 27.5t34.5 94.5q0 60 -44.5 88t-142.5 28h-59v61l183 163h-270v74h394v-64l-187 -164q104 -5 159 -51.5t55 -133.5q0 -95 -59.5 -145.5t-175.5 -50.5
q-53 0 -78 -10.5t-25 -37.5q0 -21 26.5 -33.5t78.5 -12.5z" />
    <glyph glyph-name="uni01BB" unicode="&#x1bb;" horiz-adv-x="569" 
d="M78 419h241q27 44 39 82t12 81q0 50 -29.5 78t-82.5 28q-45 0 -81.5 -16.5t-73.5 -49.5l-47 59q93 84 204 84q94 0 147.5 -48.5t53.5 -132.5q0 -42 -10.5 -81.5t-35.5 -83.5h100v-70h-144q-11 -16 -23.5 -32.5t-201.5 -242.5v-4h374v-70h-472v73l175 215l47 61h-192v70z
" />
    <glyph glyph-name="uni01BC" unicode="&#x1bc;" horiz-adv-x="583" 
d="M224 634v-193h42q77 0 137 -27t93 -76.5t33 -116.5q0 -109 -76 -170t-212 -61q-126 0 -206 39v82q49 -23 104 -35t103 -12q97 0 145 41t48 117q0 68 -47 106.5t-130 38.5h-124v267h-79v80h444v-80h-275z" />
    <glyph glyph-name="uni01BD" unicode="&#x1bd;" horiz-adv-x="490" 
d="M198 462v-117h23q107 0 165.5 -46.5t58.5 -135.5q0 -82 -60.5 -127.5t-168.5 -45.5q-118 0 -183 35v79q89 -42 182 -42q69 0 106 26.5t37 79.5t-37.5 79t-115.5 26h-95v189h-62v74h364v-74h-214z" />
    <glyph glyph-name="uni01BE" unicode="&#x1be;" horiz-adv-x="462" 
d="M136 378v90h-91v42l92 35l35 114h52v-123h155v-68h-155v-92q0 -34 10.5 -49.5t36.5 -24.5q83 -31 115 -66.5t32 -87.5q0 -75 -56 -116.5t-158 -41.5q-105 0 -168 34v80q86 -43 170 -43q66 0 96.5 21.5t30.5 57.5q0 29 -24 49.5t-90 47.5q-47 20 -65 52t-18 89z" />
    <glyph glyph-name="uni01BF" unicode="&#x1bf;" horiz-adv-x="586" 
d="M173 -240h-88v776h72l12 -73h4q55 83 158 83q96 0 152 -59t56 -164q0 -91 -45.5 -164.5t-130 -117.5t-190.5 -51v-230zM173 62q131 17 203 85.5t72 173.5q0 69 -36 110t-99 41q-73 0 -106.5 -44t-33.5 -142v-224z" />
    <glyph glyph-name="uni01C0" unicode="&#x1c0;" horiz-adv-x="516" 
d="M297 -240h-78v1000h78v-1000z" />
    <glyph glyph-name="uni01C1" unicode="&#x1c1;" horiz-adv-x="516" 
d="M169 -240h-78v1000h78v-1000zM426 -240h-78v1000h78v-1000z" />
    <glyph glyph-name="uni01C2" unicode="&#x1c2;" horiz-adv-x="516" 
d="M65 402h154v358h78v-358h154v-72h-154v-124h154v-72h-154v-374h-78v374h-154v72h154v124h-154v72z" />
    <glyph glyph-name="uni01C3" unicode="&#x1c3;" horiz-adv-x="269" 
d="M163 201h-57l-25 513h107zM72 54q0 32 16 49.5t46 17.5t46 -18t16 -49t-16.5 -49.5t-45.5 -18.5q-30 0 -46 18t-16 50z" />
    <glyph glyph-name="uni01C4" unicode="&#x1c4;" horiz-adv-x="1291" 
d="M879 775l-44 -56h-25l-43 56h11l45 -41l46 41h10zM473 312q0 -66 -20 -123t-58 -99t-92.5 -66t-123.5 -24h-145q18 5 25.5 19.5t7.5 31.5v389q0 17 -8 31t-25 19h101q-18 -5 -25.5 -19.5t-7.5 -31.5v-430h75q64 0 111.5 26.5t78.5 69.5t46.5 98.5t15.5 112.5
q0 69 -23 131t-65 108.5t-100.5 73.5t-130.5 27q-67 0 -126 -24t-102 -66.5t-68 -100.5t-25 -126q0 -221 210 -286l-10 -8q-48 12 -90 41t-73 68.5t-48.5 87t-17.5 97.5q0 74 29 134t77.5 102.5t112.5 66t134 23.5q73 0 138.5 -27.5t114.5 -75t78 -112t29 -138.5zM1411 -90
q-35 -16 -76.5 -33t-80.5 -17q-63 0 -119 22t-111 48t-112 48t-120 22h-36l297 482h-171q-33 0 -57.5 -17.5t-38.5 -46.5l17 72h295l-297 -481q61 0 120 -19.5t118.5 -43.5t119 -43.5t121.5 -19.5q33 0 66 8t62 24z" />
    <glyph glyph-name="uni01C5" unicode="&#x1c5;" horiz-adv-x="1200" 
d="M852 610l-44 -56h-25l-43 56h11l45 -41l46 41h10zM473 312q0 -66 -20 -123t-58 -99t-92.5 -66t-123.5 -24h-145q18 5 25.5 19.5t7.5 31.5v389q0 17 -8 31t-25 19h101q-18 -5 -25.5 -19.5t-7.5 -31.5v-430h75q64 0 111.5 26.5t78.5 69.5t46.5 98.5t15.5 112.5
q0 69 -23 131t-65 108.5t-100.5 73.5t-130.5 27q-67 0 -126 -24t-102 -66.5t-68 -100.5t-25 -126q0 -221 210 -286l-10 -8q-48 12 -90 41t-73 68.5t-48.5 87t-17.5 97.5q0 74 29 134t77.5 102.5t112.5 66t134 23.5q73 0 138.5 -27.5t114.5 -75t78 -112t29 -138.5zM986 8
q35 0 57.5 17.5t37.5 46.5l-17 -72h-299l297 482h-171q-34 0 -57.5 -17.5t-38.5 -46.5l18 72h294l-296 -482h175z" />
    <glyph glyph-name="uni01C6" unicode="&#x1c6;" horiz-adv-x="1084" 
d="M739 610l-44 -56h-25l-43 56h11l45 -41l46 41h10zM455 245q0 -51 -19.5 -95.5t-52.5 -77.5t-77.5 -52.5t-95.5 -19.5h-175q18 5 25 19.5t7 31.5v387q0 17 -7 32t-25 20h167q50 0 96 -19t81 -52.5t55.5 -78t20.5 -95.5zM101 9h68q53 0 98 16.5t77.5 47t51 74.5t18.5 98
t-18.5 98t-51 75t-77.5 47.5t-98 16.5h-68v-473zM871 8q35 0 57.5 17.5t37.5 46.5l-17 -72h-299l297 482h-171q-34 0 -57.5 -17.5t-38.5 -46.5l18 72h294l-296 -482h175z" />
    <glyph glyph-name="uni01C7" unicode="&#x1c7;" horiz-adv-x="796" 
d="M608 -101q-35 -18 -67.5 -30t-73.5 -12q-33 0 -63 10.5t-58 26.5t-56 34.5t-57 34.5t-61 26.5t-68 10.5h-71q19 5 26.5 19t7.5 32v389q0 18 -7.5 31.5t-26.5 18.5h101q-19 -5 -26 -18.5t-7 -31.5v-431q55 -2 104 -22.5t97 -44t97 -43t103 -19.5q30 0 53 6.5t50 18.5z
M624 64q0 -37 -8.5 -78.5t-26.5 -78t-47 -64t-71 -36.5v5q40 12 63.5 39.5t36 63t16 74.5t3.5 75v359q0 21 -5 40t-28 27h99q-20 -7 -26 -21t-6 -33v-372z" />
    <glyph glyph-name="uni01C8" unicode="&#x1c8;" horiz-adv-x="782" 
d="M608 -101q-35 -18 -67.5 -30t-73.5 -12q-33 0 -63 10.5t-58 26.5t-56 34.5t-57 34.5t-61 26.5t-68 10.5h-71q19 5 26.5 19t7.5 32v389q0 18 -7.5 31.5t-26.5 18.5h101q-19 -5 -26 -18.5t-7 -31.5v-431q55 -2 104 -22.5t97 -44t97 -43t103 -19.5q30 0 53 6.5t50 18.5z
M783 490q-18 -6 -25 -19t-7 -32v-305q0 -29 -3.5 -54.5t-14 -44t-31 -29t-55.5 -10.5q-11 0 -26 3t-29 9t-23.5 16t-9.5 24q0 9 4 17t15 8q10 0 13 -5t4 -12.5t2 -16t6 -16t16 -12.5t33 -5q26 0 39 13.5t19 33t6.5 42t0.5 40.5v304q0 18 -6.5 31.5t-24.5 19.5h97z" />
    <glyph glyph-name="uni01C9" unicode="&#x1c9;" horiz-adv-x="516" 
d="M245 8q35 0 58 17.5t38 46.5l-18 -72h-288q18 6 25 19t7 32v388q0 19 -7 32t-25 19h97q-18 -6 -24.5 -19.5t-6.5 -31.5v-431h144zM517 490q-18 -6 -25 -19t-7 -32v-305q0 -29 -3.5 -54.5t-14 -44t-31 -29t-55.5 -10.5q-11 0 -26 3t-29 9t-23.5 16t-9.5 24q0 9 4 17t15 8
q10 0 13 -5t4 -12.5t2 -16t6 -16t16 -12.5t33 -5q26 0 39 13.5t19 33t6.5 42t0.5 40.5v304q0 18 -6.5 31.5t-24.5 19.5h97z" />
    <glyph glyph-name="uni01CA" unicode="&#x1ca;" horiz-adv-x="1033" 
d="M755 -203q-23 -4 -50 -4q-75 0 -137 36t-115.5 94t-100 130.5t-90.5 146t-87 140t-89 111.5v-401q0 -20 13.5 -32.5t30.5 -17.5h-93q17 5 29.5 17.5t12.5 32.5v407q-42 43 -98.5 68.5t-117.5 25.5q-46 0 -89 -12l-3 10q48 12 98 12q65 0 122 -25t106.5 -67t92.5 -96
t80 -112t69.5 -115t60.5 -105v399q0 20 -12 32.5t-30 17.5h95q-17 -5 -30.5 -17.5t-13.5 -32.5v-412q25 -39 54 -79.5t64.5 -72.5t78.5 -52.5t94 -20.5h27t27 3zM860 64q0 -37 -8.5 -78.5t-26.5 -78t-47 -64t-71 -36.5v5q40 12 63.5 39.5t36 63t16 74.5t3.5 75v359
q0 21 -5 40t-28 27h99q-20 -7 -26 -21t-6 -33v-372z" />
    <glyph glyph-name="uni01CB" unicode="&#x1cb;" horiz-adv-x="1018" 
d="M755 -203q-23 -4 -50 -4q-75 0 -137 36t-115.5 94t-100 130.5t-90.5 146t-87 140t-89 111.5v-401q0 -20 13.5 -32.5t30.5 -17.5h-93q17 5 29.5 17.5t12.5 32.5v407q-42 43 -98.5 68.5t-117.5 25.5q-46 0 -89 -12l-3 10q48 12 98 12q65 0 122 -25t106.5 -67t92.5 -96
t80 -112t69.5 -115t60.5 -105v399q0 20 -12 32.5t-30 17.5h95q-17 -5 -30.5 -17.5t-13.5 -32.5v-412q25 -39 54 -79.5t64.5 -72.5t78.5 -52.5t94 -20.5h27t27 3zM1019 490q-18 -6 -25 -19t-7 -32v-305q0 -29 -3.5 -54.5t-14 -44t-31 -29t-55.5 -10.5q-11 0 -26 3t-29 9
t-23.5 16t-9.5 24q0 9 4 17t15 8q10 0 13 -5t4 -12.5t2 -16t6 -16t16 -12.5t33 -5q26 0 39 13.5t19 33t6.5 42t0.5 40.5v304q0 18 -6.5 31.5t-24.5 19.5h97z" />
    <glyph glyph-name="uni01CC" unicode="&#x1cc;" horiz-adv-x="875" 
d="M86 50q0 -20 13.5 -32t30.5 -18h-94q17 6 30 18t13 32v389q0 22 -12 33.5t-31 17.5h77l287 -414v364q0 21 -12.5 32.5t-30.5 17.5h94q-17 -6 -29.5 -18t-12.5 -32v-440l-323 465v-415zM877 490q-18 -6 -25 -19t-7 -32v-305q0 -29 -3.5 -54.5t-14 -44t-31 -29t-55.5 -10.5
q-11 0 -26 3t-29 9t-23.5 16t-9.5 24q0 9 4 17t15 8q10 0 13 -5t4 -12.5t2 -16t6 -16t16 -12.5t33 -5q26 0 39 13.5t19 33t6.5 42t0.5 40.5v304q0 18 -6.5 31.5t-24.5 19.5h97z" />
    <glyph glyph-name="uni01CD" unicode="&#x1cd;" horiz-adv-x="639" 
d="M202 788l-44 -56h-25l-43 56h11l45 -41l46 41h10zM91 54q0 -37 -6 -78t-21 -78.5t-41 -67.5t-65 -43l-4 9q31 11 51.5 33t31.5 49.5t15.5 58.5t4.5 61q0 49 -7 97t-7 97q0 48 12 93q-32 -4 -63.5 -17.5t-55.5 -34.5h-13q32 26 63 40.5t72 20.5q28 95 101 145.5t170 50.5
h61q-18 -6 -25 -19.5t-7 -31.5v-388q0 -17 7 -31.5t25 -19.5h-99q18 6 25.5 19.5t7.5 31.5v92q0 11 -4 19q-15 32 -40.5 55t-57 38.5t-66.5 23t-68 7.5q-4 -19 -5 -37.5t-1 -37.5q0 -39 4.5 -78t4.5 -79zM89 297q33 0 68 -8t66.5 -23.5t58 -38.5t42.5 -54v266q0 5 -1 12
t-3.5 13.5t-7 11t-12.5 4.5q-40 0 -75 -14.5t-62.5 -39t-46 -58t-27.5 -71.5z" />
    <glyph glyph-name="uni01CE" unicode="&#x1ce;" horiz-adv-x="561" 
d="M164 610l-44 -56h-25l-43 56h11l45 -41l46 41h10zM147 197q-4 -11 -13 -32t-18 -44t-15.5 -44t-6.5 -33q0 -19 11 -29t28 -15h-97q16 6 28 20t18 30l169 446l163 -444q6 -16 16 -31t27 -21h-102q11 4 18.5 15t7.5 23q0 7 -7.5 29.5t-17 48t-18.5 49t-12 32.5h-179z
M149 204h172l-85 231z" />
    <glyph glyph-name="uni01CF" unicode="&#x1cf;" horiz-adv-x="338" 
d="M54 788l-44 -56h-25l-43 56h11l45 -41l46 41h10zM636 -83q80 0 149 -33t126 -87l-4 -5q-57 51 -131.5 72.5t-149.5 21.5q-66 0 -130.5 -10.5t-128.5 -22.5t-128.5 -22.5t-130.5 -10.5q-51 0 -103.5 14t-95 42.5t-70 72t-27.5 101.5q0 55 19.5 101t53.5 79t81 51.5
t101 18.5v139q0 17 -6.5 31.5t-24.5 19.5h95q-18 -5 -24 -19.5t-6 -31.5v-140q29 0 58 -8.5t55 -24t47 -37t34 -47.5l-7 -4q-12 27 -32 47.5t-45 34.5t-53 21.5t-57 7.5v-239q0 -15 6.5 -30t23.5 -20h-95q18 5 24.5 20t6.5 32v236q-51 0 -93.5 -17t-73 -48t-47.5 -73.5
t-17 -93.5q0 -59 25 -102t65.5 -71.5t92 -42t103.5 -13.5q66 0 129.5 14t127 31t127.5 31t130 14z" />
    <glyph glyph-name="uni01D0" unicode="&#x1d0;" horiz-adv-x="257" 
d="M12 610l-44 -56h-25l-43 56h11l45 -41l46 41h10zM101 51q0 -18 6.5 -31.5t24.5 -19.5h-97q18 6 25 19t7 32v388q0 19 -7 32t-25 19h97q-18 -6 -24.5 -19.5t-6.5 -31.5v-388z" />
    <glyph glyph-name="uni01D1" unicode="&#x1d1;" horiz-adv-x="780" 
d="M273 788l-44 -56h-25l-43 56h11l45 -41l46 41h10zM530 245q0 -51 -19.5 -96t-53 -78.5t-78.5 -53t-96 -19.5t-96 19.5t-78.5 53t-53 78.5t-19.5 96t19.5 96t53 78.5t78.5 53t96 19.5t96 -19.5t78.5 -53t53 -78.5t19.5 -96zM77 257q0 -45 16 -90t45 -81.5t69.5 -59
t88.5 -22.5q45 0 81 20t61 52.5t38.5 73.5t13.5 83q0 45 -16 90t-44.5 81t-68.5 58t-89 22q-45 0 -81 -20t-61.5 -52t-39 -72.5t-13.5 -82.5z" />
    <glyph glyph-name="uni01D2" unicode="&#x1d2;" horiz-adv-x="604" 
d="M185 610l-44 -56h-25l-43 56h11l45 -41l46 41h10zM530 245q0 -51 -19.5 -96t-53 -78.5t-78.5 -53t-96 -19.5t-96 19.5t-78.5 53t-53 78.5t-19.5 96t19.5 96t53 78.5t78.5 53t96 19.5t96 -19.5t78.5 -53t53 -78.5t19.5 -96zM77 257q0 -45 16 -90t45 -81t69.5 -58.5
t88.5 -22.5q45 0 81 20t61 52.5t38.5 73t13.5 82.5q0 45 -16 90t-44.5 81t-68.5 58t-89 22q-45 0 -81 -20t-61.5 -52t-39 -72.5t-13.5 -82.5z" />
    <glyph glyph-name="uni01D3" unicode="&#x1d3;" horiz-adv-x="730" 
d="M248 788l-44 -56h-25l-43 56h11l45 -41l46 41h10zM583 658q-48 0 -83 -30t-58 -73.5t-34.5 -93t-11.5 -88.5v-205q0 -39 -9 -71t-28 -54.5t-48.5 -35t-70.5 -12.5q-85 0 -129 45t-44 128v272q0 18 -7 31.5t-25 18.5h97q-18 -5 -24 -19t-6 -31v-271q0 -33 8.5 -62
t25.5 -51t43 -34.5t62 -12.5q77 0 111.5 43.5t34.5 116.5v208q0 43 7 93.5t26.5 94t54 72.5t89.5 29q31 0 61 -9l-2 -5q-10 4 -19.5 5t-20.5 1z" />
    <glyph glyph-name="uni01D4" unicode="&#x1d4;" horiz-adv-x="618" 
d="M192 610l-44 -56h-25l-43 56h11l45 -41l46 41h10zM440 490q-19 -6 -32 -18t-13 -33v-272q0 -78 -36.5 -125t-119.5 -47q-85 0 -128.5 44.5t-43.5 127.5v272q0 18 -7 31.5t-25 19.5h97q-18 -6 -24.5 -19.5t-6.5 -31.5v-271q0 -33 8.5 -62t26 -50.5t43.5 -34t61 -12.5
q77 0 112 42.5t35 116.5v272q0 21 -13.5 32.5t-31.5 17.5h98z" />
    <glyph glyph-name="uni01D5" unicode="&#x1d5;" horiz-adv-x="730" 
d="M508 815q0 -23 -12.5 -36t-34.5 -13t-34.5 13t-12.5 36q0 26 14 38t33 12q20 0 33.5 -12t13.5 -38zM320 815q0 -26 -13.5 -37.5t-32.5 -11.5q-22 0 -34.5 13t-12.5 36q0 26 14 38t33 12t32.5 -12t13.5 -38zM219 1001h297v-71h-297v71zM583 658q-48 0 -83 -30t-58 -73.5
t-34.5 -93t-11.5 -88.5v-205q0 -39 -9 -71t-28 -54.5t-48.5 -35t-70.5 -12.5q-85 0 -129 45t-44 128v272q0 18 -7 31.5t-25 18.5h97q-18 -5 -24 -19t-6 -31v-271q0 -33 8.5 -62t25.5 -51t43 -34.5t62 -12.5q77 0 111.5 43.5t34.5 116.5v208q0 43 7 93.5t26.5 94t54 72.5
t89.5 29q31 0 61 -9l-2 -5q-10 4 -19.5 5t-20.5 1z" />
    <glyph glyph-name="uni01D6" unicode="&#x1d6;" horiz-adv-x="618" 
d="M447 650q0 -23 -12.5 -36t-34.5 -13t-34.5 13t-12.5 36q0 26 14 38t33 12q20 0 33.5 -12t13.5 -38zM259 650q0 -26 -13.5 -37.5t-32.5 -11.5q-22 0 -34.5 13t-12.5 36q0 26 14 38t33 12t32.5 -12t13.5 -38zM158 836h297v-71h-297v71zM440 490q-19 -6 -32 -18t-13 -33
v-272q0 -78 -36.5 -125t-119.5 -47q-85 0 -128.5 44.5t-43.5 127.5v272q0 18 -7 31.5t-25 19.5h97q-18 -6 -24.5 -19.5t-6.5 -31.5v-271q0 -33 8.5 -62t26 -50.5t43.5 -34t61 -12.5q77 0 112 42.5t35 116.5v272q0 21 -13.5 32.5t-31.5 17.5h98z" />
    <glyph glyph-name="uni01D7" unicode="&#x1d7;" horiz-adv-x="730" 
d="M499 815q0 -23 -12.5 -36t-34.5 -13t-34.5 13t-12.5 36q0 26 14 38t33 12q20 0 33.5 -12t13.5 -38zM311 815q0 -26 -13.5 -37.5t-32.5 -11.5q-22 0 -34.5 13t-12.5 36q0 26 14 38t33 12t32.5 -12t13.5 -38zM305 903q73 84 96 133h105v-10q-28 -43 -142 -135h-59v12z
M583 658q-48 0 -83 -30t-58 -73.5t-34.5 -93t-11.5 -88.5v-205q0 -39 -9 -71t-28 -54.5t-48.5 -35t-70.5 -12.5q-85 0 -129 45t-44 128v272q0 18 -7 31.5t-25 18.5h97q-18 -5 -24 -19t-6 -31v-271q0 -33 8.5 -62t25.5 -51t43 -34.5t62 -12.5q77 0 111.5 43.5t34.5 116.5v208
q0 43 7 93.5t26.5 94t54 72.5t89.5 29q31 0 61 -9l-2 -5q-10 4 -19.5 5t-20.5 1z" />
    <glyph glyph-name="uni01D8" unicode="&#x1d8;" horiz-adv-x="618" 
d="M446 650q0 -23 -12.5 -36t-34.5 -13t-34.5 13t-12.5 36q0 26 14 38t33 12q20 0 33.5 -12t13.5 -38zM258 650q0 -26 -13.5 -37.5t-32.5 -11.5q-22 0 -34.5 13t-12.5 36q0 26 14 38t33 12t32.5 -12t13.5 -38zM252 738q73 84 96 133h105v-10q-28 -43 -142 -135h-59v12z
M440 490q-19 -6 -32 -18t-13 -33v-272q0 -78 -36.5 -125t-119.5 -47q-85 0 -128.5 44.5t-43.5 127.5v272q0 18 -7 31.5t-25 19.5h97q-18 -6 -24.5 -19.5t-6.5 -31.5v-271q0 -33 8.5 -62t26 -50.5t43.5 -34t61 -12.5q77 0 112 42.5t35 116.5v272q0 21 -13.5 32.5t-31.5 17.5
h98z" />
    <glyph glyph-name="uni01D9" unicode="&#x1d9;" horiz-adv-x="730" 
d="M504 815q0 -23 -12.5 -36t-34.5 -13t-34.5 13t-12.5 36q0 26 14 38t33 12q20 0 33.5 -12t13.5 -38zM316 815q0 -26 -13.5 -37.5t-32.5 -11.5q-22 0 -34.5 13t-12.5 36q0 26 14 38t33 12t32.5 -12t13.5 -38zM195 1046h60q26 -17 54 -36t53 -46q27 27 55 46t54 36h62v-13
l-32 -31q-73 -69 -93 -106h-90q-21 36 -92 106l-31 31v13zM583 658q-48 0 -83 -30t-58 -73.5t-34.5 -93t-11.5 -88.5v-205q0 -39 -9 -71t-28 -54.5t-48.5 -35t-70.5 -12.5q-85 0 -129 45t-44 128v272q0 18 -7 31.5t-25 18.5h97q-18 -5 -24 -19t-6 -31v-271q0 -33 8.5 -62
t25.5 -51t43 -34.5t62 -12.5q77 0 111.5 43.5t34.5 116.5v208q0 43 7 93.5t26.5 94t54 72.5t89.5 29q31 0 61 -9l-2 -5q-10 4 -19.5 5t-20.5 1z" />
    <glyph glyph-name="uni01DA" unicode="&#x1da;" horiz-adv-x="618" 
d="M444 650q0 -23 -12.5 -36t-34.5 -13t-34.5 13t-12.5 36q0 26 14 38t33 12q20 0 33.5 -12t13.5 -38zM256 650q0 -26 -13.5 -37.5t-32.5 -11.5q-22 0 -34.5 13t-12.5 36q0 26 14 38t33 12t32.5 -12t13.5 -38zM135 881h60q26 -17 54 -36t53 -46q27 27 55 46t54 36h62v-13
l-32 -31q-73 -69 -93 -106h-90q-21 36 -92 106l-31 31v13zM440 490q-19 -6 -32 -18t-13 -33v-272q0 -78 -36.5 -125t-119.5 -47q-85 0 -128.5 44.5t-43.5 127.5v272q0 18 -7 31.5t-25 19.5h97q-18 -6 -24.5 -19.5t-6.5 -31.5v-271q0 -33 8.5 -62t26 -50.5t43.5 -34t61 -12.5
q77 0 112 42.5t35 116.5v272q0 21 -13.5 32.5t-31.5 17.5h98z" />
    <glyph glyph-name="uni01DB" unicode="&#x1db;" horiz-adv-x="730" 
d="M500 815q0 -23 -12.5 -36t-34.5 -13t-34.5 13t-12.5 36q0 26 14 38t33 12q20 0 33.5 -12t13.5 -38zM312 815q0 -26 -13.5 -37.5t-32.5 -11.5q-22 0 -34.5 13t-12.5 36q0 26 14 38t33 12t32.5 -12t13.5 -38zM414 891h-59q-114 91 -142 135v10h105q23 -49 96 -133v-12z
M583 658q-48 0 -83 -30t-58 -73.5t-34.5 -93t-11.5 -88.5v-205q0 -39 -9 -71t-28 -54.5t-48.5 -35t-70.5 -12.5q-85 0 -129 45t-44 128v272q0 18 -7 31.5t-25 18.5h97q-18 -5 -24 -19t-6 -31v-271q0 -33 8.5 -62t25.5 -51t43 -34.5t62 -12.5q77 0 111.5 43.5t34.5 116.5v208
q0 43 7 93.5t26.5 94t54 72.5t89.5 29q31 0 61 -9l-2 -5q-10 4 -19.5 5t-20.5 1z" />
    <glyph glyph-name="uni01DC" unicode="&#x1dc;" horiz-adv-x="618" 
d="M447 650q0 -23 -12.5 -36t-34.5 -13t-34.5 13t-12.5 36q0 26 14 38t33 12q20 0 33.5 -12t13.5 -38zM259 650q0 -26 -13.5 -37.5t-32.5 -11.5q-22 0 -34.5 13t-12.5 36q0 26 14 38t33 12t32.5 -12t13.5 -38zM361 726h-59q-114 91 -142 135v10h105q23 -49 96 -133v-12z
M440 490q-19 -6 -32 -18t-13 -33v-272q0 -78 -36.5 -125t-119.5 -47q-85 0 -128.5 44.5t-43.5 127.5v272q0 18 -7 31.5t-25 19.5h97q-18 -6 -24.5 -19.5t-6.5 -31.5v-271q0 -33 8.5 -62t26 -50.5t43.5 -34t61 -12.5q77 0 112 42.5t35 116.5v272q0 21 -13.5 32.5t-31.5 17.5
h98z" />
    <glyph glyph-name="uni01DD" unicode="&#x1dd;" horiz-adv-x="563" 
d="M251 546q121 0 189.5 -73t68.5 -201q0 -129 -64 -205.5t-173 -76.5q-101 0 -161 65.5t-60 176.5v53h367q-2 91 -46 138.5t-125 47.5q-43 0 -81.5 -7.5t-90.5 -29.5v77q44 19 83.5 27t92.5 8zM273 62q63 0 99.5 40.5t43.5 112.5h-273q1 -74 34.5 -113.5t95.5 -39.5z" />
    <glyph glyph-name="uni01DE" unicode="&#x1de;" horiz-adv-x="639" 
d="M460 815q0 -23 -12.5 -36t-34.5 -13t-34.5 13t-12.5 36q0 26 14 38t33 12q20 0 33.5 -12t13.5 -38zM272 815q0 -26 -13.5 -37.5t-32.5 -11.5q-22 0 -34.5 13t-12.5 36q0 26 14 38t33 12t32.5 -12t13.5 -38zM171 1001h297v-71h-297v71zM91 54q0 -37 -6 -78t-21 -78.5
t-41 -67.5t-65 -43l-4 9q31 11 51.5 33t31.5 49.5t15.5 58.5t4.5 61q0 49 -7 97t-7 97q0 48 12 93q-32 -4 -63.5 -17.5t-55.5 -34.5h-13q32 26 63 40.5t72 20.5q28 95 101 145.5t170 50.5h61q-18 -6 -25 -19.5t-7 -31.5v-388q0 -17 7 -31.5t25 -19.5h-99q18 6 25.5 19.5
t7.5 31.5v92q0 11 -4 19q-15 32 -40.5 55t-57 38.5t-66.5 23t-68 7.5q-4 -19 -5 -37.5t-1 -37.5q0 -39 4.5 -78t4.5 -79zM89 297q33 0 68 -8t66.5 -23.5t58 -38.5t42.5 -54v266q0 5 -1 12t-3.5 13.5t-7 11t-12.5 4.5q-40 0 -75 -14.5t-62.5 -39t-46 -58t-27.5 -71.5z" />
    <glyph glyph-name="uni01DF" unicode="&#x1df;" horiz-adv-x="561" 
d="M426 650q0 -23 -12.5 -36t-34.5 -13t-34.5 13t-12.5 36q0 26 14 38t33 12q20 0 33.5 -12t13.5 -38zM238 650q0 -26 -13.5 -37.5t-32.5 -11.5q-22 0 -34.5 13t-12.5 36q0 26 14 38t33 12t32.5 -12t13.5 -38zM137 836h297v-71h-297v71zM147 197q-4 -11 -13 -32t-18 -44
t-15.5 -44t-6.5 -33q0 -19 11 -29t28 -15h-97q16 6 28 20t18 30l169 446l163 -444q6 -16 16 -31t27 -21h-102q11 4 18.5 15t7.5 23q0 7 -7.5 29.5t-17 48t-18.5 49t-12 32.5h-179zM149 204h172l-85 231z" />
    <glyph glyph-name="uni01E0" unicode="&#x1e0;" horiz-adv-x="639" 
d="M269 826q0 29 15 42.5t37 13.5q23 0 37 -15t14 -41t-14.5 -41t-36.5 -15t-37 13.5t-15 42.5zM171 1001h297v-71h-297v71zM91 54q0 -37 -6 -78t-21 -78.5t-41 -67.5t-65 -43l-4 9q31 11 51.5 33t31.5 49.5t15.5 58.5t4.5 61q0 49 -7 97t-7 97q0 48 12 93
q-32 -4 -63.5 -17.5t-55.5 -34.5h-13q32 26 63 40.5t72 20.5q28 95 101 145.5t170 50.5h61q-18 -6 -25 -19.5t-7 -31.5v-388q0 -17 7 -31.5t25 -19.5h-99q18 6 25.5 19.5t7.5 31.5v92q0 11 -4 19q-15 32 -40.5 55t-57 38.5t-66.5 23t-68 7.5q-4 -19 -5 -37.5t-1 -37.5
q0 -39 4.5 -78t4.5 -79zM89 297q33 0 68 -8t66.5 -23.5t58 -38.5t42.5 -54v266q0 5 -1 12t-3.5 13.5t-7 11t-12.5 4.5q-40 0 -75 -14.5t-62.5 -39t-46 -58t-27.5 -71.5z" />
    <glyph glyph-name="uni01E1" unicode="&#x1e1;" horiz-adv-x="561" 
d="M235 662q0 29 15 42.5t37 13.5q23 0 37 -15t14 -41t-14.5 -41t-36.5 -15t-37 13.5t-15 42.5zM137 837h297v-71h-297v71zM147 197q-4 -11 -13 -32t-18 -44t-15.5 -44t-6.5 -33q0 -19 11 -29t28 -15h-97q16 6 28 20t18 30l169 446l163 -444q6 -16 16 -31t27 -21h-102
q11 4 18.5 15t7.5 23q0 7 -7.5 29.5t-17 48t-18.5 49t-12 32.5h-179zM149 204h172l-85 231z" />
    <glyph glyph-name="uni01E2" unicode="&#x1e2;" horiz-adv-x="880" 
d="M347 842h297v-71h-297v71zM91 54q0 -37 -6 -78t-21 -78.5t-41 -67.5t-65 -43l-4 9q31 11 51.5 33t31.5 49.5t15.5 58.5t4.5 61q0 49 -7 97t-7 97q0 48 12 93q-32 -4 -63.5 -17.5t-55.5 -34.5h-13q32 26 63 40.5t72 20.5q28 95 101 145.5t170 50.5h251l18 -72
q-17 30 -38 47t-58 17h-128q-10 -8 -13 -19.5t-3 -23.5v-186h103q18 0 32 6.5t19 26.5v-72q-5 19 -19.5 25t-31.5 6h-103v-194q0 -11 3 -22t12 -19q48 -2 94.5 -13.5t91.5 -28t89.5 -35t87.5 -34.5t85.5 -26.5t84.5 -10.5q31 0 54.5 2.5t44.5 9t42 17.5t46 28l3 -6
q-53 -37 -103 -56.5t-115 -19.5q-44 0 -86 12t-83 30t-81.5 39.5t-82.5 39.5t-85.5 30t-90.5 12h-78q18 5 25.5 19t7.5 32v92q0 11 -4 19q-15 32 -40.5 55.5t-57 38.5t-66.5 22.5t-68 7.5q-4 -19 -5 -37.5t-1 -37.5q0 -39 4.5 -78t4.5 -79zM89 297q33 0 68 -8t66.5 -23.5
t58 -38.5t42.5 -54v275q0 10 -6 21t-18 11q-40 0 -75 -14.5t-62.5 -39t-46 -58t-27.5 -71.5z" />
    <glyph glyph-name="uni01E3" unicode="&#x1e3;" horiz-adv-x="863" 
d="M283 677h297v-71h-297v71zM294 72q-5 -8 -8 -16.5t-3 -17.5q0 -15 10 -24t23 -14h-97q16 6 29.5 21t21.5 29l244 408q-2 13 -10 20t-20 12h288l18 -72q-15 29 -38 46.5t-58 17.5h-144v-229h103q18 0 32 6.5t19 25.5v-71q-5 18 -19.5 24.5t-31.5 6.5h-103v-237h144
q35 0 58 17.5t38 46.5l-18 -72h-288q18 6 25 19t7 32v194h-119zM401 253h115v193z" />
    <glyph glyph-name="uni01E4" unicode="&#x1e4;" horiz-adv-x="728" 
d="M407 377h247v-150h64v-71h-64v-129q-57 -18 -115.5 -27.5t-135.5 -9.5q-163 0 -252.5 97t-89.5 270q0 112 44.5 195.5t128 127.5t197.5 44t213 -42l-34 -78q-94 41 -184 41q-127 0 -199 -77t-72 -211q0 -142 68.5 -215.5t200.5 -73.5q72 0 140 17v71h-147v71h147v70h-157
v80z" />
    <glyph glyph-name="uni01E5" unicode="&#x1e5;" horiz-adv-x="615" 
d="M443 15l3 66h-4q-54 -81 -166 -81q-105 0 -163 71t-58 201q0 128 58 201t162 73q109 0 168 -81h5l12 71h70v-545q0 -20 -2 -37h57v-71h-72q-47 -123 -223 -123q-117 0 -193 34v81q78 -42 198 -42q77 0 117 50h-149v71h178l2 30v31zM289 72q83 0 119 42.5t36 136.5v16
q0 107 -37 156t-120 49q-68 0 -104.5 -50.5t-36.5 -150.5q0 -199 143 -199z" />
    <glyph glyph-name="Gcaron" unicode="&#x1e6;" horiz-adv-x="728" 
d="M300 775l-44 -56h-25l-43 56h11l45 -41l46 41h10zM493 300q-16 -5 -23 -17.5t-7 -28.5v-258q-8 12 -20.5 22t-28.5 10q-14 0 -29 -5t-31.5 -11t-34.5 -11t-38 -5q-59 0 -104.5 26.5t-76.5 69t-47 95.5t-16 106q0 55 18.5 104.5t52.5 87.5t81 60.5t104 22.5q29 0 56 -8
t55 -8q20 0 27 16l20 -95q-7 21 -22.5 37t-35 27.5t-41.5 17t-43 5.5q-60 0 -104 -23t-72.5 -62t-42 -89.5t-13.5 -104.5q0 -50 13 -99t40 -87.5t68 -62.5t98 -24q20 0 43 6.5t42.5 18.5t33 30t13.5 41v149q0 17 -6.5 29.5t-23.5 17.5h95z" />
    <glyph glyph-name="gcaron" unicode="&#x1e7;" horiz-adv-x="615" 
d="M190 610l-44 -56h-25l-43 56h11l45 -41l46 41h10zM494 196q-17 -6 -24 -19.5t-7 -30.5v-150q-3 5 -7.5 12t-9.5 13.5t-11.5 11t-13.5 4.5q-6 0 -20.5 -6t-33.5 -13.5t-41 -13.5t-43 -6q-51 0 -96 19.5t-78.5 53t-53 78.5t-19.5 96t19.5 96t53 78.5t78.5 53t96 19.5
q39 0 84 -10.5t76 -36.5v-60q-29 42 -73.5 70t-97.5 28q-45 0 -81 -20t-61.5 -52.5t-39 -73t-13.5 -82.5q0 -43 15.5 -87.5t44 -80t68 -58t86.5 -22.5q19 0 43 6.5t45 19t35 30.5t14 40q0 12 0.5 26t-1.5 27.5t-8.5 24t-21.5 15.5h97z" />
    <glyph glyph-name="uni01E8" unicode="&#x1e8;" horiz-adv-x="619" 
d="M216 775l-44 -56h-25l-43 56h11l45 -41l46 41h10zM678 -126q-31 -7 -61.5 -12t-62.5 -5q-73 0 -119.5 24.5t-77.5 63t-50 85t-37 91.5t-38.5 83t-54.5 58q-5 4 -14 4q-4 0 -11.5 -6t-15 -14.5t-14.5 -16.5t-10 -11q-7 -8 -9.5 -12.5t-2.5 -15.5v-134q0 -17 6.5 -33.5
t24.5 -22.5h-97q20 6 26 21.5t6 33.5v384q0 17 -7.5 31t-24.5 20h97q-18 -6 -24.5 -20t-6.5 -32v-221l212 225q7 7 7 16q0 11 -8.5 19.5t-18.5 12.5h94q-20 -8 -36.5 -22t-30.5 -30l-147 -157q-2 -2 -2 -4q0 -3 3 -5q36 -17 62 -53.5t50 -81t48.5 -92.5t57.5 -87t77.5 -64.5
t107.5 -25.5q26 0 51.5 4t50.5 11v-9z" />
    <glyph glyph-name="uni01E9" unicode="&#x1e9;" horiz-adv-x="534" 
d="M180 795l-44 -56h-25l-43 56h11l45 -41l46 41h10zM100 51q0 -18 7 -31.5t25 -19.5h-98q18 6 25 19t7 32v388q0 14 -9 30t-23 21h98q-18 -6 -25 -19t-7 -32v-223l212 226q7 9 7 17q0 11 -8.5 19.5t-18.5 11.5h94q-19 -6 -35.5 -21t-29.5 -29l-119 -127q-4 -4 -4 -12
q0 -5 3 -10l161 -243q8 -13 26 -28t33 -20h-59q-11 0 -16 9l-163 246q-6 9 -18 9q-7 0 -16.5 -7.5t-18.5 -17t-17 -19.5t-13 -15v-154z" />
    <glyph glyph-name="uni01EA" unicode="&#x1ea;" horiz-adv-x="780" 
d="M450 -98q-8 -5 -17.5 -8.5t-20.5 -3.5q-20 0 -34 13.5t-14 33.5q0 22 16.5 36t33.5 23h9q-14 -9 -25.5 -21.5t-11.5 -30.5q0 -13 6 -21t15.5 -12.5t21 -6.5t21.5 -2zM530 245q0 -51 -19.5 -96t-53 -78.5t-78.5 -53t-96 -19.5t-96 19.5t-78.5 53t-53 78.5t-19.5 96
t19.5 96t53 78.5t78.5 53t96 19.5t96 -19.5t78.5 -53t53 -78.5t19.5 -96zM77 257q0 -45 16 -90t45 -81.5t69.5 -59t88.5 -22.5q45 0 81 20t61 52.5t38.5 73.5t13.5 83q0 45 -16 90t-44.5 81t-68.5 58t-89 22q-45 0 -81 -20t-61.5 -52t-39 -72.5t-13.5 -82.5z" />
    <glyph glyph-name="uni01EB" unicode="&#x1eb;" horiz-adv-x="604" 
d="M352 -98q-8 -5 -17.5 -8.5t-20.5 -3.5q-20 0 -34 13.5t-14 33.5q0 22 16.5 36t33.5 23h9q-14 -9 -25.5 -21.5t-11.5 -30.5q0 -13 6 -21t15.5 -12.5t21 -6.5t21.5 -2zM530 245q0 -51 -19.5 -96t-53 -78.5t-78.5 -53t-96 -19.5t-96 19.5t-78.5 53t-53 78.5t-19.5 96
t19.5 96t53 78.5t78.5 53t96 19.5t96 -19.5t78.5 -53t53 -78.5t19.5 -96zM77 257q0 -45 16 -90t45 -81t69.5 -58.5t88.5 -22.5q45 0 81 20t61 52.5t38.5 73t13.5 82.5q0 45 -16 90t-44.5 81t-68.5 58t-89 22q-45 0 -81 -20t-61.5 -52t-39 -72.5t-13.5 -82.5z" />
    <glyph glyph-name="uni01EC" unicode="&#x1ec;" horiz-adv-x="780" 
d="M450 -98q-8 -5 -17.5 -8.5t-20.5 -3.5q-20 0 -34 13.5t-14 33.5q0 22 16.5 36t33.5 23h9q-14 -9 -25.5 -21.5t-11.5 -30.5q0 -13 6 -21t15.5 -12.5t21 -6.5t21.5 -2zM242 842h297v-71h-297v71zM530 245q0 -51 -19.5 -96t-53 -78.5t-78.5 -53t-96 -19.5t-96 19.5t-78.5 53
t-53 78.5t-19.5 96t19.5 96t53 78.5t78.5 53t96 19.5t96 -19.5t78.5 -53t53 -78.5t19.5 -96zM77 257q0 -45 16 -90t45 -81.5t69.5 -59t88.5 -22.5q45 0 81 20t61 52.5t38.5 73.5t13.5 83q0 45 -16 90t-44.5 81t-68.5 58t-89 22q-45 0 -81 -20t-61.5 -52t-39 -72.5
t-13.5 -82.5z" />
    <glyph glyph-name="uni01ED" unicode="&#x1ed;" horiz-adv-x="604" 
d="M352 -98q-8 -5 -17.5 -8.5t-20.5 -3.5q-20 0 -34 13.5t-14 33.5q0 22 16.5 36t33.5 23h9q-14 -9 -25.5 -21.5t-11.5 -30.5q0 -13 6 -21t15.5 -12.5t21 -6.5t21.5 -2zM154 677h297v-71h-297v71zM530 245q0 -51 -19.5 -96t-53 -78.5t-78.5 -53t-96 -19.5t-96 19.5t-78.5 53
t-53 78.5t-19.5 96t19.5 96t53 78.5t78.5 53t96 19.5t96 -19.5t78.5 -53t53 -78.5t19.5 -96zM77 257q0 -45 16 -90t45 -81t69.5 -58.5t88.5 -22.5q45 0 81 20t61 52.5t38.5 73t13.5 82.5q0 45 -16 90t-44.5 81t-68.5 58t-89 22q-45 0 -81 -20t-61.5 -52t-39 -72.5
t-13.5 -82.5z" />
    <glyph glyph-name="uni01EE" unicode="&#x1ee;" horiz-adv-x="583" 
d="M155 775l-44 -56h-25l-43 56h11l45 -41l46 41h10zM291 440q68 -2 122.5 -30t85 -76.5t30.5 -112.5q0 -109 -76 -170t-212 -61q-126 0 -206 39v82q49 -23 104 -35t103 -12q97 0 145 41t48 117q0 69 -49.5 107t-143.5 38h-62v65l206 202h-331v80h444v-71z" />
    <glyph glyph-name="uni01EF" unicode="&#x1ef;" horiz-adv-x="498" 
d="M218 228q115 -8 180.5 -68.5t65.5 -158.5q0 -70 -33 -125.5t-93.5 -85.5t-138.5 -30q-117 0 -185 35v80q89 -42 189 -42q79 0 126 45t47 121q0 77 -51 118t-151 41h-59v61l219 243h-306v74h409v-64zM110 610l-44 -56h-25l-43 56h11l45 -41l46 41h10z" />
    <glyph glyph-name="uni01F0" unicode="&#x1f0;" horiz-adv-x="257" 
d="M12 610l-44 -56h-25l-43 56h11l45 -41l46 41h10zM22 -240q-46 0 -77 12v71q34 -10 66 -10q38 0 56 21t18 63v619h88v-616q0 -80 -38.5 -120t-112.5 -40z" />
    <glyph glyph-name="uni01F1" unicode="&#x1f1;" horiz-adv-x="1291" 
d="M473 312q0 -66 -20 -123t-58 -99t-92.5 -66t-123.5 -24h-145q18 5 25.5 19.5t7.5 31.5v389q0 17 -8 31t-25 19h101q-18 -5 -25.5 -19.5t-7.5 -31.5v-430h75q64 0 111.5 26.5t78.5 69.5t46.5 98.5t15.5 112.5q0 69 -23 131t-65 108.5t-100.5 73.5t-130.5 27
q-67 0 -126 -24t-102 -66.5t-68 -100.5t-25 -126q0 -221 210 -286l-10 -8q-48 12 -90 41t-73 68.5t-48.5 87t-17.5 97.5q0 74 29 134t77.5 102.5t112.5 66t134 23.5q73 0 138.5 -27.5t114.5 -75t78 -112t29 -138.5zM1411 -90q-35 -16 -76.5 -33t-80.5 -17q-63 0 -119 22
t-111 48t-112 48t-120 22h-36l297 482h-171q-33 0 -57.5 -17.5t-38.5 -46.5l17 72h295l-297 -481q61 0 120 -19.5t118.5 -43.5t119 -43.5t121.5 -19.5q33 0 66 8t62 24z" />
    <glyph glyph-name="uni01F2" unicode="&#x1f2;" horiz-adv-x="1200" 
d="M473 312q0 -66 -20 -123t-58 -99t-92.5 -66t-123.5 -24h-145q18 5 25.5 19.5t7.5 31.5v389q0 17 -8 31t-25 19h101q-18 -5 -25.5 -19.5t-7.5 -31.5v-430h75q64 0 111.5 26.5t78.5 69.5t46.5 98.5t15.5 112.5q0 69 -23 131t-65 108.5t-100.5 73.5t-130.5 27
q-67 0 -126 -24t-102 -66.5t-68 -100.5t-25 -126q0 -221 210 -286l-10 -8q-48 12 -90 41t-73 68.5t-48.5 87t-17.5 97.5q0 74 29 134t77.5 102.5t112.5 66t134 23.5q73 0 138.5 -27.5t114.5 -75t78 -112t29 -138.5zM986 8q35 0 57.5 17.5t37.5 46.5l-17 -72h-299l297 482
h-171q-34 0 -57.5 -17.5t-38.5 -46.5l18 72h294l-296 -482h175z" />
    <glyph glyph-name="uni01F3" unicode="&#x1f3;" horiz-adv-x="1084" 
d="M455 245q0 -51 -19.5 -95.5t-52.5 -77.5t-77.5 -52.5t-95.5 -19.5h-175q18 5 25 19.5t7 31.5v387q0 17 -7 32t-25 20h167q50 0 96 -19t81 -52.5t55.5 -78t20.5 -95.5zM101 9h68q53 0 98 16.5t77.5 47t51 74.5t18.5 98t-18.5 98t-51 75t-77.5 47.5t-98 16.5h-68v-473z
M871 8q35 0 57.5 17.5t37.5 46.5l-17 -72h-299l297 482h-171q-34 0 -57.5 -17.5t-38.5 -46.5l18 72h294l-296 -482h175z" />
    <glyph glyph-name="uni01F4" unicode="&#x1f4;" horiz-adv-x="728" 
d="M493 300q-16 -5 -23 -17.5t-7 -28.5v-258q-8 12 -20.5 22t-28.5 10q-14 0 -29 -5t-31.5 -11t-34.5 -11t-38 -5q-59 0 -104.5 26.5t-76.5 69t-47 95.5t-16 106q0 55 18.5 104.5t52.5 87.5t81 60.5t104 22.5q29 0 56 -8t55 -8q20 0 27 16l20 -95q-7 21 -22.5 37t-35 27.5
t-41.5 17t-43 5.5q-60 0 -104 -23t-72.5 -62t-42 -89.5t-13.5 -104.5q0 -50 13 -99t40 -87.5t68 -62.5t98 -24q20 0 43 6.5t42.5 18.5t33 30t13.5 41v149q0 17 -6.5 29.5t-23.5 17.5h95zM300 768l-49 -60h-10l20 60h39z" />
    <glyph glyph-name="uni01F5" unicode="&#x1f5;" horiz-adv-x="615" 
d="M494 196q-17 -6 -24 -19.5t-7 -30.5v-150q-3 5 -7.5 12t-9.5 13.5t-11.5 11t-13.5 4.5q-6 0 -20.5 -6t-33.5 -13.5t-41 -13.5t-43 -6q-51 0 -96 19.5t-78.5 53t-53 78.5t-19.5 96t19.5 96t53 78.5t78.5 53t96 19.5q39 0 84 -10.5t76 -36.5v-60q-29 42 -73.5 70t-97.5 28
q-45 0 -81 -20t-61.5 -52.5t-39 -73t-13.5 -82.5q0 -43 15.5 -87.5t44 -80t68 -58t86.5 -22.5q19 0 43 6.5t45 19t35 30.5t14 40q0 12 0.5 26t-1.5 27.5t-8.5 24t-21.5 15.5h97zM162 603l-49 -60h-10l20 60h39z" />
    <glyph glyph-name="uni01F6" unicode="&#x1f6;" horiz-adv-x="937" 
d="M187 333v-333h-90v714h90v-302h296v302h90v-550q0 -45 23 -70t70 -25q44 0 68 25t24 71v371h90v-371q0 -81 -49 -127.5t-136 -46.5q-85 0 -132.5 46t-47.5 129v167h-296z" />
    <glyph glyph-name="uni01F7" unicode="&#x1f7;" horiz-adv-x="661" 
d="M389 725q103 0 160 -64t57 -179q0 -161 -106.5 -284.5t-312.5 -207.5v-230h-90v955h71l15 -97h5q37 55 86.5 81t114.5 26zM187 74q161 67 245 171.5t84 235.5q0 81 -37 123.5t-106 42.5q-94 0 -140 -55.5t-46 -173.5v-344z" />
    <glyph glyph-name="uni01F8" unicode="&#x1f8;" horiz-adv-x="759" 
d="M755 -203q-23 -4 -50 -4q-75 0 -137 36t-115.5 94t-100 130.5t-90.5 146t-87 140t-89 111.5v-401q0 -20 13.5 -32.5t30.5 -17.5h-93q17 5 29.5 17.5t12.5 32.5v407q-42 43 -98.5 68.5t-117.5 25.5q-46 0 -89 -12l-3 10q48 12 98 12q65 0 122 -25t106.5 -67t92.5 -96
t80 -112t69.5 -115t60.5 -105v399q0 20 -12 32.5t-30 17.5h95q-17 -5 -30.5 -17.5t-13.5 -32.5v-412q25 -39 54 -79.5t64.5 -72.5t78.5 -52.5t94 -20.5h27t27 3zM155 759l22 -61h-12l-50 61h40z" />
    <glyph glyph-name="uni01F9" unicode="&#x1f9;" horiz-adv-x="618" 
d="M86 50q0 -20 13.5 -32t30.5 -18h-94q17 6 30 18t13 32v389q0 22 -12 33.5t-31 17.5h77l287 -414v364q0 21 -12.5 32.5t-30.5 17.5h94q-17 -6 -29.5 -18t-12.5 -32v-440l-323 465v-415zM94 594l22 -61h-12l-50 61h40z" />
    <glyph glyph-name="Aringacute" unicode="&#x1fa;" horiz-adv-x="640" 
d="M430 699q0 -32 -13 -54.5t-35 -35.5l258 -609h-93l-82 192h-295l-78 -192h-92l258 608q-49 26 -49 90q0 48 29.5 77t79.5 29t81 -29.5t31 -75.5zM439 272l-84 207q-13 30 -36 101q-15 -52 -35 -103l-83 -205h238zM271 838q28 33 51 67t34 53h106v-8q-15 -21 -58 -60.5
t-74 -60.5h-59v9zM374 698q0 27 -15.5 41.5t-40.5 14.5q-24 0 -40 -14.5t-16 -41.5q0 -26 14.5 -41t41.5 -15q25 0 40.5 14.5t15.5 41.5z" />
    <glyph glyph-name="aringacute" unicode="&#x1fb;" horiz-adv-x="561" 
d="M416 0l-17 76h-4q-40 -50 -80 -68t-100 -18q-79 0 -124 41.5t-45 117.5q0 163 257 171l91 3v32q0 61 -26.5 90t-84.5 29q-42 0 -80 -12.5t-71 -28.5l-27 66q41 21 88.5 33.5t94.5 12.5q97 0 144.5 -43t47.5 -137v-365h-64zM235 61q74 0 116 40t42 113v48l-79 -3
q-92 -3 -134.5 -29t-42.5 -82q0 -42 26 -64.5t72 -22.5zM396 713q0 -49 -30.5 -78t-80.5 -29t-79.5 29t-29.5 77q0 47 29 76t80 29q49 0 80 -29t31 -75zM341 712q0 26 -16 41t-40 15t-40 -15t-16 -41t14.5 -41t41.5 -15q25 0 40.5 15t15.5 41zM230 856v8q22 21 48 50t37 44
h131v-6q-10 -12 -50.5 -37.5t-102.5 -58.5h-63z" />
    <glyph glyph-name="AEacute" unicode="&#x1fc;" horiz-adv-x="880" 
d="M91 54q0 -37 -6 -78t-21 -78.5t-41 -67.5t-65 -43l-4 9q31 11 51.5 33t31.5 49.5t15.5 58.5t4.5 61q0 49 -7 97t-7 97q0 48 12 93q-32 -4 -63.5 -17.5t-55.5 -34.5h-13q32 26 63 40.5t72 20.5q28 95 101 145.5t170 50.5h251l18 -72q-17 30 -38 47t-58 17h-128
q-10 -8 -13 -19.5t-3 -23.5v-186h103q18 0 32 6.5t19 26.5v-72q-5 19 -19.5 25t-31.5 6h-103v-194q0 -11 3 -22t12 -19q48 -2 94.5 -13.5t91.5 -28t89.5 -35t87.5 -34.5t85.5 -26.5t84.5 -10.5q31 0 54.5 2.5t44.5 9t42 17.5t46 28l3 -6q-53 -37 -103 -56.5t-115 -19.5
q-44 0 -86 12t-83 30t-81.5 39.5t-82.5 39.5t-85.5 30t-90.5 12h-78q18 5 25.5 19t7.5 32v92q0 11 -4 19q-15 32 -40.5 55.5t-57 38.5t-66.5 22.5t-68 7.5q-4 -19 -5 -37.5t-1 -37.5q0 -39 4.5 -78t4.5 -79zM89 297q33 0 68 -8t66.5 -23.5t58 -38.5t42.5 -54v275q0 10 -6 21
t-18 11q-40 0 -75 -14.5t-62.5 -39t-46 -58t-27.5 -71.5zM417 768l-49 -60h-10l20 60h39z" />
    <glyph glyph-name="aeacute" unicode="&#x1fd;" horiz-adv-x="863" 
d="M294 72q-5 -8 -8 -16.5t-3 -17.5q0 -15 10 -24t23 -14h-97q16 6 29.5 21t21.5 29l244 408q-2 13 -10 20t-20 12h288l18 -72q-15 29 -38 46.5t-58 17.5h-144v-229h103q18 0 32 6.5t19 25.5v-71q-5 18 -19.5 24.5t-31.5 6.5h-103v-237h144q35 0 58 17.5t38 46.5l-18 -72
h-288q18 6 25 19t7 32v194h-119zM401 253h115v193zM319 603l-49 -60h-10l20 60h39z" />
    <glyph glyph-name="Oslashacute" unicode="&#x1fe;" horiz-adv-x="780" 
d="M283 -2q-35 0 -68.5 9.5t-62.5 28.5l-56 -84h-20l62 93q-48 35 -75 87.5t-27 112.5q0 51 19.5 96t53 78.5t78.5 53t96 19.5q34 0 67 -9t62 -27l57 85h20l-63 -94q49 -35 76.5 -88.5t27.5 -113.5q0 -51 -19.5 -96t-53 -78.5t-78.5 -53t-96 -19.5zM77 257q0 -53 19.5 -102
t56.5 -87l246 367q-26 23 -58.5 36.5t-67.5 13.5q-45 0 -81.5 -20t-62 -52.5t-39 -73.5t-13.5 -82zM165 57q27 -24 60.5 -38.5t70.5 -14.5q46 0 82 20.5t61 53t38 73.5t13 83q0 53 -20.5 103.5t-58.5 86.5zM264 768l-49 -60h-10l20 60h39z" />
    <glyph glyph-name="oslashacute" unicode="&#x1ff;" horiz-adv-x="604" 
d="M283 -2q-35 0 -68.5 9.5t-62.5 28.5l-56 -84h-20l62 93q-48 35 -75 87.5t-27 112.5q0 51 19.5 96t53 78.5t78.5 53t96 19.5q34 0 67 -9t62 -27l57 85h20l-63 -94q49 -35 76.5 -88.5t27.5 -113.5q0 -51 -19.5 -96t-53 -78.5t-78.5 -53t-96 -19.5zM77 257q0 -53 19.5 -102
t56.5 -87l246 367q-26 23 -58.5 36.5t-67.5 13.5q-45 0 -81.5 -20t-62 -52.5t-39 -73.5t-13.5 -82zM165 57q27 -24 60.5 -38.5t70.5 -14.5q46 0 82 20.5t61 53t38 73.5t13 83q0 53 -20.5 103.5t-58.5 86.5zM169 603l-49 -60h-10l20 60h39z" />
    <glyph glyph-name="uni0200" unicode="&#x200;" horiz-adv-x="639" 
d="M449 771h-50q-29 23 -72 72t-61 78v10h97q14 -30 38 -72.5t48 -75.5v-12zM273 771h-50q-32 25 -74.5 74t-58.5 76v10h97q14 -30 38 -72.5t48 -75.5v-12zM91 54q0 -37 -6 -78t-21 -78.5t-41 -67.5t-65 -43l-4 9q31 11 51.5 33t31.5 49.5t15.5 58.5t4.5 61q0 49 -7 97
t-7 97q0 48 12 93q-32 -4 -63.5 -17.5t-55.5 -34.5h-13q32 26 63 40.5t72 20.5q28 95 101 145.5t170 50.5h61q-18 -6 -25 -19.5t-7 -31.5v-388q0 -17 7 -31.5t25 -19.5h-99q18 6 25.5 19.5t7.5 31.5v92q0 11 -4 19q-15 32 -40.5 55t-57 38.5t-66.5 23t-68 7.5
q-4 -19 -5 -37.5t-1 -37.5q0 -39 4.5 -78t4.5 -79zM89 297q33 0 68 -8t66.5 -23.5t58 -38.5t42.5 -54v266q0 5 -1 12t-3.5 13.5t-7 11t-12.5 4.5q-40 0 -75 -14.5t-62.5 -39t-46 -58t-27.5 -71.5z" />
    <glyph glyph-name="uni0201" unicode="&#x201;" horiz-adv-x="561" 
d="M415 606h-50q-29 23 -72 72t-61 78v10h97q14 -30 38 -72.5t48 -75.5v-12zM239 606h-50q-32 25 -74.5 74t-58.5 76v10h97q14 -30 38 -72.5t48 -75.5v-12zM147 197q-4 -11 -13 -32t-18 -44t-15.5 -44t-6.5 -33q0 -19 11 -29t28 -15h-97q16 6 28 20t18 30l169 446l163 -444
q6 -16 16 -31t27 -21h-102q11 4 18.5 15t7.5 23q0 7 -7.5 29.5t-17 48t-18.5 49t-12 32.5h-179zM149 204h172l-85 231z" />
    <glyph glyph-name="uni0202" unicode="&#x202;" horiz-adv-x="639" 
d="M322 905q69 0 108.5 -33.5t44.5 -100.5h-54q-4 36 -25 49.5t-76 13.5q-50 0 -73.5 -15.5t-27.5 -47.5h-55q5 63 47.5 98.5t110.5 35.5zM91 54q0 -37 -6 -78t-21 -78.5t-41 -67.5t-65 -43l-4 9q31 11 51.5 33t31.5 49.5t15.5 58.5t4.5 61q0 49 -7 97t-7 97q0 48 12 93
q-32 -4 -63.5 -17.5t-55.5 -34.5h-13q32 26 63 40.5t72 20.5q28 95 101 145.5t170 50.5h61q-18 -6 -25 -19.5t-7 -31.5v-388q0 -17 7 -31.5t25 -19.5h-99q18 6 25.5 19.5t7.5 31.5v92q0 11 -4 19q-15 32 -40.5 55t-57 38.5t-66.5 23t-68 7.5q-4 -19 -5 -37.5t-1 -37.5
q0 -39 4.5 -78t4.5 -79zM89 297q33 0 68 -8t66.5 -23.5t58 -38.5t42.5 -54v266q0 5 -1 12t-3.5 13.5t-7 11t-12.5 4.5q-40 0 -75 -14.5t-62.5 -39t-46 -58t-27.5 -71.5z" />
    <glyph glyph-name="uni0203" unicode="&#x203;" horiz-adv-x="561" 
d="M293 740q69 0 108.5 -33.5t44.5 -100.5h-54q-4 36 -25 49.5t-76 13.5q-50 0 -73.5 -15.5t-27.5 -47.5h-55q5 63 47.5 98.5t110.5 35.5zM147 197q-4 -11 -13 -32t-18 -44t-15.5 -44t-6.5 -33q0 -19 11 -29t28 -15h-97q16 6 28 20t18 30l169 446l163 -444q6 -16 16 -31
t27 -21h-102q11 4 18.5 15t7.5 23q0 7 -7.5 29.5t-17 48t-18.5 49t-12 32.5h-179zM149 204h172l-85 231z" />
    <glyph glyph-name="uni0204" unicode="&#x204;" horiz-adv-x="556" 
d="M437 771h-50q-29 23 -72 72t-61 78v10h97q14 -30 38 -72.5t48 -75.5v-12zM261 771h-50q-32 25 -74.5 74t-58.5 76v10h97q14 -30 38 -72.5t48 -75.5v-12zM839 -87q-53 -37 -103 -56.5t-115 -19.5q-44 0 -86 12t-83 30t-81.5 39.5t-82.5 39.5t-85.5 30t-90.5 12h-78
q18 5 25.5 19t7.5 32v388q0 18 -7.5 32t-25.5 19h289l18 -72q-17 30 -38 47t-58 17h-144v-229h103q18 0 32.5 6.5t18.5 26.5v-72q-5 19 -19.5 25t-31.5 6h-103v-235q75 0 145.5 -23t138.5 -51t133.5 -51t130.5 -23q31 0 54.5 2.5t44.5 9t42 17.5t46 28z" />
    <glyph glyph-name="uni0205" unicode="&#x205;" horiz-adv-x="563" 
d="M431 606h-50q-29 23 -72 72t-61 78v10h97q14 -30 38 -72.5t48 -75.5v-12zM255 606h-50q-32 25 -74.5 74t-58.5 76v10h97q14 -30 38 -72.5t48 -75.5v-12zM245 8q35 0 58 17.5t38 46.5l-18 -72h-288q18 6 25 19t7 32v388q0 19 -7 32t-25 19h288l18 -72q-15 29 -38 46.5
t-58 17.5h-144v-229h103q18 0 32 6.5t19 25.5v-71q-5 18 -19.5 24.5t-31.5 6.5h-103v-237h144z" />
    <glyph glyph-name="uni0206" unicode="&#x206;" horiz-adv-x="556" 
d="M300 905q69 0 108.5 -33.5t44.5 -100.5h-54q-4 36 -25 49.5t-76 13.5q-50 0 -73.5 -15.5t-27.5 -47.5h-55q5 63 47.5 98.5t110.5 35.5zM839 -87q-53 -37 -103 -56.5t-115 -19.5q-44 0 -86 12t-83 30t-81.5 39.5t-82.5 39.5t-85.5 30t-90.5 12h-78q18 5 25.5 19t7.5 32
v388q0 18 -7.5 32t-25.5 19h289l18 -72q-17 30 -38 47t-58 17h-144v-229h103q18 0 32.5 6.5t18.5 26.5v-72q-5 19 -19.5 25t-31.5 6h-103v-235q75 0 145.5 -23t138.5 -51t133.5 -51t130.5 -23q31 0 54.5 2.5t44.5 9t42 17.5t46 28z" />
    <glyph glyph-name="uni0207" unicode="&#x207;" horiz-adv-x="563" 
d="M294 740q69 0 108.5 -33.5t44.5 -100.5h-54q-4 36 -25 49.5t-76 13.5q-50 0 -73.5 -15.5t-27.5 -47.5h-55q5 63 47.5 98.5t110.5 35.5zM245 8q35 0 58 17.5t38 46.5l-18 -72h-288q18 6 25 19t7 32v388q0 19 -7 32t-25 19h288l18 -72q-15 29 -38 46.5t-58 17.5h-144v-229
h103q18 0 32 6.5t19 25.5v-71q-5 18 -19.5 24.5t-31.5 6.5h-103v-237h144z" />
    <glyph glyph-name="uni0208" unicode="&#x208;" horiz-adv-x="338" 
d="M299 771h-50q-29 23 -72 72t-61 78v10h97q14 -30 38 -72.5t48 -75.5v-12zM123 771h-50q-32 25 -74.5 74t-58.5 76v10h97q14 -30 38 -72.5t48 -75.5v-12zM636 -83q80 0 149 -33t126 -87l-4 -5q-57 51 -131.5 72.5t-149.5 21.5q-66 0 -130.5 -10.5t-128.5 -22.5
t-128.5 -22.5t-130.5 -10.5q-51 0 -103.5 14t-95 42.5t-70 72t-27.5 101.5q0 55 19.5 101t53.5 79t81 51.5t101 18.5v139q0 17 -6.5 31.5t-24.5 19.5h95q-18 -5 -24 -19.5t-6 -31.5v-140q29 0 58 -8.5t55 -24t47 -37t34 -47.5l-7 -4q-12 27 -32 47.5t-45 34.5t-53 21.5
t-57 7.5v-239q0 -15 6.5 -30t23.5 -20h-95q18 5 24.5 20t6.5 32v236q-51 0 -93.5 -17t-73 -48t-47.5 -73.5t-17 -93.5q0 -59 25 -102t65.5 -71.5t92 -42t103.5 -13.5q66 0 129.5 14t127 31t127.5 31t130 14z" />
    <glyph glyph-name="uni0209" unicode="&#x209;" horiz-adv-x="257" 
d="M258 606h-50q-29 23 -72 72t-61 78v10h97q14 -30 38 -72.5t48 -75.5v-12zM82 606h-50q-32 25 -74.5 74t-58.5 76v10h97q14 -30 38 -72.5t48 -75.5v-12zM101 51q0 -18 6.5 -31.5t24.5 -19.5h-97q18 6 25 19t7 32v388q0 19 -7 32t-25 19h97q-18 -6 -24.5 -19.5t-6.5 -31.5
v-388z" />
    <glyph glyph-name="uni020A" unicode="&#x20a;" horiz-adv-x="338" 
d="M172 905q69 0 108.5 -33.5t44.5 -100.5h-54q-4 36 -25 49.5t-76 13.5q-50 0 -73.5 -15.5t-27.5 -47.5h-55q5 63 47.5 98.5t110.5 35.5zM636 -83q80 0 149 -33t126 -87l-4 -5q-57 51 -131.5 72.5t-149.5 21.5q-66 0 -130.5 -10.5t-128.5 -22.5t-128.5 -22.5t-130.5 -10.5
q-51 0 -103.5 14t-95 42.5t-70 72t-27.5 101.5q0 55 19.5 101t53.5 79t81 51.5t101 18.5v139q0 17 -6.5 31.5t-24.5 19.5h95q-18 -5 -24 -19.5t-6 -31.5v-140q29 0 58 -8.5t55 -24t47 -37t34 -47.5l-7 -4q-12 27 -32 47.5t-45 34.5t-53 21.5t-57 7.5v-239q0 -15 6.5 -30
t23.5 -20h-95q18 5 24.5 20t6.5 32v236q-51 0 -93.5 -17t-73 -48t-47.5 -73.5t-17 -93.5q0 -59 25 -102t65.5 -71.5t92 -42t103.5 -13.5q66 0 129.5 14t127 31t127.5 31t130 14z" />
    <glyph glyph-name="uni020B" unicode="&#x20b;" horiz-adv-x="257" 
d="M131 740q69 0 108.5 -33.5t44.5 -100.5h-54q-4 36 -25 49.5t-76 13.5q-50 0 -73.5 -15.5t-27.5 -47.5h-55q5 63 47.5 98.5t110.5 35.5zM101 51q0 -18 6.5 -31.5t24.5 -19.5h-97q18 6 25 19t7 32v388q0 19 -7 32t-25 19h97q-18 -6 -24.5 -19.5t-6.5 -31.5v-388z" />
    <glyph glyph-name="uni020C" unicode="&#x20c;" horiz-adv-x="780" 
d="M521 771h-50q-29 23 -72 72t-61 78v10h97q14 -30 38 -72.5t48 -75.5v-12zM345 771h-50q-32 25 -74.5 74t-58.5 76v10h97q14 -30 38 -72.5t48 -75.5v-12zM530 245q0 -51 -19.5 -96t-53 -78.5t-78.5 -53t-96 -19.5t-96 19.5t-78.5 53t-53 78.5t-19.5 96t19.5 96t53 78.5
t78.5 53t96 19.5t96 -19.5t78.5 -53t53 -78.5t19.5 -96zM77 257q0 -45 16 -90t45 -81.5t69.5 -59t88.5 -22.5q45 0 81 20t61 52.5t38.5 73.5t13.5 83q0 45 -16 90t-44.5 81t-68.5 58t-89 22q-45 0 -81 -20t-61.5 -52t-39 -72.5t-13.5 -82.5z" />
    <glyph glyph-name="uni020D" unicode="&#x20d;" horiz-adv-x="604" 
d="M438 606h-50q-29 23 -72 72t-61 78v10h97q14 -30 38 -72.5t48 -75.5v-12zM262 606h-50q-32 25 -74.5 74t-58.5 76v10h97q14 -30 38 -72.5t48 -75.5v-12zM530 245q0 -51 -19.5 -96t-53 -78.5t-78.5 -53t-96 -19.5t-96 19.5t-78.5 53t-53 78.5t-19.5 96t19.5 96t53 78.5
t78.5 53t96 19.5t96 -19.5t78.5 -53t53 -78.5t19.5 -96zM77 257q0 -45 16 -90t45 -81t69.5 -58.5t88.5 -22.5q45 0 81 20t61 52.5t38.5 73t13.5 82.5q0 45 -16 90t-44.5 81t-68.5 58t-89 22q-45 0 -81 -20t-61.5 -52t-39 -72.5t-13.5 -82.5z" />
    <glyph glyph-name="uni020E" unicode="&#x20e;" horiz-adv-x="780" 
d="M393 905q69 0 108.5 -33.5t44.5 -100.5h-54q-4 36 -25 49.5t-76 13.5q-50 0 -73.5 -15.5t-27.5 -47.5h-55q5 63 47.5 98.5t110.5 35.5zM530 245q0 -51 -19.5 -96t-53 -78.5t-78.5 -53t-96 -19.5t-96 19.5t-78.5 53t-53 78.5t-19.5 96t19.5 96t53 78.5t78.5 53t96 19.5
t96 -19.5t78.5 -53t53 -78.5t19.5 -96zM77 257q0 -45 16 -90t45 -81.5t69.5 -59t88.5 -22.5q45 0 81 20t61 52.5t38.5 73.5t13.5 83q0 45 -16 90t-44.5 81t-68.5 58t-89 22q-45 0 -81 -20t-61.5 -52t-39 -72.5t-13.5 -82.5z" />
    <glyph glyph-name="uni020F" unicode="&#x20f;" horiz-adv-x="604" 
d="M305 740q69 0 108.5 -33.5t44.5 -100.5h-54q-4 36 -25 49.5t-76 13.5q-50 0 -73.5 -15.5t-27.5 -47.5h-55q5 63 47.5 98.5t110.5 35.5zM530 245q0 -51 -19.5 -96t-53 -78.5t-78.5 -53t-96 -19.5t-96 19.5t-78.5 53t-53 78.5t-19.5 96t19.5 96t53 78.5t78.5 53t96 19.5
t96 -19.5t78.5 -53t53 -78.5t19.5 -96zM77 257q0 -45 16 -90t45 -81t69.5 -58.5t88.5 -22.5q45 0 81 20t61 52.5t38.5 73t13.5 82.5q0 45 -16 90t-44.5 81t-68.5 58t-89 22q-45 0 -81 -20t-61.5 -52t-39 -72.5t-13.5 -82.5z" />
    <glyph glyph-name="uni0210" unicode="&#x210;" horiz-adv-x="622" 
d="M440 771h-50q-29 23 -72 72t-61 78v10h97q14 -30 38 -72.5t48 -75.5v-12zM264 771h-50q-32 25 -74.5 74t-58.5 76v10h97q14 -30 38 -72.5t48 -75.5v-12zM727 -91q-23 -12 -42.5 -20t-39 -13.5t-40.5 -8t-47 -2.5q-54 0 -91 24.5t-63.5 60.5t-47.5 79t-44 79t-52.5 60.5
t-72.5 24.5h-85v-143q0 -17 7 -31t25 -19h-99q19 5 25.5 19.5t6.5 31.5v389q0 17 -7 31t-25 19h162q36 0 69.5 -8t59.5 -26t42 -46.5t16 -68.5q0 -33 -12.5 -59.5t-34 -45.5t-49.5 -29.5t-59 -12.5q33 -10 59.5 -37.5t50.5 -62t48.5 -72t53.5 -69t64.5 -51.5t83.5 -20
q40 0 69.5 8t63.5 28zM102 200h96q65 0 105.5 37.5t40.5 103.5t-40.5 103t-105.5 37h-96v-281z" />
    <glyph glyph-name="uni0211" unicode="&#x211;" horiz-adv-x="413" 
d="M376 606h-50q-29 23 -72 72t-61 78v10h97q14 -30 38 -72.5t48 -75.5v-12zM200 606h-50q-32 25 -74.5 74t-58.5 76v10h97q14 -30 38 -72.5t48 -75.5v-12zM102 50q0 -18 7 -31t24 -19h-97q18 6 24.5 19.5t6.5 31.5v388q0 18 -6.5 31.5t-24.5 19.5h161q36 0 69.5 -8
t59.5 -26t42 -46.5t16 -68.5q0 -29 -10.5 -53.5t-28.5 -42.5t-42 -30.5t-51 -17.5l108 -164q8 -11 20 -19.5t25 -13.5h-63l-128 193h-112v-143zM102 200h97q65 0 105 37.5t40 103.5t-40 103.5t-105 37.5h-97v-282z" />
    <glyph glyph-name="uni0212" unicode="&#x212;" horiz-adv-x="622" 
d="M313 905q69 0 108.5 -33.5t44.5 -100.5h-54q-4 36 -25 49.5t-76 13.5q-50 0 -73.5 -15.5t-27.5 -47.5h-55q5 63 47.5 98.5t110.5 35.5zM727 -91q-23 -12 -42.5 -20t-39 -13.5t-40.5 -8t-47 -2.5q-54 0 -91 24.5t-63.5 60.5t-47.5 79t-44 79t-52.5 60.5t-72.5 24.5h-85
v-143q0 -17 7 -31t25 -19h-99q19 5 25.5 19.5t6.5 31.5v389q0 17 -7 31t-25 19h162q36 0 69.5 -8t59.5 -26t42 -46.5t16 -68.5q0 -33 -12.5 -59.5t-34 -45.5t-49.5 -29.5t-59 -12.5q33 -10 59.5 -37.5t50.5 -62t48.5 -72t53.5 -69t64.5 -51.5t83.5 -20q40 0 69.5 8t63.5 28z
M102 200h96q65 0 105.5 37.5t40.5 103.5t-40.5 103t-105.5 37h-96v-281z" />
    <glyph glyph-name="uni0213" unicode="&#x213;" horiz-adv-x="413" 
d="M244 740q69 0 108.5 -33.5t44.5 -100.5h-54q-4 36 -25 49.5t-76 13.5q-50 0 -73.5 -15.5t-27.5 -47.5h-55q5 63 47.5 98.5t110.5 35.5zM102 50q0 -18 7 -31t24 -19h-97q18 6 24.5 19.5t6.5 31.5v388q0 18 -6.5 31.5t-24.5 19.5h161q36 0 69.5 -8t59.5 -26t42 -46.5
t16 -68.5q0 -29 -10.5 -53.5t-28.5 -42.5t-42 -30.5t-51 -17.5l108 -164q8 -11 20 -19.5t25 -13.5h-63l-128 193h-112v-143zM102 200h97q65 0 105 37.5t40 103.5t-40 103.5t-105 37.5h-97v-282z" />
    <glyph glyph-name="uni0214" unicode="&#x214;" horiz-adv-x="730" 
d="M509 771h-50q-29 23 -72 72t-61 78v10h97q14 -30 38 -72.5t48 -75.5v-12zM333 771h-50q-32 25 -74.5 74t-58.5 76v10h97q14 -30 38 -72.5t48 -75.5v-12zM583 658q-48 0 -83 -30t-58 -73.5t-34.5 -93t-11.5 -88.5v-205q0 -39 -9 -71t-28 -54.5t-48.5 -35t-70.5 -12.5
q-85 0 -129 45t-44 128v272q0 18 -7 31.5t-25 18.5h97q-18 -5 -24 -19t-6 -31v-271q0 -33 8.5 -62t25.5 -51t43 -34.5t62 -12.5q77 0 111.5 43.5t34.5 116.5v208q0 43 7 93.5t26.5 94t54 72.5t89.5 29q31 0 61 -9l-2 -5q-10 4 -19.5 5t-20.5 1z" />
    <glyph glyph-name="uni0215" unicode="&#x215;" horiz-adv-x="618" 
d="M438 606h-50q-29 23 -72 72t-61 78v10h97q14 -30 38 -72.5t48 -75.5v-12zM262 606h-50q-32 25 -74.5 74t-58.5 76v10h97q14 -30 38 -72.5t48 -75.5v-12zM440 490q-19 -6 -32 -18t-13 -33v-272q0 -78 -36.5 -125t-119.5 -47q-85 0 -128.5 44.5t-43.5 127.5v272
q0 18 -7 31.5t-25 19.5h97q-18 -6 -24.5 -19.5t-6.5 -31.5v-271q0 -33 8.5 -62t26 -50.5t43.5 -34t61 -12.5q77 0 112 42.5t35 116.5v272q0 21 -13.5 32.5t-31.5 17.5h98z" />
    <glyph glyph-name="uni0216" unicode="&#x216;" horiz-adv-x="730" 
d="M368 905q69 0 108.5 -33.5t44.5 -100.5h-54q-4 36 -25 49.5t-76 13.5q-50 0 -73.5 -15.5t-27.5 -47.5h-55q5 63 47.5 98.5t110.5 35.5zM583 658q-48 0 -83 -30t-58 -73.5t-34.5 -93t-11.5 -88.5v-205q0 -39 -9 -71t-28 -54.5t-48.5 -35t-70.5 -12.5q-85 0 -129 45
t-44 128v272q0 18 -7 31.5t-25 18.5h97q-18 -5 -24 -19t-6 -31v-271q0 -33 8.5 -62t25.5 -51t43 -34.5t62 -12.5q77 0 111.5 43.5t34.5 116.5v208q0 43 7 93.5t26.5 94t54 72.5t89.5 29q31 0 61 -9l-2 -5q-10 4 -19.5 5t-20.5 1z" />
    <glyph glyph-name="uni0217" unicode="&#x217;" horiz-adv-x="618" 
d="M311 740q69 0 108.5 -33.5t44.5 -100.5h-54q-4 36 -25 49.5t-76 13.5q-50 0 -73.5 -15.5t-27.5 -47.5h-55q5 63 47.5 98.5t110.5 35.5zM440 490q-19 -6 -32 -18t-13 -33v-272q0 -78 -36.5 -125t-119.5 -47q-85 0 -128.5 44.5t-43.5 127.5v272q0 18 -7 31.5t-25 19.5h97
q-18 -6 -24.5 -19.5t-6.5 -31.5v-271q0 -33 8.5 -62t26 -50.5t43.5 -34t61 -12.5q77 0 112 42.5t35 116.5v272q0 21 -13.5 32.5t-31.5 17.5h98z" />
    <glyph glyph-name="uni0218" unicode="&#x218;" horiz-adv-x="485" 
d="M458 23q0 -47 -15 -86t-42 -66.5t-65.5 -43t-85.5 -15.5q-45 0 -87 14t-73.5 40t-50.5 64.5t-19 86.5q0 44 14.5 77t40 55t60.5 33t77 11h18v-4q-38 0 -71.5 -14t-58 -39t-39 -58t-14.5 -72q0 -44 14.5 -78t40.5 -57t61.5 -35.5t77.5 -12.5q86 0 135.5 51t49.5 136
q0 44 -19 81t-48 70.5t-62 64.5t-62 61t-48 60.5t-19 63.5q0 45 28.5 68t71.5 23q26 0 50.5 -10.5t49.5 -10.5q10 0 16 9v-97q-4 20 -14.5 39t-26.5 33t-35.5 22.5t-40.5 8.5q-37 0 -63.5 -20t-26.5 -60q0 -31 21 -59.5t52 -57.5t67.5 -58.5t67.5 -63t52 -71.5t21 -83z
M262 -236q0 -14 -6 -27t-16 -22l-4 3q3 5 5.5 10t2.5 10q0 4 -4.5 5.5t-10 3.5t-10 6t-4.5 15q0 9 6.5 15.5t15.5 6.5q11 0 18 -7.5t7 -18.5z" />
    <glyph glyph-name="uni0219" unicode="&#x219;" horiz-adv-x="479" 
d="M161 -209q11 25 24 70.5t17 77.5h87v-9q-8 -31 -31.5 -76.5t-48.5 -74.5h-48v12zM351 113q0 -30 -15 -52t-38 -37t-50.5 -22.5t-53.5 -7.5q-18 0 -34.5 4.5t-32.5 9.5t-31 9.5t-29 4.5q-20 0 -33 -18v128q18 -54 57 -91t99 -37q23 0 47 5t43.5 16t32 30t12.5 46
q0 33 -20.5 55.5t-51.5 40t-66.5 33t-66.5 36t-51.5 47.5t-20.5 68q0 30 12 52.5t31.5 37t45.5 22t53 7.5q22 0 41.5 -6t35 -13.5t26.5 -13.5t17 -6q13 0 20.5 9.5t9.5 20.5v-72v-35q-7 23 -21 42.5t-33 34.5t-41.5 23.5t-46.5 8.5q-22 0 -44.5 -4.5t-40.5 -15.5
t-29.5 -28.5t-11.5 -44.5q0 -33 20.5 -55.5t51.5 -40.5t67.5 -34.5t67.5 -37.5t51.5 -49t20.5 -70z" />
    <glyph glyph-name="uni021A" unicode="&#x21a;" horiz-adv-x="220" 
d="M99 47q0 -17 7 -29.5t24 -17.5h-96q17 5 24.5 18t7.5 30v462q-26 1 -54.5 5t-55.5 12.5t-52 22t-44 32.5l3 9q41 -38 88 -53t102 -15q57 0 112 13t109.5 29t109.5 29t112 13q61 0 115 -16t94 -65l-9 -4q-29 44 -72 57.5t-93 13.5q-55 0 -109 -13t-107 -28.5t-107 -28.5
t-109 -13v-463zM109 -73q0 -14 -6 -27t-16 -22l-4 3q3 5 5.5 10t2.5 10q0 4 -4.5 5.5t-10 3.5t-10 6t-4.5 15q0 9 6.5 15.5t15.5 6.5q11 0 18 -7.5t7 -18.5z" />
    <glyph glyph-name="uni021B" unicode="&#x21b;" horiz-adv-x="444" 
d="M238 51q0 -17 7.5 -31t24.5 -20h-98q18 6 25 19t7 32v431h-72q-35 0 -58 -17.5t-38 -46.5l17 72h338l18 -71q-15 29 -38.5 46t-57.5 17h-75v-431zM241 -73q0 -14 -6 -27t-16 -22l-4 3q3 5 5.5 10t2.5 10q0 4 -4.5 5.5t-10 3.5t-10 6t-4.5 15q0 9 6.5 15.5t15.5 6.5
q11 0 18 -7.5t7 -18.5z" />
    <glyph glyph-name="uni021C" unicode="&#x21c;" horiz-adv-x="587" 
d="M519 547q0 -69 -44.5 -113.5t-124.5 -56.5v-4q91 -12 137.5 -56t46.5 -115q0 -100 -75.5 -156t-212.5 -56q-128 0 -208 39v82q48 -23 103.5 -35t103.5 -12q97 0 146 35.5t49 102.5q0 64 -55 97t-165 33h-102v75h97q106 0 158.5 35.5t52.5 95.5q0 52 -39 82t-105 30
q-56 0 -100.5 -13t-97.5 -48l-43 61q103 74 242 74q110 0 173 -47.5t63 -129.5z" />
    <glyph glyph-name="uni021D" unicode="&#x21d;" horiz-adv-x="498" 
d="M193 228q70 0 111.5 35t41.5 90t-38.5 88t-103.5 33q-30 0 -60.5 -7.5t-72.5 -26.5l-30 70q44 21 83 28.5t85 7.5q103 0 162 -48t59 -133q0 -61 -31.5 -105t-95.5 -65q81 -21 121 -71t40 -123q0 -70 -33 -125.5t-93.5 -85.5t-138.5 -30q-116 0 -189 37v80
q44 -21 95 -32.5t98 -11.5q79 0 126 45t47 121q0 77 -51 118t-151 41h-79v70h98z" />
    <glyph glyph-name="uni021E" unicode="&#x21e;" horiz-adv-x="741" 
d="M253 775l-44 -56h-25l-43 56h11l45 -41l46 41h10zM735 -85q44 0 81.5 -7t71 -22t65 -37.5t62.5 -52.5l-4 -5q-29 26 -64.5 44t-73.5 29t-78 16t-78 5q-66 0 -130 -10.5t-128.5 -22.5t-128.5 -22.5t-130 -10.5q-53 0 -103.5 15t-89.5 44.5t-63 73.5t-24 103q0 36 10 71
t29 65t46.5 53.5t61.5 36.5v157q0 18 -6.5 32.5t-25.5 19.5h97q-18 -6 -24.5 -20.5t-6.5 -31.5v-145q16 4 32 5.5t33 1.5q57 0 107.5 -18.5t89.5 -62.5v220q0 17 -6.5 31.5t-24.5 19.5h97q-18 -5 -24.5 -19.5t-6.5 -31.5v-390q0 -17 7.5 -30.5t24.5 -18.5h-98q18 5 24.5 19
t6.5 31v159q-35 35 -77 57t-93 22q-23 0 -46 -1t-46 -8v-230q0 -17 7.5 -30.5t23.5 -18.5h-97q18 5 25 18.5t7 31.5v213q-32 -16 -55 -39.5t-38 -52.5t-22 -62t-7 -68q0 -56 23 -96.5t60.5 -66.5t85.5 -39t97 -13q67 0 132 14t130 30.5t130 30.5t132 14z" />
    </font>
</defs>
</svg>
