<?xml version="1.0" standalone="no"?>
<!DOCTYPE svg PUBLIC "-//W3C//DTD SVG 1.1//EN" "http://www.w3.org/Graphics/SVG/1.1/DTD/svg11.dtd" >
<svg xmlns="http://www.w3.org/2000/svg" xmlns:xlink="http://www.w3.org/1999/xlink" version="1.1">
<metadata>
Created by FontForge 20190801 at Mon Feb  8 12:15:07 2021
 By root
Holytramp
</metadata>
<defs>
<font id="Horizon-Bold" horiz-adv-x="190" >
  <font-face 
    font-family="Horizon Bold"
    font-weight="700"
    font-stretch="normal"
    units-per-em="1000"
    panose-1="0 0 8 0 0 0 0 0 0 0"
    ascent="800"
    descent="-200"
    x-height="734"
    cap-height="743"
    bbox="-213 -240 1250 1047"
    underline-thickness="50"
    underline-position="-100"
    unicode-range="U+0001-206F"
  />
<missing-glyph horiz-adv-x="364" 
d="M33 0v666h265v-666h-265zM66 33h199v600h-199v-600z" />
    <glyph glyph-name=".notdef" horiz-adv-x="364" 
d="M33 0v666h265v-666h-265zM66 33h199v600h-199v-600z" />
    <glyph glyph-name="uni0000" 
 />
    <glyph glyph-name="uni0000" 
 />
    <glyph glyph-name="uni000D" unicode="&#xd;" 
 />
    <glyph glyph-name="uni0001" 
 />
    <glyph glyph-name="uni0002" 
 />
    <glyph glyph-name="uni0003" 
 />
    <glyph glyph-name="uni0004" 
 />
    <glyph glyph-name="uni0005" 
 />
    <glyph glyph-name="uni0006" 
 />
    <glyph glyph-name="uni0007" 
 />
    <glyph glyph-name="uni0008" 
 />
    <glyph glyph-name="uni0009" unicode="&#x9;" 
 />
    <glyph glyph-name="uni000A" unicode="&#xa;" 
 />
    <glyph glyph-name="uni000B" 
 />
    <glyph glyph-name="uni000C" 
 />
    <glyph glyph-name="uni000E" 
 />
    <glyph glyph-name="uni000F" 
 />
    <glyph glyph-name="uni0010" 
 />
    <glyph glyph-name="uni0011" 
 />
    <glyph glyph-name="uni0012" 
 />
    <glyph glyph-name="uni0013" 
 />
    <glyph glyph-name="uni0014" 
 />
    <glyph glyph-name="uni0015" 
 />
    <glyph glyph-name="uni0016" 
 />
    <glyph glyph-name="uni0017" 
 />
    <glyph glyph-name="uni0018" 
 />
    <glyph glyph-name="uni0019" 
 />
    <glyph glyph-name="uni001A" 
 />
    <glyph glyph-name="uni001B" 
 />
    <glyph glyph-name="uni001C" 
 />
    <glyph glyph-name="uni001D" 
 />
    <glyph glyph-name="uni001E" 
 />
    <glyph glyph-name="uni001F" 
 />
    <glyph glyph-name="space" unicode=" " 
 />
    <glyph glyph-name="exclam" unicode="!" horiz-adv-x="107" 
d="M22 648v1v36q0 4 -0.5 12.5t-0.5 13.5v6q0 9 7.5 15.5t16.5 6.5t15 -6q8 -8 9 -11l2 -4q2 -10 2 -17q0 -1 0.5 -5t0.5 -6q2 -28 1 -43q0 -51 1 -73v-1q1 -27 1 -73q0 -13 1 -19v-20q0 -4 1 -6v-10v-2q-2 -23 1 -37q2 -15 0 -38q-1 -10 1 -37v-1v-19q1 -18 0 -37
q0 -22 1 -33v-1v-25q2 -25 0 -51v-1q-1 -11 1 -37v-2q0 -13 -4 -20q-6 -15 -25 -15q-16 0 -24 16l-2 4v3q0 1 -0.5 3.5t-0.5 4.5v15v33v1q1 6 1 20v8q-2 14 1 26v2q-2 17 -2 50q2 14 0 29v1v10q0 2 -0.5 6t-0.5 7q-1 19 0 39v1q2 10 0 19v1q-3 42 -2 67v13q-1 5 -1 15v97
q-1 23 -1 68zM68 59l4 -2q15 -7 15 -25q0 -9 -4 -14q-7 -12 -17 -15l-1 -1h-1q-8 -2 -10 -2q-8 0 -16 5l-1 1q-10 7 -15 20q-4 9 0 18q2 7 8 10q7 7 15 7h2l1 -1q6 -1 15 -1h5zM59 39l-2 1h-3h-3q3 -1 8 -1z" />
    <glyph glyph-name="quotedbl" unicode="&#x22;" horiz-adv-x="168" 
d="M147 640v-9q0 -10 -7.5 -17.5t-19.5 -7.5q-17 0 -25 15l-2 5v37q1 5 1 14q1 5 1 16q2 19 22 22q2 1 5 1q10 0 18 -8t8 -20v-20q-3 -10 -1 -28zM49 714q10 0 18 -8t8 -20v-20q-3 -10 -1 -28v-9q0 -10 -7.5 -17.5t-19.5 -7.5q-17 0 -25 15l-2 5v37q1 5 1 14q1 5 1 16
q2 19 22 22q2 1 5 1z" />
    <glyph glyph-name="numbersign" unicode="#" horiz-adv-x="665" 
d="M498 375l-23 -114h119v-100h-138l-31 -161h-107l31 161h-95l-30 -161h-105l29 161h-109v100h128l23 114h-116v102h134l29 155h107l-29 -155h97l29 155h105l-29 -155h110v-102h-129zM273 261h96l23 114h-96z" />
    <glyph glyph-name="dollar" unicode="$" horiz-adv-x="275" 
d="M148 589q0 -18 -1 -26v-40v-5l1 -1v-3q1 -10 -1 -32q-1 -14 0 -27v-2q0 -34 -1 -52q20 -20 30 -28q16 -13 33 -39l1 -1q1 -3 6 -8l6 -9l1 -1q11 -22 17 -44l1 -1v-1q3 -19 5 -38v-2v-3l1 -1v-2q3 -21 0 -33v-1v-4q2 -36 -13 -74l-6 -19q-4 -15 -18 -27q-12 -13 -35 -26
q-7 -6 -18 -8l-3 -1h-3h-6q-1 -9 -1 -29v-14q0 -8 -2 -13q-3 -10 -13 -13q-6 -3 -12 -3q-9 0 -16.5 7t-7.5 16v57q-13 5 -34 26l-1 1l-4 6q-12 14 -17 23q-1 2 -4.5 6.5t-4.5 6.5h-1v1q-7 10 -7 21q0 9 5 16q7 10 19 10q7 0 12 -3l11 -5v-6l15 -24h1q3 -6 11 -16v4v4l1 4
q1 3 0 8v6v1q1 30 1 90v59q1 13 1 41v2q2 17 2 53v4l-10 13q-15 16 -29 41l-9 15l-1 1q-1 2 -2.5 7t-2.5 7q0 1 -1 3v2q-3 6 -10 30l-3 8v1q-7 26 -4 54q0 5 3 12l3 10q4 18 9 26q1 2 2.5 5.5t2.5 5.5q2 4 4 10l1 2l1 1q8 13 25 24q17 7 19 7q4 2 5 2v40q0 10 1 13q1 7 9 12
l1 2l3 1q3 2 10 2q9 0 16 -6t8 -15l1 -11v-2q-1 -11 -1 -36l7 -1q15 -3 37 -14h1l1 -1l5 -3q12 -6 18 -12l11 -11q4 -6 5 -7l2 -2q11 -14 15 -26q3 -5 3 -10q0 -12 -11 -19q-8 -4 -14 -4h-10l-6 9l-1 1q-5 3 -8 10q-3 5 -13 15l-10 10l-1 2q-16 9 -23 11q-4 2 -9 2
q0 -4 -0.5 -12.5t-0.5 -12.5zM79 563q-7 -25 2 -46v-1l10 -30v-1q3 -16 9 -22v57q1 30 1 88q-2 -4 -4 -6q-1 -2 -3 -5t-3 -5v-2l-1 -1q-2 -3 -11 -26zM184 113l3 12q0 1 1.5 6t2.5 8q4 12 4 23q0 18 1 28v1l1 1q1 8 -1 26l-2 17v1q0 4 -1 5v2l-1 2q0 1 -3 16q-2 6 -2 7v1
q-3 12 -7 16l-1 2l-1 1q-1 1 -8 13t-11 17h-1l-4 4q-1 3 -4 4l-2 2l-3 3v-15q0 -29 -1 -44v-104v-63v-27q1 0 1 1q7 3 22 14l6 4q5 5 10 16h1z" />
    <glyph glyph-name="percent" unicode="%" horiz-adv-x="298" 
d="M173 300l-24 -79q-8 -32 -13 -47l-13 -46q-12 -48 -29 -103q-8 -29 -22 -87q-2 -8 -5 -15l-2 -3l-2 -2q-4 -4 -6 -5l-4 -3h-8q-11 0 -18 7t-7 18v8l1 3q5 15 19 60l6 22v1q18 59 29 101v1q7 23 11 40l12 41q2 8 4 12q6 18 8 26v2q1 3 2.5 8t2.5 8l6 22l27 96v2
q-7 -12 -22 -23q-19 -11 -36 -11q-37 0 -58 26q-12 15 -12 34v24q0 22 16 39v1h1q10 10 24 13h21l3 -1q1 0 4.5 -0.5t6.5 -0.5h2q20 -3 33 -16q1 -1 2.5 -2t2.5 -2q7 -7 11 -12q12 -12 12 -31l6 21q6 26 17 61v1q22 76 29 100l5 21q4 20 26 20h5l4 -2q11 -8 14 -13l2 -4v-3
q1 -8 -2 -15q-2 -4 -18 -56l-6 -21l-12 -46v-1q-5 -15 -8 -26q-1 -1 -1 -3t-1 -3q-6 -22 -20 -64v-2h-1v-3q-2 -6 -3 -10q-3 -13 -11 -39q-3 -12 -11 -38v-1zM72 412v-1q8 -5 15 -5q5 0 9 3h1q9 5 10 15v2h-1q-6 6 -9 10q-1 1 -3.5 1.5t-3.5 0.5q-11 0 -18 1v-1q-1 -2 -1 -3
t-1 -2v-3q0 -14 1 -17zM266 183q9 -11 10 -19q5 -17 0 -35q-4 -16 -8 -24l-1 -1v-1q-17 -25 -50 -33l-2 -1h-3q-8 0 -13 2l-25 6l-2 1q-17 7 -25 26q-11 23 -6 46q1 3 2.5 9t2.5 9q11 26 34 35h2l5 2q2 0 5 1.5t6.5 2t7.5 0.5l7 -1q5 0 6 -1h4h4q19 -4 39 -24zM210 122h1
q16 7 16 24l-1 2v3q-5 5 -9 5q-2 0 -5.5 -0.5t-4.5 -0.5q-6 0 -8 -1q-4 0 -6 -6l-1 -2v-3l-1 -2q-2 -7 1 -15l1 -1q6 -2 11 -2h1q2 -1 5 -1z" />
    <glyph glyph-name="ampersand" unicode="&#x26;" horiz-adv-x="329" 
d="M304 49l3 -10q3 -7 0 -16q-1 -8 -9 -14q-7 -5 -14 -5q-15 0 -22 13l-4 7l-1 2q-4 15 -14 33l-4 10l-1 -2q-11 -29 -30 -49q-9 -11 -21 -14l-2 -1l-3 -1h-5q-10 -2 -16 -2h-6h-12q-34 -1 -71 26q-26 22 -36 48q-14 39 -13 80q-1 6 2 31q0 3 0.5 7.5t0.5 6.5q0 8 5 23l1 2
l15 49v1q2 2 2 4q3 8 4 10v1q10 17 22 45q1 4 15 31q5 7 6 11l1 1q5 7 7 13q0 1 -2 3.5t-2 4.5q0 1 -1 2q-18 29 -27 53v1q-10 27 -19 48l-6 12l-15 32q-7 14 -10 37v7q-2 12 -2 20v4q1 2 1.5 5.5t0.5 5.5q2 19 5 28l2 11q4 21 16 38q4 9 14 16q19 16 41 18h2q2 1 3 1
q10 2 16 2q2 0 4 -0.5t3 -0.5q38 -1 64 -20l20 -14q13 -11 18 -20q12 -21 14 -39v-3l1 -1l1 -2q7 -34 0 -77q0 -4 -1 -6v-3v-1q-1 -23 -13 -45q-11 -24 -20 -38l-28 -43q-1 -2 -4.5 -8.5t-5.5 -10.5q-1 -1 -2.5 -5t-2.5 -5v-1l-1 -3q-1 -5 -6 -10q5 -14 16 -39
q12 -27 22 -51l5 -9q1 -2 2.5 -5.5t2.5 -5.5q14 -25 22 -57l3 -10q3 7 5 13q4 8 5 12l1 1v1q3 6 7 18q2 4 2 5l1 1v1q7 14 21 14q1 0 7 -2q13 -3 16 -15q4 -8 1 -14q-3 -12 -4 -17q-6 -18 -20 -52l-11 -31v-2q1 -2 10 -23l3 -10q18 -44 24 -56zM84 667q-5 -12 -11 -38
q-5 -16 -2 -26q1 -6 1 -14q0 -7 3 -15h1q2 -8 6 -15v-1l21 -47l12 -27q2 -5 5.5 -14t5.5 -13h1q3 -8 8 -17l17 29l31 54q10 19 12 38q0 2 0.5 4t0.5 3v1l1 3q1 3 3 23v9q1 9 -7 39l-2 4q-1 13 -14 22q-23 14 -31 15l-9 3q-6 2 -11 2q-10 0 -24 -4h-1q-13 -3 -17 -18zM101 67
h1q14 -13 27 -14l26 -3q1 0 4 0.5t4 1.5l8 2q10 12 16 26l10 24l12 34l-1 1v1q-18 33 -27 70q-1 0 -1 2t-1 2q-1 1 -1 3.5t-1 3.5q-10 24 -22 51l-26 55l-31 -63q-3 -4 -3 -9q-2 -6 -12 -38q-2 -4 -2 -5v-1q-5 -12 -6 -30v-1q-1 -4 -1 -12q0 -2 -0.5 -6t-0.5 -7v-9
q2 -29 7 -41l9 -24q1 -2 1 -3l1 -2l2 -2q1 -1 4 -3.5t4 -3.5z" />
    <glyph glyph-name="quotesingle" unicode="'" horiz-adv-x="95" 
d="M75 680l-1 -2q-1 -12 0 -28v-9q0 -9 -8 -17t-19 -8q-18 0 -25 15l-2 5v37q0 10 1 14q0 11 1 16q0 18 21 22q1 0 3 1h2q3 0 19 -8q8 -8 8 -20v-18z" />
    <glyph glyph-name="parenleft" unicode="(" horiz-adv-x="140" 
d="M47 69q-8 35 -17 100q0 4 -1 12.5t-1 13.5q0 7 -2 23v1l-3 44v15q0 5 -0.5 14.5t-0.5 14.5q-1 5 -1.5 14.5t-0.5 14.5v43q1 7 1 19q0 14 2 40q0 11 2 27q1 5 1 13v1q2 11 4 35q2 11 4 37q0 1 1 5t1 5q4 34 11 56q1 6 12 47l9 32q1 6 6 16q3 7 12 12q6 4 11 4q9 0 16 -7
t7 -16t-2 -14q-1 -5 -5 -21.5t-7 -26.5q-5 -19 -7 -25q-8 -34 -11 -51l-2 -20q-2 -13 -4 -35v-3q-2 -26 -4 -36q-6 -49 -6 -116q0 -13 2 -39v-2q0 -7 1 -10v-12q0 -32 4 -80q8 -73 16 -118v-1q6 -33 18 -66q2 -6 2 -7q3 -10 -1 -19q-1 -3 -6 -8l-4 -4l-5 -1q-2 -1 -8 -1
q-15 0 -23 12l-2 2l-5 13q-12 37 -14 53z" />
    <glyph glyph-name="parenright" unicode=")" horiz-adv-x="140" 
d="M118 417v-10h2v-62q-1 -6 -1 -19q-1 -7 -1.5 -20t-0.5 -20q0 -8 -5 -40q-1 -24 -7 -72v-1q-6 -44 -12 -66q-5 -26 -12 -46l-9 -32v-1q-1 -4 -4 -10l-2 -7l-2 -3l-2 -2q-1 0 -3.5 -2.5t-4.5 -3.5q-4 -3 -11 -3q-9 0 -16 6.5t-7 15.5q0 8 1 14q11 41 13 48l6 25q8 26 12 52
q0 7 2 19q2 13 4 35v3q2 26 4 36q6 58 6 116q0 14 -2 40v1q0 2 -0.5 5.5t-0.5 4.5v12q0 16 -2 46t-2 34q-8 69 -16 119q-6 36 -18 66q-1 3 -3 11q-2 9 2 16q2 4 5 7l4 4l6 2q1 0 3.5 0.5t4.5 0.5q16 0 23 -14q1 -2 7 -13q11 -36 14 -54q10 -40 16 -99q1 -5 2 -15t1 -11
q0 -4 0.5 -12t0.5 -12h1l3 -44v-15q0 -20 1 -30z" />
    <glyph glyph-name="asterisk" unicode="*" horiz-adv-x="138" 
d="M105 657q7 -4 10 -9q4 -7 3 -16q-2 -10 -9 -15q-1 -2 -5 -4q7 -9 4 -20l-3 -6l-1 -3l-3 -2q-6 -8 -17 -8q-9 0 -17 8h-1q-6 -7 -17 -7q-9 0 -16 7t-7 17q0 2 0.5 4t0.5 3v3l2 4l2 2l-3 3q-5 5 -7 14q-2 8 1 14q5 12 19 14v2q0 9 6.5 15t16.5 6q9 0 15 -6q8 -6 8 -17v-1
q2 1 6 1q6 0 12 -3z" />
    <glyph glyph-name="plus" unicode="+" horiz-adv-x="487" 
d="M462 265v-1q10 -16 0 -31q-6 -13 -21 -13q-13 -2 -39 -2q-14 0 -38 2q-9 0 -27.5 0.5t-26.5 0.5q-31 0 -45 -1q-1 -3 -1 -9q-2 -21 0 -29l1 -2v-2q2 -50 2 -75l3 -75v-1q0 -21 -16 -31q-6 -6 -17 -6q-20 0 -26 17q-6 16 -6 31v2q3 30 1 92v36q-1 35 0 35v2v8q-1 2 -1 6
q-10 0 -30 0.5t-30 0.5h-20h-22h-21q-8 0 -12 -1q-18 -3 -20 -3q-10 0 -22 12q-10 10 -7 26q4 16 17 19l3 1h3l7 1h11h1h30q29 0 42 1q23 2 67 2l2 1q0 2 0.5 4.5t0.5 3.5q0 3 0.5 7.5t0.5 6.5q0 5 -0.5 15t-0.5 14q-2 75 0 115q0 19 -2 55v1q0 11 8.5 19t20.5 8q1 0 3 -0.5
t3 -0.5h1q25 -7 25 -28v-4v-15q0 -19 -2 -53q0 -5 -0.5 -14t-0.5 -14v-5v-6l1 -3v-4q0 -24 2 -74v-1v-26q18 -2 24 -2q40 0 114 2h1q4 0 14 2q3 1 8 1q2 1 5 1q18 0 32 -19z" />
    <glyph glyph-name="comma" unicode="," horiz-adv-x="119" 
d="M71 63h3q12 0 18 -7q7 -7 7 -17q0 -6 -1 -8v-2l-1 -4q-6 -13 -21 -43l-8 -14q-8 -15 -23 -15q-12 0 -20 10q-7 10 -4 24l1 1l6 15l1 1q12 21 22 41l1 1q3 11 16 16z" />
    <glyph glyph-name="hyphen" unicode="-" horiz-adv-x="346" 
d="M317 318q8 -6 8 -17q1 -2 1 -5q0 -17 -16 -21q-4 -2 -8 -2h-43q-34 0 -50 1h-26q-4 1 -13 1h-17v1h-13h-33h-1h-5h-5h-19q-4 0 -12 -0.5t-12 -0.5h-2q-1 0 -3.5 -0.5t-4.5 -0.5q-15 0 -21 14q-2 4 -2 16q2 13 13 18l4 2h4q5 1 12 1q2 0 6.5 0.5t7.5 0.5h15h61q4 -1 14 -1
h20q3 -1 12 -1h33q5 0 6 -1h75q9 0 14 -5zM173 315v2q-3 4 -7 6l1 -8h5h1z" />
    <glyph glyph-name="period" unicode="." horiz-adv-x="96" 
d="M71 45q10 -13 3 -26q-4 -9 -12 -15l-1 -1h-1q-6 -3 -12 -3q-5 0 -8 1q-11 2 -18 15l-2 4v8q0 11 8 19.5t20 8.5h3q14 -2 20 -11zM42 39l2 -4q1 1 5 1q5 0 6 -3v-1l3 2l-3 -1l2 2q-2 3 -7 5l-1 -4v4zM47 16h1q8 0 12 8l-1 1h-4q-1 -3 -4 -4t-7 0q-2 0 -4 4v3q0 2 2 6l-2 3
q-2 0 -2 -2q-3 -8 1 -14l4 -4l1 4v-4q1 -1 3 -1z" />
    <glyph glyph-name="slash" unicode="/" horiz-adv-x="289" 
d="M269 716v-4q0 -10 -1 -13q-2 -13 -4 -17l-24 -83q-6 -17 -16 -51q-8 -31 -18 -59l-17 -59q-2 -6 -5.5 -17.5t-4.5 -14.5q-7 -26 -10 -34q-6 -17 -16 -55q-14 -47 -22 -68l-13 -44q-7 -26 -10 -34v-2q-2 -13 -4 -17q-8 -22 -17 -61q-3 -14 -11 -42l-3 -21l-1 -4l-1 -3
q-7 -10 -12 -13q-6 -3 -12 -3q-11 0 -18.5 7.5t-7.5 17.5v2l-1 4v4q0 1 1 2q3 16 5 22q5 15 10 40q5 19 7 25v3q2 2 2 7l3 8l6 21l21 76q1 2 2 6l2 8t3 7l12 39q1 2 2.5 8t2.5 8q5 17 7 22v2q5 20 10 36q8 25 8 30l6 19h1q4 11 10 33v1q1 5 3.5 13t3.5 10q5 17 17 51
q3 10 4 13q25 88 34 115l3 12q2 4 4 10v2q4 10 10 32v2q3 9 7 13q9 7 18 7q15 0 22 -15z" />
    <glyph glyph-name="zero" unicode="0" horiz-adv-x="337" 
d="M312 472q0 -1 0.5 -6.5t0.5 -9.5q8 -101 -2 -144q0 -1 -0.5 -7.5t-0.5 -10.5q-1 -34 -4 -41q-3 -11 -5 -60q0 -5 -0.5 -14t-1.5 -13l-3 -21q-2 -12 -3 -21v-2l-1 -2q-9 -28 -11 -38v-4q-4 -9 -16 -25q-4 -4 -6 -8l-1 -1l-13 -16l-2 -1q-1 -1 -3 -2.5t-3 -2.5
q-13 -12 -61 -16h-6h-2q-14 0 -22 6q-8 4 -14 11v1h-1q-19 24 -29 46q-4 7 -12 19q-13 17 -18 30l-1 1v2q-1 4 -3 6v1l-2 5q-7 27 -8 36q-2 8 -4 20q-6 32 -12 46v1q-2 8 -4 20t-4 16l-2 7l-1 3l-1 4l-3 46l-1 1v3q-2 16 -2 23q0 2 -0.5 7t-0.5 8v1q-2 10 -2 31q0 12 -1 18
v1q0 2 1 13t2 27t1 26q4 66 6 70v1q2 8 4 20q0 4 2 12q1 2 1.5 6.5t0.5 6.5l3 14v1q7 29 24 49l27 33l4 5q20 25 57 32q4 2 13 2q12 0 28 -6q34 -12 59 -43q1 -1 7 -10q0 -1 0.5 -1t0.5 -1l1 -1v-1l9 -16q14 -23 18 -40q2 -2 2 -5q5 -10 6 -16q1 -4 1 -17v-4l3 -15
q5 -25 4 -47q1 -1 1 -5q2 -8 2 -13q2 -4 2 -12q3 -14 2 -19zM256 253q6 29 6 156v21q0 4 -0.5 11t-0.5 10l-3 35v1q0 7 -1 10q0 3 -0.5 6t-1 4.5t-0.5 3v2.5q0 21 -6 48q0 3 -2 13l-1 2v2v4q-2 6 -2 11v1l1 2q0 1 -4 11q-1 4 -15 31l-9 16q-5 12 -17 21q-11 10 -27 14l-1 1
h-2q-19 3 -34 -13q-5 -5 -14 -15.5t-12 -14.5l-9 -12q-2 -4 -2 -5l-1 -1v-2q-2 -4 -6 -17q-4 -15 -5 -26q-4 -26 -8 -38l-9 -103q1 -6 2 -16t1 -12q0 -13 1 -18v-2q2 -34 8 -94q3 -25 8 -39v-1q1 -5 7 -22l1 -1q2 -8 7 -32v-4v-2l1 -1q2 -8 4 -24l2 -11q0 -3 5 -16
q4 -9 5 -16q3 -8 17 -26q10 -12 16 -22v-1q3 -6 17 -22h1l1 -1q4 1 12 1q12 0 16 2l5 2h4q2 0 4 1l1 1q4 4 13 24l2 5v1q6 10 6 19l1 2l3 11v15q2 27 7 44q3 14 5 42q1 6 1.5 11.5t1 8t0.5 3.5z" />
    <glyph glyph-name="one" unicode="1" horiz-adv-x="312" 
d="M60 483l-2 -1q-6 -3 -12 -3q-12 0 -18 8q-7 7 -8 15t4 18q4 6 8 10l6.5 6.5l8 8l6.5 6.5l10 10h1q37 37 55 56l1 1q8 7 24 22t24 22q17 16 53 48q14 12 22 18l6 5l6 4h6q11 0 17 -6q16 -12 14 -30v-24q0 -26 -2 -40q0 -15 -1 -23q0 -16 -1 -24v-52v-10q0 -2 -0.5 -4
t-0.5 -3v-8v-4q2 -9 0 -14v-4v-23q2 -11 0 -23v-15v-29q2 -13 0 -36q0 -5 -1 -7q-1 -19 1 -47q3 -21 1 -38q-3 -42 -3 -84q0 -23 -1 -35v-49v-25q0 -16 2 -48v-1q0 -8 -1 -13q-1 -8 -8 -14t-17 -6h-5q-14 2 -19 14l-3 4v4l-1 2v5v1q1 9 -1 27q0 8 -1 12q0 9 1 11q0 19 -1 28
q0 4 -0.5 13t-0.5 14v43q0 12 2 40l1 3l3 68q-2 17 -2 75v24v55q0 57 2 151v1q1 6 1 18q0 26 3 41v1l-1 1q-14 -14 -32 -29q-22 -20 -32 -30l-1 -1q-21 -19 -40 -40l-21 -21l-1 -1l-12 -12q-2 -2 -6.5 -6t-6.5 -6q-3 -3 -8 -8.5t-8 -8.5l-1 -1z" />
    <glyph glyph-name="two" unicode="2" horiz-adv-x="293" 
d="M241 699l12 -15q23 -23 20 -57v-1q-2 -20 -4 -30v-1l-1 -5q-12 -48 -21 -73v-1l-15 -36q-10 -22 -24 -68q-5 -21 -12 -32q-2 -3 -15 -44l-3 -8v-3l-1 -2q-3 -15 -17 -52l-6 -14q-2 -6 -4 -10q-14 -39 -15 -43q-1 -5 -4.5 -13.5t-5.5 -12.5q-5 -12 -8 -22l-1 -1
q-1 -5 -5 -15q-18 -49 -23 -69l-6 -19h6h2q2 1 8 1q17 0 26 2h18q16 -3 35 -3q3 0 9.5 0.5t10.5 0.5h13q20 0 31 -2q21 -2 21 -25q0 -16 -13 -23q-6 -4 -15 -4h-2q-14 2 -25 2q-2 0 -8 -0.5t-9 -0.5h-19q-10 0 -34 2h-16q-44 -2 -64 -4h-2q-5 0 -10 2q-15 2 -21 12
q-7 11 -1 28q4 10 13 43q1 4 3.5 12.5t3.5 13.5l30 83q1 3 5 14q2 5 4 11l1 1q12 36 27 71q7 16 14 41q2 4 4 12q10 36 19 54q4 9 10 29q0 1 0.5 4t1.5 4v1q10 33 26 71v1q12 22 19 54v1l9 29q4 14 8 42q0 6 -6 16q-9 12 -20 18l-7 3q-9 4 -25 10l-10 3q-8 2 -9 2l-8 -2
q-1 -1 -4 -1.5t-4 -0.5h-1q-3 -2 -9 -3q-25 -7 -41 -19q-3 -2 -8 -5l-5 -3l-4 -2q-4 -3 -12 -3q-6 0 -12 2q-7 4 -11 10q-8 11 -1 23v1l4 5v1q10 11 28 22q29 16 58 22q1 1 2 1q3 0 7 2l1 1h2q15 5 31 0q33 -7 65 -22l1 -1q13 -8 18 -13z" />
    <glyph glyph-name="three" unicode="3" horiz-adv-x="294" 
d="M272 155q-2 -18 -9 -30q-11 -19 -17 -29q-16 -28 -39 -46q-15 -16 -44 -26h-2q-14 -4 -23 -5h-4q-23 0 -49 14q-20 11 -45 34q-4 6 -6 11q-1 1 -1 2l-2 2v2q-4 10 3 22q8 11 22 11q10 0 17 -6l7 -7q16 -19 41 -28h1q6 -2 10 -2l1 -1h3h1q26 6 38 19l19 24l5 6q1 3 5 7
q5 10 8 13q9 14 9 39q0 2 -2 10l-1 1v1q-2 11 -16 43q-2 2 -4 6q-10 20 -16 28l-1 2q-8 13 -26 37q-15 18 -23 32q-9 15 -18 24q-7 4 -12 13q-8 12 -1 21q2 7 10 12q11 13 18 27l12 21q8 10 29 46q9 17 18 28l21 29q8 14 9 23q0 2 0.5 6t0.5 5q2 12 2 17q0 27 -16 45
q-14 16 -21 22q-11 10 -24 14q-1 1 -3 1q-18 6 -20 7q-11 4 -23 -1l-1 -1h-2q-22 -9 -44 -28q-1 0 -1 -1l-2 -2q-1 -2 -2 -3q-6 -9 -18 -9q-10 0 -17 6l-2 3l-1 3q-4 6 -4 14v5l2 4q13 27 33 38q24 17 50 24q13 3 24 3q12 0 27 -5l1 -1h3q28 -6 52 -26q29 -22 48 -53
q14 -23 14 -47v-15q0 -11 -4 -35q-5 -29 -21 -49q-2 -2 -5.5 -7.5t-5.5 -8.5l-9 -12l-1 -1l-6 -9t-5 -8v-1l-23 -39q-8 -12 -11 -18q-8 -12 -11 -18l-9 -13q6 -7 11 -16q8 -13 15 -20v-1q13 -15 32 -44q21 -28 42 -79q16 -37 9 -76z" />
    <glyph glyph-name="four" unicode="4" horiz-adv-x="305" 
d="M172 347h-1q-5 0 -13 -0.5t-12 -0.5q-14 0 -36 2q-16 2 -23 2q-14 0 -26 -3h-7q-9 0 -17.5 7.5t-8.5 17.5q0 6 -1 9v12v50v7v5v1q-4 23 -4 85v13v20q0 52 -2 77v1q-2 29 3 56q1 9 8.5 15.5t17.5 6.5q16 0 23 -14l2 -4v-4q0 -1 0.5 -4t0.5 -5v-1q-2 -54 2 -82v-15v-4
q0 -37 -1 -56q-1 -10 0 -22v-25q0 -3 0.5 -8.5t0.5 -8.5l2 -11q2 -20 2 -33v-31h9h5q6 0 18 -0.5t18 -0.5q5 0 16.5 -0.5t17.5 -0.5q4 0 7 1h10q6 1 20 1q8 0 22 -2v45v27v95q0 15 2 45q3 34 1 64q-1 11 1 27l1 7q0 10 9 16q6 6 15 6q15 0 22 -14l2 -4v-3q0 -3 1 -5
q0 -6 1 -9v-6l1 -1v-3q2 -40 1 -60q-1 -5 -1 -16q-1 -5 -1 -16t-1 -17q-1 -4 -1 -13q1 -3 1 -9v-101v-10v-25v-1l-1 -1v-2q1 -1 1 -5q3 -29 1 -85v-8q0 -18 -2 -28q1 -1 1 -3q2 -14 2 -42v-10v-53v-13l1 -1q2 -19 2 -58v-1v-26q0 -3 0.5 -9.5t0.5 -10.5v-40q0 -9 -7 -19
q0 -1 -1 -1l-1 -2l-1 -1q-8 -8 -19 -8q-16 0 -23 15l-1 1v2q-2 6 -2 16q0 65 -1 97q0 20 -1 30v1q-4 39 -2 83v35v18v56l-28 2q-17 0 -26 -1z" />
    <glyph glyph-name="five" unicode="5" horiz-adv-x="291" 
d="M243 355l19 -50q7 -20 7 -45q2 -20 2 -31v-46h-1q0 -1 -0.5 -3t-0.5 -3v-24q1 -21 -9 -57v-1l-3 -9q-2 -3 -4 -9q-2 -10 -11 -21q-2 -2 -2 -4l-1 -1l-11 -13q-22 -24 -48 -30q-22 -8 -49 -8h-17q-33 3 -65 21q-16 7 -26 28q-5 9 -2 19q3 13 15 18l1 1h2q6 2 9 2
q19 0 24 -16v-1q1 -7 19 -13t38 -6q16 0 31 4q19 4 31 19l14 20q9 24 9 45q0 13 2 39q0 3 0.5 9t0.5 10q2 20 -1 63q-1 14 -6 29v3q-1 3 -14 34v1q-3 7 -6 10q-23 24 -45 28q-5 0 -7 1q-2 0 -4.5 0.5t-3.5 0.5h-1l-2 -1h-1q-11 0 -16 1h-19l-1 -1h-2h-5q-6 0 -9 1
q-6 1 -21 1q-20 0 -24 20q-3 4 -3 11q-2 22 -1 35q0 23 -2 34v2q-2 27 -2 79q0 10 1 15v18v1v1q-2 6 1 13q2 10 2 32q1 5 1 16v2v5v5q-2 35 1 54q2 21 25 23q17 3 31 3q8 0 12 -1l48 -3h15q15 0 47 2h22h11q16 0 24 -16v-1l1 -1q7 -21 -12 -31l-3 -3h-8q-2 -1 -6.5 -1
t-6.5 -1q-20 -2 -30 -2q-46 0 -83 4q-12 1 -34 1h-2q1 -6 1 -18q2 -29 -1 -47q-2 -26 -2 -41v-28q-2 -28 0 -57q2 -50 4 -75h5q8 2 22 2h29q27 -1 51 -14h1q12 -7 28 -19h1v-1q17 -14 26 -33z" />
    <glyph glyph-name="six" unicode="6" horiz-adv-x="290" 
d="M224 25q-22 -15 -36 -19q-24 -6 -47 -6q-11 0 -17 1h-2q-21 4 -34 14q-15 10 -24 19q-13 10 -20 29v1l-1 1q0 2 -1 6q-2 2 -2 4l-3 11q-5 14 -8 25q-2 7 -4 25v3q0 10 -2 30q0 2 -0.5 8t-0.5 9v1q0 7 -1 11v12q-2 18 2 52q0 1 0.5 4.5t0.5 5.5v1l3 16q4 29 5 41v2l1 2
q1 7 5 21q1 2 2 6.5t2 8t2 6.5l6 22v1l16 46v1l9 23q7 21 23 61l9 21v1q9 19 23 43q1 4 4 8l3 7v1q3 3 7 11q10 18 22 38l1 1q3 4 9 14l7 10q15 24 26 37l1 1l11 10l3 2q8 3 14 3q16 0 22 -12v-2l1 -1q5 -15 -7 -27q-19 -23 -24 -32q-22 -34 -32 -51v-1l-1 -1
q-1 -1 -3.5 -5.5t-3.5 -7.5l-3 -7l-1 -1l-25 -48q-6 -13 -7 -16l-1 -1q-8 -20 -13 -30t-10 -27l-6 -18q-15 -41 -20 -56l24 6h3h2h7h8q26 -5 35 -7h2q43 -17 62 -64l1 -1v-2l2 -5q2 -4 2 -9q1 -1 1.5 -3.5t0.5 -3.5q2 -9 8 -29v-1q6 -20 8 -59v-21q0 -29 -2 -44l-3 -24
q0 -15 -6 -31l-1 -1q-3 -6 -8 -22q-1 -10 -14 -35l-2 -2q-2 -5 -10 -11zM169 56h3q22 6 27 26q8 26 13 38q2 4 2 8v1l3 38q0 3 0.5 7t0.5 7v40q0 20 -7 48v1q-1 3 -2.5 8.5t-2.5 8.5l-3 15q-11 33 -37 42l-5 1l-1 1q-24 8 -45 -2l-1 -1h-1q-2 -1 -5 -4l-5 -6q-1 -2 -4 -6
t-4 -6v-1l-1 -1q-1 -1 -3 -5q-5 -12 -9 -16l-6 -48q0 -2 -0.5 -5t-1.5 -5v-14v-14v-6v-18v-4l1 -10q0 -1 0.5 -3t0.5 -4l3 -34q1 -5 5 -22q1 -1 1.5 -3.5t0.5 -3.5q7 -21 9 -25q14 -23 38 -27h10q6 0 18 2q1 0 4 0.5t4 1.5z" />
    <glyph glyph-name="seven" unicode="7" horiz-adv-x="285" 
d="M147 309v-1q-1 -4 -6.5 -29t-9.5 -39q-6 -24 -15 -48l-1 -1q-2 -4 -2 -8l-3 -7q-3 -14 -8 -34q-2 -6 -4.5 -18t-3.5 -17l-1 -1l-12 -36q-3 -8 -7 -24q0 -5 -4 -13q-8 -15 -26 -15h-4l-5 2q-7 4 -10 9q-7 10 -4 20q2 14 4 20q5 16 7 21l6 21v1h1q4 15 5 19q1 11 5 20
q1 1 1 2v2l1 2q4 23 18 62q2 6 5 17t5 16q2 4 4 16q0 4 2 12l6 23q4 18 7 28q-5 0 -7 1q-20 5 -20 24q0 22 21 26q5 1 12 1l11 2l9 30q1 1 1 2t0.5 1.5t0.5 1.5q2 12 5 17q3 8 7 24q2 10 4 16q0 1 0.5 2.5t0.5 2.5q4 11 5 20q6 22 10 34l1 1l3 11v1q8 37 18 63q4 11 5 19
q4 12 10 36v1q1 7 4.5 20t4.5 15q-20 -2 -32 -2h-2h-2q-12 -3 -33 -3h-10h-10q-4 0 -12.5 0.5t-12.5 0.5h-24q-14 0 -23 4q-15 3 -17 18q-2 7 1 14q5 13 17 14q2 1 7 1t13 0.5t13 0.5h32h30h7q3 0 10.5 0.5t11.5 0.5q8 1 25 1l27 3q8 2 11 2h9q10 0 17.5 -8.5t7.5 -17.5
q0 -6 -2 -12q-15 -51 -20 -77q-10 -38 -16 -55l-3 -11q-3 -5 -3 -9l-21 -82l-1 -1q-2 -5 -4.5 -16t-3.5 -16q0 -1 -0.5 -3t-0.5 -3l-1 -1l-6 -21l-11 -37h9l4 -2q12 -5 15 -17l1 -3v-4q0 -16 -15 -24h-1l-1 -1l-15 -3q-7 0 -11 -1h-4q-6 -15 -7 -24z" />
    <glyph glyph-name="eight" unicode="8" horiz-adv-x="305" 
d="M199 10l-9 -3q-1 -1 -3 -1t-3 -1l-4 -1l-2 -1h-2q-21 -3 -32 -3q-17 0 -45 11l-2 1l-1 1l-2 1h-2q-1 1 -2 1h-1v1q-29 12 -43 35q-11 17 -16 31v2l-3 24l-3 23v14l6 34l6 30l3 13v1q1 5 9 26v1l19 39l6 10q18 33 19 36v1l1 1q9 18 27 46l-3 7q-20 39 -23 47l-1 4
q-4 6 -17 29q-1 2 -5 9.5t-6 10.5l-1 1q-8 15 -24 43q-8 15 -13 42q-2 10 -4 28l-2 14v3q0 1 -1 1q0 8 1 14q8 34 20 51l1 1l19 22l6 6l6 1l8 4l9 5q18 10 49 12h2q7 0 18 -3q29 -4 55 -16l10 -4l3 -3q6 -6 10 -9q10 -8 16 -15q15 -17 21 -33q6 -6 8 -20v-2q4 -22 2 -36
q0 -25 -13 -57v-1l-1 -1q-3 -5 -7 -15q-5 -11 -7 -13v-1l-1 -2q-9 -12 -17 -28q-5 -7 -8 -14q-2 -4 -7 -12l-3 -3l-1 -2v-1l-38 -65l12 -24q17 -28 28 -55l30 -73h1l1 -3q2 -4 5 -12q5 -12 10 -26q1 -2 2.5 -7t2.5 -8l2 -3v-4l1 -4q0 -4 0.5 -8t1.5 -9.5t1 -8.5q2 -10 2 -16
q3 -13 -1 -29q-1 -17 -13 -32l-1 -1l-2 -1q-3 -3 -11 -13l-1 -1q-16 -17 -52 -33zM73 631q0 -8 1 -16l1 -3v-5l1 -1q2 -10 2 -17q0 -15 11 -34q2 -2 2 -4q2 -4 6 -10l2 -2l12 -22q7 -16 16 -29l1 -1q13 -22 25 -49q4 8 6 11l1 2l1 1q4 6 5 9v3l2 2q1 2 4 5.5t3 4.5
q13 22 14 23l2 3v2l3 5q15 21 31 58q7 19 6 33v2q-2 3 0 11q0 5 -4 17q0 1 -0.5 2.5t-0.5 2.5q-4 11 -13 18l-2 2l-1 2l-3 2q-1 1 -2.5 3.5t-2.5 3.5q-5 5 -15 10q-13 4 -24 6h-2l-1 1q-14 2 -21 2q-17 0 -32 -7q-16 -7 -24 -21q-2 -8 -5 -11v-2l-1 -2q-4 -9 -4 -11zM77 141
q1 -10 3 -39q4 -14 12 -27l1 -1v-1q4 -4 7 -5v-1l1 -1q3 -1 6.5 -2.5t8 -3.5t6.5 -3l9 -3h1q12 -2 18 -2q12 0 26 3q1 1 5 3l1 1l2 1q13 4 39 26q7 8 8 20q0 1 -2 9v2q-5 22 -5 37q-1 1 -1 3l-2 6q0 1 -1 2q-1 3 -2.5 7t-1.5 6l-1 1l-1 2q-3 13 -10 26q-2 2 -8 15v1
q-9 23 -28 65q-3 7 -20 41l-6 -12l-1 -1l-13 -26l-9 -16l-12 -21q-2 -6 -7.5 -17.5t-8.5 -17.5l-1 -2v-2q0 -3 -1 -5q-4 -24 -10 -47q-2 -8 -2 -21z" />
    <glyph glyph-name="nine" unicode="9" horiz-adv-x="290" 
d="M268 562v-10q1 -4 1 -12q2 -20 -2 -52q0 -2 -0.5 -5.5t-0.5 -4.5v-1l-3 -17q-4 -29 -5 -41v-2l-1 -2l-5 -20q-1 -4 -3 -11.5t-3 -10.5l-6 -21q-2 -5 -5 -15t-5 -15l-6 -18v-1l-9 -23q-8 -26 -25 -65q-2 -3 -4.5 -9t-3.5 -9q-10 -22 -22 -43l-3 -6l-5 -10q-4 -8 -7 -12
q-12 -23 -22 -37q-10 -16 -15 -25v-2q-8 -12 -27 -35l-1 -1q-7 -7 -12 -10l-1 -1h-1q-7 -4 -15 -4q-15 0 -21 13l-1 1v1q-5 16 6 27q17 18 25 32q22 34 31 51l2 2l6 13q1 1 4 7v1q10 16 26 48l2 4q5 9 5 11v2q10 22 14 30l9 25q1 2 3.5 9t3.5 11q3 6 20 56l-22 -5
q-4 -1 -12 -1q-6 0 -8 1q-15 0 -37 6h-1l-1 1q-43 15 -63 63v1l-4 14l-1 1q-8 35 -9 38q-6 20 -8 59v21q0 29 2 44l3 25q0 15 8 31q5 14 6 22q4 18 15 35l2 3l1 2l7 7h1q16 14 37 20t43 6q7 0 21 -2q22 -2 36 -13q14 -9 24 -18q14 -13 20 -31l7 -22q6 -19 7 -25q2 -8 4 -22
l1 -3zM216 523v14v6q-2 9 0 18v5l-1 9q-1 2 -1 8q0 2 -0.5 6t-0.5 5q0 8 -2 22q-4 18 -7 28l-1 3q-8 22 -9 23q-12 23 -37 26q-5 1 -14 1q-5 0 -15 -2q-6 -2 -12 -2q-20 -6 -26 -26q-5 -21 -13 -38v-1l-1 -2v-5l-3 -37q-1 -6 -1 -17v-39q0 -24 7 -49q2 -8 4 -13q1 -6 5 -18
v-1q9 -34 35 -41l15 -4v-1q17 -4 37 4q5 2 6 5h1l6 9q3 3 7 9l3 6q4 9 9 17q4 32 7 48q0 2 0.5 5t0.5 4q1 6 1 15z" />
    <glyph glyph-name="colon" unicode=":" horiz-adv-x="97" 
d="M51 484q13 0 20 -11q11 -11 3 -26q-5 -10 -12 -14l-1 -1h-1q-6 -3 -12 -3q-5 0 -8 1q-12 2 -18 14l-2 5v7q0 12 8.5 20.5t19.5 8.5q2 0 3 -1zM51 75q13 0 20 -11q11 -11 3 -26q-5 -10 -12 -14l-1 -1h-1q-6 -3 -12 -3q-5 0 -8 1q-12 2 -18 14l-2 5v7q0 12 8.5 20.5
t19.5 8.5q2 0 3 -1z" />
    <glyph glyph-name="semicolon" unicode=";" horiz-adv-x="119" 
d="M49 426q-11 2 -18 15l-2 4v8q0 12 8.5 20t19.5 8h3q14 -2 20 -11q4 -6 6 -12q0 -10 -3 -14q-4 -9 -12 -15h-1l-1 -1q-6 -3 -12 -3q-1 0 -3.5 0.5t-4.5 0.5zM58 465h-1q-4 0 -6 -1l2 -4q2 1 5 1q4 0 7 -3l2 1l-3 -1l2 2q-2 3 -7 5l-1 -4v4zM49 463l-2 -3q-3 -6 1 -14l4 -3
l1 3v-4h1l2 -1q9 0 13 9h-5l-4 -4q-3 -1 -7 0q-2 0 -4 4v3q0 3 3 6zM92 103q7 -6 7 -17q0 -6 -1 -7v-3l-1 -4q-9 -20 -21 -42l-8 -15q-8 -15 -23 -15q-12 0 -20 10q-7 10 -4 24l1 1l7 15v1q18 31 22 41l1 1q3 11 16 16l3 1h3q12 0 18 -7z" />
    <glyph glyph-name="less" unicode="&#x3c;" horiz-adv-x="570" 
d="M518 70l-465 214v70l465 242v-117l-314 -155l314 -137v-117z" />
    <glyph glyph-name="equal" unicode="=" horiz-adv-x="525" 
d="M41 302h-1q-11 3 -16 15l-2 2q-5 12 3 25q7 11 20 13q3 1 8.5 1.5t8.5 0.5q28 4 41 4q29 0 43 -1h42h82h17h16l56 -3q36 0 54 1h54q9 0 14 -3q6 -1 13 -8q8 -9 6 -23q-2 -19 -17 -24h-2q-6 -2 -17 -2q-109 0 -176 1l-161 1q-21 0 -32 -1q-5 0 -17 -0.5t-18 -0.5
q-11 0 -18 1zM486 217q6 -1 13 -8q8 -9 6 -23q-2 -19 -17 -24h-2q-6 -2 -17 -2q-109 0 -176 1l-161 1q-21 0 -32 -1q-5 0 -17 -0.5t-18 -0.5q-11 0 -18 1l-1 1h-1q-11 3 -16 15l-2 2q-5 12 3 25q7 11 20 13q3 1 8.5 1.5t8.5 0.5q28 4 41 4q29 0 43 -1h42h82h17h16l56 -3
q36 0 54 1h54q10 0 14 -3z" />
    <glyph glyph-name="greater" unicode="&#x3e;" horiz-adv-x="570" 
d="M53 187l314 137l-314 155v117l465 -242v-70l-465 -214v117z" />
    <glyph glyph-name="question" unicode="?" horiz-adv-x="304" 
d="M46 614q-16 0 -22 14q-4 12 -4 15v2q1 11 11 29v1l1 1q2 2 6 8q8 12 13 18q28 34 73 37h1q19 0 27 1h1q12 3 24 0h2q6 -2 11 -2l13 -3q36 -9 59 -39q16 -19 22 -48v-4v-5v-15q-2 -25 -15 -52q-13 -33 -21 -59v-1l-24 -69l-6 -16q-12 -36 -23 -72v-1q-5 -15 -18 -46v-1
q-13 -27 -16 -62q-2 -18 -4 -56v-3l-1 -4v-3l-1 -2q-7 -37 -4 -63v-1q0 -8 -1 -14q-2 -12 -13 -18q-7 -3 -15 -3h-5l-4 2q-12 5 -15 16q-2 5 -2 12v9q0 37 3 56h1q0 2 0.5 6.5t0.5 7.5q0 1 0.5 4t0.5 5q0 7 1 11q2 49 10 81q4 19 12 35q13 31 20 54v1q9 29 29 87
q1 3 2.5 8.5t2.5 7.5q2 7 17 49q12 37 24 63v1q6 12 9 32v2q4 14 -8 32t-35 24q-18 3 -28 3h-9h-3l-10 -1h-12q-18 -2 -29 -13q-19 -18 -25 -40q0 -2 -7 -12l-6 -5h-2q-3 -2 -9 -2zM149 47l1 -2q6 -13 0 -25q-6 -13 -21 -18h-9q-17 0 -27 15q-10 16 -2 31q7 17 26 20l2 1h2
q11 0 18 -7l1 -1z" />
    <glyph glyph-name="at" unicode="@" horiz-adv-x="626" 
d="M573 153h8q9 0 17 -7t8 -17v-4l-1 -4q-4 -9 -7 -12l-1 -1h-1l-5 -5q-1 -1 -5.5 -5t-8.5 -6q-6 -4 -11 -7q-12 -8 -17 -13h-1l-1 -1q-14 -10 -34 -21l-5 -2l-4 -3h-3l-2 -1h-2q-12 -3 -36 -15q-1 0 -5 -2q-5 -3 -15 -5l-1 -1h-2q-18 -2 -26 -5q-24 -8 -26 -9q-8 -4 -20 -4
q-3 0 -9.5 -0.5t-10.5 -0.5q-12 0 -19 -1h-2h-5q-2 1 -6 1t-5 -1h-3h-16q-3 0 -8.5 -0.5t-8.5 -0.5h-7q-18 0 -38 6q-16 6 -30 10h-1q-18 7 -31 13l-15 6h-1l-1 1q-8 4 -12 5l-9 5q-16 6 -34 23v1q-16 18 -34 45v1l-1 2q-2 6 -10 18q-11 19 -13 27l-1 2q-6 19 -8 33l-3 20
q-6 47 -2 73q0 3 0.5 8.5t0.5 7.5v1q2 47 26 87q20 35 46 62q8 9 22 19q6 4 7 5q11 8 25 17q3 1 9 5q0 1 1 1q5 5 13 6q7 2 21 8q14 7 21 9q3 1 7 2t5 1h4l2 1l2 1l24 3h1q20 0 29 1h2h5q8 2 24 2h6h5h9h1q32 0 52 -8q27 -10 34 -13l24 -9q26 -7 52 -30l17 -14
q15 -12 22 -24l20 -35h1q11 -26 11 -42q4 -31 2 -68q-2 -28 -7 -47l-3 -13q-6 -31 -25 -65q-11 -22 -27 -32l-3 -2l-4 -4q-18 -13 -37 -13q-17 0 -30 9q-3 1 -6 4l-3 2v1l-4 4q-12 12 -18 24q-8 -8 -12 -13q-12 -14 -34 -28l-1 -1q-14 -7 -22 -10h-2l-2 -1q-5 0 -8 -1
q-18 -3 -20 -3h-3q-1 0 -4.5 -0.5t-5.5 -0.5h-13q-20 2 -31 5h-2q-2 0 -6 2q-28 7 -43 16l-1 1h-1q-1 1 -6 4l-5 3q-16 11 -23 20q-29 39 -37 75q-3 10 -3 29q0 22 3 35v4l1 1q2 29 24 69q2 6 9 11l10 13q15 20 43 36l2 1l1 1q1 1 3 1t3 1q12 6 22 7l15 3q8 1 22 1h3
q6 -1 18 -1q14 0 23 -5h3q1 0 2.5 -0.5t2.5 -0.5q3 0 12 -3q1 0 1 -0.5t1 -0.5q5 -1 6 -3l3 -1q16 -4 37 -21l2 -3q5 -3 6 -5v7q0 10 7.5 17t17.5 7q3 0 9 -2q16 -5 16 -21v-10q0 -15 -1 -22q0 -13 -1 -20q2 -13 0 -27v-6q6 -25 2 -54v-13q-5 -15 -5 -49q0 -3 3 -9v-2
q5 -12 9 -17v-1l5 -6q0 -1 2 -1q2 -1 6 -1l1 1q18 10 26 24q14 25 21 58l3 12q4 18 4 26q1 3 1 7v10l-1 2v1q0 37 -3 54v2q-2 12 -7 17v1l-1 1q-3 5 -9 17l-1 1q-5 12 -18 22h-1l-1 1q-11 11 -17 15h-1v1q-2 1 -18 13q-1 0 -13 5l-4 1l-42 15q-4 2 -5 2q-1 1 -3 1l-1 1h-1
q-9 5 -18 5h-3l-3 1q-1 0 -1 1q-4 0 -6 1h-6h-1q-6 -2 -11 -2h-7q-3 1 -7 1q-8 0 -11 -1l-2 -1h-3q-7 0 -12 2h-3h-1l-4 -2h-5h-3q-9 0 -14 -1q-10 -2 -18 -2q-2 0 -6.5 -1.5t-6.5 -1.5q-10 -4 -14 -5l-9 -3q-26 -10 -38 -21l-1 -2l-12 -7q-14 -8 -24 -20l-1 -1v-1l-8 -8
q-1 -1 -4 -4.5t-5 -5.5q-17 -22 -30 -52q-4 -7 -8 -29q0 -6 -2 -18q0 -6 -2 -16v-2v-32v-2q0 -1 0.5 -3.5t0.5 -4.5v-8l7 -38q5 -22 15 -37q11 -16 16 -28q1 -2 19 -25q1 -2 4 -5q5 -7 18 -12q2 -1 10 -4q22 -10 33 -14h2l1 -1q5 -3 19 -7l4 -2q3 -2 13 -4q4 -2 12 -4
q13 -5 31 -5q8 1 22 1q4 1 10 1h2h9q13 0 20 1h20q15 2 22 6h1q15 6 41 12h1q19 3 29 8q12 7 26 11q17 5 34 16q10 8 36 26q3 3 5 4q3 3 11 9l4 4zM397 284l1 1q0 9 1 14v15v5q-8 14 -12 18q-8 6 -12 18l-1 1q-2 1 -3 2.5t-2 2.5q-3 2 -11 10l-3 3l-3 2q-6 2 -16 8l-4 2
q-4 1 -8 4q-24 4 -39 5q-12 0 -18 -1l-22 -3q-20 -8 -38 -29l-1 -1v-1q-6 -8 -10 -11q-9 -11 -18 -38q0 -1 -0.5 -2.5t-0.5 -2.5q-1 0 -1 -3q0 -11 -2 -18q-2 -14 -2 -18q0 -1 0.5 -3.5t0.5 -4.5v-11v-6q8 -28 30 -56v-1l3 -3l2 -1l1 -1l22 -13h1l1 -1q9 -4 19 -7q5 0 13 -2
q3 0 8 -0.5t8 -1.5h1h9q10 0 34 4q5 0 9 4q24 18 32 28q2 3 6 7q3 2 3 3l3 4l3 3q14 33 14 34l1 1v4v1l1 1v34v1z" />
    <glyph glyph-name="A" unicode="A" horiz-adv-x="329" 
d="M305 47l3 -12q2 -9 -5 -24h-1l-1 -2l-1 -1q-8 -8 -19 -8q-7 0 -13 3h-1l-1 1q-11 8 -13 21l-6 24q-1 1 -1.5 4t-0.5 4q0 2 -0.5 4t-0.5 3l-9 38q-4 13 -10 39l-6 26q-1 10 -5 25v1l-6 34q-5 30 -17 90q-1 1 -1 5t-1 5h-9h-11h-11q-4 -1 -11 -1q-18 -2 -27 -2h-4l-4 -26
q0 -4 -1 -11t-1 -10l-3 -25v-1q-1 -2 -1 -6.5t-1 -6.5l-3 -15q-6 -33 -7 -46q0 -7 -2 -21l-3 -17q-1 -17 -7 -47q-1 -2 -1 -6t-1 -6q-2 -10 -4 -26v-2q-2 -8 -2 -26q0 -23 -20 -28q-6 -2 -9 -2q-13 0 -21 10q-5 7 -5 15q0 6 1 9v4v2q1 19 10 70l3 12q1 5 1 17v1l1 1
q0 7 2 17q5 40 5 47q2 10 3 14v1l1 2q3 18 10 67q4 34 8 54q9 51 10 78q1 5 2 15t2 15l3 13v2q2 18 4 27v4q4 28 7 42l9 49q0 3 1 5q0 9 5 41l4 22q0 2 3 26l3 13l2 18q1 22 21 24q1 1 4 1q23 0 29 -19l1 -3v-2q1 -2 1 -7q0 -12 5 -27v-1q4 -19 10 -55l15 -91q4 -28 7 -42
v-2q1 -9 8 -40v-1q5 -29 10 -46v-1l12 -62l3 -15v-2q2 -11 8 -43l3 -15l3 -15q0 -5 2 -13v-2q2 -12 4 -20l1 -4l6 -30q4 -20 7 -30v-1q0 -2 2 -8q0 -2 1.5 -9t2.5 -12q2 -8 8 -26q0 -2 5 -16q4 -13 6 -27zM138 379h2q26 0 39 1q-9 44 -14 73q-5 17 -6 33l-7 41l-3 16
q-1 -1 -1 -4t-1 -5q0 -2 -0.5 -4t-0.5 -4q-3 -13 -7 -37l-14 -112h1q6 0 10 1z" />
    <glyph glyph-name="B" unicode="B" horiz-adv-x="287" 
d="M22 491v1q0 2 -0.5 7t-0.5 8q-2 12 0 26q1 20 1 61q0 28 1 42q0 6 -0.5 17t-0.5 17v36q0 6 1 11q3 15 18 18q1 0 5 0.5t6 0.5h7h1q34 -8 45 -15q5 -4 11 -5q2 -1 5.5 -2.5t4.5 -2.5q23 -12 45 -25q22 -12 42 -38q11 -14 15 -35v-1q7 -40 -1 -83q-1 -10 -13 -40v-1l-6 -10
l-1 -1q-28 -35 -48 -50q-19 -16 -50 -32q18 -10 19 -11q24 -14 36 -22q10 -6 27 -23l20 -23q16 -20 21 -31q1 -1 3 -5h1q17 -21 25 -60q0 -1 0.5 -3.5t1.5 -3.5q1 -4 2 -10t1 -7v-6v-1q4 -31 -11 -65q-3 -6 -9 -17.5t-8 -15.5l-1 -1q-13 -21 -33 -31q-32 -20 -49 -30
q-37 -18 -59 -23q-13 -2 -22 -6l-2 -1l-3 -1q-1 0 -5 -0.5t-6 -0.5t-6 0.5t-5 0.5q-19 5 -23 25q-1 5 -1 12v107q0 28 1 42q0 29 1 43q0 25 -1 37v1q-1 10 -1 30q-1 10 -1 30q-1 31 1 89q1 27 -1 77zM97 662l-4 4l-1 1l-6 2l-2 1q-2 2 -5 3l-2 1v-33q0 -19 -2 -53l1 -1v-8
q0 -24 -1 -35q-2 -36 1 -73h1v-33l4 2q2 2 6.5 4.5t6.5 3.5q3 1 9 5h1l1 1q20 9 41 34l1 1q4 4 6 7l8 9q4 4 6 10l1 2v1q4 10 6 17l3 12v53q-1 9 -7 17l-2 1v1l-2 2q-16 18 -41 30h-1v1q-3 2 -8.5 4.5t-8.5 3.5h-5l-1 1h-1l-1 1h-2zM180 106q1 1 3 2t2 2q1 2 5 8l6 9
q8 12 10 18q12 25 6 48v1q-10 41 -22 56l-1 2l-4 7q-15 25 -43 52q-2 2 -5 4q-1 0 -1 0.5t-1 0.5l-32 21q-5 3 -15 7.5t-12 5.5v-22h1v-1v-10q0 -2 0.5 -6t0.5 -7v-37q2 -39 1 -55q-1 -26 -1 -62v-93q12 2 38 14q3 0 7 2v1h1q1 0 4 3h1l12 6q21 14 39 23z" />
    <glyph glyph-name="C" unicode="C" horiz-adv-x="308" 
d="M278 684l4 -7l2 -4q6 -7 4 -17q-3 -11 -13 -17q-6 -3 -11 -3q-6 0 -10 3q-14 4 -23 20q-7 13 -28 21q-8 3 -26 5q-10 1 -22 -7q-2 -2 -6 -5.5t-6.5 -6t-4.5 -5.5q-26 -31 -42 -70v-1q-1 -2 -6 -19l-1 -4q-1 -5 -3 -15.5t-3 -15.5q-2 -10 -2 -15q0 -1 -0.5 -4t-0.5 -5
q-2 -18 -4 -49q-1 -12 -1 -35v-1q-2 -29 0 -58v-1q0 -69 2 -104v-7q1 -4 2.5 -12t1.5 -11q2 -18 8 -52v-1q5 -31 14 -49q3 -8 10 -17v-1q2 -3 6 -11l5 -8l2 -3l1 -3l1 -2v-3l2 -3q5 -10 11 -13q7 -2 13 -8q16 -7 25 -7h3q2 1 5 1t4 1q20 2 29 8h1q7 5 9 10v1l1 1q1 1 2 4
t2 5l3 5v1q8 14 22 14q5 0 8 -1l4 -1l3 -3l7 -7q7 -13 3 -24q-14 -51 -66 -62l-14 -3q-13 -3 -27 -3t-26 3q-7 1 -17 6l-4 2h-2l-2 2q-3 2 -9 5.5t-9 5.5q-13 7 -20 19v1h-1q-2 4 -9 17l-2 2l-3 7q-2 3 -4.5 8t-3.5 8q-6 8 -18 37l-3 11q0 2 -2 6q-3 8 -7 28q0 3 -1.5 8
t-1.5 6l-2 8q-3 9 -3 13q0 6 -2 24q-3 33 -3 36q0 5 1 7v5l-1 1q-3 19 -1 45v2v3q-2 24 0 45v20v18q-2 7 -2 19v3v1l3 42q2 40 5 58l6 33q2 6 4 16v1q0 1 0.5 3t0.5 3q2 14 7 24q8 20 19 36q5 8 7 12l14 21l6 8q10 12 18 19q8 8 18 15q13 10 36 14h1q32 3 59 -9h1l3 -1
q30 -10 48 -40l1 -2z" />
    <glyph glyph-name="D" unicode="D" horiz-adv-x="310" 
d="M21 674v1q-2 17 0 27q0 1 -0.5 3.5t-0.5 4.5q0 9 5 17q6 11 21 11h3q9 0 27 -2h2q22 -6 33 -11q22 -10 41 -27l21 -21q33 -31 58 -83v-1q1 -2 2.5 -4.5t2.5 -5.5t2 -4q19 -44 24 -64l1 -2q9 -18 17 -56q0 -2 2 -8v-2q0 -2 2 -8l3 -13q4 -20 2 -41q-2 -20 -2 -28
q1 -30 -9 -82v-3q-8 -44 -15 -67q-7 -33 -26 -62v-1q-6 -8 -8 -12q-7 -11 -23 -33q-2 -4 -7.5 -9.5t-5.5 -6.5l-37 -39v-1q-14 -12 -42 -26l-12.5 -5t-9.5 -4q-6 -2 -11 -4h-1q-5 -2 -15 -2h-3h-1q-27 0 -29 28q-2 20 -2 29q0 3 -0.5 7t-0.5 7v1q0 5 1 7v8q-2 22 -2 44
q-1 5 -1 14v2q2 12 0 39q0 1 -0.5 5t-0.5 6v1q0 17 1 26v1q2 12 0 39v1v13q-1 5 -1 15v25v52q1 20 0 40q-1 5 -1 11v2q1 4 1 12q2 16 2 21v8q0 18 1 28v12q-2 20 -2 60q0 5 -0.5 15t-0.5 14v1v22q-1 7 -1 22q-2 22 -4 36zM191 552q-9 21 -18 39q-24 40 -56 69q-16 14 -36 21
q-4 2 -7 2v-1v-13q3 -17 5 -49v-12v-1v-8q1 -3 1 -12q0 -30 1 -46v-1q0 -13 1 -20v-22v-12q0 -31 -1 -38q-3 -20 0 -39v-3v-4q1 -6 0 -15q-4 -36 -1 -83v-1q0 -14 1 -21v-1q1 -28 0 -57v-2l-1 -2q-1 -4 1 -17v-2q0 -12 1 -18v-20q0 -36 1 -54v-50q23 7 37 22q8 8 13 12
q32 33 52 65q1 2 2 4.5t2 3.5q6 8 7 12l1 1v1q15 29 18 51l1 1q14 73 15 83q3 18 3 36v9q0 25 2 39v5l-1 1v1q-6 42 -18 77v1q-8 24 -26 68z" />
    <glyph glyph-name="E" unicode="E" horiz-adv-x="307" 
d="M23 596q-1 8 -1 25q-2 13 -2 38v9v14l1 2q1 10 0 23q-2 13 6 21q7 10 21 10h9q16 -2 25 -2q17 0 26 1h30h6h2h2q10 1 30 1q6 1 18 1h1h24q8 1 26 1q5 0 17 -4q8 -4 12 -15h1v-2q7 -19 -12 -28q-7 -5 -20 -5h-28q-45 0 -67 -2h-20h-8h-8h-10q-15 -2 -29 0q-3 -32 -1 -60
t2 -42v-27q0 -52 1 -78v-1v-19q-1 -6 -1 -17q1 -7 1 -22q2 -20 2 -31q33 0 35 2h4h14q1 0 3.5 0.5t4.5 0.5h10l4 -2q15 -5 15 -22q0 -16 -13 -23q-10 -6 -28 -6h-4h-3q-16 -2 -26 -2h-11h-7v-5q0 -23 1 -34v-2q2 -28 1 -42q-1 -36 1 -108v-27q0 -26 -1 -40v-9v-15q3 1 11 1
t11 1h1q12 2 18 2l117 3h6q2 1 8 1h3q14 0 28 -14q7 -8 5 -19q-1 -7 -9 -15q-8 -6 -16 -6h-2h-1h-1h-7q-1 1 -4 1q-4 0 -6 -1h-3q-38 0 -90 -2h-1q-21 0 -44 -3q-15 -2 -46 -2q-23 0 -30 23l-1 1l-1 9q-2 24 -1 37q3 18 1 48v29q0 26 -1 40q-2 20 0 42q2 16 0 51v1v21
q-1 11 -1 30q3 56 0 86v20q0 51 -1 76v20v8v1q1 9 1 53z" />
    <glyph glyph-name="F" unicode="F" horiz-adv-x="298" 
d="M21 597v1q-1 14 -1 40v4q2 48 2 69v3l1 3q7 19 25 19h3l3 -1h2h3h5h19h18h19h8h7h6q12 1 35 1h1h12q25 0 56 4h2q7 0 12 -2q19 -5 19 -26q0 -20 -20 -27l-3 -1h-10q-7 1 -16 0h-3q-30 0 -44 -1h-2q-28 0 -41 -1h-2q-9 0 -13 1h-11h-40v-12v-13q-1 -4 -1 -12q1 -11 1 -32
q2 -20 1 -31q0 -4 1 -6v-10q3 -39 2 -64q0 -13 2 -45q1 -36 0 -72q3 0 8 1t7 1h3q2 0 6 0.5t7 0.5q20 2 31 2h11l4 -2q16 -8 16 -23q0 -9 -6 -17.5t-16 -9.5q-1 0 -3.5 -0.5t-4.5 -0.5h-1h-9q-18 0 -41 -3h-1q-2 0 -5.5 -0.5t-5.5 -0.5v-21v-31v-1q0 -70 -2 -107
q-1 -33 2 -87v-8q1 -18 1 -52q0 -16 -18 -25l-4 -2h-5q-9 0 -16.5 5.5t-8.5 13.5q-2 5 -2 13q0 24 -2 70v89q2 46 0 91v85q0 7 1 11v7v1q3 40 0 79q-1 21 -1 62q0 21 -1 30q-1 8 -1 22q0 13 -1 18z" />
    <glyph glyph-name="G" unicode="G" horiz-adv-x="312" 
d="M286 184q0 -40 5 -97q2 -20 -1 -34l-1 -1l-4 -12l-1 -2q-11 -16 -21 -22q-7 -4 -13 -7h-1q-27 -9 -54 -9q-16 0 -31 3q-24 5 -41 20l-2 2q-14 12 -20 16l-1 1q-11 8 -23 25l-13 22l-1 1q-1 3 -2.5 6.5t-3.5 8t-3 6.5l-1 1l-3 10q-1 5 -5 13v1q-4 10 -11 34v1q-6 26 -7 39
v2q0 8 -1 13q0 3 -0.5 8.5t-0.5 8.5l-3 55q-1 17 1 41q1 10 -1 31q-3 20 -1 60q1 6 1 19q2 26 2 37v11q1 10 0 19v1q-1 21 5 57q0 2 0.5 5.5t0.5 4.5q4 26 25 75v1q6 11 13 19q16 20 25 29q3 6 15 13h2l1 1q2 0 4.5 1t5.5 2t5 2q4 2 11.5 4.5l10.5 3.5q20 6 41 0
q33 -10 64 -30q16 -11 25 -27l2 -4l3 -11q2 -9 -3 -17q-8 -11 -20 -11q-9 0 -14 4q-1 1 -3 2l-2 2l-2 1l-3 4q-8 11 -21 20q-5 4 -13 7l-8 3q-1 1 -2 1t-1.5 0.5t-1.5 0.5l-9 3q-12 4 -22 0h-1l-22 -8h-1v-1l-22 -21q-3 -3 -5 -7v-1q-9 -16 -20 -45v-1q0 -1 -3 -11
q-2 -8 -2 -14q-2 -8 -4 -22v-1q-2 -14 -2 -18v-48v-20q0 -5 -0.5 -14.5t-1 -17.5t-1.5 -15v-19v-10q3 -32 3 -60q0 -53 2 -80l1 -10q4 -45 8 -58l1 -1q3 -10 3 -11q4 -9 10 -27q3 -10 7 -16v-1q2 -7 10 -19q8 -17 26 -28l2 -2q2 -2 4 -3q8 -6 13 -11q6 -6 15 -6h1
q5 -1 15 -1q7 0 29 2v1q10 0 16 10q0 11 -1 16v1q-2 18 -2 29l-3 84h-6v2q-14 2 -20 2h-4h-2q-5 0 -17 2q-8 1 -13.5 8t-5.5 15q0 9 7 18q6 6 13 7q12 4 26 4q3 0 8 -0.5t7 -0.5q1 -1 3 -1q7 0 18 3h4l3 1l3 -1h3q14 0 21 -14l1 -2v-1q0 -1 1 -1q4 -12 1 -20q-2 -7 1 -13v-2
q1 -8 1 -19z" />
    <glyph glyph-name="H" unicode="H" horiz-adv-x="327" 
d="M20 614v14q1 16 1 47q0 4 -0.5 12t-0.5 12v19q0 9 7 18q9 9 19 9q15 0 23 -14q3 -6 3 -17q1 -8 1.5 -17t1 -20t0.5 -17v-27q0 -12 2 -36q1 -10 1 -27v-25v-3q-2 -14 0 -27q5 -43 2 -95v-12h1h3h2l1 1q6 0 18 2q5 0 17 2h13q18 2 29 2h10q13 -1 38 -1h30q-1 23 -1 68
q0 40 -2 116v17q1 26 1 77q0 14 1 22q0 6 2 16q2 14 18 16q4 2 8 2h5l4 -2l6 -4l9 -5v-10q1 -2 1 -7v-2q-1 -14 -1 -43v-15q0 -2 0.5 -6t0.5 -6v-13v-2q-1 -18 1 -46v-12v-13v-21q1 -15 1 -43v-3q-1 -6 -1 -18q1 -17 1 -51q1 -17 1 -51q0 -73 2 -109q2 -42 2 -123
q0 -14 2 -40v-10q0 -31 3 -46q4 -16 -13 -29l-6 -3h-6q-21 0 -26 17q-3 8 -4 16v1q-2 11 -2 30v1q2 19 -1 40l-1 1v2v7q0 2 -0.5 6t-0.5 7q0 5 0.5 13t0.5 13v24v10q-3 39 -3 80q0 21 -1 31v45l-41 3q-32 0 -48 -1q-31 -2 -49 -4h-1l-2 -1h-3q-2 0 -8 -0.5t-9 -0.5v-19
q1 -10 1 -29v-1q0 -5 0.5 -15t0.5 -15v-28v-40q0 -4 0.5 -10.5t0.5 -9.5v-19q0 -19 2 -55v-1q0 -4 0.5 -12t0.5 -11v-22q1 -3 1 -9q1 -3 1 -8t1 -7q4 -21 -16 -32q-6 -3 -12 -3q-19 0 -26 17l-1 3v4v3q-1 2 -1 4l-3 73q-2 47 -1 70v1l1 2v4v2l-1 2q-2 13 -2 37v9v23
q0 3 -0.5 11t-0.5 12v88q-2 18 -2 54q1 16 0 30v1v40q-5 27 -3 60l1 1v3q0 1 -0.5 4t-0.5 5v14q-1 5 -1 14t-1 13z" />
    <glyph glyph-name="I" unicode="I" horiz-adv-x="164" 
d="M113 0h-5h-77l-5 14q-1 1 -1 2l-3 5l-2 4v14l4 4q2 5 5 8l6 6h23q-1 11 -1 35v10.5v13v11.5q-1 8 -1 25q-2 78 -2 120v2q1 11 1 33v30v25v1q0 29 1 42v42v22q-1 7 -1 23q-2 44 3 78q1 6 1 23v34q1 29 0 59h-28l-5 14q-1 1 -1 2l-3 5l-2 4v14l4 4q2 4 5 8l6 6h77
q2 0 4.5 -0.5t3.5 -0.5h1h2l3 -1q22 -7 18 -30q-2 -19 -18 -23q-10 -3 -16 -2v-2q2 -30 2 -47v-1v-20q0 -14 -1 -22q0 -28 -3 -54q-2 -20 0 -58q2 -32 0 -64v-14q2 -47 0 -92q0 -8 -0.5 -26t-0.5 -27q0 -33 2 -95l3 -68v-9v-15v-2v-13q2 0 4.5 -0.5t3.5 -0.5h1h2l3 -1
q22 -7 18 -30q-2 -19 -18 -23q-4 -2 -13 -2z" />
    <glyph glyph-name="J" unicode="J" horiz-adv-x="307" 
d="M42 49q-12 13 -21 40q-3 9 2 20q5 10 15 13q3 1 9 1q17 0 23 -13l2 -4v-2l1 -2v-1q6 -20 29 -34h1q5 -4 21 -10l1 -1h1q3 -2 9 -2q9 0 14 -1q31 -3 59 19h1q8 7 11 16q6 16 8 24l2 5l3 21q3 36 0 71q-1 12 -1 35q-2 32 -2 47v15v32q0 9 -1 12v2q-4 47 -4 115q0 52 2 150
q0 15 1 22v22q0 14 1 21v9v10.5v8.5v1q0 10 9 19q7 7 17 7q15 0 21 -13q5 -12 5 -22v-1v-24q0 -33 -1 -39q2 -26 0 -50q-1 -9 -1 -27v-4v-1v-5v-20h-1v-59q0 -56 3 -83q2 -14 2 -42q0 -53 2 -80q1 -8 1 -23q0 -4 0.5 -11.5t0.5 -10.5v-1v-27l1 -27q0 -27 -1 -27
q0 -18 -5 -35q-5 -15 -6 -25l-1 -1q-9 -33 -38 -53q-26 -18 -49 -24q-15 -3 -30 -3q-11 0 -27 2q-18 1 -44 13l-3 2q-24 12 -42 33z" />
    <glyph glyph-name="K" unicode="K" horiz-adv-x="312" 
d="M290 34q5 -9 0 -20q-3 -8 -9 -11q-6 -6 -16 -6t-18 8l-1 1l-13 18l-22 33v1q-14 24 -18 30h-1q-12 19 -34 57l-23 39q-7 11 -27 49q-2 4 -6 11.5t-6 11.5l-1 1q-1 1 -2 4t-2.5 5.5t-2.5 4.5v-47v-7v-13q3 -33 3 -65q0 -7 2 -23l1 -11v-1q0 -24 1 -36v-35q0 -8 -1 -13
q-3 -10 -11 -15q-7 -5 -15 -5q-22 0 -25 21q-3 5 -3 14v13v29q0 13 -2 41q-1 5 -1 13v1q1 17 -1 52q0 4 -1 13t-1 14v25q2 31 -1 51q-1 7 -1 19v2q2 23 0 70v1q0 9 -1 13q0 16 -2 23v1q0 4 -0.5 10.5t-0.5 9.5q0 12 -1 17v2q0 49 -1 73v1q0 22 -1 32q-3 11 -3 31v49
q0 8 -2 28q-1 17 3 39v2q7 18 26 18h5q13 -4 17 -13q3 -5 3 -13v-1q-1 -19 0 -38q1 -12 1 -37q0 -30 2 -45v-1q2 -26 4 -82v-4q0 -21 1 -31v-25l2 4l15 29q4 6 5 9l10 18q14 29 17 35q6 15 17 33q4 8 7 12l17 33q0 1 2 7l1 1l22 42h1q0 1 2 4t2 5q6 12 20 36l1 1h1l3 7
q2 4 4 7q2 4 7 9q7 7 17 7q4 0 12 -2q9 -5 14 -14q3 -9 0 -17q-3 -15 -15 -31q-2 0 -2 -2q-3 -3 -3 -4l-1 -2v-1q-16 -28 -33 -60l-1 -2l-1 -1l-5 -10q-2 -3 -6 -11q-10 -20 -23 -44l-1 -1v-1l-2 -3q0 -1 -2 -5q-22 -46 -33 -66l-36 -69l-1 -1q-6 -9 -16 -28l29 -53l2 -2
q2 -6 4 -9l3 -6q1 -1 1.5 -2t0.5 -2q12 -21 21 -42q4 -5 7 -13l11 -20l27 -45q3 -5 9 -17l23 -36q3 -4 7.5 -11t6.5 -10q15 -22 33 -50q5 -7 5 -10z" />
    <glyph glyph-name="L" unicode="L" horiz-adv-x="297" 
d="M276 63v-18q2 -8 -1 -15q-5 -12 -17 -17l-4 -2h-5q-6 0 -10 -1q-18 -2 -29 -2q-49 0 -95 -3h-2h-8l-2 -1h-2q-12 -3 -22 -3q-7 0 -10 -1h-2q-3 0 -15 3q-19 7 -19 27q0 15 -1 22v2v37q0 6 -0.5 18t-0.5 19v14q0 2 -0.5 8t-0.5 9q0 26 -1 39q0 6 -0.5 18.5t-0.5 19.5
q0 26 -1 38q0 6 -0.5 19t-0.5 19v9q1 13 -1 41q-2 26 -2 77q0 32 -1 47v21v8v4l1 2v4l-1 2v2q0 18 -1 28q0 5 -0.5 14t-0.5 14v32v14q0 28 1 42v4q0 9 1 15v16l-1 2v5q0 10 7.5 17.5t17.5 7.5q13 0 20 -8l3 -2l1 -3q6 -12 6 -27v-1v-28q0 -28 -1 -43v-1q-2 -18 -1 -31
q2 -22 2 -64v-74q1 -10 1 -28q0 -33 2 -48q1 -6 1 -18q1 -11 1 -34q0 -34 1 -50v-4q-1 -15 1 -48q2 -27 1 -42q0 -4 0.5 -13t0.5 -13v-29q0 -29 2 -42v-21q0 -2 0.5 -5.5t0.5 -5.5q2 0 3 1h5h3q2 1 8 1q4 1 12.5 1.5t12.5 0.5q26 2 42 2q31 0 46 1h1h4l1 1l18 2h14l1 -1h13
v-3h4z" />
    <glyph glyph-name="M" unicode="M" horiz-adv-x="324" 
d="M304 44v-13q0 -12 -9 -21q-8 -8 -20 -8q-5 0 -11 2l-6 3l-2 5q-6 6 -6 15q0 11 -2 39l-3 31v49v11q0 27 -2 39q-1 9 -1 26v7q0 44 -1 64q-1 41 0 81q0 8 -1 11v2q-2 19 -2 56v13q0 24 -1 36v20v15q0 -3 -1.5 -11t-2.5 -12q-6 -32 -16 -63q-15 -46 -21 -74l-1 -1l-2 -10
l-1 -2q-10 -19 -31 -22h-3q-11 0 -19 8q-7 7 -9 16q-3 11 -11 33l-12 37v1l-9 33q0 1 -1 4t-1 5l-9 34q-1 5 -3.5 16t-4.5 17v1q0 1 -1.5 6t-2.5 8v-39v-27v-16.5v-19v-15.5v-24l3 -47q0 -7 1 -23t1 -23q2 -32 2 -47q0 -3 0.5 -9t0.5 -9q2 -40 1 -61q-2 -30 1 -48
q2 -16 2 -44q0 -42 3 -62v-3.5v-3v-3.5v-3q0 -10 -7.5 -17t-17.5 -7q-3 0 -5 1q-10 2 -15 7q-10 10 -10 25v13q-1 4 -1 14q0 36 -3 70q-3 28 -1 68q1 32 -2 85q0 2 -0.5 8t-0.5 9q0 10 -1 15v1l-3 56q-1 18 -1 52v43q-1 15 -1 44v59v3v11v22v18v36v3q2 2 -1 8v4q0 19 3 39
q1 9 8.5 15t18.5 6h6l13 -8l1 -3q5 -5 6 -11q1 -5 8 -23q6 -14 8 -21l15 -43q10 -34 26 -80l1 -4v-2l1 -2v-1l1 -2q2 -13 8 -38.5t7 -29.5q7 -23 8 -28l6 18q4 12 13 57q6 34 20 73q12 37 16 62l9 39q1 6 3 16q2 7 6 17q9 18 29 18q17 0 24 -15l2 -4v-4v-1q1 -2 1 -8
q-1 -28 1 -81q0 -4 0.5 -13t0.5 -14v-1q0 -14 1 -20v-1q1 -9 1 -55v-17q0 -20 1 -29v-1v-36q0 -38 2 -56v-2q0 -15 -1 -22q-1 -24 2 -63v-1q1 -8 1 -25v-24v-1q0 -30 1 -44v-2v-15q1 -16 0 -33q-1 -30 5 -96v-2q0 -6 1 -9z" />
    <glyph glyph-name="N" unicode="N" horiz-adv-x="319" 
d="M294 108q2 -26 2 -38l3 -27v-1q0 -13 -10 -25q-7 -7 -18 -7q-18 0 -23 15l-21 51q-2 4 -4 12q-2 3 -4 9q-8 19 -22 57l-1 2v1q-3 9 -4 11q-10 18 -22 56l-3 10q-1 3 -2.5 9t-2.5 9t-2.5 9.5t-2.5 9.5l-15 39q-18 53 -23 72q-7 25 -13 44q-2 6 -4 11l-1 3q-2 6 -13 40
l-3 12v-16v-72q0 -10 2 -34v-42q1 -5 1 -12v-2q-2 -36 -1 -60v-1q0 -16 -1 -25q0 -19 -2 -53q0 -10 2 -34v-1q1 -9 1 -27v-26v-1q0 -16 1 -24q2 -16 2 -28q0 -11 -8 -21l-2 -1l-1 -2q-10 -4 -15 -4q-22 0 -24 22q0 1 -1 3.5t-1 3.5q-6 32 -5 51l1 1q1 16 -1 46q0 8 -1 12
q-2 56 2 80v12q0 1 -0.5 4t-0.5 5q0 28 1 43v65l-3 42v17l1 2v12v26q0 29 -1 42l-1 1v20v12q-4 19 -4 41q0 9 -1 14q-4 89 -5 119q0 2 0.5 6t0.5 5v5v5l3 4q6 14 23 14q7 0 10 -2q14 -7 18 -19q16 -38 19 -53v-1q4 -18 7 -28v-1q7 -27 19 -67v-1l22 -78q5 -18 15 -51t14 -47
h1q4 -15 11 -35q1 -4 3.5 -12t3.5 -12l3 -7q6 -15 7 -19l1 -3q9 -17 11 -29q10 -40 23 -69l3 -9q0 22 1 33v7l-3 72v1q0 13 -2 41v1q0 7 2 12q1 24 -1 73q-1 7 -1 22v10q-3 17 -3 49v9v50q0 3 -0.5 7.5t-0.5 6.5q-1 5 -1 14q0 35 -1 52v45q0 13 5 26q5 16 24 16q14 0 21 -13
q4 -5 4 -14v-1v-31v-16q1 -12 1 -34q0 -6 -1 -9h1v-19q1 -17 1 -49q1 -16 1 -48v-1q0 -3 0.5 -11t0.5 -12q1 -8 1 -24q2 -40 2 -59q0 -25 -1 -38q0 -10 1 -16v-13q4 -26 2 -56q0 -4 0.5 -11.5t0.5 -12.5v-26v-1q-2 -43 0 -84q2 -26 2 -38z" />
    <glyph glyph-name="O" unicode="O" horiz-adv-x="291" 
d="M82 21h-1q-17 12 -25 28q-19 40 -23 69q-2 12 -2 17l-3 15q-3 15 -3 43q0 25 2 75v2v13q0 31 -1 37q-1 9 -1 28v2q2 20 0 44q-1 10 -1 30q0 14 -1 22v36q0 10 -2 36q-2 23 2 57v1l7 43q4 29 15 51l1 1q23 42 64 60q5 3 17 5h3l2 1h1q8 2 13 2q10 0 17 -3q24 -6 48 -18
q26 -14 38 -43l1 -1q14 -41 16 -83v-1v-2v-1q0 -2 0.5 -6.5t0.5 -7.5q2 -30 1 -46v-2v-8q1 -3 1 -11v-21v-44q0 -29 1 -44q2 -64 -1 -106q0 -20 1 -30v-1v-59v-28q0 -9 -1 -12v-8v-3q-1 -5 -1 -15q2 -37 -22 -77q-6 -11 -22 -27q-2 -1 -6 -5q-3 -4 -19 -14v-1h-1l-12 -4
l-1 -1q-17 -6 -48 -6q-17 0 -31 8h-1q-5 3 -22 12zM190 668l-3 3q-1 0 -1 1l-34 11l-1 1q-2 1 -6 1q-2 0 -4 -1h-1l-2 -1q-17 -3 -33 -19l-2 -3q-17 -23 -18 -40q-1 -4 -2 -11.5t-2 -11.5q-4 -18 -4 -25v-3l-1 -3q-3 -10 -3 -32v-7q0 -11 1 -17q2 -21 0 -34l1 -2
q1 -10 1 -28q1 -5 1 -14v-62v-23v-9q2 -24 2 -36q0 -3 0.5 -9t0.5 -9v-1v-10q1 -4 1 -12v-2l-1 -3v-2l2 -6l-2 -4v-1l1 -3v-4q-2 -26 -2 -37v-4l-1 -3q-1 -1 0 -4v-4v-5q0 -9 1 -12v-1l1 -2q1 -6 4 -27v-3q3 -23 7 -36l10 -21q1 -4 8 -11q6 -4 27 -15h2q19 0 28 2
q10 3 19 12v1l15 14q1 1 3.5 7t5.5 12q6 15 6 30v1q0 5 0.5 14t0.5 14q2 36 2 55q0 34 -1 52q-1 19 0 38q1 10 1 58v20v3q-1 1 -1 5q-3 17 -1 48q1 10 1 29v30v1l-1 2q-3 18 -1 45v3q2 7 -1 20v2q-2 18 -2 25q-1 31 -10 51v2q-3 13 -12 20z" />
    <glyph glyph-name="P" unicode="P" horiz-adv-x="313" 
d="M21 605v35q-1 17 -1 49v23q0 11 7 18q9 9 18 9h4l3 -1q2 -1 10 -1h5h6h1q42 -1 76 -23h1q6 -4 28 -19h1q8 -6 11 -9l19 -13h1q12 -8 29 -25q20 -22 27 -31q9 -11 18 -33l1 -2q11 -24 6 -54v-2l-3 -13q-11 -34 -35 -77q-13 -20 -27 -33h-1l-21 -16q-22 -22 -59 -28
q-14 -1 -30 -6h-2q-7 -2 -21 -2q-9 0 -14 1v-10q1 -2 1 -6t1 -6q1 -8 1 -26q2 -40 2 -61v-11q0 -27 2 -40v-1q3 -16 0 -30v-1q0 -4 -1 -7q0 -5 -1 -8q0 -8 2 -24v-1q8 -44 5 -93v-2q0 -21 -22 -25h-4q-10 0 -18 7t-8 17v4v12q0 28 -5 58q-5 25 -2 53v1v33q-2 31 -2 84v23
q-4 40 -4 59l-1 1v27l1 1q1 27 0 55q-3 15 -3 46v1v86q0 6 -0.5 18.5t-1.5 18.5zM121 669l-1 1q-14 9 -25 10l-1 1l-22 3v-33q0 -1 0.5 -4t0.5 -5v-12q2 -22 2 -35q0 -63 2 -94q3 -11 0 -23v-1q0 -1 -0.5 -5t-0.5 -6q2 -24 4 -40v-3v-9v-10q6 0 9 -1q8 0 11 1q37 7 48 10
t21 11l1 1l12 10q2 2 7 6t7 6q8 8 15 19v1q11 16 24 52q1 4 5 12q1 7 0 16q-7 29 -24 46h-1l-13 16q-11 11 -26 22q-3 2 -8.5 5.5t-7.5 5.5q-6 4 -19 13t-20 13z" />
    <glyph glyph-name="Q" unicode="Q" horiz-adv-x="291" 
d="M247 66l11 -10q13 -9 13 -25v-4l-1 -3q-10 -15 -14 -17l-5 -2h-4q-11 0 -15 4l-2 1l-9 7l-9 9q-8 -6 -15 -9l-6 -3l-2 -1l-4 -2q-17 -6 -48 -6q-15 0 -31 8l-24 13l-1 1q-18 10 -25 28q-18 34 -23 69l-3 16q0 6 -2 16q-3 15 -3 43q0 22 2 76v13q0 25 -1 37q-1 10 -1 28v1
q1 15 -1 45v31q0 3 -0.5 10.5t-0.5 11.5v35q0 11 -2 37q-2 20 2 55v2l3 22q2 6 4 20q3 27 15 52q22 40 65 62q8 4 17 4q4 0 4 1h1q10 2 13 2t18 -3q22 -6 48 -17l1 -1q27 -15 36 -44q15 -37 17 -78v-1l1 -7v-15q2 -30 2 -46v-1l-1 -1q0 -1 0.5 -3.5t0.5 -4.5q0 -1 0.5 -4.5
t0.5 -5.5v-22v-44q0 -29 1 -43v-1q1 -41 -1 -106q-1 -9 1 -30v-1v-59v-28q0 -2 -0.5 -6t-0.5 -5v-8v-2l-1 -2q0 -2 -0.5 -6t-0.5 -5l1 -2v-1q0 -39 -21 -75zM188 128l6 -7q8 -6 14 -14q7 14 7 28q0 19 1 29q2 36 2 55q0 35 -1 51q-1 20 0 39t1 58v20q0 1 -0.5 1t-0.5 1v6
q-3 17 -1 49v29q0 19 1 29h-1v3q-3 19 -1 44q0 15 -1 25q-2 16 -2 26q-1 24 -10 52v1h-1q-3 12 -13 22l-1 1q-24 8 -36 13q-2 1 -6 1t-6 -1q-17 -4 -35 -21q0 -1 -2 -3q-16 -21 -17 -39h-1q0 -3 -3 -21q-4 -20 -4 -27v-4l-2 -3q-2 -7 -2 -24v-14q0 -11 1 -17q1 -16 0 -34v-3
q2 -9 2 -27q0 -10 1 -15v-1q0 -40 1 -60v-1q0 -3 -0.5 -8.5t-0.5 -8.5v-13q0 -6 0.5 -18.5t1.5 -18.5q0 -12 1 -18v-1v-9q0 -2 0.5 -6t0.5 -6v-3l-1 -2v-2l1 -5l-1 -6l1 -3v-4q-2 -26 -2 -37v-4l-2 -4v-4l1 -2v-2v-6q-1 -7 0 -10l1 -1q1 -4 4 -26v-7q4 -24 9 -36v-1l1 -1
q1 -7 7 -18q4 -8 8 -11q11 -8 28 -15h2q19 0 27 2t11 4q-11 13 -27 27l-6 6v9q0 5 1 7v8l19 12h3q1 0 3.5 0.5t4.5 0.5h8z" />
    <glyph glyph-name="R" unicode="R" horiz-adv-x="313" 
d="M271 67l11 -17q4 -6 7 -9q10 -17 -3 -34l-2 -2q-8 -8 -19 -8q-7 0 -14 5l-7 5l-2 4l-11 16v1h-1q-16 31 -51 85q-5 8 -6 12q-4 7 -12 20.5t-12 20.5l-8 14l-2.5 5t-2.5 4l-1 1q-11 22 -46 82q-6 10 -9 14v-15q-1 -13 0 -27v-12q-1 -8 1 -26v-2v-11v-24q0 -16 2 -48v-4
q0 -8 1 -13q0 -2 0.5 -8t0.5 -9v-49q2 -17 -13 -27l-2 -1l-3 -1q-3 -1 -8 -1q-17 0 -23 13l-2 6q-2 12 -2 20q-2 48 -2 66q-1 6 -1 15q-2 20 -1 32v11q0 24 -1 34q-1 8 -1 21v41q1 13 1 40q0 12 -1 18q0 29 -3 57v11q1 13 0 30q-1 3 -1 10v42q0 18 -1 26v28q0 51 3 77
q2 25 -1 37q-3 16 -3 46v3q1 5 1 19q0 10 7.5 17.5t17.5 7.5h6q6 0 9 -2q11 -4 35 -8q2 0 5 -0.5t4 -0.5q16 -2 24 -5h2l15 -8l52 -30q27 -20 35 -29l13 -19q15 -19 24 -47q8 -18 6 -36v-3h1v-20v-6v-5v-3q2 -25 -11 -50v-2l-15 -28q-17 -30 -49 -47q-30 -17 -64 -28h-1
l-1 -1q-20 -4 -31 -5h-3q5 -7 12.5 -19.5t9.5 -15.5q8 -15 17 -28v-1q22 -36 46 -82l3 -6q6 -9 11 -19q11 -15 18 -30l1 -1q8 -17 17 -29q5 -6 9 -15q1 -1 3 -5t4 -6q8 -15 17 -28h1v-1zM224 513v20v9q0 10 -4 22v1q-6 21 -22 45q-6 11 -17 17l-1 1q-10 8 -29 17l-27 16
q-10 7 -21 9l-30 6q0 -2 0.5 -5.5t0.5 -4.5v-1q6 -22 4 -46q0 -26 -2 -40q-3 -20 -1 -51v-1q2 -27 0 -45q1 -2 1 -7q2 -47 1 -74l11 2q5 0 19 2l11 2q23 6 63 28q9 6 16 13q7 8 21 35q6 15 6 30z" />
    <glyph glyph-name="S" unicode="S" horiz-adv-x="308" 
d="M21 492v10q-2 44 1 67l1 3v1q0 18 8 48q0 3 2 9v1q6 26 29 63q5 9 15 17q28 25 56 31l1 1h2q12 2 17 2q20 0 30 -1q4 0 16 -3q52 -18 81 -52l2 -2q6 -9 6 -21v-6l-6 -10l-2 -1q-7 -7 -16 -7q-7 0 -14 5q-8 6 -11 11q-6 6 -13 10h-1l-1 1q-17 13 -30 17l-1 1q-12 5 -18 5
q-1 0 -3 -0.5t-3 -0.5t-3 0.5t-3 0.5h-4h-2h-2q-9 0 -19 -5q-23 -9 -36 -33q-12 -21 -17 -43v-1q-2 -7 -4 -21l-2 -11l-3 -27q-2 -27 0 -40q0 -2 0.5 -6.5t1.5 -6.5q0 -10 3 -19q2 -2 2 -5l5 -9q2 -3 7 -9.5t7 -9.5l1 -1q10 -12 22 -17l22 -9q11 -7 20 -9q1 0 1 -1
q10 -3 12 -5q29 -16 34 -19v-1q55 -36 68 -99q2 -10 4 -26v-1q0 -3 1 -9t1 -9q2 -26 1 -40l-3 -47q0 -30 -13 -63q-15 -37 -40 -55v-1h-1q-26 -16 -42 -20l-24 -5q-10 -3 -21 -3q-12 0 -18 1l-1 1h-3q-1 0 -4 0.5t-4 0.5q-26 6 -43 20l-2 2q-17 16 -26 25l-10 12
q-11 12 -9 26q2 13 13 23q6 6 15 6q17 0 20 -15q2 -5 13 -19q11 -12 24 -22l7 -3h2q11 -5 26 -5q13 0 25 4l23 8q2 2 8 6h1q15 11 20 28v1l1 1q11 26 11 66v27q2 35 -2 53v4q0 1 -0.5 3.5t-0.5 4.5q-3 25 -24 54q-15 19 -54 38h-1q-10 5 -48 21l-1 1q-20 9 -36 25l-1 1
l-19 23q-13 17 -16 35q-1 1 -1 2q-1 2 -1 3q-2 4 -2 8l-1 1v2q-3 9 -3 13z" />
    <glyph glyph-name="T" unicode="T" horiz-adv-x="289" 
d="M166 59q0 -8 2 -20q3 -16 -5 -26q-3 -4 -16 -11l-5 -2h-4q-20 0 -23 19q-3 9 -3 26l-3 80q0 14 1 22q3 22 1 59q-1 17 -1 53q0 34 -1 55v1q0 48 -1 73v1q0 3 0.5 7t0.5 6v11v22q-2 73 1 111v23v4q0 12 1 15v1q1 6 -1 22v1q-1 16 0 31v13v1q2 13 0 27q-17 0 -26 -1h-1h-11
q-19 0 -29 2q-10 1 -16.5 9t-6.5 19v5l2 4q8 16 24 16h6q5 -1 15 -1q14 0 22 1q7 1 23 1h10h9h24h11q4 1 13 1h58q2 0 5 -0.5t4 -0.5h4l4 -2q15 -8 15 -24q0 -17 -15 -25q-6 -3 -15 -3q-7 -1 -21 -1t-21 1h-34q1 -18 0 -40v-1v-13v-9q0 -2 1 -4v-8v-28q-1 -8 -1 -25
q1 -12 -1 -32l-1 -10v-31v-15q1 -17 1 -51v-94q0 -11 1 -17v-21v-4v-2v-5q1 -12 1 -35q0 -28 1 -43t-1 -47v-1q0 -23 1 -35v-26v-17q1 -4 1 -12z" />
    <glyph glyph-name="U" unicode="U" horiz-adv-x="310" 
d="M288 199v-3q3 -24 -1 -71v-1q-2 -29 -6 -44v-2q-5 -17 -16 -33l-2 -2l-5 -5v-1q-1 -1 -1 -2l-1 -1q-16 -20 -44 -28q-21 -6 -39 -6h-15q-5 -1 -17 -1q-27 0 -50 14v1q-23 15 -35 32l-1 1q-18 24 -23 50l-3 10q-6 28 -6 32v1l-1 2v2q-2 17 1 29v9q-1 4 -1 21q0 2 0.5 4.5
t0.5 3.5v1q1 18 1 53v1q0 33 1 50q0 33 1 50v17q-2 8 -2 24v16v18q-1 27 0 53l1 2q1 8 1 25q-1 7 -1 21q-1 7 -1 21q-1 8 -1 23q-1 7 -1 22q-4 28 -1 53v1q3 24 3 48q0 6 1 7v7l5 6q8 8 20 8h5q21 -4 21 -24v-11q0 -16 -1 -25v-13q0 -18 -2 -28l1 -2l3 -75q0 -9 1 -15v-3
q5 -30 0 -62v-1q-1 -5 -1 -17v-50q3 -14 3 -54v-16v-23l-1 -1q-2 -34 -2 -52q1 -21 -1 -63v-41q0 -28 11 -61q7 -24 34 -43l7 -3h1q2 1 8 1q8 0 14 -2q2 -1 4 -1h18h4q9 0 24 5q2 0 4 1l4 2q5 7 15 19q2 3 5 15q5 22 5 68v16q-2 40 -1 62q2 26 0 50v5q2 17 0 51v27v25
q0 4 0.5 11.5t0.5 11.5v1q2 39 1 58q-4 55 -1 90v10q-2 16 0 58v1q0 6 0.5 18.5t1.5 18.5q0 13 1 20q0 8 2 18q2 19 23 19q5 0 11 -3l6 -4q6 -6 7 -14q3 -15 3 -16v-11q0 -39 -4 -60q-1 -12 1 -27v-2q3 -15 0 -30q-2 -24 0 -48l1 -1q2 -46 2 -65q0 -29 -3 -43q-1 -7 -1 -25
l1 -10q0 -22 1 -34l2 -12l-1 -1v-39q0 -27 -2 -41v-1q0 -15 1 -22q2 -6 2 -18q0 -2 -0.5 -4.5t-0.5 -3.5z" />
    <glyph glyph-name="V" unicode="V" horiz-adv-x="300" 
d="M20 718h1q0 5 5 12q7 9 22 9q16 0 23 -15q2 -4 2 -11l6 -36q3 -10 7 -37q2 -8 2 -13v-1q0 -15 3 -30q1 -3 1 -8t1 -7q3 -24 9 -50q8 -36 11 -78l3 -21l9 -52q10 -41 13 -65l3 -16q2 -7 4 -19v-1q4 -35 14 -85q0 4 2 10v1q2 10 4 34v1q0 4 6 29q6 30 6 46v10l1 2
q1 6 2.5 18.5t2.5 17.5q1 19 6 40v1q2 10 4 32l3 25q2 16 2 23v2q3 20 7 62q2 23 7 41l3 16q6 35 7 48v1h1q1 6 2 16t2 16v1q0 5 1 10.5t2.5 11.5l2.5 10l1 8l15 10h6q15 0 22 -14l2 -4v-5q0 -5 1 -7v-17v-9q-2 -22 -4 -33l-15 -92q-2 -10 -2 -12v-1q-2 -30 -6 -55
q0 -5 -2 -17q-2 -14 -2 -20l-3 -22q-2 -20 -4 -31l-3 -22q-1 -14 -5 -37q-4 -27 -5 -42q0 -11 -4 -29q0 -1 -0.5 -3t-0.5 -3q-4 -16 -5 -32l-3 -18l-2 -14v-2q-3 -15 -7 -49v-1q-5 -24 -6 -49t-5 -59v-2l-5 -18v-1q-5 -17 -26 -17q-7 0 -13 3h-1l-1 1l-1 1q-13 9 -15 22
q-4 22 -7 34l-2 15q-5 17 -11 56l-3 16q-2 12 -12 70l-1 1l-3 20l-1 7q-2 24 -8 62l-6 26q-1 4 -2.5 10.5t-1.5 9.5l-3 11q0 4 -2 10v2l-8 46q-2 11 -4 33q0 2 -0.5 7t-1.5 7q0 6 -1 9q0 9 -1 13q-2 8 -7 32l-3 21v1q-4 16 -8 52q-2 26 -5 39z" />
    <glyph glyph-name="W" unicode="W" horiz-adv-x="304" 
d="M258 739q19 0 24 -18q2 -5 2 -12q0 -21 -2 -33q-2 -13 -2 -41v-80v-8q-1 -1 -1 -4v-1q-2 -24 -2 -35v-16q-1 -5 -1 -15q-1 -24 -1 -72q0 -5 1 -7v-3q3 -34 -2 -77v-8v-14q1 -15 0 -29v-1q-1 -4 -1 -13q0 -29 -2 -45v-6v-50q0 -5 -0.5 -16t-0.5 -17q0 -14 -1 -22
q-2 -13 0 -41q4 -12 -1 -29q-2 -2 -2 -5q-1 -9 -9 -15.5t-17 -6.5q-18 0 -25 17q-2 2 -2 4q0 1 -3 7t-4 10q-5 13 -6 23q-1 2 -2.5 7.5t-2.5 8.5l-15 59q-3 9 -3 14q-2 18 -10 54q-1 5 -2.5 13t-1.5 12q-1 1 -1 3t-1 3l-3 15q-4 -16 -5 -24v-1q-1 -10 -6 -26v-1
q-8 -25 -12 -54v-1q-1 -2 -1 -5t-1 -4q-3 -15 -9 -34v-1q-4 -12 -5 -22v-1l-7 -43q-3 -16 -16 -24q-8 -5 -16 -5q-6 0 -12 3q-12 4 -14 16q-6 15 -4 33q0 7 -0.5 14t-1.5 16t-1 14l-1 3q-2 22 -2 32q0 37 -4 121v2q-2 30 -4 90q0 11 -1 16q0 3 -0.5 9t-0.5 9q-2 28 -2 42v1
q1 49 -3 98q-1 11 -1 31v10q-3 12 -3 35v7v19q-1 7 -1 21q0 6 -2 22q0 9 -2 27v1q0 7 1 10v7q0 11 7.5 17.5t17.5 6.5q18 0 23 -17l1 -1v-2q2 -10 2 -18q1 -21 5 -54v-1q2 -29 1 -42v-14q1 -4 1 -11q2 -14 4 -42l1 -2v-5q0 -25 1 -38v-39q1 -7 1 -21q0 -3 0.5 -10t0.5 -10
v-2q0 -18 2 -60v-4q0 -4 1 -6v-9v-2q2 -20 2 -28q0 -13 2 -41q0 -3 0.5 -9t0.5 -10q1 -7 1 -21v-2q4 19 5 25v1q1 6 3.5 16l3.5 14q0 1 1 3t1 3v1l6 22q5 32 13 59q5 22 26 22q3 0 4 -1q15 0 22 -15l1 -1v-2q1 -4 3.5 -10.5t3.5 -9.5q10 -28 12 -45v-1q1 -3 5 -21q1 -1 1 -4
h1q6 -20 8 -35l3 -17v3l1 8v55q0 15 2 51v2q0 12 1 17q0 28 -1 33v1q-1 14 -1 39q0 2 0.5 6t0.5 5v7q0 21 3 32q0 5 -1 7v7v28q4 56 4 138q0 31 4 47v1l1 2v2q0 6 1 9v3l1 2q8 15 23 15z" />
    <glyph glyph-name="X" unicode="X" horiz-adv-x="302" 
d="M249 9l-5 5q-4 2 -7 5t-7 11l-1 1v2l-15 35v1l-1 1l-1 1l-1 5q-3 11 -7 20q-1 1 -1.5 3t-1.5 4l-2 4q-6 17 -9 33l-3 9q-10 42 -18 56q-4 13 -5 17q-3 10 -9.5 31.5t-8.5 27.5l-3 -11q-1 -1 -1 -3.5t-1 -3.5q-8 -20 -23 -79l-6 -20q-1 -6 -5 -18t-5 -18l-1 -2v-1
q-5 -14 -11 -42q0 -3 -2 -13q-3 -17 -9 -37q-1 -1 -1 -5q-1 -2 -1 -6l-1 -1v-1q-4 -14 -20 -19q-3 -1 -7 -1q-11 0 -19 7.5t-8 18.5q0 9 4 15q8 24 12 54v1q2 12 9 35q1 6 4.5 18t5.5 18l15 54l1 4q3 14 11 36q9 24 20 69v1q1 4 13 48v1q1 4 0 9q-1 2 -25 78v1l-6 24l-3 10
q-1 4 -4 12.5t-4 12.5q-11 25 -19 57q-1 3 -2.5 9.5t-2.5 9.5l-15 53l-3 9q-1 4 -3 10l-10 31v3q0 9 7 16q6 9 19 9q5 0 11 -3h8l4 -13q5 -14 5 -16q12 -32 16 -49q5 -23 16 -59q3 -9 14 -41q5 -12 11.5 -35t9.5 -31q1 -2 1 -5t1 -4l3 -9q0 2 1 5t1.5 5.5t0.5 4.5h1
q1 4 2.5 10.5t1.5 7.5q2 5 4 11q1 3 2.5 8.5t1.5 7.5q7 23 8 28q6 32 20 72q2 5 13 41l3 10q5 18 17 45q7 14 21 14q4 0 12 -4q13 -7 13 -22v-4q0 -6 -3 -12q-4 -16 -11 -37q-9 -33 -13 -43q-4 -12 -16 -52q-2 -5 -4 -16t-4 -17l-1 -7l-1 -1l-9 -34q-1 -3 -3 -11t-3 -11
q-2 -10 -7.5 -26.5t-5.5 -18.5l-6 -19v-1l-9 -23q0 -1 1 -1q0 -1 1 -2q0 -2 2 -8q5 -16 6 -21q1 -8 8 -32q1 -1 1.5 -3.5t0.5 -3.5q2 -4 3.5 -9t3 -11.5t2.5 -9.5q2 -9 8 -27l3.5 -10.5t4.5 -11.5q6 -16 8 -23t7 -29q1 -3 2 -6.5t2 -8t2 -6.5q3 -14 8 -27l20 -52q1 -4 5 -12
l6 -13q2 -3 2 -7l2 -3v-5q0 -21 -22 -26z" />
    <glyph glyph-name="Y" unicode="Y" horiz-adv-x="294" 
d="M235 552v-2q-5 -25 -12 -39q-11 -25 -21 -58v-2l-24 -76l-21 -67l-1 -1v-2v-3q-3 -15 -13 -45l-2 -4q-1 -1 -1 -3l-1 -4q-1 -1 -1 -2q-1 -2 -1 -3l-6 -25q-6 -23 -6 -25q-7 -27 -22 -69v-1q-11 -28 -16 -47q-1 -4 -2.5 -9.5t-1.5 -8.5q-6 -21 -7 -28q-4 -22 -26 -26
q-1 -1 -5 -1q-11 0 -19 10q-6 7 -6 16q0 8 3 13q3 6 7 22q0 3 2 9q6 31 20 67q16 45 20 65l12 43q0 3 2 7q4 16 11 37l4 12q4 17 23 79l-1 3v5q0 1 -2 7q0 1 -1 2.5t-1.5 3t-0.5 3.5q-2 6 -4 16q-2 4 -4 12q-7 15 -11 28v1l-8 26q-9 26 -9 28l-30 97l-3 8l-2.5 7.5t-2.5 8.5
t-1 8q-5 19 -12 34l-7 22l-1 3v2q0 1 -0.5 3t-0.5 4v12l6 5q4 5 10 8l4 2h5q15 0 23 -13l1 -1v-1q1 -3 3.5 -10t3.5 -11q12 -33 14 -44q7 -26 21 -65l6 -22q2 -5 4.5 -13.5t3.5 -11.5q8 -24 11 -37q7 -12 10 -27q1 -2 4 -11l18 48q8 17 9 31l1 1l4 23v1l4 13q13 38 25 85v1
l9 28q4 15 17 22l4 2h8q12 0 19 -10l4 -4v-6q1 -6 -1 -12q0 -1 -0.5 -3.5t-1.5 -3.5q0 -1 -0.5 -3t-0.5 -3l-1 -1v-1l-1 -4q-7 -19 -8 -31v-1l-9 -31v-1l-6 -19q-1 -2 -2.5 -7t-2.5 -8q-4 -14 -5 -27z" />
    <glyph glyph-name="Z" unicode="Z" horiz-adv-x="292" 
d="M198 -3h-5q-12 2 -14 2h-2q-22 2 -34 2q-4 0 -11.5 -0.5t-12.5 -0.5q-21 -1 -43 0h-2h-3h-6h-7h-14q-12 0 -19 10q-6 10 -5 19q1 7 6 13q4 4 5 14l3 13q2 6 2 8v2l1 1q0 2 2 8q5 21 11 41q1 3 2.5 8.5t1.5 6.5q6 20 7 29h1v1q2 6 2 10q2 7 7 22.5t7 23.5q4 14 4 17v1h1
q5 23 12 41q7 17 8 29l6 23l6 25q6 26 15 52q4 7 5 14q10 26 15 47v1q5 21 7 28q5 22 7 29v3q5 20 7 26q15 51 20 66q4 10 10 32q0 2 1.5 7t2.5 8l-7 1h-6h-8h-8q-18 -2 -27 -2t-29 2q-10 1 -31 1q-14 0 -21 1q-9 0 -21 2l-7 1l-4 5q-9 9 -9 19v8l5 5q8 8 10 9q6 3 16 3h16
q24 0 38 -1q12 0 18 -1h18q31 1 92 1q7 0 13 -3q16 -7 16 -25v-8l-3 -6q-5 -9 -11 -29q-2 -10 -4 -15q0 -1 -0.5 -3t-0.5 -3q-1 -5 -5 -17q-11 -27 -29 -97l-3 -14q-2 -4 -2 -8q-1 -4 -5 -21t-7 -26q-4 -19 -14 -45q0 -3 -2 -7l-2 -5q-10 -28 -12 -42l-1 -1q-3 -13 -8.5 -36
t-7.5 -32l-1 -1l-3 -12l-1 -1q-5 -11 -10 -30l-2 -8q-2 -9 -4 -13v-3q-7 -25 -11 -35q-3 -15 -11 -41q-6 -20 -8 -30v-1l-16 -62q2 0 5.5 -0.5t4.5 -0.5q4 0 5 1q8 1 23 1q8 0 11 1h12q17 0 25 -1q12 -2 37 -2q7 -1 20 -1q15 0 25 -3h1l2 -1q16 -8 16 -26v-5l-2 -4
q-5 -12 -16 -15l-3 -1h-1h-2q-1 -1 -2 -1l-4 1h-21q-8 1 -23 1z" />
    <glyph glyph-name="bracketleft" unicode="[" horiz-adv-x="143" 
d="M72 684v-21q-1 -16 -1 -50v-52v-32q-1 -11 -1 -32v-12q0 -4 1 -6v-10v-73q0 -11 -1 -18q-1 -10 0 -20q2 -16 1 -24q-1 -14 -1 -44v-15v-15q1 -16 0 -32q0 -21 1 -31q0 -53 -1 -64v-11q0 -2 1 -3v-9v-2q-1 -14 0 -27v-26q5 0 7 -1h10h4h2q13 0 21 -10q6 -8 4 -18
q-2 -21 -20 -24q-5 -2 -13 -2h-2l-2 1q-17 3 -30 -1l-3 -1h-3q-8 0 -15.5 6t-8.5 14q-2 4 -2 9v2q1 5 1 15v18q1 19 1 60q-1 10 -1 30v267q0 35 -1 51v7q1 5 1 31v12v68q0 41 1 62v19q1 19 0 38v7q0 13 13 20l7 7l12 -4q6 -2 12 -2q7 0 11 1h12q9 0 15 -2q15 -5 18 -20
q5 -20 -15 -30l-4 -2h-4h-5q-4 0 -6 1h-7h-9z" />
    <glyph glyph-name="backslash" unicode="\" horiz-adv-x="289" 
d="M25 705q-2 2 -2 4q-6 10 -1 22q5 15 23 15q9 0 17 -5l9 -6v-3l3 -3l1 -7q0 -2 1 -3q4 -10 5 -17l6 -19q4 -14 14 -44l6 -18q2 -7 11 -37q2 -7 7.5 -27.5t8.5 -31.5q4 -6 6 -21q2 -9 6.5 -25t5.5 -19q2 -4 4 -12v-1l3 -13q0 -1 0.5 -3.5t0.5 -3.5q2 -4 2 -6q3 -7 10 -31
l9 -31l1 -1q2 -8 4 -20q1 -7 10 -33v-2q5 -23 10 -37l9 -36q1 -2 2 -6t1 -5v-2l33 -117q2 -6 2 -9l3 -12l1 -1l9 -33q0 -1 1 -3.5t1.5 -4.5t0.5 -4v-4l-12 -29l-19 9l-4 1q-3 2 -5 4l-9 6v5q-1 0 -1 1l-1 1v1q-1 2 -4 10l-1 4l-2 4q-9 36 -23 82l-1 1v1q-3 14 -11 44
q-12 44 -17 67l-17 59q-1 5 -3.5 14t-3.5 12q-8 26 -11 40q-6 24 -16 54l-1 2q-5 18 -16 70q-10 31 -23 78l-1 1q0 1 -2 5l-3 9l-1 1v2q-3 17 -18 61q-11 37 -12 40l-1 1q-2 7 -5 15z" />
    <glyph glyph-name="bracketright" unicode="]" horiz-adv-x="142" 
d="M122 715v-43q-1 -23 -1 -68v-23q0 -8 0.5 -24.5t0.5 -24.5v-50v-20h-1q0 -10 0.5 -32t0.5 -32v-85v-18v-32v-8q-1 -10 -1 -31v-11v-130q-1 -30 0 -57v-1q0 -8 -2 -13q-6 -17 -22 -17h-5l-3 1q-3 1 -11 1h-9h-11h-5h-12l-5 2q-9 5 -14 15l-2 4v5q0 21 19 27l3 1h12
q2 -1 8 -1h9q1 23 1 70v36v17q0 43 1 64v10q-1 6 -1 18v72q0 12 2 19q0 12 -1 17v2q-3 11 -1 25q1 9 1 28v31v22q0 4 -0.5 12t-0.5 13v23q0 48 1 71v3q0 1 -0.5 4t-0.5 5v14q1 8 1 27q-1 8 -1 24v2q-5 0 -7 1h-11h-4h-2q-10 0 -17.5 8t-7.5 18q0 9 6 17t15 9q5 2 13 2h3
l2 -1q12 -2 15 -2q6 0 14 3l3 1h3q7 0 12.5 -4t8.5 -8l2 -4z" />
    <glyph glyph-name="asciicircum" unicode="^" horiz-adv-x="570" 
d="M22 254l214 464h70l242 -464h-117l-157 314q-34 -79 -69 -158.5t-68 -155.5h-115z" />
    <glyph glyph-name="underscore" unicode="_" horiz-adv-x="446" 
d="M53 -77h14q3 0 8 0.5t7 0.5h59l1 -1h24h10h14h32q11 -1 31 -1h11l1 1h10l2 -1h12h33h4l2 -1h75q8 0 14 -6q8 -6 9 -17v-4q0 -17 -16 -22h-3q-3 -1 -5 -1h-43q-33 0 -50 1h-26h-21q-32 0 -66 1h-25q-21 0 -31 1h-33v-1h-5q-4 0 -5 1q-3 0 -10 -0.5t-10 -0.5h-24l-1 -1h-9
q-15 0 -21 13q-3 8 -1 17q1 14 12 17l4 3h4q5 1 12 1z" />
    <glyph glyph-name="grave" unicode="`" horiz-adv-x="606" 
d="M345 606q-31 21 -90.5 69.5t-92.5 80.5v10h167q31 -49 115 -147v-13h-99z" />
    <glyph glyph-name="a" unicode="a" horiz-adv-x="329" 
d="M306 47q0 -4 2 -12q2 -9 -5 -24h-1l-1 -2l-1 -1q-8 -8 -19 -8q-7 0 -12 3h-1l-1 1q-12 8 -14 21l-6 24q0 1 -0.5 3.5t-0.5 4.5q0 1 -0.5 3.5t-1.5 3.5l-9 38q-2 6 -5 19t-5 20q-4 18 -5 26l-6 25v1l-6 34q-5 30 -17 90q-1 3 -1 10h-10h-10h-12q-3 -1 -11 -1
q-18 -2 -27 -2h-4l-3 -26l-3 -21q0 -4 -1 -12.5t-1 -12.5l-1 -1q-1 -2 -1 -6.5t-1 -6.5l-3 -15q-5 -24 -6 -46l-3 -21l-2 -17q-2 -19 -8 -47q0 -4 -2 -12q0 -1 -1.5 -11t-1.5 -15v-1l-1 -1q-1 -8 -1 -26q0 -23 -21 -28q-4 -2 -9 -2q-12 0 -20 10q-5 5 -5 15q-1 5 0 9v4l1 2
q1 32 10 70q0 4 2 12q2 10 2 17v2q0 3 0.5 8.5t1.5 8.5q4 24 6 47q0 8 2 14q1 1 1 3q3 18 10 67q4 34 8 54q7 35 11 78q0 10 4 30q0 5 2 13v2q2 18 4 27v4q4 28 7 42l9 49q0 3 1 5q1 16 5 41q2 6 4 22q2 18 4 26q0 3 2 13l3 18q0 22 20 24q1 1 4 1q24 0 30 -19l1 -3v-2
q0 -1 0.5 -3t0.5 -4q0 -15 4 -27v-1q4 -19 10 -55l16 -91q5 -38 6 -42v-2q1 -9 8 -40v-1q5 -29 10 -46v-1l12 -62l3 -15v-1l1 -1q1 -12 7 -43l3 -15l3 -15q0 -2 0.5 -6.5t1.5 -6.5v-1l1 -1q0 -4 1.5 -11.5t1.5 -8.5q1 -1 1 -4l6 -30q4 -20 7 -30v-1q1 -1 1.5 -4t0.5 -4
q4 -12 4 -21q2 -8 8 -26q1 -3 2.5 -8.5t2.5 -7.5q1 -3 7 -27zM138 379h3q25 0 38 1q-9 44 -14 73q-1 5 -2 10.5t-2 12t-2 10.5l-7 41l-3 16q0 -3 -2 -9q0 -2 -0.5 -4t-0.5 -4q-5 -20 -6 -37l-14 -112h1q5 0 9 1z" />
    <glyph glyph-name="b" unicode="b" horiz-adv-x="287" 
d="M21 492v15q-2 16 -1 26t1.5 30.5t0.5 30.5v42v34q-1 12 -1 36q0 6 2 11q3 15 17 18q1 0 5 0.5t7 0.5h7q33 -7 46 -15q5 -4 11 -5l10 -5q26 -13 44 -25q23 -11 43 -38q11 -14 15 -35v-1q6 -44 -1 -83q-3 -14 -13 -40l-1 -1l-5 -10l-1 -1q-33 -38 -48 -50q-19 -16 -50 -32
h-1q18 -11 19 -11q32 -19 37 -22q12 -7 26 -23l20 -23q13 -14 22 -31q0 -1 1 -2.5t2 -2.5h1q14 -18 25 -60q0 -2 0.5 -4t0.5 -3q3 -9 3 -17q0 -1 0.5 -3t0.5 -3v-1q3 -32 -12 -65l-16 -33l-1 -1q-12 -20 -34 -31l-48 -30h-1q-37 -18 -59 -23q-12 -2 -21 -6l-2 -1l-3 -1
q-2 0 -6 -0.5t-5 -0.5q-2 0 -6 0.5t-6 0.5q-19 5 -23 25q-1 5 -1 12v107q1 14 1 42q0 7 0.5 21.5t0.5 21.5q0 25 -1 37v1q0 5 -0.5 15t-0.5 15q0 20 -1 30q-1 31 1 89q1 27 -1 77v1zM97 662l-4 4q-1 0 -1 1l-6 2l-2 1l-5 3l-3 1v-33q0 -19 -2 -53l1 -1v-8q0 -24 -1 -35
q-1 -28 2 -73q1 -11 1 -33l3 2q3 2 7 4t7 4q3 1 9 5h1l1 1q19 9 41 34l1 1q4 4 6 7l8 9q4 4 6 10v2l1 1q4 10 6 17l2 12q2 18 0 53q0 6 -7 17l-1 1v1l-2 2q-17 17 -41 30h-1l-1 1l-16 8h-5l-1 1h-1l-1 1h-2zM179 106q1 1 3 2l3 2q1 2 10 17q8 12 11 18q11 23 6 48v1
q-10 41 -23 56l-1 2l-3 7q-17 25 -43 52l-2 1l-3 3l-2 1l-32 21q-10 5 -28 13q0 -4 0.5 -11t0.5 -11v-1q0 -7 1 -10v-13q0 -7 0.5 -19t0.5 -18q1 -30 0 -55q-1 -26 -1 -62v-93q13 2 39 14q2 0 6 2l1 1h1q1 0 4 3h1l11 6q26 16 39 23z" />
    <glyph glyph-name="c" unicode="c" horiz-adv-x="307" 
d="M281 677q2 -2 3 -4q5 -6 3 -17q-1 -10 -12 -17q-6 -3 -12 -3q-4 0 -10 3q-15 5 -22 20q-8 14 -28 21q-8 3 -27 5q-9 1 -21 -7q-13 -12 -18 -17q-24 -28 -41 -70l-1 -1q-4 -9 -5 -19q-1 -1 -1 -4q-5 -23 -7 -31q-1 -5 -1 -15q-1 -3 -1 -9q-2 -18 -4 -49q-1 -12 -1 -35v-1
q-2 -29 0 -58v-1q0 -69 2 -104v-7l3 -23q8 -47 9 -52v-1q3 -23 13 -49q4 -8 10 -17l1 -1q2 -3 6 -11l5 -8l2 -3v-3q1 -1 1 -2q1 -2 1 -3v-1q1 -1 1 -2q6 -10 11 -13q9 -3 13 -8q17 -7 26 -7h3q2 1 5 1t4 1q19 2 29 8q8 5 10 10v2q4 6 5 9q2 4 2 5h1v1q6 14 22 14q5 0 7 -1
l5 -1l3 -3q4 -4 6 -7q9 -12 4 -24q-14 -51 -67 -62l-13 -3q-15 -3 -27 -3q-14 0 -27 3q-3 1 -17 6l-2 1q-1 0 -1 1h-2l-2 2q-6 3 -18 11q-13 7 -20 19l-1 1q-6 12 -10 17v1l-1 1l-3 7q-2 3 -5 8t-4 8q-9 14 -17 37l-3 11q-1 1 -1 3t-1 3q-6 15 -7 28q0 3 -1.5 8t-1.5 6
q-2 6 -2 8q-3 4 -3 13q0 6 -2 24q-3 17 -3 36v7v5v1q-3 19 -1 45v2v3q-2 24 0 45v20q0 13 -1 18q-1 3 -1 19v3v1l3 42q2 40 5 58l6 33q1 6 3 16v1q1 1 1 3t1 3q2 14 7 24q8 20 19 36l7 12q2 2 6 9.5t7 11.5h1l6 8q10 12 17 19l18 15q14 10 36 14h2q31 3 58 -9h1l4 -1
q30 -11 48 -40l1 -2l1 -1q0 -1 1.5 -3.5t1.5 -3.5z" />
    <glyph glyph-name="d" unicode="d" horiz-adv-x="310" 
d="M21 674v1q-2 16 -1 27v8q0 10 4 17q8 11 22 11h3q9 0 27 -2h2q22 -6 33 -11q24 -11 40 -27q8 -7 22 -21q33 -31 58 -83v-1l6 -14q18 -39 25 -64l1 -2q4 -10 17 -56q0 -1 0.5 -4t0.5 -4v-1l1 -1q0 -1 0.5 -3.5t0.5 -4.5q3 -12 3 -13q5 -19 3 -41q-2 -20 -2 -28
q1 -30 -9 -82l-1 -3q-8 -44 -14 -67q-7 -33 -26 -62l-1 -1q-2 -4 -8 -12q-14 -22 -23 -33q-6 -9 -13 -16l-36 -39l-1 -1q-17 -14 -42 -26q-3 -2 -6.5 -3.5t-8 -3t-6.5 -2.5q-8 -2 -11 -4h-1q-6 -2 -15 -2h-4q-13 0 -21 7.5t-8 20.5q-1 6 -2 17t-1 12v14v1v7q0 1 0.5 4t0.5 4
q-2 22 -2 44q-1 5 -1 14v2q1 12 -1 39v11v1q0 17 1 26v1q2 12 0 39v1q0 2 -0.5 6t-0.5 7v15q0 17 -1 25q0 35 1 52q1 20 0 40q-1 5 -1 11v2q0 2 0.5 6t0.5 6q2 16 2 21v8q-2 14 1 28v12q-3 30 -3 60v29v1q0 3 -0.5 10.5t-0.5 11.5v22q-2 22 -4 36zM190 552q-13 31 -18 39
q-22 39 -56 69q-13 13 -35 21q-6 2 -8 2v-1v-13q3 -11 5 -49q0 -8 1 -12v-1v-8q0 -1 0.5 -5.5t0.5 -6.5q0 -30 1 -46v-1v-20q0 -4 0.5 -11.5t0.5 -10.5v-12q0 -25 -2 -38q-2 -20 0 -39l1 -2v-1v-4q0 -9 -1 -15q-3 -39 0 -83v-1q0 -14 1 -21v-1q1 -28 0 -57v-2l-1 -2
q-1 -4 1 -17v-2v-18q0 -3 0.5 -10t0.5 -10v-54q0 -8 0.5 -24.5t0.5 -25.5q23 8 37 22l12 12q32 32 53 65q1 4 4 8q6 8 7 12v1l1 1q15 29 18 51v1q11 50 16 83q3 18 3 36v9q-2 21 2 39q0 4 -1 5v2q-6 42 -18 77v1q-16 44 -27 68z" />
    <glyph glyph-name="e" unicode="e" horiz-adv-x="307" 
d="M23 596v25q-4 16 -2 38v9v16q2 14 1 23q-2 14 5 21q7 10 22 10h9q14 -2 24 -2q18 0 27 1h30h5h2h2q10 1 30 1q7 1 18 1h2h23q9 1 27 1q1 0 17 -4q8 -4 12 -15l1 -2q7 -18 -12 -28q-8 -5 -20 -5h-28q-46 0 -68 -2h-19h-8h-9h-9q-15 -2 -30 0q-3 -35 0 -60q2 -28 2 -42
q0 -18 -1 -27q0 -52 2 -78v-1q0 -3 -0.5 -9.5t-0.5 -9.5v-17q1 -7 1 -22q0 -5 0.5 -15.5t0.5 -15.5q35 0 35 2h5h14l3 1h4h10l4 -2q16 -6 16 -22t-14 -23q-9 -6 -27 -6h-5h-2q-16 -2 -26 -2h-11h-7q0 -3 -1 -5q0 -23 1 -34l1 -1v-1q2 -28 1 -42q-2 -36 0 -108q0 -18 1 -27
q0 -26 -1 -40q0 -6 -1 -9v-15q4 0 11 0.5t11 1.5h1q12 2 18 2l118 3h5q3 1 8 1h4q17 0 27 -14q7 -8 5 -19q-1 -9 -9 -15t-16 -6h-2h-2h-6q-1 1 -5 1q-3 0 -5 -1h-3q-37 0 -91 -2q-21 0 -45 -3q-15 -2 -45 -2q-24 0 -31 23l-1 1v9q-2 24 -1 37q2 29 1 48v29q0 26 -1 40
q-2 20 0 42q2 16 0 51v1q0 3 -0.5 10t-0.5 11q-2 16 0 30q3 48 0 86v20q0 51 -1 76q-1 7 -1 20q1 3 1 8v1q2 26 0 53z" />
    <glyph glyph-name="f" unicode="f" horiz-adv-x="298" 
d="M21 597v1q-1 14 -1 40v4q2 48 2 69v3l1 3q7 19 25 19h3l3 -1h2h3h5h19h18h19h8h7h6q12 1 35 1h1h12q25 0 56 4h2q7 0 12 -2q19 -5 19 -26q0 -20 -20 -27l-3 -1h-10q-7 1 -16 0h-3q-30 0 -44 -1h-2q-28 0 -41 -1h-2q-9 0 -13 1h-11h-40v-12v-13q-1 -4 -1 -12q1 -11 1 -32
q2 -20 1 -31q0 -4 1 -6v-10q3 -39 2 -64q0 -13 2 -45q1 -36 0 -72q3 0 8 1t7 1h3q2 0 6 0.5t7 0.5q20 2 31 2h11l4 -2q16 -8 16 -23q0 -9 -6 -17.5t-16 -9.5q-1 0 -3.5 -0.5t-4.5 -0.5h-1h-9q-18 0 -41 -3h-1q-2 0 -5.5 -0.5t-5.5 -0.5v-21v-31v-1q0 -70 -2 -107
q-1 -33 2 -87v-8q1 -18 1 -52q0 -16 -18 -25l-4 -2h-5q-9 0 -16.5 5.5t-8.5 13.5q-2 5 -2 13q0 24 -2 70v89q2 46 0 91v85q0 7 1 11v7v1q3 40 0 79q-1 21 -1 62q0 21 -1 30q-1 8 -1 22q0 13 -1 18z" />
    <glyph glyph-name="g" unicode="g" horiz-adv-x="312" 
d="M286 184q0 -40 5 -97q2 -20 -1 -34l-1 -1l-4 -12l-1 -2q-11 -16 -21 -22q-7 -4 -13 -7h-1q-27 -9 -54 -9q-16 0 -31 3q-24 5 -41 20l-2 2q-14 12 -20 16l-1 1q-11 8 -23 25l-13 22l-1 1q-1 3 -2.5 6.5t-3.5 8t-3 6.5l-1 1l-3 10q-1 5 -5 13v1q-4 10 -11 34v1q-6 26 -7 39
v2q0 8 -1 13q0 3 -0.5 8.5t-0.5 8.5l-3 55q-1 17 1 41q1 10 -1 31q-3 20 -1 60q1 6 1 19q2 26 2 37v11q1 10 0 19v1q-1 21 5 57q0 2 0.5 5.5t0.5 4.5q4 26 25 75v1q6 11 13 19q16 20 25 29q3 6 15 13h2l1 1q2 0 4.5 1t5.5 2t5 2q4 2 11.5 4.5l10.5 3.5q20 6 41 0
q33 -10 64 -30q16 -11 25 -27l2 -4l3 -11q2 -9 -3 -17q-8 -11 -20 -11q-9 0 -14 4q-1 1 -3 2l-2 2l-2 1l-3 4q-8 11 -21 20q-5 4 -13 7l-8 3q-1 1 -2 1t-1.5 0.5t-1.5 0.5l-9 3q-12 4 -22 0h-1l-22 -8h-1v-1l-22 -21q-3 -3 -5 -7v-1q-9 -16 -20 -45v-1q0 -1 -3 -11
q-2 -8 -2 -14q-2 -8 -4 -22v-1q-2 -14 -2 -18v-48v-20q0 -5 -0.5 -14.5t-1 -17.5t-1.5 -15v-19v-10q3 -32 3 -60q0 -53 2 -80l1 -10q4 -45 8 -58l1 -1q3 -10 3 -11q4 -9 10 -27q3 -10 7 -16v-1q2 -7 10 -19q8 -17 26 -28l2 -2q2 -2 4 -3q8 -6 13 -11q6 -6 15 -6h1
q5 -1 15 -1q7 0 29 2v1q10 0 16 10q0 11 -1 16v1q-2 18 -2 29l-3 84h-6v2q-14 2 -20 2h-4h-2q-5 0 -17 2q-8 1 -13.5 8t-5.5 15q0 9 7 18q6 6 13 7q12 4 26 4q3 0 8 -0.5t7 -0.5q1 -1 3 -1q7 0 18 3h4l3 1l3 -1h3q14 0 21 -14l1 -2v-1q0 -1 1 -1q4 -12 1 -20q-2 -7 1 -13v-2
q1 -8 1 -19z" />
    <glyph glyph-name="h" unicode="h" horiz-adv-x="327" 
d="M20 614v14q1 16 1 47q0 4 -0.5 12t-0.5 12v19q0 9 7 18q9 9 19 9q15 0 23 -14q3 -6 3 -17q1 -8 1.5 -17t1 -20t0.5 -17v-27q0 -12 2 -36q1 -10 1 -27v-25v-3q-2 -14 0 -27q5 -43 2 -95v-12h1h3h2l1 1q6 0 18 2q5 0 17 2h13q18 2 29 2h10q13 -1 38 -1h30q-1 23 -1 68
q0 40 -2 116v17q1 26 1 77q0 14 1 22q0 6 2 16q2 14 18 16q4 2 8 2h5l4 -2l6 -4l9 -5v-10q1 -2 1 -7v-2q-1 -14 -1 -43v-15q0 -2 0.5 -6t0.5 -6v-13v-2q-1 -18 1 -46v-12v-13v-21q1 -15 1 -43v-3q-1 -6 -1 -18q1 -17 1 -51q1 -17 1 -51q0 -73 2 -109q2 -42 2 -123
q0 -14 2 -40v-10q0 -31 3 -46q4 -16 -13 -29l-6 -3h-6q-21 0 -26 17q-3 8 -4 16v1q-2 11 -2 30v1q2 19 -1 40l-1 1v2v7q0 2 -0.5 6t-0.5 7q0 5 0.5 13t0.5 13v24v10q-3 39 -3 80q0 21 -1 31v45l-41 3q-32 0 -48 -1q-31 -2 -49 -4h-1l-2 -1h-3q-2 0 -8 -0.5t-9 -0.5v-19
q1 -10 1 -29v-1q0 -5 0.5 -15t0.5 -15v-28v-40q0 -4 0.5 -10.5t0.5 -9.5v-19q0 -19 2 -55v-1q0 -4 0.5 -12t0.5 -11v-22q1 -3 1 -9q1 -3 1 -8t1 -7q4 -21 -16 -32q-6 -3 -12 -3q-19 0 -26 17l-1 3v4v3q-1 2 -1 4l-3 73q-2 47 -1 70v1l1 2v4v2l-1 2q-2 13 -2 37v9v23
q0 3 -0.5 11t-0.5 12v88q-2 18 -2 54q1 16 0 30v1v40q-5 27 -3 60l1 1v3q0 1 -0.5 4t-0.5 5v14q-1 5 -1 14t-1 13z" />
    <glyph glyph-name="i" unicode="i" horiz-adv-x="164" 
d="M113 0h-5h-77l-5 14q-1 1 -1 2l-3 5l-2 4v14l4 4q2 5 5 8l6 6h23q-1 11 -1 35v10.5v13v11.5q-1 8 -1 25q-2 78 -2 120v2q1 11 1 33v30v25v1q0 29 1 42v42v22q-1 7 -1 23q-2 44 3 78q1 6 1 23v34q1 29 0 59h-28l-5 14q-1 1 -1 2l-3 5l-2 4v14l4 4q2 4 5 8l6 6h77
q2 0 4.5 -0.5t3.5 -0.5h1h2l3 -1q22 -7 18 -30q-2 -19 -18 -23q-10 -3 -16 -2v-2q2 -30 2 -47v-1v-20q0 -14 -1 -22q0 -28 -3 -54q-2 -20 0 -58q2 -32 0 -64v-14q2 -47 0 -92q0 -8 -0.5 -26t-0.5 -27q0 -33 2 -95l3 -68v-9v-15v-2v-13q2 0 4.5 -0.5t3.5 -0.5h1h2l3 -1
q22 -7 18 -30q-2 -19 -18 -23q-4 -2 -13 -2z" />
    <glyph glyph-name="j" unicode="j" horiz-adv-x="307" 
d="M42 49q-15 15 -21 40q-3 10 1 20q5 10 15 13q3 1 9 1q16 0 24 -13l2 -4v-4l1 -1q6 -20 28 -34h1q8 -5 22 -10l1 -1h1q2 -2 9 -2q8 0 13 -1q31 -3 59 19h2q7 7 11 16q2 4 4 12t4 12q0 1 0.5 2.5t0.5 2.5q2 7 4 21q3 36 0 71q-1 12 -1 35q-2 32 -2 47q0 10 -1 15q0 21 1 32
q0 9 -1 12v2q-4 47 -4 115q0 52 2 150v22q0 3 0.5 11t0.5 11v21q1 10 1 28v1q0 13 9 19q7 7 16 7q16 0 22 -13q5 -12 5 -22v-1q-1 -12 0 -24q0 -26 -1 -39q1 -18 -1 -50v-27v-3l-1 -1v-1v-2q1 -2 1 -3v-20h-1v-59q0 -56 3 -83q2 -14 2 -42q0 -53 2 -80q0 -15 1 -23
q0 -15 1 -22v-1v-27v-54q0 -18 -5 -35q-4 -13 -7 -25v-1q-11 -33 -38 -53q-25 -17 -49 -24h-1q-14 -3 -29 -3q-11 0 -27 2q-18 1 -44 13l-3 2q-24 12 -42 33z" />
    <glyph glyph-name="k" unicode="k" horiz-adv-x="313" 
d="M291 34q5 -10 -1 -20q-3 -8 -9 -11q-6 -6 -15 -6q-11 0 -19 8l-1 1l-13 18l-21 33l-1 1q-6 12 -18 30q-24 38 -35 57l-22 39q-16 26 -27 49l-13 23v1q-3 4 -7 14v-46l-1 -1v-7v-13q4 -29 4 -65q0 -15 1 -23l2 -11v-1v-36q0 -5 0.5 -17t0.5 -18q0 -8 -2 -13q-1 -8 -10 -15
q-8 -5 -15 -5q-10 0 -17 6t-9 15q-2 6 -2 14q0 2 -0.5 6t-0.5 7q0 19 1 29q0 13 -2 41q-1 5 -1 13v1q0 16 -2 52q0 4 -0.5 13t-0.5 14v25q1 20 -1 51q-1 7 -1 19v2q2 23 0 70v1q-1 4 -1 13q0 4 -0.5 11.5t-1.5 11.5v1q-1 7 -1 20q-1 6 -1 17v2q0 49 -1 73v1q0 22 -2 32
q-2 11 -2 31v49q0 8 -2 28t2 39v1l1 1q5 18 25 18h6q12 -4 16 -13q4 -4 4 -13v-1q-1 -19 0 -38q1 -12 1 -37q0 -30 1 -45l1 -1l3 -82l1 -4v-31q0 -17 1 -25l2 4q5 12 15 29q1 3 5 9l9 18q14 29 17 35q14 28 17 33l7 12l17 33q0 1 1 3l2 4v1q11 17 23 42q0 1 2 4t2 5l21 36v1
h1l4 7q2 4 3 7q2 4 7 9q9 7 18 7q3 0 11 -2q11 -5 14 -14q4 -11 1 -17q-5 -19 -16 -31l-2 -2q-1 -1 -2 -3l-1 -1v-2l-1 -1q-16 -28 -33 -60v-2l-1 -1q-2 -2 -6 -10q-1 -1 -2.5 -5t-3.5 -6q-10 -20 -23 -44v-1l-1 -1v-1q-1 -1 -1 -2q-2 -4 -2 -5q-22 -46 -34 -66l-36 -69
l-1 -1q-6 -9 -16 -28q20 -36 30 -53v-1l1 -1q1 -1 2 -4t2 -5q4 -6 6 -10l21 -42q4 -8 6 -13l12 -20q12 -18 26 -45q9 -15 10 -17l22 -36q10 -14 14 -21q7 -10 18.5 -27.5t15.5 -22.5z" />
    <glyph glyph-name="l" unicode="l" horiz-adv-x="297" 
d="M276 63v-18q2 -8 -1 -15q-5 -12 -17 -17l-4 -2h-5q-6 0 -10 -1q-18 -2 -29 -2q-49 0 -95 -3h-2h-8l-2 -1h-2q-12 -3 -22 -3q-7 0 -10 -1h-2q-3 0 -15 3q-19 7 -19 27q0 15 -1 22v2v37q0 6 -0.5 18t-0.5 19v14q0 2 -0.5 8t-0.5 9q0 26 -1 39q0 6 -0.5 18.5t-0.5 19.5
q0 26 -1 38q0 6 -0.5 19t-0.5 19v9q1 13 -1 41q-2 26 -2 77q0 32 -1 47v21v8v4l1 2v4l-1 2v2q0 18 -1 28q0 5 -0.5 14t-0.5 14v32v14q0 28 1 42v4q0 9 1 15v16l-1 2v5q0 10 7.5 17.5t17.5 7.5q13 0 20 -8l3 -2l1 -3q6 -12 6 -27v-1v-28q0 -28 -1 -43v-1q-2 -18 -1 -31
q2 -22 2 -64v-74q1 -10 1 -28q0 -33 2 -48q1 -6 1 -18q1 -11 1 -34q0 -34 1 -50v-4q-1 -15 1 -48q2 -27 1 -42q0 -4 0.5 -13t0.5 -13v-29q0 -29 2 -42v-21q0 -2 0.5 -5.5t0.5 -5.5q2 0 3 1h5h3q2 1 8 1q4 1 12.5 1.5t12.5 0.5q26 2 42 2q31 0 46 1h1h4l1 1l18 2h14l1 -1h13
v-3h4z" />
    <glyph glyph-name="m" unicode="m" horiz-adv-x="324" 
d="M304 44v-13q0 -12 -9 -21q-8 -8 -20 -8q-5 0 -11 2l-6 3l-2 5q-6 6 -6 15q0 11 -2 39l-3 31v49v11q0 27 -2 39q-1 9 -1 26v7q0 44 -1 64q-1 41 0 81q0 8 -1 11v2q-2 19 -2 56v13q0 24 -1 36v20v15q0 -3 -1.5 -11t-2.5 -12q-6 -32 -16 -63q-15 -46 -21 -74l-1 -1l-2 -10
l-1 -2q-10 -19 -31 -22h-3q-11 0 -19 8q-7 7 -9 16q-3 11 -11 33l-12 37v1l-9 33q0 1 -1 4t-1 5l-9 34q-1 5 -3.5 16t-4.5 17v1q0 1 -1.5 6t-2.5 8v-39v-27v-16.5v-19v-15.5v-24l3 -47q0 -7 1 -23t1 -23q2 -32 2 -47q0 -3 0.5 -9t0.5 -9q2 -40 1 -61q-2 -30 1 -48
q2 -16 2 -44q0 -42 3 -62v-3.5v-3v-3.5v-3q0 -10 -7.5 -17t-17.5 -7q-3 0 -5 1q-10 2 -15 7q-10 10 -10 25v13q-1 4 -1 14q0 36 -3 70q-3 28 -1 68q1 32 -2 85q0 2 -0.5 8t-0.5 9q0 10 -1 15v1l-3 56q-1 18 -1 52v43q-1 15 -1 44v59v3v11v22v18v36v3q2 2 -1 8v4q0 19 3 39
q1 9 8.5 15t18.5 6h6l13 -8l1 -3q5 -5 6 -11q1 -5 8 -23q6 -14 8 -21l15 -43q10 -34 26 -80l1 -4v-2l1 -2v-1l1 -2q2 -13 8 -38.5t7 -29.5q7 -23 8 -28l6 18q4 12 13 57q6 34 20 73q12 37 16 62l9 39q1 6 3 16q2 7 6 17q9 18 29 18q17 0 24 -15l2 -4v-4v-1q1 -2 1 -8
q-1 -28 1 -81q0 -4 0.5 -13t0.5 -14v-1q0 -14 1 -20v-1q1 -9 1 -55v-17q0 -20 1 -29v-1v-36q0 -38 2 -56v-2q0 -15 -1 -22q-1 -24 2 -63v-1q1 -8 1 -25v-24v-1q0 -30 1 -44v-2v-15q1 -16 0 -33q-1 -30 5 -96v-2q0 -6 1 -9z" />
    <glyph glyph-name="n" unicode="n" horiz-adv-x="319" 
d="M294 108q2 -26 2 -38l3 -27v-1q0 -13 -10 -25q-7 -7 -18 -7q-18 0 -23 15l-21 51q-2 4 -4 12q-2 3 -4 9q-8 19 -22 57l-1 2v1q-3 9 -4 11q-10 18 -22 56l-3 10q-1 3 -2.5 9t-2.5 9t-2.5 9.5t-2.5 9.5l-15 39q-18 53 -23 72q-7 25 -13 44q-2 6 -4 11l-1 3q-2 6 -13 40
l-3 12v-16v-72q0 -10 2 -34v-42q1 -5 1 -12v-2q-2 -36 -1 -60v-1q0 -16 -1 -25q0 -19 -2 -53q0 -10 2 -34v-1q1 -9 1 -27v-26v-1q0 -16 1 -24q2 -16 2 -28q0 -11 -8 -21l-2 -1l-1 -2q-10 -4 -15 -4q-22 0 -24 22q0 1 -1 3.5t-1 3.5q-6 32 -5 51l1 1q1 16 -1 46q0 8 -1 12
q-2 56 2 80v12q0 1 -0.5 4t-0.5 5q0 28 1 43v65l-3 42v17l1 2v12v26q0 29 -1 42l-1 1v20v12q-4 19 -4 41q0 9 -1 14q-4 89 -5 119q0 2 0.5 6t0.5 5v5v5l3 4q6 14 23 14q7 0 10 -2q14 -7 18 -19q16 -38 19 -53v-1q4 -18 7 -28v-1q7 -27 19 -67v-1l22 -78q5 -18 15 -51t14 -47
h1q4 -15 11 -35q1 -4 3.5 -12t3.5 -12l3 -7q6 -15 7 -19l1 -3q9 -17 11 -29q10 -40 23 -69l3 -9q0 22 1 33v7l-3 72v1q0 13 -2 41v1q0 7 2 12q1 24 -1 73q-1 7 -1 22v10q-3 17 -3 49v9v50q0 3 -0.5 7.5t-0.5 6.5q-1 5 -1 14q0 35 -1 52v45q0 13 5 26q5 16 24 16q14 0 21 -13
q4 -5 4 -14v-1v-31v-16q1 -12 1 -34q0 -6 -1 -9h1v-19q1 -17 1 -49q1 -16 1 -48v-1q0 -3 0.5 -11t0.5 -12q1 -8 1 -24q2 -40 2 -59q0 -25 -1 -38q0 -10 1 -16v-13q4 -26 2 -56q0 -4 0.5 -11.5t0.5 -12.5v-26v-1q-2 -43 0 -84q2 -26 2 -38z" />
    <glyph glyph-name="o" unicode="o" horiz-adv-x="291" 
d="M83 20l-1 1q-18 11 -26 28q-19 40 -23 69l-2 17q-2 10 -2 15q-4 15 -4 43q0 25 2 75v2v13q0 31 -1 37q-1 9 -1 28v2q2 20 0 44q0 5 -0.5 15t-0.5 15v22q-1 11 -1 36q0 10 -2 36q-2 23 2 57v1l7 43q4 29 15 51l1 1q23 42 65 60q6 3 16 5h3l2 1h1q8 2 13 2q10 0 18 -3
q24 -6 47 -18q26 -14 39 -43v-1q14 -41 16 -83v-1v-2v-1q0 -2 0.5 -6.5t0.5 -7.5q2 -30 1 -46v-2v-8q1 -3 1 -11v-21q2 -21 0 -44q0 -29 1 -44q2 -64 -1 -106q0 -20 1 -30v-1q2 -30 0 -59v-28v-12q-1 -3 -1 -8v-3q-1 -5 -1 -15q2 -36 -21 -77q-7 -11 -23 -27q-2 -1 -6 -5
q-5 -6 -19 -14v-1h-1l-12 -4l-1 -1q-16 -6 -48 -6q-17 0 -31 8q-4 3 -23 12zM187 671l-1 1l-34 11l-1 1q-2 1 -6 1q-2 0 -4 -1h-1l-1 -1q-16 -3 -34 -19l-2 -3q-17 -23 -18 -40q-2 -14 -4 -23q-4 -18 -4 -25v-3l-1 -3q-3 -10 -3 -32v-7q0 -2 0.5 -8t0.5 -9q2 -21 1 -34v-2
q0 -5 0.5 -14t1.5 -14v-14v-62q2 -12 0 -23v-9q2 -12 2 -36q1 -6 1 -18v-1q0 -7 1 -10v-12v-5q-1 -1 0 -2l1 -6l-2 -4l1 -1v-7q-2 -26 -2 -37v-4l-1 -3v-4v-4v-5q0 -9 1 -12v-1l1 -2q1 -6 4 -27v-3q3 -24 8 -36l9 -21q1 -4 8 -11q6 -4 27 -15h2q20 0 28 2q10 3 19 12v1
q14 12 15 14l9 19q6 15 6 30v1q1 9 1 28q2 36 2 55q0 34 -1 52q-1 19 0 38q1 10 1 58v20v3v2q-1 2 -1 3q-3 17 -1 48q1 10 1 29v30v3q-4 17 -2 45v2l1 1q0 12 -2 20v2q-2 18 -2 25q-1 30 -9 51l-1 1v1q-3 13 -12 20z" />
    <glyph glyph-name="p" unicode="p" horiz-adv-x="313" 
d="M21 605v35q-1 17 -1 49v23q0 11 7 18q9 9 18 9h4l3 -1q2 -1 10 -1h5h6h1q42 -1 76 -23h1q6 -4 28 -19h1q8 -6 11 -9l19 -13h1q12 -8 29 -25q20 -22 27 -31q9 -11 18 -33l1 -2q11 -24 6 -54v-2l-3 -13q-11 -34 -35 -77q-13 -20 -27 -33h-1l-21 -16q-22 -22 -59 -28
q-14 -1 -30 -6h-2q-7 -2 -21 -2q-9 0 -14 1v-10q1 -2 1 -6t1 -6q1 -8 1 -26q2 -40 2 -61v-11q0 -27 2 -40v-1q3 -16 0 -30v-1q0 -4 -1 -7q0 -5 -1 -8q0 -8 2 -24v-1q8 -44 5 -93v-2q0 -21 -22 -25h-4q-10 0 -18 7t-8 17v4v12q0 28 -5 58q-5 25 -2 53v1v33q-2 31 -2 84v23
q-4 40 -4 59l-1 1v27l1 1q1 27 0 55q-3 15 -3 46v1v86q0 6 -0.5 18.5t-1.5 18.5zM121 669l-1 1q-14 9 -25 10l-1 1l-22 3v-33q0 -1 0.5 -4t0.5 -5v-12q2 -22 2 -35q0 -63 2 -94q3 -11 0 -23v-1q0 -1 -0.5 -5t-0.5 -6q2 -24 4 -40v-3v-9v-10q6 0 9 -1q8 0 11 1q37 7 48 10
t21 11l1 1l12 10q2 2 7 6t7 6q8 8 15 19v1q11 16 24 52q1 4 5 12q1 7 0 16q-7 29 -24 46h-1l-13 16q-11 11 -26 22q-3 2 -8.5 5.5t-7.5 5.5q-6 4 -19 13t-20 13z" />
    <glyph glyph-name="q" unicode="q" horiz-adv-x="291" 
d="M259 56q12 -10 12 -25v-4l-1 -3q-4 -12 -14 -17l-4 -2h-5q-11 0 -15 4l-2 1l-9 7l-9 9q-7 -5 -14 -9l-7 -3l-2 -1l-4 -2q-16 -6 -48 -6q-15 0 -31 8l-24 13l-1 1q-18 10 -25 28q-18 34 -23 69l-3 16q0 6 -2 16q-3 15 -3 43q0 22 2 76v13q0 25 -1 37q-1 10 -1 28v1v45
q-1 10 -1 31q0 3 -0.5 10.5t-0.5 11.5v35q0 11 -2 37q-2 20 2 55v2q2 14 4 22l3 20q3 27 15 52q22 40 65 62q8 4 17 4q4 0 4 1h1q10 2 13 2t18 -3q22 -6 48 -17l1 -1q26 -15 37 -44q14 -35 16 -78v-1l1 -7q0 -10 1 -15q2 -30 1 -46v-2v-8q0 -1 0.5 -4.5t0.5 -5.5v-22v-44
q0 -29 1 -43v-1q2 -64 -1 -106q-1 -9 1 -30v-1v-59v-28q0 -8 -1 -11v-8v-4q-2 -8 -1 -11v-3q0 -39 -21 -75q4 -4 12 -10zM182 134l6 -6l7 -7l14 -14q6 15 6 28q0 5 0.5 14.5t0.5 14.5q2 36 2 55q0 35 -1 51q-1 20 0 39t1 58v20v2q-1 2 -1 6q-3 17 -1 49v29q0 19 1 29l-1 3
q-3 19 -1 44q0 15 -1 25q-2 16 -2 26q-1 29 -10 52v1q-5 12 -13 22q-1 0 -2 1q-32 12 -35 13t-7 1t-6 -1q-17 -4 -35 -21v-1q-1 -1 -1 -2q-16 -21 -18 -39q-1 -4 -2.5 -11.5t-1.5 -9.5q-4 -20 -4 -27v-4l-1 -3q-3 -7 -3 -24v-14q0 -11 1 -17q2 -22 0 -34l1 -3q1 -9 1 -27
q0 -10 1 -15v-1q0 -40 1 -60v-1q0 -11 -1 -17v-13q2 -26 2 -37q0 -12 1 -18v-1v-9q1 -4 1 -12v-3l-1 -2v-2l1 -5l-1 -6l1 -3v-4q-2 -26 -2 -37v-4l-2 -4v-4l1 -2v-2v-6q0 -8 1 -10v-1q4 -12 4 -26q0 -5 1 -7q4 -28 8 -36l1 -1v-1l3 -7q2 -7 4 -11q4 -8 8 -11q11 -8 28 -15h1
h1q19 0 28 2q8 3 10 4q-11 13 -27 27l-6 6v9q0 5 1 7v8l19 12h4l3 1h4h8z" />
    <glyph glyph-name="r" unicode="r" horiz-adv-x="313" 
d="M271 67l11 -17q4 -6 7 -9q10 -17 -3 -34l-2 -2q-8 -8 -19 -8q-7 0 -14 5l-7 5l-2 4l-11 16v1h-1q-16 31 -51 85q-5 8 -6 12q-4 7 -12 20.5t-12 20.5l-8 14l-2.5 5t-2.5 4l-1 1q-11 22 -46 82q-6 10 -9 14v-15q-1 -13 0 -27v-12q-1 -8 1 -26v-2v-11v-24q0 -16 2 -48v-4
q0 -8 1 -13q0 -2 0.5 -8t0.5 -9v-49q2 -17 -13 -27l-2 -1l-3 -1q-3 -1 -8 -1q-17 0 -23 13l-2 6q-2 12 -2 20q-2 48 -2 66q-1 6 -1 15q-2 20 -1 32v11q0 24 -1 34q-1 8 -1 21v41q1 13 1 40q0 12 -1 18q0 29 -3 57v11q1 13 0 30q-1 3 -1 10v42q0 18 -1 26v28q0 51 3 77
q2 25 -1 37q-3 16 -3 46v3q1 5 1 19q0 10 7.5 17.5t17.5 7.5h6q6 0 9 -2q11 -4 35 -8q2 0 5 -0.5t4 -0.5q16 -2 24 -5h2l15 -8l52 -30q27 -20 35 -29l13 -19q15 -19 24 -47q8 -18 6 -36v-3h1v-20v-6v-5v-3q2 -25 -11 -50v-2l-15 -28q-17 -30 -49 -47q-30 -17 -64 -28h-1
l-1 -1q-20 -4 -31 -5h-3q5 -7 12.5 -19.5t9.5 -15.5q8 -15 17 -28v-1q22 -36 46 -82l3 -6q6 -9 11 -19q11 -15 18 -30l1 -1q8 -17 17 -29q5 -6 9 -15q1 -1 3 -5t4 -6q8 -15 17 -28h1v-1zM224 513v20v9q0 10 -4 22v1q-6 21 -22 45q-6 11 -17 17l-1 1q-10 8 -29 17l-27 16
q-10 7 -21 9l-30 6q0 -2 0.5 -5.5t0.5 -4.5v-1q6 -22 4 -46q0 -26 -2 -40q-3 -20 -1 -51v-1q2 -27 0 -45q1 -2 1 -7q2 -47 1 -74l11 2q5 0 19 2l11 2q23 6 63 28q9 6 16 13q7 8 21 35q6 15 6 30z" />
    <glyph glyph-name="s" unicode="s" horiz-adv-x="308" 
d="M21 492v10q-2 44 1 67l1 3v1q0 18 8 48q0 3 2 9v1q6 26 29 63q5 9 15 17q28 25 56 31l1 1h2q12 2 17 2q20 0 30 -1q4 0 16 -3q52 -18 81 -52l2 -2q6 -9 6 -21v-6l-6 -10l-2 -1q-7 -7 -16 -7q-7 0 -14 5q-8 6 -11 11q-6 6 -13 10h-1l-1 1q-17 13 -30 17l-1 1q-12 5 -18 5
q-1 0 -3 -0.5t-3 -0.5t-3 0.5t-3 0.5h-4h-2h-2q-9 0 -19 -5q-23 -9 -36 -33q-12 -21 -17 -43v-1q-2 -7 -4 -21l-2 -11l-3 -27q-2 -27 0 -40q0 -2 0.5 -6.5t1.5 -6.5q0 -10 3 -19q2 -2 2 -5l5 -9q2 -3 7 -9.5t7 -9.5l1 -1q10 -12 22 -17l22 -9q11 -7 20 -9q1 0 1 -1
q10 -3 12 -5q29 -16 34 -19v-1q55 -36 68 -99q2 -10 4 -26v-1q0 -3 1 -9t1 -9q2 -26 1 -40l-3 -47q0 -30 -13 -63q-15 -37 -40 -55v-1h-1q-26 -16 -42 -20l-24 -5q-10 -3 -21 -3q-12 0 -18 1l-1 1h-3q-1 0 -4 0.5t-4 0.5q-26 6 -43 20l-2 2q-17 16 -26 25l-10 12
q-11 12 -9 26q2 13 13 23q6 6 15 6q17 0 20 -15q2 -5 13 -19q11 -12 24 -22l7 -3h2q11 -5 26 -5q13 0 25 4l23 8q2 2 8 6h1q15 11 20 28v1l1 1q11 26 11 66v27q2 35 -2 53v4q0 1 -0.5 3.5t-0.5 4.5q-3 25 -24 54q-15 19 -54 38h-1q-10 5 -48 21l-1 1q-20 9 -36 25l-1 1
l-19 23q-13 17 -16 35q-1 1 -1 2q-1 2 -1 3q-2 4 -2 8l-1 1v2q-3 9 -3 13z" />
    <glyph glyph-name="t" unicode="t" horiz-adv-x="289" 
d="M166 59q0 -8 2 -20q3 -16 -5 -26q-3 -4 -16 -11l-5 -2h-4q-20 0 -23 19q-3 9 -3 26l-3 80q0 14 1 22q3 22 1 59q-1 17 -1 53q0 34 -1 55v1q0 48 -1 73v1q0 3 0.5 7t0.5 6v11v22q-2 73 1 111v23v4q0 12 1 15v1q1 6 -1 22v1q-1 16 0 31v13v1q2 13 0 27q-17 0 -26 -1h-1h-11
q-19 0 -29 2q-10 1 -16.5 9t-6.5 19v5l2 4q8 16 24 16h6q5 -1 15 -1q14 0 22 1q7 1 23 1h10h9h24h11q4 1 13 1h58q2 0 5 -0.5t4 -0.5h4l4 -2q15 -8 15 -24q0 -17 -15 -25q-6 -3 -15 -3q-7 -1 -21 -1t-21 1h-34q1 -18 0 -40v-1v-13v-9q0 -2 1 -4v-8v-28q-1 -8 -1 -25
q1 -12 -1 -32l-1 -10v-31v-15q1 -17 1 -51v-94q0 -11 1 -17v-21v-4v-2v-5q1 -12 1 -35q0 -28 1 -43t-1 -47v-1q0 -23 1 -35v-26v-17q1 -4 1 -12z" />
    <glyph glyph-name="u" unicode="u" horiz-adv-x="310" 
d="M288 199v-3q3 -24 -1 -71v-1q0 -22 -6 -44v-2q-6 -21 -16 -33l-2 -2l-1 -2l-3 -3l-2 -3l-1 -1q-16 -20 -44 -28q-21 -6 -39 -6h-14q-6 -1 -18 -1q-27 0 -49 14l-1 1q-23 17 -35 32l-1 1q-19 28 -23 50q0 4 -2 10q-3 10 -7 32v1v4q-4 14 0 29v9q-1 4 -1 21q1 3 1 8v1
q1 18 1 53v1q0 8 0.5 24.5t0.5 25.5q0 33 1 50v17q0 4 -1 12t-1 12v16v18q-1 17 1 53v2q1 8 1 25q-1 7 -1 21q0 4 -0.5 11t-0.5 10q-1 8 -1 23q0 4 -0.5 11t-0.5 11q-3 21 -1 53v1q3 24 3 48q0 6 1 7v7l6 6q8 8 20 8h5q20 -4 20 -24v-11v-25v-13q0 -18 -2 -28v-2l3 -75
q0 -2 0.5 -7t0.5 -8l1 -3q3 -30 0 -62v-1q-2 -10 -2 -17v-47l1 -3q4 -24 2 -54v-16v-24q-3 -26 -3 -52q1 -21 -1 -63v-41q0 -28 11 -61q9 -24 35 -43q6 -3 7 -3q3 1 8 1q8 0 14 -2l4 -1h19h4q10 0 23 5q3 0 4 1l4 2q5 7 15 19q4 8 5 15q5 18 5 68v16q-2 40 -1 62q2 26 0 50
v5q1 8 1 51q-1 9 -1 27v25q1 8 1 23v1q2 39 1 58q-4 47 -1 90v10q-2 21 0 58v1q2 26 2 37q0 3 0.5 10t0.5 10q0 8 2 18q3 19 23 19q6 0 12 -3l3 -2l2 -2q7 -7 8 -14q2 -10 2 -16v-11q0 -39 -3 -60q-2 -17 1 -27v-2q1 -15 0 -30q-3 -24 0 -48v-1q2 -46 2 -65q0 -29 -2 -43
q-1 -4 -1 -25v-10q0 -10 2 -34l1 -12v-1q-1 -13 -1 -39q0 -27 -1 -41v-1q-1 -12 0 -22q2 -6 2 -18q0 -6 -1 -8z" />
    <glyph glyph-name="v" unicode="v" horiz-adv-x="300" 
d="M20 718h1q0 5 5 12q7 9 22 9q16 0 23 -15q2 -4 2 -11l6 -36q3 -10 7 -37q2 -8 2 -13v-1q0 -15 3 -30q1 -3 1 -8t1 -7q3 -24 9 -50q8 -36 11 -78l3 -21l9 -52q10 -41 13 -65l3 -16q2 -7 4 -19v-1q4 -35 14 -85q0 4 2 10v1q2 10 4 34v1q0 4 6 29q6 30 6 46v10l1 2
q1 6 2.5 18.5t2.5 17.5q1 19 6 40v1q2 10 4 32l3 25q2 16 2 23v2q3 20 7 62q2 23 7 41l3 16q6 35 7 48v1h1q1 6 2 16t2 16v1q0 5 1 10.5t2.5 11.5l2.5 10l1 8l15 10h6q15 0 22 -14l2 -4v-5q0 -5 1 -7v-17v-9q-2 -22 -4 -33l-15 -92q-2 -10 -2 -12v-1q-2 -30 -6 -55
q0 -5 -2 -17q-2 -14 -2 -20l-3 -22q-2 -20 -4 -31l-3 -22q-1 -14 -5 -37q-4 -27 -5 -42q0 -11 -4 -29q0 -1 -0.5 -3t-0.5 -3q-4 -16 -5 -32l-3 -18l-2 -14v-2q-3 -15 -7 -49v-1q-5 -24 -6 -49t-5 -59v-2l-5 -18v-1q-5 -17 -26 -17q-7 0 -13 3h-1l-1 1l-1 1q-13 9 -15 22
q-4 22 -7 34l-2 15q-5 17 -11 56l-3 16q-2 12 -12 70l-1 1l-3 20l-1 7q-2 24 -8 62l-6 26q-1 4 -2.5 10.5t-1.5 9.5l-3 11q0 4 -2 10v2l-8 46q-2 11 -4 33q0 2 -0.5 7t-1.5 7q0 6 -1 9q0 9 -1 13q-2 8 -7 32l-3 21v1q-4 16 -8 52q-2 26 -5 39z" />
    <glyph glyph-name="w" unicode="w" horiz-adv-x="304" 
d="M258 739q19 0 24 -18q2 -5 2 -12q0 -21 -2 -33q-2 -13 -2 -41v-80v-8q-1 -1 -1 -4v-1q-2 -24 -2 -35v-16q-1 -5 -1 -15q-1 -24 -1 -72q0 -5 1 -7v-3q3 -34 -2 -77v-8v-14q1 -15 0 -29v-1q-1 -4 -1 -13q0 -29 -2 -45v-6v-50q0 -5 -0.5 -16t-0.5 -17q0 -14 -1 -22
q-2 -13 0 -41q4 -12 -1 -29q-2 -2 -2 -5q-1 -9 -9 -15.5t-17 -6.5q-18 0 -25 17q-2 2 -2 4q0 1 -3 7t-4 10q-5 13 -6 23q-1 2 -2.5 7.5t-2.5 8.5l-15 59q-3 9 -3 14q-2 18 -10 54q-1 5 -2.5 13t-1.5 12q-1 1 -1 3t-1 3l-3 15q-4 -16 -5 -24v-1q-1 -10 -6 -26v-1
q-8 -25 -12 -54v-1q-1 -2 -1 -5t-1 -4q-3 -15 -9 -34v-1q-4 -12 -5 -22v-1l-7 -43q-3 -16 -16 -24q-8 -5 -16 -5q-6 0 -12 3q-12 4 -14 16q-6 15 -4 33q0 7 -0.5 14t-1.5 16t-1 14l-1 3q-2 22 -2 32q0 37 -4 121v2q-2 30 -4 90q0 11 -1 16q0 3 -0.5 9t-0.5 9q-2 28 -2 42v1
q1 49 -3 98q-1 11 -1 31v10q-3 12 -3 35v7v19q-1 7 -1 21q0 6 -2 22q0 9 -2 27v1q0 7 1 10v7q0 11 7.5 17.5t17.5 6.5q18 0 23 -17l1 -1v-2q2 -10 2 -18q1 -21 5 -54v-1q2 -29 1 -42v-14q1 -4 1 -11q2 -14 4 -42l1 -2v-5q0 -25 1 -38v-39q1 -7 1 -21q0 -3 0.5 -10t0.5 -10
v-2q0 -18 2 -60v-4q0 -4 1 -6v-9v-2q2 -20 2 -28q0 -13 2 -41q0 -3 0.5 -9t0.5 -10q1 -7 1 -21v-2q4 19 5 25v1q1 6 3.5 16l3.5 14q0 1 1 3t1 3v1l6 22q5 32 13 59q5 22 26 22q3 0 4 -1q15 0 22 -15l1 -1v-2q1 -4 3.5 -10.5t3.5 -9.5q10 -28 12 -45v-1q1 -3 5 -21q1 -1 1 -4
h1q6 -20 8 -35l3 -17v3l1 8v55q0 15 2 51v2q0 12 1 17q0 28 -1 33v1q-1 14 -1 39q0 2 0.5 6t0.5 5v7q0 21 3 32q0 5 -1 7v7v28q4 56 4 138q0 31 4 47v1l1 2v2q0 6 1 9v3l1 2q8 15 23 15z" />
    <glyph glyph-name="x" unicode="x" horiz-adv-x="302" 
d="M249 9l-5 5q-4 2 -7 5t-7 11l-1 1v2l-15 35v1l-1 1l-1 1l-1 5q-3 11 -7 20q-1 1 -1.5 3t-1.5 4l-2 4q-6 17 -9 33l-3 9q-10 42 -18 56q-4 13 -5 17q-3 10 -9.5 31.5t-8.5 27.5l-3 -11q-1 -1 -1 -3.5t-1 -3.5q-8 -20 -23 -79l-6 -20q-1 -6 -5 -18t-5 -18l-1 -2v-1
q-5 -14 -11 -42q0 -3 -2 -13q-3 -17 -9 -37q-1 -1 -1 -5q-1 -2 -1 -6l-1 -1v-1q-4 -14 -20 -19q-3 -1 -7 -1q-11 0 -19 7.5t-8 18.5q0 9 4 15q8 24 12 54v1q2 12 9 35q1 6 4.5 18t5.5 18l15 54l1 4q3 14 11 36q9 24 20 69v1q1 4 13 48v1q1 4 0 9q-1 2 -25 78v1l-6 24l-3 10
q-1 4 -4 12.5t-4 12.5q-11 25 -19 57q-1 3 -2.5 9.5t-2.5 9.5l-15 53l-3 9q-1 4 -3 10l-10 31v3q0 9 7 16q6 9 19 9q5 0 11 -3h8l4 -13q5 -14 5 -16q12 -32 16 -49q5 -23 16 -59q3 -9 14 -41q5 -12 11.5 -35t9.5 -31q1 -2 1 -5t1 -4l3 -9q0 2 1 5t1.5 5.5t0.5 4.5h1
q1 4 2.5 10.5t1.5 7.5q2 5 4 11q1 3 2.5 8.5t1.5 7.5q7 23 8 28q6 32 20 72q2 5 13 41l3 10q5 18 17 45q7 14 21 14q4 0 12 -4q13 -7 13 -22v-4q0 -6 -3 -12q-4 -16 -11 -37q-9 -33 -13 -43q-4 -12 -16 -52q-2 -5 -4 -16t-4 -17l-1 -7l-1 -1l-9 -34q-1 -3 -3 -11t-3 -11
q-2 -10 -7.5 -26.5t-5.5 -18.5l-6 -19v-1l-9 -23q0 -1 1 -1q0 -1 1 -2q0 -2 2 -8q5 -16 6 -21q1 -8 8 -32q1 -1 1.5 -3.5t0.5 -3.5q2 -4 3.5 -9t3 -11.5t2.5 -9.5q2 -9 8 -27l3.5 -10.5t4.5 -11.5q6 -16 8 -23t7 -29q1 -3 2 -6.5t2 -8t2 -6.5q3 -14 8 -27l20 -52q1 -4 5 -12
l6 -13q2 -3 2 -7l2 -3v-5q0 -21 -22 -26z" />
    <glyph glyph-name="y" unicode="y" horiz-adv-x="294" 
d="M235 552v-2q-5 -25 -12 -39q-11 -25 -21 -58v-2l-24 -76l-21 -67l-1 -1v-2v-3q-3 -15 -13 -45l-2 -4q-1 -1 -1 -3l-1 -4q-1 -1 -1 -2q-1 -2 -1 -3l-6 -25q-6 -23 -6 -25q-7 -27 -22 -69v-1q-11 -28 -16 -47q-1 -4 -2.5 -9.5t-1.5 -8.5q-6 -21 -7 -28q-4 -22 -26 -26
q-1 -1 -5 -1q-11 0 -19 10q-6 7 -6 16q0 8 3 13q3 6 7 22q0 3 2 9q6 31 20 67q16 45 20 65l12 43q0 3 2 7q4 16 11 37l4 12q4 17 23 79l-1 3v5q0 1 -2 7q0 1 -1 2.5t-1.5 3t-0.5 3.5q-2 6 -4 16q-2 4 -4 12q-7 15 -11 28v1l-8 26q-9 26 -9 28l-30 97l-3 8l-2.5 7.5t-2.5 8.5
t-1 8q-5 19 -12 34l-7 22l-1 3v2q0 1 -0.5 3t-0.5 4v12l6 5q4 5 10 8l4 2h5q15 0 23 -13l1 -1v-1q1 -3 3.5 -10t3.5 -11q12 -33 14 -44q7 -26 21 -65l6 -22q2 -5 4.5 -13.5t3.5 -11.5q8 -24 11 -37q7 -12 10 -27q1 -2 4 -11l18 48q8 17 9 31l1 1l4 23v1l4 13q13 38 25 85v1
l9 28q4 15 17 22l4 2h8q12 0 19 -10l4 -4v-6q1 -6 -1 -12q0 -1 -0.5 -3.5t-1.5 -3.5q0 -1 -0.5 -3t-0.5 -3l-1 -1v-1l-1 -4q-7 -19 -8 -31v-1l-9 -31v-1l-6 -19q-1 -2 -2.5 -7t-2.5 -8q-4 -14 -5 -27z" />
    <glyph glyph-name="z" unicode="z" horiz-adv-x="292" 
d="M198 -3h-6q-10 2 -13 2h-2q-22 2 -34 2q-4 0 -12 -0.5t-12 -0.5q-22 -1 -44 0h-2h-3h-5h-7h-14q-12 0 -20 10q-6 8 -4 19q0 7 6 13q2 3 5 14l3 13q2 6 2 8v3q2 4 2 8q1 3 5 18t7 23q2 12 4 15q2 7 7 29v1l3 10q5 20 14 46q2 7 4 17v1q7 27 13 41q4 11 8 29q1 10 5 23
l6 25q9 31 16 52q1 4 5 14q13 42 14 47v1q2 7 7 28q1 4 3.5 13.5t3.5 15.5q1 1 1 3q5 20 7 26q15 51 20 66q4 10 10 32q2 10 4 15l-7 1h-1h-6h-7h-8q-20 -2 -28 -2q-10 0 -28 2q-10 1 -31 1q-14 0 -22 1q-7 0 -21 2l-6 1l-4 5q-9 6 -9 19v8l5 5q2 4 10 9q6 3 15 3h17
q24 0 37 -1q13 0 19 -1h17q32 1 93 1q8 0 12 -3q17 -7 17 -25v-8l-2 -2l-2 -4q-5 -9 -10 -29q-1 -2 -2 -7t-2 -8q-1 -1 -1 -3t-1 -3q-2 -12 -5 -17q-15 -43 -28 -97q0 -1 -1.5 -6t-2.5 -8q0 -2 -2 -8q-3 -15 -11 -47q-3 -12 -14 -45q-2 -4 -2 -7l-2 -5q-10 -28 -13 -42v-1
q-12 -46 -17 -68v-1l-4 -12v-1q-5 -11 -10 -30l-6 -21l-1 -3q-2 -11 -10 -35h-1q-2 -15 -10 -41q-1 -3 -3 -9.5t-3.5 -11.5t-2.5 -9v-1l-15 -62l10 -1q3 0 4 1q9 1 23 1q8 0 12 1h11q17 0 26 -1q12 -2 37 -2q6 -1 19 -1q16 0 25 -3h2l2 -1q16 -9 16 -26v-5l-2 -4
q-5 -12 -16 -15l-3 -1h-1l-4 -1q-1 0 -2.5 0.5t-2.5 0.5h-20q-8 1 -23 1z" />
    <glyph glyph-name="braceleft" unicode="{" horiz-adv-x="143" 
d="M27 430l1 3q4 6 4 10q2 26 2 40q0 30 -1 45v49v22q0 53 -1 64q-1 17 5 36q8 20 22 28l1 1q13 7 29 7q8 0 12 -1q11 -1 19 -14q4 -6 3 -17v-7l-6 -6q-1 0 -3.5 -2.5t-4.5 -3.5q-6 -3 -11 -3q-7 0 -10 2l-1 -1h-1l-2 -5v-18q0 -31 1 -46v-2q0 -13 -1 -19v-26v-14
q1 -28 1 -86q0 -31 -9 -55q8 -20 5 -37v-7q2 -17 0 -32v-16v-9q-2 -7 -2 -25q0 -3 -0.5 -8t-0.5 -7v-2q-2 -14 -2 -45v-13q0 -20 -1 -30v-9q0 -7 1 -12v-23q-1 -10 -1 -32q0 -27 4 -46v-2v-1l1 -1h1l1 -1l7 -2h1q10 -1 17 -13q2 -5 2 -13q0 -22 -21 -24q-3 -1 -10 -1
q-20 0 -34 13t-17 34q0 2 -0.5 5.5t-0.5 4.5q0 5 -1 7v1q0 3 -0.5 8t-0.5 7q0 8 -1 12v11q2 21 0 64v2q1 7 1 23q0 4 0.5 12t0.5 12v9v21q2 43 4 67q2 33 1 48v14q0 10 -2 14l-2 2v2l-2 2l-2 4q-3 11 0 21l1 1v1l2 3q0 1 1 3z" />
    <glyph glyph-name="bar" unicode="|" horiz-adv-x="99" 
d="M75 711v-2q4 -22 4 -35v-3v-11q0 -9 -1 -14q0 -68 -1 -102q0 -39 -2 -125v-55q0 -44 -1 -65q-2 -85 -2 -374q0 -10 1 -15v-14q0 -14 -12 -20q-8 -5 -15 -5q-3 0 -4 1q-14 2 -19 15q-3 6 -3 13q1 26 1 78q2 64 2 98q1 156 1 229v77h1v8v34q2 32 2 99v107q1 23 1 69
q0 13 5 21l6 9h6q1 0 4 0.5t4 0.5q20 0 22 -19z" />
    <glyph glyph-name="braceright" unicode="}" horiz-adv-x="144" 
d="M117 333q3 -5 3 -7q8 -14 0 -27l-3 -4v-1l-1 -2q-2 -3 -4 -13q-3 -19 -3 -39q1 -15 1 -47q0 -15 1 -23v-25q-2 -42 0 -85q1 -17 -4 -36q-6 -21 -25 -30q-16 -7 -28 -7q-4 0 -12 2q-5 1 -16 9l-6 6v8q0 7 2 12q3 9 9 12l5 5h16l4 -1q1 1 3 1v3v1l1 2v15q-1 16 -1 48v5v16
q2 18 0 38v1v43q-1 14 -1 42q0 34 10 57q-7 19 -6 36l1 3l-1 2v2v33v14q0 7 2 11q0 3 0.5 8.5t0.5 8.5q0 15 1 23q3 18 1 43v16q0 10 1 15v14v9v12v24v34q1 13 -3 45q0 2 -2 4h-2q0 1 -2 1q-4 0 -6 1l-4 2q-15 7 -15 23v4l1 3q6 17 20 19q3 1 10 1q19 0 33.5 -13t18.5 -34
v-4q0 -4 1 -6v-9q1 -5 1 -14q0 -2 0.5 -6t0.5 -6v-12q-2 -21 0 -42v-22v-25q-1 -8 -1 -24v-29q0 -11 -2 -33q0 -12 -2 -34v-1q0 -7 -1 -11v-35v-3q0 -9 -1 -14q0 -8 4 -13z" />
    <glyph glyph-name="asciitilde" unicode="~" horiz-adv-x="414" 
d="M371 312q15 -3 21 -17q3 -7 0 -21q0 -2 -1.5 -4.5t-3 -4t-1.5 -2.5l-2 -2l-2 -1q-17 -10 -20 -11q-16 -11 -37 -22v-2l-9 -4l-3 -2h-1q-19 -8 -42 -8q-20 0 -35 5q-2 1 -11 4q-40 14 -59 28l-1 1l-12 5l-4 2q-3 1 -5 2q-8 2 -11 2q-6 0 -18 -5h-1q-17 -7 -28 -18l-21 -18
q-6 -6 -16 -6q-9 0 -17 6l-1 1l-2 1q-15 15 -4 33q1 1 2.5 3.5t3.5 4.5q21 22 52 42l1 1q25 13 53 13h2q34 -2 56 -17q20 -14 59 -27l4 -1q15 -6 31 0q21 9 28 14l34 22l2 1q9 3 13 3q1 0 3 -0.5t3 -0.5z" />
    <glyph glyph-name="uni007F" 
 />
    <glyph glyph-name="exclamdown" unicode="&#xa1;" horiz-adv-x="286" 
d="M82 296h119l25 -476h-169zM228 463q0 -41 -22 -62t-64 -21q-41 0 -63 21.5t-22 61.5t23 61.5t62 21.5q41 0 63.5 -21.5t22.5 -61.5z" />
    <glyph glyph-name="cent" unicode="&#xa2;" horiz-adv-x="304" 
d="M253 434l1 -1q10 -9 24 -25q6 -6 6 -16v-4q0 -14 -14 -19q-6 -2 -9 -2t-11 2q-6 3 -10 7q-6 5 -16 15q-14 15 -41 20l-1 -8q-1 -13 -1 -38v-32q0 -19 -2 -29q-3 -10 -1 -34v-2v-10q2 -11 0 -22q-1 -12 -1 -33q0 -51 1 -77q8 1 30 9q1 1 3.5 2.5t3.5 2.5l11 9q10 8 14 11
l2 1l1 1q5 3 13 4q1 1 4 1q10 0 17 -7t7 -17q0 -15 -9 -23l-1 -1l-12 -9q-5 -5 -11 -9q-4 -2 -5 -3l-1 -1h-1l-3 -3q-12 -10 -19 -12q-2 0 -6 -2q-26 -7 -39 -8v-21q-1 -8 -1 -23q0 -16 -14 -25q-6 -3 -12 -3q-16 0 -21 14q-3 6 -3 13v45q-12 0 -25 8q-19 10 -34 23
q-9 7 -16 18v1h-1q-14 31 -24 66l-1 3v2q0 1 -0.5 3.5t-0.5 4.5v5q-4 22 -4 60v11q2 10 0 16v1q-1 15 3 37v2q4 31 23 72q8 19 27 35q3 3 9 7q2 2 3 2l3 3l4 1l11 3q2 0 6 1.5t7 2.5q9 3 17 3q1 15 1 45q0 4 3 13q5 18 23 18q5 0 7 -1q11 -2 17 -15l2 -4v-12q-1 -7 -1.5 -22
t-0.5 -22q7 0 10 -1q30 -3 59 -28zM128 245l1 21q2 52 2 77v1q1 12 1 36v30q-10 -2 -14 -3q-14 -5 -20 -15v-1q-7 -9 -14 -27q-7 -23 -11 -45v-1q-2 -6 -2 -19q3 -18 1 -43q0 -14 4 -42q0 -9 1 -13l5 -16l6 -14q0 -1 1.5 -5t2.5 -6q4 -11 7 -16l9 -7q1 -1 4 -2.5t4 -2.5
q6 -4 11 -6q0 14 1 21q1 10 1 29q-1 23 1 69h-2z" />
    <glyph glyph-name="sterling" unicode="&#xa3;" horiz-adv-x="328" 
d="M308 65v-4q1 -8 -2 -15q-4 -10 -19 -21q-24 -15 -31 -17q-30 -13 -58 -4l-2 1h-1l-18 10h-1q-8 6 -24 14h-1q-7 4 -16 3l-8 -3q-4 -1 -12 -5q-1 0 -2 -1t-2 -1q-12 -7 -18 -13l-1 -1q-8 -8 -19 -8q-10 0 -18 8q-15 12 -7 29l1 2l1 1q8 10 11 13q18 24 31 51q20 46 25 66
q7 28 4 49q-2 10 -2 14q-1 19 -6 37v4q-12 44 -16 66l-1 5q-12 58 -15 82h-12q-6 -1 -19 -1q-7 0 -13 2q-17 3 -17 22q0 14 11 20q5 5 13 6h2q12 2 17 2l4 1l-6 28q-1 1 -1 3t-1 3q-6 27 -10 83q-2 24 4 42l2 4q1 1 1 2t0.5 1.5t0.5 1.5q7 34 39 61l1 1q10 7 25 15l1 1h2
q1 0 2 1q2 2 3 2l4 2q17 7 32 7q6 0 9 -1h4h2h4q21 0 55 -12l1 -1q14 -6 19 -10l12 -6l1 -1h1q16 -12 21 -19l1 -1q4 -5 9 -21v-4q0 -13 -10 -21q-6 -6 -15 -6q-11 0 -19 8l-4 5l-2 5q-2 5 -9 9q-15 11 -32 17q-12 4 -41 6h-6q-19 -3 -31 -8l-2 -2q-23 -17 -31 -44
q-5 -20 -2 -38v-4q2 -20 4 -31l3 -22q2 -10 2 -15l3 -12l2 -12q1 -2 2.5 -7t2.5 -7h38q2 0 4.5 -0.5t3.5 -0.5q21 -2 21 -25v-7l-11 -13l-1 -1q-8 -8 -19 -8h-23l6 -26q0 -5 1 -11t2.5 -13.5t2.5 -11.5q0 -1 0.5 -3.5t1.5 -3.5l11 -54l3 -11q3 -9 7 -27q10 -52 5 -88
q-3 -17 -10 -40q-20 -48 -22 -53l4 1q10 0 18 -4h1q24 -8 44 -23q8 -5 16 -5t16 4q10 4 18 12l4 4q1 1 2 1q2 2 8 5q4 3 11 3q16 0 23 -14z" />
    <glyph glyph-name="currency" unicode="&#xa4;" horiz-adv-x="446" 
d="M360 110q-10 -13 -18 -19q11 -14 21 -35l1 -1q0 -2 4 -4l4 -4q9 -11 4 -26q-5 -17 -23 -20l-2 -1h-3q-10 0 -17 6q-6 5 -10 13l-2 2q-3 6 -14 27l-6 9q-1 1 -3 5q-25 -12 -57 -18q-14 -2 -22 -2q-15 0 -27 4q-3 0 -4 1q-30 6 -43 14l-21 -43q-6 -16 -25 -16h-5
q-11 2 -18 13q-8 14 -2 26q6 14 10 20q0 2 2 5t2 4l1 1l7 12v1l3 7l-2 2l-3 3l-1 1q-15 17 -20 27q-11 14 -27 42q-8 15 -13 33q-11 39 -11 79q-1 14 5 36q0 1 1.5 6t2.5 8q8 33 17 54q10 24 26 42l1 1q9 9 13 14q-8 14 -11 21q-7 15 -13 24l-2 3l-1 3q-3 10 0 21l2 5l3 3
q8 8 19 8q10 0 16 -6v-1q5 -2 9 -11l15 -27q0 -1 1 -2.5l2 -3t1 -2.5l3 1q16 10 38 15q35 5 56 5h2q16 -1 45 -12l13 -6q3 -2 9 -4q2 2 2 5q8 12 10 19q5 11 9 18q0 1 2 4t2 5l1 2l1 1q8 12 22 12q8 0 12 -3q10 -5 13 -14q5 -10 0 -21l-6 -13l-9 -17l-12 -24l-1 -1
q20 -18 52 -64l3 -4q14 -22 19 -46q2 -6 2 -10l6 -18v-2q8 -24 3 -52l-3 -14q-6 -28 -11 -42q-5 -19 -16 -35q-5 -8 -28 -41q-2 -2 -6 -8zM313 140q10 12 28 38l6 8q7 14 8 17q1 5 3.5 14t3.5 12l6 19q5 23 -1 43q-4 7 -6 22l-1 2q-1 17 -13 35h-1v1l-11 18l-1 1v1
q-12 18 -24 30q-10 9 -21 15q-18 8 -37 17q-17 7 -34 7q-6 0 -24 -2q-2 0 -6 -0.5t-6 -0.5q-21 -3 -41 -19q-7 -7 -23 -24q-3 -4 -11 -12l-5 -10q-11 -18 -23 -67q-2 -6 -2 -9h-1v-12v-7v-11q1 -2 1 -4v-5q3 -43 20 -73l15 -24q1 -1 2.5 -3.5t1.5 -3.5q20 -26 45 -41
q22 -10 36 -11h1l2 -1q12 -2 18 -2h5q28 4 47 13l16 10l15 9q7 4 12 10z" />
    <glyph glyph-name="yen" unicode="&#xa5;" horiz-adv-x="280" 
d="M249 734q11 -7 11 -22v-3l-1 -2q-3 -14 -13 -44q-6 -20 -10 -29l-9 -28v-1l-3 -7q0 -3 -2 -7l-3 -12q-1 -3 -2 -8.5t-1 -7.5q-2 -8 -4.5 -17.5t-6 -20l-5.5 -16.5q-5 -13 -10 -29l-15 -52q-4 -12 -5 -17l-3 -8q21 -4 21 -28q0 -11 -10 -19q4 -4 6 -9q4 -12 0 -21
q-7 -13 -19 -15h-8v-35q-1 -13 -1 -41q0 -7 -1 -11v-9v-2q-3 -32 -3 -62v-31v-15v-2q-3 -23 -1 -60v-1q0 -12 -1 -19q-1 -10 -8.5 -16.5t-17.5 -6.5t-17 6.5t-8 16.5q-1 12 -1 36q0 31 1 46l1 12v2v9.5v11.5v10v29q0 14 2 38q0 8 2 24q0 15 1 22v22v27h-4q-9 0 -14 3
q-14 6 -14 23q0 14 9 21q-9 9 -9 18q0 16 14 23q2 2 10 4q-4 13 -10 39l-6 25q-5 20 -22 89q-4 12 -7 29q-5 24 -11 50q-3 12 -11 36q-1 2 -2.5 7t-1.5 8v1l-6 23v2q0 10 7.5 17.5t17.5 7.5q6 0 14 -4l3 -2l2 -2q6 -6 8 -15q2 -10 8 -28q2 -5 7 -22v-1l9 -35q1 -6 4 -17.5
t4 -16.5l19 -78q5 -26 10 -44l12 39q14 37 22 77l1 1q7 25 18 56q1 4 2 7.5t2.5 7.5t2.5 6l9 27q2 12 11 30q5 15 22 15q7 0 14 -5z" />
    <glyph glyph-name="brokenbar" unicode="&#xa6;" horiz-adv-x="550" 
d="M222 757h107v-398h-107v398zM222 171h107v-398h-107v398z" />
    <glyph glyph-name="section" unicode="&#xa7;" horiz-adv-x="485" 
d="M59 391q0 75 65 121q-65 41 -65 113q0 63 54.5 101.5t143.5 38.5q83 0 177 -41l-40 -93q-52 24 -82 32.5t-58 8.5q-40 0 -58 -11t-18 -34q0 -22 22.5 -40t81.5 -41q82 -34 118.5 -74t36.5 -91q0 -87 -61 -126q30 -20 45.5 -45.5t15.5 -61.5q0 -72 -58.5 -115t-156.5 -43
q-99 0 -170 39v101q40 -20 88 -34t82 -14q95 0 95 57q0 19 -9 31t-31 24.5t-61 28.5q-91 37 -124 74.5t-33 93.5zM168 402q0 -31 30.5 -55.5t89.5 -48.5q38 28 38 70q0 34 -26.5 56.5t-87.5 44.5q-19 -7 -31.5 -25.5t-12.5 -41.5z" />
    <glyph glyph-name="dieresis" unicode="&#xa8;" horiz-adv-x="606" 
d="M136 686q0 32 18.5 49t49.5 17q32 0 50.5 -18t18.5 -48q0 -29 -18.5 -47t-50.5 -18q-31 0 -49.5 17t-18.5 48zM333 686q0 34 20 50t49 16q32 0 50.5 -17.5t18.5 -48.5q0 -30 -19 -47.5t-50 -17.5q-29 0 -49 16t-20 49z" />
    <glyph glyph-name="copyright" unicode="&#xa9;" horiz-adv-x="557" 
d="M528 370v-1q1 -11 5 -35q6 -28 3 -54v-1v-7q0 -7 -1 -12q-1 -15 -5 -48v-4q0 -8 -2 -13q-2 -8 -4 -13q-7 -28 -16 -51q-1 -2 -2 -4.5t-2.5 -5.5t-2.5 -4l-38 -57l-14 -16q-2 -1 -4 -3l-1 -2l-2 -1l-34 -19q-6 -4 -22 -9l-8 -2q-3 -1 -9 -1h-6h-1q-2 0 -5 -0.5t-4 -0.5
q-5 0 -8 -1q-20 -4 -34 -4h-9q-14 -1 -40 -1q-8 0 -13 2q-7 2 -19 4l-16 3q-20 5 -49 16l-1 1l-46 21q-16 7 -36 23q-5 4 -13 14l-1 1l-4 6l-2 2q-15 20 -21 46l-5 17q-4 11 -5 19v1l-4 13q-7 34 -7 77v18q0 14 3 28l3 11q3 9 3 16q0 8 3 17l2 4q4 10 6 17q0 2 2 8v1l1 1
q6 14 17 28l18 24q10 15 24 27l1 1q8 6 13 11v1h1q6 6 22 16l1 1q4 2 9 6l6 3q5 14 19 14h2q1 0 2 1h1v1q16 8 42 12h1l29 3q3 0 10 0.5t10 0.5t10 -0.5t11 -0.5q9 4 24 4h2l3 -1q2 0 4.5 -0.5t3.5 -0.5h2q10 -2 14 -2q10 -2 12 -2q8 -1 23 -6q3 0 4 -1h1q1 -1 3.5 -1.5
t3.5 -0.5l9 -3q41 -12 72 -44q2 -2 4 -6l1 -1h1l1 -2q22 -21 35 -54q9 -16 13 -45zM398 72h1q20 11 30 26v1q16 25 29 47q11 22 13 29v2q11 39 14 86v13q2 29 -1 46q-3 15 -5 41q-1 15 -8 28q0 1 -1 3q-1 1 -5 9q-16 34 -45 55l-1 1q-4 4 -24 14h-2q-7 1 -27 8q-14 4 -21 5
q-2 1 -4 1q-3 1 -9 1q-2 0 -6 0.5t-7 0.5h-1l-1 1q0 -1 -3 -1q-1 0 -5 -0.5t-6 -0.5h-4h-10q-42 0 -62 -4q-1 0 -4 -0.5t-4 -0.5t-4 -0.5t-4 -1.5l-1 -1l-2 -1l-1 -1h-2q-13 -5 -15 -8l-2 -2q-6 -6 -13 -8q-1 0 -2 -1l-1.5 -1.5t-1.5 -0.5l-1 -1q-8 -5 -37 -29l-7 -7l-5 -4
q-1 -1 -2.5 -4t-2.5 -4q-4 -5 -12 -17q-13 -16 -24 -50q-1 -2 -1.5 -6.5t-0.5 -6.5l-6 -25v-3q-2 -30 -2 -44v-9l3 -20q0 -2 0.5 -6t0.5 -6q2 -12 4 -17q4 -11 13 -46l6 -17l1 -1v-1q3 -8 8 -13q2 -1 3.5 -2.5t2.5 -3t2 -2.5l1 -1q13 -13 24 -18q5 -2 12.5 -5.5t9.5 -4.5
q26 -12 32 -14l9 -3q1 -1 4 -1l11 -3l1 -1h1q6 -2 9 -2q14 0 23 -4q7 -3 19 -5q38 0 63 4l25 3q18 1 31 8zM422 129l-2 -3q-3 -8 -9 -13q-27 -26 -69 -32h-5h-2q-3 0 -15 -2l-10 -3q-12 -2 -21 -2q-3 0 -10 0.5t-10 0.5h-1q-31 4 -72 23q-17 8 -43 30h-1v1q-9 9 -17 20v1
q-16 25 -20 44q-1 0 -1 2t-1 2q-1 1 -1 3.5t-1 3.5q-3 12 -3 14v1q-2 20 -2 28q-2 23 2 36v5v7l1 2q10 51 35 80q16 20 32 32q15 12 39 21q25 11 64 13h4q37 -1 69 -8l11 -3q2 -1 5 -1l1 -1h1h2h3q6 0 12 -4q1 -1 4 -2.5t4 -2.5q16 -8 24 -15l1 -1q12 -12 4 -27
q-6 -13 -22 -13q-3 0 -15 4l-2 2q-6 4 -27 10h-1q-23 7 -42 8h-2l-2 1h-4h-6q-10 0 -14 1h-1q-6 2 -12 0h-1l-22 -3h-2q-6 -2 -11 -3q-2 0 -4 -2q-2 0 -7.5 -2t-8.5 -3q-6 -3 -7 -4l-1 -1l-2 -1q-16 -13 -19 -20l-9 -9q-5 -6 -8 -13q-11 -23 -16 -51q-2 -16 1 -52l3 -14
q11 -28 15 -34v-1q5 -8 13 -15q4 -3 11 -10q6 -4 15 -9l6 -3q6 -4 34 -13l3 -1q23 -5 37 -4h2l17 3q9 4 22 4q15 0 35 11q0 1 2 3q1 0 4.5 3t5.5 4q6 4 9 5q2 1 8 1q7 0 14 -5q9 -5 9 -19v-5z" />
    <glyph glyph-name="ordfeminine" unicode="&#xaa;" horiz-adv-x="382" 
d="M274 373l-15 54q-21 -28 -51.5 -44t-66.5 -16q-57 0 -87.5 28.5t-30.5 80.5q0 53 40.5 80t130.5 31l48 2q0 57 -62 57q-40 0 -106 -30l-32 66q32 16 71 28t87 12q67 0 103.5 -34.5t36.5 -98.5v-216h-66zM123 477q0 -19 11.5 -27.5t26.5 -8.5q38 0 59.5 20t21.5 52v18
l-48 -3q-71 -5 -71 -51z" />
    <glyph glyph-name="guillemotleft" unicode="&#xab;" horiz-adv-x="385" 
d="M202 266q4 -4 7 -13l3 -8l-4 -8q-3 -10 -12 -14l-1 -1l-3 -1q-9 -3 -13 -3q-2 0 -8 2l-11 3q-29 9 -38 13q-18 7 -41 17q-5 2 -18.5 7.5t-21.5 8.5q-17 6 -20 24q-3 17 9 28q4 4 16 12q21 14 50 28q4 1 11 5t10 5q11 7 25 12q2 1 4.5 2.5t5.5 2.5t4 2l2 2h3q1 0 3 0.5
t4 0.5q17 0 28 -14v-1l1 -1q8 -13 3 -27q-2 -10 -10 -15q-8 -6 -26 -13q-16 -6 -43 -19q23 -13 44 -18h1l14 -6q-6 8 -6 14q-3 17 9 28q4 4 16 12q21 14 50 28q3 1 10 5t11 5q10 7 25 12l14 7l2 2h3q1 0 3 0.5t4 0.5q17 0 28 -14v-1l1 -1q8 -13 3 -27q-2 -10 -10 -15
q-8 -6 -26 -13q-16 -6 -43 -19q24 -13 44 -18h1q17 -6 33 -17l2 -1l1 -1q4 -4 7 -13l3 -8l-4 -8q-3 -10 -12 -14l-1 -1l-3 -1q-9 -3 -13 -3q-2 0 -8 2l-11 3q-30 9 -38 13q-18 7 -41 17q-6 2 -16 6.5t-16 6.5z" />
    <glyph glyph-name="logicalnot" unicode="&#xac;" horiz-adv-x="571" 
d="M528 121h-107v178h-378v107h485v-285z" />
    <glyph glyph-name="uni00AD" unicode="&#xad;" horiz-adv-x="321" 
d="M30 207v122h262v-122h-262z" />
    <glyph glyph-name="registered" unicode="&#xae;" horiz-adv-x="557" 
d="M528 370v-1q1 -11 5 -35q6 -28 3 -54v-1q-1 -2 -1 -7v-12q-1 -15 -5 -48v-4q0 -8 -2 -13q-2 -8 -4 -13q-7 -28 -16 -51q-1 -2 -2 -4.5t-2.5 -5.5t-2.5 -4l-38 -57l-14 -16q-2 -1 -4 -3l-1 -2l-2 -1l-34 -19q-6 -4 -22 -9l-8 -2q-3 -1 -9 -1h-6h-1q-2 0 -5 -0.5t-4 -0.5
q-5 0 -8 -1q-20 -4 -34 -4h-9q-14 -1 -40 -1q-8 0 -13 2q-7 2 -19 4l-16 3q-20 5 -49 16l-1 1l-46 21q-16 7 -36 23q-5 4 -13 14l-1 1l-4 6l-2 2q-15 20 -21 46l-5 17q-4 11 -5 19v1l-4 13q-7 34 -7 77v18q0 14 3 28l3 11q3 9 3 16q0 8 3 17l2 4q4 10 6 17q0 2 2 8v1l1 1
q6 14 17 28l18 24q10 15 24 27l1 1q8 6 13 11v1h1q6 6 22 16l1 1q4 2 9 6l6 3q5 14 19 14h2q1 0 2 1h1v1q16 8 42 12h1l29 3q3 0 10 0.5t10 0.5t10 -0.5t11 -0.5q9 4 24 4h2l3 -1q2 0 4.5 -0.5t3.5 -0.5h2q10 -2 14 -2q10 -2 12 -2q8 -1 23 -6q3 0 4 -1h1q1 -1 3.5 -1.5
t3.5 -0.5l9 -3q41 -12 72 -44q2 -2 4 -6l1 -1h1l1 -2q22 -21 35 -54q9 -16 13 -45zM398 72h1q20 11 30 26v1q16 25 29 47q11 22 13 29v2q11 39 14 86v13q2 29 -1 46q-3 15 -5 41q-1 15 -8 28q0 1 -1 3q-1 1 -5 9q-16 34 -45 55l-1 1q-4 4 -24 14h-2q-7 1 -27 8q-14 4 -21 5
q-2 1 -4 1q-3 1 -9 1q-2 0 -6 0.5t-7 0.5h-1l-1 1q0 -1 -3 -1q-1 0 -5 -0.5t-6 -0.5h-4h-8q30 -6 56 -25l9 -7v-1q12 -11 28 -36v-1l1 -1q11 -24 11 -41v-8v-6q2 -21 -6 -36q-17 -35 -38 -52q-2 -1 -5 -3.5t-6 -4.5t-7 -3q-27 -11 -55 -20q10 -10 22 -27q8 -10 11 -13h1v-1
q25 -29 49 -65q6 -9 15 -18l11 -11q8 -11 2 -25q-7 -17 -23 -17h-7l-4 2q-9 6 -10 7h-1q-1 2 -5 6q-19 21 -27 33q-19 30 -37 50q-8 8 -12 15q-6 8 -9 11l-1 1q-2 3 -8 9v-25q1 -15 1 -48v-42q0 -17 -19 -26h-1q14 0 23 -4q7 -3 19 -5q38 0 63 4l25 3q18 1 31 8zM97 134v-1
q3 -8 8 -13q2 -1 3.5 -2.5t2.5 -3t2 -2.5l1 -1q13 -13 24 -18q5 -2 12.5 -5.5t9.5 -4.5q26 -12 32 -14l9 -3q-4 4 -5 7q-2 6 -2 10v23q-1 8 -1 26v2q2 47 0 81v1v44q1 20 1 60q0 9 1 14q3 23 2 38v4q2 17 -1 43q0 3 -0.5 9.5t-0.5 10.5v1v14q-1 5 -1 15v4q-2 -1 -4 -3l-2 -2
q-6 -6 -13 -8q-1 0 -2 -1l-1.5 -1.5t-1.5 -0.5l-1 -1q-8 -5 -37 -29l-7 -7l-5 -4q-1 -1 -2.5 -4t-2.5 -4q-4 -5 -12 -17q-13 -16 -24 -50q-1 -2 -1.5 -6.5t-0.5 -6.5l-6 -25v-3q-2 -30 -2 -44v-9l3 -20q0 -2 0.5 -6t0.5 -6q2 -12 4 -17q4 -11 13 -46l6 -17zM251 389v-1
q1 -18 -2 -49q-2 -16 -2 -27q0 -2 -0.5 -6.5t-0.5 -7.5v-9q8 0 17 3q17 6 32 13q8 4 17 7q19 8 31 39q0 16 -1 24q-1 14 -7 20q-3 3 -7 9l-5 6q-24 24 -51 27l-24 3q0 -5 0.5 -14t1.5 -14q0 -15 1 -23z" />
    <glyph glyph-name="macron" unicode="&#xaf;" horiz-adv-x="365" 
d="M317 318q8 -6 8 -17q1 -2 1 -5q0 -17 -16 -21q-4 -2 -8 -2h-43q-34 0 -50 1h-26q-4 1 -13 1h-17v1h-13h-33h-1h-5h-5h-19q-4 0 -12 -0.5t-12 -0.5h-2q-1 0 -3.5 -0.5t-4.5 -0.5q-15 0 -21 14q-2 4 -2 16q2 13 13 18l4 2h4q5 1 12 1q2 0 6.5 0.5t7.5 0.5h15h61q4 -1 14 -1
h20q3 -1 12 -1h33q5 0 6 -1h75q9 0 14 -5zM173 315v2q-3 4 -7 6l1 -8h5h1z" />
    <glyph glyph-name="degree" unicode="&#xb0;" horiz-adv-x="428" 
d="M45 555q0 45 22.5 84t61.5 62t85 23q45 0 84 -22.5t62 -62t23 -84.5t-23 -84.5t-62 -61.5t-84 -22q-71 0 -120 48.5t-49 119.5zM138 555q0 -31 22 -53t54 -22t54 22.5t22 52.5q0 31 -22 54t-54 23q-31 0 -53.5 -22.5t-22.5 -54.5z" />
    <glyph glyph-name="plusminus" unicode="&#xb1;" horiz-adv-x="571" 
d="M232 329h-189v107h189v190h107v-190h189v-107h-189v-188h-107v188zM43 0v107h485v-107h-485z" />
    <glyph glyph-name="uni00B2" unicode="&#xb2;" horiz-adv-x="378" 
d="M343 286h-316v82l109 107q50 49 64 70.5t14 46.5q0 19 -12 28.5t-31 9.5q-40 0 -88 -43l-60 74q72 63 164 63q67 0 105.5 -32.5t38.5 -89.5q0 -42 -23 -78.5t-86 -93.5l-51 -46h172v-98z" />
    <glyph glyph-name="uni00B3" unicode="&#xb3;" horiz-adv-x="378" 
d="M325 610q0 -70 -83 -97v-6q46 -10 71.5 -37t25.5 -65q0 -59 -43 -93t-134 -34q-70 0 -133 34v93q72 -44 132 -44q70 0 70 52q0 26 -21.5 39t-59.5 13h-55v78h45q41 0 60.5 12.5t19.5 40.5q0 19 -12 31t-37 12q-23 0 -43.5 -9t-48.5 -29l-49 69q30 23 67 38t87 15
q62 0 101.5 -31t39.5 -82z" />
    <glyph glyph-name="acute" unicode="&#xb4;" horiz-adv-x="606" 
d="M162 606v13q84 98 115 147h167v-10q-25 -25 -86.5 -75.5t-96.5 -74.5h-99z" />
    <glyph glyph-name="mu" unicode="&#xb5;" horiz-adv-x="660" 
d="M227 227q0 -59 21.5 -88.5t67.5 -29.5q62 0 89.5 42t27.5 138v257h149v-546h-113l-21 73h-7q-21 -42 -50 -62.5t-72 -20.5q-30 0 -55.5 11.5t-41.5 32.5l3 -41l2 -77v-156h-149v786h149v-319z" />
    <glyph glyph-name="paragraph" unicode="&#xb6;" horiz-adv-x="654" 
d="M570 -127h-79v789h-81v-789h-79v400q-30 -9 -71 -9q-105 0 -155 61t-50 184q0 127 53.5 189t166.5 62h295v-887z" />
    <glyph glyph-name="periodcentered" unicode="&#xb7;" horiz-adv-x="97" 
d="M51 304q13 0 20 -11q11 -11 3 -26q-5 -10 -12 -14l-1 -1h-1q-6 -3 -12 -3q-5 0 -8 1q-12 2 -18 14l-2 5v7q0 12 8.5 20.5t19.5 8.5q2 0 3 -1z" />
    <glyph glyph-name="cedilla" unicode="&#xb8;" horiz-adv-x="205" 
d="M204 -122q0 -62 -37 -90t-114 -28q-38 0 -71 10v82q13 -3 35.5 -6.5t34.5 -3.5q35 0 35 30q0 41 -81 53l38 75h94l-13 -30q36 -12 57.5 -36.5t21.5 -55.5z" />
    <glyph glyph-name="uni00B9" unicode="&#xb9;" horiz-adv-x="378" 
d="M285 286h-116v218l1 55l3 46q-13 -18 -37 -38l-38 -30l-53 62l147 115h93v-428z" />
    <glyph glyph-name="ordmasculine" unicode="&#xba;" horiz-adv-x="388" 
d="M360 545q0 -83 -44.5 -130.5t-122.5 -47.5q-75 0 -120 48t-45 130q0 83 43.5 130t123.5 47q74 0 119.5 -48t45.5 -129zM127 545q0 -49 16 -73.5t51 -24.5t50.5 24.5t15.5 73.5t-15.5 73t-50.5 24t-51 -24t-16 -73z" />
    <glyph glyph-name="guillemotright" unicode="&#xbb;" horiz-adv-x="382" 
d="M351 277q-8 -8 -18 -11q-22 -14 -60 -29q-4 -1 -12 -5q-14 -7 -36 -15q-4 -2 -5 -2l-2 -1h-2q-1 -1 -5 -1q-18 0 -30 17q-6 13 -3 26q3 12 13 17q11 6 26 11q7 2 44 16q-31 17 -43 20l-2 1h-1l-12 6q4 -5 6 -15q0 -17 -11 -26q-10 -8 -16 -12q-12 -7 -48 -23
q-12 -5 -25 -11h-1q-8 -4 -24 -10l-16 -6l-2 -1h-2q-2 -1 -6 -1q-18 0 -29 16l-1 1q-7 12 -2 28q5 10 12 13q9 8 26 13q12 4 43 16q-28 16 -42 20l-1 1q-20 8 -33 19l-1 1q-3 4 -6 13l-4 7l4 9q5 11 13 14l1 1h1q8 3 13 3q4 0 10 -2q11 -4 14 -5q25 -9 34 -14l39 -18
q11 -6 33 -16q-6 6 -6 13l-3 6l4 9q5 11 13 14l1 1h1l1 1q6 2 12 2q5 0 11 -2q32 -10 47 -19q23 -10 40 -19l39 -18q17 -6 20 -25q2 -17 -11 -28z" />
    <glyph glyph-name="onequarter" unicode="&#xbc;" horiz-adv-x="880" 
d="M821 74h-61v-74h-116v74h-187v75l188 282h115v-275h61v-82zM644 156v80q0 42 3 90q-4 -13 -17 -39.5t-21 -37.5l-62 -93h97zM263 286h-116v218l1 55l3 46q-13 -18 -37 -38l-38 -30l-53 62l147 115h93v-428zM768 658l4 -2q9 -5 12 -15l5 -8l-4 -8q0 -2 -2 -6l-1 -3l-1 -1
q0 -2 -2 -4l-6 -10l-45 -75l-30 -48q-27 -43 -31 -49q-5 -8 -15 -26l-16 -27q-3 -3 -18 -29q-2 -3 -8.5 -13t-10.5 -16q-14 -21 -28 -48l-1 -2q-17 -27 -39 -60q-5 -8 -15 -26l-27 -43q-4 -9 -10 -18q-14 -21 -31 -54q-1 -2 -9 -16t-13 -22q-1 -1 -3.5 -7.5t-4.5 -11.5v-1
l-1 -1q-3 -6 -14 -13l-1 -1h-1q-3 -1 -8 -1q-13 0 -19 10q-8 8 -6 18v10l2 4l2 3q4 9 11 18q8 13 16 31q1 1 6.5 12t9.5 17v1l1 1q6 8 7 12l1 1l16 27q5 8 17 28t19 31q4 9 11 18q13 19 22 35l9 15q4 9 11 17l2 5q10 17 19 31q12 18 16 27q1 1 10 17q2 3 15 23l4 7v1
q3 4 9 14q19 29 35 52l1 2q0 1 5 8l62 103q1 2 7 11l6 9q12 20 18 29q2 6 6 10l6 6h7l2 1h4h5z" />
    <glyph glyph-name="onehalf" unicode="&#xbd;" horiz-adv-x="880" 
d="M263 286h-116v218l1 55l3 46q-13 -18 -37 -38l-38 -30l-53 62l147 115h93v-428zM768 658l4 -2q9 -5 12 -15l5 -8l-4 -8q0 -2 -2 -6l-1 -3l-1 -1q0 -2 -2 -4l-6 -10l-45 -75l-30 -48q-27 -43 -31 -49q-5 -8 -15 -26l-16 -27q-3 -3 -18 -29q-2 -3 -8.5 -13t-10.5 -16
q-14 -21 -28 -48l-1 -2q-17 -27 -39 -60q-5 -8 -15 -26l-27 -43q-4 -9 -10 -18q-14 -21 -31 -54q-1 -2 -9 -16t-13 -22q-1 -1 -3.5 -7.5t-4.5 -11.5v-1l-1 -1q-3 -6 -14 -13l-1 -1h-1q-3 -1 -8 -1q-13 0 -19 10q-8 8 -6 18v10l2 4l2 3q4 9 11 18q8 13 16 31q1 1 6.5 12
t9.5 17v1l1 1q6 8 7 12l1 1l16 27q5 8 17 28t19 31q4 9 11 18q13 19 22 35l9 15q4 9 11 17l2 5q10 17 19 31q12 18 16 27q1 1 10 17q2 3 15 23l4 7v1q3 4 9 14q19 29 35 52l1 2q0 1 5 8l62 103q1 2 7 11l6 9q12 20 18 29q2 6 6 10l6 6h7l2 1h4h5zM838 0h-316v82l109 107
q50 49 64 70.5t14 46.5q0 19 -12 28.5t-31 9.5q-40 0 -88 -43l-60 74q72 63 164 63q67 0 105.5 -32.5t38.5 -89.5q0 -42 -23 -78.5t-86 -93.5l-51 -46h172v-98z" />
    <glyph glyph-name="threequarters" unicode="&#xbe;" horiz-adv-x="880" 
d="M836 74h-61v-74h-116v74h-187v75l188 282h115v-275h61v-82zM659 156v80q0 42 3 90q-4 -13 -17 -39.5t-21 -37.5l-62 -93h97zM340 610q0 -70 -83 -97v-6q46 -10 71.5 -37t25.5 -65q0 -59 -43 -93t-134 -34q-70 0 -133 34v93q72 -44 132 -44q70 0 70 52q0 26 -21.5 39
t-59.5 13h-55v78h45q41 0 60.5 12.5t19.5 40.5q0 19 -12 31t-37 12q-23 0 -43.5 -9t-48.5 -29l-49 69q30 23 67 38t87 15q62 0 101.5 -31t39.5 -82zM803 658l4 -2q9 -5 12 -15l5 -8l-4 -8q0 -2 -2 -6l-1 -3l-1 -1q0 -2 -2 -4l-6 -10l-45 -75l-30 -48q-27 -43 -31 -49
q-5 -8 -15 -26l-16 -27q-3 -3 -18 -29q-2 -3 -8.5 -13t-10.5 -16q-14 -21 -28 -48l-1 -2q-17 -27 -39 -60q-5 -8 -15 -26l-27 -43q-4 -9 -10 -18q-14 -21 -31 -54q-1 -2 -9 -16t-13 -22q-1 -1 -3.5 -7.5t-4.5 -11.5v-1l-1 -1q-3 -6 -14 -13l-1 -1h-1q-3 -1 -8 -1
q-13 0 -19 10q-8 8 -6 18v10l2 4l2 3q4 9 11 18q8 13 16 31q1 1 6.5 12t9.5 17v1l1 1q6 8 7 12l1 1l16 27q5 8 17 28t19 31q4 9 11 18q13 19 22 35l9 15q4 9 11 17l2 5q10 17 19 31q12 18 16 27q1 1 10 17q2 3 15 23l4 7v1q3 4 9 14q19 29 35 52l1 2q0 1 5 8l62 103
q1 2 7 11l6 9q12 20 18 29q2 6 6 10l6 6h7l2 1h4h5z" />
    <glyph glyph-name="questiondown" unicode="&#xbf;" horiz-adv-x="477" 
d="M348 296v-36q0 -48 -21.5 -82.5t-74.5 -72.5t-67 -59.5t-14 -52.5q0 -28 21 -46t65 -18q39 0 82.5 14.5t90.5 34.5l50 -108q-48 -27 -108 -44t-112 -17q-107 0 -168.5 47t-61.5 130q0 53 23.5 91.5t93.5 89.5q46 34 59 52t13 48v29h129zM364 463q0 -41 -22 -62t-64 -21
q-41 0 -63 21.5t-22 61.5t22.5 61.5t62.5 21.5q41 0 63.5 -21.5t22.5 -61.5z" />
    <glyph glyph-name="Agrave" unicode="&#xc0;" horiz-adv-x="689" 
d="M305 47l3 -12q2 -9 -5 -24h-1l-1 -2l-1 -1q-8 -8 -19 -8q-7 0 -13 3h-1l-1 1q-11 8 -13 21l-6 24q-1 1 -1.5 4t-0.5 4q0 2 -0.5 4t-0.5 3l-9 38q-4 13 -10 39l-6 26q-1 10 -5 25v1l-6 34q-5 30 -17 90q-1 1 -1 5t-1 5h-9h-11h-11q-4 -1 -11 -1q-18 -2 -27 -2h-4l-4 -26
q0 -4 -1 -11t-1 -10l-3 -25v-1q-1 -2 -1 -6.5t-1 -6.5l-3 -15q-6 -33 -7 -46q0 -7 -2 -21l-3 -17q-1 -17 -7 -47q-1 -2 -1 -6t-1 -6q-2 -10 -4 -26v-2q-2 -8 -2 -26q0 -23 -20 -28q-6 -2 -9 -2q-13 0 -21 10q-5 7 -5 15q0 6 1 9v4v2q1 19 10 70l3 12q1 5 1 17v1l1 1
q0 7 2 17q5 40 5 47q2 10 3 14v1l1 2q3 18 10 67q4 34 8 54q9 51 10 78q1 5 2 15t2 15l3 13v2q2 18 4 27v4q4 28 7 42l9 49q0 3 1 5q0 9 5 41l4 22q0 2 3 26l3 13l2 18q1 22 21 24q1 1 4 1q23 0 29 -19l1 -3v-2q1 -2 1 -7q0 -12 5 -27v-1q4 -19 10 -55l15 -91q4 -28 7 -42
v-2q1 -9 8 -40v-1q5 -29 10 -46v-1l12 -62l3 -15v-2q2 -11 8 -43l3 -15l3 -15q0 -5 2 -13v-2q2 -12 4 -20l1 -4l6 -30q4 -20 7 -30v-1q0 -2 2 -8q0 -2 1.5 -9t2.5 -12q2 -8 8 -26q0 -2 5 -16q4 -13 6 -27zM138 379h2q26 0 39 1q-9 44 -14 73q-5 17 -6 33l-7 41l-3 16
q-1 -1 -1 -4t-1 -5q0 -2 -0.5 -4t-0.5 -4q-3 -13 -7 -37l-14 -112h1q6 0 10 1zM348 771q-31 21 -90.5 69.5t-92.5 80.5v10h167q31 -49 115 -147v-13h-99z" />
    <glyph glyph-name="Aacute" unicode="&#xc1;" horiz-adv-x="689" 
d="M305 47l3 -12q2 -9 -5 -24h-1l-1 -2l-1 -1q-8 -8 -19 -8q-7 0 -13 3h-1l-1 1q-11 8 -13 21l-6 24q-1 1 -1.5 4t-0.5 4q0 2 -0.5 4t-0.5 3l-9 38q-4 13 -10 39l-6 26q-1 10 -5 25v1l-6 34q-5 30 -17 90q-1 1 -1 5t-1 5h-9h-11h-11q-4 -1 -11 -1q-18 -2 -27 -2h-4l-4 -26
q0 -4 -1 -11t-1 -10l-3 -25v-1q-1 -2 -1 -6.5t-1 -6.5l-3 -15q-6 -33 -7 -46q0 -7 -2 -21l-3 -17q-1 -17 -7 -47q-1 -2 -1 -6t-1 -6q-2 -10 -4 -26v-2q-2 -8 -2 -26q0 -23 -20 -28q-6 -2 -9 -2q-13 0 -21 10q-5 7 -5 15q0 6 1 9v4v2q1 19 10 70l3 12q1 5 1 17v1l1 1
q0 7 2 17q5 40 5 47q2 10 3 14v1l1 2q3 18 10 67q4 34 8 54q9 51 10 78q1 5 2 15t2 15l3 13v2q2 18 4 27v4q4 28 7 42l9 49q0 3 1 5q0 9 5 41l4 22q0 2 3 26l3 13l2 18q1 22 21 24q1 1 4 1q23 0 29 -19l1 -3v-2q1 -2 1 -7q0 -12 5 -27v-1q4 -19 10 -55l15 -91q4 -28 7 -42
v-2q1 -9 8 -40v-1q5 -29 10 -46v-1l12 -62l3 -15v-2q2 -11 8 -43l3 -15l3 -15q0 -5 2 -13v-2q2 -12 4 -20l1 -4l6 -30q4 -20 7 -30v-1q0 -2 2 -8q0 -2 1.5 -9t2.5 -12q2 -8 8 -26q0 -2 5 -16q4 -13 6 -27zM138 379h2q26 0 39 1q-9 44 -14 73q-5 17 -6 33l-7 41l-3 16
q-1 -1 -1 -4t-1 -5q0 -2 -0.5 -4t-0.5 -4q-3 -13 -7 -37l-14 -112h1q6 0 10 1zM264 771v13q84 98 115 147h167v-10q-25 -25 -86.5 -75.5t-96.5 -74.5h-99z" />
    <glyph glyph-name="Acircumflex" unicode="&#xc2;" horiz-adv-x="689" 
d="M458 771q-77 45 -114 86q-38 -40 -112 -86h-99v13q92 92 125 147h174q15 -25 52.5 -69t72.5 -78v-13h-99zM305 47l3 -12q2 -9 -5 -24h-1l-1 -2l-1 -1q-8 -8 -19 -8q-7 0 -13 3h-1l-1 1q-11 8 -13 21l-6 24q-1 1 -1.5 4t-0.5 4q0 2 -0.5 4t-0.5 3l-9 38q-4 13 -10 39
l-6 26q-1 10 -5 25v1l-6 34q-5 30 -17 90q-1 1 -1 5t-1 5h-9h-11h-11q-4 -1 -11 -1q-18 -2 -27 -2h-4l-4 -26q0 -4 -1 -11t-1 -10l-3 -25v-1q-1 -2 -1 -6.5t-1 -6.5l-3 -15q-6 -33 -7 -46q0 -7 -2 -21l-3 -17q-1 -17 -7 -47q-1 -2 -1 -6t-1 -6q-2 -10 -4 -26v-2
q-2 -8 -2 -26q0 -23 -20 -28q-6 -2 -9 -2q-13 0 -21 10q-5 7 -5 15q0 6 1 9v4v2q1 19 10 70l3 12q1 5 1 17v1l1 1q0 7 2 17q5 40 5 47q2 10 3 14v1l1 2q3 18 10 67q4 34 8 54q9 51 10 78q1 5 2 15t2 15l3 13v2q2 18 4 27v4q4 28 7 42l9 49q0 3 1 5q0 9 5 41l4 22q0 2 3 26
l3 13l2 18q1 22 21 24q1 1 4 1q23 0 29 -19l1 -3v-2q1 -2 1 -7q0 -12 5 -27v-1q4 -19 10 -55l15 -91q4 -28 7 -42v-2q1 -9 8 -40v-1q5 -29 10 -46v-1l12 -62l3 -15v-2q2 -11 8 -43l3 -15l3 -15q0 -5 2 -13v-2q2 -12 4 -20l1 -4l6 -30q4 -20 7 -30v-1q0 -2 2 -8q0 -2 1.5 -9
t2.5 -12q2 -8 8 -26q0 -2 5 -16q4 -13 6 -27zM138 379h2q26 0 39 1q-9 44 -14 73q-5 17 -6 33l-7 41l-3 16q-1 -1 -1 -4t-1 -5q0 -2 -0.5 -4t-0.5 -4q-3 -13 -7 -37l-14 -112h1q6 0 10 1z" />
    <glyph glyph-name="Atilde" unicode="&#xc3;" horiz-adv-x="689" 
d="M265 822q-15 0 -29 -13t-20 -39h-73q5 71 40 111t93 40q20 0 39 -8t38 -17.5t37 -17.5t36 -8q15 0 29 12.5t20 39.5h73q-5 -71 -40.5 -111t-92.5 -40q-20 0 -39.5 8t-38 17.5t-36.5 17.5t-36 8zM305 47l3 -12q2 -9 -5 -24h-1l-1 -2l-1 -1q-8 -8 -19 -8q-7 0 -13 3h-1
l-1 1q-11 8 -13 21l-6 24q-1 1 -1.5 4t-0.5 4q0 2 -0.5 4t-0.5 3l-9 38q-4 13 -10 39l-6 26q-1 10 -5 25v1l-6 34q-5 30 -17 90q-1 1 -1 5t-1 5h-9h-11h-11q-4 -1 -11 -1q-18 -2 -27 -2h-4l-4 -26q0 -4 -1 -11t-1 -10l-3 -25v-1q-1 -2 -1 -6.5t-1 -6.5l-3 -15q-6 -33 -7 -46
q0 -7 -2 -21l-3 -17q-1 -17 -7 -47q-1 -2 -1 -6t-1 -6q-2 -10 -4 -26v-2q-2 -8 -2 -26q0 -23 -20 -28q-6 -2 -9 -2q-13 0 -21 10q-5 7 -5 15q0 6 1 9v4v2q1 19 10 70l3 12q1 5 1 17v1l1 1q0 7 2 17q5 40 5 47q2 10 3 14v1l1 2q3 18 10 67q4 34 8 54q9 51 10 78q1 5 2 15
t2 15l3 13v2q2 18 4 27v4q4 28 7 42l9 49q0 3 1 5q0 9 5 41l4 22q0 2 3 26l3 13l2 18q1 22 21 24q1 1 4 1q23 0 29 -19l1 -3v-2q1 -2 1 -7q0 -12 5 -27v-1q4 -19 10 -55l15 -91q4 -28 7 -42v-2q1 -9 8 -40v-1q5 -29 10 -46v-1l12 -62l3 -15v-2q2 -11 8 -43l3 -15l3 -15
q0 -5 2 -13v-2q2 -12 4 -20l1 -4l6 -30q4 -20 7 -30v-1q0 -2 2 -8q0 -2 1.5 -9t2.5 -12q2 -8 8 -26q0 -2 5 -16q4 -13 6 -27zM138 379h2q26 0 39 1q-9 44 -14 73q-5 17 -6 33l-7 41l-3 16q-1 -1 -1 -4t-1 -5q0 -2 -0.5 -4t-0.5 -4q-3 -13 -7 -37l-14 -112h1q6 0 10 1z" />
    <glyph glyph-name="Adieresis" unicode="&#xc4;" horiz-adv-x="329" 
d="M221 784q13 0 20 -11q11 -11 3 -26q-5 -10 -12 -14l-1 -1h-1q-6 -3 -12 -3q-5 0 -8 1q-12 2 -18 14l-2 5v7q0 12 8.5 20.5t19.5 8.5q2 0 3 -1zM71 784q13 0 20 -11q11 -11 3 -26q-5 -10 -12 -14l-1 -1h-1q-6 -3 -12 -3q-5 0 -8 1q-12 2 -18 14l-2 5v7q0 12 8.5 20.5
t19.5 8.5q2 0 3 -1zM305 47l3 -12q2 -9 -5 -24h-1l-1 -2l-1 -1q-8 -8 -19 -8q-7 0 -13 3h-1l-1 1q-11 8 -13 21l-6 24q-1 1 -1.5 4t-0.5 4q0 2 -0.5 4t-0.5 3l-9 38q-4 13 -10 39l-6 26q-1 10 -5 25v1l-6 34q-5 30 -17 90q-1 1 -1 5t-1 5h-9h-11h-11q-4 -1 -11 -1
q-18 -2 -27 -2h-4l-4 -26q0 -4 -1 -11t-1 -10l-3 -25v-1q-1 -2 -1 -6.5t-1 -6.5l-3 -15q-6 -33 -7 -46q0 -7 -2 -21l-3 -17q-1 -17 -7 -47q-1 -2 -1 -6t-1 -6q-2 -10 -4 -26v-2q-2 -8 -2 -26q0 -23 -20 -28q-6 -2 -9 -2q-13 0 -21 10q-5 7 -5 15q0 6 1 9v4v2q1 19 10 70
l3 12q1 5 1 17v1l1 1q0 7 2 17q5 40 5 47q2 10 3 14v1l1 2q3 18 10 67q4 34 8 54q9 51 10 78q1 5 2 15t2 15l3 13v2q2 18 4 27v4q4 28 7 42l9 49q0 3 1 5q0 9 5 41l4 22q0 2 3 26l3 13l2 18q1 22 21 24q1 1 4 1q23 0 29 -19l1 -3v-2q1 -2 1 -7q0 -12 5 -27v-1q4 -19 10 -55
l15 -91q4 -28 7 -42v-2q1 -9 8 -40v-1q5 -29 10 -46v-1l12 -62l3 -15v-2q2 -11 8 -43l3 -15l3 -15q0 -5 2 -13v-2q2 -12 4 -20l1 -4l6 -30q4 -20 7 -30v-1q0 -2 2 -8q0 -2 1.5 -9t2.5 -12q2 -8 8 -26q0 -2 5 -16q4 -13 6 -27zM138 379h2q26 0 39 1q-9 44 -14 73q-5 17 -6 33
l-7 41l-3 16q-1 -1 -1 -4t-1 -5q0 -2 -0.5 -4t-0.5 -4q-3 -13 -7 -37l-14 -112h1q6 0 10 1z" />
    <glyph glyph-name="Aring" unicode="&#xc5;" horiz-adv-x="689" 
d="M468 765q0 -43 -23 -72l245 -693h-163l-52 170h-260l-52 -170h-163l244 693q-21 28 -21 71q0 53 33 84.5t88 31.5q53 0 88.5 -31.5t35.5 -83.5zM439 297q-72 231 -81 261t-13 48q-16 -62 -92 -309h186zM391 764q0 22 -13 34.5t-34 12.5t-34 -12.5t-13 -34.5q0 -45 47 -47
q21 0 34 12.5t13 34.5z" />
    <glyph glyph-name="AE" unicode="&#xc6;" horiz-adv-x="952" 
d="M893 0h-426v170h-240l-73 -170h-154l320 714h573v-124h-275v-157h257v-124h-257v-184h275v-125zM282 297h185v288h-62z" />
    <glyph glyph-name="Ccedilla" unicode="&#xc7;" horiz-adv-x="637" 
d="M278 684l4 -7l2 -4q6 -7 4 -17q-3 -11 -13 -17q-6 -3 -11 -3q-6 0 -10 3q-14 4 -23 20q-7 13 -28 21q-8 3 -26 5q-10 1 -22 -7q-2 -2 -6 -5.5t-6.5 -6t-4.5 -5.5q-26 -31 -42 -70v-1q-1 -2 -6 -19l-1 -4q-1 -5 -3 -15.5t-3 -15.5q-2 -10 -2 -15q0 -1 -0.5 -4t-0.5 -5
q-2 -18 -4 -49q-1 -12 -1 -35v-1q-2 -29 0 -58v-1q0 -69 2 -104v-7q1 -4 2.5 -12t1.5 -11q2 -18 8 -52v-1q5 -31 14 -49q3 -8 10 -17v-1q2 -3 6 -11l5 -8l2 -3l1 -3l1 -2v-3l2 -3q5 -10 11 -13q7 -2 13 -8q16 -7 25 -7h3q2 1 5 1t4 1q20 2 29 8h1q7 5 9 10v1l1 1q1 1 2 4
t2 5l3 5v1q8 14 22 14q5 0 8 -1l4 -1l3 -3l7 -7q7 -13 3 -24q-14 -51 -66 -62l-14 -3q-13 -3 -27 -3t-26 3q-7 1 -17 6l-4 2h-2l-2 2q-3 2 -9 5.5t-9 5.5q-13 7 -20 19v1h-1q-2 4 -9 17l-2 2l-3 7q-2 3 -4.5 8t-3.5 8q-6 8 -18 37l-3 11q0 2 -2 6q-3 8 -7 28q0 3 -1.5 8
t-1.5 6l-2 8q-3 9 -3 13q0 6 -2 24q-3 33 -3 36q0 5 1 7v5l-1 1q-3 19 -1 45v2v3q-2 24 0 45v20v18q-2 7 -2 19v3v1l3 42q2 40 5 58l6 33q2 6 4 16v1q0 1 0.5 3t0.5 3q2 14 7 24q8 20 19 36q5 8 7 12l14 21l6 8q10 12 18 19q8 8 18 15q13 10 36 14h1q32 3 59 -9h1l3 -1
q30 -10 48 -40l1 -2zM468 -122q0 -62 -37 -90t-114 -28q-38 0 -71 10v82q13 -3 35.5 -6.5t34.5 -3.5q35 0 35 30q0 41 -81 53l38 75h94l-13 -30q36 -12 57.5 -36.5t21.5 -55.5z" />
    <glyph glyph-name="Egrave" unicode="&#xc8;" horiz-adv-x="560" 
d="M23 596q-1 8 -1 25q-2 13 -2 38v9v14l1 2q1 10 0 23q-2 13 6 21q7 10 21 10h9q16 -2 25 -2q17 0 26 1h30h6h2h2q10 1 30 1q6 1 18 1h1h24q8 1 26 1q5 0 17 -4q8 -4 12 -15h1v-2q7 -19 -12 -28q-7 -5 -20 -5h-28q-45 0 -67 -2h-20h-8h-8h-10q-15 -2 -29 0q-3 -32 -1 -60
t2 -42v-27q0 -52 1 -78v-1v-19q-1 -6 -1 -17q1 -7 1 -22q2 -20 2 -31q33 0 35 2h4h14q1 0 3.5 0.5t4.5 0.5h10l4 -2q15 -5 15 -22q0 -16 -13 -23q-10 -6 -28 -6h-4h-3q-16 -2 -26 -2h-11h-7v-5q0 -23 1 -34v-2q2 -28 1 -42q-1 -36 1 -108v-27q0 -26 -1 -40v-9v-15q3 1 11 1
t11 1h1q12 2 18 2l117 3h6q2 1 8 1h3q14 0 28 -14q7 -8 5 -19q-1 -7 -9 -15q-8 -6 -16 -6h-2h-1h-1h-7q-1 1 -4 1q-4 0 -6 -1h-3q-38 0 -90 -2h-1q-21 0 -44 -3q-15 -2 -46 -2q-23 0 -30 23l-1 1l-1 9q-2 24 -1 37q3 18 1 48v29q0 26 -1 40q-2 20 0 42q2 16 0 51v1v21
q-1 11 -1 30q3 56 0 86v20q0 51 -1 76v20v8v1q1 9 1 53zM309 771q-31 21 -90.5 69.5t-92.5 80.5v10h167q31 -49 115 -147v-13h-99z" />
    <glyph glyph-name="Eacute" unicode="&#xc9;" horiz-adv-x="560" 
d="M23 596q-1 8 -1 25q-2 13 -2 38v9v14l1 2q1 10 0 23q-2 13 6 21q7 10 21 10h9q16 -2 25 -2q17 0 26 1h30h6h2h2q10 1 30 1q6 1 18 1h1h24q8 1 26 1q5 0 17 -4q8 -4 12 -15h1v-2q7 -19 -12 -28q-7 -5 -20 -5h-28q-45 0 -67 -2h-20h-8h-8h-10q-15 -2 -29 0q-3 -32 -1 -60
t2 -42v-27q0 -52 1 -78v-1v-19q-1 -6 -1 -17q1 -7 1 -22q2 -20 2 -31q33 0 35 2h4h14q1 0 3.5 0.5t4.5 0.5h10l4 -2q15 -5 15 -22q0 -16 -13 -23q-10 -6 -28 -6h-4h-3q-16 -2 -26 -2h-11h-7v-5q0 -23 1 -34v-2q2 -28 1 -42q-1 -36 1 -108v-27q0 -26 -1 -40v-9v-15q3 1 11 1
t11 1h1q12 2 18 2l117 3h6q2 1 8 1h3q14 0 28 -14q7 -8 5 -19q-1 -7 -9 -15q-8 -6 -16 -6h-2h-1h-1h-7q-1 1 -4 1q-4 0 -6 -1h-3q-38 0 -90 -2h-1q-21 0 -44 -3q-15 -2 -46 -2q-23 0 -30 23l-1 1l-1 9q-2 24 -1 37q3 18 1 48v29q0 26 -1 40q-2 20 0 42q2 16 0 51v1v21
q-1 11 -1 30q3 56 0 86v20q0 51 -1 76v20v8v1q1 9 1 53zM207 771v13q84 98 115 147h167v-10q-25 -25 -86.5 -75.5t-96.5 -74.5h-99z" />
    <glyph glyph-name="Ecircumflex" unicode="&#xca;" horiz-adv-x="560" 
d="M411 771q-77 45 -114 86q-38 -40 -112 -86h-99v13q92 92 125 147h174q15 -25 52.5 -69t72.5 -78v-13h-99zM23 596q-1 8 -1 25q-2 13 -2 38v9v14l1 2q1 10 0 23q-2 13 6 21q7 10 21 10h9q16 -2 25 -2q17 0 26 1h30h6h2h2q10 1 30 1q6 1 18 1h1h24q8 1 26 1q5 0 17 -4
q8 -4 12 -15h1v-2q7 -19 -12 -28q-7 -5 -20 -5h-28q-45 0 -67 -2h-20h-8h-8h-10q-15 -2 -29 0q-3 -32 -1 -60t2 -42v-27q0 -52 1 -78v-1v-19q-1 -6 -1 -17q1 -7 1 -22q2 -20 2 -31q33 0 35 2h4h14q1 0 3.5 0.5t4.5 0.5h10l4 -2q15 -5 15 -22q0 -16 -13 -23q-10 -6 -28 -6h-4
h-3q-16 -2 -26 -2h-11h-7v-5q0 -23 1 -34v-2q2 -28 1 -42q-1 -36 1 -108v-27q0 -26 -1 -40v-9v-15q3 1 11 1t11 1h1q12 2 18 2l117 3h6q2 1 8 1h3q14 0 28 -14q7 -8 5 -19q-1 -7 -9 -15q-8 -6 -16 -6h-2h-1h-1h-7q-1 1 -4 1q-4 0 -6 -1h-3q-38 0 -90 -2h-1q-21 0 -44 -3
q-15 -2 -46 -2q-23 0 -30 23l-1 1l-1 9q-2 24 -1 37q3 18 1 48v29q0 26 -1 40q-2 20 0 42q2 16 0 51v1v21q-1 11 -1 30q3 56 0 86v20q0 51 -1 76v20v8v1q1 9 1 53z" />
    <glyph glyph-name="Edieresis" unicode="&#xcb;" horiz-adv-x="560" 
d="M23 596q-1 8 -1 25q-2 13 -2 38v9v14l1 2q1 10 0 23q-2 13 6 21q7 10 21 10h9q16 -2 25 -2q17 0 26 1h30h6h2h2q10 1 30 1q6 1 18 1h1h24q8 1 26 1q5 0 17 -4q8 -4 12 -15h1v-2q7 -19 -12 -28q-7 -5 -20 -5h-28q-45 0 -67 -2h-20h-8h-8h-10q-15 -2 -29 0q-3 -32 -1 -60
t2 -42v-27q0 -52 1 -78v-1v-19q-1 -6 -1 -17q1 -7 1 -22q2 -20 2 -31q33 0 35 2h4h14q1 0 3.5 0.5t4.5 0.5h10l4 -2q15 -5 15 -22q0 -16 -13 -23q-10 -6 -28 -6h-4h-3q-16 -2 -26 -2h-11h-7v-5q0 -23 1 -34v-2q2 -28 1 -42q-1 -36 1 -108v-27q0 -26 -1 -40v-9v-15q3 1 11 1
t11 1h1q12 2 18 2l117 3h6q2 1 8 1h3q14 0 28 -14q7 -8 5 -19q-1 -7 -9 -15q-8 -6 -16 -6h-2h-1h-1h-7q-1 1 -4 1q-4 0 -6 -1h-3q-38 0 -90 -2h-1q-21 0 -44 -3q-15 -2 -46 -2q-23 0 -30 23l-1 1l-1 9q-2 24 -1 37q3 18 1 48v29q0 26 -1 40q-2 20 0 42q2 16 0 51v1v21
q-1 11 -1 30q3 56 0 86v20q0 51 -1 76v20v8v1q1 9 1 53zM133 851q0 32 18.5 49t49.5 17q32 0 50.5 -18t18.5 -48q0 -29 -18.5 -47t-50.5 -18q-31 0 -49.5 17t-18.5 48zM330 851q0 34 20 50t49 16q32 0 50.5 -17.5t18.5 -48.5q0 -30 -19 -47.5t-50 -17.5q-29 0 -49 16t-20 49
z" />
    <glyph glyph-name="Igrave" unicode="&#xcc;" horiz-adv-x="389" 
d="M113 0h-5h-77l-5 14q-1 1 -1 2l-3 5l-2 4v14l4 4q2 5 5 8l6 6h23q-1 11 -1 35v10.5v13v11.5q-1 8 -1 25q-2 78 -2 120v2q1 11 1 33v30v25v1q0 29 1 42v42v22q-1 7 -1 23q-2 44 3 78q1 6 1 23v34q1 29 0 59h-28l-5 14q-1 1 -1 2l-3 5l-2 4v14l4 4q2 4 5 8l6 6h77
q2 0 4.5 -0.5t3.5 -0.5h1h2l3 -1q22 -7 18 -30q-2 -19 -18 -23q-10 -3 -16 -2v-2q2 -30 2 -47v-1v-20q0 -14 -1 -22q0 -28 -3 -54q-2 -20 0 -58q2 -32 0 -64v-14q2 -47 0 -92q0 -8 -0.5 -26t-0.5 -27q0 -33 2 -95l3 -68v-9v-15v-2v-13q2 0 4.5 -0.5t3.5 -0.5h1h2l3 -1
q22 -7 18 -30q-2 -19 -18 -23q-4 -2 -13 -2zM203 771q-31 21 -90.5 69.5t-92.5 80.5v10h167q31 -49 115 -147v-13h-99z" />
    <glyph glyph-name="Iacute" unicode="&#xcd;" horiz-adv-x="389" 
d="M113 0h-5h-77l-5 14q-1 1 -1 2l-3 5l-2 4v14l4 4q2 5 5 8l6 6h23q-1 11 -1 35v10.5v13v11.5q-1 8 -1 25q-2 78 -2 120v2q1 11 1 33v30v25v1q0 29 1 42v42v22q-1 7 -1 23q-2 44 3 78q1 6 1 23v34q1 29 0 59h-28l-5 14q-1 1 -1 2l-3 5l-2 4v14l4 4q2 4 5 8l6 6h77
q2 0 4.5 -0.5t3.5 -0.5h1h2l3 -1q22 -7 18 -30q-2 -19 -18 -23q-10 -3 -16 -2v-2q2 -30 2 -47v-1v-20q0 -14 -1 -22q0 -28 -3 -54q-2 -20 0 -58q2 -32 0 -64v-14q2 -47 0 -92q0 -8 -0.5 -26t-0.5 -27q0 -33 2 -95l3 -68v-9v-15v-2v-13q2 0 4.5 -0.5t3.5 -0.5h1h2l3 -1
q22 -7 18 -30q-2 -19 -18 -23q-4 -2 -13 -2zM116 771v13q84 98 115 147h167v-10q-25 -25 -86.5 -75.5t-96.5 -74.5h-99z" />
    <glyph glyph-name="Icircumflex" unicode="&#xce;" horiz-adv-x="389" 
d="M308 771q-77 45 -114 86q-38 -40 -112 -86h-99v13q92 92 125 147h174q15 -25 52.5 -69t72.5 -78v-13h-99zM113 0h-5h-77l-5 14q-1 1 -1 2l-3 5l-2 4v14l4 4q2 5 5 8l6 6h23q-1 11 -1 35v10.5v13v11.5q-1 8 -1 25q-2 78 -2 120v2q1 11 1 33v30v25v1q0 29 1 42v42v22
q-1 7 -1 23q-2 44 3 78q1 6 1 23v34q1 29 0 59h-28l-5 14q-1 1 -1 2l-3 5l-2 4v14l4 4q2 4 5 8l6 6h77q2 0 4.5 -0.5t3.5 -0.5h1h2l3 -1q22 -7 18 -30q-2 -19 -18 -23q-10 -3 -16 -2v-2q2 -30 2 -47v-1v-20q0 -14 -1 -22q0 -28 -3 -54q-2 -20 0 -58q2 -32 0 -64v-14
q2 -47 0 -92q0 -8 -0.5 -26t-0.5 -27q0 -33 2 -95l3 -68v-9v-15v-2v-13q2 0 4.5 -0.5t3.5 -0.5h1h2l3 -1q22 -7 18 -30q-2 -19 -18 -23q-4 -2 -13 -2z" />
    <glyph glyph-name="Idieresis" unicode="&#xcf;" horiz-adv-x="389" 
d="M113 0h-5h-77l-5 14q-1 1 -1 2l-3 5l-2 4v14l4 4q2 5 5 8l6 6h23q-1 11 -1 35v10.5v13v11.5q-1 8 -1 25q-2 78 -2 120v2q1 11 1 33v30v25v1q0 29 1 42v42v22q-1 7 -1 23q-2 44 3 78q1 6 1 23v34q1 29 0 59h-28l-5 14q-1 1 -1 2l-3 5l-2 4v14l4 4q2 4 5 8l6 6h77
q2 0 4.5 -0.5t3.5 -0.5h1h2l3 -1q22 -7 18 -30q-2 -19 -18 -23q-10 -3 -16 -2v-2q2 -30 2 -47v-1v-20q0 -14 -1 -22q0 -28 -3 -54q-2 -20 0 -58q2 -32 0 -64v-14q2 -47 0 -92q0 -8 -0.5 -26t-0.5 -27q0 -33 2 -95l3 -68v-9v-15v-2v-13q2 0 4.5 -0.5t3.5 -0.5h1h2l3 -1
q22 -7 18 -30q-2 -19 -18 -23q-4 -2 -13 -2zM28 851q0 32 18.5 49t49.5 17q32 0 50.5 -18t18.5 -48q0 -29 -18.5 -47t-50.5 -18q-31 0 -49.5 17t-18.5 48zM225 851q0 34 20 50t49 16q32 0 50.5 -17.5t18.5 -48.5q0 -30 -19 -47.5t-50 -17.5q-29 0 -49 16t-20 49z" />
    <glyph glyph-name="Eth" unicode="&#xd0;" horiz-adv-x="740" 
d="M23 415h67v299h224q175 0 271.5 -92.5t96.5 -257.5q0 -176 -100.5 -270t-289.5 -94h-202v291h-67v124zM525 360q0 113 -51 171.5t-153 58.5h-80v-175h116v-124h-116v-166h64q220 0 220 235z" />
    <glyph glyph-name="Ntilde" unicode="&#xd1;" horiz-adv-x="812" 
d="M326 822q-15 0 -29 -13t-20 -39h-73q5 71 40 111t93 40q20 0 39 -8t38 -17.5t37 -17.5t36 -8q15 0 29 12.5t20 39.5h73q-5 -71 -40.5 -111t-92.5 -40q-20 0 -39.5 8t-38 17.5t-36.5 17.5t-36 8zM294 108q2 -26 2 -38l3 -27v-1q0 -13 -10 -25q-7 -7 -18 -7q-18 0 -23 15
l-21 51q-2 4 -4 12q-2 3 -4 9q-8 19 -22 57l-1 2v1q-3 9 -4 11q-10 18 -22 56l-3 10q-1 3 -2.5 9t-2.5 9t-2.5 9.5t-2.5 9.5l-15 39q-18 53 -23 72q-7 25 -13 44q-2 6 -4 11l-1 3q-2 6 -13 40l-3 12v-16v-72q0 -10 2 -34v-42q1 -5 1 -12v-2q-2 -36 -1 -60v-1q0 -16 -1 -25
q0 -19 -2 -53q0 -10 2 -34v-1q1 -9 1 -27v-26v-1q0 -16 1 -24q2 -16 2 -28q0 -11 -8 -21l-2 -1l-1 -2q-10 -4 -15 -4q-22 0 -24 22q0 1 -1 3.5t-1 3.5q-6 32 -5 51l1 1q1 16 -1 46q0 8 -1 12q-2 56 2 80v12q0 1 -0.5 4t-0.5 5q0 28 1 43v65l-3 42v17l1 2v12v26q0 29 -1 42
l-1 1v20v12q-4 19 -4 41q0 9 -1 14q-4 89 -5 119q0 2 0.5 6t0.5 5v5v5l3 4q6 14 23 14q7 0 10 -2q14 -7 18 -19q16 -38 19 -53v-1q4 -18 7 -28v-1q7 -27 19 -67v-1l22 -78q5 -18 15 -51t14 -47h1q4 -15 11 -35q1 -4 3.5 -12t3.5 -12l3 -7q6 -15 7 -19l1 -3q9 -17 11 -29
q10 -40 23 -69l3 -9q0 22 1 33v7l-3 72v1q0 13 -2 41v1q0 7 2 12q1 24 -1 73q-1 7 -1 22v10q-3 17 -3 49v9v50q0 3 -0.5 7.5t-0.5 6.5q-1 5 -1 14q0 35 -1 52v45q0 13 5 26q5 16 24 16q14 0 21 -13q4 -5 4 -14v-1v-31v-16q1 -12 1 -34q0 -6 -1 -9h1v-19q1 -17 1 -49
q1 -16 1 -48v-1q0 -3 0.5 -11t0.5 -12q1 -8 1 -24q2 -40 2 -59q0 -25 -1 -38q0 -10 1 -16v-13q4 -26 2 -56q0 -4 0.5 -11.5t0.5 -12.5v-26v-1q-2 -43 0 -84q2 -26 2 -38z" />
    <glyph glyph-name="Ograve" unicode="&#xd2;" horiz-adv-x="795" 
d="M82 21h-1q-17 12 -25 28q-19 40 -23 69q-2 12 -2 17l-3 15q-3 15 -3 43q0 25 2 75v2v13q0 31 -1 37q-1 9 -1 28v2q2 20 0 44q-1 10 -1 30q0 14 -1 22v36q0 10 -2 36q-2 23 2 57v1l7 43q4 29 15 51l1 1q23 42 64 60q5 3 17 5h3l2 1h1q8 2 13 2q10 0 17 -3q24 -6 48 -18
q26 -14 38 -43l1 -1q14 -41 16 -83v-1v-2v-1q0 -2 0.5 -6.5t0.5 -7.5q2 -30 1 -46v-2v-8q1 -3 1 -11v-21v-44q0 -29 1 -44q2 -64 -1 -106q0 -20 1 -30v-1v-59v-28q0 -9 -1 -12v-8v-3q-1 -5 -1 -15q2 -37 -22 -77q-6 -11 -22 -27q-2 -1 -6 -5q-3 -4 -19 -14v-1h-1l-12 -4
l-1 -1q-17 -6 -48 -6q-17 0 -31 8h-1q-5 3 -22 12zM190 668l-3 3q-1 0 -1 1l-34 11l-1 1q-2 1 -6 1q-2 0 -4 -1h-1l-2 -1q-17 -3 -33 -19l-2 -3q-17 -23 -18 -40q-1 -4 -2 -11.5t-2 -11.5q-4 -18 -4 -25v-3l-1 -3q-3 -10 -3 -32v-7q0 -11 1 -17q2 -21 0 -34l1 -2
q1 -10 1 -28q1 -5 1 -14v-62v-23v-9q2 -24 2 -36q0 -3 0.5 -9t0.5 -9v-1v-10q1 -4 1 -12v-2l-1 -3v-2l2 -6l-2 -4v-1l1 -3v-4q-2 -26 -2 -37v-4l-1 -3q-1 -1 0 -4v-4v-5q0 -9 1 -12v-1l1 -2q1 -6 4 -27v-3q3 -23 7 -36l10 -21q1 -4 8 -11q6 -4 27 -15h2q19 0 28 2
q10 3 19 12v1l15 14q1 1 3.5 7t5.5 12q6 15 6 30v1q0 5 0.5 14t0.5 14q2 36 2 55q0 34 -1 52q-1 19 0 38q1 10 1 58v20v3q-1 1 -1 5q-3 17 -1 48q1 10 1 29v30v1l-1 2q-3 18 -1 45v3q2 7 -1 20v2q-2 18 -2 25q-1 31 -10 51v2q-3 13 -12 20zM402 771q-31 21 -90.5 69.5
t-92.5 80.5v10h167q31 -49 115 -147v-13h-99z" />
    <glyph glyph-name="Oacute" unicode="&#xd3;" horiz-adv-x="795" 
d="M82 21h-1q-17 12 -25 28q-19 40 -23 69q-2 12 -2 17l-3 15q-3 15 -3 43q0 25 2 75v2v13q0 31 -1 37q-1 9 -1 28v2q2 20 0 44q-1 10 -1 30q0 14 -1 22v36q0 10 -2 36q-2 23 2 57v1l7 43q4 29 15 51l1 1q23 42 64 60q5 3 17 5h3l2 1h1q8 2 13 2q10 0 17 -3q24 -6 48 -18
q26 -14 38 -43l1 -1q14 -41 16 -83v-1v-2v-1q0 -2 0.5 -6.5t0.5 -7.5q2 -30 1 -46v-2v-8q1 -3 1 -11v-21v-44q0 -29 1 -44q2 -64 -1 -106q0 -20 1 -30v-1v-59v-28q0 -9 -1 -12v-8v-3q-1 -5 -1 -15q2 -37 -22 -77q-6 -11 -22 -27q-2 -1 -6 -5q-3 -4 -19 -14v-1h-1l-12 -4
l-1 -1q-17 -6 -48 -6q-17 0 -31 8h-1q-5 3 -22 12zM190 668l-3 3q-1 0 -1 1l-34 11l-1 1q-2 1 -6 1q-2 0 -4 -1h-1l-2 -1q-17 -3 -33 -19l-2 -3q-17 -23 -18 -40q-1 -4 -2 -11.5t-2 -11.5q-4 -18 -4 -25v-3l-1 -3q-3 -10 -3 -32v-7q0 -11 1 -17q2 -21 0 -34l1 -2
q1 -10 1 -28q1 -5 1 -14v-62v-23v-9q2 -24 2 -36q0 -3 0.5 -9t0.5 -9v-1v-10q1 -4 1 -12v-2l-1 -3v-2l2 -6l-2 -4v-1l1 -3v-4q-2 -26 -2 -37v-4l-1 -3q-1 -1 0 -4v-4v-5q0 -9 1 -12v-1l1 -2q1 -6 4 -27v-3q3 -23 7 -36l10 -21q1 -4 8 -11q6 -4 27 -15h2q19 0 28 2
q10 3 19 12v1l15 14q1 1 3.5 7t5.5 12q6 15 6 30v1q0 5 0.5 14t0.5 14q2 36 2 55q0 34 -1 52q-1 19 0 38q1 10 1 58v20v3q-1 1 -1 5q-3 17 -1 48q1 10 1 29v30v1l-1 2q-3 18 -1 45v3q2 7 -1 20v2q-2 18 -2 25q-1 31 -10 51v2q-3 13 -12 20zM321 771v13q84 98 115 147h167
v-10q-25 -25 -86.5 -75.5t-96.5 -74.5h-99z" />
    <glyph glyph-name="Ocircumflex" unicode="&#xd4;" horiz-adv-x="795" 
d="M511 771q-77 45 -114 86q-38 -40 -112 -86h-99v13q92 92 125 147h174q15 -25 52.5 -69t72.5 -78v-13h-99zM82 21h-1q-17 12 -25 28q-19 40 -23 69q-2 12 -2 17l-3 15q-3 15 -3 43q0 25 2 75v2v13q0 31 -1 37q-1 9 -1 28v2q2 20 0 44q-1 10 -1 30q0 14 -1 22v36
q0 10 -2 36q-2 23 2 57v1l7 43q4 29 15 51l1 1q23 42 64 60q5 3 17 5h3l2 1h1q8 2 13 2q10 0 17 -3q24 -6 48 -18q26 -14 38 -43l1 -1q14 -41 16 -83v-1v-2v-1q0 -2 0.5 -6.5t0.5 -7.5q2 -30 1 -46v-2v-8q1 -3 1 -11v-21v-44q0 -29 1 -44q2 -64 -1 -106q0 -20 1 -30v-1v-59
v-28q0 -9 -1 -12v-8v-3q-1 -5 -1 -15q2 -37 -22 -77q-6 -11 -22 -27q-2 -1 -6 -5q-3 -4 -19 -14v-1h-1l-12 -4l-1 -1q-17 -6 -48 -6q-17 0 -31 8h-1q-5 3 -22 12zM190 668l-3 3q-1 0 -1 1l-34 11l-1 1q-2 1 -6 1q-2 0 -4 -1h-1l-2 -1q-17 -3 -33 -19l-2 -3q-17 -23 -18 -40
q-1 -4 -2 -11.5t-2 -11.5q-4 -18 -4 -25v-3l-1 -3q-3 -10 -3 -32v-7q0 -11 1 -17q2 -21 0 -34l1 -2q1 -10 1 -28q1 -5 1 -14v-62v-23v-9q2 -24 2 -36q0 -3 0.5 -9t0.5 -9v-1v-10q1 -4 1 -12v-2l-1 -3v-2l2 -6l-2 -4v-1l1 -3v-4q-2 -26 -2 -37v-4l-1 -3q-1 -1 0 -4v-4v-5
q0 -9 1 -12v-1l1 -2q1 -6 4 -27v-3q3 -23 7 -36l10 -21q1 -4 8 -11q6 -4 27 -15h2q19 0 28 2q10 3 19 12v1l15 14q1 1 3.5 7t5.5 12q6 15 6 30v1q0 5 0.5 14t0.5 14q2 36 2 55q0 34 -1 52q-1 19 0 38q1 10 1 58v20v3q-1 1 -1 5q-3 17 -1 48q1 10 1 29v30v1l-1 2q-3 18 -1 45
v3q2 7 -1 20v2q-2 18 -2 25q-1 31 -10 51v2q-3 13 -12 20z" />
    <glyph glyph-name="Otilde" unicode="&#xd5;" horiz-adv-x="795" 
d="M318 822q-15 0 -29 -13t-20 -39h-73q5 71 40 111t93 40q20 0 39 -8t38 -17.5t37 -17.5t36 -8q15 0 29 12.5t20 39.5h73q-5 -71 -40.5 -111t-92.5 -40q-20 0 -39.5 8t-38 17.5t-36.5 17.5t-36 8zM82 21h-1q-17 12 -25 28q-19 40 -23 69q-2 12 -2 17l-3 15q-3 15 -3 43
q0 25 2 75v2v13q0 31 -1 37q-1 9 -1 28v2q2 20 0 44q-1 10 -1 30q0 14 -1 22v36q0 10 -2 36q-2 23 2 57v1l7 43q4 29 15 51l1 1q23 42 64 60q5 3 17 5h3l2 1h1q8 2 13 2q10 0 17 -3q24 -6 48 -18q26 -14 38 -43l1 -1q14 -41 16 -83v-1v-2v-1q0 -2 0.5 -6.5t0.5 -7.5
q2 -30 1 -46v-2v-8q1 -3 1 -11v-21v-44q0 -29 1 -44q2 -64 -1 -106q0 -20 1 -30v-1v-59v-28q0 -9 -1 -12v-8v-3q-1 -5 -1 -15q2 -37 -22 -77q-6 -11 -22 -27q-2 -1 -6 -5q-3 -4 -19 -14v-1h-1l-12 -4l-1 -1q-17 -6 -48 -6q-17 0 -31 8h-1q-5 3 -22 12zM190 668l-3 3
q-1 0 -1 1l-34 11l-1 1q-2 1 -6 1q-2 0 -4 -1h-1l-2 -1q-17 -3 -33 -19l-2 -3q-17 -23 -18 -40q-1 -4 -2 -11.5t-2 -11.5q-4 -18 -4 -25v-3l-1 -3q-3 -10 -3 -32v-7q0 -11 1 -17q2 -21 0 -34l1 -2q1 -10 1 -28q1 -5 1 -14v-62v-23v-9q2 -24 2 -36q0 -3 0.5 -9t0.5 -9v-1v-10
q1 -4 1 -12v-2l-1 -3v-2l2 -6l-2 -4v-1l1 -3v-4q-2 -26 -2 -37v-4l-1 -3q-1 -1 0 -4v-4v-5q0 -9 1 -12v-1l1 -2q1 -6 4 -27v-3q3 -23 7 -36l10 -21q1 -4 8 -11q6 -4 27 -15h2q19 0 28 2q10 3 19 12v1l15 14q1 1 3.5 7t5.5 12q6 15 6 30v1q0 5 0.5 14t0.5 14q2 36 2 55
q0 34 -1 52q-1 19 0 38q1 10 1 58v20v3q-1 1 -1 5q-3 17 -1 48q1 10 1 29v30v1l-1 2q-3 18 -1 45v3q2 7 -1 20v2q-2 18 -2 25q-1 31 -10 51v2q-3 13 -12 20z" />
    <glyph glyph-name="Odieresis" unicode="&#xd6;" horiz-adv-x="291" 
d="M221 804q13 0 20 -11q11 -11 3 -26q-5 -10 -12 -14l-1 -1h-1q-6 -3 -12 -3q-5 0 -8 1q-12 2 -18 14l-2 5v7q0 12 8.5 20.5t19.5 8.5q2 0 3 -1zM71 804q13 0 20 -11q11 -11 3 -26q-5 -10 -12 -14l-1 -1h-1q-6 -3 -12 -3q-5 0 -8 1q-12 2 -18 14l-2 5v7q0 12 8.5 20.5
t19.5 8.5q2 0 3 -1zM82 21h-1q-17 12 -25 28q-19 40 -23 69q-2 12 -2 17l-3 15q-3 15 -3 43q0 25 2 75v2v13q0 31 -1 37q-1 9 -1 28v2q2 20 0 44q-1 10 -1 30q0 14 -1 22v36q0 10 -2 36q-2 23 2 57v1l7 43q4 29 15 51l1 1q23 42 64 60q5 3 17 5h3l2 1h1q8 2 13 2q10 0 17 -3
q24 -6 48 -18q26 -14 38 -43l1 -1q14 -41 16 -83v-1v-2v-1q0 -2 0.5 -6.5t0.5 -7.5q2 -30 1 -46v-2v-8q1 -3 1 -11v-21v-44q0 -29 1 -44q2 -64 -1 -106q0 -20 1 -30v-1v-59v-28q0 -9 -1 -12v-8v-3q-1 -5 -1 -15q2 -37 -22 -77q-6 -11 -22 -27q-2 -1 -6 -5q-3 -4 -19 -14v-1
h-1l-12 -4l-1 -1q-17 -6 -48 -6q-17 0 -31 8h-1q-5 3 -22 12zM190 668l-3 3q-1 0 -1 1l-34 11l-1 1q-2 1 -6 1q-2 0 -4 -1h-1l-2 -1q-17 -3 -33 -19l-2 -3q-17 -23 -18 -40q-1 -4 -2 -11.5t-2 -11.5q-4 -18 -4 -25v-3l-1 -3q-3 -10 -3 -32v-7q0 -11 1 -17q2 -21 0 -34l1 -2
q1 -10 1 -28q1 -5 1 -14v-62v-23v-9q2 -24 2 -36q0 -3 0.5 -9t0.5 -9v-1v-10q1 -4 1 -12v-2l-1 -3v-2l2 -6l-2 -4v-1l1 -3v-4q-2 -26 -2 -37v-4l-1 -3q-1 -1 0 -4v-4v-5q0 -9 1 -12v-1l1 -2q1 -6 4 -27v-3q3 -23 7 -36l10 -21q1 -4 8 -11q6 -4 27 -15h2q19 0 28 2
q10 3 19 12v1l15 14q1 1 3.5 7t5.5 12q6 15 6 30v1q0 5 0.5 14t0.5 14q2 36 2 55q0 34 -1 52q-1 19 0 38q1 10 1 58v20v3q-1 1 -1 5q-3 17 -1 48q1 10 1 29v30v1l-1 2q-3 18 -1 45v3q2 7 -1 20v2q-2 18 -2 25q-1 31 -10 51v2q-3 13 -12 20z" />
    <glyph glyph-name="multiply" unicode="&#xd7;" horiz-adv-x="487" 
d="M459 42v-1q18 -16 2 -38q-8 -13 -25 -13q-7 0 -13 3q-9 6 -11 8q-6 6 -9 10q-31 37 -77 94v1l-86 107l-33 -42q-53 -69 -58 -77l-1 -1q-17 -25 -38 -50q-20 -24 -29 -36v-1q-12 -14 -35 -14h-8l-6 6q-6 6 -7 12q-4 11 -1 21l1 2v1q4 8 12 16q24 25 51 63v1l1 1l9 12
q3 3 11 13q6 8 20 24l9 10l35 48l11 14q1 2 5 6.5t5 7.5q1 1 2 3l2 2q1 2 4 5l-2 2q-1 2 -4 6l-5 5q-11 15 -24 30q-22 28 -23 30l-57 69q-18 23 -56 69l-1 1l-8 12l-1 3q-3 9 1.5 20t13.5 16l2 1h1q11 3 23 0q13 -5 18 -18q12 -21 39 -52l63 -76l20 -26q6 -7 18.5 -22
t18.5 -23q6 6 12 14h1q4 6 12 16q42 53 54 70l1 1q6 9 20 25q21 26 28 35l10 12q15 21 18 29q8 18 29 18q12 0 19 -5h1l1 -1q22 -17 10 -38l-1 -1q-5 -10 -9 -15q-34 -34 -71 -84q-6 -8 -18 -22l-4 -4q-1 -2 -4 -5l-71 -93l1 -1l69 -84l63 -77q29 -36 49 -55z" />
    <glyph glyph-name="Oslash" unicode="&#xd8;" horiz-adv-x="795" 
d="M738 358q0 -177 -88 -272.5t-252 -95.5q-96 0 -164 32l-44 -66l-79 53l44 66q-97 95 -97 284q0 178 88 272t253 94q97 0 168 -34l41 61l78 -51l-43 -64q95 -94 95 -279zM217 358q0 -93 27 -150l247 369q-41 22 -92 22q-90 0 -136 -60.5t-46 -180.5zM579 358q0 88 -25 145
l-244 -367q37 -19 88 -19q181 0 181 241z" />
    <glyph glyph-name="Ugrave" unicode="&#xd9;" horiz-adv-x="755" 
d="M288 199v-3q3 -24 -1 -71v-1q-2 -29 -6 -44v-2q-5 -17 -16 -33l-2 -2l-5 -5v-1q-1 -1 -1 -2l-1 -1q-16 -20 -44 -28q-21 -6 -39 -6h-15q-5 -1 -17 -1q-27 0 -50 14v1q-23 15 -35 32l-1 1q-18 24 -23 50l-3 10q-6 28 -6 32v1l-1 2v2q-2 17 1 29v9q-1 4 -1 21q0 2 0.5 4.5
t0.5 3.5v1q1 18 1 53v1q0 33 1 50q0 33 1 50v17q-2 8 -2 24v16v18q-1 27 0 53l1 2q1 8 1 25q-1 7 -1 21q-1 7 -1 21q-1 8 -1 23q-1 7 -1 22q-4 28 -1 53v1q3 24 3 48q0 6 1 7v7l5 6q8 8 20 8h5q21 -4 21 -24v-11q0 -16 -1 -25v-13q0 -18 -2 -28l1 -2l3 -75q0 -9 1 -15v-3
q5 -30 0 -62v-1q-1 -5 -1 -17v-50q3 -14 3 -54v-16v-23l-1 -1q-2 -34 -2 -52q1 -21 -1 -63v-41q0 -28 11 -61q7 -24 34 -43l7 -3h1q2 1 8 1q8 0 14 -2q2 -1 4 -1h18h4q9 0 24 5q2 0 4 1l4 2q5 7 15 19q2 3 5 15q5 22 5 68v16q-2 40 -1 62q2 26 0 50v5q2 17 0 51v27v25
q0 4 0.5 11.5t0.5 11.5v1q2 39 1 58q-4 55 -1 90v10q-2 16 0 58v1q0 6 0.5 18.5t1.5 18.5q0 13 1 20q0 8 2 18q2 19 23 19q5 0 11 -3l6 -4q6 -6 7 -14q3 -15 3 -16v-11q0 -39 -4 -60q-1 -12 1 -27v-2q3 -15 0 -30q-2 -24 0 -48l1 -1q2 -46 2 -65q0 -29 -3 -43q-1 -7 -1 -25
l1 -10q0 -22 1 -34l2 -12l-1 -1v-39q0 -27 -2 -41v-1q0 -15 1 -22q2 -6 2 -18q0 -2 -0.5 -4.5t-0.5 -3.5zM366 771q-31 21 -90.5 69.5t-92.5 80.5v10h167q31 -49 115 -147v-13h-99z" />
    <glyph glyph-name="Uacute" unicode="&#xda;" horiz-adv-x="755" 
d="M288 199v-3q3 -24 -1 -71v-1q-2 -29 -6 -44v-2q-5 -17 -16 -33l-2 -2l-5 -5v-1q-1 -1 -1 -2l-1 -1q-16 -20 -44 -28q-21 -6 -39 -6h-15q-5 -1 -17 -1q-27 0 -50 14v1q-23 15 -35 32l-1 1q-18 24 -23 50l-3 10q-6 28 -6 32v1l-1 2v2q-2 17 1 29v9q-1 4 -1 21q0 2 0.5 4.5
t0.5 3.5v1q1 18 1 53v1q0 33 1 50q0 33 1 50v17q-2 8 -2 24v16v18q-1 27 0 53l1 2q1 8 1 25q-1 7 -1 21q-1 7 -1 21q-1 8 -1 23q-1 7 -1 22q-4 28 -1 53v1q3 24 3 48q0 6 1 7v7l5 6q8 8 20 8h5q21 -4 21 -24v-11q0 -16 -1 -25v-13q0 -18 -2 -28l1 -2l3 -75q0 -9 1 -15v-3
q5 -30 0 -62v-1q-1 -5 -1 -17v-50q3 -14 3 -54v-16v-23l-1 -1q-2 -34 -2 -52q1 -21 -1 -63v-41q0 -28 11 -61q7 -24 34 -43l7 -3h1q2 1 8 1q8 0 14 -2q2 -1 4 -1h18h4q9 0 24 5q2 0 4 1l4 2q5 7 15 19q2 3 5 15q5 22 5 68v16q-2 40 -1 62q2 26 0 50v5q2 17 0 51v27v25
q0 4 0.5 11.5t0.5 11.5v1q2 39 1 58q-4 55 -1 90v10q-2 16 0 58v1q0 6 0.5 18.5t1.5 18.5q0 13 1 20q0 8 2 18q2 19 23 19q5 0 11 -3l6 -4q6 -6 7 -14q3 -15 3 -16v-11q0 -39 -4 -60q-1 -12 1 -27v-2q3 -15 0 -30q-2 -24 0 -48l1 -1q2 -46 2 -65q0 -29 -3 -43q-1 -7 -1 -25
l1 -10q0 -22 1 -34l2 -12l-1 -1v-39q0 -27 -2 -41v-1q0 -15 1 -22q2 -6 2 -18q0 -2 -0.5 -4.5t-0.5 -3.5zM294 771v13q84 98 115 147h167v-10q-25 -25 -86.5 -75.5t-96.5 -74.5h-99z" />
    <glyph glyph-name="Ucircumflex" unicode="&#xdb;" horiz-adv-x="755" 
d="M491 771q-77 45 -114 86q-38 -40 -112 -86h-99v13q92 92 125 147h174q15 -25 52.5 -69t72.5 -78v-13h-99zM288 199v-3q3 -24 -1 -71v-1q-2 -29 -6 -44v-2q-5 -17 -16 -33l-2 -2l-5 -5v-1q-1 -1 -1 -2l-1 -1q-16 -20 -44 -28q-21 -6 -39 -6h-15q-5 -1 -17 -1q-27 0 -50 14
v1q-23 15 -35 32l-1 1q-18 24 -23 50l-3 10q-6 28 -6 32v1l-1 2v2q-2 17 1 29v9q-1 4 -1 21q0 2 0.5 4.5t0.5 3.5v1q1 18 1 53v1q0 33 1 50q0 33 1 50v17q-2 8 -2 24v16v18q-1 27 0 53l1 2q1 8 1 25q-1 7 -1 21q-1 7 -1 21q-1 8 -1 23q-1 7 -1 22q-4 28 -1 53v1q3 24 3 48
q0 6 1 7v7l5 6q8 8 20 8h5q21 -4 21 -24v-11q0 -16 -1 -25v-13q0 -18 -2 -28l1 -2l3 -75q0 -9 1 -15v-3q5 -30 0 -62v-1q-1 -5 -1 -17v-50q3 -14 3 -54v-16v-23l-1 -1q-2 -34 -2 -52q1 -21 -1 -63v-41q0 -28 11 -61q7 -24 34 -43l7 -3h1q2 1 8 1q8 0 14 -2q2 -1 4 -1h18h4
q9 0 24 5q2 0 4 1l4 2q5 7 15 19q2 3 5 15q5 22 5 68v16q-2 40 -1 62q2 26 0 50v5q2 17 0 51v27v25q0 4 0.5 11.5t0.5 11.5v1q2 39 1 58q-4 55 -1 90v10q-2 16 0 58v1q0 6 0.5 18.5t1.5 18.5q0 13 1 20q0 8 2 18q2 19 23 19q5 0 11 -3l6 -4q6 -6 7 -14q3 -15 3 -16v-11
q0 -39 -4 -60q-1 -12 1 -27v-2q3 -15 0 -30q-2 -24 0 -48l1 -1q2 -46 2 -65q0 -29 -3 -43q-1 -7 -1 -25l1 -10q0 -22 1 -34l2 -12l-1 -1v-39q0 -27 -2 -41v-1q0 -15 1 -22q2 -6 2 -18q0 -2 -0.5 -4.5t-0.5 -3.5z" />
    <glyph glyph-name="Udieresis" unicode="&#xdc;" horiz-adv-x="310" 
d="M231 814q13 0 20 -11q11 -11 3 -26q-5 -10 -12 -14l-1 -1h-1q-6 -3 -12 -3q-5 0 -8 1q-12 2 -18 14l-2 5v7q0 12 8.5 20.5t19.5 8.5q2 0 3 -1zM81 814q13 0 20 -11q11 -11 3 -26q-5 -10 -12 -14l-1 -1h-1q-6 -3 -12 -3q-5 0 -8 1q-12 2 -18 14l-2 5v7q0 12 8.5 20.5
t19.5 8.5q2 0 3 -1zM288 199v-3q3 -24 -1 -71v-1q-2 -29 -6 -44v-2q-5 -17 -16 -33l-2 -2l-5 -5v-1q-1 -1 -1 -2l-1 -1q-16 -20 -44 -28q-21 -6 -39 -6h-15q-5 -1 -17 -1q-27 0 -50 14v1q-23 15 -35 32l-1 1q-18 24 -23 50l-3 10q-6 28 -6 32v1l-1 2v2q-2 17 1 29v9
q-1 4 -1 21q0 2 0.5 4.5t0.5 3.5v1q1 18 1 53v1q0 33 1 50q0 33 1 50v17q-2 8 -2 24v16v18q-1 27 0 53l1 2q1 8 1 25q-1 7 -1 21q-1 7 -1 21q-1 8 -1 23q-1 7 -1 22q-4 28 -1 53v1q3 24 3 48q0 6 1 7v7l5 6q8 8 20 8h5q21 -4 21 -24v-11q0 -16 -1 -25v-13q0 -18 -2 -28l1 -2
l3 -75q0 -9 1 -15v-3q5 -30 0 -62v-1q-1 -5 -1 -17v-50q3 -14 3 -54v-16v-23l-1 -1q-2 -34 -2 -52q1 -21 -1 -63v-41q0 -28 11 -61q7 -24 34 -43l7 -3h1q2 1 8 1q8 0 14 -2q2 -1 4 -1h18h4q9 0 24 5q2 0 4 1l4 2q5 7 15 19q2 3 5 15q5 22 5 68v16q-2 40 -1 62q2 26 0 50v5
q2 17 0 51v27v25q0 4 0.5 11.5t0.5 11.5v1q2 39 1 58q-4 55 -1 90v10q-2 16 0 58v1q0 6 0.5 18.5t1.5 18.5q0 13 1 20q0 8 2 18q2 19 23 19q5 0 11 -3l6 -4q6 -6 7 -14q3 -15 3 -16v-11q0 -39 -4 -60q-1 -12 1 -27v-2q3 -15 0 -30q-2 -24 0 -48l1 -1q2 -46 2 -65
q0 -29 -3 -43q-1 -7 -1 -25l1 -10q0 -22 1 -34l2 -12l-1 -1v-39q0 -27 -2 -41v-1q0 -15 1 -22q2 -6 2 -18q0 -2 -0.5 -4.5t-0.5 -3.5z" />
    <glyph glyph-name="Yacute" unicode="&#xdd;" horiz-adv-x="624" 
d="M235 552v-2q-5 -25 -12 -39q-11 -25 -21 -58v-2l-24 -76l-21 -67l-1 -1v-2v-3q-3 -15 -13 -45l-2 -4q-1 -1 -1 -3l-1 -4q-1 -1 -1 -2q-1 -2 -1 -3l-6 -25q-6 -23 -6 -25q-7 -27 -22 -69v-1q-11 -28 -16 -47q-1 -4 -2.5 -9.5t-1.5 -8.5q-6 -21 -7 -28q-4 -22 -26 -26
q-1 -1 -5 -1q-11 0 -19 10q-6 7 -6 16q0 8 3 13q3 6 7 22q0 3 2 9q6 31 20 67q16 45 20 65l12 43q0 3 2 7q4 16 11 37l4 12q4 17 23 79l-1 3v5q0 1 -2 7q0 1 -1 2.5t-1.5 3t-0.5 3.5q-2 6 -4 16q-2 4 -4 12q-7 15 -11 28v1l-8 26q-9 26 -9 28l-30 97l-3 8l-2.5 7.5t-2.5 8.5
t-1 8q-5 19 -12 34l-7 22l-1 3v2q0 1 -0.5 3t-0.5 4v12l6 5q4 5 10 8l4 2h5q15 0 23 -13l1 -1v-1q1 -3 3.5 -10t3.5 -11q12 -33 14 -44q7 -26 21 -65l6 -22q2 -5 4.5 -13.5t3.5 -11.5q8 -24 11 -37q7 -12 10 -27q1 -2 4 -11l18 48q8 17 9 31l1 1l4 23v1l4 13q13 38 25 85v1
l9 28q4 15 17 22l4 2h8q12 0 19 -10l4 -4v-6q1 -6 -1 -12q0 -1 -0.5 -3.5t-1.5 -3.5q0 -1 -0.5 -3t-0.5 -3l-1 -1v-1l-1 -4q-7 -19 -8 -31v-1l-9 -31v-1l-6 -19q-1 -2 -2.5 -7t-2.5 -8q-4 -14 -5 -27zM225 771v13q84 98 115 147h167v-10q-25 -25 -86.5 -75.5t-96.5 -74.5
h-99z" />
    <glyph glyph-name="Thorn" unicode="&#xde;" horiz-adv-x="627" 
d="M583 376q0 -112 -69.5 -172.5t-197.5 -60.5h-75v-143h-151v714h151v-112h87q124 0 189.5 -58t65.5 -168zM241 265h49q71 0 105.5 25.5t34.5 85.5q0 52 -31 77.5t-97 25.5h-61v-214z" />
    <glyph glyph-name="germandbls" unicode="&#xdf;" horiz-adv-x="294" 
d="M272 155q-2 -18 -9 -30q-11 -19 -17 -29q-16 -28 -39 -46q-15 -16 -44 -26h-2q-14 -4 -23 -5h-4q-23 0 -49 14q-20 11 -45 34q-4 6 -6 11q-1 1 -1 2l-2 2v2q-4 10 3 22q8 11 22 11q10 0 17 -6l7 -7q16 -19 41 -28h1q6 -2 10 -2l1 -1h3h1q26 6 38 19l19 24l5 6q1 3 5 7
q5 10 8 13q9 14 9 39q0 2 -2 10l-1 1v1q-2 11 -16 43q-2 2 -4 6q-10 20 -16 28l-1 2q-8 13 -26 37q-15 18 -23 32q-9 15 -18 24q-7 4 -12 13q-8 12 -1 21q2 7 10 12q11 13 18 27l12 21q8 10 29 46q9 17 18 28l21 29q8 14 9 23q0 2 0.5 6t0.5 5q2 12 2 17q0 27 -16 45
q-14 16 -21 22q-11 10 -24 14q-1 1 -3 1q-18 6 -20 7q-11 4 -23 -1l-1 -1h-2q-34 -16 -63.5 -157t-44.5 -300t-27.5 -292.5t-16.5 -137.5q-1 0 -1 -1l-2 -2q-1 -2 -2 -3q-6 -9 -18 -9q-9 0 -17 6l-2 3l-1 3q-4 6 -4 14v5l2 4q1 2 20 216t52 433.5t69 247.5q21 16 50 24
q13 3 24 3q12 0 27 -5l1 -1h3q28 -6 52 -26q29 -22 48 -53q14 -23 14 -47v-15q0 -11 -4 -35q-5 -29 -21 -49q-2 -2 -5.5 -7.5t-5.5 -8.5l-9 -12l-1 -1l-6 -9t-5 -8v-1l-23 -39q-8 -12 -11 -18q-8 -12 -11 -18l-9 -13q6 -7 11 -16q8 -13 15 -20v-1q13 -15 32 -44
q21 -28 42 -79q16 -37 9 -76z" />
    <glyph glyph-name="agrave" unicode="&#xe0;" horiz-adv-x="604" 
d="M306 47q0 -4 2 -12q2 -9 -5 -24h-1l-1 -2l-1 -1q-8 -8 -19 -8q-7 0 -12 3h-1l-1 1q-12 8 -14 21l-6 24q0 1 -0.5 3.5t-0.5 4.5q0 1 -0.5 3.5t-1.5 3.5l-9 38q-2 6 -5 19t-5 20q-4 18 -5 26l-6 25v1l-6 34q-5 30 -17 90q-1 3 -1 10h-10h-10h-12q-3 -1 -11 -1
q-18 -2 -27 -2h-4l-3 -26l-3 -21q0 -4 -1 -12.5t-1 -12.5l-1 -1q-1 -2 -1 -6.5t-1 -6.5l-3 -15q-5 -24 -6 -46l-3 -21l-2 -17q-2 -19 -8 -47q0 -4 -2 -12q0 -1 -1.5 -11t-1.5 -15v-1l-1 -1q-1 -8 -1 -26q0 -23 -21 -28q-4 -2 -9 -2q-12 0 -20 10q-5 5 -5 15q-1 5 0 9v4l1 2
q1 32 10 70q0 4 2 12q2 10 2 17v2q0 3 0.5 8.5t1.5 8.5q4 24 6 47q0 8 2 14q1 1 1 3q3 18 10 67q4 34 8 54q7 35 11 78q0 10 4 30q0 5 2 13v2q2 18 4 27v4q4 28 7 42l9 49q0 3 1 5q1 16 5 41q2 6 4 22q2 18 4 26q0 3 2 13l3 18q0 22 20 24q1 1 4 1q24 0 30 -19l1 -3v-2
q0 -1 0.5 -3t0.5 -4q0 -15 4 -27v-1q4 -19 10 -55l16 -91q5 -38 6 -42v-2q1 -9 8 -40v-1q5 -29 10 -46v-1l12 -62l3 -15v-1l1 -1q1 -12 7 -43l3 -15l3 -15q0 -2 0.5 -6.5t1.5 -6.5v-1l1 -1q0 -4 1.5 -11.5t1.5 -8.5q1 -1 1 -4l6 -30q4 -20 7 -30v-1q1 -1 1.5 -4t0.5 -4
q4 -12 4 -21q2 -8 8 -26q1 -3 2.5 -8.5t2.5 -7.5q1 -3 7 -27zM138 379h3q25 0 38 1q-9 44 -14 73q-1 5 -2 10.5t-2 12t-2 10.5l-7 41l-3 16q0 -3 -2 -9q0 -2 -0.5 -4t-0.5 -4q-5 -20 -6 -37l-14 -112h1q5 0 9 1zM300 606q-31 21 -90.5 69.5t-92.5 80.5v10h167
q31 -49 115 -147v-13h-99z" />
    <glyph glyph-name="aacute" unicode="&#xe1;" horiz-adv-x="604" 
d="M306 47q0 -4 2 -12q2 -9 -5 -24h-1l-1 -2l-1 -1q-8 -8 -19 -8q-7 0 -12 3h-1l-1 1q-12 8 -14 21l-6 24q0 1 -0.5 3.5t-0.5 4.5q0 1 -0.5 3.5t-1.5 3.5l-9 38q-2 6 -5 19t-5 20q-4 18 -5 26l-6 25v1l-6 34q-5 30 -17 90q-1 3 -1 10h-10h-10h-12q-3 -1 -11 -1
q-18 -2 -27 -2h-4l-3 -26l-3 -21q0 -4 -1 -12.5t-1 -12.5l-1 -1q-1 -2 -1 -6.5t-1 -6.5l-3 -15q-5 -24 -6 -46l-3 -21l-2 -17q-2 -19 -8 -47q0 -4 -2 -12q0 -1 -1.5 -11t-1.5 -15v-1l-1 -1q-1 -8 -1 -26q0 -23 -21 -28q-4 -2 -9 -2q-12 0 -20 10q-5 5 -5 15q-1 5 0 9v4l1 2
q1 32 10 70q0 4 2 12q2 10 2 17v2q0 3 0.5 8.5t1.5 8.5q4 24 6 47q0 8 2 14q1 1 1 3q3 18 10 67q4 34 8 54q7 35 11 78q0 10 4 30q0 5 2 13v2q2 18 4 27v4q4 28 7 42l9 49q0 3 1 5q1 16 5 41q2 6 4 22q2 18 4 26q0 3 2 13l3 18q0 22 20 24q1 1 4 1q24 0 30 -19l1 -3v-2
q0 -1 0.5 -3t0.5 -4q0 -15 4 -27v-1q4 -19 10 -55l16 -91q5 -38 6 -42v-2q1 -9 8 -40v-1q5 -29 10 -46v-1l12 -62l3 -15v-1l1 -1q1 -12 7 -43l3 -15l3 -15q0 -2 0.5 -6.5t1.5 -6.5v-1l1 -1q0 -4 1.5 -11.5t1.5 -8.5q1 -1 1 -4l6 -30q4 -20 7 -30v-1q1 -1 1.5 -4t0.5 -4
q4 -12 4 -21q2 -8 8 -26q1 -3 2.5 -8.5t2.5 -7.5q1 -3 7 -27zM138 379h3q25 0 38 1q-9 44 -14 73q-1 5 -2 10.5t-2 12t-2 10.5l-7 41l-3 16q0 -3 -2 -9q0 -2 -0.5 -4t-0.5 -4q-5 -20 -6 -37l-14 -112h1q5 0 9 1zM215 606v13q84 98 115 147h167v-10q-25 -25 -86.5 -75.5
t-96.5 -74.5h-99z" />
    <glyph glyph-name="acircumflex" unicode="&#xe2;" horiz-adv-x="604" 
d="M412 606q-77 45 -114 86q-38 -40 -112 -86h-99v13q92 92 125 147h174q15 -25 52.5 -69t72.5 -78v-13h-99zM306 47q0 -4 2 -12q2 -9 -5 -24h-1l-1 -2l-1 -1q-8 -8 -19 -8q-7 0 -12 3h-1l-1 1q-12 8 -14 21l-6 24q0 1 -0.5 3.5t-0.5 4.5q0 1 -0.5 3.5t-1.5 3.5l-9 38
q-2 6 -5 19t-5 20q-4 18 -5 26l-6 25v1l-6 34q-5 30 -17 90q-1 3 -1 10h-10h-10h-12q-3 -1 -11 -1q-18 -2 -27 -2h-4l-3 -26l-3 -21q0 -4 -1 -12.5t-1 -12.5l-1 -1q-1 -2 -1 -6.5t-1 -6.5l-3 -15q-5 -24 -6 -46l-3 -21l-2 -17q-2 -19 -8 -47q0 -4 -2 -12q0 -1 -1.5 -11
t-1.5 -15v-1l-1 -1q-1 -8 -1 -26q0 -23 -21 -28q-4 -2 -9 -2q-12 0 -20 10q-5 5 -5 15q-1 5 0 9v4l1 2q1 32 10 70q0 4 2 12q2 10 2 17v2q0 3 0.5 8.5t1.5 8.5q4 24 6 47q0 8 2 14q1 1 1 3q3 18 10 67q4 34 8 54q7 35 11 78q0 10 4 30q0 5 2 13v2q2 18 4 27v4q4 28 7 42
l9 49q0 3 1 5q1 16 5 41q2 6 4 22q2 18 4 26q0 3 2 13l3 18q0 22 20 24q1 1 4 1q24 0 30 -19l1 -3v-2q0 -1 0.5 -3t0.5 -4q0 -15 4 -27v-1q4 -19 10 -55l16 -91q5 -38 6 -42v-2q1 -9 8 -40v-1q5 -29 10 -46v-1l12 -62l3 -15v-1l1 -1q1 -12 7 -43l3 -15l3 -15q0 -2 0.5 -6.5
t1.5 -6.5v-1l1 -1q0 -4 1.5 -11.5t1.5 -8.5q1 -1 1 -4l6 -30q4 -20 7 -30v-1q1 -1 1.5 -4t0.5 -4q4 -12 4 -21q2 -8 8 -26q1 -3 2.5 -8.5t2.5 -7.5q1 -3 7 -27zM138 379h3q25 0 38 1q-9 44 -14 73q-1 5 -2 10.5t-2 12t-2 10.5l-7 41l-3 16q0 -3 -2 -9q0 -2 -0.5 -4t-0.5 -4
q-5 -20 -6 -37l-14 -112h1q5 0 9 1z" />
    <glyph glyph-name="atilde" unicode="&#xe3;" horiz-adv-x="604" 
d="M228 657q-15 0 -29 -13t-20 -39h-73q5 71 40 111t93 40q20 0 39 -8t38 -17.5t37 -17.5t36 -8q15 0 29 12.5t20 39.5h73q-5 -71 -40.5 -111t-92.5 -40q-20 0 -39.5 8t-38 17.5t-36.5 17.5t-36 8zM306 47q0 -4 2 -12q2 -9 -5 -24h-1l-1 -2l-1 -1q-8 -8 -19 -8q-7 0 -12 3
h-1l-1 1q-12 8 -14 21l-6 24q0 1 -0.5 3.5t-0.5 4.5q0 1 -0.5 3.5t-1.5 3.5l-9 38q-2 6 -5 19t-5 20q-4 18 -5 26l-6 25v1l-6 34q-5 30 -17 90q-1 3 -1 10h-10h-10h-12q-3 -1 -11 -1q-18 -2 -27 -2h-4l-3 -26l-3 -21q0 -4 -1 -12.5t-1 -12.5l-1 -1q-1 -2 -1 -6.5t-1 -6.5
l-3 -15q-5 -24 -6 -46l-3 -21l-2 -17q-2 -19 -8 -47q0 -4 -2 -12q0 -1 -1.5 -11t-1.5 -15v-1l-1 -1q-1 -8 -1 -26q0 -23 -21 -28q-4 -2 -9 -2q-12 0 -20 10q-5 5 -5 15q-1 5 0 9v4l1 2q1 32 10 70q0 4 2 12q2 10 2 17v2q0 3 0.5 8.5t1.5 8.5q4 24 6 47q0 8 2 14q1 1 1 3
q3 18 10 67q4 34 8 54q7 35 11 78q0 10 4 30q0 5 2 13v2q2 18 4 27v4q4 28 7 42l9 49q0 3 1 5q1 16 5 41q2 6 4 22q2 18 4 26q0 3 2 13l3 18q0 22 20 24q1 1 4 1q24 0 30 -19l1 -3v-2q0 -1 0.5 -3t0.5 -4q0 -15 4 -27v-1q4 -19 10 -55l16 -91q5 -38 6 -42v-2q1 -9 8 -40v-1
q5 -29 10 -46v-1l12 -62l3 -15v-1l1 -1q1 -12 7 -43l3 -15l3 -15q0 -2 0.5 -6.5t1.5 -6.5v-1l1 -1q0 -4 1.5 -11.5t1.5 -8.5q1 -1 1 -4l6 -30q4 -20 7 -30v-1q1 -1 1.5 -4t0.5 -4q4 -12 4 -21q2 -8 8 -26q1 -3 2.5 -8.5t2.5 -7.5q1 -3 7 -27zM138 379h3q25 0 38 1
q-9 44 -14 73q-1 5 -2 10.5t-2 12t-2 10.5l-7 41l-3 16q0 -3 -2 -9q0 -2 -0.5 -4t-0.5 -4q-5 -20 -6 -37l-14 -112h1q5 0 9 1z" />
    <glyph glyph-name="adieresis" unicode="&#xe4;" horiz-adv-x="329" 
d="M221 784q13 0 20 -11q11 -11 3 -26q-5 -10 -12 -14l-1 -1h-1q-6 -3 -12 -3q-5 0 -8 1q-12 2 -18 14l-2 5v7q0 12 8.5 20.5t19.5 8.5q2 0 3 -1zM71 784q13 0 20 -11q11 -11 3 -26q-5 -10 -12 -14l-1 -1h-1q-6 -3 -12 -3q-5 0 -8 1q-12 2 -18 14l-2 5v7q0 12 8.5 20.5
t19.5 8.5q2 0 3 -1zM305 47l3 -12q2 -9 -5 -24h-1l-1 -2l-1 -1q-8 -8 -19 -8q-7 0 -13 3h-1l-1 1q-11 8 -13 21l-6 24q-1 1 -1.5 4t-0.5 4q0 2 -0.5 4t-0.5 3l-9 38q-4 13 -10 39l-6 26q-1 10 -5 25v1l-6 34q-5 30 -17 90q-1 1 -1 5t-1 5h-9h-11h-11q-4 -1 -11 -1
q-18 -2 -27 -2h-4l-4 -26q0 -4 -1 -11t-1 -10l-3 -25v-1q-1 -2 -1 -6.5t-1 -6.5l-3 -15q-6 -33 -7 -46q0 -7 -2 -21l-3 -17q-1 -17 -7 -47q-1 -2 -1 -6t-1 -6q-2 -10 -4 -26v-2q-2 -8 -2 -26q0 -23 -20 -28q-6 -2 -9 -2q-13 0 -21 10q-5 7 -5 15q0 6 1 9v4v2q1 19 10 70
l3 12q1 5 1 17v1l1 1q0 7 2 17q5 40 5 47q2 10 3 14v1l1 2q3 18 10 67q4 34 8 54q9 51 10 78q1 5 2 15t2 15l3 13v2q2 18 4 27v4q4 28 7 42l9 49q0 3 1 5q0 9 5 41l4 22q0 2 3 26l3 13l2 18q1 22 21 24q1 1 4 1q23 0 29 -19l1 -3v-2q1 -2 1 -7q0 -12 5 -27v-1q4 -19 10 -55
l15 -91q4 -28 7 -42v-2q1 -9 8 -40v-1q5 -29 10 -46v-1l12 -62l3 -15v-2q2 -11 8 -43l3 -15l3 -15q0 -5 2 -13v-2q2 -12 4 -20l1 -4l6 -30q4 -20 7 -30v-1q0 -2 2 -8q0 -2 1.5 -9t2.5 -12q2 -8 8 -26q0 -2 5 -16q4 -13 6 -27zM138 379h2q26 0 39 1q-9 44 -14 73q-5 17 -6 33
l-7 41l-3 16q-1 -1 -1 -4t-1 -5q0 -2 -0.5 -4t-0.5 -4q-3 -13 -7 -37l-14 -112h1q6 0 10 1z" />
    <glyph glyph-name="aring" unicode="&#xe5;" horiz-adv-x="604" 
d="M431 722q0 -53 -34.5 -85t-89.5 -32t-88 31t-33 85q0 53 33 84.5t88 31.5q54 0 89 -32.5t35 -82.5zM354 721q0 22 -13 34.5t-34 12.5t-34 -12.5t-13 -34.5t12 -34.5t35 -12.5q21 0 34 12.5t13 34.5zM306 47q0 -4 2 -12q2 -9 -5 -24h-1l-1 -2l-1 -1q-8 -8 -19 -8
q-7 0 -12 3h-1l-1 1q-12 8 -14 21l-6 24q0 1 -0.5 3.5t-0.5 4.5q0 1 -0.5 3.5t-1.5 3.5l-9 38q-2 6 -5 19t-5 20q-4 18 -5 26l-6 25v1l-6 34q-5 30 -17 90q-1 3 -1 10h-10h-10h-12q-3 -1 -11 -1q-18 -2 -27 -2h-4l-3 -26l-3 -21q0 -4 -1 -12.5t-1 -12.5l-1 -1q-1 -2 -1 -6.5
t-1 -6.5l-3 -15q-5 -24 -6 -46l-3 -21l-2 -17q-2 -19 -8 -47q0 -4 -2 -12q0 -1 -1.5 -11t-1.5 -15v-1l-1 -1q-1 -8 -1 -26q0 -23 -21 -28q-4 -2 -9 -2q-12 0 -20 10q-5 5 -5 15q-1 5 0 9v4l1 2q1 32 10 70q0 4 2 12q2 10 2 17v2q0 3 0.5 8.5t1.5 8.5q4 24 6 47q0 8 2 14
q1 1 1 3q3 18 10 67q4 34 8 54q7 35 11 78q0 10 4 30q0 5 2 13v2q2 18 4 27v4q4 28 7 42l9 49q0 3 1 5q1 16 5 41q2 6 4 22q2 18 4 26q0 3 2 13l3 18q0 22 20 24q1 1 4 1q24 0 30 -19l1 -3v-2q0 -1 0.5 -3t0.5 -4q0 -15 4 -27v-1q4 -19 10 -55l16 -91q5 -38 6 -42v-2
q1 -9 8 -40v-1q5 -29 10 -46v-1l12 -62l3 -15v-1l1 -1q1 -12 7 -43l3 -15l3 -15q0 -2 0.5 -6.5t1.5 -6.5v-1l1 -1q0 -4 1.5 -11.5t1.5 -8.5q1 -1 1 -4l6 -30q4 -20 7 -30v-1q1 -1 1.5 -4t0.5 -4q4 -12 4 -21q2 -8 8 -26q1 -3 2.5 -8.5t2.5 -7.5q1 -3 7 -27zM138 379h3
q25 0 38 1q-9 44 -14 73q-1 5 -2 10.5t-2 12t-2 10.5l-7 41l-3 16q0 -3 -2 -9q0 -2 -0.5 -4t-0.5 -4q-5 -20 -6 -37l-14 -112h1q5 0 9 1z" />
    <glyph glyph-name="ae" unicode="&#xe6;" horiz-adv-x="916" 
d="M649 -10q-67 0 -122 25t-90 76q-48 -57 -96 -79t-125 -22q-79 0 -126.5 46.5t-47.5 126.5q0 87 59 128.5t177 45.5l93 3v41q0 34 -21.5 50t-59.5 16q-68 0 -149 -38l-48 99q92 49 206 49q111 0 167 -64q32 31 74.5 47t100.5 16q108 0 170.5 -67t62.5 -181v-72h-353
q2 -63 37.5 -99t98.5 -36q96 0 186 43v-115q-39 -19 -84 -29t-110 -10zM371 253l-55 -2q-61 -2 -91 -23t-30 -66q0 -63 68 -63q49 0 78.5 30t29.5 79v45zM638 450q-106 0 -114 -115h210q-1 55 -27 85t-69 30z" />
    <glyph glyph-name="ccedilla" unicode="&#xe7;" horiz-adv-x="514" 
d="M281 677q2 -2 3 -4q5 -6 3 -17q-1 -10 -12 -17q-6 -3 -12 -3q-4 0 -10 3q-15 5 -22 20q-8 14 -28 21q-8 3 -27 5q-9 1 -21 -7q-13 -12 -18 -17q-24 -28 -41 -70l-1 -1q-4 -9 -5 -19q-1 -1 -1 -4q-5 -23 -7 -31q-1 -5 -1 -15q-1 -3 -1 -9q-2 -18 -4 -49q-1 -12 -1 -35v-1
q-2 -29 0 -58v-1q0 -69 2 -104v-7l3 -23q8 -47 9 -52v-1q3 -23 13 -49q4 -8 10 -17l1 -1q2 -3 6 -11l5 -8l2 -3v-3q1 -1 1 -2q1 -2 1 -3v-1q1 -1 1 -2q6 -10 11 -13q9 -3 13 -8q17 -7 26 -7h3q2 1 5 1t4 1q19 2 29 8q8 5 10 10v2q4 6 5 9q2 4 2 5h1v1q6 14 22 14q5 0 7 -1
l5 -1l3 -3q4 -4 6 -7q9 -12 4 -24q-14 -51 -67 -62l-13 -3q-15 -3 -27 -3q-14 0 -27 3q-3 1 -17 6l-2 1q-1 0 -1 1h-2l-2 2q-6 3 -18 11q-13 7 -20 19l-1 1q-6 12 -10 17v1l-1 1l-3 7q-2 3 -5 8t-4 8q-9 14 -17 37l-3 11q-1 1 -1 3t-1 3q-6 15 -7 28q0 3 -1.5 8t-1.5 6
q-2 6 -2 8q-3 4 -3 13q0 6 -2 24q-3 17 -3 36v7v5v1q-3 19 -1 45v2v3q-2 24 0 45v20q0 13 -1 18q-1 3 -1 19v3v1l3 42q2 40 5 58l6 33q1 6 3 16v1q1 1 1 3t1 3q2 14 7 24q8 20 19 36l7 12q2 2 6 9.5t7 11.5h1l6 8q10 12 17 19l18 15q14 10 36 14h2q31 3 58 -9h1l4 -1
q30 -11 48 -40l1 -2l1 -1q0 -1 1.5 -3.5t1.5 -3.5zM393 -122q0 -62 -37 -90t-114 -28q-38 0 -71 10v82q13 -3 35.5 -6.5t34.5 -3.5q35 0 35 30q0 41 -81 53l38 75h94l-13 -30q36 -12 57.5 -36.5t21.5 -55.5z" />
    <glyph glyph-name="egrave" unicode="&#xe8;" horiz-adv-x="590" 
d="M23 596v25q-4 16 -2 38v9v16q2 14 1 23q-2 14 5 21q7 10 22 10h9q14 -2 24 -2q18 0 27 1h30h5h2h2q10 1 30 1q7 1 18 1h2h23q9 1 27 1q1 0 17 -4q8 -4 12 -15l1 -2q7 -18 -12 -28q-8 -5 -20 -5h-28q-46 0 -68 -2h-19h-8h-9h-9q-15 -2 -30 0q-3 -35 0 -60q2 -28 2 -42
q0 -18 -1 -27q0 -52 2 -78v-1q0 -3 -0.5 -9.5t-0.5 -9.5v-17q1 -7 1 -22q0 -5 0.5 -15.5t0.5 -15.5q35 0 35 2h5h14l3 1h4h10l4 -2q16 -6 16 -22t-14 -23q-9 -6 -27 -6h-5h-2q-16 -2 -26 -2h-11h-7q0 -3 -1 -5q0 -23 1 -34l1 -1v-1q2 -28 1 -42q-2 -36 0 -108q0 -18 1 -27
q0 -26 -1 -40q0 -6 -1 -9v-15q4 0 11 0.5t11 1.5h1q12 2 18 2l118 3h5q3 1 8 1h4q17 0 27 -14q7 -8 5 -19q-1 -9 -9 -15t-16 -6h-2h-2h-6q-1 1 -5 1q-3 0 -5 -1h-3q-37 0 -91 -2q-21 0 -45 -3q-15 -2 -45 -2q-24 0 -31 23l-1 1v9q-2 24 -1 37q2 29 1 48v29q0 26 -1 40
q-2 20 0 42q2 16 0 51v1q0 3 -0.5 10t-0.5 11q-2 16 0 30q3 48 0 86v20q0 51 -1 76q-1 7 -1 20q1 3 1 8v1q2 26 0 53zM303 606q-31 21 -90.5 69.5t-92.5 80.5v10h167q31 -49 115 -147v-13h-99z" />
    <glyph glyph-name="eacute" unicode="&#xe9;" horiz-adv-x="590" 
d="M23 596v25q-4 16 -2 38v9v16q2 14 1 23q-2 14 5 21q7 10 22 10h9q14 -2 24 -2q18 0 27 1h30h5h2h2q10 1 30 1q7 1 18 1h2h23q9 1 27 1q1 0 17 -4q8 -4 12 -15l1 -2q7 -18 -12 -28q-8 -5 -20 -5h-28q-46 0 -68 -2h-19h-8h-9h-9q-15 -2 -30 0q-3 -35 0 -60q2 -28 2 -42
q0 -18 -1 -27q0 -52 2 -78v-1q0 -3 -0.5 -9.5t-0.5 -9.5v-17q1 -7 1 -22q0 -5 0.5 -15.5t0.5 -15.5q35 0 35 2h5h14l3 1h4h10l4 -2q16 -6 16 -22t-14 -23q-9 -6 -27 -6h-5h-2q-16 -2 -26 -2h-11h-7q0 -3 -1 -5q0 -23 1 -34l1 -1v-1q2 -28 1 -42q-2 -36 0 -108q0 -18 1 -27
q0 -26 -1 -40q0 -6 -1 -9v-15q4 0 11 0.5t11 1.5h1q12 2 18 2l118 3h5q3 1 8 1h4q17 0 27 -14q7 -8 5 -19q-1 -9 -9 -15t-16 -6h-2h-2h-6q-1 1 -5 1q-3 0 -5 -1h-3q-37 0 -91 -2q-21 0 -45 -3q-15 -2 -45 -2q-24 0 -31 23l-1 1v9q-2 24 -1 37q2 29 1 48v29q0 26 -1 40
q-2 20 0 42q2 16 0 51v1q0 3 -0.5 10t-0.5 11q-2 16 0 30q3 48 0 86v20q0 51 -1 76q-1 7 -1 20q1 3 1 8v1q2 26 0 53zM218 606v13q84 98 115 147h167v-10q-25 -25 -86.5 -75.5t-96.5 -74.5h-99z" />
    <glyph glyph-name="ecircumflex" unicode="&#xea;" horiz-adv-x="590" 
d="M420 606q-77 45 -114 86q-38 -40 -112 -86h-99v13q92 92 125 147h174q15 -25 52.5 -69t72.5 -78v-13h-99zM23 596v25q-4 16 -2 38v9v16q2 14 1 23q-2 14 5 21q7 10 22 10h9q14 -2 24 -2q18 0 27 1h30h5h2h2q10 1 30 1q7 1 18 1h2h23q9 1 27 1q1 0 17 -4q8 -4 12 -15l1 -2
q7 -18 -12 -28q-8 -5 -20 -5h-28q-46 0 -68 -2h-19h-8h-9h-9q-15 -2 -30 0q-3 -35 0 -60q2 -28 2 -42q0 -18 -1 -27q0 -52 2 -78v-1q0 -3 -0.5 -9.5t-0.5 -9.5v-17q1 -7 1 -22q0 -5 0.5 -15.5t0.5 -15.5q35 0 35 2h5h14l3 1h4h10l4 -2q16 -6 16 -22t-14 -23q-9 -6 -27 -6h-5
h-2q-16 -2 -26 -2h-11h-7q0 -3 -1 -5q0 -23 1 -34l1 -1v-1q2 -28 1 -42q-2 -36 0 -108q0 -18 1 -27q0 -26 -1 -40q0 -6 -1 -9v-15q4 0 11 0.5t11 1.5h1q12 2 18 2l118 3h5q3 1 8 1h4q17 0 27 -14q7 -8 5 -19q-1 -9 -9 -15t-16 -6h-2h-2h-6q-1 1 -5 1q-3 0 -5 -1h-3
q-37 0 -91 -2q-21 0 -45 -3q-15 -2 -45 -2q-24 0 -31 23l-1 1v9q-2 24 -1 37q2 29 1 48v29q0 26 -1 40q-2 20 0 42q2 16 0 51v1q0 3 -0.5 10t-0.5 11q-2 16 0 30q3 48 0 86v20q0 51 -1 76q-1 7 -1 20q1 3 1 8v1q2 26 0 53z" />
    <glyph glyph-name="edieresis" unicode="&#xeb;" horiz-adv-x="590" 
d="M23 596v25q-4 16 -2 38v9v16q2 14 1 23q-2 14 5 21q7 10 22 10h9q14 -2 24 -2q18 0 27 1h30h5h2h2q10 1 30 1q7 1 18 1h2h23q9 1 27 1q1 0 17 -4q8 -4 12 -15l1 -2q7 -18 -12 -28q-8 -5 -20 -5h-28q-46 0 -68 -2h-19h-8h-9h-9q-15 -2 -30 0q-3 -35 0 -60q2 -28 2 -42
q0 -18 -1 -27q0 -52 2 -78v-1q0 -3 -0.5 -9.5t-0.5 -9.5v-17q1 -7 1 -22q0 -5 0.5 -15.5t0.5 -15.5q35 0 35 2h5h14l3 1h4h10l4 -2q16 -6 16 -22t-14 -23q-9 -6 -27 -6h-5h-2q-16 -2 -26 -2h-11h-7q0 -3 -1 -5q0 -23 1 -34l1 -1v-1q2 -28 1 -42q-2 -36 0 -108q0 -18 1 -27
q0 -26 -1 -40q0 -6 -1 -9v-15q4 0 11 0.5t11 1.5h1q12 2 18 2l118 3h5q3 1 8 1h4q17 0 27 -14q7 -8 5 -19q-1 -9 -9 -15t-16 -6h-2h-2h-6q-1 1 -5 1q-3 0 -5 -1h-3q-37 0 -91 -2q-21 0 -45 -3q-15 -2 -45 -2q-24 0 -31 23l-1 1v9q-2 24 -1 37q2 29 1 48v29q0 26 -1 40
q-2 20 0 42q2 16 0 51v1q0 3 -0.5 10t-0.5 11q-2 16 0 30q3 48 0 86v20q0 51 -1 76q-1 7 -1 20q1 3 1 8v1q2 26 0 53zM145 686q0 32 18.5 49t49.5 17q32 0 50.5 -18t18.5 -48q0 -29 -18.5 -47t-50.5 -18q-31 0 -49.5 17t-18.5 48zM342 686q0 34 20 50t49 16q32 0 50.5 -17.5
t18.5 -48.5q0 -30 -19 -47.5t-50 -17.5q-29 0 -49 16t-20 49z" />
    <glyph glyph-name="igrave" unicode="&#xec;" horiz-adv-x="305" 
d="M227 0h-149v546h149v-546zM134 606q-31 21 -90.5 69.5t-92.5 80.5v10h167q31 -49 115 -147v-13h-99z" />
    <glyph glyph-name="iacute" unicode="&#xed;" horiz-adv-x="305" 
d="M227 0h-149v546h149v-546zM71 606v13q84 98 115 147h167v-10q-25 -25 -86.5 -75.5t-96.5 -74.5h-99z" />
    <glyph glyph-name="icircumflex" unicode="&#xee;" horiz-adv-x="305" 
d="M266 606q-77 45 -114 86q-38 -40 -112 -86h-99v13q92 92 125 147h174q15 -25 52.5 -69t72.5 -78v-13h-99zM227 0h-149v546h149v-546z" />
    <glyph glyph-name="idieresis" unicode="&#xef;" horiz-adv-x="305" 
d="M227 0h-149v546h149v-546zM-14 686q0 32 18.5 49t49.5 17q32 0 50.5 -18t18.5 -48q0 -29 -18.5 -47t-50.5 -18q-31 0 -49.5 17t-18.5 48zM183 686q0 34 20 50t49 16q32 0 50.5 -17.5t18.5 -48.5q0 -30 -19 -47.5t-50 -17.5q-29 0 -49 16t-20 49z" />
    <glyph glyph-name="eth" unicode="&#xf0;" horiz-adv-x="619" 
d="M249 634q-43 29 -74 45l49 86q72 -33 126 -69l110 68l49 -75l-83 -51q76 -70 112 -157t36 -201q0 -137 -70.5 -213.5t-195.5 -76.5q-120 0 -191.5 67t-71.5 182q0 114 63.5 180.5t171.5 66.5q100 0 134 -48l4 2q-31 76 -94 135l-112 -69l-49 76zM422 260q0 53 -30 84.5
t-82 31.5q-59 0 -86 -33.5t-27 -104.5q0 -68 29 -103t84 -35q60 0 86 40t26 120z" />
    <glyph glyph-name="ntilde" unicode="&#xf1;" horiz-adv-x="657" 
d="M248 657q-15 0 -29 -13t-20 -39h-73q5 71 40 111t93 40q20 0 39 -8t38 -17.5t37 -17.5t36 -8q15 0 29 12.5t20 39.5h73q-5 -71 -40.5 -111t-92.5 -40q-20 0 -39.5 8t-38 17.5t-36.5 17.5t-36 8zM294 108q2 -26 2 -38l3 -27v-1q0 -13 -10 -25q-7 -7 -18 -7q-18 0 -23 15
l-21 51q-2 4 -4 12q-2 3 -4 9q-8 19 -22 57l-1 2v1q-3 9 -4 11q-10 18 -22 56l-3 10q-1 3 -2.5 9t-2.5 9t-2.5 9.5t-2.5 9.5l-15 39q-18 53 -23 72q-7 25 -13 44q-2 6 -4 11l-1 3q-2 6 -13 40l-3 12v-16v-72q0 -10 2 -34v-42q1 -5 1 -12v-2q-2 -36 -1 -60v-1q0 -16 -1 -25
q0 -19 -2 -53q0 -10 2 -34v-1q1 -9 1 -27v-26v-1q0 -16 1 -24q2 -16 2 -28q0 -11 -8 -21l-2 -1l-1 -2q-10 -4 -15 -4q-22 0 -24 22q0 1 -1 3.5t-1 3.5q-6 32 -5 51l1 1q1 16 -1 46q0 8 -1 12q-2 56 2 80v12q0 1 -0.5 4t-0.5 5q0 28 1 43v65l-3 42v17l1 2v12v26q0 29 -1 42
l-1 1v20v12q-4 19 -4 41q0 9 -1 14q-4 89 -5 119q0 2 0.5 6t0.5 5v5v5l3 4q6 14 23 14q7 0 10 -2q14 -7 18 -19q16 -38 19 -53v-1q4 -18 7 -28v-1q7 -27 19 -67v-1l22 -78q5 -18 15 -51t14 -47h1q4 -15 11 -35q1 -4 3.5 -12t3.5 -12l3 -7q6 -15 7 -19l1 -3q9 -17 11 -29
q10 -40 23 -69l3 -9q0 22 1 33v7l-3 72v1q0 13 -2 41v1q0 7 2 12q1 24 -1 73q-1 7 -1 22v10q-3 17 -3 49v9v50q0 3 -0.5 7.5t-0.5 6.5q-1 5 -1 14q0 35 -1 52v45q0 13 5 26q5 16 24 16q14 0 21 -13q4 -5 4 -14v-1v-31v-16q1 -12 1 -34q0 -6 -1 -9h1v-19q1 -17 1 -49
q1 -16 1 -48v-1q0 -3 0.5 -11t0.5 -12q1 -8 1 -24q2 -40 2 -59q0 -25 -1 -38q0 -10 1 -16v-13q4 -26 2 -56q0 -4 0.5 -11.5t0.5 -12.5v-26v-1q-2 -43 0 -84q2 -26 2 -38z" />
    <glyph glyph-name="ograve" unicode="&#xf2;" horiz-adv-x="619" 
d="M83 20l-1 1q-18 11 -26 28q-19 40 -23 69l-2 17q-2 10 -2 15q-4 15 -4 43q0 25 2 75v2v13q0 31 -1 37q-1 9 -1 28v2q2 20 0 44q0 5 -0.5 15t-0.5 15v22q-1 11 -1 36q0 10 -2 36q-2 23 2 57v1l7 43q4 29 15 51l1 1q23 42 65 60q6 3 16 5h3l2 1h1q8 2 13 2q10 0 18 -3
q24 -6 47 -18q26 -14 39 -43v-1q14 -41 16 -83v-1v-2v-1q0 -2 0.5 -6.5t0.5 -7.5q2 -30 1 -46v-2v-8q1 -3 1 -11v-21q2 -21 0 -44q0 -29 1 -44q2 -64 -1 -106q0 -20 1 -30v-1q2 -30 0 -59v-28v-12q-1 -3 -1 -8v-3q-1 -5 -1 -15q2 -36 -21 -77q-7 -11 -23 -27q-2 -1 -6 -5
q-5 -6 -19 -14v-1h-1l-12 -4l-1 -1q-16 -6 -48 -6q-17 0 -31 8q-4 3 -23 12zM187 671l-1 1l-34 11l-1 1q-2 1 -6 1q-2 0 -4 -1h-1l-1 -1q-16 -3 -34 -19l-2 -3q-17 -23 -18 -40q-2 -14 -4 -23q-4 -18 -4 -25v-3l-1 -3q-3 -10 -3 -32v-7q0 -2 0.5 -8t0.5 -9q2 -21 1 -34v-2
q0 -5 0.5 -14t1.5 -14v-14v-62q2 -12 0 -23v-9q2 -12 2 -36q1 -6 1 -18v-1q0 -7 1 -10v-12v-5q-1 -1 0 -2l1 -6l-2 -4l1 -1v-7q-2 -26 -2 -37v-4l-1 -3v-4v-4v-5q0 -9 1 -12v-1l1 -2q1 -6 4 -27v-3q3 -24 8 -36l9 -21q1 -4 8 -11q6 -4 27 -15h2q20 0 28 2q10 3 19 12v1
q14 12 15 14l9 19q6 15 6 30v1q1 9 1 28q2 36 2 55q0 34 -1 52q-1 19 0 38q1 10 1 58v20v3v2q-1 2 -1 3q-3 17 -1 48q1 10 1 29v30v3q-4 17 -2 45v2l1 1q0 12 -2 20v2q-2 18 -2 25q-1 30 -9 51l-1 1v1q-3 13 -12 20zM299 606q-31 21 -90.5 69.5t-92.5 80.5v10h167
q31 -49 115 -147v-13h-99z" />
    <glyph glyph-name="oacute" unicode="&#xf3;" horiz-adv-x="619" 
d="M83 20l-1 1q-18 11 -26 28q-19 40 -23 69l-2 17q-2 10 -2 15q-4 15 -4 43q0 25 2 75v2v13q0 31 -1 37q-1 9 -1 28v2q2 20 0 44q0 5 -0.5 15t-0.5 15v22q-1 11 -1 36q0 10 -2 36q-2 23 2 57v1l7 43q4 29 15 51l1 1q23 42 65 60q6 3 16 5h3l2 1h1q8 2 13 2q10 0 18 -3
q24 -6 47 -18q26 -14 39 -43v-1q14 -41 16 -83v-1v-2v-1q0 -2 0.5 -6.5t0.5 -7.5q2 -30 1 -46v-2v-8q1 -3 1 -11v-21q2 -21 0 -44q0 -29 1 -44q2 -64 -1 -106q0 -20 1 -30v-1q2 -30 0 -59v-28v-12q-1 -3 -1 -8v-3q-1 -5 -1 -15q2 -36 -21 -77q-7 -11 -23 -27q-2 -1 -6 -5
q-5 -6 -19 -14v-1h-1l-12 -4l-1 -1q-16 -6 -48 -6q-17 0 -31 8q-4 3 -23 12zM187 671l-1 1l-34 11l-1 1q-2 1 -6 1q-2 0 -4 -1h-1l-1 -1q-16 -3 -34 -19l-2 -3q-17 -23 -18 -40q-2 -14 -4 -23q-4 -18 -4 -25v-3l-1 -3q-3 -10 -3 -32v-7q0 -2 0.5 -8t0.5 -9q2 -21 1 -34v-2
q0 -5 0.5 -14t1.5 -14v-14v-62q2 -12 0 -23v-9q2 -12 2 -36q1 -6 1 -18v-1q0 -7 1 -10v-12v-5q-1 -1 0 -2l1 -6l-2 -4l1 -1v-7q-2 -26 -2 -37v-4l-1 -3v-4v-4v-5q0 -9 1 -12v-1l1 -2q1 -6 4 -27v-3q3 -24 8 -36l9 -21q1 -4 8 -11q6 -4 27 -15h2q20 0 28 2q10 3 19 12v1
q14 12 15 14l9 19q6 15 6 30v1q1 9 1 28q2 36 2 55q0 34 -1 52q-1 19 0 38q1 10 1 58v20v3v2q-1 2 -1 3q-3 17 -1 48q1 10 1 29v30v3q-4 17 -2 45v2l1 1q0 12 -2 20v2q-2 18 -2 25q-1 30 -9 51l-1 1v1q-3 13 -12 20zM228 606v13q84 98 115 147h167v-10q-25 -25 -86.5 -75.5
t-96.5 -74.5h-99z" />
    <glyph glyph-name="ocircumflex" unicode="&#xf4;" horiz-adv-x="619" 
d="M422 606q-77 45 -114 86q-38 -40 -112 -86h-99v13q92 92 125 147h174q15 -25 52.5 -69t72.5 -78v-13h-99zM83 20l-1 1q-18 11 -26 28q-19 40 -23 69l-2 17q-2 10 -2 15q-4 15 -4 43q0 25 2 75v2v13q0 31 -1 37q-1 9 -1 28v2q2 20 0 44q0 5 -0.5 15t-0.5 15v22
q-1 11 -1 36q0 10 -2 36q-2 23 2 57v1l7 43q4 29 15 51l1 1q23 42 65 60q6 3 16 5h3l2 1h1q8 2 13 2q10 0 18 -3q24 -6 47 -18q26 -14 39 -43v-1q14 -41 16 -83v-1v-2v-1q0 -2 0.5 -6.5t0.5 -7.5q2 -30 1 -46v-2v-8q1 -3 1 -11v-21q2 -21 0 -44q0 -29 1 -44q2 -64 -1 -106
q0 -20 1 -30v-1q2 -30 0 -59v-28v-12q-1 -3 -1 -8v-3q-1 -5 -1 -15q2 -36 -21 -77q-7 -11 -23 -27q-2 -1 -6 -5q-5 -6 -19 -14v-1h-1l-12 -4l-1 -1q-16 -6 -48 -6q-17 0 -31 8q-4 3 -23 12zM187 671l-1 1l-34 11l-1 1q-2 1 -6 1q-2 0 -4 -1h-1l-1 -1q-16 -3 -34 -19l-2 -3
q-17 -23 -18 -40q-2 -14 -4 -23q-4 -18 -4 -25v-3l-1 -3q-3 -10 -3 -32v-7q0 -2 0.5 -8t0.5 -9q2 -21 1 -34v-2q0 -5 0.5 -14t1.5 -14v-14v-62q2 -12 0 -23v-9q2 -12 2 -36q1 -6 1 -18v-1q0 -7 1 -10v-12v-5q-1 -1 0 -2l1 -6l-2 -4l1 -1v-7q-2 -26 -2 -37v-4l-1 -3v-4v-4v-5
q0 -9 1 -12v-1l1 -2q1 -6 4 -27v-3q3 -24 8 -36l9 -21q1 -4 8 -11q6 -4 27 -15h2q20 0 28 2q10 3 19 12v1q14 12 15 14l9 19q6 15 6 30v1q1 9 1 28q2 36 2 55q0 34 -1 52q-1 19 0 38q1 10 1 58v20v3v2q-1 2 -1 3q-3 17 -1 48q1 10 1 29v30v3q-4 17 -2 45v2l1 1q0 12 -2 20v2
q-2 18 -2 25q-1 30 -9 51l-1 1v1q-3 13 -12 20z" />
    <glyph glyph-name="otilde" unicode="&#xf5;" horiz-adv-x="619" 
d="M229 657q-15 0 -29 -13t-20 -39h-73q5 71 40 111t93 40q20 0 39 -8t38 -17.5t37 -17.5t36 -8q15 0 29 12.5t20 39.5h73q-5 -71 -40.5 -111t-92.5 -40q-20 0 -39.5 8t-38 17.5t-36.5 17.5t-36 8zM83 20l-1 1q-18 11 -26 28q-19 40 -23 69l-2 17q-2 10 -2 15q-4 15 -4 43
q0 25 2 75v2v13q0 31 -1 37q-1 9 -1 28v2q2 20 0 44q0 5 -0.5 15t-0.5 15v22q-1 11 -1 36q0 10 -2 36q-2 23 2 57v1l7 43q4 29 15 51l1 1q23 42 65 60q6 3 16 5h3l2 1h1q8 2 13 2q10 0 18 -3q24 -6 47 -18q26 -14 39 -43v-1q14 -41 16 -83v-1v-2v-1q0 -2 0.5 -6.5t0.5 -7.5
q2 -30 1 -46v-2v-8q1 -3 1 -11v-21q2 -21 0 -44q0 -29 1 -44q2 -64 -1 -106q0 -20 1 -30v-1q2 -30 0 -59v-28v-12q-1 -3 -1 -8v-3q-1 -5 -1 -15q2 -36 -21 -77q-7 -11 -23 -27q-2 -1 -6 -5q-5 -6 -19 -14v-1h-1l-12 -4l-1 -1q-16 -6 -48 -6q-17 0 -31 8q-4 3 -23 12z
M187 671l-1 1l-34 11l-1 1q-2 1 -6 1q-2 0 -4 -1h-1l-1 -1q-16 -3 -34 -19l-2 -3q-17 -23 -18 -40q-2 -14 -4 -23q-4 -18 -4 -25v-3l-1 -3q-3 -10 -3 -32v-7q0 -2 0.5 -8t0.5 -9q2 -21 1 -34v-2q0 -5 0.5 -14t1.5 -14v-14v-62q2 -12 0 -23v-9q2 -12 2 -36q1 -6 1 -18v-1
q0 -7 1 -10v-12v-5q-1 -1 0 -2l1 -6l-2 -4l1 -1v-7q-2 -26 -2 -37v-4l-1 -3v-4v-4v-5q0 -9 1 -12v-1l1 -2q1 -6 4 -27v-3q3 -24 8 -36l9 -21q1 -4 8 -11q6 -4 27 -15h2q20 0 28 2q10 3 19 12v1q14 12 15 14l9 19q6 15 6 30v1q1 9 1 28q2 36 2 55q0 34 -1 52q-1 19 0 38
q1 10 1 58v20v3v2q-1 2 -1 3q-3 17 -1 48q1 10 1 29v30v3q-4 17 -2 45v2l1 1q0 12 -2 20v2q-2 18 -2 25q-1 30 -9 51l-1 1v1q-3 13 -12 20z" />
    <glyph glyph-name="odieresis" unicode="&#xf6;" horiz-adv-x="291" 
d="M221 804q13 0 20 -11q11 -11 3 -26q-5 -10 -12 -14l-1 -1h-1q-6 -3 -12 -3q-5 0 -8 1q-12 2 -18 14l-2 5v7q0 12 8.5 20.5t19.5 8.5q2 0 3 -1zM71 804q13 0 20 -11q11 -11 3 -26q-5 -10 -12 -14l-1 -1h-1q-6 -3 -12 -3q-5 0 -8 1q-12 2 -18 14l-2 5v7q0 12 8.5 20.5
t19.5 8.5q2 0 3 -1zM82 21h-1q-17 12 -25 28q-19 40 -23 69q-2 12 -2 17l-3 15q-3 15 -3 43q0 25 2 75v2v13q0 31 -1 37q-1 9 -1 28v2q2 20 0 44q-1 10 -1 30q0 14 -1 22v36q0 10 -2 36q-2 23 2 57v1l7 43q4 29 15 51l1 1q23 42 64 60q5 3 17 5h3l2 1h1q8 2 13 2q10 0 17 -3
q24 -6 48 -18q26 -14 38 -43l1 -1q14 -41 16 -83v-1v-2v-1q0 -2 0.5 -6.5t0.5 -7.5q2 -30 1 -46v-2v-8q1 -3 1 -11v-21v-44q0 -29 1 -44q2 -64 -1 -106q0 -20 1 -30v-1v-59v-28q0 -9 -1 -12v-8v-3q-1 -5 -1 -15q2 -37 -22 -77q-6 -11 -22 -27q-2 -1 -6 -5q-3 -4 -19 -14v-1
h-1l-12 -4l-1 -1q-17 -6 -48 -6q-17 0 -31 8h-1q-5 3 -22 12zM190 668l-3 3q-1 0 -1 1l-34 11l-1 1q-2 1 -6 1q-2 0 -4 -1h-1l-2 -1q-17 -3 -33 -19l-2 -3q-17 -23 -18 -40q-1 -4 -2 -11.5t-2 -11.5q-4 -18 -4 -25v-3l-1 -3q-3 -10 -3 -32v-7q0 -11 1 -17q2 -21 0 -34l1 -2
q1 -10 1 -28q1 -5 1 -14v-62v-23v-9q2 -24 2 -36q0 -3 0.5 -9t0.5 -9v-1v-10q1 -4 1 -12v-2l-1 -3v-2l2 -6l-2 -4v-1l1 -3v-4q-2 -26 -2 -37v-4l-1 -3q-1 -1 0 -4v-4v-5q0 -9 1 -12v-1l1 -2q1 -6 4 -27v-3q3 -23 7 -36l10 -21q1 -4 8 -11q6 -4 27 -15h2q19 0 28 2
q10 3 19 12v1l15 14q1 1 3.5 7t5.5 12q6 15 6 30v1q0 5 0.5 14t0.5 14q2 36 2 55q0 34 -1 52q-1 19 0 38q1 10 1 58v20v3q-1 1 -1 5q-3 17 -1 48q1 10 1 29v30v1l-1 2q-3 18 -1 45v3q2 7 -1 20v2q-2 18 -2 25q-1 31 -10 51v2q-3 13 -12 20z" />
    <glyph glyph-name="divide" unicode="&#xf7;" horiz-adv-x="440" 
d="M170 362v3v3l-1 2v5q0 21 12.5 34t32.5 13h6q26 -3 37 -19q11 -12 8 -33l-1 -3l-1 -2q-9 -21 -26 -30q-11 -8 -24 -8q-7 0 -15 3h-2l-2 1q-20 13 -23 29zM401 300q6 -1 13 -8q8 -9 6 -23q-2 -20 -18 -24v-1h-1q-7 -1 -17 -1q-109 0 -175 1h-32q-7 0 -24 0.5t-26 0.5
q-5 0 -16 -0.5t-16 -0.5q-11 -1 -34 -1q-12 0 -19 1h-1l-1 1q-9 3 -16 13q0 1 -1 2v1l-1 1q-6 11 2 24q8 12 21 14q6 0 18 2q26 4 40 4q57 0 85 -1h10h12h12l58 -3h53q8 0 26.5 0.5t27.5 0.5q2 0 14 -3zM212 230h6q26 -3 38 -19q12 -15 6 -36v-1q-6 -20 -25 -31l-1 -1
q-14 -7 -24 -7q-7 0 -17 4q-23 9 -26 30q0 4 -1 6v1l-1 2v5q0 21 12.5 34t32.5 13z" />
    <glyph glyph-name="oslash" unicode="&#xf8;" horiz-adv-x="619" 
d="M574 274q0 -133 -70 -208.5t-196 -75.5q-62 0 -114 22l-33 -49l-75 51l33 49q-74 76 -74 211q0 134 70 208t196 74q64 0 121 -25l27 40l74 -53l-28 -41q69 -76 69 -203zM197 274q0 -46 9 -81l155 232q-21 11 -52 11q-60 0 -86 -40t-26 -122zM422 274q0 40 -6 69
l-151 -226q19 -7 45 -7q60 0 86 41t26 123z" />
    <glyph glyph-name="ugrave" unicode="&#xf9;" horiz-adv-x="657" 
d="M288 199v-3q3 -24 -1 -71v-1q0 -22 -6 -44v-2q-6 -21 -16 -33l-2 -2l-1 -2l-3 -3l-2 -3l-1 -1q-16 -20 -44 -28q-21 -6 -39 -6h-14q-6 -1 -18 -1q-27 0 -49 14l-1 1q-23 17 -35 32l-1 1q-19 28 -23 50q0 4 -2 10q-3 10 -7 32v1v4q-4 14 0 29v9q-1 4 -1 21q1 3 1 8v1
q1 18 1 53v1q0 8 0.5 24.5t0.5 25.5q0 33 1 50v17q0 4 -1 12t-1 12v16v18q-1 17 1 53v2q1 8 1 25q-1 7 -1 21q0 4 -0.5 11t-0.5 10q-1 8 -1 23q0 4 -0.5 11t-0.5 11q-3 21 -1 53v1q3 24 3 48q0 6 1 7v7l6 6q8 8 20 8h5q20 -4 20 -24v-11v-25v-13q0 -18 -2 -28v-2l3 -75
q0 -2 0.5 -7t0.5 -8l1 -3q3 -30 0 -62v-1q-2 -10 -2 -17v-47l1 -3q4 -24 2 -54v-16v-24q-3 -26 -3 -52q1 -21 -1 -63v-41q0 -28 11 -61q9 -24 35 -43q6 -3 7 -3q3 1 8 1q8 0 14 -2l4 -1h19h4q10 0 23 5q3 0 4 1l4 2q5 7 15 19q4 8 5 15q5 18 5 68v16q-2 40 -1 62q2 26 0 50
v5q1 8 1 51q-1 9 -1 27v25q1 8 1 23v1q2 39 1 58q-4 47 -1 90v10q-2 21 0 58v1q2 26 2 37q0 3 0.5 10t0.5 10q0 8 2 18q3 19 23 19q6 0 12 -3l3 -2l2 -2q7 -7 8 -14q2 -10 2 -16v-11q0 -39 -3 -60q-2 -17 1 -27v-2q1 -15 0 -30q-3 -24 0 -48v-1q2 -46 2 -65q0 -29 -2 -43
q-1 -4 -1 -25v-10q0 -10 2 -34l1 -12v-1q-1 -13 -1 -39q0 -27 -1 -41v-1q-1 -12 0 -22q2 -6 2 -18q0 -6 -1 -8zM303 606q-31 21 -90.5 69.5t-92.5 80.5v10h167q31 -49 115 -147v-13h-99z" />
    <glyph glyph-name="uacute" unicode="&#xfa;" horiz-adv-x="657" 
d="M288 199v-3q3 -24 -1 -71v-1q0 -22 -6 -44v-2q-6 -21 -16 -33l-2 -2l-1 -2l-3 -3l-2 -3l-1 -1q-16 -20 -44 -28q-21 -6 -39 -6h-14q-6 -1 -18 -1q-27 0 -49 14l-1 1q-23 17 -35 32l-1 1q-19 28 -23 50q0 4 -2 10q-3 10 -7 32v1v4q-4 14 0 29v9q-1 4 -1 21q1 3 1 8v1
q1 18 1 53v1q0 8 0.5 24.5t0.5 25.5q0 33 1 50v17q0 4 -1 12t-1 12v16v18q-1 17 1 53v2q1 8 1 25q-1 7 -1 21q0 4 -0.5 11t-0.5 10q-1 8 -1 23q0 4 -0.5 11t-0.5 11q-3 21 -1 53v1q3 24 3 48q0 6 1 7v7l6 6q8 8 20 8h5q20 -4 20 -24v-11v-25v-13q0 -18 -2 -28v-2l3 -75
q0 -2 0.5 -7t0.5 -8l1 -3q3 -30 0 -62v-1q-2 -10 -2 -17v-47l1 -3q4 -24 2 -54v-16v-24q-3 -26 -3 -52q1 -21 -1 -63v-41q0 -28 11 -61q9 -24 35 -43q6 -3 7 -3q3 1 8 1q8 0 14 -2l4 -1h19h4q10 0 23 5q3 0 4 1l4 2q5 7 15 19q4 8 5 15q5 18 5 68v16q-2 40 -1 62q2 26 0 50
v5q1 8 1 51q-1 9 -1 27v25q1 8 1 23v1q2 39 1 58q-4 47 -1 90v10q-2 21 0 58v1q2 26 2 37q0 3 0.5 10t0.5 10q0 8 2 18q3 19 23 19q6 0 12 -3l3 -2l2 -2q7 -7 8 -14q2 -10 2 -16v-11q0 -39 -3 -60q-2 -17 1 -27v-2q1 -15 0 -30q-3 -24 0 -48v-1q2 -46 2 -65q0 -29 -2 -43
q-1 -4 -1 -25v-10q0 -10 2 -34l1 -12v-1q-1 -13 -1 -39q0 -27 -1 -41v-1q-1 -12 0 -22q2 -6 2 -18q0 -6 -1 -8zM243 606v13q84 98 115 147h167v-10q-25 -25 -86.5 -75.5t-96.5 -74.5h-99z" />
    <glyph glyph-name="ucircumflex" unicode="&#xfb;" horiz-adv-x="657" 
d="M440 606q-77 45 -114 86q-38 -40 -112 -86h-99v13q92 92 125 147h174q15 -25 52.5 -69t72.5 -78v-13h-99zM288 199v-3q3 -24 -1 -71v-1q0 -22 -6 -44v-2q-6 -21 -16 -33l-2 -2l-1 -2l-3 -3l-2 -3l-1 -1q-16 -20 -44 -28q-21 -6 -39 -6h-14q-6 -1 -18 -1q-27 0 -49 14
l-1 1q-23 17 -35 32l-1 1q-19 28 -23 50q0 4 -2 10q-3 10 -7 32v1v4q-4 14 0 29v9q-1 4 -1 21q1 3 1 8v1q1 18 1 53v1q0 8 0.5 24.5t0.5 25.5q0 33 1 50v17q0 4 -1 12t-1 12v16v18q-1 17 1 53v2q1 8 1 25q-1 7 -1 21q0 4 -0.5 11t-0.5 10q-1 8 -1 23q0 4 -0.5 11t-0.5 11
q-3 21 -1 53v1q3 24 3 48q0 6 1 7v7l6 6q8 8 20 8h5q20 -4 20 -24v-11v-25v-13q0 -18 -2 -28v-2l3 -75q0 -2 0.5 -7t0.5 -8l1 -3q3 -30 0 -62v-1q-2 -10 -2 -17v-47l1 -3q4 -24 2 -54v-16v-24q-3 -26 -3 -52q1 -21 -1 -63v-41q0 -28 11 -61q9 -24 35 -43q6 -3 7 -3q3 1 8 1
q8 0 14 -2l4 -1h19h4q10 0 23 5q3 0 4 1l4 2q5 7 15 19q4 8 5 15q5 18 5 68v16q-2 40 -1 62q2 26 0 50v5q1 8 1 51q-1 9 -1 27v25q1 8 1 23v1q2 39 1 58q-4 47 -1 90v10q-2 21 0 58v1q2 26 2 37q0 3 0.5 10t0.5 10q0 8 2 18q3 19 23 19q6 0 12 -3l3 -2l2 -2q7 -7 8 -14
q2 -10 2 -16v-11q0 -39 -3 -60q-2 -17 1 -27v-2q1 -15 0 -30q-3 -24 0 -48v-1q2 -46 2 -65q0 -29 -2 -43q-1 -4 -1 -25v-10q0 -10 2 -34l1 -12v-1q-1 -13 -1 -39q0 -27 -1 -41v-1q-1 -12 0 -22q2 -6 2 -18q0 -6 -1 -8z" />
    <glyph glyph-name="udieresis" unicode="&#xfc;" horiz-adv-x="310" 
d="M231 814q13 0 20 -11q11 -11 3 -26q-5 -10 -12 -14l-1 -1h-1q-6 -3 -12 -3q-5 0 -8 1q-12 2 -18 14l-2 5v7q0 12 8.5 20.5t19.5 8.5q2 0 3 -1zM81 814q13 0 20 -11q11 -11 3 -26q-5 -10 -12 -14l-1 -1h-1q-6 -3 -12 -3q-5 0 -8 1q-12 2 -18 14l-2 5v7q0 12 8.5 20.5
t19.5 8.5q2 0 3 -1zM288 199v-3q3 -24 -1 -71v-1q-2 -29 -6 -44v-2q-5 -17 -16 -33l-2 -2l-5 -5v-1q-1 -1 -1 -2l-1 -1q-16 -20 -44 -28q-21 -6 -39 -6h-15q-5 -1 -17 -1q-27 0 -50 14v1q-23 15 -35 32l-1 1q-18 24 -23 50l-3 10q-6 28 -6 32v1l-1 2v2q-2 17 1 29v9
q-1 4 -1 21q0 2 0.5 4.5t0.5 3.5v1q1 18 1 53v1q0 33 1 50q0 33 1 50v17q-2 8 -2 24v16v18q-1 27 0 53l1 2q1 8 1 25q-1 7 -1 21q-1 7 -1 21q-1 8 -1 23q-1 7 -1 22q-4 28 -1 53v1q3 24 3 48q0 6 1 7v7l5 6q8 8 20 8h5q21 -4 21 -24v-11q0 -16 -1 -25v-13q0 -18 -2 -28l1 -2
l3 -75q0 -9 1 -15v-3q5 -30 0 -62v-1q-1 -5 -1 -17v-50q3 -14 3 -54v-16v-23l-1 -1q-2 -34 -2 -52q1 -21 -1 -63v-41q0 -28 11 -61q7 -24 34 -43l7 -3h1q2 1 8 1q8 0 14 -2q2 -1 4 -1h18h4q9 0 24 5q2 0 4 1l4 2q5 7 15 19q2 3 5 15q5 22 5 68v16q-2 40 -1 62q2 26 0 50v5
q2 17 0 51v27v25q0 4 0.5 11.5t0.5 11.5v1q2 39 1 58q-4 55 -1 90v10q-2 16 0 58v1q0 6 0.5 18.5t1.5 18.5q0 13 1 20q0 8 2 18q2 19 23 19q5 0 11 -3l6 -4q6 -6 7 -14q3 -15 3 -16v-11q0 -39 -4 -60q-1 -12 1 -27v-2q3 -15 0 -30q-2 -24 0 -48l1 -1q2 -46 2 -65
q0 -29 -3 -43q-1 -7 -1 -25l1 -10q0 -22 1 -34l2 -12l-1 -1v-39q0 -27 -2 -41v-1q0 -15 1 -22q2 -6 2 -18q0 -2 -0.5 -4.5t-0.5 -3.5z" />
    <glyph glyph-name="yacute" unicode="&#xfd;" horiz-adv-x="568" 
d="M235 552v-2q-5 -25 -12 -39q-11 -25 -21 -58v-2l-24 -76l-21 -67l-1 -1v-2v-3q-3 -15 -13 -45l-2 -4q-1 -1 -1 -3l-1 -4q-1 -1 -1 -2q-1 -2 -1 -3l-6 -25q-6 -23 -6 -25q-7 -27 -22 -69v-1q-11 -28 -16 -47q-1 -4 -2.5 -9.5t-1.5 -8.5q-6 -21 -7 -28q-4 -22 -26 -26
q-1 -1 -5 -1q-11 0 -19 10q-6 7 -6 16q0 8 3 13q3 6 7 22q0 3 2 9q6 31 20 67q16 45 20 65l12 43q0 3 2 7q4 16 11 37l4 12q4 17 23 79l-1 3v5q0 1 -2 7q0 1 -1 2.5t-1.5 3t-0.5 3.5q-2 6 -4 16q-2 4 -4 12q-7 15 -11 28v1l-8 26q-9 26 -9 28l-30 97l-3 8l-2.5 7.5t-2.5 8.5
t-1 8q-5 19 -12 34l-7 22l-1 3v2q0 1 -0.5 3t-0.5 4v12l6 5q4 5 10 8l4 2h5q15 0 23 -13l1 -1v-1q1 -3 3.5 -10t3.5 -11q12 -33 14 -44q7 -26 21 -65l6 -22q2 -5 4.5 -13.5t3.5 -11.5q8 -24 11 -37q7 -12 10 -27q1 -2 4 -11l18 48q8 17 9 31l1 1l4 23v1l4 13q13 38 25 85v1
l9 28q4 15 17 22l4 2h8q12 0 19 -10l4 -4v-6q1 -6 -1 -12q0 -1 -0.5 -3.5t-1.5 -3.5q0 -1 -0.5 -3t-0.5 -3l-1 -1v-1l-1 -4q-7 -19 -8 -31v-1l-9 -31v-1l-6 -19q-1 -2 -2.5 -7t-2.5 -8q-4 -14 -5 -27zM192 606v13q84 98 115 147h167v-10q-25 -25 -86.5 -75.5t-96.5 -74.5
h-99z" />
    <glyph glyph-name="thorn" unicode="&#xfe;" horiz-adv-x="632" 
d="M227 475q24 40 64 60.5t91 20.5q97 0 151.5 -75.5t54.5 -206.5q0 -133 -54.5 -208.5t-151.5 -75.5q-104 0 -155 67h-7l4 -30l3 -46v-221h-149v1000h149v-191l-3 -59l-4 -35h7zM334 437q-55 0 -80.5 -34t-26.5 -112v-16q0 -88 26 -126t83 -38q100 0 100 165
q0 81 -24.5 121t-77.5 40z" />
    <glyph glyph-name="ydieresis" unicode="&#xff;" horiz-adv-x="568" 
d="M235 552v-2q-5 -25 -12 -39q-11 -25 -21 -58v-2l-24 -76l-21 -67l-1 -1v-2v-3q-3 -15 -13 -45l-2 -4q-1 -1 -1 -3l-1 -4q-1 -1 -1 -2q-1 -2 -1 -3l-6 -25q-6 -23 -6 -25q-7 -27 -22 -69v-1q-11 -28 -16 -47q-1 -4 -2.5 -9.5t-1.5 -8.5q-6 -21 -7 -28q-4 -22 -26 -26
q-1 -1 -5 -1q-11 0 -19 10q-6 7 -6 16q0 8 3 13q3 6 7 22q0 3 2 9q6 31 20 67q16 45 20 65l12 43q0 3 2 7q4 16 11 37l4 12q4 17 23 79l-1 3v5q0 1 -2 7q0 1 -1 2.5t-1.5 3t-0.5 3.5q-2 6 -4 16q-2 4 -4 12q-7 15 -11 28v1l-8 26q-9 26 -9 28l-30 97l-3 8l-2.5 7.5t-2.5 8.5
t-1 8q-5 19 -12 34l-7 22l-1 3v2q0 1 -0.5 3t-0.5 4v12l6 5q4 5 10 8l4 2h5q15 0 23 -13l1 -1v-1q1 -3 3.5 -10t3.5 -11q12 -33 14 -44q7 -26 21 -65l6 -22q2 -5 4.5 -13.5t3.5 -11.5q8 -24 11 -37q7 -12 10 -27q1 -2 4 -11l18 48q8 17 9 31l1 1l4 23v1l4 13q13 38 25 85v1
l9 28q4 15 17 22l4 2h8q12 0 19 -10l4 -4v-6q1 -6 -1 -12q0 -1 -0.5 -3.5t-1.5 -3.5q0 -1 -0.5 -3t-0.5 -3l-1 -1v-1l-1 -4q-7 -19 -8 -31v-1l-9 -31v-1l-6 -19q-1 -2 -2.5 -7t-2.5 -8q-4 -14 -5 -27zM118 686q0 32 18.5 49t49.5 17q32 0 50.5 -18t18.5 -48q0 -29 -18.5 -47
t-50.5 -18q-31 0 -49.5 17t-18.5 48zM315 686q0 34 20 50t49 16q32 0 50.5 -17.5t18.5 -48.5q0 -30 -19 -47.5t-50 -17.5q-29 0 -49 16t-20 49z" />
    <glyph glyph-name="Amacron" unicode="&#x100;" horiz-adv-x="689" 
d="M181 874h331v-103h-331v103zM305 47l3 -12q2 -9 -5 -24h-1l-1 -2l-1 -1q-8 -8 -19 -8q-7 0 -13 3h-1l-1 1q-11 8 -13 21l-6 24q-1 1 -1.5 4t-0.5 4q0 2 -0.5 4t-0.5 3l-9 38q-4 13 -10 39l-6 26q-1 10 -5 25v1l-6 34q-5 30 -17 90q-1 1 -1 5t-1 5h-9h-11h-11
q-4 -1 -11 -1q-18 -2 -27 -2h-4l-4 -26q0 -4 -1 -11t-1 -10l-3 -25v-1q-1 -2 -1 -6.5t-1 -6.5l-3 -15q-6 -33 -7 -46q0 -7 -2 -21l-3 -17q-1 -17 -7 -47q-1 -2 -1 -6t-1 -6q-2 -10 -4 -26v-2q-2 -8 -2 -26q0 -23 -20 -28q-6 -2 -9 -2q-13 0 -21 10q-5 7 -5 15q0 6 1 9v4v2
q1 19 10 70l3 12q1 5 1 17v1l1 1q0 7 2 17q5 40 5 47q2 10 3 14v1l1 2q3 18 10 67q4 34 8 54q9 51 10 78q1 5 2 15t2 15l3 13v2q2 18 4 27v4q4 28 7 42l9 49q0 3 1 5q0 9 5 41l4 22q0 2 3 26l3 13l2 18q1 22 21 24q1 1 4 1q23 0 29 -19l1 -3v-2q1 -2 1 -7q0 -12 5 -27v-1
q4 -19 10 -55l15 -91q4 -28 7 -42v-2q1 -9 8 -40v-1q5 -29 10 -46v-1l12 -62l3 -15v-2q2 -11 8 -43l3 -15l3 -15q0 -5 2 -13v-2q2 -12 4 -20l1 -4l6 -30q4 -20 7 -30v-1q0 -2 2 -8q0 -2 1.5 -9t2.5 -12q2 -8 8 -26q0 -2 5 -16q4 -13 6 -27zM138 379h2q26 0 39 1
q-9 44 -14 73q-5 17 -6 33l-7 41l-3 16q-1 -1 -1 -4t-1 -5q0 -2 -0.5 -4t-0.5 -4q-3 -13 -7 -37l-14 -112h1q6 0 10 1z" />
    <glyph glyph-name="amacron" unicode="&#x101;" horiz-adv-x="604" 
d="M143 709h331v-103h-331v103zM306 47q0 -4 2 -12q2 -9 -5 -24h-1l-1 -2l-1 -1q-8 -8 -19 -8q-7 0 -12 3h-1l-1 1q-12 8 -14 21l-6 24q0 1 -0.5 3.5t-0.5 4.5q0 1 -0.5 3.5t-1.5 3.5l-9 38q-2 6 -5 19t-5 20q-4 18 -5 26l-6 25v1l-6 34q-5 30 -17 90q-1 3 -1 10h-10h-10
h-12q-3 -1 -11 -1q-18 -2 -27 -2h-4l-3 -26l-3 -21q0 -4 -1 -12.5t-1 -12.5l-1 -1q-1 -2 -1 -6.5t-1 -6.5l-3 -15q-5 -24 -6 -46l-3 -21l-2 -17q-2 -19 -8 -47q0 -4 -2 -12q0 -1 -1.5 -11t-1.5 -15v-1l-1 -1q-1 -8 -1 -26q0 -23 -21 -28q-4 -2 -9 -2q-12 0 -20 10
q-5 5 -5 15q-1 5 0 9v4l1 2q1 32 10 70q0 4 2 12q2 10 2 17v2q0 3 0.5 8.5t1.5 8.5q4 24 6 47q0 8 2 14q1 1 1 3q3 18 10 67q4 34 8 54q7 35 11 78q0 10 4 30q0 5 2 13v2q2 18 4 27v4q4 28 7 42l9 49q0 3 1 5q1 16 5 41q2 6 4 22q2 18 4 26q0 3 2 13l3 18q0 22 20 24
q1 1 4 1q24 0 30 -19l1 -3v-2q0 -1 0.5 -3t0.5 -4q0 -15 4 -27v-1q4 -19 10 -55l16 -91q5 -38 6 -42v-2q1 -9 8 -40v-1q5 -29 10 -46v-1l12 -62l3 -15v-1l1 -1q1 -12 7 -43l3 -15l3 -15q0 -2 0.5 -6.5t1.5 -6.5v-1l1 -1q0 -4 1.5 -11.5t1.5 -8.5q1 -1 1 -4l6 -30
q4 -20 7 -30v-1q1 -1 1.5 -4t0.5 -4q4 -12 4 -21q2 -8 8 -26q1 -3 2.5 -8.5t2.5 -7.5q1 -3 7 -27zM138 379h3q25 0 38 1q-9 44 -14 73q-1 5 -2 10.5t-2 12t-2 10.5l-7 41l-3 16q0 -3 -2 -9q0 -2 -0.5 -4t-0.5 -4q-5 -20 -6 -37l-14 -112h1q5 0 9 1z" />
    <glyph glyph-name="Abreve" unicode="&#x102;" horiz-adv-x="689" 
d="M537 936q-6 -75 -59.5 -120t-134.5 -45q-85 0 -135.5 44.5t-54.5 120.5h83q2 -23 13.5 -36t32 -19t62.5 -6q101 0 108 61h85zM305 47l3 -12q2 -9 -5 -24h-1l-1 -2l-1 -1q-8 -8 -19 -8q-7 0 -13 3h-1l-1 1q-11 8 -13 21l-6 24q-1 1 -1.5 4t-0.5 4q0 2 -0.5 4t-0.5 3l-9 38
q-4 13 -10 39l-6 26q-1 10 -5 25v1l-6 34q-5 30 -17 90q-1 1 -1 5t-1 5h-9h-11h-11q-4 -1 -11 -1q-18 -2 -27 -2h-4l-4 -26q0 -4 -1 -11t-1 -10l-3 -25v-1q-1 -2 -1 -6.5t-1 -6.5l-3 -15q-6 -33 -7 -46q0 -7 -2 -21l-3 -17q-1 -17 -7 -47q-1 -2 -1 -6t-1 -6q-2 -10 -4 -26
v-2q-2 -8 -2 -26q0 -23 -20 -28q-6 -2 -9 -2q-13 0 -21 10q-5 7 -5 15q0 6 1 9v4v2q1 19 10 70l3 12q1 5 1 17v1l1 1q0 7 2 17q5 40 5 47q2 10 3 14v1l1 2q3 18 10 67q4 34 8 54q9 51 10 78q1 5 2 15t2 15l3 13v2q2 18 4 27v4q4 28 7 42l9 49q0 3 1 5q0 9 5 41l4 22
q0 2 3 26l3 13l2 18q1 22 21 24q1 1 4 1q23 0 29 -19l1 -3v-2q1 -2 1 -7q0 -12 5 -27v-1q4 -19 10 -55l15 -91q4 -28 7 -42v-2q1 -9 8 -40v-1q5 -29 10 -46v-1l12 -62l3 -15v-2q2 -11 8 -43l3 -15l3 -15q0 -5 2 -13v-2q2 -12 4 -20l1 -4l6 -30q4 -20 7 -30v-1q0 -2 2 -8
q0 -2 1.5 -9t2.5 -12q2 -8 8 -26q0 -2 5 -16q4 -13 6 -27zM138 379h2q26 0 39 1q-9 44 -14 73q-5 17 -6 33l-7 41l-3 16q-1 -1 -1 -4t-1 -5q0 -2 -0.5 -4t-0.5 -4q-3 -13 -7 -37l-14 -112h1q6 0 10 1z" />
    <glyph glyph-name="abreve" unicode="&#x103;" horiz-adv-x="604" 
d="M501 771q-6 -75 -59.5 -120t-134.5 -45q-85 0 -135.5 44.5t-54.5 120.5h83q2 -23 13.5 -36t32 -19t62.5 -6q101 0 108 61h85zM306 47q0 -4 2 -12q2 -9 -5 -24h-1l-1 -2l-1 -1q-8 -8 -19 -8q-7 0 -12 3h-1l-1 1q-12 8 -14 21l-6 24q0 1 -0.5 3.5t-0.5 4.5q0 1 -0.5 3.5
t-1.5 3.5l-9 38q-2 6 -5 19t-5 20q-4 18 -5 26l-6 25v1l-6 34q-5 30 -17 90q-1 3 -1 10h-10h-10h-12q-3 -1 -11 -1q-18 -2 -27 -2h-4l-3 -26l-3 -21q0 -4 -1 -12.5t-1 -12.5l-1 -1q-1 -2 -1 -6.5t-1 -6.5l-3 -15q-5 -24 -6 -46l-3 -21l-2 -17q-2 -19 -8 -47q0 -4 -2 -12
q0 -1 -1.5 -11t-1.5 -15v-1l-1 -1q-1 -8 -1 -26q0 -23 -21 -28q-4 -2 -9 -2q-12 0 -20 10q-5 5 -5 15q-1 5 0 9v4l1 2q1 32 10 70q0 4 2 12q2 10 2 17v2q0 3 0.5 8.5t1.5 8.5q4 24 6 47q0 8 2 14q1 1 1 3q3 18 10 67q4 34 8 54q7 35 11 78q0 10 4 30q0 5 2 13v2q2 18 4 27v4
q4 28 7 42l9 49q0 3 1 5q1 16 5 41q2 6 4 22q2 18 4 26q0 3 2 13l3 18q0 22 20 24q1 1 4 1q24 0 30 -19l1 -3v-2q0 -1 0.5 -3t0.5 -4q0 -15 4 -27v-1q4 -19 10 -55l16 -91q5 -38 6 -42v-2q1 -9 8 -40v-1q5 -29 10 -46v-1l12 -62l3 -15v-1l1 -1q1 -12 7 -43l3 -15l3 -15
q0 -2 0.5 -6.5t1.5 -6.5v-1l1 -1q0 -4 1.5 -11.5t1.5 -8.5q1 -1 1 -4l6 -30q4 -20 7 -30v-1q1 -1 1.5 -4t0.5 -4q4 -12 4 -21q2 -8 8 -26q1 -3 2.5 -8.5t2.5 -7.5q1 -3 7 -27zM138 379h3q25 0 38 1q-9 44 -14 73q-1 5 -2 10.5t-2 12t-2 10.5l-7 41l-3 16q0 -3 -2 -9
q0 -2 -0.5 -4t-0.5 -4q-5 -20 -6 -37l-14 -112h1q5 0 9 1z" />
    <glyph glyph-name="Aogonek" unicode="&#x104;" horiz-adv-x="689" 
d="M543 -111q0 -21 11 -30.5t28 -9.5q27 0 56 9v-87q-40 -11 -76 -11q-55 0 -88.5 31t-33.5 81q0 33 18.5 61.5t69.5 66.5h87q-34 -32 -53 -59t-19 -52zM305 47l3 -12q2 -9 -5 -24h-1l-1 -2l-1 -1q-8 -8 -19 -8q-7 0 -13 3h-1l-1 1q-11 8 -13 21l-6 24q-1 1 -1.5 4t-0.5 4
q0 2 -0.5 4t-0.5 3l-9 38q-4 13 -10 39l-6 26q-1 10 -5 25v1l-6 34q-5 30 -17 90q-1 1 -1 5t-1 5h-9h-11h-11q-4 -1 -11 -1q-18 -2 -27 -2h-4l-4 -26q0 -4 -1 -11t-1 -10l-3 -25v-1q-1 -2 -1 -6.5t-1 -6.5l-3 -15q-6 -33 -7 -46q0 -7 -2 -21l-3 -17q-1 -17 -7 -47
q-1 -2 -1 -6t-1 -6q-2 -10 -4 -26v-2q-2 -8 -2 -26q0 -23 -20 -28q-6 -2 -9 -2q-13 0 -21 10q-5 7 -5 15q0 6 1 9v4v2q1 19 10 70l3 12q1 5 1 17v1l1 1q0 7 2 17q5 40 5 47q2 10 3 14v1l1 2q3 18 10 67q4 34 8 54q9 51 10 78q1 5 2 15t2 15l3 13v2q2 18 4 27v4q4 28 7 42
l9 49q0 3 1 5q0 9 5 41l4 22q0 2 3 26l3 13l2 18q1 22 21 24q1 1 4 1q23 0 29 -19l1 -3v-2q1 -2 1 -7q0 -12 5 -27v-1q4 -19 10 -55l15 -91q4 -28 7 -42v-2q1 -9 8 -40v-1q5 -29 10 -46v-1l12 -62l3 -15v-2q2 -11 8 -43l3 -15l3 -15q0 -5 2 -13v-2q2 -12 4 -20l1 -4l6 -30
q4 -20 7 -30v-1q0 -2 2 -8q0 -2 1.5 -9t2.5 -12q2 -8 8 -26q0 -2 5 -16q4 -13 6 -27zM138 379h2q26 0 39 1q-9 44 -14 73q-5 17 -6 33l-7 41l-3 16q-1 -1 -1 -4t-1 -5q0 -2 -0.5 -4t-0.5 -4q-3 -13 -7 -37l-14 -112h1q6 0 10 1z" />
    <glyph glyph-name="aogonek" unicode="&#x105;" horiz-adv-x="604" 
d="M442 -111q0 -21 11 -30.5t28 -9.5q27 0 56 9v-87q-40 -11 -76 -11q-55 0 -88.5 31t-33.5 81q0 33 18.5 61.5t69.5 66.5h87q-34 -32 -53 -59t-19 -52zM306 47q0 -4 2 -12q2 -9 -5 -24h-1l-1 -2l-1 -1q-8 -8 -19 -8q-7 0 -12 3h-1l-1 1q-12 8 -14 21l-6 24q0 1 -0.5 3.5
t-0.5 4.5q0 1 -0.5 3.5t-1.5 3.5l-9 38q-2 6 -5 19t-5 20q-4 18 -5 26l-6 25v1l-6 34q-5 30 -17 90q-1 3 -1 10h-10h-10h-12q-3 -1 -11 -1q-18 -2 -27 -2h-4l-3 -26l-3 -21q0 -4 -1 -12.5t-1 -12.5l-1 -1q-1 -2 -1 -6.5t-1 -6.5l-3 -15q-5 -24 -6 -46l-3 -21l-2 -17
q-2 -19 -8 -47q0 -4 -2 -12q0 -1 -1.5 -11t-1.5 -15v-1l-1 -1q-1 -8 -1 -26q0 -23 -21 -28q-4 -2 -9 -2q-12 0 -20 10q-5 5 -5 15q-1 5 0 9v4l1 2q1 32 10 70q0 4 2 12q2 10 2 17v2q0 3 0.5 8.5t1.5 8.5q4 24 6 47q0 8 2 14q1 1 1 3q3 18 10 67q4 34 8 54q7 35 11 78
q0 10 4 30q0 5 2 13v2q2 18 4 27v4q4 28 7 42l9 49q0 3 1 5q1 16 5 41q2 6 4 22q2 18 4 26q0 3 2 13l3 18q0 22 20 24q1 1 4 1q24 0 30 -19l1 -3v-2q0 -1 0.5 -3t0.5 -4q0 -15 4 -27v-1q4 -19 10 -55l16 -91q5 -38 6 -42v-2q1 -9 8 -40v-1q5 -29 10 -46v-1l12 -62l3 -15v-1
l1 -1q1 -12 7 -43l3 -15l3 -15q0 -2 0.5 -6.5t1.5 -6.5v-1l1 -1q0 -4 1.5 -11.5t1.5 -8.5q1 -1 1 -4l6 -30q4 -20 7 -30v-1q1 -1 1.5 -4t0.5 -4q4 -12 4 -21q2 -8 8 -26q1 -3 2.5 -8.5t2.5 -7.5q1 -3 7 -27zM138 379h3q25 0 38 1q-9 44 -14 73q-1 5 -2 10.5t-2 12t-2 10.5
l-7 41l-3 16q0 -3 -2 -9q0 -2 -0.5 -4t-0.5 -4q-5 -20 -6 -37l-14 -112h1q5 0 9 1z" />
    <glyph glyph-name="Cacute" unicode="&#x106;" horiz-adv-x="637" 
d="M278 684l4 -7l2 -4q6 -7 4 -17q-3 -11 -13 -17q-6 -3 -11 -3q-6 0 -10 3q-14 4 -23 20q-7 13 -28 21q-8 3 -26 5q-10 1 -22 -7q-2 -2 -6 -5.5t-6.5 -6t-4.5 -5.5q-26 -31 -42 -70v-1q-1 -2 -6 -19l-1 -4q-1 -5 -3 -15.5t-3 -15.5q-2 -10 -2 -15q0 -1 -0.5 -4t-0.5 -5
q-2 -18 -4 -49q-1 -12 -1 -35v-1q-2 -29 0 -58v-1q0 -69 2 -104v-7q1 -4 2.5 -12t1.5 -11q2 -18 8 -52v-1q5 -31 14 -49q3 -8 10 -17v-1q2 -3 6 -11l5 -8l2 -3l1 -3l1 -2v-3l2 -3q5 -10 11 -13q7 -2 13 -8q16 -7 25 -7h3q2 1 5 1t4 1q20 2 29 8h1q7 5 9 10v1l1 1q1 1 2 4
t2 5l3 5v1q8 14 22 14q5 0 8 -1l4 -1l3 -3l7 -7q7 -13 3 -24q-14 -51 -66 -62l-14 -3q-13 -3 -27 -3t-26 3q-7 1 -17 6l-4 2h-2l-2 2q-3 2 -9 5.5t-9 5.5q-13 7 -20 19v1h-1q-2 4 -9 17l-2 2l-3 7q-2 3 -4.5 8t-3.5 8q-6 8 -18 37l-3 11q0 2 -2 6q-3 8 -7 28q0 3 -1.5 8
t-1.5 6l-2 8q-3 9 -3 13q0 6 -2 24q-3 33 -3 36q0 5 1 7v5l-1 1q-3 19 -1 45v2v3q-2 24 0 45v20v18q-2 7 -2 19v3v1l3 42q2 40 5 58l6 33q2 6 4 16v1q0 1 0.5 3t0.5 3q2 14 7 24q8 20 19 36q5 8 7 12l14 21l6 8q10 12 18 19q8 8 18 15q13 10 36 14h1q32 3 59 -9h1l3 -1
q30 -10 48 -40l1 -2zM292 771v13q84 98 115 147h167v-10q-25 -25 -86.5 -75.5t-96.5 -74.5h-99z" />
    <glyph glyph-name="cacute" unicode="&#x107;" horiz-adv-x="514" 
d="M281 677q2 -2 3 -4q5 -6 3 -17q-1 -10 -12 -17q-6 -3 -12 -3q-4 0 -10 3q-15 5 -22 20q-8 14 -28 21q-8 3 -27 5q-9 1 -21 -7q-13 -12 -18 -17q-24 -28 -41 -70l-1 -1q-4 -9 -5 -19q-1 -1 -1 -4q-5 -23 -7 -31q-1 -5 -1 -15q-1 -3 -1 -9q-2 -18 -4 -49q-1 -12 -1 -35v-1
q-2 -29 0 -58v-1q0 -69 2 -104v-7l3 -23q8 -47 9 -52v-1q3 -23 13 -49q4 -8 10 -17l1 -1q2 -3 6 -11l5 -8l2 -3v-3q1 -1 1 -2q1 -2 1 -3v-1q1 -1 1 -2q6 -10 11 -13q9 -3 13 -8q17 -7 26 -7h3q2 1 5 1t4 1q19 2 29 8q8 5 10 10v2q4 6 5 9q2 4 2 5h1v1q6 14 22 14q5 0 7 -1
l5 -1l3 -3q4 -4 6 -7q9 -12 4 -24q-14 -51 -67 -62l-13 -3q-15 -3 -27 -3q-14 0 -27 3q-3 1 -17 6l-2 1q-1 0 -1 1h-2l-2 2q-6 3 -18 11q-13 7 -20 19l-1 1q-6 12 -10 17v1l-1 1l-3 7q-2 3 -5 8t-4 8q-9 14 -17 37l-3 11q-1 1 -1 3t-1 3q-6 15 -7 28q0 3 -1.5 8t-1.5 6
q-2 6 -2 8q-3 4 -3 13q0 6 -2 24q-3 17 -3 36v7v5v1q-3 19 -1 45v2v3q-2 24 0 45v20q0 13 -1 18q-1 3 -1 19v3v1l3 42q2 40 5 58l6 33q1 6 3 16v1q1 1 1 3t1 3q2 14 7 24q8 20 19 36l7 12q2 2 6 9.5t7 11.5h1l6 8q10 12 17 19l18 15q14 10 36 14h2q31 3 58 -9h1l4 -1
q30 -11 48 -40l1 -2l1 -1q0 -1 1.5 -3.5t1.5 -3.5zM204 606v13q84 98 115 147h167v-10q-25 -25 -86.5 -75.5t-96.5 -74.5h-99z" />
    <glyph glyph-name="Ccircumflex" unicode="&#x108;" horiz-adv-x="637" 
d="M499 771q-77 45 -114 86q-38 -40 -112 -86h-99v13q92 92 125 147h174q15 -25 52.5 -69t72.5 -78v-13h-99zM278 684l4 -7l2 -4q6 -7 4 -17q-3 -11 -13 -17q-6 -3 -11 -3q-6 0 -10 3q-14 4 -23 20q-7 13 -28 21q-8 3 -26 5q-10 1 -22 -7q-2 -2 -6 -5.5t-6.5 -6t-4.5 -5.5
q-26 -31 -42 -70v-1q-1 -2 -6 -19l-1 -4q-1 -5 -3 -15.5t-3 -15.5q-2 -10 -2 -15q0 -1 -0.5 -4t-0.5 -5q-2 -18 -4 -49q-1 -12 -1 -35v-1q-2 -29 0 -58v-1q0 -69 2 -104v-7q1 -4 2.5 -12t1.5 -11q2 -18 8 -52v-1q5 -31 14 -49q3 -8 10 -17v-1q2 -3 6 -11l5 -8l2 -3l1 -3
l1 -2v-3l2 -3q5 -10 11 -13q7 -2 13 -8q16 -7 25 -7h3q2 1 5 1t4 1q20 2 29 8h1q7 5 9 10v1l1 1q1 1 2 4t2 5l3 5v1q8 14 22 14q5 0 8 -1l4 -1l3 -3l7 -7q7 -13 3 -24q-14 -51 -66 -62l-14 -3q-13 -3 -27 -3t-26 3q-7 1 -17 6l-4 2h-2l-2 2q-3 2 -9 5.5t-9 5.5q-13 7 -20 19
v1h-1q-2 4 -9 17l-2 2l-3 7q-2 3 -4.5 8t-3.5 8q-6 8 -18 37l-3 11q0 2 -2 6q-3 8 -7 28q0 3 -1.5 8t-1.5 6l-2 8q-3 9 -3 13q0 6 -2 24q-3 33 -3 36q0 5 1 7v5l-1 1q-3 19 -1 45v2v3q-2 24 0 45v20v18q-2 7 -2 19v3v1l3 42q2 40 5 58l6 33q2 6 4 16v1q0 1 0.5 3t0.5 3
q2 14 7 24q8 20 19 36q5 8 7 12l14 21l6 8q10 12 18 19q8 8 18 15q13 10 36 14h1q32 3 59 -9h1l3 -1q30 -10 48 -40l1 -2z" />
    <glyph glyph-name="ccircumflex" unicode="&#x109;" horiz-adv-x="514" 
d="M408 606q-77 45 -114 86q-38 -40 -112 -86h-99v13q92 92 125 147h174q15 -25 52.5 -69t72.5 -78v-13h-99zM281 677q2 -2 3 -4q5 -6 3 -17q-1 -10 -12 -17q-6 -3 -12 -3q-4 0 -10 3q-15 5 -22 20q-8 14 -28 21q-8 3 -27 5q-9 1 -21 -7q-13 -12 -18 -17q-24 -28 -41 -70
l-1 -1q-4 -9 -5 -19q-1 -1 -1 -4q-5 -23 -7 -31q-1 -5 -1 -15q-1 -3 -1 -9q-2 -18 -4 -49q-1 -12 -1 -35v-1q-2 -29 0 -58v-1q0 -69 2 -104v-7l3 -23q8 -47 9 -52v-1q3 -23 13 -49q4 -8 10 -17l1 -1q2 -3 6 -11l5 -8l2 -3v-3q1 -1 1 -2q1 -2 1 -3v-1q1 -1 1 -2q6 -10 11 -13
q9 -3 13 -8q17 -7 26 -7h3q2 1 5 1t4 1q19 2 29 8q8 5 10 10v2q4 6 5 9q2 4 2 5h1v1q6 14 22 14q5 0 7 -1l5 -1l3 -3q4 -4 6 -7q9 -12 4 -24q-14 -51 -67 -62l-13 -3q-15 -3 -27 -3q-14 0 -27 3q-3 1 -17 6l-2 1q-1 0 -1 1h-2l-2 2q-6 3 -18 11q-13 7 -20 19l-1 1
q-6 12 -10 17v1l-1 1l-3 7q-2 3 -5 8t-4 8q-9 14 -17 37l-3 11q-1 1 -1 3t-1 3q-6 15 -7 28q0 3 -1.5 8t-1.5 6q-2 6 -2 8q-3 4 -3 13q0 6 -2 24q-3 17 -3 36v7v5v1q-3 19 -1 45v2v3q-2 24 0 45v20q0 13 -1 18q-1 3 -1 19v3v1l3 42q2 40 5 58l6 33q1 6 3 16v1q1 1 1 3t1 3
q2 14 7 24q8 20 19 36l7 12q2 2 6 9.5t7 11.5h1l6 8q10 12 17 19l18 15q14 10 36 14h2q31 3 58 -9h1l4 -1q30 -11 48 -40l1 -2l1 -1q0 -1 1.5 -3.5t1.5 -3.5z" />
    <glyph glyph-name="Cdotaccent" unicode="&#x10a;" horiz-adv-x="637" 
d="M303 852q0 73 81 73t81 -73q0 -35 -20.5 -54t-60.5 -19q-81 0 -81 73zM278 684l4 -7l2 -4q6 -7 4 -17q-3 -11 -13 -17q-6 -3 -11 -3q-6 0 -10 3q-14 4 -23 20q-7 13 -28 21q-8 3 -26 5q-10 1 -22 -7q-2 -2 -6 -5.5t-6.5 -6t-4.5 -5.5q-26 -31 -42 -70v-1q-1 -2 -6 -19
l-1 -4q-1 -5 -3 -15.5t-3 -15.5q-2 -10 -2 -15q0 -1 -0.5 -4t-0.5 -5q-2 -18 -4 -49q-1 -12 -1 -35v-1q-2 -29 0 -58v-1q0 -69 2 -104v-7q1 -4 2.5 -12t1.5 -11q2 -18 8 -52v-1q5 -31 14 -49q3 -8 10 -17v-1q2 -3 6 -11l5 -8l2 -3l1 -3l1 -2v-3l2 -3q5 -10 11 -13
q7 -2 13 -8q16 -7 25 -7h3q2 1 5 1t4 1q20 2 29 8h1q7 5 9 10v1l1 1q1 1 2 4t2 5l3 5v1q8 14 22 14q5 0 8 -1l4 -1l3 -3l7 -7q7 -13 3 -24q-14 -51 -66 -62l-14 -3q-13 -3 -27 -3t-26 3q-7 1 -17 6l-4 2h-2l-2 2q-3 2 -9 5.5t-9 5.5q-13 7 -20 19v1h-1q-2 4 -9 17l-2 2l-3 7
q-2 3 -4.5 8t-3.5 8q-6 8 -18 37l-3 11q0 2 -2 6q-3 8 -7 28q0 3 -1.5 8t-1.5 6l-2 8q-3 9 -3 13q0 6 -2 24q-3 33 -3 36q0 5 1 7v5l-1 1q-3 19 -1 45v2v3q-2 24 0 45v20v18q-2 7 -2 19v3v1l3 42q2 40 5 58l6 33q2 6 4 16v1q0 1 0.5 3t0.5 3q2 14 7 24q8 20 19 36q5 8 7 12
l14 21l6 8q10 12 18 19q8 8 18 15q13 10 36 14h1q32 3 59 -9h1l3 -1q30 -10 48 -40l1 -2z" />
    <glyph glyph-name="cdotaccent" unicode="&#x10b;" horiz-adv-x="514" 
d="M226 687q0 73 81 73t81 -73q0 -35 -20.5 -54t-60.5 -19q-81 0 -81 73zM281 677q2 -2 3 -4q5 -6 3 -17q-1 -10 -12 -17q-6 -3 -12 -3q-4 0 -10 3q-15 5 -22 20q-8 14 -28 21q-8 3 -27 5q-9 1 -21 -7q-13 -12 -18 -17q-24 -28 -41 -70l-1 -1q-4 -9 -5 -19q-1 -1 -1 -4
q-5 -23 -7 -31q-1 -5 -1 -15q-1 -3 -1 -9q-2 -18 -4 -49q-1 -12 -1 -35v-1q-2 -29 0 -58v-1q0 -69 2 -104v-7l3 -23q8 -47 9 -52v-1q3 -23 13 -49q4 -8 10 -17l1 -1q2 -3 6 -11l5 -8l2 -3v-3q1 -1 1 -2q1 -2 1 -3v-1q1 -1 1 -2q6 -10 11 -13q9 -3 13 -8q17 -7 26 -7h3
q2 1 5 1t4 1q19 2 29 8q8 5 10 10v2q4 6 5 9q2 4 2 5h1v1q6 14 22 14q5 0 7 -1l5 -1l3 -3q4 -4 6 -7q9 -12 4 -24q-14 -51 -67 -62l-13 -3q-15 -3 -27 -3q-14 0 -27 3q-3 1 -17 6l-2 1q-1 0 -1 1h-2l-2 2q-6 3 -18 11q-13 7 -20 19l-1 1q-6 12 -10 17v1l-1 1l-3 7q-2 3 -5 8
t-4 8q-9 14 -17 37l-3 11q-1 1 -1 3t-1 3q-6 15 -7 28q0 3 -1.5 8t-1.5 6q-2 6 -2 8q-3 4 -3 13q0 6 -2 24q-3 17 -3 36v7v5v1q-3 19 -1 45v2v3q-2 24 0 45v20q0 13 -1 18q-1 3 -1 19v3v1l3 42q2 40 5 58l6 33q1 6 3 16v1q1 1 1 3t1 3q2 14 7 24q8 20 19 36l7 12q2 2 6 9.5
t7 11.5h1l6 8q10 12 17 19l18 15q14 10 36 14h2q31 3 58 -9h1l4 -1q30 -11 48 -40l1 -2l1 -1q0 -1 1.5 -3.5t1.5 -3.5z" />
    <glyph glyph-name="Ccaron" unicode="&#x10c;" horiz-adv-x="637" 
d="M599 931v-13q-41 -41 -75.5 -82t-49.5 -65h-174q-14 23 -40.5 55t-84.5 92v13h99q72 -45 112 -86q41 42 114 86h99zM278 684l4 -7l2 -4q6 -7 4 -17q-3 -11 -13 -17q-6 -3 -11 -3q-6 0 -10 3q-14 4 -23 20q-7 13 -28 21q-8 3 -26 5q-10 1 -22 -7q-2 -2 -6 -5.5t-6.5 -6
t-4.5 -5.5q-26 -31 -42 -70v-1q-1 -2 -6 -19l-1 -4q-1 -5 -3 -15.5t-3 -15.5q-2 -10 -2 -15q0 -1 -0.5 -4t-0.5 -5q-2 -18 -4 -49q-1 -12 -1 -35v-1q-2 -29 0 -58v-1q0 -69 2 -104v-7q1 -4 2.5 -12t1.5 -11q2 -18 8 -52v-1q5 -31 14 -49q3 -8 10 -17v-1q2 -3 6 -11l5 -8
l2 -3l1 -3l1 -2v-3l2 -3q5 -10 11 -13q7 -2 13 -8q16 -7 25 -7h3q2 1 5 1t4 1q20 2 29 8h1q7 5 9 10v1l1 1q1 1 2 4t2 5l3 5v1q8 14 22 14q5 0 8 -1l4 -1l3 -3l7 -7q7 -13 3 -24q-14 -51 -66 -62l-14 -3q-13 -3 -27 -3t-26 3q-7 1 -17 6l-4 2h-2l-2 2q-3 2 -9 5.5t-9 5.5
q-13 7 -20 19v1h-1q-2 4 -9 17l-2 2l-3 7q-2 3 -4.5 8t-3.5 8q-6 8 -18 37l-3 11q0 2 -2 6q-3 8 -7 28q0 3 -1.5 8t-1.5 6l-2 8q-3 9 -3 13q0 6 -2 24q-3 33 -3 36q0 5 1 7v5l-1 1q-3 19 -1 45v2v3q-2 24 0 45v20v18q-2 7 -2 19v3v1l3 42q2 40 5 58l6 33q2 6 4 16v1
q0 1 0.5 3t0.5 3q2 14 7 24q8 20 19 36q5 8 7 12l14 21l6 8q10 12 18 19q8 8 18 15q13 10 36 14h1q32 3 59 -9h1l3 -1q30 -10 48 -40l1 -2z" />
    <glyph glyph-name="ccaron" unicode="&#x10d;" horiz-adv-x="514" 
d="M515 766v-13q-41 -41 -75.5 -82t-49.5 -65h-174q-14 23 -40.5 55t-84.5 92v13h99q72 -45 112 -86q41 42 114 86h99zM281 677q2 -2 3 -4q5 -6 3 -17q-1 -10 -12 -17q-6 -3 -12 -3q-4 0 -10 3q-15 5 -22 20q-8 14 -28 21q-8 3 -27 5q-9 1 -21 -7q-13 -12 -18 -17
q-24 -28 -41 -70l-1 -1q-4 -9 -5 -19q-1 -1 -1 -4q-5 -23 -7 -31q-1 -5 -1 -15q-1 -3 -1 -9q-2 -18 -4 -49q-1 -12 -1 -35v-1q-2 -29 0 -58v-1q0 -69 2 -104v-7l3 -23q8 -47 9 -52v-1q3 -23 13 -49q4 -8 10 -17l1 -1q2 -3 6 -11l5 -8l2 -3v-3q1 -1 1 -2q1 -2 1 -3v-1
q1 -1 1 -2q6 -10 11 -13q9 -3 13 -8q17 -7 26 -7h3q2 1 5 1t4 1q19 2 29 8q8 5 10 10v2q4 6 5 9q2 4 2 5h1v1q6 14 22 14q5 0 7 -1l5 -1l3 -3q4 -4 6 -7q9 -12 4 -24q-14 -51 -67 -62l-13 -3q-15 -3 -27 -3q-14 0 -27 3q-3 1 -17 6l-2 1q-1 0 -1 1h-2l-2 2q-6 3 -18 11
q-13 7 -20 19l-1 1q-6 12 -10 17v1l-1 1l-3 7q-2 3 -5 8t-4 8q-9 14 -17 37l-3 11q-1 1 -1 3t-1 3q-6 15 -7 28q0 3 -1.5 8t-1.5 6q-2 6 -2 8q-3 4 -3 13q0 6 -2 24q-3 17 -3 36v7v5v1q-3 19 -1 45v2v3q-2 24 0 45v20q0 13 -1 18q-1 3 -1 19v3v1l3 42q2 40 5 58l6 33
q1 6 3 16v1q1 1 1 3t1 3q2 14 7 24q8 20 19 36l7 12q2 2 6 9.5t7 11.5h1l6 8q10 12 17 19l18 15q14 10 36 14h2q31 3 58 -9h1l4 -1q30 -11 48 -40l1 -2l1 -1q0 -1 1.5 -3.5t1.5 -3.5z" />
    <glyph glyph-name="Dcaron" unicode="&#x10e;" horiz-adv-x="740" 
d="M566 931v-13q-41 -41 -75.5 -82t-49.5 -65h-174q-14 23 -40.5 55t-84.5 92v13h99q72 -45 112 -86q41 42 114 86h99zM21 674v1q-2 17 0 27q0 1 -0.5 3.5t-0.5 4.5q0 9 5 17q6 11 21 11h3q9 0 27 -2h2q22 -6 33 -11q22 -10 41 -27l21 -21q33 -31 58 -83v-1q1 -2 2.5 -4.5
t2.5 -5.5t2 -4q19 -44 24 -64l1 -2q9 -18 17 -56q0 -2 2 -8v-2q0 -2 2 -8l3 -13q4 -20 2 -41q-2 -20 -2 -28q1 -30 -9 -82v-3q-8 -44 -15 -67q-7 -33 -26 -62v-1q-6 -8 -8 -12q-7 -11 -23 -33q-2 -4 -7.5 -9.5t-5.5 -6.5l-37 -39v-1q-14 -12 -42 -26l-12.5 -5t-9.5 -4
q-6 -2 -11 -4h-1q-5 -2 -15 -2h-3h-1q-27 0 -29 28q-2 20 -2 29q0 3 -0.5 7t-0.5 7v1q0 5 1 7v8q-2 22 -2 44q-1 5 -1 14v2q2 12 0 39q0 1 -0.5 5t-0.5 6v1q0 17 1 26v1q2 12 0 39v1v13q-1 5 -1 15v25v52q1 20 0 40q-1 5 -1 11v2q1 4 1 12q2 16 2 21v8q0 18 1 28v12
q-2 20 -2 60q0 5 -0.5 15t-0.5 14v1v22q-1 7 -1 22q-2 22 -4 36zM191 552q-9 21 -18 39q-24 40 -56 69q-16 14 -36 21q-4 2 -7 2v-1v-13q3 -17 5 -49v-12v-1v-8q1 -3 1 -12q0 -30 1 -46v-1q0 -13 1 -20v-22v-12q0 -31 -1 -38q-3 -20 0 -39v-3v-4q1 -6 0 -15q-4 -36 -1 -83
v-1q0 -14 1 -21v-1q1 -28 0 -57v-2l-1 -2q-1 -4 1 -17v-2q0 -12 1 -18v-20q0 -36 1 -54v-50q23 7 37 22q8 8 13 12q32 33 52 65q1 2 2 4.5t2 3.5q6 8 7 12l1 1v1q15 29 18 51l1 1q14 73 15 83q3 18 3 36v9q0 25 2 39v5l-1 1v1q-6 42 -18 77v1q-8 24 -26 68z" />
    <glyph glyph-name="dcaron" unicode="&#x10f;" horiz-adv-x="632" 
d="M600 613q7 24 16.5 70t13.5 77h138v-10q-39 -86 -81 -150h-87v13zM21 674v1q-2 16 -1 27v8q0 10 4 17q8 11 22 11h3q9 0 27 -2h2q22 -6 33 -11q24 -11 40 -27q8 -7 22 -21q33 -31 58 -83v-1l6 -14q18 -39 25 -64l1 -2q4 -10 17 -56q0 -1 0.5 -4t0.5 -4v-1l1 -1
q0 -1 0.5 -3.5t0.5 -4.5q3 -12 3 -13q5 -19 3 -41q-2 -20 -2 -28q1 -30 -9 -82l-1 -3q-8 -44 -14 -67q-7 -33 -26 -62l-1 -1q-2 -4 -8 -12q-14 -22 -23 -33q-6 -9 -13 -16l-36 -39l-1 -1q-17 -14 -42 -26q-3 -2 -6.5 -3.5t-8 -3t-6.5 -2.5q-8 -2 -11 -4h-1q-6 -2 -15 -2h-4
q-13 0 -21 7.5t-8 20.5q-1 6 -2 17t-1 12v14v1v7q0 1 0.5 4t0.5 4q-2 22 -2 44q-1 5 -1 14v2q1 12 -1 39v11v1q0 17 1 26v1q2 12 0 39v1q0 2 -0.5 6t-0.5 7v15q0 17 -1 25q0 35 1 52q1 20 0 40q-1 5 -1 11v2q0 2 0.5 6t0.5 6q2 16 2 21v8q-2 14 1 28v12q-3 30 -3 60v29v1
q0 3 -0.5 10.5t-0.5 11.5v22q-2 22 -4 36zM190 552q-13 31 -18 39q-22 39 -56 69q-13 13 -35 21q-6 2 -8 2v-1v-13q3 -11 5 -49q0 -8 1 -12v-1v-8q0 -1 0.5 -5.5t0.5 -6.5q0 -30 1 -46v-1v-20q0 -4 0.5 -11.5t0.5 -10.5v-12q0 -25 -2 -38q-2 -20 0 -39l1 -2v-1v-4
q0 -9 -1 -15q-3 -39 0 -83v-1q0 -14 1 -21v-1q1 -28 0 -57v-2l-1 -2q-1 -4 1 -17v-2v-18q0 -3 0.5 -10t0.5 -10v-54q0 -8 0.5 -24.5t0.5 -25.5q23 8 37 22l12 12q32 32 53 65q1 4 4 8q6 8 7 12v1l1 1q15 29 18 51v1q11 50 16 83q3 18 3 36v9q-2 21 2 39q0 4 -1 5v2
q-6 42 -18 77v1q-16 44 -27 68z" />
    <glyph glyph-name="Dcroat" unicode="&#x110;" horiz-adv-x="740" 
d="M23 415h67v299h224q175 0 271.5 -92.5t96.5 -257.5q0 -176 -100.5 -270t-289.5 -94h-202v291h-67v124zM525 360q0 113 -51 171.5t-153 58.5h-80v-175h116v-124h-116v-166h64q220 0 220 235z" />
    <glyph glyph-name="dcroat" unicode="&#x111;" horiz-adv-x="648" 
d="M251 -10q-97 0 -151.5 71.5t-54.5 195.5q0 128 56 198.5t154 70.5q104 0 157 -80h5q-11 64 -11 113v25h-154v97h154v79h149v-79h76v-97h-76v-584h-114l-29 71h-6q-51 -81 -155 -81zM303 109q57 0 84 30.5t29 102.5v14q0 80 -27.5 114.5t-87.5 34.5q-50 0 -77.5 -38.5
t-27.5 -111.5t27.5 -109.5t79.5 -36.5z" />
    <glyph glyph-name="Emacron" unicode="&#x112;" horiz-adv-x="560" 
d="M134 874h331v-103h-331v103zM23 596q-1 8 -1 25q-2 13 -2 38v9v14l1 2q1 10 0 23q-2 13 6 21q7 10 21 10h9q16 -2 25 -2q17 0 26 1h30h6h2h2q10 1 30 1q6 1 18 1h1h24q8 1 26 1q5 0 17 -4q8 -4 12 -15h1v-2q7 -19 -12 -28q-7 -5 -20 -5h-28q-45 0 -67 -2h-20h-8h-8h-10
q-15 -2 -29 0q-3 -32 -1 -60t2 -42v-27q0 -52 1 -78v-1v-19q-1 -6 -1 -17q1 -7 1 -22q2 -20 2 -31q33 0 35 2h4h14q1 0 3.5 0.5t4.5 0.5h10l4 -2q15 -5 15 -22q0 -16 -13 -23q-10 -6 -28 -6h-4h-3q-16 -2 -26 -2h-11h-7v-5q0 -23 1 -34v-2q2 -28 1 -42q-1 -36 1 -108v-27
q0 -26 -1 -40v-9v-15q3 1 11 1t11 1h1q12 2 18 2l117 3h6q2 1 8 1h3q14 0 28 -14q7 -8 5 -19q-1 -7 -9 -15q-8 -6 -16 -6h-2h-1h-1h-7q-1 1 -4 1q-4 0 -6 -1h-3q-38 0 -90 -2h-1q-21 0 -44 -3q-15 -2 -46 -2q-23 0 -30 23l-1 1l-1 9q-2 24 -1 37q3 18 1 48v29q0 26 -1 40
q-2 20 0 42q2 16 0 51v1v21q-1 11 -1 30q3 56 0 86v20q0 51 -1 76v20v8v1q1 9 1 53z" />
    <glyph glyph-name="emacron" unicode="&#x113;" horiz-adv-x="590" 
d="M136 709h331v-103h-331v103zM23 596v25q-4 16 -2 38v9v16q2 14 1 23q-2 14 5 21q7 10 22 10h9q14 -2 24 -2q18 0 27 1h30h5h2h2q10 1 30 1q7 1 18 1h2h23q9 1 27 1q1 0 17 -4q8 -4 12 -15l1 -2q7 -18 -12 -28q-8 -5 -20 -5h-28q-46 0 -68 -2h-19h-8h-9h-9q-15 -2 -30 0
q-3 -35 0 -60q2 -28 2 -42q0 -18 -1 -27q0 -52 2 -78v-1q0 -3 -0.5 -9.5t-0.5 -9.5v-17q1 -7 1 -22q0 -5 0.5 -15.5t0.5 -15.5q35 0 35 2h5h14l3 1h4h10l4 -2q16 -6 16 -22t-14 -23q-9 -6 -27 -6h-5h-2q-16 -2 -26 -2h-11h-7q0 -3 -1 -5q0 -23 1 -34l1 -1v-1q2 -28 1 -42
q-2 -36 0 -108q0 -18 1 -27q0 -26 -1 -40q0 -6 -1 -9v-15q4 0 11 0.5t11 1.5h1q12 2 18 2l118 3h5q3 1 8 1h4q17 0 27 -14q7 -8 5 -19q-1 -9 -9 -15t-16 -6h-2h-2h-6q-1 1 -5 1q-3 0 -5 -1h-3q-37 0 -91 -2q-21 0 -45 -3q-15 -2 -45 -2q-24 0 -31 23l-1 1v9q-2 24 -1 37
q2 29 1 48v29q0 26 -1 40q-2 20 0 42q2 16 0 51v1q0 3 -0.5 10t-0.5 11q-2 16 0 30q3 48 0 86v20q0 51 -1 76q-1 7 -1 20q1 3 1 8v1q2 26 0 53z" />
    <glyph glyph-name="Ebreve" unicode="&#x114;" horiz-adv-x="560" 
d="M484 936q-6 -75 -59.5 -120t-134.5 -45q-85 0 -135.5 44.5t-54.5 120.5h83q2 -23 13.5 -36t32 -19t62.5 -6q101 0 108 61h85zM23 596q-1 8 -1 25q-2 13 -2 38v9v14l1 2q1 10 0 23q-2 13 6 21q7 10 21 10h9q16 -2 25 -2q17 0 26 1h30h6h2h2q10 1 30 1q6 1 18 1h1h24
q8 1 26 1q5 0 17 -4q8 -4 12 -15h1v-2q7 -19 -12 -28q-7 -5 -20 -5h-28q-45 0 -67 -2h-20h-8h-8h-10q-15 -2 -29 0q-3 -32 -1 -60t2 -42v-27q0 -52 1 -78v-1v-19q-1 -6 -1 -17q1 -7 1 -22q2 -20 2 -31q33 0 35 2h4h14q1 0 3.5 0.5t4.5 0.5h10l4 -2q15 -5 15 -22
q0 -16 -13 -23q-10 -6 -28 -6h-4h-3q-16 -2 -26 -2h-11h-7v-5q0 -23 1 -34v-2q2 -28 1 -42q-1 -36 1 -108v-27q0 -26 -1 -40v-9v-15q3 1 11 1t11 1h1q12 2 18 2l117 3h6q2 1 8 1h3q14 0 28 -14q7 -8 5 -19q-1 -7 -9 -15q-8 -6 -16 -6h-2h-1h-1h-7q-1 1 -4 1q-4 0 -6 -1h-3
q-38 0 -90 -2h-1q-21 0 -44 -3q-15 -2 -46 -2q-23 0 -30 23l-1 1l-1 9q-2 24 -1 37q3 18 1 48v29q0 26 -1 40q-2 20 0 42q2 16 0 51v1v21q-1 11 -1 30q3 56 0 86v20q0 51 -1 76v20v8v1q1 9 1 53z" />
    </font>
</defs>
</svg>
