<?xml version="1.0" standalone="no"?>
<!DOCTYPE svg PUBLIC "-//W3C//DTD SVG 1.1//EN" "http://www.w3.org/Graphics/SVG/1.1/DTD/svg11.dtd" >
<svg xmlns="http://www.w3.org/2000/svg" xmlns:xlink="http://www.w3.org/1999/xlink" version="1.1">
<metadata>
Created by FontForge 20190801 at Mon Feb  8 12:15:16 2021
 By root
</metadata>
<defs>
<font id="IndependentScript-Regular" horiz-adv-x="300" >
  <font-face 
    font-family="Independent Script"
    font-weight="400"
    font-style="italic"
    font-stretch="normal"
    units-per-em="1000"
    panose-1="0 0 5 0 0 0 0 0 0 0"
    ascent="800"
    descent="-200"
    x-height="515"
    cap-height="815"
    bbox="-349 -502.125 1632 1046"
    underline-thickness="50"
    underline-position="-100"
    slope="-16"
    unicode-range="U+0001-206F"
  />
<missing-glyph horiz-adv-x="364" 
d="M33 0v666h265v-666h-265zM66 33h199v600h-199v-600z" />
    <glyph glyph-name=".notdef" horiz-adv-x="364" 
d="M33 0v666h265v-666h-265zM66 33h199v600h-199v-600z" />
    <glyph glyph-name="uni0000" 
 />
    <glyph glyph-name="uni0000" 
 />
    <glyph glyph-name="uni000D" unicode="&#xd;" 
 />
    <glyph glyph-name="uni0001" 
 />
    <glyph glyph-name="uni0002" 
 />
    <glyph glyph-name="uni0003" 
 />
    <glyph glyph-name="uni0004" 
 />
    <glyph glyph-name="uni0005" 
 />
    <glyph glyph-name="uni0006" 
 />
    <glyph glyph-name="uni0007" 
 />
    <glyph glyph-name="uni0008" 
 />
    <glyph glyph-name="uni0009" unicode="&#x9;" 
 />
    <glyph glyph-name="uni000A" unicode="&#xa;" 
 />
    <glyph glyph-name="uni000B" 
 />
    <glyph glyph-name="uni000C" 
 />
    <glyph glyph-name="uni000E" 
 />
    <glyph glyph-name="uni000F" 
 />
    <glyph glyph-name="uni0010" 
 />
    <glyph glyph-name="uni0011" 
 />
    <glyph glyph-name="uni0012" 
 />
    <glyph glyph-name="uni0013" 
 />
    <glyph glyph-name="uni0014" 
 />
    <glyph glyph-name="uni0015" 
 />
    <glyph glyph-name="uni0016" 
 />
    <glyph glyph-name="uni0017" 
 />
    <glyph glyph-name="uni0018" 
 />
    <glyph glyph-name="uni0019" 
 />
    <glyph glyph-name="uni001A" 
 />
    <glyph glyph-name="uni001B" 
 />
    <glyph glyph-name="uni001C" 
 />
    <glyph glyph-name="uni001D" 
 />
    <glyph glyph-name="uni001E" 
 />
    <glyph glyph-name="uni001F" 
 />
    <glyph glyph-name="space" unicode=" " 
 />
    <glyph glyph-name="exclam" unicode="!" horiz-adv-x="232" 
d="M95 86q-11 -4 -25 -4q-16 0 -25.5 5t-6.5 15l172 600q2 8 13 12t25 4q16 0 25.5 -5t6.5 -15l-172 -600q-2 -8 -13 -12zM66 -14q-11 -4 -25 -4q-16 0 -25.5 5t-6.5 15l12 40q2 8 13 12t25 4q16 0 25.5 -5t6.5 -15l-12 -40q-2 -8 -13 -12z" />
    <glyph glyph-name="quotedbl" unicode="&#x22;" horiz-adv-x="310" 
d="M209 700q3 9 14.5 13.5t25.5 4.5q15 0 24 -4.5t6 -13.5l-23 -80q-3 -9 -14 -14t-26 -5q-14 0 -23.5 5.5t-6.5 13.5zM289 700q3 8 14.5 13t25.5 5q15 0 24 -4.5t6 -13.5l-23 -80q-3 -9 -14 -14t-26 -5q-14 0 -23.5 5.5t-6.5 13.5z" />
    <glyph glyph-name="numbersign" unicode="#" horiz-adv-x="718" 
d="M73 -27q-18 0 -35 11t-10 22l104 173q7 11 7 22q0 14 -16 14h-32q-14 0 -14 18q0 17 9.5 34.5t20.5 17.5h67q25 0 36 20l62 104q8 14 8 23q0 13 -14 13h-29q-14 0 -14 19q0 17 9.5 34t20.5 17h60q25 0 36 20l102 171q5 8 19 8q18 0 34 -10.5t10 -21.5l-79 -131
q-6 -10 -6 -18t6.5 -13t19.5 -5h78q25 0 36 20l102 171q5 8 19 8q18 0 34 -10.5t10 -21.5l-79 -131q-7 -13 -7 -22q0 -14 15 -14h30q14 0 14 -18q0 -17 -9.5 -34.5t-20.5 -17.5h-63q-25 0 -36 -20l-62 -104q-8 -14 -8 -23q0 -13 13 -13h26q13 0 13 -19q0 -17 -9 -34t-20 -17
h-56q-25 0 -36 -20l-128 -214q-5 -8 -18 -8q-18 0 -35 11t-10 22l104 173q6 11 6 18q0 8 -6.5 13t-19.5 5h-77q-25 0 -36 -20l-128 -214q-5 -8 -18 -8zM394 285q25 0 36 20l62 104q6 11 6 18q0 8 -6.5 13t-19.5 5h-78q-25 0 -36 -20l-62 -104q-6 -10 -6 -18t6.5 -13t19.5 -5
h78z" />
    <glyph glyph-name="dollar" unicode="$" horiz-adv-x="636" 
d="M251.5 -64q-9.5 -4 -22.5 -4q-14 0 -24 5.5t-7 14.5l2 7q2 8 2 11q0 18 -23 26q-53 19 -84 63.5t-31 103.5q0 31 9 62q2 8 12.5 12t23.5 4q16 0 26.5 -5.5t7.5 -15.5q-8 -29 -8 -51q0 -36 17 -62.5t47 -40.5q6 -3 12 -3q18 0 25 23l81 282q2 8 2 11q0 15 -20 27
q-29 16 -45.5 44.5t-16.5 64.5q0 22 6 41q14 49 56 91t93 59q24 7 29 26l6 20q3 8 12.5 12t22.5 4q14 0 24 -5.5t7 -14.5l-3 -10q-2 -8 -2 -11q0 -16 21 -27q30 -15 47 -44.5t17 -65.5q0 -20 -6 -41q-2 -7 -13.5 -11.5t-25.5 -4.5q-15 0 -24.5 5.5t-6.5 15.5q5 18 5 29
q0 21 -11 37q-8 9 -16 9q-7 0 -13 -6t-9 -16l-35 -121q-2 -8 -2 -11q0 -17 23 -26q54 -18 85.5 -64t31.5 -106q0 -31 -9 -61q-23 -80 -93.5 -144.5t-153.5 -82.5q-24 -4 -30 -24l-6 -19q-3 -8 -12.5 -12zM332 477q7 0 13.5 6.5t9.5 16.5l23 82q2 8 2 12q0 9 -4.5 14.5
t-11.5 5.5q-9 0 -17 -8q-25 -24 -36 -58q-3 -13 -3 -26q0 -21 9 -35q6 -10 15 -10zM425.5 133.5q38.5 41.5 53.5 92.5q6 24 6 47q0 37 -17.5 64.5t-48.5 41.5q-6 3 -12 3q-18 0 -25 -23l-74 -258q-2 -8 -2 -11q0 -10 5 -15.5t13 -5.5q6 0 13 3q50 20 88.5 61.5z" />
    <glyph glyph-name="percent" unicode="%" horiz-adv-x="639" 
d="M89 -31q-18 0 -35 14t-8 25l535 700q5 6 15 6q17 0 33.5 -14t8.5 -25l-535 -700q-5 -6 -14 -6zM201.5 481.5q-29.5 29.5 -29.5 72.5q0 38 25.5 75.5t64.5 61.5t79 24q43 0 72 -29t29 -73q0 -20 -5 -34q-9 -33 -35 -62.5t-60.5 -47t-67.5 -17.5q-43 0 -72.5 29.5z
M344.5 547.5q26.5 25.5 26.5 57.5q0 18 -11.5 29t-30.5 11q-33 0 -59.5 -26t-26.5 -58q0 -18 11.5 -28.5t30.5 -10.5q33 0 59.5 25.5zM283.5 14.5q-29.5 29.5 -29.5 72.5q0 38 25.5 75.5t64.5 61.5t79 24q43 0 72 -29t29 -73q0 -20 -5 -34q-9 -33 -35 -62.5t-60.5 -47
t-67.5 -17.5q-43 0 -72.5 29.5zM426.5 80.5q26.5 25.5 26.5 57.5q0 18 -11.5 29t-30.5 11q-33 0 -59.5 -26t-26.5 -58q0 -18 11.5 -28.5t30.5 -10.5q33 0 59.5 25.5z" />
    <glyph glyph-name="ampersand" unicode="&#x26;" horiz-adv-x="848" 
d="M158.5 -111.5q-53.5 29.5 -83.5 82t-30 118.5q0 41 12 81q24 82 87.5 153t146.5 111q17 8 17 20q0 7 -7 19q-24 38 -24 86q0 25 8 54q16 54 57 100.5t95.5 74t107.5 27.5q69 0 114 -44t45 -111q0 -28 -9 -55q-13 -47 -57.5 -82t-91.5 -35q-40 0 -67.5 27t-27.5 67
q0 10 4 30q4 14 28 14q10 0 20 -3t14 -8l1 -1q7 -8 5 -16v-7q0 -16 9 -24.5t26 -8.5q23 0 42.5 16t26.5 39q6 21 6 40q0 41 -27 66.5t-72 25.5q-58 0 -110.5 -40.5t-70.5 -99.5q-5 -23 -5 -39q0 -43 27.5 -69t73.5 -25q14 0 14 -18q0 -17 -9.5 -34.5t-20.5 -17.5
q-65 0 -129 -32.5t-112 -87.5t-67 -120q-9 -34 -9 -66q0 -75 48 -121t127 -46q66 0 130.5 32t112.5 87.5t67 121.5q6 23 6 42q0 45 -29 72.5t-77 27.5q-41 0 -81 -20t-70.5 -54t-42.5 -74q-2 -8 -12.5 -12t-23.5 -4q-16 0 -26.5 5.5t-7.5 14.5q15 56 58 105.5t100.5 79
t115.5 29.5h1q14 0 26 -1t20 -2q36 -4 55 -4q60 0 98 32t60 103q2 8 13 12t25 4q16 0 25.5 -5t6.5 -15q-45 -153 -158 -189q-19 -6 -19 -21q0 -6 3 -15q11 -30 11 -62q0 -28 -9 -57q-23 -81 -83.5 -151t-142 -111t-163.5 -41q-68 0 -121.5 29.5z" />
    <glyph glyph-name="quotesingle" unicode="'" horiz-adv-x="232" 
d="M244 606q-11 -4 -25 -4q-16 0 -25.5 5t-6.5 15l23 80q2 8 13 12t25 4q16 0 25.5 -5t6.5 -15l-23 -80q-2 -8 -13 -12z" />
    <glyph glyph-name="parenleft" unicode="(" 
d="M79 8q-8 43 -8 97q0 120 46 274.5t166 327.5q4 7 16 7q18 0 34.5 -13.5t8.5 -24.5q-113 -163 -156 -305.5t-43 -253.5q0 -52 7 -85v-5q0 -6 -3 -14q-4 -9 -18 -16.5t-27 -7.5q-4 0 -10 2q-10 5 -13 17z" />
    <glyph glyph-name="parenright" unicode=")" 
d="M58 -14q-18 0 -34 13t-8 24q113 163 156 305.5t43 254.5q0 51 -7 84v1q-1 4 3.5 15t11.5 16q13 8 23 10l10 2q4 0 6.5 -1t2.5 -2q10 -4 13 -16q8 -43 8 -99q0 -119 -46 -273.5t-166 -326.5q-4 -7 -16 -7z" />
    <glyph glyph-name="asterisk" unicode="*" horiz-adv-x="328" 
d="M214 536q-12 0 -23.5 15t-11.5 28q0 8 5 12l28 22l-13 4q-8 3 -8 13q0 16 16 36.5t28 16.5l17 -6l7 25q2 8 12.5 12.5t23.5 4.5q15 0 26 -6t8 -15l-5 -19l15 5q10 3 15.5 -7.5t5.5 -26.5q0 -12 -4 -22t-10 -12l-23 -7l15 -21q6 -8 -2.5 -20t-23 -21.5t-25.5 -9.5
q-7 0 -10 5l-17 26l-38 -29q-4 -3 -8 -3z" />
    <glyph glyph-name="plus" unicode="+" horiz-adv-x="539" 
d="M265 166q-11 -4 -25 -4q-16 0 -25.5 5t-6.5 15l28 98q2 8 2 11q0 11 -7 17t-20 6h-91q-14 0 -14 19q0 17 9.5 34t20.5 17h103q27 0 34 25l32 113q2 8 13 12t25 4q16 0 25.5 -5t6.5 -15l-29 -100q-2 -8 -2 -10q0 -11 7.5 -17.5t20.5 -6.5h104q14 0 14 -18
q0 -17 -9.5 -34.5t-20.5 -17.5h-116q-27 0 -34 -25l-32 -111q-2 -8 -13 -12z" />
    <glyph glyph-name="comma" unicode="," horiz-adv-x="231" 
d="M54 -54q-11 -4 -25 -4q-16 0 -25.5 5t-6.5 15l23 80q2 8 13 12t25 4q16 0 25.5 -5t6.5 -15l-23 -80q-2 -8 -13 -12z" />
    <glyph glyph-name="hyphen" unicode="-" horiz-adv-x="478" 
d="M106 335q0 16 9 33t20 17h280q14 0 14 -20q0 -16 -9 -33t-20 -17h-280q-14 0 -14 20z" />
    <glyph glyph-name="period" unicode="." horiz-adv-x="232" 
d="M66.5 -15q-10.5 -4 -24.5 -4q-15 0 -25.5 5.5t-7.5 14.5l11 40q2 8 12.5 12t24.5 4q15 0 25.5 -5.5t7.5 -14.5l-11 -40q-2 -8 -12.5 -12z" />
    <glyph glyph-name="slash" unicode="/" horiz-adv-x="454" 
d="M56 -27q-18 0 -35 11t-10 22l423 701q5 8 18 8q18 0 35 -11t10 -22l-423 -701q-5 -8 -18 -8z" />
    <glyph glyph-name="zero" unicode="0" horiz-adv-x="373" 
d="M34 17q-32 32 -32 80q0 20 6 38l125 438q11 37 40 70t67.5 52.5t75.5 19.5q49 0 81 -32t32 -80q0 -20 -6 -38l-125 -438q-10 -37 -39 -70t-68 -52.5t-76 -19.5q-49 0 -81 32zM190.5 78q29.5 23 39.5 57l125 438q3 12 3 23q0 23 -14 36t-39 13q-34 0 -64 -23t-40 -57
l-125 -438q-3 -12 -3 -22q0 -23 14.5 -36.5t39.5 -13.5q34 0 63.5 23z" />
    <glyph glyph-name="one" unicode="1" horiz-adv-x="244" 
d="M118 -14q-11 -4 -25 -4q-16 0 -25.5 5t-6.5 15l153 533q2 10 2 13q0 15 -16 15q-8 0 -12 -1q-22 -6 -40 -5q-12 0 -12 18q0 17 9 34.5t20 17.5q31 1 59 22.5t38 52.5q2 8 12.5 12.5t23.5 4.5q15 0 26 -6t8 -15l-201 -700q-2 -8 -13 -12z" />
    <glyph glyph-name="two" unicode="2" horiz-adv-x="373" 
d="M-29.5 -10q-3.5 5 -1.5 13q33 116 74 190t79.5 113t93.5 82q38 30 61 51.5t43.5 54t34.5 80.5q3 12 3 21q0 23 -14.5 36.5t-39.5 13.5q-32 0 -61.5 -22.5t-39.5 -54.5q-2 -8 -12.5 -12.5t-24.5 -4.5q-15 0 -25.5 5.5t-7.5 14.5q10 38 39 71.5t67 53t76 19.5
q49 0 81.5 -32t32.5 -80q0 -19 -6 -37q-17 -59 -41.5 -100t-51.5 -67t-68 -58q-43 -34 -72.5 -62t-60.5 -74t-58 -114q-3 -7 -3 -14q0 -10 7 -16t20 -6h144q14 0 14 -18q0 -17 -9.5 -34.5t-20.5 -17.5h-241q-8 0 -11.5 5z" />
    <glyph glyph-name="three" unicode="3" horiz-adv-x="481" 
d="M58.5 28q-43.5 43 -43.5 109q0 21 7 51q2 8 12 12t24 4q16 0 26.5 -5.5t7.5 -15.5q-6 -21 -6 -39q0 -41 26 -65t69 -24q56 0 106 39t66 95q5 16 5 38q0 41 -26.5 65t-70.5 23q-14 0 -14 20q0 17 9 33.5t20 16.5q56 1 106 40t66 94q5 22 5 37q0 40 -25.5 64.5t-68.5 24.5
q-56 0 -106 -38.5t-66 -93.5q-3 -8 -13.5 -12t-23.5 -4q-15 0 -25.5 5.5t-7.5 14.5q15 53 54.5 98.5t92.5 72.5t106 27q67 0 110.5 -43t43.5 -108q0 -26 -8 -53q-11 -42 -40 -80.5t-69 -65.5q-14 -10 -14 -21q0 -8 8 -19q28 -40 28 -91q0 -30 -8 -53q-14 -52 -53.5 -97
t-92.5 -72t-106 -27q-67 0 -110.5 43z" />
    <glyph glyph-name="four" unicode="4" horiz-adv-x="344" 
d="M218 -14q-11 -4 -25 -4q-16 0 -25.5 5t-6.5 15l75 262q2 8 2 11q0 11 -7 17t-20 6h-139q-18 0 -13 17l111 387q2 8 13 12t25 4q16 0 25.5 -5t6.5 -15l-85 -296q-2 -8 -2 -11q0 -11 7 -17t20 -6h60q26 0 33 25l89 309q2 8 13 12t25 4q16 0 25.5 -5t6.5 -15l-201 -700
q-2 -8 -13 -12z" />
    <glyph glyph-name="five" unicode="5" horiz-adv-x="484" 
d="M61 28q-41 43 -41 114q0 34 11 75q2 8 12.5 12t24.5 4q15 0 25.5 -5.5t7.5 -14.5q-10 -34 -10 -64q0 -45 23.5 -69.5t66.5 -24.5q59 0 109 45.5t72 118.5q9 35 9 62q0 45 -23.5 69.5t-67.5 24.5h-186q-18 0 -13 17l89 310q4 13 17 13h369q14 0 14 -20q0 -16 -9 -33
t-20 -17h-290q-26 0 -33 -25l-40 -141q-2 -8 -2 -11q0 -11 7 -17t20 -6h89q67 0 108.5 -43t41.5 -114q0 -38 -12 -77q-18 -64 -58 -115.5t-93.5 -81t-109.5 -29.5q-67 0 -108 43z" />
    <glyph glyph-name="six" unicode="6" horiz-adv-x="481" 
d="M60 28q-41 43 -41 114q0 37 12 77l86 300q15 53 54.5 98t92 71.5t105.5 26.5q67 0 110.5 -43t43.5 -108q0 -28 -7 -52q-2 -7 -13.5 -11t-25.5 -4q-15 0 -24.5 5t-6.5 15q6 21 6 39q0 40 -25.5 64.5t-68.5 24.5q-56 0 -106 -39t-67 -95l-19 -67q-2 -10 -2 -13
q0 -7 3.5 -11t9.5 -4q8 0 18 6q48 21 96 23h2q67 -1 107.5 -44t40.5 -114q0 -37 -12 -76q-18 -64 -58 -115.5t-93.5 -81t-109.5 -29.5q-67 0 -108 43zM289 100.5q50 45.5 72 118.5q9 35 9 62q0 44 -23.5 68.5t-66.5 25.5q-60 -1 -109.5 -46t-71.5 -118q-9 -34 -9 -62
q0 -45 23.5 -69.5t66.5 -24.5q59 0 109 45.5z" />
    <glyph glyph-name="seven" unicode="7" horiz-adv-x="345" 
d="M66.5 -14q-11.5 -4 -25.5 -4q-16 0 -25 5.5t-4 15.5l304 606q4 8 4 16q0 9 -6.5 14.5t-19.5 5.5h-119q-14 0 -14 20q0 16 9 33t20 17h232q14 0 14 -10q0 -3 -3 -8l-351 -701q-4 -6 -15.5 -10z" />
    <glyph glyph-name="eight" unicode="8" horiz-adv-x="481" 
d="M58.5 28q-43.5 43 -43.5 109q0 25 8 52q12 42 41 80.5t69 65.5q14 10 14 21q0 8 -8 19q-29 40 -29 92q0 25 8 52q15 53 54.5 98t92 71.5t105.5 26.5q67 0 110.5 -43t43.5 -108q0 -26 -8 -53q-11 -42 -40 -80.5t-69 -65.5q-14 -10 -14 -21q0 -8 8 -19q28 -40 28 -91
q0 -30 -8 -53q-14 -52 -53.5 -97t-92.5 -72t-106 -27q-67 0 -110.5 43zM381 424q50 39 67 95q5 22 5 37q0 40 -25.5 64.5t-68.5 24.5q-56 0 -106 -39t-67 -95q-5 -22 -5 -37q0 -40 25.5 -64.5t68.5 -24.5q56 0 106 39zM287 94q50 39 66 95q5 16 5 38q0 40 -25.5 64t-68.5 24
q-56 0 -106 -39t-67 -95q-5 -22 -5 -37q0 -41 26 -65t69 -24q56 0 106 39z" />
    <glyph glyph-name="nine" unicode="9" horiz-adv-x="481" 
d="M58 28q-43 43 -43 108q0 28 7 52q2 7 13.5 11.5t25.5 4.5q15 0 24.5 -5.5t6.5 -15.5q-6 -21 -6 -39q0 -41 26.5 -65t70.5 -24q54 0 103.5 39t66.5 95l19 67q2 10 2 13q0 7 -3.5 11t-9.5 4q-7 0 -18 -6q-48 -22 -95 -23h-2q-67 1 -108 44.5t-41 113.5q0 37 12 76
q19 64 59.5 115.5t93.5 81t108 29.5q67 -1 108 -44t41 -113q0 -37 -12 -78l-86 -300q-16 -53 -55.5 -97.5t-92 -71t-105.5 -26.5q-67 0 -110 43zM367.5 370.5q50.5 45.5 71.5 118.5q10 38 10 63q0 44 -23 68t-66 25q-60 0 -110.5 -45.5t-72.5 -118.5q-9 -34 -9 -62
q0 -45 23.5 -69.5t66.5 -24.5q59 0 109.5 45.5z" />
    <glyph glyph-name="colon" unicode=":" horiz-adv-x="232" 
d="M198 446q-11 -4 -25 -4q-16 0 -25.5 5t-6.5 15l12 40q2 8 13 12t25 4q16 0 25.5 -5t6.5 -15l-12 -40q-2 -8 -13 -12zM66 -14q-11 -4 -25 -4q-16 0 -25.5 5t-6.5 15l12 40q2 8 13 12t25 4q16 0 25.5 -5t6.5 -15l-12 -40q-2 -8 -13 -12z" />
    <glyph glyph-name="semicolon" unicode=";" horiz-adv-x="232" 
d="M198 446q-11 -4 -25 -4q-16 0 -25.5 5t-6.5 15l12 40q2 8 13 12t25 4q16 0 25.5 -5t6.5 -15l-12 -40q-2 -8 -13 -12zM55 -54q-11 -4 -25 -4q-16 0 -25.5 5t-6.5 15l23 80q2 8 13 12t25 4q16 0 25.5 -5t6.5 -15l-23 -80q-2 -8 -13 -12z" />
    <glyph glyph-name="less" unicode="&#x3c;" horiz-adv-x="550" 
d="M501 77l-451 207v49l451 235v-78l-359 -178l359 -157v-78zM221 622z" />
    <glyph glyph-name="equal" unicode="=" horiz-adv-x="539" 
d="M125 399q0 17 9.5 34t20.5 17h340q14 0 14 -18q0 -17 -9.5 -34.5t-20.5 -17.5h-340q-14 0 -14 19zM88 270q0 16 9 33t20 17h340q14 0 14 -20q0 -16 -9 -33t-20 -17h-340q-14 0 -14 20z" />
    <glyph glyph-name="greater" unicode="&#x3e;" horiz-adv-x="550" 
d="M50 155l359 157l-359 178v78l451 -235v-49l-451 -207v78zM221 622z" />
    <glyph glyph-name="question" unicode="?" horiz-adv-x="504" 
d="M225 86q-11 -4 -24 -4q-16 0 -26 5.5t-7 15.5q33 114 73 191.5t75 119t78 81.5q22 20 32 31t13 22q4 15 4 29q0 31 -19.5 49.5t-52.5 18.5q-44 0 -83.5 -30t-52.5 -73q-3 -8 -13.5 -12t-23.5 -4q-15 0 -25.5 5.5t-7.5 14.5q12 45 46 84t80 62t91 23q57 0 94.5 -37.5
t37.5 -93.5q0 -24 -7 -44q-6 -22 -19.5 -38t-41.5 -42q-40 -36 -72 -74t-68.5 -109t-67.5 -179q-2 -8 -13 -12zM196 -14q-11 -4 -25 -4q-16 0 -25.5 5t-6.5 15l12 40q2 8 13 12t25 4q16 0 25.5 -5t6.5 -15l-12 -40q-2 -8 -13 -12z" />
    <glyph glyph-name="at" unicode="@" horiz-adv-x="890" 
d="M200.5 -78q-62.5 35 -98 97t-35.5 140q0 49 15 97q28 97 100 180t169 132t194 49q80 0 144 -34.5t99.5 -96.5t35.5 -140q0 -48 -15 -98q-21 -75 -62.5 -135t-94 -94t-105.5 -34q-38 0 -64 20q-13 10 -23 10q-8 0 -17 -6q-42 -24 -80 -24q-43 0 -72.5 29.5t-29.5 72.5
q0 15 5 33l77 267q9 33 35 62.5t60.5 47.5t67.5 18q21 0 38 -7q9 -4 16 -4t11 6q5 5 13 5h40q18 0 13 -17l-26 -90q-1 -3 -6 -23q0 -2 -2 -6l-74 -257q-1 -4 -1.5 -5.5l-0.5 -1.5l-1 -4q-3 -12 -3 -21q0 -34 38 -34q34 0 69.5 26t65 71.5t45.5 102.5q12 44 12 82
q0 62 -27.5 109.5t-77 73.5t-114.5 26q-81 0 -161 -40t-140 -109t-83 -150q-12 -43 -12 -82q0 -62 27.5 -109.5t77.5 -73.5t115 -26q14 0 14 -19q0 -16 -9.5 -33.5t-19.5 -17.5q-80 0 -142.5 35zM426 74q25 19 32 46l73 258q6 18 6 22v5q0 18 -11.5 29t-30.5 11
q-27 0 -51.5 -19t-32.5 -47l-77 -267q-2 -14 -2 -18q0 -18 11.5 -28.5t30.5 -10.5q27 0 52 19z" />
    <glyph glyph-name="A" unicode="A" horiz-adv-x="1029" 
d="M75.5 -183q-58.5 32 -91.5 89t-33 130q0 44 14 91q26 90 93.5 167t157.5 122t180 45q14 0 14 -20q0 -16 -9 -33t-20 -17q-74 0 -146.5 -36.5t-126.5 -99t-75 -136.5q-11 -42 -11 -77q0 -84 54.5 -135.5t143.5 -51.5q74 0 147 36t127.5 98.5t76.5 137.5l113 395
q21 76 84.5 144t148 109t164.5 40q13 0 13 -18q0 -17 -9.5 -34.5t-20.5 -17.5q-1 -1 -6 -4t-10.5 -9t-7.5 -13l-208 -723q-2 -12 -2 -17q0 -19 12 -30t32 -10q13 0 13 -19q0 -17 -8.5 -34t-18.5 -17q-43 1 -72 30t-29 72q0 16 5 33l71 252q2 8 2 11q0 11 -7 17t-20 6h-96
q-26 0 -33 -25l-42 -146q-26 -90 -93 -167t-157 -122t-180 -45q-75 0 -133.5 32zM840 360q26 0 33 25l85 296q2 8 2 11q0 9 -5 14.5t-13 5.5t-15 -4q-64 -32 -111.5 -84t-63.5 -110l-34 -120q-2 -8 -2 -10q0 -11 7.5 -17.5t20.5 -6.5h96z" />
    <glyph glyph-name="B" unicode="B" horiz-adv-x="689" 
d="M78.5 -112q-53.5 29 -83.5 81t-30 118q0 41 12 81q2 8 13 12t24 4q15 0 25.5 -5.5t7.5 -14.5q-11 -38 -11 -69q0 -74 48.5 -120t127.5 -46q65 0 129.5 32t113 87.5t67.5 121.5q9 35 9 66q0 74 -48 120t-127 46h-102q-14 0 -14 20q0 17 9 33.5t20 16.5q58 1 110.5 42
t68.5 99q5 22 5 38q0 42 -27.5 68t-71.5 26q-13 0 -29.5 -10t-21.5 -28l-185 -643q-2 -8 -13 -12t-25 -4q-16 0 -25.5 5t-6.5 15l146 509q10 33 10 55q0 18 -6 18q-11 0 -24 -43q-3 -8 -13.5 -12t-23.5 -4q-15 0 -25.5 5.5t-7.5 14.5q15 54 56 101t96 75t110 28
q45 0 81 -20.5t56.5 -56t20.5 -80.5q0 -26 -8 -53q-18 -61 -68 -114q-10 -9 -10 -17q0 -9 18 -17q67 -24 106.5 -81t39.5 -133q0 -40 -12 -81q-23 -81 -84.5 -150.5t-143 -111t-162.5 -41.5q-68 0 -121.5 29z" />
    <glyph glyph-name="C" unicode="C" horiz-adv-x="688" 
d="M-23 170l125 436q15 55 57.5 103t99.5 77t112 29q71 0 117 -45.5t46 -115.5q0 -32 -8 -56q-13 -47 -57.5 -82t-91.5 -35q-40 0 -67.5 27t-27.5 67q0 10 4 30q2 6 11 10t20 4q9 0 18 -3t13 -8q1 -1 2.5 -3t2.5 -6q1 -2 1 -6l-1 -10q0 -15 9.5 -23.5t25.5 -8.5q22 0 42 16
t28 39q6 21 6 41q0 44 -29 71t-76 27q-40 0 -79.5 -20t-69 -53.5t-40.5 -73.5l-125 -436q-10 -40 -10 -67q0 -82 47 -123.5t120 -41.5q62 0 128 29.5t117.5 84t73.5 126.5q6 23 6 42q0 46 -30.5 73.5t-79.5 26.5q-14 0 -14 19q0 17 9.5 34t20.5 17q47 0 85 -21.5t59 -58.5
t21 -83q0 -28 -9 -57q-26 -92 -89.5 -160t-145 -104t-160.5 -36q-65 0 -117 25t-82.5 75.5t-30.5 125.5q0 38 13 82z" />
    <glyph glyph-name="D" unicode="D" horiz-adv-x="952" 
d="M254 -99l59 206q2 8 2 11q0 21 -26 24q-65 10 -119 44t-86 87t-32 116q0 44 14 92q31 107 105.5 183t172 114.5t198.5 38.5q103 0 190 -39.5t139.5 -118t52.5 -190.5q0 -65 -19 -126q-35 -122 -126 -226.5t-213 -167t-246 -65.5h-53q-18 0 -13 17zM573 25.5
q95 55.5 165 141t99 184.5q16 61 16 110q0 93 -44 158t-117.5 97.5t-159.5 32.5q-85 0 -166 -31.5t-143 -93.5t-89 -150q-10 -37 -10 -76q0 -50 26 -90t69.5 -65t95.5 -32q27 -3 35 24l134 467q2 8 12 12.5t23 4.5q16 0 27 -6t8 -15l-203 -708q-2 -8 -2 -11q0 -11 7.5 -17
t20.5 -5q101 13 196 68.5z" />
    <glyph glyph-name="E" unicode="E" horiz-adv-x="691" 
d="M79.5 -111.5q-53.5 29.5 -84 81.5t-30.5 118q0 73 37.5 145t100.5 128.5t138 85.5q-21 21 -32 50t-11 61q0 64 40 124t102.5 96.5t125.5 36.5q69 0 113.5 -44t44.5 -112q0 -45 -22 -84.5t-58.5 -63t-76.5 -23.5t-67.5 27t-27.5 67q0 10 4 30q2 7 11.5 11t20.5 4
q23 0 30 -12q4 -6 4.5 -10t0.5 -8v-7q0 -15 9.5 -23.5t25.5 -8.5q33 0 54 27t21 67q0 42 -27 67.5t-72 25.5t-88 -25.5t-70 -67t-27 -86.5q0 -43 27 -69t73 -25q14 0 14 -20q0 -16 -9 -33t-20 -17q-79 0 -152.5 -45t-119.5 -116.5t-46 -145.5t48.5 -120t127.5 -46
q72 0 146 42.5t122 108.5t48 132q0 45 -29.5 72.5t-77.5 27.5q-41 0 -81 -20t-70 -54t-42 -74q-2 -8 -13.5 -12t-25.5 -4q-15 0 -24.5 5t-6.5 15q16 57 58.5 106t100.5 78.5t115 29.5h1q47 0 85 -21.5t59.5 -58.5t21.5 -83q0 -85 -60.5 -169t-154 -137.5t-184.5 -53.5
q-67 0 -120.5 29.5z" />
    <glyph glyph-name="F" unicode="F" horiz-adv-x="832" 
d="M75.5 -183q-58.5 32 -91.5 89t-33 130q0 44 14 91q26 90 93.5 167t157.5 122t180 45q14 0 14 -20q0 -16 -9 -33t-20 -17q-74 0 -146.5 -36.5t-126.5 -99t-75 -136.5q-11 -42 -11 -77q0 -84 54.5 -135.5t143.5 -51.5q74 0 147 36t127.5 98.5t76.5 137.5l80 284q2 8 2 11
q0 11 -7 17t-20 6h-42q-14 0 -14 19q0 17 9.5 34t20.5 17h56q26 0 33 25l48 170q2 8 2 12q0 11 -7.5 16.5t-20.5 4.5q-119 -10 -207 -75t-118 -163q-3 -8 -13.5 -12t-23.5 -4q-15 0 -25.5 5.5t-7.5 14.5q26 89 93 158.5t157 108t183 39.5h276q26 0 50 18.5t32 44.5
q2 8 12.5 12.5t23.5 4.5q15 0 25.5 -5.5t8.5 -14.5q-8 -34 -34 -64t-61 -48t-69 -18h-169q-26 0 -33 -25l-48 -171q-2 -8 -2 -11q0 -11 7 -17t20 -6h37q14 0 14 -18q0 -17 -9.5 -34.5t-20.5 -17.5h-51q-26 0 -33 -25l-86 -301q-26 -90 -93 -167t-157 -122t-180 -45
q-75 0 -133.5 32z" />
    <glyph glyph-name="G" unicode="G" horiz-adv-x="501" 
d="M284 -214q-11 -4 -25 -4q-16 0 -25.5 5t-6.5 15l20 72l2 12q0 16 -14 16q-6 0 -18 -5q-56 -28 -109 -28q-47 0 -84.5 20.5t-58.5 57t-21 82.5q0 29 9 57l149 520q15 55 57.5 103t99.5 77t112 29q71 0 117 -45.5t46 -115.5q0 -30 -7 -55q-2 -8 -12.5 -12t-23.5 -4
q-16 0 -26.5 5.5t-7.5 15.5q7 26 7 43q0 44 -29 71t-76 27q-40 0 -79.5 -20t-69 -53.5t-40.5 -73.5l-149 -520q-6 -22 -6 -41q0 -44 28.5 -71t75.5 -27q40 0 79.5 20t69.5 53.5t41 73.5l38 136q2 8 12 12.5t23 4.5q16 0 27 -6t8 -15l-120 -420q-2 -8 -13 -12z" />
    <glyph glyph-name="H" unicode="H" horiz-adv-x="1107" 
d="M75.5 -183q-58.5 32 -91.5 89t-33 130q0 44 14 91q26 90 93.5 167t157.5 122t180 45q14 0 14 -20q0 -16 -9 -33t-20 -17q-74 0 -146.5 -36.5t-126.5 -99t-75 -136.5q-11 -42 -11 -77q0 -84 54.5 -135.5t143.5 -51.5q74 0 147 36t127.5 98.5t76.5 137.5l158 551q2 14 2 20
q0 22 -12 35t-31 12q-14 0 -14 18q0 17 9.5 34.5t20.5 17.5q42 -1 70 -32.5t28 -77.5q0 -21 -5 -35l-57 -201q-2 -8 -2 -11q0 -11 7 -17t20 -6h184q26 0 33 25l98 342q2 8 12 12.5t23 4.5q16 0 27 -6t8 -15l-231 -802q-2 -14 -2 -19q0 -22 12 -36t31 -12q13 1 13 -17
q0 -16 -9.5 -34.5t-19.5 -18.5q-42 1 -70 32.5t-28 77.5q0 21 5 35l93 327q2 8 2 11q0 11 -7 17t-20 6h-184q-26 0 -33 -25l-63 -221q-26 -90 -93 -167t-157 -122t-180 -45q-75 0 -133.5 32z" />
    <glyph glyph-name="I" unicode="I" horiz-adv-x="808" 
d="M75.5 -183q-58.5 32 -91.5 89t-33 130q0 44 14 91q26 90 93.5 167t157.5 122t180 45q14 0 14 -20q0 -16 -9 -33t-20 -17q-74 0 -146.5 -36.5t-126.5 -99t-75 -136.5q-11 -42 -11 -77q0 -84 54.5 -135.5t143.5 -51.5q74 0 147 36t127.5 98.5t76.5 137.5l161 563q5 15 7 19
q4 9 4 18q0 17 -25 16q-123 -11 -211.5 -78t-120.5 -170q-3 -8 -13.5 -12t-23.5 -4q-15 0 -25.5 5.5t-7.5 14.5q26 89 93.5 161t157.5 113.5t182 41.5h146q14 0 14 -18q0 -16 -10 -33.5t-21 -18.5q-25 -1 -48 -19.5t-30 -43.5l-161 -563q-26 -90 -93 -167t-157 -122
t-180 -45q-75 0 -133.5 32z" />
    <glyph glyph-name="J" unicode="J" horiz-adv-x="791" 
d="M75.5 -183q-58.5 32 -91.5 89t-33 130q0 44 14 91q26 90 93.5 167t157.5 122t180 45q14 0 14 -20q0 -16 -9 -33t-20 -17q-74 0 -146.5 -36.5t-126.5 -99t-75 -136.5q-11 -42 -11 -77q0 -84 54.5 -135.5t143.5 -51.5q74 0 147 36t127.5 98.5t76.5 137.5l156 546l7 24v8
q0 26 -31.5 39.5t-78.5 13.5q-61 0 -114.5 -20.5t-64.5 -54.5q-2 -8 -12.5 -12.5t-23.5 -4.5q-15 0 -25.5 5.5t-8.5 14.5q11 44 50 76t93 48.5t110 16.5q76 0 127 -29.5t51 -85.5q0 -12 -5 -30l-162 -563q-26 -90 -93 -167t-157 -122t-180 -45q-75 0 -133.5 32z" />
    <glyph glyph-name="K" unicode="K" horiz-adv-x="1070" 
d="M857 -108.5q-28 31.5 -28 77.5q0 21 5 35q36 128 36 207q0 74 -30 109.5t-102 42.5q-28 3 -35 -24l-98 -341q-2 -8 -12 -12.5t-23 -4.5q-16 0 -27 6t-8 15l195 677q11 42 11 77q0 85 -53.5 136.5t-142.5 52.5q-75 0 -148 -36.5t-127.5 -98.5t-76.5 -136q-11 -42 -11 -77
q0 -85 55 -137t144 -51q14 0 14 -20q0 -17 -8.5 -33.5t-19.5 -16.5q-74 0 -132.5 32t-91.5 89t-33 130q0 44 14 91q26 89 94 166t158 122.5t180 45.5q74 0 132.5 -32.5t91 -90t32.5 -130.5q0 -44 -14 -92l-51 -179q-2 -8 -2 -11q0 -9 5 -15t14 -6q4 0 14 4q48 23 83 58.5
t57.5 72t49.5 90.5q24 46 40.5 72t39.5 43t53 16q6 0 9 -5.5t3 -14.5q0 -16 -8 -32t-21 -18q-6 -2 -17 -18.5t-32 -57.5q-37 -73 -76.5 -130.5t-101.5 -102.5q-13 -9 -13 -18t15 -18q82 -51 82 -181q0 -91 -39 -223q-2 -14 -2 -19q0 -22 12 -36t31 -12q13 1 13 -17
q0 -16 -9.5 -34.5t-19.5 -18.5q-42 1 -70 32.5z" />
    <glyph glyph-name="L" unicode="L" horiz-adv-x="451" 
d="M195 -19q0 1 -9 -5t-17 -17q-24 -35 -63.5 -58t-77.5 -23q-43 0 -72 28.5t-29 71.5q0 39 25 77t64.5 62t79.5 24q10 0 30 -4q8 -3 15 -3q17 0 23 20l135 472q16 55 58.5 103t99.5 77t112 29q47 0 84.5 -20.5t58.5 -57.5t21 -83q-2 -33 -8 -55q-2 -8 -12.5 -12t-24.5 -4
q-16 0 -27 5.5t-7 15.5q8 20 8 43q0 44 -29 71t-76 27q-40 0 -79 -20t-68.5 -53.5t-41.5 -73.5l-149 -519q-2 -10 -2 -13q0 -16 11 -27l33 -39q51 -63 90 -95t87 -32q66 0 149 74q4 4 10 4q12 0 24.5 -14.5t12.5 -26.5q0 -7 -4 -11q-107 -93 -199 -93q-125 0 -236 155z
M91 -33q24 19 32 46l3 10q2 10 2 14q0 17 -15 25q-14 9 -28 9h-1q-27 0 -52 -19t-32 -47q-2 -6 -2 -17q-1 -19 10.5 -29.5t31.5 -10.5q27 0 51 19z" />
    <glyph glyph-name="M" unicode="M" horiz-adv-x="1412" 
d="M75.5 -183q-58.5 32 -91.5 89t-33 130q0 44 14 91q26 90 93.5 167t157.5 122t180 45q14 0 14 -20q0 -16 -9 -33t-20 -17q-74 0 -146.5 -36.5t-126.5 -99t-75 -136.5q-11 -42 -11 -77q0 -84 54.5 -135.5t143.5 -51.5q74 0 147 36t127.5 98.5t76.5 137.5l193 675
q2 8 12.5 12t24.5 4q15 0 25.5 -5.5t7.5 -14.5t6 -9q8 0 29 8q44 18 88 18q38 0 70 -15t52 -43q1 -1 6.5 -5t11.5 -6.5t10 1.5q1 1 16 13q33 26 72 40.5t77 14.5t70 -15t53 -43q26 -37 26 -85q0 -25 -8 -54l-179 -622q-2 -14 -2 -19q0 -22 12 -36t31 -12q13 1 13 -17
q0 -16 -9.5 -34.5t-19.5 -18.5q-42 1 -70 32.5t-28 77.5q0 21 5 35l179 622q4 16 4 35q0 28 -14 50q-25 34 -75 34q-51 0 -99 -37q-47 -37 -63 -90l-178 -620q-2 -8 -13 -12t-25 -4q-16 0 -25.5 5t-6.5 15l180 624q4 15 4 32q0 30 -16 52q-24 35 -73 35q-52 0 -101 -38
q-48 -37 -62 -89l-143 -499q-26 -90 -93 -167t-157 -122t-180 -45q-75 0 -133.5 32z" />
    <glyph glyph-name="N" unicode="N" horiz-adv-x="1098" 
d="M875 -108.5q-28 31.5 -28 77.5q0 21 5 35l179 622q4 15 4 32q0 30 -16 52q-24 35 -73 35q-52 0 -101 -38q-48 -37 -62 -89l-178 -620q-2 -8 -13 -12t-25 -4q-16 0 -25.5 5t-6.5 15l174 605l5 18l16 54q11 42 11 77q0 85 -53.5 136.5t-142.5 52.5q-75 0 -148 -36.5
t-127.5 -98.5t-76.5 -136q-11 -42 -11 -77q0 -85 55 -137t144 -51q14 0 14 -20q0 -17 -8.5 -33.5t-19.5 -16.5q-74 0 -132.5 32t-91.5 89t-33 130q0 44 14 91q26 89 94 166t158 122.5t180 45.5q68 0 122.5 -27.5t88.5 -76.5t42 -113q3 -22 16 -22q7 0 16 6q60 33 117 33
q38 0 70 -15t52 -43q27 -37 27 -87q0 -25 -8 -52l-179 -622q-2 -14 -2 -19q0 -22 12 -36t31 -12q13 1 13 -17q0 -16 -9.5 -34.5t-19.5 -18.5q-42 1 -70 32.5z" />
    <glyph glyph-name="O" unicode="O" horiz-adv-x="530" 
d="M23.5 -110.5q-37.5 20.5 -58.5 57t-21 82.5q0 29 9 57l149 520q15 55 57.5 103t99.5 77t112 29q71 0 117 -45.5t46 -115.5q0 -32 -8 -56l-149 -520q-16 -55 -58.5 -103.5t-99 -77t-111.5 -28.5q-47 0 -84.5 20.5zM198.5 -41q39.5 20 69.5 53.5t41 73.5l149 520q6 21 6 41
q0 44 -29 71t-76 27q-40 0 -79.5 -20t-69 -53.5t-40.5 -73.5l-149 -520q-6 -22 -6 -41q0 -44 28.5 -71t75.5 -27q40 0 79.5 20z" />
    <glyph glyph-name="P" unicode="P" horiz-adv-x="1119" 
d="M75.5 -183q-58.5 32 -91.5 89t-33 130q0 44 14 91q26 90 93.5 167t157.5 122t180 45q14 0 14 -20q0 -16 -9 -33t-20 -17q-74 0 -146.5 -36.5t-126.5 -99t-75 -136.5q-11 -42 -11 -77q0 -84 54.5 -135.5t143.5 -51.5q74 0 147 36t127.5 98.5t76.5 137.5l167 584q4 12 4 22
q0 12 -7 12h-13q-14 0 -14 19q0 17 9.5 34t20.5 17h192q59 0 106.5 -26.5t74.5 -73t27 -104.5q0 -14 -4 -46q-4 -19 -5 -20q-4 -11 -9 -25t-7 -18q-29 -62 -82 -113t-118 -80.5t-128 -29.5h-74q-26 0 -33 -25l-39 -135q-26 -90 -93 -167t-157 -122t-180 -45q-75 0 -133.5 32
zM796 349q56 0 110.5 27t95.5 73.5t58 101.5q7 32 7 53q0 63 -41 102t-108 39h-73q-26 0 -33 -25l-97 -337q-2 -8 -2 -11q0 -11 7 -17t20 -6h56z" />
    <glyph glyph-name="Q" unicode="Q" horiz-adv-x="542" 
d="M23.5 -110.5q-37.5 20.5 -58.5 57t-21 82.5q0 29 9 57l149 520q15 55 57.5 103t99.5 77t112 29q71 0 117 -45.5t46 -115.5q0 -32 -8 -56l-149 -520q-7 -29 -26 -60q-7 -14 -7 -23t6 -18q13 -18 35.5 -28.5t51.5 -9.5q14 0 14 -20q0 -16 -9 -33t-20 -17q-36 0 -66.5 13
t-52.5 36q-10 11 -22 11t-23 -8q-35 -25 -74 -38.5t-76 -13.5q-47 0 -84.5 20.5zM184.5 -47.5q32.5 13.5 61.5 38.5q8 7 11 15.5t3 21.5q0 30 9 58q8 32 32 44q12 7 18.5 13.5t9.5 16.5l129 446q6 21 6 41q0 44 -29 71t-76 27q-40 0 -79.5 -20t-69 -53.5t-40.5 -73.5
l-149 -520q-6 -22 -6 -41q0 -44 28.5 -71t75.5 -27q33 0 65.5 13.5z" />
    <glyph glyph-name="R" unicode="R" horiz-adv-x="1121" 
d="M75.5 -183q-58.5 32 -91.5 89t-33 130q0 44 14 91q26 90 93.5 167t157.5 122t180 45q14 0 14 -20q0 -16 -9 -33t-20 -17q-74 0 -146.5 -36.5t-126.5 -99t-75 -136.5q-11 -42 -11 -77q0 -84 54.5 -135.5t143.5 -51.5q74 0 147 36t127.5 98.5t76.5 137.5l167 584q4 12 4 22
q0 12 -7 12h-13q-14 0 -14 19q0 17 9.5 34t20.5 17h192q59 0 106.5 -26.5t74.5 -73t27 -104.5q0 -84 -53 -161t-135 -124t-165 -47q-12 0 -12 -14q0 -6 5 -21q9 -24 23 -80l6 -23q16 -69 30 -109.5t38 -67t62 -25.5q13 0 13 -19q0 -17 -9 -34t-19 -17q-59 0 -96.5 37.5
t-56 89t-37.5 129.5q-18 71 -26 94q-3 9 -8 13.5t-11 4.5q-15 0 -21 -22l-27 -96q-26 -90 -93 -167t-157 -122t-180 -45q-75 0 -133.5 32zM796 349q56 0 110.5 27t95.5 73.5t58 101.5q7 32 7 53q0 63 -41 102t-108 39h-73q-26 0 -33 -25l-97 -337q-2 -8 -2 -11q0 -11 7 -17
t20 -6h56z" />
    <glyph glyph-name="S" unicode="S" horiz-adv-x="687" 
d="M77.5 -112q-53.5 29 -83.5 81t-30 118q0 38 13 83q16 56 58.5 105t99.5 78t115 29h1q47 0 85 -21.5t59.5 -58.5t21.5 -83q0 -26 -8 -56q-2 -8 -12.5 -12t-23.5 -4q-16 0 -26.5 5.5t-7.5 15.5q7 21 7 44q0 45 -29.5 72.5t-77.5 27.5q-41 0 -81 -20t-70.5 -54.5
t-42.5 -75.5q-10 -40 -10 -67q0 -74 48.5 -120t126.5 -46q65 0 129.5 32t112.5 87.5t68 121.5q9 35 9 66q0 74 -48 120t-127 46q-45 0 -81 20.5t-56.5 56t-20.5 80.5q0 30 8 54q15 53 56 99.5t96 74.5t108 28q45 0 81.5 -20t57 -56t20.5 -80q0 -25 -8 -54q-13 -46 -58.5 -81
t-91.5 -35q-40 0 -67.5 27t-27.5 67q0 11 4 29q2 6 11 10t20 4q9 0 18 -3t13 -8l1 -1q6 -9 5 -16v-7q0 -14 9 -23t25 -9q22 0 43 16t28 38q5 22 5 38q0 43 -27.5 68.5t-72.5 25.5q-38 0 -75.5 -19t-65.5 -51t-39 -70q-5 -23 -5 -39q0 -42 27 -68t71 -26q68 0 121.5 -29.5
t83.5 -81.5t30 -118q0 -40 -12 -81q-23 -82 -84 -151.5t-142.5 -110.5t-163.5 -41q-67 0 -120.5 29z" />
    <glyph glyph-name="T" unicode="T" horiz-adv-x="808" 
d="M75.5 -183q-58.5 32 -91.5 89t-33 130q0 44 14 91q26 90 93.5 167t157.5 122t180 45q14 0 14 -20q0 -16 -9 -33t-20 -17q-74 0 -146.5 -36.5t-126.5 -99t-75 -136.5q-11 -42 -11 -77q0 -84 54.5 -135.5t143.5 -51.5q74 0 147 36t127.5 98.5t76.5 137.5l166 583q2 8 2 12
q0 11 -7.5 16.5t-20.5 4.5q-77 -7 -143.5 -40.5t-114 -87t-67.5 -120.5q-3 -8 -13.5 -12t-23.5 -4q-15 0 -25.5 5.5t-7.5 14.5q26 89 93 161t157.5 113.5t182.5 41.5h276q26 0 50 18.5t32 44.5q2 8 12.5 12.5t23.5 4.5q15 0 25.5 -5.5t8.5 -14.5q-8 -34 -34 -64t-61 -48
t-69 -18h-169q-26 0 -33 -25l-172 -601q-26 -90 -93 -167t-157 -122t-180 -45q-75 0 -133.5 32z" />
    <glyph glyph-name="U" unicode="U" horiz-adv-x="1166" 
d="M630.5 -110.5q-37.5 20.5 -58.5 57t-21 82.5q0 29 9 57l170 593q11 42 11 77q0 85 -53.5 136.5t-142.5 52.5q-75 0 -148 -36.5t-127.5 -98.5t-76.5 -136q-11 -42 -11 -77q0 -85 55 -137t144 -51q14 0 14 -20q0 -17 -8.5 -33.5t-19.5 -16.5q-74 0 -132.5 32t-91.5 89
t-33 130q0 44 14 91q26 89 94 166t158 122.5t180 45.5q74 0 132.5 -32.5t91 -90t32.5 -130.5q0 -44 -14 -92l-170 -592q-6 -22 -6 -41q0 -44 28.5 -71t75.5 -27q40 0 79.5 20t69.5 53.5t41 73.5l172 601q9 32 37.5 62.5t66 48.5t72.5 17q6 0 9 -5.5t3 -14.5q0 -17 -8.5 -33
t-21.5 -17q-28 -1 -55 -21t-35 -45l-172 -601q-16 -55 -58.5 -103.5t-99 -77t-111.5 -28.5q-47 0 -84.5 20.5z" />
    <glyph glyph-name="V" unicode="V" horiz-adv-x="1180" 
d="M629.5 -110q-37.5 21 -58 58t-20.5 82q0 28 9 58l168 587q11 37 11 77q0 56 -24.5 99.5t-70 68.5t-105.5 25q-74 0 -145.5 -36t-125 -97t-75.5 -134q-11 -37 -11 -77q0 -56 24.5 -99.5t70 -68t105.5 -24.5q12 0 12 -18q0 -16 -9.5 -34t-20.5 -18q-75 0 -133 31.5t-90 88
t-32 126.5q0 45 13 90q26 90 94.5 168.5t160 125t182.5 46.5q75 0 132 -32.5t88.5 -89t31.5 -127.5q0 -46 -13 -92l-168 -586q-6 -22 -6 -43q0 -47 30 -76.5t80 -29.5q112 3 193 111t129 276q22 77 33.5 157t11.5 146q0 51 -7 84.5t-20 38.5q-5 2 -5 9q0 15 17 35.5t34 20.5
q5 0 11 -3q23 -11 34 -54.5t11 -111.5q0 -70 -12.5 -155.5t-36.5 -168.5q-61 -213 -169 -332.5t-243 -122.5q-48 0 -85.5 21z" />
    <glyph glyph-name="W" unicode="W" horiz-adv-x="1502" 
d="M630.5 -110.5q-37.5 20.5 -58.5 57t-21 82.5q0 29 9 57l170 593q11 42 11 77q0 85 -53.5 136.5t-142.5 52.5q-75 0 -148 -36.5t-127.5 -98.5t-76.5 -136q-11 -42 -11 -77q0 -85 55 -137t144 -51q14 0 14 -20q0 -17 -8.5 -33.5t-19.5 -16.5q-74 0 -132.5 32t-91.5 89
t-33 130q0 44 14 91q26 89 94 166t158 122.5t180 45.5q74 0 132.5 -32.5t91 -90t32.5 -130.5q0 -44 -14 -92l-170 -592q-6 -22 -6 -41q0 -44 28.5 -71t75.5 -27q40 0 79.5 20t69.5 53.5t41 73.5l205 716q2 8 12 12.5t23 4.5q16 0 27 -6t8 -15l-207 -720q-6 -22 -6 -41
q0 -44 28.5 -71t75.5 -27q40 0 79.5 20t69.5 53.5t41 73.5l172 601q9 32 37.5 62.5t66 48.5t72.5 17q6 0 9 -5.5t3 -14.5q0 -17 -8.5 -33t-21.5 -17q-28 -1 -55 -21t-35 -45l-172 -601q-16 -55 -58.5 -103.5t-99 -77t-111.5 -28.5q-44 0 -80 18t-58 51q-9 14 -20 14
q-8 0 -21 -11q-41 -34 -87 -53t-90 -19q-47 0 -84.5 20.5z" />
    <glyph glyph-name="X" unicode="X" horiz-adv-x="1009" 
d="M75.5 -183q-58.5 32 -91.5 89t-33 130q0 44 14 91q26 90 93.5 167t157.5 122t180 45q14 0 14 -20q0 -16 -9 -33t-20 -17q-74 0 -146.5 -36.5t-126.5 -99t-75 -136.5q-11 -42 -11 -77q0 -84 54.5 -135.5t143.5 -51.5q74 0 147 36t127.5 98.5t76.5 137.5l151 528q3 15 3 27
q0 29 -18 46t-49 17q-40 0 -76 -28t-48 -68q-2 -8 -12.5 -12.5t-23.5 -4.5q-15 0 -26 5.5t-8 14.5q12 43 44.5 80.5t76 60t85.5 22.5q28 0 53 -10.5t42 -30.5q11 -12 22 -12q8 0 18 7q28 22 60.5 34t62.5 12q54 0 90.5 -36t36.5 -90q0 -20 -6 -41q-2 -7 -13.5 -11.5
t-25.5 -4.5q-15 0 -24.5 5.5t-6.5 15.5q4 13 4 28q0 29 -18 46.5t-49 17.5q-40 0 -77 -28.5t-49 -69.5l-178 -619q-3 -13 -3 -26q0 -29 18 -46t49 -17q40 0 76.5 27.5t48.5 67.5q2 8 13.5 12.5t25.5 4.5q15 0 24.5 -5.5t6.5 -14.5q-11 -42 -43.5 -79.5t-76 -60t-86.5 -22.5
q-33 0 -61 14.5t-45 39.5q-9 13 -18 13t-20 -11q-66 -65 -149 -102.5t-163 -37.5q-75 0 -133.5 32z" />
    <glyph glyph-name="Y" unicode="Y" horiz-adv-x="1156" 
d="M606.5 -194.5q-37.5 20.5 -58.5 57t-21 82.5q0 26 8 56q2 7 13.5 11t25.5 4q15 0 24.5 -5t6.5 -15q-7 -22 -7 -44q0 -44 28.5 -70.5t75.5 -26.5q40 0 79.5 20t69 53.5t41.5 73.5l25 88l2 12q0 16 -14 16q-6 0 -18 -5q-58 -28 -110 -28q-47 0 -84.5 20.5t-58.5 57
t-21 82.5q0 29 9 57l108 377q11 42 11 77q0 85 -53.5 136.5t-142.5 52.5q-75 0 -148 -36.5t-127.5 -98.5t-76.5 -136q-11 -42 -11 -77q0 -85 55 -137t144 -51q14 0 14 -20q0 -17 -8.5 -33.5t-19.5 -16.5q-74 0 -132.5 32t-91.5 89t-33 130q0 44 14 91q26 89 94 166
t158 122.5t180 45.5q74 0 132.5 -32.5t91 -90t32.5 -130.5q0 -44 -14 -92l-108 -376q-6 -22 -6 -42q0 -44 28.5 -70.5t75.5 -26.5q40 0 79.5 20t69 53.5t41.5 73.5l110 385q9 32 37.5 62.5t66 48.5t72.5 17q6 0 9 -5.5t3 -14.5q0 -17 -8.5 -33t-21.5 -17q-28 -1 -55 -21
t-35 -45l-196 -685q-16 -55 -58.5 -103.5t-99 -77t-111.5 -28.5q-47 0 -84.5 20.5z" />
    <glyph glyph-name="Z" unicode="Z" horiz-adv-x="521" 
d="M347 -132.5q-42 22.5 -74 53t-73 78.5q-1 0 -5.5 -1.5t-10.5 -6t-11 -12.5q-27 -38 -64.5 -60.5t-74.5 -22.5q-44 0 -73 29t-29 73q0 38 25.5 75.5t64.5 61.5t79 24q26 0 54 -14q10 -5 17 -5q15 0 25 19q141 262 229 424q26 47 40 74t16 32.5t2 15.5q0 26 -31 39t-78 13
q-61 0 -115 -20.5t-65 -53.5q-2 -8 -12.5 -12.5t-23.5 -4.5q-15 0 -25.5 5.5t-8.5 14.5q11 44 50 76t92.5 48.5t109.5 16.5q76 0 127.5 -29.5t51.5 -85.5q0 -11 -3 -23q-1 -7 -6 -17l-306 -568q-5 -12 -5 -18q0 -13 10 -24l20 -24q35 -43 59 -68t54 -42t64 -17q67 0 150 74
q4 4 9 4q12 0 24.5 -14.5t12.5 -26.5q0 -7 -4 -11q-106 -92 -198 -92q-48 0 -90 22.5zM91 -16.5q22 17.5 39 50.5l1 2q5 10 5 19q0 13 -13 23q-19 12 -33 11h-1q-33 0 -59.5 -26t-26.5 -58q0 -18 11.5 -28.5t30.5 -10.5q24 0 46 17.5z" />
    <glyph glyph-name="bracketleft" unicode="[" horiz-adv-x="292" 
d="M9 2l201 700q4 13 17 13h97q14 0 14 -20q0 -16 -9 -33t-20 -17h-18q-26 0 -33 -25l-152 -531q-3 -9 -3 -17t3.5 -12.5t9.5 -4.5h19q14 0 14 -18q0 -17 -9.5 -34.5t-20.5 -17.5h-97q-18 0 -13 17z" />
    <glyph glyph-name="backslash" unicode="\" horiz-adv-x="452" 
d="M206 686q0 12 17 21t35 9q20 0 20 -13l22 -701q0 -11 -17.5 -20t-34.5 -9q-9 0 -14.5 3t-5.5 9z" />
    <glyph glyph-name="bracketright" unicode="]" horiz-adv-x="293" 
d="M12 4q0 17 9.5 34t20.5 17h18q26 0 33 25l152 531q3 11 3 18q0 16 -12 16h-20q-14 0 -14 20q0 16 9 33t20 17h97q18 0 13 -17l-201 -700q-4 -13 -17 -13h-97q-14 0 -14 19z" />
    <glyph glyph-name="asciicircum" unicode="^" horiz-adv-x="337" 
d="M200 483q-18 0 -34 10.5t-10 21.5l109 190q4 6 13.5 9.5t20.5 3.5q14 0 23 -4.5t9 -13.5v-189q0 -11 -17.5 -20.5t-35.5 -9.5q-20 0 -20 14q0 13 -2.5 23.5t-7 14t-8.5 -3.5l-21 -38q-4 -8 -19 -8z" />
    <glyph glyph-name="underscore" unicode="_" horiz-adv-x="538" 
d="M-17 -95q0 16 9 33t20 17h340q14 0 14 -20q0 -16 -9 -33t-20 -17h-340q-14 0 -14 20z" />
    <glyph glyph-name="grave" unicode="`" horiz-adv-x="580" 
d="M390 606h-59q-37 29 -80.5 76t-61.5 74v10h105q16 -32 44.5 -76.5t51.5 -71.5v-12z" />
    <glyph glyph-name="a" unicode="a" horiz-adv-x="385" 
d="M-13 14q-29 29 -29 72q0 20 5 34l76 267q10 34 36 63.5t60.5 47t67.5 17.5q20 0 39 -8q7 -3 13 -3t13 4t9 5q11 6 26 6q14 0 23.5 -6t7.5 -15l-111 -386q-2 -7 -2 -18q0 -18 11.5 -28.5t30.5 -10.5q27 0 51 18t33 45q3 8 13.5 12.5t23.5 4.5q15 0 25.5 -5.5t7.5 -14.5
q-9 -34 -35.5 -64t-61.5 -48t-69 -18q-37 0 -66 24q-12 10 -22 10q-9 0 -22 -8q-42 -26 -82 -26q-43 0 -72 29zM122.5 74q24.5 19 32.5 46l76 267q2 12 2 18q0 18 -11.5 29t-30.5 11q-27 0 -51.5 -19t-32.5 -47l-76 -267q-3 -10 -3 -19q0 -17 11.5 -27.5t31.5 -10.5
q27 0 51.5 19z" />
    <glyph glyph-name="b" unicode="b" horiz-adv-x="356" 
d="M-12 14q-29 29 -29 72q0 20 5 34l166 583q3 8 13.5 12t24.5 4q15 0 25 -5t7 -15l-45 -159q-2 -10 -2 -14q0 -20 20 -15q15 4 31 4q43 0 72 -29t29 -73q0 -20 -5 -34l-76 -267q-10 -33 -36 -62.5t-60.5 -47t-67.5 -17.5q-43 0 -72 29zM123.5 74q24.5 19 32.5 46l76 267
q2 12 2 18q0 18 -11.5 29t-30.5 11q-27 0 -51.5 -19t-32.5 -47l-76 -267q-3 -10 -3 -19q0 -17 11.5 -27.5t31.5 -10.5q27 0 51.5 19zM206 3q0 17 9.5 34.5t20.5 17.5q26 1 49.5 19t32.5 44q3 8 13.5 12.5t23.5 4.5q15 0 25.5 -5.5t7.5 -14.5q-9 -34 -36 -64.5t-63 -48.5
t-70 -17q-13 0 -13 18z" />
    <glyph glyph-name="c" unicode="c" horiz-adv-x="314" 
d="M-33 135l73 255q9 32 34.5 61t59.5 46.5t67 17.5q43 0 72 -29t29 -72q0 -18 -4 -31q-1 -7 -13 -11.5t-26 -4.5q-15 0 -25 5.5t-6 15.5q3 11 3 19q0 17 -11.5 27.5t-30.5 10.5q-26 0 -49.5 -18.5t-31.5 -44.5l-73 -255q-2 -6 -2 -15q0 -28 26.5 -41.5t67.5 -13.5
q50 0 95 17t54 44q3 7 13.5 11t23.5 4q15 0 25 -5.5t7 -14.5q-17 -58 -83 -92.5t-142 -34.5q-67 0 -112.5 30t-45.5 87q0 15 5 32z" />
    <glyph glyph-name="d" unicode="d" horiz-adv-x="385" 
d="M-13 14q-29 29 -29 72q0 20 5 34l76 267q10 34 36 63.5t60.5 47t67.5 17.5q25 0 49 -13q4 -2 6 -2q6 0 7 7l56 195q2 8 13 12t25 4q16 0 25.5 -5t6.5 -15l-168 -586q-2 -7 -2 -18q0 -18 11.5 -28.5t30.5 -10.5q27 0 51 18t33 45q3 8 13.5 12.5t23.5 4.5q15 0 25.5 -5.5
t7.5 -14.5q-9 -34 -35.5 -64t-61.5 -48t-69 -18q-37 0 -66 24q-12 10 -22 10q-9 0 -22 -8q-42 -26 -82 -26q-43 0 -72 29zM122.5 74q24.5 19 32.5 46l76 267q2 12 2 18q0 18 -11.5 29t-30.5 11q-27 0 -51.5 -19t-32.5 -47l-76 -267q-3 -10 -3 -19q0 -17 11.5 -27.5
t31.5 -10.5q27 0 51.5 19z" />
    <glyph glyph-name="e" unicode="e" horiz-adv-x="294" 
d="M-35 128l75 262q9 32 34.5 61t59.5 46.5t67 17.5q43 0 72 -29t29 -72q0 -38 -25 -75t-64.5 -60.5t-80.5 -23.5h-34q-26 0 -33 -25l-32 -110q-2 -12 -2 -15q0 -24 23.5 -36t60.5 -12q46 0 89 17t52 44q3 8 14 12.5t24 4.5q15 0 24.5 -5.5t7.5 -14.5q-10 -39 -43 -68
t-79.5 -44.5t-93.5 -15.5q-64 0 -107 28t-43 81q0 15 5 32zM143 325q28 0 53 18.5t33 46.5q2 12 2 17q0 17 -11.5 27.5t-30.5 10.5q-26 0 -49.5 -18.5t-31.5 -44.5l-8 -28q-1 -3 -1 -10q0 -8 5 -13.5t14 -5.5h25z" />
    <glyph glyph-name="f" unicode="f" horiz-adv-x="194" 
d="M-320 -386q-29 29 -29 73q0 17 4 32q2 7 13.5 11.5t25.5 4.5q15 0 24.5 -5.5t6.5 -15.5q-3 -11 -3 -19q0 -19 11 -29.5t31 -10.5q28 0 52.5 18.5t32.5 46.5l226 791q2 5 2 14q0 20 -18 20h-26q-14 0 -14 19q0 17 9.5 34t20.5 17h31q26 0 33 25l42 147q10 34 36.5 64
t61 47.5t68.5 16.5q6 0 9 -6t3 -15q0 -17 -8 -32.5t-20 -16.5q-27 -1 -50.5 -20t-31.5 -46l-37 -130q-2 -10 -2 -13q0 -10 5.5 -15.5t14.5 -5.5h26q13 0 13 -18q0 -17 -9.5 -34.5t-20.5 -17.5h-31q-26 0 -33 -25l-232 -808q-9 -33 -35 -62.5t-61 -47t-68 -17.5q-44 0 -73 29
zM48 -9.5q-3 5.5 -3 14.5q0 16 9 32.5t20 17.5q27 1 50 19t32 44q3 8 13.5 12.5t23.5 4.5q15 0 25 -5.5t8 -14.5q-9 -34 -36 -64.5t-63 -48.5t-70 -17q-6 0 -9 5.5z" />
    <glyph glyph-name="g" unicode="g" horiz-adv-x="355" 
d="M-72 -186q-29 29 -29 73q0 19 4 32q1 7 13 11.5t26 4.5q15 0 25 -5.5t6 -15.5q-3 -11 -3 -19q0 -19 11 -29.5t31 -10.5q28 0 52.5 18.5t32.5 46.5l18 64l1 4q0 8 -11 5q-26 -8 -46 -8q-43 0 -72 29t-29 72q0 20 5 34l76 267q10 34 36 63.5t60.5 47t67.5 17.5q28 0 51 -14
q3 2 10.5 6t16.5 8t21 4q14 0 24 -6t8 -15l-169 -586q-9 -33 -35 -62.5t-60.5 -47t-68.5 -17.5q-44 0 -73 29zM122.5 74q24.5 19 32.5 46l76 267q2 12 2 18q0 18 -11.5 29t-30.5 11q-27 0 -51.5 -19t-32.5 -47l-76 -267q-3 -10 -3 -19q0 -17 11.5 -27.5t31.5 -10.5
q27 0 51.5 19zM205 3q0 17 9.5 34.5t20.5 17.5q26 1 49.5 19t32.5 44q3 8 13.5 12.5t23.5 4.5q15 0 25.5 -5.5t7.5 -14.5q-9 -34 -36 -64.5t-63 -48.5t-70 -17q-13 0 -13 18z" />
    <glyph glyph-name="h" unicode="h" horiz-adv-x="386" 
d="M180 14q-29 29 -29 72q0 20 5 34l76 267q2 12 2 18q0 18 -11.5 29t-30.5 11q-27 0 -51.5 -19t-32.5 -47l-109 -381q-2 -8 -13.5 -12t-25.5 -4q-15 0 -24.5 5t-6.5 15l201 700q2 8 13.5 12t25.5 4q15 0 24.5 -5t6.5 -15l-45 -158q-2 -10 -2 -14q0 -20 20 -15q15 4 31 4
q43 0 72 -29t29 -73q0 -20 -5 -34l-76 -267q-2 -7 -2 -18q0 -18 11.5 -28.5t30.5 -10.5q27 0 51 18t33 45q3 8 13.5 12.5t23.5 4.5q15 0 25.5 -5.5t7.5 -14.5q-9 -34 -35.5 -64t-61.5 -48t-69 -18q-43 0 -72 29z" />
    <glyph glyph-name="i" unicode="i" horiz-adv-x="194" 
d="M146 543q-11 -4 -26 -4t-24.5 5t-6.5 15l12 42q2 8 13 12t25 4q15 0 25 -5t7 -15l-12 -42q-2 -8 -13 -12zM-12 14q-29 29 -29 72q0 20 5 34l109 382q2 8 13.5 12t25.5 4q15 0 24.5 -5t6.5 -15l-111 -386q-2 -7 -2 -18q0 -18 11.5 -28.5t30.5 -10.5q27 0 51 18t33 45
q3 8 13.5 12.5t23.5 4.5q15 0 25.5 -5.5t7.5 -14.5q-9 -34 -35.5 -64t-61.5 -48t-69 -18q-43 0 -72 29z" />
    <glyph glyph-name="j" unicode="j" horiz-adv-x="164" 
d="M145.5 543q-10.5 -4 -24.5 -4q-15 0 -25 5t-7 15l12 42q3 8 13.5 12t24.5 4q15 0 25 -5t7 -15l-12 -42q-3 -8 -13.5 -12zM-263 -186q-29 29 -29 73q0 19 4 32q1 7 13 11.5t26 4.5q15 0 25 -5.5t6 -15.5q-3 -11 -3 -19q0 -19 11 -29.5t31 -10.5q28 0 52.5 18.5t32.5 46.5
l167 582q3 8 13.5 12t24.5 4q15 0 25 -5t7 -15l-169 -586q-9 -33 -35 -62.5t-60.5 -47t-68.5 -17.5q-44 0 -73 29zM14 3q0 17 9.5 34.5t20.5 17.5q26 1 49.5 19t32.5 44q3 8 13.5 12.5t23.5 4.5q15 0 25.5 -5.5t7.5 -14.5q-9 -34 -36 -64.5t-63 -48.5t-70 -17q-13 0 -13 18z
" />
    <glyph glyph-name="k" unicode="k" horiz-adv-x="302" 
d="M-14.5 -14q-11.5 -4 -25.5 -4q-15 0 -24.5 5t-6.5 15l201 700q3 8 13.5 12t24.5 4q15 0 25 -5t7 -15l-46 -158q-2 -10 -2 -14q0 -19 21 -15q15 4 32 4q46 0 72 -24.5t26 -67.5q0 -59 -44 -117.5t-108 -86.5q-24 -9 -27 -32q-5 -33 -5 -57q0 -37 18.5 -57.5t45.5 -20.5
q25 0 47.5 17.5t33.5 48.5q3 8 13.5 12.5t23.5 4.5q15 0 25 -5.5t8 -14.5q-15 -61 -60.5 -95.5t-99.5 -34.5q-53 0 -90 34.5t-37 98.5q0 32 6 69l-54 -189q-2 -8 -13.5 -12zM201 335.5q33 36.5 33 75.5q0 34 -41 34q-27 0 -52 -19t-33 -46l-20 -72q-2 -8 -2 -11
q0 -10 5 -15.5t14 -5.5q5 0 13 3q50 20 83 56.5z" />
    <glyph glyph-name="l" unicode="l" horiz-adv-x="194" 
d="M-12 14q-29 29 -29 72q0 20 5 34l166 582q3 8 13.5 12t24.5 4q15 0 25 -5t7 -15l-168 -586q-2 -7 -2 -18q0 -18 11.5 -28.5t30.5 -10.5q27 0 51 18t33 45q3 8 13.5 12.5t23.5 4.5q15 0 25.5 -5.5t7.5 -14.5q-9 -34 -35.5 -64t-61.5 -48t-69 -18q-43 0 -72 29z" />
    <glyph glyph-name="m" unicode="m" horiz-adv-x="578" 
d="M372 14q-29 29 -29 72q0 20 5 34l76 267q2 12 2 18q0 18 -11.5 29t-30.5 11q-27 0 -51.5 -19t-32.5 -47l-109 -381q-3 -8 -13.5 -12t-24.5 -4q-15 0 -25 5t-7 15l111 385q2 12 2 18q0 18 -11.5 29t-30.5 11q-27 0 -51.5 -19t-32.5 -47l-109 -381q-3 -8 -13.5 -12
t-24.5 -4q-15 0 -25 5t-7 15l144 500q5 16 36 16q16 0 25 -4q4 -2 9 -5t10 -3l8 2q26 7 43 7q38 0 65 -24q11 -10 23 -10q9 0 18 6q44 28 86 28q43 0 72 -29t29 -73q0 -20 -5 -34l-76 -267q-2 -7 -2 -18q0 -18 11.5 -28.5t30.5 -10.5q27 0 51 18t33 45q3 8 13.5 12.5
t23.5 4.5q15 0 25.5 -5.5t7.5 -14.5q-9 -34 -35.5 -64t-61.5 -48t-69 -18q-43 0 -72 29z" />
    <glyph glyph-name="n" unicode="n" horiz-adv-x="386" 
d="M180 14q-29 29 -29 72q0 20 5 34l76 267q2 12 2 18q0 18 -11.5 29t-30.5 11q-27 0 -51.5 -19t-32.5 -47l-109 -381q-2 -8 -13.5 -12t-25.5 -4q-15 0 -24.5 5t-6.5 15l144 500q5 16 36 16q16 0 25 -4q4 -2 9 -5t10 -3l8 2q26 7 43 7q43 0 72 -29t29 -73q0 -20 -5 -34
l-76 -267q-2 -7 -2 -18q0 -18 11.5 -28.5t30.5 -10.5q27 0 51 18t33 45q3 8 13 12t23 4q15 0 25.5 -5t8.5 -14q-9 -34 -35.5 -64t-61.5 -48t-69 -18q-43 0 -72 29z" />
    <glyph glyph-name="o" unicode="o" horiz-adv-x="355" 
d="M-13 14q-29 29 -29 72q0 20 5 34l76 267q10 34 36 63.5t60.5 47t67.5 17.5q43 0 72 -29t29 -73q0 -20 -5 -34l-76 -267q-10 -33 -36 -62.5t-60.5 -47t-67.5 -17.5q-43 0 -72 29zM122.5 74q24.5 19 32.5 46l76 267q2 12 2 18q0 18 -11.5 29t-30.5 11q-27 0 -51.5 -19
t-32.5 -47l-76 -267q-3 -10 -3 -19q0 -17 11.5 -27.5t31.5 -10.5q27 0 51.5 19zM205 3q0 17 9.5 34.5t20.5 17.5q26 1 49.5 19t32.5 44q3 8 13.5 12.5t23.5 4.5q15 0 25.5 -5.5t7.5 -14.5q-9 -34 -36 -64.5t-63 -48.5t-70 -17q-13 0 -13 18z" />
    <glyph glyph-name="p" unicode="p" horiz-adv-x="356" 
d="M-71.5 -214q-11.5 -4 -25.5 -4q-15 0 -24.5 5t-6.5 15l201 700q5 16 36 16q16 0 25 -4q4 -2 9 -5t10 -3l8 2q26 7 43 7q43 0 72 -29t29 -73q0 -20 -5 -34l-76 -267q-10 -33 -36 -62.5t-60.5 -47t-67.5 -17.5q-18 0 -30 4q-9 3 -15 3q-17 0 -23 -20l-50 -174
q-2 -8 -13.5 -12zM123.5 74q24.5 19 32.5 46l76 267q2 12 2 18q0 18 -11.5 29t-30.5 11q-27 0 -51.5 -19t-32.5 -47l-76 -267q-3 -10 -3 -19q0 -17 11.5 -27.5t31.5 -10.5q27 0 51.5 19zM206 3q0 17 9.5 34.5t20.5 17.5q26 1 49.5 19t32.5 44q3 8 13.5 12.5t23.5 4.5
q15 0 25.5 -5.5t7.5 -14.5q-9 -34 -36 -64.5t-63 -48.5t-70 -17q-13 0 -13 18z" />
    <glyph glyph-name="q" unicode="q" horiz-adv-x="356" 
d="M64 -198l45 158q2 10 2 14q0 20 -20 15q-15 -4 -31 -4q-43 0 -72 29t-29 72q0 20 5 34l76 268q16 52 64.5 89.5t99.5 37.5q20 0 39 -8q8 -3 13 -3q6 0 13 4t9 5q11 6 25 6q15 0 24.5 -6t7.5 -15l-201 -700q-4 -13 -17 -13h-40q-18 0 -13 17zM123.5 74q24.5 19 32.5 46
l76 267q2 12 2 18q0 18 -11.5 29t-30.5 11q-27 0 -51.5 -19t-32.5 -47l-76 -267q-3 -10 -3 -19q0 -17 11.5 -27.5t31.5 -10.5q27 0 51.5 19zM206 3q0 17 9.5 34.5t20.5 17.5q26 1 49.5 19t32.5 44q3 8 13.5 12.5t23.5 4.5q15 0 25.5 -5.5t7.5 -14.5q-9 -34 -36 -64.5
t-63 -48.5t-70 -17q-13 0 -13 18z" />
    <glyph glyph-name="r" unicode="r" horiz-adv-x="369" 
d="M160.5 14.5q-29.5 29.5 -29.5 73.5q0 23 4 34l108 303l1 8q0 12 -15 12q-35 0 -65 10q-9 3 -16 3q-16 0 -22 -19l-94 -326q-3 -8 -13.5 -12t-24.5 -4q-15 0 -25 5t-7 15l133 463q3 15 29 15q10 0 19.5 -3t13.5 -8l1 -1q6 -10 5 -15v-6q0 -23 20 -35t58 -12q32 0 53 -21
t21 -53q0 -15 -4 -24l-107 -303q-3 -7 -3 -18q0 -19 12.5 -30t32.5 -11q28 0 52 18t33 45q3 8 13.5 12.5t23.5 4.5q15 0 25 -5.5t8 -14.5q-9 -34 -35 -64t-61.5 -48t-70.5 -18q-44 0 -73.5 29.5z" />
    <glyph glyph-name="s" unicode="s" horiz-adv-x="339" 
d="M-98 13l-1 1l-27 23q-5 3 -5 10q0 14 18 31.5t32 17.5q5 0 8 -3l26 -22q19 -16 46 -16q41 0 80.5 28.5t64.5 74.5t25 95q0 31 -3 47.5t-16 40.5l-9 15q-11 14 -21 14q-13 0 -19 -21l-69 -236q-2 -8 -13.5 -12t-25.5 -4q-15 0 -24.5 5t-6.5 15l133 463q3 8 13.5 12t23.5 4
q15 0 25.5 -5.5t7.5 -14.5q-13 -43 -13 -73q0 -22 6.5 -35.5t21.5 -32.5q19 -27 24 -36q36 -64 36 -134t-36.5 -135t-95 -105t-121.5 -40q-48 0 -85 28zM189 3q0 17 9.5 34.5t20.5 17.5q26 1 49.5 19t32.5 44q3 8 13.5 12.5t23.5 4.5q15 0 25.5 -5.5t7.5 -14.5
q-9 -34 -36 -64.5t-63 -48.5t-70 -17q-13 0 -13 18z" />
    <glyph glyph-name="t" unicode="t" horiz-adv-x="193" 
d="M-13 14q-29 29 -29 72q0 16 5 34l111 391q2 5 2 14q0 20 -18 20h-26q-14 0 -14 19q0 17 9.5 34t20.5 17h31q26 0 33 25l17 62q1 8 12 12t24 4q16 0 27 -5.5t7 -14.5l-14 -49q-2 -10 -2 -13q0 -10 5.5 -15.5t14.5 -5.5h26q12 0 12 -17t-9.5 -35t-19.5 -18h-31
q-26 0 -33 -25l-117 -408q-2 -7 -2 -18q0 -18 11.5 -28.5t30.5 -10.5q27 0 51 18t33 45q3 8 13.5 12.5t23.5 4.5q15 0 25.5 -5.5t7.5 -14.5q-9 -34 -35.5 -64t-61.5 -48t-69 -18q-43 0 -72 29z" />
    <glyph glyph-name="u" unicode="u" horiz-adv-x="385" 
d="M-14 14q-29 29 -29 73q0 14 5 32l110 383q2 8 12 12.5t23 4.5q16 0 27 -6t8 -15l-111 -386q-3 -10 -3 -19q0 -17 11.5 -27.5t31.5 -10.5q27 0 51.5 19t32.5 46l109 382q2 8 12 12.5t23 4.5q16 0 27 -6t8 -15l-111 -386q-2 -7 -2 -18q0 -18 11.5 -28.5t30.5 -10.5
q27 0 51 18t33 45q3 8 13.5 12.5t23.5 4.5q15 0 25.5 -5.5t7.5 -14.5q-9 -34 -35.5 -64t-61.5 -48t-69 -18q-37 0 -66 24q-12 10 -22 10q-9 0 -22 -8q-42 -26 -82 -26q-44 0 -73 29z" />
    <glyph glyph-name="v" unicode="v" horiz-adv-x="356" 
d="M-13 14q-29 29 -29 73q0 20 5 34l109 381q2 8 13 12t25 4q16 0 25.5 -5t6.5 -15l-111 -385q-2 -7 -2 -19q0 -18 11.5 -28.5t31.5 -10.5q27 0 51 19t33 47l79 277q2 10 2 14q0 13 -10 27q-3 5 -6.5 7.5t-5.5 5.5l-3 3q-4 5 -4 15q0 15 7.5 30t17.5 15q31 -1 53 -27.5
t22 -64.5q0 -16 -5 -33l-79 -277q-10 -34 -36 -63.5t-60.5 -47t-67.5 -17.5q-44 0 -73 29zM207 3q0 17 9 34.5t20 17.5q26 1 49.5 19t32.5 44q3 8 13.5 12.5t23.5 4.5q15 0 25.5 -5.5t7.5 -14.5q-9 -34 -36 -64.5t-63 -48.5t-70 -17q-12 0 -12 18z" />
    <glyph glyph-name="w" unicode="w" horiz-adv-x="549" 
d="M-13 14q-29 29 -29 72q0 20 5 34l109 382q2 8 13 12t25 4q16 0 25.5 -5t6.5 -15l-111 -386q-2 -7 -2 -18q0 -18 11.5 -28.5t30.5 -10.5q22 0 43.5 13t33.5 34q4 8 5.5 12t1.5 5l110 383q2 8 12 12.5t23 4.5q16 0 27 -6t8 -15l-111 -385q-2 -7 -2 -19q0 -18 11.5 -28.5
t31.5 -10.5q27 0 51 19t33 47l79 277q2 10 2 14q0 13 -10 27q-3 5 -6.5 7.5t-5.5 5.5l-3 3q-4 5 -4 15q0 15 7.5 30t17.5 15q31 -1 53 -27.5t22 -64.5q0 -16 -5 -33l-79 -277q-10 -34 -36 -63.5t-60.5 -47t-67.5 -17.5q-40 0 -67 24q-13 10 -22 10q-10 0 -21 -8
q-44 -26 -84 -26q-43 0 -72 29zM400 3q0 17 9 34.5t20 17.5q26 1 49.5 19t32.5 44q3 8 13.5 12.5t23.5 4.5q15 0 25.5 -5.5t7.5 -14.5q-9 -34 -36 -64.5t-63 -48.5t-70 -17q-12 0 -12 18z" />
    <glyph glyph-name="x" unicode="x" horiz-adv-x="518" 
d="M-13 14q-29 29 -29 72q0 18 4 33q2 7 14 11.5t26 4.5q15 0 24.5 -5.5t5.5 -15.5q-4 -16 -4 -21q0 -17 11.5 -27.5t31.5 -10.5q27 0 51.5 19t32.5 46l76 267q2 12 2 18q0 18 -11.5 29t-30.5 11q-26 0 -50.5 -18.5t-32.5 -45.5q-2 -8 -12.5 -12.5t-24.5 -4.5
q-15 0 -25.5 5.5t-7.5 14.5q9 34 35.5 64.5t61 48.5t68.5 18q38 0 65 -24q11 -10 23 -10q9 0 18 6q44 28 86 28q43 0 72 -29t29 -73q0 -18 -4 -33q-2 -7 -13.5 -11.5t-25.5 -4.5q-15 0 -24.5 5.5t-6.5 15.5q3 11 3 20q0 18 -11.5 29t-30.5 11q-27 0 -51.5 -19t-32.5 -47
l-76 -267q-3 -10 -3 -19q0 -17 11.5 -27.5t31.5 -10.5q26 0 50 18.5t33 44.5q2 8 12.5 12.5t23.5 4.5q15 0 26 -5.5t8 -14.5q-9 -34 -35 -64t-61 -48t-69 -18q-38 0 -66 23q-11 10 -23 10q-11 0 -22 -8q-41 -25 -81 -25q-43 0 -72 29z" />
    <glyph glyph-name="y" unicode="y" horiz-adv-x="357" 
d="M-70 -186q-29 29 -29 73q0 19 4 32q2 7 13.5 11.5t25.5 4.5q15 0 24.5 -5.5t6.5 -15.5q-3 -11 -3 -19q0 -19 11 -29.5t31 -10.5q28 0 52.5 18.5t32.5 46.5l11 40q2 10 2 14q0 9 -5 13t-15 2q-15 -4 -31 -4q-43 0 -72 29t-29 72q0 20 5 34l109 382q2 8 13 12t25 4
q16 0 25.5 -5t6.5 -15l-111 -386q-3 -10 -3 -19q0 -17 11.5 -27.5t31.5 -10.5q27 0 51.5 19t32.5 46l109 382q2 8 12 12.5t23 4.5q16 0 27 -6t8 -15l-169 -586q-9 -33 -35 -62.5t-60.5 -47t-68.5 -17.5q-44 0 -73 29zM207 3q0 17 9.5 34.5t20.5 17.5q26 1 49.5 19t32.5 44
q3 8 13.5 12.5t23.5 4.5q15 0 25.5 -5.5t7.5 -14.5q-9 -34 -36 -64.5t-63 -48.5t-70 -17q-13 0 -13 18z" />
    <glyph glyph-name="z" unicode="z" horiz-adv-x="356" 
d="M-71 -186q-29 29 -29 73q0 19 4 32q2 7 13.5 11.5t25.5 4.5q15 0 24.5 -5.5t6.5 -15.5q-3 -11 -3 -19q0 -19 11 -29.5t31 -10.5q28 0 52.5 18.5t32.5 46.5l58 202q2 7 -11 14t-28 6l-6 -1q-9 0 -6 12l12 38q2 6 5 10q5 6 12.5 13.5t11.5 15.5l97 196q1 3 1 7q0 12 -15 12
q-35 0 -65 10q-9 3 -16 3q-16 0 -22 -19l-94 -326q-4 -13 -17 -13h-40q-18 0 -13 17l133 463q4 15 29 15q11 0 20 -3t13 -8l1 -1q7 -8 5 -15v-6q0 -23 20 -35t58 -12q32 0 53 -21t21 -53q0 -5 -2 -17q-1 -7 -6 -17l-96 -195q-4 -8 -4 -16q0 -11 10 -26q10 -18 10 -36
q0 -11 -3 -20l-58 -202q-9 -33 -35 -62.5t-60.5 -47t-68.5 -17.5q-44 0 -73 29zM207 3q0 17 9 34.5t20 17.5q26 1 49.5 19t32.5 44q3 8 13.5 12.5t23.5 4.5q15 0 25.5 -5.5t7.5 -14.5q-9 -34 -36 -64.5t-63 -48.5t-70 -17q-12 0 -12 18z" />
    <glyph glyph-name="braceleft" unicode="{" horiz-adv-x="324" 
d="M91.5 4.5q-20.5 18.5 -20.5 54.5q0 21 5.5 45.5t16.5 63.5q13 48 19 75.5t6 53.5q0 21 -5 39q-2 4 -2 13q0 13 4.5 25.5t11.5 19.5q27 29 43 66t31 90q17 55 32 87.5t44.5 55t77.5 22.5q14 0 14 -20q0 -16 -9 -33t-20 -17q-28 -1 -40.5 -21.5t-28.5 -74.5
q-15 -54 -34.5 -99.5t-54.5 -90.5q4 -20 4 -46q0 -38 -7 -73.5t-21 -86.5q-16 -57 -16 -77q0 -12 5 -16.5t19 -4.5q15 0 15 -19q0 -16 -10 -33.5t-20 -17.5q-39 1 -59.5 19.5z" />
    <glyph glyph-name="bar" unicode="|" horiz-adv-x="228" 
d="M62.5 -14q-10.5 -4 -22.5 -4q-15 0 -24.5 5.5t-6.5 14.5l201 700q3 8 12.5 12t22.5 4q14 0 24 -5.5t7 -14.5l-201 -700q-2 -8 -12.5 -12z" />
    <glyph glyph-name="braceright" unicode="}" horiz-adv-x="325" 
d="M17 -10.5q-3 4.5 -3 14.5q0 16 9 33t20 18q28 1 40.5 21.5t27.5 74.5q18 60 36 103t53 88q-3 23 -3 46q0 63 28 160q16 57 16 76q0 12 -5 16.5t-19 4.5q-15 0 -15 21q0 16 9.5 32.5t21.5 16.5q78 -2 78 -75q0 -20 -5.5 -43.5t-16.5 -63.5q-12 -43 -18 -72.5t-6 -56.5
q0 -10 2 -22q1 -5 3 -13.5t2 -15.5q0 -12 -5 -25.5t-12 -21.5q-27 -29 -43 -66t-31 -90q-17 -55 -32 -87.5t-43.5 -55t-76.5 -22.5q-9 0 -12 4.5z" />
    <glyph glyph-name="asciitilde" unicode="~" horiz-adv-x="550" 
d="M259 288q-18 8 -31.5 13.5t-24.5 8.5t-21 4t-21 1q-14 0 -28.5 -4.5t-29 -12.5t-28 -18.5t-25.5 -23.5v79q49 53 121 53q14 0 26 -1t25.5 -4.5t30 -9.5t39.5 -16q18 -8 31.5 -13t25 -8t21 -4.5t20.5 -1.5q14 0 28.5 4.5t29 12.5t28 19t25.5 23v-79q-48 -53 -121 -53
q-14 0 -26.5 1.5t-26 4.5t-29.5 9t-39 16zM221 622z" />
    <glyph glyph-name="uni007F" 
 />
    <glyph glyph-name="exclamdown" unicode="&#xa1;" horiz-adv-x="269" 
d="M104 330h58l25 -512h-108zM196 478q0 -33 -16 -50t-46 -17t-46 17t-16 50q0 32 16.5 50t45.5 18t45.5 -17.5t16.5 -50.5z" />
    <glyph glyph-name="cent" unicode="&#xa2;" horiz-adv-x="423" 
d="M174.5 36q-10.5 -4 -22.5 -4q-15 0 -24.5 5.5t-6.5 14.5l11 39q-29 11 -47 37t-18 59q0 19 5 33l76 267q12 42 50 77.5t83 46.5l12 41q2 8 12.5 12t22.5 4q15 0 24.5 -5.5t6.5 -14.5l-11 -39q29 -11 47 -37t18 -59q0 -18 -4 -33q-2 -7 -14 -11.5t-26 -4.5
q-15 0 -24.5 5.5t-5.5 15.5q3 12 3 21q0 22 -14 31l-107 -370q14 8 25.5 21.5t16.5 29.5q3 8 13.5 12.5t23.5 4.5q15 0 25 -5.5t8 -14.5q-11 -43 -49.5 -79.5t-84.5 -47.5l-12 -40q-2 -8 -12.5 -12zM259 533q-15 -9 -26.5 -23.5t-16.5 -30.5l-76 -267q-2 -7 -2 -19
q0 -21 14 -30z" />
    <glyph glyph-name="sterling" unicode="&#xa3;" horiz-adv-x="571" 
d="M334 723q93 0 177 -41l-31 -70q-82 38 -144 38q-57 0 -87 -29.5t-30 -95.5v-139h204v-66h-204v-104q0 -47 -15.5 -80.5t-52.5 -55.5h384v-80h-503v74q99 23 99 141v105h-96v66h96v148q0 88 55 138.5t148 50.5z" />
    <glyph glyph-name="currency" unicode="&#xa4;" horiz-adv-x="571" 
d="M90 353q0 57 35 110l-66 68l49 47l66 -64q49 35 112 35q59 0 110 -35l67 64l48 -47l-64 -67q35 -54 35 -111q0 -63 -35 -112l63 -66l-47 -47l-67 64q-50 -34 -110 -34q-64 0 -112 35l-66 -64l-48 47l65 66q-35 53 -35 111zM157 353q0 -54 37.5 -91.5t91.5 -37.5t92 37
t38 92q0 56 -38 93.5t-92 37.5t-91.5 -38t-37.5 -93z" />
    <glyph glyph-name="yen" unicode="&#xa5;" horiz-adv-x="571" 
d="M285 365l179 349h92l-201 -375h124v-64h-151v-82h151v-64h-151v-129h-86v129h-151v64h151v82h-151v64h122l-199 375h93z" />
    <glyph glyph-name="brokenbar" unicode="&#xa6;" horiz-adv-x="228" 
d="M179.5 396q-10.5 -4 -22.5 -4q-15 0 -24.5 5.5t-6.5 14.5l84 290q2 8 12.5 12t22.5 4q15 0 24.5 -5.5t6.5 -14.5l-84 -290q-2 -8 -12.5 -12zM62.5 -14q-10.5 -4 -22.5 -4q-15 0 -24.5 5.5t-6.5 14.5l83 290q2 8 12.5 12t22.5 4q15 0 24.5 -5.5t6.5 -14.5l-83 -290
q-2 -8 -12.5 -12z" />
    <glyph glyph-name="section" unicode="&#xa7;" horiz-adv-x="513" 
d="M67 395q0 42 21 75t58 51q-36 20 -56 47t-20 68q0 60 50.5 94.5t146.5 34.5q45 0 82 -7t89 -27l-27 -67q-47 19 -80.5 26t-69.5 7q-56 0 -82.5 -14.5t-26.5 -44.5q0 -27 28 -47.5t104 -47.5q89 -33 126 -70t37 -90q0 -88 -75 -133q74 -39 74 -110q0 -69 -57.5 -107
t-160.5 -38t-169 33v75q42 -19 88.5 -30t84.5 -11q62 0 96 18t34 53q0 30 -26 49t-103 49q-96 36 -131 72.5t-35 91.5zM142 405q0 -25 13 -43.5t43 -35.5t109 -47q64 37 64 91q0 40 -34 66.5t-123 54.5q-32 -9 -52 -33t-20 -53z" />
    <glyph glyph-name="dieresis" unicode="&#xa8;" horiz-adv-x="580" 
d="M149 681q0 26 13.5 37.5t33.5 11.5q19 0 33 -11.5t14 -37.5t-14 -38t-33 -12q-20 0 -33.5 12t-13.5 38zM337 681q0 26 13.5 37.5t32.5 11.5t33 -11.5t14 -37.5t-14 -38t-33 -12t-32.5 12t-13.5 38z" />
    <glyph glyph-name="copyright" unicode="&#xa9;" horiz-adv-x="832" 
d="M436 515q-58 0 -91 -41.5t-33 -116.5q0 -77 28.5 -118t94.5 -41q46 0 105 23v-64q-29 -13 -53 -18.5t-56 -5.5q-94 0 -145.5 58.5t-51.5 165.5q0 102 54 162.5t147 60.5q63 0 123 -30l-29 -61q-52 26 -93 26zM49 357q0 98 48.5 183t134 134.5t184.5 49.5q98 0 183.5 -49
t134.5 -134t49 -184q0 -96 -47.5 -180.5t-132.5 -135.5t-187 -51q-101 0 -186.5 50.5t-133 135t-47.5 181.5zM102 357q0 -84 42 -157t115 -115t157 -42t157 42t115 115t42 157t-42 156.5t-115 115t-157 42.5t-156.5 -42t-115 -115t-42.5 -157z" />
    <glyph glyph-name="ordfeminine" unicode="&#xaa;" horiz-adv-x="356" 
d="M261 389l-12 42q-46 -48 -114 -48q-47 0 -75 24.5t-28 74.5t38.5 76t119.5 29l56 2v22q0 30 -19 44.5t-52 14.5q-49 0 -101 -26q-13 30 -22 49q60 29 125 29t98 -27t33 -86v-220h-47zM96 482q0 -48 54 -48q96 0 96 87v23l-48 -2q-54 -2 -78 -16t-24 -44z" />
    <glyph glyph-name="guillemotleft" unicode="&#xab;" horiz-adv-x="602" 
d="M118 318q-11 3 -11 19q0 14 8 29t17 17l206 55q2 1 6 1q11 0 11 -14v-1q0 -13 6 -20.5t16 -7.5q3 0 11 2l153 40q10 3 15.5 -6.5t5.5 -24.5q0 -14 -4.5 -25.5t-12.5 -12.5l-12 -3q-22 -5 -35 -14t-3 -12l35 -10q9 -3 9 -14q0 -16 -16 -36.5t-28 -16.5l-133 42q-5 2 -14 2
q-15 0 -24 -15l-12 -21q-8 -12 -20 -8z" />
    <glyph glyph-name="logicalnot" unicode="&#xac;" horiz-adv-x="571" 
d="M520 388v-260h-71v189h-399v71h470z" />
    <glyph glyph-name="uni00AD" unicode="&#xad;" horiz-adv-x="321" 
d="M40 229v78h242v-78h-242z" />
    <glyph glyph-name="registered" unicode="&#xae;" horiz-adv-x="832" 
d="M355 373h50q40 0 61.5 19.5t21.5 51.5q0 36 -20 51.5t-64 15.5h-49v-138zM565 446q0 -41 -21 -70.5t-57 -43.5l116 -194h-86l-100 173h-62v-173h-76v437h128q82 0 120 -32t38 -97zM49 357q0 98 48.5 183t134 134.5t184.5 49.5q98 0 183.5 -49t134.5 -134t49 -184
q0 -96 -47.5 -180.5t-132.5 -135.5t-187 -51q-101 0 -186.5 50.5t-133 135t-47.5 181.5zM102 357q0 -84 42 -157t115 -115t157 -42t157 42t115 115t42 157t-42 156.5t-115 115t-157 42.5t-156.5 -42t-115 -115t-42.5 -157z" />
    <glyph glyph-name="macron" unicode="&#xaf;" horiz-adv-x="339" 
d="M106 335q0 16 9 33t20 17h280q14 0 14 -20q0 -16 -9 -33t-20 -17h-280q-14 0 -14 20z" />
    <glyph glyph-name="degree" unicode="&#xb0;" horiz-adv-x="423" 
d="M201.5 481.5q-29.5 29.5 -29.5 72.5q0 38 25.5 75.5t64.5 61.5t79 24q43 0 72 -29t29 -73q0 -20 -5 -34q-9 -33 -35 -62.5t-60.5 -47t-67.5 -17.5q-43 0 -72.5 29.5zM344.5 547.5q26.5 25.5 26.5 57.5q0 18 -11.5 29t-30.5 11q-33 0 -59.5 -26t-26.5 -58
q0 -18 11.5 -28.5t30.5 -10.5q33 0 59.5 25.5z" />
    <glyph glyph-name="plusminus" unicode="&#xb1;" horiz-adv-x="571" 
d="M321 391h199v-71h-199v-206h-72v206h-199v71h199v207h72v-207zM50 0v71h470v-71h-470z" />
    <glyph glyph-name="uni00B2" unicode="&#xb2;" horiz-adv-x="350" 
d="M306 286h-282v54l115 112q62 60 79.5 87.5t17.5 61.5q0 32 -18.5 48t-48.5 16t-54.5 -11.5t-50.5 -31.5l-35 46q65 55 141 55q64 0 100.5 -32t36.5 -86q0 -22 -6 -41.5t-18.5 -39.5t-33 -42.5t-138.5 -133.5h195v-62z" />
    <glyph glyph-name="uni00B3" unicode="&#xb3;" horiz-adv-x="350" 
d="M308 613q0 -74 -74 -102q87 -21 87 -102q0 -62 -45 -96.5t-128 -34.5q-74 0 -131 28v63q69 -34 132 -34q100 0 100 76q0 69 -110 69h-57v55h57q50 0 73.5 19t23.5 51q0 29 -19 45t-51 16q-51 0 -111 -38l-36 46q36 27 71 38t75 11q66 0 104.5 -29.5t38.5 -80.5z" />
    <glyph glyph-name="acute" unicode="&#xb4;" horiz-adv-x="580" 
d="M189 618q19 23 47.5 66.5t47.5 81.5h106v-10q-21 -31 -66.5 -78.5t-76.5 -71.5h-58v12z" />
    <glyph glyph-name="mu" unicode="&#xb5;" horiz-adv-x="623" 
d="M173 190q0 -127 120 -127q83 0 120 45.5t37 148.5v279h88v-536h-71l-14 72h-5q-53 -82 -161 -82q-71 0 -115 45h-4q5 -36 5 -119v-156h-88v776h88v-346z" />
    <glyph glyph-name="paragraph" unicode="&#xb6;" horiz-adv-x="654" 
d="M549 -127h-58v831h-102v-831h-58v400q-30 -9 -71 -9q-105 0 -155 61t-50 184q0 127 53.5 189t166.5 62h274v-887z" />
    <glyph glyph-name="periodcentered" unicode="&#xb7;" horiz-adv-x="232" 
d="M161.5 316q-10.5 -4 -24.5 -4q-15 0 -25.5 5.5t-7.5 14.5l11 40q3 8 13.5 12t23.5 4q15 0 25.5 -5.5t7.5 -14.5l-11 -40q-2 -8 -12.5 -12z" />
    <glyph glyph-name="cedilla" unicode="&#xb8;" horiz-adv-x="225" 
d="M212 -139q0 -48 -37 -74.5t-111 -26.5q-32 0 -50 5v55q18 -5 53 -5q37 0 55.5 9.5t18.5 34.5q0 43 -91 55l43 86h58l-26 -53q87 -19 87 -86z" />
    <glyph glyph-name="uni00B9" unicode="&#xb9;" horiz-adv-x="350" 
d="M167 714h73v-428h-71v276q0 33 4 89q-15 -14 -26.5 -23t-74.5 -55l-35 49z" />
    <glyph glyph-name="ordmasculine" unicode="&#xba;" horiz-adv-x="375" 
d="M345 553q0 -80 -42 -125t-116 -45q-71 0 -113 45t-42 125q0 81 41 125t116 44q73 0 114.5 -44.5t41.5 -124.5zM95 553q0 -59 21.5 -88t71.5 -29q49 0 71 29t22 88t-22 87.5t-71 28.5t-71 -28.5t-22 -87.5z" />
    <glyph glyph-name="guillemotright" unicode="&#xbb;" horiz-adv-x="602" 
d="M103.5 269q-5.5 10 -5.5 26q0 13 4.5 23.5t11.5 12.5l12 3q22 5 35 14.5t3 12.5l-35 9q-9 3 -9 14q0 16 16.5 36.5t28.5 16.5l132 -42q5 -2 14 -2q15 0 24 15l13 21q8 13 20 8l173 -55q11 -3 11 -18q0 -14 -8.5 -29.5t-16.5 -17.5l-205 -55q-2 -1 -5 -1q-12 0 -12 14v2
q-1 27 -22 27q-4 0 -12 -2l-152 -40q-10 -3 -15.5 7z" />
    <glyph glyph-name="onequarter" unicode="&#xbc;" horiz-adv-x="790" 
d="M736 96h-61v-96h-75v96h-195v52l197 283h73v-275h61v-60zM600 156v93q0 52 3 101q-4 -9 -48 -77l-80 -117h125zM331 -31q-18 0 -35 14t-8 25l535 700q5 6 15 6q17 0 33.5 -14t8.5 -25l-535 -700q-5 -6 -14 -6zM165 714h73v-428h-71v276q0 33 4 89q-15 -14 -26.5 -23
t-74.5 -55l-35 49z" />
    <glyph glyph-name="onehalf" unicode="&#xbd;" horiz-adv-x="790" 
d="M301 -31q-18 0 -35 14t-8 25l535 700q5 6 15 6q17 0 33.5 -14t8.5 -25l-535 -700q-5 -6 -14 -6zM152 714h73v-428h-71v276q0 33 4 89q-15 -14 -26.5 -23t-74.5 -55l-35 49zM727 0h-282v54l115 112q62 60 79.5 87.5t17.5 61.5q0 32 -18.5 48t-48.5 16t-54.5 -11.5
t-50.5 -31.5l-35 46q65 55 141 55q64 0 100.5 -32t36.5 -86q0 -22 -6 -41.5t-18.5 -39.5t-33 -42.5t-138.5 -133.5h195v-62z" />
    <glyph glyph-name="threequarters" unicode="&#xbe;" horiz-adv-x="790" 
d="M772 96h-61v-96h-75v96h-195v52l197 283h73v-275h61v-60zM636 156v93q0 52 3 101q-4 -9 -48 -77l-80 -117h125zM375 -31q-18 0 -35 14t-8 25l535 700q5 6 15 6q17 0 33.5 -14t8.5 -25l-535 -700q-5 -6 -14 -6zM307 613q0 -74 -74 -102q87 -21 87 -102q0 -62 -45 -96.5
t-128 -34.5q-74 0 -131 28v63q69 -34 132 -34q100 0 100 76q0 69 -110 69h-57v55h57q50 0 73.5 19t23.5 51q0 29 -19 45t-51 16q-51 0 -111 -38l-36 46q36 27 71 38t75 11q66 0 104.5 -29.5t38.5 -80.5z" />
    <glyph glyph-name="questiondown" unicode="&#xbf;" horiz-adv-x="434" 
d="M294 330v-26q0 -57 -18 -93.5t-67 -77.5q-65 -54 -82 -81t-17 -68q0 -47 31 -73.5t89 -26.5q78 0 161 43l31 -71q-97 -48 -195 -48q-95 0 -148.5 45.5t-53.5 128.5q0 36 9.5 63.5t29.5 52.5t79 75q50 44 65 71t15 70v16h71zM317 478q0 -67 -62 -67q-30 0 -45.5 17.5
t-15.5 49.5q0 36 17.5 52t43.5 16t44 -16t18 -52z" />
    <glyph glyph-name="Agrave" unicode="&#xc0;" horiz-adv-x="639" 
d="M75.5 -183q-58.5 32 -91.5 89t-33 130q0 44 14 91q26 90 93.5 167t157.5 122t180 45q14 0 14 -20q0 -16 -9 -33t-20 -17q-74 0 -146.5 -36.5t-126.5 -99t-75 -136.5q-11 -42 -11 -77q0 -84 54.5 -135.5t143.5 -51.5q74 0 147 36t127.5 98.5t76.5 137.5l113 395
q21 76 84.5 144t148 109t164.5 40q13 0 13 -18q0 -17 -9.5 -34.5t-20.5 -17.5q-1 -1 -6 -4t-10.5 -9t-7.5 -13l-208 -723q-2 -12 -2 -17q0 -19 12 -30t32 -10q13 0 13 -19q0 -17 -8.5 -34t-18.5 -17q-43 1 -72 30t-29 72q0 16 5 33l71 252q2 8 2 11q0 11 -7 17t-20 6h-96
q-26 0 -33 -25l-42 -146q-26 -90 -93 -167t-157 -122t-180 -45q-75 0 -133.5 32zM840 360q26 0 33 25l85 296q2 8 2 11q0 9 -5 14.5t-13 5.5t-15 -4q-64 -32 -111.5 -84t-63.5 -110l-34 -120q-2 -8 -2 -10q0 -11 7.5 -17.5t20.5 -6.5h96zM364 771h-59q-37 29 -80.5 76
t-61.5 74v10h105q16 -32 44.5 -76.5t51.5 -71.5v-12z" />
    <glyph glyph-name="Aacute" unicode="&#xc1;" horiz-adv-x="639" 
d="M75.5 -183q-58.5 32 -91.5 89t-33 130q0 44 14 91q26 90 93.5 167t157.5 122t180 45q14 0 14 -20q0 -16 -9 -33t-20 -17q-74 0 -146.5 -36.5t-126.5 -99t-75 -136.5q-11 -42 -11 -77q0 -84 54.5 -135.5t143.5 -51.5q74 0 147 36t127.5 98.5t76.5 137.5l113 395
q21 76 84.5 144t148 109t164.5 40q13 0 13 -18q0 -17 -9.5 -34.5t-20.5 -17.5q-1 -1 -6 -4t-10.5 -9t-7.5 -13l-208 -723q-2 -12 -2 -17q0 -19 12 -30t32 -10q13 0 13 -19q0 -17 -8.5 -34t-18.5 -17q-43 1 -72 30t-29 72q0 16 5 33l71 252q2 8 2 11q0 11 -7 17t-20 6h-96
q-26 0 -33 -25l-42 -146q-26 -90 -93 -167t-157 -122t-180 -45q-75 0 -133.5 32zM840 360q26 0 33 25l85 296q2 8 2 11q0 9 -5 14.5t-13 5.5t-15 -4q-64 -32 -111.5 -84t-63.5 -110l-34 -120q-2 -8 -2 -10q0 -11 7.5 -17.5t20.5 -6.5h96zM257 783q19 23 47.5 66.5t47.5 81.5
h106v-10q-21 -31 -66.5 -78.5t-76.5 -71.5h-58v12z" />
    <glyph glyph-name="Acircumflex" unicode="&#xc2;" horiz-adv-x="639" 
d="M146 782q61 65 86 96.5t37 52.5h90q25 -49 125 -149v-11h-62q-44 26 -109 90q-64 -62 -107 -90h-60v11zM75.5 -183q-58.5 32 -91.5 89t-33 130q0 44 14 91q26 90 93.5 167t157.5 122t180 45q14 0 14 -20q0 -16 -9 -33t-20 -17q-74 0 -146.5 -36.5t-126.5 -99t-75 -136.5
q-11 -42 -11 -77q0 -84 54.5 -135.5t143.5 -51.5q74 0 147 36t127.5 98.5t76.5 137.5l113 395q21 76 84.5 144t148 109t164.5 40q13 0 13 -18q0 -17 -9.5 -34.5t-20.5 -17.5q-1 -1 -6 -4t-10.5 -9t-7.5 -13l-208 -723q-2 -12 -2 -17q0 -19 12 -30t32 -10q13 0 13 -19
q0 -17 -8.5 -34t-18.5 -17q-43 1 -72 30t-29 72q0 16 5 33l71 252q2 8 2 11q0 11 -7 17t-20 6h-96q-26 0 -33 -25l-42 -146q-26 -90 -93 -167t-157 -122t-180 -45q-75 0 -133.5 32zM840 360q26 0 33 25l85 296q2 8 2 11q0 9 -5 14.5t-13 5.5t-15 -4q-64 -32 -111.5 -84
t-63.5 -110l-34 -120q-2 -8 -2 -10q0 -11 7.5 -17.5t20.5 -6.5h96z" />
    <glyph glyph-name="Atilde" unicode="&#xc3;" horiz-adv-x="639" 
d="M390 772q-21 0 -41 9t-39.5 19.5t-37 19.5t-34.5 9q-24 0 -36 -14.5t-19 -43.5h-51q6 60 34 94t76 34q22 0 42.5 -9t39.5 -19.5t37 -19.5t33 -9q23 0 35.5 14.5t19.5 43.5h50q-6 -58 -34 -93t-75 -35zM75.5 -183q-58.5 32 -91.5 89t-33 130q0 44 14 91q26 90 93.5 167
t157.5 122t180 45q14 0 14 -20q0 -16 -9 -33t-20 -17q-74 0 -146.5 -36.5t-126.5 -99t-75 -136.5q-11 -42 -11 -77q0 -84 54.5 -135.5t143.5 -51.5q74 0 147 36t127.5 98.5t76.5 137.5l113 395q21 76 84.5 144t148 109t164.5 40q13 0 13 -18q0 -17 -9.5 -34.5t-20.5 -17.5
q-1 -1 -6 -4t-10.5 -9t-7.5 -13l-208 -723q-2 -12 -2 -17q0 -19 12 -30t32 -10q13 0 13 -19q0 -17 -8.5 -34t-18.5 -17q-43 1 -72 30t-29 72q0 16 5 33l71 252q2 8 2 11q0 11 -7 17t-20 6h-96q-26 0 -33 -25l-42 -146q-26 -90 -93 -167t-157 -122t-180 -45q-75 0 -133.5 32z
M840 360q26 0 33 25l85 296q2 8 2 11q0 9 -5 14.5t-13 5.5t-15 -4q-64 -32 -111.5 -84t-63.5 -110l-34 -120q-2 -8 -2 -10q0 -11 7.5 -17.5t20.5 -6.5h96z" />
    <glyph glyph-name="Adieresis" unicode="&#xc4;" horiz-adv-x="1029" 
d="M1066 883q-11 -4 -26 -4t-24.5 5t-6.5 15l12 42q2 8 13 12t25 4q15 0 25 -5t7 -15l-12 -42q-2 -8 -13 -12zM926 883q-11 -4 -26 -4t-24.5 5t-6.5 15l12 42q2 8 13 12t25 4q15 0 25 -5t7 -15l-12 -42q-2 -8 -13 -12zM75.5 -183q-58.5 32 -91.5 89t-33 130q0 44 14 91
q26 90 93.5 167t157.5 122t180 45q14 0 14 -20q0 -16 -9 -33t-20 -17q-74 0 -146.5 -36.5t-126.5 -99t-75 -136.5q-11 -42 -11 -77q0 -84 54.5 -135.5t143.5 -51.5q74 0 147 36t127.5 98.5t76.5 137.5l113 395q21 76 84.5 144t148 109t164.5 40q13 0 13 -18
q0 -17 -9.5 -34.5t-20.5 -17.5q-1 -1 -6 -4t-10.5 -9t-7.5 -13l-208 -723q-2 -12 -2 -17q0 -19 12 -30t32 -10q13 0 13 -19q0 -17 -8.5 -34t-18.5 -17q-43 1 -72 30t-29 72q0 16 5 33l71 252q2 8 2 11q0 11 -7 17t-20 6h-96q-26 0 -33 -25l-42 -146q-26 -90 -93 -167
t-157 -122t-180 -45q-75 0 -133.5 32zM840 360q26 0 33 25l85 296q2 8 2 11q0 9 -5 14.5t-13 5.5t-15 -4q-64 -32 -111.5 -84t-63.5 -110l-34 -120q-2 -8 -2 -10q0 -11 7.5 -17.5t20.5 -6.5h96z" />
    <glyph glyph-name="Aring" unicode="&#xc5;" horiz-adv-x="639" 
d="M428 774q0 -34 -14.5 -58t-39.5 -36l264 -680h-93l-86 221h-283l-85 -221h-91l263 677q-26 12 -40.5 36.5t-14.5 59.5q0 48 29.5 76.5t79.5 28.5t80.5 -29t30.5 -75zM432 301l-80 216l-34 107q-15 -59 -31 -107l-81 -216h226zM373 773q0 26 -16 41t-40 15t-40 -15
t-16 -41t14.5 -41t41.5 -15q25 0 40.5 15t15.5 41z" />
    <glyph glyph-name="AE" unicode="&#xc6;" horiz-adv-x="880" 
d="M821 0h-372v221h-250l-107 -221h-93l339 714h483v-79h-282v-223h263v-78h-263v-255h282v-79zM234 301h215v333h-58z" />
    <glyph glyph-name="Ccedilla" unicode="&#xc7;" horiz-adv-x="631" 
d="M-23 170l125 436q15 55 57.5 103t99.5 77t112 29q71 0 117 -45.5t46 -115.5q0 -32 -8 -56q-13 -47 -57.5 -82t-91.5 -35q-40 0 -67.5 27t-27.5 67q0 10 4 30q2 6 11 10t20 4q9 0 18 -3t13 -8q1 -1 2.5 -3t2.5 -6q1 -2 1 -6l-1 -10q0 -15 9.5 -23.5t25.5 -8.5q22 0 42 16
t28 39q6 21 6 41q0 44 -29 71t-76 27q-40 0 -79.5 -20t-69 -53.5t-40.5 -73.5l-125 -436q-10 -40 -10 -67q0 -82 47 -123.5t120 -41.5q62 0 128 29.5t117.5 84t73.5 126.5q6 23 6 42q0 46 -30.5 73.5t-79.5 26.5q-14 0 -14 19q0 17 9.5 34t20.5 17q47 0 85 -21.5t59 -58.5
t21 -83q0 -28 -9 -57q-26 -92 -89.5 -160t-145 -104t-160.5 -36q-65 0 -117 25t-82.5 75.5t-30.5 125.5q0 38 13 82zM464 -139q0 -48 -37 -74.5t-111 -26.5q-32 0 -50 5v55q18 -5 53 -5q37 0 55.5 9.5t18.5 34.5q0 43 -91 55l43 86h58l-26 -53q87 -19 87 -86z" />
    <glyph glyph-name="Egrave" unicode="&#xc8;" horiz-adv-x="556" 
d="M79.5 -111.5q-53.5 29.5 -84 81.5t-30.5 118q0 73 37.5 145t100.5 128.5t138 85.5q-21 21 -32 50t-11 61q0 64 40 124t102.5 96.5t125.5 36.5q69 0 113.5 -44t44.5 -112q0 -45 -22 -84.5t-58.5 -63t-76.5 -23.5t-67.5 27t-27.5 67q0 10 4 30q2 7 11.5 11t20.5 4
q23 0 30 -12q4 -6 4.5 -10t0.5 -8v-7q0 -15 9.5 -23.5t25.5 -8.5q33 0 54 27t21 67q0 42 -27 67.5t-72 25.5t-88 -25.5t-70 -67t-27 -86.5q0 -43 27 -69t73 -25q14 0 14 -20q0 -16 -9 -33t-20 -17q-79 0 -152.5 -45t-119.5 -116.5t-46 -145.5t48.5 -120t127.5 -46
q72 0 146 42.5t122 108.5t48 132q0 45 -29.5 72.5t-77.5 27.5q-41 0 -81 -20t-70 -54t-42 -74q-2 -8 -13.5 -12t-25.5 -4q-15 0 -24.5 5t-6.5 15q16 57 58.5 106t100.5 78.5t115 29.5h1q47 0 85 -21.5t59.5 -58.5t21.5 -83q0 -85 -60.5 -169t-154 -137.5t-184.5 -53.5
q-67 0 -120.5 29.5zM354 771h-59q-37 29 -80.5 76t-61.5 74v10h105q16 -32 44.5 -76.5t51.5 -71.5v-12z" />
    <glyph glyph-name="Eacute" unicode="&#xc9;" horiz-adv-x="556" 
d="M79.5 -111.5q-53.5 29.5 -84 81.5t-30.5 118q0 73 37.5 145t100.5 128.5t138 85.5q-21 21 -32 50t-11 61q0 64 40 124t102.5 96.5t125.5 36.5q69 0 113.5 -44t44.5 -112q0 -45 -22 -84.5t-58.5 -63t-76.5 -23.5t-67.5 27t-27.5 67q0 10 4 30q2 7 11.5 11t20.5 4
q23 0 30 -12q4 -6 4.5 -10t0.5 -8v-7q0 -15 9.5 -23.5t25.5 -8.5q33 0 54 27t21 67q0 42 -27 67.5t-72 25.5t-88 -25.5t-70 -67t-27 -86.5q0 -43 27 -69t73 -25q14 0 14 -20q0 -16 -9 -33t-20 -17q-79 0 -152.5 -45t-119.5 -116.5t-46 -145.5t48.5 -120t127.5 -46
q72 0 146 42.5t122 108.5t48 132q0 45 -29.5 72.5t-77.5 27.5q-41 0 -81 -20t-70 -54t-42 -74q-2 -8 -13.5 -12t-25.5 -4q-15 0 -24.5 5t-6.5 15q16 57 58.5 106t100.5 78.5t115 29.5h1q47 0 85 -21.5t59.5 -58.5t21.5 -83q0 -85 -60.5 -169t-154 -137.5t-184.5 -53.5
q-67 0 -120.5 29.5zM221 783q19 23 47.5 66.5t47.5 81.5h106v-10q-21 -31 -66.5 -78.5t-76.5 -71.5h-58v12z" />
    <glyph glyph-name="Ecircumflex" unicode="&#xca;" horiz-adv-x="556" 
d="M125 782q61 65 86 96.5t37 52.5h90q25 -49 125 -149v-11h-62q-44 26 -109 90q-64 -62 -107 -90h-60v11zM79.5 -111.5q-53.5 29.5 -84 81.5t-30.5 118q0 73 37.5 145t100.5 128.5t138 85.5q-21 21 -32 50t-11 61q0 64 40 124t102.5 96.5t125.5 36.5q69 0 113.5 -44
t44.5 -112q0 -45 -22 -84.5t-58.5 -63t-76.5 -23.5t-67.5 27t-27.5 67q0 10 4 30q2 7 11.5 11t20.5 4q23 0 30 -12q4 -6 4.5 -10t0.5 -8v-7q0 -15 9.5 -23.5t25.5 -8.5q33 0 54 27t21 67q0 42 -27 67.5t-72 25.5t-88 -25.5t-70 -67t-27 -86.5q0 -43 27 -69t73 -25
q14 0 14 -20q0 -16 -9 -33t-20 -17q-79 0 -152.5 -45t-119.5 -116.5t-46 -145.5t48.5 -120t127.5 -46q72 0 146 42.5t122 108.5t48 132q0 45 -29.5 72.5t-77.5 27.5q-41 0 -81 -20t-70 -54t-42 -74q-2 -8 -13.5 -12t-25.5 -4q-15 0 -24.5 5t-6.5 15q16 57 58.5 106
t100.5 78.5t115 29.5h1q47 0 85 -21.5t59.5 -58.5t21.5 -83q0 -85 -60.5 -169t-154 -137.5t-184.5 -53.5q-67 0 -120.5 29.5z" />
    <glyph glyph-name="Edieresis" unicode="&#xcb;" horiz-adv-x="556" 
d="M79.5 -111.5q-53.5 29.5 -84 81.5t-30.5 118q0 73 37.5 145t100.5 128.5t138 85.5q-21 21 -32 50t-11 61q0 64 40 124t102.5 96.5t125.5 36.5q69 0 113.5 -44t44.5 -112q0 -45 -22 -84.5t-58.5 -63t-76.5 -23.5t-67.5 27t-27.5 67q0 10 4 30q2 7 11.5 11t20.5 4
q23 0 30 -12q4 -6 4.5 -10t0.5 -8v-7q0 -15 9.5 -23.5t25.5 -8.5q33 0 54 27t21 67q0 42 -27 67.5t-72 25.5t-88 -25.5t-70 -67t-27 -86.5q0 -43 27 -69t73 -25q14 0 14 -20q0 -16 -9 -33t-20 -17q-79 0 -152.5 -45t-119.5 -116.5t-46 -145.5t48.5 -120t127.5 -46
q72 0 146 42.5t122 108.5t48 132q0 45 -29.5 72.5t-77.5 27.5q-41 0 -81 -20t-70 -54t-42 -74q-2 -8 -13.5 -12t-25.5 -4q-15 0 -24.5 5t-6.5 15q16 57 58.5 106t100.5 78.5t115 29.5h1q47 0 85 -21.5t59.5 -58.5t21.5 -83q0 -85 -60.5 -169t-154 -137.5t-184.5 -53.5
q-67 0 -120.5 29.5zM156 846q0 26 13.5 37.5t33.5 11.5q19 0 33 -11.5t14 -37.5t-14 -38t-33 -12q-20 0 -33.5 12t-13.5 38zM344 846q0 26 13.5 37.5t32.5 11.5t33 -11.5t14 -37.5t-14 -38t-33 -12t-32.5 12t-13.5 38z" />
    <glyph glyph-name="Igrave" unicode="&#xcc;" horiz-adv-x="338" 
d="M75.5 -183q-58.5 32 -91.5 89t-33 130q0 44 14 91q26 90 93.5 167t157.5 122t180 45q14 0 14 -20q0 -16 -9 -33t-20 -17q-74 0 -146.5 -36.5t-126.5 -99t-75 -136.5q-11 -42 -11 -77q0 -84 54.5 -135.5t143.5 -51.5q74 0 147 36t127.5 98.5t76.5 137.5l161 563q5 15 7 19
q4 9 4 18q0 17 -25 16q-123 -11 -211.5 -78t-120.5 -170q-3 -8 -13.5 -12t-23.5 -4q-15 0 -25.5 5.5t-7.5 14.5q26 89 93.5 161t157.5 113.5t182 41.5h146q14 0 14 -18q0 -16 -10 -33.5t-21 -18.5q-25 -1 -48 -19.5t-30 -43.5l-161 -563q-26 -90 -93 -167t-157 -122
t-180 -45q-75 0 -133.5 32zM230 771h-59q-37 29 -80.5 76t-61.5 74v10h105q16 -32 44.5 -76.5t51.5 -71.5v-12z" />
    <glyph glyph-name="Iacute" unicode="&#xcd;" horiz-adv-x="338" 
d="M75.5 -183q-58.5 32 -91.5 89t-33 130q0 44 14 91q26 90 93.5 167t157.5 122t180 45q14 0 14 -20q0 -16 -9 -33t-20 -17q-74 0 -146.5 -36.5t-126.5 -99t-75 -136.5q-11 -42 -11 -77q0 -84 54.5 -135.5t143.5 -51.5q74 0 147 36t127.5 98.5t76.5 137.5l161 563q5 15 7 19
q4 9 4 18q0 17 -25 16q-123 -11 -211.5 -78t-120.5 -170q-3 -8 -13.5 -12t-23.5 -4q-15 0 -25.5 5.5t-7.5 14.5q26 89 93.5 161t157.5 113.5t182 41.5h146q14 0 14 -18q0 -16 -10 -33.5t-21 -18.5q-25 -1 -48 -19.5t-30 -43.5l-161 -563q-26 -90 -93 -167t-157 -122
t-180 -45q-75 0 -133.5 32zM115 783q19 23 47.5 66.5t47.5 81.5h106v-10q-21 -31 -66.5 -78.5t-76.5 -71.5h-58v12z" />
    <glyph glyph-name="Icircumflex" unicode="&#xce;" horiz-adv-x="338" 
d="M-1 782q61 65 86 96.5t37 52.5h90q25 -49 125 -149v-11h-62q-44 26 -109 90q-64 -62 -107 -90h-60v11zM75.5 -183q-58.5 32 -91.5 89t-33 130q0 44 14 91q26 90 93.5 167t157.5 122t180 45q14 0 14 -20q0 -16 -9 -33t-20 -17q-74 0 -146.5 -36.5t-126.5 -99t-75 -136.5
q-11 -42 -11 -77q0 -84 54.5 -135.5t143.5 -51.5q74 0 147 36t127.5 98.5t76.5 137.5l161 563q5 15 7 19q4 9 4 18q0 17 -25 16q-123 -11 -211.5 -78t-120.5 -170q-3 -8 -13.5 -12t-23.5 -4q-15 0 -25.5 5.5t-7.5 14.5q26 89 93.5 161t157.5 113.5t182 41.5h146q14 0 14 -18
q0 -16 -10 -33.5t-21 -18.5q-25 -1 -48 -19.5t-30 -43.5l-161 -563q-26 -90 -93 -167t-157 -122t-180 -45q-75 0 -133.5 32z" />
    <glyph glyph-name="Idieresis" unicode="&#xcf;" horiz-adv-x="338" 
d="M75.5 -183q-58.5 32 -91.5 89t-33 130q0 44 14 91q26 90 93.5 167t157.5 122t180 45q14 0 14 -20q0 -16 -9 -33t-20 -17q-74 0 -146.5 -36.5t-126.5 -99t-75 -136.5q-11 -42 -11 -77q0 -84 54.5 -135.5t143.5 -51.5q74 0 147 36t127.5 98.5t76.5 137.5l161 563q5 15 7 19
q4 9 4 18q0 17 -25 16q-123 -11 -211.5 -78t-120.5 -170q-3 -8 -13.5 -12t-23.5 -4q-15 0 -25.5 5.5t-7.5 14.5q26 89 93.5 161t157.5 113.5t182 41.5h146q14 0 14 -18q0 -16 -10 -33.5t-21 -18.5q-25 -1 -48 -19.5t-30 -43.5l-161 -563q-26 -90 -93 -167t-157 -122
t-180 -45q-75 0 -133.5 32zM29 846q0 26 13.5 37.5t33.5 11.5q19 0 33 -11.5t14 -37.5t-14 -38t-33 -12q-20 0 -33.5 12t-13.5 38zM217 846q0 26 13.5 37.5t32.5 11.5t33 -11.5t14 -37.5t-14 -38t-33 -12t-32.5 12t-13.5 38z" />
    <glyph glyph-name="Eth" unicode="&#xd0;" horiz-adv-x="729" 
d="M669 364q0 -175 -96 -269.5t-278 -94.5h-191v314h-74v78h74v322h213q167 0 259.5 -92t92.5 -258zM574 361q0 137 -68 206.5t-202 69.5h-110v-245h178v-78h-178v-237h90q290 0 290 284z" />
    <glyph glyph-name="Ntilde" unicode="&#xd1;" horiz-adv-x="759" 
d="M459 772q-21 0 -41 9t-39.5 19.5t-37 19.5t-34.5 9q-24 0 -36 -14.5t-19 -43.5h-51q6 60 34 94t76 34q22 0 42.5 -9t39.5 -19.5t37 -19.5t33 -9q23 0 35.5 14.5t19.5 43.5h50q-6 -58 -34 -93t-75 -35zM875 -108.5q-28 31.5 -28 77.5q0 21 5 35l179 622q4 15 4 32
q0 30 -16 52q-24 35 -73 35q-52 0 -101 -38q-48 -37 -62 -89l-178 -620q-2 -8 -13 -12t-25 -4q-16 0 -25.5 5t-6.5 15l174 605l5 18l16 54q11 42 11 77q0 85 -53.5 136.5t-142.5 52.5q-75 0 -148 -36.5t-127.5 -98.5t-76.5 -136q-11 -42 -11 -77q0 -85 55 -137t144 -51
q14 0 14 -20q0 -17 -8.5 -33.5t-19.5 -16.5q-74 0 -132.5 32t-91.5 89t-33 130q0 44 14 91q26 89 94 166t158 122.5t180 45.5q68 0 122.5 -27.5t88.5 -76.5t42 -113q3 -22 16 -22q7 0 16 6q60 33 117 33q38 0 70 -15t52 -43q27 -37 27 -87q0 -25 -8 -52l-179 -622
q-2 -14 -2 -19q0 -22 12 -36t31 -12q13 1 13 -17q0 -16 -9.5 -34.5t-19.5 -18.5q-42 1 -70 32.5z" />
    <glyph glyph-name="Ograve" unicode="&#xd2;" horiz-adv-x="780" 
d="M23.5 -110.5q-37.5 20.5 -58.5 57t-21 82.5q0 29 9 57l149 520q15 55 57.5 103t99.5 77t112 29q71 0 117 -45.5t46 -115.5q0 -32 -8 -56l-149 -520q-16 -55 -58.5 -103.5t-99 -77t-111.5 -28.5q-47 0 -84.5 20.5zM198.5 -41q39.5 20 69.5 53.5t41 73.5l149 520q6 21 6 41
q0 44 -29 71t-76 27q-40 0 -79.5 -20t-69 -53.5t-40.5 -73.5l-149 -520q-6 -22 -6 -41q0 -44 28.5 -71t75.5 -27q40 0 79.5 20zM448 771h-59q-37 29 -80.5 76t-61.5 74v10h105q16 -32 44.5 -76.5t51.5 -71.5v-12z" />
    <glyph glyph-name="Oacute" unicode="&#xd3;" horiz-adv-x="780" 
d="M23.5 -110.5q-37.5 20.5 -58.5 57t-21 82.5q0 29 9 57l149 520q15 55 57.5 103t99.5 77t112 29q71 0 117 -45.5t46 -115.5q0 -32 -8 -56l-149 -520q-16 -55 -58.5 -103.5t-99 -77t-111.5 -28.5q-47 0 -84.5 20.5zM198.5 -41q39.5 20 69.5 53.5t41 73.5l149 520q6 21 6 41
q0 44 -29 71t-76 27q-40 0 -79.5 -20t-69 -53.5t-40.5 -73.5l-149 -520q-6 -22 -6 -41q0 -44 28.5 -71t75.5 -27q40 0 79.5 20zM321 783q19 23 47.5 66.5t47.5 81.5h106v-10q-21 -31 -66.5 -78.5t-76.5 -71.5h-58v12z" />
    <glyph glyph-name="Ocircumflex" unicode="&#xd4;" horiz-adv-x="780" 
d="M215 782q61 65 86 96.5t37 52.5h90q25 -49 125 -149v-11h-62q-44 26 -109 90q-64 -62 -107 -90h-60v11zM23.5 -110.5q-37.5 20.5 -58.5 57t-21 82.5q0 29 9 57l149 520q15 55 57.5 103t99.5 77t112 29q71 0 117 -45.5t46 -115.5q0 -32 -8 -56l-149 -520
q-16 -55 -58.5 -103.5t-99 -77t-111.5 -28.5q-47 0 -84.5 20.5zM198.5 -41q39.5 20 69.5 53.5t41 73.5l149 520q6 21 6 41q0 44 -29 71t-76 27q-40 0 -79.5 -20t-69 -53.5t-40.5 -73.5l-149 -520q-6 -22 -6 -41q0 -44 28.5 -71t75.5 -27q40 0 79.5 20z" />
    <glyph glyph-name="Otilde" unicode="&#xd5;" horiz-adv-x="780" 
d="M461 772q-21 0 -41 9t-39.5 19.5t-37 19.5t-34.5 9q-24 0 -36 -14.5t-19 -43.5h-51q6 60 34 94t76 34q22 0 42.5 -9t39.5 -19.5t37 -19.5t33 -9q23 0 35.5 14.5t19.5 43.5h50q-6 -58 -34 -93t-75 -35zM23.5 -110.5q-37.5 20.5 -58.5 57t-21 82.5q0 29 9 57l149 520
q15 55 57.5 103t99.5 77t112 29q71 0 117 -45.5t46 -115.5q0 -32 -8 -56l-149 -520q-16 -55 -58.5 -103.5t-99 -77t-111.5 -28.5q-47 0 -84.5 20.5zM198.5 -41q39.5 20 69.5 53.5t41 73.5l149 520q6 21 6 41q0 44 -29 71t-76 27q-40 0 -79.5 -20t-69 -53.5t-40.5 -73.5
l-149 -520q-6 -22 -6 -41q0 -44 28.5 -71t75.5 -27q40 0 79.5 20z" />
    <glyph glyph-name="Odieresis" unicode="&#xd6;" horiz-adv-x="530" 
d="M496 883q-11 -4 -26 -4t-24.5 5t-6.5 15l12 42q2 8 13 12t25 4q15 0 25 -5t7 -15l-12 -42q-2 -8 -13 -12zM356 883q-11 -4 -26 -4t-24.5 5t-6.5 15l12 42q2 8 13 12t25 4q15 0 25 -5t7 -15l-12 -42q-2 -8 -13 -12zM23.5 -110.5q-37.5 20.5 -58.5 57t-21 82.5q0 29 9 57
l149 520q15 55 57.5 103t99.5 77t112 29q71 0 117 -45.5t46 -115.5q0 -32 -8 -56l-149 -520q-16 -55 -58.5 -103.5t-99 -77t-111.5 -28.5q-47 0 -84.5 20.5zM198.5 -41q39.5 20 69.5 53.5t41 73.5l149 520q6 21 6 41q0 44 -29 71t-76 27q-40 0 -79.5 -20t-69 -53.5
t-40.5 -73.5l-149 -520q-6 -22 -6 -41q0 -44 28.5 -71t75.5 -27q40 0 79.5 20z" />
    <glyph glyph-name="multiply" unicode="&#xd7;" horiz-adv-x="463" 
d="M120 202q-12 0 -23.5 16t-11.5 29q0 8 5 11l95 74q13 10 13 23q0 11 -7 19l-50 71q-6 8 2 20t22 21.5t25 9.5q8 0 11 -5l50 -69q9 -14 23 -14q9 0 19 8l106 82q3 3 8 3q11 0 23 -15.5t12 -28.5q0 -6 -5 -11l-107 -84q-13 -10 -13 -23q0 -9 7 -19l50 -69q6 -8 -2 -20
t-22.5 -21.5t-25.5 -9.5q-8 0 -11 5l-48 68q-9 14 -23 14q-9 0 -19 -8l-95 -74q-4 -3 -8 -3z" />
    <glyph glyph-name="Oslash" unicode="&#xd8;" horiz-adv-x="780" 
d="M720 358q0 -171 -86.5 -269.5t-242.5 -98.5q-113 0 -185 47l-48 -68l-61 40l52 74q-88 97 -88 276q0 174 85.5 270t245.5 96q100 0 178 -45l46 66l61 -41l-51 -71q94 -99 94 -276zM625 358q0 129 -51 202l-320 -454q56 -38 137 -38q115 0 174.5 73t59.5 217zM156 358
q0 -126 47 -198l319 451q-53 35 -130 35q-116 0 -176 -73.5t-60 -214.5z" />
    <glyph glyph-name="Ugrave" unicode="&#xd9;" horiz-adv-x="730" 
d="M630.5 -110.5q-37.5 20.5 -58.5 57t-21 82.5q0 29 9 57l170 593q11 42 11 77q0 85 -53.5 136.5t-142.5 52.5q-75 0 -148 -36.5t-127.5 -98.5t-76.5 -136q-11 -42 -11 -77q0 -85 55 -137t144 -51q14 0 14 -20q0 -17 -8.5 -33.5t-19.5 -16.5q-74 0 -132.5 32t-91.5 89
t-33 130q0 44 14 91q26 89 94 166t158 122.5t180 45.5q74 0 132.5 -32.5t91 -90t32.5 -130.5q0 -44 -14 -92l-170 -592q-6 -22 -6 -41q0 -44 28.5 -71t75.5 -27q40 0 79.5 20t69.5 53.5t41 73.5l172 601q9 32 37.5 62.5t66 48.5t72.5 17q6 0 9 -5.5t3 -14.5q0 -17 -8.5 -33
t-21.5 -17q-28 -1 -55 -21t-35 -45l-172 -601q-16 -55 -58.5 -103.5t-99 -77t-111.5 -28.5q-47 0 -84.5 20.5zM422 771h-59q-37 29 -80.5 76t-61.5 74v10h105q16 -32 44.5 -76.5t51.5 -71.5v-12z" />
    <glyph glyph-name="Uacute" unicode="&#xda;" horiz-adv-x="730" 
d="M630.5 -110.5q-37.5 20.5 -58.5 57t-21 82.5q0 29 9 57l170 593q11 42 11 77q0 85 -53.5 136.5t-142.5 52.5q-75 0 -148 -36.5t-127.5 -98.5t-76.5 -136q-11 -42 -11 -77q0 -85 55 -137t144 -51q14 0 14 -20q0 -17 -8.5 -33.5t-19.5 -16.5q-74 0 -132.5 32t-91.5 89
t-33 130q0 44 14 91q26 89 94 166t158 122.5t180 45.5q74 0 132.5 -32.5t91 -90t32.5 -130.5q0 -44 -14 -92l-170 -592q-6 -22 -6 -41q0 -44 28.5 -71t75.5 -27q40 0 79.5 20t69.5 53.5t41 73.5l172 601q9 32 37.5 62.5t66 48.5t72.5 17q6 0 9 -5.5t3 -14.5q0 -17 -8.5 -33
t-21.5 -17q-28 -1 -55 -21t-35 -45l-172 -601q-16 -55 -58.5 -103.5t-99 -77t-111.5 -28.5q-47 0 -84.5 20.5zM293 783q19 23 47.5 66.5t47.5 81.5h106v-10q-21 -31 -66.5 -78.5t-76.5 -71.5h-58v12z" />
    <glyph glyph-name="Ucircumflex" unicode="&#xdb;" horiz-adv-x="730" 
d="M189 782q61 65 86 96.5t37 52.5h90q25 -49 125 -149v-11h-62q-44 26 -109 90q-64 -62 -107 -90h-60v11zM630.5 -110.5q-37.5 20.5 -58.5 57t-21 82.5q0 29 9 57l170 593q11 42 11 77q0 85 -53.5 136.5t-142.5 52.5q-75 0 -148 -36.5t-127.5 -98.5t-76.5 -136
q-11 -42 -11 -77q0 -85 55 -137t144 -51q14 0 14 -20q0 -17 -8.5 -33.5t-19.5 -16.5q-74 0 -132.5 32t-91.5 89t-33 130q0 44 14 91q26 89 94 166t158 122.5t180 45.5q74 0 132.5 -32.5t91 -90t32.5 -130.5q0 -44 -14 -92l-170 -592q-6 -22 -6 -41q0 -44 28.5 -71t75.5 -27
q40 0 79.5 20t69.5 53.5t41 73.5l172 601q9 32 37.5 62.5t66 48.5t72.5 17q6 0 9 -5.5t3 -14.5q0 -17 -8.5 -33t-21.5 -17q-28 -1 -55 -21t-35 -45l-172 -601q-16 -55 -58.5 -103.5t-99 -77t-111.5 -28.5q-47 0 -84.5 20.5z" />
    <glyph glyph-name="Udieresis" unicode="&#xdc;" horiz-adv-x="1166" 
d="M1106 883q-11 -4 -26 -4t-24.5 5t-6.5 15l12 42q2 8 13 12t25 4q15 0 25 -5t7 -15l-12 -42q-2 -8 -13 -12zM966 883q-11 -4 -26 -4t-24.5 5t-6.5 15l12 42q2 8 13 12t25 4q15 0 25 -5t7 -15l-12 -42q-2 -8 -13 -12zM630.5 -110.5q-37.5 20.5 -58.5 57t-21 82.5q0 29 9 57
l170 593q11 42 11 77q0 85 -53.5 136.5t-142.5 52.5q-75 0 -148 -36.5t-127.5 -98.5t-76.5 -136q-11 -42 -11 -77q0 -85 55 -137t144 -51q14 0 14 -20q0 -17 -8.5 -33.5t-19.5 -16.5q-74 0 -132.5 32t-91.5 89t-33 130q0 44 14 91q26 89 94 166t158 122.5t180 45.5
q74 0 132.5 -32.5t91 -90t32.5 -130.5q0 -44 -14 -92l-170 -592q-6 -22 -6 -41q0 -44 28.5 -71t75.5 -27q40 0 79.5 20t69.5 53.5t41 73.5l172 601q9 32 37.5 62.5t66 48.5t72.5 17q6 0 9 -5.5t3 -14.5q0 -17 -8.5 -33t-21.5 -17q-28 -1 -55 -21t-35 -45l-172 -601
q-16 -55 -58.5 -103.5t-99 -77t-111.5 -28.5q-47 0 -84.5 20.5z" />
    <glyph glyph-name="Yacute" unicode="&#xdd;" horiz-adv-x="565" 
d="M606.5 -194.5q-37.5 20.5 -58.5 57t-21 82.5q0 26 8 56q2 7 13.5 11t25.5 4q15 0 24.5 -5t6.5 -15q-7 -22 -7 -44q0 -44 28.5 -70.5t75.5 -26.5q40 0 79.5 20t69 53.5t41.5 73.5l25 88l2 12q0 16 -14 16q-6 0 -18 -5q-58 -28 -110 -28q-47 0 -84.5 20.5t-58.5 57
t-21 82.5q0 29 9 57l108 377q11 42 11 77q0 85 -53.5 136.5t-142.5 52.5q-75 0 -148 -36.5t-127.5 -98.5t-76.5 -136q-11 -42 -11 -77q0 -85 55 -137t144 -51q14 0 14 -20q0 -17 -8.5 -33.5t-19.5 -16.5q-74 0 -132.5 32t-91.5 89t-33 130q0 44 14 91q26 89 94 166
t158 122.5t180 45.5q74 0 132.5 -32.5t91 -90t32.5 -130.5q0 -44 -14 -92l-108 -376q-6 -22 -6 -42q0 -44 28.5 -70.5t75.5 -26.5q40 0 79.5 20t69 53.5t41.5 73.5l110 385q9 32 37.5 62.5t66 48.5t72.5 17q6 0 9 -5.5t3 -14.5q0 -17 -8.5 -33t-21.5 -17q-28 -1 -55 -21
t-35 -45l-196 -685q-16 -55 -58.5 -103.5t-99 -77t-111.5 -28.5q-47 0 -84.5 20.5zM216 783q19 23 47.5 66.5t47.5 81.5h106v-10q-21 -31 -66.5 -78.5t-76.5 -71.5h-58v12z" />
    <glyph glyph-name="Thorn" unicode="&#xde;" horiz-adv-x="604" 
d="M554 382q0 -110 -73.5 -168.5t-212.5 -58.5h-81v-155h-90v714h90v-124h96q137 0 204 -51.5t67 -156.5zM187 231h72q108 0 155 34.5t47 111.5q0 70 -44.5 103t-140.5 33h-89v-282z" />
    <glyph glyph-name="germandbls" unicode="&#xdf;" horiz-adv-x="691" 
d="M222 -476l-2 -20q-6 -7 -24 -6q-40 2 -42 10l-3 18q25 1001 176 1310q26 51 94 73q59 18 121 -16q55 -30 92 -92q38 -62 44 -134q7 -72 -24 -128q-15 -28 -39 -48q-23 -21 -52 -29q52 -61 80 -141t27 -161q-2 -81 -37 -145q-31 -58 -83 -89t-113 -32q-61 0 -120 32
q-79 44 -136 136q-56 91 -69 194t28 177q22 41 58 63q37 22 80 23q45 0 85 -22l1 -1q51 -27 87 -80q37 -54 51 -118q14 -63 0 -121q-2 -10 -13 -10q-10 1 -24 8q-12 6 -20 15t-6 17q9 41 -1.5 85.5t-35.5 80.5q-26 37 -62 57q-42 23 -81 13t-60 -50q-32 -58 -22 -139
q11 -81 56 -153q44 -73 107 -108q70 -37 134 -20q65 17 100 82q36 65 30 150q-6 84 -49 159t-113 113q-9 5 -9 24t8 33q9 18 22 11q42 -23 76 -13q37 12 56 48q22 39 18 89q-4 49 -29 92q-26 43 -65 65q-34 18 -76 12t-56 -39q-152 -348 -165 -1275z" />
    <glyph glyph-name="agrave" unicode="&#xe0;" horiz-adv-x="561" 
d="M-13 14q-29 29 -29 72q0 20 5 34l76 267q10 34 36 63.5t60.5 47t67.5 17.5q20 0 39 -8q7 -3 13 -3t13 4t9 5q11 6 26 6q14 0 23.5 -6t7.5 -15l-111 -386q-2 -7 -2 -18q0 -18 11.5 -28.5t30.5 -10.5q27 0 51 18t33 45q3 8 13.5 12.5t23.5 4.5q15 0 25.5 -5.5t7.5 -14.5
q-9 -34 -35.5 -64t-61.5 -48t-69 -18q-37 0 -66 24q-12 10 -22 10q-9 0 -22 -8q-42 -26 -82 -26q-43 0 -72 29zM122.5 74q24.5 19 32.5 46l76 267q2 12 2 18q0 18 -11.5 29t-30.5 11q-27 0 -51.5 -19t-32.5 -47l-76 -267q-3 -10 -3 -19q0 -17 11.5 -27.5t31.5 -10.5
q27 0 51.5 19zM335 606h-59q-37 29 -80.5 76t-61.5 74v10h105q16 -32 44.5 -76.5t51.5 -71.5v-12z" />
    <glyph glyph-name="aacute" unicode="&#xe1;" horiz-adv-x="561" 
d="M-13 14q-29 29 -29 72q0 20 5 34l76 267q10 34 36 63.5t60.5 47t67.5 17.5q20 0 39 -8q7 -3 13 -3t13 4t9 5q11 6 26 6q14 0 23.5 -6t7.5 -15l-111 -386q-2 -7 -2 -18q0 -18 11.5 -28.5t30.5 -10.5q27 0 51 18t33 45q3 8 13.5 12.5t23.5 4.5q15 0 25.5 -5.5t7.5 -14.5
q-9 -34 -35.5 -64t-61.5 -48t-69 -18q-37 0 -66 24q-12 10 -22 10q-9 0 -22 -8q-42 -26 -82 -26q-43 0 -72 29zM122.5 74q24.5 19 32.5 46l76 267q2 12 2 18q0 18 -11.5 29t-30.5 11q-27 0 -51.5 -19t-32.5 -47l-76 -267q-3 -10 -3 -19q0 -17 11.5 -27.5t31.5 -10.5
q27 0 51.5 19zM213 618q19 23 47.5 66.5t47.5 81.5h106v-10q-21 -31 -66.5 -78.5t-76.5 -71.5h-58v12z" />
    <glyph glyph-name="acircumflex" unicode="&#xe2;" horiz-adv-x="561" 
d="M109 617q61 65 86 96.5t37 52.5h90q25 -49 125 -149v-11h-62q-44 26 -109 90q-64 -62 -107 -90h-60v11zM-13 14q-29 29 -29 72q0 20 5 34l76 267q10 34 36 63.5t60.5 47t67.5 17.5q20 0 39 -8q7 -3 13 -3t13 4t9 5q11 6 26 6q14 0 23.5 -6t7.5 -15l-111 -386
q-2 -7 -2 -18q0 -18 11.5 -28.5t30.5 -10.5q27 0 51 18t33 45q3 8 13.5 12.5t23.5 4.5q15 0 25.5 -5.5t7.5 -14.5q-9 -34 -35.5 -64t-61.5 -48t-69 -18q-37 0 -66 24q-12 10 -22 10q-9 0 -22 -8q-42 -26 -82 -26q-43 0 -72 29zM122.5 74q24.5 19 32.5 46l76 267q2 12 2 18
q0 18 -11.5 29t-30.5 11q-27 0 -51.5 -19t-32.5 -47l-76 -267q-3 -10 -3 -19q0 -17 11.5 -27.5t31.5 -10.5q27 0 51.5 19z" />
    <glyph glyph-name="atilde" unicode="&#xe3;" horiz-adv-x="561" 
d="M356 607q-21 0 -41 9t-39.5 19.5t-37 19.5t-34.5 9q-24 0 -36 -14.5t-19 -43.5h-51q6 60 34 94t76 34q22 0 42.5 -9t39.5 -19.5t37 -19.5t33 -9q23 0 35.5 14.5t19.5 43.5h50q-6 -58 -34 -93t-75 -35zM-13 14q-29 29 -29 72q0 20 5 34l76 267q10 34 36 63.5t60.5 47
t67.5 17.5q20 0 39 -8q7 -3 13 -3t13 4t9 5q11 6 26 6q14 0 23.5 -6t7.5 -15l-111 -386q-2 -7 -2 -18q0 -18 11.5 -28.5t30.5 -10.5q27 0 51 18t33 45q3 8 13.5 12.5t23.5 4.5q15 0 25.5 -5.5t7.5 -14.5q-9 -34 -35.5 -64t-61.5 -48t-69 -18q-37 0 -66 24q-12 10 -22 10
q-9 0 -22 -8q-42 -26 -82 -26q-43 0 -72 29zM122.5 74q24.5 19 32.5 46l76 267q2 12 2 18q0 18 -11.5 29t-30.5 11q-27 0 -51.5 -19t-32.5 -47l-76 -267q-3 -10 -3 -19q0 -17 11.5 -27.5t31.5 -10.5q27 0 51.5 19z" />
    <glyph glyph-name="adieresis" unicode="&#xe4;" horiz-adv-x="385" 
d="M316 553q-11 -4 -26 -4t-24.5 5t-6.5 15l12 42q2 8 13 12t25 4q15 0 25 -5t7 -15l-12 -42q-2 -8 -13 -12zM176 553q-11 -4 -26 -4t-24.5 5t-6.5 15l12 42q2 8 13 12t25 4q15 0 25 -5t7 -15l-12 -42q-2 -8 -13 -12zM-13 14q-29 29 -29 72q0 20 5 34l76 267q10 34 36 63.5
t60.5 47t67.5 17.5q20 0 39 -8q7 -3 13 -3t13 4t9 5q11 6 26 6q14 0 23.5 -6t7.5 -15l-111 -386q-2 -7 -2 -18q0 -18 11.5 -28.5t30.5 -10.5q27 0 51 18t33 45q3 8 13.5 12.5t23.5 4.5q15 0 25.5 -5.5t7.5 -14.5q-9 -34 -35.5 -64t-61.5 -48t-69 -18q-37 0 -66 24
q-12 10 -22 10q-9 0 -22 -8q-42 -26 -82 -26q-43 0 -72 29zM122.5 74q24.5 19 32.5 46l76 267q2 12 2 18q0 18 -11.5 29t-30.5 11q-27 0 -51.5 -19t-32.5 -47l-76 -267q-3 -10 -3 -19q0 -17 11.5 -27.5t31.5 -10.5q27 0 51.5 19z" />
    <glyph glyph-name="aring" unicode="&#xe5;" horiz-adv-x="561" 
d="M397 713q0 -49 -30.5 -78t-80.5 -29t-79.5 28.5t-29.5 77.5q0 48 29.5 76.5t79.5 28.5q49 0 80 -29t31 -75zM342 712q0 26 -16 41t-40 15t-40 -15t-16 -41t14.5 -41t41.5 -15q25 0 40.5 15t15.5 41zM-13 14q-29 29 -29 72q0 20 5 34l76 267q10 34 36 63.5t60.5 47
t67.5 17.5q20 0 39 -8q7 -3 13 -3t13 4t9 5q11 6 26 6q14 0 23.5 -6t7.5 -15l-111 -386q-2 -7 -2 -18q0 -18 11.5 -28.5t30.5 -10.5q27 0 51 18t33 45q3 8 13.5 12.5t23.5 4.5q15 0 25.5 -5.5t7.5 -14.5q-9 -34 -35.5 -64t-61.5 -48t-69 -18q-37 0 -66 24q-12 10 -22 10
q-9 0 -22 -8q-42 -26 -82 -26q-43 0 -72 29zM122.5 74q24.5 19 32.5 46l76 267q2 12 2 18q0 18 -11.5 29t-30.5 11q-27 0 -51.5 -19t-32.5 -47l-76 -267q-3 -10 -3 -19q0 -17 11.5 -27.5t31.5 -10.5q27 0 51.5 19z" />
    <glyph glyph-name="ae" unicode="&#xe6;" horiz-adv-x="863" 
d="M46 149q0 163 244 171l90 3v34q0 60 -27.5 88.5t-84.5 28.5q-68 0 -150 -41l-27 66q35 20 84.5 33t99.5 13q62 0 102.5 -20.5t61.5 -65.5q26 42 67.5 64.5t96.5 22.5q96 0 153 -66t57 -174v-54h-343q4 -187 155 -187q43 0 80.5 8t83.5 29v-77q-43 -19 -80 -27t-87 -8
q-142 0 -203 113q-40 -61 -88.5 -87t-114.5 -26q-80 0 -125 42t-45 117zM137 148q0 -45 25.5 -66t67.5 -21q68 0 108 40t40 113v48l-75 -3q-86 -3 -126 -29t-40 -82zM602 474q-58 0 -91 -39t-39 -114h248q0 74 -30.5 113.5t-87.5 39.5z" />
    <glyph glyph-name="ccedilla" unicode="&#xe7;" horiz-adv-x="479" 
d="M-33 135l73 255q9 32 34.5 61t59.5 46.5t67 17.5q43 0 72 -29t29 -72q0 -18 -4 -31q-1 -7 -13 -11.5t-26 -4.5q-15 0 -25 5.5t-6 15.5q3 11 3 19q0 17 -11.5 27.5t-30.5 10.5q-26 0 -49.5 -18.5t-31.5 -44.5l-73 -255q-2 -6 -2 -15q0 -28 26.5 -41.5t67.5 -13.5
q50 0 95 17t54 44q3 7 13.5 11t23.5 4q15 0 25 -5.5t7 -14.5q-17 -58 -83 -92.5t-142 -34.5q-67 0 -112.5 30t-45.5 87q0 15 5 32zM374 -139q0 -48 -37 -74.5t-111 -26.5q-32 0 -50 5v55q18 -5 53 -5q37 0 55.5 9.5t18.5 34.5q0 43 -91 55l43 86h58l-26 -53q87 -19 87 -86z
" />
    <glyph glyph-name="egrave" unicode="&#xe8;" horiz-adv-x="563" 
d="M-35 128l75 262q9 32 34.5 61t59.5 46.5t67 17.5q43 0 72 -29t29 -72q0 -38 -25 -75t-64.5 -60.5t-80.5 -23.5h-34q-26 0 -33 -25l-32 -110q-2 -12 -2 -15q0 -24 23.5 -36t60.5 -12q46 0 89 17t52 44q3 8 14 12.5t24 4.5q15 0 24.5 -5.5t7.5 -14.5q-10 -39 -43 -68
t-79.5 -44.5t-93.5 -15.5q-64 0 -107 28t-43 81q0 15 5 32zM143 325q28 0 53 18.5t33 46.5q2 12 2 17q0 17 -11.5 27.5t-30.5 10.5q-26 0 -49.5 -18.5t-31.5 -44.5l-8 -28q-1 -3 -1 -10q0 -8 5 -13.5t14 -5.5h25zM353 606h-59q-37 29 -80.5 76t-61.5 74v10h105
q16 -32 44.5 -76.5t51.5 -71.5v-12z" />
    <glyph glyph-name="eacute" unicode="&#xe9;" horiz-adv-x="563" 
d="M-35 128l75 262q9 32 34.5 61t59.5 46.5t67 17.5q43 0 72 -29t29 -72q0 -38 -25 -75t-64.5 -60.5t-80.5 -23.5h-34q-26 0 -33 -25l-32 -110q-2 -12 -2 -15q0 -24 23.5 -36t60.5 -12q46 0 89 17t52 44q3 8 14 12.5t24 4.5q15 0 24.5 -5.5t7.5 -14.5q-10 -39 -43 -68
t-79.5 -44.5t-93.5 -15.5q-64 0 -107 28t-43 81q0 15 5 32zM143 325q28 0 53 18.5t33 46.5q2 12 2 17q0 17 -11.5 27.5t-30.5 10.5q-26 0 -49.5 -18.5t-31.5 -44.5l-8 -28q-1 -3 -1 -10q0 -8 5 -13.5t14 -5.5h25zM228 618q19 23 47.5 66.5t47.5 81.5h106v-10
q-21 -31 -66.5 -78.5t-76.5 -71.5h-58v12z" />
    <glyph glyph-name="ecircumflex" unicode="&#xea;" horiz-adv-x="563" 
d="M124 617q61 65 86 96.5t37 52.5h90q25 -49 125 -149v-11h-62q-44 26 -109 90q-64 -62 -107 -90h-60v11zM-35 128l75 262q9 32 34.5 61t59.5 46.5t67 17.5q43 0 72 -29t29 -72q0 -38 -25 -75t-64.5 -60.5t-80.5 -23.5h-34q-26 0 -33 -25l-32 -110q-2 -12 -2 -15
q0 -24 23.5 -36t60.5 -12q46 0 89 17t52 44q3 8 14 12.5t24 4.5q15 0 24.5 -5.5t7.5 -14.5q-10 -39 -43 -68t-79.5 -44.5t-93.5 -15.5q-64 0 -107 28t-43 81q0 15 5 32zM143 325q28 0 53 18.5t33 46.5q2 12 2 17q0 17 -11.5 27.5t-30.5 10.5q-26 0 -49.5 -18.5t-31.5 -44.5
l-8 -28q-1 -3 -1 -10q0 -8 5 -13.5t14 -5.5h25z" />
    <glyph glyph-name="edieresis" unicode="&#xeb;" horiz-adv-x="563" 
d="M-35 128l75 262q9 32 34.5 61t59.5 46.5t67 17.5q43 0 72 -29t29 -72q0 -38 -25 -75t-64.5 -60.5t-80.5 -23.5h-34q-26 0 -33 -25l-32 -110q-2 -12 -2 -15q0 -24 23.5 -36t60.5 -12q46 0 89 17t52 44q3 8 14 12.5t24 4.5q15 0 24.5 -5.5t7.5 -14.5q-10 -39 -43 -68
t-79.5 -44.5t-93.5 -15.5q-64 0 -107 28t-43 81q0 15 5 32zM143 325q28 0 53 18.5t33 46.5q2 12 2 17q0 17 -11.5 27.5t-30.5 10.5q-26 0 -49.5 -18.5t-31.5 -44.5l-8 -28q-1 -3 -1 -10q0 -8 5 -13.5t14 -5.5h25zM154 681q0 26 13.5 37.5t33.5 11.5q19 0 33 -11.5t14 -37.5
t-14 -38t-33 -12q-20 0 -33.5 12t-13.5 38zM342 681q0 26 13.5 37.5t32.5 11.5t33 -11.5t14 -37.5t-14 -38t-33 -12t-32.5 12t-13.5 38z" />
    <glyph glyph-name="igrave" unicode="&#xec;" horiz-adv-x="257" 
d="M173 0h-88v536h88v-536zM180 606h-59q-37 29 -80.5 76t-61.5 74v10h105q16 -32 44.5 -76.5t51.5 -71.5v-12z" />
    <glyph glyph-name="iacute" unicode="&#xed;" horiz-adv-x="257" 
d="M173 0h-88v536h88v-536zM82 618q19 23 47.5 66.5t47.5 81.5h106v-10q-21 -31 -66.5 -78.5t-76.5 -71.5h-58v12z" />
    <glyph glyph-name="icircumflex" unicode="&#xee;" horiz-adv-x="257" 
d="M-40 617q61 65 86 96.5t37 52.5h90q25 -49 125 -149v-11h-62q-44 26 -109 90q-64 -62 -107 -90h-60v11zM173 0h-88v536h88v-536z" />
    <glyph glyph-name="idieresis" unicode="&#xef;" horiz-adv-x="257" 
d="M173 0h-88v536h88v-536zM-11 681q0 26 13.5 37.5t33.5 11.5q19 0 33 -11.5t14 -37.5t-14 -38t-33 -12q-20 0 -33.5 12t-13.5 38zM177 681q0 26 13.5 37.5t32.5 11.5t33 -11.5t14 -37.5t-14 -38t-33 -12t-32.5 12t-13.5 38z" />
    <glyph glyph-name="eth" unicode="&#xf0;" horiz-adv-x="604" 
d="M551 275q0 -138 -65 -211.5t-185 -73.5q-110 0 -178 66.5t-68 176.5q0 112 63.5 176t171.5 64q110 0 156 -58l4 2q-29 104 -124 191l-130 -75l-38 55l112 64q-42 28 -90 53l36 60q76 -36 126 -72l115 67l38 -54l-99 -57q74 -68 114.5 -164.5t40.5 -209.5zM462 251
q0 70 -43 110.5t-116 40.5q-81 0 -120 -42.5t-39 -129.5q0 -81 41 -124.5t118 -43.5q83 0 121 48.5t38 140.5z" />
    <glyph glyph-name="ntilde" unicode="&#xf1;" horiz-adv-x="618" 
d="M392 607q-21 0 -41 9t-39.5 19.5t-37 19.5t-34.5 9q-24 0 -36 -14.5t-19 -43.5h-51q6 60 34 94t76 34q22 0 42.5 -9t39.5 -19.5t37 -19.5t33 -9q23 0 35.5 14.5t19.5 43.5h50q-6 -58 -34 -93t-75 -35zM180 14q-29 29 -29 72q0 20 5 34l76 267q2 12 2 18q0 18 -11.5 29
t-30.5 11q-27 0 -51.5 -19t-32.5 -47l-109 -381q-2 -8 -13.5 -12t-25.5 -4q-15 0 -24.5 5t-6.5 15l144 500q5 16 36 16q16 0 25 -4q4 -2 9 -5t10 -3l8 2q26 7 43 7q43 0 72 -29t29 -73q0 -20 -5 -34l-76 -267q-2 -7 -2 -18q0 -18 11.5 -28.5t30.5 -10.5q27 0 51 18t33 45
q3 8 13 12t23 4q15 0 25.5 -5t8.5 -14q-9 -34 -35.5 -64t-61.5 -48t-69 -18q-43 0 -72 29z" />
    <glyph glyph-name="ograve" unicode="&#xf2;" horiz-adv-x="604" 
d="M-13 14q-29 29 -29 72q0 20 5 34l76 267q10 34 36 63.5t60.5 47t67.5 17.5q43 0 72 -29t29 -73q0 -20 -5 -34l-76 -267q-10 -33 -36 -62.5t-60.5 -47t-67.5 -17.5q-43 0 -72 29zM122.5 74q24.5 19 32.5 46l76 267q2 12 2 18q0 18 -11.5 29t-30.5 11q-27 0 -51.5 -19
t-32.5 -47l-76 -267q-3 -10 -3 -19q0 -17 11.5 -27.5t31.5 -10.5q27 0 51.5 19zM205 3q0 17 9.5 34.5t20.5 17.5q26 1 49.5 19t32.5 44q3 8 13.5 12.5t23.5 4.5q15 0 25.5 -5.5t7.5 -14.5q-9 -34 -36 -64.5t-63 -48.5t-70 -17q-13 0 -13 18zM367 606h-59q-37 29 -80.5 76
t-61.5 74v10h105q16 -32 44.5 -76.5t51.5 -71.5v-12z" />
    <glyph glyph-name="oacute" unicode="&#xf3;" horiz-adv-x="604" 
d="M-13 14q-29 29 -29 72q0 20 5 34l76 267q10 34 36 63.5t60.5 47t67.5 17.5q43 0 72 -29t29 -73q0 -20 -5 -34l-76 -267q-10 -33 -36 -62.5t-60.5 -47t-67.5 -17.5q-43 0 -72 29zM122.5 74q24.5 19 32.5 46l76 267q2 12 2 18q0 18 -11.5 29t-30.5 11q-27 0 -51.5 -19
t-32.5 -47l-76 -267q-3 -10 -3 -19q0 -17 11.5 -27.5t31.5 -10.5q27 0 51.5 19zM205 3q0 17 9.5 34.5t20.5 17.5q26 1 49.5 19t32.5 44q3 8 13.5 12.5t23.5 4.5q15 0 25.5 -5.5t7.5 -14.5q-9 -34 -36 -64.5t-63 -48.5t-70 -17q-13 0 -13 18zM233 618q19 23 47.5 66.5
t47.5 81.5h106v-10q-21 -31 -66.5 -78.5t-76.5 -71.5h-58v12z" />
    <glyph glyph-name="ocircumflex" unicode="&#xf4;" horiz-adv-x="604" 
d="M133 617q61 65 86 96.5t37 52.5h90q25 -49 125 -149v-11h-62q-44 26 -109 90q-64 -62 -107 -90h-60v11zM-13 14q-29 29 -29 72q0 20 5 34l76 267q10 34 36 63.5t60.5 47t67.5 17.5q43 0 72 -29t29 -73q0 -20 -5 -34l-76 -267q-10 -33 -36 -62.5t-60.5 -47t-67.5 -17.5
q-43 0 -72 29zM122.5 74q24.5 19 32.5 46l76 267q2 12 2 18q0 18 -11.5 29t-30.5 11q-27 0 -51.5 -19t-32.5 -47l-76 -267q-3 -10 -3 -19q0 -17 11.5 -27.5t31.5 -10.5q27 0 51.5 19zM205 3q0 17 9.5 34.5t20.5 17.5q26 1 49.5 19t32.5 44q3 8 13.5 12.5t23.5 4.5
q15 0 25.5 -5.5t7.5 -14.5q-9 -34 -36 -64.5t-63 -48.5t-70 -17q-13 0 -13 18z" />
    <glyph glyph-name="otilde" unicode="&#xf5;" horiz-adv-x="604" 
d="M379 607q-21 0 -41 9t-39.5 19.5t-37 19.5t-34.5 9q-24 0 -36 -14.5t-19 -43.5h-51q6 60 34 94t76 34q22 0 42.5 -9t39.5 -19.5t37 -19.5t33 -9q23 0 35.5 14.5t19.5 43.5h50q-6 -58 -34 -93t-75 -35zM-13 14q-29 29 -29 72q0 20 5 34l76 267q10 34 36 63.5t60.5 47
t67.5 17.5q43 0 72 -29t29 -73q0 -20 -5 -34l-76 -267q-10 -33 -36 -62.5t-60.5 -47t-67.5 -17.5q-43 0 -72 29zM122.5 74q24.5 19 32.5 46l76 267q2 12 2 18q0 18 -11.5 29t-30.5 11q-27 0 -51.5 -19t-32.5 -47l-76 -267q-3 -10 -3 -19q0 -17 11.5 -27.5t31.5 -10.5
q27 0 51.5 19zM205 3q0 17 9.5 34.5t20.5 17.5q26 1 49.5 19t32.5 44q3 8 13.5 12.5t23.5 4.5q15 0 25.5 -5.5t7.5 -14.5q-9 -34 -36 -64.5t-63 -48.5t-70 -17q-13 0 -13 18z" />
    <glyph glyph-name="odieresis" unicode="&#xf6;" horiz-adv-x="355" 
d="M316 553q-11 -4 -26 -4t-24.5 5t-6.5 15l12 42q2 8 13 12t25 4q15 0 25 -5t7 -15l-12 -42q-2 -8 -13 -12zM176 553q-11 -4 -26 -4t-24.5 5t-6.5 15l12 42q2 8 13 12t25 4q15 0 25 -5t7 -15l-12 -42q-2 -8 -13 -12zM-13 14q-29 29 -29 72q0 20 5 34l76 267q10 34 36 63.5
t60.5 47t67.5 17.5q43 0 72 -29t29 -73q0 -20 -5 -34l-76 -267q-10 -33 -36 -62.5t-60.5 -47t-67.5 -17.5q-43 0 -72 29zM122.5 74q24.5 19 32.5 46l76 267q2 12 2 18q0 18 -11.5 29t-30.5 11q-27 0 -51.5 -19t-32.5 -47l-76 -267q-3 -10 -3 -19q0 -17 11.5 -27.5
t31.5 -10.5q27 0 51.5 19zM205 3q0 17 9.5 34.5t20.5 17.5q26 1 49.5 19t32.5 44q3 8 13.5 12.5t23.5 4.5q15 0 25.5 -5.5t7.5 -14.5q-9 -34 -36 -64.5t-63 -48.5t-70 -17q-13 0 -13 18z" />
    <glyph glyph-name="divide" unicode="&#xf7;" horiz-adv-x="550" 
d="M50 286v73h451v-73h-451zM219 156q0 17 4.5 28.5t12 19t17.5 10.5t22 3q11 0 21.5 -3t18 -10.5t12 -19t4.5 -28.5q0 -16 -4.5 -27.5t-12 -19t-18 -11t-21.5 -3.5q-12 0 -22 3.5t-17.5 11t-12 19t-4.5 27.5zM219 497q0 17 4.5 28.5t12 19t17.5 10.5t22 3q11 0 21.5 -3
t18 -10.5t12 -19t4.5 -28.5q0 -16 -4.5 -27.5t-12 -19t-18 -11t-21.5 -3.5q-12 0 -22 3.5t-17.5 11t-12 19t-4.5 27.5zM221 622z" />
    <glyph glyph-name="oslash" unicode="&#xf8;" horiz-adv-x="604" 
d="M551 269q0 -131 -66.5 -205t-183.5 -74q-74 0 -129 33l-40 -56l-58 39l45 62q-64 76 -64 201q0 131 65.5 204t183.5 73q74 0 131 -36l39 56l59 -38l-45 -63q63 -76 63 -196zM146 269q0 -81 24 -128l220 306q-36 25 -88 25q-156 0 -156 -203zM460 269q0 74 -23 123
l-220 -306q34 -23 86 -23q77 0 117 52.5t40 153.5z" />
    <glyph glyph-name="ugrave" unicode="&#xf9;" horiz-adv-x="618" 
d="M-14 14q-29 29 -29 73q0 14 5 32l110 383q2 8 12 12.5t23 4.5q16 0 27 -6t8 -15l-111 -386q-3 -10 -3 -19q0 -17 11.5 -27.5t31.5 -10.5q27 0 51.5 19t32.5 46l109 382q2 8 12 12.5t23 4.5q16 0 27 -6t8 -15l-111 -386q-2 -7 -2 -18q0 -18 11.5 -28.5t30.5 -10.5
q27 0 51 18t33 45q3 8 13.5 12.5t23.5 4.5q15 0 25.5 -5.5t7.5 -14.5q-9 -34 -35.5 -64t-61.5 -48t-69 -18q-37 0 -66 24q-12 10 -22 10q-9 0 -22 -8q-42 -26 -82 -26q-44 0 -73 29zM360 606h-59q-37 29 -80.5 76t-61.5 74v10h105q16 -32 44.5 -76.5t51.5 -71.5v-12z" />
    <glyph glyph-name="uacute" unicode="&#xfa;" horiz-adv-x="618" 
d="M-14 14q-29 29 -29 73q0 14 5 32l110 383q2 8 12 12.5t23 4.5q16 0 27 -6t8 -15l-111 -386q-3 -10 -3 -19q0 -17 11.5 -27.5t31.5 -10.5q27 0 51.5 19t32.5 46l109 382q2 8 12 12.5t23 4.5q16 0 27 -6t8 -15l-111 -386q-2 -7 -2 -18q0 -18 11.5 -28.5t30.5 -10.5
q27 0 51 18t33 45q3 8 13.5 12.5t23.5 4.5q15 0 25.5 -5.5t7.5 -14.5q-9 -34 -35.5 -64t-61.5 -48t-69 -18q-37 0 -66 24q-12 10 -22 10q-9 0 -22 -8q-42 -26 -82 -26q-44 0 -73 29zM246 618q19 23 47.5 66.5t47.5 81.5h106v-10q-21 -31 -66.5 -78.5t-76.5 -71.5h-58v12z
" />
    <glyph glyph-name="ucircumflex" unicode="&#xfb;" horiz-adv-x="618" 
d="M137 617q61 65 86 96.5t37 52.5h90q25 -49 125 -149v-11h-62q-44 26 -109 90q-64 -62 -107 -90h-60v11zM-14 14q-29 29 -29 73q0 14 5 32l110 383q2 8 12 12.5t23 4.5q16 0 27 -6t8 -15l-111 -386q-3 -10 -3 -19q0 -17 11.5 -27.5t31.5 -10.5q27 0 51.5 19t32.5 46
l109 382q2 8 12 12.5t23 4.5q16 0 27 -6t8 -15l-111 -386q-2 -7 -2 -18q0 -18 11.5 -28.5t30.5 -10.5q27 0 51 18t33 45q3 8 13.5 12.5t23.5 4.5q15 0 25.5 -5.5t7.5 -14.5q-9 -34 -35.5 -64t-61.5 -48t-69 -18q-37 0 -66 24q-12 10 -22 10q-9 0 -22 -8q-42 -26 -82 -26
q-44 0 -73 29z" />
    <glyph glyph-name="udieresis" unicode="&#xfc;" horiz-adv-x="385" 
d="M336 553q-11 -4 -26 -4t-24.5 5t-6.5 15l12 42q2 8 13 12t25 4q15 0 25 -5t7 -15l-12 -42q-2 -8 -13 -12zM149 553q-11 -4 -26 -4t-24.5 5t-6.5 15l12 42q2 8 13 12t25 4q15 0 25 -5t7 -15l-12 -42q-2 -8 -13 -12zM-14 14q-29 29 -29 73q0 14 5 32l110 383q2 8 12 12.5
t23 4.5q16 0 27 -6t8 -15l-111 -386q-3 -10 -3 -19q0 -17 11.5 -27.5t31.5 -10.5q27 0 51.5 19t32.5 46l109 382q2 8 12 12.5t23 4.5q16 0 27 -6t8 -15l-111 -386q-2 -7 -2 -18q0 -18 11.5 -28.5t30.5 -10.5q27 0 51 18t33 45q3 8 13.5 12.5t23.5 4.5q15 0 25.5 -5.5
t7.5 -14.5q-9 -34 -35.5 -64t-61.5 -48t-69 -18q-37 0 -66 24q-12 10 -22 10q-9 0 -22 -8q-42 -26 -82 -26q-44 0 -73 29z" />
    <glyph glyph-name="yacute" unicode="&#xfd;" horiz-adv-x="509" 
d="M-70 -186q-29 29 -29 73q0 19 4 32q2 7 13.5 11.5t25.5 4.5q15 0 24.5 -5.5t6.5 -15.5q-3 -11 -3 -19q0 -19 11 -29.5t31 -10.5q28 0 52.5 18.5t32.5 46.5l11 40q2 10 2 14q0 9 -5 13t-15 2q-15 -4 -31 -4q-43 0 -72 29t-29 72q0 20 5 34l109 382q2 8 13 12t25 4
q16 0 25.5 -5t6.5 -15l-111 -386q-3 -10 -3 -19q0 -17 11.5 -27.5t31.5 -10.5q27 0 51.5 19t32.5 46l109 382q2 8 12 12.5t23 4.5q16 0 27 -6t8 -15l-169 -586q-9 -33 -35 -62.5t-60.5 -47t-68.5 -17.5q-44 0 -73 29zM207 3q0 17 9.5 34.5t20.5 17.5q26 1 49.5 19t32.5 44
q3 8 13.5 12.5t23.5 4.5q15 0 25.5 -5.5t7.5 -14.5q-9 -34 -36 -64.5t-63 -48.5t-70 -17q-13 0 -13 18zM200 618q19 23 47.5 66.5t47.5 81.5h106v-10q-21 -31 -66.5 -78.5t-76.5 -71.5h-58v12z" />
    <glyph glyph-name="thorn" unicode="&#xfe;" horiz-adv-x="615" 
d="M174 464q33 44 73.5 63t92.5 19q104 0 162 -73t58 -204t-58 -205t-162 -74q-108 0 -167 78h-6q6 -64 6 -84v-224h-88v1000h88v-224q0 -34 -3 -72h4zM325 472q-79 0 -115 -43.5t-37 -140.5v-19q0 -109 36 -157.5t117 -48.5q143 0 143 207q0 102 -35 152t-109 50z" />
    <glyph glyph-name="ydieresis" unicode="&#xff;" horiz-adv-x="509" 
d="M-70 -186q-29 29 -29 73q0 19 4 32q2 7 13.5 11.5t25.5 4.5q15 0 24.5 -5.5t6.5 -15.5q-3 -11 -3 -19q0 -19 11 -29.5t31 -10.5q28 0 52.5 18.5t32.5 46.5l11 40q2 10 2 14q0 9 -5 13t-15 2q-15 -4 -31 -4q-43 0 -72 29t-29 72q0 20 5 34l109 382q2 8 13 12t25 4
q16 0 25.5 -5t6.5 -15l-111 -386q-3 -10 -3 -19q0 -17 11.5 -27.5t31.5 -10.5q27 0 51.5 19t32.5 46l109 382q2 8 12 12.5t23 4.5q16 0 27 -6t8 -15l-169 -586q-9 -33 -35 -62.5t-60.5 -47t-68.5 -17.5q-44 0 -73 29zM207 3q0 17 9.5 34.5t20.5 17.5q26 1 49.5 19t32.5 44
q3 8 13.5 12.5t23.5 4.5q15 0 25.5 -5.5t7.5 -14.5q-9 -34 -36 -64.5t-63 -48.5t-70 -17q-13 0 -13 18zM114 681q0 26 13.5 37.5t33.5 11.5q19 0 33 -11.5t14 -37.5t-14 -38t-33 -12q-20 0 -33.5 12t-13.5 38zM302 681q0 26 13.5 37.5t32.5 11.5t33 -11.5t14 -37.5t-14 -38
t-33 -12t-32.5 12t-13.5 38z" />
    <glyph glyph-name="Amacron" unicode="&#x100;" horiz-adv-x="639" 
d="M178 842h297v-71h-297v71zM75.5 -183q-58.5 32 -91.5 89t-33 130q0 44 14 91q26 90 93.5 167t157.5 122t180 45q14 0 14 -20q0 -16 -9 -33t-20 -17q-74 0 -146.5 -36.5t-126.5 -99t-75 -136.5q-11 -42 -11 -77q0 -84 54.5 -135.5t143.5 -51.5q74 0 147 36t127.5 98.5
t76.5 137.5l113 395q21 76 84.5 144t148 109t164.5 40q13 0 13 -18q0 -17 -9.5 -34.5t-20.5 -17.5q-1 -1 -6 -4t-10.5 -9t-7.5 -13l-208 -723q-2 -12 -2 -17q0 -19 12 -30t32 -10q13 0 13 -19q0 -17 -8.5 -34t-18.5 -17q-43 1 -72 30t-29 72q0 16 5 33l71 252q2 8 2 11
q0 11 -7 17t-20 6h-96q-26 0 -33 -25l-42 -146q-26 -90 -93 -167t-157 -122t-180 -45q-75 0 -133.5 32zM840 360q26 0 33 25l85 296q2 8 2 11q0 9 -5 14.5t-13 5.5t-15 -4q-64 -32 -111.5 -84t-63.5 -110l-34 -120q-2 -8 -2 -10q0 -11 7.5 -17.5t20.5 -6.5h96z" />
    <glyph glyph-name="amacron" unicode="&#x101;" horiz-adv-x="561" 
d="M143 677h297v-71h-297v71zM-13 14q-29 29 -29 72q0 20 5 34l76 267q10 34 36 63.5t60.5 47t67.5 17.5q20 0 39 -8q7 -3 13 -3t13 4t9 5q11 6 26 6q14 0 23.5 -6t7.5 -15l-111 -386q-2 -7 -2 -18q0 -18 11.5 -28.5t30.5 -10.5q27 0 51 18t33 45q3 8 13.5 12.5t23.5 4.5
q15 0 25.5 -5.5t7.5 -14.5q-9 -34 -35.5 -64t-61.5 -48t-69 -18q-37 0 -66 24q-12 10 -22 10q-9 0 -22 -8q-42 -26 -82 -26q-43 0 -72 29zM122.5 74q24.5 19 32.5 46l76 267q2 12 2 18q0 18 -11.5 29t-30.5 11q-27 0 -51.5 -19t-32.5 -47l-76 -267q-3 -10 -3 -19
q0 -17 11.5 -27.5t31.5 -10.5q27 0 51.5 19z" />
    <glyph glyph-name="Abreve" unicode="&#x102;" horiz-adv-x="639" 
d="M316 771q-69 0 -108.5 33.5t-44.5 100.5h54q4 -35 24.5 -49t76.5 -14q49 0 73 15.5t28 47.5h55q-6 -64 -48 -99t-110 -35zM75.5 -183q-58.5 32 -91.5 89t-33 130q0 44 14 91q26 90 93.5 167t157.5 122t180 45q14 0 14 -20q0 -16 -9 -33t-20 -17q-74 0 -146.5 -36.5
t-126.5 -99t-75 -136.5q-11 -42 -11 -77q0 -84 54.5 -135.5t143.5 -51.5q74 0 147 36t127.5 98.5t76.5 137.5l113 395q21 76 84.5 144t148 109t164.5 40q13 0 13 -18q0 -17 -9.5 -34.5t-20.5 -17.5q-1 -1 -6 -4t-10.5 -9t-7.5 -13l-208 -723q-2 -12 -2 -17q0 -19 12 -30
t32 -10q13 0 13 -19q0 -17 -8.5 -34t-18.5 -17q-43 1 -72 30t-29 72q0 16 5 33l71 252q2 8 2 11q0 11 -7 17t-20 6h-96q-26 0 -33 -25l-42 -146q-26 -90 -93 -167t-157 -122t-180 -45q-75 0 -133.5 32zM840 360q26 0 33 25l85 296q2 8 2 11q0 9 -5 14.5t-13 5.5t-15 -4
q-64 -32 -111.5 -84t-63.5 -110l-34 -120q-2 -8 -2 -10q0 -11 7.5 -17.5t20.5 -6.5h96z" />
    <glyph glyph-name="abreve" unicode="&#x103;" horiz-adv-x="561" 
d="M281 606q-69 0 -108.5 33.5t-44.5 100.5h54q4 -35 24.5 -49t76.5 -14q49 0 73 15.5t28 47.5h55q-6 -64 -48 -99t-110 -35zM-13 14q-29 29 -29 72q0 20 5 34l76 267q10 34 36 63.5t60.5 47t67.5 17.5q20 0 39 -8q7 -3 13 -3t13 4t9 5q11 6 26 6q14 0 23.5 -6t7.5 -15
l-111 -386q-2 -7 -2 -18q0 -18 11.5 -28.5t30.5 -10.5q27 0 51 18t33 45q3 8 13.5 12.5t23.5 4.5q15 0 25.5 -5.5t7.5 -14.5q-9 -34 -35.5 -64t-61.5 -48t-69 -18q-37 0 -66 24q-12 10 -22 10q-9 0 -22 -8q-42 -26 -82 -26q-43 0 -72 29zM122.5 74q24.5 19 32.5 46l76 267
q2 12 2 18q0 18 -11.5 29t-30.5 11q-27 0 -51.5 -19t-32.5 -47l-76 -267q-3 -10 -3 -19q0 -17 11.5 -27.5t31.5 -10.5q27 0 51.5 19z" />
    <glyph glyph-name="Aogonek" unicode="&#x104;" horiz-adv-x="639" 
d="M540 -116q0 -22 12 -33.5t33 -11.5t48 6v-56q-34 -9 -62 -9q-103 0 -103 94q0 68 78 126h62q-34 -32 -51 -58.5t-17 -57.5zM75.5 -183q-58.5 32 -91.5 89t-33 130q0 44 14 91q26 90 93.5 167t157.5 122t180 45q14 0 14 -20q0 -16 -9 -33t-20 -17q-74 0 -146.5 -36.5
t-126.5 -99t-75 -136.5q-11 -42 -11 -77q0 -84 54.5 -135.5t143.5 -51.5q74 0 147 36t127.5 98.5t76.5 137.5l113 395q21 76 84.5 144t148 109t164.5 40q13 0 13 -18q0 -17 -9.5 -34.5t-20.5 -17.5q-1 -1 -6 -4t-10.5 -9t-7.5 -13l-208 -723q-2 -12 -2 -17q0 -19 12 -30
t32 -10q13 0 13 -19q0 -17 -8.5 -34t-18.5 -17q-43 1 -72 30t-29 72q0 16 5 33l71 252q2 8 2 11q0 11 -7 17t-20 6h-96q-26 0 -33 -25l-42 -146q-26 -90 -93 -167t-157 -122t-180 -45q-75 0 -133.5 32zM840 360q26 0 33 25l85 296q2 8 2 11q0 9 -5 14.5t-13 5.5t-15 -4
q-64 -32 -111.5 -84t-63.5 -110l-34 -120q-2 -8 -2 -10q0 -11 7.5 -17.5t20.5 -6.5h96z" />
    <glyph glyph-name="aogonek" unicode="&#x105;" horiz-adv-x="561" 
d="M410 -116q0 -22 12 -33.5t33 -11.5t48 6v-56q-34 -9 -62 -9q-103 0 -103 94q0 68 78 126h62q-34 -32 -51 -58.5t-17 -57.5zM-13 14q-29 29 -29 72q0 20 5 34l76 267q10 34 36 63.5t60.5 47t67.5 17.5q20 0 39 -8q7 -3 13 -3t13 4t9 5q11 6 26 6q14 0 23.5 -6t7.5 -15
l-111 -386q-2 -7 -2 -18q0 -18 11.5 -28.5t30.5 -10.5q27 0 51 18t33 45q3 8 13.5 12.5t23.5 4.5q15 0 25.5 -5.5t7.5 -14.5q-9 -34 -35.5 -64t-61.5 -48t-69 -18q-37 0 -66 24q-12 10 -22 10q-9 0 -22 -8q-42 -26 -82 -26q-43 0 -72 29zM122.5 74q24.5 19 32.5 46l76 267
q2 12 2 18q0 18 -11.5 29t-30.5 11q-27 0 -51.5 -19t-32.5 -47l-76 -267q-3 -10 -3 -19q0 -17 11.5 -27.5t31.5 -10.5q27 0 51.5 19z" />
    <glyph glyph-name="Cacute" unicode="&#x106;" horiz-adv-x="631" 
d="M-23 170l125 436q15 55 57.5 103t99.5 77t112 29q71 0 117 -45.5t46 -115.5q0 -32 -8 -56q-13 -47 -57.5 -82t-91.5 -35q-40 0 -67.5 27t-27.5 67q0 10 4 30q2 6 11 10t20 4q9 0 18 -3t13 -8q1 -1 2.5 -3t2.5 -6q1 -2 1 -6l-1 -10q0 -15 9.5 -23.5t25.5 -8.5q22 0 42 16
t28 39q6 21 6 41q0 44 -29 71t-76 27q-40 0 -79.5 -20t-69 -53.5t-40.5 -73.5l-125 -436q-10 -40 -10 -67q0 -82 47 -123.5t120 -41.5q62 0 128 29.5t117.5 84t73.5 126.5q6 23 6 42q0 46 -30.5 73.5t-79.5 26.5q-14 0 -14 19q0 17 9.5 34t20.5 17q47 0 85 -21.5t59 -58.5
t21 -83q0 -28 -9 -57q-26 -92 -89.5 -160t-145 -104t-160.5 -36q-65 0 -117 25t-82.5 75.5t-30.5 125.5q0 38 13 82zM318 783q19 23 47.5 66.5t47.5 81.5h106v-10q-21 -31 -66.5 -78.5t-76.5 -71.5h-58v12z" />
    <glyph glyph-name="cacute" unicode="&#x107;" horiz-adv-x="479" 
d="M-33 135l73 255q9 32 34.5 61t59.5 46.5t67 17.5q43 0 72 -29t29 -72q0 -18 -4 -31q-1 -7 -13 -11.5t-26 -4.5q-15 0 -25 5.5t-6 15.5q3 11 3 19q0 17 -11.5 27.5t-30.5 10.5q-26 0 -49.5 -18.5t-31.5 -44.5l-73 -255q-2 -6 -2 -15q0 -28 26.5 -41.5t67.5 -13.5
q50 0 95 17t54 44q3 7 13.5 11t23.5 4q15 0 25 -5.5t7 -14.5q-17 -58 -83 -92.5t-142 -34.5q-67 0 -112.5 30t-45.5 87q0 15 5 32zM224 618q19 23 47.5 66.5t47.5 81.5h106v-10q-21 -31 -66.5 -78.5t-76.5 -71.5h-58v12z" />
    <glyph glyph-name="Ccircumflex" unicode="&#x108;" horiz-adv-x="631" 
d="M220 782q61 65 86 96.5t37 52.5h90q25 -49 125 -149v-11h-62q-44 26 -109 90q-64 -62 -107 -90h-60v11zM-23 170l125 436q15 55 57.5 103t99.5 77t112 29q71 0 117 -45.5t46 -115.5q0 -32 -8 -56q-13 -47 -57.5 -82t-91.5 -35q-40 0 -67.5 27t-27.5 67q0 10 4 30
q2 6 11 10t20 4q9 0 18 -3t13 -8q1 -1 2.5 -3t2.5 -6q1 -2 1 -6l-1 -10q0 -15 9.5 -23.5t25.5 -8.5q22 0 42 16t28 39q6 21 6 41q0 44 -29 71t-76 27q-40 0 -79.5 -20t-69 -53.5t-40.5 -73.5l-125 -436q-10 -40 -10 -67q0 -82 47 -123.5t120 -41.5q62 0 128 29.5t117.5 84
t73.5 126.5q6 23 6 42q0 46 -30.5 73.5t-79.5 26.5q-14 0 -14 19q0 17 9.5 34t20.5 17q47 0 85 -21.5t59 -58.5t21 -83q0 -28 -9 -57q-26 -92 -89.5 -160t-145 -104t-160.5 -36q-65 0 -117 25t-82.5 75.5t-30.5 125.5q0 38 13 82z" />
    <glyph glyph-name="ccircumflex" unicode="&#x109;" horiz-adv-x="479" 
d="M118 617q61 65 86 96.5t37 52.5h90q25 -49 125 -149v-11h-62q-44 26 -109 90q-64 -62 -107 -90h-60v11zM-33 135l73 255q9 32 34.5 61t59.5 46.5t67 17.5q43 0 72 -29t29 -72q0 -18 -4 -31q-1 -7 -13 -11.5t-26 -4.5q-15 0 -25 5.5t-6 15.5q3 11 3 19q0 17 -11.5 27.5
t-30.5 10.5q-26 0 -49.5 -18.5t-31.5 -44.5l-73 -255q-2 -6 -2 -15q0 -28 26.5 -41.5t67.5 -13.5q50 0 95 17t54 44q3 7 13.5 11t23.5 4q15 0 25 -5.5t7 -14.5q-17 -58 -83 -92.5t-142 -34.5q-67 0 -112.5 30t-45.5 87q0 15 5 32z" />
    <glyph glyph-name="Cdotaccent" unicode="&#x10a;" horiz-adv-x="631" 
d="M337 846q0 29 15 42.5t37 13.5q21 0 36 -13.5t15 -42.5t-15.5 -42.5t-35.5 -13.5q-22 0 -37 13.5t-15 42.5zM-23 170l125 436q15 55 57.5 103t99.5 77t112 29q71 0 117 -45.5t46 -115.5q0 -32 -8 -56q-13 -47 -57.5 -82t-91.5 -35q-40 0 -67.5 27t-27.5 67q0 10 4 30
q2 6 11 10t20 4q9 0 18 -3t13 -8q1 -1 2.5 -3t2.5 -6q1 -2 1 -6l-1 -10q0 -15 9.5 -23.5t25.5 -8.5q22 0 42 16t28 39q6 21 6 41q0 44 -29 71t-76 27q-40 0 -79.5 -20t-69 -53.5t-40.5 -73.5l-125 -436q-10 -40 -10 -67q0 -82 47 -123.5t120 -41.5q62 0 128 29.5t117.5 84
t73.5 126.5q6 23 6 42q0 46 -30.5 73.5t-79.5 26.5q-14 0 -14 19q0 17 9.5 34t20.5 17q47 0 85 -21.5t59 -58.5t21 -83q0 -28 -9 -57q-26 -92 -89.5 -160t-145 -104t-160.5 -36q-65 0 -117 25t-82.5 75.5t-30.5 125.5q0 38 13 82z" />
    <glyph glyph-name="cdotaccent" unicode="&#x10b;" horiz-adv-x="479" 
d="M241 681q0 29 15 42.5t37 13.5q21 0 36 -13.5t15 -42.5t-15.5 -42.5t-35.5 -13.5q-22 0 -37 13.5t-15 42.5zM-33 135l73 255q9 32 34.5 61t59.5 46.5t67 17.5q43 0 72 -29t29 -72q0 -18 -4 -31q-1 -7 -13 -11.5t-26 -4.5q-15 0 -25 5.5t-6 15.5q3 11 3 19
q0 17 -11.5 27.5t-30.5 10.5q-26 0 -49.5 -18.5t-31.5 -44.5l-73 -255q-2 -6 -2 -15q0 -28 26.5 -41.5t67.5 -13.5q50 0 95 17t54 44q3 7 13.5 11t23.5 4q15 0 25 -5.5t7 -14.5q-17 -58 -83 -92.5t-142 -34.5q-67 0 -112.5 30t-45.5 87q0 15 5 32z" />
    <glyph glyph-name="Ccaron" unicode="&#x10c;" horiz-adv-x="631" 
d="M220 931h60q56 -36 107 -92q62 62 109 92h62v-13q-100 -100 -125 -147h-90q-29 50 -123 147v13zM-23 170l125 436q15 55 57.5 103t99.5 77t112 29q71 0 117 -45.5t46 -115.5q0 -32 -8 -56q-13 -47 -57.5 -82t-91.5 -35q-40 0 -67.5 27t-27.5 67q0 10 4 30q2 6 11 10t20 4
q9 0 18 -3t13 -8q1 -1 2.5 -3t2.5 -6q1 -2 1 -6l-1 -10q0 -15 9.5 -23.5t25.5 -8.5q22 0 42 16t28 39q6 21 6 41q0 44 -29 71t-76 27q-40 0 -79.5 -20t-69 -53.5t-40.5 -73.5l-125 -436q-10 -40 -10 -67q0 -82 47 -123.5t120 -41.5q62 0 128 29.5t117.5 84t73.5 126.5
q6 23 6 42q0 46 -30.5 73.5t-79.5 26.5q-14 0 -14 19q0 17 9.5 34t20.5 17q47 0 85 -21.5t59 -58.5t21 -83q0 -28 -9 -57q-26 -92 -89.5 -160t-145 -104t-160.5 -36q-65 0 -117 25t-82.5 75.5t-30.5 125.5q0 38 13 82z" />
    <glyph glyph-name="ccaron" unicode="&#x10d;" horiz-adv-x="479" 
d="M122 766h60q56 -36 107 -92q62 62 109 92h62v-13q-100 -100 -125 -147h-90q-29 50 -123 147v13zM-33 135l73 255q9 32 34.5 61t59.5 46.5t67 17.5q43 0 72 -29t29 -72q0 -18 -4 -31q-1 -7 -13 -11.5t-26 -4.5q-15 0 -25 5.5t-6 15.5q3 11 3 19q0 17 -11.5 27.5
t-30.5 10.5q-26 0 -49.5 -18.5t-31.5 -44.5l-73 -255q-2 -6 -2 -15q0 -28 26.5 -41.5t67.5 -13.5q50 0 95 17t54 44q3 7 13.5 11t23.5 4q15 0 25 -5.5t7 -14.5q-17 -58 -83 -92.5t-142 -34.5q-67 0 -112.5 30t-45.5 87q0 15 5 32z" />
    <glyph glyph-name="Dcaron" unicode="&#x10e;" horiz-adv-x="729" 
d="M170 931h60q56 -36 107 -92q62 62 109 92h62v-13q-100 -100 -125 -147h-90q-29 50 -123 147v13zM254 -99l59 206q2 8 2 11q0 21 -26 24q-65 10 -119 44t-86 87t-32 116q0 44 14 92q31 107 105.5 183t172 114.5t198.5 38.5q103 0 190 -39.5t139.5 -118t52.5 -190.5
q0 -65 -19 -126q-35 -122 -126 -226.5t-213 -167t-246 -65.5h-53q-18 0 -13 17zM573 25.5q95 55.5 165 141t99 184.5q16 61 16 110q0 93 -44 158t-117.5 97.5t-159.5 32.5q-85 0 -166 -31.5t-143 -93.5t-89 -150q-10 -37 -10 -76q0 -50 26 -90t69.5 -65t95.5 -32
q27 -3 35 24l134 467q2 8 12 12.5t23 4.5q16 0 27 -6t8 -15l-203 -708q-2 -8 -2 -11q0 -11 7.5 -17t20.5 -5q101 13 196 68.5z" />
    <glyph glyph-name="dcaron" unicode="&#x10f;" horiz-adv-x="615" 
d="M575 612q11 32 20.5 77.5t12.5 70.5h87v-9q-6 -26 -27 -71t-45 -80h-48v12zM-13 14q-29 29 -29 72q0 20 5 34l76 267q10 34 36 63.5t60.5 47t67.5 17.5q25 0 49 -13q4 -2 6 -2q6 0 7 7l56 195q2 8 13 12t25 4q16 0 25.5 -5t6.5 -15l-168 -586q-2 -7 -2 -18
q0 -18 11.5 -28.5t30.5 -10.5q27 0 51 18t33 45q3 8 13.5 12.5t23.5 4.5q15 0 25.5 -5.5t7.5 -14.5q-9 -34 -35.5 -64t-61.5 -48t-69 -18q-37 0 -66 24q-12 10 -22 10q-9 0 -22 -8q-42 -26 -82 -26q-43 0 -72 29zM122.5 74q24.5 19 32.5 46l76 267q2 12 2 18q0 18 -11.5 29
t-30.5 11q-27 0 -51.5 -19t-32.5 -47l-76 -267q-3 -10 -3 -19q0 -17 11.5 -27.5t31.5 -10.5q27 0 51.5 19z" />
    <glyph glyph-name="Dcroat" unicode="&#x110;" horiz-adv-x="729" 
d="M669 364q0 -175 -96 -269.5t-278 -94.5h-191v314h-74v78h74v322h213q167 0 259.5 -92t92.5 -258zM574 361q0 137 -68 206.5t-202 69.5h-110v-245h178v-78h-178v-237h90q290 0 290 284z" />
    <glyph glyph-name="dcroat" unicode="&#x111;" horiz-adv-x="617" 
d="M275 -10q-104 0 -162 72t-58 203q0 132 57.5 205t162.5 73q109 0 167 -79h6q-1 7 -3.5 33.5t-2.5 46.5v61h-213v66h213v89h88v-89h76v-66h-76v-605h-72l-13 72h-4q-56 -82 -166 -82zM290 63q80 0 116.5 43t36.5 142v17q0 112 -37 158.5t-118 46.5q-68 0 -104.5 -52
t-36.5 -154q0 -96 35 -148.5t108 -52.5z" />
    <glyph glyph-name="Emacron" unicode="&#x112;" horiz-adv-x="556" 
d="M148 842h297v-71h-297v71zM79.5 -111.5q-53.5 29.5 -84 81.5t-30.5 118q0 73 37.5 145t100.5 128.5t138 85.5q-21 21 -32 50t-11 61q0 64 40 124t102.5 96.5t125.5 36.5q69 0 113.5 -44t44.5 -112q0 -45 -22 -84.5t-58.5 -63t-76.5 -23.5t-67.5 27t-27.5 67q0 10 4 30
q2 7 11.5 11t20.5 4q23 0 30 -12q4 -6 4.5 -10t0.5 -8v-7q0 -15 9.5 -23.5t25.5 -8.5q33 0 54 27t21 67q0 42 -27 67.5t-72 25.5t-88 -25.5t-70 -67t-27 -86.5q0 -43 27 -69t73 -25q14 0 14 -20q0 -16 -9 -33t-20 -17q-79 0 -152.5 -45t-119.5 -116.5t-46 -145.5t48.5 -120
t127.5 -46q72 0 146 42.5t122 108.5t48 132q0 45 -29.5 72.5t-77.5 27.5q-41 0 -81 -20t-70 -54t-42 -74q-2 -8 -13.5 -12t-25.5 -4q-15 0 -24.5 5t-6.5 15q16 57 58.5 106t100.5 78.5t115 29.5h1q47 0 85 -21.5t59.5 -58.5t21.5 -83q0 -85 -60.5 -169t-154 -137.5
t-184.5 -53.5q-67 0 -120.5 29.5z" />
    <glyph glyph-name="emacron" unicode="&#x113;" horiz-adv-x="563" 
d="M150 677h297v-71h-297v71zM-35 128l75 262q9 32 34.5 61t59.5 46.5t67 17.5q43 0 72 -29t29 -72q0 -38 -25 -75t-64.5 -60.5t-80.5 -23.5h-34q-26 0 -33 -25l-32 -110q-2 -12 -2 -15q0 -24 23.5 -36t60.5 -12q46 0 89 17t52 44q3 8 14 12.5t24 4.5q15 0 24.5 -5.5
t7.5 -14.5q-10 -39 -43 -68t-79.5 -44.5t-93.5 -15.5q-64 0 -107 28t-43 81q0 15 5 32zM143 325q28 0 53 18.5t33 46.5q2 12 2 17q0 17 -11.5 27.5t-30.5 10.5q-26 0 -49.5 -18.5t-31.5 -44.5l-8 -28q-1 -3 -1 -10q0 -8 5 -13.5t14 -5.5h25z" />
    <glyph glyph-name="Ebreve" unicode="&#x114;" horiz-adv-x="556" 
d="M299 771q-69 0 -108.5 33.5t-44.5 100.5h54q4 -35 24.5 -49t76.5 -14q49 0 73 15.5t28 47.5h55q-6 -64 -48 -99t-110 -35zM79.5 -111.5q-53.5 29.5 -84 81.5t-30.5 118q0 73 37.5 145t100.5 128.5t138 85.5q-21 21 -32 50t-11 61q0 64 40 124t102.5 96.5t125.5 36.5
q69 0 113.5 -44t44.5 -112q0 -45 -22 -84.5t-58.5 -63t-76.5 -23.5t-67.5 27t-27.5 67q0 10 4 30q2 7 11.5 11t20.5 4q23 0 30 -12q4 -6 4.5 -10t0.5 -8v-7q0 -15 9.5 -23.5t25.5 -8.5q33 0 54 27t21 67q0 42 -27 67.5t-72 25.5t-88 -25.5t-70 -67t-27 -86.5q0 -43 27 -69
t73 -25q14 0 14 -20q0 -16 -9 -33t-20 -17q-79 0 -152.5 -45t-119.5 -116.5t-46 -145.5t48.5 -120t127.5 -46q72 0 146 42.5t122 108.5t48 132q0 45 -29.5 72.5t-77.5 27.5q-41 0 -81 -20t-70 -54t-42 -74q-2 -8 -13.5 -12t-25.5 -4q-15 0 -24.5 5t-6.5 15q16 57 58.5 106
t100.5 78.5t115 29.5h1q47 0 85 -21.5t59.5 -58.5t21.5 -83q0 -85 -60.5 -169t-154 -137.5t-184.5 -53.5q-67 0 -120.5 29.5z" />
    <glyph glyph-name="ebreve" unicode="&#x115;" horiz-adv-x="563" 
d="M292 606q-69 0 -108.5 33.5t-44.5 100.5h54q4 -35 24.5 -49t76.5 -14q49 0 73 15.5t28 47.5h55q-6 -64 -48 -99t-110 -35zM-35 128l75 262q9 32 34.5 61t59.5 46.5t67 17.5q43 0 72 -29t29 -72q0 -38 -25 -75t-64.5 -60.5t-80.5 -23.5h-34q-26 0 -33 -25l-32 -110
q-2 -12 -2 -15q0 -24 23.5 -36t60.5 -12q46 0 89 17t52 44q3 8 14 12.5t24 4.5q15 0 24.5 -5.5t7.5 -14.5q-10 -39 -43 -68t-79.5 -44.5t-93.5 -15.5q-64 0 -107 28t-43 81q0 15 5 32zM143 325q28 0 53 18.5t33 46.5q2 12 2 17q0 17 -11.5 27.5t-30.5 10.5
q-26 0 -49.5 -18.5t-31.5 -44.5l-8 -28q-1 -3 -1 -10q0 -8 5 -13.5t14 -5.5h25z" />
    <glyph glyph-name="Edotaccent" unicode="&#x116;" horiz-adv-x="556" 
d="M253 832q0 29 15 42.5t37 13.5q21 0 36 -13.5t15 -42.5t-15.5 -42.5t-35.5 -13.5q-22 0 -37 13.5t-15 42.5zM79.5 -111.5q-53.5 29.5 -84 81.5t-30.5 118q0 73 37.5 145t100.5 128.5t138 85.5q-21 21 -32 50t-11 61q0 64 40 124t102.5 96.5t125.5 36.5q69 0 113.5 -44
t44.5 -112q0 -45 -22 -84.5t-58.5 -63t-76.5 -23.5t-67.5 27t-27.5 67q0 10 4 30q2 7 11.5 11t20.5 4q23 0 30 -12q4 -6 4.5 -10t0.5 -8v-7q0 -15 9.5 -23.5t25.5 -8.5q33 0 54 27t21 67q0 42 -27 67.5t-72 25.5t-88 -25.5t-70 -67t-27 -86.5q0 -43 27 -69t73 -25
q14 0 14 -20q0 -16 -9 -33t-20 -17q-79 0 -152.5 -45t-119.5 -116.5t-46 -145.5t48.5 -120t127.5 -46q72 0 146 42.5t122 108.5t48 132q0 45 -29.5 72.5t-77.5 27.5q-41 0 -81 -20t-70 -54t-42 -74q-2 -8 -13.5 -12t-25.5 -4q-15 0 -24.5 5t-6.5 15q16 57 58.5 106
t100.5 78.5t115 29.5h1q47 0 85 -21.5t59.5 -58.5t21.5 -83q0 -85 -60.5 -169t-154 -137.5t-184.5 -53.5q-67 0 -120.5 29.5z" />
    <glyph glyph-name="edotaccent" unicode="&#x117;" horiz-adv-x="563" 
d="M243 681q0 29 15 42.5t37 13.5q21 0 36 -13.5t15 -42.5t-15.5 -42.5t-35.5 -13.5q-22 0 -37 13.5t-15 42.5zM-35 128l75 262q9 32 34.5 61t59.5 46.5t67 17.5q43 0 72 -29t29 -72q0 -38 -25 -75t-64.5 -60.5t-80.5 -23.5h-34q-26 0 -33 -25l-32 -110q-2 -12 -2 -15
q0 -24 23.5 -36t60.5 -12q46 0 89 17t52 44q3 8 14 12.5t24 4.5q15 0 24.5 -5.5t7.5 -14.5q-10 -39 -43 -68t-79.5 -44.5t-93.5 -15.5q-64 0 -107 28t-43 81q0 15 5 32zM143 325q28 0 53 18.5t33 46.5q2 12 2 17q0 17 -11.5 27.5t-30.5 10.5q-26 0 -49.5 -18.5t-31.5 -44.5
l-8 -28q-1 -3 -1 -10q0 -8 5 -13.5t14 -5.5h25z" />
    <glyph glyph-name="Eogonek" unicode="&#x118;" horiz-adv-x="556" 
d="M392 -116q0 -22 12 -33.5t33 -11.5t48 6v-56q-34 -9 -62 -9q-103 0 -103 94q0 68 78 126h62q-34 -32 -51 -58.5t-17 -57.5zM79.5 -111.5q-53.5 29.5 -84 81.5t-30.5 118q0 73 37.5 145t100.5 128.5t138 85.5q-21 21 -32 50t-11 61q0 64 40 124t102.5 96.5t125.5 36.5
q69 0 113.5 -44t44.5 -112q0 -45 -22 -84.5t-58.5 -63t-76.5 -23.5t-67.5 27t-27.5 67q0 10 4 30q2 7 11.5 11t20.5 4q23 0 30 -12q4 -6 4.5 -10t0.5 -8v-7q0 -15 9.5 -23.5t25.5 -8.5q33 0 54 27t21 67q0 42 -27 67.5t-72 25.5t-88 -25.5t-70 -67t-27 -86.5q0 -43 27 -69
t73 -25q14 0 14 -20q0 -16 -9 -33t-20 -17q-79 0 -152.5 -45t-119.5 -116.5t-46 -145.5t48.5 -120t127.5 -46q72 0 146 42.5t122 108.5t48 132q0 45 -29.5 72.5t-77.5 27.5q-41 0 -81 -20t-70 -54t-42 -74q-2 -8 -13.5 -12t-25.5 -4q-15 0 -24.5 5t-6.5 15q16 57 58.5 106
t100.5 78.5t115 29.5h1q47 0 85 -21.5t59.5 -58.5t21.5 -83q0 -85 -60.5 -169t-154 -137.5t-184.5 -53.5q-67 0 -120.5 29.5z" />
    <glyph glyph-name="eogonek" unicode="&#x119;" horiz-adv-x="563" 
d="M387 -102q0 -22 12 -33.5t33 -11.5t48 6v-56q-34 -9 -62 -9q-103 0 -103 94q0 68 78 126h62q-34 -32 -51 -58.5t-17 -57.5zM-35 128l75 262q9 32 34.5 61t59.5 46.5t67 17.5q43 0 72 -29t29 -72q0 -38 -25 -75t-64.5 -60.5t-80.5 -23.5h-34q-26 0 -33 -25l-32 -110
q-2 -12 -2 -15q0 -24 23.5 -36t60.5 -12q46 0 89 17t52 44q3 8 14 12.5t24 4.5q15 0 24.5 -5.5t7.5 -14.5q-10 -39 -43 -68t-79.5 -44.5t-93.5 -15.5q-64 0 -107 28t-43 81q0 15 5 32zM143 325q28 0 53 18.5t33 46.5q2 12 2 17q0 17 -11.5 27.5t-30.5 10.5
q-26 0 -49.5 -18.5t-31.5 -44.5l-8 -28q-1 -3 -1 -10q0 -8 5 -13.5t14 -5.5h25z" />
    <glyph glyph-name="Ecaron" unicode="&#x11a;" horiz-adv-x="556" 
d="M133 931h60q56 -36 107 -92q62 62 109 92h62v-13q-100 -100 -125 -147h-90q-29 50 -123 147v13zM79.5 -111.5q-53.5 29.5 -84 81.5t-30.5 118q0 73 37.5 145t100.5 128.5t138 85.5q-21 21 -32 50t-11 61q0 64 40 124t102.5 96.5t125.5 36.5q69 0 113.5 -44t44.5 -112
q0 -45 -22 -84.5t-58.5 -63t-76.5 -23.5t-67.5 27t-27.5 67q0 10 4 30q2 7 11.5 11t20.5 4q23 0 30 -12q4 -6 4.5 -10t0.5 -8v-7q0 -15 9.5 -23.5t25.5 -8.5q33 0 54 27t21 67q0 42 -27 67.5t-72 25.5t-88 -25.5t-70 -67t-27 -86.5q0 -43 27 -69t73 -25q14 0 14 -20
q0 -16 -9 -33t-20 -17q-79 0 -152.5 -45t-119.5 -116.5t-46 -145.5t48.5 -120t127.5 -46q72 0 146 42.5t122 108.5t48 132q0 45 -29.5 72.5t-77.5 27.5q-41 0 -81 -20t-70 -54t-42 -74q-2 -8 -13.5 -12t-25.5 -4q-15 0 -24.5 5t-6.5 15q16 57 58.5 106t100.5 78.5t115 29.5
h1q47 0 85 -21.5t59.5 -58.5t21.5 -83q0 -85 -60.5 -169t-154 -137.5t-184.5 -53.5q-67 0 -120.5 29.5z" />
    <glyph glyph-name="ecaron" unicode="&#x11b;" horiz-adv-x="563" 
d="M126 766h60q56 -36 107 -92q62 62 109 92h62v-13q-100 -100 -125 -147h-90q-29 50 -123 147v13zM-35 128l75 262q9 32 34.5 61t59.5 46.5t67 17.5q43 0 72 -29t29 -72q0 -38 -25 -75t-64.5 -60.5t-80.5 -23.5h-34q-26 0 -33 -25l-32 -110q-2 -12 -2 -15q0 -24 23.5 -36
t60.5 -12q46 0 89 17t52 44q3 8 14 12.5t24 4.5q15 0 24.5 -5.5t7.5 -14.5q-10 -39 -43 -68t-79.5 -44.5t-93.5 -15.5q-64 0 -107 28t-43 81q0 15 5 32zM143 325q28 0 53 18.5t33 46.5q2 12 2 17q0 17 -11.5 27.5t-30.5 10.5q-26 0 -49.5 -18.5t-31.5 -44.5l-8 -28
q-1 -3 -1 -10q0 -8 5 -13.5t14 -5.5h25z" />
    <glyph glyph-name="Gcircumflex" unicode="&#x11c;" horiz-adv-x="728" 
d="M248 782q61 65 86 96.5t37 52.5h90q25 -49 125 -149v-11h-62q-44 26 -109 90q-64 -62 -107 -90h-60v11zM284 -214q-11 -4 -25 -4q-16 0 -25.5 5t-6.5 15l20 72l2 12q0 16 -14 16q-6 0 -18 -5q-56 -28 -109 -28q-47 0 -84.5 20.5t-58.5 57t-21 82.5q0 29 9 57l149 520
q15 55 57.5 103t99.5 77t112 29q71 0 117 -45.5t46 -115.5q0 -30 -7 -55q-2 -8 -12.5 -12t-23.5 -4q-16 0 -26.5 5.5t-7.5 15.5q7 26 7 43q0 44 -29 71t-76 27q-40 0 -79.5 -20t-69 -53.5t-40.5 -73.5l-149 -520q-6 -22 -6 -41q0 -44 28.5 -71t75.5 -27q40 0 79.5 20
t69.5 53.5t41 73.5l38 136q2 8 12 12.5t23 4.5q16 0 27 -6t8 -15l-120 -420q-2 -8 -13 -12z" />
    <glyph glyph-name="gcircumflex" unicode="&#x11d;" horiz-adv-x="615" 
d="M132 617q61 65 86 96.5t37 52.5h90q25 -49 125 -149v-11h-62q-44 26 -109 90q-64 -62 -107 -90h-60v11zM-72 -186q-29 29 -29 73q0 19 4 32q1 7 13 11.5t26 4.5q15 0 25 -5.5t6 -15.5q-3 -11 -3 -19q0 -19 11 -29.5t31 -10.5q28 0 52.5 18.5t32.5 46.5l18 64l1 4
q0 8 -11 5q-26 -8 -46 -8q-43 0 -72 29t-29 72q0 20 5 34l76 267q10 34 36 63.5t60.5 47t67.5 17.5q28 0 51 -14q3 2 10.5 6t16.5 8t21 4q14 0 24 -6t8 -15l-169 -586q-9 -33 -35 -62.5t-60.5 -47t-68.5 -17.5q-44 0 -73 29zM122.5 74q24.5 19 32.5 46l76 267q2 12 2 18
q0 18 -11.5 29t-30.5 11q-27 0 -51.5 -19t-32.5 -47l-76 -267q-3 -10 -3 -19q0 -17 11.5 -27.5t31.5 -10.5q27 0 51.5 19zM205 3q0 17 9.5 34.5t20.5 17.5q26 1 49.5 19t32.5 44q3 8 13.5 12.5t23.5 4.5q15 0 25.5 -5.5t7.5 -14.5q-9 -34 -36 -64.5t-63 -48.5t-70 -17
q-13 0 -13 18z" />
    <glyph glyph-name="Gbreve" unicode="&#x11e;" horiz-adv-x="728" 
d="M414 771q-69 0 -108.5 33.5t-44.5 100.5h54q4 -35 24.5 -49t76.5 -14q49 0 73 15.5t28 47.5h55q-6 -64 -48 -99t-110 -35zM284 -214q-11 -4 -25 -4q-16 0 -25.5 5t-6.5 15l20 72l2 12q0 16 -14 16q-6 0 -18 -5q-56 -28 -109 -28q-47 0 -84.5 20.5t-58.5 57t-21 82.5
q0 29 9 57l149 520q15 55 57.5 103t99.5 77t112 29q71 0 117 -45.5t46 -115.5q0 -30 -7 -55q-2 -8 -12.5 -12t-23.5 -4q-16 0 -26.5 5.5t-7.5 15.5q7 26 7 43q0 44 -29 71t-76 27q-40 0 -79.5 -20t-69 -53.5t-40.5 -73.5l-149 -520q-6 -22 -6 -41q0 -44 28.5 -71t75.5 -27
q40 0 79.5 20t69.5 53.5t41 73.5l38 136q2 8 12 12.5t23 4.5q16 0 27 -6t8 -15l-120 -420q-2 -8 -13 -12z" />
    <glyph glyph-name="gbreve" unicode="&#x11f;" horiz-adv-x="615" 
d="M300 606q-69 0 -108.5 33.5t-44.5 100.5h54q4 -35 24.5 -49t76.5 -14q49 0 73 15.5t28 47.5h55q-6 -64 -48 -99t-110 -35zM-72 -186q-29 29 -29 73q0 19 4 32q1 7 13 11.5t26 4.5q15 0 25 -5.5t6 -15.5q-3 -11 -3 -19q0 -19 11 -29.5t31 -10.5q28 0 52.5 18.5t32.5 46.5
l18 64l1 4q0 8 -11 5q-26 -8 -46 -8q-43 0 -72 29t-29 72q0 20 5 34l76 267q10 34 36 63.5t60.5 47t67.5 17.5q28 0 51 -14q3 2 10.5 6t16.5 8t21 4q14 0 24 -6t8 -15l-169 -586q-9 -33 -35 -62.5t-60.5 -47t-68.5 -17.5q-44 0 -73 29zM122.5 74q24.5 19 32.5 46l76 267
q2 12 2 18q0 18 -11.5 29t-30.5 11q-27 0 -51.5 -19t-32.5 -47l-76 -267q-3 -10 -3 -19q0 -17 11.5 -27.5t31.5 -10.5q27 0 51.5 19zM205 3q0 17 9.5 34.5t20.5 17.5q26 1 49.5 19t32.5 44q3 8 13.5 12.5t23.5 4.5q15 0 25.5 -5.5t7.5 -14.5q-9 -34 -36 -64.5t-63 -48.5
t-70 -17q-13 0 -13 18z" />
    <glyph glyph-name="Gdotaccent" unicode="&#x120;" horiz-adv-x="728" 
d="M371 846q0 29 15 42.5t37 13.5q21 0 36 -13.5t15 -42.5t-15.5 -42.5t-35.5 -13.5q-22 0 -37 13.5t-15 42.5zM284 -214q-11 -4 -25 -4q-16 0 -25.5 5t-6.5 15l20 72l2 12q0 16 -14 16q-6 0 -18 -5q-56 -28 -109 -28q-47 0 -84.5 20.5t-58.5 57t-21 82.5q0 29 9 57l149 520
q15 55 57.5 103t99.5 77t112 29q71 0 117 -45.5t46 -115.5q0 -30 -7 -55q-2 -8 -12.5 -12t-23.5 -4q-16 0 -26.5 5.5t-7.5 15.5q7 26 7 43q0 44 -29 71t-76 27q-40 0 -79.5 -20t-69 -53.5t-40.5 -73.5l-149 -520q-6 -22 -6 -41q0 -44 28.5 -71t75.5 -27q40 0 79.5 20
t69.5 53.5t41 73.5l38 136q2 8 12 12.5t23 4.5q16 0 27 -6t8 -15l-120 -420q-2 -8 -13 -12z" />
    <glyph glyph-name="gdotaccent" unicode="&#x121;" horiz-adv-x="615" 
d="M247 681q0 29 15 42.5t37 13.5q21 0 36 -13.5t15 -42.5t-15.5 -42.5t-35.5 -13.5q-22 0 -37 13.5t-15 42.5zM-72 -186q-29 29 -29 73q0 19 4 32q1 7 13 11.5t26 4.5q15 0 25 -5.5t6 -15.5q-3 -11 -3 -19q0 -19 11 -29.5t31 -10.5q28 0 52.5 18.5t32.5 46.5l18 64l1 4
q0 8 -11 5q-26 -8 -46 -8q-43 0 -72 29t-29 72q0 20 5 34l76 267q10 34 36 63.5t60.5 47t67.5 17.5q28 0 51 -14q3 2 10.5 6t16.5 8t21 4q14 0 24 -6t8 -15l-169 -586q-9 -33 -35 -62.5t-60.5 -47t-68.5 -17.5q-44 0 -73 29zM122.5 74q24.5 19 32.5 46l76 267q2 12 2 18
q0 18 -11.5 29t-30.5 11q-27 0 -51.5 -19t-32.5 -47l-76 -267q-3 -10 -3 -19q0 -17 11.5 -27.5t31.5 -10.5q27 0 51.5 19zM205 3q0 17 9.5 34.5t20.5 17.5q26 1 49.5 19t32.5 44q3 8 13.5 12.5t23.5 4.5q15 0 25.5 -5.5t7.5 -14.5q-9 -34 -36 -64.5t-63 -48.5t-70 -17
q-13 0 -13 18z" />
    <glyph glyph-name="uni0122" unicode="&#x122;" horiz-adv-x="728" 
d="M322 -209q11 25 24 70.5t17 77.5h87v-9q-8 -31 -31.5 -76.5t-48.5 -74.5h-48v12zM284 -214q-11 -4 -25 -4q-16 0 -25.5 5t-6.5 15l20 72l2 12q0 16 -14 16q-6 0 -18 -5q-56 -28 -109 -28q-47 0 -84.5 20.5t-58.5 57t-21 82.5q0 29 9 57l149 520q15 55 57.5 103t99.5 77
t112 29q71 0 117 -45.5t46 -115.5q0 -30 -7 -55q-2 -8 -12.5 -12t-23.5 -4q-16 0 -26.5 5.5t-7.5 15.5q7 26 7 43q0 44 -29 71t-76 27q-40 0 -79.5 -20t-69 -53.5t-40.5 -73.5l-149 -520q-6 -22 -6 -41q0 -44 28.5 -71t75.5 -27q40 0 79.5 20t69.5 53.5t41 73.5l38 136
q2 8 12 12.5t23 4.5q16 0 27 -6t8 -15l-120 -420q-2 -8 -13 -12z" />
    <glyph glyph-name="uni0123" unicode="&#x123;" horiz-adv-x="615" 
d="M379 754q-13 -29 -26 -74.5t-16 -73.5h-87v9q7 27 31.5 74t48.5 77h49v-12zM-72 -186q-29 29 -29 73q0 19 4 32q1 7 13 11.5t26 4.5q15 0 25 -5.5t6 -15.5q-3 -11 -3 -19q0 -19 11 -29.5t31 -10.5q28 0 52.5 18.5t32.5 46.5l18 64l1 4q0 8 -11 5q-26 -8 -46 -8
q-43 0 -72 29t-29 72q0 20 5 34l76 267q10 34 36 63.5t60.5 47t67.5 17.5q28 0 51 -14q3 2 10.5 6t16.5 8t21 4q14 0 24 -6t8 -15l-169 -586q-9 -33 -35 -62.5t-60.5 -47t-68.5 -17.5q-44 0 -73 29zM122.5 74q24.5 19 32.5 46l76 267q2 12 2 18q0 18 -11.5 29t-30.5 11
q-27 0 -51.5 -19t-32.5 -47l-76 -267q-3 -10 -3 -19q0 -17 11.5 -27.5t31.5 -10.5q27 0 51.5 19zM205 3q0 17 9.5 34.5t20.5 17.5q26 1 49.5 19t32.5 44q3 8 13.5 12.5t23.5 4.5q15 0 25.5 -5.5t7.5 -14.5q-9 -34 -36 -64.5t-63 -48.5t-70 -17q-13 0 -13 18z" />
    <glyph glyph-name="Hcircumflex" unicode="&#x124;" horiz-adv-x="741" 
d="M200 782q61 65 86 96.5t37 52.5h90q25 -49 125 -149v-11h-62q-44 26 -109 90q-64 -62 -107 -90h-60v11zM75.5 -183q-58.5 32 -91.5 89t-33 130q0 44 14 91q26 90 93.5 167t157.5 122t180 45q14 0 14 -20q0 -16 -9 -33t-20 -17q-74 0 -146.5 -36.5t-126.5 -99t-75 -136.5
q-11 -42 -11 -77q0 -84 54.5 -135.5t143.5 -51.5q74 0 147 36t127.5 98.5t76.5 137.5l158 551q2 14 2 20q0 22 -12 35t-31 12q-14 0 -14 18q0 17 9.5 34.5t20.5 17.5q42 -1 70 -32.5t28 -77.5q0 -21 -5 -35l-57 -201q-2 -8 -2 -11q0 -11 7 -17t20 -6h184q26 0 33 25l98 342
q2 8 12 12.5t23 4.5q16 0 27 -6t8 -15l-231 -802q-2 -14 -2 -19q0 -22 12 -36t31 -12q13 1 13 -17q0 -16 -9.5 -34.5t-19.5 -18.5q-42 1 -70 32.5t-28 77.5q0 21 5 35l93 327q2 8 2 11q0 11 -7 17t-20 6h-184q-26 0 -33 -25l-63 -221q-26 -90 -93 -167t-157 -122t-180 -45
q-75 0 -133.5 32z" />
    <glyph glyph-name="hcircumflex" unicode="&#x125;" horiz-adv-x="618" 
d="M143 809q61 65 86 96.5t37 52.5h90q25 -49 125 -149v-11h-62q-44 26 -109 90q-64 -62 -107 -90h-60v11zM180 14q-29 29 -29 72q0 20 5 34l76 267q2 12 2 18q0 18 -11.5 29t-30.5 11q-27 0 -51.5 -19t-32.5 -47l-109 -381q-2 -8 -13.5 -12t-25.5 -4q-15 0 -24.5 5t-6.5 15
l201 700q2 8 13.5 12t25.5 4q15 0 24.5 -5t6.5 -15l-45 -158q-2 -10 -2 -14q0 -20 20 -15q15 4 31 4q43 0 72 -29t29 -73q0 -20 -5 -34l-76 -267q-2 -7 -2 -18q0 -18 11.5 -28.5t30.5 -10.5q27 0 51 18t33 45q3 8 13.5 12.5t23.5 4.5q15 0 25.5 -5.5t7.5 -14.5
q-9 -34 -35.5 -64t-61.5 -48t-69 -18q-43 0 -72 29z" />
    <glyph glyph-name="Hbar" unicode="&#x126;" horiz-adv-x="741" 
d="M97 595v119h90v-119h366v119h90v-119h97v-72h-97v-523h-90v333h-366v-333h-90v523h-97v72h97zM553 412v111h-366v-111h366z" />
    <glyph glyph-name="hbar" unicode="&#x127;" horiz-adv-x="618" 
d="M450 0v323q0 65 -29 97t-91 32q-83 0 -120 -45t-37 -149v-258h-88v604h-76v66h76v90h88v-90h212v-66h-212v-87q0 -43 -5 -74h6q26 42 70.5 62.5t97.5 20.5q97 0 146 -47t49 -150v-329h-87z" />
    <glyph glyph-name="Itilde" unicode="&#x128;" horiz-adv-x="338" 
d="M244 772q-21 0 -41 9t-39.5 19.5t-37 19.5t-34.5 9q-24 0 -36 -14.5t-19 -43.5h-51q6 60 34 94t76 34q22 0 42.5 -9t39.5 -19.5t37 -19.5t33 -9q23 0 35.5 14.5t19.5 43.5h50q-6 -58 -34 -93t-75 -35zM75.5 -183q-58.5 32 -91.5 89t-33 130q0 44 14 91q26 90 93.5 167
t157.5 122t180 45q14 0 14 -20q0 -16 -9 -33t-20 -17q-74 0 -146.5 -36.5t-126.5 -99t-75 -136.5q-11 -42 -11 -77q0 -84 54.5 -135.5t143.5 -51.5q74 0 147 36t127.5 98.5t76.5 137.5l161 563q5 15 7 19q4 9 4 18q0 17 -25 16q-123 -11 -211.5 -78t-120.5 -170
q-3 -8 -13.5 -12t-23.5 -4q-15 0 -25.5 5.5t-7.5 14.5q26 89 93.5 161t157.5 113.5t182 41.5h146q14 0 14 -18q0 -16 -10 -33.5t-21 -18.5q-25 -1 -48 -19.5t-30 -43.5l-161 -563q-26 -90 -93 -167t-157 -122t-180 -45q-75 0 -133.5 32z" />
    <glyph glyph-name="itilde" unicode="&#x129;" horiz-adv-x="257" 
d="M204 607q-21 0 -41 9t-39.5 19.5t-37 19.5t-34.5 9q-24 0 -36 -14.5t-19 -43.5h-51q6 60 34 94t76 34q22 0 42.5 -9t39.5 -19.5t37 -19.5t33 -9q23 0 35.5 14.5t19.5 43.5h50q-6 -58 -34 -93t-75 -35zM173 0h-88v536h88v-536z" />
    <glyph glyph-name="Imacron" unicode="&#x12a;" horiz-adv-x="338" 
d="M21 842h297v-71h-297v71zM75.5 -183q-58.5 32 -91.5 89t-33 130q0 44 14 91q26 90 93.5 167t157.5 122t180 45q14 0 14 -20q0 -16 -9 -33t-20 -17q-74 0 -146.5 -36.5t-126.5 -99t-75 -136.5q-11 -42 -11 -77q0 -84 54.5 -135.5t143.5 -51.5q74 0 147 36t127.5 98.5
t76.5 137.5l161 563q5 15 7 19q4 9 4 18q0 17 -25 16q-123 -11 -211.5 -78t-120.5 -170q-3 -8 -13.5 -12t-23.5 -4q-15 0 -25.5 5.5t-7.5 14.5q26 89 93.5 161t157.5 113.5t182 41.5h146q14 0 14 -18q0 -16 -10 -33.5t-21 -18.5q-25 -1 -48 -19.5t-30 -43.5l-161 -563
q-26 -90 -93 -167t-157 -122t-180 -45q-75 0 -133.5 32z" />
    <glyph glyph-name="imacron" unicode="&#x12b;" horiz-adv-x="257" 
d="M-18 677h297v-71h-297v71zM173 0h-88v536h88v-536z" />
    <glyph glyph-name="Ibreve" unicode="&#x12c;" horiz-adv-x="338" 
d="M168 771q-69 0 -108.5 33.5t-44.5 100.5h54q4 -35 24.5 -49t76.5 -14q49 0 73 15.5t28 47.5h55q-6 -64 -48 -99t-110 -35zM75.5 -183q-58.5 32 -91.5 89t-33 130q0 44 14 91q26 90 93.5 167t157.5 122t180 45q14 0 14 -20q0 -16 -9 -33t-20 -17q-74 0 -146.5 -36.5
t-126.5 -99t-75 -136.5q-11 -42 -11 -77q0 -84 54.5 -135.5t143.5 -51.5q74 0 147 36t127.5 98.5t76.5 137.5l161 563q5 15 7 19q4 9 4 18q0 17 -25 16q-123 -11 -211.5 -78t-120.5 -170q-3 -8 -13.5 -12t-23.5 -4q-15 0 -25.5 5.5t-7.5 14.5q26 89 93.5 161t157.5 113.5
t182 41.5h146q14 0 14 -18q0 -16 -10 -33.5t-21 -18.5q-25 -1 -48 -19.5t-30 -43.5l-161 -563q-26 -90 -93 -167t-157 -122t-180 -45q-75 0 -133.5 32z" />
    <glyph glyph-name="ibreve" unicode="&#x12d;" horiz-adv-x="257" 
d="M126 606q-69 0 -108.5 33.5t-44.5 100.5h54q4 -35 24.5 -49t76.5 -14q49 0 73 15.5t28 47.5h55q-6 -64 -48 -99t-110 -35zM173 0h-88v536h88v-536z" />
    <glyph glyph-name="Iogonek" unicode="&#x12e;" horiz-adv-x="338" 
d="M160 -116q0 -22 12 -33.5t33 -11.5t48 6v-56q-34 -9 -62 -9q-103 0 -103 94q0 68 78 126h62q-34 -32 -51 -58.5t-17 -57.5zM75.5 -183q-58.5 32 -91.5 89t-33 130q0 44 14 91q26 90 93.5 167t157.5 122t180 45q14 0 14 -20q0 -16 -9 -33t-20 -17q-74 0 -146.5 -36.5
t-126.5 -99t-75 -136.5q-11 -42 -11 -77q0 -84 54.5 -135.5t143.5 -51.5q74 0 147 36t127.5 98.5t76.5 137.5l161 563q5 15 7 19q4 9 4 18q0 17 -25 16q-123 -11 -211.5 -78t-120.5 -170q-3 -8 -13.5 -12t-23.5 -4q-15 0 -25.5 5.5t-7.5 14.5q26 89 93.5 161t157.5 113.5
t182 41.5h146q14 0 14 -18q0 -16 -10 -33.5t-21 -18.5q-25 -1 -48 -19.5t-30 -43.5l-161 -563q-26 -90 -93 -167t-157 -122t-180 -45q-75 0 -133.5 32z" />
    <glyph glyph-name="iogonek" unicode="&#x12f;" horiz-adv-x="257" 
d="M97 -116q0 -22 12 -33.5t33 -11.5t48 6v-56q-34 -9 -62 -9q-103 0 -103 94q0 68 78 126h62q-34 -32 -51 -58.5t-17 -57.5zM146 543q-11 -4 -26 -4t-24.5 5t-6.5 15l12 42q2 8 13 12t25 4q15 0 25 -5t7 -15l-12 -42q-2 -8 -13 -12zM-12 14q-29 29 -29 72q0 20 5 34
l109 382q2 8 13.5 12t25.5 4q15 0 24.5 -5t6.5 -15l-111 -386q-2 -7 -2 -18q0 -18 11.5 -28.5t30.5 -10.5q27 0 51 18t33 45q3 8 13.5 12.5t23.5 4.5q15 0 25.5 -5.5t7.5 -14.5q-9 -34 -35.5 -64t-61.5 -48t-69 -18q-43 0 -72 29z" />
    <glyph glyph-name="Idotaccent" unicode="&#x130;" horiz-adv-x="338" 
d="M117 846q0 29 15 42.5t37 13.5q21 0 36 -13.5t15 -42.5t-15.5 -42.5t-35.5 -13.5q-22 0 -37 13.5t-15 42.5zM75.5 -183q-58.5 32 -91.5 89t-33 130q0 44 14 91q26 90 93.5 167t157.5 122t180 45q14 0 14 -20q0 -16 -9 -33t-20 -17q-74 0 -146.5 -36.5t-126.5 -99
t-75 -136.5q-11 -42 -11 -77q0 -84 54.5 -135.5t143.5 -51.5q74 0 147 36t127.5 98.5t76.5 137.5l161 563q5 15 7 19q4 9 4 18q0 17 -25 16q-123 -11 -211.5 -78t-120.5 -170q-3 -8 -13.5 -12t-23.5 -4q-15 0 -25.5 5.5t-7.5 14.5q26 89 93.5 161t157.5 113.5t182 41.5h146
q14 0 14 -18q0 -16 -10 -33.5t-21 -18.5q-25 -1 -48 -19.5t-30 -43.5l-161 -563q-26 -90 -93 -167t-157 -122t-180 -45q-75 0 -133.5 32z" />
    <glyph glyph-name="dotlessi" unicode="&#x131;" horiz-adv-x="257" 
d="M173 0h-88v536h88v-536z" />
    <glyph glyph-name="IJ" unicode="&#x132;" horiz-adv-x="611" 
d="M75.5 -183q-58.5 32 -91.5 89t-33 130q0 44 14 91q26 90 93.5 167t157.5 122t180 45q14 0 14 -20q0 -16 -9 -33t-20 -17q-74 0 -146.5 -36.5t-126.5 -99t-75 -136.5q-11 -42 -11 -77q0 -84 54.5 -135.5t143.5 -51.5q74 0 147 36t127.5 98.5t76.5 137.5l161 563q5 15 7 19
q4 9 4 18q0 17 -25 16q-123 -11 -211.5 -78t-120.5 -170q-3 -8 -13.5 -12t-23.5 -4q-15 0 -25.5 5.5t-7.5 14.5q26 89 93.5 161t157.5 113.5t182 41.5h146q14 0 14 -18q0 -16 -10 -33.5t-21 -18.5q-25 -1 -48 -19.5t-30 -43.5l-161 -563q-26 -90 -93 -167t-157 -122
t-180 -45q-75 0 -133.5 32zM414.5 -183q-58.5 32 -91.5 89t-33 130q0 44 14 91q26 90 93.5 167t157.5 122t180 45q14 0 14 -20q0 -16 -9 -33t-20 -17q-74 0 -146.5 -36.5t-126.5 -99t-75 -136.5q-11 -42 -11 -77q0 -84 54.5 -135.5t143.5 -51.5q74 0 147 36t127.5 98.5
t76.5 137.5l156 546l7 24v8q0 26 -31.5 39.5t-78.5 13.5q-61 0 -114.5 -20.5t-64.5 -54.5q-2 -8 -12.5 -12.5t-23.5 -4.5q-15 0 -25.5 5.5t-8.5 14.5q11 44 50 76t93 48.5t110 16.5q76 0 127 -29.5t51 -85.5q0 -12 -5 -30l-162 -563q-26 -90 -93 -167t-157 -122t-180 -45
q-75 0 -133.5 32z" />
    <glyph glyph-name="ij" unicode="&#x133;" horiz-adv-x="514" 
d="M146 543q-11 -4 -26 -4t-24.5 5t-6.5 15l12 42q2 8 13 12t25 4q15 0 25 -5t7 -15l-12 -42q-2 -8 -13 -12zM-12 14q-29 29 -29 72q0 20 5 34l109 382q2 8 13.5 12t25.5 4q15 0 24.5 -5t6.5 -15l-111 -386q-2 -7 -2 -18q0 -18 11.5 -28.5t30.5 -10.5q27 0 51 18t33 45
q3 8 13.5 12.5t23.5 4.5q15 0 25.5 -5.5t7.5 -14.5q-9 -34 -35.5 -64t-61.5 -48t-69 -18q-43 0 -72 29zM401.5 543q-10.5 -4 -24.5 -4q-15 0 -25 5t-7 15l12 42q3 8 13.5 12t24.5 4q15 0 25 -5t7 -15l-12 -42q-3 -8 -13.5 -12zM-7 -186q-29 29 -29 73q0 19 4 32q1 7 13 11.5
t26 4.5q15 0 25 -5.5t6 -15.5q-3 -11 -3 -19q0 -19 11 -29.5t31 -10.5q28 0 52.5 18.5t32.5 46.5l167 582q3 8 13.5 12t24.5 4q15 0 25 -5t7 -15l-169 -586q-9 -33 -35 -62.5t-60.5 -47t-68.5 -17.5q-44 0 -73 29zM270 3q0 17 9.5 34.5t20.5 17.5q26 1 49.5 19t32.5 44
q3 8 13.5 12.5t23.5 4.5q15 0 25.5 -5.5t7.5 -14.5q-9 -34 -36 -64.5t-63 -48.5t-70 -17q-13 0 -13 18z" />
    <glyph glyph-name="Jcircumflex" unicode="&#x134;" horiz-adv-x="272" 
d="M-31 782q61 65 86 96.5t37 52.5h90q25 -49 125 -149v-11h-62q-44 26 -109 90q-64 -62 -107 -90h-60v11zM75.5 -183q-58.5 32 -91.5 89t-33 130q0 44 14 91q26 90 93.5 167t157.5 122t180 45q14 0 14 -20q0 -16 -9 -33t-20 -17q-74 0 -146.5 -36.5t-126.5 -99t-75 -136.5
q-11 -42 -11 -77q0 -84 54.5 -135.5t143.5 -51.5q74 0 147 36t127.5 98.5t76.5 137.5l156 546l7 24v8q0 26 -31.5 39.5t-78.5 13.5q-61 0 -114.5 -20.5t-64.5 -54.5q-2 -8 -12.5 -12.5t-23.5 -4.5q-15 0 -25.5 5.5t-8.5 14.5q11 44 50 76t93 48.5t110 16.5q76 0 127 -29.5
t51 -85.5q0 -12 -5 -30l-162 -563q-26 -90 -93 -167t-157 -122t-180 -45q-75 0 -133.5 32z" />
    <glyph glyph-name="jcircumflex" unicode="&#x135;" horiz-adv-x="257" 
d="M-42 617q61 65 86 96.5t37 52.5h90q25 -49 125 -149v-11h-62q-44 26 -109 90q-64 -62 -107 -90h-60v11zM22 -240q-46 0 -77 12v71q34 -10 66 -10q38 0 56 21t18 63v619h88v-616q0 -80 -38.5 -120t-112.5 -40z" />
    <glyph glyph-name="uni0136" unicode="&#x136;" horiz-adv-x="619" 
d="M246 -209q11 25 24 70.5t17 77.5h87v-9q-8 -31 -31.5 -76.5t-48.5 -74.5h-48v12zM857 -108.5q-28 31.5 -28 77.5q0 21 5 35q36 128 36 207q0 74 -30 109.5t-102 42.5q-28 3 -35 -24l-98 -341q-2 -8 -12 -12.5t-23 -4.5q-16 0 -27 6t-8 15l195 677q11 42 11 77
q0 85 -53.5 136.5t-142.5 52.5q-75 0 -148 -36.5t-127.5 -98.5t-76.5 -136q-11 -42 -11 -77q0 -85 55 -137t144 -51q14 0 14 -20q0 -17 -8.5 -33.5t-19.5 -16.5q-74 0 -132.5 32t-91.5 89t-33 130q0 44 14 91q26 89 94 166t158 122.5t180 45.5q74 0 132.5 -32.5t91 -90
t32.5 -130.5q0 -44 -14 -92l-51 -179q-2 -8 -2 -11q0 -9 5 -15t14 -6q4 0 14 4q48 23 83 58.5t57.5 72t49.5 90.5q24 46 40.5 72t39.5 43t53 16q6 0 9 -5.5t3 -14.5q0 -16 -8 -32t-21 -18q-6 -2 -17 -18.5t-32 -57.5q-37 -73 -76.5 -130.5t-101.5 -102.5q-13 -9 -13 -18
t15 -18q82 -51 82 -181q0 -91 -39 -223q-2 -14 -2 -19q0 -22 12 -36t31 -12q13 1 13 -17q0 -16 -9.5 -34.5t-19.5 -18.5q-42 1 -70 32.5z" />
    <glyph glyph-name="uni0137" unicode="&#x137;" horiz-adv-x="534" 
d="M203 -209q11 25 24 70.5t17 77.5h87v-9q-8 -31 -31.5 -76.5t-48.5 -74.5h-48v12zM-14.5 -14q-11.5 -4 -25.5 -4q-15 0 -24.5 5t-6.5 15l201 700q3 8 13.5 12t24.5 4q15 0 25 -5t7 -15l-46 -158q-2 -10 -2 -14q0 -19 21 -15q15 4 32 4q46 0 72 -24.5t26 -67.5
q0 -59 -44 -117.5t-108 -86.5q-24 -9 -27 -32q-5 -33 -5 -57q0 -37 18.5 -57.5t45.5 -20.5q25 0 47.5 17.5t33.5 48.5q3 8 13.5 12.5t23.5 4.5q15 0 25 -5.5t8 -14.5q-15 -61 -60.5 -95.5t-99.5 -34.5q-53 0 -90 34.5t-37 98.5q0 32 6 69l-54 -189q-2 -8 -13.5 -12z
M201 335.5q33 36.5 33 75.5q0 34 -41 34q-27 0 -52 -19t-33 -46l-20 -72q-2 -8 -2 -11q0 -10 5 -15.5t14 -5.5q5 0 13 3q50 20 83 56.5z" />
    <glyph glyph-name="kgreenlandic" unicode="&#x138;" horiz-adv-x="534" 
d="M403 536h106l-203 -237l219 -299h-105l-176 242l-66 -54v-188h-93v536h93v-139q0 -68 -6 -135l41 50z" />
    <glyph glyph-name="Lacute" unicode="&#x139;" horiz-adv-x="523" 
d="M195 -19q0 1 -9 -5t-17 -17q-24 -35 -63.5 -58t-77.5 -23q-43 0 -72 28.5t-29 71.5q0 39 25 77t64.5 62t79.5 24q10 0 30 -4q8 -3 15 -3q17 0 23 20l135 472q16 55 58.5 103t99.5 77t112 29q47 0 84.5 -20.5t58.5 -57.5t21 -83q-2 -33 -8 -55q-2 -8 -12.5 -12t-24.5 -4
q-16 0 -27 5.5t-7 15.5q8 20 8 43q0 44 -29 71t-76 27q-40 0 -79 -20t-68.5 -53.5t-41.5 -73.5l-149 -519q-2 -10 -2 -13q0 -16 11 -27l33 -39q51 -63 90 -95t87 -32q66 0 149 74q4 4 10 4q12 0 24.5 -14.5t12.5 -26.5q0 -7 -4 -11q-107 -93 -199 -93q-125 0 -236 155z
M91 -33q24 19 32 46l3 10q2 10 2 14q0 17 -15 25q-14 9 -28 9h-1q-27 0 -52 -19t-32 -47q-2 -6 -2 -17q-1 -19 10.5 -29.5t31.5 -10.5q27 0 51 19zM118 783q19 23 47.5 66.5t47.5 81.5h106v-10q-21 -31 -66.5 -78.5t-76.5 -71.5h-58v12z" />
    <glyph glyph-name="lacute" unicode="&#x13a;" horiz-adv-x="257" 
d="M-12 14q-29 29 -29 72q0 20 5 34l166 582q3 8 13.5 12t24.5 4q15 0 25 -5t7 -15l-168 -586q-2 -7 -2 -18q0 -18 11.5 -28.5t30.5 -10.5q27 0 51 18t33 45q3 8 13.5 12.5t23.5 4.5q15 0 25.5 -5.5t7.5 -14.5q-9 -34 -35.5 -64t-61.5 -48t-69 -18q-43 0 -72 29zM81 811
q19 23 47.5 66.5t47.5 81.5h106v-10q-21 -31 -66.5 -78.5t-76.5 -71.5h-58v12z" />
    <glyph glyph-name="uni013B" unicode="&#x13b;" horiz-adv-x="523" 
d="M204 -209q11 25 24 70.5t17 77.5h87v-9q-8 -31 -31.5 -76.5t-48.5 -74.5h-48v12zM195 -19q0 1 -9 -5t-17 -17q-24 -35 -63.5 -58t-77.5 -23q-43 0 -72 28.5t-29 71.5q0 39 25 77t64.5 62t79.5 24q10 0 30 -4q8 -3 15 -3q17 0 23 20l135 472q16 55 58.5 103t99.5 77
t112 29q47 0 84.5 -20.5t58.5 -57.5t21 -83q-2 -33 -8 -55q-2 -8 -12.5 -12t-24.5 -4q-16 0 -27 5.5t-7 15.5q8 20 8 43q0 44 -29 71t-76 27q-40 0 -79 -20t-68.5 -53.5t-41.5 -73.5l-149 -519q-2 -10 -2 -13q0 -16 11 -27l33 -39q51 -63 90 -95t87 -32q66 0 149 74
q4 4 10 4q12 0 24.5 -14.5t12.5 -26.5q0 -7 -4 -11q-107 -93 -199 -93q-125 0 -236 155zM91 -33q24 19 32 46l3 10q2 10 2 14q0 17 -15 25q-14 9 -28 9h-1q-27 0 -52 -19t-32 -47q-2 -6 -2 -17q-1 -19 10.5 -29.5t31.5 -10.5q27 0 51 19z" />
    <glyph glyph-name="uni013C" unicode="&#x13c;" horiz-adv-x="257" 
d="M45 -209q11 25 24 70.5t17 77.5h87v-9q-8 -31 -31.5 -76.5t-48.5 -74.5h-48v12zM-12 14q-29 29 -29 72q0 20 5 34l166 582q3 8 13.5 12t24.5 4q15 0 25 -5t7 -15l-168 -586q-2 -7 -2 -18q0 -18 11.5 -28.5t30.5 -10.5q27 0 51 18t33 45q3 8 13.5 12.5t23.5 4.5
q15 0 25.5 -5.5t7.5 -14.5q-9 -34 -35.5 -64t-61.5 -48t-69 -18q-43 0 -72 29z" />
    <glyph glyph-name="Lcaron" unicode="&#x13d;" horiz-adv-x="523" 
d="M333 567q11 32 20.5 77.5t12.5 70.5h87v-9q-6 -26 -27 -71t-45 -80h-48v12zM195 -19q0 1 -9 -5t-17 -17q-24 -35 -63.5 -58t-77.5 -23q-43 0 -72 28.5t-29 71.5q0 39 25 77t64.5 62t79.5 24q10 0 30 -4q8 -3 15 -3q17 0 23 20l135 472q16 55 58.5 103t99.5 77t112 29
q47 0 84.5 -20.5t58.5 -57.5t21 -83q-2 -33 -8 -55q-2 -8 -12.5 -12t-24.5 -4q-16 0 -27 5.5t-7 15.5q8 20 8 43q0 44 -29 71t-76 27q-40 0 -79 -20t-68.5 -53.5t-41.5 -73.5l-149 -519q-2 -10 -2 -13q0 -16 11 -27l33 -39q51 -63 90 -95t87 -32q66 0 149 74q4 4 10 4
q12 0 24.5 -14.5t12.5 -26.5q0 -7 -4 -11q-107 -93 -199 -93q-125 0 -236 155zM91 -33q24 19 32 46l3 10q2 10 2 14q0 17 -15 25q-14 9 -28 9h-1q-27 0 -52 -19t-32 -47q-2 -6 -2 -17q-1 -19 10.5 -29.5t31.5 -10.5q27 0 51 19z" />
    <glyph glyph-name="lcaron" unicode="&#x13e;" horiz-adv-x="257" 
d="M219 612q11 32 20.5 77.5t12.5 70.5h87v-9q-6 -26 -27 -71t-45 -80h-48v12zM-12 14q-29 29 -29 72q0 20 5 34l166 582q3 8 13.5 12t24.5 4q15 0 25 -5t7 -15l-168 -586q-2 -7 -2 -18q0 -18 11.5 -28.5t30.5 -10.5q27 0 51 18t33 45q3 8 13.5 12.5t23.5 4.5
q15 0 25.5 -5.5t7.5 -14.5q-9 -34 -35.5 -64t-61.5 -48t-69 -18q-43 0 -72 29z" />
    <glyph glyph-name="Ldot" unicode="&#x13f;" horiz-adv-x="523" 
d="M332 357q0 29 15 42.5t37 13.5q21 0 36 -13.5t15 -42.5t-15.5 -42.5t-35.5 -13.5q-22 0 -37 13.5t-15 42.5zM195 -19q0 1 -9 -5t-17 -17q-24 -35 -63.5 -58t-77.5 -23q-43 0 -72 28.5t-29 71.5q0 39 25 77t64.5 62t79.5 24q10 0 30 -4q8 -3 15 -3q17 0 23 20l135 472
q16 55 58.5 103t99.5 77t112 29q47 0 84.5 -20.5t58.5 -57.5t21 -83q-2 -33 -8 -55q-2 -8 -12.5 -12t-24.5 -4q-16 0 -27 5.5t-7 15.5q8 20 8 43q0 44 -29 71t-76 27q-40 0 -79 -20t-68.5 -53.5t-41.5 -73.5l-149 -519q-2 -10 -2 -13q0 -16 11 -27l33 -39q51 -63 90 -95
t87 -32q66 0 149 74q4 4 10 4q12 0 24.5 -14.5t12.5 -26.5q0 -7 -4 -11q-107 -93 -199 -93q-125 0 -236 155zM91 -33q24 19 32 46l3 10q2 10 2 14q0 17 -15 25q-14 9 -28 9h-1q-27 0 -52 -19t-32 -47q-2 -6 -2 -17q-1 -19 10.5 -29.5t31.5 -10.5q27 0 51 19z" />
    <glyph glyph-name="ldot" unicode="&#x140;" horiz-adv-x="325" 
d="M240 333q0 29 15 42.5t37 13.5q21 0 36 -13.5t15 -42.5t-15.5 -42.5t-35.5 -13.5q-22 0 -37 13.5t-15 42.5zM-12 14q-29 29 -29 72q0 20 5 34l166 582q3 8 13.5 12t24.5 4q15 0 25 -5t7 -15l-168 -586q-2 -7 -2 -18q0 -18 11.5 -28.5t30.5 -10.5q27 0 51 18t33 45
q3 8 13.5 12.5t23.5 4.5q15 0 25.5 -5.5t7.5 -14.5q-9 -34 -35.5 -64t-61.5 -48t-69 -18q-43 0 -72 29z" />
    <glyph glyph-name="Lslash" unicode="&#x141;" horiz-adv-x="523" 
d="M97 0v247l-49 -28l-35 60l84 50v385h90v-332l137 81l36 -63l-173 -100v-220h312v-80h-402z" />
    <glyph glyph-name="lslash" unicode="&#x142;" horiz-adv-x="257" 
d="M166 425l64 44l37 -59l-101 -68v-342h-88v285l-51 -32l-36 59l87 56v392h88v-335z" />
    <glyph glyph-name="Nacute" unicode="&#x143;" horiz-adv-x="759" 
d="M875 -108.5q-28 31.5 -28 77.5q0 21 5 35l179 622q4 15 4 32q0 30 -16 52q-24 35 -73 35q-52 0 -101 -38q-48 -37 -62 -89l-178 -620q-2 -8 -13 -12t-25 -4q-16 0 -25.5 5t-6.5 15l174 605l5 18l16 54q11 42 11 77q0 85 -53.5 136.5t-142.5 52.5q-75 0 -148 -36.5
t-127.5 -98.5t-76.5 -136q-11 -42 -11 -77q0 -85 55 -137t144 -51q14 0 14 -20q0 -17 -8.5 -33.5t-19.5 -16.5q-74 0 -132.5 32t-91.5 89t-33 130q0 44 14 91q26 89 94 166t158 122.5t180 45.5q68 0 122.5 -27.5t88.5 -76.5t42 -113q3 -22 16 -22q7 0 16 6q60 33 117 33
q38 0 70 -15t52 -43q27 -37 27 -87q0 -25 -8 -52l-179 -622q-2 -14 -2 -19q0 -22 12 -36t31 -12q13 1 13 -17q0 -16 -9.5 -34.5t-19.5 -18.5q-42 1 -70 32.5zM318 783q19 23 47.5 66.5t47.5 81.5h106v-10q-21 -31 -66.5 -78.5t-76.5 -71.5h-58v12z" />
    <glyph glyph-name="nacute" unicode="&#x144;" horiz-adv-x="618" 
d="M180 14q-29 29 -29 72q0 20 5 34l76 267q2 12 2 18q0 18 -11.5 29t-30.5 11q-27 0 -51.5 -19t-32.5 -47l-109 -381q-2 -8 -13.5 -12t-25.5 -4q-15 0 -24.5 5t-6.5 15l144 500q5 16 36 16q16 0 25 -4q4 -2 9 -5t10 -3l8 2q26 7 43 7q43 0 72 -29t29 -73q0 -20 -5 -34
l-76 -267q-2 -7 -2 -18q0 -18 11.5 -28.5t30.5 -10.5q27 0 51 18t33 45q3 8 13 12t23 4q15 0 25.5 -5t8.5 -14q-9 -34 -35.5 -64t-61.5 -48t-69 -18q-43 0 -72 29zM250 618q19 23 47.5 66.5t47.5 81.5h106v-10q-21 -31 -66.5 -78.5t-76.5 -71.5h-58v12z" />
    <glyph glyph-name="uni0145" unicode="&#x145;" horiz-adv-x="759" 
d="M281 -209q11 25 24 70.5t17 77.5h87v-9q-8 -31 -31.5 -76.5t-48.5 -74.5h-48v12zM875 -108.5q-28 31.5 -28 77.5q0 21 5 35l179 622q4 15 4 32q0 30 -16 52q-24 35 -73 35q-52 0 -101 -38q-48 -37 -62 -89l-178 -620q-2 -8 -13 -12t-25 -4q-16 0 -25.5 5t-6.5 15l174 605
l5 18l16 54q11 42 11 77q0 85 -53.5 136.5t-142.5 52.5q-75 0 -148 -36.5t-127.5 -98.5t-76.5 -136q-11 -42 -11 -77q0 -85 55 -137t144 -51q14 0 14 -20q0 -17 -8.5 -33.5t-19.5 -16.5q-74 0 -132.5 32t-91.5 89t-33 130q0 44 14 91q26 89 94 166t158 122.5t180 45.5
q68 0 122.5 -27.5t88.5 -76.5t42 -113q3 -22 16 -22q7 0 16 6q60 33 117 33q38 0 70 -15t52 -43q27 -37 27 -87q0 -25 -8 -52l-179 -622q-2 -14 -2 -19q0 -22 12 -36t31 -12q13 1 13 -17q0 -16 -9.5 -34.5t-19.5 -18.5q-42 1 -70 32.5z" />
    <glyph glyph-name="uni0146" unicode="&#x146;" horiz-adv-x="618" 
d="M222 -209q11 25 24 70.5t17 77.5h87v-9q-8 -31 -31.5 -76.5t-48.5 -74.5h-48v12zM180 14q-29 29 -29 72q0 20 5 34l76 267q2 12 2 18q0 18 -11.5 29t-30.5 11q-27 0 -51.5 -19t-32.5 -47l-109 -381q-2 -8 -13.5 -12t-25.5 -4q-15 0 -24.5 5t-6.5 15l144 500q5 16 36 16
q16 0 25 -4q4 -2 9 -5t10 -3l8 2q26 7 43 7q43 0 72 -29t29 -73q0 -20 -5 -34l-76 -267q-2 -7 -2 -18q0 -18 11.5 -28.5t30.5 -10.5q27 0 51 18t33 45q3 8 13 12t23 4q15 0 25.5 -5t8.5 -14q-9 -34 -35.5 -64t-61.5 -48t-69 -18q-43 0 -72 29z" />
    <glyph glyph-name="Ncaron" unicode="&#x147;" horiz-adv-x="759" 
d="M211 931h60q56 -36 107 -92q62 62 109 92h62v-13q-100 -100 -125 -147h-90q-29 50 -123 147v13zM875 -108.5q-28 31.5 -28 77.5q0 21 5 35l179 622q4 15 4 32q0 30 -16 52q-24 35 -73 35q-52 0 -101 -38q-48 -37 -62 -89l-178 -620q-2 -8 -13 -12t-25 -4q-16 0 -25.5 5
t-6.5 15l174 605l5 18l16 54q11 42 11 77q0 85 -53.5 136.5t-142.5 52.5q-75 0 -148 -36.5t-127.5 -98.5t-76.5 -136q-11 -42 -11 -77q0 -85 55 -137t144 -51q14 0 14 -20q0 -17 -8.5 -33.5t-19.5 -16.5q-74 0 -132.5 32t-91.5 89t-33 130q0 44 14 91q26 89 94 166
t158 122.5t180 45.5q68 0 122.5 -27.5t88.5 -76.5t42 -113q3 -22 16 -22q7 0 16 6q60 33 117 33q38 0 70 -15t52 -43q27 -37 27 -87q0 -25 -8 -52l-179 -622q-2 -14 -2 -19q0 -22 12 -36t31 -12q13 1 13 -17q0 -16 -9.5 -34.5t-19.5 -18.5q-42 1 -70 32.5z" />
    <glyph glyph-name="ncaron" unicode="&#x148;" horiz-adv-x="618" 
d="M144 766h60q56 -36 107 -92q62 62 109 92h62v-13q-100 -100 -125 -147h-90q-29 50 -123 147v13zM180 14q-29 29 -29 72q0 20 5 34l76 267q2 12 2 18q0 18 -11.5 29t-30.5 11q-27 0 -51.5 -19t-32.5 -47l-109 -381q-2 -8 -13.5 -12t-25.5 -4q-15 0 -24.5 5t-6.5 15
l144 500q5 16 36 16q16 0 25 -4q4 -2 9 -5t10 -3l8 2q26 7 43 7q43 0 72 -29t29 -73q0 -20 -5 -34l-76 -267q-2 -7 -2 -18q0 -18 11.5 -28.5t30.5 -10.5q27 0 51 18t33 45q3 8 13 12t23 4q15 0 25.5 -5t8.5 -14q-9 -34 -35.5 -64t-61.5 -48t-69 -18q-43 0 -72 29z" />
    <glyph glyph-name="napostrophe" unicode="&#x149;" horiz-adv-x="690" 
d="M145 714l7 -11q-25 -97 -86 -234h-65q34 139 50 245h94zM251 14q-29 29 -29 72q0 20 5 34l76 267q2 12 2 18q0 18 -11.5 29t-30.5 11q-27 0 -51.5 -19t-32.5 -47l-109 -381q-2 -8 -13.5 -12t-25.5 -4q-15 0 -24.5 5t-6.5 15l144 500q5 16 36 16q16 0 25 -4q4 -2 9 -5
t10 -3l8 2q26 7 43 7q43 0 72 -29t29 -73q0 -20 -5 -34l-76 -267q-2 -7 -2 -18q0 -18 11.5 -28.5t30.5 -10.5q27 0 51 18t33 45q3 8 13 12t23 4q15 0 25.5 -5t8.5 -14q-9 -34 -35.5 -64t-61.5 -48t-69 -18q-43 0 -72 29z" />
    <glyph glyph-name="Eng" unicode="&#x14a;" horiz-adv-x="759" 
d="M475 -190q-48 0 -76 13v76q35 -10 76 -10q50 0 76.5 28.5t27.5 82.5l-403 593h-4q8 -125 8 -206v-387h-83v714h104l381 -572h4q-7 75 -7 200v372h84v-708q0 -96 -48.5 -146t-139.5 -50z" />
    <glyph glyph-name="eng" unicode="&#x14b;" horiz-adv-x="618" 
d="M394 -240q-42 0 -71 12v71q29 -10 60 -10q67 0 67 84v427q0 65 -29 96.5t-90 31.5q-83 0 -120.5 -45.5t-37.5 -147.5v-279h-88v536h71l14 -73h5q25 40 69 61.5t98 21.5q99 0 147.5 -46.5t48.5 -149.5v-430q0 -75 -35 -117.5t-109 -42.5z" />
    <glyph glyph-name="Omacron" unicode="&#x14c;" horiz-adv-x="780" 
d="M242 842h297v-71h-297v71zM23.5 -110.5q-37.5 20.5 -58.5 57t-21 82.5q0 29 9 57l149 520q15 55 57.5 103t99.5 77t112 29q71 0 117 -45.5t46 -115.5q0 -32 -8 -56l-149 -520q-16 -55 -58.5 -103.5t-99 -77t-111.5 -28.5q-47 0 -84.5 20.5zM198.5 -41q39.5 20 69.5 53.5
t41 73.5l149 520q6 21 6 41q0 44 -29 71t-76 27q-40 0 -79.5 -20t-69 -53.5t-40.5 -73.5l-149 -520q-6 -22 -6 -41q0 -44 28.5 -71t75.5 -27q40 0 79.5 20z" />
    <glyph glyph-name="omacron" unicode="&#x14d;" horiz-adv-x="604" 
d="M154 677h297v-71h-297v71zM-13 14q-29 29 -29 72q0 20 5 34l76 267q10 34 36 63.5t60.5 47t67.5 17.5q43 0 72 -29t29 -73q0 -20 -5 -34l-76 -267q-10 -33 -36 -62.5t-60.5 -47t-67.5 -17.5q-43 0 -72 29zM122.5 74q24.5 19 32.5 46l76 267q2 12 2 18q0 18 -11.5 29
t-30.5 11q-27 0 -51.5 -19t-32.5 -47l-76 -267q-3 -10 -3 -19q0 -17 11.5 -27.5t31.5 -10.5q27 0 51.5 19zM205 3q0 17 9.5 34.5t20.5 17.5q26 1 49.5 19t32.5 44q3 8 13.5 12.5t23.5 4.5q15 0 25.5 -5.5t7.5 -14.5q-9 -34 -36 -64.5t-63 -48.5t-70 -17q-13 0 -13 18z" />
    <glyph glyph-name="Obreve" unicode="&#x14e;" horiz-adv-x="780" 
d="M387 771q-69 0 -108.5 33.5t-44.5 100.5h54q4 -35 24.5 -49t76.5 -14q49 0 73 15.5t28 47.5h55q-6 -64 -48 -99t-110 -35zM23.5 -110.5q-37.5 20.5 -58.5 57t-21 82.5q0 29 9 57l149 520q15 55 57.5 103t99.5 77t112 29q71 0 117 -45.5t46 -115.5q0 -32 -8 -56l-149 -520
q-16 -55 -58.5 -103.5t-99 -77t-111.5 -28.5q-47 0 -84.5 20.5zM198.5 -41q39.5 20 69.5 53.5t41 73.5l149 520q6 21 6 41q0 44 -29 71t-76 27q-40 0 -79.5 -20t-69 -53.5t-40.5 -73.5l-149 -520q-6 -22 -6 -41q0 -44 28.5 -71t75.5 -27q40 0 79.5 20z" />
    <glyph glyph-name="obreve" unicode="&#x14f;" horiz-adv-x="604" 
d="M299 606q-69 0 -108.5 33.5t-44.5 100.5h54q4 -35 24.5 -49t76.5 -14q49 0 73 15.5t28 47.5h55q-6 -64 -48 -99t-110 -35zM-13 14q-29 29 -29 72q0 20 5 34l76 267q10 34 36 63.5t60.5 47t67.5 17.5q43 0 72 -29t29 -73q0 -20 -5 -34l-76 -267q-10 -33 -36 -62.5
t-60.5 -47t-67.5 -17.5q-43 0 -72 29zM122.5 74q24.5 19 32.5 46l76 267q2 12 2 18q0 18 -11.5 29t-30.5 11q-27 0 -51.5 -19t-32.5 -47l-76 -267q-3 -10 -3 -19q0 -17 11.5 -27.5t31.5 -10.5q27 0 51.5 19zM205 3q0 17 9.5 34.5t20.5 17.5q26 1 49.5 19t32.5 44
q3 8 13.5 12.5t23.5 4.5q15 0 25.5 -5.5t7.5 -14.5q-9 -34 -36 -64.5t-63 -48.5t-70 -17q-13 0 -13 18z" />
    <glyph glyph-name="Ohungarumlaut" unicode="&#x150;" horiz-adv-x="780" 
d="M246 783q17 22 42.5 65.5t44.5 82.5h96v-10q-16 -27 -58.5 -75t-74.5 -75h-50v12zM422 783q23 32 49 76.5t38 71.5h96v-10q-16 -27 -58.5 -75t-74.5 -75h-50v12zM23.5 -110.5q-37.5 20.5 -58.5 57t-21 82.5q0 29 9 57l149 520q15 55 57.5 103t99.5 77t112 29
q71 0 117 -45.5t46 -115.5q0 -32 -8 -56l-149 -520q-16 -55 -58.5 -103.5t-99 -77t-111.5 -28.5q-47 0 -84.5 20.5zM198.5 -41q39.5 20 69.5 53.5t41 73.5l149 520q6 21 6 41q0 44 -29 71t-76 27q-40 0 -79.5 -20t-69 -53.5t-40.5 -73.5l-149 -520q-6 -22 -6 -41
q0 -44 28.5 -71t75.5 -27q40 0 79.5 20z" />
    <glyph glyph-name="ohungarumlaut" unicode="&#x151;" horiz-adv-x="604" 
d="M154 618q17 22 42.5 65.5t44.5 82.5h96v-10q-16 -27 -58.5 -75t-74.5 -75h-50v12zM330 618q23 32 49 76.5t38 71.5h96v-10q-16 -27 -58.5 -75t-74.5 -75h-50v12zM-13 14q-29 29 -29 72q0 20 5 34l76 267q10 34 36 63.5t60.5 47t67.5 17.5q43 0 72 -29t29 -73
q0 -20 -5 -34l-76 -267q-10 -33 -36 -62.5t-60.5 -47t-67.5 -17.5q-43 0 -72 29zM122.5 74q24.5 19 32.5 46l76 267q2 12 2 18q0 18 -11.5 29t-30.5 11q-27 0 -51.5 -19t-32.5 -47l-76 -267q-3 -10 -3 -19q0 -17 11.5 -27.5t31.5 -10.5q27 0 51.5 19zM205 3q0 17 9.5 34.5
t20.5 17.5q26 1 49.5 19t32.5 44q3 8 13.5 12.5t23.5 4.5q15 0 25.5 -5.5t7.5 -14.5q-9 -34 -36 -64.5t-63 -48.5t-70 -17q-13 0 -13 18z" />
    <glyph glyph-name="OE" unicode="&#x152;" horiz-adv-x="928" 
d="M868 0h-380q-50 -10 -97 -10q-159 0 -244.5 96.5t-85.5 272.5q0 175 84 270.5t241 95.5q52 0 96 -11h386v-79h-287v-223h268v-78h-268v-255h287v-79zM394 646q-118 0 -178.5 -73.5t-60.5 -214.5t60.5 -215.5t177.5 -74.5q57 0 99 17v545q-41 16 -98 16z" />
    <glyph glyph-name="oe" unicode="&#x153;" horiz-adv-x="945" 
d="M699 -10q-142 0 -204 111q-31 -55 -82 -83t-117 -28q-110 0 -176 75.5t-66 203.5q0 130 64.5 203t180.5 73q63 0 113 -28t80 -82q29 53 76 81.5t109 28.5q100 0 158.5 -64.5t58.5 -176.5v-53h-356q4 -186 162 -186q44 0 81.5 7.5t88.5 29.5v-77q-45 -20 -83 -27.5
t-88 -7.5zM146 269q0 -102 35.5 -154t115.5 -52q78 0 114 51t36 151q0 104 -36.5 155.5t-115.5 51.5t-114 -51.5t-35 -151.5zM676 473q-60 0 -95 -38.5t-41 -113.5h261q0 74 -31.5 113t-93.5 39z" />
    <glyph glyph-name="Racute" unicode="&#x154;" horiz-adv-x="622" 
d="M75.5 -183q-58.5 32 -91.5 89t-33 130q0 44 14 91q26 90 93.5 167t157.5 122t180 45q14 0 14 -20q0 -16 -9 -33t-20 -17q-74 0 -146.5 -36.5t-126.5 -99t-75 -136.5q-11 -42 -11 -77q0 -84 54.5 -135.5t143.5 -51.5q74 0 147 36t127.5 98.5t76.5 137.5l167 584q4 12 4 22
q0 12 -7 12h-13q-14 0 -14 19q0 17 9.5 34t20.5 17h192q59 0 106.5 -26.5t74.5 -73t27 -104.5q0 -84 -53 -161t-135 -124t-165 -47q-12 0 -12 -14q0 -6 5 -21q9 -24 23 -80l6 -23q16 -69 30 -109.5t38 -67t62 -25.5q13 0 13 -19q0 -17 -9 -34t-19 -17q-59 0 -96.5 37.5
t-56 89t-37.5 129.5q-18 71 -26 94q-3 9 -8 13.5t-11 4.5q-15 0 -21 -22l-27 -96q-26 -90 -93 -167t-157 -122t-180 -45q-75 0 -133.5 32zM796 349q56 0 110.5 27t95.5 73.5t58 101.5q7 32 7 53q0 63 -41 102t-108 39h-73q-26 0 -33 -25l-97 -337q-2 -8 -2 -11q0 -11 7 -17
t20 -6h56zM249 783q19 23 47.5 66.5t47.5 81.5h106v-10q-21 -31 -66.5 -78.5t-76.5 -71.5h-58v12z" />
    <glyph glyph-name="racute" unicode="&#x155;" horiz-adv-x="413" 
d="M160.5 14.5q-29.5 29.5 -29.5 73.5q0 23 4 34l108 303l1 8q0 12 -15 12q-35 0 -65 10q-9 3 -16 3q-16 0 -22 -19l-94 -326q-3 -8 -13.5 -12t-24.5 -4q-15 0 -25 5t-7 15l133 463q3 15 29 15q10 0 19.5 -3t13.5 -8l1 -1q6 -10 5 -15v-6q0 -23 20 -35t58 -12q32 0 53 -21
t21 -53q0 -15 -4 -24l-107 -303q-3 -7 -3 -18q0 -19 12.5 -30t32.5 -11q28 0 52 18t33 45q3 8 13.5 12.5t23.5 4.5q15 0 25 -5.5t8 -14.5q-9 -34 -35 -64t-61.5 -48t-70.5 -18q-44 0 -73.5 29.5zM174 618q19 23 47.5 66.5t47.5 81.5h106v-10q-21 -31 -66.5 -78.5
t-76.5 -71.5h-58v12z" />
    <glyph glyph-name="uni0156" unicode="&#x156;" horiz-adv-x="622" 
d="M242 -209q11 25 24 70.5t17 77.5h87v-9q-8 -31 -31.5 -76.5t-48.5 -74.5h-48v12zM75.5 -183q-58.5 32 -91.5 89t-33 130q0 44 14 91q26 90 93.5 167t157.5 122t180 45q14 0 14 -20q0 -16 -9 -33t-20 -17q-74 0 -146.5 -36.5t-126.5 -99t-75 -136.5q-11 -42 -11 -77
q0 -84 54.5 -135.5t143.5 -51.5q74 0 147 36t127.5 98.5t76.5 137.5l167 584q4 12 4 22q0 12 -7 12h-13q-14 0 -14 19q0 17 9.5 34t20.5 17h192q59 0 106.5 -26.5t74.5 -73t27 -104.5q0 -84 -53 -161t-135 -124t-165 -47q-12 0 -12 -14q0 -6 5 -21q9 -24 23 -80l6 -23
q16 -69 30 -109.5t38 -67t62 -25.5q13 0 13 -19q0 -17 -9 -34t-19 -17q-59 0 -96.5 37.5t-56 89t-37.5 129.5q-18 71 -26 94q-3 9 -8 13.5t-11 4.5q-15 0 -21 -22l-27 -96q-26 -90 -93 -167t-157 -122t-180 -45q-75 0 -133.5 32zM796 349q56 0 110.5 27t95.5 73.5t58 101.5
q7 32 7 53q0 63 -41 102t-108 39h-73q-26 0 -33 -25l-97 -337q-2 -8 -2 -11q0 -11 7 -17t20 -6h56z" />
    <glyph glyph-name="uni0157" unicode="&#x157;" horiz-adv-x="413" 
d="M48 -209q11 25 24 70.5t17 77.5h87v-9q-8 -31 -31.5 -76.5t-48.5 -74.5h-48v12zM160.5 14.5q-29.5 29.5 -29.5 73.5q0 23 4 34l108 303l1 8q0 12 -15 12q-35 0 -65 10q-9 3 -16 3q-16 0 -22 -19l-94 -326q-3 -8 -13.5 -12t-24.5 -4q-15 0 -25 5t-7 15l133 463q3 15 29 15
q10 0 19.5 -3t13.5 -8l1 -1q6 -10 5 -15v-6q0 -23 20 -35t58 -12q32 0 53 -21t21 -53q0 -15 -4 -24l-107 -303q-3 -7 -3 -18q0 -19 12.5 -30t32.5 -11q28 0 52 18t33 45q3 8 13.5 12.5t23.5 4.5q15 0 25 -5.5t8 -14.5q-9 -34 -35 -64t-61.5 -48t-70.5 -18q-44 0 -73.5 29.5z
" />
    <glyph glyph-name="Rcaron" unicode="&#x158;" horiz-adv-x="622" 
d="M141 931h60q56 -36 107 -92q62 62 109 92h62v-13q-100 -100 -125 -147h-90q-29 50 -123 147v13zM75.5 -183q-58.5 32 -91.5 89t-33 130q0 44 14 91q26 90 93.5 167t157.5 122t180 45q14 0 14 -20q0 -16 -9 -33t-20 -17q-74 0 -146.5 -36.5t-126.5 -99t-75 -136.5
q-11 -42 -11 -77q0 -84 54.5 -135.5t143.5 -51.5q74 0 147 36t127.5 98.5t76.5 137.5l167 584q4 12 4 22q0 12 -7 12h-13q-14 0 -14 19q0 17 9.5 34t20.5 17h192q59 0 106.5 -26.5t74.5 -73t27 -104.5q0 -84 -53 -161t-135 -124t-165 -47q-12 0 -12 -14q0 -6 5 -21
q9 -24 23 -80l6 -23q16 -69 30 -109.5t38 -67t62 -25.5q13 0 13 -19q0 -17 -9 -34t-19 -17q-59 0 -96.5 37.5t-56 89t-37.5 129.5q-18 71 -26 94q-3 9 -8 13.5t-11 4.5q-15 0 -21 -22l-27 -96q-26 -90 -93 -167t-157 -122t-180 -45q-75 0 -133.5 32zM796 349q56 0 110.5 27
t95.5 73.5t58 101.5q7 32 7 53q0 63 -41 102t-108 39h-73q-26 0 -33 -25l-97 -337q-2 -8 -2 -11q0 -11 7 -17t20 -6h56z" />
    <glyph glyph-name="rcaron" unicode="&#x159;" horiz-adv-x="413" 
d="M62 766h60q56 -36 107 -92q62 62 109 92h62v-13q-100 -100 -125 -147h-90q-29 50 -123 147v13zM160.5 14.5q-29.5 29.5 -29.5 73.5q0 23 4 34l108 303l1 8q0 12 -15 12q-35 0 -65 10q-9 3 -16 3q-16 0 -22 -19l-94 -326q-3 -8 -13.5 -12t-24.5 -4q-15 0 -25 5t-7 15
l133 463q3 15 29 15q10 0 19.5 -3t13.5 -8l1 -1q6 -10 5 -15v-6q0 -23 20 -35t58 -12q32 0 53 -21t21 -53q0 -15 -4 -24l-107 -303q-3 -7 -3 -18q0 -19 12.5 -30t32.5 -11q28 0 52 18t33 45q3 8 13.5 12.5t23.5 4.5q15 0 25 -5.5t8 -14.5q-9 -34 -35 -64t-61.5 -48
t-70.5 -18q-44 0 -73.5 29.5z" />
    <glyph glyph-name="Sacute" unicode="&#x15a;" horiz-adv-x="548" 
d="M77.5 -112q-53.5 29 -83.5 81t-30 118q0 38 13 83q16 56 58.5 105t99.5 78t115 29h1q47 0 85 -21.5t59.5 -58.5t21.5 -83q0 -26 -8 -56q-2 -8 -12.5 -12t-23.5 -4q-16 0 -26.5 5.5t-7.5 15.5q7 21 7 44q0 45 -29.5 72.5t-77.5 27.5q-41 0 -81 -20t-70.5 -54.5
t-42.5 -75.5q-10 -40 -10 -67q0 -74 48.5 -120t126.5 -46q65 0 129.5 32t112.5 87.5t68 121.5q9 35 9 66q0 74 -48 120t-127 46q-45 0 -81 20.5t-56.5 56t-20.5 80.5q0 30 8 54q15 53 56 99.5t96 74.5t108 28q45 0 81.5 -20t57 -56t20.5 -80q0 -25 -8 -54q-13 -46 -58.5 -81
t-91.5 -35q-40 0 -67.5 27t-27.5 67q0 11 4 29q2 6 11 10t20 4q9 0 18 -3t13 -8l1 -1q6 -9 5 -16v-7q0 -14 9 -23t25 -9q22 0 43 16t28 38q5 22 5 38q0 43 -27.5 68.5t-72.5 25.5q-38 0 -75.5 -19t-65.5 -51t-39 -70q-5 -23 -5 -39q0 -42 27 -68t71 -26q68 0 121.5 -29.5
t83.5 -81.5t30 -118q0 -40 -12 -81q-23 -82 -84 -151.5t-142.5 -110.5t-163.5 -41q-67 0 -120.5 29zM227 783q19 23 47.5 66.5t47.5 81.5h106v-10q-21 -31 -66.5 -78.5t-76.5 -71.5h-58v12z" />
    <glyph glyph-name="sacute" unicode="&#x15b;" horiz-adv-x="479" 
d="M-98 13l-1 1l-27 23q-5 3 -5 10q0 14 18 31.5t32 17.5q5 0 8 -3l26 -22q19 -16 46 -16q41 0 80.5 28.5t64.5 74.5t25 95q0 31 -3 47.5t-16 40.5l-9 15q-11 14 -21 14q-13 0 -19 -21l-69 -236q-2 -8 -13.5 -12t-25.5 -4q-15 0 -24.5 5t-6.5 15l133 463q3 8 13.5 12t23.5 4
q15 0 25.5 -5.5t7.5 -14.5q-13 -43 -13 -73q0 -22 6.5 -35.5t21.5 -32.5q19 -27 24 -36q36 -64 36 -134t-36.5 -135t-95 -105t-121.5 -40q-48 0 -85 28zM189 3q0 17 9.5 34.5t20.5 17.5q26 1 49.5 19t32.5 44q3 8 13.5 12.5t23.5 4.5q15 0 25.5 -5.5t7.5 -14.5
q-9 -34 -36 -64.5t-63 -48.5t-70 -17q-13 0 -13 18zM181 618q19 23 47.5 66.5t47.5 81.5h106v-10q-21 -31 -66.5 -78.5t-76.5 -71.5h-58v12z" />
    <glyph glyph-name="Scircumflex" unicode="&#x15c;" horiz-adv-x="548" 
d="M116 782q61 65 86 96.5t37 52.5h90q25 -49 125 -149v-11h-62q-44 26 -109 90q-64 -62 -107 -90h-60v11zM77.5 -112q-53.5 29 -83.5 81t-30 118q0 38 13 83q16 56 58.5 105t99.5 78t115 29h1q47 0 85 -21.5t59.5 -58.5t21.5 -83q0 -26 -8 -56q-2 -8 -12.5 -12t-23.5 -4
q-16 0 -26.5 5.5t-7.5 15.5q7 21 7 44q0 45 -29.5 72.5t-77.5 27.5q-41 0 -81 -20t-70.5 -54.5t-42.5 -75.5q-10 -40 -10 -67q0 -74 48.5 -120t126.5 -46q65 0 129.5 32t112.5 87.5t68 121.5q9 35 9 66q0 74 -48 120t-127 46q-45 0 -81 20.5t-56.5 56t-20.5 80.5q0 30 8 54
q15 53 56 99.5t96 74.5t108 28q45 0 81.5 -20t57 -56t20.5 -80q0 -25 -8 -54q-13 -46 -58.5 -81t-91.5 -35q-40 0 -67.5 27t-27.5 67q0 11 4 29q2 6 11 10t20 4q9 0 18 -3t13 -8l1 -1q6 -9 5 -16v-7q0 -14 9 -23t25 -9q22 0 43 16t28 38q5 22 5 38q0 43 -27.5 68.5
t-72.5 25.5q-38 0 -75.5 -19t-65.5 -51t-39 -70q-5 -23 -5 -39q0 -42 27 -68t71 -26q68 0 121.5 -29.5t83.5 -81.5t30 -118q0 -40 -12 -81q-23 -82 -84 -151.5t-142.5 -110.5t-163.5 -41q-67 0 -120.5 29z" />
    <glyph glyph-name="scircumflex" unicode="&#x15d;" horiz-adv-x="479" 
d="M77 617q61 65 86 96.5t37 52.5h90q25 -49 125 -149v-11h-62q-44 26 -109 90q-64 -62 -107 -90h-60v11zM-98 13l-1 1l-27 23q-5 3 -5 10q0 14 18 31.5t32 17.5q5 0 8 -3l26 -22q19 -16 46 -16q41 0 80.5 28.5t64.5 74.5t25 95q0 31 -3 47.5t-16 40.5l-9 15q-11 14 -21 14
q-13 0 -19 -21l-69 -236q-2 -8 -13.5 -12t-25.5 -4q-15 0 -24.5 5t-6.5 15l133 463q3 8 13.5 12t23.5 4q15 0 25.5 -5.5t7.5 -14.5q-13 -43 -13 -73q0 -22 6.5 -35.5t21.5 -32.5q19 -27 24 -36q36 -64 36 -134t-36.5 -135t-95 -105t-121.5 -40q-48 0 -85 28zM189 3
q0 17 9.5 34.5t20.5 17.5q26 1 49.5 19t32.5 44q3 8 13.5 12.5t23.5 4.5q15 0 25.5 -5.5t7.5 -14.5q-9 -34 -36 -64.5t-63 -48.5t-70 -17q-13 0 -13 18z" />
    <glyph glyph-name="Scedilla" unicode="&#x15e;" horiz-adv-x="548" 
d="M77.5 -112q-53.5 29 -83.5 81t-30 118q0 38 13 83q16 56 58.5 105t99.5 78t115 29h1q47 0 85 -21.5t59.5 -58.5t21.5 -83q0 -26 -8 -56q-2 -8 -12.5 -12t-23.5 -4q-16 0 -26.5 5.5t-7.5 15.5q7 21 7 44q0 45 -29.5 72.5t-77.5 27.5q-41 0 -81 -20t-70.5 -54.5
t-42.5 -75.5q-10 -40 -10 -67q0 -74 48.5 -120t126.5 -46q65 0 129.5 32t112.5 87.5t68 121.5q9 35 9 66q0 74 -48 120t-127 46q-45 0 -81 20.5t-56.5 56t-20.5 80.5q0 30 8 54q15 53 56 99.5t96 74.5t108 28q45 0 81.5 -20t57 -56t20.5 -80q0 -25 -8 -54q-13 -46 -58.5 -81
t-91.5 -35q-40 0 -67.5 27t-27.5 67q0 11 4 29q2 6 11 10t20 4q9 0 18 -3t13 -8l1 -1q6 -9 5 -16v-7q0 -14 9 -23t25 -9q22 0 43 16t28 38q5 22 5 38q0 43 -27.5 68.5t-72.5 25.5q-38 0 -75.5 -19t-65.5 -51t-39 -70q-5 -23 -5 -39q0 -42 27 -68t71 -26q68 0 121.5 -29.5
t83.5 -81.5t30 -118q0 -40 -12 -81q-23 -82 -84 -151.5t-142.5 -110.5t-163.5 -41q-67 0 -120.5 29zM358 -139q0 -48 -37 -74.5t-111 -26.5q-32 0 -50 5v55q18 -5 53 -5q37 0 55.5 9.5t18.5 34.5q0 43 -91 55l43 86h58l-26 -53q87 -19 87 -86z" />
    <glyph glyph-name="scedilla" unicode="&#x15f;" horiz-adv-x="479" 
d="M-98 13l-1 1l-27 23q-5 3 -5 10q0 14 18 31.5t32 17.5q5 0 8 -3l26 -22q19 -16 46 -16q41 0 80.5 28.5t64.5 74.5t25 95q0 31 -3 47.5t-16 40.5l-9 15q-11 14 -21 14q-13 0 -19 -21l-69 -236q-2 -8 -13.5 -12t-25.5 -4q-15 0 -24.5 5t-6.5 15l133 463q3 8 13.5 12t23.5 4
q15 0 25.5 -5.5t7.5 -14.5q-13 -43 -13 -73q0 -22 6.5 -35.5t21.5 -32.5q19 -27 24 -36q36 -64 36 -134t-36.5 -135t-95 -105t-121.5 -40q-48 0 -85 28zM189 3q0 17 9.5 34.5t20.5 17.5q26 1 49.5 19t32.5 44q3 8 13.5 12.5t23.5 4.5q15 0 25.5 -5.5t7.5 -14.5
q-9 -34 -36 -64.5t-63 -48.5t-70 -17q-13 0 -13 18zM320 -139q0 -48 -37 -74.5t-111 -26.5q-32 0 -50 5v55q18 -5 53 -5q37 0 55.5 9.5t18.5 34.5q0 43 -91 55l43 86h58l-26 -53q87 -19 87 -86z" />
    <glyph glyph-name="Scaron" unicode="&#x160;" horiz-adv-x="548" 
d="M114 931h60q56 -36 107 -92q62 62 109 92h62v-13q-100 -100 -125 -147h-90q-29 50 -123 147v13zM77.5 -112q-53.5 29 -83.5 81t-30 118q0 38 13 83q16 56 58.5 105t99.5 78t115 29h1q47 0 85 -21.5t59.5 -58.5t21.5 -83q0 -26 -8 -56q-2 -8 -12.5 -12t-23.5 -4
q-16 0 -26.5 5.5t-7.5 15.5q7 21 7 44q0 45 -29.5 72.5t-77.5 27.5q-41 0 -81 -20t-70.5 -54.5t-42.5 -75.5q-10 -40 -10 -67q0 -74 48.5 -120t126.5 -46q65 0 129.5 32t112.5 87.5t68 121.5q9 35 9 66q0 74 -48 120t-127 46q-45 0 -81 20.5t-56.5 56t-20.5 80.5q0 30 8 54
q15 53 56 99.5t96 74.5t108 28q45 0 81.5 -20t57 -56t20.5 -80q0 -25 -8 -54q-13 -46 -58.5 -81t-91.5 -35q-40 0 -67.5 27t-27.5 67q0 11 4 29q2 6 11 10t20 4q9 0 18 -3t13 -8l1 -1q6 -9 5 -16v-7q0 -14 9 -23t25 -9q22 0 43 16t28 38q5 22 5 38q0 43 -27.5 68.5
t-72.5 25.5q-38 0 -75.5 -19t-65.5 -51t-39 -70q-5 -23 -5 -39q0 -42 27 -68t71 -26q68 0 121.5 -29.5t83.5 -81.5t30 -118q0 -40 -12 -81q-23 -82 -84 -151.5t-142.5 -110.5t-163.5 -41q-67 0 -120.5 29z" />
    <glyph glyph-name="scaron" unicode="&#x161;" horiz-adv-x="479" 
d="M83 766h60q56 -36 107 -92q62 62 109 92h62v-13q-100 -100 -125 -147h-90q-29 50 -123 147v13zM-98 13l-1 1l-27 23q-5 3 -5 10q0 14 18 31.5t32 17.5q5 0 8 -3l26 -22q19 -16 46 -16q41 0 80.5 28.5t64.5 74.5t25 95q0 31 -3 47.5t-16 40.5l-9 15q-11 14 -21 14
q-13 0 -19 -21l-69 -236q-2 -8 -13.5 -12t-25.5 -4q-15 0 -24.5 5t-6.5 15l133 463q3 8 13.5 12t23.5 4q15 0 25.5 -5.5t7.5 -14.5q-13 -43 -13 -73q0 -22 6.5 -35.5t21.5 -32.5q19 -27 24 -36q36 -64 36 -134t-36.5 -135t-95 -105t-121.5 -40q-48 0 -85 28zM189 3
q0 17 9.5 34.5t20.5 17.5q26 1 49.5 19t32.5 44q3 8 13.5 12.5t23.5 4.5q15 0 25.5 -5.5t7.5 -14.5q-9 -34 -36 -64.5t-63 -48.5t-70 -17q-13 0 -13 18z" />
    <glyph glyph-name="uni0162" unicode="&#x162;" horiz-adv-x="556" 
d="M75.5 -183q-58.5 32 -91.5 89t-33 130q0 44 14 91q26 90 93.5 167t157.5 122t180 45q14 0 14 -20q0 -16 -9 -33t-20 -17q-74 0 -146.5 -36.5t-126.5 -99t-75 -136.5q-11 -42 -11 -77q0 -84 54.5 -135.5t143.5 -51.5q74 0 147 36t127.5 98.5t76.5 137.5l166 583q2 8 2 12
q0 11 -7.5 16.5t-20.5 4.5q-77 -7 -143.5 -40.5t-114 -87t-67.5 -120.5q-3 -8 -13.5 -12t-23.5 -4q-15 0 -25.5 5.5t-7.5 14.5q26 89 93 161t157.5 113.5t182.5 41.5h276q26 0 50 18.5t32 44.5q2 8 12.5 12.5t23.5 4.5q15 0 25.5 -5.5t8.5 -14.5q-8 -34 -34 -64t-61 -48
t-69 -18h-169q-26 0 -33 -25l-172 -601q-26 -90 -93 -167t-157 -122t-180 -45q-75 0 -133.5 32zM371 -139q0 -48 -37 -74.5t-111 -26.5q-32 0 -50 5v55q18 -5 53 -5q37 0 55.5 9.5t18.5 34.5q0 43 -91 55l43 86h58l-26 -53q87 -19 87 -86z" />
    <glyph glyph-name="uni0163" unicode="&#x163;" horiz-adv-x="360" 
d="M-13 14q-29 29 -29 72q0 16 5 34l111 391q2 5 2 14q0 20 -18 20h-26q-14 0 -14 19q0 17 9.5 34t20.5 17h31q26 0 33 25l17 62q1 8 12 12t24 4q16 0 27 -5.5t7 -14.5l-14 -49q-2 -10 -2 -13q0 -10 5.5 -15.5t14.5 -5.5h26q12 0 12 -17t-9.5 -35t-19.5 -18h-31
q-26 0 -33 -25l-117 -408q-2 -7 -2 -18q0 -18 11.5 -28.5t30.5 -10.5q27 0 51 18t33 45q3 8 13.5 12.5t23.5 4.5q15 0 25.5 -5.5t7.5 -14.5q-9 -34 -35.5 -64t-61.5 -48t-69 -18q-43 0 -72 29zM312 -139q0 -48 -37 -74.5t-111 -26.5q-32 0 -50 5v55q18 -5 53 -5
q37 0 55.5 9.5t18.5 34.5q0 43 -91 55l43 86h58l-26 -53q87 -19 87 -86z" />
    <glyph glyph-name="Tcaron" unicode="&#x164;" horiz-adv-x="556" 
d="M110 931h60q56 -36 107 -92q62 62 109 92h62v-13q-100 -100 -125 -147h-90q-29 50 -123 147v13zM75.5 -183q-58.5 32 -91.5 89t-33 130q0 44 14 91q26 90 93.5 167t157.5 122t180 45q14 0 14 -20q0 -16 -9 -33t-20 -17q-74 0 -146.5 -36.5t-126.5 -99t-75 -136.5
q-11 -42 -11 -77q0 -84 54.5 -135.5t143.5 -51.5q74 0 147 36t127.5 98.5t76.5 137.5l166 583q2 8 2 12q0 11 -7.5 16.5t-20.5 4.5q-77 -7 -143.5 -40.5t-114 -87t-67.5 -120.5q-3 -8 -13.5 -12t-23.5 -4q-15 0 -25.5 5.5t-7.5 14.5q26 89 93 161t157.5 113.5t182.5 41.5
h276q26 0 50 18.5t32 44.5q2 8 12.5 12.5t23.5 4.5q15 0 25.5 -5.5t8.5 -14.5q-8 -34 -34 -64t-61 -48t-69 -18h-169q-26 0 -33 -25l-172 -601q-26 -90 -93 -167t-157 -122t-180 -45q-75 0 -133.5 32z" />
    <glyph glyph-name="tcaron" unicode="&#x165;" horiz-adv-x="360" 
d="M246 612q11 32 20.5 77.5t12.5 70.5h87v-9q-6 -26 -27 -71t-45 -80h-48v12zM-13 14q-29 29 -29 72q0 16 5 34l111 391q2 5 2 14q0 20 -18 20h-26q-14 0 -14 19q0 17 9.5 34t20.5 17h31q26 0 33 25l17 62q1 8 12 12t24 4q16 0 27 -5.5t7 -14.5l-14 -49q-2 -10 -2 -13
q0 -10 5.5 -15.5t14.5 -5.5h26q12 0 12 -17t-9.5 -35t-19.5 -18h-31q-26 0 -33 -25l-117 -408q-2 -7 -2 -18q0 -18 11.5 -28.5t30.5 -10.5q27 0 51 18t33 45q3 8 13.5 12.5t23.5 4.5q15 0 25.5 -5.5t7.5 -14.5q-9 -34 -35.5 -64t-61.5 -48t-69 -18q-43 0 -72 29z" />
    <glyph glyph-name="Tbar" unicode="&#x166;" horiz-adv-x="556" 
d="M232 399v235h-222v80h535v-80h-223v-235h148v-74h-148v-325h-90v325h-149v74h149z" />
    <glyph glyph-name="tbar" unicode="&#x167;" horiz-adv-x="360" 
d="M266 62q42 0 73 11v-67q-13 -6 -39 -11t-54 -5q-154 0 -154 171v119h-68v66h68v122h-76v42l77 35l35 114h52v-123h155v-68h-155v-122h146v-66h-146v-114q0 -52 21 -78t65 -26z" />
    <glyph glyph-name="Utilde" unicode="&#x168;" horiz-adv-x="730" 
d="M440 772q-21 0 -41 9t-39.5 19.5t-37 19.5t-34.5 9q-24 0 -36 -14.5t-19 -43.5h-51q6 60 34 94t76 34q22 0 42.5 -9t39.5 -19.5t37 -19.5t33 -9q23 0 35.5 14.5t19.5 43.5h50q-6 -58 -34 -93t-75 -35zM630.5 -110.5q-37.5 20.5 -58.5 57t-21 82.5q0 29 9 57l170 593
q11 42 11 77q0 85 -53.5 136.5t-142.5 52.5q-75 0 -148 -36.5t-127.5 -98.5t-76.5 -136q-11 -42 -11 -77q0 -85 55 -137t144 -51q14 0 14 -20q0 -17 -8.5 -33.5t-19.5 -16.5q-74 0 -132.5 32t-91.5 89t-33 130q0 44 14 91q26 89 94 166t158 122.5t180 45.5q74 0 132.5 -32.5
t91 -90t32.5 -130.5q0 -44 -14 -92l-170 -592q-6 -22 -6 -41q0 -44 28.5 -71t75.5 -27q40 0 79.5 20t69.5 53.5t41 73.5l172 601q9 32 37.5 62.5t66 48.5t72.5 17q6 0 9 -5.5t3 -14.5q0 -17 -8.5 -33t-21.5 -17q-28 -1 -55 -21t-35 -45l-172 -601q-16 -55 -58.5 -103.5
t-99 -77t-111.5 -28.5q-47 0 -84.5 20.5z" />
    <glyph glyph-name="utilde" unicode="&#x169;" horiz-adv-x="618" 
d="M383 607q-21 0 -41 9t-39.5 19.5t-37 19.5t-34.5 9q-24 0 -36 -14.5t-19 -43.5h-51q6 60 34 94t76 34q22 0 42.5 -9t39.5 -19.5t37 -19.5t33 -9q23 0 35.5 14.5t19.5 43.5h50q-6 -58 -34 -93t-75 -35zM-14 14q-29 29 -29 73q0 14 5 32l110 383q2 8 12 12.5t23 4.5
q16 0 27 -6t8 -15l-111 -386q-3 -10 -3 -19q0 -17 11.5 -27.5t31.5 -10.5q27 0 51.5 19t32.5 46l109 382q2 8 12 12.5t23 4.5q16 0 27 -6t8 -15l-111 -386q-2 -7 -2 -18q0 -18 11.5 -28.5t30.5 -10.5q27 0 51 18t33 45q3 8 13.5 12.5t23.5 4.5q15 0 25.5 -5.5t7.5 -14.5
q-9 -34 -35.5 -64t-61.5 -48t-69 -18q-37 0 -66 24q-12 10 -22 10q-9 0 -22 -8q-42 -26 -82 -26q-44 0 -73 29z" />
    <glyph glyph-name="Umacron" unicode="&#x16a;" horiz-adv-x="730" 
d="M217 842h297v-71h-297v71zM630.5 -110.5q-37.5 20.5 -58.5 57t-21 82.5q0 29 9 57l170 593q11 42 11 77q0 85 -53.5 136.5t-142.5 52.5q-75 0 -148 -36.5t-127.5 -98.5t-76.5 -136q-11 -42 -11 -77q0 -85 55 -137t144 -51q14 0 14 -20q0 -17 -8.5 -33.5t-19.5 -16.5
q-74 0 -132.5 32t-91.5 89t-33 130q0 44 14 91q26 89 94 166t158 122.5t180 45.5q74 0 132.5 -32.5t91 -90t32.5 -130.5q0 -44 -14 -92l-170 -592q-6 -22 -6 -41q0 -44 28.5 -71t75.5 -27q40 0 79.5 20t69.5 53.5t41 73.5l172 601q9 32 37.5 62.5t66 48.5t72.5 17
q6 0 9 -5.5t3 -14.5q0 -17 -8.5 -33t-21.5 -17q-28 -1 -55 -21t-35 -45l-172 -601q-16 -55 -58.5 -103.5t-99 -77t-111.5 -28.5q-47 0 -84.5 20.5z" />
    <glyph glyph-name="umacron" unicode="&#x16b;" horiz-adv-x="618" 
d="M159 677h297v-71h-297v71zM-14 14q-29 29 -29 73q0 14 5 32l110 383q2 8 12 12.5t23 4.5q16 0 27 -6t8 -15l-111 -386q-3 -10 -3 -19q0 -17 11.5 -27.5t31.5 -10.5q27 0 51.5 19t32.5 46l109 382q2 8 12 12.5t23 4.5q16 0 27 -6t8 -15l-111 -386q-2 -7 -2 -18
q0 -18 11.5 -28.5t30.5 -10.5q27 0 51 18t33 45q3 8 13.5 12.5t23.5 4.5q15 0 25.5 -5.5t7.5 -14.5q-9 -34 -35.5 -64t-61.5 -48t-69 -18q-37 0 -66 24q-12 10 -22 10q-9 0 -22 -8q-42 -26 -82 -26q-44 0 -73 29z" />
    <glyph glyph-name="Ubreve" unicode="&#x16c;" horiz-adv-x="730" 
d="M361 771q-69 0 -108.5 33.5t-44.5 100.5h54q4 -35 24.5 -49t76.5 -14q49 0 73 15.5t28 47.5h55q-6 -64 -48 -99t-110 -35zM630.5 -110.5q-37.5 20.5 -58.5 57t-21 82.5q0 29 9 57l170 593q11 42 11 77q0 85 -53.5 136.5t-142.5 52.5q-75 0 -148 -36.5t-127.5 -98.5
t-76.5 -136q-11 -42 -11 -77q0 -85 55 -137t144 -51q14 0 14 -20q0 -17 -8.5 -33.5t-19.5 -16.5q-74 0 -132.5 32t-91.5 89t-33 130q0 44 14 91q26 89 94 166t158 122.5t180 45.5q74 0 132.5 -32.5t91 -90t32.5 -130.5q0 -44 -14 -92l-170 -592q-6 -22 -6 -41
q0 -44 28.5 -71t75.5 -27q40 0 79.5 20t69.5 53.5t41 73.5l172 601q9 32 37.5 62.5t66 48.5t72.5 17q6 0 9 -5.5t3 -14.5q0 -17 -8.5 -33t-21.5 -17q-28 -1 -55 -21t-35 -45l-172 -601q-16 -55 -58.5 -103.5t-99 -77t-111.5 -28.5q-47 0 -84.5 20.5z" />
    <glyph glyph-name="ubreve" unicode="&#x16d;" horiz-adv-x="618" 
d="M303 606q-69 0 -108.5 33.5t-44.5 100.5h54q4 -35 24.5 -49t76.5 -14q49 0 73 15.5t28 47.5h55q-6 -64 -48 -99t-110 -35zM-14 14q-29 29 -29 73q0 14 5 32l110 383q2 8 12 12.5t23 4.5q16 0 27 -6t8 -15l-111 -386q-3 -10 -3 -19q0 -17 11.5 -27.5t31.5 -10.5
q27 0 51.5 19t32.5 46l109 382q2 8 12 12.5t23 4.5q16 0 27 -6t8 -15l-111 -386q-2 -7 -2 -18q0 -18 11.5 -28.5t30.5 -10.5q27 0 51 18t33 45q3 8 13.5 12.5t23.5 4.5q15 0 25.5 -5.5t7.5 -14.5q-9 -34 -35.5 -64t-61.5 -48t-69 -18q-37 0 -66 24q-12 10 -22 10
q-9 0 -22 -8q-42 -26 -82 -26q-44 0 -73 29z" />
    <glyph glyph-name="Uring" unicode="&#x16e;" horiz-adv-x="730" 
d="M475 878q0 -49 -30.5 -78t-80.5 -29t-79.5 28.5t-29.5 77.5q0 48 29.5 76.5t79.5 28.5q49 0 80 -29t31 -75zM420 877q0 26 -16 41t-40 15t-40 -15t-16 -41t14.5 -41t41.5 -15q25 0 40.5 15t15.5 41zM630.5 -110.5q-37.5 20.5 -58.5 57t-21 82.5q0 29 9 57l170 593
q11 42 11 77q0 85 -53.5 136.5t-142.5 52.5q-75 0 -148 -36.5t-127.5 -98.5t-76.5 -136q-11 -42 -11 -77q0 -85 55 -137t144 -51q14 0 14 -20q0 -17 -8.5 -33.5t-19.5 -16.5q-74 0 -132.5 32t-91.5 89t-33 130q0 44 14 91q26 89 94 166t158 122.5t180 45.5q74 0 132.5 -32.5
t91 -90t32.5 -130.5q0 -44 -14 -92l-170 -592q-6 -22 -6 -41q0 -44 28.5 -71t75.5 -27q40 0 79.5 20t69.5 53.5t41 73.5l172 601q9 32 37.5 62.5t66 48.5t72.5 17q6 0 9 -5.5t3 -14.5q0 -17 -8.5 -33t-21.5 -17q-28 -1 -55 -21t-35 -45l-172 -601q-16 -55 -58.5 -103.5
t-99 -77t-111.5 -28.5q-47 0 -84.5 20.5z" />
    <glyph glyph-name="uring" unicode="&#x16f;" horiz-adv-x="618" 
d="M417 713q0 -49 -30.5 -78t-80.5 -29t-79.5 28.5t-29.5 77.5q0 48 29.5 76.5t79.5 28.5q49 0 80 -29t31 -75zM362 712q0 26 -16 41t-40 15t-40 -15t-16 -41t14.5 -41t41.5 -15q25 0 40.5 15t15.5 41zM-14 14q-29 29 -29 73q0 14 5 32l110 383q2 8 12 12.5t23 4.5
q16 0 27 -6t8 -15l-111 -386q-3 -10 -3 -19q0 -17 11.5 -27.5t31.5 -10.5q27 0 51.5 19t32.5 46l109 382q2 8 12 12.5t23 4.5q16 0 27 -6t8 -15l-111 -386q-2 -7 -2 -18q0 -18 11.5 -28.5t30.5 -10.5q27 0 51 18t33 45q3 8 13.5 12.5t23.5 4.5q15 0 25.5 -5.5t7.5 -14.5
q-9 -34 -35.5 -64t-61.5 -48t-69 -18q-37 0 -66 24q-12 10 -22 10q-9 0 -22 -8q-42 -26 -82 -26q-44 0 -73 29z" />
    <glyph glyph-name="Uhungarumlaut" unicode="&#x170;" horiz-adv-x="730" 
d="M221 783q17 22 42.5 65.5t44.5 82.5h96v-10q-16 -27 -58.5 -75t-74.5 -75h-50v12zM397 783q23 32 49 76.5t38 71.5h96v-10q-16 -27 -58.5 -75t-74.5 -75h-50v12zM630.5 -110.5q-37.5 20.5 -58.5 57t-21 82.5q0 29 9 57l170 593q11 42 11 77q0 85 -53.5 136.5t-142.5 52.5
q-75 0 -148 -36.5t-127.5 -98.5t-76.5 -136q-11 -42 -11 -77q0 -85 55 -137t144 -51q14 0 14 -20q0 -17 -8.5 -33.5t-19.5 -16.5q-74 0 -132.5 32t-91.5 89t-33 130q0 44 14 91q26 89 94 166t158 122.5t180 45.5q74 0 132.5 -32.5t91 -90t32.5 -130.5q0 -44 -14 -92
l-170 -592q-6 -22 -6 -41q0 -44 28.5 -71t75.5 -27q40 0 79.5 20t69.5 53.5t41 73.5l172 601q9 32 37.5 62.5t66 48.5t72.5 17q6 0 9 -5.5t3 -14.5q0 -17 -8.5 -33t-21.5 -17q-28 -1 -55 -21t-35 -45l-172 -601q-16 -55 -58.5 -103.5t-99 -77t-111.5 -28.5q-47 0 -84.5 20.5
z" />
    <glyph glyph-name="uhungarumlaut" unicode="&#x171;" horiz-adv-x="618" 
d="M164 618q17 22 42.5 65.5t44.5 82.5h96v-10q-16 -27 -58.5 -75t-74.5 -75h-50v12zM340 618q23 32 49 76.5t38 71.5h96v-10q-16 -27 -58.5 -75t-74.5 -75h-50v12zM-14 14q-29 29 -29 73q0 14 5 32l110 383q2 8 12 12.5t23 4.5q16 0 27 -6t8 -15l-111 -386q-3 -10 -3 -19
q0 -17 11.5 -27.5t31.5 -10.5q27 0 51.5 19t32.5 46l109 382q2 8 12 12.5t23 4.5q16 0 27 -6t8 -15l-111 -386q-2 -7 -2 -18q0 -18 11.5 -28.5t30.5 -10.5q27 0 51 18t33 45q3 8 13.5 12.5t23.5 4.5q15 0 25.5 -5.5t7.5 -14.5q-9 -34 -35.5 -64t-61.5 -48t-69 -18
q-37 0 -66 24q-12 10 -22 10q-9 0 -22 -8q-42 -26 -82 -26q-44 0 -73 29z" />
    <glyph glyph-name="Uogonek" unicode="&#x172;" horiz-adv-x="730" 
d="M356 -116q0 -22 12 -33.5t33 -11.5t48 6v-56q-34 -9 -62 -9q-103 0 -103 94q0 68 78 126h62q-34 -32 -51 -58.5t-17 -57.5zM630.5 -110.5q-37.5 20.5 -58.5 57t-21 82.5q0 29 9 57l170 593q11 42 11 77q0 85 -53.5 136.5t-142.5 52.5q-75 0 -148 -36.5t-127.5 -98.5
t-76.5 -136q-11 -42 -11 -77q0 -85 55 -137t144 -51q14 0 14 -20q0 -17 -8.5 -33.5t-19.5 -16.5q-74 0 -132.5 32t-91.5 89t-33 130q0 44 14 91q26 89 94 166t158 122.5t180 45.5q74 0 132.5 -32.5t91 -90t32.5 -130.5q0 -44 -14 -92l-170 -592q-6 -22 -6 -41
q0 -44 28.5 -71t75.5 -27q40 0 79.5 20t69.5 53.5t41 73.5l172 601q9 32 37.5 62.5t66 48.5t72.5 17q6 0 9 -5.5t3 -14.5q0 -17 -8.5 -33t-21.5 -17q-28 -1 -55 -21t-35 -45l-172 -601q-16 -55 -58.5 -103.5t-99 -77t-111.5 -28.5q-47 0 -84.5 20.5z" />
    <glyph glyph-name="uogonek" unicode="&#x173;" horiz-adv-x="618" 
d="M458 -116q0 -22 12 -33.5t33 -11.5t48 6v-56q-34 -9 -62 -9q-103 0 -103 94q0 68 78 126h62q-34 -32 -51 -58.5t-17 -57.5zM-14 14q-29 29 -29 73q0 14 5 32l110 383q2 8 12 12.5t23 4.5q16 0 27 -6t8 -15l-111 -386q-3 -10 -3 -19q0 -17 11.5 -27.5t31.5 -10.5
q27 0 51.5 19t32.5 46l109 382q2 8 12 12.5t23 4.5q16 0 27 -6t8 -15l-111 -386q-2 -7 -2 -18q0 -18 11.5 -28.5t30.5 -10.5q27 0 51 18t33 45q3 8 13.5 12.5t23.5 4.5q15 0 25.5 -5.5t7.5 -14.5q-9 -34 -35.5 -64t-61.5 -48t-69 -18q-37 0 -66 24q-12 10 -22 10
q-9 0 -22 -8q-42 -26 -82 -26q-44 0 -73 29z" />
    <glyph glyph-name="Wcircumflex" unicode="&#x174;" horiz-adv-x="930" 
d="M294 782q61 65 86 96.5t37 52.5h90q25 -49 125 -149v-11h-62q-44 26 -109 90q-64 -62 -107 -90h-60v11zM630.5 -110.5q-37.5 20.5 -58.5 57t-21 82.5q0 29 9 57l170 593q11 42 11 77q0 85 -53.5 136.5t-142.5 52.5q-75 0 -148 -36.5t-127.5 -98.5t-76.5 -136
q-11 -42 -11 -77q0 -85 55 -137t144 -51q14 0 14 -20q0 -17 -8.5 -33.5t-19.5 -16.5q-74 0 -132.5 32t-91.5 89t-33 130q0 44 14 91q26 89 94 166t158 122.5t180 45.5q74 0 132.5 -32.5t91 -90t32.5 -130.5q0 -44 -14 -92l-170 -592q-6 -22 -6 -41q0 -44 28.5 -71t75.5 -27
q40 0 79.5 20t69.5 53.5t41 73.5l205 716q2 8 12 12.5t23 4.5q16 0 27 -6t8 -15l-207 -720q-6 -22 -6 -41q0 -44 28.5 -71t75.5 -27q40 0 79.5 20t69.5 53.5t41 73.5l172 601q9 32 37.5 62.5t66 48.5t72.5 17q6 0 9 -5.5t3 -14.5q0 -17 -8.5 -33t-21.5 -17q-28 -1 -55 -21
t-35 -45l-172 -601q-16 -55 -58.5 -103.5t-99 -77t-111.5 -28.5q-44 0 -80 18t-58 51q-9 14 -20 14q-8 0 -21 -11q-41 -34 -87 -53t-90 -19q-47 0 -84.5 20.5z" />
    <glyph glyph-name="wcircumflex" unicode="&#x175;" horiz-adv-x="786" 
d="M224 617q61 65 86 96.5t37 52.5h90q25 -49 125 -149v-11h-62q-44 26 -109 90q-64 -62 -107 -90h-60v11zM-13 14q-29 29 -29 72q0 20 5 34l109 382q2 8 13 12t25 4q16 0 25.5 -5t6.5 -15l-111 -386q-2 -7 -2 -18q0 -18 11.5 -28.5t30.5 -10.5q22 0 43.5 13t33.5 34
q4 8 5.5 12t1.5 5l110 383q2 8 12 12.5t23 4.5q16 0 27 -6t8 -15l-111 -385q-2 -7 -2 -19q0 -18 11.5 -28.5t31.5 -10.5q27 0 51 19t33 47l79 277q2 10 2 14q0 13 -10 27q-3 5 -6.5 7.5t-5.5 5.5l-3 3q-4 5 -4 15q0 15 7.5 30t17.5 15q31 -1 53 -27.5t22 -64.5q0 -16 -5 -33
l-79 -277q-10 -34 -36 -63.5t-60.5 -47t-67.5 -17.5q-40 0 -67 24q-13 10 -22 10q-10 0 -21 -8q-44 -26 -84 -26q-43 0 -72 29zM400 3q0 17 9 34.5t20 17.5q26 1 49.5 19t32.5 44q3 8 13.5 12.5t23.5 4.5q15 0 25.5 -5.5t7.5 -14.5q-9 -34 -36 -64.5t-63 -48.5t-70 -17
q-12 0 -12 18z" />
    <glyph glyph-name="Ycircumflex" unicode="&#x176;" horiz-adv-x="565" 
d="M114 782q61 65 86 96.5t37 52.5h90q25 -49 125 -149v-11h-62q-44 26 -109 90q-64 -62 -107 -90h-60v11zM606.5 -194.5q-37.5 20.5 -58.5 57t-21 82.5q0 26 8 56q2 7 13.5 11t25.5 4q15 0 24.5 -5t6.5 -15q-7 -22 -7 -44q0 -44 28.5 -70.5t75.5 -26.5q40 0 79.5 20
t69 53.5t41.5 73.5l25 88l2 12q0 16 -14 16q-6 0 -18 -5q-58 -28 -110 -28q-47 0 -84.5 20.5t-58.5 57t-21 82.5q0 29 9 57l108 377q11 42 11 77q0 85 -53.5 136.5t-142.5 52.5q-75 0 -148 -36.5t-127.5 -98.5t-76.5 -136q-11 -42 -11 -77q0 -85 55 -137t144 -51
q14 0 14 -20q0 -17 -8.5 -33.5t-19.5 -16.5q-74 0 -132.5 32t-91.5 89t-33 130q0 44 14 91q26 89 94 166t158 122.5t180 45.5q74 0 132.5 -32.5t91 -90t32.5 -130.5q0 -44 -14 -92l-108 -376q-6 -22 -6 -42q0 -44 28.5 -70.5t75.5 -26.5q40 0 79.5 20t69 53.5t41.5 73.5
l110 385q9 32 37.5 62.5t66 48.5t72.5 17q6 0 9 -5.5t3 -14.5q0 -17 -8.5 -33t-21.5 -17q-28 -1 -55 -21t-35 -45l-196 -685q-16 -55 -58.5 -103.5t-99 -77t-111.5 -28.5q-47 0 -84.5 20.5z" />
    <glyph glyph-name="ycircumflex" unicode="&#x177;" horiz-adv-x="509" 
d="M89 617q61 65 86 96.5t37 52.5h90q25 -49 125 -149v-11h-62q-44 26 -109 90q-64 -62 -107 -90h-60v11zM-70 -186q-29 29 -29 73q0 19 4 32q2 7 13.5 11.5t25.5 4.5q15 0 24.5 -5.5t6.5 -15.5q-3 -11 -3 -19q0 -19 11 -29.5t31 -10.5q28 0 52.5 18.5t32.5 46.5l11 40
q2 10 2 14q0 9 -5 13t-15 2q-15 -4 -31 -4q-43 0 -72 29t-29 72q0 20 5 34l109 382q2 8 13 12t25 4q16 0 25.5 -5t6.5 -15l-111 -386q-3 -10 -3 -19q0 -17 11.5 -27.5t31.5 -10.5q27 0 51.5 19t32.5 46l109 382q2 8 12 12.5t23 4.5q16 0 27 -6t8 -15l-169 -586
q-9 -33 -35 -62.5t-60.5 -47t-68.5 -17.5q-44 0 -73 29zM207 3q0 17 9.5 34.5t20.5 17.5q26 1 49.5 19t32.5 44q3 8 13.5 12.5t23.5 4.5q15 0 25.5 -5.5t7.5 -14.5q-9 -34 -36 -64.5t-63 -48.5t-70 -17q-13 0 -13 18z" />
    <glyph glyph-name="Ydieresis" unicode="&#x178;" horiz-adv-x="565" 
d="M606.5 -194.5q-37.5 20.5 -58.5 57t-21 82.5q0 26 8 56q2 7 13.5 11t25.5 4q15 0 24.5 -5t6.5 -15q-7 -22 -7 -44q0 -44 28.5 -70.5t75.5 -26.5q40 0 79.5 20t69 53.5t41.5 73.5l25 88l2 12q0 16 -14 16q-6 0 -18 -5q-58 -28 -110 -28q-47 0 -84.5 20.5t-58.5 57
t-21 82.5q0 29 9 57l108 377q11 42 11 77q0 85 -53.5 136.5t-142.5 52.5q-75 0 -148 -36.5t-127.5 -98.5t-76.5 -136q-11 -42 -11 -77q0 -85 55 -137t144 -51q14 0 14 -20q0 -17 -8.5 -33.5t-19.5 -16.5q-74 0 -132.5 32t-91.5 89t-33 130q0 44 14 91q26 89 94 166
t158 122.5t180 45.5q74 0 132.5 -32.5t91 -90t32.5 -130.5q0 -44 -14 -92l-108 -376q-6 -22 -6 -42q0 -44 28.5 -70.5t75.5 -26.5q40 0 79.5 20t69 53.5t41.5 73.5l110 385q9 32 37.5 62.5t66 48.5t72.5 17q6 0 9 -5.5t3 -14.5q0 -17 -8.5 -33t-21.5 -17q-28 -1 -55 -21
t-35 -45l-196 -685q-16 -55 -58.5 -103.5t-99 -77t-111.5 -28.5q-47 0 -84.5 20.5zM144 846q0 26 13.5 37.5t33.5 11.5q19 0 33 -11.5t14 -37.5t-14 -38t-33 -12q-20 0 -33.5 12t-13.5 38zM332 846q0 26 13.5 37.5t32.5 11.5t33 -11.5t14 -37.5t-14 -38t-33 -12t-32.5 12
t-13.5 38z" />
    <glyph glyph-name="Zacute" unicode="&#x179;" horiz-adv-x="571" 
d="M347 -132.5q-42 22.5 -74 53t-73 78.5q-1 0 -5.5 -1.5t-10.5 -6t-11 -12.5q-27 -38 -64.5 -60.5t-74.5 -22.5q-44 0 -73 29t-29 73q0 38 25.5 75.5t64.5 61.5t79 24q26 0 54 -14q10 -5 17 -5q15 0 25 19q141 262 229 424q26 47 40 74t16 32.5t2 15.5q0 26 -31 39t-78 13
q-61 0 -115 -20.5t-65 -53.5q-2 -8 -12.5 -12.5t-23.5 -4.5q-15 0 -25.5 5.5t-8.5 14.5q11 44 50 76t92.5 48.5t109.5 16.5q76 0 127.5 -29.5t51.5 -85.5q0 -11 -3 -23q-1 -7 -6 -17l-306 -568q-5 -12 -5 -18q0 -13 10 -24l20 -24q35 -43 59 -68t54 -42t64 -17q67 0 150 74
q4 4 9 4q12 0 24.5 -14.5t12.5 -26.5q0 -7 -4 -11q-106 -92 -198 -92q-48 0 -90 22.5zM91 -16.5q22 17.5 39 50.5l1 2q5 10 5 19q0 13 -13 23q-19 12 -33 11h-1q-33 0 -59.5 -26t-26.5 -58q0 -18 11.5 -28.5t30.5 -10.5q24 0 46 17.5zM221 783q19 23 47.5 66.5t47.5 81.5
h106v-10q-21 -31 -66.5 -78.5t-76.5 -71.5h-58v12z" />
    <glyph glyph-name="zacute" unicode="&#x17a;" horiz-adv-x="470" 
d="M-71 -186q-29 29 -29 73q0 19 4 32q2 7 13.5 11.5t25.5 4.5q15 0 24.5 -5.5t6.5 -15.5q-3 -11 -3 -19q0 -19 11 -29.5t31 -10.5q28 0 52.5 18.5t32.5 46.5l58 202q2 7 -11 14t-28 6l-6 -1q-9 0 -6 12l12 38q2 6 5 10q5 6 12.5 13.5t11.5 15.5l97 196q1 3 1 7q0 12 -15 12
q-35 0 -65 10q-9 3 -16 3q-16 0 -22 -19l-94 -326q-4 -13 -17 -13h-40q-18 0 -13 17l133 463q4 15 29 15q11 0 20 -3t13 -8l1 -1q7 -8 5 -15v-6q0 -23 20 -35t58 -12q32 0 53 -21t21 -53q0 -5 -2 -17q-1 -7 -6 -17l-96 -195q-4 -8 -4 -16q0 -11 10 -26q10 -18 10 -36
q0 -11 -3 -20l-58 -202q-9 -33 -35 -62.5t-60.5 -47t-68.5 -17.5q-44 0 -73 29zM207 3q0 17 9 34.5t20 17.5q26 1 49.5 19t32.5 44q3 8 13.5 12.5t23.5 4.5q15 0 25.5 -5.5t7.5 -14.5q-9 -34 -36 -64.5t-63 -48.5t-70 -17q-12 0 -12 18zM181 618q19 23 47.5 66.5t47.5 81.5
h106v-10q-21 -31 -66.5 -78.5t-76.5 -71.5h-58v12z" />
    <glyph glyph-name="Zdotaccent" unicode="&#x17b;" horiz-adv-x="571" 
d="M233 846q0 29 15 42.5t37 13.5q21 0 36 -13.5t15 -42.5t-15.5 -42.5t-35.5 -13.5q-22 0 -37 13.5t-15 42.5zM347 -132.5q-42 22.5 -74 53t-73 78.5q-1 0 -5.5 -1.5t-10.5 -6t-11 -12.5q-27 -38 -64.5 -60.5t-74.5 -22.5q-44 0 -73 29t-29 73q0 38 25.5 75.5t64.5 61.5
t79 24q26 0 54 -14q10 -5 17 -5q15 0 25 19q141 262 229 424q26 47 40 74t16 32.5t2 15.5q0 26 -31 39t-78 13q-61 0 -115 -20.5t-65 -53.5q-2 -8 -12.5 -12.5t-23.5 -4.5q-15 0 -25.5 5.5t-8.5 14.5q11 44 50 76t92.5 48.5t109.5 16.5q76 0 127.5 -29.5t51.5 -85.5
q0 -11 -3 -23q-1 -7 -6 -17l-306 -568q-5 -12 -5 -18q0 -13 10 -24l20 -24q35 -43 59 -68t54 -42t64 -17q67 0 150 74q4 4 9 4q12 0 24.5 -14.5t12.5 -26.5q0 -7 -4 -11q-106 -92 -198 -92q-48 0 -90 22.5zM91 -16.5q22 17.5 39 50.5l1 2q5 10 5 19q0 13 -13 23
q-19 12 -33 11h-1q-33 0 -59.5 -26t-26.5 -58q0 -18 11.5 -28.5t30.5 -10.5q24 0 46 17.5z" />
    <glyph glyph-name="zdotaccent" unicode="&#x17c;" horiz-adv-x="470" 
d="M185 681q0 29 15 42.5t37 13.5q21 0 36 -13.5t15 -42.5t-15.5 -42.5t-35.5 -13.5q-22 0 -37 13.5t-15 42.5zM-71 -186q-29 29 -29 73q0 19 4 32q2 7 13.5 11.5t25.5 4.5q15 0 24.5 -5.5t6.5 -15.5q-3 -11 -3 -19q0 -19 11 -29.5t31 -10.5q28 0 52.5 18.5t32.5 46.5
l58 202q2 7 -11 14t-28 6l-6 -1q-9 0 -6 12l12 38q2 6 5 10q5 6 12.5 13.5t11.5 15.5l97 196q1 3 1 7q0 12 -15 12q-35 0 -65 10q-9 3 -16 3q-16 0 -22 -19l-94 -326q-4 -13 -17 -13h-40q-18 0 -13 17l133 463q4 15 29 15q11 0 20 -3t13 -8l1 -1q7 -8 5 -15v-6q0 -23 20 -35
t58 -12q32 0 53 -21t21 -53q0 -5 -2 -17q-1 -7 -6 -17l-96 -195q-4 -8 -4 -16q0 -11 10 -26q10 -18 10 -36q0 -11 -3 -20l-58 -202q-9 -33 -35 -62.5t-60.5 -47t-68.5 -17.5q-44 0 -73 29zM207 3q0 17 9 34.5t20 17.5q26 1 49.5 19t32.5 44q3 8 13.5 12.5t23.5 4.5
q15 0 25.5 -5.5t7.5 -14.5q-9 -34 -36 -64.5t-63 -48.5t-70 -17q-12 0 -12 18z" />
    <glyph glyph-name="Zcaron" unicode="&#x17d;" horiz-adv-x="571" 
d="M119 931h60q56 -36 107 -92q62 62 109 92h62v-13q-100 -100 -125 -147h-90q-29 50 -123 147v13zM347 -132.5q-42 22.5 -74 53t-73 78.5q-1 0 -5.5 -1.5t-10.5 -6t-11 -12.5q-27 -38 -64.5 -60.5t-74.5 -22.5q-44 0 -73 29t-29 73q0 38 25.5 75.5t64.5 61.5t79 24
q26 0 54 -14q10 -5 17 -5q15 0 25 19q141 262 229 424q26 47 40 74t16 32.5t2 15.5q0 26 -31 39t-78 13q-61 0 -115 -20.5t-65 -53.5q-2 -8 -12.5 -12.5t-23.5 -4.5q-15 0 -25.5 5.5t-8.5 14.5q11 44 50 76t92.5 48.5t109.5 16.5q76 0 127.5 -29.5t51.5 -85.5q0 -11 -3 -23
q-1 -7 -6 -17l-306 -568q-5 -12 -5 -18q0 -13 10 -24l20 -24q35 -43 59 -68t54 -42t64 -17q67 0 150 74q4 4 9 4q12 0 24.5 -14.5t12.5 -26.5q0 -7 -4 -11q-106 -92 -198 -92q-48 0 -90 22.5zM91 -16.5q22 17.5 39 50.5l1 2q5 10 5 19q0 13 -13 23q-19 12 -33 11h-1
q-33 0 -59.5 -26t-26.5 -58q0 -18 11.5 -28.5t30.5 -10.5q24 0 46 17.5z" />
    <glyph glyph-name="zcaron" unicode="&#x17e;" horiz-adv-x="470" 
d="M68 766h60q56 -36 107 -92q62 62 109 92h62v-13q-100 -100 -125 -147h-90q-29 50 -123 147v13zM-71 -186q-29 29 -29 73q0 19 4 32q2 7 13.5 11.5t25.5 4.5q15 0 24.5 -5.5t6.5 -15.5q-3 -11 -3 -19q0 -19 11 -29.5t31 -10.5q28 0 52.5 18.5t32.5 46.5l58 202q2 7 -11 14
t-28 6l-6 -1q-9 0 -6 12l12 38q2 6 5 10q5 6 12.5 13.5t11.5 15.5l97 196q1 3 1 7q0 12 -15 12q-35 0 -65 10q-9 3 -16 3q-16 0 -22 -19l-94 -326q-4 -13 -17 -13h-40q-18 0 -13 17l133 463q4 15 29 15q11 0 20 -3t13 -8l1 -1q7 -8 5 -15v-6q0 -23 20 -35t58 -12
q32 0 53 -21t21 -53q0 -5 -2 -17q-1 -7 -6 -17l-96 -195q-4 -8 -4 -16q0 -11 10 -26q10 -18 10 -36q0 -11 -3 -20l-58 -202q-9 -33 -35 -62.5t-60.5 -47t-68.5 -17.5q-44 0 -73 29zM207 3q0 17 9 34.5t20 17.5q26 1 49.5 19t32.5 44q3 8 13.5 12.5t23.5 4.5q15 0 25.5 -5.5
t7.5 -14.5q-9 -34 -36 -64.5t-63 -48.5t-70 -17q-12 0 -12 18z" />
    <glyph glyph-name="longs" unicode="&#x17f;" horiz-adv-x="326" 
d="M261 692q-46 0 -67 -28.5t-21 -86.5v-577h-88v577q0 188 177 188q49 0 100 -19l-23 -69q-44 15 -78 15z" />
    <glyph glyph-name="uni0180" unicode="&#x180;" horiz-adv-x="615" 
d="M339 545q106 0 163.5 -73t57.5 -204q0 -133 -58.5 -205.5t-162.5 -72.5q-54 0 -96.5 19.5t-69.5 58.5h-7q-15 -59 -18 -68h-63v605h-76v66h76v89h88v-89h213v-66h-213v-30q0 -55 -5 -110h5q54 80 166 80zM324 472q-81 0 -116 -46t-35 -155v-4q0 -110 36 -157t117 -47
q72 0 107.5 53t35.5 153q0 102 -35.5 152.5t-109.5 50.5z" />
    <glyph glyph-name="uni0181" unicode="&#x181;" horiz-adv-x="729" 
d="M151 637q-61 0 -61 -50q0 -30 10 -54h-79q-4 10 -7.5 26.5t-3.5 28.5q0 65 34.5 95.5t106.5 30.5h230q144 0 207.5 -43t63.5 -134q0 -63 -34.5 -104.5t-101.5 -53.5v-5q82 -14 121 -57t39 -114q0 -96 -66 -149.5t-182 -53.5h-251v637h-26zM267 410h132q84 0 122 27t38 90
q0 59 -41.5 84.5t-132.5 25.5h-118v-227zM267 335v-259h144q86 0 127.5 33.5t41.5 100.5q0 64 -44 94.5t-132 30.5h-137z" />
    <glyph glyph-name="uni0182" unicode="&#x182;" horiz-adv-x="615" 
d="M564 209q0 -105 -63.5 -157t-194.5 -52h-209v714h424v-79h-334v-223h106q137 0 204 -48.5t67 -154.5zM187 77h110q92 0 133 31t41 101q0 68 -43 96.5t-146 28.5h-95v-257z" />
    <glyph glyph-name="uni0183" unicode="&#x183;" horiz-adv-x="615" 
d="M339 545q106 0 163.5 -73t57.5 -204q0 -133 -58.5 -205.5t-162.5 -72.5q-54 0 -96.5 19.5t-69.5 58.5h-7q-15 -59 -18 -68h-63v760h421v-74h-333v-111q0 -55 -5 -110h5q54 80 166 80zM324 472q-81 0 -116 -46t-35 -155v-4q0 -110 36 -157t117 -47q72 0 107.5 53t35.5 153
q0 102 -35.5 152.5t-109.5 50.5z" />
    <glyph glyph-name="uni0184" unicode="&#x184;" horiz-adv-x="634" 
d="M180 210q0 -77 37.5 -110t122.5 -33q80 0 115.5 35.5t35.5 102.5q0 69 -48 99t-140 30h-123v-124zM90 714h90v-302h134q129 0 199.5 -53t70.5 -154t-63.5 -158t-179.5 -57q-251 0 -251 220v504z" />
    <glyph glyph-name="uni0185" unicode="&#x185;" horiz-adv-x="611" 
d="M322 -10q-115 0 -177.5 72.5t-62.5 204.5v493h88v-185q0 -55 -5 -110h5q54 80 166 80q106 0 163.5 -73t57.5 -204q0 -134 -61 -206t-174 -72zM170 265q0 -96 40.5 -149t112.5 -53t107.5 53t35.5 153q0 102 -35.5 152.5t-109.5 50.5q-81 0 -116 -46t-35 -155v-6z" />
    <glyph glyph-name="uni0186" unicode="&#x186;" horiz-adv-x="631" 
d="M243 724q158 0 243 -96t85 -272q0 -110 -39.5 -192.5t-114.5 -128t-174 -45.5q-55 0 -98 6.5t-86 22.5v78q94 -28 170 -28q115 0 181 77t66 211q0 137 -63.5 212.5t-183.5 75.5q-77 0 -162 -39l-36 76q84 42 212 42z" />
    <glyph glyph-name="uni0187" unicode="&#x187;" horiz-adv-x="631" 
d="M403 645q-115 0 -181 -77t-66 -211q0 -138 64 -213t182 -75q76 0 171 28v-78q-45 -17 -87 -23t-97 -6q-158 0 -243 96t-85 272q0 110 41 193t118.5 128t183.5 45q61 0 117 -14v14q0 64 27 99t88 35q30 0 60 -13v-72q-24 10 -52 10q-47 0 -47 -48v-51l-36 -78
q-33 15 -71.5 27t-86.5 12z" />
    <glyph glyph-name="uni0188" unicode="&#x188;" horiz-adv-x="502" 
d="M300 -10q-116 0 -180.5 71t-64.5 204q0 135 65.5 208t185.5 73q27 0 65 -6v91q0 64 26.5 99t88.5 35q29 0 60 -13v-73q-23 10 -52 10q-47 0 -47 -48v-124l-27 -73q-68 25 -116 25q-81 0 -119.5 -51t-38.5 -152q0 -97 38.5 -148.5t114.5 -51.5q71 0 139 31v-78
q-55 -29 -138 -29z" />
    <glyph glyph-name="uni0189" unicode="&#x189;" horiz-adv-x="729" 
d="M669 364q0 -175 -96 -269.5t-278 -94.5h-191v314h-74v78h74v322h213q167 0 259.5 -92t92.5 -258zM574 361q0 137 -68 206.5t-202 69.5h-110v-245h178v-78h-178v-237h90q290 0 290 284z" />
    <glyph glyph-name="uni018A" unicode="&#x18a;" horiz-adv-x="810" 
d="M654 361q0 136 -67 206t-203 70h-117v-560h97q290 0 290 284zM397 714q168 0 260 -92.5t92 -257.5q0 -177 -96.5 -270.5t-276.5 -93.5h-199v637h-26q-61 0 -61 -50q0 -30 10 -54h-79q-4 10 -7.5 26.5t-3.5 28.5q0 65 34.5 95.5t106.5 30.5h246z" />
    <glyph glyph-name="uni018B" unicode="&#x18b;" horiz-adv-x="615" 
d="M428 335h-82q-106 0 -154 -32t-48 -101q0 -63 44 -94t139 -31h101v258zM518 714v-714h-199q-268 0 -268 198q0 103 73.5 158.5t211.5 55.5h92v223h-334v79h424z" />
    <glyph glyph-name="uni018C" unicode="&#x18c;" horiz-adv-x="615" 
d="M289 63q80 0 117 43.5t37 143.5v16q0 112 -37.5 159.5t-117.5 47.5q-68 0 -105 -54t-37 -154t37 -151t106 -51zM530 0h-71l-13 72h-4q-56 -82 -167 -82q-104 0 -162 72.5t-58 204.5q0 131 58 205t163 74q108 0 166 -79h6q-1 10 -3.5 39.5t-2.5 39.5v140h-333v74h421v-760
z" />
    <glyph glyph-name="uni018D" unicode="&#x18d;" horiz-adv-x="604" 
d="M341 294q66 -38 95 -77t29 -87q0 -64 -48 -102t-132 -38q-51 0 -97 11.5t-109 42.5l38 69q37 -21 79 -36t93 -15q40 0 63.5 18.5t23.5 50.5q0 34 -26.5 60t-107.5 70q-104 57 -146 117t-42 136q0 115 66 180.5t184 65.5q112 0 179 -60.5t67 -163.5q0 -87 -54 -149.5
t-155 -92.5zM145 515q0 -62 30 -105.5t96 -77.5q92 22 139.5 74t47.5 131q0 67 -41.5 108.5t-112.5 41.5q-77 0 -118 -44.5t-41 -127.5z" />
    <glyph glyph-name="uni018E" unicode="&#x18e;" horiz-adv-x="556" 
d="M60 79h309v255h-291v78h291v223h-309v79h399v-714h-399v79z" />
    <glyph glyph-name="uni018F" unicode="&#x18f;" horiz-adv-x="738" 
d="M332 646q-110 0 -228 -41v82q61 21 114 29.5t116 8.5q162 0 252.5 -97.5t90.5 -271.5q0 -171 -85 -268.5t-237 -97.5q-147 0 -221.5 92t-74.5 275v34h523q-8 126 -71 190.5t-179 64.5zM355 69q100 0 159.5 63.5t67.5 179.5h-427q0 -125 49 -184t151 -59z" />
    <glyph glyph-name="uni0190" unicode="&#x190;" horiz-adv-x="587" 
d="M87 547q0 82 60.5 129.5t166.5 47.5q64 0 124 -18.5t109 -55.5l-43 -61q-52 36 -94 48.5t-94 12.5q-63 0 -99.5 -30.5t-36.5 -81.5q0 -60 48 -95.5t145 -35.5h97v-75h-102q-110 0 -165 -33t-55 -97q0 -67 48.5 -102.5t139.5 -35.5q105 0 214 52v-82q-90 -44 -219 -44
q-135 0 -206 52t-71 153q0 76 46.5 121t137.5 57v4q-72 12 -111.5 56.5t-39.5 113.5z" />
    <glyph glyph-name="uni0191" unicode="&#x191;" horiz-adv-x="519" 
d="M45 -240q-32 0 -56 13v76q21 -10 45 -10q35 0 49 20t14 62v793h399v-79h-309v-253h290v-79h-290v-386q0 -157 -142 -157z" />
    <glyph glyph-name="florin" unicode="&#x192;" horiz-adv-x="571" 
d="M161 -240q-36 0 -68 9v73q34 -9 63 -9q45 0 63.5 23.5t18.5 79.5v470h-105v41l105 30v65q0 94 39.5 138t129.5 44q45 0 103 -21l-22 -68q-50 16 -78 16q-46 0 -65 -24.5t-19 -83.5v-69h135v-68h-133v-470q0 -91 -40 -133.5t-127 -42.5z" />
    <glyph glyph-name="uni0193" unicode="&#x193;" horiz-adv-x="728" 
d="M407 377h247v-350q-57 -18 -115.5 -27.5t-135.5 -9.5q-163 0 -252.5 97t-89.5 270q0 112 44.5 195.5t128 127.5t197.5 44q71 0 137 -17v17q0 64 27 99t88 35q29 0 60 -13v-72q-24 10 -52 10q-47 0 -47 -48v-53l-34 -78q-94 41 -184 41q-127 0 -199 -77t-72 -211
q0 -142 68.5 -215.5t200.5 -73.5q72 0 140 17v212h-157v80z" />
    <glyph glyph-name="uni0194" unicode="&#x194;" horiz-adv-x="569" 
d="M334 108q33 -65 50 -121t17 -94q0 -59 -32 -96t-84 -37q-54 0 -85 37.5t-31 95.5q0 78 67 214l-236 607h94q89 -237 136.5 -362t54.5 -167q10 51 50 158l140 371h95zM319 -105q0 26 -8.5 62t-25.5 68q-19 -38 -26.5 -72t-7.5 -56q0 -31 9.5 -45t24.5 -14q34 0 34 57z" />
    <glyph glyph-name="uni0195" unicode="&#x195;" horiz-adv-x="934" 
d="M639 63q67 0 96.5 36t29.5 113v324h88v-327q0 -114 -51 -166.5t-163 -52.5q-110 0 -162 48.5t-52 147.5v157q0 65 -26 97t-83 32q-74 0 -108.5 -45.5t-34.5 -149.5v-277h-88v760h88v-223q0 -44 -5 -75h6q24 42 66 62.5t90 20.5q91 0 137 -46.5t46 -149.5v-157
q0 -65 30.5 -97t95.5 -32z" />
    <glyph glyph-name="uni0196" unicode="&#x196;" horiz-adv-x="348" 
d="M179 714v-549q0 -48 18 -72t59 -24q21 0 44 3.5t38 7.5v-74q-13 -6 -40 -11t-55 -5q-80 0 -116.5 41.5t-36.5 125.5v557h89z" />
    <glyph glyph-name="uni0197" unicode="&#x197;" horiz-adv-x="338" 
d="M298 0h-258v52l84 19v256h-90v78h90v237l-84 20v52h258v-52l-84 -20v-237h90v-78h-90v-256l84 -19v-52z" />
    <glyph glyph-name="uni0198" unicode="&#x198;" horiz-adv-x="619" 
d="M327 405l292 -405h-106q-30 40 -121 172q-71 103 -126 170l-79 -77v-265h-90v714h90v-360q28 35 60 72q21 24 185 225q29 38 54.5 53.5t66.5 15.5q30 0 50 -8v-70q-21 3 -44 3q-17 0 -31.5 -10t-36.5 -36z" />
    <glyph glyph-name="uni0199" unicode="&#x199;" horiz-adv-x="534" 
d="M172 363l-4 -87h4l30 38l34 41l171 181h103l-217 -229l232 -307h-106l-186 250l-61 -53v-197h-87v625q0 140 121 140q33 0 65 -13v-73q-23 10 -52 10q-23 0 -35 -13t-12 -45v-268z" />
    <glyph glyph-name="uni019A" unicode="&#x19a;" horiz-adv-x="257" 
d="M173 420h70v-66h-70v-354h-88v354h-70v66h70v340h88v-340z" />
    <glyph glyph-name="uni019B" unicode="&#x19b;" horiz-adv-x="541" 
d="M-6 0l231 526l-23 64l-106 -32l-19 63l99 30q-13 22 -29.5 32t-45.5 10q-30 0 -56 -6v71q33 8 66 8q53 0 87 -21t59 -69l109 33l19 -63l-102 -32l179 -498q10 -28 21.5 -41t28.5 -13q12 0 30 5v-65q-24 -12 -57 -12q-36 0 -58 18t-38 63l-73 205q-42 119 -50 159h-4
q-16 -62 -55 -154l-122 -281h-91z" />
    <glyph glyph-name="uni019C" unicode="&#x19c;" horiz-adv-x="1029" 
d="M180 714v-506q0 -70 29 -105t92 -35q84 0 124.5 47t40.5 147v452h90v-506q0 -70 29 -105t94 -35q84 0 123.5 49.5t39.5 164.5v432h90v-714h-71l-15 82h-5q-25 -42 -74 -67t-107 -25q-68 0 -110.5 24.5t-64.5 75.5h-5q-28 -48 -79.5 -74t-113.5 -26q-103 0 -150 53
t-47 165v506h90z" />
    <glyph glyph-name="uni019D" unicode="&#x19d;" horiz-adv-x="759" 
d="M97 714h104l22 -35l235 -362l124 -194h4q-1 12 -4 84t-3 104v403h84v-714h-105l-382 593h-4l2 -40q6 -89 6 -154v-482q0 -83 -34 -120t-101 -37q-32 0 -56 13v76q21 -10 45 -10q35 0 49 20t14 62v793z" />
    <glyph glyph-name="uni019E" unicode="&#x19e;" horiz-adv-x="618" 
d="M450 -240v583q0 64 -28.5 96.5t-91.5 32.5q-83 0 -120 -46.5t-37 -147.5v-278h-88v536h71l13 -73h5q25 40 70 61.5t99 21.5q99 0 146.5 -48t47.5 -149v-589h-87z" />
    <glyph glyph-name="uni019F" unicode="&#x19f;" horiz-adv-x="782" 
d="M720 358q0 -171 -86.5 -269.5t-242.5 -98.5q-158 0 -244 96.5t-86 272.5q0 174 85.5 270t245.5 96q155 0 241.5 -97.5t86.5 -269.5zM391 68q108 0 167.5 65t65.5 192h-467q6 -127 65.5 -192t168.5 -65zM392 646q-106 0 -165.5 -61.5t-69.5 -181.5h466q-9 121 -67.5 182
t-163.5 61z" />
    <glyph glyph-name="Ohorn" unicode="&#x1a0;" horiz-adv-x="784" 
d="M719 358q0 -173 -86.5 -270.5t-241.5 -97.5q-158 0 -244 96t-86 273q0 176 86 271t245 95t247 -104q33 9 48.5 39.5t15.5 99.5h95l7 -11q-15 -78 -47.5 -120.5t-83.5 -61.5q45 -85 45 -209zM156 358q0 -142 59.5 -216t175.5 -74t174.5 73t58.5 217q0 143 -58.5 215.5
t-173.5 72.5q-118 0 -177 -73.5t-59 -214.5z" />
    <glyph glyph-name="ohorn" unicode="&#x1a1;" horiz-adv-x="616" 
d="M551 269q0 -131 -66.5 -205t-183.5 -74q-73 0 -129 34t-86.5 97.5t-30.5 147.5q0 131 65.5 204t183.5 73q53 0 97.5 -18t76.5 -51q24 7 38.5 23.5t21.5 41t7 76.5h94l7 -11q-16 -79 -46.5 -121.5t-82.5 -61.5q34 -69 34 -155zM146 269q0 -105 38.5 -155.5t118.5 -50.5
q83 0 120 52t37 154q0 100 -38 151.5t-120 51.5q-83 0 -119.5 -51.5t-36.5 -151.5z" />
    <glyph glyph-name="uni01A2" unicode="&#x1a2;" horiz-adv-x="1075" 
d="M688 358q0 -173 -82.5 -270.5t-230.5 -97.5q-150 0 -232 96.5t-82 272.5q0 174 82 270t233 96q142 0 224 -91q28 43 78 67t110 24q102 0 149.5 -52.5t47.5 -165.5v-507h-90v507q0 70 -29 105t-92 35q-53 0 -86.5 -15t-52.5 -46q53 -92 53 -228zM156 358q0 -142 56 -216
t163 -74t162.5 73t55.5 217q0 143 -55 215.5t-162 72.5q-108 0 -164 -73.5t-56 -214.5z" />
    <glyph glyph-name="uni01A3" unicode="&#x1a3;" horiz-adv-x="845" 
d="M526 269q0 -132 -63.5 -205.5t-173.5 -73.5q-69 0 -122.5 34t-82.5 98t-29 147q0 130 62.5 203.5t173.5 73.5q106 0 169 -72q26 37 64 54.5t80 17.5q80 0 120 -47t40 -150v-589h-87v585q0 127 -92 127q-63 0 -94 -44q35 -63 35 -159zM146 269q0 -101 36.5 -153.5
t107.5 -52.5t108 52t37 154q0 101 -37 152t-108 51q-144 0 -144 -203z" />
    <glyph glyph-name="uni01A4" unicode="&#x1a4;" horiz-adv-x="685" 
d="M267 355h72q106 0 154 34.5t48 110.5q0 69 -44.5 103t-138.5 34h-91v-282zM366 714q268 0 268 -210q0 -109 -74.5 -167.5t-210.5 -58.5h-82v-278h-90v637h-26q-61 0 -61 -50q0 -30 10 -54h-79q-4 10 -7.5 26.5t-3.5 28.5q0 65 34.5 95.5t106.5 30.5h215z" />
    <glyph glyph-name="uni01A5" unicode="&#x1a5;" horiz-adv-x="615" 
d="M207 765q33 0 65 -13v-73q-23 10 -52 10q-23 0 -35 -13t-12 -45v-80q0 -30 -4 -68l-2 -20h6q31 44 72 63.5t95 19.5q104 0 162 -72.5t58 -204.5q0 -131 -58 -205t-163 -74q-108 0 -166 78h-6l2 -20q4 -38 4 -68v-220h-88l1 865q0 140 121 140zM324 472q-80 0 -115 -45
t-36 -141v-17q0 -109 36 -157.5t117 -48.5q67 0 105 54.5t38 152.5t-38 150t-107 52z" />
    <glyph glyph-name="uni01A6" unicode="&#x1a6;" horiz-adv-x="622" 
d="M187 271h107q87 0 127 34t40 102q0 67 -40.5 98t-131.5 31h-102v-265zM187 195v-195h-90v714h90v-100h107q133 0 196.5 -50.5t63.5 -152.5q0 -142 -143 -191l196 -320h-105l-173 295h-142z" />
    </font>
</defs>
</svg>
