<?xml version="1.0" standalone="no"?>
<!DOCTYPE svg PUBLIC "-//W3C//DTD SVG 1.1//EN" "http://www.w3.org/Graphics/SVG/1.1/DTD/svg11.dtd" >
<svg xmlns="http://www.w3.org/2000/svg" xmlns:xlink="http://www.w3.org/1999/xlink" version="1.1">
<metadata>
Created by FontForge 20190801 at Mon Feb  8 12:15:19 2021
 By root
Arrows
</metadata>
<defs>
<font id="InriaSerif-Italic" horiz-adv-x="227" >
  <font-face 
    font-family="Inria Serif"
    font-weight="400"
    font-style="italic"
    font-stretch="normal"
    units-per-em="1000"
    panose-1="0 0 0 0 0 0 0 0 0 0"
    ascent="800"
    descent="-200"
    x-height="495"
    cap-height="680"
    bbox="-215 -242 1225 1069"
    underline-thickness="65"
    underline-position="-116"
    slope="-10"
    unicode-range="U+0001-206F"
  />
<missing-glyph horiz-adv-x="364" 
d="M33 0v666h265v-666h-265zM66 33h199v600h-199v-600z" />
    <glyph glyph-name=".notdef" horiz-adv-x="364" 
d="M33 0v666h265v-666h-265zM66 33h199v600h-199v-600z" />
    <glyph glyph-name=".null" horiz-adv-x="0" 
 />
    <glyph glyph-name="nonmarkingreturn" horiz-adv-x="333" 
 />
    <glyph glyph-name="NULL" 
 />
    <glyph glyph-name="NULL" 
 />
    <glyph glyph-name="uni0001" 
 />
    <glyph glyph-name="uni0002" 
 />
    <glyph glyph-name="uni0003" 
 />
    <glyph glyph-name="uni0004" 
 />
    <glyph glyph-name="uni0005" 
 />
    <glyph glyph-name="uni0006" 
 />
    <glyph glyph-name="uni0007" 
 />
    <glyph glyph-name="uni0008" 
 />
    <glyph glyph-name="uni0009" unicode="&#x9;" 
 />
    <glyph glyph-name="uni000A" unicode="&#xa;" 
 />
    <glyph glyph-name="uni000B" 
 />
    <glyph glyph-name="uni000C" 
 />
    <glyph glyph-name="CR" unicode="&#xd;" 
 />
    <glyph glyph-name="uni000E" 
 />
    <glyph glyph-name="uni000F" 
 />
    <glyph glyph-name="uni0010" 
 />
    <glyph glyph-name="uni0011" 
 />
    <glyph glyph-name="uni0012" 
 />
    <glyph glyph-name="uni0013" 
 />
    <glyph glyph-name="uni0014" 
 />
    <glyph glyph-name="uni0015" 
 />
    <glyph glyph-name="uni0016" 
 />
    <glyph glyph-name="uni0017" 
 />
    <glyph glyph-name="uni0018" 
 />
    <glyph glyph-name="uni0019" 
 />
    <glyph glyph-name="uni001A" 
 />
    <glyph glyph-name="uni001B" 
 />
    <glyph glyph-name="uni001C" 
 />
    <glyph glyph-name="uni001D" 
 />
    <glyph glyph-name="uni001E" 
 />
    <glyph glyph-name="uni001F" 
 />
    <glyph glyph-name="space" unicode=" " 
 />
    <glyph glyph-name="exclam" unicode="!" horiz-adv-x="258" 
d="M133 184h-31q13 71 19.5 123t10 94t7 83t9 87.5t16.5 108.5h82q-11 -62 -21.5 -108.5t-21.5 -87.5t-22.5 -83t-23 -94t-24.5 -123zM89 -10q-24 0 -38.5 13t-14.5 37q0 26 17 44t45 18q25 0 39 -13t14 -37q0 -26 -16.5 -44t-45.5 -18z" />
    <glyph glyph-name="quotedbl" unicode="&#x22;" horiz-adv-x="426" 
d="M176 438h-27q6 30 7.5 52t1.5 38q0 34 -5.5 53.5t-5.5 41.5q0 32 16 49.5t39 17.5q20 0 32 -12t12 -33q0 -19 -7 -34t-18 -34.5t-23 -52t-22 -86.5zM344 438h-27q6 30 7.5 52t1.5 38q0 34 -5.5 53.5t-5.5 41.5q0 32 16 49.5t39 17.5q20 0 32 -12t12 -33q0 -19 -7 -34
t-18 -34.5t-23 -52t-22 -86.5z" />
    <glyph glyph-name="numbersign" unicode="#" horiz-adv-x="645" 
d="M544 211h-118l-106 -221l-32 12l101 209h-225l-106 -221l-32 12l101 209h-109l6 32h118l93 193h-108l6 32h117l107 222l32 -13l-101 -209h224l107 222l32 -13l-101 -209h109l-6 -32h-118l-93 -193h108zM180 243h224l93 193h-224z" />
    <glyph glyph-name="dollar" unicode="$" horiz-adv-x="548" 
d="M486 197q0 -53 -26.5 -100.5t-80.5 -77t-137 -29.5l-20 -115h-36l21 116q-46 5 -85.5 23.5t-64 56.5t-25.5 101l63 20q-3 -59 12 -95t42.5 -53t62.5 -21l50 283l-37 14q-60 24 -92.5 67t-32.5 107q0 53 24.5 97.5t74.5 71.5t126 27h5l20 115h36l-21 -117
q67 -8 104.5 -40.5t48.5 -76.5t-4 -88l-87 -18q24 79 7.5 128.5t-75.5 60.5l-47 -271l43 -18q63 -25 97 -65.5t34 -102.5zM178 524q0 -45 22.5 -75.5t77.5 -52.5l46 262h-3q-65 0 -104 -33.5t-39 -100.5zM299 291l-3 1l-48 -270q78 2 118.5 39t40.5 100q0 46 -24.5 76
t-83.5 54z" />
    <glyph glyph-name="percent" unicode="%" horiz-adv-x="719" 
d="M366 527l-3 -16q-10 -65 -51 -100.5t-100 -35.5q-69 0 -101 45.5t-22 110.5l2 16q11 65 52 101.5t99 36.5q47 0 77 -21.5t42 -57t5 -79.5zM607 680l25 -18l-489 -662l-25 17zM304 544q9 55 -7.5 85t-52.5 30q-30 0 -53.5 -24t-32.5 -78l-7 -41q-10 -55 6.5 -85.5
t53.5 -30.5q30 0 53.5 24t32.5 78zM663 147l-3 -16q-10 -65 -51 -100.5t-100 -35.5q-69 0 -101 45.5t-22 110.5l3 16q11 65 51.5 101.5t98.5 36.5q47 0 77 -21.5t42 -57t5 -79.5zM601 164q10 55 -7 85t-53 30q-30 0 -53.5 -24t-32.5 -78l-7 -41q-10 -55 7 -85.5t53 -30.5
q31 0 54 24t32 78z" />
    <glyph glyph-name="ampersand" unicode="&#x26;" horiz-adv-x="619" 
d="M495 184q0 -60 -32 -103.5t-86.5 -67t-124.5 -23.5q-100 0 -157 40t-57 119t59 128t153 74q-60 41 -91 83.5t-31 93.5q0 48 26.5 84.5t72 57t101.5 20.5q70 0 114 -28t59.5 -72t-1.5 -93l-86 -19q25 87 -2 133.5t-85 46.5q-44 0 -77.5 -31.5t-33.5 -93.5q0 -38 16 -84.5
t56 -87.5l130 27q58 14 102 33t83 50l19 -84q-40 -11 -77 -18t-72 -12l-70 -11q92 -68 92 -162zM126 151q0 -67 35 -98t96 -31q70 0 116 44t46 127q0 39 -13 77t-44 70l-60 -9q-88 -13 -132 -59.5t-44 -120.5z" />
    <glyph glyph-name="quotesingle" unicode="'" horiz-adv-x="258" 
d="M176 438h-27q6 30 7.5 52t1.5 38q0 34 -5.5 53.5t-5.5 41.5q0 32 16 49.5t39 17.5q20 0 32 -12t12 -33q0 -19 -7 -34t-18 -34.5t-23 -52t-22 -86.5z" />
    <glyph glyph-name="parenleft" unicode="(" horiz-adv-x="336" 
d="M80 286l6 40q20 131 94 233.5t201 190.5l21 -28q-100 -79 -154.5 -180t-75.5 -224l-7 -38q-12 -74 -9.5 -148.5t24.5 -142t67 -120.5l-25 -22q-61 62 -96 136t-46 152t0 151z" />
    <glyph glyph-name="parenright" unicode=")" horiz-adv-x="336" 
d="M274 310l-6 -40q-19 -130 -94 -232t-201 -191l-20 28q99 79 153.5 179.5t75.5 224.5l7 37q13 74 10 149t-24.5 142.5t-67.5 120.5l25 22q61 -62 96 -136t46 -152t0 -152z" />
    <glyph glyph-name="asterisk" unicode="*" horiz-adv-x="444" 
d="M381 329l-65 -32q-13 25 -18 43.5t-8.5 36t-9.5 38.5t-20 50q-24 -22 -36.5 -39.5t-21.5 -33t-20.5 -31t-31.5 -34.5l-51 51q20 20 36.5 30.5t32 19.5t33.5 21t42 35q-29 15 -50 22t-38 11t-35.5 9.5t-43.5 18.5l35 65q24 -13 39 -25t28 -24t30 -25.5t46 -28.5
q6 32 6 53.5t-1.5 39t-1.5 36.5t5 47l71 -13q-4 -27 -11 -45t-14.5 -34t-14.5 -36.5t-13 -53.5q32 5 52.5 11.5t37 13.5t35 13t46.5 10l10 -72q-28 -4 -47.5 -3t-37 3t-39.5 3t-54 -4q14 -29 27 -46.5t24.5 -31t23 -29t23.5 -40.5z" />
    <glyph glyph-name="plus" unicode="+" horiz-adv-x="588" 
d="M513 317h-190l-34 -194h-35l34 194h-189l6 33h189l34 195h35l-34 -195h190z" />
    <glyph glyph-name="comma" unicode="," horiz-adv-x="258" 
d="M148 41q0 -49 -43.5 -110.5t-108.5 -123.5l-19 19q50 50 75.5 91.5t32.5 72.5q-21 1 -33.5 13.5t-12.5 34.5q0 26 16 43t42 17q23 0 37 -14.5t14 -42.5z" />
    <glyph glyph-name="hyphen" unicode="-" horiz-adv-x="404" 
d="M82 317l6 35h264l-6 -35h-264z" />
    <glyph glyph-name="period" unicode="." horiz-adv-x="258" 
d="M36 40q0 26 17 44t45 18q25 0 39 -13t14 -37q0 -26 -16.5 -44t-45.5 -18q-24 0 -38.5 13t-14.5 37z" />
    <glyph glyph-name="slash" unicode="/" horiz-adv-x="379" 
d="M412 740l35 -17l-495 -866l-35 17z" />
    <glyph glyph-name="zero" unicode="0" horiz-adv-x="614" 
d="M559 366l-11 -65q-26 -151 -94 -231t-177 -80q-77 0 -125.5 40.5t-65 113.5t0.5 171l11 65q26 149 94 229.5t177 80.5q77 0 125 -40.5t65 -113.5t0 -170zM473 419q21 123 -7.5 181t-96.5 58q-66 0 -106 -54.5t-62 -177.5l-28 -165q-21 -122 7.5 -180.5t95.5 -58.5
t107 54.5t62 177.5z" />
    <glyph glyph-name="one" unicode="1" horiz-adv-x="353" 
d="M91 597l147 83h71l-105 -599q-6 -34 -4 -40.5t17 -8.5l54 -6l-5 -26h-261l5 26l76 6q16 1 20.5 7.5t10.5 41.5l96 549l-108 -61z" />
    <glyph glyph-name="two" unicode="2" horiz-adv-x="539" 
d="M455 206l-36 -206h-402l10 53q13 72 46 119t77.5 80t91.5 61q45 27 85.5 56t66 71t25.5 106q0 60 -23.5 86t-72.5 26q-66 0 -100 -49.5t-41 -141.5l-84 16q0 56 25.5 103t76 75.5t123.5 28.5q67 0 108.5 -22t61.5 -59t20 -83q0 -57 -23 -95t-61.5 -64.5t-84.5 -48
t-92 -44.5q-62 -31 -112.5 -77t-70.5 -122h254q24 0 34 1.5t15 7.5t10 17l47 105h26z" />
    <glyph glyph-name="three" unicode="3" horiz-adv-x="527" 
d="M458 195q0 -51 -26 -98t-80 -77t-137 -30q-80 0 -130.5 36.5t-61.5 120.5l57 18q0 -55 18 -86.5t46.5 -44t60.5 -12.5q74 0 115.5 52t41.5 131q0 62 -32 95.5t-106 33.5h-27l7 32h27q65 0 104.5 26.5t57.5 68.5t18 90q0 56 -23.5 81.5t-69.5 25.5q-67 0 -101.5 -49.5
t-41.5 -141.5l-84 16q0 54 26 101t77 76.5t126 29.5q98 0 142.5 -44.5t44.5 -109.5q0 -70 -45 -119.5t-136 -67.5q64 -15 98 -53.5t34 -100.5z" />
    <glyph glyph-name="four" unicode="4" horiz-adv-x="495" 
d="M272 81l17 95h-289l5 32q81 73 138.5 142t101 148.5t81.5 181.5h106q-61 -140 -158.5 -252.5t-222.5 -219.5h243l28 157l89 14l-30 -171h77l-6 -32h-76l-17 -95q-6 -34 -4 -40.5t17 -8.5l54 -6l-5 -26h-261l5 26l76 6q17 1 21 7.5t10 41.5z" />
    <glyph glyph-name="five" unicode="5" horiz-adv-x="511" 
d="M92 348l77 332h247q25 0 35 1t14 6.5t9 18.5l21 56h26l-27 -159h-309l-48 -209q31 18 64.5 26.5t67.5 8.5q88 0 138.5 -48.5t50.5 -137.5q0 -44 -14.5 -89t-45.5 -82t-80 -59.5t-117 -22.5q-69 0 -115 36.5t-56 120.5l57 18q0 -55 15 -86.5t40 -44t55 -12.5q52 0 89 32.5
t57.5 87t20.5 121.5q0 65 -24 98.5t-80 33.5q-34 0 -71.5 -12.5t-78.5 -43.5z" />
    <glyph glyph-name="six" unicode="6" horiz-adv-x="575" 
d="M505 176q-8 -57 -41 -99t-82.5 -64.5t-108.5 -22.5q-80 0 -126.5 40.5t-61 114t1.5 171.5l11 63q27 164 98 237.5t177 73.5q68 0 111 -27.5t59.5 -71.5t3.5 -95l-88 -15q23 85 0.5 131t-89.5 46q-35 0 -68 -19t-58.5 -66.5t-40.5 -135.5l-18 -104q35 34 75 50.5t83 16.5
q56 0 96.5 -26t59 -72.5t9.5 -108.5zM171 256q-21 -123 5.5 -178.5t93.5 -55.5q53 0 91.5 35.5t51.5 120.5l2 13q12 78 -9 125t-82 47q-35 0 -74.5 -19t-74.5 -67z" />
    <glyph glyph-name="seven" unicode="7" horiz-adv-x="456" 
d="M503 611q-55 -58 -98.5 -117t-78 -128t-63 -158t-54.5 -208h-106q27 94 58.5 173t72 149.5t95 139t127.5 141.5h-263q-23 0 -33.5 -1.5t-15 -7t-9.5 -17.5l-42 -97h-27l36 200h413z" />
    <glyph glyph-name="eight" unicode="8" horiz-adv-x="544" 
d="M476 185q0 -50 -25.5 -95t-76.5 -72.5t-126 -27.5q-68 0 -115 22t-71 57.5t-24 77.5q0 56 43 107.5t134 83.5q-47 29 -75 68.5t-28 94.5q0 53 25 95.5t73 68t116 25.5q89 0 141 -42t52 -109q0 -49 -37 -97.5t-127 -76.5q121 -67 121 -180zM288 403l39 -22q43 16 67 42
t33.5 56.5t9.5 59.5q0 59 -32.5 89t-82.5 30q-33 0 -63 -13t-48.5 -40.5t-18.5 -70.5q0 -49 25.5 -77t70.5 -54zM120 149q0 -59 34 -93t97 -34q67 0 106.5 36.5t39.5 97.5q0 41 -21.5 73t-76.5 62l-56 30q-60 -22 -91.5 -67.5t-31.5 -104.5z" />
    <glyph glyph-name="nine" unicode="9" horiz-adv-x="575" 
d="M509 300q-18 -111 -59 -179t-99 -99.5t-129 -31.5q-69 0 -118 36.5t-57 119.5l62 18q-1 -55 13.5 -86t40.5 -43.5t57 -12.5q36 0 72.5 18.5t66.5 66.5t45 136l14 82q-34 -31 -73.5 -47t-80.5 -16q-56 0 -97 27t-59.5 76t-8.5 114l3 18q9 59 42 102.5t82.5 67t107.5 23.5
q81 0 127 -41t60.5 -114.5t-2.5 -171.5zM191 478q-13 -81 9 -130t83 -49q34 0 72 18t72 62l8 45q22 122 -4 178t-94 56q-52 0 -90.5 -37t-52.5 -126z" />
    <glyph glyph-name="colon" unicode=":" horiz-adv-x="258" 
d="M160 392q-25 0 -39 13t-14 37q0 26 16.5 44.5t44.5 18.5q25 0 39 -13.5t14 -37.5q0 -25 -16.5 -43.5t-44.5 -18.5zM89 -10q-24 0 -38.5 13t-14.5 37q0 26 17 44t45 18q25 0 39 -13t14 -37q0 -26 -16.5 -44t-45.5 -18z" />
    <glyph glyph-name="semicolon" unicode=";" horiz-adv-x="258" 
d="M160 392q-25 0 -39 13t-14 37q0 26 16.5 44.5t44.5 18.5q25 0 39 -13.5t14 -37.5q0 -25 -16.5 -43.5t-44.5 -18.5zM148 41q0 -49 -43.5 -110.5t-108.5 -123.5l-19 19q50 50 75.5 91.5t32.5 72.5q-21 1 -33.5 13.5t-12.5 34.5q0 26 16 43t42 17q23 0 37 -14.5t14 -42.5z
" />
    <glyph glyph-name="less" unicode="&#x3c;" horiz-adv-x="588" 
d="M489 187l-16 -30l-374 161l5 28l430 161l9 -31l-391 -146z" />
    <glyph glyph-name="equal" unicode="=" horiz-adv-x="588" 
d="M116 417l6 33h414l-6 -33h-414zM81 217l6 33h414l-6 -33h-414z" />
    <glyph glyph-name="greater" unicode="&#x3e;" horiz-adv-x="588" 
d="M513 318l-431 -161l-8 32l390 145l-336 143l16 30l374 -161z" />
    <glyph glyph-name="question" unicode="?" horiz-adv-x="479" 
d="M242 184h-46l4 22q7 43 24 72t38.5 50t44 39.5t42 41t31.5 53.5t12 78q0 63 -26 90.5t-68 27.5q-61 0 -94 -49t-40 -142l-79 16q1 55 23.5 102t70 76t123.5 29q91 0 136.5 -44t45.5 -110q0 -44 -16.5 -75t-43 -54t-56.5 -42.5t-57 -41t-45.5 -49t-21.5 -67.5zM192 -10
q-25 0 -39 13t-14 37q0 26 17 44t45 18q24 0 38.5 -13t14.5 -37q0 -26 -17 -44t-45 -18z" />
    <glyph glyph-name="at" unicode="@" horiz-adv-x="965" 
d="M741 -167q-55 -28 -123.5 -42t-130.5 -14q-97 0 -175 32.5t-134 91t-86 138.5t-30 175q0 101 32 187.5t90.5 151t139 101t176.5 36.5q88 0 162 -31.5t129 -87.5t85 -131t30 -162q0 -79 -27.5 -142.5t-75 -100.5t-108.5 -37q-48 0 -81.5 24.5t-41.5 70.5
q-34 -53 -71.5 -76.5t-78.5 -23.5q-53 0 -88.5 33t-49 90.5t-0.5 129.5l4 22q12 65 43.5 111t75 70.5t92.5 24.5q44 0 74.5 -18.5t51.5 -49.5q28 28 49 58h35l-56 -311q-9 -51 -4 -77.5t19 -36.5t32 -10q46 0 85 32t63 88t24 129q0 80 -27.5 149t-77.5 121t-118 81t-149 29
q-89 0 -163 -34t-128 -94.5t-83.5 -141.5t-29.5 -174q0 -118 48 -209.5t136 -143.5t207 -52q56 0 117.5 15t116.5 57zM363 216q-16 -94 5 -142.5t62 -48.5q21 0 43.5 10.5t48 40t53.5 85.5l36 205q-38 76 -107 76q-55 0 -86.5 -44.5t-44.5 -121.5z" />
    <glyph glyph-name="A" unicode="A" horiz-adv-x="628" 
d="M152 26l-5 -26h-193l5 26l55 6q11 1 17 3.5t11.5 12.5t16.5 33l299 599h63l89 -599q5 -34 9 -40.5t18 -8.5l54 -6l-4 -26h-240l5 26l56 6q17 2 19.5 8.5t-2.5 40.5l-18 128h-244l-64 -128q-17 -34 -17 -40.5t16 -8.5zM179 241h223l-50 348z" />
    <glyph glyph-name="B" unicode="B" horiz-adv-x="605" 
d="M119 653l5 27h268q65 0 105.5 -22.5t57 -60t8.5 -83.5l-4 -28q-9 -52 -44 -87.5t-94 -49.5q65 -14 95 -57t20 -104l-5 -27q-11 -73 -68.5 -117t-155.5 -44h-303l5 26l56 6q17 2 21 8.5t10 40.5l91 518q6 35 4 41t-17 8zM391 648h-109l-50 -286h108q104 0 125 116l7 41
q12 63 -9 96t-72 33zM360 330h-134l-52 -298h133q108 0 131 124l7 41q12 64 -10 98.5t-75 34.5z" />
    <glyph glyph-name="C" unicode="C" horiz-adv-x="586" 
d="M297 -10q-83 0 -135.5 40.5t-71.5 114t-4 170.5l11 67q23 143 99.5 225.5t196.5 82.5q74 0 120 -30.5t62 -78.5t-1 -101l-90 -21q27 96 3 147.5t-95 51.5t-121 -53t-70 -173l-28 -167q-21 -127 11 -185t116 -58q48 0 91 29t65 105l62 -21q-36 -79 -94.5 -112t-126.5 -33z
" />
    <glyph glyph-name="D" unicode="D" horiz-adv-x="659" 
d="M119 653l5 27h262q88 0 142 -41.5t74 -112.5t4 -160l-12 -65q-16 -91 -56 -158.5t-102 -105t-144 -37.5h-288l5 26l56 6q17 2 21 8.5t10 40.5l91 518q6 35 4 41t-17 8zM387 648h-105l-108 -616h117q80 0 130.5 56t69.5 165l29 165q19 110 -13.5 170t-119.5 60z" />
    <glyph glyph-name="E" unicode="E" horiz-adv-x="580" 
d="M512 163l-29 -163h-479l5 26l56 6q11 1 16 3.5t8 12t7 33.5l91 518q6 35 4 41t-17 8l-55 5l5 27h467l-29 -163h-26l-10 105q-1 12 -3.5 17.5t-12 7t-33.5 1.5h-194l-51 -289h134q24 0 34 1.5t15 7t10 17.5l32 75h25l-41 -234h-25l-6 75q-1 18 -8 22t-42 4h-134l-52 -295
h206q24 0 34 1.5t15 7t10 17.5l47 105h26z" />
    <glyph glyph-name="F" unicode="F" horiz-adv-x="543" 
d="M270 26l-5 -26h-261l5 26l56 6q11 1 15.5 3.5t7.5 12t7 33.5l92 518q6 35 4 41t-18 8l-54 5l5 27h457l-28 -163h-27l-10 105q-2 17 -8.5 21.5t-41.5 4.5h-184l-53 -298h125q24 0 34 1.5t14.5 7t9.5 17.5l33 75h26l-41 -234h-26l-6 75q-1 18 -8 22t-42 4h-124l-42 -237
q-6 -35 -4 -41.5t18 -7.5z" />
    <glyph glyph-name="G" unicode="G" horiz-adv-x="649" 
d="M484 12q-13 27 -34 44q-63 -66 -160 -66q-80 0 -131 40.5t-69.5 114t-3.5 170.5l11 67q23 143 102 225.5t202 82.5q77 0 124.5 -30t64 -78t0.5 -102l-90 -21q27 97 1.5 148t-102.5 51q-73 0 -125.5 -53t-72.5 -173l-28 -167q-21 -127 10.5 -185t110.5 -58q41 0 81.5 16.5
t66.5 59.5l23 129q7 35 5 41.5t-18 7.5l-74 5l4 27h255l-4 -27l-56 -5q-16 -2 -20.5 -8.5t-10.5 -40.5l-38 -215h-24z" />
    <glyph glyph-name="H" unicode="H" horiz-adv-x="726" 
d="M250 26l-5 -26h-241l5 26l56 6q11 1 15.5 3.5t7.5 12t7 33.5l92 518q6 35 4 41t-18 8l-54 5l5 27h241l-5 -27l-56 -5q-10 -1 -15 -4t-8 -12.5t-7 -32.5l-43 -240h302l43 240q6 35 4 41t-18 8l-54 5l5 27h241l-5 -27l-56 -5q-10 -1 -15 -4t-8 -12.5t-7 -32.5l-92 -518
q-6 -35 -4 -41t18 -8l54 -6l-5 -26h-241l5 26l56 6q11 1 15.5 3.5t7.5 12t7 33.5l44 246h-302l-44 -246q-6 -35 -4 -41t18 -8z" />
    <glyph glyph-name="I" unicode="I" horiz-adv-x="337" 
d="M119 653l5 27h241l-5 -27l-56 -5q-10 -1 -15 -4t-8 -12.5t-7 -32.5l-92 -518q-6 -35 -4 -41t18 -8l54 -6l-5 -26h-241l5 26l56 6q11 1 15.5 3.5t7.5 12t7 33.5l92 518q6 35 4 41t-18 8z" />
    <glyph glyph-name="J" unicode="J" horiz-adv-x="461" 
d="M255 653l5 27h241l-5 -27l-55 -5q-16 -2 -20.5 -8.5t-10.5 -40.5l-71 -405q-10 -56 -35.5 -102.5t-69 -74t-107.5 -27.5q-37 0 -69 13.5t-50 45t-15 85.5l65 19q-7 -54 1.5 -82t26.5 -38.5t37 -10.5q28 0 52.5 14.5t44.5 50.5t31 103l72 409q6 34 4 40.5t-17 8.5z" />
    <glyph glyph-name="K" unicode="K" horiz-adv-x="644" 
d="M250 26l-5 -26h-241l5 26l56 6q17 2 21 8.5t10 40.5l91 518q6 35 4 41.5t-17 7.5l-54 6l4 26h241l-4 -26l-56 -6q-16 -1 -20.5 -7.5t-10.5 -41.5l-49 -279l290 285q29 29 30.5 35.5t-13.5 7.5l-50 6l4 26h196l-4 -26l-53 -6q-10 -1 -16.5 -3.5t-15.5 -11t-29 -28.5
l-191 -188l133 -336q10 -24 15.5 -33.5t11 -12t15.5 -3.5l47 -6l-5 -26h-150l-133 352l-92 -91l-32 -180q-6 -34 -4 -40.5t17 -8.5z" />
    <glyph glyph-name="L" unicode="L" horiz-adv-x="515" 
d="M488 165l-29 -165h-455l5 26l56 6q11 1 15.5 3.5t7.5 12t7 33.5l92 518q6 35 4 41t-18 8l-54 5l5 27h241l-5 -27l-56 -5q-10 -1 -15 -4t-8 -12.5t-7 -32.5l-100 -567h181q24 0 34 1.5t15 7t10 17.5l48 107h26z" />
    <glyph glyph-name="M" unicode="M" horiz-adv-x="860" 
d="M303 680l109 -523l292 523h184l-5 -27l-56 -5q-16 -2 -20.5 -8.5t-10.5 -40.5l-91 -518q-6 -34 -4 -40.5t17 -8.5l54 -6l-4 -26h-241l4 26l56 6q16 2 20.5 8.5t10.5 40.5l96 544l-305 -545h-68l-114 548l-94 -547q-6 -34 -4 -40.5t17 -8.5l54 -6l-5 -26h-191l5 26l56 6
q14 2 19.5 8.5t11.5 40.5l91 518q6 34 4 40.5t-17 8.5l-55 5l5 27h179z" />
    <glyph glyph-name="N" unicode="N" horiz-adv-x="691" 
d="M119 653l5 27h167l228 -534l81 453q6 34 4 40.5t-17 8.5l-55 5l5 27h191l-5 -27l-55 -5q-16 -2 -20.5 -8.5t-10.5 -40.5l-106 -599h-40l-264 613l-94 -532q-6 -34 -4 -40.5t17 -8.5l54 -6l-5 -26h-191l5 26l56 6q17 2 21 8.5t10 40.5l91 518q6 34 4 40.5t-17 8.5z" />
    <glyph glyph-name="O" unicode="O" horiz-adv-x="666" 
d="M614 366l-12 -65q-16 -94 -56 -164t-102 -108.5t-143 -38.5q-87 0 -140.5 42.5t-72.5 116.5t-3 166l11 65q17 93 57 163t101.5 108.5t142.5 38.5q87 0 140.5 -43t73 -116.5t3.5 -164.5zM528 418q20 114 -12.5 177t-118.5 63q-78 0 -127.5 -58.5t-69.5 -171.5l-29 -165
q-20 -115 12.5 -178t117.5 -63q79 0 129 59t69 172z" />
    <glyph glyph-name="P" unicode="P" horiz-adv-x="574" 
d="M119 653l5 27h279q65 0 107 -25t60 -67.5t8 -96.5l-5 -29q-14 -82 -70.5 -128t-158.5 -46h-125l-36 -207q-6 -35 -4.5 -41.5t17.5 -7.5l74 -6l-5 -26h-261l5 26l56 6q17 2 21 8.5t10 40.5l91 518q6 35 4 41t-17 8zM402 648h-120l-57 -328h119q113 0 135 130l10 57
q23 141 -87 141z" />
    <glyph glyph-name="Q" unicode="Q" horiz-adv-x="668" 
d="M503 -98l-3 -89q-72 0 -128.5 41t-75.5 136q-85 2 -137.5 45t-70.5 116t-2 164l11 65q17 93 56.5 163t101 108.5t142.5 38.5q87 0 141 -43t73.5 -116.5t3.5 -164.5l-12 -65q-23 -133 -92.5 -216t-179.5 -94q14 -52 53.5 -70.5t118.5 -18.5zM529 418q20 114 -12.5 177
t-118.5 63q-78 0 -128 -58.5t-70 -171.5l-28 -165q-20 -115 12.5 -178t117.5 -63q79 0 129 59t69 172z" />
    <glyph glyph-name="R" unicode="R" horiz-adv-x="625" 
d="M119 653l5 27h271q67 0 109.5 -23.5t60.5 -63.5t9 -91l-5 -30q-11 -64 -51.5 -103.5t-105.5 -53.5l86 -234q9 -24 13.5 -33.5t9.5 -12t15 -3.5l44 -6l-4 -26h-146l-105 308h-102l-40 -227q-6 -34 -4 -40.5t17 -8.5l54 -6l-5 -26h-241l5 26l56 6q17 2 21 8.5t10 40.5
l91 518q6 34 4 40.5t-17 8.5zM397 648h-115l-54 -308h114q51 0 88 33.5t47 94.5l6 38q12 69 -12 105.5t-74 36.5z" />
    <glyph glyph-name="S" unicode="S" horiz-adv-x="548" 
d="M239 -10q-53 0 -100 16t-76.5 56t-30.5 110l63 20q-3 -67 16 -104t53 -51.5t76 -14.5q82 0 124.5 37.5t42.5 101.5q0 46 -24.5 76t-83.5 54l-74 29q-60 24 -92.5 67t-32.5 107q0 53 24.5 97.5t74.5 71.5t126 27q62 0 103.5 -18.5t64.5 -49t28 -67t-7 -72.5l-87 -18
q28 91 2 142t-108 51q-65 0 -104 -33.5t-39 -100.5q0 -45 22.5 -75.5t80.5 -53.5l74 -30q63 -25 97 -65.5t34 -102.5q0 -53 -26.5 -100.5t-81.5 -77t-139 -29.5z" />
    <glyph glyph-name="T" unicode="T" horiz-adv-x="559" 
d="M60 517l29 163h532l-28 -163h-27l-10 105q-1 18 -7.5 22t-41.5 4h-114l-100 -567q-6 -35 -4 -41t17 -8l54 -6l-4 -26h-241l4 26l56 6q11 1 16 3.5t8 12t7 33.5l100 567h-114q-23 0 -33.5 -1.5t-15 -7t-9.5 -17.5l-48 -105h-26z" />
    <glyph glyph-name="U" unicode="U" horiz-adv-x="677" 
d="M524 653l5 27h191l-5 -27l-55 -5q-15 -2 -20 -8.5t-11 -40.5l-65 -369q-19 -112 -80 -176t-169 -64q-118 0 -172 69t-33 187l62 353q6 34 4 40.5t-17 8.5l-55 5l5 27h241l-5 -27l-55 -5q-15 -2 -20 -8.5t-11 -40.5l-65 -369q-19 -106 12 -157t114 -51q86 0 137.5 53.5
t69.5 154.5l65 369q6 34 4 40.5t-17 8.5z" />
    <glyph glyph-name="V" unicode="V" horiz-adv-x="620" 
d="M600 605l-300 -605h-68l-87 605q-4 30 -7.5 35.5t-18.5 7.5l-51 5l5 27h233l-5 -27l-52 -5q-16 -2 -18.5 -8t1.5 -35l74 -516l255 516q15 29 14.5 35t-16.5 8l-51 5l5 27h185l-5 -27l-52 -5q-10 -1 -15.5 -3.5t-10.5 -11t-15 -28.5z" />
    <glyph glyph-name="W" unicode="W" horiz-adv-x="921" 
d="M586 0l-69 573l-269 -573h-65l-40 605q-1 29 -4.5 35t-18.5 8l-51 5l5 27h230l-5 -27l-52 -5q-16 -2 -18.5 -7.5t-1.5 -35.5l32 -500l268 575h62l70 -571l206 496q12 30 11 36t-16 7l-51 5l5 27h186l-5 -27l-52 -5q-10 -1 -15.5 -3.5t-10 -11t-13.5 -28.5l-253 -605h-65z
" />
    <glyph glyph-name="X" unicode="X" horiz-adv-x="598" 
d="M152 26l-4 -26h-190l4 26l52 6q10 1 15.5 3t13.5 11t24 29l206 260l-106 270q-11 30 -16 35.5t-19 7.5l-51 5l5 27h239l-5 -27l-52 -5q-16 -2 -17.5 -8t9.5 -35l81 -208l163 208q23 29 24.5 35t-13.5 8l-51 5l5 27h190l-5 -27l-52 -5q-10 -1 -15.5 -3.5t-13.5 -11
t-24 -28.5l-194 -246l111 -284q11 -30 16 -35.5t19 -7.5l51 -6l-5 -26h-238l5 26l52 6q17 2 18 7.5t-10 35.5l-87 222l-175 -222q-23 -29 -24 -35t14 -8z" />
    <glyph glyph-name="Y" unicode="Y" horiz-adv-x="588" 
d="M376 26l-5 -26h-241l5 26l56 6q11 1 16 3.5t9 13.5l42 243l-105 313q-10 30 -15.5 35.5t-19.5 7.5l-51 5l5 27h239l-5 -27l-52 -5q-16 -2 -17.5 -8t8.5 -35l88 -273l187 273q20 29 20 35.5t-14 7.5l-51 5l5 27h188l-5 -27l-52 -5q-11 -1 -17 -3.5t-12.5 -11t-20.5 -28.5
l-216 -314l-37 -212l1 2q-6 -35 -4 -41t17 -8z" />
    <glyph glyph-name="Z" unicode="Z" horiz-adv-x="531" 
d="M476 163l-28 -163h-452l4 22l447 626h-215q-23 0 -34 -1.5t-15.5 -7t-9.5 -17.5l-48 -105h-26l29 163h430l-5 -22l-447 -626h238q24 0 34 1.5t15 7t10 17.5l47 105h26z" />
    <glyph glyph-name="bracketleft" unicode="[" horiz-adv-x="356" 
d="M272 -111l-6 -32h-233l156 883h233l-6 -32h-150l-145 -819h151z" />
    <glyph glyph-name="backslash" unicode="\" horiz-adv-x="379" 
d="M135 740l195 -868l-37 -13l-194 868z" />
    <glyph glyph-name="bracketright" unicode="]" horiz-adv-x="356" 
d="M339 740l-155 -883h-232l5 32h150l145 819h-151l5 32h233z" />
    <glyph glyph-name="asciicircum" unicode="^" horiz-adv-x="588" 
d="M474 278l-32 -12l-80 363l-208 -363l-30 12l232 402h28z" />
    <glyph glyph-name="underscore" unicode="_" horiz-adv-x="409" 
d="M-50 -143l6 34h371l-6 -34h-371z" />
    <glyph glyph-name="grave" unicode="`" horiz-adv-x="500" 
d="M309 579q-38 39 -65 77t-49 84h91q5 -47 16 -78t30 -66z" />
    <glyph glyph-name="a" unicode="a" horiz-adv-x="581" 
d="M444 -5q-37 0 -58.5 22.5t-23.5 68.5q-34 -53 -73 -74.5t-80 -21.5q-59 0 -96 36.5t-50 97.5t1 136l4 22q13 70 46.5 120t81.5 76.5t102 26.5q42 0 73.5 -16.5t51.5 -46.5q14 11 27 25l26 28h35l-61 -345q-13 -74 -10 -98t19 -24q15 0 32.5 17.5t31.5 59.5l35 -22
q-22 -46 -51 -67t-63 -21zM149 234q-17 -100 4.5 -155t68.5 -55q19 0 43 10.5t50.5 40t54.5 85.5l41 236q-18 39 -44.5 57t-62.5 18q-61 0 -96.5 -48t-49.5 -132z" />
    <glyph glyph-name="b" unicode="b" horiz-adv-x="568" 
d="M500 213q-12 -70 -46.5 -120t-82.5 -76.5t-103 -26.5q-42 0 -73 15.5t-52 43.5q-19 -10 -34 -23.5t-32 -30.5h-24l116 664q6 34 4 40.5t-17 8.5l-53 5l4 27h159l-58 -328q34 51 72 72t78 21q60 0 97 -36.5t50 -97.5t-1 -136zM344 470q-19 0 -43.5 -11.5t-51.5 -43
t-57 -91.5l-39 -226q18 -39 45 -56.5t64 -17.5q62 0 97.5 47.5t49.5 131.5l10 57q17 101 -5 155.5t-70 54.5z" />
    <glyph glyph-name="c" unicode="c" horiz-adv-x="485" 
d="M307 473q-50 0 -92 -43.5t-58 -140.5l-10 -60q-17 -104 7.5 -155.5t82.5 -51.5q23 0 49.5 9t50 31.5t37.5 61.5l46 -26q-35 -61 -85.5 -84.5t-103.5 -23.5q-65 0 -108 33t-59.5 92.5t-2.5 138.5l4 22q13 68 47 119.5t85 80.5t114 29q59 0 97 -25t51 -67t-4 -93l-81 -16
q26 80 7.5 124.5t-74.5 44.5z" />
    <glyph glyph-name="d" unicode="d" horiz-adv-x="585" 
d="M448 -5q-37 0 -59 24t-23 73q-35 -57 -75 -79.5t-81 -22.5q-59 0 -96.5 36.5t-50.5 97.5t1 136l4 22q13 70 47 120t82 76.5t102 26.5q41 0 72.5 -15.5t52.5 -43.5l37 213q6 35 4 41t-17 8l-54 5l4 27h160l-104 -590q-13 -74 -10 -98t19 -24q15 0 32.5 17.5t30.5 59.5
l36 -22q-22 -46 -51 -67t-63 -21zM149 234q-17 -100 4.5 -155t69.5 -55q20 0 44 11.5t51.5 42.5t56.5 90l40 227q-19 40 -46 58t-64 18q-61 0 -97 -48t-50 -132z" />
    <glyph glyph-name="e" unicode="e" horiz-adv-x="502" 
d="M435 98q-35 -61 -88 -84.5t-105 -23.5q-69 0 -114.5 33t-63 92.5t-3.5 138.5l4 22q12 68 46.5 119.5t87 80.5t118.5 29q51 0 86 -17t53 -44.5t18 -58.5q0 -50 -35.5 -86t-98 -56.5t-144.5 -26.5l-52 -4q-13 -95 13.5 -142.5t87.5 -47.5q24 0 52 9t53 31t38 61zM156 289
l-7 -45l46 3q82 5 126 27t61 53t17 62q0 39 -22.5 61.5t-62.5 22.5q-53 0 -97 -43.5t-61 -140.5z" />
    <glyph glyph-name="f" unicode="f" horiz-adv-x="331" 
d="M383 463h-160l-119 -676h-82l111 627q6 34 4 40.5t-17 8.5l-55 5l5 27h77l13 72q9 49 30 90.5t59.5 67t100.5 25.5q58 0 91.5 -21.5t43.5 -56.5t-4 -77l-82 -16q44 139 -49 139q-26 0 -46 -11.5t-35 -41t-25 -84.5l-15 -86h159z" />
    <glyph glyph-name="g" unicode="g" horiz-adv-x="564" 
d="M428 9q-11 -61 -40.5 -114t-81.5 -85.5t-131 -32.5q-78 0 -116 42t-33 109l57 12q-7 -72 18.5 -102.5t73.5 -30.5q62 0 106.5 42.5t63.5 149.5l14 76q-34 -47 -72 -66t-77 -19q-59 0 -96.5 36.5t-50.5 97.5t1 136l4 22q13 70 47 120t82 76.5t102 26.5q43 0 75 -16.5
t53 -46.5q13 11 26 24.5t26 28.5h35zM149 234q-17 -100 4.5 -155t69.5 -55q20 0 44 10.5t51.5 40t55.5 85.5l41 234q-18 41 -45.5 59t-64.5 18q-61 0 -97 -48t-50 -132z" />
    <glyph glyph-name="h" unicode="h" horiz-adv-x="611" 
d="M588 83q-22 -46 -51.5 -67t-64.5 -21q-45 0 -67.5 31.5t-8.5 100.5l39 196q16 76 -1 110t-56 34q-24 0 -53.5 -13t-62.5 -45.5t-67 -92.5l-56 -316h-82l116 659q6 34 4 40.5t-17 8.5l-55 5l5 27h159l-61 -347q44 60 92 86t96 26q73 0 106 -49t16 -132l-41 -200
q-10 -51 -9 -73.5t20 -22.5q16 0 34 17.5t31 59.5z" />
    <glyph glyph-name="i" unicode="i" horiz-adv-x="300" 
d="M212 608q-49 0 -49 48q0 25 16.5 42.5t43.5 17.5q23 0 36.5 -12.5t13.5 -34.5q0 -25 -16.5 -43t-44.5 -18zM66 468l5 27h159l-60 -345q-13 -74 -10 -98t19 -24q15 0 32.5 17.5t30.5 59.5l36 -22q-22 -46 -51.5 -67t-62.5 -21q-46 0 -68.5 36t-9.5 111l47 272q6 34 4 40.5
t-17 8.5z" />
    <glyph glyph-name="j" unicode="j" horiz-adv-x="284" 
d="M212 608q-23 0 -36 14t-11 37q2 25 19.5 41t42.5 16q24 0 37 -13.5t11 -36.5q-2 -24 -19.5 -41t-43.5 -17zM68 468l4 27h159l-96 -547q-8 -45 -28 -84t-56 -63t-92 -24q-52 0 -83.5 29.5t-27.5 86.5l57 16q-4 -55 11 -77.5t40 -22.5q36 0 59.5 27.5t36.5 103.5l83 474
q6 34 4 40.5t-17 8.5z" />
    <glyph glyph-name="k" unicode="k" horiz-adv-x="521" 
d="M357 0l-112 260l-81 -72l-33 -188h-81l116 659q6 34 4 40.5t-17 8.5l-54 5l4 27h159l-88 -499l120 112q48 44 81.5 72.5t64 47.5t67.5 32l16 -85q-66 -13 -119 -39.5t-97 -64.5l108 -241q13 -30 19 -35.5t21 -7.5l51 -6l-5 -26h-144z" />
    <glyph glyph-name="l" unicode="l" horiz-adv-x="291" 
d="M99 713l4 27h159l-103 -590q-13 -74 -9.5 -98t19.5 -24q14 0 32 17.5t31 59.5l35 -22q-22 -46 -51 -67t-62 -21q-47 0 -69 36t-9 111l90 517q6 34 4 40.5t-17 8.5z" />
    <glyph glyph-name="m" unicode="m" horiz-adv-x="920" 
d="M894 83q-22 -46 -51.5 -67t-64.5 -21q-46 0 -68 32t-9 100l40 196q15 76 -1.5 110t-51.5 34t-80.5 -30.5t-95.5 -117.5l-56 -319h-82l57 323q14 76 -2 110t-51 34t-81 -31t-96 -120l-56 -316h-82l72 414q6 34 4 40.5t-17 8.5l-54 5l5 27h156l-17 -105q44 61 90 88t94 27
q56 0 87.5 -32.5t34.5 -88.5q44 65 91.5 93t96.5 28q71 0 102.5 -49t14.5 -132l-41 -200q-10 -51 -9 -73.5t20 -22.5q17 0 34.5 17.5t30.5 59.5z" />
    <glyph glyph-name="n" unicode="n" horiz-adv-x="616" 
d="M594 83q-22 -46 -51.5 -67t-64.5 -21q-46 0 -68 32t-9 100l40 196q15 76 -2 110t-56 34q-24 0 -53.5 -13t-62 -45.5t-67.5 -92.5l-55 -316h-82l72 414q6 34 4 40.5t-17 8.5l-54 5l5 27h156l-18 -106q44 62 92.5 89t97.5 27q74 0 106.5 -49t15.5 -132l-41 -200
q-10 -51 -9 -73.5t20 -22.5q17 0 34.5 17.5t30.5 59.5z" />
    <glyph glyph-name="o" unicode="o" horiz-adv-x="554" 
d="M492 242l-4 -22q-19 -109 -83 -169.5t-164 -60.5q-70 0 -114.5 35.5t-61.5 95t-4 131.5l4 23q20 109 83 169.5t162 60.5q71 0 116 -35.5t62 -95.5t4 -132zM406 268q18 102 -9 154t-89 52q-55 0 -94.5 -43.5t-56.5 -142.5l-10 -61q-18 -102 9 -154.5t88 -52.5
q56 0 95.5 44t55.5 143z" />
    <glyph glyph-name="p" unicode="p" horiz-adv-x="577" 
d="M277 -10q-41 0 -72 15t-52 43l-46 -261h-82l110 627q6 34 4 40.5t-17 8.5l-54 6l5 26h156l-16 -89q35 55 74 77t80 22q60 0 97 -36.5t50 -97.5t-1 -136l-4 -22q-12 -70 -46.5 -120t-82.5 -76.5t-103 -26.5zM353 470q-19 0 -43.5 -11.5t-52 -43t-56.5 -92.5l-39 -225
q18 -39 45 -56.5t64 -17.5q62 0 97.5 47.5t49.5 131.5l10 57q17 101 -5 155.5t-70 54.5z" />
    <glyph glyph-name="q" unicode="q" horiz-adv-x="565" 
d="M516 500l-127 -713h-82l53 296q-34 -52 -72 -72.5t-78 -20.5q-59 0 -96.5 36.5t-50.5 97.5t1 136l4 22q13 70 47 120t82 76.5t102 26.5q42 0 73.5 -16t52.5 -45q33 19 67 56h24zM149 234q-17 -100 4.5 -155t69.5 -55q20 0 44 11.5t51.5 43t56.5 90.5l40 225
q-18 41 -45.5 59t-64.5 18q-61 0 -97 -48t-50 -132z" />
    <glyph glyph-name="r" unicode="r" horiz-adv-x="428" 
d="M332 450q-17 0 -37.5 -11t-43.5 -40t-50 -83l-56 -316h-82l73 414q6 34 4 40.5t-17 8.5l-55 5l5 27h157l-18 -104q39 62 80 88t80 26q32 0 57 -18t35 -59l-70 -47q-8 38 -23.5 53.5t-38.5 15.5z" />
    <glyph glyph-name="s" unicode="s" horiz-adv-x="458" 
d="M193 -10q-44 0 -82 12t-61.5 39.5t-26.5 72.5l58 20q-1 -65 31 -89t80 -24q56 0 91.5 24.5t35.5 69.5q0 30 -19.5 52.5t-67.5 37.5l-58 19q-48 15 -74.5 48t-26.5 79q0 37 18.5 72t58.5 58.5t106 23.5q65 0 103.5 -23t51 -59t-1.5 -77l-82 -16q25 69 4 106t-80 37
q-48 0 -77 -24.5t-29 -66.5q0 -35 19.5 -55.5t54.5 -31.5l58 -19q52 -16 82.5 -50t30.5 -85q0 -38 -20.5 -73t-64 -56.5t-112.5 -21.5z" />
    <glyph glyph-name="t" unicode="t" horiz-adv-x="363" 
d="M334 102q-27 -64 -62.5 -88t-75.5 -24q-76 0 -102 49t-13 126l43 250q6 33 4 39.5t-18 8.5l-54 5l5 27h77l23 131l85 17l-26 -148h163l-6 -32h-163l-56 -318q-13 -71 0.5 -97t40.5 -26t47.5 21.5t38.5 77.5z" />
    <glyph glyph-name="u" unicode="u" horiz-adv-x="605" 
d="M468 -5q-40 0 -62.5 27t-19.5 83q-43 -61 -90 -88t-96 -27q-70 0 -100.5 48.5t-16.5 131.5l43 244q6 34 4 40.5t-17 8.5l-55 5l5 27h160l-57 -324q-13 -76 2 -110t50 -34q24 0 52.5 13t60 46t65.5 92l56 317h82l-60 -345q-13 -74 -10 -98t19 -24q15 0 32.5 17.5
t30.5 59.5l36 -22q-22 -46 -51.5 -67t-62.5 -21z" />
    <glyph glyph-name="v" unicode="v" horiz-adv-x="538" 
d="M53 468l5 27h159l-47 -273q-19 -105 -3.5 -150t61.5 -45q44 0 88 37.5t73.5 115.5t29.5 198q0 23 -1.5 47.5t-3.5 49.5l92 30q-9 -153 -40.5 -253t-75.5 -157.5t-91.5 -81t-89.5 -23.5q-78 0 -109.5 61t-12.5 170l34 193q6 34 4 40.5t-18 8.5z" />
    <glyph glyph-name="w" unicode="w" horiz-adv-x="804" 
d="M769 505q-9 -153 -38.5 -253t-70.5 -157.5t-86.5 -81t-86.5 -23.5q-52 0 -82 29t-38 83q-39 -62 -84 -87t-86 -25q-77 0 -104 57.5t-9 154.5l38 212q6 34 4 40.5t-18 8.5l-55 5l5 27h160l-52 -292q-16 -93 -6.5 -134.5t52.5 -41.5q41 0 82 35.5t72 108.5q1 22 6 50
l48 274h82l-47 -273q-18 -105 -7 -150t57 -45q42 0 82.5 37.5t67.5 114t27 193.5q0 24 -1 49.5t-4 53.5z" />
    <glyph glyph-name="x" unicode="x" horiz-adv-x="502" 
d="M208 179q-32 -43 -57 -75.5t-47 -59.5t-47 -54l-69 48q64 44 114 86t93 85l29 29l-72 182q-11 30 -17.5 35.5t-21.5 7.5l-51 5l5 27h139l77 -197l13 18q32 43 57 75t47.5 59.5t47.5 54.5l69 -49q-64 -44 -114.5 -85.5t-93.5 -85.5l-15 -15l77 -195q11 -30 17.5 -35.5
t21.5 -7.5l50 -6l-4 -26h-139l-84 214z" />
    <glyph glyph-name="y" unicode="y" horiz-adv-x="585" 
d="M448 9q-10 -61 -39.5 -114t-82 -85.5t-131.5 -32.5q-78 0 -116 42t-32 109l57 12q-8 -72 18 -102.5t73 -30.5q62 0 106.5 42.5t63.5 149.5l18 102q-43 -59 -89.5 -85t-93.5 -26q-70 0 -100.5 48.5t-16.5 131.5l43 244q6 34 4 40.5t-17 8.5l-55 5l5 27h160l-57 -324
q-13 -76 2 -110t50 -34q36 0 81.5 31.5t96.5 119.5l56 317h82z" />
    <glyph glyph-name="z" unicode="z" horiz-adv-x="457" 
d="M413 140q-10 -65 -39 -107.5t-82 -42.5q-35 0 -65.5 15.5t-58 31t-54.5 15.5q-19 0 -39.5 -11.5t-45.5 -40.5l-25 23l350 406h-165q-35 0 -43.5 -3t-15.5 -19l-35 -78h-26l29 166h342l-5 -25l-326 -378q16 9 28.5 12.5t25.5 3.5q28 0 51.5 -13.5t47.5 -27t51 -13.5
q32 0 47.5 24t25.5 69z" />
    <glyph glyph-name="braceleft" unicode="{" horiz-adv-x="401" 
d="M317 -112l-5 -32h-77q-55 0 -93.5 22t-50 63.5t12.5 99.5l43 106q23 59 14.5 97t-47.5 38h-77l5 32h77q40 0 61.5 38.5t19.5 96.5l-5 106q-5 103 43 144t135 41h94l-6 -32h-85q-53 0 -76 -35.5t-21 -98.5l6 -106q5 -76 -24 -117.5t-84 -55.5q44 -16 59.5 -58t-11.5 -109
l-43 -106q-25 -63 -14.5 -98.5t64.5 -35.5h85z" />
    <glyph glyph-name="bar" unicode="|" horiz-adv-x="237" 
d="M186 740h37l-168 -953h-37z" />
    <glyph glyph-name="braceright" unicode="}" horiz-adv-x="401" 
d="M223 41q5 -103 -43.5 -144t-134.5 -41h-93l5 32h84q54 0 76.5 35.5t20.5 98.5l-6 106q-4 76 24.5 118t83.5 55q-44 16 -59.5 58t11.5 109l43 106q26 63 15 98.5t-64 35.5h-85l5 32h76q56 0 94.5 -22t50 -63t-12.5 -100l-43 -106q-23 -58 -15 -97t48 -39h77l-5 -32h-77
q-40 0 -62 -37.5t-19 -96.5z" />
    <glyph glyph-name="asciitilde" unicode="~" horiz-adv-x="588" 
d="M394 257q-29 0 -48.5 12t-33 29t-26.5 34.5t-28 29.5t-37 12q-25 0 -46.5 -19t-49.5 -75l-30 14q32 68 63 91t64 23q29 0 48.5 -11.5t33.5 -29t26.5 -35t28 -29t37.5 -11.5q25 0 46.5 19.5t49.5 74.5l30 -15q-32 -67 -63 -90.5t-65 -23.5z" />
    <glyph glyph-name="uni007F" 
 />
    <glyph glyph-name="uni00A0" unicode="&#xa0;" 
 />
    <glyph glyph-name="exclamdown" unicode="&#xa1;" horiz-adv-x="258" 
d="M168 505q25 0 39 -13.5t14 -37.5q0 -25 -16.5 -43.5t-44.5 -18.5q-25 0 -39 13t-14 37q0 26 16.5 44.5t44.5 18.5zM125 311h30q-12 -71 -18.5 -123t-10.5 -94.5t-7 -83t-9 -87t-17 -108.5h-82q11 62 22 108.5t22 87t22.5 83t23 94.5t24.5 123z" />
    <glyph glyph-name="cent" unicode="&#xa2;" horiz-adv-x="485" 
d="M420 98q-34 -58 -81 -82t-97 -26l-20 -115h-36l20 116q-85 10 -125 81t-20 182l4 22q12 65 44 115.5t80 80.5t108 33l20 115h36l-20 -116q51 -5 84 -30.5t43.5 -65.5t-5.5 -88l-81 -16q23 73 10 116.5t-57 50.5l-79 -449q34 3 70.5 25t55.5 77zM147 229q-15 -92 2.5 -143
t62.5 -61l79 447q-46 -6 -83 -50t-51 -133z" />
    <glyph glyph-name="sterling" unicode="&#xa3;" horiz-adv-x="525" 
d="M449 184l-32 -184h-399l10 55q59 46 88.5 82.5t39 65.5t9.5 52q0 8 -0.5 15t-1.5 14h-103l6 32h89q-13 38 -29.5 77t-16.5 91q0 35 11.5 71t37.5 66.5t69.5 49.5t107.5 19q78 0 121.5 -30.5t55.5 -78t-7 -98.5l-90 -16q26 90 8 140.5t-86 50.5q-63 0 -97.5 -52.5
t-34.5 -135.5q0 -40 7 -78t11 -76h173l-6 -32h-165v-5q0 -48 -25 -97.5t-96 -108.5h228q35 0 43.5 4t15.5 22l32 85h26z" />
    <glyph glyph-name="currency" unicode="&#xa4;" horiz-adv-x="580" 
d="M505 67l-24 -24l-77 96q-52 -36 -120 -36q-77 0 -127 45l-121 -105l-22 24l121 107q-31 45 -31 108q0 47 17 88t48 70l-74 93l25 24l76 -95q25 17 55 26t64 9q39 0 71.5 -12t56.5 -34l122 106l21 -25l-122 -107q31 -43 31 -107q0 -46 -17 -87t-47 -70zM315 463
q-51 0 -90 -23.5t-60.5 -64t-21.5 -92.5q0 -69 37 -108t104 -39q51 0 90 23.5t61 64.5t22 93q0 68 -37.5 107t-104.5 39z" />
    <glyph glyph-name="yen" unicode="&#xa5;" horiz-adv-x="608" 
d="M386 26l-5 -26h-241l5 26l56 6q11 1 16 3.5t9 13.5l29 165h-182l5 32h182l8 46l-20 62h-151l6 32h134l-74 219q-10 30 -15.5 35.5t-19.5 7.5l-51 5l5 27h239l-5 -27l-52 -5q-16 -2 -17.5 -8t8.5 -35l88 -273l187 273q20 29 20 35.5t-14 7.5l-51 5l5 27h188l-5 -27l-52 -5
q-11 -1 -17 -3.5t-12.5 -11t-20.5 -28.5l-150 -219h133l-5 -32h-150l-44 -63l-8 -45h183l-6 -32h-182l-24 -135l1 2q-6 -35 -4 -41t17 -8z" />
    <glyph glyph-name="brokenbar" unicode="&#xa6;" horiz-adv-x="224" 
d="M180 740h37l-68 -383h-37zM79 170h37l-67 -383h-37z" />
    <glyph glyph-name="section" unicode="&#xa7;" horiz-adv-x="539" 
d="M412 -35q0 -48 -24 -91t-73.5 -70t-124.5 -27q-51 0 -94.5 18t-69.5 57.5t-27 101.5l62 20q-4 -59 12.5 -95.5t48 -53t70.5 -16.5q68 0 104.5 32.5t36.5 87.5q0 39 -20 64.5t-72 45.5l-69 28q-62 24 -96 63t-34 93q0 58 39 100.5t106 59.5q-67 44 -67 131q0 48 22 88
t67.5 64t115.5 24q71 0 113.5 -28.5t56.5 -71.5t1 -88l-87 -18q23 82 0 128t-88 46q-56 0 -89.5 -28.5t-33.5 -85.5q0 -38 19.5 -64t70.5 -46l72 -26q63 -23 96.5 -63t33.5 -93q0 -54 -37 -98.5t-106 -65.5q65 -44 65 -123zM227 141l79 -32q54 11 80 38.5t26 67.5
q0 42 -24 69t-84 49l-74 28q-53 -6 -81.5 -32t-28.5 -72q0 -40 24.5 -66.5t82.5 -49.5z" />
    <glyph glyph-name="dieresis" unicode="&#xa8;" horiz-adv-x="500" 
d="M216 611q-21 0 -33.5 12.5t-12.5 32.5q0 23 16 40t41 17q22 0 34 -12t12 -32q0 -23 -15.5 -40.5t-41.5 -17.5zM418 611q-20 0 -33 12.5t-13 32.5q0 23 16 40t41 17q22 0 34.5 -12t12.5 -32q0 -23 -15.5 -40.5t-42.5 -17.5z" />
    <glyph glyph-name="copyright" unicode="&#xa9;" horiz-adv-x="852" 
d="M442 -37q-79 0 -146.5 29t-118 80t-79 120t-28.5 148q0 80 28.5 148.5t79 120t118 80t146.5 28.5q78 0 146 -28.5t118.5 -80t79 -120t28.5 -148.5q0 -79 -28.5 -148t-79 -120t-118.5 -80t-146 -29zM442 -5q72 0 133.5 26t107.5 73t71.5 110t25.5 136t-25.5 135.5
t-71.5 109.5t-107.5 73.5t-133.5 26.5t-133.5 -26.5t-107.5 -73.5t-71.5 -109.5t-25.5 -135.5t25.5 -136t71.5 -110t107.5 -73t133.5 -26zM446 542q-56 0 -87 -39.5t-31 -131.5v-61q0 -92 30 -132t97 -40q46 0 74.5 23t40.5 82l50 -13q-18 -68 -65.5 -95t-104.5 -27
q-99 0 -148.5 60.5t-49.5 161.5v21q0 101 50 161t144 60q59 0 99 -23t58 -62t10 -89l-65 -9q11 74 -16 113.5t-86 39.5z" />
    <glyph glyph-name="ordfeminine" unicode="&#xaa;" horiz-adv-x="410" 
d="M356 338q-53 0 -59 57q-22 -34 -48 -47t-52 -13q-40 0 -65.5 24.5t-34 66t0.5 91.5l3 16q13 71 57 111.5t99 40.5q29 0 50.5 -11.5t35.5 -31.5q8 8 16.5 17t15.5 19h26l-42 -235q-8 -49 -5.5 -65t12.5 -16t21.5 12t19.5 38l26 -15q-29 -59 -77 -59zM159 501
q-11 -67 3 -104t43 -37q19 0 44 16t52 65l30 174q-23 44 -71 44q-39 0 -62 -32t-33 -88z" />
    <glyph glyph-name="guillemotleft" unicode="&#xab;" horiz-adv-x="645" 
d="M297 25l-18 -15l-229 222l4 24l307 222l15 -22l-226 -218zM547 25l-18 -15l-229 222l4 24l307 222l15 -22l-226 -218z" />
    <glyph glyph-name="logicalnot" unicode="&#xac;" horiz-adv-x="588" 
d="M118 428l6 33h414l-39 -224h-36l34 191h-379z" />
    <glyph glyph-name="uni00AD" unicode="&#xad;" horiz-adv-x="0" 
 />
    <glyph glyph-name="registered" unicode="&#xae;" horiz-adv-x="556" 
d="M318 241q-66 0 -119 32t-84 86t-31 120q0 67 31 121t84 85.5t119 31.5t119 -31.5t84 -85.5t31 -121q0 -66 -31 -120t-84 -86t-119 -32zM318 271q57 0 103 27.5t72.5 74.5t26.5 106t-26.5 106t-72.5 74.5t-103 27.5q-56 0 -102 -27.5t-72.5 -74.5t-26.5 -106t26.5 -106
t72.5 -74.5t102 -27.5zM211 588v21h111q40 0 61.5 -18t21.5 -48v-16q0 -45 -44 -62l43 -69q8 -13 10 -16t8 -3l18 -1v-22h-69l-59 105h-25v-63q0 -13 1.5 -16t6.5 -3l21 -1v-22h-105v22l21 1q6 0 7.5 3t1.5 16v172q0 13 -1.5 15t-7.5 3zM322 586h-35v-103h35q35 0 35 44v16
q0 43 -35 43z" />
    <glyph glyph-name="macron" unicode="&#xaf;" horiz-adv-x="500" 
d="M467 666l-8 -47h-287l8 47h287z" />
    <glyph glyph-name="degree" unicode="&#xb0;" horiz-adv-x="387" 
d="M228 366q-64 0 -104.5 39t-40.5 105q0 50 23 91t62.5 65t90.5 24q65 0 105 -39t40 -105q0 -50 -23 -91t-62.5 -65t-90.5 -24zM259 656q-61 0 -99.5 -41.5t-38.5 -103.5q0 -52 28.5 -82t78.5 -30q61 0 99 41.5t38 104.5q0 52 -28 81.5t-78 29.5z" />
    <glyph glyph-name="plusminus" unicode="&#xb1;" horiz-adv-x="588" 
d="M513 317h-190l-34 -194h-35l34 194h-189l6 33h189l34 195h35l-34 -195h190zM43 0l6 33h414l-6 -33h-414z" />
    <glyph glyph-name="uni00B2" unicode="&#xb2;" horiz-adv-x="290" 
d="M298 544l-17 -99h-217l5 27q7 37 19 59t33.5 37.5t55.5 32.5q51 26 70 52.5t19 63.5q0 50 -37 50q-31 0 -46.5 -23t-19.5 -67l-57 8q0 41 30 73t91 32q56 0 79 -24.5t23 -57.5q0 -32 -18 -54.5t-51 -41t-79 -40.5q-34 -16 -52.5 -34.5t-26.5 -48.5h130q17 0 21.5 2
t7.5 11l17 42h20z" />
    <glyph glyph-name="uni00B3" unicode="&#xb3;" horiz-adv-x="291" 
d="M305 546q0 -25 -14 -49.5t-43 -40.5t-76 -16q-39 0 -67 16t-33 57l35 10q-1 -36 18 -49t43 -13q35 0 54.5 25t19.5 65q0 26 -14.5 42t-48.5 16h-18l4 21h18q45 0 64.5 28.5t19.5 62.5q0 48 -41 48q-31 0 -46.5 -23t-19.5 -67l-56 8q-1 41 28 72t92 31q55 0 80 -23.5
t25 -57.5q0 -32 -21 -56t-64 -34q61 -17 61 -73z" />
    <glyph glyph-name="acute" unicode="&#xb4;" horiz-adv-x="500" 
d="M307 579l-19 22q29 32 49.5 62.5t39.5 76.5h101q-38 -46 -78.5 -84t-92.5 -77z" />
    <glyph glyph-name="uni00B5" unicode="&#xb5;" horiz-adv-x="610" 
d="M115 -187l-96 -26l111 627q6 35 4 41t-18 8l-54 5l5 27h159l-56 -324q-13 -76 2 -110t50 -34q24 0 52 13t60 46t66 92l56 317h82l-61 -345q-13 -74 -9.5 -98t19.5 -24q14 0 32 17.5t31 59.5l35 -22q-22 -46 -51 -67t-63 -21q-40 0 -62.5 27t-19.5 83q-43 -61 -89.5 -88
t-95.5 -27q-66 0 -101 50q-6 -52 -6.5 -90.5t4.5 -70.5t14 -66z" />
    <glyph glyph-name="paragraph" unicode="&#xb6;" horiz-adv-x="572" 
d="M84 506q14 82 70.5 128t158.5 46h288l-4 -27l-56 -5q-11 -1 -16 -4t-8 -12.5t-7 -32.5l-117 -661q-6 -34 -4 -40.5t18 -8.5l54 -5l-5 -27h-261l5 27l76 5q16 2 20 8.5t10 40.5l125 710h-67l-64 -360h-46q-65 0 -107.5 24.5t-60 67.5t-8.5 96z" />
    <glyph glyph-name="periodcentered" unicode="&#xb7;" horiz-adv-x="500" 
d="M268 330q-22 0 -35.5 13t-13.5 35q0 25 16.5 42.5t43.5 17.5q23 0 36.5 -12.5t13.5 -34.5q0 -25 -16.5 -43t-44.5 -18z" />
    <glyph glyph-name="cedilla" unicode="&#xb8;" horiz-adv-x="500" 
d="M291 -133q0 -40 -34.5 -65t-84.5 -25q-40 0 -70 18t-31 60l51 14q-2 -35 9.5 -49.5t35.5 -14.5q27 0 43 19t16 45q0 22 -10 33.5t-39 11.5q-5 0 -12 -1t-12 -2l-5 26l37 63h35l-34 -58q50 0 77.5 -21t27.5 -54z" />
    <glyph glyph-name="uni00B9" unicode="&#xb9;" horiz-adv-x="216" 
d="M115 744l74 41h50l-52 -293q-3 -17 -1.5 -20t8.5 -4l28 -3l-4 -20h-146l4 20l38 3q8 1 10 4t5 20l46 256l-48 -27z" />
    <glyph glyph-name="ordmasculine" unicode="&#xba;" horiz-adv-x="395" 
d="M390 507l-3 -15q-12 -75 -55.5 -116t-109.5 -41q-48 0 -79 24t-42.5 64.5t-3.5 89.5l3 14q12 75 55 116.5t109 41.5q50 0 80.5 -24.5t42 -64.5t3.5 -89zM328 524q11 65 -6.5 101t-58.5 36q-34 0 -60 -29.5t-37 -94.5l-7 -41q-11 -65 6.5 -101t57.5 -36q36 0 61.5 29
t36.5 94z" />
    <glyph glyph-name="guillemotright" unicode="&#xbb;" horiz-adv-x="645" 
d="M589 232l-306 -222l-16 21l226 219l-147 213l19 15l228 -222zM339 232l-306 -222l-16 21l226 219l-147 213l19 15l228 -222z" />
    <glyph glyph-name="onequarter" unicode="&#xbc;" horiz-adv-x="573" 
d="M434 46l7 39h-148l3 21q40 36 69 70t51.5 73t39.5 91h67q-26 -70 -79.5 -125t-115.5 -109h117l13 77l59 6l-15 -83h39l-4 -21h-38l-7 -39q-3 -17 -2 -20t9 -5l26 -3l-3 -18h-140l4 18l33 3q8 1 10 4.5t5 20.5zM97 639l74 41h50l-52 -293q-3 -17 -1.5 -20t8.5 -4l28 -3
l-4 -20h-146l4 20l38 3q8 1 10 4t5 20l46 256l-48 -27zM527 680l25 -18l-489 -662l-25 17z" />
    <glyph glyph-name="onehalf" unicode="&#xbd;" horiz-adv-x="605" 
d="M535 99l-17 -99h-217l5 27q7 37 19 59t33.5 37.5t55.5 32.5q51 26 70 52.5t19 63.5q0 50 -37 50q-31 0 -46.5 -23t-19.5 -67l-57 8q0 41 30 73t91 32q56 0 79 -24.5t23 -57.5q0 -32 -18 -54.5t-51 -41t-79 -40.5q-34 -16 -52.5 -34.5t-26.5 -48.5h130q17 0 21.5 2t7.5 11
l17 42h20zM97 639l74 41h50l-52 -293q-3 -17 -1.5 -20t8.5 -4l28 -3l-4 -20h-146l4 20l38 3q8 1 10 4t5 20l46 256l-48 -27zM527 680l25 -18l-489 -662l-25 17z" />
    <glyph glyph-name="threequarters" unicode="&#xbe;" horiz-adv-x="628" 
d="M489 46l7 39h-148l3 21q40 36 69 70t51.5 73t39.5 91h67q-26 -70 -79.5 -125t-115.5 -109h117l13 77l59 6l-15 -83h39l-4 -21h-38l-7 -39q-3 -17 -2 -20t9 -5l26 -3l-3 -18h-140l4 18l33 3q8 1 10 4.5t5 20.5zM287 441q0 -25 -14 -49.5t-43 -40.5t-76 -16q-39 0 -67 16
t-33 57l35 10q-1 -36 18 -49t43 -13q35 0 54.5 25t19.5 65q0 26 -14.5 42t-48.5 16h-18l4 21h18q45 0 64.5 28.5t19.5 62.5q0 48 -41 48q-31 0 -46.5 -23t-19.5 -67l-56 8q-1 41 28 72t92 31q55 0 80 -23.5t25 -57.5q0 -32 -21 -56t-64 -34q61 -17 61 -73zM582 680l25 -18
l-489 -662l-25 17z" />
    <glyph glyph-name="questiondown" unicode="&#xbf;" horiz-adv-x="479" 
d="M288 505q25 0 39 -13.5t14 -37.5q0 -25 -16.5 -43.5t-44.5 -18.5q-25 0 -39 13t-14 37q0 26 16.5 44.5t44.5 18.5zM238 311h46l-4 -22q-9 -52 -30.5 -83.5t-49 -55t-53 -47t-42 -58t-16.5 -90.5q0 -63 26 -90.5t67 -27.5q61 0 94.5 49t40.5 142l79 -16q0 -54 -23 -101.5
t-70.5 -76.5t-123.5 -29q-91 0 -136.5 44t-45.5 110q0 44 16.5 74.5t43 53.5t56.5 42.5t57 41t45.5 49.5t20.5 68z" />
    <glyph glyph-name="Agrave" unicode="&#xc0;" horiz-adv-x="628" 
d="M152 26l-5 -26h-193l5 26l55 6q11 1 17 3.5t11.5 12.5t16.5 33l299 599h63l89 -599q5 -34 9 -40.5t18 -8.5l54 -6l-4 -26h-240l5 26l56 6q17 2 19.5 8.5t-2.5 40.5l-18 128h-244l-64 -128q-17 -34 -17 -40.5t16 -8.5zM179 241h223l-50 348zM405 764q-38 39 -65 77t-49 84
h91q5 -47 16 -78t30 -66z" />
    <glyph glyph-name="Aacute" unicode="&#xc1;" horiz-adv-x="628" 
d="M152 26l-5 -26h-193l5 26l55 6q11 1 17 3.5t11.5 12.5t16.5 33l299 599h63l89 -599q5 -34 9 -40.5t18 -8.5l54 -6l-4 -26h-240l5 26l56 6q17 2 19.5 8.5t-2.5 40.5l-18 128h-244l-64 -128q-17 -34 -17 -40.5t16 -8.5zM179 241h223l-50 348zM403 764l-19 22
q29 32 49.5 62.5t39.5 76.5h101q-38 -46 -78.5 -84t-92.5 -77z" />
    <glyph glyph-name="Acircumflex" unicode="&#xc2;" horiz-adv-x="628" 
d="M538 783l-18 -19q-29 26 -53 50.5t-44 48.5q-28 -24 -60 -48.5t-69 -50.5l-17 21q29 27 47.5 46t35.5 40.5t39 53.5h66q11 -32 20 -54t21.5 -41.5t31.5 -46.5zM152 26l-5 -26h-193l5 26l55 6q11 1 17 3.5t11.5 12.5t16.5 33l299 599h63l89 -599q5 -34 9 -40.5t18 -8.5
l54 -6l-4 -26h-240l5 26l56 6q17 2 19.5 8.5t-2.5 40.5l-18 128h-244l-64 -128q-17 -34 -17 -40.5t16 -8.5zM179 241h223l-50 348z" />
    <glyph glyph-name="Atilde" unicode="&#xc3;" horiz-adv-x="628" 
d="M482 774q-25 0 -43 13.5t-32.5 31t-28.5 31t-31 13.5t-32 -18.5t-25 -59.5h-31q14 74 40 106.5t59 32.5q26 0 43.5 -13.5t31.5 -31t27.5 -31t30.5 -13.5t31.5 19t24.5 59h32q-14 -75 -39.5 -107t-57.5 -32zM152 26l-5 -26h-193l5 26l55 6q11 1 17 3.5t11.5 12.5t16.5 33
l299 599h63l89 -599q5 -34 9 -40.5t18 -8.5l54 -6l-4 -26h-240l5 26l56 6q17 2 19.5 8.5t-2.5 40.5l-18 128h-244l-64 -128q-17 -34 -17 -40.5t16 -8.5zM179 241h223l-50 348z" />
    <glyph glyph-name="Adieresis" unicode="&#xc4;" horiz-adv-x="628" 
d="M152 26l-5 -26h-193l5 26l55 6q11 1 17 3.5t11.5 12.5t16.5 33l299 599h63l89 -599q5 -34 9 -40.5t18 -8.5l54 -6l-4 -26h-240l5 26l56 6q17 2 19.5 8.5t-2.5 40.5l-18 128h-244l-64 -128q-17 -34 -17 -40.5t16 -8.5zM179 241h223l-50 348zM307 796q-21 0 -33.5 12.5
t-12.5 32.5q0 23 16 40t41 17q22 0 34 -12t12 -32q0 -23 -15.5 -40.5t-41.5 -17.5zM509 796q-20 0 -33 12.5t-13 32.5q0 23 16 40t41 17q22 0 34.5 -12t12.5 -32q0 -23 -15.5 -40.5t-42.5 -17.5z" />
    <glyph glyph-name="Aring" unicode="&#xc5;" horiz-adv-x="628" 
d="M152 26l-5 -26h-193l5 26l55 6q11 1 17 3.5t11.5 12.5t16.5 33l289 580q-37 12 -54 44t-11 66l2 11q8 42 41.5 71t86.5 29q41 0 67 -17t36.5 -43.5t5.5 -55.5l-2 -11q-6 -34 -31 -61.5t-65 -35.5l86 -577q5 -34 9 -40.5t18 -8.5l54 -6l-4 -26h-240l5 26l56 6
q17 2 19.5 8.5t-2.5 40.5l-18 128h-244l-64 -128q-17 -34 -17 -40.5t16 -8.5zM389 680q58 0 70 75l5 25q6 37 -7 57t-42 20q-56 0 -70 -76l-4 -25q-7 -36 6.5 -56t41.5 -20zM179 241h223l-50 348z" />
    <glyph glyph-name="AE" unicode="&#xc6;" horiz-adv-x="888" 
d="M395 653l5 27h499l-29 -163h-25l-11 105q-1 17 -7.5 21.5t-41.5 4.5h-194l-51 -289h134q24 0 34.5 1.5t15 7t9.5 17.5l32 75h25l-41 -234h-25l-7 75q-1 18 -7.5 22t-41.5 4h-134l-52 -295h204q24 0 34.5 1.5t15 7t9.5 17.5l47 105h26l-29 -163h-477l4 26l57 6
q16 2 20 8.5t10 40.5l23 128h-222l-91 -128q-24 -34 -26 -40.5t14 -8.5l54 -6l-4 -26h-197l5 26l55 6q11 1 17 3.5t14.5 12.5t24.5 33l367 518q25 34 26.5 40.5t-14.5 8.5zM227 241h204l68 385z" />
    <glyph glyph-name="Ccedilla" unicode="&#xc7;" horiz-adv-x="586" 
d="M375 -133q0 -40 -34.5 -65t-84.5 -25q-40 0 -70 18t-31 60l51 14q-2 -35 9.5 -49.5t35.5 -14.5q27 0 43 19t16 45q0 22 -10 33.5t-39 11.5q-5 0 -12 -1t-12 -2l-5 26l32 55q-107 12 -153.5 99.5t-24.5 223.5l11 67q23 143 99.5 225.5t196.5 82.5q74 0 120 -30.5t62 -78.5
t-1 -101l-90 -21q27 96 3 147.5t-95 51.5t-121 -53t-70 -173l-28 -167q-21 -127 11 -185t116 -58q48 0 91 29t65 105l62 -21q-36 -79 -94 -112t-126 -33l-28 -48q50 0 77.5 -21t27.5 -54z" />
    <glyph glyph-name="Egrave" unicode="&#xc8;" horiz-adv-x="580" 
d="M512 163l-29 -163h-479l5 26l56 6q11 1 16 3.5t8 12t7 33.5l91 518q6 35 4 41t-17 8l-55 5l5 27h467l-29 -163h-26l-10 105q-1 12 -3.5 17.5t-12 7t-33.5 1.5h-194l-51 -289h134q24 0 34 1.5t15 7t10 17.5l32 75h25l-41 -234h-25l-6 75q-1 18 -8 22t-42 4h-134l-52 -295
h206q24 0 34 1.5t15 7t10 17.5l47 105h26zM395 764q-38 39 -65 77t-49 84h91q5 -47 16 -78t30 -66z" />
    <glyph glyph-name="Eacute" unicode="&#xc9;" horiz-adv-x="580" 
d="M512 163l-29 -163h-479l5 26l56 6q11 1 16 3.5t8 12t7 33.5l91 518q6 35 4 41t-17 8l-55 5l5 27h467l-29 -163h-26l-10 105q-1 12 -3.5 17.5t-12 7t-33.5 1.5h-194l-51 -289h134q24 0 34 1.5t15 7t10 17.5l32 75h25l-41 -234h-25l-6 75q-1 18 -8 22t-42 4h-134l-52 -295
h206q24 0 34 1.5t15 7t10 17.5l47 105h26zM393 764l-19 22q29 32 49.5 62.5t39.5 76.5h101q-38 -46 -78.5 -84t-92.5 -77z" />
    <glyph glyph-name="Ecircumflex" unicode="&#xca;" horiz-adv-x="580" 
d="M529 783l-18 -19q-29 26 -53 50.5t-44 48.5q-28 -24 -60 -48.5t-69 -50.5l-17 21q29 27 47.5 46t35.5 40.5t39 53.5h66q11 -32 20 -54t21.5 -41.5t31.5 -46.5zM512 163l-29 -163h-479l5 26l56 6q11 1 16 3.5t8 12t7 33.5l91 518q6 35 4 41t-17 8l-55 5l5 27h467l-29 -163
h-26l-10 105q-1 12 -3.5 17.5t-12 7t-33.5 1.5h-194l-51 -289h134q24 0 34 1.5t15 7t10 17.5l32 75h25l-41 -234h-25l-6 75q-1 18 -8 22t-42 4h-134l-52 -295h206q24 0 34 1.5t15 7t10 17.5l47 105h26z" />
    <glyph glyph-name="Edieresis" unicode="&#xcb;" horiz-adv-x="580" 
d="M512 163l-29 -163h-479l5 26l56 6q11 1 16 3.5t8 12t7 33.5l91 518q6 35 4 41t-17 8l-55 5l5 27h467l-29 -163h-26l-10 105q-1 12 -3.5 17.5t-12 7t-33.5 1.5h-194l-51 -289h134q24 0 34 1.5t15 7t10 17.5l32 75h25l-41 -234h-25l-6 75q-1 18 -8 22t-42 4h-134l-52 -295
h206q24 0 34 1.5t15 7t10 17.5l47 105h26zM302 796q-21 0 -33.5 12.5t-12.5 32.5q0 23 16 40t41 17q22 0 34 -12t12 -32q0 -23 -15.5 -40.5t-41.5 -17.5zM504 796q-20 0 -33 12.5t-13 32.5q0 23 16 40t41 17q22 0 34.5 -12t12.5 -32q0 -23 -15.5 -40.5t-42.5 -17.5z" />
    <glyph glyph-name="Igrave" unicode="&#xcc;" horiz-adv-x="337" 
d="M119 653l5 27h241l-5 -27l-56 -5q-10 -1 -15 -4t-8 -12.5t-7 -32.5l-92 -518q-6 -35 -4 -41t18 -8l54 -6l-5 -26h-241l5 26l56 6q11 1 15.5 3.5t7.5 12t7 33.5l92 518q6 35 4 41t-18 8zM260 764q-38 39 -65 77t-49 84h91q5 -47 16 -78t30 -66z" />
    <glyph glyph-name="Iacute" unicode="&#xcd;" horiz-adv-x="337" 
d="M119 653l5 27h241l-5 -27l-56 -5q-10 -1 -15 -4t-8 -12.5t-7 -32.5l-92 -518q-6 -35 -4 -41t18 -8l54 -6l-5 -26h-241l5 26l56 6q11 1 15.5 3.5t7.5 12t7 33.5l92 518q6 35 4 41t-18 8zM258 764l-19 22q29 32 49.5 62.5t39.5 76.5h101q-38 -46 -78.5 -84t-92.5 -77z" />
    <glyph glyph-name="Icircumflex" unicode="&#xce;" horiz-adv-x="337" 
d="M393 783l-18 -19q-29 26 -53 50.5t-44 48.5q-28 -24 -60 -48.5t-69 -50.5l-17 21q29 27 47.5 46t35.5 40.5t39 53.5h66q11 -32 20 -54t21.5 -41.5t31.5 -46.5zM119 653l5 27h241l-5 -27l-56 -5q-10 -1 -15 -4t-8 -12.5t-7 -32.5l-92 -518q-6 -35 -4 -41t18 -8l54 -6
l-5 -26h-241l5 26l56 6q11 1 15.5 3.5t7.5 12t7 33.5l92 518q6 35 4 41t-18 8z" />
    <glyph glyph-name="Idieresis" unicode="&#xcf;" horiz-adv-x="337" 
d="M119 653l5 27h241l-5 -27l-56 -5q-10 -1 -15 -4t-8 -12.5t-7 -32.5l-92 -518q-6 -35 -4 -41t18 -8l54 -6l-5 -26h-241l5 26l56 6q11 1 15.5 3.5t7.5 12t7 33.5l92 518q6 35 4 41t-18 8zM167 796q-21 0 -33.5 12.5t-12.5 32.5q0 23 16 40t41 17q22 0 34 -12t12 -32
q0 -23 -15.5 -40.5t-41.5 -17.5zM369 796q-20 0 -33 12.5t-13 32.5q0 23 16 40t41 17q22 0 34.5 -12t12.5 -32q0 -23 -15.5 -40.5t-42.5 -17.5z" />
    <glyph glyph-name="Eth" unicode="&#xd0;" horiz-adv-x="663" 
d="M123 653l5 27h262q88 0 142 -41.5t73.5 -112.5t3.5 -160l-11 -65q-16 -91 -56 -158.5t-102 -105t-144 -37.5h-288l4 26l56 6q17 2 21 8.5t10 40.5l46 257h-77l5 32h77l41 229q6 35 4 41t-17 8zM385 338h-153l-54 -306h117q79 0 130 56t70 165l28 165q19 110 -13 170
t-120 60h-104l-49 -278h153z" />
    <glyph glyph-name="Ntilde" unicode="&#xd1;" horiz-adv-x="691" 
d="M522 774q-25 0 -43 13.5t-32.5 31t-28.5 31t-31 13.5t-32 -18.5t-25 -59.5h-31q14 74 40 106.5t59 32.5q26 0 43.5 -13.5t31.5 -31t27.5 -31t30.5 -13.5t31.5 19t24.5 59h32q-14 -75 -39.5 -107t-57.5 -32zM119 653l5 27h167l228 -534l81 453q6 34 4 40.5t-17 8.5l-55 5
l5 27h191l-5 -27l-55 -5q-16 -2 -20.5 -8.5t-10.5 -40.5l-106 -599h-40l-264 613l-94 -532q-6 -34 -4 -40.5t17 -8.5l54 -6l-5 -26h-191l5 26l56 6q17 2 21 8.5t10 40.5l91 518q6 34 4 40.5t-17 8.5z" />
    <glyph glyph-name="Ograve" unicode="&#xd2;" horiz-adv-x="666" 
d="M614 366l-12 -65q-16 -94 -56 -164t-102 -108.5t-143 -38.5q-87 0 -140.5 42.5t-72.5 116.5t-3 166l11 65q17 93 57 163t101.5 108.5t142.5 38.5q87 0 140.5 -43t73 -116.5t3.5 -164.5zM528 418q20 114 -12.5 177t-118.5 63q-78 0 -127.5 -58.5t-69.5 -171.5l-29 -165
q-20 -115 12.5 -178t117.5 -63q79 0 129 59t69 172zM423 764q-38 39 -65 77t-49 84h91q5 -47 16 -78t30 -66z" />
    <glyph glyph-name="Oacute" unicode="&#xd3;" horiz-adv-x="666" 
d="M614 366l-12 -65q-16 -94 -56 -164t-102 -108.5t-143 -38.5q-87 0 -140.5 42.5t-72.5 116.5t-3 166l11 65q17 93 57 163t101.5 108.5t142.5 38.5q87 0 140.5 -43t73 -116.5t3.5 -164.5zM528 418q20 114 -12.5 177t-118.5 63q-78 0 -127.5 -58.5t-69.5 -171.5l-29 -165
q-20 -115 12.5 -178t117.5 -63q79 0 129 59t69 172zM421 764l-19 22q29 32 49.5 62.5t39.5 76.5h101q-38 -46 -78.5 -84t-92.5 -77z" />
    <glyph glyph-name="Ocircumflex" unicode="&#xd4;" horiz-adv-x="666" 
d="M556 783l-18 -19q-29 26 -53 50.5t-44 48.5q-28 -24 -60 -48.5t-69 -50.5l-17 21q29 27 47.5 46t35.5 40.5t39 53.5h66q11 -32 20 -54t21.5 -41.5t31.5 -46.5zM614 366l-12 -65q-16 -94 -56 -164t-102 -108.5t-143 -38.5q-87 0 -140.5 42.5t-72.5 116.5t-3 166l11 65
q17 93 57 163t101.5 108.5t142.5 38.5q87 0 140.5 -43t73 -116.5t3.5 -164.5zM528 418q20 114 -12.5 177t-118.5 63q-78 0 -127.5 -58.5t-69.5 -171.5l-29 -165q-20 -115 12.5 -178t117.5 -63q79 0 129 59t69 172z" />
    <glyph glyph-name="Otilde" unicode="&#xd5;" horiz-adv-x="666" 
d="M500 774q-25 0 -43 13.5t-32.5 31t-28.5 31t-31 13.5t-32 -18.5t-25 -59.5h-31q14 74 40 106.5t59 32.5q26 0 43.5 -13.5t31.5 -31t27.5 -31t30.5 -13.5t31.5 19t24.5 59h32q-14 -75 -39.5 -107t-57.5 -32zM614 366l-12 -65q-16 -94 -56 -164t-102 -108.5t-143 -38.5
q-87 0 -140.5 42.5t-72.5 116.5t-3 166l11 65q17 93 57 163t101.5 108.5t142.5 38.5q87 0 140.5 -43t73 -116.5t3.5 -164.5zM528 418q20 114 -12.5 177t-118.5 63q-78 0 -127.5 -58.5t-69.5 -171.5l-29 -165q-20 -115 12.5 -178t117.5 -63q79 0 129 59t69 172z" />
    <glyph glyph-name="Odieresis" unicode="&#xd6;" horiz-adv-x="666" 
d="M614 366l-12 -65q-16 -94 -56 -164t-102 -108.5t-143 -38.5q-87 0 -140.5 42.5t-72.5 116.5t-3 166l11 65q17 93 57 163t101.5 108.5t142.5 38.5q87 0 140.5 -43t73 -116.5t3.5 -164.5zM528 418q20 114 -12.5 177t-118.5 63q-78 0 -127.5 -58.5t-69.5 -171.5l-29 -165
q-20 -115 12.5 -178t117.5 -63q79 0 129 59t69 172zM330 796q-21 0 -33.5 12.5t-12.5 32.5q0 23 16 40t41 17q22 0 34 -12t12 -32q0 -23 -15.5 -40.5t-41.5 -17.5zM532 796q-20 0 -33 12.5t-13 32.5q0 23 16 40t41 17q22 0 34.5 -12t12.5 -32q0 -23 -15.5 -40.5t-42.5 -17.5
z" />
    <glyph glyph-name="multiply" unicode="&#xd7;" horiz-adv-x="588" 
d="M465 170l-26 -24l-135 163l-191 -163l-23 26l192 164l-133 161l27 25l134 -163l193 164l22 -26l-193 -165z" />
    <glyph glyph-name="Oslash" unicode="&#xd8;" horiz-adv-x="666" 
d="M602 301q-16 -94 -56.5 -164t-102 -108.5t-142.5 -38.5q-57 0 -99.5 19t-70.5 53l-54 -62h-47l80 92q-24 44 -30 100.5t5 122.5l11 65q17 93 57 163t101.5 108.5t142.5 38.5q57 0 99.5 -19t70.5 -53l54 62h47l-80 -92q49 -89 26 -222zM171 263q-5 -31 -6.5 -58t-0.5 -50
l361 415q-28 88 -128 88q-78 0 -127.5 -58.5t-69.5 -171.5zM528 418q11 62 6 108l-361 -416q28 -88 128 -88q79 0 129 59t69 172z" />
    <glyph glyph-name="Ugrave" unicode="&#xd9;" horiz-adv-x="677" 
d="M524 653l5 27h191l-5 -27l-55 -5q-15 -2 -20 -8.5t-11 -40.5l-65 -369q-19 -112 -80 -176t-169 -64q-118 0 -172 69t-33 187l62 353q6 34 4 40.5t-17 8.5l-55 5l5 27h241l-5 -27l-55 -5q-15 -2 -20 -8.5t-11 -40.5l-65 -369q-19 -106 12 -157t114 -51q86 0 137.5 53.5
t69.5 154.5l65 369q6 34 4 40.5t-17 8.5zM449 764q-38 39 -65 77t-49 84h91q5 -47 16 -78t30 -66z" />
    <glyph glyph-name="Uacute" unicode="&#xda;" horiz-adv-x="677" 
d="M524 653l5 27h191l-5 -27l-55 -5q-15 -2 -20 -8.5t-11 -40.5l-65 -369q-19 -112 -80 -176t-169 -64q-118 0 -172 69t-33 187l62 353q6 34 4 40.5t-17 8.5l-55 5l5 27h241l-5 -27l-55 -5q-15 -2 -20 -8.5t-11 -40.5l-65 -369q-19 -106 12 -157t114 -51q86 0 137.5 53.5
t69.5 154.5l65 369q6 34 4 40.5t-17 8.5zM447 764l-19 22q29 32 49.5 62.5t39.5 76.5h101q-38 -46 -78.5 -84t-92.5 -77z" />
    <glyph glyph-name="Ucircumflex" unicode="&#xdb;" horiz-adv-x="677" 
d="M583 783l-18 -19q-29 26 -53 50.5t-44 48.5q-28 -24 -60 -48.5t-69 -50.5l-17 21q29 27 47.5 46t35.5 40.5t39 53.5h66q11 -32 20 -54t21.5 -41.5t31.5 -46.5zM524 653l5 27h191l-5 -27l-55 -5q-15 -2 -20 -8.5t-11 -40.5l-65 -369q-19 -112 -80 -176t-169 -64
q-118 0 -172 69t-33 187l62 353q6 34 4 40.5t-17 8.5l-55 5l5 27h241l-5 -27l-55 -5q-15 -2 -20 -8.5t-11 -40.5l-65 -369q-19 -106 12 -157t114 -51q86 0 137.5 53.5t69.5 154.5l65 369q6 34 4 40.5t-17 8.5z" />
    <glyph glyph-name="Udieresis" unicode="&#xdc;" horiz-adv-x="677" 
d="M524 653l5 27h191l-5 -27l-55 -5q-15 -2 -20 -8.5t-11 -40.5l-65 -369q-19 -112 -80 -176t-169 -64q-118 0 -172 69t-33 187l62 353q6 34 4 40.5t-17 8.5l-55 5l5 27h241l-5 -27l-55 -5q-15 -2 -20 -8.5t-11 -40.5l-65 -369q-19 -106 12 -157t114 -51q86 0 137.5 53.5
t69.5 154.5l65 369q6 34 4 40.5t-17 8.5zM356 796q-21 0 -33.5 12.5t-12.5 32.5q0 23 16 40t41 17q22 0 34 -12t12 -32q0 -23 -15.5 -40.5t-41.5 -17.5zM558 796q-20 0 -33 12.5t-13 32.5q0 23 16 40t41 17q22 0 34.5 -12t12.5 -32q0 -23 -15.5 -40.5t-42.5 -17.5z" />
    <glyph glyph-name="Yacute" unicode="&#xdd;" horiz-adv-x="588" 
d="M376 26l-5 -26h-241l5 26l56 6q11 1 16 3.5t9 13.5l42 243l-105 313q-10 30 -15.5 35.5t-19.5 7.5l-51 5l5 27h239l-5 -27l-52 -5q-16 -2 -17.5 -8t8.5 -35l88 -273l187 273q20 29 20 35.5t-14 7.5l-51 5l5 27h188l-5 -27l-52 -5q-11 -1 -17 -3.5t-12.5 -11t-20.5 -28.5
l-216 -314l-37 -212l1 2q-6 -35 -4 -41t17 -8zM393 764l-19 22q29 32 49.5 62.5t39.5 76.5h101q-38 -46 -78.5 -84t-92.5 -77z" />
    <glyph glyph-name="Thorn" unicode="&#xde;" horiz-adv-x="574" 
d="M270 26l-5 -26h-261l5 26l56 6q11 1 15.5 3.5t7.5 12t7 33.5l92 518q6 35 4 41t-18 8l-54 5l5 27h261l-5 -27l-76 -5q-16 -1 -20 -7.5t-10 -41.5l-11 -61h115q65 0 107.5 -25t60 -67.5t8.5 -96.5l-5 -29q-15 -82 -71 -128t-158 -46h-126l-12 -65q-6 -35 -4 -41.5t18 -7.5
zM378 506h-121l-58 -328h121q54 0 88.5 32.5t45.5 97.5l10 57q24 141 -86 141z" />
    <glyph glyph-name="germandbls" unicode="&#xdf;" horiz-adv-x="602" 
d="M244 581l-140 -794h-82l111 627q6 35 4 41t-17 8l-55 5l5 27h77l13 72q9 50 31.5 91.5t66 66.5t113.5 25q84 0 123 -36t39 -84q0 -31 -13.5 -54.5t-33.5 -43t-40 -39.5t-33.5 -43.5t-13.5 -54.5q0 -28 15.5 -49t44.5 -45l36 -31q30 -24 46 -54.5t16 -73.5
q0 -64 -46.5 -108t-126.5 -44q-58 0 -99 29t-49 95l58 20q2 -64 27 -88.5t63 -24.5q44 0 73.5 23t29.5 69q0 27 -11 48.5t-39 44.5l-36 30q-30 25 -50 51t-20 66q0 32 13 58.5t32.5 51t39.5 50t33 55.5t13 68q0 82 -88 82q-49 0 -82.5 -28t-47.5 -109z" />
    <glyph glyph-name="agrave" unicode="&#xe0;" horiz-adv-x="581" 
d="M444 -5q-37 0 -58.5 22.5t-23.5 68.5q-34 -53 -73 -74.5t-80 -21.5q-59 0 -96 36.5t-50 97.5t1 136l4 22q13 70 46.5 120t81.5 76.5t102 26.5q42 0 73.5 -16.5t51.5 -46.5q14 11 27 25l26 28h35l-61 -345q-13 -74 -10 -98t19 -24q15 0 32.5 17.5t31.5 59.5l35 -22
q-22 -46 -51 -67t-63 -21zM149 234q-17 -100 4.5 -155t68.5 -55q19 0 43 10.5t50.5 40t54.5 85.5l41 236q-18 39 -44.5 57t-62.5 18q-61 0 -96.5 -48t-49.5 -132zM323 579q-38 39 -65 77t-49 84h91q5 -47 16 -78t30 -66z" />
    <glyph glyph-name="aacute" unicode="&#xe1;" horiz-adv-x="581" 
d="M444 -5q-37 0 -58.5 22.5t-23.5 68.5q-34 -53 -73 -74.5t-80 -21.5q-59 0 -96 36.5t-50 97.5t1 136l4 22q13 70 46.5 120t81.5 76.5t102 26.5q42 0 73.5 -16.5t51.5 -46.5q14 11 27 25l26 28h35l-61 -345q-13 -74 -10 -98t19 -24q15 0 32.5 17.5t31.5 59.5l35 -22
q-22 -46 -51 -67t-63 -21zM149 234q-17 -100 4.5 -155t68.5 -55q19 0 43 10.5t50.5 40t54.5 85.5l41 236q-18 39 -44.5 57t-62.5 18q-61 0 -96.5 -48t-49.5 -132zM321 579l-19 22q29 32 49.5 62.5t39.5 76.5h101q-38 -46 -78.5 -84t-92.5 -77z" />
    <glyph glyph-name="acircumflex" unicode="&#xe2;" horiz-adv-x="581" 
d="M456 598l-18 -19q-29 26 -53 50.5t-44 48.5q-28 -24 -60 -48.5t-69 -50.5l-17 21q29 27 47.5 46t35.5 40.5t39 53.5h66q11 -32 20 -54t21.5 -41.5t31.5 -46.5zM444 -5q-37 0 -58.5 22.5t-23.5 68.5q-34 -53 -73 -74.5t-80 -21.5q-59 0 -96 36.5t-50 97.5t1 136l4 22
q13 70 46.5 120t81.5 76.5t102 26.5q42 0 73.5 -16.5t51.5 -46.5q14 11 27 25l26 28h35l-61 -345q-13 -74 -10 -98t19 -24q15 0 32.5 17.5t31.5 59.5l35 -22q-22 -46 -51 -67t-63 -21zM149 234q-17 -100 4.5 -155t68.5 -55q19 0 43 10.5t50.5 40t54.5 85.5l41 236
q-18 39 -44.5 57t-62.5 18q-61 0 -96.5 -48t-49.5 -132z" />
    <glyph glyph-name="atilde" unicode="&#xe3;" horiz-adv-x="581" 
d="M400 589q-25 0 -43 13.5t-32.5 31t-28.5 31t-31 13.5t-32 -18.5t-25 -59.5h-31q14 74 40 106.5t59 32.5q26 0 43.5 -13.5t31.5 -31t27.5 -31t30.5 -13.5t31.5 19t24.5 59h32q-14 -75 -39.5 -107t-57.5 -32zM444 -5q-37 0 -58.5 22.5t-23.5 68.5q-34 -53 -73 -74.5
t-80 -21.5q-59 0 -96 36.5t-50 97.5t1 136l4 22q13 70 46.5 120t81.5 76.5t102 26.5q42 0 73.5 -16.5t51.5 -46.5q14 11 27 25l26 28h35l-61 -345q-13 -74 -10 -98t19 -24q15 0 32.5 17.5t31.5 59.5l35 -22q-22 -46 -51 -67t-63 -21zM149 234q-17 -100 4.5 -155t68.5 -55
q19 0 43 10.5t50.5 40t54.5 85.5l41 236q-18 39 -44.5 57t-62.5 18q-61 0 -96.5 -48t-49.5 -132z" />
    <glyph glyph-name="adieresis" unicode="&#xe4;" horiz-adv-x="581" 
d="M444 -5q-37 0 -58.5 22.5t-23.5 68.5q-34 -53 -73 -74.5t-80 -21.5q-59 0 -96 36.5t-50 97.5t1 136l4 22q13 70 46.5 120t81.5 76.5t102 26.5q42 0 73.5 -16.5t51.5 -46.5q14 11 27 25l26 28h35l-61 -345q-13 -74 -10 -98t19 -24q15 0 32.5 17.5t31.5 59.5l35 -22
q-22 -46 -51 -67t-63 -21zM149 234q-17 -100 4.5 -155t68.5 -55q19 0 43 10.5t50.5 40t54.5 85.5l41 236q-18 39 -44.5 57t-62.5 18q-61 0 -96.5 -48t-49.5 -132zM230 611q-21 0 -33.5 12.5t-12.5 32.5q0 23 16 40t41 17q22 0 34 -12t12 -32q0 -23 -15.5 -40.5t-41.5 -17.5z
M432 611q-20 0 -33 12.5t-13 32.5q0 23 16 40t41 17q22 0 34.5 -12t12.5 -32q0 -23 -15.5 -40.5t-42.5 -17.5z" />
    <glyph glyph-name="aring" unicode="&#xe5;" horiz-adv-x="581" 
d="M350 789q41 0 67 -17t36.5 -43.5t5.5 -55.5l-2 -11q-7 -41 -41 -71t-88 -30q-40 0 -65.5 17t-36.5 44t-6 56l2 11q8 42 41.5 71t86.5 29zM326 587q58 0 70 75l5 25q6 37 -7 57t-42 20q-56 0 -70 -76l-4 -25q-7 -36 6.5 -56t41.5 -20zM444 -5q-37 0 -58.5 22.5t-23.5 68.5
q-34 -53 -73 -74.5t-80 -21.5q-59 0 -96 36.5t-50 97.5t1 136l4 22q13 70 46.5 120t81.5 76.5t102 26.5q42 0 73.5 -16.5t51.5 -46.5q14 11 27 25l26 28h35l-61 -345q-13 -74 -10 -98t19 -24q15 0 32.5 17.5t31.5 59.5l35 -22q-22 -46 -51 -67t-63 -21zM149 234
q-17 -100 4.5 -155t68.5 -55q19 0 43 10.5t50.5 40t54.5 85.5l41 236q-18 39 -44.5 57t-62.5 18q-61 0 -96.5 -48t-49.5 -132z" />
    <glyph glyph-name="ae" unicode="&#xe6;" horiz-adv-x="799" 
d="M733 98q-35 -61 -88 -84.5t-105 -23.5q-68 0 -113.5 32.5t-62.5 89.5q-40 -69 -94 -95.5t-104 -26.5q-62 0 -94.5 30.5t-32.5 82.5q0 39 18.5 72.5t63 54.5t120.5 21h117l14 81q10 54 1.5 84.5t-29 43.5t-49.5 13q-28 0 -54 -12t-43 -43.5t-20 -91.5l-79 12
q3 47 27.5 84.5t67.5 60t101 22.5q60 0 93.5 -24t46.5 -59q33 40 79 61.5t101 21.5q51 0 86 -17t53 -44.5t18 -58.5q0 -49 -34.5 -86.5t-96.5 -58.5t-147 -21h-52q-14 -99 12.5 -148t88.5 -49q24 0 52 9t53 31t38 61zM454 289l-6 -38h45q64 0 104 12.5t62 33.5t30 45t8 47
q0 39 -23 61.5t-62 22.5q-53 0 -97.5 -43.5t-60.5 -140.5zM190 32q21 0 48 9t57.5 36t59.5 79q-2 15 -2 31t1 32h-108q-67 0 -94.5 -31t-27.5 -82q0 -74 66 -74z" />
    <glyph glyph-name="ccedilla" unicode="&#xe7;" horiz-adv-x="485" 
d="M322 -133q0 -40 -34.5 -65t-84.5 -25q-40 0 -70 18t-31 60l51 14q-2 -35 9.5 -49.5t35.5 -14.5q27 0 43 19t16 45q0 22 -10 33.5t-39 11.5q-5 0 -12 -1t-12 -2l-5 26l32 54q-58 5 -96.5 39t-52.5 91.5t-1 132.5l4 22q13 68 47 119.5t85 80.5t114 29q59 0 97 -25t51 -67
t-4 -93l-81 -16q26 80 7.5 124.5t-74.5 44.5q-50 0 -92 -43.5t-58 -140.5l-10 -60q-17 -104 7.5 -155.5t82.5 -51.5q23 0 49.5 9t50 31.5t37.5 61.5l46 -26q-33 -57 -79 -81t-96 -27l-28 -48q50 0 77.5 -21t27.5 -54z" />
    <glyph glyph-name="egrave" unicode="&#xe8;" horiz-adv-x="502" 
d="M435 98q-35 -61 -88 -84.5t-105 -23.5q-69 0 -114.5 33t-63 92.5t-3.5 138.5l4 22q12 68 46.5 119.5t87 80.5t118.5 29q51 0 86 -17t53 -44.5t18 -58.5q0 -50 -35.5 -86t-98 -56.5t-144.5 -26.5l-52 -4q-13 -95 13.5 -142.5t87.5 -47.5q24 0 52 9t53 31t38 61zM156 289
l-7 -45l46 3q82 5 126 27t61 53t17 62q0 39 -22.5 61.5t-62.5 22.5q-53 0 -97 -43.5t-61 -140.5zM325 579q-38 39 -65 77t-49 84h91q5 -47 16 -78t30 -66z" />
    <glyph glyph-name="eacute" unicode="&#xe9;" horiz-adv-x="502" 
d="M435 98q-35 -61 -88 -84.5t-105 -23.5q-69 0 -114.5 33t-63 92.5t-3.5 138.5l4 22q12 68 46.5 119.5t87 80.5t118.5 29q51 0 86 -17t53 -44.5t18 -58.5q0 -50 -35.5 -86t-98 -56.5t-144.5 -26.5l-52 -4q-13 -95 13.5 -142.5t87.5 -47.5q24 0 52 9t53 31t38 61zM156 289
l-7 -45l46 3q82 5 126 27t61 53t17 62q0 39 -22.5 61.5t-62.5 22.5q-53 0 -97 -43.5t-61 -140.5zM323 579l-19 22q29 32 49.5 62.5t39.5 76.5h101q-38 -46 -78.5 -84t-92.5 -77z" />
    <glyph glyph-name="ecircumflex" unicode="&#xea;" horiz-adv-x="502" 
d="M459 598l-18 -19q-29 26 -53 50.5t-44 48.5q-28 -24 -60 -48.5t-69 -50.5l-17 21q29 27 47.5 46t35.5 40.5t39 53.5h66q11 -32 20 -54t21.5 -41.5t31.5 -46.5zM435 98q-35 -61 -88 -84.5t-105 -23.5q-69 0 -114.5 33t-63 92.5t-3.5 138.5l4 22q12 68 46.5 119.5t87 80.5
t118.5 29q51 0 86 -17t53 -44.5t18 -58.5q0 -50 -35.5 -86t-98 -56.5t-144.5 -26.5l-52 -4q-13 -95 13.5 -142.5t87.5 -47.5q24 0 52 9t53 31t38 61zM156 289l-7 -45l46 3q82 5 126 27t61 53t17 62q0 39 -22.5 61.5t-62.5 22.5q-53 0 -97 -43.5t-61 -140.5z" />
    <glyph glyph-name="edieresis" unicode="&#xeb;" horiz-adv-x="502" 
d="M435 98q-35 -61 -88 -84.5t-105 -23.5q-69 0 -114.5 33t-63 92.5t-3.5 138.5l4 22q12 68 46.5 119.5t87 80.5t118.5 29q51 0 86 -17t53 -44.5t18 -58.5q0 -50 -35.5 -86t-98 -56.5t-144.5 -26.5l-52 -4q-13 -95 13.5 -142.5t87.5 -47.5q24 0 52 9t53 31t38 61zM156 289
l-7 -45l46 3q82 5 126 27t61 53t17 62q0 39 -22.5 61.5t-62.5 22.5q-53 0 -97 -43.5t-61 -140.5zM232 611q-21 0 -33.5 12.5t-12.5 32.5q0 23 16 40t41 17q22 0 34 -12t12 -32q0 -23 -15.5 -40.5t-41.5 -17.5zM434 611q-20 0 -33 12.5t-13 32.5q0 23 16 40t41 17
q22 0 34.5 -12t12.5 -32q0 -23 -15.5 -40.5t-42.5 -17.5z" />
    <glyph glyph-name="igrave" unicode="&#xec;" horiz-adv-x="300" 
d="M66 468l5 27h159l-60 -345q-13 -74 -10 -98t19 -24q15 0 32.5 17.5t30.5 59.5l36 -22q-22 -46 -51.5 -67t-62.5 -21q-46 0 -68.5 36t-9.5 111l48 272q6 34 3.5 40.5t-17.5 8.5zM185 579q-38 39 -65 77t-49 84h91q5 -47 16 -78t30 -66z" />
    <glyph glyph-name="iacute" unicode="&#xed;" horiz-adv-x="300" 
d="M66 468l5 27h159l-60 -345q-13 -74 -10 -98t19 -24q15 0 32.5 17.5t30.5 59.5l36 -22q-22 -46 -51.5 -67t-62.5 -21q-46 0 -68.5 36t-9.5 111l48 272q6 34 3.5 40.5t-17.5 8.5zM183 579l-19 22q29 32 49.5 62.5t39.5 76.5h101q-38 -46 -78.5 -84t-92.5 -77z" />
    <glyph glyph-name="icircumflex" unicode="&#xee;" horiz-adv-x="300" 
d="M318 598l-18 -19q-29 26 -53 50.5t-44 48.5q-28 -24 -60 -48.5t-69 -50.5l-17 21q29 27 47.5 46t35.5 40.5t39 53.5h66q11 -32 20 -54t21.5 -41.5t31.5 -46.5zM66 468l5 27h159l-60 -345q-13 -74 -10 -98t19 -24q15 0 32.5 17.5t30.5 59.5l36 -22q-22 -46 -51.5 -67
t-62.5 -21q-46 0 -68.5 36t-9.5 111l48 272q6 34 3.5 40.5t-17.5 8.5z" />
    <glyph glyph-name="idieresis" unicode="&#xef;" horiz-adv-x="300" 
d="M66 468l5 27h159l-60 -345q-13 -74 -10 -98t19 -24q15 0 32.5 17.5t30.5 59.5l36 -22q-22 -46 -51.5 -67t-62.5 -21q-46 0 -68.5 36t-9.5 111l48 272q6 34 3.5 40.5t-17.5 8.5zM92 611q-21 0 -33.5 12.5t-12.5 32.5q0 23 16 40t41 17q22 0 34 -12t12 -32
q0 -23 -15.5 -40.5t-41.5 -17.5zM294 611q-20 0 -33 12.5t-13 32.5q0 23 16 40t41 17q22 0 34.5 -12t12.5 -32q0 -23 -15.5 -40.5t-42.5 -17.5z" />
    <glyph glyph-name="eth" unicode="&#xf0;" horiz-adv-x="559" 
d="M495 256q-23 -128 -86.5 -197t-168.5 -69q-70 0 -114.5 30t-61.5 83t-7 120l3 20q15 101 75.5 154.5t145.5 53.5q44 0 80 -16t61 -48q2 71 -13.5 128t-45.5 100l-130 -84l-16 28l126 82q-21 25 -46 45.5t-54 37.5l14 26q70 -35 121 -86l133 86l16 -28l-126 -82
q63 -72 89 -163.5t9 -192.5zM142 197q-14 -86 11 -130.5t86 -44.5q64 0 103.5 50.5t59.5 166.5l11 68q2 8 3 16t2 15q-25 48 -59.5 64.5t-63.5 16.5q-52 0 -91 -40.5t-53 -127.5z" />
    <glyph glyph-name="ntilde" unicode="&#xf1;" horiz-adv-x="617" 
d="M451 589q-25 0 -43 13.5t-32.5 31t-28.5 31t-31 13.5t-32 -18.5t-25 -59.5h-31q14 74 40 106.5t59 32.5q26 0 43.5 -13.5t31.5 -31t27.5 -31t30.5 -13.5t31.5 19t24.5 59h32q-14 -75 -39.5 -107t-57.5 -32zM594 83q-22 -46 -51.5 -67t-64.5 -21q-46 0 -68 32t-9 100
l40 196q15 76 -2 110t-56 34q-24 0 -53.5 -13t-62 -45.5t-67.5 -92.5l-55 -316h-82l72 414q6 34 4 40.5t-17 8.5l-54 5l5 27h156l-18 -106q44 62 92.5 89t97.5 27q74 0 106.5 -49t15.5 -132l-41 -200q-10 -51 -9 -73.5t20 -22.5q17 0 34.5 17.5t30.5 59.5z" />
    <glyph glyph-name="ograve" unicode="&#xf2;" horiz-adv-x="554" 
d="M492 242l-4 -22q-19 -109 -83 -169.5t-164 -60.5q-70 0 -114.5 35.5t-61.5 95t-4 131.5l4 23q20 109 83 169.5t162 60.5q71 0 116 -35.5t62 -95.5t4 -132zM406 268q18 102 -9 154t-89 52q-55 0 -94.5 -43.5t-56.5 -142.5l-10 -61q-18 -102 9 -154.5t88 -52.5
q56 0 95.5 44t55.5 143zM332 579q-38 39 -65 77t-49 84h91q5 -47 16 -78t30 -66z" />
    <glyph glyph-name="oacute" unicode="&#xf3;" horiz-adv-x="554" 
d="M492 242l-4 -22q-19 -109 -83 -169.5t-164 -60.5q-70 0 -114.5 35.5t-61.5 95t-4 131.5l4 23q20 109 83 169.5t162 60.5q71 0 116 -35.5t62 -95.5t4 -132zM406 268q18 102 -9 154t-89 52q-55 0 -94.5 -43.5t-56.5 -142.5l-10 -61q-18 -102 9 -154.5t88 -52.5
q56 0 95.5 44t55.5 143zM330 579l-19 22q29 32 49.5 62.5t39.5 76.5h101q-38 -46 -78.5 -84t-92.5 -77z" />
    <glyph glyph-name="ocircumflex" unicode="&#xf4;" horiz-adv-x="554" 
d="M465 598l-18 -19q-29 26 -53 50.5t-44 48.5q-28 -24 -60 -48.5t-69 -50.5l-17 21q29 27 47.5 46t35.5 40.5t39 53.5h66q11 -32 20 -54t21.5 -41.5t31.5 -46.5zM492 242l-4 -22q-19 -109 -83 -169.5t-164 -60.5q-70 0 -114.5 35.5t-61.5 95t-4 131.5l4 23q20 109 83 169.5
t162 60.5q71 0 116 -35.5t62 -95.5t4 -132zM406 268q18 102 -9 154t-89 52q-55 0 -94.5 -43.5t-56.5 -142.5l-10 -61q-18 -102 9 -154.5t88 -52.5q56 0 95.5 44t55.5 143z" />
    <glyph glyph-name="otilde" unicode="&#xf5;" horiz-adv-x="554" 
d="M409 589q-25 0 -43 13.5t-32.5 31t-28.5 31t-31 13.5t-32 -18.5t-25 -59.5h-31q14 74 40 106.5t59 32.5q26 0 43.5 -13.5t31.5 -31t27.5 -31t30.5 -13.5t31.5 19t24.5 59h32q-14 -75 -39.5 -107t-57.5 -32zM492 242l-4 -22q-19 -109 -83 -169.5t-164 -60.5
q-70 0 -114.5 35.5t-61.5 95t-4 131.5l4 23q20 109 83 169.5t162 60.5q71 0 116 -35.5t62 -95.5t4 -132zM406 268q18 102 -9 154t-89 52q-55 0 -94.5 -43.5t-56.5 -142.5l-10 -61q-18 -102 9 -154.5t88 -52.5q56 0 95.5 44t55.5 143z" />
    <glyph glyph-name="odieresis" unicode="&#xf6;" horiz-adv-x="554" 
d="M492 242l-4 -22q-19 -109 -83 -169.5t-164 -60.5q-70 0 -114.5 35.5t-61.5 95t-4 131.5l4 23q20 109 83 169.5t162 60.5q71 0 116 -35.5t62 -95.5t4 -132zM406 268q18 102 -9 154t-89 52q-55 0 -94.5 -43.5t-56.5 -142.5l-10 -61q-18 -102 9 -154.5t88 -52.5
q56 0 95.5 44t55.5 143zM239 611q-21 0 -33.5 12.5t-12.5 32.5q0 23 16 40t41 17q22 0 34 -12t12 -32q0 -23 -15.5 -40.5t-41.5 -17.5zM441 611q-20 0 -33 12.5t-13 32.5q0 23 16 40t41 17q22 0 34.5 -12t12.5 -32q0 -23 -15.5 -40.5t-42.5 -17.5z" />
    <glyph glyph-name="divide" unicode="&#xf7;" horiz-adv-x="588" 
d="M287 529q0 26 17 44t45 18q24 0 38.5 -13t14.5 -37q0 -26 -16.5 -44.5t-45.5 -18.5q-24 0 -38.5 13.5t-14.5 37.5zM99 317l6 33h414l-6 -33h-414zM217 127q0 26 16.5 44t44.5 18q25 0 39 -13.5t14 -36.5q0 -26 -16.5 -44.5t-44.5 -18.5q-25 0 -39 13.5t-14 37.5z" />
    <glyph glyph-name="oslash" unicode="&#xf8;" horiz-adv-x="556" 
d="M489 220q-19 -109 -83 -169.5t-163 -60.5q-44 0 -78 14.5t-58 39.5l-42 -44h-48l69 72q-43 72 -24 180l4 23q20 109 83 169.5t162 60.5q44 0 78.5 -14t58.5 -40l42 44h47l-69 -72q45 -73 25 -181zM148 227q-9 -55 -6 -96l263 275q-23 68 -96 68q-55 0 -94.5 -43.5
t-56.5 -142.5zM407 268q5 28 6.5 52.5t-0.5 44.5l-263 -275q23 -70 96 -70q56 0 95 44t56 143z" />
    <glyph glyph-name="ugrave" unicode="&#xf9;" horiz-adv-x="605" 
d="M468 -5q-40 0 -62.5 27t-19.5 83q-43 -61 -90 -88t-96 -27q-70 0 -100.5 48.5t-16.5 131.5l43 244q6 34 4 40.5t-17 8.5l-55 5l5 27h160l-57 -324q-13 -76 2 -110t50 -34q24 0 52.5 13t60 46t65.5 92l56 317h82l-60 -345q-13 -74 -10 -98t19 -24q15 0 32.5 17.5
t30.5 59.5l36 -22q-22 -46 -51.5 -67t-62.5 -21zM346 579q-38 39 -65 77t-49 84h91q5 -47 16 -78t30 -66z" />
    <glyph glyph-name="uacute" unicode="&#xfa;" horiz-adv-x="605" 
d="M468 -5q-40 0 -62.5 27t-19.5 83q-43 -61 -90 -88t-96 -27q-70 0 -100.5 48.5t-16.5 131.5l43 244q6 34 4 40.5t-17 8.5l-55 5l5 27h160l-57 -324q-13 -76 2 -110t50 -34q24 0 52.5 13t60 46t65.5 92l56 317h82l-60 -345q-13 -74 -10 -98t19 -24q15 0 32.5 17.5
t30.5 59.5l36 -22q-22 -46 -51.5 -67t-62.5 -21zM344 579l-19 22q29 32 49.5 62.5t39.5 76.5h101q-38 -46 -78.5 -84t-92.5 -77z" />
    <glyph glyph-name="ucircumflex" unicode="&#xfb;" horiz-adv-x="605" 
d="M479 598l-18 -19q-29 26 -53 50.5t-44 48.5q-28 -24 -60 -48.5t-69 -50.5l-17 21q29 27 47.5 46t35.5 40.5t39 53.5h66q11 -32 20 -54t21.5 -41.5t31.5 -46.5zM468 -5q-40 0 -62.5 27t-19.5 83q-43 -61 -90 -88t-96 -27q-70 0 -100.5 48.5t-16.5 131.5l43 244
q6 34 4 40.5t-17 8.5l-55 5l5 27h160l-57 -324q-13 -76 2 -110t50 -34q24 0 52.5 13t60 46t65.5 92l56 317h82l-60 -345q-13 -74 -10 -98t19 -24q15 0 32.5 17.5t30.5 59.5l36 -22q-22 -46 -51.5 -67t-62.5 -21z" />
    <glyph glyph-name="udieresis" unicode="&#xfc;" horiz-adv-x="605" 
d="M468 -5q-40 0 -62.5 27t-19.5 83q-43 -61 -90 -88t-96 -27q-70 0 -100.5 48.5t-16.5 131.5l43 244q6 34 4 40.5t-17 8.5l-55 5l5 27h160l-57 -324q-13 -76 2 -110t50 -34q24 0 52.5 13t60 46t65.5 92l56 317h82l-60 -345q-13 -74 -10 -98t19 -24q15 0 32.5 17.5
t30.5 59.5l36 -22q-22 -46 -51.5 -67t-62.5 -21zM253 611q-21 0 -33.5 12.5t-12.5 32.5q0 23 16 40t41 17q22 0 34 -12t12 -32q0 -23 -15.5 -40.5t-41.5 -17.5zM455 611q-20 0 -33 12.5t-13 32.5q0 23 16 40t41 17q22 0 34.5 -12t12.5 -32q0 -23 -15.5 -40.5t-42.5 -17.5z
" />
    <glyph glyph-name="yacute" unicode="&#xfd;" horiz-adv-x="585" 
d="M448 9q-10 -61 -39.5 -114t-82 -85.5t-131.5 -32.5q-78 0 -116 42t-32 109l57 12q-8 -72 18 -102.5t73 -30.5q62 0 106.5 42.5t63.5 149.5l18 102q-43 -59 -89.5 -85t-93.5 -26q-70 0 -100.5 48.5t-16.5 131.5l43 244q6 34 4 40.5t-17 8.5l-55 5l5 27h160l-57 -324
q-13 -76 2 -110t50 -34q36 0 81.5 31.5t96.5 119.5l56 317h82zM346 579l-19 22q29 32 49.5 62.5t39.5 76.5h101q-38 -46 -78.5 -84t-92.5 -77z" />
    <glyph glyph-name="thorn" unicode="&#xfe;" horiz-adv-x="572" 
d="M272 -10q-41 0 -72.5 15t-52.5 43l-46 -261h-82l154 872q6 35 3.5 41.5t-16.5 7.5l-54 6l4 26h159l-58 -329q35 52 73 73t78 21q59 0 96 -36.5t50.5 -97.5t-0.5 -136l-4 -22q-13 -70 -47.5 -120t-82.5 -76.5t-102 -26.5zM348 470q-20 0 -44.5 -11.5t-52 -43.5t-56.5 -93
l-39 -223q18 -40 45.5 -57.5t64.5 -17.5q61 0 97 47.5t50 131.5l9 57q17 101 -4.5 155.5t-69.5 54.5z" />
    <glyph glyph-name="ydieresis" unicode="&#xff;" horiz-adv-x="585" 
d="M448 9q-10 -61 -39.5 -114t-82 -85.5t-131.5 -32.5q-78 0 -116 42t-32 109l57 12q-8 -72 18 -102.5t73 -30.5q62 0 106.5 42.5t63.5 149.5l18 102q-43 -59 -89.5 -85t-93.5 -26q-70 0 -100.5 48.5t-16.5 131.5l43 244q6 34 4 40.5t-17 8.5l-55 5l5 27h160l-57 -324
q-13 -76 2 -110t50 -34q36 0 81.5 31.5t96.5 119.5l56 317h82zM255 611q-21 0 -33.5 12.5t-12.5 32.5q0 23 16 40t41 17q22 0 34 -12t12 -32q0 -23 -15.5 -40.5t-41.5 -17.5zM457 611q-20 0 -33 12.5t-13 32.5q0 23 16 40t41 17q22 0 34.5 -12t12.5 -32q0 -23 -15.5 -40.5
t-42.5 -17.5z" />
    <glyph glyph-name="Amacron" unicode="&#x100;" horiz-adv-x="628" 
d="M152 26l-5 -26h-193l5 26l55 6q11 1 17 3.5t11.5 12.5t16.5 33l299 599h63l89 -599q5 -34 9 -40.5t18 -8.5l54 -6l-4 -26h-240l5 26l56 6q17 2 19.5 8.5t-2.5 40.5l-18 128h-244l-64 -128q-17 -34 -17 -40.5t16 -8.5zM179 241h223l-50 348zM562 851l-8 -47h-287l8 47h287
z" />
    <glyph glyph-name="amacron" unicode="&#x101;" horiz-adv-x="581" 
d="M444 -5q-37 0 -58.5 22.5t-23.5 68.5q-34 -53 -73 -74.5t-80 -21.5q-59 0 -96 36.5t-50 97.5t1 136l4 22q13 70 46.5 120t81.5 76.5t102 26.5q42 0 73.5 -16.5t51.5 -46.5q14 11 27 25l26 28h35l-61 -345q-13 -74 -10 -98t19 -24q15 0 32.5 17.5t31.5 59.5l35 -22
q-22 -46 -51 -67t-63 -21zM149 234q-17 -100 4.5 -155t68.5 -55q19 0 43 10.5t50.5 40t54.5 85.5l41 236q-18 39 -44.5 57t-62.5 18q-61 0 -96.5 -48t-49.5 -132zM481 666l-8 -47h-287l8 47h287z" />
    <glyph glyph-name="Abreve" unicode="&#x102;" horiz-adv-x="628" 
d="M415 828q47 0 77.5 23.5t51.5 75.5l29 -9q-27 -82 -66 -118t-95 -36q-60 0 -90 39t-33 115l29 9q6 -52 28.5 -75.5t68.5 -23.5zM152 26l-5 -26h-193l5 26l55 6q11 1 17 3.5t11.5 12.5t16.5 33l299 599h63l89 -599q5 -34 9 -40.5t18 -8.5l54 -6l-4 -26h-240l5 26l56 6
q17 2 19.5 8.5t-2.5 40.5l-18 128h-244l-64 -128q-17 -34 -17 -40.5t16 -8.5zM179 241h223l-50 348z" />
    <glyph glyph-name="abreve" unicode="&#x103;" horiz-adv-x="581" 
d="M333 643q47 0 77.5 23.5t51.5 75.5l29 -9q-27 -82 -66 -118t-95 -36q-60 0 -90 39t-33 115l29 9q6 -52 28.5 -75.5t68.5 -23.5zM444 -5q-37 0 -58.5 22.5t-23.5 68.5q-34 -53 -73 -74.5t-80 -21.5q-59 0 -96 36.5t-50 97.5t1 136l4 22q13 70 46.5 120t81.5 76.5t102 26.5
q42 0 73.5 -16.5t51.5 -46.5q14 11 27 25l26 28h35l-61 -345q-13 -74 -10 -98t19 -24q15 0 32.5 17.5t31.5 59.5l35 -22q-22 -46 -51 -67t-63 -21zM149 234q-17 -100 4.5 -155t68.5 -55q19 0 43 10.5t50.5 40t54.5 85.5l41 236q-18 39 -44.5 57t-62.5 18q-61 0 -96.5 -48
t-49.5 -132z" />
    <glyph glyph-name="Aogonek" unicode="&#x104;" horiz-adv-x="628" 
d="M548 -125q-25 -54 -59.5 -76t-74.5 -22q-45 0 -74.5 21.5t-29.5 63.5q0 47 36.5 86.5t88.5 60.5l-29 200h-243l-64 -128q-17 -34 -17 -40.5t16 -8.5l54 -6l-5 -26h-193l5 26l55 6q11 1 17 3.5t11.5 12t16.5 33.5l299 599h63l89 -599q4 -24 6.5 -33.5t7 -12t13.5 -3.5
l54 -6l-4 -26h-64q-47 0 -80.5 -20.5t-51 -53t-17.5 -67.5q0 -52 42 -52q23 0 44.5 18t37.5 63zM179 241h223l-50 348z" />
    <glyph glyph-name="aogonek" unicode="&#x105;" horiz-adv-x="582" 
d="M522 -125q-25 -54 -60 -76t-76 -22q-43 0 -72.5 21t-29.5 60q0 37 22.5 62t55.5 43.5t64 32.5q-28 5 -45 27.5t-19 62.5q-34 -53 -73 -74.5t-80 -21.5q-59 0 -96 36.5t-50 97.5t1 136l4 22q13 70 46.5 120t81.5 76.5t102 26.5q42 0 73.5 -16.5t51.5 -46.5q14 11 27 25
l26 28h35l-61 -345q-13 -74 -10 -98t19 -24q15 0 32.5 17.5t31.5 59.5l35 -22q-16 -36 -42 -59.5t-55 -40.5t-54.5 -33t-42 -38t-16.5 -55q0 -50 41 -50q23 0 45 18t38 63zM149 234q-17 -100 4.5 -155t68.5 -55q19 0 43 10.5t50.5 40t54.5 85.5l41 236q-18 39 -44.5 57
t-62.5 18q-61 0 -96.5 -48t-49.5 -132z" />
    <glyph glyph-name="Cacute" unicode="&#x106;" horiz-adv-x="586" 
d="M297 -10q-83 0 -135.5 40.5t-71.5 114t-4 170.5l11 67q23 143 99.5 225.5t196.5 82.5q74 0 120 -30.5t62 -78.5t-1 -101l-90 -21q27 96 3 147.5t-95 51.5t-121 -53t-70 -173l-28 -167q-21 -127 11 -185t116 -58q48 0 91 29t65 105l62 -21q-36 -79 -94.5 -112t-126.5 -33z
M407 764l-19 22q29 32 49.5 62.5t39.5 76.5h101q-38 -46 -78.5 -84t-92.5 -77z" />
    <glyph glyph-name="cacute" unicode="&#x107;" horiz-adv-x="485" 
d="M307 473q-50 0 -92 -43.5t-58 -140.5l-10 -60q-17 -104 7.5 -155.5t82.5 -51.5q23 0 49.5 9t50 31.5t37.5 61.5l46 -26q-35 -61 -85.5 -84.5t-103.5 -23.5q-65 0 -108 33t-59.5 92.5t-2.5 138.5l4 22q13 68 47 119.5t85 80.5t114 29q59 0 97 -25t51 -67t-4 -93l-81 -16
q26 80 7.5 124.5t-74.5 44.5zM319 579l-19 22q29 32 49.5 62.5t39.5 76.5h101q-38 -46 -78.5 -84t-92.5 -77z" />
    <glyph glyph-name="Ccircumflex" unicode="&#x108;" horiz-adv-x="586" 
d="M542 783l-18 -19q-29 26 -53 50.5t-44 48.5q-28 -24 -60 -48.5t-69 -50.5l-17 21q29 27 47.5 46t35.5 40.5t39 53.5h66q11 -32 20 -54t21.5 -41.5t31.5 -46.5zM297 -10q-83 0 -135.5 40.5t-71.5 114t-4 170.5l11 67q23 143 99.5 225.5t196.5 82.5q74 0 120 -30.5
t62 -78.5t-1 -101l-90 -21q27 96 3 147.5t-95 51.5t-121 -53t-70 -173l-28 -167q-21 -127 11 -185t116 -58q48 0 91 29t65 105l62 -21q-36 -79 -94.5 -112t-126.5 -33z" />
    <glyph glyph-name="ccircumflex" unicode="&#x109;" horiz-adv-x="485" 
d="M454 598l-18 -19q-29 26 -53 50.5t-44 48.5q-28 -24 -60 -48.5t-69 -50.5l-17 21q29 27 47.5 46t35.5 40.5t39 53.5h66q11 -32 20 -54t21.5 -41.5t31.5 -46.5zM307 473q-50 0 -92 -43.5t-58 -140.5l-10 -60q-17 -104 7.5 -155.5t82.5 -51.5q23 0 49.5 9t50 31.5
t37.5 61.5l46 -26q-35 -61 -85.5 -84.5t-103.5 -23.5q-65 0 -108 33t-59.5 92.5t-2.5 138.5l4 22q13 68 47 119.5t85 80.5t114 29q59 0 97 -25t51 -67t-4 -93l-81 -16q26 80 7.5 124.5t-74.5 44.5z" />
    <glyph glyph-name="Cdotaccent" unicode="&#x10a;" horiz-adv-x="586" 
d="M417 793q-22 0 -35.5 13t-13.5 35q0 25 16.5 42.5t43.5 17.5q23 0 36.5 -12.5t13.5 -34.5q0 -25 -16.5 -43t-44.5 -18zM297 -10q-83 0 -135.5 40.5t-71.5 114t-4 170.5l11 67q23 143 99.5 225.5t196.5 82.5q74 0 120 -30.5t62 -78.5t-1 -101l-90 -21q27 96 3 147.5
t-95 51.5t-121 -53t-70 -173l-28 -167q-21 -127 11 -185t116 -58q48 0 91 29t65 105l62 -21q-36 -79 -94.5 -112t-126.5 -33z" />
    <glyph glyph-name="cdotaccent" unicode="&#x10b;" horiz-adv-x="485" 
d="M329 608q-22 0 -35.5 13t-13.5 35q0 25 16.5 42.5t43.5 17.5q23 0 36.5 -12.5t13.5 -34.5q0 -25 -16.5 -43t-44.5 -18zM307 473q-50 0 -92 -43.5t-58 -140.5l-10 -60q-17 -104 7.5 -155.5t82.5 -51.5q23 0 49.5 9t50 31.5t37.5 61.5l46 -26q-35 -61 -85.5 -84.5
t-103.5 -23.5q-65 0 -108 33t-59.5 92.5t-2.5 138.5l4 22q13 68 47 119.5t85 80.5t114 29q59 0 97 -25t51 -67t-4 -93l-81 -16q26 80 7.5 124.5t-74.5 44.5z" />
    <glyph glyph-name="Ccaron" unicode="&#x10c;" horiz-adv-x="586" 
d="M565 908q-28 -26 -47 -45.5t-36 -40.5t-39 -53h-66q-10 32 -19.5 53.5t-22 41.5t-31.5 46l18 19q29 -25 53.5 -49.5t43.5 -49.5q29 25 60.5 49.5t68.5 49.5zM297 -10q-83 0 -135.5 40.5t-71.5 114t-4 170.5l11 67q23 143 99.5 225.5t196.5 82.5q74 0 120 -30.5t62 -78.5
t-1 -101l-90 -21q27 96 3 147.5t-95 51.5t-121 -53t-70 -173l-28 -167q-21 -127 11 -185t116 -58q48 0 91 29t65 105l62 -21q-36 -79 -94.5 -112t-126.5 -33z" />
    <glyph glyph-name="ccaron" unicode="&#x10d;" horiz-adv-x="485" 
d="M476 723q-28 -26 -47 -45.5t-36 -40.5t-39 -53h-66q-10 32 -19.5 53.5t-22 41.5t-31.5 46l18 19q29 -25 53.5 -49.5t43.5 -49.5q29 25 60.5 49.5t68.5 49.5zM307 473q-50 0 -92 -43.5t-58 -140.5l-10 -60q-17 -104 7.5 -155.5t82.5 -51.5q23 0 49.5 9t50 31.5t37.5 61.5
l46 -26q-35 -61 -85.5 -84.5t-103.5 -23.5q-65 0 -108 33t-59.5 92.5t-2.5 138.5l4 22q13 68 47 119.5t85 80.5t114 29q59 0 97 -25t51 -67t-4 -93l-81 -16q26 80 7.5 124.5t-74.5 44.5z" />
    <glyph glyph-name="Dcaron" unicode="&#x10e;" horiz-adv-x="659" 
d="M566 908q-28 -26 -47 -45.5t-36 -40.5t-39 -53h-66q-10 32 -19.5 53.5t-22 41.5t-31.5 46l18 19q29 -25 53.5 -49.5t43.5 -49.5q29 25 60.5 49.5t68.5 49.5zM119 653l5 27h262q88 0 142 -41.5t74 -112.5t4 -160l-12 -65q-16 -91 -56 -158.5t-102 -105t-144 -37.5h-288
l5 26l56 6q17 2 21 8.5t10 40.5l91 518q6 35 4 41t-17 8zM387 648h-105l-108 -616h117q80 0 130.5 56t69.5 165l29 165q19 110 -13.5 170t-119.5 60z" />
    <glyph glyph-name="dcaron" unicode="&#x10f;" horiz-adv-x="665" 
d="M621 526h-21l37 214h82q-22 -54 -45.5 -106t-52.5 -108zM448 -5q-37 0 -59 24t-23 73q-35 -57 -75 -79.5t-81 -22.5q-59 0 -96.5 36.5t-50.5 97.5t1 136l4 22q13 70 47 120t82 76.5t102 26.5q41 0 72.5 -15.5t52.5 -43.5l37 213q6 35 4 41t-17 8l-54 5l4 27h160
l-104 -590q-13 -74 -10 -98t19 -24q15 0 32.5 17.5t30.5 59.5l36 -22q-22 -46 -51 -67t-63 -21zM149 234q-17 -100 4.5 -155t69.5 -55q20 0 44 11.5t51.5 42.5t56.5 90l40 227q-19 40 -46 58t-64 18q-61 0 -97 -48t-50 -132z" />
    <glyph glyph-name="Dcroat" unicode="&#x110;" horiz-adv-x="663" 
d="M123 653l5 27h262q88 0 142 -41.5t73.5 -112.5t3.5 -160l-11 -65q-16 -91 -56 -158.5t-102 -105t-144 -37.5h-288l4 26l56 6q17 2 21 8.5t10 40.5l46 257h-77l5 32h77l41 229q6 35 4 41t-17 8zM385 338h-153l-54 -306h117q79 0 130 56t70 165l28 165q19 110 -13 170
t-120 60h-104l-49 -278h153z" />
    <glyph glyph-name="dcroat" unicode="&#x111;" horiz-adv-x="585" 
d="M448 -5q-37 0 -59 24t-23 73q-35 -57 -75 -79.5t-81 -22.5q-59 0 -96.5 36.5t-50.5 97.5t1 136l4 22q13 70 47 120t82 76.5t102 26.5q41 0 72.5 -15.5t52.5 -43.5l25 142h-152l5 32h152l7 39q6 35 4 41t-17 8l-54 5l4 27h160l-21 -120h77l-5 -32h-78l-77 -438
q-13 -74 -10 -98t19 -24q15 0 32.5 17.5t30.5 59.5l36 -22q-22 -46 -51 -67t-63 -21zM149 234q-17 -100 4.5 -155t69.5 -55q20 0 44 11.5t51.5 42.5t56.5 90l40 227q-19 40 -46 58t-64 18q-61 0 -97 -48t-50 -132z" />
    <glyph glyph-name="Emacron" unicode="&#x112;" horiz-adv-x="580" 
d="M512 163l-29 -163h-479l5 26l56 6q11 1 16 3.5t8 12t7 33.5l91 518q6 35 4 41t-17 8l-55 5l5 27h467l-29 -163h-26l-10 105q-1 12 -3.5 17.5t-12 7t-33.5 1.5h-194l-51 -289h134q24 0 34 1.5t15 7t10 17.5l32 75h25l-41 -234h-25l-6 75q-1 18 -8 22t-42 4h-134l-52 -295
h206q24 0 34 1.5t15 7t10 17.5l47 105h26zM553 851l-8 -47h-287l8 47h287z" />
    <glyph glyph-name="emacron" unicode="&#x113;" horiz-adv-x="502" 
d="M435 98q-35 -61 -88 -84.5t-105 -23.5q-69 0 -114.5 33t-63 92.5t-3.5 138.5l4 22q12 68 46.5 119.5t87 80.5t118.5 29q51 0 86 -17t53 -44.5t18 -58.5q0 -50 -35.5 -86t-98 -56.5t-144.5 -26.5l-52 -4q-13 -95 13.5 -142.5t87.5 -47.5q24 0 52 9t53 31t38 61zM156 289
l-7 -45l46 3q82 5 126 27t61 53t17 62q0 39 -22.5 61.5t-62.5 22.5q-53 0 -97 -43.5t-61 -140.5zM483 666l-8 -47h-287l8 47h287z" />
    <glyph glyph-name="Ebreve" unicode="&#x114;" horiz-adv-x="580" 
d="M405 828q47 0 77.5 23.5t51.5 75.5l29 -9q-27 -82 -66 -118t-95 -36q-60 0 -90 39t-33 115l29 9q6 -52 28.5 -75.5t68.5 -23.5zM512 163l-29 -163h-479l5 26l56 6q11 1 16 3.5t8 12t7 33.5l91 518q6 35 4 41t-17 8l-55 5l5 27h467l-29 -163h-26l-10 105q-1 12 -3.5 17.5
t-12 7t-33.5 1.5h-194l-51 -289h134q24 0 34 1.5t15 7t10 17.5l32 75h25l-41 -234h-25l-6 75q-1 18 -8 22t-42 4h-134l-52 -295h206q24 0 34 1.5t15 7t10 17.5l47 105h26z" />
    <glyph glyph-name="ebreve" unicode="&#x115;" horiz-adv-x="502" 
d="M335 643q47 0 77.5 23.5t51.5 75.5l29 -9q-27 -82 -66 -118t-95 -36q-60 0 -90 39t-33 115l29 9q6 -52 28.5 -75.5t68.5 -23.5zM435 98q-35 -61 -88 -84.5t-105 -23.5q-69 0 -114.5 33t-63 92.5t-3.5 138.5l4 22q12 68 46.5 119.5t87 80.5t118.5 29q51 0 86 -17t53 -44.5
t18 -58.5q0 -50 -35.5 -86t-98 -56.5t-144.5 -26.5l-52 -4q-13 -95 13.5 -142.5t87.5 -47.5q24 0 52 9t53 31t38 61zM156 289l-7 -45l46 3q82 5 126 27t61 53t17 62q0 39 -22.5 61.5t-62.5 22.5q-53 0 -97 -43.5t-61 -140.5z" />
    <glyph glyph-name="Edotaccent" unicode="&#x116;" horiz-adv-x="580" 
d="M403 793q-22 0 -35.5 13t-13.5 35q0 25 16.5 42.5t43.5 17.5q23 0 36.5 -12.5t13.5 -34.5q0 -25 -16.5 -43t-44.5 -18zM512 163l-29 -163h-479l5 26l56 6q11 1 16 3.5t8 12t7 33.5l91 518q6 35 4 41t-17 8l-55 5l5 27h467l-29 -163h-26l-10 105q-1 12 -3.5 17.5t-12 7
t-33.5 1.5h-194l-51 -289h134q24 0 34 1.5t15 7t10 17.5l32 75h25l-41 -234h-25l-6 75q-1 18 -8 22t-42 4h-134l-52 -295h206q24 0 34 1.5t15 7t10 17.5l47 105h26z" />
    <glyph glyph-name="edotaccent" unicode="&#x117;" horiz-adv-x="502" 
d="M333 608q-22 0 -35.5 13t-13.5 35q0 25 16.5 42.5t43.5 17.5q23 0 36.5 -12.5t13.5 -34.5q0 -25 -16.5 -43t-44.5 -18zM435 98q-35 -61 -88 -84.5t-105 -23.5q-69 0 -114.5 33t-63 92.5t-3.5 138.5l4 22q12 68 46.5 119.5t87 80.5t118.5 29q51 0 86 -17t53 -44.5
t18 -58.5q0 -50 -35.5 -86t-98 -56.5t-144.5 -26.5l-52 -4q-13 -95 13.5 -142.5t87.5 -47.5q24 0 52 9t53 31t38 61zM156 289l-7 -45l46 3q82 5 126 27t61 53t17 62q0 39 -22.5 61.5t-62.5 22.5q-53 0 -97 -43.5t-61 -140.5z" />
    <glyph glyph-name="Eogonek" unicode="&#x118;" horiz-adv-x="580" 
d="M461 -125q-25 -54 -59.5 -76t-74.5 -22q-45 0 -74.5 21.5t-29.5 63.5q0 44 35.5 81t84.5 57h-339l5 26l56 6q11 1 16 3.5t8 12t7 33.5l91 518q6 35 4 41t-17 8l-55 5l5 27h467l-29 -163h-26l-10 105q-1 12 -3.5 17.5t-12 7t-33.5 1.5h-194l-51 -289h134q24 0 34 1.5t15 7
t10 17.5l32 75h25l-41 -234h-25l-6 75q-1 18 -8 22t-42 4h-134l-52 -295h206q24 0 34 1.5t15 7t10 17.5l47 105h26l-29 -163h-47q-47 0 -80.5 -20.5t-51 -53t-17.5 -67.5q0 -52 41 -52q24 0 45.5 18t37.5 63z" />
    <glyph glyph-name="eogonek" unicode="&#x119;" horiz-adv-x="502" 
d="M393 -125q-25 -54 -59.5 -76t-74.5 -22q-45 0 -74.5 21.5t-29.5 63.5q0 33 17.5 56.5t44 41t54.5 32.5q-7 -1 -14 -1.5t-15 -0.5q-69 0 -114.5 33t-63 92.5t-3.5 138.5l4 22q12 68 46.5 119.5t87 80.5t118.5 29q51 0 86 -17t53 -44.5t18 -58.5q0 -50 -35.5 -86t-98 -56.5
t-144.5 -26.5l-52 -4q-13 -95 13.5 -142.5t87.5 -47.5q24 0 52 9t53 31t38 61l47 -25q-18 -32 -45 -55.5t-56.5 -42.5t-55.5 -38.5t-42.5 -44t-16.5 -58.5q0 -52 41 -52q24 0 45.5 18t37.5 63zM156 289l-7 -45l46 3q82 5 126 27t61 53t17 62q0 39 -22.5 61.5t-62.5 22.5
q-53 0 -97 -43.5t-61 -140.5z" />
    <glyph glyph-name="Ecaron" unicode="&#x11a;" horiz-adv-x="580" 
d="M550 908q-28 -26 -47 -45.5t-36 -40.5t-39 -53h-66q-10 32 -19.5 53.5t-22 41.5t-31.5 46l18 19q29 -25 53.5 -49.5t43.5 -49.5q29 25 60.5 49.5t68.5 49.5zM512 163l-29 -163h-479l5 26l56 6q11 1 16 3.5t8 12t7 33.5l91 518q6 35 4 41t-17 8l-55 5l5 27h467l-29 -163
h-26l-10 105q-1 12 -3.5 17.5t-12 7t-33.5 1.5h-194l-51 -289h134q24 0 34 1.5t15 7t10 17.5l32 75h25l-41 -234h-25l-6 75q-1 18 -8 22t-42 4h-134l-52 -295h206q24 0 34 1.5t15 7t10 17.5l47 105h26z" />
    <glyph glyph-name="ecaron" unicode="&#x11b;" horiz-adv-x="502" 
d="M480 723q-28 -26 -47 -45.5t-36 -40.5t-39 -53h-66q-10 32 -19.5 53.5t-22 41.5t-31.5 46l18 19q29 -25 53.5 -49.5t43.5 -49.5q29 25 60.5 49.5t68.5 49.5zM435 98q-35 -61 -88 -84.5t-105 -23.5q-69 0 -114.5 33t-63 92.5t-3.5 138.5l4 22q12 68 46.5 119.5t87 80.5
t118.5 29q51 0 86 -17t53 -44.5t18 -58.5q0 -50 -35.5 -86t-98 -56.5t-144.5 -26.5l-52 -4q-13 -95 13.5 -142.5t87.5 -47.5q24 0 52 9t53 31t38 61zM156 289l-7 -45l46 3q82 5 126 27t61 53t17 62q0 39 -22.5 61.5t-62.5 22.5q-53 0 -97 -43.5t-61 -140.5z" />
    <glyph glyph-name="Gcircumflex" unicode="&#x11c;" horiz-adv-x="649" 
d="M553 783l-18 -19q-29 26 -53 50.5t-44 48.5q-28 -24 -60 -48.5t-69 -50.5l-17 21q29 27 47.5 46t35.5 40.5t39 53.5h66q11 -32 20 -54t21.5 -41.5t31.5 -46.5zM484 12q-13 27 -34 44q-63 -66 -160 -66q-80 0 -131 40.5t-69.5 114t-3.5 170.5l11 67q23 143 102 225.5
t202 82.5q77 0 124.5 -30t64 -78t0.5 -102l-90 -21q27 97 1.5 148t-102.5 51q-73 0 -125.5 -53t-72.5 -173l-28 -167q-21 -127 10.5 -185t110.5 -58q41 0 81.5 16.5t66.5 59.5l23 129q7 35 5 41.5t-18 7.5l-74 5l4 27h255l-4 -27l-56 -5q-16 -2 -20.5 -8.5t-10.5 -40.5
l-38 -215h-24z" />
    <glyph glyph-name="gcircumflex" unicode="&#x11d;" horiz-adv-x="564" 
d="M459 598l-18 -19q-29 26 -53 50.5t-44 48.5q-28 -24 -60 -48.5t-69 -50.5l-17 21q29 27 47.5 46t35.5 40.5t39 53.5h66q11 -32 20 -54t21.5 -41.5t31.5 -46.5zM428 9q-11 -61 -40.5 -114t-81.5 -85.5t-131 -32.5q-78 0 -116 42t-33 109l57 12q-7 -72 18.5 -102.5
t73.5 -30.5q62 0 106.5 42.5t63.5 149.5l14 76q-34 -47 -72 -66t-77 -19q-59 0 -96.5 36.5t-50.5 97.5t1 136l4 22q13 70 47 120t82 76.5t102 26.5q43 0 75 -16.5t53 -46.5q13 11 26 24.5t26 28.5h35zM149 234q-17 -100 4.5 -155t69.5 -55q20 0 44 10.5t51.5 40t55.5 85.5
l41 234q-18 41 -45.5 59t-64.5 18q-61 0 -97 -48t-50 -132z" />
    <glyph glyph-name="Gbreve" unicode="&#x11e;" horiz-adv-x="649" 
d="M430 828q47 0 77.5 23.5t51.5 75.5l29 -9q-27 -82 -66 -118t-95 -36q-60 0 -90 39t-33 115l29 9q6 -52 28.5 -75.5t68.5 -23.5zM484 12q-13 27 -34 44q-63 -66 -160 -66q-80 0 -131 40.5t-69.5 114t-3.5 170.5l11 67q23 143 102 225.5t202 82.5q77 0 124.5 -30t64 -78
t0.5 -102l-90 -21q27 97 1.5 148t-102.5 51q-73 0 -125.5 -53t-72.5 -173l-28 -167q-21 -127 10.5 -185t110.5 -58q41 0 81.5 16.5t66.5 59.5l23 129q7 35 5 41.5t-18 7.5l-74 5l4 27h255l-4 -27l-56 -5q-16 -2 -20.5 -8.5t-10.5 -40.5l-38 -215h-24z" />
    <glyph glyph-name="gbreve" unicode="&#x11f;" horiz-adv-x="564" 
d="M336 643q47 0 77.5 23.5t51.5 75.5l29 -9q-27 -82 -66 -118t-95 -36q-60 0 -90 39t-33 115l29 9q6 -52 28.5 -75.5t68.5 -23.5zM428 9q-11 -61 -40.5 -114t-81.5 -85.5t-131 -32.5q-78 0 -116 42t-33 109l57 12q-7 -72 18.5 -102.5t73.5 -30.5q62 0 106.5 42.5
t63.5 149.5l14 76q-34 -47 -72 -66t-77 -19q-59 0 -96.5 36.5t-50.5 97.5t1 136l4 22q13 70 47 120t82 76.5t102 26.5q43 0 75 -16.5t53 -46.5q13 11 26 24.5t26 28.5h35zM149 234q-17 -100 4.5 -155t69.5 -55q20 0 44 10.5t51.5 40t55.5 85.5l41 234q-18 41 -45.5 59
t-64.5 18q-61 0 -97 -48t-50 -132z" />
    <glyph glyph-name="Gdotaccent" unicode="&#x120;" horiz-adv-x="649" 
d="M428 793q-22 0 -35.5 13t-13.5 35q0 25 16.5 42.5t43.5 17.5q23 0 36.5 -12.5t13.5 -34.5q0 -25 -16.5 -43t-44.5 -18zM484 12q-13 27 -34 44q-63 -66 -160 -66q-80 0 -131 40.5t-69.5 114t-3.5 170.5l11 67q23 143 102 225.5t202 82.5q77 0 124.5 -30t64 -78t0.5 -102
l-90 -21q27 97 1.5 148t-102.5 51q-73 0 -125.5 -53t-72.5 -173l-28 -167q-21 -127 10.5 -185t110.5 -58q41 0 81.5 16.5t66.5 59.5l23 129q7 35 5 41.5t-18 7.5l-74 5l4 27h255l-4 -27l-56 -5q-16 -2 -20.5 -8.5t-10.5 -40.5l-38 -215h-24z" />
    <glyph glyph-name="gdotaccent" unicode="&#x121;" horiz-adv-x="564" 
d="M333 608q-22 0 -35.5 13t-13.5 35q0 25 16.5 42.5t43.5 17.5q23 0 36.5 -12.5t13.5 -34.5q0 -25 -16.5 -43t-44.5 -18zM428 9q-11 -61 -40.5 -114t-81.5 -85.5t-131 -32.5q-78 0 -116 42t-33 109l57 12q-7 -72 18.5 -102.5t73.5 -30.5q62 0 106.5 42.5t63.5 149.5l14 76
q-34 -47 -72 -66t-77 -19q-59 0 -96.5 36.5t-50.5 97.5t1 136l4 22q13 70 47 120t82 76.5t102 26.5q43 0 75 -16.5t53 -46.5q13 11 26 24.5t26 28.5h35zM149 234q-17 -100 4.5 -155t69.5 -55q20 0 44 10.5t51.5 40t55.5 85.5l41 234q-18 41 -45.5 59t-64.5 18q-61 0 -97 -48
t-50 -132z" />
    <glyph glyph-name="uni0122" unicode="&#x122;" horiz-adv-x="649" 
d="M193 -242l-18 16q23 35 37.5 69t24.5 80h88q-26 -49 -57 -87t-75 -78zM484 12q-13 27 -34 44q-63 -66 -160 -66q-80 0 -131 40.5t-69.5 114t-3.5 170.5l11 67q23 143 102 225.5t202 82.5q77 0 124.5 -30t64 -78t0.5 -102l-90 -21q27 97 1.5 148t-102.5 51
q-73 0 -125.5 -53t-72.5 -173l-28 -167q-21 -127 10.5 -185t110.5 -58q41 0 81.5 16.5t66.5 59.5l23 129q7 35 5 41.5t-18 7.5l-74 5l4 27h255l-4 -27l-56 -5q-16 -2 -20.5 -8.5t-10.5 -40.5l-38 -215h-24z" />
    <glyph glyph-name="uni0123" unicode="&#x123;" horiz-adv-x="564" 
d="M412 749l19 -16q-22 -34 -36.5 -68t-25.5 -81h-89q26 50 57 87.5t75 77.5zM428 9q-11 -61 -40.5 -114t-81.5 -85.5t-131 -32.5q-78 0 -116 42t-33 109l57 12q-7 -72 18.5 -102.5t73.5 -30.5q62 0 106.5 42.5t63.5 149.5l14 76q-34 -47 -72 -66t-77 -19q-59 0 -96.5 36.5
t-50.5 97.5t1 136l4 22q13 70 47 120t82 76.5t102 26.5q43 0 75 -16.5t53 -46.5q13 11 26 24.5t26 28.5h35zM149 234q-17 -100 4.5 -155t69.5 -55q20 0 44 10.5t51.5 40t55.5 85.5l41 234q-18 41 -45.5 59t-64.5 18q-61 0 -97 -48t-50 -132z" />
    <glyph glyph-name="Hcircumflex" unicode="&#x124;" horiz-adv-x="726" 
d="M583 783l-18 -19q-29 26 -53 50.5t-44 48.5q-28 -24 -60 -48.5t-69 -50.5l-17 21q29 27 47.5 46t35.5 40.5t39 53.5h66q11 -32 20 -54t21.5 -41.5t31.5 -46.5zM250 26l-5 -26h-241l5 26l56 6q11 1 15.5 3.5t7.5 12t7 33.5l92 518q6 35 4 41t-18 8l-54 5l5 27h241l-5 -27
l-56 -5q-10 -1 -15 -4t-8 -12.5t-7 -32.5l-43 -240h302l43 240q6 35 4 41t-18 8l-54 5l5 27h241l-5 -27l-56 -5q-10 -1 -15 -4t-8 -12.5t-7 -32.5l-92 -518q-6 -35 -4 -41t18 -8l54 -6l-5 -26h-241l5 26l56 6q11 1 15.5 3.5t7.5 12t7 33.5l44 246h-302l-44 -246
q-6 -35 -4 -41t18 -8z" />
    <glyph glyph-name="hcircumflex" unicode="&#x125;" horiz-adv-x="611" 
d="M470 820l-18 -19q-29 26 -53 50.5t-44 48.5q-28 -24 -60 -48.5t-69 -50.5l-17 21q29 27 47.5 46t35.5 40.5t39 53.5h66q11 -32 20 -54t21.5 -41.5t31.5 -46.5zM588 83q-22 -46 -51.5 -67t-64.5 -21q-45 0 -67.5 31.5t-8.5 100.5l39 196q16 76 -1 110t-56 34
q-24 0 -53.5 -13t-62.5 -45.5t-67 -92.5l-56 -316h-82l116 659q6 34 4 40.5t-17 8.5l-55 5l5 27h159l-61 -347q44 60 92 86t96 26q73 0 106 -49t16 -132l-41 -200q-10 -51 -9 -73.5t20 -22.5q16 0 34 17.5t31 59.5z" />
    <glyph glyph-name="Hbar" unicode="&#x126;" horiz-adv-x="734" 
d="M253 26l-5 -26h-241l5 26l56 6q11 1 15.5 3.5t7.5 12t7 33.5l73 412h-76l5 31h77l13 75q6 35 4 41t-18 8l-54 5l5 27h241l-5 -27l-56 -5q-10 -1 -15 -4t-8 -12.5t-7 -32.5l-13 -75h302l13 75q6 35 4 41t-18 8l-54 5l5 27h241l-5 -27l-56 -5q-10 -1 -15 -4t-8 -12.5
t-7 -32.5l-13 -75h77l-5 -31h-78l-73 -412q-6 -35 -4 -41t18 -8l54 -6l-5 -26h-241l5 26l56 6q11 1 15.5 3.5t7.5 12t7 33.5l44 246h-302l-44 -246q-6 -35 -4 -41t18 -8zM234 359h302l24 134h-302z" />
    <glyph glyph-name="hbar" unicode="&#x127;" horiz-adv-x="611" 
d="M588 83q-22 -46 -51.5 -67t-64.5 -21q-45 0 -67.5 31.5t-8.5 100.5l39 196q16 76 -1 110t-56 34q-24 0 -53.5 -13t-62.5 -45.5t-67 -92.5l-56 -316h-82l104 588h-78l6 32h77l7 39q6 34 4 40.5t-17 8.5l-55 5l5 27h159l-21 -120h153l-6 -32h-153l-34 -195q44 60 92 86
t96 26q73 0 106 -49t16 -132l-41 -200q-10 -51 -9 -73.5t20 -22.5q16 0 34 17.5t31 59.5z" />
    <glyph glyph-name="Itilde" unicode="&#x128;" horiz-adv-x="337" 
d="M337 774q-25 0 -43 13.5t-32.5 31t-28.5 31t-31 13.5t-32 -18.5t-25 -59.5h-31q14 74 40 106.5t59 32.5q26 0 43.5 -13.5t31.5 -31t27.5 -31t30.5 -13.5t31.5 19t24.5 59h32q-14 -75 -39.5 -107t-57.5 -32zM119 653l5 27h241l-5 -27l-56 -5q-10 -1 -15 -4t-8 -12.5
t-7 -32.5l-92 -518q-6 -35 -4 -41t18 -8l54 -6l-5 -26h-241l5 26l56 6q11 1 15.5 3.5t7.5 12t7 33.5l92 518q6 35 4 41t-18 8z" />
    <glyph glyph-name="itilde" unicode="&#x129;" horiz-adv-x="300" 
d="M262 589q-25 0 -43 13.5t-32.5 31t-28.5 31t-31 13.5t-32 -18.5t-25 -59.5h-31q14 74 40 106.5t59 32.5q26 0 43.5 -13.5t31.5 -31t27.5 -31t30.5 -13.5t31.5 19t24.5 59h32q-14 -75 -39.5 -107t-57.5 -32zM66 468l5 27h159l-60 -345q-13 -74 -10 -98t19 -24
q15 0 32.5 17.5t30.5 59.5l36 -22q-22 -46 -51.5 -67t-62.5 -21q-46 0 -68.5 36t-9.5 111l48 272q6 34 3.5 40.5t-17.5 8.5z" />
    <glyph glyph-name="Imacron" unicode="&#x12a;" horiz-adv-x="337" 
d="M119 653l5 27h241l-5 -27l-56 -5q-10 -1 -15 -4t-8 -12.5t-7 -32.5l-92 -518q-6 -35 -4 -41t18 -8l54 -6l-5 -26h-241l5 26l56 6q11 1 15.5 3.5t7.5 12t7 33.5l92 518q6 35 4 41t-18 8zM418 851l-8 -47h-287l8 47h287z" />
    <glyph glyph-name="imacron" unicode="&#x12b;" horiz-adv-x="300" 
d="M66 468l5 27h159l-60 -345q-13 -74 -10 -98t19 -24q15 0 32.5 17.5t30.5 59.5l36 -22q-22 -46 -51.5 -67t-62.5 -21q-46 0 -68.5 36t-9.5 111l48 272q6 34 3.5 40.5t-17.5 8.5zM343 666l-8 -47h-287l8 47h287z" />
    <glyph glyph-name="Ibreve" unicode="&#x12c;" horiz-adv-x="337" 
d="M270 828q47 0 77.5 23.5t51.5 75.5l29 -9q-27 -82 -66 -118t-95 -36q-60 0 -90 39t-33 115l29 9q6 -52 28.5 -75.5t68.5 -23.5zM119 653l5 27h241l-5 -27l-56 -5q-10 -1 -15 -4t-8 -12.5t-7 -32.5l-92 -518q-6 -35 -4 -41t18 -8l54 -6l-5 -26h-241l5 26l56 6
q11 1 15.5 3.5t7.5 12t7 33.5l92 518q6 35 4 41t-18 8z" />
    <glyph glyph-name="ibreve" unicode="&#x12d;" horiz-adv-x="300" 
d="M195 643q47 0 77.5 23.5t51.5 75.5l29 -9q-27 -82 -66 -118t-95 -36q-60 0 -90 39t-33 115l29 9q6 -52 28.5 -75.5t68.5 -23.5zM66 468l5 27h159l-60 -345q-13 -74 -10 -98t19 -24q15 0 32.5 17.5t30.5 59.5l36 -22q-22 -46 -51.5 -67t-62.5 -21q-46 0 -68.5 36t-9.5 111
l48 272q6 34 3.5 40.5t-17.5 8.5z" />
    <glyph glyph-name="Iogonek" unicode="&#x12e;" horiz-adv-x="334" 
d="M204 -125q-25 -54 -59.5 -76t-74.5 -22q-45 0 -74.5 21.5t-29.5 63.5q0 44 32.5 81.5t79.5 59.5l105 596q6 35 4 41t-17 8l-55 5l5 27h241l-5 -27l-55 -5q-11 -1 -16 -4t-8 -12.5t-7 -32.5l-91 -518q-6 -35 -4 -41t17 -8l54 -6l-4 -26h-63q-47 0 -80.5 -20.5t-51 -53
t-17.5 -67.5q0 -52 42 -52q23 0 44.5 18t37.5 63z" />
    <glyph glyph-name="iogonek" unicode="&#x12f;" horiz-adv-x="293" 
d="M205 608q-23 0 -36.5 13t-13.5 35q0 25 17 42.5t44 17.5q23 0 36.5 -12.5t13.5 -34.5q0 -25 -16.5 -43t-44.5 -18zM59 468l5 27h159l-61 -345q-13 -74 -9.5 -98t19.5 -24q14 0 32 17.5t31 59.5l35 -22q-16 -34 -39.5 -56t-49.5 -38.5t-49 -33.5t-37.5 -40t-14.5 -58
q0 -50 42 -50q23 0 45 18t38 63l50 -13q-25 -54 -60 -76t-77 -22q-43 0 -72.5 21t-29.5 60q0 36 20 61.5t49 44t57 33.5q-40 5 -57.5 41t-5.5 104l47 272q6 34 4 40.5t-17 8.5z" />
    <glyph glyph-name="Idotaccent" unicode="&#x130;" horiz-adv-x="337" 
d="M268 793q-22 0 -35.5 13t-13.5 35q0 25 16.5 42.5t43.5 17.5q23 0 36.5 -12.5t13.5 -34.5q0 -25 -16.5 -43t-44.5 -18zM119 653l5 27h241l-5 -27l-56 -5q-10 -1 -15 -4t-8 -12.5t-7 -32.5l-92 -518q-6 -35 -4 -41t18 -8l54 -6l-5 -26h-241l5 26l56 6q11 1 15.5 3.5
t7.5 12t7 33.5l92 518q6 35 4 41t-18 8z" />
    <glyph glyph-name="dotlessi" unicode="&#x131;" horiz-adv-x="300" 
d="M66 468l5 27h159l-60 -345q-13 -74 -10 -98t19 -24q15 0 32.5 17.5t30.5 59.5l36 -22q-22 -46 -51.5 -67t-62.5 -21q-46 0 -68.5 36t-9.5 111l48 272q6 34 3.5 40.5t-17.5 8.5z" />
    <glyph glyph-name="IJ" unicode="&#x132;" horiz-adv-x="799" 
d="M119 653l5 27h241l-5 -27l-56 -5q-10 -1 -15 -4t-8 -12.5t-7 -32.5l-92 -518q-6 -35 -4 -41t18 -8l54 -6l-5 -26h-241l5 26l56 6q11 1 15.5 3.5t7.5 12t7 33.5l92 518q6 35 4 41t-18 8zM592 653l5 27h241l-5 -27l-55 -5q-16 -2 -20.5 -8.5t-10.5 -40.5l-71 -405
q-10 -56 -35.5 -102.5t-69 -74t-107.5 -27.5q-37 0 -69 13.5t-50 45t-15 85.5l65 19q-7 -54 1.5 -82t26.5 -38.5t37 -10.5q28 0 52.5 14.5t44.5 50.5t31 103l72 409q6 34 4 40.5t-17 8.5z" />
    <glyph glyph-name="ij" unicode="&#x133;" horiz-adv-x="588" 
d="M212 608q-49 0 -49 48q0 25 16.5 42.5t43.5 17.5q23 0 36.5 -12.5t13.5 -34.5q0 -25 -16.5 -43t-44.5 -18zM66 468l5 27h159l-60 -345q-13 -74 -10 -98t19 -24q15 0 32.5 17.5t30.5 59.5l36 -22q-22 -46 -51.5 -67t-62.5 -21q-46 0 -68.5 36t-9.5 111l47 272q6 34 4 40.5
t-17 8.5zM511 608q-23 0 -36 14t-11 37q2 25 19.5 41t42.5 16q24 0 37 -13.5t11 -36.5q-2 -24 -19.5 -41t-43.5 -17zM367 468l4 27h159l-96 -547q-8 -45 -28 -84t-56 -63t-92 -24q-52 0 -83.5 29.5t-27.5 86.5l57 16q-4 -55 11 -77.5t40 -22.5q36 0 59.5 27.5t36.5 103.5
l83 474q6 34 4 40.5t-17 8.5z" />
    <glyph glyph-name="Jcircumflex" unicode="&#x134;" horiz-adv-x="461" 
d="M528 783l-18 -19q-29 26 -53 50.5t-44 48.5q-28 -24 -60 -48.5t-69 -50.5l-17 21q29 27 47.5 46t35.5 40.5t39 53.5h66q11 -32 20 -54t21.5 -41.5t31.5 -46.5zM255 653l5 27h241l-5 -27l-55 -5q-16 -2 -20.5 -8.5t-10.5 -40.5l-71 -405q-10 -56 -35.5 -102.5t-69 -74
t-107.5 -27.5q-37 0 -69 13.5t-50 45t-15 85.5l65 19q-7 -54 1.5 -82t26.5 -38.5t37 -10.5q28 0 52.5 14.5t44.5 50.5t31 103l72 409q6 34 4 40.5t-17 8.5z" />
    <glyph glyph-name="jcircumflex" unicode="&#x135;" horiz-adv-x="284" 
d="M322 598l-18 -19q-29 26 -53 50.5t-44 48.5q-28 -24 -60 -48.5t-69 -50.5l-17 21q29 27 47.5 46t35.5 40.5t39 53.5h66q11 -32 20 -54t21.5 -41.5t31.5 -46.5zM68 468l4 27h159l-96 -547q-8 -45 -28 -84t-56 -63t-92 -24q-52 0 -83.5 29.5t-27.5 86.5l57 16
q-4 -55 11 -77.5t40 -22.5q36 0 59.5 27.5t36.5 103.5l83 474q6 34 4 40.5t-17 8.5z" />
    <glyph glyph-name="uni0136" unicode="&#x136;" horiz-adv-x="644" 
d="M197 -242l-18 16q23 35 37.5 69t24.5 80h88q-26 -49 -57 -87t-75 -78zM250 26l-5 -26h-241l5 26l56 6q17 2 21 8.5t10 40.5l91 518q6 35 4 41.5t-17 7.5l-54 6l4 26h241l-4 -26l-56 -6q-16 -1 -20.5 -7.5t-10.5 -41.5l-49 -279l290 285q29 29 30.5 35.5t-13.5 7.5l-50 6
l4 26h196l-4 -26l-53 -6q-10 -1 -16.5 -3.5t-15.5 -11t-29 -28.5l-191 -188l133 -336q10 -24 15.5 -33.5t11 -12t15.5 -3.5l47 -6l-5 -26h-150l-133 352l-92 -91l-32 -180q-6 -34 -4 -40.5t17 -8.5z" />
    <glyph glyph-name="uni0137" unicode="&#x137;" horiz-adv-x="521" 
d="M156 -242l-18 16q23 35 37.5 69t24.5 80h88q-26 -49 -57 -87t-75 -78zM357 0l-112 260l-81 -72l-33 -188h-81l116 659q6 34 4 40.5t-17 8.5l-54 5l4 27h159l-88 -499l120 112q48 44 81.5 72.5t64 47.5t67.5 32l16 -85q-66 -13 -119 -39.5t-97 -64.5l108 -241
q13 -30 19 -35.5t21 -7.5l51 -6l-5 -26h-144z" />
    <glyph glyph-name="kgreenlandic" unicode="&#x138;" horiz-adv-x="533" 
d="M370 0l-112 260l-81 -73l-34 -187h-80l73 414q6 34 4 40.5t-18 8.5l-53 5l4 27h159l-46 -254l121 112q48 44 81.5 72.5t64 47.5t67.5 32l15 -85q-66 -13 -119 -39.5t-97 -64.5l108 -241q14 -30 19.5 -35.5t21.5 -7.5l50 -6l-4 -26h-144z" />
    <glyph glyph-name="Lacute" unicode="&#x139;" horiz-adv-x="515" 
d="M488 165l-29 -165h-455l5 26l56 6q11 1 15.5 3.5t7.5 12t7 33.5l92 518q6 35 4 41t-18 8l-54 5l5 27h241l-5 -27l-56 -5q-10 -1 -15 -4t-8 -12.5t-7 -32.5l-100 -567h181q24 0 34 1.5t15 7t10 17.5l48 107h26zM266 764l-19 22q29 32 49.5 62.5t39.5 76.5h101
q-38 -46 -78.5 -84t-92.5 -77z" />
    <glyph glyph-name="lacute" unicode="&#x13a;" horiz-adv-x="291" 
d="M99 713l4 27h159l-103 -590q-13 -74 -9.5 -98t19.5 -24q14 0 32 17.5t31 59.5l35 -22q-22 -46 -51 -67t-62 -21q-47 0 -69 36t-9 111l90 517q6 34 4 40.5t-17 8.5zM225 801l-19 22q29 32 49.5 62.5t39.5 76.5h101q-38 -46 -78.5 -84t-92.5 -77z" />
    <glyph glyph-name="uni013B" unicode="&#x13b;" horiz-adv-x="515" 
d="M157 -242l-18 16q23 35 37.5 69t24.5 80h88q-26 -49 -57 -87t-75 -78zM488 165l-29 -165h-455l5 26l56 6q11 1 15.5 3.5t7.5 12t7 33.5l92 518q6 35 4 41t-18 8l-54 5l5 27h241l-5 -27l-56 -5q-10 -1 -15 -4t-8 -12.5t-7 -32.5l-100 -567h181q24 0 34 1.5t15 7t10 17.5
l48 107h26z" />
    <glyph glyph-name="uni013C" unicode="&#x13c;" horiz-adv-x="293" 
d="M30 -242l-18 16q23 35 37.5 69t24.5 80h88q-26 -49 -57 -87t-75 -78zM99 713l4 27h159l-103 -590q-13 -74 -9.5 -98t19.5 -24q14 0 32 17.5t31 59.5l35 -22q-22 -46 -51 -67t-62 -21q-47 0 -69 36t-9 111l90 517q6 34 4 40.5t-17 8.5z" />
    <glyph glyph-name="Lcaron" unicode="&#x13d;" horiz-adv-x="515" 
d="M418 466h-21l37 214h82q-22 -54 -45.5 -106t-52.5 -108zM488 165l-29 -165h-455l5 26l56 6q11 1 15.5 3.5t7.5 12t7 33.5l92 518q6 35 4 41t-18 8l-54 5l5 27h241l-5 -27l-56 -5q-10 -1 -15 -4t-8 -12.5t-7 -32.5l-100 -567h181q24 0 34 1.5t15 7t10 17.5l48 107h26z" />
    <glyph glyph-name="lcaron" unicode="&#x13e;" horiz-adv-x="364" 
d="M320 526h-21l37 214h82q-22 -54 -45.5 -106t-52.5 -108zM99 713l4 27h159l-103 -590q-13 -74 -9.5 -98t19.5 -24q14 0 32 17.5t31 59.5l35 -22q-22 -46 -51 -67t-62 -21q-47 0 -69 36t-9 111l90 517q6 34 4 40.5t-17 8.5z" />
    <glyph glyph-name="Ldot" unicode="&#x13f;" horiz-adv-x="515" 
d="M488 165l-29 -165h-455l5 26l56 6q11 1 15.5 3.5t7.5 12t7 33.5l92 518q6 35 4 41t-18 8l-54 5l5 27h241l-5 -27l-56 -5q-10 -1 -15 -4t-8 -12.5t-7 -32.5l-100 -567h181q24 0 34 1.5t15 7t10 17.5l48 107h26zM443 330q-22 0 -35.5 13t-13.5 35q0 25 16.5 42.5t43.5 17.5
q23 0 36.5 -12.5t13.5 -34.5q0 -25 -16.5 -43t-44.5 -18z" />
    <glyph glyph-name="ldot" unicode="&#x140;" horiz-adv-x="309" 
d="M99 713l4 27h159l-103 -590q-13 -74 -9.5 -98t19.5 -24q14 0 32 17.5t31 59.5l35 -22q-22 -46 -51 -67t-62 -21q-47 0 -69 36t-9 111l90 517q6 34 4 40.5t-17 8.5zM308 330q-22 0 -35.5 13t-13.5 35q0 25 16.5 42.5t43.5 17.5q23 0 36.5 -12.5t13.5 -34.5
q0 -25 -16.5 -43t-44.5 -18z" />
    <glyph glyph-name="Lslash" unicode="&#x141;" horiz-adv-x="518" 
d="M490 163l-28 -163h-455l5 26l56 6q11 1 15.5 3.5t7.5 12t7 33.5l38 215l-84 -39l-10 32l101 47l47 263q6 35 4 41t-18 8l-54 5l5 27h241l-5 -27l-56 -5q-10 -1 -15 -4t-8 -12.5t-7 -32.5l-39 -219l142 66l10 -32l-159 -74l-54 -308h181q24 0 34 1.5t15 7t10 17.5l47 105
h26z" />
    <glyph glyph-name="lslash" unicode="&#x142;" horiz-adv-x="330" 
d="M283 83q-22 -46 -51.5 -67t-62.5 -21q-46 0 -68.5 36t-9.5 111l33 189l-108 -50l-9 31l123 57l51 290q6 34 4 40.5t-17 8.5l-54 5l5 27h159l-58 -330l107 49l10 -30l-123 -57l-39 -222q-13 -74 -10 -98t19 -24q15 0 32.5 17.5t30.5 59.5z" />
    <glyph glyph-name="Nacute" unicode="&#x143;" horiz-adv-x="691" 
d="M119 653l5 27h167l228 -534l81 453q6 34 4 40.5t-17 8.5l-55 5l5 27h191l-5 -27l-55 -5q-16 -2 -20.5 -8.5t-10.5 -40.5l-106 -599h-40l-264 613l-94 -532q-6 -34 -4 -40.5t17 -8.5l54 -6l-5 -26h-191l5 26l56 6q17 2 21 8.5t10 40.5l91 518q6 34 4 40.5t-17 8.5z
M443 764l-19 22q29 32 49.5 62.5t39.5 76.5h101q-38 -46 -78.5 -84t-92.5 -77z" />
    <glyph glyph-name="nacute" unicode="&#x144;" horiz-adv-x="617" 
d="M594 83q-22 -46 -51.5 -67t-64.5 -21q-46 0 -68 32t-9 100l40 196q15 76 -2 110t-56 34q-24 0 -53.5 -13t-62 -45.5t-67.5 -92.5l-55 -316h-82l72 414q6 34 4 40.5t-17 8.5l-54 5l5 27h156l-18 -106q44 62 92.5 89t97.5 27q74 0 106.5 -49t15.5 -132l-41 -200
q-10 -51 -9 -73.5t20 -22.5q17 0 34.5 17.5t30.5 59.5zM372 579l-19 22q29 32 49.5 62.5t39.5 76.5h101q-38 -46 -78.5 -84t-92.5 -77z" />
    <glyph glyph-name="uni0145" unicode="&#x145;" horiz-adv-x="691" 
d="M203 -242l-18 16q23 35 37.5 69t24.5 80h88q-26 -49 -57 -87t-75 -78zM119 653l5 27h167l228 -534l81 453q6 34 4 40.5t-17 8.5l-55 5l5 27h191l-5 -27l-55 -5q-16 -2 -20.5 -8.5t-10.5 -40.5l-106 -599h-40l-264 613l-94 -532q-6 -34 -4 -40.5t17 -8.5l54 -6l-5 -26
h-191l5 26l56 6q17 2 21 8.5t10 40.5l91 518q6 34 4 40.5t-17 8.5z" />
    <glyph glyph-name="uni0146" unicode="&#x146;" horiz-adv-x="617" 
d="M177 -242l-18 16q23 35 37.5 69t24.5 80h88q-26 -49 -57 -87t-75 -78zM594 83q-22 -46 -51.5 -67t-64.5 -21q-46 0 -68 32t-9 100l40 196q15 76 -2 110t-56 34q-24 0 -53.5 -13t-62 -45.5t-67.5 -92.5l-55 -316h-82l72 414q6 34 4 40.5t-17 8.5l-54 5l5 27h156l-18 -106
q44 62 92.5 89t97.5 27q74 0 106.5 -49t15.5 -132l-41 -200q-10 -51 -9 -73.5t20 -22.5q17 0 34.5 17.5t30.5 59.5z" />
    <glyph glyph-name="Ncaron" unicode="&#x147;" horiz-adv-x="691" 
d="M600 908q-28 -26 -47 -45.5t-36 -40.5t-39 -53h-66q-10 32 -19.5 53.5t-22 41.5t-31.5 46l18 19q29 -25 53.5 -49.5t43.5 -49.5q29 25 60.5 49.5t68.5 49.5zM119 653l5 27h167l228 -534l81 453q6 34 4 40.5t-17 8.5l-55 5l5 27h191l-5 -27l-55 -5q-16 -2 -20.5 -8.5
t-10.5 -40.5l-106 -599h-40l-264 613l-94 -532q-6 -34 -4 -40.5t17 -8.5l54 -6l-5 -26h-191l5 26l56 6q17 2 21 8.5t10 40.5l91 518q6 34 4 40.5t-17 8.5z" />
    <glyph glyph-name="ncaron" unicode="&#x148;" horiz-adv-x="617" 
d="M529 723q-28 -26 -47 -45.5t-36 -40.5t-39 -53h-66q-10 32 -19.5 53.5t-22 41.5t-31.5 46l18 19q29 -25 53.5 -49.5t43.5 -49.5q29 25 60.5 49.5t68.5 49.5zM594 83q-22 -46 -51.5 -67t-64.5 -21q-46 0 -68 32t-9 100l40 196q15 76 -2 110t-56 34q-24 0 -53.5 -13
t-62 -45.5t-67.5 -92.5l-55 -316h-82l72 414q6 34 4 40.5t-17 8.5l-54 5l5 27h156l-18 -106q44 62 92.5 89t97.5 27q74 0 106.5 -49t15.5 -132l-41 -200q-10 -51 -9 -73.5t20 -22.5q17 0 34.5 17.5t30.5 59.5z" />
    <glyph glyph-name="napostrophe" unicode="&#x149;" horiz-adv-x="717" 
d="M693 83q-22 -46 -51.5 -67t-64.5 -21q-46 0 -68 32t-9 100l40 196q15 76 -2 110t-56 34q-24 0 -53.5 -13t-62 -45.5t-67.5 -92.5l-55 -316h-82l72 414q6 34 4 40.5t-17 8.5l-54 5l5 27h156l-18 -106q44 62 92.5 89t97.5 27q74 0 106.5 -49t15.5 -132l-41 -200
q-10 -51 -9 -73.5t20 -22.5q17 0 34.5 17.5t30.5 59.5zM154 635q0 -43 -34 -95.5t-93 -108.5l-19 20q40 41 59.5 73.5t26.5 60.5q-20 1 -32 13t-12 33q0 25 15 42t40 17q22 0 35.5 -14.5t13.5 -40.5z" />
    <glyph glyph-name="Eng" unicode="&#x14a;" horiz-adv-x="691" 
d="M119 653l5 27h167l228 -534l81 453q6 34 4 40.5t-17 8.5l-55 5l5 27h191l-5 -27l-55 -5q-16 -2 -20.5 -8.5t-10.5 -40.5l-109 -618q-10 -56 -34.5 -102.5t-66.5 -74t-105 -27.5q-32 0 -62 13t-47.5 43.5t-12.5 82.5l62 17q-9 -51 -0.5 -77.5t25 -36.5t33.5 -10
q27 0 50.5 14.5t42 51t29.5 103.5l17 96l-232 539l-94 -532q-6 -34 -4 -40.5t17 -8.5l54 -6l-5 -26h-191l5 26l56 6q17 2 21 8.5t10 40.5l91 518q6 34 4 40.5t-17 8.5z" />
    <glyph glyph-name="eng" unicode="&#x14b;" horiz-adv-x="596" 
d="M453 -52q-8 -45 -28 -84t-56 -63t-92 -24q-53 0 -86 28t-26 88l57 16q-6 -59 10.5 -79.5t41.5 -20.5q36 0 59.5 27.5t36.5 103.5l68 383q13 76 -3 110t-55 34q-24 0 -53.5 -13t-62 -45.5t-67.5 -92.5l-56 -316h-82l73 414q6 34 4 40.5t-17 8.5l-54 5l5 27h156l-19 -108
q44 63 93 90.5t98 27.5q74 0 105.5 -49t16.5 -132z" />
    <glyph glyph-name="Omacron" unicode="&#x14c;" horiz-adv-x="666" 
d="M614 366l-12 -65q-16 -94 -56 -164t-102 -108.5t-143 -38.5q-87 0 -140.5 42.5t-72.5 116.5t-3 166l11 65q17 93 57 163t101.5 108.5t142.5 38.5q87 0 140.5 -43t73 -116.5t3.5 -164.5zM528 418q20 114 -12.5 177t-118.5 63q-78 0 -127.5 -58.5t-69.5 -171.5l-29 -165
q-20 -115 12.5 -178t117.5 -63q79 0 129 59t69 172zM581 851l-8 -47h-287l8 47h287z" />
    <glyph glyph-name="omacron" unicode="&#x14d;" horiz-adv-x="554" 
d="M492 242l-4 -22q-19 -109 -83 -169.5t-164 -60.5q-70 0 -114.5 35.5t-61.5 95t-4 131.5l4 23q20 109 83 169.5t162 60.5q71 0 116 -35.5t62 -95.5t4 -132zM406 268q18 102 -9 154t-89 52q-55 0 -94.5 -43.5t-56.5 -142.5l-10 -61q-18 -102 9 -154.5t88 -52.5
q56 0 95.5 44t55.5 143zM490 666l-8 -47h-287l8 47h287z" />
    <glyph glyph-name="Obreve" unicode="&#x14e;" horiz-adv-x="666" 
d="M433 828q47 0 77.5 23.5t51.5 75.5l29 -9q-27 -82 -66 -118t-95 -36q-60 0 -90 39t-33 115l29 9q6 -52 28.5 -75.5t68.5 -23.5zM614 366l-12 -65q-16 -94 -56 -164t-102 -108.5t-143 -38.5q-87 0 -140.5 42.5t-72.5 116.5t-3 166l11 65q17 93 57 163t101.5 108.5
t142.5 38.5q87 0 140.5 -43t73 -116.5t3.5 -164.5zM528 418q20 114 -12.5 177t-118.5 63q-78 0 -127.5 -58.5t-69.5 -171.5l-29 -165q-20 -115 12.5 -178t117.5 -63q79 0 129 59t69 172z" />
    <glyph glyph-name="obreve" unicode="&#x14f;" horiz-adv-x="554" 
d="M342 643q47 0 77.5 23.5t51.5 75.5l29 -9q-27 -82 -66 -118t-95 -36q-60 0 -90 39t-33 115l29 9q6 -52 28.5 -75.5t68.5 -23.5zM492 242l-4 -22q-19 -109 -83 -169.5t-164 -60.5q-70 0 -114.5 35.5t-61.5 95t-4 131.5l4 23q20 109 83 169.5t162 60.5q71 0 116 -35.5
t62 -95.5t4 -132zM406 268q18 102 -9 154t-89 52q-55 0 -94.5 -43.5t-56.5 -142.5l-10 -61q-18 -102 9 -154.5t88 -52.5q56 0 95.5 44t55.5 143z" />
    <glyph glyph-name="Ohungarumlaut" unicode="&#x150;" horiz-adv-x="666" 
d="M350 764l-19 17q23 31 40.5 64.5t33.5 79.5h91q-63 -88 -146 -161zM490 764l-19 17q23 31 40.5 64.5t34.5 79.5h91q-64 -89 -147 -161zM614 366l-12 -65q-16 -94 -56 -164t-102 -108.5t-143 -38.5q-87 0 -140.5 42.5t-72.5 116.5t-3 166l11 65q17 93 57 163t101.5 108.5
t142.5 38.5q87 0 140.5 -43t73 -116.5t3.5 -164.5zM528 418q20 114 -12.5 177t-118.5 63q-78 0 -127.5 -58.5t-69.5 -171.5l-29 -165q-20 -115 12.5 -178t117.5 -63q79 0 129 59t69 172z" />
    <glyph glyph-name="ohungarumlaut" unicode="&#x151;" horiz-adv-x="554" 
d="M259 579l-19 17q23 31 40.5 64.5t33.5 79.5h91q-63 -88 -146 -161zM399 579l-19 17q23 31 40.5 64.5t34.5 79.5h91q-64 -89 -147 -161zM492 242l-4 -22q-19 -109 -83 -169.5t-164 -60.5q-70 0 -114.5 35.5t-61.5 95t-4 131.5l4 23q20 109 83 169.5t162 60.5
q71 0 116 -35.5t62 -95.5t4 -132zM406 268q18 102 -9 154t-89 52q-55 0 -94.5 -43.5t-56.5 -142.5l-10 -61q-18 -102 9 -154.5t88 -52.5q56 0 95.5 44t55.5 143z" />
    <glyph glyph-name="OE" unicode="&#x152;" horiz-adv-x="901" 
d="M96 379q16 91 56 158.5t102.5 105t143.5 37.5h514l-29 -163h-25l-11 105q-1 17 -7.5 21.5t-41.5 4.5h-194l-51 -289h134q24 0 34.5 1.5t15 7t9.5 17.5l30 75h27l-41 -234h-25l-7 75q-1 18 -7.5 22t-41.5 4h-134l-52 -295h204q24 0 34.5 1.5t15 7t9.5 17.5l47 105h26
l-29 -163h-498q-88 0 -142 41.5t-73 113t-4 159.5zM304 32h104l108 616h-116q-79 0 -130 -56.5t-71 -164.5l-28 -165q-19 -110 13.5 -170t119.5 -60z" />
    <glyph glyph-name="oe" unicode="&#x153;" horiz-adv-x="845" 
d="M778 98q-35 -61 -87.5 -84.5t-105.5 -23.5q-57 0 -97 26.5t-60 74.5q-31 -49 -78 -75t-109 -26q-70 0 -114.5 35.5t-61.5 95t-4 131.5l4 23q20 109 83 169.5t162 60.5q60 0 100 -29.5t59 -78.5q32 50 81.5 79t110.5 29q51 0 86 -17t53 -44.5t18 -58.5q0 -50 -35.5 -86
t-98.5 -56.5t-144 -26.5l-53 -4q-13 -95 13.5 -142.5t87.5 -47.5q24 0 52 9t53 31t38 61zM406 268q18 102 -9 154t-89 52q-55 0 -94.5 -43.5t-56.5 -142.5l-10 -61q-18 -102 9 -154.5t88 -52.5q56 0 95.5 44t55.5 143zM500 289l-7 -45l46 3q82 5 126 27t61 53t17 62
q0 39 -23 61.5t-63 22.5q-53 0 -96.5 -43.5t-60.5 -140.5z" />
    <glyph glyph-name="Racute" unicode="&#x154;" horiz-adv-x="625" 
d="M119 653l5 27h271q67 0 109.5 -23.5t60.5 -63.5t9 -91l-5 -30q-11 -64 -51.5 -103.5t-105.5 -53.5l86 -234q9 -24 13.5 -33.5t9.5 -12t15 -3.5l44 -6l-4 -26h-146l-105 308h-102l-40 -227q-6 -34 -4 -40.5t17 -8.5l54 -6l-5 -26h-241l5 26l56 6q17 2 21 8.5t10 40.5
l91 518q6 34 4 40.5t-17 8.5zM397 648h-115l-54 -308h114q51 0 88 33.5t47 94.5l6 38q12 69 -12 105.5t-74 36.5zM394 764l-19 22q29 32 49.5 62.5t39.5 76.5h101q-38 -46 -78.5 -84t-92.5 -77z" />
    <glyph glyph-name="racute" unicode="&#x155;" horiz-adv-x="428" 
d="M332 450q-17 0 -37.5 -11t-43.5 -40t-50 -83l-56 -316h-82l73 414q6 34 4 40.5t-17 8.5l-55 5l5 27h157l-18 -104q39 62 80 88t80 26q32 0 57 -18t35 -59l-70 -47q-8 38 -23.5 53.5t-38.5 15.5zM307 579l-19 22q29 32 49.5 62.5t39.5 76.5h101q-38 -46 -78.5 -84
t-92.5 -77z" />
    <glyph glyph-name="uni0156" unicode="&#x156;" horiz-adv-x="625" 
d="M202 -242l-18 16q23 35 37.5 69t24.5 80h88q-26 -49 -57 -87t-75 -78zM119 653l5 27h271q67 0 109.5 -23.5t60.5 -63.5t9 -91l-5 -30q-11 -64 -51.5 -103.5t-105.5 -53.5l86 -234q9 -24 13.5 -33.5t9.5 -12t15 -3.5l44 -6l-4 -26h-146l-105 308h-102l-40 -227
q-6 -34 -4 -40.5t17 -8.5l54 -6l-5 -26h-241l5 26l56 6q17 2 21 8.5t10 40.5l91 518q6 34 4 40.5t-17 8.5zM397 648h-115l-54 -308h114q51 0 88 33.5t47 94.5l6 38q12 69 -12 105.5t-74 36.5z" />
    <glyph glyph-name="uni0157" unicode="&#x157;" horiz-adv-x="428" 
d="M4 -242l-18 16q23 35 37.5 69t24.5 80h88q-26 -49 -57 -87t-75 -78zM332 450q-17 0 -37.5 -11t-43.5 -40t-50 -83l-56 -316h-82l73 414q6 34 4 40.5t-17 8.5l-55 5l5 27h157l-18 -104q39 62 80 88t80 26q32 0 57 -18t35 -59l-70 -47q-8 38 -23.5 53.5t-38.5 15.5z" />
    <glyph glyph-name="Rcaron" unicode="&#x158;" horiz-adv-x="625" 
d="M551 908q-28 -26 -47 -45.5t-36 -40.5t-39 -53h-66q-10 32 -19.5 53.5t-22 41.5t-31.5 46l18 19q29 -25 53.5 -49.5t43.5 -49.5q29 25 60.5 49.5t68.5 49.5zM119 653l5 27h271q67 0 109.5 -23.5t60.5 -63.5t9 -91l-5 -30q-11 -64 -51.5 -103.5t-105.5 -53.5l86 -234
q9 -24 13.5 -33.5t9.5 -12t15 -3.5l44 -6l-4 -26h-146l-105 308h-102l-40 -227q-6 -34 -4 -40.5t17 -8.5l54 -6l-5 -26h-241l5 26l56 6q17 2 21 8.5t10 40.5l91 518q6 34 4 40.5t-17 8.5zM397 648h-115l-54 -308h114q51 0 88 33.5t47 94.5l6 38q12 69 -12 105.5t-74 36.5z
" />
    <glyph glyph-name="rcaron" unicode="&#x159;" horiz-adv-x="428" 
d="M466 723q-28 -26 -47 -45.5t-36 -40.5t-39 -53h-66q-10 32 -19.5 53.5t-22 41.5t-31.5 46l18 19q29 -25 53.5 -49.5t43.5 -49.5q29 25 60.5 49.5t68.5 49.5zM332 450q-17 0 -37.5 -11t-43.5 -40t-50 -83l-56 -316h-82l73 414q6 34 4 40.5t-17 8.5l-55 5l5 27h157
l-18 -104q39 62 80 88t80 26q32 0 57 -18t35 -59l-70 -47q-8 38 -23.5 53.5t-38.5 15.5z" />
    <glyph glyph-name="Sacute" unicode="&#x15a;" horiz-adv-x="548" 
d="M239 -10q-53 0 -100 16t-76.5 56t-30.5 110l63 20q-3 -67 16 -104t53 -51.5t76 -14.5q82 0 124.5 37.5t42.5 101.5q0 46 -24.5 76t-83.5 54l-74 29q-60 24 -92.5 67t-32.5 107q0 53 24.5 97.5t74.5 71.5t126 27q62 0 103.5 -18.5t64.5 -49t28 -67t-7 -72.5l-87 -18
q28 91 2 142t-108 51q-65 0 -104 -33.5t-39 -100.5q0 -45 22.5 -75.5t80.5 -53.5l74 -30q63 -25 97 -65.5t34 -102.5q0 -53 -26.5 -100.5t-81.5 -77t-139 -29.5zM351 764l-19 22q29 32 49.5 62.5t39.5 76.5h101q-38 -46 -78.5 -84t-92.5 -77z" />
    <glyph glyph-name="sacute" unicode="&#x15b;" horiz-adv-x="458" 
d="M193 -10q-44 0 -82 12t-61.5 39.5t-26.5 72.5l58 20q-1 -65 31 -89t80 -24q56 0 91.5 24.5t35.5 69.5q0 30 -19.5 52.5t-67.5 37.5l-58 19q-48 15 -74.5 48t-26.5 79q0 37 18.5 72t58.5 58.5t106 23.5q65 0 103.5 -23t51 -59t-1.5 -77l-82 -16q25 69 4 106t-80 37
q-48 0 -77 -24.5t-29 -66.5q0 -35 19.5 -55.5t54.5 -31.5l58 -19q52 -16 82.5 -50t30.5 -85q0 -38 -20.5 -73t-64 -56.5t-112.5 -21.5zM271 579l-19 22q29 32 49.5 62.5t39.5 76.5h101q-38 -46 -78.5 -84t-92.5 -77z" />
    <glyph glyph-name="Scircumflex" unicode="&#x15c;" horiz-adv-x="548" 
d="M486 783l-18 -19q-29 26 -53 50.5t-44 48.5q-28 -24 -60 -48.5t-69 -50.5l-17 21q29 27 47.5 46t35.5 40.5t39 53.5h66q11 -32 20 -54t21.5 -41.5t31.5 -46.5zM239 -10q-53 0 -100 16t-76.5 56t-30.5 110l63 20q-3 -67 16 -104t53 -51.5t76 -14.5q82 0 124.5 37.5
t42.5 101.5q0 46 -24.5 76t-83.5 54l-74 29q-60 24 -92.5 67t-32.5 107q0 53 24.5 97.5t74.5 71.5t126 27q62 0 103.5 -18.5t64.5 -49t28 -67t-7 -72.5l-87 -18q28 91 2 142t-108 51q-65 0 -104 -33.5t-39 -100.5q0 -45 22.5 -75.5t80.5 -53.5l74 -30q63 -25 97 -65.5
t34 -102.5q0 -53 -26.5 -100.5t-81.5 -77t-139 -29.5z" />
    <glyph glyph-name="scircumflex" unicode="&#x15d;" horiz-adv-x="458" 
d="M406 598l-18 -19q-29 26 -53 50.5t-44 48.5q-28 -24 -60 -48.5t-69 -50.5l-17 21q29 27 47.5 46t35.5 40.5t39 53.5h66q11 -32 20 -54t21.5 -41.5t31.5 -46.5zM193 -10q-44 0 -82 12t-61.5 39.5t-26.5 72.5l58 20q-1 -65 31 -89t80 -24q56 0 91.5 24.5t35.5 69.5
q0 30 -19.5 52.5t-67.5 37.5l-58 19q-48 15 -74.5 48t-26.5 79q0 37 18.5 72t58.5 58.5t106 23.5q65 0 103.5 -23t51 -59t-1.5 -77l-82 -16q25 69 4 106t-80 37q-48 0 -77 -24.5t-29 -66.5q0 -35 19.5 -55.5t54.5 -31.5l58 -19q52 -16 82.5 -50t30.5 -85q0 -38 -20.5 -73
t-64 -56.5t-112.5 -21.5z" />
    <glyph glyph-name="Scedilla" unicode="&#x15e;" horiz-adv-x="548" 
d="M301 -133q0 -40 -34.5 -65t-84.5 -25q-40 0 -70 18t-31 60l51 14q-2 -35 9.5 -49.5t35.5 -14.5q27 0 43 19t16 45q0 22 -10 33.5t-39 11.5q-5 0 -12 -1t-12 -2l-5 26l33 56q-43 6 -78.5 25.5t-57.5 57t-23 96.5l63 20q-3 -67 16 -104t53 -51.5t76 -14.5q82 0 124.5 37.5
t42.5 101.5q0 46 -24.5 76t-83.5 54l-74 29q-60 24 -92.5 67t-32.5 107q0 53 24.5 97.5t74.5 71.5t126 27q62 0 103.5 -18.5t64.5 -49t28 -67t-7 -72.5l-87 -18q28 91 2 142t-108 51q-65 0 -104 -33.5t-39 -100.5q0 -45 22.5 -75.5t80.5 -53.5l74 -30q63 -25 97 -65.5
t34 -102.5q0 -53 -26.5 -100.5t-81.5 -77t-139 -29.5h-15l-28 -48q50 0 77.5 -21t27.5 -54z" />
    <glyph glyph-name="scedilla" unicode="&#x15f;" horiz-adv-x="458" 
d="M274 -133q0 -40 -34.5 -65t-84.5 -25q-40 0 -70 18t-31 60l51 14q-2 -35 9.5 -49.5t35.5 -14.5q27 0 43 19t16 45q0 22 -10 33.5t-39 11.5q-5 0 -12 -1t-12 -2l-5 26l32 54q-56 5 -96 33.5t-44 89.5l58 20q-1 -65 31 -89t80 -24q56 0 91.5 24.5t35.5 69.5
q0 30 -19.5 52.5t-67.5 37.5l-58 19q-48 15 -74.5 48t-26.5 79q0 37 18.5 72t58.5 58.5t106 23.5q65 0 103.5 -23t51 -59t-1.5 -77l-82 -16q25 69 4 106t-80 37q-48 0 -77 -24.5t-29 -66.5q0 -35 19.5 -55.5t54.5 -31.5l58 -19q52 -16 82.5 -50t30.5 -85q0 -38 -20.5 -73
t-63 -56.5t-109.5 -21.5l-28 -48q50 0 77.5 -21t27.5 -54z" />
    <glyph glyph-name="Scaron" unicode="&#x160;" horiz-adv-x="548" 
d="M508 908q-28 -26 -47 -45.5t-36 -40.5t-39 -53h-66q-10 32 -19.5 53.5t-22 41.5t-31.5 46l18 19q29 -25 53.5 -49.5t43.5 -49.5q29 25 60.5 49.5t68.5 49.5zM239 -10q-53 0 -100 16t-76.5 56t-30.5 110l63 20q-3 -67 16 -104t53 -51.5t76 -14.5q82 0 124.5 37.5
t42.5 101.5q0 46 -24.5 76t-83.5 54l-74 29q-60 24 -92.5 67t-32.5 107q0 53 24.5 97.5t74.5 71.5t126 27q62 0 103.5 -18.5t64.5 -49t28 -67t-7 -72.5l-87 -18q28 91 2 142t-108 51q-65 0 -104 -33.5t-39 -100.5q0 -45 22.5 -75.5t80.5 -53.5l74 -30q63 -25 97 -65.5
t34 -102.5q0 -53 -26.5 -100.5t-81.5 -77t-139 -29.5z" />
    <glyph glyph-name="scaron" unicode="&#x161;" horiz-adv-x="458" 
d="M428 723q-28 -26 -47 -45.5t-36 -40.5t-39 -53h-66q-10 32 -19.5 53.5t-22 41.5t-31.5 46l18 19q29 -25 53.5 -49.5t43.5 -49.5q29 25 60.5 49.5t68.5 49.5zM193 -10q-44 0 -82 12t-61.5 39.5t-26.5 72.5l58 20q-1 -65 31 -89t80 -24q56 0 91.5 24.5t35.5 69.5
q0 30 -19.5 52.5t-67.5 37.5l-58 19q-48 15 -74.5 48t-26.5 79q0 37 18.5 72t58.5 58.5t106 23.5q65 0 103.5 -23t51 -59t-1.5 -77l-82 -16q25 69 4 106t-80 37q-48 0 -77 -24.5t-29 -66.5q0 -35 19.5 -55.5t54.5 -31.5l58 -19q52 -16 82.5 -50t30.5 -85q0 -38 -20.5 -73
t-64 -56.5t-112.5 -21.5z" />
    <glyph glyph-name="uni0162" unicode="&#x162;" horiz-adv-x="559" 
d="M133 -242l-18 16q23 35 37.5 69t24.5 80h88q-26 -49 -57 -87t-75 -78zM60 517l29 163h532l-28 -163h-27l-10 105q-1 18 -7.5 22t-41.5 4h-114l-100 -567q-6 -35 -4 -41t17 -8l54 -6l-4 -26h-241l4 26l56 6q11 1 16 3.5t8 12t7 33.5l100 567h-114q-23 0 -33.5 -1.5t-15 -7
t-9.5 -17.5l-48 -105h-26z" />
    <glyph glyph-name="uni0163" unicode="&#x163;" horiz-adv-x="362" 
d="M80 -242l-18 16q23 35 37.5 69t24.5 80h88q-26 -49 -57 -87t-75 -78zM334 102q-27 -64 -62.5 -88t-75.5 -24q-76 0 -102 49t-13 126l43 250q6 33 4 39.5t-18 8.5l-54 5l5 27h77l23 131l85 17l-26 -148h163l-6 -32h-163l-56 -318q-13 -71 0.5 -97t40.5 -26t47.5 21.5
t38.5 77.5z" />
    <glyph glyph-name="Tcaron" unicode="&#x164;" horiz-adv-x="559" 
d="M524 908q-28 -26 -47 -45.5t-36 -40.5t-39 -53h-66q-10 32 -19.5 53.5t-22 41.5t-31.5 46l18 19q29 -25 53.5 -49.5t43.5 -49.5q29 25 60.5 49.5t68.5 49.5zM60 517l29 163h532l-28 -163h-27l-10 105q-1 18 -7.5 22t-41.5 4h-114l-100 -567q-6 -35 -4 -41t17 -8l54 -6
l-4 -26h-241l4 26l56 6q11 1 16 3.5t8 12t7 33.5l100 567h-114q-23 0 -33.5 -1.5t-15 -7t-9.5 -17.5l-48 -105h-26z" />
    <glyph glyph-name="tcaron" unicode="&#x165;" horiz-adv-x="362" 
d="M321 556h-21l37 214h82q-22 -54 -45.5 -106t-52.5 -108zM334 102q-27 -64 -62.5 -88t-75.5 -24q-76 0 -102 49t-13 126l43 250q6 33 4 39.5t-18 8.5l-54 5l5 27h77l23 131l85 17l-26 -148h163l-6 -32h-163l-56 -318q-13 -71 0.5 -97t40.5 -26t47.5 21.5t38.5 77.5z" />
    <glyph glyph-name="Tbar" unicode="&#x166;" horiz-adv-x="559" 
d="M360 26l-4 -26h-241l4 26l56 6q11 1 16 3.5t8 12t7 33.5l43 242h-144l5 32h144l52 293h-114q-23 0 -33.5 -1.5t-15 -7t-9.5 -17.5l-48 -105h-26l29 163h532l-28 -163h-27l-10 105q-1 18 -7.5 22t-41.5 4h-114l-52 -293h144l-5 -32h-144l-43 -242q-6 -35 -4 -41t17 -8z
" />
    <glyph glyph-name="tbar" unicode="&#x167;" horiz-adv-x="370" 
d="M341 102q-27 -64 -62.5 -88t-75.5 -24q-76 0 -102 49t-13 126l19 109h-77l5 32h77l19 109q6 33 4 39.5t-18 8.5l-54 5l5 27h77l23 131l85 17l-26 -148h163l-6 -32h-163l-28 -157h135l-5 -32h-135l-23 -129q-13 -71 0.5 -97t40.5 -26t47.5 21.5t38.5 77.5z" />
    <glyph glyph-name="Utilde" unicode="&#x168;" horiz-adv-x="677" 
d="M526 774q-25 0 -43 13.5t-32.5 31t-28.5 31t-31 13.5t-32 -18.5t-25 -59.5h-31q14 74 40 106.5t59 32.5q26 0 43.5 -13.5t31.5 -31t27.5 -31t30.5 -13.5t31.5 19t24.5 59h32q-14 -75 -39.5 -107t-57.5 -32zM524 653l5 27h191l-5 -27l-55 -5q-15 -2 -20 -8.5t-11 -40.5
l-65 -369q-19 -112 -80 -176t-169 -64q-118 0 -172 69t-33 187l62 353q6 34 4 40.5t-17 8.5l-55 5l5 27h241l-5 -27l-55 -5q-15 -2 -20 -8.5t-11 -40.5l-65 -369q-19 -106 12 -157t114 -51q86 0 137.5 53.5t69.5 154.5l65 369q6 34 4 40.5t-17 8.5z" />
    <glyph glyph-name="utilde" unicode="&#x169;" horiz-adv-x="605" 
d="M424 589q-25 0 -43 13.5t-32.5 31t-28.5 31t-31 13.5t-32 -18.5t-25 -59.5h-31q14 74 40 106.5t59 32.5q26 0 43.5 -13.5t31.5 -31t27.5 -31t30.5 -13.5t31.5 19t24.5 59h32q-14 -75 -39.5 -107t-57.5 -32zM468 -5q-40 0 -62.5 27t-19.5 83q-43 -61 -90 -88t-96 -27
q-70 0 -100.5 48.5t-16.5 131.5l43 244q6 34 4 40.5t-17 8.5l-55 5l5 27h160l-57 -324q-13 -76 2 -110t50 -34q24 0 52.5 13t60 46t65.5 92l56 317h82l-60 -345q-13 -74 -10 -98t19 -24q15 0 32.5 17.5t30.5 59.5l36 -22q-22 -46 -51.5 -67t-62.5 -21z" />
    <glyph glyph-name="Umacron" unicode="&#x16a;" horiz-adv-x="677" 
d="M524 653l5 27h191l-5 -27l-55 -5q-15 -2 -20 -8.5t-11 -40.5l-65 -369q-19 -112 -80 -176t-169 -64q-118 0 -172 69t-33 187l62 353q6 34 4 40.5t-17 8.5l-55 5l5 27h241l-5 -27l-55 -5q-15 -2 -20 -8.5t-11 -40.5l-65 -369q-19 -106 12 -157t114 -51q86 0 137.5 53.5
t69.5 154.5l65 369q6 34 4 40.5t-17 8.5zM607 851l-8 -47h-287l8 47h287z" />
    <glyph glyph-name="umacron" unicode="&#x16b;" horiz-adv-x="605" 
d="M468 -5q-40 0 -62.5 27t-19.5 83q-43 -61 -90 -88t-96 -27q-70 0 -100.5 48.5t-16.5 131.5l43 244q6 34 4 40.5t-17 8.5l-55 5l5 27h160l-57 -324q-13 -76 2 -110t50 -34q24 0 52.5 13t60 46t65.5 92l56 317h82l-60 -345q-13 -74 -10 -98t19 -24q15 0 32.5 17.5
t30.5 59.5l36 -22q-22 -46 -51.5 -67t-62.5 -21zM504 666l-8 -47h-287l8 47h287z" />
    <glyph glyph-name="Ubreve" unicode="&#x16c;" horiz-adv-x="677" 
d="M459 828q47 0 77.5 23.5t51.5 75.5l29 -9q-27 -82 -66 -118t-95 -36q-60 0 -90 39t-33 115l29 9q6 -52 28.5 -75.5t68.5 -23.5zM524 653l5 27h191l-5 -27l-55 -5q-15 -2 -20 -8.5t-11 -40.5l-65 -369q-19 -112 -80 -176t-169 -64q-118 0 -172 69t-33 187l62 353
q6 34 4 40.5t-17 8.5l-55 5l5 27h241l-5 -27l-55 -5q-15 -2 -20 -8.5t-11 -40.5l-65 -369q-19 -106 12 -157t114 -51q86 0 137.5 53.5t69.5 154.5l65 369q6 34 4 40.5t-17 8.5z" />
    <glyph glyph-name="ubreve" unicode="&#x16d;" horiz-adv-x="605" 
d="M356 643q47 0 77.5 23.5t51.5 75.5l29 -9q-27 -82 -66 -118t-95 -36q-60 0 -90 39t-33 115l29 9q6 -52 28.5 -75.5t68.5 -23.5zM468 -5q-40 0 -62.5 27t-19.5 83q-43 -61 -90 -88t-96 -27q-70 0 -100.5 48.5t-16.5 131.5l43 244q6 34 4 40.5t-17 8.5l-55 5l5 27h160
l-57 -324q-13 -76 2 -110t50 -34q24 0 52.5 13t60 46t65.5 92l56 317h82l-60 -345q-13 -74 -10 -98t19 -24q15 0 32.5 17.5t30.5 59.5l36 -22q-22 -46 -51.5 -67t-62.5 -21z" />
    <glyph glyph-name="Uring" unicode="&#x16e;" horiz-adv-x="677" 
d="M476 974q41 0 67 -17t36.5 -43.5t5.5 -55.5l-2 -11q-7 -41 -41 -71t-88 -30q-40 0 -65.5 17t-36.5 44t-6 56l2 11q8 42 41.5 71t86.5 29zM452 772q58 0 70 75l5 25q6 37 -7 57t-42 20q-56 0 -70 -76l-4 -25q-7 -36 6.5 -56t41.5 -20zM524 653l5 27h191l-5 -27l-55 -5
q-15 -2 -20 -8.5t-11 -40.5l-65 -369q-19 -112 -80 -176t-169 -64q-118 0 -172 69t-33 187l62 353q6 34 4 40.5t-17 8.5l-55 5l5 27h241l-5 -27l-55 -5q-15 -2 -20 -8.5t-11 -40.5l-65 -369q-19 -106 12 -157t114 -51q86 0 137.5 53.5t69.5 154.5l65 369q6 34 4 40.5
t-17 8.5z" />
    <glyph glyph-name="uring" unicode="&#x16f;" horiz-adv-x="605" 
d="M373 789q41 0 67 -17t36.5 -43.5t5.5 -55.5l-2 -11q-7 -41 -41 -71t-88 -30q-40 0 -65.5 17t-36.5 44t-6 56l2 11q8 42 41.5 71t86.5 29zM349 587q58 0 70 75l5 25q6 37 -7 57t-42 20q-56 0 -70 -76l-4 -25q-7 -36 6.5 -56t41.5 -20zM468 -5q-40 0 -62.5 27t-19.5 83
q-43 -61 -90 -88t-96 -27q-70 0 -100.5 48.5t-16.5 131.5l43 244q6 34 4 40.5t-17 8.5l-55 5l5 27h160l-57 -324q-13 -76 2 -110t50 -34q24 0 52.5 13t60 46t65.5 92l56 317h82l-60 -345q-13 -74 -10 -98t19 -24q15 0 32.5 17.5t30.5 59.5l36 -22q-22 -46 -51.5 -67
t-62.5 -21z" />
    <glyph glyph-name="Uhungarumlaut" unicode="&#x170;" horiz-adv-x="677" 
d="M376 764l-19 17q23 31 40.5 64.5t33.5 79.5h91q-63 -88 -146 -161zM516 764l-19 17q23 31 40.5 64.5t34.5 79.5h91q-64 -89 -147 -161zM524 653l5 27h191l-5 -27l-55 -5q-15 -2 -20 -8.5t-11 -40.5l-65 -369q-19 -112 -80 -176t-169 -64q-118 0 -172 69t-33 187l62 353
q6 34 4 40.5t-17 8.5l-55 5l5 27h241l-5 -27l-55 -5q-15 -2 -20 -8.5t-11 -40.5l-65 -369q-19 -106 12 -157t114 -51q86 0 137.5 53.5t69.5 154.5l65 369q6 34 4 40.5t-17 8.5z" />
    <glyph glyph-name="uhungarumlaut" unicode="&#x171;" horiz-adv-x="605" 
d="M273 579l-19 17q23 31 40.5 64.5t33.5 79.5h91q-63 -88 -146 -161zM413 579l-19 17q23 31 40.5 64.5t34.5 79.5h91q-64 -89 -147 -161zM468 -5q-40 0 -62.5 27t-19.5 83q-43 -61 -90 -88t-96 -27q-70 0 -100.5 48.5t-16.5 131.5l43 244q6 34 4 40.5t-17 8.5l-55 5l5 27
h160l-57 -324q-13 -76 2 -110t50 -34q24 0 52.5 13t60 46t65.5 92l56 317h82l-60 -345q-13 -74 -10 -98t19 -24q15 0 32.5 17.5t30.5 59.5l36 -22q-22 -46 -51.5 -67t-62.5 -21z" />
    <glyph glyph-name="Uogonek" unicode="&#x172;" horiz-adv-x="677" 
d="M474 -125q-25 -54 -59.5 -76t-74.5 -22q-45 0 -74.5 21.5t-29.5 63.5q0 34 18 57t46 40.5t59 33.5q-21 -3 -44 -3q-118 0 -172 69t-33 187l62 353q6 34 4 40.5t-17 8.5l-55 5l5 27h241l-5 -27l-55 -5q-15 -2 -20 -8.5t-11 -40.5l-65 -369q-19 -106 12 -157t114 -51
q86 0 137.5 53.5t69.5 154.5l65 369q6 34 4 40.5t-17 8.5l-55 5l5 27h191l-5 -27l-55 -5q-15 -2 -20 -8.5t-11 -40.5l-65 -369q-10 -61 -33 -108t-59 -79q-28 -24 -58 -43t-56 -38t-42 -43.5t-16 -59.5q0 -52 41 -52q23 0 45 18t38 63z" />
    <glyph glyph-name="uogonek" unicode="&#x173;" horiz-adv-x="605" 
d="M58 468l5 27h160l-57 -324q-13 -76 2 -110t50 -34q24 0 52.5 13t60 46t65.5 92l56 317h82l-60 -345q-13 -74 -10 -98t19 -24q15 0 32.5 17.5t30.5 59.5l36 -22q-17 -37 -43.5 -60t-56 -39.5t-55 -32.5t-42 -38t-16.5 -56q0 -50 41 -50q24 0 45.5 18t37.5 63l50 -13
q-25 -54 -60 -76t-76 -22q-43 0 -72.5 21t-29.5 60q0 37 23.5 62t57 43.5t64.5 32.5q-32 6 -49 33t-15 76q-43 -61 -90 -88t-96 -27q-70 0 -100.5 48.5t-16.5 131.5l43 244q6 35 4 41t-17 8z" />
    <glyph glyph-name="Wcircumflex" unicode="&#x174;" horiz-adv-x="921" 
d="M696 783l-18 -19q-29 26 -53 50.5t-44 48.5q-28 -24 -60 -48.5t-69 -50.5l-17 21q29 27 47.5 46t35.5 40.5t39 53.5h66q11 -32 20 -54t21.5 -41.5t31.5 -46.5zM586 0l-69 573l-269 -573h-65l-40 605q-1 29 -4.5 35t-18.5 8l-51 5l5 27h230l-5 -27l-52 -5
q-16 -2 -18.5 -7.5t-1.5 -35.5l32 -500l268 575h62l70 -571l206 496q12 30 11 36t-16 7l-51 5l5 27h186l-5 -27l-52 -5q-10 -1 -15.5 -3.5t-10 -11t-13.5 -28.5l-253 -605h-65z" />
    <glyph glyph-name="wcircumflex" unicode="&#x175;" horiz-adv-x="803" 
d="M605 598l-18 -19q-29 26 -53 50.5t-44 48.5q-28 -24 -60 -48.5t-69 -50.5l-17 21q29 27 47.5 46t35.5 40.5t39 53.5h66q11 -32 20 -54t21.5 -41.5t31.5 -46.5zM769 505q-9 -153 -38.5 -253t-70.5 -157.5t-86.5 -81t-86.5 -23.5q-52 0 -82 29t-38 83q-39 -62 -84 -87
t-86 -25q-77 0 -104 57.5t-9 154.5l38 212q6 34 4 40.5t-18 8.5l-55 5l5 27h160l-52 -292q-16 -93 -6.5 -134.5t52.5 -41.5q41 0 82 35.5t72 108.5q1 22 6 50l48 274h82l-47 -273q-18 -105 -7 -150t57 -45q42 0 82.5 37.5t67.5 114t27 193.5q0 24 -1 49.5t-4 53.5z" />
    <glyph glyph-name="Ycircumflex" unicode="&#x176;" horiz-adv-x="588" 
d="M528 783l-18 -19q-29 26 -53 50.5t-44 48.5q-28 -24 -60 -48.5t-69 -50.5l-17 21q29 27 47.5 46t35.5 40.5t39 53.5h66q11 -32 20 -54t21.5 -41.5t31.5 -46.5zM376 26l-5 -26h-241l5 26l56 6q11 1 16 3.5t9 13.5l42 243l-105 313q-10 30 -15.5 35.5t-19.5 7.5l-51 5l5 27
h239l-5 -27l-52 -5q-16 -2 -17.5 -8t8.5 -35l88 -273l187 273q20 29 20 35.5t-14 7.5l-51 5l5 27h188l-5 -27l-52 -5q-11 -1 -17 -3.5t-12.5 -11t-20.5 -28.5l-216 -314l-37 -212l1 2q-6 -35 -4 -41t17 -8z" />
    <glyph glyph-name="ycircumflex" unicode="&#x177;" horiz-adv-x="585" 
d="M481 598l-18 -19q-29 26 -53 50.5t-44 48.5q-28 -24 -60 -48.5t-69 -50.5l-17 21q29 27 47.5 46t35.5 40.5t39 53.5h66q11 -32 20 -54t21.5 -41.5t31.5 -46.5zM448 9q-10 -61 -39.5 -114t-82 -85.5t-131.5 -32.5q-78 0 -116 42t-32 109l57 12q-8 -72 18 -102.5t73 -30.5
q62 0 106.5 42.5t63.5 149.5l18 102q-43 -59 -89.5 -85t-93.5 -26q-70 0 -100.5 48.5t-16.5 131.5l43 244q6 34 4 40.5t-17 8.5l-55 5l5 27h160l-57 -324q-13 -76 2 -110t50 -34q36 0 81.5 31.5t96.5 119.5l56 317h82z" />
    <glyph glyph-name="Ydieresis" unicode="&#x178;" horiz-adv-x="588" 
d="M376 26l-5 -26h-241l5 26l56 6q11 1 16 3.5t9 13.5l42 243l-105 313q-10 30 -15.5 35.5t-19.5 7.5l-51 5l5 27h239l-5 -27l-52 -5q-16 -2 -17.5 -8t8.5 -35l88 -273l187 273q20 29 20 35.5t-14 7.5l-51 5l5 27h188l-5 -27l-52 -5q-11 -1 -17 -3.5t-12.5 -11t-20.5 -28.5
l-216 -314l-37 -212l1 2q-6 -35 -4 -41t17 -8zM302 796q-21 0 -33.5 12.5t-12.5 32.5q0 23 16 40t41 17q22 0 34 -12t12 -32q0 -23 -15.5 -40.5t-41.5 -17.5zM504 796q-20 0 -33 12.5t-13 32.5q0 23 16 40t41 17q22 0 34.5 -12t12.5 -32q0 -23 -15.5 -40.5t-42.5 -17.5z" />
    <glyph glyph-name="Zacute" unicode="&#x179;" horiz-adv-x="531" 
d="M476 163l-28 -163h-452l4 22l447 626h-215q-23 0 -34 -1.5t-15.5 -7t-9.5 -17.5l-48 -105h-26l29 163h430l-5 -22l-447 -626h238q24 0 34 1.5t15 7t10 17.5l47 105h26zM345 764l-19 22q29 32 49.5 62.5t39.5 76.5h101q-38 -46 -78.5 -84t-92.5 -77z" />
    <glyph glyph-name="zacute" unicode="&#x17a;" horiz-adv-x="457" 
d="M413 140q-10 -65 -39 -107.5t-82 -42.5q-35 0 -65.5 15.5t-58 31t-54.5 15.5q-19 0 -39.5 -11.5t-45.5 -40.5l-25 23l350 406h-165q-35 0 -43.5 -3t-15.5 -19l-35 -78h-26l29 166h342l-5 -25l-326 -378q16 9 28.5 12.5t25.5 3.5q28 0 51.5 -13.5t47.5 -27t51 -13.5
q32 0 47.5 24t25.5 69zM283 579l-19 22q29 32 49.5 62.5t39.5 76.5h101q-38 -46 -78.5 -84t-92.5 -77z" />
    <glyph glyph-name="Zdotaccent" unicode="&#x17b;" horiz-adv-x="531" 
d="M355 793q-22 0 -35.5 13t-13.5 35q0 25 16.5 42.5t43.5 17.5q23 0 36.5 -12.5t13.5 -34.5q0 -25 -16.5 -43t-44.5 -18zM476 163l-28 -163h-452l4 22l447 626h-215q-23 0 -34 -1.5t-15.5 -7t-9.5 -17.5l-48 -105h-26l29 163h430l-5 -22l-447 -626h238q24 0 34 1.5t15 7
t10 17.5l47 105h26z" />
    <glyph glyph-name="zdotaccent" unicode="&#x17c;" horiz-adv-x="457" 
d="M293 608q-22 0 -35.5 13t-13.5 35q0 25 16.5 42.5t43.5 17.5q23 0 36.5 -12.5t13.5 -34.5q0 -25 -16.5 -43t-44.5 -18zM413 140q-10 -65 -39 -107.5t-82 -42.5q-35 0 -65.5 15.5t-58 31t-54.5 15.5q-19 0 -39.5 -11.5t-45.5 -40.5l-25 23l350 406h-165q-35 0 -43.5 -3
t-15.5 -19l-35 -78h-26l29 166h342l-5 -25l-326 -378q16 9 28.5 12.5t25.5 3.5q28 0 51.5 -13.5t47.5 -27t51 -13.5q32 0 47.5 24t25.5 69z" />
    <glyph glyph-name="Zcaron" unicode="&#x17d;" horiz-adv-x="531" 
d="M502 908q-28 -26 -47 -45.5t-36 -40.5t-39 -53h-66q-10 32 -19.5 53.5t-22 41.5t-31.5 46l18 19q29 -25 53.5 -49.5t43.5 -49.5q29 25 60.5 49.5t68.5 49.5zM476 163l-28 -163h-452l4 22l447 626h-215q-23 0 -34 -1.5t-15.5 -7t-9.5 -17.5l-48 -105h-26l29 163h430
l-5 -22l-447 -626h238q24 0 34 1.5t15 7t10 17.5l47 105h26z" />
    <glyph glyph-name="zcaron" unicode="&#x17e;" horiz-adv-x="457" 
d="M440 723q-28 -26 -47 -45.5t-36 -40.5t-39 -53h-66q-10 32 -19.5 53.5t-22 41.5t-31.5 46l18 19q29 -25 53.5 -49.5t43.5 -49.5q29 25 60.5 49.5t68.5 49.5zM413 140q-10 -65 -39 -107.5t-82 -42.5q-35 0 -65.5 15.5t-58 31t-54.5 15.5q-19 0 -39.5 -11.5t-45.5 -40.5
l-25 23l350 406h-165q-35 0 -43.5 -3t-15.5 -19l-35 -78h-26l29 166h342l-5 -25l-326 -378q16 9 28.5 12.5t25.5 3.5q28 0 51.5 -13.5t47.5 -27t51 -13.5q32 0 47.5 24t25.5 69z" />
    <glyph glyph-name="longs" unicode="&#x17f;" horiz-adv-x="283" 
d="M-64 -240q-34 0 -62 10v74q29 -11 55 -11q65 0 87 114l135 640q20 95 60.5 136.5t121.5 41.5q26 0 52 -6t43 -13l-23 -67q-36 14 -66 14q-43 0 -65.5 -24.5t-33.5 -81.5l-137 -650q-20 -92 -60.5 -134.5t-106.5 -42.5z" />
    <glyph glyph-name="uni0180" unicode="&#x180;" horiz-adv-x="579" 
d="M269 -10q-46 0 -82.5 24t-54.5 68h-5l-33 -82h-66l128 605h-70l14 66h70l19 89h88l-19 -89h196l-14 -66h-196q-18 -81 -28.5 -122.5t-13.5 -46.5h4q50 61 91.5 85t85.5 24q69 0 108 -47.5t39 -134.5q0 -101 -33.5 -188t-93 -136t-134.5 -49zM355 472q-46 0 -93.5 -46
t-74.5 -115.5t-27 -139.5q0 -51 26 -79.5t76 -28.5q48 0 89 40t65 111t24 150q0 108 -85 108z" />
    <glyph glyph-name="uni0181" unicode="&#x181;" horiz-adv-x="669" 
d="M453 714q105 0 158.5 -41.5t53.5 -122.5q0 -70 -42.5 -117t-118.5 -61v-5q55 -15 85 -52.5t30 -92.5q0 -103 -73 -162.5t-201 -59.5h-228l134 637h-18q-76 0 -76 -72q0 -18 5 -32h-75q-7 14 -7 38q0 69 42.5 106t118.5 37h212zM222 76h126q85 0 131 38t46 108
q0 55 -35 84.5t-101 29.5h-112zM293 410h117q74 0 118 34t44 95q0 47 -30 72.5t-100 25.5h-101z" />
    <glyph glyph-name="uni0182" unicode="&#x182;" horiz-adv-x="566" 
d="M289 412q217 0 217 -177q0 -112 -73 -173.5t-209 -61.5h-182l151 714h361l-17 -79h-271l-47 -223h70zM237 76q177 0 177 152q0 55 -30 81t-95 26h-86l-56 -259h90z" />
    <glyph glyph-name="uni0183" unicode="&#x183;" horiz-adv-x="579" 
d="M269 -10q-46 0 -82.5 24t-54.5 68h-5l-33 -82h-66l161 760h390l-16 -74h-302l-22 -106q-9 -43 -21 -90t-16 -54h4q50 61 91.5 85t85.5 24q69 0 108 -47.5t39 -134.5q0 -101 -33.5 -188t-93 -136t-134.5 -49zM355 472q-46 0 -93.5 -46t-74.5 -115.5t-27 -139.5
q0 -51 26 -79.5t76 -28.5q48 0 89 40t65 111t24 150q0 108 -85 108z" />
    <glyph glyph-name="uni0184" unicode="&#x184;" horiz-adv-x="594" 
d="M158 156q0 -46 29.5 -67.5t88.5 -21.5q79 0 124 42.5t45 117.5q0 108 -151 108h-102l-27 -125q-7 -35 -7 -54zM183 714h89l-64 -302h103q107 0 166 -47t59 -134q0 -110 -71 -175.5t-190 -65.5q-102 0 -154 41t-52 119q0 31 7 60z" />
    <glyph glyph-name="uni0185" unicode="&#x185;" horiz-adv-x="573" 
d="M252 -10q-88 0 -137 48.5t-49 138.5q0 35 12 90l105 493h88l-39 -185q-24 -104 -36 -139h4q48 59 90 84t83 25q74 0 112.5 -47.5t38.5 -139.5q0 -99 -34 -187t-95.5 -134.5t-142.5 -46.5zM154 178q0 -115 99 -115q51 0 91.5 39t65 111.5t24.5 147.5q0 56 -20.5 83.5
t-64.5 27.5q-36 0 -74.5 -29.5t-68 -79t-41 -102t-11.5 -83.5z" />
    <glyph glyph-name="uni0186" unicode="&#x186;" horiz-adv-x="586" 
d="M170 69q86 0 151.5 48.5t102.5 138.5t37 193q0 91 -47 143.5t-128 52.5q-71 0 -158 -29v78q43 16 82.5 23t91.5 7q120 0 187 -73t67 -200q0 -125 -50.5 -234.5t-138 -168t-197.5 -58.5q-101 0 -174 40l36 74q67 -35 138 -35z" />
    <glyph glyph-name="uni0187" unicode="&#x187;" horiz-adv-x="586" 
d="M689 858q34 0 54 -11v-73q-27 9 -46 9q-22 0 -35.5 -12.5t-20.5 -44.5l-28 -122q-35 19 -75 30t-80 11q-85 0 -150.5 -48.5t-103 -138t-37.5 -193.5q0 -91 46.5 -143.5t128.5 -52.5q70 0 158 29v-78q-80 -30 -174 -30q-120 0 -187 73t-67 200q0 125 50.5 235t138 168
t197.5 58q57 0 102 -13l7 33q13 58 42.5 86t79.5 28z" />
    <glyph glyph-name="uni0188" unicode="&#x188;" horiz-adv-x="453" 
d="M531 765q33 0 54 -11v-73q-25 9 -46 9q-24 0 -36 -13t-18 -44l-41 -190q-58 29 -115 29q-54 0 -98 -37.5t-68.5 -101.5t-24.5 -142q0 -61 31 -94.5t87 -33.5q36 0 67 10t62 23v-74q-62 -32 -138 -32q-95 0 -147 52.5t-52 147.5q0 99 36 181t99.5 128.5t144.5 46.5
q30 0 58 -5l23 110q22 114 122 114z" />
    <glyph glyph-name="uni0189" unicode="&#x189;" horiz-adv-x="666" 
d="M123 653l5 27h262q88 0 142 -41.5t73.5 -112.5t3.5 -160l-11 -65q-16 -91 -56 -158.5t-102 -105t-144 -37.5h-288l4 26l56 6q17 2 21 8.5t10 40.5l46 257h-77l5 32h77l41 229q6 35 4 41t-17 8zM385 338h-153l-54 -306h117q79 0 130 56t70 165l28 165q19 110 -13 170
t-120 60h-104l-49 -278h153z" />
    <glyph glyph-name="uni018A" unicode="&#x18a;" horiz-adv-x="743" 
d="M712 429q0 -128 -51 -225.5t-146 -150.5t-222 -53h-176l134 637h-18q-76 0 -76 -72q0 -18 5 -32h-75q-7 14 -7 38q0 69 42.5 106t118.5 37h196q135 0 205 -73.5t70 -211.5zM298 77q97 0 169.5 44t111.5 125t39 184q0 102 -48.5 154.5t-143.5 52.5h-85l-119 -560h76z" />
    <glyph glyph-name="uni018B" unicode="&#x18b;" horiz-adv-x="570" 
d="M48 177q0 114 79.5 174.5t230.5 60.5h64l47 223h-303l17 79h391l-151 -714h-161q-104 0 -159 45t-55 132zM405 335h-62q-100 0 -152 -40t-52 -115q0 -103 135 -103h76z" />
    <glyph glyph-name="uni018C" unicode="&#x18c;" horiz-adv-x="579" 
d="M193 -10q-67 0 -106 47.5t-39 135.5q0 102 34 189t94.5 135t134.5 48q93 0 135 -92h5q5 39 10 69t34 164h-302l16 74h388l-161 -760h-72l11 99h-4q-47 -58 -89.5 -83.5t-88.5 -25.5zM223 63q45 0 92 45.5t74.5 114.5t27.5 141q0 53 -25.5 80.5t-74.5 27.5
q-48 0 -89 -40.5t-65.5 -111t-24.5 -149.5q0 -108 85 -108z" />
    <glyph glyph-name="uni018D" unicode="&#x18d;" horiz-adv-x="554" 
d="M311 293q47 -38 66.5 -73.5t19.5 -75.5q0 -69 -49.5 -111.5t-130.5 -42.5q-93 0 -174 56l35 63q47 -28 79.5 -38t60.5 -10q50 0 72.5 23t22.5 60q0 20 -6.5 35.5t-19 30.5t-60.5 54q-68 55 -96 109t-28 117q0 78 32 140t91.5 96t138.5 34q60 0 105.5 -25.5t69.5 -70.5
t24 -101q0 -213 -253 -270zM356 687q-75 0 -119.5 -55t-44.5 -141q0 -96 69 -155q104 20 158.5 75t54.5 140q0 64 -31.5 100t-86.5 36z" />
    <glyph glyph-name="uni018E" unicode="&#x18e;" horiz-adv-x="514" 
d="M155 714h362l-151 -714h-362l17 79h273l54 255h-255l15 78h256l48 223h-274z" />
    <glyph glyph-name="uni018F" unicode="&#x18f;" horiz-adv-x="661" 
d="M364 646q-106 0 -208 -46v82q59 24 108.5 33.5t107.5 9.5q120 0 187.5 -72.5t67.5 -202.5q0 -124 -50 -231t-138 -168t-191 -61q-99 0 -153.5 44.5t-54.5 122.5q0 122 106.5 177.5t333.5 55.5h51q3 21 3 40v14q0 95 -44 148.5t-126 53.5zM247 70q94 0 164.5 63.5
t104.5 179.5h-54q-164 0 -245 -36.5t-81 -116.5q0 -43 29 -66.5t82 -23.5z" />
    <glyph glyph-name="uni0190" unicode="&#x190;" horiz-adv-x="538" 
d="M138 520q0 62 29.5 108.5t84 71t124.5 24.5q61 0 104.5 -14t101.5 -55l-41 -61q-45 32 -82 44t-84 12q-67 0 -106.5 -36.5t-39.5 -99.5q0 -53 37 -80t109 -27h89l-16 -75h-93q-229 0 -229 -156q0 -53 36 -82.5t106 -29.5q97 0 202 50v-82q-88 -42 -205 -42
q-110 0 -171 47.5t-61 133.5q0 88 50 138.5t161 67.5l1 4q-51 13 -79 49.5t-28 89.5z" />
    <glyph glyph-name="uni0191" unicode="&#x191;" horiz-adv-x="477" 
d="M-37 -240q-17 0 -33 4.5t-25 10.5v76q23 -12 43 -12q30 0 48 19t28 63l168 793h362l-16 -79h-274l-53 -254h256l-17 -79h-256l-82 -385q-18 -83 -52.5 -120t-96.5 -37z" />
    <glyph glyph-name="florin" unicode="&#x192;" horiz-adv-x="435" 
d="M152 -52q-12 -45 -30.5 -84t-50.5 -63t-88 -24q-42 0 -67 16t-33 41t1 52l75 11q-14 -47 -7 -68t34 -21q17 0 30 10.5t25.5 37.5t25.5 78l110 408h-123l6 32h126l55 205q13 46 31 84.5t50.5 62.5t88.5 24q43 0 67.5 -16t32.5 -41t-1 -52l-76 -11q15 47 8 68t-34 21
q-17 0 -30.5 -10t-25.5 -37.5t-26 -78.5l-59 -219h124l-6 -32h-127z" />
    <glyph glyph-name="uni0193" unicode="&#x193;" horiz-adv-x="678" 
d="M398 376h229l-76 -349q-59 -21 -107.5 -29t-100.5 -8q-128 0 -199.5 71t-71.5 198q0 131 50 239t138.5 167t196.5 59q70 0 134 -18l9 39q13 57 43 85t79 28q33 0 54 -11v-73q-27 9 -46 9q-22 0 -35 -12.5t-21 -44.5l-29 -125q-99 44 -189 44q-81 0 -147.5 -49t-104 -136
t-37.5 -195q0 -92 48.5 -144t136.5 -52q69 0 123 18l46 211h-140z" />
    <glyph glyph-name="uni0194" unicode="&#x194;" horiz-adv-x="551" 
d="M281 101q24 -100 24 -170q0 -79 -36.5 -125t-98.5 -46q-45 0 -72 30t-27 79q0 50 29.5 108.5t86.5 129.5l-95 607h89l52 -369q13 -85 16 -158q28 72 77 156l216 371h102zM177 -162q23 0 36 30.5t13 76.5q0 43 -10 80q-35 -51 -48.5 -89.5t-13.5 -62.5q0 -35 23 -35z" />
    <glyph glyph-name="uni0195" unicode="&#x195;" horiz-adv-x="877" 
d="M509 408q0 -27 -11 -82l-29 -134q-6 -26 -6 -45q0 -84 95 -84q57 0 89.5 35t49.5 117l69 321h89l-69 -327q-25 -117 -79 -168t-156 -51q-84 0 -130.5 38t-46.5 108q0 20 6 50l31 150q9 40 9 66q0 70 -66 70q-40 0 -77.5 -28.5t-66.5 -83t-45 -129.5l-49 -231h-88l161 760
h88l-43 -197q-6 -30 -15 -62.5t-17 -64.5h5q43 59 85 84t88 25q62 0 95.5 -35.5t33.5 -101.5z" />
    <glyph glyph-name="uni0196" unicode="&#x196;" horiz-adv-x="311" 
d="M191 62q26 0 69 13v-67q-16 -7 -42 -12.5t-44 -5.5q-61 0 -92 30t-31 87q0 23 10 73l113 534h88l-114 -537q-8 -35 -8 -59q0 -56 51 -56z" />
    <glyph glyph-name="uni0197" unicode="&#x197;" horiz-adv-x="324" 
d="M230 0h-250l10 49l85 20l55 258h-83l17 78h82l51 240l-76 19l10 50h250l-10 -50l-86 -19l-51 -240h84l-17 -78h-84l-54 -258l77 -20z" />
    <glyph glyph-name="uni0198" unicode="&#x198;" horiz-adv-x="562" 
d="M341 400l169 -400h-98l-139 346l-83 -61l-60 -285h-89l151 714h89l-74 -347l62 66l216 221q34 36 61 51t59 15q24 0 47 -9v-71q-22 5 -38 5q-18 0 -35 -10t-45 -39z" />
    <glyph glyph-name="uni0199" unicode="&#x199;" horiz-adv-x="495" 
d="M298 765q17 0 33.5 -4.5t24.5 -8.5v-73q-21 10 -52 10q-42 0 -55 -58q-49 -228 -58 -263.5t-26 -90.5h2l254 259h104l-230 -230l143 -306h-97l-113 251l-72 -57l-40 -194h-89l132 625q17 77 49.5 108.5t89.5 31.5z" />
    <glyph glyph-name="uni019A" unicode="&#x19a;" horiz-adv-x="257" 
d="M204 420h66l-14 -66h-66l-75 -354h-88l76 354h-64l14 66h64l72 340h88z" />
    <glyph glyph-name="uni019B" unicode="&#x19b;" horiz-adv-x="491" 
d="M248 525l-8 63l-104 -32l-18 60l109 34q-18 43 -61 43q-29 0 -50 -5l-11 70q33 8 69 8q55 0 86.5 -20.5t47.5 -70.5l97 31l18 -61l-103 -32l57 -499q6 -53 36 -53q16 0 33 6v-66q-25 -11 -57 -11q-45 0 -67 25t-27 78l-20 189q-9 73 -9 150q-29 -75 -58 -127l-171 -305
h-93zM290 535z" />
    <glyph glyph-name="uni019C" unicode="&#x19c;" horiz-adv-x="958" 
d="M271 714l-107 -506q-6 -27 -6 -49q0 -44 22 -67.5t65 -23.5q77 0 122.5 46.5t67.5 147.5l96 452h89l-107 -506q-6 -26 -6 -51q0 -42 21 -65.5t65 -23.5q73 0 119 49.5t70 164.5l92 432h88l-151 -714h-65l8 82h-4q-63 -92 -177 -92q-112 0 -139 100h-4q-77 -100 -200 -100
q-76 0 -119 42.5t-43 114.5q0 30 7 61l107 506h89z" />
    <glyph glyph-name="uni019D" unicode="&#x19d;" horiz-adv-x="707" 
d="M561 0h-95l-221 592h-3q-2 -19 -12.5 -82.5t-23.5 -123.5l-102 -480q-16 -76 -50.5 -111t-91.5 -35q-17 0 -33 4.5t-25 10.5v76q23 -12 43 -12q31 0 48.5 19.5t27.5 62.5l168 793h95l219 -590h3q6 45 17 106t18 91l84 393h85z" />
    <glyph glyph-name="uni019E" unicode="&#x19e;" horiz-adv-x="579" 
d="M390 -240h-88l123 576q10 48 10 69q0 31 -17 49t-54 18q-42 0 -82 -28.5t-70.5 -83t-46.5 -129.5l-49 -231h-88l114 536h72l-11 -99h5q33 42 59 63t56.5 33.5t64.5 12.5q63 0 99 -34.5t36 -97.5q0 -38 -11 -88z" />
    <glyph glyph-name="uni019F" unicode="&#x19f;" horiz-adv-x="721" 
d="M690 444q0 -134 -44.5 -238.5t-124 -160t-184.5 -55.5q-125 0 -195 73t-70 204q0 128 46.5 234.5t128.5 165t186 58.5q121 0 189 -75t68 -206zM340 69q88 0 152.5 68.5t90.5 187.5h-414q-3 -27 -3 -56q0 -94 46.5 -147t127.5 -53zM427 646q-88 0 -153.5 -65.5
t-91.5 -177.5h411q2 24 2 43q0 94 -44.5 147t-123.5 53z" />
    <glyph glyph-name="Ohorn" unicode="&#x1a0;" horiz-adv-x="719" 
d="M690 444q0 -134 -44.5 -238.5t-124 -160t-184.5 -55.5q-125 0 -195 73t-70 204q0 128 46.5 234.5t128.5 165t186 58.5q73 0 127 -27.5t86 -78.5q38 15 59 47.5t30 93.5h96l4 -11q-17 -66 -55.5 -109t-110.5 -72q21 -58 21 -124zM427 646q-75 0 -135 -48.5t-92.5 -135.5
t-32.5 -193q0 -95 46.5 -147.5t126.5 -52.5q72 0 130 47.5t91.5 135t33.5 194.5q0 94 -44.5 147t-123.5 53z" />
    <glyph glyph-name="ohorn" unicode="&#x1a1;" horiz-adv-x="567" 
d="M316 543q105 0 159 -70q38 16 60.5 49t31.5 96h95l4 -11q-16 -68 -55.5 -111t-110.5 -69q16 -40 16 -91q0 -93 -35 -174t-95.5 -125.5t-137.5 -44.5q-94 0 -147 56t-53 150t36 176t96.5 125.5t135.5 43.5zM426 346q0 56 -29.5 90t-79.5 34q-52 0 -93.5 -36t-64 -99.5
t-22.5 -139.5q0 -62 30 -96t86 -34q49 0 88.5 35t62 99t22.5 147z" />
    <glyph glyph-name="uni01A2" unicode="&#x1a2;" horiz-adv-x="1004" 
d="M680 444q0 -133 -43.5 -237.5t-121.5 -160.5t-180 -56q-125 0 -194 73t-69 204q0 130 47.5 236.5t128.5 164t181 57.5q128 0 195 -89q40 42 91 65.5t101 23.5q77 0 120 -40t43 -115q0 -34 -7 -63l-106 -507h-89l107 507q6 26 6 52q0 88 -88 88q-80 0 -147 -65
q25 -61 25 -138zM423 646q-72 0 -131.5 -49.5t-92 -136.5t-32.5 -191q0 -95 45.5 -147.5t125.5 -52.5q70 0 127 49.5t88.5 137t31.5 190.5q0 93 -43.5 146.5t-118.5 53.5z" />
    <glyph glyph-name="uni01A3" unicode="&#x1a3;" horiz-adv-x="796" 
d="M501 336q0 -93 -35.5 -175t-94.5 -125.5t-133 -43.5q-89 0 -139.5 55.5t-50.5 150.5q0 94 36 176t96.5 125.5t135.5 43.5q99 0 147 -71q32 37 71.5 55.5t78.5 18.5q63 0 95.5 -36t32.5 -100q0 -27 -6 -61l-125 -589h-89l125 585q7 29 7 56q0 71 -65 71q-58 0 -100 -48
q13 -41 13 -88zM411 346q0 57 -25.5 90.5t-68.5 33.5q-52 0 -93.5 -36t-64 -99.5t-22.5 -139.5q0 -62 27 -96t79 -34q47 0 86 35.5t60.5 100t21.5 145.5z" />
    <glyph glyph-name="uni01A4" unicode="&#x1a4;" horiz-adv-x="642" 
d="M642 528q0 -121 -80 -185t-234 -64h-64l-59 -279h-89l134 637h-17q-76 0 -76 -72q0 -18 5 -32h-75q-7 14 -7 38q0 69 42.5 106t118.5 37h187q105 0 159.5 -46.5t54.5 -139.5zM280 354h62q102 0 155.5 44t53.5 127q0 60 -33.5 86t-101.5 26h-76z" />
    <glyph glyph-name="uni01A5" unicode="&#x1a5;" horiz-adv-x="579" 
d="M384 545q69 0 107.5 -48.5t38.5 -134.5q0 -103 -34.5 -190.5t-93.5 -134.5t-132 -47q-45 0 -81.5 23.5t-57.5 68.5h-5q-3 -51 -12 -91l-49 -231h-87l182 865q16 76 47.5 108t90.5 32q17 0 33.5 -4.5t24.5 -8.5v-73q-21 10 -52 10q-42 0 -55 -60l-10 -48q-14 -67 -37 -145
h4q49 60 91.5 84.5t86.5 24.5zM355 472q-44 0 -90.5 -43.5t-75.5 -113.5t-29 -144q0 -52 26 -80t76 -28q48 0 89 40t65 111t24 150q0 108 -85 108z" />
    <glyph glyph-name="uni01A6" unicode="&#x1a6;" horiz-adv-x="573" 
d="M187 271h78q92 0 141.5 40.5t49.5 115.5q0 57 -31.5 83t-104.5 26h-77zM170 195l-41 -195h-88l151 714h89l-21 -100h68q220 0 220 -181q0 -168 -178 -218l118 -315h-98l-102 295h-118z" />
    <glyph glyph-name="uni01A7" unicode="&#x1a7;" horiz-adv-x="504" 
d="M431 554q0 42 -28.5 66.5t-79.5 24.5q-62 0 -144 -37l-27 76q88 40 182 40q87 0 139 -46.5t52 -122.5q0 -56 -22.5 -97t-67.5 -72.5t-134 -63.5q-99 -36 -131.5 -55t-46 -41.5t-13.5 -57.5q0 -46 33.5 -73t90.5 -27q86 0 174 37v-78q-75 -37 -180 -37q-99 0 -154 46.5
t-55 126.5q0 38 9.5 67t26 51.5t39.5 39.5t49.5 30.5t55.5 24t58 21.5q83 30 114 50t45.5 45t14.5 62z" />
    <glyph glyph-name="uni01A8" unicode="&#x1a8;" horiz-adv-x="432" 
d="M339 409q0 30 -21 47.5t-62 17.5q-48 0 -130 -34l-23 69q81 37 162 37q74 0 118 -35t44 -97q0 -45 -18.5 -75.5t-55.5 -52.5t-121 -47q-61 -18 -84 -31t-36 -30.5t-13 -42.5q0 -34 23 -54t73 -20q34 0 68.5 9.5t81.5 31.5v-77q-67 -35 -158 -35q-84 0 -130.5 39
t-46.5 107q0 43 20.5 75t57.5 54.5t107 42.5q61 17 90 30t41.5 28.5t12.5 42.5z" />
    <glyph glyph-name="uni01A9" unicode="&#x1a9;" horiz-adv-x="522" 
d="M-15 0l14 73l261 296l-134 274l14 71h423l-17 -79h-324l132 -273l-249 -283h352l-17 -79h-455z" />
    <glyph glyph-name="uni01AA" unicode="&#x1aa;" horiz-adv-x="292" 
d="M165 -168q26 0 69 13v-67q-15 -7 -40 -12.5t-46 -5.5q-62 0 -92.5 30.5t-30.5 86.5q0 30 10 75l128 595h-27q-53 0 -83 27.5t-30 76.5q0 56 35 87.5t100 31.5q52 0 81.5 -29.5t29.5 -80.5q0 -23 -4 -40l-143 -673q-8 -37 -8 -59q0 -56 51 -56zM146 698q-21 0 -32 -12
t-11 -30q0 -19 12 -28t30 -9h32q6 23 6 38q0 20 -9.5 30.5t-27.5 10.5z" />
    <glyph glyph-name="uni01AB" unicode="&#x1ab;" horiz-adv-x="332" 
d="M198 62q37 0 78 13l-43 -201q-13 -59 -42 -86.5t-80 -27.5q-33 0 -54 11v73q27 -9 46 -9q22 0 34 11.5t20 45.5l21 98q-60 1 -90.5 31.5t-30.5 85.5q0 31 9 71l61 291h-83l8 40l90 38l62 111h52l-27 -122h135l-14 -67h-134l-62 -292q-9 -40 -9 -60q0 -23 12 -39t41 -16z
" />
    <glyph glyph-name="uni01AC" unicode="&#x1ac;" horiz-adv-x="540" 
d="M281 0h-90l134 635h-92q-38 0 -57 -16.5t-19 -53.5q0 -18 5 -32h-75q-7 14 -7 38q0 69 42.5 106t118.5 37h387l-16 -79h-196z" />
    <glyph glyph-name="uni01AD" unicode="&#x1ad;" horiz-adv-x="332" 
d="M198 62q30 0 71 13v-67q-14 -7 -39.5 -12.5t-44.5 -5.5q-62 0 -95 29.5t-33 87.5q0 31 9 71l61 291h-83l8 40l92 39l14 63q18 84 55 119t105 35q36 0 68 -13v-73q-31 10 -65 10q-60 0 -74 -68l-18 -85h135l-14 -67h-134l-62 -292q-9 -40 -9 -60q0 -23 12 -39t41 -16z" />
    <glyph glyph-name="uni01AE" unicode="&#x1ae;" horiz-adv-x="500" 
d="M286 635h-196l17 79h482l-16 -79h-196l-151 -714q-4 -17 -4 -35q0 -47 48 -47q23 0 44 10v-76q-11 -6 -30.5 -9.5t-39.5 -3.5q-53 0 -84.5 29t-31.5 82q0 20 6 46z" />
    <glyph glyph-name="Uhorn" unicode="&#x1af;" horiz-adv-x="727" 
d="M688 714l-21 -96q81 17 101 142h95l4 -11q-17 -77 -72.5 -127t-139.5 -65l-67 -314q-27 -132 -97.5 -192.5t-187.5 -60.5q-113 0 -168.5 52.5t-55.5 147.5q0 40 12 93l92 431h89l-93 -437q-11 -52 -11 -82q0 -62 35 -94t102 -32q81 0 127 42t68 140l99 463h89z" />
    <glyph glyph-name="uhorn" unicode="&#x1b0;" horiz-adv-x="625" 
d="M225 536l-72 -337q-9 -44 -9 -65q0 -71 70 -71q42 0 82 29t71 83.5t47 129.5l49 231h87l-13 -61q40 8 65.5 41.5t36.5 101.5h95l4 -11q-17 -76 -73 -126.5t-141 -66.5l-88 -414h-72l11 99h-5q-44 -58 -88.5 -83.5t-92.5 -25.5q-63 0 -98.5 35.5t-35.5 100.5q0 28 11 83
l70 327h89z" />
    <glyph glyph-name="uni01B1" unicode="&#x1b1;" horiz-adv-x="731" 
d="M351 68q72 0 128 40t86 112t30 162q0 83 -23.5 145t-78.5 117l14 70h280l-16 -79h-179q48 -47 73 -112.5t25 -144.5q0 -110 -45 -201t-124 -139.5t-177 -48.5q-83 0 -144 33.5t-93.5 96.5t-32.5 145q0 114 55.5 210.5t155.5 160.5h-169l16 79h288l-14 -70
q-116 -69 -176.5 -166.5t-60.5 -214.5q0 -91 47.5 -143t134.5 -52z" />
    <glyph glyph-name="uni01B2" unicode="&#x1b2;" horiz-adv-x="554" 
d="M596 603q0 -27 -6.5 -53t-18.5 -52.5t-42 -74.5t-264 -423h-96l-77 714h88l46 -465q9 -89 9 -157q37 80 84 155l129 204q27 43 42.5 79t15.5 69q0 46 -45 46q-23 0 -46 -10v76q11 6 30 9.5t36 3.5q55 0 85 -31.5t30 -89.5z" />
    <glyph glyph-name="uni01B3" unicode="&#x1b3;" horiz-adv-x="528" 
d="M113 649q-17 0 -33 -7v71q24 12 58 12q40 0 62 -19.5t31 -62.5l59 -281l230 352h101l-306 -449l-55 -265h-90l58 268l-76 346q-8 35 -39 35z" />
    <glyph glyph-name="uni01B4" unicode="&#x1b4;" horiz-adv-x="492" 
d="M48 536h88l35 -265q5 -37 9 -95t4 -104h3q13 32 38 87t40 83l110 207q32 59 55 78t59 19q31 0 52 -12l-13 -65q-15 5 -25 5q-14 0 -24 -10.5t-27 -43.5l-277 -510q-44 -83 -90 -116.5t-110 -33.5q-39 0 -69 10v71q31 -9 64 -9q40 0 69 25t55 73l35 62z" />
    <glyph glyph-name="uni01B5" unicode="&#x1b5;" horiz-adv-x="530" 
d="M102 407h168l179 227h-315l17 80h422l-13 -71l-187 -236h117l-15 -71h-158l-202 -256h335l-16 -80h-444l14 70l210 266h-127z" />
    <glyph glyph-name="uni01B6" unicode="&#x1b6;" horiz-adv-x="444" 
d="M66 313h137l127 157h-230l14 66h325l-14 -71l-125 -152h95l-15 -70h-137l-145 -177h255l-13 -66h-355l12 60l149 183h-95z" />
    <glyph glyph-name="uni01B7" unicode="&#x1b7;" horiz-adv-x="528" 
d="M272 401q92 -2 144 -48t52 -128q0 -71 -35 -124t-100.5 -82t-154.5 -29q-48 0 -94.5 11.5t-76.5 28.5v84q39 -22 84.5 -36t91.5 -14q90 0 140.5 42t50.5 116q0 54 -35 82.5t-104 28.5h-78l14 70l245 231h-279l17 80h392l-15 -71z" />
    <glyph glyph-name="uni01B8" unicode="&#x1b8;" horiz-adv-x="538" 
d="M142 643l15 71h409l-17 -80h-311l173 -237l-13 -64h-34q-238 0 -238 -157q0 -56 38.5 -84t111.5 -28q89 0 194 50v-83q-86 -41 -210 -41q-109 0 -168 48.5t-59 137.5q0 104 74.5 162t207.5 64z" />
    <glyph glyph-name="uni01B9" unicode="&#x1b9;" horiz-adv-x="463" 
d="M89 472l13 64h372l-15 -74h-278l161 -243l-13 -61h-55q-104 0 -163 -50t-59 -139q0 -62 36.5 -99t100.5 -37q40 0 75.5 8t90.5 33v-77q-74 -37 -176 -37q-99 0 -157 55t-58 148q0 79 35 137t99 91t151 37z" />
    <glyph glyph-name="uni01BA" unicode="&#x1ba;" horiz-adv-x="463" 
d="M111 -167q80 0 153 34v-76q-66 -31 -155 -31q-78 0 -123 30t-45 85q0 62 42 93t152 48q99 15 137.5 45.5t38.5 84.5q0 46 -36 69t-117 23h-50l11 61l198 163h-245l15 74h363l-13 -64l-209 -169q80 -6 125.5 -49t45.5 -111q0 -90 -61.5 -137.5t-208.5 -68.5
q-59 -8 -82.5 -21t-23.5 -38q0 -20 21.5 -32.5t66.5 -12.5z" />
    <glyph glyph-name="uni01BB" unicode="&#x1bb;" horiz-adv-x="529" 
d="M425 0h-441l16 75l264 274h-173l15 70h220q44 52 63.5 95.5t19.5 90.5q0 38 -23.5 61.5t-62.5 23.5q-38 0 -73 -14t-80 -48l-42 60q95 77 197 77q79 0 127.5 -41.5t48.5 -107.5q0 -108 -81 -197h97l-15 -70h-135l-254 -265v-4h327z" />
    <glyph glyph-name="uni01BC" unicode="&#x1bc;" horiz-adv-x="529" 
d="M285 634l-44 -193h19q102 0 159.5 -50.5t57.5 -142.5q0 -123 -75 -190.5t-212 -67.5q-117 0 -183 39v82q40 -22 87.5 -34.5t93.5 -12.5q95 0 146 46t51 129q0 62 -36.5 95t-106.5 33h-101l59 267h-78l17 80h408l-17 -80h-245z" />
    <glyph glyph-name="uni01BD" unicode="&#x1bd;" horiz-adv-x="461" 
d="M229 462l-26 -117h16q83 0 131 -41t48 -112q0 -94 -63.5 -148t-173.5 -54q-109 0 -161 35v79q74 -42 159 -42q71 0 113 34.5t42 92.5q0 41 -36 62.5t-103 21.5h-68l41 189h-63l15 74h345l-15 -74h-201z" />
    <glyph glyph-name="uni01BE" unicode="&#x1be;" horiz-adv-x="426" 
d="M141 332q0 20 6 46l19 91h-83l8 40l90 38l62 111h52l-27 -122h135l-14 -67h-134l-20 -93q-4 -15 -4 -30q0 -19 8.5 -29.5t23.5 -19.5q57 -32 79.5 -64t22.5 -76q0 -78 -57.5 -122.5t-155.5 -44.5q-45 0 -87.5 9.5t-64.5 25.5v79q70 -43 146 -43q63 0 99 24t36 64
q0 26 -16.5 45t-58.5 43q-36 21 -50.5 43t-14.5 52z" />
    <glyph glyph-name="uni01BF" unicode="&#x1bf;" horiz-adv-x="566" 
d="M65 -240h-87l164 776h72l-12 -101h4q36 52 82.5 81t94.5 29q67 0 105 -48t38 -130q0 -94 -54 -176.5t-148.5 -135t-209.5 -65.5zM129 67q83 10 153.5 53.5t111.5 109.5t41 135q0 51 -21 79t-59 28q-58 0 -113.5 -68t-76.5 -167z" />
    <glyph glyph-name="uni01C0" unicode="&#x1c0;" horiz-adv-x="516" 
d="M297 -240h-78v1000h78v-1000z" />
    <glyph glyph-name="uni01C1" unicode="&#x1c1;" horiz-adv-x="516" 
d="M169 -240h-78v1000h78v-1000zM426 -240h-78v1000h78v-1000z" />
    <glyph glyph-name="uni01C2" unicode="&#x1c2;" horiz-adv-x="516" 
d="M65 402h154v358h78v-358h154v-72h-154v-124h154v-72h-154v-374h-78v374h-154v72h154v124h-154v72z" />
    <glyph glyph-name="uni01C3" unicode="&#x1c3;" horiz-adv-x="261" 
d="M133 184h-31q13 71 19.5 123t10 94t7 83t9 87.5t16.5 108.5h82q-11 -62 -21.5 -108.5t-21.5 -87.5t-22.5 -83t-23 -94t-24.5 -123zM89 -10q-24 0 -38.5 13t-14.5 37q0 26 17 44t45 18q25 0 39 -13t14 -37q0 -26 -16.5 -44t-45.5 -18z" />
    <glyph glyph-name="uni01C4" unicode="&#x1c4;" horiz-adv-x="1198" 
d="M1147 888q-28 -26 -47 -45.5t-36 -40.5t-39 -53h-66q-10 32 -19.5 53.5t-22 41.5t-31.5 46l18 19q29 -25 53.5 -49.5t43.5 -49.5q29 25 60.5 49.5t68.5 49.5zM119 653l5 27h262q88 0 142 -41.5t74 -112.5t4 -160l-12 -65q-16 -91 -56 -158.5t-102 -105t-144 -37.5h-288
l5 26l56 6q17 2 21 8.5t10 40.5l91 518q6 35 4 41t-17 8zM387 648h-105l-108 -616h117q80 0 130.5 56t69.5 165l29 165q19 110 -13.5 170t-119.5 60zM1143 163l-28 -163h-452l4 22l447 626h-215q-23 0 -34 -1.5t-15.5 -7t-9.5 -17.5l-48 -105h-26l29 163h430l-5 -22
l-447 -626h238q24 0 34 1.5t15 7t10 17.5l47 105h26z" />
    <glyph glyph-name="uni01C5" unicode="&#x1c5;" horiz-adv-x="1111" 
d="M1065 723q-28 -26 -47 -45.5t-36 -40.5t-39 -53h-66q-10 32 -19.5 53.5t-22 41.5t-31.5 46l18 19q29 -25 53.5 -49.5t43.5 -49.5q29 25 60.5 49.5t68.5 49.5zM119 653l5 27h262q88 0 142 -41.5t74 -112.5t4 -160l-12 -65q-16 -91 -56 -158.5t-102 -105t-144 -37.5h-288
l5 26l56 6q17 2 21 8.5t10 40.5l91 518q6 35 4 41t-17 8zM387 648h-105l-108 -616h117q80 0 130.5 56t69.5 165l29 165q19 110 -13.5 170t-119.5 60zM1080 140q-10 -65 -39 -107.5t-82 -42.5q-35 0 -65.5 15.5t-58 31t-54.5 15.5q-19 0 -39.5 -11.5t-45.5 -40.5l-25 23
l350 406h-165q-35 0 -43.5 -3t-15.5 -19l-35 -78h-26l29 166h342l-5 -25l-326 -378q16 9 28.5 12.5t25.5 3.5q28 0 51.5 -13.5t47.5 -27t51 -13.5q32 0 47.5 24t25.5 69z" />
    <glyph glyph-name="uni01C6" unicode="&#x1c6;" horiz-adv-x="1023" 
d="M977 723q-28 -26 -47 -45.5t-36 -40.5t-39 -53h-66q-10 32 -19.5 53.5t-22 41.5t-31.5 46l18 19q29 -25 53.5 -49.5t43.5 -49.5q29 25 60.5 49.5t68.5 49.5zM448 -5q-37 0 -59 24t-23 73q-35 -57 -75 -79.5t-81 -22.5q-59 0 -96.5 36.5t-50.5 97.5t1 136l4 22
q13 70 47 120t82 76.5t102 26.5q41 0 72.5 -15.5t52.5 -43.5l37 213q6 35 4 41t-17 8l-54 5l4 27h160l-104 -590q-13 -74 -10 -98t19 -24q15 0 32.5 17.5t30.5 59.5l36 -22q-22 -46 -51 -67t-63 -21zM149 234q-17 -100 4.5 -155t69.5 -55q20 0 44 11.5t51.5 42.5t56.5 90
l40 227q-19 40 -46 58t-64 18q-61 0 -97 -48t-50 -132zM992 140q-10 -65 -39 -107.5t-82 -42.5q-35 0 -65.5 15.5t-58 31t-54.5 15.5q-19 0 -39.5 -11.5t-45.5 -40.5l-25 23l350 406h-165q-35 0 -43.5 -3t-15.5 -19l-35 -78h-26l29 166h342l-5 -25l-326 -378q16 9 28.5 12.5
t25.5 3.5q28 0 51.5 -13.5t47.5 -27t51 -13.5q32 0 47.5 24t25.5 69z" />
    <glyph glyph-name="uni01C7" unicode="&#x1c7;" horiz-adv-x="750" 
d="M488 165l-29 -165h-455l5 26l56 6q11 1 15.5 3.5t7.5 12t7 33.5l92 518q6 35 4 41t-18 8l-54 5l5 27h241l-5 -27l-56 -5q-10 -1 -15 -4t-8 -12.5t-7 -32.5l-100 -567h181q24 0 34 1.5t15 7t10 17.5l48 107h26zM733 653l5 27h241l-5 -27l-55 -5q-16 -2 -20.5 -8.5
t-10.5 -40.5l-71 -405q-10 -56 -35.5 -102.5t-69 -74t-107.5 -27.5q-37 0 -69 13.5t-50 45t-15 85.5l65 19q-7 -54 1.5 -82t26.5 -38.5t37 -10.5q28 0 52.5 14.5t44.5 50.5t31 103l72 409q6 34 4 40.5t-17 8.5z" />
    <glyph glyph-name="uni01C8" unicode="&#x1c8;" horiz-adv-x="735" 
d="M488 165l-29 -165h-455l5 26l56 6q11 1 15.5 3.5t7.5 12t7 33.5l92 518q6 35 4 41t-18 8l-54 5l5 27h241l-5 -27l-56 -5q-10 -1 -15 -4t-8 -12.5t-7 -32.5l-100 -567h181q24 0 34 1.5t15 7t10 17.5l48 107h26zM690 608q-23 0 -36 14t-11 37q2 25 19.5 41t42.5 16
q24 0 37 -13.5t11 -36.5q-2 -24 -19.5 -41t-43.5 -17zM546 468l4 27h159l-96 -547q-8 -45 -28 -84t-56 -63t-92 -24q-52 0 -83.5 29.5t-27.5 86.5l57 16q-4 -55 11 -77.5t40 -22.5q36 0 59.5 27.5t36.5 103.5l83 474q6 34 4 40.5t-17 8.5z" />
    <glyph glyph-name="uni01C9" unicode="&#x1c9;" horiz-adv-x="516" 
d="M99 713l4 27h159l-103 -590q-13 -74 -9.5 -98t19.5 -24q14 0 32 17.5t31 59.5l35 -22q-22 -46 -51 -67t-62 -21q-47 0 -69 36t-9 111l90 517q6 34 4 40.5t-17 8.5zM470 608q-23 0 -36 14t-11 37q2 25 19.5 41t42.5 16q24 0 37 -13.5t11 -36.5q-2 -24 -19.5 -41t-43.5 -17
zM326 468l4 27h159l-96 -547q-8 -45 -28 -84t-56 -63t-92 -24q-52 0 -83.5 29.5t-27.5 86.5l57 16q-4 -55 11 -77.5t40 -22.5q36 0 59.5 27.5t36.5 103.5l83 474q6 34 4 40.5t-17 8.5z" />
    <glyph glyph-name="uni01CA" unicode="&#x1ca;" horiz-adv-x="979" 
d="M119 653l5 27h167l228 -534l81 453q6 34 4 40.5t-17 8.5l-55 5l5 27h191l-5 -27l-55 -5q-16 -2 -20.5 -8.5t-10.5 -40.5l-106 -599h-40l-264 613l-94 -532q-6 -34 -4 -40.5t17 -8.5l54 -6l-5 -26h-191l5 26l56 6q17 2 21 8.5t10 40.5l91 518q6 34 4 40.5t-17 8.5z
M962 653l5 27h241l-5 -27l-55 -5q-16 -2 -20.5 -8.5t-10.5 -40.5l-71 -405q-10 -56 -35.5 -102.5t-69 -74t-107.5 -27.5q-37 0 -69 13.5t-50 45t-15 85.5l65 19q-7 -54 1.5 -82t26.5 -38.5t37 -10.5q28 0 52.5 14.5t44.5 50.5t31 103l72 409q6 34 4 40.5t-17 8.5z" />
    <glyph glyph-name="uni01CB" unicode="&#x1cb;" horiz-adv-x="964" 
d="M119 653l5 27h167l228 -534l81 453q6 34 4 40.5t-17 8.5l-55 5l5 27h191l-5 -27l-55 -5q-16 -2 -20.5 -8.5t-10.5 -40.5l-106 -599h-40l-264 613l-94 -532q-6 -34 -4 -40.5t17 -8.5l54 -6l-5 -26h-191l5 26l56 6q17 2 21 8.5t10 40.5l91 518q6 34 4 40.5t-17 8.5z
M919 608q-23 0 -36 14t-11 37q2 25 19.5 41t42.5 16q24 0 37 -13.5t11 -36.5q-2 -24 -19.5 -41t-43.5 -17zM775 468l4 27h159l-96 -547q-8 -45 -28 -84t-56 -63t-92 -24q-52 0 -83.5 29.5t-27.5 86.5l57 16q-4 -55 11 -77.5t40 -22.5q36 0 59.5 27.5t36.5 103.5l83 474
q6 34 4 40.5t-17 8.5z" />
    <glyph glyph-name="uni01CC" unicode="&#x1cc;" horiz-adv-x="836" 
d="M594 83q-22 -46 -51.5 -67t-64.5 -21q-46 0 -68 32t-9 100l40 196q15 76 -2 110t-56 34q-24 0 -53.5 -13t-62 -45.5t-67.5 -92.5l-55 -316h-82l72 414q6 34 4 40.5t-17 8.5l-54 5l5 27h156l-18 -106q44 62 92.5 89t97.5 27q74 0 106.5 -49t15.5 -132l-41 -200
q-10 -51 -9 -73.5t20 -22.5q17 0 34.5 17.5t30.5 59.5zM791 608q-23 0 -36 14t-11 37q2 25 19.5 41t42.5 16q24 0 37 -13.5t11 -36.5q-2 -24 -19.5 -41t-43.5 -17zM647 468l4 27h159l-96 -547q-8 -45 -28 -84t-56 -63t-92 -24q-52 0 -83.5 29.5t-27.5 86.5l57 16
q-4 -55 11 -77.5t40 -22.5q36 0 59.5 27.5t36.5 103.5l83 474q6 34 4 40.5t-17 8.5z" />
    <glyph glyph-name="uni01CD" unicode="&#x1cd;" horiz-adv-x="562" 
d="M498 901q-28 -26 -47 -45.5t-36 -40.5t-39 -53h-66q-10 32 -19.5 53.5t-22 41.5t-31.5 46l18 19q29 -25 53.5 -49.5t43.5 -49.5q29 25 60.5 49.5t68.5 49.5zM152 26l-5 -26h-193l5 26l55 6q11 1 17 3.5t11.5 12.5t16.5 33l299 599h63l89 -599q5 -34 9 -40.5t18 -8.5
l54 -6l-4 -26h-240l5 26l56 6q17 2 19.5 8.5t-2.5 40.5l-18 128h-244l-64 -128q-17 -34 -17 -40.5t16 -8.5zM179 241h223l-50 348z" />
    <glyph glyph-name="uni01CE" unicode="&#x1ce;" horiz-adv-x="567" 
d="M467 723q-28 -26 -47 -45.5t-36 -40.5t-39 -53h-66q-10 32 -19.5 53.5t-22 41.5t-31.5 46l18 19q29 -25 53.5 -49.5t43.5 -49.5q29 25 60.5 49.5t68.5 49.5zM444 -5q-37 0 -58.5 22.5t-23.5 68.5q-34 -53 -73 -74.5t-80 -21.5q-59 0 -96 36.5t-50 97.5t1 136l4 22
q13 70 46.5 120t81.5 76.5t102 26.5q42 0 73.5 -16.5t51.5 -46.5q14 11 27 25l26 28h35l-61 -345q-13 -74 -10 -98t19 -24q15 0 32.5 17.5t31.5 59.5l35 -22q-22 -46 -51 -67t-63 -21zM149 234q-17 -100 4.5 -155t68.5 -55q19 0 43 10.5t50.5 40t54.5 85.5l41 236
q-18 39 -44.5 57t-62.5 18q-61 0 -96.5 -48t-49.5 -132z" />
    <glyph glyph-name="uni01CF" unicode="&#x1cf;" horiz-adv-x="324" 
d="M377 901q-28 -26 -47 -45.5t-36 -40.5t-39 -53h-66q-10 32 -19.5 53.5t-22 41.5t-31.5 46l18 19q29 -25 53.5 -49.5t43.5 -49.5q29 25 60.5 49.5t68.5 49.5zM119 653l5 27h241l-5 -27l-56 -5q-10 -1 -15 -4t-8 -12.5t-7 -32.5l-92 -518q-6 -35 -4 -41t18 -8l54 -6l-5 -26
h-241l5 26l56 6q11 1 15.5 3.5t7.5 12t7 33.5l92 518q6 35 4 41t-18 8z" />
    <glyph glyph-name="uni01D0" unicode="&#x1d0;" horiz-adv-x="257" 
d="M310 723q-28 -26 -47 -45.5t-36 -40.5t-39 -53h-66q-10 32 -19.5 53.5t-22 41.5t-31.5 46l18 19q29 -25 53.5 -49.5t43.5 -49.5q29 25 60.5 49.5t68.5 49.5zM66 468l5 27h159l-60 -345q-13 -74 -10 -98t19 -24q15 0 32.5 17.5t30.5 59.5l36 -22q-22 -46 -51.5 -67
t-62.5 -21q-46 0 -68.5 36t-9.5 111l48 272q6 34 3.5 40.5t-17.5 8.5z" />
    <glyph glyph-name="uni01D1" unicode="&#x1d1;" horiz-adv-x="721" 
d="M558 901q-28 -26 -47 -45.5t-36 -40.5t-39 -53h-66q-10 32 -19.5 53.5t-22 41.5t-31.5 46l18 19q29 -25 53.5 -49.5t43.5 -49.5q29 25 60.5 49.5t68.5 49.5zM614 366l-12 -65q-16 -94 -56 -164t-102 -108.5t-143 -38.5q-87 0 -140.5 42.5t-72.5 116.5t-3 166l11 65
q17 93 57 163t101.5 108.5t142.5 38.5q87 0 140.5 -43t73 -116.5t3.5 -164.5zM528 418q20 114 -12.5 177t-118.5 63q-78 0 -127.5 -58.5t-69.5 -171.5l-29 -165q-20 -115 12.5 -178t117.5 -63q79 0 129 59t69 172z" />
    <glyph glyph-name="uni01D2" unicode="&#x1d2;" horiz-adv-x="562" 
d="M459 723q-28 -26 -47 -45.5t-36 -40.5t-39 -53h-66q-10 32 -19.5 53.5t-22 41.5t-31.5 46l18 19q29 -25 53.5 -49.5t43.5 -49.5q29 25 60.5 49.5t68.5 49.5zM492 242l-4 -22q-19 -109 -83 -169.5t-164 -60.5q-70 0 -114.5 35.5t-61.5 95t-4 131.5l4 23q20 109 83 169.5
t162 60.5q71 0 116 -35.5t62 -95.5t4 -132zM406 268q18 102 -9 154t-89 52q-55 0 -94.5 -43.5t-56.5 -142.5l-10 -61q-18 -102 9 -154.5t88 -52.5q56 0 95.5 44t55.5 143z" />
    <glyph glyph-name="uni01D3" unicode="&#x1d3;" horiz-adv-x="676" 
d="M550 901q-28 -26 -47 -45.5t-36 -40.5t-39 -53h-66q-10 32 -19.5 53.5t-22 41.5t-31.5 46l18 19q29 -25 53.5 -49.5t43.5 -49.5q29 25 60.5 49.5t68.5 49.5zM524 653l5 27h191l-5 -27l-55 -5q-15 -2 -20 -8.5t-11 -40.5l-65 -369q-19 -112 -80 -176t-169 -64
q-118 0 -172 69t-33 187l62 353q6 34 4 40.5t-17 8.5l-55 5l5 27h241l-5 -27l-55 -5q-15 -2 -20 -8.5t-11 -40.5l-65 -369q-19 -106 12 -157t114 -51q86 0 137.5 53.5t69.5 154.5l65 369q6 34 4 40.5t-17 8.5z" />
    <glyph glyph-name="uni01D4" unicode="&#x1d4;" horiz-adv-x="579" 
d="M463 723q-28 -26 -47 -45.5t-36 -40.5t-39 -53h-66q-10 32 -19.5 53.5t-22 41.5t-31.5 46l18 19q29 -25 53.5 -49.5t43.5 -49.5q29 25 60.5 49.5t68.5 49.5zM468 -5q-40 0 -62.5 27t-19.5 83q-43 -61 -90 -88t-96 -27q-70 0 -100.5 48.5t-16.5 131.5l43 244q6 34 4 40.5
t-17 8.5l-55 5l5 27h160l-57 -324q-13 -76 2 -110t50 -34q24 0 52.5 13t60 46t65.5 92l56 317h82l-60 -345q-13 -74 -10 -98t19 -24q15 0 32.5 17.5t30.5 59.5l36 -22q-22 -46 -51.5 -67t-62.5 -21z" />
    <glyph glyph-name="uni01D5" unicode="&#x1d5;" horiz-adv-x="676" 
d="M352 1005h269l-15 -71h-269zM313 812q0 24 14.5 40.5t38.5 16.5q40 0 40 -40q0 -24 -14 -41.5t-36 -17.5q-19 0 -31 10.5t-12 31.5zM493 812q0 24 14.5 40.5t38.5 16.5q21 0 30.5 -11t9.5 -29q0 -25 -15 -42t-36 -17q-18 0 -30 10.5t-12 31.5zM524 653l5 27h191l-5 -27
l-55 -5q-15 -2 -20 -8.5t-11 -40.5l-65 -369q-19 -112 -80 -176t-169 -64q-118 0 -172 69t-33 187l62 353q6 34 4 40.5t-17 8.5l-55 5l5 27h241l-5 -27l-55 -5q-15 -2 -20 -8.5t-11 -40.5l-65 -369q-19 -106 12 -157t114 -51q86 0 137.5 53.5t69.5 154.5l65 369q6 34 4 40.5
t-17 8.5z" />
    <glyph glyph-name="uni01D6" unicode="&#x1d6;" horiz-adv-x="579" 
d="M262 836h269l-15 -71h-269zM223 643q0 24 14.5 40.5t38.5 16.5q40 0 40 -40q0 -24 -14 -41.5t-36 -17.5q-19 0 -31 10.5t-12 31.5zM403 643q0 24 14.5 40.5t38.5 16.5q21 0 30.5 -11t9.5 -29q0 -25 -15 -42t-36 -17q-18 0 -30 10.5t-12 31.5zM468 -5q-40 0 -62.5 27
t-19.5 83q-43 -61 -90 -88t-96 -27q-70 0 -100.5 48.5t-16.5 131.5l43 244q6 34 4 40.5t-17 8.5l-55 5l5 27h160l-57 -324q-13 -76 2 -110t50 -34q24 0 52.5 13t60 46t65.5 92l56 317h82l-60 -345q-13 -74 -10 -98t19 -24q15 0 32.5 17.5t30.5 59.5l36 -22
q-22 -46 -51.5 -67t-62.5 -21z" />
    <glyph glyph-name="uni01D7" unicode="&#x1d7;" horiz-adv-x="676" 
d="M398 906q58 66 102 134h100v-10q-18 -23 -62.5 -64.5t-84.5 -70.5h-55v11zM313 812q0 24 14.5 40.5t38.5 16.5q40 0 40 -40q0 -24 -14.5 -41.5t-35.5 -17.5q-19 0 -31 10.5t-12 31.5zM493 812q0 24 14.5 40.5t38.5 16.5q21 0 30.5 -11t9.5 -29q0 -25 -15 -42t-36 -17
q-18 0 -30 10.5t-12 31.5zM524 653l5 27h191l-5 -27l-55 -5q-15 -2 -20 -8.5t-11 -40.5l-65 -369q-19 -112 -80 -176t-169 -64q-118 0 -172 69t-33 187l62 353q6 34 4 40.5t-17 8.5l-55 5l5 27h241l-5 -27l-55 -5q-15 -2 -20 -8.5t-11 -40.5l-65 -369q-19 -106 12 -157
t114 -51q86 0 137.5 53.5t69.5 154.5l65 369q6 34 4 40.5t-17 8.5z" />
    <glyph glyph-name="uni01D8" unicode="&#x1d8;" horiz-adv-x="579" 
d="M308 737q58 66 102 134h100v-10q-18 -23 -62.5 -64.5t-84.5 -70.5h-55v11zM223 643q0 24 14.5 40.5t38.5 16.5q40 0 40 -40q0 -24 -14.5 -41.5t-35.5 -17.5q-19 0 -31 10.5t-12 31.5zM403 643q0 24 14.5 40.5t38.5 16.5q21 0 30.5 -11t9.5 -29q0 -25 -15 -42t-36 -17
q-18 0 -30 10.5t-12 31.5zM468 -5q-40 0 -62.5 27t-19.5 83q-43 -61 -90 -88t-96 -27q-70 0 -100.5 48.5t-16.5 131.5l43 244q6 34 4 40.5t-17 8.5l-55 5l5 27h160l-57 -324q-13 -76 2 -110t50 -34q24 0 52.5 13t60 46t65.5 92l56 317h82l-60 -345q-13 -74 -10 -98t19 -24
q15 0 32.5 17.5t30.5 59.5l36 -22q-22 -46 -51.5 -67t-62.5 -21z" />
    <glyph glyph-name="uni01D9" unicode="&#x1d9;" horiz-adv-x="676" 
d="M336 1069h53q33 -26 79 -91q60 53 120 91h57v-13q-67 -62 -97 -93.5t-44 -53.5h-86q-17 46 -61 115l-21 32v13zM313 806q0 24 14.5 40.5t38.5 16.5q40 0 40 -40q0 -24 -14 -41.5t-36 -17.5q-19 0 -31 10.5t-12 31.5zM493 806q0 24 14.5 40.5t38.5 16.5q21 0 30.5 -11
t9.5 -29q0 -25 -15 -42t-36 -17q-18 0 -30 10.5t-12 31.5zM524 653l5 27h191l-5 -27l-55 -5q-15 -2 -20 -8.5t-11 -40.5l-65 -369q-19 -112 -80 -176t-169 -64q-118 0 -172 69t-33 187l62 353q6 34 4 40.5t-17 8.5l-55 5l5 27h241l-5 -27l-55 -5q-15 -2 -20 -8.5t-11 -40.5
l-65 -369q-19 -106 12 -157t114 -51q86 0 137.5 53.5t69.5 154.5l65 369q6 34 4 40.5t-17 8.5z" />
    <glyph glyph-name="uni01DA" unicode="&#x1da;" horiz-adv-x="579" 
d="M246 906h53q33 -26 79 -91q60 53 120 91h57v-13q-67 -62 -97 -93.5t-44 -53.5h-86q-17 46 -61 115l-21 32v13zM223 643q0 24 14.5 40.5t38.5 16.5q40 0 40 -40q0 -24 -14 -41.5t-36 -17.5q-19 0 -31 10.5t-12 31.5zM403 643q0 24 14.5 40.5t38.5 16.5q21 0 30.5 -11
t9.5 -29q0 -25 -15 -42t-36 -17q-18 0 -30 10.5t-12 31.5zM468 -5q-40 0 -62.5 27t-19.5 83q-43 -61 -90 -88t-96 -27q-70 0 -100.5 48.5t-16.5 131.5l43 244q6 34 4 40.5t-17 8.5l-55 5l5 27h160l-57 -324q-13 -76 2 -110t50 -34q24 0 52.5 13t60 46t65.5 92l56 317h82
l-60 -345q-13 -74 -10 -98t19 -24q15 0 32.5 17.5t30.5 59.5l36 -22q-22 -46 -51.5 -67t-62.5 -21z" />
    <glyph glyph-name="uni01DB" unicode="&#x1db;" horiz-adv-x="676" 
d="M313 812q0 24 14.5 40.5t38.5 16.5q40 0 40 -40q0 -24 -14.5 -41.5t-35.5 -17.5q-19 0 -31 10.5t-12 31.5zM493 812q0 24 14.5 40.5t38.5 16.5q21 0 30.5 -11t9.5 -29q0 -25 -15 -42t-36 -17q-18 0 -30 10.5t-12 31.5zM500 895h-54q-61 63 -101 135v10h90q19 -56 65 -133
v-12zM524 653l5 27h191l-5 -27l-55 -5q-15 -2 -20 -8.5t-11 -40.5l-65 -369q-19 -112 -80 -176t-169 -64q-118 0 -172 69t-33 187l62 353q6 34 4 40.5t-17 8.5l-55 5l5 27h241l-5 -27l-55 -5q-15 -2 -20 -8.5t-11 -40.5l-65 -369q-19 -106 12 -157t114 -51q86 0 137.5 53.5
t69.5 154.5l65 369q6 34 4 40.5t-17 8.5z" />
    <glyph glyph-name="uni01DC" unicode="&#x1dc;" horiz-adv-x="579" 
d="M223 643q0 24 14.5 40.5t38.5 16.5q40 0 40 -40q0 -24 -14.5 -41.5t-35.5 -17.5q-19 0 -31 10.5t-12 31.5zM403 643q0 24 14.5 40.5t38.5 16.5q21 0 30.5 -11t9.5 -29q0 -25 -15 -42t-36 -17q-18 0 -30 10.5t-12 31.5zM410 726h-54q-61 63 -101 135v10h90q19 -56 65 -133
v-12zM468 -5q-40 0 -62.5 27t-19.5 83q-43 -61 -90 -88t-96 -27q-70 0 -100.5 48.5t-16.5 131.5l43 244q6 34 4 40.5t-17 8.5l-55 5l5 27h160l-57 -324q-13 -76 2 -110t50 -34q24 0 52.5 13t60 46t65.5 92l56 317h82l-60 -345q-13 -74 -10 -98t19 -24q15 0 32.5 17.5
t30.5 59.5l36 -22q-22 -46 -51.5 -67t-62.5 -21z" />
    <glyph glyph-name="uni01DD" unicode="&#x1dd;" horiz-adv-x="493" 
d="M252 545q91 0 141.5 -54t50.5 -147t-36.5 -177t-96.5 -130.5t-132 -46.5q-75 0 -112.5 32.5t-37.5 90.5q0 88 81.5 138t231.5 50h16l2 39q0 67 -32 101.5t-91 34.5q-37 0 -71 -11t-73 -30v71q49 22 84 30.5t75 8.5zM184 60q51 0 95.5 46.5t66.5 126.5h-6q-112 0 -171 -29
t-59 -84q0 -26 17.5 -43t56.5 -17z" />
    <glyph glyph-name="uni01DE" unicode="&#x1de;" horiz-adv-x="562" 
d="M292 1001h269l-15 -71h-269zM253 808q0 24 14.5 40.5t38.5 16.5q40 0 40 -40q0 -24 -14 -41.5t-36 -17.5q-19 0 -31 10.5t-12 31.5zM433 808q0 24 14.5 40.5t38.5 16.5q21 0 30.5 -11t9.5 -29q0 -25 -15 -42t-36 -17q-18 0 -30 10.5t-12 31.5zM152 26l-5 -26h-193l5 26
l55 6q11 1 17 3.5t11.5 12.5t16.5 33l299 599h63l89 -599q5 -34 9 -40.5t18 -8.5l54 -6l-4 -26h-240l5 26l56 6q17 2 19.5 8.5t-2.5 40.5l-18 128h-244l-64 -128q-17 -34 -17 -40.5t16 -8.5zM179 241h223l-50 348z" />
    <glyph glyph-name="uni01DF" unicode="&#x1df;" horiz-adv-x="567" 
d="M257 836h269l-15 -71h-269zM218 643q0 24 14.5 40.5t38.5 16.5q40 0 40 -40q0 -24 -14 -41.5t-36 -17.5q-19 0 -31 10.5t-12 31.5zM398 643q0 24 14.5 40.5t38.5 16.5q21 0 30.5 -11t9.5 -29q0 -25 -15 -42t-36 -17q-18 0 -30 10.5t-12 31.5zM444 -5q-37 0 -58.5 22.5
t-23.5 68.5q-34 -53 -73 -74.5t-80 -21.5q-59 0 -96 36.5t-50 97.5t1 136l4 22q13 70 46.5 120t81.5 76.5t102 26.5q42 0 73.5 -16.5t51.5 -46.5q14 11 27 25l26 28h35l-61 -345q-13 -74 -10 -98t19 -24q15 0 32.5 17.5t31.5 59.5l35 -22q-22 -46 -51 -67t-63 -21zM149 234
q-17 -100 4.5 -155t68.5 -55q19 0 43 10.5t50.5 40t54.5 85.5l41 236q-18 39 -44.5 57t-62.5 18q-61 0 -96.5 -48t-49.5 -132z" />
    <glyph glyph-name="uni01E0" unicode="&#x1e0;" horiz-adv-x="562" 
d="M302 1014h269l-15 -71h-269zM347 831q0 28 17 46t42 18q46 0 46 -45q0 -29 -17 -47.5t-40 -18.5q-21 0 -34.5 12t-13.5 35zM152 26l-5 -26h-193l5 26l55 6q11 1 17 3.5t11.5 12.5t16.5 33l299 599h63l89 -599q5 -34 9 -40.5t18 -8.5l54 -6l-4 -26h-240l5 26l56 6
q17 2 19.5 8.5t-2.5 40.5l-18 128h-244l-64 -128q-17 -34 -17 -40.5t16 -8.5zM179 241h223l-50 348z" />
    <glyph glyph-name="uni01E1" unicode="&#x1e1;" horiz-adv-x="567" 
d="M249 836h269l-15 -71h-269zM294 653q0 28 17 46t42 18q46 0 46 -45q0 -29 -17 -47.5t-40 -18.5q-21 0 -34.5 12.5t-13.5 34.5zM444 -5q-37 0 -58.5 22.5t-23.5 68.5q-34 -53 -73 -74.5t-80 -21.5q-59 0 -96 36.5t-50 97.5t1 136l4 22q13 70 46.5 120t81.5 76.5t102 26.5
q42 0 73.5 -16.5t51.5 -46.5q14 11 27 25l26 28h35l-61 -345q-13 -74 -10 -98t19 -24q15 0 32.5 17.5t31.5 59.5l35 -22q-22 -46 -51 -67t-63 -21zM149 234q-17 -100 4.5 -155t68.5 -55q19 0 43 10.5t50.5 40t54.5 85.5l41 236q-18 39 -44.5 57t-62.5 18q-61 0 -96.5 -48
t-49.5 -132z" />
    <glyph glyph-name="uni01E2" unicode="&#x1e2;" horiz-adv-x="824" 
d="M443 842h269l-15 -71h-269zM395 653l5 27h499l-29 -163h-25l-11 105q-1 17 -7.5 21.5t-41.5 4.5h-194l-51 -289h134q24 0 34.5 1.5t15 7t9.5 17.5l32 75h25l-41 -234h-25l-7 75q-1 18 -7.5 22t-41.5 4h-134l-52 -295h204q24 0 34.5 1.5t15 7t9.5 17.5l47 105h26l-29 -163
h-477l4 26l57 6q16 2 20 8.5t10 40.5l23 128h-222l-91 -128q-24 -34 -26 -40.5t14 -8.5l54 -6l-4 -26h-197l5 26l55 6q11 1 17 3.5t14.5 12.5t24.5 33l367 518q25 34 26.5 40.5t-14.5 8.5zM227 241h204l68 385z" />
    <glyph glyph-name="uni01E3" unicode="&#x1e3;" horiz-adv-x="819" 
d="M379 677h269l-15 -71h-269zM733 98q-35 -61 -88 -84.5t-105 -23.5q-68 0 -113.5 32.5t-62.5 89.5q-40 -69 -94 -95.5t-104 -26.5q-62 0 -94.5 30.5t-32.5 82.5q0 39 18.5 72.5t63 54.5t120.5 21h117l14 81q10 54 1.5 84.5t-29 43.5t-49.5 13q-28 0 -54 -12t-43 -43.5
t-20 -91.5l-79 12q3 47 27.5 84.5t67.5 60t101 22.5q60 0 93.5 -24t46.5 -59q33 40 79 61.5t101 21.5q51 0 86 -17t53 -44.5t18 -58.5q0 -49 -34.5 -86.5t-96.5 -58.5t-147 -21h-52q-14 -99 12.5 -148t88.5 -49q24 0 52 9t53 31t38 61zM454 289l-6 -38h45q64 0 104 12.5
t62 33.5t30 45t8 47q0 39 -23 61.5t-62 22.5q-53 0 -97.5 -43.5t-60.5 -140.5zM190 32q21 0 48 9t57.5 36t59.5 79q-2 15 -2 31t1 32h-108q-67 0 -94.5 -31t-27.5 -82q0 -74 66 -74z" />
    <glyph glyph-name="uni01E4" unicode="&#x1e4;" horiz-adv-x="678" 
d="M398 376h229l-33 -149h63l-15 -71h-63l-28 -129q-59 -21 -107.5 -29t-100.5 -8q-128 0 -199.5 71t-71.5 198q0 131 50 239t138.5 167t196.5 59q57 0 106.5 -9.5t100.5 -32.5l-34 -78q-38 17 -80.5 29t-93.5 12q-81 0 -147.5 -49t-104 -136t-37.5 -195q0 -92 48.5 -144
t136.5 -52q69 0 123 18l15 69h-134l15 71h134l16 71h-140z" />
    <glyph glyph-name="uni01E5" unicode="&#x1e5;" horiz-adv-x="504" 
d="M186 -240q-96 0 -161 34v81q31 -19 76 -30.5t82 -11.5q49 0 79 11.5t48 38.5h-143l15 71h157l28 116l10 39h-4q-44 -57 -88 -83t-89 -26q-69 0 -107.5 46t-38.5 132q0 102 33.5 187.5t93 133t134.5 47.5q93 0 136 -93h4l33 83h67l-126 -582h65l-14 -71h-76
q-32 -65 -85 -94t-129 -29zM225 73q45 0 89.5 40.5t73 109t28.5 141.5q0 108 -98 108q-50 0 -90.5 -40.5t-64 -110t-23.5 -145.5q0 -54 21.5 -78.5t63.5 -24.5z" />
    <glyph glyph-name="Gcaron" unicode="&#x1e6;" horiz-adv-x="678" 
d="M555 888q-28 -26 -47 -45.5t-36 -40.5t-39 -53h-66q-10 32 -19.5 53.5t-22 41.5t-31.5 46l18 19q29 -25 53.5 -49.5t43.5 -49.5q29 25 60.5 49.5t68.5 49.5zM484 12q-13 27 -34 44q-63 -66 -160 -66q-80 0 -131 40.5t-69.5 114t-3.5 170.5l11 67q23 143 102 225.5
t202 82.5q77 0 124.5 -30t64 -78t0.5 -102l-90 -21q27 97 1.5 148t-102.5 51q-73 0 -125.5 -53t-72.5 -173l-28 -167q-21 -127 10.5 -185t110.5 -58q41 0 81.5 16.5t66.5 59.5l23 129q7 35 5 41.5t-18 7.5l-74 5l4 27h255l-4 -27l-56 -5q-16 -2 -20.5 -8.5t-10.5 -40.5
l-38 -215h-24z" />
    <glyph glyph-name="gcaron" unicode="&#x1e7;" horiz-adv-x="579" 
d="M448 723q-28 -26 -47 -45.5t-36 -40.5t-39 -53h-66q-10 32 -19.5 53.5t-22 41.5t-31.5 46l18 19q29 -25 53.5 -49.5t43.5 -49.5q29 25 60.5 49.5t68.5 49.5zM428 9q-11 -61 -40.5 -114t-81.5 -85.5t-131 -32.5q-78 0 -116 42t-33 109l57 12q-7 -72 18.5 -102.5
t73.5 -30.5q62 0 106.5 42.5t63.5 149.5l14 76q-34 -47 -72 -66t-77 -19q-59 0 -96.5 36.5t-50.5 97.5t1 136l4 22q13 70 47 120t82 76.5t102 26.5q43 0 75 -16.5t53 -46.5q13 11 26 24.5t26 28.5h35zM149 234q-17 -100 4.5 -155t69.5 -55q20 0 44 10.5t51.5 40t55.5 85.5
l41 234q-18 41 -45.5 59t-64.5 18q-61 0 -97 -48t-50 -132z" />
    <glyph glyph-name="uni01E8" unicode="&#x1e8;" horiz-adv-x="562" 
d="M516 888q-28 -26 -47 -45.5t-36 -40.5t-39 -53h-66q-10 32 -19.5 53.5t-22 41.5t-31.5 46l18 19q29 -25 53.5 -49.5t43.5 -49.5q29 25 60.5 49.5t68.5 49.5zM250 26l-5 -26h-241l5 26l56 6q17 2 21 8.5t10 40.5l91 518q6 35 4 41.5t-17 7.5l-54 6l4 26h241l-4 -26l-56 -6
q-16 -1 -20.5 -7.5t-10.5 -41.5l-49 -279l290 285q29 29 30.5 35.5t-13.5 7.5l-50 6l4 26h196l-4 -26l-53 -6q-10 -1 -16.5 -3.5t-15.5 -11t-29 -28.5l-191 -188l133 -336q10 -24 15.5 -33.5t11 -12t15.5 -3.5l47 -6l-5 -26h-150l-133 352l-92 -91l-32 -180q-6 -34 -4 -40.5
t17 -8.5z" />
    <glyph glyph-name="uni01E9" unicode="&#x1e9;" horiz-adv-x="495" 
d="M465 908q-28 -26 -47 -45.5t-36 -40.5t-39 -53h-66q-10 32 -19.5 53.5t-22 41.5t-31.5 46l18 19q29 -25 53.5 -49.5t43.5 -49.5q29 25 60.5 49.5t68.5 49.5zM357 0l-112 260l-81 -72l-33 -188h-81l116 659q6 34 4 40.5t-17 8.5l-54 5l4 27h159l-88 -499l120 112
q48 44 81.5 72.5t64 47.5t67.5 32l16 -85q-66 -13 -119 -39.5t-97 -64.5l108 -241q13 -30 19 -35.5t21 -7.5l51 -6l-5 -26h-144z" />
    <glyph glyph-name="uni01EA" unicode="&#x1ea;" horiz-adv-x="721" 
d="M454 -223q-45 0 -74.5 21.5t-29.5 63.5q0 33 19 62.5t50 53t68.5 36.5t75.5 13v-27q-47 0 -80.5 -20.5t-51 -53t-17.5 -67.5q0 -52 42 -52q23 0 44.5 18t37.5 63l50 -13q-25 -54 -59.5 -76t-74.5 -22zM614 366l-12 -65q-16 -94 -56 -164t-102 -108.5t-143 -38.5
q-87 0 -140.5 42.5t-72.5 116.5t-3 166l11 65q17 93 57 163t101.5 108.5t142.5 38.5q87 0 140.5 -43t73 -116.5t3.5 -164.5zM528 418q20 114 -12.5 177t-118.5 63q-78 0 -127.5 -58.5t-69.5 -171.5l-29 -165q-20 -115 12.5 -178t117.5 -63q79 0 129 59t69 172z" />
    <glyph glyph-name="uni01EB" unicode="&#x1eb;" horiz-adv-x="562" 
d="M363 -223q-45 0 -74.5 21.5t-29.5 63.5q0 33 19 62.5t50 53t68.5 36.5t75.5 13v-27q-47 0 -80.5 -20.5t-51 -53t-17.5 -67.5q0 -52 42 -52q23 0 44.5 18t37.5 63l50 -13q-25 -54 -59.5 -76t-74.5 -22zM492 242l-4 -22q-19 -109 -83 -169.5t-164 -60.5q-70 0 -114.5 35.5
t-61.5 95t-4 131.5l4 23q20 109 83 169.5t162 60.5q71 0 116 -35.5t62 -95.5t4 -132zM406 268q18 102 -9 154t-89 52q-55 0 -94.5 -43.5t-56.5 -142.5l-10 -61q-18 -102 9 -154.5t88 -52.5q56 0 95.5 44t55.5 143z" />
    <glyph glyph-name="uni01EC" unicode="&#x1ec;" horiz-adv-x="721" 
d="M454 -223q-45 0 -74.5 21.5t-29.5 63.5q0 33 19 62.5t50 53t68.5 36.5t75.5 13v-27q-47 0 -80.5 -20.5t-51 -53t-17.5 -67.5q0 -52 42 -52q23 0 44.5 18t37.5 63l50 -13q-25 -54 -59.5 -76t-74.5 -22zM325 842h269l-15 -71h-269zM614 366l-12 -65q-16 -94 -56 -164
t-102 -108.5t-143 -38.5q-87 0 -140.5 42.5t-72.5 116.5t-3 166l11 65q17 93 57 163t101.5 108.5t142.5 38.5q87 0 140.5 -43t73 -116.5t3.5 -164.5zM528 418q20 114 -12.5 177t-118.5 63q-78 0 -127.5 -58.5t-69.5 -171.5l-29 -165q-20 -115 12.5 -178t117.5 -63
q79 0 129 59t69 172z" />
    <glyph glyph-name="uni01ED" unicode="&#x1ed;" horiz-adv-x="562" 
d="M363 -223q-45 0 -74.5 21.5t-29.5 63.5q0 33 19 62.5t50 53t68.5 36.5t75.5 13v-27q-47 0 -80.5 -20.5t-51 -53t-17.5 -67.5q0 -52 42 -52q23 0 44.5 18t37.5 63l50 -13q-25 -54 -59.5 -76t-74.5 -22zM223 677h269l-15 -71h-269zM492 242l-4 -22q-19 -109 -83 -169.5
t-164 -60.5q-70 0 -114.5 35.5t-61.5 95t-4 131.5l4 23q20 109 83 169.5t162 60.5q71 0 116 -35.5t62 -95.5t4 -132zM406 268q18 102 -9 154t-89 52q-55 0 -94.5 -43.5t-56.5 -142.5l-10 -61q-18 -102 9 -154.5t88 -52.5q56 0 95.5 44t55.5 143z" />
    <glyph glyph-name="uni01EE" unicode="&#x1ee;" horiz-adv-x="528" 
d="M272 401q92 -2 144 -48t52 -128q0 -71 -35 -124t-100.5 -82t-154.5 -29q-48 0 -94.5 11.5t-76.5 28.5v84q39 -22 84.5 -36t91.5 -14q90 0 140.5 42t50.5 116q0 54 -35 82.5t-104 28.5h-78l14 70l245 231h-279l17 80h392l-15 -71zM467 888q-28 -26 -47 -45.5t-36 -40.5
t-39 -53h-66q-10 32 -19.5 53.5t-22 41.5t-31.5 46l18 19q29 -25 53.5 -49.5t43.5 -49.5q29 25 60.5 49.5t68.5 49.5z" />
    <glyph glyph-name="uni01EF" unicode="&#x1ef;" horiz-adv-x="463" 
d="M332 462h-261l16 74h363l-13 -64l-242 -250q82 -6 130 -59t48 -138q0 -78 -34 -138.5t-97.5 -93.5t-146.5 -33q-99 0 -161 34v81q73 -43 163 -43q87 0 137.5 51.5t50.5 137.5q0 68 -41 103t-122 35h-37l13 60zM384 723q-28 -26 -47 -45.5t-36 -40.5t-39 -53h-66
q-10 32 -19.5 53.5t-22 41.5t-31.5 46l18 19q29 -25 53.5 -49.5t43.5 -49.5q29 25 60.5 49.5t68.5 49.5z" />
    <glyph glyph-name="uni01F0" unicode="&#x1f0;" horiz-adv-x="257" 
d="M313 723q-28 -26 -47 -45.5t-36 -40.5t-39 -53h-66q-10 32 -19.5 53.5t-22 41.5t-31.5 46l18 19q29 -25 53.5 -49.5t43.5 -49.5q29 25 60.5 49.5t68.5 49.5zM68 468l4 27h159l-96 -547q-8 -45 -28 -84t-56 -63t-92 -24q-52 0 -83.5 29.5t-27.5 86.5l57 16
q-4 -55 11 -77.5t40 -22.5q36 0 59.5 27.5t36.5 103.5l83 474q6 34 4 40.5t-17 8.5z" />
    <glyph glyph-name="uni01F1" unicode="&#x1f1;" horiz-adv-x="1198" 
d="M119 653l5 27h262q88 0 142 -41.5t74 -112.5t4 -160l-12 -65q-16 -91 -56 -158.5t-102 -105t-144 -37.5h-288l5 26l56 6q17 2 21 8.5t10 40.5l91 518q6 35 4 41t-17 8zM387 648h-105l-108 -616h117q80 0 130.5 56t69.5 165l29 165q19 110 -13.5 170t-119.5 60zM1143 163
l-28 -163h-452l4 22l447 626h-215q-23 0 -34 -1.5t-15.5 -7t-9.5 -17.5l-48 -105h-26l29 163h430l-5 -22l-447 -626h238q24 0 34 1.5t15 7t10 17.5l47 105h26z" />
    <glyph glyph-name="uni01F2" unicode="&#x1f2;" horiz-adv-x="1111" 
d="M119 653l5 27h262q88 0 142 -41.5t74 -112.5t4 -160l-12 -65q-16 -91 -56 -158.5t-102 -105t-144 -37.5h-288l5 26l56 6q17 2 21 8.5t10 40.5l91 518q6 35 4 41t-17 8zM387 648h-105l-108 -616h117q80 0 130.5 56t69.5 165l29 165q19 110 -13.5 170t-119.5 60zM1080 140
q-10 -65 -39 -107.5t-82 -42.5q-35 0 -65.5 15.5t-58 31t-54.5 15.5q-19 0 -39.5 -11.5t-45.5 -40.5l-25 23l350 406h-165q-35 0 -43.5 -3t-15.5 -19l-35 -78h-26l29 166h342l-5 -25l-326 -378q16 9 28.5 12.5t25.5 3.5q28 0 51.5 -13.5t47.5 -27t51 -13.5q32 0 47.5 24
t25.5 69z" />
    <glyph glyph-name="uni01F3" unicode="&#x1f3;" horiz-adv-x="1023" 
d="M448 -5q-37 0 -59 24t-23 73q-35 -57 -75 -79.5t-81 -22.5q-59 0 -96.5 36.5t-50.5 97.5t1 136l4 22q13 70 47 120t82 76.5t102 26.5q41 0 72.5 -15.5t52.5 -43.5l37 213q6 35 4 41t-17 8l-54 5l4 27h160l-104 -590q-13 -74 -10 -98t19 -24q15 0 32.5 17.5t30.5 59.5
l36 -22q-22 -46 -51 -67t-63 -21zM149 234q-17 -100 4.5 -155t69.5 -55q20 0 44 11.5t51.5 42.5t56.5 90l40 227q-19 40 -46 58t-64 18q-61 0 -97 -48t-50 -132zM992 140q-10 -65 -39 -107.5t-82 -42.5q-35 0 -65.5 15.5t-58 31t-54.5 15.5q-19 0 -39.5 -11.5t-45.5 -40.5
l-25 23l350 406h-165q-35 0 -43.5 -3t-15.5 -19l-35 -78h-26l29 166h342l-5 -25l-326 -378q16 9 28.5 12.5t25.5 3.5q28 0 51.5 -13.5t47.5 -27t51 -13.5q32 0 47.5 24t25.5 69z" />
    <glyph glyph-name="uni01F4" unicode="&#x1f4;" horiz-adv-x="678" 
d="M484 12q-13 27 -34 44q-63 -66 -160 -66q-80 0 -131 40.5t-69.5 114t-3.5 170.5l11 67q23 143 102 225.5t202 82.5q77 0 124.5 -30t64 -78t0.5 -102l-90 -21q27 97 1.5 148t-102.5 51q-73 0 -125.5 -53t-72.5 -173l-28 -167q-21 -127 10.5 -185t110.5 -58q41 0 81.5 16.5
t66.5 59.5l23 129q7 35 5 41.5t-18 7.5l-74 5l4 27h255l-4 -27l-56 -5q-16 -2 -20.5 -8.5t-10.5 -40.5l-38 -215h-24zM456 744l-19 22q29 32 49.5 62.5t39.5 76.5h101q-38 -46 -78.5 -84t-92.5 -77z" />
    <glyph glyph-name="uni01F5" unicode="&#x1f5;" horiz-adv-x="579" 
d="M428 9q-11 -61 -40.5 -114t-81.5 -85.5t-131 -32.5q-78 0 -116 42t-33 109l57 12q-7 -72 18.5 -102.5t73.5 -30.5q62 0 106.5 42.5t63.5 149.5l14 76q-34 -47 -72 -66t-77 -19q-59 0 -96.5 36.5t-50.5 97.5t1 136l4 22q13 70 47 120t82 76.5t102 26.5q43 0 75 -16.5
t53 -46.5q13 11 26 24.5t26 28.5h35zM149 234q-17 -100 4.5 -155t69.5 -55q20 0 44 10.5t51.5 40t55.5 85.5l41 234q-18 41 -45.5 59t-64.5 18q-61 0 -97 -48t-50 -132zM338 579l-19 22q29 32 49.5 62.5t39.5 76.5h101q-38 -46 -78.5 -84t-92.5 -77z" />
    <glyph glyph-name="uni01F6" unicode="&#x1f6;" horiz-adv-x="897" 
d="M200 333l-70 -333h-89l151 714h89l-64 -302h278l64 302h88l-110 -519q-6 -30 -6 -48q0 -42 17.5 -60t53.5 -18q43 0 68 32t43 114l69 321h89l-69 -327q-18 -84 -43 -130.5t-63 -67.5t-99 -21q-74 0 -115 37.5t-41 106.5q0 28 7 55l30 144h-278z" />
    <glyph glyph-name="uni01F7" unicode="&#x1f7;" horiz-adv-x="630" 
d="M466 725q76 0 120.5 -52t44.5 -139q0 -43 -6 -72q-28 -161 -152.5 -276t-348.5 -196l-49 -230h-86l203 955h72l-13 -113h5q49 67 98.5 95t111.5 28zM143 77q130 53 217.5 122.5t132.5 156.5t45 178q0 53 -25 83t-70 30q-53 0 -102.5 -40.5t-87.5 -115t-59 -172.5z" />
    <glyph glyph-name="uni01F8" unicode="&#x1f8;" horiz-adv-x="707" 
d="M119 653l5 27h167l228 -534l81 453q6 34 4 40.5t-17 8.5l-55 5l5 27h191l-5 -27l-55 -5q-16 -2 -20.5 -8.5t-10.5 -40.5l-106 -599h-40l-264 613l-94 -532q-6 -34 -4 -40.5t17 -8.5l54 -6l-5 -26h-191l5 26l56 6q17 2 21 8.5t10 40.5l91 518q6 34 4 40.5t-17 8.5z
M359 744q-38 39 -65 77t-49 84h91q5 -47 16 -78t30 -66z" />
    <glyph glyph-name="uni01F9" unicode="&#x1f9;" horiz-adv-x="579" 
d="M594 83q-22 -46 -51.5 -67t-64.5 -21q-46 0 -68 32t-9 100l40 196q15 76 -2 110t-56 34q-24 0 -53.5 -13t-62 -45.5t-67.5 -92.5l-55 -316h-82l72 414q6 34 4 40.5t-17 8.5l-54 5l5 27h156l-18 -106q44 62 92.5 89t97.5 27q74 0 106.5 -49t15.5 -132l-41 -200
q-10 -51 -9 -73.5t20 -22.5q17 0 34.5 17.5t30.5 59.5zM268 579q-38 39 -65 77t-49 84h91q5 -47 16 -78t30 -66z" />
    <glyph glyph-name="Aringacute" unicode="&#x1fa;" horiz-adv-x="562" 
d="M481 700q0 -57 -44 -88l76 -612h-87l-26 222h-242l-117 -222h-98l341 631q-21 25 -21 68q0 46 30 75.5t78 29.5q50 0 80 -28t30 -76zM337 839q44 40 110 119h110v-9q-24 -24 -75.5 -62.5t-82.5 -57.5h-62v10zM427 699q0 26 -15.5 41t-40.5 15q-23 0 -39 -14.5t-16 -41.5
q0 -26 14.5 -40.5t40.5 -14.5q25 0 40.5 14.5t15.5 40.5zM348 587q-21 -45 -33.5 -69.5t-113.5 -215.5h189l-16 141l-13 144h-13zM218 714z" />
    <glyph glyph-name="aringacute" unicode="&#x1fb;" horiz-adv-x="567" 
d="M323 839q50 46 110 119h110v-9q-25 -25 -75.5 -62t-83.5 -57h-61v9zM462 690q0 -48 -30 -76.5t-78 -28.5q-50 0 -79.5 28t-29.5 76q0 47 31 76t78 29q48 0 78 -28t30 -76zM409 689q0 26 -16 40.5t-39 14.5q-25 0 -40 -14.5t-15 -40.5q0 -25 13.5 -40t41.5 -15
q24 0 39.5 16t15.5 39zM193 -10q-67 0 -106 48t-39 135q0 100 34.5 186.5t95 136.5t133.5 50q45 0 79.5 -24t55.5 -69h5l32 83h67l-114 -536h-70l13 99h-4q-84 -109 -182 -109zM222 63q46 0 92 44t74 114.5t28 143.5q0 48 -26.5 77.5t-69.5 29.5q-49 0 -91.5 -41t-66.5 -111
t-24 -149q0 -54 22 -81t62 -27z" />
    <glyph glyph-name="AEacute" unicode="&#x1fc;" horiz-adv-x="824" 
d="M395 653l5 27h499l-29 -163h-25l-11 105q-1 17 -7.5 21.5t-41.5 4.5h-194l-51 -289h134q24 0 34.5 1.5t15 7t9.5 17.5l32 75h25l-41 -234h-25l-7 75q-1 18 -7.5 22t-41.5 4h-134l-52 -295h204q24 0 34.5 1.5t15 7t9.5 17.5l47 105h26l-29 -163h-477l4 26l57 6
q16 2 20 8.5t10 40.5l23 128h-222l-91 -128q-24 -34 -26 -40.5t14 -8.5l54 -6l-4 -26h-197l5 26l55 6q11 1 17 3.5t14.5 12.5t24.5 33l367 518q25 34 26.5 40.5t-14.5 8.5zM227 241h204l68 385zM600 744l-19 22q29 32 49.5 62.5t39.5 76.5h101q-38 -46 -78.5 -84t-92.5 -77z
" />
    <glyph glyph-name="aeacute" unicode="&#x1fd;" horiz-adv-x="819" 
d="M733 98q-35 -61 -88 -84.5t-105 -23.5q-68 0 -113.5 32.5t-62.5 89.5q-40 -69 -94 -95.5t-104 -26.5q-62 0 -94.5 30.5t-32.5 82.5q0 39 18.5 72.5t63 54.5t120.5 21h117l14 81q10 54 1.5 84.5t-29 43.5t-49.5 13q-28 0 -54 -12t-43 -43.5t-20 -91.5l-79 12
q3 47 27.5 84.5t67.5 60t101 22.5q60 0 93.5 -24t46.5 -59q33 40 79 61.5t101 21.5q51 0 86 -17t53 -44.5t18 -58.5q0 -49 -34.5 -86.5t-96.5 -58.5t-147 -21h-52q-14 -99 12.5 -148t88.5 -49q24 0 52 9t53 31t38 61zM454 289l-6 -38h45q64 0 104 12.5t62 33.5t30 45t8 47
q0 39 -23 61.5t-62 22.5q-53 0 -97.5 -43.5t-60.5 -140.5zM190 32q21 0 48 9t57.5 36t59.5 79q-2 15 -2 31t1 32h-108q-67 0 -94.5 -31t-27.5 -82q0 -74 66 -74zM500 579l-19 22q29 32 49.5 62.5t39.5 76.5h101q-38 -46 -78.5 -84t-92.5 -77z" />
    <glyph glyph-name="Oslashacute" unicode="&#x1fe;" horiz-adv-x="721" 
d="M602 301q-16 -94 -56.5 -164t-102 -108.5t-142.5 -38.5q-57 0 -99.5 19t-70.5 53l-54 -62h-47l80 92q-24 44 -30 100.5t5 122.5l11 65q17 93 57 163t101.5 108.5t142.5 38.5q57 0 99.5 -19t70.5 -53l54 62h47l-80 -92q49 -89 26 -222zM171 263q-5 -31 -6.5 -58t-0.5 -50
l361 415q-28 88 -128 88q-78 0 -127.5 -58.5t-69.5 -171.5zM528 418q11 62 6 108l-361 -416q28 -88 128 -88q79 0 129 59t69 172zM443 744l-19 22q29 32 49.5 62.5t39.5 76.5h101q-38 -46 -78.5 -84t-92.5 -77z" />
    <glyph glyph-name="oslashacute" unicode="&#x1ff;" horiz-adv-x="562" 
d="M489 220q-19 -109 -83 -169.5t-163 -60.5q-44 0 -78 14.5t-58 39.5l-42 -44h-48l69 72q-43 72 -24 180l4 23q20 109 83 169.5t162 60.5q44 0 78.5 -14t58.5 -40l42 44h47l-69 -72q45 -73 25 -181zM148 227q-9 -55 -6 -96l263 275q-23 68 -96 68q-55 0 -94.5 -43.5
t-56.5 -142.5zM407 268q5 28 6.5 52.5t-0.5 44.5l-263 -275q23 -70 96 -70q56 0 95 44t56 143zM336 579l-19 22q29 32 49.5 62.5t39.5 76.5h101q-38 -46 -78.5 -84t-92.5 -77z" />
    <glyph glyph-name="uni0200" unicode="&#x200;" horiz-adv-x="562" 
d="M275 771q-30 30 -63 75.5t-47 74.5v10h95q22 -74 71 -148v-12h-56zM446 771q-26 26 -58.5 70t-51.5 80v10h96q19 -66 69 -148v-12h-55zM152 26l-5 -26h-193l5 26l55 6q11 1 17 3.5t11.5 12.5t16.5 33l299 599h63l89 -599q5 -34 9 -40.5t18 -8.5l54 -6l-4 -26h-240l5 26
l56 6q17 2 19.5 8.5t-2.5 40.5l-18 128h-244l-64 -128q-17 -34 -17 -40.5t16 -8.5zM179 241h223l-50 348z" />
    <glyph glyph-name="uni0201" unicode="&#x201;" horiz-adv-x="567" 
d="M241 606q-30 30 -63 75.5t-47 74.5v10h95q22 -74 71 -148v-12h-56zM412 606q-26 26 -58.5 70t-51.5 80v10h96q19 -66 69 -148v-12h-55zM444 -5q-37 0 -58.5 22.5t-23.5 68.5q-34 -53 -73 -74.5t-80 -21.5q-59 0 -96 36.5t-50 97.5t1 136l4 22q13 70 46.5 120t81.5 76.5
t102 26.5q42 0 73.5 -16.5t51.5 -46.5q14 11 27 25l26 28h35l-61 -345q-13 -74 -10 -98t19 -24q15 0 32.5 17.5t31.5 59.5l35 -22q-22 -46 -51 -67t-63 -21zM149 234q-17 -100 4.5 -155t68.5 -55q19 0 43 10.5t50.5 40t54.5 85.5l41 236q-18 39 -44.5 57t-62.5 18
q-61 0 -96.5 -48t-49.5 -132z" />
    <glyph glyph-name="uni0202" unicode="&#x202;" horiz-adv-x="562" 
d="M238 771q31 134 163 134q56 0 90 -29.5t34 -82.5l-1 -22h-52q0 29 -18 45t-62 16q-82 0 -99 -61h-55zM152 26l-5 -26h-193l5 26l55 6q11 1 17 3.5t11.5 12.5t16.5 33l299 599h63l89 -599q5 -34 9 -40.5t18 -8.5l54 -6l-4 -26h-240l5 26l56 6q17 2 19.5 8.5t-2.5 40.5
l-18 128h-244l-64 -128q-17 -34 -17 -40.5t16 -8.5zM179 241h223l-50 348z" />
    <glyph glyph-name="uni0203" unicode="&#x203;" horiz-adv-x="567" 
d="M198 606q31 134 163 134q56 0 90 -29.5t34 -82.5l-1 -22h-52q0 29 -18 45t-62 16q-82 0 -99 -61h-55zM444 -5q-37 0 -58.5 22.5t-23.5 68.5q-34 -53 -73 -74.5t-80 -21.5q-59 0 -96 36.5t-50 97.5t1 136l4 22q13 70 46.5 120t81.5 76.5t102 26.5q42 0 73.5 -16.5
t51.5 -46.5q14 11 27 25l26 28h35l-61 -345q-13 -74 -10 -98t19 -24q15 0 32.5 17.5t31.5 59.5l35 -22q-22 -46 -51 -67t-63 -21zM149 234q-17 -100 4.5 -155t68.5 -55q19 0 43 10.5t50.5 40t54.5 85.5l41 236q-18 39 -44.5 57t-62.5 18q-61 0 -96.5 -48t-49.5 -132z" />
    <glyph glyph-name="uni0204" unicode="&#x204;" horiz-adv-x="514" 
d="M268 771q-30 30 -63 75.5t-47 74.5v10h95q22 -74 71 -148v-12h-56zM439 771q-26 26 -58.5 70t-51.5 80v10h96q19 -66 69 -148v-12h-55zM512 163l-29 -163h-479l5 26l56 6q11 1 16 3.5t8 12t7 33.5l91 518q6 35 4 41t-17 8l-55 5l5 27h467l-29 -163h-26l-10 105
q-1 12 -3.5 17.5t-12 7t-33.5 1.5h-194l-51 -289h134q24 0 34 1.5t15 7t10 17.5l32 75h25l-41 -234h-25l-6 75q-1 18 -8 22t-42 4h-134l-52 -295h206q24 0 34 1.5t15 7t10 17.5l47 105h26z" />
    <glyph glyph-name="uni0205" unicode="&#x205;" horiz-adv-x="499" 
d="M212 606q-30 30 -63 75.5t-47 74.5v10h95q22 -74 71 -148v-12h-56zM383 606q-26 26 -58.5 70t-51.5 80v10h96q19 -66 69 -148v-12h-55zM435 98q-35 -61 -88 -84.5t-105 -23.5q-69 0 -114.5 33t-63 92.5t-3.5 138.5l4 22q12 68 46.5 119.5t87 80.5t118.5 29q51 0 86 -17
t53 -44.5t18 -58.5q0 -50 -35.5 -86t-98 -56.5t-144.5 -26.5l-52 -4q-13 -95 13.5 -142.5t87.5 -47.5q24 0 52 9t53 31t38 61zM156 289l-7 -45l46 3q82 5 126 27t61 53t17 62q0 39 -22.5 61.5t-62.5 22.5q-53 0 -97 -43.5t-61 -140.5z" />
    <glyph glyph-name="uni0206" unicode="&#x206;" horiz-adv-x="514" 
d="M230 771q31 134 163 134q56 0 90 -29.5t34 -82.5l-1 -22h-52q0 29 -18 45t-62 16q-82 0 -99 -61h-55zM512 163l-29 -163h-479l5 26l56 6q11 1 16 3.5t8 12t7 33.5l91 518q6 35 4 41t-17 8l-55 5l5 27h467l-29 -163h-26l-10 105q-1 12 -3.5 17.5t-12 7t-33.5 1.5h-194
l-51 -289h134q24 0 34 1.5t15 7t10 17.5l32 75h25l-41 -234h-25l-6 75q-1 18 -8 22t-42 4h-134l-52 -295h206q24 0 34 1.5t15 7t10 17.5l47 105h26z" />
    <glyph glyph-name="uni0207" unicode="&#x207;" horiz-adv-x="499" 
d="M178 606q31 134 163 134q56 0 90 -29.5t34 -82.5l-1 -22h-52q0 29 -18 45t-62 16q-82 0 -99 -61h-55zM435 98q-35 -61 -88 -84.5t-105 -23.5q-69 0 -114.5 33t-63 92.5t-3.5 138.5l4 22q12 68 46.5 119.5t87 80.5t118.5 29q51 0 86 -17t53 -44.5t18 -58.5
q0 -50 -35.5 -86t-98 -56.5t-144.5 -26.5l-52 -4q-13 -95 13.5 -142.5t87.5 -47.5q24 0 52 9t53 31t38 61zM156 289l-7 -45l46 3q82 5 126 27t61 53t17 62q0 39 -22.5 61.5t-62.5 22.5q-53 0 -97 -43.5t-61 -140.5z" />
    <glyph glyph-name="uni0208" unicode="&#x208;" horiz-adv-x="324" 
d="M160 771q-30 30 -63 75.5t-47 74.5v10h95q22 -74 71 -148v-12h-56zM331 771q-26 26 -58.5 70t-51.5 80v10h96q19 -66 69 -148v-12h-55zM119 653l5 27h241l-5 -27l-56 -5q-10 -1 -15 -4t-8 -12.5t-7 -32.5l-92 -518q-6 -35 -4 -41t18 -8l54 -6l-5 -26h-241l5 26l56 6
q11 1 15.5 3.5t7.5 12t7 33.5l92 518q6 35 4 41t-18 8z" />
    <glyph glyph-name="uni0209" unicode="&#x209;" horiz-adv-x="257" 
d="M76 606q-30 30 -63 75.5t-47 74.5v10h95q22 -74 71 -148v-12h-56zM247 606q-26 26 -58.5 70t-51.5 80v10h96q19 -66 69 -148v-12h-55zM66 468l5 27h159l-60 -345q-13 -74 -10 -98t19 -24q15 0 32.5 17.5t30.5 59.5l36 -22q-22 -46 -51.5 -67t-62.5 -21q-46 0 -68.5 36
t-9.5 111l48 272q6 34 3.5 40.5t-17.5 8.5z" />
    <glyph glyph-name="uni020A" unicode="&#x20a;" horiz-adv-x="324" 
d="M116 771q31 134 163 134q56 0 90 -29.5t34 -82.5l-1 -22h-52q0 29 -18 45t-62 16q-82 0 -99 -61h-55zM119 653l5 27h241l-5 -27l-56 -5q-10 -1 -15 -4t-8 -12.5t-7 -32.5l-92 -518q-6 -35 -4 -41t18 -8l54 -6l-5 -26h-241l5 26l56 6q11 1 15.5 3.5t7.5 12t7 33.5l92 518
q6 35 4 41t-18 8z" />
    <glyph glyph-name="uni020B" unicode="&#x20b;" horiz-adv-x="257" 
d="M52 606q31 134 163 134q56 0 90 -29.5t34 -82.5l-1 -22h-52q0 29 -18 45t-62 16q-82 0 -99 -61h-55zM66 468l5 27h159l-60 -345q-13 -74 -10 -98t19 -24q15 0 32.5 17.5t30.5 59.5l36 -22q-22 -46 -51.5 -67t-62.5 -21q-46 0 -68.5 36t-9.5 111l48 272q6 34 3.5 40.5
t-17.5 8.5z" />
    <glyph glyph-name="uni020C" unicode="&#x20c;" horiz-adv-x="721" 
d="M322 771q-30 30 -63 75.5t-47 74.5v10h95q22 -74 71 -148v-12h-56zM493 771q-26 26 -58.5 70t-51.5 80v10h96q19 -66 69 -148v-12h-55zM614 366l-12 -65q-16 -94 -56 -164t-102 -108.5t-143 -38.5q-87 0 -140.5 42.5t-72.5 116.5t-3 166l11 65q17 93 57 163t101.5 108.5
t142.5 38.5q87 0 140.5 -43t73 -116.5t3.5 -164.5zM528 418q20 114 -12.5 177t-118.5 63q-78 0 -127.5 -58.5t-69.5 -171.5l-29 -165q-20 -115 12.5 -178t117.5 -63q79 0 129 59t69 172z" />
    <glyph glyph-name="uni020D" unicode="&#x20d;" horiz-adv-x="562" 
d="M219 606q-30 30 -63 75.5t-47 74.5v10h95q22 -74 71 -148v-12h-56zM390 606q-26 26 -58.5 70t-51.5 80v10h96q19 -66 69 -148v-12h-55zM492 242l-4 -22q-19 -109 -83 -169.5t-164 -60.5q-70 0 -114.5 35.5t-61.5 95t-4 131.5l4 23q20 109 83 169.5t162 60.5
q71 0 116 -35.5t62 -95.5t4 -132zM406 268q18 102 -9 154t-89 52q-55 0 -94.5 -43.5t-56.5 -142.5l-10 -61q-18 -102 9 -154.5t88 -52.5q56 0 95.5 44t55.5 143z" />
    <glyph glyph-name="uni020E" unicode="&#x20e;" horiz-adv-x="721" 
d="M298 771q31 134 163 134q56 0 90 -29.5t34 -82.5l-1 -22h-52q0 29 -18 45t-62 16q-82 0 -99 -61h-55zM614 366l-12 -65q-16 -94 -56 -164t-102 -108.5t-143 -38.5q-87 0 -140.5 42.5t-72.5 116.5t-3 166l11 65q17 93 57 163t101.5 108.5t142.5 38.5q87 0 140.5 -43
t73 -116.5t3.5 -164.5zM528 418q20 114 -12.5 177t-118.5 63q-78 0 -127.5 -58.5t-69.5 -171.5l-29 -165q-20 -115 12.5 -178t117.5 -63q79 0 129 59t69 172z" />
    <glyph glyph-name="uni020F" unicode="&#x20f;" horiz-adv-x="562" 
d="M188 606q31 134 163 134q56 0 90 -29.5t34 -82.5l-1 -22h-52q0 29 -18 45t-62 16q-82 0 -99 -61h-55zM492 242l-4 -22q-19 -109 -83 -169.5t-164 -60.5q-70 0 -114.5 35.5t-61.5 95t-4 131.5l4 23q20 109 83 169.5t162 60.5q71 0 116 -35.5t62 -95.5t4 -132zM406 268
q18 102 -9 154t-89 52q-55 0 -94.5 -43.5t-56.5 -142.5l-10 -61q-18 -102 9 -154.5t88 -52.5q56 0 95.5 44t55.5 143z" />
    <glyph glyph-name="uni0210" unicode="&#x210;" horiz-adv-x="573" 
d="M266 771q-30 30 -63 75.5t-47 74.5v10h95q22 -74 71 -148v-12h-56zM437 771q-26 26 -58.5 70t-51.5 80v10h96q19 -66 69 -148v-12h-55zM119 653l5 27h271q67 0 109.5 -23.5t60.5 -63.5t9 -91l-5 -30q-11 -64 -51.5 -103.5t-105.5 -53.5l86 -234q9 -24 13.5 -33.5t9.5 -12
t15 -3.5l44 -6l-4 -26h-146l-105 308h-102l-40 -227q-6 -34 -4 -40.5t17 -8.5l54 -6l-5 -26h-241l5 26l56 6q17 2 21 8.5t10 40.5l91 518q6 34 4 40.5t-17 8.5zM397 648h-115l-54 -308h114q51 0 88 33.5t47 94.5l6 38q12 69 -12 105.5t-74 36.5z" />
    <glyph glyph-name="uni0211" unicode="&#x211;" horiz-adv-x="397" 
d="M182 606q-30 30 -63 75.5t-47 74.5v10h95q22 -74 71 -148v-12h-56zM353 606q-26 26 -58.5 70t-51.5 80v10h96q19 -66 69 -148v-12h-55zM332 450q-17 0 -37.5 -11t-43.5 -40t-50 -83l-56 -316h-82l73 414q6 34 4 40.5t-17 8.5l-55 5l5 27h157l-18 -104q39 62 80 88t80 26
q32 0 57 -18t35 -59l-70 -47q-8 38 -23.5 53.5t-38.5 15.5z" />
    <glyph glyph-name="uni0212" unicode="&#x212;" horiz-adv-x="573" 
d="M223 771q31 134 163 134q56 0 90 -29.5t34 -82.5l-1 -22h-52q0 29 -18 45t-62 16q-82 0 -99 -61h-55zM119 653l5 27h271q67 0 109.5 -23.5t60.5 -63.5t9 -91l-5 -30q-11 -64 -51.5 -103.5t-105.5 -53.5l86 -234q9 -24 13.5 -33.5t9.5 -12t15 -3.5l44 -6l-4 -26h-146
l-105 308h-102l-40 -227q-6 -34 -4 -40.5t17 -8.5l54 -6l-5 -26h-241l5 26l56 6q17 2 21 8.5t10 40.5l91 518q6 34 4 40.5t-17 8.5zM397 648h-115l-54 -308h114q51 0 88 33.5t47 94.5l6 38q12 69 -12 105.5t-74 36.5z" />
    <glyph glyph-name="uni0213" unicode="&#x213;" horiz-adv-x="397" 
d="M142 606q31 134 163 134q56 0 90 -29.5t34 -82.5l-1 -22h-52q0 29 -18 45t-62 16q-82 0 -99 -61h-55zM332 450q-17 0 -37.5 -11t-43.5 -40t-50 -83l-56 -316h-82l73 414q6 34 4 40.5t-17 8.5l-55 5l5 27h157l-18 -104q39 62 80 88t80 26q32 0 57 -18t35 -59l-70 -47
q-8 38 -23.5 53.5t-38.5 15.5z" />
    <glyph glyph-name="uni0214" unicode="&#x214;" horiz-adv-x="676" 
d="M335 771q-30 30 -63 75.5t-47 74.5v10h95q22 -74 71 -148v-12h-56zM506 771q-26 26 -58.5 70t-51.5 80v10h96q19 -66 69 -148v-12h-55zM524 653l5 27h191l-5 -27l-55 -5q-15 -2 -20 -8.5t-11 -40.5l-65 -369q-19 -112 -80 -176t-169 -64q-118 0 -172 69t-33 187l62 353
q6 34 4 40.5t-17 8.5l-55 5l5 27h241l-5 -27l-55 -5q-15 -2 -20 -8.5t-11 -40.5l-65 -369q-19 -106 12 -157t114 -51q86 0 137.5 53.5t69.5 154.5l65 369q6 34 4 40.5t-17 8.5z" />
    <glyph glyph-name="uni0215" unicode="&#x215;" horiz-adv-x="579" 
d="M254 606q-30 30 -63 75.5t-47 74.5v10h95q22 -74 71 -148v-12h-56zM425 606q-26 26 -58.5 70t-51.5 80v10h96q19 -66 69 -148v-12h-55zM468 -5q-40 0 -62.5 27t-19.5 83q-43 -61 -90 -88t-96 -27q-70 0 -100.5 48.5t-16.5 131.5l43 244q6 34 4 40.5t-17 8.5l-55 5l5 27
h160l-57 -324q-13 -76 2 -110t50 -34q24 0 52.5 13t60 46t65.5 92l56 317h82l-60 -345q-13 -74 -10 -98t19 -24q15 0 32.5 17.5t30.5 59.5l36 -22q-22 -46 -51.5 -67t-62.5 -21z" />
    <glyph glyph-name="uni0216" unicode="&#x216;" horiz-adv-x="676" 
d="M293 771q31 134 163 134q56 0 90 -29.5t34 -82.5l-1 -22h-52q0 29 -18 45t-62 16q-82 0 -99 -61h-55zM524 653l5 27h191l-5 -27l-55 -5q-15 -2 -20 -8.5t-11 -40.5l-65 -369q-19 -112 -80 -176t-169 -64q-118 0 -172 69t-33 187l62 353q6 34 4 40.5t-17 8.5l-55 5l5 27
h241l-5 -27l-55 -5q-15 -2 -20 -8.5t-11 -40.5l-65 -369q-19 -106 12 -157t114 -51q86 0 137.5 53.5t69.5 154.5l65 369q6 34 4 40.5t-17 8.5z" />
    <glyph glyph-name="uni0217" unicode="&#x217;" horiz-adv-x="579" 
d="M207 606q31 134 163 134q56 0 90 -29.5t34 -82.5l-1 -22h-52q0 29 -18 45t-62 16q-82 0 -99 -61h-55zM468 -5q-40 0 -62.5 27t-19.5 83q-43 -61 -90 -88t-96 -27q-70 0 -100.5 48.5t-16.5 131.5l43 244q6 34 4 40.5t-17 8.5l-55 5l5 27h160l-57 -324q-13 -76 2 -110
t50 -34q24 0 52.5 13t60 46t65.5 92l56 317h82l-60 -345q-13 -74 -10 -98t19 -24q15 0 32.5 17.5t30.5 59.5l36 -22q-22 -46 -51.5 -67t-62.5 -21z" />
    <glyph glyph-name="uni0218" unicode="&#x218;" horiz-adv-x="548" 
d="M125 -242l-18 16q23 35 37.5 69t24.5 80h88q-26 -49 -57 -87t-75 -78zM239 -10q-53 0 -100 16t-76.5 56t-30.5 110l63 20q-3 -67 16 -104t53 -51.5t76 -14.5q82 0 124.5 37.5t42.5 101.5q0 46 -24.5 76t-83.5 54l-74 29q-60 24 -92.5 67t-32.5 107q0 53 24.5 97.5
t74.5 71.5t126 27q62 0 103.5 -18.5t64.5 -49t28 -67t-7 -72.5l-87 -18q28 91 2 142t-108 51q-65 0 -104 -33.5t-39 -100.5q0 -45 22.5 -75.5t80.5 -53.5l74 -30q63 -25 97 -65.5t34 -102.5q0 -53 -26.5 -100.5t-81.5 -77t-139 -29.5z" />
    <glyph glyph-name="uni0219" unicode="&#x219;" horiz-adv-x="458" 
d="M90 -242l-18 16q23 35 37.5 69t24.5 80h88q-26 -49 -57 -87t-75 -78zM193 -10q-44 0 -82 12t-61.5 39.5t-26.5 72.5l58 20q-1 -65 31 -89t80 -24q56 0 91.5 24.5t35.5 69.5q0 30 -19.5 52.5t-67.5 37.5l-58 19q-48 15 -74.5 48t-26.5 79q0 37 18.5 72t58.5 58.5t106 23.5
q65 0 103.5 -23t51 -59t-1.5 -77l-82 -16q25 69 4 106t-80 37q-48 0 -77 -24.5t-29 -66.5q0 -35 19.5 -55.5t54.5 -31.5l58 -19q52 -16 82.5 -50t30.5 -85q0 -38 -20.5 -73t-64 -56.5t-112.5 -21.5z" />
    <glyph glyph-name="uni021A" unicode="&#x21a;" horiz-adv-x="559" 
d="M133 -242l-18 16q23 35 37.5 69t24.5 80h88q-26 -49 -57 -87t-75 -78zM60 517l29 163h532l-28 -163h-27l-10 105q-1 18 -7.5 22t-41.5 4h-114l-100 -567q-6 -35 -4 -41t17 -8l54 -6l-4 -26h-241l4 26l56 6q11 1 16 3.5t8 12t7 33.5l100 567h-114q-23 0 -33.5 -1.5t-15 -7
t-9.5 -17.5l-48 -105h-26z" />
    <glyph glyph-name="uni021B" unicode="&#x21b;" horiz-adv-x="362" 
d="M80 -242l-18 16q23 35 37.5 69t24.5 80h88q-26 -49 -57 -87t-75 -78zM334 102q-27 -64 -62.5 -88t-75.5 -24q-76 0 -102 49t-13 126l43 250q6 33 4 39.5t-18 8.5l-54 5l5 27h77l23 131l85 17l-26 -148h163l-6 -32h-163l-56 -318q-13 -71 0.5 -97t40.5 -26t47.5 21.5
t38.5 77.5z" />
    <glyph glyph-name="uni021C" unicode="&#x21c;" horiz-adv-x="538" 
d="M525 565q0 -75 -48.5 -126.5t-135.5 -69.5v-2q64 -10 101.5 -51t37.5 -106t-34.5 -115t-99.5 -77.5t-154 -27.5q-115 0 -193 39v85q42 -24 94.5 -37t103.5 -13q88 0 138.5 40.5t50.5 109.5q0 118 -157 118h-102l15 73h95q91 0 143.5 39.5t52.5 108.5q0 49 -29.5 73
t-80.5 24q-82 0 -173 -58l-36 64q52 35 107 51.5t120 16.5q85 0 134.5 -43t49.5 -116z" />
    </font>
</defs>
</svg>
