<?xml version="1.0" standalone="no"?>
<!DOCTYPE svg PUBLIC "-//W3C//DTD SVG 1.1//EN" "http://www.w3.org/Graphics/SVG/1.1/DTD/svg11.dtd" >
<svg xmlns="http://www.w3.org/2000/svg" xmlns:xlink="http://www.w3.org/1999/xlink" version="1.1">
<metadata>
Created by FontForge 20190801 at Mon Feb  8 12:15:25 2021
 By root
Roman Jokiranta
</metadata>
<defs>
<font id="Insomnia-Regular" horiz-adv-x="300" >
  <font-face 
    font-family="Insomnia"
    font-weight="400"
    font-stretch="normal"
    units-per-em="1000"
    panose-1="0 0 5 0 0 0 0 0 0 0"
    ascent="800"
    descent="-200"
    x-height="419"
    cap-height="687"
    bbox="-229 -518.571 1333 1046"
    underline-thickness="50"
    underline-position="-100"
    unicode-range="U+0001-206F"
  />
<missing-glyph horiz-adv-x="364" 
d="M33 0v666h265v-666h-265zM66 33h199v600h-199v-600z" />
    <glyph glyph-name=".notdef" horiz-adv-x="364" 
d="M33 0v666h265v-666h-265zM66 33h199v600h-199v-600z" />
    <glyph glyph-name="uni0000" 
 />
    <glyph glyph-name="uni0000" 
 />
    <glyph glyph-name="uni000D" unicode="&#xd;" 
 />
    <glyph glyph-name="uni0001" 
 />
    <glyph glyph-name="uni0002" 
 />
    <glyph glyph-name="uni0003" 
 />
    <glyph glyph-name="uni0004" 
 />
    <glyph glyph-name="uni0005" 
 />
    <glyph glyph-name="uni0006" 
 />
    <glyph glyph-name="uni0007" 
 />
    <glyph glyph-name="uni0008" 
 />
    <glyph glyph-name="uni0009" unicode="&#x9;" 
 />
    <glyph glyph-name="uni000A" unicode="&#xa;" 
 />
    <glyph glyph-name="uni000B" 
 />
    <glyph glyph-name="uni000C" 
 />
    <glyph glyph-name="uni000E" 
 />
    <glyph glyph-name="uni000F" 
 />
    <glyph glyph-name="uni0010" 
 />
    <glyph glyph-name="uni0011" 
 />
    <glyph glyph-name="uni0012" 
 />
    <glyph glyph-name="uni0013" 
 />
    <glyph glyph-name="uni0014" 
 />
    <glyph glyph-name="uni0015" 
 />
    <glyph glyph-name="uni0016" 
 />
    <glyph glyph-name="uni0017" 
 />
    <glyph glyph-name="uni0018" 
 />
    <glyph glyph-name="uni0019" 
 />
    <glyph glyph-name="uni001A" 
 />
    <glyph glyph-name="uni001B" 
 />
    <glyph glyph-name="uni001C" 
 />
    <glyph glyph-name="uni001D" 
 />
    <glyph glyph-name="uni001E" 
 />
    <glyph glyph-name="uni001F" 
 />
    <glyph glyph-name="space" unicode=" " 
 />
    <glyph glyph-name="exclam" unicode="!" horiz-adv-x="219" 
d="M215.5 654.5q4.5 -9.5 2.5 -20.5l-99 -523q-2 -10 -12.5 -15.5t-20.5 -2.5q-11 3 -15.5 12t-2.5 21l99 522q2 11 12.5 16.5t20.5 2.5q11 -3 15.5 -12.5zM95.5 45.5q7.5 -7.5 7.5 -18.5t-7.5 -19t-18.5 -8t-19 8t-8 19t8 18.5t19 7.5t18.5 -7.5z" />
    <glyph glyph-name="quotedbl" unicode="&#x22;" horiz-adv-x="206" 
d="M99 692q-2 -1 -9 0t-13.5 -9.5t-9.5 -37.5q7 4 9 4q12 1 21 -8t9 -21q0 -9 -6.5 -16t-18.5 -8q-10 -2 -19.5 4.5t-10.5 17.5l-1 13l1 10q1 34 13.5 48t25.5 14q6 0 8 -2q4 -4 1 -9zM199 692q-2 -1 -9 0t-13.5 -9.5t-9.5 -37.5q7 4 9 4q12 1 21 -8t9 -21q0 -9 -6.5 -16
t-18.5 -8q-10 -2 -19.5 4.5t-10.5 17.5l-1 13l1 10q1 34 13.5 48t25.5 14q6 0 8 -2q4 -4 1 -9z" />
    <glyph glyph-name="numbersign" unicode="#" horiz-adv-x="587" 
d="M580 416.5q7 -8.5 7 -18.5q0 -12 -8.5 -19t-20.5 -6q-22 -1 -68 -1h-47l-21 -121h124q10 0 17 -8.5t7 -18.5q0 -12 -8.5 -19t-20.5 -6q-22 -1 -68 -1h-60l-19 -114q-2 -10 -12.5 -15.5t-20.5 -2.5q-11 3 -16 12t-3 20l12 67q4 22 5 33l-126 -1l-19 -113
q-2 -10 -12.5 -15.5t-20.5 -2.5q-11 3 -16 12t-3 20l12 67q4 22 5 32h-106q-10 0 -17.5 9.5t-5.5 19.5q1 11 9 17.5t19 7.5l68 -1h42l21 121h-119q-10 0 -17.5 9.5t-5.5 19.5q1 11 9 17.5t19 7.5l68 -1h55l23 135q2 9 10 14.5t17 5.5q13 0 19.5 -10.5t4.5 -23.5
q-2 -17 -11 -67l-9 -53h126l23 134q2 9 10 14.5t17 5.5q13 0 19.5 -10.5t4.5 -23.5q-2 -17 -11 -67l-9 -53h111q10 0 17 -8.5zM389 372l-126 -1l-21 -120h126z" />
    <glyph glyph-name="dollar" unicode="$" horiz-adv-x="360" 
d="M282.5 648.5q6.5 -10.5 4.5 -23.5l-5 -32q34 -17 55 -50.5t23 -72.5q0 -10 -8 -18t-19 -8t-18.5 7.5t-7.5 18.5q0 10 -12 34t-21 33h-1l-30 -177q3 -3 20.5 -19t29.5 -34q33 -41 40 -84q1 -7 1 -22q0 -44 -21 -70q-14 -18 -33.5 -31t-41.5 -17q-23 -5 -41 -4l-3 -18
q-1 -10 -12 -15.5t-21 -2.5q-11 3 -16 12t-3 20l3 15q-16 6 -40 23q-18 16 -29 33q-24 37 -26 83q0 11 7.5 19t18.5 8t19 -8t8 -19q2 -33 12 -48t27 -30q6 -3 8.5 -4.5t3.5 -2.5l33 196l-29 30q-37 46 -45 83q-4 15 -4 35q0 34 15 59q16 27 45 43t61 15l6 34q2 9 10 14.5
t17 5.5q13 0 19.5 -10.5zM159 486q0 -16 7.5 -34t19.5 -32l11 -14l25 146q-63 -17 -63 -66zM206 131q30 -2 57 16t27 50q0 45 -57 99z" />
    <glyph glyph-name="percent" unicode="%" horiz-adv-x="424" 
d="M295.5 568.5q6.5 -10.5 4.5 -23.5q-2 -17 -11 -67l-67 -394q-2 -10 -12.5 -15.5t-20.5 -2.5q-11 3 -16 12t-3 20l12 67l67 394q2 9 10 14.5t17 5.5q13 0 19.5 -10.5zM139 561q16 0 29 -7q22 -12 32 -38q4 -14 4 -28q0 -29 -9.5 -62.5t-28.5 -57t-46 -23.5
q-17 0 -33.5 10.5t-24.5 26.5q-11 21 -11 48q0 22 7 52q5 24 18 43q18 22 41 32q9 4 22 4zM112.5 484q-13.5 -24 -13.5 -49q0 -27 18 -35q7 -3 16.5 9t16 31.5t6.5 36.5q0 26 -15 31q-15 0 -28.5 -24zM359 295q16 0 29 -7q22 -12 32 -38q4 -14 4 -28q0 -29 -9.5 -62.5
t-28.5 -57t-46 -23.5q-17 0 -33.5 10.5t-24.5 26.5q-11 21 -11 48q0 22 7 52q5 24 18 43q18 22 41 32q9 4 22 4zM332.5 218q-13.5 -24 -13.5 -49q0 -27 18 -35q7 -3 16.5 9t16 31.5t6.5 36.5q0 26 -15 31q-15 0 -28.5 -24z" />
    <glyph glyph-name="ampersand" unicode="&#x26;" horiz-adv-x="446" 
d="M335 557.5q7 -20.5 5 -41.5q-1 -24 -12 -45q-10 -18 -26 -36q-11 -11 -37 -33l-25 -21l-3 -4q14 -40 28 -74l63 -152q4 5 14 20.5t20 32.5q9 16 19.5 45.5t11.5 32.5q4 11 13 16.5t20 2.5q10 -3 16.5 -13t2.5 -20l-6 -15q-19 -51 -38.5 -89t-49.5 -66q5 -11 25 -58
q4 -10 4 -14q0 -15 -13 -22q-8 -4 -14 -4q-7 0 -13.5 3.5t-8.5 9.5l-12 27l-11 26q-16 -9 -33 -15q-25 -8 -60 -8q-68 0 -116.5 34t-48.5 95q0 38 18.5 74.5t49.5 77.5q25 34 58 68l-4 10q-9 26 -14 46q-10 30 -12 46q-3 15 -3 29q0 13 3 25q5 27 21 46q13 16 32 24.5
t41 8.5t41.5 -8.5t31.5 -23.5q15 -17 22 -37.5zM287 527q0 19 -12 31t-28 12q-18 0 -31 -15.5t-13 -47.5q0 -30 15 -75q8 6 24 20q45 38 45 75zM167 299q-21 -28 -40 -64.5t-19 -67.5q0 -71 120 -71q35 0 59 19q-64 146 -91 220q-8 -8 -29 -36z" />
    <glyph glyph-name="quotesingle" unicode="'" horiz-adv-x="106" 
d="M99 692q-2 -1 -9 0t-13.5 -9.5t-9.5 -37.5q7 4 9 4q12 1 21 -8t9 -21q0 -9 -6.5 -16t-18.5 -8q-10 -2 -19.5 4.5t-10.5 17.5l-1 13l1 10q1 34 13.5 48t25.5 14q6 0 8 -2q4 -4 1 -9z" />
    <glyph glyph-name="parenleft" unicode="(" horiz-adv-x="305" 
d="M294.5 751q10.5 -7 10.5 -20q0 -9 -5.5 -17t-14.5 -9q-28 -7 -39 -11t-34.5 -28t-35.5 -70q-15 -57 -23.5 -105t-18.5 -121l-11 -79q-18 -108 -18 -170q0 -28 5 -55q8 -26 19 -40t29 -32l7 -5q13 -7 13 -23q0 -7 -3 -13q-8 -13 -23 -13q-8 0 -13 4q-35 20 -57.5 56
t-27.5 77q-4 24 -4 54q0 24 3 48l15 103l29 196q9 62 18.5 101.5t29.5 76.5q22 37 54.5 64.5t71.5 35.5q13 2 23.5 -5z" />
    <glyph glyph-name="parenright" unicode=")" horiz-adv-x="288" 
d="M261.5 695.5q16.5 -35.5 22.5 -75.5q4 -28 4 -62q0 -27 -1 -40q-2 -36 -8 -98q-7 -84 -25 -201q-12 -73 -20 -109.5t-26 -73.5q-20 -39 -52.5 -67.5t-72.5 -36.5q-11 -2 -20 3t-12 16q-3 10 2.5 21t15.5 12q26 3 56 30.5t53 90.5q8 29 18 89q7 40 26 190q13 130 13 186
q0 57 -12 89.5t-43 57.5q-8 5 -8 18q0 12 8 20q7 7 18 7q12 0 19 -7q28 -24 44.5 -59.5z" />
    <glyph glyph-name="asterisk" unicode="*" horiz-adv-x="228" 
d="M139 678q9 0 17 -6q9 -9 9 -18v-3q8 8 15 8h4q8 0 16 -5q8 -7 10 -18v-3q0 -11 -6 -16l-4 -5q11 0 18 -6q9 -7 10 -17v-3q0 -9 -6 -17q-2 -4 -7 -7t-10 -3h-6q6 -6 4 -18q0 -10 -10 -17q-6 -6 -16 -6t-18 7q0 -10 -6 -16q-7 -9 -17 -9h-4q-10 0 -16 6q-7 5 -9 16
q-4 -2 -10 -4h-3q-10 0 -16 6q-8 6 -10 17v4q0 10 5 15q-9 2 -14 5q-9 9 -9 18v4q0 8 5 16q9 9 16 9l-4 5q-6 5 -6 19q2 11 10 18q8 5 16 5q10 0 22 -10l3 -3v3q0 13 6 20q7 8 18 9h3z" />
    <glyph glyph-name="plus" unicode="+" horiz-adv-x="281" 
d="M273 283q8 -8 8 -19t-8 -18.5t-19 -7.5h-66l-13 -70q-2 -10 -12.5 -15.5t-20.5 -2.5q-11 3 -15.5 12t-2.5 20l10 56h-58q-10 0 -18 8t-8 18q0 11 7.5 19t18.5 8h68l10 55q1 10 11.5 15.5t20.5 2.5q19 -6 19 -27q0 -10 -3 -23.5t-4 -22.5h56q11 0 19 -8z" />
    <glyph glyph-name="comma" unicode="," horiz-adv-x="108" 
d="M99 45q9 -8 9 -18q0 -5 -3 -23q-5 -31 -17 -44t-25 -13q-8 0 -11 3t-2.5 6t4.5 3q2 0 8.5 -1t14 9.5t12.5 34.5q-6 -2 -10 -2q-11 0 -19 8t-8 19t8 18.5t19 7.5t20 -8z" />
    <glyph glyph-name="hyphen" unicode="-" horiz-adv-x="281" 
d="M273 283q8 -8 8 -19t-8 -18.5t-19 -7.5h-178q-10 0 -18 8t-8 18q0 11 7.5 19t18.5 8h178q11 0 19 -8z" />
    <glyph glyph-name="period" unicode="." horiz-adv-x="103" 
d="M95.5 45.5q7.5 -7.5 7.5 -18.5t-7.5 -19t-18.5 -8t-19 8t-8 19t8 18.5t19 7.5t18.5 -7.5z" />
    <glyph glyph-name="slash" unicode="/" horiz-adv-x="221" 
d="M217.5 654.5q4.5 -9.5 2.5 -20.5q-14 -74 -28 -146.5t-27 -140.5l-63 -329q-2 -10 -12.5 -15.5t-20.5 -2.5q-11 3 -15.5 12t-2.5 21l118 615q2 11 12.5 16.5t20.5 2.5q11 -3 15.5 -12.5z" />
    <glyph glyph-name="zero" unicode="0" horiz-adv-x="417" 
d="M340 651.5q26 -14.5 44 -39.5q33 -46 33 -119q0 -45 -11 -107q-21 -129 -64 -231q-64 -155 -155 -155q-51 0 -84 39t-43 92q-10 49 -10 104q0 37 5 80q13 98 45 178q21 50 42.5 84.5t53.5 58.5q18 14 41 22t45 8q32 0 58 -14.5zM188 555.5q-27 -42.5 -48 -102.5
q-38 -106 -38 -219q0 -65 12.5 -114t56.5 -66q10 -5 20 -5q29 0 61 43.5t65 142.5q21 64 33 131q15 77 15 124q0 31 -6 56t-22 43q-23 26 -55 26q-7 0 -23 -4q-44 -13 -71 -55.5z" />
    <glyph glyph-name="one" unicode="1" horiz-adv-x="275" 
d="M268 660q7 -8 7 -18q1 -4 -13.5 -78t-29.5 -155l-74 -386q-1 -9 -9 -14.5t-17 -5.5q-13 0 -20 10.5t-5 23.5l10 50v4l73 386q-44 -62 -101 -97q-7 -4 -14 -4q-10 0 -17.5 9t-7.5 20q0 14 12 21q55 34 88 85t72 137q2 9 10 14.5t17 5.5q12 0 19 -8z" />
    <glyph glyph-name="two" unicode="2" horiz-adv-x="394" 
d="M261 654q33 0 58 -16q23 -14 37 -37t17 -51q4 -52 -27 -112q-80 -173 -205 -361q35 1 71 -8l21 -6q17 -5 36 -9t35 -4q31 0 52 16q5 4 12 4t13.5 -4t9.5 -9q3 -6 3 -13q0 -14 -12 -22q-31 -23 -77 -23q-30 0 -78 12q-5 1 -30.5 8t-47.5 7q-34 0 -54 -19q-7 -7 -17 -7
q-11 0 -19.5 7.5t-8.5 17.5q0 7 4 14q137 204 235 400q17 34 24.5 53.5t7.5 42.5q0 20 -9 38t-26 24q-12 4 -26 4q-31 0 -55 -24t-34 -58q-3 -9 -9.5 -13.5t-14.5 -4.5q-13 0 -22 9.5t-5 23.5q6 25 20 48q34 52 81 65q23 7 40 7z" />
    <glyph glyph-name="three" unicode="3" horiz-adv-x="379" 
d="M297 629q35 -22 52 -58q15 -33 15 -71q0 -54 -31 -95q-19 -24 -46 -42q43 -28 67.5 -74t24.5 -99q0 -52 -22.5 -99t-64.5 -71q-37 -21 -83 -21q-29 0 -57 10t-49 29q-25 23 -39 55t-14 67q0 32 11 58q3 8 9.5 13.5t14.5 5.5q12 0 21 -11t4 -22q-9 -21 -9 -45
q0 -28 13.5 -53.5t37.5 -40.5q27 -15 57 -15q25 0 48 10.5t39 30.5q32 41 32 98q0 35 -14 66q-15 33 -42.5 55t-61.5 28q-18 -1 -43 2q-10 1 -15 11.5t-2 20.5q4 15 24 19l15 1q14 0 27 -3q41 7 69 40t28 74q0 24 -8 41q-10 25 -33 40t-50 15q-29 0 -51 -19.5t-25 -47.5
q-1 -11 -7.5 -18.5t-17.5 -7.5q-10 0 -18.5 8t-7.5 18q5 50 41 84.5t87 34.5q39 0 74 -22z" />
    <glyph glyph-name="four" unicode="4" horiz-adv-x="425" 
d="M227.5 657q8.5 -8 7.5 -18q-17 -189 -109 -345l180 1l66 348q2 11 12.5 16.5t20.5 2.5q11 -3 16 -12.5t3 -20.5l-63 -334h17q12 1 19 -7t7 -19t-7 -19t-19 -8h-27l-33 -173l-1 -3l-9 -48q-2 -9 -10 -14.5t-17 -5.5q-14 0 -20.5 10.5t-4.5 23.5l40 209l-219 -1
q-11 0 -19 8t-8 19q0 8 4 13q54 80 86.5 171.5t40.5 187.5q1 11 8 18.5t19 7.5q11 0 19.5 -8z" />
    <glyph glyph-name="five" unicode="5" horiz-adv-x="426" 
d="M177 659q53 -22 113 -22q52 0 102 18q10 4 20 -2t13 -16q3 -11 -2.5 -20t-16.5 -13q-55 -21 -118 -21q-54 0 -102 16l-27 -162q38 18 71 18q57 0 96 -43t53 -105q8 -35 8 -67q0 -87 -48 -156q-39 -55 -81 -74q-23 -10 -50 -10q-34 0 -66 17q-44 23 -68 64.5t-24 90.5
q0 22 4 39q2 9 8.5 14t15.5 5q12 0 21.5 -9.5t6.5 -23.5q-3 -13 -3 -27q0 -41 26 -75t66 -41q4 -1 12 -1q38 0 69.5 35.5t45.5 78.5q12 36 12 75q0 67 -35 119q-29 41 -68 41q-41 0 -85 -37q-4 -6 -10.5 -9.5t-13.5 -3.5q-14 0 -20.5 10t-4.5 23l42 257q2 10 12.5 15.5
t20.5 2.5h2q1 -1 3 -1z" />
    <glyph glyph-name="six" unicode="6" horiz-adv-x="414" 
d="M289 644q40 0 73.5 -18.5t48.5 -53.5q3 -7 3 -14q0 -14 -12 -22q-6 -3 -13 -3q-17 0 -23 13q-10 21 -30.5 34t-44.5 13q-9 0 -20 -3q-33 -8 -58.5 -31.5t-42.5 -57.5q-15 -28 -25 -59t-20 -74q22 20 48 32q28 11 54 11q28 0 51 -10q55 -22 83.5 -75.5t28.5 -117.5
q0 -53 -19.5 -100t-59.5 -76q-44 -32 -98 -32t-94 34q-35 32 -52 80t-17 101q0 64 21 150q19 79 32 114q21 57 56 100t86 59q21 6 44 6zM226 359q-24 0 -43 -13q-28 -17 -48.5 -38.5t-29.5 -38.5q-3 -25 -3 -50q0 -22 3 -45q9 -50 36.5 -86t71.5 -36q39 0 67.5 23.5
t43.5 59.5t15 73q0 46 -18.5 85t-55.5 57q-19 9 -39 9z" />
    <glyph glyph-name="seven" unicode="7" horiz-adv-x="371" 
d="M357 652.5q10 -6.5 13 -15.5q1 -2 1 -7q0 -14 -14 -23l-27 -50q-72 -130 -105 -196h20q13 0 19.5 -8t6.5 -19t-6.5 -19t-19.5 -8h-46q-69 -151 -62 -281q1 -12 -6.5 -19t-18.5 -7t-19.5 7t-9.5 19q-7 130 58 281h-28q-12 0 -19 8t-7 19t7 19t19 8h52q39 82 118 222
q-33 -6 -67 -6q-79 0 -152 32q-14 6 -14 23q0 6 4 14q7 13 23 13q6 0 14 -3q56 -25 122 -25q56 0 107 18q7 7 18 7q9 3 19 -3.5z" />
    <glyph glyph-name="eight" unicode="8" horiz-adv-x="418" 
d="M236 642.5q28 7.5 56 7.5q58 0 93 -32q33 -32 33 -82q0 -27 -9.5 -55t-24.5 -51q-21 -32 -50.5 -56t-64.5 -37q50 -35 79 -74.5t29 -91.5q0 -46 -23.5 -87t-64.5 -60q-37 -17 -77 -17q-62 0 -106 40q-26 24 -41 57.5t-15 68.5q0 25 9 49q14 38 42 68.5t68 57.5
q-55 46 -64 98q-3 15 -3 31q0 45 22.5 84t61.5 61q22 13 50 20.5zM223.5 583.5q-31.5 -15.5 -51 -43t-19.5 -61.5q0 -31 16.5 -55.5t45.5 -47.5q2 0 3 1q49 7 88 39t53 79q8 24 8 44q0 25 -13 38q-22 22 -65 22q-34 0 -65.5 -15.5zM132.5 249.5q-30.5 -34.5 -30.5 -78.5
q0 -45 31.5 -79t75.5 -35q49 0 83.5 31.5t34.5 81.5q0 38 -24 68.5t-64 57.5q-12 10 -28 19q-48 -31 -78.5 -65.5z" />
    <glyph glyph-name="nine" unicode="9" horiz-adv-x="414" 
d="M251 644q54 0 94 -34q35 -32 52 -80t17 -101q0 -64 -21 -150q-19 -79 -32 -114q-21 -57 -56 -100t-86 -59q-21 -6 -44 -6q-40 0 -73.5 18.5t-48.5 53.5q-3 8 -3 14q0 15 12 22q6 3 13 3q17 0 23 -13q10 -21 30.5 -34t44.5 -13q10 0 20 3q33 8 58.5 31.5t42.5 57.5
q15 28 25 59t20 74q-22 -20 -48 -32q-28 -11 -54 -11q-28 0 -51 10q-55 22 -83.5 75.5t-28.5 117.5q0 53 19.5 100t59.5 76q44 32 98 32zM183 568.5q-29 -23.5 -43.5 -59.5t-14.5 -73q0 -46 18.5 -85t55.5 -57q20 -9 39 -9q24 0 43 13q28 17 48.5 38.5t29.5 38.5q3 26 3 50
q0 23 -3 45q-9 50 -36.5 86t-71.5 36q-39 0 -68 -23.5z" />
    <glyph glyph-name="colon" unicode=":" horiz-adv-x="103" 
d="M95.5 492.5q7.5 -7.5 7.5 -18.5t-7.5 -19t-18.5 -8t-19 8t-8 19t8 18.5t19 7.5t18.5 -7.5zM95.5 45.5q7.5 -7.5 7.5 -18.5t-7.5 -19t-18.5 -8t-19 8t-8 19t8 18.5t19 7.5t18.5 -7.5z" />
    <glyph glyph-name="semicolon" unicode=";" horiz-adv-x="108" 
d="M97.5 492.5q7.5 -7.5 7.5 -18.5t-7.5 -19t-18.5 -8t-19 8t-8 19t8 18.5t19 7.5t18.5 -7.5zM99 45q9 -8 9 -18q0 -5 -3 -23q-5 -31 -17 -44t-25 -13q-8 0 -11 3t-2.5 6t4.5 3q2 0 8.5 -1t14 9.5t12.5 34.5q-6 -2 -10 -2q-11 0 -19 8t-8 19t8 18.5t19 7.5t20 -8z" />
    <glyph glyph-name="less" unicode="&#x3c;" horiz-adv-x="550" 
d="M501 77l-451 207v49l451 235v-78l-359 -178l359 -157v-78zM221 622z" />
    <glyph glyph-name="equal" unicode="=" horiz-adv-x="281" 
d="M273 333q8 -8 8 -19t-8 -18.5t-19 -7.5h-178q-10 0 -18 8t-8 18q0 11 7.5 19t18.5 8h178q11 0 19 -8zM273 233q8 -8 8 -19t-8 -18.5t-19 -7.5h-178q-10 0 -18 8t-8 18q0 11 7.5 19t18.5 8h178q11 0 19 -8z" />
    <glyph glyph-name="greater" unicode="&#x3e;" horiz-adv-x="550" 
d="M50 155l359 157l-359 178v78l451 -235v-49l-451 -207v78zM221 622z" />
    <glyph glyph-name="question" unicode="?" horiz-adv-x="373" 
d="M294 636q45 -30 65 -77q14 -31 14 -71q0 -24 -4 -41q-13 -50 -53 -94q-43 -48 -76.5 -102.5t-32.5 -100.5q0 -11 -7.5 -18t-17.5 -7q-11 0 -18.5 7.5t-7.5 19.5q0 52 31.5 112.5t72.5 102.5q23 24 36.5 42t19.5 39q7 23 7 42q0 28 -12 52q-17 33 -47.5 53t-65.5 20
q-17 0 -30 -4q-21 -6 -38 -19t-23 -31q-6 -16 -6 -32q0 -22 12 -40q4 -7 4 -13q0 -11 -8.5 -18.5t-19.5 -7.5q-13 0 -21 12q-18 30 -18 64q0 40 20.5 72t54 50t72.5 18q52 0 97 -30zM199.5 45.5q7.5 -7.5 7.5 -18.5t-7.5 -19t-18.5 -8t-19 8t-8 19t8 18.5t19 7.5t18.5 -7.5z
" />
    <glyph glyph-name="at" unicode="@" horiz-adv-x="566" 
d="M318 574q73 0 131 -41q77 -55 104 -142q13 -39 13 -85q0 -49 -16 -91q-22 -60 -54.5 -98t-69.5 -38q-13 0 -24 4q-37 16 -52 53q-41 -53 -94 -53q-92 0 -92 130q0 27 3 49q9 71 25 120q11 33 23.5 57t32.5 41q29 23 66 23q36 0 66 -21.5t40 -57.5q4 -13 -5 -22.5
t-21 -9.5q-18 0 -24 18q-5 17 -19.5 29t-31.5 12q-38 0 -58 -39q-44 -85 -44 -198q0 -5 0.5 -21.5t4.5 -30.5t13 -21q8 -7 19 -7t22.5 6t19.5 14q39 39 55 100l12 75q1 9 7.5 14t15.5 5q11 0 19.5 -6t8.5 -17q0 -41 -11 -80l-6 -42q-2 -16 -2 -25q0 -13 4 -24q8 -19 17 -21
l6 -1q3 0 9 2q18 8 38 35.5t33.5 66.5t13.5 80q0 44 -18 84t-57 72l-9 8q-1 0 -3 2q-10 8 -16 11q-6 4 -18 10l-8 4l-2 1l-5 2l-22 6q-6 2 -10 2q-2 1 -5 1l-3 1q-6 1 -20 1t-21 -1q-1 0 -3 -0.5t-2 0.5q0 -1 -2 -1q-3 0 -9 -2q-6 -1 -18 -5l-11 -3q0 -1 -0.5 -1h-0.5l-2 -1
q-15 -8 -17 -9l-17 -10l-8 -6v0l-3 -3q-17 -13 -29 -27q-4 -6 -7 -9l-1 -2l-2 -2q-7 -8 -11 -17q-13 -19 -21 -37l-3 -7v0l-3 -9q-4 -9 -7 -20q-5 -14 -11 -42q-4 -16 -5 -24q0 -4 -1 -6v-1l-1 -11q-1 -9 -1 -28q0 -13 1 -20q0 -2 0.5 -5t0.5 0v-3l2 -9l4 -17l6 -16l2 -6
l4 -8l10 -17l5 -7q1 -1 2 -3t3 -3q11 -15 23 -25l8 -6l2 -2l1 -1q3 -2 6.5 -4.5t8.5 -5.5q13 -7 17 -9t5 -2q0 -1 2 -1l7 -3q15 -6 39 -10h2q3 0 5 -1h10h20q8 0 12 1h2h2l20 4q11 3 20 7l5 2v0q6 2 9 4q6 3 13 3q16 0 23 -13q3 -6 3 -12q0 -17 -13 -24q-50 -25 -106 -25
q-50 0 -98 20q-37 16 -67 44.5t-48 64.5q-19 40 -25 84q-1 9 -1 27q0 36 8 74q20 99 74 166q26 33 62 56.5t76 32.5q27 5 48 5z" />
    <glyph glyph-name="A" unicode="A" horiz-adv-x="574" 
d="M561 660.5q32 -26.5 32 -69.5q0 -11 -1 -17l-105 -555q-2 -11 -12.5 -16.5t-20.5 -2.5q-11 3 -16 12.5t-3 20.5l50 262h-161q-2 -8 -2 -11l-17 -94q-9 -48 -22 -76q-19 -47 -48 -72q-34 -29 -72 -36q-17 -4 -39 -4q-31 0 -61 11t-53 32q-29 27 -45 65t-15 78q0 44 21 81
q22 42 58 59q28 13 53 13q9 0 29 -4q20 -5 36.5 -17.5t26.5 -30.5q3 -6 3 -14q0 -16 -13 -22q-6 -3 -12 -3q-15 0 -30 22q-21 14 -41 14q-21 0 -36.5 -12t-22.5 -22q-23 -32 -23 -69q0 -33 17.5 -63.5t46 -49t60.5 -18.5q28 0 53 14q16 7 38.5 33.5t37.5 95.5l18 100h-34
q-11 0 -18.5 8t-7.5 19t8 18.5t18 7.5h44q5 27 7 37l30 166q10 60 53 98t111 38q48 0 80 -26.5zM537 581q0 26 -16.5 38.5t-42.5 12.5q-33 0 -64 -18.5t-40 -46.5l-41 -219h162q28 146 41 219q1 5 1 14z" />
    <glyph glyph-name="B" unicode="B" horiz-adv-x="704" 
d="M386 687q67 0 124 -30q41 -22 70 -57t37 -78q3 -18 3 -38q0 -29 -8 -52q-10 -33 -34 -62q10 -12 26 -38q23 -41 35 -85q10 -38 10 -72q0 -15 -1 -22q-7 -51 -29 -83q-25 -38 -60 -55q-30 -14 -63 -14t-66.5 11.5t-58.5 29.5q-38 30 -50 68q-4 12 -4 29q0 36 20 65
q6 9 16 12q2 1 7 1q9 0 14 -4q8 -4 12 -15q1 -3 1 -9q0 -8 -4 -12q-14 -14 -14 -34q0 -22 17.5 -42.5t46 -34t57.5 -13.5q52 0 84 42q20 34 20 77q0 46 -18 92t-35 68q-3 3 -3 4q-19 -13 -42 -21q-24 -8 -48 -8q-26 0 -45 11q-23 12 -33 39q-3 9 -3 18q0 18 9 31
q15 21 40 28q20 6 43 4q29 -5 50 -14q16 -7 30 -18q26 28 29 75q0 32 -18.5 65.5t-46.5 52.5q-51 34 -112 34q-40 0 -71.5 -12t-44.5 -21q-29 -20 -46.5 -46.5t-30.5 -57.5q-2 -9 -9.5 -14.5t-15.5 -5.5q-13 0 -21.5 11t-4.5 23q19 64 69.5 111.5t116.5 60.5q28 5 53 5z
M369.5 589.5q6.5 -10.5 4.5 -23.5l-52 -283l-17 -94q-9 -48 -22 -76q-19 -47 -48 -72q-34 -29 -72 -36q-17 -4 -39 -4q-31 0 -61 11t-53 32q-29 27 -45 65t-15 78q0 44 21 81q22 42 58 59q28 13 53 13q9 0 29 -4q20 -5 36.5 -17.5t26.5 -30.5q3 -6 3 -14q0 -16 -13 -22
q-6 -3 -12 -3q-15 0 -30 22q-21 14 -41 14q-21 0 -36.5 -12t-22.5 -22q-23 -32 -23 -69q0 -33 17.5 -63.5t46 -49t60.5 -18.5q28 0 53 14q16 7 38.5 33.5t37.5 95.5l35 190l36 196q1 9 8.5 14.5t17.5 5.5q14 0 20.5 -10.5zM422 369q8 -8 34 -8q28 0 39 11q-9 5 -23.5 9.5
t-27.5 4.5q-10 0 -17 -4q-12 -6 -5 -13z" />
    <glyph glyph-name="C" unicode="C" horiz-adv-x="362" 
d="M255 648q29 -19 46 -50t17 -65q0 -22 -5 -37q-2 -9 -9.5 -14.5t-15.5 -5.5q-13 0 -21.5 11t-4.5 23q4 14 4 22q0 33 -24 59.5t-58 26.5q-22 0 -44.5 -14t-43.5 -45q-29 -42 -57.5 -104.5t-32.5 -137.5q0 -1 -0.5 -8.5t-0.5 -26.5q0 -76 32 -145t124 -84q5 -1 16 -1
q119 0 177 169q6 18 20 18q3 0 11 -2q10 -3 15.5 -13.5t2.5 -20.5q-15 -54 -55.5 -110t-97.5 -80q-36 -14 -71 -14q-56 0 -104 28q-61 35 -93 101.5t-32 141.5q0 12 2 34q8 84 45 180t93 147q40 37 95 37q39 0 70 -20z" />
    <glyph glyph-name="D" unicode="D" horiz-adv-x="710" 
d="M477.5 647q36.5 -21 65.5 -52q59 -59 90 -152q11 -35 20 -86q7 -47 7 -80q0 -111 -44 -180q-26 -42 -65.5 -67.5t-85.5 -25.5q-37 0 -68 16q-18 9 -33 23.5t-22 31.5q-11 25 -11 50q0 17 4 30q11 42 46 63q5 4 13 4q15 0 23 -13q4 -5 4 -14q0 -15 -13 -23
q-8 -5 -16 -17.5t-8 -34.5q0 -21 20 -42.5t55 -21.5q13 0 26 3q21 4 47 23t47 58.5t27 99.5q2 28 -2 77t-15 88q-12 43 -24 70.5t-36.5 57t-67.5 61.5q-12 9 -46 21t-72 12q-53 0 -95 -31q-24 -21 -35 -39.5t-22 -60.5q-2 -13 -8 -19q-7 -7 -18 -7t-19.5 8t-7.5 18
q6 52 32 92t68 64q49 29 113 29q23 0 50 -5q40 -8 76.5 -29zM369.5 588.5q6.5 -10.5 4.5 -23.5l-52 -283l-17 -94q-9 -48 -22 -76q-19 -47 -48 -72q-34 -29 -72 -36q-17 -4 -39 -4q-31 0 -61 11t-53 32q-29 27 -45 65t-15 78q0 44 21 81q22 42 58 59q28 13 53 13q9 0 29 -4
q20 -5 36.5 -17.5t26.5 -30.5q3 -6 3 -14q0 -16 -13 -22q-6 -3 -12 -3q-15 0 -30 22q-21 14 -41 14q-21 0 -36.5 -12t-22.5 -22q-23 -32 -23 -69q0 -33 17.5 -63.5t46 -49t60.5 -18.5q28 0 53 14q16 7 38.5 33.5t37.5 95.5l35 190l36 196q1 9 8.5 14.5t17.5 5.5
q14 0 20.5 -10.5z" />
    <glyph glyph-name="E" unicode="E" horiz-adv-x="327" 
d="M291.5 638q26.5 -33 26.5 -73q0 -19 -8 -41q-11 -31 -37.5 -48.5t-58.5 -17.5q-41 0 -70 29q-7 7 -7 17q0 11 8.5 19t18.5 8q11 0 18 -8q15 -13 35 -13q11 0 19 5q14 7 22.5 21t8.5 30q-1 30 -25 49t-55 19q-15 0 -27 -4q-36 -13 -58.5 -45t-22.5 -71q0 -29 18 -52.5
t45 -31.5q22 1 45 -7q18 -7 18 -25q0 -5 -1 -8q-1 -8 -9 -13t-17 -5q-8 -2 -15 -2q-13 0 -30 5q-47 -8 -81 -50.5t-45 -93.5q-4 -22 -4 -35q0 -39 17.5 -73t50.5 -53q32 -18 68 -18q60 0 110 49t72 120q2 8 8.5 12t13.5 4q11 0 19.5 -7t8.5 -19q0 -5 -1 -8q-28 -92 -86 -147
t-140 -55q-15 0 -23 1q-53 2 -95.5 36t-61.5 86q-14 32 -14 74q0 70 38 129q34 53 86 82q-46 45 -46 108q0 33 13 65q18 45 58.5 75t87.5 30q22 0 37 -5q41 -11 67.5 -44z" />
    <glyph glyph-name="F" unicode="F" horiz-adv-x="436" 
d="M509 695q47 0 75 -20q26 -18 31 -42q1 -5 1 -14q0 -21 -11 -36q-18 -23 -44 -30q-20 -5 -50 -5q-50 1 -120 10l-40 -214h61q11 0 19 -7.5t8 -18.5t-8 -19t-19 -8h-70l-2 -9l-17 -94q-9 -48 -22 -76q-19 -47 -48 -72q-34 -29 -72 -36q-17 -4 -39 -4q-31 0 -61 11t-53 32
q-29 27 -45 65t-15 78q0 44 21 81q22 42 58 59q28 13 53 13q9 0 29 -4q20 -5 36.5 -17.5t26.5 -30.5q3 -6 3 -14q0 -16 -13 -22q-6 -3 -12 -3q-15 0 -30 22q-21 14 -41 14q-21 0 -36.5 -12t-22.5 -22q-23 -32 -23 -69q0 -33 17.5 -63.5t46 -49t60.5 -18.5q28 0 53 14
q16 7 38.5 33.5t37.5 95.5l18 98h-40q-11 0 -19 8t-8 19t8 18.5t19 7.5h50l7 39l34 185l-22 4q-43 10 -92 26l-28 9q-29 10 -49 15.5t-41 5.5q-41 0 -75 -27q-30 -25 -30 -54q0 -32 35 -67q8 -8 25.5 -16t42.5 -8q31 0 71 17q12 4 23 -5t11 -22q0 -15 -20 -24
q-40 -17 -83 -17q-27 0 -49 7q-31 8 -56 28t-38 49q-14 32 -14 59q0 56 53 97q40 31 103 31q39 0 78 -11q36 -10 54 -16l38 -12q25 -7 77 -19q12 23 33.5 40t48.5 26q35 11 74 11zM502 644q-25 0 -49 -8.5t-39 -23.5l-3 -3q29 -4 47 -5q24 -2 53 -2q34 0 45 6q12 6 5 17
q-19 19 -59 19z" />
    <glyph glyph-name="G" unicode="G" horiz-adv-x="373" 
d="M255 669q29 -19 46 -50t17 -65q0 -22 -5 -37q-2 -9 -9.5 -14.5t-15.5 -5.5q-13 0 -21.5 11t-4.5 23q3 11 3 21q0 31 -23 56.5t-56 25.5q-49 0 -91 -61q-23 -34 -52 -107t-34 -149q0 -2 -2 -20t-2 -45q0 -58 14.5 -99.5t53.5 -41.5t76.5 51t64 120t36.5 120q2 10 12 15.5
t20 2.5q10 -2 15.5 -11t3.5 -22q-3 -22 -9 -50.5t-9 -43.5l-13 -66q-25 -124 -33 -158l-13 -60q-1 -1 0.5 -2t2.5 0q51 23 85 72q17 25 28.5 58t25.5 84q3 10 12 13.5t19 1.5t15.5 -13t2.5 -20q-25 -86 -46.5 -130t-61.5 -71q-52 -35 -96 -49q-7 -22 -28 -71
q-14 -32 -42 -50t-59 -18q-21 0 -39.5 8.5t-30.5 24.5q-17 22 -17 50q0 21 10 38q16 28 60 39.5t102 17.5l33 149q-57 -78 -113 -85q-5 -1 -15 -1q-62 0 -92 62t-30 145q0 16 2 42q5 54 23 122t47.5 129.5t67.5 96.5q40 37 95 37q39 0 70 -20zM98.5 -67q-31.5 -7 -38.5 -11
t-11.5 -11.5t-4.5 -14.5q0 -6 3 -12q12 -21 33 -21q20 0 39.5 21t30.5 60q-20 -4 -51.5 -11z" />
    <glyph glyph-name="H" unicode="H" horiz-adv-x="654" 
d="M647 674q5 -9 3 -21l-96 -500l-25 -135q-2 -10 -12.5 -15.5t-20.5 -2.5q-11 3 -15.5 12t-2.5 21l49 263h-207l-23 -118q-4 -18 -10 -38t-14 -36q-20 -46 -48 -69q-34 -26 -72 -33q-16 -3 -33 -3q-69 0 -115 45q-26 25 -40.5 59.5t-14.5 70.5q0 52 22 90q23 39 59 55
q22 12 48 12q14 0 32 -5q19 -5 35 -18t24 -30q3 -6 3 -13q0 -16 -13 -22q-4 -2 -10 -2q-15 0 -30 22q-19 14 -40 14q-20 0 -32.5 -9t-25.5 -22q-24 -31 -24 -70q0 -32 16.5 -61.5t44 -48t59.5 -18.5q24 0 49 12q18 7 41 32t37 92l24 112h-23q-10 0 -18 8t-8 18q0 11 7.5 19
t18.5 8h33l24 128q-7 -1 -22 -1q-46 0 -104 14q-90 20 -165 74q-12 10 -12 24q0 6 3 12q10 12 24 12q8 0 13 -4q52 -38 114 -59.5t125 -21.5q19 0 28 1h8q1 8 3 20t6 28l11 53q4 21 23.5 36t42.5 15q25 -1 44.5 -15.5t25.5 -37.5q3 -12 3 -22q0 -38 -31 -69t-72 -46l-12 -4
q-13 -55 -28 -137h206l46 239v1l15 78q2 11 12.5 16.5t20.5 2.5q11 -3 16 -12zM403 629q-7 0 -11.5 -4t-6.5 -11q-8 -27 -14 -69q32 16 44 40q7 11 7 24q0 12 -10 18q-3 2 -9 2z" />
    <glyph glyph-name="I" unicode="I" horiz-adv-x="435" 
d="M417 687q29 0 49 -14q31 -24 31 -54q0 -11 -5 -21.5t-13 -17.5q-17 -14 -39 -19q-14 -4 -25 -5.5t-19 -3.5l-25 -5l-49 -267l-17 -94q-9 -48 -22 -76q-19 -47 -48 -72q-34 -29 -72 -36q-17 -4 -39 -4q-31 0 -61 11t-53 32q-29 27 -45 65t-15 78q0 44 21 81q22 42 58 59
q28 13 53 13q9 0 29 -4q20 -5 36.5 -17.5t26.5 -30.5q3 -6 3 -14q0 -16 -13 -22q-6 -3 -12 -3q-15 0 -30 22q-21 14 -41 14q-21 0 -36.5 -12t-22.5 -22q-23 -32 -23 -69q0 -33 17.5 -63.5t46 -49t60.5 -18.5q28 0 53 14q16 7 38.5 33.5t37.5 95.5l35 190l29 156l-114 -23
q-31 -6 -45 -16.5t-14 -21.5q0 -9 9 -14q15 -7 21 -12t6 -14q0 -11 -8 -19t-19 -8q-25 0 -43.5 19.5t-18.5 44.5t15.5 46t38.5 32q26 11 56.5 17t36.5 7q22 4 88 17q3 22 13.5 47.5t33.5 37.5q20 10 45 10zM378 597q7 0 59 13q8 1 8 10q0 8 -7.5 15t-19.5 7q-4 0 -18 -4
q-16 -5 -22 -41z" />
    <glyph glyph-name="J" unicode="J" horiz-adv-x="327" 
d="M331 687q29 0 49 -14q31 -24 31 -54q0 -11 -5 -21.5t-13 -17.5q-17 -14 -39 -19q-14 -4 -25 -5.5t-19 -3.5l-25 -5l-44 -236l-16 -84q-25 -124 -33 -158l-13 -60q-1 -1 0.5 -2t2.5 0q51 23 85 72q17 25 26.5 51.5t22.5 73.5q3 10 12.5 15t18.5 3q11 -2 16.5 -11.5
t3.5 -17.5q-25 -83 -44.5 -123.5t-60.5 -67.5q-52 -35 -96 -49q-7 -22 -28 -71q-14 -32 -42 -50t-59 -18q-21 0 -39.5 8.5t-30.5 24.5q-17 22 -17 50q0 21 10 38q16 28 60 39.5t102 17.5l108 545l-114 -23q-31 -6 -45 -16.5t-14 -21.5q0 -9 9 -14q15 -7 21 -12t6 -14
q0 -11 -8 -19t-19 -8q-25 0 -43.5 19.5t-18.5 44.5t15.5 46t38.5 32q26 11 56.5 17t36.5 7q22 4 88 17q3 22 13.5 47.5t33.5 37.5q20 10 45 10zM292 597q7 0 59 13q8 1 8 10q0 8 -7.5 15t-19.5 7q-4 0 -18 -4q-16 -5 -22 -41zM53.5 -67q-31.5 -7 -38.5 -11t-11.5 -11.5
t-4.5 -14.5q0 -6 3 -12q12 -21 33 -21q20 0 39.5 21t30.5 60q-20 -4 -51.5 -11z" />
    <glyph glyph-name="K" unicode="K" horiz-adv-x="695" 
d="M446.5 664.5q19.5 -14.5 25.5 -37.5q3 -12 3 -22q0 -38 -31 -69t-72 -46l-12 -4l-22 -107q8 0 25 3t30 9q16 8 40 24.5t37 32.5q26 22 60.5 77t38.5 62q15 26 28 43t31 30q25 18 53 18q22 0 39 -12q13 -10 13 -24q0 -6 -3 -12q-8 -13 -24 -13q-8 0 -13 4l-4 3q-5 3 -9 3
q-16 0 -33.5 -21.5t-43.5 -63.5l-20 -31q-29 -45 -56.5 -78.5t-61.5 -58.5q-18 -15 -33 -22q58 -58 79 -103t28 -103q4 -47 16 -70.5t30 -23.5q26 0 55 44.5t48 120.5q4 17 22 17q7 0 10 -1q9 -2 14 -8t5 -14q0 -5 -1 -8l-18 -54q-2 -7 -11.5 -34t-22.5 -49q-25 -43 -68 -59
q-18 -5 -32 -5q-34 0 -57 20q-18 15 -26 37.5t-12 52.5q0 11 -7 50t-19 65q-12 24 -21.5 37.5t-12.5 18.5q-23 29 -37.5 36.5t-33.5 5.5q-7 -1 -16.5 -2.5t-16.5 -1.5q-25 -127 -29 -143q-4 -18 -10 -38t-14 -36q-20 -46 -48 -69q-34 -26 -72 -33q-16 -3 -33 -3
q-68 0 -115 45q-26 25 -40.5 59.5t-14.5 70.5q0 52 22 90q23 39 59 55q22 12 48 12q14 0 32 -5q19 -5 35 -18t24 -30q3 -6 3 -13q0 -16 -13 -22q-4 -2 -10 -2q-15 0 -30 22q-19 14 -40 14q-20 0 -32.5 -9t-25.5 -22q-24 -31 -24 -70q0 -32 16.5 -61.5t44 -48t59.5 -18.5
q24 0 49 12q18 7 41 32t37 92q40 192 58 293q-7 -1 -22 -1q-46 0 -104 14q-90 20 -165 74q-12 10 -12 24q0 6 3 12q10 12 24 12q8 0 13 -4q52 -38 114 -59.5t125 -21.5q19 0 28 1h8q1 8 3 20t6 28l11 53q4 21 23.5 36t42.5 15q25 -1 44.5 -15.5zM404 629q-7 0 -11.5 -4
t-6.5 -11q-8 -27 -14 -69q32 16 44 40q7 11 7 24q0 12 -10 18q-3 2 -9 2z" />
    <glyph glyph-name="L" unicode="L" horiz-adv-x="336" 
d="M319 689q29 0 49 -14q31 -24 31 -54q0 -11 -5 -21.5t-13 -17.5q-17 -14 -39 -19q-14 -4 -25 -5.5t-19 -3.5l-26 -5q-17 -98 -45.5 -246t-38.5 -179l25 -31q45 -56 67 -79.5t43 -36t54 -20.5q11 -2 16 -9.5t3 -18.5q-4 -18 -22 -18q-10 0 -38 7q-41 10 -73 40t-70 76
q-20 26 -29 33q-9 -14 -20 -24t-29 -22q-34 -22 -68 -22q-26 0 -50.5 14.5t-36.5 37.5q-10 20 -10 41q0 27 15 46q14 19 34 30q25 13 55 13q38 0 82 -23q2 -1 4 -1.5t3 -1.5q20 82 73 383q-82 -16 -112 -22q-31 -6 -45 -16.5t-14 -21.5q0 -9 9 -14q15 -7 21 -12t6 -14
q0 -11 -8 -19t-19 -8q-25 0 -43.5 19.5t-18.5 44.5t15.5 46t38.5 32q26 11 56.5 17t36.5 7q22 4 88 17q3 22 13.5 47.5t33.5 37.5q20 10 45 10zM287.5 624q-5.5 -12 -7.5 -26q7 0 59 13q8 1 8 10q0 8 -7.5 15t-19.5 7q-4 0 -18 -4q-9 -3 -14.5 -15zM46 131q-21 0 -32.5 -11
t-11.5 -27t11 -28t29 -12q32 0 70 37l6 8l3 7q-44 26 -75 26z" />
    <glyph glyph-name="M" unicode="M" horiz-adv-x="1084" 
d="M663 676q35 -25 51 -64q11 -23 13 -40l3 -18l3 6q43 65 84.5 102t102.5 37q37 0 65 -19q35 -25 54 -70q14 -34 14 -76q0 -32 -6 -68.5t-8 -46.5l-64 -393q-1 -10 -12 -15.5t-21 -3.5q-10 3 -15 13q-5 7 -3 20l32 199l32 196q14 74 11 116q-2 23 -6 39.5t-22 36t-54 19.5
q-39 -2 -82 -42t-75 -94t-39 -92q-14 -72 -29.5 -169t-21.5 -134q-4 -30 -14 -90q-2 -11 -12.5 -16t-20.5 -3q-8 2 -16 12q-3 6 -3 12t1 9q4 25 7 41q25 162 48 293l15 94q3 19 3 23q1 5 1 17q0 47 -20 91.5t-64 47.5q-58 -2 -100.5 -53t-85.5 -134q-18 -124 -37 -226
l-18 -97l-11 -48q-6 -32 -14 -46q-8 -18 -25 -29.5t-36 -11.5q-13 0 -27 8q-18 12 -26.5 32.5t-8.5 44.5q0 41 18 97q13 38 33 86q40 97 80 170l21 39q10 78 14 117q-19 -13 -41 -21q-43 -17 -98 -17q-44 0 -99 12q-90 18 -171 72q-13 10 -13 25q0 6 3 12q4 5 10.5 9t13.5 4
t12 -4q54 -36 116 -56.5t124 -20.5q12 0 36 2q34 3 64.5 18.5t45.5 41.5q6 9 15 14.5t16 5.5q10 0 18 -7.5t8 -17.5q0 -15 -4 -41l-4 -41l7 10q30 43 65 70q20 16 44.5 25t49.5 9q43 0 73 -23zM316 274q-33 -73 -41 -95q-18 -55 -18 -91q0 -15 3 -23.5t7 -9.5q12 -2 20 13.5
t15 53t21 128.5l10 61z" />
    <glyph glyph-name="N" unicode="N" horiz-adv-x="773" 
d="M663 676q35 -25 51 -64q11 -23 13 -40q6 -27 5 -53q0 -30 -5 -62.5t-6 -38.5q-44 -262 -65 -393q-2 -11 -12.5 -16t-20.5 -3q-8 2 -16 12q-3 6 -3 12t1 9q4 25 7 41q25 162 48 293q2 15 6 34q11 66 12 83q1 9 1 25q0 78 -29 104.5t-55 26.5q-55 -2 -100.5 -55t-85.5 -132
q-18 -124 -37 -226l-18 -97l-11 -48q-6 -32 -14 -46q-8 -18 -25 -29.5t-36 -11.5q-13 0 -27 8q-18 12 -26.5 32.5t-8.5 44.5q0 41 18 97q13 38 33 86q40 97 80 170l21 39q10 78 14 117q-19 -13 -41 -21q-43 -17 -98 -17q-44 0 -99 12q-90 18 -171 72q-13 10 -13 25q0 6 3 12
q4 5 10.5 9t13.5 4t12 -4q54 -36 116 -56.5t124 -20.5q12 0 36 2q34 3 64.5 18.5t45.5 41.5q6 9 15 14.5t16 5.5q10 0 18 -7.5t8 -17.5q0 -15 -4 -41l-4 -41l7 10q30 43 65 70q20 16 44.5 25t49.5 9q43 0 73 -23zM316 274q-33 -73 -41 -95q-18 -55 -18 -91q0 -15 3 -23.5
t7 -9.5q12 -2 19.5 12t13.5 47.5t20 118.5l13 78z" />
    <glyph glyph-name="O" unicode="O" horiz-adv-x="651" 
d="M403.5 677q20.5 -14 27.5 -38q3 -12 3 -24q0 -40 -30.5 -72.5t-72.5 -47.5q-24 -10 -63 -15l-9 -24q-15 -50 -20 -80q-7 -53 -7 -96q0 -35 4 -63q8 -55 29 -93t45 -54t54 -16q32 0 55 13q39 16 68.5 60t55.5 137q14 44 18.5 87.5t4.5 45.5q2 32 2 52q0 162 -89 180
q-10 2 -15.5 12t-2.5 20q3 11 12 16t20 3q38 -8 66.5 -37t42.5 -68q15 -40 17 -93q1 -14 1 -42q0 -34 -2 -51q-8 -101 -39 -187q-18 -49 -39 -86.5t-51 -64.5q-27 -23 -59.5 -37t-65.5 -14q-22 0 -42 7q-43 13 -73.5 46.5t-46.5 78.5q-13 33 -20 91q-3 32 -3 62q0 98 32 194
q-30 1 -77 11q-90 18 -171 72q-13 10 -13 25q0 6 3 12q4 5 10.5 9t13.5 4t12 -4q55 -37 117.5 -57.5t125.5 -19.5q29 64 60.5 111.5t65.5 48.5q25 0 45.5 -14zM341 618q-17 -25 -29.5 -49t-16.5 -31q61 17 80 56q7 11 7 23q0 15 -11 20q-13 6 -30 -19z" />
    <glyph glyph-name="P" unicode="P" horiz-adv-x="601" 
d="M475.5 678.5q46.5 -17.5 76.5 -53.5q26 -32 39.5 -71t13.5 -81q0 -17 -1 -25q-7 -53 -24 -92q-18 -42 -48 -68q-46 -38 -97 -38q-37 0 -68 20q-13 10 -13 23q0 7 4 14q9 13 24 13q7 0 12 -4q13 -8 16 -9q13 -3 26 -3q38 0 64.5 28t39 69.5t12.5 80.5q0 16 -4 36
q-8 25 -17 44t-33 42q-38 38 -120 38q-10 0 -36 -2q-117 -16 -146 -100q-2 -8 -4 -18l-3 -15q0 -11 -7.5 -18.5t-18.5 -7.5t-19 8t-8 18v2q2 44 26.5 82.5t63.5 63.5q37 23 83 33q37 8 69 8q51 0 97.5 -17.5zM369.5 588.5q6.5 -10.5 4.5 -23.5l-52 -283l-17 -94
q-9 -48 -22 -76q-19 -47 -48 -72q-34 -29 -72 -36q-17 -4 -39 -4q-31 0 -61 11t-53 32q-29 27 -45 65t-15 78q0 44 21 81q22 42 58 59q28 13 53 13q9 0 29 -4q20 -5 36.5 -17.5t26.5 -30.5q3 -6 3 -14q0 -16 -13 -22q-6 -3 -12 -3q-15 0 -30 22q-21 14 -41 14
q-21 0 -36.5 -12t-22.5 -22q-23 -32 -23 -69q0 -33 17.5 -63.5t46 -49t60.5 -18.5q28 0 53 14q16 7 38.5 33.5t37.5 95.5l35 190l36 196q1 9 8.5 14.5t17.5 5.5q14 0 20.5 -10.5z" />
    <glyph glyph-name="Q" unicode="Q" horiz-adv-x="667" 
d="M403.5 677q20.5 -14 27.5 -38q3 -12 3 -24q0 -40 -30.5 -72.5t-72.5 -47.5q-24 -10 -62 -15l-10 -24q-15 -50 -20 -80q-7 -53 -7 -96q0 -35 4 -63q8 -55 29 -93t45 -54t54 -16q32 0 55 13q37 16 64 55l-1 2q-10 10 -19 10q-3 0 -9 -2q-6 -3 -13 -3q-15 0 -22 13
q-4 8 -4 14q0 7 3.5 13t9.5 9q15 7 33 7q24 0 43 -12l5 -4q17 38 34 95q14 44 18.5 87.5t4.5 45.5q2 32 2 52q0 162 -89 180q-10 2 -15.5 12t-2.5 20q3 11 12 16t20 3q38 -8 66.5 -37t42.5 -68q15 -40 17 -93q1 -14 1 -42q0 -34 -2 -51q-8 -101 -39 -187q-22 -54 -33 -75
l6 -9q10 -20 16 -30q12 -20 20 -27t23 -8l5 1q10 4 20 -2t13 -16q3 -11 -2.5 -20t-16.5 -13q-9 -3 -20 -3q-26 0 -51 18q-18 14 -29 30q-6 10 -17 29q-7 -9 -24 -26q-27 -23 -59.5 -37t-65.5 -14q-22 0 -42 7q-43 13 -73.5 46.5t-46.5 78.5q-13 33 -20 91q-3 32 -3 62
q0 98 32 194q-27 1 -77 11q-90 18 -171 72q-13 10 -13 25q0 6 3 12q4 5 10.5 9t13.5 4t12 -4q55 -37 118 -57.5t125 -19.5q29 64 60.5 111.5t65.5 48.5q25 0 45.5 -14zM341 618q-17 -25 -29.5 -49t-16.5 -31q61 17 80 56q7 11 7 23q0 15 -11 20q-13 6 -30 -19z" />
    <glyph glyph-name="R" unicode="R" horiz-adv-x="645" 
d="M475 679q46 -18 77 -54q26 -31 39.5 -69.5t13.5 -78.5q0 -65 -25 -121q-20 -42 -49 -67q-20 -19 -48 -28q19 -28 29 -56q7 -21 11.5 -46.5t7.5 -49.5q1 -17 9 -56.5t24.5 -76.5t40.5 -44l21 -6q9 -1 14 -9t5 -17q0 -14 -10 -20.5t-23 -4.5q-44 8 -72 44.5t-40 86.5
q-11 48 -22 109l-5 27q-2 14 -17 60q-8 25 -20 37l-13 13q-20 1 -41 8t-28 21q-4 10 -3 21q2 10 10 17.5t18 10.5q5 2 13 2q13 0 24 -6t24 -18q3 -3 9 -3q9 0 16 5q18 8 37 29.5t41 73.5q9 31 9 64q0 23 -3.5 39t-6.5 22q-25 59 -62.5 82t-86.5 23q-66 0 -112 -21t-69 -52
t-23 -62q-1 -11 -8.5 -18.5t-18.5 -7.5t-19 8t-7 18v2q2 44 26 82t63 63q36 24 84 34q35 8 69 8q51 0 97 -18zM369.5 588.5q6.5 -10.5 4.5 -23.5l-52 -283l-17 -94q-9 -48 -22 -76q-19 -47 -48 -72q-34 -29 -72 -36q-17 -4 -39 -4q-31 0 -61 11t-53 32q-29 27 -45 65t-15 78
q0 44 21 81q22 42 58 59q28 13 53 13q9 0 29 -4q20 -5 36.5 -17.5t26.5 -30.5q3 -6 3 -14q0 -16 -13 -22q-6 -3 -12 -3q-15 0 -30 22q-21 14 -41 14q-21 0 -36.5 -12t-22.5 -22q-23 -32 -23 -69q0 -33 17.5 -63.5t46 -49t60.5 -18.5q28 0 53 14q16 7 38.5 33.5t37.5 95.5
l35 190l36 196q1 9 8.5 14.5t17.5 5.5q14 0 20.5 -10.5z" />
    <glyph glyph-name="S" unicode="S" horiz-adv-x="534" 
d="M403.5 674q20.5 -14 27.5 -38q3 -12 3 -24q0 -37 -27.5 -68.5t-66.5 -47.5l2 -5q15 -36 56 -87l20 -27q75 -103 75 -189q0 -44 -18 -80q-23 -48 -68 -78t-98 -30q-55 0 -103 28.5t-70 77.5q-19 43 -19 87q0 69 45 114q34 36 81 36q31 0 55 -16t35 -44q4 -10 -2.5 -20.5
t-16.5 -12.5q-11 -4 -20 2t-13 17t-18 16.5t-26 3.5q-15 -1 -28 -11.5t-21 -24.5q-17 -28 -17 -64q0 -41 21 -74q18 -29 49.5 -45t65.5 -16q27 0 50 10q38 15 60 50.5t22 76.5q0 17 -2 26q-8 39 -27 71.5t-54 79.5q-21 27 -38 53q-22 35 -30 59q-30 -5 -56 -5q-45 0 -98 12
q-90 18 -171 72q-13 10 -13 25q0 6 3 12q4 5 10.5 9t13.5 4t12 -4q54 -36 116 -56.5t124 -20.5q12 0 36 2l11 1v2q-1 7 -1 22q0 51 22 91.5t61 41.5q25 0 45.5 -14zM362 636q-16 0 -24.5 -27.5t-8.5 -60.5q32 17 46 43q7 11 7 23q0 15 -11 20q-6 2 -9 2z" />
    <glyph glyph-name="T" unicode="T" horiz-adv-x="436" 
d="M509 695q47 0 75 -20q26 -18 31 -42q1 -5 1 -14q0 -21 -11 -36q-18 -23 -44 -30q-20 -5 -50 -5q-50 1 -120 10l-40 -214l-11 -62l-17 -94q-9 -48 -22 -76q-19 -47 -48 -72q-34 -29 -72 -36q-17 -4 -39 -4q-31 0 -61 11t-53 32q-29 27 -45 65t-15 78q0 44 21 81
q22 42 58 59q28 13 53 13q9 0 29 -4q20 -5 36.5 -17.5t26.5 -30.5q3 -6 3 -14q0 -16 -13 -22q-6 -3 -12 -3q-15 0 -30 22q-21 14 -41 14q-21 0 -36.5 -12t-22.5 -22q-23 -32 -23 -69q0 -33 17.5 -63.5t46 -49t60.5 -18.5q28 0 53 14q16 7 38.5 33.5t37.5 95.5l18 98l10 53
l7 39l34 185l-22 4q-43 10 -92 26l-28 9q-29 10 -49 15.5t-41 5.5q-41 0 -75 -27q-30 -25 -30 -54q0 -32 35 -67q8 -8 25.5 -16t42.5 -8q31 0 71 17q12 4 23 -5t11 -22q0 -15 -20 -24q-40 -17 -83 -17q-27 0 -49 7q-31 8 -56 28t-38 49q-14 32 -14 59q0 56 53 97
q40 31 103 31q39 0 78 -11q36 -10 54 -16l38 -12q25 -7 77 -19q12 23 33.5 40t48.5 26q35 11 74 11zM502 644q-25 0 -49 -8.5t-39 -23.5l-3 -3q29 -4 47 -5q24 -2 53 -2q34 0 45 6q12 6 5 17q-19 19 -59 19z" />
    <glyph glyph-name="U" unicode="U" horiz-adv-x="637" 
d="M402.5 692q20.5 -14 27.5 -38q3 -12 3 -24q0 -40 -30.5 -72.5t-72.5 -47.5q-13 -5 -23 -8q-6 -32 -16 -98l-12 -91l-10 -96q-5 -47 -5 -74q0 -91 55 -91q5 0 17 2q54 13 87 68.5t60.5 163.5t78.5 357q2 10 12 14.5t20 1.5q11 -2 15.5 -10.5t2.5 -20.5q-11 -66 -93 -475
q-2 -9 -5.5 -26.5t-3.5 -30.5q0 -9 1 -14q2 -11 8 -21t15 -10q13 0 22.5 8.5t19.5 23.5q27 41 54 138q4 15 21 15q5 0 8 -1q11 -2 17 -10t4 -16q-18 -61 -34 -101.5t-40 -70.5q-14 -18 -34 -29t-40 -8q-21 3 -37.5 14t-23.5 29q-9 17 -11 39q-37 -52 -85 -71
q-24 -11 -50 -11q-18 0 -36 6q-22 8 -39.5 23.5t-26.5 36.5q-13 29 -13 69q0 39 7 93l3 32q18 156 32 233q-56 -3 -119 12q-90 18 -171 72q-13 10 -13 25q0 6 3 12q4 5 10.5 9t13.5 4t12 -4q54 -37 116.5 -57.5t125.5 -20.5q11 0 33 2q9 49 17.5 79.5t27 54.5t49.5 25
q25 0 45.5 -14zM359 655q-17 0 -24 -22.5t-15 -70.5q39 18 54 47q7 11 7 23q0 15 -11 20q-6 3 -11 3z" />
    <glyph glyph-name="V" unicode="V" horiz-adv-x="637" 
d="M707.5 684.5q8.5 -8.5 8.5 -19.5t-8 -18.5t-19 -8.5q-23 -1 -42 -18t-32 -41q-10 -20 -18.5 -47.5t-14.5 -53.5l-6 -23q-45 -161 -74 -272q-14 -49 -27 -82t-37.5 -61t-62.5 -38q-20 -4 -29 -4q-41 0 -73 30q-37 35 -46 100q-2 26 -2 38q0 16 1 36.5t2 31.5q2 14 2 21
q5 72 13 129q4 32 14 96q-8 -1 -25 -1q-46 0 -99 12q-90 18 -171 72q-13 10 -13 25q0 6 3 12q4 5 10.5 9t13.5 4t12 -4q54 -36 116 -56.5t124 -20.5q12 0 36 2h4q14 70 25.5 102.5t26 44t39.5 11.5q31 0 52.5 -21.5t21.5 -54.5q0 -40 -30.5 -72.5t-72.5 -47.5l-17 -6
q-7 -38 -16 -103q-7 -56 -12 -116q-6 -70 -6 -105q0 -33 7.5 -59.5t27.5 -43.5q14 -11 32 -11q24 0 43 16t30.5 38.5t20.5 53.5l18 66q9 34 16 59l24 91l45 162q19 64 54 107t92 47q10 1 18.5 -7.5zM361 640q-7 0 -12.5 -5t-6.5 -12l-17 -72q35 17 49 44q7 11 7 23
q0 15 -11 20q-6 2 -9 2z" />
    <glyph glyph-name="W" unicode="W" horiz-adv-x="866" 
d="M936.5 685.5q8.5 -8.5 8.5 -19.5t-8 -18.5t-19 -8.5q-24 -1 -43 -18t-31 -41q-14 -28 -23 -61t-10 -38l-6 -25l-29 -105q-26 -96 -46 -167q-13 -49 -26 -82.5t-37.5 -61.5t-62.5 -37q-20 -4 -29 -4q-43 0 -73 30q-23 22 -36 54q-31 -65 -91 -80q-18 -4 -28 -4
q-41 0 -73 30q-38 36 -46 100q-2 28 -2 43q0 38 5 85q5 66 12 128l5 30q6 44 10 65q-8 -1 -25 -1q-45 0 -100 12q-90 18 -171 72q-13 10 -13 25q0 6 3 12q4 5 10.5 9t13.5 4t12 -4q54 -36 116 -56.5t124 -20.5q12 0 36 2h4q1 8 7.5 51t27 75t54.5 32q25 0 45.5 -14t27.5 -38
q3 -12 3 -24q0 -40 -30.5 -72.5t-72.5 -47.5l-16 -6q-12 -68 -17 -102q-7 -54 -12 -116q-2 -22 -2 -32q-4 -42 -4 -64q0 -37 7 -65.5t29 -46.5q14 -12 32 -12q22 0 42 17q34 28 52 92q27 98 46 211q1 8 9.5 13.5t17.5 5.5q12 0 19 -8t5 -24q-30 -170 -30 -202q0 -65 34 -93
q14 -12 32 -12q24 0 44 17q19 16 30.5 39t19.5 53l35 125q46 176 69 253q43 147 146 154q10 1 18.5 -7.5zM360 640q-13 0 -18.5 -15.5t-11.5 -48.5q-2 -16 -4 -25q35 17 48 44q7 11 7 23q0 15 -11 20q-4 2 -10 2z" />
    <glyph glyph-name="X" unicode="X" horiz-adv-x="626" 
d="M706 662q8 -8 8 -19t-8 -19q-7 -7 -18 -7t-19 7l-4 4q-11 7 -23 7q-15 0 -24.5 -7t-20.5 -18q-25 -25 -133 -235l-74 -138q1 -7 10 -58t29 -88t48 -37h1q37 0 67.5 32.5t49 71t25.5 63.5q4 12 19 12q5 0 15 -2q17 -5 17 -19q0 -3 -2 -9q-27 -84 -79 -143t-109 -59
q-25 0 -48 13q-35 22 -55 68q-15 33 -27 86q-41 -67 -87 -105q-72 -60 -149 -60q-45 0 -86 20.5t-62 59.5q-17 34 -17 70q0 50 32 85q6 8 18 8q11 0 19 -8t8 -18q0 -9 -8 -19q-17 -21 -17 -48q0 -9 1 -13q0 -10 10.5 -31t36 -37.5t67.5 -15.5q67 0 125 58q16 16 48 62t44 69
l-61 291q-52 -10 -130 -26q-31 -6 -45 -16.5t-14 -21.5q0 -9 9 -14q15 -7 21 -12t6 -14q0 -11 -8 -19t-19 -8q-25 0 -43.5 19.5t-18.5 44.5t15.5 46t38.5 32q26 11 56.5 17t36.5 7q22 4 88 17q3 22 13.5 47.5t33.5 37.5q20 10 45 10q29 0 49 -14q31 -24 31 -54
q0 -11 -5 -21.5t-13 -17.5q-17 -14 -39 -19q-14 -4 -25 -5.5t-19 -3.5l-12 -2l20 -95q8 -35 28 -133l83 154l47 88q28 54 47 77q18 22 42.5 35t52.5 13q37 0 61 -23zM326.5 619q-5.5 -12 -7.5 -26q7 0 59 13q8 1 8 10q0 8 -7.5 15t-19.5 7q-4 0 -18 -4q-9 -3 -14.5 -15z" />
    <glyph glyph-name="Y" unicode="Y" horiz-adv-x="634" 
d="M402.5 692q20.5 -14 27.5 -38q4 -18 4 -26q0 -33 -22 -59.5t-51.5 -43.5t-53.5 -23q-6 -32 -16 -98l-9 -70q-14 -96 -14 -135q0 -41 11.5 -64t39.5 -23q5 0 17 2q57 14 89.5 56t61.5 144t75 329q2 10 12 14.5t20 1.5q11 -2 15.5 -10.5t2.5 -20.5q-16 -76 -23 -113
q-30 -141 -59 -288q-25 -124 -33 -158l-13 -60q-1 -1 0.5 -2t2.5 0q51 23 85 72q17 25 29.5 59.5t25.5 82.5q3 10 11 13.5t18 1.5q11 -2 16.5 -13.5t3.5 -19.5q-25 -84 -47 -129t-62 -72q-52 -35 -96 -49q-7 -22 -28 -71q-14 -32 -42 -50t-59 -18q-21 0 -39.5 8.5
t-30.5 24.5q-17 22 -17 50q0 21 10 38q16 28 60 39.5t102 17.5l31 140q-36 -39 -83 -61q-24 -11 -50 -11q-18 0 -36 6q-22 8 -39.5 23.5t-26.5 36.5q-13 29 -13 69q0 19 1 29q1 26 15 115t26 154q-56 -3 -119 12q-90 18 -171 72q-13 10 -13 25q0 6 3 12q4 5 10.5 9t13.5 4
t12 -4q54 -37 116.5 -57.5t125.5 -20.5q11 0 33 2q9 49 17.5 79.5t27 54.5t49.5 25q25 0 45.5 -14zM359 655q-17 0 -24 -22.5t-15 -70.5q39 18 54 47q7 11 7 23q0 15 -11 20q-6 3 -11 3zM358.5 -67q-31.5 -7 -38.5 -11t-11.5 -11.5t-4.5 -14.5q0 -6 3 -12q12 -21 33 -21
q20 0 39.5 21t30.5 60q-20 -4 -51.5 -11z" />
    <glyph glyph-name="Z" unicode="Z" horiz-adv-x="528" 
d="M566 679q23 -10 36 -30q11 -16 11 -34q0 -17 -9.5 -31.5t-24.5 -22.5q-20 -11 -42 -11q-14 0 -30 3.5t-32 8.5l-33 8q-3 -4 -4.5 -7.5t-3.5 -6.5q-10 -18 -43 -84l-44 -86h29q11 0 17.5 -7.5t6.5 -17.5t-6.5 -17.5t-17.5 -7.5h-54l-22 -42q-58 -116 -88 -174l-8 -14
q17 -16 49 -50q38 -42 67 -67l10 -7v-1l5 -3l17 -12q6 -4 11 -6.5l9 -4.5l9 -4l3 -2h2q19 -9 41 -12h1h6q3 -1 10 -1l23 1q9 0 16.5 -8.5t7.5 -17.5q0 -11 -8 -19q-6 -6 -19 -8q-7 -1 -20 -1q-61 0 -120 39q-28 17 -51 38.5t-59 58.5l-39 42q-36 -44 -79 -56q-18 -6 -37 -6
q-25 0 -50 11q-19 8 -33.5 24t-20.5 36q-5 17 -5 31q0 26 12 47q12 20 32 31t44 12q38 3 84 -23q19 -10 41 -27q13 24 28 55l11 22l45 89l15 29h-31q-11 0 -17.5 7.5t-6.5 17.5t6.5 17.5t17.5 7.5h57l50 99q18 34 26 51l18 35q4 8 7 12l-107 27q-17 5 -52 9.5t-49 3.5
q-43 -2 -65.5 -21.5t-22.5 -45.5q0 -22 15 -37q8 -8 8 -19q0 -9 -8 -19q-7 -7 -19 -7t-19 7q-13 13 -20 31t-7 36q0 43 27 76q21 26 55.5 39t73.5 13q26 0 48.5 -4.5t64.5 -14.5l96 -24l11 -3q9 11 14 15q36 36 85 42q25 2 48 -8zM547 632q-9 6 -21 6q-22 0 -46 -21l-1 -1
q32 -22 53 -22q15 0 21.5 9t4.5 17q-2 6 -11 12zM45 144q-23 0 -33 -17t-8 -32q9 -46 46 -46q19 0 40.5 11t28.5 18l13 14l3 4l-12 9q-47 39 -78 39z" />
    <glyph glyph-name="bracketleft" unicode="[" horiz-adv-x="355" 
d="M347 714.5q8 -7.5 8 -18.5t-8 -19t-19 -8h-98l-39 -205l-82 -438h83q11 0 18.5 -7.5t7.5 -18.5t-7.5 -19t-18.5 -8h-115q-11 0 -19 8t-8 19q0 -4 77 407q34 187 55 296q3 13 17 18q3 1 9 1h120q11 0 19 -7.5z" />
    <glyph glyph-name="backslash" unicode="\" horiz-adv-x="221" 
d="M89.5 665.5q10.5 -5.5 12.5 -16.5l118 -615q2 -12 -2.5 -21t-15.5 -12q-10 -3 -20.5 2.5t-12.5 15.5l-63 329q-13 68 -27 140.5t-28 146.5q-2 11 2.5 20.5t15.5 12.5q10 3 20.5 -2.5z" />
    <glyph glyph-name="bracketright" unicode="]" horiz-adv-x="356" 
d="M356 699q0 -8 -2 -17.5t-3 -12.5q-8 -38 -22 -114q0 -4 -1 -6q-89 -478 -99 -523q-2 -8 -4.5 -23t-8 -22.5t-16.5 -7.5h-5h-118q-11 0 -19 7.5t-8 18.5t8 19t19 8h98l122 643h-85q-11 0 -18.5 8t-7.5 19t8 18.5t18 7.5h118h4q22 0 22 -23z" />
    <glyph glyph-name="asciicircum" unicode="^" horiz-adv-x="293" 
d="M201 678q0 -8 91 -223q4 -10 -2 -20t-16 -13q-3 -1 -9 -1q-5 0 -11 3q-9 6 -14 17l-28 70q-23 60 -37 92q-32 -72 -47 -108l-28 -64q-2 -6 -8 -9.5t-13 -3.5q-5 0 -15 4q-8 4 -13 16q-1 2 -1 6t4 14l32 73l66 153q2 6 8.5 9.5t13.5 3.5t13 -3q12 -8 14 -16z" />
    <glyph glyph-name="underscore" unicode="_" horiz-adv-x="481" 
d="M473 -91q8 -8 8 -19t-8 -18.5t-19 -7.5h-378q-10 0 -18 7.5t-8 18.5t7.5 19t18.5 8h378q11 0 19 -8z" />
    <glyph glyph-name="grave" unicode="`" horiz-adv-x="580" 
d="M390 606h-59q-37 29 -80.5 76t-61.5 74v10h105q16 -32 44.5 -76.5t51.5 -71.5v-12z" />
    <glyph glyph-name="a" unicode="a" horiz-adv-x="336" 
d="M135 420q36 0 66 -21.5t40 -57.5q4 -13 -5 -22.5t-21 -9.5q-18 0 -24 18q-5 17 -19.5 29t-31.5 12q-38 0 -58 -39q-44 -85 -44 -198q0 -5 0.5 -21.5t4.5 -30.5t13 -21q8 -7 19 -7t22.5 6t19.5 14q39 39 55 100l12 75q1 9 7.5 14t15.5 5q11 0 19.5 -6t8.5 -17
q0 -41 -11 -80l-6 -42q-2 -16 -2 -25q0 -13 4 -24q8 -19 17 -21q29 -8 51 46q19 46 41 125q2 8 8 12t13 4q13 0 22.5 -10.5t5.5 -23.5l-28 -89q-14 -42 -25 -62q-13 -22 -35.5 -39t-45.5 -17q-12 0 -21 4q-37 16 -52 53q-41 -53 -94 -53q-92 0 -92 130q0 27 3 49
q9 71 25 120q11 33 23.5 57t32.5 41q29 23 66 23z" />
    <glyph glyph-name="b" unicode="b" horiz-adv-x="298" 
d="M112 562l-29 -156q25 15 54 15q26 0 49.5 -13t38 -33t17.5 -40q2 -18 2 -30q0 -58 -19 -130.5t-54 -124t-81 -50.5h-21q-46 3 -64.5 40t-18.5 90q0 28 3 50q1 17 7 51l1 5l65 341q2 10 12.5 15t19.5 2q22 -6 18 -32zM82 330q-11 -21 -22 -57t-15 -58q-6 -45 -6 -91
q0 -52 16 -67q11 -8 22 -8q25 0 52 35t45 88q21 80 21 121q0 71 -52 75q-40 1 -61 -38zM314 235q11 0 19 -6.5t8 -17.5q0 -5 -1 -8q-21 -68 -27 -85q-13 -38 -26 -61q-12 -23 -34.5 -39.5t-45.5 -16.5q-12 0 -21 4q-8 3 -13.5 10t-5.5 15q0 15 11.5 21.5t22.5 3.5
q28 -6 44.5 28.5t37.5 107.5l7 26q6 18 24 18z" />
    <glyph glyph-name="c" unicode="c" horiz-adv-x="250" 
d="M134 422q36 0 66 -21.5t40 -57.5q4 -13 -5 -22.5t-21 -9.5q-18 0 -24 18q-5 16 -19 28.5t-30 12.5q-32 0 -55.5 -41t-36 -94.5t-12.5 -86.5q0 -45 19.5 -71.5t49.5 -26.5q37 0 75 43t62 128q5 15 20 15q14 0 23.5 -10t5.5 -23q-26 -87 -64 -145.5t-112 -58.5q-16 0 -39 5
q-50 12 -71 56.5t-21 101.5q0 14 2 34q7 57 28.5 116.5t52.5 86.5q29 23 66 23z" />
    <glyph glyph-name="d" unicode="d" horiz-adv-x="337" 
d="M294 577.5q5 -9.5 3 -20.5l-62 -331q-3 -15 -10 -65l-6 -42q-2 -12 -2 -21q0 -15 4 -26q7 -18 17 -21q17 -5 33.5 15t23.5 41q13 34 26 82l9 32q2 8 8 12t13 4q13 0 22.5 -10t5.5 -24q-19 -62 -28 -89q-13 -38 -26 -61q-12 -23 -34.5 -39.5t-45.5 -16.5q-12 0 -21 4
q-35 14 -48 48q-53 -53 -105 -49q-83 7 -83 136q0 17 2 43q9 70 26 119q12 34 24.5 57.5t31.5 37.5q30 24 66 24q42 0 75 -30l33 184q2 10 12 15t20 3q11 -2 16 -11.5zM86.5 332q-23.5 -35 -36 -87.5t-12.5 -101.5q0 -32 5.5 -54.5t15.5 -30.5q9 -6 19 -6q11 0 22.5 6
t18.5 14q29 28 48 77l19 101l13 64q-4 18 -16 35.5t-41 17.5q-32 0 -55.5 -35z" />
    <glyph glyph-name="e" unicode="e" horiz-adv-x="251" 
d="M132 419q42 0 75.5 -22.5t33.5 -53.5q0 -33 -18 -58.5t-64 -43.5q-56 -23 -119 -45q-2 -32 -2 -48q3 -43 23 -68.5t49 -25.5q36 0 72.5 41.5t61.5 125.5q4 15 21 15q13 0 22.5 -10t5.5 -23q-24 -77 -64 -140t-115 -63q-19 0 -36 4q-50 12 -71 56.5t-21 101.5q0 14 2 34
q7 57 25 105q12 33 24.5 57t31.5 41q26 20 63 20zM108.5 360.5q-12.5 -9.5 -26.5 -29.5q-21 -32 -32 -77l30 11l49 19q3 1 21 7.5t29 17t11 23.5q0 20 -15 29t-35 9q-19 0 -31.5 -9.5z" />
    <glyph glyph-name="f" unicode="f" horiz-adv-x="153" 
d="M236 660q0 -7 -4 -12q-8 -13 -23 -13q-7 0 -12 4q-13 9 -28 9q-22 0 -39 -21q-8 -9 -13.5 -32.5t-16.5 -83.5h42q11 0 17.5 -7.5t6.5 -17.5t-6.5 -17.5t-17.5 -7.5h-51l-35 -183q-46 -246 -64 -337q-1 -2 -8.5 -35t-32.5 -58q-30 -30 -65 -30q-11 0 -26 5q-18 6 -18 24
q0 11 6.5 18.5t17.5 7.5q5 0 8 -1q6 -2 10 -2q17 0 30.5 18t20.5 38t8 26q12 60 78 420q12 60 17 89h-41q-11 0 -17.5 7.5t-6.5 17.5t6.5 17.5t17.5 7.5h50l7 35q18 96 45 123q31 31 72 31q27 0 52 -17q13 -9 13 -23zM170 238q11 0 19 -6.5t8 -17.5q0 -5 -1 -8
q-22 -70 -28 -88q-13 -38 -26 -61q-12 -23 -34.5 -39.5t-45.5 -16.5q-12 0 -21 4q-8 3 -13.5 10t-5.5 15q0 15 11.5 21.5t22.5 3.5q27 -6 43.5 28t37.5 105l9 33q6 17 24 17z" />
    <glyph glyph-name="g" unicode="g" horiz-adv-x="343" 
d="M140 421q21 0 41.5 -9.5t35.5 -24.5l3 15q2 10 8.5 15t14.5 5q12 0 21.5 -10t6.5 -25q-3 -22 -9 -50.5t-9 -43.5l-13 -66l-8 -39l-2 -12l-23 -107l-13 -60q-1 -1 0.5 -2t2.5 0q51 23 85 72q17 25 26.5 51.5t22.5 73.5q3 10 12.5 15t18.5 3q11 -2 16.5 -11.5t3.5 -17.5
q-25 -83 -44.5 -123.5t-60.5 -67.5q-52 -35 -96 -49q-7 -22 -28 -71q-14 -32 -42 -50t-59 -18q-21 0 -39.5 8.5t-30.5 24.5q-17 22 -17 50q0 21 10 38q16 28 60 39.5t102 17.5l5 22q-28 -14 -70 -14q-43 4 -64 44.5t-21 103.5q0 76 27.5 152t71.5 106q25 15 54 15zM60 283.5
q-21 -83.5 -21 -160.5q0 -52 16 -67q11 -8 22 -8q24 0 50 32.5t46 89.5q21 71 21 117q0 74 -52 78q-61 2 -82 -81.5zM68.5 -67q-31.5 -7 -38.5 -11t-11.5 -11.5t-4.5 -14.5q0 -6 3 -12q12 -21 33 -21q20 0 39.5 21t30.5 60q-20 -4 -51.5 -11z" />
    <glyph glyph-name="h" unicode="h" horiz-adv-x="314" 
d="M105 580q7 -10 5 -23l-28 -149l2 1q25 14 51 14q24 0 43 -12q22 -13 36.5 -35t18.5 -48q2 -18 2 -26q0 -27 -12 -83q-5 -22 -8 -37q-12 -52 -16 -74q-2 -8 -2 -19q0 -17 5.5 -28.5t17.5 -10.5q18 1 29.5 18t21.5 41q7 20 31 95q7 24 27 24q10 0 18.5 -12.5t5.5 -22.5
q-7 -27 -32 -97q-24 -61 -57 -84q-19 -13 -44 -13q-32 0 -50 21q-24 27 -24 69q0 17 3 33q9 44 16 74l8 37q4 16 7.5 34t3.5 33q0 17 -6 35q-6 15 -18 25.5t-26 10.5q-7 0 -15 -3q-23 -8 -36.5 -23t-21.5 -45q-17 -94 -53 -282q-2 -8 -10 -13.5t-17 -5.5q-13 0 -19 10t-4 23
l102 539q1 9 8.5 14t16.5 5q13 0 20 -10z" />
    <glyph glyph-name="i" unicode="i" horiz-adv-x="150" 
d="M83 483q7 -8 7 -18q0 -11 -7 -19t-19 -8t-18.5 8t-6.5 19t6.5 18.5t18.5 7.5t19 -8zM76.5 411.5q4.5 -8.5 2.5 -20.5q-6 -37 -26 -137l-5 -23l-15 -78q-2 -9 -5.5 -26.5t-3.5 -30.5q0 -9 1 -14q2 -11 8 -21t15 -10q13 0 22.5 8.5t19.5 23.5q17 25 26.5 51.5t21.5 69.5
q3 11 13 17.5t19 4.5q10 -2 16 -13.5t3 -19.5q-17 -58 -30.5 -92t-38.5 -64q-14 -18 -34 -29t-40 -8q-21 3 -37.5 14t-23.5 29q-12 24 -12 53q0 17 3 36l18 89l35 185q2 10 12 14.5t20 1.5q11 -2 15.5 -10.5z" />
    <glyph glyph-name="j" unicode="j" horiz-adv-x="149" 
d="M79 483q7 -8 7 -18q0 -11 -7 -19t-19 -8t-18.5 8t-6.5 19t6.5 18.5t18.5 7.5t19 -8zM73.5 409q5.5 -9 3.5 -22q-3 -22 -9 -50.5t-9 -43.5l-13 -66q-25 -124 -33 -158l-13 -60q-1 -1 0.5 -2t2.5 0q51 23 85 72q17 25 26.5 51.5t22.5 73.5q3 10 12.5 15t18.5 3
q11 -2 16.5 -11.5t3.5 -17.5q-25 -83 -44.5 -123.5t-60.5 -67.5q-52 -35 -96 -49q-7 -22 -28 -71q-14 -32 -42 -50t-59 -18q-21 0 -39.5 8.5t-30.5 24.5q-17 22 -17 50q0 21 10 38q16 28 60 39.5t102 17.5l46 211v1l3 13l34 185q2 10 12 15.5t20 2.5q10 -2 15.5 -11z
M-125.5 -67q-31.5 -7 -38.5 -11t-11.5 -11.5t-4.5 -14.5q0 -6 3 -12q12 -21 33 -21q20 0 39.5 21t30.5 60q-20 -4 -51.5 -11z" />
    <glyph glyph-name="k" unicode="k" horiz-adv-x="308" 
d="M106.5 578q4.5 -9 2.5 -20l-34 -181q22 18 47 31q36 19 59 19q9 0 18 -3q24 -8 37 -29t13 -49q0 -41 -24 -87q-19 -38 -37.5 -54t-47.5 -31q-16 -8 -24 -13q9 -21 36 -59.5t46 -46.5q6 -2 10 -2q26 0 49.5 48.5t38.5 102.5q2 9 9.5 14.5t16.5 5.5q10 0 18 -6.5t8 -16.5
q0 -5 -1 -8q-18 -62 -48 -121t-67 -69q-11 -3 -20 -3q-21 0 -40.5 10t-34.5 28q-47 60 -66 97l-3 5q-4 -1 -12 -1t-12 1q-7 1 -13 6l-24 -128q-2 -10 -12 -15.5t-20 -2.5q-11 3 -15.5 12t-2.5 19l102 541q2 10 12 15.5t20 2.5q11 -3 15.5 -12zM179 375q-20 0 -48 -22
l-18 -14q-23 -17 -37.5 -32.5t-21.5 -40.5l-10 -50q3 1 8 1q6 0 8 -1q13 -1 26 -13q36 13 53.5 26t35.5 46q12 24 17 44q5 15 5 30q0 10 -2 15q-4 11 -16 11z" />
    <glyph glyph-name="l" unicode="l" horiz-adv-x="151" 
d="M108.5 577.5q4.5 -8.5 2.5 -20.5q-12 -66 -30.5 -163t-31.5 -163l-15 -78q-2 -9 -5.5 -26.5t-3.5 -30.5q0 -9 1 -14q2 -11 8 -21t15 -10q13 0 22.5 8.5t19.5 23.5q17 25 26.5 51.5t21.5 69.5q3 11 13 17.5t19 4.5q10 -2 16 -13.5t3 -19.5q-17 -58 -30.5 -92t-38.5 -64
q-14 -18 -34 -29t-40 -8q-21 3 -37.5 14t-23.5 29q-12 24 -12 53q0 17 3 36q4 22 7 32q8 38 11 57l66 351q1 9 11.5 14t20.5 2q11 -2 15.5 -10.5z" />
    <glyph glyph-name="m" unicode="m" horiz-adv-x="492" 
d="M76.5 415q4.5 -5 4.5 -7l2 1q25 14 51 14q23 0 43 -12q21 -13 37 -35q23 20 47 33q25 14 51 14q23 0 43 -12q22 -13 36.5 -35t18.5 -48q2 -18 2 -26q0 -27 -12 -83q-5 -22 -8 -37q-12 -52 -16 -74q-2 -8 -2 -19q0 -17 5.5 -28.5t17.5 -10.5q18 1 29.5 18t21.5 41
q13 35 32 95q3 12 9 18t17 6q10 0 19 -12.5t6 -22.5q-9 -32 -25 -75l-8 -22q-24 -61 -57 -84q-19 -13 -44 -13q-32 0 -50 21q-24 27 -24 69q0 17 3 33q9 44 16 74l8 37q4 16 7.5 34t3.5 33q0 17 -6 35q-7 17 -19 26.5t-27 9.5q-22 0 -42.5 -19.5t-28.5 -51.5
q-17 -94 -53 -282q-2 -8 -10 -13.5t-17 -5.5q-13 0 -20.5 10.5t-5.5 22.5l15 76l2 14q3 19 14 71q9 43 14 72.5t5 43.5q0 11 -5 26q-7 17 -19 26.5t-27 9.5q-22 0 -42.5 -19.5t-28.5 -51.5q-17 -94 -53 -282q-2 -8 -10 -13.5t-17 -5.5q-13 0 -20.5 10.5t-5.5 22.5l73 373
q2 10 13 15.5t21 2.5q11 -3 15.5 -8z" />
    <glyph glyph-name="n" unicode="n" horiz-adv-x="315" 
d="M78.5 415q4.5 -5 4.5 -7l2 1q25 14 51 14q24 0 43 -12q22 -13 36.5 -35t18.5 -48q2 -18 2 -26q0 -27 -12 -83q-5 -22 -8 -37q-12 -52 -16 -74q-2 -8 -2 -19q0 -17 5.5 -28.5t17.5 -10.5q18 1 29.5 18t21.5 41q7 20 31 95q7 24 27 24q10 0 18.5 -12.5t5.5 -22.5
q-12 -40 -32 -97q-24 -61 -57 -84q-19 -13 -44 -13q-32 0 -50 21q-24 27 -24 69q0 17 3 33q9 44 16 74l8 37q4 16 7.5 34t3.5 33q0 17 -6 35q-7 17 -19 26.5t-27 9.5q-22 0 -42.5 -19.5t-28.5 -51.5q-17 -94 -53 -282q-2 -8 -10 -13.5t-17 -5.5q-13 0 -20.5 10.5t-5.5 22.5
l73 373q2 10 13 15.5t21 2.5q11 -3 15.5 -8z" />
    <glyph glyph-name="o" unicode="o" horiz-adv-x="259" 
d="M135 421q26 0 49.5 -13t38 -33t17.5 -40q3 -18 3 -39q0 -62 -20.5 -132.5t-56.5 -117.5t-78 -46h-21q-46 3 -64.5 40t-18.5 90q0 28 3 50q1 17 7 51q12 59 22.5 90.5t24.5 49t40 35.5q25 15 54 15zM80 330q-11 -21 -22 -57t-15 -58q-6 -45 -6 -91q0 -52 16 -67
q9 -6 21 -6q7 0 11 1q20 7 31 19q21 22 31 39.5t25 61.5q21 80 21 121q0 71 -52 75q-40 1 -61 -38z" />
    <glyph glyph-name="p" unicode="p" horiz-adv-x="298" 
d="M70 415.5q6 -5.5 8 -13.5l5 4q25 15 54 15q26 0 49.5 -13t38 -33t17.5 -40q2 -11 2 -36q0 -62 -20.5 -133t-56 -119t-77.5 -47h-21q-37 3 -58 30l-34 -181q-2 -8 -10 -13.5t-17 -5.5q-13 0 -19 10t-4 23l102 539q1 9 8.5 14t16.5 5q10 0 16 -5.5zM82 330
q-9 -18 -19 -48.5t-16 -55.5l-3 -15q-5 -48 -5 -87q0 -52 16 -67q9 -6 21 -6q7 0 11 1q20 7 31 19q21 22 31 39.5t25 61.5q21 80 21 121q0 71 -52 75q-40 1 -61 -38zM315 238q11 0 19 -6.5t8 -17.5q0 -5 -1 -8q-22 -70 -28 -88q-13 -38 -26 -61q-12 -23 -34.5 -39.5
t-45.5 -16.5q-12 0 -21 4q-8 3 -13.5 10t-5.5 15q0 15 11.5 21.5t22.5 3.5q27 -6 43.5 28t37.5 105l9 33q6 17 24 17z" />
    <glyph glyph-name="q" unicode="q" horiz-adv-x="330" 
d="M263.5 405.5q4.5 -8.5 2.5 -20.5q-11 -64 -30 -161.5t-32 -161.5q-23 -115 -23 -154q0 -9 1 -12q1 -15 8.5 -24t16.5 -9q15 0 19 23q5 19 5 46q0 28 -5 61t-14 54q-3 8 -3 14q0 10 6.5 17t18.5 8q17 1 32.5 13.5t25.5 28.5q7 13 12 27t8 28q1 5 8 28q7 20 27 20
q13 0 21 -8t4 -20l-6 -21q-9 -31 -17 -52t-21 -40q-24 -32 -61 -48q7 -21 11 -50.5t4 -55.5q0 -19 -1 -27q-2 -23 -6.5 -40t-16.5 -31q-18 -24 -50 -24q-21 0 -39.5 11.5t-26.5 31.5q-13 25 -13 62q0 32 7.5 65t8.5 39q-16 -14 -29.5 -18.5t-46.5 -4.5q-83 6 -83 129
q0 27 3 49q1 17 7 51l1 5q11 56 21.5 86t24.5 47t40 35q25 15 53 15q21 0 41.5 -9.5t35.5 -24.5l3 17q1 9 11.5 14t20.5 2q11 -2 15.5 -10.5zM78 324q-20 -42 -33 -111q-6 -45 -6 -90q0 -52 16 -67q9 -6 20 -6t23 5.5t19 14.5q21 22 31 39t25 61q21 71 21 117q0 74 -52 78
q-44 1 -64 -41z" />
    <glyph glyph-name="r" unicode="r" horiz-adv-x="236" 
d="M117 383q13 -8 27 -8q6 0 9 1q15 3 26 -7t7 -25l-34 -139q-13 -56 -16 -68q-8 -26 -8 -41q0 -8 3 -17q3 -10 10 -15.5t16 -3.5q24 6 36.5 35t24.5 82l11 44q6 21 23 21q10 0 18.5 -9.5t8.5 -21.5q0 -5 -1 -8l-9 -31q-9 -31 -19.5 -64.5t-20.5 -55.5q-9 -19 -30 -31
t-45 -12q-34 0 -55 24q-20 24 -20 60q0 21 5 44t6 27l6 24q10 49 27 115q1 9 5 22q-24 5 -43 19l-43 -141q-6 -18 -23 -18q-11 0 -19 7.5t-8 19.5q0 6 1 9q18 66 36 120l20 64q3 8 9.5 12.5t13.5 4.5q9 0 16 -4.5t11 -12.5q5 -14 18 -22z" />
    <glyph glyph-name="s" unicode="s" horiz-adv-x="289" 
d="M64 427q11 0 19 -6.5t8 -17.5q0 -33 12.5 -63t35.5 -70l18 -33q28 -62 28 -107q0 -35 -18 -67q-19 -32 -48 -48t-63 -16q-45 0 -83.5 27.5t-53.5 74.5q-1 3 -1 9q0 11 8 17.5t18 6.5q18 0 26 -18q13 -31 37.5 -48t50.5 -17q30 0 52 22t22 61q0 28 -11 53.5t-32 62.5
q-7 11 -24 45q-15 -70 -27 -105q-7 -20 -26 -20q-10 0 -17.5 7t-7.5 18q0 6 1 9q12 41 25.5 97t18.5 75l7 32q6 19 25 19zM306 238q11 0 19 -6.5t8 -17.5q0 -5 -1 -8q-22 -70 -28 -88q-13 -38 -26 -61q-12 -23 -34.5 -39.5t-45.5 -16.5q-12 0 -21 4q-8 3 -13.5 10t-5.5 15
q0 15 11.5 21.5t22.5 3.5q27 -6 43.5 28t37.5 105l9 33q6 17 24 17z" />
    <glyph glyph-name="t" unicode="t" horiz-adv-x="151" 
d="M108.5 577.5q4.5 -8.5 2.5 -20.5l-8 -46h36q11 0 17.5 -7.5t6.5 -17.5t-6.5 -17.5t-17.5 -7.5h-46q-18 -102 -38 -200q-4 -16 -6 -30l-15 -78q-2 -9 -5.5 -26.5t-3.5 -30.5q0 -9 1 -14q2 -11 8 -21t15 -10q13 0 22.5 8.5t19.5 23.5q17 25 26.5 51.5t21.5 69.5
q3 11 13 17.5t19 4.5q11 -2 16.5 -12.5t2.5 -20.5q-20 -64 -32.5 -95t-36.5 -61q-14 -18 -34 -29t-40 -8q-21 3 -37.5 14t-23.5 29q-12 24 -12 53q0 17 3 36q4 22 7 32q8 38 11 57l45 240h-46q-11 0 -17.5 7.5t-6.5 17.5t6.5 17.5t17.5 7.5h56l11 61q1 9 11.5 14t20.5 2
q11 -2 15.5 -10.5z" />
    <glyph glyph-name="u" unicode="u" horiz-adv-x="335" 
d="M261.5 411.5q4.5 -8.5 2.5 -20.5q-6 -37 -26 -137l-5 -23l-15 -78q-2 -9 -5.5 -26.5t-3.5 -30.5q0 -9 1 -14q2 -11 8 -21t15 -10q13 0 22.5 8.5t19.5 23.5q17 25 26.5 51.5t21.5 69.5q3 11 13 17.5t19 4.5q11 -2 16.5 -12.5t2.5 -20.5q-20 -64 -32.5 -95t-36.5 -61
q-14 -18 -34 -29t-40 -8q-21 3 -37.5 14t-23.5 29l-1 2q-39 -45 -94 -45q-23 0 -39 5q-31 8 -47 34.5t-16 62.5q0 15 3 30l18 89l35 185q2 10 12 14.5t20 1.5q11 -2 15.5 -10.5t2.5 -20.5q-6 -37 -26 -137l-5 -23q-2 -13 -4.5 -23l-4.5 -18q-15 -62 -15 -86q0 -38 25 -48
q16 -6 29 -6q31 0 52 27.5t35 75.5l22 112q5 24 11.5 58.5t15.5 82.5q2 10 12 14.5t20 1.5q11 -2 15.5 -10.5z" />
    <glyph glyph-name="v" unicode="v" horiz-adv-x="293" 
d="M221 185q-20 -74 -49 -123q-21 -29 -42.5 -46t-62.5 -17q-14 0 -22 1q-36 5 -53.5 31.5t-17.5 65.5q0 17 3 35l16 89l35 185q2 10 12 14.5t20 1.5q11 -2 15.5 -10.5t2.5 -20.5q-6 -37 -26 -137l-5 -23l-15 -78q-8 -42 -8 -62q0 -37 24 -40q4 -1 13 -1q32 0 52.5 21
t32 51.5t27.5 84.5q12 45 19 106t9 114q1 12 9 19t18 7q11 0 18.5 -7t6.5 -19q-6 -149 -32 -242zM310 238q11 0 19 -6.5t8 -17.5q0 -5 -1 -8q-22 -70 -28 -88q-13 -38 -26 -61q-12 -23 -34.5 -39.5t-45.5 -16.5q-12 0 -21 4q-8 3 -13.5 10t-5.5 15q0 15 11.5 21.5t22.5 3.5
q27 -6 43.5 28t37.5 105l9 33q6 17 24 17z" />
    <glyph glyph-name="w" unicode="w" horiz-adv-x="408" 
d="M335 185q-20 -74 -49 -123q-44 -62 -90 -62q-25 0 -41.5 13t-24.5 36l-10 -13q-14 -18 -34 -29t-40 -8q-21 3 -37.5 14t-23.5 29q-12 24 -12 53q0 17 3 36l18 89l35 185q2 10 12 14.5t20 1.5q11 -2 15.5 -10.5t2.5 -20.5q-6 -37 -26 -137l-5 -23l-15 -78
q-2 -9 -5.5 -26.5t-3.5 -30.5q0 -9 1 -14q2 -11 8 -21t15 -10q13 0 22.5 8.5t19.5 23.5q17 25 27 53t22 71l3 15l35 185q2 10 12 14.5t20 1.5q11 -2 15.5 -10.5t2.5 -20.5q-6 -37 -26 -137l-5 -23l-15 -78q-2 -9 -5.5 -26.5t-3.5 -30.5q0 -9 1 -14q2 -11 8 -21t15 -10
q13 0 22.5 8.5t19.5 23.5q17 25 27 53t22 71q12 45 19 106t9 114q1 12 9 19t18 7q11 0 18.5 -7t6.5 -19q-6 -149 -32 -242zM425 238q11 0 19 -6.5t8 -17.5q0 -5 -1 -8l-7 -24l-21 -65q-13 -38 -26 -61q-12 -23 -34.5 -39.5t-45.5 -16.5q-12 0 -21 4q-8 3 -13.5 10t-5.5 15
q0 15 11.5 21.5t22.5 3.5q27 -6 44 29.5t36 104.5q4 11 10 33q6 17 24 17z" />
    <glyph glyph-name="x" unicode="x" horiz-adv-x="352" 
d="M249 427q11 0 20 -8t9 -18q0 -8 -4 -13l-118 -203q15 -41 43 -91q11 -19 21.5 -30t27.5 -11q29 0 50.5 41.5t41.5 109.5q6 18 22 18t24 -9.5t5 -19.5q-23 -74 -37 -109t-39.5 -59t-66.5 -24q-48 0 -82 46q-21 32 -40 78q-2 2 -2 5l-69 -117q-7 -13 -21 -13
q-11 0 -19.5 7.5t-8.5 18.5q0 6 4 13l88 152q-2 8 -8 24q-7 21 -22 82l-13 -45q-4 -15 -17 -62q-3 -10 -10 -15t-15 -5q-11 0 -18.5 7t-7.5 18q0 6 1 9q13 42 21 77q2 9 13.5 50t25.5 78q7 19 25 19q10 0 17.5 -7t8.5 -19q11 -80 34 -152l95 164q7 13 21 13z" />
    <glyph glyph-name="y" unicode="y" horiz-adv-x="335" 
d="M76.5 411.5q4.5 -8.5 2.5 -20.5q-6 -37 -26 -137l-5 -23q-2 -13 -4.5 -23l-4.5 -18q-15 -62 -15 -86q0 -38 25 -48q16 -6 29 -6q30 0 50 25t34 68l23 110l27 149q2 11 9.5 17t16.5 6q12 0 20 -9.5t6 -24.5q-6 -36 -24 -124t-32 -156l-9 -42l-13 -60q-1 -1 0.5 -2t2.5 0
q51 23 85 72q17 25 26.5 51.5t22.5 73.5q3 10 12.5 15t18.5 3q11 -2 16.5 -11.5t3.5 -17.5q-25 -83 -44.5 -123.5t-60.5 -67.5q-52 -35 -96 -49q-7 -22 -28 -71q-14 -32 -42 -50t-59 -18q-21 0 -39.5 8.5t-30.5 24.5q-17 22 -17 50q0 21 10 38q16 28 60 39.5t102 17.5l5 24
q-29 -16 -60 -16q-16 0 -38 5q-31 8 -47 34.5t-16 62.5q0 15 3 30l18 89l35 185q2 10 12 14.5t20 1.5q11 -2 15.5 -10.5zM60.5 -67q-31.5 -7 -38.5 -11t-11.5 -11.5t-4.5 -14.5q0 -6 3 -12q12 -21 33 -21q20 0 39.5 21t30.5 60q-20 -4 -51.5 -11z" />
    <glyph glyph-name="z" unicode="z" horiz-adv-x="353" 
d="M246 358q26 -43 26 -93q0 -26 -7 -47q-6 -22 -22 -46.5t-34 -39.5q8 -27 8 -51q0 -33 -14 -77q24 11 46 27.5t43 46.5q17 25 26 51t23 75q3 10 12.5 14.5t18.5 2.5q11 -2 16.5 -11t3.5 -17q-25 -84 -45 -124.5t-60 -67.5q-52 -35 -96 -49q-7 -22 -28 -71q-14 -32 -42 -50
t-59 -18q-21 0 -39.5 8.5t-30.5 24.5q-17 22 -17 50q0 21 10 38q16 28 60 39.5t102 17.5q16 47 16 92q0 19 -3 32q-24 -11 -44 -11q-15 0 -29 7q-14 6 -21.5 18t-7.5 27q0 30 23 48q15 12 37 12q18 0 36 -8.5t31 -22.5q19 17 26 39q6 20 6 42q0 34 -15 62q-9 16 -23.5 27
t-29.5 11q-8 0 -20 -5q-22 -10 -36.5 -31t-26.5 -50q-8 -22 -18 -56l-10 -35q-3 -10 -11 -14.5t-19 -2.5q-10 3 -16.5 11t-3.5 20l6 24q12 42 20.5 67t25.5 53q19 31 47.5 51.5t61.5 20.5q15 0 27 -4q44 -14 70 -57zM125 162q-5 0 -10 -4q-1 -1 -0.5 -1.5l0.5 -0.5
q15 0 24 2q-10 4 -14 4zM78.5 -68q-31.5 -7 -38.5 -11t-11.5 -11.5t-4.5 -14.5q0 -6 3 -12q12 -21 33 -21q20 0 39.5 21t30.5 60q-20 -4 -51.5 -11z" />
    <glyph glyph-name="braceleft" unicode="{" horiz-adv-x="420" 
d="M414.5 732q5.5 -7 5.5 -15q0 -14 -11 -22t-23 -4q-14 2 -20 2q-78 0 -90 -56t-13 -58q-3 -15 -10 -55q-6 -39 -12.5 -67.5t-19.5 -54.5q-10 -22 -22 -35q20 -23 29 -51q7 -25 7 -53q0 -25 -4 -44q-6 -30 -30 -88q-1 -2 -12.5 -28.5t-11.5 -56.5q0 -46 47 -49q12 -1 36 -1
q11 0 18.5 -8t7.5 -19t-7.5 -18.5t-18.5 -7.5q-31 0 -54 3.5t-41 15.5q-26 18 -37 48q-6 17 -6 35q0 23 6.5 44t15 40t11.5 27q6 14 16 44q9 36 9 66q0 40 -16 60l-4 5q-10 -7 -30 -14q-15 -5 -31 -5q-5 0 -15 2q-14 4 -23 14q-12 14 -11 30q4 22 14 32q8 10 24 15
q16 4 24 4q22 0 45 -10l3 3q13 18 20.5 36.5t18.5 74.5q1 10 7 47t16 67.5t26 53.5q28 40 65 55q27 12 53 12q18 0 34 -6q9 -3 14.5 -10z" />
    <glyph glyph-name="bar" unicode="|" horiz-adv-x="108" 
d="M102 750.5q7 -8.5 6 -20.5q0 -167 -3 -385q-1 -87 -2 -188t-1 -199q0 -10 -9 -17.5t-19 -5.5q-11 0 -18 8.5t-6 19.5l6 772q0 10 8.5 17t18.5 7q12 0 19 -8.5z" />
    <glyph glyph-name="braceright" unicode="}" horiz-adv-x="409" 
d="M227 750q41 0 75 -31q19 -19 28 -45t9 -54q-1 -37 -19 -89l-13 -32.5t-16 -53.5q-3 -12 -3 -23q0 -24 6 -39.5t6 -16.5q31 18 57 18q6 0 16 -2q14 -3 24 -13q10 -9 12 -27q2 -13 -7 -25.5t-22 -19.5q-24 -10 -43 -8t-35 9v-1l-1 -1q-2 -5 -9.5 -18.5t-13.5 -34.5t-10 -52
q-1 -8 -4 -47.5t-12.5 -71.5t-25.5 -55q-25 -36 -65.5 -56.5t-83.5 -16.5q-12 1 -19.5 8t-7.5 18t8 19.5t19 7.5q14 -2 23 -2q49 0 82.5 42t33.5 160q8 63 23 97q10 21 22 36q-14 19 -20 39q-6 23 -6 45q0 26 6 50q6 26 17 53t13 33q1 3 8 21t7 57q0 9 -6 26t-18 30t-31 13
q-8 0 -12 -1l-4 -1q-12 -4 -23 4t-11 21q0 9 5.5 16.5t14.5 9.5q16 4 26 4z" />
    <glyph glyph-name="asciitilde" unicode="~" horiz-adv-x="550" 
d="M259 288q-18 8 -31.5 13.5t-24.5 8.5t-21 4t-21 1q-14 0 -28.5 -4.5t-29 -12.5t-28 -18.5t-25.5 -23.5v79q49 53 121 53q14 0 26 -1t25.5 -4.5t30 -9.5t39.5 -16q18 -8 31.5 -13t25 -8t21 -4.5t20.5 -1.5q14 0 28.5 4.5t29 12.5t28 19t25.5 23v-79q-48 -53 -121 -53
q-14 0 -26.5 1.5t-26 4.5t-29.5 9t-39 16zM221 622z" />
    <glyph glyph-name="uni007F" 
 />
    <glyph glyph-name="exclamdown" unicode="&#xa1;" horiz-adv-x="269" 
d="M104 330h58l25 -512h-108zM196 478q0 -33 -16 -50t-46 -17t-46 17t-16 50q0 32 16.5 50t45.5 18t45.5 -17.5t16.5 -50.5z" />
    <glyph glyph-name="cent" unicode="&#xa2;" horiz-adv-x="571" 
d="M476 117q-55 -28 -124 -30v-97h-67v100q-100 15 -147 82.5t-47 189.5q0 248 194 278v84h68v-80q74 -3 132 -29l-26 -73q-70 26 -119 26q-82 0 -120.5 -51t-38.5 -154q0 -104 39 -151.5t116 -47.5q43 0 76 8.5t64 21.5v-77z" />
    <glyph glyph-name="sterling" unicode="&#xa3;" horiz-adv-x="571" 
d="M334 723q93 0 177 -41l-31 -70q-82 38 -144 38q-57 0 -87 -29.5t-30 -95.5v-139h204v-66h-204v-104q0 -47 -15.5 -80.5t-52.5 -55.5h384v-80h-503v74q99 23 99 141v105h-96v66h96v148q0 88 55 138.5t148 50.5z" />
    <glyph glyph-name="currency" unicode="&#xa4;" horiz-adv-x="571" 
d="M90 353q0 57 35 110l-66 68l49 47l66 -64q49 35 112 35q59 0 110 -35l67 64l48 -47l-64 -67q35 -54 35 -111q0 -63 -35 -112l63 -66l-47 -47l-67 64q-50 -34 -110 -34q-64 0 -112 35l-66 -64l-48 47l65 66q-35 53 -35 111zM157 353q0 -54 37.5 -91.5t91.5 -37.5t92 37
t38 92q0 56 -38 93.5t-92 37.5t-91.5 -38t-37.5 -93z" />
    <glyph glyph-name="yen" unicode="&#xa5;" horiz-adv-x="571" 
d="M285 365l179 349h92l-201 -375h124v-64h-151v-82h151v-64h-151v-129h-86v129h-151v64h151v82h-151v64h122l-199 375h93z" />
    <glyph glyph-name="brokenbar" unicode="&#xa6;" horiz-adv-x="550" 
d="M239 760h73v-381h-73v381zM239 140h73v-381h-73v381z" />
    <glyph glyph-name="section" unicode="&#xa7;" horiz-adv-x="513" 
d="M67 395q0 42 21 75t58 51q-36 20 -56 47t-20 68q0 60 50.5 94.5t146.5 34.5q45 0 82 -7t89 -27l-27 -67q-47 19 -80.5 26t-69.5 7q-56 0 -82.5 -14.5t-26.5 -44.5q0 -27 28 -47.5t104 -47.5q89 -33 126 -70t37 -90q0 -88 -75 -133q74 -39 74 -110q0 -69 -57.5 -107
t-160.5 -38t-169 33v75q42 -19 88.5 -30t84.5 -11q62 0 96 18t34 53q0 30 -26 49t-103 49q-96 36 -131 72.5t-35 91.5zM142 405q0 -25 13 -43.5t43 -35.5t109 -47q64 37 64 91q0 40 -34 66.5t-123 54.5q-32 -9 -52 -33t-20 -53z" />
    <glyph glyph-name="dieresis" unicode="&#xa8;" horiz-adv-x="580" 
d="M149 681q0 26 13.5 37.5t33.5 11.5q19 0 33 -11.5t14 -37.5t-14 -38t-33 -12q-20 0 -33.5 12t-13.5 38zM337 681q0 26 13.5 37.5t32.5 11.5t33 -11.5t14 -37.5t-14 -38t-33 -12t-32.5 12t-13.5 38z" />
    <glyph glyph-name="copyright" unicode="&#xa9;" horiz-adv-x="832" 
d="M436 515q-58 0 -91 -41.5t-33 -116.5q0 -77 28.5 -118t94.5 -41q46 0 105 23v-64q-29 -13 -53 -18.5t-56 -5.5q-94 0 -145.5 58.5t-51.5 165.5q0 102 54 162.5t147 60.5q63 0 123 -30l-29 -61q-52 26 -93 26zM49 357q0 98 48.5 183t134 134.5t184.5 49.5q98 0 183.5 -49
t134.5 -134t49 -184q0 -96 -47.5 -180.5t-132.5 -135.5t-187 -51q-101 0 -186.5 50.5t-133 135t-47.5 181.5zM102 357q0 -84 42 -157t115 -115t157 -42t157 42t115 115t42 157t-42 156.5t-115 115t-157 42.5t-156.5 -42t-115 -115t-42.5 -157z" />
    <glyph glyph-name="ordfeminine" unicode="&#xaa;" horiz-adv-x="356" 
d="M261 389l-12 42q-46 -48 -114 -48q-47 0 -75 24.5t-28 74.5t38.5 76t119.5 29l56 2v22q0 30 -19 44.5t-52 14.5q-49 0 -101 -26q-13 30 -22 49q60 29 125 29t98 -27t33 -86v-220h-47zM96 482q0 -48 54 -48q96 0 96 87v23l-48 -2q-54 -2 -78 -16t-24 -44z" />
    <glyph glyph-name="guillemotleft" unicode="&#xab;" horiz-adv-x="574" 
d="M340 387.5q10 -6.5 13 -16.5q1 -2 1 -7q0 -8 -4 -13q-5 -8 -16 -13l-190 -77q82 -37 100 -46q57 -25 70 -31q6 -2 9.5 -8t3.5 -14q0 -6 -4 -14q-4 -9 -16 -12q-2 -1 -6 -1t-14 4l-224 100q-13 6 -13 23q0 7 3 13q7 10 16 13q2 0 251 102q10 4 20 -2.5zM560 387.5
q10 -6.5 13 -16.5q1 -2 1 -7q0 -8 -4 -13q-5 -8 -16 -13l-190 -77q82 -37 100 -46q57 -25 70 -31q6 -2 9.5 -8t3.5 -14q0 -6 -4 -14q-4 -9 -16 -12q-2 -1 -6 -1t-14 4l-224 100q-13 6 -13 23q0 7 3 13q7 10 16 13q2 0 251 102q10 4 20 -2.5z" />
    <glyph glyph-name="logicalnot" unicode="&#xac;" horiz-adv-x="571" 
d="M520 388v-260h-71v189h-399v71h470z" />
    <glyph glyph-name="uni00AD" unicode="&#xad;" horiz-adv-x="321" 
d="M40 229v78h242v-78h-242z" />
    <glyph glyph-name="registered" unicode="&#xae;" horiz-adv-x="832" 
d="M355 373h50q40 0 61.5 19.5t21.5 51.5q0 36 -20 51.5t-64 15.5h-49v-138zM565 446q0 -41 -21 -70.5t-57 -43.5l116 -194h-86l-100 173h-62v-173h-76v437h128q82 0 120 -32t38 -97zM49 357q0 98 48.5 183t134 134.5t184.5 49.5q98 0 183.5 -49t134.5 -134t49 -184
q0 -96 -47.5 -180.5t-132.5 -135.5t-187 -51q-101 0 -186.5 50.5t-133 135t-47.5 181.5zM102 357q0 -84 42 -157t115 -115t157 -42t157 42t115 115t42 157t-42 156.5t-115 115t-157 42.5t-156.5 -42t-115 -115t-42.5 -157z" />
    <glyph glyph-name="macron" unicode="&#xaf;" horiz-adv-x="339" 
d="M273 283q8 -8 8 -19t-8 -18.5t-19 -7.5h-178q-10 0 -18 8t-8 18q0 11 7.5 19t18.5 8h178q11 0 19 -8z" />
    <glyph glyph-name="degree" unicode="&#xb0;" horiz-adv-x="428" 
d="M60 570q0 66 45 110t109 44q65 0 109.5 -45t44.5 -109t-45 -108.5t-109 -44.5q-63 0 -108.5 44t-45.5 109zM120 570q0 -39 28 -66.5t67 -27.5q40 0 66.5 28t26.5 66q0 39 -27 66.5t-66 27.5t-67 -27t-28 -67z" />
    <glyph glyph-name="plusminus" unicode="&#xb1;" horiz-adv-x="571" 
d="M321 391h199v-71h-199v-206h-72v206h-199v71h199v207h72v-207zM50 0v71h470v-71h-470z" />
    <glyph glyph-name="uni00B2" unicode="&#xb2;" horiz-adv-x="350" 
d="M306 286h-282v54l115 112q62 60 79.5 87.5t17.5 61.5q0 32 -18.5 48t-48.5 16t-54.5 -11.5t-50.5 -31.5l-35 46q65 55 141 55q64 0 100.5 -32t36.5 -86q0 -22 -6 -41.5t-18.5 -39.5t-33 -42.5t-138.5 -133.5h195v-62z" />
    <glyph glyph-name="uni00B3" unicode="&#xb3;" horiz-adv-x="350" 
d="M308 613q0 -74 -74 -102q87 -21 87 -102q0 -62 -45 -96.5t-128 -34.5q-74 0 -131 28v63q69 -34 132 -34q100 0 100 76q0 69 -110 69h-57v55h57q50 0 73.5 19t23.5 51q0 29 -19 45t-51 16q-51 0 -111 -38l-36 46q36 27 71 38t75 11q66 0 104.5 -29.5t38.5 -80.5z" />
    <glyph glyph-name="acute" unicode="&#xb4;" horiz-adv-x="580" 
d="M189 618q19 23 47.5 66.5t47.5 81.5h106v-10q-21 -31 -66.5 -78.5t-76.5 -71.5h-58v12z" />
    <glyph glyph-name="mu" unicode="&#xb5;" horiz-adv-x="623" 
d="M173 190q0 -127 120 -127q83 0 120 45.5t37 148.5v279h88v-536h-71l-14 72h-5q-53 -82 -161 -82q-71 0 -115 45h-4q5 -36 5 -119v-156h-88v776h88v-346z" />
    <glyph glyph-name="paragraph" unicode="&#xb6;" horiz-adv-x="654" 
d="M549 -127h-58v831h-102v-831h-58v400q-30 -9 -71 -9q-105 0 -155 61t-50 184q0 127 53.5 189t166.5 62h274v-887z" />
    <glyph glyph-name="periodcentered" unicode="&#xb7;" horiz-adv-x="103" 
d="M95.5 288.5q7.5 -7.5 7.5 -18.5t-7.5 -19t-18.5 -8t-19 8t-8 19t8 18.5t19 7.5t18.5 -7.5z" />
    <glyph glyph-name="cedilla" unicode="&#xb8;" horiz-adv-x="225" 
d="M212 -139q0 -48 -37 -74.5t-111 -26.5q-32 0 -50 5v55q18 -5 53 -5q37 0 55.5 9.5t18.5 34.5q0 43 -91 55l43 86h58l-26 -53q87 -19 87 -86z" />
    <glyph glyph-name="uni00B9" unicode="&#xb9;" horiz-adv-x="350" 
d="M167 714h73v-428h-71v276q0 33 4 89q-15 -14 -26.5 -23t-74.5 -55l-35 49z" />
    <glyph glyph-name="ordmasculine" unicode="&#xba;" horiz-adv-x="375" 
d="M345 553q0 -80 -42 -125t-116 -45q-71 0 -113 45t-42 125q0 81 41 125t116 44q73 0 114.5 -44.5t41.5 -124.5zM95 553q0 -59 21.5 -88t71.5 -29q49 0 71 29t22 88t-22 87.5t-71 28.5t-71 -28.5t-22 -87.5z" />
    <glyph glyph-name="guillemotright" unicode="&#xbb;" horiz-adv-x="573" 
d="M322 390q4 0 14 -4q39 -17 73 -32t63 -28l88 -39q6 -2 9.5 -8.5t3.5 -14.5q0 -9 -2 -12q-8 -11 -17 -13q-2 0 -250 -103q-6 -2 -8 -2q-8 0 -15.5 6t-9.5 14q-1 2 -1 7q0 8 4 13q5 8 16 13l63 26q84 34 126 52l-93 42l-77 34q-6 2 -9.5 8.5t-3.5 13.5q0 8 3 14q6 9 17 12
q2 1 6 1zM101 389q5 0 15 -4l224 -99q6 -2 9.5 -8.5t3.5 -13.5t-3 -13q-6 -11 -16 -14q-2 0 -250 -103q-10 -4 -20 2t-13 16q-1 2 -1 7q0 7 3 13q6 9 17 14q111 44 189 78l-93 42l-77 34q-13 4 -13 21q0 9 3 15q6 9 17 12q2 1 5 1z" />
    <glyph glyph-name="onequarter" unicode="&#xbc;" horiz-adv-x="790" 
d="M736 96h-61v-96h-75v96h-195v52l197 283h73v-275h61v-60zM600 156v93q0 52 3 101q-4 -9 -48 -77l-80 -117h125zM878 663q0 -9 -6 -18q-72 -109 -193 -287l-236 -354q-6 -10 -20 -10q-11 0 -17 6q-10 7 -10 19q0 11 6 18q86 130 215 321l214 320q6 10 20 10q10 0 18 -6
q9 -7 9 -19zM165 714h73v-428h-71v276q0 33 4 89q-15 -14 -26.5 -23t-74.5 -55l-35 49z" />
    <glyph glyph-name="onehalf" unicode="&#xbd;" horiz-adv-x="790" 
d="M848 663q0 -9 -6 -18q-72 -109 -193 -287l-236 -354q-6 -10 -20 -10q-11 0 -17 6q-10 7 -10 19q0 11 6 18q86 130 215 321l214 320q6 10 20 10q10 0 18 -6q9 -7 9 -19zM152 714h73v-428h-71v276q0 33 4 89q-15 -14 -26.5 -23t-74.5 -55l-35 49zM727 0h-282v54l115 112
q62 60 79.5 87.5t17.5 61.5q0 32 -18.5 48t-48.5 16t-54.5 -11.5t-50.5 -31.5l-35 46q65 55 141 55q64 0 100.5 -32t36.5 -86q0 -22 -6 -41.5t-18.5 -39.5t-33 -42.5t-138.5 -133.5h195v-62z" />
    <glyph glyph-name="threequarters" unicode="&#xbe;" horiz-adv-x="790" 
d="M772 96h-61v-96h-75v96h-195v52l197 283h73v-275h61v-60zM636 156v93q0 52 3 101q-4 -9 -48 -77l-80 -117h125zM922 663q0 -9 -6 -18q-72 -109 -193 -287l-236 -354q-6 -10 -20 -10q-11 0 -17 6q-10 7 -10 19q0 11 6 18q86 130 215 321l214 320q6 10 20 10q10 0 18 -6
q9 -7 9 -19zM307 613q0 -74 -74 -102q87 -21 87 -102q0 -62 -45 -96.5t-128 -34.5q-74 0 -131 28v63q69 -34 132 -34q100 0 100 76q0 69 -110 69h-57v55h57q50 0 73.5 19t23.5 51q0 29 -19 45t-51 16q-51 0 -111 -38l-36 46q36 27 71 38t75 11q66 0 104.5 -29.5t38.5 -80.5z
" />
    <glyph glyph-name="questiondown" unicode="&#xbf;" horiz-adv-x="434" 
d="M294 330v-26q0 -57 -18 -93.5t-67 -77.5q-65 -54 -82 -81t-17 -68q0 -47 31 -73.5t89 -26.5q78 0 161 43l31 -71q-97 -48 -195 -48q-95 0 -148.5 45.5t-53.5 128.5q0 36 9.5 63.5t29.5 52.5t79 75q50 44 65 71t15 70v16h71zM317 478q0 -67 -62 -67q-30 0 -45.5 17.5
t-15.5 49.5q0 36 17.5 52t43.5 16t44 -16t18 -52z" />
    <glyph glyph-name="Agrave" unicode="&#xc0;" horiz-adv-x="639" 
d="M561 660.5q32 -26.5 32 -69.5q0 -11 -1 -17l-105 -555q-2 -11 -12.5 -16.5t-20.5 -2.5q-11 3 -16 12.5t-3 20.5l50 262h-161q-2 -8 -2 -11l-17 -94q-9 -48 -22 -76q-19 -47 -48 -72q-34 -29 -72 -36q-17 -4 -39 -4q-31 0 -61 11t-53 32q-29 27 -45 65t-15 78q0 44 21 81
q22 42 58 59q28 13 53 13q9 0 29 -4q20 -5 36.5 -17.5t26.5 -30.5q3 -6 3 -14q0 -16 -13 -22q-6 -3 -12 -3q-15 0 -30 22q-21 14 -41 14q-21 0 -36.5 -12t-22.5 -22q-23 -32 -23 -69q0 -33 17.5 -63.5t46 -49t60.5 -18.5q28 0 53 14q16 7 38.5 33.5t37.5 95.5l18 100h-34
q-11 0 -18.5 8t-7.5 19t8 18.5t18 7.5h44q5 27 7 37l30 166q10 60 53 98t111 38q48 0 80 -26.5zM537 581q0 26 -16.5 38.5t-42.5 12.5q-33 0 -64 -18.5t-40 -46.5l-41 -219h162q28 146 41 219q1 5 1 14zM364 771h-59q-37 29 -80.5 76t-61.5 74v10h105q16 -32 44.5 -76.5
t51.5 -71.5v-12z" />
    <glyph glyph-name="Aacute" unicode="&#xc1;" horiz-adv-x="639" 
d="M561 660.5q32 -26.5 32 -69.5q0 -11 -1 -17l-105 -555q-2 -11 -12.5 -16.5t-20.5 -2.5q-11 3 -16 12.5t-3 20.5l50 262h-161q-2 -8 -2 -11l-17 -94q-9 -48 -22 -76q-19 -47 -48 -72q-34 -29 -72 -36q-17 -4 -39 -4q-31 0 -61 11t-53 32q-29 27 -45 65t-15 78q0 44 21 81
q22 42 58 59q28 13 53 13q9 0 29 -4q20 -5 36.5 -17.5t26.5 -30.5q3 -6 3 -14q0 -16 -13 -22q-6 -3 -12 -3q-15 0 -30 22q-21 14 -41 14q-21 0 -36.5 -12t-22.5 -22q-23 -32 -23 -69q0 -33 17.5 -63.5t46 -49t60.5 -18.5q28 0 53 14q16 7 38.5 33.5t37.5 95.5l18 100h-34
q-11 0 -18.5 8t-7.5 19t8 18.5t18 7.5h44q5 27 7 37l30 166q10 60 53 98t111 38q48 0 80 -26.5zM537 581q0 26 -16.5 38.5t-42.5 12.5q-33 0 -64 -18.5t-40 -46.5l-41 -219h162q28 146 41 219q1 5 1 14zM257 783q19 23 47.5 66.5t47.5 81.5h106v-10q-21 -31 -66.5 -78.5
t-76.5 -71.5h-58v12z" />
    <glyph glyph-name="Acircumflex" unicode="&#xc2;" horiz-adv-x="639" 
d="M146 782q61 65 86 96.5t37 52.5h90q25 -49 125 -149v-11h-62q-44 26 -109 90q-64 -62 -107 -90h-60v11zM561 660.5q32 -26.5 32 -69.5q0 -11 -1 -17l-105 -555q-2 -11 -12.5 -16.5t-20.5 -2.5q-11 3 -16 12.5t-3 20.5l50 262h-161q-2 -8 -2 -11l-17 -94q-9 -48 -22 -76
q-19 -47 -48 -72q-34 -29 -72 -36q-17 -4 -39 -4q-31 0 -61 11t-53 32q-29 27 -45 65t-15 78q0 44 21 81q22 42 58 59q28 13 53 13q9 0 29 -4q20 -5 36.5 -17.5t26.5 -30.5q3 -6 3 -14q0 -16 -13 -22q-6 -3 -12 -3q-15 0 -30 22q-21 14 -41 14q-21 0 -36.5 -12t-22.5 -22
q-23 -32 -23 -69q0 -33 17.5 -63.5t46 -49t60.5 -18.5q28 0 53 14q16 7 38.5 33.5t37.5 95.5l18 100h-34q-11 0 -18.5 8t-7.5 19t8 18.5t18 7.5h44q5 27 7 37l30 166q10 60 53 98t111 38q48 0 80 -26.5zM537 581q0 26 -16.5 38.5t-42.5 12.5q-33 0 -64 -18.5t-40 -46.5
l-41 -219h162q28 146 41 219q1 5 1 14z" />
    <glyph glyph-name="Atilde" unicode="&#xc3;" horiz-adv-x="639" 
d="M390 772q-21 0 -41 9t-39.5 19.5t-37 19.5t-34.5 9q-24 0 -36 -14.5t-19 -43.5h-51q6 60 34 94t76 34q22 0 42.5 -9t39.5 -19.5t37 -19.5t33 -9q23 0 35.5 14.5t19.5 43.5h50q-6 -58 -34 -93t-75 -35zM561 660.5q32 -26.5 32 -69.5q0 -11 -1 -17l-105 -555
q-2 -11 -12.5 -16.5t-20.5 -2.5q-11 3 -16 12.5t-3 20.5l50 262h-161q-2 -8 -2 -11l-17 -94q-9 -48 -22 -76q-19 -47 -48 -72q-34 -29 -72 -36q-17 -4 -39 -4q-31 0 -61 11t-53 32q-29 27 -45 65t-15 78q0 44 21 81q22 42 58 59q28 13 53 13q9 0 29 -4q20 -5 36.5 -17.5
t26.5 -30.5q3 -6 3 -14q0 -16 -13 -22q-6 -3 -12 -3q-15 0 -30 22q-21 14 -41 14q-21 0 -36.5 -12t-22.5 -22q-23 -32 -23 -69q0 -33 17.5 -63.5t46 -49t60.5 -18.5q28 0 53 14q16 7 38.5 33.5t37.5 95.5l18 100h-34q-11 0 -18.5 8t-7.5 19t8 18.5t18 7.5h44q5 27 7 37
l30 166q10 60 53 98t111 38q48 0 80 -26.5zM537 581q0 26 -16.5 38.5t-42.5 12.5q-33 0 -64 -18.5t-40 -46.5l-41 -219h162q28 146 41 219q1 5 1 14z" />
    <glyph glyph-name="Adieresis" unicode="&#xc4;" horiz-adv-x="574" 
d="M583 763q7 -8 7 -18q0 -11 -7 -19t-19 -8t-18.5 8t-6.5 19t6.5 18.5t18.5 7.5t19 -8zM433 763q7 -8 7 -18q0 -11 -7 -19t-19 -8t-18.5 8t-6.5 19t6.5 18.5t18.5 7.5t19 -8zM561 660.5q32 -26.5 32 -69.5q0 -11 -1 -17l-105 -555q-2 -11 -12.5 -16.5t-20.5 -2.5
q-11 3 -16 12.5t-3 20.5l50 262h-161q-2 -8 -2 -11l-17 -94q-9 -48 -22 -76q-19 -47 -48 -72q-34 -29 -72 -36q-17 -4 -39 -4q-31 0 -61 11t-53 32q-29 27 -45 65t-15 78q0 44 21 81q22 42 58 59q28 13 53 13q9 0 29 -4q20 -5 36.5 -17.5t26.5 -30.5q3 -6 3 -14
q0 -16 -13 -22q-6 -3 -12 -3q-15 0 -30 22q-21 14 -41 14q-21 0 -36.5 -12t-22.5 -22q-23 -32 -23 -69q0 -33 17.5 -63.5t46 -49t60.5 -18.5q28 0 53 14q16 7 38.5 33.5t37.5 95.5l18 100h-34q-11 0 -18.5 8t-7.5 19t8 18.5t18 7.5h44q5 27 7 37l30 166q10 60 53 98t111 38
q48 0 80 -26.5zM537 581q0 26 -16.5 38.5t-42.5 12.5q-33 0 -64 -18.5t-40 -46.5l-41 -219h162q28 146 41 219q1 5 1 14z" />
    <glyph glyph-name="Aring" unicode="&#xc5;" horiz-adv-x="639" 
d="M428 774q0 -34 -14.5 -58t-39.5 -36l264 -680h-93l-86 221h-283l-85 -221h-91l263 677q-26 12 -40.5 36.5t-14.5 59.5q0 48 29.5 76.5t79.5 28.5t80.5 -29t30.5 -75zM432 301l-80 216l-34 107q-15 -59 -31 -107l-81 -216h226zM373 773q0 26 -16 41t-40 15t-40 -15
t-16 -41t14.5 -41t41.5 -15q25 0 40.5 15t15.5 41z" />
    <glyph glyph-name="AE" unicode="&#xc6;" horiz-adv-x="880" 
d="M821 0h-372v221h-250l-107 -221h-93l339 714h483v-79h-282v-223h263v-78h-263v-255h282v-79zM234 301h215v333h-58z" />
    <glyph glyph-name="Ccedilla" unicode="&#xc7;" horiz-adv-x="631" 
d="M255 648q29 -19 46 -50t17 -65q0 -22 -5 -37q-2 -9 -9.5 -14.5t-15.5 -5.5q-13 0 -21.5 11t-4.5 23q4 14 4 22q0 33 -24 59.5t-58 26.5q-22 0 -44.5 -14t-43.5 -45q-29 -42 -57.5 -104.5t-32.5 -137.5q0 -1 -0.5 -8.5t-0.5 -26.5q0 -76 32 -145t124 -84q5 -1 16 -1
q119 0 177 169q6 18 20 18q3 0 11 -2q10 -3 15.5 -13.5t2.5 -20.5q-15 -54 -55.5 -110t-97.5 -80q-36 -14 -71 -14q-56 0 -104 28q-61 35 -93 101.5t-32 141.5q0 12 2 34q8 84 45 180t93 147q40 37 95 37q39 0 70 -20zM464 -139q0 -48 -37 -74.5t-111 -26.5q-32 0 -50 5v55
q18 -5 53 -5q37 0 55.5 9.5t18.5 34.5q0 43 -91 55l43 86h58l-26 -53q87 -19 87 -86z" />
    <glyph glyph-name="Egrave" unicode="&#xc8;" horiz-adv-x="556" 
d="M291.5 638q26.5 -33 26.5 -73q0 -19 -8 -41q-11 -31 -37.5 -48.5t-58.5 -17.5q-41 0 -70 29q-7 7 -7 17q0 11 8.5 19t18.5 8q11 0 18 -8q15 -13 35 -13q11 0 19 5q14 7 22.5 21t8.5 30q-1 30 -25 49t-55 19q-15 0 -27 -4q-36 -13 -58.5 -45t-22.5 -71q0 -29 18 -52.5
t45 -31.5q22 1 45 -7q18 -7 18 -25q0 -5 -1 -8q-1 -8 -9 -13t-17 -5q-8 -2 -15 -2q-13 0 -30 5q-47 -8 -81 -50.5t-45 -93.5q-4 -22 -4 -35q0 -39 17.5 -73t50.5 -53q32 -18 68 -18q60 0 110 49t72 120q2 8 8.5 12t13.5 4q11 0 19.5 -7t8.5 -19q0 -5 -1 -8q-28 -92 -86 -147
t-140 -55q-15 0 -23 1q-53 2 -95.5 36t-61.5 86q-14 32 -14 74q0 70 38 129q34 53 86 82q-46 45 -46 108q0 33 13 65q18 45 58.5 75t87.5 30q22 0 37 -5q41 -11 67.5 -44zM354 771h-59q-37 29 -80.5 76t-61.5 74v10h105q16 -32 44.5 -76.5t51.5 -71.5v-12z" />
    <glyph glyph-name="Eacute" unicode="&#xc9;" horiz-adv-x="556" 
d="M291.5 638q26.5 -33 26.5 -73q0 -19 -8 -41q-11 -31 -37.5 -48.5t-58.5 -17.5q-41 0 -70 29q-7 7 -7 17q0 11 8.5 19t18.5 8q11 0 18 -8q15 -13 35 -13q11 0 19 5q14 7 22.5 21t8.5 30q-1 30 -25 49t-55 19q-15 0 -27 -4q-36 -13 -58.5 -45t-22.5 -71q0 -29 18 -52.5
t45 -31.5q22 1 45 -7q18 -7 18 -25q0 -5 -1 -8q-1 -8 -9 -13t-17 -5q-8 -2 -15 -2q-13 0 -30 5q-47 -8 -81 -50.5t-45 -93.5q-4 -22 -4 -35q0 -39 17.5 -73t50.5 -53q32 -18 68 -18q60 0 110 49t72 120q2 8 8.5 12t13.5 4q11 0 19.5 -7t8.5 -19q0 -5 -1 -8q-28 -92 -86 -147
t-140 -55q-15 0 -23 1q-53 2 -95.5 36t-61.5 86q-14 32 -14 74q0 70 38 129q34 53 86 82q-46 45 -46 108q0 33 13 65q18 45 58.5 75t87.5 30q22 0 37 -5q41 -11 67.5 -44zM221 783q19 23 47.5 66.5t47.5 81.5h106v-10q-21 -31 -66.5 -78.5t-76.5 -71.5h-58v12z" />
    <glyph glyph-name="Ecircumflex" unicode="&#xca;" horiz-adv-x="556" 
d="M125 782q61 65 86 96.5t37 52.5h90q25 -49 125 -149v-11h-62q-44 26 -109 90q-64 -62 -107 -90h-60v11zM291.5 638q26.5 -33 26.5 -73q0 -19 -8 -41q-11 -31 -37.5 -48.5t-58.5 -17.5q-41 0 -70 29q-7 7 -7 17q0 11 8.5 19t18.5 8q11 0 18 -8q15 -13 35 -13q11 0 19 5
q14 7 22.5 21t8.5 30q-1 30 -25 49t-55 19q-15 0 -27 -4q-36 -13 -58.5 -45t-22.5 -71q0 -29 18 -52.5t45 -31.5q22 1 45 -7q18 -7 18 -25q0 -5 -1 -8q-1 -8 -9 -13t-17 -5q-8 -2 -15 -2q-13 0 -30 5q-47 -8 -81 -50.5t-45 -93.5q-4 -22 -4 -35q0 -39 17.5 -73t50.5 -53
q32 -18 68 -18q60 0 110 49t72 120q2 8 8.5 12t13.5 4q11 0 19.5 -7t8.5 -19q0 -5 -1 -8q-28 -92 -86 -147t-140 -55q-15 0 -23 1q-53 2 -95.5 36t-61.5 86q-14 32 -14 74q0 70 38 129q34 53 86 82q-46 45 -46 108q0 33 13 65q18 45 58.5 75t87.5 30q22 0 37 -5
q41 -11 67.5 -44z" />
    <glyph glyph-name="Edieresis" unicode="&#xcb;" horiz-adv-x="556" 
d="M291.5 638q26.5 -33 26.5 -73q0 -19 -8 -41q-11 -31 -37.5 -48.5t-58.5 -17.5q-41 0 -70 29q-7 7 -7 17q0 11 8.5 19t18.5 8q11 0 18 -8q15 -13 35 -13q11 0 19 5q14 7 22.5 21t8.5 30q-1 30 -25 49t-55 19q-15 0 -27 -4q-36 -13 -58.5 -45t-22.5 -71q0 -29 18 -52.5
t45 -31.5q22 1 45 -7q18 -7 18 -25q0 -5 -1 -8q-1 -8 -9 -13t-17 -5q-8 -2 -15 -2q-13 0 -30 5q-47 -8 -81 -50.5t-45 -93.5q-4 -22 -4 -35q0 -39 17.5 -73t50.5 -53q32 -18 68 -18q60 0 110 49t72 120q2 8 8.5 12t13.5 4q11 0 19.5 -7t8.5 -19q0 -5 -1 -8q-28 -92 -86 -147
t-140 -55q-15 0 -23 1q-53 2 -95.5 36t-61.5 86q-14 32 -14 74q0 70 38 129q34 53 86 82q-46 45 -46 108q0 33 13 65q18 45 58.5 75t87.5 30q22 0 37 -5q41 -11 67.5 -44zM156 846q0 26 13.5 37.5t33.5 11.5q19 0 33 -11.5t14 -37.5t-14 -38t-33 -12q-20 0 -33.5 12
t-13.5 38zM344 846q0 26 13.5 37.5t32.5 11.5t33 -11.5t14 -37.5t-14 -38t-33 -12t-32.5 12t-13.5 38z" />
    <glyph glyph-name="Igrave" unicode="&#xcc;" horiz-adv-x="338" 
d="M417 687q29 0 49 -14q31 -24 31 -54q0 -11 -5 -21.5t-13 -17.5q-17 -14 -39 -19q-14 -4 -25 -5.5t-19 -3.5l-25 -5l-49 -267l-17 -94q-9 -48 -22 -76q-19 -47 -48 -72q-34 -29 -72 -36q-17 -4 -39 -4q-31 0 -61 11t-53 32q-29 27 -45 65t-15 78q0 44 21 81q22 42 58 59
q28 13 53 13q9 0 29 -4q20 -5 36.5 -17.5t26.5 -30.5q3 -6 3 -14q0 -16 -13 -22q-6 -3 -12 -3q-15 0 -30 22q-21 14 -41 14q-21 0 -36.5 -12t-22.5 -22q-23 -32 -23 -69q0 -33 17.5 -63.5t46 -49t60.5 -18.5q28 0 53 14q16 7 38.5 33.5t37.5 95.5l35 190l29 156l-114 -23
q-31 -6 -45 -16.5t-14 -21.5q0 -9 9 -14q15 -7 21 -12t6 -14q0 -11 -8 -19t-19 -8q-25 0 -43.5 19.5t-18.5 44.5t15.5 46t38.5 32q26 11 56.5 17t36.5 7q22 4 88 17q3 22 13.5 47.5t33.5 37.5q20 10 45 10zM378 597q7 0 59 13q8 1 8 10q0 8 -7.5 15t-19.5 7q-4 0 -18 -4
q-16 -5 -22 -41zM230 771h-59q-37 29 -80.5 76t-61.5 74v10h105q16 -32 44.5 -76.5t51.5 -71.5v-12z" />
    <glyph glyph-name="Iacute" unicode="&#xcd;" horiz-adv-x="338" 
d="M417 687q29 0 49 -14q31 -24 31 -54q0 -11 -5 -21.5t-13 -17.5q-17 -14 -39 -19q-14 -4 -25 -5.5t-19 -3.5l-25 -5l-49 -267l-17 -94q-9 -48 -22 -76q-19 -47 -48 -72q-34 -29 -72 -36q-17 -4 -39 -4q-31 0 -61 11t-53 32q-29 27 -45 65t-15 78q0 44 21 81q22 42 58 59
q28 13 53 13q9 0 29 -4q20 -5 36.5 -17.5t26.5 -30.5q3 -6 3 -14q0 -16 -13 -22q-6 -3 -12 -3q-15 0 -30 22q-21 14 -41 14q-21 0 -36.5 -12t-22.5 -22q-23 -32 -23 -69q0 -33 17.5 -63.5t46 -49t60.5 -18.5q28 0 53 14q16 7 38.5 33.5t37.5 95.5l35 190l29 156l-114 -23
q-31 -6 -45 -16.5t-14 -21.5q0 -9 9 -14q15 -7 21 -12t6 -14q0 -11 -8 -19t-19 -8q-25 0 -43.5 19.5t-18.5 44.5t15.5 46t38.5 32q26 11 56.5 17t36.5 7q22 4 88 17q3 22 13.5 47.5t33.5 37.5q20 10 45 10zM378 597q7 0 59 13q8 1 8 10q0 8 -7.5 15t-19.5 7q-4 0 -18 -4
q-16 -5 -22 -41zM115 783q19 23 47.5 66.5t47.5 81.5h106v-10q-21 -31 -66.5 -78.5t-76.5 -71.5h-58v12z" />
    <glyph glyph-name="Icircumflex" unicode="&#xce;" horiz-adv-x="338" 
d="M-1 782q61 65 86 96.5t37 52.5h90q25 -49 125 -149v-11h-62q-44 26 -109 90q-64 -62 -107 -90h-60v11zM417 687q29 0 49 -14q31 -24 31 -54q0 -11 -5 -21.5t-13 -17.5q-17 -14 -39 -19q-14 -4 -25 -5.5t-19 -3.5l-25 -5l-49 -267l-17 -94q-9 -48 -22 -76q-19 -47 -48 -72
q-34 -29 -72 -36q-17 -4 -39 -4q-31 0 -61 11t-53 32q-29 27 -45 65t-15 78q0 44 21 81q22 42 58 59q28 13 53 13q9 0 29 -4q20 -5 36.5 -17.5t26.5 -30.5q3 -6 3 -14q0 -16 -13 -22q-6 -3 -12 -3q-15 0 -30 22q-21 14 -41 14q-21 0 -36.5 -12t-22.5 -22q-23 -32 -23 -69
q0 -33 17.5 -63.5t46 -49t60.5 -18.5q28 0 53 14q16 7 38.5 33.5t37.5 95.5l35 190l29 156l-114 -23q-31 -6 -45 -16.5t-14 -21.5q0 -9 9 -14q15 -7 21 -12t6 -14q0 -11 -8 -19t-19 -8q-25 0 -43.5 19.5t-18.5 44.5t15.5 46t38.5 32q26 11 56.5 17t36.5 7q22 4 88 17
q3 22 13.5 47.5t33.5 37.5q20 10 45 10zM378 597q7 0 59 13q8 1 8 10q0 8 -7.5 15t-19.5 7q-4 0 -18 -4q-16 -5 -22 -41z" />
    <glyph glyph-name="Idieresis" unicode="&#xcf;" horiz-adv-x="338" 
d="M417 687q29 0 49 -14q31 -24 31 -54q0 -11 -5 -21.5t-13 -17.5q-17 -14 -39 -19q-14 -4 -25 -5.5t-19 -3.5l-25 -5l-49 -267l-17 -94q-9 -48 -22 -76q-19 -47 -48 -72q-34 -29 -72 -36q-17 -4 -39 -4q-31 0 -61 11t-53 32q-29 27 -45 65t-15 78q0 44 21 81q22 42 58 59
q28 13 53 13q9 0 29 -4q20 -5 36.5 -17.5t26.5 -30.5q3 -6 3 -14q0 -16 -13 -22q-6 -3 -12 -3q-15 0 -30 22q-21 14 -41 14q-21 0 -36.5 -12t-22.5 -22q-23 -32 -23 -69q0 -33 17.5 -63.5t46 -49t60.5 -18.5q28 0 53 14q16 7 38.5 33.5t37.5 95.5l35 190l29 156l-114 -23
q-31 -6 -45 -16.5t-14 -21.5q0 -9 9 -14q15 -7 21 -12t6 -14q0 -11 -8 -19t-19 -8q-25 0 -43.5 19.5t-18.5 44.5t15.5 46t38.5 32q26 11 56.5 17t36.5 7q22 4 88 17q3 22 13.5 47.5t33.5 37.5q20 10 45 10zM378 597q7 0 59 13q8 1 8 10q0 8 -7.5 15t-19.5 7q-4 0 -18 -4
q-16 -5 -22 -41zM29 846q0 26 13.5 37.5t33.5 11.5q19 0 33 -11.5t14 -37.5t-14 -38t-33 -12q-20 0 -33.5 12t-13.5 38zM217 846q0 26 13.5 37.5t32.5 11.5t33 -11.5t14 -37.5t-14 -38t-33 -12t-32.5 12t-13.5 38z" />
    <glyph glyph-name="Eth" unicode="&#xd0;" horiz-adv-x="729" 
d="M669 364q0 -175 -96 -269.5t-278 -94.5h-191v314h-74v78h74v322h213q167 0 259.5 -92t92.5 -258zM574 361q0 137 -68 206.5t-202 69.5h-110v-245h178v-78h-178v-237h90q290 0 290 284z" />
    <glyph glyph-name="Ntilde" unicode="&#xd1;" horiz-adv-x="759" 
d="M459 772q-21 0 -41 9t-39.5 19.5t-37 19.5t-34.5 9q-24 0 -36 -14.5t-19 -43.5h-51q6 60 34 94t76 34q22 0 42.5 -9t39.5 -19.5t37 -19.5t33 -9q23 0 35.5 14.5t19.5 43.5h50q-6 -58 -34 -93t-75 -35zM663 676q35 -25 51 -64q11 -23 13 -40q6 -27 5 -53q0 -30 -5 -62.5
t-6 -38.5q-44 -262 -65 -393q-2 -11 -12.5 -16t-20.5 -3q-8 2 -16 12q-3 6 -3 12t1 9q4 25 7 41q25 162 48 293q2 15 6 34q11 66 12 83q1 9 1 25q0 78 -29 104.5t-55 26.5q-55 -2 -100.5 -55t-85.5 -132q-18 -124 -37 -226l-18 -97l-11 -48q-6 -32 -14 -46q-8 -18 -25 -29.5
t-36 -11.5q-13 0 -27 8q-18 12 -26.5 32.5t-8.5 44.5q0 41 18 97q13 38 33 86q40 97 80 170l21 39q10 78 14 117q-19 -13 -41 -21q-43 -17 -98 -17q-44 0 -99 12q-90 18 -171 72q-13 10 -13 25q0 6 3 12q4 5 10.5 9t13.5 4t12 -4q54 -36 116 -56.5t124 -20.5q12 0 36 2
q34 3 64.5 18.5t45.5 41.5q6 9 15 14.5t16 5.5q10 0 18 -7.5t8 -17.5q0 -15 -4 -41l-4 -41l7 10q30 43 65 70q20 16 44.5 25t49.5 9q43 0 73 -23zM316 274q-33 -73 -41 -95q-18 -55 -18 -91q0 -15 3 -23.5t7 -9.5q12 -2 19.5 12t13.5 47.5t20 118.5l13 78z" />
    <glyph glyph-name="Ograve" unicode="&#xd2;" horiz-adv-x="780" 
d="M403.5 677q20.5 -14 27.5 -38q3 -12 3 -24q0 -40 -30.5 -72.5t-72.5 -47.5q-24 -10 -63 -15l-9 -24q-15 -50 -20 -80q-7 -53 -7 -96q0 -35 4 -63q8 -55 29 -93t45 -54t54 -16q32 0 55 13q39 16 68.5 60t55.5 137q14 44 18.5 87.5t4.5 45.5q2 32 2 52q0 162 -89 180
q-10 2 -15.5 12t-2.5 20q3 11 12 16t20 3q38 -8 66.5 -37t42.5 -68q15 -40 17 -93q1 -14 1 -42q0 -34 -2 -51q-8 -101 -39 -187q-18 -49 -39 -86.5t-51 -64.5q-27 -23 -59.5 -37t-65.5 -14q-22 0 -42 7q-43 13 -73.5 46.5t-46.5 78.5q-13 33 -20 91q-3 32 -3 62q0 98 32 194
q-30 1 -77 11q-90 18 -171 72q-13 10 -13 25q0 6 3 12q4 5 10.5 9t13.5 4t12 -4q55 -37 117.5 -57.5t125.5 -19.5q29 64 60.5 111.5t65.5 48.5q25 0 45.5 -14zM341 618q-17 -25 -29.5 -49t-16.5 -31q61 17 80 56q7 11 7 23q0 15 -11 20q-13 6 -30 -19zM448 771h-59
q-37 29 -80.5 76t-61.5 74v10h105q16 -32 44.5 -76.5t51.5 -71.5v-12z" />
    <glyph glyph-name="Oacute" unicode="&#xd3;" horiz-adv-x="780" 
d="M403.5 677q20.5 -14 27.5 -38q3 -12 3 -24q0 -40 -30.5 -72.5t-72.5 -47.5q-24 -10 -63 -15l-9 -24q-15 -50 -20 -80q-7 -53 -7 -96q0 -35 4 -63q8 -55 29 -93t45 -54t54 -16q32 0 55 13q39 16 68.5 60t55.5 137q14 44 18.5 87.5t4.5 45.5q2 32 2 52q0 162 -89 180
q-10 2 -15.5 12t-2.5 20q3 11 12 16t20 3q38 -8 66.5 -37t42.5 -68q15 -40 17 -93q1 -14 1 -42q0 -34 -2 -51q-8 -101 -39 -187q-18 -49 -39 -86.5t-51 -64.5q-27 -23 -59.5 -37t-65.5 -14q-22 0 -42 7q-43 13 -73.5 46.5t-46.5 78.5q-13 33 -20 91q-3 32 -3 62q0 98 32 194
q-30 1 -77 11q-90 18 -171 72q-13 10 -13 25q0 6 3 12q4 5 10.5 9t13.5 4t12 -4q55 -37 117.5 -57.5t125.5 -19.5q29 64 60.5 111.5t65.5 48.5q25 0 45.5 -14zM341 618q-17 -25 -29.5 -49t-16.5 -31q61 17 80 56q7 11 7 23q0 15 -11 20q-13 6 -30 -19zM321 783
q19 23 47.5 66.5t47.5 81.5h106v-10q-21 -31 -66.5 -78.5t-76.5 -71.5h-58v12z" />
    <glyph glyph-name="Ocircumflex" unicode="&#xd4;" horiz-adv-x="780" 
d="M215 782q61 65 86 96.5t37 52.5h90q25 -49 125 -149v-11h-62q-44 26 -109 90q-64 -62 -107 -90h-60v11zM403.5 677q20.5 -14 27.5 -38q3 -12 3 -24q0 -40 -30.5 -72.5t-72.5 -47.5q-24 -10 -63 -15l-9 -24q-15 -50 -20 -80q-7 -53 -7 -96q0 -35 4 -63q8 -55 29 -93
t45 -54t54 -16q32 0 55 13q39 16 68.5 60t55.5 137q14 44 18.5 87.5t4.5 45.5q2 32 2 52q0 162 -89 180q-10 2 -15.5 12t-2.5 20q3 11 12 16t20 3q38 -8 66.5 -37t42.5 -68q15 -40 17 -93q1 -14 1 -42q0 -34 -2 -51q-8 -101 -39 -187q-18 -49 -39 -86.5t-51 -64.5
q-27 -23 -59.5 -37t-65.5 -14q-22 0 -42 7q-43 13 -73.5 46.5t-46.5 78.5q-13 33 -20 91q-3 32 -3 62q0 98 32 194q-30 1 -77 11q-90 18 -171 72q-13 10 -13 25q0 6 3 12q4 5 10.5 9t13.5 4t12 -4q55 -37 117.5 -57.5t125.5 -19.5q29 64 60.5 111.5t65.5 48.5q25 0 45.5 -14
zM341 618q-17 -25 -29.5 -49t-16.5 -31q61 17 80 56q7 11 7 23q0 15 -11 20q-13 6 -30 -19z" />
    <glyph glyph-name="Otilde" unicode="&#xd5;" horiz-adv-x="780" 
d="M461 772q-21 0 -41 9t-39.5 19.5t-37 19.5t-34.5 9q-24 0 -36 -14.5t-19 -43.5h-51q6 60 34 94t76 34q22 0 42.5 -9t39.5 -19.5t37 -19.5t33 -9q23 0 35.5 14.5t19.5 43.5h50q-6 -58 -34 -93t-75 -35zM403.5 677q20.5 -14 27.5 -38q3 -12 3 -24q0 -40 -30.5 -72.5
t-72.5 -47.5q-24 -10 -63 -15l-9 -24q-15 -50 -20 -80q-7 -53 -7 -96q0 -35 4 -63q8 -55 29 -93t45 -54t54 -16q32 0 55 13q39 16 68.5 60t55.5 137q14 44 18.5 87.5t4.5 45.5q2 32 2 52q0 162 -89 180q-10 2 -15.5 12t-2.5 20q3 11 12 16t20 3q38 -8 66.5 -37t42.5 -68
q15 -40 17 -93q1 -14 1 -42q0 -34 -2 -51q-8 -101 -39 -187q-18 -49 -39 -86.5t-51 -64.5q-27 -23 -59.5 -37t-65.5 -14q-22 0 -42 7q-43 13 -73.5 46.5t-46.5 78.5q-13 33 -20 91q-3 32 -3 62q0 98 32 194q-30 1 -77 11q-90 18 -171 72q-13 10 -13 25q0 6 3 12q4 5 10.5 9
t13.5 4t12 -4q55 -37 117.5 -57.5t125.5 -19.5q29 64 60.5 111.5t65.5 48.5q25 0 45.5 -14zM341 618q-17 -25 -29.5 -49t-16.5 -31q61 17 80 56q7 11 7 23q0 15 -11 20q-13 6 -30 -19z" />
    <glyph glyph-name="Odieresis" unicode="&#xd6;" horiz-adv-x="651" 
d="M583 763q7 -8 7 -18q0 -11 -7 -19t-19 -8t-18.5 8t-6.5 19t6.5 18.5t18.5 7.5t19 -8zM433 763q7 -8 7 -18q0 -11 -7 -19t-19 -8t-18.5 8t-6.5 19t6.5 18.5t18.5 7.5t19 -8zM403.5 677q20.5 -14 27.5 -38q3 -12 3 -24q0 -40 -30.5 -72.5t-72.5 -47.5q-24 -10 -63 -15
l-9 -24q-15 -50 -20 -80q-7 -53 -7 -96q0 -35 4 -63q8 -55 29 -93t45 -54t54 -16q32 0 55 13q39 16 68.5 60t55.5 137q14 44 18.5 87.5t4.5 45.5q2 32 2 52q0 162 -89 180q-10 2 -15.5 12t-2.5 20q3 11 12 16t20 3q38 -8 66.5 -37t42.5 -68q15 -40 17 -93q1 -14 1 -42
q0 -34 -2 -51q-8 -101 -39 -187q-18 -49 -39 -86.5t-51 -64.5q-27 -23 -59.5 -37t-65.5 -14q-22 0 -42 7q-43 13 -73.5 46.5t-46.5 78.5q-13 33 -20 91q-3 32 -3 62q0 98 32 194q-30 1 -77 11q-90 18 -171 72q-13 10 -13 25q0 6 3 12q4 5 10.5 9t13.5 4t12 -4
q55 -37 117.5 -57.5t125.5 -19.5q29 64 60.5 111.5t65.5 48.5q25 0 45.5 -14zM341 618q-17 -25 -29.5 -49t-16.5 -31q61 17 80 56q7 11 7 23q0 15 -11 20q-13 6 -30 -19z" />
    <glyph glyph-name="multiply" unicode="&#xd7;" horiz-adv-x="550" 
d="M224 321l-155 156l51 51l155 -155l157 155l51 -50l-157 -157l156 -156l-50 -50l-157 155l-155 -154l-50 51zM221 622z" />
    <glyph glyph-name="Oslash" unicode="&#xd8;" horiz-adv-x="780" 
d="M720 358q0 -171 -86.5 -269.5t-242.5 -98.5q-113 0 -185 47l-48 -68l-61 40l52 74q-88 97 -88 276q0 174 85.5 270t245.5 96q100 0 178 -45l46 66l61 -41l-51 -71q94 -99 94 -276zM625 358q0 129 -51 202l-320 -454q56 -38 137 -38q115 0 174.5 73t59.5 217zM156 358
q0 -126 47 -198l319 451q-53 35 -130 35q-116 0 -176 -73.5t-60 -214.5z" />
    <glyph glyph-name="Ugrave" unicode="&#xd9;" horiz-adv-x="730" 
d="M402.5 692q20.5 -14 27.5 -38q3 -12 3 -24q0 -40 -30.5 -72.5t-72.5 -47.5q-13 -5 -23 -8q-6 -32 -16 -98l-12 -91l-10 -96q-5 -47 -5 -74q0 -91 55 -91q5 0 17 2q54 13 87 68.5t60.5 163.5t78.5 357q2 10 12 14.5t20 1.5q11 -2 15.5 -10.5t2.5 -20.5q-11 -66 -93 -475
q-2 -9 -5.5 -26.5t-3.5 -30.5q0 -9 1 -14q2 -11 8 -21t15 -10q13 0 22.5 8.5t19.5 23.5q27 41 54 138q4 15 21 15q5 0 8 -1q11 -2 17 -10t4 -16q-18 -61 -34 -101.5t-40 -70.5q-14 -18 -34 -29t-40 -8q-21 3 -37.5 14t-23.5 29q-9 17 -11 39q-37 -52 -85 -71
q-24 -11 -50 -11q-18 0 -36 6q-22 8 -39.5 23.5t-26.5 36.5q-13 29 -13 69q0 39 7 93l3 32q18 156 32 233q-56 -3 -119 12q-90 18 -171 72q-13 10 -13 25q0 6 3 12q4 5 10.5 9t13.5 4t12 -4q54 -37 116.5 -57.5t125.5 -20.5q11 0 33 2q9 49 17.5 79.5t27 54.5t49.5 25
q25 0 45.5 -14zM359 655q-17 0 -24 -22.5t-15 -70.5q39 18 54 47q7 11 7 23q0 15 -11 20q-6 3 -11 3zM422 771h-59q-37 29 -80.5 76t-61.5 74v10h105q16 -32 44.5 -76.5t51.5 -71.5v-12z" />
    <glyph glyph-name="Uacute" unicode="&#xda;" horiz-adv-x="730" 
d="M402.5 692q20.5 -14 27.5 -38q3 -12 3 -24q0 -40 -30.5 -72.5t-72.5 -47.5q-13 -5 -23 -8q-6 -32 -16 -98l-12 -91l-10 -96q-5 -47 -5 -74q0 -91 55 -91q5 0 17 2q54 13 87 68.5t60.5 163.5t78.5 357q2 10 12 14.5t20 1.5q11 -2 15.5 -10.5t2.5 -20.5q-11 -66 -93 -475
q-2 -9 -5.5 -26.5t-3.5 -30.5q0 -9 1 -14q2 -11 8 -21t15 -10q13 0 22.5 8.5t19.5 23.5q27 41 54 138q4 15 21 15q5 0 8 -1q11 -2 17 -10t4 -16q-18 -61 -34 -101.5t-40 -70.5q-14 -18 -34 -29t-40 -8q-21 3 -37.5 14t-23.5 29q-9 17 -11 39q-37 -52 -85 -71
q-24 -11 -50 -11q-18 0 -36 6q-22 8 -39.5 23.5t-26.5 36.5q-13 29 -13 69q0 39 7 93l3 32q18 156 32 233q-56 -3 -119 12q-90 18 -171 72q-13 10 -13 25q0 6 3 12q4 5 10.5 9t13.5 4t12 -4q54 -37 116.5 -57.5t125.5 -20.5q11 0 33 2q9 49 17.5 79.5t27 54.5t49.5 25
q25 0 45.5 -14zM359 655q-17 0 -24 -22.5t-15 -70.5q39 18 54 47q7 11 7 23q0 15 -11 20q-6 3 -11 3zM293 783q19 23 47.5 66.5t47.5 81.5h106v-10q-21 -31 -66.5 -78.5t-76.5 -71.5h-58v12z" />
    <glyph glyph-name="Ucircumflex" unicode="&#xdb;" horiz-adv-x="730" 
d="M189 782q61 65 86 96.5t37 52.5h90q25 -49 125 -149v-11h-62q-44 26 -109 90q-64 -62 -107 -90h-60v11zM402.5 692q20.5 -14 27.5 -38q3 -12 3 -24q0 -40 -30.5 -72.5t-72.5 -47.5q-13 -5 -23 -8q-6 -32 -16 -98l-12 -91l-10 -96q-5 -47 -5 -74q0 -91 55 -91q5 0 17 2
q54 13 87 68.5t60.5 163.5t78.5 357q2 10 12 14.5t20 1.5q11 -2 15.5 -10.5t2.5 -20.5q-11 -66 -93 -475q-2 -9 -5.5 -26.5t-3.5 -30.5q0 -9 1 -14q2 -11 8 -21t15 -10q13 0 22.5 8.5t19.5 23.5q27 41 54 138q4 15 21 15q5 0 8 -1q11 -2 17 -10t4 -16q-18 -61 -34 -101.5
t-40 -70.5q-14 -18 -34 -29t-40 -8q-21 3 -37.5 14t-23.5 29q-9 17 -11 39q-37 -52 -85 -71q-24 -11 -50 -11q-18 0 -36 6q-22 8 -39.5 23.5t-26.5 36.5q-13 29 -13 69q0 39 7 93l3 32q18 156 32 233q-56 -3 -119 12q-90 18 -171 72q-13 10 -13 25q0 6 3 12q4 5 10.5 9
t13.5 4t12 -4q54 -37 116.5 -57.5t125.5 -20.5q11 0 33 2q9 49 17.5 79.5t27 54.5t49.5 25q25 0 45.5 -14zM359 655q-17 0 -24 -22.5t-15 -70.5q39 18 54 47q7 11 7 23q0 15 -11 20q-6 3 -11 3z" />
    <glyph glyph-name="Udieresis" unicode="&#xdc;" horiz-adv-x="637" 
d="M603 763q7 -8 7 -18q0 -11 -7 -19t-19 -8t-18.5 8t-6.5 19t6.5 18.5t18.5 7.5t19 -8zM453 763q7 -8 7 -18q0 -11 -7 -19t-19 -8t-18.5 8t-6.5 19t6.5 18.5t18.5 7.5t19 -8zM402.5 692q20.5 -14 27.5 -38q3 -12 3 -24q0 -40 -30.5 -72.5t-72.5 -47.5q-13 -5 -23 -8
q-6 -32 -16 -98l-12 -91l-10 -96q-5 -47 -5 -74q0 -91 55 -91q5 0 17 2q54 13 87 68.5t60.5 163.5t78.5 357q2 10 12 14.5t20 1.5q11 -2 15.5 -10.5t2.5 -20.5q-11 -66 -93 -475q-2 -9 -5.5 -26.5t-3.5 -30.5q0 -9 1 -14q2 -11 8 -21t15 -10q13 0 22.5 8.5t19.5 23.5
q27 41 54 138q4 15 21 15q5 0 8 -1q11 -2 17 -10t4 -16q-18 -61 -34 -101.5t-40 -70.5q-14 -18 -34 -29t-40 -8q-21 3 -37.5 14t-23.5 29q-9 17 -11 39q-37 -52 -85 -71q-24 -11 -50 -11q-18 0 -36 6q-22 8 -39.5 23.5t-26.5 36.5q-13 29 -13 69q0 39 7 93l3 32
q18 156 32 233q-56 -3 -119 12q-90 18 -171 72q-13 10 -13 25q0 6 3 12q4 5 10.5 9t13.5 4t12 -4q54 -37 116.5 -57.5t125.5 -20.5q11 0 33 2q9 49 17.5 79.5t27 54.5t49.5 25q25 0 45.5 -14zM359 655q-17 0 -24 -22.5t-15 -70.5q39 18 54 47q7 11 7 23q0 15 -11 20
q-6 3 -11 3z" />
    <glyph glyph-name="Yacute" unicode="&#xdd;" horiz-adv-x="565" 
d="M402.5 692q20.5 -14 27.5 -38q4 -18 4 -26q0 -33 -22 -59.5t-51.5 -43.5t-53.5 -23q-6 -32 -16 -98l-9 -70q-14 -96 -14 -135q0 -41 11.5 -64t39.5 -23q5 0 17 2q57 14 89.5 56t61.5 144t75 329q2 10 12 14.5t20 1.5q11 -2 15.5 -10.5t2.5 -20.5q-16 -76 -23 -113
q-30 -141 -59 -288q-25 -124 -33 -158l-13 -60q-1 -1 0.5 -2t2.5 0q51 23 85 72q17 25 29.5 59.5t25.5 82.5q3 10 11 13.5t18 1.5q11 -2 16.5 -13.5t3.5 -19.5q-25 -84 -47 -129t-62 -72q-52 -35 -96 -49q-7 -22 -28 -71q-14 -32 -42 -50t-59 -18q-21 0 -39.5 8.5
t-30.5 24.5q-17 22 -17 50q0 21 10 38q16 28 60 39.5t102 17.5l31 140q-36 -39 -83 -61q-24 -11 -50 -11q-18 0 -36 6q-22 8 -39.5 23.5t-26.5 36.5q-13 29 -13 69q0 19 1 29q1 26 15 115t26 154q-56 -3 -119 12q-90 18 -171 72q-13 10 -13 25q0 6 3 12q4 5 10.5 9t13.5 4
t12 -4q54 -37 116.5 -57.5t125.5 -20.5q11 0 33 2q9 49 17.5 79.5t27 54.5t49.5 25q25 0 45.5 -14zM359 655q-17 0 -24 -22.5t-15 -70.5q39 18 54 47q7 11 7 23q0 15 -11 20q-6 3 -11 3zM358.5 -67q-31.5 -7 -38.5 -11t-11.5 -11.5t-4.5 -14.5q0 -6 3 -12q12 -21 33 -21
q20 0 39.5 21t30.5 60q-20 -4 -51.5 -11zM216 783q19 23 47.5 66.5t47.5 81.5h106v-10q-21 -31 -66.5 -78.5t-76.5 -71.5h-58v12z" />
    <glyph glyph-name="Thorn" unicode="&#xde;" horiz-adv-x="604" 
d="M554 382q0 -110 -73.5 -168.5t-212.5 -58.5h-81v-155h-90v714h90v-124h96q137 0 204 -51.5t67 -156.5zM187 231h72q108 0 155 34.5t47 111.5q0 70 -44.5 103t-140.5 33h-89v-282z" />
    <glyph glyph-name="germandbls" unicode="&#xdf;" horiz-adv-x="381" 
d="M137 9q-32 26 -41 66q-4 19 0 42q5 33 27 55q23 22 54 29q37 7 75 -15q8 -5 10 -15q2 -11 -5 -21q-7 -9 -16 -11t-20 4q-17 10 -37 6q-10 -2 -17 -8q-13 -10 -18 -25q-6 -16 -3 -32q7 -29 35 -43q25 -13 57 -8q15 3 26 10q33 19 48 55q16 36 9 74q-6 29 -28 48
q-23 20 -51 22q-24 -6 -45 -2q-19 4 -23 21q-1 5 0 8q-1 8 6 15q2 2 16 8q7 4 14 5q13 3 30 1q45 17 70 65q27 52 26 101q-1 22 -3 35q-8 38 -32 68t-60 42q-33 11 -70 5q-65 -12 -87 -84q-66 -205 -134 -1031l-1 -10q-6 -6 -12 -7q-11 -2 -21 3t-12 17q-1 5 -1 8
q79 963 156 1079q43 65 97 74q15 2 23 3q52 9 101 -16q45 -24 77 -73q21 -32 28 -70q14 -68 -12 -134q-23 -58 -68 -97q54 -35 66 -97q7 -32 0 -66q-9 -48 -42.5 -85t-79.5 -47q-18 -3 -38 -2q-42 3 -74 30z" />
    <glyph glyph-name="agrave" unicode="&#xe0;" horiz-adv-x="561" 
d="M135 420q36 0 66 -21.5t40 -57.5q4 -13 -5 -22.5t-21 -9.5q-18 0 -24 18q-5 17 -19.5 29t-31.5 12q-38 0 -58 -39q-44 -85 -44 -198q0 -5 0.5 -21.5t4.5 -30.5t13 -21q8 -7 19 -7t22.5 6t19.5 14q39 39 55 100l12 75q1 9 7.5 14t15.5 5q11 0 19.5 -6t8.5 -17
q0 -41 -11 -80l-6 -42q-2 -16 -2 -25q0 -13 4 -24q8 -19 17 -21q29 -8 51 46q19 46 41 125q2 8 8 12t13 4q13 0 22.5 -10.5t5.5 -23.5l-28 -89q-14 -42 -25 -62q-13 -22 -35.5 -39t-45.5 -17q-12 0 -21 4q-37 16 -52 53q-41 -53 -94 -53q-92 0 -92 130q0 27 3 49
q9 71 25 120q11 33 23.5 57t32.5 41q29 23 66 23zM335 606h-59q-37 29 -80.5 76t-61.5 74v10h105q16 -32 44.5 -76.5t51.5 -71.5v-12z" />
    <glyph glyph-name="aacute" unicode="&#xe1;" horiz-adv-x="561" 
d="M135 420q36 0 66 -21.5t40 -57.5q4 -13 -5 -22.5t-21 -9.5q-18 0 -24 18q-5 17 -19.5 29t-31.5 12q-38 0 -58 -39q-44 -85 -44 -198q0 -5 0.5 -21.5t4.5 -30.5t13 -21q8 -7 19 -7t22.5 6t19.5 14q39 39 55 100l12 75q1 9 7.5 14t15.5 5q11 0 19.5 -6t8.5 -17
q0 -41 -11 -80l-6 -42q-2 -16 -2 -25q0 -13 4 -24q8 -19 17 -21q29 -8 51 46q19 46 41 125q2 8 8 12t13 4q13 0 22.5 -10.5t5.5 -23.5l-28 -89q-14 -42 -25 -62q-13 -22 -35.5 -39t-45.5 -17q-12 0 -21 4q-37 16 -52 53q-41 -53 -94 -53q-92 0 -92 130q0 27 3 49
q9 71 25 120q11 33 23.5 57t32.5 41q29 23 66 23zM213 618q19 23 47.5 66.5t47.5 81.5h106v-10q-21 -31 -66.5 -78.5t-76.5 -71.5h-58v12z" />
    <glyph glyph-name="acircumflex" unicode="&#xe2;" horiz-adv-x="561" 
d="M109 617q61 65 86 96.5t37 52.5h90q25 -49 125 -149v-11h-62q-44 26 -109 90q-64 -62 -107 -90h-60v11zM135 420q36 0 66 -21.5t40 -57.5q4 -13 -5 -22.5t-21 -9.5q-18 0 -24 18q-5 17 -19.5 29t-31.5 12q-38 0 -58 -39q-44 -85 -44 -198q0 -5 0.5 -21.5t4.5 -30.5
t13 -21q8 -7 19 -7t22.5 6t19.5 14q39 39 55 100l12 75q1 9 7.5 14t15.5 5q11 0 19.5 -6t8.5 -17q0 -41 -11 -80l-6 -42q-2 -16 -2 -25q0 -13 4 -24q8 -19 17 -21q29 -8 51 46q19 46 41 125q2 8 8 12t13 4q13 0 22.5 -10.5t5.5 -23.5l-28 -89q-14 -42 -25 -62
q-13 -22 -35.5 -39t-45.5 -17q-12 0 -21 4q-37 16 -52 53q-41 -53 -94 -53q-92 0 -92 130q0 27 3 49q9 71 25 120q11 33 23.5 57t32.5 41q29 23 66 23z" />
    <glyph glyph-name="atilde" unicode="&#xe3;" horiz-adv-x="561" 
d="M356 607q-21 0 -41 9t-39.5 19.5t-37 19.5t-34.5 9q-24 0 -36 -14.5t-19 -43.5h-51q6 60 34 94t76 34q22 0 42.5 -9t39.5 -19.5t37 -19.5t33 -9q23 0 35.5 14.5t19.5 43.5h50q-6 -58 -34 -93t-75 -35zM135 420q36 0 66 -21.5t40 -57.5q4 -13 -5 -22.5t-21 -9.5
q-18 0 -24 18q-5 17 -19.5 29t-31.5 12q-38 0 -58 -39q-44 -85 -44 -198q0 -5 0.5 -21.5t4.5 -30.5t13 -21q8 -7 19 -7t22.5 6t19.5 14q39 39 55 100l12 75q1 9 7.5 14t15.5 5q11 0 19.5 -6t8.5 -17q0 -41 -11 -80l-6 -42q-2 -16 -2 -25q0 -13 4 -24q8 -19 17 -21
q29 -8 51 46q19 46 41 125q2 8 8 12t13 4q13 0 22.5 -10.5t5.5 -23.5l-28 -89q-14 -42 -25 -62q-13 -22 -35.5 -39t-45.5 -17q-12 0 -21 4q-37 16 -52 53q-41 -53 -94 -53q-92 0 -92 130q0 27 3 49q9 71 25 120q11 33 23.5 57t32.5 41q29 23 66 23z" />
    <glyph glyph-name="adieresis" unicode="&#xe4;" horiz-adv-x="336" 
d="M243 493q7 -8 7 -18q0 -11 -7 -19t-19 -8t-18.5 8t-6.5 19t6.5 18.5t18.5 7.5t19 -8zM143 503q7 -8 7 -18q0 -11 -7 -19t-19 -8t-18.5 8t-6.5 19t6.5 18.5t18.5 7.5t19 -8zM135 420q36 0 66 -21.5t40 -57.5q4 -13 -5 -22.5t-21 -9.5q-18 0 -24 18q-5 17 -19.5 29
t-31.5 12q-38 0 -58 -39q-44 -85 -44 -198q0 -5 0.5 -21.5t4.5 -30.5t13 -21q8 -7 19 -7t22.5 6t19.5 14q39 39 55 100l12 75q1 9 7.5 14t15.5 5q11 0 19.5 -6t8.5 -17q0 -41 -11 -80l-6 -42q-2 -16 -2 -25q0 -13 4 -24q8 -19 17 -21q29 -8 51 46q19 46 41 125q2 8 8 12
t13 4q13 0 22.5 -10.5t5.5 -23.5l-28 -89q-14 -42 -25 -62q-13 -22 -35.5 -39t-45.5 -17q-12 0 -21 4q-37 16 -52 53q-41 -53 -94 -53q-92 0 -92 130q0 27 3 49q9 71 25 120q11 33 23.5 57t32.5 41q29 23 66 23z" />
    <glyph glyph-name="aring" unicode="&#xe5;" horiz-adv-x="561" 
d="M397 713q0 -49 -30.5 -78t-80.5 -29t-79.5 28.5t-29.5 77.5q0 48 29.5 76.5t79.5 28.5q49 0 80 -29t31 -75zM342 712q0 26 -16 41t-40 15t-40 -15t-16 -41t14.5 -41t41.5 -15q25 0 40.5 15t15.5 41zM135 420q36 0 66 -21.5t40 -57.5q4 -13 -5 -22.5t-21 -9.5
q-18 0 -24 18q-5 17 -19.5 29t-31.5 12q-38 0 -58 -39q-44 -85 -44 -198q0 -5 0.5 -21.5t4.5 -30.5t13 -21q8 -7 19 -7t22.5 6t19.5 14q39 39 55 100l12 75q1 9 7.5 14t15.5 5q11 0 19.5 -6t8.5 -17q0 -41 -11 -80l-6 -42q-2 -16 -2 -25q0 -13 4 -24q8 -19 17 -21
q29 -8 51 46q19 46 41 125q2 8 8 12t13 4q13 0 22.5 -10.5t5.5 -23.5l-28 -89q-14 -42 -25 -62q-13 -22 -35.5 -39t-45.5 -17q-12 0 -21 4q-37 16 -52 53q-41 -53 -94 -53q-92 0 -92 130q0 27 3 49q9 71 25 120q11 33 23.5 57t32.5 41q29 23 66 23z" />
    <glyph glyph-name="ae" unicode="&#xe6;" horiz-adv-x="863" 
d="M46 149q0 163 244 171l90 3v34q0 60 -27.5 88.5t-84.5 28.5q-68 0 -150 -41l-27 66q35 20 84.5 33t99.5 13q62 0 102.5 -20.5t61.5 -65.5q26 42 67.5 64.5t96.5 22.5q96 0 153 -66t57 -174v-54h-343q4 -187 155 -187q43 0 80.5 8t83.5 29v-77q-43 -19 -80 -27t-87 -8
q-142 0 -203 113q-40 -61 -88.5 -87t-114.5 -26q-80 0 -125 42t-45 117zM137 148q0 -45 25.5 -66t67.5 -21q68 0 108 40t40 113v48l-75 -3q-86 -3 -126 -29t-40 -82zM602 474q-58 0 -91 -39t-39 -114h248q0 74 -30.5 113.5t-87.5 39.5z" />
    <glyph glyph-name="ccedilla" unicode="&#xe7;" horiz-adv-x="479" 
d="M134 422q36 0 66 -21.5t40 -57.5q4 -13 -5 -22.5t-21 -9.5q-18 0 -24 18q-5 16 -19 28.5t-30 12.5q-32 0 -55.5 -41t-36 -94.5t-12.5 -86.5q0 -45 19.5 -71.5t49.5 -26.5q37 0 75 43t62 128q5 15 20 15q14 0 23.5 -10t5.5 -23q-26 -87 -64 -145.5t-112 -58.5q-16 0 -39 5
q-50 12 -71 56.5t-21 101.5q0 14 2 34q7 57 28.5 116.5t52.5 86.5q29 23 66 23zM374 -139q0 -48 -37 -74.5t-111 -26.5q-32 0 -50 5v55q18 -5 53 -5q37 0 55.5 9.5t18.5 34.5q0 43 -91 55l43 86h58l-26 -53q87 -19 87 -86z" />
    <glyph glyph-name="egrave" unicode="&#xe8;" horiz-adv-x="563" 
d="M132 419q42 0 75.5 -22.5t33.5 -53.5q0 -33 -18 -58.5t-64 -43.5q-56 -23 -119 -45q-2 -32 -2 -48q3 -43 23 -68.5t49 -25.5q36 0 72.5 41.5t61.5 125.5q4 15 21 15q13 0 22.5 -10t5.5 -23q-24 -77 -64 -140t-115 -63q-19 0 -36 4q-50 12 -71 56.5t-21 101.5q0 14 2 34
q7 57 25 105q12 33 24.5 57t31.5 41q26 20 63 20zM108.5 360.5q-12.5 -9.5 -26.5 -29.5q-21 -32 -32 -77l30 11l49 19q3 1 21 7.5t29 17t11 23.5q0 20 -15 29t-35 9q-19 0 -31.5 -9.5zM353 606h-59q-37 29 -80.5 76t-61.5 74v10h105q16 -32 44.5 -76.5t51.5 -71.5v-12z" />
    <glyph glyph-name="eacute" unicode="&#xe9;" horiz-adv-x="563" 
d="M132 419q42 0 75.5 -22.5t33.5 -53.5q0 -33 -18 -58.5t-64 -43.5q-56 -23 -119 -45q-2 -32 -2 -48q3 -43 23 -68.5t49 -25.5q36 0 72.5 41.5t61.5 125.5q4 15 21 15q13 0 22.5 -10t5.5 -23q-24 -77 -64 -140t-115 -63q-19 0 -36 4q-50 12 -71 56.5t-21 101.5q0 14 2 34
q7 57 25 105q12 33 24.5 57t31.5 41q26 20 63 20zM108.5 360.5q-12.5 -9.5 -26.5 -29.5q-21 -32 -32 -77l30 11l49 19q3 1 21 7.5t29 17t11 23.5q0 20 -15 29t-35 9q-19 0 -31.5 -9.5zM228 618q19 23 47.5 66.5t47.5 81.5h106v-10q-21 -31 -66.5 -78.5t-76.5 -71.5h-58v12z
" />
    <glyph glyph-name="ecircumflex" unicode="&#xea;" horiz-adv-x="563" 
d="M124 617q61 65 86 96.5t37 52.5h90q25 -49 125 -149v-11h-62q-44 26 -109 90q-64 -62 -107 -90h-60v11zM132 419q42 0 75.5 -22.5t33.5 -53.5q0 -33 -18 -58.5t-64 -43.5q-56 -23 -119 -45q-2 -32 -2 -48q3 -43 23 -68.5t49 -25.5q36 0 72.5 41.5t61.5 125.5q4 15 21 15
q13 0 22.5 -10t5.5 -23q-24 -77 -64 -140t-115 -63q-19 0 -36 4q-50 12 -71 56.5t-21 101.5q0 14 2 34q7 57 25 105q12 33 24.5 57t31.5 41q26 20 63 20zM108.5 360.5q-12.5 -9.5 -26.5 -29.5q-21 -32 -32 -77l30 11l49 19q3 1 21 7.5t29 17t11 23.5q0 20 -15 29t-35 9
q-19 0 -31.5 -9.5z" />
    <glyph glyph-name="edieresis" unicode="&#xeb;" horiz-adv-x="563" 
d="M132 419q42 0 75.5 -22.5t33.5 -53.5q0 -33 -18 -58.5t-64 -43.5q-56 -23 -119 -45q-2 -32 -2 -48q3 -43 23 -68.5t49 -25.5q36 0 72.5 41.5t61.5 125.5q4 15 21 15q13 0 22.5 -10t5.5 -23q-24 -77 -64 -140t-115 -63q-19 0 -36 4q-50 12 -71 56.5t-21 101.5q0 14 2 34
q7 57 25 105q12 33 24.5 57t31.5 41q26 20 63 20zM108.5 360.5q-12.5 -9.5 -26.5 -29.5q-21 -32 -32 -77l30 11l49 19q3 1 21 7.5t29 17t11 23.5q0 20 -15 29t-35 9q-19 0 -31.5 -9.5zM154 681q0 26 13.5 37.5t33.5 11.5q19 0 33 -11.5t14 -37.5t-14 -38t-33 -12
q-20 0 -33.5 12t-13.5 38zM342 681q0 26 13.5 37.5t32.5 11.5t33 -11.5t14 -37.5t-14 -38t-33 -12t-32.5 12t-13.5 38z" />
    <glyph glyph-name="igrave" unicode="&#xec;" horiz-adv-x="257" 
d="M173 0h-88v536h88v-536zM180 606h-59q-37 29 -80.5 76t-61.5 74v10h105q16 -32 44.5 -76.5t51.5 -71.5v-12z" />
    <glyph glyph-name="iacute" unicode="&#xed;" horiz-adv-x="257" 
d="M173 0h-88v536h88v-536zM82 618q19 23 47.5 66.5t47.5 81.5h106v-10q-21 -31 -66.5 -78.5t-76.5 -71.5h-58v12z" />
    <glyph glyph-name="icircumflex" unicode="&#xee;" horiz-adv-x="257" 
d="M-40 617q61 65 86 96.5t37 52.5h90q25 -49 125 -149v-11h-62q-44 26 -109 90q-64 -62 -107 -90h-60v11zM173 0h-88v536h88v-536z" />
    <glyph glyph-name="idieresis" unicode="&#xef;" horiz-adv-x="257" 
d="M173 0h-88v536h88v-536zM-11 681q0 26 13.5 37.5t33.5 11.5q19 0 33 -11.5t14 -37.5t-14 -38t-33 -12q-20 0 -33.5 12t-13.5 38zM177 681q0 26 13.5 37.5t32.5 11.5t33 -11.5t14 -37.5t-14 -38t-33 -12t-32.5 12t-13.5 38z" />
    <glyph glyph-name="eth" unicode="&#xf0;" horiz-adv-x="604" 
d="M551 275q0 -138 -65 -211.5t-185 -73.5q-110 0 -178 66.5t-68 176.5q0 112 63.5 176t171.5 64q110 0 156 -58l4 2q-29 104 -124 191l-130 -75l-38 55l112 64q-42 28 -90 53l36 60q76 -36 126 -72l115 67l38 -54l-99 -57q74 -68 114.5 -164.5t40.5 -209.5zM462 251
q0 70 -43 110.5t-116 40.5q-81 0 -120 -42.5t-39 -129.5q0 -81 41 -124.5t118 -43.5q83 0 121 48.5t38 140.5z" />
    <glyph glyph-name="ntilde" unicode="&#xf1;" horiz-adv-x="618" 
d="M392 607q-21 0 -41 9t-39.5 19.5t-37 19.5t-34.5 9q-24 0 -36 -14.5t-19 -43.5h-51q6 60 34 94t76 34q22 0 42.5 -9t39.5 -19.5t37 -19.5t33 -9q23 0 35.5 14.5t19.5 43.5h50q-6 -58 -34 -93t-75 -35zM78.5 415q4.5 -5 4.5 -7l2 1q25 14 51 14q24 0 43 -12
q22 -13 36.5 -35t18.5 -48q2 -18 2 -26q0 -27 -12 -83q-5 -22 -8 -37q-12 -52 -16 -74q-2 -8 -2 -19q0 -17 5.5 -28.5t17.5 -10.5q18 1 29.5 18t21.5 41q7 20 31 95q7 24 27 24q10 0 18.5 -12.5t5.5 -22.5q-12 -40 -32 -97q-24 -61 -57 -84q-19 -13 -44 -13q-32 0 -50 21
q-24 27 -24 69q0 17 3 33q9 44 16 74l8 37q4 16 7.5 34t3.5 33q0 17 -6 35q-7 17 -19 26.5t-27 9.5q-22 0 -42.5 -19.5t-28.5 -51.5q-17 -94 -53 -282q-2 -8 -10 -13.5t-17 -5.5q-13 0 -20.5 10.5t-5.5 22.5l73 373q2 10 13 15.5t21 2.5q11 -3 15.5 -8z" />
    <glyph glyph-name="ograve" unicode="&#xf2;" horiz-adv-x="604" 
d="M135 421q26 0 49.5 -13t38 -33t17.5 -40q3 -18 3 -39q0 -62 -20.5 -132.5t-56.5 -117.5t-78 -46h-21q-46 3 -64.5 40t-18.5 90q0 28 3 50q1 17 7 51q12 59 22.5 90.5t24.5 49t40 35.5q25 15 54 15zM80 330q-11 -21 -22 -57t-15 -58q-6 -45 -6 -91q0 -52 16 -67
q9 -6 21 -6q7 0 11 1q20 7 31 19q21 22 31 39.5t25 61.5q21 80 21 121q0 71 -52 75q-40 1 -61 -38zM367 606h-59q-37 29 -80.5 76t-61.5 74v10h105q16 -32 44.5 -76.5t51.5 -71.5v-12z" />
    <glyph glyph-name="oacute" unicode="&#xf3;" horiz-adv-x="604" 
d="M135 421q26 0 49.5 -13t38 -33t17.5 -40q3 -18 3 -39q0 -62 -20.5 -132.5t-56.5 -117.5t-78 -46h-21q-46 3 -64.5 40t-18.5 90q0 28 3 50q1 17 7 51q12 59 22.5 90.5t24.5 49t40 35.5q25 15 54 15zM80 330q-11 -21 -22 -57t-15 -58q-6 -45 -6 -91q0 -52 16 -67
q9 -6 21 -6q7 0 11 1q20 7 31 19q21 22 31 39.5t25 61.5q21 80 21 121q0 71 -52 75q-40 1 -61 -38zM233 618q19 23 47.5 66.5t47.5 81.5h106v-10q-21 -31 -66.5 -78.5t-76.5 -71.5h-58v12z" />
    <glyph glyph-name="ocircumflex" unicode="&#xf4;" horiz-adv-x="604" 
d="M133 617q61 65 86 96.5t37 52.5h90q25 -49 125 -149v-11h-62q-44 26 -109 90q-64 -62 -107 -90h-60v11zM135 421q26 0 49.5 -13t38 -33t17.5 -40q3 -18 3 -39q0 -62 -20.5 -132.5t-56.5 -117.5t-78 -46h-21q-46 3 -64.5 40t-18.5 90q0 28 3 50q1 17 7 51q12 59 22.5 90.5
t24.5 49t40 35.5q25 15 54 15zM80 330q-11 -21 -22 -57t-15 -58q-6 -45 -6 -91q0 -52 16 -67q9 -6 21 -6q7 0 11 1q20 7 31 19q21 22 31 39.5t25 61.5q21 80 21 121q0 71 -52 75q-40 1 -61 -38z" />
    <glyph glyph-name="otilde" unicode="&#xf5;" horiz-adv-x="604" 
d="M379 607q-21 0 -41 9t-39.5 19.5t-37 19.5t-34.5 9q-24 0 -36 -14.5t-19 -43.5h-51q6 60 34 94t76 34q22 0 42.5 -9t39.5 -19.5t37 -19.5t33 -9q23 0 35.5 14.5t19.5 43.5h50q-6 -58 -34 -93t-75 -35zM135 421q26 0 49.5 -13t38 -33t17.5 -40q3 -18 3 -39
q0 -62 -20.5 -132.5t-56.5 -117.5t-78 -46h-21q-46 3 -64.5 40t-18.5 90q0 28 3 50q1 17 7 51q12 59 22.5 90.5t24.5 49t40 35.5q25 15 54 15zM80 330q-11 -21 -22 -57t-15 -58q-6 -45 -6 -91q0 -52 16 -67q9 -6 21 -6q7 0 11 1q20 7 31 19q21 22 31 39.5t25 61.5
q21 80 21 121q0 71 -52 75q-40 1 -61 -38z" />
    <glyph glyph-name="odieresis" unicode="&#xf6;" horiz-adv-x="259" 
d="M243 483q7 -8 7 -18q0 -11 -7 -19t-19 -8t-18.5 8t-6.5 19t6.5 18.5t18.5 7.5t19 -8zM143 493q7 -8 7 -18q0 -11 -7 -19t-19 -8t-18.5 8t-6.5 19t6.5 18.5t18.5 7.5t19 -8zM135 421q26 0 49.5 -13t38 -33t17.5 -40q3 -18 3 -39q0 -62 -20.5 -132.5t-56.5 -117.5t-78 -46
h-21q-46 3 -64.5 40t-18.5 90q0 28 3 50q1 17 7 51q12 59 22.5 90.5t24.5 49t40 35.5q25 15 54 15zM80 330q-11 -21 -22 -57t-15 -58q-6 -45 -6 -91q0 -52 16 -67q9 -6 21 -6q7 0 11 1q20 7 31 19q21 22 31 39.5t25 61.5q21 80 21 121q0 71 -52 75q-40 1 -61 -38z" />
    <glyph glyph-name="divide" unicode="&#xf7;" horiz-adv-x="550" 
d="M50 286v73h451v-73h-451zM219 156q0 17 4.5 28.5t12 19t17.5 10.5t22 3q11 0 21.5 -3t18 -10.5t12 -19t4.5 -28.5q0 -16 -4.5 -27.5t-12 -19t-18 -11t-21.5 -3.5q-12 0 -22 3.5t-17.5 11t-12 19t-4.5 27.5zM219 497q0 17 4.5 28.5t12 19t17.5 10.5t22 3q11 0 21.5 -3
t18 -10.5t12 -19t4.5 -28.5q0 -16 -4.5 -27.5t-12 -19t-18 -11t-21.5 -3.5q-12 0 -22 3.5t-17.5 11t-12 19t-4.5 27.5zM221 622z" />
    <glyph glyph-name="oslash" unicode="&#xf8;" horiz-adv-x="604" 
d="M551 269q0 -131 -66.5 -205t-183.5 -74q-74 0 -129 33l-40 -56l-58 39l45 62q-64 76 -64 201q0 131 65.5 204t183.5 73q74 0 131 -36l39 56l59 -38l-45 -63q63 -76 63 -196zM146 269q0 -81 24 -128l220 306q-36 25 -88 25q-156 0 -156 -203zM460 269q0 74 -23 123
l-220 -306q34 -23 86 -23q77 0 117 52.5t40 153.5z" />
    <glyph glyph-name="ugrave" unicode="&#xf9;" horiz-adv-x="618" 
d="M261.5 411.5q4.5 -8.5 2.5 -20.5q-6 -37 -26 -137l-5 -23l-15 -78q-2 -9 -5.5 -26.5t-3.5 -30.5q0 -9 1 -14q2 -11 8 -21t15 -10q13 0 22.5 8.5t19.5 23.5q17 25 26.5 51.5t21.5 69.5q3 11 13 17.5t19 4.5q11 -2 16.5 -12.5t2.5 -20.5q-20 -64 -32.5 -95t-36.5 -61
q-14 -18 -34 -29t-40 -8q-21 3 -37.5 14t-23.5 29l-1 2q-39 -45 -94 -45q-23 0 -39 5q-31 8 -47 34.5t-16 62.5q0 15 3 30l18 89l35 185q2 10 12 14.5t20 1.5q11 -2 15.5 -10.5t2.5 -20.5q-6 -37 -26 -137l-5 -23q-2 -13 -4.5 -23l-4.5 -18q-15 -62 -15 -86q0 -38 25 -48
q16 -6 29 -6q31 0 52 27.5t35 75.5l22 112q5 24 11.5 58.5t15.5 82.5q2 10 12 14.5t20 1.5q11 -2 15.5 -10.5zM360 606h-59q-37 29 -80.5 76t-61.5 74v10h105q16 -32 44.5 -76.5t51.5 -71.5v-12z" />
    <glyph glyph-name="uacute" unicode="&#xfa;" horiz-adv-x="618" 
d="M261.5 411.5q4.5 -8.5 2.5 -20.5q-6 -37 -26 -137l-5 -23l-15 -78q-2 -9 -5.5 -26.5t-3.5 -30.5q0 -9 1 -14q2 -11 8 -21t15 -10q13 0 22.5 8.5t19.5 23.5q17 25 26.5 51.5t21.5 69.5q3 11 13 17.5t19 4.5q11 -2 16.5 -12.5t2.5 -20.5q-20 -64 -32.5 -95t-36.5 -61
q-14 -18 -34 -29t-40 -8q-21 3 -37.5 14t-23.5 29l-1 2q-39 -45 -94 -45q-23 0 -39 5q-31 8 -47 34.5t-16 62.5q0 15 3 30l18 89l35 185q2 10 12 14.5t20 1.5q11 -2 15.5 -10.5t2.5 -20.5q-6 -37 -26 -137l-5 -23q-2 -13 -4.5 -23l-4.5 -18q-15 -62 -15 -86q0 -38 25 -48
q16 -6 29 -6q31 0 52 27.5t35 75.5l22 112q5 24 11.5 58.5t15.5 82.5q2 10 12 14.5t20 1.5q11 -2 15.5 -10.5zM246 618q19 23 47.5 66.5t47.5 81.5h106v-10q-21 -31 -66.5 -78.5t-76.5 -71.5h-58v12z" />
    <glyph glyph-name="ucircumflex" unicode="&#xfb;" horiz-adv-x="618" 
d="M137 617q61 65 86 96.5t37 52.5h90q25 -49 125 -149v-11h-62q-44 26 -109 90q-64 -62 -107 -90h-60v11zM261.5 411.5q4.5 -8.5 2.5 -20.5q-6 -37 -26 -137l-5 -23l-15 -78q-2 -9 -5.5 -26.5t-3.5 -30.5q0 -9 1 -14q2 -11 8 -21t15 -10q13 0 22.5 8.5t19.5 23.5
q17 25 26.5 51.5t21.5 69.5q3 11 13 17.5t19 4.5q11 -2 16.5 -12.5t2.5 -20.5q-20 -64 -32.5 -95t-36.5 -61q-14 -18 -34 -29t-40 -8q-21 3 -37.5 14t-23.5 29l-1 2q-39 -45 -94 -45q-23 0 -39 5q-31 8 -47 34.5t-16 62.5q0 15 3 30l18 89l35 185q2 10 12 14.5t20 1.5
q11 -2 15.5 -10.5t2.5 -20.5q-6 -37 -26 -137l-5 -23q-2 -13 -4.5 -23l-4.5 -18q-15 -62 -15 -86q0 -38 25 -48q16 -6 29 -6q31 0 52 27.5t35 75.5l22 112q5 24 11.5 58.5t15.5 82.5q2 10 12 14.5t20 1.5q11 -2 15.5 -10.5z" />
    <glyph glyph-name="udieresis" unicode="&#xfc;" horiz-adv-x="335" 
d="M213 493q7 -8 7 -18q0 -11 -7 -19t-19 -8t-18.5 8t-6.5 19t6.5 18.5t18.5 7.5t19 -8zM113 503q7 -8 7 -18q0 -11 -7 -19t-19 -8t-18.5 8t-6.5 19t6.5 18.5t18.5 7.5t19 -8zM261.5 411.5q4.5 -8.5 2.5 -20.5q-6 -37 -26 -137l-5 -23l-15 -78q-2 -9 -5.5 -26.5t-3.5 -30.5
q0 -9 1 -14q2 -11 8 -21t15 -10q13 0 22.5 8.5t19.5 23.5q17 25 26.5 51.5t21.5 69.5q3 11 13 17.5t19 4.5q11 -2 16.5 -12.5t2.5 -20.5q-20 -64 -32.5 -95t-36.5 -61q-14 -18 -34 -29t-40 -8q-21 3 -37.5 14t-23.5 29l-1 2q-39 -45 -94 -45q-23 0 -39 5q-31 8 -47 34.5
t-16 62.5q0 15 3 30l18 89l35 185q2 10 12 14.5t20 1.5q11 -2 15.5 -10.5t2.5 -20.5q-6 -37 -26 -137l-5 -23q-2 -13 -4.5 -23l-4.5 -18q-15 -62 -15 -86q0 -38 25 -48q16 -6 29 -6q31 0 52 27.5t35 75.5l22 112q5 24 11.5 58.5t15.5 82.5q2 10 12 14.5t20 1.5
q11 -2 15.5 -10.5z" />
    <glyph glyph-name="yacute" unicode="&#xfd;" horiz-adv-x="509" 
d="M76.5 411.5q4.5 -8.5 2.5 -20.5q-6 -37 -26 -137l-5 -23q-2 -13 -4.5 -23l-4.5 -18q-15 -62 -15 -86q0 -38 25 -48q16 -6 29 -6q30 0 50 25t34 68l23 110l27 149q2 11 9.5 17t16.5 6q12 0 20 -9.5t6 -24.5q-6 -36 -24 -124t-32 -156l-9 -42l-13 -60q-1 -1 0.5 -2t2.5 0
q51 23 85 72q17 25 26.5 51.5t22.5 73.5q3 10 12.5 15t18.5 3q11 -2 16.5 -11.5t3.5 -17.5q-25 -83 -44.5 -123.5t-60.5 -67.5q-52 -35 -96 -49q-7 -22 -28 -71q-14 -32 -42 -50t-59 -18q-21 0 -39.5 8.5t-30.5 24.5q-17 22 -17 50q0 21 10 38q16 28 60 39.5t102 17.5l5 24
q-29 -16 -60 -16q-16 0 -38 5q-31 8 -47 34.5t-16 62.5q0 15 3 30l18 89l35 185q2 10 12 14.5t20 1.5q11 -2 15.5 -10.5zM60.5 -67q-31.5 -7 -38.5 -11t-11.5 -11.5t-4.5 -14.5q0 -6 3 -12q12 -21 33 -21q20 0 39.5 21t30.5 60q-20 -4 -51.5 -11zM200 618q19 23 47.5 66.5
t47.5 81.5h106v-10q-21 -31 -66.5 -78.5t-76.5 -71.5h-58v12z" />
    <glyph glyph-name="thorn" unicode="&#xfe;" horiz-adv-x="615" 
d="M174 464q33 44 73.5 63t92.5 19q104 0 162 -73t58 -204t-58 -205t-162 -74q-108 0 -167 78h-6q6 -64 6 -84v-224h-88v1000h88v-224q0 -34 -3 -72h4zM325 472q-79 0 -115 -43.5t-37 -140.5v-19q0 -109 36 -157.5t117 -48.5q143 0 143 207q0 102 -35 152t-109 50z" />
    <glyph glyph-name="ydieresis" unicode="&#xff;" horiz-adv-x="509" 
d="M76.5 411.5q4.5 -8.5 2.5 -20.5q-6 -37 -26 -137l-5 -23q-2 -13 -4.5 -23l-4.5 -18q-15 -62 -15 -86q0 -38 25 -48q16 -6 29 -6q30 0 50 25t34 68l23 110l27 149q2 11 9.5 17t16.5 6q12 0 20 -9.5t6 -24.5q-6 -36 -24 -124t-32 -156l-9 -42l-13 -60q-1 -1 0.5 -2t2.5 0
q51 23 85 72q17 25 26.5 51.5t22.5 73.5q3 10 12.5 15t18.5 3q11 -2 16.5 -11.5t3.5 -17.5q-25 -83 -44.5 -123.5t-60.5 -67.5q-52 -35 -96 -49q-7 -22 -28 -71q-14 -32 -42 -50t-59 -18q-21 0 -39.5 8.5t-30.5 24.5q-17 22 -17 50q0 21 10 38q16 28 60 39.5t102 17.5l5 24
q-29 -16 -60 -16q-16 0 -38 5q-31 8 -47 34.5t-16 62.5q0 15 3 30l18 89l35 185q2 10 12 14.5t20 1.5q11 -2 15.5 -10.5zM60.5 -67q-31.5 -7 -38.5 -11t-11.5 -11.5t-4.5 -14.5q0 -6 3 -12q12 -21 33 -21q20 0 39.5 21t30.5 60q-20 -4 -51.5 -11zM114 681q0 26 13.5 37.5
t33.5 11.5q19 0 33 -11.5t14 -37.5t-14 -38t-33 -12q-20 0 -33.5 12t-13.5 38zM302 681q0 26 13.5 37.5t32.5 11.5t33 -11.5t14 -37.5t-14 -38t-33 -12t-32.5 12t-13.5 38z" />
    <glyph glyph-name="Amacron" unicode="&#x100;" horiz-adv-x="639" 
d="M178 842h297v-71h-297v71zM561 660.5q32 -26.5 32 -69.5q0 -11 -1 -17l-105 -555q-2 -11 -12.5 -16.5t-20.5 -2.5q-11 3 -16 12.5t-3 20.5l50 262h-161q-2 -8 -2 -11l-17 -94q-9 -48 -22 -76q-19 -47 -48 -72q-34 -29 -72 -36q-17 -4 -39 -4q-31 0 -61 11t-53 32
q-29 27 -45 65t-15 78q0 44 21 81q22 42 58 59q28 13 53 13q9 0 29 -4q20 -5 36.5 -17.5t26.5 -30.5q3 -6 3 -14q0 -16 -13 -22q-6 -3 -12 -3q-15 0 -30 22q-21 14 -41 14q-21 0 -36.5 -12t-22.5 -22q-23 -32 -23 -69q0 -33 17.5 -63.5t46 -49t60.5 -18.5q28 0 53 14
q16 7 38.5 33.5t37.5 95.5l18 100h-34q-11 0 -18.5 8t-7.5 19t8 18.5t18 7.5h44q5 27 7 37l30 166q10 60 53 98t111 38q48 0 80 -26.5zM537 581q0 26 -16.5 38.5t-42.5 12.5q-33 0 -64 -18.5t-40 -46.5l-41 -219h162q28 146 41 219q1 5 1 14z" />
    <glyph glyph-name="amacron" unicode="&#x101;" horiz-adv-x="561" 
d="M143 677h297v-71h-297v71zM135 420q36 0 66 -21.5t40 -57.5q4 -13 -5 -22.5t-21 -9.5q-18 0 -24 18q-5 17 -19.5 29t-31.5 12q-38 0 -58 -39q-44 -85 -44 -198q0 -5 0.5 -21.5t4.5 -30.5t13 -21q8 -7 19 -7t22.5 6t19.5 14q39 39 55 100l12 75q1 9 7.5 14t15.5 5
q11 0 19.5 -6t8.5 -17q0 -41 -11 -80l-6 -42q-2 -16 -2 -25q0 -13 4 -24q8 -19 17 -21q29 -8 51 46q19 46 41 125q2 8 8 12t13 4q13 0 22.5 -10.5t5.5 -23.5l-28 -89q-14 -42 -25 -62q-13 -22 -35.5 -39t-45.5 -17q-12 0 -21 4q-37 16 -52 53q-41 -53 -94 -53q-92 0 -92 130
q0 27 3 49q9 71 25 120q11 33 23.5 57t32.5 41q29 23 66 23z" />
    <glyph glyph-name="Abreve" unicode="&#x102;" horiz-adv-x="639" 
d="M316 771q-69 0 -108.5 33.5t-44.5 100.5h54q4 -35 24.5 -49t76.5 -14q49 0 73 15.5t28 47.5h55q-6 -64 -48 -99t-110 -35zM561 660.5q32 -26.5 32 -69.5q0 -11 -1 -17l-105 -555q-2 -11 -12.5 -16.5t-20.5 -2.5q-11 3 -16 12.5t-3 20.5l50 262h-161q-2 -8 -2 -11l-17 -94
q-9 -48 -22 -76q-19 -47 -48 -72q-34 -29 -72 -36q-17 -4 -39 -4q-31 0 -61 11t-53 32q-29 27 -45 65t-15 78q0 44 21 81q22 42 58 59q28 13 53 13q9 0 29 -4q20 -5 36.5 -17.5t26.5 -30.5q3 -6 3 -14q0 -16 -13 -22q-6 -3 -12 -3q-15 0 -30 22q-21 14 -41 14
q-21 0 -36.5 -12t-22.5 -22q-23 -32 -23 -69q0 -33 17.5 -63.5t46 -49t60.5 -18.5q28 0 53 14q16 7 38.5 33.5t37.5 95.5l18 100h-34q-11 0 -18.5 8t-7.5 19t8 18.5t18 7.5h44q5 27 7 37l30 166q10 60 53 98t111 38q48 0 80 -26.5zM537 581q0 26 -16.5 38.5t-42.5 12.5
q-33 0 -64 -18.5t-40 -46.5l-41 -219h162q28 146 41 219q1 5 1 14z" />
    <glyph glyph-name="abreve" unicode="&#x103;" horiz-adv-x="561" 
d="M281 606q-69 0 -108.5 33.5t-44.5 100.5h54q4 -35 24.5 -49t76.5 -14q49 0 73 15.5t28 47.5h55q-6 -64 -48 -99t-110 -35zM135 420q36 0 66 -21.5t40 -57.5q4 -13 -5 -22.5t-21 -9.5q-18 0 -24 18q-5 17 -19.5 29t-31.5 12q-38 0 -58 -39q-44 -85 -44 -198
q0 -5 0.5 -21.5t4.5 -30.5t13 -21q8 -7 19 -7t22.5 6t19.5 14q39 39 55 100l12 75q1 9 7.5 14t15.5 5q11 0 19.5 -6t8.5 -17q0 -41 -11 -80l-6 -42q-2 -16 -2 -25q0 -13 4 -24q8 -19 17 -21q29 -8 51 46q19 46 41 125q2 8 8 12t13 4q13 0 22.5 -10.5t5.5 -23.5l-28 -89
q-14 -42 -25 -62q-13 -22 -35.5 -39t-45.5 -17q-12 0 -21 4q-37 16 -52 53q-41 -53 -94 -53q-92 0 -92 130q0 27 3 49q9 71 25 120q11 33 23.5 57t32.5 41q29 23 66 23z" />
    <glyph glyph-name="Aogonek" unicode="&#x104;" horiz-adv-x="639" 
d="M540 -116q0 -22 12 -33.5t33 -11.5t48 6v-56q-34 -9 -62 -9q-103 0 -103 94q0 68 78 126h62q-34 -32 -51 -58.5t-17 -57.5zM561 660.5q32 -26.5 32 -69.5q0 -11 -1 -17l-105 -555q-2 -11 -12.5 -16.5t-20.5 -2.5q-11 3 -16 12.5t-3 20.5l50 262h-161q-2 -8 -2 -11
l-17 -94q-9 -48 -22 -76q-19 -47 -48 -72q-34 -29 -72 -36q-17 -4 -39 -4q-31 0 -61 11t-53 32q-29 27 -45 65t-15 78q0 44 21 81q22 42 58 59q28 13 53 13q9 0 29 -4q20 -5 36.5 -17.5t26.5 -30.5q3 -6 3 -14q0 -16 -13 -22q-6 -3 -12 -3q-15 0 -30 22q-21 14 -41 14
q-21 0 -36.5 -12t-22.5 -22q-23 -32 -23 -69q0 -33 17.5 -63.5t46 -49t60.5 -18.5q28 0 53 14q16 7 38.5 33.5t37.5 95.5l18 100h-34q-11 0 -18.5 8t-7.5 19t8 18.5t18 7.5h44q5 27 7 37l30 166q10 60 53 98t111 38q48 0 80 -26.5zM537 581q0 26 -16.5 38.5t-42.5 12.5
q-33 0 -64 -18.5t-40 -46.5l-41 -219h162q28 146 41 219q1 5 1 14z" />
    <glyph glyph-name="aogonek" unicode="&#x105;" horiz-adv-x="561" 
d="M410 -116q0 -22 12 -33.5t33 -11.5t48 6v-56q-34 -9 -62 -9q-103 0 -103 94q0 68 78 126h62q-34 -32 -51 -58.5t-17 -57.5zM135 420q36 0 66 -21.5t40 -57.5q4 -13 -5 -22.5t-21 -9.5q-18 0 -24 18q-5 17 -19.5 29t-31.5 12q-38 0 -58 -39q-44 -85 -44 -198
q0 -5 0.5 -21.5t4.5 -30.5t13 -21q8 -7 19 -7t22.5 6t19.5 14q39 39 55 100l12 75q1 9 7.5 14t15.5 5q11 0 19.5 -6t8.5 -17q0 -41 -11 -80l-6 -42q-2 -16 -2 -25q0 -13 4 -24q8 -19 17 -21q29 -8 51 46q19 46 41 125q2 8 8 12t13 4q13 0 22.5 -10.5t5.5 -23.5l-28 -89
q-14 -42 -25 -62q-13 -22 -35.5 -39t-45.5 -17q-12 0 -21 4q-37 16 -52 53q-41 -53 -94 -53q-92 0 -92 130q0 27 3 49q9 71 25 120q11 33 23.5 57t32.5 41q29 23 66 23z" />
    <glyph glyph-name="Cacute" unicode="&#x106;" horiz-adv-x="631" 
d="M255 648q29 -19 46 -50t17 -65q0 -22 -5 -37q-2 -9 -9.5 -14.5t-15.5 -5.5q-13 0 -21.5 11t-4.5 23q4 14 4 22q0 33 -24 59.5t-58 26.5q-22 0 -44.5 -14t-43.5 -45q-29 -42 -57.5 -104.5t-32.5 -137.5q0 -1 -0.5 -8.5t-0.5 -26.5q0 -76 32 -145t124 -84q5 -1 16 -1
q119 0 177 169q6 18 20 18q3 0 11 -2q10 -3 15.5 -13.5t2.5 -20.5q-15 -54 -55.5 -110t-97.5 -80q-36 -14 -71 -14q-56 0 -104 28q-61 35 -93 101.5t-32 141.5q0 12 2 34q8 84 45 180t93 147q40 37 95 37q39 0 70 -20zM318 783q19 23 47.5 66.5t47.5 81.5h106v-10
q-21 -31 -66.5 -78.5t-76.5 -71.5h-58v12z" />
    <glyph glyph-name="cacute" unicode="&#x107;" horiz-adv-x="479" 
d="M134 422q36 0 66 -21.5t40 -57.5q4 -13 -5 -22.5t-21 -9.5q-18 0 -24 18q-5 16 -19 28.5t-30 12.5q-32 0 -55.5 -41t-36 -94.5t-12.5 -86.5q0 -45 19.5 -71.5t49.5 -26.5q37 0 75 43t62 128q5 15 20 15q14 0 23.5 -10t5.5 -23q-26 -87 -64 -145.5t-112 -58.5q-16 0 -39 5
q-50 12 -71 56.5t-21 101.5q0 14 2 34q7 57 28.5 116.5t52.5 86.5q29 23 66 23zM224 618q19 23 47.5 66.5t47.5 81.5h106v-10q-21 -31 -66.5 -78.5t-76.5 -71.5h-58v12z" />
    <glyph glyph-name="Ccircumflex" unicode="&#x108;" horiz-adv-x="631" 
d="M220 782q61 65 86 96.5t37 52.5h90q25 -49 125 -149v-11h-62q-44 26 -109 90q-64 -62 -107 -90h-60v11zM255 648q29 -19 46 -50t17 -65q0 -22 -5 -37q-2 -9 -9.5 -14.5t-15.5 -5.5q-13 0 -21.5 11t-4.5 23q4 14 4 22q0 33 -24 59.5t-58 26.5q-22 0 -44.5 -14t-43.5 -45
q-29 -42 -57.5 -104.5t-32.5 -137.5q0 -1 -0.5 -8.5t-0.5 -26.5q0 -76 32 -145t124 -84q5 -1 16 -1q119 0 177 169q6 18 20 18q3 0 11 -2q10 -3 15.5 -13.5t2.5 -20.5q-15 -54 -55.5 -110t-97.5 -80q-36 -14 -71 -14q-56 0 -104 28q-61 35 -93 101.5t-32 141.5q0 12 2 34
q8 84 45 180t93 147q40 37 95 37q39 0 70 -20z" />
    <glyph glyph-name="ccircumflex" unicode="&#x109;" horiz-adv-x="479" 
d="M118 617q61 65 86 96.5t37 52.5h90q25 -49 125 -149v-11h-62q-44 26 -109 90q-64 -62 -107 -90h-60v11zM134 422q36 0 66 -21.5t40 -57.5q4 -13 -5 -22.5t-21 -9.5q-18 0 -24 18q-5 16 -19 28.5t-30 12.5q-32 0 -55.5 -41t-36 -94.5t-12.5 -86.5q0 -45 19.5 -71.5
t49.5 -26.5q37 0 75 43t62 128q5 15 20 15q14 0 23.5 -10t5.5 -23q-26 -87 -64 -145.5t-112 -58.5q-16 0 -39 5q-50 12 -71 56.5t-21 101.5q0 14 2 34q7 57 28.5 116.5t52.5 86.5q29 23 66 23z" />
    <glyph glyph-name="Cdotaccent" unicode="&#x10a;" horiz-adv-x="631" 
d="M337 846q0 29 15 42.5t37 13.5q21 0 36 -13.5t15 -42.5t-15.5 -42.5t-35.5 -13.5q-22 0 -37 13.5t-15 42.5zM255 648q29 -19 46 -50t17 -65q0 -22 -5 -37q-2 -9 -9.5 -14.5t-15.5 -5.5q-13 0 -21.5 11t-4.5 23q4 14 4 22q0 33 -24 59.5t-58 26.5q-22 0 -44.5 -14
t-43.5 -45q-29 -42 -57.5 -104.5t-32.5 -137.5q0 -1 -0.5 -8.5t-0.5 -26.5q0 -76 32 -145t124 -84q5 -1 16 -1q119 0 177 169q6 18 20 18q3 0 11 -2q10 -3 15.5 -13.5t2.5 -20.5q-15 -54 -55.5 -110t-97.5 -80q-36 -14 -71 -14q-56 0 -104 28q-61 35 -93 101.5t-32 141.5
q0 12 2 34q8 84 45 180t93 147q40 37 95 37q39 0 70 -20z" />
    <glyph glyph-name="cdotaccent" unicode="&#x10b;" horiz-adv-x="479" 
d="M241 681q0 29 15 42.5t37 13.5q21 0 36 -13.5t15 -42.5t-15.5 -42.5t-35.5 -13.5q-22 0 -37 13.5t-15 42.5zM134 422q36 0 66 -21.5t40 -57.5q4 -13 -5 -22.5t-21 -9.5q-18 0 -24 18q-5 16 -19 28.5t-30 12.5q-32 0 -55.5 -41t-36 -94.5t-12.5 -86.5q0 -45 19.5 -71.5
t49.5 -26.5q37 0 75 43t62 128q5 15 20 15q14 0 23.5 -10t5.5 -23q-26 -87 -64 -145.5t-112 -58.5q-16 0 -39 5q-50 12 -71 56.5t-21 101.5q0 14 2 34q7 57 28.5 116.5t52.5 86.5q29 23 66 23z" />
    <glyph glyph-name="Ccaron" unicode="&#x10c;" horiz-adv-x="631" 
d="M220 931h60q56 -36 107 -92q62 62 109 92h62v-13q-100 -100 -125 -147h-90q-29 50 -123 147v13zM255 648q29 -19 46 -50t17 -65q0 -22 -5 -37q-2 -9 -9.5 -14.5t-15.5 -5.5q-13 0 -21.5 11t-4.5 23q4 14 4 22q0 33 -24 59.5t-58 26.5q-22 0 -44.5 -14t-43.5 -45
q-29 -42 -57.5 -104.5t-32.5 -137.5q0 -1 -0.5 -8.5t-0.5 -26.5q0 -76 32 -145t124 -84q5 -1 16 -1q119 0 177 169q6 18 20 18q3 0 11 -2q10 -3 15.5 -13.5t2.5 -20.5q-15 -54 -55.5 -110t-97.5 -80q-36 -14 -71 -14q-56 0 -104 28q-61 35 -93 101.5t-32 141.5q0 12 2 34
q8 84 45 180t93 147q40 37 95 37q39 0 70 -20z" />
    <glyph glyph-name="ccaron" unicode="&#x10d;" horiz-adv-x="479" 
d="M122 766h60q56 -36 107 -92q62 62 109 92h62v-13q-100 -100 -125 -147h-90q-29 50 -123 147v13zM134 422q36 0 66 -21.5t40 -57.5q4 -13 -5 -22.5t-21 -9.5q-18 0 -24 18q-5 16 -19 28.5t-30 12.5q-32 0 -55.5 -41t-36 -94.5t-12.5 -86.5q0 -45 19.5 -71.5t49.5 -26.5
q37 0 75 43t62 128q5 15 20 15q14 0 23.5 -10t5.5 -23q-26 -87 -64 -145.5t-112 -58.5q-16 0 -39 5q-50 12 -71 56.5t-21 101.5q0 14 2 34q7 57 28.5 116.5t52.5 86.5q29 23 66 23z" />
    <glyph glyph-name="Dcaron" unicode="&#x10e;" horiz-adv-x="729" 
d="M170 931h60q56 -36 107 -92q62 62 109 92h62v-13q-100 -100 -125 -147h-90q-29 50 -123 147v13zM477.5 647q36.5 -21 65.5 -52q59 -59 90 -152q11 -35 20 -86q7 -47 7 -80q0 -111 -44 -180q-26 -42 -65.5 -67.5t-85.5 -25.5q-37 0 -68 16q-18 9 -33 23.5t-22 31.5
q-11 25 -11 50q0 17 4 30q11 42 46 63q5 4 13 4q15 0 23 -13q4 -5 4 -14q0 -15 -13 -23q-8 -5 -16 -17.5t-8 -34.5q0 -21 20 -42.5t55 -21.5q13 0 26 3q21 4 47 23t47 58.5t27 99.5q2 28 -2 77t-15 88q-12 43 -24 70.5t-36.5 57t-67.5 61.5q-12 9 -46 21t-72 12
q-53 0 -95 -31q-24 -21 -35 -39.5t-22 -60.5q-2 -13 -8 -19q-7 -7 -18 -7t-19.5 8t-7.5 18q6 52 32 92t68 64q49 29 113 29q23 0 50 -5q40 -8 76.5 -29zM369.5 588.5q6.5 -10.5 4.5 -23.5l-52 -283l-17 -94q-9 -48 -22 -76q-19 -47 -48 -72q-34 -29 -72 -36q-17 -4 -39 -4
q-31 0 -61 11t-53 32q-29 27 -45 65t-15 78q0 44 21 81q22 42 58 59q28 13 53 13q9 0 29 -4q20 -5 36.5 -17.5t26.5 -30.5q3 -6 3 -14q0 -16 -13 -22q-6 -3 -12 -3q-15 0 -30 22q-21 14 -41 14q-21 0 -36.5 -12t-22.5 -22q-23 -32 -23 -69q0 -33 17.5 -63.5t46 -49
t60.5 -18.5q28 0 53 14q16 7 38.5 33.5t37.5 95.5l35 190l36 196q1 9 8.5 14.5t17.5 5.5q14 0 20.5 -10.5z" />
    <glyph glyph-name="dcaron" unicode="&#x10f;" horiz-adv-x="615" 
d="M575 612q11 32 20.5 77.5t12.5 70.5h87v-9q-6 -26 -27 -71t-45 -80h-48v12zM294 577.5q5 -9.5 3 -20.5l-62 -331q-3 -15 -10 -65l-6 -42q-2 -12 -2 -21q0 -15 4 -26q7 -18 17 -21q17 -5 33.5 15t23.5 41q13 34 26 82l9 32q2 8 8 12t13 4q13 0 22.5 -10t5.5 -24
q-19 -62 -28 -89q-13 -38 -26 -61q-12 -23 -34.5 -39.5t-45.5 -16.5q-12 0 -21 4q-35 14 -48 48q-53 -53 -105 -49q-83 7 -83 136q0 17 2 43q9 70 26 119q12 34 24.5 57.5t31.5 37.5q30 24 66 24q42 0 75 -30l33 184q2 10 12 15t20 3q11 -2 16 -11.5zM86.5 332
q-23.5 -35 -36 -87.5t-12.5 -101.5q0 -32 5.5 -54.5t15.5 -30.5q9 -6 19 -6q11 0 22.5 6t18.5 14q29 28 48 77l19 101l13 64q-4 18 -16 35.5t-41 17.5q-32 0 -55.5 -35z" />
    <glyph glyph-name="Dcroat" unicode="&#x110;" horiz-adv-x="729" 
d="M669 364q0 -175 -96 -269.5t-278 -94.5h-191v314h-74v78h74v322h213q167 0 259.5 -92t92.5 -258zM574 361q0 137 -68 206.5t-202 69.5h-110v-245h178v-78h-178v-237h90q290 0 290 284z" />
    <glyph glyph-name="dcroat" unicode="&#x111;" horiz-adv-x="617" 
d="M275 -10q-104 0 -162 72t-58 203q0 132 57.5 205t162.5 73q109 0 167 -79h6q-1 7 -3.5 33.5t-2.5 46.5v61h-213v66h213v89h88v-89h76v-66h-76v-605h-72l-13 72h-4q-56 -82 -166 -82zM290 63q80 0 116.5 43t36.5 142v17q0 112 -37 158.5t-118 46.5q-68 0 -104.5 -52
t-36.5 -154q0 -96 35 -148.5t108 -52.5z" />
    <glyph glyph-name="Emacron" unicode="&#x112;" horiz-adv-x="556" 
d="M148 842h297v-71h-297v71zM291.5 638q26.5 -33 26.5 -73q0 -19 -8 -41q-11 -31 -37.5 -48.5t-58.5 -17.5q-41 0 -70 29q-7 7 -7 17q0 11 8.5 19t18.5 8q11 0 18 -8q15 -13 35 -13q11 0 19 5q14 7 22.5 21t8.5 30q-1 30 -25 49t-55 19q-15 0 -27 -4q-36 -13 -58.5 -45
t-22.5 -71q0 -29 18 -52.5t45 -31.5q22 1 45 -7q18 -7 18 -25q0 -5 -1 -8q-1 -8 -9 -13t-17 -5q-8 -2 -15 -2q-13 0 -30 5q-47 -8 -81 -50.5t-45 -93.5q-4 -22 -4 -35q0 -39 17.5 -73t50.5 -53q32 -18 68 -18q60 0 110 49t72 120q2 8 8.5 12t13.5 4q11 0 19.5 -7t8.5 -19
q0 -5 -1 -8q-28 -92 -86 -147t-140 -55q-15 0 -23 1q-53 2 -95.5 36t-61.5 86q-14 32 -14 74q0 70 38 129q34 53 86 82q-46 45 -46 108q0 33 13 65q18 45 58.5 75t87.5 30q22 0 37 -5q41 -11 67.5 -44z" />
    <glyph glyph-name="emacron" unicode="&#x113;" horiz-adv-x="563" 
d="M150 677h297v-71h-297v71zM132 419q42 0 75.5 -22.5t33.5 -53.5q0 -33 -18 -58.5t-64 -43.5q-56 -23 -119 -45q-2 -32 -2 -48q3 -43 23 -68.5t49 -25.5q36 0 72.5 41.5t61.5 125.5q4 15 21 15q13 0 22.5 -10t5.5 -23q-24 -77 -64 -140t-115 -63q-19 0 -36 4
q-50 12 -71 56.5t-21 101.5q0 14 2 34q7 57 25 105q12 33 24.5 57t31.5 41q26 20 63 20zM108.5 360.5q-12.5 -9.5 -26.5 -29.5q-21 -32 -32 -77l30 11l49 19q3 1 21 7.5t29 17t11 23.5q0 20 -15 29t-35 9q-19 0 -31.5 -9.5z" />
    <glyph glyph-name="Ebreve" unicode="&#x114;" horiz-adv-x="556" 
d="M299 771q-69 0 -108.5 33.5t-44.5 100.5h54q4 -35 24.5 -49t76.5 -14q49 0 73 15.5t28 47.5h55q-6 -64 -48 -99t-110 -35zM291.5 638q26.5 -33 26.5 -73q0 -19 -8 -41q-11 -31 -37.5 -48.5t-58.5 -17.5q-41 0 -70 29q-7 7 -7 17q0 11 8.5 19t18.5 8q11 0 18 -8
q15 -13 35 -13q11 0 19 5q14 7 22.5 21t8.5 30q-1 30 -25 49t-55 19q-15 0 -27 -4q-36 -13 -58.5 -45t-22.5 -71q0 -29 18 -52.5t45 -31.5q22 1 45 -7q18 -7 18 -25q0 -5 -1 -8q-1 -8 -9 -13t-17 -5q-8 -2 -15 -2q-13 0 -30 5q-47 -8 -81 -50.5t-45 -93.5q-4 -22 -4 -35
q0 -39 17.5 -73t50.5 -53q32 -18 68 -18q60 0 110 49t72 120q2 8 8.5 12t13.5 4q11 0 19.5 -7t8.5 -19q0 -5 -1 -8q-28 -92 -86 -147t-140 -55q-15 0 -23 1q-53 2 -95.5 36t-61.5 86q-14 32 -14 74q0 70 38 129q34 53 86 82q-46 45 -46 108q0 33 13 65q18 45 58.5 75
t87.5 30q22 0 37 -5q41 -11 67.5 -44z" />
    <glyph glyph-name="ebreve" unicode="&#x115;" horiz-adv-x="563" 
d="M292 606q-69 0 -108.5 33.5t-44.5 100.5h54q4 -35 24.5 -49t76.5 -14q49 0 73 15.5t28 47.5h55q-6 -64 -48 -99t-110 -35zM132 419q42 0 75.5 -22.5t33.5 -53.5q0 -33 -18 -58.5t-64 -43.5q-56 -23 -119 -45q-2 -32 -2 -48q3 -43 23 -68.5t49 -25.5q36 0 72.5 41.5
t61.5 125.5q4 15 21 15q13 0 22.5 -10t5.5 -23q-24 -77 -64 -140t-115 -63q-19 0 -36 4q-50 12 -71 56.5t-21 101.5q0 14 2 34q7 57 25 105q12 33 24.5 57t31.5 41q26 20 63 20zM108.5 360.5q-12.5 -9.5 -26.5 -29.5q-21 -32 -32 -77l30 11l49 19q3 1 21 7.5t29 17t11 23.5
q0 20 -15 29t-35 9q-19 0 -31.5 -9.5z" />
    <glyph glyph-name="Edotaccent" unicode="&#x116;" horiz-adv-x="556" 
d="M253 832q0 29 15 42.5t37 13.5q21 0 36 -13.5t15 -42.5t-15.5 -42.5t-35.5 -13.5q-22 0 -37 13.5t-15 42.5zM291.5 638q26.5 -33 26.5 -73q0 -19 -8 -41q-11 -31 -37.5 -48.5t-58.5 -17.5q-41 0 -70 29q-7 7 -7 17q0 11 8.5 19t18.5 8q11 0 18 -8q15 -13 35 -13
q11 0 19 5q14 7 22.5 21t8.5 30q-1 30 -25 49t-55 19q-15 0 -27 -4q-36 -13 -58.5 -45t-22.5 -71q0 -29 18 -52.5t45 -31.5q22 1 45 -7q18 -7 18 -25q0 -5 -1 -8q-1 -8 -9 -13t-17 -5q-8 -2 -15 -2q-13 0 -30 5q-47 -8 -81 -50.5t-45 -93.5q-4 -22 -4 -35q0 -39 17.5 -73
t50.5 -53q32 -18 68 -18q60 0 110 49t72 120q2 8 8.5 12t13.5 4q11 0 19.5 -7t8.5 -19q0 -5 -1 -8q-28 -92 -86 -147t-140 -55q-15 0 -23 1q-53 2 -95.5 36t-61.5 86q-14 32 -14 74q0 70 38 129q34 53 86 82q-46 45 -46 108q0 33 13 65q18 45 58.5 75t87.5 30q22 0 37 -5
q41 -11 67.5 -44z" />
    <glyph glyph-name="edotaccent" unicode="&#x117;" horiz-adv-x="563" 
d="M243 681q0 29 15 42.5t37 13.5q21 0 36 -13.5t15 -42.5t-15.5 -42.5t-35.5 -13.5q-22 0 -37 13.5t-15 42.5zM132 419q42 0 75.5 -22.5t33.5 -53.5q0 -33 -18 -58.5t-64 -43.5q-56 -23 -119 -45q-2 -32 -2 -48q3 -43 23 -68.5t49 -25.5q36 0 72.5 41.5t61.5 125.5
q4 15 21 15q13 0 22.5 -10t5.5 -23q-24 -77 -64 -140t-115 -63q-19 0 -36 4q-50 12 -71 56.5t-21 101.5q0 14 2 34q7 57 25 105q12 33 24.5 57t31.5 41q26 20 63 20zM108.5 360.5q-12.5 -9.5 -26.5 -29.5q-21 -32 -32 -77l30 11l49 19q3 1 21 7.5t29 17t11 23.5q0 20 -15 29
t-35 9q-19 0 -31.5 -9.5z" />
    <glyph glyph-name="Eogonek" unicode="&#x118;" horiz-adv-x="556" 
d="M392 -116q0 -22 12 -33.5t33 -11.5t48 6v-56q-34 -9 -62 -9q-103 0 -103 94q0 68 78 126h62q-34 -32 -51 -58.5t-17 -57.5zM291.5 638q26.5 -33 26.5 -73q0 -19 -8 -41q-11 -31 -37.5 -48.5t-58.5 -17.5q-41 0 -70 29q-7 7 -7 17q0 11 8.5 19t18.5 8q11 0 18 -8
q15 -13 35 -13q11 0 19 5q14 7 22.5 21t8.5 30q-1 30 -25 49t-55 19q-15 0 -27 -4q-36 -13 -58.5 -45t-22.5 -71q0 -29 18 -52.5t45 -31.5q22 1 45 -7q18 -7 18 -25q0 -5 -1 -8q-1 -8 -9 -13t-17 -5q-8 -2 -15 -2q-13 0 -30 5q-47 -8 -81 -50.5t-45 -93.5q-4 -22 -4 -35
q0 -39 17.5 -73t50.5 -53q32 -18 68 -18q60 0 110 49t72 120q2 8 8.5 12t13.5 4q11 0 19.5 -7t8.5 -19q0 -5 -1 -8q-28 -92 -86 -147t-140 -55q-15 0 -23 1q-53 2 -95.5 36t-61.5 86q-14 32 -14 74q0 70 38 129q34 53 86 82q-46 45 -46 108q0 33 13 65q18 45 58.5 75
t87.5 30q22 0 37 -5q41 -11 67.5 -44z" />
    <glyph glyph-name="eogonek" unicode="&#x119;" horiz-adv-x="563" 
d="M387 -102q0 -22 12 -33.5t33 -11.5t48 6v-56q-34 -9 -62 -9q-103 0 -103 94q0 68 78 126h62q-34 -32 -51 -58.5t-17 -57.5zM132 419q42 0 75.5 -22.5t33.5 -53.5q0 -33 -18 -58.5t-64 -43.5q-56 -23 -119 -45q-2 -32 -2 -48q3 -43 23 -68.5t49 -25.5q36 0 72.5 41.5
t61.5 125.5q4 15 21 15q13 0 22.5 -10t5.5 -23q-24 -77 -64 -140t-115 -63q-19 0 -36 4q-50 12 -71 56.5t-21 101.5q0 14 2 34q7 57 25 105q12 33 24.5 57t31.5 41q26 20 63 20zM108.5 360.5q-12.5 -9.5 -26.5 -29.5q-21 -32 -32 -77l30 11l49 19q3 1 21 7.5t29 17t11 23.5
q0 20 -15 29t-35 9q-19 0 -31.5 -9.5z" />
    <glyph glyph-name="Ecaron" unicode="&#x11a;" horiz-adv-x="556" 
d="M133 931h60q56 -36 107 -92q62 62 109 92h62v-13q-100 -100 -125 -147h-90q-29 50 -123 147v13zM291.5 638q26.5 -33 26.5 -73q0 -19 -8 -41q-11 -31 -37.5 -48.5t-58.5 -17.5q-41 0 -70 29q-7 7 -7 17q0 11 8.5 19t18.5 8q11 0 18 -8q15 -13 35 -13q11 0 19 5
q14 7 22.5 21t8.5 30q-1 30 -25 49t-55 19q-15 0 -27 -4q-36 -13 -58.5 -45t-22.5 -71q0 -29 18 -52.5t45 -31.5q22 1 45 -7q18 -7 18 -25q0 -5 -1 -8q-1 -8 -9 -13t-17 -5q-8 -2 -15 -2q-13 0 -30 5q-47 -8 -81 -50.5t-45 -93.5q-4 -22 -4 -35q0 -39 17.5 -73t50.5 -53
q32 -18 68 -18q60 0 110 49t72 120q2 8 8.5 12t13.5 4q11 0 19.5 -7t8.5 -19q0 -5 -1 -8q-28 -92 -86 -147t-140 -55q-15 0 -23 1q-53 2 -95.5 36t-61.5 86q-14 32 -14 74q0 70 38 129q34 53 86 82q-46 45 -46 108q0 33 13 65q18 45 58.5 75t87.5 30q22 0 37 -5
q41 -11 67.5 -44z" />
    <glyph glyph-name="ecaron" unicode="&#x11b;" horiz-adv-x="563" 
d="M126 766h60q56 -36 107 -92q62 62 109 92h62v-13q-100 -100 -125 -147h-90q-29 50 -123 147v13zM132 419q42 0 75.5 -22.5t33.5 -53.5q0 -33 -18 -58.5t-64 -43.5q-56 -23 -119 -45q-2 -32 -2 -48q3 -43 23 -68.5t49 -25.5q36 0 72.5 41.5t61.5 125.5q4 15 21 15
q13 0 22.5 -10t5.5 -23q-24 -77 -64 -140t-115 -63q-19 0 -36 4q-50 12 -71 56.5t-21 101.5q0 14 2 34q7 57 25 105q12 33 24.5 57t31.5 41q26 20 63 20zM108.5 360.5q-12.5 -9.5 -26.5 -29.5q-21 -32 -32 -77l30 11l49 19q3 1 21 7.5t29 17t11 23.5q0 20 -15 29t-35 9
q-19 0 -31.5 -9.5z" />
    <glyph glyph-name="Gcircumflex" unicode="&#x11c;" horiz-adv-x="728" 
d="M248 782q61 65 86 96.5t37 52.5h90q25 -49 125 -149v-11h-62q-44 26 -109 90q-64 -62 -107 -90h-60v11zM255 669q29 -19 46 -50t17 -65q0 -22 -5 -37q-2 -9 -9.5 -14.5t-15.5 -5.5q-13 0 -21.5 11t-4.5 23q3 11 3 21q0 31 -23 56.5t-56 25.5q-49 0 -91 -61
q-23 -34 -52 -107t-34 -149q0 -2 -2 -20t-2 -45q0 -58 14.5 -99.5t53.5 -41.5t76.5 51t64 120t36.5 120q2 10 12 15.5t20 2.5q10 -2 15.5 -11t3.5 -22q-3 -22 -9 -50.5t-9 -43.5l-13 -66q-25 -124 -33 -158l-13 -60q-1 -1 0.5 -2t2.5 0q51 23 85 72q17 25 28.5 58t25.5 84
q3 10 12 13.5t19 1.5t15.5 -13t2.5 -20q-25 -86 -46.5 -130t-61.5 -71q-52 -35 -96 -49q-7 -22 -28 -71q-14 -32 -42 -50t-59 -18q-21 0 -39.5 8.5t-30.5 24.5q-17 22 -17 50q0 21 10 38q16 28 60 39.5t102 17.5l33 149q-57 -78 -113 -85q-5 -1 -15 -1q-62 0 -92 62t-30 145
q0 16 2 42q5 54 23 122t47.5 129.5t67.5 96.5q40 37 95 37q39 0 70 -20zM98.5 -67q-31.5 -7 -38.5 -11t-11.5 -11.5t-4.5 -14.5q0 -6 3 -12q12 -21 33 -21q20 0 39.5 21t30.5 60q-20 -4 -51.5 -11z" />
    <glyph glyph-name="gcircumflex" unicode="&#x11d;" horiz-adv-x="615" 
d="M132 617q61 65 86 96.5t37 52.5h90q25 -49 125 -149v-11h-62q-44 26 -109 90q-64 -62 -107 -90h-60v11zM140 421q21 0 41.5 -9.5t35.5 -24.5l3 15q2 10 8.5 15t14.5 5q12 0 21.5 -10t6.5 -25q-3 -22 -9 -50.5t-9 -43.5l-13 -66l-8 -39l-2 -12l-23 -107l-13 -60
q-1 -1 0.5 -2t2.5 0q51 23 85 72q17 25 26.5 51.5t22.5 73.5q3 10 12.5 15t18.5 3q11 -2 16.5 -11.5t3.5 -17.5q-25 -83 -44.5 -123.5t-60.5 -67.5q-52 -35 -96 -49q-7 -22 -28 -71q-14 -32 -42 -50t-59 -18q-21 0 -39.5 8.5t-30.5 24.5q-17 22 -17 50q0 21 10 38
q16 28 60 39.5t102 17.5l5 22q-28 -14 -70 -14q-43 4 -64 44.5t-21 103.5q0 76 27.5 152t71.5 106q25 15 54 15zM60 283.5q-21 -83.5 -21 -160.5q0 -52 16 -67q11 -8 22 -8q24 0 50 32.5t46 89.5q21 71 21 117q0 74 -52 78q-61 2 -82 -81.5zM68.5 -67q-31.5 -7 -38.5 -11
t-11.5 -11.5t-4.5 -14.5q0 -6 3 -12q12 -21 33 -21q20 0 39.5 21t30.5 60q-20 -4 -51.5 -11z" />
    <glyph glyph-name="Gbreve" unicode="&#x11e;" horiz-adv-x="728" 
d="M414 771q-69 0 -108.5 33.5t-44.5 100.5h54q4 -35 24.5 -49t76.5 -14q49 0 73 15.5t28 47.5h55q-6 -64 -48 -99t-110 -35zM255 669q29 -19 46 -50t17 -65q0 -22 -5 -37q-2 -9 -9.5 -14.5t-15.5 -5.5q-13 0 -21.5 11t-4.5 23q3 11 3 21q0 31 -23 56.5t-56 25.5
q-49 0 -91 -61q-23 -34 -52 -107t-34 -149q0 -2 -2 -20t-2 -45q0 -58 14.5 -99.5t53.5 -41.5t76.5 51t64 120t36.5 120q2 10 12 15.5t20 2.5q10 -2 15.5 -11t3.5 -22q-3 -22 -9 -50.5t-9 -43.5l-13 -66q-25 -124 -33 -158l-13 -60q-1 -1 0.5 -2t2.5 0q51 23 85 72
q17 25 28.5 58t25.5 84q3 10 12 13.5t19 1.5t15.5 -13t2.5 -20q-25 -86 -46.5 -130t-61.5 -71q-52 -35 -96 -49q-7 -22 -28 -71q-14 -32 -42 -50t-59 -18q-21 0 -39.5 8.5t-30.5 24.5q-17 22 -17 50q0 21 10 38q16 28 60 39.5t102 17.5l33 149q-57 -78 -113 -85
q-5 -1 -15 -1q-62 0 -92 62t-30 145q0 16 2 42q5 54 23 122t47.5 129.5t67.5 96.5q40 37 95 37q39 0 70 -20zM98.5 -67q-31.5 -7 -38.5 -11t-11.5 -11.5t-4.5 -14.5q0 -6 3 -12q12 -21 33 -21q20 0 39.5 21t30.5 60q-20 -4 -51.5 -11z" />
    <glyph glyph-name="gbreve" unicode="&#x11f;" horiz-adv-x="615" 
d="M300 606q-69 0 -108.5 33.5t-44.5 100.5h54q4 -35 24.5 -49t76.5 -14q49 0 73 15.5t28 47.5h55q-6 -64 -48 -99t-110 -35zM140 421q21 0 41.5 -9.5t35.5 -24.5l3 15q2 10 8.5 15t14.5 5q12 0 21.5 -10t6.5 -25q-3 -22 -9 -50.5t-9 -43.5l-13 -66l-8 -39l-2 -12l-23 -107
l-13 -60q-1 -1 0.5 -2t2.5 0q51 23 85 72q17 25 26.5 51.5t22.5 73.5q3 10 12.5 15t18.5 3q11 -2 16.5 -11.5t3.5 -17.5q-25 -83 -44.5 -123.5t-60.5 -67.5q-52 -35 -96 -49q-7 -22 -28 -71q-14 -32 -42 -50t-59 -18q-21 0 -39.5 8.5t-30.5 24.5q-17 22 -17 50q0 21 10 38
q16 28 60 39.5t102 17.5l5 22q-28 -14 -70 -14q-43 4 -64 44.5t-21 103.5q0 76 27.5 152t71.5 106q25 15 54 15zM60 283.5q-21 -83.5 -21 -160.5q0 -52 16 -67q11 -8 22 -8q24 0 50 32.5t46 89.5q21 71 21 117q0 74 -52 78q-61 2 -82 -81.5zM68.5 -67q-31.5 -7 -38.5 -11
t-11.5 -11.5t-4.5 -14.5q0 -6 3 -12q12 -21 33 -21q20 0 39.5 21t30.5 60q-20 -4 -51.5 -11z" />
    <glyph glyph-name="Gdotaccent" unicode="&#x120;" horiz-adv-x="728" 
d="M371 846q0 29 15 42.5t37 13.5q21 0 36 -13.5t15 -42.5t-15.5 -42.5t-35.5 -13.5q-22 0 -37 13.5t-15 42.5zM255 669q29 -19 46 -50t17 -65q0 -22 -5 -37q-2 -9 -9.5 -14.5t-15.5 -5.5q-13 0 -21.5 11t-4.5 23q3 11 3 21q0 31 -23 56.5t-56 25.5q-49 0 -91 -61
q-23 -34 -52 -107t-34 -149q0 -2 -2 -20t-2 -45q0 -58 14.5 -99.5t53.5 -41.5t76.5 51t64 120t36.5 120q2 10 12 15.5t20 2.5q10 -2 15.5 -11t3.5 -22q-3 -22 -9 -50.5t-9 -43.5l-13 -66q-25 -124 -33 -158l-13 -60q-1 -1 0.5 -2t2.5 0q51 23 85 72q17 25 28.5 58t25.5 84
q3 10 12 13.5t19 1.5t15.5 -13t2.5 -20q-25 -86 -46.5 -130t-61.5 -71q-52 -35 -96 -49q-7 -22 -28 -71q-14 -32 -42 -50t-59 -18q-21 0 -39.5 8.5t-30.5 24.5q-17 22 -17 50q0 21 10 38q16 28 60 39.5t102 17.5l33 149q-57 -78 -113 -85q-5 -1 -15 -1q-62 0 -92 62t-30 145
q0 16 2 42q5 54 23 122t47.5 129.5t67.5 96.5q40 37 95 37q39 0 70 -20zM98.5 -67q-31.5 -7 -38.5 -11t-11.5 -11.5t-4.5 -14.5q0 -6 3 -12q12 -21 33 -21q20 0 39.5 21t30.5 60q-20 -4 -51.5 -11z" />
    <glyph glyph-name="gdotaccent" unicode="&#x121;" horiz-adv-x="615" 
d="M247 681q0 29 15 42.5t37 13.5q21 0 36 -13.5t15 -42.5t-15.5 -42.5t-35.5 -13.5q-22 0 -37 13.5t-15 42.5zM140 421q21 0 41.5 -9.5t35.5 -24.5l3 15q2 10 8.5 15t14.5 5q12 0 21.5 -10t6.5 -25q-3 -22 -9 -50.5t-9 -43.5l-13 -66l-8 -39l-2 -12l-23 -107l-13 -60
q-1 -1 0.5 -2t2.5 0q51 23 85 72q17 25 26.5 51.5t22.5 73.5q3 10 12.5 15t18.5 3q11 -2 16.5 -11.5t3.5 -17.5q-25 -83 -44.5 -123.5t-60.5 -67.5q-52 -35 -96 -49q-7 -22 -28 -71q-14 -32 -42 -50t-59 -18q-21 0 -39.5 8.5t-30.5 24.5q-17 22 -17 50q0 21 10 38
q16 28 60 39.5t102 17.5l5 22q-28 -14 -70 -14q-43 4 -64 44.5t-21 103.5q0 76 27.5 152t71.5 106q25 15 54 15zM60 283.5q-21 -83.5 -21 -160.5q0 -52 16 -67q11 -8 22 -8q24 0 50 32.5t46 89.5q21 71 21 117q0 74 -52 78q-61 2 -82 -81.5zM68.5 -67q-31.5 -7 -38.5 -11
t-11.5 -11.5t-4.5 -14.5q0 -6 3 -12q12 -21 33 -21q20 0 39.5 21t30.5 60q-20 -4 -51.5 -11z" />
    <glyph glyph-name="uni0122" unicode="&#x122;" horiz-adv-x="728" 
d="M322 -209q11 25 24 70.5t17 77.5h87v-9q-8 -31 -31.5 -76.5t-48.5 -74.5h-48v12zM255 669q29 -19 46 -50t17 -65q0 -22 -5 -37q-2 -9 -9.5 -14.5t-15.5 -5.5q-13 0 -21.5 11t-4.5 23q3 11 3 21q0 31 -23 56.5t-56 25.5q-49 0 -91 -61q-23 -34 -52 -107t-34 -149
q0 -2 -2 -20t-2 -45q0 -58 14.5 -99.5t53.5 -41.5t76.5 51t64 120t36.5 120q2 10 12 15.5t20 2.5q10 -2 15.5 -11t3.5 -22q-3 -22 -9 -50.5t-9 -43.5l-13 -66q-25 -124 -33 -158l-13 -60q-1 -1 0.5 -2t2.5 0q51 23 85 72q17 25 28.5 58t25.5 84q3 10 12 13.5t19 1.5
t15.5 -13t2.5 -20q-25 -86 -46.5 -130t-61.5 -71q-52 -35 -96 -49q-7 -22 -28 -71q-14 -32 -42 -50t-59 -18q-21 0 -39.5 8.5t-30.5 24.5q-17 22 -17 50q0 21 10 38q16 28 60 39.5t102 17.5l33 149q-57 -78 -113 -85q-5 -1 -15 -1q-62 0 -92 62t-30 145q0 16 2 42
q5 54 23 122t47.5 129.5t67.5 96.5q40 37 95 37q39 0 70 -20zM98.5 -67q-31.5 -7 -38.5 -11t-11.5 -11.5t-4.5 -14.5q0 -6 3 -12q12 -21 33 -21q20 0 39.5 21t30.5 60q-20 -4 -51.5 -11z" />
    <glyph glyph-name="uni0123" unicode="&#x123;" horiz-adv-x="615" 
d="M379 754q-13 -29 -26 -74.5t-16 -73.5h-87v9q7 27 31.5 74t48.5 77h49v-12zM140 421q21 0 41.5 -9.5t35.5 -24.5l3 15q2 10 8.5 15t14.5 5q12 0 21.5 -10t6.5 -25q-3 -22 -9 -50.5t-9 -43.5l-13 -66l-8 -39l-2 -12l-23 -107l-13 -60q-1 -1 0.5 -2t2.5 0q51 23 85 72
q17 25 26.5 51.5t22.5 73.5q3 10 12.5 15t18.5 3q11 -2 16.5 -11.5t3.5 -17.5q-25 -83 -44.5 -123.5t-60.5 -67.5q-52 -35 -96 -49q-7 -22 -28 -71q-14 -32 -42 -50t-59 -18q-21 0 -39.5 8.5t-30.5 24.5q-17 22 -17 50q0 21 10 38q16 28 60 39.5t102 17.5l5 22
q-28 -14 -70 -14q-43 4 -64 44.5t-21 103.5q0 76 27.5 152t71.5 106q25 15 54 15zM60 283.5q-21 -83.5 -21 -160.5q0 -52 16 -67q11 -8 22 -8q24 0 50 32.5t46 89.5q21 71 21 117q0 74 -52 78q-61 2 -82 -81.5zM68.5 -67q-31.5 -7 -38.5 -11t-11.5 -11.5t-4.5 -14.5
q0 -6 3 -12q12 -21 33 -21q20 0 39.5 21t30.5 60q-20 -4 -51.5 -11z" />
    <glyph glyph-name="Hcircumflex" unicode="&#x124;" horiz-adv-x="741" 
d="M200 782q61 65 86 96.5t37 52.5h90q25 -49 125 -149v-11h-62q-44 26 -109 90q-64 -62 -107 -90h-60v11zM647 674q5 -9 3 -21l-96 -500l-25 -135q-2 -10 -12.5 -15.5t-20.5 -2.5q-11 3 -15.5 12t-2.5 21l49 263h-207l-23 -118q-4 -18 -10 -38t-14 -36q-20 -46 -48 -69
q-34 -26 -72 -33q-16 -3 -33 -3q-69 0 -115 45q-26 25 -40.5 59.5t-14.5 70.5q0 52 22 90q23 39 59 55q22 12 48 12q14 0 32 -5q19 -5 35 -18t24 -30q3 -6 3 -13q0 -16 -13 -22q-4 -2 -10 -2q-15 0 -30 22q-19 14 -40 14q-20 0 -32.5 -9t-25.5 -22q-24 -31 -24 -70
q0 -32 16.5 -61.5t44 -48t59.5 -18.5q24 0 49 12q18 7 41 32t37 92l24 112h-23q-10 0 -18 8t-8 18q0 11 7.5 19t18.5 8h33l24 128q-7 -1 -22 -1q-46 0 -104 14q-90 20 -165 74q-12 10 -12 24q0 6 3 12q10 12 24 12q8 0 13 -4q52 -38 114 -59.5t125 -21.5q19 0 28 1h8
q1 8 3 20t6 28l11 53q4 21 23.5 36t42.5 15q25 -1 44.5 -15.5t25.5 -37.5q3 -12 3 -22q0 -38 -31 -69t-72 -46l-12 -4q-13 -55 -28 -137h206l46 239v1l15 78q2 11 12.5 16.5t20.5 2.5q11 -3 16 -12zM403 629q-7 0 -11.5 -4t-6.5 -11q-8 -27 -14 -69q32 16 44 40q7 11 7 24
q0 12 -10 18q-3 2 -9 2z" />
    <glyph glyph-name="hcircumflex" unicode="&#x125;" horiz-adv-x="618" 
d="M143 809q61 65 86 96.5t37 52.5h90q25 -49 125 -149v-11h-62q-44 26 -109 90q-64 -62 -107 -90h-60v11zM105 580q7 -10 5 -23l-28 -149l2 1q25 14 51 14q24 0 43 -12q22 -13 36.5 -35t18.5 -48q2 -18 2 -26q0 -27 -12 -83q-5 -22 -8 -37q-12 -52 -16 -74q-2 -8 -2 -19
q0 -17 5.5 -28.5t17.5 -10.5q18 1 29.5 18t21.5 41q7 20 31 95q7 24 27 24q10 0 18.5 -12.5t5.5 -22.5q-7 -27 -32 -97q-24 -61 -57 -84q-19 -13 -44 -13q-32 0 -50 21q-24 27 -24 69q0 17 3 33q9 44 16 74l8 37q4 16 7.5 34t3.5 33q0 17 -6 35q-6 15 -18 25.5t-26 10.5
q-7 0 -15 -3q-23 -8 -36.5 -23t-21.5 -45q-17 -94 -53 -282q-2 -8 -10 -13.5t-17 -5.5q-13 0 -19 10t-4 23l102 539q1 9 8.5 14t16.5 5q13 0 20 -10z" />
    <glyph glyph-name="Hbar" unicode="&#x126;" horiz-adv-x="741" 
d="M97 595v119h90v-119h366v119h90v-119h97v-72h-97v-523h-90v333h-366v-333h-90v523h-97v72h97zM553 412v111h-366v-111h366z" />
    <glyph glyph-name="hbar" unicode="&#x127;" horiz-adv-x="618" 
d="M450 0v323q0 65 -29 97t-91 32q-83 0 -120 -45t-37 -149v-258h-88v604h-76v66h76v90h88v-90h212v-66h-212v-87q0 -43 -5 -74h6q26 42 70.5 62.5t97.5 20.5q97 0 146 -47t49 -150v-329h-87z" />
    <glyph glyph-name="Itilde" unicode="&#x128;" horiz-adv-x="338" 
d="M244 772q-21 0 -41 9t-39.5 19.5t-37 19.5t-34.5 9q-24 0 -36 -14.5t-19 -43.5h-51q6 60 34 94t76 34q22 0 42.5 -9t39.5 -19.5t37 -19.5t33 -9q23 0 35.5 14.5t19.5 43.5h50q-6 -58 -34 -93t-75 -35zM417 687q29 0 49 -14q31 -24 31 -54q0 -11 -5 -21.5t-13 -17.5
q-17 -14 -39 -19q-14 -4 -25 -5.5t-19 -3.5l-25 -5l-49 -267l-17 -94q-9 -48 -22 -76q-19 -47 -48 -72q-34 -29 -72 -36q-17 -4 -39 -4q-31 0 -61 11t-53 32q-29 27 -45 65t-15 78q0 44 21 81q22 42 58 59q28 13 53 13q9 0 29 -4q20 -5 36.5 -17.5t26.5 -30.5q3 -6 3 -14
q0 -16 -13 -22q-6 -3 -12 -3q-15 0 -30 22q-21 14 -41 14q-21 0 -36.5 -12t-22.5 -22q-23 -32 -23 -69q0 -33 17.5 -63.5t46 -49t60.5 -18.5q28 0 53 14q16 7 38.5 33.5t37.5 95.5l35 190l29 156l-114 -23q-31 -6 -45 -16.5t-14 -21.5q0 -9 9 -14q15 -7 21 -12t6 -14
q0 -11 -8 -19t-19 -8q-25 0 -43.5 19.5t-18.5 44.5t15.5 46t38.5 32q26 11 56.5 17t36.5 7q22 4 88 17q3 22 13.5 47.5t33.5 37.5q20 10 45 10zM378 597q7 0 59 13q8 1 8 10q0 8 -7.5 15t-19.5 7q-4 0 -18 -4q-16 -5 -22 -41z" />
    <glyph glyph-name="itilde" unicode="&#x129;" horiz-adv-x="257" 
d="M204 607q-21 0 -41 9t-39.5 19.5t-37 19.5t-34.5 9q-24 0 -36 -14.5t-19 -43.5h-51q6 60 34 94t76 34q22 0 42.5 -9t39.5 -19.5t37 -19.5t33 -9q23 0 35.5 14.5t19.5 43.5h50q-6 -58 -34 -93t-75 -35zM173 0h-88v536h88v-536z" />
    <glyph glyph-name="Imacron" unicode="&#x12a;" horiz-adv-x="338" 
d="M21 842h297v-71h-297v71zM417 687q29 0 49 -14q31 -24 31 -54q0 -11 -5 -21.5t-13 -17.5q-17 -14 -39 -19q-14 -4 -25 -5.5t-19 -3.5l-25 -5l-49 -267l-17 -94q-9 -48 -22 -76q-19 -47 -48 -72q-34 -29 -72 -36q-17 -4 -39 -4q-31 0 -61 11t-53 32q-29 27 -45 65t-15 78
q0 44 21 81q22 42 58 59q28 13 53 13q9 0 29 -4q20 -5 36.5 -17.5t26.5 -30.5q3 -6 3 -14q0 -16 -13 -22q-6 -3 -12 -3q-15 0 -30 22q-21 14 -41 14q-21 0 -36.5 -12t-22.5 -22q-23 -32 -23 -69q0 -33 17.5 -63.5t46 -49t60.5 -18.5q28 0 53 14q16 7 38.5 33.5t37.5 95.5
l35 190l29 156l-114 -23q-31 -6 -45 -16.5t-14 -21.5q0 -9 9 -14q15 -7 21 -12t6 -14q0 -11 -8 -19t-19 -8q-25 0 -43.5 19.5t-18.5 44.5t15.5 46t38.5 32q26 11 56.5 17t36.5 7q22 4 88 17q3 22 13.5 47.5t33.5 37.5q20 10 45 10zM378 597q7 0 59 13q8 1 8 10q0 8 -7.5 15
t-19.5 7q-4 0 -18 -4q-16 -5 -22 -41z" />
    <glyph glyph-name="imacron" unicode="&#x12b;" horiz-adv-x="257" 
d="M-18 677h297v-71h-297v71zM173 0h-88v536h88v-536z" />
    <glyph glyph-name="Ibreve" unicode="&#x12c;" horiz-adv-x="338" 
d="M168 771q-69 0 -108.5 33.5t-44.5 100.5h54q4 -35 24.5 -49t76.5 -14q49 0 73 15.5t28 47.5h55q-6 -64 -48 -99t-110 -35zM417 687q29 0 49 -14q31 -24 31 -54q0 -11 -5 -21.5t-13 -17.5q-17 -14 -39 -19q-14 -4 -25 -5.5t-19 -3.5l-25 -5l-49 -267l-17 -94
q-9 -48 -22 -76q-19 -47 -48 -72q-34 -29 -72 -36q-17 -4 -39 -4q-31 0 -61 11t-53 32q-29 27 -45 65t-15 78q0 44 21 81q22 42 58 59q28 13 53 13q9 0 29 -4q20 -5 36.5 -17.5t26.5 -30.5q3 -6 3 -14q0 -16 -13 -22q-6 -3 -12 -3q-15 0 -30 22q-21 14 -41 14
q-21 0 -36.5 -12t-22.5 -22q-23 -32 -23 -69q0 -33 17.5 -63.5t46 -49t60.5 -18.5q28 0 53 14q16 7 38.5 33.5t37.5 95.5l35 190l29 156l-114 -23q-31 -6 -45 -16.5t-14 -21.5q0 -9 9 -14q15 -7 21 -12t6 -14q0 -11 -8 -19t-19 -8q-25 0 -43.5 19.5t-18.5 44.5t15.5 46
t38.5 32q26 11 56.5 17t36.5 7q22 4 88 17q3 22 13.5 47.5t33.5 37.5q20 10 45 10zM378 597q7 0 59 13q8 1 8 10q0 8 -7.5 15t-19.5 7q-4 0 -18 -4q-16 -5 -22 -41z" />
    <glyph glyph-name="ibreve" unicode="&#x12d;" horiz-adv-x="257" 
d="M126 606q-69 0 -108.5 33.5t-44.5 100.5h54q4 -35 24.5 -49t76.5 -14q49 0 73 15.5t28 47.5h55q-6 -64 -48 -99t-110 -35zM173 0h-88v536h88v-536z" />
    <glyph glyph-name="Iogonek" unicode="&#x12e;" horiz-adv-x="338" 
d="M160 -116q0 -22 12 -33.5t33 -11.5t48 6v-56q-34 -9 -62 -9q-103 0 -103 94q0 68 78 126h62q-34 -32 -51 -58.5t-17 -57.5zM417 687q29 0 49 -14q31 -24 31 -54q0 -11 -5 -21.5t-13 -17.5q-17 -14 -39 -19q-14 -4 -25 -5.5t-19 -3.5l-25 -5l-49 -267l-17 -94
q-9 -48 -22 -76q-19 -47 -48 -72q-34 -29 -72 -36q-17 -4 -39 -4q-31 0 -61 11t-53 32q-29 27 -45 65t-15 78q0 44 21 81q22 42 58 59q28 13 53 13q9 0 29 -4q20 -5 36.5 -17.5t26.5 -30.5q3 -6 3 -14q0 -16 -13 -22q-6 -3 -12 -3q-15 0 -30 22q-21 14 -41 14
q-21 0 -36.5 -12t-22.5 -22q-23 -32 -23 -69q0 -33 17.5 -63.5t46 -49t60.5 -18.5q28 0 53 14q16 7 38.5 33.5t37.5 95.5l35 190l29 156l-114 -23q-31 -6 -45 -16.5t-14 -21.5q0 -9 9 -14q15 -7 21 -12t6 -14q0 -11 -8 -19t-19 -8q-25 0 -43.5 19.5t-18.5 44.5t15.5 46
t38.5 32q26 11 56.5 17t36.5 7q22 4 88 17q3 22 13.5 47.5t33.5 37.5q20 10 45 10zM378 597q7 0 59 13q8 1 8 10q0 8 -7.5 15t-19.5 7q-4 0 -18 -4q-16 -5 -22 -41z" />
    <glyph glyph-name="iogonek" unicode="&#x12f;" horiz-adv-x="257" 
d="M97 -116q0 -22 12 -33.5t33 -11.5t48 6v-56q-34 -9 -62 -9q-103 0 -103 94q0 68 78 126h62q-34 -32 -51 -58.5t-17 -57.5zM83 483q7 -8 7 -18q0 -11 -7 -19t-19 -8t-18.5 8t-6.5 19t6.5 18.5t18.5 7.5t19 -8zM76.5 411.5q4.5 -8.5 2.5 -20.5q-6 -37 -26 -137l-5 -23
l-15 -78q-2 -9 -5.5 -26.5t-3.5 -30.5q0 -9 1 -14q2 -11 8 -21t15 -10q13 0 22.5 8.5t19.5 23.5q17 25 26.5 51.5t21.5 69.5q3 11 13 17.5t19 4.5q10 -2 16 -13.5t3 -19.5q-17 -58 -30.5 -92t-38.5 -64q-14 -18 -34 -29t-40 -8q-21 3 -37.5 14t-23.5 29q-12 24 -12 53
q0 17 3 36l18 89l35 185q2 10 12 14.5t20 1.5q11 -2 15.5 -10.5z" />
    <glyph glyph-name="Idotaccent" unicode="&#x130;" horiz-adv-x="338" 
d="M117 846q0 29 15 42.5t37 13.5q21 0 36 -13.5t15 -42.5t-15.5 -42.5t-35.5 -13.5q-22 0 -37 13.5t-15 42.5zM417 687q29 0 49 -14q31 -24 31 -54q0 -11 -5 -21.5t-13 -17.5q-17 -14 -39 -19q-14 -4 -25 -5.5t-19 -3.5l-25 -5l-49 -267l-17 -94q-9 -48 -22 -76
q-19 -47 -48 -72q-34 -29 -72 -36q-17 -4 -39 -4q-31 0 -61 11t-53 32q-29 27 -45 65t-15 78q0 44 21 81q22 42 58 59q28 13 53 13q9 0 29 -4q20 -5 36.5 -17.5t26.5 -30.5q3 -6 3 -14q0 -16 -13 -22q-6 -3 -12 -3q-15 0 -30 22q-21 14 -41 14q-21 0 -36.5 -12t-22.5 -22
q-23 -32 -23 -69q0 -33 17.5 -63.5t46 -49t60.5 -18.5q28 0 53 14q16 7 38.5 33.5t37.5 95.5l35 190l29 156l-114 -23q-31 -6 -45 -16.5t-14 -21.5q0 -9 9 -14q15 -7 21 -12t6 -14q0 -11 -8 -19t-19 -8q-25 0 -43.5 19.5t-18.5 44.5t15.5 46t38.5 32q26 11 56.5 17t36.5 7
q22 4 88 17q3 22 13.5 47.5t33.5 37.5q20 10 45 10zM378 597q7 0 59 13q8 1 8 10q0 8 -7.5 15t-19.5 7q-4 0 -18 -4q-16 -5 -22 -41z" />
    <glyph glyph-name="dotlessi" unicode="&#x131;" horiz-adv-x="257" 
d="M173 0h-88v536h88v-536z" />
    <glyph glyph-name="IJ" unicode="&#x132;" horiz-adv-x="611" 
d="M417 687q29 0 49 -14q31 -24 31 -54q0 -11 -5 -21.5t-13 -17.5q-17 -14 -39 -19q-14 -4 -25 -5.5t-19 -3.5l-25 -5l-49 -267l-17 -94q-9 -48 -22 -76q-19 -47 -48 -72q-34 -29 -72 -36q-17 -4 -39 -4q-31 0 -61 11t-53 32q-29 27 -45 65t-15 78q0 44 21 81q22 42 58 59
q28 13 53 13q9 0 29 -4q20 -5 36.5 -17.5t26.5 -30.5q3 -6 3 -14q0 -16 -13 -22q-6 -3 -12 -3q-15 0 -30 22q-21 14 -41 14q-21 0 -36.5 -12t-22.5 -22q-23 -32 -23 -69q0 -33 17.5 -63.5t46 -49t60.5 -18.5q28 0 53 14q16 7 38.5 33.5t37.5 95.5l35 190l29 156l-114 -23
q-31 -6 -45 -16.5t-14 -21.5q0 -9 9 -14q15 -7 21 -12t6 -14q0 -11 -8 -19t-19 -8q-25 0 -43.5 19.5t-18.5 44.5t15.5 46t38.5 32q26 11 56.5 17t36.5 7q22 4 88 17q3 22 13.5 47.5t33.5 37.5q20 10 45 10zM378 597q7 0 59 13q8 1 8 10q0 8 -7.5 15t-19.5 7q-4 0 -18 -4
q-16 -5 -22 -41zM670 687q29 0 49 -14q31 -24 31 -54q0 -11 -5 -21.5t-13 -17.5q-17 -14 -39 -19q-14 -4 -25 -5.5t-19 -3.5l-25 -5l-44 -236l-16 -84q-25 -124 -33 -158l-13 -60q-1 -1 0.5 -2t2.5 0q51 23 85 72q17 25 26.5 51.5t22.5 73.5q3 10 12.5 15t18.5 3
q11 -2 16.5 -11.5t3.5 -17.5q-25 -83 -44.5 -123.5t-60.5 -67.5q-52 -35 -96 -49q-7 -22 -28 -71q-14 -32 -42 -50t-59 -18q-21 0 -39.5 8.5t-30.5 24.5q-17 22 -17 50q0 21 10 38q16 28 60 39.5t102 17.5l108 545l-114 -23q-31 -6 -45 -16.5t-14 -21.5q0 -9 9 -14
q15 -7 21 -12t6 -14q0 -11 -8 -19t-19 -8q-25 0 -43.5 19.5t-18.5 44.5t15.5 46t38.5 32q26 11 56.5 17t36.5 7q22 4 88 17q3 22 13.5 47.5t33.5 37.5q20 10 45 10zM631 597q7 0 59 13q8 1 8 10q0 8 -7.5 15t-19.5 7q-4 0 -18 -4q-16 -5 -22 -41zM392.5 -67
q-31.5 -7 -38.5 -11t-11.5 -11.5t-4.5 -14.5q0 -6 3 -12q12 -21 33 -21q20 0 39.5 21t30.5 60q-20 -4 -51.5 -11z" />
    <glyph glyph-name="ij" unicode="&#x133;" horiz-adv-x="514" 
d="M83 483q7 -8 7 -18q0 -11 -7 -19t-19 -8t-18.5 8t-6.5 19t6.5 18.5t18.5 7.5t19 -8zM76.5 411.5q4.5 -8.5 2.5 -20.5q-6 -37 -26 -137l-5 -23l-15 -78q-2 -9 -5.5 -26.5t-3.5 -30.5q0 -9 1 -14q2 -11 8 -21t15 -10q13 0 22.5 8.5t19.5 23.5q17 25 26.5 51.5t21.5 69.5
q3 11 13 17.5t19 4.5q10 -2 16 -13.5t3 -19.5q-17 -58 -30.5 -92t-38.5 -64q-14 -18 -34 -29t-40 -8q-21 3 -37.5 14t-23.5 29q-12 24 -12 53q0 17 3 36l18 89l35 185q2 10 12 14.5t20 1.5q11 -2 15.5 -10.5zM335 483q7 -8 7 -18q0 -11 -7 -19t-19 -8t-18.5 8t-6.5 19
t6.5 18.5t18.5 7.5t19 -8zM329.5 409q5.5 -9 3.5 -22q-3 -22 -9 -50.5t-9 -43.5l-13 -66q-25 -124 -33 -158l-13 -60q-1 -1 0.5 -2t2.5 0q51 23 85 72q17 25 26.5 51.5t22.5 73.5q3 10 12.5 15t18.5 3q11 -2 16.5 -11.5t3.5 -17.5q-25 -83 -44.5 -123.5t-60.5 -67.5
q-52 -35 -96 -49q-7 -22 -28 -71q-14 -32 -42 -50t-59 -18q-21 0 -39.5 8.5t-30.5 24.5q-17 22 -17 50q0 21 10 38q16 28 60 39.5t102 17.5l46 211v1l3 13l34 185q2 10 12 15.5t20 2.5q10 -2 15.5 -11zM130.5 -67q-31.5 -7 -38.5 -11t-11.5 -11.5t-4.5 -14.5q0 -6 3 -12
q12 -21 33 -21q20 0 39.5 21t30.5 60q-20 -4 -51.5 -11z" />
    <glyph glyph-name="Jcircumflex" unicode="&#x134;" horiz-adv-x="272" 
d="M-31 782q61 65 86 96.5t37 52.5h90q25 -49 125 -149v-11h-62q-44 26 -109 90q-64 -62 -107 -90h-60v11zM331 687q29 0 49 -14q31 -24 31 -54q0 -11 -5 -21.5t-13 -17.5q-17 -14 -39 -19q-14 -4 -25 -5.5t-19 -3.5l-25 -5l-44 -236l-16 -84q-25 -124 -33 -158l-13 -60
q-1 -1 0.5 -2t2.5 0q51 23 85 72q17 25 26.5 51.5t22.5 73.5q3 10 12.5 15t18.5 3q11 -2 16.5 -11.5t3.5 -17.5q-25 -83 -44.5 -123.5t-60.5 -67.5q-52 -35 -96 -49q-7 -22 -28 -71q-14 -32 -42 -50t-59 -18q-21 0 -39.5 8.5t-30.5 24.5q-17 22 -17 50q0 21 10 38
q16 28 60 39.5t102 17.5l108 545l-114 -23q-31 -6 -45 -16.5t-14 -21.5q0 -9 9 -14q15 -7 21 -12t6 -14q0 -11 -8 -19t-19 -8q-25 0 -43.5 19.5t-18.5 44.5t15.5 46t38.5 32q26 11 56.5 17t36.5 7q22 4 88 17q3 22 13.5 47.5t33.5 37.5q20 10 45 10zM292 597q7 0 59 13
q8 1 8 10q0 8 -7.5 15t-19.5 7q-4 0 -18 -4q-16 -5 -22 -41zM53.5 -67q-31.5 -7 -38.5 -11t-11.5 -11.5t-4.5 -14.5q0 -6 3 -12q12 -21 33 -21q20 0 39.5 21t30.5 60q-20 -4 -51.5 -11z" />
    <glyph glyph-name="jcircumflex" unicode="&#x135;" horiz-adv-x="257" 
d="M-42 617q61 65 86 96.5t37 52.5h90q25 -49 125 -149v-11h-62q-44 26 -109 90q-64 -62 -107 -90h-60v11zM22 -240q-46 0 -77 12v71q34 -10 66 -10q38 0 56 21t18 63v619h88v-616q0 -80 -38.5 -120t-112.5 -40z" />
    <glyph glyph-name="uni0136" unicode="&#x136;" horiz-adv-x="619" 
d="M246 -209q11 25 24 70.5t17 77.5h87v-9q-8 -31 -31.5 -76.5t-48.5 -74.5h-48v12zM446.5 664.5q19.5 -14.5 25.5 -37.5q3 -12 3 -22q0 -38 -31 -69t-72 -46l-12 -4l-22 -107q8 0 25 3t30 9q16 8 40 24.5t37 32.5q26 22 60.5 77t38.5 62q15 26 28 43t31 30q25 18 53 18
q22 0 39 -12q13 -10 13 -24q0 -6 -3 -12q-8 -13 -24 -13q-8 0 -13 4l-4 3q-5 3 -9 3q-16 0 -33.5 -21.5t-43.5 -63.5l-20 -31q-29 -45 -56.5 -78.5t-61.5 -58.5q-18 -15 -33 -22q58 -58 79 -103t28 -103q4 -47 16 -70.5t30 -23.5q26 0 55 44.5t48 120.5q4 17 22 17
q7 0 10 -1q9 -2 14 -8t5 -14q0 -5 -1 -8l-18 -54q-2 -7 -11.5 -34t-22.5 -49q-25 -43 -68 -59q-18 -5 -32 -5q-34 0 -57 20q-18 15 -26 37.5t-12 52.5q0 11 -7 50t-19 65q-12 24 -21.5 37.5t-12.5 18.5q-23 29 -37.5 36.5t-33.5 5.5q-7 -1 -16.5 -2.5t-16.5 -1.5
q-25 -127 -29 -143q-4 -18 -10 -38t-14 -36q-20 -46 -48 -69q-34 -26 -72 -33q-16 -3 -33 -3q-68 0 -115 45q-26 25 -40.5 59.5t-14.5 70.5q0 52 22 90q23 39 59 55q22 12 48 12q14 0 32 -5q19 -5 35 -18t24 -30q3 -6 3 -13q0 -16 -13 -22q-4 -2 -10 -2q-15 0 -30 22
q-19 14 -40 14q-20 0 -32.5 -9t-25.5 -22q-24 -31 -24 -70q0 -32 16.5 -61.5t44 -48t59.5 -18.5q24 0 49 12q18 7 41 32t37 92q40 192 58 293q-7 -1 -22 -1q-46 0 -104 14q-90 20 -165 74q-12 10 -12 24q0 6 3 12q10 12 24 12q8 0 13 -4q52 -38 114 -59.5t125 -21.5
q19 0 28 1h8q1 8 3 20t6 28l11 53q4 21 23.5 36t42.5 15q25 -1 44.5 -15.5zM404 629q-7 0 -11.5 -4t-6.5 -11q-8 -27 -14 -69q32 16 44 40q7 11 7 24q0 12 -10 18q-3 2 -9 2z" />
    <glyph glyph-name="uni0137" unicode="&#x137;" horiz-adv-x="534" 
d="M203 -209q11 25 24 70.5t17 77.5h87v-9q-8 -31 -31.5 -76.5t-48.5 -74.5h-48v12zM106.5 578q4.5 -9 2.5 -20l-34 -181q22 18 47 31q36 19 59 19q9 0 18 -3q24 -8 37 -29t13 -49q0 -41 -24 -87q-19 -38 -37.5 -54t-47.5 -31q-16 -8 -24 -13q9 -21 36 -59.5t46 -46.5
q6 -2 10 -2q26 0 49.5 48.5t38.5 102.5q2 9 9.5 14.5t16.5 5.5q10 0 18 -6.5t8 -16.5q0 -5 -1 -8q-18 -62 -48 -121t-67 -69q-11 -3 -20 -3q-21 0 -40.5 10t-34.5 28q-47 60 -66 97l-3 5q-4 -1 -12 -1t-12 1q-7 1 -13 6l-24 -128q-2 -10 -12 -15.5t-20 -2.5q-11 3 -15.5 12
t-2.5 19l102 541q2 10 12 15.5t20 2.5q11 -3 15.5 -12zM179 375q-20 0 -48 -22l-18 -14q-23 -17 -37.5 -32.5t-21.5 -40.5l-10 -50q3 1 8 1q6 0 8 -1q13 -1 26 -13q36 13 53.5 26t35.5 46q12 24 17 44q5 15 5 30q0 10 -2 15q-4 11 -16 11z" />
    <glyph glyph-name="kgreenlandic" unicode="&#x138;" horiz-adv-x="534" 
d="M403 536h106l-203 -237l219 -299h-105l-176 242l-66 -54v-188h-93v536h93v-139q0 -68 -6 -135l41 50z" />
    <glyph glyph-name="Lacute" unicode="&#x139;" horiz-adv-x="523" 
d="M319 689q29 0 49 -14q31 -24 31 -54q0 -11 -5 -21.5t-13 -17.5q-17 -14 -39 -19q-14 -4 -25 -5.5t-19 -3.5l-26 -5q-17 -98 -45.5 -246t-38.5 -179l25 -31q45 -56 67 -79.5t43 -36t54 -20.5q11 -2 16 -9.5t3 -18.5q-4 -18 -22 -18q-10 0 -38 7q-41 10 -73 40t-70 76
q-20 26 -29 33q-9 -14 -20 -24t-29 -22q-34 -22 -68 -22q-26 0 -50.5 14.5t-36.5 37.5q-10 20 -10 41q0 27 15 46q14 19 34 30q25 13 55 13q38 0 82 -23q2 -1 4 -1.5t3 -1.5q20 82 73 383q-82 -16 -112 -22q-31 -6 -45 -16.5t-14 -21.5q0 -9 9 -14q15 -7 21 -12t6 -14
q0 -11 -8 -19t-19 -8q-25 0 -43.5 19.5t-18.5 44.5t15.5 46t38.5 32q26 11 56.5 17t36.5 7q22 4 88 17q3 22 13.5 47.5t33.5 37.5q20 10 45 10zM287.5 624q-5.5 -12 -7.5 -26q7 0 59 13q8 1 8 10q0 8 -7.5 15t-19.5 7q-4 0 -18 -4q-9 -3 -14.5 -15zM46 131q-21 0 -32.5 -11
t-11.5 -27t11 -28t29 -12q32 0 70 37l6 8l3 7q-44 26 -75 26zM118 783q19 23 47.5 66.5t47.5 81.5h106v-10q-21 -31 -66.5 -78.5t-76.5 -71.5h-58v12z" />
    <glyph glyph-name="lacute" unicode="&#x13a;" horiz-adv-x="257" 
d="M108.5 577.5q4.5 -8.5 2.5 -20.5q-12 -66 -30.5 -163t-31.5 -163l-15 -78q-2 -9 -5.5 -26.5t-3.5 -30.5q0 -9 1 -14q2 -11 8 -21t15 -10q13 0 22.5 8.5t19.5 23.5q17 25 26.5 51.5t21.5 69.5q3 11 13 17.5t19 4.5q10 -2 16 -13.5t3 -19.5q-17 -58 -30.5 -92t-38.5 -64
q-14 -18 -34 -29t-40 -8q-21 3 -37.5 14t-23.5 29q-12 24 -12 53q0 17 3 36q4 22 7 32q8 38 11 57l66 351q1 9 11.5 14t20.5 2q11 -2 15.5 -10.5zM81 811q19 23 47.5 66.5t47.5 81.5h106v-10q-21 -31 -66.5 -78.5t-76.5 -71.5h-58v12z" />
    <glyph glyph-name="uni013B" unicode="&#x13b;" horiz-adv-x="523" 
d="M204 -209q11 25 24 70.5t17 77.5h87v-9q-8 -31 -31.5 -76.5t-48.5 -74.5h-48v12zM319 689q29 0 49 -14q31 -24 31 -54q0 -11 -5 -21.5t-13 -17.5q-17 -14 -39 -19q-14 -4 -25 -5.5t-19 -3.5l-26 -5q-17 -98 -45.5 -246t-38.5 -179l25 -31q45 -56 67 -79.5t43 -36
t54 -20.5q11 -2 16 -9.5t3 -18.5q-4 -18 -22 -18q-10 0 -38 7q-41 10 -73 40t-70 76q-20 26 -29 33q-9 -14 -20 -24t-29 -22q-34 -22 -68 -22q-26 0 -50.5 14.5t-36.5 37.5q-10 20 -10 41q0 27 15 46q14 19 34 30q25 13 55 13q38 0 82 -23q2 -1 4 -1.5t3 -1.5q20 82 73 383
q-82 -16 -112 -22q-31 -6 -45 -16.5t-14 -21.5q0 -9 9 -14q15 -7 21 -12t6 -14q0 -11 -8 -19t-19 -8q-25 0 -43.5 19.5t-18.5 44.5t15.5 46t38.5 32q26 11 56.5 17t36.5 7q22 4 88 17q3 22 13.5 47.5t33.5 37.5q20 10 45 10zM287.5 624q-5.5 -12 -7.5 -26q7 0 59 13
q8 1 8 10q0 8 -7.5 15t-19.5 7q-4 0 -18 -4q-9 -3 -14.5 -15zM46 131q-21 0 -32.5 -11t-11.5 -27t11 -28t29 -12q32 0 70 37l6 8l3 7q-44 26 -75 26z" />
    <glyph glyph-name="uni013C" unicode="&#x13c;" horiz-adv-x="257" 
d="M45 -209q11 25 24 70.5t17 77.5h87v-9q-8 -31 -31.5 -76.5t-48.5 -74.5h-48v12zM108.5 577.5q4.5 -8.5 2.5 -20.5q-12 -66 -30.5 -163t-31.5 -163l-15 -78q-2 -9 -5.5 -26.5t-3.5 -30.5q0 -9 1 -14q2 -11 8 -21t15 -10q13 0 22.5 8.5t19.5 23.5q17 25 26.5 51.5
t21.5 69.5q3 11 13 17.5t19 4.5q10 -2 16 -13.5t3 -19.5q-17 -58 -30.5 -92t-38.5 -64q-14 -18 -34 -29t-40 -8q-21 3 -37.5 14t-23.5 29q-12 24 -12 53q0 17 3 36q4 22 7 32q8 38 11 57l66 351q1 9 11.5 14t20.5 2q11 -2 15.5 -10.5z" />
    <glyph glyph-name="Lcaron" unicode="&#x13d;" horiz-adv-x="523" 
d="M333 567q11 32 20.5 77.5t12.5 70.5h87v-9q-6 -26 -27 -71t-45 -80h-48v12zM319 689q29 0 49 -14q31 -24 31 -54q0 -11 -5 -21.5t-13 -17.5q-17 -14 -39 -19q-14 -4 -25 -5.5t-19 -3.5l-26 -5q-17 -98 -45.5 -246t-38.5 -179l25 -31q45 -56 67 -79.5t43 -36t54 -20.5
q11 -2 16 -9.5t3 -18.5q-4 -18 -22 -18q-10 0 -38 7q-41 10 -73 40t-70 76q-20 26 -29 33q-9 -14 -20 -24t-29 -22q-34 -22 -68 -22q-26 0 -50.5 14.5t-36.5 37.5q-10 20 -10 41q0 27 15 46q14 19 34 30q25 13 55 13q38 0 82 -23q2 -1 4 -1.5t3 -1.5q20 82 73 383
q-82 -16 -112 -22q-31 -6 -45 -16.5t-14 -21.5q0 -9 9 -14q15 -7 21 -12t6 -14q0 -11 -8 -19t-19 -8q-25 0 -43.5 19.5t-18.5 44.5t15.5 46t38.5 32q26 11 56.5 17t36.5 7q22 4 88 17q3 22 13.5 47.5t33.5 37.5q20 10 45 10zM287.5 624q-5.5 -12 -7.5 -26q7 0 59 13
q8 1 8 10q0 8 -7.5 15t-19.5 7q-4 0 -18 -4q-9 -3 -14.5 -15zM46 131q-21 0 -32.5 -11t-11.5 -27t11 -28t29 -12q32 0 70 37l6 8l3 7q-44 26 -75 26z" />
    <glyph glyph-name="lcaron" unicode="&#x13e;" horiz-adv-x="257" 
d="M219 612q11 32 20.5 77.5t12.5 70.5h87v-9q-6 -26 -27 -71t-45 -80h-48v12zM108.5 577.5q4.5 -8.5 2.5 -20.5q-12 -66 -30.5 -163t-31.5 -163l-15 -78q-2 -9 -5.5 -26.5t-3.5 -30.5q0 -9 1 -14q2 -11 8 -21t15 -10q13 0 22.5 8.5t19.5 23.5q17 25 26.5 51.5t21.5 69.5
q3 11 13 17.5t19 4.5q10 -2 16 -13.5t3 -19.5q-17 -58 -30.5 -92t-38.5 -64q-14 -18 -34 -29t-40 -8q-21 3 -37.5 14t-23.5 29q-12 24 -12 53q0 17 3 36q4 22 7 32q8 38 11 57l66 351q1 9 11.5 14t20.5 2q11 -2 15.5 -10.5z" />
    <glyph glyph-name="Ldot" unicode="&#x13f;" horiz-adv-x="523" 
d="M332 357q0 29 15 42.5t37 13.5q21 0 36 -13.5t15 -42.5t-15.5 -42.5t-35.5 -13.5q-22 0 -37 13.5t-15 42.5zM319 689q29 0 49 -14q31 -24 31 -54q0 -11 -5 -21.5t-13 -17.5q-17 -14 -39 -19q-14 -4 -25 -5.5t-19 -3.5l-26 -5q-17 -98 -45.5 -246t-38.5 -179l25 -31
q45 -56 67 -79.5t43 -36t54 -20.5q11 -2 16 -9.5t3 -18.5q-4 -18 -22 -18q-10 0 -38 7q-41 10 -73 40t-70 76q-20 26 -29 33q-9 -14 -20 -24t-29 -22q-34 -22 -68 -22q-26 0 -50.5 14.5t-36.5 37.5q-10 20 -10 41q0 27 15 46q14 19 34 30q25 13 55 13q38 0 82 -23
q2 -1 4 -1.5t3 -1.5q20 82 73 383q-82 -16 -112 -22q-31 -6 -45 -16.5t-14 -21.5q0 -9 9 -14q15 -7 21 -12t6 -14q0 -11 -8 -19t-19 -8q-25 0 -43.5 19.5t-18.5 44.5t15.5 46t38.5 32q26 11 56.5 17t36.5 7q22 4 88 17q3 22 13.5 47.5t33.5 37.5q20 10 45 10zM287.5 624
q-5.5 -12 -7.5 -26q7 0 59 13q8 1 8 10q0 8 -7.5 15t-19.5 7q-4 0 -18 -4q-9 -3 -14.5 -15zM46 131q-21 0 -32.5 -11t-11.5 -27t11 -28t29 -12q32 0 70 37l6 8l3 7q-44 26 -75 26z" />
    <glyph glyph-name="ldot" unicode="&#x140;" horiz-adv-x="325" 
d="M240 333q0 29 15 42.5t37 13.5q21 0 36 -13.5t15 -42.5t-15.5 -42.5t-35.5 -13.5q-22 0 -37 13.5t-15 42.5zM108.5 577.5q4.5 -8.5 2.5 -20.5q-12 -66 -30.5 -163t-31.5 -163l-15 -78q-2 -9 -5.5 -26.5t-3.5 -30.5q0 -9 1 -14q2 -11 8 -21t15 -10q13 0 22.5 8.5
t19.5 23.5q17 25 26.5 51.5t21.5 69.5q3 11 13 17.5t19 4.5q10 -2 16 -13.5t3 -19.5q-17 -58 -30.5 -92t-38.5 -64q-14 -18 -34 -29t-40 -8q-21 3 -37.5 14t-23.5 29q-12 24 -12 53q0 17 3 36q4 22 7 32q8 38 11 57l66 351q1 9 11.5 14t20.5 2q11 -2 15.5 -10.5z" />
    <glyph glyph-name="Lslash" unicode="&#x141;" horiz-adv-x="523" 
d="M97 0v247l-49 -28l-35 60l84 50v385h90v-332l137 81l36 -63l-173 -100v-220h312v-80h-402z" />
    <glyph glyph-name="lslash" unicode="&#x142;" horiz-adv-x="257" 
d="M166 425l64 44l37 -59l-101 -68v-342h-88v285l-51 -32l-36 59l87 56v392h88v-335z" />
    <glyph glyph-name="Nacute" unicode="&#x143;" horiz-adv-x="759" 
d="M663 676q35 -25 51 -64q11 -23 13 -40q6 -27 5 -53q0 -30 -5 -62.5t-6 -38.5q-44 -262 -65 -393q-2 -11 -12.5 -16t-20.5 -3q-8 2 -16 12q-3 6 -3 12t1 9q4 25 7 41q25 162 48 293q2 15 6 34q11 66 12 83q1 9 1 25q0 78 -29 104.5t-55 26.5q-55 -2 -100.5 -55t-85.5 -132
q-18 -124 -37 -226l-18 -97l-11 -48q-6 -32 -14 -46q-8 -18 -25 -29.5t-36 -11.5q-13 0 -27 8q-18 12 -26.5 32.5t-8.5 44.5q0 41 18 97q13 38 33 86q40 97 80 170l21 39q10 78 14 117q-19 -13 -41 -21q-43 -17 -98 -17q-44 0 -99 12q-90 18 -171 72q-13 10 -13 25q0 6 3 12
q4 5 10.5 9t13.5 4t12 -4q54 -36 116 -56.5t124 -20.5q12 0 36 2q34 3 64.5 18.5t45.5 41.5q6 9 15 14.5t16 5.5q10 0 18 -7.5t8 -17.5q0 -15 -4 -41l-4 -41l7 10q30 43 65 70q20 16 44.5 25t49.5 9q43 0 73 -23zM316 274q-33 -73 -41 -95q-18 -55 -18 -91q0 -15 3 -23.5
t7 -9.5q12 -2 19.5 12t13.5 47.5t20 118.5l13 78zM318 783q19 23 47.5 66.5t47.5 81.5h106v-10q-21 -31 -66.5 -78.5t-76.5 -71.5h-58v12z" />
    <glyph glyph-name="nacute" unicode="&#x144;" horiz-adv-x="618" 
d="M78.5 415q4.5 -5 4.5 -7l2 1q25 14 51 14q24 0 43 -12q22 -13 36.5 -35t18.5 -48q2 -18 2 -26q0 -27 -12 -83q-5 -22 -8 -37q-12 -52 -16 -74q-2 -8 -2 -19q0 -17 5.5 -28.5t17.5 -10.5q18 1 29.5 18t21.5 41q7 20 31 95q7 24 27 24q10 0 18.5 -12.5t5.5 -22.5
q-12 -40 -32 -97q-24 -61 -57 -84q-19 -13 -44 -13q-32 0 -50 21q-24 27 -24 69q0 17 3 33q9 44 16 74l8 37q4 16 7.5 34t3.5 33q0 17 -6 35q-7 17 -19 26.5t-27 9.5q-22 0 -42.5 -19.5t-28.5 -51.5q-17 -94 -53 -282q-2 -8 -10 -13.5t-17 -5.5q-13 0 -20.5 10.5t-5.5 22.5
l73 373q2 10 13 15.5t21 2.5q11 -3 15.5 -8zM250 618q19 23 47.5 66.5t47.5 81.5h106v-10q-21 -31 -66.5 -78.5t-76.5 -71.5h-58v12z" />
    <glyph glyph-name="uni0145" unicode="&#x145;" horiz-adv-x="759" 
d="M281 -209q11 25 24 70.5t17 77.5h87v-9q-8 -31 -31.5 -76.5t-48.5 -74.5h-48v12zM663 676q35 -25 51 -64q11 -23 13 -40q6 -27 5 -53q0 -30 -5 -62.5t-6 -38.5q-44 -262 -65 -393q-2 -11 -12.5 -16t-20.5 -3q-8 2 -16 12q-3 6 -3 12t1 9q4 25 7 41q25 162 48 293
q2 15 6 34q11 66 12 83q1 9 1 25q0 78 -29 104.5t-55 26.5q-55 -2 -100.5 -55t-85.5 -132q-18 -124 -37 -226l-18 -97l-11 -48q-6 -32 -14 -46q-8 -18 -25 -29.5t-36 -11.5q-13 0 -27 8q-18 12 -26.5 32.5t-8.5 44.5q0 41 18 97q13 38 33 86q40 97 80 170l21 39
q10 78 14 117q-19 -13 -41 -21q-43 -17 -98 -17q-44 0 -99 12q-90 18 -171 72q-13 10 -13 25q0 6 3 12q4 5 10.5 9t13.5 4t12 -4q54 -36 116 -56.5t124 -20.5q12 0 36 2q34 3 64.5 18.5t45.5 41.5q6 9 15 14.5t16 5.5q10 0 18 -7.5t8 -17.5q0 -15 -4 -41l-4 -41l7 10
q30 43 65 70q20 16 44.5 25t49.5 9q43 0 73 -23zM316 274q-33 -73 -41 -95q-18 -55 -18 -91q0 -15 3 -23.5t7 -9.5q12 -2 19.5 12t13.5 47.5t20 118.5l13 78z" />
    <glyph glyph-name="uni0146" unicode="&#x146;" horiz-adv-x="618" 
d="M222 -209q11 25 24 70.5t17 77.5h87v-9q-8 -31 -31.5 -76.5t-48.5 -74.5h-48v12zM78.5 415q4.5 -5 4.5 -7l2 1q25 14 51 14q24 0 43 -12q22 -13 36.5 -35t18.5 -48q2 -18 2 -26q0 -27 -12 -83q-5 -22 -8 -37q-12 -52 -16 -74q-2 -8 -2 -19q0 -17 5.5 -28.5t17.5 -10.5
q18 1 29.5 18t21.5 41q7 20 31 95q7 24 27 24q10 0 18.5 -12.5t5.5 -22.5q-12 -40 -32 -97q-24 -61 -57 -84q-19 -13 -44 -13q-32 0 -50 21q-24 27 -24 69q0 17 3 33q9 44 16 74l8 37q4 16 7.5 34t3.5 33q0 17 -6 35q-7 17 -19 26.5t-27 9.5q-22 0 -42.5 -19.5t-28.5 -51.5
q-17 -94 -53 -282q-2 -8 -10 -13.5t-17 -5.5q-13 0 -20.5 10.5t-5.5 22.5l73 373q2 10 13 15.5t21 2.5q11 -3 15.5 -8z" />
    <glyph glyph-name="Ncaron" unicode="&#x147;" horiz-adv-x="759" 
d="M211 931h60q56 -36 107 -92q62 62 109 92h62v-13q-100 -100 -125 -147h-90q-29 50 -123 147v13zM663 676q35 -25 51 -64q11 -23 13 -40q6 -27 5 -53q0 -30 -5 -62.5t-6 -38.5q-44 -262 -65 -393q-2 -11 -12.5 -16t-20.5 -3q-8 2 -16 12q-3 6 -3 12t1 9q4 25 7 41
q25 162 48 293q2 15 6 34q11 66 12 83q1 9 1 25q0 78 -29 104.5t-55 26.5q-55 -2 -100.5 -55t-85.5 -132q-18 -124 -37 -226l-18 -97l-11 -48q-6 -32 -14 -46q-8 -18 -25 -29.5t-36 -11.5q-13 0 -27 8q-18 12 -26.5 32.5t-8.5 44.5q0 41 18 97q13 38 33 86q40 97 80 170
l21 39q10 78 14 117q-19 -13 -41 -21q-43 -17 -98 -17q-44 0 -99 12q-90 18 -171 72q-13 10 -13 25q0 6 3 12q4 5 10.5 9t13.5 4t12 -4q54 -36 116 -56.5t124 -20.5q12 0 36 2q34 3 64.5 18.5t45.5 41.5q6 9 15 14.5t16 5.5q10 0 18 -7.5t8 -17.5q0 -15 -4 -41l-4 -41l7 10
q30 43 65 70q20 16 44.5 25t49.5 9q43 0 73 -23zM316 274q-33 -73 -41 -95q-18 -55 -18 -91q0 -15 3 -23.5t7 -9.5q12 -2 19.5 12t13.5 47.5t20 118.5l13 78z" />
    <glyph glyph-name="ncaron" unicode="&#x148;" horiz-adv-x="618" 
d="M144 766h60q56 -36 107 -92q62 62 109 92h62v-13q-100 -100 -125 -147h-90q-29 50 -123 147v13zM78.5 415q4.5 -5 4.5 -7l2 1q25 14 51 14q24 0 43 -12q22 -13 36.5 -35t18.5 -48q2 -18 2 -26q0 -27 -12 -83q-5 -22 -8 -37q-12 -52 -16 -74q-2 -8 -2 -19q0 -17 5.5 -28.5
t17.5 -10.5q18 1 29.5 18t21.5 41q7 20 31 95q7 24 27 24q10 0 18.5 -12.5t5.5 -22.5q-12 -40 -32 -97q-24 -61 -57 -84q-19 -13 -44 -13q-32 0 -50 21q-24 27 -24 69q0 17 3 33q9 44 16 74l8 37q4 16 7.5 34t3.5 33q0 17 -6 35q-7 17 -19 26.5t-27 9.5q-22 0 -42.5 -19.5
t-28.5 -51.5q-17 -94 -53 -282q-2 -8 -10 -13.5t-17 -5.5q-13 0 -20.5 10.5t-5.5 22.5l73 373q2 10 13 15.5t21 2.5q11 -3 15.5 -8z" />
    <glyph glyph-name="napostrophe" unicode="&#x149;" horiz-adv-x="690" 
d="M145 714l7 -11q-25 -97 -86 -234h-65q34 139 50 245h94zM149.5 415q4.5 -5 4.5 -7l2 1q25 14 51 14q24 0 43 -12q22 -13 36.5 -35t18.5 -48q2 -18 2 -26q0 -27 -12 -83q-5 -22 -8 -37q-12 -52 -16 -74q-2 -8 -2 -19q0 -17 5.5 -28.5t17.5 -10.5q18 1 29.5 18t21.5 41
q7 20 31 95q7 24 27 24q10 0 18.5 -12.5t5.5 -22.5q-12 -40 -32 -97q-24 -61 -57 -84q-19 -13 -44 -13q-32 0 -50 21q-24 27 -24 69q0 17 3 33q9 44 16 74l8 37q4 16 7.5 34t3.5 33q0 17 -6 35q-7 17 -19 26.5t-27 9.5q-22 0 -42.5 -19.5t-28.5 -51.5q-17 -94 -53 -282
q-2 -8 -10 -13.5t-17 -5.5q-13 0 -20.5 10.5t-5.5 22.5l73 373q2 10 13 15.5t21 2.5q11 -3 15.5 -8z" />
    <glyph glyph-name="Eng" unicode="&#x14a;" horiz-adv-x="759" 
d="M475 -190q-48 0 -76 13v76q35 -10 76 -10q50 0 76.5 28.5t27.5 82.5l-403 593h-4q8 -125 8 -206v-387h-83v714h104l381 -572h4q-7 75 -7 200v372h84v-708q0 -96 -48.5 -146t-139.5 -50z" />
    <glyph glyph-name="eng" unicode="&#x14b;" horiz-adv-x="618" 
d="M394 -240q-42 0 -71 12v71q29 -10 60 -10q67 0 67 84v427q0 65 -29 96.5t-90 31.5q-83 0 -120.5 -45.5t-37.5 -147.5v-279h-88v536h71l14 -73h5q25 40 69 61.5t98 21.5q99 0 147.5 -46.5t48.5 -149.5v-430q0 -75 -35 -117.5t-109 -42.5z" />
    <glyph glyph-name="Omacron" unicode="&#x14c;" horiz-adv-x="780" 
d="M242 842h297v-71h-297v71zM403.5 677q20.5 -14 27.5 -38q3 -12 3 -24q0 -40 -30.5 -72.5t-72.5 -47.5q-24 -10 -63 -15l-9 -24q-15 -50 -20 -80q-7 -53 -7 -96q0 -35 4 -63q8 -55 29 -93t45 -54t54 -16q32 0 55 13q39 16 68.5 60t55.5 137q14 44 18.5 87.5t4.5 45.5
q2 32 2 52q0 162 -89 180q-10 2 -15.5 12t-2.5 20q3 11 12 16t20 3q38 -8 66.5 -37t42.5 -68q15 -40 17 -93q1 -14 1 -42q0 -34 -2 -51q-8 -101 -39 -187q-18 -49 -39 -86.5t-51 -64.5q-27 -23 -59.5 -37t-65.5 -14q-22 0 -42 7q-43 13 -73.5 46.5t-46.5 78.5q-13 33 -20 91
q-3 32 -3 62q0 98 32 194q-30 1 -77 11q-90 18 -171 72q-13 10 -13 25q0 6 3 12q4 5 10.5 9t13.5 4t12 -4q55 -37 117.5 -57.5t125.5 -19.5q29 64 60.5 111.5t65.5 48.5q25 0 45.5 -14zM341 618q-17 -25 -29.5 -49t-16.5 -31q61 17 80 56q7 11 7 23q0 15 -11 20
q-13 6 -30 -19z" />
    <glyph glyph-name="omacron" unicode="&#x14d;" horiz-adv-x="604" 
d="M154 677h297v-71h-297v71zM135 421q26 0 49.5 -13t38 -33t17.5 -40q3 -18 3 -39q0 -62 -20.5 -132.5t-56.5 -117.5t-78 -46h-21q-46 3 -64.5 40t-18.5 90q0 28 3 50q1 17 7 51q12 59 22.5 90.5t24.5 49t40 35.5q25 15 54 15zM80 330q-11 -21 -22 -57t-15 -58
q-6 -45 -6 -91q0 -52 16 -67q9 -6 21 -6q7 0 11 1q20 7 31 19q21 22 31 39.5t25 61.5q21 80 21 121q0 71 -52 75q-40 1 -61 -38z" />
    <glyph glyph-name="Obreve" unicode="&#x14e;" horiz-adv-x="780" 
d="M387 771q-69 0 -108.5 33.5t-44.5 100.5h54q4 -35 24.5 -49t76.5 -14q49 0 73 15.5t28 47.5h55q-6 -64 -48 -99t-110 -35zM403.5 677q20.5 -14 27.5 -38q3 -12 3 -24q0 -40 -30.5 -72.5t-72.5 -47.5q-24 -10 -63 -15l-9 -24q-15 -50 -20 -80q-7 -53 -7 -96q0 -35 4 -63
q8 -55 29 -93t45 -54t54 -16q32 0 55 13q39 16 68.5 60t55.5 137q14 44 18.5 87.5t4.5 45.5q2 32 2 52q0 162 -89 180q-10 2 -15.5 12t-2.5 20q3 11 12 16t20 3q38 -8 66.5 -37t42.5 -68q15 -40 17 -93q1 -14 1 -42q0 -34 -2 -51q-8 -101 -39 -187q-18 -49 -39 -86.5
t-51 -64.5q-27 -23 -59.5 -37t-65.5 -14q-22 0 -42 7q-43 13 -73.5 46.5t-46.5 78.5q-13 33 -20 91q-3 32 -3 62q0 98 32 194q-30 1 -77 11q-90 18 -171 72q-13 10 -13 25q0 6 3 12q4 5 10.5 9t13.5 4t12 -4q55 -37 117.5 -57.5t125.5 -19.5q29 64 60.5 111.5t65.5 48.5
q25 0 45.5 -14zM341 618q-17 -25 -29.5 -49t-16.5 -31q61 17 80 56q7 11 7 23q0 15 -11 20q-13 6 -30 -19z" />
    <glyph glyph-name="obreve" unicode="&#x14f;" horiz-adv-x="604" 
d="M299 606q-69 0 -108.5 33.5t-44.5 100.5h54q4 -35 24.5 -49t76.5 -14q49 0 73 15.5t28 47.5h55q-6 -64 -48 -99t-110 -35zM135 421q26 0 49.5 -13t38 -33t17.5 -40q3 -18 3 -39q0 -62 -20.5 -132.5t-56.5 -117.5t-78 -46h-21q-46 3 -64.5 40t-18.5 90q0 28 3 50
q1 17 7 51q12 59 22.5 90.5t24.5 49t40 35.5q25 15 54 15zM80 330q-11 -21 -22 -57t-15 -58q-6 -45 -6 -91q0 -52 16 -67q9 -6 21 -6q7 0 11 1q20 7 31 19q21 22 31 39.5t25 61.5q21 80 21 121q0 71 -52 75q-40 1 -61 -38z" />
    <glyph glyph-name="Ohungarumlaut" unicode="&#x150;" horiz-adv-x="780" 
d="M246 783q17 22 42.5 65.5t44.5 82.5h96v-10q-16 -27 -58.5 -75t-74.5 -75h-50v12zM422 783q23 32 49 76.5t38 71.5h96v-10q-16 -27 -58.5 -75t-74.5 -75h-50v12zM403.5 677q20.5 -14 27.5 -38q3 -12 3 -24q0 -40 -30.5 -72.5t-72.5 -47.5q-24 -10 -63 -15l-9 -24
q-15 -50 -20 -80q-7 -53 -7 -96q0 -35 4 -63q8 -55 29 -93t45 -54t54 -16q32 0 55 13q39 16 68.5 60t55.5 137q14 44 18.5 87.5t4.5 45.5q2 32 2 52q0 162 -89 180q-10 2 -15.5 12t-2.5 20q3 11 12 16t20 3q38 -8 66.5 -37t42.5 -68q15 -40 17 -93q1 -14 1 -42q0 -34 -2 -51
q-8 -101 -39 -187q-18 -49 -39 -86.5t-51 -64.5q-27 -23 -59.5 -37t-65.5 -14q-22 0 -42 7q-43 13 -73.5 46.5t-46.5 78.5q-13 33 -20 91q-3 32 -3 62q0 98 32 194q-30 1 -77 11q-90 18 -171 72q-13 10 -13 25q0 6 3 12q4 5 10.5 9t13.5 4t12 -4q55 -37 117.5 -57.5
t125.5 -19.5q29 64 60.5 111.5t65.5 48.5q25 0 45.5 -14zM341 618q-17 -25 -29.5 -49t-16.5 -31q61 17 80 56q7 11 7 23q0 15 -11 20q-13 6 -30 -19z" />
    <glyph glyph-name="ohungarumlaut" unicode="&#x151;" horiz-adv-x="604" 
d="M154 618q17 22 42.5 65.5t44.5 82.5h96v-10q-16 -27 -58.5 -75t-74.5 -75h-50v12zM330 618q23 32 49 76.5t38 71.5h96v-10q-16 -27 -58.5 -75t-74.5 -75h-50v12zM135 421q26 0 49.5 -13t38 -33t17.5 -40q3 -18 3 -39q0 -62 -20.5 -132.5t-56.5 -117.5t-78 -46h-21
q-46 3 -64.5 40t-18.5 90q0 28 3 50q1 17 7 51q12 59 22.5 90.5t24.5 49t40 35.5q25 15 54 15zM80 330q-11 -21 -22 -57t-15 -58q-6 -45 -6 -91q0 -52 16 -67q9 -6 21 -6q7 0 11 1q20 7 31 19q21 22 31 39.5t25 61.5q21 80 21 121q0 71 -52 75q-40 1 -61 -38z" />
    <glyph glyph-name="OE" unicode="&#x152;" horiz-adv-x="928" 
d="M868 0h-380q-50 -10 -97 -10q-159 0 -244.5 96.5t-85.5 272.5q0 175 84 270.5t241 95.5q52 0 96 -11h386v-79h-287v-223h268v-78h-268v-255h287v-79zM394 646q-118 0 -178.5 -73.5t-60.5 -214.5t60.5 -215.5t177.5 -74.5q57 0 99 17v545q-41 16 -98 16z" />
    <glyph glyph-name="oe" unicode="&#x153;" horiz-adv-x="945" 
d="M699 -10q-142 0 -204 111q-31 -55 -82 -83t-117 -28q-110 0 -176 75.5t-66 203.5q0 130 64.5 203t180.5 73q63 0 113 -28t80 -82q29 53 76 81.5t109 28.5q100 0 158.5 -64.5t58.5 -176.5v-53h-356q4 -186 162 -186q44 0 81.5 7.5t88.5 29.5v-77q-45 -20 -83 -27.5
t-88 -7.5zM146 269q0 -102 35.5 -154t115.5 -52q78 0 114 51t36 151q0 104 -36.5 155.5t-115.5 51.5t-114 -51.5t-35 -151.5zM676 473q-60 0 -95 -38.5t-41 -113.5h261q0 74 -31.5 113t-93.5 39z" />
    <glyph glyph-name="Racute" unicode="&#x154;" horiz-adv-x="622" 
d="M475 679q46 -18 77 -54q26 -31 39.5 -69.5t13.5 -78.5q0 -65 -25 -121q-20 -42 -49 -67q-20 -19 -48 -28q19 -28 29 -56q7 -21 11.5 -46.5t7.5 -49.5q1 -17 9 -56.5t24.5 -76.5t40.5 -44l21 -6q9 -1 14 -9t5 -17q0 -14 -10 -20.5t-23 -4.5q-44 8 -72 44.5t-40 86.5
q-11 48 -22 109l-5 27q-2 14 -17 60q-8 25 -20 37l-13 13q-20 1 -41 8t-28 21q-4 10 -3 21q2 10 10 17.5t18 10.5q5 2 13 2q13 0 24 -6t24 -18q3 -3 9 -3q9 0 16 5q18 8 37 29.5t41 73.5q9 31 9 64q0 23 -3.5 39t-6.5 22q-25 59 -62.5 82t-86.5 23q-66 0 -112 -21t-69 -52
t-23 -62q-1 -11 -8.5 -18.5t-18.5 -7.5t-19 8t-7 18v2q2 44 26 82t63 63q36 24 84 34q35 8 69 8q51 0 97 -18zM369.5 588.5q6.5 -10.5 4.5 -23.5l-52 -283l-17 -94q-9 -48 -22 -76q-19 -47 -48 -72q-34 -29 -72 -36q-17 -4 -39 -4q-31 0 -61 11t-53 32q-29 27 -45 65t-15 78
q0 44 21 81q22 42 58 59q28 13 53 13q9 0 29 -4q20 -5 36.5 -17.5t26.5 -30.5q3 -6 3 -14q0 -16 -13 -22q-6 -3 -12 -3q-15 0 -30 22q-21 14 -41 14q-21 0 -36.5 -12t-22.5 -22q-23 -32 -23 -69q0 -33 17.5 -63.5t46 -49t60.5 -18.5q28 0 53 14q16 7 38.5 33.5t37.5 95.5
l35 190l36 196q1 9 8.5 14.5t17.5 5.5q14 0 20.5 -10.5zM249 783q19 23 47.5 66.5t47.5 81.5h106v-10q-21 -31 -66.5 -78.5t-76.5 -71.5h-58v12z" />
    <glyph glyph-name="racute" unicode="&#x155;" horiz-adv-x="413" 
d="M117 383q13 -8 27 -8q6 0 9 1q15 3 26 -7t7 -25l-34 -139q-13 -56 -16 -68q-8 -26 -8 -41q0 -8 3 -17q3 -10 10 -15.5t16 -3.5q24 6 36.5 35t24.5 82l11 44q6 21 23 21q10 0 18.5 -9.5t8.5 -21.5q0 -5 -1 -8l-9 -31q-9 -31 -19.5 -64.5t-20.5 -55.5q-9 -19 -30 -31
t-45 -12q-34 0 -55 24q-20 24 -20 60q0 21 5 44t6 27l6 24q10 49 27 115q1 9 5 22q-24 5 -43 19l-43 -141q-6 -18 -23 -18q-11 0 -19 7.5t-8 19.5q0 6 1 9q18 66 36 120l20 64q3 8 9.5 12.5t13.5 4.5q9 0 16 -4.5t11 -12.5q5 -14 18 -22zM174 618q19 23 47.5 66.5t47.5 81.5
h106v-10q-21 -31 -66.5 -78.5t-76.5 -71.5h-58v12z" />
    <glyph glyph-name="uni0156" unicode="&#x156;" horiz-adv-x="622" 
d="M242 -209q11 25 24 70.5t17 77.5h87v-9q-8 -31 -31.5 -76.5t-48.5 -74.5h-48v12zM475 679q46 -18 77 -54q26 -31 39.5 -69.5t13.5 -78.5q0 -65 -25 -121q-20 -42 -49 -67q-20 -19 -48 -28q19 -28 29 -56q7 -21 11.5 -46.5t7.5 -49.5q1 -17 9 -56.5t24.5 -76.5t40.5 -44
l21 -6q9 -1 14 -9t5 -17q0 -14 -10 -20.5t-23 -4.5q-44 8 -72 44.5t-40 86.5q-11 48 -22 109l-5 27q-2 14 -17 60q-8 25 -20 37l-13 13q-20 1 -41 8t-28 21q-4 10 -3 21q2 10 10 17.5t18 10.5q5 2 13 2q13 0 24 -6t24 -18q3 -3 9 -3q9 0 16 5q18 8 37 29.5t41 73.5
q9 31 9 64q0 23 -3.5 39t-6.5 22q-25 59 -62.5 82t-86.5 23q-66 0 -112 -21t-69 -52t-23 -62q-1 -11 -8.5 -18.5t-18.5 -7.5t-19 8t-7 18v2q2 44 26 82t63 63q36 24 84 34q35 8 69 8q51 0 97 -18zM369.5 588.5q6.5 -10.5 4.5 -23.5l-52 -283l-17 -94q-9 -48 -22 -76
q-19 -47 -48 -72q-34 -29 -72 -36q-17 -4 -39 -4q-31 0 -61 11t-53 32q-29 27 -45 65t-15 78q0 44 21 81q22 42 58 59q28 13 53 13q9 0 29 -4q20 -5 36.5 -17.5t26.5 -30.5q3 -6 3 -14q0 -16 -13 -22q-6 -3 -12 -3q-15 0 -30 22q-21 14 -41 14q-21 0 -36.5 -12t-22.5 -22
q-23 -32 -23 -69q0 -33 17.5 -63.5t46 -49t60.5 -18.5q28 0 53 14q16 7 38.5 33.5t37.5 95.5l35 190l36 196q1 9 8.5 14.5t17.5 5.5q14 0 20.5 -10.5z" />
    <glyph glyph-name="uni0157" unicode="&#x157;" horiz-adv-x="413" 
d="M48 -209q11 25 24 70.5t17 77.5h87v-9q-8 -31 -31.5 -76.5t-48.5 -74.5h-48v12zM117 383q13 -8 27 -8q6 0 9 1q15 3 26 -7t7 -25l-34 -139q-13 -56 -16 -68q-8 -26 -8 -41q0 -8 3 -17q3 -10 10 -15.5t16 -3.5q24 6 36.5 35t24.5 82l11 44q6 21 23 21q10 0 18.5 -9.5
t8.5 -21.5q0 -5 -1 -8l-9 -31q-9 -31 -19.5 -64.5t-20.5 -55.5q-9 -19 -30 -31t-45 -12q-34 0 -55 24q-20 24 -20 60q0 21 5 44t6 27l6 24q10 49 27 115q1 9 5 22q-24 5 -43 19l-43 -141q-6 -18 -23 -18q-11 0 -19 7.5t-8 19.5q0 6 1 9q18 66 36 120l20 64q3 8 9.5 12.5
t13.5 4.5q9 0 16 -4.5t11 -12.5q5 -14 18 -22z" />
    <glyph glyph-name="Rcaron" unicode="&#x158;" horiz-adv-x="622" 
d="M141 931h60q56 -36 107 -92q62 62 109 92h62v-13q-100 -100 -125 -147h-90q-29 50 -123 147v13zM475 679q46 -18 77 -54q26 -31 39.5 -69.5t13.5 -78.5q0 -65 -25 -121q-20 -42 -49 -67q-20 -19 -48 -28q19 -28 29 -56q7 -21 11.5 -46.5t7.5 -49.5q1 -17 9 -56.5
t24.5 -76.5t40.5 -44l21 -6q9 -1 14 -9t5 -17q0 -14 -10 -20.5t-23 -4.5q-44 8 -72 44.5t-40 86.5q-11 48 -22 109l-5 27q-2 14 -17 60q-8 25 -20 37l-13 13q-20 1 -41 8t-28 21q-4 10 -3 21q2 10 10 17.5t18 10.5q5 2 13 2q13 0 24 -6t24 -18q3 -3 9 -3q9 0 16 5
q18 8 37 29.5t41 73.5q9 31 9 64q0 23 -3.5 39t-6.5 22q-25 59 -62.5 82t-86.5 23q-66 0 -112 -21t-69 -52t-23 -62q-1 -11 -8.5 -18.5t-18.5 -7.5t-19 8t-7 18v2q2 44 26 82t63 63q36 24 84 34q35 8 69 8q51 0 97 -18zM369.5 588.5q6.5 -10.5 4.5 -23.5l-52 -283l-17 -94
q-9 -48 -22 -76q-19 -47 -48 -72q-34 -29 -72 -36q-17 -4 -39 -4q-31 0 -61 11t-53 32q-29 27 -45 65t-15 78q0 44 21 81q22 42 58 59q28 13 53 13q9 0 29 -4q20 -5 36.5 -17.5t26.5 -30.5q3 -6 3 -14q0 -16 -13 -22q-6 -3 -12 -3q-15 0 -30 22q-21 14 -41 14
q-21 0 -36.5 -12t-22.5 -22q-23 -32 -23 -69q0 -33 17.5 -63.5t46 -49t60.5 -18.5q28 0 53 14q16 7 38.5 33.5t37.5 95.5l35 190l36 196q1 9 8.5 14.5t17.5 5.5q14 0 20.5 -10.5z" />
    <glyph glyph-name="rcaron" unicode="&#x159;" horiz-adv-x="413" 
d="M62 766h60q56 -36 107 -92q62 62 109 92h62v-13q-100 -100 -125 -147h-90q-29 50 -123 147v13zM117 383q13 -8 27 -8q6 0 9 1q15 3 26 -7t7 -25l-34 -139q-13 -56 -16 -68q-8 -26 -8 -41q0 -8 3 -17q3 -10 10 -15.5t16 -3.5q24 6 36.5 35t24.5 82l11 44q6 21 23 21
q10 0 18.5 -9.5t8.5 -21.5q0 -5 -1 -8l-9 -31q-9 -31 -19.5 -64.5t-20.5 -55.5q-9 -19 -30 -31t-45 -12q-34 0 -55 24q-20 24 -20 60q0 21 5 44t6 27l6 24q10 49 27 115q1 9 5 22q-24 5 -43 19l-43 -141q-6 -18 -23 -18q-11 0 -19 7.5t-8 19.5q0 6 1 9q18 66 36 120l20 64
q3 8 9.5 12.5t13.5 4.5q9 0 16 -4.5t11 -12.5q5 -14 18 -22z" />
    <glyph glyph-name="Sacute" unicode="&#x15a;" horiz-adv-x="548" 
d="M403.5 674q20.5 -14 27.5 -38q3 -12 3 -24q0 -37 -27.5 -68.5t-66.5 -47.5l2 -5q15 -36 56 -87l20 -27q75 -103 75 -189q0 -44 -18 -80q-23 -48 -68 -78t-98 -30q-55 0 -103 28.5t-70 77.5q-19 43 -19 87q0 69 45 114q34 36 81 36q31 0 55 -16t35 -44q4 -10 -2.5 -20.5
t-16.5 -12.5q-11 -4 -20 2t-13 17t-18 16.5t-26 3.5q-15 -1 -28 -11.5t-21 -24.5q-17 -28 -17 -64q0 -41 21 -74q18 -29 49.5 -45t65.5 -16q27 0 50 10q38 15 60 50.5t22 76.5q0 17 -2 26q-8 39 -27 71.5t-54 79.5q-21 27 -38 53q-22 35 -30 59q-30 -5 -56 -5q-45 0 -98 12
q-90 18 -171 72q-13 10 -13 25q0 6 3 12q4 5 10.5 9t13.5 4t12 -4q54 -36 116 -56.5t124 -20.5q12 0 36 2l11 1v2q-1 7 -1 22q0 51 22 91.5t61 41.5q25 0 45.5 -14zM362 636q-16 0 -24.5 -27.5t-8.5 -60.5q32 17 46 43q7 11 7 23q0 15 -11 20q-6 2 -9 2zM227 783
q19 23 47.5 66.5t47.5 81.5h106v-10q-21 -31 -66.5 -78.5t-76.5 -71.5h-58v12z" />
    <glyph glyph-name="sacute" unicode="&#x15b;" horiz-adv-x="479" 
d="M64 427q11 0 19 -6.5t8 -17.5q0 -33 12.5 -63t35.5 -70l18 -33q28 -62 28 -107q0 -35 -18 -67q-19 -32 -48 -48t-63 -16q-45 0 -83.5 27.5t-53.5 74.5q-1 3 -1 9q0 11 8 17.5t18 6.5q18 0 26 -18q13 -31 37.5 -48t50.5 -17q30 0 52 22t22 61q0 28 -11 53.5t-32 62.5
q-7 11 -24 45q-15 -70 -27 -105q-7 -20 -26 -20q-10 0 -17.5 7t-7.5 18q0 6 1 9q12 41 25.5 97t18.5 75l7 32q6 19 25 19zM306 238q11 0 19 -6.5t8 -17.5q0 -5 -1 -8q-22 -70 -28 -88q-13 -38 -26 -61q-12 -23 -34.5 -39.5t-45.5 -16.5q-12 0 -21 4q-8 3 -13.5 10t-5.5 15
q0 15 11.5 21.5t22.5 3.5q27 -6 43.5 28t37.5 105l9 33q6 17 24 17zM181 618q19 23 47.5 66.5t47.5 81.5h106v-10q-21 -31 -66.5 -78.5t-76.5 -71.5h-58v12z" />
    <glyph glyph-name="Scircumflex" unicode="&#x15c;" horiz-adv-x="548" 
d="M116 782q61 65 86 96.5t37 52.5h90q25 -49 125 -149v-11h-62q-44 26 -109 90q-64 -62 -107 -90h-60v11zM403.5 674q20.5 -14 27.5 -38q3 -12 3 -24q0 -37 -27.5 -68.5t-66.5 -47.5l2 -5q15 -36 56 -87l20 -27q75 -103 75 -189q0 -44 -18 -80q-23 -48 -68 -78t-98 -30
q-55 0 -103 28.5t-70 77.5q-19 43 -19 87q0 69 45 114q34 36 81 36q31 0 55 -16t35 -44q4 -10 -2.5 -20.5t-16.5 -12.5q-11 -4 -20 2t-13 17t-18 16.5t-26 3.5q-15 -1 -28 -11.5t-21 -24.5q-17 -28 -17 -64q0 -41 21 -74q18 -29 49.5 -45t65.5 -16q27 0 50 10q38 15 60 50.5
t22 76.5q0 17 -2 26q-8 39 -27 71.5t-54 79.5q-21 27 -38 53q-22 35 -30 59q-30 -5 -56 -5q-45 0 -98 12q-90 18 -171 72q-13 10 -13 25q0 6 3 12q4 5 10.5 9t13.5 4t12 -4q54 -36 116 -56.5t124 -20.5q12 0 36 2l11 1v2q-1 7 -1 22q0 51 22 91.5t61 41.5q25 0 45.5 -14z
M362 636q-16 0 -24.5 -27.5t-8.5 -60.5q32 17 46 43q7 11 7 23q0 15 -11 20q-6 2 -9 2z" />
    <glyph glyph-name="scircumflex" unicode="&#x15d;" horiz-adv-x="479" 
d="M77 617q61 65 86 96.5t37 52.5h90q25 -49 125 -149v-11h-62q-44 26 -109 90q-64 -62 -107 -90h-60v11zM64 427q11 0 19 -6.5t8 -17.5q0 -33 12.5 -63t35.5 -70l18 -33q28 -62 28 -107q0 -35 -18 -67q-19 -32 -48 -48t-63 -16q-45 0 -83.5 27.5t-53.5 74.5q-1 3 -1 9
q0 11 8 17.5t18 6.5q18 0 26 -18q13 -31 37.5 -48t50.5 -17q30 0 52 22t22 61q0 28 -11 53.5t-32 62.5q-7 11 -24 45q-15 -70 -27 -105q-7 -20 -26 -20q-10 0 -17.5 7t-7.5 18q0 6 1 9q12 41 25.5 97t18.5 75l7 32q6 19 25 19zM306 238q11 0 19 -6.5t8 -17.5q0 -5 -1 -8
q-22 -70 -28 -88q-13 -38 -26 -61q-12 -23 -34.5 -39.5t-45.5 -16.5q-12 0 -21 4q-8 3 -13.5 10t-5.5 15q0 15 11.5 21.5t22.5 3.5q27 -6 43.5 28t37.5 105l9 33q6 17 24 17z" />
    <glyph glyph-name="Scedilla" unicode="&#x15e;" horiz-adv-x="548" 
d="M403.5 674q20.5 -14 27.5 -38q3 -12 3 -24q0 -37 -27.5 -68.5t-66.5 -47.5l2 -5q15 -36 56 -87l20 -27q75 -103 75 -189q0 -44 -18 -80q-23 -48 -68 -78t-98 -30q-55 0 -103 28.5t-70 77.5q-19 43 -19 87q0 69 45 114q34 36 81 36q31 0 55 -16t35 -44q4 -10 -2.5 -20.5
t-16.5 -12.5q-11 -4 -20 2t-13 17t-18 16.5t-26 3.5q-15 -1 -28 -11.5t-21 -24.5q-17 -28 -17 -64q0 -41 21 -74q18 -29 49.5 -45t65.5 -16q27 0 50 10q38 15 60 50.5t22 76.5q0 17 -2 26q-8 39 -27 71.5t-54 79.5q-21 27 -38 53q-22 35 -30 59q-30 -5 -56 -5q-45 0 -98 12
q-90 18 -171 72q-13 10 -13 25q0 6 3 12q4 5 10.5 9t13.5 4t12 -4q54 -36 116 -56.5t124 -20.5q12 0 36 2l11 1v2q-1 7 -1 22q0 51 22 91.5t61 41.5q25 0 45.5 -14zM362 636q-16 0 -24.5 -27.5t-8.5 -60.5q32 17 46 43q7 11 7 23q0 15 -11 20q-6 2 -9 2zM358 -139
q0 -48 -37 -74.5t-111 -26.5q-32 0 -50 5v55q18 -5 53 -5q37 0 55.5 9.5t18.5 34.5q0 43 -91 55l43 86h58l-26 -53q87 -19 87 -86z" />
    <glyph glyph-name="scedilla" unicode="&#x15f;" horiz-adv-x="479" 
d="M64 427q11 0 19 -6.5t8 -17.5q0 -33 12.5 -63t35.5 -70l18 -33q28 -62 28 -107q0 -35 -18 -67q-19 -32 -48 -48t-63 -16q-45 0 -83.5 27.5t-53.5 74.5q-1 3 -1 9q0 11 8 17.5t18 6.5q18 0 26 -18q13 -31 37.5 -48t50.5 -17q30 0 52 22t22 61q0 28 -11 53.5t-32 62.5
q-7 11 -24 45q-15 -70 -27 -105q-7 -20 -26 -20q-10 0 -17.5 7t-7.5 18q0 6 1 9q12 41 25.5 97t18.5 75l7 32q6 19 25 19zM306 238q11 0 19 -6.5t8 -17.5q0 -5 -1 -8q-22 -70 -28 -88q-13 -38 -26 -61q-12 -23 -34.5 -39.5t-45.5 -16.5q-12 0 -21 4q-8 3 -13.5 10t-5.5 15
q0 15 11.5 21.5t22.5 3.5q27 -6 43.5 28t37.5 105l9 33q6 17 24 17zM320 -139q0 -48 -37 -74.5t-111 -26.5q-32 0 -50 5v55q18 -5 53 -5q37 0 55.5 9.5t18.5 34.5q0 43 -91 55l43 86h58l-26 -53q87 -19 87 -86z" />
    <glyph glyph-name="Scaron" unicode="&#x160;" horiz-adv-x="548" 
d="M114 931h60q56 -36 107 -92q62 62 109 92h62v-13q-100 -100 -125 -147h-90q-29 50 -123 147v13zM403.5 674q20.5 -14 27.5 -38q3 -12 3 -24q0 -37 -27.5 -68.5t-66.5 -47.5l2 -5q15 -36 56 -87l20 -27q75 -103 75 -189q0 -44 -18 -80q-23 -48 -68 -78t-98 -30
q-55 0 -103 28.5t-70 77.5q-19 43 -19 87q0 69 45 114q34 36 81 36q31 0 55 -16t35 -44q4 -10 -2.5 -20.5t-16.5 -12.5q-11 -4 -20 2t-13 17t-18 16.5t-26 3.5q-15 -1 -28 -11.5t-21 -24.5q-17 -28 -17 -64q0 -41 21 -74q18 -29 49.5 -45t65.5 -16q27 0 50 10q38 15 60 50.5
t22 76.5q0 17 -2 26q-8 39 -27 71.5t-54 79.5q-21 27 -38 53q-22 35 -30 59q-30 -5 -56 -5q-45 0 -98 12q-90 18 -171 72q-13 10 -13 25q0 6 3 12q4 5 10.5 9t13.5 4t12 -4q54 -36 116 -56.5t124 -20.5q12 0 36 2l11 1v2q-1 7 -1 22q0 51 22 91.5t61 41.5q25 0 45.5 -14z
M362 636q-16 0 -24.5 -27.5t-8.5 -60.5q32 17 46 43q7 11 7 23q0 15 -11 20q-6 2 -9 2z" />
    <glyph glyph-name="scaron" unicode="&#x161;" horiz-adv-x="479" 
d="M83 766h60q56 -36 107 -92q62 62 109 92h62v-13q-100 -100 -125 -147h-90q-29 50 -123 147v13zM64 427q11 0 19 -6.5t8 -17.5q0 -33 12.5 -63t35.5 -70l18 -33q28 -62 28 -107q0 -35 -18 -67q-19 -32 -48 -48t-63 -16q-45 0 -83.5 27.5t-53.5 74.5q-1 3 -1 9q0 11 8 17.5
t18 6.5q18 0 26 -18q13 -31 37.5 -48t50.5 -17q30 0 52 22t22 61q0 28 -11 53.5t-32 62.5q-7 11 -24 45q-15 -70 -27 -105q-7 -20 -26 -20q-10 0 -17.5 7t-7.5 18q0 6 1 9q12 41 25.5 97t18.5 75l7 32q6 19 25 19zM306 238q11 0 19 -6.5t8 -17.5q0 -5 -1 -8q-22 -70 -28 -88
q-13 -38 -26 -61q-12 -23 -34.5 -39.5t-45.5 -16.5q-12 0 -21 4q-8 3 -13.5 10t-5.5 15q0 15 11.5 21.5t22.5 3.5q27 -6 43.5 28t37.5 105l9 33q6 17 24 17z" />
    <glyph glyph-name="uni0162" unicode="&#x162;" horiz-adv-x="556" 
d="M509 695q47 0 75 -20q26 -18 31 -42q1 -5 1 -14q0 -21 -11 -36q-18 -23 -44 -30q-20 -5 -50 -5q-50 1 -120 10l-40 -214l-11 -62l-17 -94q-9 -48 -22 -76q-19 -47 -48 -72q-34 -29 -72 -36q-17 -4 -39 -4q-31 0 -61 11t-53 32q-29 27 -45 65t-15 78q0 44 21 81
q22 42 58 59q28 13 53 13q9 0 29 -4q20 -5 36.5 -17.5t26.5 -30.5q3 -6 3 -14q0 -16 -13 -22q-6 -3 -12 -3q-15 0 -30 22q-21 14 -41 14q-21 0 -36.5 -12t-22.5 -22q-23 -32 -23 -69q0 -33 17.5 -63.5t46 -49t60.5 -18.5q28 0 53 14q16 7 38.5 33.5t37.5 95.5l18 98l10 53
l7 39l34 185l-22 4q-43 10 -92 26l-28 9q-29 10 -49 15.5t-41 5.5q-41 0 -75 -27q-30 -25 -30 -54q0 -32 35 -67q8 -8 25.5 -16t42.5 -8q31 0 71 17q12 4 23 -5t11 -22q0 -15 -20 -24q-40 -17 -83 -17q-27 0 -49 7q-31 8 -56 28t-38 49q-14 32 -14 59q0 56 53 97
q40 31 103 31q39 0 78 -11q36 -10 54 -16l38 -12q25 -7 77 -19q12 23 33.5 40t48.5 26q35 11 74 11zM502 644q-25 0 -49 -8.5t-39 -23.5l-3 -3q29 -4 47 -5q24 -2 53 -2q34 0 45 6q12 6 5 17q-19 19 -59 19zM371 -139q0 -48 -37 -74.5t-111 -26.5q-32 0 -50 5v55
q18 -5 53 -5q37 0 55.5 9.5t18.5 34.5q0 43 -91 55l43 86h58l-26 -53q87 -19 87 -86z" />
    <glyph glyph-name="uni0163" unicode="&#x163;" horiz-adv-x="360" 
d="M108.5 577.5q4.5 -8.5 2.5 -20.5l-8 -46h36q11 0 17.5 -7.5t6.5 -17.5t-6.5 -17.5t-17.5 -7.5h-46q-18 -102 -38 -200q-4 -16 -6 -30l-15 -78q-2 -9 -5.5 -26.5t-3.5 -30.5q0 -9 1 -14q2 -11 8 -21t15 -10q13 0 22.5 8.5t19.5 23.5q17 25 26.5 51.5t21.5 69.5
q3 11 13 17.5t19 4.5q11 -2 16.5 -12.5t2.5 -20.5q-20 -64 -32.5 -95t-36.5 -61q-14 -18 -34 -29t-40 -8q-21 3 -37.5 14t-23.5 29q-12 24 -12 53q0 17 3 36q4 22 7 32q8 38 11 57l45 240h-46q-11 0 -17.5 7.5t-6.5 17.5t6.5 17.5t17.5 7.5h56l11 61q1 9 11.5 14t20.5 2
q11 -2 15.5 -10.5zM312 -139q0 -48 -37 -74.5t-111 -26.5q-32 0 -50 5v55q18 -5 53 -5q37 0 55.5 9.5t18.5 34.5q0 43 -91 55l43 86h58l-26 -53q87 -19 87 -86z" />
    <glyph glyph-name="Tcaron" unicode="&#x164;" horiz-adv-x="556" 
d="M110 931h60q56 -36 107 -92q62 62 109 92h62v-13q-100 -100 -125 -147h-90q-29 50 -123 147v13zM509 695q47 0 75 -20q26 -18 31 -42q1 -5 1 -14q0 -21 -11 -36q-18 -23 -44 -30q-20 -5 -50 -5q-50 1 -120 10l-40 -214l-11 -62l-17 -94q-9 -48 -22 -76q-19 -47 -48 -72
q-34 -29 -72 -36q-17 -4 -39 -4q-31 0 -61 11t-53 32q-29 27 -45 65t-15 78q0 44 21 81q22 42 58 59q28 13 53 13q9 0 29 -4q20 -5 36.5 -17.5t26.5 -30.5q3 -6 3 -14q0 -16 -13 -22q-6 -3 -12 -3q-15 0 -30 22q-21 14 -41 14q-21 0 -36.5 -12t-22.5 -22q-23 -32 -23 -69
q0 -33 17.5 -63.5t46 -49t60.5 -18.5q28 0 53 14q16 7 38.5 33.5t37.5 95.5l18 98l10 53l7 39l34 185l-22 4q-43 10 -92 26l-28 9q-29 10 -49 15.5t-41 5.5q-41 0 -75 -27q-30 -25 -30 -54q0 -32 35 -67q8 -8 25.5 -16t42.5 -8q31 0 71 17q12 4 23 -5t11 -22q0 -15 -20 -24
q-40 -17 -83 -17q-27 0 -49 7q-31 8 -56 28t-38 49q-14 32 -14 59q0 56 53 97q40 31 103 31q39 0 78 -11q36 -10 54 -16l38 -12q25 -7 77 -19q12 23 33.5 40t48.5 26q35 11 74 11zM502 644q-25 0 -49 -8.5t-39 -23.5l-3 -3q29 -4 47 -5q24 -2 53 -2q34 0 45 6q12 6 5 17
q-19 19 -59 19z" />
    <glyph glyph-name="tcaron" unicode="&#x165;" horiz-adv-x="360" 
d="M246 612q11 32 20.5 77.5t12.5 70.5h87v-9q-6 -26 -27 -71t-45 -80h-48v12zM108.5 577.5q4.5 -8.5 2.5 -20.5l-8 -46h36q11 0 17.5 -7.5t6.5 -17.5t-6.5 -17.5t-17.5 -7.5h-46q-18 -102 -38 -200q-4 -16 -6 -30l-15 -78q-2 -9 -5.5 -26.5t-3.5 -30.5q0 -9 1 -14
q2 -11 8 -21t15 -10q13 0 22.5 8.5t19.5 23.5q17 25 26.5 51.5t21.5 69.5q3 11 13 17.5t19 4.5q11 -2 16.5 -12.5t2.5 -20.5q-20 -64 -32.5 -95t-36.5 -61q-14 -18 -34 -29t-40 -8q-21 3 -37.5 14t-23.5 29q-12 24 -12 53q0 17 3 36q4 22 7 32q8 38 11 57l45 240h-46
q-11 0 -17.5 7.5t-6.5 17.5t6.5 17.5t17.5 7.5h56l11 61q1 9 11.5 14t20.5 2q11 -2 15.5 -10.5z" />
    <glyph glyph-name="Tbar" unicode="&#x166;" horiz-adv-x="556" 
d="M232 399v235h-222v80h535v-80h-223v-235h148v-74h-148v-325h-90v325h-149v74h149z" />
    <glyph glyph-name="tbar" unicode="&#x167;" horiz-adv-x="360" 
d="M266 62q42 0 73 11v-67q-13 -6 -39 -11t-54 -5q-154 0 -154 171v119h-68v66h68v122h-76v42l77 35l35 114h52v-123h155v-68h-155v-122h146v-66h-146v-114q0 -52 21 -78t65 -26z" />
    <glyph glyph-name="Utilde" unicode="&#x168;" horiz-adv-x="730" 
d="M440 772q-21 0 -41 9t-39.5 19.5t-37 19.5t-34.5 9q-24 0 -36 -14.5t-19 -43.5h-51q6 60 34 94t76 34q22 0 42.5 -9t39.5 -19.5t37 -19.5t33 -9q23 0 35.5 14.5t19.5 43.5h50q-6 -58 -34 -93t-75 -35zM402.5 692q20.5 -14 27.5 -38q3 -12 3 -24q0 -40 -30.5 -72.5
t-72.5 -47.5q-13 -5 -23 -8q-6 -32 -16 -98l-12 -91l-10 -96q-5 -47 -5 -74q0 -91 55 -91q5 0 17 2q54 13 87 68.5t60.5 163.5t78.5 357q2 10 12 14.5t20 1.5q11 -2 15.5 -10.5t2.5 -20.5q-11 -66 -93 -475q-2 -9 -5.5 -26.5t-3.5 -30.5q0 -9 1 -14q2 -11 8 -21t15 -10
q13 0 22.5 8.5t19.5 23.5q27 41 54 138q4 15 21 15q5 0 8 -1q11 -2 17 -10t4 -16q-18 -61 -34 -101.5t-40 -70.5q-14 -18 -34 -29t-40 -8q-21 3 -37.5 14t-23.5 29q-9 17 -11 39q-37 -52 -85 -71q-24 -11 -50 -11q-18 0 -36 6q-22 8 -39.5 23.5t-26.5 36.5q-13 29 -13 69
q0 39 7 93l3 32q18 156 32 233q-56 -3 -119 12q-90 18 -171 72q-13 10 -13 25q0 6 3 12q4 5 10.5 9t13.5 4t12 -4q54 -37 116.5 -57.5t125.5 -20.5q11 0 33 2q9 49 17.5 79.5t27 54.5t49.5 25q25 0 45.5 -14zM359 655q-17 0 -24 -22.5t-15 -70.5q39 18 54 47q7 11 7 23
q0 15 -11 20q-6 3 -11 3z" />
    <glyph glyph-name="utilde" unicode="&#x169;" horiz-adv-x="618" 
d="M383 607q-21 0 -41 9t-39.5 19.5t-37 19.5t-34.5 9q-24 0 -36 -14.5t-19 -43.5h-51q6 60 34 94t76 34q22 0 42.5 -9t39.5 -19.5t37 -19.5t33 -9q23 0 35.5 14.5t19.5 43.5h50q-6 -58 -34 -93t-75 -35zM261.5 411.5q4.5 -8.5 2.5 -20.5q-6 -37 -26 -137l-5 -23l-15 -78
q-2 -9 -5.5 -26.5t-3.5 -30.5q0 -9 1 -14q2 -11 8 -21t15 -10q13 0 22.5 8.5t19.5 23.5q17 25 26.5 51.5t21.5 69.5q3 11 13 17.5t19 4.5q11 -2 16.5 -12.5t2.5 -20.5q-20 -64 -32.5 -95t-36.5 -61q-14 -18 -34 -29t-40 -8q-21 3 -37.5 14t-23.5 29l-1 2q-39 -45 -94 -45
q-23 0 -39 5q-31 8 -47 34.5t-16 62.5q0 15 3 30l18 89l35 185q2 10 12 14.5t20 1.5q11 -2 15.5 -10.5t2.5 -20.5q-6 -37 -26 -137l-5 -23q-2 -13 -4.5 -23l-4.5 -18q-15 -62 -15 -86q0 -38 25 -48q16 -6 29 -6q31 0 52 27.5t35 75.5l22 112q5 24 11.5 58.5t15.5 82.5
q2 10 12 14.5t20 1.5q11 -2 15.5 -10.5z" />
    <glyph glyph-name="Umacron" unicode="&#x16a;" horiz-adv-x="730" 
d="M217 842h297v-71h-297v71zM402.5 692q20.5 -14 27.5 -38q3 -12 3 -24q0 -40 -30.5 -72.5t-72.5 -47.5q-13 -5 -23 -8q-6 -32 -16 -98l-12 -91l-10 -96q-5 -47 -5 -74q0 -91 55 -91q5 0 17 2q54 13 87 68.5t60.5 163.5t78.5 357q2 10 12 14.5t20 1.5q11 -2 15.5 -10.5
t2.5 -20.5q-11 -66 -93 -475q-2 -9 -5.5 -26.5t-3.5 -30.5q0 -9 1 -14q2 -11 8 -21t15 -10q13 0 22.5 8.5t19.5 23.5q27 41 54 138q4 15 21 15q5 0 8 -1q11 -2 17 -10t4 -16q-18 -61 -34 -101.5t-40 -70.5q-14 -18 -34 -29t-40 -8q-21 3 -37.5 14t-23.5 29q-9 17 -11 39
q-37 -52 -85 -71q-24 -11 -50 -11q-18 0 -36 6q-22 8 -39.5 23.5t-26.5 36.5q-13 29 -13 69q0 39 7 93l3 32q18 156 32 233q-56 -3 -119 12q-90 18 -171 72q-13 10 -13 25q0 6 3 12q4 5 10.5 9t13.5 4t12 -4q54 -37 116.5 -57.5t125.5 -20.5q11 0 33 2q9 49 17.5 79.5
t27 54.5t49.5 25q25 0 45.5 -14zM359 655q-17 0 -24 -22.5t-15 -70.5q39 18 54 47q7 11 7 23q0 15 -11 20q-6 3 -11 3z" />
    <glyph glyph-name="umacron" unicode="&#x16b;" horiz-adv-x="618" 
d="M159 677h297v-71h-297v71zM261.5 411.5q4.5 -8.5 2.5 -20.5q-6 -37 -26 -137l-5 -23l-15 -78q-2 -9 -5.5 -26.5t-3.5 -30.5q0 -9 1 -14q2 -11 8 -21t15 -10q13 0 22.5 8.5t19.5 23.5q17 25 26.5 51.5t21.5 69.5q3 11 13 17.5t19 4.5q11 -2 16.5 -12.5t2.5 -20.5
q-20 -64 -32.5 -95t-36.5 -61q-14 -18 -34 -29t-40 -8q-21 3 -37.5 14t-23.5 29l-1 2q-39 -45 -94 -45q-23 0 -39 5q-31 8 -47 34.5t-16 62.5q0 15 3 30l18 89l35 185q2 10 12 14.5t20 1.5q11 -2 15.5 -10.5t2.5 -20.5q-6 -37 -26 -137l-5 -23q-2 -13 -4.5 -23l-4.5 -18
q-15 -62 -15 -86q0 -38 25 -48q16 -6 29 -6q31 0 52 27.5t35 75.5l22 112q5 24 11.5 58.5t15.5 82.5q2 10 12 14.5t20 1.5q11 -2 15.5 -10.5z" />
    <glyph glyph-name="Ubreve" unicode="&#x16c;" horiz-adv-x="730" 
d="M361 771q-69 0 -108.5 33.5t-44.5 100.5h54q4 -35 24.5 -49t76.5 -14q49 0 73 15.5t28 47.5h55q-6 -64 -48 -99t-110 -35zM402.5 692q20.5 -14 27.5 -38q3 -12 3 -24q0 -40 -30.5 -72.5t-72.5 -47.5q-13 -5 -23 -8q-6 -32 -16 -98l-12 -91l-10 -96q-5 -47 -5 -74
q0 -91 55 -91q5 0 17 2q54 13 87 68.5t60.5 163.5t78.5 357q2 10 12 14.5t20 1.5q11 -2 15.5 -10.5t2.5 -20.5q-11 -66 -93 -475q-2 -9 -5.5 -26.5t-3.5 -30.5q0 -9 1 -14q2 -11 8 -21t15 -10q13 0 22.5 8.5t19.5 23.5q27 41 54 138q4 15 21 15q5 0 8 -1q11 -2 17 -10t4 -16
q-18 -61 -34 -101.5t-40 -70.5q-14 -18 -34 -29t-40 -8q-21 3 -37.5 14t-23.5 29q-9 17 -11 39q-37 -52 -85 -71q-24 -11 -50 -11q-18 0 -36 6q-22 8 -39.5 23.5t-26.5 36.5q-13 29 -13 69q0 39 7 93l3 32q18 156 32 233q-56 -3 -119 12q-90 18 -171 72q-13 10 -13 25
q0 6 3 12q4 5 10.5 9t13.5 4t12 -4q54 -37 116.5 -57.5t125.5 -20.5q11 0 33 2q9 49 17.5 79.5t27 54.5t49.5 25q25 0 45.5 -14zM359 655q-17 0 -24 -22.5t-15 -70.5q39 18 54 47q7 11 7 23q0 15 -11 20q-6 3 -11 3z" />
    <glyph glyph-name="ubreve" unicode="&#x16d;" horiz-adv-x="618" 
d="M303 606q-69 0 -108.5 33.5t-44.5 100.5h54q4 -35 24.5 -49t76.5 -14q49 0 73 15.5t28 47.5h55q-6 -64 -48 -99t-110 -35zM261.5 411.5q4.5 -8.5 2.5 -20.5q-6 -37 -26 -137l-5 -23l-15 -78q-2 -9 -5.5 -26.5t-3.5 -30.5q0 -9 1 -14q2 -11 8 -21t15 -10q13 0 22.5 8.5
t19.5 23.5q17 25 26.5 51.5t21.5 69.5q3 11 13 17.5t19 4.5q11 -2 16.5 -12.5t2.5 -20.5q-20 -64 -32.5 -95t-36.5 -61q-14 -18 -34 -29t-40 -8q-21 3 -37.5 14t-23.5 29l-1 2q-39 -45 -94 -45q-23 0 -39 5q-31 8 -47 34.5t-16 62.5q0 15 3 30l18 89l35 185q2 10 12 14.5
t20 1.5q11 -2 15.5 -10.5t2.5 -20.5q-6 -37 -26 -137l-5 -23q-2 -13 -4.5 -23l-4.5 -18q-15 -62 -15 -86q0 -38 25 -48q16 -6 29 -6q31 0 52 27.5t35 75.5l22 112q5 24 11.5 58.5t15.5 82.5q2 10 12 14.5t20 1.5q11 -2 15.5 -10.5z" />
    <glyph glyph-name="Uring" unicode="&#x16e;" horiz-adv-x="730" 
d="M475 878q0 -49 -30.5 -78t-80.5 -29t-79.5 28.5t-29.5 77.5q0 48 29.5 76.5t79.5 28.5q49 0 80 -29t31 -75zM420 877q0 26 -16 41t-40 15t-40 -15t-16 -41t14.5 -41t41.5 -15q25 0 40.5 15t15.5 41zM402.5 692q20.5 -14 27.5 -38q3 -12 3 -24q0 -40 -30.5 -72.5
t-72.5 -47.5q-13 -5 -23 -8q-6 -32 -16 -98l-12 -91l-10 -96q-5 -47 -5 -74q0 -91 55 -91q5 0 17 2q54 13 87 68.5t60.5 163.5t78.5 357q2 10 12 14.5t20 1.5q11 -2 15.5 -10.5t2.5 -20.5q-11 -66 -93 -475q-2 -9 -5.5 -26.5t-3.5 -30.5q0 -9 1 -14q2 -11 8 -21t15 -10
q13 0 22.5 8.5t19.5 23.5q27 41 54 138q4 15 21 15q5 0 8 -1q11 -2 17 -10t4 -16q-18 -61 -34 -101.5t-40 -70.5q-14 -18 -34 -29t-40 -8q-21 3 -37.5 14t-23.5 29q-9 17 -11 39q-37 -52 -85 -71q-24 -11 -50 -11q-18 0 -36 6q-22 8 -39.5 23.5t-26.5 36.5q-13 29 -13 69
q0 39 7 93l3 32q18 156 32 233q-56 -3 -119 12q-90 18 -171 72q-13 10 -13 25q0 6 3 12q4 5 10.5 9t13.5 4t12 -4q54 -37 116.5 -57.5t125.5 -20.5q11 0 33 2q9 49 17.5 79.5t27 54.5t49.5 25q25 0 45.5 -14zM359 655q-17 0 -24 -22.5t-15 -70.5q39 18 54 47q7 11 7 23
q0 15 -11 20q-6 3 -11 3z" />
    <glyph glyph-name="uring" unicode="&#x16f;" horiz-adv-x="618" 
d="M417 713q0 -49 -30.5 -78t-80.5 -29t-79.5 28.5t-29.5 77.5q0 48 29.5 76.5t79.5 28.5q49 0 80 -29t31 -75zM362 712q0 26 -16 41t-40 15t-40 -15t-16 -41t14.5 -41t41.5 -15q25 0 40.5 15t15.5 41zM261.5 411.5q4.5 -8.5 2.5 -20.5q-6 -37 -26 -137l-5 -23l-15 -78
q-2 -9 -5.5 -26.5t-3.5 -30.5q0 -9 1 -14q2 -11 8 -21t15 -10q13 0 22.5 8.5t19.5 23.5q17 25 26.5 51.5t21.5 69.5q3 11 13 17.5t19 4.5q11 -2 16.5 -12.5t2.5 -20.5q-20 -64 -32.5 -95t-36.5 -61q-14 -18 -34 -29t-40 -8q-21 3 -37.5 14t-23.5 29l-1 2q-39 -45 -94 -45
q-23 0 -39 5q-31 8 -47 34.5t-16 62.5q0 15 3 30l18 89l35 185q2 10 12 14.5t20 1.5q11 -2 15.5 -10.5t2.5 -20.5q-6 -37 -26 -137l-5 -23q-2 -13 -4.5 -23l-4.5 -18q-15 -62 -15 -86q0 -38 25 -48q16 -6 29 -6q31 0 52 27.5t35 75.5l22 112q5 24 11.5 58.5t15.5 82.5
q2 10 12 14.5t20 1.5q11 -2 15.5 -10.5z" />
    <glyph glyph-name="Uhungarumlaut" unicode="&#x170;" horiz-adv-x="730" 
d="M221 783q17 22 42.5 65.5t44.5 82.5h96v-10q-16 -27 -58.5 -75t-74.5 -75h-50v12zM397 783q23 32 49 76.5t38 71.5h96v-10q-16 -27 -58.5 -75t-74.5 -75h-50v12zM402.5 692q20.5 -14 27.5 -38q3 -12 3 -24q0 -40 -30.5 -72.5t-72.5 -47.5q-13 -5 -23 -8q-6 -32 -16 -98
l-12 -91l-10 -96q-5 -47 -5 -74q0 -91 55 -91q5 0 17 2q54 13 87 68.5t60.5 163.5t78.5 357q2 10 12 14.5t20 1.5q11 -2 15.5 -10.5t2.5 -20.5q-11 -66 -93 -475q-2 -9 -5.5 -26.5t-3.5 -30.5q0 -9 1 -14q2 -11 8 -21t15 -10q13 0 22.5 8.5t19.5 23.5q27 41 54 138
q4 15 21 15q5 0 8 -1q11 -2 17 -10t4 -16q-18 -61 -34 -101.5t-40 -70.5q-14 -18 -34 -29t-40 -8q-21 3 -37.5 14t-23.5 29q-9 17 -11 39q-37 -52 -85 -71q-24 -11 -50 -11q-18 0 -36 6q-22 8 -39.5 23.5t-26.5 36.5q-13 29 -13 69q0 39 7 93l3 32q18 156 32 233
q-56 -3 -119 12q-90 18 -171 72q-13 10 -13 25q0 6 3 12q4 5 10.5 9t13.5 4t12 -4q54 -37 116.5 -57.5t125.5 -20.5q11 0 33 2q9 49 17.5 79.5t27 54.5t49.5 25q25 0 45.5 -14zM359 655q-17 0 -24 -22.5t-15 -70.5q39 18 54 47q7 11 7 23q0 15 -11 20q-6 3 -11 3z" />
    </font>
</defs>
</svg>
