<?xml version="1.0" standalone="no"?>
<!DOCTYPE svg PUBLIC "-//W3C//DTD SVG 1.1//EN" "http://www.w3.org/Graphics/SVG/1.1/DTD/svg11.dtd" >
<svg xmlns="http://www.w3.org/2000/svg" xmlns:xlink="http://www.w3.org/1999/xlink" version="1.1">
<metadata>
Created by FontForge 20190801 at Mon Feb  8 12:15:30 2021
 By root
Copyright (c) 2015, Cadson Demak (info@cadsondemak.com), Copyright (c) 2014, Pablo Impallari (www.impallari.com|impallari@gmail.com)
</metadata>
<defs>
<font id="Itim-Regular" horiz-adv-x="225" >
  <font-face 
    font-family="Itim"
    font-weight="400"
    font-stretch="normal"
    units-per-em="1000"
    panose-1="0 0 5 0 0 0 0 0 0 0"
    ascent="750"
    descent="-250"
    x-height="427"
    cap-height="630"
    bbox="-213 -246 1217 1014"
    underline-thickness="50"
    underline-position="-100"
    unicode-range="U+0001-206F"
  />
<missing-glyph horiz-adv-x="364" 
d="M33 0v666h265v-666h-265zM66 33h199v600h-199v-600z" />
    <glyph glyph-name=".notdef" horiz-adv-x="364" 
d="M33 0v666h265v-666h-265zM66 33h199v600h-199v-600z" />
    <glyph glyph-name="uni0000" 
 />
    <glyph glyph-name="uni0000" 
 />
    <glyph glyph-name="nonmarkingreturn" unicode="&#xd;" 
 />
    <glyph glyph-name="uni0001" 
 />
    <glyph glyph-name="uni0002" 
 />
    <glyph glyph-name="uni0003" 
 />
    <glyph glyph-name="uni0004" 
 />
    <glyph glyph-name="uni0005" 
 />
    <glyph glyph-name="uni0006" 
 />
    <glyph glyph-name="uni0007" 
 />
    <glyph glyph-name="uni0008" 
 />
    <glyph glyph-name="uni0009" unicode="&#x9;" 
 />
    <glyph glyph-name="uni000A" unicode="&#xa;" 
 />
    <glyph glyph-name="uni000B" 
 />
    <glyph glyph-name="uni000C" 
 />
    <glyph glyph-name="uni000E" 
 />
    <glyph glyph-name="uni000F" 
 />
    <glyph glyph-name="uni0010" 
 />
    <glyph glyph-name="uni0011" 
 />
    <glyph glyph-name="uni0012" 
 />
    <glyph glyph-name="uni0013" 
 />
    <glyph glyph-name="uni0014" 
 />
    <glyph glyph-name="uni0015" 
 />
    <glyph glyph-name="uni0016" 
 />
    <glyph glyph-name="uni0017" 
 />
    <glyph glyph-name="uni0018" 
 />
    <glyph glyph-name="uni0019" 
 />
    <glyph glyph-name="uni001A" 
 />
    <glyph glyph-name="uni001B" 
 />
    <glyph glyph-name="uni001C" 
 />
    <glyph glyph-name="uni001D" 
 />
    <glyph glyph-name="uni001E" 
 />
    <glyph glyph-name="uni001F" 
 />
    <glyph glyph-name="space" unicode=" " 
 />
    <glyph glyph-name="exclam" unicode="!" horiz-adv-x="252" 
d="M172 422q-6 -100 -6 -153q0 -14 2 -58q-1 -17 -12 -25.5t-26 -8.5q-16 0 -29 8t-16 21q-12 82 -12 196l1 156q0 37 9.5 60.5t41.5 23.5q27 0 40 -17.5t13 -44.5q0 -54 -6 -158zM193 74q0 -26 -16.5 -47.5t-41.5 -21.5q-30 0 -49 18.5t-19 43.5q0 22 16.5 40t41.5 18
q68 0 68 -51z" />
    <glyph glyph-name="quotedbl" unicode="&#x22;" horiz-adv-x="364" 
d="M147 590q0 -18 -7 -65l-6 -44q-3 -51 -7 -63q-3 -7 -13 -14.5t-22 -7.5q-14 0 -23 9t-12 35q-2 14 -8 80q-9 36 -9 77q0 58 50 58q57 0 57 -65zM323 590q0 -21 -6 -60.5t-7 -48.5q-1 -51 -7 -63q-2 -7 -12.5 -14.5t-22.5 -7.5q-14 0 -23 9t-12 35q-2 14 -8 80
q-8 37 -8 77q0 58 49 58q57 0 57 -65z" />
    <glyph glyph-name="numbersign" unicode="#" horiz-adv-x="652" 
d="M627 395q-16 -13 -35 -13h-90q-11 -17 -27 -63t-23 -68l67 -1q29 -1 45 -9.5t16 -40.5q0 -22 -18.5 -30t-35.5 -8l-62 1q-19 0 -47 -2q-13 -29 -19.5 -52.5t-19.5 -81.5q-10 -27 -52 -27q-11 0 -22.5 10.5t-11.5 29.5q0 15 4.5 31t13.5 37q2 4 8.5 22.5t9.5 35.5
q-15 3 -34 3q-18 0 -48 -2q-18 -2 -26 -2l-23 -73l-17 -55q-15 -37 -37 -37q-43 0 -43 43q0 54 27 117q-5 -1 -26.5 -2t-32.5 -1q-22 0 -38 11t-16 34q0 15 2.5 24.5t17.5 15.5q23 8 54 8q18 0 27 -1q7 0 17 -0.5t23 0.5q9 19 13.5 37.5t6.5 24.5q9 33 27 72l-26 -1
q-20 -2 -33 -2q-78 0 -78 41q0 15 9.5 32t29.5 17q16 0 25 -1l37 -1q34 0 59 4q1 7 14 42q19 57 21 67q13 61 42 61t38.5 -7.5t9.5 -11.5q0 -23 -4.5 -42t-10 -35t-7.5 -22q-7 -19 -15 -52q7 -1 20 -1q15 0 24 1l35 1q22 0 50 -2q25 46 41 125q6 21 15 29t30 8q17 0 26 -11
t9 -30q0 -26 -11 -63t-23 -64q8 -2 17 -2l51 1q19 0 32.5 -9.5t13.5 -27.5q0 -19 -16 -32zM377 388q-20 0 -40 -3q-6 0 -21.5 -1.5t-28.5 -0.5q-4 -12 -10 -28l-12 -32q-26 -66 -28 -75l91 3l32 1q20 48 45 117l6 16q-18 3 -34 3z" />
    <glyph glyph-name="dollar" unicode="$" horiz-adv-x="507" 
d="M445.5 106q-20.5 -29 -70.5 -69q-39 -31 -91 -37q0 -45 1 -54q0 -10 -6.5 -15t-16.5 -5q-13 0 -23.5 8.5t-10.5 23.5q0 17 -2 39q-22 1 -41 8t-31.5 13t-16.5 8q-36 25 -54 40.5t-29 34.5t-11 45q0 25 11 34.5t40 9.5q13 0 25 -7t18 -17q33 -59 85 -73q0 6 2 67t3 123
q-57 20 -81 32q-97 48 -97 140q0 39 27 80t63 58q14 7 40 16t50 15q0 28 -1 41q0 18 9 25.5t18 7.5q23 0 28.5 -16t4.5 -55q32 -3 71 -24q45 -26 65.5 -45.5t20.5 -49.5q0 -17 -14 -28t-46 -11q-14 0 -36 28q-20 22 -31 27q-4 1 -13 4.5t-18 5.5q0 -91 -2 -151v-15
q54 -24 89 -46q48 -30 70 -59.5t22 -83.5q0 -44 -20.5 -73zM169 422.5q19 -17.5 44 -26.5l15 -5v144q-33 -7 -55.5 -26t-22.5 -49q0 -20 19 -37.5zM341 128q22 24 22 49q0 44 -79 80q-1 -51 -1 -163q36 10 58 34z" />
    <glyph glyph-name="percent" unicode="%" horiz-adv-x="706" 
d="M601 631q7 -11 7 -25q0 -19 -16 -38l-39 -50q-114 -149 -183 -247t-133 -215q-31 -60 -71 -60q-18 0 -32 9.5t-14 32.5q0 15 9 25q33 47 118 175q80 119 132.5 194.5t102.5 137.5q4 5 19.5 25t35.5 33.5t43 13.5q14 0 21 -11zM245.5 617q31.5 -14 52.5 -39.5t21 -56.5
q0 -44 -19 -80t-52 -56.5t-73 -20.5q-63 0 -101 37.5t-38 98.5q0 64 39.5 97.5t108.5 33.5q30 0 61.5 -14zM234 517q0 19 -13.5 28t-42.5 9q-32 0 -48.5 -16.5t-16.5 -37.5q0 -23 14 -41.5t35 -18.5q72 0 72 77zM648.5 70.5q-21.5 -30.5 -57 -47.5t-74.5 -17q-33 0 -62 16.5
t-46.5 45.5t-17.5 65q0 37 18.5 70t53.5 53.5t82 20.5q61 0 93 -35.5t32 -101.5q0 -39 -21.5 -69.5zM490.5 186q-17.5 -15 -17.5 -47q0 -28 14 -43t30 -15q77 0 77 69q0 23 -15 37t-42 14q-29 0 -46.5 -15z" />
    <glyph glyph-name="ampersand" unicode="&#x26;" horiz-adv-x="646" 
d="M388 67q-49 -30 -85.5 -45.5t-79.5 -15.5q-42 0 -82.5 20.5t-66 56.5t-25.5 80q0 57 33 107.5t72 86.5q-40 78 -40 149q0 39 13 74q11 32 32 46.5t57 14.5q41 0 71.5 -18t58.5 -48q31 -32 31 -81q0 -27 -16.5 -55.5t-47.5 -68.5q-5 -7 -15 -17.5t-14 -15.5q21 -37 56 -71
t63 -50q12 8 22.5 21.5t27.5 39.5q25 38 42 56.5t40 18.5t36.5 -8.5t13.5 -25.5q0 -9 -4 -19t-5 -12q-9 -19 -20.5 -34.5t-33.5 -41.5q-35 -42 -43 -54q29 -29 83 -54q10 -6 26.5 -14.5t27.5 -16.5q14 -8 14 -32q0 -25 -14 -39.5t-33 -14.5q-26 0 -49.5 15.5t-58.5 46.5
q-36 32 -49 40q-12 -3 -38 -21zM211 500q0 -23 7.5 -45.5t18.5 -37.5q21 14 34 39t13 50q0 23 -14.5 37t-39.5 15q-19 -19 -19 -58zM286 107.5q28 17.5 52 40.5q-34 26 -89 83q-9 11 -43 45q-22 -24 -37 -56t-15 -59q0 -29 24 -50t55 -21q25 0 53 17.5z" />
    <glyph glyph-name="quotesingle" unicode="'" horiz-adv-x="187" 
d="M147 590q0 -18 -7 -65l-6 -44q-3 -51 -7 -63q-3 -7 -13 -14.5t-22 -7.5q-14 0 -23 9t-12 35q-2 14 -8 80q-9 36 -9 77q0 58 50 58q57 0 57 -65z" />
    <glyph glyph-name="parenleft" unicode="(" horiz-adv-x="326" 
d="M288 650q15 -10 15 -26q0 -12 -30 -40l-18 -18q-42 -48 -71.5 -148.5t-29.5 -201.5q0 -112 25 -183q38 -104 67 -137q5 -6 13 -13.5t13 -12.5q19 -17 29.5 -30t10.5 -25q0 -11 -9.5 -21.5t-19.5 -10.5q-26 0 -62 22t-52 43q-52 64 -81.5 166t-29.5 228q0 60 14 126
t36 122q11 30 35.5 70.5t53.5 70t53 29.5q23 0 38 -10z" />
    <glyph glyph-name="parenright" unicode=")" horiz-adv-x="326" 
d="M129.5 632.5q28.5 -27.5 53 -66t35.5 -67.5q21 -54 35 -124.5t14 -132.5q0 -127 -29 -228.5t-81 -165.5q-16 -21 -52 -43t-62 -22q-11 0 -20.5 10.5t-9.5 21.5q0 12 10.5 24.5t30.5 30.5l26 26q29 33 67 137q25 71 25 183q0 101 -29.5 204.5t-71.5 150.5l-20 18
q-29 25 -29 36q0 17 15 26t39 9q25 0 53.5 -27.5z" />
    <glyph glyph-name="asterisk" unicode="*" horiz-adv-x="422" 
d="M386 509q0 -18 -15 -27t-43 -20q-7 -3 -20 -6.5t-20 -8.5q19 -26 31 -31q18 -12 28.5 -22t10.5 -25q0 -21 -14 -35.5t-36 -14.5q-15 0 -27 9t-26 28q-8 9 -18 26q-17 29 -26 29q-6 0 -17 -16t-16 -30q-19 -57 -51 -57q-18 0 -34.5 11.5t-16.5 32.5q0 16 8.5 27t26.5 27
q26 22 30 39q-10 5 -32 13q-36 12 -53 24q-17 10 -17 32q0 15 8 25q7 10 18 15.5t21 5.5q14 0 25.5 -6t29.5 -19q5 -4 18 -15t23 -13q0 12 -7 45q-6 26 -6 38q0 24 19 38.5t44 14.5q17 0 27 -13.5t10 -32.5q0 -16 -10 -50q-8 -32 -7 -40q9 1 22 12t18 14q17 10 29.5 15
t27.5 5q37 0 37 -44z" />
    <glyph glyph-name="plus" unicode="+" horiz-adv-x="537" 
d="M478 244.5q14 -8.5 14 -36.5q0 -22 -21 -32t-49 -10l-33 -1q-34 -2 -50 -2q-14 0 -18 1q-2 -7 -2 -23q-1 -14 3 -44q1 -6 2 -17t1 -20q0 -29 -11 -44q-11 -14 -36 -14q-15 0 -29.5 11.5t-14.5 25.5q0 79 -4 126q-27 3 -34 3q-24 0 -47 -3q-30 -2 -43 -2q-26 1 -43.5 10.5
t-17.5 29.5q0 22 9 31q15 16 59 16q23 0 51 2q24 2 33 2t17 -1.5t15 -1.5q2 9 2 29q0 17 -2 49q-2 30 -2 44q0 30 8.5 44t34.5 14q23 0 35 -9.5t12 -26.5q1 -21 -1 -61l-1 -45q0 -24 1 -36q24 -2 35 -2q23 0 34 1l36 1q43 0 57 -8.5z" />
    <glyph glyph-name="comma" unicode="," horiz-adv-x="237" 
d="M83 -3q-11 0 -16 4q-12 7 -21 18.5t-9 32.5q1 15 7 26.5t17 16.5q21 11 54 11q24 0 39 -17.5t15 -42.5q0 -30 -17.5 -69.5t-34.5 -61.5q-13 -15 -29.5 -26t-28.5 -11q-24 0 -30.5 7.5t-6.5 26.5q0 8 21 25q17 15 21 21q15 20 22 39h-3z" />
    <glyph glyph-name="hyphen" unicode="-" horiz-adv-x="401" 
d="M365 213q0 -27 -18.5 -39t-45.5 -12q-8 0 -17 1t-19 2q-30 5 -54 5q-17 0 -51 -4q-36 -4 -55 -4q-27 0 -48 10.5t-21 35.5q0 35 26 45.5t73 10.5l33 -1q24 -2 37 -2l73 2l41 2q46 0 46 -52z" />
    <glyph glyph-name="period" unicode="." horiz-adv-x="246" 
d="M172 8.5q-20 -21.5 -44 -21.5q-28 0 -51 15.5t-23 39.5q0 38 14.5 56t43.5 18q34 0 57 -16.5t23 -44.5q0 -25 -20 -46.5z" />
    <glyph glyph-name="slash" unicode="/" horiz-adv-x="421" 
d="M400 633.5q10 -8.5 10 -20.5q0 -11 -5 -20q-33 -52 -57 -97t-60 -117q-14 -28 -45 -89q-15 -29 -43 -95q-41 -92 -67 -140q-31 -60 -71 -60q-51 0 -51 36q0 14 9 26q54 79 92.5 153.5t83.5 174.5q51 114 86 178q17 34 36.5 56.5t55.5 22.5q16 0 26 -8.5z" />
    <glyph glyph-name="zero" unicode="0" horiz-adv-x="616" 
d="M542 447.5q20 -65.5 20 -133.5q0 -81 -27.5 -154t-82 -119t-132.5 -46q-73 0 -134 37.5t-92 87.5q-23 37 -35 83.5t-12 93.5q0 82 34.5 160t95.5 125q58 43 133 43q83 0 179 -61q33 -51 53 -116.5zM203 468q-22 -33 -32 -55.5t-18 -68.5q-4 -21 -4 -49q0 -71 28.5 -122.5
t78.5 -69.5q24 -9 54 -9q75 0 113.5 66.5t38.5 164.5q0 91 -34 149.5t-105 58.5q-29 0 -49.5 -9t-52.5 -29q-9 -15 -18 -27z" />
    <glyph glyph-name="one" unicode="1" horiz-adv-x="464" 
d="M313 526q-10 -196 -10 -312q0 -60 3 -114q8 -6 31 -6l23 1q14 2 26 2q26 0 40.5 -9t14.5 -35q0 -25 -14.5 -39t-59.5 -14q-38 0 -92 6q-13 1 -25 2t-22 1q-55 -1 -82 -4t-61 -3q-31 0 -31 47q0 45 58 45q9 0 29 -2q17 -3 36 -3q11 0 18 1q1 67 7 195q6 150 6 222
q-5 -1 -35 -14q-46 -23 -68 -23q-12 0 -22 12.5t-10 29.5t21 33t68 42q26 13 50 29q6 4 17.5 8t17.5 4q26 0 47.5 -10.5t21.5 -27.5z" />
    <glyph glyph-name="two" unicode="2" horiz-adv-x="526" 
d="M236 102q34 0 60.5 1t45.5 2q49 3 88 3q38 0 56 -20t18 -53q0 -16 -21 -25.5t-43 -9.5q-19 0 -79 4q-72 6 -113 6q-22 0 -52 -3q-12 -1 -29 -2t-38 -1q-40 0 -61 11t-21 40q0 25 20 51t56 62l24 24q16 17 59 58q71 64 110.5 113t39.5 97q0 31 -29.5 50.5t-67.5 19.5
q-58 0 -83.5 -25.5t-25.5 -73.5q0 -12 -13.5 -21.5t-33.5 -9.5q-28 0 -39 20t-11 49q0 46 28 81.5t76.5 55.5t107.5 20q42 0 87.5 -20.5t76 -55t30.5 -75.5q0 -62 -31 -118t-72.5 -99.5t-107.5 -102.5q-32 -27 -57 -51q34 -2 45 -2z" />
    <glyph glyph-name="three" unicode="3" horiz-adv-x="545" 
d="M451 329q54 -53 54 -123q0 -42 -20 -82q-32 -64 -95.5 -96t-146.5 -32q-52 0 -93 19.5t-81 52.5q-15 14 -26.5 40t-11.5 43q0 22 12.5 35.5t33.5 13.5t33 -10t29 -32q16 -21 29 -33.5t35 -21.5t55 -9q67 0 105 33t38 93q0 23 -25 46.5t-47 33.5q-13 7 -48 14
q-47 12 -70.5 23.5t-23.5 36.5q0 17 15 33.5t45 41.5t45 41.5t15 33.5q-19 5 -57 5q-17 0 -51 -2q-30 -2 -46 -2q-36 0 -61.5 12t-25.5 31q0 21 4 33.5t15 15.5q7 3 25 3q49 0 85 -3q40 -2 61 -2l83 1q102 0 102 -49q0 -37 -37.5 -83.5t-88.5 -83.5q82 -18 136 -71z" />
    <glyph glyph-name="four" unicode="4" horiz-adv-x="601" 
d="M218.5 486.5q-17.5 -64.5 -50.5 -158.5l-23 -69q17 -3 35 -3q31 0 93 6t89 6l-1 110q-2 114 -2 168q0 71 47 71q37 0 47.5 -19t10.5 -57q0 -39 -6 -121q-1 -16 -3 -53t-2 -64l1 -32l20 1q24 2 37 2q24 0 46 -15.5t22 -36.5q0 -25 -7.5 -39t-17.5 -14q-17 0 -43 4
q-6 0 -18 1.5t-23 1.5l-17 -1l1 -135q0 -21 -14 -32t-32 -11q-22 0 -39 14t-17 35q0 67 2 105q1 9 1 22q-30 1 -104 -7q-70 -8 -106 -8q-46 0 -77.5 13t-31.5 41q0 27 11 66t33 105q10 26 15 43q18 51 27 86.5t20 86.5q4 16 17 24t30 8q18 0 32.5 -8.5t14.5 -22.5
q0 -49 -17.5 -113.5z" />
    <glyph glyph-name="five" unicode="5" horiz-adv-x="525" 
d="M181 450q-2 -40 -6 -60q29 12 55 15.5t66 3.5q62 0 108 -28.5t70 -76t24 -101.5q0 -21 -14 -56.5t-29 -54.5q-35 -46 -81 -70.5t-100 -24.5q-41 0 -74.5 11.5t-71.5 31.5q-39 21 -56.5 43.5t-17.5 56.5q0 18 15.5 29.5t29.5 11.5q9 0 16 -5t23 -20l25 -24
q24 -20 47.5 -30t57.5 -10q31 0 50 8q38 15 59.5 39t21.5 77q0 51 -34 79.5t-115 28.5q-11 0 -32 -6t-41 -13q-48 -16 -59 -16q-14 0 -28 12t-14 32q18 121 18 201l-1 25q-2 18 -2 30q0 18 19.5 27.5t40.5 9.5q18 0 78 -6l48 -4q9 -1 27 -1l37 1q11 1 32 1q30 0 50 -9
t20 -29q0 -31 -10 -45t-23 -14q-12 0 -40 4q-37 4 -87 4q-35 0 -93 -4q-7 -28 -9 -74z" />
    <glyph glyph-name="six" unicode="6" horiz-adv-x="529" 
d="M256 496.5q-24 -20.5 -43 -49.5l-16 -25q-18 -27 -27 -44t-12 -36q49 50 140 50q39 0 82.5 -22t70.5 -51q17 -19 28.5 -58t11.5 -83q0 -35 -21 -71.5t-51.5 -63.5t-56.5 -34q-40 -10 -69 -10q-66 0 -122 36t-89 96.5t-33 131.5q0 98 47.5 187.5t125.5 145.5
q13 9 46.5 19.5t59.5 10.5q49 0 49 -39q0 -23 -16.5 -36t-46.5 -21q-34 -13 -58 -33.5zM313 93.5q16 2.5 29 10.5q20 14 35.5 33.5t15.5 37.5q0 69 -33.5 97t-78.5 29q-23 0 -52.5 -12.5t-50 -32.5t-20.5 -39q0 -43 18.5 -71.5t45.5 -41.5t52 -13q23 0 39 2.5z" />
    <glyph glyph-name="seven" unicode="7" horiz-adv-x="496" 
d="M440.5 463q-19.5 -60 -49.5 -138q-51 -137 -72 -221q-17 -57 -32 -82t-35 -25q-16 0 -43 19q-7 9 -7 25q0 13 7 38.5t17 56.5l12 36q13 43 44 116q23 56 41.5 108t36.5 124q-52 -16 -103 -16q-25 0 -76 7q-42 6 -60 6q1 -15 15 -57q17 -43 17 -65q0 -13 -9 -22t-29 -9
q-26 0 -39.5 16.5t-22 38t-12.5 29.5q-14 32 -22 66.5t-8 61.5q0 16 8.5 28t19.5 12q15 -2 45 -8q48 -8 80.5 -12.5t69.5 -4.5q91 0 140 32q7 4 21 4q26 0 52 -12.5t26 -30.5q-13 -61 -32.5 -121z" />
    <glyph glyph-name="eight" unicode="8" horiz-adv-x="548" 
d="M480 267q37 -40 37 -92q0 -15 -6.5 -37.5t-17.5 -38.5q-66 -102 -233 -102q-87 0 -151 35.5t-64 106.5q0 101 139 173q-130 48 -130 142q0 57 32 96t84.5 58t114.5 19q46 0 94 -21.5t66 -55.5q18 -38 18 -71q0 -43 -17.5 -79t-63.5 -69q61 -24 98 -64zM327.5 395.5
q17.5 13.5 30 33t12.5 45.5q0 30 -24 50t-58 20q-73 0 -101.5 -25t-28.5 -59q0 -27 18 -45.5t40.5 -29t61.5 -24.5q32 21 49.5 34.5zM389.5 218q-21.5 19 -50.5 33.5t-49 19.5q-34 -14 -75 -44.5t-50 -44.5q-10 -14 -13.5 -23.5t-3.5 -22.5q0 -15 18 -28.5t43 -21.5t43 -8
q71 0 115 28.5t44 75.5q0 17 -21.5 36z" />
    <glyph glyph-name="nine" unicode="9" horiz-adv-x="523" 
d="M275.5 138q31.5 29 53 65.5t25.5 70.5q-28 -20 -57 -28t-67 -8q-51 0 -84 17.5t-70 50.5q-6 6 -15 26.5t-16 51t-7 62.5q0 29 18 61t45.5 57.5t52.5 36.5q23 10 53.5 17.5t51.5 7.5q71 0 119.5 -33t71.5 -88t23 -122q0 -115 -51 -209.5t-129 -146.5q-13 -9 -44.5 -19.5
t-57.5 -10.5q-20 0 -35 18t-15 41q0 16 11 22.5t36 13.5l22 6q34 11 65.5 40zM221.5 534.5q-21.5 -6.5 -36.5 -15.5q-17 -10 -32.5 -30.5t-15.5 -31.5q0 -131 106 -131q24 0 53.5 10.5t49.5 29.5t20 43q0 66 -27.5 99t-79.5 33q-16 0 -37.5 -6.5z" />
    <glyph glyph-name="colon" unicode=":" horiz-adv-x="245" 
d="M79 320.5q-21 19.5 -21 47.5q0 9 5 26q6 19 20 28.5t30 9.5q27 0 50 -22t23 -50q0 -16 -8 -29q-19 -30 -53 -30q-25 0 -46 19.5zM169.5 104.5q16.5 -13.5 16.5 -37.5q0 -26 -16.5 -47.5t-41.5 -21.5q-35 0 -51.5 18t-16.5 44q0 22 15 40t43 18q35 0 51.5 -13.5z" />
    <glyph glyph-name="semicolon" unicode=";" horiz-adv-x="250" 
d="M79.5 321q-21.5 20 -21.5 47q0 9 5 26q6 19 20.5 28.5t30.5 9.5q26 0 49.5 -22t23.5 -50q0 -13 -8 -29q-19 -30 -53 -30q-25 0 -46.5 20zM106 0q-12 0 -17 4q-12 8 -21 19t-9 32q2 33 25 43q10 5 25.5 8t28.5 3q23 0 38.5 -17.5t15.5 -42.5q0 -31 -18 -70.5t-35 -60.5
q-13 -16 -29 -27t-28 -11q-23 0 -30 8t-7 26q0 7 22 27q15 13 19 19q18 26 23 40h-3z" />
    <glyph glyph-name="less" unicode="&#x3c;" horiz-adv-x="550" 
d="M51.5 243q20.5 16 59.5 31l191 90q55 25 54 25l32 16q22 12 37.5 18t33.5 6q19 0 29 -14t10 -33q0 -20 -10.5 -30t-27 -19t-25.5 -14l-144 -61l-132 -55q53 -20 107 -36.5t131 -38.5q57 -16 75 -22q19 -6 28 -20.5t9 -29.5q0 -20 -13.5 -35t-31.5 -15q-14 0 -41 12
q-28 10 -38 13q-75 22 -203 73q-21 8 -41.5 15.5t-35.5 12.5q-30 10 -52 28t-22 39q0 28 20.5 44z" />
    <glyph glyph-name="equal" unicode="=" horiz-adv-x="561" 
d="M489 338q18 -8 18 -28q0 -11 -7 -22q-10 -20 -28.5 -26t-44.5 -6q-28 0 -55 3q-9 0 -28.5 1.5t-35.5 1.5q-36 0 -74 -3q-13 -1 -38 -2t-45 -1q-40 0 -59.5 3t-28.5 13t-9 32q0 28 29 41q12 4 29 4q7 0 73 -3q9 -1 32 -3t39 -2l19 1q84 4 159 4q37 0 55 -8zM489.5 173
q17.5 -7 17.5 -27q0 -11 -7 -22q-10 -20 -29 -26.5t-44 -6.5q-19 0 -55 2q-30 3 -64 3q-36 0 -74 -3q-13 -1 -38 -2t-45 -1q-39 0 -59 3.5t-29 14t-9 32.5q0 28 29 41q6 3 29 3q29 0 73 -4q52 -4 76 -4q16 0 68 2q64 2 105 2q38 0 55.5 -7z" />
    <glyph glyph-name="greater" unicode="&#x3e;" horiz-adv-x="550" 
d="M496.5 160q-21.5 -18 -51.5 -28q-7 -2 -83 -30q-135 -52 -197 -71q-22 -6 -39 -14q-29 -11 -41 -11q-17 0 -31 15.5t-14 34.5q0 15 9 29.5t29 20.5q18 6 75 22q77 22 131 38.5t107 36.5l-132 55l-144 61q-9 5 -28 15t-27 21t-8 27q0 19 10 33t29 14q17 0 31 -5.5
t41 -18.5q23 -13 30 -16l246 -115q39 -15 59 -31t20 -44q0 -21 -21.5 -39z" />
    <glyph glyph-name="question" unicode="?" horiz-adv-x="441" 
d="M405 481q0 -34 -15 -61t-47 -61q-28 -29 -41 -54.5t-16.5 -47t-7.5 -67.5q0 -23 -16 -33.5t-33 -10.5q-45 0 -45 54q0 29 10 69t37 87q9 16 23.5 32t18.5 21q16 17 27 35.5t11 32.5q0 16 -4.5 25t-13.5 20q-13 15 -34 24t-39 9q-29 0 -53.5 -10.5t-39 -27t-14.5 -33.5
q0 -28 11 -42q11 -13 11 -24q0 -6 -3 -14q-12 -28 -41 -28q-37 0 -54 28t-17 71q0 41 26 78.5t76 61.5t119 24q40 0 75 -17.5t58 -50.5q31 -42 31 -90zM277 87q15 -15 15 -41q0 -22 -21 -36.5t-46 -14.5q-18 0 -35 10q-21 15 -21 53q0 20 18.5 35t41.5 15q30 0 48 -21z" />
    <glyph glyph-name="at" unicode="@" horiz-adv-x="751" 
d="M500 184q-24 20 -38 58q-23 -40 -63 -63t-86 -23q-22 0 -38.5 8t-41.5 25q-16 10 -23.5 31.5t-7.5 46.5q0 30 6 53t17 50q30 71 75 90q24 11 37 15.5t28 4.5q27 0 54 -9.5t43 -33.5q11 14 20 20t26 6q14 0 23 -8t9 -24q0 -14 -11 -51q-12 -42 -12 -61q0 -36 10.5 -58
t33.5 -22q31 0 44.5 35.5t13.5 85.5q0 52 -10 83t-34 62q-21 28 -69.5 44.5t-97.5 16.5t-103 -25t-80 -53q-47 -49 -60 -93q-11 -35 -17 -63t-7 -58q0 -31 10 -65.5t28 -60.5q13 -18 31 -33.5t35 -20.5l27 -7q64 -17 84 -17q42 0 75 7t62 25q5 3 26 16.5t37 13.5
q39 0 39 -37q0 -22 -22 -38.5t-63 -35.5q-38 -18 -71 -23t-84 -5q-36 0 -108 12q-69 29 -101 60q-41 37 -66.5 92.5t-25.5 110.5q0 34 8 67t23 79q22 70 90 136q34 33 108.5 60t132.5 27q71 0 122.5 -20t75.5 -40q49 -43 69 -96t20 -126q0 -92 -36 -132q-28 -31 -51.5 -45
t-54.5 -14q-37 0 -61 20zM437 361q0 16 -19.5 33.5t-41.5 17.5q-29 0 -51 -20t-33.5 -51t-11.5 -62q0 -20 9 -36t18 -17q33 -1 71 24q59 46 59 111z" />
    <glyph glyph-name="A" unicode="A" horiz-adv-x="640" 
d="M506 52.5q-9 20.5 -19 49.5q-2 5 -11.5 30t-21.5 43q-63 -9 -103 -9q-22 0 -48.5 1.5t-39.5 1.5q-50 4 -80 4q-12 -16 -20.5 -34t-21.5 -54q-18 -52 -31 -74q-9 -15 -35 -15q-22 0 -40.5 9.5t-18.5 26.5q8 38 25.5 80.5t50.5 113.5l40 98q33 84 60.5 144t72.5 142
q6 12 20 20.5t31 8.5q19 0 27.5 -2.5t13.5 -8t15 -22.5q34 -53 58.5 -109t62.5 -155l21 -53q28 -72 48.5 -120.5t45.5 -88.5q16 -26 16 -36q0 -24 -14.5 -36.5t-37.5 -12.5q-29 0 -44 20q-13 17 -22 37.5zM379 375q-31 90 -62 143q-19 -48 -56 -124q-25 -47 -57 -136
q64 -8 138 -8q53 0 83 7q-16 34 -46 118z" />
    <glyph glyph-name="B" unicode="B" horiz-adv-x="646" 
d="M571.5 291.5q35.5 -37.5 35.5 -92.5t-40.5 -104t-103.5 -76q-28 -11 -73.5 -16t-93.5 -5q-80 0 -164 15q-15 3 -31.5 15t-16.5 35q-1 92 -7 256l-1 55q-4 128 -4 201q0 13 15.5 30.5t37.5 19.5q13 0 25 1q113 11 151 11q75 0 132.5 -14.5t95.5 -52.5q14 -16 23 -40.5
t9 -47.5q1 -49 -25.5 -90t-72.5 -54q73 -9 108.5 -46.5zM236.5 548q-36.5 -4 -61.5 -10l6 -189l36 1q87 9 128 15q26 6 51 23.5t41.5 37t16.5 29.5q0 15 -6 30.5t-13 22.5q-27 26 -55 35t-73 9q-34 0 -70.5 -4zM281 79q101 0 159.5 26.5t58.5 101.5q0 30 -45 50t-97 20
q-35 0 -89 -8q-43 -6 -84 -8q2 -60 2 -76q0 -31 -1 -47l-1 -52q51 -7 97 -7z" />
    <glyph glyph-name="C" unicode="C" horiz-adv-x="643" 
d="M581 526q6 -11 6 -21q0 -12 -15.5 -28t-30.5 -16q-20 0 -32 6t-20 19q-16 24 -39 41.5t-72 17.5q-42 0 -95.5 -19t-76.5 -47q-20 -25 -34.5 -76t-14.5 -99q0 -58 25.5 -106.5t74 -77.5t116.5 -29q37 0 76.5 14.5t68.5 47.5h-1q18 19 45 19q16 0 30.5 -14t14.5 -28
q0 -15 -4.5 -26.5t-16.5 -25.5q-41 -46 -97 -63t-134 -17q-69 0 -139.5 33t-108.5 80q-20 29 -38.5 83.5t-18.5 88.5q0 87 26.5 165.5t79.5 125.5q35 32 101 48t121 16q67 0 105.5 -18.5t76.5 -64.5q15 -18 21 -29z" />
    <glyph glyph-name="D" unicode="D" horiz-adv-x="662" 
d="M430.5 596.5q79.5 -37.5 120.5 -83.5q33 -38 54 -87.5t21 -118.5q0 -51 -23 -106.5t-60 -89.5q-39 -37 -73.5 -60t-93 -37.5t-148.5 -14.5q-68 0 -123 15.5t-55 52.5q0 15 13.5 23.5t29.5 8.5q9 0 12 -1q7 66 7 140q0 83 -4 137.5t-11 108.5q-1 7 -4.5 39t-3.5 65
q0 21 21 35.5t43 14.5q13 0 35 -2q18 -2 27 -2q136 0 215.5 -37.5zM265 89q66 0 125 27.5t95 77t36 114.5q0 68 -24 116t-74 79q-37 23 -91 33.5t-130 10.5q0 -24 3 -60q0 -12 2 -42q6 -116 6 -187q0 -103 -11 -165q24 -4 63 -4z" />
    <glyph glyph-name="E" unicode="E" horiz-adv-x="552" 
d="M510.5 121.5q9.5 -14.5 9.5 -31.5q0 -21 -6.5 -29.5t-24.5 -17.5q-42 -20 -104 -32t-133 -12q-89 0 -130.5 30t-51 72.5t-9.5 111.5q0 74 6 145.5t21 182.5q7 48 38 69.5t68 21.5q31 0 101 2l87 1q54 0 78 -3q30 -6 44.5 -13.5t14.5 -25.5q0 -20 -13.5 -39t-40.5 -19
q-31 0 -89 4t-87 4q-25 0 -49 -3q-28 -2 -40 -7t-14 -17q-14 -103 -14 -152q23 -3 45 -3q28 0 60 3t41 4q53 5 91 5q22 0 33.5 -8t11.5 -22q0 -22 -11.5 -34t-40.5 -18q-35 -7 -86.5 -11t-100.5 -4q-17 0 -47 2q-3 -61 -3 -113q0 -71 94 -71q50 0 83 7t76 20q40 15 64 15
q19 0 28.5 -14.5z" />
    <glyph glyph-name="F" unicode="F" horiz-adv-x="513" 
d="M167.5 10.5q-14.5 -10.5 -40.5 -10.5q-22 0 -34.5 12t-13.5 25q6 42 6 126q0 50 -6 154q-7 98 -7 174q0 41 4 84q0 14 16.5 30t45.5 20q95 10 233 10h32q36 0 70.5 -13t34.5 -45q0 -21 -10 -33t-37 -12q-13 0 -30 2t-24 3q-38 6 -59 6q-116 0 -175 -16q0 -33 2 -107
l1 -64q52 0 93 4.5t47 5.5q52 6 69 6q24 0 40.5 -10.5t16.5 -32.5q0 -50 -70 -50q-17 0 -30 -1t-22 -2q-36 -4 -57 -4q-46 0 -78 -3q0 -37 3 -78q0 -13 1.5 -40t1.5 -49q0 -19 -1 -35t-5 -31q-3 -15 -17.5 -25.5z" />
    <glyph glyph-name="G" unicode="G" horiz-adv-x="690" 
d="M457 526.5q-31 14.5 -72 14.5q-82 0 -141 -42q-45 -33 -67 -86t-22 -119q0 -63 29 -110.5t75 -72.5t96 -25t86.5 15.5t58.5 40.5q34 43 34 114q0 10 -16 14t-46 4l-72 -1q-29 0 -46 11t-17 28q0 24 16 35.5t43 11.5q32 0 86 -4t78 -4q35 0 56.5 -22t21.5 -64
q0 -39 -17 -91t-48 -93q-30 -40 -88.5 -60.5t-129.5 -20.5q-59 0 -114 19t-92 53q-46 43 -72.5 102.5t-26.5 118.5q0 86 40.5 167.5t109.5 126.5q30 20 84 33t99 13q70 0 123 -21.5t81 -61.5q12 -18 12 -32q0 -16 -14 -30t-28 -14q-6 0 -14 2t-12 5q-43 31 -74 45.5z" />
    <glyph glyph-name="H" unicode="H" horiz-adv-x="692" 
d="M512 406v38q0 38 -2 57q-2 16 -2 83q0 24 14.5 37.5t39.5 13.5q32 0 43 -14t11 -46v-38l-1 -110q-1 -32 -1 -96l1 -82q1 -19 1 -53q0 -27 2 -77q2 -46 2 -69q0 -19 -10.5 -35t-28.5 -16q-70 0 -70 47q0 26 2 58q2 23 2 70q0 33 -2 95q-47 -4 -162 -4q-72 0 -112 0.5
t-58 4.5l-1 -115q0 -11 5 -59q5 -32 5 -56q0 -15 -17.5 -28.5t-32.5 -13.5q-36 0 -49 17.5t-13 53.5l-1 79q-1 14 -1 39q0 37 -2 101q-2 58 -2 84q0 39 2 109q2 66 2 98t16 43t36 11q56 0 56 -37q0 -66 -3 -126q-2 -76 -2 -111q29 -7 61 -9t90 -2q118 0 183 10q-1 16 -1 48z
" />
    <glyph glyph-name="I" unicode="I" horiz-adv-x="373" 
d="M230 429q0 -61 8 -179q1 -18 4 -72.5t3 -99.5q10 1 21.5 3t17.5 2q22 0 35 -11t13 -34q0 -15 -12 -23t-41.5 -11.5t-85.5 -3.5q-62 0 -93 4t-43 15.5t-12 34.5q0 17 11 23t31 6l21 -1l33 -2l-5 118q-6 96 -6 176q0 43 3 118l2 55q-34 -2 -53 -2q-22 0 -29.5 8t-7.5 33
q0 28 38.5 36t117.5 8q61 0 91.5 -4t30.5 -18q0 -34 -14.5 -44.5t-55.5 -10.5l-20 -1q-3 -64 -3 -123z" />
    <glyph glyph-name="J" unicode="J" horiz-adv-x="490" 
d="M124 99.5q13 -20.5 41 -20.5q70 0 95.5 57t25.5 156q0 48 -6 134q-6 82 -6 122q-107 0 -107 42q0 25 8.5 33t26.5 8q11 0 24 -1.5t19 -1.5q20 -3 38 -3q33 0 61 3q36 2 54 2q36 0 50.5 -7t14.5 -27q0 -21 -10.5 -29.5t-30.5 -12.5l-46 -5q-1 -66 8 -158q1 -14 4 -52.5
t3 -70.5q0 -130 -55 -200.5t-164 -70.5q-68 0 -113.5 39.5t-45.5 118.5q0 22 16 35.5t43 13.5q19 0 29 -13t10 -25q0 -46 13 -66.5z" />
    <glyph glyph-name="K" unicode="K" horiz-adv-x="639" 
d="M626.5 63q5.5 -8 5.5 -23q0 -19 -14.5 -30.5t-33.5 -11.5q-22 0 -50 11q-56 25 -109.5 92.5t-128.5 194.5q-57 -44 -116 -82q0 -21 1.5 -48.5t1.5 -40.5q2 -58 2 -77q0 -17 -11 -32.5t-33 -15.5q-32 0 -46 10.5t-17 30.5q-8 50 -8 96q0 52 8 150q8 94 8 141q0 18 -2 52
q-1 27 -6 50q-4 32 -4 45q0 32 14 46t43 14q22 0 36.5 -12.5t16.5 -33.5q5 -85 5 -131q-1 -25 -3.5 -71.5t-4.5 -58.5q34 19 133.5 109.5t141.5 142.5l13 15q16 21 27 29t30 8t34.5 -12.5t15.5 -29.5q0 -33 -34 -67q-83 -86 -166 -160q117 -219 235 -287q10 -5 15.5 -13z
" />
    <glyph glyph-name="L" unicode="L" horiz-adv-x="505" 
d="M157.5 625q15.5 -10 18.5 -35q12 -79 15.5 -157.5t3.5 -177.5q0 -42 -7 -153q44 -4 68 -4q17 0 77 5q35 5 61 5q24 0 44 -4.5t41 -14.5q21 -12 21 -37q0 -20 -12.5 -36t-29.5 -16q-12 0 -38 4q-47 7 -90 7q-14 0 -31.5 -1.5t-25.5 -1.5q-24 -3 -48 -3q-49 0 -88 5
q-20 2 -40 15.5t-20 39.5q0 15 4 77q7 103 7 157q0 42 -4 88t-5 58q-9 85 -9 140q0 26 12.5 38t40.5 12q19 0 34.5 -10z" />
    <glyph glyph-name="M" unicode="M" horiz-adv-x="786" 
d="M683.5 613.5q20.5 -18.5 20.5 -31.5q0 -61 -4 -167q-1 -26 -2 -62.5t-1 -84.5q0 -152 18 -224q-1 -24 -19 -34.5t-36 -10.5q-40 0 -52.5 28t-12.5 80q0 193 4 355q-115 -128 -179 -215l-18 -12q-17 -15 -28 -15q-26 0 -43 13t-33 38l-48 68q-50 70 -73 106q0 -92 9 -250
q7 -91 7 -137q0 -24 -12 -40.5t-38 -16.5t-42.5 10t-17.5 30q1 17 1 56q0 78 -5 190l-2 54l-2 70q-1 31 -2 72.5t-1 90.5q0 60 65 60q20 0 40.5 -10t30.5 -29q8 -35 59 -116t100 -152q44 56 72 84q48 49 79.5 91t68.5 101q9 12 26 20.5t36 8.5q14 0 34.5 -18.5z" />
    <glyph glyph-name="N" unicode="N" horiz-adv-x="675" 
d="M503.5 612.5q13.5 21.5 40.5 21.5q23 0 41 -9t18 -30q0 -41 -4 -115q-4 -72 -4 -107q0 -55 4 -147q4 -88 4 -129q0 -33 -1 -49q0 -16 -17.5 -31.5t-53.5 -15.5q-19 0 -32.5 6.5t-18.5 14.5q-47 57 -137 194q-101 153 -165 234q8 -72 8 -176q0 -46 -1.5 -119.5t-4.5 -96.5
q-4 -29 -17.5 -44.5t-42.5 -15.5q-22 0 -32.5 12.5t-12.5 43.5q-1 41 5 123q1 13 3 45t2 57q0 69 -7 158q-6 98 -6 145q0 24 17.5 37t40.5 13q20 0 42 -10q86 -108 233 -322l94 -144q1 16 1 45q0 51 -2 110t-3 80q-5 97 -5 171q0 29 13.5 50.5z" />
    <glyph glyph-name="O" unicode="O" horiz-adv-x="725" 
d="M469 619.5q55 -16.5 90 -48.5q63 -57 88.5 -124.5t25.5 -172.5q0 -22 -5.5 -40t-17.5 -46q-15 -31 -18 -49q-20 -35 -65.5 -67t-98.5 -52t-93 -20q-193 0 -275 132q-23 37 -35.5 77t-12.5 78q0 102 36.5 177.5t101.5 117.5q39 23 81.5 38.5t75.5 15.5q67 0 122 -16.5z
M180.5 195q24.5 -35 75.5 -76q42 -16 57 -20.5t34 -4.5q101 0 161 55t60 151q0 76 -17 120t-61 79q-23 19 -58.5 28t-76.5 9q-62 0 -107 -36.5t-68.5 -94.5t-23.5 -121q0 -54 24.5 -89z" />
    <glyph glyph-name="P" unicode="P" horiz-adv-x="571" 
d="M253.5 228.5q-26.5 2.5 -69.5 8.5l-1 -105q-1 -27 -1 -77q0 -26 -14.5 -40.5t-32.5 -14.5q-33 0 -49 8.5t-16 30.5q0 29 5 82q11 114 11 234q0 112 -7 211q1 14 14.5 32t34.5 20q23 0 73 8q52 8 79 8q82 0 127.5 -16t91.5 -53q50 -78 50 -110q0 -67 -27 -119t-79 -81
t-124 -29q-39 0 -65.5 2.5zM240.5 545.5q-23.5 -3.5 -56.5 -11.5q4 -92 4 -134q0 -43 -3 -72q43 -9 68 -11.5t56 -2.5q74 0 104.5 38.5t30.5 89.5q0 15 -9 37t-16 29q-27 24 -52.5 32.5t-70.5 8.5q-32 0 -55.5 -3.5z" />
    <glyph glyph-name="Q" unicode="Q" horiz-adv-x="725" 
d="M469 619.5q55 -16.5 90 -48.5q63 -57 88.5 -124.5t25.5 -172.5q0 -34 -32 -114q-18 -35 -37.5 -55t-59.5 -48q34 -54 53.5 -74.5t44.5 -20.5q8 0 12 1q3 1 9 1q14 0 22.5 -9.5t8.5 -22.5q0 -7 -4 -15t-11 -12q-19 -12 -33 -15.5t-51 -3.5q-39 0 -69.5 34.5t-63.5 95.5
q-43 -16 -87 -16q-193 0 -275 132q-23 37 -35.5 77t-12.5 78q0 102 36.5 178t101.5 117q38 24 80.5 39t76.5 15q67 0 122 -16.5zM165.5 221.5q11.5 -28.5 33.5 -53.5q18 38 51 57t78 19q47 0 80 -17t49 -35.5t40 -52.5q71 57 71 161q0 78 -16.5 121t-61.5 80
q-24 20 -59.5 30t-75.5 10q-61 0 -107 -37.5t-70 -96t-24 -120.5q0 -37 11.5 -65.5zM294 156.5q-24 -11.5 -33 -42.5l13 -10q21 -8 37 -11.5t36 -3.5q33 0 71 11q-18 33 -35.5 50.5t-36.5 17.5q-28 0 -52 -11.5z" />
    <glyph glyph-name="R" unicode="R" horiz-adv-x="604" 
d="M466.5 160.5q35.5 -45.5 93.5 -111.5q7 -7 7 -16q0 -14 -15.5 -24t-37.5 -10q-31 0 -67 26q-32 23 -57 61t-58 99q-26 47 -31 55q-39 -16 -122 -20q0 -34 6 -92q6 -60 6 -87q0 -18 -17.5 -30t-39.5 -12q-26 0 -40 21q-14 28 -18 67t-4 93q0 57 7 129q6 80 6 118
q0 31 -6 83q-1 9 -3 31t-2 40q0 14 10.5 24.5t22.5 14.5q81 13 158 13q131 0 217 -49t86 -149q0 -31 -13.5 -59.5t-36.5 -47.5q-61 -47 -122 -63q35 -59 70.5 -104.5zM412 516.5q-51 30.5 -145 30.5q-42 0 -83 -10l1 -51q0 -44 -3 -86t-3 -90q17 4 36 5.5t25 2.5q44 4 68 10
q45 14 74.5 25.5t55 33t25.5 51.5q0 48 -51 78.5z" />
    <glyph glyph-name="S" unicode="S" horiz-adv-x="562" 
d="M499.5 100.5q-21.5 -33.5 -70.5 -61.5q-33 -20 -77 -30t-89 -10q-46 0 -114 30q-49 24 -77.5 57t-28.5 72q0 27 12 39.5t39 12.5q14 0 29 -11.5t18 -22.5q14 -41 49 -62.5t87 -21.5q60 0 100.5 22t40.5 59q0 36 -44 64t-90 39q-66 18 -117 43q-53 26 -79 64t-26 80
q0 39 27 79.5t64 58.5q20 10 68.5 21.5t70.5 11.5q29 0 64 -7t57 -20q44 -25 65 -45t21 -50q0 -18 -13.5 -32t-46.5 -14q-8 0 -16 7t-20 21q-16 21 -31 28q-15 5 -43.5 11t-50.5 6q-24 0 -50 -10t-43.5 -28.5t-17.5 -42.5q0 -20 18.5 -34.5t44.5 -23.5q30 -12 65 -21
q46 -14 75.5 -25.5t57.5 -28.5q49 -29 71 -59.5t22 -84.5q0 -47 -21.5 -80.5z" />
    <glyph glyph-name="T" unicode="T" horiz-adv-x="561" 
d="M74 626q27 0 103 -2q84 -4 127 -4q35 0 85 4q34 2 43 2q55 -2 93 -20q11 -5 18 -12t7 -23q0 -22 -14 -37.5t-34 -15.5q-22 0 -64 6q-37 7 -65 7q-27 0 -41 -1q-3 -33 -3 -158q0 -149 9 -302l2 -29q0 -41 -47 -41q-37 0 -50 17.5t-13 53.5q0 71 -4 177q-4 88 -4 125
q0 25 6 153l-117 -1q-56 0 -78 10.5t-22 47.5q0 43 63 43z" />
    <glyph glyph-name="U" unicode="U" horiz-adv-x="663" 
d="M175 503l-1 -65q0 -95 14 -159q20 -90 60 -139q37 -43 91 -43q42 0 75 25.5t51 63.5q30 62 30 153q0 55 -7 130q-6 84 -6 126q0 22 26 28.5t54 6.5q10 0 23 -13t13 -28q0 -30 -3 -57q-2 -30 -2 -42q0 -38 4 -106q1 -17 2 -41t1 -55q0 -68 -32.5 -135.5t-90.5 -111
t-131 -43.5q-112 0 -175 72.5t-86 187.5q-13 66 -16.5 138t-3.5 193q0 16 15.5 30t33.5 14q63 0 63 -53q0 -29 -2 -77z" />
    <glyph glyph-name="V" unicode="V" horiz-adv-x="589" 
d="M212 363.5q47 -131.5 86 -227.5q29 93 80 223.5t95 235.5q13 31 44 31q29 0 44 -11.5t15 -39.5q0 -11 -3 -19t-9 -21q-31 -61 -62 -140.5t-76 -201.5q2 5 -28 -75l-33 -86q-6 -16 -19.5 -24.5t-30.5 -8.5t-37.5 8.5t-29.5 17.5q-34 65 -86.5 188t-90.5 227l-15 41
q-15 42 -22 64.5t-7 36.5q0 20 22.5 32t43.5 12q11 0 21 -5t14 -16q37 -110 84 -241.5z" />
    <glyph glyph-name="W" unicode="W" horiz-adv-x="855" 
d="M742 612.5q12 13.5 26 13.5q34 0 49 -13t15 -45q0 -9 -14 -51q-31 -95 -68 -235q-9 -32 -14.5 -56t-9.5 -40q-24 -103 -42 -155q-6 -15 -21 -23.5t-32 -8.5t-33.5 7.5t-23.5 17.5q-31 61 -76.5 166.5t-70.5 184.5q-62 -157 -111 -303l-6.5 -19.5t-7.5 -21.5
q-7 -15 -20 -23.5t-29 -8.5q-18 0 -35 7.5t-23 17.5q-13 22 -27.5 68t-38.5 129l-25 85q-26 83 -45 170t-19 104q0 21 21 33.5t42 12.5q12 0 25 -7.5t17 -25.5q35 -187 103 -434q26 62 57.5 151t60.5 173l10 30q4 15 20.5 23.5t33.5 8.5q22 0 36 -11t18 -24q1 -4 40 -119
t93 -232q20 59 48 189l15 66q27 106 44 164q6 21 18 34.5z" />
    <glyph glyph-name="X" unicode="X" horiz-adv-x="639" 
d="M575.5 620.5q10.5 -12.5 10.5 -33.5q0 -23 -12 -52q-35 -32 -79 -85t-104 -132q55 -90 89 -135.5t65 -62.5q13 -7 31 -12q23 -7 34 -14t11 -21q0 -28 -26 -41.5t-63 -13.5q-48 0 -94.5 53t-111.5 158q-63 -83 -105 -134.5t-76 -83.5q-7 -6 -20 -9.5t-22 -3.5
q-22 0 -37.5 18t-16.5 37q0 3 11 20t34 39q25 19 65.5 68t109.5 139l-29 46q-38 60 -56 86t-34 39.5t-34 13.5q-6 0 -18.5 -3.5t-20.5 -3.5q-11 0 -20 4q-25 11 -25 33q0 10 4 17q8 18 33.5 33.5t69.5 15.5q41 0 71 -21t55.5 -57t70.5 -113q99 134 140 180q24 28 38 36t31 8
q20 0 30.5 -12.5z" />
    <glyph glyph-name="Y" unicode="Y" horiz-adv-x="569" 
d="M529 534q-37 -42 -193 -258q2 -129 8 -177q3 -30 3 -43q0 -33 -11.5 -44.5t-39.5 -11.5q-21 0 -39.5 12.5t-18.5 30.5q0 73 -3 214q0 6 -8 20t-10 18q-21 37 -52.5 82.5t-54.5 68.5q-44 44 -69 79.5t-25 50.5q0 21 19.5 33.5t42.5 12.5q13 0 27.5 -7t23.5 -20
q59 -88 105 -146l47 -61q43 44 75.5 87.5t71.5 103.5l17 26q19 26 59 26q19 0 37.5 -11t18.5 -33q0 -18 -31 -53z" />
    <glyph glyph-name="Z" unicode="Z" horiz-adv-x="569" 
d="M44 39.5q-15 17.5 -15 36.5q0 12 5 27t10 21q47 58 176 204t173 195l-39 2q-53 3 -89 3q-13 0 -66 -5q-33 -5 -60 -5q-39 0 -56.5 7.5t-21 17.5t-3.5 28q0 13 10.5 26.5t25.5 15.5q40 5 107 9.5t109 4.5q127 0 179 -13q13 -4 22 -20t9 -25q0 -12 -3.5 -25t-9.5 -22
q-13 -23 -60 -83.5t-100 -121.5q-56 -66 -114.5 -131t-75.5 -83q28 1 86 5q94 6 141 6q37 0 82.5 -5t68.5 -20q7 -4 13.5 -23t6.5 -31q0 -13 -12.5 -23t-34.5 -10q-2 0 -44 4q-87 10 -115 10l-71 -1q-48 -2 -73 -2q-61 0 -102 5q-44 4 -59 21.5z" />
    <glyph glyph-name="bracketleft" unicode="[" horiz-adv-x="301" 
d="M77 -182q0 34 3 75.5t4 57.5q9 90 9 163q0 214 -9 341q-1 15 -4 37t-4 33q-8 60 -8 82q0 16 3 25q6 14 30.5 21t57.5 7q116 0 116 -45q0 -23 -16 -33.5t-37 -12.5t-56 -2q13 -192 13 -352q0 -10 -3 -238l-2 -116q6 -1 19 -1l33 1q26 0 39.5 -9.5t13.5 -36.5
q-3 -19 -19 -26t-42 -7q-18 0 -28 1l-31 1q-14 0 -26 -3q-14 -2 -21 -2q-35 1 -35 39z" />
    <glyph glyph-name="backslash" unicode="\" horiz-adv-x="419" 
d="M102.5 619.5q19.5 -22.5 36.5 -56.5q39 -72 85 -178q46 -103 83.5 -176t92.5 -152q9 -14 9 -26q0 -36 -50 -36q-40 0 -71 60q-26 48 -67 140q-28 66 -43 95q-31 61 -45 89q-36 72 -60 117t-57 97q-5 12 -5 20q0 12 10 20.5t26 8.5q36 0 55.5 -22.5z" />
    <glyph glyph-name="bracketright" unicode="]" horiz-adv-x="301" 
d="M168 -219q-14 3 -26 3l-31 -1q-9 -1 -27 -1q-27 0 -43 7t-19 26q0 27 14 36.5t40 9.5l35 -1q12 0 17 1l-2 116q-4 152 -4 238q0 133 13 352q-35 0 -56 2t-37 12.5t-16 33.5q0 45 116 45q33 0 57.5 -7t30.5 -21q3 -9 3 -25t-3 -41.5t-4 -35.5q-7 -42 -8 -75
q-9 -127 -9 -341q0 -63 8 -163q7 -81 7 -133q0 -38 -34 -39q-8 0 -22 2z" />
    <glyph glyph-name="asciicircum" unicode="^" horiz-adv-x="547" 
d="M84 233q-17 0 -35 10t-18 18q0 13 18 53.5t52 109.5q40 82 56 120q14 35 39.5 66.5t58.5 31.5q20 0 42 -16q10 -7 52 -65.5t60 -86.5q20 -29 34 -63q14 -33 34 -65q8 -11 15 -20q24 -28 24 -47t-17 -31t-38 -12q-17 0 -33 14.5t-29.5 35t-22.5 35.5q-19 33 -40 75
q-21 41 -36.5 69t-36.5 57q-17 -15 -46 -63t-37 -67q-7 -14 -24 -61q-18 -57 -37 -82q-16 -16 -35 -16z" />
    <glyph glyph-name="underscore" unicode="_" horiz-adv-x="414" 
d="M397 -47.5q12 -9.5 12 -35.5q0 -16 -30.5 -23.5t-59.5 -7.5q-41 0 -78 1l-152 2h-34.5t-39.5 11t-11 35q0 16 18 21.5t61 5.5h271q31 0 43 -9.5z" />
    <glyph glyph-name="grave" unicode="`" horiz-adv-x="517" 
d="M253.5 683.5q14.5 -9.5 25.5 -33.5q10 -21 18.5 -31.5t16 -17t11.5 -9.5q9 -8 15 -14t6 -12q0 -9 -5.5 -14.5t-15.5 -5.5q-12 0 -36 6t-39 15q-29 17 -54 42t-25 52q0 14 13 23t34 9t35.5 -9.5z" />
    <glyph glyph-name="a" unicode="a" horiz-adv-x="521" 
d="M484.5 11q-23.5 -15 -43.5 -15q-38 0 -60.5 9.5t-41.5 35.5q-26 -23 -71 -34.5t-83 -11.5q-62 0 -102 33.5t-40 98.5q0 28 15 51.5t41 41.5q29 19 66 29.5t77 10.5q21 0 50 -8t45 -17v16q0 54 -26 74.5t-84 20.5q-17 0 -33.5 -7t-37.5 -19q-28 -15 -53 -15q-9 0 -17 12.5
t-8 22.5q0 29 27.5 50t65.5 31.5t68 10.5t69 -11.5t64 -31.5q30 -26 46.5 -60.5t16.5 -75.5q0 -13 -2 -39q-2 -28 -2 -48q0 -9 -2 -27q-2 -22 -2 -35q0 -12 9 -20.5t21 -8.5l28 1q11 0 17 -8t6 -20q0 -22 -23.5 -37zM258 83q29 9 70 33q4 17 5 45q-55 26 -91 26
q-41 0 -73 -15t-32 -53q0 -19 16 -32t33 -13q43 0 72 9z" />
    <glyph glyph-name="b" unicode="b" horiz-adv-x="520" 
d="M78 265l1 95q0 58 -3 127q-1 21 -7 58q-8 56 -8 84q0 46 46 46q29 0 41.5 -15.5t17.5 -48.5q10 -69 10 -162q0 -28 -2 -84q19 30 49.5 47t60.5 17q87 0 150 -72q17 -25 30.5 -59.5t13.5 -59.5q0 -44 -9.5 -81t-33.5 -72t-60.5 -57t-84.5 -22q-42 0 -75.5 17t-53.5 45
q-5 -25 -22 -49.5t-39 -24.5q-18 0 -30 9.5t-12 28.5q0 14 6 35q6 29 9.5 53.5t3.5 59.5q0 56 1 85zM347 123.5q33 34.5 33 93.5q0 54 -29 93q-10 13 -28.5 21t-36.5 8q-42 0 -71 -24.5t-33 -67.5q-4 -58 -4 -100q12 -23 36.5 -40.5t50.5 -17.5q49 0 82 34.5z" />
    <glyph glyph-name="c" unicode="c" horiz-adv-x="469" 
d="M363 290q-15 0 -25 7t-22 21q-30 33 -52 33q-29 0 -56.5 -17t-44.5 -48t-17 -69q0 -42 16.5 -70t51.5 -48q13 -7 30.5 -11t30.5 -4q29 0 73 23q16 8 27 12t23 4q11 0 25 -10t14 -25q0 -30 -28 -50.5t-68.5 -31t-77.5 -10.5q-59 0 -109.5 27t-80.5 74.5t-30 107.5
q0 64 29 117t78 83t107 30q33 0 68 -12t59 -35t24 -54q0 -44 -45 -44z" />
    <glyph glyph-name="d" unicode="d" horiz-adv-x="552" 
d="M447 571q-11 -110 -11 -223q0 -99 3 -151t15 -79.5t37 -27.5q48 0 48 -32q0 -21 -21 -35.5t-46 -14.5q-30 0 -56 14t-41 43q-21 -31 -60.5 -49.5t-76.5 -18.5q-57 0 -101 24t-68 65.5t-24 91.5q0 48 11.5 92.5t31.5 73.5q27 38 72.5 60.5t89.5 22.5q27 0 51 -10.5
t42 -25.5q0 67 -1 84v21q0 93 12 136q11 42 53 42q23 0 34 -10t11 -38q0 -10 -5 -55zM170.5 106q26.5 -28 63.5 -28q53 0 78.5 33t25.5 85l-1 99q-39 43 -81 43q-29 0 -54.5 -14.5t-40.5 -43.5q-17 -33 -17 -100q0 -46 26.5 -74z" />
    <glyph glyph-name="e" unicode="e" horiz-adv-x="477" 
d="M59 288.5q14 38.5 37 70.5t73 52.5t89 20.5q40 0 81.5 -11t57.5 -34q37 -52 37 -102q0 -27 -11.5 -46t-32.5 -41q-17 -18 -53.5 -24t-72.5 -6q-23 0 -56 4.5t-64 11.5q2 -20 10 -39t19 -29q20 -19 41.5 -24t55.5 -5q36 0 67 12q25 9 41 9q19 0 29 -11.5t10 -29.5
q0 -25 -29 -41t-66.5 -23.5t-60.5 -7.5q-47 0 -91 17t-73 48q-24 28 -38 67.5t-14 84.5q0 38 14 76.5zM219 338.5q-22 -8.5 -36 -23.5q-18 -19 -24.5 -30.5t-8.5 -31.5q25 -8 104 -8q43 0 66.5 13t23.5 34t-26 38t-55 17q-22 0 -44 -8.5z" />
    <glyph glyph-name="f" unicode="f" horiz-adv-x="379" 
d="M319 528q-13 7 -18 21q-10 27 -21.5 38.5t-27.5 11.5q-10 0 -18.5 -15t-12.5 -47q-7 -66 -7 -101q15 -3 42 -3q14 0 36 2l27 1q18 0 28 -7t10 -23q0 -23 -14 -38t-33 -15q-72 0 -97 -7q0 -60 6 -172q0 -17 2 -49l4 -77q2 -29 -5.5 -40.5t-31.5 -11.5q-44 0 -57 53
q-8 38 -12.5 108.5t-4.5 124.5q0 28 3 65q-2 1 -11 1t-13 -1q-30 -2 -44 -2q-9 0 -18 13t-9 30q0 10 7 18.5t17 12.5q15 8 43 8h30q0 140 31 195q30 52 99 52q32 0 61.5 -13t48 -36t18.5 -52q0 -31 -8 -41.5t-23 -10.5q-14 0 -27 7z" />
    <glyph glyph-name="g" unicode="g" horiz-adv-x="513" 
d="M450.5 -40q9.5 -23 9.5 -64q0 -20 -11.5 -40t-23.5 -29q-95 -52 -190 -52q-47 0 -81 12t-64 32q-20 15 -32.5 41.5t-12.5 52.5q0 36 22.5 63t60.5 39q-7 15 -7 35q0 19 28 57q-48 16 -75.5 57t-27.5 96q0 34 16 60.5t48 61.5q22 24 56 35t85 11q36 0 89 -16q63 44 111 44
q12 0 27.5 -6t23.5 -12q6 -11 6 -37q0 -10 -8.5 -19.5t-21.5 -9.5l-24 1q-18 2 -28 2q-11 0 -33 -2q21 -25 32.5 -53t11.5 -73q0 -34 -25 -71t-59 -58q-52 -28 -121 -29q-8 -8 -13.5 -14.5t-5.5 -10.5q0 -11 19 -17t58 -9q30 -2 66.5 -12.5t57.5 -23.5q27 -19 36.5 -42z
M312 196q28 25 28 71q0 35 -25 57t-64 22q-25 0 -53.5 -8.5t-40.5 -26.5q-6 -8 -12 -30.5t-6 -34.5q0 -17 14.5 -34.5t38 -29t46.5 -11.5q46 0 74 25zM223.5 -36.5q-22.5 4.5 -36.5 10.5q-51 -27 -51 -59q0 -30 31 -45.5t71 -15.5q18 0 49 4t52 14q14 7 21 13.5t7 23.5
q0 21 -22 32t-44 13q-55 5 -77.5 9.5z" />
    <glyph glyph-name="h" unicode="h" horiz-adv-x="538" 
d="M173 573.5q-1 -34.5 -2 -52.5q-3 -51 -3 -102q0 -38 3 -79q31 45 67 66t87 21q37 0 69 -33t41 -77q3 -39 3 -95q0 -36 4 -94q2 -22 11.5 -41t27.5 -19q9 0 14.5 1t10.5 1q14 0 19.5 -7t5.5 -20q0 -24 -24 -36t-44 -12q-72 0 -99 60q-15 34 -19 88.5t-4 127.5q0 72 -49 72
q-27 0 -54.5 -28.5t-45.5 -75t-18 -96.5l1 -104q0 -22 -17 -32.5t-32 -10.5q-22 0 -40 13.5t-18 30.5q7 75 7 251q0 32 -5 237l-3 92q0 22 20 38.5t45 16.5q22 0 32 -10t10 -31q0 -26 -1 -60.5z" />
    <glyph glyph-name="i" unicode="i" horiz-adv-x="256" 
d="M165 623.5q26 -15.5 26 -46.5q0 -23 -21.5 -36.5t-51.5 -13.5q-29 0 -40 15t-11 31q0 30 6.5 50t30.5 19q35 -3 61 -18.5zM184 199v-29q0 -39 2.5 -73.5t6.5 -69.5q-1 -10 -15 -20.5t-25 -10.5q-19 0 -38.5 7.5t-23.5 18.5q-6 32 -6 57q0 82 -5 184q-4 90 -4 126
q0 18 18 31t38 13q29 0 40.5 -13t11.5 -41v-180z" />
    <glyph glyph-name="j" unicode="j" horiz-adv-x="247" 
d="M156 625q24 -14 24 -45q0 -23 -19.5 -36.5t-48.5 -13.5q-30 0 -41.5 14t-11.5 29q0 29 7 49.5t31 19.5q35 -3 59 -17zM167 420.5q13 -13.5 13 -28.5q0 -9 -2 -31q-3 -33 -3 -66q0 -42 3 -83q2 -42 2 -61q4 -124 4 -202q0 -76 -37.5 -114.5t-103.5 -38.5q-20 0 -43 15.5
t-23 33.5q0 15 8 24t19 9q7 0 18.5 -3t17.5 -3q17 0 27 5t16 25t6 62q0 221 -11 341q-6 60 -6 91q0 14 14.5 26t43.5 12q24 0 37 -13.5z" />
    <glyph glyph-name="k" unicode="k" horiz-adv-x="517" 
d="M96 3q-14 7 -17 15q-11 40 -11 105q0 120 4 195q4 89 4 171q0 24 -6 70q-1 8 -3 29t-2 39q0 22 15.5 35t40.5 13q20 0 32.5 -12.5t12.5 -33.5q0 -32 2 -90q2 -54 2 -81q0 -30 -2 -80q-2 -30 -2 -44q0 -44 1 -73q37 37 97 87t93 70q35 21 46 21q21 0 36 -9t15 -26t-5 -27
t-18 -20l-129 -94q22 -11 37.5 -28t31.5 -42q34 -56 54.5 -82t37.5 -26l25 1q7 0 12.5 -8t5.5 -23q0 -23 -22.5 -37t-50.5 -14q-39 0 -69 30.5t-57 82.5q-39 74 -77 88l-64 -52l4 -109q0 -26 -13.5 -37t-26.5 -11q-20 0 -34 7z" />
    <glyph glyph-name="l" unicode="l" horiz-adv-x="283" 
d="M176.5 96.5q11.5 -20.5 29.5 -20.5q10 0 19 1.5t18 1.5q10 0 17.5 -10t7.5 -22q0 -24 -22.5 -37.5t-60.5 -13.5q-27 0 -54.5 16.5t-45.5 52t-18 88.5q0 114 4 193q5 94 5 237q0 45 5 63q6 14 19.5 21.5t28.5 7.5t26.5 -5t15.5 -16q4 -12 5.5 -23.5t1.5 -32.5
q0 -41 -3 -79q-2 -46 -2 -67q-8 -176 -8 -297q0 -38 11.5 -58.5z" />
    <glyph glyph-name="m" unicode="m" horiz-adv-x="841" 
d="M665 97.5q-4 34.5 -4 95.5q0 58 -16 101t-66 43q-19 0 -37.5 -11.5t-27.5 -28.5q-14 -27 -19 -58.5t-5 -72.5q0 -26 3 -53q0 -8 1.5 -25.5t1.5 -31.5q0 -60 -42 -60q-55 0 -58 58q0 41 1 44v43q0 36 -3 70t-7 51q-9 33 -23.5 51t-45.5 18q-44 0 -71 -38q-19 -30 -25 -73
q-6 -55 -8.5 -86.5t-2.5 -72.5q0 -29 -9.5 -47t-35.5 -18q-19 0 -39.5 10.5t-20.5 28.5q0 19 4 38q9 57 9 204q0 24 -11.5 46.5t-27.5 22.5q-4 0 -14.5 -4t-15.5 -4q-13 0 -23.5 12t-10.5 20q0 25 24.5 42.5t51.5 17.5q37 0 63 -23t40 -64q23 40 62 64.5t87 24.5
q30 0 48.5 -7.5t30.5 -21t31 -40.5q25 32 64.5 50t81.5 18q50 0 90 -40.5t54 -93.5q7 -27 7 -104l4 -58q5 -52 34 -63q34 -10 34 -21q0 -24 -12 -35q-9 -6 -25 -13t-25 -7q-54 0 -77 39q-15 28 -19 62.5z" />
    <glyph glyph-name="n" unicode="n" horiz-adv-x="565" 
d="M525 72q11 -3 16 -6t5 -9q1 -24 -17.5 -39.5t-43.5 -15.5q-39 0 -61 21t-32 64q-4 17 -4 47q0 17 2 55q2 40 2 64q0 35 -19.5 61.5t-54.5 26.5q-21 0 -44 -12.5t-32 -30.5q-15 -29 -21 -63q-11 -60 -11 -125q0 -31 1 -48q0 -4 0.5 -15.5t-2 -21t-8.5 -17.5
q-5 -5 -15.5 -8.5t-19.5 -3.5q-14 0 -35 12t-24 27l-1 17q0 9 2 21q12 70 12 122q0 23 -1 36l-1 47q0 24 -12 46.5t-28 22.5q-5 0 -14 -3.5t-15 -3.5q-10 0 -21.5 10t-11.5 21q0 21 14 34q15 12 29.5 19t33.5 7q16 0 26 -3t27 -13q9 -5 21 -22t20 -48q26 48 64.5 67.5
t98.5 19.5q23 0 49.5 -15t45.5 -35q18 -22 30 -54.5t12 -58.5q0 -15 -2 -49q-3 -27 -3 -57q0 -70 27 -86q5 -2 16 -5z" />
    <glyph glyph-name="o" unicode="o" horiz-adv-x="512" 
d="M462 280.5q5 -26.5 5 -47.5q0 -39 -17 -111q-69 -126 -204 -126q-50 0 -102 33t-72 76q-27 86 -27 109q0 40 17.5 85t44.5 78q17 23 61 39.5t80 16.5q70 0 119 -26.5t82 -85.5q8 -14 13 -40.5zM367 227q0 29 -10.5 57t-30.5 48q-2 2 -11 6.5t-24.5 9t-35.5 4.5
q-56 0 -82 -45t-26 -102q0 -10 5.5 -38t9.5 -35q3 -7 15.5 -19.5t31 -22t38.5 -9.5q45 0 72 21.5t43 57.5q5 13 5 67z" />
    <glyph glyph-name="p" unicode="p" horiz-adv-x="529" 
d="M59 346.5q-8 -1.5 -16 -1.5q-11 0 -20.5 10t-9.5 18q0 26 26 40.5t53 14.5q23 0 47.5 -15.5t36.5 -39.5q26 31 64 45t79 14q46 0 85.5 -29t62.5 -73.5t23 -88.5q0 -43 -9 -76.5t-32 -67.5q-26 -36 -69.5 -59t-103.5 -23q-16 0 -39 8.5t-38 18.5q-7 -68 -7 -118
q0 -30 3 -57q2 -32 2 -46q0 -22 -15 -32.5t-33 -10.5q-36 0 -47.5 19.5t-11.5 55.5q4 86 10 159q6 90 6 278q0 18 -7 38t-23 20q-9 0 -17 -1.5zM231.5 109.5q23.5 -12.5 42.5 -12.5q57 0 85 31q21 22 27.5 43t6.5 67q0 36 -14 60.5t-34 36t-38 11.5q-41 0 -66.5 -24.5
t-32.5 -66.5q-5 -33 -5 -114q5 -19 28.5 -31.5z" />
    <glyph glyph-name="q" unicode="q" horiz-adv-x="512" 
d="M447.5 426.5q14.5 -8.5 14.5 -27.5q0 -13 -12 -59q-9 -36 -10 -45q-12 -92 -12 -261q0 -51 3 -84.5t8 -81.5q4 -34 4 -40q0 -21 -14 -36.5t-32 -15.5q-24 0 -34.5 10t-14.5 29q-5 35 -9.5 87.5t-4.5 92.5q0 23 1 44t1 28q-19 -23 -54.5 -35.5t-66.5 -12.5
q-39 0 -65.5 10.5t-55.5 39.5q-25 25 -40.5 57t-15.5 67q0 47 10 91t32 74q32 37 78 55.5t94 18.5q26 0 55 -12t52 -31q9 23 25 34.5t34 11.5q15 0 29.5 -8.5zM288.5 119q29.5 19 38.5 49q7 45 9 134q-16 21 -40 31.5t-42 10.5q-23 0 -49.5 -9t-39.5 -26q-28 -43 -28 -103
q0 -26 5 -44t20 -30q19 -15 34.5 -23.5t33.5 -8.5q29 0 58.5 19z" />
    <glyph glyph-name="r" unicode="r" horiz-adv-x="397" 
d="M188 10q-13 -13 -32 -13q-30 0 -44 11.5t-14 42.5q0 37 -2 97q-2 50 -2 84q0 16 2 42q2 24 2 36q-3 19 -15 31.5t-31 12.5q-9 0 -15 8.5t-6 17.5q0 23 18.5 35t44.5 12q54 0 75 -64q26 30 59.5 48.5t64.5 18.5q37 0 67.5 -20t30.5 -54q0 -19 -16.5 -39t-33.5 -20
q-9 0 -15.5 4.5t-15.5 13.5q-10 10 -17 14.5t-16 4.5q-16 0 -30 -5t-19 -12q-16 -25 -23.5 -45t-7.5 -43q0 -17 -1 -27l-1 -57q0 -13 1 -29t2 -24q3 -27 3 -52q0 -17 -13 -30z" />
    <glyph glyph-name="s" unicode="s" horiz-adv-x="445" 
d="M364.5 206.5q23.5 -13.5 31.5 -31.5t8 -50q0 -36 -21 -63.5t-54 -42.5q-24 -11 -58.5 -17t-54.5 -6t-51.5 6t-43.5 11q-31 18 -53.5 44t-22.5 53q0 20 13 31.5t34 11.5q10 0 21 -7.5t15 -15.5q11 -26 37 -39t53 -13q35 0 65 11.5t30 31.5q0 9 -4.5 14.5t-12.5 11.5
q-14 10 -42 16.5t-36 8.5q-41 9 -80 27q-39 19 -62 45t-23 67q0 27 20 56.5t45 41.5q18 7 60.5 15t57.5 8q23 0 50 -4.5t41 -14.5q27 -16 44 -33.5t17 -39.5q0 -11 -5 -23.5t-12 -15.5q-15 -7 -35 -7q-9 0 -14.5 5t-14.5 16q-11 17 -21 20q-12 3 -35 7.5t-31 4.5
q-23 0 -47.5 -13t-24.5 -30q0 -9 7.5 -14t16 -9t11.5 -5q21 -10 46.5 -17t31.5 -9q54 -13 72 -25q8 -5 31.5 -18.5z" />
    <glyph glyph-name="t" unicode="t" horiz-adv-x="376" 
d="M53 346q-14 2 -22.5 12t-8.5 24q0 7 3.5 15t10.5 14q13 13 70 13q8 39 8 79q0 15 -1 26t-1 17q0 22 16.5 33t37.5 11q26 0 35.5 -13t9.5 -48q0 -52 -9 -102q16 0 44 2q38 2 55 2t29.5 -8.5t12.5 -23.5q0 -39 -35 -46q-37 -9 -115 -11q-3 -39 -3 -85q0 -72 9 -118
q6 -32 20.5 -46.5t43.5 -14.5q17 0 35 9q12 7 22 7q14 0 20.5 -9t6.5 -24q0 -28 -30 -46.5t-77 -18.5q-29 0 -58.5 14t-49.5 35q-3 3 -11 23t-14 43q-10 47 -10 132q0 37 4 99z" />
    <glyph glyph-name="u" unicode="u" horiz-adv-x="553" 
d="M19.5 343.5q-6.5 6.5 -6.5 15.5q0 23 20 43q6 3 24 10t32 7q38 0 62 -20.5t24 -58.5q0 -11 -4 -47q-4 -42 -4 -65q0 -70 19 -113q7 -14 22 -22t27 -8q29 0 47 10t39 32t27.5 50t9.5 77q2 32 4 47q5 48 5 82q0 22 12 36.5t33 14.5q12 0 27.5 -7.5t20.5 -17.5q6 -10 6 -33
q0 -12 -3 -23q-7 -25 -7 -60l1 -52q0 -71 10 -105q5 -16 14 -32.5t17 -27.5q20 -22 26 -30.5t6 -16.5q0 -12 -11.5 -22.5t-24.5 -10.5q-37 0 -64 25t-40 65q-34 -39 -63 -63q-20 -14 -49 -20.5t-58 -6.5q-39 0 -79 32t-54 74q-1 2 -5.5 16t-4.5 42q0 37 4 93q3 36 3 66
q0 9 -6.5 15t-14.5 6q-6 0 -13.5 -1.5t-15.5 -1.5t-14.5 6.5z" />
    <glyph glyph-name="v" unicode="v" horiz-adv-x="463" 
d="M306.5 315q18.5 50 34.5 76q26 41 46 41q28 0 43 -10.5t15 -29.5q0 -9 -7.5 -25t-8.5 -19q-40 -88 -72 -189l-21 -78q-12 -38 -41 -61.5t-68 -23.5q-35 0 -65 32q-18 28 -37.5 71t-33.5 84l-35 105q-11 31 -17.5 53t-6.5 40q-1 21 12 34t36 13q26 0 37 -10.5t20 -32.5
q4 -23 22 -94l7 -28q9 -34 23 -69t28 -67q-2 5 14 -33q10 29 23 71l31 92q3 8 21.5 58z" />
    <glyph glyph-name="w" unicode="w" horiz-adv-x="681" 
d="M528 298q10 45 16 68t16 39q11 18 19.5 24t18.5 6q52 0 52 -40q0 -20 -16 -75q-53 -160 -76 -248q-10 -37 -30 -56.5t-54 -19.5q-17 0 -34.5 16.5t-28.5 40.5l-11 27q-28 71 -41.5 109.5t-17.5 69.5l-9 -32q-24 -86 -50 -160q-13 -38 -32 -54.5t-49 -16.5q-18 0 -31.5 8
t-25.5 27q-16 26 -30.5 70t-41.5 137q-13 40 -24 84.5t-11 62.5q0 21 11 33t32 12q27 0 38 -10.5t20 -31.5q5 -36 22 -102l22 -94q2 -11 12 -46l8 -29q22 47 37 90t33 106q1 4 20 69q13 21 23 31.5t20 10.5q20 0 34.5 -12.5t21.5 -30.5q12 -39 21 -71q4 -13 18.5 -62.5
t26.5 -83.5t20 -48l38 122q6 22 13 60z" />
    <glyph glyph-name="x" unicode="x" horiz-adv-x="495" 
d="M422.5 431.5q11.5 -9.5 11.5 -23.5q0 -10 -3.5 -20.5t-7.5 -21.5q-23 -54 -97 -151q76 -98 123 -126q4 -2 15 -7t17.5 -12t6.5 -16q0 -22 -16.5 -35.5t-39.5 -13.5q-39 0 -85 43.5t-78 91.5q-23 -35 -52.5 -69.5t-54.5 -58.5q-10 -11 -23.5 -17t-26.5 -6q-18 0 -32 8
t-14 28q0 5 7 16.5t8 13.5q12 21 32 43.5t25 28.5q12 15 26 29q8 9 24 28t22 30l-35 48q-25 29 -43 46.5t-29 17.5q-16 0 -30 -9q-12 -8 -24 -8q-13 0 -20 6.5t-7 14.5q0 34 27 58.5t68 24.5q39 0 69.5 -26.5t60.5 -70.5q4 -4 9 -13t10 -15q11 16 40 62q31 55 37 63
q21 28 48 28q20 0 31.5 -9.5z" />
    <glyph glyph-name="y" unicode="y" horiz-adv-x="469" 
d="M98.5 -191.5q-25.5 12.5 -38 30t-12.5 30.5q0 17 12 26.5t29 9.5q10 0 19 -6t10 -7q7 -5 14 -8.5t15 -3.5q22 0 36 29t28 94q-45 66 -75 132l-23 53q-5 12 -27.5 62.5t-44.5 89.5q-14 28 -14 38q0 25 17.5 37t40.5 12q16 0 24.5 -6.5t19.5 -23.5q29 -48 63 -144
q20 -55 32 -83.5t29 -57.5q17 39 43 133q16 54 26.5 86.5t23.5 59.5q9 18 22.5 29t30.5 11t36.5 -12.5t19.5 -29.5q0 -10 -7 -24q-39 -90 -68.5 -169.5t-56.5 -174.5q-16 -53 -33.5 -101t-24.5 -59q-20 -28 -45 -46.5t-58 -18.5q-38 0 -63.5 12.5z" />
    <glyph glyph-name="z" unicode="z" horiz-adv-x="464" 
d="M342 268q-36 -38 -92 -90q-53 -50 -59 -57l-34 -31q20 -4 75 -4q22 0 64 8q40 8 59 8q16 0 36.5 -5t38.5 -15q9 -4 15 -15.5t6 -21.5q0 -13 -9 -29t-21 -16q-11 0 -29 4q-27 5 -38 5q-35 0 -93 -5q-80 -6 -118 -6q-48 0 -75.5 12t-27.5 45q0 25 25 57.5t61 68.5l14 15
q16 16 54 48q38 33 58 52.5t33 41.5l-160 -1q-39 0 -57.5 9t-18.5 34q0 14 10 26.5t26 15.5q36 5 147 5t153 -11q11 -4 17.5 -14.5t6.5 -21.5q0 -18 -10 -38q-21 -36 -57 -74z" />
    <glyph glyph-name="braceleft" unicode="{" horiz-adv-x="347" 
d="M213 474l1 -40v-39q0 -53 -10.5 -89t-46.5 -77q21 -19 28 -65t8 -114q1 -75 7.5 -116.5t32.5 -61.5q11 -9 25 -12t33 -4q22 -2 31.5 -6.5t9.5 -19.5q0 -23 -21.5 -35t-53.5 -12q-53 0 -96 39t-53 92q-4 19 -4 46q0 16 2 50l1 50q0 70 -12 95q-6 14 -33 30
q-19 12 -27 20.5t-8 23.5q0 12 5 23q6 9 15.5 15t19.5 11q20 11 27 18q18 16 22.5 43t4.5 78v31q0 81 14 133t61 71q17 7 45 7q32 0 57 -8.5t25 -25.5q0 -31 -12.5 -38.5t-27.5 -6.5t-21 1q-23 0 -32 -15q-17 -34 -17 -92z" />
    <glyph glyph-name="bar" unicode="|" horiz-adv-x="289" 
d="M197 -118l2 -85q0 -15 -10.5 -29t-38.5 -14q-19 0 -29.5 5t-14.5 10.5t-5 7.5q-1 1 -2 5.5t-2.5 15.5t-1.5 27q0 206 -1 221q-1 9 -2.5 132t-1.5 195q0 35 3 123l3 167q0 28 16.5 39.5t35.5 11.5t35 -11t16 -33q0 -16 -1 -27q-4 -112 -4 -218v-52l-2 -288q0 -53 5 -203z
" />
    <glyph glyph-name="braceright" unicode="}" horiz-adv-x="343" 
d="M99.5 577.5q-8.5 2.5 -21.5 2.5q-4 0 -22 -0.5t-27 10.5t-9 35q0 17 25 25.5t57 8.5q27 0 45 -7q47 -19 60.5 -70.5t13.5 -133.5v-31q0 -50 5 -77.5t23 -43.5q7 -7 27 -18q10 -5 19 -11t15 -15q6 -13 6 -24q0 -14 -9 -23t-26 -20q-26 -15 -34 -30q-11 -26 -11 -95l1 -50
q1 -17 1 -50q0 -32 -3 -46q-10 -53 -53 -92t-97 -39q-32 0 -53 12t-21 35q0 15 9.5 19.5t31.5 6.5q19 1 33 4t25 12q25 20 31.5 60.5t8.5 117.5q1 68 7.5 114t27.5 65q-36 41 -46 77.5t-10 88.5v39v39q0 60 -17 93q-4 9 -12.5 11.5z" />
    <glyph glyph-name="asciitilde" unicode="~" horiz-adv-x="515" 
d="M482 284q17 -13 17 -36q0 -22 -23.5 -44.5t-58 -37t-65.5 -14.5q-27 0 -50.5 9.5t-59.5 28.5q-41 25 -61 25q-9 0 -18 -5t-18.5 -12t-14.5 -11q-18 -12 -29.5 -18.5t-24.5 -6.5q-12 0 -25.5 15t-13.5 35q0 24 20.5 48.5t52.5 40t64 15.5q46 0 110 -36q2 -1 20 -13
q14 -10 23.5 -14.5t23.5 -4.5q8 0 17 5.5t19.5 13l17.5 12.5q28 18 44 18t33 -13z" />
    <glyph glyph-name="uni007F" 
 />
    <glyph glyph-name="uni00A0" unicode="&#xa0;" 
 />
    <glyph glyph-name="exclamdown" unicode="&#xa1;" horiz-adv-x="252" 
d="M58 359q0 25 17 46.5t42 21.5q30 0 48.5 -18.5t18.5 -43.5q0 -21 -16 -39t-41 -18q-69 0 -69 51zM80 5q1 18 3 64t2 86q0 45 -1 67q1 17 11.5 25.5t26.5 8.5t29 -8t16 -21q12 -84 12 -204l-1 -148q0 -37 -9.5 -60.5t-41.5 -23.5q-27 0 -40 17t-13 44q0 55 6 153z" />
    <glyph glyph-name="cent" unicode="&#xa2;" horiz-adv-x="469" 
d="M363 290q-15 0 -25 7t-22 21l-4 2l-36 -105l-42 -124q20 -7 41 -7q29 0 73 23q16 8 27 12t23 4q11 0 25 -10t14 -25q0 -30 -28 -50.5t-68.5 -31t-77.5 -10.5q-29 0 -58 8q-12 -38 -14 -49q-3 -7 -10.5 -12t-14.5 -5q-13 0 -24 9t-11 22q0 7 2.5 14t3.5 9l11 34
q-48 27 -76.5 73.5t-28.5 105.5q0 64 29 117t78 83t107 30q14 0 29 -3q15 42 20 58q4 12 12 18t16 6q14 0 23.5 -8.5t9.5 -21.5q0 -12 -13 -49q-6 -14 -8 -21q27 -13 44.5 -33.5t17.5 -46.5q0 -44 -45 -44zM204.5 331.5q-26.5 -17.5 -42.5 -47.5t-16 -67q0 -31 8.5 -54
t26.5 -40q13 43 43 127l35 101q-28 -2 -54.5 -19.5z" />
    <glyph glyph-name="sterling" unicode="&#xa3;" horiz-adv-x="535" 
d="M485 110q14 -15 14 -30q0 -35 -36.5 -57.5t-95.5 -22.5q-32 0 -65.5 17.5t-58.5 43.5q-28 -34 -55 -48.5t-73 -14.5q-19 0 -39.5 11.5t-34.5 30.5t-14 39q0 27 7.5 45t16.5 26.5t28 24.5q36 24 74 25q21 0 42 -9q13 33 13 55q0 7 -16 34q-22 1 -55 1h-34t-39 11t-11 34
q0 16 17.5 21.5t59.5 5.5h15q-43 68 -43 115q0 43 27 80t71.5 59t94.5 22q45 0 83.5 -20t61.5 -49.5t23 -56.5q0 -18 -13.5 -30t-31.5 -12q-30 0 -45 25q-15 26 -23 36t-20.5 15t-35.5 5q-40 0 -67 -19q-16 -11 -21 -25.5t-5 -44.5q0 -17 10.5 -36t24 -38.5t17.5 -25.5h126
q30 0 42.5 -9t12.5 -34q0 -18 -30 -25t-59 -7h-51q9 -21 9 -43q0 -51 -21 -99q14 -8 27 -18q21 -16 37.5 -24.5t37.5 -8.5q20 0 49 25q15 15 29 15q9 0 23 -15zM179 114.5q-7 5.5 -17.5 10.5t-20.5 5q-16 0 -27 -12.5t-11 -23.5q0 -12 6.5 -20.5t18.5 -8.5q24 0 51 29l9 13
q-2 2 -9 7.5z" />
    <glyph glyph-name="currency" unicode="&#xa4;" horiz-adv-x="567" 
d="M450 398q16 -25 16 -72q0 -31 -11 -61t-28 -48q9 -7 26 -24q13 -13 18 -17q14 -11 22 -21.5t8 -27.5t-11 -30t-32 -13q-12 0 -25 9t-34 28q-11 11 -16 15q-3 2 -10 8.5t-10 9.5q-50 -31 -86 -31q-32 0 -55 5t-53 21q-13 -10 -29 -30q-20 -24 -33 -34.5t-31 -10.5
q-11 0 -25.5 11t-14.5 26q0 9 11.5 25.5t26.5 32.5q2 2 16 17t20 29q-30 37 -30 97q0 34 10.5 64.5t30.5 51.5l-21 22q-16 14 -23 22q-4 6 -13.5 14.5t-14 15.5t-4.5 18q0 36 53 36q7 0 15 -3.5t15 -8.5q13 -8 27 -23.5t17 -18.5q5 -5 10.5 -11.5t8.5 -7.5q15 9 40 14.5
t47 5.5q29 0 55 -10t58 -32q8 4 14.5 12t11.5 16q4 9 11 17l15 17q12 15 20 22.5t16 7.5q19 0 35.5 -11.5t16.5 -27.5q0 -37 -81 -116zM358 366.5q-16 22.5 -41.5 36.5t-51.5 14t-49 -14.5t-36.5 -37t-13.5 -44.5q0 -29 13.5 -56.5t38 -45t56.5 -17.5q20 0 40.5 10.5
t35.5 28.5q24 28 24 77q0 26 -16 48.5z" />
    <glyph glyph-name="yen" unicode="&#xa5;" horiz-adv-x="560" 
d="M466 289q12 -8 12 -29q0 -14 -30 -20t-58 -6q-29 0 -54 1q0 -33 1 -47h87q30 0 42 -7.5t12 -28.5q0 -14 -29.5 -20t-58.5 -6q-27 0 -52 1l3 -28q4 -27 4 -43q0 -33 -12 -44.5t-40 -11.5q-21 0 -39.5 12.5t-18.5 30.5l2 86q-22 1 -55 1q-8 0 -35.5 -0.5t-38 8.5t-10.5 28
q0 13 17.5 17.5t59.5 4.5h61q0 31 -1 49q-21 1 -53 1h-35t-38.5 8.5t-10.5 27.5q0 14 18 18.5t59 4.5h41q-20 35 -51.5 80.5t-54.5 68.5q-44 44 -69 79.5t-25 50.5q0 21 19.5 33.5t42.5 12.5q13 0 27.5 -7t23.5 -20q59 -88 105 -146q3 -4 37 -50l12 -17q30 31 52 63t50 78
q22 38 34 56l17 26q19 26 59 26q19 0 37.5 -11t18.5 -33q0 -18 -31 -53q-15 -18 -44 -58.5t-43 -60.5q-37 -56 -83 -118h74q30 0 42 -8z" />
    <glyph glyph-name="brokenbar" unicode="&#xa6;" horiz-adv-x="283" 
d="M180.5 341q-10.5 -13 -35.5 -13q-19 0 -30 5t-15 10.5t-5 7.5t-3 13.5t-2 34.5l1 146q0 32 15 41t37 9q19 0 34.5 -11t15.5 -33l-1 -119q-1 -26 -1 -65q0 -13 -10.5 -26zM180.5 -114.5q-10.5 -12.5 -35.5 -12.5q-19 0 -30 5t-15 10.5t-5 7.5t-3 13t-2 34l1 147
q0 23 17.5 36t34.5 13q20 0 35 -9.5t15 -34.5q0 -15 -2 -51q-3 -27 -3 -53q0 -11 2 -41l1 -38q0 -14 -10.5 -26.5z" />
    <glyph glyph-name="section" unicode="&#xa7;" horiz-adv-x="520" 
d="M91.5 603q24.5 36 53.5 51q20 9 65.5 18.5t62.5 9.5q25 0 57 -6t48 -17q33 -21 50.5 -39t17.5 -45q0 -12 -5.5 -23t-13.5 -15q-16 -8 -37 -8q-9 0 -16 6.5t-15 17.5q-5 7 -11 13.5t-13 8.5q-9 5 -35 11t-45 6q-26 0 -55 -19.5t-29 -41.5q0 -19 12.5 -34.5t27.5 -22.5
q19 -9 59 -25q42 -17 67.5 -29t46.5 -27q45 -30 63.5 -60t18.5 -87q0 -39 -21.5 -73.5t-54.5 -57.5q36 -24 53 -53.5t17 -74.5q0 -42 -23 -67.5t-64 -47.5q-31 -16 -62.5 -23.5t-71.5 -7.5q-30 0 -56 10t-41 18t-19 10q-33 32 -51 56.5t-18 55.5q0 24 14.5 38.5t37.5 14.5
q12 0 24.5 -12.5t16.5 -23.5q11 -35 40 -52.5t60 -17.5q45 0 78 14.5t33 39.5t-32.5 51.5t-70.5 38.5q-16 5 -46.5 18t-57.5 28q-93 47 -93 140q0 39 25 77t61 61q-34 26 -55.5 56.5t-21.5 71.5q0 33 24.5 69zM364 284q-8 17 -15 21q-12 11 -27.5 18.5t-38.5 16.5
q-27 11 -41 19q-30 -8 -57.5 -31.5t-27.5 -46.5q0 -54 39 -72l106 -47q27 10 48.5 34.5t21.5 50.5q0 20 -8 37z" />
    <glyph glyph-name="dieresis" unicode="&#xa8;" horiz-adv-x="522" 
d="M208.5 647.5q20.5 -13.5 20.5 -40.5q0 -19 -16 -30t-41 -11q-24 0 -33.5 12.5t-9.5 26.5q0 23 6 39.5t26 16.5q27 0 47.5 -13.5zM377 647.5q21 -13.5 21 -40.5q0 -19 -16.5 -30t-41.5 -11q-24 0 -33.5 12.5t-9.5 26.5q0 23 6 39.5t26 16.5q27 0 48 -13.5z" />
    <glyph glyph-name="copyright" unicode="&#xa9;" horiz-adv-x="734" 
d="M661 200.5q-21 -66.5 -60 -99.5q-59 -51 -112.5 -76t-116.5 -25q-80 0 -147 28.5t-104 83.5q-5 7 -25.5 38.5t-32 72.5t-11.5 91q0 98 49.5 175.5t119.5 115.5q29 16 82.5 23.5t97.5 7.5q36 0 75.5 -13t61.5 -26q20 -12 50.5 -38t38.5 -40q18 -31 36.5 -80t18.5 -106
q0 -66 -21 -132.5zM128 303q0 -64 29 -117t78.5 -83t107.5 -30q132 0 196 67.5t64 213.5q0 54 -29 103t-73 79t-86 30q-124 0 -187.5 -46.5t-87.5 -130.5q-12 -40 -12 -86zM496 242.5q10 -9.5 10 -20.5q0 -18 -13 -32q-23 -26 -53.5 -35t-70.5 -9q-37 0 -75 17t-59 43
q-12 16 -21.5 45t-9.5 49q0 49 15 90.5t42 64.5q19 18 54 26.5t65 8.5q37 0 58.5 -10.5t41.5 -34.5q9 -11 12.5 -18t3.5 -14q0 -10 -10.5 -20.5t-22.5 -10.5q-24 0 -34 17q-7 11 -17.5 18.5t-31.5 7.5q-20 0 -45 -9.5t-35 -21.5q-10 -11 -17 -36t-7 -48q0 -40 26.5 -69.5
t75.5 -29.5q39 0 62 23l5 5q10 13 29 13q12 0 22 -9.5z" />
    <glyph glyph-name="ordfeminine" unicode="&#xaa;" horiz-adv-x="367" 
d="M335.5 347q-16.5 -10 -30.5 -10q-25 0 -40.5 6.5t-28.5 23.5q-18 -16 -49.5 -23.5t-56.5 -7.5q-43 0 -71 23t-28 68q0 33 38 65q36 30 99 30q14 0 33 -5.5t31 -11.5v7q0 34 -18 50t-57 16q-15 0 -30.5 -8.5t-17.5 -9.5q-16 -11 -36 -11q-6 0 -11.5 8.5t-5.5 15.5
q0 20 19 34.5t45 22t46 7.5t47 -8t44 -22q21 -17 32.5 -41t11.5 -53q0 -18 -1 -27l-1 -32q0 -10 -1.5 -20.5t-1.5 -23.5q0 -8 6.5 -13.5t14.5 -5.5h19q7 0 11.5 -5.5t4.5 -13.5q0 -15 -16.5 -25zM178 398.5q19 5.5 48 21.5q2 8 3 30q-22 10 -35 14t-26 4q-28 0 -48.5 -10
t-20.5 -36q0 -13 10 -21t21 -8q29 0 48 5.5z" />
    <glyph glyph-name="guillemotleft" unicode="&#xab;" horiz-adv-x="405" 
d="M196 89q0 -17 -12 -27.5t-24 -10.5q-14 0 -53 40l-19 21q-18 22 -28 31q-9 7 -18 23.5t-9 32.5t8 27.5t24 26.5l20 21q37 37 45 44q22 17 41 17q11 0 18 -8t7 -21q0 -24 -13 -42t-40 -40q-17 -14 -28 -26l20 -21l15 -15q46 -43 46 -73zM364 89q0 -17 -12 -27.5t-24 -10.5
q-13 0 -52 40q-11 11 -23 26q-6 6 -11.5 12.5t-11.5 11.5q-10 9 -19 25.5t-9 32.5t7.5 27t23.5 27l21 21q35 35 46 44q19 17 39 17q12 0 18.5 -8t6.5 -21q0 -24 -13 -41.5t-39 -40.5q-15 -12 -29 -26q7 -9 18.5 -19.5t17.5 -16.5q45 -43 45 -73z" />
    <glyph glyph-name="logicalnot" unicode="&#xac;" horiz-adv-x="536" 
d="M467.5 350.5q19.5 -9.5 19.5 -40.5q0 -50 -3 -106l-1 -53q0 -14 -10 -26t-30 -12q-23 0 -37.5 10.5t-14.5 30.5q0 6 1.5 40.5t1.5 71.5l-183 3l-60 -2l-43 -1q-24 0 -46 8.5t-22 32.5q0 31 19 41.5t53 10.5q23 0 92 -3l97 -2l62 3q39 3 58 3q27 0 46.5 -9.5z" />
    <glyph glyph-name="uni00AD" unicode="&#xad;" horiz-adv-x="401" 
d="M365 213q0 -27 -18.5 -39t-45.5 -12q-8 0 -17 1t-19 2q-30 5 -54 5q-17 0 -51 -4q-36 -4 -55 -4q-27 0 -48 10.5t-21 35.5q0 35 26 45.5t73 10.5l33 -1q24 -2 37 -2l73 2l41 2q46 0 46 -52z" />
    <glyph glyph-name="registered" unicode="&#xae;" horiz-adv-x="734" 
d="M661.5 200.5q-20.5 -66.5 -59.5 -99.5q-60 -51 -113.5 -76t-116.5 -25q-80 0 -146.5 28.5t-103.5 83.5q-4 6 -25.5 37.5t-33 73t-11.5 91.5q0 98 49.5 175.5t119.5 115.5q29 16 82.5 23.5t97.5 7.5q36 0 76 -13t61 -26q20 -11 51 -37t39 -41q54 -98 54 -186
q0 -66 -20.5 -132.5zM129 303q0 -64 29 -117t78 -83t108 -30q131 0 195 67.5t64 213.5q0 54 -28.5 103t-72.5 79t-86 30q-124 0 -187.5 -46.5t-88.5 -130.5q-11 -41 -11 -86zM511 168q0 -12 -11.5 -18.5t-24.5 -6.5q-19 0 -39 15q-18 13 -32 34t-31 52q-5 8 -7.5 13.5
t-4.5 8.5q-15 -4 -51 -8q0 -13 2 -39q3 -21 3 -46q0 -13 -11.5 -21.5t-26.5 -8.5q-18 0 -27 14q-8 16 -10.5 37t-2.5 52q0 35 3 68q3 32 3 59q0 14 -2 40q-3 20 -3 41q0 11 7 18.5t16 9.5q41 8 85 8q78 0 122 -29.5t44 -82.5q0 -17 -8 -34t-21 -28q-30 -23 -56 -31
q16 -27 32.5 -48t42.5 -51q9 -10 9 -18zM312 405q0 -20 -1 -32l-1 -50q23 0 58 8q72 20 72 49q0 22 -25.5 35t-68.5 13q-19 0 -36 -3q2 -14 2 -20z" />
    <glyph glyph-name="macron" unicode="&#xaf;" horiz-adv-x="450" 
d="M72 678l-26 -1q-31 0 -41 6.5t-10 28.5q0 23 52 31t151 8q115 0 186.5 -3.5t71.5 -15.5q0 -21 -9 -31.5t-30 -14t-64 -3.5l-188 -3q-47 0 -93 -2z" />
    <glyph glyph-name="degree" unicode="&#xb0;" horiz-adv-x="295" 
d="M256.5 481q-7.5 -23 -22.5 -35q-23 -19 -42.5 -28t-43.5 -9q-29 0 -53 11t-37 31q-3 4 -11 14.5t-12 24t-4 31.5q0 35 18.5 62.5t44.5 42.5q11 5 31 8t35 3q22 0 51 -13q53 -41 53 -96q0 -24 -7.5 -47zM108.5 485.5q14.5 -13.5 33.5 -13.5q29 0 43 13.5t14 45.5
q0 17 -13.5 30t-27.5 13q-28 0 -46 -14.5t-18 -40.5q0 -20 14.5 -33.5z" />
    <glyph glyph-name="plusminus" unicode="&#xb1;" horiz-adv-x="529" 
d="M79 236q-20 7 -21 34q0 16 10 28q17 16 63 16l38 -1q30 -2 50 -2q0 14 -1 21l-1 21q0 83 46 83q15 0 25.5 -6.5t10.5 -20.5l-1 -50q-1 -15 -1 -42q17 -6 44 -6q10 0 36 2q20 3 41 3t37 -7t16 -32q0 -30 -17.5 -38t-48.5 -8l-60 1q-28 0 -42 -2q-3 -9 -3 -20q0 -8 2 -28
q3 -13 3 -29q0 -41 -45 -41q-25 0 -34 39q-6 25 -6 75q-9 5 -36 5q-17 0 -26 -1l-33 -1q-26 0 -46 7zM465 51q0 -19 -11 -29q-8 -10 -24 -15.5t-36 -5.5q-15 0 -27.5 1t-22.5 2l-24 1q-42 2 -65 2q-17 0 -57 -4t-65 -4q-18 0 -38 7t-20 26q0 22 5.5 32.5t17.5 17.5
q14 7 62 7q7 0 21.5 -0.5t51.5 -0.5q20 0 31 1q7 0 19 0.5t29 -0.5q7 -1 22 -1q18 0 28 1l39 1q64 0 64 -39z" />
    <glyph glyph-name="uni00B2" unicode="&#xb2;" horiz-adv-x="312" 
d="M271 346q10 -12 10 -35q0 -14 -11.5 -21t-27.5 -7q-12 0 -42 2q-24 3 -52 3l-30 -1q-22 -2 -35 -2q-21 0 -37.5 6.5t-16.5 30.5q0 16 14 33.5t41 42.5l31 31q6 7 29 32.5t36 46t13 35.5q0 14 -12 23t-27 9q-34 0 -45.5 -13.5t-11.5 -35.5q0 -10 -7 -18t-22 -8
q-17 0 -26.5 12.5t-9.5 34.5q0 41 35.5 68t89.5 27q25 0 50.5 -12.5t41.5 -33.5t16 -45q0 -89 -132 -196q22 -1 67 1q26 2 38 2q23 0 33 -12z" />
    <glyph glyph-name="uni00B3" unicode="&#xb3;" horiz-adv-x="328" 
d="M277.5 469.5q25.5 -29.5 25.5 -65.5q0 -24 -11 -49q-17 -34 -55.5 -53t-88.5 -19q-32 0 -56.5 12.5t-46.5 33.5q-25 23 -25 49q0 14 9.5 23.5t24.5 9.5q16 0 25.5 -7t21.5 -22q10 -15 20 -22.5t27 -7.5q48 0 64.5 17.5t16.5 43.5q0 9 -12 20.5t-22 15.5q-6 3 -26 7
q-28 7 -42.5 14t-14.5 25q0 11 6 18t15 13.5t15 11.5q7 5 15 16t12 18q-24 0 -36 -1l-36 -1q-22 0 -37.5 8t-15.5 23q0 12 3 20.5t14 12.5t23 4l44 -1q30 -2 47 -2l23 1q64 0 64 -36q0 -20 -16.5 -43t-40.5 -44q41 -14 66.5 -43.5z" />
    <glyph glyph-name="acute" unicode="&#xb4;" horiz-adv-x="517" 
d="M333 684q13 -9 13 -23q0 -27 -25.5 -52t-54.5 -42q-15 -9 -38.5 -15t-35.5 -6q-21 0 -21 20q0 6 4 11t17 15q4 4 12.5 11.5t16.5 18t17 28.5q11 24 25.5 33.5t35.5 9.5t34 -9z" />
    <glyph glyph-name="uni00B5" unicode="&#xb5;" horiz-adv-x="557" 
d="M528.5 46q6.5 -9 6.5 -16q0 -12 -12 -22.5t-25 -10.5q-38 0 -65 25t-40 65q-38 -47 -57 -63q-38 -27 -97 -27q-13 0 -40.5 10.5t-41.5 27.5q-3 -122 -3 -217q0 -16 -12.5 -27.5t-31.5 -11.5q-20 0 -35.5 16t-15.5 44q0 19 4 119q5 160 5 193q0 92 2 182l1 44
q0 31 15.5 45t40.5 14q21 0 29.5 -12t10 -28.5t1.5 -54.5q0 -22 -3 -55q-4 -52 -4 -77q0 -69 19 -93q7 -13 26 -21.5t32 -8.5q30 0 48 10t39 32t27 50t9 77q2 32 4 48q6 44 6 82q0 22 12 36.5t33 14.5q11 0 26.5 -7.5t20.5 -17.5q7 -12 7 -33q0 -23 -4 -73q-5 -60 -5 -76
q0 -58 10 -92q13 -38 30 -60q21 -22 27.5 -31z" />
    <glyph glyph-name="paragraph" unicode="&#xb6;" horiz-adv-x="544" 
d="M437 253v-42q0 -121 4 -218q0 -8 2 -34q4 -42 4 -68q0 -32 -16 -52.5t-47 -20.5q-18 0 -24.5 18t-6.5 49l1 46l-1 295q0 191 7 302l-52 -1q-34 0 -50 4q0 -70 -4 -148t-5 -96q-8 -150 -8 -215l1 -41q3 -66 3 -166q0 -26 -17 -38.5t-41 -12.5q-25 0 -32.5 17.5t-7.5 62.5
q0 74 3 188.5t7 195.5q-48 20 -80 55.5t-32 81.5q0 64 17.5 99t58.5 65q21 14 34.5 20.5t37.5 12.5q19 5 48 5l44 -1q30 -2 44 -2q24 0 35 2q19 4 69 4h56q17 0 31.5 -12t14.5 -33q0 -22 -7 -32.5t-25.5 -14t-57.5 -3.5q-6 -81 -8 -272z" />
    <glyph glyph-name="periodcentered" unicode="&#xb7;" horiz-adv-x="240" 
d="M75.5 275.5q-21.5 20.5 -21.5 49.5q0 27 16 46.5t41 19.5q34 0 54.5 -22t20.5 -53q0 -26 -19 -43.5t-44 -17.5q-26 0 -47.5 20.5z" />
    <glyph glyph-name="cedilla" unicode="&#xb8;" horiz-adv-x="522" 
d="M189.5 -56q6.5 9 17.5 21q22 25 37 39t27 14q14 0 21 -7.5t7 -23.5q0 -7 -18 -27l-14 -18q41 -4 65.5 -23.5t24.5 -55.5q0 -33 -41 -65q-14 -10 -39.5 -16.5t-58.5 -6.5q-24 0 -42 12.5t-18 32.5q0 8 8 14t16 6q10 0 19.5 -6t18.5 -6q12 0 26.5 3t22.5 7q7 4 12 12.5
t5 18.5q0 20 -25.5 25t-54.5 5q-9 0 -16 9.5t-7 17.5q0 9 6.5 18z" />
    <glyph glyph-name="uni00B9" unicode="&#xb9;" horiz-adv-x="293" 
d="M247.5 345.5q8.5 -9.5 8.5 -24.5q0 -37 -51 -37q-19 0 -36 3q-20 2 -28 2q-17 0 -41 -2q-22 -2 -31 -2q-13 0 -23 10t-10 24q0 35 35 35q6 0 20.5 -2t21.5 -1q0 23 2 67l1 31q4 72 4 105q-6 -2 -20.5 -8.5t-26.5 -6.5q-11 0 -18.5 9t-7.5 23q0 12 13.5 23t39.5 25l18 10
q22 14 34 14q17 0 31.5 -8t14.5 -22l-2 -46q-5 -83 -5 -158q0 -19 2 -55l32 1q14 0 22.5 -9.5z" />
    <glyph glyph-name="ordmasculine" unicode="&#xba;" horiz-adv-x="355" 
d="M319.5 531q3.5 -17 3.5 -32q0 -27 -12 -75q-21 -37 -60.5 -62t-80.5 -25q-35 0 -70.5 22.5t-49.5 52.5q-1 5 -10 33.5t-9 41.5q0 28 12.5 58.5t31.5 52.5q12 16 42 28.5t55 12.5q48 0 82 -19.5t56 -60.5q6 -11 9.5 -28zM250 499q0 19 -7.5 32.5t-22.5 29.5q-1 1 -6 4
t-14.5 6t-23.5 3q-39 0 -55.5 -27.5t-16.5 -65.5q0 -7 4 -24t7 -26q5 -8 22.5 -18.5t33.5 -10.5q20 0 43 15.5t33 36.5q3 9 3 45z" />
    <glyph glyph-name="guillemotright" unicode="&#xbb;" horiz-adv-x="405" 
d="M102.5 178q11.5 11 18.5 20q-11 12 -28 26q-27 23 -40 40.5t-13 41.5q0 13 7 21t19 8q20 0 39 -17q16 -14 46 -44l21 -21q15 -15 22.5 -26.5t7.5 -27.5t-9 -32.5t-18 -25.5q-6 -5 -11.5 -11.5t-11.5 -12.5q-12 -15 -23 -26q-39 -40 -53 -40q-11 0 -23.5 10.5t-12.5 27.5
q0 30 46 73q5 5 16.5 16zM270 177l20 21q-11 12 -28 26q-27 22 -40 40t-13 42q0 13 7 21t18 8q20 0 40 -17q18 -15 45 -44l21 -21q17 -17 24.5 -27.5t7.5 -26.5t-9 -32.5t-18 -23.5q-10 -9 -28 -31l-19 -21q-39 -40 -53 -40q-12 0 -24 10.5t-12 27.5q0 30 46 73z" />
    <glyph glyph-name="onequarter" unicode="&#xbc;" horiz-adv-x="770" 
d="M626 584q-43 -58 -155 -200q-191 -245 -255 -332q-23 -32 -39.5 -46t-31.5 -14q-18 0 -29.5 7t-11.5 30q0 12 9 25q167 190 422 540q23 34 33.5 42.5t30.5 8.5q16 0 26.5 -10t10.5 -23q0 -8 -10 -28zM256.5 345.5q8.5 -9.5 8.5 -24.5q0 -37 -51 -37q-19 0 -36 3
q-20 2 -28 2q-17 0 -41 -2q-22 -2 -31 -2q-13 0 -23 10t-10 24q0 35 35 35q6 0 20.5 -2t21.5 -1q0 23 2 67l1 31q4 72 4 105q-6 -2 -20.5 -8.5t-26.5 -6.5q-11 0 -18.5 9t-7.5 23q0 12 13.5 23t39.5 25l18 10q22 14 34 14q17 0 31.5 -8t14.5 -22l-2 -46q-5 -83 -5 -158
q0 -19 2 -55l32 1q14 0 22.5 -9.5zM728.5 150.5q14.5 -10.5 14.5 -25.5q0 -19 -6.5 -28.5t-15.5 -9.5q-8 0 -26 2q-16 2 -24 2q0 -15 1 -24l1 -42q0 -30 -32 -30q-16 0 -28.5 9t-12.5 25q0 38 2 60q-14 0 -48 -4q-7 0 -21 -2q-24 -2 -35 -2q-40 0 -54 11.5t-14 26.5
q0 19 5 36.5t15 43.5q6 15 13 37q10 31 25 95q1 11 10.5 17.5t23.5 6.5q15 0 24 -7t9 -18q0 -31 -7.5 -60.5t-22.5 -73.5q-8 -21 -16 -47q18 0 52 4q7 1 21 2t25 1v53q-1 30 -1 92q0 47 34 47q20 0 29 -10q10 -9 10 -39q0 -24 -1 -41.5t-2 -29.5q-4 -44 -4 -68q4 0 9.5 0.5
t15.5 0.5q17 0 31.5 -10.5z" />
    <glyph glyph-name="onehalf" unicode="&#xbd;" horiz-adv-x="736" 
d="M626 584q-32 -44 -148 -192q-170 -214 -261 -340q-24 -32 -40.5 -46t-31.5 -14q-18 0 -29.5 7t-11.5 30q0 12 9 25q167 190 422 540q25 34 35 42.5t29 8.5q16 0 26.5 -10t10.5 -23q0 -8 -10 -28zM256.5 345.5q8.5 -9.5 8.5 -24.5q0 -37 -51 -37q-19 0 -36 3q-20 2 -28 2
q-17 0 -41 -2q-22 -2 -31 -2q-13 0 -23 10t-10 24q0 35 35 35q6 0 20.5 -2t21.5 -1q0 23 2 67l1 31q4 72 4 105q-6 -2 -20.5 -8.5t-26.5 -6.5q-11 0 -18.5 9t-7.5 23q0 12 13.5 23t39.5 25l18 10q22 14 34 14q17 0 31.5 -8t14.5 -22l-2 -46q-5 -83 -5 -158q0 -19 2 -55l32 1
q14 0 22.5 -9.5zM686 58q10 -12 10 -35q0 -14 -11.5 -21t-27.5 -7q-12 0 -42 2q-24 3 -53 3l-29 -1q-22 -2 -35 -2q-21 0 -37.5 6.5t-16.5 30.5q0 16 14 33.5t41 42.5l31 31q39 44 57.5 68.5t18.5 45.5q0 14 -12 23t-27 9q-34 0 -45.5 -13.5t-11.5 -35.5q0 -10 -7 -18
t-22 -8q-17 0 -26.5 12.5t-9.5 34.5q0 41 35.5 68t89.5 27q25 0 50.5 -12.5t42 -33.5t16.5 -45q0 -90 -131 -196q22 -1 67 1q26 2 38 2q23 0 33 -12z" />
    <glyph glyph-name="threequarters" unicode="&#xbe;" horiz-adv-x="783" 
d="M638 584q-30 -41 -143 -185q-201 -256 -266 -347q-23 -32 -39.5 -46t-32.5 -14q-18 0 -29 7t-11 30q0 12 9 25q154 175 422 540q24 34 34 42.5t30 8.5q16 0 26.5 -10t10.5 -23q0 -6 -11 -28zM293.5 469.5q25.5 -29.5 25.5 -65.5q0 -24 -11 -49q-17 -34 -55.5 -53
t-88.5 -19q-32 0 -56.5 12.5t-46.5 33.5q-25 23 -25 49q0 14 9.5 23.5t24.5 9.5q16 0 25.5 -7t21.5 -22q12 -16 21.5 -23t26.5 -7q48 0 64 17.5t16 43.5q0 9 -12 20.5t-22 15.5q-6 3 -26 7q-28 7 -42 14t-14 25q0 11 6 18t15 13.5t15 11.5q12 10 26 34q-24 0 -36 -1l-36 -1
q-22 0 -37 8t-15 23q0 12 3 20.5t14 12.5q9 4 22 4l45 -1q30 -2 46 -2l23 1q64 0 64 -36q0 -20 -16.5 -43.5t-40.5 -43.5q41 -14 66.5 -43.5zM741.5 150.5q14.5 -10.5 14.5 -25.5q0 -19 -7 -28.5t-16 -9.5t-25 2t-24 2q0 -15 1 -24l1 -42q0 -15 -9 -22.5t-24 -7.5
q-16 0 -28 9t-12 25q0 38 2 60q-14 0 -48 -4q-7 0 -21 -2q-24 -2 -36 -2q-39 0 -53 11.5t-14 26.5q0 20 5 38.5t16 45.5l12 33q13 40 24 95q2 11 11.5 17.5t23.5 6.5t23.5 -7t9.5 -18q0 -31 -7.5 -60.5t-22.5 -73.5q-8 -21 -16 -47q17 0 30 1t22 2q30 4 46 4q-1 17 -1 53
q-1 30 -1 92q0 27 10.5 37t23.5 10q22 0 29 -10q6 -5 8 -13t2 -20q0 -38 -3 -77q-1 -11 -2 -31.5t-1 -36.5q3 0 9 0.5t16 0.5q17 0 31.5 -10.5z" />
    <glyph glyph-name="questiondown" unicode="&#xbf;" horiz-adv-x="441" 
d="M164 336q-16 15 -16 41q0 22 21.5 36t46.5 14q20 0 35 -9q21 -15 21 -54q0 -19 -18.5 -34t-41.5 -15q-31 0 -48 21zM36 -58q0 34 15 61t47 61q28 29 41 54.5t16.5 46.5t7.5 68q0 23 16 33.5t33 10.5q44 0 44 -54q0 -29 -10 -69.5t-36 -86.5q-9 -16 -23.5 -32t-18.5 -21
q-16 -16 -27 -35t-11 -33q0 -16 4.5 -25t13.5 -20q13 -15 33.5 -24t38.5 -9q29 0 54 10.5t39.5 27t14.5 33.5q0 28 -11 42q-11 13 -11 24q0 7 3 14q12 28 41 28q37 0 54 -28t17 -71q0 -40 -26 -77.5t-75 -61t-114 -23.5q-41 0 -79 17t-60 49q-31 42 -31 90z" />
    <glyph glyph-name="Agrave" unicode="&#xc0;" horiz-adv-x="640" 
d="M294 832.5q14 -9.5 26 -33.5q10 -21 18.5 -31.5t16 -17t11.5 -9.5q12 -10 16 -15t4 -11q0 -9 -5 -14.5t-15 -5.5q-13 0 -36.5 6t-38.5 15q-29 17 -54 42t-25 52q0 14 13 23t34 9t35 -9.5zM506 52.5q-9 20.5 -19 49.5q-2 5 -11.5 30t-21.5 43q-63 -9 -103 -9
q-22 0 -48.5 1.5t-39.5 1.5q-50 4 -80 4q-12 -16 -20.5 -34t-21.5 -54q-18 -52 -31 -74q-9 -15 -35 -15q-22 0 -40.5 9.5t-18.5 26.5q8 38 25.5 80.5t50.5 113.5l40 98q33 84 60.5 144t72.5 142q6 12 20 20.5t31 8.5q19 0 27.5 -2.5t13.5 -8t15 -22.5q34 -53 58.5 -109
t62.5 -155l21 -53q28 -72 48.5 -120.5t45.5 -88.5q16 -26 16 -36q0 -24 -14.5 -36.5t-37.5 -12.5q-29 0 -44 20q-13 17 -22 37.5zM379 375q-31 90 -62 143q-19 -48 -56 -124q-25 -47 -57 -136q64 -8 138 -8q53 0 83 7q-16 34 -46 118z" />
    <glyph glyph-name="Aacute" unicode="&#xc1;" horiz-adv-x="640" 
d="M404.5 833q12.5 -9 12.5 -23q0 -27 -25.5 -52.5t-53.5 -41.5q-15 -9 -38.5 -15t-35.5 -6q-21 0 -21 20q0 6 4 11t17 15q4 4 12.5 11.5t16.5 18t16 28.5q12 24 26.5 33.5t35.5 9.5t33.5 -9zM506 52.5q-9 20.5 -19 49.5q-2 5 -11.5 30t-21.5 43q-63 -9 -103 -9
q-22 0 -48.5 1.5t-39.5 1.5q-50 4 -80 4q-12 -16 -20.5 -34t-21.5 -54q-18 -52 -31 -74q-9 -15 -35 -15q-22 0 -40.5 9.5t-18.5 26.5q8 38 25.5 80.5t50.5 113.5l40 98q33 84 60.5 144t72.5 142q6 12 20 20.5t31 8.5q19 0 27.5 -2.5t13.5 -8t15 -22.5q34 -53 58.5 -109
t62.5 -155l21 -53q28 -72 48.5 -120.5t45.5 -88.5q16 -26 16 -36q0 -24 -14.5 -36.5t-37.5 -12.5q-29 0 -44 20q-13 17 -22 37.5zM379 375q-31 90 -62 143q-19 -48 -56 -124q-25 -47 -57 -136q64 -8 138 -8q53 0 83 7q-16 34 -46 118z" />
    <glyph glyph-name="Acircumflex" unicode="&#xc2;" horiz-adv-x="640" 
d="M354 831q13 -7 23 -23q10 -15 30 -34t37 -31q22 -16 22 -32q0 -9 -9 -18t-21 -9q-34 0 -61.5 23t-54.5 61q-21 -30 -55 -57t-62 -27q-16 0 -23 8.5t-7 18.5q0 8 12.5 23.5t27.5 27.5q28 23 49 50q9 11 21 18.5t35 7.5t36 -7zM506 52.5q-9 20.5 -19 49.5q-2 5 -11.5 30
t-21.5 43q-63 -9 -103 -9q-22 0 -48.5 1.5t-39.5 1.5q-50 4 -80 4q-12 -16 -20.5 -34t-21.5 -54q-18 -52 -31 -74q-9 -15 -35 -15q-22 0 -40.5 9.5t-18.5 26.5q8 38 25.5 80.5t50.5 113.5l40 98q33 84 60.5 144t72.5 142q6 12 20 20.5t31 8.5q19 0 27.5 -2.5t13.5 -8
t15 -22.5q34 -53 58.5 -109t62.5 -155l21 -53q28 -72 48.5 -120.5t45.5 -88.5q16 -26 16 -36q0 -24 -14.5 -36.5t-37.5 -12.5q-29 0 -44 20q-13 17 -22 37.5zM379 375q-31 90 -62 143q-19 -48 -56 -124q-25 -47 -57 -136q64 -8 138 -8q53 0 83 7q-16 34 -46 118z" />
    <glyph glyph-name="Atilde" unicode="&#xc3;" horiz-adv-x="640" 
d="M169 768q18 20 45 31.5t52 11.5q38 0 73 -24q28 -20 46 -19q10 0 16 5t9.5 11t4.5 8q6 9 13 13.5t18 4.5q13 0 23.5 -7.5t10.5 -22.5q0 -20 -14.5 -39.5t-37 -32t-45.5 -12.5q-26 0 -42 7t-35 21q-12 9 -19.5 13t-16.5 4q-30 0 -46 -24q-16 -23 -41 -23q-10 0 -21 8
t-11 21q0 25 18 45zM572 -5q23 0 37.5 12.5t14.5 36.5q0 10 -16 36q-25 40 -45.5 88.5t-48.5 120.5l-21 53q-38 99 -62.5 155t-58.5 109q-10 17 -15 22.5t-13.5 8t-27.5 2.5q-17 0 -31 -8.5t-20 -20.5q-45 -82 -72.5 -142t-60.5 -144l-40 -98q-33 -71 -50.5 -113.5
t-25.5 -80.5q0 -17 18.5 -26.5t40.5 -9.5q26 0 35 15q13 22 31 74q13 36 21.5 54t20.5 34q30 0 80 -4q13 0 39.5 -1.5t48.5 -1.5q40 0 103 9q12 -18 21.5 -43t11.5 -30q10 -29 19 -49.5t22 -37.5q15 -20 44 -20zM342 250q-74 0 -138 8q32 89 57 136q37 76 56 124
q31 -53 62 -143q30 -84 46 -118q-30 -7 -83 -7z" />
    <glyph glyph-name="Adieresis" unicode="&#xc4;" horiz-adv-x="640" 
d="M263.5 796.5q21.5 -13.5 21.5 -40.5q0 -19 -16.5 -30t-41.5 -11q-24 0 -33.5 12.5t-9.5 26.5q0 23 5.5 39.5t24.5 16.5q28 0 49.5 -13.5zM431.5 796.5q21.5 -13.5 21.5 -40.5q0 -19 -16.5 -30t-41.5 -11q-24 0 -33.5 12.5t-9.5 26.5q0 23 5.5 39.5t25.5 16.5
q27 0 48.5 -13.5zM506 52.5q-9 20.5 -19 49.5q-2 5 -11.5 30t-21.5 43q-63 -9 -103 -9q-22 0 -48.5 1.5t-39.5 1.5q-50 4 -80 4q-12 -16 -20.5 -34t-21.5 -54q-18 -52 -31 -74q-9 -15 -35 -15q-22 0 -40.5 9.5t-18.5 26.5q8 38 25.5 80.5t50.5 113.5l40 98q33 84 60.5 144
t72.5 142q6 12 20 20.5t31 8.5q19 0 27.5 -2.5t13.5 -8t15 -22.5q34 -53 58.5 -109t62.5 -155l21 -53q28 -72 48.5 -120.5t45.5 -88.5q16 -26 16 -36q0 -24 -14.5 -36.5t-37.5 -12.5q-29 0 -44 20q-13 17 -22 37.5zM379 375q-31 90 -62 143q-19 -48 -56 -124
q-25 -47 -57 -136q64 -8 138 -8q53 0 83 7q-16 34 -46 118z" />
    <glyph glyph-name="Aring" unicode="&#xc5;" horiz-adv-x="641" 
d="M281 663.5q-23 4.5 -34 15.5q-18 18 -27 35t-9 37t14 41.5t36.5 36t47.5 14.5q109 0 109 -99q0 -18 -14.5 -38t-36 -33.5t-39.5 -13.5q-24 0 -47 4.5zM285.5 779q-13.5 -14 -13.5 -30q0 -17 11 -28.5t27 -11.5q49 0 49 36q0 19 -14 33.5t-35 14.5q-11 0 -24.5 -14z
M507.5 56q-8.5 19 -20.5 49q-7 19 -15.5 37.5t-17.5 32.5q-63 -9 -103 -9q-22 0 -48.5 1.5t-39.5 1.5q-50 4 -80 4q-12 -16 -20.5 -34t-21.5 -54q-18 -52 -31 -74q-9 -15 -35 -15q-22 0 -40 9.5t-19 26.5q8 38 25.5 80.5t50.5 113.5l40 98q33 84 60.5 144t72.5 142
q6 12 20 20.5t31 8.5q19 0 27.5 -2.5t13.5 -8t15 -22.5q34 -53 58.5 -109t62.5 -155l12 -30q30 -75 53.5 -128.5t50.5 -98.5q2 -3 9 -16t7 -20q0 -25 -14.5 -37t-37.5 -12q-30 0 -44 20q-13 17 -21.5 36zM401.5 311q-11.5 33 -15.5 43l-7 21q-31 90 -62 143
q-19 -48 -56 -124q-14 -27 -28.5 -63.5t-28.5 -75.5q55 -8 138 -8q53 0 83 7q-12 24 -23.5 57z" />
    <glyph glyph-name="AE" unicode="&#xc6;" horiz-adv-x="842" 
d="M490 366q12 -2 41 -2q33 0 89 2l77 1q23 0 35 -8.5t12 -23.5q0 -24 -10 -35.5t-43 -18.5q-37 -6 -99 -6h-59q-29 0 -43 1q-4 -53 -4 -113q0 -28 17.5 -47t72.5 -19q41 0 69 3t66 9q38 8 67 8q15 0 24 -13t9 -29q0 -22 -6.5 -31t-26.5 -17q-39 -16 -88 -21.5t-121 -5.5
q-91 0 -138 45.5t-47 128.5q-22 -3 -50 -3q-42 0 -90.5 4.5t-56.5 5.5q-11 -12 -21 -33t-26 -60q-22 -58 -34 -76q-9 -16 -39 -16q-19 0 -34.5 13.5t-15.5 31.5q0 7 1 10q33 83 123.5 261t159.5 285q7 10 25 19t37 10q78 9 165 9q146 0 216 -10q30 -5 45.5 -15t15.5 -30
q0 -23 -12.5 -35.5t-34.5 -12.5l-28 2q-63 5 -113 5q-34 0 -114 -4q-13 -70 -13 -169zM296 410q-47 -86 -71 -152q33 -3 79 -3h30q10 0 23 0.5t28 -0.5q0 119 20 275l-37 -5q-25 -29 -72 -115z" />
    <glyph glyph-name="Ccedilla" unicode="&#xc7;" horiz-adv-x="643" 
d="M288 -50.5q11 12.5 13 15.5q12 15 32 34q-65 5 -128.5 36.5t-97.5 75.5q-20 29 -38.5 83.5t-18.5 88.5q0 87 26.5 165.5t79.5 125.5q35 32 101 48t121 16q67 0 105.5 -18.5t76.5 -64.5q15 -18 21 -29t6 -21q0 -12 -15.5 -28t-30.5 -16q-20 0 -32 6t-20 19
q-16 24 -39 41.5t-72 17.5q-42 0 -95.5 -19t-76.5 -47q-20 -25 -34.5 -76t-14.5 -99q0 -58 25.5 -106.5t74 -77.5t116.5 -29q37 0 76.5 14.5t68.5 47.5h-1q18 19 45 19q16 0 30.5 -14t14.5 -28q0 -15 -4.5 -26.5t-16.5 -25.5q-33 -38 -76.5 -56t-100.5 -22l-15 -18l-32 -40
q41 -4 65.5 -23.5t24.5 -55.5q0 -32 -42 -65q-14 -10 -39.5 -16.5t-58.5 -6.5q-23 0 -41 12.5t-18 32.5q0 8 7.5 14t15.5 6q10 0 20 -6t18 -6q12 0 27 3t23 7q7 4 12 13t5 18q0 30 -80 30q-9 0 -16.5 9.5t-7.5 17.5q0 11 11 23.5z" />
    <glyph glyph-name="Egrave" unicode="&#xc8;" horiz-adv-x="552" 
d="M257 854.5q14 -9.5 26 -33.5q10 -21 18.5 -31.5t16 -17t11.5 -9.5q12 -10 16 -15t4 -11q0 -9 -5 -14.5t-15 -5.5q-13 0 -36.5 6t-38.5 15q-29 17 -54 42t-25 52q0 14 13 23t34 9t35 -9.5zM510.5 121.5q9.5 -14.5 9.5 -31.5q0 -21 -6.5 -29.5t-24.5 -17.5
q-42 -20 -104 -32t-133 -12q-89 0 -130.5 30t-51 72.5t-9.5 111.5q0 74 6 145.5t21 182.5q7 48 38 69.5t68 21.5q31 0 101 2l87 1q54 0 78 -3q30 -6 44.5 -13.5t14.5 -25.5q0 -20 -13.5 -39t-40.5 -19q-31 0 -89 4t-87 4q-25 0 -49 -3q-28 -2 -40 -7t-14 -17
q-14 -103 -14 -152q23 -3 45 -3q28 0 60 3t41 4q53 5 91 5q22 0 33.5 -8t11.5 -22q0 -22 -11.5 -34t-40.5 -18q-35 -7 -86.5 -11t-100.5 -4q-17 0 -47 2q-3 -61 -3 -113q0 -71 94 -71q50 0 83 7t76 20q40 15 64 15q19 0 28.5 -14.5z" />
    <glyph glyph-name="Eacute" unicode="&#xc9;" horiz-adv-x="552" 
d="M383.5 855q12.5 -9 12.5 -23q0 -27 -25.5 -52.5t-53.5 -41.5q-15 -9 -38.5 -15t-35.5 -6q-21 0 -21 20q0 6 4 11t17 15q4 4 12.5 11.5t16.5 18t16 28.5q12 24 26.5 33.5t35.5 9.5t33.5 -9zM510.5 121.5q9.5 -14.5 9.5 -31.5q0 -21 -6.5 -29.5t-24.5 -17.5
q-42 -20 -104 -32t-133 -12q-89 0 -130.5 30t-51 72.5t-9.5 111.5q0 74 6 145.5t21 182.5q7 48 38 69.5t68 21.5q31 0 101 2l87 1q54 0 78 -3q30 -6 44.5 -13.5t14.5 -25.5q0 -20 -13.5 -39t-40.5 -19q-31 0 -89 4t-87 4q-25 0 -49 -3q-28 -2 -40 -7t-14 -17
q-14 -103 -14 -152q23 -3 45 -3q28 0 60 3t41 4q53 5 91 5q22 0 33.5 -8t11.5 -22q0 -22 -11.5 -34t-40.5 -18q-35 -7 -86.5 -11t-100.5 -4q-17 0 -47 2q-3 -61 -3 -113q0 -71 94 -71q50 0 83 7t76 20q40 15 64 15q19 0 28.5 -14.5z" />
    <glyph glyph-name="Ecircumflex" unicode="&#xca;" horiz-adv-x="552" 
d="M347 853q13 -7 23 -23q10 -15 30 -34t37 -31q22 -16 22 -32q0 -9 -9 -18t-21 -9q-34 0 -61.5 23t-54.5 61q-21 -30 -55 -57t-62 -27q-16 0 -23 8.5t-7 18.5q0 8 12.5 23.5t27.5 27.5q28 23 49 50q9 11 21 18.5t35 7.5t36 -7zM510.5 121.5q9.5 -14.5 9.5 -31.5
q0 -21 -6.5 -29.5t-24.5 -17.5q-42 -20 -104 -32t-133 -12q-89 0 -130.5 30t-51 72.5t-9.5 111.5q0 74 6 145.5t21 182.5q7 48 38 69.5t68 21.5q31 0 101 2l87 1q54 0 78 -3q30 -6 44.5 -13.5t14.5 -25.5q0 -20 -13.5 -39t-40.5 -19q-31 0 -89 4t-87 4q-25 0 -49 -3
q-28 -2 -40 -7t-14 -17q-14 -103 -14 -152q23 -3 45 -3q28 0 60 3t41 4q53 5 91 5q22 0 33.5 -8t11.5 -22q0 -22 -11.5 -34t-40.5 -18q-35 -7 -86.5 -11t-100.5 -4q-17 0 -47 2q-3 -61 -3 -113q0 -71 94 -71q50 0 83 7t76 20q40 15 64 15q19 0 28.5 -14.5z" />
    <glyph glyph-name="Edieresis" unicode="&#xcb;" horiz-adv-x="552" 
d="M254.5 818.5q21.5 -13.5 21.5 -40.5q0 -19 -16.5 -30t-41.5 -11q-24 0 -33.5 12.5t-9.5 26.5q0 23 5.5 39.5t24.5 16.5q28 0 49.5 -13.5zM422.5 818.5q21.5 -13.5 21.5 -40.5q0 -19 -16.5 -30t-41.5 -11q-24 0 -33.5 12.5t-9.5 26.5q0 23 5.5 39.5t25.5 16.5
q27 0 48.5 -13.5zM510.5 121.5q9.5 -14.5 9.5 -31.5q0 -21 -6.5 -29.5t-24.5 -17.5q-42 -20 -104 -32t-133 -12q-89 0 -130.5 30t-51 72.5t-9.5 111.5q0 74 6 145.5t21 182.5q7 48 38 69.5t68 21.5q31 0 101 2l87 1q54 0 78 -3q30 -6 44.5 -13.5t14.5 -25.5q0 -20 -13.5 -39
t-40.5 -19q-31 0 -89 4t-87 4q-25 0 -49 -3q-28 -2 -40 -7t-14 -17q-14 -103 -14 -152q23 -3 45 -3q28 0 60 3t41 4q53 5 91 5q22 0 33.5 -8t11.5 -22q0 -22 -11.5 -34t-40.5 -18q-35 -7 -86.5 -11t-100.5 -4q-17 0 -47 2q-3 -61 -3 -113q0 -71 94 -71q50 0 83 7t76 20
q40 15 64 15q19 0 28.5 -14.5z" />
    <glyph glyph-name="Igrave" unicode="&#xcc;" horiz-adv-x="373" 
d="M158 854.5q14 -9.5 26 -33.5q10 -21 18.5 -31.5t16 -17t11.5 -9.5q12 -10 16 -15t4 -11q0 -9 -5 -14.5t-15 -5.5q-13 0 -36.5 6t-38.5 15q-29 17 -54 42t-25 52q0 14 13 23t34 9t35 -9.5zM230 429q0 -61 8 -179q1 -18 4 -72.5t3 -99.5q10 1 21.5 3t17.5 2q22 0 35 -11
t13 -34q0 -15 -12 -23t-41.5 -11.5t-85.5 -3.5q-62 0 -93 4t-43 15.5t-12 34.5q0 17 11 23t31 6l21 -1l33 -2l-5 118q-6 96 -6 176q0 43 3 118l2 55q-34 -2 -53 -2q-22 0 -29.5 8t-7.5 33q0 28 38.5 36t117.5 8q61 0 91.5 -4t30.5 -18q0 -34 -14.5 -44.5t-55.5 -10.5l-20 -1
q-3 -64 -3 -123z" />
    <glyph glyph-name="Iacute" unicode="&#xcd;" horiz-adv-x="373" 
d="M269.5 855q12.5 -9 12.5 -23q0 -27 -25.5 -52.5t-53.5 -41.5q-15 -9 -38.5 -15t-35.5 -6q-21 0 -21 20q0 6 4 11t17 15q4 4 12.5 11.5t16.5 18t16 28.5q12 24 26.5 33.5t35.5 9.5t33.5 -9zM230 429q0 -61 8 -179q1 -18 4 -72.5t3 -99.5q10 1 21.5 3t17.5 2q22 0 35 -11
t13 -34q0 -15 -12 -23t-41.5 -11.5t-85.5 -3.5q-62 0 -93 4t-43 15.5t-12 34.5q0 17 11 23t31 6l21 -1l33 -2l-5 118q-6 96 -6 176q0 43 3 118l2 55q-34 -2 -53 -2q-22 0 -29.5 8t-7.5 33q0 28 38.5 36t117.5 8q61 0 91.5 -4t30.5 -18q0 -34 -14.5 -44.5t-55.5 -10.5l-20 -1
q-3 -64 -3 -123z" />
    <glyph glyph-name="Icircumflex" unicode="&#xce;" horiz-adv-x="373" 
d="M224 853q13 -7 23 -23q10 -15 30 -34t37 -31q22 -16 22 -32q0 -9 -9 -18t-21 -9q-34 0 -61.5 23t-54.5 61q-21 -30 -55 -57t-62 -27q-16 0 -23 8.5t-7 18.5q0 8 12.5 23.5t27.5 27.5q28 23 49 50q9 11 21 18.5t35 7.5t36 -7zM230 429q0 -61 8 -179q1 -18 4 -72.5t3 -99.5
q10 1 21.5 3t17.5 2q22 0 35 -11t13 -34q0 -15 -12 -23t-41.5 -11.5t-85.5 -3.5q-62 0 -93 4t-43 15.5t-12 34.5q0 17 11 23t31 6l21 -1l33 -2l-5 118q-6 96 -6 176q0 43 3 118l2 55q-34 -2 -53 -2q-22 0 -29.5 8t-7.5 33q0 28 38.5 36t117.5 8q61 0 91.5 -4t30.5 -18
q0 -34 -14.5 -44.5t-55.5 -10.5l-20 -1q-3 -64 -3 -123z" />
    <glyph glyph-name="Idieresis" unicode="&#xcf;" horiz-adv-x="373" 
d="M128.5 818.5q21.5 -13.5 21.5 -40.5q0 -19 -16.5 -30t-41.5 -11q-24 0 -33.5 12.5t-9.5 26.5q0 23 5.5 39.5t24.5 16.5q28 0 49.5 -13.5zM296.5 818.5q21.5 -13.5 21.5 -40.5q0 -19 -16.5 -30t-41.5 -11q-24 0 -33.5 12.5t-9.5 26.5q0 23 5.5 39.5t25.5 16.5
q27 0 48.5 -13.5zM230 429q0 -61 8 -179q1 -18 4 -72.5t3 -99.5q10 1 21.5 3t17.5 2q22 0 35 -11t13 -34q0 -15 -12 -23t-41.5 -11.5t-85.5 -3.5q-62 0 -93 4t-43 15.5t-12 34.5q0 17 11 23t31 6l21 -1l33 -2l-5 118q-6 96 -6 176q0 43 3 118l2 55q-34 -2 -53 -2
q-22 0 -29.5 8t-7.5 33q0 28 38.5 36t117.5 8q61 0 91.5 -4t30.5 -18q0 -34 -14.5 -44.5t-55.5 -10.5l-20 -1q-3 -64 -3 -123z" />
    <glyph glyph-name="Eth" unicode="&#xd0;" horiz-adv-x="680" 
d="M451.5 597q78.5 -37 119.5 -84q32 -39 52.5 -88t20.5 -118q0 -50 -22.5 -103.5t-59.5 -89.5q-41 -38 -75.5 -61t-93 -38.5t-146.5 -15.5q-68 0 -123 15.5t-55 53.5q0 15 11.5 22.5t27.5 7.5q7 0 15 -2q7 93 7 142v32h-9q-33 0 -52 11t-19 43q0 18 13.5 28t39.5 10l24 -2
q-2 50 -13 151q-6 64 -6 75q0 22 21 37t44 15q16 0 38 -2q16 -2 24 -2q138 0 216.5 -37zM257 86h26q65 0 124 28t95.5 79t36.5 115q0 119 -76 181t-245 62q0 -20 4 -104l4 -88q24 2 34 2q32 3 49 3q22 0 37.5 -14t15.5 -39q0 -16 -15.5 -25t-48.5 -12q-18 -3 -69 -3v-13
q0 -103 -12 -168q18 -4 40 -4z" />
    <glyph glyph-name="Ntilde" unicode="&#xd1;" horiz-adv-x="675" 
d="M189 790q18 20 45 31.5t52 11.5q38 0 73 -24q28 -20 46 -19q10 0 16 5t9.5 11t4.5 8q6 9 13 13.5t18 4.5q13 0 23.5 -7.5t10.5 -22.5q0 -20 -14.5 -39.5t-37 -32t-45.5 -12.5q-26 0 -42 7t-35 21q-12 9 -19.5 13t-16.5 4q-30 0 -46 -24q-16 -23 -41 -23q-10 0 -21 8
t-11 21q0 25 18 45zM495 391q1 -21 3 -80t2 -110q0 -29 -1 -45l-94 144q-147 214 -233 322q-22 10 -42 10q-23 0 -40.5 -13t-17.5 -37q0 -47 6 -145q7 -89 7 -158q0 -25 -2 -57t-3 -45q-6 -82 -5 -123q2 -31 12.5 -43.5t32.5 -12.5q29 0 42.5 15.5t17.5 44.5q3 23 4.5 96.5
t1.5 119.5q0 104 -8 176q64 -81 165 -234q90 -137 137 -194q5 -8 18.5 -14.5t32.5 -6.5q36 0 53.5 15.5t17.5 31.5q1 16 1 49q0 41 -4 129q-4 92 -4 147q0 35 4 107q4 74 4 115q0 21 -18 30t-41 9q-27 0 -40.5 -21.5t-13.5 -50.5q0 -74 5 -171z" />
    <glyph glyph-name="Ograve" unicode="&#xd2;" horiz-adv-x="725" 
d="M349 854.5q14 -9.5 26 -33.5q10 -21 18.5 -31.5t16 -17t11.5 -9.5q12 -10 16 -15t4 -11q0 -9 -5 -14.5t-15 -5.5q-13 0 -36.5 6t-38.5 15q-29 17 -54 42t-25 52q0 14 13 23t34 9t35 -9.5zM469 619.5q55 -16.5 90 -48.5q63 -57 88.5 -124.5t25.5 -172.5q0 -22 -5.5 -40
t-17.5 -46q-15 -31 -18 -49q-20 -35 -65.5 -67t-98.5 -52t-93 -20q-193 0 -275 132q-23 37 -35.5 77t-12.5 78q0 102 36.5 177.5t101.5 117.5q39 23 81.5 38.5t75.5 15.5q67 0 122 -16.5zM180.5 195q24.5 -35 75.5 -76q42 -16 57 -20.5t34 -4.5q101 0 161 55t60 151
q0 76 -17 120t-61 79q-23 19 -58.5 28t-76.5 9q-62 0 -107 -36.5t-68.5 -94.5t-23.5 -121q0 -54 24.5 -89z" />
    <glyph glyph-name="Oacute" unicode="&#xd3;" horiz-adv-x="725" 
d="M439.5 855q12.5 -9 12.5 -23q0 -27 -25.5 -52.5t-53.5 -41.5q-15 -9 -38.5 -15t-35.5 -6q-21 0 -21 20q0 6 4 11t17 15q4 4 12.5 11.5t16.5 18t16 28.5q12 24 26.5 33.5t35.5 9.5t33.5 -9zM469 619.5q55 -16.5 90 -48.5q63 -57 88.5 -124.5t25.5 -172.5q0 -22 -5.5 -40
t-17.5 -46q-15 -31 -18 -49q-20 -35 -65.5 -67t-98.5 -52t-93 -20q-193 0 -275 132q-23 37 -35.5 77t-12.5 78q0 102 36.5 177.5t101.5 117.5q39 23 81.5 38.5t75.5 15.5q67 0 122 -16.5zM180.5 195q24.5 -35 75.5 -76q42 -16 57 -20.5t34 -4.5q101 0 161 55t60 151
q0 76 -17 120t-61 79q-23 19 -58.5 28t-76.5 9q-62 0 -107 -36.5t-68.5 -94.5t-23.5 -121q0 -54 24.5 -89z" />
    <glyph glyph-name="Ocircumflex" unicode="&#xd4;" horiz-adv-x="725" 
d="M407 853q13 -7 23 -23q10 -15 30 -34t37 -31q22 -16 22 -32q0 -9 -9 -18t-21 -9q-34 0 -61.5 23t-54.5 61q-21 -30 -55 -57t-62 -27q-16 0 -23 8.5t-7 18.5q0 8 12.5 23.5t27.5 27.5q28 23 49 50q9 11 21 18.5t35 7.5t36 -7zM469 619.5q55 -16.5 90 -48.5
q63 -57 88.5 -124.5t25.5 -172.5q0 -22 -5.5 -40t-17.5 -46q-15 -31 -18 -49q-20 -35 -65.5 -67t-98.5 -52t-93 -20q-193 0 -275 132q-23 37 -35.5 77t-12.5 78q0 102 36.5 177.5t101.5 117.5q39 23 81.5 38.5t75.5 15.5q67 0 122 -16.5zM180.5 195q24.5 -35 75.5 -76
q42 -16 57 -20.5t34 -4.5q101 0 161 55t60 151q0 76 -17 120t-61 79q-23 19 -58.5 28t-76.5 9q-62 0 -107 -36.5t-68.5 -94.5t-23.5 -121q0 -54 24.5 -89z" />
    <glyph glyph-name="Otilde" unicode="&#xd5;" horiz-adv-x="725" 
d="M220 790q18 20 45 31.5t52 11.5q38 0 73 -24q28 -20 46 -19q10 0 16 5t9.5 11t4.5 8q6 9 13 13.5t18 4.5q13 0 23.5 -7.5t10.5 -22.5q0 -20 -14.5 -39.5t-37 -32t-45.5 -12.5q-26 0 -42 7t-35 21q-12 9 -19.5 13t-16.5 4q-30 0 -46 -24q-16 -23 -41 -23q-10 0 -21 8
t-11 21q0 25 18 45zM271.5 620.5q-42.5 -15.5 -81.5 -38.5q-65 -42 -101.5 -117.5t-36.5 -177.5q0 -38 12.5 -78t35.5 -77q82 -132 275 -132q40 0 93 20t98.5 52t65.5 67q3 18 18 49q12 28 17.5 46t5.5 40q0 105 -25.5 172.5t-88.5 124.5q-35 32 -90 48.5t-122 16.5
q-33 0 -75.5 -15.5zM179.5 405q23.5 58 68.5 94.5t107 36.5q41 0 76.5 -9t58.5 -28q44 -35 61 -79t17 -120q0 -96 -60 -151t-161 -55q-19 0 -34 4.5t-57 20.5q-51 41 -75.5 76t-24.5 89q0 63 23.5 121z" />
    <glyph glyph-name="Odieresis" unicode="&#xd6;" horiz-adv-x="725" 
d="M310.5 818.5q21.5 -13.5 21.5 -40.5q0 -19 -16.5 -30t-41.5 -11q-24 0 -33.5 12.5t-9.5 26.5q0 23 5.5 39.5t24.5 16.5q28 0 49.5 -13.5zM478.5 818.5q21.5 -13.5 21.5 -40.5q0 -19 -16.5 -30t-41.5 -11q-24 0 -33.5 12.5t-9.5 26.5q0 23 5.5 39.5t25.5 16.5
q27 0 48.5 -13.5zM469 619.5q55 -16.5 90 -48.5q63 -57 88.5 -124.5t25.5 -172.5q0 -22 -5.5 -40t-17.5 -46q-15 -31 -18 -49q-20 -35 -65.5 -67t-98.5 -52t-93 -20q-193 0 -275 132q-23 37 -35.5 77t-12.5 78q0 102 36.5 177.5t101.5 117.5q39 23 81.5 38.5t75.5 15.5
q67 0 122 -16.5zM180.5 195q24.5 -35 75.5 -76q42 -16 57 -20.5t34 -4.5q101 0 161 55t60 151q0 76 -17 120t-61 79q-23 19 -58.5 28t-76.5 9q-62 0 -107 -36.5t-68.5 -94.5t-23.5 -121q0 -54 24.5 -89z" />
    <glyph glyph-name="multiply" unicode="&#xd7;" horiz-adv-x="489" 
d="M420.5 130q10.5 -10 17 -21.5t6.5 -23.5q0 -17 -14 -28.5t-33 -11.5q-14 0 -39.5 20t-59.5 52q-20 20 -24 22q-25 15 -36 30q-14 -9 -28.5 -26t-20.5 -24q-14 -19 -53 -60q-12 -13 -21.5 -19t-24.5 -6q-16 0 -30.5 10.5t-14.5 26.5q0 20 23 51q22 24 48 45q22 19 34.5 32
t20.5 29q-15 18 -35 35.5t-42 34.5q-45 43 -45 66q0 15 16 30t37 15q17 0 34 -17q17 -16 37 -40q48 -52 65 -63q19 22 43 43q36 37 57.5 54t37.5 17q20 0 35 -10t15 -28q0 -16 -4 -23t-11 -13q-74 -47 -112 -99q19 -20 56 -46q36 -26 53 -42q2 -2 12.5 -12z" />
    <glyph glyph-name="Oslash" unicode="&#xd8;" horiz-adv-x="725" 
d="M518 599q30 41 41 58q13 17 36 17q16 0 27.5 -9t11.5 -23q0 -11 -8.5 -24.5t-28.5 -39.5l-14 -19l-4 -6q52 -53 73 -117.5t21 -161.5q0 -22 -5.5 -40t-17.5 -46q-15 -31 -18 -49q-20 -35 -65.5 -67t-98.5 -52t-93 -20q-105 0 -181 41l-21 -30l-20 -30q-4 -5 -10 -8.5
t-11 -3.5q-16 0 -31 11.5t-15 26.5q0 13 6 20l42 60q-21 22 -34 45q-23 37 -35.5 77t-12.5 78q0 102 36.5 177.5t101.5 117.5q39 23 81.5 38.5t75.5 15.5q103 0 171 -37zM355 536q-62 0 -108 -37t-69.5 -95t-23.5 -121q0 -35 11 -61.5t33 -50.5q5 7 52 68l99 131l109 147
q-45 19 -103 19zM313 98.5q15 -4.5 34 -4.5q101 0 161 55t60 151q0 61 -11 101t-38 71l-79 -106q-17 -23 -69.5 -91.5t-116.5 -153.5l2 -2q42 -16 57 -20.5z" />
    <glyph glyph-name="Ugrave" unicode="&#xd9;" horiz-adv-x="663" 
d="M300 854.5q14 -9.5 26 -33.5q10 -21 18.5 -31.5t16 -17t11.5 -9.5q12 -10 16 -15t4 -11q0 -9 -5 -14.5t-15 -5.5q-13 0 -36.5 6t-38.5 15q-29 17 -54 42t-25 52q0 14 13 23t34 9t35 -9.5zM175 503l-1 -65q0 -95 14 -159q20 -90 60 -139q37 -43 91 -43q42 0 75 25.5
t51 63.5q30 62 30 153q0 55 -7 130q-6 84 -6 126q0 22 26 28.5t54 6.5q10 0 23 -13t13 -28q0 -30 -3 -57q-2 -30 -2 -42q0 -38 4 -106q1 -17 2 -41t1 -55q0 -68 -32.5 -135.5t-90.5 -111t-131 -43.5q-112 0 -175 72.5t-86 187.5q-13 66 -16.5 138t-3.5 193q0 16 15.5 30
t33.5 14q63 0 63 -53q0 -29 -2 -77z" />
    <glyph glyph-name="Uacute" unicode="&#xda;" horiz-adv-x="663" 
d="M419.5 855q12.5 -9 12.5 -23q0 -27 -25.5 -52.5t-53.5 -41.5q-15 -9 -38.5 -15t-35.5 -6q-21 0 -21 20q0 6 4 11t17 15q4 4 12.5 11.5t16.5 18t16 28.5q12 24 26.5 33.5t35.5 9.5t33.5 -9zM175 503l-1 -65q0 -95 14 -159q20 -90 60 -139q37 -43 91 -43q42 0 75 25.5
t51 63.5q30 62 30 153q0 55 -7 130q-6 84 -6 126q0 22 26 28.5t54 6.5q10 0 23 -13t13 -28q0 -30 -3 -57q-2 -30 -2 -42q0 -38 4 -106q1 -17 2 -41t1 -55q0 -68 -32.5 -135.5t-90.5 -111t-131 -43.5q-112 0 -175 72.5t-86 187.5q-13 66 -16.5 138t-3.5 193q0 16 15.5 30
t33.5 14q63 0 63 -53q0 -29 -2 -77z" />
    <glyph glyph-name="Ucircumflex" unicode="&#xdb;" horiz-adv-x="663" 
d="M372 853q13 -7 23 -23q10 -15 30 -34t37 -31q22 -16 22 -32q0 -9 -9 -18t-21 -9q-34 0 -61.5 23t-54.5 61q-21 -30 -55 -57t-62 -27q-16 0 -23 8.5t-7 18.5q0 8 12.5 23.5t27.5 27.5q28 23 49 50q9 11 21 18.5t35 7.5t36 -7zM175 503l-1 -65q0 -95 14 -159
q20 -90 60 -139q37 -43 91 -43q42 0 75 25.5t51 63.5q30 62 30 153q0 55 -7 130q-6 84 -6 126q0 22 26 28.5t54 6.5q10 0 23 -13t13 -28q0 -30 -3 -57q-2 -30 -2 -42q0 -38 4 -106q1 -17 2 -41t1 -55q0 -68 -32.5 -135.5t-90.5 -111t-131 -43.5q-112 0 -175 72.5t-86 187.5
q-13 66 -16.5 138t-3.5 193q0 16 15.5 30t33.5 14q63 0 63 -53q0 -29 -2 -77z" />
    <glyph glyph-name="Udieresis" unicode="&#xdc;" horiz-adv-x="663" 
d="M277.5 818.5q21.5 -13.5 21.5 -40.5q0 -19 -16.5 -30t-41.5 -11q-24 0 -33.5 12.5t-9.5 26.5q0 23 5.5 39.5t24.5 16.5q28 0 49.5 -13.5zM445.5 818.5q21.5 -13.5 21.5 -40.5q0 -19 -16.5 -30t-41.5 -11q-24 0 -33.5 12.5t-9.5 26.5q0 23 5.5 39.5t25.5 16.5
q27 0 48.5 -13.5zM175 503l-1 -65q0 -95 14 -159q20 -90 60 -139q37 -43 91 -43q42 0 75 25.5t51 63.5q30 62 30 153q0 55 -7 130q-6 84 -6 126q0 22 26 28.5t54 6.5q10 0 23 -13t13 -28q0 -30 -3 -57q-2 -30 -2 -42q0 -38 4 -106q1 -17 2 -41t1 -55q0 -68 -32.5 -135.5
t-90.5 -111t-131 -43.5q-112 0 -175 72.5t-86 187.5q-13 66 -16.5 138t-3.5 193q0 16 15.5 30t33.5 14q63 0 63 -53q0 -29 -2 -77z" />
    <glyph glyph-name="Yacute" unicode="&#xdd;" horiz-adv-x="569" 
d="M382.5 855q12.5 -9 12.5 -23q0 -27 -25.5 -52.5t-53.5 -41.5q-15 -9 -38.5 -15t-35.5 -6q-21 0 -21 20q0 6 4 11t17 15q4 4 12.5 11.5t16.5 18t16 28.5q12 24 26.5 33.5t35.5 9.5t33.5 -9zM529 534q-37 -42 -193 -258q2 -129 8 -177q3 -30 3 -43q0 -33 -11.5 -44.5
t-39.5 -11.5q-21 0 -39.5 12.5t-18.5 30.5q0 73 -3 214q0 6 -8 20t-10 18q-21 37 -52.5 82.5t-54.5 68.5q-44 44 -69 79.5t-25 50.5q0 21 19.5 33.5t42.5 12.5q13 0 27.5 -7t23.5 -20q59 -88 105 -146l47 -61q43 44 75.5 87.5t71.5 103.5l17 26q19 26 59 26q19 0 37.5 -11
t18.5 -33q0 -18 -31 -53z" />
    <glyph glyph-name="Thorn" unicode="&#xde;" horiz-adv-x="571" 
d="M216 149l-37 5v-21q1 -18 1 -80q0 -26 -14 -40.5t-33 -14.5q-61 0 -61 47q0 51 4 99q5 70 5 139q0 197 -5 291q0 24 8 43t38 19q28 0 43.5 -11.5t15.5 -45.5q0 -13 -2 -33l-2 -22l30 3q37 5 68 5q84 0 130.5 -15.5t92.5 -52.5q46 -72 46 -105q0 -65 -31 -114.5
t-84.5 -76.5t-117.5 -27q-44 0 -95 8zM178 433l1 -102q1 -32 1 -90q37 -8 59 -9.5t39 -1.5h23q76 0 108 33.5t32 82.5q0 14 -8 34t-15 27q-26 23 -51.5 29.5t-74.5 6.5q-70 0 -114 -10z" />
    <glyph glyph-name="germandbls" unicode="&#xdf;" horiz-adv-x="613" 
d="M527 243.5q23 -15.5 38.5 -42t15.5 -67.5q0 -28 -16.5 -59t-56.5 -53t-105 -22q-19 0 -43 4t-35 8q-19 8 -49.5 32t-30.5 40q0 20 13 39t33 19q14 0 22.5 -4.5t15.5 -12t12 -11.5q19 -17 30 -23t28 -6q78 0 78 52q0 27 -25.5 44.5t-72.5 38.5q-23 9 -34 15q-2 1 -21.5 11
t-35 32t-15.5 50q0 39 20 62.5t61 51.5q7 5 23 16t24 20t8 18q0 47 -28 65t-76 18q-31 0 -61.5 -16t-50 -41t-19.5 -52q0 -59 -3 -118q-2 -74 -2 -110q0 -39 -2 -105l-1 -95q0 -18 -13.5 -31t-34.5 -13q-16 0 -30 11l-4 6q-16 36 -16 98l1 44q1 15 1 43q0 20 -1 30
q-2 34 -2 52q0 44 3 87q1 15 2 44.5t1 51.5q0 53 21.5 94.5t64.5 76.5q25 21 68.5 30t111.5 9q30 0 62.5 -14t58 -33t34.5 -33q23 -38 23 -94q0 -43 -21 -67.5t-62 -49.5q-30 -17 -42 -28.5t-12 -25.5q0 -10 15.5 -18.5t42.5 -19.5q16 -6 21 -9q45 -24 68 -39.5z" />
    <glyph glyph-name="agrave" unicode="&#xe0;" horiz-adv-x="521" 
d="M247 627.5q14 -9.5 26 -33.5q10 -21 18.5 -31.5t16 -17t11.5 -9.5q12 -10 16 -15t4 -11q0 -9 -5 -14.5t-15 -5.5q-13 0 -36.5 6t-38.5 15q-29 17 -54 42t-25 52q0 14 13 23t34 9t35 -9.5zM484.5 11q-23.5 -15 -43.5 -15q-38 0 -60.5 9.5t-41.5 35.5q-26 -23 -71 -34.5
t-83 -11.5q-62 0 -102 33.5t-40 98.5q0 28 15 51.5t41 41.5q29 19 66 29.5t77 10.5q21 0 50 -8t45 -17v16q0 54 -26 74.5t-84 20.5q-17 0 -33.5 -7t-37.5 -19q-28 -15 -53 -15q-9 0 -17 12.5t-8 22.5q0 29 27.5 50t65.5 31.5t68 10.5t69 -11.5t64 -31.5q30 -26 46.5 -60.5
t16.5 -75.5q0 -13 -2 -39q-2 -28 -2 -48q0 -9 -2 -27q-2 -22 -2 -35q0 -12 9 -20.5t21 -8.5l28 1q11 0 17 -8t6 -20q0 -22 -23.5 -37zM258 83q29 9 70 33q4 17 5 45q-55 26 -91 26q-41 0 -73 -15t-32 -53q0 -19 16 -32t33 -13q43 0 72 9z" />
    <glyph glyph-name="aacute" unicode="&#xe1;" horiz-adv-x="521" 
d="M354.5 628q12.5 -9 12.5 -23q0 -27 -25.5 -52.5t-53.5 -41.5q-15 -9 -38.5 -15t-35.5 -6q-21 0 -21 20q0 6 4 11t17 15q4 4 12.5 11.5t16.5 18t16 28.5q12 24 26.5 33.5t35.5 9.5t33.5 -9zM484.5 11q-23.5 -15 -43.5 -15q-38 0 -60.5 9.5t-41.5 35.5q-26 -23 -71 -34.5
t-83 -11.5q-62 0 -102 33.5t-40 98.5q0 28 15 51.5t41 41.5q29 19 66 29.5t77 10.5q21 0 50 -8t45 -17v16q0 54 -26 74.5t-84 20.5q-17 0 -33.5 -7t-37.5 -19q-28 -15 -53 -15q-9 0 -17 12.5t-8 22.5q0 29 27.5 50t65.5 31.5t68 10.5t69 -11.5t64 -31.5q30 -26 46.5 -60.5
t16.5 -75.5q0 -13 -2 -39q-2 -28 -2 -48q0 -9 -2 -27q-2 -22 -2 -35q0 -12 9 -20.5t21 -8.5l28 1q11 0 17 -8t6 -20q0 -22 -23.5 -37zM258 83q29 9 70 33q4 17 5 45q-55 26 -91 26q-41 0 -73 -15t-32 -53q0 -19 16 -32t33 -13q43 0 72 9z" />
    <glyph glyph-name="acircumflex" unicode="&#xe2;" horiz-adv-x="521" 
d="M288 634q13 -7 23 -23q10 -15 30 -34t37 -31q22 -16 22 -32q0 -9 -9 -18t-21 -9q-34 0 -61.5 23t-54.5 61q-21 -30 -55 -57t-62 -27q-16 0 -23 8.5t-7 18.5q0 8 12.5 23.5t27.5 27.5q28 23 49 50q9 11 21 18.5t35 7.5t36 -7zM484.5 11q-23.5 -15 -43.5 -15
q-38 0 -60.5 9.5t-41.5 35.5q-26 -23 -71 -34.5t-83 -11.5q-62 0 -102 33.5t-40 98.5q0 28 15 51.5t41 41.5q29 19 66 29.5t77 10.5q21 0 50 -8t45 -17v16q0 54 -26 74.5t-84 20.5q-17 0 -33.5 -7t-37.5 -19q-28 -15 -53 -15q-9 0 -17 12.5t-8 22.5q0 29 27.5 50t65.5 31.5
t68 10.5t69 -11.5t64 -31.5q30 -26 46.5 -60.5t16.5 -75.5q0 -13 -2 -39q-2 -28 -2 -48q0 -9 -2 -27q-2 -22 -2 -35q0 -12 9 -20.5t21 -8.5l28 1q11 0 17 -8t6 -20q0 -22 -23.5 -37zM258 83q29 9 70 33q4 17 5 45q-55 26 -91 26q-41 0 -73 -15t-32 -53q0 -19 16 -32t33 -13
q43 0 72 9z" />
    <glyph glyph-name="atilde" unicode="&#xe3;" horiz-adv-x="521" 
d="M104 561q18 20 45 31.5t52 11.5q38 0 73 -24q28 -20 46 -19q10 0 16 5t9.5 11t4.5 8q6 9 13 13.5t18 4.5q13 0 23.5 -7.5t10.5 -22.5q0 -20 -14.5 -39.5t-37 -32t-45.5 -12.5q-26 0 -42 7t-35 21q-12 9 -19.5 13t-16.5 4q-30 0 -46 -24q-16 -23 -41 -23q-10 0 -21 8
t-11 21q0 25 18 45zM502 68q-6 8 -17 8l-28 -1q-12 0 -21 8.5t-9 20.5q0 13 2 35q2 18 2 27q0 20 2 48q2 26 2 39q0 41 -16.5 75.5t-46.5 60.5q-25 20 -64 31.5t-69 11.5t-68 -10.5t-65.5 -31.5t-27.5 -50q0 -10 8 -22.5t17 -12.5q25 0 53 15q21 12 37.5 19t33.5 7
q58 0 84 -20.5t26 -74.5v-16q-16 9 -45 17t-50 8q-40 0 -77 -10.5t-66 -29.5q-26 -18 -41 -41.5t-15 -51.5q0 -65 40 -98.5t102 -33.5q38 0 83 11.5t71 34.5q19 -26 41.5 -35.5t60.5 -9.5q20 0 43.5 15t23.5 37q0 12 -6 20zM153 87q-16 13 -16 32q0 38 32 53t73 15
q36 0 91 -26q-1 -28 -5 -45q-41 -24 -70 -33t-72 -9q-17 0 -33 13z" />
    <glyph glyph-name="adieresis" unicode="&#xe4;" horiz-adv-x="521" 
d="M196.5 583.5q21.5 -13.5 21.5 -40.5q0 -19 -16.5 -30t-41.5 -11q-24 0 -33.5 12.5t-9.5 26.5q0 23 5.5 39.5t24.5 16.5q28 0 49.5 -13.5zM364.5 583.5q21.5 -13.5 21.5 -40.5q0 -19 -16.5 -30t-41.5 -11q-24 0 -33.5 12.5t-9.5 26.5q0 23 5.5 39.5t25.5 16.5
q27 0 48.5 -13.5zM484.5 11q-23.5 -15 -43.5 -15q-38 0 -60.5 9.5t-41.5 35.5q-26 -23 -71 -34.5t-83 -11.5q-62 0 -102 33.5t-40 98.5q0 28 15 51.5t41 41.5q29 19 66 29.5t77 10.5q21 0 50 -8t45 -17v16q0 54 -26 74.5t-84 20.5q-17 0 -33.5 -7t-37.5 -19q-28 -15 -53 -15
q-9 0 -17 12.5t-8 22.5q0 29 27.5 50t65.5 31.5t68 10.5t69 -11.5t64 -31.5q30 -26 46.5 -60.5t16.5 -75.5q0 -13 -2 -39q-2 -28 -2 -48q0 -9 -2 -27q-2 -22 -2 -35q0 -12 9 -20.5t21 -8.5l28 1q11 0 17 -8t6 -20q0 -22 -23.5 -37zM258 83q29 9 70 33q4 17 5 45
q-55 26 -91 26q-41 0 -73 -15t-32 -53q0 -19 16 -32t33 -13q43 0 72 9z" />
    <glyph glyph-name="aring" unicode="&#xe5;" horiz-adv-x="521" 
d="M227.5 490.5q-22.5 4.5 -33.5 15.5q-36 36 -36 72q0 20 13 39.5t35 32.5t49 13q52 0 80 -23.5t28 -68.5q0 -18 -14.5 -38t-35.5 -33.5t-39 -13.5q-24 0 -46.5 4.5zM231.5 601.5q-12.5 -9.5 -12.5 -25.5q0 -17 10.5 -28t27.5 -11q20 0 32.5 9t12.5 26q0 18 -12 28.5
t-33 10.5q-13 0 -25.5 -9.5zM502 68q-6 8 -17 8l-28 -1q-12 0 -21 8.5t-9 20.5q0 13 2 35q2 18 2 27q0 20 2 48q2 26 2 39q0 41 -16.5 75.5t-46.5 60.5q-25 20 -64 31.5t-69 11.5t-68 -10.5t-65.5 -31.5t-27.5 -50q0 -10 8 -22.5t17 -12.5q25 0 53 15q21 12 37.5 19t33.5 7
q58 0 84 -20.5t26 -74.5v-16q-16 9 -45 17t-50 8q-40 0 -77 -10.5t-66 -29.5q-26 -18 -41 -41.5t-15 -51.5q0 -65 40 -98.5t102 -33.5q38 0 83 11.5t71 34.5q19 -26 41.5 -35.5t60.5 -9.5q20 0 43.5 15t23.5 37q0 12 -6 20zM153 87q-16 13 -16 32q0 38 32 53t73 15
q36 0 91 -26q-1 -28 -5 -45q-41 -24 -70 -33t-72 -9q-17 0 -33 13z" />
    <glyph glyph-name="ae" unicode="&#xe6;" horiz-adv-x="757" 
d="M85 29q-42 33 -42 98q0 28 15 51.5t41 41.5q31 21 63 30.5t77 9.5q20 0 47.5 -8t45.5 -17v16q0 54 -25.5 75.5t-82.5 21.5q-14 0 -27.5 -6t-24.5 -12.5t-16 -9.5q-28 -15 -53 -15q-9 0 -17 12.5t-8 22.5q0 29 27 50t64.5 31.5t67.5 10.5q29 0 66.5 -11.5t62.5 -31.5
q9 -7 23 -24q25 31 70.5 51t81.5 20q37 0 78 -13t58 -36q37 -52 37 -102q0 -27 -11.5 -46t-32.5 -41q-29 -30 -124 -30q-47 0 -114 16q2 -20 10 -39.5t19 -29.5q20 -19 39.5 -24.5t52.5 -5.5t64 12q21 9 41 9q19 0 29 -10.5t10 -28.5q0 -25 -28.5 -40.5t-65 -23t-59.5 -7.5
q-104 0 -159 61h-1q-68 -61 -195 -61q-62 0 -104 33zM505 342q-19 -9 -34 -24q-17 -18 -24 -31.5t-9 -33.5q25 -8 98 -8q43 0 65.5 12.5t22.5 34.5t-25.5 40.5t-53.5 18.5q-21 0 -40 -9zM255 82q24 8 67 34q5 16 6 45q-29 13 -49.5 19.5t-39.5 6.5q-40 0 -71 -15t-31 -53
q0 -19 17.5 -32t35.5 -13q41 0 65 8z" />
    <glyph glyph-name="ccedilla" unicode="&#xe7;" horiz-adv-x="469" 
d="M186.5 -56q6.5 9 17.5 21q18 22 30 33q-53 6 -96.5 33.5t-69 72.5t-25.5 101q0 64 29 117t78 83t107 30q33 0 68 -12t59 -35t24 -54q0 -44 -45 -44q-15 0 -25 7t-22 21q-30 33 -52 33q-29 0 -56.5 -17t-44.5 -48t-17 -69q0 -42 16.5 -70t51.5 -48q13 -7 30.5 -11t30.5 -4
q29 0 73 23q16 8 27 12t23 4q11 0 25 -10t14 -25q0 -34 -38 -56.5t-91 -31.5q-3 -6 -21 -28q-20 -27 -22 -30q41 -4 65.5 -23.5t24.5 -55.5q0 -32 -42 -65q-14 -10 -39.5 -16.5t-58.5 -6.5q-24 0 -41.5 12.5t-17.5 32.5q0 8 7.5 14t15.5 6q10 0 20 -6t18 -6q12 0 26.5 3
t22.5 7q7 4 12 12.5t5 18.5q0 20 -25.5 25t-54.5 5q-8 0 -15.5 9.5t-7.5 17.5q0 9 6.5 18z" />
    <glyph glyph-name="egrave" unicode="&#xe8;" horiz-adv-x="477" 
d="M229 624.5q14 -9.5 26 -33.5q10 -21 18.5 -31.5t16 -17t11.5 -9.5q12 -10 16 -15t4 -11q0 -9 -5 -14.5t-15 -5.5q-13 0 -36.5 6t-38.5 15q-29 17 -54 42t-25 52q0 14 13 23t34 9t35 -9.5zM59 288.5q14 38.5 37 70.5t73 52.5t89 20.5q40 0 81.5 -11t57.5 -34
q37 -52 37 -102q0 -27 -11.5 -46t-32.5 -41q-17 -18 -53.5 -24t-72.5 -6q-23 0 -56 4.5t-64 11.5q2 -20 10 -39t19 -29q20 -19 41.5 -24t55.5 -5q36 0 67 12q25 9 41 9q19 0 29 -11.5t10 -29.5q0 -25 -29 -41t-66.5 -23.5t-60.5 -7.5q-47 0 -91 17t-73 48q-24 28 -38 67.5
t-14 84.5q0 38 14 76.5zM219 338.5q-22 -8.5 -36 -23.5q-18 -19 -24.5 -30.5t-8.5 -31.5q25 -8 104 -8q43 0 66.5 13t23.5 34t-26 38t-55 17q-22 0 -44 -8.5z" />
    <glyph glyph-name="eacute" unicode="&#xe9;" horiz-adv-x="477" 
d="M338.5 625q12.5 -9 12.5 -23q0 -27 -25.5 -52.5t-53.5 -41.5q-15 -9 -38.5 -15t-35.5 -6q-21 0 -21 20q0 6 4 11t17 15q4 4 12.5 11.5t16.5 18t16 28.5q12 24 26.5 33.5t35.5 9.5t33.5 -9zM59 288.5q14 38.5 37 70.5t73 52.5t89 20.5q40 0 81.5 -11t57.5 -34
q37 -52 37 -102q0 -27 -11.5 -46t-32.5 -41q-17 -18 -53.5 -24t-72.5 -6q-23 0 -56 4.5t-64 11.5q2 -20 10 -39t19 -29q20 -19 41.5 -24t55.5 -5q36 0 67 12q25 9 41 9q19 0 29 -11.5t10 -29.5q0 -25 -29 -41t-66.5 -23.5t-60.5 -7.5q-47 0 -91 17t-73 48q-24 28 -38 67.5
t-14 84.5q0 38 14 76.5zM219 338.5q-22 -8.5 -36 -23.5q-18 -19 -24.5 -30.5t-8.5 -31.5q25 -8 104 -8q43 0 66.5 13t23.5 34t-26 38t-55 17q-22 0 -44 -8.5z" />
    <glyph glyph-name="ecircumflex" unicode="&#xea;" horiz-adv-x="477" 
d="M290 634q13 -7 23 -23q10 -15 30 -34t37 -31q22 -16 22 -32q0 -9 -9 -18t-21 -9q-34 0 -61.5 23t-54.5 61q-21 -30 -55 -57t-62 -27q-16 0 -23 8.5t-7 18.5q0 8 12.5 23.5t27.5 27.5q28 23 49 50q9 11 21 18.5t35 7.5t36 -7zM59 288.5q14 38.5 37 70.5t73 52.5t89 20.5
q40 0 81.5 -11t57.5 -34q37 -52 37 -102q0 -27 -11.5 -46t-32.5 -41q-17 -18 -53.5 -24t-72.5 -6q-23 0 -56 4.5t-64 11.5q2 -20 10 -39t19 -29q20 -19 41.5 -24t55.5 -5q36 0 67 12q25 9 41 9q19 0 29 -11.5t10 -29.5q0 -25 -29 -41t-66.5 -23.5t-60.5 -7.5q-47 0 -91 17
t-73 48q-24 28 -38 67.5t-14 84.5q0 38 14 76.5zM219 338.5q-22 -8.5 -36 -23.5q-18 -19 -24.5 -30.5t-8.5 -31.5q25 -8 104 -8q43 0 66.5 13t23.5 34t-26 38t-55 17q-22 0 -44 -8.5z" />
    <glyph glyph-name="edieresis" unicode="&#xeb;" horiz-adv-x="477" 
d="M199.5 583.5q21.5 -13.5 21.5 -40.5q0 -19 -16.5 -30t-41.5 -11q-24 0 -33.5 12.5t-9.5 26.5q0 23 5.5 39.5t24.5 16.5q28 0 49.5 -13.5zM367.5 583.5q21.5 -13.5 21.5 -40.5q0 -19 -16.5 -30t-41.5 -11q-24 0 -33.5 12.5t-9.5 26.5q0 23 5.5 39.5t25.5 16.5
q27 0 48.5 -13.5zM59 288.5q14 38.5 37 70.5t73 52.5t89 20.5q40 0 81.5 -11t57.5 -34q37 -52 37 -102q0 -27 -11.5 -46t-32.5 -41q-17 -18 -53.5 -24t-72.5 -6q-23 0 -56 4.5t-64 11.5q2 -20 10 -39t19 -29q20 -19 41.5 -24t55.5 -5q36 0 67 12q25 9 41 9q19 0 29 -11.5
t10 -29.5q0 -25 -29 -41t-66.5 -23.5t-60.5 -7.5q-47 0 -91 17t-73 48q-24 28 -38 67.5t-14 84.5q0 38 14 76.5zM219 338.5q-22 -8.5 -36 -23.5q-18 -19 -24.5 -30.5t-8.5 -31.5q25 -8 104 -8q43 0 66.5 13t23.5 34t-26 38t-55 17q-22 0 -44 -8.5z" />
    <glyph glyph-name="igrave" unicode="&#xec;" horiz-adv-x="256" 
d="M90 683.5q14 -9.5 26 -33.5q10 -21 18.5 -31.5t16 -17t11.5 -9.5q12 -10 16 -15t4 -11q0 -9 -5 -14.5t-15 -5.5q-13 0 -36.5 6t-38.5 15q-29 17 -54 42t-25 52q0 14 13 23t34 9t35 -9.5zM184 199v-29q0 -39 2.5 -73.5t6.5 -69.5q-1 -10 -15 -20.5t-25 -10.5
q-19 0 -38.5 7.5t-23.5 18.5q-6 32 -6 57q0 82 -5 184q-4 90 -4 127q0 18 18 31t38 13q29 0 40.5 -13t11.5 -41v-181z" />
    <glyph glyph-name="iacute" unicode="&#xed;" horiz-adv-x="256" 
d="M229.5 625q12.5 -9 12.5 -23q0 -27 -25.5 -52.5t-53.5 -41.5q-15 -9 -38.5 -15t-35.5 -6q-21 0 -21 20q0 6 4 11t17 15q4 4 12.5 11.5t16.5 18t16 28.5q12 24 26.5 33.5t35.5 9.5t33.5 -9zM184 199v-29q0 -39 2.5 -73.5t6.5 -69.5q-1 -10 -15 -20.5t-25 -10.5
q-19 0 -38.5 7.5t-23.5 18.5q-6 32 -6 57q0 82 -5 184q-4 90 -4 127q0 18 18 31t38 13q29 0 40.5 -13t11.5 -41v-181z" />
    <glyph glyph-name="icircumflex" unicode="&#xee;" horiz-adv-x="256" 
d="M162 682q13 -7 23 -23q10 -15 30 -34t37 -31q22 -16 22 -32q0 -9 -9 -18t-21 -9q-34 0 -61.5 23t-54.5 61q-21 -30 -55 -57t-62 -27q-16 0 -23 8.5t-7 18.5q0 8 12.5 23.5t27.5 27.5q28 23 49 50q9 11 21 18.5t35 7.5t36 -7zM184 199v-29q0 -39 2.5 -73.5t6.5 -69.5
q-1 -10 -15 -20.5t-25 -10.5q-19 0 -38.5 7.5t-23.5 18.5q-6 32 -6 57q0 82 -5 184q-4 90 -4 127q0 18 18 31t38 13q29 0 40.5 -13t11.5 -41v-181z" />
    <glyph glyph-name="idieresis" unicode="&#xef;" horiz-adv-x="256" 
d="M72.5 647.5q21.5 -13.5 21.5 -40.5q0 -19 -16.5 -30t-41.5 -11q-24 0 -33.5 12.5t-9.5 26.5q0 23 5.5 39.5t24.5 16.5q28 0 49.5 -13.5zM240.5 647.5q21.5 -13.5 21.5 -40.5q0 -19 -16.5 -30t-41.5 -11q-24 0 -33.5 12.5t-9.5 26.5q0 23 5.5 39.5t25.5 16.5
q27 0 48.5 -13.5zM184 199v-29q0 -39 2.5 -73.5t6.5 -69.5q-1 -10 -15 -20.5t-25 -10.5q-19 0 -38.5 7.5t-23.5 18.5q-6 32 -6 57q0 82 -5 184q-4 90 -4 127q0 18 18 31t38 13q29 0 40.5 -13t11.5 -41v-181z" />
    <glyph glyph-name="eth" unicode="&#xf0;" horiz-adv-x="527" 
d="M225 557q-7 5 -28 17.5t-35.5 23.5t-14.5 17q0 45 40 45q33 0 60.5 -10.5t58.5 -34.5q24 16 32 24q16 15 22.5 18t19.5 3q12 0 24.5 -11.5t12.5 -24.5q0 -8 -21 -25t-41 -31l4 -4q53 -55 83.5 -146.5t30.5 -164.5q0 -67 -17 -127q-30 -55 -88.5 -91.5t-119.5 -36.5
q-50 0 -102.5 34t-72.5 77q-1 3 -14.5 45t-13.5 63q0 70 66 151q17 23 61.5 40t81.5 17q20 0 50 -7t43 -20q-6 26 -25.5 57.5t-45.5 57.5q-42 -31 -49 -38q-6 -5 -18.5 -11.5t-19.5 -6.5q-8 0 -24 12.5t-16 20.5t3.5 14t5.5 8zM372 229q0 30 -9.5 51t-30.5 42q-2 2 -11 6.5
t-25 9t-36 4.5q-58 0 -85 -39.5t-27 -94.5q0 -29 12.5 -58t36 -48t53.5 -19t66.5 25t49.5 56q6 14 6 65z" />
    <glyph glyph-name="ntilde" unicode="&#xf1;" horiz-adv-x="565" 
d="M148 619q18 20 45 31.5t52 11.5q38 0 73 -24q28 -20 46 -19q10 0 16 5t9.5 11t4.5 8q6 9 13 13.5t18 4.5q13 0 23.5 -7.5t10.5 -22.5q0 -20 -14.5 -39.5t-37 -32t-45.5 -12.5q-26 0 -42 7t-35 21q-12 9 -19.5 13t-16.5 4q-30 0 -46 -24q-16 -23 -41 -23q-10 0 -21 8
t-11 21q0 25 18 45zM482 163q0 30 3 57q2 34 2 49q0 26 -12 58.5t-30 54.5q-19 20 -45.5 35t-49.5 15q-60 0 -98.5 -19.5t-64.5 -67.5q-8 31 -20 48t-21 22q-17 10 -27 13t-26 3q-19 0 -33.5 -7t-29.5 -19q-14 -13 -14 -34q0 -11 11.5 -21t21.5 -10q6 0 15 3.5t14 3.5
q16 0 28 -22.5t12 -46.5l1 -47q1 -13 1 -36q0 -52 -12 -122q-2 -12 -2 -21l1 -17q3 -15 24 -27t35 -12q9 0 19.5 3.5t15.5 8.5q7 10 9 20.5t1.5 20t-0.5 13.5q-1 17 -1 48q0 65 11 125q6 34 21 63q9 18 32 30.5t44 12.5q35 0 54.5 -26.5t19.5 -61.5q0 -24 -2 -64
q-2 -38 -2 -55q0 -30 4 -47q10 -43 32 -64t61 -21q25 0 43.5 15.5t17.5 39.5q0 6 -5.5 9t-16 6t-15.5 5q-27 16 -27 86z" />
    <glyph glyph-name="ograve" unicode="&#xf2;" horiz-adv-x="512" 
d="M229 683.5q14 -9.5 26 -33.5q10 -21 18.5 -31.5t16 -17t11.5 -9.5q12 -10 16 -15t4 -11q0 -9 -5 -14.5t-15 -5.5q-13 0 -36.5 6t-38.5 15q-29 17 -54 42t-25 52q0 14 13 23t34 9t35 -9.5zM462 280.5q5 -26.5 5 -47.5q0 -39 -17 -111q-69 -126 -204 -126q-50 0 -102 33
t-72 76q-27 86 -27 109q0 40 17.5 85t44.5 78q17 23 61 39.5t80 16.5q70 0 119 -26.5t82 -85.5q8 -14 13 -40.5zM367 227q0 29 -10.5 57t-30.5 48q-2 2 -11 6.5t-24.5 9t-35.5 4.5q-56 0 -82 -45t-26 -102q0 -10 5.5 -38t9.5 -35q3 -7 15.5 -19.5t31 -22t38.5 -9.5
q45 0 72 21.5t43 57.5q5 13 5 67z" />
    <glyph glyph-name="oacute" unicode="&#xf3;" horiz-adv-x="512" 
d="M337.5 684q12.5 -9 12.5 -23q0 -27 -25.5 -52.5t-53.5 -41.5q-15 -9 -38.5 -15t-35.5 -6q-21 0 -21 20q0 6 4 11t17 15q4 4 12.5 11.5t16.5 18t16 28.5q12 24 26.5 33.5t35.5 9.5t33.5 -9zM462 280.5q5 -26.5 5 -47.5q0 -39 -17 -111q-69 -126 -204 -126q-50 0 -102 33
t-72 76q-27 86 -27 109q0 40 17.5 85t44.5 78q17 23 61 39.5t80 16.5q70 0 119 -26.5t82 -85.5q8 -14 13 -40.5zM367 227q0 29 -10.5 57t-30.5 48q-2 2 -11 6.5t-24.5 9t-35.5 4.5q-56 0 -82 -45t-26 -102q0 -10 5.5 -38t9.5 -35q3 -7 15.5 -19.5t31 -22t38.5 -9.5
q45 0 72 21.5t43 57.5q5 13 5 67z" />
    <glyph glyph-name="ocircumflex" unicode="&#xf4;" horiz-adv-x="512" 
d="M293 682q13 -7 23 -23q10 -15 30 -34t37 -31q22 -16 22 -32q0 -9 -9 -18t-21 -9q-34 0 -61.5 23t-54.5 61q-21 -30 -55 -57t-62 -27q-16 0 -23 8.5t-7 18.5q0 8 12.5 23.5t27.5 27.5q28 23 49 50q9 11 21 18.5t35 7.5t36 -7zM462 280.5q5 -26.5 5 -47.5q0 -39 -17 -111
q-69 -126 -204 -126q-50 0 -102 33t-72 76q-27 86 -27 109q0 40 17.5 85t44.5 78q17 23 61 39.5t80 16.5q70 0 119 -26.5t82 -85.5q8 -14 13 -40.5zM367 227q0 29 -10.5 57t-30.5 48q-2 2 -11 6.5t-24.5 9t-35.5 4.5q-56 0 -82 -45t-26 -102q0 -10 5.5 -38t9.5 -35
q3 -7 15.5 -19.5t31 -22t38.5 -9.5q45 0 72 21.5t43 57.5q5 13 5 67z" />
    <glyph glyph-name="otilde" unicode="&#xf5;" horiz-adv-x="512" 
d="M114 619q18 20 45 31.5t52 11.5q38 0 73 -24q28 -20 46 -19q10 0 16 5t9.5 11t4.5 8q6 9 13 13.5t18 4.5q13 0 23.5 -7.5t10.5 -22.5q0 -20 -14.5 -39.5t-37 -32t-45.5 -12.5q-26 0 -42 7t-35 21q-12 9 -19.5 13t-16.5 4q-30 0 -46 -24q-16 -23 -41 -23q-10 0 -21 8
t-11 21q0 25 18 45zM367 406.5q-49 26.5 -119 26.5q-36 0 -80 -16.5t-61 -39.5q-27 -33 -44.5 -78t-17.5 -85q0 -23 27 -109q20 -43 72 -76t102 -33q135 0 204 126q17 72 17 111q0 21 -5 47.5t-13 40.5q-33 59 -82 85.5zM319 102.5q-27 -21.5 -72 -21.5q-20 0 -38.5 9.5
t-31 22t-15.5 19.5q-4 7 -9.5 35t-5.5 38q0 57 26 102t82 45q20 0 35.5 -4.5t24.5 -9t11 -6.5q20 -20 30.5 -48t10.5 -57q0 -54 -5 -67q-16 -36 -43 -57.5z" />
    <glyph glyph-name="odieresis" unicode="&#xf6;" horiz-adv-x="512" 
d="M201.5 647.5q21.5 -13.5 21.5 -40.5q0 -19 -16.5 -30t-41.5 -11q-24 0 -33.5 12.5t-9.5 26.5q0 23 5.5 39.5t24.5 16.5q28 0 49.5 -13.5zM369.5 647.5q21.5 -13.5 21.5 -40.5q0 -19 -16.5 -30t-41.5 -11q-24 0 -33.5 12.5t-9.5 26.5q0 23 5.5 39.5t25.5 16.5
q27 0 48.5 -13.5zM462 280.5q5 -26.5 5 -47.5q0 -39 -17 -111q-69 -126 -204 -126q-50 0 -102 33t-72 76q-27 86 -27 109q0 40 17.5 85t44.5 78q17 23 61 39.5t80 16.5q70 0 119 -26.5t82 -85.5q8 -14 13 -40.5zM367 227q0 29 -10.5 57t-30.5 48q-2 2 -11 6.5t-24.5 9
t-35.5 4.5q-56 0 -82 -45t-26 -102q0 -10 5.5 -38t9.5 -35q3 -7 15.5 -19.5t31 -22t38.5 -9.5q45 0 72 21.5t43 57.5q5 13 5 67z" />
    <glyph glyph-name="divide" unicode="&#xf7;" horiz-adv-x="549" 
d="M231 318q-15 15 -15 36q0 13 3.5 26t10.5 21q10 12 21.5 16t32.5 4t32.5 -15t11.5 -36q0 -25 -18.5 -46t-42.5 -21q-21 0 -36 15zM488 252.5q16 -7.5 16 -30.5q0 -28 -25 -40.5t-54 -12.5q-25 0 -54 3q-11 0 -33 1.5t-40 1.5q-27 0 -49 -1t-39 -2q-62 -4 -92 -4
q-33 0 -53 9.5t-20 41.5q0 28 29 40q10 5 29 5t63 -4q59 -6 99 -4q17 0 73 2q68 2 103 2q31 0 47 -7.5zM319.5 107.5q15.5 -13.5 15.5 -40.5q0 -20 -13 -36q-8 -12 -21 -19t-27 -7q-9 0 -21 5q-31 12 -31 54q0 22 16.5 39.5t43.5 17.5q22 0 37.5 -13.5z" />
    <glyph glyph-name="oslash" unicode="&#xf8;" horiz-adv-x="512" 
d="M462 279.5q5 -25.5 5 -46.5q0 -41 -17 -109q-30 -54 -87.5 -90t-116.5 -36q-47 0 -97 29l-29 -42q-3 -4 -8 -7t-10 -3q-13 0 -24.5 9t-11.5 22q0 9 4 16l32 44q-21 19 -30 41q-27 86 -27 107q0 40 17.5 84t44.5 77q17 24 60.5 40t80.5 16q66 0 111 -22q19 27 26 36
q10 14 30 14q13 0 22.5 -7.5t9.5 -19.5q0 -7 -26 -37l-15 -19q23 -22 43 -57q8 -14 13 -39.5zM255 350q-56 0 -82 -44t-26 -101q0 -8 4.5 -28.5t8.5 -36.5q43 52 149 199q-22 11 -54 11zM367 227q0 36 -17 70l-62 -83q-47 -62 -87 -116q25 -16 46 -16q29 0 65.5 25t49.5 55
q5 13 5 65z" />
    <glyph glyph-name="ugrave" unicode="&#xf9;" horiz-adv-x="553" 
d="M226 683.5q14 -9.5 26 -33.5q10 -21 18.5 -31.5t16 -17t11.5 -9.5q12 -10 16 -15t4 -11q0 -9 -5 -14.5t-15 -5.5q-13 0 -36.5 6t-38.5 15q-29 17 -54 42t-25 52q0 14 13 23t34 9t35 -9.5zM19.5 343.5q-6.5 6.5 -6.5 15.5q0 23 20 43q6 3 24 10t32 7q38 0 62 -20.5
t24 -58.5q0 -11 -4 -47q-4 -42 -4 -65q0 -70 19 -113q7 -14 22 -22t27 -8q29 0 47 10t39 32t27.5 50t9.5 77q2 32 4 47q5 48 5 82q0 22 12 36.5t33 14.5q12 0 27.5 -7.5t20.5 -17.5q6 -10 6 -33q0 -12 -3 -23q-7 -25 -7 -60l1 -52q0 -71 10 -105q5 -16 14 -32.5t17 -27.5
q20 -22 26 -30.5t6 -16.5q0 -12 -11.5 -22.5t-24.5 -10.5q-37 0 -64 25t-40 65q-34 -39 -63 -63q-20 -14 -49 -20.5t-58 -6.5q-39 0 -79 32t-54 74q-1 2 -5.5 16t-4.5 42q0 37 4 93q3 36 3 66q0 9 -6.5 15t-14.5 6q-6 0 -13.5 -1.5t-15.5 -1.5t-14.5 6.5z" />
    <glyph glyph-name="uacute" unicode="&#xfa;" horiz-adv-x="553" 
d="M348.5 684q12.5 -9 12.5 -23q0 -27 -25.5 -52.5t-53.5 -41.5q-15 -9 -38.5 -15t-35.5 -6q-21 0 -21 20q0 6 4 11t17 15q4 4 12.5 11.5t16.5 18t16 28.5q12 24 26.5 33.5t35.5 9.5t33.5 -9zM19.5 343.5q-6.5 6.5 -6.5 15.5q0 23 20 43q6 3 24 10t32 7q38 0 62 -20.5
t24 -58.5q0 -11 -4 -47q-4 -42 -4 -65q0 -70 19 -113q7 -14 22 -22t27 -8q29 0 47 10t39 32t27.5 50t9.5 77q2 32 4 47q5 48 5 82q0 22 12 36.5t33 14.5q12 0 27.5 -7.5t20.5 -17.5q6 -10 6 -33q0 -12 -3 -23q-7 -25 -7 -60l1 -52q0 -71 10 -105q5 -16 14 -32.5t17 -27.5
q20 -22 26 -30.5t6 -16.5q0 -12 -11.5 -22.5t-24.5 -10.5q-37 0 -64 25t-40 65q-34 -39 -63 -63q-20 -14 -49 -20.5t-58 -6.5q-39 0 -79 32t-54 74q-1 2 -5.5 16t-4.5 42q0 37 4 93q3 36 3 66q0 9 -6.5 15t-14.5 6q-6 0 -13.5 -1.5t-15.5 -1.5t-14.5 6.5z" />
    <glyph glyph-name="ucircumflex" unicode="&#xfb;" horiz-adv-x="553" 
d="M293 682q13 -7 23 -23q10 -15 30 -34t37 -31q22 -16 22 -32q0 -9 -9 -18t-21 -9q-34 0 -61.5 23t-54.5 61q-21 -30 -55 -57t-62 -27q-16 0 -23 8.5t-7 18.5q0 8 12.5 23.5t27.5 27.5q28 23 49 50q9 11 21 18.5t35 7.5t36 -7zM19.5 343.5q-6.5 6.5 -6.5 15.5q0 23 20 43
q6 3 24 10t32 7q38 0 62 -20.5t24 -58.5q0 -11 -4 -47q-4 -42 -4 -65q0 -70 19 -113q7 -14 22 -22t27 -8q29 0 47 10t39 32t27.5 50t9.5 77q2 32 4 47q5 48 5 82q0 22 12 36.5t33 14.5q12 0 27.5 -7.5t20.5 -17.5q6 -10 6 -33q0 -12 -3 -23q-7 -25 -7 -60l1 -52
q0 -71 10 -105q5 -16 14 -32.5t17 -27.5q20 -22 26 -30.5t6 -16.5q0 -12 -11.5 -22.5t-24.5 -10.5q-37 0 -64 25t-40 65q-34 -39 -63 -63q-20 -14 -49 -20.5t-58 -6.5q-39 0 -79 32t-54 74q-1 2 -5.5 16t-4.5 42q0 37 4 93q3 36 3 66q0 9 -6.5 15t-14.5 6q-6 0 -13.5 -1.5
t-15.5 -1.5t-14.5 6.5z" />
    <glyph glyph-name="udieresis" unicode="&#xfc;" horiz-adv-x="553" 
d="M209.5 647.5q21.5 -13.5 21.5 -40.5q0 -19 -16.5 -30t-41.5 -11q-24 0 -33.5 12.5t-9.5 26.5q0 23 5.5 39.5t24.5 16.5q28 0 49.5 -13.5zM377.5 647.5q21.5 -13.5 21.5 -40.5q0 -19 -16.5 -30t-41.5 -11q-24 0 -33.5 12.5t-9.5 26.5q0 23 5.5 39.5t25.5 16.5
q27 0 48.5 -13.5zM19.5 343.5q-6.5 6.5 -6.5 15.5q0 23 20 43q6 3 24 10t32 7q38 0 62 -20.5t24 -58.5q0 -11 -4 -47q-4 -42 -4 -65q0 -70 19 -113q7 -14 22 -22t27 -8q29 0 47 10t39 32t27.5 50t9.5 77q2 32 4 47q5 48 5 82q0 22 12 36.5t33 14.5q12 0 27.5 -7.5
t20.5 -17.5q6 -10 6 -33q0 -12 -3 -23q-7 -25 -7 -60l1 -52q0 -71 10 -105q5 -16 14 -32.5t17 -27.5q20 -22 26 -30.5t6 -16.5q0 -12 -11.5 -22.5t-24.5 -10.5q-37 0 -64 25t-40 65q-34 -39 -63 -63q-20 -14 -49 -20.5t-58 -6.5q-39 0 -79 32t-54 74q-1 2 -5.5 16t-4.5 42
q0 37 4 93q3 36 3 66q0 9 -6.5 15t-14.5 6q-6 0 -13.5 -1.5t-15.5 -1.5t-14.5 6.5z" />
    <glyph glyph-name="yacute" unicode="&#xfd;" horiz-adv-x="469" 
d="M345.5 684q12.5 -9 12.5 -23q0 -27 -25.5 -52.5t-53.5 -41.5q-15 -9 -38.5 -15t-35.5 -6q-21 0 -21 20q0 6 4 11t17 15q4 4 12.5 11.5t16.5 18t16 28.5q12 24 26.5 33.5t35.5 9.5t33.5 -9zM98.5 -191.5q-25.5 12.5 -38 30t-12.5 30.5q0 17 12 26.5t29 9.5q10 0 19 -6
t10 -7q7 -5 14 -8.5t15 -3.5q22 0 36 29t28 94q-45 66 -75 132l-23 53q-5 12 -27.5 62.5t-44.5 89.5q-14 28 -14 38q0 25 17.5 37t40.5 12q16 0 24.5 -6.5t19.5 -23.5q29 -48 63 -144q20 -55 32 -83.5t29 -57.5q17 39 43 133q16 54 26.5 86.5t23.5 59.5q9 18 22.5 29
t30.5 11t36.5 -12.5t19.5 -29.5q0 -10 -7 -24q-39 -90 -68.5 -169.5t-56.5 -174.5q-16 -53 -33.5 -101t-24.5 -59q-20 -28 -45 -46.5t-58 -18.5q-38 0 -63.5 12.5z" />
    <glyph glyph-name="thorn" unicode="&#xfe;" horiz-adv-x="496" 
d="M370.5 401q39.5 -28 63 -71.5t23.5 -87.5q0 -43 -9.5 -77.5t-31.5 -69.5q-27 -36 -70.5 -59.5t-103.5 -23.5q-16 0 -37 8.5t-37 19.5q-1 -11 -1 -33l1 -44q1 -13 1 -38q0 -14 1.5 -31.5t1.5 -25.5q3 -24 3 -47q0 -22 -14 -32t-32 -10q-36 0 -48 19.5t-12 56.5q1 16 1 46
l-1 67q0 17 2 47q3 44 3 185l-1 239q-1 56 -1 136q0 51 10.5 75t41.5 24q57 0 57 -50q0 -19 -3 -67q-5 -120 -6 -168q21 21 51 30.5t61 9.5q47 0 86.5 -28zM352.5 170q6.5 22 6.5 69q0 36 -14 60.5t-34 36t-38 11.5q-41 0 -67 -24.5t-33 -66.5q-3 -21 -3 -47q0 -22 1.5 -44
t1.5 -26q11 -17 31.5 -30.5t35.5 -13.5q57 0 85 31q21 22 27.5 44z" />
    <glyph glyph-name="ydieresis" unicode="&#xff;" horiz-adv-x="469" 
d="M194.5 647.5q21.5 -13.5 21.5 -40.5q0 -19 -16.5 -30t-41.5 -11q-24 0 -33.5 12.5t-9.5 26.5q0 23 5.5 39.5t24.5 16.5q28 0 49.5 -13.5zM362.5 647.5q21.5 -13.5 21.5 -40.5q0 -19 -16.5 -30t-41.5 -11q-24 0 -33.5 12.5t-9.5 26.5q0 23 5.5 39.5t25.5 16.5
q27 0 48.5 -13.5zM98.5 -191.5q-25.5 12.5 -38 30t-12.5 30.5q0 17 12 26.5t29 9.5q10 0 19 -6t10 -7q7 -5 14 -8.5t15 -3.5q22 0 36 29t28 94q-45 66 -75 132l-23 53q-5 12 -27.5 62.5t-44.5 89.5q-14 28 -14 38q0 25 17.5 37t40.5 12q16 0 24.5 -6.5t19.5 -23.5
q29 -48 63 -144q20 -55 32 -83.5t29 -57.5q17 39 43 133q16 54 26.5 86.5t23.5 59.5q9 18 22.5 29t30.5 11t36.5 -12.5t19.5 -29.5q0 -10 -7 -24q-39 -90 -68.5 -169.5t-56.5 -174.5q-16 -53 -33.5 -101t-24.5 -59q-20 -28 -45 -46.5t-58 -18.5q-38 0 -63.5 12.5z" />
    <glyph glyph-name="Amacron" unicode="&#x100;" horiz-adv-x="640" 
d="M242 715.5q-22 -1.5 -28 -1.5q-18 0 -24 6.5t-6 28.5q0 25 33.5 31.5t104.5 6.5q60 0 97.5 -3.5t37.5 -14.5q0 -31 -12.5 -40t-48.5 -9l-112 -3q-20 0 -42 -1.5zM506 52.5q-9 20.5 -19 49.5q-2 5 -11.5 30t-21.5 43q-63 -9 -103 -9q-22 0 -48.5 1.5t-39.5 1.5
q-50 4 -80 4q-12 -16 -20.5 -34t-21.5 -54q-18 -52 -31 -74q-9 -15 -35 -15q-22 0 -40.5 9.5t-18.5 26.5q8 38 25.5 80.5t50.5 113.5l40 98q33 84 60.5 144t72.5 142q6 12 20 20.5t31 8.5q19 0 27.5 -2.5t13.5 -8t15 -22.5q34 -53 58.5 -109t62.5 -155l21 -53
q28 -72 48.5 -120.5t45.5 -88.5q16 -26 16 -36q0 -24 -14.5 -36.5t-37.5 -12.5q-29 0 -44 20q-13 17 -22 37.5zM379 375q-31 90 -62 143q-19 -48 -56 -124q-25 -47 -57 -136q64 -8 138 -8q53 0 83 7q-16 34 -46 118z" />
    <glyph glyph-name="amacron" unicode="&#x101;" horiz-adv-x="521" 
d="M175 504.5q-22 -1.5 -28 -1.5q-18 0 -24 6.5t-6 28.5q0 25 33.5 31.5t104.5 6.5q60 0 97.5 -3.5t37.5 -14.5q0 -31 -12.5 -40t-48.5 -9l-112 -3q-20 0 -42 -1.5zM484.5 11q-23.5 -15 -43.5 -15q-38 0 -60.5 9.5t-41.5 35.5q-26 -23 -71 -34.5t-83 -11.5q-62 0 -102 33.5
t-40 98.5q0 28 15 51.5t41 41.5q29 19 66 29.5t77 10.5q21 0 50 -8t45 -17v16q0 54 -26 74.5t-84 20.5q-17 0 -33.5 -7t-37.5 -19q-28 -15 -53 -15q-9 0 -17 12.5t-8 22.5q0 29 27.5 50t65.5 31.5t68 10.5t69 -11.5t64 -31.5q30 -26 46.5 -60.5t16.5 -75.5q0 -13 -2 -39
q-2 -28 -2 -48q0 -9 -2 -27q-2 -22 -2 -35q0 -12 9 -20.5t21 -8.5l28 1q11 0 17 -8t6 -20q0 -22 -23.5 -37zM258 83q29 9 70 33q4 17 5 45q-55 26 -91 26q-41 0 -73 -15t-32 -53q0 -19 16 -32t33 -13q43 0 72 9z" />
    <glyph glyph-name="Abreve" unicode="&#x102;" horiz-adv-x="640" 
d="M181.5 809q-2.5 8 -2.5 13q0 6 11 12.5t23 6.5t32 -18q15 -16 31 -26t42 -10q24 0 42 10t35 29q9 11 16.5 15t17.5 4q8 0 18.5 -6.5t10.5 -15.5q0 -11 -6 -23q-16 -35 -45 -60.5t-87 -25.5q-84 0 -133 82q-3 5 -5.5 13zM572 -5q23 0 37.5 12.5t14.5 36.5q0 10 -16 36
q-25 40 -45.5 88.5t-48.5 120.5l-21 53q-38 99 -62.5 155t-58.5 109q-10 17 -15 22.5t-13.5 8t-27.5 2.5q-17 0 -31 -8.5t-20 -20.5q-45 -82 -72.5 -142t-60.5 -144l-40 -98q-33 -71 -50.5 -113.5t-25.5 -80.5q0 -17 18.5 -26.5t40.5 -9.5q26 0 35 15q13 22 31 74
q13 36 21.5 54t20.5 34q30 0 80 -4q13 0 39.5 -1.5t48.5 -1.5q40 0 103 9q12 -18 21.5 -43t11.5 -30q10 -29 19 -49.5t22 -37.5q15 -20 44 -20zM342 250q-74 0 -138 8q32 89 57 136q37 76 56 124q31 -53 62 -143q30 -84 46 -118q-30 -7 -83 -7z" />
    <glyph glyph-name="abreve" unicode="&#x103;" horiz-adv-x="521" 
d="M118.5 586q-2.5 8 -2.5 13q0 6 11 12.5t23 6.5t32 -18q15 -16 31 -26t42 -10q24 0 42 10t35 29q9 11 16.5 15t17.5 4q8 0 18.5 -6.5t10.5 -15.5q0 -11 -6 -23q-16 -35 -45 -60.5t-87 -25.5q-84 0 -133 82q-3 5 -5.5 13zM502 68q-6 8 -17 8l-28 -1q-12 0 -21 8.5t-9 20.5
q0 13 2 35q2 18 2 27q0 20 2 48q2 26 2 39q0 41 -16.5 75.5t-46.5 60.5q-25 20 -64 31.5t-69 11.5t-68 -10.5t-65.5 -31.5t-27.5 -50q0 -10 8 -22.5t17 -12.5q25 0 53 15q21 12 37.5 19t33.5 7q58 0 84 -20.5t26 -74.5v-16q-16 9 -45 17t-50 8q-40 0 -77 -10.5t-66 -29.5
q-26 -18 -41 -41.5t-15 -51.5q0 -65 40 -98.5t102 -33.5q38 0 83 11.5t71 34.5q19 -26 41.5 -35.5t60.5 -9.5q20 0 43.5 15t23.5 37q0 12 -6 20zM153 87q-16 13 -16 32q0 38 32 53t73 15q36 0 91 -26q-1 -28 -5 -45q-41 -24 -70 -33t-72 -9q-17 0 -33 13z" />
    <glyph glyph-name="Aogonek" unicode="&#x104;" horiz-adv-x="640" 
d="M506 52.5q-9 20.5 -19 49.5q-2 5 -11.5 30t-21.5 43q-63 -9 -103 -9q-22 0 -48.5 1.5t-39.5 1.5q-50 4 -80 4q-12 -16 -20.5 -34t-21.5 -54q-18 -52 -31 -74q-9 -15 -35 -15q-22 0 -40.5 9.5t-18.5 26.5q8 38 25.5 80.5t50.5 113.5l40 98q33 84 60.5 144t72.5 142
q6 12 20 20.5t31 8.5q19 0 27.5 -2.5t13.5 -8t15 -22.5q34 -53 58.5 -109t62.5 -155l21 -53q28 -72 48.5 -120.5t45.5 -88.5q16 -26 16 -36q0 -26 -17 -38q-11 -8 -39 -40t-36 -44q-14 -21 -14 -42q0 -26 35 -26q13 0 24 4t15 4q11 0 16 -6.5t5 -22.5q0 -20 -20.5 -32.5
t-51.5 -12.5q-41 0 -67 20.5t-26 56.5q0 64 36 104q26 30 47 43l-3 3q-13 17 -22 37.5zM379 375q-31 90 -62 143q-19 -48 -56 -124q-25 -47 -57 -136q64 -8 138 -8q53 0 83 7q-16 34 -46 118z" />
    <glyph glyph-name="aogonek" unicode="&#x105;" horiz-adv-x="521" 
d="M494 18q-14 -10 -30 -15.5t-21 -7.5q-34 -13 -57.5 -44.5t-23.5 -64.5q0 -32 35 -32q13 0 24 4t15 4q11 0 15.5 -6.5t4.5 -22.5q0 -20 -20 -32.5t-52 -12.5q-41 0 -66.5 20.5t-25.5 56.5q0 45 21.5 83.5t58.5 61.5q-19 11 -33 31q-26 -23 -71 -34.5t-83 -11.5
q-62 0 -102 33.5t-40 98.5q0 28 15 51.5t41 41.5q29 19 66 29.5t77 10.5q21 0 50 -8t45 -17v16q0 54 -26 74.5t-84 20.5q-17 0 -33.5 -7t-37.5 -19q-28 -15 -53 -15q-9 0 -17 12.5t-8 22.5q0 29 27.5 50t65.5 31.5t68 10.5t69 -11.5t64 -31.5q30 -26 46.5 -60.5t16.5 -75.5
q0 -13 -2 -39q-2 -28 -2 -48q0 -9 -2 -27q-2 -22 -2 -35q0 -12 9 -20.5t21 -8.5l28 1q11 0 17 -8t6 -20q0 -20 -14 -30zM258 83q29 9 70 33q4 17 5 45q-55 26 -91 26q-41 0 -73 -15t-32 -53q0 -19 16 -32t33 -13q43 0 72 9z" />
    <glyph glyph-name="Cacute" unicode="&#x106;" horiz-adv-x="643" 
d="M437.5 855q12.5 -9 12.5 -23q0 -27 -25.5 -52.5t-53.5 -41.5q-15 -9 -38.5 -15t-35.5 -6q-21 0 -21 20q0 6 4 11t17 15q4 4 12.5 11.5t16.5 18t16 28.5q12 24 26.5 33.5t35.5 9.5t33.5 -9zM581 526q6 -11 6 -21q0 -12 -15.5 -28t-30.5 -16q-20 0 -32 6t-20 19
q-16 24 -39 41.5t-72 17.5q-42 0 -95.5 -19t-76.5 -47q-20 -25 -34.5 -76t-14.5 -99q0 -58 25.5 -106.5t74 -77.5t116.5 -29q37 0 76.5 14.5t68.5 47.5h-1q18 19 45 19q16 0 30.5 -14t14.5 -28q0 -15 -4.5 -26.5t-16.5 -25.5q-41 -46 -97 -63t-134 -17q-69 0 -139.5 33
t-108.5 80q-20 29 -38.5 83.5t-18.5 88.5q0 87 26.5 165.5t79.5 125.5q35 32 101 48t121 16q67 0 105.5 -18.5t76.5 -64.5q15 -18 21 -29z" />
    <glyph glyph-name="cacute" unicode="&#x107;" horiz-adv-x="469" 
d="M372.5 625q12.5 -9 12.5 -23q0 -27 -25.5 -52.5t-53.5 -41.5q-15 -9 -38.5 -15t-35.5 -6q-21 0 -21 20q0 6 4 11t17 15q4 4 12.5 11.5t16.5 18t16 28.5q12 24 26.5 33.5t35.5 9.5t33.5 -9zM363 290q-15 0 -25 7t-22 21q-30 33 -52 33q-29 0 -56.5 -17t-44.5 -48t-17 -69
q0 -42 16.5 -70t51.5 -48q13 -7 30.5 -11t30.5 -4q29 0 73 23q16 8 27 12t23 4q11 0 25 -10t14 -25q0 -30 -28 -50.5t-68.5 -31t-77.5 -10.5q-59 0 -109.5 27t-80.5 74.5t-30 107.5q0 64 29 117t78 83t107 30q33 0 68 -12t59 -35t24 -54q0 -44 -45 -44z" />
    <glyph glyph-name="Ccircumflex" unicode="&#x108;" horiz-adv-x="643" 
d="M382 842q13 -7 23 -23q10 -15 30 -34t37 -31q22 -16 22 -32q0 -9 -9 -18t-21 -9q-34 0 -61.5 23t-54.5 61q-21 -30 -55 -57t-62 -27q-16 0 -23 8.5t-7 18.5q0 8 12.5 23.5t27.5 27.5q28 23 49 50q9 11 21 18.5t35 7.5t36 -7zM581 526q6 -11 6 -21q0 -12 -15.5 -28
t-30.5 -16q-20 0 -32 6t-20 19q-16 24 -39 41.5t-72 17.5q-42 0 -95.5 -19t-76.5 -47q-20 -25 -34.5 -76t-14.5 -99q0 -58 25.5 -106.5t74 -77.5t116.5 -29q37 0 76.5 14.5t68.5 47.5h-1q18 19 45 19q16 0 30.5 -14t14.5 -28q0 -15 -4.5 -26.5t-16.5 -25.5q-41 -46 -97 -63
t-134 -17q-69 0 -139.5 33t-108.5 80q-20 29 -38.5 83.5t-18.5 88.5q0 87 26.5 165.5t79.5 125.5q35 32 101 48t121 16q67 0 105.5 -18.5t76.5 -64.5q15 -18 21 -29z" />
    <glyph glyph-name="ccircumflex" unicode="&#x109;" horiz-adv-x="469" 
d="M293 634q13 -7 23 -23q10 -15 30 -34t37 -31q22 -16 22 -32q0 -9 -9 -18t-21 -9q-34 0 -61.5 23t-54.5 61q-21 -30 -55 -57t-62 -27q-16 0 -23 8.5t-7 18.5q0 8 12.5 23.5t27.5 27.5q28 23 49 50q9 11 21 18.5t35 7.5t36 -7zM363 290q-15 0 -25 7t-22 21q-30 33 -52 33
q-29 0 -56.5 -17t-44.5 -48t-17 -69q0 -42 16.5 -70t51.5 -48q13 -7 30.5 -11t30.5 -4q29 0 73 23q16 8 27 12t23 4q11 0 25 -10t14 -25q0 -30 -28 -50.5t-68.5 -31t-77.5 -10.5q-59 0 -109.5 27t-80.5 74.5t-30 107.5q0 64 29 117t78 83t107 30q33 0 68 -12t59 -35t24 -54
q0 -44 -45 -44z" />
    <glyph glyph-name="Cdotaccent" unicode="&#x10a;" horiz-adv-x="643" 
d="M388.5 747q-19.5 -15 -41.5 -15t-37 12.5t-15 32.5q0 30 18 45t44 15q51 0 51 -50q0 -25 -19.5 -40zM581 526q6 -11 6 -21q0 -12 -15.5 -28t-30.5 -16q-20 0 -32 6t-20 19q-16 24 -39 41.5t-72 17.5q-42 0 -95.5 -19t-76.5 -47q-20 -25 -34.5 -76t-14.5 -99
q0 -58 25.5 -106.5t74 -77.5t116.5 -29q37 0 76.5 14.5t68.5 47.5h-1q18 19 45 19q16 0 30.5 -14t14.5 -28q0 -15 -4.5 -26.5t-16.5 -25.5q-41 -46 -97 -63t-134 -17q-69 0 -139.5 33t-108.5 80q-20 29 -38.5 83.5t-18.5 88.5q0 87 26.5 165.5t79.5 125.5q35 32 101 48
t121 16q67 0 105.5 -18.5t76.5 -64.5q15 -18 21 -29z" />
    <glyph glyph-name="cdotaccent" unicode="&#x10b;" horiz-adv-x="469" 
d="M297.5 513q-19.5 -15 -41.5 -15t-37 12.5t-15 32.5q0 30 18 45t44 15q51 0 51 -50q0 -25 -19.5 -40zM363 290q-15 0 -25 7t-22 21q-30 33 -52 33q-29 0 -56.5 -17t-44.5 -48t-17 -69q0 -42 16.5 -70t51.5 -48q13 -7 30.5 -11t30.5 -4q29 0 73 23q16 8 27 12t23 4
q11 0 25 -10t14 -25q0 -30 -28 -50.5t-68.5 -31t-77.5 -10.5q-59 0 -109.5 27t-80.5 74.5t-30 107.5q0 64 29 117t78 83t107 30q33 0 68 -12t59 -35t24 -54q0 -44 -45 -44z" />
    <glyph glyph-name="Ccaron" unicode="&#x10c;" horiz-adv-x="643" 
d="M318.5 719.5q-12.5 6.5 -27.5 21.5q-17 16 -64 67q-10 11 -16 19t-6 13q0 8 13 17.5t26 9.5q23 0 39.5 -12.5t36.5 -37.5q4 -5 13 -15.5t18 -17.5q14 11 43 43q19 21 30.5 30.5t23.5 9.5q17 0 33.5 -9.5t16.5 -17.5q0 -13 -40 -51q-34 -33 -52 -56q-6 -8 -20 -14t-33 -6
q-22 0 -34.5 6.5zM581 526q6 -11 6 -21q0 -12 -15.5 -28t-30.5 -16q-20 0 -32 6t-20 19q-16 24 -39 41.5t-72 17.5q-42 0 -95.5 -19t-76.5 -47q-20 -25 -34.5 -76t-14.5 -99q0 -58 25.5 -106.5t74 -77.5t116.5 -29q37 0 76.5 14.5t68.5 47.5h-1q18 19 45 19q16 0 30.5 -14
t14.5 -28q0 -15 -4.5 -26.5t-16.5 -25.5q-41 -46 -97 -63t-134 -17q-69 0 -139.5 33t-108.5 80q-20 29 -38.5 83.5t-18.5 88.5q0 87 26.5 165.5t79.5 125.5q35 32 101 48t121 16q67 0 105.5 -18.5t76.5 -64.5q15 -18 21 -29z" />
    <glyph glyph-name="ccaron" unicode="&#x10d;" horiz-adv-x="469" 
d="M213.5 494.5q-12.5 6.5 -27.5 21.5q-17 15 -64 67q-10 11 -16 19t-6 13q0 8 13 17.5t26 9.5q23 0 39.5 -12.5t36.5 -37.5q4 -5 13 -15.5t18 -17.5q14 11 43 43q19 21 30.5 30.5t23.5 9.5q17 0 33.5 -9.5t16.5 -17.5q0 -13 -40 -51q-34 -33 -52 -56q-6 -8 -20 -14t-33 -6
q-22 0 -34.5 6.5zM363 290q-15 0 -25 7t-22 21q-30 33 -52 33q-29 0 -56.5 -17t-44.5 -48t-17 -69q0 -42 16.5 -70t51.5 -48q13 -7 30.5 -11t30.5 -4q29 0 73 23q16 8 27 12t23 4q11 0 25 -10t14 -25q0 -30 -28 -50.5t-68.5 -31t-77.5 -10.5q-59 0 -109.5 27t-80.5 74.5
t-30 107.5q0 64 29 117t78 83t107 30q33 0 68 -12t59 -35t24 -54q0 -44 -45 -44z" />
    <glyph glyph-name="Dcaron" unicode="&#x10e;" horiz-adv-x="662" 
d="M291.5 719.5q-12.5 6.5 -27.5 21.5q-17 15 -64 67q-10 11 -16 19t-6 13q0 8 13 17.5t26 9.5q23 0 39.5 -12.5t36.5 -37.5q4 -5 13 -15.5t18 -17.5q14 11 43 43q19 21 30.5 30.5t23.5 9.5q17 0 33.5 -9.5t16.5 -17.5q0 -13 -40 -51q-34 -33 -52 -56q-6 -8 -20 -14t-33 -6
q-22 0 -34.5 6.5zM430.5 596.5q79.5 -37.5 120.5 -83.5q33 -38 54 -87.5t21 -118.5q0 -51 -23 -106.5t-60 -89.5q-39 -37 -73.5 -60t-93 -37.5t-148.5 -14.5q-68 0 -123 15.5t-55 52.5q0 15 13.5 23.5t29.5 8.5q9 0 12 -1q7 66 7 140q0 83 -4 137.5t-11 108.5q-1 7 -4.5 39
t-3.5 65q0 21 21 35.5t43 14.5q13 0 35 -2q18 -2 27 -2q136 0 215.5 -37.5zM265 89q66 0 125 27.5t95 77t36 114.5q0 68 -24 116t-74 79q-37 23 -91 33.5t-130 10.5q0 -24 3 -60q0 -12 2 -42q6 -116 6 -187q0 -103 -11 -165q24 -4 63 -4z" />
    <glyph glyph-name="dcaron" unicode="&#x10f;" horiz-adv-x="586" 
d="M546 572q-12 0 -16 4q-28 16 -28 49q0 14 6.5 24.5t17.5 14.5q9 5 22.5 8t25.5 3q22 0 32.5 -16t10.5 -41q0 -30 -13.5 -58t-32.5 -43q-35 -35 -54 -35q-20 0 -25 4t-5 19q0 8 16.5 20.5t21.5 16.5q14 12 24 30h-3zM447 571q-11 -110 -11 -223q0 -99 3 -151t15 -79.5
t37 -27.5q48 0 48 -32q0 -21 -21 -35.5t-46 -14.5q-30 0 -56 14t-41 43q-21 -31 -60.5 -49.5t-76.5 -18.5q-57 0 -101 24t-68 65.5t-24 91.5q0 48 11.5 92.5t31.5 73.5q27 38 72.5 60.5t89.5 22.5q27 0 51 -10.5t42 -25.5q0 67 -1 84v21q0 93 12 136q11 42 53 42
q23 0 34 -10t11 -38q0 -10 -5 -55zM170.5 106q26.5 -28 63.5 -28q53 0 78.5 33t25.5 85l-1 99q-39 43 -81 43q-29 0 -54.5 -14.5t-40.5 -43.5q-17 -33 -17 -100q0 -46 26.5 -74z" />
    <glyph glyph-name="Dcroat" unicode="&#x110;" horiz-adv-x="680" 
d="M451.5 597q78.5 -37 119.5 -84q32 -39 52.5 -88t20.5 -118q0 -50 -22.5 -103.5t-59.5 -89.5q-41 -38 -75.5 -61t-93 -38.5t-146.5 -15.5q-68 0 -123 15.5t-55 53.5q0 15 11.5 22.5t27.5 7.5q7 0 15 -2q7 93 7 142v32h-9q-33 0 -52 11t-19 43q0 18 13.5 28t39.5 10l24 -2
q-2 50 -13 151q-6 64 -6 75q0 22 21 37t44 15q16 0 38 -2q16 -2 24 -2q138 0 216.5 -37zM257 86h26q65 0 124 28t95.5 79t36.5 115q0 119 -76 181t-245 62q0 -20 4 -104l4 -88q24 2 34 2q32 3 49 3q22 0 37.5 -14t15.5 -39q0 -16 -15.5 -25t-48.5 -12q-18 -3 -69 -3v-13
q0 -103 -12 -168q18 -4 40 -4z" />
    <glyph glyph-name="dcroat" unicode="&#x111;" horiz-adv-x="553" 
d="M163 508.5q-10 14.5 -10 39.5q0 20 81 20l110 -2q4 49 10 66q11 42 53 42q23 0 34 -10t11 -38q0 -10 -5 -55l-1 -6q33 0 49.5 -2t27.5 -11.5t11 -30.5q0 -16 -19 -20.5t-69 -4.5h-5q-5 -75 -5 -148q0 -99 3 -151t15 -79.5t37 -27.5q48 0 48 -32q0 -21 -21 -35.5
t-46 -14.5q-30 0 -56 14t-41 43q-21 -31 -60.5 -49.5t-76.5 -18.5q-57 0 -101 24t-68 65.5t-24 91.5q0 47 11.5 89t31.5 71q27 38 72.5 60.5t89.5 22.5q27 0 51 -10t42 -25q0 67 -1 86v23l-142 -1q-27 0 -37 14.5zM170.5 105.5q26.5 -27.5 63.5 -27.5q53 0 78.5 33t25.5 85
l-1 94q-39 43 -81 43q-29 0 -54.5 -15.5t-40.5 -43.5q-9 -19 -13 -41t-4 -54q0 -46 26.5 -73.5z" />
    <glyph glyph-name="Emacron" unicode="&#x112;" horiz-adv-x="552" 
d="M229 715.5q-22 -1.5 -28 -1.5q-18 0 -24 6.5t-6 28.5q0 25 33.5 31.5t104.5 6.5q60 0 97.5 -3.5t37.5 -14.5q0 -31 -12.5 -40t-48.5 -9l-112 -3q-20 0 -42 -1.5zM510.5 121.5q9.5 -14.5 9.5 -31.5q0 -21 -6.5 -29.5t-24.5 -17.5q-42 -20 -104 -32t-133 -12
q-89 0 -130.5 30t-51 72.5t-9.5 111.5q0 74 6 145.5t21 182.5q7 48 38 69.5t68 21.5q31 0 101 2l87 1q54 0 78 -3q30 -6 44.5 -13.5t14.5 -25.5q0 -20 -13.5 -39t-40.5 -19q-31 0 -89 4t-87 4q-25 0 -49 -3q-28 -2 -40 -7t-14 -17q-14 -103 -14 -152q23 -3 45 -3q28 0 60 3
t41 4q53 5 91 5q22 0 33.5 -8t11.5 -22q0 -22 -11.5 -34t-40.5 -18q-35 -7 -86.5 -11t-100.5 -4q-17 0 -47 2q-3 -61 -3 -113q0 -71 94 -71q50 0 83 7t76 20q40 15 64 15q19 0 28.5 -14.5z" />
    <glyph glyph-name="emacron" unicode="&#x113;" horiz-adv-x="477" 
d="M168 505.5q-22 -1.5 -28 -1.5q-18 0 -24 6.5t-6 28.5q0 25 33.5 31.5t104.5 6.5q60 0 97.5 -3.5t37.5 -14.5q0 -31 -12.5 -40t-48.5 -9l-112 -3q-20 0 -42 -1.5zM59 288.5q14 38.5 37 70.5t73 52.5t89 20.5q40 0 81.5 -11t57.5 -34q37 -52 37 -102q0 -27 -11.5 -46
t-32.5 -41q-17 -18 -53.5 -24t-72.5 -6q-23 0 -56 4.5t-64 11.5q2 -20 10 -39t19 -29q20 -19 41.5 -24t55.5 -5q36 0 67 12q25 9 41 9q19 0 29 -11.5t10 -29.5q0 -25 -29 -41t-66.5 -23.5t-60.5 -7.5q-47 0 -91 17t-73 48q-24 28 -38 67.5t-14 84.5q0 38 14 76.5zM219 338.5
q-22 -8.5 -36 -23.5q-18 -19 -24.5 -30.5t-8.5 -31.5q25 -8 104 -8q43 0 66.5 13t23.5 34t-26 38t-55 17q-22 0 -44 -8.5z" />
    <glyph glyph-name="Ebreve" unicode="&#x114;" horiz-adv-x="552" 
d="M176.5 809q-2.5 8 -2.5 13q0 6 11 12.5t23 6.5t32 -18q15 -16 31 -26t42 -10q24 0 42 10t35 29q9 11 16.5 15t17.5 4q8 0 18.5 -6.5t10.5 -15.5q0 -11 -6 -23q-16 -35 -45 -60.5t-87 -25.5q-84 0 -133 82q-3 5 -5.5 13zM418 121q-43 -13 -76 -20t-83 -7q-94 0 -94 71
q0 52 3 113q30 -2 47 -2q49 0 100.5 4t86.5 11q29 6 40.5 18t11.5 34q0 14 -11.5 22t-33.5 8q-38 0 -91 -5q-9 -1 -41 -4t-60 -3q-22 0 -45 3q0 49 14 152q2 12 14 17t40 7q24 3 49 3q29 0 87 -4t89 -4q27 0 40.5 19t13.5 39q0 18 -14.5 25.5t-44.5 13.5q-24 3 -78 3l-87 -1
q-70 -2 -101 -2q-37 0 -68 -21.5t-38 -69.5q-15 -111 -21 -182.5t-6 -145.5q0 -69 9.5 -111.5t51 -72.5t130.5 -30q71 0 133 12t104 32q18 9 24.5 17.5t6.5 29.5q0 17 -9.5 31.5t-28.5 14.5q-24 0 -64 -15z" />
    <glyph glyph-name="ebreve" unicode="&#x115;" horiz-adv-x="477" 
d="M108.5 582q-2.5 8 -2.5 13q0 6 11 12.5t23 6.5t32 -18q15 -16 31 -26t42 -10q24 0 42 10t35 29q9 11 16.5 15t17.5 4q8 0 18.5 -6.5t10.5 -15.5q0 -11 -6 -23q-16 -35 -45 -60.5t-87 -25.5q-84 0 -133 82q-3 5 -5.5 13zM59 127.5q14 -39.5 38 -67.5q29 -31 73 -48t91 -17
q23 0 60.5 7.5t66.5 23.5t29 41q0 18 -10 29.5t-29 11.5q-16 0 -41 -9q-31 -12 -67 -12q-34 0 -55.5 5t-41.5 24q-11 10 -19 29t-10 39q31 -7 64 -11.5t56 -4.5q36 0 72.5 6t53.5 24q21 22 32.5 41t11.5 46q0 50 -37 102q-16 23 -57.5 34t-81.5 11q-39 0 -89 -20.5
t-73 -52.5t-37 -70.5t-14 -76.5q0 -45 14 -84.5zM318 330q26 -17 26 -38t-23.5 -34t-66.5 -13q-79 0 -104 8q2 20 8.5 31.5t24.5 30.5q14 15 36 23.5t44 8.5q29 0 55 -17z" />
    <glyph glyph-name="Edotaccent" unicode="&#x116;" horiz-adv-x="552" 
d="M342.5 747q-19.5 -15 -41.5 -15t-37 12.5t-15 32.5q0 30 18 45t44 15q51 0 51 -50q0 -25 -19.5 -40zM510.5 121.5q9.5 -14.5 9.5 -31.5q0 -21 -6.5 -29.5t-24.5 -17.5q-42 -20 -104 -32t-133 -12q-89 0 -130.5 30t-51 72.5t-9.5 111.5q0 74 6 145.5t21 182.5
q7 48 38 69.5t68 21.5q31 0 101 2l87 1q54 0 78 -3q30 -6 44.5 -13.5t14.5 -25.5q0 -20 -13.5 -39t-40.5 -19q-31 0 -89 4t-87 4q-25 0 -49 -3q-28 -2 -40 -7t-14 -17q-14 -103 -14 -152q23 -3 45 -3q28 0 60 3t41 4q53 5 91 5q22 0 33.5 -8t11.5 -22q0 -22 -11.5 -34
t-40.5 -18q-35 -7 -86.5 -11t-100.5 -4q-17 0 -47 2q-3 -61 -3 -113q0 -71 94 -71q50 0 83 7t76 20q40 15 64 15q19 0 28.5 -14.5z" />
    <glyph glyph-name="edotaccent" unicode="&#x117;" horiz-adv-x="477" 
d="M289.5 518q-19.5 -15 -41.5 -15t-37 12.5t-15 32.5q0 30 18 45t44 15q51 0 51 -50q0 -25 -19.5 -40zM59 288.5q14 38.5 37 70.5t73 52.5t89 20.5q40 0 81.5 -11t57.5 -34q37 -52 37 -102q0 -27 -11.5 -46t-32.5 -41q-17 -18 -53.5 -24t-72.5 -6q-23 0 -56 4.5t-64 11.5
q2 -20 10 -39t19 -29q20 -19 41.5 -24t55.5 -5q36 0 67 12q25 9 41 9q19 0 29 -11.5t10 -29.5q0 -25 -29 -41t-66.5 -23.5t-60.5 -7.5q-47 0 -91 17t-73 48q-24 28 -38 67.5t-14 84.5q0 38 14 76.5zM219 338.5q-22 -8.5 -36 -23.5q-18 -19 -24.5 -30.5t-8.5 -31.5
q25 -8 104 -8q43 0 66.5 13t23.5 34t-26 38t-55 17q-22 0 -44 -8.5z" />
    <glyph glyph-name="Eogonek" unicode="&#x118;" horiz-adv-x="552" 
d="M510.5 121.5q9.5 -14.5 9.5 -31.5q0 -21 -6.5 -29.5t-24.5 -17.5q-42 -18 -62 -30q-31 -21 -58.5 -61t-27.5 -72q0 -26 35 -26q13 0 24 4t15 4q11 0 16 -6.5t5 -22.5q0 -20 -20.5 -32.5t-51.5 -12.5q-41 0 -67 20.5t-26 56.5t10 60t26 44q18 24 34 35q-47 -5 -89 -5
q-89 0 -130.5 30t-51 72.5t-9.5 111.5q0 74 6 145.5t21 182.5q7 48 38 69.5t68 21.5q31 0 101 2l87 1q54 0 78 -3q30 -6 44.5 -13.5t14.5 -25.5q0 -20 -13.5 -39t-40.5 -19q-31 0 -89 4t-87 4q-25 0 -49 -3q-28 -2 -40 -7t-14 -17q-14 -103 -14 -152q23 -3 45 -3q28 0 60 3
t41 4q53 5 91 5q22 0 33.5 -8t11.5 -22q0 -22 -11.5 -34t-40.5 -18q-35 -7 -86.5 -11t-100.5 -4q-17 0 -47 2q-3 -61 -3 -113q0 -71 94 -71q50 0 83 7t76 20q40 15 64 15q19 0 28.5 -14.5z" />
    <glyph glyph-name="eogonek" unicode="&#x119;" horiz-adv-x="477" 
d="M59 288.5q14 38.5 37 70.5t73 52.5t89 20.5q40 0 81.5 -11t57.5 -34q37 -52 37 -102q0 -27 -11.5 -46t-32.5 -41q-17 -18 -53.5 -24t-72.5 -6q-23 0 -56 4.5t-64 11.5q2 -20 10 -39t19 -29q20 -19 41.5 -24t55.5 -5q36 0 67 12q25 9 41 9q19 0 29 -11.5t10 -29.5
q0 -6 -4.5 -15.5t-8.5 -13.5q-44 -42 -71.5 -83t-27.5 -70q0 -15 10 -23t25 -8q13 0 24 4t15 4q11 0 16 -6.5t5 -22.5q0 -20 -20.5 -32.5t-51.5 -12.5q-41 0 -67 20.5t-26 56.5q0 81 66 134q-24 -4 -40 -4q-47 0 -91 17t-73 48q-24 28 -38 67.5t-14 84.5q0 38 14 76.5z
M219 338.5q-22 -8.5 -36 -23.5q-18 -19 -24.5 -30.5t-8.5 -31.5q25 -8 104 -8q43 0 66.5 13t23.5 34t-26 38t-55 17q-22 0 -44 -8.5z" />
    <glyph glyph-name="Ecaron" unicode="&#x11a;" horiz-adv-x="552" 
d="M278.5 719.5q-12.5 6.5 -27.5 21.5q-17 16 -64 67q-10 11 -16 19t-6 13q0 8 13 17.5t26 9.5q23 0 39.5 -12.5t36.5 -37.5q4 -5 13 -15.5t18 -17.5q14 11 43 43q19 21 30.5 30.5t23.5 9.5q17 0 33.5 -9.5t16.5 -17.5q0 -13 -40 -51q-34 -33 -52 -56q-6 -8 -20 -14t-33 -6
q-22 0 -34.5 6.5zM510.5 121.5q9.5 -14.5 9.5 -31.5q0 -21 -6.5 -29.5t-24.5 -17.5q-42 -20 -104 -32t-133 -12q-89 0 -130.5 30t-51 72.5t-9.5 111.5q0 74 6 145.5t21 182.5q7 48 38 69.5t68 21.5q31 0 101 2l87 1q54 0 78 -3q30 -6 44.5 -13.5t14.5 -25.5q0 -20 -13.5 -39
t-40.5 -19q-31 0 -89 4t-87 4q-25 0 -49 -3q-28 -2 -40 -7t-14 -17q-14 -103 -14 -152q23 -3 45 -3q28 0 60 3t41 4q53 5 91 5q22 0 33.5 -8t11.5 -22q0 -22 -11.5 -34t-40.5 -18q-35 -7 -86.5 -11t-100.5 -4q-17 0 -47 2q-3 -61 -3 -113q0 -71 94 -71q50 0 83 7t76 20
q40 15 64 15q19 0 28.5 -14.5z" />
    <glyph glyph-name="ecaron" unicode="&#x11b;" horiz-adv-x="477" 
d="M219.5 492.5q-12.5 6.5 -27.5 21.5q-17 16 -64 67q-10 11 -16 19t-6 13q0 8 13 17.5t26 9.5q23 0 39.5 -12.5t36.5 -37.5q4 -5 13 -15.5t18 -17.5q14 11 43 43q19 21 30.5 30.5t23.5 9.5q17 0 33.5 -9.5t16.5 -17.5q0 -13 -40 -51q-34 -33 -52 -56q-6 -8 -20 -14t-33 -6
q-22 0 -34.5 6.5zM59 288.5q14 38.5 37 70.5t73 52.5t89 20.5q40 0 81.5 -11t57.5 -34q37 -52 37 -102q0 -27 -11.5 -46t-32.5 -41q-17 -18 -53.5 -24t-72.5 -6q-23 0 -56 4.5t-64 11.5q2 -20 10 -39t19 -29q20 -19 41.5 -24t55.5 -5q36 0 67 12q25 9 41 9q19 0 29 -11.5
t10 -29.5q0 -25 -29 -41t-66.5 -23.5t-60.5 -7.5q-47 0 -91 17t-73 48q-24 28 -38 67.5t-14 84.5q0 38 14 76.5zM219 338.5q-22 -8.5 -36 -23.5q-18 -19 -24.5 -30.5t-8.5 -31.5q25 -8 104 -8q43 0 66.5 13t23.5 34t-26 38t-55 17q-22 0 -44 -8.5z" />
    <glyph glyph-name="Gcircumflex" unicode="&#x11c;" horiz-adv-x="681" 
d="M392 831q13 -7 23 -23q10 -15 30 -34t37 -31q22 -16 22 -32q0 -9 -9 -18t-21 -9q-34 0 -61.5 23t-54.5 61q-21 -30 -55 -57t-62 -27q-16 0 -23 8.5t-7 18.5q0 8 12.5 23.5t27.5 27.5q28 23 49 50q9 11 21 18.5t35 7.5t36 -7zM457 526.5q-31 14.5 -72 14.5q-82 0 -141 -42
q-45 -33 -67 -86t-22 -119q0 -63 29 -110.5t75 -72.5t96 -25t86.5 15.5t58.5 40.5q34 43 34 114q0 10 -16 14t-46 4l-72 -1q-29 0 -46 11t-17 28q0 24 16 35.5t43 11.5q32 0 86 -4t78 -4q35 0 56.5 -22t21.5 -64q0 -39 -17 -91t-48 -93q-30 -40 -88.5 -60.5t-129.5 -20.5
q-59 0 -114 19t-92 53q-46 43 -72.5 102.5t-26.5 118.5q0 86 40.5 167.5t109.5 126.5q30 20 84 33t99 13q70 0 123 -21.5t81 -61.5q12 -18 12 -32q0 -16 -14 -30t-28 -14q-6 0 -14 2t-12 5q-43 31 -74 45.5z" />
    <glyph glyph-name="gcircumflex" unicode="&#x11d;" horiz-adv-x="513" 
d="M281 634q13 -7 23 -23q10 -15 30 -34t37 -31q22 -16 22 -32q0 -9 -9 -18t-21 -9q-34 0 -61.5 23t-54.5 61q-21 -30 -55 -57t-62 -27q-16 0 -23 8.5t-7 18.5q0 8 12.5 23.5t27.5 27.5q28 23 49 50q9 11 21 18.5t35 7.5t36 -7zM450.5 -40q9.5 -23 9.5 -64q0 -20 -11.5 -40
t-23.5 -29q-95 -52 -190 -52q-47 0 -81 12t-64 32q-20 15 -32.5 41.5t-12.5 52.5q0 36 22.5 63t60.5 39q-7 15 -7 35q0 19 28 57q-48 16 -75.5 57t-27.5 96q0 34 16 60.5t48 61.5q22 24 56 35t85 11q36 0 89 -16q63 44 111 44q12 0 27.5 -6t23.5 -12q6 -11 6 -37
q0 -10 -8.5 -19.5t-21.5 -9.5l-24 1q-18 2 -28 2q-11 0 -33 -2q21 -25 32.5 -53t11.5 -73q0 -34 -25 -71t-59 -58q-52 -28 -121 -29q-8 -8 -13.5 -14.5t-5.5 -10.5q0 -11 19 -17t58 -9q30 -2 66.5 -12.5t57.5 -23.5q27 -19 36.5 -42zM312 196q28 25 28 71q0 35 -25 57
t-64 22q-25 0 -53.5 -8.5t-40.5 -26.5q-6 -8 -12 -30.5t-6 -34.5q0 -17 14.5 -34.5t38 -29t46.5 -11.5q46 0 74 25zM223.5 -36.5q-22.5 4.5 -36.5 10.5q-51 -27 -51 -59q0 -30 31 -45.5t71 -15.5q18 0 49 4t52 14q14 7 21 13.5t7 23.5q0 21 -22 32t-44 13q-55 5 -77.5 9.5z
" />
    <glyph glyph-name="Gbreve" unicode="&#x11e;" horiz-adv-x="681" 
d="M216.5 787q-2.5 8 -2.5 13q0 6 11 12.5t23 6.5t32 -18q15 -16 31 -26t42 -10q24 0 42 10t35 29q9 11 16.5 15t17.5 4q8 0 18.5 -6.5t10.5 -15.5q0 -11 -6 -23q-16 -35 -45 -60.5t-87 -25.5q-84 0 -133 82q-3 5 -5.5 13zM543 476q8 -2 14 -2q14 0 28 14t14 30q0 14 -12 32
q-28 40 -81 61.5t-123 21.5q-45 0 -99 -13t-84 -33q-69 -45 -109.5 -126.5t-40.5 -167.5q0 -59 26.5 -118.5t72.5 -102.5q37 -34 92 -53t114 -19q71 0 129.5 20.5t88.5 60.5q31 41 48 93t17 91q0 42 -21.5 64t-56.5 22q-24 0 -78 4t-86 4q-27 0 -43 -11.5t-16 -35.5
q0 -17 17 -28t46 -11l72 1q30 0 46 -4t16 -14q0 -71 -34 -114q-22 -25 -58.5 -40.5t-86.5 -15.5t-96 25t-75 72.5t-29 110.5q0 66 22 119t67 86q59 42 141 42q41 0 72 -14.5t74 -45.5q4 -3 12 -5z" />
    <glyph glyph-name="gbreve" unicode="&#x11f;" horiz-adv-x="513" 
d="M105.5 582q-2.5 8 -2.5 13q0 6 11 12.5t23 6.5t32 -18q15 -16 31 -26t42 -10q24 0 42 10t35 29q9 11 16.5 15t17.5 4q8 0 18.5 -6.5t10.5 -15.5q0 -11 -6 -23q-16 -35 -45 -60.5t-87 -25.5q-84 0 -133 82q-3 5 -5.5 13zM356.5 25.5q-36.5 10.5 -66.5 12.5q-39 3 -58 9
t-19 17q0 4 5.5 10.5t13.5 14.5q69 1 121 29q34 21 59 58t25 71q0 45 -11.5 73t-32.5 53q22 2 33 2q10 0 28 -2l24 -1q13 0 21.5 9.5t8.5 19.5q0 26 -6 37q-8 6 -23.5 12t-27.5 6q-48 0 -111 -44q-53 16 -89 16q-51 0 -85 -11t-56 -35q-32 -35 -48 -61.5t-16 -60.5
q0 -55 27.5 -96t75.5 -57q-28 -38 -28 -57q0 -20 7 -35q-38 -12 -60.5 -39t-22.5 -63q0 -26 12.5 -52.5t32.5 -41.5q30 -20 64 -32t81 -12q95 0 190 52q12 9 23.5 29t11.5 40q0 41 -9.5 64t-36.5 42q-21 13 -57.5 23.5zM191.5 182.5q-23.5 11.5 -38 29t-14.5 34.5
q0 12 6 34.5t12 30.5q12 18 40.5 26.5t53.5 8.5q39 0 64 -22t25 -57q0 -46 -28 -71t-74 -25q-23 0 -46.5 11.5zM345 -59q22 -11 22 -32q0 -17 -7 -23.5t-21 -13.5q-21 -10 -52 -14t-49 -4q-40 0 -71 15.5t-31 45.5q0 32 51 59q14 -6 36.5 -10.5t77.5 -9.5q22 -2 44 -13z" />
    <glyph glyph-name="Gdotaccent" unicode="&#x120;" horiz-adv-x="681" 
d="M391.5 712q-19.5 -15 -41.5 -15t-37 12.5t-15 32.5q0 30 18 45t44 15q51 0 51 -50q0 -25 -19.5 -40zM457 526.5q-31 14.5 -72 14.5q-82 0 -141 -42q-45 -33 -67 -86t-22 -119q0 -63 29 -110.5t75 -72.5t96 -25t86.5 15.5t58.5 40.5q34 43 34 114q0 10 -16 14t-46 4
l-72 -1q-29 0 -46 11t-17 28q0 24 16 35.5t43 11.5q32 0 86 -4t78 -4q35 0 56.5 -22t21.5 -64q0 -39 -17 -91t-48 -93q-30 -40 -88.5 -60.5t-129.5 -20.5q-59 0 -114 19t-92 53q-46 43 -72.5 102.5t-26.5 118.5q0 86 40.5 167.5t109.5 126.5q30 20 84 33t99 13
q70 0 123 -21.5t81 -61.5q12 -18 12 -32q0 -16 -14 -30t-28 -14q-6 0 -14 2t-12 5q-43 31 -74 45.5z" />
    <glyph glyph-name="gdotaccent" unicode="&#x121;" horiz-adv-x="513" 
d="M288.5 517q-19.5 -15 -41.5 -15t-37 12.5t-15 32.5q0 30 18 45t44 15q51 0 51 -50q0 -25 -19.5 -40zM450.5 -40q9.5 -23 9.5 -64q0 -20 -11.5 -40t-23.5 -29q-95 -52 -190 -52q-47 0 -81 12t-64 32q-20 15 -32.5 41.5t-12.5 52.5q0 36 22.5 63t60.5 39q-7 15 -7 35
q0 19 28 57q-48 16 -75.5 57t-27.5 96q0 34 16 60.5t48 61.5q22 24 56 35t85 11q36 0 89 -16q63 44 111 44q12 0 27.5 -6t23.5 -12q6 -11 6 -37q0 -10 -8.5 -19.5t-21.5 -9.5l-24 1q-18 2 -28 2q-11 0 -33 -2q21 -25 32.5 -53t11.5 -73q0 -34 -25 -71t-59 -58
q-52 -28 -121 -29q-8 -8 -13.5 -14.5t-5.5 -10.5q0 -11 19 -17t58 -9q30 -2 66.5 -12.5t57.5 -23.5q27 -19 36.5 -42zM312 196q28 25 28 71q0 35 -25 57t-64 22q-25 0 -53.5 -8.5t-40.5 -26.5q-6 -8 -12 -30.5t-6 -34.5q0 -17 14.5 -34.5t38 -29t46.5 -11.5q46 0 74 25z
M223.5 -36.5q-22.5 4.5 -36.5 10.5q-51 -27 -51 -59q0 -30 31 -45.5t71 -15.5q18 0 49 4t52 14q14 7 21 13.5t7 23.5q0 21 -22 32t-44 13q-55 5 -77.5 9.5z" />
    <glyph glyph-name="Gcommaaccent" unicode="&#x122;" horiz-adv-x="681" 
d="M457 526.5q-31 14.5 -72 14.5q-82 0 -141 -42q-45 -33 -67 -86t-22 -119q0 -63 29 -110.5t75 -72.5t96 -25t86.5 15.5t58.5 40.5q34 43 34 114q0 10 -16 14t-46 4l-72 -1q-29 0 -46 11t-17 28q0 24 16 35.5t43 11.5q32 0 86 -4t78 -4q35 0 56.5 -22t21.5 -64
q0 -39 -17 -91t-48 -93q-30 -40 -88.5 -60.5t-129.5 -20.5q-59 0 -114 19t-92 53q-46 43 -72.5 102.5t-26.5 118.5q0 86 40.5 167.5t109.5 126.5q30 20 84 33t99 13q70 0 123 -21.5t81 -61.5q12 -18 12 -32q0 -16 -14 -30t-28 -14q-6 0 -14 2t-12 5q-43 31 -74 45.5z
M346.5 -148.5q-6.5 0.5 -10.5 3.5q-28 16 -28 49q0 13 6.5 24t17.5 15q9 5 22.5 8t25.5 3q22 0 34 -16t12 -41q0 -29 -14.5 -57t-33.5 -44q-37 -35 -55 -35q-20 0 -25 4t-5 19q0 8 16.5 20.5t21.5 16.5q14 12 24 30q-2 0 -8.5 0.5z" />
    <glyph glyph-name="gcommaaccent" unicode="&#x123;" horiz-adv-x="513" 
d="M265.5 586.5q6.5 -0.5 10.5 -3.5q28 -16 28 -49q0 -13 -6.5 -24t-17.5 -15q-9 -5 -22.5 -8t-25.5 -3q-22 0 -34 16t-12 41q0 29 14.5 57t33.5 44q37 35 55 35q20 0 25 -4t5 -19q0 -8 -16.5 -20.5t-21.5 -16.5q-14 -12 -24 -30q2 0 8.5 -0.5zM450.5 -40q9.5 -23 9.5 -64
q0 -20 -11.5 -40t-23.5 -29q-95 -52 -190 -52q-47 0 -81 12t-64 32q-20 15 -32.5 41.5t-12.5 52.5q0 36 22.5 63t60.5 39q-7 15 -7 35q0 19 28 57q-48 16 -75.5 57t-27.5 96q0 34 16 60.5t48 61.5q22 24 56 35t85 11q36 0 89 -16q63 44 111 44q12 0 27.5 -6t23.5 -12
q6 -11 6 -37q0 -10 -8.5 -19.5t-21.5 -9.5l-24 1q-18 2 -28 2q-11 0 -33 -2q21 -25 32.5 -53t11.5 -73q0 -34 -25 -71t-59 -58q-52 -28 -121 -29q-8 -8 -13.5 -14.5t-5.5 -10.5q0 -11 19 -17t58 -9q30 -2 66.5 -12.5t57.5 -23.5q27 -19 36.5 -42zM312 196q28 25 28 71
q0 35 -25 57t-64 22q-25 0 -53.5 -8.5t-40.5 -26.5q-6 -8 -12 -30.5t-6 -34.5q0 -17 14.5 -34.5t38 -29t46.5 -11.5q46 0 74 25zM223.5 -36.5q-22.5 4.5 -36.5 10.5q-51 -27 -51 -59q0 -30 31 -45.5t71 -15.5q18 0 49 4t52 14q14 7 21 13.5t7 23.5q0 21 -22 32t-44 13
q-55 5 -77.5 9.5z" />
    <glyph glyph-name="Hcircumflex" unicode="&#x124;" horiz-adv-x="692" 
d="M383 842q13 -7 23 -23q10 -15 30 -34t37 -31q22 -16 22 -32q0 -9 -9 -18t-21 -9q-34 0 -61.5 23t-54.5 61q-21 -30 -55 -57t-62 -27q-16 0 -23 8.5t-7 18.5q0 8 12.5 23.5t27.5 27.5q28 23 49 50q9 11 21 18.5t35 7.5t36 -7zM512 406v38q0 38 -2 57q-2 16 -2 83
q0 24 14.5 37.5t39.5 13.5q32 0 43 -14t11 -46v-38l-1 -110q-1 -32 -1 -96l1 -82q1 -19 1 -53q0 -27 2 -77q2 -46 2 -69q0 -19 -10.5 -35t-28.5 -16q-70 0 -70 47q0 26 2 58q2 23 2 70q0 33 -2 95q-47 -4 -162 -4q-72 0 -112 0.5t-58 4.5l-1 -115q0 -11 5 -59q5 -32 5 -56
q0 -15 -17.5 -28.5t-32.5 -13.5q-36 0 -49 17.5t-13 53.5l-1 79q-1 14 -1 39q0 37 -2 101q-2 58 -2 84q0 39 2 109q2 66 2 98t16 43t36 11q56 0 56 -37q0 -66 -3 -126q-2 -76 -2 -111q29 -7 61 -9t90 -2q118 0 183 10q-1 16 -1 48z" />
    <glyph glyph-name="hcircumflex" unicode="&#x125;" horiz-adv-x="538" 
d="M307 841q13 -7 23 -23q10 -15 30 -34t37 -31q22 -16 22 -32q0 -9 -9 -18t-21 -9q-34 0 -61.5 23t-54.5 61q-21 -30 -55 -57t-62 -27q-16 0 -23 8.5t-7 18.5q0 8 12.5 23.5t27.5 27.5q28 23 49 50q9 11 21 18.5t35 7.5t36 -7zM173 573.5q-1 -34.5 -2 -52.5q-3 -51 -3 -102
q0 -38 3 -79q31 45 67 66t87 21q37 0 69 -33t41 -77q3 -39 3 -95q0 -36 4 -94q2 -22 11.5 -41t27.5 -19q9 0 14.5 1t10.5 1q14 0 19.5 -7t5.5 -20q0 -24 -24 -36t-44 -12q-72 0 -99 60q-15 34 -19 88.5t-4 127.5q0 72 -49 72q-27 0 -54.5 -28.5t-45.5 -75t-18 -96.5l1 -104
q0 -22 -17 -32.5t-32 -10.5q-22 0 -40 13.5t-18 30.5q7 75 7 251q0 32 -5 237l-3 92q0 22 20 38.5t45 16.5q22 0 32 -10t10 -31q0 -26 -1 -60.5z" />
    <glyph glyph-name="Hbar" unicode="&#x126;" horiz-adv-x="720" 
d="M521 539v43q0 25 15.5 39t41.5 14q32 0 43.5 -15t11.5 -47v-28l24 1q47 0 47 -47q0 -17 -16.5 -31t-38.5 -14h-16q0 -18 -2 -74q-1 -15 -1 -46l1 -68q2 -46 2 -69l3 -144q0 -19 -11 -36t-29 -17q-71 0 -71 49l1 57q1 12 1 30q0 103 -1 131q-38 -4 -130 -4h-49h-63
q-56 0 -87 5l-1 -107q-1 -23 5 -65q1 -8 3 -25t2 -30q0 -16 -17 -29.5t-32 -13.5q-37 0 -50 18t-13 55l-1 117l1 81l-2 33q-4 44 -4 70q0 54 1 80h-14q-29 0 -44 13t-15 46q0 18 12.5 25.5t40.5 7.5h24v33q0 56 52 56q55 0 55 -39l-1 -55q84 -4 142 -4q109 0 180 4zM526 390
v62l-170 -1h-160q-1 -28 -1 -90q49 -11 118 -11h34q96 0 179 10v30z" />
    <glyph glyph-name="hbar" unicode="&#x127;" horiz-adv-x="553" 
d="M187 568l150 1q27 0 37 -14.5t10 -39.5q0 -20 -81 -20l-119 2l-1 -79q0 -26 2 -80q32 45 67.5 66.5t86.5 21.5q38 0 69.5 -33t40.5 -78q4 -35 4 -95q0 -48 3 -93q2 -22 11.5 -41t27.5 -19q9 0 14.5 1t10.5 1q14 0 19.5 -7t5.5 -20q0 -24 -24 -35.5t-44 -11.5
q-72 0 -99 59q-15 34 -19 88t-4 127q0 72 -48 72q-28 0 -55.5 -28.5t-45.5 -75t-18 -96.5l1 -56q1 -14 1 -46q0 -22 -17 -32.5t-33 -10.5q-22 0 -39.5 13.5t-17.5 30.5q6 75 6 251q0 57 -4 207q-43 0 -62 7t-19 37q0 14 17.5 19t61.5 6q-2 40 -2 53q0 22 20 38.5t46 16.5
q41 0 41 -41z" />
    <glyph glyph-name="Itilde" unicode="&#x128;" horiz-adv-x="373" 
d="M39 790q18 20 45 31.5t52 11.5q38 0 73 -24q28 -20 46 -19q10 0 16 5t9.5 11t4.5 8q6 9 13 13.5t18 4.5q13 0 23.5 -7.5t10.5 -22.5q0 -20 -14.5 -39.5t-37 -32t-45.5 -12.5q-26 0 -42 7t-35 21q-12 9 -19.5 13t-16.5 4q-30 0 -46 -24q-16 -23 -41 -23q-10 0 -21 8
t-11 21q0 25 18 45zM308.5 563.5q14.5 10.5 14.5 44.5q0 14 -30.5 18t-91.5 4q-79 0 -117.5 -8t-38.5 -36q0 -25 7.5 -33t29.5 -8q19 0 53 2l-2 -55q-3 -75 -3 -118q0 -80 6 -176l5 -118l-33 2l-21 1q-20 0 -31 -6t-11 -23q0 -23 12 -34.5t43 -15.5t93 -4q56 0 85.5 3.5
t41.5 11.5t12 23q0 23 -13 34t-35 11q-6 0 -17.5 -2t-21.5 -3q0 45 -3 99.5t-4 72.5q-8 118 -8 179q0 59 3 123l20 1q41 0 55.5 10.5z" />
    <glyph glyph-name="itilde" unicode="&#x129;" horiz-adv-x="256" 
d="M-19 619q18 20 45 31.5t52 11.5q38 0 73 -24q28 -20 46 -19q10 0 16 5t9.5 11t4.5 8q6 9 13 13.5t18 4.5q13 0 23.5 -7.5t10.5 -22.5q0 -20 -14.5 -39.5t-37 -32t-45.5 -12.5q-26 0 -42 7t-35 21q-12 9 -19.5 13t-16.5 4q-30 0 -46 -24q-16 -23 -41 -23q-10 0 -21 8
t-11 21q0 25 18 45zM172.5 421q-11.5 13 -40.5 13q-20 0 -38 -13t-18 -31q0 -37 4 -127q5 -102 5 -184q0 -25 6 -57q4 -11 23.5 -18.5t38.5 -7.5q11 0 25 10.5t15 20.5q-4 35 -6.5 69.5t-2.5 73.5v29v181q0 28 -11.5 41z" />
    <glyph glyph-name="Imacron" unicode="&#x12a;" horiz-adv-x="373" 
d="M107.5 715.5q-22.5 -1.5 -29.5 -1.5q-18 0 -23.5 6.5t-5.5 28.5q0 25 33.5 31.5t103.5 6.5q61 0 98 -3.5t37 -14.5q0 -31 -12 -40t-49 -9l-111 -3q-19 0 -41.5 -1.5zM230 429q0 -61 8 -179q1 -18 4 -72.5t3 -99.5q10 1 21.5 3t17.5 2q22 0 35 -11t13 -34q0 -15 -12 -23
t-41.5 -11.5t-85.5 -3.5q-62 0 -93 4t-43 15.5t-12 34.5q0 17 11 23t31 6l21 -1l33 -2l-5 118q-6 96 -6 176q0 43 3 118l2 55q-34 -2 -53 -2q-22 0 -29.5 8t-7.5 33q0 28 38.5 36t117.5 8q61 0 91.5 -4t30.5 -18q0 -34 -14.5 -44.5t-55.5 -10.5l-20 -1q-3 -64 -3 -123z" />
    <glyph glyph-name="imacron" unicode="&#x12b;" horiz-adv-x="256" 
d="M51.5 549.5q-22.5 -1.5 -29.5 -1.5q-18 0 -23.5 6.5t-5.5 28.5q0 25 33.5 31.5t103.5 6.5q61 0 98 -3.5t37 -14.5q0 -31 -12 -40t-49 -9l-111 -3q-19 0 -41.5 -1.5zM184 199v-29q0 -39 2.5 -73.5t6.5 -69.5q-1 -10 -15 -20.5t-25 -10.5q-19 0 -38.5 7.5t-23.5 18.5
q-6 32 -6 57q0 82 -5 184q-4 90 -4 127q0 18 18 31t38 13q29 0 40.5 -13t11.5 -41v-181z" />
    <glyph glyph-name="Ibreve" unicode="&#x12c;" horiz-adv-x="373" 
d="M47.5 809q-2.5 8 -2.5 13q0 6 11 12.5t23 6.5t32 -18q15 -16 31 -26t42 -10q24 0 42 10t35 29q9 11 16.5 15t17.5 4q8 0 18.5 -6.5t10.5 -15.5q0 -11 -6 -23q-16 -35 -45 -60.5t-87 -25.5q-84 0 -133 82q-3 5 -5.5 13zM308.5 563.5q14.5 10.5 14.5 44.5q0 14 -30.5 18
t-91.5 4q-79 0 -117.5 -8t-38.5 -36q0 -25 7.5 -33t29.5 -8q19 0 53 2l-2 -55q-3 -75 -3 -118q0 -80 6 -176l5 -118l-33 2l-21 1q-20 0 -31 -6t-11 -23q0 -23 12 -34.5t43 -15.5t93 -4q56 0 85.5 3.5t41.5 11.5t12 23q0 23 -13 34t-35 11q-6 0 -17.5 -2t-21.5 -3
q0 45 -3 99.5t-4 72.5q-8 118 -8 179q0 59 3 123l20 1q41 0 55.5 10.5z" />
    <glyph glyph-name="ibreve" unicode="&#x12d;" horiz-adv-x="256" 
d="M-8.5 638q-2.5 8 -2.5 13q0 6 11 12.5t23 6.5t32 -18q15 -16 31 -26t42 -10q24 0 42 10t35 29q9 11 16.5 15t17.5 4q8 0 18.5 -6.5t10.5 -15.5q0 -11 -6 -23q-16 -35 -45 -60.5t-87 -25.5q-84 0 -133 82q-3 5 -5.5 13zM172.5 421q-11.5 13 -40.5 13q-20 0 -38 -13
t-18 -31q0 -37 4 -127q5 -102 5 -184q0 -25 6 -57q4 -11 23.5 -18.5t38.5 -7.5q11 0 25 10.5t15 20.5q-4 35 -6.5 69.5t-2.5 73.5v29v181q0 28 -11.5 41z" />
    <glyph glyph-name="Iogonek" unicode="&#x12e;" horiz-adv-x="373" 
d="M230 429q0 -61 8 -179q1 -18 4 -72.5t3 -99.5q10 1 21.5 3t17.5 2q22 0 35 -11t13 -34q0 -15 -12 -23t-43 -17q-34 -10 -57.5 -47.5t-23.5 -70.5q0 -26 35 -26q13 0 24 4t15 4q11 0 16 -6.5t5 -22.5q0 -20 -20.5 -32.5t-51.5 -12.5q-41 0 -67 20.5t-26 56.5q0 84 67 135
q-62 0 -93 4t-43 15.5t-12 34.5q0 17 11 23t31 6l21 -1l33 -2l-5 118q-6 96 -6 176q0 43 3 118l2 55q-34 -2 -53 -2q-22 0 -29.5 8t-7.5 33q0 28 38.5 36t117.5 8q61 0 91.5 -4t30.5 -18q0 -34 -14.5 -44.5t-55.5 -10.5l-20 -1q-3 -64 -3 -123z" />
    <glyph glyph-name="iogonek" unicode="&#x12f;" horiz-adv-x="256" 
d="M165 623.5q26 -15.5 26 -46.5q0 -23 -21.5 -36.5t-51.5 -13.5q-29 0 -40 15t-11 31q0 30 6.5 50t30.5 19q35 -3 61 -18.5zM124 -78q-13 -20 -13 -42q0 -26 35 -26q12 0 23 4t15 4q11 0 16 -6.5t5 -22.5q0 -20 -20.5 -32.5t-51.5 -12.5q-41 0 -67 20.5t-26 56.5
q0 64 36 104q24 27 36 35q-17 8 -21 18q-6 32 -6 57q0 82 -5 184q-4 90 -4 126q0 18 18 31t38 13q29 0 40.5 -13t11.5 -41v-180v-29q0 -39 2.5 -73.5t6.5 -69.5q0 -15 -4 -25t-13 -19q-46 -52 -52 -61z" />
    <glyph glyph-name="Idotaccent" unicode="&#x130;" horiz-adv-x="373" 
d="M223.5 747q-19.5 -15 -41.5 -15t-37 12.5t-15 32.5q0 30 18 45t44 15q51 0 51 -50q0 -25 -19.5 -40zM230 429q0 -61 8 -179q1 -18 4 -72.5t3 -99.5q10 1 21.5 3t17.5 2q22 0 35 -11t13 -34q0 -15 -12 -23t-41.5 -11.5t-85.5 -3.5q-62 0 -93 4t-43 15.5t-12 34.5
q0 17 11 23t31 6l21 -1l33 -2l-5 118q-6 96 -6 176q0 43 3 118l2 55q-34 -2 -53 -2q-22 0 -29.5 8t-7.5 33q0 28 38.5 36t117.5 8q61 0 91.5 -4t30.5 -18q0 -34 -14.5 -44.5t-55.5 -10.5l-20 -1q-3 -64 -3 -123z" />
    <glyph glyph-name="dotlessi" unicode="&#x131;" horiz-adv-x="256" 
d="M184 199v-29q0 -39 2.5 -73.5t6.5 -69.5q-1 -10 -15 -20.5t-25 -10.5q-19 0 -38.5 7.5t-23.5 18.5q-6 32 -6 57q0 82 -5 184q-4 90 -4 127q0 18 18 31t38 13q29 0 40.5 -13t11.5 -41v-181z" />
    <glyph glyph-name="IJ" unicode="&#x132;" horiz-adv-x="831" 
d="M465 99.5q13 -20.5 41 -20.5q70 0 95.5 57t25.5 156q0 48 -6 134q-6 82 -6 122q-107 0 -107 42q0 25 8.5 33t26.5 8q11 0 24 -1.5t19 -1.5q20 -3 38 -3q33 0 61 3q36 2 54 2q36 0 50.5 -7t14.5 -27q0 -21 -10.5 -29.5t-30.5 -12.5l-46 -5q-1 -66 8 -158q1 -14 4 -52.5
t3 -70.5q0 -130 -55 -200.5t-164 -70.5q-68 0 -113.5 39.5t-45.5 118.5q0 22 16 35.5t43 13.5q19 0 29 -13t10 -25q0 -46 13 -66.5zM230 429q0 -61 8 -179q1 -18 4 -72.5t3 -99.5q10 1 21.5 3t17.5 2q22 0 35 -11t13 -34q0 -15 -12 -23t-41.5 -11.5t-85.5 -3.5q-62 0 -93 4
t-43 15.5t-12 34.5q0 17 11 23t31 6l21 -1l33 -2l-5 118q-6 96 -6 176q0 43 3 118l2 55q-34 -2 -53 -2q-22 0 -29.5 8t-7.5 33q0 28 38.5 36t117.5 8q61 0 91.5 -4t30.5 -18q0 -34 -14.5 -44.5t-55.5 -10.5l-20 -1q-3 -64 -3 -123z" />
    <glyph glyph-name="ij" unicode="&#x133;" horiz-adv-x="479" 
d="M165 623.5q26 -15.5 26 -46.5q0 -23 -21.5 -36.5t-51.5 -13.5q-29 0 -40 15t-11 31q0 30 6.5 50t30.5 19q35 -3 61 -18.5zM388 625q24 -14 24 -45q0 -23 -19.5 -36.5t-48.5 -13.5q-30 0 -41.5 14t-11.5 29q0 29 7 49.5t31 19.5q35 -3 59 -17zM399 420.5
q13 -13.5 13 -28.5q0 -9 -2 -31q-3 -33 -3 -66q0 -42 3 -83q2 -42 2 -61q4 -124 4 -202q0 -76 -37.5 -114.5t-103.5 -38.5q-20 0 -43 15.5t-23 33.5q0 15 8 24t19 9q7 0 18.5 -3t17.5 -3q17 0 27 5t16 25t6 62q0 221 -11 341q-6 60 -6 91q0 14 14.5 26t43.5 12
q24 0 37 -13.5zM184 199v-29q0 -39 2.5 -73.5t6.5 -69.5q-1 -10 -15 -20.5t-25 -10.5q-19 0 -38.5 7.5t-23.5 18.5q-6 32 -6 57q0 82 -5 184q-4 90 -4 126q0 18 18 31t38 13q29 0 40.5 -13t11.5 -41v-180z" />
    <glyph glyph-name="Jcircumflex" unicode="&#x134;" horiz-adv-x="490" 
d="M348 853q13 -7 23 -23q10 -15 30 -34t37 -31q22 -16 22 -32q0 -9 -9 -18t-21 -9q-34 0 -61.5 23t-54.5 61q-21 -30 -55 -57t-62 -27q-16 0 -23 8.5t-7 18.5q0 8 12.5 23.5t27.5 27.5q28 23 49 50q9 11 21 18.5t35 7.5t36 -7zM124 99.5q13 -20.5 41 -20.5q70 0 95.5 57
t25.5 156q0 48 -6 134q-6 82 -6 122q-107 0 -107 42q0 25 8.5 33t26.5 8q11 0 24 -1.5t19 -1.5q20 -3 38 -3q33 0 61 3q36 2 54 2q36 0 50.5 -7t14.5 -27q0 -21 -10.5 -29.5t-30.5 -12.5l-46 -5q-1 -66 8 -158q1 -14 4 -52.5t3 -70.5q0 -130 -55 -200.5t-164 -70.5
q-68 0 -113.5 39.5t-45.5 118.5q0 22 16 35.5t43 13.5q19 0 29 -13t10 -25q0 -46 13 -66.5z" />
    <glyph glyph-name="jcircumflex" unicode="&#x135;" horiz-adv-x="247" 
d="M158 682q13 -7 23 -23q10 -15 30 -34t37 -31q22 -16 22 -32q0 -9 -9 -18t-21 -9q-34 0 -61.5 23t-54.5 61q-21 -30 -55 -57t-62 -27q-16 0 -23 8.5t-7 18.5q0 8 12.5 23.5t27.5 27.5q28 23 49 50q9 11 21 18.5t35 7.5t36 -7zM167 420.5q13 -13.5 13 -28.5q0 -9 -2 -31
q-3 -33 -3 -66q0 -42 3 -83q2 -42 2 -61q4 -124 4 -184q0 -76 -37.5 -114.5t-103.5 -38.5q-20 0 -43 15.5t-23 33.5q0 15 8 24t19 9q7 0 18.5 -3t17.5 -3q17 0 27 5t16 25t6 62q0 203 -11 323q-6 60 -6 91q0 14 14.5 26t43.5 12q24 0 37 -13.5z" />
    <glyph glyph-name="Kcommaaccent" unicode="&#x136;" horiz-adv-x="639" 
d="M626.5 63q5.5 -8 5.5 -23q0 -19 -14.5 -30.5t-33.5 -11.5q-22 0 -50 11q-56 25 -109.5 92.5t-128.5 194.5q-57 -44 -116 -82q0 -21 1.5 -48.5t1.5 -40.5q2 -58 2 -77q0 -17 -11 -32.5t-33 -15.5q-32 0 -46 10.5t-17 30.5q-8 50 -8 96q0 52 8 150q8 94 8 141q0 18 -2 52
q-1 27 -6 50q-4 32 -4 45q0 32 14 46t43 14q22 0 36.5 -12.5t16.5 -33.5q5 -85 5 -131q-1 -25 -3.5 -71.5t-4.5 -58.5q34 19 133.5 109.5t141.5 142.5l13 15q16 21 27 29t30 8t34.5 -12.5t15.5 -29.5q0 -33 -34 -67q-83 -86 -166 -160q117 -219 235 -287q10 -5 15.5 -13z
M287.5 -148.5q-6.5 0.5 -10.5 3.5q-28 16 -28 49q0 13 6.5 24t17.5 15q9 5 22.5 8t25.5 3q22 0 34 -16t12 -41q0 -29 -14.5 -57t-33.5 -44q-37 -35 -55 -35q-20 0 -25 4t-5 19q0 8 16.5 20.5t21.5 16.5q14 12 24 30q-2 0 -8.5 0.5z" />
    <glyph glyph-name="kcommaaccent" unicode="&#x137;" horiz-adv-x="517" 
d="M96 3q-14 7 -17 15q-11 40 -11 105q0 120 4 195q4 89 4 171q0 24 -6 70q-1 8 -3 29t-2 39q0 22 15.5 35t40.5 13q20 0 32.5 -12.5t12.5 -33.5q0 -32 2 -90q2 -54 2 -81q0 -30 -2 -80q-2 -30 -2 -44q0 -44 1 -73q37 37 97 87t93 70q35 21 46 21q21 0 36 -9t15 -26t-5 -27
t-18 -20l-129 -94q22 -11 37.5 -28t31.5 -42q34 -56 54.5 -82t37.5 -26l25 1q7 0 12.5 -8t5.5 -23q0 -23 -22.5 -37t-50.5 -14q-39 0 -69 30.5t-57 82.5q-39 74 -77 88l-64 -52l4 -109q0 -26 -13.5 -37t-26.5 -11q-20 0 -34 7zM241.5 -148.5q-6.5 0.5 -10.5 3.5
q-28 16 -28 49q0 13 6.5 24t17.5 15q9 5 22.5 8t25.5 3q22 0 34 -16t12 -41q0 -29 -14.5 -57t-33.5 -44q-37 -35 -55 -35q-20 0 -25 4t-5 19q0 8 16.5 20.5t21.5 16.5q14 12 24 30q-2 0 -8.5 0.5z" />
    <glyph glyph-name="kgreenlandic" unicode="&#x138;" horiz-adv-x="514" 
d="M66 344q-1 21 -1 47q0 22 14.5 34.5t39.5 12.5q20 0 32.5 -12.5t12.5 -33.5q-2 -32 -2 -51q0 -23 3 -80q35 37 94.5 86t93.5 69q12 7 26 14t20 7q21 0 35.5 -8.5t14.5 -26.5q0 -17 -4.5 -27t-17.5 -20l-127 -92q22 -11 37 -28t31 -42q33 -54 54 -81t38 -27l25 1
q7 0 12.5 -8t5.5 -23q0 -23 -22.5 -37t-50.5 -14q-39 0 -68.5 30.5t-57.5 82.5q-38 73 -76 88l-64 -52l3 -109q0 -26 -13 -37t-27 -11q-20 0 -34 7t-17 15q-10 37 -10 105q0 60 1 80v59z" />
    <glyph glyph-name="Lacute" unicode="&#x139;" horiz-adv-x="505" 
d="M276.5 833q12.5 -9 12.5 -23q0 -27 -25.5 -52.5t-53.5 -41.5q-15 -9 -38.5 -15t-35.5 -6q-21 0 -21 20q0 6 4 11t17 15q4 4 12.5 11.5t16.5 18t16 28.5q12 24 26.5 33.5t35.5 9.5t33.5 -9zM157.5 625q15.5 -10 18.5 -35q12 -79 15.5 -157.5t3.5 -177.5q0 -42 -7 -153
q44 -4 68 -4q17 0 77 5q35 5 61 5q24 0 44 -4.5t41 -14.5q21 -12 21 -37q0 -20 -12.5 -36t-29.5 -16q-12 0 -38 4q-47 7 -90 7q-14 0 -31.5 -1.5t-25.5 -1.5q-24 -3 -48 -3q-49 0 -88 5q-20 2 -40 15.5t-20 39.5q0 15 4 77q7 103 7 157q0 42 -4 88t-5 58q-9 85 -9 140
q0 26 12.5 38t40.5 12q19 0 34.5 -10z" />
    <glyph glyph-name="lacute" unicode="&#x13a;" horiz-adv-x="283" 
d="M235.5 895q12.5 -9 12.5 -23q0 -27 -25.5 -52.5t-53.5 -41.5q-15 -9 -38.5 -15t-35.5 -6q-21 0 -21 20q0 6 4 11t17 15q4 4 12.5 11.5t16.5 18t16 28.5q12 24 26.5 33.5t35.5 9.5t33.5 -9zM176.5 96.5q11.5 -20.5 29.5 -20.5q10 0 19 1.5t18 1.5q10 0 17.5 -10t7.5 -22
q0 -24 -22.5 -37.5t-60.5 -13.5q-27 0 -54.5 16.5t-45.5 52t-18 88.5q0 114 4 193q5 94 5 237q0 45 5 63q6 14 19.5 21.5t28.5 7.5t26.5 -5t15.5 -16q4 -12 5.5 -23.5t1.5 -32.5q0 -41 -3 -79q-2 -46 -2 -67q-8 -176 -8 -297q0 -38 11.5 -58.5z" />
    <glyph glyph-name="Lcommaaccent" unicode="&#x13b;" horiz-adv-x="505" 
d="M157.5 625q15.5 -10 18.5 -35q12 -79 15.5 -157.5t3.5 -177.5q0 -42 -7 -153q44 -4 68 -4q17 0 77 5q35 5 61 5q24 0 44 -4.5t41 -14.5q21 -12 21 -37q0 -20 -12.5 -36t-29.5 -16q-12 0 -38 4q-47 7 -90 7q-14 0 -31.5 -1.5t-25.5 -1.5q-24 -3 -48 -3q-49 0 -88 5
q-20 2 -40 15.5t-20 39.5q0 15 4 77q7 103 7 157q0 42 -4 88t-5 58q-9 85 -9 140q0 26 12.5 38t40.5 12q19 0 34.5 -10zM261.5 -148q-6.5 1 -10.5 3q-28 16 -28 49q0 13 6.5 24t17.5 15q9 5 22.5 8t25.5 3q22 0 34 -16t12 -41q0 -29 -14.5 -57t-33.5 -44q-37 -35 -55 -35
q-20 0 -25 4t-5 19q0 8 16.5 20.5t21.5 16.5q14 12 24 30q-2 0 -8.5 1z" />
    <glyph glyph-name="lcommaaccent" unicode="&#x13c;" horiz-adv-x="283" 
d="M176.5 96.5q11.5 -20.5 29.5 -20.5q10 0 19 1.5t18 1.5q10 0 17.5 -10t7.5 -22q0 -24 -22.5 -37.5t-60.5 -13.5q-27 0 -54.5 16.5t-45.5 52t-18 88.5q0 114 4 193q5 94 5 237q0 45 5 63q6 14 19.5 21.5t28.5 7.5t26.5 -5t15.5 -16q4 -12 5.5 -23.5t1.5 -32.5
q0 -41 -3 -79q-2 -46 -2 -67q-8 -176 -8 -297q0 -38 11.5 -58.5zM151.5 -148.5q-6.5 0.5 -10.5 3.5q-28 16 -28 49q0 13 6.5 24t17.5 15q9 5 22.5 8t25.5 3q22 0 34 -16t12 -41q0 -29 -14.5 -57t-33.5 -44q-37 -35 -55 -35q-20 0 -25 4t-5 19q0 8 16.5 20.5t21.5 16.5
q14 12 24 30q-2 0 -8.5 0.5z" />
    <glyph glyph-name="Lcaron" unicode="&#x13d;" horiz-adv-x="505" 
d="M330.5 539q-6.5 1 -10.5 3q-28 16 -28 49q0 14 6.5 24.5t17.5 14.5q9 5 22.5 8t25.5 3q22 0 34 -16t12 -41q0 -29 -14.5 -57t-33.5 -44q-37 -35 -55 -35q-20 0 -25 4t-5 19q0 8 16.5 20.5t21.5 16.5q14 12 24 30q-2 0 -8.5 1zM157.5 625q15.5 -10 18.5 -35
q12 -79 15.5 -157.5t3.5 -177.5q0 -42 -7 -153q44 -4 68 -4q17 0 77 5q35 5 61 5q24 0 44 -4.5t41 -14.5q21 -12 21 -37q0 -20 -12.5 -36t-29.5 -16q-12 0 -38 4q-47 7 -90 7q-14 0 -31.5 -1.5t-25.5 -1.5q-24 -3 -48 -3q-49 0 -88 5q-20 2 -40 15.5t-20 39.5q0 15 4 77
q7 103 7 157q0 42 -4 88t-5 58q-9 85 -9 140q0 26 12.5 38t40.5 12q19 0 34.5 -10z" />
    <glyph glyph-name="lcaron" unicode="&#x13e;" horiz-adv-x="363" 
d="M282.5 580q-6.5 1 -10.5 3q-28 16 -28 49q0 14 6.5 24.5t17.5 14.5q9 5 22.5 8t25.5 3q22 0 34 -16t12 -41q0 -29 -14.5 -57t-33.5 -44q-37 -35 -55 -35q-20 0 -25 4t-5 19q0 8 16.5 20.5t21.5 16.5q14 12 24 30q-2 0 -8.5 1zM176.5 96.5q11.5 -20.5 29.5 -20.5
q10 0 19 1.5t18 1.5q10 0 17.5 -10t7.5 -22q0 -24 -22.5 -37.5t-60.5 -13.5q-27 0 -54.5 16.5t-45.5 52t-18 88.5q0 114 4 193q5 94 5 237q0 45 5 63q6 14 19.5 21.5t28.5 7.5t26.5 -5t15.5 -16q4 -12 5.5 -23.5t1.5 -32.5q0 -41 -3 -79q-2 -46 -2 -67q-8 -176 -8 -297
q0 -38 11.5 -58.5z" />
    <glyph glyph-name="Ldot" unicode="&#x13f;" horiz-adv-x="505" 
d="M157.5 625q15.5 -10 18.5 -35q12 -79 15.5 -157.5t3.5 -177.5q0 -42 -7 -153q44 -4 68 -4q17 0 77 5q35 5 61 5q24 0 44 -4.5t41 -14.5q21 -12 21 -37q0 -20 -12.5 -36t-29.5 -16q-12 0 -38 4q-47 7 -90 7q-14 0 -31.5 -1.5t-25.5 -1.5q-24 -3 -48 -3q-49 0 -88 5
q-20 2 -40 15.5t-20 39.5q0 15 4 77q7 103 7 157q0 42 -4 88t-5 58q-9 85 -9 140q0 26 12.5 38t40.5 12q19 0 34.5 -10zM365.5 287q-19.5 -15 -40.5 -15q-22 0 -37.5 12.5t-15.5 32.5q0 30 18 45t44 15q51 0 51 -50q0 -25 -19.5 -40z" />
    <glyph glyph-name="ldot" unicode="&#x140;" horiz-adv-x="301" 
d="M176.5 96.5q11.5 -20.5 29.5 -20.5q10 0 19 1.5t18 1.5q10 0 17.5 -10t7.5 -22q0 -24 -22.5 -37.5t-60.5 -13.5q-27 0 -54.5 16.5t-45.5 52t-18 88.5q0 114 4 193q5 94 5 237q0 45 5 63q6 14 19.5 21.5t28.5 7.5t26.5 -5t15.5 -16q4 -12 5.5 -23.5t1.5 -32.5
q0 -41 -3 -79q-2 -46 -2 -67q-8 -176 -8 -297q0 -38 11.5 -58.5zM286.5 295q-19.5 -15 -40.5 -15q-22 0 -37.5 12.5t-15.5 32.5q0 30 18 45t44 15q51 0 51 -50q0 -25 -19.5 -40z" />
    <glyph glyph-name="Lslash" unicode="&#x141;" horiz-adv-x="520" 
d="M191 589q13 -96 20 -209l39 23q3 2 13.5 7.5t19.5 8.5t16 3q15 0 28 -14t13 -29q0 -25 -32 -42q-29 -15 -95 -53v-29q0 -31 -2 -69t-3 -54l-2 -29q44 -4 64 -4q22 0 77 5q40 4 61 4q24 0 44 -4.5t41 -14.5q23 -13 23 -38q0 -20 -13 -35.5t-31 -15.5q-9 0 -26 3
q-49 9 -101 9q-35 0 -52 -1l-53 -1q-45 0 -86 4q-21 2 -41 16t-20 41q0 15 3 45l6 103l-16 -9q-12 -8 -29 -8t-31.5 10.5t-14.5 25.5q0 19 43 49q11 8 28 18l21 13q-1 57 -12 169q-7 72 -7 96q0 27 13 39.5t42 12.5q45 0 52 -46z" />
    <glyph glyph-name="lslash" unicode="&#x142;" horiz-adv-x="286" 
d="M39 229q-17 0 -31.5 11t-14.5 25q0 20 43 50l38 28v3q5 133 5 254q0 30 5 46q6 14 19 21.5t28 7.5t27 -5t16 -16q4 -12 5.5 -23.5t1.5 -32.5q0 -19 -1.5 -43t-1.5 -36q-3 -34 -3 -67l-1 -39q11 6 22.5 11t21.5 5q16 0 28.5 -11.5t12.5 -26.5q0 -21 -32 -41
q-38 -22 -57 -38q-3 -78 -3 -157q0 -38 11.5 -58.5t30.5 -20.5q10 0 19 1.5t18 1.5q10 0 17.5 -10t7.5 -22q0 -24 -22.5 -37.5t-60.5 -13.5q-27 0 -54.5 16.5t-46 52t-18.5 88.5q0 58 1 85h-2q-14 -9 -29 -9z" />
    <glyph glyph-name="Nacute" unicode="&#x143;" horiz-adv-x="675" 
d="M443.5 841q12.5 -9 12.5 -23q0 -27 -25.5 -52.5t-53.5 -41.5q-15 -9 -38.5 -15t-35.5 -6q-21 0 -21 20q0 6 4 11t17 15q4 4 12.5 11.5t16.5 18t16 28.5q12 24 26.5 33.5t35.5 9.5t33.5 -9zM503.5 612.5q13.5 21.5 40.5 21.5q23 0 41 -9t18 -30q0 -41 -4 -115
q-4 -72 -4 -107q0 -55 4 -147q4 -88 4 -129q0 -33 -1 -49q0 -16 -17.5 -31.5t-53.5 -15.5q-19 0 -32.5 6.5t-18.5 14.5q-47 57 -137 194q-101 153 -165 234q8 -72 8 -176q0 -46 -1.5 -119.5t-4.5 -96.5q-4 -29 -17.5 -44.5t-42.5 -15.5q-22 0 -32.5 12.5t-12.5 43.5
q-1 41 5 123q1 13 3 45t2 57q0 69 -7 158q-6 98 -6 145q0 24 17.5 37t40.5 13q20 0 42 -10q86 -108 233 -322l94 -144q1 16 1 45q0 51 -2 110t-3 80q-5 97 -5 171q0 29 13.5 50.5z" />
    <glyph glyph-name="nacute" unicode="&#x144;" horiz-adv-x="565" 
d="M381.5 684q12.5 -9 12.5 -23q0 -27 -25.5 -52.5t-53.5 -41.5q-15 -9 -38.5 -15t-35.5 -6q-21 0 -21 20q0 6 4 11t17 15q4 4 12.5 11.5t16.5 18t16 28.5q12 24 26.5 33.5t35.5 9.5t33.5 -9zM525 72q11 -3 16 -6t5 -9q1 -24 -17.5 -39.5t-43.5 -15.5q-39 0 -61 21t-32 64
q-4 17 -4 47q0 17 2 55q2 40 2 64q0 35 -19.5 61.5t-54.5 26.5q-21 0 -44 -12.5t-32 -30.5q-15 -29 -21 -63q-11 -60 -11 -125q0 -31 1 -48q0 -4 0.5 -15.5t-2 -21t-8.5 -17.5q-5 -5 -15.5 -8.5t-19.5 -3.5q-14 0 -35 12t-24 27l-1 17q0 9 2 21q12 70 12 122q0 23 -1 36
l-1 47q0 24 -12 46.5t-28 22.5q-5 0 -14 -3.5t-15 -3.5q-10 0 -21.5 10t-11.5 21q0 21 14 34q15 12 29.5 19t33.5 7q16 0 26 -3t27 -13q9 -5 21 -22t20 -48q26 48 64.5 67.5t98.5 19.5q23 0 49.5 -15t45.5 -35q18 -22 30 -54.5t12 -58.5q0 -15 -2 -49q-3 -27 -3 -57
q0 -70 27 -86q5 -2 16 -5z" />
    <glyph glyph-name="Ncommaaccent" unicode="&#x145;" horiz-adv-x="675" 
d="M503.5 612.5q13.5 21.5 40.5 21.5q23 0 41 -9t18 -30q0 -41 -4 -115q-4 -72 -4 -107q0 -55 4 -147q4 -88 4 -129q0 -33 -1 -49q0 -16 -17.5 -31.5t-53.5 -15.5q-19 0 -32.5 6.5t-18.5 14.5q-47 57 -137 194q-101 153 -165 234q8 -72 8 -176q0 -46 -1.5 -119.5t-4.5 -96.5
q-4 -29 -17.5 -44.5t-42.5 -15.5q-22 0 -32.5 12.5t-12.5 43.5q-1 41 5 123q1 13 3 45t2 57q0 69 -7 158q-6 98 -6 145q0 24 17.5 37t40.5 13q20 0 42 -10q86 -108 233 -322l94 -144q1 16 1 45q0 51 -2 110t-3 80q-5 97 -5 171q0 29 13.5 50.5zM333.5 -148q-6.5 1 -10.5 3
q-28 16 -28 49q0 13 6.5 24t17.5 15q9 5 22.5 8t25.5 3q22 0 34 -16t12 -41q0 -29 -14.5 -57t-33.5 -44q-37 -35 -55 -35q-20 0 -25 4t-5 19q0 8 16.5 20.5t21.5 16.5q14 12 24 30q-2 0 -8.5 1z" />
    <glyph glyph-name="ncommaaccent" unicode="&#x146;" horiz-adv-x="565" 
d="M525 72q11 -3 16 -6t5 -9q1 -24 -17.5 -39.5t-43.5 -15.5q-39 0 -61 21t-32 64q-4 17 -4 47q0 17 2 55q2 40 2 64q0 35 -19.5 61.5t-54.5 26.5q-21 0 -44 -12.5t-32 -30.5q-15 -29 -21 -63q-11 -60 -11 -125q0 -31 1 -48q0 -4 0.5 -15.5t-2 -21t-8.5 -17.5
q-5 -5 -15.5 -8.5t-19.5 -3.5q-14 0 -35 12t-24 27l-1 17q0 9 2 21q12 70 12 122q0 23 -1 36l-1 47q0 24 -12 46.5t-28 22.5q-5 0 -14 -3.5t-15 -3.5q-10 0 -21.5 10t-11.5 21q0 21 14 34q15 12 29.5 19t33.5 7q16 0 26 -3t27 -13q9 -5 21 -22t20 -48q26 48 64.5 67.5
t98.5 19.5q23 0 49.5 -15t45.5 -35q18 -22 30 -54.5t12 -58.5q0 -15 -2 -49q-3 -27 -3 -57q0 -70 27 -86q5 -2 16 -5zM296.5 -148.5q-6.5 0.5 -10.5 3.5q-28 16 -28 49q0 13 6.5 24t17.5 15q9 5 22.5 8t25.5 3q22 0 34 -16t12 -41q0 -29 -14.5 -57t-33.5 -44
q-37 -35 -55 -35q-20 0 -25 4t-5 19q0 8 16.5 20.5t21.5 16.5q14 12 24 30q-2 0 -8.5 0.5z" />
    <glyph glyph-name="Ncaron" unicode="&#x147;" horiz-adv-x="675" 
d="M306.5 706.5q-12.5 6.5 -27.5 21.5q-17 15 -64 67q-10 11 -16 19t-6 13q0 8 13 17.5t26 9.5q23 0 39.5 -12.5t36.5 -37.5q4 -5 13 -15.5t18 -17.5q14 11 43 43q19 21 30.5 30.5t23.5 9.5q17 0 33.5 -9.5t16.5 -17.5q0 -13 -40 -51q-34 -33 -52 -56q-6 -8 -20 -14t-33 -6
q-22 0 -34.5 6.5zM503.5 612.5q13.5 21.5 40.5 21.5q23 0 41 -9t18 -30q0 -41 -4 -115q-4 -72 -4 -107q0 -55 4 -147q4 -88 4 -129q0 -33 -1 -49q0 -16 -17.5 -31.5t-53.5 -15.5q-19 0 -32.5 6.5t-18.5 14.5q-47 57 -137 194q-101 153 -165 234q8 -72 8 -176
q0 -46 -1.5 -119.5t-4.5 -96.5q-4 -29 -17.5 -44.5t-42.5 -15.5q-22 0 -32.5 12.5t-12.5 43.5q-1 41 5 123q1 13 3 45t2 57q0 69 -7 158q-6 98 -6 145q0 24 17.5 37t40.5 13q20 0 42 -10q86 -108 233 -322l94 -144q1 16 1 45q0 51 -2 110t-3 80q-5 97 -5 171q0 29 13.5 50.5
z" />
    <glyph glyph-name="ncaron" unicode="&#x148;" horiz-adv-x="565" 
d="M263.5 548.5q-12.5 6.5 -27.5 21.5q-17 16 -64 67q-10 11 -16 19t-6 13q0 8 13 17.5t26 9.5q23 0 39.5 -12.5t36.5 -37.5q4 -5 13 -15.5t18 -17.5q14 11 43 43q19 21 30.5 30.5t23.5 9.5q17 0 33.5 -9.5t16.5 -17.5q0 -13 -40 -51q-34 -33 -52 -56q-6 -8 -20 -14t-33 -6
q-22 0 -34.5 6.5zM525 72q11 -3 16 -6t5 -9q1 -24 -17.5 -39.5t-43.5 -15.5q-39 0 -61 21t-32 64q-4 17 -4 47q0 17 2 55q2 40 2 64q0 35 -19.5 61.5t-54.5 26.5q-21 0 -44 -12.5t-32 -30.5q-15 -29 -21 -63q-11 -60 -11 -125q0 -31 1 -48q0 -4 0.5 -15.5t-2 -21t-8.5 -17.5
q-5 -5 -15.5 -8.5t-19.5 -3.5q-14 0 -35 12t-24 27l-1 17q0 9 2 21q12 70 12 122q0 23 -1 36l-1 47q0 24 -12 46.5t-28 22.5q-5 0 -14 -3.5t-15 -3.5q-10 0 -21.5 10t-11.5 21q0 21 14 34q15 12 29.5 19t33.5 7q16 0 26 -3t27 -13q9 -5 21 -22t20 -48q26 48 64.5 67.5
t98.5 19.5q23 0 49.5 -15t45.5 -35q18 -22 30 -54.5t12 -58.5q0 -15 -2 -49q-3 -27 -3 -57q0 -70 27 -86q5 -2 16 -5z" />
    <glyph glyph-name="napostrophe" unicode="&#x149;" horiz-adv-x="622" 
d="M55.5 539q-6.5 1 -10.5 3q-28 16 -28 49q0 14 6.5 24.5t17.5 14.5q9 5 22.5 8t25.5 3q22 0 34 -16t12 -41q0 -29 -14.5 -57t-33.5 -44q-37 -35 -55 -35q-20 0 -25 4t-5 19q0 8 16.5 20.5t21.5 16.5q14 12 24 30q-2 0 -8.5 1zM582 72q11 -3 16 -6t5 -9q1 -24 -17.5 -39.5
t-43.5 -15.5q-39 0 -61 21t-32 64q-4 17 -4 47q0 17 2 55q2 40 2 64q0 35 -19.5 61.5t-54.5 26.5q-21 0 -44 -12.5t-32 -30.5q-15 -29 -21 -63q-11 -60 -11 -125q0 -31 1 -48q0 -4 0.5 -15.5t-2 -21t-8.5 -17.5q-5 -5 -15.5 -8.5t-19.5 -3.5q-14 0 -35 12t-24 27l-1 17
q0 9 2 21q12 70 12 122q0 23 -1 36l-1 47q0 24 -12 46.5t-28 22.5q-6 0 -15 -3.5t-14 -3.5q-10 0 -21.5 10t-11.5 21q0 21 14 34q15 12 29.5 19t33.5 7q16 0 26 -3t27 -13q9 -5 21 -22t20 -48q26 48 64.5 67.5t98.5 19.5q23 0 49.5 -15t45.5 -35q18 -22 30 -54.5t12 -58.5
q0 -15 -2 -49q-3 -27 -3 -57q0 -70 27 -86q5 -2 16 -5z" />
    <glyph glyph-name="Eng" unicode="&#x14a;" horiz-adv-x="675" 
d="M178 450q8 -72 8 -176q0 -46 -1.5 -119.5t-4.5 -96.5q-4 -29 -17.5 -44.5t-42.5 -15.5q-22 0 -32.5 12.5t-12.5 43.5q-1 41 5 123q1 13 3 45t2 57q0 69 -7 158q-6 98 -6 145q0 24 17.5 37t40.5 13q14 0 26.5 -4.5t19.5 -11.5q52 -64 104.5 -137.5t124.5 -178.5l94 -144
q1 16 1 45q0 51 -2 110t-3 80q-5 97 -5 171q0 29 13.5 50.5t40.5 21.5q23 0 41 -9t18 -30q0 -41 -4 -115q-4 -72 -4 -107q0 -46 2 -160q3 -88 3 -173q0 -51 -1 -72q-2 -77 -47.5 -117t-112.5 -40q-39 0 -71.5 18.5t-32.5 53.5q0 17 14 26t32 9q10 0 19 -3.5t17 -7.5
q7 -4 15 -7t16 -3q18 0 32.5 14.5t14.5 54.5q0 18 -2 28.5t-8 20.5q-73 112 -307 435z" />
    <glyph glyph-name="eng" unicode="&#x14b;" horiz-adv-x="556" 
d="M489 3q1 -14 1 -36q0 -77 -37 -115t-103 -38q-20 0 -43 15.5t-23 33.5q0 15 8 24t19 9q7 0 18.5 -3t17.5 -3q17 0 27 5t16 25t6 62q0 30 -1 46l-1 50q0 19 3 124l2 52q0 34 -22.5 61t-58.5 27q-21 0 -44 -12.5t-32 -30.5q-15 -29 -21 -63q-11 -60 -11 -126q0 -31 1 -48
q0 -4 0.5 -15.5t-2 -21t-8.5 -17.5q-5 -5 -15.5 -8.5t-19.5 -3.5q-14 0 -35 12t-24 27l-1 17q0 9 2 21q12 70 12 122q0 23 -1 36l-1 47q0 24 -12 46.5t-28 22.5q-5 0 -14 -3.5t-15 -3.5q-10 0 -21.5 10t-11.5 21q0 21 14 34q15 12 29.5 19t33.5 7q16 0 26 -3t27 -13
q9 -5 21 -22t20 -48q26 49 65 68.5t98 19.5q23 0 49.5 -15t45.5 -36q19 -23 33.5 -55t14.5 -57l-2 -73q-3 -48 -3 -85z" />
    <glyph glyph-name="Omacron" unicode="&#x14c;" horiz-adv-x="725" 
d="M285 704.5q-22 -1.5 -28 -1.5q-18 0 -24 6.5t-6 28.5q0 25 33.5 31.5t104.5 6.5q60 0 97.5 -3.5t37.5 -14.5q0 -31 -12.5 -40t-48.5 -9l-112 -3q-20 0 -42 -1.5zM469 619.5q55 -16.5 90 -48.5q63 -57 88.5 -124.5t25.5 -172.5q0 -22 -5.5 -40t-17.5 -46q-15 -31 -18 -49
q-20 -35 -65.5 -67t-98.5 -52t-93 -20q-193 0 -275 132q-23 37 -35.5 77t-12.5 78q0 102 36.5 177.5t101.5 117.5q39 23 81.5 38.5t75.5 15.5q67 0 122 -16.5zM180.5 195q24.5 -35 75.5 -76q42 -16 57 -20.5t34 -4.5q101 0 161 55t60 151q0 76 -17 120t-61 79
q-23 19 -58.5 28t-76.5 9q-62 0 -107 -36.5t-68.5 -94.5t-23.5 -121q0 -54 24.5 -89z" />
    <glyph glyph-name="omacron" unicode="&#x14d;" horiz-adv-x="512" 
d="M177 544.5q-22 -1.5 -28 -1.5q-18 0 -24 6.5t-6 28.5q0 25 33.5 31.5t104.5 6.5q60 0 97.5 -3.5t37.5 -14.5q0 -31 -12.5 -40t-48.5 -9l-112 -3q-20 0 -42 -1.5zM462 280.5q5 -26.5 5 -47.5q0 -39 -17 -111q-69 -126 -204 -126q-50 0 -102 33t-72 76q-27 86 -27 109
q0 40 17.5 85t44.5 78q17 23 61 39.5t80 16.5q70 0 119 -26.5t82 -85.5q8 -14 13 -40.5zM367 227q0 29 -10.5 57t-30.5 48q-2 2 -11 6.5t-24.5 9t-35.5 4.5q-56 0 -82 -45t-26 -102q0 -10 5.5 -38t9.5 -35q3 -7 15.5 -19.5t31 -22t38.5 -9.5q45 0 72 21.5t43 57.5q5 13 5 67
z" />
    <glyph glyph-name="Obreve" unicode="&#x14e;" horiz-adv-x="725" 
d="M227.5 798q-2.5 8 -2.5 13q0 6 11 12.5t23 6.5t32 -18q15 -16 31 -26t42 -10q24 0 42 10t35 29q9 11 16.5 15t17.5 4q8 0 18.5 -6.5t10.5 -15.5q0 -11 -6 -23q-16 -35 -45 -60.5t-87 -25.5q-84 0 -133 82q-3 5 -5.5 13zM271.5 620.5q-42.5 -15.5 -81.5 -38.5
q-65 -42 -101.5 -117.5t-36.5 -177.5q0 -38 12.5 -78t35.5 -77q82 -132 275 -132q40 0 93 20t98.5 52t65.5 67q3 18 18 49q12 28 17.5 46t5.5 40q0 105 -25.5 172.5t-88.5 124.5q-35 32 -90 48.5t-122 16.5q-33 0 -75.5 -15.5zM179.5 405q23.5 58 68.5 94.5t107 36.5
q41 0 76.5 -9t58.5 -28q44 -35 61 -79t17 -120q0 -96 -60 -151t-161 -55q-19 0 -34 4.5t-57 20.5q-51 41 -75.5 76t-24.5 89q0 63 23.5 121z" />
    <glyph glyph-name="obreve" unicode="&#x14f;" horiz-adv-x="512" 
d="M118.5 638q-2.5 8 -2.5 13q0 6 11 12.5t23 6.5t32 -18q15 -16 31 -26t42 -10q24 0 42 10t35 29q9 11 16.5 15t17.5 4q8 0 18.5 -6.5t10.5 -15.5q0 -11 -6 -23q-16 -35 -45 -60.5t-87 -25.5q-84 0 -133 82q-3 5 -5.5 13zM367 406.5q-49 26.5 -119 26.5q-36 0 -80 -16.5
t-61 -39.5q-27 -33 -44.5 -78t-17.5 -85q0 -23 27 -109q20 -43 72 -76t102 -33q135 0 204 126q17 72 17 111q0 21 -5 47.5t-13 40.5q-33 59 -82 85.5zM319 102.5q-27 -21.5 -72 -21.5q-20 0 -38.5 9.5t-31 22t-15.5 19.5q-4 7 -9.5 35t-5.5 38q0 57 26 102t82 45
q20 0 35.5 -4.5t24.5 -9t11 -6.5q20 -20 30.5 -48t10.5 -57q0 -54 -5 -67q-16 -36 -43 -57.5z" />
    <glyph glyph-name="Ohungarumlaut" unicode="&#x150;" horiz-adv-x="725" 
d="M377.5 844q10.5 -5 10.5 -18q0 -14 -21.5 -39t-52.5 -56q-15 -15 -24 -20t-19 -5q-12 0 -19.5 3.5t-7.5 10.5q0 11 10 31q8 15 23 35l16 21q4 6 13.5 19.5t17.5 18t21 4.5q22 0 32.5 -5zM523.5 844q10.5 -5 10.5 -18q0 -22 -73 -95q-15 -15 -24.5 -20t-19.5 -5
q-11 0 -19 3.5t-8 10.5q0 11 10 31q5 9 12.5 19l10.5 14t7.5 9.5t9.5 13.5q4 6 13.5 19.5t17.5 18t20 4.5q22 0 32.5 -5zM469 619.5q55 -16.5 90 -48.5q63 -57 88.5 -124.5t25.5 -172.5q0 -22 -5.5 -40t-17.5 -46q-15 -31 -18 -49q-20 -35 -65.5 -67t-98.5 -52t-93 -20
q-193 0 -275 132q-23 37 -35.5 77t-12.5 78q0 102 36.5 177.5t101.5 117.5q39 23 81.5 38.5t75.5 15.5q67 0 122 -16.5zM180.5 195q24.5 -35 75.5 -76q42 -16 57 -20.5t34 -4.5q101 0 161 55t60 151q0 76 -17 120t-61 79q-23 19 -58.5 28t-76.5 9q-62 0 -107 -36.5
t-68.5 -94.5t-23.5 -121q0 -54 24.5 -89z" />
    <glyph glyph-name="ohungarumlaut" unicode="&#x151;" horiz-adv-x="518" 
d="M261.5 684q10.5 -5 10.5 -18q0 -14 -21.5 -39t-52.5 -56q-15 -15 -24 -20t-19 -5q-12 0 -19.5 3.5t-7.5 10.5q0 11 10 31q8 15 23 35l16 21q4 6 13.5 19.5t17.5 18t21 4.5q22 0 32.5 -5zM407.5 684q10.5 -5 10.5 -18q0 -22 -73 -95q-15 -15 -24.5 -20t-19.5 -5
q-11 0 -19 3.5t-8 10.5q0 11 10 31q5 9 12.5 19l10.5 14t7.5 9.5t9.5 13.5q4 6 13.5 19.5t17.5 18t20 4.5q22 0 32.5 -5zM462 280.5q5 -26.5 5 -47.5q0 -39 -17 -111q-69 -126 -204 -126q-50 0 -102 33t-72 76q-27 86 -27 109q0 40 17.5 85t44.5 78q17 23 61 39.5t80 16.5
q70 0 119 -26.5t82 -85.5q8 -14 13 -40.5zM367 227q0 29 -10.5 57t-30.5 48q-2 2 -11 6.5t-24.5 9t-35.5 4.5q-56 0 -82 -45t-26 -102q0 -10 5.5 -38t9.5 -35q3 -7 15.5 -19.5t31 -22t38.5 -9.5q45 0 72 21.5t43 57.5q5 13 5 67z" />
    <glyph glyph-name="OE" unicode="&#x152;" horiz-adv-x="868" 
d="M521 630.5q38 3.5 62 3.5q61 0 101 -2t86 -9q30 -5 45.5 -15t15.5 -29q0 -24 -12.5 -36.5t-34.5 -12.5l-28 2q-62 5 -113 5q-34 0 -114 -4q-19 -111 -19 -167q13 -2 46 -2t89 2l78 1q23 0 34.5 -8.5t11.5 -23.5q0 -24 -10 -35.5t-43 -18.5q-37 -6 -98 -6h-60q-33 0 -48 1
q-1 -33 2 -70q2 -32 2 -43q0 -26 20 -46t74 -20q41 0 67 3t64 9q35 8 64 8q15 0 24 -13t9 -29q0 -22 -6.5 -31t-25.5 -17q-40 -16 -86 -21.5t-117 -5.5q-59 0 -111 28q-22 -10 -61.5 -19t-66.5 -9q-82 0 -151 32.5t-111 99.5q-23 37 -35.5 77t-12.5 78q0 102 36.5 177.5
t101.5 117.5q37 22 80 36.5t77 14.5q44 0 100 -13q36 7 74 10.5zM421.5 141.5q-3.5 26.5 -7 65t-3.5 74.5q0 60 3.5 110.5t14.5 135.5q-25 9 -74 9q-63 0 -108.5 -34t-69 -91.5t-23.5 -126.5q0 -54 25 -88.5t77 -76.5q42 -16 57 -20.5t34 -4.5q51 0 79 14q-1 7 -4.5 33.5z
" />
    <glyph glyph-name="oe" unicode="&#x153;" horiz-adv-x="782" 
d="M142.5 31q-50.5 33 -70.5 76q-27 86 -27 107q0 40 17.5 84t44.5 77q17 24 59 40t79 16q56 0 98.5 -19.5t68.5 -56.5q20 34 69.5 57.5t87.5 23.5q37 0 78 -13t58 -36q23 -32 28 -54.5t5 -47.5q0 -26 -11 -44t-33 -41q-28 -30 -120 -30q-56 0 -115 14q7 -51 40 -74.5
t81 -23.5q36 0 63 15q19 10 39 10q19 0 29 -12t10 -31q0 -25 -27.5 -40.5t-63.5 -23t-59 -7.5q-44 0 -91.5 20.5t-74.5 58.5q-29 -35 -74 -56.5t-89 -21.5q-49 0 -99.5 33zM533 342q-19 -9 -34 -24q-16 -18 -23 -31.5t-9 -33.5q25 -8 97 -8q43 0 63.5 12.5t20.5 34.5
t-23.5 40.5t-51.5 18.5q-21 0 -40 -9zM359 227q0 29 -10.5 56t-30.5 47q-2 2 -10 6.5t-22.5 9t-34.5 4.5q-56 0 -80.5 -44t-24.5 -101q0 -9 6.5 -36t10.5 -35q3 -7 16.5 -19.5t31 -22.5t33.5 -10q34 0 65 23.5t45 56.5q5 13 5 65z" />
    <glyph glyph-name="Racute" unicode="&#x154;" horiz-adv-x="604" 
d="M387.5 844q12.5 -9 12.5 -23q0 -27 -25.5 -52.5t-53.5 -41.5q-15 -9 -38.5 -15t-35.5 -6q-21 0 -21 20q0 6 4 11t17 15q4 4 12.5 11.5t16.5 18t16 28.5q12 24 26.5 33.5t35.5 9.5t33.5 -9zM466.5 160.5q35.5 -45.5 93.5 -111.5q7 -7 7 -16q0 -14 -15.5 -24t-37.5 -10
q-31 0 -67 26q-32 23 -57 61t-58 99q-26 47 -31 55q-39 -16 -122 -20q0 -34 6 -92q6 -60 6 -87q0 -18 -17.5 -30t-39.5 -12q-26 0 -40 21q-14 28 -18 67t-4 93q0 57 7 129q6 80 6 118q0 31 -6 83q-1 9 -3 31t-2 40q0 14 10.5 24.5t22.5 14.5q81 13 158 13q131 0 217 -49
t86 -149q0 -31 -13.5 -59.5t-36.5 -47.5q-61 -47 -122 -63q35 -59 70.5 -104.5zM412 516.5q-51 30.5 -145 30.5q-42 0 -83 -10l1 -51q0 -44 -3 -86t-3 -90q17 4 36 5.5t25 2.5q44 4 68 10q45 14 74.5 25.5t55 33t25.5 51.5q0 48 -51 78.5z" />
    <glyph glyph-name="racute" unicode="&#x155;" horiz-adv-x="397" 
d="M313.5 684q12.5 -9 12.5 -23q0 -27 -25.5 -52.5t-53.5 -41.5q-15 -9 -38.5 -15t-35.5 -6q-21 0 -21 20q0 6 4 11t17 15q4 4 12.5 11.5t16.5 18t16 28.5q12 24 26.5 33.5t35.5 9.5t33.5 -9zM188 10q-13 -13 -32 -13q-30 0 -44 11.5t-14 42.5q0 37 -2 97q-2 50 -2 84
q0 16 2 42q2 24 2 36q-3 19 -15 31.5t-31 12.5q-9 0 -15 8.5t-6 17.5q0 23 18.5 35t44.5 12q54 0 75 -64q26 30 59.5 48.5t64.5 18.5q37 0 67.5 -20t30.5 -54q0 -19 -16.5 -39t-33.5 -20q-9 0 -15.5 4.5t-15.5 13.5q-10 10 -17 14.5t-16 4.5q-16 0 -30 -5t-19 -12
q-16 -25 -23.5 -45t-7.5 -43q0 -17 -1 -27l-1 -57q0 -13 1 -29t2 -24q3 -27 3 -52q0 -17 -13 -30z" />
    <glyph glyph-name="Rcommaaccent" unicode="&#x156;" horiz-adv-x="604" 
d="M466.5 160.5q35.5 -45.5 93.5 -111.5q7 -7 7 -16q0 -14 -15.5 -24t-37.5 -10q-31 0 -67 26q-32 23 -57 61t-58 99q-26 47 -31 55q-39 -16 -122 -20q0 -34 6 -92q6 -60 6 -87q0 -18 -17.5 -30t-39.5 -12q-26 0 -40 21q-14 28 -18 67t-4 93q0 57 7 129q6 80 6 118
q0 31 -6 83q-1 9 -3 31t-2 40q0 14 10.5 24.5t22.5 14.5q81 13 158 13q131 0 217 -49t86 -149q0 -31 -13.5 -59.5t-36.5 -47.5q-61 -47 -122 -63q35 -59 70.5 -104.5zM412 516.5q-51 30.5 -145 30.5q-42 0 -83 -10l1 -51q0 -44 -3 -86t-3 -90q17 4 36 5.5t25 2.5q44 4 68 10
q45 14 74.5 25.5t55 33t25.5 51.5q0 48 -51 78.5zM282.5 -148q-6.5 1 -10.5 3q-28 16 -28 49q0 13 6.5 24t17.5 15q9 5 22.5 8t25.5 3q22 0 34 -16t12 -41q0 -29 -14.5 -57t-33.5 -44q-37 -35 -55 -35q-20 0 -25 4t-5 19q0 8 16.5 20.5t21.5 16.5q14 12 24 30q-2 0 -8.5 1z
" />
    <glyph glyph-name="rcommaaccent" unicode="&#x157;" horiz-adv-x="397" 
d="M188 10q-13 -13 -32 -13q-30 0 -44 11.5t-14 42.5q0 37 -2 97q-2 50 -2 84q0 16 2 42q2 24 2 36q-3 19 -15 31.5t-31 12.5q-9 0 -15 8.5t-6 17.5q0 23 18.5 35t44.5 12q54 0 75 -64q26 30 59.5 48.5t64.5 18.5q37 0 67.5 -20t30.5 -54q0 -19 -16.5 -39t-33.5 -20
q-9 0 -15.5 4.5t-15.5 13.5q-10 10 -17 14.5t-16 4.5q-16 0 -30 -5t-19 -12q-16 -25 -23.5 -45t-7.5 -43q0 -17 -1 -27l-1 -57q0 -13 1 -29t2 -24q3 -27 3 -52q0 -17 -13 -30zM139.5 -148.5q-6.5 0.5 -10.5 3.5q-28 16 -28 49q0 13 6.5 24t17.5 15q9 5 22.5 8t25.5 3
q22 0 34 -16t12 -41q0 -29 -14.5 -57t-33.5 -44q-37 -35 -55 -35q-20 0 -25 4t-5 19q0 8 16.5 20.5t21.5 16.5q14 12 24 30q-2 0 -8.5 0.5z" />
    <glyph glyph-name="Rcaron" unicode="&#x158;" horiz-adv-x="604" 
d="M273.5 708.5q-12.5 6.5 -27.5 21.5q-17 15 -64 67q-10 11 -16 19t-6 13q0 8 13 17.5t26 9.5q23 0 39.5 -12.5t36.5 -37.5q4 -5 13 -15.5t18 -17.5q14 11 43 43q19 21 30.5 30.5t23.5 9.5q17 0 33.5 -9.5t16.5 -17.5q0 -13 -40 -51q-34 -33 -52 -56q-6 -8 -20 -14t-33 -6
q-22 0 -34.5 6.5zM466.5 160.5q35.5 -45.5 93.5 -111.5q7 -7 7 -16q0 -14 -15.5 -24t-37.5 -10q-31 0 -67 26q-32 23 -57 61t-58 99q-26 47 -31 55q-39 -16 -122 -20q0 -34 6 -92q6 -60 6 -87q0 -18 -17.5 -30t-39.5 -12q-26 0 -40 21q-14 28 -18 67t-4 93q0 57 7 129
q6 80 6 118q0 31 -6 83q-1 9 -3 31t-2 40q0 14 10.5 24.5t22.5 14.5q81 13 158 13q131 0 217 -49t86 -149q0 -31 -13.5 -59.5t-36.5 -47.5q-61 -47 -122 -63q35 -59 70.5 -104.5zM412 516.5q-51 30.5 -145 30.5q-42 0 -83 -10l1 -51q0 -44 -3 -86t-3 -90q17 4 36 5.5t25 2.5
q44 4 68 10q45 14 74.5 25.5t55 33t25.5 51.5q0 48 -51 78.5z" />
    <glyph glyph-name="rcaron" unicode="&#x159;" horiz-adv-x="397" 
d="M161.5 548.5q-12.5 6.5 -27.5 21.5q-17 16 -64 67q-10 11 -16 19t-6 13q0 8 13 17.5t26 9.5q23 0 39.5 -12.5t36.5 -37.5q4 -5 13 -15.5t18 -17.5q14 11 43 43q19 21 30.5 30.5t23.5 9.5q17 0 33.5 -9.5t16.5 -17.5q0 -13 -40 -51q-34 -33 -52 -56q-6 -8 -20 -14t-33 -6
q-22 0 -34.5 6.5zM188 10q-13 -13 -32 -13q-30 0 -44 11.5t-14 42.5q0 37 -2 97q-2 50 -2 84q0 16 2 42q2 24 2 36q-3 19 -15 31.5t-31 12.5q-9 0 -15 8.5t-6 17.5q0 23 18.5 35t44.5 12q54 0 75 -64q26 30 59.5 48.5t64.5 18.5q37 0 67.5 -20t30.5 -54q0 -19 -16.5 -39
t-33.5 -20q-9 0 -15.5 4.5t-15.5 13.5q-10 10 -17 14.5t-16 4.5q-16 0 -30 -5t-19 -12q-16 -25 -23.5 -45t-7.5 -43q0 -17 -1 -27l-1 -57q0 -13 1 -29t2 -24q3 -27 3 -52q0 -17 -13 -30z" />
    <glyph glyph-name="Sacute" unicode="&#x15a;" horiz-adv-x="564" 
d="M383.5 844q12.5 -9 12.5 -23q0 -27 -25.5 -52.5t-53.5 -41.5q-15 -9 -38.5 -15t-35.5 -6q-21 0 -21 20q0 6 4 11t17 15q4 4 12.5 11.5t16.5 18t16 28.5q12 24 26.5 33.5t35.5 9.5t33.5 -9zM499.5 100.5q-21.5 -33.5 -70.5 -61.5q-33 -20 -77 -30t-89 -10q-46 0 -114 30
q-49 24 -77.5 57t-28.5 72q0 27 12 39.5t39 12.5q14 0 29 -11.5t18 -22.5q14 -41 49 -62.5t87 -21.5q60 0 100.5 22t40.5 59q0 36 -44 64t-90 39q-66 18 -117 43q-53 26 -79 64t-26 80q0 39 27 79.5t64 58.5q20 10 68.5 21.5t70.5 11.5q29 0 64 -7t57 -20q44 -25 65 -45
t21 -50q0 -18 -13.5 -32t-46.5 -14q-8 0 -16 7t-20 21q-16 21 -31 28q-15 5 -43.5 11t-50.5 6q-24 0 -50 -10t-43.5 -28.5t-17.5 -42.5q0 -20 18.5 -34.5t44.5 -23.5q30 -12 65 -21q46 -14 75.5 -25.5t57.5 -28.5q49 -29 71 -59.5t22 -84.5q0 -47 -21.5 -80.5z" />
    <glyph glyph-name="sacute" unicode="&#x15b;" horiz-adv-x="445" 
d="M314.5 684q12.5 -9 12.5 -23q0 -27 -25.5 -52.5t-53.5 -41.5q-15 -9 -38.5 -15t-35.5 -6q-21 0 -21 20q0 6 4 11t17 15q4 4 12.5 11.5t16.5 18t16 28.5q12 24 26.5 33.5t35.5 9.5t33.5 -9zM364.5 206.5q23.5 -13.5 31.5 -31.5t8 -50q0 -36 -21 -63.5t-54 -42.5
q-24 -11 -58.5 -17t-54.5 -6t-51.5 6t-43.5 11q-31 18 -53.5 44t-22.5 53q0 20 13 31.5t34 11.5q10 0 21 -7.5t15 -15.5q11 -26 37 -39t53 -13q35 0 65 11.5t30 31.5q0 9 -4.5 14.5t-12.5 11.5q-14 10 -42 16.5t-36 8.5q-41 9 -80 27q-39 19 -62 45t-23 67q0 27 20 56.5
t45 41.5q18 7 60.5 15t57.5 8q23 0 50 -4.5t41 -14.5q27 -16 44 -33.5t17 -39.5q0 -11 -5 -23.5t-12 -15.5q-15 -7 -35 -7q-9 0 -14.5 5t-14.5 16q-11 17 -21 20q-12 3 -35 7.5t-31 4.5q-23 0 -47.5 -13t-24.5 -30q0 -9 7.5 -14t16 -9t11.5 -5q21 -10 46.5 -17t31.5 -9
q54 -13 72 -25q8 -5 31.5 -18.5z" />
    <glyph glyph-name="Scircumflex" unicode="&#x15c;" horiz-adv-x="564" 
d="M323 842q13 -7 23 -23q10 -15 30 -34t37 -31q22 -16 22 -32q0 -9 -9 -18t-21 -9q-34 0 -61.5 23t-54.5 61q-21 -30 -55 -57t-62 -27q-16 0 -23 8.5t-7 18.5q0 8 12.5 23.5t27.5 27.5q28 23 49 50q9 11 21 18.5t35 7.5t36 -7zM499.5 100.5q-21.5 -33.5 -70.5 -61.5
q-33 -20 -77 -30t-89 -10q-46 0 -114 30q-49 24 -77.5 57t-28.5 72q0 27 12 39.5t39 12.5q14 0 29 -11.5t18 -22.5q14 -41 49 -62.5t87 -21.5q60 0 100.5 22t40.5 59q0 36 -44 64t-90 39q-66 18 -117 43q-53 26 -79 64t-26 80q0 39 27 79.5t64 58.5q20 10 68.5 21.5
t70.5 11.5q29 0 64 -7t57 -20q44 -25 65 -45t21 -50q0 -18 -13.5 -32t-46.5 -14q-8 0 -16 7t-20 21q-16 21 -31 28q-15 5 -43.5 11t-50.5 6q-24 0 -50 -10t-43.5 -28.5t-17.5 -42.5q0 -20 18.5 -34.5t44.5 -23.5q30 -12 65 -21q46 -14 75.5 -25.5t57.5 -28.5
q49 -29 71 -59.5t22 -84.5q0 -47 -21.5 -80.5z" />
    <glyph glyph-name="scircumflex" unicode="&#x15d;" horiz-adv-x="445" 
d="M264 682q13 -7 23 -23q10 -15 30 -34t37 -31q22 -16 22 -32q0 -9 -9 -18t-21 -9q-34 0 -61.5 23t-54.5 61q-21 -30 -55 -57t-62 -27q-16 0 -23 8.5t-7 18.5q0 8 12.5 23.5t27.5 27.5q28 23 49 50q9 11 21 18.5t35 7.5t36 -7zM364.5 206.5q23.5 -13.5 31.5 -31.5t8 -50
q0 -36 -21 -63.5t-54 -42.5q-24 -11 -58.5 -17t-54.5 -6t-51.5 6t-43.5 11q-31 18 -53.5 44t-22.5 53q0 20 13 31.5t34 11.5q10 0 21 -7.5t15 -15.5q11 -26 37 -39t53 -13q35 0 65 11.5t30 31.5q0 9 -4.5 14.5t-12.5 11.5q-14 10 -42 16.5t-36 8.5q-41 9 -80 27
q-39 19 -62 45t-23 67q0 27 20 56.5t45 41.5q18 7 60.5 15t57.5 8q23 0 50 -4.5t41 -14.5q27 -16 44 -33.5t17 -39.5q0 -11 -5 -23.5t-12 -15.5q-15 -7 -35 -7q-9 0 -14.5 5t-14.5 16q-11 17 -21 20q-12 3 -35 7.5t-31 4.5q-23 0 -47.5 -13t-24.5 -30q0 -9 7.5 -14t16 -9
t11.5 -5q21 -10 46.5 -17t31.5 -9q54 -13 72 -25q8 -5 31.5 -18.5z" />
    <glyph glyph-name="Scedilla" unicode="&#x15e;" horiz-adv-x="564" 
d="M215.5 -56q6.5 9 17.5 21q12 15 32 34q-48 0 -116 30q-49 24 -77.5 57t-28.5 72q0 27 12 39.5t39 12.5q14 0 29 -11.5t18 -22.5q14 -41 49 -62.5t87 -21.5q60 0 100.5 22t40.5 59q0 36 -44 64t-90 39q-66 18 -117 43q-53 26 -79 64t-26 80q0 39 27 79.5t64 58.5
q20 10 68.5 21.5t70.5 11.5q29 0 64 -7t57 -20q44 -25 65 -45t21 -50q0 -18 -13.5 -32t-46.5 -14q-8 0 -16 7t-20 21q-16 21 -31 28q-15 5 -43.5 11t-50.5 6q-24 0 -50 -10t-43.5 -28.5t-17.5 -42.5q0 -20 18.5 -34.5t44.5 -23.5q30 -12 65 -21q46 -14 75.5 -25.5
t57.5 -28.5q49 -29 71 -59.5t22 -84.5q0 -47 -21.5 -80.5t-70.5 -61.5q-32 -21 -89 -33q-39 -51 -47 -64q41 -4 65.5 -23.5t24.5 -55.5q0 -33 -41 -65q-14 -10 -39.5 -16.5t-58.5 -6.5q-24 0 -42 12.5t-18 32.5q0 8 8 14t16 6q10 0 20 -6t18 -6q12 0 26.5 3t22.5 7
q7 4 12 12.5t5 18.5q0 20 -25.5 25t-54.5 5q-8 0 -15.5 9.5t-7.5 17.5q0 9 6.5 18z" />
    <glyph glyph-name="scedilla" unicode="&#x15f;" horiz-adv-x="445" 
d="M155 -57.5q6 8.5 19 22.5l28 32q-20 1 -45.5 6.5t-35.5 9.5q-31 18 -53.5 44t-22.5 53q0 20 13 31.5t34 11.5q10 0 21 -7.5t15 -15.5q11 -26 37 -39t53 -13q35 0 65 11.5t30 31.5q0 9 -4.5 14.5t-12.5 11.5q-14 10 -42 16.5t-36 8.5q-41 9 -80 27q-39 19 -62 45t-23 67
q0 27 20 56.5t45 41.5q18 7 60.5 15t57.5 8q23 0 50 -4.5t41 -14.5q27 -16 44 -33.5t17 -39.5q0 -11 -5 -23.5t-12 -15.5q-15 -7 -35 -7q-9 0 -14.5 5t-14.5 16q-11 17 -21 20q-12 3 -35 7.5t-31 4.5q-23 0 -47.5 -13t-24.5 -30q0 -9 7.5 -14t16 -9t11.5 -5q21 -10 46.5 -17
t31.5 -9q54 -13 72 -25q8 -5 31.5 -18.5t31.5 -31.5t8 -50q0 -36 -21 -63.5t-54 -42.5q-29 -13 -56 -17l-39 -60q41 -4 65.5 -23.5t24.5 -55.5q0 -33 -41 -65q-14 -10 -40 -16.5t-59 -6.5q-23 0 -41 12.5t-18 32.5q0 8 7.5 14t15.5 6q10 0 20 -6t18 -6q12 0 27 3t23 7
q7 4 12 12.5t5 18.5q0 30 -80 30q-9 0 -16.5 9.5t-7.5 17.5t6 16.5z" />
    <glyph glyph-name="Scaron" unicode="&#x160;" horiz-adv-x="564" 
d="M264.5 719.5q-12.5 6.5 -27.5 21.5q-17 16 -64 67q-10 11 -16 19t-6 13q0 8 13 17.5t26 9.5q23 0 39.5 -12.5t36.5 -37.5q4 -5 13 -15.5t18 -17.5q14 11 43 43q19 21 30.5 30.5t23.5 9.5q17 0 33.5 -9.5t16.5 -17.5q0 -13 -40 -51q-34 -33 -52 -56q-6 -8 -20 -14t-33 -6
q-22 0 -34.5 6.5zM499.5 100.5q-21.5 -33.5 -70.5 -61.5q-33 -20 -77 -30t-89 -10q-46 0 -114 30q-49 24 -77.5 57t-28.5 72q0 27 12 39.5t39 12.5q14 0 29 -11.5t18 -22.5q14 -41 49 -62.5t87 -21.5q60 0 100.5 22t40.5 59q0 36 -44 64t-90 39q-66 18 -117 43
q-53 26 -79 64t-26 80q0 39 27 79.5t64 58.5q20 10 68.5 21.5t70.5 11.5q29 0 64 -7t57 -20q44 -25 65 -45t21 -50q0 -18 -13.5 -32t-46.5 -14q-8 0 -16 7t-20 21q-16 21 -31 28q-15 5 -43.5 11t-50.5 6q-24 0 -50 -10t-43.5 -28.5t-17.5 -42.5q0 -20 18.5 -34.5t44.5 -23.5
q30 -12 65 -21q46 -14 75.5 -25.5t57.5 -28.5q49 -29 71 -59.5t22 -84.5q0 -47 -21.5 -80.5z" />
    <glyph glyph-name="scaron" unicode="&#x161;" horiz-adv-x="445" 
d="M194.5 548.5q-12.5 6.5 -27.5 21.5q-17 16 -64 67q-10 11 -16 19t-6 13q0 8 13 17.5t26 9.5q23 0 39.5 -12.5t36.5 -37.5q4 -5 13 -15.5t18 -17.5q14 11 43 43q19 21 30.5 30.5t23.5 9.5q17 0 33.5 -9.5t16.5 -17.5q0 -13 -40 -51q-34 -33 -52 -56q-6 -8 -20 -14t-33 -6
q-22 0 -34.5 6.5zM364.5 206.5q23.5 -13.5 31.5 -31.5t8 -50q0 -36 -21 -63.5t-54 -42.5q-24 -11 -58.5 -17t-54.5 -6t-51.5 6t-43.5 11q-31 18 -53.5 44t-22.5 53q0 20 13 31.5t34 11.5q10 0 21 -7.5t15 -15.5q11 -26 37 -39t53 -13q35 0 65 11.5t30 31.5q0 9 -4.5 14.5
t-12.5 11.5q-14 10 -42 16.5t-36 8.5q-41 9 -80 27q-39 19 -62 45t-23 67q0 27 20 56.5t45 41.5q18 7 60.5 15t57.5 8q23 0 50 -4.5t41 -14.5q27 -16 44 -33.5t17 -39.5q0 -11 -5 -23.5t-12 -15.5q-15 -7 -35 -7q-9 0 -14.5 5t-14.5 16q-11 17 -21 20q-12 3 -35 7.5t-31 4.5
q-23 0 -47.5 -13t-24.5 -30q0 -9 7.5 -14t16 -9t11.5 -5q21 -10 46.5 -17t31.5 -9q54 -13 72 -25q8 -5 31.5 -18.5z" />
    <glyph glyph-name="uni0162" unicode="&#x162;" horiz-adv-x="561" 
d="M206.5 -56q6.5 9 17.5 21q25 30 38 39q-18 6 -25 23t-7 44q0 71 -4 177q-4 88 -4 125q0 25 6 153l-117 -1q-56 0 -78 10.5t-22 47.5q0 43 63 43q27 0 103 -2q84 -4 127 -4q35 0 85 4q34 2 43 2q55 -2 93 -20q11 -5 18 -12t7 -23q0 -22 -14 -37.5t-34 -15.5q-22 0 -64 6
q-37 7 -65 7q-27 0 -41 -1q-3 -33 -3 -158q0 -149 9 -302l2 -29q0 -14 -2.5 -22t-8.5 -16l-18 -24l-27 -37q41 -4 65.5 -23.5t24.5 -55.5q0 -33 -41 -65q-14 -10 -39.5 -16.5t-58.5 -6.5q-24 0 -42 12.5t-18 32.5q0 8 8 14t16 6q10 0 20 -6t18 -6q12 0 26.5 3t22.5 7
q7 4 12 12.5t5 18.5q0 20 -25.5 25t-54.5 5q-8 0 -15.5 9.5t-7.5 17.5q0 9 6.5 18z" />
    <glyph glyph-name="uni0163" unicode="&#x163;" horiz-adv-x="376" 
d="M300.5 -81.5q24.5 -19.5 24.5 -55.5q0 -32 -42 -65q-14 -10 -39.5 -16.5t-58.5 -6.5q-23 0 -41 12.5t-18 32.5q0 8 7.5 14t15.5 6q10 0 20 -6t18 -6q12 0 27 3t23 7q7 4 12 12.5t5 18.5q0 30 -80 30q-9 0 -16.5 9.5t-7.5 17.5t6 16.5t19 22.5q10 13 36 36q-35 11 -54 24
t-29.5 32t-20.5 54q-10 47 -10 132q0 37 4 99l-48 4q-14 2 -22.5 12t-8.5 24q0 7 3.5 15t10.5 14q13 13 70 13q8 39 8 79q0 15 -1 26t-1 17q0 22 16.5 33t37.5 11q26 0 35.5 -13t9.5 -48q0 -52 -9 -102q16 0 44 2q38 2 55 2t29.5 -8.5t12.5 -23.5q0 -39 -35 -46
q-37 -9 -115 -11q-3 -39 -3 -85q0 -72 9 -118q6 -32 20.5 -46.5t43.5 -14.5q17 0 35 9q12 7 22 7q14 0 20.5 -9t6.5 -24q0 -13 -10 -23.5t-34 -28.5t-40 -32.5t-28 -34.5q41 -4 65.5 -23.5z" />
    <glyph glyph-name="Tcaron" unicode="&#x164;" horiz-adv-x="561" 
d="M246.5 708.5q-12.5 6.5 -27.5 21.5q-17 16 -64 67q-10 11 -16 19t-6 13q0 8 13 17.5t26 9.5q23 0 39.5 -12.5t36.5 -37.5q4 -5 13 -15.5t18 -17.5q14 11 43 43q19 21 30.5 30.5t23.5 9.5q17 0 33.5 -9.5t16.5 -17.5q0 -13 -40 -51q-34 -33 -52 -56q-6 -8 -20 -14t-33 -6
q-22 0 -34.5 6.5zM74 626q27 0 103 -2q84 -4 127 -4q35 0 85 4q34 2 43 2q55 -2 93 -20q11 -5 18 -12t7 -23q0 -22 -14 -37.5t-34 -15.5q-22 0 -64 6q-37 7 -65 7q-27 0 -41 -1q-3 -33 -3 -158q0 -149 9 -302l2 -29q0 -41 -47 -41q-37 0 -50 17.5t-13 53.5q0 71 -4 177
q-4 88 -4 125q0 25 6 153l-117 -1q-56 0 -78 10.5t-22 47.5q0 43 63 43z" />
    <glyph glyph-name="tcaron" unicode="&#x165;" horiz-adv-x="380" 
d="M294.5 612q-6.5 1 -10.5 3q-28 16 -28 49q0 14 6.5 24.5t17.5 14.5q9 5 22.5 8t25.5 3q22 0 34 -16t12 -41q0 -29 -14.5 -57t-33.5 -44q-37 -35 -55 -35q-20 0 -25 4t-5 19q0 8 16.5 20.5t21.5 16.5q14 12 24 30q-2 0 -8.5 1zM53 346q-14 2 -22.5 12t-8.5 24q0 7 3.5 15
t10.5 14q13 13 70 13q8 39 8 79q0 15 -1 26t-1 17q0 22 16.5 33t37.5 11q26 0 35.5 -13t9.5 -48q0 -52 -9 -102q16 0 44 2q38 2 55 2t29.5 -8.5t12.5 -23.5q0 -39 -35 -46q-37 -9 -115 -11q-3 -39 -3 -85q0 -72 9 -118q6 -32 20.5 -46.5t43.5 -14.5q17 0 35 9q12 7 22 7
q14 0 20.5 -9t6.5 -24q0 -28 -30 -46.5t-77 -18.5q-29 0 -58.5 14t-49.5 35q-3 3 -11 23t-14 43q-10 47 -10 132q0 37 4 99z" />
    <glyph glyph-name="Tbar" unicode="&#x166;" horiz-adv-x="561" 
d="M74 626q27 0 103 -2q84 -4 127 -4q35 0 85 4q34 2 43 2q55 -2 93 -20q11 -5 18 -12t7 -23q0 -22 -14 -37.5t-34 -15.5q-22 0 -64 6q-37 7 -65 7q-27 0 -41 -1q-3 -33 -3 -158v-21q86 4 99 4q23 0 38 -13t15 -38q0 -16 -15 -25t-48 -13q-20 -2 -88 -2q2 -72 8 -193l2 -30
q0 -41 -47 -41q-37 0 -50 17.5t-13 53.5q0 71 -4 177l-1 15h-77q-32 0 -51 11t-19 43q0 37 53 37l64 -3l27 -2v24q0 25 6 153l-117 -1q-56 0 -78 10.5t-22 47.5q0 43 63 43z" />
    <glyph glyph-name="tbar" unicode="&#x167;" horiz-adv-x="376" 
d="M323 258.5q12 -5.5 12 -25.5q0 -17 -13.5 -31t-38.5 -14l-34 -1l-56 -3q0 -19 6 -45q6 -32 20.5 -46.5t43.5 -14.5q17 0 35 9q12 7 22 7q14 0 20.5 -9t6.5 -24q0 -28 -30 -46.5t-77 -18.5q-29 0 -58.5 14t-49.5 35q-3 3 -11 23t-14 43q-5 22 -9 70q-38 0 -57 9t-19 38
q0 14 18 21t57 8q0 33 4 85l-48 4q-14 2 -22.5 12t-8.5 24q0 7 3.5 15t10.5 14q13 13 70 13q8 39 8 79q0 15 -1 26t-1 17q0 22 16.5 33t37.5 11q26 0 35.5 -13t9.5 -48q0 -52 -9 -102q16 0 44 2q38 2 55 2t29.5 -8.5t12.5 -23.5q0 -39 -35 -46q-37 -9 -115 -11
q-3 -38 -3 -83l45 3l53 2q23 0 35 -5.5z" />
    <glyph glyph-name="Utilde" unicode="&#x168;" horiz-adv-x="663" 
d="M191 779q18 20 45 31.5t52 11.5q38 0 73 -24q28 -20 46 -19q10 0 16 5t9.5 11t4.5 8q6 9 13 13.5t18 4.5q13 0 23.5 -7.5t10.5 -22.5q0 -20 -14.5 -39.5t-37 -32t-45.5 -12.5q-26 0 -42 7t-35 21q-12 9 -19.5 13t-16.5 4q-30 0 -46 -24q-16 -23 -41 -23q-10 0 -21 8
t-11 21q0 25 18 45zM114 633q-18 0 -33.5 -14t-15.5 -30q0 -121 3.5 -193t16.5 -138q23 -115 86 -187.5t175 -72.5q73 0 131 43.5t90.5 111t32.5 135.5q0 31 -1 55t-2 41q-4 68 -4 106q0 12 2 42q3 27 3 57q0 15 -13 28t-23 13q-28 0 -54 -6.5t-26 -28.5q0 -42 6 -126
q7 -75 7 -130q0 -91 -30 -153q-18 -38 -51 -63.5t-75 -25.5q-54 0 -91 43q-40 49 -60 139q-14 64 -14 159l1 65q2 48 2 77q0 53 -63 53z" />
    <glyph glyph-name="utilde" unicode="&#x169;" horiz-adv-x="553" 
d="M116 619q18 20 45 31.5t52 11.5q38 0 73 -24q28 -20 46 -19q10 0 16 5t9.5 11t4.5 8q6 9 13 13.5t18 4.5q13 0 23.5 -7.5t10.5 -22.5q0 -20 -14.5 -39.5t-37 -32t-45.5 -12.5q-26 0 -42 7t-35 21q-12 9 -19.5 13t-16.5 4q-30 0 -46 -24q-16 -23 -41 -23q-10 0 -21 8
t-11 21q0 25 18 45zM49.5 338.5q7.5 1.5 13.5 1.5q8 0 14.5 -6t6.5 -15q0 -30 -3 -66q-4 -56 -4 -93q0 -28 4.5 -42t5.5 -16q14 -42 54 -74t79 -32q29 0 58 6.5t49 20.5q29 24 63 63q13 -40 40 -65t64 -25q13 0 24.5 10.5t11.5 22.5q0 8 -6 16.5t-26 30.5q-8 11 -17 27.5
t-14 32.5q-7 25 -8 50q-2 17 -2 53l-1 53q0 40 7 61q3 11 3 23q0 23 -6 33q-5 10 -20.5 17.5t-27.5 7.5q-21 0 -33 -14.5t-12 -36.5q0 -34 -5 -82q-2 -15 -4 -47q-3 -49 -9.5 -77t-27.5 -50t-39 -32t-47 -10q-12 0 -27 8t-22 22q-19 43 -19 113q0 23 4 65q4 36 4 47
q0 38 -24 58.5t-62 20.5q-14 0 -32 -7t-24 -10q-20 -20 -20 -43q0 -9 6.5 -15.5t14.5 -6.5t15.5 1.5z" />
    <glyph glyph-name="Umacron" unicode="&#x16a;" horiz-adv-x="663" 
d="M256 704.5q-22 -1.5 -28 -1.5q-18 0 -24 6.5t-6 28.5q0 25 33.5 31.5t104.5 6.5q60 0 97.5 -3.5t37.5 -14.5q0 -31 -12.5 -40t-48.5 -9l-112 -3q-20 0 -42 -1.5zM175 503l-1 -65q0 -95 14 -159q20 -90 60 -139q37 -43 91 -43q42 0 75 25.5t51 63.5q30 62 30 153
q0 55 -7 130q-6 84 -6 126q0 22 26 28.5t54 6.5q10 0 23 -13t13 -28q0 -30 -3 -57q-2 -30 -2 -42q0 -38 4 -106q1 -17 2 -41t1 -55q0 -68 -32.5 -135.5t-90.5 -111t-131 -43.5q-112 0 -175 72.5t-86 187.5q-13 66 -16.5 138t-3.5 193q0 16 15.5 30t33.5 14q63 0 63 -53
q0 -29 -2 -77z" />
    <glyph glyph-name="umacron" unicode="&#x16b;" horiz-adv-x="553" 
d="M190 544.5q-22 -1.5 -28 -1.5q-18 0 -24 6.5t-6 28.5q0 25 33.5 31.5t104.5 6.5q60 0 97.5 -3.5t37.5 -14.5q0 -31 -12.5 -40t-48.5 -9l-112 -3q-20 0 -42 -1.5zM19.5 343.5q-6.5 6.5 -6.5 15.5q0 23 20 43q6 3 24 10t32 7q38 0 62 -20.5t24 -58.5q0 -11 -4 -47
q-4 -42 -4 -65q0 -70 19 -113q7 -14 22 -22t27 -8q29 0 47 10t39 32t27.5 50t9.5 77q2 32 4 47q5 48 5 82q0 22 12 36.5t33 14.5q12 0 27.5 -7.5t20.5 -17.5q6 -10 6 -33q0 -12 -3 -23q-7 -25 -7 -60l1 -52q0 -71 10 -105q5 -16 14 -32.5t17 -27.5q20 -22 26 -30.5t6 -16.5
q0 -12 -11.5 -22.5t-24.5 -10.5q-37 0 -64 25t-40 65q-34 -39 -63 -63q-20 -14 -49 -20.5t-58 -6.5q-39 0 -79 32t-54 74q-1 2 -5.5 16t-4.5 42q0 37 4 93q3 36 3 66q0 9 -6.5 15t-14.5 6q-6 0 -13.5 -1.5t-15.5 -1.5t-14.5 6.5z" />
    <glyph glyph-name="Ubreve" unicode="&#x16c;" horiz-adv-x="663" 
d="M190.5 798q-2.5 8 -2.5 13q0 6 11 12.5t23 6.5t32 -18q15 -16 31 -26t42 -10q24 0 42 10t35 29q9 11 16.5 15t17.5 4q8 0 18.5 -6.5t10.5 -15.5q0 -11 -6 -23q-16 -35 -45 -60.5t-87 -25.5q-84 0 -133 82q-3 5 -5.5 13zM114 633q-18 0 -33.5 -14t-15.5 -30
q0 -121 3.5 -193t16.5 -138q23 -115 86 -187.5t175 -72.5q73 0 131 43.5t90.5 111t32.5 135.5q0 31 -1 55t-2 41q-4 68 -4 106q0 12 2 42q3 27 3 57q0 15 -13 28t-23 13q-28 0 -54 -6.5t-26 -28.5q0 -42 6 -126q7 -75 7 -130q0 -91 -30 -153q-18 -38 -51 -63.5t-75 -25.5
q-54 0 -91 43q-40 49 -60 139q-14 64 -14 159l1 65q2 48 2 77q0 53 -63 53z" />
    <glyph glyph-name="ubreve" unicode="&#x16d;" horiz-adv-x="553" 
d="M125.5 638q-2.5 8 -2.5 13q0 6 11 12.5t23 6.5t32 -18q15 -16 31 -26t42 -10q24 0 42 10t35 29q9 11 16.5 15t17.5 4q8 0 18.5 -6.5t10.5 -15.5q0 -11 -6 -23q-16 -35 -45 -60.5t-87 -25.5q-84 0 -133 82q-3 5 -5.5 13zM49.5 338.5q7.5 1.5 13.5 1.5q8 0 14.5 -6t6.5 -15
q0 -30 -3 -66q-4 -56 -4 -93q0 -28 4.5 -42t5.5 -16q14 -42 54 -74t79 -32q29 0 58 6.5t49 20.5q29 24 63 63q13 -40 40 -65t64 -25q13 0 24.5 10.5t11.5 22.5q0 8 -6 16.5t-26 30.5q-8 11 -17 27.5t-14 32.5q-7 25 -8 50q-2 17 -2 53l-1 53q0 40 7 61q3 11 3 23q0 23 -6 33
q-5 10 -20.5 17.5t-27.5 7.5q-21 0 -33 -14.5t-12 -36.5q0 -34 -5 -82q-2 -15 -4 -47q-3 -49 -9.5 -77t-27.5 -50t-39 -32t-47 -10q-12 0 -27 8t-22 22q-19 43 -19 113q0 23 4 65q4 36 4 47q0 38 -24 58.5t-62 20.5q-14 0 -32 -7t-24 -10q-20 -20 -20 -43q0 -9 6.5 -15.5
t14.5 -6.5t15.5 1.5z" />
    <glyph glyph-name="Uring" unicode="&#x16e;" horiz-adv-x="663" 
d="M299.5 715.5q-22.5 4.5 -33.5 15.5q-36 36 -36 72q0 20 13 39.5t35 32.5t49 13q52 0 80 -23.5t28 -68.5q0 -18 -14.5 -38t-35.5 -33.5t-39 -13.5q-24 0 -46.5 4.5zM303.5 826.5q-12.5 -9.5 -12.5 -25.5q0 -17 10.5 -28t27.5 -11q20 0 32.5 9t12.5 26q0 18 -12 28.5
t-33 10.5q-13 0 -25.5 -9.5zM114 633q-18 0 -33.5 -14t-15.5 -30q0 -121 3.5 -193t16.5 -138q23 -115 86 -187.5t175 -72.5q73 0 131 43.5t90.5 111t32.5 135.5q0 31 -1 55t-2 41q-4 68 -4 106q0 12 2 42q3 27 3 57q0 15 -13 28t-23 13q-28 0 -54 -6.5t-26 -28.5
q0 -42 6 -126q7 -75 7 -130q0 -91 -30 -153q-18 -38 -51 -63.5t-75 -25.5q-54 0 -91 43q-40 49 -60 139q-14 64 -14 159l1 65q2 48 2 77q0 53 -63 53z" />
    <glyph glyph-name="uring" unicode="&#x16f;" horiz-adv-x="553" 
d="M234.5 555.5q-22.5 4.5 -33.5 15.5q-36 36 -36 72q0 20 13 39.5t35 32.5t49 13q52 0 80 -23.5t28 -68.5q0 -18 -14.5 -38t-35.5 -33.5t-39 -13.5q-24 0 -46.5 4.5zM238.5 666.5q-12.5 -9.5 -12.5 -25.5q0 -17 10.5 -28t27.5 -11q20 0 32.5 9t12.5 26q0 18 -12 28.5
t-33 10.5q-13 0 -25.5 -9.5zM49.5 338.5q7.5 1.5 13.5 1.5q8 0 14.5 -6t6.5 -15q0 -30 -3 -66q-4 -56 -4 -93q0 -28 4.5 -42t5.5 -16q14 -42 54 -74t79 -32q29 0 58 6.5t49 20.5q29 24 63 63q13 -40 40 -65t64 -25q13 0 24.5 10.5t11.5 22.5q0 8 -6 16.5t-26 30.5
q-8 11 -17 27.5t-14 32.5q-7 25 -8 50q-2 17 -2 53l-1 53q0 40 7 61q3 11 3 23q0 23 -6 33q-5 10 -20.5 17.5t-27.5 7.5q-21 0 -33 -14.5t-12 -36.5q0 -34 -5 -82q-2 -15 -4 -47q-3 -49 -9.5 -77t-27.5 -50t-39 -32t-47 -10q-12 0 -27 8t-22 22q-19 43 -19 113q0 23 4 65
q4 36 4 47q0 38 -24 58.5t-62 20.5q-14 0 -32 -7t-24 -10q-20 -20 -20 -43q0 -9 6.5 -15.5t14.5 -6.5t15.5 1.5z" />
    <glyph glyph-name="Uhungarumlaut" unicode="&#x170;" horiz-adv-x="663" 
d="M335.5 844q10.5 -5 10.5 -18q0 -14 -21.5 -39t-52.5 -56q-15 -15 -24 -20t-19 -5q-12 0 -19.5 3.5t-7.5 10.5q0 11 10 31q8 15 23 35l16 21q4 6 13.5 19.5t17.5 18t21 4.5q22 0 32.5 -5zM481.5 844q10.5 -5 10.5 -18q0 -22 -73 -95q-15 -15 -24.5 -20t-19.5 -5
q-11 0 -19 3.5t-8 10.5q0 11 10 31q5 9 12.5 19l10.5 14t7.5 9.5t9.5 13.5q4 6 13.5 19.5t17.5 18t20 4.5q22 0 32.5 -5zM175 503l-1 -65q0 -95 14 -159q20 -90 60 -139q37 -43 91 -43q42 0 75 25.5t51 63.5q30 62 30 153q0 55 -7 130q-6 84 -6 126q0 22 26 28.5t54 6.5
q10 0 23 -13t13 -28q0 -30 -3 -57q-2 -30 -2 -42q0 -38 4 -106q1 -17 2 -41t1 -55q0 -68 -32.5 -135.5t-90.5 -111t-131 -43.5q-112 0 -175 72.5t-86 187.5q-13 66 -16.5 138t-3.5 193q0 16 15.5 30t33.5 14q63 0 63 -53q0 -29 -2 -77z" />
    <glyph glyph-name="uhungarumlaut" unicode="&#x171;" horiz-adv-x="553" 
d="M276.5 684q10.5 -5 10.5 -18q0 -14 -21.5 -39t-52.5 -56q-15 -15 -24 -20t-19 -5q-12 0 -19.5 3.5t-7.5 10.5q0 11 10 31q8 15 23 35l16 21q4 6 13.5 19.5t17.5 18t21 4.5q22 0 32.5 -5zM422.5 684q10.5 -5 10.5 -18q0 -22 -73 -95q-15 -15 -24.5 -20t-19.5 -5
q-11 0 -19 3.5t-8 10.5q0 11 10 31q5 9 12.5 19l10.5 14t7.5 9.5t9.5 13.5q4 6 13.5 19.5t17.5 18t20 4.5q22 0 32.5 -5zM19.5 343.5q-6.5 6.5 -6.5 15.5q0 23 20 43q6 3 24 10t32 7q38 0 62 -20.5t24 -58.5q0 -11 -4 -47q-4 -42 -4 -65q0 -70 19 -113q7 -14 22 -22t27 -8
q29 0 47 10t39 32t27.5 50t9.5 77q2 32 4 47q5 48 5 82q0 22 12 36.5t33 14.5q12 0 27.5 -7.5t20.5 -17.5q6 -10 6 -33q0 -12 -3 -23q-7 -25 -7 -60l1 -52q0 -71 10 -105q5 -16 14 -32.5t17 -27.5q20 -22 26 -30.5t6 -16.5q0 -12 -11.5 -22.5t-24.5 -10.5q-37 0 -64 25
t-40 65q-34 -39 -63 -63q-20 -14 -49 -20.5t-58 -6.5q-39 0 -79 32t-54 74q-1 2 -5.5 16t-4.5 42q0 37 4 93q3 36 3 66q0 9 -6.5 15t-14.5 6q-6 0 -13.5 -1.5t-15.5 -1.5t-14.5 6.5z" />
    <glyph glyph-name="Uogonek" unicode="&#x172;" horiz-adv-x="663" 
d="M175 503l-1 -65q0 -95 14 -159q20 -90 60 -139q37 -43 91 -43q42 0 75 25.5t51 63.5q30 62 30 153q0 55 -7 130q-6 84 -6 126q0 22 26 28.5t54 6.5q10 0 23 -13t13 -28q0 -30 -3 -57q-2 -30 -2 -42q0 -38 4 -106q1 -17 2 -41t1 -55q0 -60 -25 -120.5t-71 -105t-105 -58.5
q-34 -34 -57 -65t-23 -59q0 -26 36 -26q12 0 23 4t15 4q11 0 16 -6.5t5 -22.5q0 -20 -20.5 -32.5t-51.5 -12.5q-41 0 -67 20.5t-26 56.5q0 83 67 135q-98 10 -154 80.5t-77 177.5q-13 66 -16.5 138t-3.5 193q0 16 15.5 30t33.5 14q63 0 63 -53q0 -29 -2 -77z" />
    <glyph glyph-name="uogonek" unicode="&#x173;" horiz-adv-x="553" 
d="M19.5 343.5q-6.5 6.5 -6.5 15.5q0 23 20 43q6 3 24 10t32 7q38 0 62 -20.5t24 -58.5q0 -11 -4 -47q-4 -42 -4 -65q0 -70 19 -113q7 -14 22 -22t27 -8q29 0 47 10t39 32t27.5 50t9.5 77q2 32 4 47q5 48 5 82q0 22 12 36.5t33 14.5q12 0 27.5 -7.5t20.5 -17.5q6 -10 6 -33
q0 -12 -3 -23q-7 -25 -7 -60l1 -52q0 -71 10 -105q5 -16 14 -32.5t17 -27.5q20 -22 26 -30.5t6 -16.5q0 -7 -3.5 -15t-9.5 -11q-36 -25 -64.5 -57t-28.5 -62q0 -15 10 -22.5t25 -7.5q13 0 24 4t15 4q11 0 15.5 -6.5t4.5 -22.5q0 -20 -20 -32.5t-52 -12.5q-41 0 -66.5 20.5
t-25.5 56.5q0 47 23 86.5t62 61.5q-33 26 -49 73q-34 -39 -63 -63q-20 -14 -49 -20.5t-58 -6.5q-39 0 -79 32t-54 74q-1 2 -5.5 16t-4.5 42q0 37 4 93q3 36 3 66q0 9 -6.5 15t-14.5 6q-6 0 -13.5 -1.5t-15.5 -1.5t-14.5 6.5z" />
    <glyph glyph-name="Wcircumflex" unicode="&#x174;" horiz-adv-x="855" 
d="M470 842q13 -7 23 -23q10 -15 30 -34t37 -31q22 -16 22 -32q0 -9 -9 -18t-21 -9q-34 0 -61.5 23t-54.5 61q-21 -30 -55 -57t-62 -27q-16 0 -23 8.5t-7 18.5q0 8 12.5 23.5t27.5 27.5q28 23 49 50q9 11 21 18.5t35 7.5t36 -7zM742 612.5q12 13.5 26 13.5q34 0 49 -13
t15 -45q0 -9 -14 -51q-31 -95 -68 -235q-9 -32 -14.5 -56t-9.5 -40q-24 -103 -42 -155q-6 -15 -21 -23.5t-32 -8.5t-33.5 7.5t-23.5 17.5q-31 61 -76.5 166.5t-70.5 184.5q-62 -157 -111 -303l-6.5 -19.5t-7.5 -21.5q-7 -15 -20 -23.5t-29 -8.5q-18 0 -35 7.5t-23 17.5
q-13 22 -27.5 68t-38.5 129l-25 85q-26 83 -45 170t-19 104q0 21 21 33.5t42 12.5q12 0 25 -7.5t17 -25.5q35 -187 103 -434q26 62 57.5 151t60.5 173l10 30q4 15 20.5 23.5t33.5 8.5q22 0 36 -11t18 -24q1 -4 40 -119t93 -232q20 59 48 189l15 66q27 106 44 164
q6 21 18 34.5z" />
    <glyph glyph-name="wcircumflex" unicode="&#x175;" horiz-adv-x="681" 
d="M380 682q13 -7 23 -23q10 -15 30 -34t37 -31q22 -16 22 -32q0 -9 -9 -18t-21 -9q-34 0 -61.5 23t-54.5 61q-21 -30 -55 -57t-62 -27q-16 0 -23 8.5t-7 18.5q0 8 12.5 23.5t27.5 27.5q28 23 49 50q9 11 21 18.5t35 7.5t36 -7zM528 298q10 45 16 68t16 39q11 18 19.5 24
t18.5 6q52 0 52 -40q0 -20 -16 -75q-53 -160 -76 -248q-10 -37 -30 -56.5t-54 -19.5q-17 0 -34.5 16.5t-28.5 40.5l-11 27q-28 71 -41.5 109.5t-17.5 69.5l-9 -32q-24 -86 -50 -160q-13 -38 -32 -54.5t-49 -16.5q-18 0 -31.5 8t-25.5 27q-16 26 -30.5 70t-41.5 137
q-13 40 -24 84.5t-11 62.5q0 21 11 33t32 12q27 0 38 -10.5t20 -31.5q5 -36 22 -102l22 -94q2 -11 12 -46l8 -29q22 47 37 90t33 106q1 4 20 69q13 21 23 31.5t20 10.5q20 0 34.5 -12.5t21.5 -30.5q12 -39 21 -71q4 -13 18.5 -62.5t26.5 -83.5t20 -48l38 122q6 22 13 60z
" />
    <glyph glyph-name="Ycircumflex" unicode="&#x176;" horiz-adv-x="569" 
d="M326 842q13 -7 23 -23q10 -15 30 -34t37 -31q22 -16 22 -32q0 -9 -9 -18t-21 -9q-34 0 -61.5 23t-54.5 61q-21 -30 -55 -57t-62 -27q-16 0 -23 8.5t-7 18.5q0 8 12.5 23.5t27.5 27.5q28 23 49 50q9 11 21 18.5t35 7.5t36 -7zM529 534q-37 -42 -193 -258q2 -129 8 -177
q3 -30 3 -43q0 -33 -11.5 -44.5t-39.5 -11.5q-21 0 -39.5 12.5t-18.5 30.5q0 73 -3 214q0 6 -8 20t-10 18q-21 37 -52.5 82.5t-54.5 68.5q-44 44 -69 79.5t-25 50.5q0 21 19.5 33.5t42.5 12.5q13 0 27.5 -7t23.5 -20q59 -88 105 -146l47 -61q43 44 75.5 87.5t71.5 103.5
l17 26q19 26 59 26q19 0 37.5 -11t18.5 -33q0 -18 -31 -53z" />
    </font>
</defs>
</svg>
