<?xml version="1.0" standalone="no"?>
<!DOCTYPE svg PUBLIC "-//W3C//DTD SVG 1.1//EN" "http://www.w3.org/Graphics/SVG/1.1/DTD/svg11.dtd" >
<svg xmlns="http://www.w3.org/2000/svg" xmlns:xlink="http://www.w3.org/1999/xlink" version="1.1">
<metadata>
Created by FontForge 20190801 at Mon Feb  8 12:15:50 2021
 By root
Copyright (c) 2010 by Typemade. All rights reserved.
</metadata>
<defs>
<font id="JosefinSlab-Regular" horiz-adv-x="300" >
  <font-face 
    font-family="Josefin Slab"
    font-weight="400"
    font-stretch="normal"
    units-per-em="1000"
    panose-1="2 0 0 0 0 0 0 0 0 0"
    ascent="750"
    descent="-250"
    x-height="375"
    cap-height="700"
    bbox="-213 -250 1314 1046"
    underline-thickness="50"
    underline-position="-100"
    unicode-range="U+0001-206F"
  />
<missing-glyph horiz-adv-x="364" 
d="M33 0v666h265v-666h-265zM66 33h199v600h-199v-600z" />
    <glyph glyph-name=".notdef" horiz-adv-x="364" 
d="M33 0v666h265v-666h-265zM66 33h199v600h-199v-600z" />
    <glyph glyph-name="uni0000" 
 />
    <glyph glyph-name="uni0000" 
 />
    <glyph glyph-name="uni000D" unicode="&#xd;" 
 />
    <glyph glyph-name="uni0001" 
 />
    <glyph glyph-name="uni0002" 
 />
    <glyph glyph-name="uni0003" 
 />
    <glyph glyph-name="uni0004" 
 />
    <glyph glyph-name="uni0005" 
 />
    <glyph glyph-name="uni0006" 
 />
    <glyph glyph-name="uni0007" 
 />
    <glyph glyph-name="uni0008" 
 />
    <glyph glyph-name="uni0009" unicode="&#x9;" 
 />
    <glyph glyph-name="uni000A" unicode="&#xa;" 
 />
    <glyph glyph-name="uni000B" 
 />
    <glyph glyph-name="uni000C" 
 />
    <glyph glyph-name="uni000E" 
 />
    <glyph glyph-name="uni000F" 
 />
    <glyph glyph-name="uni0010" 
 />
    <glyph glyph-name="uni0011" 
 />
    <glyph glyph-name="uni0012" 
 />
    <glyph glyph-name="uni0013" 
 />
    <glyph glyph-name="uni0014" 
 />
    <glyph glyph-name="uni0015" 
 />
    <glyph glyph-name="uni0016" 
 />
    <glyph glyph-name="uni0017" 
 />
    <glyph glyph-name="uni0018" 
 />
    <glyph glyph-name="uni0019" 
 />
    <glyph glyph-name="uni001A" 
 />
    <glyph glyph-name="uni001B" 
 />
    <glyph glyph-name="uni001C" 
 />
    <glyph glyph-name="uni001D" 
 />
    <glyph glyph-name="uni001E" 
 />
    <glyph glyph-name="uni001F" 
 />
    <glyph glyph-name="space" unicode=" " 
 />
    <glyph glyph-name="space" unicode="&#xa0;" 
 />
    <glyph glyph-name="exclam" unicode="!" horiz-adv-x="201" 
d="M100 22q-12 0 -22 9.5t-10 23.5t10 23.5t22 9.5t22 -9.5t10 -23.5t-10 -23.5t-22 -9.5zM79 750h42v-584h-42v584z" />
    <glyph glyph-name="quotedbl" unicode="&#x22;" horiz-adv-x="310" 
d="M196 472v248h44q-1 -63 -2 -124t-2 -124h-40zM63 472v248h44q-1 -63 -2 -124t-2 -124h-40z" />
    <glyph glyph-name="numbersign" unicode="#" horiz-adv-x="571" 
d="M198 393q-4 -36 -8 -71.5t-8 -70.5h142q4 35 8 70.5t8 71.5h-142zM294 0l24 210h-142l-24 -210h-42l24 210h-107q2 11 3 20.5t2 20.5h108q4 35 8 70.5t8 71.5h-106q2 10 2.5 20t1.5 20h107q7 53 13 105t13 105h42q-7 -53 -13 -105t-13 -105h142q7 53 13 105t13 105h42
q-7 -53 -13 -105t-13 -105h123q-2 -10 -2.5 -20t-1.5 -20h-124q-4 -36 -8 -71.5t-8 -70.5h121q-1 -11 -2 -20.5t-2 -20.5h-123l-24 -210h-42z" />
    <glyph glyph-name="dollar" unicode="$" horiz-adv-x="567" 
d="M361 546v88q-17 11 -42 19t-60 10v-276q35 -11 69.5 -23.5t62 -34.5t45 -56t18.5 -87q0 -42 -15 -77t-41.5 -60t-62.5 -39.5t-76 -16.5v-61h-41v62q-35 2 -64.5 10.5t-52 20.5t-39 25.5t-26.5 25.5v106h40v-90q25 -23 59.5 -39.5t82.5 -18.5v323q-30 9 -58 20.5t-49.5 29
t-35.5 44t-16 66.5q-2 31 6.5 62.5t28 57.5t50 44t74.5 21v62h41v-61q32 -2 70.5 -12t71.5 -37v-108h-40zM412 184q0 40 -13 67t-34.5 44.5t-49 28.5t-56.5 20v-310q30 3 58 14.5t49 30.5t33.5 45.5t12.5 59.5zM101 524q0 -29 9.5 -48.5t25.5 -33.5t37 -23.5t45 -17.5v259
q-29 -3 -51 -15.5t-36.5 -31t-22 -41.5t-7.5 -48z" />
    <glyph glyph-name="percent" unicode="%" horiz-adv-x="726" 
d="M447 112q0 -32 21.5 -53.5t53.5 -21.5t53.5 21.5t21.5 53.5q0 31 -21.5 53t-53.5 22t-53.5 -22t-21.5 -53zM522 -4q-24 0 -45.5 9t-37 24.5t-25 37t-9.5 45.5t9.5 45t25 36.5t37 24.5t45.5 9t45 -9t37 -24.5t25.5 -36.5t9.5 -45t-9.5 -45.5t-25.5 -37t-37 -24.5t-45 -9z
M143 388q0 -31 21.5 -52.5t53.5 -21.5t53.5 21.5t21.5 52.5q0 32 -21.5 53.5t-53.5 21.5t-53.5 -21.5t-21.5 -53.5zM218 273q-24 0 -45.5 9t-37 24.5t-25 37t-9.5 45.5t9.5 45t25 36.5t37 24.5t45.5 9t45 -9t37 -24.5t25.5 -36.5t9.5 -45t-9.5 -45.5t-25.5 -37t-37 -24.5
t-45 -9zM194 0q75 126 149 250t149 250h46q-75 -126 -149 -250t-149 -250h-46z" />
    <glyph glyph-name="ampersand" unicode="&#x26;" horiz-adv-x="700" 
d="M457 375h144v-41h-102v-68q1 -36 0 -78t-19 -80l65 -105l-32 -22l-54 87q-27 -35 -68 -55.5t-89 -20.5q-41 0 -76.5 15.5t-62 41.5t-42 61.5t-15.5 76.5q0 36 12 68.5t34 58t51.5 42.5t64.5 23l-71 117q-18 30 -25.5 62t-2.5 63t23 58t51 47q28 17 57.5 20.5t57.5 -1.5
t52.5 -16t43.5 -23l-17 -34q-18 10 -38.5 19.5t-42 14t-43.5 2.5t-43 -15q-54 -34 -60 -85t24 -100l209 -340q14 25 14 55v152zM147 187q0 -32 12 -60t32.5 -49t49 -33t61.5 -12q44 0 78.5 20.5t54.5 53.5l-143 234q-31 -3 -57.5 -15.5t-46 -32.5t-30.5 -47.5t-11 -58.5z
" />
    <glyph glyph-name="quotesingle" unicode="'" horiz-adv-x="153" 
d="M57 472v248h44q-1 -63 -2 -124t-2 -124h-40z" />
    <glyph glyph-name="parenleft" unicode="(" horiz-adv-x="406" 
d="M134 292q0 75 14 143t37 126t52.5 105.5t61.5 80.5q8 -6 15.5 -11.5t15.5 -11.5q-29 -33 -56.5 -78t-49.5 -100t-35 -119t-13 -135t13 -135t35 -119t49.5 -100t56.5 -78q-8 -6 -15.5 -11.5t-15.5 -11.5q-32 33 -61.5 80.5t-52.5 105.5t-37 126t-14 143z" />
    <glyph glyph-name="parenright" unicode=")" horiz-adv-x="400" 
d="M292 290q0 -75 -14 -143t-37 -126t-53 -105.5t-61 -80.5q-8 6 -15.5 11.5t-15.5 11.5q29 33 56.5 78t49.5 100t35 119t13 135t-13 135t-35 119t-49.5 100t-56.5 78q8 6 15.5 11.5t15.5 11.5q31 -33 61 -80.5t53 -105.5t37 -126t14 -143z" />
    <glyph glyph-name="asterisk" unicode="*" horiz-adv-x="335" 
d="M209 575q23 -13 46.5 -26t46.5 -27q-6 -9 -11.5 -18.5t-11.5 -19.5q-23 14 -45.5 27t-45.5 27q-1 -26 -1 -52t-1 -52h-40v104q-23 -13 -45 -25.5t-45 -26.5q-6 10 -11.5 19.5t-11.5 19.5q23 13 46 25.5t46 25.5q-23 14 -45.5 27t-45.5 27q8 17 20 35q23 -14 46 -27
t46 -27v109h44q0 -27 -0.5 -54t-0.5 -55q23 14 47 27t47 26q5 -8 10 -17l10 -18q-24 -14 -47 -27t-47 -27z" />
    <glyph glyph-name="plus" unicode="+" horiz-adv-x="543" 
d="M245 51v160h-159v41h159v159h42v-159h159v-41h-159v-160h-42z" />
    <glyph glyph-name="comma" unicode="," horiz-adv-x="200" 
d="M141 86q-22 -52 -43 -103t-43 -103h-38q20 52 38.5 103t38.5 103h47z" />
    <glyph glyph-name="hyphen" unicode="-" 
d="M53 169v41h184v-41h-184z" />
    <glyph glyph-name="period" unicode="." horiz-adv-x="163" 
d="M53 33q0 14 10 23.5t23 9.5q12 0 22 -9.5t10 -23.5t-10 -23.5t-22 -9.5q-13 0 -23 9.5t-10 23.5z" />
    <glyph glyph-name="slash" unicode="/" horiz-adv-x="345" 
d="M17 -19q70 190 139 377.5t139 377.5h42q-70 -190 -139 -377.5t-139 -377.5h-42z" />
    <glyph glyph-name="zero" unicode="0" horiz-adv-x="616" 
d="M36 327q0 59 17.5 118.5t51 106.5t84.5 76.5t119 29.5q67 0 117 -30t83 -78t49 -107.5t16 -118.5q0 -72 -22.5 -133t-60 -105t-86.5 -68.5t-102 -24.5t-101.5 25.5t-85 70t-58 105.5t-21.5 133zM79 327q0 -65 18.5 -119t49.5 -92.5t71.5 -60.5t84.5 -22t85 21t72.5 59
t51 91.5t19.5 118.5q0 59 -15 112t-44 93.5t-71 64.5t-94 24q-53 0 -95 -23t-71.5 -63t-45.5 -93t-16 -111z" />
    <glyph glyph-name="one" unicode="1" horiz-adv-x="265" 
d="M49 40h80v569h-95v41h137v-610h80v-40h-202v40z" />
    <glyph glyph-name="two" unicode="2" horiz-adv-x="505" 
d="M155 41h273v105h40v-146h-415q63 62 122.5 121.5t105.5 116t74 109t28 99.5q0 49 -14.5 81.5t-36 52.5t-47 28.5t-47.5 8.5q-45 0 -73.5 -16t-45 -39t-23 -50t-6.5 -49q0 -35 10 -62t29 -48l-25 -25q-26 23 -41 59.5t-15 75.5q0 40 12.5 75.5t36.5 62t59.5 42t81.5 15.5
q42 0 76.5 -15.5t59 -42.5t38 -63.5t13.5 -78.5q0 -54 -24.5 -107.5t-63.5 -105.5t-87 -103t-95 -101z" />
    <glyph glyph-name="three" unicode="3" horiz-adv-x="515" 
d="M168 347l183 262h-208v-60h-40v101h323l-177 -246q40 -3 75.5 -19.5t62 -43.5t41.5 -62.5t15 -77.5q0 -43 -16.5 -81t-45 -66.5t-67 -45t-81.5 -16.5q-46 0 -85.5 18.5t-68.5 49.5l31 31q22 -26 53 -42t68 -16q35 0 66 13.5t54 36.5t36.5 53.5t13.5 64.5t-13.5 64.5
t-36.5 53.5t-54 36t-66 13q-17 0 -33 -5.5t-30 -15.5z" />
    <glyph glyph-name="four" unicode="4" horiz-adv-x="515" 
d="M285 40h76v143h-324l366 475v-434h97v-41h-97v-143h83v-40h-201v40zM361 535l-239 -311h239v311z" />
    <glyph glyph-name="five" unicode="5" horiz-adv-x="543" 
d="M430 650v-101h-40v60h-205v-217q16 7 33.5 11t35.5 4q43 0 81.5 -16t67 -44t45.5 -65.5t17 -80.5t-17 -81t-45.5 -66.5t-67 -45t-81.5 -16.5q-42 0 -78.5 15.5t-65.5 42.5l31 28q22 -21 50.5 -33t61.5 -12q35 0 66 13.5t54 36.5t36.5 53.5t13.5 64.5t-13.5 64t-36.5 52.5
t-54 35.5t-66 13t-64 -12t-46 -33v329h287z" />
    <glyph glyph-name="six" unicode="6" horiz-adv-x="520" 
d="M91 199q0 -35 13 -65t36 -52.5t53 -35.5t65 -13q34 0 65 13t54 35.5t36.5 52.5t13.5 65q0 34 -13.5 64.5t-36.5 53.5t-54 36t-65 13q-35 0 -65 -13t-53 -36t-36 -53.5t-13 -64.5zM49 195q0 72 31 134.5t79 117t107 101t115 87.5q6 -8 13 -17t14 -17q-107 -70 -168 -133.5
t-88 -109.5q19 22 46.5 35.5t59.5 13.5q43 0 81.5 -16.5t67 -44.5t45 -66t16.5 -81t-16.5 -80.5t-45 -65.5t-67 -44.5t-81.5 -16.5q-42 0 -80 16t-66.5 43.5t-45 64.5t-17.5 79z" />
    <glyph glyph-name="seven" unicode="7" horiz-adv-x="469" 
d="M420 650l-292 -650h-49l275 609h-300v-60h-40v101h406z" />
    <glyph glyph-name="eight" unicode="8" horiz-adv-x="510" 
d="M145 506q0 -21 8.5 -39.5t23.5 -31.5t34.5 -20.5t42.5 -7.5q46 0 76.5 28t30.5 71q0 22 -8 42t-22.5 35.5t-34 24.5t-42.5 9t-42.5 -9t-34.5 -24.5t-23.5 -35.5t-8.5 -42zM89 201q0 -34 12.5 -64.5t35 -54t52 -37t64.5 -13.5t66 13.5t54 37t36.5 54t13.5 64.5t-13.5 63.5
t-36 52t-53.5 36t-65 13.5q-35 0 -65.5 -13t-53 -35.5t-35 -52.5t-12.5 -64zM46 201q0 66 37 116.5t95 72.5q-34 16 -54.5 48t-20.5 72q0 30 11.5 57t32 47.5t47.5 32t58 11.5t59 -12t48 -32.5t32 -47.5t12 -58q0 -39 -20.5 -70t-52.5 -48q29 -11 54 -29.5t43 -43t28 -54
t10 -62.5q0 -43 -17 -81t-45.5 -66.5t-67 -45t-81.5 -16.5t-80.5 16.5t-66 45t-45 66.5t-16.5 81z" />
    <glyph glyph-name="nine" unicode="9" horiz-adv-x="525" 
d="M420 427q0 34 -13 64.5t-35.5 53t-53 35.5t-64.5 13q-35 0 -65.5 -13t-53.5 -35.5t-36.5 -53t-13.5 -64.5q0 -35 13.5 -65t36.5 -53t53.5 -36t65.5 -13q34 0 64.5 13t53 36t35.5 53t13 65zM463 427q0 -71 -31 -133t-79.5 -116t-107.5 -100t-114 -86q-7 8 -13.5 16.5
t-13.5 16.5q106 71 167.5 134t88.5 110q-19 -23 -47 -36t-60 -13q-43 0 -81.5 16t-67 44t-45 66t-16.5 81t16.5 80.5t45 65.5t67 44.5t81.5 16.5t81.5 -16.5t67 -44.5t45 -65.5t16.5 -80.5z" />
    <glyph glyph-name="colon" unicode=":" horiz-adv-x="175" 
d="M52 283q0 14 10 23.5t23 9.5t22.5 -9.5t9.5 -23.5t-9.5 -23.5t-22.5 -9.5t-23 9.5t-10 23.5zM52 33q0 14 10 23.5t23 9.5t22.5 -9.5t9.5 -23.5t-9.5 -23.5t-22.5 -9.5t-23 9.5t-10 23.5z" />
    <glyph glyph-name="semicolon" unicode=";" horiz-adv-x="201" 
d="M78 283q0 14 10 23.5t23 9.5t23 -9.5t10 -23.5t-10 -23.5t-23 -9.5t-23 9.5t-10 23.5zM127 86q-22 -52 -43 -103t-43 -103h-39q20 52 38.5 103t38.5 103h48z" />
    <glyph glyph-name="less" unicode="&#x3c;" horiz-adv-x="680" 
d="M553 40v-55q-110 63 -219 126.5t-219 126.5q110 63 219 126.5t219 126.5v-55q-86 -50 -171.5 -99t-172.5 -99q87 -50 172.5 -99t171.5 -99z" />
    <glyph glyph-name="equal" unicode="=" horiz-adv-x="708" 
d="M606 176v-41h-506v41h506zM606 370v-41h-506v41h506z" />
    <glyph glyph-name="greater" unicode="&#x3e;" horiz-adv-x="650" 
d="M115 -15v55q87 50 172.5 99t171.5 99q-86 50 -171.5 99t-172.5 99v55q110 -63 219 -126.5t219 -126.5q-110 -63 -219 -126.5t-219 -126.5z" />
    <glyph glyph-name="question" unicode="?" horiz-adv-x="452" 
d="M72 578q-9 4 -18.5 7t-18.5 6q9 26 25 51t39.5 45t55 32.5t71.5 12.5q41 0 77 -15.5t62.5 -42t41.5 -62t15 -75.5q0 -54 -26.5 -95.5t-71.5 -73.5q-17 -13 -33.5 -23t-29.5 -22.5t-21 -31.5t-8 -49v-78h-42v97q0 31 11 50.5t28.5 34.5t40 28.5t46.5 33.5q33 27 48.5 59.5
t15.5 69.5q0 33 -11.5 61t-32.5 49t-49 32.5t-61 11.5q-58 0 -97.5 -30t-56.5 -83zM211 15q-12 0 -22.5 9.5t-10.5 23.5t10.5 23.5t22.5 9.5t22 -9.5t10 -23.5t-10 -23.5t-22 -9.5z" />
    <glyph glyph-name="at" unicode="@" horiz-adv-x="990" 
d="M333 188q0 -32 12 -60t32.5 -49t49 -33t61.5 -12t61.5 12t49 33t32.5 49t12 60t-12 60.5t-32.5 49.5t-49 33t-61.5 12t-61.5 -12t-49 -33t-32.5 -49.5t-12 -60.5zM895 188q-3 -57 -18 -93.5t-37.5 -57.5t-49.5 -29t-53 -8h-90v40q0 12 0.5 23.5t0.5 22.5
q-7 -17 -21.5 -34t-35 -30t-47 -21t-56.5 -8q-41 0 -77 15.5t-62.5 41.5t-42 61.5t-15.5 76.5q0 40 15.5 75.5t42 62t62.5 42t77 15.5q29 0 54.5 -8.5t46.5 -22t36 -30.5t22 -35q0 22 1.5 44t2.5 44h34v-335h56q48 0 79 35t33 113q0 76 -28.5 143t-78 116.5t-116 78
t-141.5 28.5q-76 0 -142.5 -28.5t-116 -78t-78 -116.5t-28.5 -143t28.5 -142t78 -115.5t116 -78t142.5 -28.5q60 0 114.5 18t100.5 50q7 -8 13 -15t12 -15q-50 -38 -112 -58.5t-128 -20.5q-84 0 -158 32t-129.5 87t-87.5 129t-32 158t32 158t87.5 129t129.5 87t158 32
t158 -32t129 -87t87 -129t32 -159z" />
    <glyph glyph-name="A" unicode="A" horiz-adv-x="812" 
d="M35 40h77q74 174 147.5 346t146.5 346q73 -174 146.5 -346t146.5 -346h78v-40h-193v40h73q-28 65 -55 129.5t-55 130.5h-282q-28 -66 -55 -130.5t-55 -129.5h73v-40h-193v40zM415 611l-9 28q-2 -3 -5 -15q-2 -6 -5 -13q-10 -26 -23.5 -58.5t-28.5 -68t-30.5 -72.5
t-30.5 -72h246z" />
    <glyph glyph-name="B" unicode="B" horiz-adv-x="526" 
d="M35 40h61v620h-61v40h221q47 0 85.5 -10t66 -31t42.5 -54.5t15 -79.5q0 -62 -30.5 -109t-93.5 -64q30 -6 57 -20t47.5 -36t33 -51t12.5 -65q0 -45 -18 -78.5t-48.5 -56t-69.5 -34t-81 -11.5h-239v40zM137 332v-292h133q37 0 69.5 9t57 27t39 44.5t14.5 62.5
q0 39 -16.5 67t-44 46.5t-63 27t-73.5 8.5h-116zM137 660v-288h132q71 0 113 41.5t42 108.5q0 37 -11.5 63.5t-32.5 43t-50.5 24t-64.5 7.5h-128z" />
    <glyph glyph-name="C" unicode="C" horiz-adv-x="610" 
d="M535 546v86q-32 17 -68.5 26.5t-74.5 9.5q-65 0 -122.5 -25.5t-100.5 -69t-67.5 -101.5t-24.5 -124q0 -65 24.5 -122.5t67.5 -100.5t99.5 -68t121.5 -25q45 0 85 11.5t76 32.5l23 -34q-40 -23 -85.5 -36.5t-96.5 -13.5q-74 0 -139 28t-113.5 76.5t-76.5 113.5t-28 139
t28 139.5t76.5 114t113.5 77t139 28.5q51 0 96.5 -13t86.5 -37v-112h-40z" />
    <glyph glyph-name="D" unicode="D" horiz-adv-x="632" 
d="M35 40h63v620h-63v40h210q72 0 136 -24.5t112 -70t76 -110.5t28 -145q0 -59 -20.5 -121t-66.5 -113t-119.5 -83.5t-179.5 -32.5h-176v40zM139 660v-620h87q83 0 145 26.5t103 70t61.5 99t20.5 114.5q0 71 -24.5 128.5t-67 98t-99 62t-120.5 21.5h-106z" />
    <glyph glyph-name="E" unicode="E" horiz-adv-x="571" 
d="M35 40h72v620h-72v40h487v-154h-40v114h-334v-287h335v-40h-335v-293h348v114h40v-154h-501v40z" />
    <glyph glyph-name="F" unicode="F" horiz-adv-x="557" 
d="M35 40h72v620h-72v40h487v-154h-40v114h-334v-287h335v-40h-335v-293h88v-40h-201v40z" />
    <glyph glyph-name="G" unicode="G" horiz-adv-x="609" 
d="M574 298v-258q-40 -23 -85.5 -36.5t-96.5 -13.5q-74 0 -139 28t-113.5 76.5t-76.5 113.5t-28 139t28 139.5t76.5 114t113.5 77t139 28.5q51 0 96.5 -13t86.5 -37l-23 -34q-35 21 -75.5 32.5t-84.5 11.5q-65 0 -122.5 -25.5t-100.5 -69t-67.5 -101.5t-24.5 -124
q0 -65 24.5 -122.5t67.5 -100.5t99.5 -68t121.5 -25q76 0 142 34v194h-144v40h186z" />
    <glyph glyph-name="H" unicode="H" horiz-adv-x="738" 
d="M502 700h201v-40h-77v-620h77v-40h-201v40h82v293h-430v-293h82v-40h-201v40h78v620h-78v40h201v-40h-82v-287h430v287h-82v40z" />
    <glyph glyph-name="I" unicode="I" horiz-adv-x="271" 
d="M35 40h78v620h-78v40h201v-40h-82v-620h82v-40h-201v40z" />
    <glyph glyph-name="J" unicode="J" horiz-adv-x="277" 
d="M35 700h207v-610q0 -56 -16 -98.5t-44 -72t-66 -45.5t-81 -17v40q36 2 66.5 16t52.5 39t34.5 60.5t12.5 80.5v567h-166v40z" />
    <glyph glyph-name="K" unicode="K" horiz-adv-x="686" 
d="M458 40h60q-69 88 -138.5 176.5t-139.5 177.5l-87 -83q0 -68 0.5 -135.5t0.5 -135.5h82v-40h-201v40h77v620h-77v40h193v-40h-74v-274q-1 -8 -1.5 -15t-0.5 -15l18 21l296 283h-53v40h193v-40h-86l-251 -239q75 -96 150 -191l150 -190h82v-40h-193v40z" />
    <glyph glyph-name="L" unicode="L" horiz-adv-x="568" 
d="M35 40h69v620h-69v40h193v-40h-83v-620h348v114h40v-154h-498v40z" />
    <glyph glyph-name="M" unicode="M" horiz-adv-x="967" 
d="M824 700h105v-40h-81v-620h84v-40h-201v40h75v535q0 1 0.5 7t1 12.5t0.5 12.5v8q-3 -5 -7.5 -11.5t-10.5 -14.5q-22 -30 -59.5 -79t-80.5 -105t-87.5 -113.5t-80.5 -104.5q-69 90 -117 153t-83.5 109.5t-62 80.5t-51.5 66l-12 19q0 -11 0.5 -20.5t1.5 -19.5v-535h78v-40
h-201v40h81v620h-81v40h105q11 -15 33 -43.5t50.5 -65.5t61.5 -80.5t67.5 -88t68 -87.5t61.5 -80q86 111 171 222.5t171 222.5z" />
    <glyph glyph-name="N" unicode="N" horiz-adv-x="846" 
d="M35 40h81v620h-81v40h108l526 -612l19 -26l-3 32v566h-75v40h201v-40h-84v-692l-553 639l-19 22l3 -28v-561h78v-40h-201v40z" />
    <glyph glyph-name="O" unicode="O" horiz-adv-x="786" 
d="M35 349q0 74 28 139.5t76.5 114t113.5 77t139 28.5t139.5 -28.5t114 -77t77 -114t28.5 -139.5t-28.5 -139t-77 -113.5t-114 -76.5t-139.5 -28t-139 28t-113.5 76.5t-76.5 113.5t-28 139zM77 348q0 -66 24.5 -123.5t67.5 -100t100 -67.5t122 -25t123 25t101.5 68
t68.5 100.5t25 123.5t-25 124t-68 101.5t-101 68.5t-123 25t-122.5 -25.5t-100.5 -69t-67.5 -101.5t-24.5 -124z" />
    <glyph glyph-name="P" unicode="P" horiz-adv-x="495" 
d="M35 40h61v620h-61v40h211q31 0 68 -10t69.5 -32t54.5 -57t22 -84q0 -86 -54.5 -137t-157.5 -51h-111v-289h99v-40h-201v40zM137 370h104q52 0 86.5 14t55 36t28.5 47.5t8 49.5q0 28 -13.5 54t-37.5 46t-56.5 31.5t-69.5 11.5h-105v-290z" />
    <glyph glyph-name="Q" unicode="Q" horiz-adv-x="808" 
d="M77 348q0 -65 24.5 -122.5t67.5 -100.5t99.5 -68t121.5 -25q66 0 124 25t101.5 68t68.5 100.5t25 123.5t-25 124t-68 101.5t-101 68.5t-123 25t-122.5 -25.5t-100.5 -69t-67.5 -101.5t-24.5 -124zM35 349q0 74 28 139.5t76.5 114t113.5 77t139 28.5t139.5 -28.5t114 -77
t77 -114t28.5 -139.5q0 -51 -14 -98t-39 -86.5t-60.5 -71.5t-77.5 -53h213v-40h-307q-38 -8 -74 -8q-74 0 -139 28t-113.5 76.5t-76.5 113.5t-28 139z" />
    <glyph glyph-name="R" unicode="R" horiz-adv-x="572" 
d="M35 40h61v620h-61v40h211q31 0 68 -10t69.5 -32t54.5 -57t22 -84q0 -72 -38.5 -119.5t-111.5 -62.5l139 -295h88v-40h-114l-156 331q-11 -1 -23 -1.5t-23 -0.5h-84v-289h99v-40h-201v40zM137 370h104q52 0 86.5 14t55 36t28.5 47.5t8 49.5q0 28 -13.5 54t-37.5 46
t-56.5 31.5t-69.5 11.5h-105v-290z" />
    <glyph glyph-name="S" unicode="S" horiz-adv-x="478" 
d="M36 76v106h40v-90q28 -25 68 -42.5t95 -17.5q33 0 64.5 10.5t55.5 30t38.5 47.5t14.5 64q0 44 -15 72t-39 46t-55 29t-63.5 20.5t-64 20.5t-57 29t-41.5 45.5t-18 70.5q-2 33 8 66.5t32 60t57 43.5t85 17q17 0 37 -2t41 -7t42 -15t40 -26v-108h-40v88q-19 12 -49.5 21
t-71.5 9q-35 0 -61 -11.5t-43.5 -31t-26 -45t-8.5 -52.5q0 -36 15 -59t39.5 -38t56 -25t64.5 -20t64.5 -23.5t56.5 -35t40.5 -54.5t16.5 -83q0 -44 -16.5 -80t-45 -61.5t-67.5 -39t-82 -13.5q-39 0 -72 8t-59.5 20.5t-45.5 27.5t-30 28z" />
    <glyph glyph-name="T" unicode="T" horiz-adv-x="623" 
d="M209 40h82v620h-216v-114h-40v154h553v-154h-40v114h-216v-620h78v-40h-201v40z" />
    <glyph glyph-name="U" unicode="U" horiz-adv-x="696" 
d="M35 700h201v-40h-82v-431q0 -48 14.5 -84.5t40 -61.5t61 -38t78.5 -13q42 0 77.5 13t61.5 38t40.5 61.5t14.5 84.5v431h-82v40h201v-40h-77v-434q0 -57 -18 -101t-50 -73.5t-75 -44.5t-93 -15q-51 0 -94 15t-74.5 44.5t-49.5 73.5t-18 101v434h-77v40z" />
    <glyph glyph-name="V" unicode="V" horiz-adv-x="830" 
d="M35 700h201v-40h-74q60 -144 120.5 -286t121.5 -285l9 -28l9 28q60 143 120.5 285t120.5 286h-69v40h201v-40h-89q-73 -174 -146.5 -346t-146.5 -346q-74 174 -147.5 346t-146.5 346h-84v40z" />
    <glyph glyph-name="W" unicode="W" horiz-adv-x="1203" 
d="M35 700h201v-40h-74q60 -144 119.5 -286t122.5 -285l9 -28q33 100 78 199t87 197q-21 51 -42.5 101.5t-43.5 101.5h-84v40h201v-40h-75q60 -144 120 -286t122 -285l9 -28l9 28q61 143 121.5 285t120.5 286h-69v40h201v-40h-90q-73 -174 -146 -346t-147 -346l-177 417
l-9 27q-40 -111 -90 -223t-96 -221q-74 174 -147.5 346t-146.5 346h-84v40z" />
    <glyph glyph-name="X" unicode="X" horiz-adv-x="704" 
d="M35 700h201v-40h-57q42 -63 82.5 -126t81.5 -126l10 -18l10 18l162 252h-58v40h202v-40h-94q-49 -78 -98 -153.5t-99 -152.5q51 -79 102.5 -157t102.5 -157h86v-40h-202v40h64l-150 231q-8 12 -16 26t-16 26l-10 -19q-43 -67 -85.5 -132.5t-84.5 -131.5h67v-40h-201v40
h83l206 319l-196 301h-93v40z" />
    <glyph glyph-name="Y" unicode="Y" horiz-adv-x="746" 
d="M275 40h74v225q-60 99 -118.5 197.5t-117.5 197.5h-78v40h201v-40h-73q100 -165 198 -330l12 -28h1l11 28l197 330h-72v40h201v-40h-78q-59 -100 -117.5 -198t-117.5 -197v-225h78v-40h-201v40z" />
    <glyph glyph-name="Z" unicode="Z" horiz-adv-x="629" 
d="M594 201v-201h-559v40l477 620h-460v75h42v-35h471v-40l-477 -620h466v161h40z" />
    <glyph glyph-name="bracketleft" unicode="[" horiz-adv-x="338" 
d="M83 -149v895h175v-41h-132v-813h132v-41h-175z" />
    <glyph glyph-name="backslash" unicode="\" horiz-adv-x="346" 
d="M56 736q70 -190 139 -377.5t139 -377.5h-46q-70 190 -139 377.5t-139 377.5h46z" />
    <glyph glyph-name="bracketright" unicode="]" horiz-adv-x="342" 
d="M251 746v-895h-175v41h132v813h-132v41h175z" />
    <glyph glyph-name="asciicircum" unicode="^" horiz-adv-x="470" 
d="M232 660q30 -45 60 -90.5t60 -90.5h-33q-22 30 -43.5 60.5t-43.5 60.5q-22 -30 -43.5 -60.5t-43.5 -60.5h-33q30 45 60 90.5t60 90.5z" />
    <glyph glyph-name="underscore" unicode="_" horiz-adv-x="600" 
d="M500 0h-400v41h400v-41z" />
    <glyph glyph-name="grave" unicode="`" horiz-adv-x="200" 
d="M14 612q23 -33 45 -66.5t45 -66.5h-33q-25 33 -50 66.5t-50 66.5h43z" />
    <glyph glyph-name="a" unicode="a" horiz-adv-x="538" 
d="M35 188q0 40 15.5 75.5t42 62t62.5 42t77 15.5q29 0 55 -8.5t47 -22t35.5 -31t21.5 -34.5q0 22 1.5 44t2.5 44h34v-335h74v-40h-112v40q0 12 0.5 23.5t0.5 22.5q-7 -17 -21.5 -34t-35 -30t-47 -21t-56.5 -8q-41 0 -77 15.5t-62.5 41.5t-42 61.5t-15.5 76.5zM77 188
q0 -32 12 -60t32.5 -49t49 -33t61.5 -12t61 12t49 33t33 49t12 60t-12 60.5t-33 49.5t-49 33t-61 12t-61.5 -12t-49 -33t-32.5 -49.5t-12 -60.5z" />
    <glyph glyph-name="b" unicode="b" horiz-adv-x="538" 
d="M35 40h74v670h-70v40h112v-413q-1 -12 -2 -24.5t-2 -24.5q7 18 21.5 35t35.5 30.5t47 21.5t55 8q41 0 77 -15.5t62.5 -42t42 -62t15.5 -75.5q0 -41 -15.5 -76.5t-42 -61.5t-62.5 -41.5t-77 -15.5q-30 0 -56.5 8t-47 21t-35 30t-21.5 34q0 -11 0.5 -22.5t0.5 -23.5v-40
h-112v40zM461 188q0 32 -12 60.5t-32.5 49.5t-49 33t-61.5 12t-61 -12t-49 -33t-33 -49.5t-12 -60.5t12 -60t33 -49t49 -33t61 -12t61.5 12t49 33t32.5 49t12 60z" />
    <glyph glyph-name="c" unicode="c" horiz-adv-x="391" 
d="M355 36q-26 -20 -57 -31.5t-67 -11.5q-41 0 -76.5 15.5t-62 41.5t-42 61.5t-15.5 76.5q0 40 15.5 76t42 62t62 41.5t76.5 15.5q36 0 68 -11.5t57 -31.5v-98h-38v74q-19 13 -40.5 20t-46.5 7q-33 0 -61 -12t-48.5 -33t-32.5 -49.5t-12 -60.5t12 -60t32.5 -49t48.5 -33
t61 -12q57 0 98 33z" />
    <glyph glyph-name="d" unicode="d" horiz-adv-x="538" 
d="M391 40q0 12 0.5 23.5t0.5 22.5q-7 -17 -21.5 -34t-35 -30t-47 -21t-56.5 -8q-41 0 -77 15.5t-62.5 41.5t-42 61.5t-15.5 76.5q0 40 15.5 75.5t42 62t62.5 42t77 15.5q29 0 54.5 -8t46.5 -21.5t36 -30.5t22 -35l-2 42l-2 42v338h-70v40h112v-710h74v-40h-112v40zM77 188
q0 -32 12 -60t32.5 -49t49 -33t61.5 -12t61 12t49 33t33 49t12 60t-12 60.5t-33 49.5t-49 33t-61 12t-61.5 -12t-49 -33t-32.5 -49.5t-12 -60.5z" />
    <glyph glyph-name="e" unicode="e" horiz-adv-x="441" 
d="M231 343q-37 0 -67.5 -15.5t-51.5 -41t-29.5 -59t-1.5 -68.5q67 27 134 53.5t135 53.5q-17 34 -49 55.5t-70 21.5zM403 243q-78 -31 -155 -61.5t-155 -61.5q17 -38 54 -62t84 -24q31 0 58 11t47 31q7 -8 13 -15.5t13 -15.5q-26 -24 -59 -38t-72 -14q-41 0 -76.5 15.5
t-62 41.5t-42 61.5t-15.5 76.5q0 40 15.5 76t42 62t62 41.5t76.5 15.5q30 0 57 -10.5t49.5 -29t39.5 -44t26 -56.5z" />
    <glyph glyph-name="f" unicode="f" horiz-adv-x="303" 
d="M35 40h61v294h-61v41h61v143q0 55 16 98t44 72t66 44.5t81 17.5v-40q-34 -1 -64.5 -14t-53 -38t-35.5 -60t-13 -79v-144h125v-41h-125v-294h91v-40h-193v40z" />
    <glyph glyph-name="g" unicode="g" horiz-adv-x="539" 
d="M395 375h109v-40h-75v-370q0 -49 -15 -88.5t-41 -67.5t-60.5 -43t-74.5 -16q-42 1 -84.5 16t-69.5 44l30 31q22 -24 56 -36t67 -12q31 0 58.5 12.5t47.5 35.5t32 55.5t12 71.5v72q1 11 2 22.5t2 22.5q-8 -18 -22.5 -34.5t-35 -29t-46.5 -20.5t-55 -8q-41 0 -77 15.5
t-62.5 41.5t-42 61.5t-15.5 76.5q0 40 15.5 75.5t42 62t62.5 42t77 15.5q29 0 55 -8.5t47 -22t35.5 -31t21.5 -34.5q0 22 1.5 44t2.5 44zM77 188q0 -32 12 -60t32.5 -49t49 -33t61.5 -12t61 12t49 33t33 49t12 60t-12 60.5t-33 49.5t-49 33t-61 12t-61.5 -12t-49 -33
t-32.5 -49.5t-12 -60.5z" />
    <glyph glyph-name="h" unicode="h" horiz-adv-x="545" 
d="M317 40h78v220q-2 32 -23.5 56t-63.5 26q-30 0 -58 -10.5t-49.5 -28.5t-34 -43t-12.5 -55v-165h74v-40h-193v40h78v670h-74v40h115v-427l-3 -45q21 48 64.5 75.5t100.5 29.5q55 0 87 -31t34 -81v-231h73v-40h-193v40z" />
    <glyph glyph-name="i" unicode="i" horiz-adv-x="263" 
d="M35 40h77v295h-77v40h119v-335h74v-40h-193v40zM101 508q0 14 10 23.5t23 9.5q12 0 22 -9.5t10 -23.5t-10 -23.5t-22 -9.5q-13 0 -23 9.5t-10 23.5z" />
    <glyph glyph-name="j" unicode="j" horiz-adv-x="184" 
d="M35 375h114v-379q0 -59 -17.5 -103t-48.5 -73l-30 30q26 25 40.5 61t14.5 84v340h-73v40zM97 508q0 14 10 23.5t23 9.5t22.5 -9.5t9.5 -23.5t-9.5 -23.5t-22.5 -9.5t-23 9.5t-10 23.5z" />
    <glyph glyph-name="k" unicode="k" horiz-adv-x="503" 
d="M283 40h48q-29 40 -58.5 79.5t-58.5 79.5l-64 -60v-99h78v-40h-193v40h74v670h-71v40h112v-560l155 145h-60v40h185v-40h-72q-31 -29 -56.5 -54t-56.5 -54q33 -48 67 -94t69 -93h87v-40h-185v40z" />
    <glyph glyph-name="l" unicode="l" horiz-adv-x="263" 
d="M35 40h74v670h-71v40h112v-710h78v-40h-193v40z" />
    <glyph glyph-name="m" unicode="m" horiz-adv-x="828" 
d="M600 40h78v220q-2 32 -23.5 56t-63.5 26q-30 0 -58 -10t-49 -28t-33.5 -42.5t-13.5 -53.5v-168h74v-40h-194v40h78v220q-2 32 -23.5 56t-63.5 26q-30 0 -58 -10.5t-49.5 -28.5t-34 -43t-12.5 -55v-165h74v-40h-193v40h78v295h-72v40h106l1 -35q1 -17 2 -31t1 -31
q21 48 64.5 76t100.5 29q51 0 82.5 -27.5t37.5 -72.5q21 45 64 72t98 28q55 0 87 -31t34 -81v-231h74v-40h-193v40z" />
    <glyph glyph-name="n" unicode="n" horiz-adv-x="545" 
d="M317 40h78v220q-2 32 -23.5 56t-63.5 26q-30 0 -58 -10.5t-49.5 -28.5t-34 -43t-12.5 -55v-165h74v-40h-193v40h78v295h-72v40h106l1 -35q1 -17 2 -31t1 -31q20 47 64.5 76t100.5 29q55 0 87 -31t34 -81v-231h73v-40h-193v40z" />
    <glyph glyph-name="o" unicode="o" horiz-adv-x="465" 
d="M36 188q0 40 15.5 76t42 62.5t62 42t76.5 15.5t77 -15.5t63 -42t42.5 -62.5t15.5 -76q0 -41 -15.5 -76.5t-42.5 -61.5t-63 -41.5t-77 -15.5t-76.5 15.5t-62 41.5t-42 61.5t-15.5 76.5zM77 188q0 -32 12 -60t33 -49t49 -33t60 -12t60.5 12t49.5 33t33 49t12 60t-12 60
t-33 49t-49.5 33.5t-60.5 12.5t-60 -12.5t-49 -33.5t-33 -49t-12 -60z" />
    <glyph glyph-name="p" unicode="p" horiz-adv-x="538" 
d="M43 -210h67v545h-75v40h108q0 -22 1.5 -45t2.5 -45q7 18 21.5 35.5t35.5 31t47.5 22t55.5 8.5q41 0 77 -15.5t62.5 -41.5t41.5 -62t15 -76t-15 -75.5t-41.5 -62t-62.5 -42t-77 -15.5q-30 0 -56 8t-46.5 20.5t-35 29t-21.5 34.5l2 -20l2 -20v-254h84v-40h-193v40zM461 187
q0 33 -12 61t-32.5 48.5t-48.5 32.5t-61 12t-61.5 -12t-49.5 -32.5t-33 -48.5t-12 -61q0 -32 12 -60.5t33 -49.5t49.5 -33t61.5 -12t61 12t48.5 33t32.5 49.5t12 60.5z" />
    <glyph glyph-name="q" unicode="q" horiz-adv-x="540" 
d="M303 -210h84v254q0 10 1.5 20t2.5 20q-8 -18 -22.5 -34.5t-35 -29t-46.5 -20.5t-55 -8q-41 0 -77 15.5t-62.5 42t-42 62t-15.5 75.5t15.5 76t42 62t62.5 41.5t77 15.5q29 0 55 -8.5t47 -22t36 -31t22 -35.5q0 22 1.5 44.5t1.5 45.5h110v-40h-76v-545h68v-40h-194v40z
M77 187q0 -32 12 -60.5t32.5 -49.5t49 -33t61.5 -12t61 12t49 33t33 49.5t12 60.5q0 33 -12 61t-33 48.5t-49 32.5t-61 12t-61.5 -12t-49 -32.5t-32.5 -48.5t-12 -61z" />
    <glyph glyph-name="r" unicode="r" horiz-adv-x="344" 
d="M35 40h78v295h-72v40h106l1 -35q1 -17 2 -31t1 -31q23 49 67.5 76.5t90.5 28.5l-3 -41q-32 -1 -59.5 -11.5t-48 -28.5t-32.5 -43t-12 -54v-165h74v-40h-193v40z" />
    <glyph glyph-name="s" unicode="s" horiz-adv-x="322" 
d="M90 103v-51q18 -13 39.5 -16t42.5 -3q9 0 22 3.5t25 12t21 21.5t9 32q0 26 -13 40t-33.5 22.5t-44.5 15t-44.5 17.5t-34.5 29t-14 51q0 26 10 45.5t25.5 32.5t35 19.5t37.5 6.5q4 0 16.5 -1t28.5 -4.5t31.5 -10.5t26.5 -19v-74h-38v53q-7 6 -17 9t-19.5 4.5t-17 1.5
h-10.5q-12 0 -24 -3.5t-22 -11t-15.5 -19t-5.5 -28.5q0 -22 14 -34.5t34.5 -21t44 -16t44 -19.5t34 -31t13.5 -51q0 -17 -6.5 -36.5t-20.5 -36.5t-37.5 -28.5t-56.5 -11.5q-10 0 -25.5 1.5t-32.5 5.5t-33 11t-27 19v74h38z" />
    <glyph glyph-name="t" unicode="t" horiz-adv-x="314" 
d="M122 619h42v-244h115v-41h-115v-294h82v-40h-124v334h-87v41h87v244z" />
    <glyph glyph-name="u" unicode="u" horiz-adv-x="539" 
d="M35 375h115v-260q2 -32 23.5 -56t63.5 -26q31 0 59 10.5t49 28.5t33.5 43t12.5 55v165h-74v40h116v-339h71v-36h-108l-2 52v45q-20 -48 -64.5 -76.5t-99.5 -28.5t-87 31t-34 81v231h-74v40z" />
    <glyph glyph-name="v" unicode="v" horiz-adv-x="588" 
d="M35 375h185v-40h-65q37 -70 73 -141t68 -141q30 66 66.5 138t73.5 144h-58v40h175v-40h-73q-46 -91 -92 -179.5t-92 -178.5q-47 90 -92.5 178.5t-91.5 179.5h-77v40z" />
    <glyph glyph-name="w" unicode="w" horiz-adv-x="848" 
d="M644 375h169v-40h-69q-45 -91 -89.5 -179.5t-89.5 -178.5l-136 272l-136 -272q-45 90 -89.5 178.5t-89.5 179.5h-79v40h179v-40h-58q35 -71 70 -141.5t67 -140.5q24 52 49 103.5t51 103.5q-5 19 -10 37.5t-10 37.5h-64v40h185v-40h-66q35 -71 70 -141.5t67 -140.5
q33 71 67.5 141t69.5 141h-58v40z" />
    <glyph glyph-name="x" unicode="x" horiz-adv-x="503" 
d="M35 375h193v-40h-62l89 -121l87 121h-58v40h184v-40h-76l-112 -154q26 -36 52 -71l52 -70h84v-40h-193v40h57q-22 30 -43.5 59.5t-42.5 58.5q-22 -29 -43 -59t-42 -59h58v-40h-184v40h74l111 153q-26 35 -52.5 70.5t-52.5 71.5h-80v40z" />
    <glyph glyph-name="y" unicode="y" horiz-adv-x="601" 
d="M92 -210h85q26 52 52 104.5t52 103.5q-43 85 -85 168.5t-84 168.5h-77v40h185v-40h-63q37 -75 74.5 -148.5t71.5 -148.5q32 72 70 147l76 150h-58v40h175v-40h-73q-69 -137 -136 -272.5t-136 -272.5h64v-40h-193v40z" />
    <glyph glyph-name="z" unicode="z" horiz-adv-x="431" 
d="M396 94v-94h-361v41q75 75 142 147t142 147h-272v75h38v-35h292v-41q-75 -75 -142 -146.5t-142 -146.5h265v53h38z" />
    <glyph glyph-name="braceleft" unicode="{" horiz-adv-x="291" 
d="M30 275v46q24 1 39.5 14.5t24.5 33.5t12 43.5t3 43.5v172q0 46 8 70t22 34.5t31.5 12t37.5 1.5h47v-41h-52q-31 0 -41.5 -23.5t-10.5 -84.5v-142q0 -41 -6 -67.5t-15 -44t-20.5 -27.5t-23.5 -17q12 -7 23.5 -17.5t20.5 -28.5t15 -44.5t6 -66.5v-141q0 -62 10.5 -85.5
t41.5 -23.5h52v-40h-47q-21 0 -39.5 1.5t-31.5 14t-20.5 41t-7.5 82.5v149q0 20 -3 43.5t-12 43.5t-24.5 33.5t-39.5 14.5z" />
    <glyph glyph-name="bar" unicode="|" horiz-adv-x="240" 
d="M96 -232v932h42v-932h-42z" />
    <glyph glyph-name="braceright" unicode="}" horiz-adv-x="320" 
d="M290 321v-46q-29 -2 -44.5 -19.5t-23.5 -42t-9.5 -51t-1.5 -44.5v-148q0 -47 -8 -71t-22 -34.5t-32 -11.5t-37 -1h-47v40h52q31 0 41.5 23.5t10.5 85.5v164q0 32 6.5 55t16.5 38.5t21.5 25t20.5 15.5q-12 7 -23.5 17t-20.5 27.5t-15 44t-6 67.5v142q0 61 -10.5 84.5
t-41.5 23.5h-52v41h47q19 0 37 -1t31.5 -11.5t22 -35t8.5 -70.5v-150q0 -18 1.5 -44.5t9.5 -51t23.5 -42.5t44.5 -19z" />
    <glyph glyph-name="asciitilde" unicode="~" horiz-adv-x="489" 
d="M267 491q-15 17 -27 22.5t-26 5.5q-8 0 -17.5 -2t-18.5 -7.5t-16 -15.5t-9 -26q-6 1 -12.5 1t-12.5 1q1 19 9 33t20 23.5t27 14t29 4.5q21 0 38.5 -9.5t33.5 -26.5t28 -22.5t26 -5.5q7 0 17 2t19 7.5t15.5 15.5t8.5 26q7 -1 13.5 -1t12.5 -1q-1 -19 -9 -33t-20 -23.5
t-27 -14t-29 -4.5q-21 0 -38.5 9.5t-34.5 26.5z" />
    <glyph glyph-name="uni007F" 
 />
    <glyph glyph-name="exclamdown" unicode="&#xa1;" horiz-adv-x="200" 
d="M100 518.001q-12 0 -22 -9.49902t-10 -23.499q0 -13.999 10 -23.498t22 -9.49902t22 9.49902t10 23.498q0 14 -10 23.499t-22 9.49902zM79 -209.954h42v583.964h-42v-583.964z" />
    <glyph glyph-name="cent" unicode="&#xa2;" horiz-adv-x="385" 
d="M330 67l26 -31q-48 -39 -113 -42v-62h-42v65q-35 5 -65.5 22t-52.5 42.5t-34.5 58t-12.5 68.5t12.5 69t34.5 58.5t52.5 42.5t65.5 22v58h42v-55q32 -2 61.5 -13t52.5 -30l-1 -1q0 -3 0.5 -5.5t0.5 -5.5v-87h-38v75q-17 11 -36 18t-40 7v-307q49 3 87 33zM78 188
q0 -57 34.5 -98t88.5 -51v297q-27 -4 -49.5 -17t-39 -33t-25.5 -45t-9 -53z" />
    <glyph glyph-name="sterling" unicode="&#xa3;" horiz-adv-x="574" 
d="M510 0h-483v41h44q17 0 27.5 6t16 20.5t7 39.5t1.5 64v125h-65v41h65v163q0 70 49.5 102t134.5 32q67 0 103.5 -26.5t56.5 -66.5l-31 -19q-10 17 -20.5 30t-25 22t-34.5 14t-49 5q-78 0 -110 -26.5t-32 -72.5v-157h124v-41h-124v-165q0 -29 -3.5 -52.5t-18.5 -37.5h325
v104h42v-145z" />
    <glyph glyph-name="currency" unicode="&#xa4;" horiz-adv-x="500" 
d="M146 361q0 -21 8 -40t22 -33t32 -22t39 -8t40 8t32.5 22t21.5 33t8 40t-8 39.5t-21.5 32.5t-32.5 22t-40 8t-39 -8t-32 -22t-22 -32.5t-8 -39.5zM104 361q0 23 7 44.5t20 38.5q-8 8 -16 16.5t-16 16.5l30 29l32 -32q18 14 39.5 22t46.5 8t47 -8.5t39 -22.5l32 33l30 -30
l-32 -31q28 -37 28 -84q0 -48 -30 -86l34 -35l-29 -29q-9 8 -17.5 17t-17.5 17q-17 -13 -39 -20t-45 -7t-44.5 7t-38.5 19l-35 -34l-30 29l35 35q-30 38 -30 87z" />
    <glyph glyph-name="yen" unicode="&#xa5;" horiz-adv-x="638" 
d="M518 100h-142v-60h78v-40h-201v40h74v60h-142v41h142v121q-1 0 -1 1h-141v41h119l-213 356h-78v40h201v-40h-73q50 -83 100.5 -164.5t97.5 -165.5l12 -28h1l11 28l197 330h-72v40h201v-40h-78q-54 -90 -106 -178.5t-106 -177.5h119v-41h-142v-11v-111h142v-41z" />
    <glyph glyph-name="brokenbar" unicode="&#xa6;" horiz-adv-x="215" 
d="M131 -233h-42v350h42v-350zM131 350h-42v350h42v-350z" />
    <glyph glyph-name="section" unicode="&#xa7;" horiz-adv-x="500" 
d="M181 331q8 -26 29.5 -40.5t47.5 -14.5q38 0 60.5 25.5t22.5 59.5q0 18 -7.5 33.5t-19.5 27t-27.5 17.5t-31.5 6q-38 0 -59 -26t-21 -57q0 -16 6 -31zM236 152q-31 49 -50.5 80t-31 53t-16 38.5t-4.5 35.5q0 22 7.5 44t22 39t34.5 28t45 11q11 0 21 -2t20 -5
q-15 24 -29.5 49.5t-26.5 49.5t-19.5 44t-7.5 33q0 18 9 31.5t23 24.5t30.5 20t31.5 17l21 -35l-45 -27q-13 -8 -19 -16t-6 -20q0 -13 12 -39t30 -57.5t38.5 -65.5t37.5 -62t17 -62q0 -22 -8 -43.5t-23 -39t-35.5 -28.5t-45.5 -11q-21 0 -39 7q15 -25 30 -51t27 -49.5
t19.5 -43.5t7.5 -33q0 -18 -9 -31.5t-22.5 -24.5t-30 -20t-31.5 -17l-21 35l45 27q24 13 24 35q0 14 -8 33t-25 48z" />
    <glyph glyph-name="dieresis" unicode="&#xa8;" horiz-adv-x="370" 
d="M234 508q0 14 10 23.5t23 9.5t22.5 -9.5t9.5 -23.5t-9.5 -23.5t-22.5 -9.5t-23 9.5t-10 23.5zM69 508q0 14 10 23.5t23 9.5q12 0 22 -9.5t10 -23.5t-10 -23.5t-22 -9.5q-13 0 -23 9.5t-10 23.5z" />
    <glyph glyph-name="copyright" unicode="&#xa9;" horiz-adv-x="793" 
d="M399 138q49 0 92 17.5t74.5 49t50 74t18.5 92.5q0 51 -18.5 94t-50 74.5t-74.5 49.5t-92 18q-48 0 -90.5 -18t-74 -49.5t-50 -74.5t-18.5 -94q0 -50 18.5 -92.5t50 -74t74 -49t90.5 -17.5zM400 115q-54 0 -101 19.5t-82 54t-55 81.5t-20 102q0 56 20 103t55 81.5t82 54
t101 19.5t101 -19.5t82 -54t55 -81.5t20 -103q0 -55 -20 -102t-55 -81.5t-82 -54t-101 -19.5zM484 464v39q-32 16 -65 16q-29 0 -55 -11.5t-45.5 -31t-30.5 -46t-11 -56.5q0 -29 11 -55t30.5 -45.5t45 -31t54.5 -11.5q20 0 38 5.5t35 14.5l10 -15q-18 -11 -38.5 -17
t-43.5 -6q-33 0 -62.5 13t-51.5 35t-34.5 51.5t-12.5 62.5q0 34 12.5 63.5t34.5 51.5t51.5 34.5t62.5 12.5q44 0 83 -22v-51h-18z" />
    <glyph glyph-name="ordfeminine" unicode="&#xaa;" horiz-adv-x="585" 
d="M83 442q0 28 11.5 54t30.5 45t45 30t55 11q21 0 40 -6t34 -15.5t25.5 -22.5t15.5 -25q0 16 1 32t2 31h24v-241h54v-29h-81v29q0 9 0.5 17t0.5 16q-5 -12 -15.5 -24.5t-25.5 -22t-34 -15t-41 -5.5q-29 0 -55 11t-45 30t-30.5 44.5t-11.5 55.5zM114 442q0 -23 8.5 -43.5
t23 -35.5t35.5 -23.5t44 -8.5q24 0 44.5 8.5t35.5 23.5t23.5 35.5t8.5 43.5t-8.5 43.5t-23.5 35.5t-35.5 23.5t-44.5 8.5q-23 0 -44 -8.5t-35.5 -23.5t-23 -35.5t-8.5 -43.5z" />
    <glyph glyph-name="guillemotleft" unicode="&#xab;" horiz-adv-x="601" 
d="M459 77l-171 162q43 41 85.5 80.5t85.5 80.5v-48q-28 -28 -55.5 -56t-55.5 -57l111 -114v-48zM288 77l-171 162q43 41 85.5 80.5t85.5 80.5v-48q-28 -29 -55.5 -56.5t-55.5 -56.5l111 -114v-48z" />
    <glyph glyph-name="logicalnot" unicode="&#xac;" horiz-adv-x="559" 
d="M418 148v63h-318v33h360v-96h-42z" />
    <glyph glyph-name="uni00AD" unicode="&#xad;" horiz-adv-x="321" 
d="M40 229v78h242v-78h-242z" />
    <glyph glyph-name="registered" unicode="&#xae;" horiz-adv-x="801" 
d="M399 138q49 0 92 17.5t74.5 49t50 74t18.5 92.5q0 51 -18.5 94t-50 74.5t-74.5 49.5t-92 18q-48 0 -90.5 -18t-74 -49.5t-50 -74.5t-18.5 -94q0 -50 18.5 -92.5t50 -74t74 -49t90.5 -17.5zM400 115q-54 0 -101 19.5t-82 54t-55 81.5t-20 102q0 56 20 103t55 81.5t82 54
t101 19.5t101 -19.5t82 -54t55 -81.5t20 -103q0 -55 -20 -102t-55 -81.5t-82 -54t-101 -19.5zM311 229h28v293h-28v19h99q15 0 32.5 -5t32.5 -15.5t25.5 -27t10.5 -39.5q0 -33 -18 -55.5t-52 -30.5l65 -139h42v-19h-54l-74 157q-5 -1 -10.5 -1h-11.5h-39v-137h47v-19h-95v19
zM359 385h49q25 0 41 6.5t25.5 17t13.5 22.5t4 23q0 27 -24 47.5t-60 20.5h-49v-137z" />
    <glyph glyph-name="macron" unicode="&#xaf;" horiz-adv-x="399" 
d="M85 486v30h230v-30h-230z" />
    <glyph glyph-name="degree" unicode="&#xb0;" horiz-adv-x="282" 
d="M138 503q23 0 40 16.5t17 40.5q0 23 -17 39.5t-40 16.5q-24 0 -40.5 -16.5t-16.5 -39.5q0 -24 16.5 -40.5t40.5 -16.5zM51 559q0 37 25 62t62 25q36 0 61 -25t25 -62q0 -36 -25 -60.5t-61 -24.5q-37 0 -62 24.5t-25 60.5z" />
    <glyph glyph-name="plusminus" unicode="&#xb1;" horiz-adv-x="524" 
d="M245 211v160h-159v41h159v159h42v-159h159v-41h-159v-160h-42zM446 122h-360v40h360v-40z" />
    <glyph glyph-name="twosuperior" unicode="&#xb2;" horiz-adv-x="398" 
d="M154 395h135v52h19v-72h-205q31 31 60.5 60t52.5 57t36.5 54t13.5 49q0 24 -7 40.5t-17.5 26t-23 14t-23.5 4.5q-23 0 -37 -8t-22 -19.5t-11 -24.5t-3 -24q0 -18 4.5 -31t14.5 -24l-13 -12q-12 11 -19.5 29t-7.5 38q0 19 6 36.5t18 31t29.5 21t40.5 7.5q20 0 37.5 -7.5
t29.5 -21t18.5 -31.5t6.5 -39q0 -26 -12 -52.5t-31.5 -52.5t-43 -51t-46.5 -50z" />
    <glyph glyph-name="threesuperior" unicode="&#xb3;" horiz-adv-x="419" 
d="M132 551l90 129h-102v-30h-20v50h159l-87 -121q20 -2 37.5 -10t30.5 -21t20 -30.5t7 -38.5t-8 -40t-22 -33t-33 -22t-40 -8q-23 0 -42.5 9t-33.5 25l15 15q11 -13 26.5 -21t33.5 -8q17 0 32.5 7t26.5 18t18 26t7 32t-7 32t-18 26t-26.5 17.5t-32.5 6.5q-8 0 -16 -2.5
t-15 -7.5z" />
    <glyph glyph-name="acute" unicode="&#xb4;" horiz-adv-x="240" 
d="M100 479q23 33 45 66.5t45 66.5h43q-25 -33 -50 -66.5t-50 -66.5h-33z" />
    <glyph glyph-name="mu" unicode="&#xb5;" horiz-adv-x="545" 
d="M312 375h115v-339h71v-36h-108l-2 52v45q-20 -48 -64.5 -76.5t-99.5 -28.5q-26 0 -46.5 9.5t-32.5 26.5v-229h-42v536h-74v40h116v-260q2 -32 23.5 -56t63.5 -26q30 0 58 10.5t49 28.5t33.5 43t12.5 55v165h-73v40z" />
    <glyph glyph-name="paragraph" unicode="&#xb6;" horiz-adv-x="534" 
d="M243 0h-42v423q-34 0 -64 12.5t-52 34.5t-34.5 52t-12.5 64t12.5 64t34.5 52t52 35t64 13h297v-36h-92v-678h92v-36h-134v714h-121v-714z" />
    <glyph glyph-name="periodcentered" unicode="&#xb7;" horiz-adv-x="165" 
d="M53 281q0 14 10 23.5t23 9.5q12 0 22 -9.5t10 -23.5t-10 -23.5t-22 -9.5q-13 0 -23 9.5t-10 23.5z" />
    <glyph glyph-name="cedilla" unicode="&#xb8;" horiz-adv-x="452" 
d="M189 0h29v-6q0 -14 4 -22.5t10.5 -14.5t14 -10t13.5 -8q22 -15 31 -34.5t9 -37.5q0 -48 -25.5 -74.5t-66.5 -26.5q-29 0 -54.5 16t-36.5 49l14 6l14 6q5 -19 21 -31.5t39 -12.5q28 0 45 19t17 47q0 25 -12 38.5t-27 23.5t-27 20.5t-12 29.5v23z" />
    <glyph glyph-name="onesuperior" unicode="&#xb9;" horiz-adv-x="259" 
d="M71 419h37v262h-43v19h62v-281h37v-18h-93v18z" />
    <glyph glyph-name="ordmasculine" unicode="&#xba;" horiz-adv-x="469" 
d="M91 442q0 28 11 54t30.5 45.5t45 30.5t54.5 11q30 0 56 -11t45.5 -30.5t30.5 -45.5t11 -54q0 -30 -11 -55.5t-30.5 -44.5t-45.5 -30t-56 -11q-29 0 -54.5 11t-45 30t-30.5 44.5t-11 55.5zM121 442q0 -23 8.5 -43.5t23.5 -35.5t35.5 -23.5t43.5 -8.5t43.5 8.5t35.5 23.5
t23.5 35.5t8.5 43.5t-8.5 43t-23.5 35t-35.5 24t-43.5 9t-43.5 -9t-35.5 -24t-23.5 -35t-8.5 -43z" />
    <glyph glyph-name="guillemotright" unicode="&#xbb;" horiz-adv-x="601" 
d="M117 125l111 114q-28 29 -55.5 57t-55.5 56v48q43 -41 85.5 -80.5t85.5 -80.5l-171 -162v48zM288 125l111 114q-28 29 -55.5 56.5t-55.5 56.5v48q43 -41 85.5 -80.5t85.5 -80.5l-171 -162v48z" />
    <glyph glyph-name="onequarter" unicode="&#xbc;" horiz-adv-x="968" 
d="M279 -19q70 190 139 377.5t139 376.5h42q-70 -189 -139 -376.5t-139 -377.5h-42zM686 30h56v106h-241l272 354v-323h72v-31h-72v-106h62v-30h-149v30zM742 398l-177 -231h177v231zM142 262h56v404h-67v29h97v-433h57v-28h-143v28z" />
    <glyph glyph-name="onehalf" unicode="&#xbd;" horiz-adv-x="1069" 
d="M132 262h57v404h-68v29h97v-433h57v-28h-143v28zM646 29h193v74h28v-103h-294q45 44 87 86t74.5 82t52.5 77t20 71t-10.5 57t-25.5 37.5t-33 20.5t-34 6q-31 0 -51.5 -11.5t-32 -27.5t-16 -35.5t-4.5 -34.5q0 -25 7 -44t20 -34l-17 -18q-19 16 -29.5 42t-10.5 54t9 53
t26 44t42 30t57 11q30 0 54.5 -11t42 -30t27 -45t9.5 -56q0 -38 -17.5 -76t-45 -74.5t-61.5 -73t-67 -71.5zM279 -19q70 190 139 377.5t139 376.5h42q-70 -189 -139 -376.5t-139 -377.5h-42z" />
    <glyph glyph-name="threequarters" unicode="&#xbe;" horiz-adv-x="1276" 
d="M216 474l141 203h-161v-47h-31v78h250l-137 -190q31 -2 58.5 -15t48 -33.5t32 -48t11.5 -60.5t-13 -62.5t-35 -51.5t-51.5 -34.5t-62.5 -12.5q-36 0 -66.5 14t-52.5 38l24 24q17 -20 41 -32.5t52 -12.5q27 0 51 10.5t42 28.5t28 41.5t10 49.5q0 27 -10 50.5t-28 41
t-42 27.5t-51 10q-13 0 -25.5 -4t-22.5 -12zM454 -19q70 190 139 377.5t139 377.5h42q-70 -190 -139 -377.5t-139 -377.5h-42zM884 30h57v106h-241l272 354v-323h72v-31h-72v-106h62v-30h-150v30zM941 398l-178 -231h178v231z" />
    <glyph glyph-name="questiondown" unicode="&#xbf;" horiz-adv-x="427" 
d="M385.004 -38.9648q9 -4 18.499 -6.99902q9.5 -3 18.499 -6q-8.99902 -25.998 -24.998 -50.9971q-15.999 -24.998 -39.498 -44.9971q-23.498 -19.999 -54.9961 -32.498t-71.4961 -12.499q-40.9971 0 -76.9951 15.499t-62.4961 41.9971q-26.499 26.498 -41.498 61.9961
t-14.999 75.4961q0 53.9961 26.499 95.4941q26.498 41.4971 71.4951 73.4951q16.999 12.999 33.498 22.999q16.499 9.99902 29.498 22.498q13 12.499 20.999 31.498t7.99902 48.9971v77.9951h41.998v-96.9941q0 -30.998 -10.999 -50.4971q-11 -19.498 -28.499 -34.4971
t-39.9971 -28.499q-22.499 -13.499 -46.4971 -33.4971q-32.998 -26.999 -48.4971 -59.4971t-15.499 -69.4951q0 -32.998 11.499 -60.9971q11.499 -27.998 32.498 -48.9971q20.999 -20.998 48.9971 -32.498q27.998 -11.499 60.9961 -11.499q57.9961 0 97.4941 29.998
t56.4961 82.9951zM246.013 524.001q11.999 0 22.499 -9.49902q10.499 -9.5 10.499 -23.499t-10.499 -23.499q-10.5 -9.49902 -22.499 -9.49902t-21.998 9.49902q-10 9.5 -10 23.499t10 23.499q9.99902 9.49902 21.998 9.49902z" />
    <glyph glyph-name="Agrave" unicode="&#xc0;" horiz-adv-x="812" 
d="M35 40h77q74 174 147.5 346t146.5 346q73 -174 146.5 -346t146.5 -346h78v-40h-193v40h73q-28 65 -55 129.5t-55 130.5h-282q-28 -66 -55 -130.5t-55 -129.5h73v-40h-193v40zM415 611l-9 28q-2 -3 -5 -15q-2 -6 -5 -13q-10 -26 -23.5 -58.5t-28.5 -68t-30.5 -72.5
t-30.5 -72h246zM329 883q23 -33 45 -66.5t45 -66.5h-33q-25 33 -50 66.5t-50 66.5h43z" />
    <glyph glyph-name="Aacute" unicode="&#xc1;" horiz-adv-x="812" 
d="M391 750q23 33 45 66.5t45 66.5h43q-25 -33 -50 -66.5t-50 -66.5h-33zM35 40h77q74 174 147.5 346t146.5 346q73 -174 146.5 -346t146.5 -346h78v-40h-193v40h73q-28 65 -55 129.5t-55 130.5h-282q-28 -66 -55 -130.5t-55 -129.5h73v-40h-193v40zM415 611l-9 28
q-2 -3 -5 -15q-2 -6 -5 -13q-10 -26 -23.5 -58.5t-28.5 -68t-30.5 -72.5t-30.5 -72h246z" />
    <glyph glyph-name="Acircumflex" unicode="&#xc2;" horiz-adv-x="812" 
d="M406 931q30 -45 60 -90.5t60 -90.5h-33q-22 30 -43.5 60.5t-43.5 60.5q-22 -30 -43.5 -60.5t-43.5 -60.5h-33q30 45 60 90.5t60 90.5zM35 40h77q74 174 147.5 346t146.5 346q73 -174 146.5 -346t146.5 -346h78v-40h-193v40h73q-28 65 -55 129.5t-55 130.5h-282
q-28 -66 -55 -130.5t-55 -129.5h73v-40h-193v40zM415 611l-9 28q-2 -3 -5 -15q-2 -6 -5 -13q-10 -26 -23.5 -58.5t-28.5 -68t-30.5 -72.5t-30.5 -72h246z" />
    <glyph glyph-name="Atilde" unicode="&#xc3;" horiz-adv-x="812" 
d="M396 785q-15 17 -27 22.5t-26 5.5q-8 0 -17.5 -2t-18.5 -7.5t-16 -15.5t-9 -26q-6 1 -12.5 1t-12.5 1q1 19 9 33t20 23.5t27 14t29 4.5q21 0 38.5 -9.5t33.5 -26.5t28 -22.5t26 -5.5q7 0 17 2t19 7.5t15.5 15.5t8.5 26q7 -1 13.5 -1t12.5 -1q-1 -19 -9 -33t-20 -23.5
t-27 -14t-29 -4.5q-21 0 -38.5 9.5t-34.5 26.5zM35 40h77q74 174 147.5 346t146.5 346q73 -174 146.5 -346t146.5 -346h78v-40h-193v40h73q-28 65 -55 129.5t-55 130.5h-282q-28 -66 -55 -130.5t-55 -129.5h73v-40h-193v40zM415 611l-9 28q-2 -3 -5 -15q-2 -6 -5 -13
q-10 -26 -23.5 -58.5t-28.5 -68t-30.5 -72.5t-30.5 -72h246z" />
    <glyph glyph-name="Adieresis" unicode="&#xc4;" horiz-adv-x="812" 
d="M456 798q0 14 10 23.5t23 9.5t22.5 -9.5t9.5 -23.5t-9.5 -23.5t-22.5 -9.5t-23 9.5t-10 23.5zM291 798q0 14 10 23.5t23 9.5q12 0 22 -9.5t10 -23.5t-10 -23.5t-22 -9.5q-13 0 -23 9.5t-10 23.5zM35 40h77q74 174 147.5 346t146.5 346q73 -174 146.5 -346t146.5 -346h78
v-40h-193v40h73q-28 65 -55 129.5t-55 130.5h-282q-28 -66 -55 -130.5t-55 -129.5h73v-40h-193v40zM415 611l-9 28q-2 -3 -5 -15q-2 -6 -5 -13q-10 -26 -23.5 -58.5t-28.5 -68t-30.5 -72.5t-30.5 -72h246z" />
    <glyph glyph-name="Aring" unicode="&#xc5;" horiz-adv-x="812" 
d="M365 836q0 -17 12.5 -30t29.5 -13t30 13t13 30t-13 29.5t-30 12.5t-29.5 -12.5t-12.5 -29.5zM334 836q0 30 21.5 51.5t51.5 21.5t51.5 -21.5t21.5 -51.5t-21.5 -51.5t-51.5 -21.5t-51.5 21.5t-21.5 51.5zM35 40h77q74 174 147.5 346t146.5 346q73 -174 146.5 -346
t146.5 -346h78v-40h-193v40h73q-28 65 -55 129.5t-55 130.5h-282q-28 -66 -55 -130.5t-55 -129.5h73v-40h-193v40zM415 611l-9 28q-2 -3 -5 -15q-2 -6 -5 -13q-10 -26 -23.5 -58.5t-28.5 -68t-30.5 -72.5t-30.5 -72h246z" />
    <glyph glyph-name="AE" unicode="&#xc6;" horiz-adv-x="776" 
d="M687 546v114h-247v-287h248v-40h-248v-293h261v114h40v-154h-343v295h-134q-27 -64 -54 -127.5t-55 -127.5h73v-40h-193v40h78q71 166 140 330t139 330h335v-154h-40zM398 335v284q-25 -72 -56.5 -142.5t-60.5 -141.5h117z" />
    <glyph glyph-name="Ccedilla" unicode="&#xc7;" horiz-adv-x="595" 
d="M535 465v167q-32 17 -68.5 26.5t-74.5 9.5q-65 0 -122.5 -25.5t-100.5 -69t-67.5 -101.5t-24.5 -124q0 -65 24.5 -122.5t67.5 -100.5t99.5 -68t121.5 -25q45 0 85 11.5t76 32.5l23 -34q-39 -23 -83.5 -36t-92.5 -14v-8.5t1 -4.5q5 -18 17 -25.5t23 -14.5q22 -15 31 -34.5
t9 -37.5q0 -48 -25.5 -74.5t-66.5 -26.5q-29 0 -54 16t-36 49l27 12q6 -19 21.5 -31.5t38.5 -12.5q29 0 45.5 19t16.5 47q0 25 -12 38.5t-26.5 23.5t-26.5 20.5t-12 29.5v16q-70 4 -131 33.5t-106 77.5t-71 111t-26 134q0 74 28 139.5t76.5 114t113.5 77t139 28.5
q51 0 96.5 -13t86.5 -37v-193h-40z" />
    <glyph glyph-name="Egrave" unicode="&#xc8;" horiz-adv-x="571" 
d="M35 40h72v620h-72v40h487v-154h-40v114h-334v-287h335v-40h-335v-293h348v114h40v-154h-501v40zM220 883q23 -33 45 -66.5t45 -66.5h-33q-25 33 -50 66.5t-50 66.5h43z" />
    <glyph glyph-name="Eacute" unicode="&#xc9;" horiz-adv-x="571" 
d="M35 40h72v620h-72v40h487v-154h-40v114h-334v-287h335v-40h-335v-293h348v114h40v-154h-501v40zM271 750q23 33 45 66.5t45 66.5h43q-25 -33 -50 -66.5t-50 -66.5h-33z" />
    <glyph glyph-name="Ecircumflex" unicode="&#xca;" horiz-adv-x="571" 
d="M35 40h72v620h-72v40h487v-154h-40v114h-334v-287h335v-40h-335v-293h348v114h40v-154h-501v40zM300 931q30 -45 60 -90.5t60 -90.5h-33q-22 30 -43.5 60.5t-43.5 60.5q-22 -30 -43.5 -60.5t-43.5 -60.5h-33q30 45 60 90.5t60 90.5z" />
    <glyph glyph-name="Edieresis" unicode="&#xcb;" horiz-adv-x="571" 
d="M35 40h72v620h-72v40h487v-154h-40v114h-334v-287h335v-40h-335v-293h348v114h40v-154h-501v40zM344 798q0 14 10 23.5t23 9.5t22.5 -9.5t9.5 -23.5t-9.5 -23.5t-22.5 -9.5t-23 9.5t-10 23.5zM179 798q0 14 10 23.5t23 9.5q12 0 22 -9.5t10 -23.5t-10 -23.5t-22 -9.5
q-13 0 -23 9.5t-10 23.5z" />
    <glyph glyph-name="Igrave" unicode="&#xcc;" horiz-adv-x="271" 
d="M35 40h78v620h-78v40h201v-40h-82v-620h82v-40h-201v40zM52 883q23 -33 45 -66.5t45 -66.5h-33q-25 33 -50 66.5t-50 66.5h43z" />
    <glyph glyph-name="Iacute" unicode="&#xcd;" horiz-adv-x="271" 
d="M35 40h78v620h-78v40h201v-40h-82v-620h82v-40h-201v40zM125 750q23 33 45 66.5t45 66.5h43q-25 -33 -50 -66.5t-50 -66.5h-33z" />
    <glyph glyph-name="Icircumflex" unicode="&#xce;" horiz-adv-x="272" 
d="M35 40h78v620h-78v40h201v-40h-82v-620h82v-40h-201v40zM136 931q30 -45 60 -90.5t60 -90.5h-33q-22 30 -43.5 60.5t-43.5 60.5q-22 -30 -43.5 -60.5t-43.5 -60.5h-33q30 45 60 90.5t60 90.5z" />
    <glyph glyph-name="Idieresis" unicode="&#xcf;" horiz-adv-x="271" 
d="M35 40h78v620h-78v40h201v-40h-82v-620h82v-40h-201v40zM186 798q0 14 10 23.5t23 9.5t22.5 -9.5t9.5 -23.5t-9.5 -23.5t-22.5 -9.5t-23 9.5t-10 23.5zM21 798q0 14 10 23.5t23 9.5q12 0 22 -9.5t10 -23.5t-10 -23.5t-22 -9.5q-13 0 -23 9.5t-10 23.5z" />
    <glyph glyph-name="Eth" unicode="&#xd0;" horiz-adv-x="632" 
d="M44 372h54v288h-63v40h210q72 0 136 -24.5t112 -70t76 -110.5t28 -145q0 -59 -20.5 -121t-66.5 -113t-119.5 -83.5t-179.5 -32.5h-176v40h63v291h-54v41zM139 660v-288h207v-41h-207v-290h87q83 0 145 26.5t103 69.5t61.5 98.5t20.5 114.5q0 71 -24.5 128.5t-67 98
t-99 62t-120.5 21.5h-106z" />
    <glyph glyph-name="Ntilde" unicode="&#xd1;" horiz-adv-x="808" 
d="M35 40h81v620h-81v40h108l526 -612l19 -26l-3 32v566h-75v40h201v-40h-84v-692l-553 639l-19 22l3 -28v-561h78v-40h-201v40zM398 784q-15 17 -27 22.5t-26 5.5q-8 0 -17.5 -2t-18.5 -7.5t-16 -15.5t-9 -26q-6 1 -12.5 1t-12.5 1q1 19 9 33t20 23.5t27 14t29 4.5
q21 0 38.5 -9.5t33.5 -26.5t28 -22.5t26 -5.5q7 0 17 2t19 7.5t15.5 15.5t8.5 26q7 -1 13.5 -1t12.5 -1q-1 -19 -9 -33t-20 -23.5t-27 -14t-29 -4.5q-21 0 -38.5 9.5t-34.5 26.5z" />
    <glyph glyph-name="Ograve" unicode="&#xd2;" horiz-adv-x="786" 
d="M35 349q0 74 28 139.5t76.5 114t113.5 77t139 28.5t139.5 -28.5t114 -77t77 -114t28.5 -139.5t-28.5 -139t-77 -113.5t-114 -76.5t-139.5 -28t-139 28t-113.5 76.5t-76.5 113.5t-28 139zM77 348q0 -66 24.5 -123.5t67.5 -100t100 -67.5t122 -25t123 25t101.5 68
t68.5 100.5t25 123.5t-25 124t-68 101.5t-101 68.5t-123 25t-122.5 -25.5t-100.5 -69t-67.5 -101.5t-24.5 -124zM317 883q23 -33 45 -66.5t45 -66.5h-33q-25 33 -50 66.5t-50 66.5h43z" />
    <glyph glyph-name="Oacute" unicode="&#xd3;" horiz-adv-x="786" 
d="M35 349q0 74 28 139.5t76.5 114t113.5 77t139 28.5t139.5 -28.5t114 -77t77 -114t28.5 -139.5t-28.5 -139t-77 -113.5t-114 -76.5t-139.5 -28t-139 28t-113.5 76.5t-76.5 113.5t-28 139zM77 348q0 -66 24.5 -123.5t67.5 -100t100 -67.5t122 -25t123 25t101.5 68
t68.5 100.5t25 123.5t-25 124t-68 101.5t-101 68.5t-123 25t-122.5 -25.5t-100.5 -69t-67.5 -101.5t-24.5 -124zM393 750q23 33 45 66.5t45 66.5h43q-25 -33 -50 -66.5t-50 -66.5h-33z" />
    <glyph glyph-name="Ocircumflex" unicode="&#xd4;" horiz-adv-x="786" 
d="M35 349q0 74 28 139.5t76.5 114t113.5 77t139 28.5t139.5 -28.5t114 -77t77 -114t28.5 -139.5t-28.5 -139t-77 -113.5t-114 -76.5t-139.5 -28t-139 28t-113.5 76.5t-76.5 113.5t-28 139zM77 348q0 -66 24.5 -123.5t67.5 -100t100 -67.5t122 -25t123 25t101.5 68
t68.5 100.5t25 123.5t-25 124t-68 101.5t-101 68.5t-123 25t-122.5 -25.5t-100.5 -69t-67.5 -101.5t-24.5 -124zM397 931q30 -45 60 -90.5t60 -90.5h-33q-22 30 -43.5 60.5t-43.5 60.5q-22 -30 -43.5 -60.5t-43.5 -60.5h-33q30 45 60 90.5t60 90.5z" />
    <glyph glyph-name="Otilde" unicode="&#xd5;" horiz-adv-x="786" 
d="M35 349q0 74 28 139.5t76.5 114t113.5 77t139 28.5t139.5 -28.5t114 -77t77 -114t28.5 -139.5t-28.5 -139t-77 -113.5t-114 -76.5t-139.5 -28t-139 28t-113.5 76.5t-76.5 113.5t-28 139zM77 348q0 -66 24.5 -123.5t67.5 -100t100 -67.5t122 -25t123 25t101.5 68
t68.5 100.5t25 123.5t-25 124t-68 101.5t-101 68.5t-123 25t-122.5 -25.5t-100.5 -69t-67.5 -101.5t-24.5 -124zM388 818q-15 17 -27 22.5t-26 5.5q-8 0 -17.5 -2t-18.5 -7.5t-16 -15.5t-9 -26q-6 1 -12.5 1t-12.5 1q1 19 9 33t20 23.5t27 14t29 4.5q21 0 38.5 -9.5
t33.5 -26.5t28 -22.5t26 -5.5q7 0 17 2t19 7.5t15.5 15.5t8.5 26q7 -1 13.5 -1t12.5 -1q-1 -19 -9 -33t-20 -23.5t-27 -14t-29 -4.5q-21 0 -38.5 9.5t-34.5 26.5z" />
    <glyph glyph-name="Odieresis" unicode="&#xd6;" horiz-adv-x="786" 
d="M35 349q0 74 28 139.5t76.5 114t113.5 77t139 28.5t139.5 -28.5t114 -77t77 -114t28.5 -139.5t-28.5 -139t-77 -113.5t-114 -76.5t-139.5 -28t-139 28t-113.5 76.5t-76.5 113.5t-28 139zM77 348q0 -66 24.5 -123.5t67.5 -100t100 -67.5t122 -25t123 25t101.5 68
t68.5 100.5t25 123.5t-25 124t-68 101.5t-101 68.5t-123 25t-122.5 -25.5t-100.5 -69t-67.5 -101.5t-24.5 -124zM447 798q0 14 10 23.5t23 9.5t22.5 -9.5t9.5 -23.5t-9.5 -23.5t-22.5 -9.5t-23 9.5t-10 23.5zM282 798q0 14 10 23.5t23 9.5q12 0 22 -9.5t10 -23.5t-10 -23.5
t-22 -9.5q-13 0 -23 9.5t-10 23.5z" />
    <glyph glyph-name="multiply" unicode="&#xd7;" horiz-adv-x="500" 
d="M377 0q-29 29 -57 56.5t-57 56.5q-28 -28 -55.5 -56t-56.5 -57q-7 8 -14.5 15t-14.5 14l56.5 56.5t55.5 56.5l-112 112l30 30l112 -112q29 29 56.5 56t56.5 56q7 -7 14 -14.5t15 -14.5q-29 -28 -56.5 -56t-56.5 -56q29 -29 56.5 -57t56.5 -56z" />
    <glyph glyph-name="Oslash" unicode="&#xd8;" horiz-adv-x="786" 
d="M77 348q0 -66 24.5 -124t68.5 -101q103 122 204 242t204 241q-40 29 -87 45.5t-99 16.5q-65 0 -122.5 -25.5t-100.5 -69t-67.5 -101.5t-24.5 -124zM390 32q66 0 124 25t101.5 68t68.5 100.5t25 123.5q0 69 -27.5 128.5t-75.5 103.5q-103 -121 -203.5 -241.5
t-203.5 -241.5q40 -32 88.5 -49t102.5 -17zM35 349q0 74 28 139.5t76.5 114t113.5 77t139 28.5q60 0 114 -18.5t99 -52.5l63 75l14 -12t14 -13q-16 -19 -31 -37t-31 -37q54 -49 85.5 -117.5t31.5 -146.5q0 -74 -28.5 -139t-77 -113.5t-114 -76.5t-139.5 -28q-63 0 -118.5 20
t-100.5 55q-17 -20 -33.5 -39.5t-33.5 -39.5q-7 7 -14 13t-14 13l66 78q-51 49 -80 115t-29 142z" />
    <glyph glyph-name="Ugrave" unicode="&#xd9;" horiz-adv-x="696" 
d="M35 700h201v-40h-82v-431q0 -48 14.5 -84.5t40 -61.5t61 -38t78.5 -13q42 0 77.5 13t61.5 38t40.5 61.5t14.5 84.5v431h-82v40h201v-40h-77v-434q0 -57 -18 -101t-50 -73.5t-75 -44.5t-93 -15q-51 0 -94 15t-74.5 44.5t-49.5 73.5t-18 101v434h-77v40zM271 883
q23 -33 45 -66.5t45 -66.5h-33q-25 33 -50 66.5t-50 66.5h43z" />
    <glyph glyph-name="Uacute" unicode="&#xda;" horiz-adv-x="696" 
d="M35 700h201v-40h-82v-431q0 -48 14.5 -84.5t40 -61.5t61 -38t78.5 -13q42 0 77.5 13t61.5 38t40.5 61.5t14.5 84.5v431h-82v40h201v-40h-77v-434q0 -57 -18 -101t-50 -73.5t-75 -44.5t-93 -15q-51 0 -94 15t-74.5 44.5t-49.5 73.5t-18 101v434h-77v40zM339 750
q23 33 45 66.5t45 66.5h43q-25 -33 -50 -66.5t-50 -66.5h-33z" />
    <glyph glyph-name="Ucircumflex" unicode="&#xdb;" horiz-adv-x="696" 
d="M35 700h201v-40h-82v-431q0 -48 14.5 -84.5t40 -61.5t61 -38t78.5 -13q42 0 77.5 13t61.5 38t40.5 61.5t14.5 84.5v431h-82v40h201v-40h-77v-434q0 -57 -18 -101t-50 -73.5t-75 -44.5t-93 -15q-51 0 -94 15t-74.5 44.5t-49.5 73.5t-18 101v434h-77v40zM350 931
q30 -45 60 -90.5t60 -90.5h-33q-22 30 -43.5 60.5t-43.5 60.5q-22 -30 -43.5 -60.5t-43.5 -60.5h-33q30 45 60 90.5t60 90.5z" />
    <glyph glyph-name="Udieresis" unicode="&#xdc;" horiz-adv-x="696" 
d="M35 700h201v-40h-82v-431q0 -48 14.5 -84.5t40 -61.5t61 -38t78.5 -13q42 0 77.5 13t61.5 38t40.5 61.5t14.5 84.5v431h-82v40h201v-40h-77v-434q0 -57 -18 -101t-50 -73.5t-75 -44.5t-93 -15q-51 0 -94 15t-74.5 44.5t-49.5 73.5t-18 101v434h-77v40zM397 799
q0 14 10 23.5t23 9.5t22.5 -9.5t9.5 -23.5t-9.5 -23.5t-22.5 -9.5t-23 9.5t-10 23.5zM232 799q0 14 10 23.5t23 9.5q12 0 22 -9.5t10 -23.5t-10 -23.5t-22 -9.5q-13 0 -23 9.5t-10 23.5z" />
    <glyph glyph-name="Yacute" unicode="&#xdd;" horiz-adv-x="746" 
d="M275 40h74v225q-60 99 -118.5 197.5t-117.5 197.5h-78v40h201v-40h-73q100 -165 198 -330l12 -28h1l11 28l197 330h-72v40h201v-40h-78q-59 -100 -117.5 -198t-117.5 -197v-225h78v-40h-201v40zM372 750q23 33 45 66.5t45 66.5h43q-25 -33 -50 -66.5t-50 -66.5h-33z" />
    <glyph glyph-name="Thorn" unicode="&#xde;" horiz-adv-x="506" 
d="M35 40h71v620h-71v40h193v-40h-80v-125h108q31 0 68.5 -10t70 -32t54.5 -57t22 -84q0 -86 -55 -137t-158 -51h-110v-124h88v-40h-201v40zM148 205h103q52 0 86.5 14t55 36t28.5 47.5t8 49.5q0 28 -13.5 54t-37 46t-56 31.5t-70.5 11.5h-104v-290z" />
    <glyph glyph-name="germandbls" unicode="&#xdf;" horiz-adv-x="549" 
d="M35 40h74v316h-63v40h63v29q0 55 15.5 98t42.5 72.5t62.5 45.5t74.5 17q31 -1 58 -13t47 -32.5t31.5 -47.5t11.5 -58q0 -38 -20.5 -69.5t-52.5 -48.5q29 -10 54 -28.5t43 -43t28 -54.5t10 -63q0 -43 -17 -81t-45.5 -66t-67 -44.5t-81.5 -16.5q-53 0 -98 25l17 36
q36 -21 80 -21q35 0 66 13.5t54 36.5t36.5 53.5t13.5 64.5t-13.5 64t-36.5 52.5t-54 35.5t-65 13v21v21q45 0 76 27t31 71q0 22 -8 42t-22 36t-33.5 25t-42.5 9q-32 0 -60 -13.5t-49 -38.5t-33 -60.5t-12 -79.5v-425h-115v40z" />
    <glyph glyph-name="agrave" unicode="&#xe0;" horiz-adv-x="538" 
d="M35 188q0 40 15.5 75.5t42 62t62.5 42t77 15.5q29 0 55 -8.5t47 -22t35.5 -31t21.5 -34.5q0 22 1.5 44t2.5 44h34v-335h74v-40h-112v40q0 12 0.5 23.5t0.5 22.5q-7 -17 -21.5 -34t-35 -30t-47 -21t-56.5 -8q-41 0 -77 15.5t-62.5 41.5t-42 61.5t-15.5 76.5zM77 188
q0 -32 12 -60t32.5 -49t49 -33t61.5 -12t61 12t49 33t33 49t12 60t-12 60.5t-33 49.5t-49 33t-61 12t-61.5 -12t-49 -33t-32.5 -49.5t-12 -60.5zM170 612q23 -33 45 -66.5t45 -66.5h-33q-25 33 -50 66.5t-50 66.5h43z" />
    <glyph glyph-name="aacute" unicode="&#xe1;" horiz-adv-x="538" 
d="M35 188q0 40 15.5 75.5t42 62t62.5 42t77 15.5q29 0 55 -8.5t47 -22t35.5 -31t21.5 -34.5q0 22 1.5 44t2.5 44h34v-335h74v-40h-112v40q0 12 0.5 23.5t0.5 22.5q-7 -17 -21.5 -34t-35 -30t-47 -21t-56.5 -8q-41 0 -77 15.5t-62.5 41.5t-42 61.5t-15.5 76.5zM77 188
q0 -32 12 -60t32.5 -49t49 -33t61.5 -12t61 12t49 33t33 49t12 60t-12 60.5t-33 49.5t-49 33t-61 12t-61.5 -12t-49 -33t-32.5 -49.5t-12 -60.5zM232 479q23 33 45 66.5t45 66.5h43q-25 -33 -50 -66.5t-50 -66.5h-33z" />
    <glyph glyph-name="acircumflex" unicode="&#xe2;" horiz-adv-x="538" 
d="M35 188q0 40 15.5 75.5t42 62t62.5 42t77 15.5q29 0 55 -8.5t47 -22t35.5 -31t21.5 -34.5q0 22 1.5 44t2.5 44h34v-335h74v-40h-112v40q0 12 0.5 23.5t0.5 22.5q-7 -17 -21.5 -34t-35 -30t-47 -21t-56.5 -8q-41 0 -77 15.5t-62.5 41.5t-42 61.5t-15.5 76.5zM77 188
q0 -32 12 -60t32.5 -49t49 -33t61.5 -12t61 12t49 33t33 49t12 60t-12 60.5t-33 49.5t-49 33t-61 12t-61.5 -12t-49 -33t-32.5 -49.5t-12 -60.5zM261 660q30 -45 60 -90.5t60 -90.5h-33q-22 30 -43.5 60.5t-43.5 60.5q-22 -30 -43.5 -60.5t-43.5 -60.5h-33q30 45 60 90.5
t60 90.5z" />
    <glyph glyph-name="atilde" unicode="&#xe3;" horiz-adv-x="538" 
d="M35 188q0 40 15.5 75.5t42 62t62.5 42t77 15.5q29 0 55 -8.5t47 -22t35.5 -31t21.5 -34.5q0 22 1.5 44t2.5 44h34v-335h74v-40h-112v40q0 12 0.5 23.5t0.5 22.5q-7 -17 -21.5 -34t-35 -30t-47 -21t-56.5 -8q-41 0 -77 15.5t-62.5 41.5t-42 61.5t-15.5 76.5zM77 188
q0 -32 12 -60t32.5 -49t49 -33t61.5 -12t61 12t49 33t33 49t12 60t-12 60.5t-33 49.5t-49 33t-61 12t-61.5 -12t-49 -33t-32.5 -49.5t-12 -60.5zM226 491q-15 17 -27 22.5t-26 5.5q-8 0 -17.5 -2t-18.5 -7.5t-16 -15.5t-9 -26q-6 1 -12.5 1t-12.5 1q1 19 9 33t20 23.5t27 14
t29 4.5q21 0 38.5 -9.5t33.5 -26.5t28 -22.5t26 -5.5q7 0 17 2t19 7.5t15.5 15.5t8.5 26q7 -1 13.5 -1t12.5 -1q-1 -19 -9 -33t-20 -23.5t-27 -14t-29 -4.5q-21 0 -38.5 9.5t-34.5 26.5z" />
    <glyph glyph-name="adieresis" unicode="&#xe4;" horiz-adv-x="538" 
d="M35 188q0 40 15.5 75.5t42 62t62.5 42t77 15.5q29 0 55 -8.5t47 -22t35.5 -31t21.5 -34.5q0 22 1.5 44t2.5 44h34v-335h74v-40h-112v40q0 12 0.5 23.5t0.5 22.5q-7 -17 -21.5 -34t-35 -30t-47 -21t-56.5 -8q-41 0 -77 15.5t-62.5 41.5t-42 61.5t-15.5 76.5zM77 188
q0 -32 12 -60t32.5 -49t49 -33t61.5 -12t61 12t49 33t33 49t12 60t-12 60.5t-33 49.5t-49 33t-61 12t-61.5 -12t-49 -33t-32.5 -49.5t-12 -60.5zM292 508q0 14 10 23.5t23 9.5t22.5 -9.5t9.5 -23.5t-9.5 -23.5t-22.5 -9.5t-23 9.5t-10 23.5zM127 508q0 14 10 23.5t23 9.5
q12 0 22 -9.5t10 -23.5t-10 -23.5t-22 -9.5q-13 0 -23 9.5t-10 23.5z" />
    <glyph glyph-name="aring" unicode="&#xe5;" horiz-adv-x="538" 
d="M203 540q0 -17 12.5 -30t29.5 -13t30 13t13 30t-13 29.5t-30 12.5t-29.5 -12.5t-12.5 -29.5zM172 540q0 30 21.5 51.5t51.5 21.5t51.5 -21.5t21.5 -51.5t-21.5 -51.5t-51.5 -21.5t-51.5 21.5t-21.5 51.5zM35 188q0 40 15.5 75.5t42 62t62.5 42t77 15.5q29 0 55 -8.5
t47 -22t35.5 -31t21.5 -34.5q0 22 1.5 44t2.5 44h34v-335h74v-40h-112v40q0 12 0.5 23.5t0.5 22.5q-7 -17 -21.5 -34t-35 -30t-47 -21t-56.5 -8q-41 0 -77 15.5t-62.5 41.5t-42 61.5t-15.5 76.5zM77 188q0 -32 12 -60t32.5 -49t49 -33t61.5 -12t61 12t49 33t33 49t12 60
t-12 60.5t-33 49.5t-49 33t-61 12t-61.5 -12t-49 -33t-32.5 -49.5t-12 -60.5z" />
    <glyph glyph-name="ae" unicode="&#xe6;" horiz-adv-x="593" 
d="M348 241v-38q39 15 78.5 30.5t78.5 30.5q-17 35 -49 56t-70 21q-17 0 -31.5 -3.5t-28.5 -8.5q13 -14 17.5 -35.5t4.5 -52.5zM306 160h-78h-40.5t-50 -5.5t-42.5 -17.5t-18 -36q0 -22 11 -35.5t28.5 -21t38 -10.5t39.5 -3t39 3t36.5 11t26.5 22.5t10 38.5v54zM86 309
q-7 7 -13 14t-13 14q10 9 25.5 17.5t33.5 14.5t37.5 9.5t36.5 3.5q74 0 108 -19q41 19 85 19q30 0 57 -10.5t49.5 -29.5t39.5 -44.5t26 -56.5q-52 -20 -104.5 -41t-105.5 -41v-31q0 -29 -5.5 -48.5t-20.5 -34.5q27 -13 64 -13q31 0 58 11t47 31q7 -8 13 -15t13 -15
q-26 -25 -59 -39t-72 -14q-50 0 -89 21q-37 -22 -104 -22q-36 0 -65 5.5t-49.5 18t-32 34t-11.5 54.5q0 28 12.5 47.5t33.5 31.5t47.5 17t54.5 5h123v40q0 25 -4 43.5t-16 30.5t-34.5 18t-59.5 6q-13 0 -28.5 -3t-30 -7.5t-27.5 -10t-20 -11.5z" />
    <glyph glyph-name="ccedilla" unicode="&#xe7;" horiz-adv-x="391" 
d="M330 67l26 -31q-6 -5 -22.5 -13.5t-35.5 -16.5t-36.5 -13t-24.5 -3q0 -12 4.5 -20t10.5 -13.5t13.5 -9.5t13.5 -8q22 -15 31 -34.5t9 -37.5q0 -45 -22 -69t-55 -29q-18 -3 -36 1q-23 4 -41.5 19t-27.5 42l27 12q6 -20 21.5 -32t38.5 -12q28 0 45 19t17 47q0 25 -12 38.5
t-26.5 23.5t-26.5 20.5t-12 29.5v19q-37 4 -68.5 20t-55 41.5t-37 59t-13.5 71.5q0 40 15.5 76t42 62t62.5 41.5t77 15.5q36 0 67.5 -11.5t56.5 -31.5v-99h-38v75q-19 13 -40.5 20t-45.5 7q-33 0 -61.5 -12t-49 -33t-32.5 -49.5t-12 -60.5t12 -60t32.5 -49t49 -33t61.5 -12
q56 0 98 33z" />
    <glyph glyph-name="egrave" unicode="&#xe8;" horiz-adv-x="441" 
d="M231 343q-37 0 -67.5 -15.5t-51.5 -41t-29.5 -59t-1.5 -68.5q67 27 134 53.5t135 53.5q-17 34 -49 55.5t-70 21.5zM403 243q-78 -31 -155 -61.5t-155 -61.5q17 -38 54 -62t84 -24q31 0 58 11t47 31q7 -8 13 -15.5t13 -15.5q-26 -24 -59 -38t-72 -14q-41 0 -76.5 15.5
t-62 41.5t-42 61.5t-15.5 76.5q0 40 15.5 76t42 62t62 41.5t76.5 15.5q30 0 57 -10.5t49.5 -29t39.5 -44t26 -56.5zM150 612q23 -33 45 -66.5t45 -66.5h-33q-25 33 -50 66.5t-50 66.5h43z" />
    <glyph glyph-name="eacute" unicode="&#xe9;" horiz-adv-x="441" 
d="M231 343q-37 0 -67.5 -15.5t-51.5 -41t-29.5 -59t-1.5 -68.5q67 27 134 53.5t135 53.5q-17 34 -49 55.5t-70 21.5zM403 243q-78 -31 -155 -61.5t-155 -61.5q17 -38 54 -62t84 -24q31 0 58 11t47 31q7 -8 13 -15.5t13 -15.5q-26 -24 -59 -38t-72 -14q-41 0 -76.5 15.5
t-62 41.5t-42 61.5t-15.5 76.5q0 40 15.5 76t42 62t62 41.5t76.5 15.5q30 0 57 -10.5t49.5 -29t39.5 -44t26 -56.5zM227 479q23 33 45 66.5t45 66.5h43q-25 -33 -50 -66.5t-50 -66.5h-33z" />
    <glyph glyph-name="ecircumflex" unicode="&#xea;" horiz-adv-x="441" 
d="M231 343q-37 0 -67.5 -15.5t-51.5 -41t-29.5 -59t-1.5 -68.5q67 27 134 53.5t135 53.5q-17 34 -49 55.5t-70 21.5zM403 243q-78 -31 -155 -61.5t-155 -61.5q17 -38 54 -62t84 -24q31 0 58 11t47 31q7 -8 13 -15.5t13 -15.5q-26 -24 -59 -38t-72 -14q-41 0 -76.5 15.5
t-62 41.5t-42 61.5t-15.5 76.5q0 40 15.5 76t42 62t62 41.5t76.5 15.5q30 0 57 -10.5t49.5 -29t39.5 -44t26 -56.5zM230 660q30 -45 60 -90.5t60 -90.5h-33q-22 30 -43.5 60.5t-43.5 60.5q-22 -30 -43.5 -60.5t-43.5 -60.5h-33q30 45 60 90.5t60 90.5z" />
    <glyph glyph-name="edieresis" unicode="&#xeb;" horiz-adv-x="441" 
d="M231 343q-37 0 -67.5 -15.5t-51.5 -41t-29.5 -59t-1.5 -68.5q67 27 134 53.5t135 53.5q-17 34 -49 55.5t-70 21.5zM403 243q-78 -31 -155 -61.5t-155 -61.5q17 -38 54 -62t84 -24q31 0 58 11t47 31q7 -8 13 -15.5t13 -15.5q-26 -24 -59 -38t-72 -14q-41 0 -76.5 15.5
t-62 41.5t-42 61.5t-15.5 76.5q0 40 15.5 76t42 62t62 41.5t76.5 15.5q30 0 57 -10.5t49.5 -29t39.5 -44t26 -56.5zM282 508q0 14 10 23.5t23 9.5t22.5 -9.5t9.5 -23.5t-9.5 -23.5t-22.5 -9.5t-23 9.5t-10 23.5zM117 508q0 14 10 23.5t23 9.5q12 0 22 -9.5t10 -23.5
t-10 -23.5t-22 -9.5q-13 0 -23 9.5t-10 23.5z" />
    <glyph glyph-name="igrave" unicode="&#xec;" horiz-adv-x="263" 
d="M35 40h77v295h-77v40h119v-335h74v-40h-193v40zM57 612q23 -33 45 -66.5t45 -66.5h-33q-25 33 -50 66.5t-50 66.5h43z" />
    <glyph glyph-name="iacute" unicode="&#xed;" horiz-adv-x="263" 
d="M35 40h77v295h-77v40h119v-335h74v-40h-193v40zM118 479q23 33 45 66.5t45 66.5h43q-25 -33 -50 -66.5t-50 -66.5h-33z" />
    <glyph glyph-name="icircumflex" unicode="&#xee;" horiz-adv-x="263" 
d="M35 40h77v295h-77v40h119v-335h74v-40h-193v40zM134 660q30 -45 60 -90.5t60 -90.5h-33q-22 30 -43.5 60.5t-43.5 60.5q-22 -30 -43.5 -60.5t-43.5 -60.5h-33q30 45 60 90.5t60 90.5z" />
    <glyph glyph-name="idieresis" unicode="&#xef;" horiz-adv-x="263" 
d="M35 40h77v295h-77v40h119v-335h74v-40h-193v40zM184 508q0 14 10 23.5t23 9.5t22.5 -9.5t9.5 -23.5t-9.5 -23.5t-22.5 -9.5t-23 9.5t-10 23.5zM19 508q0 14 10 23.5t23 9.5q12 0 22 -9.5t10 -23.5t-10 -23.5t-22 -9.5q-13 0 -23 9.5t-10 23.5z" />
    <glyph glyph-name="eth" unicode="&#xf0;" horiz-adv-x="464" 
d="M77 188q0 -32 12 -60t33 -49t49.5 -32.5t61.5 -11.5t61.5 12.5t49 33.5t32 49t11.5 60q0 33 -12.5 61t-33.5 49t-49 32.5t-61 11.5t-61.5 -12.5t-49 -33.5t-32 -49.5t-11.5 -60.5zM123 541q17 18 34 36.5t34 36.5q-45 50 -93 89l28 28q48 -38 93 -87q15 17 30.5 33
t29.5 33q8 -6 14.5 -12t13.5 -12q-16 -18 -31.5 -35.5t-32.5 -35.5q37 -45 71 -97.5t59.5 -107.5t40.5 -110.5t15 -107.5q0 -41 -15 -76.5t-41 -62.5t-62 -42.5t-77 -16.5q-41 0 -77 14.5t-63 41t-42.5 61.5t-16.5 76q0 40 14.5 76t41 62.5t62 42.5t76.5 16q38 1 70 -14.5
t54 -41.5q-13 50 -46 116.5t-93 138.5q-16 -17 -31.5 -34t-31.5 -34q-7 7 -14 13t-14 13z" />
    <glyph glyph-name="ntilde" unicode="&#xf1;" horiz-adv-x="545" 
d="M317 40h78v220q-2 32 -23.5 56t-63.5 26q-30 0 -58 -10.5t-49.5 -28.5t-34 -43t-12.5 -55v-165h74v-40h-193v40h78v295h-72v40h106l1 -35q1 -17 2 -31t1 -31q20 47 64.5 76t100.5 29q55 0 87 -31t34 -81v-231h73v-40h-193v40zM268 483q-15 17 -27 22.5t-26 5.5
q-8 0 -17.5 -2t-18.5 -7.5t-16 -15.5t-9 -26q-6 1 -12.5 1t-12.5 1q1 19 9 33t20 23.5t27 14t29 4.5q21 0 38.5 -9.5t33.5 -26.5t28 -22.5t26 -5.5q7 0 17 2t19 7.5t15.5 15.5t8.5 26q7 -1 13.5 -1t12.5 -1q-1 -19 -9 -33t-20 -23.5t-27 -14t-29 -4.5q-21 0 -38.5 9.5
t-34.5 26.5z" />
    <glyph glyph-name="ograve" unicode="&#xf2;" horiz-adv-x="465" 
d="M36 188q0 40 15.5 76t42 62.5t62 42t76.5 15.5t77 -15.5t63 -42t42.5 -62.5t15.5 -76q0 -41 -15.5 -76.5t-42.5 -61.5t-63 -41.5t-77 -15.5t-76.5 15.5t-62 41.5t-42 61.5t-15.5 76.5zM77 188q0 -32 12 -60t33 -49t49 -33t60 -12t60.5 12t49.5 33t33 49t12 60t-12 60
t-33 49t-49.5 33.5t-60.5 12.5t-60 -12.5t-49 -33.5t-33 -49t-12 -60zM154 612q23 -33 45 -66.5t45 -66.5h-33q-25 33 -50 66.5t-50 66.5h43z" />
    <glyph glyph-name="oacute" unicode="&#xf3;" horiz-adv-x="465" 
d="M36 188q0 40 15.5 76t42 62.5t62 42t76.5 15.5t77 -15.5t63 -42t42.5 -62.5t15.5 -76q0 -41 -15.5 -76.5t-42.5 -61.5t-63 -41.5t-77 -15.5t-76.5 15.5t-62 41.5t-42 61.5t-15.5 76.5zM77 188q0 -32 12 -60t33 -49t49 -33t60 -12t60.5 12t49.5 33t33 49t12 60t-12 60
t-33 49t-49.5 33.5t-60.5 12.5t-60 -12.5t-49 -33.5t-33 -49t-12 -60zM231 479q23 33 45 66.5t45 66.5h43q-25 -33 -50 -66.5t-50 -66.5h-33z" />
    <glyph glyph-name="ocircumflex" unicode="&#xf4;" horiz-adv-x="465" 
d="M36 188q0 40 15.5 76t42 62.5t62 42t76.5 15.5t77 -15.5t63 -42t42.5 -62.5t15.5 -76q0 -41 -15.5 -76.5t-42.5 -61.5t-63 -41.5t-77 -15.5t-76.5 15.5t-62 41.5t-42 61.5t-15.5 76.5zM77 188q0 -32 12 -60t33 -49t49 -33t60 -12t60.5 12t49.5 33t33 49t12 60t-12 60
t-33 49t-49.5 33.5t-60.5 12.5t-60 -12.5t-49 -33.5t-33 -49t-12 -60zM235 660q30 -45 60 -90.5t60 -90.5h-33q-22 30 -43.5 60.5t-43.5 60.5q-22 -30 -43.5 -60.5t-43.5 -60.5h-33q30 45 60 90.5t60 90.5z" />
    <glyph glyph-name="otilde" unicode="&#xf5;" horiz-adv-x="465" 
d="M36 188q0 40 15.5 76t42 62.5t62 42t76.5 15.5t77 -15.5t63 -42t42.5 -62.5t15.5 -76q0 -41 -15.5 -76.5t-42.5 -61.5t-63 -41.5t-77 -15.5t-76.5 15.5t-62 41.5t-42 61.5t-15.5 76.5zM77 188q0 -32 12 -60t33 -49t49 -33t60 -12t60.5 12t49.5 33t33 49t12 60t-12 60
t-33 49t-49.5 33.5t-60.5 12.5t-60 -12.5t-49 -33.5t-33 -49t-12 -60zM232 491q-15 17 -27 22.5t-26 5.5q-8 0 -17.5 -2t-18.5 -7.5t-16 -15.5t-9 -26q-6 1 -12.5 1t-12.5 1q1 19 9 33t20 23.5t27 14t29 4.5q21 0 38.5 -9.5t33.5 -26.5t28 -22.5t26 -5.5q7 0 17 2t19 7.5
t15.5 15.5t8.5 26q7 -1 13.5 -1t12.5 -1q-1 -19 -9 -33t-20 -23.5t-27 -14t-29 -4.5q-21 0 -38.5 9.5t-34.5 26.5z" />
    <glyph glyph-name="odieresis" unicode="&#xf6;" horiz-adv-x="465" 
d="M36 188q0 40 15.5 76t42 62.5t62 42t76.5 15.5t77 -15.5t63 -42t42.5 -62.5t15.5 -76q0 -41 -15.5 -76.5t-42.5 -61.5t-63 -41.5t-77 -15.5t-76.5 15.5t-62 41.5t-42 61.5t-15.5 76.5zM77 188q0 -32 12 -60t33 -49t49 -33t60 -12t60.5 12t49.5 33t33 49t12 60t-12 60
t-33 49t-49.5 33.5t-60.5 12.5t-60 -12.5t-49 -33.5t-33 -49t-12 -60zM285 508q0 14 10 23.5t23 9.5t22.5 -9.5t9.5 -23.5t-9.5 -23.5t-22.5 -9.5t-23 9.5t-10 23.5zM120 508q0 14 10 23.5t23 9.5q12 0 22 -9.5t10 -23.5t-10 -23.5t-22 -9.5q-13 0 -23 9.5t-10 23.5z" />
    <glyph glyph-name="divide" unicode="&#xf7;" horiz-adv-x="501" 
d="M428 208h-360v41h360v-41zM218 354q0 14 10 23.5t23 9.5t22.5 -9.5t9.5 -23.5t-9.5 -23.5t-22.5 -9.5t-23 9.5t-10 23.5zM218 104q0 14 10 23.5t23 9.5t22.5 -9.5t9.5 -23.5t-9.5 -23.5t-22.5 -9.5t-23 9.5t-10 23.5z" />
    <glyph glyph-name="oslash" unicode="&#xf8;" horiz-adv-x="463" 
d="M77 188q0 -30 10.5 -56.5t28.5 -46.5q50 59 98.5 117t98.5 117q-17 11 -38 17.5t-44 6.5q-33 0 -61 -12t-48.5 -33t-32.5 -49.5t-12 -60.5zM231 34q33 0 61.5 12t49.5 33t33 49t12 60q0 33 -13 62t-36 50q-50 -60 -99.5 -118.5t-99.5 -117.5q39 -30 92 -30zM35 188
q0 40 15.5 76t42 62t62 41.5t76.5 15.5q31 0 58.5 -8.5t50.5 -23.5q8 10 17 19.5t17 19.5q6 -5 11.5 -10.5t11.5 -10.5q-8 -9 -16 -18.5t-16 -19.5q29 -26 46.5 -63.5t17.5 -79.5q0 -41 -15.5 -76.5t-42.5 -61.5t-63 -41.5t-77 -15.5q-34 0 -64 10.5t-55 29.5l-20 -24
l-20 -24l-12 10l-12 10q11 12 20.5 24t20.5 24q-26 26 -40 60.5t-14 74.5z" />
    <glyph glyph-name="ugrave" unicode="&#xf9;" horiz-adv-x="539" 
d="M35 375h115v-260q2 -32 23.5 -56t63.5 -26q31 0 59 10.5t49 28.5t33.5 43t12.5 55v165h-74v40h116v-339h71v-36h-108l-2 52v45q-20 -48 -64.5 -76.5t-99.5 -28.5t-87 31t-34 81v231h-74v40zM184 612q23 -33 45 -66.5t45 -66.5h-33q-25 33 -50 66.5t-50 66.5h43z" />
    <glyph glyph-name="uacute" unicode="&#xfa;" horiz-adv-x="539" 
d="M35 375h115v-260q2 -32 23.5 -56t63.5 -26q31 0 59 10.5t49 28.5t33.5 43t12.5 55v165h-74v40h116v-339h71v-36h-108l-2 52v45q-20 -48 -64.5 -76.5t-99.5 -28.5t-87 31t-34 81v231h-74v40zM231 479q23 33 45 66.5t45 66.5h43q-25 -33 -50 -66.5t-50 -66.5h-33z" />
    <glyph glyph-name="ucircumflex" unicode="&#xfb;" horiz-adv-x="539" 
d="M35 375h115v-260q2 -32 23.5 -56t63.5 -26q31 0 59 10.5t49 28.5t33.5 43t12.5 55v165h-74v40h116v-339h71v-36h-108l-2 52v45q-20 -48 -64.5 -76.5t-99.5 -28.5t-87 31t-34 81v231h-74v40zM266 660q30 -45 60 -90.5t60 -90.5h-33q-22 30 -43.5 60.5t-43.5 60.5
q-22 -30 -43.5 -60.5t-43.5 -60.5h-33q30 45 60 90.5t60 90.5z" />
    <glyph glyph-name="udieresis" unicode="&#xfc;" horiz-adv-x="539" 
d="M35 375h115v-260q2 -32 23.5 -56t63.5 -26q31 0 59 10.5t49 28.5t33.5 43t12.5 55v165h-74v40h116v-339h71v-36h-108l-2 52v45q-20 -48 -64.5 -76.5t-99.5 -28.5t-87 31t-34 81v231h-74v40zM311 508q0 14 10 23.5t23 9.5t22.5 -9.5t9.5 -23.5t-9.5 -23.5t-22.5 -9.5
t-23 9.5t-10 23.5zM146 508q0 14 10 23.5t23 9.5q12 0 22 -9.5t10 -23.5t-10 -23.5t-22 -9.5q-13 0 -23 9.5t-10 23.5z" />
    <glyph glyph-name="yacute" unicode="&#xfd;" horiz-adv-x="601" 
d="M92 -210h85q26 52 52 104.5t52 103.5q-43 85 -85 168.5t-84 168.5h-77v40h185v-40h-63q37 -75 74.5 -148.5t71.5 -148.5q32 72 70 147l76 150h-58v40h175v-40h-73q-69 -137 -136 -272.5t-136 -272.5h64v-40h-193v40zM298 479q23 33 45 66.5t45 66.5h43q-25 -33 -50 -66.5
t-50 -66.5h-33z" />
    <glyph glyph-name="thorn" unicode="&#xfe;" horiz-adv-x="503" 
d="M16 -210h77v920h-77v40h193v-40h-74v-373q-2 -13 -3 -26t-2 -25q7 18 22 35t36 30.5t47 21.5t55 8q41 0 77 -15.5t62.5 -41.5t42 -61.5t15.5 -75.5t-15.5 -75.5t-42 -62t-62.5 -42t-77 -15.5q-30 0 -55.5 8t-46 20.5t-35.5 29t-22 34.5l2 -20l2 -20v-254h82v-40h-201v40z
M445 187q0 33 -12 61t-32.5 48.5t-49 32.5t-61.5 12t-61.5 -12t-49 -32.5t-32.5 -48.5t-12 -61q0 -32 12 -60.5t32.5 -49.5t49 -33t61.5 -12t61.5 12t49 33t32.5 49.5t12 60.5z" />
    <glyph glyph-name="ydieresis" unicode="&#xff;" horiz-adv-x="601" 
d="M92 -210h85q26 52 52 104.5t52 103.5q-43 85 -85 168.5t-84 168.5h-77v40h185v-40h-63q37 -75 74.5 -148.5t71.5 -148.5q32 72 70 147l76 150h-58v40h175v-40h-73q-69 -137 -136 -272.5t-136 -272.5h64v-40h-193v40zM354 508q0 14 10 23.5t23 9.5t22.5 -9.5t9.5 -23.5
t-9.5 -23.5t-22.5 -9.5t-23 9.5t-10 23.5zM189 508q0 14 10 23.5t23 9.5q12 0 22 -9.5t10 -23.5t-10 -23.5t-22 -9.5q-13 0 -23 9.5t-10 23.5z" />
    <glyph glyph-name="Amacron" unicode="&#x100;" horiz-adv-x="639" 
d="M178 842h297v-71h-297v71zM35 40h77q74 174 147.5 346t146.5 346q73 -174 146.5 -346t146.5 -346h78v-40h-193v40h73q-28 65 -55 129.5t-55 130.5h-282q-28 -66 -55 -130.5t-55 -129.5h73v-40h-193v40zM415 611l-9 28q-2 -3 -5 -15q-2 -6 -5 -13q-10 -26 -23.5 -58.5
t-28.5 -68t-30.5 -72.5t-30.5 -72h246z" />
    <glyph glyph-name="amacron" unicode="&#x101;" horiz-adv-x="561" 
d="M143 677h297v-71h-297v71zM35 188q0 40 15.5 75.5t42 62t62.5 42t77 15.5q29 0 55 -8.5t47 -22t35.5 -31t21.5 -34.5q0 22 1.5 44t2.5 44h34v-335h74v-40h-112v40q0 12 0.5 23.5t0.5 22.5q-7 -17 -21.5 -34t-35 -30t-47 -21t-56.5 -8q-41 0 -77 15.5t-62.5 41.5t-42 61.5
t-15.5 76.5zM77 188q0 -32 12 -60t32.5 -49t49 -33t61.5 -12t61 12t49 33t33 49t12 60t-12 60.5t-33 49.5t-49 33t-61 12t-61.5 -12t-49 -33t-32.5 -49.5t-12 -60.5z" />
    <glyph glyph-name="Abreve" unicode="&#x102;" horiz-adv-x="639" 
d="M316 771q-69 0 -108.5 33.5t-44.5 100.5h54q4 -35 24.5 -49t76.5 -14q49 0 73 15.5t28 47.5h55q-6 -64 -48 -99t-110 -35zM35 40h77q74 174 147.5 346t146.5 346q73 -174 146.5 -346t146.5 -346h78v-40h-193v40h73q-28 65 -55 129.5t-55 130.5h-282q-28 -66 -55 -130.5
t-55 -129.5h73v-40h-193v40zM415 611l-9 28q-2 -3 -5 -15q-2 -6 -5 -13q-10 -26 -23.5 -58.5t-28.5 -68t-30.5 -72.5t-30.5 -72h246z" />
    <glyph glyph-name="abreve" unicode="&#x103;" horiz-adv-x="561" 
d="M281 606q-69 0 -108.5 33.5t-44.5 100.5h54q4 -35 24.5 -49t76.5 -14q49 0 73 15.5t28 47.5h55q-6 -64 -48 -99t-110 -35zM35 188q0 40 15.5 75.5t42 62t62.5 42t77 15.5q29 0 55 -8.5t47 -22t35.5 -31t21.5 -34.5q0 22 1.5 44t2.5 44h34v-335h74v-40h-112v40
q0 12 0.5 23.5t0.5 22.5q-7 -17 -21.5 -34t-35 -30t-47 -21t-56.5 -8q-41 0 -77 15.5t-62.5 41.5t-42 61.5t-15.5 76.5zM77 188q0 -32 12 -60t32.5 -49t49 -33t61.5 -12t61 12t49 33t33 49t12 60t-12 60.5t-33 49.5t-49 33t-61 12t-61.5 -12t-49 -33t-32.5 -49.5t-12 -60.5z
" />
    <glyph glyph-name="Aogonek" unicode="&#x104;" horiz-adv-x="639" 
d="M540 -116q0 -22 12 -33.5t33 -11.5t48 6v-56q-34 -9 -62 -9q-103 0 -103 94q0 68 78 126h62q-34 -32 -51 -58.5t-17 -57.5zM35 40h77q74 174 147.5 346t146.5 346q73 -174 146.5 -346t146.5 -346h78v-40h-193v40h73q-28 65 -55 129.5t-55 130.5h-282q-28 -66 -55 -130.5
t-55 -129.5h73v-40h-193v40zM415 611l-9 28q-2 -3 -5 -15q-2 -6 -5 -13q-10 -26 -23.5 -58.5t-28.5 -68t-30.5 -72.5t-30.5 -72h246z" />
    <glyph glyph-name="aogonek" unicode="&#x105;" horiz-adv-x="561" 
d="M410 -116q0 -22 12 -33.5t33 -11.5t48 6v-56q-34 -9 -62 -9q-103 0 -103 94q0 68 78 126h62q-34 -32 -51 -58.5t-17 -57.5zM35 188q0 40 15.5 75.5t42 62t62.5 42t77 15.5q29 0 55 -8.5t47 -22t35.5 -31t21.5 -34.5q0 22 1.5 44t2.5 44h34v-335h74v-40h-112v40
q0 12 0.5 23.5t0.5 22.5q-7 -17 -21.5 -34t-35 -30t-47 -21t-56.5 -8q-41 0 -77 15.5t-62.5 41.5t-42 61.5t-15.5 76.5zM77 188q0 -32 12 -60t32.5 -49t49 -33t61.5 -12t61 12t49 33t33 49t12 60t-12 60.5t-33 49.5t-49 33t-61 12t-61.5 -12t-49 -33t-32.5 -49.5t-12 -60.5z
" />
    <glyph glyph-name="Cacute" unicode="&#x106;" horiz-adv-x="631" 
d="M535 546v86q-32 17 -68.5 26.5t-74.5 9.5q-65 0 -122.5 -25.5t-100.5 -69t-67.5 -101.5t-24.5 -124q0 -65 24.5 -122.5t67.5 -100.5t99.5 -68t121.5 -25q45 0 85 11.5t76 32.5l23 -34q-40 -23 -85.5 -36.5t-96.5 -13.5q-74 0 -139 28t-113.5 76.5t-76.5 113.5t-28 139
t28 139.5t76.5 114t113.5 77t139 28.5q51 0 96.5 -13t86.5 -37v-112h-40zM229 644q23 33 45 66.5t45 66.5h43q-25 -33 -50 -66.5t-50 -66.5h-33z" />
    <glyph glyph-name="cacute" unicode="&#x107;" horiz-adv-x="479" 
d="M355 36q-26 -20 -57 -31.5t-67 -11.5q-41 0 -76.5 15.5t-62 41.5t-42 61.5t-15.5 76.5q0 40 15.5 76t42 62t62 41.5t76.5 15.5q36 0 68 -11.5t57 -31.5v-98h-38v74q-19 13 -40.5 20t-46.5 7q-33 0 -61 -12t-48.5 -33t-32.5 -49.5t-12 -60.5t12 -60t32.5 -49t48.5 -33
t61 -12q57 0 98 33zM135 479q23 33 45 66.5t45 66.5h43q-25 -33 -50 -66.5t-50 -66.5h-33z" />
    <glyph glyph-name="Ccircumflex" unicode="&#x108;" horiz-adv-x="631" 
d="M220 782q61 65 86 96.5t37 52.5h90q25 -49 125 -149v-11h-62q-44 26 -109 90q-64 -62 -107 -90h-60v11zM535 546v86q-32 17 -68.5 26.5t-74.5 9.5q-65 0 -122.5 -25.5t-100.5 -69t-67.5 -101.5t-24.5 -124q0 -65 24.5 -122.5t67.5 -100.5t99.5 -68t121.5 -25
q45 0 85 11.5t76 32.5l23 -34q-40 -23 -85.5 -36.5t-96.5 -13.5q-74 0 -139 28t-113.5 76.5t-76.5 113.5t-28 139t28 139.5t76.5 114t113.5 77t139 28.5q51 0 96.5 -13t86.5 -37v-112h-40z" />
    <glyph glyph-name="ccircumflex" unicode="&#x109;" horiz-adv-x="479" 
d="M118 617q61 65 86 96.5t37 52.5h90q25 -49 125 -149v-11h-62q-44 26 -109 90q-64 -62 -107 -90h-60v11zM355 36q-26 -20 -57 -31.5t-67 -11.5q-41 0 -76.5 15.5t-62 41.5t-42 61.5t-15.5 76.5q0 40 15.5 76t42 62t62 41.5t76.5 15.5q36 0 68 -11.5t57 -31.5v-98h-38v74
q-19 13 -40.5 20t-46.5 7q-33 0 -61 -12t-48.5 -33t-32.5 -49.5t-12 -60.5t12 -60t32.5 -49t48.5 -33t61 -12q57 0 98 33z" />
    <glyph glyph-name="Cdotaccent" unicode="&#x10a;" horiz-adv-x="631" 
d="M337 846q0 29 15 42.5t37 13.5q21 0 36 -13.5t15 -42.5t-15.5 -42.5t-35.5 -13.5q-22 0 -37 13.5t-15 42.5zM535 546v86q-32 17 -68.5 26.5t-74.5 9.5q-65 0 -122.5 -25.5t-100.5 -69t-67.5 -101.5t-24.5 -124q0 -65 24.5 -122.5t67.5 -100.5t99.5 -68t121.5 -25
q45 0 85 11.5t76 32.5l23 -34q-40 -23 -85.5 -36.5t-96.5 -13.5q-74 0 -139 28t-113.5 76.5t-76.5 113.5t-28 139t28 139.5t76.5 114t113.5 77t139 28.5q51 0 96.5 -13t86.5 -37v-112h-40z" />
    <glyph glyph-name="cdotaccent" unicode="&#x10b;" horiz-adv-x="479" 
d="M241 681q0 29 15 42.5t37 13.5q21 0 36 -13.5t15 -42.5t-15.5 -42.5t-35.5 -13.5q-22 0 -37 13.5t-15 42.5zM355 36q-26 -20 -57 -31.5t-67 -11.5q-41 0 -76.5 15.5t-62 41.5t-42 61.5t-15.5 76.5q0 40 15.5 76t42 62t62 41.5t76.5 15.5q36 0 68 -11.5t57 -31.5v-98h-38
v74q-19 13 -40.5 20t-46.5 7q-33 0 -61 -12t-48.5 -33t-32.5 -49.5t-12 -60.5t12 -60t32.5 -49t48.5 -33t61 -12q57 0 98 33z" />
    <glyph glyph-name="Ccaron" unicode="&#x10c;" horiz-adv-x="631" 
d="M220 931h60q56 -36 107 -92q62 62 109 92h62v-13q-100 -100 -125 -147h-90q-29 50 -123 147v13zM535 546v86q-32 17 -68.5 26.5t-74.5 9.5q-65 0 -122.5 -25.5t-100.5 -69t-67.5 -101.5t-24.5 -124q0 -65 24.5 -122.5t67.5 -100.5t99.5 -68t121.5 -25q45 0 85 11.5
t76 32.5l23 -34q-40 -23 -85.5 -36.5t-96.5 -13.5q-74 0 -139 28t-113.5 76.5t-76.5 113.5t-28 139t28 139.5t76.5 114t113.5 77t139 28.5q51 0 96.5 -13t86.5 -37v-112h-40z" />
    <glyph glyph-name="ccaron" unicode="&#x10d;" horiz-adv-x="479" 
d="M122 766h60q56 -36 107 -92q62 62 109 92h62v-13q-100 -100 -125 -147h-90q-29 50 -123 147v13zM355 36q-26 -20 -57 -31.5t-67 -11.5q-41 0 -76.5 15.5t-62 41.5t-42 61.5t-15.5 76.5q0 40 15.5 76t42 62t62 41.5t76.5 15.5q36 0 68 -11.5t57 -31.5v-98h-38v74
q-19 13 -40.5 20t-46.5 7q-33 0 -61 -12t-48.5 -33t-32.5 -49.5t-12 -60.5t12 -60t32.5 -49t48.5 -33t61 -12q57 0 98 33z" />
    <glyph glyph-name="Dcaron" unicode="&#x10e;" horiz-adv-x="729" 
d="M170 931h60q56 -36 107 -92q62 62 109 92h62v-13q-100 -100 -125 -147h-90q-29 50 -123 147v13zM35 40h63v620h-63v40h210q72 0 136 -24.5t112 -70t76 -110.5t28 -145q0 -59 -20.5 -121t-66.5 -113t-119.5 -83.5t-179.5 -32.5h-176v40zM139 660v-620h87q83 0 145 26.5
t103 70t61.5 99t20.5 114.5q0 71 -24.5 128.5t-67 98t-99 62t-120.5 21.5h-106z" />
    <glyph glyph-name="dcaron" unicode="&#x10f;" horiz-adv-x="615" 
d="M575 612q11 32 20.5 77.5t12.5 70.5h87v-9q-6 -26 -27 -71t-45 -80h-48v12zM391 40q0 12 0.5 23.5t0.5 22.5q-7 -17 -21.5 -34t-35 -30t-47 -21t-56.5 -8q-41 0 -77 15.5t-62.5 41.5t-42 61.5t-15.5 76.5q0 40 15.5 75.5t42 62t62.5 42t77 15.5q29 0 54.5 -8t46.5 -21.5
t36 -30.5t22 -35l-2 42l-2 42v338h-70v40h112v-710h74v-40h-112v40zM77 188q0 -32 12 -60t32.5 -49t49 -33t61.5 -12t61 12t49 33t33 49t12 60t-12 60.5t-33 49.5t-49 33t-61 12t-61.5 -12t-49 -33t-32.5 -49.5t-12 -60.5z" />
    <glyph glyph-name="Dcroat" unicode="&#x110;" horiz-adv-x="729" 
d="M44 372h54v288h-63v40h210q72 0 136 -24.5t112 -70t76 -110.5t28 -145q0 -59 -20.5 -121t-66.5 -113t-119.5 -83.5t-179.5 -32.5h-176v40h63v291h-54v41zM139 660v-288h207v-41h-207v-290h87q83 0 145 26.5t103 69.5t61.5 98.5t20.5 114.5q0 71 -24.5 128.5t-67 98
t-99 62t-120.5 21.5h-106z" />
    <glyph glyph-name="dcroat" unicode="&#x111;" horiz-adv-x="617" 
d="M275 -10q-104 0 -162 72t-58 203q0 132 57.5 205t162.5 73q109 0 167 -79h6q-1 7 -3.5 33.5t-2.5 46.5v61h-213v66h213v89h88v-89h76v-66h-76v-605h-72l-13 72h-4q-56 -82 -166 -82zM290 63q80 0 116.5 43t36.5 142v17q0 112 -37 158.5t-118 46.5q-68 0 -104.5 -52
t-36.5 -154q0 -96 35 -148.5t108 -52.5z" />
    <glyph glyph-name="Emacron" unicode="&#x112;" horiz-adv-x="556" 
d="M148 842h297v-71h-297v71zM35 40h72v620h-72v40h487v-154h-40v114h-334v-287h335v-40h-335v-293h348v114h40v-154h-501v40z" />
    <glyph glyph-name="emacron" unicode="&#x113;" horiz-adv-x="563" 
d="M150 677h297v-71h-297v71zM231 343q-37 0 -67.5 -15.5t-51.5 -41t-29.5 -59t-1.5 -68.5q67 27 134 53.5t135 53.5q-17 34 -49 55.5t-70 21.5zM403 243q-78 -31 -155 -61.5t-155 -61.5q17 -38 54 -62t84 -24q31 0 58 11t47 31q7 -8 13 -15.5t13 -15.5q-26 -24 -59 -38
t-72 -14q-41 0 -76.5 15.5t-62 41.5t-42 61.5t-15.5 76.5q0 40 15.5 76t42 62t62 41.5t76.5 15.5q30 0 57 -10.5t49.5 -29t39.5 -44t26 -56.5z" />
    <glyph glyph-name="Ebreve" unicode="&#x114;" horiz-adv-x="556" 
d="M299 771q-69 0 -108.5 33.5t-44.5 100.5h54q4 -35 24.5 -49t76.5 -14q49 0 73 15.5t28 47.5h55q-6 -64 -48 -99t-110 -35zM35 40h72v620h-72v40h487v-154h-40v114h-334v-287h335v-40h-335v-293h348v114h40v-154h-501v40z" />
    <glyph glyph-name="ebreve" unicode="&#x115;" horiz-adv-x="563" 
d="M292 606q-69 0 -108.5 33.5t-44.5 100.5h54q4 -35 24.5 -49t76.5 -14q49 0 73 15.5t28 47.5h55q-6 -64 -48 -99t-110 -35zM231 343q-37 0 -67.5 -15.5t-51.5 -41t-29.5 -59t-1.5 -68.5q67 27 134 53.5t135 53.5q-17 34 -49 55.5t-70 21.5zM403 243q-78 -31 -155 -61.5
t-155 -61.5q17 -38 54 -62t84 -24q31 0 58 11t47 31q7 -8 13 -15.5t13 -15.5q-26 -24 -59 -38t-72 -14q-41 0 -76.5 15.5t-62 41.5t-42 61.5t-15.5 76.5q0 40 15.5 76t42 62t62 41.5t76.5 15.5q30 0 57 -10.5t49.5 -29t39.5 -44t26 -56.5z" />
    <glyph glyph-name="Edotaccent" unicode="&#x116;" horiz-adv-x="556" 
d="M253 832q0 29 15 42.5t37 13.5q21 0 36 -13.5t15 -42.5t-15.5 -42.5t-35.5 -13.5q-22 0 -37 13.5t-15 42.5zM35 40h72v620h-72v40h487v-154h-40v114h-334v-287h335v-40h-335v-293h348v114h40v-154h-501v40z" />
    <glyph glyph-name="edotaccent" unicode="&#x117;" horiz-adv-x="563" 
d="M243 681q0 29 15 42.5t37 13.5q21 0 36 -13.5t15 -42.5t-15.5 -42.5t-35.5 -13.5q-22 0 -37 13.5t-15 42.5zM231 343q-37 0 -67.5 -15.5t-51.5 -41t-29.5 -59t-1.5 -68.5q67 27 134 53.5t135 53.5q-17 34 -49 55.5t-70 21.5zM403 243q-78 -31 -155 -61.5t-155 -61.5
q17 -38 54 -62t84 -24q31 0 58 11t47 31q7 -8 13 -15.5t13 -15.5q-26 -24 -59 -38t-72 -14q-41 0 -76.5 15.5t-62 41.5t-42 61.5t-15.5 76.5q0 40 15.5 76t42 62t62 41.5t76.5 15.5q30 0 57 -10.5t49.5 -29t39.5 -44t26 -56.5z" />
    <glyph glyph-name="Eogonek" unicode="&#x118;" horiz-adv-x="556" 
d="M392 -116q0 -22 12 -33.5t33 -11.5t48 6v-56q-34 -9 -62 -9q-103 0 -103 94q0 68 78 126h62q-34 -32 -51 -58.5t-17 -57.5zM35 40h72v620h-72v40h487v-154h-40v114h-334v-287h335v-40h-335v-293h348v114h40v-154h-501v40z" />
    <glyph glyph-name="eogonek" unicode="&#x119;" horiz-adv-x="563" 
d="M387 -102q0 -22 12 -33.5t33 -11.5t48 6v-56q-34 -9 -62 -9q-103 0 -103 94q0 68 78 126h62q-34 -32 -51 -58.5t-17 -57.5zM231 343q-37 0 -67.5 -15.5t-51.5 -41t-29.5 -59t-1.5 -68.5q67 27 134 53.5t135 53.5q-17 34 -49 55.5t-70 21.5zM403 243q-78 -31 -155 -61.5
t-155 -61.5q17 -38 54 -62t84 -24q31 0 58 11t47 31q7 -8 13 -15.5t13 -15.5q-26 -24 -59 -38t-72 -14q-41 0 -76.5 15.5t-62 41.5t-42 61.5t-15.5 76.5q0 40 15.5 76t42 62t62 41.5t76.5 15.5q30 0 57 -10.5t49.5 -29t39.5 -44t26 -56.5z" />
    <glyph glyph-name="Ecaron" unicode="&#x11a;" horiz-adv-x="556" 
d="M133 931h60q56 -36 107 -92q62 62 109 92h62v-13q-100 -100 -125 -147h-90q-29 50 -123 147v13zM35 40h72v620h-72v40h487v-154h-40v114h-334v-287h335v-40h-335v-293h348v114h40v-154h-501v40z" />
    <glyph glyph-name="ecaron" unicode="&#x11b;" horiz-adv-x="563" 
d="M126 766h60q56 -36 107 -92q62 62 109 92h62v-13q-100 -100 -125 -147h-90q-29 50 -123 147v13zM231 343q-37 0 -67.5 -15.5t-51.5 -41t-29.5 -59t-1.5 -68.5q67 27 134 53.5t135 53.5q-17 34 -49 55.5t-70 21.5zM403 243q-78 -31 -155 -61.5t-155 -61.5q17 -38 54 -62
t84 -24q31 0 58 11t47 31q7 -8 13 -15.5t13 -15.5q-26 -24 -59 -38t-72 -14q-41 0 -76.5 15.5t-62 41.5t-42 61.5t-15.5 76.5q0 40 15.5 76t42 62t62 41.5t76.5 15.5q30 0 57 -10.5t49.5 -29t39.5 -44t26 -56.5z" />
    <glyph glyph-name="Gcircumflex" unicode="&#x11c;" horiz-adv-x="728" 
d="M248 782q61 65 86 96.5t37 52.5h90q25 -49 125 -149v-11h-62q-44 26 -109 90q-64 -62 -107 -90h-60v11zM574 298v-258q-40 -23 -85.5 -36.5t-96.5 -13.5q-74 0 -139 28t-113.5 76.5t-76.5 113.5t-28 139t28 139.5t76.5 114t113.5 77t139 28.5q51 0 96.5 -13t86.5 -37
l-23 -34q-35 21 -75.5 32.5t-84.5 11.5q-65 0 -122.5 -25.5t-100.5 -69t-67.5 -101.5t-24.5 -124q0 -65 24.5 -122.5t67.5 -100.5t99.5 -68t121.5 -25q76 0 142 34v194h-144v40h186z" />
    <glyph glyph-name="gcircumflex" unicode="&#x11d;" horiz-adv-x="615" 
d="M132 617q61 65 86 96.5t37 52.5h90q25 -49 125 -149v-11h-62q-44 26 -109 90q-64 -62 -107 -90h-60v11zM395 375h109v-40h-75v-370q0 -49 -15 -88.5t-41 -67.5t-60.5 -43t-74.5 -16q-42 1 -84.5 16t-69.5 44l30 31q22 -24 56 -36t67 -12q31 0 58.5 12.5t47.5 35.5
t32 55.5t12 71.5v72q1 11 2 22.5t2 22.5q-8 -18 -22.5 -34.5t-35 -29t-46.5 -20.5t-55 -8q-41 0 -77 15.5t-62.5 41.5t-42 61.5t-15.5 76.5q0 40 15.5 75.5t42 62t62.5 42t77 15.5q29 0 55 -8.5t47 -22t35.5 -31t21.5 -34.5q0 22 1.5 44t2.5 44zM77 188q0 -32 12 -60
t32.5 -49t49 -33t61.5 -12t61 12t49 33t33 49t12 60t-12 60.5t-33 49.5t-49 33t-61 12t-61.5 -12t-49 -33t-32.5 -49.5t-12 -60.5z" />
    <glyph glyph-name="Gbreve" unicode="&#x11e;" horiz-adv-x="728" 
d="M414 771q-69 0 -108.5 33.5t-44.5 100.5h54q4 -35 24.5 -49t76.5 -14q49 0 73 15.5t28 47.5h55q-6 -64 -48 -99t-110 -35zM574 298v-258q-40 -23 -85.5 -36.5t-96.5 -13.5q-74 0 -139 28t-113.5 76.5t-76.5 113.5t-28 139t28 139.5t76.5 114t113.5 77t139 28.5
q51 0 96.5 -13t86.5 -37l-23 -34q-35 21 -75.5 32.5t-84.5 11.5q-65 0 -122.5 -25.5t-100.5 -69t-67.5 -101.5t-24.5 -124q0 -65 24.5 -122.5t67.5 -100.5t99.5 -68t121.5 -25q76 0 142 34v194h-144v40h186z" />
    <glyph glyph-name="gbreve" unicode="&#x11f;" horiz-adv-x="615" 
d="M300 606q-69 0 -108.5 33.5t-44.5 100.5h54q4 -35 24.5 -49t76.5 -14q49 0 73 15.5t28 47.5h55q-6 -64 -48 -99t-110 -35zM395 375h109v-40h-75v-370q0 -49 -15 -88.5t-41 -67.5t-60.5 -43t-74.5 -16q-42 1 -84.5 16t-69.5 44l30 31q22 -24 56 -36t67 -12q31 0 58.5 12.5
t47.5 35.5t32 55.5t12 71.5v72q1 11 2 22.5t2 22.5q-8 -18 -22.5 -34.5t-35 -29t-46.5 -20.5t-55 -8q-41 0 -77 15.5t-62.5 41.5t-42 61.5t-15.5 76.5q0 40 15.5 75.5t42 62t62.5 42t77 15.5q29 0 55 -8.5t47 -22t35.5 -31t21.5 -34.5q0 22 1.5 44t2.5 44zM77 188
q0 -32 12 -60t32.5 -49t49 -33t61.5 -12t61 12t49 33t33 49t12 60t-12 60.5t-33 49.5t-49 33t-61 12t-61.5 -12t-49 -33t-32.5 -49.5t-12 -60.5z" />
    <glyph glyph-name="Gdotaccent" unicode="&#x120;" horiz-adv-x="728" 
d="M371 846q0 29 15 42.5t37 13.5q21 0 36 -13.5t15 -42.5t-15.5 -42.5t-35.5 -13.5q-22 0 -37 13.5t-15 42.5zM574 298v-258q-40 -23 -85.5 -36.5t-96.5 -13.5q-74 0 -139 28t-113.5 76.5t-76.5 113.5t-28 139t28 139.5t76.5 114t113.5 77t139 28.5q51 0 96.5 -13t86.5 -37
l-23 -34q-35 21 -75.5 32.5t-84.5 11.5q-65 0 -122.5 -25.5t-100.5 -69t-67.5 -101.5t-24.5 -124q0 -65 24.5 -122.5t67.5 -100.5t99.5 -68t121.5 -25q76 0 142 34v194h-144v40h186z" />
    <glyph glyph-name="gdotaccent" unicode="&#x121;" horiz-adv-x="615" 
d="M247 681q0 29 15 42.5t37 13.5q21 0 36 -13.5t15 -42.5t-15.5 -42.5t-35.5 -13.5q-22 0 -37 13.5t-15 42.5zM395 375h109v-40h-75v-370q0 -49 -15 -88.5t-41 -67.5t-60.5 -43t-74.5 -16q-42 1 -84.5 16t-69.5 44l30 31q22 -24 56 -36t67 -12q31 0 58.5 12.5t47.5 35.5
t32 55.5t12 71.5v72q1 11 2 22.5t2 22.5q-8 -18 -22.5 -34.5t-35 -29t-46.5 -20.5t-55 -8q-41 0 -77 15.5t-62.5 41.5t-42 61.5t-15.5 76.5q0 40 15.5 75.5t42 62t62.5 42t77 15.5q29 0 55 -8.5t47 -22t35.5 -31t21.5 -34.5q0 22 1.5 44t2.5 44zM77 188q0 -32 12 -60
t32.5 -49t49 -33t61.5 -12t61 12t49 33t33 49t12 60t-12 60.5t-33 49.5t-49 33t-61 12t-61.5 -12t-49 -33t-32.5 -49.5t-12 -60.5z" />
    <glyph glyph-name="uni0122" unicode="&#x122;" horiz-adv-x="728" 
d="M322 -209q11 25 24 70.5t17 77.5h87v-9q-8 -31 -31.5 -76.5t-48.5 -74.5h-48v12zM574 298v-258q-40 -23 -85.5 -36.5t-96.5 -13.5q-74 0 -139 28t-113.5 76.5t-76.5 113.5t-28 139t28 139.5t76.5 114t113.5 77t139 28.5q51 0 96.5 -13t86.5 -37l-23 -34
q-35 21 -75.5 32.5t-84.5 11.5q-65 0 -122.5 -25.5t-100.5 -69t-67.5 -101.5t-24.5 -124q0 -65 24.5 -122.5t67.5 -100.5t99.5 -68t121.5 -25q76 0 142 34v194h-144v40h186z" />
    <glyph glyph-name="uni0123" unicode="&#x123;" horiz-adv-x="615" 
d="M379 754q-13 -29 -26 -74.5t-16 -73.5h-87v9q7 27 31.5 74t48.5 77h49v-12zM395 375h109v-40h-75v-370q0 -49 -15 -88.5t-41 -67.5t-60.5 -43t-74.5 -16q-42 1 -84.5 16t-69.5 44l30 31q22 -24 56 -36t67 -12q31 0 58.5 12.5t47.5 35.5t32 55.5t12 71.5v72q1 11 2 22.5
t2 22.5q-8 -18 -22.5 -34.5t-35 -29t-46.5 -20.5t-55 -8q-41 0 -77 15.5t-62.5 41.5t-42 61.5t-15.5 76.5q0 40 15.5 75.5t42 62t62.5 42t77 15.5q29 0 55 -8.5t47 -22t35.5 -31t21.5 -34.5q0 22 1.5 44t2.5 44zM77 188q0 -32 12 -60t32.5 -49t49 -33t61.5 -12t61 12t49 33
t33 49t12 60t-12 60.5t-33 49.5t-49 33t-61 12t-61.5 -12t-49 -33t-32.5 -49.5t-12 -60.5z" />
    <glyph glyph-name="Hcircumflex" unicode="&#x124;" horiz-adv-x="741" 
d="M200 782q61 65 86 96.5t37 52.5h90q25 -49 125 -149v-11h-62q-44 26 -109 90q-64 -62 -107 -90h-60v11zM502 700h201v-40h-77v-620h77v-40h-201v40h82v293h-430v-293h82v-40h-201v40h78v620h-78v40h201v-40h-82v-287h430v287h-82v40z" />
    <glyph glyph-name="hcircumflex" unicode="&#x125;" horiz-adv-x="618" 
d="M143 809q61 65 86 96.5t37 52.5h90q25 -49 125 -149v-11h-62q-44 26 -109 90q-64 -62 -107 -90h-60v11zM317 40h78v220q-2 32 -23.5 56t-63.5 26q-30 0 -58 -10.5t-49.5 -28.5t-34 -43t-12.5 -55v-165h74v-40h-193v40h78v670h-74v40h115v-427l-3 -45q21 48 64.5 75.5
t100.5 29.5q55 0 87 -31t34 -81v-231h73v-40h-193v40z" />
    <glyph glyph-name="Hbar" unicode="&#x126;" horiz-adv-x="741" 
d="M97 595v119h90v-119h366v119h90v-119h97v-72h-97v-523h-90v333h-366v-333h-90v523h-97v72h97zM553 412v111h-366v-111h366z" />
    <glyph glyph-name="hbar" unicode="&#x127;" horiz-adv-x="618" 
d="M450 0v323q0 65 -29 97t-91 32q-83 0 -120 -45t-37 -149v-258h-88v604h-76v66h76v90h88v-90h212v-66h-212v-87q0 -43 -5 -74h6q26 42 70.5 62.5t97.5 20.5q97 0 146 -47t49 -150v-329h-87z" />
    <glyph glyph-name="Itilde" unicode="&#x128;" horiz-adv-x="338" 
d="M244 772q-21 0 -41 9t-39.5 19.5t-37 19.5t-34.5 9q-24 0 -36 -14.5t-19 -43.5h-51q6 60 34 94t76 34q22 0 42.5 -9t39.5 -19.5t37 -19.5t33 -9q23 0 35.5 14.5t19.5 43.5h50q-6 -58 -34 -93t-75 -35zM35 40h78v620h-78v40h201v-40h-82v-620h82v-40h-201v40z" />
    <glyph glyph-name="itilde" unicode="&#x129;" horiz-adv-x="257" 
d="M204 607q-21 0 -41 9t-39.5 19.5t-37 19.5t-34.5 9q-24 0 -36 -14.5t-19 -43.5h-51q6 60 34 94t76 34q22 0 42.5 -9t39.5 -19.5t37 -19.5t33 -9q23 0 35.5 14.5t19.5 43.5h50q-6 -58 -34 -93t-75 -35zM35 40h77v295h-77v40h119v-335h74v-40h-193v40z" />
    <glyph glyph-name="Imacron" unicode="&#x12a;" horiz-adv-x="338" 
d="M21 842h297v-71h-297v71zM35 40h78v620h-78v40h201v-40h-82v-620h82v-40h-201v40z" />
    <glyph glyph-name="imacron" unicode="&#x12b;" horiz-adv-x="257" 
d="M-18 677h297v-71h-297v71zM35 40h77v295h-77v40h119v-335h74v-40h-193v40z" />
    <glyph glyph-name="Ibreve" unicode="&#x12c;" horiz-adv-x="338" 
d="M168 771q-69 0 -108.5 33.5t-44.5 100.5h54q4 -35 24.5 -49t76.5 -14q49 0 73 15.5t28 47.5h55q-6 -64 -48 -99t-110 -35zM35 40h78v620h-78v40h201v-40h-82v-620h82v-40h-201v40z" />
    <glyph glyph-name="ibreve" unicode="&#x12d;" horiz-adv-x="257" 
d="M126 606q-69 0 -108.5 33.5t-44.5 100.5h54q4 -35 24.5 -49t76.5 -14q49 0 73 15.5t28 47.5h55q-6 -64 -48 -99t-110 -35zM35 40h77v295h-77v40h119v-335h74v-40h-193v40z" />
    <glyph glyph-name="Iogonek" unicode="&#x12e;" horiz-adv-x="338" 
d="M160 -116q0 -22 12 -33.5t33 -11.5t48 6v-56q-34 -9 -62 -9q-103 0 -103 94q0 68 78 126h62q-34 -32 -51 -58.5t-17 -57.5zM35 40h78v620h-78v40h201v-40h-82v-620h82v-40h-201v40z" />
    <glyph glyph-name="iogonek" unicode="&#x12f;" horiz-adv-x="257" 
d="M97 -116q0 -22 12 -33.5t33 -11.5t48 6v-56q-34 -9 -62 -9q-103 0 -103 94q0 68 78 126h62q-34 -32 -51 -58.5t-17 -57.5zM35 40h77v295h-77v40h119v-335h74v-40h-193v40zM101 508q0 14 10 23.5t23 9.5q12 0 22 -9.5t10 -23.5t-10 -23.5t-22 -9.5q-13 0 -23 9.5t-10 23.5
z" />
    <glyph glyph-name="Idotaccent" unicode="&#x130;" horiz-adv-x="338" 
d="M117 846q0 29 15 42.5t37 13.5q21 0 36 -13.5t15 -42.5t-15.5 -42.5t-35.5 -13.5q-22 0 -37 13.5t-15 42.5zM35 40h78v620h-78v40h201v-40h-82v-620h82v-40h-201v40z" />
    <glyph glyph-name="dotlessi" unicode="&#x131;" horiz-adv-x="263" 
d="M35 40h77v295h-77v40h119v-335h74v-40h-193v40z" />
    <glyph glyph-name="IJ" unicode="&#x132;" horiz-adv-x="611" 
d="M35 40h78v620h-78v40h201v-40h-82v-620h82v-40h-201v40zM374 700h207v-610q0 -56 -16 -98.5t-44 -72t-66 -45.5t-81 -17v40q36 2 66.5 16t52.5 39t34.5 60.5t12.5 80.5v567h-166v40z" />
    <glyph glyph-name="ij" unicode="&#x133;" horiz-adv-x="514" 
d="M35 40h77v295h-77v40h119v-335h74v-40h-193v40zM101 508q0 14 10 23.5t23 9.5q12 0 22 -9.5t10 -23.5t-10 -23.5t-22 -9.5q-13 0 -23 9.5t-10 23.5zM291 375h114v-379q0 -59 -17.5 -103t-48.5 -73l-30 30q26 25 40.5 61t14.5 84v340h-73v40zM353 508q0 14 10 23.5t23 9.5
t22.5 -9.5t9.5 -23.5t-9.5 -23.5t-22.5 -9.5t-23 9.5t-10 23.5z" />
    <glyph glyph-name="Jcircumflex" unicode="&#x134;" horiz-adv-x="272" 
d="M-31 782q61 65 86 96.5t37 52.5h90q25 -49 125 -149v-11h-62q-44 26 -109 90q-64 -62 -107 -90h-60v11zM35 700h207v-610q0 -56 -16 -98.5t-44 -72t-66 -45.5t-81 -17v40q36 2 66.5 16t52.5 39t34.5 60.5t12.5 80.5v567h-166v40z" />
    <glyph glyph-name="jcircumflex" unicode="&#x135;" horiz-adv-x="257" 
d="M-42 617q61 65 86 96.5t37 52.5h90q25 -49 125 -149v-11h-62q-44 26 -109 90q-64 -62 -107 -90h-60v11zM22 -240q-46 0 -77 12v71q34 -10 66 -10q38 0 56 21t18 63v619h88v-616q0 -80 -38.5 -120t-112.5 -40z" />
    <glyph glyph-name="uni0136" unicode="&#x136;" horiz-adv-x="619" 
d="M246 -209q11 25 24 70.5t17 77.5h87v-9q-8 -31 -31.5 -76.5t-48.5 -74.5h-48v12zM458 40h60q-69 88 -138.5 176.5t-139.5 177.5l-87 -83q0 -68 0.5 -135.5t0.5 -135.5h82v-40h-201v40h77v620h-77v40h193v-40h-74v-274q-1 -8 -1.5 -15t-0.5 -15l18 21l296 283h-53v40h193
v-40h-86l-251 -239q75 -96 150 -191l150 -190h82v-40h-193v40z" />
    <glyph glyph-name="uni0137" unicode="&#x137;" horiz-adv-x="534" 
d="M203 -209q11 25 24 70.5t17 77.5h87v-9q-8 -31 -31.5 -76.5t-48.5 -74.5h-48v12zM283 40h48q-29 40 -58.5 79.5t-58.5 79.5l-64 -60v-99h78v-40h-193v40h74v670h-71v40h112v-560l155 145h-60v40h185v-40h-72q-31 -29 -56.5 -54t-56.5 -54q33 -48 67 -94t69 -93h87v-40
h-185v40z" />
    <glyph glyph-name="kgreenlandic" unicode="&#x138;" horiz-adv-x="534" 
d="M403 536h106l-203 -237l219 -299h-105l-176 242l-66 -54v-188h-93v536h93v-139q0 -68 -6 -135l41 50z" />
    <glyph glyph-name="Lacute" unicode="&#x139;" horiz-adv-x="523" 
d="M35 40h69v620h-69v40h193v-40h-83v-620h348v114h40v-154h-498v40zM29 644q23 33 45 66.5t45 66.5h43q-25 -33 -50 -66.5t-50 -66.5h-33z" />
    <glyph glyph-name="lacute" unicode="&#x13a;" horiz-adv-x="257" 
d="M35 40h74v670h-71v40h112v-710h78v-40h-193v40zM-8 672q23 33 45 66.5t45 66.5h43q-25 -33 -50 -66.5t-50 -66.5h-33z" />
    <glyph glyph-name="uni013B" unicode="&#x13b;" horiz-adv-x="523" 
d="M204 -209q11 25 24 70.5t17 77.5h87v-9q-8 -31 -31.5 -76.5t-48.5 -74.5h-48v12zM35 40h69v620h-69v40h193v-40h-83v-620h348v114h40v-154h-498v40z" />
    <glyph glyph-name="uni013C" unicode="&#x13c;" horiz-adv-x="257" 
d="M45 -209q11 25 24 70.5t17 77.5h87v-9q-8 -31 -31.5 -76.5t-48.5 -74.5h-48v12zM35 40h74v670h-71v40h112v-710h78v-40h-193v40z" />
    <glyph glyph-name="Lcaron" unicode="&#x13d;" horiz-adv-x="523" 
d="M333 567q11 32 20.5 77.5t12.5 70.5h87v-9q-6 -26 -27 -71t-45 -80h-48v12zM35 40h69v620h-69v40h193v-40h-83v-620h348v114h40v-154h-498v40z" />
    <glyph glyph-name="lcaron" unicode="&#x13e;" horiz-adv-x="257" 
d="M219 612q11 32 20.5 77.5t12.5 70.5h87v-9q-6 -26 -27 -71t-45 -80h-48v12zM35 40h74v670h-71v40h112v-710h78v-40h-193v40z" />
    <glyph glyph-name="Ldot" unicode="&#x13f;" horiz-adv-x="523" 
d="M332 357q0 29 15 42.5t37 13.5q21 0 36 -13.5t15 -42.5t-15.5 -42.5t-35.5 -13.5q-22 0 -37 13.5t-15 42.5zM35 40h69v620h-69v40h193v-40h-83v-620h348v114h40v-154h-498v40z" />
    <glyph glyph-name="ldot" unicode="&#x140;" horiz-adv-x="325" 
d="M240 333q0 29 15 42.5t37 13.5q21 0 36 -13.5t15 -42.5t-15.5 -42.5t-35.5 -13.5q-22 0 -37 13.5t-15 42.5zM35 40h74v670h-71v40h112v-710h78v-40h-193v40z" />
    <glyph glyph-name="Lslash" unicode="&#x141;" horiz-adv-x="523" 
d="M97 0v247l-49 -28l-35 60l84 50v385h90v-332l137 81l36 -63l-173 -100v-220h312v-80h-402z" />
    <glyph glyph-name="lslash" unicode="&#x142;" horiz-adv-x="257" 
d="M166 425l64 44l37 -59l-101 -68v-342h-88v285l-51 -32l-36 59l87 56v392h88v-335z" />
    <glyph glyph-name="Nacute" unicode="&#x143;" horiz-adv-x="759" 
d="M35 40h81v620h-81v40h108l526 -612l19 -26l-3 32v566h-75v40h201v-40h-84v-692l-553 639l-19 22l3 -28v-561h78v-40h-201v40zM229 644q23 33 45 66.5t45 66.5h43q-25 -33 -50 -66.5t-50 -66.5h-33z" />
    <glyph glyph-name="nacute" unicode="&#x144;" horiz-adv-x="618" 
d="M317 40h78v220q-2 32 -23.5 56t-63.5 26q-30 0 -58 -10.5t-49.5 -28.5t-34 -43t-12.5 -55v-165h74v-40h-193v40h78v295h-72v40h106l1 -35q1 -17 2 -31t1 -31q20 47 64.5 76t100.5 29q55 0 87 -31t34 -81v-231h73v-40h-193v40zM161 479q23 33 45 66.5t45 66.5h43
q-25 -33 -50 -66.5t-50 -66.5h-33z" />
    <glyph glyph-name="uni0145" unicode="&#x145;" horiz-adv-x="759" 
d="M281 -209q11 25 24 70.5t17 77.5h87v-9q-8 -31 -31.5 -76.5t-48.5 -74.5h-48v12zM35 40h81v620h-81v40h108l526 -612l19 -26l-3 32v566h-75v40h201v-40h-84v-692l-553 639l-19 22l3 -28v-561h78v-40h-201v40z" />
    <glyph glyph-name="uni0146" unicode="&#x146;" horiz-adv-x="618" 
d="M222 -209q11 25 24 70.5t17 77.5h87v-9q-8 -31 -31.5 -76.5t-48.5 -74.5h-48v12zM317 40h78v220q-2 32 -23.5 56t-63.5 26q-30 0 -58 -10.5t-49.5 -28.5t-34 -43t-12.5 -55v-165h74v-40h-193v40h78v295h-72v40h106l1 -35q1 -17 2 -31t1 -31q20 47 64.5 76t100.5 29
q55 0 87 -31t34 -81v-231h73v-40h-193v40z" />
    <glyph glyph-name="Ncaron" unicode="&#x147;" horiz-adv-x="759" 
d="M211 931h60q56 -36 107 -92q62 62 109 92h62v-13q-100 -100 -125 -147h-90q-29 50 -123 147v13zM35 40h81v620h-81v40h108l526 -612l19 -26l-3 32v566h-75v40h201v-40h-84v-692l-553 639l-19 22l3 -28v-561h78v-40h-201v40z" />
    <glyph glyph-name="ncaron" unicode="&#x148;" horiz-adv-x="618" 
d="M144 766h60q56 -36 107 -92q62 62 109 92h62v-13q-100 -100 -125 -147h-90q-29 50 -123 147v13zM317 40h78v220q-2 32 -23.5 56t-63.5 26q-30 0 -58 -10.5t-49.5 -28.5t-34 -43t-12.5 -55v-165h74v-40h-193v40h78v295h-72v40h106l1 -35q1 -17 2 -31t1 -31q20 47 64.5 76
t100.5 29q55 0 87 -31t34 -81v-231h73v-40h-193v40z" />
    <glyph glyph-name="napostrophe" unicode="&#x149;" horiz-adv-x="690" 
d="M145 714l7 -11q-25 -97 -86 -234h-65q34 139 50 245h94zM388 40h78v220q-2 32 -23.5 56t-63.5 26q-30 0 -58 -10.5t-49.5 -28.5t-34 -43t-12.5 -55v-165h74v-40h-193v40h78v295h-72v40h106l1 -35q1 -17 2 -31t1 -31q20 47 64.5 76t100.5 29q55 0 87 -31t34 -81v-231h73
v-40h-193v40z" />
    <glyph glyph-name="Eng" unicode="&#x14a;" horiz-adv-x="759" 
d="M475 -190q-48 0 -76 13v76q35 -10 76 -10q50 0 76.5 28.5t27.5 82.5l-403 593h-4q8 -125 8 -206v-387h-83v714h104l381 -572h4q-7 75 -7 200v372h84v-708q0 -96 -48.5 -146t-139.5 -50z" />
    <glyph glyph-name="eng" unicode="&#x14b;" horiz-adv-x="618" 
d="M394 -240q-42 0 -71 12v71q29 -10 60 -10q67 0 67 84v427q0 65 -29 96.5t-90 31.5q-83 0 -120.5 -45.5t-37.5 -147.5v-279h-88v536h71l14 -73h5q25 40 69 61.5t98 21.5q99 0 147.5 -46.5t48.5 -149.5v-430q0 -75 -35 -117.5t-109 -42.5z" />
    <glyph glyph-name="Omacron" unicode="&#x14c;" horiz-adv-x="780" 
d="M242 842h297v-71h-297v71zM35 349q0 74 28 139.5t76.5 114t113.5 77t139 28.5t139.5 -28.5t114 -77t77 -114t28.5 -139.5t-28.5 -139t-77 -113.5t-114 -76.5t-139.5 -28t-139 28t-113.5 76.5t-76.5 113.5t-28 139zM77 348q0 -66 24.5 -123.5t67.5 -100t100 -67.5t122 -25
t123 25t101.5 68t68.5 100.5t25 123.5t-25 124t-68 101.5t-101 68.5t-123 25t-122.5 -25.5t-100.5 -69t-67.5 -101.5t-24.5 -124z" />
    <glyph glyph-name="omacron" unicode="&#x14d;" horiz-adv-x="604" 
d="M154 677h297v-71h-297v71zM36 188q0 40 15.5 76t42 62.5t62 42t76.5 15.5t77 -15.5t63 -42t42.5 -62.5t15.5 -76q0 -41 -15.5 -76.5t-42.5 -61.5t-63 -41.5t-77 -15.5t-76.5 15.5t-62 41.5t-42 61.5t-15.5 76.5zM77 188q0 -32 12 -60t33 -49t49 -33t60 -12t60.5 12
t49.5 33t33 49t12 60t-12 60t-33 49t-49.5 33.5t-60.5 12.5t-60 -12.5t-49 -33.5t-33 -49t-12 -60z" />
    <glyph glyph-name="Obreve" unicode="&#x14e;" horiz-adv-x="780" 
d="M387 771q-69 0 -108.5 33.5t-44.5 100.5h54q4 -35 24.5 -49t76.5 -14q49 0 73 15.5t28 47.5h55q-6 -64 -48 -99t-110 -35zM35 349q0 74 28 139.5t76.5 114t113.5 77t139 28.5t139.5 -28.5t114 -77t77 -114t28.5 -139.5t-28.5 -139t-77 -113.5t-114 -76.5t-139.5 -28
t-139 28t-113.5 76.5t-76.5 113.5t-28 139zM77 348q0 -66 24.5 -123.5t67.5 -100t100 -67.5t122 -25t123 25t101.5 68t68.5 100.5t25 123.5t-25 124t-68 101.5t-101 68.5t-123 25t-122.5 -25.5t-100.5 -69t-67.5 -101.5t-24.5 -124z" />
    <glyph glyph-name="obreve" unicode="&#x14f;" horiz-adv-x="604" 
d="M299 606q-69 0 -108.5 33.5t-44.5 100.5h54q4 -35 24.5 -49t76.5 -14q49 0 73 15.5t28 47.5h55q-6 -64 -48 -99t-110 -35zM36 188q0 40 15.5 76t42 62.5t62 42t76.5 15.5t77 -15.5t63 -42t42.5 -62.5t15.5 -76q0 -41 -15.5 -76.5t-42.5 -61.5t-63 -41.5t-77 -15.5
t-76.5 15.5t-62 41.5t-42 61.5t-15.5 76.5zM77 188q0 -32 12 -60t33 -49t49 -33t60 -12t60.5 12t49.5 33t33 49t12 60t-12 60t-33 49t-49.5 33.5t-60.5 12.5t-60 -12.5t-49 -33.5t-33 -49t-12 -60z" />
    <glyph glyph-name="Ohungarumlaut" unicode="&#x150;" horiz-adv-x="780" 
d="M246 783q17 22 42.5 65.5t44.5 82.5h96v-10q-16 -27 -58.5 -75t-74.5 -75h-50v12zM422 783q23 32 49 76.5t38 71.5h96v-10q-16 -27 -58.5 -75t-74.5 -75h-50v12zM35 349q0 74 28 139.5t76.5 114t113.5 77t139 28.5t139.5 -28.5t114 -77t77 -114t28.5 -139.5t-28.5 -139
t-77 -113.5t-114 -76.5t-139.5 -28t-139 28t-113.5 76.5t-76.5 113.5t-28 139zM77 348q0 -66 24.5 -123.5t67.5 -100t100 -67.5t122 -25t123 25t101.5 68t68.5 100.5t25 123.5t-25 124t-68 101.5t-101 68.5t-123 25t-122.5 -25.5t-100.5 -69t-67.5 -101.5t-24.5 -124z" />
    <glyph glyph-name="ohungarumlaut" unicode="&#x151;" horiz-adv-x="604" 
d="M154 618q17 22 42.5 65.5t44.5 82.5h96v-10q-16 -27 -58.5 -75t-74.5 -75h-50v12zM330 618q23 32 49 76.5t38 71.5h96v-10q-16 -27 -58.5 -75t-74.5 -75h-50v12zM36 188q0 40 15.5 76t42 62.5t62 42t76.5 15.5t77 -15.5t63 -42t42.5 -62.5t15.5 -76q0 -41 -15.5 -76.5
t-42.5 -61.5t-63 -41.5t-77 -15.5t-76.5 15.5t-62 41.5t-42 61.5t-15.5 76.5zM77 188q0 -32 12 -60t33 -49t49 -33t60 -12t60.5 12t49.5 33t33 49t12 60t-12 60t-33 49t-49.5 33.5t-60.5 12.5t-60 -12.5t-49 -33.5t-33 -49t-12 -60z" />
    <glyph glyph-name="OE" unicode="&#x152;" horiz-adv-x="786" 
d="M466 40h72l51 36l110 134l33 154l-40 134l-71 94l-83 68h-72v40h487v-154h-40v114h-334l92 -103l50 -89l24 -95h169v-40h-169l-22 -98l-81 -131l-87 -64h372v114h40v-154h-501v40zM35 349q0 74 28 139.5t76.5 114t113.5 77t139 28.5t139.5 -28.5t114 -77t77 -114
t28.5 -139.5t-28.5 -139t-77 -113.5t-114 -76.5t-139.5 -28t-139 28t-113.5 76.5t-76.5 113.5t-28 139zM77 348q0 -66 24.5 -123.5t67.5 -100t100 -67.5t122 -25t123 25t101.5 68t68.5 100.5t25 123.5t-25 124t-68 101.5t-101 68.5t-123 25t-122.5 -25.5t-100.5 -69
t-67.5 -101.5t-24.5 -124z" />
    <glyph glyph-name="oe" unicode="&#x153;" horiz-adv-x="465" 
d="M446 343q-37 0 -68 -15q-16 -9 -16 -10l26 -30q14 -17 15 -31l2 -54q67 27 79.5 31.5t80.5 31.5q-17 34 -49 55.5t-70 21.5zM618 243q-78 -31 -105.5 -42t-105.5 -42q-38 -75 -35 -95q4 -24 74 -30q25 -2 58 11q27 11 47 31q7 -8 13 -15.5t13 -15.5q-26 -24 -59 -38
t-72 -14q-41 0 -90 21q-53 24 -44 36l46 24l36 81l-8 125q-50 50 -78 46q-2 0 16 14q21 17 46 28q35 15 76 15q30 0 57 -10.5t49.5 -29t39.5 -44t26 -56.5zM36 188q0 40 15.5 76t42 62.5t62 42t76.5 15.5t77 -15.5t63 -42t42.5 -62.5t15.5 -76q0 -41 -15.5 -76.5
t-42.5 -61.5t-63 -41.5t-77 -15.5t-76.5 15.5t-62 41.5t-42 61.5t-15.5 76.5zM77 188q0 -32 12 -60t33 -49t49 -33t60 -12t60.5 12t49.5 33t33 49t12 60t-12 60t-33 49t-49.5 33.5t-60.5 12.5t-60 -12.5t-49 -33.5t-33 -49t-12 -60z" />
    <glyph glyph-name="Racute" unicode="&#x154;" horiz-adv-x="622" 
d="M35 40h61v620h-61v40h211q31 0 68 -10t69.5 -32t54.5 -57t22 -84q0 -72 -38.5 -119.5t-111.5 -62.5l139 -295h88v-40h-114l-156 331q-11 -1 -23 -1.5t-23 -0.5h-84v-289h99v-40h-201v40zM137 370h104q52 0 86.5 14t55 36t28.5 47.5t8 49.5q0 28 -13.5 54t-37.5 46
t-56.5 31.5t-69.5 11.5h-105v-290zM160 644q23 33 45 66.5t45 66.5h43q-25 -33 -50 -66.5t-50 -66.5h-33z" />
    <glyph glyph-name="racute" unicode="&#x155;" horiz-adv-x="413" 
d="M35 40h78v295h-72v40h106l1 -35q1 -17 2 -31t1 -31q23 49 67.5 76.5t90.5 28.5l-3 -41q-32 -1 -59.5 -11.5t-48 -28.5t-32.5 -43t-12 -54v-165h74v-40h-193v40zM85 479q23 33 45 66.5t45 66.5h43q-25 -33 -50 -66.5t-50 -66.5h-33z" />
    <glyph glyph-name="uni0156" unicode="&#x156;" horiz-adv-x="622" 
d="M242 -209q11 25 24 70.5t17 77.5h87v-9q-8 -31 -31.5 -76.5t-48.5 -74.5h-48v12zM35 40h61v620h-61v40h211q31 0 68 -10t69.5 -32t54.5 -57t22 -84q0 -72 -38.5 -119.5t-111.5 -62.5l139 -295h88v-40h-114l-156 331q-11 -1 -23 -1.5t-23 -0.5h-84v-289h99v-40h-201v40z
M137 370h104q52 0 86.5 14t55 36t28.5 47.5t8 49.5q0 28 -13.5 54t-37.5 46t-56.5 31.5t-69.5 11.5h-105v-290z" />
    <glyph glyph-name="uni0157" unicode="&#x157;" horiz-adv-x="413" 
d="M48 -209q11 25 24 70.5t17 77.5h87v-9q-8 -31 -31.5 -76.5t-48.5 -74.5h-48v12zM35 40h78v295h-72v40h106l1 -35q1 -17 2 -31t1 -31q23 49 67.5 76.5t90.5 28.5l-3 -41q-32 -1 -59.5 -11.5t-48 -28.5t-32.5 -43t-12 -54v-165h74v-40h-193v40z" />
    <glyph glyph-name="Rcaron" unicode="&#x158;" horiz-adv-x="622" 
d="M141 931h60q56 -36 107 -92q62 62 109 92h62v-13q-100 -100 -125 -147h-90q-29 50 -123 147v13zM35 40h61v620h-61v40h211q31 0 68 -10t69.5 -32t54.5 -57t22 -84q0 -72 -38.5 -119.5t-111.5 -62.5l139 -295h88v-40h-114l-156 331q-11 -1 -23 -1.5t-23 -0.5h-84v-289h99
v-40h-201v40zM137 370h104q52 0 86.5 14t55 36t28.5 47.5t8 49.5q0 28 -13.5 54t-37.5 46t-56.5 31.5t-69.5 11.5h-105v-290z" />
    <glyph glyph-name="rcaron" unicode="&#x159;" horiz-adv-x="413" 
d="M62 766h60q56 -36 107 -92q62 62 109 92h62v-13q-100 -100 -125 -147h-90q-29 50 -123 147v13zM35 40h78v295h-72v40h106l1 -35q1 -17 2 -31t1 -31q23 49 67.5 76.5t90.5 28.5l-3 -41q-32 -1 -59.5 -11.5t-48 -28.5t-32.5 -43t-12 -54v-165h74v-40h-193v40z" />
    <glyph glyph-name="Sacute" unicode="&#x15a;" horiz-adv-x="548" 
d="M36 76v106h40v-90q28 -25 68 -42.5t95 -17.5q33 0 64.5 10.5t55.5 30t38.5 47.5t14.5 64q0 44 -15 72t-39 46t-55 29t-63.5 20.5t-64 20.5t-57 29t-41.5 45.5t-18 70.5q-2 33 8 66.5t32 60t57 43.5t85 17q17 0 37 -2t41 -7t42 -15t40 -26v-108h-40v88q-19 12 -49.5 21
t-71.5 9q-35 0 -61 -11.5t-43.5 -31t-26 -45t-8.5 -52.5q0 -36 15 -59t39.5 -38t56 -25t64.5 -20t64.5 -23.5t56.5 -35t40.5 -54.5t16.5 -83q0 -44 -16.5 -80t-45 -61.5t-67.5 -39t-82 -13.5q-39 0 -72 8t-59.5 20.5t-45.5 27.5t-30 28zM138 644q23 33 45 66.5t45 66.5h43
q-25 -33 -50 -66.5t-50 -66.5h-33z" />
    <glyph glyph-name="sacute" unicode="&#x15b;" horiz-adv-x="479" 
d="M90 103v-51q18 -13 39.5 -16t42.5 -3q9 0 22 3.5t25 12t21 21.5t9 32q0 26 -13 40t-33.5 22.5t-44.5 15t-44.5 17.5t-34.5 29t-14 51q0 26 10 45.5t25.5 32.5t35 19.5t37.5 6.5q4 0 16.5 -1t28.5 -4.5t31.5 -10.5t26.5 -19v-74h-38v53q-7 6 -17 9t-19.5 4.5t-17 1.5
h-10.5q-12 0 -24 -3.5t-22 -11t-15.5 -19t-5.5 -28.5q0 -22 14 -34.5t34.5 -21t44 -16t44 -19.5t34 -31t13.5 -51q0 -17 -6.5 -36.5t-20.5 -36.5t-37.5 -28.5t-56.5 -11.5q-10 0 -25.5 1.5t-32.5 5.5t-33 11t-27 19v74h38zM92 479q23 33 45 66.5t45 66.5h43
q-25 -33 -50 -66.5t-50 -66.5h-33z" />
    <glyph glyph-name="Scircumflex" unicode="&#x15c;" horiz-adv-x="548" 
d="M116 782q61 65 86 96.5t37 52.5h90q25 -49 125 -149v-11h-62q-44 26 -109 90q-64 -62 -107 -90h-60v11zM36 76v106h40v-90q28 -25 68 -42.5t95 -17.5q33 0 64.5 10.5t55.5 30t38.5 47.5t14.5 64q0 44 -15 72t-39 46t-55 29t-63.5 20.5t-64 20.5t-57 29t-41.5 45.5
t-18 70.5q-2 33 8 66.5t32 60t57 43.5t85 17q17 0 37 -2t41 -7t42 -15t40 -26v-108h-40v88q-19 12 -49.5 21t-71.5 9q-35 0 -61 -11.5t-43.5 -31t-26 -45t-8.5 -52.5q0 -36 15 -59t39.5 -38t56 -25t64.5 -20t64.5 -23.5t56.5 -35t40.5 -54.5t16.5 -83q0 -44 -16.5 -80
t-45 -61.5t-67.5 -39t-82 -13.5q-39 0 -72 8t-59.5 20.5t-45.5 27.5t-30 28z" />
    <glyph glyph-name="scircumflex" unicode="&#x15d;" horiz-adv-x="479" 
d="M77 617q61 65 86 96.5t37 52.5h90q25 -49 125 -149v-11h-62q-44 26 -109 90q-64 -62 -107 -90h-60v11zM90 103v-51q18 -13 39.5 -16t42.5 -3q9 0 22 3.5t25 12t21 21.5t9 32q0 26 -13 40t-33.5 22.5t-44.5 15t-44.5 17.5t-34.5 29t-14 51q0 26 10 45.5t25.5 32.5t35 19.5
t37.5 6.5q4 0 16.5 -1t28.5 -4.5t31.5 -10.5t26.5 -19v-74h-38v53q-7 6 -17 9t-19.5 4.5t-17 1.5h-10.5q-12 0 -24 -3.5t-22 -11t-15.5 -19t-5.5 -28.5q0 -22 14 -34.5t34.5 -21t44 -16t44 -19.5t34 -31t13.5 -51q0 -17 -6.5 -36.5t-20.5 -36.5t-37.5 -28.5t-56.5 -11.5
q-10 0 -25.5 1.5t-32.5 5.5t-33 11t-27 19v74h38z" />
    <glyph glyph-name="Scedilla" unicode="&#x15e;" horiz-adv-x="548" 
d="M36 76v106h40v-90q28 -25 68 -42.5t95 -17.5q33 0 64.5 10.5t55.5 30t38.5 47.5t14.5 64q0 44 -15 72t-39 46t-55 29t-63.5 20.5t-64 20.5t-57 29t-41.5 45.5t-18 70.5q-2 33 8 66.5t32 60t57 43.5t85 17q17 0 37 -2t41 -7t42 -15t40 -26v-108h-40v88q-19 12 -49.5 21
t-71.5 9q-35 0 -61 -11.5t-43.5 -31t-26 -45t-8.5 -52.5q0 -36 15 -59t39.5 -38t56 -25t64.5 -20t64.5 -23.5t56.5 -35t40.5 -54.5t16.5 -83q0 -44 -16.5 -80t-45 -61.5t-67.5 -39t-82 -13.5q-39 0 -72 8t-59.5 20.5t-45.5 27.5t-30 28zM335 0h29v-6q0 -14 4 -22.5
t10.5 -14.5t14 -10t13.5 -8q22 -15 31 -34.5t9 -37.5q0 -48 -25.5 -74.5t-66.5 -26.5q-29 0 -54.5 16t-36.5 49l14 6l14 6q5 -19 21 -31.5t39 -12.5q28 0 45 19t17 47q0 25 -12 38.5t-27 23.5t-27 20.5t-12 29.5v23z" />
    <glyph glyph-name="scedilla" unicode="&#x15f;" horiz-adv-x="479" 
d="M90 103v-51q18 -13 39.5 -16t42.5 -3q9 0 22 3.5t25 12t21 21.5t9 32q0 26 -13 40t-33.5 22.5t-44.5 15t-44.5 17.5t-34.5 29t-14 51q0 26 10 45.5t25.5 32.5t35 19.5t37.5 6.5q4 0 16.5 -1t28.5 -4.5t31.5 -10.5t26.5 -19v-74h-38v53q-7 6 -17 9t-19.5 4.5t-17 1.5
h-10.5q-12 0 -24 -3.5t-22 -11t-15.5 -19t-5.5 -28.5q0 -22 14 -34.5t34.5 -21t44 -16t44 -19.5t34 -31t13.5 -51q0 -17 -6.5 -36.5t-20.5 -36.5t-37.5 -28.5t-56.5 -11.5q-10 0 -25.5 1.5t-32.5 5.5t-33 11t-27 19v74h38zM297 0h29v-6q0 -14 4 -22.5t10.5 -14.5t14 -10
t13.5 -8q22 -15 31 -34.5t9 -37.5q0 -48 -25.5 -74.5t-66.5 -26.5q-29 0 -54.5 16t-36.5 49l14 6l14 6q5 -19 21 -31.5t39 -12.5q28 0 45 19t17 47q0 25 -12 38.5t-27 23.5t-27 20.5t-12 29.5v23z" />
    <glyph glyph-name="Scaron" unicode="&#x160;" horiz-adv-x="548" 
d="M114 931h60q56 -36 107 -92q62 62 109 92h62v-13q-100 -100 -125 -147h-90q-29 50 -123 147v13zM36 76v106h40v-90q28 -25 68 -42.5t95 -17.5q33 0 64.5 10.5t55.5 30t38.5 47.5t14.5 64q0 44 -15 72t-39 46t-55 29t-63.5 20.5t-64 20.5t-57 29t-41.5 45.5t-18 70.5
q-2 33 8 66.5t32 60t57 43.5t85 17q17 0 37 -2t41 -7t42 -15t40 -26v-108h-40v88q-19 12 -49.5 21t-71.5 9q-35 0 -61 -11.5t-43.5 -31t-26 -45t-8.5 -52.5q0 -36 15 -59t39.5 -38t56 -25t64.5 -20t64.5 -23.5t56.5 -35t40.5 -54.5t16.5 -83q0 -44 -16.5 -80t-45 -61.5
t-67.5 -39t-82 -13.5q-39 0 -72 8t-59.5 20.5t-45.5 27.5t-30 28z" />
    <glyph glyph-name="scaron" unicode="&#x161;" horiz-adv-x="479" 
d="M83 766h60q56 -36 107 -92q62 62 109 92h62v-13q-100 -100 -125 -147h-90q-29 50 -123 147v13zM90 103v-51q18 -13 39.5 -16t42.5 -3q9 0 22 3.5t25 12t21 21.5t9 32q0 26 -13 40t-33.5 22.5t-44.5 15t-44.5 17.5t-34.5 29t-14 51q0 26 10 45.5t25.5 32.5t35 19.5
t37.5 6.5q4 0 16.5 -1t28.5 -4.5t31.5 -10.5t26.5 -19v-74h-38v53q-7 6 -17 9t-19.5 4.5t-17 1.5h-10.5q-12 0 -24 -3.5t-22 -11t-15.5 -19t-5.5 -28.5q0 -22 14 -34.5t34.5 -21t44 -16t44 -19.5t34 -31t13.5 -51q0 -17 -6.5 -36.5t-20.5 -36.5t-37.5 -28.5t-56.5 -11.5
q-10 0 -25.5 1.5t-32.5 5.5t-33 11t-27 19v74h38z" />
    <glyph glyph-name="uni0162" unicode="&#x162;" horiz-adv-x="556" 
d="M209 40h82v620h-216v-114h-40v154h553v-154h-40v114h-216v-620h78v-40h-201v40zM348 0h29v-6q0 -14 4 -22.5t10.5 -14.5t14 -10t13.5 -8q22 -15 31 -34.5t9 -37.5q0 -48 -25.5 -74.5t-66.5 -26.5q-29 0 -54.5 16t-36.5 49l14 6l14 6q5 -19 21 -31.5t39 -12.5q28 0 45 19
t17 47q0 25 -12 38.5t-27 23.5t-27 20.5t-12 29.5v23z" />
    <glyph glyph-name="uni0163" unicode="&#x163;" horiz-adv-x="360" 
d="M122 619h42v-244h115v-41h-115v-294h82v-40h-124v334h-87v41h87v244zM289 0h29v-6q0 -14 4 -22.5t10.5 -14.5t14 -10t13.5 -8q22 -15 31 -34.5t9 -37.5q0 -48 -25.5 -74.5t-66.5 -26.5q-29 0 -54.5 16t-36.5 49l14 6l14 6q5 -19 21 -31.5t39 -12.5q28 0 45 19t17 47
q0 25 -12 38.5t-27 23.5t-27 20.5t-12 29.5v23z" />
    <glyph glyph-name="Tcaron" unicode="&#x164;" horiz-adv-x="556" 
d="M110 931h60q56 -36 107 -92q62 62 109 92h62v-13q-100 -100 -125 -147h-90q-29 50 -123 147v13zM209 40h82v620h-216v-114h-40v154h553v-154h-40v114h-216v-620h78v-40h-201v40z" />
    <glyph glyph-name="tcaron" unicode="&#x165;" horiz-adv-x="360" 
d="M246 612q11 32 20.5 77.5t12.5 70.5h87v-9q-6 -26 -27 -71t-45 -80h-48v12zM122 619h42v-244h115v-41h-115v-294h82v-40h-124v334h-87v41h87v244z" />
    <glyph glyph-name="Tbar" unicode="&#x166;" horiz-adv-x="556" 
d="M232 399v235h-222v80h535v-80h-223v-235h148v-74h-148v-325h-90v325h-149v74h149z" />
    <glyph glyph-name="tbar" unicode="&#x167;" horiz-adv-x="360" 
d="M266 62q42 0 73 11v-67q-13 -6 -39 -11t-54 -5q-154 0 -154 171v119h-68v66h68v122h-76v42l77 35l35 114h52v-123h155v-68h-155v-122h146v-66h-146v-114q0 -52 21 -78t65 -26z" />
    <glyph glyph-name="Utilde" unicode="&#x168;" horiz-adv-x="730" 
d="M440 772q-21 0 -41 9t-39.5 19.5t-37 19.5t-34.5 9q-24 0 -36 -14.5t-19 -43.5h-51q6 60 34 94t76 34q22 0 42.5 -9t39.5 -19.5t37 -19.5t33 -9q23 0 35.5 14.5t19.5 43.5h50q-6 -58 -34 -93t-75 -35zM35 700h201v-40h-82v-431q0 -48 14.5 -84.5t40 -61.5t61 -38
t78.5 -13q42 0 77.5 13t61.5 38t40.5 61.5t14.5 84.5v431h-82v40h201v-40h-77v-434q0 -57 -18 -101t-50 -73.5t-75 -44.5t-93 -15q-51 0 -94 15t-74.5 44.5t-49.5 73.5t-18 101v434h-77v40z" />
    <glyph glyph-name="utilde" unicode="&#x169;" horiz-adv-x="618" 
d="M383 607q-21 0 -41 9t-39.5 19.5t-37 19.5t-34.5 9q-24 0 -36 -14.5t-19 -43.5h-51q6 60 34 94t76 34q22 0 42.5 -9t39.5 -19.5t37 -19.5t33 -9q23 0 35.5 14.5t19.5 43.5h50q-6 -58 -34 -93t-75 -35zM35 375h115v-260q2 -32 23.5 -56t63.5 -26q31 0 59 10.5t49 28.5
t33.5 43t12.5 55v165h-74v40h116v-339h71v-36h-108l-2 52v45q-20 -48 -64.5 -76.5t-99.5 -28.5t-87 31t-34 81v231h-74v40z" />
    <glyph glyph-name="Umacron" unicode="&#x16a;" horiz-adv-x="730" 
d="M217 842h297v-71h-297v71zM35 700h201v-40h-82v-431q0 -48 14.5 -84.5t40 -61.5t61 -38t78.5 -13q42 0 77.5 13t61.5 38t40.5 61.5t14.5 84.5v431h-82v40h201v-40h-77v-434q0 -57 -18 -101t-50 -73.5t-75 -44.5t-93 -15q-51 0 -94 15t-74.5 44.5t-49.5 73.5t-18 101v434
h-77v40z" />
    <glyph glyph-name="umacron" unicode="&#x16b;" horiz-adv-x="618" 
d="M159 677h297v-71h-297v71zM35 375h115v-260q2 -32 23.5 -56t63.5 -26q31 0 59 10.5t49 28.5t33.5 43t12.5 55v165h-74v40h116v-339h71v-36h-108l-2 52v45q-20 -48 -64.5 -76.5t-99.5 -28.5t-87 31t-34 81v231h-74v40z" />
    <glyph glyph-name="Ubreve" unicode="&#x16c;" horiz-adv-x="730" 
d="M361 771q-69 0 -108.5 33.5t-44.5 100.5h54q4 -35 24.5 -49t76.5 -14q49 0 73 15.5t28 47.5h55q-6 -64 -48 -99t-110 -35zM35 700h201v-40h-82v-431q0 -48 14.5 -84.5t40 -61.5t61 -38t78.5 -13q42 0 77.5 13t61.5 38t40.5 61.5t14.5 84.5v431h-82v40h201v-40h-77v-434
q0 -57 -18 -101t-50 -73.5t-75 -44.5t-93 -15q-51 0 -94 15t-74.5 44.5t-49.5 73.5t-18 101v434h-77v40z" />
    <glyph glyph-name="ubreve" unicode="&#x16d;" horiz-adv-x="618" 
d="M303 606q-69 0 -108.5 33.5t-44.5 100.5h54q4 -35 24.5 -49t76.5 -14q49 0 73 15.5t28 47.5h55q-6 -64 -48 -99t-110 -35zM35 375h115v-260q2 -32 23.5 -56t63.5 -26q31 0 59 10.5t49 28.5t33.5 43t12.5 55v165h-74v40h116v-339h71v-36h-108l-2 52v45
q-20 -48 -64.5 -76.5t-99.5 -28.5t-87 31t-34 81v231h-74v40z" />
    <glyph glyph-name="Uring" unicode="&#x16e;" horiz-adv-x="730" 
d="M155 705q0 -17 12.5 -30t29.5 -13t30 13t13 30t-13 29.5t-30 12.5t-29.5 -12.5t-12.5 -29.5zM124 705q0 30 21.5 51.5t51.5 21.5t51.5 -21.5t21.5 -51.5t-21.5 -51.5t-51.5 -21.5t-51.5 21.5t-21.5 51.5zM35 700h201v-40h-82v-431q0 -48 14.5 -84.5t40 -61.5t61 -38
t78.5 -13q42 0 77.5 13t61.5 38t40.5 61.5t14.5 84.5v431h-82v40h201v-40h-77v-434q0 -57 -18 -101t-50 -73.5t-75 -44.5t-93 -15q-51 0 -94 15t-74.5 44.5t-49.5 73.5t-18 101v434h-77v40z" />
    <glyph glyph-name="uring" unicode="&#x16f;" horiz-adv-x="618" 
d="M97 540q0 -17 12.5 -30t29.5 -13t30 13t13 30t-13 29.5t-30 12.5t-29.5 -12.5t-12.5 -29.5zM66 540q0 30 21.5 51.5t51.5 21.5t51.5 -21.5t21.5 -51.5t-21.5 -51.5t-51.5 -21.5t-51.5 21.5t-21.5 51.5zM35 375h115v-260q2 -32 23.5 -56t63.5 -26q31 0 59 10.5t49 28.5
t33.5 43t12.5 55v165h-74v40h116v-339h71v-36h-108l-2 52v45q-20 -48 -64.5 -76.5t-99.5 -28.5t-87 31t-34 81v231h-74v40z" />
    <glyph glyph-name="Uhungarumlaut" unicode="&#x170;" horiz-adv-x="730" 
d="M221 783q17 22 42.5 65.5t44.5 82.5h96v-10q-16 -27 -58.5 -75t-74.5 -75h-50v12zM397 783q23 32 49 76.5t38 71.5h96v-10q-16 -27 -58.5 -75t-74.5 -75h-50v12zM35 700h201v-40h-82v-431q0 -48 14.5 -84.5t40 -61.5t61 -38t78.5 -13q42 0 77.5 13t61.5 38t40.5 61.5
t14.5 84.5v431h-82v40h201v-40h-77v-434q0 -57 -18 -101t-50 -73.5t-75 -44.5t-93 -15q-51 0 -94 15t-74.5 44.5t-49.5 73.5t-18 101v434h-77v40z" />
    <glyph glyph-name="uhungarumlaut" unicode="&#x171;" horiz-adv-x="618" 
d="M164 618q17 22 42.5 65.5t44.5 82.5h96v-10q-16 -27 -58.5 -75t-74.5 -75h-50v12zM340 618q23 32 49 76.5t38 71.5h96v-10q-16 -27 -58.5 -75t-74.5 -75h-50v12zM35 375h115v-260q2 -32 23.5 -56t63.5 -26q31 0 59 10.5t49 28.5t33.5 43t12.5 55v165h-74v40h116v-339h71
v-36h-108l-2 52v45q-20 -48 -64.5 -76.5t-99.5 -28.5t-87 31t-34 81v231h-74v40z" />
    <glyph glyph-name="Uogonek" unicode="&#x172;" horiz-adv-x="730" 
d="M356 -116q0 -22 12 -33.5t33 -11.5t48 6v-56q-34 -9 -62 -9q-103 0 -103 94q0 68 78 126h62q-34 -32 -51 -58.5t-17 -57.5zM35 700h201v-40h-82v-431q0 -48 14.5 -84.5t40 -61.5t61 -38t78.5 -13q42 0 77.5 13t61.5 38t40.5 61.5t14.5 84.5v431h-82v40h201v-40h-77v-434
q0 -57 -18 -101t-50 -73.5t-75 -44.5t-93 -15q-51 0 -94 15t-74.5 44.5t-49.5 73.5t-18 101v434h-77v40z" />
    <glyph glyph-name="uogonek" unicode="&#x173;" horiz-adv-x="618" 
d="M458 -116q0 -22 12 -33.5t33 -11.5t48 6v-56q-34 -9 -62 -9q-103 0 -103 94q0 68 78 126h62q-34 -32 -51 -58.5t-17 -57.5zM35 375h115v-260q2 -32 23.5 -56t63.5 -26q31 0 59 10.5t49 28.5t33.5 43t12.5 55v165h-74v40h116v-339h71v-36h-108l-2 52v45
q-20 -48 -64.5 -76.5t-99.5 -28.5t-87 31t-34 81v231h-74v40z" />
    <glyph glyph-name="Wcircumflex" unicode="&#x174;" horiz-adv-x="930" 
d="M294 782q61 65 86 96.5t37 52.5h90q25 -49 125 -149v-11h-62q-44 26 -109 90q-64 -62 -107 -90h-60v11zM35 700h201v-40h-74q60 -144 119.5 -286t122.5 -285l9 -28q33 100 78 199t87 197q-21 51 -42.5 101.5t-43.5 101.5h-84v40h201v-40h-75q60 -144 120 -286t122 -285
l9 -28l9 28q61 143 121.5 285t120.5 286h-69v40h201v-40h-90q-73 -174 -146 -346t-147 -346l-177 417l-9 27q-40 -111 -90 -223t-96 -221q-74 174 -147.5 346t-146.5 346h-84v40z" />
    <glyph glyph-name="wcircumflex" unicode="&#x175;" horiz-adv-x="786" 
d="M224 617q61 65 86 96.5t37 52.5h90q25 -49 125 -149v-11h-62q-44 26 -109 90q-64 -62 -107 -90h-60v11zM644 375h169v-40h-69q-45 -91 -89.5 -179.5t-89.5 -178.5l-136 272l-136 -272q-45 90 -89.5 178.5t-89.5 179.5h-79v40h179v-40h-58q35 -71 70 -141.5t67 -140.5
q24 52 49 103.5t51 103.5q-5 19 -10 37.5t-10 37.5h-64v40h185v-40h-66q35 -71 70 -141.5t67 -140.5q33 71 67.5 141t69.5 141h-58v40z" />
    <glyph glyph-name="Ycircumflex" unicode="&#x176;" horiz-adv-x="565" 
d="M114 782q61 65 86 96.5t37 52.5h90q25 -49 125 -149v-11h-62q-44 26 -109 90q-64 -62 -107 -90h-60v11zM275 40h74v225q-60 99 -118.5 197.5t-117.5 197.5h-78v40h201v-40h-73q100 -165 198 -330l12 -28h1l11 28l197 330h-72v40h201v-40h-78q-59 -100 -117.5 -198
t-117.5 -197v-225h78v-40h-201v40z" />
    <glyph glyph-name="ycircumflex" unicode="&#x177;" horiz-adv-x="509" 
d="M89 617q61 65 86 96.5t37 52.5h90q25 -49 125 -149v-11h-62q-44 26 -109 90q-64 -62 -107 -90h-60v11zM92 -210h85q26 52 52 104.5t52 103.5q-43 85 -85 168.5t-84 168.5h-77v40h185v-40h-63q37 -75 74.5 -148.5t71.5 -148.5q32 72 70 147l76 150h-58v40h175v-40h-73
q-69 -137 -136 -272.5t-136 -272.5h64v-40h-193v40z" />
    <glyph glyph-name="Ydieresis" unicode="&#x178;" horiz-adv-x="565" 
d="M275 40h74v225q-60 99 -118.5 197.5t-117.5 197.5h-78v40h201v-40h-73q100 -165 198 -330l12 -28h1l11 28l197 330h-72v40h201v-40h-78q-59 -100 -117.5 -198t-117.5 -197v-225h78v-40h-201v40zM229 673q0 14 10 23.5t23 9.5t22.5 -9.5t9.5 -23.5t-9.5 -23.5t-22.5 -9.5
t-23 9.5t-10 23.5zM64 673q0 14 10 23.5t23 9.5q12 0 22 -9.5t10 -23.5t-10 -23.5t-22 -9.5q-13 0 -23 9.5t-10 23.5z" />
    <glyph glyph-name="Zacute" unicode="&#x179;" horiz-adv-x="571" 
d="M594 201v-201h-559v40l477 620h-460v75h42v-35h471v-40l-477 -620h466v161h40zM132 644q23 33 45 66.5t45 66.5h43q-25 -33 -50 -66.5t-50 -66.5h-33z" />
    <glyph glyph-name="zacute" unicode="&#x17a;" horiz-adv-x="470" 
d="M396 94v-94h-361v41q75 75 142 147t142 147h-272v75h38v-35h292v-41q-75 -75 -142 -146.5t-142 -146.5h265v53h38zM92 479q23 33 45 66.5t45 66.5h43q-25 -33 -50 -66.5t-50 -66.5h-33z" />
    <glyph glyph-name="Zdotaccent" unicode="&#x17b;" horiz-adv-x="571" 
d="M233 846q0 29 15 42.5t37 13.5q21 0 36 -13.5t15 -42.5t-15.5 -42.5t-35.5 -13.5q-22 0 -37 13.5t-15 42.5zM594 201v-201h-559v40l477 620h-460v75h42v-35h471v-40l-477 -620h466v161h40z" />
    <glyph glyph-name="zdotaccent" unicode="&#x17c;" horiz-adv-x="470" 
d="M185 681q0 29 15 42.5t37 13.5q21 0 36 -13.5t15 -42.5t-15.5 -42.5t-35.5 -13.5q-22 0 -37 13.5t-15 42.5zM396 94v-94h-361v41q75 75 142 147t142 147h-272v75h38v-35h292v-41q-75 -75 -142 -146.5t-142 -146.5h265v53h38z" />
    <glyph glyph-name="Zcaron" unicode="&#x17d;" horiz-adv-x="571" 
d="M119 931h60q56 -36 107 -92q62 62 109 92h62v-13q-100 -100 -125 -147h-90q-29 50 -123 147v13zM594 201v-201h-559v40l477 620h-460v75h42v-35h471v-40l-477 -620h466v161h40z" />
    <glyph glyph-name="zcaron" unicode="&#x17e;" horiz-adv-x="470" 
d="M68 766h60q56 -36 107 -92q62 62 109 92h62v-13q-100 -100 -125 -147h-90q-29 50 -123 147v13zM396 94v-94h-361v41q75 75 142 147t142 147h-272v75h38v-35h292v-41q-75 -75 -142 -146.5t-142 -146.5h265v53h38z" />
    <glyph glyph-name="longs" unicode="&#x17f;" horiz-adv-x="326" 
d="M261 692q-46 0 -67 -28.5t-21 -86.5v-577h-88v577q0 188 177 188q49 0 100 -19l-23 -69q-44 15 -78 15z" />
    <glyph glyph-name="uni0180" unicode="&#x180;" horiz-adv-x="615" 
d="M339 545q106 0 163.5 -73t57.5 -204q0 -133 -58.5 -205.5t-162.5 -72.5q-54 0 -96.5 19.5t-69.5 58.5h-7q-15 -59 -18 -68h-63v605h-76v66h76v89h88v-89h213v-66h-213v-30q0 -55 -5 -110h5q54 80 166 80zM324 472q-81 0 -116 -46t-35 -155v-4q0 -110 36 -157t117 -47
q72 0 107.5 53t35.5 153q0 102 -35.5 152.5t-109.5 50.5z" />
    <glyph glyph-name="uni0181" unicode="&#x181;" horiz-adv-x="729" 
d="M151 637q-61 0 -61 -50q0 -30 10 -54h-79q-4 10 -7.5 26.5t-3.5 28.5q0 65 34.5 95.5t106.5 30.5h230q144 0 207.5 -43t63.5 -134q0 -63 -34.5 -104.5t-101.5 -53.5v-5q82 -14 121 -57t39 -114q0 -96 -66 -149.5t-182 -53.5h-251v637h-26zM267 410h132q84 0 122 27t38 90
q0 59 -41.5 84.5t-132.5 25.5h-118v-227zM267 335v-259h144q86 0 127.5 33.5t41.5 100.5q0 64 -44 94.5t-132 30.5h-137z" />
    <glyph glyph-name="uni0182" unicode="&#x182;" horiz-adv-x="615" 
d="M564 209q0 -105 -63.5 -157t-194.5 -52h-209v714h424v-79h-334v-223h106q137 0 204 -48.5t67 -154.5zM187 77h110q92 0 133 31t41 101q0 68 -43 96.5t-146 28.5h-95v-257z" />
    <glyph glyph-name="uni0183" unicode="&#x183;" horiz-adv-x="615" 
d="M339 545q106 0 163.5 -73t57.5 -204q0 -133 -58.5 -205.5t-162.5 -72.5q-54 0 -96.5 19.5t-69.5 58.5h-7q-15 -59 -18 -68h-63v760h421v-74h-333v-111q0 -55 -5 -110h5q54 80 166 80zM324 472q-81 0 -116 -46t-35 -155v-4q0 -110 36 -157t117 -47q72 0 107.5 53t35.5 153
q0 102 -35.5 152.5t-109.5 50.5z" />
    <glyph glyph-name="uni0184" unicode="&#x184;" horiz-adv-x="634" 
d="M180 210q0 -77 37.5 -110t122.5 -33q80 0 115.5 35.5t35.5 102.5q0 69 -48 99t-140 30h-123v-124zM90 714h90v-302h134q129 0 199.5 -53t70.5 -154t-63.5 -158t-179.5 -57q-251 0 -251 220v504z" />
    <glyph glyph-name="uni0185" unicode="&#x185;" horiz-adv-x="611" 
d="M322 -10q-115 0 -177.5 72.5t-62.5 204.5v493h88v-185q0 -55 -5 -110h5q54 80 166 80q106 0 163.5 -73t57.5 -204q0 -134 -61 -206t-174 -72zM170 265q0 -96 40.5 -149t112.5 -53t107.5 53t35.5 153q0 102 -35.5 152.5t-109.5 50.5q-81 0 -116 -46t-35 -155v-6z" />
    <glyph glyph-name="uni0186" unicode="&#x186;" horiz-adv-x="631" 
d="M243 724q158 0 243 -96t85 -272q0 -110 -39.5 -192.5t-114.5 -128t-174 -45.5q-55 0 -98 6.5t-86 22.5v78q94 -28 170 -28q115 0 181 77t66 211q0 137 -63.5 212.5t-183.5 75.5q-77 0 -162 -39l-36 76q84 42 212 42z" />
    <glyph glyph-name="uni0187" unicode="&#x187;" horiz-adv-x="631" 
d="M403 645q-115 0 -181 -77t-66 -211q0 -138 64 -213t182 -75q76 0 171 28v-78q-45 -17 -87 -23t-97 -6q-158 0 -243 96t-85 272q0 110 41 193t118.5 128t183.5 45q61 0 117 -14v14q0 64 27 99t88 35q30 0 60 -13v-72q-24 10 -52 10q-47 0 -47 -48v-51l-36 -78
q-33 15 -71.5 27t-86.5 12z" />
    <glyph glyph-name="uni0188" unicode="&#x188;" horiz-adv-x="502" 
d="M300 -10q-116 0 -180.5 71t-64.5 204q0 135 65.5 208t185.5 73q27 0 65 -6v91q0 64 26.5 99t88.5 35q29 0 60 -13v-73q-23 10 -52 10q-47 0 -47 -48v-124l-27 -73q-68 25 -116 25q-81 0 -119.5 -51t-38.5 -152q0 -97 38.5 -148.5t114.5 -51.5q71 0 139 31v-78
q-55 -29 -138 -29z" />
    <glyph glyph-name="uni0189" unicode="&#x189;" horiz-adv-x="729" 
d="M44 372h54v288h-63v40h210q72 0 136 -24.5t112 -70t76 -110.5t28 -145q0 -59 -20.5 -121t-66.5 -113t-119.5 -83.5t-179.5 -32.5h-176v40h63v291h-54v41zM139 660v-288h207v-41h-207v-290h87q83 0 145 26.5t103 69.5t61.5 98.5t20.5 114.5q0 71 -24.5 128.5t-67 98
t-99 62t-120.5 21.5h-106z" />
    <glyph glyph-name="uni018A" unicode="&#x18a;" horiz-adv-x="810" 
d="M654 361q0 136 -67 206t-203 70h-117v-560h97q290 0 290 284zM397 714q168 0 260 -92.5t92 -257.5q0 -177 -96.5 -270.5t-276.5 -93.5h-199v637h-26q-61 0 -61 -50q0 -30 10 -54h-79q-4 10 -7.5 26.5t-3.5 28.5q0 65 34.5 95.5t106.5 30.5h246z" />
    <glyph glyph-name="uni018B" unicode="&#x18b;" horiz-adv-x="615" 
d="M428 335h-82q-106 0 -154 -32t-48 -101q0 -63 44 -94t139 -31h101v258zM518 714v-714h-199q-268 0 -268 198q0 103 73.5 158.5t211.5 55.5h92v223h-334v79h424z" />
    <glyph glyph-name="uni018C" unicode="&#x18c;" horiz-adv-x="615" 
d="M289 63q80 0 117 43.5t37 143.5v16q0 112 -37.5 159.5t-117.5 47.5q-68 0 -105 -54t-37 -154t37 -151t106 -51zM530 0h-71l-13 72h-4q-56 -82 -167 -82q-104 0 -162 72.5t-58 204.5q0 131 58 205t163 74q108 0 166 -79h6q-1 10 -3.5 39.5t-2.5 39.5v140h-333v74h421v-760
z" />
    <glyph glyph-name="uni018D" unicode="&#x18d;" horiz-adv-x="604" 
d="M341 294q66 -38 95 -77t29 -87q0 -64 -48 -102t-132 -38q-51 0 -97 11.5t-109 42.5l38 69q37 -21 79 -36t93 -15q40 0 63.5 18.5t23.5 50.5q0 34 -26.5 60t-107.5 70q-104 57 -146 117t-42 136q0 115 66 180.5t184 65.5q112 0 179 -60.5t67 -163.5q0 -87 -54 -149.5
t-155 -92.5zM145 515q0 -62 30 -105.5t96 -77.5q92 22 139.5 74t47.5 131q0 67 -41.5 108.5t-112.5 41.5q-77 0 -118 -44.5t-41 -127.5z" />
    <glyph glyph-name="uni018E" unicode="&#x18e;" horiz-adv-x="556" 
d="M60 79h309v255h-291v78h291v223h-309v79h399v-714h-399v79z" />
    <glyph glyph-name="uni018F" unicode="&#x18f;" horiz-adv-x="738" 
d="M332 646q-110 0 -228 -41v82q61 21 114 29.5t116 8.5q162 0 252.5 -97.5t90.5 -271.5q0 -171 -85 -268.5t-237 -97.5q-147 0 -221.5 92t-74.5 275v34h523q-8 126 -71 190.5t-179 64.5zM355 69q100 0 159.5 63.5t67.5 179.5h-427q0 -125 49 -184t151 -59z" />
    <glyph glyph-name="uni0190" unicode="&#x190;" horiz-adv-x="587" 
d="M87 547q0 82 60.5 129.5t166.5 47.5q64 0 124 -18.5t109 -55.5l-43 -61q-52 36 -94 48.5t-94 12.5q-63 0 -99.5 -30.5t-36.5 -81.5q0 -60 48 -95.5t145 -35.5h97v-75h-102q-110 0 -165 -33t-55 -97q0 -67 48.5 -102.5t139.5 -35.5q105 0 214 52v-82q-90 -44 -219 -44
q-135 0 -206 52t-71 153q0 76 46.5 121t137.5 57v4q-72 12 -111.5 56.5t-39.5 113.5z" />
    <glyph glyph-name="uni0191" unicode="&#x191;" horiz-adv-x="519" 
d="M45 -240q-32 0 -56 13v76q21 -10 45 -10q35 0 49 20t14 62v793h399v-79h-309v-253h290v-79h-290v-386q0 -157 -142 -157z" />
    <glyph glyph-name="florin" unicode="&#x192;" horiz-adv-x="571" 
d="M161 -240q-36 0 -68 9v73q34 -9 63 -9q45 0 63.5 23.5t18.5 79.5v470h-105v41l105 30v65q0 94 39.5 138t129.5 44q45 0 103 -21l-22 -68q-50 16 -78 16q-46 0 -65 -24.5t-19 -83.5v-69h135v-68h-133v-470q0 -91 -40 -133.5t-127 -42.5z" />
    <glyph glyph-name="uni0193" unicode="&#x193;" horiz-adv-x="728" 
d="M407 377h247v-350q-57 -18 -115.5 -27.5t-135.5 -9.5q-163 0 -252.5 97t-89.5 270q0 112 44.5 195.5t128 127.5t197.5 44q71 0 137 -17v17q0 64 27 99t88 35q29 0 60 -13v-72q-24 10 -52 10q-47 0 -47 -48v-53l-34 -78q-94 41 -184 41q-127 0 -199 -77t-72 -211
q0 -142 68.5 -215.5t200.5 -73.5q72 0 140 17v212h-157v80z" />
    <glyph glyph-name="uni0194" unicode="&#x194;" horiz-adv-x="569" 
d="M334 108q33 -65 50 -121t17 -94q0 -59 -32 -96t-84 -37q-54 0 -85 37.5t-31 95.5q0 78 67 214l-236 607h94q89 -237 136.5 -362t54.5 -167q10 51 50 158l140 371h95zM319 -105q0 26 -8.5 62t-25.5 68q-19 -38 -26.5 -72t-7.5 -56q0 -31 9.5 -45t24.5 -14q34 0 34 57z" />
    <glyph glyph-name="uni0195" unicode="&#x195;" horiz-adv-x="934" 
d="M639 63q67 0 96.5 36t29.5 113v324h88v-327q0 -114 -51 -166.5t-163 -52.5q-110 0 -162 48.5t-52 147.5v157q0 65 -26 97t-83 32q-74 0 -108.5 -45.5t-34.5 -149.5v-277h-88v760h88v-223q0 -44 -5 -75h6q24 42 66 62.5t90 20.5q91 0 137 -46.5t46 -149.5v-157
q0 -65 30.5 -97t95.5 -32z" />
    <glyph glyph-name="uni0196" unicode="&#x196;" horiz-adv-x="348" 
d="M179 714v-549q0 -48 18 -72t59 -24q21 0 44 3.5t38 7.5v-74q-13 -6 -40 -11t-55 -5q-80 0 -116.5 41.5t-36.5 125.5v557h89z" />
    <glyph glyph-name="uni0197" unicode="&#x197;" horiz-adv-x="338" 
d="M298 0h-258v52l84 19v256h-90v78h90v237l-84 20v52h258v-52l-84 -20v-237h90v-78h-90v-256l84 -19v-52z" />
    <glyph glyph-name="uni0198" unicode="&#x198;" horiz-adv-x="619" 
d="M327 405l292 -405h-106q-30 40 -121 172q-71 103 -126 170l-79 -77v-265h-90v714h90v-360q28 35 60 72q21 24 185 225q29 38 54.5 53.5t66.5 15.5q30 0 50 -8v-70q-21 3 -44 3q-17 0 -31.5 -10t-36.5 -36z" />
    <glyph glyph-name="uni0199" unicode="&#x199;" horiz-adv-x="534" 
d="M172 363l-4 -87h4l30 38l34 41l171 181h103l-217 -229l232 -307h-106l-186 250l-61 -53v-197h-87v625q0 140 121 140q33 0 65 -13v-73q-23 10 -52 10q-23 0 -35 -13t-12 -45v-268z" />
    <glyph glyph-name="uni019A" unicode="&#x19a;" horiz-adv-x="257" 
d="M173 420h70v-66h-70v-354h-88v354h-70v66h70v340h88v-340z" />
    <glyph glyph-name="uni019B" unicode="&#x19b;" horiz-adv-x="541" 
d="M-6 0l231 526l-23 64l-106 -32l-19 63l99 30q-13 22 -29.5 32t-45.5 10q-30 0 -56 -6v71q33 8 66 8q53 0 87 -21t59 -69l109 33l19 -63l-102 -32l179 -498q10 -28 21.5 -41t28.5 -13q12 0 30 5v-65q-24 -12 -57 -12q-36 0 -58 18t-38 63l-73 205q-42 119 -50 159h-4
q-16 -62 -55 -154l-122 -281h-91z" />
    <glyph glyph-name="uni019C" unicode="&#x19c;" horiz-adv-x="1029" 
d="M180 714v-506q0 -70 29 -105t92 -35q84 0 124.5 47t40.5 147v452h90v-506q0 -70 29 -105t94 -35q84 0 123.5 49.5t39.5 164.5v432h90v-714h-71l-15 82h-5q-25 -42 -74 -67t-107 -25q-68 0 -110.5 24.5t-64.5 75.5h-5q-28 -48 -79.5 -74t-113.5 -26q-103 0 -150 53
t-47 165v506h90z" />
    <glyph glyph-name="uni019D" unicode="&#x19d;" horiz-adv-x="759" 
d="M97 714h104l22 -35l235 -362l124 -194h4q-1 12 -4 84t-3 104v403h84v-714h-105l-382 593h-4l2 -40q6 -89 6 -154v-482q0 -83 -34 -120t-101 -37q-32 0 -56 13v76q21 -10 45 -10q35 0 49 20t14 62v793z" />
    <glyph glyph-name="uni019E" unicode="&#x19e;" horiz-adv-x="618" 
d="M450 -240v583q0 64 -28.5 96.5t-91.5 32.5q-83 0 -120 -46.5t-37 -147.5v-278h-88v536h71l13 -73h5q25 40 70 61.5t99 21.5q99 0 146.5 -48t47.5 -149v-589h-87z" />
    <glyph glyph-name="uni019F" unicode="&#x19f;" horiz-adv-x="782" 
d="M720 358q0 -171 -86.5 -269.5t-242.5 -98.5q-158 0 -244 96.5t-86 272.5q0 174 85.5 270t245.5 96q155 0 241.5 -97.5t86.5 -269.5zM391 68q108 0 167.5 65t65.5 192h-467q6 -127 65.5 -192t168.5 -65zM392 646q-106 0 -165.5 -61.5t-69.5 -181.5h466q-9 121 -67.5 182
t-163.5 61z" />
    <glyph glyph-name="Ohorn" unicode="&#x1a0;" horiz-adv-x="784" 
d="M719 358q0 -173 -86.5 -270.5t-241.5 -97.5q-158 0 -244 96t-86 273q0 176 86 271t245 95t247 -104q33 9 48.5 39.5t15.5 99.5h95l7 -11q-15 -78 -47.5 -120.5t-83.5 -61.5q45 -85 45 -209zM156 358q0 -142 59.5 -216t175.5 -74t174.5 73t58.5 217q0 143 -58.5 215.5
t-173.5 72.5q-118 0 -177 -73.5t-59 -214.5z" />
    <glyph glyph-name="ohorn" unicode="&#x1a1;" horiz-adv-x="616" 
d="M551 269q0 -131 -66.5 -205t-183.5 -74q-73 0 -129 34t-86.5 97.5t-30.5 147.5q0 131 65.5 204t183.5 73q53 0 97.5 -18t76.5 -51q24 7 38.5 23.5t21.5 41t7 76.5h94l7 -11q-16 -79 -46.5 -121.5t-82.5 -61.5q34 -69 34 -155zM146 269q0 -105 38.5 -155.5t118.5 -50.5
q83 0 120 52t37 154q0 100 -38 151.5t-120 51.5q-83 0 -119.5 -51.5t-36.5 -151.5z" />
    <glyph glyph-name="uni01A2" unicode="&#x1a2;" horiz-adv-x="1075" 
d="M688 358q0 -173 -82.5 -270.5t-230.5 -97.5q-150 0 -232 96.5t-82 272.5q0 174 82 270t233 96q142 0 224 -91q28 43 78 67t110 24q102 0 149.5 -52.5t47.5 -165.5v-507h-90v507q0 70 -29 105t-92 35q-53 0 -86.5 -15t-52.5 -46q53 -92 53 -228zM156 358q0 -142 56 -216
t163 -74t162.5 73t55.5 217q0 143 -55 215.5t-162 72.5q-108 0 -164 -73.5t-56 -214.5z" />
    <glyph glyph-name="uni01A3" unicode="&#x1a3;" horiz-adv-x="845" 
d="M526 269q0 -132 -63.5 -205.5t-173.5 -73.5q-69 0 -122.5 34t-82.5 98t-29 147q0 130 62.5 203.5t173.5 73.5q106 0 169 -72q26 37 64 54.5t80 17.5q80 0 120 -47t40 -150v-589h-87v585q0 127 -92 127q-63 0 -94 -44q35 -63 35 -159zM146 269q0 -101 36.5 -153.5
t107.5 -52.5t108 52t37 154q0 101 -37 152t-108 51q-144 0 -144 -203z" />
    <glyph glyph-name="uni01A4" unicode="&#x1a4;" horiz-adv-x="685" 
d="M267 355h72q106 0 154 34.5t48 110.5q0 69 -44.5 103t-138.5 34h-91v-282zM366 714q268 0 268 -210q0 -109 -74.5 -167.5t-210.5 -58.5h-82v-278h-90v637h-26q-61 0 -61 -50q0 -30 10 -54h-79q-4 10 -7.5 26.5t-3.5 28.5q0 65 34.5 95.5t106.5 30.5h215z" />
    <glyph glyph-name="uni01A5" unicode="&#x1a5;" horiz-adv-x="615" 
d="M207 765q33 0 65 -13v-73q-23 10 -52 10q-23 0 -35 -13t-12 -45v-80q0 -30 -4 -68l-2 -20h6q31 44 72 63.5t95 19.5q104 0 162 -72.5t58 -204.5q0 -131 -58 -205t-163 -74q-108 0 -166 78h-6l2 -20q4 -38 4 -68v-220h-88l1 865q0 140 121 140zM324 472q-80 0 -115 -45
t-36 -141v-17q0 -109 36 -157.5t117 -48.5q67 0 105 54.5t38 152.5t-38 150t-107 52z" />
    <glyph glyph-name="uni01A6" unicode="&#x1a6;" horiz-adv-x="622" 
d="M187 271h107q87 0 127 34t40 102q0 67 -40.5 98t-131.5 31h-102v-265zM187 195v-195h-90v714h90v-100h107q133 0 196.5 -50.5t63.5 -152.5q0 -142 -143 -191l196 -320h-105l-173 295h-142z" />
    <glyph glyph-name="uni01A7" unicode="&#x1a7;" horiz-adv-x="548" 
d="M47 191q0 48 20 84t61 63.5t124 58.5q68 25 98.5 44t44 42t13.5 58q0 49 -36 76.5t-99 27.5q-72 0 -154 -38l-28 77q85 40 180 40q102 0 165 -49.5t63 -132.5q0 -76 -41.5 -125.5t-142.5 -86.5q-78 -28 -113 -48t-50 -43t-15 -56q0 -54 40.5 -84.5t120.5 -30.5
q91 0 200 47v-86q-34 -17 -85 -28t-111 -11q-120 0 -187.5 54t-67.5 147z" />
    <glyph glyph-name="uni01A8" unicode="&#x1a8;" horiz-adv-x="479" 
d="M45 148q0 37 15 64t46.5 48.5t99.5 46.5q88 34 113 53t25 49t-28 47.5t-83 17.5q-50 0 -132 -34l-30 70q81 36 156 36q98 0 149.5 -36.5t51.5 -105.5q0 -37 -14.5 -63t-45 -47t-106.5 -50q-53 -20 -81 -35.5t-39.5 -31t-11.5 -37.5q0 -39 32 -59t95 -20q84 0 170 43v-80
q-62 -34 -168 -34q-214 0 -214 158z" />
    <glyph glyph-name="uni01A9" unicode="&#x1a9;" horiz-adv-x="569" 
d="M36 0v74l234 299l-228 266v75h475v-80h-325l-47 1l225 -261l-235 -296l163 1h248v-79h-510z" />
    <glyph glyph-name="uni01AA" unicode="&#x1aa;" horiz-adv-x="309" 
d="M67 542q-60 0 -91.5 29.5t-31.5 82.5q0 54 32.5 82.5t92.5 28.5q63 0 96.5 -36t33.5 -105v-696q0 -49 18 -72.5t59 -23.5q19 0 43.5 3t38.5 8v-67q-15 -7 -41.5 -11.5t-52.5 -4.5q-80 0 -116 41t-36 126v615h-45zM63 693q-21 0 -30 -12t-9 -27q0 -40 49 -40h39v13
q0 35 -12.5 50.5t-36.5 15.5z" />
    <glyph glyph-name="uni01AB" unicode="&#x1ab;" horiz-adv-x="360" 
d="M222 -240q-29 0 -60 12v73q22 -9 50 -9q48 0 48 52v102h-11q-157 0 -157 166v312h-76v42l77 35l35 114h52v-123h155v-68h-155v-310q0 -46 22.5 -71t61.5 -25q17 0 40 3.5t35 7.5v-180q0 -133 -117 -133z" />
    <glyph glyph-name="uni01AC" unicode="&#x1ac;" horiz-adv-x="576" 
d="M151 635q-61 0 -61 -48q0 -30 10 -54h-79q-4 10 -7.5 26.5t-3.5 28.5q0 65 34.5 95.5t106.5 30.5h414v-79h-222v-635h-90v635h-102z" />
    <glyph glyph-name="uni01AD" unicode="&#x1ad;" horiz-adv-x="360" 
d="M180 536h155v-68h-155v-310q0 -46 22.5 -71t61.5 -25q17 0 40 3.5t35 7.5v-67q-12 -5 -38 -10.5t-52 -5.5q-157 0 -157 166v312h-76v42l77 35v66q0 154 147 154q39 0 77 -13v-73q-11 4 -34.5 7t-42.5 3q-32 0 -46 -17t-14 -51v-85z" />
    <glyph glyph-name="uni01AE" unicode="&#x1ae;" horiz-adv-x="556" 
d="M233 635h-223v79h535v-79h-222v-714q0 -42 14.5 -62t48.5 -20q24 0 45 10v-76q-24 -13 -63 -13q-68 0 -101.5 37t-33.5 120v718z" />
    <glyph glyph-name="Uhorn" unicode="&#x1af;" horiz-adv-x="779" 
d="M640 714v-97q40 5 59 37t19 106h93l7 -11q-16 -90 -59 -135.5t-119 -58.5v-303q0 -125 -70.5 -193.5t-200.5 -68.5q-133 0 -206 70.5t-73 193.5v460h90v-464q0 -86 47.5 -134t143.5 -48q88 0 134 46.5t46 136.5v463h89z" />
    <glyph glyph-name="uhorn" unicode="&#x1b0;" horiz-adv-x="673" 
d="M168 535v-344q0 -65 29 -96.5t90 -31.5q83 0 120.5 46t37.5 148v278h88v-59q39 6 57 37.5t18 105.5h93l7 -11q-16 -93 -59 -139.5t-116 -54.5v-414h-72l-13 71h-4q-24 -39 -67.5 -60t-100.5 -21q-98 0 -147.5 46.5t-49.5 148.5v350h89z" />
    <glyph glyph-name="uni01B1" unicode="&#x1b1;" horiz-adv-x="782" 
d="M391 68q114 0 173 62t59 183q0 110 -40.5 189t-126.5 140v72h288v-79h-178q74 -57 113 -141t39 -184q0 -150 -87 -235.5t-240 -85.5q-155 0 -241.5 85t-86.5 235q0 100 39 185t112 141h-177v79h288v-72q-87 -62 -127.5 -142t-40.5 -187q0 -120 59.5 -182.5t174.5 -62.5z
" />
    <glyph glyph-name="uni01B2" unicode="&#x1b2;" horiz-adv-x="600" 
d="M571 580q0 -53 -45 -157l-181 -423h-90l-255 714h94l162 -466q31 -88 45 -156q8 30 27 73q21 50 32 81l85 203q36 88 36 125q0 39 -16 55t-47 16q-24 0 -45 -10v76q22 13 63 13q135 0 135 -144z" />
    <glyph glyph-name="uni01B3" unicode="&#x1b3;" horiz-adv-x="565" 
d="M39 649q-21 0 -39 -8v73q28 11 60 11q37 0 59.5 -17.5t40.5 -57.5l128 -287l181 351h97l-233 -437v-277h-90v273l-162 341q-18 35 -42 35z" />
    <glyph glyph-name="uni01B4" unicode="&#x1b4;" horiz-adv-x="541" 
d="M485 546q33 0 57 -12v-65q-18 5 -30 5q-18 0 -28.5 -13t-21.5 -41l-183 -494q-32 -87 -79 -126.5t-116 -39.5q-37 0 -73 8v70q24 -6 59 -6q85 0 121 95l26 71l-216 538h94l116 -305q37 -100 45 -146h4q8 36 48 147l76 217q19 54 41 75.5t60 21.5z" />
    <glyph glyph-name="uni01B5" unicode="&#x1b5;" horiz-adv-x="571" 
d="M79 407h184l151 227h-364v80h473v-68l-159 -239h122v-71h-169l-170 -256h386v-80h-495v68l178 268h-137v71z" />
    <glyph glyph-name="uni01B6" unicode="&#x1b6;" horiz-adv-x="470" 
d="M57 313h161l109 155h-271v68h368v-66l-111 -157h101v-70h-151l-123 -175h291v-68h-392v58l130 185h-112v70z" />
    <glyph glyph-name="uni01B7" unicode="&#x1b7;" horiz-adv-x="583" 
d="M291 440q68 -2 122.5 -30t85 -76.5t30.5 -112.5q0 -109 -76 -170t-212 -61q-126 0 -206 39v82q49 -23 104 -35t103 -12q97 0 145 41t48 117q0 69 -49.5 107t-143.5 38h-62v65l206 202h-331v80h444v-71z" />
    <glyph glyph-name="uni01B8" unicode="&#x1b8;" horiz-adv-x="583" 
d="M85 643v71h444v-80h-330l205 -202v-65h-78q-84 0 -130.5 -40.5t-46.5 -113.5q0 -71 49.5 -110t143.5 -39q49 0 103.5 11.5t103.5 35.5v-82q-45 -21 -98.5 -30t-119.5 -9q-87 0 -149 27t-94.5 77t-32.5 117q0 68 30 119t84.5 79.5t123.5 30.5z" />
    <glyph glyph-name="uni01B9" unicode="&#x1b9;" horiz-adv-x="498" 
d="M61 472v64h409v-74h-306l219 -243v-61h-59q-101 0 -151.5 -42.5t-50.5 -124.5q0 -71 47 -114.5t126 -43.5q100 0 189 42v-80q-68 -35 -196 -35q-113 0 -183.5 63t-70.5 166q0 105 64.5 168t181.5 71z" />
    <glyph glyph-name="uni01BA" unicode="&#x1ba;" horiz-adv-x="498" 
d="M216 -167q84 0 160 36v-80q-60 -29 -161 -29q-90 0 -138.5 31t-48.5 88q0 62 46.5 91.5t137.5 29.5q80 0 114.5 27.5t34.5 94.5q0 60 -44.5 88t-142.5 28h-59v61l183 163h-270v74h394v-64l-187 -164q104 -5 159 -51.5t55 -133.5q0 -95 -59.5 -145.5t-175.5 -50.5
q-53 0 -78 -10.5t-25 -37.5q0 -21 26.5 -33.5t78.5 -12.5z" />
    <glyph glyph-name="uni01BB" unicode="&#x1bb;" horiz-adv-x="569" 
d="M78 419h241q27 44 39 82t12 81q0 50 -29.5 78t-82.5 28q-45 0 -81.5 -16.5t-73.5 -49.5l-47 59q93 84 204 84q94 0 147.5 -48.5t53.5 -132.5q0 -42 -10.5 -81.5t-35.5 -83.5h100v-70h-144q-11 -16 -23.5 -32.5t-201.5 -242.5v-4h374v-70h-472v73l175 215l47 61h-192v70z
" />
    <glyph glyph-name="uni01BC" unicode="&#x1bc;" horiz-adv-x="583" 
d="M224 634v-193h42q77 0 137 -27t93 -76.5t33 -116.5q0 -109 -76 -170t-212 -61q-126 0 -206 39v82q49 -23 104 -35t103 -12q97 0 145 41t48 117q0 68 -47 106.5t-130 38.5h-124v267h-79v80h444v-80h-275z" />
    <glyph glyph-name="uni01BD" unicode="&#x1bd;" horiz-adv-x="490" 
d="M198 462v-117h23q107 0 165.5 -46.5t58.5 -135.5q0 -82 -60.5 -127.5t-168.5 -45.5q-118 0 -183 35v79q89 -42 182 -42q69 0 106 26.5t37 79.5t-37.5 79t-115.5 26h-95v189h-62v74h364v-74h-214z" />
    <glyph glyph-name="uni01BE" unicode="&#x1be;" horiz-adv-x="462" 
d="M136 378v90h-91v42l92 35l35 114h52v-123h155v-68h-155v-92q0 -34 10.5 -49.5t36.5 -24.5q83 -31 115 -66.5t32 -87.5q0 -75 -56 -116.5t-158 -41.5q-105 0 -168 34v80q86 -43 170 -43q66 0 96.5 21.5t30.5 57.5q0 29 -24 49.5t-90 47.5q-47 20 -65 52t-18 89z" />
    <glyph glyph-name="uni01BF" unicode="&#x1bf;" horiz-adv-x="586" 
d="M173 -240h-88v776h72l12 -73h4q55 83 158 83q96 0 152 -59t56 -164q0 -91 -45.5 -164.5t-130 -117.5t-190.5 -51v-230zM173 62q131 17 203 85.5t72 173.5q0 69 -36 110t-99 41q-73 0 -106.5 -44t-33.5 -142v-224z" />
    <glyph glyph-name="uni01C0" unicode="&#x1c0;" horiz-adv-x="516" 
d="M297 -240h-78v1000h78v-1000z" />
    <glyph glyph-name="uni01C1" unicode="&#x1c1;" horiz-adv-x="516" 
d="M169 -240h-78v1000h78v-1000zM426 -240h-78v1000h78v-1000z" />
    <glyph glyph-name="uni01C2" unicode="&#x1c2;" horiz-adv-x="516" 
d="M65 402h154v358h78v-358h154v-72h-154v-124h154v-72h-154v-374h-78v374h-154v72h154v124h-154v72z" />
    <glyph glyph-name="uni01C3" unicode="&#x1c3;" horiz-adv-x="269" 
d="M163 201h-57l-25 513h107zM72 54q0 32 16 49.5t46 17.5t46 -18t16 -49t-16.5 -49.5t-45.5 -18.5q-30 0 -46 18t-16 50z" />
    <glyph glyph-name="uni01C4" unicode="&#x1c4;" horiz-adv-x="1291" 
d="M827 931h60q56 -36 107 -92q62 62 109 92h62v-13q-100 -100 -125 -147h-90q-29 50 -123 147v13zM35 40h63v620h-63v40h210q72 0 136 -24.5t112 -70t76 -110.5t28 -145q0 -59 -20.5 -121t-66.5 -113t-119.5 -83.5t-179.5 -32.5h-176v40zM139 660v-620h87q83 0 145 26.5
t103 70t61.5 99t20.5 114.5q0 71 -24.5 128.5t-67 98t-99 62t-120.5 21.5h-106zM1314 201v-201h-559v40l477 620h-460v75h42v-35h471v-40l-477 -620h466v161h40z" />
    <glyph glyph-name="uni01C5" unicode="&#x1c5;" horiz-adv-x="1200" 
d="M800 766h60q56 -36 107 -92q62 62 109 92h62v-13q-100 -100 -125 -147h-90q-29 50 -123 147v13zM35 40h63v620h-63v40h210q72 0 136 -24.5t112 -70t76 -110.5t28 -145q0 -59 -20.5 -121t-66.5 -113t-119.5 -83.5t-179.5 -32.5h-176v40zM139 660v-620h87q83 0 145 26.5
t103 70t61.5 99t20.5 114.5q0 71 -24.5 128.5t-67 98t-99 62t-120.5 21.5h-106zM1126 94v-94h-361v41q75 75 142 147t142 147h-272v75h38v-35h292v-41q-75 -75 -142 -146.5t-142 -146.5h265v53h38z" />
    <glyph glyph-name="uni01C6" unicode="&#x1c6;" horiz-adv-x="1084" 
d="M687 766h60q56 -36 107 -92q62 62 109 92h62v-13q-100 -100 -125 -147h-90q-29 50 -123 147v13zM391 40q0 12 0.5 23.5t0.5 22.5q-7 -17 -21.5 -34t-35 -30t-47 -21t-56.5 -8q-41 0 -77 15.5t-62.5 41.5t-42 61.5t-15.5 76.5q0 40 15.5 75.5t42 62t62.5 42t77 15.5
q29 0 54.5 -8t46.5 -21.5t36 -30.5t22 -35l-2 42l-2 42v338h-70v40h112v-710h74v-40h-112v40zM77 188q0 -32 12 -60t32.5 -49t49 -33t61.5 -12t61 12t49 33t33 49t12 60t-12 60.5t-33 49.5t-49 33t-61 12t-61.5 -12t-49 -33t-32.5 -49.5t-12 -60.5zM1011 94v-94h-361v41
q75 75 142 147t142 147h-272v75h38v-35h292v-41q-75 -75 -142 -146.5t-142 -146.5h265v53h38z" />
    <glyph glyph-name="uni01C7" unicode="&#x1c7;" horiz-adv-x="796" 
d="M35 40h69v620h-69v40h193v-40h-83v-620h348v114h40v-154h-498v40zM559 700h207v-610q0 -56 -16 -98.5t-44 -72t-66 -45.5t-81 -17v40q36 2 66.5 16t52.5 39t34.5 60.5t12.5 80.5v567h-166v40z" />
    <glyph glyph-name="uni01C8" unicode="&#x1c8;" horiz-adv-x="782" 
d="M35 40h69v620h-69v40h193v-40h-83v-620h348v114h40v-154h-498v40zM559 375h114v-379q0 -59 -17.5 -103t-48.5 -73l-30 30q26 25 40.5 61t14.5 84v340h-73v40zM621 508q0 14 10 23.5t23 9.5t22.5 -9.5t9.5 -23.5t-9.5 -23.5t-22.5 -9.5t-23 9.5t-10 23.5z" />
    <glyph glyph-name="uni01C9" unicode="&#x1c9;" horiz-adv-x="516" 
d="M35 40h74v670h-71v40h112v-710h78v-40h-193v40zM293 375h114v-379q0 -59 -17.5 -103t-48.5 -73l-30 30q26 25 40.5 61t14.5 84v340h-73v40zM355 508q0 14 10 23.5t23 9.5t22.5 -9.5t9.5 -23.5t-9.5 -23.5t-22.5 -9.5t-23 9.5t-10 23.5z" />
    <glyph glyph-name="uni01CA" unicode="&#x1ca;" horiz-adv-x="1033" 
d="M35 40h81v620h-81v40h108l526 -612l19 -26l-3 32v566h-75v40h201v-40h-84v-692l-553 639l-19 22l3 -28v-561h78v-40h-201v40zM795 700h207v-610q0 -56 -16 -98.5t-44 -72t-66 -45.5t-81 -17v40q36 2 66.5 16t52.5 39t34.5 60.5t12.5 80.5v567h-166v40z" />
    <glyph glyph-name="uni01CB" unicode="&#x1cb;" horiz-adv-x="1018" 
d="M35 40h81v620h-81v40h108l526 -612l19 -26l-3 32v566h-75v40h201v-40h-84v-692l-553 639l-19 22l3 -28v-561h78v-40h-201v40zM795 375h114v-379q0 -59 -17.5 -103t-48.5 -73l-30 30q26 25 40.5 61t14.5 84v340h-73v40zM857 508q0 14 10 23.5t23 9.5t22.5 -9.5t9.5 -23.5
t-9.5 -23.5t-22.5 -9.5t-23 9.5t-10 23.5z" />
    <glyph glyph-name="uni01CC" unicode="&#x1cc;" horiz-adv-x="875" 
d="M317 40h78v220q-2 32 -23.5 56t-63.5 26q-30 0 -58 -10.5t-49.5 -28.5t-34 -43t-12.5 -55v-165h74v-40h-193v40h78v295h-72v40h106l1 -35q1 -17 2 -31t1 -31q20 47 64.5 76t100.5 29q55 0 87 -31t34 -81v-231h73v-40h-193v40zM653 375h114v-379q0 -59 -17.5 -103
t-48.5 -73l-30 30q26 25 40.5 61t14.5 84v340h-73v40zM715 508q0 14 10 23.5t23 9.5t22.5 -9.5t9.5 -23.5t-9.5 -23.5t-22.5 -9.5t-23 9.5t-10 23.5z" />
    <glyph glyph-name="uni01CD" unicode="&#x1cd;" horiz-adv-x="639" 
d="M150 944h60q56 -36 107 -92q62 62 109 92h62v-13q-100 -100 -125 -147h-90q-29 50 -123 147v13zM35 40h77q74 174 147.5 346t146.5 346q73 -174 146.5 -346t146.5 -346h78v-40h-193v40h73q-28 65 -55 129.5t-55 130.5h-282q-28 -66 -55 -130.5t-55 -129.5h73v-40h-193v40
zM415 611l-9 28q-2 -3 -5 -15q-2 -6 -5 -13q-10 -26 -23.5 -58.5t-28.5 -68t-30.5 -72.5t-30.5 -72h246z" />
    <glyph glyph-name="uni01CE" unicode="&#x1ce;" horiz-adv-x="561" 
d="M112 766h60q56 -36 107 -92q62 62 109 92h62v-13q-100 -100 -125 -147h-90q-29 50 -123 147v13zM35 188q0 40 15.5 75.5t42 62t62.5 42t77 15.5q29 0 55 -8.5t47 -22t35.5 -31t21.5 -34.5q0 22 1.5 44t2.5 44h34v-335h74v-40h-112v40q0 12 0.5 23.5t0.5 22.5
q-7 -17 -21.5 -34t-35 -30t-47 -21t-56.5 -8q-41 0 -77 15.5t-62.5 41.5t-42 61.5t-15.5 76.5zM77 188q0 -32 12 -60t32.5 -49t49 -33t61.5 -12t61 12t49 33t33 49t12 60t-12 60.5t-33 49.5t-49 33t-61 12t-61.5 -12t-49 -33t-32.5 -49.5t-12 -60.5z" />
    <glyph glyph-name="uni01CF" unicode="&#x1cf;" horiz-adv-x="338" 
d="M2 944h60q56 -36 107 -92q62 62 109 92h62v-13q-100 -100 -125 -147h-90q-29 50 -123 147v13zM35 40h78v620h-78v40h201v-40h-82v-620h82v-40h-201v40z" />
    <glyph glyph-name="uni01D0" unicode="&#x1d0;" horiz-adv-x="257" 
d="M-40 766h60q56 -36 107 -92q62 62 109 92h62v-13q-100 -100 -125 -147h-90q-29 50 -123 147v13zM35 40h77v295h-77v40h119v-335h74v-40h-193v40z" />
    <glyph glyph-name="uni01D1" unicode="&#x1d1;" horiz-adv-x="780" 
d="M221 944h60q56 -36 107 -92q62 62 109 92h62v-13q-100 -100 -125 -147h-90q-29 50 -123 147v13zM35 349q0 74 28 139.5t76.5 114t113.5 77t139 28.5t139.5 -28.5t114 -77t77 -114t28.5 -139.5t-28.5 -139t-77 -113.5t-114 -76.5t-139.5 -28t-139 28t-113.5 76.5
t-76.5 113.5t-28 139zM77 348q0 -66 24.5 -123.5t67.5 -100t100 -67.5t122 -25t123 25t101.5 68t68.5 100.5t25 123.5t-25 124t-68 101.5t-101 68.5t-123 25t-122.5 -25.5t-100.5 -69t-67.5 -101.5t-24.5 -124z" />
    <glyph glyph-name="uni01D2" unicode="&#x1d2;" horiz-adv-x="604" 
d="M133 766h60q56 -36 107 -92q62 62 109 92h62v-13q-100 -100 -125 -147h-90q-29 50 -123 147v13zM36 188q0 40 15.5 76t42 62.5t62 42t76.5 15.5t77 -15.5t63 -42t42.5 -62.5t15.5 -76q0 -41 -15.5 -76.5t-42.5 -61.5t-63 -41.5t-77 -15.5t-76.5 15.5t-62 41.5t-42 61.5
t-15.5 76.5zM77 188q0 -32 12 -60t33 -49t49 -33t60 -12t60.5 12t49.5 33t33 49t12 60t-12 60t-33 49t-49.5 33.5t-60.5 12.5t-60 -12.5t-49 -33.5t-33 -49t-12 -60z" />
    <glyph glyph-name="uni01D3" unicode="&#x1d3;" horiz-adv-x="730" 
d="M196 944h60q56 -36 107 -92q62 62 109 92h62v-13q-100 -100 -125 -147h-90q-29 50 -123 147v13zM35 700h201v-40h-82v-431q0 -48 14.5 -84.5t40 -61.5t61 -38t78.5 -13q42 0 77.5 13t61.5 38t40.5 61.5t14.5 84.5v431h-82v40h201v-40h-77v-434q0 -57 -18 -101t-50 -73.5
t-75 -44.5t-93 -15q-51 0 -94 15t-74.5 44.5t-49.5 73.5t-18 101v434h-77v40z" />
    <glyph glyph-name="uni01D4" unicode="&#x1d4;" horiz-adv-x="618" 
d="M140 766h60q56 -36 107 -92q62 62 109 92h62v-13q-100 -100 -125 -147h-90q-29 50 -123 147v13zM35 375h115v-260q2 -32 23.5 -56t63.5 -26q31 0 59 10.5t49 28.5t33.5 43t12.5 55v165h-74v40h116v-339h71v-36h-108l-2 52v45q-20 -48 -64.5 -76.5t-99.5 -28.5t-87 31
t-34 81v231h-74v40z" />
    <glyph glyph-name="uni01D5" unicode="&#x1d5;" horiz-adv-x="730" 
d="M508 815q0 -23 -12.5 -36t-34.5 -13t-34.5 13t-12.5 36q0 26 14 38t33 12q20 0 33.5 -12t13.5 -38zM320 815q0 -26 -13.5 -37.5t-32.5 -11.5q-22 0 -34.5 13t-12.5 36q0 26 14 38t33 12t32.5 -12t13.5 -38zM219 1001h297v-71h-297v71zM35 700h201v-40h-82v-431
q0 -48 14.5 -84.5t40 -61.5t61 -38t78.5 -13q42 0 77.5 13t61.5 38t40.5 61.5t14.5 84.5v431h-82v40h201v-40h-77v-434q0 -57 -18 -101t-50 -73.5t-75 -44.5t-93 -15q-51 0 -94 15t-74.5 44.5t-49.5 73.5t-18 101v434h-77v40z" />
    <glyph glyph-name="uni01D6" unicode="&#x1d6;" horiz-adv-x="618" 
d="M447 650q0 -23 -12.5 -36t-34.5 -13t-34.5 13t-12.5 36q0 26 14 38t33 12q20 0 33.5 -12t13.5 -38zM259 650q0 -26 -13.5 -37.5t-32.5 -11.5q-22 0 -34.5 13t-12.5 36q0 26 14 38t33 12t32.5 -12t13.5 -38zM158 836h297v-71h-297v71zM35 375h115v-260q2 -32 23.5 -56
t63.5 -26q31 0 59 10.5t49 28.5t33.5 43t12.5 55v165h-74v40h116v-339h71v-36h-108l-2 52v45q-20 -48 -64.5 -76.5t-99.5 -28.5t-87 31t-34 81v231h-74v40z" />
    <glyph glyph-name="uni01D7" unicode="&#x1d7;" horiz-adv-x="730" 
d="M499 815q0 -23 -12.5 -36t-34.5 -13t-34.5 13t-12.5 36q0 26 14 38t33 12q20 0 33.5 -12t13.5 -38zM311 815q0 -26 -13.5 -37.5t-32.5 -11.5q-22 0 -34.5 13t-12.5 36q0 26 14 38t33 12t32.5 -12t13.5 -38zM305 903q73 84 96 133h105v-10q-28 -43 -142 -135h-59v12z
M35 700h201v-40h-82v-431q0 -48 14.5 -84.5t40 -61.5t61 -38t78.5 -13q42 0 77.5 13t61.5 38t40.5 61.5t14.5 84.5v431h-82v40h201v-40h-77v-434q0 -57 -18 -101t-50 -73.5t-75 -44.5t-93 -15q-51 0 -94 15t-74.5 44.5t-49.5 73.5t-18 101v434h-77v40z" />
    <glyph glyph-name="uni01D8" unicode="&#x1d8;" horiz-adv-x="618" 
d="M446 650q0 -23 -12.5 -36t-34.5 -13t-34.5 13t-12.5 36q0 26 14 38t33 12q20 0 33.5 -12t13.5 -38zM258 650q0 -26 -13.5 -37.5t-32.5 -11.5q-22 0 -34.5 13t-12.5 36q0 26 14 38t33 12t32.5 -12t13.5 -38zM252 738q73 84 96 133h105v-10q-28 -43 -142 -135h-59v12z
M35 375h115v-260q2 -32 23.5 -56t63.5 -26q31 0 59 10.5t49 28.5t33.5 43t12.5 55v165h-74v40h116v-339h71v-36h-108l-2 52v45q-20 -48 -64.5 -76.5t-99.5 -28.5t-87 31t-34 81v231h-74v40z" />
    <glyph glyph-name="uni01D9" unicode="&#x1d9;" horiz-adv-x="730" 
d="M504 815q0 -23 -12.5 -36t-34.5 -13t-34.5 13t-12.5 36q0 26 14 38t33 12q20 0 33.5 -12t13.5 -38zM316 815q0 -26 -13.5 -37.5t-32.5 -11.5q-22 0 -34.5 13t-12.5 36q0 26 14 38t33 12t32.5 -12t13.5 -38zM195 1046h60q26 -17 54 -36t53 -46q27 27 55 46t54 36h62v-13
l-32 -31q-73 -69 -93 -106h-90q-21 36 -92 106l-31 31v13zM35 700h201v-40h-82v-431q0 -48 14.5 -84.5t40 -61.5t61 -38t78.5 -13q42 0 77.5 13t61.5 38t40.5 61.5t14.5 84.5v431h-82v40h201v-40h-77v-434q0 -57 -18 -101t-50 -73.5t-75 -44.5t-93 -15q-51 0 -94 15
t-74.5 44.5t-49.5 73.5t-18 101v434h-77v40z" />
    <glyph glyph-name="uni01DA" unicode="&#x1da;" horiz-adv-x="618" 
d="M444 650q0 -23 -12.5 -36t-34.5 -13t-34.5 13t-12.5 36q0 26 14 38t33 12q20 0 33.5 -12t13.5 -38zM256 650q0 -26 -13.5 -37.5t-32.5 -11.5q-22 0 -34.5 13t-12.5 36q0 26 14 38t33 12t32.5 -12t13.5 -38zM135 881h60q26 -17 54 -36t53 -46q27 27 55 46t54 36h62v-13
l-32 -31q-73 -69 -93 -106h-90q-21 36 -92 106l-31 31v13zM35 375h115v-260q2 -32 23.5 -56t63.5 -26q31 0 59 10.5t49 28.5t33.5 43t12.5 55v165h-74v40h116v-339h71v-36h-108l-2 52v45q-20 -48 -64.5 -76.5t-99.5 -28.5t-87 31t-34 81v231h-74v40z" />
    <glyph glyph-name="uni01DB" unicode="&#x1db;" horiz-adv-x="730" 
d="M500 815q0 -23 -12.5 -36t-34.5 -13t-34.5 13t-12.5 36q0 26 14 38t33 12q20 0 33.5 -12t13.5 -38zM312 815q0 -26 -13.5 -37.5t-32.5 -11.5q-22 0 -34.5 13t-12.5 36q0 26 14 38t33 12t32.5 -12t13.5 -38zM414 891h-59q-114 91 -142 135v10h105q23 -49 96 -133v-12z
M35 700h201v-40h-82v-431q0 -48 14.5 -84.5t40 -61.5t61 -38t78.5 -13q42 0 77.5 13t61.5 38t40.5 61.5t14.5 84.5v431h-82v40h201v-40h-77v-434q0 -57 -18 -101t-50 -73.5t-75 -44.5t-93 -15q-51 0 -94 15t-74.5 44.5t-49.5 73.5t-18 101v434h-77v40z" />
    <glyph glyph-name="uni01DC" unicode="&#x1dc;" horiz-adv-x="618" 
d="M447 650q0 -23 -12.5 -36t-34.5 -13t-34.5 13t-12.5 36q0 26 14 38t33 12q20 0 33.5 -12t13.5 -38zM259 650q0 -26 -13.5 -37.5t-32.5 -11.5q-22 0 -34.5 13t-12.5 36q0 26 14 38t33 12t32.5 -12t13.5 -38zM361 726h-59q-114 91 -142 135v10h105q23 -49 96 -133v-12z
M35 375h115v-260q2 -32 23.5 -56t63.5 -26q31 0 59 10.5t49 28.5t33.5 43t12.5 55v165h-74v40h116v-339h71v-36h-108l-2 52v45q-20 -48 -64.5 -76.5t-99.5 -28.5t-87 31t-34 81v231h-74v40z" />
    <glyph glyph-name="uni01DD" unicode="&#x1dd;" horiz-adv-x="563" 
d="M251 546q121 0 189.5 -73t68.5 -201q0 -129 -64 -205.5t-173 -76.5q-101 0 -161 65.5t-60 176.5v53h367q-2 91 -46 138.5t-125 47.5q-43 0 -81.5 -7.5t-90.5 -29.5v77q44 19 83.5 27t92.5 8zM273 62q63 0 99.5 40.5t43.5 112.5h-273q1 -74 34.5 -113.5t95.5 -39.5z" />
    <glyph glyph-name="uni01DE" unicode="&#x1de;" horiz-adv-x="639" 
d="M460 815q0 -23 -12.5 -36t-34.5 -13t-34.5 13t-12.5 36q0 26 14 38t33 12q20 0 33.5 -12t13.5 -38zM272 815q0 -26 -13.5 -37.5t-32.5 -11.5q-22 0 -34.5 13t-12.5 36q0 26 14 38t33 12t32.5 -12t13.5 -38zM171 1001h297v-71h-297v71zM35 40h77q74 174 147.5 346
t146.5 346q73 -174 146.5 -346t146.5 -346h78v-40h-193v40h73q-28 65 -55 129.5t-55 130.5h-282q-28 -66 -55 -130.5t-55 -129.5h73v-40h-193v40zM415 611l-9 28q-2 -3 -5 -15q-2 -6 -5 -13q-10 -26 -23.5 -58.5t-28.5 -68t-30.5 -72.5t-30.5 -72h246z" />
    <glyph glyph-name="uni01DF" unicode="&#x1df;" horiz-adv-x="561" 
d="M426 650q0 -23 -12.5 -36t-34.5 -13t-34.5 13t-12.5 36q0 26 14 38t33 12q20 0 33.5 -12t13.5 -38zM238 650q0 -26 -13.5 -37.5t-32.5 -11.5q-22 0 -34.5 13t-12.5 36q0 26 14 38t33 12t32.5 -12t13.5 -38zM137 836h297v-71h-297v71zM35 188q0 40 15.5 75.5t42 62
t62.5 42t77 15.5q29 0 55 -8.5t47 -22t35.5 -31t21.5 -34.5q0 22 1.5 44t2.5 44h34v-335h74v-40h-112v40q0 12 0.5 23.5t0.5 22.5q-7 -17 -21.5 -34t-35 -30t-47 -21t-56.5 -8q-41 0 -77 15.5t-62.5 41.5t-42 61.5t-15.5 76.5zM77 188q0 -32 12 -60t32.5 -49t49 -33
t61.5 -12t61 12t49 33t33 49t12 60t-12 60.5t-33 49.5t-49 33t-61 12t-61.5 -12t-49 -33t-32.5 -49.5t-12 -60.5z" />
    <glyph glyph-name="uni01E0" unicode="&#x1e0;" horiz-adv-x="639" 
d="M269 826q0 29 15 42.5t37 13.5q23 0 37 -15t14 -41t-14.5 -41t-36.5 -15t-37 13.5t-15 42.5zM171 1001h297v-71h-297v71zM35 40h77q74 174 147.5 346t146.5 346q73 -174 146.5 -346t146.5 -346h78v-40h-193v40h73q-28 65 -55 129.5t-55 130.5h-282q-28 -66 -55 -130.5
t-55 -129.5h73v-40h-193v40zM415 611l-9 28q-2 -3 -5 -15q-2 -6 -5 -13q-10 -26 -23.5 -58.5t-28.5 -68t-30.5 -72.5t-30.5 -72h246z" />
    <glyph glyph-name="uni01E1" unicode="&#x1e1;" horiz-adv-x="561" 
d="M235 662q0 29 15 42.5t37 13.5q23 0 37 -15t14 -41t-14.5 -41t-36.5 -15t-37 13.5t-15 42.5zM137 837h297v-71h-297v71zM35 188q0 40 15.5 75.5t42 62t62.5 42t77 15.5q29 0 55 -8.5t47 -22t35.5 -31t21.5 -34.5q0 22 1.5 44t2.5 44h34v-335h74v-40h-112v40
q0 12 0.5 23.5t0.5 22.5q-7 -17 -21.5 -34t-35 -30t-47 -21t-56.5 -8q-41 0 -77 15.5t-62.5 41.5t-42 61.5t-15.5 76.5zM77 188q0 -32 12 -60t32.5 -49t49 -33t61.5 -12t61 12t49 33t33 49t12 60t-12 60.5t-33 49.5t-49 33t-61 12t-61.5 -12t-49 -33t-32.5 -49.5t-12 -60.5z
" />
    <glyph glyph-name="uni01E2" unicode="&#x1e2;" horiz-adv-x="880" 
d="M347 842h297v-71h-297v71zM687 546v114h-247v-287h248v-40h-248v-293h261v114h40v-154h-343v295h-134q-27 -64 -54 -127.5t-55 -127.5h73v-40h-193v40h78q71 166 140 330t139 330h335v-154h-40zM398 335v284q-25 -72 -56.5 -142.5t-60.5 -141.5h117z" />
    <glyph glyph-name="uni01E3" unicode="&#x1e3;" horiz-adv-x="863" 
d="M283 677h297v-71h-297v71zM348 241v-38q39 15 78.5 30.5t78.5 30.5q-17 35 -49 56t-70 21q-17 0 -31.5 -3.5t-28.5 -8.5q13 -14 17.5 -35.5t4.5 -52.5zM306 160h-78h-40.5t-50 -5.5t-42.5 -17.5t-18 -36q0 -22 11 -35.5t28.5 -21t38 -10.5t39.5 -3t39 3t36.5 11
t26.5 22.5t10 38.5v54zM86 309q-7 7 -13 14t-13 14q10 9 25.5 17.5t33.5 14.5t37.5 9.5t36.5 3.5q74 0 108 -19q41 19 85 19q30 0 57 -10.5t49.5 -29.5t39.5 -44.5t26 -56.5q-52 -20 -104.5 -41t-105.5 -41v-31q0 -29 -5.5 -48.5t-20.5 -34.5q27 -13 64 -13q31 0 58 11
t47 31q7 -8 13 -15t13 -15q-26 -25 -59 -39t-72 -14q-50 0 -89 21q-37 -22 -104 -22q-36 0 -65 5.5t-49.5 18t-32 34t-11.5 54.5q0 28 12.5 47.5t33.5 31.5t47.5 17t54.5 5h123v40q0 25 -4 43.5t-16 30.5t-34.5 18t-59.5 6q-13 0 -28.5 -3t-30 -7.5t-27.5 -10t-20 -11.5z
" />
    <glyph glyph-name="uni01E4" unicode="&#x1e4;" horiz-adv-x="728" 
d="M407 377h247v-150h64v-71h-64v-129q-57 -18 -115.5 -27.5t-135.5 -9.5q-163 0 -252.5 97t-89.5 270q0 112 44.5 195.5t128 127.5t197.5 44t213 -42l-34 -78q-94 41 -184 41q-127 0 -199 -77t-72 -211q0 -142 68.5 -215.5t200.5 -73.5q72 0 140 17v71h-147v71h147v70h-157
v80z" />
    <glyph glyph-name="uni01E5" unicode="&#x1e5;" horiz-adv-x="615" 
d="M443 15l3 66h-4q-54 -81 -166 -81q-105 0 -163 71t-58 201q0 128 58 201t162 73q109 0 168 -81h5l12 71h70v-545q0 -20 -2 -37h57v-71h-72q-47 -123 -223 -123q-117 0 -193 34v81q78 -42 198 -42q77 0 117 50h-149v71h178l2 30v31zM289 72q83 0 119 42.5t36 136.5v16
q0 107 -37 156t-120 49q-68 0 -104.5 -50.5t-36.5 -150.5q0 -199 143 -199z" />
    <glyph glyph-name="Gcaron" unicode="&#x1e6;" horiz-adv-x="728" 
d="M248 931h60q56 -36 107 -92q62 62 109 92h62v-13q-100 -100 -125 -147h-90q-29 50 -123 147v13zM574 298v-258q-40 -23 -85.5 -36.5t-96.5 -13.5q-74 0 -139 28t-113.5 76.5t-76.5 113.5t-28 139t28 139.5t76.5 114t113.5 77t139 28.5q51 0 96.5 -13t86.5 -37l-23 -34
q-35 21 -75.5 32.5t-84.5 11.5q-65 0 -122.5 -25.5t-100.5 -69t-67.5 -101.5t-24.5 -124q0 -65 24.5 -122.5t67.5 -100.5t99.5 -68t121.5 -25q76 0 142 34v194h-144v40h186z" />
    <glyph glyph-name="gcaron" unicode="&#x1e7;" horiz-adv-x="615" 
d="M138 766h60q56 -36 107 -92q62 62 109 92h62v-13q-100 -100 -125 -147h-90q-29 50 -123 147v13zM395 375h109v-40h-75v-370q0 -49 -15 -88.5t-41 -67.5t-60.5 -43t-74.5 -16q-42 1 -84.5 16t-69.5 44l30 31q22 -24 56 -36t67 -12q31 0 58.5 12.5t47.5 35.5t32 55.5
t12 71.5v72q1 11 2 22.5t2 22.5q-8 -18 -22.5 -34.5t-35 -29t-46.5 -20.5t-55 -8q-41 0 -77 15.5t-62.5 41.5t-42 61.5t-15.5 76.5q0 40 15.5 75.5t42 62t62.5 42t77 15.5q29 0 55 -8.5t47 -22t35.5 -31t21.5 -34.5q0 22 1.5 44t2.5 44zM77 188q0 -32 12 -60t32.5 -49
t49 -33t61.5 -12t61 12t49 33t33 49t12 60t-12 60.5t-33 49.5t-49 33t-61 12t-61.5 -12t-49 -33t-32.5 -49.5t-12 -60.5z" />
    <glyph glyph-name="uni01E8" unicode="&#x1e8;" horiz-adv-x="619" 
d="M164 931h60q56 -36 107 -92q62 62 109 92h62v-13q-100 -100 -125 -147h-90q-29 50 -123 147v13zM458 40h60q-69 88 -138.5 176.5t-139.5 177.5l-87 -83q0 -68 0.5 -135.5t0.5 -135.5h82v-40h-201v40h77v620h-77v40h193v-40h-74v-274q-1 -8 -1.5 -15t-0.5 -15l18 21
l296 283h-53v40h193v-40h-86l-251 -239q75 -96 150 -191l150 -190h82v-40h-193v40z" />
    <glyph glyph-name="uni01E9" unicode="&#x1e9;" horiz-adv-x="534" 
d="M128 951h60q56 -36 107 -92q62 62 109 92h62v-13q-100 -100 -125 -147h-90q-29 50 -123 147v13zM283 40h48q-29 40 -58.5 79.5t-58.5 79.5l-64 -60v-99h78v-40h-193v40h74v670h-71v40h112v-560l155 145h-60v40h185v-40h-72q-31 -29 -56.5 -54t-56.5 -54q33 -48 67 -94
t69 -93h87v-40h-185v40z" />
    <glyph glyph-name="uni01EA" unicode="&#x1ea;" horiz-adv-x="780" 
d="M400 -116q0 -22 12 -33.5t33 -11.5t48 6v-56q-34 -9 -62 -9q-103 0 -103 94q0 68 78 126h62q-34 -32 -51 -58.5t-17 -57.5zM35 349q0 74 28 139.5t76.5 114t113.5 77t139 28.5t139.5 -28.5t114 -77t77 -114t28.5 -139.5t-28.5 -139t-77 -113.5t-114 -76.5t-139.5 -28
t-139 28t-113.5 76.5t-76.5 113.5t-28 139zM77 348q0 -66 24.5 -123.5t67.5 -100t100 -67.5t122 -25t123 25t101.5 68t68.5 100.5t25 123.5t-25 124t-68 101.5t-101 68.5t-123 25t-122.5 -25.5t-100.5 -69t-67.5 -101.5t-24.5 -124z" />
    <glyph glyph-name="uni01EB" unicode="&#x1eb;" horiz-adv-x="604" 
d="M302 -116q0 -22 12 -33.5t33 -11.5t48 6v-56q-34 -9 -62 -9q-103 0 -103 94q0 68 78 126h62q-34 -32 -51 -58.5t-17 -57.5zM36 188q0 40 15.5 76t42 62.5t62 42t76.5 15.5t77 -15.5t63 -42t42.5 -62.5t15.5 -76q0 -41 -15.5 -76.5t-42.5 -61.5t-63 -41.5t-77 -15.5
t-76.5 15.5t-62 41.5t-42 61.5t-15.5 76.5zM77 188q0 -32 12 -60t33 -49t49 -33t60 -12t60.5 12t49.5 33t33 49t12 60t-12 60t-33 49t-49.5 33.5t-60.5 12.5t-60 -12.5t-49 -33.5t-33 -49t-12 -60z" />
    <glyph glyph-name="uni01EC" unicode="&#x1ec;" horiz-adv-x="780" 
d="M400 -116q0 -22 12 -33.5t33 -11.5t48 6v-56q-34 -9 -62 -9q-103 0 -103 94q0 68 78 126h62q-34 -32 -51 -58.5t-17 -57.5zM242 842h297v-71h-297v71zM35 349q0 74 28 139.5t76.5 114t113.5 77t139 28.5t139.5 -28.5t114 -77t77 -114t28.5 -139.5t-28.5 -139t-77 -113.5
t-114 -76.5t-139.5 -28t-139 28t-113.5 76.5t-76.5 113.5t-28 139zM77 348q0 -66 24.5 -123.5t67.5 -100t100 -67.5t122 -25t123 25t101.5 68t68.5 100.5t25 123.5t-25 124t-68 101.5t-101 68.5t-123 25t-122.5 -25.5t-100.5 -69t-67.5 -101.5t-24.5 -124z" />
    <glyph glyph-name="uni01ED" unicode="&#x1ed;" horiz-adv-x="604" 
d="M302 -116q0 -22 12 -33.5t33 -11.5t48 6v-56q-34 -9 -62 -9q-103 0 -103 94q0 68 78 126h62q-34 -32 -51 -58.5t-17 -57.5zM154 677h297v-71h-297v71zM36 188q0 40 15.5 76t42 62.5t62 42t76.5 15.5t77 -15.5t63 -42t42.5 -62.5t15.5 -76q0 -41 -15.5 -76.5t-42.5 -61.5
t-63 -41.5t-77 -15.5t-76.5 15.5t-62 41.5t-42 61.5t-15.5 76.5zM77 188q0 -32 12 -60t33 -49t49 -33t60 -12t60.5 12t49.5 33t33 49t12 60t-12 60t-33 49t-49.5 33.5t-60.5 12.5t-60 -12.5t-49 -33.5t-33 -49t-12 -60z" />
    <glyph glyph-name="uni01EE" unicode="&#x1ee;" horiz-adv-x="583" 
d="M103 931h60q56 -36 107 -92q62 62 109 92h62v-13q-100 -100 -125 -147h-90q-29 50 -123 147v13zM291 440q68 -2 122.5 -30t85 -76.5t30.5 -112.5q0 -109 -76 -170t-212 -61q-126 0 -206 39v82q49 -23 104 -35t103 -12q97 0 145 41t48 117q0 69 -49.5 107t-143.5 38h-62
v65l206 202h-331v80h444v-71z" />
    <glyph glyph-name="uni01EF" unicode="&#x1ef;" horiz-adv-x="498" 
d="M218 228q115 -8 180.5 -68.5t65.5 -158.5q0 -70 -33 -125.5t-93.5 -85.5t-138.5 -30q-117 0 -185 35v80q89 -42 189 -42q79 0 126 45t47 121q0 77 -51 118t-151 41h-59v61l219 243h-306v74h409v-64zM58 766h60q56 -36 107 -92q62 62 109 92h62v-13q-100 -100 -125 -147
h-90q-29 50 -123 147v13z" />
    <glyph glyph-name="uni01F0" unicode="&#x1f0;" horiz-adv-x="257" 
d="M-40 766h60q56 -36 107 -92q62 62 109 92h62v-13q-100 -100 -125 -147h-90q-29 50 -123 147v13zM22 -240q-46 0 -77 12v71q34 -10 66 -10q38 0 56 21t18 63v619h88v-616q0 -80 -38.5 -120t-112.5 -40z" />
    <glyph glyph-name="uni01F1" unicode="&#x1f1;" horiz-adv-x="1291" 
d="M35 40h63v620h-63v40h210q72 0 136 -24.5t112 -70t76 -110.5t28 -145q0 -59 -20.5 -121t-66.5 -113t-119.5 -83.5t-179.5 -32.5h-176v40zM139 660v-620h87q83 0 145 26.5t103 70t61.5 99t20.5 114.5q0 71 -24.5 128.5t-67 98t-99 62t-120.5 21.5h-106zM1314 201v-201
h-559v40l477 620h-460v75h42v-35h471v-40l-477 -620h466v161h40z" />
    <glyph glyph-name="uni01F2" unicode="&#x1f2;" horiz-adv-x="1200" 
d="M35 40h63v620h-63v40h210q72 0 136 -24.5t112 -70t76 -110.5t28 -145q0 -59 -20.5 -121t-66.5 -113t-119.5 -83.5t-179.5 -32.5h-176v40zM139 660v-620h87q83 0 145 26.5t103 70t61.5 99t20.5 114.5q0 71 -24.5 128.5t-67 98t-99 62t-120.5 21.5h-106zM1126 94v-94h-361
v41q75 75 142 147t142 147h-272v75h38v-35h292v-41q-75 -75 -142 -146.5t-142 -146.5h265v53h38z" />
    <glyph glyph-name="uni01F3" unicode="&#x1f3;" horiz-adv-x="1084" 
d="M391 40q0 12 0.5 23.5t0.5 22.5q-7 -17 -21.5 -34t-35 -30t-47 -21t-56.5 -8q-41 0 -77 15.5t-62.5 41.5t-42 61.5t-15.5 76.5q0 40 15.5 75.5t42 62t62.5 42t77 15.5q29 0 54.5 -8t46.5 -21.5t36 -30.5t22 -35l-2 42l-2 42v338h-70v40h112v-710h74v-40h-112v40zM77 188
q0 -32 12 -60t32.5 -49t49 -33t61.5 -12t61 12t49 33t33 49t12 60t-12 60.5t-33 49.5t-49 33t-61 12t-61.5 -12t-49 -33t-32.5 -49.5t-12 -60.5zM1011 94v-94h-361v41q75 75 142 147t142 147h-272v75h38v-35h292v-41q-75 -75 -142 -146.5t-142 -146.5h265v53h38z" />
    <glyph glyph-name="uni01F4" unicode="&#x1f4;" horiz-adv-x="728" 
d="M574 298v-258q-40 -23 -85.5 -36.5t-96.5 -13.5q-74 0 -139 28t-113.5 76.5t-76.5 113.5t-28 139t28 139.5t76.5 114t113.5 77t139 28.5q51 0 96.5 -13t86.5 -37l-23 -34q-35 21 -75.5 32.5t-84.5 11.5q-65 0 -122.5 -25.5t-100.5 -69t-67.5 -101.5t-24.5 -124
q0 -65 24.5 -122.5t67.5 -100.5t99.5 -68t121.5 -25q76 0 142 34v194h-144v40h186zM274 644q23 33 45 66.5t45 66.5h43q-25 -33 -50 -66.5t-50 -66.5h-33z" />
    <glyph glyph-name="uni01F5" unicode="&#x1f5;" horiz-adv-x="615" 
d="M395 375h109v-40h-75v-370q0 -49 -15 -88.5t-41 -67.5t-60.5 -43t-74.5 -16q-42 1 -84.5 16t-69.5 44l30 31q22 -24 56 -36t67 -12q31 0 58.5 12.5t47.5 35.5t32 55.5t12 71.5v72q1 11 2 22.5t2 22.5q-8 -18 -22.5 -34.5t-35 -29t-46.5 -20.5t-55 -8q-41 0 -77 15.5
t-62.5 41.5t-42 61.5t-15.5 76.5q0 40 15.5 75.5t42 62t62.5 42t77 15.5q29 0 55 -8.5t47 -22t35.5 -31t21.5 -34.5q0 22 1.5 44t2.5 44zM77 188q0 -32 12 -60t32.5 -49t49 -33t61.5 -12t61 12t49 33t33 49t12 60t-12 60.5t-33 49.5t-49 33t-61 12t-61.5 -12t-49 -33
t-32.5 -49.5t-12 -60.5zM136 479q23 33 45 66.5t45 66.5h43q-25 -33 -50 -66.5t-50 -66.5h-33z" />
    <glyph glyph-name="uni01F6" unicode="&#x1f6;" horiz-adv-x="937" 
d="M187 333v-333h-90v714h90v-302h296v302h90v-550q0 -45 23 -70t70 -25q44 0 68 25t24 71v371h90v-371q0 -81 -49 -127.5t-136 -46.5q-85 0 -132.5 46t-47.5 129v167h-296z" />
    <glyph glyph-name="uni01F7" unicode="&#x1f7;" horiz-adv-x="661" 
d="M389 725q103 0 160 -64t57 -179q0 -161 -106.5 -284.5t-312.5 -207.5v-230h-90v955h71l15 -97h5q37 55 86.5 81t114.5 26zM187 74q161 67 245 171.5t84 235.5q0 81 -37 123.5t-106 42.5q-94 0 -140 -55.5t-46 -173.5v-344z" />
    <glyph glyph-name="uni01F8" unicode="&#x1f8;" horiz-adv-x="759" 
d="M35 40h81v620h-81v40h108l526 -612l19 -26l-3 32v566h-75v40h201v-40h-84v-692l-553 639l-19 22l3 -28v-561h78v-40h-201v40zM64 777q23 -33 45 -66.5t45 -66.5h-33q-25 33 -50 66.5t-50 66.5h43z" />
    <glyph glyph-name="uni01F9" unicode="&#x1f9;" horiz-adv-x="618" 
d="M317 40h78v220q-2 32 -23.5 56t-63.5 26q-30 0 -58 -10.5t-49.5 -28.5t-34 -43t-12.5 -55v-165h74v-40h-193v40h78v295h-72v40h106l1 -35q1 -17 2 -31t1 -31q20 47 64.5 76t100.5 29q55 0 87 -31t34 -81v-231h73v-40h-193v40zM3 612q23 -33 45 -66.5t45 -66.5h-33
q-25 33 -50 66.5t-50 66.5h43z" />
    <glyph glyph-name="Aringacute" unicode="&#x1fa;" horiz-adv-x="640" 
d="M430 699q0 -32 -13 -54.5t-35 -35.5l258 -609h-93l-82 192h-295l-78 -192h-92l258 608q-49 26 -49 90q0 48 29.5 77t79.5 29t81 -29.5t31 -75.5zM439 272l-84 207q-13 30 -36 101q-15 -52 -35 -103l-83 -205h238zM271 838q28 33 51 67t34 53h106v-8q-15 -21 -58 -60.5
t-74 -60.5h-59v9zM374 698q0 27 -15.5 41.5t-40.5 14.5q-24 0 -40 -14.5t-16 -41.5q0 -26 14.5 -41t41.5 -15q25 0 40.5 14.5t15.5 41.5z" />
    <glyph glyph-name="aringacute" unicode="&#x1fb;" horiz-adv-x="561" 
d="M416 0l-17 76h-4q-40 -50 -80 -68t-100 -18q-79 0 -124 41.5t-45 117.5q0 163 257 171l91 3v32q0 61 -26.5 90t-84.5 29q-42 0 -80 -12.5t-71 -28.5l-27 66q41 21 88.5 33.5t94.5 12.5q97 0 144.5 -43t47.5 -137v-365h-64zM235 61q74 0 116 40t42 113v48l-79 -3
q-92 -3 -134.5 -29t-42.5 -82q0 -42 26 -64.5t72 -22.5zM396 713q0 -49 -30.5 -78t-80.5 -29t-79.5 29t-29.5 77q0 47 29 76t80 29q49 0 80 -29t31 -75zM341 712q0 26 -16 41t-40 15t-40 -15t-16 -41t14.5 -41t41.5 -15q25 0 40.5 15t15.5 41zM230 856v8q22 21 48 50t37 44
h131v-6q-10 -12 -50.5 -37.5t-102.5 -58.5h-63z" />
    <glyph glyph-name="AEacute" unicode="&#x1fc;" horiz-adv-x="880" 
d="M687 546v114h-247v-287h248v-40h-248v-293h261v114h40v-154h-343v295h-134q-27 -64 -54 -127.5t-55 -127.5h73v-40h-193v40h78q71 166 140 330t139 330h335v-154h-40zM398 335v284q-25 -72 -56.5 -142.5t-60.5 -141.5h117zM391 644q23 33 45 66.5t45 66.5h43
q-25 -33 -50 -66.5t-50 -66.5h-33z" />
    <glyph glyph-name="aeacute" unicode="&#x1fd;" horiz-adv-x="863" 
d="M348 241v-38q39 15 78.5 30.5t78.5 30.5q-17 35 -49 56t-70 21q-17 0 -31.5 -3.5t-28.5 -8.5q13 -14 17.5 -35.5t4.5 -52.5zM306 160h-78h-40.5t-50 -5.5t-42.5 -17.5t-18 -36q0 -22 11 -35.5t28.5 -21t38 -10.5t39.5 -3t39 3t36.5 11t26.5 22.5t10 38.5v54zM86 309
q-7 7 -13 14t-13 14q10 9 25.5 17.5t33.5 14.5t37.5 9.5t36.5 3.5q74 0 108 -19q41 19 85 19q30 0 57 -10.5t49.5 -29.5t39.5 -44.5t26 -56.5q-52 -20 -104.5 -41t-105.5 -41v-31q0 -29 -5.5 -48.5t-20.5 -34.5q27 -13 64 -13q31 0 58 11t47 31q7 -8 13 -15t13 -15
q-26 -25 -59 -39t-72 -14q-50 0 -89 21q-37 -22 -104 -22q-36 0 -65 5.5t-49.5 18t-32 34t-11.5 54.5q0 28 12.5 47.5t33.5 31.5t47.5 17t54.5 5h123v40q0 25 -4 43.5t-16 30.5t-34.5 18t-59.5 6q-13 0 -28.5 -3t-30 -7.5t-27.5 -10t-20 -11.5zM293 479q23 33 45 66.5
t45 66.5h43q-25 -33 -50 -66.5t-50 -66.5h-33z" />
    <glyph glyph-name="Oslashacute" unicode="&#x1fe;" horiz-adv-x="780" 
d="M77 348q0 -66 24.5 -124t68.5 -101q103 122 204 242t204 241q-40 29 -87 45.5t-99 16.5q-65 0 -122.5 -25.5t-100.5 -69t-67.5 -101.5t-24.5 -124zM390 32q66 0 124 25t101.5 68t68.5 100.5t25 123.5q0 69 -27.5 128.5t-75.5 103.5q-103 -121 -203.5 -241.5
t-203.5 -241.5q40 -32 88.5 -49t102.5 -17zM35 349q0 74 28 139.5t76.5 114t113.5 77t139 28.5q60 0 114 -18.5t99 -52.5l63 75l14 -12t14 -13q-16 -19 -31 -37t-31 -37q54 -49 85.5 -117.5t31.5 -146.5q0 -74 -28.5 -139t-77 -113.5t-114 -76.5t-139.5 -28q-63 0 -118.5 20
t-100.5 55q-17 -20 -33.5 -39.5t-33.5 -39.5q-7 7 -14 13t-14 13l66 78q-51 49 -80 115t-29 142zM238 644q23 33 45 66.5t45 66.5h43q-25 -33 -50 -66.5t-50 -66.5h-33z" />
    <glyph glyph-name="oslashacute" unicode="&#x1ff;" horiz-adv-x="604" 
d="M77 188q0 -30 10.5 -56.5t28.5 -46.5q50 59 98.5 117t98.5 117q-17 11 -38 17.5t-44 6.5q-33 0 -61 -12t-48.5 -33t-32.5 -49.5t-12 -60.5zM231 34q33 0 61.5 12t49.5 33t33 49t12 60q0 33 -13 62t-36 50q-50 -60 -99.5 -118.5t-99.5 -117.5q39 -30 92 -30zM35 188
q0 40 15.5 76t42 62t62 41.5t76.5 15.5q31 0 58.5 -8.5t50.5 -23.5q8 10 17 19.5t17 19.5q6 -5 11.5 -10.5t11.5 -10.5q-8 -9 -16 -18.5t-16 -19.5q29 -26 46.5 -63.5t17.5 -79.5q0 -41 -15.5 -76.5t-42.5 -61.5t-63 -41.5t-77 -15.5q-34 0 -64 10.5t-55 29.5l-20 -24
l-20 -24l-12 10l-12 10q11 12 20.5 24t20.5 24q-26 26 -40 60.5t-14 74.5zM143 479q23 33 45 66.5t45 66.5h43q-25 -33 -50 -66.5t-50 -66.5h-33z" />
    <glyph glyph-name="uni0200" unicode="&#x200;" horiz-adv-x="639" 
d="M449 771h-50q-29 23 -72 72t-61 78v10h97q14 -30 38 -72.5t48 -75.5v-12zM273 771h-50q-32 25 -74.5 74t-58.5 76v10h97q14 -30 38 -72.5t48 -75.5v-12zM35 40h77q74 174 147.5 346t146.5 346q73 -174 146.5 -346t146.5 -346h78v-40h-193v40h73q-28 65 -55 129.5
t-55 130.5h-282q-28 -66 -55 -130.5t-55 -129.5h73v-40h-193v40zM415 611l-9 28q-2 -3 -5 -15q-2 -6 -5 -13q-10 -26 -23.5 -58.5t-28.5 -68t-30.5 -72.5t-30.5 -72h246z" />
    <glyph glyph-name="uni0201" unicode="&#x201;" horiz-adv-x="561" 
d="M415 606h-50q-29 23 -72 72t-61 78v10h97q14 -30 38 -72.5t48 -75.5v-12zM239 606h-50q-32 25 -74.5 74t-58.5 76v10h97q14 -30 38 -72.5t48 -75.5v-12zM35 188q0 40 15.5 75.5t42 62t62.5 42t77 15.5q29 0 55 -8.5t47 -22t35.5 -31t21.5 -34.5q0 22 1.5 44t2.5 44h34
v-335h74v-40h-112v40q0 12 0.5 23.5t0.5 22.5q-7 -17 -21.5 -34t-35 -30t-47 -21t-56.5 -8q-41 0 -77 15.5t-62.5 41.5t-42 61.5t-15.5 76.5zM77 188q0 -32 12 -60t32.5 -49t49 -33t61.5 -12t61 12t49 33t33 49t12 60t-12 60.5t-33 49.5t-49 33t-61 12t-61.5 -12t-49 -33
t-32.5 -49.5t-12 -60.5z" />
    <glyph glyph-name="uni0202" unicode="&#x202;" horiz-adv-x="639" 
d="M322 905q69 0 108.5 -33.5t44.5 -100.5h-54q-4 36 -25 49.5t-76 13.5q-50 0 -73.5 -15.5t-27.5 -47.5h-55q5 63 47.5 98.5t110.5 35.5zM35 40h77q74 174 147.5 346t146.5 346q73 -174 146.5 -346t146.5 -346h78v-40h-193v40h73q-28 65 -55 129.5t-55 130.5h-282
q-28 -66 -55 -130.5t-55 -129.5h73v-40h-193v40zM415 611l-9 28q-2 -3 -5 -15q-2 -6 -5 -13q-10 -26 -23.5 -58.5t-28.5 -68t-30.5 -72.5t-30.5 -72h246z" />
    <glyph glyph-name="uni0203" unicode="&#x203;" horiz-adv-x="561" 
d="M293 740q69 0 108.5 -33.5t44.5 -100.5h-54q-4 36 -25 49.5t-76 13.5q-50 0 -73.5 -15.5t-27.5 -47.5h-55q5 63 47.5 98.5t110.5 35.5zM35 188q0 40 15.5 75.5t42 62t62.5 42t77 15.5q29 0 55 -8.5t47 -22t35.5 -31t21.5 -34.5q0 22 1.5 44t2.5 44h34v-335h74v-40h-112
v40q0 12 0.5 23.5t0.5 22.5q-7 -17 -21.5 -34t-35 -30t-47 -21t-56.5 -8q-41 0 -77 15.5t-62.5 41.5t-42 61.5t-15.5 76.5zM77 188q0 -32 12 -60t32.5 -49t49 -33t61.5 -12t61 12t49 33t33 49t12 60t-12 60.5t-33 49.5t-49 33t-61 12t-61.5 -12t-49 -33t-32.5 -49.5
t-12 -60.5z" />
    <glyph glyph-name="uni0204" unicode="&#x204;" horiz-adv-x="556" 
d="M437 771h-50q-29 23 -72 72t-61 78v10h97q14 -30 38 -72.5t48 -75.5v-12zM261 771h-50q-32 25 -74.5 74t-58.5 76v10h97q14 -30 38 -72.5t48 -75.5v-12zM35 40h72v620h-72v40h487v-154h-40v114h-334v-287h335v-40h-335v-293h348v114h40v-154h-501v40z" />
    <glyph glyph-name="uni0205" unicode="&#x205;" horiz-adv-x="563" 
d="M431 606h-50q-29 23 -72 72t-61 78v10h97q14 -30 38 -72.5t48 -75.5v-12zM255 606h-50q-32 25 -74.5 74t-58.5 76v10h97q14 -30 38 -72.5t48 -75.5v-12zM231 343q-37 0 -67.5 -15.5t-51.5 -41t-29.5 -59t-1.5 -68.5q67 27 134 53.5t135 53.5q-17 34 -49 55.5t-70 21.5z
M403 243q-78 -31 -155 -61.5t-155 -61.5q17 -38 54 -62t84 -24q31 0 58 11t47 31q7 -8 13 -15.5t13 -15.5q-26 -24 -59 -38t-72 -14q-41 0 -76.5 15.5t-62 41.5t-42 61.5t-15.5 76.5q0 40 15.5 76t42 62t62 41.5t76.5 15.5q30 0 57 -10.5t49.5 -29t39.5 -44t26 -56.5z" />
    <glyph glyph-name="uni0206" unicode="&#x206;" horiz-adv-x="556" 
d="M300 905q69 0 108.5 -33.5t44.5 -100.5h-54q-4 36 -25 49.5t-76 13.5q-50 0 -73.5 -15.5t-27.5 -47.5h-55q5 63 47.5 98.5t110.5 35.5zM35 40h72v620h-72v40h487v-154h-40v114h-334v-287h335v-40h-335v-293h348v114h40v-154h-501v40z" />
    <glyph glyph-name="uni0207" unicode="&#x207;" horiz-adv-x="563" 
d="M294 740q69 0 108.5 -33.5t44.5 -100.5h-54q-4 36 -25 49.5t-76 13.5q-50 0 -73.5 -15.5t-27.5 -47.5h-55q5 63 47.5 98.5t110.5 35.5zM231 343q-37 0 -67.5 -15.5t-51.5 -41t-29.5 -59t-1.5 -68.5q67 27 134 53.5t135 53.5q-17 34 -49 55.5t-70 21.5zM403 243
q-78 -31 -155 -61.5t-155 -61.5q17 -38 54 -62t84 -24q31 0 58 11t47 31q7 -8 13 -15.5t13 -15.5q-26 -24 -59 -38t-72 -14q-41 0 -76.5 15.5t-62 41.5t-42 61.5t-15.5 76.5q0 40 15.5 76t42 62t62 41.5t76.5 15.5q30 0 57 -10.5t49.5 -29t39.5 -44t26 -56.5z" />
    <glyph glyph-name="uni0208" unicode="&#x208;" horiz-adv-x="338" 
d="M299 771h-50q-29 23 -72 72t-61 78v10h97q14 -30 38 -72.5t48 -75.5v-12zM123 771h-50q-32 25 -74.5 74t-58.5 76v10h97q14 -30 38 -72.5t48 -75.5v-12zM35 40h78v620h-78v40h201v-40h-82v-620h82v-40h-201v40z" />
    <glyph glyph-name="uni0209" unicode="&#x209;" horiz-adv-x="257" 
d="M258 606h-50q-29 23 -72 72t-61 78v10h97q14 -30 38 -72.5t48 -75.5v-12zM82 606h-50q-32 25 -74.5 74t-58.5 76v10h97q14 -30 38 -72.5t48 -75.5v-12zM35 40h77v295h-77v40h119v-335h74v-40h-193v40z" />
    <glyph glyph-name="uni020A" unicode="&#x20a;" horiz-adv-x="338" 
d="M172 905q69 0 108.5 -33.5t44.5 -100.5h-54q-4 36 -25 49.5t-76 13.5q-50 0 -73.5 -15.5t-27.5 -47.5h-55q5 63 47.5 98.5t110.5 35.5zM35 40h78v620h-78v40h201v-40h-82v-620h82v-40h-201v40z" />
    <glyph glyph-name="uni020B" unicode="&#x20b;" horiz-adv-x="257" 
d="M131 740q69 0 108.5 -33.5t44.5 -100.5h-54q-4 36 -25 49.5t-76 13.5q-50 0 -73.5 -15.5t-27.5 -47.5h-55q5 63 47.5 98.5t110.5 35.5zM35 40h77v295h-77v40h119v-335h74v-40h-193v40z" />
    <glyph glyph-name="uni020C" unicode="&#x20c;" horiz-adv-x="780" 
d="M521 771h-50q-29 23 -72 72t-61 78v10h97q14 -30 38 -72.5t48 -75.5v-12zM345 771h-50q-32 25 -74.5 74t-58.5 76v10h97q14 -30 38 -72.5t48 -75.5v-12zM35 349q0 74 28 139.5t76.5 114t113.5 77t139 28.5t139.5 -28.5t114 -77t77 -114t28.5 -139.5t-28.5 -139
t-77 -113.5t-114 -76.5t-139.5 -28t-139 28t-113.5 76.5t-76.5 113.5t-28 139zM77 348q0 -66 24.5 -123.5t67.5 -100t100 -67.5t122 -25t123 25t101.5 68t68.5 100.5t25 123.5t-25 124t-68 101.5t-101 68.5t-123 25t-122.5 -25.5t-100.5 -69t-67.5 -101.5t-24.5 -124z" />
    <glyph glyph-name="uni020D" unicode="&#x20d;" horiz-adv-x="604" 
d="M438 606h-50q-29 23 -72 72t-61 78v10h97q14 -30 38 -72.5t48 -75.5v-12zM262 606h-50q-32 25 -74.5 74t-58.5 76v10h97q14 -30 38 -72.5t48 -75.5v-12zM36 188q0 40 15.5 76t42 62.5t62 42t76.5 15.5t77 -15.5t63 -42t42.5 -62.5t15.5 -76q0 -41 -15.5 -76.5
t-42.5 -61.5t-63 -41.5t-77 -15.5t-76.5 15.5t-62 41.5t-42 61.5t-15.5 76.5zM77 188q0 -32 12 -60t33 -49t49 -33t60 -12t60.5 12t49.5 33t33 49t12 60t-12 60t-33 49t-49.5 33.5t-60.5 12.5t-60 -12.5t-49 -33.5t-33 -49t-12 -60z" />
    <glyph glyph-name="uni020E" unicode="&#x20e;" horiz-adv-x="780" 
d="M393 905q69 0 108.5 -33.5t44.5 -100.5h-54q-4 36 -25 49.5t-76 13.5q-50 0 -73.5 -15.5t-27.5 -47.5h-55q5 63 47.5 98.5t110.5 35.5zM35 349q0 74 28 139.5t76.5 114t113.5 77t139 28.5t139.5 -28.5t114 -77t77 -114t28.5 -139.5t-28.5 -139t-77 -113.5t-114 -76.5
t-139.5 -28t-139 28t-113.5 76.5t-76.5 113.5t-28 139zM77 348q0 -66 24.5 -123.5t67.5 -100t100 -67.5t122 -25t123 25t101.5 68t68.5 100.5t25 123.5t-25 124t-68 101.5t-101 68.5t-123 25t-122.5 -25.5t-100.5 -69t-67.5 -101.5t-24.5 -124z" />
    <glyph glyph-name="uni020F" unicode="&#x20f;" horiz-adv-x="604" 
d="M305 740q69 0 108.5 -33.5t44.5 -100.5h-54q-4 36 -25 49.5t-76 13.5q-50 0 -73.5 -15.5t-27.5 -47.5h-55q5 63 47.5 98.5t110.5 35.5zM36 188q0 40 15.5 76t42 62.5t62 42t76.5 15.5t77 -15.5t63 -42t42.5 -62.5t15.5 -76q0 -41 -15.5 -76.5t-42.5 -61.5t-63 -41.5
t-77 -15.5t-76.5 15.5t-62 41.5t-42 61.5t-15.5 76.5zM77 188q0 -32 12 -60t33 -49t49 -33t60 -12t60.5 12t49.5 33t33 49t12 60t-12 60t-33 49t-49.5 33.5t-60.5 12.5t-60 -12.5t-49 -33.5t-33 -49t-12 -60z" />
    <glyph glyph-name="uni0210" unicode="&#x210;" horiz-adv-x="622" 
d="M440 771h-50q-29 23 -72 72t-61 78v10h97q14 -30 38 -72.5t48 -75.5v-12zM264 771h-50q-32 25 -74.5 74t-58.5 76v10h97q14 -30 38 -72.5t48 -75.5v-12zM35 40h61v620h-61v40h211q31 0 68 -10t69.5 -32t54.5 -57t22 -84q0 -72 -38.5 -119.5t-111.5 -62.5l139 -295h88v-40
h-114l-156 331q-11 -1 -23 -1.5t-23 -0.5h-84v-289h99v-40h-201v40zM137 370h104q52 0 86.5 14t55 36t28.5 47.5t8 49.5q0 28 -13.5 54t-37.5 46t-56.5 31.5t-69.5 11.5h-105v-290z" />
    <glyph glyph-name="uni0211" unicode="&#x211;" horiz-adv-x="413" 
d="M376 606h-50q-29 23 -72 72t-61 78v10h97q14 -30 38 -72.5t48 -75.5v-12zM200 606h-50q-32 25 -74.5 74t-58.5 76v10h97q14 -30 38 -72.5t48 -75.5v-12zM35 40h78v295h-72v40h106l1 -35q1 -17 2 -31t1 -31q23 49 67.5 76.5t90.5 28.5l-3 -41q-32 -1 -59.5 -11.5
t-48 -28.5t-32.5 -43t-12 -54v-165h74v-40h-193v40z" />
    <glyph glyph-name="uni0212" unicode="&#x212;" horiz-adv-x="622" 
d="M313 905q69 0 108.5 -33.5t44.5 -100.5h-54q-4 36 -25 49.5t-76 13.5q-50 0 -73.5 -15.5t-27.5 -47.5h-55q5 63 47.5 98.5t110.5 35.5zM35 40h61v620h-61v40h211q31 0 68 -10t69.5 -32t54.5 -57t22 -84q0 -72 -38.5 -119.5t-111.5 -62.5l139 -295h88v-40h-114l-156 331
q-11 -1 -23 -1.5t-23 -0.5h-84v-289h99v-40h-201v40zM137 370h104q52 0 86.5 14t55 36t28.5 47.5t8 49.5q0 28 -13.5 54t-37.5 46t-56.5 31.5t-69.5 11.5h-105v-290z" />
    <glyph glyph-name="uni0213" unicode="&#x213;" horiz-adv-x="413" 
d="M244 740q69 0 108.5 -33.5t44.5 -100.5h-54q-4 36 -25 49.5t-76 13.5q-50 0 -73.5 -15.5t-27.5 -47.5h-55q5 63 47.5 98.5t110.5 35.5zM35 40h78v295h-72v40h106l1 -35q1 -17 2 -31t1 -31q23 49 67.5 76.5t90.5 28.5l-3 -41q-32 -1 -59.5 -11.5t-48 -28.5t-32.5 -43
t-12 -54v-165h74v-40h-193v40z" />
    <glyph glyph-name="uni0214" unicode="&#x214;" horiz-adv-x="730" 
d="M509 771h-50q-29 23 -72 72t-61 78v10h97q14 -30 38 -72.5t48 -75.5v-12zM333 771h-50q-32 25 -74.5 74t-58.5 76v10h97q14 -30 38 -72.5t48 -75.5v-12zM35 700h201v-40h-82v-431q0 -48 14.5 -84.5t40 -61.5t61 -38t78.5 -13q42 0 77.5 13t61.5 38t40.5 61.5t14.5 84.5
v431h-82v40h201v-40h-77v-434q0 -57 -18 -101t-50 -73.5t-75 -44.5t-93 -15q-51 0 -94 15t-74.5 44.5t-49.5 73.5t-18 101v434h-77v40z" />
    <glyph glyph-name="uni0215" unicode="&#x215;" horiz-adv-x="618" 
d="M438 606h-50q-29 23 -72 72t-61 78v10h97q14 -30 38 -72.5t48 -75.5v-12zM262 606h-50q-32 25 -74.5 74t-58.5 76v10h97q14 -30 38 -72.5t48 -75.5v-12zM35 375h115v-260q2 -32 23.5 -56t63.5 -26q31 0 59 10.5t49 28.5t33.5 43t12.5 55v165h-74v40h116v-339h71v-36h-108
l-2 52v45q-20 -48 -64.5 -76.5t-99.5 -28.5t-87 31t-34 81v231h-74v40z" />
    <glyph glyph-name="uni0216" unicode="&#x216;" horiz-adv-x="730" 
d="M368 905q69 0 108.5 -33.5t44.5 -100.5h-54q-4 36 -25 49.5t-76 13.5q-50 0 -73.5 -15.5t-27.5 -47.5h-55q5 63 47.5 98.5t110.5 35.5zM35 700h201v-40h-82v-431q0 -48 14.5 -84.5t40 -61.5t61 -38t78.5 -13q42 0 77.5 13t61.5 38t40.5 61.5t14.5 84.5v431h-82v40h201
v-40h-77v-434q0 -57 -18 -101t-50 -73.5t-75 -44.5t-93 -15q-51 0 -94 15t-74.5 44.5t-49.5 73.5t-18 101v434h-77v40z" />
    <glyph glyph-name="uni0217" unicode="&#x217;" horiz-adv-x="618" 
d="M311 740q69 0 108.5 -33.5t44.5 -100.5h-54q-4 36 -25 49.5t-76 13.5q-50 0 -73.5 -15.5t-27.5 -47.5h-55q5 63 47.5 98.5t110.5 35.5zM35 375h115v-260q2 -32 23.5 -56t63.5 -26q31 0 59 10.5t49 28.5t33.5 43t12.5 55v165h-74v40h116v-339h71v-36h-108l-2 52v45
q-20 -48 -64.5 -76.5t-99.5 -28.5t-87 31t-34 81v231h-74v40z" />
    <glyph glyph-name="uni0218" unicode="&#x218;" horiz-adv-x="548" 
d="M190 -209q11 25 24 70.5t17 77.5h87v-9q-8 -31 -31.5 -76.5t-48.5 -74.5h-48v12zM36 76v106h40v-90q28 -25 68 -42.5t95 -17.5q33 0 64.5 10.5t55.5 30t38.5 47.5t14.5 64q0 44 -15 72t-39 46t-55 29t-63.5 20.5t-64 20.5t-57 29t-41.5 45.5t-18 70.5q-2 33 8 66.5t32 60
t57 43.5t85 17q17 0 37 -2t41 -7t42 -15t40 -26v-108h-40v88q-19 12 -49.5 21t-71.5 9q-35 0 -61 -11.5t-43.5 -31t-26 -45t-8.5 -52.5q0 -36 15 -59t39.5 -38t56 -25t64.5 -20t64.5 -23.5t56.5 -35t40.5 -54.5t16.5 -83q0 -44 -16.5 -80t-45 -61.5t-67.5 -39t-82 -13.5
q-39 0 -72 8t-59.5 20.5t-45.5 27.5t-30 28z" />
    <glyph glyph-name="uni0219" unicode="&#x219;" horiz-adv-x="479" 
d="M161 -209q11 25 24 70.5t17 77.5h87v-9q-8 -31 -31.5 -76.5t-48.5 -74.5h-48v12zM90 103v-51q18 -13 39.5 -16t42.5 -3q9 0 22 3.5t25 12t21 21.5t9 32q0 26 -13 40t-33.5 22.5t-44.5 15t-44.5 17.5t-34.5 29t-14 51q0 26 10 45.5t25.5 32.5t35 19.5t37.5 6.5
q4 0 16.5 -1t28.5 -4.5t31.5 -10.5t26.5 -19v-74h-38v53q-7 6 -17 9t-19.5 4.5t-17 1.5h-10.5q-12 0 -24 -3.5t-22 -11t-15.5 -19t-5.5 -28.5q0 -22 14 -34.5t34.5 -21t44 -16t44 -19.5t34 -31t13.5 -51q0 -17 -6.5 -36.5t-20.5 -36.5t-37.5 -28.5t-56.5 -11.5
q-10 0 -25.5 1.5t-32.5 5.5t-33 11t-27 19v74h38z" />
    <glyph glyph-name="uni021A" unicode="&#x21a;" horiz-adv-x="556" 
d="M191 -209q11 25 24 70.5t17 77.5h87v-9q-8 -31 -31.5 -76.5t-48.5 -74.5h-48v12zM209 40h82v620h-216v-114h-40v154h553v-154h-40v114h-216v-620h78v-40h-201v40z" />
    <glyph glyph-name="uni021B" unicode="&#x21b;" horiz-adv-x="360" 
d="M141 -209q11 25 24 70.5t17 77.5h87v-9q-8 -31 -31.5 -76.5t-48.5 -74.5h-48v12zM122 619h42v-244h115v-41h-115v-294h82v-40h-124v334h-87v41h87v244z" />
    <glyph glyph-name="uni021C" unicode="&#x21c;" horiz-adv-x="587" 
d="M519 547q0 -69 -44.5 -113.5t-124.5 -56.5v-4q91 -12 137.5 -56t46.5 -115q0 -100 -75.5 -156t-212.5 -56q-128 0 -208 39v82q48 -23 103.5 -35t103.5 -12q97 0 146 35.5t49 102.5q0 64 -55 97t-165 33h-102v75h97q106 0 158.5 35.5t52.5 95.5q0 52 -39 82t-105 30
q-56 0 -100.5 -13t-97.5 -48l-43 61q103 74 242 74q110 0 173 -47.5t63 -129.5z" />
    <glyph glyph-name="uni021D" unicode="&#x21d;" horiz-adv-x="498" 
d="M193 228q70 0 111.5 35t41.5 90t-38.5 88t-103.5 33q-30 0 -60.5 -7.5t-72.5 -26.5l-30 70q44 21 83 28.5t85 7.5q103 0 162 -48t59 -133q0 -61 -31.5 -105t-95.5 -65q81 -21 121 -71t40 -123q0 -70 -33 -125.5t-93.5 -85.5t-138.5 -30q-116 0 -189 37v80
q44 -21 95 -32.5t98 -11.5q79 0 126 45t47 121q0 77 -51 118t-151 41h-79v70h98z" />
    <glyph glyph-name="uni021E" unicode="&#x21e;" horiz-adv-x="741" 
d="M201 931h60q56 -36 107 -92q62 62 109 92h62v-13q-100 -100 -125 -147h-90q-29 50 -123 147v13zM502 700h201v-40h-77v-620h77v-40h-201v40h82v293h-430v-293h82v-40h-201v40h78v620h-78v40h201v-40h-82v-287h430v287h-82v40z" />
    <glyph glyph-name="uni021F" unicode="&#x21f;" horiz-adv-x="618" 
d="M165 951h60q56 -36 107 -92q62 62 109 92h62v-13q-100 -100 -125 -147h-90q-29 50 -123 147v13zM317 40h78v220q-2 32 -23.5 56t-63.5 26q-30 0 -58 -10.5t-49.5 -28.5t-34 -43t-12.5 -55v-165h74v-40h-193v40h78v670h-74v40h115v-427l-3 -45q21 48 64.5 75.5t100.5 29.5
q55 0 87 -31t34 -81v-231h73v-40h-193v40z" />
    <glyph glyph-name="uni0220" unicode="&#x220;" horiz-adv-x="741" 
d="M392 647q-205 0 -205 -224v-423h-90v715h71l15 -92h5q32 45 93 73.5t122 28.5q247 0 247 -264v-701h-90v701q0 97 -41 141.5t-127 44.5z" />
    <glyph glyph-name="uni0221" unicode="&#x221;" horiz-adv-x="615" 
d="M530 -72q0 -52 12 -74t45 -22q36 0 57 11v-67q-23 -16 -76 -16q-126 0 -126 167v63q0 12 2.5 41t3.5 38h-6q-58 -79 -166 -79q-105 0 -163 73t-58 204t58 205t163 74q108 0 166 -79h6q-1 10 -3.5 39.5t-2.5 39.5v214h88v-832zM289 63q80 0 117 43.5t37 143.5v16
q0 112 -37.5 159.5t-117.5 47.5q-68 0 -105 -54t-37 -154t37 -151t106 -51z" />
    <glyph glyph-name="uni0222" unicode="&#x222;" horiz-adv-x="670" 
d="M335 470q74 0 113 41t39 115v88h90v-88q0 -145 -115 -193q74 -23 112.5 -74t38.5 -127q0 -112 -74.5 -177t-205.5 -65q-81 0 -143.5 29.5t-97 85t-34.5 127.5q0 157 149 202q-113 46 -113 192v88h90v-88q0 -74 39 -115t112 -41zM153 232q0 -82 46 -123t136 -41
t136.5 41.5t46.5 122.5q0 161 -184 161q-181 0 -181 -161z" />
    <glyph glyph-name="uni0223" unicode="&#x223;" horiz-adv-x="604" 
d="M303 485q67 0 96.5 36t29.5 113v126h88v-129q0 -77 -23 -121t-74 -63q65 -25 98 -78t33 -130q0 -117 -67 -183t-183 -66q-111 0 -178.5 67.5t-67.5 181.5q0 162 130 209q-51 19 -73.5 63.5t-22.5 119.5v129h88v-126q0 -77 29.5 -113t96.5 -36zM146 239q0 -86 39.5 -131
t117.5 -45q77 0 117 44.5t40 131.5t-41 130t-117 43q-77 0 -116.5 -43.5t-39.5 -129.5z" />
    <glyph glyph-name="uni0224" unicode="&#x224;" horiz-adv-x="571" 
d="M416 -198q-29 0 -60 12v73q22 -9 50 -9q48 0 48 52v150h79v-145q0 -133 -117 -133zM594 201v-201h-559v40l477 620h-460v75h42v-35h471v-40l-477 -620h466v161h40z" />
    <glyph glyph-name="uni0225" unicode="&#x225;" horiz-adv-x="470" 
d="M431 -65q0 -133 -117 -133q-29 0 -60 12v73q22 -9 50 -9q48 0 48 52v70h-313v58l288 410h-271v68h368v-66l-284 -402h291v-133z" />
    <glyph glyph-name="uni0226" unicode="&#x226;" horiz-adv-x="639" 
d="M268 846q0 29 15 42.5t37 13.5q21 0 36 -13.5t15 -42.5t-15.5 -42.5t-35.5 -13.5q-22 0 -37 13.5t-15 42.5zM35 40h77q74 174 147.5 346t146.5 346q73 -174 146.5 -346t146.5 -346h78v-40h-193v40h73q-28 65 -55 129.5t-55 130.5h-282q-28 -66 -55 -130.5t-55 -129.5h73
v-40h-193v40zM415 611l-9 28q-2 -3 -5 -15q-2 -6 -5 -13q-10 -26 -23.5 -58.5t-28.5 -68t-30.5 -72.5t-30.5 -72h246z" />
    <glyph glyph-name="uni0227" unicode="&#x227;" horiz-adv-x="561" 
d="M229 681q0 29 15 42.5t37 13.5q21 0 36 -13.5t15 -42.5t-15.5 -42.5t-35.5 -13.5q-22 0 -37 13.5t-15 42.5zM35 188q0 40 15.5 75.5t42 62t62.5 42t77 15.5q29 0 55 -8.5t47 -22t35.5 -31t21.5 -34.5q0 22 1.5 44t2.5 44h34v-335h74v-40h-112v40q0 12 0.5 23.5t0.5 22.5
q-7 -17 -21.5 -34t-35 -30t-47 -21t-56.5 -8q-41 0 -77 15.5t-62.5 41.5t-42 61.5t-15.5 76.5zM77 188q0 -32 12 -60t32.5 -49t49 -33t61.5 -12t61 12t49 33t33 49t12 60t-12 60.5t-33 49.5t-49 33t-61 12t-61.5 -12t-49 -33t-32.5 -49.5t-12 -60.5z" />
    <glyph glyph-name="uni0228" unicode="&#x228;" horiz-adv-x="556" 
d="M35 40h72v620h-72v40h487v-154h-40v114h-334v-287h335v-40h-335v-293h348v114h40v-154h-501v40zM374 0h29v-6q0 -14 4 -22.5t10.5 -14.5t14 -10t13.5 -8q22 -15 31 -34.5t9 -37.5q0 -48 -25.5 -74.5t-66.5 -26.5q-29 0 -54.5 16t-36.5 49l14 6l14 6q5 -19 21 -31.5
t39 -12.5q28 0 45 19t17 47q0 25 -12 38.5t-27 23.5t-27 20.5t-12 29.5v23z" />
    <glyph glyph-name="uni0229" unicode="&#x229;" horiz-adv-x="563" 
d="M231 343q-37 0 -67.5 -15.5t-51.5 -41t-29.5 -59t-1.5 -68.5q67 27 134 53.5t135 53.5q-17 34 -49 55.5t-70 21.5zM403 243q-78 -31 -155 -61.5t-155 -61.5q17 -38 54 -62t84 -24q31 0 58 11t47 31q7 -8 13 -15.5t13 -15.5q-26 -24 -59 -38t-72 -14q-41 0 -76.5 15.5
t-62 41.5t-42 61.5t-15.5 76.5q0 40 15.5 76t42 62t62 41.5t76.5 15.5q30 0 57 -10.5t49.5 -29t39.5 -44t26 -56.5zM368 0h29v-6q0 -14 4 -22.5t10.5 -14.5t14 -10t13.5 -8q22 -15 31 -34.5t9 -37.5q0 -48 -25.5 -74.5t-66.5 -26.5q-29 0 -54.5 16t-36.5 49l14 6l14 6
q5 -19 21 -31.5t39 -12.5q28 0 45 19t17 47q0 25 -12 38.5t-27 23.5t-27 20.5t-12 29.5v23z" />
    <glyph glyph-name="uni022A" unicode="&#x22a;" horiz-adv-x="780" 
d="M531 828q0 -23 -12.5 -36t-34.5 -13t-34.5 13t-12.5 36q0 26 14 38t33 12q20 0 33.5 -12t13.5 -38zM343 828q0 -26 -13.5 -37.5t-32.5 -11.5q-22 0 -34.5 13t-12.5 36q0 26 14 38t33 12t32.5 -12t13.5 -38zM242 1014h297v-71h-297v71zM35 349q0 74 28 139.5t76.5 114
t113.5 77t139 28.5t139.5 -28.5t114 -77t77 -114t28.5 -139.5t-28.5 -139t-77 -113.5t-114 -76.5t-139.5 -28t-139 28t-113.5 76.5t-76.5 113.5t-28 139zM77 348q0 -66 24.5 -123.5t67.5 -100t100 -67.5t122 -25t123 25t101.5 68t68.5 100.5t25 123.5t-25 124t-68 101.5
t-101 68.5t-123 25t-122.5 -25.5t-100.5 -69t-67.5 -101.5t-24.5 -124z" />
    <glyph glyph-name="uni022B" unicode="&#x22b;" horiz-adv-x="604" 
d="M443 650q0 -23 -12.5 -36t-34.5 -13t-34.5 13t-12.5 36q0 26 14 38t33 12q20 0 33.5 -12t13.5 -38zM255 650q0 -26 -13.5 -37.5t-32.5 -11.5q-22 0 -34.5 13t-12.5 36q0 26 14 38t33 12t32.5 -12t13.5 -38zM154 836h297v-71h-297v71zM36 188q0 40 15.5 76t42 62.5t62 42
t76.5 15.5t77 -15.5t63 -42t42.5 -62.5t15.5 -76q0 -41 -15.5 -76.5t-42.5 -61.5t-63 -41.5t-77 -15.5t-76.5 15.5t-62 41.5t-42 61.5t-15.5 76.5zM77 188q0 -32 12 -60t33 -49t49 -33t60 -12t60.5 12t49.5 33t33 49t12 60t-12 60t-33 49t-49.5 33.5t-60.5 12.5t-60 -12.5
t-49 -33.5t-33 -49t-12 -60z" />
    <glyph glyph-name="uni022C" unicode="&#x22c;" horiz-adv-x="780" 
d="M461 784q-19 0 -38 7.5t-36.5 16.5t-35 16.5t-32.5 7.5q-19 0 -29 -11t-17 -38h-51q5 55 30.5 84.5t66.5 29.5q21 0 40.5 -7.5t37 -16.5t34 -16.5t31.5 -7.5q21 0 30 13t16 36h50q-5 -55 -30 -84.5t-67 -29.5zM241 1014h297v-71h-297v71zM35 349q0 74 28 139.5t76.5 114
t113.5 77t139 28.5t139.5 -28.5t114 -77t77 -114t28.5 -139.5t-28.5 -139t-77 -113.5t-114 -76.5t-139.5 -28t-139 28t-113.5 76.5t-76.5 113.5t-28 139zM77 348q0 -66 24.5 -123.5t67.5 -100t100 -67.5t122 -25t123 25t101.5 68t68.5 100.5t25 123.5t-25 124t-68 101.5
t-101 68.5t-123 25t-122.5 -25.5t-100.5 -69t-67.5 -101.5t-24.5 -124z" />
    <glyph glyph-name="uni022D" unicode="&#x22d;" horiz-adv-x="604" 
d="M373 606q-19 0 -38 7.5t-36.5 16.5t-35 16.5t-32.5 7.5q-19 0 -29 -11t-17 -38h-51q5 55 30.5 84.5t66.5 29.5q21 0 40.5 -7.5t37 -16.5t34 -16.5t31.5 -7.5q21 0 30 13t16 36h50q-5 -55 -30 -84.5t-67 -29.5zM153 836h297v-71h-297v71zM36 188q0 40 15.5 76t42 62.5
t62 42t76.5 15.5t77 -15.5t63 -42t42.5 -62.5t15.5 -76q0 -41 -15.5 -76.5t-42.5 -61.5t-63 -41.5t-77 -15.5t-76.5 15.5t-62 41.5t-42 61.5t-15.5 76.5zM77 188q0 -32 12 -60t33 -49t49 -33t60 -12t60.5 12t49.5 33t33 49t12 60t-12 60t-33 49t-49.5 33.5t-60.5 12.5
t-60 -12.5t-49 -33.5t-33 -49t-12 -60z" />
    <glyph glyph-name="uni022E" unicode="&#x22e;" horiz-adv-x="780" 
d="M339 846q0 29 15 42.5t37 13.5q21 0 36 -13.5t15 -42.5t-15.5 -42.5t-35.5 -13.5q-22 0 -37 13.5t-15 42.5zM35 349q0 74 28 139.5t76.5 114t113.5 77t139 28.5t139.5 -28.5t114 -77t77 -114t28.5 -139.5t-28.5 -139t-77 -113.5t-114 -76.5t-139.5 -28t-139 28
t-113.5 76.5t-76.5 113.5t-28 139zM77 348q0 -66 24.5 -123.5t67.5 -100t100 -67.5t122 -25t123 25t101.5 68t68.5 100.5t25 123.5t-25 124t-68 101.5t-101 68.5t-123 25t-122.5 -25.5t-100.5 -69t-67.5 -101.5t-24.5 -124z" />
    <glyph glyph-name="uni022F" unicode="&#x22f;" horiz-adv-x="604" 
d="M251 681q0 29 15 42.5t37 13.5q21 0 36 -13.5t15 -42.5t-15.5 -42.5t-35.5 -13.5q-22 0 -37 13.5t-15 42.5zM36 188q0 40 15.5 76t42 62.5t62 42t76.5 15.5t77 -15.5t63 -42t42.5 -62.5t15.5 -76q0 -41 -15.5 -76.5t-42.5 -61.5t-63 -41.5t-77 -15.5t-76.5 15.5t-62 41.5
t-42 61.5t-15.5 76.5zM77 188q0 -32 12 -60t33 -49t49 -33t60 -12t60.5 12t49.5 33t33 49t12 60t-12 60t-33 49t-49.5 33.5t-60.5 12.5t-60 -12.5t-49 -33.5t-33 -49t-12 -60z" />
    <glyph glyph-name="uni0230" unicode="&#x230;" horiz-adv-x="780" 
d="M339 826q0 29 15 42.5t37 13.5q23 0 37 -15t14 -41t-14.5 -41t-36.5 -15t-37 13.5t-15 42.5zM241 1001h297v-71h-297v71zM35 349q0 74 28 139.5t76.5 114t113.5 77t139 28.5t139.5 -28.5t114 -77t77 -114t28.5 -139.5t-28.5 -139t-77 -113.5t-114 -76.5t-139.5 -28
t-139 28t-113.5 76.5t-76.5 113.5t-28 139zM77 348q0 -66 24.5 -123.5t67.5 -100t100 -67.5t122 -25t123 25t101.5 68t68.5 100.5t25 123.5t-25 124t-68 101.5t-101 68.5t-123 25t-122.5 -25.5t-100.5 -69t-67.5 -101.5t-24.5 -124z" />
    <glyph glyph-name="uni0231" unicode="&#x231;" horiz-adv-x="604" 
d="M252 662q0 29 15 42.5t37 13.5q23 0 37 -15t14 -41t-14.5 -41t-36.5 -15t-37 13.5t-15 42.5zM154 837h297v-71h-297v71zM36 188q0 40 15.5 76t42 62.5t62 42t76.5 15.5t77 -15.5t63 -42t42.5 -62.5t15.5 -76q0 -41 -15.5 -76.5t-42.5 -61.5t-63 -41.5t-77 -15.5
t-76.5 15.5t-62 41.5t-42 61.5t-15.5 76.5zM77 188q0 -32 12 -60t33 -49t49 -33t60 -12t60.5 12t49.5 33t33 49t12 60t-12 60t-33 49t-49.5 33.5t-60.5 12.5t-60 -12.5t-49 -33.5t-33 -49t-12 -60z" />
    <glyph glyph-name="uni0232" unicode="&#x232;" horiz-adv-x="565" 
d="M135 842h297v-71h-297v71zM275 40h74v225q-60 99 -118.5 197.5t-117.5 197.5h-78v40h201v-40h-73q100 -165 198 -330l12 -28h1l11 28l197 330h-72v40h201v-40h-78q-59 -100 -117.5 -198t-117.5 -197v-225h78v-40h-201v40z" />
    <glyph glyph-name="uni0233" unicode="&#x233;" horiz-adv-x="509" 
d="M107 677h297v-71h-297v71zM92 -210h85q26 52 52 104.5t52 103.5q-43 85 -85 168.5t-84 168.5h-77v40h185v-40h-63q37 -75 74.5 -148.5t71.5 -148.5q32 72 70 147l76 150h-58v40h175v-40h-73q-69 -137 -136 -272.5t-136 -272.5h64v-40h-193v40z" />
    <glyph glyph-name="uni0234" unicode="&#x234;" horiz-adv-x="380" 
d="M85 760h88v-542q31 12 68 12q61 0 95.5 -33.5t34.5 -86.5q0 -56 -34.5 -88t-98.5 -32q-46 0 -79 17.5t-51 46.5q-15 -30 -34 -84l-67 30q36 98 78 151v609zM237 58q29 0 41.5 15t12.5 37q0 26 -15.5 39t-41.5 13q-30 0 -61 -24q3 -80 64 -80z" />
    <glyph glyph-name="uni0235" unicode="&#x235;" horiz-adv-x="745" 
d="M537 218q31 12 68 12q61 0 95.5 -33.5t34.5 -86.5q0 -56 -34 -88t-99 -32q-88 0 -129 64q-15 -28 -34 -84l-67 30q36 98 78 151v192q0 65 -29 97t-91 32q-83 0 -120 -45.5t-37 -148.5v-278h-88v536h71l13 -73h5q25 40 70 61.5t99 21.5q99 0 146.5 -48t47.5 -149v-131z
M601 58q25 0 39.5 13t14.5 39t-15 39t-42 13q-30 0 -61 -24q3 -80 64 -80z" />
    <glyph glyph-name="uni0236" unicode="&#x236;" horiz-adv-x="388" 
d="M92 468h-76v42l77 35l35 114h52v-123h155v-68h-155v-250q31 12 68 12q61 0 95.5 -33.5t34.5 -86.5q0 -56 -34 -88t-99 -32q-46 0 -78.5 17.5t-51.5 46.5q-15 -28 -34 -84l-67 30q37 99 78 151v317zM244 58q25 0 39.5 13t14.5 39t-15 39t-42 13q-30 0 -61 -24
q3 -80 64 -80z" />
    <glyph glyph-name="uni0237" unicode="&#x237;" horiz-adv-x="257" 
d="M22 -240q-46 0 -77 12v71q34 -10 66 -10q38 0 56 21t18 63v619h88v-616q0 -80 -38.5 -120t-112.5 -40z" />
    <glyph glyph-name="uni0238" unicode="&#x238;" horiz-adv-x="972" 
d="M292 -10q-115 0 -176 71t-61 206q0 131 58 205t163 74q108 0 166 -79h6q-2 13 -4 45t-2 60v188h88v-185q0 -55 -5 -110h5q54 80 166 80q106 0 163.5 -73t57.5 -204q0 -135 -62 -206.5t-177 -71.5q-138 0 -193 125q-56 -125 -193 -125zM679 63q147 0 147 206
q0 102 -35.5 152.5t-109.5 50.5q-81 0 -116 -46t-35 -155q0 -208 149 -208zM295 63q71 0 109.5 55t38.5 153q0 110 -37 156t-118 46q-68 0 -105 -54t-37 -154t38 -151t111 -51z" />
    <glyph glyph-name="uni0239" unicode="&#x239;" horiz-adv-x="972" 
d="M680 546q115 0 176 -71t61 -206q0 -131 -58 -205t-163 -74q-108 0 -166 79h-6l2 -17q4 -37 4 -88v-204h-88v201q0 55 5 110h-5q-52 -80 -166 -80q-105 0 -163 73t-58 204q0 135 62 206.5t177 71.5q137 0 193 -125q28 64 78.5 94.5t114.5 30.5zM293 473q-147 0 -147 -206
q0 -102 35.5 -152.5t109.5 -50.5q81 0 116 46t35 155q0 208 -149 208zM677 473q-70 0 -109 -54.5t-39 -153.5q0 -109 36.5 -155.5t118.5 -46.5q68 0 105 54t37 154t-37.5 151t-111.5 51z" />
    <glyph glyph-name="uni023A" unicode="&#x23a;" horiz-adv-x="639" 
d="M499 760l-74 -212l213 -548h-93l-86 221h-148l-102 -296h-67l103 296h-69l-85 -221h-91l279 717h81l30 -78l42 121h67zM273 301l77 222q-20 55 -32 101q-15 -59 -31 -107l-81 -216h67zM384 430l-45 -129h93z" />
    <glyph glyph-name="uni023B" unicode="&#x23b;" horiz-adv-x="631" 
d="M559 760l-19 -55q30 -8 61 -23l-36 -76q-36 16 -53 21l-190 -548q36 -10 80 -10q76 0 171 28v-78q-45 -17 -87 -23t-97 -6q-46 0 -94 10l-26 -75h-67l33 95q-85 40 -129.5 126.5t-44.5 211.5q0 110 41 193t118.5 128t183.5 45q38 0 74 -5l14 41h67zM403 645
q-115 0 -181 -77t-66 -211q0 -183 108 -252l187 536q-19 4 -48 4z" />
    <glyph glyph-name="uni023C" unicode="&#x23c;" horiz-adv-x="479" 
d="M479 760l-81 -226q28 -8 49 -17l-27 -73q-31 11 -48 15l-136 -382q28 -11 63 -11q71 0 139 31v-78q-56 -29 -138 -29q-45 0 -91 13l-75 -211h-67l85 239q-97 70 -97 234q0 135 65.5 208t185.5 73h15l14 -1l77 215h67zM146 266q0 -97 37 -147l125 350h-4q-81 0 -119.5 -51
t-38.5 -152z" />
    <glyph glyph-name="uni023D" unicode="&#x23d;" horiz-adv-x="523" 
d="M10 403h87v311h90v-311h170v-71h-170v-252h312v-80h-402v332h-87v71z" />
    <glyph glyph-name="uni023E" unicode="&#x23e;" horiz-adv-x="556" 
d="M520 760l-22 -46h47v-79h-83l-139 -299v-336h-90v142l-101 -217h-70l171 368v342h-223v79h418l22 46h70zM323 487l69 148h-69v-148z" />
    <glyph glyph-name="uni023F" unicode="&#x23f;" horiz-adv-x="479" 
d="M235 -9q18 -26 29 -74q17 -84 105 -84q19 0 41 4.5t31 8.5v-72q-34 -14 -81 -14q-80 0 -121.5 36.5t-56.5 120.5q-13 69 -75 86q-34 9 -55 21v80q88 -43 170 -43q66 0 96.5 21.5t30.5 57.5q0 32 -29 54t-103 50q-76 29 -106.5 50t-45 47t-14.5 63q0 66 53.5 104t147.5 38
q91 0 171 -36l-30 -70q-82 34 -147 34q-55 0 -83 -17.5t-28 -47.5q0 -29 24.5 -48.5t113.5 -53.5q67 -25 99 -46.5t47 -48t15 -64.5q0 -72 -51 -113t-148 -44z" />
    <glyph glyph-name="uni0240" unicode="&#x240;" horiz-adv-x="470" 
d="M140 68q55 -10 87 -46t50 -105q11 -44 39 -64t77 -20q34 0 66 11v-72q-29 -12 -72 -12q-82 0 -126.5 35t-68.5 122q-13 47 -39.5 65t-78.5 18h-35v58l288 410h-271v68h368v-66z" />
    <glyph glyph-name="uni0241" unicode="&#x241;" horiz-adv-x="448" 
d="M124 0v322q88 27 140.5 82t52.5 126q0 56 -33.5 85.5t-96.5 29.5q-36 0 -79.5 -13.5t-72.5 -35.5l-33 72q37 26 87 41t102 15q103 0 162 -51t59 -140q0 -82 -50.5 -149.5t-147.5 -112.5v-271h-90z" />
    <glyph glyph-name="uni0242" unicode="&#x242;" horiz-adv-x="436" 
d="M124 0v144q87 27 136.5 82t49.5 126q0 121 -123 121q-34 0 -72 -13t-70 -36l-33 66q77 56 179 56q100 0 154.5 -49.5t54.5 -141.5q0 -81 -49 -148t-139 -109v-98h-88z" />
    <glyph glyph-name="uni0243" unicode="&#x243;" horiz-adv-x="649" 
d="M97 171h-82v78h82v465h204q144 0 207.5 -43t63.5 -134q0 -63 -35 -104.5t-101 -53.5v-5q83 -14 121.5 -57t38.5 -114q0 -96 -65.5 -149.5t-182.5 -53.5h-251v171zM187 335v-86h148v-78h-148v-95h144q86 0 127.5 33.5t41.5 100.5q0 64 -44 94.5t-132 30.5h-137zM187 410
h132q84 0 122 27t38 90q0 59 -41.5 84.5t-132.5 25.5h-118v-227z" />
    <glyph glyph-name="uni0244" unicode="&#x244;" horiz-adv-x="730" 
d="M640 714v-282h81v-78h-81v-102q0 -122 -73.5 -192t-204.5 -70q-129 0 -200.5 70.5t-71.5 193.5v100h-80v78h80v282h90v-282h371v282h89zM367 68q88 0 136 47.5t48 136.5v102h-371v-103q0 -87 46.5 -135t140.5 -48z" />
    <glyph glyph-name="uni0245" unicode="&#x245;" horiz-adv-x="607" 
d="M350 714l257 -714h-95l-158 450q-36 101 -52 166q-10 -48 -50 -165l-157 -451h-95l256 714h94z" />
    <glyph glyph-name="uni0246" unicode="&#x246;" horiz-adv-x="556" 
d="M459 760l-12 -46h49v-79h-69l-57 -223h108v-78h-128l-64 -255h210v-79h-230l-19 -75h-65l19 75h-104v714h285l12 46h65zM187 412h119l56 223h-175v-223zM187 79h34l65 255h-99v-255z" />
    <glyph glyph-name="uni0247" unicode="&#x247;" horiz-adv-x="563" 
d="M77 -208l83 240q-105 70 -105 232q0 129 64 205.5t173 76.5q15 0 44 -4l76 218h67l-82 -237q55 -28 85.5 -84.5t30.5 -134.5v-53h-210l-60 -173q30 -13 74 -13q43 0 81.5 7.5t90.5 29.5v-77q-44 -19 -83.5 -27t-92.5 -8q-52 0 -96 14l-73 -212h-67zM291 474
q-63 0 -99.5 -40.5t-43.5 -112.5h112l52 151zM421 321q-2 90 -50 128l-44 -128h94zM146 251q2 -88 43 -135l47 135h-90z" />
    <glyph glyph-name="uni0248" unicode="&#x248;" horiz-adv-x="272" 
d="M-4 -190q-46 0 -74 13v76q35 -10 72 -10q49 0 73.5 29.5t24.5 85.5v310h-82v78h82v322h90v-322h81v-78h-81v-303q0 -97 -48 -149t-138 -52z" />
    <glyph glyph-name="uni0249" unicode="&#x249;" horiz-adv-x="257" 
d="M22 -240q-46 0 -77 12v71q34 -10 66 -10q38 0 56 21t18 63v331h-75v71h75v217h88v-217h75v-71h-75v-328q0 -80 -38.5 -120t-112.5 -40zM78 681q0 29 15 42.5t37 13.5q21 0 36 -13.5t15 -42.5t-15.5 -42.5t-35.5 -13.5q-22 0 -37 13.5t-15 42.5z" />
    <glyph glyph-name="uni024A" unicode="&#x24a;" horiz-adv-x="767" 
d="M361 646q-97 0 -151.5 -76t-54.5 -213q0 -135 54 -212t153 -77q77 0 125 22.5t70 67t22 122.5v154q0 79 -22.5 123.5t-70.5 66.5t-125 22zM579 20q0 26 4 72h-5q-28 -47 -84 -74.5t-136 -27.5q-91 0 -158.5 44.5t-103 128t-35.5 195.5q0 172 80 269t222 97q70 0 128 -27
t87 -75h5l15 92h71v-793q0 -42 14 -62t49 -20q24 0 45 10v-76q-23 -13 -56 -13q-142 0 -142 157v103z" />
    <glyph glyph-name="uni024B" unicode="&#x24b;" horiz-adv-x="615" 
d="M290 63q79 0 115 43t38 142v18q0 111 -37 159t-118 48q-69 0 -105.5 -54t-36.5 -154q0 -98 36.5 -150t107.5 -52zM442 -11q0 54 5 83h-6q-56 -82 -168 -82q-104 0 -161 73.5t-57 203.5q0 131 58.5 205t162.5 74q110 0 167 -83h4l13 73h70v-608q0 -55 11 -75.5t38 -20.5
q31 0 50 11v-67q-21 -16 -70 -16q-117 0 -117 167v62z" />
    <glyph glyph-name="uni024C" unicode="&#x24c;" horiz-adv-x="622" 
d="M187 295v-295h-90v295h-87v76h87v343h197q133 0 196.5 -50.5t63.5 -152.5q0 -142 -143 -191l196 -320h-105l-173 295h-142zM187 371h107q87 0 127 34t40 102q0 67 -40.5 98t-131.5 31h-102v-265z" />
    <glyph glyph-name="uni024D" unicode="&#x24d;" horiz-adv-x="413" 
d="M299 248h-126v-248h-88v248h-75v71h75v217h72l10 -98h4q31 53 73 80.5t91 27.5q36 0 63 -6l-11 -81q-30 7 -58 7q-57 0 -100.5 -40.5t-53.5 -106.5h124v-71z" />
    <glyph glyph-name="uni024E" unicode="&#x24e;" horiz-adv-x="565" 
d="M165 586h236l68 128h97l-70 -128h60v-78h-102l-126 -231v-277h-90v273l-127 235h-101v78h59l-69 128h98zM283 363l77 145h-154z" />
    <glyph glyph-name="uni024F" unicode="&#x24f;" horiz-adv-x="509" 
d="M100 288h-90v71h62l-71 177h94l67 -177h189l64 177h95l-67 -177h57v-71h-84l-137 -362q-34 -89 -80.5 -127.5t-114.5 -38.5q-37 0 -73 8v70q24 -6 59 -6q42 0 71 23t48 72l28 71zM260 85q12 52 66 203h-137q31 -81 46 -124t21 -79h4z" />
    <glyph glyph-name="uni2000" unicode="&#x2000;" horiz-adv-x="500" 
 />
    <glyph glyph-name="uni2001" unicode="&#x2001;" horiz-adv-x="1000" 
 />
    <glyph glyph-name="uni2002" unicode="&#x2002;" horiz-adv-x="500" 
 />
    <glyph glyph-name="uni2003" unicode="&#x2003;" horiz-adv-x="1000" 
 />
    <glyph glyph-name="uni2004" unicode="&#x2004;" horiz-adv-x="333" 
 />
    <glyph glyph-name="uni2005" unicode="&#x2005;" horiz-adv-x="250" 
 />
    <glyph glyph-name="uni2006" unicode="&#x2006;" horiz-adv-x="166" 
 />
    <glyph glyph-name="uni2007" unicode="&#x2007;" horiz-adv-x="559" 
 />
    <glyph glyph-name="uni2008" unicode="&#x2008;" horiz-adv-x="268" 
 />
    <glyph glyph-name="uni2009" unicode="&#x2009;" horiz-adv-x="200" 
 />
    <glyph glyph-name="uni200A" unicode="&#x200a;" horiz-adv-x="100" 
 />
    <glyph glyph-name="uni200B" unicode="&#x200b;" horiz-adv-x="0" 
 />
    <glyph glyph-name="uni200C" unicode="&#x200c;" horiz-adv-x="0" 
d="M-26 -166v954h52v-954h-52z" />
    <glyph glyph-name="uni200D" unicode="&#x200d;" horiz-adv-x="0" 
d="M36 646l110 -107l-37 -36l-83 82v-750h-52v750l-83 -82l-37 36l110 107l-110 106l37 36l109 -108l109 108l37 -37z" />
    <glyph glyph-name="uni200E" unicode="&#x200e;" horiz-adv-x="0" 
d="M212 583l-108 -107l-27 26l64 61h-121v-696h-40v735h161l-64 61l27 27z" />
    <glyph glyph-name="uni200F" unicode="&#x200f;" horiz-adv-x="0" 
d="M20 -133h-41v696h-121l65 -61l-27 -26l-109 107l109 107l27 -27l-65 -61h162v-735z" />
    <glyph glyph-name="figuredash" unicode="&#x2012;" horiz-adv-x="571" 
d="M40 321v73h492v-73h-492z" />
    </font>
</defs>
</svg>
