<?xml version="1.0" standalone="no"?>
<!DOCTYPE svg PUBLIC "-//W3C//DTD SVG 1.1//EN" "http://www.w3.org/Graphics/SVG/1.1/DTD/svg11.dtd" >
<svg xmlns="http://www.w3.org/2000/svg" xmlns:xlink="http://www.w3.org/1999/xlink" version="1.1">
<metadata>
Created by FontForge 20190801 at Mon Feb  8 12:15:53 2021
 By root
Copyright 2016 The Jura Font Project Authors (daniel@danieljohnson.name)
</metadata>
<defs>
<font id="Jura-Bold" horiz-adv-x="314" >
  <font-face 
    font-family="Jura"
    font-weight="700"
    font-stretch="normal"
    units-per-em="1000"
    panose-1="0 0 8 0 0 0 0 0 0 0"
    ascent="800"
    descent="-200"
    x-height="507"
    cap-height="677"
    bbox="-213 -240 1630 1088"
    underline-thickness="50"
    underline-position="-100"
    unicode-range="U+0001-206F"
  />
<missing-glyph horiz-adv-x="364" 
d="M33 0v666h265v-666h-265zM66 33h199v600h-199v-600z" />
    <glyph glyph-name=".notdef" horiz-adv-x="364" 
d="M33 0v666h265v-666h-265zM66 33h199v600h-199v-600z" />
    <glyph glyph-name=".null" horiz-adv-x="0" 
 />
    <glyph glyph-name="nonmarkingreturn" unicode="&#xd;" 
 />
    <glyph glyph-name="NULL" 
 />
    <glyph glyph-name="NULL" 
 />
    <glyph glyph-name="uni0001" 
 />
    <glyph glyph-name="uni0002" 
 />
    <glyph glyph-name="uni0003" 
 />
    <glyph glyph-name="uni0004" 
 />
    <glyph glyph-name="uni0005" 
 />
    <glyph glyph-name="uni0006" 
 />
    <glyph glyph-name="uni0007" 
 />
    <glyph glyph-name="uni0008" 
 />
    <glyph glyph-name="uni0009" unicode="&#x9;" 
 />
    <glyph glyph-name="uni000A" unicode="&#xa;" 
 />
    <glyph glyph-name="uni000B" 
 />
    <glyph glyph-name="uni000C" 
 />
    <glyph glyph-name="uni000E" 
 />
    <glyph glyph-name="uni000F" 
 />
    <glyph glyph-name="uni0010" 
 />
    <glyph glyph-name="uni0011" 
 />
    <glyph glyph-name="uni0012" 
 />
    <glyph glyph-name="uni0013" 
 />
    <glyph glyph-name="uni0014" 
 />
    <glyph glyph-name="uni0015" 
 />
    <glyph glyph-name="uni0016" 
 />
    <glyph glyph-name="uni0017" 
 />
    <glyph glyph-name="uni0018" 
 />
    <glyph glyph-name="uni0019" 
 />
    <glyph glyph-name="uni001A" 
 />
    <glyph glyph-name="uni001B" 
 />
    <glyph glyph-name="uni001C" 
 />
    <glyph glyph-name="uni001D" 
 />
    <glyph glyph-name="uni001E" 
 />
    <glyph glyph-name="uni001F" 
 />
    <glyph glyph-name="space" unicode=" " 
 />
    <glyph glyph-name="exclam" unicode="!" horiz-adv-x="270" 
d="M94 168v495q0 42 42 42t42 -42v-495q0 -42 -42 -42t-42 42zM94.5 10.5q-10.5 10.5 -10.5 29.5v25q0 19 10.5 29t29.5 10h24q38 0 38 -39v-25q0 -19 -9.5 -29.5t-28.5 -10.5h-24q-19 0 -29.5 10.5z" />
    <glyph glyph-name="quotedbl" unicode="&#x22;" horiz-adv-x="398" 
d="M94.5 459.5q-10.5 10.5 -10.5 24.5v204q0 14 10.5 24.5t24.5 10.5t24.5 -10.5t10.5 -24.5v-204q0 -14 -10.5 -24.5t-24.5 -10.5t-24.5 10.5zM254.5 459.5q-10.5 10.5 -10.5 24.5v204q0 14 10.5 24.5t24.5 10.5t24.5 -10.5t10.5 -24.5v-204q0 -14 -10.5 -24.5t-24.5 -10.5
t-24.5 10.5z" />
    <glyph glyph-name="numbersign" unicode="#" horiz-adv-x="621" 
d="M105.5 -2.5q-10.5 10.5 -10.5 24.5q0 7 1 10l47 166h-64q-14 0 -24.5 10.5t-10.5 24.5t10.5 24.5t24.5 10.5h83l37 130h-64q-14 0 -24.5 10.5t-10.5 24.5t10.5 24.5t24.5 10.5h83l48 174q2 11 12 18.5t22 7.5q14 0 24.5 -10.5t10.5 -24.5q0 -7 -1 -10l-44 -155h108
l48 174q2 11 12 18.5t22 7.5q14 0 24.5 -10.5t10.5 -24.5q0 -7 -1 -10l-44 -155h92q14 0 24.5 -10.5t10.5 -24.5t-10.5 -24.5t-24.5 -10.5h-111l-35 -130h90q14 0 24.5 -10.5t10.5 -24.5t-10.5 -24.5t-24.5 -10.5h-111l-51 -185q-2 -11 -12 -18.5t-22 -7.5q-14 0 -24.5 10.5
t-10.5 24.5q0 7 1 10l47 166h-108l-51 -185q-2 -11 -12 -18.5t-22 -7.5q-14 0 -24.5 10.5zM236 268h106l37 130h-108z" />
    <glyph glyph-name="dollar" unicode="$" horiz-adv-x="672" 
d="M546 328q46 -46 46 -141q0 -94 -46 -140.5t-141 -46.5h-34v-55q0 -35 -35 -35q-17 0 -26 9t-9 26v55h-34q-96 0 -141.5 46t-45.5 141q0 17 13 29.5t29 12.5q17 0 29.5 -12.5t12.5 -29.5q0 -41 9.5 -63t31 -31t62.5 -9h34v206h-19q-91 0 -135 42t-44 132q0 91 44 134.5
t134 43.5h26v68q0 17 9 26t26 9t26 -9t9 -26v-68h25q90 0 134 -43.5t44 -133.5q0 -16 -12.5 -29t-29.5 -13q-16 0 -29 13t-13 29q0 37 -8 57t-28 28t-58 8h-25v-184h28q95 0 141 -46zM195 408q8 -19 28 -26.5t59 -7.5h25v184h-26q-38 0 -58 -8t-28 -28t-8 -58q0 -37 8 -56z
M467.5 93q21.5 9 31 31t9.5 63t-9.5 63t-31 31t-62.5 9h-34v-206h34q41 0 62.5 9z" />
    <glyph glyph-name="percent" unicode="%" horiz-adv-x="878" 
d="M64 460v75q0 143 143 143h16q143 0 143 -143v-74q0 -145 -143 -145h-16q-143 0 -143 144zM177.5 -7.5q-12.5 12.5 -12.5 29.5q0 15 8 26l461 610q14 17 34 17q17 0 29.5 -12.5t12.5 -29.5q0 -15 -8 -26l-461 -610q-14 -17 -34 -17q-17 0 -29.5 12.5zM223 395q39 0 52 13
t13 53v74q0 39 -13 51.5t-52 12.5h-16q-39 0 -52 -12.5t-13 -51.5v-75q0 -40 13 -52.5t52 -12.5h16zM512 143v75q0 73 35.5 108t107.5 35h16q143 0 143 -143v-74q0 -73 -35.5 -108.5t-107.5 -35.5h-16q-143 0 -143 143zM671 78q39 0 52 13t13 53v74q0 39 -13 52t-52 13h-16
q-39 0 -52 -12.5t-13 -52.5v-75q0 -39 13 -52t52 -13h16z" />
    <glyph glyph-name="ampersand" unicode="&#x26;" horiz-adv-x="650" 
d="M631 52q0 -13 -14 -29q-13 -16 -30 -16q-15 0 -29 13l-50 45q-52 -86 -193 -86h-32q-115 0 -169 54t-54 169q0 75 22.5 123t68.5 73q-12 20 -16.5 41.5t-4.5 48.5q0 84 40.5 125t124.5 41h25q72 0 112 -29.5t51 -91.5q2 -21 -9 -32.5t-32 -11.5q-19 0 -29 10t-16 31
q-6 23 -23 31.5t-54 8.5h-25q-48 0 -64.5 -16.5t-16.5 -65.5q0 -31 11.5 -50.5t51.5 -55.5l177 -157v12q0 20 11 31t31 11t31 -11t11 -31v-35q0 -26 -3 -49l79 -70q17 -15 17 -31zM400 76.5q30 13.5 43 45.5l-222 198q-3 3 -7 6.5t-8 7.5q-5 -4 -17 -10q-25 -14 -35 -42.5
t-10 -79.5q0 -55 12.5 -84.5t42 -42t84.5 -12.5h32q55 0 85 13.5z" />
    <glyph glyph-name="quotesingle" unicode="'" horiz-adv-x="238" 
d="M94.5 459.5q-10.5 10.5 -10.5 24.5v204q0 14 10.5 24.5t24.5 10.5t24.5 -10.5t10.5 -24.5v-204q0 -14 -10.5 -24.5t-24.5 -10.5t-24.5 10.5z" />
    <glyph glyph-name="parenleft" unicode="(" horiz-adv-x="298" 
d="M109.5 -119.5q-45.5 55.5 -45.5 173.5v385q0 123 45.5 181t143.5 58q14 0 24.5 -10.5t10.5 -24.5t-10.5 -24.5t-24.5 -10.5q-45 0 -71 -15.5t-37 -52t-11 -101.5v-385q0 -61 11 -95.5t37 -49t71 -14.5q14 0 24.5 -10.5t10.5 -24.5t-10.5 -24.5t-24.5 -10.5
q-98 0 -143.5 55.5z" />
    <glyph glyph-name="parenright" unicode=")" horiz-adv-x="298" 
d="M20.5 -164.5q-10.5 10.5 -10.5 24.5t10.5 24.5t24.5 10.5q45 0 71 14.5t37 49t11 95.5v385q0 65 -11 101.5t-37 52t-71 15.5q-14 0 -24.5 10.5t-10.5 24.5t10.5 24.5t24.5 10.5q98 0 143.5 -58t45.5 -181v-385q0 -118 -45.5 -173.5t-143.5 -55.5q-14 0 -24.5 10.5z" />
    <glyph glyph-name="asterisk" unicode="*" horiz-adv-x="402" 
d="M330 443q0 -11 -7 -21q-11 -19 -27 -19q-10 0 -20 6l-41 24v-47q0 -35 -35 -35q-17 0 -26 9t-9 26v46l-39 -23q-10 -6 -20 -6q-16 0 -29 19q-6 11 -6 19q0 17 20 28l41 24l-41 23q-20 12 -20 29q0 9 6 19q12 18 28 18q11 0 21 -6l39 -23v47q0 17 9.5 26t25.5 9
q35 0 35 -35v-48l41 24q12 6 21 6q16 0 26 -18q7 -10 7 -21q0 -17 -19 -27l-41 -23l41 -24q19 -10 19 -26z" />
    <glyph glyph-name="plus" unicode="+" horiz-adv-x="609" 
d="M516 353q9 -9 9 -26t-9 -26t-26 -9h-141v-145q0 -17 -9 -26t-26 -9t-26 9t-9 26v145h-160q-16 0 -25.5 9.5t-9.5 25.5q0 17 9.5 26t25.5 9h160v156q0 17 9.5 26t25.5 9q17 0 26 -9t9 -26v-156h141q17 0 26 -9z" />
    <glyph glyph-name="comma" unicode="," horiz-adv-x="258" 
d="M174 40q0 -11 -3 -19l-59 -126q-12 -22 -33 -22q-16 0 -27 8.5t-8 26.5l28 160q1 18 11.5 27t28.5 9h24q38 0 38 -39v-25z" />
    <glyph glyph-name="hyphen" unicode="-" horiz-adv-x="514" 
d="M94.5 245.5q-10.5 10.5 -10.5 24.5t10.5 24.5t24.5 10.5h276q14 0 24.5 -10.5t10.5 -24.5t-10.5 -24.5t-24.5 -10.5h-276q-14 0 -24.5 10.5z" />
    <glyph glyph-name="period" unicode="." horiz-adv-x="270" 
d="M94.5 10.5q-10.5 10.5 -10.5 29.5v25q0 19 10.5 29t29.5 10h24q38 0 38 -39v-25q0 -19 -9.5 -29.5t-28.5 -10.5h-24q-19 0 -29.5 10.5z" />
    <glyph glyph-name="slash" unicode="/" horiz-adv-x="322" 
d="M47.5 -142.5q-11.5 10.5 -11.5 28.5q0 5 2 15l205 796q5 17 15 25t26 8q20 0 31.5 -10.5t11.5 -27.5q0 -7 -3 -16l-204 -796q-9 -33 -41 -33q-20 0 -31.5 10.5z" />
    <glyph glyph-name="zero" unicode="0" horiz-adv-x="684" 
d="M142.5 55.5q-54.5 54.5 -54.5 169.5v231q0 116 54.5 170t169.5 53h60q115 0 169.5 -54.5t54.5 -169.5v-230q0 -115 -54.5 -169.5t-169.5 -54.5h-60q-115 0 -169.5 54.5zM372 85q54 0 84 13t43 43t13 84v230q0 55 -13 84.5t-42.5 42.5t-84.5 13h-60q-54 1 -84 -11.5
t-43 -42.5t-13 -85v-231q0 -54 13 -84t43 -43t84 -13h60zM294.5 301.5q-10.5 10.5 -10.5 29.5v25q0 19 10.5 29t29.5 10h24q38 0 38 -39v-25q0 -19 -9.5 -29.5t-28.5 -10.5h-24q-19 0 -29.5 10.5z" />
    <glyph glyph-name="one" unicode="1" horiz-adv-x="389" 
d="M279.5 667q9.5 -11 9.5 -31v-594q0 -20 -11 -31t-31 -11q-42 0 -42 42v510l-87 -81q-14 -14 -30 -14q-13 0 -24 11q-12 12 -12 26q0 16 15 31l134 132q11 11 23 16t29 5t26.5 -11z" />
    <glyph glyph-name="two" unicode="2" horiz-adv-x="575" 
d="M97 0q-21 0 -32 10.5t-11 31.5q0 82 33 137.5t73 84.5t110 69q73 41 102.5 60.5t47 43t17.5 56.5q0 40 -9 61.5t-30.5 30.5t-61.5 9h-107q-48 0 -70 -13t-28 -46q-4 -21 -14 -31t-30 -10q-21 0 -32 11.5t-9 32.5q11 71 56 105.5t127 34.5h107q94 0 139.5 -45.5
t45.5 -139.5q0 -56 -27.5 -96.5t-66.5 -66.5t-116 -70q-58 -33 -86.5 -52.5t-52.5 -50t-31 -73.5h330q20 0 31 -11t11 -31t-11 -31t-31 -11h-374z" />
    <glyph glyph-name="three" unicode="3" horiz-adv-x="654" 
d="M121.5 37q-47.5 37 -57.5 113q-2 21 9 32.5t32 11.5q38 0 43 -42q7 -39 31 -53.5t78 -14.5h114q44 0 67.5 10t33.5 33.5t10 66.5t-10 66.5t-33.5 33.5t-67.5 10h-77q-42 0 -42 42q0 20 11 31t31 11h115q30 0 43.5 27t13.5 78q0 40 -9 61.5t-30.5 30.5t-61.5 9h-97
q-48 0 -70 -13t-28 -46q-6 -41 -44 -41q-21 0 -32 11.5t-8 32.5q19 140 182 140h97q94 0 139.5 -45.5t45.5 -139.5q0 -92 -52 -131q68 -44 68 -168q0 -99 -47.5 -146.5t-147.5 -47.5h-114q-88 0 -135.5 37z" />
    <glyph glyph-name="four" unicode="4" horiz-adv-x="623" 
d="M568 214.5q11 -11.5 11 -30.5q0 -20 -11 -31t-31 -11h-58v-100q0 -42 -42 -42q-20 0 -31 11t-11 31v100h-309q-20 0 -31 11t-11 31t17 44l314 424q12 16 25 21t34 5q46 0 46 -42l-1 -410h58q20 0 31 -11.5zM149 224l246 1l1 334z" />
    <glyph glyph-name="five" unicode="5" horiz-adv-x="668" 
d="M145.5 37q-47.5 37 -57.5 113q-2 21 9 32.5t32 11.5q38 0 43 -41q7 -39 31 -54t78 -15h104q44 0 67.5 10t33.5 34t10 67v69q0 44 -10 67.5t-34 33.5t-67 10h-74q-74 0 -107 -18q-10 -7 -20.5 -11.5t-19.5 -4.5q-7 0 -16 3l-10 3q-35 10 -35 47v242q0 20 11 31t31 11h393
q20 0 31 -11t11 -31t-11 -31t-31 -11h-351v-153q51 18 124 18h74q99 0 147 -48t48 -147v-69q0 -99 -48 -147t-147 -48h-104q-88 0 -135.5 37z" />
    <glyph glyph-name="six" unicode="6" horiz-adv-x="670" 
d="M135.5 47.5q-47.5 47.5 -47.5 146.5v299q0 94 45.5 139.5t139.5 45.5h124q163 0 182 -140q3 -21 -8 -32.5t-32 -11.5q-38 0 -44 41q-6 33 -28 46t-70 13h-124q-40 0 -61.5 -9t-30.5 -30.5t-9 -61.5v-83q39 47 111 47h104q99 0 147 -48t48 -147v-67q0 -100 -48 -147.5
t-147 -47.5h-104q-100 0 -147.5 47.5zM387 84q44 0 67.5 10t33.5 34t10 67v67q0 44 -10 67.5t-34 33.5t-67 10h-104q-44 0 -67.5 -10t-33.5 -33.5t-10 -66.5v-69q0 -43 10 -66.5t33.5 -33.5t67.5 -10h104z" />
    <glyph glyph-name="seven" unicode="7" horiz-adv-x="531" 
d="M165 11q-11 11 -10 33q2 103 17 166t46 105t88 82q46 36 69 82.5t27 114.5h-316q-20 0 -31 11t-11 31t11 31t31 11h359q20 0 31 -11t11 -31q0 -107 -31.5 -181t-100.5 -126q-46 -32 -69.5 -65t-34 -83.5t-12.5 -136.5q-2 -44 -43 -44q-20 0 -31 11z" />
    <glyph glyph-name="eight" unicode="8" horiz-adv-x="680" 
d="M592 194q0 -99 -47.5 -146.5t-147.5 -47.5h-114q-100 0 -147.5 47.5t-47.5 146.5q0 114 87 160q-66 50 -66 142t45.5 137t139.5 45h97q94 0 139.5 -45t45.5 -137q0 -97 -68 -144q84 -47 84 -158zM232.5 585q-21.5 -9 -30.5 -30t-9 -59q0 -62 19 -85t66 -23l114 -1
q42 0 63.5 12t29 35.5t7.5 61.5t-9 59t-30.5 30t-61.5 9h-97q-40 0 -61.5 -9zM464.5 94q23.5 10 33.5 33.5t10 66.5t-10 66.5t-33.5 33.5t-67.5 10h-114q-44 0 -67.5 -10t-33.5 -33.5t-10 -66.5t10 -66.5t33.5 -33.5t67.5 -10h114q44 0 67.5 10z" />
    <glyph glyph-name="nine" unicode="9" horiz-adv-x="670" 
d="M534.5 630.5q47.5 -47.5 47.5 -146.5v-299q0 -94 -45.5 -139.5t-139.5 -45.5h-124q-163 0 -182 140q-3 21 8 32.5t32 11.5q38 0 44 -41q6 -33 28 -46t70 -13h124q40 0 61.5 9t30.5 30.5t9 61.5v83q-39 -47 -111 -47h-104q-99 0 -147 48t-48 147v67q0 100 48 147.5
t147 47.5h104q100 0 147.5 -47.5zM283 594q-44 0 -67.5 -10t-33.5 -34t-10 -67v-67q0 -44 10 -67.5t34 -33.5t67 -10h104q44 0 67.5 10t33.5 33.5t10 66.5v69q0 43 -10 66.5t-33.5 33.5t-67.5 10h-104z" />
    <glyph glyph-name="colon" unicode=":" horiz-adv-x="270" 
d="M94.5 10.5q-10.5 10.5 -10.5 29.5v25q0 19 10.5 29t29.5 10h24q38 0 38 -39v-25q0 -19 -9.5 -29.5t-28.5 -10.5h-24q-19 0 -29.5 10.5zM94.5 340.5q-10.5 10.5 -10.5 29.5v25q0 19 10.5 29t29.5 10h24q38 0 38 -39v-25q0 -19 -9.5 -29.5t-28.5 -10.5h-24
q-19 0 -29.5 10.5z" />
    <glyph glyph-name="semicolon" unicode=";" horiz-adv-x="258" 
d="M174 40q0 -11 -3 -19l-59 -126q-12 -22 -33 -22q-16 0 -27 8.5t-8 26.5l28 160q1 18 11.5 27t28.5 9h24q38 0 38 -39v-25zM82.5 340.5q-10.5 10.5 -10.5 29.5v25q0 19 10.5 29t29.5 10h24q38 0 38 -39v-25q0 -19 -9.5 -29.5t-28.5 -10.5h-24q-19 0 -29.5 10.5z" />
    <glyph glyph-name="less" unicode="&#x3c;" horiz-adv-x="609" 
d="M487 163q0 -9 -6 -20q-12 -20 -29 -20q-9 0 -21 6l-282 158q-25 15 -25 43q0 23 25 38l282 157q11 6 20 6q18 0 30 -20q6 -10 6 -20q0 -18 -21 -30l-241 -133l242 -136q20 -12 20 -29z" />
    <glyph glyph-name="equal" unicode="=" horiz-adv-x="609" 
d="M93.5 363.5q-9.5 9.5 -9.5 25.5q0 17 9.5 26t25.5 9h371q17 0 26 -9t9 -26t-9 -26t-26 -9h-371q-16 0 -25.5 9.5zM93.5 235.5q-9.5 9.5 -9.5 25.5q0 17 9.5 26t25.5 9h371q17 0 26 -9t9 -26t-9 -26t-26 -9h-371q-16 0 -25.5 9.5z" />
    <glyph glyph-name="greater" unicode="&#x3e;" horiz-adv-x="609" 
d="M484 330q0 -28 -25 -43l-282 -158q-12 -6 -21 -6q-17 0 -29 20q-6 11 -6 20q0 17 20 29l242 136l-241 133q-21 12 -21 30q0 10 6 20q12 20 30 20q9 0 20 -6l282 -157q25 -15 25 -38z" />
    <glyph glyph-name="question" unicode="?" horiz-adv-x="511" 
d="M196 208q0 49 17 81.5t38.5 49.5t53.5 35q28 16 40.5 26t20 26t7.5 43q0 40 -9 61.5t-30.5 30.5t-61.5 9h-67q-40 0 -61.5 -9t-30.5 -30.5t-9 -61.5q0 -42 -42 -42t-42 42q0 185 185 185h67q94 0 139.5 -45.5t45.5 -139.5q0 -49 -17 -81.5t-38.5 -49.5t-53.5 -35
q-28 -16 -40.5 -26t-20 -26t-7.5 -43q0 -42 -42 -42t-42 42zM196.5 10.5q-10.5 10.5 -10.5 29.5v25q0 19 10.5 29t29.5 10h24q38 0 38 -39v-25q0 -19 -9.5 -29.5t-28.5 -10.5h-24q-19 0 -29.5 10.5z" />
    <glyph glyph-name="at" unicode="@" horiz-adv-x="741" 
d="M240 -14q-83 -1 -121.5 38.5t-38.5 125.5v253q0 86 38.5 125.5t121.5 38.5h260q85 0 123 -39.5t38 -125.5v-185q0 -50 -26 -73.5t-80 -23.5q-32 0 -52.5 10.5t-32.5 38.5q-20 -29 -49.5 -40t-69.5 -11h-7q-70 0 -103.5 33.5t-33.5 102.5v23q0 72 33.5 105.5t102.5 33.5
h41q25 0 42 -6.5t31 -25.5q5 19 12 25.5t16 6.5q14 0 24.5 -10.5t10.5 -24.5v-164q0 -14 2 -19t8.5 -6.5t24.5 -1.5t25 2t9 7t2 18v185q0 40 -7.5 59.5t-26.5 27.5t-57 8h-260q-37 1 -56 -7t-26.5 -27.5t-7.5 -59.5v-253q0 -40 7.5 -59.5t26.5 -27.5t56 -7h275q27 0 44.5 6
t36.5 21q8 8 22 8t24.5 -10.5t10.5 -24.5q0 -16 -12 -27q-27 -22 -57.5 -32.5t-68.5 -10.5h-275zM351 188q52 0 75.5 16t23.5 50v22q0 31 -5 45t-18.5 19.5t-42.5 5.5h-41q-28 0 -41.5 -5.5t-19 -19.5t-5.5 -44v-23q0 -40 13 -53t54 -13h7z" />
    <glyph glyph-name="A" unicode="A" horiz-adv-x="666" 
d="M625 39q0 -24 -27 -35q-9 -4 -20 -4q-24 0 -35 27l-54 131h-311l-52 -131q-11 -27 -35 -27q-10 0 -19 4q-28 10 -28 35q0 11 4 20l238 586q15 33 47 33h2q33 -2 44 -33l242 -586q4 -9 4 -20zM211 242h244l-125 303z" />
    <glyph glyph-name="B" unicode="B" horiz-adv-x="673" 
d="M609 222v-34q0 -92 -48.5 -140t-140.5 -48h-274q-20 0 -31 11t-11 31v594q0 20 11 31t31 11h261q79 0 122 -42t43 -120v-27q0 -32 -11 -59t-31 -45q79 -46 79 -163zM188 409h232h18q26 3 38 24.5t12 55.5v27q0 43 -18 60.5t-63 17.5h-219v-185zM525 222q0 56 -24 79.5
t-81 23.5h-232v-241h232q56 0 80.5 24t24.5 80v34z" />
    <glyph glyph-name="C" unicode="C" horiz-adv-x="696" 
d="M134.5 54.5q-54.5 54.5 -54.5 169.5v230q0 115 54.5 170t168.5 54h121q94 0 143.5 -39t57.5 -122q3 -21 -8 -32t-32 -11q-20 0 -30.5 10.5t-13.5 31.5q-5 45 -31 61.5t-86 16.5h-121q-54 1 -84 -12t-42.5 -43t-12.5 -85v-230q0 -55 13 -84.5t42.5 -42.5t84.5 -13h120
q60 0 86 16.5t31 61.5q3 21 13.5 31.5t30.5 10.5q21 0 32 -11t8 -32q-8 -83 -57.5 -122t-143.5 -39h-120q-115 0 -169.5 54.5z" />
    <glyph glyph-name="D" unicode="D" horiz-adv-x="721" 
d="M115 11q-11 11 -11 31v594q0 20 11 31t31 11h241q131 0 192.5 -61.5t61.5 -192.5v-170q0 -131 -61.5 -192.5t-192.5 -61.5h-241q-20 0 -31 11zM387 84q65 0 101.5 16t52.5 52.5t16 101.5v170q0 65 -16 101.5t-52.5 52.5t-101.5 16h-199v-510h199z" />
    <glyph glyph-name="E" unicode="E" horiz-adv-x="603" 
d="M536 73q11 -11 11 -31t-11 -31t-31 -11h-359q-20 0 -31 11t-11 31v594q0 20 11 31t31 11h359q20 0 31 -11t11 -31t-11 -31t-31 -11h-317v-210h199q20 0 31 -11t11 -31t-11 -31t-31 -11h-199v-216h317q20 0 31 -11z" />
    <glyph glyph-name="F" unicode="F" horiz-adv-x="556" 
d="M115 11q-11 11 -11 31v594q0 20 11 31t31 11h368q20 0 31 -11t11 -31t-11 -31t-31 -11h-326v-210h201q20 0 31 -11t11 -31t-11 -31t-31 -11h-201v-258q0 -20 -11 -31t-31 -11t-31 11z" />
    <glyph glyph-name="G" unicode="G" horiz-adv-x="698" 
d="M134.5 54.5q-54.5 54.5 -54.5 169.5v230q0 115 54.5 170t168.5 54h121q94 0 143.5 -39t57.5 -122q3 -21 -8 -32t-32 -11q-20 0 -30.5 10.5t-13.5 31.5q-5 45 -31 61.5t-86 16.5h-121q-54 1 -84 -12t-42.5 -43t-12.5 -85v-230q0 -55 13 -84.5t42.5 -42.5t84.5 -13h120
q48 0 73.5 10.5t36 36t10.5 73.5v47l-78 1q-42 0 -42 42q0 20 11 31t31 11l120 -1q20 0 31 -11t11 -31v-89q0 -106 -49.5 -155t-154.5 -49h-120q-115 0 -169.5 54.5z" />
    <glyph glyph-name="H" unicode="H" horiz-adv-x="784" 
d="M117 13q-13 13 -13 29v594q0 17 13 29.5t29 12.5q17 0 29.5 -12.5t12.5 -29.5v-251h408v251q0 17 12.5 29.5t29.5 12.5t29.5 -12.5t12.5 -29.5v-594q0 -16 -12.5 -29t-29.5 -13t-29.5 12.5t-12.5 29.5v259h-408v-259q0 -16 -12.5 -29t-29.5 -13q-16 0 -29 13z" />
    <glyph glyph-name="I" unicode="I" horiz-adv-x="292" 
d="M114 10q-10 10 -10 32v593q0 22 10 32t32 10t32 -10t10 -32v-593q0 -22 -10 -32t-32 -10t-32 10z" />
    <glyph glyph-name="J" unicode="J" horiz-adv-x="617" 
d="M92.5 39q-49.5 39 -58.5 121q-2 21 9 32.5t32 11.5q39 0 43 -42q6 -45 32 -61.5t86 -16.5h83q48 0 73.5 10.5t36 36t10.5 73.5v432q0 42 42 42q20 0 31 -11t11 -31v-432q0 -106 -49.5 -155t-154.5 -49h-83q-94 0 -143.5 39z" />
    <glyph glyph-name="K" unicode="K" horiz-adv-x="587" 
d="M552 45q0 -18 -17 -31q-12 -11 -28 -11q-18 0 -31 17l-245 303l-43 -45v-236q0 -20 -11 -31t-31 -11t-31 11t-11 31v594q0 20 11 31t31 11t31 -11t11 -31v-238l255 264q15 15 30 15t29 -14q15 -15 15 -30t-14 -29l-212 -220l250 -311q11 -14 11 -28z" />
    <glyph glyph-name="L" unicode="L" horiz-adv-x="541" 
d="M104 42v594q0 42 42 42t42 -42v-552h277q42 0 42 -42t-42 -42h-319q-42 0 -42 42z" />
    <glyph glyph-name="M" unicode="M" horiz-adv-x="837" 
d="M733 636v-594q0 -20 -11 -31t-31 -11t-31 11t-11 31v463l-184 -271q-10 -14 -22 -20.5t-29 -6.5q-12 0 -21.5 6.5t-19.5 20.5l-185 272v-464q0 -20 -11 -31t-31 -11t-31 11t-11 31v594q0 20 11 31t31 11q28 0 46 -27l228 -343l228 343q17 27 51 27t34 -42z" />
    <glyph glyph-name="N" unicode="N" horiz-adv-x="757" 
d="M642 667q11 -11 11 -31v-594q0 -20 -11 -31t-31 -11q-12 0 -22 6t-20 19l-381 491v-474q0 -20 -11 -31t-31 -11t-31 11t-11 31v594q0 20 11 31t31 11q12 0 21.5 -6t20.5 -19l381 -491v474q0 20 11 31t31 11t31 -11z" />
    <glyph glyph-name="O" unicode="O" horiz-adv-x="728" 
d="M134.5 54.5q-54.5 54.5 -54.5 169.5v231q0 115 55 169.5t169 53.5h120q115 0 169.5 -54.5t54.5 -169.5v-230q0 -115 -54.5 -169.5t-169.5 -54.5h-120q-115 0 -169.5 54.5zM424 84q55 0 84.5 13t42.5 42.5t13 84.5v230q0 54 -13 84t-43 43t-84 13h-120q-54 1 -84 -12
t-43 -43t-13 -84v-231q0 -55 13 -84.5t42.5 -42.5t84.5 -13h120z" />
    <glyph glyph-name="P" unicode="P" horiz-adv-x="613" 
d="M520.5 629.5q48.5 -48.5 48.5 -140.5v-30q0 -91 -48.5 -140t-140.5 -49h-192v-228q0 -20 -11 -31t-31 -11t-31 11t-11 31v594q0 20 11 31t31 11h234q92 0 140.5 -48.5zM485 489q0 56 -24 80.5t-81 24.5h-192v-240h192q57 0 81 24t24 81v30z" />
    <glyph glyph-name="Q" unicode="Q" horiz-adv-x="733" 
d="M653 -45q0 -14 -13 -26q-13 -11 -24 -11q-12 0 -26 12l-76 81q-36 -11 -90 -11h-120q-115 0 -169.5 54.5t-54.5 169.5v231q0 115 55 169.5t169 53.5h120q115 0 169.5 -54.5t54.5 -169.5v-230q0 -126 -67 -181l62 -65q10 -10 10 -23zM444 84l-26 28q-11 11 -11 24t12 25
t25 12q11 0 26 -13l53 -55q22 15 31.5 43.5t9.5 75.5v230q0 54 -13 84t-43 43t-84 13h-120q-54 1 -84 -12t-43 -43t-13 -84v-231q0 -55 13 -84.5t42.5 -42.5t84.5 -13h120h20z" />
    <glyph glyph-name="R" unicode="R" horiz-adv-x="625" 
d="M532 332q-37 -48 -107 -59l131 -218q6 -10 6 -22q0 -22 -22 -35q-13 -8 -23 -8q-20 0 -34 22l-152 253l-3 5h-140v-228q0 -20 -11 -31t-31 -11t-31 11t-11 31v594q0 20 11 31t31 11h234q92 0 140.5 -48.5t48.5 -140.5v-30q0 -79 -37 -127zM485 489q0 56 -24 80.5
t-81 24.5h-192v-240h192q57 0 81 24t24 81v30z" />
    <glyph glyph-name="S" unicode="S" horiz-adv-x="692" 
d="M139.5 34.5q-47.5 34.5 -59.5 106.5q-2 21 9 32.5t32 11.5q20 0 30 -9.5t14 -31.5q7 -34 31.5 -47t76.5 -13h144q44 0 67.5 10t33.5 33.5t10 66.5q0 64 -24 88t-87 24h-124q-94 0 -140 46t-46 141q0 94 45.5 139.5t139.5 45.5h119q158 0 182 -132q3 -21 -8 -32.5
t-33 -11.5q-20 0 -30 10t-13 31q-8 29 -30 40t-68 11h-119q-41 0 -62.5 -9t-30 -30.5t-8.5 -61.5q0 -41 9 -62.5t30.5 -31t62.5 -9.5h124q99 0 147 -48t48 -148q0 -99 -48 -146.5t-147 -47.5h-144q-86 0 -133.5 34.5z" />
    <glyph glyph-name="T" unicode="T" horiz-adv-x="614" 
d="M265 42v551h-194q-42 0 -42 42t42 42h472q42 0 42 -42t-42 -42h-194v-551q0 -20 -11 -31t-31 -11q-42 0 -42 42z" />
    <glyph glyph-name="U" unicode="U" horiz-adv-x="756" 
d="M148.5 54.5q-54.5 54.5 -54.5 169.5v412q0 42 42 42t42 -42v-412q0 -55 13 -84.5t42.5 -42.5t84.5 -13h120q55 0 84.5 13t42.5 42.5t13 84.5v412q0 42 42 42t42 -42v-412q0 -115 -54.5 -169.5t-169.5 -54.5h-120q-115 0 -169.5 54.5z" />
    <glyph glyph-name="V" unicode="V" horiz-adv-x="643" 
d="M276 33l-247 585q-5 13 -5 22q0 21 24 32q12 6 24 6q24 0 34 -27l219 -518l213 518q11 27 34 27q11 0 24 -6q23 -11 23 -34q0 -11 -4 -20l-249 -585q-16 -33 -45 -33h-4q-26 0 -41 33z" />
    <glyph glyph-name="W" unicode="W" horiz-adv-x="898" 
d="M874 639q0 -8 -3 -17l-185 -586q-7 -18 -17 -27t-27 -9h-2q-32 0 -44 36l-154 497l1 -20l-148 -477q-7 -19 -16.5 -27.5t-27.5 -8.5q-15 0 -24 8.5t-15 27.5l-185 586q-3 11 -3 18q0 11 6.5 19t20.5 15q12 5 20 5q24 0 35 -32l152 -483l144 478q6 18 17.5 27t30.5 9
q35 -1 46 -36l144 -478l152 483q10 31 35 31q6 0 20 -4q27 -13 27 -35z" />
    <glyph glyph-name="X" unicode="X" horiz-adv-x="626" 
d="M67 41q0 14 9 27l183 270l-193 272q-9 14 -9 25q0 19 20 34q14 9 26 9q18 0 32 -20l179 -251l180 251q15 20 32 20q12 0 26 -11q20 -14 20 -32q0 -13 -10 -26l-197 -274l189 -266q9 -13 9 -26q0 -20 -20 -34q-13 -9 -26 -9q-18 0 -32 20l-174 245l-166 -246
q-13 -19 -32 -19q-12 0 -27 9q-19 13 -19 32z" />
    <glyph glyph-name="Y" unicode="Y" horiz-adv-x="615" 
d="M592 635q0 -12 -9 -24l-238 -365v-204q0 -20 -11 -31t-31 -11t-31 11t-11 31v204l-229 365q-8 14 -8 25q0 21 21 34q14 8 25 8q19 0 33 -21l200 -321l210 321q12 20 32 20q12 0 25 -9q22 -14 22 -33z" />
    <glyph glyph-name="Z" unicode="Z" horiz-adv-x="689" 
d="M626.5 152.5q11.5 -11.5 8.5 -32.5q-12 -59 -53 -89.5t-109 -30.5h-369q-20 0 -30.5 11t-10.5 31q0 13 16 36l394 516h-259q-32 0 -50 -9.5t-25 -31.5q-5 -20 -15 -29.5t-29 -9.5t-30.5 9.5t-11.5 25.5q0 6 1 9q12 58 52.5 89t107.5 31h334q21 0 31.5 -11t10.5 -31
q0 -17 -16 -38l-394 -514h293q34 0 52 9.5t24 31.5q6 20 16 29.5t29 9.5q21 0 32.5 -11.5z" />
    <glyph glyph-name="bracketleft" unicode="[" horiz-adv-x="228" 
d="M73.5 -166q-9.5 9 -9.5 26v783q0 17 9.5 26t25.5 9h84q14 0 24.5 -10.5t10.5 -24.5t-10.5 -24.5t-24.5 -10.5h-49v-713h49q14 0 24.5 -10.5t10.5 -24.5t-10.5 -24.5t-24.5 -10.5h-84q-16 0 -25.5 9z" />
    <glyph glyph-name="backslash" unicode="\" horiz-adv-x="322" 
d="M202 -120l-204 796q-3 9 -3 16q0 17 11.5 27.5t31.5 10.5q16 0 26 -8t15 -25l205 -796q2 -10 2 -15q0 -18 -11.5 -28.5t-31.5 -10.5q-32 0 -41 33z" />
    <glyph glyph-name="bracketright" unicode="]" horiz-adv-x="228" 
d="M45 -175q-14 0 -24.5 10.5t-10.5 24.5t10.5 24.5t24.5 10.5h49v713h-49q-14 0 -24.5 10.5t-10.5 24.5t10.5 24.5t24.5 10.5h84q17 0 26 -9t9 -26v-783q0 -17 -9 -26t-26 -9h-84z" />
    <glyph glyph-name="asciicircum" unicode="^" horiz-adv-x="428" 
d="M94.5 414.5q-10.5 10.5 -10.5 24.5q0 4 2 14l79 203q12 27 41 27h16q29 0 41 -27l79 -203q2 -10 2 -14q0 -14 -10.5 -24.5t-24.5 -10.5q-11 0 -20 6.5t-13 15.5l-62 161l-62 -161q-4 -9 -13 -15.5t-20 -6.5q-14 0 -24.5 10.5z" />
    <glyph glyph-name="underscore" unicode="_" horiz-adv-x="467" 
d="M50 -42q0 42 42 42h253q42 0 42 -42t-42 -42h-253q-42 0 -42 42z" />
    <glyph glyph-name="grave" unicode="`" horiz-adv-x="250" 
d="M160 513q-15 0 -26 14l-73 88q-10 11 -10 25q0 15 14 26q11 10 25 10q15 0 26 -14l73 -88q10 -11 10 -25q0 -15 -14 -26q-13 -10 -25 -10z" />
    <glyph glyph-name="a" unicode="a" horiz-adv-x="640" 
d="M498 459q48 -48 48 -148v-269q0 -20 -11 -31t-31 -11t-31 11t-11 31v23q-53 -65 -156 -65h-56q-84 0 -125 41t-41 125t40.5 125t125.5 41h211q-3 52 -27 71.5t-84 19.5h-58q-50 0 -74.5 -7t-34.5 -24q-9 -21 -19 -29t-28 -8t-29.5 9t-11.5 24q0 6 1 10q15 56 62.5 82.5
t133.5 26.5h58q100 0 148 -48zM459 159.5q1 3.5 3 7.5v81h-212q-34 0 -51 -7t-24 -24t-7 -51t7 -51t24 -24t51 -7h56q127 0 151 69q1 3 2 6.5z" />
    <glyph glyph-name="b" unicode="b" horiz-adv-x="658" 
d="M530 459q48 -48 48 -148v-115q0 -100 -48 -148t-148 -48h-38q-103 0 -156 53v-11q0 -20 -11 -31t-31 -11t-31 11t-11 31v620q0 20 11 31t31 11t31 -11t11 -31v-208q53 53 156 53h38q100 0 148 -48zM494 311q0 44 -10 68t-34 34t-68 10h-38q-69 0 -112.5 -17.5
t-43.5 -51.5v-201q0 -34 43.5 -51.5t112.5 -17.5h38q44 0 68 10t34 34t10 68v115z" />
    <glyph glyph-name="c" unicode="c" horiz-adv-x="591" 
d="M128 48q-48 48 -48 148v116q0 100 48 148t148 47h82q148 0 172 -102q1 -4 1 -10q0 -16 -11.5 -25t-30.5 -9q-18 0 -27.5 9t-17.5 29q-7 13 -27 18.5t-59 5.5h-82q-44 1 -68 -9t-34 -34t-10 -68v-116q0 -44 10 -68t34 -34t68 -10h82q39 0 59 5.5t27 18.5q8 21 17.5 29.5
t28.5 8.5q18 0 29.5 -9t11.5 -25q0 -6 -1 -10q-24 -102 -172 -102h-82q-100 0 -148 48z" />
    <glyph glyph-name="d" unicode="d" horiz-adv-x="648" 
d="M543 693q11 -11 11 -31v-620q0 -20 -11 -31t-31 -11t-31 11t-11 31v7q-25 -25 -62.5 -37t-93.5 -12h-38q-100 0 -148 48t-48 148v115q0 100 48 148t148 48h194v155q0 20 11 31t31 11t31 -11zM426.5 101.5q43.5 17.5 43.5 51.5v270h-194q-44 0 -68 -10t-34 -34t-10 -68
v-115q0 -44 10 -68t34 -34t68 -10h38q69 0 112.5 17.5z" />
    <glyph glyph-name="e" unicode="e" horiz-adv-x="634" 
d="M164 219v-24q0 -44 10 -67.5t34 -33.5t68 -10h82q51 0 75.5 9.5t32.5 33.5q6 20 16 29.5t29 9.5t29.5 -8.5t10.5 -24.5q0 -7 -1 -10q-22 -123 -192 -123h-82q-100 0 -148 48t-48 147v116q0 101 48 149t148 47h82q100 0 148 -48t48 -148v-50q0 -20 -11 -31t-31 -11h-348z
M164 303h306v8q0 44 -10 68t-34 34t-68 10h-82q-44 1 -68 -9t-34 -34t-10 -69v-8z" />
    <glyph glyph-name="f" unicode="f" horiz-adv-x="386" 
d="M352 465q0 -20 -11 -31t-31 -11h-103v-381q0 -20 -11 -31t-31 -11t-31 11t-11 31v381h-37q-20 0 -31 11t-11 31q0 42 42 42h37v4q0 98 47.5 145.5t145.5 47.5q36 0 36 -42q0 -20 -9.5 -31t-26.5 -11q-43 0 -66 -9.5t-33 -33t-10 -66.5v-4h103q42 0 42 -42z" />
    <glyph glyph-name="g" unicode="g" horiz-adv-x="648" 
d="M554 465v-521q0 -74 -35 -109t-109 -35h-186q-121 0 -140 99q-1 3 -1 10q0 16 11 25.5t31 9.5q18 0 27 -9.5t16 -31.5q6 -11 18.5 -15t37.5 -4h186q37 0 48.5 11.5t11.5 48.5v116q-27 -29 -67 -44.5t-89 -15.5h-38q-100 0 -148 48t-48 147v116q0 101 48 149t148 47h82
q72 0 112 -42q0 42 42 42t42 -42zM427 101.5q43 17.5 43 51.5v200q0 39 -28 54.5t-84 15.5h-82q-44 1 -68 -9t-34 -34t-10 -69v-116q0 -44 10 -67.5t34 -33.5t68 -10h38q70 0 113 17.5z" />
    <glyph glyph-name="h" unicode="h" horiz-adv-x="667" 
d="M525 459q48 -48 48 -148v-269q0 -20 -11 -31t-31 -11t-31 11t-11 31v269q0 44 -10 68t-34 34t-68 10h-28q-66 0 -103 -17t-48 -52q-1 -5 -5 -15v-297q0 -20 -11 -31t-31 -11t-31 11t-11 31v290q-5 8 -5 17q0 6 1 9q2 10 4 16v288q0 20 11 31t31 11t31 -11t11 -31v-187
q61 32 156 32h28q100 0 148 -48z" />
    <glyph glyph-name="i" unicode="i" horiz-adv-x="292" 
d="M96.5 602q-12.5 13 -12.5 35v30q0 23 12.5 34.5t35.5 11.5h29q45 0 45 -46v-30q0 -23 -11.5 -35.5t-33.5 -12.5h-29q-23 0 -35.5 13zM115 11q-11 11 -11 31v423q0 20 11 31t31 11t31 -11t11 -31v-423q0 -20 -11 -31t-31 -11t-31 11z" />
    <glyph glyph-name="j" unicode="j" horiz-adv-x="292" 
d="M97.5 602q-12.5 13 -12.5 35v30q0 23 12.5 34.5t35.5 11.5h29q45 0 45 -46v-30q0 -23 -11.5 -35.5t-33.5 -12.5h-29q-23 0 -35.5 13zM36 -116q41 0 54.5 13.5t13.5 54.5v513q0 20 11 31t31 11t31 -11t11 -31v-513q0 -77 -37.5 -114.5t-114.5 -37.5q-41 0 -41 42t41 42z
" />
    <glyph glyph-name="k" unicode="k" horiz-adv-x="508" 
d="M473 72q13 -14 13 -28q0 -16 -16 -31q-15 -12 -29 -12q-16 0 -31 16l-175 198l-47 -40v-133q0 -20 -11 -31t-31 -11t-31 11t-11 31v620q0 20 11 31t31 11t31 -11t11 -31v-376l238 205q14 13 28 13q16 0 31 -17q12 -15 12 -29q0 -17 -16 -30l-183 -158z" />
    <glyph glyph-name="l" unicode="l" horiz-adv-x="343" 
d="M141.5 37.5q-37.5 37.5 -37.5 114.5v510q0 20 11 31t31 11t31 -11t11 -31v-510q0 -41 13.5 -54.5t53.5 -13.5q43 0 43 -42q1 -20 -10 -31t-33 -11q-76 0 -113.5 37.5z" />
    <glyph glyph-name="m" unicode="m" horiz-adv-x="930" 
d="M795 462.5q41 -44.5 41 -147.5v-273q0 -42 -42 -42t-42 42v273q0 57 -22 82.5t-71 25.5h-41q-57 0 -81.5 -25.5t-24.5 -82.5v-273q0 -42 -42 -42t-42 42v273q0 57 -22 82.5t-71 25.5h-41q-57 0 -81.5 -25.5t-24.5 -82.5v-273q0 -42 -42 -42t-42 42v423q0 42 42 42t42 -42
v-23q26 34 58 49.5t76 15.5h13q62 0 97.5 -17t53.5 -56q27 40 56.5 56.5t75.5 16.5h41q95 0 136 -44.5z" />
    <glyph glyph-name="n" unicode="n" horiz-adv-x="662" 
d="M520 459q48 -48 48 -148v-269q0 -20 -11 -31t-31 -11t-31 11t-11 31v269q0 44 -10 68t-34 34t-68 10h-28q-63 0 -106.5 -14.5t-49.5 -42.5v-324q0 -20 -11 -31t-31 -11t-31 11t-11 31v423q0 42 42 42t42 -42v-17q53 59 156 59h28q100 0 148 -48z" />
    <glyph glyph-name="o" unicode="o" horiz-adv-x="634" 
d="M128 48q-48 48 -48 147v116q0 100 48 148t148 48h82q100 0 148 -48t48 -148v-115q0 -100 -48 -148t-148 -48h-82q-100 0 -148 48zM358 84q44 0 68 10t34 34t10 68v115q0 44 -10 68t-34 34t-68 10h-82q-45 0 -68.5 -10t-33.5 -33.5t-10 -68.5v-116q0 -44 10 -67.5
t34 -33.5t68 -10h82z" />
    <glyph glyph-name="p" unicode="p" horiz-adv-x="658" 
d="M530 459q48 -48 48 -148v-115q0 -100 -48 -148t-148 -48h-194v-158q0 -20 -11 -31t-31 -11t-31 11t-11 31v623q0 20 11 31t31 11t31 -11t11 -31v-13q55 55 156 55h38q100 0 148 -48zM494 311q0 44 -10 68t-34 34t-68 10h-38q-66 0 -109.5 -16t-46.5 -47v-276h194
q44 0 68 10t34 34t10 68v115z" />
    <glyph glyph-name="q" unicode="q" horiz-adv-x="648" 
d="M543 496q11 -11 11 -31v-623q0 -20 -11 -31t-31 -11t-31 11t-11 31v158h-194q-100 0 -148 48t-48 148v115q0 100 48 148t148 48h38q108 0 156 -56v14q0 20 11 31t31 11t31 -11zM470 84v269q0 35 -43 52.5t-113 17.5h-38q-44 0 -68 -10t-34 -34t-10 -68v-115q0 -44 10 -68
t34 -34t68 -10h194z" />
    <glyph glyph-name="r" unicode="r" horiz-adv-x="427" 
d="M399 496q11 -11 11 -31t-11 -31t-31 -11q-85 0 -131.5 -31.5t-48.5 -85.5v-264q0 -20 -11 -31t-31 -11t-31 11t-11 31v423q0 42 42 42t42 -42v-39q61 81 180 81q20 0 31 -11z" />
    <glyph glyph-name="s" unicode="s" horiz-adv-x="611" 
d="M75 105q-1 3 -1 9q0 17 11.5 26.5t30.5 9.5t29 -9.5t16 -31.5q6 -15 19.5 -20t42.5 -5h164q39 0 52.5 13t13.5 53t-13.5 53t-52.5 13h-161q-145 0 -145 145q0 74 36 110t109 36h156q118 0 139 -99q1 -3 1 -9q0 -16 -11.5 -25.5t-30.5 -9.5t-28.5 9.5t-15.5 29.5
q-6 12 -18 16t-36 4h-156q-26 0 -39 -4.5t-17.5 -17.5t-4.5 -40q0 -36 12 -48.5t49 -12.5h161q150 0 150 -150t-150 -150h-164q-127 0 -148 105z" />
    <glyph glyph-name="t" unicode="t" horiz-adv-x="419" 
d="M360 42q0 -20 -11 -31t-31 -11q-99 0 -146 47t-47 145v231h-49q-20 0 -31 11t-11 31q0 42 42 42h49v73q0 20 11 31t31 11t31 -11t11 -31v-73h115q42 0 42 -42q0 -20 -11 -31t-31 -11h-115v-231q0 -43 10 -66t33 -32.5t66 -9.5q42 0 42 -42z" />
    <glyph glyph-name="u" unicode="u" horiz-adv-x="662" 
d="M547 496q11 -11 11 -31v-423q0 -42 -42 -42t-42 42v17q-53 -59 -156 -59h-28q-100 0 -148 48t-48 148v269q0 20 11 31t31 11t31 -11t11 -31v-269q0 -44 10 -68t34 -34t68 -10h28q63 0 106.5 14.5t49.5 42.5v324q0 20 11 31t31 11t31 -11z" />
    <glyph glyph-name="v" unicode="v" horiz-adv-x="526" 
d="M491 468q0 -9 -5 -22l-184 -415q-13 -31 -48 -31q-31 0 -45 33l-170 414q-5 13 -5 21q0 24 27 34q12 5 20 5q23 0 35 -27l140 -342l154 344q13 25 36 25q8 0 20 -5q25 -12 25 -34z" />
    <glyph glyph-name="w" unicode="w" horiz-adv-x="752" 
d="M717 469q0 -10 -4 -19l-152 -416q-12 -34 -47 -34q-37 0 -46 35l-98 327l-106 -328q-5 -16 -16.5 -25t-27.5 -9q-32 0 -44 34l-139 418q-3 9 -3 17q0 26 30 35q10 3 18 3q24 0 35 -30l110 -327l103 327q10 33 48 33q35 0 45 -35l98 -325l113 328q11 30 35 30q5 0 19 -4
q29 -11 29 -35z" />
    <glyph glyph-name="x" unicode="x" horiz-adv-x="533" 
d="M487 42q0 -16 -18 -31q-14 -11 -27 -11q-19 0 -32 19l-145 189l-133 -188q-14 -20 -33 -20q-13 0 -26 10q-19 15 -19 32q0 14 10 27l148 209l-123 160q-11 14 -11 27q0 18 19 31q14 11 27 11q17 0 31 -18l116 -151l114 151q13 19 32 19q13 0 27 -11q18 -13 18 -32
q0 -14 -10 -27l-129 -169l153 -199q11 -16 11 -28z" />
    <glyph glyph-name="y" unicode="y" horiz-adv-x="680" 
d="M94 -55q0 42 42 42t42 -42q0 -38 11.5 -49.5t48.5 -11.5h194q37 0 48.5 12t11.5 49v127q-28 -42 -65.5 -57t-90.5 -15h-49q-99 0 -146 47t-47 145v273q0 42 42 42t42 -42v-273q0 -43 9.5 -66t33 -32.5t66.5 -9.5h49q81 0 118.5 26.5t37.5 81.5v273q0 42 42 42t42 -42
v-520q0 -145 -144 -145h-194q-144 0 -144 145z" />
    <glyph glyph-name="z" unicode="z" horiz-adv-x="545" 
d="M497.5 135q11.5 -9 11.5 -25q0 -6 -1 -10q-11 -49 -46.5 -74.5t-93.5 -25.5h-259q-20 0 -31 11t-11 31q0 19 18 41l272 340h-171q-26 0 -38 -4t-18 -16q-6 -21 -15 -30.5t-28 -9.5q-20 0 -31 9t-11 26q0 6 1 9q19 100 140 100h245q42 0 42 -42q0 -20 -18 -42l-270 -338
l183 -1q24 0 36.5 4.5t18.5 16.5q7 21 16.5 30t27.5 9q19 0 30.5 -9z" />
    <glyph glyph-name="braceleft" unicode="{" horiz-adv-x="358" 
d="M182.5 -134q-38.5 41 -38.5 138v167l-53 20q-27 12 -27 41v28q0 29 27 41l53 21v167q0 69 16.5 110.5t53 60t99.5 18.5q14 0 24.5 -10.5t10.5 -24.5t-10.5 -24.5t-24.5 -10.5q-42 0 -62.5 -9.5t-28.5 -34t-8 -75.5v-185q0 -32 -27 -41l-49 -17l49 -16q27 -7 27 -41v-185
q0 -47 7.5 -69.5t28 -31t63.5 -8.5q14 0 24.5 -10.5t10.5 -24.5t-10.5 -24.5t-24.5 -10.5q-92 0 -130.5 41z" />
    <glyph glyph-name="bar" unicode="|" horiz-adv-x="244" 
d="M91 -151q-11 11 -11 31v794q0 42 42 42t42 -42v-794q0 -20 -11 -31t-31 -11t-31 11z" />
    <glyph glyph-name="braceright" unicode="}" horiz-adv-x="358" 
d="M20.5 -164.5q-10.5 10.5 -10.5 24.5t10.5 24.5t24.5 10.5q43 0 63.5 8.5t28 31t7.5 69.5v185q0 34 27 41l49 16l-49 17q-27 9 -27 41v185q0 51 -8 75.5t-28.5 34t-62.5 9.5q-14 0 -24.5 10.5t-10.5 24.5t10.5 24.5t24.5 10.5q63 0 99.5 -18.5t53 -60t16.5 -110.5v-167
l53 -21q27 -12 27 -41v-28q0 -29 -27 -41l-53 -20v-167q0 -97 -38.5 -138t-130.5 -41q-14 0 -24.5 10.5z" />
    <glyph glyph-name="asciitilde" unicode="~" horiz-adv-x="609" 
d="M98 273.5q-9 10.5 -9 23.5q0 14 8 22q43 43 65 56t54 13q31 0 55.5 -9t51.5 -26q20 -12 34.5 -18t30.5 -6q18 0 32.5 9.5t42.5 39.5q12 10 25 10t22.5 -10t9.5 -23q0 -11 -8 -21q-35 -38 -63.5 -54.5t-60.5 -16.5q-29 0 -50 8.5t-45 23.5q-24 14 -40 20.5t-37 6.5
q-12 0 -19.5 -2.5t-18.5 -12.5t-34 -34q-4 -4 -10.5 -7t-12.5 -3q-14 0 -23 10.5z" />
    <glyph glyph-name="uni007F" 
 />
    <glyph glyph-name="uni00A0" unicode="&#xa0;" 
 />
    <glyph glyph-name="exclamdown" unicode="&#xa1;" horiz-adv-x="270" 
d="M175.5 510.5q10.5 -10.5 10.5 -29.5v-25q0 -19 -10.5 -29t-29.5 -10h-24q-38 0 -38 39v25q0 19 9.5 29.5t28.5 10.5h24q19 0 29.5 -10.5zM176 353v-495q0 -42 -42 -42t-42 42v495q0 42 42 42t42 -42z" />
    <glyph glyph-name="cent" unicode="&#xa2;" horiz-adv-x="502" 
d="M449.5 214.5q12.5 -12.5 12.5 -29.5q0 -68 -39 -101t-118 -35v-49q0 -35 -35 -35t-35 35v49q-89 2 -132 46t-43 134v83q0 91 43 135.5t132 45.5v48q0 35 35 35t35 -35v-48q79 -2 118 -35t39 -101q0 -17 -12.5 -29.5t-29.5 -12.5t-29.5 12.5t-12.5 29.5q0 30 -14.5 40.5
t-58.5 11.5v-276q44 1 58.5 11.5t14.5 40.5q0 17 12.5 29.5t29.5 12.5t29.5 -12.5zM163 154q19 -20 72 -21v276q-53 0 -72 -20.5t-19 -76.5v-83q0 -55 19 -75z" />
    <glyph glyph-name="sterling" unicode="&#xa3;" horiz-adv-x="592" 
d="M554 42q0 -42 -42 -42h-468v84q18 0 26.5 5t12 18.5t3.5 42.5v58h-53q-17 0 -26 9t-9 26t9.5 26t25.5 9h53v152q0 115 54.5 169.5t168.5 54.5h21q105 0 154.5 -49t49.5 -155q0 -42 -42 -42t-42 42q0 49 -10.5 74t-36 35.5t-73.5 10.5h-21q-54 0 -83.5 -12.5t-42.5 -42.5
t-13 -85v-152h188q17 0 26 -9t9 -26t-9 -26t-26 -9h-188v-58q0 -39 -8 -66h350q42 0 42 -42z" />
    <glyph glyph-name="currency" unicode="&#xa4;" horiz-adv-x="636" 
d="M118.5 133.5q-12.5 12.5 -12.5 29.5q0 16 12 30l45 44q-33 50 -33 110q0 59 33 109l-43 44q-13 13 -13 30t12.5 29.5t29.5 12.5q19 0 30 -13l43 -43q51 32 109 32q59 0 110 -32l45 45q12 12 29 12t29.5 -12.5t12.5 -29.5t-12 -29l-45 -45q33 -50 33 -110q0 -61 -32 -110
l44 -45q12 -12 12 -29t-12.5 -29.5t-29.5 -12.5t-30 13l-43 44q-50 -33 -111 -33q-58 0 -109 32l-44 -44q-14 -12 -30 -12q-17 0 -29.5 12.5zM414.5 263.5q34.5 34.5 34.5 83.5q0 48 -34.5 82.5t-83.5 34.5q-31 0 -58 -16t-43 -43t-16 -58q0 -32 16 -59t43 -43t58 -16
q49 0 83.5 34.5z" />
    <glyph glyph-name="yen" unicode="&#xa5;" horiz-adv-x="616" 
d="M592 636q0 -12 -7 -25l-224 -352h83q28 0 28 -28t-28 -28h-93v-36h93q28 0 28 -28t-28 -28h-93v-69q0 -20 -11 -31t-31 -11q-42 0 -42 42v69h-95q-28 0 -28 28t28 28h95v36h-95q-28 0 -28 28t28 28h85l-224 351q-9 14 -9 25q0 19 22 33q13 9 25 9q19 0 32 -22l206 -329
l204 331q14 22 33 22q12 0 26 -9q20 -14 20 -34z" />
    <glyph glyph-name="brokenbar" unicode="&#xa6;" horiz-adv-x="244" 
d="M92.5 359.5q-12.5 12.5 -12.5 29.5v285q0 17 12.5 29.5t29.5 12.5t29.5 -12.5t12.5 -29.5v-285q0 -17 -12.5 -29.5t-29.5 -12.5t-29.5 12.5zM92.5 -149.5q-12.5 12.5 -12.5 29.5v287q0 17 12.5 29.5t29.5 12.5t29.5 -12.5t12.5 -29.5v-287q0 -17 -12.5 -29.5t-29.5 -12.5
t-29.5 12.5z" />
    <glyph glyph-name="section" unicode="&#xa7;" horiz-adv-x="572" 
d="M478 126.5q14 -26.5 14 -69.5q0 -74 -36.5 -110.5t-110.5 -36.5h-114q-74 0 -110.5 36.5t-36.5 110.5q0 16 11.5 27.5t27.5 11.5t27.5 -11.5t11.5 -27.5q0 -41 14 -55t55 -14h114q41 0 55 14t14 55q0 20 -5 30.5t-21.5 19.5t-53.5 21l-124 40q-71 23 -100.5 59.5
t-29.5 100.5q0 91 73 118q-39 39 -39 100q0 56 34 85.5t98 29.5h98q130 0 130 -131q0 -16 -11.5 -27.5t-27.5 -11.5t-27.5 11.5t-11.5 27.5q0 32 -10 42.5t-42 10.5h-98q-32 0 -43 -8t-11 -29q0 -28 14.5 -43t52.5 -29l99 -35q66 -23 95 -60t29 -97q0 -78 -52 -110
q34 -19 48 -45.5zM164 287q6 -15 21.5 -25t47.5 -20l111 -36q33 1 46.5 17.5t13.5 58.5q0 34 -14.5 51t-56.5 32l-99 35l-6 2q-41 -1 -55.5 -16t-14.5 -58q0 -26 6 -41z" />
    <glyph glyph-name="dieresis" unicode="&#xa8;" horiz-adv-x="369" 
d="M52.5 591.5q-10.5 10.5 -10.5 29.5v25q0 19 10.5 29t29.5 10h24q38 0 38 -39v-25q0 -19 -9.5 -29.5t-28.5 -10.5h-24q-19 0 -29.5 10.5zM219.5 591.5q-10.5 10.5 -10.5 29.5v25q0 19 10.5 29t29.5 10h24q38 0 38 -39v-25q0 -19 -9.5 -29.5t-28.5 -10.5h-24
q-19 0 -29.5 10.5z" />
    <glyph glyph-name="copyright" unicode="&#xa9;" horiz-adv-x="818" 
d="M240 49q-75 42 -117.5 117t-42.5 169t42.5 169t117.5 117.5t169 42.5t169 -42.5t117.5 -117.5t42.5 -169t-42.5 -169t-117.5 -117t-169 -42t-169 42zM543.5 109.5q58.5 32.5 91.5 91t33 134.5t-33 134.5t-91.5 91.5t-134.5 33t-134.5 -33t-91.5 -91.5t-33 -134.5
t33 -134.5t91.5 -91t134.5 -32.5t134.5 32.5zM274.5 182q-36.5 36 -36.5 110v83q0 75 36.5 111t110.5 36h49q108 0 129 -65q2 -8 2 -11q0 -12 -9.5 -19t-27.5 -7q-12 0 -17.5 4t-11 12t-9.5 13q-16 3 -56 3h-49q-45 0 -61 -15.5t-16 -61.5v-83q0 -45 15.5 -60.5t61.5 -15.5
h49q26 0 56 3q3 4 9 13.5t12.5 13t16.5 3.5q17 0 27 -7t10 -20q0 -3 -2 -11q-26 -65 -129 -65h-49q-74 0 -110.5 36z" />
    <glyph glyph-name="ordfeminine" unicode="&#xaa;" horiz-adv-x="474" 
d="M375 633q35 -35 35 -106v-193q0 -17 -9.5 -26.5t-27.5 -9.5q-17 0 -26.5 9.5t-9.5 26.5v12q-30 -48 -98 -48h-55q-120 0 -120 120q0 121 120 121h153q-1 33 -15.5 44.5t-52.5 11.5h-56q-49 0 -63 -10q-16 -21 -22 -25t-19 -4q-16 0 -25.5 7.5t-9.5 21.5q0 6 1 10
q11 37 45 55t93 18h56q71 0 106 -35zM337 404v62h-153q-29 0 -38 -9t-9 -39q0 -29 9 -38t38 -9h55q98 0 98 33z" />
    <glyph glyph-name="guillemotleft" unicode="&#xab;" horiz-adv-x="681" 
d="M530 115l-186 154q-15 12 -15 25t15 25l186 154q8 8 22 8t24.5 -10.5t10.5 -24.5q0 -15 -14 -27l-151 -125l151 -125q14 -12 14 -27q0 -14 -10.5 -24.5t-24.5 -10.5t-22 8zM295 115l-186 154q-15 12 -15 25t15 25l186 154q8 8 22 8t24.5 -10.5t10.5 -24.5q0 -15 -14 -27
l-151 -125l151 -125q14 -12 14 -27q0 -14 -10.5 -24.5t-24.5 -10.5t-22 8z" />
    <glyph glyph-name="logicalnot" unicode="&#xac;" horiz-adv-x="609" 
d="M465.5 213.5q-9.5 9.5 -9.5 22.5v83h-336q-13 0 -22.5 9.5t-9.5 22.5t9.5 22.5t22.5 9.5h368q33 0 33 -32v-115q0 -13 -10 -22.5t-23 -9.5t-22.5 9.5z" />
    <glyph glyph-name="uni00AD" unicode="&#xad;" horiz-adv-x="514" 
d="M94.5 245.5q-10.5 10.5 -10.5 24.5t10.5 24.5t24.5 10.5h276q14 0 24.5 -10.5t10.5 -24.5t-10.5 -24.5t-24.5 -10.5h-276q-14 0 -24.5 10.5z" />
    <glyph glyph-name="registered" unicode="&#xae;" horiz-adv-x="818" 
d="M240 49.5q-75 42.5 -117.5 117.5t-42.5 169t42.5 169t117.5 117.5t169 42.5t169 -42.5t117.5 -117.5t42.5 -169t-42.5 -169t-117.5 -117.5t-169 -42.5t-169 42.5zM543.5 110q58.5 33 91.5 91.5t33 134.5t-33 134.5t-91.5 91.5t-134.5 33t-134.5 -33t-91.5 -91.5
t-33 -134.5t33 -134.5t91.5 -91.5t134.5 -33t134.5 33zM296 169q-9 9 -9 26v293q0 17 9 26t26 9h89q52 0 80.5 -28.5t28.5 -80.5v-15q0 -72 -51 -98l51 -88q5 -9 5 -20q0 -17 -20 -28q-10 -5 -18 -5q-18 0 -30 20l-61 109h-39v-94q0 -16 -9 -25.5t-26 -9.5t-26 9zM411 359
q22 0 30.5 8.5t8.5 31.5v15q0 22 -8.5 30.5t-30.5 8.5h-54v-94h54z" />
    <glyph glyph-name="macron" unicode="&#xaf;" horiz-adv-x="437" 
d="M50 605q0 42 42 42h253q42 0 42 -42t-42 -42h-253q-42 0 -42 42z" />
    <glyph glyph-name="degree" unicode="&#xb0;" horiz-adv-x="289" 
d="M71.5 460.5q-21.5 21.5 -21.5 61.5v72q0 40 21.5 61.5t61.5 21.5h23q40 0 61.5 -21.5t21.5 -61.5v-72q0 -40 -21.5 -61.5t-61.5 -21.5h-23q-40 0 -61.5 21.5zM156 495q16 0 21.5 5.5t5.5 21.5v72q0 16 -5.5 21.5t-21.5 5.5h-23q-16 0 -21.5 -5.5t-5.5 -21.5v-72
q0 -16 5.5 -21.5t21.5 -5.5h23z" />
    <glyph glyph-name="plusminus" unicode="&#xb1;" horiz-adv-x="609" 
d="M93.5 327.5q-9.5 9.5 -9.5 25.5q0 17 9.5 26t25.5 9h160v97q0 35 35 35t35 -35v-97h141q17 0 26 -9t9 -26t-9 -26t-26 -9h-141v-105q0 -35 -35 -35t-35 35v105h-160q-16 0 -25.5 9.5zM516 144q9 -9 9 -26t-9 -26t-26 -9h-371q-16 0 -25.5 9.5t-9.5 25.5q0 17 9.5 26
t25.5 9h371q17 0 26 -9z" />
    <glyph glyph-name="uni00B2" unicode="&#xb2;" horiz-adv-x="374" 
d="M97 298q-18 0 -29 10t-11 29q0 46 16 77t38 49t58 40q42 27 53.5 37t11.5 27q0 19 -4 23t-23 4h-50q-24 0 -29 -3q-17 -22 -24 -27.5t-20 -5.5q-17 0 -27.5 8.5t-10.5 23.5q0 6 1 10q20 72 110 72h50q52 0 78.5 -26.5t26.5 -78.5q0 -33 -14 -56.5t-32 -37t-55 -36.5
q-33 -20 -47.5 -32.5t-22.5 -28.5h139q40 0 40 -39q0 -19 -10.5 -29t-29.5 -10h-183z" />
    <glyph glyph-name="uni00B3" unicode="&#xb3;" horiz-adv-x="396" 
d="M348 416q0 -57 -29.5 -86t-86.5 -29h-56q-93 0 -111 73q-1 4 -1 10q0 15 10.5 23.5t27.5 8.5q14 0 19.5 -4t12.5 -14t11 -16q6 -3 31 -3h56q25 0 31.5 6.5t6.5 30.5q0 25 -6.5 31t-31.5 6h-21q-19 0 -29 10.5t-10 29.5t10 29t29 10h18q34 0 34 31q0 23 -6 28.5t-27 5.5
h-52q-15 0 -25 -2q-6 -7 -13 -15.5t-13 -12.5t-16 -4q-20 0 -30.5 8t-10.5 22q0 7 1 11q9 35 36.5 53t70.5 18h52q54 0 82.5 -26.5t28.5 -71.5q0 -42 -33 -65q40 -28 40 -96z" />
    <glyph glyph-name="acute" unicode="&#xb4;" horiz-adv-x="247" 
d="M48 549q0 14 10 25l73 88q11 14 26 14q14 0 25 -10q14 -11 14 -26q0 -14 -10 -25l-73 -88q-11 -14 -26 -14q-12 0 -25 10q-14 11 -14 26z" />
    <glyph glyph-name="uni00B5" unicode="&#xb5;" horiz-adv-x="703" 
d="M648 75q10 -10 10 -33q0 -42 -46 -42q-73 0 -119 60q-28 -29 -72.5 -45.5t-102.5 -16.5h-28q-71 0 -112 55v-89q0 -26 -11 -41t-31 -15t-31 11t-11 31v515q0 20 11 31t31 11t31 -11t11 -31v-271q0 -44 10 -68t34 -34t68 -10h28q71 0 113.5 17t42.5 53v313q0 20 11 31
t31 11t31 -11t11 -31v-332q0 -23 4.5 -33.5t16 -13.5t36.5 -2q23 1 33 -9z" />
    <glyph glyph-name="paragraph" unicode="&#xb6;" horiz-adv-x="576" 
d="M282.5 -187.5q-10.5 10.5 -10.5 24.5v439h-51q-86 0 -131.5 45t-45.5 131v29q0 86 45.5 131.5t131.5 45.5h216q17 0 26 -9t9 -26v-786q0 -14 -10.5 -24.5t-24.5 -10.5t-24.5 10.5t-10.5 24.5v751h-60v-751q0 -14 -10.5 -24.5t-24.5 -10.5t-24.5 10.5z" />
    <glyph glyph-name="periodcentered" unicode="&#xb7;" horiz-adv-x="270" 
d="M94.5 260.5q-10.5 10.5 -10.5 29.5v25q0 19 10.5 29t29.5 10h24q38 0 38 -39v-25q0 -19 -9.5 -29.5t-28.5 -10.5h-24q-19 0 -29.5 10.5z" />
    <glyph glyph-name="cedilla" unicode="&#xb8;" 
d="M75 -189q-25 25 -25 72q0 35 35 35t35 -35q0 -18 4.5 -22.5t22.5 -4.5q29 0 38 8.5t9 38.5q0 7 -3.5 11.5t-16.5 13.5q-53 32 -53 87q0 35 35 35t35 -35q0 -9 3.5 -14.5t18.5 -15.5q22 -15 36.5 -33t14.5 -49q0 -117 -117 -117q-47 0 -72 25z" />
    <glyph glyph-name="uni00B9" unicode="&#xb9;" horiz-adv-x="287" 
d="M227 650v-310q0 -42 -42 -42t-42 42v197l-18 -17q-14 -14 -29 -14t-30 15q-14 16 -14 30q0 16 15 29l78 77q14 13 24.5 17t27.5 4q30 0 30 -28z" />
    <glyph glyph-name="ordmasculine" unicode="&#xba;" horiz-adv-x="430" 
d="M36 444v60q0 144 146 146h66q146 0 146 -146v-59q0 -147 -146 -147h-66q-146 0 -146 146zM248 382q38 0 50 12t12 51v59q0 38 -12 50t-50 12h-66q-38 -1 -50 -12.5t-12 -49.5v-60q0 -38 12 -50t50 -12h66z" />
    <glyph glyph-name="guillemotright" unicode="&#xbb;" horiz-adv-x="678" 
d="M336.5 117.5q-10.5 10.5 -10.5 24.5q0 15 14 27l151 125l-151 125q-14 12 -14 27q0 14 10.5 24.5t24.5 10.5t22 -8l186 -154q15 -12 15 -25t-15 -25l-186 -154q-8 -8 -22 -8t-24.5 10.5zM104.5 117.5q-10.5 10.5 -10.5 24.5q0 15 14 27l151 125l-151 125q-14 12 -14 27
q0 14 10.5 24.5t24.5 10.5t22 -8l186 -154q15 -12 15 -25t-15 -25l-186 -154q-8 -8 -22 -8t-24.5 10.5z" />
    <glyph glyph-name="onequarter" unicode="&#xbc;" horiz-adv-x="819" 
d="M795 110q0 -19 -10 -29t-29 -10h-35v-30q0 -19 -10 -29t-29 -10t-29 10t-10 29v30h-150q-19 0 -29 10t-10 29q0 17 16 39l172 209q21 24 47 24q34 0 34 -39l-1 -193h34q39 0 39 -40zM557 150h87l1 103zM227 650v-310q0 -42 -42 -42t-42 42v197l-18 -17q-14 -14 -29 -14
t-30 15q-14 16 -14 30q0 16 15 29l78 77q14 13 24.5 17t27.5 4q30 0 30 -28zM125.5 -7.5q-12.5 12.5 -12.5 29.5q0 15 8 26l461 610q14 17 34 17q17 0 29.5 -12.5t12.5 -29.5q0 -15 -8 -26l-461 -610q-14 -17 -34 -17q-17 0 -29.5 12.5z" />
    <glyph glyph-name="onehalf" unicode="&#xbd;" horiz-adv-x="837" 
d="M227 650v-310q0 -42 -42 -42t-42 42v197l-18 -17q-14 -14 -29 -14t-30 15q-14 16 -14 30q0 16 15 29l78 77q14 13 24.5 17t27.5 4q30 0 30 -28zM125.5 -7.5q-12.5 12.5 -12.5 29.5q0 15 8 26l461 610q14 17 34 17q17 0 29.5 -12.5t12.5 -29.5q0 -15 -8 -26l-461 -610
q-14 -17 -34 -17q-17 0 -29.5 12.5zM554 0q-18 0 -29 10t-11 29q0 46 16 77t38 49t58 40q42 27 53.5 37t11.5 27q0 19 -4 23t-23 4h-50q-24 0 -29 -3q-17 -22 -24 -27.5t-20 -5.5q-17 0 -27.5 8.5t-10.5 23.5q0 6 1 10q20 72 110 72h50q52 0 78.5 -26.5t26.5 -78.5
q0 -33 -14 -56.5t-32 -37t-55 -36.5q-33 -20 -47.5 -32.5t-22.5 -28.5h139q40 0 40 -39q0 -19 -10.5 -29t-29.5 -10h-183z" />
    <glyph glyph-name="threequarters" unicode="&#xbe;" horiz-adv-x="929" 
d="M905 110q0 -19 -10 -29t-29 -10h-35v-30q0 -19 -10 -29t-29 -10t-29 10t-10 29v30h-150q-19 0 -29 10t-10 29q0 17 16 39l172 209q21 24 47 24q34 0 34 -39l-1 -193h34q39 0 39 -40zM667 150h87l1 103zM348 416q0 -57 -29.5 -86t-86.5 -29h-56q-93 0 -111 73q-1 4 -1 10
q0 15 10.5 23.5t27.5 8.5q14 0 19.5 -4t12.5 -14t11 -16q6 -3 31 -3h56q25 0 31.5 6.5t6.5 30.5q0 25 -6.5 31t-31.5 6h-21q-19 0 -29 10.5t-10 29.5t10 29t29 10h18q34 0 34 31q0 23 -6 28.5t-27 5.5h-52q-15 0 -25 -2q-6 -7 -13 -15.5t-13 -12.5t-16 -4q-20 0 -30.5 8
t-10.5 22q0 7 1 11q9 35 36.5 53t70.5 18h52q54 0 82.5 -26.5t28.5 -71.5q0 -42 -33 -65q40 -28 40 -96zM234.5 -7.5q-12.5 12.5 -12.5 29.5q0 15 8 26l461 610q14 17 34 17q17 0 29.5 -12.5t12.5 -29.5q0 -15 -8 -26l-461 -610q-14 -17 -34 -17q-17 0 -29.5 12.5z" />
    <glyph glyph-name="questiondown" unicode="&#xbf;" horiz-adv-x="514" 
d="M320.5 499.5q10.5 -10.5 10.5 -29.5v-25q0 -19 -10.5 -29t-29.5 -10h-24q-38 0 -38 39v25q0 19 9.5 29.5t28.5 10.5h24q19 0 29.5 -10.5zM321 302q0 -49 -17 -81.5t-38.5 -49.5t-53.5 -35q-28 -16 -40.5 -26t-20 -26t-7.5 -43q0 -40 9 -61.5t30.5 -30.5t61.5 -9h67
q40 0 61.5 9t30.5 30.5t9 61.5q0 42 42 42t42 -42q0 -185 -185 -185h-67q-94 0 -139.5 45.5t-45.5 139.5q0 49 17 81.5t38.5 49.5t53.5 35q28 16 40.5 26t20 26t7.5 43q0 42 42 42t42 -42z" />
    <glyph glyph-name="Agrave" unicode="&#xc0;" horiz-adv-x="666" 
d="M353 712q-15 0 -26 14l-73 88q-10 11 -10 25q0 15 14 26q11 10 25 10q15 0 26 -14l73 -88q10 -11 10 -25q0 -15 -14 -26q-13 -10 -25 -10zM625 39q0 -24 -27 -35q-9 -4 -20 -4q-24 0 -35 27l-54 131h-311l-52 -131q-11 -27 -35 -27q-10 0 -19 4q-28 10 -28 35q0 11 4 20
l238 586q15 33 47 33h2q33 -2 44 -33l242 -586q4 -9 4 -20zM211 242h244l-125 303z" />
    <glyph glyph-name="Aacute" unicode="&#xc1;" horiz-adv-x="666" 
d="M314 748q0 14 10 25l73 88q11 14 26 14q14 0 25 -10q14 -11 14 -26q0 -14 -10 -25l-73 -88q-11 -14 -26 -14q-12 0 -25 10q-14 11 -14 26zM625 39q0 -24 -27 -35q-9 -4 -20 -4q-24 0 -35 27l-54 131h-311l-52 -131q-11 -27 -35 -27q-10 0 -19 4q-28 10 -28 35q0 11 4 20
l238 586q15 33 47 33h2q33 -2 44 -33l242 -586q4 -9 4 -20zM211 242h244l-125 303z" />
    <glyph glyph-name="Acircumflex" unicode="&#xc2;" horiz-adv-x="666" 
d="M186 730q-11 11 -11 27q0 9 5 18.5t13 14.5l92 76q21 18 47 18h3q14 0 25 -4t22 -14l93 -76q8 -5 13 -14.5t5 -18.5q0 -16 -11.5 -27t-26.5 -11q-16 0 -28 12l-93 77h-1l-92 -77q-12 -12 -28 -12t-27 11zM625 39q0 -24 -27 -35q-9 -4 -20 -4q-24 0 -35 27l-54 131h-311
l-52 -131q-11 -27 -35 -27q-10 0 -19 4q-28 10 -28 35q0 11 4 20l238 586q15 33 47 33h2q33 -2 44 -33l242 -586q4 -9 4 -20zM211 242h244l-125 303z" />
    <glyph glyph-name="Atilde" unicode="&#xc3;" horiz-adv-x="666" 
d="M359.5 745q-17.5 11 -36.5 30q-13 14 -20.5 18t-16.5 4q-26 0 -39 -31q-11 -26 -30 -26q-7 0 -16 3q-22 8 -22 25q0 9 4 17q17 41 41.5 60t61.5 19q29 0 47.5 -11.5t37.5 -30.5q13 -13 19 -16.5t16 -3.5t16.5 5t12.5 20q11 28 31 28q3 0 13 -2q24 -6 24 -26q0 -6 -3 -15
q-14 -40 -37 -59t-57 -19q-29 0 -46.5 11zM625 39q0 -24 -27 -35q-9 -4 -20 -4q-24 0 -35 27l-54 131h-311l-52 -131q-11 -27 -35 -27q-10 0 -19 4q-28 10 -28 35q0 11 4 20l238 586q15 33 47 33h2q33 -2 44 -33l242 -586q4 -9 4 -20zM211 242h244l-125 303z" />
    <glyph glyph-name="Adieresis" unicode="&#xc4;" horiz-adv-x="666" 
d="M625 39q0 -24 -27 -35q-9 -4 -20 -4q-24 0 -35 27l-54 131h-311l-52 -131q-11 -27 -35 -27q-10 0 -19 4q-28 10 -28 35q0 11 4 20l238 586q15 33 47 33h2q33 -2 44 -33l242 -586q4 -9 4 -20zM211 242h244l-125 303zM210.5 762.5q-10.5 10.5 -10.5 29.5v25q0 19 10.5 29
t29.5 10h24q38 0 38 -39v-25q0 -19 -9.5 -29.5t-28.5 -10.5h-24q-19 0 -29.5 10.5zM377.5 762.5q-10.5 10.5 -10.5 29.5v25q0 19 10.5 29t29.5 10h24q38 0 38 -39v-25q0 -19 -9.5 -29.5t-28.5 -10.5h-24q-19 0 -29.5 10.5z" />
    <glyph glyph-name="Aring" unicode="&#xc5;" horiz-adv-x="666" 
d="M280 749.5q-21 20.5 -21 56.5t21 56.5t56 20.5q36 0 57 -20.5t21 -56.5t-21 -56.5t-57 -20.5q-35 0 -56 20.5zM351.5 787.5q4.5 1.5 4.5 8.5v16q0 10 -1.5 12t-9.5 2h-7q-16 0 -19 -2t-3 -11v-7q0 -14 2 -17t10 -3q19 0 23.5 1.5zM625 39q0 -24 -27 -35q-9 -4 -20 -4
q-24 0 -35 27l-54 131h-311l-52 -131q-11 -27 -35 -27q-10 0 -19 4q-28 10 -28 35q0 11 4 20l238 586q15 33 47 33h2q33 -2 44 -33l242 -586q4 -9 4 -20zM211 242h244l-125 303z" />
    <glyph glyph-name="AE" unicode="&#xc6;" horiz-adv-x="860" 
d="M429 42v116h-228l-77 -134q-13 -24 -34 -24q-12 0 -23 7q-23 14 -23 34q0 12 7 23l332 585q18 29 51 29h328q20 0 31 -11t11 -31t-11 -31t-31 -11h-249v-210h131q20 0 31 -11t11 -31t-11 -31t-31 -11h-131v-216h249q20 0 31 -11t11 -31t-11 -31t-31 -11h-291
q-42 0 -42 42zM249 242h180v327z" />
    <glyph glyph-name="Ccedilla" unicode="&#xc7;" horiz-adv-x="696" 
d="M617 193q11 -11 8 -32q-8 -80 -54 -119t-134 -42q4 -5 18 -15q22 -15 36.5 -33t14.5 -49q0 -117 -117 -117q-47 0 -72 25t-25 72q0 35 35 35t35 -35q0 -18 4.5 -22.5t22.5 -4.5q29 0 38 8.5t9 38.5q0 7 -3.5 11.5t-16.5 13.5q-19 12 -33.5 28.5t-18.5 43.5h-60
q-115 0 -169.5 54.5t-54.5 169.5v230q0 115 54.5 170t168.5 54h121q94 0 143.5 -39t57.5 -122q3 -21 -8 -32t-32 -11q-20 0 -30.5 10.5t-13.5 31.5q-5 45 -31 61.5t-86 16.5h-121q-54 1 -84 -12t-42.5 -43t-12.5 -85v-230q0 -55 13 -84.5t42.5 -42.5t84.5 -13h120
q60 0 86 16.5t31 61.5q3 21 13.5 31.5t30.5 10.5q21 0 32 -11z" />
    <glyph glyph-name="Egrave" unicode="&#xc8;" horiz-adv-x="603" 
d="M359 712q-15 0 -26 14l-73 88q-10 11 -10 25q0 15 14 26q11 10 25 10q15 0 26 -14l73 -88q10 -11 10 -25q0 -15 -14 -26q-13 -10 -25 -10zM536 73q11 -11 11 -31t-11 -31t-31 -11h-359q-20 0 -31 11t-11 31v594q0 20 11 31t31 11h359q20 0 31 -11t11 -31t-11 -31t-31 -11
h-317v-210h199q20 0 31 -11t11 -31t-11 -31t-31 -11h-199v-216h317q20 0 31 -11z" />
    <glyph glyph-name="Eacute" unicode="&#xc9;" horiz-adv-x="603" 
d="M304 766q0 14 10 25l73 88q11 14 26 14q14 0 25 -10q14 -11 14 -26q0 -14 -10 -25l-73 -88q-11 -14 -26 -14q-12 0 -25 10q-14 11 -14 26zM536 73q11 -11 11 -31t-11 -31t-31 -11h-359q-20 0 -31 11t-11 31v594q0 20 11 31t31 11h359q20 0 31 -11t11 -31t-11 -31t-31 -11
h-317v-210h199q20 0 31 -11t11 -31t-11 -31t-31 -11h-199v-216h317q20 0 31 -11z" />
    <glyph glyph-name="Ecircumflex" unicode="&#xca;" horiz-adv-x="603" 
d="M192 730q-11 11 -11 27q0 9 5 18.5t13 14.5l92 76q21 18 47 18h3q14 0 25 -4t22 -14l93 -76q8 -5 13 -14.5t5 -18.5q0 -16 -11.5 -27t-26.5 -11q-16 0 -28 12l-93 77h-1l-92 -77q-12 -12 -28 -12t-27 11zM536 73q11 -11 11 -31t-11 -31t-31 -11h-359q-20 0 -31 11t-11 31
v594q0 20 11 31t31 11h359q20 0 31 -11t11 -31t-11 -31t-31 -11h-317v-210h199q20 0 31 -11t11 -31t-11 -31t-31 -11h-199v-216h317q20 0 31 -11z" />
    <glyph glyph-name="Edieresis" unicode="&#xcb;" horiz-adv-x="603" 
d="M536 73q11 -11 11 -31t-11 -31t-31 -11h-359q-20 0 -31 11t-11 31v594q0 20 11 31t31 11h359q20 0 31 -11t11 -31t-11 -31t-31 -11h-317v-210h199q20 0 31 -11t11 -31t-11 -31t-31 -11h-199v-216h317q20 0 31 -11zM216.5 762.5q-10.5 10.5 -10.5 29.5v25q0 19 10.5 29
t29.5 10h24q38 0 38 -39v-25q0 -19 -9.5 -29.5t-28.5 -10.5h-24q-19 0 -29.5 10.5zM383.5 762.5q-10.5 10.5 -10.5 29.5v25q0 19 10.5 29t29.5 10h24q38 0 38 -39v-25q0 -19 -9.5 -29.5t-28.5 -10.5h-24q-19 0 -29.5 10.5z" />
    <glyph glyph-name="Igrave" unicode="&#xcc;" horiz-adv-x="292" 
d="M165 712q-15 0 -26 14l-73 88q-10 11 -10 25q0 15 14 26q11 10 25 10q15 0 26 -14l73 -88q10 -11 10 -25q0 -15 -14 -26q-13 -10 -25 -10zM114 10q-10 10 -10 32v593q0 22 10 32t32 10t32 -10t10 -32v-593q0 -22 -10 -32t-32 -10t-32 10z" />
    <glyph glyph-name="Iacute" unicode="&#xcd;" horiz-adv-x="292" 
d="M110 766q0 14 10 25l73 88q11 14 26 14q14 0 25 -10q14 -11 14 -26q0 -14 -10 -25l-73 -88q-11 -14 -26 -14q-12 0 -25 10q-14 11 -14 26zM114 10q-10 10 -10 32v593q0 22 10 32t32 10t32 -10t10 -32v-593q0 -22 -10 -32t-32 -10t-32 10z" />
    <glyph glyph-name="Icircumflex" unicode="&#xce;" horiz-adv-x="292" 
d="M27.5 741.5q-10.5 10.5 -10.5 24.5t10 24l73 73q18 19 44 19h6q26 0 44 -19l73 -73q10 -10 10 -24t-10.5 -24.5t-24.5 -10.5q-16 0 -25 10l-64 71h-12l-64 -71q-10 -10 -25 -10q-14 0 -24.5 10.5zM114 10q-10 10 -10 32v593q0 22 10 32t32 10t32 -10t10 -32v-593
q0 -22 -10 -32t-32 -10t-32 10z" />
    <glyph glyph-name="Idieresis" unicode="&#xcf;" horiz-adv-x="292" 
d="M114 10q-10 10 -10 32v593q0 22 10 32t32 10t32 -10t10 -32v-593q0 -22 -10 -32t-32 -10t-32 10zM22.5 762.5q-10.5 10.5 -10.5 29.5v25q0 19 10.5 29t29.5 10h24q38 0 38 -39v-25q0 -19 -9.5 -29.5t-28.5 -10.5h-24q-19 0 -29.5 10.5zM189.5 762.5
q-10.5 10.5 -10.5 29.5v25q0 19 10.5 29t29.5 10h24q38 0 38 -39v-25q0 -19 -9.5 -29.5t-28.5 -10.5h-24q-19 0 -29.5 10.5z" />
    <glyph glyph-name="Eth" unicode="&#xd0;" horiz-adv-x="721" 
d="M579.5 616.5q61.5 -61.5 61.5 -192.5v-170q0 -131 -61.5 -192.5t-192.5 -61.5h-241q-20 0 -31 11t-11 31v261h-42q-16 0 -25.5 9.5t-9.5 25.5q0 17 9.5 26t25.5 9h42v263q0 20 11 31t31 11h241q131 0 192.5 -61.5zM557 424q0 65 -16 101.5t-52.5 52.5t-101.5 16h-199
v-221h136q17 0 26 -9t9 -26t-9 -26t-26 -9h-136v-219h199q65 0 101.5 16t52.5 52.5t16 101.5v170z" />
    <glyph glyph-name="Ntilde" unicode="&#xd1;" horiz-adv-x="757" 
d="M400.5 745q-17.5 11 -36.5 30q-13 14 -20.5 18t-16.5 4q-26 0 -39 -31q-11 -26 -30 -26q-7 0 -16 3q-22 8 -22 25q0 9 4 17q17 41 41.5 60t61.5 19q29 0 47.5 -11.5t37.5 -30.5q13 -13 19 -16.5t16 -3.5t16.5 5t12.5 20q11 28 31 28q3 0 13 -2q24 -6 24 -26q0 -6 -3 -15
q-14 -40 -37 -59t-57 -19q-29 0 -46.5 11zM642 667q11 -11 11 -31v-594q0 -20 -11 -31t-31 -11q-12 0 -22 6t-20 19l-381 491v-474q0 -20 -11 -31t-31 -11t-31 11t-11 31v594q0 20 11 31t31 11q12 0 21.5 -6t20.5 -19l381 -491v474q0 20 11 31t31 11t31 -11z" />
    <glyph glyph-name="Ograve" unicode="&#xd2;" horiz-adv-x="728" 
d="M383 712q-15 0 -26 14l-73 88q-10 11 -10 25q0 15 14 26q11 10 25 10q15 0 26 -14l73 -88q10 -11 10 -25q0 -15 -14 -26q-13 -10 -25 -10zM134.5 54.5q-54.5 54.5 -54.5 169.5v231q0 115 55 169.5t169 53.5h120q115 0 169.5 -54.5t54.5 -169.5v-230q0 -115 -54.5 -169.5
t-169.5 -54.5h-120q-115 0 -169.5 54.5zM424 84q55 0 84.5 13t42.5 42.5t13 84.5v230q0 54 -13 84t-43 43t-84 13h-120q-54 1 -84 -12t-43 -43t-13 -84v-231q0 -55 13 -84.5t42.5 -42.5t84.5 -13h120z" />
    <glyph glyph-name="Oacute" unicode="&#xd3;" horiz-adv-x="728" 
d="M328 766q0 14 10 25l73 88q11 14 26 14q14 0 25 -10q14 -11 14 -26q0 -14 -10 -25l-73 -88q-11 -14 -26 -14q-12 0 -25 10q-14 11 -14 26zM134.5 54.5q-54.5 54.5 -54.5 169.5v231q0 115 55 169.5t169 53.5h120q115 0 169.5 -54.5t54.5 -169.5v-230q0 -115 -54.5 -169.5
t-169.5 -54.5h-120q-115 0 -169.5 54.5zM424 84q55 0 84.5 13t42.5 42.5t13 84.5v230q0 54 -13 84t-43 43t-84 13h-120q-54 1 -84 -12t-43 -43t-13 -84v-231q0 -55 13 -84.5t42.5 -42.5t84.5 -13h120z" />
    <glyph glyph-name="Ocircumflex" unicode="&#xd4;" horiz-adv-x="728" 
d="M216 730q-11 11 -11 27q0 9 5 18.5t13 14.5l92 76q21 18 47 18h3q14 0 25 -4t22 -14l93 -76q8 -5 13 -14.5t5 -18.5q0 -16 -11.5 -27t-26.5 -11q-16 0 -28 12l-93 77h-1l-92 -77q-12 -12 -28 -12t-27 11zM134.5 54.5q-54.5 54.5 -54.5 169.5v231q0 115 55 169.5t169 53.5
h120q115 0 169.5 -54.5t54.5 -169.5v-230q0 -115 -54.5 -169.5t-169.5 -54.5h-120q-115 0 -169.5 54.5zM424 84q55 0 84.5 13t42.5 42.5t13 84.5v230q0 54 -13 84t-43 43t-84 13h-120q-54 1 -84 -12t-43 -43t-13 -84v-231q0 -55 13 -84.5t42.5 -42.5t84.5 -13h120z" />
    <glyph glyph-name="Otilde" unicode="&#xd5;" horiz-adv-x="728" 
d="M389.5 745q-17.5 11 -36.5 30q-13 14 -20.5 18t-16.5 4q-26 0 -39 -31q-11 -26 -30 -26q-7 0 -16 3q-22 8 -22 25q0 9 4 17q17 41 41.5 60t61.5 19q29 0 47.5 -11.5t37.5 -30.5q13 -13 19 -16.5t16 -3.5t16.5 5t12.5 20q11 28 31 28q3 0 13 -2q24 -6 24 -26q0 -6 -3 -15
q-14 -40 -37 -59t-57 -19q-29 0 -46.5 11zM134.5 54.5q-54.5 54.5 -54.5 169.5v231q0 115 55 169.5t169 53.5h120q115 0 169.5 -54.5t54.5 -169.5v-230q0 -115 -54.5 -169.5t-169.5 -54.5h-120q-115 0 -169.5 54.5zM424 84q55 0 84.5 13t42.5 42.5t13 84.5v230q0 54 -13 84
t-43 43t-84 13h-120q-54 1 -84 -12t-43 -43t-13 -84v-231q0 -55 13 -84.5t42.5 -42.5t84.5 -13h120z" />
    <glyph glyph-name="Odieresis" unicode="&#xd6;" horiz-adv-x="728" 
d="M134.5 54.5q-54.5 54.5 -54.5 169.5v231q0 115 55 169.5t169 53.5h120q115 0 169.5 -54.5t54.5 -169.5v-230q0 -115 -54.5 -169.5t-169.5 -54.5h-120q-115 0 -169.5 54.5zM424 84q55 0 84.5 13t42.5 42.5t13 84.5v230q0 54 -13 84t-43 43t-84 13h-120q-54 1 -84 -12
t-43 -43t-13 -84v-231q0 -55 13 -84.5t42.5 -42.5t84.5 -13h120zM240.5 762.5q-10.5 10.5 -10.5 29.5v25q0 19 10.5 29t29.5 10h24q38 0 38 -39v-25q0 -19 -9.5 -29.5t-28.5 -10.5h-24q-19 0 -29.5 10.5zM407.5 762.5q-10.5 10.5 -10.5 29.5v25q0 19 10.5 29t29.5 10h24
q38 0 38 -39v-25q0 -19 -9.5 -29.5t-28.5 -10.5h-24q-19 0 -29.5 10.5z" />
    <glyph glyph-name="multiply" unicode="&#xd7;" horiz-adv-x="609" 
d="M456 226q12 -12 12 -25t-12 -25t-25 -12t-25 12l-99 100l-103 -103q-12 -12 -25 -12t-25 12t-12 25t12 25l103 103l-113 113q-12 12 -12 25q0 14 12 24q12 12 25 12t25 -12l113 -113l110 110q12 12 25 12q14 0 24 -12q12 -12 12 -25t-12 -25l-109 -109z" />
    <glyph glyph-name="Oslash" unicode="&#xd8;" horiz-adv-x="728" 
d="M648 454v-230q0 -115 -54.5 -169.5t-169.5 -54.5h-120q-64 0 -106 16l-16 -26q-13 -21 -31 -21q-10 0 -23 8q-21 13 -21 32q0 11 7 22l17 28q-51 54 -51 165v231q0 115 55 169.5t169 53.5h120q43 0 81 -8l14 23q14 21 31 21q10 0 23 -8q20 -14 20 -30q0 -10 -8 -24
l-9 -14q72 -53 72 -184zM178 136l280 457q-11 1 -34 1h-120q-54 1 -84 -12t-43 -43t-13 -84v-231q0 -59 14 -88zM564 454q0 41 -7.5 68.5t-24.5 42.5l-289 -476q28 -5 61 -5h120q55 0 84.5 13t42.5 42.5t13 84.5v230z" />
    <glyph glyph-name="Ugrave" unicode="&#xd9;" horiz-adv-x="756" 
d="M397 712q-15 0 -26 14l-73 88q-10 11 -10 25q0 15 14 26q11 10 25 10q15 0 26 -14l73 -88q10 -11 10 -25q0 -15 -14 -26q-13 -10 -25 -10zM148.5 54.5q-54.5 54.5 -54.5 169.5v412q0 42 42 42t42 -42v-412q0 -55 13 -84.5t42.5 -42.5t84.5 -13h120q55 0 84.5 13
t42.5 42.5t13 84.5v412q0 42 42 42t42 -42v-412q0 -115 -54.5 -169.5t-169.5 -54.5h-120q-115 0 -169.5 54.5z" />
    <glyph glyph-name="Uacute" unicode="&#xda;" horiz-adv-x="756" 
d="M342 766q0 14 10 25l73 88q11 14 26 14q14 0 25 -10q14 -11 14 -26q0 -14 -10 -25l-73 -88q-11 -14 -26 -14q-12 0 -25 10q-14 11 -14 26zM148.5 54.5q-54.5 54.5 -54.5 169.5v412q0 42 42 42t42 -42v-412q0 -55 13 -84.5t42.5 -42.5t84.5 -13h120q55 0 84.5 13
t42.5 42.5t13 84.5v412q0 42 42 42t42 -42v-412q0 -115 -54.5 -169.5t-169.5 -54.5h-120q-115 0 -169.5 54.5z" />
    <glyph glyph-name="Ucircumflex" unicode="&#xdb;" horiz-adv-x="756" 
d="M230 730q-11 11 -11 27q0 9 5 18.5t13 14.5l92 76q21 18 47 18h3q14 0 25 -4t22 -14l93 -76q8 -5 13 -14.5t5 -18.5q0 -16 -11.5 -27t-26.5 -11q-16 0 -28 12l-93 77h-1l-92 -77q-12 -12 -28 -12t-27 11zM148.5 54.5q-54.5 54.5 -54.5 169.5v412q0 42 42 42t42 -42v-412
q0 -55 13 -84.5t42.5 -42.5t84.5 -13h120q55 0 84.5 13t42.5 42.5t13 84.5v412q0 42 42 42t42 -42v-412q0 -115 -54.5 -169.5t-169.5 -54.5h-120q-115 0 -169.5 54.5z" />
    <glyph glyph-name="Udieresis" unicode="&#xdc;" horiz-adv-x="756" 
d="M148.5 54.5q-54.5 54.5 -54.5 169.5v412q0 42 42 42t42 -42v-412q0 -55 13 -84.5t42.5 -42.5t84.5 -13h120q55 0 84.5 13t42.5 42.5t13 84.5v412q0 42 42 42t42 -42v-412q0 -115 -54.5 -169.5t-169.5 -54.5h-120q-115 0 -169.5 54.5zM254.5 762.5q-10.5 10.5 -10.5 29.5
v25q0 19 10.5 29t29.5 10h24q38 0 38 -39v-25q0 -19 -9.5 -29.5t-28.5 -10.5h-24q-19 0 -29.5 10.5zM421.5 762.5q-10.5 10.5 -10.5 29.5v25q0 19 10.5 29t29.5 10h24q38 0 38 -39v-25q0 -19 -9.5 -29.5t-28.5 -10.5h-24q-19 0 -29.5 10.5z" />
    <glyph glyph-name="Yacute" unicode="&#xdd;" horiz-adv-x="615" 
d="M271 766q0 14 10 25l73 88q11 14 26 14q14 0 25 -10q14 -11 14 -26q0 -14 -10 -25l-73 -88q-11 -14 -26 -14q-12 0 -25 10q-14 11 -14 26zM592 635q0 -12 -9 -24l-238 -365v-204q0 -20 -11 -31t-31 -11t-31 11t-11 31v204l-229 365q-8 14 -8 25q0 21 21 34q14 8 25 8
q19 0 33 -21l200 -321l210 321q12 20 32 20q12 0 25 -9q22 -14 22 -33z" />
    <glyph glyph-name="Thorn" unicode="&#xde;" horiz-adv-x="565" 
d="M472.5 526.5q48.5 -48.5 48.5 -140.5v-30q0 -91 -48.5 -140t-140.5 -49h-144v-125q0 -20 -11 -31t-31 -11t-31 11t-11 31v594q0 20 11 31t31 11t31 -11t11 -31v-61h144q92 0 140.5 -48.5zM437 386q0 57 -24 81t-81 24h-144v-240h144q57 0 81 24t24 81v30z" />
    <glyph glyph-name="germandbls" unicode="&#xdf;" horiz-adv-x="587" 
d="M104 42v477q0 94 45.5 139.5t139.5 45.5q93 0 138.5 -45.5t45.5 -138.5q0 -41 -17 -72.5t-58 -52.5q73 -17 104 -58.5t31 -110.5v-32q0 -100 -47.5 -147t-146.5 -47h-61q-42 0 -42 42t42 42h61q44 0 67.5 9.5t33 33t9.5 67.5v32q0 44 -9.5 67.5t-33 33t-67.5 9.5h-8
q-42 0 -42 43q0 39 41 43q34 6 46.5 28t12.5 70q0 40 -9 61t-30 30t-61 9t-61.5 -9t-30.5 -30.5t-9 -61.5v-477q0 -42 -42 -42t-42 42z" />
    <glyph glyph-name="agrave" unicode="&#xe0;" horiz-adv-x="640" 
d="M330 541q-15 0 -26 14l-73 88q-10 11 -10 25q0 15 14 26q11 10 25 10q15 0 26 -14l73 -88q10 -11 10 -25q0 -15 -14 -26q-13 -10 -25 -10zM498 459q48 -48 48 -148v-269q0 -20 -11 -31t-31 -11t-31 11t-11 31v23q-53 -65 -156 -65h-56q-84 0 -125 41t-41 125t40.5 125
t125.5 41h211q-3 52 -27 71.5t-84 19.5h-58q-50 0 -74.5 -7t-34.5 -24q-9 -21 -19 -29t-28 -8t-29.5 9t-11.5 24q0 6 1 10q15 56 62.5 82.5t133.5 26.5h58q100 0 148 -48zM459 159.5q1 3.5 3 7.5v81h-212q-34 0 -51 -7t-24 -24t-7 -51t7 -51t24 -24t51 -7h56q127 0 151 69
q1 3 2 6.5z" />
    <glyph glyph-name="aacute" unicode="&#xe1;" horiz-adv-x="640" 
d="M275 595q0 14 10 25l73 88q11 14 26 14q14 0 25 -10q14 -11 14 -26q0 -14 -10 -25l-73 -88q-11 -14 -26 -14q-12 0 -25 10q-14 11 -14 26zM498 459q48 -48 48 -148v-269q0 -20 -11 -31t-31 -11t-31 11t-11 31v23q-53 -65 -156 -65h-56q-84 0 -125 41t-41 125t40.5 125
t125.5 41h211q-3 52 -27 71.5t-84 19.5h-58q-50 0 -74.5 -7t-34.5 -24q-9 -21 -19 -29t-28 -8t-29.5 9t-11.5 24q0 6 1 10q15 56 62.5 82.5t133.5 26.5h58q100 0 148 -48zM459 159.5q1 3.5 3 7.5v81h-212q-34 0 -51 -7t-24 -24t-7 -51t7 -51t24 -24t51 -7h56q127 0 151 69
q1 3 2 6.5z" />
    <glyph glyph-name="acircumflex" unicode="&#xe2;" horiz-adv-x="640" 
d="M192.5 570.5q-10.5 10.5 -10.5 24.5t10 24l73 73q18 19 44 19h6q26 0 44 -19l73 -73q10 -10 10 -24t-10.5 -24.5t-24.5 -10.5q-16 0 -25 10l-64 71h-12l-64 -71q-10 -10 -25 -10q-14 0 -24.5 10.5zM498 459q48 -48 48 -148v-269q0 -20 -11 -31t-31 -11t-31 11t-11 31v23
q-53 -65 -156 -65h-56q-84 0 -125 41t-41 125t40.5 125t125.5 41h211q-3 52 -27 71.5t-84 19.5h-58q-50 0 -74.5 -7t-34.5 -24q-9 -21 -19 -29t-28 -8t-29.5 9t-11.5 24q0 6 1 10q15 56 62.5 82.5t133.5 26.5h58q100 0 148 -48zM459 159.5q1 3.5 3 7.5v81h-212q-34 0 -51 -7
t-24 -24t-7 -51t7 -51t24 -24t51 -7h56q127 0 151 69q1 3 2 6.5z" />
    <glyph glyph-name="atilde" unicode="&#xe3;" horiz-adv-x="640" 
d="M336.5 574q-17.5 11 -36.5 30q-13 14 -20.5 18t-16.5 4q-26 0 -39 -31q-11 -26 -30 -26q-7 0 -16 3q-22 8 -22 25q0 9 4 17q17 41 41.5 60t61.5 19q29 0 47.5 -11.5t37.5 -30.5q13 -13 19 -16.5t16 -3.5t16.5 5t12.5 20q11 28 31 28q3 0 13 -2q24 -6 24 -26q0 -6 -3 -15
q-14 -40 -37 -59t-57 -19q-29 0 -46.5 11zM498 459q48 -48 48 -148v-269q0 -20 -11 -31t-31 -11t-31 11t-11 31v23q-53 -65 -156 -65h-56q-84 0 -125 41t-41 125t40.5 125t125.5 41h211q-3 52 -27 71.5t-84 19.5h-58q-50 0 -74.5 -7t-34.5 -24q-9 -21 -19 -29t-28 -8
t-29.5 9t-11.5 24q0 6 1 10q15 56 62.5 82.5t133.5 26.5h58q100 0 148 -48zM459 159.5q1 3.5 3 7.5v81h-212q-34 0 -51 -7t-24 -24t-7 -51t7 -51t24 -24t51 -7h56q127 0 151 69q1 3 2 6.5z" />
    <glyph glyph-name="adieresis" unicode="&#xe4;" horiz-adv-x="640" 
d="M498 459q48 -48 48 -148v-269q0 -20 -11 -31t-31 -11t-31 11t-11 31v23q-53 -65 -156 -65h-56q-84 0 -125 41t-41 125t40.5 125t125.5 41h211q-3 52 -27 71.5t-84 19.5h-58q-50 0 -74.5 -7t-34.5 -24q-9 -21 -19 -29t-28 -8t-29.5 9t-11.5 24q0 6 1 10q15 56 62.5 82.5
t133.5 26.5h58q100 0 148 -48zM459 159.5q1 3.5 3 7.5v81h-212q-34 0 -51 -7t-24 -24t-7 -51t7 -51t24 -24t51 -7h56q127 0 151 69q1 3 2 6.5zM187.5 591.5q-10.5 10.5 -10.5 29.5v25q0 19 10.5 29t29.5 10h24q38 0 38 -39v-25q0 -19 -9.5 -29.5t-28.5 -10.5h-24
q-19 0 -29.5 10.5zM354.5 591.5q-10.5 10.5 -10.5 29.5v25q0 19 10.5 29t29.5 10h24q38 0 38 -39v-25q0 -19 -9.5 -29.5t-28.5 -10.5h-24q-19 0 -29.5 10.5z" />
    <glyph glyph-name="aring" unicode="&#xe5;" horiz-adv-x="640" 
d="M257 578.5q-21 20.5 -21 56.5t21 56.5t56 20.5q36 0 57 -20.5t21 -56.5t-21 -56.5t-57 -20.5q-35 0 -56 20.5zM328.5 616.5q4.5 1.5 4.5 8.5v16q0 10 -1.5 12t-9.5 2h-7q-16 0 -19 -2t-3 -11v-7q0 -14 2 -17t10 -3q19 0 23.5 1.5zM498 459q48 -48 48 -148v-269
q0 -20 -11 -31t-31 -11t-31 11t-11 31v23q-53 -65 -156 -65h-56q-84 0 -125 41t-41 125t40.5 125t125.5 41h211q-3 52 -27 71.5t-84 19.5h-58q-50 0 -74.5 -7t-34.5 -24q-9 -21 -19 -29t-28 -8t-29.5 9t-11.5 24q0 6 1 10q15 56 62.5 82.5t133.5 26.5h58q100 0 148 -48z
M459 159.5q1 3.5 3 7.5v81h-212q-34 0 -51 -7t-24 -24t-7 -51t7 -51t24 -24t51 -7h56q127 0 151 69q1 3 2 6.5z" />
    <glyph glyph-name="ae" unicode="&#xe6;" horiz-adv-x="966" 
d="M476 64q-31 -41 -79 -62.5t-111 -21.5h-36q-84 0 -125 41t-41 125t41 125t125 41h192q-5 50 -29.5 68.5t-82.5 18.5h-38q-47 0 -71.5 -6.5t-34.5 -21t-10 -40.5q0 -17 -12.5 -29.5t-29.5 -12.5t-29.5 12.5t-12.5 29.5q0 78 49 115t151 37h38q105 0 154 -77q48 77 150 76
h60q98 0 145 -52t47 -160q0 -20 -11 -31t-32 -11h-317v-52q0 -45 10 -69.5t32.5 -34.5t64.5 -10h61q43 0 66.5 7t32.5 22.5t9 43.5q0 17 12.5 29.5t29.5 12.5t29.5 -12.5t12.5 -29.5q0 -81 -47.5 -119t-144.5 -38h-61q-108 0 -157 86zM799 312q-6 48 -29.5 67t-75.5 19h-60
q-56 1 -79.5 -17.5t-27.5 -68.5h272zM286 64q81 0 118.5 26.5t37.5 81.5v56h-192q-34 0 -51 -7t-24 -24t-7 -51t7 -51t24 -24t51 -7h36z" />
    <glyph glyph-name="ccedilla" unicode="&#xe7;" horiz-adv-x="591" 
d="M519.5 137q11.5 -9 11.5 -25q0 -6 -1 -10q-21 -90 -140 -101q4 -6 19 -16q22 -15 36.5 -33t14.5 -49q0 -117 -117 -117q-47 0 -72 25t-25 72q0 35 35 35t35 -35q0 -18 4.5 -22.5t22.5 -4.5q29 0 38 8.5t9 38.5q0 7 -3.5 11.5t-16.5 13.5q-19 12 -33.5 28.5t-18.5 43.5
h-42q-100 0 -148 48t-48 148v116q0 100 48 148t148 47h82q148 0 172 -102q1 -4 1 -10q0 -16 -11.5 -25t-30.5 -9q-18 0 -27.5 9t-17.5 29q-7 13 -27 18.5t-59 5.5h-82q-44 1 -68 -9t-34 -34t-10 -68v-116q0 -44 10 -68t34 -34t68 -10h82q39 0 59 5.5t27 18.5q8 21 17.5 29.5
t28.5 8.5q18 0 29.5 -9z" />
    <glyph glyph-name="egrave" unicode="&#xe8;" horiz-adv-x="634" 
d="M337 541q-15 0 -26 14l-73 88q-10 11 -10 25q0 15 14 26q11 10 25 10q15 0 26 -14l73 -88q10 -11 10 -25q0 -15 -14 -26q-13 -10 -25 -10zM164 219v-24q0 -44 10 -67.5t34 -33.5t68 -10h82q51 0 75.5 9.5t32.5 33.5q6 20 16 29.5t29 9.5t29.5 -8.5t10.5 -24.5
q0 -7 -1 -10q-22 -123 -192 -123h-82q-100 0 -148 48t-48 147v116q0 101 48 149t148 47h82q100 0 148 -48t48 -148v-50q0 -20 -11 -31t-31 -11h-348zM164 303h306v8q0 44 -10 68t-34 34t-68 10h-82q-44 1 -68 -9t-34 -34t-10 -69v-8z" />
    <glyph glyph-name="eacute" unicode="&#xe9;" horiz-adv-x="634" 
d="M282 595q0 14 10 25l73 88q11 14 26 14q14 0 25 -10q14 -11 14 -26q0 -14 -10 -25l-73 -88q-11 -14 -26 -14q-12 0 -25 10q-14 11 -14 26zM164 219v-24q0 -44 10 -67.5t34 -33.5t68 -10h82q51 0 75.5 9.5t32.5 33.5q6 20 16 29.5t29 9.5t29.5 -8.5t10.5 -24.5
q0 -7 -1 -10q-22 -123 -192 -123h-82q-100 0 -148 48t-48 147v116q0 101 48 149t148 47h82q100 0 148 -48t48 -148v-50q0 -20 -11 -31t-31 -11h-348zM164 303h306v8q0 44 -10 68t-34 34t-68 10h-82q-44 1 -68 -9t-34 -34t-10 -69v-8z" />
    <glyph glyph-name="ecircumflex" unicode="&#xea;" horiz-adv-x="634" 
d="M199.5 570.5q-10.5 10.5 -10.5 24.5t10 24l73 73q18 19 44 19h6q26 0 44 -19l73 -73q10 -10 10 -24t-10.5 -24.5t-24.5 -10.5q-16 0 -25 10l-64 71h-12l-64 -71q-10 -10 -25 -10q-14 0 -24.5 10.5zM164 219v-24q0 -44 10 -67.5t34 -33.5t68 -10h82q51 0 75.5 9.5
t32.5 33.5q6 20 16 29.5t29 9.5t29.5 -8.5t10.5 -24.5q0 -7 -1 -10q-22 -123 -192 -123h-82q-100 0 -148 48t-48 147v116q0 101 48 149t148 47h82q100 0 148 -48t48 -148v-50q0 -20 -11 -31t-31 -11h-348zM164 303h306v8q0 44 -10 68t-34 34t-68 10h-82q-44 1 -68 -9
t-34 -34t-10 -69v-8z" />
    <glyph glyph-name="edieresis" unicode="&#xeb;" horiz-adv-x="634" 
d="M164 219v-24q0 -44 10 -67.5t34 -33.5t68 -10h82q51 0 75.5 9.5t32.5 33.5q6 20 16 29.5t29 9.5t29.5 -8.5t10.5 -24.5q0 -7 -1 -10q-22 -123 -192 -123h-82q-100 0 -148 48t-48 147v116q0 101 48 149t148 47h82q100 0 148 -48t48 -148v-50q0 -20 -11 -31t-31 -11h-348z
M164 303h306v8q0 44 -10 68t-34 34t-68 10h-82q-44 1 -68 -9t-34 -34t-10 -69v-8zM194.5 591.5q-10.5 10.5 -10.5 29.5v25q0 19 10.5 29t29.5 10h24q38 0 38 -39v-25q0 -19 -9.5 -29.5t-28.5 -10.5h-24q-19 0 -29.5 10.5zM361.5 591.5q-10.5 10.5 -10.5 29.5v25
q0 19 10.5 29t29.5 10h24q38 0 38 -39v-25q0 -19 -9.5 -29.5t-28.5 -10.5h-24q-19 0 -29.5 10.5z" />
    <glyph glyph-name="igrave" unicode="&#xec;" horiz-adv-x="292" 
d="M164 541q-15 0 -26 14l-73 88q-10 11 -10 25q0 15 14 26q11 10 25 10q15 0 26 -14l73 -88q10 -11 10 -25q0 -15 -14 -26q-13 -10 -25 -10zM115 11q-11 11 -11 31v423q0 20 11 31t31 11t31 -11t11 -31v-423q0 -20 -11 -31t-31 -11t-31 11z" />
    <glyph glyph-name="iacute" unicode="&#xed;" horiz-adv-x="292" 
d="M109 595q0 14 10 25l73 88q11 14 26 14q14 0 25 -10q14 -11 14 -26q0 -14 -10 -25l-73 -88q-11 -14 -26 -14q-12 0 -25 10q-14 11 -14 26zM115 11q-11 11 -11 31v423q0 20 11 31t31 11t31 -11t11 -31v-423q0 -20 -11 -31t-31 -11t-31 11z" />
    <glyph glyph-name="icircumflex" unicode="&#xee;" horiz-adv-x="292" 
d="M26.5 570.5q-10.5 10.5 -10.5 24.5t10 24l73 73q18 19 44 19h6q26 0 44 -19l73 -73q10 -10 10 -24t-10.5 -24.5t-24.5 -10.5q-16 0 -25 10l-64 71h-12l-64 -71q-10 -10 -25 -10q-14 0 -24.5 10.5zM115 11q-11 11 -11 31v423q0 20 11 31t31 11t31 -11t11 -31v-423
q0 -20 -11 -31t-31 -11t-31 11z" />
    <glyph glyph-name="idieresis" unicode="&#xef;" horiz-adv-x="292" 
d="M115 11q-11 11 -11 31v423q0 20 11 31t31 11t31 -11t11 -31v-423q0 -20 -11 -31t-31 -11t-31 11zM21.5 591.5q-10.5 10.5 -10.5 29.5v25q0 19 10.5 29t29.5 10h24q38 0 38 -39v-25q0 -19 -9.5 -29.5t-28.5 -10.5h-24q-19 0 -29.5 10.5zM188.5 591.5
q-10.5 10.5 -10.5 29.5v25q0 19 10.5 29t29.5 10h24q38 0 38 -39v-25q0 -19 -9.5 -29.5t-28.5 -10.5h-24q-19 0 -29.5 10.5z" />
    <glyph glyph-name="eth" unicode="&#xf0;" horiz-adv-x="634" 
d="M516.5 578.5q33.5 -78.5 37.5 -239.5v-143q0 -100 -48 -148t-148 -48h-82q-100 0 -148 47.5t-48 147.5v116q0 100 48 147.5t148 48.5h82q60 0 104 -44q-8 69 -25.5 95.5t-48.5 33.5l-73 18l-55 -52q-12 -12 -25 -12q-14 0 -26 13q-12 12 -12 26q0 13 13 25l23 21l-78 20
q-33 9 -33 37q0 5 2 15q9 32 36 32q5 0 15 -2l130 -33l52 49q12 12 25 12q14 0 26 -13q12 -12 12 -25q0 -14 -13 -26l-19 -18l22 -5q73 -17 106.5 -95.5zM470 301q0 49 -8.5 74.5t-32.5 36.5t-71 11h-82q-45 -1 -68.5 -10.5t-33.5 -33t-10 -68.5v-116q0 -44 10 -67.5
t34 -33.5t68 -10h82q44 0 68 10t34 34t10 68v105z" />
    <glyph glyph-name="ntilde" unicode="&#xf1;" horiz-adv-x="662" 
d="M382.5 574q-17.5 11 -36.5 30q-13 14 -20.5 18t-16.5 4q-26 0 -39 -31q-11 -26 -30 -26q-7 0 -16 3q-22 8 -22 25q0 9 4 17q17 41 41.5 60t61.5 19q29 0 47.5 -11.5t37.5 -30.5q13 -13 19 -16.5t16 -3.5t16.5 5t12.5 20q11 28 31 28q3 0 13 -2q24 -6 24 -26q0 -6 -3 -15
q-14 -40 -37 -59t-57 -19q-29 0 -46.5 11zM520 459q48 -48 48 -148v-269q0 -20 -11 -31t-31 -11t-31 11t-11 31v269q0 44 -10 68t-34 34t-68 10h-28q-63 0 -106.5 -14.5t-49.5 -42.5v-324q0 -20 -11 -31t-31 -11t-31 11t-11 31v423q0 42 42 42t42 -42v-17q53 59 156 59h28
q100 0 148 -48z" />
    <glyph glyph-name="ograve" unicode="&#xf2;" horiz-adv-x="634" 
d="M336 541q-15 0 -26 14l-73 88q-10 11 -10 25q0 15 14 26q11 10 25 10q15 0 26 -14l73 -88q10 -11 10 -25q0 -15 -14 -26q-13 -10 -25 -10zM128 48q-48 48 -48 147v116q0 100 48 148t148 48h82q100 0 148 -48t48 -148v-115q0 -100 -48 -148t-148 -48h-82q-100 0 -148 48z
M358 84q44 0 68 10t34 34t10 68v115q0 44 -10 68t-34 34t-68 10h-82q-45 0 -68.5 -10t-33.5 -33.5t-10 -68.5v-116q0 -44 10 -67.5t34 -33.5t68 -10h82z" />
    <glyph glyph-name="oacute" unicode="&#xf3;" horiz-adv-x="634" 
d="M281 595q0 14 10 25l73 88q11 14 26 14q14 0 25 -10q14 -11 14 -26q0 -14 -10 -25l-73 -88q-11 -14 -26 -14q-12 0 -25 10q-14 11 -14 26zM128 48q-48 48 -48 147v116q0 100 48 148t148 48h82q100 0 148 -48t48 -148v-115q0 -100 -48 -148t-148 -48h-82q-100 0 -148 48z
M358 84q44 0 68 10t34 34t10 68v115q0 44 -10 68t-34 34t-68 10h-82q-45 0 -68.5 -10t-33.5 -33.5t-10 -68.5v-116q0 -44 10 -67.5t34 -33.5t68 -10h82z" />
    <glyph glyph-name="ocircumflex" unicode="&#xf4;" horiz-adv-x="634" 
d="M198.5 570.5q-10.5 10.5 -10.5 24.5t10 24l73 73q18 19 44 19h6q26 0 44 -19l73 -73q10 -10 10 -24t-10.5 -24.5t-24.5 -10.5q-16 0 -25 10l-64 71h-12l-64 -71q-10 -10 -25 -10q-14 0 -24.5 10.5zM128 48q-48 48 -48 147v116q0 100 48 148t148 48h82q100 0 148 -48
t48 -148v-115q0 -100 -48 -148t-148 -48h-82q-100 0 -148 48zM358 84q44 0 68 10t34 34t10 68v115q0 44 -10 68t-34 34t-68 10h-82q-45 0 -68.5 -10t-33.5 -33.5t-10 -68.5v-116q0 -44 10 -67.5t34 -33.5t68 -10h82z" />
    <glyph glyph-name="otilde" unicode="&#xf5;" horiz-adv-x="634" 
d="M342.5 574q-17.5 11 -36.5 30q-13 14 -20.5 18t-16.5 4q-26 0 -39 -31q-11 -26 -30 -26q-7 0 -16 3q-22 8 -22 25q0 9 4 17q17 41 41.5 60t61.5 19q29 0 47.5 -11.5t37.5 -30.5q13 -13 19 -16.5t16 -3.5t16.5 5t12.5 20q11 28 31 28q3 0 13 -2q24 -6 24 -26q0 -6 -3 -15
q-14 -40 -37 -59t-57 -19q-29 0 -46.5 11zM128 48q-48 48 -48 147v116q0 100 48 148t148 48h82q100 0 148 -48t48 -148v-115q0 -100 -48 -148t-148 -48h-82q-100 0 -148 48zM358 84q44 0 68 10t34 34t10 68v115q0 44 -10 68t-34 34t-68 10h-82q-45 0 -68.5 -10t-33.5 -33.5
t-10 -68.5v-116q0 -44 10 -67.5t34 -33.5t68 -10h82z" />
    <glyph glyph-name="odieresis" unicode="&#xf6;" horiz-adv-x="634" 
d="M128 48q-48 48 -48 147v116q0 100 48 148t148 48h82q100 0 148 -48t48 -148v-115q0 -100 -48 -148t-148 -48h-82q-100 0 -148 48zM358 84q44 0 68 10t34 34t10 68v115q0 44 -10 68t-34 34t-68 10h-82q-45 0 -68.5 -10t-33.5 -33.5t-10 -68.5v-116q0 -44 10 -67.5
t34 -33.5t68 -10h82zM193.5 591.5q-10.5 10.5 -10.5 29.5v25q0 19 10.5 29t29.5 10h24q38 0 38 -39v-25q0 -19 -9.5 -29.5t-28.5 -10.5h-24q-19 0 -29.5 10.5zM360.5 591.5q-10.5 10.5 -10.5 29.5v25q0 19 10.5 29t29.5 10h24q38 0 38 -39v-25q0 -19 -9.5 -29.5t-28.5 -10.5
h-24q-19 0 -29.5 10.5z" />
    <glyph glyph-name="divide" unicode="&#xf7;" horiz-adv-x="609" 
d="M93.5 339.5q-9.5 9.5 -9.5 25.5q0 17 9.5 26t25.5 9h371q17 0 26 -9t9 -26t-9 -26t-26 -9h-371q-16 0 -25.5 9.5zM262.5 159.5q-10.5 10.5 -10.5 29.5v25q0 19 10.5 29t29.5 10h24q38 0 38 -39v-25q0 -19 -9.5 -29.5t-28.5 -10.5h-24q-19 0 -29.5 10.5zM262.5 489.5
q-10.5 10.5 -10.5 29.5v25q0 19 10.5 29t29.5 10h24q38 0 38 -39v-25q0 -19 -9.5 -29.5t-28.5 -10.5h-24q-19 0 -29.5 10.5z" />
    <glyph glyph-name="oslash" unicode="&#xf8;" horiz-adv-x="634" 
d="M554 311v-115q0 -100 -48 -148t-148 -48h-82q-38 0 -72 8l-35 -57q-12 -20 -29 -20q-10 0 -23 8q-18 13 -18 28q0 10 7 21l32 51q-58 48 -58 156v116q0 100 48 148t148 48h82q37 0 71 -8l20 32q13 19 29 19q10 0 23 -8q16 -12 16 -28q0 -10 -7 -21l-15 -24
q59 -47 59 -158zM164 195q0 -33 5.5 -54t17.5 -33l198 314q-8 1 -27 1h-82q-45 0 -68.5 -10t-33.5 -33.5t-10 -68.5v-116zM470 311q0 33 -5.5 54.5t-17.5 33.5l-197 -314q8 -1 26 -1h82q44 0 68 10t34 34t10 68v115z" />
    <glyph glyph-name="ugrave" unicode="&#xf9;" horiz-adv-x="662" 
d="M347 541q-15 0 -26 14l-73 88q-10 11 -10 25q0 15 14 26q11 10 25 10q15 0 26 -14l73 -88q10 -11 10 -25q0 -15 -14 -26q-13 -10 -25 -10zM547 496q11 -11 11 -31v-423q0 -42 -42 -42t-42 42v17q-53 -59 -156 -59h-28q-100 0 -148 48t-48 148v269q0 20 11 31t31 11
t31 -11t11 -31v-269q0 -44 10 -68t34 -34t68 -10h28q63 0 106.5 14.5t49.5 42.5v324q0 20 11 31t31 11t31 -11z" />
    <glyph glyph-name="uacute" unicode="&#xfa;" horiz-adv-x="662" 
d="M292 595q0 14 10 25l73 88q11 14 26 14q14 0 25 -10q14 -11 14 -26q0 -14 -10 -25l-73 -88q-11 -14 -26 -14q-12 0 -25 10q-14 11 -14 26zM547 496q11 -11 11 -31v-423q0 -42 -42 -42t-42 42v17q-53 -59 -156 -59h-28q-100 0 -148 48t-48 148v269q0 20 11 31t31 11
t31 -11t11 -31v-269q0 -44 10 -68t34 -34t68 -10h28q63 0 106.5 14.5t49.5 42.5v324q0 20 11 31t31 11t31 -11z" />
    <glyph glyph-name="ucircumflex" unicode="&#xfb;" horiz-adv-x="662" 
d="M209.5 570.5q-10.5 10.5 -10.5 24.5t10 24l73 73q18 19 44 19h6q26 0 44 -19l73 -73q10 -10 10 -24t-10.5 -24.5t-24.5 -10.5q-16 0 -25 10l-64 71h-12l-64 -71q-10 -10 -25 -10q-14 0 -24.5 10.5zM547 496q11 -11 11 -31v-423q0 -42 -42 -42t-42 42v17q-53 -59 -156 -59
h-28q-100 0 -148 48t-48 148v269q0 20 11 31t31 11t31 -11t11 -31v-269q0 -44 10 -68t34 -34t68 -10h28q63 0 106.5 14.5t49.5 42.5v324q0 20 11 31t31 11t31 -11z" />
    <glyph glyph-name="udieresis" unicode="&#xfc;" horiz-adv-x="662" 
d="M547 496q11 -11 11 -31v-423q0 -42 -42 -42t-42 42v17q-53 -59 -156 -59h-28q-100 0 -148 48t-48 148v269q0 20 11 31t31 11t31 -11t11 -31v-269q0 -44 10 -68t34 -34t68 -10h28q63 0 106.5 14.5t49.5 42.5v324q0 20 11 31t31 11t31 -11zM204.5 591.5
q-10.5 10.5 -10.5 29.5v25q0 19 10.5 29t29.5 10h24q38 0 38 -39v-25q0 -19 -9.5 -29.5t-28.5 -10.5h-24q-19 0 -29.5 10.5zM371.5 591.5q-10.5 10.5 -10.5 29.5v25q0 19 10.5 29t29.5 10h24q38 0 38 -39v-25q0 -19 -9.5 -29.5t-28.5 -10.5h-24q-19 0 -29.5 10.5z" />
    <glyph glyph-name="yacute" unicode="&#xfd;" horiz-adv-x="680" 
d="M299 595q0 14 10 25l73 88q11 14 26 14q14 0 25 -10q14 -11 14 -26q0 -14 -10 -25l-73 -88q-11 -14 -26 -14q-12 0 -25 10q-14 11 -14 26zM94 -55q0 42 42 42t42 -42q0 -38 11.5 -49.5t48.5 -11.5h194q37 0 48.5 12t11.5 49v127q-28 -42 -65.5 -57t-90.5 -15h-49
q-99 0 -146 47t-47 145v273q0 42 42 42t42 -42v-273q0 -43 9.5 -66t33 -32.5t66.5 -9.5h49q81 0 118.5 26.5t37.5 81.5v273q0 42 42 42t42 -42v-520q0 -145 -144 -145h-194q-144 0 -144 145z" />
    <glyph glyph-name="thorn" unicode="&#xfe;" horiz-adv-x="658" 
d="M113.5 -190.5q-9.5 9.5 -9.5 32.5v802q0 23 9.5 32.5t32.5 9.5t32.5 -9.5t9.5 -32.5v-208q60 68 156 68h38q100 0 148 -48t48 -148v-111q0 -100 -48 -148t-148 -48h-194v-159q0 -23 -9.5 -32.5t-32.5 -9.5t-32.5 9.5zM382 85q44 0 68 10t34 34t10 68v111q0 44 -10 68
t-34 34t-68 10h-38q-81 0 -118.5 -26.5t-37.5 -81.5v-227h194z" />
    <glyph glyph-name="ydieresis" unicode="&#xff;" horiz-adv-x="680" 
d="M94 -55q0 42 42 42t42 -42q0 -38 11.5 -49.5t48.5 -11.5h194q37 0 48.5 12t11.5 49v127q-28 -42 -65.5 -57t-90.5 -15h-49q-99 0 -146 47t-47 145v273q0 42 42 42t42 -42v-273q0 -43 9.5 -66t33 -32.5t66.5 -9.5h49q81 0 118.5 26.5t37.5 81.5v273q0 42 42 42t42 -42
v-520q0 -145 -144 -145h-194q-144 0 -144 145zM211.5 591.5q-10.5 10.5 -10.5 29.5v25q0 19 10.5 29t29.5 10h24q38 0 38 -39v-25q0 -19 -9.5 -29.5t-28.5 -10.5h-24q-19 0 -29.5 10.5zM378.5 591.5q-10.5 10.5 -10.5 29.5v25q0 19 10.5 29t29.5 10h24q38 0 38 -39v-25
q0 -19 -9.5 -29.5t-28.5 -10.5h-24q-19 0 -29.5 10.5z" />
    <glyph glyph-name="Amacron" unicode="&#x100;" horiz-adv-x="666" 
d="M160 804q0 42 42 42h253q42 0 42 -42t-42 -42h-253q-42 0 -42 42zM625 39q0 -24 -27 -35q-9 -4 -20 -4q-24 0 -35 27l-54 131h-311l-52 -131q-11 -27 -35 -27q-10 0 -19 4q-28 10 -28 35q0 11 4 20l238 586q15 33 47 33h2q33 -2 44 -33l242 -586q4 -9 4 -20zM211 242h244
l-125 303z" />
    <glyph glyph-name="amacron" unicode="&#x101;" horiz-adv-x="640" 
d="M137 633q0 42 42 42h253q42 0 42 -42t-42 -42h-253q-42 0 -42 42zM498 459q48 -48 48 -148v-269q0 -20 -11 -31t-31 -11t-31 11t-11 31v23q-53 -65 -156 -65h-56q-84 0 -125 41t-41 125t40.5 125t125.5 41h211q-3 52 -27 71.5t-84 19.5h-58q-50 0 -74.5 -7t-34.5 -24
q-9 -21 -19 -29t-28 -8t-29.5 9t-11.5 24q0 6 1 10q15 56 62.5 82.5t133.5 26.5h58q100 0 148 -48zM459 159.5q1 3.5 3 7.5v81h-212q-34 0 -51 -7t-24 -24t-7 -51t7 -51t24 -24t51 -7h56q127 0 151 69q1 3 2 6.5z" />
    <glyph glyph-name="Abreve" unicode="&#x102;" horiz-adv-x="666" 
d="M247.5 750q-35.5 25 -35.5 71v21q0 18 9.5 27.5t26.5 9.5q37 0 37 -37v-21q0 -16 14.5 -22t56.5 -6q33 0 45.5 6.5t12.5 21.5v33q0 12 9.5 18.5t26.5 6.5q37 0 37 -37v-21q0 -46 -36 -71t-102 -25t-101.5 25zM625 39q0 -24 -27 -35q-9 -4 -20 -4q-24 0 -35 27l-54 131
h-311l-52 -131q-11 -27 -35 -27q-10 0 -19 4q-28 10 -28 35q0 11 4 20l238 586q15 33 47 33h2q33 -2 44 -33l242 -586q4 -9 4 -20zM211 242h244l-125 303z" />
    <glyph glyph-name="abreve" unicode="&#x103;" horiz-adv-x="640" 
d="M224.5 579q-35.5 25 -35.5 71v21q0 18 9.5 27.5t26.5 9.5q37 0 37 -37v-21q0 -16 14.5 -22t56.5 -6q33 0 45.5 6.5t12.5 21.5v33q0 12 9.5 18.5t26.5 6.5q37 0 37 -37v-21q0 -46 -36 -71t-102 -25t-101.5 25zM498 459q48 -48 48 -148v-269q0 -20 -11 -31t-31 -11t-31 11
t-11 31v23q-53 -65 -156 -65h-56q-84 0 -125 41t-41 125t40.5 125t125.5 41h211q-3 52 -27 71.5t-84 19.5h-58q-50 0 -74.5 -7t-34.5 -24q-9 -21 -19 -29t-28 -8t-29.5 9t-11.5 24q0 6 1 10q15 56 62.5 82.5t133.5 26.5h58q100 0 148 -48zM459 159.5q1 3.5 3 7.5v81h-212
q-34 0 -51 -7t-24 -24t-7 -51t7 -51t24 -24t51 -7h56q127 0 151 69q1 3 2 6.5z" />
    <glyph glyph-name="Aogonek" unicode="&#x104;" horiz-adv-x="666" 
d="M686.5 -98.5q10.5 -10.5 10.5 -25.5q0 -16 -10 -26q-22 -21 -48 -33t-53 -12q-44 0 -73.5 27.5t-29.5 67.5q0 34 25 67l37 54q0 2 -2 6l-54 131h-311l-52 -131q-11 -27 -35 -27q-10 0 -19 4q-28 10 -28 35q0 11 4 20l238 586q15 33 47 33h2q33 -2 44 -33l242 -586
q6 -13 4 -24q2 -8 2 -13q0 -14 -7 -21l-53 -77q-11 -12 -11 -24q0 -10 8.5 -16t21.5 -6q26 0 48 24q14 10 26 10q16 0 26.5 -10.5zM211 242h244l-125 303z" />
    <glyph glyph-name="aogonek" unicode="&#x105;" horiz-adv-x="640" 
d="M600.5 -91.5q10.5 -10.5 10.5 -25.5q0 -16 -10 -26q-22 -21 -48 -33t-53 -12q-44 0 -73.5 27.5t-29.5 67.5q0 34 25 67l41 59q-1 3 -1 9v23q-53 -65 -156 -65h-56q-84 0 -125 41t-41 125t40.5 125t125.5 41h211q-3 52 -27 71.5t-84 19.5h-58q-50 0 -74.5 -7t-34.5 -24
q-9 -21 -19 -29t-28 -8t-29.5 9t-11.5 24q0 6 1 10q15 56 62.5 82.5t133.5 26.5h58q100 0 148 -48t48 -148v-269q0 -17 -8 -28q-2 -4 -4 -6l-53 -77q-11 -12 -11 -24q0 -10 8.5 -16t21.5 -6q26 0 48 24q14 10 26 10q16 0 26.5 -10.5zM459 159.5q1 3.5 3 7.5v81h-212
q-34 0 -51 -7t-24 -24t-7 -51t7 -51t24 -24t51 -7h56q127 0 151 69q1 3 2 6.5z" />
    <glyph glyph-name="Cacute" unicode="&#x106;" horiz-adv-x="696" 
d="M336 766q0 14 10 25l73 88q11 14 26 14q14 0 25 -10q14 -11 14 -26q0 -14 -10 -25l-73 -88q-11 -14 -26 -14q-12 0 -25 10q-14 11 -14 26zM134.5 54.5q-54.5 54.5 -54.5 169.5v230q0 115 54.5 170t168.5 54h121q94 0 143.5 -39t57.5 -122q3 -21 -8 -32t-32 -11
q-20 0 -30.5 10.5t-13.5 31.5q-5 45 -31 61.5t-86 16.5h-121q-54 1 -84 -12t-42.5 -43t-12.5 -85v-230q0 -55 13 -84.5t42.5 -42.5t84.5 -13h120q60 0 86 16.5t31 61.5q3 21 13.5 31.5t30.5 10.5q21 0 32 -11t8 -32q-8 -83 -57.5 -122t-143.5 -39h-120q-115 0 -169.5 54.5z
" />
    <glyph glyph-name="cacute" unicode="&#x107;" horiz-adv-x="591" 
d="M280 595q0 14 10 25l73 88q11 14 26 14q14 0 25 -10q14 -11 14 -26q0 -14 -10 -25l-73 -88q-11 -14 -26 -14q-12 0 -25 10q-14 11 -14 26zM128 48q-48 48 -48 148v116q0 100 48 148t148 47h82q148 0 172 -102q1 -4 1 -10q0 -16 -11.5 -25t-30.5 -9q-18 0 -27.5 9
t-17.5 29q-7 13 -27 18.5t-59 5.5h-82q-44 1 -68 -9t-34 -34t-10 -68v-116q0 -44 10 -68t34 -34t68 -10h82q39 0 59 5.5t27 18.5q8 21 17.5 29.5t28.5 8.5q18 0 29.5 -9t11.5 -25q0 -6 -1 -10q-24 -102 -172 -102h-82q-100 0 -148 48z" />
    <glyph glyph-name="Ccircumflex" unicode="&#x108;" horiz-adv-x="696" 
d="M253.5 741.5q-10.5 10.5 -10.5 24.5t10 24l73 73q18 19 44 19h6q26 0 44 -19l73 -73q10 -10 10 -24t-10.5 -24.5t-24.5 -10.5q-16 0 -25 10l-64 71h-12l-64 -71q-10 -10 -25 -10q-14 0 -24.5 10.5zM134.5 54.5q-54.5 54.5 -54.5 169.5v230q0 115 54.5 170t168.5 54h121
q94 0 143.5 -39t57.5 -122q3 -21 -8 -32t-32 -11q-20 0 -30.5 10.5t-13.5 31.5q-5 45 -31 61.5t-86 16.5h-121q-54 1 -84 -12t-42.5 -43t-12.5 -85v-230q0 -55 13 -84.5t42.5 -42.5t84.5 -13h120q60 0 86 16.5t31 61.5q3 21 13.5 31.5t30.5 10.5q21 0 32 -11t8 -32
q-8 -83 -57.5 -122t-143.5 -39h-120q-115 0 -169.5 54.5z" />
    <glyph glyph-name="ccircumflex" unicode="&#x109;" horiz-adv-x="591" 
d="M197.5 570.5q-10.5 10.5 -10.5 24.5t10 24l73 73q18 19 44 19h6q26 0 44 -19l73 -73q10 -10 10 -24t-10.5 -24.5t-24.5 -10.5q-16 0 -25 10l-64 71h-12l-64 -71q-10 -10 -25 -10q-14 0 -24.5 10.5zM128 48q-48 48 -48 148v116q0 100 48 148t148 47h82q148 0 172 -102
q1 -4 1 -10q0 -16 -11.5 -25t-30.5 -9q-18 0 -27.5 9t-17.5 29q-7 13 -27 18.5t-59 5.5h-82q-44 1 -68 -9t-34 -34t-10 -68v-116q0 -44 10 -68t34 -34t68 -10h82q39 0 59 5.5t27 18.5q8 21 17.5 29.5t28.5 8.5q18 0 29.5 -9t11.5 -25q0 -6 -1 -10q-24 -102 -172 -102h-82
q-100 0 -148 48z" />
    <glyph glyph-name="Cdotaccent" unicode="&#x10a;" horiz-adv-x="696" 
d="M323.5 773q-12.5 13 -12.5 35v30q0 23 12.5 34.5t35.5 11.5h29q45 0 45 -46v-30q0 -23 -11.5 -35.5t-33.5 -12.5h-29q-23 0 -35.5 13zM134.5 54.5q-54.5 54.5 -54.5 169.5v230q0 115 54.5 170t168.5 54h121q94 0 143.5 -39t57.5 -122q3 -21 -8 -32t-32 -11
q-20 0 -30.5 10.5t-13.5 31.5q-5 45 -31 61.5t-86 16.5h-121q-54 1 -84 -12t-42.5 -43t-12.5 -85v-230q0 -55 13 -84.5t42.5 -42.5t84.5 -13h120q60 0 86 16.5t31 61.5q3 21 13.5 31.5t30.5 10.5q21 0 32 -11t8 -32q-8 -83 -57.5 -122t-143.5 -39h-120q-115 0 -169.5 54.5z
" />
    <glyph glyph-name="cdotaccent" unicode="&#x10b;" horiz-adv-x="591" 
d="M267.5 602q-12.5 13 -12.5 35v30q0 23 12.5 34.5t35.5 11.5h29q45 0 45 -46v-30q0 -23 -11.5 -35.5t-33.5 -12.5h-29q-23 0 -35.5 13zM128 48q-48 48 -48 148v116q0 100 48 148t148 47h82q148 0 172 -102q1 -4 1 -10q0 -16 -11.5 -25t-30.5 -9q-18 0 -27.5 9t-17.5 29
q-7 13 -27 18.5t-59 5.5h-82q-44 1 -68 -9t-34 -34t-10 -68v-116q0 -44 10 -68t34 -34t68 -10h82q39 0 59 5.5t27 18.5q8 21 17.5 29.5t28.5 8.5q18 0 29.5 -9t11.5 -25q0 -6 -1 -10q-24 -102 -172 -102h-82q-100 0 -148 48z" />
    <glyph glyph-name="Ccaron" unicode="&#x10c;" horiz-adv-x="696" 
d="M269 867l92 -77h1l93 77q12 12 28 12q15 0 26.5 -11t11.5 -27q0 -9 -5 -18.5t-13 -14.5l-93 -76q-11 -10 -22 -14t-25 -4h-3q-26 0 -47 18l-92 76q-8 5 -13 14.5t-5 18.5q0 16 11 27t27 11t28 -12zM134.5 54.5q-54.5 54.5 -54.5 169.5v230q0 115 54.5 170t168.5 54h121
q94 0 143.5 -39t57.5 -122q3 -21 -8 -32t-32 -11q-20 0 -30.5 10.5t-13.5 31.5q-5 45 -31 61.5t-86 16.5h-121q-54 1 -84 -12t-42.5 -43t-12.5 -85v-230q0 -55 13 -84.5t42.5 -42.5t84.5 -13h120q60 0 86 16.5t31 61.5q3 21 13.5 31.5t30.5 10.5q21 0 32 -11t8 -32
q-8 -83 -57.5 -122t-143.5 -39h-120q-115 0 -169.5 54.5z" />
    <glyph glyph-name="ccaron" unicode="&#x10d;" horiz-adv-x="591" 
d="M245 701l64 -71h12l64 71q9 10 25 10q14 0 24.5 -10.5t10.5 -24.5t-10 -24l-73 -73q-18 -19 -44 -19h-6q-26 0 -44 19l-73 73q-10 10 -10 24t10.5 24.5t24.5 10.5q15 0 25 -10zM128 48q-48 48 -48 148v116q0 100 48 148t148 47h82q148 0 172 -102q1 -4 1 -10
q0 -16 -11.5 -25t-30.5 -9q-18 0 -27.5 9t-17.5 29q-7 13 -27 18.5t-59 5.5h-82q-44 1 -68 -9t-34 -34t-10 -68v-116q0 -44 10 -68t34 -34t68 -10h82q39 0 59 5.5t27 18.5q8 21 17.5 29.5t28.5 8.5q18 0 29.5 -9t11.5 -25q0 -6 -1 -10q-24 -102 -172 -102h-82
q-100 0 -148 48z" />
    <glyph glyph-name="Dcaron" unicode="&#x10e;" horiz-adv-x="721" 
d="M250 867l92 -77h1l93 77q12 12 28 12q15 0 26.5 -11t11.5 -27q0 -9 -5 -18.5t-13 -14.5l-93 -76q-11 -10 -22 -14t-25 -4h-3q-26 0 -47 18l-92 76q-8 5 -13 14.5t-5 18.5q0 16 11 27t27 11t28 -12zM115 11q-11 11 -11 31v594q0 20 11 31t31 11h241q131 0 192.5 -61.5
t61.5 -192.5v-170q0 -131 -61.5 -192.5t-192.5 -61.5h-241q-20 0 -31 11zM387 84q65 0 101.5 16t52.5 52.5t16 101.5v170q0 65 -16 101.5t-52.5 52.5t-101.5 16h-199v-510h199z" />
    <glyph glyph-name="dcaron" unicode="&#x10f;" horiz-adv-x="694" 
d="M746 666q0 -6 -2 -14l1 -1l-46 -94q-10 -17 -27 -17q-13 0 -21 6.5t-6 20.5l21 116v1q0 29 31 29h19q30 0 30 -29v-18zM543 693q11 -11 11 -31v-620q0 -20 -11 -31t-31 -11t-31 11t-11 31v7q-25 -25 -62.5 -37t-93.5 -12h-38q-100 0 -148 48t-48 148v115q0 100 48 148
t148 48h194v155q0 20 11 31t31 11t31 -11zM426.5 101.5q43.5 17.5 43.5 51.5v270h-194q-44 0 -68 -10t-34 -34t-10 -68v-115q0 -44 10 -68t34 -34t68 -10h38q69 0 112.5 17.5z" />
    <glyph glyph-name="Dcroat" unicode="&#x110;" horiz-adv-x="721" 
d="M579.5 616.5q61.5 -61.5 61.5 -192.5v-170q0 -131 -61.5 -192.5t-192.5 -61.5h-241q-20 0 -31 11t-11 31v261h-42q-16 0 -25.5 9.5t-9.5 25.5q0 17 9.5 26t25.5 9h42v263q0 20 11 31t31 11h241q131 0 192.5 -61.5zM557 424q0 65 -16 101.5t-52.5 52.5t-101.5 16h-199
v-221h136q17 0 26 -9t9 -26t-9 -26t-26 -9h-136v-219h199q65 0 101.5 16t52.5 52.5t16 101.5v170z" />
    <glyph glyph-name="dcroat" unicode="&#x111;" horiz-adv-x="648" 
d="M626 621q9 -9 9 -26t-9 -26t-26 -9h-46v-518q0 -20 -11 -31t-31 -11t-31 11t-11 31v7q-25 -25 -62.5 -37t-93.5 -12h-38q-100 0 -148 48t-48 148v115q0 100 48 148t148 48h194v53h-132q-16 0 -25.5 9.5t-9.5 25.5q0 17 9.5 26t25.5 9h132v32q0 20 11 31t31 11t31 -11
t11 -31v-32h46q17 0 26 -9zM426.5 101.5q43.5 17.5 43.5 51.5v270h-194q-44 0 -68 -10t-34 -34t-10 -68v-115q0 -44 10 -68t34 -34t68 -10h38q69 0 112.5 17.5z" />
    <glyph glyph-name="Emacron" unicode="&#x112;" horiz-adv-x="603" 
d="M166 804q0 42 42 42h253q42 0 42 -42t-42 -42h-253q-42 0 -42 42zM536 73q11 -11 11 -31t-11 -31t-31 -11h-359q-20 0 -31 11t-11 31v594q0 20 11 31t31 11h359q20 0 31 -11t11 -31t-11 -31t-31 -11h-317v-210h199q20 0 31 -11t11 -31t-11 -31t-31 -11h-199v-216h317
q20 0 31 -11z" />
    <glyph glyph-name="emacron" unicode="&#x113;" horiz-adv-x="634" 
d="M144 633q0 42 42 42h253q42 0 42 -42t-42 -42h-253q-42 0 -42 42zM164 219v-24q0 -44 10 -67.5t34 -33.5t68 -10h82q51 0 75.5 9.5t32.5 33.5q6 20 16 29.5t29 9.5t29.5 -8.5t10.5 -24.5q0 -7 -1 -10q-22 -123 -192 -123h-82q-100 0 -148 48t-48 147v116q0 101 48 149
t148 47h82q100 0 148 -48t48 -148v-50q0 -20 -11 -31t-31 -11h-348zM164 303h306v8q0 44 -10 68t-34 34t-68 10h-82q-44 1 -68 -9t-34 -34t-10 -69v-8z" />
    <glyph glyph-name="Ebreve" unicode="&#x114;" horiz-adv-x="603" 
d="M253.5 750q-35.5 25 -35.5 71v21q0 18 9.5 27.5t26.5 9.5q37 0 37 -37v-21q0 -16 14.5 -22t56.5 -6q33 0 45.5 6.5t12.5 21.5v33q0 12 9.5 18.5t26.5 6.5q37 0 37 -37v-21q0 -46 -36 -71t-102 -25t-101.5 25zM536 73q11 -11 11 -31t-11 -31t-31 -11h-359q-20 0 -31 11
t-11 31v594q0 20 11 31t31 11h359q20 0 31 -11t11 -31t-11 -31t-31 -11h-317v-210h199q20 0 31 -11t11 -31t-11 -31t-31 -11h-199v-216h317q20 0 31 -11z" />
    <glyph glyph-name="ebreve" unicode="&#x115;" horiz-adv-x="634" 
d="M231.5 579q-35.5 25 -35.5 71v21q0 18 9.5 27.5t26.5 9.5q37 0 37 -37v-21q0 -16 14.5 -22t56.5 -6q33 0 45.5 6.5t12.5 21.5v33q0 12 9.5 18.5t26.5 6.5q37 0 37 -37v-21q0 -46 -36 -71t-102 -25t-101.5 25zM164 219v-24q0 -44 10 -67.5t34 -33.5t68 -10h82
q51 0 75.5 9.5t32.5 33.5q6 20 16 29.5t29 9.5t29.5 -8.5t10.5 -24.5q0 -7 -1 -10q-22 -123 -192 -123h-82q-100 0 -148 48t-48 147v116q0 101 48 149t148 47h82q100 0 148 -48t48 -148v-50q0 -20 -11 -31t-31 -11h-348zM164 303h306v8q0 44 -10 68t-34 34t-68 10h-82
q-44 1 -68 -9t-34 -34t-10 -69v-8z" />
    <glyph glyph-name="Edotaccent" unicode="&#x116;" horiz-adv-x="603" 
d="M291.5 773q-12.5 13 -12.5 35v30q0 23 12.5 34.5t35.5 11.5h29q45 0 45 -46v-30q0 -23 -11.5 -35.5t-33.5 -12.5h-29q-23 0 -35.5 13zM536 73q11 -11 11 -31t-11 -31t-31 -11h-359q-20 0 -31 11t-11 31v594q0 20 11 31t31 11h359q20 0 31 -11t11 -31t-11 -31t-31 -11
h-317v-210h199q20 0 31 -11t11 -31t-11 -31t-31 -11h-199v-216h317q20 0 31 -11z" />
    <glyph glyph-name="edotaccent" unicode="&#x117;" horiz-adv-x="634" 
d="M269.5 602q-12.5 13 -12.5 35v30q0 23 12.5 34.5t35.5 11.5h29q45 0 45 -46v-30q0 -23 -11.5 -35.5t-33.5 -12.5h-29q-23 0 -35.5 13zM164 219v-24q0 -44 10 -67.5t34 -33.5t68 -10h82q51 0 75.5 9.5t32.5 33.5q6 20 16 29.5t29 9.5t29.5 -8.5t10.5 -24.5q0 -7 -1 -10
q-22 -123 -192 -123h-82q-100 0 -148 48t-48 147v116q0 101 48 149t148 47h82q100 0 148 -48t48 -148v-50q0 -20 -11 -31t-31 -11h-348zM164 303h306v8q0 44 -10 68t-34 34t-68 10h-82q-44 1 -68 -9t-34 -34t-10 -69v-8z" />
    <glyph glyph-name="Eogonek" unicode="&#x118;" horiz-adv-x="603" 
d="M630.5 -57.5q10.5 -10.5 10.5 -25.5q0 -16 -10 -26q-22 -21 -48 -33t-53 -12q-44 0 -73.5 27.5t-29.5 67.5q0 29 19 59h-300q-20 0 -31 11t-11 31v594q0 20 11 31t31 11h359q20 0 31 -11t11 -31t-11 -31t-31 -11h-317v-210h199q20 0 31 -11t11 -31t-11 -31t-31 -11h-199
v-216h316l1 1q12 15 30 15q15 0 25.5 -10.5t10.5 -26.5q0 -14 -7 -21l-53 -77q-11 -12 -11 -24q0 -10 8.5 -16t21.5 -6q26 0 48 24q14 10 26 10q16 0 26.5 -10.5z" />
    <glyph glyph-name="eogonek" unicode="&#x119;" horiz-adv-x="634" 
d="M164 219v-24q0 -44 10 -67.5t34 -33.5t68 -10h82q51 0 75.5 9.5t32.5 33.5q6 20 16 29.5t29 9.5t29.5 -8.5t10.5 -24.5q0 -7 -1 -10q-4 -23 -15 -45q-1 -4 -8 -13q-4 -6 -7 -9l-70 -93q-11 -13 -11 -25q0 -9 8.5 -15t21.5 -6q7 0 16 2.5t13 1.5q10 2 13 2q20 0 29 -11
t9 -28q0 -15 -17 -25q-32 -15 -63 -15q-44 0 -73.5 27t-29.5 67q0 31 21 63q-9 -1 -29 -1h-82q-100 0 -148 48t-48 147v116q0 101 48 149t148 47h82q100 0 148 -48t48 -148v-50q0 -20 -11 -31t-31 -11h-348zM164 303h306v8q0 44 -10 68t-34 34t-68 10h-82q-44 1 -68 -9
t-34 -34t-10 -69v-8z" />
    <glyph glyph-name="Ecaron" unicode="&#x11a;" horiz-adv-x="603" 
d="M237 867l92 -77h1l93 77q12 12 28 12q15 0 26.5 -11t11.5 -27q0 -9 -5 -18.5t-13 -14.5l-93 -76q-11 -10 -22 -14t-25 -4h-3q-26 0 -47 18l-92 76q-8 5 -13 14.5t-5 18.5q0 16 11 27t27 11t28 -12zM536 73q11 -11 11 -31t-11 -31t-31 -11h-359q-20 0 -31 11t-11 31v594
q0 20 11 31t31 11h359q20 0 31 -11t11 -31t-11 -31t-31 -11h-317v-210h199q20 0 31 -11t11 -31t-11 -31t-31 -11h-199v-216h317q20 0 31 -11z" />
    <glyph glyph-name="ecaron" unicode="&#x11b;" horiz-adv-x="634" 
d="M247 701l64 -71h12l64 71q9 10 25 10q14 0 24.5 -10.5t10.5 -24.5t-10 -24l-73 -73q-18 -19 -44 -19h-6q-26 0 -44 19l-73 73q-10 10 -10 24t10.5 24.5t24.5 10.5q15 0 25 -10zM164 219v-24q0 -44 10 -67.5t34 -33.5t68 -10h82q51 0 75.5 9.5t32.5 33.5q6 20 16 29.5
t29 9.5t29.5 -8.5t10.5 -24.5q0 -7 -1 -10q-22 -123 -192 -123h-82q-100 0 -148 48t-48 147v116q0 101 48 149t148 47h82q100 0 148 -48t48 -148v-50q0 -20 -11 -31t-31 -11h-348zM164 303h306v8q0 44 -10 68t-34 34t-68 10h-82q-44 1 -68 -9t-34 -34t-10 -69v-8z" />
    <glyph glyph-name="Gcircumflex" unicode="&#x11c;" horiz-adv-x="698" 
d="M246.5 741.5q-10.5 10.5 -10.5 24.5t10 24l73 73q18 19 44 19h6q26 0 44 -19l73 -73q10 -10 10 -24t-10.5 -24.5t-24.5 -10.5q-16 0 -25 10l-64 71h-12l-64 -71q-10 -10 -25 -10q-14 0 -24.5 10.5zM134.5 54.5q-54.5 54.5 -54.5 169.5v230q0 115 54.5 170t168.5 54h121
q94 0 143.5 -39t57.5 -122q3 -21 -8 -32t-32 -11q-20 0 -30.5 10.5t-13.5 31.5q-5 45 -31 61.5t-86 16.5h-121q-54 1 -84 -12t-42.5 -43t-12.5 -85v-230q0 -55 13 -84.5t42.5 -42.5t84.5 -13h120q48 0 73.5 10.5t36 36t10.5 73.5v47l-78 1q-42 0 -42 42q0 20 11 31t31 11
l120 -1q20 0 31 -11t11 -31v-89q0 -106 -49.5 -155t-154.5 -49h-120q-115 0 -169.5 54.5z" />
    <glyph glyph-name="gcircumflex" unicode="&#x11d;" horiz-adv-x="648" 
d="M193.5 570.5q-10.5 10.5 -10.5 24.5t10 24l73 73q18 19 44 19h6q26 0 44 -19l73 -73q10 -10 10 -24t-10.5 -24.5t-24.5 -10.5q-16 0 -25 10l-64 71h-12l-64 -71q-10 -10 -25 -10q-14 0 -24.5 10.5zM554 465v-521q0 -74 -35 -109t-109 -35h-186q-121 0 -140 99q-1 3 -1 10
q0 16 11 25.5t31 9.5q18 0 27 -9.5t16 -31.5q6 -11 18.5 -15t37.5 -4h186q37 0 48.5 11.5t11.5 48.5v116q-27 -29 -67 -44.5t-89 -15.5h-38q-100 0 -148 48t-48 147v116q0 101 48 149t148 47h82q72 0 112 -42q0 42 42 42t42 -42zM427 101.5q43 17.5 43 51.5v200
q0 39 -28 54.5t-84 15.5h-82q-44 1 -68 -9t-34 -34t-10 -69v-116q0 -44 10 -67.5t34 -33.5t68 -10h38q70 0 113 17.5z" />
    <glyph glyph-name="Gbreve" unicode="&#x11e;" horiz-adv-x="698" 
d="M278.5 750q-35.5 25 -35.5 71v21q0 18 9.5 27.5t26.5 9.5q37 0 37 -37v-21q0 -16 14.5 -22t56.5 -6q33 0 45.5 6.5t12.5 21.5v33q0 12 9.5 18.5t26.5 6.5q37 0 37 -37v-21q0 -46 -36 -71t-102 -25t-101.5 25zM134.5 54.5q-54.5 54.5 -54.5 169.5v230q0 115 54.5 170
t168.5 54h121q94 0 143.5 -39t57.5 -122q3 -21 -8 -32t-32 -11q-20 0 -30.5 10.5t-13.5 31.5q-5 45 -31 61.5t-86 16.5h-121q-54 1 -84 -12t-42.5 -43t-12.5 -85v-230q0 -55 13 -84.5t42.5 -42.5t84.5 -13h120q48 0 73.5 10.5t36 36t10.5 73.5v47l-78 1q-42 0 -42 42
q0 20 11 31t31 11l120 -1q20 0 31 -11t11 -31v-89q0 -106 -49.5 -155t-154.5 -49h-120q-115 0 -169.5 54.5z" />
    <glyph glyph-name="gbreve" unicode="&#x11f;" horiz-adv-x="648" 
d="M225.5 579q-35.5 25 -35.5 71v21q0 18 9.5 27.5t26.5 9.5q37 0 37 -37v-21q0 -16 14.5 -22t56.5 -6q33 0 45.5 6.5t12.5 21.5v33q0 12 9.5 18.5t26.5 6.5q37 0 37 -37v-21q0 -46 -36 -71t-102 -25t-101.5 25zM554 465v-521q0 -74 -35 -109t-109 -35h-186q-121 0 -140 99
q-1 3 -1 10q0 16 11 25.5t31 9.5q18 0 27 -9.5t16 -31.5q6 -11 18.5 -15t37.5 -4h186q37 0 48.5 11.5t11.5 48.5v116q-27 -29 -67 -44.5t-89 -15.5h-38q-100 0 -148 48t-48 147v116q0 101 48 149t148 47h82q72 0 112 -42q0 42 42 42t42 -42zM427 101.5q43 17.5 43 51.5v200
q0 39 -28 54.5t-84 15.5h-82q-44 1 -68 -9t-34 -34t-10 -69v-116q0 -44 10 -67.5t34 -33.5t68 -10h38q70 0 113 17.5z" />
    <glyph glyph-name="Gdotaccent" unicode="&#x120;" horiz-adv-x="698" 
d="M316.5 773q-12.5 13 -12.5 35v30q0 23 12.5 34.5t35.5 11.5h29q45 0 45 -46v-30q0 -23 -11.5 -35.5t-33.5 -12.5h-29q-23 0 -35.5 13zM134.5 54.5q-54.5 54.5 -54.5 169.5v230q0 115 54.5 170t168.5 54h121q94 0 143.5 -39t57.5 -122q3 -21 -8 -32t-32 -11
q-20 0 -30.5 10.5t-13.5 31.5q-5 45 -31 61.5t-86 16.5h-121q-54 1 -84 -12t-42.5 -43t-12.5 -85v-230q0 -55 13 -84.5t42.5 -42.5t84.5 -13h120q48 0 73.5 10.5t36 36t10.5 73.5v47l-78 1q-42 0 -42 42q0 20 11 31t31 11l120 -1q20 0 31 -11t11 -31v-89q0 -106 -49.5 -155
t-154.5 -49h-120q-115 0 -169.5 54.5z" />
    <glyph glyph-name="gdotaccent" unicode="&#x121;" horiz-adv-x="648" 
d="M263.5 602q-12.5 13 -12.5 35v30q0 23 12.5 34.5t35.5 11.5h29q45 0 45 -46v-30q0 -23 -11.5 -35.5t-33.5 -12.5h-29q-23 0 -35.5 13zM554 465v-521q0 -74 -35 -109t-109 -35h-186q-121 0 -140 99q-1 3 -1 10q0 16 11 25.5t31 9.5q18 0 27 -9.5t16 -31.5q6 -11 18.5 -15
t37.5 -4h186q37 0 48.5 11.5t11.5 48.5v116q-27 -29 -67 -44.5t-89 -15.5h-38q-100 0 -148 48t-48 147v116q0 101 48 149t148 47h82q72 0 112 -42q0 42 42 42t42 -42zM427 101.5q43 17.5 43 51.5v200q0 39 -28 54.5t-84 15.5h-82q-44 1 -68 -9t-34 -34t-10 -69v-116
q0 -44 10 -67.5t34 -33.5t68 -10h38q70 0 113 17.5z" />
    <glyph glyph-name="Gcommaaccent" unicode="&#x122;" horiz-adv-x="698" 
d="M437 -101q0 -6 -2 -14l-47 -96q-10 -17 -27 -17q-13 0 -21.5 6.5t-6.5 20.5l22 120q0 14 8.5 21.5t23.5 7.5h19q31 0 31 -30v-19zM134.5 54.5q-54.5 54.5 -54.5 169.5v230q0 115 54.5 170t168.5 54h121q94 0 143.5 -39t57.5 -122q3 -21 -8 -32t-32 -11q-20 0 -30.5 10.5
t-13.5 31.5q-5 45 -31 61.5t-86 16.5h-121q-54 1 -84 -12t-42.5 -43t-12.5 -85v-230q0 -55 13 -84.5t42.5 -42.5t84.5 -13h120q48 0 73.5 10.5t36 36t10.5 73.5v47l-78 1q-42 0 -42 42q0 20 11 31t31 11l120 -1q20 0 31 -11t11 -31v-89q0 -106 -49.5 -155t-154.5 -49h-120
q-115 0 -169.5 54.5z" />
    <glyph glyph-name="gcommaaccent" unicode="&#x123;" horiz-adv-x="648" 
d="M345.5 763.5q8.5 -6.5 6.5 -20.5l-22 -120q0 -14 -8.5 -21.5t-23.5 -7.5h-19q-31 0 -31 30v19q0 6 2 14l47 96q10 17 27 17q13 0 21.5 -6.5zM554 465v-521q0 -74 -35 -109t-109 -35h-186q-121 0 -140 99q-1 3 -1 10q0 16 11 25.5t31 9.5q18 0 27 -9.5t16 -31.5
q6 -11 18.5 -15t37.5 -4h186q37 0 48.5 11.5t11.5 48.5v116q-27 -29 -67 -44.5t-89 -15.5h-38q-100 0 -148 48t-48 147v116q0 101 48 149t148 47h82q72 0 112 -42q0 42 42 42t42 -42zM427 101.5q43 17.5 43 51.5v200q0 39 -28 54.5t-84 15.5h-82q-44 1 -68 -9t-34 -34
t-10 -69v-116q0 -44 10 -67.5t34 -33.5t68 -10h38q70 0 113 17.5z" />
    <glyph glyph-name="Hcircumflex" unicode="&#x124;" horiz-adv-x="784" 
d="M273.5 741.5q-10.5 10.5 -10.5 24.5t10 24l73 73q18 19 44 19h6q26 0 44 -19l73 -73q10 -10 10 -24t-10.5 -24.5t-24.5 -10.5q-16 0 -25 10l-64 71h-12l-64 -71q-10 -10 -25 -10q-14 0 -24.5 10.5zM117 13q-13 13 -13 29v594q0 17 13 29.5t29 12.5q17 0 29.5 -12.5
t12.5 -29.5v-251h408v251q0 17 12.5 29.5t29.5 12.5t29.5 -12.5t12.5 -29.5v-594q0 -16 -12.5 -29t-29.5 -13t-29.5 12.5t-12.5 29.5v259h-408v-259q0 -16 -12.5 -29t-29.5 -13q-16 0 -29 13z" />
    <glyph glyph-name="hcircumflex" unicode="&#x125;" horiz-adv-x="667" 
d="M32.5 773.5q-10.5 10.5 -10.5 24.5t10 24l73 73q18 19 44 19h6q26 0 44 -19l73 -73q10 -10 10 -24t-10.5 -24.5t-24.5 -10.5q-16 0 -25 10l-64 71h-12l-64 -71q-10 -10 -25 -10q-14 0 -24.5 10.5zM525 459q48 -48 48 -148v-269q0 -20 -11 -31t-31 -11t-31 11t-11 31v269
q0 44 -10 68t-34 34t-68 10h-28q-66 0 -103 -17t-48 -52q-1 -5 -5 -15v-297q0 -20 -11 -31t-31 -11t-31 11t-11 31v290q-5 8 -5 17q0 6 1 9q2 10 4 16v288q0 20 11 31t31 11t31 -11t11 -31v-187q61 32 156 32h28q100 0 148 -48z" />
    <glyph glyph-name="Hbar" unicode="&#x126;" horiz-adv-x="784" 
d="M739 536.5q9 -8.5 9 -24.5q0 -34 -34 -34h-34v-436q0 -16 -12.5 -29t-29.5 -13t-29.5 12.5t-12.5 29.5v259h-408v-259q0 -16 -12.5 -29t-29.5 -13q-16 0 -29 13t-13 29v436h-36q-16 0 -24.5 9t-8.5 25t8.5 24.5t24.5 8.5h36v91q0 17 13 29.5t29 12.5q17 0 29.5 -12.5
t12.5 -29.5v-91h408v91q0 17 12.5 29.5t29.5 12.5t29.5 -12.5t12.5 -29.5v-91h34q16 0 25 -8.5zM596 385v93h-408v-93h408z" />
    <glyph glyph-name="hbar" unicode="&#x127;" horiz-adv-x="667" 
d="M525 459q48 -48 48 -148v-269q0 -20 -11 -31t-31 -11t-31 11t-11 31v269q0 44 -10 68t-34 34t-68 10h-28q-66 0 -103 -17t-48 -52q-1 -5 -5 -15v-297q0 -20 -11 -31t-31 -11t-31 11t-11 31v290q-5 8 -5 17q0 6 1 9q2 10 4 16v174h-34q-16 0 -25.5 9.5t-9.5 25.5
q0 17 9.5 26t25.5 9h34v44q0 20 11 31t31 11t31 -11t11 -31v-44h144q17 0 26 -9t9 -26t-9 -26t-26 -9h-144v-73q61 32 156 32h28q100 0 148 -48z" />
    <glyph glyph-name="Itilde" unicode="&#x128;" horiz-adv-x="292" 
d="M171.5 746.5q-13.5 8.5 -29.5 23.5q-10 9 -19 15.5t-16 6.5q-9 0 -15.5 -6t-12.5 -21q-13 -25 -31 -25q-7 0 -15 3q-22 9 -22 25q0 9 4 17q14 39 34 55t53 16q13 0 28 -9t36 -26q25 -20 33 -20q5 0 8 3.5t5.5 7t3.5 5.5q10 27 31 27q8 0 13 -2q24 -7 24 -25q0 -7 -3 -16
q-28 -63 -81 -63q-15 0 -28.5 8.5zM114 10q-10 10 -10 32v593q0 22 10 32t32 10t32 -10t10 -32v-593q0 -22 -10 -32t-32 -10t-32 10z" />
    <glyph glyph-name="itilde" unicode="&#x129;" horiz-adv-x="292" 
d="M170.5 575.5q-13.5 8.5 -29.5 23.5q-10 9 -19 15.5t-16 6.5q-9 0 -15.5 -6t-12.5 -21q-13 -25 -31 -25q-7 0 -15 3q-22 9 -22 25q0 9 4 17q14 39 34 55t53 16q13 0 28 -9t36 -26q25 -20 33 -20q5 0 8 3.5t5.5 7t3.5 5.5q10 27 31 27q8 0 13 -2q24 -7 24 -25q0 -7 -3 -16
q-28 -63 -81 -63q-15 0 -28.5 8.5zM115 11q-11 11 -11 31v423q0 20 11 31t31 11t31 -11t11 -31v-423q0 -20 -11 -31t-31 -11t-31 11z" />
    <glyph glyph-name="Imacron" unicode="&#x12a;" horiz-adv-x="292" 
d="M32 805q0 20 10.5 30.5t30.5 10.5h148q19 0 30 -10.5t11 -30.5q0 -19 -10.5 -29.5t-30.5 -10.5h-148q-41 0 -41 40zM114 10q-10 10 -10 32v593q0 22 10 32t32 10t32 -10t10 -32v-593q0 -22 -10 -32t-32 -10t-32 10z" />
    <glyph glyph-name="imacron" unicode="&#x12b;" horiz-adv-x="292" 
d="M31 634q0 20 10.5 30.5t30.5 10.5h148q19 0 30 -10.5t11 -30.5q0 -19 -10.5 -29.5t-30.5 -10.5h-148q-41 0 -41 40zM115 11q-11 11 -11 31v423q0 20 11 31t31 11t31 -11t11 -31v-423q0 -20 -11 -31t-31 -11t-31 11z" />
    <glyph glyph-name="Ibreve" unicode="&#x12c;" horiz-adv-x="292" 
d="M59.5 750q-35.5 25 -35.5 71v21q0 18 9.5 27.5t26.5 9.5q37 0 37 -37v-21q0 -16 14.5 -22t56.5 -6q33 0 45.5 6.5t12.5 21.5v33q0 12 9.5 18.5t26.5 6.5q37 0 37 -37v-21q0 -46 -36 -71t-102 -25t-101.5 25zM114 10q-10 10 -10 32v593q0 22 10 32t32 10t32 -10t10 -32
v-593q0 -22 -10 -32t-32 -10t-32 10z" />
    <glyph glyph-name="ibreve" unicode="&#x12d;" horiz-adv-x="292" 
d="M58.5 579q-35.5 25 -35.5 71v21q0 18 9.5 27.5t26.5 9.5q37 0 37 -37v-21q0 -16 14.5 -22t56.5 -6q33 0 45.5 6.5t12.5 21.5v33q0 12 9.5 18.5t26.5 6.5q37 0 37 -37v-21q0 -46 -36 -71t-102 -25t-101.5 25zM115 11q-11 11 -11 31v423q0 20 11 31t31 11t31 -11t11 -31
v-423q0 -20 -11 -31t-31 -11t-31 11z" />
    <glyph glyph-name="Iogonek" unicode="&#x12e;" horiz-adv-x="292" 
d="M242.5 -91.5q10.5 -10.5 10.5 -25.5q0 -16 -10 -26q-22 -21 -48 -33t-53 -12q-44 0 -73.5 27.5t-29.5 67.5q0 34 25 67l40 59v9v593q0 22 10 32t32 10t32 -10t10 -32v-593q0 -22 -10 -32l-2 -2l-53 -77q-11 -12 -11 -24q0 -10 8.5 -16t21.5 -6q25 0 48 24q14 10 26 10
q16 0 26.5 -10.5z" />
    <glyph glyph-name="iogonek" unicode="&#x12f;" horiz-adv-x="292" 
d="M97 602q-13 13 -13 35v30q0 23 12.5 34.5t35.5 11.5h29q45 0 45 -46v-30q0 -23 -11.5 -35.5t-33.5 -12.5h-29q-22 0 -35 13zM242.5 -91.5q10.5 -10.5 10.5 -25.5q0 -16 -10 -26q-22 -21 -48 -33t-53 -12q-44 0 -73.5 27.5t-29.5 67.5q0 34 25 67l41 59q-1 3 -1 9v423
q0 20 11 31t31 11t31 -11t11 -31v-423q0 -17 -8 -28q-2 -4 -4 -6l-53 -77q-11 -12 -11 -24q0 -10 8.5 -16t21.5 -6q25 0 48 24q14 10 26 10q16 0 26.5 -10.5z" />
    <glyph glyph-name="Idotaccent" unicode="&#x130;" horiz-adv-x="292" 
d="M97.5 773q-12.5 13 -12.5 35v30q0 23 12.5 34.5t35.5 11.5h29q45 0 45 -46v-30q0 -23 -11.5 -35.5t-33.5 -12.5h-29q-23 0 -35.5 13zM114 10q-10 10 -10 32v593q0 22 10 32t32 10t32 -10t10 -32v-593q0 -22 -10 -32t-32 -10t-32 10z" />
    <glyph glyph-name="dotlessi" unicode="&#x131;" horiz-adv-x="292" 
d="M115 11q-11 11 -11 31v423q0 20 11 31t31 11t31 -11t11 -31v-423q0 -20 -11 -31t-31 -11t-31 11z" />
    <glyph glyph-name="IJ" unicode="&#x132;" horiz-adv-x="720" 
d="M114 10q-10 10 -10 32v593q0 22 10 32t32 10t32 -10t10 -32v-593q0 -22 -10 -32t-32 -10t-32 10zM481.5 39q-49.5 39 -58.5 121q-2 21 9 32.5t32 11.5q39 0 43 -42q6 -45 32 -61.5t86 -16.5h83q48 0 73.5 10.5t36 36t10.5 73.5v432q0 42 42 42q20 0 31 -11t11 -31v-432
q0 -106 -49.5 -155t-154.5 -49h-83q-94 0 -143.5 39z" />
    <glyph glyph-name="ij" unicode="&#x133;" horiz-adv-x="610" 
d="M96.5 602q-12.5 13 -12.5 35v30q0 23 12.5 34.5t35.5 11.5h29q45 0 45 -46v-30q0 -23 -11.5 -35.5t-33.5 -12.5h-29q-23 0 -35.5 13zM115 11q-11 11 -11 31v423q0 20 11 31t31 11t31 -11t11 -31v-423q0 -20 -11 -31t-31 -11t-31 11zM402.5 602q-12.5 13 -12.5 35v30
q0 23 12.5 34.5t35.5 11.5h29q45 0 45 -46v-30q0 -23 -11.5 -35.5t-33.5 -12.5h-29q-23 0 -35.5 13zM341 -116q41 0 54.5 13.5t13.5 54.5v513q0 20 11 31t31 11t31 -11t11 -31v-513q0 -77 -37.5 -114.5t-114.5 -37.5q-41 0 -41 42t41 42z" />
    <glyph glyph-name="Jcircumflex" unicode="&#x134;" horiz-adv-x="617" 
d="M362.5 741.5q-10.5 10.5 -10.5 24.5t10 24l73 73q18 19 44 19h6q26 0 44 -19l73 -73q10 -10 10 -24t-10.5 -24.5t-24.5 -10.5q-16 0 -25 10l-64 71h-12l-64 -71q-10 -10 -25 -10q-14 0 -24.5 10.5zM92.5 39q-49.5 39 -58.5 121q-2 21 9 32.5t32 11.5q39 0 43 -42
q6 -45 32 -61.5t86 -16.5h83q48 0 73.5 10.5t36 36t10.5 73.5v432q0 42 42 42q20 0 31 -11t11 -31v-432q0 -106 -49.5 -155t-154.5 -49h-83q-94 0 -143.5 39z" />
    <glyph glyph-name="jcircumflex" unicode="&#x135;" horiz-adv-x="292" 
d="M27.5 570.5q-10.5 10.5 -10.5 24.5t10 24l73 73q18 19 44 19h6q26 0 44 -19l73 -73q10 -10 10 -24t-10.5 -24.5t-24.5 -10.5q-16 0 -25 10l-64 71h-12l-64 -71q-10 -10 -25 -10q-14 0 -24.5 10.5zM36 -116q41 0 54.5 13.5t13.5 54.5v513q0 20 11 31t31 11t31 -11t11 -31
v-513q0 -77 -37.5 -114.5t-114.5 -37.5q-41 0 -41 42t41 42z" />
    <glyph glyph-name="Kcommaaccent" unicode="&#x136;" horiz-adv-x="587" 
d="M358 -101q0 -6 -2 -14l-47 -96q-10 -17 -27 -17q-13 0 -21.5 6.5t-6.5 20.5l22 120q0 14 8.5 21.5t23.5 7.5h19q31 0 31 -30v-19zM552 45q0 -18 -17 -31q-12 -11 -28 -11q-18 0 -31 17l-245 303l-43 -45v-236q0 -20 -11 -31t-31 -11t-31 11t-11 31v594q0 20 11 31t31 11
t31 -11t11 -31v-238l255 264q15 15 30 15t29 -14q15 -15 15 -30t-14 -29l-212 -220l250 -311q11 -14 11 -28z" />
    <glyph glyph-name="kcommaaccent" unicode="&#x137;" horiz-adv-x="508" 
d="M320 -101q0 -6 -2 -14l-47 -96q-10 -17 -27 -17q-13 0 -21.5 6.5t-6.5 20.5l22 120q0 14 8.5 21.5t23.5 7.5h19q31 0 31 -30v-19zM473 72q13 -14 13 -28q0 -16 -16 -31q-15 -12 -29 -12q-16 0 -31 16l-175 198l-47 -40v-133q0 -20 -11 -31t-31 -11t-31 11t-11 31v620
q0 20 11 31t31 11t31 -11t11 -31v-376l238 205q14 13 28 13q16 0 31 -17q12 -15 12 -29q0 -17 -16 -30l-183 -158z" />
    <glyph glyph-name="kgreenlandic" unicode="&#x138;" horiz-adv-x="508" 
d="M473 72q13 -14 13 -28q0 -16 -17 -31q-13 -12 -28 -12q-16 0 -31 15l-175 199l-47 -40v-133q0 -20 -11 -31t-31 -11t-31 11t-11 31v423q0 20 11 31t31 11t31 -11t11 -31v-179l238 205q13 13 28 13q17 0 32 -18q11 -12 11 -27q0 -18 -16 -31l-183 -158z" />
    <glyph glyph-name="Lacute" unicode="&#x139;" horiz-adv-x="541" 
d="M110 766q0 14 10 25l73 88q11 14 26 14q14 0 25 -10q14 -11 14 -26q0 -14 -10 -25l-73 -88q-11 -14 -26 -14q-12 0 -25 10q-14 11 -14 26zM104 42v594q0 42 42 42t42 -42v-552h277q42 0 42 -42t-42 -42h-319q-42 0 -42 42z" />
    <glyph glyph-name="lacute" unicode="&#x13a;" horiz-adv-x="343" 
d="M126 774q0 14 10 25l73 88q11 14 26 14q14 0 25 -10q14 -11 14 -26q0 -14 -10 -25l-73 -88q-11 -14 -26 -14q-12 0 -25 10q-14 11 -14 26zM141.5 37.5q-37.5 37.5 -37.5 114.5v510q0 20 11 31t31 11t31 -11t11 -31v-510q0 -41 13.5 -54.5t53.5 -13.5q43 0 43 -42
q1 -20 -10 -31t-33 -11q-76 0 -113.5 37.5z" />
    <glyph glyph-name="Lcommaaccent" unicode="&#x13b;" horiz-adv-x="541" 
d="M387 -101q0 -6 -2 -14l-47 -96q-10 -17 -27 -17q-13 0 -21.5 6.5t-6.5 20.5l22 120q0 14 8.5 21.5t23.5 7.5h19q31 0 31 -30v-19zM104 42v594q0 42 42 42t42 -42v-552h277q42 0 42 -42t-42 -42h-319q-42 0 -42 42z" />
    <glyph glyph-name="lcommaaccent" unicode="&#x13c;" horiz-adv-x="343" 
d="M282 -101q0 -6 -2 -14l-47 -96q-10 -17 -27 -17q-13 0 -21.5 6.5t-6.5 20.5l22 120q0 14 8.5 21.5t23.5 7.5h19q31 0 31 -30v-19zM141.5 37.5q-37.5 37.5 -37.5 114.5v510q0 20 11 31t31 11t31 -11t11 -31v-510q0 -41 13.5 -54.5t53.5 -13.5q43 0 43 -42q1 -20 -10 -31
t-33 -11q-76 0 -113.5 37.5z" />
    <glyph glyph-name="Lcaron" unicode="&#x13d;" horiz-adv-x="541" 
d="M384 613q0 -6 -2 -14l1 -1l-46 -94q-10 -17 -27 -17q-13 0 -21 6.5t-6 20.5l21 116v1q0 29 31 29h19q30 0 30 -29v-18zM104 42v594q0 42 42 42t42 -42v-552h277q42 0 42 -42t-42 -42h-319q-42 0 -42 42z" />
    <glyph glyph-name="lcaron" unicode="&#x13e;" horiz-adv-x="419" 
d="M373 657q0 -6 -2 -14l1 -1l-46 -94q-10 -17 -27 -17q-13 0 -21 6.5t-6 20.5l21 116v1q0 29 31 29h19q30 0 30 -29v-18zM141.5 37.5q-37.5 37.5 -37.5 114.5v510q0 20 11 31t31 11t31 -11t11 -31v-510q0 -41 13.5 -54.5t53.5 -13.5q43 0 43 -42q1 -20 -10 -31t-33 -11
q-76 0 -113.5 37.5z" />
    <glyph glyph-name="Ldot" unicode="&#x13f;" horiz-adv-x="541" 
d="M104 42v594q0 42 42 42t42 -42v-552h277q42 0 42 -42t-42 -42h-319q-42 0 -42 42zM324.5 316.5q-10.5 10.5 -10.5 29.5v25q0 19 10.5 29t29.5 10h24q38 0 38 -39v-25q0 -19 -9.5 -29.5t-28.5 -10.5h-24q-19 0 -29.5 10.5z" />
    <glyph glyph-name="ldot" unicode="&#x140;" horiz-adv-x="420" 
d="M141.5 37.5q-37.5 37.5 -37.5 114.5v510q0 20 11 31t31 11t31 -11t11 -31v-510q0 -41 13.5 -54.5t53.5 -13.5q43 0 43 -42q1 -20 -10 -31t-33 -11q-76 0 -113.5 37.5zM263.5 340.5q-10.5 10.5 -10.5 29.5v25q0 19 10.5 29t29.5 10h24q38 0 38 -39v-25q0 -19 -9.5 -29.5
t-28.5 -10.5h-24q-19 0 -29.5 10.5z" />
    <glyph glyph-name="Lslash" unicode="&#x141;" horiz-adv-x="541" 
d="M507 42q0 -42 -42 -42h-319q-42 0 -42 42v185l-28 -21q-15 -10 -25 -10q-16 0 -30 18q-9 14 -9 25q0 17 17 31l75 57v309q0 42 42 42t42 -42v-246l66 50q13 10 25 10q16 0 29 -18q10 -13 10 -26q0 -15 -17 -30l-113 -85v-207h277q42 0 42 -42z" />
    <glyph glyph-name="lslash" unicode="&#x142;" horiz-adv-x="356" 
d="M307.5 473.5q8.5 -8.5 8.5 -19.5q0 -15 -12 -23l-116 -86v-193q0 -41 13.5 -54.5t53.5 -13.5q43 0 43 -42q1 -20 -10 -31t-33 -11q-76 0 -113.5 37.5t-37.5 114.5v130l-55 -41q-6 -6 -17 -6t-19.5 8.5t-8.5 19.5q0 14 12 23l88 66v310q0 20 11 31t31 11t31 -11t11 -31
v-248l83 62q6 6 17 6t19.5 -8.5z" />
    <glyph glyph-name="Nacute" unicode="&#x143;" horiz-adv-x="757" 
d="M339 766q0 14 10 25l73 88q11 14 26 14q14 0 25 -10q14 -11 14 -26q0 -14 -10 -25l-73 -88q-11 -14 -26 -14q-12 0 -25 10q-14 11 -14 26zM642 667q11 -11 11 -31v-594q0 -20 -11 -31t-31 -11q-12 0 -22 6t-20 19l-381 491v-474q0 -20 -11 -31t-31 -11t-31 11t-11 31v594
q0 20 11 31t31 11q12 0 21.5 -6t20.5 -19l381 -491v474q0 20 11 31t31 11t31 -11z" />
    <glyph glyph-name="nacute" unicode="&#x144;" horiz-adv-x="662" 
d="M321 595q0 14 10 25l73 88q11 14 26 14q14 0 25 -10q14 -11 14 -26q0 -14 -10 -25l-73 -88q-11 -14 -26 -14q-12 0 -25 10q-14 11 -14 26zM520 459q48 -48 48 -148v-269q0 -20 -11 -31t-31 -11t-31 11t-11 31v269q0 44 -10 68t-34 34t-68 10h-28q-63 0 -106.5 -14.5
t-49.5 -42.5v-324q0 -20 -11 -31t-31 -11t-31 11t-11 31v423q0 42 42 42t42 -42v-17q53 59 156 59h28q100 0 148 -48z" />
    <glyph glyph-name="Ncommaaccent" unicode="&#x145;" horiz-adv-x="757" 
d="M440 -101q0 -6 -2 -14l-47 -96q-10 -17 -27 -17q-13 0 -21.5 6.5t-6.5 20.5l22 120q0 14 8.5 21.5t23.5 7.5h19q31 0 31 -30v-19zM642 667q11 -11 11 -31v-594q0 -20 -11 -31t-31 -11q-12 0 -22 6t-20 19l-381 491v-474q0 -20 -11 -31t-31 -11t-31 11t-11 31v594
q0 20 11 31t31 11q12 0 21.5 -6t20.5 -19l381 -491v474q0 20 11 31t31 11t31 -11z" />
    <glyph glyph-name="ncommaaccent" unicode="&#x146;" horiz-adv-x="662" 
d="M418 -101q0 -6 -2 -14l-47 -96q-10 -17 -27 -17q-13 0 -21.5 6.5t-6.5 20.5l22 120q0 14 8.5 21.5t23.5 7.5h19q31 0 31 -30v-19zM520 459q48 -48 48 -148v-269q0 -20 -11 -31t-31 -11t-31 11t-11 31v269q0 44 -10 68t-34 34t-68 10h-28q-63 0 -106.5 -14.5t-49.5 -42.5
v-324q0 -20 -11 -31t-31 -11t-31 11t-11 31v423q0 42 42 42t42 -42v-17q53 59 156 59h28q100 0 148 -48z" />
    <glyph glyph-name="Ncaron" unicode="&#x147;" horiz-adv-x="757" 
d="M272 867l92 -77h1l93 77q12 12 28 12q15 0 26.5 -11t11.5 -27q0 -9 -5 -18.5t-13 -14.5l-93 -76q-11 -10 -22 -14t-25 -4h-3q-26 0 -47 18l-92 76q-8 5 -13 14.5t-5 18.5q0 16 11 27t27 11t28 -12zM642 667q11 -11 11 -31v-594q0 -20 -11 -31t-31 -11q-12 0 -22 6t-20 19
l-381 491v-474q0 -20 -11 -31t-31 -11t-31 11t-11 31v594q0 20 11 31t31 11q12 0 21.5 -6t20.5 -19l381 -491v474q0 20 11 31t31 11t31 -11z" />
    <glyph glyph-name="ncaron" unicode="&#x148;" horiz-adv-x="662" 
d="M286 701l64 -71h12l64 71q9 10 25 10q14 0 24.5 -10.5t10.5 -24.5t-10 -24l-73 -73q-18 -19 -44 -19h-6q-26 0 -44 19l-73 73q-10 10 -10 24t10.5 24.5t24.5 10.5q15 0 25 -10zM520 459q48 -48 48 -148v-269q0 -20 -11 -31t-31 -11t-31 11t-11 31v269q0 44 -10 68t-34 34
t-68 10h-28q-63 0 -106.5 -14.5t-49.5 -42.5v-324q0 -20 -11 -31t-31 -11t-31 11t-11 31v423q0 42 42 42t42 -42v-17q53 59 156 59h28q100 0 148 -48z" />
    <glyph glyph-name="napostrophe" unicode="&#x149;" horiz-adv-x="770" 
d="M633 459q48 -48 48 -148v-269q0 -20 -11 -31t-31 -11t-31 11t-11 31v269q0 44 -10 68t-34 34t-68 10h-28q-63 0 -106.5 -14.5t-49.5 -42.5v-324q0 -20 -11 -31t-31 -11t-31 11t-11 31v423q0 42 42 42t42 -42v-17q53 59 156 59h28q100 0 148 -48zM157 646q0 -6 -2 -16
l-52 -136q-3 -9 -12 -14.5t-20 -5.5q-14 0 -25.5 8.5t-11.5 22.5q0 8 3 15l35 92q-17 9 -17 34v25q0 19 10.5 29t29.5 10h24q38 0 38 -39v-25z" />
    <glyph glyph-name="Eng" unicode="&#x14a;" horiz-adv-x="757" 
d="M642 667q11 -11 11 -31v-692q0 -74 -35 -109t-109 -35h-119q-61 0 -95.5 24.5t-44.5 75.5q-1 3 -1 10q0 16 11 25t31 9q18 0 27 -9.5t16 -31.5q7 -11 19 -15t37 -4h119q37 0 48.5 11.5t11.5 48.5v81l-381 491v-474q0 -20 -11 -31t-31 -11t-31 11t-11 31v594q0 20 11 31
t31 11q12 0 21.5 -6t20.5 -19l381 -491v474q0 20 11 31t31 11t31 -11z" />
    <glyph glyph-name="eng" unicode="&#x14b;" horiz-adv-x="662" 
d="M520 459q48 -48 48 -148v-366q0 -73 -35.5 -108.5t-108.5 -35.5h-96q-116 0 -140 91q-1 3 -1 10q0 16 11 25t31 9q17 0 26 -9t17 -31q7 -6 19.5 -8.5t36.5 -2.5h96q37 0 48.5 11.5t11.5 48.5v366q0 44 -10 68t-34 34t-68 10h-28q-63 0 -106.5 -14.5t-49.5 -42.5v-324
q0 -20 -11 -31t-31 -11t-31 11t-11 31v423q0 42 42 42t42 -42v-17q53 59 156 59h28q100 0 148 -48z" />
    <glyph glyph-name="Omacron" unicode="&#x14c;" horiz-adv-x="728" 
d="M190 804q0 42 42 42h253q42 0 42 -42t-42 -42h-253q-42 0 -42 42zM134.5 54.5q-54.5 54.5 -54.5 169.5v231q0 115 55 169.5t169 53.5h120q115 0 169.5 -54.5t54.5 -169.5v-230q0 -115 -54.5 -169.5t-169.5 -54.5h-120q-115 0 -169.5 54.5zM424 84q55 0 84.5 13t42.5 42.5
t13 84.5v230q0 54 -13 84t-43 43t-84 13h-120q-54 1 -84 -12t-43 -43t-13 -84v-231q0 -55 13 -84.5t42.5 -42.5t84.5 -13h120z" />
    <glyph glyph-name="omacron" unicode="&#x14d;" horiz-adv-x="634" 
d="M143 633q0 42 42 42h253q42 0 42 -42t-42 -42h-253q-42 0 -42 42zM128 48q-48 48 -48 147v116q0 100 48 148t148 48h82q100 0 148 -48t48 -148v-115q0 -100 -48 -148t-148 -48h-82q-100 0 -148 48zM358 84q44 0 68 10t34 34t10 68v115q0 44 -10 68t-34 34t-68 10h-82
q-45 0 -68.5 -10t-33.5 -33.5t-10 -68.5v-116q0 -44 10 -67.5t34 -33.5t68 -10h82z" />
    <glyph glyph-name="Obreve" unicode="&#x14e;" horiz-adv-x="728" 
d="M277.5 750q-35.5 25 -35.5 71v21q0 18 9.5 27.5t26.5 9.5q37 0 37 -37v-21q0 -16 14.5 -22t56.5 -6q33 0 45.5 6.5t12.5 21.5v33q0 12 9.5 18.5t26.5 6.5q37 0 37 -37v-21q0 -46 -36 -71t-102 -25t-101.5 25zM134.5 54.5q-54.5 54.5 -54.5 169.5v231q0 115 55 169.5
t169 53.5h120q115 0 169.5 -54.5t54.5 -169.5v-230q0 -115 -54.5 -169.5t-169.5 -54.5h-120q-115 0 -169.5 54.5zM424 84q55 0 84.5 13t42.5 42.5t13 84.5v230q0 54 -13 84t-43 43t-84 13h-120q-54 1 -84 -12t-43 -43t-13 -84v-231q0 -55 13 -84.5t42.5 -42.5t84.5 -13h120z
" />
    <glyph glyph-name="obreve" unicode="&#x14f;" horiz-adv-x="634" 
d="M230.5 579q-35.5 25 -35.5 71v21q0 18 9.5 27.5t26.5 9.5q37 0 37 -37v-21q0 -16 14.5 -22t56.5 -6q33 0 45.5 6.5t12.5 21.5v33q0 12 9.5 18.5t26.5 6.5q37 0 37 -37v-21q0 -46 -36 -71t-102 -25t-101.5 25zM128 48q-48 48 -48 147v116q0 100 48 148t148 48h82
q100 0 148 -48t48 -148v-115q0 -100 -48 -148t-148 -48h-82q-100 0 -148 48zM358 84q44 0 68 10t34 34t10 68v115q0 44 -10 68t-34 34t-68 10h-82q-45 0 -68.5 -10t-33.5 -33.5t-10 -68.5v-116q0 -44 10 -67.5t34 -33.5t68 -10h82z" />
    <glyph glyph-name="Ohungarumlaut" unicode="&#x150;" horiz-adv-x="728" 
d="M252 766q0 14 10 25l73 88q11 14 26 14q14 0 25 -10q14 -11 14 -26q0 -14 -10 -25l-73 -88q-11 -14 -26 -14q-12 0 -25 10q-14 11 -14 26zM411 766q0 14 10 25l73 88q11 14 26 14q14 0 25 -10q14 -11 14 -26q0 -14 -10 -25l-73 -88q-11 -14 -26 -14q-12 0 -25 10
q-14 11 -14 26zM134.5 54.5q-54.5 54.5 -54.5 169.5v231q0 115 55 169.5t169 53.5h120q115 0 169.5 -54.5t54.5 -169.5v-230q0 -115 -54.5 -169.5t-169.5 -54.5h-120q-115 0 -169.5 54.5zM424 84q55 0 84.5 13t42.5 42.5t13 84.5v230q0 54 -13 84t-43 43t-84 13h-120
q-54 1 -84 -12t-43 -43t-13 -84v-231q0 -55 13 -84.5t42.5 -42.5t84.5 -13h120z" />
    <glyph glyph-name="ohungarumlaut" unicode="&#x151;" horiz-adv-x="634" 
d="M128 48q-48 48 -48 147v116q0 100 48 148t148 48h82q100 0 148 -48t48 -148v-115q0 -100 -48 -148t-148 -48h-82q-100 0 -148 48zM358 84q44 0 68 10t34 34t10 68v115q0 44 -10 68t-34 34t-68 10h-82q-45 0 -68.5 -10t-33.5 -33.5t-10 -68.5v-116q0 -44 10 -67.5
t34 -33.5t68 -10h82zM205 595q0 14 10 25l73 88q11 14 26 14q14 0 25 -10q14 -11 14 -26q0 -14 -10 -25l-73 -88q-11 -14 -26 -14q-12 0 -25 10q-14 11 -14 26zM364 595q0 14 10 25l73 88q11 14 26 14q14 0 25 -10q14 -11 14 -26q0 -14 -10 -25l-73 -88q-11 -14 -26 -14
q-12 0 -25 10q-14 11 -14 26z" />
    <glyph glyph-name="OE" unicode="&#x152;" horiz-adv-x="891" 
d="M824 73q11 -11 11 -31t-11 -31t-31 -11h-489q-115 0 -169.5 54.5t-54.5 169.5v231q0 115 54.5 169t169.5 54h489q20 0 31 -11t11 -31t-11 -31t-31 -11h-289v-210h171q20 0 31 -11t11 -31t-11 -31t-31 -11h-171v-216h289q20 0 31 -11zM177 139.5q13 -29.5 42.5 -42.5
t84.5 -13h116v510h-116q-54 0 -84 -12.5t-43 -42.5t-13 -84v-231q0 -55 13 -84.5z" />
    <glyph glyph-name="oe" unicode="&#x153;" horiz-adv-x="964" 
d="M128 28q-48 48 -48 147v112q0 101 48 149t148 47h52q57 0 93.5 -17.5t59.5 -62.5q23 45 59.5 63t91.5 17h60q99 0 145.5 -54t46.5 -167q0 -20 -11 -31t-32 -11h-317v-42q0 -45 10 -69.5t32.5 -34.5t64.5 -10h61q43 0 66.5 7t32.5 22.5t9 43.5q0 17 12.5 29.5t29.5 12.5
t29.5 -12.5t12.5 -29.5q0 -81 -47.5 -119t-144.5 -38h-61q-54 0 -90 18t-59 63q-24 -45 -61 -63t-93 -18h-52q-100 0 -148 48zM328 64q44 0 68 10t34 34t10 68v111q0 44 -10 68t-34 34t-68 10h-52q-44 1 -68 -9t-34 -34t-10 -69v-112q0 -44 10 -67.5t34 -33.5t68 -10h52z
M799 304q-6 54 -30 74.5t-77 20.5h-60q-59 1 -82.5 -19t-25.5 -76h275z" />
    <glyph glyph-name="Racute" unicode="&#x154;" horiz-adv-x="625" 
d="M277 766q0 14 10 25l73 88q11 14 26 14q14 0 25 -10q14 -11 14 -26q0 -14 -10 -25l-73 -88q-11 -14 -26 -14q-12 0 -25 10q-14 11 -14 26zM532 332q-37 -48 -107 -59l131 -218q6 -10 6 -22q0 -22 -22 -35q-13 -8 -23 -8q-20 0 -34 22l-152 253l-3 5h-140v-228
q0 -20 -11 -31t-31 -11t-31 11t-11 31v594q0 20 11 31t31 11h234q92 0 140.5 -48.5t48.5 -140.5v-30q0 -79 -37 -127zM485 489q0 56 -24 80.5t-81 24.5h-192v-240h192q57 0 81 24t24 81v30z" />
    <glyph glyph-name="racute" unicode="&#x155;" horiz-adv-x="427" 
d="M214 595q0 14 10 25l73 88q11 14 26 14q14 0 25 -10q14 -11 14 -26q0 -14 -10 -25l-73 -88q-11 -14 -26 -14q-12 0 -25 10q-14 11 -14 26zM399 496q11 -11 11 -31t-11 -31t-31 -11q-85 0 -131.5 -31.5t-48.5 -85.5v-264q0 -20 -11 -31t-31 -11t-31 11t-11 31v423
q0 42 42 42t42 -42v-39q61 81 180 81q20 0 31 -11z" />
    <glyph glyph-name="Rcommaaccent" unicode="&#x156;" horiz-adv-x="625" 
d="M378 -101q0 -6 -2 -14l-47 -96q-10 -17 -27 -17q-13 0 -21.5 6.5t-6.5 20.5l22 120q0 14 8.5 21.5t23.5 7.5h19q31 0 31 -30v-19zM532 332q-37 -48 -107 -59l131 -218q6 -10 6 -22q0 -22 -22 -35q-13 -8 -23 -8q-20 0 -34 22l-152 253l-3 5h-140v-228q0 -20 -11 -31
t-31 -11t-31 11t-11 31v594q0 20 11 31t31 11h234q92 0 140.5 -48.5t48.5 -140.5v-30q0 -79 -37 -127zM485 489q0 56 -24 80.5t-81 24.5h-192v-240h192q57 0 81 24t24 81v30z" />
    <glyph glyph-name="rcommaaccent" unicode="&#x157;" horiz-adv-x="427" 
d="M211 -101q0 -6 -2 -14l-47 -96q-10 -17 -27 -17q-13 0 -21.5 6.5t-6.5 20.5l22 120q0 14 8.5 21.5t23.5 7.5h19q31 0 31 -30v-19zM399 496q11 -11 11 -31t-11 -31t-31 -11q-85 0 -131.5 -31.5t-48.5 -85.5v-264q0 -20 -11 -31t-31 -11t-31 11t-11 31v423q0 42 42 42
t42 -42v-39q61 81 180 81q20 0 31 -11z" />
    <glyph glyph-name="Rcaron" unicode="&#x158;" horiz-adv-x="625" 
d="M210 867l92 -77h1l93 77q12 12 28 12q15 0 26.5 -11t11.5 -27q0 -9 -5 -18.5t-13 -14.5l-93 -76q-11 -10 -22 -14t-25 -4h-3q-26 0 -47 18l-92 76q-8 5 -13 14.5t-5 18.5q0 16 11 27t27 11t28 -12zM532 332q-37 -48 -107 -59l131 -218q6 -10 6 -22q0 -22 -22 -35
q-13 -8 -23 -8q-20 0 -34 22l-152 253l-3 5h-140v-228q0 -20 -11 -31t-31 -11t-31 11t-11 31v594q0 20 11 31t31 11h234q92 0 140.5 -48.5t48.5 -140.5v-30q0 -79 -37 -127zM485 489q0 56 -24 80.5t-81 24.5h-192v-240h192q57 0 81 24t24 81v30z" />
    <glyph glyph-name="rcaron" unicode="&#x159;" horiz-adv-x="427" 
d="M179 701l64 -71h12l64 71q9 10 25 10q14 0 24.5 -10.5t10.5 -24.5t-10 -24l-73 -73q-18 -19 -44 -19h-6q-26 0 -44 19l-73 73q-10 10 -10 24t10.5 24.5t24.5 10.5q15 0 25 -10zM399 496q11 -11 11 -31t-11 -31t-31 -11q-85 0 -131.5 -31.5t-48.5 -85.5v-264
q0 -20 -11 -31t-31 -11t-31 11t-11 31v423q0 42 42 42t42 -42v-39q61 81 180 81q20 0 31 -11z" />
    <glyph glyph-name="Sacute" unicode="&#x15a;" horiz-adv-x="692" 
d="M317 766q0 14 10 25l73 88q11 14 26 14q14 0 25 -10q14 -11 14 -26q0 -14 -10 -25l-73 -88q-11 -14 -26 -14q-12 0 -25 10q-14 11 -14 26zM139.5 34.5q-47.5 34.5 -59.5 106.5q-2 21 9 32.5t32 11.5q20 0 30 -9.5t14 -31.5q7 -34 31.5 -47t76.5 -13h144q44 0 67.5 10
t33.5 33.5t10 66.5q0 64 -24 88t-87 24h-124q-94 0 -140 46t-46 141q0 94 45.5 139.5t139.5 45.5h119q158 0 182 -132q3 -21 -8 -32.5t-33 -11.5q-20 0 -30 10t-13 31q-8 29 -30 40t-68 11h-119q-41 0 -62.5 -9t-30 -30.5t-8.5 -61.5q0 -41 9 -62.5t30.5 -31t62.5 -9.5h124
q99 0 147 -48t48 -148q0 -99 -48 -146.5t-147 -47.5h-144q-86 0 -133.5 34.5z" />
    <glyph glyph-name="sacute" unicode="&#x15b;" horiz-adv-x="611" 
d="M280 595q0 14 10 25l73 88q11 14 26 14q14 0 25 -10q14 -11 14 -26q0 -14 -10 -25l-73 -88q-11 -14 -26 -14q-12 0 -25 10q-14 11 -14 26zM75 105q-1 3 -1 9q0 17 11.5 26.5t30.5 9.5t29 -9.5t16 -31.5q6 -15 19.5 -20t42.5 -5h164q39 0 52.5 13t13.5 53t-13.5 53
t-52.5 13h-161q-145 0 -145 145q0 74 36 110t109 36h156q118 0 139 -99q1 -3 1 -9q0 -16 -11.5 -25.5t-30.5 -9.5t-28.5 9.5t-15.5 29.5q-6 12 -18 16t-36 4h-156q-26 0 -39 -4.5t-17.5 -17.5t-4.5 -40q0 -36 12 -48.5t49 -12.5h161q150 0 150 -150t-150 -150h-164
q-127 0 -148 105z" />
    <glyph glyph-name="Scircumflex" unicode="&#x15c;" horiz-adv-x="692" 
d="M234.5 741.5q-10.5 10.5 -10.5 24.5t10 24l73 73q18 19 44 19h6q26 0 44 -19l73 -73q10 -10 10 -24t-10.5 -24.5t-24.5 -10.5q-16 0 -25 10l-64 71h-12l-64 -71q-10 -10 -25 -10q-14 0 -24.5 10.5zM139.5 34.5q-47.5 34.5 -59.5 106.5q-2 21 9 32.5t32 11.5q20 0 30 -9.5
t14 -31.5q7 -34 31.5 -47t76.5 -13h144q44 0 67.5 10t33.5 33.5t10 66.5q0 64 -24 88t-87 24h-124q-94 0 -140 46t-46 141q0 94 45.5 139.5t139.5 45.5h119q158 0 182 -132q3 -21 -8 -32.5t-33 -11.5q-20 0 -30 10t-13 31q-8 29 -30 40t-68 11h-119q-41 0 -62.5 -9
t-30 -30.5t-8.5 -61.5q0 -41 9 -62.5t30.5 -31t62.5 -9.5h124q99 0 147 -48t48 -148q0 -99 -48 -146.5t-147 -47.5h-144q-86 0 -133.5 34.5z" />
    <glyph glyph-name="scircumflex" unicode="&#x15d;" horiz-adv-x="611" 
d="M197.5 570.5q-10.5 10.5 -10.5 24.5t10 24l73 73q18 19 44 19h6q26 0 44 -19l73 -73q10 -10 10 -24t-10.5 -24.5t-24.5 -10.5q-16 0 -25 10l-64 71h-12l-64 -71q-10 -10 -25 -10q-14 0 -24.5 10.5zM75 105q-1 3 -1 9q0 17 11.5 26.5t30.5 9.5t29 -9.5t16 -31.5
q6 -15 19.5 -20t42.5 -5h164q39 0 52.5 13t13.5 53t-13.5 53t-52.5 13h-161q-145 0 -145 145q0 74 36 110t109 36h156q118 0 139 -99q1 -3 1 -9q0 -16 -11.5 -25.5t-30.5 -9.5t-28.5 9.5t-15.5 29.5q-6 12 -18 16t-36 4h-156q-26 0 -39 -4.5t-17.5 -17.5t-4.5 -40
q0 -36 12 -48.5t49 -12.5h161q150 0 150 -150t-150 -150h-164q-127 0 -148 105z" />
    <glyph glyph-name="Scedilla" unicode="&#x15e;" horiz-adv-x="692" 
d="M566.5 49.5q-45.5 -47.5 -140.5 -49.5q2 -2 18 -15q22 -14 36.5 -32.5t14.5 -49.5q0 -117 -117 -117q-47 0 -72 25t-25 72q0 35 35 35t35 -35q0 -18 4.5 -22.5t22.5 -4.5q29 0 38 8.5t9 38.5q0 7 -3.5 11.5t-16.5 13.5q-19 12 -33.5 28.5t-18.5 43.5h-80
q-86 0 -133.5 34.5t-59.5 106.5q-2 21 9 32.5t32 11.5q20 0 30 -9.5t14 -31.5q7 -34 31.5 -47t76.5 -13h144q44 0 67.5 10t33.5 33.5t10 66.5q0 64 -24 88t-87 24h-124q-94 0 -140 46t-46 141q0 94 45.5 139.5t139.5 45.5h119q158 0 182 -132q3 -21 -8 -32.5t-33 -11.5
q-20 0 -30 10t-13 31q-8 29 -30 40t-68 11h-119q-41 0 -62.5 -9t-30 -30.5t-8.5 -61.5q0 -41 9 -62.5t30.5 -31t62.5 -9.5h124q99 0 147 -48t48 -148q0 -97 -45.5 -144.5z" />
    <glyph glyph-name="scedilla" unicode="&#x15f;" horiz-adv-x="611" 
d="M389 0q2 -2 18 -15q22 -15 36.5 -33t14.5 -49q0 -117 -117 -117q-47 0 -72 25t-25 72q0 35 35 35t35 -35q0 -18 4.5 -22.5t22.5 -4.5q29 0 38 8.5t9 38.5q0 7 -3.5 11.5t-16.5 13.5q-19 12 -33.5 28.5t-18.5 43.5h-93q-127 0 -148 105q-1 3 -1 9q0 17 11.5 26.5t30.5 9.5
t29 -9.5t16 -31.5q6 -15 19.5 -20t42.5 -5h164q39 0 52.5 13t13.5 53t-13.5 53t-52.5 13h-161q-145 0 -145 145q0 74 36 110t109 36h156q118 0 139 -99q1 -3 1 -9q0 -16 -11.5 -25.5t-30.5 -9.5t-28.5 9.5t-15.5 29.5q-6 12 -18 16t-36 4h-156q-26 0 -39 -4.5t-17.5 -17.5
t-4.5 -40q0 -36 12 -48.5t49 -12.5h161q150 0 150 -150q0 -149 -148 -150z" />
    <glyph glyph-name="Scaron" unicode="&#x160;" horiz-adv-x="692" 
d="M250 867l92 -77h1l93 77q12 12 28 12q15 0 26.5 -11t11.5 -27q0 -9 -5 -18.5t-13 -14.5l-93 -76q-11 -10 -22 -14t-25 -4h-3q-26 0 -47 18l-92 76q-8 5 -13 14.5t-5 18.5q0 16 11 27t27 11t28 -12zM139.5 34.5q-47.5 34.5 -59.5 106.5q-2 21 9 32.5t32 11.5q20 0 30 -9.5
t14 -31.5q7 -34 31.5 -47t76.5 -13h144q44 0 67.5 10t33.5 33.5t10 66.5q0 64 -24 88t-87 24h-124q-94 0 -140 46t-46 141q0 94 45.5 139.5t139.5 45.5h119q158 0 182 -132q3 -21 -8 -32.5t-33 -11.5q-20 0 -30 10t-13 31q-8 29 -30 40t-68 11h-119q-41 0 -62.5 -9
t-30 -30.5t-8.5 -61.5q0 -41 9 -62.5t30.5 -31t62.5 -9.5h124q99 0 147 -48t48 -148q0 -99 -48 -146.5t-147 -47.5h-144q-86 0 -133.5 34.5z" />
    <glyph glyph-name="scaron" unicode="&#x161;" horiz-adv-x="611" 
d="M245 701l64 -71h12l64 71q9 10 25 10q14 0 24.5 -10.5t10.5 -24.5t-10 -24l-73 -73q-18 -19 -44 -19h-6q-26 0 -44 19l-73 73q-10 10 -10 24t10.5 24.5t24.5 10.5q15 0 25 -10zM75 105q-1 3 -1 9q0 17 11.5 26.5t30.5 9.5t29 -9.5t16 -31.5q6 -15 19.5 -20t42.5 -5h164
q39 0 52.5 13t13.5 53t-13.5 53t-52.5 13h-161q-145 0 -145 145q0 74 36 110t109 36h156q118 0 139 -99q1 -3 1 -9q0 -16 -11.5 -25.5t-30.5 -9.5t-28.5 9.5t-15.5 29.5q-6 12 -18 16t-36 4h-156q-26 0 -39 -4.5t-17.5 -17.5t-4.5 -40q0 -36 12 -48.5t49 -12.5h161
q150 0 150 -150t-150 -150h-164q-127 0 -148 105z" />
    <glyph glyph-name="uni0162" unicode="&#x162;" horiz-adv-x="614" 
d="M585 635q0 -42 -42 -42h-194v-551q0 -14 -6 -25v-2q0 -9 3.5 -14.5t18.5 -15.5q22 -14 36.5 -32.5t14.5 -49.5q0 -117 -117 -117q-47 0 -72 25t-25 72q0 35 35 35t35 -35q0 -18 4.5 -22.5t22.5 -4.5q29 0 38 8.5t9 38.5q0 7 -3.5 11.5t-16.5 13.5q-21 13 -36.5 32.5
t-16.5 52.5q-8 11 -8 29v551h-194q-42 0 -42 42t42 42h472q42 0 42 -42z" />
    <glyph glyph-name="uni0163" unicode="&#x163;" horiz-adv-x="419" 
d="M360 42q0 -20 -11 -31t-31 -11q-31 0 -61 5q3 -8 21 -20q22 -15 36.5 -33t14.5 -49q0 -117 -117 -117q-47 0 -72 25t-25 72q0 35 35 35t35 -35q0 -18 4.5 -22.5t22.5 -4.5q29 0 38 8.5t9 38.5q0 7 -3.5 11.5t-16.5 13.5q-53 32 -53 87q0 11 3 18q-64 45 -64 159v231h-49
q-20 0 -31 11t-11 31q0 42 42 42h49v73q0 20 11 31t31 11t31 -11t11 -31v-73h115q42 0 42 -42q0 -20 -11 -31t-31 -11h-115v-231q0 -43 10 -66t33 -32.5t66 -9.5q42 0 42 -42z" />
    <glyph glyph-name="Tcaron" unicode="&#x164;" horiz-adv-x="614" 
d="M204 867l92 -77h1l93 77q12 12 28 12q15 0 26.5 -11t11.5 -27q0 -9 -5 -18.5t-13 -14.5l-93 -76q-11 -10 -22 -14t-25 -4h-3q-26 0 -47 18l-92 76q-8 5 -13 14.5t-5 18.5q0 16 11 27t27 11t28 -12zM265 42v551h-194q-42 0 -42 42t42 42h472q42 0 42 -42t-42 -42h-194
v-551q0 -20 -11 -31t-31 -11q-42 0 -42 42z" />
    <glyph glyph-name="tcaron" unicode="&#x165;" horiz-adv-x="419" 
d="M386 666q0 -6 -2 -14l1 -1l-46 -94q-10 -17 -27 -17q-13 0 -21 6.5t-6 20.5l21 116v1q0 29 31 29h19q30 0 30 -29v-18zM360 42q0 -20 -11 -31t-31 -11q-99 0 -146 47t-47 145v231h-49q-20 0 -31 11t-11 31q0 42 42 42h49v73q0 20 11 31t31 11t31 -11t11 -31v-73h115
q42 0 42 -42q0 -20 -11 -31t-31 -11h-115v-231q0 -43 10 -66t33 -32.5t66 -9.5q42 0 42 -42z" />
    <glyph glyph-name="Tbar" unicode="&#x166;" horiz-adv-x="614" 
d="M585 635q0 -42 -42 -42h-194v-219h90q17 0 26 -9t9 -26t-9 -26t-26 -9h-90v-262q0 -20 -11 -31t-31 -11q-42 0 -42 42v262h-88q-16 0 -25.5 9.5t-9.5 25.5q0 17 9.5 26t25.5 9h88v219h-194q-42 0 -42 42t42 42h472q42 0 42 -42z" />
    <glyph glyph-name="tbar" unicode="&#x167;" horiz-adv-x="409" 
d="M209 276v-84q0 -43 10 -66t33 -32.5t66 -9.5q42 0 42 -42q0 -20 -11 -31t-31 -11q-99 0 -146 47t-47 145v84h-56q-16 0 -25.5 9.5t-9.5 25.5q0 17 9.5 26t25.5 9h56v77h-49q-20 0 -31 11t-11 31q0 42 42 42h49v73q0 20 11 31t31 11t31 -11t11 -31v-73h115q42 0 42 -42
q0 -20 -11 -31t-31 -11h-115v-77h122q17 0 26 -9t9 -26q0 -16 -9 -25.5t-26 -9.5h-122z" />
    <glyph glyph-name="Utilde" unicode="&#x168;" horiz-adv-x="756" 
d="M403.5 745q-17.5 11 -36.5 30q-13 14 -20.5 18t-16.5 4q-26 0 -39 -31q-11 -26 -30 -26q-7 0 -16 3q-22 8 -22 25q0 9 4 17q17 41 41.5 60t61.5 19q29 0 47.5 -11.5t37.5 -30.5q13 -13 19 -16.5t16 -3.5t16.5 5t12.5 20q11 28 31 28q3 0 13 -2q24 -6 24 -26q0 -6 -3 -15
q-14 -40 -37 -59t-57 -19q-29 0 -46.5 11zM148.5 54.5q-54.5 54.5 -54.5 169.5v412q0 42 42 42t42 -42v-412q0 -55 13 -84.5t42.5 -42.5t84.5 -13h120q55 0 84.5 13t42.5 42.5t13 84.5v412q0 42 42 42t42 -42v-412q0 -115 -54.5 -169.5t-169.5 -54.5h-120
q-115 0 -169.5 54.5z" />
    <glyph glyph-name="utilde" unicode="&#x169;" horiz-adv-x="662" 
d="M353.5 574q-17.5 11 -36.5 30q-13 14 -20.5 18t-16.5 4q-26 0 -39 -31q-11 -26 -30 -26q-7 0 -16 3q-22 8 -22 25q0 9 4 17q17 41 41.5 60t61.5 19q29 0 47.5 -11.5t37.5 -30.5q13 -13 19 -16.5t16 -3.5t16.5 5t12.5 20q11 28 31 28q3 0 13 -2q24 -6 24 -26q0 -6 -3 -15
q-14 -40 -37 -59t-57 -19q-29 0 -46.5 11zM547 496q11 -11 11 -31v-423q0 -42 -42 -42t-42 42v17q-53 -59 -156 -59h-28q-100 0 -148 48t-48 148v269q0 20 11 31t31 11t31 -11t11 -31v-269q0 -44 10 -68t34 -34t68 -10h28q63 0 106.5 14.5t49.5 42.5v324q0 20 11 31t31 11
t31 -11z" />
    <glyph glyph-name="Umacron" unicode="&#x16a;" horiz-adv-x="756" 
d="M204 804q0 42 42 42h253q42 0 42 -42t-42 -42h-253q-42 0 -42 42zM148.5 54.5q-54.5 54.5 -54.5 169.5v412q0 42 42 42t42 -42v-412q0 -55 13 -84.5t42.5 -42.5t84.5 -13h120q55 0 84.5 13t42.5 42.5t13 84.5v412q0 42 42 42t42 -42v-412q0 -115 -54.5 -169.5
t-169.5 -54.5h-120q-115 0 -169.5 54.5z" />
    <glyph glyph-name="umacron" unicode="&#x16b;" horiz-adv-x="662" 
d="M154 633q0 42 42 42h253q42 0 42 -42t-42 -42h-253q-42 0 -42 42zM547 496q11 -11 11 -31v-423q0 -42 -42 -42t-42 42v17q-53 -59 -156 -59h-28q-100 0 -148 48t-48 148v269q0 20 11 31t31 11t31 -11t11 -31v-269q0 -44 10 -68t34 -34t68 -10h28q63 0 106.5 14.5
t49.5 42.5v324q0 20 11 31t31 11t31 -11z" />
    <glyph glyph-name="Ubreve" unicode="&#x16c;" horiz-adv-x="756" 
d="M291.5 750q-35.5 25 -35.5 71v21q0 18 9.5 27.5t26.5 9.5q37 0 37 -37v-21q0 -16 14.5 -22t56.5 -6q33 0 45.5 6.5t12.5 21.5v33q0 12 9.5 18.5t26.5 6.5q37 0 37 -37v-21q0 -46 -36 -71t-102 -25t-101.5 25zM148.5 54.5q-54.5 54.5 -54.5 169.5v412q0 42 42 42t42 -42
v-412q0 -55 13 -84.5t42.5 -42.5t84.5 -13h120q55 0 84.5 13t42.5 42.5t13 84.5v412q0 42 42 42t42 -42v-412q0 -115 -54.5 -169.5t-169.5 -54.5h-120q-115 0 -169.5 54.5z" />
    <glyph glyph-name="ubreve" unicode="&#x16d;" horiz-adv-x="662" 
d="M241.5 579q-35.5 25 -35.5 71v21q0 18 9.5 27.5t26.5 9.5q37 0 37 -37v-21q0 -16 14.5 -22t56.5 -6q33 0 45.5 6.5t12.5 21.5v33q0 12 9.5 18.5t26.5 6.5q37 0 37 -37v-21q0 -46 -36 -71t-102 -25t-101.5 25zM547 496q11 -11 11 -31v-423q0 -42 -42 -42t-42 42v17
q-53 -59 -156 -59h-28q-100 0 -148 48t-48 148v269q0 20 11 31t31 11t31 -11t11 -31v-269q0 -44 10 -68t34 -34t68 -10h28q63 0 106.5 14.5t49.5 42.5v324q0 20 11 31t31 11t31 -11z" />
    <glyph glyph-name="Uring" unicode="&#x16e;" horiz-adv-x="756" 
d="M324 749.5q-21 20.5 -21 56.5t21 56.5t56 20.5q36 0 57 -20.5t21 -56.5t-21 -56.5t-57 -20.5q-35 0 -56 20.5zM395.5 787.5q4.5 1.5 4.5 8.5v16q0 10 -1.5 12t-9.5 2h-7q-16 0 -19 -2t-3 -11v-7q0 -14 2 -17t10 -3q19 0 23.5 1.5zM148.5 54.5q-54.5 54.5 -54.5 169.5v412
q0 42 42 42t42 -42v-412q0 -55 13 -84.5t42.5 -42.5t84.5 -13h120q55 0 84.5 13t42.5 42.5t13 84.5v412q0 42 42 42t42 -42v-412q0 -115 -54.5 -169.5t-169.5 -54.5h-120q-115 0 -169.5 54.5z" />
    <glyph glyph-name="uring" unicode="&#x16f;" horiz-adv-x="662" 
d="M274 578.5q-21 20.5 -21 56.5t21 56.5t56 20.5q36 0 57 -20.5t21 -56.5t-21 -56.5t-57 -20.5q-35 0 -56 20.5zM345.5 616.5q4.5 1.5 4.5 8.5v16q0 10 -1.5 12t-9.5 2h-7q-16 0 -19 -2t-3 -11v-7q0 -14 2 -17t10 -3q19 0 23.5 1.5zM547 496q11 -11 11 -31v-423
q0 -42 -42 -42t-42 42v17q-53 -59 -156 -59h-28q-100 0 -148 48t-48 148v269q0 20 11 31t31 11t31 -11t11 -31v-269q0 -44 10 -68t34 -34t68 -10h28q63 0 106.5 14.5t49.5 42.5v324q0 20 11 31t31 11t31 -11z" />
    <glyph glyph-name="Uhungarumlaut" unicode="&#x170;" horiz-adv-x="756" 
d="M148.5 54.5q-54.5 54.5 -54.5 169.5v412q0 42 42 42t42 -42v-412q0 -55 13 -84.5t42.5 -42.5t84.5 -13h120q55 0 84.5 13t42.5 42.5t13 84.5v412q0 42 42 42t42 -42v-412q0 -115 -54.5 -169.5t-169.5 -54.5h-120q-115 0 -169.5 54.5zM266 766q0 14 10 25l73 88
q11 14 26 14q14 0 25 -10q14 -11 14 -26q0 -14 -10 -25l-73 -88q-11 -14 -26 -14q-12 0 -25 10q-14 11 -14 26zM425 766q0 14 10 25l73 88q11 14 26 14q14 0 25 -10q14 -11 14 -26q0 -14 -10 -25l-73 -88q-11 -14 -26 -14q-12 0 -25 10q-14 11 -14 26z" />
    <glyph glyph-name="uhungarumlaut" unicode="&#x171;" horiz-adv-x="662" 
d="M547 496q11 -11 11 -31v-423q0 -42 -42 -42t-42 42v17q-53 -59 -156 -59h-28q-100 0 -148 48t-48 148v269q0 20 11 31t31 11t31 -11t11 -31v-269q0 -44 10 -68t34 -34t68 -10h28q63 0 106.5 14.5t49.5 42.5v324q0 20 11 31t31 11t31 -11zM216 595q0 14 10 25l73 88
q11 14 26 14q14 0 25 -10q14 -11 14 -26q0 -14 -10 -25l-73 -88q-11 -14 -26 -14q-12 0 -25 10q-14 11 -14 26zM375 595q0 14 10 25l73 88q11 14 26 14q14 0 25 -10q14 -11 14 -26q0 -14 -10 -25l-73 -88q-11 -14 -26 -14q-12 0 -25 10q-14 11 -14 26z" />
    <glyph glyph-name="Uogonek" unicode="&#x172;" horiz-adv-x="756" 
d="M534 -46q-11 -13 -11 -25q0 -9 8.5 -15t21.5 -6q7 0 16 2.5t13 1.5q10 2 13 2q20 0 29 -11t9 -28q0 -15 -17 -25q-32 -15 -63 -15q-44 0 -73.5 27t-29.5 67q0 35 25 68l4 5q-26 -2 -41 -2h-120q-115 0 -169.5 54.5t-54.5 169.5v412q0 42 42 42t42 -42v-412
q0 -55 13 -84.5t42.5 -42.5t84.5 -13h120q55 0 84.5 13t42.5 42.5t13 84.5v412q0 42 42 42t42 -42v-412q0 -104 -44 -158q-6 -9 -7 -10z" />
    <glyph glyph-name="uogonek" unicode="&#x173;" horiz-adv-x="662" 
d="M612.5 -91.5q10.5 -10.5 10.5 -25.5q0 -16 -10 -26q-22 -21 -48 -33t-53 -12q-44 0 -73.5 27.5t-29.5 67.5q0 34 25 67l41 59q-1 3 -1 9v17q-53 -59 -156 -59h-28q-100 0 -148 48t-48 148v269q0 20 11 31t31 11t31 -11t11 -31v-269q0 -44 10 -68t34 -34t68 -10h28
q63 0 106.5 14.5t49.5 42.5v324q0 20 11 31t31 11t31 -11t11 -31v-423q0 -18 -8 -29l-4 -5l-53 -77q-11 -12 -11 -24q0 -10 8.5 -16t21.5 -6q26 0 48 24q14 10 26 10q16 0 26.5 -10.5z" />
    <glyph glyph-name="Wcircumflex" unicode="&#x174;" horiz-adv-x="898" 
d="M302 730q-11 11 -11 27q0 9 5 18.5t13 14.5l92 76q21 18 47 18h3q14 0 25 -4t22 -14l93 -76q8 -5 13 -14.5t5 -18.5q0 -16 -11.5 -27t-26.5 -11q-16 0 -28 12l-93 77h-1l-92 -77q-12 -12 -28 -12t-27 11zM874 639q0 -8 -3 -17l-185 -586q-7 -18 -17 -27t-27 -9h-2
q-32 0 -44 36l-154 497l1 -20l-148 -477q-7 -19 -16.5 -27.5t-27.5 -8.5q-15 0 -24 8.5t-15 27.5l-185 586q-3 11 -3 18q0 11 6.5 19t20.5 15q12 5 20 5q24 0 35 -32l152 -483l144 478q6 18 17.5 27t30.5 9q35 -1 46 -36l144 -478l152 483q10 31 35 31q6 0 20 -4
q27 -13 27 -35z" />
    <glyph glyph-name="wcircumflex" unicode="&#x175;" horiz-adv-x="752" 
d="M251.5 570.5q-10.5 10.5 -10.5 24.5t10 24l73 73q18 19 44 19h6q26 0 44 -19l73 -73q10 -10 10 -24t-10.5 -24.5t-24.5 -10.5q-16 0 -25 10l-64 71h-12l-64 -71q-10 -10 -25 -10q-14 0 -24.5 10.5zM717 469q0 -10 -4 -19l-152 -416q-12 -34 -47 -34q-37 0 -46 35l-98 327
l-106 -328q-5 -16 -16.5 -25t-27.5 -9q-32 0 -44 34l-139 418q-3 9 -3 17q0 26 30 35q10 3 18 3q24 0 35 -30l110 -327l103 327q10 33 48 33q35 0 45 -35l98 -325l113 328q11 30 35 30q5 0 19 -4q29 -11 29 -35z" />
    <glyph glyph-name="Ycircumflex" unicode="&#x176;" horiz-adv-x="615" 
d="M159 730q-11 11 -11 27q0 9 5 18.5t13 14.5l92 76q21 18 47 18h3q14 0 25 -4t22 -14l93 -76q8 -5 13 -14.5t5 -18.5q0 -16 -11.5 -27t-26.5 -11q-16 0 -28 12l-93 77h-1l-92 -77q-12 -12 -28 -12t-27 11zM592 635q0 -12 -9 -24l-238 -365v-204q0 -20 -11 -31t-31 -11
t-31 11t-11 31v204l-229 365q-8 14 -8 25q0 21 21 34q14 8 25 8q19 0 33 -21l200 -321l210 321q12 20 32 20q12 0 25 -9q22 -14 22 -33z" />
    <glyph glyph-name="ycircumflex" unicode="&#x177;" horiz-adv-x="680" 
d="M216.5 570.5q-10.5 10.5 -10.5 24.5t10 24l73 73q18 19 44 19h6q26 0 44 -19l73 -73q10 -10 10 -24t-10.5 -24.5t-24.5 -10.5q-16 0 -25 10l-64 71h-12l-64 -71q-10 -10 -25 -10q-14 0 -24.5 10.5zM94 -55q0 42 42 42t42 -42q0 -38 11.5 -49.5t48.5 -11.5h194
q37 0 48.5 12t11.5 49v127q-28 -42 -65.5 -57t-90.5 -15h-49q-99 0 -146 47t-47 145v273q0 42 42 42t42 -42v-273q0 -43 9.5 -66t33 -32.5t66.5 -9.5h49q81 0 118.5 26.5t37.5 81.5v273q0 42 42 42t42 -42v-520q0 -145 -144 -145h-194q-144 0 -144 145z" />
    <glyph glyph-name="Ydieresis" unicode="&#x178;" horiz-adv-x="615" 
d="M592 635q0 -12 -9 -24l-238 -365v-204q0 -20 -11 -31t-31 -11t-31 11t-11 31v204l-229 365q-8 14 -8 25q0 21 21 34q14 8 25 8q19 0 33 -21l200 -321l210 321q12 20 32 20q12 0 25 -9q22 -14 22 -33zM183.5 762.5q-10.5 10.5 -10.5 29.5v25q0 19 10.5 29t29.5 10h24
q38 0 38 -39v-25q0 -19 -9.5 -29.5t-28.5 -10.5h-24q-19 0 -29.5 10.5zM350.5 762.5q-10.5 10.5 -10.5 29.5v25q0 19 10.5 29t29.5 10h24q38 0 38 -39v-25q0 -19 -9.5 -29.5t-28.5 -10.5h-24q-19 0 -29.5 10.5z" />
    <glyph glyph-name="Zacute" unicode="&#x179;" horiz-adv-x="689" 
d="M325 766q0 14 10 25l73 88q11 14 26 14q14 0 25 -10q14 -11 14 -26q0 -14 -10 -25l-73 -88q-11 -14 -26 -14q-12 0 -25 10q-14 11 -14 26zM626.5 152.5q11.5 -11.5 8.5 -32.5q-12 -59 -53 -89.5t-109 -30.5h-369q-20 0 -30.5 11t-10.5 31q0 13 16 36l394 516h-259
q-32 0 -50 -9.5t-25 -31.5q-5 -20 -15 -29.5t-29 -9.5t-30.5 9.5t-11.5 25.5q0 6 1 9q12 58 52.5 89t107.5 31h334q21 0 31.5 -11t10.5 -31q0 -17 -16 -38l-394 -514h293q34 0 52 9.5t24 31.5q6 20 16 29.5t29 9.5q21 0 32.5 -11.5z" />
    <glyph glyph-name="zacute" unicode="&#x17a;" horiz-adv-x="545" 
d="M248 595q0 14 10 25l73 88q11 14 26 14q14 0 25 -10q14 -11 14 -26q0 -14 -10 -25l-73 -88q-11 -14 -26 -14q-12 0 -25 10q-14 11 -14 26zM497.5 135q11.5 -9 11.5 -25q0 -6 -1 -10q-11 -49 -46.5 -74.5t-93.5 -25.5h-259q-20 0 -31 11t-11 31q0 19 18 41l272 340h-171
q-26 0 -38 -4t-18 -16q-6 -21 -15 -30.5t-28 -9.5q-20 0 -31 9t-11 26q0 6 1 9q19 100 140 100h245q42 0 42 -42q0 -20 -18 -42l-270 -338l183 -1q24 0 36.5 4.5t18.5 16.5q7 21 16.5 30t27.5 9q19 0 30.5 -9z" />
    <glyph glyph-name="Zdotaccent" unicode="&#x17b;" horiz-adv-x="689" 
d="M312.5 773q-12.5 13 -12.5 35v30q0 23 12.5 34.5t35.5 11.5h29q45 0 45 -46v-30q0 -23 -11.5 -35.5t-33.5 -12.5h-29q-23 0 -35.5 13zM626.5 152.5q11.5 -11.5 8.5 -32.5q-12 -59 -53 -89.5t-109 -30.5h-369q-20 0 -30.5 11t-10.5 31q0 13 16 36l394 516h-259
q-32 0 -50 -9.5t-25 -31.5q-5 -20 -15 -29.5t-29 -9.5t-30.5 9.5t-11.5 25.5q0 6 1 9q12 58 52.5 89t107.5 31h334q21 0 31.5 -11t10.5 -31q0 -17 -16 -38l-394 -514h293q34 0 52 9.5t24 31.5q6 20 16 29.5t29 9.5q21 0 32.5 -11.5z" />
    <glyph glyph-name="zdotaccent" unicode="&#x17c;" horiz-adv-x="545" 
d="M235.5 602q-12.5 13 -12.5 35v30q0 23 12.5 34.5t35.5 11.5h29q45 0 45 -46v-30q0 -23 -11.5 -35.5t-33.5 -12.5h-29q-23 0 -35.5 13zM497.5 135q11.5 -9 11.5 -25q0 -6 -1 -10q-11 -49 -46.5 -74.5t-93.5 -25.5h-259q-20 0 -31 11t-11 31q0 19 18 41l272 340h-171
q-26 0 -38 -4t-18 -16q-6 -21 -15 -30.5t-28 -9.5q-20 0 -31 9t-11 26q0 6 1 9q19 100 140 100h245q42 0 42 -42q0 -20 -18 -42l-270 -338l183 -1q24 0 36.5 4.5t18.5 16.5q7 21 16.5 30t27.5 9q19 0 30.5 -9z" />
    <glyph glyph-name="Zcaron" unicode="&#x17d;" horiz-adv-x="689" 
d="M258 867l92 -77h1l93 77q12 12 28 12q15 0 26.5 -11t11.5 -27q0 -9 -5 -18.5t-13 -14.5l-93 -76q-11 -10 -22 -14t-25 -4h-3q-26 0 -47 18l-92 76q-8 5 -13 14.5t-5 18.5q0 16 11 27t27 11t28 -12zM626.5 152.5q11.5 -11.5 8.5 -32.5q-12 -59 -53 -89.5t-109 -30.5h-369
q-20 0 -30.5 11t-10.5 31q0 13 16 36l394 516h-259q-32 0 -50 -9.5t-25 -31.5q-5 -20 -15 -29.5t-29 -9.5t-30.5 9.5t-11.5 25.5q0 6 1 9q12 58 52.5 89t107.5 31h334q21 0 31.5 -11t10.5 -31q0 -17 -16 -38l-394 -514h293q34 0 52 9.5t24 31.5q6 20 16 29.5t29 9.5
q21 0 32.5 -11.5z" />
    <glyph glyph-name="zcaron" unicode="&#x17e;" horiz-adv-x="545" 
d="M213 701l64 -71h12l64 71q9 10 25 10q14 0 24.5 -10.5t10.5 -24.5t-10 -24l-73 -73q-18 -19 -44 -19h-6q-26 0 -44 19l-73 73q-10 10 -10 24t10.5 24.5t24.5 10.5q15 0 25 -10zM497.5 135q11.5 -9 11.5 -25q0 -6 -1 -10q-11 -49 -46.5 -74.5t-93.5 -25.5h-259
q-20 0 -31 11t-11 31q0 19 18 41l272 340h-171q-26 0 -38 -4t-18 -16q-6 -21 -15 -30.5t-28 -9.5q-20 0 -31 9t-11 26q0 6 1 9q19 100 140 100h245q42 0 42 -42q0 -20 -18 -42l-270 -338l183 -1q24 0 36.5 4.5t18.5 16.5q7 21 16.5 30t27.5 9q19 0 30.5 -9z" />
    <glyph glyph-name="longs" unicode="&#x17f;" horiz-adv-x="383" 
d="M289 647q-35 0 -48.5 -19t-13.5 -48v-580h-149v586q0 70 23.5 108.5t67 54.5t101.5 16q48 0 81 -7t55 -16l-35 -109q-17 5 -37 9.5t-45 4.5z" />
    <glyph glyph-name="uni0180" unicode="&#x180;" horiz-adv-x="633" 
d="M378 -10q-60 0 -94.5 21.5t-56.5 48.5h-10l-25 -60h-114v584h-76v97h76v79h149v-79h154v-97h-154v-14q0 -51 -6 -105h6q22 34 59 57.5t96 23.5q61 0 107.5 -27.5t72.5 -87t26 -157.5q0 -140 -58 -212t-152 -72zM336 111q46 0 73 42.5t27 122.5t-27.5 115.5t-74.5 35.5
q-104 0 -107 -146v-6q0 -79 23.5 -121.5t85.5 -42.5z" />
    <glyph glyph-name="uni0181" unicode="&#x181;" horiz-adv-x="794" 
d="M213 0v590h-26q-31 0 -46 -16.5t-15 -39.5q0 -17 3.5 -28.5t6.5 -19.5h-118q-4 8 -8 23t-4 35q0 46 17.5 84.5t58.5 62t109 23.5h244q143 0 215.5 -40t72.5 -141q0 -61 -28.5 -103t-81.5 -51v-5q35 -8 64.5 -25.5t46.5 -51.5t17 -90q0 -97 -70.5 -152t-191.5 -55h-266z
M363 431h88q66 0 91.5 20.5t25.5 61.5t-30 59t-95 18h-80v-159zM363 125h99q68 0 95 26.5t27 70.5q0 40 -27.5 64.5t-99.5 24.5h-94v-186z" />
    <glyph glyph-name="uni0182" unicode="&#x182;" horiz-adv-x="638" 
d="M469 642q51 0 51 -42t-51 -42h-306v-76h147q69 0 124.5 -32.5t87 -89t31.5 -126.5t-31.5 -126.5t-87 -88.5t-124.5 -32h-191q-40 0 -40 49v606h390zM163 398v-327h147q72 0 115.5 44.5t43.5 118.5q0 73 -44 118.5t-115 45.5h-147z" />
    <glyph glyph-name="uni0183" unicode="&#x183;" horiz-adv-x="633" 
d="M378 -10q-60 0 -94.5 21.5t-56.5 48.5h-10l-25 -60h-114v760h456v-112h-307v-75q0 -21 -1 -44.5t-2.5 -41t-2.5 -22.5h6q22 34 59 57.5t96 23.5q61 0 107.5 -27.5t72.5 -87t26 -157.5q0 -140 -58 -212t-152 -72zM336 111q46 0 73 42.5t27 122.5t-27.5 115.5t-74.5 35.5
q-104 0 -107 -146v-6q0 -79 23.5 -121.5t85.5 -42.5z" />
    <glyph glyph-name="uni0184" unicode="&#x184;" horiz-adv-x="661" 
d="M349 -10q-125 0 -194.5 51.5t-69.5 168.5v504h151v-274h88q100 0 165 -28t96 -78t31 -116q0 -106 -67 -167t-200 -61zM345 114q53 0 85.5 24t32.5 80q0 61 -43 79.5t-117 18.5h-67v-98q0 -55 28 -79.5t81 -24.5z" />
    <glyph glyph-name="uni0185" unicode="&#x185;" horiz-adv-x="634" 
d="M335 -10q-124 0 -192 71.5t-68 205.5v493h149v-177q0 -30 -2 -59.5t-4 -48.5h6q22 34 61 57.5t98 23.5q91 0 148.5 -72t57.5 -211q0 -95 -33 -158t-90.5 -94t-130.5 -31zM332 110q51 0 78 38t27 125q0 83 -27.5 123.5t-74.5 40.5q-59 0 -85 -37.5t-26 -108.5v-26
q0 -83 27.5 -119t80.5 -36z" />
    <glyph glyph-name="uni0186" unicode="&#x186;" horiz-adv-x="637" 
d="M247 -10q-57 0 -101 9t-90 28v127q51 -18 92.5 -28t84.5 -10q94 0 142 63.5t48 178.5q0 112 -48 176t-136 64q-43 0 -81 -14t-74 -33l-49 123q46 23 102.5 36.5t117.5 13.5q107 0 179 -46t108.5 -127.5t36.5 -189.5q0 -111 -36.5 -194.5t-110.5 -130t-185 -46.5z" />
    <glyph glyph-name="uni0187" unicode="&#x187;" horiz-adv-x="637" 
d="M636 879q22 0 41.5 -5.5t28.5 -9.5v-114q-8 3 -23 6.5t-32 3.5q-23 0 -36 -13t-13 -43v-40l-49 -113q-40 19 -80.5 33t-79.5 14q-87 0 -133 -65t-46 -178q0 -114 42.5 -176.5t136.5 -62.5q43 0 87 10t95 28v-127q-47 -19 -93 -28t-103 -9q-111 0 -182 45.5t-105 128
t-34 192.5q0 108 39 191t113.5 130t182.5 47q45 0 89 -11v10q0 80 45 118t109 38z" />
    <glyph glyph-name="uni0188" unicode="&#x188;" horiz-adv-x="514" 
d="M300 -10q-122 0 -188.5 67t-66.5 213q0 100 34 163t94.5 93t139.5 30q13 0 25.5 -1t24.5 -3v41q0 92 43 132t112 40q22 0 41 -5.5t28 -9.5v-114q-8 3 -23 6.5t-32 3.5q-23 0 -36 -13t-13 -43v-76l-44 -110q-35 14 -65.5 23t-60.5 9q-116 0 -116 -165q0 -82 30.5 -121
t85.5 -39q47 0 83 12.5t70 34.5v-127q-34 -22 -71.5 -31.5t-94.5 -9.5z" />
    <glyph glyph-name="uni0189" unicode="&#x189;" horiz-adv-x="740" 
d="M579.5 616.5q61.5 -61.5 61.5 -192.5v-170q0 -131 -61.5 -192.5t-192.5 -61.5h-241q-20 0 -31 11t-11 31v261h-42q-16 0 -25.5 9.5t-9.5 25.5q0 17 9.5 26t25.5 9h42v263q0 20 11 31t31 11h241q131 0 192.5 -61.5zM557 424q0 65 -16 101.5t-52.5 52.5t-101.5 16h-199
v-221h136q17 0 26 -9t9 -26t-9 -26t-26 -9h-136v-219h199q65 0 101.5 16t52.5 52.5t16 101.5v170z" />
    <glyph glyph-name="uni018A" unicode="&#x18a;" horiz-adv-x="862" 
d="M212 0v590h-26q-32 0 -46.5 -16.5t-14.5 -39.5q0 -17 3.5 -28.5t6.5 -19.5h-118q-4 8 -8 23t-4 35q0 46 17.5 84.5t58.5 62t109 23.5h246q112 0 194.5 -40t128 -118t45.5 -192q0 -181 -103 -272.5t-287 -91.5h-202zM363 125h65q219 0 219 235q0 118 -52 174t-151 56h-81
v-465z" />
    <glyph glyph-name="uni018B" unicode="&#x18b;" horiz-adv-x="638" 
d="M328 0q-150 0 -216.5 57t-66.5 162q0 63 31.5 113t97 79t168.5 29h55v149h-300v125h451v-714h-220zM346 124h51v192h-39q-74 0 -117 -18.5t-43 -75.5q0 -55 39.5 -76.5t108.5 -21.5z" />
    <glyph glyph-name="uni018C" unicode="&#x18c;" horiz-adv-x="633" 
d="M251 -10q-91 0 -148.5 71.5t-57.5 210.5q0 132 58 203t152 71q59 0 97 -23t60 -57h5l-2.5 18.5t-5.5 44t-3 46.5v73h-307v112h456v-760h-114l-29 71h-6q-22 -34 -59 -57.5t-96 -23.5zM303 109q61 0 86 36.5t27 109.5v16q0 73 -24.5 113.5t-90.5 40.5q-49 0 -77 -40
t-28 -115q0 -80 28 -120.5t79 -40.5z" />
    <glyph glyph-name="uni018D" unicode="&#x18d;" horiz-adv-x="619" 
d="M491 498q48 -48 48 -147v-76q0 -101 -43.5 -146t-142.5 -45q-11 1 -34 4.5t-27 6.5l219 -162q11 -8 14.5 -19t3.5 -25q0 -21 -11 -34t-31 -13h-245q-122 0 -140 100q-1 3 -1 9q0 17 11 26t31 9q17 0 24 -8t19 -32q6 -12 24 -20t42 -8h161l-215 158q-41 30 -60.5 62
t-24 62t-4.5 75v75q0 100 46.5 148t145.5 48h42q100 0 148 -48zM296 462q-44 0 -68 -10t-34 -34t-10 -68v-75q0 -44 10 -68t34 -34t68 -10h47q45 0 68.5 10t33.5 33.5t10 68.5v76q0 44 -10 67.5t-34 33.5t-68 10h-47z" />
    <glyph glyph-name="uni018E" unicode="&#x18e;" horiz-adv-x="560" 
d="M59 0v125h260v184h-242v124h242v157h-260v124h411v-714h-411z" />
    <glyph glyph-name="uni018F" unicode="&#x18f;" horiz-adv-x="728" 
d="M134.5 54.5q-54.5 54.5 -54.5 169.5v105h484v121q0 54 -13 84t-43 43t-84 13h-120q-54 0 -84 -13t-43 -43t-13 -84q0 -18 -12.5 -30t-29.5 -12t-29.5 12t-12.5 30q0 115 54.5 169.5t169.5 54.5h120q115 0 169.5 -54.5t54.5 -169.5v-226q0 -115 -54.5 -169.5t-169.5 -54.5
h-120q-115 0 -169.5 54.5zM424 84q55 0 84.5 13t42.5 42.5t13 84.5v21h-400v-21q0 -55 13 -84.5t42.5 -42.5t84.5 -13h120z" />
    <glyph glyph-name="uni0190" unicode="&#x190;" horiz-adv-x="648" 
d="M331 724q87 0 151 -20.5t120 -57.5l-66 -101q-42 26 -90 42t-104 16q-64 0 -97 -21.5t-33 -58.5q0 -29 19 -49.5t66.5 -32t131.5 -11.5h60v-118h-67q-112 0 -170.5 -23.5t-58.5 -74.5q0 -50 42.5 -77.5t137.5 -27.5q34 0 74 5.5t79 16t70 25.5v-127q-46 -19 -110.5 -29
t-145.5 -10q-148 0 -222.5 58.5t-74.5 153.5q0 74 53.5 118.5t148.5 52.5v3q-78 11 -129 49t-51 112q0 57 33 99t92.5 65t140.5 23z" />
    <glyph glyph-name="uni0191" unicode="&#x191;" horiz-adv-x="549" 
d="M62 -240q-26 0 -48 5t-32 10v114q8 -3 23 -6.5t32 -3.5q23 0 38 15t15 45v775h409v-124h-260v-184h242v-124h-242v-346q0 -92 -47.5 -134t-129.5 -42z" />
    <glyph glyph-name="florin" unicode="&#x192;" horiz-adv-x="328" 
d="M265.5 589q-21.5 -26 -31.5 -81v-1h77q20 0 31 -11t11 -31t-11 -31t-31 -11h-92l-58 -323q-8 -40 -30 -66t-57 -34q-8 -2 -12 -2q-15 0 -23.5 11.5t-8.5 29.5t8 27.5t29 19.5q11 13 12 29l55 308h-38q-20 0 -31 11t-11 31t11 31t31 11h53l3 15q15 85 57 128.5t118 55.5
q21 3 32 -8t11 -33q0 -20 -10 -30t-30 -13q-43 -7 -64.5 -33z" />
    <glyph glyph-name="uni0193" unicode="&#x193;" horiz-adv-x="724" 
d="M678 879q22 0 41.5 -5.5t28.5 -9.5v-114q-8 3 -23 6.5t-32 3.5q-23 0 -36 -13t-13 -43v-33l-51 -112q-33 17 -75 28t-88 11q-66 0 -114.5 -30t-75 -85t-26.5 -128q0 -70 19 -124t60 -84.5t107 -30.5q32 0 54 3t42 7v149h-135v126h283v-370q-56 -19 -117 -30t-137 -11
q-160 0 -246 94t-86 274q0 112 43 194t126.5 127t203.5 45q48 0 93 -9v9q0 54 21 88t56 50.5t77 16.5z" />
    <glyph glyph-name="uni0194" unicode="&#x194;" horiz-adv-x="650" 
d="M319 -240q-69 0 -105 40t-36 104q0 50 18.5 103t47.5 118l-244 589h156l121 -311q5 -15 13.5 -40t16 -52t12.5 -47q7 31 21.5 71t25.5 67l128 312h156l-257 -591q31 -63 50 -119.5t19 -100.5q0 -61 -37 -102t-106 -41zM320 -151q34 0 34 54q0 21 -8.5 54.5t-25.5 67.5
q-18 -33 -26 -66.5t-8 -53.5q0 -29 9.5 -42.5t24.5 -13.5z" />
    <glyph glyph-name="uni0195" unicode="&#x195;" horiz-adv-x="987" 
d="M667 -10q-125 0 -184.5 52t-59.5 174v103q0 118 -84 118q-62 0 -87 -46.5t-25 -133.5v-257h-149v760h149v-154q0 -32 -2 -65t-5 -65h8q52 80 155 80q84 0 136.5 -49t52.5 -156v-113q0 -66 23 -97t72 -31t72.5 33t23.5 109v294h149v-307q0 -249 -245 -249z" />
    <glyph glyph-name="uni0196" unicode="&#x196;" horiz-adv-x="403" 
d="M264 -10q-51 0 -91.5 17.5t-64 58t-23.5 111.5v537h158v-524q0 -35 18 -54t47 -19q25 0 44.5 4.5t40.5 12.5v-119q-23 -11 -56 -18t-73 -7z" />
    <glyph glyph-name="uni0197" unicode="&#x197;" horiz-adv-x="389" 
d="M357 714v-86l-87 -40v-169h92v-124h-92v-169l87 -40v-86h-325v86l87 40v169h-92v124h92v169l-87 40v86h325z" />
    <glyph glyph-name="uni0198" unicode="&#x198;" horiz-adv-x="664" 
d="M579 725q26 0 45 -5t30 -10v-119q-8 3 -20.5 6t-27.5 3q-21 0 -40 -12t-34 -31l-120 -159l252 -398h-172l-187 301l-64 -46v-255h-151v714h151v-329l32 46t32 45l81 108q45 61 88.5 101t104.5 40z" />
    <glyph glyph-name="uni0199" unicode="&#x199;" horiz-adv-x="620" 
d="M253 767q25 0 46 -5.5t32 -9.5v-114q-8 3 -23 6.5t-32 3.5q-23 0 -36 -13t-13 -43v-172q0 -31 -2.5 -62t-5.5 -61h2q13 21 30 42t35 41l153 166h168l-217 -237l230 -309h-172l-157 221l-64 -51v-170h-149v595q0 92 48.5 132t126.5 40z" />
    <glyph glyph-name="uni019A" unicode="&#x19a;" horiz-adv-x="330" 
d="M90 0v308h-80v112h80v340h149v-340h81v-112h-81v-308h-149z" />
    <glyph glyph-name="uni019B" unicode="&#x19b;" horiz-adv-x="615" 
d="M4 0l231 516l-11 28l-100 -30l-25 82l83 25q-15 12 -32.5 16t-40.5 4q-13 0 -26.5 -2t-23.5 -4v123q13 3 38 5.5t43 2.5q71 0 113.5 -26t70.5 -75l93 29l25 -83l-83 -25l135 -372q22 -62 41.5 -80.5t40.5 -18.5q14 0 34 5v-115q-12 -6 -39.5 -10.5t-46.5 -4.5
q-61 0 -92.5 30.5t-49.5 80.5l-47 133q-11 32 -21 62.5t-15 52.5h-3q-8 -26 -17.5 -57t-19.5 -55l-101 -237h-154z" />
    <glyph glyph-name="uni019C" unicode="&#x19c;" horiz-adv-x="1035" 
d="M288 -10q-92 0 -147.5 48.5t-55.5 155.5v520h151v-477q0 -120 87 -120q63 0 89.5 43t26.5 123v431h151v-477q0 -120 87 -120q66 0 91 47.5t25 135.5v414h152v-714h-114l-21 76h-9q-25 -43 -70 -64.5t-98 -21.5q-62 0 -102.5 24t-64.5 66h-7q-26 -43 -69 -66.5t-102 -23.5
z" />
    <glyph glyph-name="uni019D" unicode="&#x19d;" horiz-adv-x="813" 
d="M55 -240q-25 0 -44 5t-29 10v114q8 -3 23 -6.5t32 -3.5q23 0 38 15t15 45v775h191l310 -535h3l-1 21l-2.5 52.5t-2.5 65t-1 58.5v338h136v-714h-192l-311 540h-4l1.5 -21t3 -53.5t3 -67.5t1.5 -62v-400q0 -92 -47 -134t-123 -42z" />
    <glyph glyph-name="uni019E" unicode="&#x19e;" horiz-adv-x="657" 
d="M520 459q48 -48 48 -148v-469q0 -20 -11 -31t-31 -11t-31 11t-11 31v469q0 44 -10 68t-34 34t-68 10h-28q-63 0 -106.5 -14.5t-49.5 -42.5v-324q0 -20 -11 -31t-31 -11t-31 11t-11 31v423q0 42 42 42t42 -42v-17q53 59 156 59h28q100 0 148 -48z" />
    <glyph glyph-name="uni019F" unicode="&#x19f;" horiz-adv-x="796" 
d="M574 230q0 -74 -31.5 -129.5t-90 -85.5t-136.5 -30t-136.5 30t-90 85.5t-31.5 129.5v176q0 74 31.5 129.5t90 85.5t136.5 30t136.5 -30t90 -85.5t31.5 -129.5v-176zM321 363q90 -20 112 -20t57 25v34q0 80 -44.5 122.5t-129.5 42.5t-129.5 -42.5t-44.5 -122.5v-30
q25 11 55 11q33 0 124 -20zM490 270q-27 -11 -56 -11q-34 0 -125 20q-93 20 -110 20q-18 0 -57 -24v-41q0 -81 44.5 -123t129.5 -42t129.5 42t44.5 123v36z" />
    <glyph glyph-name="Ohorn" unicode="&#x1a0;" horiz-adv-x="728" 
d="M694 685q10 -10 10 -29v-13q0 -68 -71 -86q15 -44 15 -103v-230q0 -115 -54.5 -169.5t-169.5 -54.5h-120q-115 0 -169.5 54.5t-54.5 169.5v231q0 115 55 169.5t169 53.5h120q124 0 179 -65q13 2 18 9t5 21v26q0 26 39 26q19 0 29 -10zM564 454q0 54 -13 84t-43 43t-84 13
h-120q-54 1 -84 -12t-43 -43t-13 -84v-231q0 -55 13 -84.5t42.5 -42.5t84.5 -13h120q55 0 84.5 13t42.5 42.5t13 84.5v230z" />
    <glyph glyph-name="ohorn" unicode="&#x1a1;" horiz-adv-x="634" 
d="M600 525q10 -10 10 -29v-13q0 -35 -18.5 -56t-49.5 -29q12 -37 12 -87v-115q0 -100 -48 -148t-148 -48h-82q-100 0 -148 48t-48 147v116q0 100 48 148t148 48h82q105 0 153 -54q12 3 16.5 9.5t4.5 20.5v26q0 26 39 26q19 0 29 -10zM470 311q0 44 -10 68t-34 34t-68 10
h-82q-45 0 -68.5 -10t-33.5 -33.5t-10 -68.5v-116q0 -44 10 -67.5t34 -33.5t68 -10h82q44 0 68 10t34 34t10 68v115z" />
    <glyph glyph-name="uni01A2" unicode="&#x1a2;" horiz-adv-x="1131" 
d="M718 358q0 -112 -35.5 -194.5t-108.5 -128t-186 -45.5t-186 45.5t-108.5 128t-35.5 195.5q0 111 35.5 193t109 127.5t186.5 45.5q79 0 139 -23.5t100 -66.5q35 39 85 64.5t120 25.5q63 0 111 -24.5t75 -76.5t27 -134v-490h-151v478q0 121 -103 121q-43 0 -68.5 -13
t-42.5 -31q19 -41 28 -91t9 -106zM217 358q0 -112 40.5 -176.5t130.5 -64.5q92 0 131.5 64.5t39.5 176.5t-39.5 176.5t-130.5 64.5t-131.5 -64.5t-40.5 -176.5z" />
    <glyph glyph-name="uni01A3" unicode="&#x1a3;" horiz-adv-x="929" 
d="M554 274q0 -136 -69 -210t-187 -74q-74 0 -131 32t-89.5 95t-32.5 157q0 136 68.5 209t187.5 73q58 0 104.5 -19t81.5 -59q33 41 77 59.5t96 18.5q88 0 141 -47.5t53 -152.5v-596h-149v559q0 59 -21 88.5t-67 29.5q-56 0 -85 -35q10 -27 16 -59t6 -69zM197 274
q0 -81 24.5 -122.5t78.5 -41.5q53 0 77.5 41.5t24.5 122.5t-24.5 121.5t-78.5 40.5q-53 0 -77.5 -40.5t-24.5 -121.5z" />
    <glyph glyph-name="uni01A4" unicode="&#x1a4;" horiz-adv-x="750" 
d="M212 0v590h-26q-32 0 -46.5 -16.5t-14.5 -39.5q0 -17 3.5 -28.5t6.5 -19.5h-118q-4 8 -8 23t-4 35q0 46 17.5 84.5t58.5 62t109 23.5h250q138 0 201.5 -59.5t63.5 -163.5q0 -63 -26 -117t-86.5 -87t-164.5 -33h-65v-254h-151zM363 378h50q64 0 101.5 25.5t37.5 82.5
q0 104 -120 104h-69v-212z" />
    <glyph glyph-name="uni01A5" unicode="&#x1a5;" horiz-adv-x="633" 
d="M253 765q25 0 46 -5.5t32 -9.5v-114q-8 3 -23 6.5t-32 3.5q-49 0 -49 -55v-29q0 -20 -2 -41.5t-4 -45.5h6q21 34 59 57.5t96 23.5q92 0 149 -71.5t57 -210.5q0 -140 -57 -212t-149 -72q-59 0 -95.5 19.5t-58.5 47.5h-6q3 -19 4 -38.5t1 -40.5v-218h-149v833
q0 92 48.5 132t126.5 40zM334 437q-58 0 -82 -36.5t-25 -109.5v-16q0 -79 23.5 -121.5t85.5 -42.5q51 0 75.5 42.5t24.5 122.5q0 161 -102 161z" />
    <glyph glyph-name="uni01A6" unicode="&#x1a6;" horiz-adv-x="660" 
d="M492 -100l-170 274h-81v-174h-151v714h151v-100h57q146 0 215.5 -53t69.5 -161q0 -49 -18.5 -85.5t-49 -62t-65.5 -41.5l210 -311h-168zM241 297h49q75 0 107.5 25t32.5 74q0 51 -35 72.5t-108 21.5h-46v-193z" />
    <glyph glyph-name="uni01A7" unicode="&#x1a7;" horiz-adv-x="551" 
d="M281 724q104 0 165.5 -50.5t61.5 -146.5q0 -65 -26 -106t-67 -66.5t-86 -44.5q-61 -26 -100 -51t-39 -66q0 -37 26 -57.5t78 -20.5q54 0 106 12.5t104 33.5v-126q-44 -21 -99.5 -33t-119.5 -12q-122 0 -182.5 54t-60.5 149q0 82 46 132.5t128 85.5q73 31 108.5 54
t35.5 65q0 32 -23.5 50t-67.5 18q-41 0 -81 -11t-90 -31l-45 118q52 23 108.5 36.5t119.5 13.5z" />
    <glyph glyph-name="uni01A8" unicode="&#x1a8;" horiz-adv-x="497" 
d="M253 556q57 0 103.5 -16t73.5 -49t27 -84q0 -69 -37.5 -105.5t-115.5 -67.5q-53 -21 -78.5 -35t-33 -25.5t-7.5 -24.5q0 -50 88 -50q39 0 84 10t90 33v-113q-79 -39 -186 -39q-110 0 -166.5 41.5t-56.5 120.5q0 71 41.5 111t111.5 66q48 18 73.5 30t35 22.5t9.5 23.5
q0 19 -19 30t-52 11q-37 0 -72.5 -11.5t-75.5 -28.5l-40 107q49 23 100.5 33t102.5 10z" />
    <glyph glyph-name="uni01A9" unicode="&#x1a9;" horiz-adv-x="593" 
d="M63.5 667q10.5 11 31.5 11h361q67 0 108 -31t52 -89q1 -3 1 -9q0 -16 -11.5 -25.5t-30.5 -9.5t-28 9t-16 30q-7 22 -25 31.5t-50 9.5h-276l156 -203q4 -6 14 -18.5t12.5 -18t2.5 -10.5q0 -8 -3.5 -14t-12 -16.5t-13.5 -16.5l-163 -213h293q34 0 52 9.5t24 31.5
q6 20 16 29.5t29 9.5t30.5 -9t11.5 -25q0 -6 -1 -10q-13 -59 -53.5 -89.5t-108.5 -30.5h-369q-20 0 -30.5 11t-10.5 31q0 16 16 36l197 259l-200 261q-16 21 -16 38q0 20 10.5 31z" />
    <glyph glyph-name="uni01AA" unicode="&#x1aa;" horiz-adv-x="418" 
d="M139 770q92 0 131.5 -48t39.5 -131v-650q0 -31 18 -46.5t47 -15.5q25 0 48 4.5t46 12.5v-111q-23 -11 -56 -18t-72 -7q-51 0 -92 16t-64.5 55t-23.5 110v589h-27q-74 0 -108 34.5t-34 88.5q0 46 36 81.5t111 35.5zM118 688q-16 0 -26 -10.5t-10 -25.5q0 -19 14 -32
t41 -13h24v31q0 26 -11.5 38t-31.5 12z" />
    <glyph glyph-name="uni01AB" unicode="&#x1ab;" horiz-adv-x="434" 
d="M260 -240q-23 0 -43.5 3.5t-36.5 9.5v104q10 -4 22.5 -6.5t25.5 -2.5q25 0 37.5 12.5t12.5 45.5v64h-13q-49 0 -87.5 16t-61 55t-22.5 110v263h-71v63l82 50l43 115h95v-116h153v-112h-153v-263q0 -31 18 -46.5t47 -15.5q25 0 48 4.5t46 12.5v-200q0 -86 -36 -126
t-106 -40z" />
    <glyph glyph-name="uni01AC" unicode="&#x1ac;" horiz-adv-x="618" 
d="M253 0v588h-67q-32 0 -46.5 -16.5t-14.5 -39.5q0 -16 3.5 -27t6.5 -19h-118q-4 8 -8 23t-4 35q0 46 17.5 84.5t58.5 62t109 23.5h408v-126h-194v-588h-151z" />
    <glyph glyph-name="uni01AD" unicode="&#x1ad;" horiz-adv-x="434" 
d="M283 765q29 0 53.5 -5.5t38.5 -10.5v-114q-13 4 -33 7.5t-42 3.5q-57 0 -57 -56v-44h153v-112h-153v-263q0 -31 18 -46.5t47 -15.5q25 0 48 4.5t46 12.5v-111q-24 -11 -59.5 -18t-77.5 -7q-49 0 -87.5 16t-61 55t-22.5 110v263h-71v63l71 43v53q0 92 51.5 132t137.5 40z
" />
    <glyph glyph-name="uni01AE" unicode="&#x1ae;" horiz-adv-x="579" 
d="M389 -240q-82 0 -128.5 41t-46.5 135v652h-194v126h539v-126h-194v-649q0 -31 15 -45.5t38 -14.5q17 0 32 3.5t23 6.5v-114q-12 -5 -35.5 -10t-48.5 -5z" />
    <glyph glyph-name="Uhorn" unicode="&#x1af;" horiz-adv-x="756" 
d="M739 752q10 -10 10 -29v-13q0 -75 -87 -90v-396q0 -115 -54.5 -169.5t-169.5 -54.5h-120q-115 0 -169.5 54.5t-54.5 169.5v412q0 42 42 42t42 -42v-412q0 -55 13 -84.5t42.5 -42.5t84.5 -13h120q55 0 84.5 13t42.5 42.5t13 84.5v412q0 42 42 42q30 0 40.5 6.5t10.5 25.5
v26q0 26 39 26q19 0 29 -10z" />
    <glyph glyph-name="uhorn" unicode="&#x1b0;" horiz-adv-x="662" 
d="M632 581q10 -10 10 -29v-13q0 -74 -84 -89v-408q0 -42 -42 -42t-42 42v17q-53 -59 -156 -59h-28q-100 0 -148 48t-48 148v269q0 20 11 31t31 11t31 -11t11 -31v-269q0 -44 10 -68t34 -34t68 -10h28q63 0 106.5 14.5t49.5 42.5v324q0 19 10 30t29 12q30 0 40.5 6.5
t10.5 25.5v26q0 26 39 26q19 0 29 -10z" />
    <glyph glyph-name="uni01B1" unicode="&#x1b1;" horiz-adv-x="786" 
d="M393 116q85 0 134.5 52t49.5 152q0 86 -28 152t-102 106v136h312v-127h-181q70 -43 112.5 -121t42.5 -178q0 -90 -41.5 -157t-117.5 -104t-181 -37t-181 37t-117.5 104t-41.5 158q0 101 42.5 178t114.5 120h-183v127h314v-136q-75 -39 -103.5 -106.5t-28.5 -152.5
q0 -100 49.5 -151.5t134.5 -51.5z" />
    <glyph glyph-name="uni01B2" unicode="&#x1b2;" horiz-adv-x="756" 
d="M375 -10q-142 0 -216 72.5t-74 191.5v460h151v-437q0 -89 36 -124.5t107 -35.5q74 0 107.5 39t33.5 122v259q0 35 -15.5 48.5t-38.5 13.5q-42 0 -74 -17v117q21 10 53 17.5t68 7.5q77 0 117.5 -40.5t40.5 -118.5v-313q0 -74 -32.5 -133.5t-98.5 -94t-165 -34.5z" />
    <glyph glyph-name="uni01B3" unicode="&#x1b3;" horiz-adv-x="624" 
d="M78 724q58 0 91 -31.5t59 -87.5l86 -183l147 292h163l-237 -436v-278h-150v272l-110 231q-21 43 -34.5 63.5t-26 26.5t-29.5 6q-19 0 -37 -9v117q13 6 34.5 11.5t43.5 5.5z" />
    <glyph glyph-name="uni01B4" unicode="&#x1b4;" horiz-adv-x="615" 
d="M530 556q20 0 43.5 -4.5t36.5 -10.5v-115q-20 5 -34 5q-22 0 -41 -18.5t-41 -80.5l-144 -397q-30 -83 -87.5 -129t-146.5 -46q-18 0 -38 2.5t-34 5.5v118q10 -2 27 -4t30 -2q43 0 71.5 25t44.5 70l10 29l-217 542h162l86 -254q9 -26 18 -59t14 -66h3q5 23 13.5 54
t20.5 65l54 148q11 32 30 60t48 45t71 17z" />
    <glyph glyph-name="uni01B5" unicode="&#x1b5;" horiz-adv-x="579" 
d="M62 415h183l121 174h-333v125h513v-98l-140 -201h93v-124h-180l-115 -166h351v-125h-531v98l135 193h-97v124z" />
    <glyph glyph-name="uni01B6" unicode="&#x1b6;" horiz-adv-x="488" 
d="M449 546v-97l-90 -122h76v-97h-147l-85 -116h255v-114h-431v88l105 142h-79v97h150l77 105h-238v114h407z" />
    <glyph glyph-name="uni01B7" unicode="&#x1b7;" horiz-adv-x="591" 
d="M520 714v-97l-211 -201q121 -5 182 -59.5t61 -148.5q0 -62 -32.5 -111.5t-100 -78t-171.5 -28.5q-126 0 -220 39v128q50 -23 107 -35t104 -12q62 0 97.5 13.5t50 38t14.5 55.5q0 44 -45.5 70t-157.5 26h-60v106l176 170h-262v125h468z" />
    <glyph glyph-name="uni01B8" unicode="&#x1b8;" horiz-adv-x="591" 
d="M338 -10q-148 0 -223.5 58.5t-75.5 154.5q0 100 64 152t179 61l-211 201v97h468v-125h-263l177 -170v-106h-60q-114 0 -158.5 -27t-44.5 -71q0 -50 37.5 -77.5t124.5 -27.5q47 0 104.5 12t106.5 35v-128q-95 -39 -225 -39z" />
    <glyph glyph-name="uni01B9" unicode="&#x1b9;" horiz-adv-x="581" 
d="M322 -240q-94 0 -157 30.5t-94.5 84.5t-31.5 125q0 62 24 113.5t76.5 86t137.5 47.5l-211 202v97h472v-114h-288l193 -187v-106h-58q-76 0 -118.5 -17.5t-59.5 -46.5t-17 -66q0 -54 35 -91.5t118 -37.5q46 0 99 12t101 35v-126q-46 -19 -99.5 -30t-121.5 -11z" />
    <glyph glyph-name="uni01BA" unicode="&#x1ba;" horiz-adv-x="581" 
d="M256 -240q-91 0 -149.5 38.5t-58.5 117.5q0 67 44.5 110.5t148.5 51.5q70 5 100 17.5t30 47.5q0 32 -34 44t-114 12h-68v100l150 133h-247v114h443v-96l-177 -144q57 -4 101.5 -22.5t70.5 -54t26 -89.5q0 -33 -10.5 -63.5t-38.5 -55.5t-80.5 -42.5t-136.5 -23.5
q-36 -3 -58.5 -11.5t-22.5 -28.5q0 -23 26.5 -34t73.5 -11q64 0 115.5 13t87.5 26v-110q-36 -15 -95 -27t-127 -12z" />
    <glyph glyph-name="uni01BB" unicode="&#x1bb;" horiz-adv-x="570" 
d="M268 765q71 0 122 -27t78.5 -73.5t27.5 -104.5q0 -40 -10 -74.5t-29 -66.5h69v-97h-139l-185 -201v-7h324v-114h-499v111l193 211h-176v97h257q25 31 35 64t10 69q0 42 -25.5 68t-68.5 26q-46 0 -81 -21t-67 -53l-73 91q22 21 54 44.5t77 40.5t106 17z" />
    <glyph glyph-name="uni01BC" unicode="&#x1bc;" horiz-adv-x="578" 
d="M230 -10q-56 0 -110.5 10t-91.5 29v130q24 -13 59 -23.5t71 -16.5t67 -6q71 0 116.5 24.5t45.5 83.5q0 56 -37 82.5t-110 26.5h-127v258h-89v126h494v-126h-256v-132h27q75 0 131 -27t87.5 -77t31.5 -121q0 -113 -76.5 -177t-232.5 -64z" />
    <glyph glyph-name="uni01BD" unicode="&#x1bd;" horiz-adv-x="555" 
d="M233 -10q-53 0 -107 9t-88 25v123q34 -17 88 -29.5t101 -12.5q67 0 106 15.5t39 49.5t-40.5 48.5t-108.5 14.5h-95v201h-84v112h454v-112h-230v-97h15q67 0 120 -16.5t83.5 -52.5t30.5 -96q0 -83 -69 -132.5t-215 -49.5z" />
    <glyph glyph-name="uni01BE" unicode="&#x1be;" horiz-adv-x="497" 
d="M226 -10q-51 0 -104.5 9t-85.5 25v123q22 -11 52 -22.5t63 -18.5t62 -7q53 0 77 13.5t24 40.5t-22.5 39.5t-52.5 30.5q-29 17 -53.5 36.5t-39.5 50.5t-15 84v40h-95v63l97 50l43 115h95v-116h138v-112h-138v-35q0 -29 9.5 -42t35.5 -28q36 -21 69 -41.5t53.5 -50
t20.5 -80.5q0 -47 -23 -84.5t-74.5 -60t-135.5 -22.5z" />
    <glyph glyph-name="uni01BF" unicode="&#x1bf;" horiz-adv-x="633" 
d="M382 556q62 0 108 -31.5t72 -88t26 -132.5q0 -78 -36.5 -146t-116 -115t-208.5 -62v-221h-149v786h121l21 -71h7q22 33 59 57t96 24zM334 437q-58 0 -82.5 -37.5t-24.5 -111.5v-180q95 12 152 65t57 133q0 56 -25 93.5t-77 37.5z" />
    <glyph glyph-name="uni01C0" unicode="&#x1c0;" horiz-adv-x="291" 
d="M92 0v760h107v-760h-107z" />
    <glyph glyph-name="uni01C1" unicode="&#x1c1;" horiz-adv-x="551" 
d="M92 0v760h107v-760h-107zM352 0v760h107v-760h-107z" />
    <glyph glyph-name="uni01C2" unicode="&#x1c2;" horiz-adv-x="516" 
d="M311 760v-229h155v-97h-155v-86h155v-97h-155v-251h-107v251h-154v97h154v86h-154v97h154v229h107z" />
    <glyph glyph-name="uni01C3" unicode="&#x1c3;" horiz-adv-x="286" 
d="M94 168v495q0 42 42 42t42 -42v-495q0 -42 -42 -42t-42 42zM94.5 10.5q-10.5 10.5 -10.5 29.5v25q0 19 10.5 29t29.5 10h24q38 0 38 -39v-25q0 -19 -9.5 -29.5t-28.5 -10.5h-24q-19 0 -29.5 10.5z" />
    <glyph glyph-name="uni01C4" unicode="&#x1c4;" horiz-adv-x="1370" 
d="M914 867l92 -77h1l93 77q12 12 28 12q15 0 26.5 -11t11.5 -27q0 -9 -5 -18.5t-13 -14.5l-93 -76q-11 -10 -22 -14t-25 -4h-3q-26 0 -47 18l-92 76q-8 5 -13 14.5t-5 18.5q0 16 11 27t27 11t28 -12zM115 11q-11 11 -11 31v594q0 20 11 31t31 11h241q131 0 192.5 -61.5
t61.5 -192.5v-170q0 -131 -61.5 -192.5t-192.5 -61.5h-241q-20 0 -31 11zM387 84q65 0 101.5 16t52.5 52.5t16 101.5v170q0 65 -16 101.5t-52.5 52.5t-101.5 16h-199v-510h199zM1307.5 152.5q11.5 -11.5 8.5 -32.5q-12 -59 -53 -89.5t-109 -30.5h-369q-20 0 -30.5 11
t-10.5 31q0 13 16 36l394 516h-259q-32 0 -50 -9.5t-25 -31.5q-5 -20 -15 -29.5t-29 -9.5t-30.5 9.5t-11.5 25.5q0 6 1 9q12 58 52.5 89t107.5 31h334q21 0 31.5 -11t10.5 -31q0 -17 -16 -38l-394 -514h293q34 0 52 9.5t24 31.5q6 20 16 29.5t29 9.5q21 0 32.5 -11.5z" />
    <glyph glyph-name="uni01C5" unicode="&#x1c5;" horiz-adv-x="1206" 
d="M842 696l92 -77h1l93 77q12 12 28 12q15 0 26.5 -11t11.5 -27q0 -9 -5 -18.5t-13 -14.5l-93 -76q-11 -10 -22 -14t-25 -4h-3q-26 0 -47 18l-92 76q-8 5 -13 14.5t-5 18.5q0 16 11 27t27 11t28 -12zM115 11q-11 11 -11 31v594q0 20 11 31t31 11h241q131 0 192.5 -61.5
t61.5 -192.5v-170q0 -131 -61.5 -192.5t-192.5 -61.5h-241q-20 0 -31 11zM387 84q65 0 101.5 16t52.5 52.5t16 101.5v170q0 65 -16 101.5t-52.5 52.5t-101.5 16h-199v-510h199zM1158.5 135q11.5 -9 11.5 -25q0 -6 -1 -10q-11 -49 -46.5 -74.5t-93.5 -25.5h-259q-20 0 -31 11
t-11 31q0 19 18 41l272 340h-171q-26 0 -38 -4t-18 -16q-6 -21 -15 -30.5t-28 -9.5q-20 0 -31 9t-11 26q0 6 1 9q19 100 140 100h245q42 0 42 -42q0 -20 -18 -42l-270 -338l183 -1q24 0 36.5 4.5t18.5 16.5q7 21 16.5 30t27.5 9q19 0 30.5 -9z" />
    <glyph glyph-name="uni01C6" unicode="&#x1c6;" horiz-adv-x="1144" 
d="M812 701l64 -71h12l64 71q9 10 25 10q14 0 24.5 -10.5t10.5 -24.5t-10 -24l-73 -73q-18 -19 -44 -19h-6q-26 0 -44 19l-73 73q-10 10 -10 24t10.5 24.5t24.5 10.5q15 0 25 -10zM543 693q11 -11 11 -31v-620q0 -20 -11 -31t-31 -11t-31 11t-11 31v7q-25 -25 -62.5 -37
t-93.5 -12h-38q-100 0 -148 48t-48 148v115q0 100 48 148t148 48h194v155q0 20 11 31t31 11t31 -11zM426.5 101.5q43.5 17.5 43.5 51.5v270h-194q-44 0 -68 -10t-34 -34t-10 -68v-115q0 -44 10 -68t34 -34t68 -10h38q69 0 112.5 17.5zM1096.5 135q11.5 -9 11.5 -25
q0 -6 -1 -10q-11 -49 -46.5 -74.5t-93.5 -25.5h-259q-20 0 -31 11t-11 31q0 19 18 41l272 340h-171q-26 0 -38 -4t-18 -16q-6 -21 -15 -30.5t-28 -9.5q-20 0 -31 9t-11 26q0 6 1 9q19 100 140 100h245q42 0 42 -42q0 -20 -18 -42l-270 -338l183 -1q24 0 36.5 4.5t18.5 16.5
q7 21 16.5 30t27.5 9q19 0 30.5 -9z" />
    <glyph glyph-name="uni01C7" unicode="&#x1c7;" horiz-adv-x="1158" 
d="M104 42v594q0 42 42 42t42 -42v-552h277q42 0 42 -42t-42 -42h-319q-42 0 -42 42zM633.5 39q-49.5 39 -58.5 121q-2 21 9 32.5t32 11.5q39 0 43 -42q6 -45 32 -61.5t86 -16.5h83q48 0 73.5 10.5t36 36t10.5 73.5v432q0 42 42 42q20 0 31 -11t11 -31v-432
q0 -106 -49.5 -155t-154.5 -49h-83q-94 0 -143.5 39z" />
    <glyph glyph-name="uni01C8" unicode="&#x1c8;" horiz-adv-x="738" 
d="M543.5 602q-12.5 13 -12.5 35v30q0 23 12.5 34.5t35.5 11.5h29q45 0 45 -46v-30q0 -23 -11.5 -35.5t-33.5 -12.5h-29q-23 0 -35.5 13zM104 42v594q0 42 42 42t42 -42v-552h277q42 0 42 -42t-42 -42h-319q-42 0 -42 42zM482 -116q41 0 54.5 13.5t13.5 54.5v513q0 20 11 31
t31 11t31 -11t11 -31v-513q0 -77 -37.5 -114.5t-114.5 -37.5q-41 0 -41 42t41 42z" />
    <glyph glyph-name="uni01C9" unicode="&#x1c9;" horiz-adv-x="635" 
d="M440.5 602q-12.5 13 -12.5 35v30q0 23 12.5 34.5t35.5 11.5h29q45 0 45 -46v-30q0 -23 -11.5 -35.5t-33.5 -12.5h-29q-23 0 -35.5 13zM141.5 37.5q-37.5 37.5 -37.5 114.5v510q0 20 11 31t31 11t31 -11t11 -31v-510q0 -41 13.5 -54.5t53.5 -13.5q43 0 43 -42
q1 -20 -10 -31t-33 -11q-76 0 -113.5 37.5zM379 -116q41 0 54.5 13.5t13.5 54.5v513q0 20 11 31t31 11t31 -11t11 -31v-513q0 -77 -37.5 -114.5t-114.5 -37.5q-41 0 -41 42t41 42z" />
    <glyph glyph-name="uni01CA" unicode="&#x1ca;" horiz-adv-x="1374" 
d="M642 667q11 -11 11 -31v-594q0 -20 -11 -31t-31 -11q-12 0 -22 6t-20 19l-381 491v-474q0 -20 -11 -31t-31 -11t-31 11t-11 31v594q0 20 11 31t31 11q12 0 21.5 -6t20.5 -19l381 -491v474q0 20 11 31t31 11t31 -11zM849.5 39q-49.5 39 -58.5 121q-2 21 9 32.5t32 11.5
q39 0 43 -42q6 -45 32 -61.5t86 -16.5h83q48 0 73.5 10.5t36 36t10.5 73.5v432q0 42 42 42q20 0 31 -11t11 -31v-432q0 -106 -49.5 -155t-154.5 -49h-83q-94 0 -143.5 39z" />
    <glyph glyph-name="uni01CB" unicode="&#x1cb;" horiz-adv-x="1049" 
d="M854.5 602q-12.5 13 -12.5 35v30q0 23 12.5 34.5t35.5 11.5h29q45 0 45 -46v-30q0 -23 -11.5 -35.5t-33.5 -12.5h-29q-23 0 -35.5 13zM642 667q11 -11 11 -31v-594q0 -20 -11 -31t-31 -11q-12 0 -22 6t-20 19l-381 491v-474q0 -20 -11 -31t-31 -11t-31 11t-11 31v594
q0 20 11 31t31 11q12 0 21.5 -6t20.5 -19l381 -491v474q0 20 11 31t31 11t31 -11zM793 -116q41 0 54.5 13.5t13.5 54.5v513q0 20 11 31t31 11t31 -11t11 -31v-513q0 -77 -37.5 -114.5t-114.5 -37.5q-41 0 -41 42t41 42z" />
    <glyph glyph-name="uni01CC" unicode="&#x1cc;" horiz-adv-x="954" 
d="M759.5 602q-12.5 13 -12.5 35v30q0 23 12.5 34.5t35.5 11.5h29q45 0 45 -46v-30q0 -23 -11.5 -35.5t-33.5 -12.5h-29q-23 0 -35.5 13zM520 459q48 -48 48 -148v-269q0 -20 -11 -31t-31 -11t-31 11t-11 31v269q0 44 -10 68t-34 34t-68 10h-28q-63 0 -106.5 -14.5
t-49.5 -42.5v-324q0 -20 -11 -31t-31 -11t-31 11t-11 31v423q0 42 42 42t42 -42v-17q53 59 156 59h28q100 0 148 -48zM698 -116q41 0 54.5 13.5t13.5 54.5v513q0 20 11 31t31 11t31 -11t11 -31v-513q0 -77 -37.5 -114.5t-114.5 -37.5q-41 0 -41 42t41 42z" />
    <glyph glyph-name="uni01CD" unicode="&#x1cd;" horiz-adv-x="690" 
d="M205 827l64 -71h12l64 71q9 10 25 10q14 0 24.5 -10.5t10.5 -24.5t-10 -24l-73 -73q-18 -19 -44 -19h-6q-26 0 -44 19l-73 73q-10 10 -10 24t10.5 24.5t24.5 10.5q15 0 25 -10zM625 39q0 -24 -27 -35q-9 -4 -20 -4q-24 0 -35 27l-54 131h-311l-52 -131q-11 -27 -35 -27
q-10 0 -19 4q-28 10 -28 35q0 11 4 20l238 586q15 33 47 33h2q33 -2 44 -33l242 -586q4 -9 4 -20zM211 242h244l-125 303z" />
    <glyph glyph-name="uni01CE" unicode="&#x1ce;" horiz-adv-x="604" 
d="M162 659l64 -71h12l64 71q9 10 25 10q14 0 24.5 -10.5t10.5 -24.5t-10 -24l-73 -73q-18 -19 -44 -19h-6q-26 0 -44 19l-73 73q-10 10 -10 24t10.5 24.5t24.5 10.5q15 0 25 -10zM498 459q48 -48 48 -148v-269q0 -20 -11 -31t-31 -11t-31 11t-11 31v23q-53 -65 -156 -65
h-56q-84 0 -125 41t-41 125t40.5 125t125.5 41h211q-3 52 -27 71.5t-84 19.5h-58q-50 0 -74.5 -7t-34.5 -24q-9 -21 -19 -29t-28 -8t-29.5 9t-11.5 24q0 6 1 10q15 56 62.5 82.5t133.5 26.5h58q100 0 148 -48zM459 159.5q1 3.5 3 7.5v81h-212q-34 0 -51 -7t-24 -24t-7 -51
t7 -51t24 -24t51 -7h56q127 0 151 69q1 3 2 6.5z" />
    <glyph glyph-name="uni01CF" unicode="&#x1cf;" horiz-adv-x="389" 
d="M55 827l64 -71h12l64 71q9 10 25 10q14 0 24.5 -10.5t10.5 -24.5t-10 -24l-73 -73q-18 -19 -44 -19h-6q-26 0 -44 19l-73 73q-10 10 -10 24t10.5 24.5t24.5 10.5q15 0 25 -10zM114 10q-10 10 -10 32v593q0 22 10 32t32 10t32 -10t10 -32v-593q0 -22 -10 -32t-32 -10
t-32 10z" />
    <glyph glyph-name="uni01D0" unicode="&#x1d0;" horiz-adv-x="305" 
d="M13 659l64 -71h12l64 71q9 10 25 10q14 0 24.5 -10.5t10.5 -24.5t-10 -24l-73 -73q-18 -19 -44 -19h-6q-26 0 -44 19l-73 73q-10 10 -10 24t10.5 24.5t24.5 10.5q15 0 25 -10zM115 11q-11 11 -11 31v423q0 20 11 31t31 11t31 -11t11 -31v-423q0 -20 -11 -31t-31 -11
t-31 11z" />
    <glyph glyph-name="uni01D1" unicode="&#x1d1;" horiz-adv-x="796" 
d="M258 827l64 -71h12l64 71q9 10 25 10q14 0 24.5 -10.5t10.5 -24.5t-10 -24l-73 -73q-18 -19 -44 -19h-6q-26 0 -44 19l-73 73q-10 10 -10 24t10.5 24.5t24.5 10.5q15 0 25 -10zM134.5 54.5q-54.5 54.5 -54.5 169.5v231q0 115 55 169.5t169 53.5h120q115 0 169.5 -54.5
t54.5 -169.5v-230q0 -115 -54.5 -169.5t-169.5 -54.5h-120q-115 0 -169.5 54.5zM424 84q55 0 84.5 13t42.5 42.5t13 84.5v230q0 54 -13 84t-43 43t-84 13h-120q-54 1 -84 -12t-43 -43t-13 -84v-231q0 -55 13 -84.5t42.5 -42.5t84.5 -13h120z" />
    <glyph glyph-name="uni01D2" unicode="&#x1d2;" horiz-adv-x="619" 
d="M170 659l64 -71h12l64 71q9 10 25 10q14 0 24.5 -10.5t10.5 -24.5t-10 -24l-73 -73q-18 -19 -44 -19h-6q-26 0 -44 19l-73 73q-10 10 -10 24t10.5 24.5t24.5 10.5q15 0 25 -10zM128 48q-48 48 -48 147v116q0 100 48 148t148 48h82q100 0 148 -48t48 -148v-115
q0 -100 -48 -148t-148 -48h-82q-100 0 -148 48zM358 84q44 0 68 10t34 34t10 68v115q0 44 -10 68t-34 34t-68 10h-82q-45 0 -68.5 -10t-33.5 -33.5t-10 -68.5v-116q0 -44 10 -67.5t34 -33.5t68 -10h82z" />
    <glyph glyph-name="uni01D3" unicode="&#x1d3;" horiz-adv-x="756" 
d="M238 827l64 -71h12l64 71q9 10 25 10q14 0 24.5 -10.5t10.5 -24.5t-10 -24l-73 -73q-18 -19 -44 -19h-6q-26 0 -44 19l-73 73q-10 10 -10 24t10.5 24.5t24.5 10.5q15 0 25 -10zM148.5 54.5q-54.5 54.5 -54.5 169.5v412q0 42 42 42t42 -42v-412q0 -55 13 -84.5t42.5 -42.5
t84.5 -13h120q55 0 84.5 13t42.5 42.5t13 84.5v412q0 42 42 42t42 -42v-412q0 -115 -54.5 -169.5t-169.5 -54.5h-120q-115 0 -169.5 54.5z" />
    <glyph glyph-name="uni01D4" unicode="&#x1d4;" horiz-adv-x="657" 
d="M189 659l64 -71h12l64 71q9 10 25 10q14 0 24.5 -10.5t10.5 -24.5t-10 -24l-73 -73q-18 -19 -44 -19h-6q-26 0 -44 19l-73 73q-10 10 -10 24t10.5 24.5t24.5 10.5q15 0 25 -10zM547 496q11 -11 11 -31v-423q0 -42 -42 -42t-42 42v17q-53 -59 -156 -59h-28q-100 0 -148 48
t-48 148v269q0 20 11 31t31 11t31 -11t11 -31v-269q0 -44 10 -68t34 -34t68 -10h28q63 0 106.5 14.5t49.5 42.5v324q0 20 11 31t31 11t31 -11z" />
    <glyph glyph-name="uni01D5" unicode="&#x1d5;" horiz-adv-x="756" 
d="M544 1023v-93h-331v93h331zM279 888q28 0 46 -15t18 -46q0 -29 -18 -44.5t-46 -15.5q-29 0 -46 15.5t-17 44.5q0 31 17 46t46 15zM476 888q28 0 46 -15t18 -46q0 -29 -18 -44.5t-46 -15.5t-45.5 15.5t-17.5 44.5q0 31 17.5 46t45.5 15zM148.5 54.5
q-54.5 54.5 -54.5 169.5v412q0 42 42 42t42 -42v-412q0 -55 13 -84.5t42.5 -42.5t84.5 -13h120q55 0 84.5 13t42.5 42.5t13 84.5v412q0 42 42 42t42 -42v-412q0 -115 -54.5 -169.5t-169.5 -54.5h-120q-115 0 -169.5 54.5z" />
    <glyph glyph-name="uni01D6" unicode="&#x1d6;" horiz-adv-x="657" 
d="M495 855v-93h-331v93h331zM230 720q28 0 46 -15t18 -46q0 -29 -18 -44.5t-46 -15.5q-29 0 -46 15.5t-17 44.5q0 31 17 46t46 15zM427 720q28 0 46 -15t18 -46q0 -29 -18 -44.5t-46 -15.5t-45.5 15.5t-17.5 44.5q0 31 17.5 46t45.5 15zM547 496q11 -11 11 -31v-423
q0 -42 -42 -42t-42 42v17q-53 -59 -156 -59h-28q-100 0 -148 48t-48 148v269q0 20 11 31t31 11t31 -11t11 -31v-269q0 -44 10 -68t34 -34t68 -10h28q63 0 106.5 14.5t49.5 42.5v324q0 20 11 31t31 11t31 -11z" />
    <glyph glyph-name="uni01D7" unicode="&#x1d7;" horiz-adv-x="756" 
d="M313 904v13q25 28 49 63t43 69h162v-10q-17 -20 -44.5 -45t-56.5 -49.5t-53 -40.5h-100zM279 767q-29 0 -46 15.5t-17 44.5q0 31 17 46t46 15q28 0 46 -15t18 -46q0 -29 -18 -44.5t-46 -15.5zM476 767q-28 0 -45.5 15.5t-17.5 44.5q0 31 17.5 46t45.5 15t46 -15t18 -46
q0 -29 -18 -44.5t-46 -15.5zM148.5 54.5q-54.5 54.5 -54.5 169.5v412q0 42 42 42t42 -42v-412q0 -55 13 -84.5t42.5 -42.5t84.5 -13h120q55 0 84.5 13t42.5 42.5t13 84.5v412q0 42 42 42t42 -42v-412q0 -115 -54.5 -169.5t-169.5 -54.5h-120q-115 0 -169.5 54.5z" />
    <glyph glyph-name="uni01D8" unicode="&#x1d8;" horiz-adv-x="657" 
d="M264 736v13q25 28 49 63t43 69h162v-10q-17 -20 -44.5 -45t-56.5 -49.5t-53 -40.5h-100zM230 599q-29 0 -46 15.5t-17 44.5q0 31 17 46t46 15q28 0 46 -15t18 -46q0 -29 -18 -44.5t-46 -15.5zM427 599q-28 0 -45.5 15.5t-17.5 44.5q0 31 17.5 46t45.5 15t46 -15t18 -46
q0 -29 -18 -44.5t-46 -15.5zM547 496q11 -11 11 -31v-423q0 -42 -42 -42t-42 42v17q-53 -59 -156 -59h-28q-100 0 -148 48t-48 148v269q0 20 11 31t31 11t31 -11t11 -31v-269q0 -44 10 -68t34 -34t68 -10h28q63 0 106.5 14.5t49.5 42.5v324q0 20 11 31t31 11t31 -11z" />
    <glyph glyph-name="uni01D9" unicode="&#x1d9;" horiz-adv-x="756" 
d="M311 910q-23 34 -54.5 66t-60.5 61v13h69q30 -15 58.5 -33t54.5 -41q26 23 55 41t58 33h69v-13q-27 -27 -59.5 -60t-55.5 -67h-134zM279 767q-29 0 -46 15.5t-17 44.5q0 31 17 46t46 15q28 0 46 -15t18 -46q0 -29 -18 -44.5t-46 -15.5zM476 767q-28 0 -45.5 15.5
t-17.5 44.5q0 31 17.5 46t45.5 15t46 -15t18 -46q0 -29 -18 -44.5t-46 -15.5zM148.5 54.5q-54.5 54.5 -54.5 169.5v412q0 42 42 42t42 -42v-412q0 -55 13 -84.5t42.5 -42.5t84.5 -13h120q55 0 84.5 13t42.5 42.5t13 84.5v412q0 42 42 42t42 -42v-412q0 -115 -54.5 -169.5
t-169.5 -54.5h-120q-115 0 -169.5 54.5z" />
    <glyph glyph-name="uni01DA" unicode="&#x1da;" horiz-adv-x="657" 
d="M262 742q-23 34 -54.5 66t-60.5 61v13h69q30 -15 58.5 -33t54.5 -41q26 23 55 41t58 33h69v-13q-27 -27 -59.5 -60t-55.5 -67h-134zM230 599q-29 0 -46 15.5t-17 44.5q0 31 17 46t46 15q28 0 46 -15t18 -46q0 -29 -18 -44.5t-46 -15.5zM427 599q-28 0 -45.5 15.5
t-17.5 44.5q0 31 17.5 46t45.5 15t46 -15t18 -46q0 -29 -18 -44.5t-46 -15.5zM547 496q11 -11 11 -31v-423q0 -42 -42 -42t-42 42v17q-53 -59 -156 -59h-28q-100 0 -148 48t-48 148v269q0 20 11 31t31 11t31 -11t11 -31v-269q0 -44 10 -68t34 -34t68 -10h28q63 0 106.5 14.5
t49.5 42.5v324q0 20 11 31t31 11t31 -11z" />
    <glyph glyph-name="uni01DB" unicode="&#x1db;" horiz-adv-x="756" 
d="M351 1049q19 -34 43 -69t49 -63v-13h-100q-24 16 -53 40.5t-56.5 49.5t-44.5 45v10h162zM279 888q28 0 46 -15t18 -46q0 -29 -18 -44.5t-46 -15.5q-29 0 -46 15.5t-17 44.5q0 31 17 46t46 15zM476 888q28 0 46 -15t18 -46q0 -29 -18 -44.5t-46 -15.5t-45.5 15.5
t-17.5 44.5q0 31 17.5 46t45.5 15zM148.5 54.5q-54.5 54.5 -54.5 169.5v412q0 42 42 42t42 -42v-412q0 -55 13 -84.5t42.5 -42.5t84.5 -13h120q55 0 84.5 13t42.5 42.5t13 84.5v412q0 42 42 42t42 -42v-412q0 -115 -54.5 -169.5t-169.5 -54.5h-120q-115 0 -169.5 54.5z" />
    <glyph glyph-name="uni01DC" unicode="&#x1dc;" horiz-adv-x="657" 
d="M302 881q19 -34 43 -69t49 -63v-13h-100q-24 16 -53 40.5t-56.5 49.5t-44.5 45v10h162zM230 720q28 0 46 -15t18 -46q0 -29 -18 -44.5t-46 -15.5q-29 0 -46 15.5t-17 44.5q0 31 17 46t46 15zM427 720q28 0 46 -15t18 -46q0 -29 -18 -44.5t-46 -15.5t-45.5 15.5
t-17.5 44.5q0 31 17.5 46t45.5 15zM547 496q11 -11 11 -31v-423q0 -42 -42 -42t-42 42v17q-53 -59 -156 -59h-28q-100 0 -148 48t-48 148v269q0 20 11 31t31 11t31 -11t11 -31v-269q0 -44 10 -68t34 -34t68 -10h28q63 0 106.5 14.5t49.5 42.5v324q0 20 11 31t31 11t31 -11z
" />
    <glyph glyph-name="uni01DD" unicode="&#x1dd;" horiz-adv-x="591" 
d="M506 459q48 -48 48 -147v-116q0 -101 -48 -149t-148 -47h-82q-100 0 -148 48t-48 148v50q0 20 11 31t31 11h348v24q0 44 -10 67.5t-34 33.5t-68 10h-82q-51 0 -75.5 -9.5t-32.5 -33.5q-6 -20 -16 -29.5t-29 -9.5t-29.5 8.5t-10.5 24.5q0 7 1 10q22 123 192 123h82
q100 0 148 -48zM470 204h-306v-8q0 -44 10 -68t34 -34t68 -10h82q44 -1 68 9t34 34t10 69v8z" />
    <glyph glyph-name="uni01DE" unicode="&#x1de;" horiz-adv-x="690" 
d="M511 1023v-93h-331v93h331zM246 888q28 0 46 -15t18 -46q0 -29 -18 -44.5t-46 -15.5q-29 0 -46 15.5t-17 44.5q0 31 17 46t46 15zM443 888q28 0 46 -15t18 -46q0 -29 -18 -44.5t-46 -15.5t-45.5 15.5t-17.5 44.5q0 31 17.5 46t45.5 15zM625 39q0 -24 -27 -35
q-9 -4 -20 -4q-24 0 -35 27l-54 131h-311l-52 -131q-11 -27 -35 -27q-10 0 -19 4q-28 10 -28 35q0 11 4 20l238 586q15 33 47 33h2q33 -2 44 -33l242 -586q4 -9 4 -20zM211 242h244l-125 303z" />
    <glyph glyph-name="uni01DF" unicode="&#x1df;" horiz-adv-x="604" 
d="M468 855v-93h-331v93h331zM203 720q28 0 46 -15t18 -46q0 -29 -18 -44.5t-46 -15.5q-29 0 -46 15.5t-17 44.5q0 31 17 46t46 15zM400 720q28 0 46 -15t18 -46q0 -29 -18 -44.5t-46 -15.5t-45.5 15.5t-17.5 44.5q0 31 17.5 46t45.5 15zM498 459q48 -48 48 -148v-269
q0 -20 -11 -31t-31 -11t-31 11t-11 31v23q-53 -65 -156 -65h-56q-84 0 -125 41t-41 125t40.5 125t125.5 41h211q-3 52 -27 71.5t-84 19.5h-58q-50 0 -74.5 -7t-34.5 -24q-9 -21 -19 -29t-28 -8t-29.5 9t-11.5 24q0 6 1 10q15 56 62.5 82.5t133.5 26.5h58q100 0 148 -48z
M459 159.5q1 3.5 3 7.5v81h-212q-34 0 -51 -7t-24 -24t-7 -51t7 -51t24 -24t51 -7h56q127 0 151 69q1 3 2 6.5z" />
    <glyph glyph-name="uni01E0" unicode="&#x1e0;" horiz-adv-x="690" 
d="M511 1020v-93h-331v93h331zM345 885q28 0 46 -15t18 -46q0 -29 -18 -44.5t-46 -15.5t-45.5 15.5t-17.5 44.5q0 31 17.5 46t45.5 15zM625 39q0 -24 -27 -35q-9 -4 -20 -4q-24 0 -35 27l-54 131h-311l-52 -131q-11 -27 -35 -27q-10 0 -19 4q-28 10 -28 35q0 11 4 20
l238 586q15 33 47 33h2q33 -2 44 -33l242 -586q4 -9 4 -20zM211 242h244l-125 303z" />
    <glyph glyph-name="uni01E1" unicode="&#x1e1;" horiz-adv-x="604" 
d="M468 855v-93h-331v93h331zM302 720q28 0 46 -15t18 -46q0 -29 -18 -44.5t-46 -15.5t-45.5 15.5t-17.5 44.5q0 31 17.5 46t45.5 15zM498 459q48 -48 48 -148v-269q0 -20 -11 -31t-31 -11t-31 11t-11 31v23q-53 -65 -156 -65h-56q-84 0 -125 41t-41 125t40.5 125t125.5 41
h211q-3 52 -27 71.5t-84 19.5h-58q-50 0 -74.5 -7t-34.5 -24q-9 -21 -19 -29t-28 -8t-29.5 9t-11.5 24q0 6 1 10q15 56 62.5 82.5t133.5 26.5h58q100 0 148 -48zM459 159.5q1 3.5 3 7.5v81h-212q-34 0 -51 -7t-24 -24t-7 -51t7 -51t24 -24t51 -7h56q127 0 151 69q1 3 2 6.5z
" />
    <glyph glyph-name="uni01E2" unicode="&#x1e2;" horiz-adv-x="952" 
d="M351 773q0 42 42 42h253q42 0 42 -42t-42 -42h-253q-42 0 -42 42zM429 42v116h-228l-77 -134q-13 -24 -34 -24q-12 0 -23 7q-23 14 -23 34q0 12 7 23l332 585q18 29 51 29h328q20 0 31 -11t11 -31t-11 -31t-31 -11h-249v-210h131q20 0 31 -11t11 -31t-11 -31t-31 -11
h-131v-216h249q20 0 31 -11t11 -31t-11 -31t-31 -11h-291q-42 0 -42 42zM249 242h180v327z" />
    <glyph glyph-name="uni01E3" unicode="&#x1e3;" horiz-adv-x="917" 
d="M311 605q0 42 42 42h253q42 0 42 -42t-42 -42h-253q-42 0 -42 42zM476 64q-31 -41 -79 -62.5t-111 -21.5h-36q-84 0 -125 41t-41 125t41 125t125 41h192q-5 50 -29.5 68.5t-82.5 18.5h-38q-47 0 -71.5 -6.5t-34.5 -21t-10 -40.5q0 -17 -12.5 -29.5t-29.5 -12.5
t-29.5 12.5t-12.5 29.5q0 78 49 115t151 37h38q105 0 154 -77q48 77 150 76h60q98 0 145 -52t47 -160q0 -20 -11 -31t-32 -11h-317v-52q0 -45 10 -69.5t32.5 -34.5t64.5 -10h61q43 0 66.5 7t32.5 22.5t9 43.5q0 17 12.5 29.5t29.5 12.5t29.5 -12.5t12.5 -29.5
q0 -81 -47.5 -119t-144.5 -38h-61q-108 0 -157 86zM799 312q-6 48 -29.5 67t-75.5 19h-60q-56 1 -79.5 -17.5t-27.5 -68.5h272zM286 64q81 0 118.5 26.5t37.5 81.5v56h-192q-34 0 -51 -7t-24 -24t-7 -51t7 -51t24 -24t51 -7h36z" />
    <glyph glyph-name="uni01E4" unicode="&#x1e4;" horiz-adv-x="724" 
d="M390 -10q-160 0 -246 94t-86 274q0 112 43 194t126.5 127t203.5 45q57 0 112 -12t100 -32l-50 -121q-33 17 -75 28t-88 11q-66 0 -114.5 -30t-75 -85t-26.5 -128q0 -121 46 -185t145 -64q27 0 49 3t42 7v44h-125v97h125v48h-135v116h283v-164h65v-97h-65v-129
q-56 -19 -117 -30t-137 -11z" />
    <glyph glyph-name="uni01E5" unicode="&#x1e5;" horiz-adv-x="633" 
d="M255 556q101 0 158 -80h4l12 70h126v-560h60v-77h-72q-22 -74 -88.5 -111.5t-172.5 -37.5q-58 0 -107.5 7t-96.5 25v114q100 -42 213 -42q35 0 61.5 11t36.5 34h-146v77h163v50q0 16 1 36t3 36h-4q-28 -43 -67 -62t-88 -19q-97 0 -151.5 66t-54.5 193q0 128 56 199
t154 71zM302 435q-52 0 -78.5 -36.5t-26.5 -112.5t26 -111.5t81 -35.5q57 0 84.5 28t27.5 103v12q0 82 -27 117.5t-87 35.5z" />
    <glyph glyph-name="Gcaron" unicode="&#x1e6;" horiz-adv-x="698" 
d="M294 872l64 -71h12l64 71q9 10 25 10q14 0 24.5 -10.5t10.5 -24.5t-10 -24l-73 -73q-18 -19 -44 -19h-6q-26 0 -44 19l-73 73q-10 10 -10 24t10.5 24.5t24.5 10.5q15 0 25 -10zM134.5 54.5q-54.5 54.5 -54.5 169.5v230q0 115 54.5 170t168.5 54h121q94 0 143.5 -39
t57.5 -122q3 -21 -8 -32t-32 -11q-20 0 -30.5 10.5t-13.5 31.5q-5 45 -31 61.5t-86 16.5h-121q-54 1 -84 -12t-42.5 -43t-12.5 -85v-230q0 -55 13 -84.5t42.5 -42.5t84.5 -13h120q48 0 73.5 10.5t36 36t10.5 73.5v47l-78 1q-42 0 -42 42q0 20 11 31t31 11l120 -1
q20 0 31 -11t11 -31v-89q0 -106 -49.5 -155t-154.5 -49h-120q-115 0 -169.5 54.5z" />
    <glyph glyph-name="gcaron" unicode="&#x1e7;" horiz-adv-x="648" 
d="M241 701l64 -71h12l64 71q9 10 25 10q14 0 24.5 -10.5t10.5 -24.5t-10 -24l-73 -73q-18 -19 -44 -19h-6q-26 0 -44 19l-73 73q-10 10 -10 24t10.5 24.5t24.5 10.5q15 0 25 -10zM554 465v-521q0 -74 -35 -109t-109 -35h-186q-121 0 -140 99q-1 3 -1 10q0 16 11 25.5
t31 9.5q18 0 27 -9.5t16 -31.5q6 -11 18.5 -15t37.5 -4h186q37 0 48.5 11.5t11.5 48.5v116q-27 -29 -67 -44.5t-89 -15.5h-38q-100 0 -148 48t-48 147v116q0 101 48 149t148 47h82q72 0 112 -42q0 42 42 42t42 -42zM427 101.5q43 17.5 43 51.5v200q0 39 -28 54.5t-84 15.5
h-82q-44 1 -68 -9t-34 -34t-10 -69v-116q0 -44 10 -67.5t34 -33.5t68 -10h38q70 0 113 17.5z" />
    <glyph glyph-name="uni01E8" unicode="&#x1e8;" horiz-adv-x="664" 
d="M210 827l64 -71h12l64 71q9 10 25 10q14 0 24.5 -10.5t10.5 -24.5t-10 -24l-73 -73q-18 -19 -44 -19h-6q-26 0 -44 19l-73 73q-10 10 -10 24t10.5 24.5t24.5 10.5q15 0 25 -10zM552 45q0 -18 -17 -31q-12 -11 -28 -11q-18 0 -31 17l-245 303l-43 -45v-236q0 -20 -11 -31
t-31 -11t-31 11t-11 31v594q0 20 11 31t31 11t31 -11t11 -31v-238l255 264q15 15 30 15t29 -14q15 -15 15 -30t-14 -29l-212 -220l250 -311q11 -14 11 -28z" />
    <glyph glyph-name="uni01E9" unicode="&#x1e9;" horiz-adv-x="620" 
d="M19 873l64 -71h12l64 71q9 10 25 10q14 0 24.5 -10.5t10.5 -24.5t-10 -24l-73 -73q-18 -19 -44 -19h-6q-26 0 -44 19l-73 73q-10 10 -10 24t10.5 24.5t24.5 10.5q15 0 25 -10zM473 72q13 -14 13 -28q0 -16 -16 -31q-15 -12 -29 -12q-16 0 -31 16l-175 198l-47 -40v-133
q0 -20 -11 -31t-31 -11t-31 11t-11 31v620q0 20 11 31t31 11t31 -11t11 -31v-376l238 205q14 13 28 13q16 0 31 -17q12 -15 12 -29q0 -17 -16 -30l-183 -158z" />
    <glyph glyph-name="uni01EA" unicode="&#x1ea;" horiz-adv-x="728" 
d="M477 -56q-11 -12 -11 -24q0 -10 8.5 -16t21.5 -6q26 0 48 24q14 10 26 10q16 0 26.5 -10.5t10.5 -25.5q0 -16 -10 -26q-22 -21 -48 -33t-53 -12q-44 0 -73.5 27.5t-29.5 67.5q0 34 25 67l9 13h-3h-120q-115 0 -169.5 54.5t-54.5 169.5v231q0 115 55 169.5t169 53.5h120
q115 0 169.5 -54.5t54.5 -169.5v-230q0 -86 -30 -137.5t-93 -72.5zM424 84q55 0 84.5 13t42.5 42.5t13 84.5v230q0 54 -13 84t-43 43t-84 13h-120q-54 1 -84 -12t-43 -43t-13 -84v-231q0 -55 13 -84.5t42.5 -42.5t84.5 -13h120z" />
    <glyph glyph-name="uni01EB" unicode="&#x1eb;" horiz-adv-x="634" 
d="M423 -72q-11 -13 -11 -25q0 -9 8.5 -15t21.5 -6q7 0 16 2.5t13 1.5q10 2 13 2q20 0 29 -11t9 -28q0 -15 -17 -25q-32 -15 -63 -15q-44 0 -73.5 27t-29.5 67q0 35 25 68l23 30q-9 -1 -29 -1h-82q-100 0 -148 48t-48 147v116q0 100 48 148t148 48h82q100 0 148 -48t48 -148
v-115q0 -96 -44 -144q0 -12 -10 -22zM358 84q44 0 68 10t34 34t10 68v115q0 44 -10 68t-34 34t-68 10h-82q-45 0 -68.5 -10t-33.5 -33.5t-10 -68.5v-116q0 -44 10 -67.5t34 -33.5t68 -10h82z" />
    <glyph glyph-name="uni01EC" unicode="&#x1ec;" horiz-adv-x="796" 
d="M341.5 -197q-29.5 27 -29.5 67q0 35 25 68l78 103q15 16 27 16q13 0 27 -11t14 -25q0 -13 -10 -24l-77 -102q-11 -13 -11 -25q0 -9 8.5 -15t21.5 -6q7 0 16 2.5t13 1.5q10 2 13 2q20 0 29 -11t9 -28q0 -15 -17 -25q-32 -15 -63 -15q-44 0 -73.5 27zM243 773q0 42 42 42
h253q42 0 42 -42t-42 -42h-253q-42 0 -42 42zM134.5 54.5q-54.5 54.5 -54.5 169.5v231q0 115 55 169.5t169 53.5h120q115 0 169.5 -54.5t54.5 -169.5v-230q0 -115 -54.5 -169.5t-169.5 -54.5h-120q-115 0 -169.5 54.5zM424 84q55 0 84.5 13t42.5 42.5t13 84.5v230
q0 54 -13 84t-43 43t-84 13h-120q-54 1 -84 -12t-43 -43t-13 -84v-231q0 -55 13 -84.5t42.5 -42.5t84.5 -13h120z" />
    <glyph glyph-name="uni01ED" unicode="&#x1ed;" horiz-adv-x="619" 
d="M242.5 -197q-29.5 27 -29.5 67q0 35 25 68l78 103q15 16 27 16q13 0 27 -11t14 -25q0 -13 -10 -24l-77 -102q-11 -13 -11 -25q0 -9 8.5 -15t21.5 -6q7 0 16 2.5t13 1.5q10 2 13 2q20 0 29 -11t9 -28q0 -15 -17 -25q-32 -15 -63 -15q-44 0 -73.5 27zM155 605q0 42 42 42
h253q42 0 42 -42t-42 -42h-253q-42 0 -42 42zM128 48q-48 48 -48 147v116q0 100 48 148t148 48h82q100 0 148 -48t48 -148v-115q0 -100 -48 -148t-148 -48h-82q-100 0 -148 48zM358 84q44 0 68 10t34 34t10 68v115q0 44 -10 68t-34 34t-68 10h-82q-45 0 -68.5 -10
t-33.5 -33.5t-10 -68.5v-116q0 -44 10 -67.5t34 -33.5t68 -10h82z" />
    <glyph glyph-name="uni01EE" unicode="&#x1ee;" horiz-adv-x="591" 
d="M149 827l64 -71h12l64 71q9 10 25 10q14 0 24.5 -10.5t10.5 -24.5t-10 -24l-73 -73q-18 -19 -44 -19h-6q-26 0 -44 19l-73 73q-10 10 -10 24t10.5 24.5t24.5 10.5q15 0 25 -10zM520 714v-97l-211 -201q121 -5 182 -59.5t61 -148.5q0 -62 -32.5 -111.5t-100 -78
t-171.5 -28.5q-126 0 -220 39v128q50 -23 107 -35t104 -12q62 0 97.5 13.5t50 38t14.5 55.5q0 44 -45.5 70t-157.5 26h-60v106l176 170h-262v125h468z" />
    <glyph glyph-name="uni01EF" unicode="&#x1ef;" horiz-adv-x="581" 
d="M520 546v-97l-216 -202q88 -10 140 -44.5t75 -86.5t23 -115q0 -69 -32 -123.5t-98 -86t-168 -31.5q-123 0 -216 39v128q48 -23 103.5 -35t101.5 -12q61 0 95 18t48.5 47t14.5 63q0 36 -17 66t-59.5 47.5t-118.5 17.5h-58v106l198 187h-288v114h472zM146 659l64 -71h12
l64 71q9 10 25 10q14 0 24.5 -10.5t10.5 -24.5t-10 -24l-73 -73q-18 -19 -44 -19h-6q-26 0 -44 19l-73 73q-10 10 -10 24t10.5 24.5t24.5 10.5q15 0 25 -10z" />
    <glyph glyph-name="uni01F0" unicode="&#x1f0;" horiz-adv-x="305" 
d="M13 659l64 -71h12l64 71q9 10 25 10q14 0 24.5 -10.5t10.5 -24.5t-10 -24l-73 -73q-18 -19 -44 -19h-6q-26 0 -44 19l-73 73q-10 10 -10 24t10.5 24.5t24.5 10.5q15 0 25 -10zM36 -116q41 0 54.5 13.5t13.5 54.5v513q0 20 11 31t31 11t31 -11t11 -31v-513
q0 -77 -37.5 -114.5t-114.5 -37.5q-41 0 -41 42t41 42z" />
    <glyph glyph-name="uni01F1" unicode="&#x1f1;" horiz-adv-x="1370" 
d="M115 11q-11 11 -11 31v594q0 20 11 31t31 11h241q131 0 192.5 -61.5t61.5 -192.5v-170q0 -131 -61.5 -192.5t-192.5 -61.5h-241q-20 0 -31 11zM387 84q65 0 101.5 16t52.5 52.5t16 101.5v170q0 65 -16 101.5t-52.5 52.5t-101.5 16h-199v-510h199zM1307.5 152.5
q11.5 -11.5 8.5 -32.5q-12 -59 -53 -89.5t-109 -30.5h-369q-20 0 -30.5 11t-10.5 31q0 13 16 36l394 516h-259q-32 0 -50 -9.5t-25 -31.5q-5 -20 -15 -29.5t-29 -9.5t-30.5 9.5t-11.5 25.5q0 6 1 9q12 58 52.5 89t107.5 31h334q21 0 31.5 -11t10.5 -31q0 -17 -16 -38
l-394 -514h293q34 0 52 9.5t24 31.5q6 20 16 29.5t29 9.5q21 0 32.5 -11.5z" />
    <glyph glyph-name="uni01F2" unicode="&#x1f2;" horiz-adv-x="1206" 
d="M115 11q-11 11 -11 31v594q0 20 11 31t31 11h241q131 0 192.5 -61.5t61.5 -192.5v-170q0 -131 -61.5 -192.5t-192.5 -61.5h-241q-20 0 -31 11zM387 84q65 0 101.5 16t52.5 52.5t16 101.5v170q0 65 -16 101.5t-52.5 52.5t-101.5 16h-199v-510h199zM1158.5 135
q11.5 -9 11.5 -25q0 -6 -1 -10q-11 -49 -46.5 -74.5t-93.5 -25.5h-259q-20 0 -31 11t-11 31q0 19 18 41l272 340h-171q-26 0 -38 -4t-18 -16q-6 -21 -15 -30.5t-28 -9.5q-20 0 -31 9t-11 26q0 6 1 9q19 100 140 100h245q42 0 42 -42q0 -20 -18 -42l-270 -338l183 -1
q24 0 36.5 4.5t18.5 16.5q7 21 16.5 30t27.5 9q19 0 30.5 -9z" />
    <glyph glyph-name="uni01F3" unicode="&#x1f3;" horiz-adv-x="1144" 
d="M543 693q11 -11 11 -31v-620q0 -20 -11 -31t-31 -11t-31 11t-11 31v7q-25 -25 -62.5 -37t-93.5 -12h-38q-100 0 -148 48t-48 148v115q0 100 48 148t148 48h194v155q0 20 11 31t31 11t31 -11zM426.5 101.5q43.5 17.5 43.5 51.5v270h-194q-44 0 -68 -10t-34 -34t-10 -68
v-115q0 -44 10 -68t34 -34t68 -10h38q69 0 112.5 17.5zM1096.5 135q11.5 -9 11.5 -25q0 -6 -1 -10q-11 -49 -46.5 -74.5t-93.5 -25.5h-259q-20 0 -31 11t-11 31q0 19 18 41l272 340h-171q-26 0 -38 -4t-18 -16q-6 -21 -15 -30.5t-28 -9.5q-20 0 -31 9t-11 26q0 6 1 9
q19 100 140 100h245q42 0 42 -42q0 -20 -18 -42l-270 -338l183 -1q24 0 36.5 4.5t18.5 16.5q7 21 16.5 30t27.5 9q19 0 30.5 -9z" />
    <glyph glyph-name="uni01F4" unicode="&#x1f4;" horiz-adv-x="724" 
d="M134.5 54.5q-54.5 54.5 -54.5 169.5v230q0 115 54.5 170t168.5 54h121q94 0 143.5 -39t57.5 -122q3 -21 -8 -32t-32 -11q-20 0 -30.5 10.5t-13.5 31.5q-5 45 -31 61.5t-86 16.5h-121q-54 1 -84 -12t-42.5 -43t-12.5 -85v-230q0 -55 13 -84.5t42.5 -42.5t84.5 -13h120
q48 0 73.5 10.5t36 36t10.5 73.5v47l-78 1q-42 0 -42 42q0 20 11 31t31 11l120 -1q20 0 31 -11t11 -31v-89q0 -106 -49.5 -155t-154.5 -49h-120q-115 0 -169.5 54.5zM318 717q0 14 10 25l73 88q11 14 26 14q14 0 25 -10q14 -11 14 -26q0 -14 -10 -25l-73 -88
q-11 -14 -26 -14q-12 0 -25 10q-14 11 -14 26z" />
    <glyph glyph-name="uni01F5" unicode="&#x1f5;" horiz-adv-x="633" 
d="M554 465v-521q0 -74 -35 -109t-109 -35h-186q-121 0 -140 99q-1 3 -1 10q0 16 11 25.5t31 9.5q18 0 27 -9.5t16 -31.5q6 -11 18.5 -15t37.5 -4h186q37 0 48.5 11.5t11.5 48.5v116q-27 -29 -67 -44.5t-89 -15.5h-38q-100 0 -148 48t-48 147v116q0 101 48 149t148 47h82
q72 0 112 -42q0 42 42 42t42 -42zM427 101.5q43 17.5 43 51.5v200q0 39 -28 54.5t-84 15.5h-82q-44 1 -68 -9t-34 -34t-10 -69v-116q0 -44 10 -67.5t34 -33.5t68 -10h38q70 0 113 17.5zM232 549q0 14 10 25l73 88q11 14 26 14q14 0 25 -10q14 -11 14 -26q0 -14 -10 -25
l-73 -88q-11 -14 -26 -14q-12 0 -25 10q-14 11 -14 26z" />
    <glyph glyph-name="uni01F6" unicode="&#x1f6;" horiz-adv-x="1048" 
d="M90 0v714h151v-280h235v280h151v-480q0 -64 21.5 -93t70.5 -29t71 30t22 103v301h151v-303q0 -125 -59.5 -189t-184.5 -64t-184 55t-59 175v88h-235v-308h-151z" />
    <glyph glyph-name="uni01F7" unicode="&#x1f7;" horiz-adv-x="676" 
d="M419 725q91 0 149 -67.5t58 -195.5q0 -96 -41.5 -185.5t-127 -161t-216.5 -111.5v-244h-151v954h115l24 -92h4q17 26 44 49.5t63 38.5t79 15zM375 599q-63 0 -98.5 -55.5t-35.5 -152.5v-246q67 27 119.5 75t82.5 110.5t30 130.5q0 67 -25.5 102.5t-72.5 35.5z" />
    <glyph glyph-name="uni01F8" unicode="&#x1f8;" horiz-adv-x="813" 
d="M642 667q11 -11 11 -31v-594q0 -20 -11 -31t-31 -11q-12 0 -22 6t-20 19l-381 491v-474q0 -20 -11 -31t-31 -11t-31 11t-11 31v594q0 20 11 31t31 11q12 0 21.5 -6t20.5 -19l381 -491v474q0 20 11 31t31 11t31 -11zM336 681q-15 0 -26 14l-73 88q-10 11 -10 25
q0 15 14 26q11 10 25 10q15 0 26 -14l73 -88q10 -11 10 -25q0 -15 -14 -26q-13 -10 -25 -10z" />
    <glyph glyph-name="uni01F9" unicode="&#x1f9;" horiz-adv-x="657" 
d="M520 459q48 -48 48 -148v-269q0 -20 -11 -31t-31 -11t-31 11t-11 31v269q0 44 -10 68t-34 34t-68 10h-28q-63 0 -106.5 -14.5t-49.5 -42.5v-324q0 -20 -11 -31t-31 -11t-31 11t-11 31v423q0 42 42 42t42 -42v-17q53 59 156 59h28q100 0 148 -48zM258 513q-15 0 -26 14
l-73 88q-10 11 -10 25q0 15 14 26q11 10 25 10q15 0 26 -14l73 -88q10 -11 10 -25q0 -15 -14 -26q-13 -10 -25 -10z" />
    <glyph glyph-name="Aringacute" unicode="&#x1fa;" horiz-adv-x="666" 
d="M280 749.5q-21 20.5 -21 56.5t21 56.5t56 20.5q36 0 57 -20.5t21 -56.5t-21 -56.5t-57 -20.5q-35 0 -56 20.5zM351.5 787.5q4.5 1.5 4.5 8.5v16q0 10 -1.5 12t-9.5 2h-7q-16 0 -19 -2t-3 -11v-7q0 -14 2 -17t10 -3q19 0 23.5 1.5zM299 961q0 14 10 25l73 88q11 14 26 14
q14 0 25 -10q14 -11 14 -26q0 -14 -10 -25l-73 -88q-11 -14 -26 -14q-12 0 -25 10q-14 11 -14 26zM625 39q0 -24 -27 -35q-9 -4 -20 -4q-24 0 -35 27l-54 131h-311l-52 -131q-11 -27 -35 -27q-10 0 -19 4q-28 10 -28 35q0 11 4 20l238 586q15 33 47 33h2q33 -2 44 -33
l242 -586q4 -9 4 -20zM211 242h244l-125 303z" />
    <glyph glyph-name="aringacute" unicode="&#x1fb;" horiz-adv-x="640" 
d="M257 578.5q-21 20.5 -21 56.5t21 56.5t56 20.5q36 0 57 -20.5t21 -56.5t-21 -56.5t-57 -20.5q-35 0 -56 20.5zM328.5 616.5q4.5 1.5 4.5 8.5v16q0 10 -1.5 12t-9.5 2h-7q-16 0 -19 -2t-3 -11v-7q0 -14 2 -17t10 -3q19 0 23.5 1.5zM276 790q0 14 10 25l73 88q11 14 26 14
q14 0 25 -10q14 -11 14 -26q0 -14 -10 -25l-73 -88q-11 -14 -26 -14q-12 0 -25 10q-14 11 -14 26zM498 459q48 -48 48 -148v-269q0 -20 -11 -31t-31 -11t-31 11t-11 31v23q-53 -65 -156 -65h-56q-84 0 -125 41t-41 125t40.5 125t125.5 41h211q-3 52 -27 71.5t-84 19.5h-58
q-50 0 -74.5 -7t-34.5 -24q-9 -21 -19 -29t-28 -8t-29.5 9t-11.5 24q0 6 1 10q15 56 62.5 82.5t133.5 26.5h58q100 0 148 -48zM459 159.5q1 3.5 3 7.5v81h-212q-34 0 -51 -7t-24 -24t-7 -51t7 -51t24 -24t51 -7h56q127 0 151 69q1 3 2 6.5z" />
    <glyph glyph-name="AEacute" unicode="&#x1fc;" horiz-adv-x="860" 
d="M501 766q0 14 10 25l73 88q11 14 26 14q14 0 25 -10q14 -11 14 -26q0 -14 -10 -25l-73 -88q-11 -14 -26 -14q-12 0 -25 10q-14 11 -14 26zM429 42v116h-228l-77 -134q-13 -24 -34 -24q-12 0 -23 7q-23 14 -23 34q0 12 7 23l332 585q18 29 51 29h328q20 0 31 -11t11 -31
t-11 -31t-31 -11h-249v-210h131q20 0 31 -11t11 -31t-11 -31t-31 -11h-131v-216h249q20 0 31 -11t11 -31t-11 -31t-31 -11h-291q-42 0 -42 42zM249 242h180v327z" />
    <glyph glyph-name="aeacute" unicode="&#x1fd;" horiz-adv-x="966" 
d="M450 595q0 14 10 25l73 88q11 14 26 14q14 0 25 -10q14 -11 14 -26q0 -14 -10 -25l-73 -88q-11 -14 -26 -14q-12 0 -25 10q-14 11 -14 26zM476 64q-31 -41 -79 -62.5t-111 -21.5h-36q-84 0 -125 41t-41 125t41 125t125 41h192q-5 50 -29.5 68.5t-82.5 18.5h-38
q-47 0 -71.5 -6.5t-34.5 -21t-10 -40.5q0 -17 -12.5 -29.5t-29.5 -12.5t-29.5 12.5t-12.5 29.5q0 78 49 115t151 37h38q105 0 154 -77q48 77 150 76h60q98 0 145 -52t47 -160q0 -20 -11 -31t-32 -11h-317v-52q0 -45 10 -69.5t32.5 -34.5t64.5 -10h61q43 0 66.5 7t32.5 22.5
t9 43.5q0 17 12.5 29.5t29.5 12.5t29.5 -12.5t12.5 -29.5q0 -81 -47.5 -119t-144.5 -38h-61q-108 0 -157 86zM799 312q-6 48 -29.5 67t-75.5 19h-60q-56 1 -79.5 -17.5t-27.5 -68.5h272zM286 64q81 0 118.5 26.5t37.5 81.5v56h-192q-34 0 -51 -7t-24 -24t-7 -51t7 -51
t24 -24t51 -7h36z" />
    <glyph glyph-name="Oslashacute" unicode="&#x1fe;" horiz-adv-x="728" 
d="M328 766q0 14 10 25l73 88q11 14 26 14q14 0 25 -10q14 -11 14 -26q0 -14 -10 -25l-73 -88q-11 -14 -26 -14q-12 0 -25 10q-14 11 -14 26zM648 454v-230q0 -115 -54.5 -169.5t-169.5 -54.5h-120q-64 0 -106 16l-16 -26q-13 -21 -31 -21q-10 0 -23 8q-21 13 -21 32
q0 11 7 22l17 28q-51 54 -51 165v231q0 115 55 169.5t169 53.5h120q43 0 81 -8l14 23q14 21 31 21q10 0 23 -8q20 -14 20 -30q0 -10 -8 -24l-9 -14q72 -53 72 -184zM178 136l280 457q-11 1 -34 1h-120q-54 1 -84 -12t-43 -43t-13 -84v-231q0 -59 14 -88zM564 454
q0 41 -7.5 68.5t-24.5 42.5l-289 -476q28 -5 61 -5h120q55 0 84.5 13t42.5 42.5t13 84.5v230z" />
    <glyph glyph-name="oslashacute" unicode="&#x1ff;" horiz-adv-x="634" 
d="M281 595q0 14 10 25l73 88q11 14 26 14q14 0 25 -10q14 -11 14 -26q0 -14 -10 -25l-73 -88q-11 -14 -26 -14q-12 0 -25 10q-14 11 -14 26zM554 311v-115q0 -100 -48 -148t-148 -48h-82q-38 0 -72 8l-35 -57q-12 -20 -29 -20q-10 0 -23 8q-18 13 -18 28q0 10 7 21l32 51
q-58 48 -58 156v116q0 100 48 148t148 48h82q37 0 71 -8l20 32q13 19 29 19q10 0 23 -8q16 -12 16 -28q0 -10 -7 -21l-15 -24q59 -47 59 -158zM164 195q0 -33 5.5 -54t17.5 -33l198 314q-8 1 -27 1h-82q-45 0 -68.5 -10t-33.5 -33.5t-10 -68.5v-116zM470 311q0 33 -5.5 54.5
t-17.5 33.5l-197 -314q8 -1 26 -1h82q44 0 68 10t34 34t10 68v115z" />
    <glyph glyph-name="uni0200" unicode="&#x200;" horiz-adv-x="666" 
d="M206 843q-10 10 -10 23t13 23q10 9 22 9q14 0 24 -13l66 -79q9 -10 9 -22q0 -14 -13 -24q-11 -10 -23 -10q-13 0 -23 13zM322 843q-10 10 -10 23t13 23q11 9 22 9q14 0 24 -13l66 -79q9 -10 9 -22q0 -14 -13 -24q-11 -10 -23 -10q-13 0 -23 13zM625 39q0 -24 -27 -35
q-9 -4 -20 -4q-24 0 -35 27l-54 131h-311l-52 -131q-11 -27 -35 -27q-10 0 -19 4q-28 10 -28 35q0 11 4 20l238 586q15 33 47 33h2q33 -2 44 -33l242 -586q4 -9 4 -20zM211 242h244l-125 303z" />
    <glyph glyph-name="uni0201" unicode="&#x201;" horiz-adv-x="640" 
d="M183 672q-10 10 -10 23t13 23q11 9 22 9q14 0 24 -13l66 -79q9 -10 9 -22q0 -14 -13 -24q-11 -10 -23 -10q-13 0 -23 13zM299 672q-10 10 -10 23t13 23q11 9 22 9q14 0 24 -13l66 -79q9 -10 9 -22q0 -14 -13 -24q-11 -10 -23 -10q-13 0 -23 13zM498 459q48 -48 48 -148
v-269q0 -20 -11 -31t-31 -11t-31 11t-11 31v23q-53 -65 -156 -65h-56q-84 0 -125 41t-41 125t40.5 125t125.5 41h211q-3 52 -27 71.5t-84 19.5h-58q-50 0 -74.5 -7t-34.5 -24q-9 -21 -19 -29t-28 -8t-29.5 9t-11.5 24q0 6 1 10q15 56 62.5 82.5t133.5 26.5h58q100 0 148 -48
zM459 159.5q1 3.5 3 7.5v81h-212q-34 0 -51 -7t-24 -24t-7 -51t7 -51t24 -24t51 -7h56q127 0 151 69q1 3 2 6.5z" />
    <glyph glyph-name="uni0202" unicode="&#x202;" horiz-adv-x="666" 
d="M435 897q36 -25 36 -71v-21q0 -37 -37 -37q-17 0 -26.5 6.5t-9.5 18.5v33q0 15 -12.5 21.5t-45.5 6.5q-42 0 -56.5 -6t-14.5 -22v-21q0 -37 -37 -37q-17 0 -26.5 9.5t-9.5 27.5v21q0 46 35.5 71t101.5 25t102 -25zM625 39q0 -24 -27 -35q-9 -4 -20 -4q-24 0 -35 27
l-54 131h-311l-52 -131q-11 -27 -35 -27q-10 0 -19 4q-28 10 -28 35q0 11 4 20l238 586q15 33 47 33h2q33 -2 44 -33l242 -586q4 -9 4 -20zM211 242h244l-125 303z" />
    <glyph glyph-name="uni0203" unicode="&#x203;" horiz-adv-x="640" 
d="M412 726q36 -25 36 -71v-21q0 -37 -37 -37q-17 0 -26.5 6.5t-9.5 18.5v33q0 15 -12.5 21.5t-45.5 6.5q-42 0 -56.5 -6t-14.5 -22v-21q0 -37 -37 -37q-17 0 -26.5 9.5t-9.5 27.5v21q0 46 35.5 71t101.5 25t102 -25zM498 459q48 -48 48 -148v-269q0 -20 -11 -31t-31 -11
t-31 11t-11 31v23q-53 -65 -156 -65h-56q-84 0 -125 41t-41 125t40.5 125t125.5 41h211q-3 52 -27 71.5t-84 19.5h-58q-50 0 -74.5 -7t-34.5 -24q-9 -21 -19 -29t-28 -8t-29.5 9t-11.5 24q0 6 1 10q15 56 62.5 82.5t133.5 26.5h58q100 0 148 -48zM459 159.5q1 3.5 3 7.5v81
h-212q-34 0 -51 -7t-24 -24t-7 -51t7 -51t24 -24t51 -7h56q127 0 151 69q1 3 2 6.5z" />
    <glyph glyph-name="uni0204" unicode="&#x204;" horiz-adv-x="603" 
d="M212 843q-10 10 -10 23t13 23q10 9 22 9q14 0 24 -13l66 -79q9 -10 9 -22q0 -14 -13 -24q-11 -10 -23 -10q-13 0 -23 13zM328 843q-10 10 -10 23t13 23q11 9 22 9q14 0 24 -13l66 -79q9 -10 9 -22q0 -14 -13 -24q-11 -10 -23 -10q-13 0 -23 13zM536 73q11 -11 11 -31
t-11 -31t-31 -11h-359q-20 0 -31 11t-11 31v594q0 20 11 31t31 11h359q20 0 31 -11t11 -31t-11 -31t-31 -11h-317v-210h199q20 0 31 -11t11 -31t-11 -31t-31 -11h-199v-216h317q20 0 31 -11z" />
    <glyph glyph-name="uni0205" unicode="&#x205;" horiz-adv-x="634" 
d="M190 672q-10 10 -10 23t13 23q11 9 22 9q14 0 24 -13l66 -79q9 -10 9 -22q0 -14 -13 -24q-11 -10 -23 -10q-13 0 -23 13zM306 672q-10 10 -10 23t13 23q11 9 22 9q14 0 24 -13l66 -79q9 -10 9 -22q0 -14 -13 -24q-11 -10 -23 -10q-13 0 -23 13zM164 219v-24
q0 -44 10 -67.5t34 -33.5t68 -10h82q51 0 75.5 9.5t32.5 33.5q6 20 16 29.5t29 9.5t29.5 -8.5t10.5 -24.5q0 -7 -1 -10q-22 -123 -192 -123h-82q-100 0 -148 48t-48 147v116q0 101 48 149t148 47h82q100 0 148 -48t48 -148v-50q0 -20 -11 -31t-31 -11h-348zM164 303h306v8
q0 44 -10 68t-34 34t-68 10h-82q-44 1 -68 -9t-34 -34t-10 -69v-8z" />
    <glyph glyph-name="uni0206" unicode="&#x206;" horiz-adv-x="603" 
d="M441 897q36 -25 36 -71v-21q0 -37 -37 -37q-17 0 -26.5 6.5t-9.5 18.5v33q0 15 -12.5 21.5t-45.5 6.5q-42 0 -56.5 -6t-14.5 -22v-21q0 -37 -37 -37q-17 0 -26.5 9.5t-9.5 27.5v21q0 46 35.5 71t101.5 25t102 -25zM536 73q11 -11 11 -31t-11 -31t-31 -11h-359
q-20 0 -31 11t-11 31v594q0 20 11 31t31 11h359q20 0 31 -11t11 -31t-11 -31t-31 -11h-317v-210h199q20 0 31 -11t11 -31t-11 -31t-31 -11h-199v-216h317q20 0 31 -11z" />
    </font>
</defs>
</svg>
