<?xml version="1.0" standalone="no"?>
<!DOCTYPE svg PUBLIC "-//W3C//DTD SVG 1.1//EN" "http://www.w3.org/Graphics/SVG/1.1/DTD/svg11.dtd" >
<svg xmlns="http://www.w3.org/2000/svg" xmlns:xlink="http://www.w3.org/1999/xlink" version="1.1">
<metadata>
Created by FontForge 20190801 at Mon Feb  8 12:16:00 2021
 By root
Copyright (c) 2014 Indian Type Foundry (info@indiantypefoundry.com)
</metadata>
<defs>
<font id="Kalam-Regular" horiz-adv-x="401" >
  <font-face 
    font-family="Kalam"
    font-weight="400"
    font-stretch="normal"
    units-per-em="1000"
    panose-1="2 0 0 0 0 0 0 0 0 0"
    ascent="800"
    descent="-200"
    x-height="511"
    cap-height="718"
    bbox="-221 -270 1282 1046"
    underline-thickness="50"
    underline-position="-150"
    unicode-range="U+0001-206F"
  />
<missing-glyph horiz-adv-x="364" 
d="M33 0v666h265v-666h-265zM66 33h199v600h-199v-600z" />
    <glyph glyph-name=".notdef" horiz-adv-x="364" 
d="M33 0v666h265v-666h-265zM66 33h199v600h-199v-600z" />
    <glyph glyph-name="uni0000" 
 />
    <glyph glyph-name="uni0000" 
 />
    <glyph glyph-name="uni000D" unicode="&#xd;" 
 />
    <glyph glyph-name="uni0001" 
 />
    <glyph glyph-name="uni0002" 
 />
    <glyph glyph-name="uni0003" 
 />
    <glyph glyph-name="uni0004" 
 />
    <glyph glyph-name="uni0005" 
 />
    <glyph glyph-name="uni0006" 
 />
    <glyph glyph-name="uni0007" 
 />
    <glyph glyph-name="uni0008" 
 />
    <glyph glyph-name="uni0009" unicode="&#x9;" 
 />
    <glyph glyph-name="uni000A" unicode="&#xa;" 
 />
    <glyph glyph-name="uni000B" 
 />
    <glyph glyph-name="uni000C" 
 />
    <glyph glyph-name="uni000E" 
 />
    <glyph glyph-name="uni000F" 
 />
    <glyph glyph-name="uni0010" 
 />
    <glyph glyph-name="uni0011" 
 />
    <glyph glyph-name="uni0012" 
 />
    <glyph glyph-name="uni0013" 
 />
    <glyph glyph-name="uni0014" 
 />
    <glyph glyph-name="uni0015" 
 />
    <glyph glyph-name="uni0016" 
 />
    <glyph glyph-name="uni0017" 
 />
    <glyph glyph-name="uni0018" 
 />
    <glyph glyph-name="uni0019" 
 />
    <glyph glyph-name="uni001A" 
 />
    <glyph glyph-name="uni001B" 
 />
    <glyph glyph-name="uni001C" 
 />
    <glyph glyph-name="uni001D" 
 />
    <glyph glyph-name="uni001E" 
 />
    <glyph glyph-name="uni001F" 
 />
    <glyph glyph-name="space" unicode=" " 
 />
    <glyph glyph-name="exclam" unicode="!" horiz-adv-x="371" 
d="M119 143q17 0 41 -48.5t24 -72.5q0 -7 -10 -16t-19 -9q-25 0 -56 31.5t-31 52t17 41.5t34 21zM214 810q19 0 52 -24t33 -38q0 -85 -43.5 -299t-69.5 -214q-16 0 -30 16.5t-14 34.5q-1 6 12.5 72t28.5 185.5t15 240.5q0 26 16 26z" />
    <glyph glyph-name="quotedbl" unicode="&#x22;" horiz-adv-x="331" 
d="M261 846q11 0 31.5 -16.5t20.5 -26.5q0 -53 -15 -151.5t-35 -98.5q-10 0 -22 12.5t-12 20t9 91.5t9 150q0 19 14 19zM78 827q0 19 12 19t33 -16.5t21 -26.5q0 -52 -15.5 -151t-34.5 -99q-11 0 -22.5 12.5t-11.5 20t9 91.5t9 150z" />
    <glyph glyph-name="numbersign" unicode="#" horiz-adv-x="656" 
d="M146 147q-49 -7 -59 -7t-21.5 17t-11.5 32q0 25 114 44q42 169 54 225q-63 -11 -77 -11t-25 17t-11 32q0 28 131 47q20 103 20 137.5t3.5 41t17.5 6.5t40 -24t26 -53t-14 -96q89 8 133 10q16 85 16 117t3.5 39t18 7t40 -24t25.5 -51t-11 -84q18 1 43 1q63 0 63 -29
q0 -25 -121 -41q-21 -90 -60 -238q26 1 63.5 1t50 -7t12.5 -22t-33 -24.5t-113 -19.5l-16 -61q-36 -137 -64 -137q-13 0 -22.5 17.5t-9.5 37.5q-3 14 26 132q-37 -5 -71 -9q-51 -6 -74 -10q-37 -140 -54 -161q-18 -18 -37 13q-12 19 -12 45q-2 6 17 90zM451 488
q-83 -10 -136 -17q-13 -55 -59 -226q65 7 141 12q37 149 54 231z" />
    <glyph glyph-name="dollar" unicode="$" horiz-adv-x="534" 
d="M441 678q29 0 47 -28.5t18 -56.5q0 -16 -14 -16q-6 0 -21 4.5t-29 4.5t-44 -4q-40 -128 -66 -220q70 -50 110 -93t40 -90q1 -72 -77.5 -120t-176.5 -53q-27 -77 -45 -77q-10 0 -16 9q-11 18 2 72q-62 13 -104 58t-42 82t21 37q11 0 32 -22t50.5 -45.5t62.5 -26.5
q8 32 63 221q-66 46 -102 81.5t-36 67t8.5 60t20.5 40.5q63 63 210 102q20 62 35 88.5t34.5 26t19.5 -35.5q0 -24 -14 -66h13zM354.5 127.5q38.5 22.5 38.5 55.5t-86 94q-30 -107 -51 -180q60 8 98.5 30.5zM198 480q0 -24 78 -79q8 28 46 162q-53 -18 -88.5 -41t-35.5 -42z
" />
    <glyph glyph-name="percent" unicode="%" horiz-adv-x="890" 
d="M697 403q48 0 80.5 -50.5t32.5 -112.5q0 -86 -61 -158t-131 -72q-42 0 -73.5 43.5t-31.5 96.5q0 93 58.5 173t125.5 80zM633 89q29 0 64 45.5t35 92t-12.5 72.5t-28.5 26q-29 0 -64 -55.5t-35 -112.5q0 -28 11 -48t30 -20zM628.5 732q50.5 28 62 28t27.5 -27t13.5 -49
t-35 -71t-107.5 -149.5t-182 -252.5t-137 -189t-40.5 -35.5t-21 17t-9.5 27.5t20 43t61.5 92.5t83.5 119.5q82 116 244 347q-96 -57 -186 -50q-11 0 -35 6q7 -31 7 -55q0 -86 -61 -158.5t-131 -72.5q-43 0 -74.5 43.5t-31.5 96.5q0 93 58.5 173t126.5 80q23 0 44 -12
q42 -26 82.5 -29t105.5 23t115.5 54zM216 382q29 0 64.5 45.5t35.5 92t-12.5 72.5t-28.5 26q-29 0 -64 -55.5t-35 -112.5q0 -27 11 -47.5t29 -20.5z" />
    <glyph glyph-name="ampersand" unicode="&#x26;" horiz-adv-x="704" 
d="M569 91q49 0 67 -5t18 -19q0 -47 -96.5 -47t-190.5 87q-160 -98 -237 -98q-39 0 -77 37.5t-38 79t176 184.5q5 5 8 7t7.5 6t8.5 7q-36 88 -36 163.5t55 131.5t139 56q64 0 91.5 -38.5t27.5 -85.5q0 -89 -183 -247q26 -56 62 -103q41 28 107 76q129 93 142 93q31 0 31 -33
q0 -19 -66 -77t-156 -119q67 -56 140 -56zM291.5 570q-24.5 -35 -24.5 -83.5t15 -100.5q121 107 121 163q0 24 -12.5 40t-37.5 16q-37 0 -61.5 -35zM103 111.5q0 -10.5 8 -17.5t20 -7q52 0 179 81q-31 38 -61 91q-122 -102 -134 -119.5t-12 -28z" />
    <glyph glyph-name="quotesingle" unicode="'" horiz-adv-x="145" 
d="M84 827q0 19 12.5 19t35 -16.5t22.5 -26.5q0 -46 -20 -150.5t-39 -99.5q-10 0 -22 13t-12 20t11.5 92t11.5 149z" />
    <glyph glyph-name="parenleft" unicode="(" horiz-adv-x="485" 
d="M535.5 860.5q15.5 -14.5 15.5 -29t-28.5 -38.5t-70.5 -54t-92 -78t-92 -102t-70.5 -133t-28.5 -152.5t20.5 -123t51 -79.5t66.5 -54.5t67 -38.5q71 -34 71 -55.5t-29 -21.5q-48 0 -104 24.5t-109 68.5t-88 117.5t-35 168t37 193t91 169t114 125t108.5 81.5t69 27
t36 -14.5z" />
    <glyph glyph-name="parenright" unicode=")" horiz-adv-x="504" 
d="M426 571q0 -96 -27.5 -188.5t-70.5 -162t-94.5 -129t-100.5 -97.5q-104 -81 -142 -81q-23 0 -23 17q0 18 94 100q93 80 176 202q41 60 68 140.5t27 152t-16.5 116.5t-40 70t-47.5 43t-40.5 33.5t-16.5 30.5q0 43 56 43q67 0 132.5 -86t65.5 -204z" />
    <glyph glyph-name="asterisk" unicode="*" horiz-adv-x="357" 
d="M381 726q0 -6 -38 -27.5t-72 -35.5q13 -11 36.5 -24.5t38.5 -22.5t15 -14.5t-7.5 -11.5t-16.5 -6t-35 16t-49 36q-4 -32 -14.5 -69.5t-18.5 -37.5t-15.5 7.5t-7.5 13.5t4.5 21.5t11 35.5t8.5 31q-16 -15 -51.5 -35t-44 -20t-16.5 7.5t-8 15.5q0 5 18 13t47.5 21t46.5 24
q-29 11 -66.5 40.5t-37.5 41.5t10 12q48 0 57 -19q4 -8 21.5 -27t29.5 -25v91q0 15 13 15q10 0 24.5 -13t14.5 -21.5t-18 -72.5q16 10 37 27.5t34 28t20.5 10.5t18 -8.5t10.5 -17.5z" />
    <glyph glyph-name="plus" unicode="+" horiz-adv-x="600" 
d="M606 362q0 -44 -252 -69q-37 -179 -44 -201t-18 -22q-14 0 -30 19.5t-16 35t3 33t9.5 54t12.5 74.5q-86 -6 -154 -6q-24 0 -43 20t-19 41t28 21q148 0 199 4q9 75 18 181q1 30 20 30t47.5 -28t28.5 -48.5t-24 -128.5q142 12 165 12q69 0 69 -22z" />
    <glyph glyph-name="comma" unicode="," horiz-adv-x="228" 
d="M174 26q0 -63 -54 -132.5t-93 -69.5q-20 0 -20 14q0 11 21 36q63 75 63 125q0 16 -12.5 26.5t-25.5 19.5t-13 22.5t17 34t36 20.5q32 0 56.5 -29.5t24.5 -66.5z" />
    <glyph glyph-name="hyphen" unicode="-" horiz-adv-x="459" 
d="M422 328q0 -16 -32.5 -26t-157 -35t-136 -25t-27.5 17t-16 31q0 22 113 42.5t196 20.5q60 0 60 -25z" />
    <glyph glyph-name="period" unicode="." horiz-adv-x="237" 
d="M145 -6q-25 0 -57 32.5t-32 54t17.5 43t36 21.5t43 -49t24.5 -74q0 -8 -11 -18t-21 -10z" />
    <glyph glyph-name="slash" unicode="/" horiz-adv-x="354" 
d="M106.5 -4q-33.5 -73 -45 -73t-29 21.5t-17.5 35.5q0 55 316 787q1 3 3 7.5t3 7t2.5 5.5t3 4t3.5 3q3 2 12 2t31.5 -30t22.5 -52.5t-25.5 -82t-75 -163t-110.5 -251.5t-94.5 -221z" />
    <glyph glyph-name="zero" unicode="0" horiz-adv-x="500" 
d="M381 488q0 157 -46 157q-21 0 -53.5 -41.5t-63 -103.5t-52 -141.5t-21.5 -146.5q0 -115 61 -115q29 0 70.5 64t73 158t31.5 169zM330 95.5q-64 -77.5 -125.5 -77.5t-107 56.5t-45.5 126.5q0 121 44.5 245t112 202.5t130.5 78.5t97.5 -59.5t34.5 -166t-38.5 -217.5
t-102.5 -188.5z" />
    <glyph glyph-name="one" unicode="1" horiz-adv-x="314" 
d="M271 651q0 -107 -51 -308q-11 -40 -25 -99t-23 -94.5t-20 -71.5q-20 -71 -39 -71q-14 0 -29.5 20t-15.5 41.5t21.5 103.5t48.5 224t37 299q3 31 23 31q22 0 47.5 -28t25.5 -47z" />
    <glyph glyph-name="two" unicode="2" horiz-adv-x="581" 
d="M367.5 135q58.5 8 86 8t42 -4.5t14.5 -18.5q0 -28 -150.5 -63.5t-220.5 -35.5q-31 0 -64.5 27.5t-33.5 57.5q0 24 96 96q90 66 177 154q41 42 68.5 92.5t27.5 93t-19 66.5t-52 24t-62 -20t-47 -39.5t-23 -19.5q-17 0 -40 15t-23 30q0 37 61.5 82t131.5 45t116.5 -49.5
t46.5 -122.5q0 -216 -370 -453q24 3 101.5 15t136 20z" />
    <glyph glyph-name="three" unicode="3" horiz-adv-x="571" 
d="M473 324q54 -33 54 -87.5t-63.5 -107.5t-154 -83t-183 -30t-92.5 34q0 9 59.5 23.5t130.5 31t130.5 53t59.5 84.5q0 26 -36 42.5t-80 23.5q-116 17 -116 40q0 8 3 12q8 14 51 39t87.5 49t81.5 63t37 79q0 47 -51 47q-41 0 -104 -32.5t-71.5 -32.5t-31.5 21.5t-23 32.5
q0 30 81.5 62t144.5 32t106.5 -43t43.5 -98.5t-63 -113t-146 -96.5q91 -12 145 -45z" />
    <glyph glyph-name="four" unicode="4" horiz-adv-x="551" 
d="M441 532q16 0 42 -23.5t26 -43.5q0 -90 -58 -283.5t-91 -193.5q-11 0 -21.5 14.5t-10.5 31t9 47.5t25.5 82t27.5 95q-95 -43 -181 -43q-58 0 -97.5 34.5t-39.5 95.5q0 44 33.5 111.5t76.5 125t85 100t58.5 42.5t32 -12t15.5 -26.5t-53 -77t-106 -138.5t-53 -121
q0 -55 56 -55q48 0 118.5 26t72.5 27q12 81 12 153q0 32 21 32z" />
    <glyph glyph-name="five" unicode="5" horiz-adv-x="537" 
d="M444 716q146 0 146 -31q0 -22 -172 -49q-76 -12 -95.5 -16.5t-46 -53t-26.5 -70t21 -45t51.5 -46t61.5 -46.5q72 -57 72 -111q0 -84 -80 -156t-168 -72q-69 0 -124 47t-55 93q0 29 16 29q6 0 29 -23q68 -68 118.5 -68t110 47t59.5 94q0 43 -74 94q-30 21 -60.5 43.5
t-52 53.5t-21.5 71.5t46 115t76 81.5q62 18 168 18z" />
    <glyph glyph-name="six" unicode="6" horiz-adv-x="556" 
d="M491 257q0 -84 -97 -160.5t-203 -76.5q-63 0 -103.5 42.5t-40.5 115t47.5 173.5t108.5 180t117.5 134t77 55t40.5 -10.5t20 -21t-34 -46.5q-135 -143 -191 -224q111 -10 184.5 -58.5t73.5 -102.5zM200 101q66 0 129.5 47t63.5 101q0 38 -53.5 70t-142.5 43
q-61 -107 -61 -193q0 -34 17.5 -51t46.5 -17z" />
    <glyph glyph-name="seven" unicode="7" horiz-adv-x="461" 
d="M181.5 707q82.5 12 162 12t100.5 -14q17 -13 29.5 -41.5t12.5 -46.5t-9.5 -40.5t-27.5 -54t-35.5 -60t-41.5 -67t-46 -76t-73.5 -132.5t-76 -134.5t-37.5 -39.5t-25 18.5t-12 36.5q0 33 74 158.5t148.5 247t74.5 142.5q0 18 -33.5 18t-107 -11t-93.5 -11t-43 27.5
t-23 45.5q0 10 82.5 22z" />
    <glyph glyph-name="eight" unicode="8" horiz-adv-x="602" 
d="M562 697q40 -32 40 -85.5t-52 -112t-145 -132.5q93 -88 93 -150q0 -49 -43.5 -95.5t-105 -73t-111.5 -26.5t-98.5 36.5t-48.5 82.5t49 102.5t136 127.5q-145 112 -170 149q-14 20 -14 37.5t5.5 35t14.5 17.5t25 -16.5t29.5 -29.5t44 -38t69.5 -55t60 -48q59 47 89 73
t57.5 59t27.5 55q0 38 -50.5 38t-115.5 -24.5t-79 -24.5t-35.5 15t-21.5 29q0 30 77 58t155 28t118 -32zM408 230q0 28 -66 87q-54 -43 -83 -67.5t-54 -54.5t-25 -48.5t17.5 -33.5t38.5 -15q55 0 113.5 40.5t58.5 91.5z" />
    <glyph glyph-name="nine" unicode="9" horiz-adv-x="488" 
d="M470 509q0 -20 -25.5 -86t-41 -113t-34 -132.5t-30 -129t-24.5 -43.5q-34 0 -34 80t54 255q-73 -56 -128 -56t-96.5 43t-41.5 99t39 127.5t101.5 122t118.5 50.5t86 -37.5t30 -76.5t-7 -61q33 -6 33 -42zM358 524l9 67q0 22 -10.5 36.5t-29.5 14.5q-53 0 -116 -84
t-63 -143q0 -25 17.5 -40t36 -15t30.5 3t24 9.5t21.5 12.5t21 18t18.5 19t18.5 22t16.5 21q19 26 29 41q-23 3 -23 18z" />
    <glyph glyph-name="colon" unicode=":" horiz-adv-x="246" 
d="M202 336q-23 0 -55 41t-32 64.5t14.5 47t28.5 23.5q25 0 48.5 -57t23.5 -79q0 -40 -28 -40zM125 -7q-23 0 -54.5 40t-31.5 64t14 47.5t29 23.5q24 0 47.5 -56.5t23.5 -89.5q0 -11 -8 -20t-20 -9z" />
    <glyph glyph-name="semicolon" unicode=";" horiz-adv-x="306" 
d="M171 8q0 -63 -54 -133t-93 -70q-20 0 -20 15q0 10 21 35q63 75 63 126q0 16 -13 26.5t-25.5 19t-12.5 22t17 34.5t36 21q32 0 56.5 -29.5t24.5 -66.5zM213 336q-23 0 -54.5 41t-31.5 64.5t14.5 47t28.5 23.5q24 0 48 -57t24 -79t-8.5 -31t-20.5 -9z" />
    <glyph glyph-name="less" unicode="&#x3c;" horiz-adv-x="539" 
d="M491 542q21 0 34.5 -16.5t13.5 -26.5t-5 -15q-7 -7 -65.5 -29t-169.5 -76t-111 -75q0 -17 72 -56t144.5 -77t72.5 -53q0 -21 -36.5 -21t-123 35.5t-161.5 83.5t-75 76q0 16 11 40.5t23 34.5q51 43 188.5 109t187.5 66z" />
    <glyph glyph-name="equal" unicode="=" horiz-adv-x="631" 
d="M247 279q190 22 256.5 22t66.5 -25q0 -37 -233 -68q-168 -21 -242 -21q-13 1 -25.5 20.5t-12.5 32.5q0 17 190 39zM244.5 473q154.5 16 253.5 16t99 -31q0 -17 -43.5 -27t-207.5 -29t-218 -19q-13 0 -26 19.5t-13 33.5q1 21 155.5 37z" />
    <glyph glyph-name="greater" unicode="&#x3e;" horiz-adv-x="561" 
d="M132 527q0 16 23 16q68 -1 164 -53t155 -110q32 -32 32 -59q0 -38 -157 -124q-12 -7 -19 -11q-159 -90 -214 -90q-30 0 -30 20.5t80.5 68t161 91t80.5 54.5q0 21 -81 67t-133 61q-19 6 -40.5 31.5t-21.5 37.5z" />
    <glyph glyph-name="question" unicode="?" horiz-adv-x="518" 
d="M222 -3q-24 0 -55.5 31.5t-31.5 52.5t17 41.5t34 20.5t41 -48.5t24 -72.5q0 -7 -10 -16t-19 -9zM258 634l2 -26q0 -12 -12.5 -17.5t-22 -5.5t-28.5 23t-19 39q0 55 49 98t114 43t110.5 -41t45.5 -111q0 -41 -27.5 -86t-61.5 -78q-100 -99 -124.5 -158t-33.5 -67t-16 -8
q-25 0 -25 64q0 41 31.5 88t69 82.5t69 79t31.5 76.5t-21.5 52.5t-52.5 19.5t-54.5 -19t-23.5 -48z" />
    <glyph glyph-name="at" unicode="@" horiz-adv-x="965" 
d="M607 730q140 0 223 -89t83 -228q0 -65 -26.5 -129t-67 -110.5t-89.5 -75t-86 -28.5t-59.5 20.5t-29.5 52.5q-89 -94 -151 -94q-45 0 -89 38.5t-44 80.5t26.5 103.5t66 117t91.5 94.5t97 39t82 -43.5t37 -78.5t-21 -66q15 -17 15 -30t-16.5 -54.5t-16.5 -59.5t8 -29.5
t24.5 -11.5t44 20.5t53.5 54t45 83t19 100.5q0 108 -54.5 175.5t-157.5 67.5t-193.5 -49.5t-152 -126t-98 -168.5t-36.5 -183.5t54.5 -150.5t152.5 -59q114 0 216 36q34 12 43 12q13 0 13 -14q0 -41 -93 -76.5t-178 -35.5q-128 0 -213.5 85.5t-85.5 206.5q0 98 41 203
t112.5 194.5t180 147.5t230.5 58zM559 446q-37 0 -87.5 -53.5t-86 -120.5t-35.5 -106q0 -18 15 -30.5t33 -12.5q45 0 107.5 64.5t82.5 151.5q3 14 17 15v7q-3 36 -15 60.5t-31 24.5z" />
    <glyph glyph-name="A" unicode="A" horiz-adv-x="608" 
d="M564 363q0 -19 -88 -44q8 -104 8 -177q0 -126 -32 -126q-17 0 -27 21t-16 73q-7 96 -15 188q-45 -12 -82 -21.5t-112 -30.5q-88 -230 -104 -230t-34.5 19.5t-18.5 41.5q0 10 57 142h-7q-20 0 -35.5 13t-15.5 32.5t99 51.5q16 36 26 65q23 57 64 156t52 126.5t38.5 47
t53.5 19.5q31 0 55.5 -99t39.5 -245q28 3 49 3q45 0 45 -26zM237 342q71 19 150 32q-18 171 -35 257q-45 -103 -115 -289z" />
    <glyph glyph-name="B" unicode="B" horiz-adv-x="637" 
d="M575 254q0 -59 -61 -114.5t-158 -89t-198 -33.5q-59 0 -105.5 33t-46.5 61.5t17 28.5q4 0 39.5 -21.5t74.5 -22.5q-14 7 -26.5 26t-12.5 36t24 95q74 235 76 361h-8q-18 0 -37 22.5t-19 36.5q0 17 42.5 29.5t102.5 12.5q140 0 216 -38t76 -110q0 -60 -50.5 -109
t-147.5 -79l9 -1q84 -5 138.5 -41t54.5 -83zM447.5 613.5q-33.5 18.5 -81 18.5t-115.5 -12q28 -30 28 -57.5t-35 -165.5q24 15 75 34.5t80.5 34.5t43 26.5t26 30.5t12.5 39q0 33 -33.5 51.5zM488 258q0 30 -69.5 50.5t-138.5 20.5q-27 0 -47 28q-61 -241 -80 -261
q71 2 149 25.5t132 61.5t54 75z" />
    <glyph glyph-name="C" unicode="C" horiz-adv-x="599" 
d="M470 718q26 0 53.5 -33t27.5 -54.5t-7.5 -21.5t-28.5 7.5t-38 7.5q-39 0 -94.5 -40t-105 -99t-84.5 -134.5t-35 -130.5t28.5 -80.5t74.5 -25.5t95 13.5t80 30.5q80 43 88 43q17 0 17 -22.5t-46 -60t-114 -67.5t-122 -30q-70 0 -132 60.5t-62 133.5q0 94 61.5 212.5
t158 204.5t185.5 86z" />
    <glyph glyph-name="D" unicode="D" horiz-adv-x="645" 
d="M151 721q94 0 200.5 -49t183.5 -135.5t77 -179.5q0 -61 -84.5 -143.5t-195.5 -141t-184 -58.5q-19 0 -43.5 32.5t-24.5 66t58 241.5t63 274q-32 13 -51 34t-19 40t20 19zM520 368q0 62 -74 134.5t-172 104.5q5 -18 5 -42.5t-17.5 -91.5t-63.5 -224q-19 -66 -31 -145
q69 9 154.5 60.5t142 110.5t56.5 93z" />
    <glyph glyph-name="E" unicode="E" horiz-adv-x="585" 
d="M208 333q-54 -171 -54 -207q0 -12 7.5 -19.5t19.5 -7.5q115 0 254 37q45 12 52 12q15 0 15 -21q0 -36 -110.5 -74t-213.5 -38q-46 0 -80.5 27t-34.5 68t29.5 140t59.5 211t30 189q0 11 4 23q17 37 218 37t201 -29q0 -20 -43 -27q-36 -7 -95.5 -12.5t-83.5 -8t-116 -18.5
v-3q0 -68 -37 -205q6 -1 40.5 -1t92.5 5t87.5 5t29.5 -14q0 -35 -82 -52t-190 -17z" />
    <glyph glyph-name="F" unicode="F" horiz-adv-x="523" 
d="M197 313h-2q-2 -10 -19.5 -80t-22.5 -91.5t-8.5 -34.5t-7.5 -29.5t-7.5 -26t-6.5 -18.5q-6 -17 -12 -17q-13 0 -34 28.5t-21 46.5t57.5 250t59.5 309q0 15 7 24q10 21 59.5 30t145 9t150 -10t54.5 -28q0 -12 -17 -17t-30 -7.5t-34 -5t-39 -4t-46.5 -4.5t-52.5 -5.5
t-65 -7.5t-53 -6q1 -3 1 -9q0 -47 -39 -216q62 -3 133.5 3t87.5 6q38 0 38 -16q0 -31 -86.5 -52t-189.5 -21z" />
    <glyph glyph-name="G" unicode="G" horiz-adv-x="611" 
d="M461 624q-63 0 -139.5 -69t-130.5 -172.5t-54 -192.5q0 -36 23 -61.5t54 -25.5q48 0 112.5 52.5t119.5 135.5q-56 -15 -83 -15t-46 14.5t-19 27.5q0 16 43 25.5t108 9.5q36 0 58.5 -30.5t22.5 -71t-50 -190.5t-75.5 -150t-25.5 29q0 28 14.5 76t30.5 98.5t26 82.5
q-49 -83 -111 -131.5t-120.5 -48.5t-115.5 54.5t-57 119.5q0 101 64 225t161 212.5t182 88.5q28 0 55 -33.5t27 -54t-11 -20.5q-3 0 -22 7.5t-41 7.5z" />
    <glyph glyph-name="H" unicode="H" horiz-adv-x="670" 
d="M120 17q-12 0 -33 26.5t-21 50.5t44 196q-13 5 -22.5 17.5t-9.5 28.5q0 13 52 29q67 262 67 325q0 17 4.5 23.5t18 6.5t36 -31t22.5 -69.5t-49 -231.5q132 27 259 35q51 208 51 267q0 30 20 30q17 0 40 -31t23 -64.5t-45 -203.5q46 -7 46 -27.5t-62 -33.5
q-32 -118 -43.5 -163.5t-18.5 -72.5t-15 -54q-14 -53 -25 -53q-14 0 -32.5 23.5t-18.5 48.5t60 257q-146 -20 -263 -46q-14 -52 -26.5 -100.5t-19.5 -75.5t-15 -54q-14 -53 -24 -53z" />
    <glyph glyph-name="I" unicode="I" horiz-adv-x="310" 
d="M87.5 43q-19.5 24 -19.5 44t59.5 279.5t60.5 321.5q0 17 4.5 23.5t19 6.5t38 -31t23.5 -66.5t-72 -328.5q-7 -27 -19 -77.5t-19 -77.5t-15 -59q-17 -59 -29 -59t-31.5 24z" />
    <glyph glyph-name="J" unicode="J" horiz-adv-x="468" 
d="M8 165q0 29 18 29q11 0 60 -50q19 -18 46 -33.5t53 -15.5q33 0 60.5 69.5t76.5 248t79 227.5q-44 -7 -123.5 -26t-95.5 -19q-37 0 -37 25q0 34 124.5 69t182.5 35q18 0 31.5 -8t13.5 -23.5t-14 -56.5q-62 -181 -81 -246q-65 -237 -99 -307t-101.5 -70t-130.5 56t-63 96z
" />
    <glyph glyph-name="K" unicode="K" horiz-adv-x="591" 
d="M105 20q-14 0 -32.5 23.5t-18.5 49t65 277.5t65 316q0 18 4 25t18.5 7t34.5 -31t20 -71t-52 -237q91 124 192 228.5t128 104.5q20 0 37.5 -13t17.5 -25.5t-47.5 -56t-127.5 -121.5t-137 -156q0 -41 22 -89q35 -80 144 -133q47 -23 73.5 -39t26.5 -33q0 -26 -39 -26
t-82 16.5t-86 46.5t-78.5 79.5t-48.5 108.5q-31 -55 -58 -145q-33 -106 -40 -106h-1z" />
    <glyph glyph-name="L" unicode="L" horiz-adv-x="546" 
d="M203.5 718q4.5 7 19 7t36.5 -25t22 -53q0 -70 -86 -354q-43 -138 -43 -165t26 -27q113 0 248 37q43 12 51.5 12t11.5 -3.5t3 -13.5q0 -42 -102.5 -79t-208.5 -37q-48 0 -83.5 28t-35.5 66.5t68.5 276.5t68.5 307q0 16 4.5 23z" />
    <glyph glyph-name="M" unicode="M" horiz-adv-x="789" 
d="M189.5 711.5q4.5 6.5 17 6.5t43.5 -27t33 -48q4 -36 38 -127.5t78 -185.5q56 66 141 175.5t126 155.5t59 46t38 -20t20 -38t-4 -41t-13.5 -60.5t-17 -65t-24.5 -85.5t-26 -92.5t-21 -84t-19.5 -81t-15.5 -61.5q-15 -58 -28.5 -58t-26.5 24t-13 64.5t34.5 185.5t74.5 254
q-184 -230 -226.5 -275t-70 -45t-51.5 31q-36 52 -97 246q-17 -105 -37.5 -179.5t-27 -99t-11 -40.5t-10.5 -37.5t-10.5 -35.5t-9.5 -30.5t-8.5 -26.5t-7.5 -19q-8 -17 -12 -17q-12 0 -30 26t-18 50t64.5 276t64.5 316q0 17 4.5 23.5z" />
    <glyph glyph-name="N" unicode="N" horiz-adv-x="677" 
d="M562 680q2 43 20.5 43t40.5 -23t22 -41q0 -82 -25.5 -233t-68 -280t-80.5 -129q-13 0 -29.5 13t-25.5 32q-30 70 -177 444q-30 -116 -66.5 -262.5t-48.5 -186.5t-21 -40q-13 0 -31.5 22.5t-18.5 46.5t65 281.5t67 321.5q0 32 17 32q11 0 30.5 -18.5t28.5 -40.5
q161 -418 204 -512q65 172 87 411q10 110 10 119z" />
    <glyph glyph-name="O" unicode="O" horiz-adv-x="613" 
d="M453 300.5q47 86.5 47 163.5t-29.5 125t-69.5 48t-100 -62t-108 -162.5t-48 -192.5q0 -55 24 -89.5t56 -34.5q50 0 115.5 59t112.5 145.5zM219 17q-66 0 -115.5 65t-49.5 132q0 91 33.5 185t84 164t111.5 114.5t113 44.5q84 0 140 -76.5t56 -172.5t-53 -201.5
t-141.5 -180t-178.5 -74.5z" />
    <glyph glyph-name="P" unicode="P" horiz-adv-x="543" 
d="M559 553q0 -108 -103.5 -183t-273.5 -108q-73 -247 -87 -247t-33 22.5t-19 45t29 119.5q90 299 94 417q-24 22 -24 40q0 25 68 48t130 23q96 0 157.5 -49t61.5 -128zM471 547q0 44 -33.5 72.5t-80.5 28.5t-114 -30q10 -22 10 -41q0 -56 -49 -237q120 32 193.5 88.5
t73.5 118.5z" />
    <glyph glyph-name="Q" unicode="Q" horiz-adv-x="641" 
d="M543.5 643q63.5 -76 63.5 -171.5t-50 -200t-128 -173.5q14 -39 35 -91.5t31 -80t10 -42.5q0 -23 -25 -23q-45 0 -118 191q-61 -32 -125 -32t-122 60t-58 134q0 93 33 187t82.5 162.5t110 112t113.5 43.5q84 0 147.5 -76zM482.5 324.5q33.5 73.5 33.5 144.5t-36 119
t-77 48q-16 0 -35 -8q-23 -32 -23 -97q0 -163 53 -340q51 60 84.5 133.5zM177.5 131q32.5 -35 70.5 -35t86 35q-71 222 -71 346q0 39 7 68q-54 -66 -89.5 -154t-35.5 -170q0 -55 32.5 -90z" />
    <glyph glyph-name="R" unicode="R" horiz-adv-x="584" 
d="M100 16q-15 0 -34 22t-19 44.5t55 216.5t63 295q-13 8 -23 25t-10 30q0 23 68 47.5t150.5 24.5t143 -39.5t60.5 -111.5q0 -49 -27.5 -91.5t-67 -69.5t-78.5 -48t-66.5 -34.5t-27.5 -19.5q0 -22 34.5 -57t48.5 -48t37 -34.5t43.5 -38.5t33 -28t25.5 -23q25 -23 25 -37
q0 -24 -33 -24q-60 0 -171 104.5t-136 177.5q-47 -156 -54 -180.5t-16 -50.5q-16 -52 -24 -52zM251 567q0 -65 -42 -215q17 13 65 38.5t86.5 47t70.5 57.5t32 75q0 62 -108 62q-49 0 -114 -25q10 -22 10 -40z" />
    <glyph glyph-name="S" unicode="S" horiz-adv-x="531" 
d="M468 214q0 -82 -74 -137.5t-169.5 -55.5t-157.5 49.5t-62 93.5q0 30 18 30q16 0 63 -48q18 -17 48.5 -32t64.5 -15q70 0 124.5 36t54.5 78q0 27 -36 69t-79.5 79.5t-79.5 80.5t-36 68t10 53t22 41q39 43 121.5 79t138.5 36q29 0 49 -19t20 -40q0 -10 -21 -16t-63.5 -15.5
t-75.5 -22.5q-115 -44 -115 -85q0 -22 117 -123q45 -39 81.5 -90.5t36.5 -93.5z" />
    <glyph glyph-name="T" unicode="T" horiz-adv-x="535" 
d="M284 632l-171 -8q-16 0 -33 21t-17 41q0 18 57.5 23t252.5 5q101 0 166.5 -22t65.5 -49q0 -19 -33 -19t-92 4t-113 5q3 -10 3 -22q0 -37 -78 -344q-8 -32 -24 -100t-24 -95q-14 -53 -25 -53q-15 0 -33.5 22.5t-18.5 45.5t54 236.5t63 308.5z" />
    <glyph glyph-name="U" unicode="U" horiz-adv-x="598" 
d="M173 712.5q4 6.5 18.5 6.5t38.5 -26.5t24 -62t-40.5 -193.5t-40.5 -214.5t21 -91.5t54 -35t73 38t74.5 99.5t58 150t23.5 178.5q0 42 -4.5 84t-4.5 52q0 21 18 21q23 0 53 -34.5t30 -88.5q0 -154 -45 -289t-121 -215.5t-162 -80.5q-63 0 -109.5 61t-46.5 140t42 248.5
t42 228.5q0 17 4 23.5z" />
    <glyph glyph-name="V" unicode="V" horiz-adv-x="532" 
d="M545 718q16 0 32 -11.5t16 -28t-18.5 -52.5t-63.5 -115.5t-77 -143.5t-60.5 -125.5t-45 -98t-32.5 -69.5q-32 -61 -53 -61q-12 0 -29 19.5t-27 44.5q-27 67 -72.5 310t-45.5 300q0 31 17 31q21 0 43 -21.5t35 -54.5q6 -18 29.5 -199.5t53.5 -295.5q64 181 165 376
t133 195z" />
    <glyph glyph-name="W" unicode="W" horiz-adv-x="782" 
d="M498 719q117 0 177 -93t60 -234t-69.5 -256.5t-160.5 -115.5q-64 0 -94 72t-39 205q-42 -59 -96 -134q-104 -144 -146 -144q-16 0 -37 26t-21 65.5t27 247t27 323.5q0 37 22 37t51.5 -26t29.5 -47.5t-33.5 -211.5t-41.5 -298q61 103 137.5 190.5t109.5 87.5q34 0 47 -150
q5 -56 19.5 -103t39.5 -47q56 0 97.5 90.5t41.5 200.5q0 122 -54 188q-28 35 -61.5 35t-57 23t-23.5 40q0 29 48 29z" />
    <glyph glyph-name="X" unicode="X" horiz-adv-x="624" 
d="M574 715q12 0 32 -21t20 -31.5t-6.5 -16.5t-20.5 -16t-24 -20q-37 -36 -217 -268q27 -44 78 -120.5t73.5 -115t22.5 -54.5t-8 -24.5t-18 -8.5q-25 0 -82.5 71.5t-122.5 178.5q-52 -69 -67.5 -89t-32.5 -42.5t-27.5 -35t-24 -28t-22.5 -24t-19 -16.5q-18 -14 -33.5 -14
t-32.5 13t-17 21t1 10.5t3.5 6t4 5.5t15.5 16q81 88 208 254q-135 243 -135 346q0 27 14 27q29 0 57.5 -14.5t28.5 -33.5q0 -92 90 -251q141 195 187.5 245t74.5 50z" />
    <glyph glyph-name="Y" unicode="Y" horiz-adv-x="575" 
d="M327 373q18 0 65.5 85.5t97 171.5t70.5 86t34 -15t13 -36t-38 -84t-102 -166.5t-128 -224.5t-88 -151t-39 -30q-22 0 -22 36q0 28 28 85q9 17 14 28.5t16 32.5t17 32.5t18.5 36t18.5 35.5q-59 15 -108.5 74.5t-75.5 133t-26 143.5t40 70q16 0 25.5 -31t23.5 -89
t37 -106.5t55 -82.5t54 -34z" />
    <glyph glyph-name="Z" unicode="Z" horiz-adv-x="620" 
d="M534 633q28 -34 28 -66t-41.5 -85.5t-101 -106t-119.5 -102.5t-101.5 -89t-41.5 -51t7 -19t19 -7q53 0 169.5 16.5t150.5 16.5t34 -24q0 -32 -125 -63.5t-252 -31.5q-38 0 -69.5 34.5t-31.5 68t43.5 84t105 102.5t122.5 103q149 123 149 166q0 19 -45.5 31.5t-97 12.5
t-95 -7.5t-53.5 -7.5q-22 0 -43 23t-21 42q-2 18 66 31q35 6 81 6q106 0 196 -30q39 -13 67 -47z" />
    <glyph glyph-name="bracketleft" unicode="[" horiz-adv-x="453" 
d="M426 802q124 0 124 -34q0 -13 -10 -18t-18 -7.5t-22.5 -4.5t-27.5 -3.5t-35 -4.5q-53 -7 -83 -14q1 -3 1 -8q0 -78 -120 -445q-64 -200 -64 -222.5t25 -22.5t81.5 6.5t65.5 6.5q19 0 19 -18q0 -26 -63.5 -52t-109 -26t-80 24.5t-34.5 59t48.5 189.5t96.5 320t48 223
q0 6 1 8v1q1 25 40 33.5t117 8.5z" />
    <glyph glyph-name="backslash" unicode="\" horiz-adv-x="600" 
d="M521 -20q0 -14 -17.5 -35.5t-29 -21.5t-45 73t-94.5 221t-110.5 251.5t-75 163t-25.5 82t22.5 52.5t34.5 30q11 0 17 -12q4 -8 7 -17q316 -732 316 -787z" />
    <glyph glyph-name="bracketright" unicode="]" horiz-adv-x="450" 
d="M313 673l-52 1q-75 0 -89 1q-44 4 -44 22q0 26 51.5 41.5t115.5 15.5q115 0 115 -43v-5q0 -154 -131 -703q-11 -42 -37 -60t-78.5 -18t-110.5 24.5t-58 53.5q0 18 20 18t66 -6t72.5 -6t30.5 22q128 525 128 631q0 7 1 11z" />
    <glyph glyph-name="asciicircum" unicode="^" horiz-adv-x="422" 
d="M376 571q0 -18 -16 -18q-37 0 -132 196q-43 -44 -83 -124q-28 -56 -36.5 -62t-19 -6t-22.5 10t-12 21q0 51 62.5 154t95.5 103q15 0 35.5 -7t28.5 -15.5t13.5 -23t17 -48t40 -102.5t28.5 -78z" />
    <glyph glyph-name="underscore" unicode="_" horiz-adv-x="608" 
d="M553 26q0 -17 -54 -24q-96 -11 -172.5 -11.5t-149 -6t-90 -5.5t-30.5 17.5t-13 35t79 26.5t200 9t186 -12q44 -8 44 -29z" />
    <glyph glyph-name="grave" unicode="`" horiz-adv-x="213" 
d="M11.5 779q-1.5 4 -1.5 16t15 30.5t33 18.5q13 0 38 -26q6 -7 17 -19t18 -19q65 -66 70 -82q2 -5 2 -13.5t-8.5 -17.5t-17.5 -9t-19.5 6.5t-29.5 21.5t-30 23t-24 17t-19 13t-15 10.5t-13.5 10.5t-9 9.5t-6 9.5z" />
    <glyph glyph-name="a" unicode="a" horiz-adv-x="469" 
d="M380 465.5q38 -45.5 38 -82t-25 -74.5q12 -15 12 -26q0 -28 -12.5 -96t-15 -89t-4.5 -33.5t-5 -24.5q-4 -25 -18 -25q-18 0 -29.5 31.5t-13.5 81.5q-89 -113 -165 -113q-46 0 -90.5 39.5t-44.5 81.5q0 60 44 148.5t114 157.5t132 69q45 0 83 -45.5zM343 335q0 93 -37 93
q-39 0 -91 -55.5t-88 -125.5t-36 -111q0 -17 14 -27.5t33 -10.5q47 0 106 63.5t82 154.5q3 15 17 18v1z" />
    <glyph glyph-name="b" unicode="b" horiz-adv-x="525" 
d="M74 15q-14 0 -33 21.5t-19 40.5t31.5 130t63 267.5t31.5 286.5q0 30 22 30q16 0 39 -29.5t23 -57.5q0 -123 -54 -351q119 161 216 161q47 0 79.5 -46t32.5 -109.5t-36.5 -145.5t-98.5 -140.5t-130 -58.5t-134 69l-1 -1q-22 -67 -32 -67zM233 92q65 0 127.5 88.5
t62.5 186.5q0 59 -36 59q-58 0 -129.5 -81t-123.5 -193q47 -60 99 -60z" />
    <glyph glyph-name="c" unicode="c" horiz-adv-x="445" 
d="M83 60.5q-51 45.5 -51 108t42 144.5t108.5 140t129.5 58q41 0 72 -37t31 -65q0 -8 -5 -13.5t-14.5 -5.5t-33.5 18t-43 18q-54 0 -126 -95t-72 -166q0 -31 19.5 -49t63 -18t80 10.5t56.5 21t31 10.5q19 0 19 -19q0 -29 -69.5 -67.5t-128 -38.5t-109.5 45.5z" />
    <glyph glyph-name="d" unicode="d" horiz-adv-x="499" 
d="M459 791q16 0 39.5 -29.5t23.5 -55.5t-25 -147.5t-58 -251.5q-72 -292 -95 -292q-14 0 -30.5 17.5t-16.5 30.5t7 52q-98 -100 -171 -100q-44 0 -79.5 40t-35.5 83q0 62 33.5 147.5t96.5 155.5t134 70t99 -85q51 212 56 335q0 30 22 30zM349 300q0 54 -18.5 91t-44.5 37
q-43 0 -88 -53t-71.5 -121.5t-26.5 -118.5q0 -18 13 -29t31 -11q39 0 105.5 56t96.5 132l3 12v5z" />
    <glyph glyph-name="e" unicode="e" horiz-adv-x="450" 
d="M372.5 258.5q-57.5 -33.5 -130 -33.5t-131.5 16q-14 -44 -14 -78.5t21.5 -53.5t71 -19t102 17.5t57.5 17.5q26 0 26 -20q0 -27 -61 -58.5t-119 -31.5q-78 0 -127 46.5t-49 117.5t38 148.5t98 130.5t119 53t107.5 -56t48.5 -109.5t-57.5 -87zM279 432q-37 0 -77 -38.5
t-68 -95.5q40 -9 91 -9t89 16.5t38 43.5t-24.5 55t-48.5 28z" />
    <glyph glyph-name="f" unicode="f" horiz-adv-x="376" 
d="M103 13q-13 0 -28 19t-15 31t10 47q50 180 68 257q-43 -10 -59 -10t-32 14t-16 31t45 30q58 14 80 18q10 48 15 74q24 138 65 199t111 61q50 0 82 -39.5t32 -93t-28 -53.5q-24 0 -39 54q-5 20 -17 37t-29 17t-31 -15.5t-25 -44.5q-29 -81 -40 -148l-8 -35q37 5 73.5 5
t53 -8t16.5 -20q0 -19 -33 -29t-129 -26q-71 -288 -97 -343q-14 -29 -25 -29z" />
    <glyph glyph-name="g" unicode="g" horiz-adv-x="475" 
d="M427 285q0 -40 -35 -91q-27 -61 -58 -175.5t-52 -163.5q-42 -102 -129 -102q-71 0 -119.5 38.5t-48.5 76.5q0 16 9.5 32t20 16t23.5 -15t24.5 -32.5t35 -32.5t45.5 -15t33 6.5t21 21t17 29t15.5 41t13.5 45.5t14 53.5t15 55.5q-78 -58 -127 -58t-85 39.5t-36 92
t39.5 139.5t106.5 156t131 69q41 0 69 -31q46 -51 46 -145q0 -12 -1 -17q12 -17 12 -33zM105 136q0 -17 11 -27.5t28 -10.5q50 0 118 59.5t96 138.5q-4 13 -7 40t-6 43t-13 32.5t-26 16.5q-39 0 -88 -56t-81 -125t-32 -111z" />
    <glyph glyph-name="h" unicode="h" horiz-adv-x="536" 
d="M149 752q0 39 24 39q19 0 40.5 -30t21.5 -58q0 -65 -32.5 -221.5t-84.5 -312.5q100 181 167.5 261.5t115.5 80.5q26 0 60.5 -45t34.5 -90t-25 -135q-62 -226 -117 -226q-22 0 -22 30t24 101q53 155 53 209q0 18 -9 30t-22 12t-32 -14t-46 -49q-34 -45 -70.5 -101
t-44 -67.5t-26 -41.5t-27.5 -44.5t-22 -31.5q-23 -33 -35 -33t-32 22.5t-20 38t11 58.5q50 192 63 263q52 260 52 355z" />
    <glyph glyph-name="i" unicode="i" horiz-adv-x="238" 
d="M175 691q16 18 32.5 18t39.5 -40.5t23 -67.5q0 -10 -9 -18t-19 -8q-24 0 -53.5 29t-29.5 49t16 38zM154 511q19 0 36 -23t17 -45t-29 -131.5t-73 -245.5q-17 -50 -43 -50q-14 0 -24 11.5t-10 26t7.5 46t22 84t23 85.5t17.5 74.5t14.5 67t12.5 51.5q14 49 29 49z" />
    <glyph glyph-name="j" unicode="j" horiz-adv-x="254" 
d="M-149 -121q43 -55 71 -55t47 30t37 94.5t34 132.5t41.5 180t49.5 201q15 49 29 49q17 0 35 -21.5t18 -46.5q0 -23 -31 -139.5t-55 -209.5t-47 -182q-43 -157 -156 -157q-50 0 -97.5 42t-47.5 72q0 13 10.5 30.5t19.5 17.5q11 0 23 -14.5t19 -23.5zM188 691q16 18 33 18
t39.5 -40.5t22.5 -67.5q0 -10 -9 -18t-18 -8q-24 0 -54 29t-30 49t16 38z" />
    <glyph glyph-name="k" unicode="k" horiz-adv-x="469" 
d="M473 457q0 -9 -89 -94q-33 -32 -60.5 -75.5t-27.5 -79.5t21.5 -66.5t47 -46t47 -30.5t21.5 -25q0 -25 -39.5 -25t-94 44.5t-67.5 99.5q-5 10 -8 19q-68 -92 -98.5 -127.5t-45.5 -35.5t-33 23.5t-18 39t32.5 129t65 272.5t32.5 284q0 16 4.5 22t19.5 6t37 -29.5t22 -57.5
q0 -89 -36 -249t-86 -304q113 161 195.5 260.5t102 99.5t37.5 -19t18 -35z" />
    <glyph glyph-name="l" unicode="l" horiz-adv-x="245" 
d="M228 707q0 -188 -78 -488q-50 -204 -70 -204q-14 0 -32.5 22t-18.5 34t29 124t58 275.5t29 294.5q0 14 4 20t17 6t37.5 -28.5t24.5 -55.5z" />
    <glyph glyph-name="m" unicode="m" horiz-adv-x="796" 
d="M678 511q30 0 53.5 -41.5t23.5 -94t-18.5 -136.5t-49.5 -154t-61 -70q-21 0 -21 27.5t34.5 135t34.5 171t-20 63.5q-25 0 -57.5 -44t-69.5 -106t-40 -66.5t-7.5 -12.5t-10 -17t-28 -54t-39.5 -70.5t-29.5 -25.5t-27.5 16t-15 30t18 58q52 130 52 242q0 21 -9 35.5
t-20 14.5t-23 -9.5t-30 -34t-32 -46.5t-42.5 -68.5t-43 -69t-33.5 -52t-29.5 -45.5t-23.5 -35q-27 -37 -39.5 -37t-32.5 22.5t-20 34t4 28.5t8.5 33t14 47.5t22 74t19 117t9.5 109t17 34.5q22 0 43.5 -23t21.5 -46q0 -88 -66 -290q112 210 141 249t50 63q39 43 79 43
q24 0 57.5 -41.5t33.5 -83.5t-12 -104q118 229 214 229z" />
    <glyph glyph-name="n" unicode="n" horiz-adv-x="533" 
d="M285.5 431.5q60.5 79.5 99 79.5t73 -41t34.5 -87q0 -72 -33 -176q-60 -192 -108 -192q-22 0 -22 30q0 21 21.5 85.5t40 127t18.5 94t-9.5 46.5t-19 15t-19.5 -6t-22.5 -20t-23.5 -27.5t-27.5 -38.5t-27.5 -42.5t-32 -50.5t-32 -50t-29 -46t-28.5 -45t-23.5 -35
q-25 -37 -39.5 -37t-33.5 22.5t-19 39.5q0 5 7 27q19 58 42 143.5t25 194.5q3 73 21 73q22 0 44 -23t22 -50.5t-16.5 -106t-38.5 -146.5q96 163 156.5 242.5z" />
    <glyph glyph-name="o" unicode="o" horiz-adv-x="453" 
d="M333 341q0 34 -11 64.5t-32 44.5q-69 -19 -118.5 -106.5t-49.5 -164.5t38 -96q72 14 122.5 98.5t50.5 159.5zM161.5 460.5q56.5 50.5 116 50.5t99.5 -50.5t40 -123t-35 -148t-96.5 -125t-130.5 -49.5q-51 0 -85 47t-34 119.5t34.5 150.5t91 128.5z" />
    <glyph glyph-name="p" unicode="p" horiz-adv-x="478" 
d="M358 514q43 0 74.5 -55t31.5 -113.5t-34 -117t-84 -104.5t-110.5 -76.5t-111.5 -30.5q-20 0 -38 5q-4 -17 -14 -61t-17 -73t-16 -62q-18 -68 -32 -68t-29.5 21.5t-15.5 38.5t32 146q96 389 96 524q0 30 22 30q18 0 43.5 -26.5t25.5 -58.5q0 -16 -4 -35q89 116 181 116z
M114 95q53 0 114.5 36t105 95.5t43.5 118.5q0 83 -39 83t-105.5 -67t-105.5 -174l-23 -92h10z" />
    <glyph glyph-name="q" unicode="q" horiz-adv-x="474" 
d="M396 -78q10 0 19 -8.5t9 -18.5q0 -16 -39.5 -39.5t-74.5 -48.5t-55 -38.5t-32 -13.5t-25 21.5t-13 33.5t1.5 19.5t5.5 20.5t9 26.5t13.5 37.5t16.5 45.5t21.5 58.5t25.5 69q-34 -33 -74 -52.5t-75 -19.5t-74 42t-39 85.5t27.5 107t68.5 121.5t96.5 99t101 41t82.5 -37
t37 -62.5t-17 -25.5q-12 0 -38.5 22.5t-46.5 22.5q-44 0 -100.5 -56.5t-94.5 -126.5t-38 -112q0 -16 11 -27t27 -11q55 0 125 62t95 159q4 15 20 15t37.5 -15.5t21.5 -30t-17 -62t-58.5 -156.5t-72.5 -197q73 49 113 49z" />
    <glyph glyph-name="r" unicode="r" horiz-adv-x="331" 
d="M91 389l-3 75q0 47 22 47q19 0 36.5 -24.5t17.5 -58t-2 -50.5q87 132 165 132q49 0 49 -24q0 -12 -11 -22t-35 -23q-53 -23 -89.5 -70.5t-59.5 -107.5t-36.5 -101t-20.5 -64t-16 -45q-16 -40 -37 -40q-17 0 -27.5 19.5t-10.5 38t17 73.5q41 126 41 245z" />
    <glyph glyph-name="s" unicode="s" horiz-adv-x="426" 
d="M317 511q34 0 64 -37.5t30 -65.5q0 -17 -16 -17q-11 0 -34 17.5t-47 17.5t-75.5 -28t-51.5 -59q0 -23 92 -79q35 -22 63.5 -56.5t28.5 -74t-54.5 -77t-127 -37.5t-128 35t-55.5 66q0 13 6.5 20.5t16.5 7.5t28 -13q54 -39 112.5 -39t84.5 13.5t26 36t-29 48t-63.5 45.5
t-63.5 49t-29 59q0 53 83.5 110.5t138.5 57.5z" />
    <glyph glyph-name="t" unicode="t" horiz-adv-x="387" 
d="M143 115q0 -19 22 -19q38 0 92.5 21.5t60.5 21.5q18 0 18 -19q0 -29 -59.5 -67t-108 -38t-80.5 26.5t-32 54.5t12 71.5t34.5 115t35.5 118.5q-47 -11 -63 -11t-31.5 16.5t-15.5 31.5q0 24 130 46q18 83 18 147q0 30 20 30q17 0 42 -21.5t25 -48.5t-17 -95q57 5 91 5
q60 0 60 -26q0 -15 -32.5 -25t-136.5 -31q-21 -79 -53 -180.5t-32 -123.5z" />
    <glyph glyph-name="u" unicode="u" horiz-adv-x="481" 
d="M393 505q4 6 17.5 6t33 -26t19.5 -50q0 -13 -44 -154t-68 -224q-12 -42 -34 -42q-13 0 -22 11t-9 40t23 105q-42 -68 -91 -112t-89.5 -44t-76.5 38t-36 78q0 95 55.5 237.5t92.5 142.5q18 0 31.5 -16.5t13.5 -37.5q0 -9 -27 -64.5t-54 -130t-27 -130.5q0 -16 10 -26.5
t24 -10.5q38 0 90.5 67t95.5 156t64 165q4 16 8 22z" />
    <glyph glyph-name="v" unicode="v" horiz-adv-x="422" 
d="M376 511q17 0 33 -12.5t16 -27.5q0 -27 -72.5 -187t-103 -215.5t-53.5 -55.5q-13 0 -32 19t-28 41q-27 63 -58 203t-31 205q0 30 18 30q22 0 45 -18.5t32 -46.5q3 -16 8 -80q14 -158 48 -243q27 58 69 164.5t68.5 165t40.5 58.5z" />
    <glyph glyph-name="w" unicode="w" horiz-adv-x="673" 
d="M433 405l-7 -188q0 -78 7 -113q43 45 74.5 105.5t47 112.5t27 97.5t21.5 72.5t23 27q19 0 34 -15.5t15 -35.5q0 -51 -46 -168q-39 -108 -102 -197.5t-98 -89.5t-52.5 39t-19.5 149.5t3 191.5q-69 -188 -122 -284t-84 -96q-14 0 -29.5 13t-24.5 34q-22 53 -37.5 202.5
t-15.5 213.5q0 41 25 41q22 0 40.5 -25t21.5 -49.5t5.5 -136t18.5 -198.5q41 71 82.5 178t68 168t48.5 61q33 0 54.5 -30.5t21.5 -79.5z" />
    <glyph glyph-name="x" unicode="x" horiz-adv-x="427" 
d="M327.5 467q39.5 44 58.5 44t37.5 -16t18.5 -27.5t-7 -19t-22.5 -20.5t-29 -27.5t-34.5 -40t-50.5 -63t-48.5 -60.5q6 -9 18.5 -30t21 -35t22 -35.5t22.5 -35t17 -27.5q16 -26 16 -36t-7 -16.5t-17 -6.5q-45 0 -144 161q-131 -161 -159 -161q-16 0 -33 16.5t-17 30.5
q0 5 22 27q97 97 145 158q-46 82 -78 152t-32 84.5t1 18.5q2 9 22 9t49 -12t29 -29q0 -42 59 -156q81 109 120.5 153z" />
    <glyph glyph-name="y" unicode="y" horiz-adv-x="469" 
d="M456.5 487.5q18.5 -23.5 18.5 -52.5q0 -20 -41 -136t-55.5 -157.5t-39 -110t-47.5 -133.5q-50 -143 -150 -143q-57 0 -109 34.5t-52 71.5q0 14 12.5 31t21.5 17t29 -22q58 -66 99 -66q31 0 56 54.5t47.5 123t25 75.5t6 18t6.5 20q-71 -97 -140 -97q-42 0 -77.5 39
t-35.5 92t26 143t61 156t57 66q18 0 33.5 -16.5t15.5 -33.5t-26 -71q-81 -166 -81 -258q0 -16 10 -26.5t24 -10.5q36 0 86 64t92 152q35 74 73 189q4 11 20 11t34.5 -23.5z" />
    <glyph glyph-name="z" unicode="z" horiz-adv-x="440" 
d="M98 500.5q44 10.5 120.5 10.5t125.5 -20q22 -9 40.5 -36.5t18.5 -45.5q0 -38 -46.5 -87t-101.5 -87t-101.5 -73t-46.5 -47q0 -17 26 -17q57 0 140 8t99 8q39 0 39 -23q0 -32 -100 -54t-193 -22q-43 0 -79 32.5t-36 59.5t50.5 72.5t110.5 86.5q161 112 161 140
q0 19 -102 19q-25 0 -62 -5.5t-53.5 -5.5t-35 21t-18.5 36q0 19 44 29.5z" />
    <glyph glyph-name="braceleft" unicode="{" horiz-adv-x="421" 
d="M183 338h-5q5 -18 5 -43.5t-27 -95.5t-27 -122t28.5 -73t74.5 -21t59 -6t13 -23.5t-29 -33t-65 -15.5q-71 0 -120 50t-49 112.5t33.5 140.5t33.5 127q0 12 -15 36q-28 23 -28 50q0 8 3.5 15.5t10.5 7.5t36.5 -18t52 -18t38 14.5t15.5 36.5t-23.5 94t-23.5 141t54.5 118.5
t121.5 49.5t105.5 -37.5t38.5 -89.5q0 -24 -15.5 -50t-31.5 -26q-14 0 -14 41.5t-12.5 60.5t-55 19t-76.5 -32t-33.5 -92t22.5 -126t22 -89q0 -40 -32 -71.5t-85 -31.5z" />
    <glyph glyph-name="bar" unicode="|" horiz-adv-x="368" 
d="M87.5 -112.5q-20.5 22.5 -20.5 41t86.5 416t86.5 453.5q0 16 4.5 23t19.5 7t39 -29.5t24 -61.5t-81 -374q-6 -25 -38 -171q-71 -327 -85.5 -327t-35 22.5z" />
    <glyph glyph-name="braceright" unicode="}" horiz-adv-x="538" 
d="M457 356q0 -27 -38 -43q-52 -29 -62 -171q-4 -55 -12.5 -109t-39.5 -89.5t-86.5 -35.5t-98.5 29t-43 57t16 28t27 -11q34 -34 88 -34q34 0 50.5 40t18.5 92.5t13 115t35 95.5q-32 15 -52 42t-20 59.5t27.5 71t60 70t60 71.5t27.5 74.5t-26 57.5t-56.5 23t-50.5 -13
t-31.5 -28t-23 -28t-22 -13t-27.5 18.5t-17 30.5q0 34 56.5 70t116.5 36t115.5 -48t55.5 -96t-28.5 -93.5t-63.5 -76.5q-91 -84 -91 -122q0 -45 56 -52q8 -1 18 -2q48 -5 48 -16z" />
    <glyph glyph-name="asciitilde" unicode="~" horiz-adv-x="594" 
d="M80 273q0 48 53.5 102.5t105.5 54.5q27 0 50.5 -17t37 -38t33 -39.5t39.5 -21.5q20 3 37 19t26 33q23 46 49 46t26 -35q0 -48 -42.5 -96.5t-92.5 -48.5q-74 0 -154 128q-28 -12 -50 -33.5t-32 -39.5q-27 -46 -51 -46q-35 0 -35 32z" />
    <glyph glyph-name="uni007F" 
 />
    <glyph glyph-name="uni00A0" unicode="&#xa0;" 
 />
    <glyph glyph-name="exclamdown" unicode="&#xa1;" horiz-adv-x="354" 
d="M296.5 470.5q-16.5 -20.5 -34 -20.5t-41.5 48t-24 73q0 7 10 16t20 9q24 0 55 -31t31 -52.5t-16.5 -42zM167 -217q-19 0 -51.5 24t-32.5 38q0 86 43 299.5t70 213.5q16 0 29.5 -16t14 -28t-13 -78.5t-28 -185.5t-14.5 -241q0 -26 -17 -26z" />
    <glyph glyph-name="cent" unicode="&#xa2;" horiz-adv-x="482" 
d="M391 601q7 -12 7 -26t-18 -68q30 -16 51 -45.5t21 -50t-16 -20.5q-13 0 -40.5 19.5t-36.5 23.5q-16 -58 -46 -170t-41 -153q43 5 81.5 20.5t49.5 15.5q19 0 19 -19q0 -24 -57 -56.5t-116 -42.5q-31 -100 -44 -100q-9 0 -18.5 10t-9.5 20t13 70q-54 10 -98 53.5t-44 92.5
q0 102 90 219t182 126q33 93 51 93q13 0 20 -12zM137 177q0 -28 19.5 -47t51.5 -22q37 167 82 316q-55 -32 -104 -111t-49 -136z" />
    <glyph glyph-name="sterling" unicode="&#xa3;" horiz-adv-x="657" 
d="M569 510l5 39q0 45 -41 45q-28 0 -53.5 -39.5t-64.5 -155.5h8q95 0 122.5 -3.5t27.5 -16.5q0 -39 -180 -52q-36 -113 -66 -180q59 -61 102 -61q28 0 53.5 13.5t40.5 30.5q40 43 58 43t29 -13t11 -32q0 -35 -64 -77.5t-116 -42.5q-74 0 -152 72q-47 -65 -113 -65
q-37 0 -83.5 47t-46.5 91t31 73.5t80 29.5t104 -44q22 60 37 112q-107 0 -107 26q0 18 13 37.5t25 19.5q39 0 92 -5q48 161 97 221.5t121 60.5q46 0 77 -37t31 -85q0 -22 -24 -45.5t-39 -23.5t-15 17zM181 86q21 0 49 54q-43 43 -66 43q-38 0 -38 -35q0 -17 19 -39.5
t36 -22.5z" />
    <glyph glyph-name="currency" unicode="&#xa4;" horiz-adv-x="600" 
d="M519 465q-19 -19 -33.5 -32.5t-23.5 -22.5q22 -36 22 -83q0 -88 -62 -150q49 -77 49 -88t-7 -17t-17 -6q-30 0 -84 70q-31 -14 -70 -14t-72 18q-67 -74 -85.5 -74t-34.5 16t-16 24.5t8 17.5t31.5 32t38.5 39q-25 39 -25 91q0 71 48 129q-10 19 -26 45q-32 50 -32 60
q0 21 15 21q27 0 54.5 -10t33 -26.5t17.5 -38.5q38 19 78 19t71 -15q61 71 90 71q15 0 33 -16.5t18 -28.5t-19 -31zM245 379.5q-32 -42.5 -32 -89t26 -75t68 -28.5t74 42.5t31.5 87t-25.5 75t-67.5 30.5t-74.5 -42.5z" />
    <glyph glyph-name="yen" unicode="&#xa5;" horiz-adv-x="563" 
d="M366 374q47 0 89.5 -5t42.5 -25q0 -29 -190 -44q-3 -25 -9 -56q60 3 102 3q88 0 88 -22q0 -32 -207 -59v-2q-6 -25 -11.5 -53t-9 -44t-7.5 -31q-6 -26 -14 -26q-15 0 -37 20t-22 41t16 85q-86 -8 -132 -8q-12 0 -24 18.5t-12 31.5q0 24 185 39q3 20 7 55q-88 -9 -131 -9
q-11 0 -23 17t-12 33q0 24 151 35q-37 68 -74 154.5t-37 118.5t19 32q22 0 44.5 -16.5t34.5 -43.5q0 -1 26.5 -76.5t59.5 -133.5q8 10 48 61t61 76t53 62q61 71 85 71q15 0 30.5 -12t15.5 -19.5t-4.5 -16t-14 -21.5t-19.5 -26t-26 -31.5t-28.5 -33.5t-32 -36.5t-31.5 -35
t-32 -35.5t-29 -32h11z" />
    <glyph glyph-name="brokenbar" unicode="&#xa6;" horiz-adv-x="369" 
d="M208.5 452.5q-20.5 22.5 -20.5 41.5t26.5 133.5t26.5 170.5q0 16 4.5 23t19 7t39 -29.5t24.5 -62.5t-34 -169.5t-51 -136.5q-14 0 -34.5 22.5zM88.5 -112.5q-20.5 22.5 -20.5 41t26 133.5t26 171q0 30 22 30q17 0 41 -29.5t24 -62t-33.5 -169.5t-50.5 -137
q-14 0 -34.5 22.5z" />
    <glyph glyph-name="section" unicode="&#xa7;" horiz-adv-x="464" 
d="M338 678q-33 0 -62 -25.5t-29 -49.5t18 -48.5t44.5 -51t52.5 -55.5t44 -68t18 -82.5t-44 -89t-109 -63.5q46 -51 46 -108t-45.5 -100.5t-122.5 -43.5q-56 0 -101.5 37.5t-45.5 67.5q0 18 11.5 40t21.5 22t16.5 -9.5t12.5 -20.5q35 -59 82 -59q81 0 81 73q0 40 -61 95
q-26 23 -52 47q-61 60 -61 117t47.5 107.5t109.5 80.5q-49 58 -49 104q0 59 64 111.5t126 52.5q38 0 67 -37t29 -86.5t-28 -49.5q-25 0 -39.5 46t-41.5 46zM301.5 234q34.5 34 34.5 68.5t-19.5 64t-56.5 69.5q-119 -60 -119 -132q0 -19 13.5 -40t26 -33t40.5 -37
q46 6 80.5 40z" />
    <glyph glyph-name="dieresis" unicode="&#xa8;" horiz-adv-x="273" 
d="M206 826q16 0 36.5 -39t20.5 -54t-8.5 -24t-17.5 -9q-22 0 -49 26.5t-27 45.5t14.5 36.5t30.5 17.5zM25 808.5q15 17.5 30.5 17.5t36.5 -39t21 -54t-9 -24t-18 -9q-22 0 -49 26.5t-27 45.5t15 36.5z" />
    <glyph glyph-name="copyright" unicode="&#xa9;" horiz-adv-x="708" 
d="M693 404q0 -148 -105.5 -246t-260.5 -98q-118 0 -183 70t-65 179q0 136 110.5 243.5t246.5 107.5q117 0 187 -72.5t70 -183.5zM316 113q142 0 224 78.5t82 221.5q0 84 -47.5 138.5t-116.5 54.5q-52 0 -106.5 -21.5t-100.5 -60.5t-75 -100t-29 -139t46.5 -125t122.5 -47z
M484.5 525q16.5 -18 16.5 -33t-13 -15q-5 0 -15 3.5t-19 3.5q-40 0 -98 -68t-58 -131q0 -18 13 -29.5t31 -11.5q43 0 89.5 20.5t49.5 20.5q14 0 14 -17q0 -21 -53.5 -52.5t-95.5 -31.5t-77 33t-35 70q0 76 72.5 166t145.5 90q16 0 32.5 -18z" />
    <glyph glyph-name="ordfeminine" unicode="&#xaa;" horiz-adv-x="474" 
d="M406 666q0 -12 -7 -31q1 -3 1 -11t-9.5 -53.5t-9.5 -103.5t-17 -58q-14 0 -26.5 22t-15.5 53q-61 -75 -126 -75q-39 0 -71 32.5t-32 66t15 77t40 85.5t64.5 71.5t81.5 29.5t77 -37t35 -68zM162 513q0 -40 37.5 -40t81.5 51.5t66 130.5q-3 19 -17 34t-34 15
q-47 0 -90.5 -69.5t-43.5 -121.5z" />
    <glyph glyph-name="guillemotleft" unicode="&#xab;" horiz-adv-x="657" 
d="M663 474q19 0 35.5 -13t16.5 -24q0 -17 -55 -29q-101 -21 -175 -47.5t-74 -45t123.5 -67t123.5 -65.5q0 -19 -32 -19q-59 0 -179.5 56.5t-120.5 95.5q0 12 13 31t26 28q40 29 147 64t151 35zM352 497q19 0 35 -11t16 -22q0 -16 -35 -26q-88 -28 -167.5 -64.5t-79.5 -55.5
q0 -17 62 -47t124.5 -58.5t62.5 -40.5q0 -21 -41.5 -21t-166 61.5t-124.5 97.5q0 14 12 35t23 29q42 34 141 78.5t138 44.5z" />
    <glyph glyph-name="logicalnot" unicode="&#xac;" horiz-adv-x="496" 
d="M406 399l-299 -3q-38 0 -68.5 23.5t-30.5 43.5t18 20l277 -4q159 0 198 -10q24 -7 38.5 -35t14.5 -64t-34 -107.5t-78.5 -127.5t-72.5 -56q-19 0 -19 18q0 9 29 59q86 146 86 220q0 23 -59 23z" />
    <glyph glyph-name="uni00AD" unicode="&#xad;" horiz-adv-x="600" 
d="M422 328q0 -16 -32.5 -26t-157 -35t-136 -25t-27.5 17t-16 31q0 22 113 42.5t196 20.5q60 0 60 -25z" />
    <glyph glyph-name="registered" unicode="&#xae;" horiz-adv-x="589" 
d="M161 647q75 73 161.5 73t134 -49t47.5 -125q0 -101 -71.5 -167.5t-177.5 -66.5q-81 0 -125 47.5t-44 122.5q0 92 75 165zM248 349q95 0 150.5 53t55.5 150q0 57 -31.5 93.5t-78.5 36.5q-77 0 -143.5 -59t-66.5 -154q0 -57 31 -88.5t83 -31.5zM232 408q-5 0 -12.5 8
t-7.5 15.5t16.5 65.5t19.5 89q-13 9 -13 20q0 9 23 17.5t51 8.5t48.5 -12.5t20.5 -36.5t-21 -43t-41.5 -28t-20.5 -10q0 -12 39 -43q8 -8 17 -15t13 -12q9 -8 9 -14q0 -10 -15.5 -10t-47.5 27t-47 52l-1 -2q-22 -77 -30 -77zM341 582q0 14 -30 14q-12 0 -30 -6q2 -4 2 -14.5
t-11 -51.5q54 27 64 43q5 7 5 15z" />
    <glyph glyph-name="macron" unicode="&#xaf;" horiz-adv-x="365" 
d="M317.5 650.5q37.5 -4.5 37.5 -19t-30 -21t-144 -19.5t-117 -13q-19 0 -36.5 17t-17.5 32q0 28 175 28q95 0 132.5 -4.5z" />
    <glyph glyph-name="degree" unicode="&#xb0;" horiz-adv-x="339" 
d="M261.5 520q23.5 37 23.5 68.5t-12 48.5t-32 17q-34 0 -58 -38t-24 -69.5t12.5 -47.5t32.5 -16q34 0 57.5 37zM79 530q0 70 54 132.5t127 62.5q48 0 77 -32.5t29 -82.5q0 -70 -54 -132.5t-126 -62.5q-48 0 -77.5 32.5t-29.5 82.5z" />
    <glyph glyph-name="plusminus" unicode="&#xb1;" horiz-adv-x="600" 
d="M543 487q61 0 61 -25q0 -39 -222 -64q-33 -168 -46 -191q-6 -10 -12 -11q-15 0 -30.5 18.5t-15.5 34t21 141.5q-82 -5 -135 -5q-22 0 -41.5 21.5t-19.5 41t26 19.5h106q29 0 77 2q14 100 14 158q0 26 18 26t45.5 -25.5t27.5 -43.5t-18 -108q132 11 144 11zM495 152
q66 0 66 -19t-54.5 -34.5t-130.5 -22.5q-159 -16 -243 -16q-20 0 -37 19.5t-17 36t20 16.5q86 0 230 10t166 10z" />
    <glyph glyph-name="uni00B2" unicode="&#xb2;" horiz-adv-x="308" 
d="M216 662q-27 0 -52 -30q-8 -11 -14 -11t-21.5 11t-15.5 19q0 21 31.5 45t71 24t63.5 -26t24 -66q0 -58 -47.5 -114t-119.5 -102q114 19 134 19q37 0 37 -18.5t-75 -36.5t-115 -18q-17 0 -36 15.5t-19 29t29 38.5t63 51t63 63.5t29 72t-30 34.5z" />
    <glyph glyph-name="uni00B3" unicode="&#xb3;" horiz-adv-x="311" 
d="M128 533q0 20 64 52q25 12 45 30.5t20 36.5q0 16 -20 16t-49 -17t-37 -17t-20.5 12.5t-12.5 20.5q0 18 41 35.5t75 17.5t56.5 -23t22.5 -49.5t-27 -53.5t-65 -48q87 -19 87 -68q0 -46 -65.5 -81t-126.5 -35t-61 20q0 10 47 22t94 30.5t47 43.5q0 14 -28 21t-57 13.5
t-30 19.5v1z" />
    <glyph glyph-name="acute" unicode="&#xb4;" horiz-adv-x="219" 
d="M17.5 666.5q-7.5 8.5 -7.5 22t12 29.5t37 40t39.5 38t22.5 22t17 16q17 14 30.5 14t27 -19t13.5 -32.5t-2.5 -20t-6.5 -11t-13.5 -12t-17.5 -12.5t-25 -15.5t-28.5 -18.5t-24.5 -18t-19 -14q-26 -17 -36.5 -17t-18 8.5z" />
    <glyph glyph-name="mu" unicode="&#xb5;" horiz-adv-x="575" 
d="M492 511q17 0 37 -26t20 -50q0 -12 -50 -174t-62 -204t-36 -42q-30 0 -30 45q0 30 22 110q-96 -155 -179 -155q-28 0 -47 17t-24 43q-7 -15 -40 -92t-51 -113q-34 -70 -47 -70q-15 0 -30 10.5t-15 20t16 46.5q71 170 103.5 259.5t61.5 185.5t46.5 142.5t30.5 46.5
t32 -11.5t19 -20.5q0 -20 -21 -79q-60 -176 -60 -268q0 -16 9.5 -26.5t23.5 -10.5q40 0 96 74t98.5 164t55.5 150q6 28 21 28z" />
    <glyph glyph-name="paragraph" unicode="&#xb6;" horiz-adv-x="521" 
d="M249 405q-47 -37 -84 -37t-66 32t-29 66q0 77 51.5 167t124.5 122q33 14 95 23t96.5 9t49 -5.5t31.5 -31t17 -50.5q-1 -152 -90 -486q-55 -199 -75 -199q-12 0 -28 14t-16 26.5t28.5 114.5t63 261t45.5 296q-33 -10 -94 -19q1 -4 1 -11q-1 -153 -90 -483
q-53 -199 -75 -199q-13 0 -28.5 14t-15.5 26t15 68q60 224 73 282z" />
    <glyph glyph-name="periodcentered" unicode="&#xb7;" horiz-adv-x="237" 
d="M145 246q-25 0 -57 32t-32 54t17.5 43t36 21t43 -49t24.5 -74q0 -8 -11 -17.5t-21 -9.5z" />
    <glyph glyph-name="cedilla" unicode="&#xb8;" horiz-adv-x="252" 
d="M148 -56q30 0 62 -18t32 -39q-1 -44 -62 -71t-126 -27q-19 0 -31.5 7t-12.5 17q0 13 26.5 18.5t64.5 14.5t56 28q-7 9 -47.5 17.5t-40.5 18.5t8 29.5t20.5 45t18.5 43.5t33.5 18t27.5 -23t-32 -79h3z" />
    <glyph glyph-name="uni00B9" unicode="&#xb9;" horiz-adv-x="154" 
d="M116 705q0 19 12 19t31.5 -16.5t19.5 -26.5q0 -35 -22.5 -163.5t-31 -146.5t-17 -18t-19.5 12.5t-11 20t19 120.5t19 199z" />
    <glyph glyph-name="ordmasculine" unicode="&#xba;" horiz-adv-x="452" 
d="M206.5 651q-30.5 -47 -30.5 -101t38 -82q54 9 88 52t34 106t-45 85q-54 -13 -84.5 -60zM292 771q51 0 81 -46.5t30 -102.5q0 -75 -54.5 -143t-137.5 -68q-44 0 -73.5 44t-29.5 99q0 82 53.5 149.5t130.5 67.5z" />
    <glyph glyph-name="guillemotright" unicode="&#xbb;" horiz-adv-x="833" 
d="M415 461q0 10 14.5 23t27.5 13q50 -1 156 -64.5t106 -108.5q0 -29 -21 -48q-44 -35 -150.5 -80.5t-143 -45.5t-36.5 15.5t135.5 78t135.5 79.5q0 21 -61 57.5t-125 54.5q-38 12 -38 26zM127 434q0 10 17 25t30 15q56 0 163 -51.5t107 -97.5q0 -39 -136 -103t-195 -64
q-28 0 -28 17q0 15 68.5 46t137.5 61.5t69 45.5q0 19 -62.5 44.5t-131.5 38.5q-39 7 -39 23z" />
    <glyph glyph-name="onequarter" unicode="&#xbc;" horiz-adv-x="783" 
d="M646 326q12 0 32 -19t20 -34q0 -63 -38.5 -190.5t-65.5 -127.5q-11 0 -19 12t-8 24.5t5.5 32t15.5 53t17 61.5q-54 -22 -103 -22t-76 24.5t-27 64.5t38 106.5t80.5 116.5t56 50t26.5 -13t13 -24t-35 -56q-108 -136 -108 -175q0 -16 6.5 -23t24 -7t39 6t46.5 16t34 13
q6 42 6 89q0 22 20 22zM599 735.5q14 -22.5 14 -43.5t-36.5 -74t-113 -152t-118.5 -158q-135 -196 -182 -259t-62 -63q-8 0 -20 14.5t-12 27t30.5 63t114.5 171.5q193 276 337 478q15 17 24.5 17.5t23.5 -22zM173.5 307.5q-5.5 -10.5 -15 -10.5t-24.5 14.5t-15 24t24 151
t24 255.5q0 20 15.5 20t38.5 -19.5t23 -31.5q0 -62 -25 -194q-4 -21 -11.5 -64t-11.5 -63.5t-10.5 -46t-12 -36z" />
    <glyph glyph-name="onehalf" unicode="&#xbd;" horiz-adv-x="787" 
d="M637 70q46 0 46 -20q0 -23 -96 -45.5t-147 -22.5q-21 0 -44.5 19t-23.5 41q0 11 24 32.5t58.5 48.5t69 57.5t58.5 68t24 72.5q0 49 -38 49q-26 0 -53 -25.5t-31 -25.5q-10 0 -28.5 12t-18.5 22q0 27 41 57.5t89.5 30.5t79.5 -33.5t31 -81.5q0 -77 -65 -151t-161 -131
q162 26 185 26zM559 758q11 0 25.5 -22t14.5 -43.5t-36.5 -75t-113 -152t-118.5 -157.5q-136 -197 -183 -259.5t-61 -62.5q-8 0 -20 14.5t-12 26.5t22 49.5t70 107.5t99 142q191 270 287 408q14 21 18.5 22.5t7.5 1.5zM156 302.5q-4 -5.5 -12.5 -5.5t-23.5 14.5t-15 28
t12 73.5q36 180 36 329q0 20 15.5 20t38.5 -19.5t23 -31.5q-1 -73 -26 -194q-3 -17 -8 -46.5t-8 -46.5t-7.5 -40t-8 -36t-8 -26.5t-8.5 -19z" />
    <glyph glyph-name="threequarters" unicode="&#xbe;" horiz-adv-x="876" 
d="M757 326q12 0 31 -19t19 -34q0 -62 -39 -190t-65 -128q-11 0 -18.5 12t-7.5 24.5t6 32.5t16 53t17 61q-56 -22 -103.5 -22t-75.5 25t-28 64.5t38 106t81 116.5t56.5 50t26.5 -13t13 -24t-36 -56q-107 -134 -107 -175q0 -16 6.5 -23t23.5 -7t38 5.5t48 16.5t34 13
q6 42 6 89q0 22 20 22zM709.5 736q14.5 -22 14.5 -43.5t-36 -74.5t-113.5 -153t-118.5 -157q-136 -197 -183 -259.5t-61 -62.5q-8 0 -20 14.5t-12 26.5t22 49.5t70 107.5t99 142q191 270 240 340.5t52.5 75.5t4.5 6.5t3.5 4t4.5 3.5q2 2 10.5 2t23 -22zM179 551v3
q0 20 83 64q30 17 56 41t26 47t-26 23t-64 -21.5t-47.5 -21.5t-24.5 14.5t-15 24.5q0 22 52 44.5t94 22.5t71 -29t29 -61.5t-36 -69t-85 -63.5q52 -9 83.5 -31.5t31.5 -54.5q0 -57 -83.5 -101.5t-160.5 -44.5t-77 25q0 12 121 40q45 11 83 33t38 50q0 19 -37 27.5
t-74.5 15.5t-37.5 23z" />
    <glyph glyph-name="questiondown" unicode="&#xbf;" horiz-adv-x="380" 
d="M276 596q24 0 55 -31t31 -52.5t-16.5 -42t-34 -20.5t-41.5 48t-24 73q0 7 10 16t20 9zM240 -41l-2 26q0 12 12 17.5t22 5.5t29 -23t19 -39q0 -55 -49 -98t-114.5 -43t-110.5 41t-45 111q0 41 27 86t62 79q96 93 123 154.5t35 69.5t15 8q26 0 26 -64t-71 -138
q-30 -32 -59.5 -63t-50 -64.5t-20.5 -63.5t21.5 -49.5t52.5 -19.5t54.5 19t23.5 48z" />
    <glyph glyph-name="Agrave" unicode="&#xc0;" horiz-adv-x="608" 
d="M564 363q0 -19 -88 -44q8 -104 8 -177q0 -126 -33 -126q-18 0 -27.5 21t-14.5 73q-15 179 -16 188q-146 -38 -193 -52q-88 -230 -104.5 -230t-35 19.5t-18.5 41.5q0 7 58 143q-3 -1 -15 -1t-27.5 13t-15.5 32.5t99 51.5q16 36 32.5 80.5t59 145.5t52 125t37 43.5
t53.5 19.5q31 0 55.5 -99t39.5 -245q28 3 48 3q46 0 46 -26zM236 342q75 20 150 32q-18 171 -35 256q-51 -118 -115 -288zM248 904.5q-2 4.5 -2 16.5t15 30.5t33 18.5q15 0 38 -27q18 -21 58 -62.5t44.5 -51t4.5 -19t-8 -18t-17.5 -8.5t-19.5 6.5t-29.5 21.5t-31 22.5
t-23.5 16t-18.5 13t-15.5 11t-13.5 11t-8.5 9.5t-6 9.5z" />
    <glyph glyph-name="Aacute" unicode="&#xc1;" horiz-adv-x="608" 
d="M564 363q0 -19 -88 -44q8 -104 8 -177q0 -126 -33 -126q-18 0 -27.5 21t-14.5 73q-15 179 -16 188q-146 -38 -193 -52q-88 -230 -104.5 -230t-35 19.5t-18.5 41.5q0 7 58 143q-3 -1 -15 -1t-27.5 13t-15.5 32.5t99 51.5q16 36 32.5 80.5t59 145.5t52 125t37 43.5
t53.5 19.5q31 0 55.5 -99t39.5 -245q28 3 48 3q46 0 46 -26zM236 342q75 20 150 32q-18 171 -35 256q-51 -118 -115 -288zM390 785.5q-5 -1.5 -13 -1.5t-15.5 8t-7.5 21.5t12.5 29t49.5 53.5q30 27 43 41t23 21q18 15 31 15t26 -18.5t13 -33t-2.5 -21.5t-12 -15t-17.5 -13
q-71 -48 -90.5 -62t-27 -18.5t-12.5 -6z" />
    <glyph glyph-name="Acircumflex" unicode="&#xc2;" horiz-adv-x="608" 
d="M564 363q0 -19 -88 -44q8 -104 8 -177q0 -126 -33 -126q-18 0 -27.5 21t-14.5 73q-15 179 -16 188q-146 -38 -193 -52q-88 -230 -104.5 -230t-35 19.5t-18.5 41.5q0 7 58 143q-3 -1 -15 -1t-27.5 13t-15.5 32.5t99 51.5q16 36 32.5 80.5t59 145.5t52 125t37 43.5
t53.5 19.5q31 0 55.5 -99t39.5 -245q28 3 48 3q46 0 46 -26zM236 342q75 20 150 32q-18 171 -35 256q-51 -118 -115 -288zM284 808q-20 -14 -33.5 -14t-23 9t-9.5 27t16 35.5t40.5 31.5t40.5 24t26 16t21 12q24 12 33.5 12t18 -5t13.5 -11q8 -10 23.5 -29.5t30 -35.5
t20.5 -23.5t15 -18.5q16 -21 16 -33q0 -24 -25 -24q-16 0 -39 19t-36 35t-39 49q-28 -14 -58.5 -38t-50.5 -38z" />
    <glyph glyph-name="Atilde" unicode="&#xc3;" horiz-adv-x="608" 
d="M564 363q0 -19 -88 -44q8 -104 8 -177q0 -126 -33 -126q-18 0 -27.5 21t-14.5 73q-15 179 -16 188q-146 -38 -193 -52q-88 -230 -104.5 -230t-35 19.5t-18.5 41.5q0 7 58 143q-3 -1 -15 -1t-27.5 13t-15.5 32.5t99 51.5q16 36 32.5 80.5t59 145.5t52 125t37 43.5
t53.5 19.5q31 0 55.5 -99t39.5 -245q28 3 48 3q46 0 46 -26zM236 342q75 20 150 32q-18 171 -35 256q-51 -118 -115 -288zM254 787q-32 0 -32 33.5t39 74t79 40.5q23 0 41.5 -12t27.5 -27q25 -40 43 -43q17 3 38.5 36.5t40.5 33.5q25 0 25 -34.5t-31.5 -71.5t-69.5 -37
q-55 0 -111 89q-23 -12 -47 -47t-43 -35z" />
    <glyph glyph-name="Adieresis" unicode="&#xc4;" horiz-adv-x="608" 
d="M564 363q0 -19 -88 -44q8 -104 8 -177q0 -126 -33 -126q-18 0 -27.5 21t-14.5 73q-15 179 -16 188q-146 -38 -193 -52q-88 -230 -104.5 -230t-35 19.5t-18.5 41.5q0 7 58 143q-3 -1 -15 -1t-27.5 13t-15.5 32.5t99 51.5q16 36 32.5 80.5t59 145.5t52 125t37 43.5
t53.5 19.5q31 0 55.5 -99t39.5 -245q28 3 48 3q46 0 46 -26zM236 342q75 20 150 32q-18 171 -35 256q-51 -118 -115 -288zM333 799q-22 0 -49 26.5t-27 45.5t14.5 36.5t30.5 17.5t36.5 -39t20.5 -54t-8.5 -24t-17.5 -9zM483 799q-22 0 -49 26.5t-27 45.5t15 36.5t30.5 17.5
t36.5 -39t21 -54.5t-9 -24t-18 -8.5z" />
    <glyph glyph-name="Aring" unicode="&#xc5;" horiz-adv-x="608" 
d="M564 363q0 -19 -88 -44q8 -104 8 -177q0 -126 -33 -126q-18 0 -27.5 21t-14.5 73q-15 179 -16 188q-146 -38 -193 -52q-88 -230 -104.5 -230t-35 19.5t-18.5 41.5q0 7 58 143q-3 -1 -15 -1t-27.5 13t-15.5 32.5t99 51.5q16 36 32.5 80.5t59 145.5t52 125t37 43.5
t53.5 19.5q31 0 55.5 -99t39.5 -245q28 3 48 3q46 0 46 -26zM236 342q75 20 150 32q-18 171 -35 256q-51 -118 -115 -288zM457.5 805.5q-29.5 -33.5 -66 -33.5t-59.5 25t-23 64t29.5 72.5t66.5 33.5t59.5 -25.5t22.5 -64t-29.5 -72zM420.5 900.5q-7.5 10.5 -19.5 10.5
t-22.5 -14.5t-10.5 -32.5t7.5 -28.5t19.5 -10.5t22.5 14t10.5 32.5t-7.5 29z" />
    <glyph glyph-name="AE" unicode="&#xc6;" horiz-adv-x="831" 
d="M606 631h-52q3 -9 3 -19q0 -77 -41 -216q105 11 149 11q79 0 79 -31q0 -17 -47.5 -26.5t-112 -17.5t-68.5 -8.5t-10.5 -1t-11.5 -1.5q-51 -171 -51 -189q0 -33 28 -33q115 0 254 37q45 12 52 12q14 0 14 -21q0 -36 -110.5 -74t-213.5 -38q-46 0 -80.5 27t-34.5 63
q0 54 46 203q-45 -6 -116.5 -17.5t-88.5 -12.5q-83 -202 -100.5 -233.5t-27.5 -31.5q-16 0 -31.5 17t-15.5 32t17.5 57.5t50 118t90.5 221t82 187.5q21 35 86.5 47t190 12t190 -5t86.5 -13t21 -21q0 -35 -226 -35zM421 385q46 155 49 244q-115 -6 -128 -22
q-21 -22 -117 -253q77 16 196 31z" />
    <glyph glyph-name="Ccedilla" unicode="&#xc7;" horiz-adv-x="603" 
d="M243 -33q31 0 62.5 -17.5t31.5 -39.5q-1 -44 -62 -71t-126 -27q-19 0 -31.5 7.5t-12.5 18.5t26.5 16.5t64.5 15t56 28.5q-6 9 -47 17.5t-41 19.5t17.5 47.5t22.5 49.5q-56 22 -97 74t-41 109q0 94 61.5 212.5t158 204.5t185.5 86q25 0 52.5 -33t27.5 -54.5t-7 -21.5
t-28 7.5t-39 7.5q-52 0 -127.5 -65t-133 -164.5t-57.5 -183.5q0 -46 28 -71.5t74.5 -25.5t95.5 13.5t79 30.5q81 43 89 43q17 0 17 -22t-44.5 -59t-111 -67t-120.5 -32q-12 -29 -26 -54h3z" />
    <glyph glyph-name="Egrave" unicode="&#xc8;" horiz-adv-x="585" 
d="M208 333q-54 -171 -54 -207q0 -12 7.5 -19.5t19.5 -7.5q115 0 254 37q45 12 52 12q15 0 15 -21q0 -36 -110.5 -74t-213.5 -38q-46 0 -80.5 27t-34.5 68t29.5 140t59.5 211t30 189q0 11 4 23q17 37 218 37t201 -29q0 -20 -43 -27q-36 -7 -95.5 -12.5t-83.5 -8t-116 -18.5
v-3q0 -68 -37 -205q6 -1 40.5 -1t92.5 5t87.5 5t29.5 -14q0 -35 -82 -52t-190 -17zM285.5 904.5q-1.5 4.5 -1.5 16.5t15 30.5t28 18.5t21.5 -6.5t29 -29t55.5 -59t39.5 -46t4.5 -19t-8 -18t-17.5 -8.5t-20 6t-30.5 21.5t-30 22.5t-23 16.5t-19 13.5t-15.5 11t-13 10.5
t-8.5 9t-6.5 10z" />
    <glyph glyph-name="Eacute" unicode="&#xc9;" horiz-adv-x="585" 
d="M208 333q-54 -171 -54 -207q0 -12 7.5 -19.5t19.5 -7.5q115 0 254 37q45 12 52 12q15 0 15 -21q0 -36 -110.5 -74t-213.5 -38q-46 0 -80.5 27t-34.5 68t29.5 140t59.5 211t30 189q0 11 4 23q17 37 218 37t201 -29q0 -20 -43 -27q-36 -7 -95.5 -12.5t-83.5 -8t-116 -18.5
v-3q0 -68 -37 -205q6 -1 40.5 -1t92.5 5t87.5 5t29.5 -14q0 -35 -82 -52t-190 -17zM427 785.5q-5 -1.5 -12.5 -1.5t-15.5 8t-8 21.5t12.5 29.5t37 40t39 38t22.5 22t17 15q17 15 31 15t27 -18.5t13 -33t-2.5 -21.5t-12 -15t-17.5 -13q-34 -23 -52.5 -35t-32.5 -22.5
t-19.5 -14t-13.5 -8.5t-13 -6.5z" />
    <glyph glyph-name="Ecircumflex" unicode="&#xca;" horiz-adv-x="585" 
d="M208 333q-54 -171 -54 -207q0 -12 7.5 -19.5t19.5 -7.5q115 0 254 37q45 12 52 12q15 0 15 -21q0 -36 -110.5 -74t-213.5 -38q-46 0 -80.5 27t-34.5 68t29.5 140t59.5 211t30 189q0 11 4 23q17 37 218 37t201 -29q0 -20 -43 -27q-36 -7 -95.5 -12.5t-83.5 -8t-116 -18.5
v-3q0 -68 -37 -205q6 -1 40.5 -1t92.5 5t87.5 5t29.5 -14q0 -35 -82 -52t-190 -17zM322 808q-20 -14 -34 -14t-23.5 9t-9.5 27t16 35.5t40.5 31.5t40.5 24t26 16t22 12q22 12 32 12t18.5 -5t13.5 -11t16.5 -20.5t17.5 -21.5t20.5 -23t20.5 -23.5t15 -18.5q16 -21 16 -33
t-7.5 -18t-20.5 -6t-36 19t-36 35t-39 49q-28 -14 -58.5 -38t-50.5 -38z" />
    <glyph glyph-name="Edieresis" unicode="&#xcb;" horiz-adv-x="585" 
d="M208 333q-54 -171 -54 -207q0 -12 7.5 -19.5t19.5 -7.5q115 0 254 37q45 12 52 12q15 0 15 -21q0 -36 -110.5 -74t-213.5 -38q-46 0 -80.5 27t-34.5 68t29.5 140t59.5 211t30 189q0 11 4 23q17 37 218 37t201 -29q0 -20 -43 -27q-36 -7 -95.5 -12.5t-83.5 -8t-116 -18.5
v-3q0 -68 -37 -205q6 -1 40.5 -1t92.5 5t87.5 5t29.5 -14q0 -35 -82 -52t-190 -17zM370 799q-22 0 -49 26.5t-27 45.5t15 36.5t30.5 17.5t36.5 -39t21 -54.5t-8.5 -24t-18.5 -8.5zM521 799q-22 0 -49 26.5t-27 45.5t15 36.5t30.5 17.5t36.5 -39t21 -54t-9 -24t-18 -9z" />
    <glyph glyph-name="Igrave" unicode="&#xcc;" horiz-adv-x="310" 
d="M137.5 904.5q-1.5 4.5 -1.5 16.5t15 30.5t32 18.5q15 0 38 -27q18 -21 58.5 -62.5t45 -51t4.5 -19t-8.5 -18t-17.5 -8.5t-19.5 6t-30.5 21.5t-30.5 23t-23 16t-19 13t-15 11t-13 11t-9 9.5t-6 9.5zM87.5 43q-19.5 24 -19.5 44t59.5 279.5t60.5 321.5q0 17 4.5 23.5
t19 6.5t38 -31t23.5 -66.5t-72 -328.5q-7 -27 -19 -77.5t-19 -77.5t-15 -59q-17 -59 -29 -59t-31.5 24z" />
    <glyph glyph-name="Iacute" unicode="&#xcd;" horiz-adv-x="310" 
d="M251 792q-8 8 -8 21.5t12.5 29t49.5 53.5q24 22 40.5 38.5t25.5 23.5q17 15 30.5 15t27 -19t13.5 -32.5t-2.5 -20t-6.5 -11t-13.5 -12t-17.5 -12.5t-25 -15.5t-28.5 -18.5t-24.5 -18t-19 -14t-13 -8q-13 -8 -23 -8t-18 8zM87.5 43q-19.5 24 -19.5 44t59.5 279.5
t60.5 321.5q0 17 4.5 23.5t19 6.5t38 -31t23.5 -66.5t-72 -328.5q-7 -27 -19 -77.5t-19 -77.5t-15 -59q-17 -59 -29 -59t-31.5 24z" />
    <glyph glyph-name="Icircumflex" unicode="&#xce;" horiz-adv-x="310" 
d="M271.5 958q8.5 3 15.5 3t15.5 -5t13.5 -11l24 -30t30 -35t20.5 -23.5t15.5 -19.5q16 -20 16 -32q0 -24 -26 -24q-16 0 -39 19t-36 35t-39 49q-28 -15 -58.5 -38.5t-50 -37.5t-33.5 -14t-23.5 9t-9.5 27t16 35.5t40.5 31.5t40.5 24t26 16t21.5 12t20 9zM87.5 43
q-19.5 24 -19.5 44t59.5 279.5t60.5 321.5q0 17 4.5 23.5t19 6.5t38 -31t23.5 -66.5t-72 -328.5q-7 -27 -19 -77.5t-19 -77.5t-15 -59q-17 -59 -29 -59t-31.5 24z" />
    <glyph glyph-name="Idieresis" unicode="&#xcf;" horiz-adv-x="310" 
d="M342 925q16 0 36.5 -39t20.5 -54t-8.5 -24t-17.5 -9q-22 0 -49 26.5t-27 45.5t14.5 36.5t30.5 17.5zM161 907.5q15 17.5 30.5 17.5t36.5 -39t21 -54t-9 -24t-18 -9q-22 0 -49 26.5t-27 45.5t15 36.5zM87.5 43q-19.5 24 -19.5 44t59.5 279.5t60.5 321.5q0 17 4.5 23.5
t19 6.5t38 -31t23.5 -66.5t-72 -328.5q-7 -27 -19 -77.5t-19 -77.5t-15 -59q-17 -59 -29 -59t-31.5 24z" />
    <glyph glyph-name="Eth" unicode="&#xd0;" horiz-adv-x="619" 
d="M165 703q94 0 200.5 -49.5t183.5 -136.5t77 -179q0 -60 -84.5 -142.5t-195.5 -141t-184 -58.5q-19 0 -43.5 32.5t-24.5 63t41 183.5q-50 -4 -61.5 -4t-35.5 10t-24 27q0 23 44 32t100 17q52 187 57 252q-32 14 -51 35t-19 40t20 19zM534 349q0 62 -74 134t-172 105
q5 -17 5 -33q0 -42 -42 -188q13 1 35.5 1t43.5 -10.5t21 -27.5t-32.5 -25.5t-89.5 -17.5l-17 -56q-19 -66 -31 -145q69 9 154.5 60.5t142 110t56.5 92.5z" />
    <glyph glyph-name="Ntilde" unicode="&#xd1;" horiz-adv-x="677" 
d="M268 817q0 37 39 77.5t79 40.5q24 0 42.5 -12t27.5 -27q25 -40 43 -43q17 3 38.5 36.5t40.5 33.5q25 0 25 -34.5t-32 -71.5t-69 -37q-55 0 -112 89q-19 -10 -34.5 -31t-27.5 -36t-27 -15t-24 8t-9 22zM562 680q2 43 20.5 43t40.5 -23t22 -41q0 -82 -25.5 -233t-68 -280
t-80.5 -129q-13 0 -29.5 13t-25.5 32q-30 70 -177 444q-30 -116 -66.5 -262.5t-48.5 -186.5t-21 -40q-13 0 -31.5 22.5t-18.5 46.5t65 281.5t67 321.5q0 32 17 32q11 0 30.5 -18.5t28.5 -40.5q161 -418 204 -512q65 172 87 411q10 110 10 119z" />
    <glyph glyph-name="Ograve" unicode="&#xd2;" horiz-adv-x="613" 
d="M349.5 904.5q-1.5 4.5 -1.5 16.5t15 30.5t32 18.5q15 0 38 -27q18 -21 58.5 -62.5t45 -51t4.5 -19t-8 -18t-17.5 -8.5t-20 6t-30.5 21.5t-30 22.5t-23 16.5t-19 13.5t-15.5 11t-13 10.5t-8.5 9t-6.5 10zM453 300.5q47 86.5 47 163.5t-29.5 125t-69.5 48t-100 -62
t-108 -162.5t-48 -192.5q0 -55 24 -89.5t56 -34.5q50 0 115.5 59t112.5 145.5zM219 17q-66 0 -115.5 65t-49.5 132q0 91 33.5 185t84 164t111.5 114.5t113 44.5q84 0 140 -76.5t56 -172.5t-53 -201.5t-141.5 -180t-178.5 -74.5z" />
    <glyph glyph-name="Oacute" unicode="&#xd3;" horiz-adv-x="613" 
d="M463 792q-8 8 -8 21.5t12.5 29.5t37 40t39 38t22.5 22t17 15q17 15 31 15t27 -18.5t13 -33t-2.5 -21.5t-12 -15t-17.5 -13q-34 -23 -53.5 -35.5t-32.5 -22t-19 -14t-13 -8.5q-13 -8 -23 -8t-18 8zM453 300.5q47 86.5 47 163.5t-29.5 125t-69.5 48t-100 -62t-108 -162.5
t-48 -192.5q0 -55 24 -89.5t56 -34.5q50 0 115.5 59t112.5 145.5zM219 17q-66 0 -115.5 65t-49.5 132q0 91 33.5 185t84 164t111.5 114.5t113 44.5q84 0 140 -76.5t56 -172.5t-53 -201.5t-141.5 -180t-178.5 -74.5z" />
    <glyph glyph-name="Ocircumflex" unicode="&#xd4;" horiz-adv-x="613" 
d="M483.5 958q8.5 3 15.5 3t15.5 -5t13.5 -11t16.5 -20.5t17.5 -21.5t20.5 -23t20.5 -23.5t15 -18.5q16 -21 16 -33q0 -24 -26 -24q-16 0 -38.5 19t-35.5 35t-39 49q-28 -14 -58.5 -38t-50.5 -38t-34 -14t-23.5 9t-9.5 27t16 35.5t40.5 31.5t40.5 24t26 16t21.5 12t20 9z
M453 300.5q47 86.5 47 163.5t-29.5 125t-69.5 48t-100 -62t-108 -162.5t-48 -192.5q0 -55 24 -89.5t56 -34.5q50 0 115.5 59t112.5 145.5zM219 17q-66 0 -115.5 65t-49.5 132q0 91 33.5 185t84 164t111.5 114.5t113 44.5q84 0 140 -76.5t56 -172.5t-53 -201.5t-141.5 -180
t-178.5 -74.5z" />
    <glyph glyph-name="Otilde" unicode="&#xd5;" horiz-adv-x="613" 
d="M356 787q-33 0 -33 33.5t39 74t79 40.5q24 0 42.5 -12t27.5 -27q25 -40 43 -43q17 3 38.5 36.5t40.5 33.5q25 0 25 -34.5t-32 -71.5t-69 -37q-55 0 -112 89q-19 -10 -34.5 -31t-27.5 -36t-27 -15zM453 300.5q47 86.5 47 163.5t-29.5 125t-69.5 48t-100 -62t-108 -162.5
t-48 -192.5q0 -55 24 -89.5t56 -34.5q50 0 115.5 59t112.5 145.5zM219 17q-66 0 -115.5 65t-49.5 132q0 91 33.5 185t84 164t111.5 114.5t113 44.5q84 0 140 -76.5t56 -172.5t-53 -201.5t-141.5 -180t-178.5 -74.5z" />
    <glyph glyph-name="Odieresis" unicode="&#xd6;" horiz-adv-x="613" 
d="M524 907.5q15 17.5 30.5 17.5t36.5 -39t21 -54t-9 -24t-18 -9q-22 0 -49 26.5t-27 45.5t15 36.5zM373 907.5q15 17.5 30.5 17.5t36.5 -39t21 -54.5t-8.5 -24t-18.5 -8.5q-22 0 -49 26.5t-27 45.5t15 36.5zM453 300.5q47 86.5 47 163.5t-29.5 125t-69.5 48t-100 -62
t-108 -162.5t-48 -192.5q0 -55 24 -89.5t56 -34.5q50 0 115.5 59t112.5 145.5zM219 17q-66 0 -115.5 65t-49.5 132q0 91 33.5 185t84 164t111.5 114.5t113 44.5q84 0 140 -76.5t56 -172.5t-53 -201.5t-141.5 -180t-178.5 -74.5z" />
    <glyph glyph-name="multiply" unicode="&#xd7;" horiz-adv-x="488" 
d="M503 504q0 -6 -26 -30.5t-78.5 -73t-88.5 -83.5q14 -18 36 -45.5t35 -44.5t27 -35q26 -35 26 -46q0 -22 -25 -22q-46 0 -156 137q-115 -112 -134.5 -124.5t-31.5 -12.5t-29 15.5t-17 26t19.5 28t64 55t81.5 73.5q-51 69 -86 129t-35 79t18 19q28 0 58 -11.5t30 -27.5
q0 -34 71 -130q110 120 146 147q29 22 44 22t33 -15.5t18 -29.5z" />
    <glyph glyph-name="Oslash" unicode="&#xd8;" horiz-adv-x="613" 
d="M566 602q31 -62 31 -143.5t-53 -187t-141 -180t-178 -74.5q-57 0 -106 51q-44 -53 -56 -53t-19.5 8.5t-7.5 21t45 74.5q-27 49 -27 95q0 91 33.5 185t84 164t111.5 114.5t113 44.5q74 0 131 -62q53 55 73 55q24 0 24 -24.5t-43 -71.5zM145 220q0 -13 1 -19q18 23 61 75
t132 162t130 157q-30 42 -69 42t-99 -62t-108 -162.5t-48 -192.5zM505 458q0 34 -7 67q-166 -190 -327 -393q25 -36 59 -36q50 0 115.5 59t112.5 145.5t47 157.5z" />
    <glyph glyph-name="Ugrave" unicode="&#xd9;" horiz-adv-x="592" 
d="M229.5 904.5q-1.5 4.5 -1.5 16.5t15 30.5t28 18.5t21.5 -6.5t29 -29t55.5 -59t39.5 -46t4.5 -19t-8 -18t-17.5 -8.5t-20 6t-30.5 21.5t-30 22.5t-23 16.5t-19 13.5t-15.5 11t-13 10.5t-8.5 9t-6.5 10zM168 712.5q4 6.5 18.5 6.5t39 -26.5t24.5 -62t-41 -193.5t-41 -214.5
t21 -91.5t54 -35t73 38t74.5 99.5t58 150t23.5 178.5q0 42 -4.5 84t-4.5 52q0 21 18 21q23 0 53 -34.5t30 -88.5q0 -154 -45 -289t-121 -215.5t-162 -80.5q-63 0 -109.5 61t-46.5 140t42 248.5t42 228.5q0 17 4 23.5z" />
    <glyph glyph-name="Uacute" unicode="&#xda;" horiz-adv-x="592" 
d="M343 792q-8 8 -8 21.5t12.5 29.5t37 40t39 38t22.5 22t17 15q17 15 31 15t27 -18.5t13 -33t-2.5 -21.5t-12 -15t-17.5 -13q-34 -23 -52.5 -35t-32.5 -22.5t-19.5 -14t-13.5 -8.5q-13 -8 -23 -8t-18 8zM168 712.5q4 6.5 18.5 6.5t39 -26.5t24.5 -62t-41 -193.5t-41 -214.5
t21 -91.5t54 -35t73 38t74.5 99.5t58 150t23.5 178.5q0 42 -4.5 84t-4.5 52q0 21 18 21q23 0 53 -34.5t30 -88.5q0 -154 -45 -289t-121 -215.5t-162 -80.5q-63 0 -109.5 61t-46.5 140t42 248.5t42 228.5q0 17 4 23.5z" />
    <glyph glyph-name="Ucircumflex" unicode="&#xdb;" horiz-adv-x="592" 
d="M363.5 958q8.5 3 15.5 3t15.5 -5t13.5 -11t16.5 -20.5t17.5 -21.5t20.5 -23t20.5 -23.5t15 -18.5q16 -21 16 -33t-7.5 -18t-20.5 -6t-36 19t-36 35t-39 49q-28 -14 -58.5 -38t-50.5 -38t-34 -14t-23.5 9t-9.5 27t16 35.5t40.5 31.5t40.5 24t26 16t21.5 12t20 9z
M168 712.5q4 6.5 18.5 6.5t39 -26.5t24.5 -62t-41 -193.5t-41 -214.5t21 -91.5t54 -35t73 38t74.5 99.5t58 150t23.5 178.5q0 42 -4.5 84t-4.5 52q0 21 18 21q23 0 53 -34.5t30 -88.5q0 -154 -45 -289t-121 -215.5t-162 -80.5q-63 0 -109.5 61t-46.5 140t42 248.5t42 228.5
q0 17 4 23.5z" />
    <glyph glyph-name="Udieresis" unicode="&#xdc;" horiz-adv-x="592" 
d="M404 907.5q15 17.5 30.5 17.5t36.5 -39t21 -54t-9 -24t-18 -9q-22 0 -49 26.5t-27 45.5t15 36.5zM253 907.5q15 17.5 30.5 17.5t36.5 -39t21 -54.5t-8.5 -24t-18.5 -8.5q-22 0 -49 26.5t-27 45.5t15 36.5zM168 712.5q4 6.5 18.5 6.5t39 -26.5t24.5 -62t-41 -193.5
t-41 -214.5t21 -91.5t54 -35t73 38t74.5 99.5t58 150t23.5 178.5q0 42 -4.5 84t-4.5 52q0 21 18 21q23 0 53 -34.5t30 -88.5q0 -154 -45 -289t-121 -215.5t-162 -80.5q-63 0 -109.5 61t-46.5 140t42 248.5t42 228.5q0 17 4 23.5z" />
    <glyph glyph-name="Yacute" unicode="&#xdd;" horiz-adv-x="575" 
d="M349 792q-8 8 -8 21.5t12.5 29t49.5 53.5q24 22 40.5 38.5t25.5 23.5q17 15 30.5 15t27 -19t13.5 -32.5t-2.5 -20t-6.5 -11t-13.5 -12t-17.5 -12.5t-25 -15.5t-28.5 -18.5t-24.5 -18t-19 -14t-13 -8q-13 -8 -23 -8t-18 8zM327 373q18 0 65.5 85.5t97 171.5t70.5 86
t34 -15t13 -36t-38 -84t-102 -166.5t-128 -224.5t-88 -151t-39 -30q-22 0 -22 36q0 28 28 85q9 17 14 28.5t16 32.5t17 32.5t18.5 36t18.5 35.5q-59 15 -108.5 74.5t-75.5 133t-26 143.5t40 70q16 0 25.5 -31t23.5 -89t37 -106.5t55 -82.5t54 -34z" />
    <glyph glyph-name="Thorn" unicode="&#xde;" horiz-adv-x="503" 
d="M301 548q60 0 115 -52.5t55 -109.5q0 -78 -75 -134q-91 -68 -234 -68q-39 -142 -54 -162q-5 -7 -10 -7q-15 0 -31 22.5t-16 43.5t27 125q80 318 80 444q0 17 4.5 24t21 7t42 -26t25.5 -63q0 -18 -6 -52q32 8 56 8zM387 385q0 32 -28 52.5t-62 20.5t-71 -16
q-27 -114 -44 -179q11 -1 32 1q67 5 120 40.5t53 80.5z" />
    <glyph glyph-name="germandbls" unicode="&#xdf;" horiz-adv-x="585" 
d="M261 93l50 -2q45 0 86.5 26.5t41.5 70.5q0 30 -21.5 57.5t-46.5 44.5t-46.5 40.5t-21.5 41t21.5 34t46.5 30t46.5 37t21.5 49.5q0 43 -30.5 74t-66 31t-65 -36.5t-41.5 -98.5q-97 -477 -144 -477q-14 0 -28.5 17.5t-14.5 36.5t15 73q61 230 88 375q16 89 67 141t137 52
q65 0 116 -59t51 -123q0 -30 -13 -55.5t-31.5 -40.5t-36.5 -27t-31 -21.5t-13 -16t19.5 -23t43 -35.5t43 -52.5t19.5 -71.5q0 -75 -60 -121.5t-138 -46.5q-43 0 -66.5 16t-23.5 39q0 21 26 21z" />
    <glyph glyph-name="agrave" unicode="&#xe0;" horiz-adv-x="472" 
d="M346 703q11 -12 46 -48.5t39.5 -46t4.5 -19t-8.5 -18.5t-17.5 -9t-19.5 6.5t-29.5 21.5t-30 23t-24 17t-19 13t-15 10.5t-13.5 10.5t-9.5 10q-7 9 -7 23t15 32.5t33 18.5q13 0 37 -26q7 -7 18 -19zM300 511q45 0 83 -45.5t38 -82t-25 -74.5q12 -15 12 -26
q0 -28 -12.5 -96t-15 -89t-4.5 -33.5t-4 -24.5q-5 -25 -19 -25q-36 0 -43 112q-90 -112 -165 -112q-46 0 -90.5 39.5t-44.5 81.5q0 60 44 148.5t114 157.5t132 69zM346 335q0 93 -36 93q-39 0 -91.5 -55.5t-88.5 -125.5t-36 -111q0 -17 14 -27.5t33 -10.5q47 0 106 63.5
t82 154.5q3 15 17 18v1z" />
    <glyph glyph-name="aacute" unicode="&#xe1;" horiz-adv-x="472" 
d="M536 733.5q13 -18.5 13 -33t-2.5 -21.5t-12 -15t-16.5 -13q-35 -23 -54 -35.5t-32 -22.5t-19 -14q-25 -17 -36 -17t-18.5 8.5t-7.5 22.5t12.5 30t36.5 39.5t38.5 37.5t22.5 22t17 16q17 14 31 14t27 -18.5zM300 511q45 0 83 -45.5t38 -82t-25 -74.5q12 -15 12 -26
q0 -28 -12.5 -96t-15 -89t-4.5 -33.5t-4 -24.5q-5 -25 -19 -25q-36 0 -43 112q-90 -112 -165 -112q-46 0 -90.5 39.5t-44.5 81.5q0 60 44 148.5t114 157.5t132 69zM346 335q0 93 -36 93q-39 0 -91.5 -55.5t-88.5 -125.5t-36 -111q0 -17 14 -27.5t33 -10.5q47 0 106 63.5
t82 154.5q3 15 17 18v1z" />
    <glyph glyph-name="acircumflex" unicode="&#xe2;" horiz-adv-x="472" 
d="M525.5 596q3.5 -9 3.5 -16.5t-7.5 -13.5t-20.5 -6t-36 19t-36 35t-39 49q-28 -14 -58.5 -38t-50.5 -38t-33.5 -14t-23 9t-9.5 27q0 36 69 75q11 6 27 16t26 16t21 12q23 12 33 12t18.5 -5t13.5 -11t16.5 -20.5t17.5 -21.5t20.5 -23t20.5 -23.5t15 -19t12.5 -20.5z
M300 511q45 0 83 -45.5t38 -82t-25 -74.5q12 -15 12 -26q0 -28 -12.5 -96t-15 -89t-4.5 -33.5t-4 -24.5q-5 -25 -19 -25q-36 0 -43 112q-90 -112 -165 -112q-46 0 -90.5 39.5t-44.5 81.5q0 60 44 148.5t114 157.5t132 69zM346 335q0 93 -36 93q-39 0 -91.5 -55.5
t-88.5 -125.5t-36 -111q0 -17 14 -27.5t33 -10.5q47 0 106 63.5t82 154.5q3 15 17 18v1z" />
    <glyph glyph-name="atilde" unicode="&#xe3;" horiz-adv-x="472" 
d="M528 702q25 0 25 -34.5t-32 -71.5t-69 -37q-54 0 -112 88q-19 -9 -34.5 -30t-27.5 -36t-27 -15t-24 8t-9 22q0 37 39 77.5t79 40.5q24 0 42.5 -12t27.5 -26q25 -41 43 -44q17 3 38.5 36.5t40.5 33.5zM300 511q45 0 83 -45.5t38 -82t-25 -74.5q12 -15 12 -26
q0 -28 -12.5 -96t-15 -89t-4.5 -33.5t-4 -24.5q-5 -25 -19 -25q-36 0 -43 112q-90 -112 -165 -112q-46 0 -90.5 39.5t-44.5 81.5q0 60 44 148.5t114 157.5t132 69zM346 335q0 93 -36 93q-39 0 -91.5 -55.5t-88.5 -125.5t-36 -111q0 -17 14 -27.5t33 -10.5q47 0 106 63.5
t82 154.5q3 15 17 18v1z" />
    <glyph glyph-name="adieresis" unicode="&#xe4;" horiz-adv-x="472" 
d="M419 686.5q15 17.5 30.5 17.5t36.5 -39t21 -54t-9 -24t-18 -9q-22 0 -49 26.5t-27 45.5t15 36.5zM300 511q45 0 83 -45.5t38 -82t-25 -74.5q12 -15 12 -26q0 -28 -12.5 -96t-15 -89t-4.5 -33.5t-4 -24.5q-5 -25 -19 -25q-36 0 -43 112q-90 -112 -165 -112
q-46 0 -90.5 39.5t-44.5 81.5q0 60 44 148.5t114 157.5t132 69zM346 335q0 93 -36 93q-39 0 -91.5 -55.5t-88.5 -125.5t-36 -111q0 -17 14 -27.5t33 -10.5q47 0 106 63.5t82 154.5q3 15 17 18v1zM330 578q-23 0 -50 26.5t-27 45.5t15 36.5t30.5 17.5t36.5 -39t21 -54
t-8.5 -24t-17.5 -9z" />
    <glyph glyph-name="aring" unicode="&#xe5;" horiz-adv-x="472" 
d="M335.5 712.5q29.5 33.5 66.5 33.5t59.5 -25.5t22.5 -64t-29.5 -72t-66 -33.5t-59.5 25t-23 64t29.5 72.5zM371.5 614.5q7.5 -10.5 20 -10.5t23 14t10.5 32.5t-7.5 29t-20 10.5t-23 -14.5t-10.5 -32.5t7.5 -28.5zM300 511q45 0 83 -45.5t38 -82t-25 -74.5q12 -15 12 -26
q0 -28 -12.5 -96t-15 -89t-4.5 -33.5t-4 -24.5q-5 -25 -19 -25q-36 0 -43 112q-90 -112 -165 -112q-46 0 -90.5 39.5t-44.5 81.5q0 60 44 148.5t114 157.5t132 69zM346 335q0 93 -36 93q-39 0 -91.5 -55.5t-88.5 -125.5t-36 -111q0 -17 14 -27.5t33 -10.5q47 0 106 63.5
t82 154.5q3 15 17 18v1z" />
    <glyph glyph-name="ae" unicode="&#xe6;" horiz-adv-x="743" 
d="M368 345q-3 83 -45.5 83t-94 -56t-84.5 -125t-33 -111q0 -17 13 -27.5t29 -10.5q46 0 95.5 49t92.5 136q10 34 27 62zM630.5 404.5q-24.5 27.5 -55.5 27.5t-70.5 -38.5t-67.5 -95.5q42 -9 92 -9t88 16.5t38 44t-24.5 55zM29 138q0 61 40.5 148t109.5 156t135 69
q35 0 66 -24t47 -59q74 83 148 83q60 0 108.5 -56t48.5 -109.5t-57.5 -87t-125.5 -33.5t-136 16q-14 -42 -14 -77.5t21.5 -54.5t71 -19t102 17.5t57.5 17.5q26 0 26 -20q0 -27 -61 -58.5t-123 -31.5t-108.5 35t-57.5 92q-46 -62 -86 -94.5t-83.5 -32.5t-86 39.5t-42.5 83.5z
" />
    <glyph glyph-name="ccedilla" unicode="&#xe7;" horiz-adv-x="447" 
d="M179 -33q30 0 61.5 -18t31.5 -39q-1 -44 -61.5 -71t-125.5 -27q-20 0 -32.5 7t-12.5 17q0 13 27 18.5t65 14.5t56 28q-7 9 -48 17.5t-41 19.5q0 10 16.5 45.5t21.5 47.5q-44 18 -74.5 55.5t-30.5 80.5q0 68 42 150t108.5 140t129.5 58q41 0 72 -37t31 -65q0 -8 -5 -13.5
t-14.5 -5.5t-33.5 18t-43 18q-54 0 -126 -95t-72 -166q0 -31 19.5 -49t63 -18t80 10.5t56.5 21t31 10.5q19 0 19 -19q0 -28 -66 -65.5t-124 -40.5q-11 -27 -24 -48h3z" />
    <glyph glyph-name="egrave" unicode="&#xe8;" horiz-adv-x="438" 
d="M369 258.5q-58 -33.5 -130.5 -33.5t-130.5 16q-14 -44 -14 -78.5t21.5 -53.5t70.5 -19t101.5 17.5t57.5 17.5q26 0 26 -20q0 -27 -60.5 -58.5t-118.5 -31.5q-78 0 -127.5 46.5t-49.5 117.5t38 148.5t98.5 130.5t119.5 53t107.5 -56t48.5 -109.5t-58 -87zM276 432
q-38 0 -77.5 -38.5t-68.5 -96.5q45 -8 94 -8t87 16.5t38 43.5t-24.5 55t-48.5 28zM168 682.5q-2 4.5 -2 16.5t15 30.5t33 18.5q14 0 38 -26q6 -7 17.5 -19.5t46.5 -48.5t39.5 -45.5t4.5 -19t-8.5 -18.5t-17.5 -9t-19.5 6.5t-30 22t-31 23t-23.5 16t-19 13t-15.5 11t-13 10.5
t-8.5 9t-6 9.5z" />
    <glyph glyph-name="eacute" unicode="&#xe9;" horiz-adv-x="438" 
d="M459 733.5q13 -18.5 13 -33t-2.5 -21.5t-12 -15t-17.5 -13q-34 -23 -53 -35.5t-32 -22.5t-19 -14q-26 -17 -36.5 -17t-18 8.5t-7.5 22t12 29.5t36.5 39.5t39.5 38t22.5 22.5t17.5 16q18 14 31 14t26 -18.5zM151.5 458q60.5 53 119.5 53t107.5 -56t48.5 -109.5t-58 -87
t-130.5 -33.5t-130.5 16q-14 -44 -14 -78.5t21.5 -53.5t70.5 -19t101.5 17.5t57.5 17.5q26 0 26 -20q0 -27 -60.5 -58.5t-118.5 -31.5q-78 0 -127.5 46.5t-49.5 117.5t38 148.5t98.5 130.5zM130 297q45 -8 94 -8t87 16.5t38 43.5t-24.5 55t-48.5 28q-38 0 -77.5 -38.5
t-68.5 -96.5z" />
    <glyph glyph-name="ecircumflex" unicode="&#xea;" horiz-adv-x="438" 
d="M448.5 596q3.5 -9 3.5 -16.5t-7 -13.5t-20.5 -6t-36.5 19t-36 35t-39 49q-28 -15 -58.5 -38.5t-50 -37.5t-33.5 -14t-23.5 9t-9.5 27t16 35.5t40.5 31.5t40.5 24t26 16t21 12q24 12 33.5 12t18 -5t13.5 -11q8 -10 23.5 -29.5t30 -35.5t20.5 -23.5t15 -19t12.5 -20.5z
M151.5 458q60.5 53 119.5 53t107.5 -56t48.5 -109.5t-58 -87t-130.5 -33.5t-130.5 16q-14 -44 -14 -78.5t21.5 -53.5t70.5 -19t101.5 17.5t57.5 17.5q26 0 26 -20q0 -27 -60.5 -58.5t-118.5 -31.5q-78 0 -127.5 46.5t-49.5 117.5t38 148.5t98.5 130.5zM130 297q45 -8 94 -8
t87 16.5t38 43.5t-24.5 55t-48.5 28q-38 0 -77.5 -38.5t-68.5 -96.5z" />
    <glyph glyph-name="edieresis" unicode="&#xeb;" horiz-adv-x="438" 
d="M151.5 458q60.5 53 119.5 53t107.5 -56t48.5 -109.5t-58 -87t-130.5 -33.5t-130.5 16q-14 -44 -14 -78.5t21.5 -53.5t70.5 -19t101.5 17.5t57.5 17.5q26 0 26 -20q0 -27 -60.5 -58.5t-118.5 -31.5q-78 0 -127.5 46.5t-49.5 117.5t38 148.5t98.5 130.5zM130 297
q45 -8 94 -8t87 16.5t38 43.5t-24.5 55t-48.5 28q-38 0 -77.5 -38.5t-68.5 -96.5zM253 579q-22 0 -49 26t-27 45.5t14.5 36.5t30.5 17t36.5 -39t20.5 -54t-8.5 -23.5t-17.5 -8.5zM404 579q-23 0 -50 26t-27 45t14.5 36.5t30.5 17.5t37 -39t21 -54t-8.5 -23.5t-17.5 -8.5z
" />
    <glyph glyph-name="igrave" unicode="&#xec;" horiz-adv-x="238" 
d="M69.5 683q-1.5 4 -1.5 16t14.5 30.5t32.5 18.5q14 0 38 -26q6 -7 17.5 -19.5t46.5 -48.5t39.5 -45.5t4.5 -19t-8.5 -18.5t-17.5 -9t-19.5 6.5t-30 22t-30 23t-23.5 16.5t-19 13t-15 10.5t-13.5 10.5t-9 9.5t-6 9.5zM198 488q17 -23 17 -44q0 -55 -102 -378
q-17 -50 -44 -50q-14 0 -23.5 11.5t-9.5 26.5t10 55.5t26 99t38.5 157.5t30.5 122t24 23t33 -23z" />
    <glyph glyph-name="iacute" unicode="&#xed;" horiz-adv-x="238" 
d="M198 488q17 -23 17 -44q0 -55 -102 -378q-17 -50 -44 -50q-14 0 -23.5 11.5t-9.5 26.5t10 55.5t26 99t38.5 157.5t30.5 122t24 23t33 -23zM182.5 570.5q-7.5 8.5 -7.5 22.5t12.5 30t36.5 39.5t38.5 37.5t22.5 22t17 16q17 14 31 14t27 -18.5t13 -33t-2.5 -21.5t-12 -15
t-16.5 -13q-35 -23 -54 -35.5t-32 -22.5t-19 -14q-26 -17 -36.5 -17t-18 8.5z" />
    <glyph glyph-name="icircumflex" unicode="&#xee;" horiz-adv-x="238" 
d="M198 488q17 -23 17 -44q0 -55 -102 -378q-17 -50 -44 -50q-14 0 -23.5 11.5t-9.5 26.5t10 55.5t26 99t38.5 157.5t30.5 122t24 23t33 -23zM202.5 737q8.5 3 15.5 3t15.5 -5t13.5 -11t16.5 -20.5t17.5 -21.5t20.5 -23t20.5 -23.5t15 -19.5q16 -20 16 -32t-7.5 -18
t-20.5 -6t-36 19t-36 35t-39 49q-28 -14 -58.5 -38t-50.5 -38t-33.5 -14t-23 9t-9.5 27q0 36 69 75q11 6 27 16t26 16t21.5 12t20 9z" />
    <glyph glyph-name="idieresis" unicode="&#xef;" horiz-adv-x="238" 
d="M198 488q17 -23 17 -44q0 -55 -102 -378q-17 -50 -44 -50q-14 0 -23.5 11.5t-9.5 26.5t10 55.5t26 99t38.5 157.5t30.5 122t24 23t33 -23zM273 704q16 0 37 -39t21 -54t-9 -23.5t-18 -8.5q-22 0 -49 26t-27 45t14.5 36.5t30.5 17.5zM122 704q16 0 37 -39t21 -54
t-8.5 -23.5t-17.5 -8.5q-23 0 -49.5 26t-26.5 45.5t14 36.5t30 17z" />
    <glyph glyph-name="eth" unicode="&#xf0;" horiz-adv-x="452" 
d="M281 591q-36 52 -67 52q-8 0 -24.5 -7.5t-25.5 -7.5q-18 0 -18 22.5t25 42.5t52 20q74 0 135 -92q77 30 88 30q23 0 23 -16q0 -19 -85 -59q39 -83 39 -177t-35.5 -182.5t-98 -145t-134.5 -56.5q-51 0 -87.5 45t-36.5 117q0 117 67.5 203.5t158.5 86.5q38 0 75 -35
q-4 60 -25 111q-85 -32 -101 -32q-32 0 -32 18q0 15 23.5 27.5t51.5 22.5t32 12zM162 86q54 0 109 90.5t62 188.5q-30 37 -59 37q-55 0 -105 -67t-50 -166q0 -31 12.5 -57t30.5 -26z" />
    <glyph glyph-name="ntilde" unicode="&#xf1;" horiz-adv-x="532" 
d="M284.5 431q61.5 80 100 80t73 -41t34.5 -87q0 -67 -33 -176q-62 -192 -108 -192q-23 0 -23 30q0 24 22 87q59 167 59 230q0 21 -9.5 36t-18 15t-16.5 -3.5t-17 -12t-17.5 -18t-19.5 -24.5t-20 -28t-22.5 -34t-23 -36.5t-25 -40t-26 -40.5t-27.5 -44t-28.5 -45t-24.5 -35
q-26 -37 -39.5 -37t-33 22.5t-19.5 39.5q0 4 18.5 62t26.5 88q26 97 30 215q3 73 21 73q22 0 43.5 -23t21.5 -50.5t-16.5 -106t-38.5 -146.5q95 162 156.5 242zM188 566q-33 0 -33 33.5t39 74t79 40.5q24 0 42.5 -12t27.5 -26q25 -41 43 -44q17 3 38.5 36.5t40.5 33.5
q25 0 25 -34.5t-32 -71.5t-69 -37q-54 0 -112 88q-19 -9 -34.5 -30t-27.5 -36t-27 -15z" />
    <glyph glyph-name="ograve" unicode="&#xf2;" horiz-adv-x="452" 
d="M181.5 683q-1.5 4 -1.5 16t15 30.5t28.5 18.5t22 -6.5t28 -28t55 -58.5t40 -46.5t4.5 -19t-8.5 -18.5t-17.5 -9t-19 6.5t-29.5 21.5t-30.5 23t-24 17t-19 13t-15 10.5t-13.5 10.5t-9 9.5t-6 9.5zM333 341q0 34 -11 64.5t-32 44.5q-69 -19 -118.5 -106.5t-49.5 -164.5
t38 -96q72 14 122.5 98.5t50.5 159.5zM161.5 460.5q56.5 50.5 116 50.5t99.5 -50.5t40 -123t-35 -148t-96.5 -125t-130.5 -49.5q-51 0 -85 47t-34 119.5t34.5 150.5t91 128.5z" />
    <glyph glyph-name="oacute" unicode="&#xf3;" horiz-adv-x="452" 
d="M333 341q0 34 -11 64.5t-32 44.5q-69 -19 -118.5 -106.5t-49.5 -164.5t38 -96q72 14 122.5 98.5t50.5 159.5zM161.5 460.5q56.5 50.5 116 50.5t99.5 -50.5t40 -123t-35 -148t-96.5 -125t-130.5 -49.5q-51 0 -85 47t-34 119.5t34.5 150.5t91 128.5zM295.5 570.5
q-7.5 8.5 -7.5 22t12.5 29.5t36.5 39.5t39 38t22.5 22.5t17.5 16q18 14 31 14t26 -18.5t13 -33t-2.5 -21.5t-12 -15t-17.5 -13q-34 -23 -53 -35.5t-32 -22.5t-19 -14q-26 -17 -36.5 -17t-18 8.5z" />
    <glyph glyph-name="ocircumflex" unicode="&#xf4;" horiz-adv-x="452" 
d="M333 341q0 34 -11 64.5t-32 44.5q-69 -19 -118.5 -106.5t-49.5 -164.5t38 -96q72 14 122.5 98.5t50.5 159.5zM161.5 460.5q56.5 50.5 116 50.5t99.5 -50.5t40 -123t-35 -148t-96.5 -125t-130.5 -49.5q-51 0 -85 47t-34 119.5t34.5 150.5t91 128.5zM315.5 737
q8.5 3 15.5 3t15.5 -5t13.5 -11t16.5 -20.5t17.5 -21.5t20.5 -23t20.5 -23.5t15 -19.5q16 -20 16 -32t-7.5 -18t-20.5 -6t-36 19t-36 35t-39 49q-28 -14 -58.5 -38t-50.5 -38t-33.5 -14t-23 9t-9.5 27q0 36 69 75q11 6 27 16t26 16t21.5 12t20 9z" />
    <glyph glyph-name="otilde" unicode="&#xf5;" horiz-adv-x="452" 
d="M155 596q0 37 39.5 77.5t79.5 40.5q23 0 41.5 -12t27.5 -26q25 -41 43 -44q17 3 38.5 36.5t40.5 33.5q25 0 25 -34.5t-32 -71.5t-69 -37q-55 0 -111 88q-23 -11 -47.5 -46t-40.5 -35q-35 0 -35 30zM333 341q0 34 -11 64.5t-32 44.5q-69 -19 -118.5 -106.5t-49.5 -164.5
t38 -96q72 14 122.5 98.5t50.5 159.5zM161.5 460.5q56.5 50.5 116 50.5t99.5 -50.5t40 -123t-35 -148t-96.5 -125t-130.5 -49.5q-51 0 -85 47t-34 119.5t34.5 150.5t91 128.5z" />
    <glyph glyph-name="odieresis" unicode="&#xf6;" horiz-adv-x="452" 
d="M333 341q0 34 -11 64.5t-32 44.5q-69 -19 -118.5 -106.5t-49.5 -164.5t38 -96q72 14 122.5 98.5t50.5 159.5zM161.5 460.5q56.5 50.5 116 50.5t99.5 -50.5t40 -123t-35 -148t-96.5 -125t-130.5 -49.5q-51 0 -85 47t-34 119.5t34.5 150.5t91 128.5zM386 704q16 0 37 -39
t21 -54t-8.5 -23.5t-18.5 -8.5q-22 0 -49 26t-27 45t14.5 36.5t30.5 17.5zM235 704q16 0 37 -39t21 -54t-8.5 -23.5t-17.5 -8.5q-22 0 -49 26t-27 45.5t14 36.5t30 17z" />
    <glyph glyph-name="divide" unicode="&#xf7;" horiz-adv-x="600" 
d="M378 445q-25 0 -57 32t-32 54t17.5 43.5t36 21.5t43 -49t24.5 -75q0 -8 -11 -17.5t-21 -9.5zM290 49q-25 0 -57 32t-32 53.5t17.5 43t36 21.5t43 -48.5t24.5 -73.5q0 -8 -11 -18t-21 -10zM606 359q0 -37 -163.5 -58t-340.5 -21q-24 0 -43 20t-19 41t27 21
q168 0 301.5 9.5t169.5 9.5q68 0 68 -22z" />
    <glyph glyph-name="oslash" unicode="&#xf8;" horiz-adv-x="457" 
d="M444 343q0 -117 -86.5 -222.5t-192.5 -105.5q-40 0 -77 34q-33 -34 -48 -34q-20 0 -20 19q0 11 37 58q-21 40 -21 85q0 75 38 152.5t101 129.5t129 52q48 0 84 -34q39 36 63 36t24 -20q0 -15 -36 -56l-12 -14q17 -37 17 -80zM113 167v-5q112 129 161 187.5t67 77.5
q-15 18 -35 23q-72 -8 -132.5 -103.5t-60.5 -179.5zM370 351v9q-166 -186 -236 -262q14 -17 31 -21q53 2 102.5 52t76 112t26.5 110z" />
    <glyph glyph-name="ugrave" unicode="&#xf9;" horiz-adv-x="479" 
d="M392 505q4 6 17.5 6t33 -26t19.5 -50q0 -13 -44 -154t-68 -224q-12 -42 -34 -42q-13 0 -22 11t-9 40t23 105q-42 -68 -91 -112t-89.5 -44t-76.5 38t-36 78q0 95 55.5 237.5t92.5 142.5q17 0 30.5 -16.5t13.5 -31.5t-27 -71q-80 -168 -80 -260q0 -16 10 -26.5t24 -10.5
q38 0 90.5 67t95.5 156t64 165q4 16 8 22zM180.5 683q-1.5 4 -1.5 16t15 30.5t28.5 18.5t22 -6.5t28 -28t55 -58.5t40 -46.5t4.5 -19t-8.5 -18.5t-17.5 -9t-19 6.5t-29.5 21.5t-30.5 23t-24 17t-19 13t-15 10.5t-13.5 10.5t-9 9.5t-6 9.5z" />
    <glyph glyph-name="uacute" unicode="&#xfa;" horiz-adv-x="479" 
d="M472 733.5q13 -18.5 13 -33t-2.5 -21.5t-12 -15t-16.5 -13q-35 -23 -54 -35.5t-32 -22.5t-19 -14q-26 -17 -36.5 -17t-18 8.5t-7.5 22.5t12.5 30t36.5 39.5t38.5 37.5t22.5 22t17 16q17 14 31 14t27 -18.5zM392 505q4 6 17.5 6t33 -26t19.5 -50q0 -13 -44 -154t-68 -224
q-12 -42 -34 -42q-13 0 -22 11t-9 40t23 105q-42 -68 -91 -112t-89.5 -44t-76.5 38t-36 78q0 95 55.5 237.5t92.5 142.5q17 0 30.5 -16.5t13.5 -31.5t-27 -71q-80 -168 -80 -260q0 -16 10 -26.5t24 -10.5q38 0 90.5 67t95.5 156t64 165q4 16 8 22z" />
    <glyph glyph-name="ucircumflex" unicode="&#xfb;" horiz-adv-x="479" 
d="M392 505q4 6 17.5 6t33 -26t19.5 -50q0 -13 -44 -154t-68 -224q-12 -42 -34 -42q-13 0 -22 11t-9 40t23 105q-42 -68 -91 -112t-89.5 -44t-76.5 38t-36 78q0 95 55.5 237.5t92.5 142.5q17 0 30.5 -16.5t13.5 -31.5t-27 -71q-80 -168 -80 -260q0 -16 10 -26.5t24 -10.5
q38 0 90.5 67t95.5 156t64 165q4 16 8 22zM217 587q-20 -14 -33.5 -14t-23 9t-9.5 27q0 36 69 75q11 6 27 16t26 16t21 12q24 12 33.5 12t18 -5t13.5 -11t16.5 -20.5t17.5 -21.5t20.5 -23t20.5 -23.5t15 -19.5q16 -20 16 -32t-7.5 -18t-20.5 -6t-36 19t-36 35t-39 49
q-28 -14 -58.5 -38t-50.5 -38z" />
    <glyph glyph-name="udieresis" unicode="&#xfc;" horiz-adv-x="479" 
d="M392 505q4 6 17.5 6t33 -26t19.5 -50q0 -13 -44 -154t-68 -224q-12 -42 -34 -42q-13 0 -22 11t-9 40t23 105q-42 -68 -91 -112t-89.5 -44t-76.5 38t-36 78q0 95 55.5 237.5t92.5 142.5q17 0 30.5 -16.5t13.5 -31.5t-27 -71q-80 -168 -80 -260q0 -16 10 -26.5t24 -10.5
q38 0 90.5 67t95.5 156t64 165q4 16 8 22zM266 579q-23 0 -49.5 26t-26.5 45.5t14 36.5t30 17t37 -39t21 -54t-8.5 -23.5t-17.5 -8.5zM416 579q-22 0 -49 26t-27 45t14.5 36.5t30.5 17.5t37 -39t21 -54t-8.5 -23.5t-18.5 -8.5z" />
    <glyph glyph-name="yacute" unicode="&#xfd;" horiz-adv-x="469" 
d="M496 733.5q13 -18.5 13 -33t-2.5 -21.5t-12 -15t-16.5 -13q-35 -23 -54 -35.5t-32 -22.5t-19 -14q-26 -17 -36.5 -17t-18 8.5t-7.5 22t12.5 29.5t36.5 39.5t39 38t22.5 22.5t16.5 16q19 14 32 14t26 -18.5zM456.5 487.5q18.5 -23.5 18.5 -52.5q0 -20 -41 -136
t-55.5 -157.5t-39 -110t-47.5 -133.5q-50 -143 -150 -143q-57 0 -109 34.5t-52 71.5q0 14 12.5 31t21.5 17t29 -22q58 -66 99 -66q31 0 56 54.5t47.5 123t25 75.5t6 18t6.5 20q-71 -97 -140 -97q-42 0 -77.5 39t-35.5 92t26 143t61 156t57 66q18 0 33.5 -16.5t15.5 -33.5
t-26 -71q-81 -166 -81 -258q0 -16 10 -26.5t24 -10.5q36 0 86 64t92 152q35 74 73 189q4 11 20 11t34.5 -23.5z" />
    <glyph glyph-name="thorn" unicode="&#xfe;" horiz-adv-x="526" 
d="M218 474q64 29 116.5 29t109 -59t56.5 -122t-51 -119t-119 -85.5t-117.5 -29.5t-77.5 22q-79 -310 -92.5 -310t-32.5 21.5t-19 41.5t43 191q127 511 127 662q0 16 4.5 23t19.5 7t37.5 -29.5t22.5 -66t-27 -176.5zM193 162q74 0 150.5 50.5t76.5 109.5q0 41 -28 68.5
t-74 27.5t-120 -45q-13 -65 -48 -201q30 -10 43 -10z" />
    <glyph glyph-name="ydieresis" unicode="&#xff;" horiz-adv-x="469" 
d="M456.5 487.5q18.5 -23.5 18.5 -52.5q0 -20 -41 -136t-55.5 -157.5t-39 -110t-47.5 -133.5q-50 -143 -150 -143q-57 0 -109 34.5t-52 71.5q0 14 12.5 31t21.5 17t29 -22q58 -66 99 -66q31 0 56 54.5t47.5 123t25 75.5t6 18t6.5 20q-71 -97 -140 -97q-42 0 -77.5 39
t-35.5 92t26 143t61 156t57 66q18 0 33.5 -16.5t15.5 -33.5t-26 -71q-81 -166 -81 -258q0 -16 10 -26.5t24 -10.5q36 0 86 64t92 152q35 74 73 189q4 11 20 11t34.5 -23.5zM290 578q-22 0 -49 26.5t-27 45.5t14.5 36.5t30 17.5t36.5 -39t21 -54t-8.5 -24t-17.5 -9zM440 578
q-22 0 -49 26.5t-27 45.5t15 36.5t30.5 17.5t36.5 -39t21 -54t-8.5 -24t-18.5 -9z" />
    <glyph glyph-name="Amacron" unicode="&#x100;" horiz-adv-x="608" 
d="M564 363q0 -19 -88 -44q8 -104 8 -177q0 -126 -33 -126q-18 0 -27.5 21t-14.5 73q-15 179 -16 188q-146 -38 -193 -52q-88 -230 -104.5 -230t-35 19.5t-18.5 41.5q0 7 58 143q-3 -1 -15 -1t-27.5 13t-15.5 32.5t99 51.5q16 36 32.5 80.5t59 145.5t52 125t37 43.5
t53.5 19.5q31 0 55.5 -99t39.5 -245q28 3 48 3q46 0 46 -26zM236 342q75 20 150 32q-18 171 -35 256q-51 -118 -115 -288zM255 799q-19 0 -36.5 17.5t-17.5 31.5q0 28 176 28q95 0 132.5 -4.5t37.5 -19t-30 -21t-144 -19.5t-118 -13z" />
    <glyph glyph-name="amacron" unicode="&#x101;" horiz-adv-x="472" 
d="M373 655q95 0 132.5 -4.5t37.5 -19t-29.5 -21t-144 -19.5t-117.5 -13q-19 0 -36.5 17t-17.5 32q0 28 175 28zM300 511q45 0 83 -45.5t38 -82t-25 -74.5q12 -15 12 -26q0 -28 -12.5 -96t-15 -89t-4.5 -33.5t-4 -24.5q-5 -25 -19 -25q-36 0 -43 112q-90 -112 -165 -112
q-46 0 -90.5 39.5t-44.5 81.5q0 60 44 148.5t114 157.5t132 69zM346 335q0 93 -36 93q-39 0 -91.5 -55.5t-88.5 -125.5t-36 -111q0 -17 14 -27.5t33 -10.5q47 0 106 63.5t82 154.5q3 15 17 18v1z" />
    <glyph glyph-name="Abreve" unicode="&#x102;" horiz-adv-x="608" 
d="M564 363q0 -19 -88 -44q8 -104 8 -177q0 -126 -33 -126q-18 0 -27.5 21t-14.5 73q-15 179 -16 188q-146 -38 -193 -52q-88 -230 -104.5 -230t-35 19.5t-18.5 41.5q0 7 58 143q-3 -1 -15 -1t-27.5 13t-15.5 32.5t99 51.5q16 36 32.5 80.5t59 145.5t52 125t37 43.5
t53.5 19.5q31 0 55.5 -99t39.5 -245q28 3 48 3q46 0 46 -26zM236 342q75 20 150 32q-18 171 -35 256q-51 -118 -115 -288zM501.5 824.5q-50.5 -36.5 -101 -36.5t-91.5 36t-41 73q0 25 14.5 40t27 15t20.5 -15t15 -33t24 -33t40.5 -15t42.5 9.5t30 20.5q29 31 47 31
q23 0 23 -23q0 -33 -50.5 -69.5z" />
    <glyph glyph-name="abreve" unicode="&#x103;" horiz-adv-x="472" 
d="M526 696q23 0 23 -23q0 -33 -51 -69.5t-101.5 -36.5t-91 35.5t-40.5 73.5q0 25 14.5 40t30.5 15q11 0 20 -24t27 -48t48.5 -24t52.5 15.5t38 30.5t30 15zM300 511q45 0 83 -45.5t38 -82t-25 -74.5q12 -15 12 -26q0 -28 -12.5 -96t-15 -89t-4.5 -33.5t-4 -24.5
q-5 -25 -19 -25q-36 0 -43 112q-90 -112 -165 -112q-46 0 -90.5 39.5t-44.5 81.5q0 60 44 148.5t114 157.5t132 69zM346 335q0 93 -36 93q-39 0 -91.5 -55.5t-88.5 -125.5t-36 -111q0 -17 14 -27.5t33 -10.5q47 0 106 63.5t82 154.5q3 15 17 18v1z" />
    <glyph glyph-name="Aogonek" unicode="&#x104;" horiz-adv-x="608" 
d="M564 363q0 -19 -88 -44q8 -104 8 -182.5t-13 -105.5v-5q0 -22 -47.5 -61.5t-47.5 -61.5q0 -19 39 -19q12 0 28 6t25 6t18 -9t9 -20q0 -24 -38.5 -37t-74 -13t-61 19.5t-25.5 52t42.5 88t80.5 72.5q-5 18 -10 61q-15 179 -16 188q-146 -38 -193 -52q-88 -230 -104.5 -230
t-35 19.5t-18.5 41.5q0 7 58 143q-3 -1 -15 -1t-27.5 13t-15.5 32.5t99 51.5q16 36 32.5 80.5t59 145.5t52 125t37 43.5t53.5 19.5q31 0 55.5 -99t39.5 -245q28 3 48 3q46 0 46 -26zM236 342q75 20 150 32q-18 171 -35 256q-51 -118 -115 -288z" />
    <glyph glyph-name="aogonek" unicode="&#x105;" horiz-adv-x="472" 
d="M275 -86q0 -19 39 -19q12 0 28 6t25 6t18 -8.5t9 -19.5q0 -25 -38 -37.5t-74 -12.5t-61.5 19t-25.5 45q0 40 43 95t82 72q-9 33 -10 67q-90 -112 -165 -112q-46 0 -90.5 39.5t-44.5 81.5q0 60 44 148.5t114 157.5t132 69q45 0 83 -45.5t38 -82t-25 -74.5q12 -15 12 -26
q0 -28 -12.5 -96.5t-15.5 -90.5q-5 -47 -10 -63q-3 -21 -49 -59t-46 -60zM346 335q0 93 -36 93q-39 0 -91.5 -55.5t-88.5 -125.5t-36 -111q0 -17 14 -27.5t33 -10.5q47 0 106 63.5t82 154.5q3 15 17 18v1z" />
    <glyph glyph-name="Cacute" unicode="&#x106;" horiz-adv-x="685" 
d="M490 792q-8 8 -8 21.5t12 29t37 40t39.5 38.5t22.5 22t17 15q17 15 31 15t27 -18.5t13 -33t-2.5 -21.5t-12 -15t-16.5 -13q-35 -23 -54.5 -35.5t-32.5 -22t-19 -14t-14 -8.5q-12 -8 -22 -8t-18 8zM471 718q25 0 52.5 -33t27.5 -54.5t-7 -21.5t-28 7.5t-39 7.5
q-52 0 -127.5 -65t-133 -164.5t-57.5 -183.5q0 -46 28 -71.5t74.5 -25.5t95.5 13.5t79 30.5q81 43 89 43q17 0 17 -22.5t-46 -60t-114 -67.5t-122 -30q-70 0 -132 60.5t-62 133.5q0 94 61.5 212.5t158 204.5t185.5 86z" />
    <glyph glyph-name="cacute" unicode="&#x107;" horiz-adv-x="447" 
d="M86.5 60.5q-51.5 45.5 -51.5 108t42 144.5t109 140t130 58q41 0 71.5 -36.5t30.5 -60.5t-16 -24q-12 0 -36 18t-43 18q-54 0 -126 -95t-72 -166q0 -31 19.5 -49t63 -18t80 10.5t56.5 21t31 10.5q19 0 19 -19q0 -29 -69.5 -67.5t-128 -38.5t-110 45.5zM302.5 570.5
q-7.5 8.5 -7.5 22.5t12.5 30t36.5 39.5t38.5 37.5t22.5 22t17 16q17 14 31 14t27 -18.5t13 -33t-2.5 -21.5t-12 -15t-16.5 -13q-35 -23 -54 -35.5t-32 -22.5t-19 -14q-25 -17 -36 -17t-18.5 8.5z" />
    <glyph glyph-name="Ccircumflex" unicode="&#x108;" horiz-adv-x="631" 
d="M267.5 902q8.5 3 15.5 3t15.5 -5t13.5 -11l24 -30t30 -35t20.5 -23.5t15.5 -19.5q16 -20 16 -32q0 -24 -26 -24q-16 0 -39 19t-36 35t-39 49q-28 -15 -58.5 -38.5t-50 -37.5t-33.5 -14t-23.5 9t-9.5 27t16 35.5t40.5 31.5t40.5 24t26 16t21.5 12t20 9zM470 718
q26 0 53.5 -33t27.5 -54.5t-7.5 -21.5t-28.5 7.5t-38 7.5q-39 0 -94.5 -40t-105 -99t-84.5 -134.5t-35 -130.5t28.5 -80.5t74.5 -25.5t95 13.5t80 30.5q80 43 88 43q17 0 17 -22.5t-46 -60t-114 -67.5t-122 -30q-70 0 -132 60.5t-62 133.5q0 94 61.5 212.5t158 204.5
t185.5 86z" />
    <glyph glyph-name="ccircumflex" unicode="&#x109;" horiz-adv-x="479" 
d="M165.5 737q8.5 3 15.5 3t15.5 -5t13.5 -11l24 -30t30 -35t20.5 -23.5t15.5 -19.5q16 -20 16 -32q0 -24 -26 -24q-16 0 -39 19t-36 35t-39 49q-28 -15 -58.5 -38.5t-50 -37.5t-33.5 -14t-23.5 9t-9.5 27t16 35.5t40.5 31.5t40.5 24t26 16t21.5 12t20 9zM83 60.5
q-51 45.5 -51 108t42 144.5t108.5 140t129.5 58q41 0 72 -37t31 -65q0 -8 -5 -13.5t-14.5 -5.5t-33.5 18t-43 18q-54 0 -126 -95t-72 -166q0 -31 19.5 -49t63 -18t80 10.5t56.5 21t31 10.5q19 0 19 -19q0 -29 -69.5 -67.5t-128 -38.5t-109.5 45.5z" />
    <glyph glyph-name="Cdotaccent" unicode="&#x10a;" horiz-adv-x="631" 
d="M347 828q-22 0 -50 26.5t-28 46.5t15.5 39t32 19t37 -42.5t20.5 -64.5q0 -7 -9 -15.5t-18 -8.5zM470 718q26 0 53.5 -33t27.5 -54.5t-7.5 -21.5t-28.5 7.5t-38 7.5q-39 0 -94.5 -40t-105 -99t-84.5 -134.5t-35 -130.5t28.5 -80.5t74.5 -25.5t95 13.5t80 30.5q80 43 88 43
q17 0 17 -22.5t-46 -60t-114 -67.5t-122 -30q-70 0 -132 60.5t-62 133.5q0 94 61.5 212.5t158 204.5t185.5 86z" />
    <glyph glyph-name="cdotaccent" unicode="&#x10b;" horiz-adv-x="479" 
d="M251 663q-22 0 -50 26.5t-28 46.5t15.5 39t32 19t37 -42.5t20.5 -64.5q0 -7 -9 -15.5t-18 -8.5zM83 60.5q-51 45.5 -51 108t42 144.5t108.5 140t129.5 58q41 0 72 -37t31 -65q0 -8 -5 -13.5t-14.5 -5.5t-33.5 18t-43 18q-54 0 -126 -95t-72 -166q0 -31 19.5 -49t63 -18
t80 10.5t56.5 21t31 10.5q19 0 19 -19q0 -29 -69.5 -67.5t-128 -38.5t-109.5 45.5z" />
    <glyph glyph-name="Ccaron" unicode="&#x10c;" horiz-adv-x="692" 
d="M646 943q29 0 29 -26q0 -14 -11 -25t-40 -29.5t-41 -27.5t-33 -27q-40 -34 -53 -34q-20 0 -85 64.5t-65 101.5q0 16 8.5 26.5t23 10.5t28.5 -17t39 -49.5t57 -57.5q50 46 88.5 68t54.5 22zM471 718q25 0 52.5 -33t27.5 -54.5t-7 -21.5t-28 7.5t-39 7.5q-52 0 -127.5 -65
t-133 -164.5t-57.5 -183.5q0 -46 28 -71.5t74.5 -25.5t95.5 13.5t79 30.5q81 43 89 43q17 0 17 -22.5t-46 -60t-114 -67.5t-122 -30q-70 0 -132 60.5t-62 133.5q0 94 61.5 212.5t158 204.5t185.5 86z" />
    <glyph glyph-name="ccaron" unicode="&#x10d;" horiz-adv-x="447" 
d="M86.5 60.5q-51.5 45.5 -51.5 108t42 144.5t109 140t130 58q41 0 71.5 -36.5t30.5 -60.5t-16 -24q-12 0 -36 18t-43 18q-54 0 -126 -95t-72 -166q0 -31 19.5 -49t63 -18t80 10.5t56.5 21t31 10.5q19 0 19 -19q0 -29 -69.5 -67.5t-128 -38.5t-110 45.5zM458 722
q30 0 30 -26q0 -14 -11.5 -25.5t-40.5 -29.5t-41 -27t-32 -26.5t-32 -26t-22 -8.5q-20 0 -85 64.5t-65 101.5q0 16 9 26.5t23 10.5t28 -17t39 -49.5t57 -57.5q50 46 88.5 68t54.5 22z" />
    <glyph glyph-name="Dcaron" unicode="&#x10e;" horiz-adv-x="645" 
d="M604 889q29 0 29 -25q0 -14 -11.5 -25.5t-40.5 -29.5t-41 -27t-32 -26.5t-32 -26t-22 -8.5q-20 0 -85 64.5t-65 101.5q0 15 9 25.5t23.5 10.5t28.5 -17t39.5 -49.5t56.5 -57.5q50 46 88.5 68t54.5 22zM151 721q94 0 200.5 -49t183.5 -135.5t77 -179.5q0 -61 -84.5 -143.5
t-195.5 -141t-184 -58.5q-19 0 -43.5 32.5t-24.5 66t58 241.5t63 274q-32 13 -51 34t-19 40t20 19zM520 368q0 62 -74 134.5t-172 104.5q5 -18 5 -42.5t-17.5 -91.5t-63.5 -224q-19 -66 -31 -145q69 9 154.5 60.5t142 110.5t56.5 93z" />
    <glyph glyph-name="dcaron" unicode="&#x10f;" horiz-adv-x="732" 
d="M622 762q17 14 40 14t46.5 -21.5t23.5 -51.5q0 -51 -50.5 -94.5t-89.5 -43.5q-22 0 -22 17q0 14 40.5 46t46.5 56q-7 11 -29.5 22t-22.5 26.5t17 29.5zM485 791q17 0 40 -29.5t23 -55.5t-24.5 -148t-57.5 -251q-72 -292 -95 -292q-14 0 -30.5 17t-16.5 33.5t8 51.5
q-98 -102 -173 -102q-44 0 -79 40t-35 83q0 62 33.5 147.5t96.5 155.5t133 70t100 -85q51 220 56 335q0 30 21 30zM375 300q0 54 -18.5 91t-44.5 37q-43 0 -87.5 -53t-71 -121.5t-26.5 -118.5q0 -18 13 -29t31 -11q38 0 105 56t97 132l2 9v8z" />
    <glyph glyph-name="Dcroat" unicode="&#x110;" horiz-adv-x="625" 
d="M153.5 662q-19.5 21 -19.5 40t20 19q70 0 151 -30t150 -78.5t115 -117t46 -134t-84.5 -148t-195.5 -141t-185 -58.5q-19 0 -43.5 32.5t-24.5 63.5t36 164q-50 -6 -64.5 -6t-30.5 11t-16 31q0 31 108 42l26 3q58 214 62 273q-31 13 -50.5 34zM524 368q0 62 -74.5 134.5
t-172.5 104.5q5 -18 5 -34q0 -45 -46 -206q40 4 43 4q34 0 56.5 -11.5t22.5 -31.5q0 -14 -34 -22q-41 -11 -111 -18l-11 -39q-16 -49 -32 -145q69 9 154.5 60.5t142.5 110.5t57 93z" />
    <glyph glyph-name="dcroat" unicode="&#x111;" horiz-adv-x="508" 
d="M371 15q-14 0 -30.5 17t-16.5 33t8 51q-101 -101 -173 -101q-44 0 -79 40t-35 83q0 62 33.5 147.5t96.5 155.5t133 70t100 -84q21 89 34 159q-23 -4 -41 -3.5t-35.5 17.5t-17.5 31q0 23 106 27q9 65 9.5 99t21.5 34q17 0 40 -29.5t23 -57.5q0 -12 -6 -45q85 0 118 -4.5
t33 -19t-30 -21t-125 -16.5l-7 -1q-22 -120 -65 -290q-72 -292 -95 -292zM375 300q0 54 -18.5 91t-44.5 37q-43 0 -87.5 -53t-71 -121.5t-26.5 -118.5q0 -18 13 -29t31 -11q37 0 104 55.5t97 130.5l3 12v7z" />
    <glyph glyph-name="Emacron" unicode="&#x112;" horiz-adv-x="585" 
d="M208 333q-54 -171 -54 -207q0 -12 7.5 -19.5t19.5 -7.5q115 0 254 37q45 12 52 12q15 0 15 -21q0 -36 -110.5 -74t-213.5 -38q-46 0 -80.5 27t-34.5 68t29.5 140t59.5 211t30 189q0 11 4 23q17 37 218 37t201 -29q0 -20 -43 -27q-36 -7 -95.5 -12.5t-83.5 -8t-116 -18.5
v-3q0 -68 -37 -205q6 -1 40.5 -1t92.5 5t87.5 5t29.5 -14q0 -35 -82 -52t-190 -17zM293 799q-19 0 -36.5 17.5t-17.5 31.5q0 28 175 28q95 0 132.5 -4.5t37.5 -19t-30 -21t-144 -19.5t-117 -13z" />
    <glyph glyph-name="emacron" unicode="&#x113;" horiz-adv-x="438" 
d="M297 655q95 0 132.5 -4.5t37.5 -19t-30 -21t-144 -19.5t-117 -13q-20 0 -37.5 17t-17.5 32q0 28 176 28zM151.5 458q60.5 53 119.5 53t107.5 -56t48.5 -109.5t-58 -87t-130.5 -33.5t-130.5 16q-14 -44 -14 -78.5t21.5 -53.5t70.5 -19t101.5 17.5t57.5 17.5q26 0 26 -20
q0 -27 -60.5 -58.5t-118.5 -31.5q-78 0 -127.5 46.5t-49.5 117.5t38 148.5t98.5 130.5zM130 297q45 -8 94 -8t87 16.5t38 43.5t-24.5 55t-48.5 28q-38 0 -77.5 -38.5t-68.5 -96.5z" />
    <glyph glyph-name="Ebreve" unicode="&#x114;" horiz-adv-x="556" 
d="M117 815q17 -15 43.5 -15t49 15.5t38.5 30.5t29 15q23 0 23 -23q0 -33 -50.5 -69.5t-101 -36.5t-91.5 35.5t-41 73.5q0 25 14.5 40t27 15t20.5 -15t15 -33t24 -33zM208 333q-54 -171 -54 -207q0 -12 7.5 -19.5t19.5 -7.5q115 0 254 37q45 12 52 12q15 0 15 -21
q0 -36 -110.5 -74t-213.5 -38q-46 0 -80.5 27t-34.5 68t29.5 140t59.5 211t30 189q0 11 4 23q17 37 218 37t201 -29q0 -20 -43 -27q-36 -7 -95.5 -12.5t-83.5 -8t-116 -18.5v-3q0 -68 -37 -205q6 -1 40.5 -1t92.5 5t87.5 5t29.5 -14q0 -35 -82 -52t-190 -17z" />
    <glyph glyph-name="ebreve" unicode="&#x115;" horiz-adv-x="563" 
d="M110 650q17 -15 43.5 -15t49 15.5t38.5 30.5t29 15q23 0 23 -23q0 -33 -50.5 -69.5t-101 -36.5t-91.5 35.5t-41 73.5q0 25 14.5 40t27 15t20.5 -15t15 -33t24 -33zM372.5 258.5q-57.5 -33.5 -130 -33.5t-131.5 16q-14 -44 -14 -78.5t21.5 -53.5t71 -19t102 17.5
t57.5 17.5q26 0 26 -20q0 -27 -61 -58.5t-119 -31.5q-78 0 -127 46.5t-49 117.5t38 148.5t98 130.5t119 53t107.5 -56t48.5 -109.5t-57.5 -87zM279 432q-37 0 -77 -38.5t-68 -95.5q40 -9 91 -9t89 16.5t38 43.5t-24.5 55t-48.5 28z" />
    <glyph glyph-name="Edotaccent" unicode="&#x116;" horiz-adv-x="585" 
d="M208 333q-54 -171 -54 -207q0 -12 7.5 -19.5t19.5 -7.5q115 0 254 37q45 12 52 12q15 0 15 -21q0 -36 -110.5 -74t-213.5 -38q-46 0 -80.5 27t-34.5 68t29.5 140t59.5 211t30 189q0 11 4 23q17 37 218 37t201 -29q0 -20 -43 -27q-36 -7 -95.5 -12.5t-83.5 -8t-116 -18.5
v-3q0 -68 -37 -205q6 -1 40.5 -1t92.5 5t87.5 5t29.5 -14q0 -35 -82 -52t-190 -17zM441 788q-21 0 -49.5 27t-28.5 46.5t15.5 38.5t32 19t37.5 -42.5t21 -64.5q0 -7 -9.5 -15.5t-18.5 -8.5z" />
    <glyph glyph-name="edotaccent" unicode="&#x117;" horiz-adv-x="438" 
d="M369 258.5q-58 -33.5 -130.5 -33.5t-130.5 16q-14 -44 -14 -78.5t21.5 -53.5t70.5 -19t101.5 17.5t57.5 17.5q26 0 26 -20q0 -27 -60.5 -58.5t-118.5 -31.5q-78 0 -127.5 46.5t-49.5 117.5t38 148.5t98.5 130.5t119.5 53t107.5 -56t48.5 -109.5t-58 -87zM276 432
q-38 0 -77.5 -38.5t-68.5 -96.5q45 -8 94 -8t87 16.5t38 43.5t-24.5 55t-48.5 28zM323 567q-21 0 -49.5 27t-28.5 46.5t16 38.5t32 19t37 -42.5t21 -64.5q0 -7 -9.5 -15.5t-18.5 -8.5z" />
    <glyph glyph-name="Eogonek" unicode="&#x118;" horiz-adv-x="585" 
d="M208 333q-54 -171 -54 -207q0 -12 7.5 -19.5t19.5 -7.5q115 0 254 37q45 12 50 12t9 -2q26 -4 26 -26t-47.5 -61.5t-47.5 -61.5q0 -19 39 -19q12 0 28 5.5t25 5.5t18 -8.5t9 -19.5q0 -24 -39 -37t-74 -13t-61 19.5t-26 47t26 68.5q-103 -31 -192 -31q-46 0 -80.5 27
t-34.5 68t29.5 140t59.5 211t30 189q0 11 4 23q17 37 218 37t201 -29q0 -20 -43 -27q-36 -7 -95.5 -12.5t-83.5 -8t-116 -18.5v-3q0 -68 -37 -205q6 -1 40.5 -1t92.5 5t87.5 5t29.5 -14q0 -35 -82 -52t-190 -17z" />
    <glyph glyph-name="eogonek" unicode="&#x119;" horiz-adv-x="438" 
d="M345 125h4q12 0 22 -7.5t10 -19.5q0 -23 -47 -62.5t-47 -61.5q0 -19 38 -19q12 0 28 6t25 6t18 -9t9 -20q0 -24 -38 -36.5t-74 -12.5t-61.5 19t-25.5 45.5t23 64.5q-19 -3 -37 -3q-78 0 -127.5 46.5t-49.5 117.5t38 148.5t98.5 130.5t119.5 53t107.5 -56t48.5 -109.5
t-58 -87t-130.5 -33.5t-130.5 16q-14 -44 -14 -78.5t21.5 -53.5t70.5 -19t101.5 17.5t57.5 17.5zM276 432q-38 0 -77.5 -38.5t-68.5 -96.5q45 -8 94 -8t87 16.5t38 43.5t-24.5 55t-48.5 28z" />
    <glyph glyph-name="Ecaron" unicode="&#x11a;" horiz-adv-x="585" 
d="M208 333q-54 -171 -54 -207q0 -12 7.5 -19.5t19.5 -7.5q115 0 254 37q45 12 52 12q15 0 15 -21q0 -36 -110.5 -74t-213.5 -38q-46 0 -80.5 27t-34.5 68t29.5 140t59.5 211t30 189q0 11 4 23q17 37 218 37t201 -29q0 -20 -43 -27q-36 -7 -95.5 -12.5t-83.5 -8t-116 -18.5
v-3q0 -68 -37 -205q6 -1 40.5 -1t92.5 5t87.5 5t29.5 -14q0 -35 -82 -52t-190 -17zM406 774q-20 0 -85 64.5t-65 101.5q0 16 8.5 26.5t23 10.5t28.5 -17t39 -49.5t57 -57.5q50 46 88.5 68t54.5 22q29 0 29 -26q0 -14 -11 -25t-40 -29.5t-41 -27.5t-32 -26.5t-32 -26
t-22 -8.5z" />
    <glyph glyph-name="ecaron" unicode="&#x11b;" horiz-adv-x="438" 
d="M438 722q29 0 29 -26q0 -14 -11.5 -25.5t-40.5 -29.5t-41 -27t-32 -26.5t-32 -26t-22 -8.5q-20 0 -85 64.5t-65 101.5q0 16 9 26.5t23 10.5t28.5 -17t39.5 -49.5t57 -57.5q50 46 88.5 68t54.5 22zM151.5 458q60.5 53 119.5 53t107.5 -56t48.5 -109.5t-58 -87
t-130.5 -33.5t-130.5 16q-14 -44 -14 -78.5t21.5 -53.5t70.5 -19t101.5 17.5t57.5 17.5q26 0 26 -20q0 -27 -60.5 -58.5t-118.5 -31.5q-78 0 -127.5 46.5t-49.5 117.5t38 148.5t98.5 130.5zM130 297q45 -8 94 -8t87 16.5t38 43.5t-24.5 55t-48.5 28q-38 0 -77.5 -38.5
t-68.5 -96.5z" />
    <glyph glyph-name="Gcircumflex" unicode="&#x11c;" horiz-adv-x="728" 
d="M295.5 902q8.5 3 15.5 3t15.5 -5t13.5 -11l24 -30t30 -35t20.5 -23.5t15.5 -19.5q16 -20 16 -32q0 -24 -26 -24q-16 0 -39 19t-36 35t-39 49q-28 -15 -58.5 -38.5t-50 -37.5t-33.5 -14t-23.5 9t-9.5 27t16 35.5t40.5 31.5t40.5 24t26 16t21.5 12t20 9zM461 624
q-63 0 -139.5 -69t-130.5 -172.5t-54 -192.5q0 -36 23 -61.5t54 -25.5q48 0 112.5 52.5t119.5 135.5q-56 -15 -83 -15t-46 14.5t-19 27.5q0 16 43 25.5t108 9.5q36 0 58.5 -30.5t22.5 -71t-50 -190.5t-75.5 -150t-25.5 29q0 28 14.5 76t30.5 98.5t26 82.5
q-49 -83 -111 -131.5t-120.5 -48.5t-115.5 54.5t-57 119.5q0 101 64 225t161 212.5t182 88.5q28 0 55 -33.5t27 -54t-11 -20.5q-3 0 -22 7.5t-41 7.5z" />
    <glyph glyph-name="gcircumflex" unicode="&#x11d;" horiz-adv-x="615" 
d="M179.5 737q8.5 3 15.5 3t15.5 -5t13.5 -11l24 -30t30 -35t20.5 -23.5t15.5 -19.5q16 -20 16 -32q0 -24 -26 -24q-16 0 -39 19t-36 35t-39 49q-28 -15 -58.5 -38.5t-50 -37.5t-33.5 -14t-23.5 9t-9.5 27t16 35.5t40.5 31.5t40.5 24t26 16t21.5 12t20 9zM427 285
q0 -40 -35 -91q-27 -61 -58 -175.5t-52 -163.5q-42 -102 -129 -102q-71 0 -119.5 38.5t-48.5 76.5q0 16 9.5 32t20 16t23.5 -15t24.5 -32.5t35 -32.5t45.5 -15t33 6.5t21 21t17 29t15.5 41t13.5 45.5t14 53.5t15 55.5q-78 -58 -127 -58t-85 39.5t-36 92t39.5 139.5
t106.5 156t131 69q41 0 69 -31q46 -51 46 -145q0 -12 -1 -17q12 -17 12 -33zM105 136q0 -17 11 -27.5t28 -10.5q50 0 118 59.5t96 138.5q-4 13 -7 40t-6 43t-13 32.5t-26 16.5q-39 0 -88 -56t-81 -125t-32 -111z" />
    <glyph glyph-name="Gbreve" unicode="&#x11e;" horiz-adv-x="611" 
d="M654 910q23 0 23 -23q0 -33 -50.5 -69.5t-101 -36.5t-91.5 36t-41 73q0 25 14.5 40t27 15t20.5 -15t15 -33t24 -33t43.5 -15t48.5 15.5t38 30.5t30 15zM453 717q28 0 55 -33.5t27 -54t-11 -20.5q-3 0 -22 7.5t-41 7.5q-63 0 -139.5 -69t-130.5 -172.5t-54 -192.5
q0 -36 23 -61.5t54 -25.5q48 0 112.5 52.5t119.5 135.5q-56 -15 -83 -15t-46 14.5t-19 27.5q0 16 43 25.5t108 9.5q36 0 58.5 -30.5t22.5 -71t-50 -190.5t-75.5 -150t-25.5 29q0 28 14.5 76t30.5 98.5t26 82.5q-49 -83 -111 -131.5t-120.5 -48.5t-115.5 54.5t-57 119.5
q0 101 64 225t161 212.5t182 88.5z" />
    <glyph glyph-name="gbreve" unicode="&#x11f;" horiz-adv-x="471" 
d="M498 696q23 0 23 -23q0 -33 -50.5 -69.5t-101 -36.5t-91.5 36t-41 73q0 25 14.5 40t27 15t20.5 -15t15 -33t24 -33t43.5 -15t49 15.5t38.5 30.5t29 15zM423 285q0 -40 -35 -91q-27 -61 -58 -175.5t-52 -163.5q-42 -102 -129 -102q-70 0 -119 38.5t-49 76.5q0 15 10 31.5
t20.5 16.5t23 -15t24 -32.5t35 -32.5t45.5 -15t33 6.5t21 21t17 29t15.5 41t13.5 45.5t14 53.5t15 55.5q-78 -58 -126.5 -58t-85 39.5t-36.5 83.5q0 61 40 148t106.5 156t130.5 69q41 0 69 -31q46 -51 46 -145q0 -12 -1 -17q12 -15 12 -33zM101 136q0 -17 11 -27.5t28 -10.5
q49 0 117 59.5t97 137.5q-4 17 -7 42.5t-6 41.5t-13 32.5t-26 16.5q-58 0 -129.5 -112t-71.5 -180z" />
    <glyph glyph-name="Gdotaccent" unicode="&#x120;" horiz-adv-x="728" 
d="M381 828q-22 0 -50 26.5t-28 46.5t15.5 39t32 19t37 -42.5t20.5 -64.5q0 -7 -9 -15.5t-18 -8.5zM461 624q-63 0 -139.5 -69t-130.5 -172.5t-54 -192.5q0 -36 23 -61.5t54 -25.5q48 0 112.5 52.5t119.5 135.5q-56 -15 -83 -15t-46 14.5t-19 27.5q0 16 43 25.5t108 9.5
q36 0 58.5 -30.5t22.5 -71t-50 -190.5t-75.5 -150t-25.5 29q0 28 14.5 76t30.5 98.5t26 82.5q-49 -83 -111 -131.5t-120.5 -48.5t-115.5 54.5t-57 119.5q0 101 64 225t161 212.5t182 88.5q28 0 55 -33.5t27 -54t-11 -20.5q-3 0 -22 7.5t-41 7.5z" />
    <glyph glyph-name="gdotaccent" unicode="&#x121;" horiz-adv-x="615" 
d="M257 663q-22 0 -50 26.5t-28 46.5t15.5 39t32 19t37 -42.5t20.5 -64.5q0 -7 -9 -15.5t-18 -8.5zM427 285q0 -40 -35 -91q-27 -61 -58 -175.5t-52 -163.5q-42 -102 -129 -102q-71 0 -119.5 38.5t-48.5 76.5q0 16 9.5 32t20 16t23.5 -15t24.5 -32.5t35 -32.5t45.5 -15
t33 6.5t21 21t17 29t15.5 41t13.5 45.5t14 53.5t15 55.5q-78 -58 -127 -58t-85 39.5t-36 92t39.5 139.5t106.5 156t131 69q41 0 69 -31q46 -51 46 -145q0 -12 -1 -17q12 -17 12 -33zM105 136q0 -17 11 -27.5t28 -10.5q50 0 118 59.5t96 138.5q-4 13 -7 40t-6 43t-13 32.5
t-26 16.5q-39 0 -88 -56t-81 -125t-32 -111z" />
    <glyph glyph-name="uni0122" unicode="&#x122;" horiz-adv-x="611" 
d="M461 624q-63 0 -139.5 -69t-130.5 -172.5t-54 -192.5q0 -36 23 -61.5t54 -25.5q48 0 112.5 52.5t119.5 135.5q-56 -15 -83 -15t-46 14.5t-19 27.5q0 16 43 25.5t108 9.5q36 0 58.5 -30.5t22.5 -71t-50 -190.5t-75.5 -150t-25.5 29q0 28 14.5 76t30.5 98.5t26 82.5
q-49 -83 -111 -131.5t-120.5 -48.5t-115.5 54.5t-57 119.5q0 101 64 225t161 212.5t182 88.5q28 0 55 -33.5t27 -54t-11 -20.5q-3 0 -22 7.5t-41 7.5zM164 -45q17 14 40.5 14t47 -21.5t23.5 -50.5q0 -51 -51 -95t-90 -44q-22 0 -22 18q0 13 40.5 45.5t46.5 56.5
q-6 10 -29 21.5t-23 26.5t17 29z" />
    <glyph glyph-name="uni0123" unicode="&#x123;" horiz-adv-x="471" 
d="M423 285q0 -36 -32 -84q-22 -48 -42 -118.5t-34.5 -123t-34.5 -102.5q-43 -104 -131 -104q-70 0 -119 38.5t-49 76.5q0 15 10 31.5t20.5 16.5t23 -15t24 -32.5t35 -32.5t45.5 -15t33.5 6.5t21 21t17 29.5t15.5 41t13.5 46t14.5 54t15 56q-80 -60 -128 -60t-84.5 39.5
t-36.5 83.5q0 61 40 148t106.5 156t130.5 69q41 0 68 -30q47 -52 47 -143q0 -14 -1 -20q12 -15 12 -33zM101 136q0 -18 11 -28t28 -10q50 0 118 58.5t96 138.5q-2 11 -5.5 35t-5.5 36.5t-7 29.5q-9 32 -34 32q-58 0 -129.5 -112t-71.5 -180zM375.5 569q-16.5 -14 -40 -14
t-47 21.5t-23.5 51.5q0 51 50.5 94.5t90.5 43.5q22 0 22 -17q0 -13 -40.5 -45.5t-47.5 -56.5q7 -11 29.5 -22.5t22.5 -26.5t-16.5 -29z" />
    <glyph glyph-name="Hcircumflex" unicode="&#x124;" horiz-adv-x="741" 
d="M247.5 902q8.5 3 15.5 3t15.5 -5t13.5 -11l24 -30t30 -35t20.5 -23.5t15.5 -19.5q16 -20 16 -32q0 -24 -26 -24q-16 0 -39 19t-36 35t-39 49q-28 -15 -58.5 -38.5t-50 -37.5t-33.5 -14t-23.5 9t-9.5 27t16 35.5t40.5 31.5t40.5 24t26 16t21.5 12t20 9zM120 17
q-12 0 -33 26.5t-21 50.5t44 196q-13 5 -22.5 17.5t-9.5 28.5q0 13 52 29q67 262 67 325q0 17 4.5 23.5t18 6.5t36 -31t22.5 -69.5t-49 -231.5q132 27 259 35q51 208 51 267q0 30 20 30q17 0 40 -31t23 -64.5t-45 -203.5q46 -7 46 -27.5t-62 -33.5q-32 -118 -43.5 -163.5
t-18.5 -72.5t-15 -54q-14 -53 -25 -53q-14 0 -32.5 23.5t-18.5 48.5t60 257q-146 -20 -263 -46q-14 -52 -26.5 -100.5t-19.5 -75.5t-15 -54q-14 -53 -24 -53z" />
    <glyph glyph-name="hcircumflex" unicode="&#x125;" horiz-adv-x="618" 
d="M190.5 929q8.5 3 15.5 3t15.5 -5t13.5 -11l24 -30t30 -35t20.5 -23.5t15.5 -19.5q16 -20 16 -32q0 -24 -26 -24q-16 0 -39 19t-36 35t-39 49q-28 -15 -58.5 -38.5t-50 -37.5t-33.5 -14t-23.5 9t-9.5 27t16 35.5t40.5 31.5t40.5 24t26 16t21.5 12t20 9zM149 752
q0 39 24 39q19 0 40.5 -30t21.5 -58q0 -65 -32.5 -221.5t-84.5 -312.5q100 181 167.5 261.5t115.5 80.5q26 0 60.5 -45t34.5 -90t-25 -135q-62 -226 -117 -226q-22 0 -22 30t24 101q53 155 53 209q0 18 -9 30t-22 12t-32 -14t-46 -49q-34 -45 -70.5 -101t-44 -67.5
t-26 -41.5t-27.5 -44.5t-22 -31.5q-23 -33 -35 -33t-32 22.5t-20 38t11 58.5q50 192 63 263q52 260 52 355z" />
    <glyph glyph-name="Hbar" unicode="&#x126;" horiz-adv-x="741" 
d="M97 595v119h90v-119h366v119h90v-119h97v-72h-97v-523h-90v333h-366v-333h-90v523h-97v72h97zM553 412v111h-366v-111h366z" />
    <glyph glyph-name="hbar" unicode="&#x127;" horiz-adv-x="618" 
d="M450 0v323q0 65 -29 97t-91 32q-83 0 -120 -45t-37 -149v-258h-88v604h-76v66h76v90h88v-90h212v-66h-212v-87q0 -43 -5 -74h6q26 42 70.5 62.5t97.5 20.5q97 0 146 -47t49 -150v-329h-87z" />
    <glyph glyph-name="Itilde" unicode="&#x128;" horiz-adv-x="338" 
d="M-97 731q-33 0 -33 33.5t39 74t79 40.5q24 0 42.5 -12t27.5 -26q25 -41 43 -44q17 3 38.5 36.5t40.5 33.5q25 0 25 -34.5t-32 -71.5t-69 -37q-54 0 -112 88q-19 -9 -34.5 -30t-27.5 -36t-27 -15zM87.5 43q-19.5 24 -19.5 44t59.5 279.5t60.5 321.5q0 17 4.5 23.5t19 6.5
t38 -31t23.5 -66.5t-72 -328.5q-7 -27 -19 -77.5t-19 -77.5t-15 -59q-17 -59 -29 -59t-31.5 24z" />
    <glyph glyph-name="itilde" unicode="&#x129;" horiz-adv-x="257" 
d="M-137 566q-33 0 -33 33.5t39 74t79 40.5q24 0 42.5 -12t27.5 -26q25 -41 43 -44q17 3 38.5 36.5t40.5 33.5q25 0 25 -34.5t-32 -71.5t-69 -37q-54 0 -112 88q-19 -9 -34.5 -30t-27.5 -36t-27 -15zM199 488q17 -23 17 -44q0 -57 -103 -378q-15 -50 -43 -50q-14 0 -24 11.5
t-10 26t10.5 56t26.5 99t38.5 157t30.5 122.5t24 23t33 -23z" />
    <glyph glyph-name="Imacron" unicode="&#x12a;" horiz-adv-x="310" 
d="M398.5 871.5q37.5 -4.5 37.5 -19t-30 -21t-144 -19.5t-117 -13q-20 0 -37 17.5t-17 31.5q0 28 175 28q95 0 132.5 -4.5zM87.5 43q-19.5 24 -19.5 44t59.5 279.5t60.5 321.5q0 17 4.5 23.5t19 6.5t38 -31t23.5 -66.5t-72 -328.5q-7 -27 -19 -77.5t-19 -77.5t-15 -59
q-17 -59 -29 -59t-31.5 24z" />
    <glyph glyph-name="imacron" unicode="&#x12b;" horiz-adv-x="238" 
d="M330.5 650.5q37.5 -4.5 37.5 -19t-30 -21t-144 -19.5t-117 -13q-19 0 -36.5 17t-17.5 32q0 28 175 28q95 0 132.5 -4.5zM198 488q17 -23 17 -44q0 -55 -102 -378q-17 -50 -44 -50q-14 0 -23.5 11.5t-9.5 26.5t10 55.5t26 99t38.5 157.5t30.5 122t24 23t33 -23z" />
    <glyph glyph-name="Ibreve" unicode="&#x12c;" horiz-adv-x="338" 
d="M-14 815q17 -15 43.5 -15t49 15.5t38.5 30.5t29 15q23 0 23 -23q0 -33 -50.5 -69.5t-101 -36.5t-91.5 35.5t-41 73.5q0 25 14.5 40t27 15t20.5 -15t15 -33t24 -33zM87.5 43q-19.5 24 -19.5 44t59.5 279.5t60.5 321.5q0 17 4.5 23.5t19 6.5t38 -31t23.5 -66.5t-72 -328.5
q-7 -27 -19 -77.5t-19 -77.5t-15 -59q-17 -59 -29 -59t-31.5 24z" />
    <glyph glyph-name="ibreve" unicode="&#x12d;" horiz-adv-x="257" 
d="M-56 650q17 -15 43.5 -15t49 15.5t38.5 30.5t29 15q23 0 23 -23q0 -33 -50.5 -69.5t-101 -36.5t-91.5 35.5t-41 73.5q0 25 14.5 40t27 15t20.5 -15t15 -33t24 -33zM199 488q17 -23 17 -44q0 -57 -103 -378q-15 -50 -43 -50q-14 0 -24 11.5t-10 26t10.5 56t26.5 99
t38.5 157t30.5 122.5t24 23t33 -23z" />
    <glyph glyph-name="Iogonek" unicode="&#x12e;" horiz-adv-x="310" 
d="M40 -78q0 -19 39 -19q11 0 27 5.5t25.5 5.5t18.5 -8.5t9 -19.5q0 -24 -38.5 -37t-74 -13t-61.5 19.5t-26 51t38 83.5t77 74q-6 10 -6 26.5t59.5 276t60.5 321.5q0 17 4.5 23.5t19 6.5t38 -31t23.5 -66.5t-63.5 -293.5t-75.5 -288q-3 -20 -48.5 -57.5t-45.5 -59.5z" />
    <glyph glyph-name="iogonek" unicode="&#x12f;" horiz-adv-x="238" 
d="M69 -89.5q16 5.5 25.5 5.5t18.5 -8.5t9 -19.5q0 -24 -39 -37t-74 -13t-61 19t-26 50.5t38 83.5t77 74q3 23 27.5 112.5t46.5 188.5t30 122t24 23t33 -23t17 -44q0 -55 -102 -378q-7 -23 -21 -39q-8 -13 -48.5 -48t-40.5 -56q0 -18 39 -18q11 0 27 5.5z" />
    <glyph glyph-name="Idotaccent" unicode="&#x130;" horiz-adv-x="310" 
d="M293 788q-22 0 -50 26.5t-28 46.5t15.5 39t32 19t37 -42.5t20.5 -64.5q0 -7 -9 -15.5t-18 -8.5zM87.5 43q-19.5 24 -19.5 44t59.5 279.5t60.5 321.5q0 17 4.5 23.5t19 6.5t38 -31t23.5 -66.5t-72 -328.5q-7 -27 -19 -77.5t-19 -77.5t-15 -59q-17 -59 -29 -59t-31.5 24z
" />
    <glyph glyph-name="dotlessi" unicode="&#x131;" horiz-adv-x="260" 
d="M199 488q17 -23 17 -44q0 -57 -103 -378q-15 -50 -43 -50q-14 0 -24 11.5t-10 26t10.5 56t26.5 99t38.5 157t30.5 122.5t24 23t33 -23z" />
    <glyph glyph-name="IJ" unicode="&#x132;" horiz-adv-x="611" 
d="M87.5 43q-19.5 24 -19.5 44t59.5 279.5t60.5 321.5q0 17 4.5 23.5t19 6.5t38 -31t23.5 -66.5t-72 -328.5q-7 -27 -19 -77.5t-19 -77.5t-15 -59q-17 -59 -29 -59t-31.5 24zM347 165q0 29 18 29q11 0 60 -50q19 -18 46 -33.5t53 -15.5q33 0 60.5 69.5t76.5 248t79 227.5
q-44 -7 -123.5 -26t-95.5 -19q-37 0 -37 25q0 34 124.5 69t182.5 35q18 0 31.5 -8t13.5 -23.5t-14 -56.5q-62 -181 -81 -246q-65 -237 -99 -307t-101.5 -70t-130.5 56t-63 96z" />
    <glyph glyph-name="ij" unicode="&#x133;" horiz-adv-x="514" 
d="M175 691q16 18 32.5 18t39.5 -40.5t23 -67.5q0 -10 -9 -18t-19 -8q-24 0 -53.5 29t-29.5 49t16 38zM154 511q19 0 36 -23t17 -45t-29 -131.5t-73 -245.5q-17 -50 -43 -50q-14 0 -24 11.5t-10 26t7.5 46t22 84t23 85.5t17.5 74.5t14.5 67t12.5 51.5q14 49 29 49zM107 -121
q43 -55 71 -55t47 30t37 94.5t34 132.5t41.5 180t49.5 201q15 49 29 49q17 0 35 -21.5t18 -46.5q0 -23 -31 -139.5t-55 -209.5t-47 -182q-43 -157 -156 -157q-50 0 -97.5 42t-47.5 72q0 13 10.5 30.5t19.5 17.5q11 0 23 -14.5t19 -23.5zM444 691q16 18 33 18t39.5 -40.5
t22.5 -67.5q0 -10 -9 -18t-18 -8q-24 0 -54 29t-30 49t16 38z" />
    <glyph glyph-name="Jcircumflex" unicode="&#x134;" horiz-adv-x="272" 
d="M16.5 902q8.5 3 15.5 3t15.5 -5t13.5 -11l24 -30t30 -35t20.5 -23.5t15.5 -19.5q16 -20 16 -32q0 -24 -26 -24q-16 0 -39 19t-36 35t-39 49q-28 -15 -58.5 -38.5t-50 -37.5t-33.5 -14t-23.5 9t-9.5 27t16 35.5t40.5 31.5t40.5 24t26 16t21.5 12t20 9zM8 165q0 29 18 29
q11 0 60 -50q19 -18 46 -33.5t53 -15.5q33 0 60.5 69.5t76.5 248t79 227.5q-44 -7 -123.5 -26t-95.5 -19q-37 0 -37 25q0 34 124.5 69t182.5 35q18 0 31.5 -8t13.5 -23.5t-14 -56.5q-62 -181 -81 -246q-65 -237 -99 -307t-101.5 -70t-130.5 56t-63 96z" />
    <glyph glyph-name="jcircumflex" unicode="&#x135;" horiz-adv-x="257" 
d="M5.5 737q8.5 3 15.5 3t15.5 -5t13.5 -11l24 -30t30 -35t20.5 -23.5t15.5 -19.5q16 -20 16 -32q0 -24 -26 -24q-16 0 -39 19t-36 35t-39 49q-28 -15 -58.5 -38.5t-50 -37.5t-33.5 -14t-23.5 9t-9.5 27t16 35.5t40.5 31.5t40.5 24t26 16t21.5 12t20 9zM22 -240
q-46 0 -77 12v71q34 -10 66 -10q38 0 56 21t18 63v619h88v-616q0 -80 -38.5 -120t-112.5 -40z" />
    <glyph glyph-name="uni0136" unicode="&#x136;" horiz-adv-x="602" 
d="M105 20q-14 0 -32.5 23.5t-18.5 49t65 277.5t65 316q0 18 4 25t18.5 7t34.5 -31t20 -71t-52 -237q91 124 192 228.5t128 104.5q20 0 37.5 -13t17.5 -25.5t-47.5 -56t-127.5 -121.5t-137 -156q0 -41 22 -89q35 -80 144 -133q47 -23 73.5 -39t26.5 -33q0 -26 -39 -26
t-82 16.5t-86 46.5t-78.5 79.5t-48.5 108.5q-31 -55 -58 -145q-33 -106 -40 -106h-1zM205 -45q17 14 40 14t46.5 -21.5t23.5 -50.5q0 -51 -50.5 -95t-89.5 -44q-22 0 -22 18q0 13 40.5 45.5t46.5 56.5q-6 10 -29 21.5t-23 26.5t17 29z" />
    <glyph glyph-name="uni0137" unicode="&#x137;" horiz-adv-x="495" 
d="M94 15q-15 0 -33 23.5t-18 39t32.5 129t65 272.5t32.5 284q0 15 5 21.5t19.5 6.5t36.5 -29.5t22 -57.5q0 -89 -36 -249t-86 -304q113 161 195.5 260.5t102 99.5t37.5 -19t18 -35q0 -9 -89 -94q-33 -32 -60.5 -75.5t-27.5 -79.5t21.5 -66.5t47.5 -46t47.5 -30.5t21.5 -25
q0 -25 -40 -25t-94.5 44.5t-67.5 99.5l-7 19q-69 -93 -99.5 -128t-45.5 -35zM191 -38q17 14 40.5 14t47 -21.5t23.5 -51.5q0 -51 -50.5 -94.5t-90.5 -43.5q-22 0 -22 17q0 14 40.5 46t46.5 56q-7 11 -29.5 22.5t-22.5 26.5t17 29z" />
    <glyph glyph-name="kgreenlandic" unicode="&#x138;" horiz-adv-x="534" 
d="M403 536h106l-203 -237l219 -299h-105l-176 242l-66 -54v-188h-93v536h93v-139q0 -68 -6 -135l41 50z" />
    <glyph glyph-name="Lacute" unicode="&#x139;" horiz-adv-x="546" 
d="M310.5 792q-7.5 8 -7.5 21.5t12.5 29t49.5 53.5q24 22 40.5 38.5t25.5 23.5q17 15 30.5 15t26.5 -18.5t13 -32.5t-2.5 -20.5t-6 -11t-13.5 -12t-17 -12t-24.5 -16t-28.5 -19t-25 -17.5t-19.5 -14t-12.5 -8q-13 -8 -23.5 -8t-18 8zM203.5 718q4.5 7 19 7t36.5 -25t22 -53
q0 -70 -86 -354q-43 -138 -43 -165t26 -27q113 0 248 37q43 12 51.5 12t11.5 -3.5t3 -13.5q0 -42 -102.5 -79t-208.5 -37q-48 0 -83.5 28t-35.5 66.5t68.5 276.5t68.5 307q0 16 4.5 23z" />
    <glyph glyph-name="lacute" unicode="&#x13a;" horiz-adv-x="234" 
d="M227 707q0 -188 -78 -488q-50 -204 -71 -204q-13 0 -32 22t-19 34t29 124t58 275.5t29 294.5q0 26 19 26q15 0 40 -28.5t25 -55.5zM218.5 810.5q-7.5 8.5 -7.5 18.5t2.5 17t12.5 19q18 20 38 39.5t35 34.5q43 43 52.5 48t15.5 5q16 0 29 -19t13 -33.5t-2.5 -21t-12 -14.5
t-17 -13t-28 -18t-31.5 -21t-23 -16.5t-17 -12.5t-12 -9t-12 -7q-11 -5 -19.5 -5t-16 8.5z" />
    <glyph glyph-name="uni013B" unicode="&#x13b;" horiz-adv-x="546" 
d="M203.5 718q4.5 7 19 7t36.5 -25t22 -53q0 -70 -86 -354q-43 -138 -43 -165t26 -27q113 0 248 37q43 12 51.5 12t11.5 -3.5t3 -13.5q0 -42 -102.5 -79t-208.5 -37q-48 0 -83.5 28t-35.5 66.5t68.5 276.5t68.5 307q0 16 4.5 23zM127 -224q0 13 40.5 45.5t46.5 56.5
q-6 10 -29 21.5t-23 26.5t17 29t40 14t47 -21.5t24 -50.5q0 -51 -51 -95t-90 -44q-22 0 -22 18z" />
    <glyph glyph-name="uni013C" unicode="&#x13c;" horiz-adv-x="234" 
d="M227 707q0 -188 -78 -488q-50 -204 -70 -204q-14 0 -33 22t-19 34t29 124t58 275.5t29 294.5q0 26 20 26q15 0 39.5 -28.5t24.5 -55.5zM119 -132q0 -51 -50.5 -94.5t-89.5 -43.5q-23 0 -23 17q0 14 40.5 46.5t47.5 55.5q-8 11 -30 22.5t-22 26.5t16.5 29t40 14t47 -21.5
t23.5 -51.5z" />
    <glyph glyph-name="Lcaron" unicode="&#x13d;" horiz-adv-x="546" 
d="M203.5 718q4.5 7 19 7t36.5 -25t22 -53q0 -70 -86 -354q-43 -138 -43 -165t26 -27q113 0 248 37q43 12 51.5 12t11.5 -3.5t3 -13.5q0 -42 -102.5 -79t-208.5 -37q-48 0 -83.5 28t-35.5 66.5t68.5 276.5t68.5 307q0 16 4.5 23zM334 526q0 13 40.5 45.5t46.5 56.5
q-8 11 -30 22t-22 26.5t16.5 29.5t40 14t47 -21.5t23.5 -51.5q0 -51 -50.5 -95t-89.5 -44q-22 0 -22 18z" />
    <glyph glyph-name="lcaron" unicode="&#x13e;" horiz-adv-x="448" 
d="M227 707q0 -188 -78 -488q-50 -204 -70 -204q-14 0 -33 22t-19 34t29 124t58 275.5t29 294.5q0 26 20 26q15 0 39.5 -28.5t24.5 -55.5zM423 703q0 -51 -50.5 -94.5t-90.5 -43.5q-22 0 -22 17q0 14 40.5 46t46.5 56q-7 11 -29.5 22.5t-22.5 26.5t17 29t40 14t47 -21.5
t24 -51.5z" />
    <glyph glyph-name="Ldot" unicode="&#x13f;" horiz-adv-x="523" 
d="M342 339q-22 0 -50 26.5t-28 46.5t15.5 39t32 19t37 -42.5t20.5 -64.5q0 -7 -9 -15.5t-18 -8.5zM203.5 718q4.5 7 19 7t36.5 -25t22 -53q0 -70 -86 -354q-43 -138 -43 -165t26 -27q113 0 248 37q43 12 51.5 12t11.5 -3.5t3 -13.5q0 -42 -102.5 -79t-208.5 -37
q-48 0 -83.5 28t-35.5 66.5t68.5 276.5t68.5 307q0 16 4.5 23z" />
    <glyph glyph-name="ldot" unicode="&#x140;" horiz-adv-x="325" 
d="M250 315q-22 0 -50 26.5t-28 46.5t15.5 39t32 19t37 -42.5t20.5 -64.5q0 -7 -9 -15.5t-18 -8.5zM228 707q0 -188 -78 -488q-50 -204 -70 -204q-14 0 -32.5 22t-18.5 34t29 124t58 275.5t29 294.5q0 14 4 20t17 6t37.5 -28.5t24.5 -55.5z" />
    <glyph glyph-name="Lslash" unicode="&#x141;" horiz-adv-x="514" 
d="M219 373q-8 -26 -37.5 -122t-29.5 -123t26 -27q113 0 248 37q43 12 51.5 12t11.5 -3.5t3 -13.5q0 -42 -102.5 -79t-208.5 -37q-48 0 -83.5 28t-35.5 65.5t55 229.5q-39 -12 -53 -12t-31.5 13t-17.5 25q0 21 125 56q59 206 59 273q0 16 4.5 23t19 7t36.5 -25t22 -53
q0 -54 -41 -201q79 19 104.5 19t25.5 -14.5t-28 -28.5q-20 -10 -123 -49z" />
    <glyph glyph-name="lslash" unicode="&#x142;" horiz-adv-x="362" 
d="M261 461q77 18 100 18t23 -15t-28.5 -29t-106.5 -42q-21 -103 -40 -174q-50 -204 -70 -204q-14 0 -33 22t-19 34t9 49q41 160 57 238q-49 -17 -62.5 -17t-31.5 13.5t-18 25.5q0 20 128 58q34 188 34 327q0 26 20 26q15 0 39.5 -28.5t24.5 -55.5q0 -92 -26 -246z" />
    <glyph glyph-name="Nacute" unicode="&#x143;" horiz-adv-x="677" 
d="M408.5 792q-7.5 8 -7.5 22t12.5 30t36.5 39.5t38.5 37.5t22.5 22t17 15q17 15 31 15t27 -18.5t13 -33t-2.5 -21.5t-12 -15t-16.5 -13q-72 -48 -91.5 -62t-26.5 -18q-13 -8 -23.5 -8t-18 8zM562 680q2 43 20.5 43t40.5 -23t22 -41q0 -82 -25.5 -233t-68 -280t-80.5 -129
q-13 0 -29.5 13t-25.5 32q-30 70 -177 444q-30 -116 -66.5 -262.5t-48.5 -186.5t-21 -40q-13 0 -31.5 22.5t-18.5 46.5t65 281.5t67 321.5q0 32 17 32q11 0 30.5 -18.5t28.5 -40.5q161 -418 204 -512q65 172 87 411q10 110 10 119z" />
    <glyph glyph-name="nacute" unicode="&#x144;" horiz-adv-x="532" 
d="M284.5 431q61.5 80 100 80t73 -41t34.5 -87q0 -67 -33 -176q-62 -192 -108 -192q-23 0 -23 30q0 24 22 87q59 167 59 230q0 21 -9.5 36t-18 15t-16.5 -3.5t-17 -12t-17.5 -18t-19.5 -24.5t-20 -28t-22.5 -34t-23 -36.5t-25 -40t-26 -40.5t-27.5 -44t-28.5 -45t-24.5 -35
q-26 -37 -39.5 -37t-33 22.5t-19.5 39.5q0 4 18.5 62t26.5 88q26 97 30 215q3 73 21 73q22 0 43.5 -23t21.5 -50.5t-16.5 -106t-38.5 -146.5q95 162 156.5 242zM323 563.5q-5 -1.5 -12.5 -1.5t-15.5 8.5t-8 22t12.5 29.5t37 40t39 38t22.5 22t17 16q17 14 31 14t27 -18.5
t13 -33t-2.5 -21.5t-12 -15t-17.5 -13q-95 -64 -103 -70.5t-15.5 -11t-12.5 -6z" />
    <glyph glyph-name="uni0145" unicode="&#x145;" horiz-adv-x="677" 
d="M562 680q2 43 20.5 43t40.5 -23t22 -41q0 -82 -25.5 -233t-68 -280t-80.5 -129q-13 0 -29.5 13t-25.5 32q-30 70 -177 444q-30 -116 -66.5 -262.5t-48.5 -186.5t-21 -40q-13 0 -31.5 22.5t-18.5 46.5t65 281.5t67 321.5q0 32 17 32q11 0 30.5 -18.5t28.5 -40.5
q161 -418 204 -512q65 172 87 411q10 110 10 119zM169 -224q0 13 40.5 45.5t47.5 56.5q-7 10 -29.5 21.5t-22.5 26.5t16.5 29t40 14t47 -21.5t23.5 -50.5q0 -51 -50.5 -95t-90.5 -44q-22 0 -22 18z" />
    <glyph glyph-name="uni0146" unicode="&#x146;" horiz-adv-x="532" 
d="M285.5 431.5q60.5 79.5 99 79.5t73 -41t34.5 -87q0 -72 -33 -176q-60 -192 -108 -192q-22 0 -22 30q0 21 21.5 85.5t40 127t18.5 94t-9.5 46.5t-19 15t-19.5 -6t-22.5 -20t-23.5 -27.5t-27.5 -38.5t-27.5 -42.5t-32 -50.5t-32 -50t-29 -46t-28.5 -45t-23.5 -35
q-25 -37 -39.5 -37t-33.5 22.5t-19 39.5q0 5 7 27q19 58 42 143.5t25 194.5q3 73 21 73q22 0 44 -23t22 -50.5t-16.5 -106t-38.5 -146.5q96 163 156.5 242.5zM165 -38q17 14 40 14t46.5 -21.5t23.5 -51.5q0 -51 -50.5 -94.5t-89.5 -43.5q-22 0 -22 17q0 14 40.5 46t46.5 56
q-7 11 -29.5 22.5t-22.5 26.5t17 29z" />
    <glyph glyph-name="Ncaron" unicode="&#x147;" horiz-adv-x="677" 
d="M564 943q30 0 30 -26q0 -14 -11.5 -25.5t-40.5 -29.5t-41 -27t-32 -26.5t-32 -26t-22 -8.5q-20 0 -85 64.5t-65 101.5q0 16 9 26.5t23 10.5t28 -17t39 -49.5t57 -57.5q50 46 88.5 68t54.5 22zM562 680q2 43 20.5 43t40.5 -23t22 -41q0 -82 -25.5 -233t-68 -280
t-80.5 -129q-13 0 -29.5 13t-25.5 32q-30 70 -177 444q-30 -116 -66.5 -262.5t-48.5 -186.5t-21 -40q-13 0 -31.5 22.5t-18.5 46.5t65 281.5t67 321.5q0 32 17 32q11 0 30.5 -18.5t28.5 -40.5q161 -418 204 -512q65 172 87 411q10 110 10 119z" />
    <glyph glyph-name="ncaron" unicode="&#x148;" horiz-adv-x="532" 
d="M284.5 431q61.5 80 100 80t73 -41t34.5 -87q0 -67 -33 -176q-62 -192 -108 -192q-23 0 -23 30q0 24 22 87q59 167 59 230q0 21 -9.5 36t-18 15t-16.5 -3.5t-17 -12t-17.5 -18t-19.5 -24.5t-20 -28t-22.5 -34t-23 -36.5t-25 -40t-26 -40.5t-27.5 -44t-28.5 -45t-24.5 -35
q-26 -37 -39.5 -37t-33 22.5t-19.5 39.5q0 4 18.5 62t26.5 88q26 97 30 215q3 73 21 73q22 0 43.5 -23t21.5 -50.5t-16.5 -106t-38.5 -146.5q95 162 156.5 242zM302 553q-20 0 -85 64.5t-65 101.5q0 16 8.5 26.5t23 10.5t28.5 -17t39 -49.5t57 -57.5q50 46 88.5 68t54.5 22
q29 0 29 -26q0 -14 -11 -25t-40 -29.5t-41 -27.5t-32 -26q-41 -35 -54 -35z" />
    <glyph glyph-name="napostrophe" unicode="&#x149;" horiz-adv-x="690" 
d="M145 714l7 -11q-25 -97 -86 -234h-65q34 139 50 245h94zM356.5 431.5q60.5 79.5 99 79.5t73 -41t34.5 -87q0 -72 -33 -176q-60 -192 -108 -192q-22 0 -22 30q0 21 21.5 85.5t40 127t18.5 94t-9.5 46.5t-19 15t-19.5 -6t-22.5 -20t-23.5 -27.5t-27.5 -38.5t-27.5 -42.5
t-32 -50.5t-32 -50t-29 -46t-28.5 -45t-23.5 -35q-25 -37 -39.5 -37t-33.5 22.5t-19 39.5q0 5 7 27q19 58 42 143.5t25 194.5q3 73 21 73q22 0 44 -23t22 -50.5t-16.5 -106t-38.5 -146.5q96 163 156.5 242.5z" />
    <glyph glyph-name="Eng" unicode="&#x14a;" horiz-adv-x="759" 
d="M475 -190q-48 0 -76 13v76q35 -10 76 -10q50 0 76.5 28.5t27.5 82.5l-403 593h-4q8 -125 8 -206v-387h-83v714h104l381 -572h4q-7 75 -7 200v372h84v-708q0 -96 -48.5 -146t-139.5 -50z" />
    <glyph glyph-name="eng" unicode="&#x14b;" horiz-adv-x="618" 
d="M394 -240q-42 0 -71 12v71q29 -10 60 -10q67 0 67 84v427q0 65 -29 96.5t-90 31.5q-83 0 -120.5 -45.5t-37.5 -147.5v-279h-88v536h71l14 -73h5q25 40 69 61.5t98 21.5q99 0 147.5 -46.5t48.5 -149.5v-430q0 -75 -35 -117.5t-109 -42.5z" />
    <glyph glyph-name="Omacron" unicode="&#x14c;" horiz-adv-x="613" 
d="M610.5 871.5q37.5 -4.5 37.5 -19t-30 -21t-144 -19.5t-117 -13q-19 0 -36.5 17.5t-17.5 31.5q0 28 175 28q95 0 132.5 -4.5zM453 300.5q47 86.5 47 163.5t-29.5 125t-69.5 48t-100 -62t-108 -162.5t-48 -192.5q0 -55 24 -89.5t56 -34.5q50 0 115.5 59t112.5 145.5z
M219 17q-66 0 -115.5 65t-49.5 132q0 91 33.5 185t84 164t111.5 114.5t113 44.5q84 0 140 -76.5t56 -172.5t-53 -201.5t-141.5 -180t-178.5 -74.5z" />
    <glyph glyph-name="omacron" unicode="&#x14d;" horiz-adv-x="452" 
d="M333 341q0 34 -11 64.5t-32 44.5q-69 -19 -118.5 -106.5t-49.5 -164.5t38 -96q72 14 122.5 98.5t50.5 159.5zM161.5 460.5q56.5 50.5 116 50.5t99.5 -50.5t40 -123t-35 -148t-96.5 -125t-130.5 -49.5q-51 0 -85 47t-34 119.5t34.5 150.5t91 128.5zM443.5 650.5
q37.5 -4.5 37.5 -19t-30 -21t-144.5 -19.5t-117.5 -13q-19 0 -36.5 17t-17.5 32q0 28 176 28q95 0 132.5 -4.5z" />
    <glyph glyph-name="Obreve" unicode="&#x14e;" horiz-adv-x="780" 
d="M205 815q17 -15 43.5 -15t49 15.5t38.5 30.5t29 15q23 0 23 -23q0 -33 -50.5 -69.5t-101 -36.5t-91.5 35.5t-41 73.5q0 25 14.5 40t27 15t20.5 -15t15 -33t24 -33zM453 300.5q47 86.5 47 163.5t-29.5 125t-69.5 48t-100 -62t-108 -162.5t-48 -192.5q0 -55 24 -89.5
t56 -34.5q50 0 115.5 59t112.5 145.5zM219 17q-66 0 -115.5 65t-49.5 132q0 91 33.5 185t84 164t111.5 114.5t113 44.5q84 0 140 -76.5t56 -172.5t-53 -201.5t-141.5 -180t-178.5 -74.5z" />
    <glyph glyph-name="obreve" unicode="&#x14f;" horiz-adv-x="604" 
d="M117 650q17 -15 43.5 -15t49 15.5t38.5 30.5t29 15q23 0 23 -23q0 -33 -50.5 -69.5t-101 -36.5t-91.5 35.5t-41 73.5q0 25 14.5 40t27 15t20.5 -15t15 -33t24 -33zM333 341q0 34 -11 64.5t-32 44.5q-69 -19 -118.5 -106.5t-49.5 -164.5t38 -96q72 14 122.5 98.5
t50.5 159.5zM161.5 460.5q56.5 50.5 116 50.5t99.5 -50.5t40 -123t-35 -148t-96.5 -125t-130.5 -49.5q-51 0 -85 47t-34 119.5t34.5 150.5t91 128.5z" />
    <glyph glyph-name="Ohungarumlaut" unicode="&#x150;" horiz-adv-x="613" 
d="M669.5 972q13.5 -16 13.5 -31.5t-5 -26t-10 -16.5t-19.5 -22t-20.5 -23.5t-14 -17t-12 -14.5t-10.5 -12t-10.5 -11t-9 -8q-10 -7 -20.5 -7t-16.5 8.5t-6 23t21 51.5t29 51.5t12.5 22t10 17t9 14.5t8.5 9q8 8 22.5 8t28 -16zM451 977q11 19 29.5 19t32.5 -16.5t14 -30
t-2 -19.5t-4 -11t-7 -13t-8.5 -13t-11.5 -16t-31.5 -45t-33.5 -42t-20 -8t-16 9t-6 18.5t2.5 19t5.5 17.5t10.5 25.5t21 52t24.5 53.5zM453 300.5q47 86.5 47 163.5t-29.5 125t-69.5 48t-100 -62t-108 -162.5t-48 -192.5q0 -55 24 -89.5t56 -34.5q50 0 115.5 59t112.5 145.5
zM219 17q-66 0 -115.5 65t-49.5 132q0 91 33.5 185t84 164t111.5 114.5t113 44.5q84 0 140 -76.5t56 -172.5t-53 -201.5t-141.5 -180t-178.5 -74.5z" />
    <glyph glyph-name="ohungarumlaut" unicode="&#x151;" horiz-adv-x="452" 
d="M333 341q0 34 -11 64.5t-32 44.5q-69 -19 -118.5 -106.5t-49.5 -164.5t38 -96q72 14 122.5 98.5t50.5 159.5zM161.5 460.5q56.5 50.5 116 50.5t99.5 -50.5t40 -123t-35 -148t-96.5 -125t-130.5 -49.5q-51 0 -85 47t-34 119.5t34.5 150.5t91 128.5zM501.5 751
q13.5 -16 13.5 -31.5t-5 -26t-10 -16.5t-19.5 -22t-20.5 -23.5t-14 -17t-12 -14.5t-10.5 -12t-10.5 -11t-9 -8q-10 -7 -21 -7q-21 0 -21 24q0 23 46 106q7 11 10.5 17.5t8.5 15t8 13.5t7 10.5t7 8.5t7 5q6 5 19 5t26.5 -16zM283 755q12 20 30.5 20t32.5 -16.5t14 -30.5
t-2 -20.5t-7 -15t-9 -14.5t-13.5 -19t-14.5 -20q-42 -63 -53 -70.5t-20.5 -7.5t-15.5 9t-6 19.5t3 20.5t13 32.5t23 57.5t25 55z" />
    <glyph glyph-name="OE" unicode="&#x152;" horiz-adv-x="940" 
d="M538 650q0 19 8 27q24 33 219.5 33t195.5 -29q0 -19 -43 -27q-35 -7 -94.5 -12.5t-83.5 -8t-116 -18.5v-3q0 -68 -37 -205q6 -1 40.5 -1t92 5t87.5 5t30 -14q0 -35 -82 -52t-190 -17q-29 -94 -33 -108.5t-10 -36.5q-12 -40 -12 -57q0 -32 28 -32q115 0 254 37
q45 12 52 12q14 0 14 -21q0 -36 -110 -74t-214 -38q-46 0 -80.5 27t-34.5 63v5q-100 -93 -200 -93q-66 0 -115.5 65t-49.5 132q0 91 33.5 185t84 164t111.5 114.5t113 44.5q83 0 142 -79v7zM500 458q0 83 -29.5 131t-69.5 48t-100 -62t-108 -162.5t-48 -192.5
q0 -55 24 -89.5t56 -34.5q62 0 145 90q89 97 122 212q8 32 8 60z" />
    <glyph glyph-name="oe" unicode="&#x153;" horiz-adv-x="906" 
d="M602 305.5q38 16.5 38 43.5t-24.5 55t-48.5 28q-37 0 -76.5 -38.5t-67.5 -95.5q35 -9 88 -9t91 16.5zM333 341q0 34 -11 64.5t-32 44.5q-69 -19 -118.5 -106.5t-49.5 -164.5t38 -96q71 15 122 96t51 162zM561 511q60 0 108.5 -56t48.5 -109.5t-57.5 -87t-127.5 -33.5
t-132 15q-16 -38 -16 -75q0 -75 84 -75q58 0 110.5 17.5t57.5 17.5q26 0 26 -20q0 -27 -61 -58.5t-117 -31.5t-97.5 24t-61.5 65q-77 -89 -171 -89q-51 0 -85 47t-34 119.5t34.5 150.5t91 128.5t114.5 50.5q43 0 75.5 -27.5t49.5 -70.5q79 98 160 98z" />
    <glyph glyph-name="Racute" unicode="&#x154;" horiz-adv-x="575" 
d="M552 954.5q13 -18.5 13 -33t-2.5 -21.5t-12 -15t-16.5 -13q-35 -23 -53.5 -35t-32.5 -22.5t-19.5 -14t-13.5 -8.5q-13 -8 -23 -8t-18 8t-8 21.5t12.5 29.5t37 40t39 38t22.5 22t17 15q17 15 31 15t27 -18.5zM95 16q-15 0 -33.5 22t-18.5 44t55 216.5t62 295.5
q-13 8 -23 25t-10 30q0 23 68 47.5t151 24.5t143.5 -39.5t60.5 -111.5q0 -49 -27.5 -91.5t-67 -69.5t-79 -48t-67 -34.5t-27.5 -19.5q0 -22 34.5 -57t48.5 -48t37 -34t44 -39t33 -28.5t25 -22.5q25 -23 25 -37q0 -24 -33 -24q-60 0 -171 104.5t-136 177.5
q-14 -45 -30 -100.5t-23 -79t-16 -51.5q-17 -52 -25 -52zM458 570q0 62 -108 62q-49 0 -114 -25q10 -22 10 -40q0 -65 -42 -215q17 13 65 38.5t86.5 47t70.5 57.5t32 75z" />
    <glyph glyph-name="racute" unicode="&#x155;" horiz-adv-x="318" 
d="M393 733.5q13 -18.5 13 -33t-2.5 -21.5t-12 -15t-17.5 -13q-34 -23 -53 -35.5t-32 -22.5t-19 -14q-25 -17 -36 -17t-18.5 8.5t-7.5 22t12.5 29.5t36.5 39.5t39 38t22.5 22.5t17.5 16q18 14 31 14t26 -18.5zM91 389l-3 75q0 47 22 47q19 0 36.5 -24.5t17.5 -58t-2 -50.5
q87 132 165 132q49 0 49 -24q0 -12 -11 -22t-35 -23q-53 -23 -89.5 -70.5t-59.5 -107.5t-36.5 -101t-20.5 -64t-16 -45q-16 -40 -37 -40q-17 0 -27.5 19.5t-10.5 38t17 73.5q41 126 41 245z" />
    <glyph glyph-name="uni0156" unicode="&#x156;" horiz-adv-x="575" 
d="M95 16q-15 0 -33.5 22t-18.5 44t55 216.5t62 295.5q-13 8 -23 25t-10 30q0 23 68 47.5t151 24.5t143.5 -39.5t60.5 -111.5q0 -49 -27.5 -91.5t-67 -69.5t-79 -48t-67 -34.5t-27.5 -19.5q0 -22 34.5 -57t48.5 -48t37 -34t44 -39t33 -28.5t25 -22.5q25 -23 25 -37
q0 -24 -33 -24q-60 0 -171 104.5t-136 177.5q-14 -45 -30 -100.5t-23 -79t-16 -51.5q-17 -52 -25 -52zM246 567q0 -65 -42 -215q17 13 65 38.5t86.5 47t70.5 57.5t32 75q0 62 -108 62q-49 0 -114 -25q10 -22 10 -40zM210.5 -45q16.5 14 40 14t47 -21.5t23.5 -50.5
q0 -51 -50.5 -95t-89.5 -44q-22 0 -22 18q0 13 40.5 45.5t46.5 56.5q-7 10 -29.5 21.5t-22.5 26.5t16.5 29z" />
    <glyph glyph-name="uni0157" unicode="&#x157;" horiz-adv-x="326" 
d="M100 389l-3 75q0 47 22 47q19 0 36.5 -24.5t17.5 -58t-2 -50.5q87 132 165 132q49 0 49 -24q0 -12 -11 -22t-35 -23q-53 -23 -89.5 -70.5t-59.5 -107.5t-36.5 -101t-20.5 -64t-16 -45q-16 -40 -37 -40q-17 0 -27.5 19.5t-10.5 38t18 73.5q40 126 40 245zM15 -38
q17 14 40 14t46.5 -21.5t23.5 -51.5q0 -51 -50.5 -94.5t-89.5 -43.5q-23 0 -23 17q0 14 41 46t47 56q-8 11 -30 22.5t-22 26.5t17 29z" />
    <glyph glyph-name="Rcaron" unicode="&#x158;" horiz-adv-x="575" 
d="M95 16q-15 0 -33.5 22t-18.5 44t55 216.5t62 295.5q-13 8 -23 25t-10 30q0 23 68 47.5t151 24.5t143.5 -39.5t60.5 -111.5q0 -49 -27.5 -91.5t-67 -69.5t-79 -48t-67 -34.5t-27.5 -19.5q0 -22 34.5 -57t48.5 -48t37 -34t44 -39t33 -28.5t25 -22.5q25 -23 25 -37
q0 -24 -33 -24q-60 0 -171 104.5t-136 177.5q-14 -45 -30 -100.5t-23 -79t-16 -51.5q-17 -52 -25 -52zM458 570q0 62 -108 62q-49 0 -114 -25q10 -22 10 -40q0 -65 -42 -215q17 13 65 38.5t86.5 47t70.5 57.5t32 75zM381 774q-20 0 -85 64.5t-65 101.5q0 16 8.5 26.5
t23 10.5t28.5 -17t39 -49.5t57 -57.5q50 46 88.5 68t54.5 22q29 0 29 -26q0 -14 -11 -25t-40 -29.5t-41 -27.5t-33 -27q-40 -34 -53 -34z" />
    <glyph glyph-name="rcaron" unicode="&#x159;" horiz-adv-x="318" 
d="M372 722q29 0 29 -26q0 -14 -11.5 -25.5t-40.5 -29.5t-41 -27t-32 -26.5t-32 -26t-22 -8.5q-20 0 -85 64.5t-65 101.5q0 16 9 26.5t23 10.5t28.5 -17t39.5 -49.5t57 -57.5q50 46 88.5 68t54.5 22zM91 389l-3 75q0 47 22 47q19 0 36.5 -24.5t17.5 -58t-2 -50.5
q87 132 165 132q49 0 49 -24q0 -12 -11 -22t-35 -23q-53 -23 -89.5 -70.5t-59.5 -107.5t-36.5 -101t-20.5 -64t-16 -45q-16 -40 -37 -40q-17 0 -27.5 19.5t-10.5 38t17 73.5q41 126 41 245z" />
    <glyph glyph-name="Sacute" unicode="&#x15a;" horiz-adv-x="526" 
d="M389 792q-8 8 -8 21.5t12.5 29t49.5 53.5q24 22 40.5 38.5t25.5 23.5q17 15 30.5 15t27 -19t13.5 -32.5t-2.5 -20t-6.5 -11t-13.5 -12t-17.5 -12.5t-25 -15.5t-28.5 -18.5t-24.5 -18t-19 -14t-13 -8q-13 -8 -23 -8t-18 8zM468 214q0 -82 -74 -137.5t-169.5 -55.5
t-157.5 49.5t-62 93.5q0 30 18 30q16 0 63 -48q18 -17 48.5 -32t64.5 -15q70 0 124.5 36t54.5 78q0 27 -36 69t-79.5 79.5t-79.5 80.5t-36 68t10 53t22 41q39 43 121.5 79t138.5 36q29 0 49 -19t20 -40q0 -10 -21 -16t-63.5 -15.5t-75.5 -22.5q-115 -44 -115 -85
q0 -22 117 -123q45 -39 81.5 -90.5t36.5 -93.5z" />
    <glyph glyph-name="sacute" unicode="&#x15b;" horiz-adv-x="426" 
d="M317 511q34 0 64 -37.5t30 -65.5q0 -17 -16 -17q-11 0 -34 17.5t-47 17.5t-75.5 -28t-51.5 -59q0 -23 92 -79q35 -22 63.5 -56.5t28.5 -74t-54.5 -77t-127 -37.5t-128 35t-55.5 66q0 13 6.5 20.5t16.5 7.5t28 -13q54 -39 112.5 -39t84.5 13.5t26 36t-29 48t-63.5 45.5
t-63.5 49t-29 59q0 53 83.5 110.5t138.5 57.5zM255.5 570.5q-7.5 8.5 -7.5 22t12.5 29.5t37 40t39 38t22.5 22t17 16q17 14 30.5 14t27 -19t13.5 -32.5t-2.5 -20t-6.5 -11t-13.5 -12t-17.5 -12.5t-25 -15.5t-28.5 -18.5t-24.5 -18t-19 -14q-26 -17 -36.5 -17t-18 8.5z" />
    <glyph glyph-name="Scircumflex" unicode="&#x15c;" horiz-adv-x="548" 
d="M163.5 902q8.5 3 15.5 3t15.5 -5t13.5 -11l24 -30t30 -35t20.5 -23.5t15.5 -19.5q16 -20 16 -32q0 -24 -26 -24q-16 0 -39 19t-36 35t-39 49q-28 -15 -58.5 -38.5t-50 -37.5t-33.5 -14t-23.5 9t-9.5 27t16 35.5t40.5 31.5t40.5 24t26 16t21.5 12t20 9zM468 214
q0 -82 -74 -137.5t-169.5 -55.5t-157.5 49.5t-62 93.5q0 30 18 30q16 0 63 -48q18 -17 48.5 -32t64.5 -15q70 0 124.5 36t54.5 78q0 27 -36 69t-79.5 79.5t-79.5 80.5t-36 68t10 53t22 41q39 43 121.5 79t138.5 36q29 0 49 -19t20 -40q0 -10 -21 -16t-63.5 -15.5
t-75.5 -22.5q-115 -44 -115 -85q0 -22 117 -123q45 -39 81.5 -90.5t36.5 -93.5z" />
    <glyph glyph-name="scircumflex" unicode="&#x15d;" horiz-adv-x="479" 
d="M124.5 737q8.5 3 15.5 3t15.5 -5t13.5 -11l24 -30t30 -35t20.5 -23.5t15.5 -19.5q16 -20 16 -32q0 -24 -26 -24q-16 0 -39 19t-36 35t-39 49q-28 -15 -58.5 -38.5t-50 -37.5t-33.5 -14t-23.5 9t-9.5 27t16 35.5t40.5 31.5t40.5 24t26 16t21.5 12t20 9zM317 511
q34 0 64 -37.5t30 -65.5q0 -17 -16 -17q-11 0 -34 17.5t-47 17.5t-75.5 -28t-51.5 -59q0 -23 92 -79q35 -22 63.5 -56.5t28.5 -74t-54.5 -77t-127 -37.5t-128 35t-55.5 66q0 13 6.5 20.5t16.5 7.5t28 -13q54 -39 112.5 -39t84.5 13.5t26 36t-29 48t-63.5 45.5t-63.5 49
t-29 59q0 53 83.5 110.5t138.5 57.5z" />
    <glyph glyph-name="Scedilla" unicode="&#x15e;" horiz-adv-x="539" 
d="M219 -36q31 0 62 -17.5t31 -43.5t-32 -49q-61 -45 -155 -45q-19 0 -31.5 7.5t-12.5 18.5t26.5 17t64.5 15t56 28q-7 9 -47.5 17.5t-40.5 19.5q0 14 16.5 48t21.5 46q-68 14 -114 57.5t-46 77t18 33.5q16 0 64 -48q17 -17 47.5 -32t64.5 -15q70 0 124.5 36t54.5 78
q0 27 -36 69t-79.5 79.5t-79.5 80.5t-36 68t10 53t22 41q39 43 121.5 79t138.5 36q29 0 49 -19t20 -40q0 -10 -21 -16t-63.5 -15.5t-75.5 -22.5q-115 -44 -115 -85q0 -22 118 -123q44 -39 80.5 -90.5t36.5 -93.5q0 -79 -68.5 -133.5t-169.5 -59.5q-8 -23 -27 -57h3z" />
    <glyph glyph-name="scedilla" unicode="&#x15f;" horiz-adv-x="426" 
d="M148 -53q31 0 62 -17.5t31 -43.5t-31 -49q-62 -45 -156 -45q-20 0 -32 7.5t-12 18.5t26.5 17t64.5 15t56 28q-7 9 -47.5 17.5t-40.5 18.5t8 28.5t20 43.5t17 40q-45 14 -76.5 41.5t-31.5 44.5t6.5 24.5t16.5 7.5t28 -13q54 -39 112.5 -39t84.5 13.5t26 36t-29 48
t-63.5 45.5t-63.5 49t-29 59q0 53 83.5 110.5t138.5 57.5q34 0 64 -37.5t30 -65.5q0 -17 -16 -17q-11 0 -34 17.5t-47 17.5t-75.5 -28t-51.5 -59q0 -23 92 -79q35 -22 63.5 -56.5t28.5 -74t-54.5 -77t-130.5 -37.5h-11q-7 -28 -30 -68h3z" />
    <glyph glyph-name="Scaron" unicode="&#x160;" horiz-adv-x="526" 
d="M545 943q29 0 29 -26q0 -14 -11 -25t-40 -29.5t-41 -27.5t-32 -27q-41 -34 -54 -34q-21 0 -85.5 64.5t-64.5 101.5q0 16 8.5 26.5t23 10.5t28.5 -17t39 -49.5t57 -57.5q50 46 88.5 68t54.5 22zM468 214q0 -82 -74 -137.5t-169.5 -55.5t-157.5 49.5t-62 93.5q0 30 18 30
q16 0 63 -48q18 -17 48.5 -32t64.5 -15q70 0 124.5 36t54.5 78q0 27 -36 69t-79.5 79.5t-79.5 80.5t-36 68t10 53t22 41q39 43 121.5 79t138.5 36q29 0 49 -19t20 -40q0 -10 -21 -16t-63.5 -15.5t-75.5 -22.5q-115 -44 -115 -85q0 -22 117 -123q45 -39 81.5 -90.5
t36.5 -93.5z" />
    <glyph glyph-name="scaron" unicode="&#x161;" horiz-adv-x="426" 
d="M317 511q34 0 64 -37.5t30 -65.5q0 -17 -16 -17q-11 0 -34 17.5t-47 17.5t-75.5 -28t-51.5 -59q0 -23 92 -79q35 -22 63.5 -56.5t28.5 -74t-54.5 -77t-127 -37.5t-128 35t-55.5 66q0 13 6.5 20.5t16.5 7.5t28 -13q54 -39 112.5 -39t84.5 13.5t26 36t-29 48t-63.5 45.5
t-63.5 49t-29 59q0 53 83.5 110.5t138.5 57.5zM412 722q29 0 29 -26q0 -14 -11.5 -25.5t-40.5 -29.5t-41 -27t-32 -26.5t-32 -26t-22 -8.5q-20 0 -85 64.5t-65 101.5q0 16 9 26.5t23.5 10.5t28.5 -17t39 -49.5t57 -57.5q50 46 88.5 68t54.5 22z" />
    <glyph glyph-name="uni0162" unicode="&#x162;" horiz-adv-x="521" 
d="M284 632l-171 -8q-16 0 -33 21t-17 41q0 18 57.5 23t252.5 5q101 0 166.5 -22t65.5 -49q0 -19 -33 -19t-92 4t-113 5q3 -10 3 -22q0 -37 -78 -344q-7 -27 -17.5 -73.5t-16.5 -71.5q-27 -104 -59 -158h4q30 0 61.5 -17.5t31.5 -43.5t-32 -49q-61 -45 -155 -45
q-20 0 -32.5 7.5t-12.5 18.5t27 17t65 15t56 28q-7 9 -48 17.5t-41 20t20.5 54t23.5 52.5t8 18q-8 14 -8 33.5t54 233t63 308.5z" />
    <glyph glyph-name="uni0163" unicode="&#x163;" horiz-adv-x="364" 
d="M102 -53q31 0 62.5 -17.5t31.5 -43.5t-32 -49q-63 -45 -156 -45q-19 0 -31.5 7.5t-12.5 18.5t26.5 17t64.5 15t56 28q-7 9 -47.5 17.5t-40.5 18.5t8 29t20.5 44.5t17 39t15.5 18.5q-28 26 -28 52.5t12 70t34.5 115t35.5 118.5q-47 -11 -63 -11t-31.5 16.5t-15.5 31.5
q0 24 130 46q18 83 18 147q0 30 20 30q17 0 42 -21.5t25 -48.5t-17 -95q57 5 91 5q60 0 60 -26q0 -15 -32.5 -25t-136.5 -31q-21 -79 -53 -180.5t-32 -123.5q0 -19 22 -19q38 0 92.5 21.5t60.5 21.5q18 0 18 -19q0 -29 -59.5 -67t-117.5 -38q-9 0 -29 4q-5 -26 -31 -72h3z
" />
    <glyph glyph-name="Tcaron" unicode="&#x164;" horiz-adv-x="521" 
d="M271 632l-171 -8q-16 0 -33 21t-17 41q0 18 57.5 23t252.5 5q101 0 166.5 -22t65.5 -49q0 -19 -33 -19t-92 4t-113 5q3 -10 3 -22q0 -37 -78 -344q-8 -32 -24 -100t-23 -95q-15 -53 -26 -53q-15 0 -33.5 22.5t-18.5 45.5t54 236.5t63 308.5zM333 733q-20 0 -85 64.5
t-65 101.5q0 16 9 26.5t23.5 10.5t28.5 -17t39 -49.5t57 -57.5q50 46 88.5 68t54.5 22q29 0 29 -26q0 -14 -11.5 -25.5t-40.5 -29.5t-41 -27t-32 -26.5t-32 -26t-22 -8.5z" />
    <glyph glyph-name="tcaron" unicode="&#x165;" horiz-adv-x="432" 
d="M356 737.5q17 13.5 40 13.5t46.5 -21t23.5 -51q0 -52 -50 -95.5t-90 -43.5q-22 0 -22 18q0 13 40.5 45.5t46.5 56.5q-7 11 -29.5 22.5t-22.5 26.5t17 28.5zM333 501q60 0 60 -26q0 -15 -32.5 -25t-137.5 -31q-19 -76 -51.5 -181t-32.5 -123.5t22 -18.5q38 0 92.5 21.5
t60.5 21.5q18 0 18 -19q0 -29 -59.5 -67t-107.5 -38t-80 26.5t-32 54.5t11.5 71.5t34.5 115.5t35 118q-47 -11 -63 -11t-31.5 16.5t-15.5 31.5q0 24 130 46q18 83 18 147q0 30 21 30q16 0 41 -21.5t25 -48.5t-17 -95q57 5 91 5z" />
    <glyph glyph-name="Tbar" unicode="&#x166;" horiz-adv-x="556" 
d="M232 399v235h-222v80h535v-80h-223v-235h148v-74h-148v-325h-90v325h-149v74h149z" />
    <glyph glyph-name="tbar" unicode="&#x167;" horiz-adv-x="360" 
d="M266 62q42 0 73 11v-67q-13 -6 -39 -11t-54 -5q-154 0 -154 171v119h-68v66h68v122h-76v42l77 35l35 114h52v-123h155v-68h-155v-122h146v-66h-146v-114q0 -52 21 -78t65 -26z" />
    <glyph glyph-name="Utilde" unicode="&#x168;" horiz-adv-x="730" 
d="M99 731q-33 0 -33 33.5t39 74t79 40.5q24 0 42.5 -12t27.5 -26q25 -41 43 -44q17 3 38.5 36.5t40.5 33.5q25 0 25 -34.5t-32 -71.5t-69 -37q-54 0 -112 88q-19 -9 -34.5 -30t-27.5 -36t-27 -15zM173 712.5q4 6.5 18.5 6.5t38.5 -26.5t24 -62t-40.5 -193.5t-40.5 -214.5
t21 -91.5t54 -35t73 38t74.5 99.5t58 150t23.5 178.5q0 42 -4.5 84t-4.5 52q0 21 18 21q23 0 53 -34.5t30 -88.5q0 -154 -45 -289t-121 -215.5t-162 -80.5q-63 0 -109.5 61t-46.5 140t42 248.5t42 228.5q0 17 4 23.5z" />
    <glyph glyph-name="utilde" unicode="&#x169;" horiz-adv-x="618" 
d="M42 566q-33 0 -33 33.5t39 74t79 40.5q24 0 42.5 -12t27.5 -26q25 -41 43 -44q17 3 38.5 36.5t40.5 33.5q25 0 25 -34.5t-32 -71.5t-69 -37q-54 0 -112 88q-19 -9 -34.5 -30t-27.5 -36t-27 -15zM393 505q4 6 17.5 6t33 -26t19.5 -50q0 -13 -44 -154t-68 -224
q-12 -42 -34 -42q-13 0 -22 11t-9 40t23 105q-42 -68 -91 -112t-89.5 -44t-76.5 38t-36 78q0 95 55.5 237.5t92.5 142.5q18 0 31.5 -16.5t13.5 -37.5q0 -9 -27 -64.5t-54 -130t-27 -130.5q0 -16 10 -26.5t24 -10.5q38 0 90.5 67t95.5 156t64 165q4 16 8 22z" />
    <glyph glyph-name="Umacron" unicode="&#x16a;" horiz-adv-x="592" 
d="M490.5 871.5q37.5 -4.5 37.5 -19t-30 -21t-144 -19.5t-117 -13q-19 0 -36.5 17.5t-17.5 31.5q0 28 175 28q95 0 132.5 -4.5zM168 712.5q4 6.5 18.5 6.5t39 -26.5t24.5 -62t-41 -193.5t-41 -214.5t21 -91.5t54 -35t73 38t74.5 99.5t58 150t23.5 178.5q0 42 -4.5 84
t-4.5 52q0 21 18 21q23 0 53 -34.5t30 -88.5q0 -154 -45 -289t-121 -215.5t-162 -80.5q-63 0 -109.5 61t-46.5 140t42 248.5t42 228.5q0 17 4 23.5z" />
    <glyph glyph-name="umacron" unicode="&#x16b;" horiz-adv-x="479" 
d="M310 655q95 0 132.5 -4.5t37.5 -19t-30 -21t-144.5 -19.5t-117.5 -13q-19 0 -36.5 17t-17.5 32q0 28 176 28zM392 505q4 6 17.5 6t33 -26t19.5 -50q0 -13 -44 -154t-68 -224q-12 -42 -34 -42q-13 0 -22 11t-9 40t23 105q-42 -68 -91 -112t-89.5 -44t-76.5 38t-36 78
q0 95 55.5 237.5t92.5 142.5q17 0 30.5 -16.5t13.5 -31.5t-27 -71q-80 -168 -80 -260q0 -16 10 -26.5t24 -10.5q38 0 90.5 67t95.5 156t64 165q4 16 8 22z" />
    <glyph glyph-name="Ubreve" unicode="&#x16c;" horiz-adv-x="730" 
d="M179 815q17 -15 43.5 -15t49 15.5t38.5 30.5t29 15q23 0 23 -23q0 -33 -50.5 -69.5t-101 -36.5t-91.5 35.5t-41 73.5q0 25 14.5 40t27 15t20.5 -15t15 -33t24 -33zM173 712.5q4 6.5 18.5 6.5t38.5 -26.5t24 -62t-40.5 -193.5t-40.5 -214.5t21 -91.5t54 -35t73 38
t74.5 99.5t58 150t23.5 178.5q0 42 -4.5 84t-4.5 52q0 21 18 21q23 0 53 -34.5t30 -88.5q0 -154 -45 -289t-121 -215.5t-162 -80.5q-63 0 -109.5 61t-46.5 140t42 248.5t42 228.5q0 17 4 23.5z" />
    <glyph glyph-name="ubreve" unicode="&#x16d;" horiz-adv-x="618" 
d="M121 650q17 -15 43.5 -15t49 15.5t38.5 30.5t29 15q23 0 23 -23q0 -33 -50.5 -69.5t-101 -36.5t-91.5 35.5t-41 73.5q0 25 14.5 40t27 15t20.5 -15t15 -33t24 -33zM393 505q4 6 17.5 6t33 -26t19.5 -50q0 -13 -44 -154t-68 -224q-12 -42 -34 -42q-13 0 -22 11t-9 40
t23 105q-42 -68 -91 -112t-89.5 -44t-76.5 38t-36 78q0 95 55.5 237.5t92.5 142.5q18 0 31.5 -16.5t13.5 -37.5q0 -9 -27 -64.5t-54 -130t-27 -130.5q0 -16 10 -26.5t24 -10.5q38 0 90.5 67t95.5 156t64 165q4 16 8 22z" />
    <glyph glyph-name="Uring" unicode="&#x16e;" horiz-adv-x="592" 
d="M399.5 839q10.5 14 10.5 32.5t-7.5 29t-20 10.5t-23 -14.5t-10.5 -32.5t7.5 -28.5t20 -10.5t23 14zM314 797q-23 25 -23 64t29.5 72.5t66.5 33.5t59.5 -25.5t22.5 -64t-29.5 -72t-66 -33.5t-59.5 25zM168 712.5q4 6.5 18.5 6.5t39 -26.5t24.5 -62t-41 -193.5t-41 -214.5
t21 -91.5t54 -35t73 38t74.5 99.5t58 150t23.5 178.5q0 42 -4.5 84t-4.5 52q0 21 18 21q23 0 53 -34.5t30 -88.5q0 -154 -45 -289t-121 -215.5t-162 -80.5q-63 0 -109.5 61t-46.5 140t42 248.5t42 228.5q0 17 4 23.5z" />
    <glyph glyph-name="uring" unicode="&#x16f;" horiz-adv-x="479" 
d="M392 505q4 6 17.5 6t33 -26t19.5 -50q0 -13 -44 -154t-68 -224q-12 -42 -34 -42q-13 0 -22 11t-9 40t23 105q-42 -68 -91 -112t-89.5 -44t-76.5 38t-36 78q0 95 55.5 237.5t92.5 142.5q17 0 30.5 -16.5t13.5 -31.5t-27 -71q-80 -168 -80 -260q0 -16 10 -26.5t24 -10.5
q38 0 90.5 67t95.5 156t64 165q4 16 8 22zM390.5 584.5q-29.5 -33.5 -66 -33.5t-59.5 25t-23 64t29.5 72.5t66.5 33.5t59.5 -25.5t22.5 -64t-29.5 -72zM353.5 679.5q-7.5 10.5 -20 10.5t-22.5 -14t-10 -32.5t7.5 -29t19.5 -10.5t22.5 14t10.5 32.5t-7.5 29z" />
    <glyph glyph-name="Uhungarumlaut" unicode="&#x170;" horiz-adv-x="592" 
d="M549.5 972q13.5 -16 13.5 -31.5t-5 -26t-10 -16.5t-19.5 -22t-20.5 -23.5t-14 -17t-12 -14.5t-10.5 -12t-10.5 -11t-9 -8q-10 -7 -20.5 -7t-16.5 8.5t-6 23t20.5 50.5t27 47.5t10 18t8.5 15t8 13.5t7 10.5t7 8.5t7 6q6 4 19 4t26.5 -16zM331 977q11 19 29.5 19t33 -16.5
t14.5 -30.5t-2 -20.5t-7 -15t-9 -14.5t-13.5 -19t-33.5 -47.5t-34 -42.5t-20 -8t-16 9t-6 18.5t2.5 19t5.5 17.5t10.5 25.5t21 52t24.5 53.5zM168 712.5q4 6.5 18.5 6.5t39 -26.5t24.5 -62t-41 -193.5t-41 -214.5t21 -91.5t54 -35t73 38t74.5 99.5t58 150t23.5 178.5
q0 42 -4.5 84t-4.5 52q0 21 18 21q23 0 53 -34.5t30 -88.5q0 -154 -45 -289t-121 -215.5t-162 -80.5q-63 0 -109.5 61t-46.5 140t42 248.5t42 228.5q0 17 4 23.5z" />
    <glyph glyph-name="uhungarumlaut" unicode="&#x171;" horiz-adv-x="479" 
d="M392 505q4 6 17.5 6t33 -26t19.5 -50q0 -13 -44 -154t-68 -224q-12 -42 -34 -42q-13 0 -22 11t-9 40t23 105q-42 -68 -91 -112t-89.5 -44t-76.5 38t-36 78q0 95 55.5 237.5t92.5 142.5q17 0 30.5 -16.5t13.5 -31.5t-27 -71q-80 -168 -80 -260q0 -16 10 -26.5t24 -10.5
q38 0 90.5 67t95.5 156t64 165q4 16 8 22zM327.5 659q-9.5 -13 -33 -48t-34.5 -42.5t-20.5 -7.5t-15.5 9t-6 19.5t3 20.5t13 32.5t20 49.5t18 44q17 39 38 39t35 -16.5t14 -30.5t-2 -20.5t-7 -15t-9 -14.5t-13.5 -19zM382 562q-21 0 -21 24q0 23 47 106q6 11 9.5 17.5
t8.5 15t8 13.5t7 10.5t7 8.5t6 5q7 5 20 5t26.5 -16t13.5 -31.5t-5 -26t-10 -16.5t-19.5 -22t-20.5 -23.5t-14 -17t-12 -14.5t-10.5 -12t-10.5 -11t-10 -8q-9 -7 -20 -7z" />
    <glyph glyph-name="Uogonek" unicode="&#x172;" horiz-adv-x="579" 
d="M196 -79q0 -19 39 -19q12 0 28 5.5t25 5.5t18 -8.5t9 -19.5q0 -24 -38.5 -37t-74 -13t-61.5 19.5t-26 45.5q0 53 69 124q-45 22 -74.5 74t-29.5 108q0 85 42 254.5t42 228.5q0 17 4 23.5t18.5 6.5t39 -26.5t24.5 -62t-41 -193.5t-41 -214.5t21 -91.5t54 -35t73 38
t74.5 99.5t58 150t23.5 178.5q0 42 -4.5 84t-4.5 52q0 21 18 21q23 0 53 -34.5t30 -88.5q0 -141 -38.5 -267.5t-103.5 -209t-142 -102.5q-9 -11 -32 -29q-52 -42 -52 -67z" />
    <glyph glyph-name="uogonek" unicode="&#x173;" horiz-adv-x="479" 
d="M309 -100q16 6 25.5 6t18.5 -9t9 -20q0 -24 -38.5 -36.5t-74 -12.5t-61.5 19t-26 51.5t42 87.5t81 73q0 38 23 112q-42 -68 -91 -112t-89.5 -44t-76.5 38t-36 78q0 95 55.5 237.5t92.5 142.5q17 0 30.5 -16.5t13.5 -31.5t-27 -71q-80 -168 -80 -260q0 -16 10 -26.5
t24 -10.5q38 0 90.5 67t95.5 156t64 165q4 16 8 22t17.5 6t33 -26t19.5 -50q0 -13 -44 -154t-59 -192t-22 -61q-6 -19 -50 -56t-44 -59q0 -19 39 -19q11 0 27 6z" />
    <glyph glyph-name="Wcircumflex" unicode="&#x174;" horiz-adv-x="930" 
d="M341.5 902q8.5 3 15.5 3t15.5 -5t13.5 -11l24 -30t30 -35t20.5 -23.5t15.5 -19.5q16 -20 16 -32q0 -24 -26 -24q-16 0 -39 19t-36 35t-39 49q-28 -15 -58.5 -38.5t-50 -37.5t-33.5 -14t-23.5 9t-9.5 27t16 35.5t40.5 31.5t40.5 24t26 16t21.5 12t20 9zM498 719
q117 0 177 -93t60 -234t-69.5 -256.5t-160.5 -115.5q-64 0 -94 72t-39 205q-42 -59 -96 -134q-104 -144 -146 -144q-16 0 -37 26t-21 65.5t27 247t27 323.5q0 37 22 37t51.5 -26t29.5 -47.5t-33.5 -211.5t-41.5 -298q61 103 137.5 190.5t109.5 87.5q34 0 47 -150
q5 -56 19.5 -103t39.5 -47q56 0 97.5 90.5t41.5 200.5q0 122 -54 188q-28 35 -61.5 35t-57 23t-23.5 40q0 29 48 29z" />
    <glyph glyph-name="wcircumflex" unicode="&#x175;" horiz-adv-x="786" 
d="M271.5 737q8.5 3 15.5 3t15.5 -5t13.5 -11l24 -30t30 -35t20.5 -23.5t15.5 -19.5q16 -20 16 -32q0 -24 -26 -24q-16 0 -39 19t-36 35t-39 49q-28 -15 -58.5 -38.5t-50 -37.5t-33.5 -14t-23.5 9t-9.5 27t16 35.5t40.5 31.5t40.5 24t26 16t21.5 12t20 9zM433 405l-7 -188
q0 -78 7 -113q43 45 74.5 105.5t47 112.5t27 97.5t21.5 72.5t23 27q19 0 34 -15.5t15 -35.5q0 -51 -46 -168q-39 -108 -102 -197.5t-98 -89.5t-52.5 39t-19.5 149.5t3 191.5q-69 -188 -122 -284t-84 -96q-14 0 -29.5 13t-24.5 34q-22 53 -37.5 202.5t-15.5 213.5q0 41 25 41
q22 0 40.5 -25t21.5 -49.5t5.5 -136t18.5 -198.5q41 71 82.5 178t68 168t48.5 61q33 0 54.5 -30.5t21.5 -79.5z" />
    <glyph glyph-name="Ycircumflex" unicode="&#x176;" horiz-adv-x="565" 
d="M161.5 902q8.5 3 15.5 3t15.5 -5t13.5 -11l24 -30t30 -35t20.5 -23.5t15.5 -19.5q16 -20 16 -32q0 -24 -26 -24q-16 0 -39 19t-36 35t-39 49q-28 -15 -58.5 -38.5t-50 -37.5t-33.5 -14t-23.5 9t-9.5 27t16 35.5t40.5 31.5t40.5 24t26 16t21.5 12t20 9zM327 373
q18 0 65.5 85.5t97 171.5t70.5 86t34 -15t13 -36t-38 -84t-102 -166.5t-128 -224.5t-88 -151t-39 -30q-22 0 -22 36q0 28 28 85q9 17 14 28.5t16 32.5t17 32.5t18.5 36t18.5 35.5q-59 15 -108.5 74.5t-75.5 133t-26 143.5t40 70q16 0 25.5 -31t23.5 -89t37 -106.5t55 -82.5
t54 -34z" />
    <glyph glyph-name="ycircumflex" unicode="&#x177;" horiz-adv-x="509" 
d="M136.5 737q8.5 3 15.5 3t15.5 -5t13.5 -11l24 -30t30 -35t20.5 -23.5t15.5 -19.5q16 -20 16 -32q0 -24 -26 -24q-16 0 -39 19t-36 35t-39 49q-28 -15 -58.5 -38.5t-50 -37.5t-33.5 -14t-23.5 9t-9.5 27t16 35.5t40.5 31.5t40.5 24t26 16t21.5 12t20 9zM456.5 487.5
q18.5 -23.5 18.5 -52.5q0 -20 -41 -136t-55.5 -157.5t-39 -110t-47.5 -133.5q-50 -143 -150 -143q-57 0 -109 34.5t-52 71.5q0 14 12.5 31t21.5 17t29 -22q58 -66 99 -66q31 0 56 54.5t47.5 123t25 75.5t6 18t6.5 20q-71 -97 -140 -97q-42 0 -77.5 39t-35.5 92t26 143
t61 156t57 66q18 0 33.5 -16.5t15.5 -33.5t-26 -71q-81 -166 -81 -258q0 -16 10 -26.5t24 -10.5q36 0 86 64t92 152q35 74 73 189q4 11 20 11t34.5 -23.5z" />
    <glyph glyph-name="Ydieresis" unicode="&#x178;" horiz-adv-x="575" 
d="M440 925q16 0 36.5 -39t20.5 -54t-8.5 -24t-17.5 -9q-22 0 -49 26.5t-27 45.5t14.5 36.5t30.5 17.5zM259 907.5q15 17.5 30.5 17.5t36.5 -39t21 -54t-9 -24t-18 -9q-22 0 -49 26.5t-27 45.5t15 36.5zM327 373q18 0 65.5 85.5t97 171.5t70.5 86t34 -15t13 -36t-38 -84
t-102 -166.5t-128 -224.5t-88 -151t-39 -30q-22 0 -22 36q0 28 28 85q9 17 14 28.5t16 32.5t17 32.5t18.5 36t18.5 35.5q-59 15 -108.5 74.5t-75.5 133t-26 143.5t40 70q16 0 25.5 -31t23.5 -89t37 -106.5t55 -82.5t54 -34z" />
    <glyph glyph-name="Zacute" unicode="&#x179;" horiz-adv-x="620" 
d="M384 792q-8 8 -8 21.5t12.5 29t49.5 53.5q24 22 40.5 38.5t25.5 23.5q17 15 30.5 15t27 -19t13.5 -32.5t-2.5 -20t-6.5 -11t-13.5 -12t-17.5 -12.5t-25 -15.5t-28.5 -18.5t-24.5 -18t-19 -14t-14 -8q-12 -8 -22 -8t-18 8zM534 633q28 -34 28 -66t-41.5 -85.5t-101 -106
t-119.5 -102.5t-101.5 -89t-41.5 -51t7 -19t19 -7q53 0 169.5 16.5t150.5 16.5t34 -24q0 -32 -125 -63.5t-252 -31.5q-38 0 -69.5 34.5t-31.5 68t43.5 84t105 102.5t122.5 103q149 123 149 166q0 19 -45.5 31.5t-97 12.5t-95 -7.5t-53.5 -7.5q-22 0 -43 23t-21 42
q-2 18 66 31q35 6 81 6q106 0 196 -30q39 -13 67 -47z" />
    <glyph glyph-name="zacute" unicode="&#x17a;" horiz-adv-x="432" 
d="M220 511q77 0 124 -20q22 -9 40.5 -36.5t18.5 -45.5q0 -38 -46.5 -87t-101.5 -87t-101.5 -73t-46.5 -47q0 -17 26 -17q57 0 140 8t100 8q38 0 38 -23q0 -32 -100 -54t-193 -22q-43 0 -78.5 32.5t-35.5 59.5t50 72.5t110.5 87t110.5 82.5t50 57q0 19 -101 19
q-26 0 -63 -5.5t-53.5 -5.5t-35 21t-18.5 36q0 19 44.5 29.5t121.5 10.5zM265.5 570.5q-7.5 8.5 -7.5 22t12.5 29.5t37 40t39 38t22.5 22t17 16q17 14 30.5 14t27 -19t13.5 -32.5t-2.5 -20t-6.5 -11t-13.5 -12t-17.5 -12.5t-25 -15.5t-28.5 -18.5t-24.5 -18t-19 -14
q-26 -17 -36.5 -17t-18 8.5z" />
    <glyph glyph-name="Zdotaccent" unicode="&#x17b;" horiz-adv-x="620" 
d="M426 788q-22 0 -50 26.5t-28 46.5t15.5 39t32 19t37 -42.5t20.5 -64.5q0 -7 -9 -15.5t-18 -8.5zM534 633q28 -34 28 -66t-41.5 -85.5t-101 -106t-119.5 -102.5t-101.5 -89t-41.5 -51t7 -19t19 -7q53 0 169.5 16.5t150.5 16.5t34 -24q0 -32 -125 -63.5t-252 -31.5
q-38 0 -69.5 34.5t-31.5 68t43.5 84t105 102.5t122.5 103q149 123 149 166q0 19 -45.5 31.5t-97 12.5t-95 -7.5t-53.5 -7.5q-22 0 -43 23t-21 42q-2 18 66 31q35 6 81 6q106 0 196 -30q39 -13 67 -47z" />
    <glyph glyph-name="zdotaccent" unicode="&#x17c;" horiz-adv-x="432" 
d="M308 567q-22 0 -50 26.5t-28 46.5t15.5 39t32 19t37 -42.5t20.5 -64.5q0 -7 -9 -15.5t-18 -8.5zM220 511q77 0 124 -20q22 -9 40.5 -36.5t18.5 -45.5q0 -38 -46.5 -87t-101.5 -87t-101.5 -73t-46.5 -47q0 -17 26 -17q57 0 140 8t100 8q38 0 38 -23q0 -32 -100 -54
t-193 -22q-43 0 -78.5 32.5t-35.5 59.5t50 72.5t110.5 87t110.5 82.5t50 57q0 19 -101 19q-26 0 -63 -5.5t-53.5 -5.5t-35 21t-18.5 36q0 19 44.5 29.5t121.5 10.5z" />
    <glyph glyph-name="Zcaron" unicode="&#x17d;" horiz-adv-x="620" 
d="M540 943q29 0 29 -26q0 -14 -11.5 -25.5t-40.5 -29.5t-41 -27t-32 -26.5t-32 -26t-22 -8.5q-20 0 -85 64.5t-65 101.5q0 16 9 26.5t23.5 10.5t28.5 -17t39 -49.5t57 -57.5q50 46 88.5 68t54.5 22zM534 633q28 -34 28 -66t-41.5 -85.5t-101 -106t-119.5 -102.5t-101.5 -89
t-41.5 -51t7 -19t19 -7q53 0 169.5 16.5t150.5 16.5t34 -24q0 -32 -125 -63.5t-252 -31.5q-38 0 -69.5 34.5t-31.5 68t43.5 84t105 102.5t122.5 103q149 123 149 166q0 19 -45.5 31.5t-97 12.5t-95 -7.5t-53.5 -7.5q-22 0 -43 23t-21 42q-2 18 66 31q35 6 81 6
q106 0 196 -30q39 -13 67 -47z" />
    <glyph glyph-name="zcaron" unicode="&#x17e;" horiz-adv-x="432" 
d="M98 500.5q44 10.5 120.5 10.5t125.5 -20q22 -9 40.5 -36.5t18.5 -45.5q0 -38 -46.5 -87t-101.5 -87t-101.5 -73t-46.5 -47q0 -17 26 -17q57 0 140 8t99 8q39 0 39 -23q0 -32 -100 -54t-193 -22q-43 0 -79 32.5t-36 59.5t50.5 72.5t110.5 86.5q161 112 161 140
q0 19 -102 19q-25 0 -62 -5.5t-53.5 -5.5t-35 21t-18.5 36q0 19 44 29.5zM422 722q29 0 29 -26q0 -14 -11.5 -25.5t-40.5 -29.5t-41 -27t-32 -26.5t-32 -26t-22 -8.5q-20 0 -85 64.5t-65 101.5q0 16 9 26.5t23 10.5t28.5 -17t39.5 -49.5t57 -57.5q50 46 88.5 68t54.5 22z
" />
    <glyph glyph-name="longs" unicode="&#x17f;" horiz-adv-x="326" 
d="M261 692q-46 0 -67 -28.5t-21 -86.5v-577h-88v577q0 188 177 188q49 0 100 -19l-23 -69q-44 15 -78 15z" />
    <glyph glyph-name="uni0180" unicode="&#x180;" horiz-adv-x="615" 
d="M339 545q106 0 163.5 -73t57.5 -204q0 -133 -58.5 -205.5t-162.5 -72.5q-54 0 -96.5 19.5t-69.5 58.5h-7q-15 -59 -18 -68h-63v605h-76v66h76v89h88v-89h213v-66h-213v-30q0 -55 -5 -110h5q54 80 166 80zM324 472q-81 0 -116 -46t-35 -155v-4q0 -110 36 -157t117 -47
q72 0 107.5 53t35.5 153q0 102 -35.5 152.5t-109.5 50.5z" />
    <glyph glyph-name="uni0181" unicode="&#x181;" horiz-adv-x="729" 
d="M151 637q-61 0 -61 -50q0 -30 10 -54h-79q-4 10 -7.5 26.5t-3.5 28.5q0 65 34.5 95.5t106.5 30.5h230q144 0 207.5 -43t63.5 -134q0 -63 -34.5 -104.5t-101.5 -53.5v-5q82 -14 121 -57t39 -114q0 -96 -66 -149.5t-182 -53.5h-251v637h-26zM267 410h132q84 0 122 27t38 90
q0 59 -41.5 84.5t-132.5 25.5h-118v-227zM267 335v-259h144q86 0 127.5 33.5t41.5 100.5q0 64 -44 94.5t-132 30.5h-137z" />
    <glyph glyph-name="uni0182" unicode="&#x182;" horiz-adv-x="615" 
d="M564 209q0 -105 -63.5 -157t-194.5 -52h-209v714h424v-79h-334v-223h106q137 0 204 -48.5t67 -154.5zM187 77h110q92 0 133 31t41 101q0 68 -43 96.5t-146 28.5h-95v-257z" />
    <glyph glyph-name="uni0183" unicode="&#x183;" horiz-adv-x="615" 
d="M339 545q106 0 163.5 -73t57.5 -204q0 -133 -58.5 -205.5t-162.5 -72.5q-54 0 -96.5 19.5t-69.5 58.5h-7q-15 -59 -18 -68h-63v760h421v-74h-333v-111q0 -55 -5 -110h5q54 80 166 80zM324 472q-81 0 -116 -46t-35 -155v-4q0 -110 36 -157t117 -47q72 0 107.5 53t35.5 153
q0 102 -35.5 152.5t-109.5 50.5z" />
    <glyph glyph-name="uni0184" unicode="&#x184;" horiz-adv-x="634" 
d="M180 210q0 -77 37.5 -110t122.5 -33q80 0 115.5 35.5t35.5 102.5q0 69 -48 99t-140 30h-123v-124zM90 714h90v-302h134q129 0 199.5 -53t70.5 -154t-63.5 -158t-179.5 -57q-251 0 -251 220v504z" />
    <glyph glyph-name="uni0185" unicode="&#x185;" horiz-adv-x="611" 
d="M322 -10q-115 0 -177.5 72.5t-62.5 204.5v493h88v-185q0 -55 -5 -110h5q54 80 166 80q106 0 163.5 -73t57.5 -204q0 -134 -61 -206t-174 -72zM170 265q0 -96 40.5 -149t112.5 -53t107.5 53t35.5 153q0 102 -35.5 152.5t-109.5 50.5q-81 0 -116 -46t-35 -155v-6z" />
    <glyph glyph-name="uni0186" unicode="&#x186;" horiz-adv-x="631" 
d="M243 724q158 0 243 -96t85 -272q0 -110 -39.5 -192.5t-114.5 -128t-174 -45.5q-55 0 -98 6.5t-86 22.5v78q94 -28 170 -28q115 0 181 77t66 211q0 137 -63.5 212.5t-183.5 75.5q-77 0 -162 -39l-36 76q84 42 212 42z" />
    <glyph glyph-name="uni0187" unicode="&#x187;" horiz-adv-x="631" 
d="M403 645q-115 0 -181 -77t-66 -211q0 -138 64 -213t182 -75q76 0 171 28v-78q-45 -17 -87 -23t-97 -6q-158 0 -243 96t-85 272q0 110 41 193t118.5 128t183.5 45q61 0 117 -14v14q0 64 27 99t88 35q30 0 60 -13v-72q-24 10 -52 10q-47 0 -47 -48v-51l-36 -78
q-33 15 -71.5 27t-86.5 12z" />
    <glyph glyph-name="uni0188" unicode="&#x188;" horiz-adv-x="502" 
d="M300 -10q-116 0 -180.5 71t-64.5 204q0 135 65.5 208t185.5 73q27 0 65 -6v91q0 64 26.5 99t88.5 35q29 0 60 -13v-73q-23 10 -52 10q-47 0 -47 -48v-124l-27 -73q-68 25 -116 25q-81 0 -119.5 -51t-38.5 -152q0 -97 38.5 -148.5t114.5 -51.5q71 0 139 31v-78
q-55 -29 -138 -29z" />
    <glyph glyph-name="uni0189" unicode="&#x189;" horiz-adv-x="729" 
d="M165 703q94 0 200.5 -49.5t183.5 -136.5t77 -179q0 -60 -84.5 -142.5t-195.5 -141t-184 -58.5q-19 0 -43.5 32.5t-24.5 63t41 183.5q-50 -4 -61.5 -4t-35.5 10t-24 27q0 23 44 32t100 17q52 187 57 252q-32 14 -51 35t-19 40t20 19zM534 349q0 62 -74 134t-172 105
q5 -17 5 -33q0 -42 -42 -188q13 1 35.5 1t43.5 -10.5t21 -27.5t-32.5 -25.5t-89.5 -17.5l-17 -56q-19 -66 -31 -145q69 9 154.5 60.5t142 110t56.5 92.5z" />
    <glyph glyph-name="uni018A" unicode="&#x18a;" horiz-adv-x="810" 
d="M654 361q0 136 -67 206t-203 70h-117v-560h97q290 0 290 284zM397 714q168 0 260 -92.5t92 -257.5q0 -177 -96.5 -270.5t-276.5 -93.5h-199v637h-26q-61 0 -61 -50q0 -30 10 -54h-79q-4 10 -7.5 26.5t-3.5 28.5q0 65 34.5 95.5t106.5 30.5h246z" />
    <glyph glyph-name="uni018B" unicode="&#x18b;" horiz-adv-x="615" 
d="M428 335h-82q-106 0 -154 -32t-48 -101q0 -63 44 -94t139 -31h101v258zM518 714v-714h-199q-268 0 -268 198q0 103 73.5 158.5t211.5 55.5h92v223h-334v79h424z" />
    <glyph glyph-name="uni018C" unicode="&#x18c;" horiz-adv-x="615" 
d="M289 63q80 0 117 43.5t37 143.5v16q0 112 -37.5 159.5t-117.5 47.5q-68 0 -105 -54t-37 -154t37 -151t106 -51zM530 0h-71l-13 72h-4q-56 -82 -167 -82q-104 0 -162 72.5t-58 204.5q0 131 58 205t163 74q108 0 166 -79h6q-1 10 -3.5 39.5t-2.5 39.5v140h-333v74h421v-760
z" />
    <glyph glyph-name="uni018D" unicode="&#x18d;" horiz-adv-x="604" 
d="M341 294q66 -38 95 -77t29 -87q0 -64 -48 -102t-132 -38q-51 0 -97 11.5t-109 42.5l38 69q37 -21 79 -36t93 -15q40 0 63.5 18.5t23.5 50.5q0 34 -26.5 60t-107.5 70q-104 57 -146 117t-42 136q0 115 66 180.5t184 65.5q112 0 179 -60.5t67 -163.5q0 -87 -54 -149.5
t-155 -92.5zM145 515q0 -62 30 -105.5t96 -77.5q92 22 139.5 74t47.5 131q0 67 -41.5 108.5t-112.5 41.5q-77 0 -118 -44.5t-41 -127.5z" />
    <glyph glyph-name="uni018E" unicode="&#x18e;" horiz-adv-x="556" 
d="M60 79h309v255h-291v78h291v223h-309v79h399v-714h-399v79z" />
    <glyph glyph-name="uni018F" unicode="&#x18f;" horiz-adv-x="738" 
d="M332 646q-110 0 -228 -41v82q61 21 114 29.5t116 8.5q162 0 252.5 -97.5t90.5 -271.5q0 -171 -85 -268.5t-237 -97.5q-147 0 -221.5 92t-74.5 275v34h523q-8 126 -71 190.5t-179 64.5zM355 69q100 0 159.5 63.5t67.5 179.5h-427q0 -125 49 -184t151 -59z" />
    <glyph glyph-name="uni0190" unicode="&#x190;" horiz-adv-x="587" 
d="M87 547q0 82 60.5 129.5t166.5 47.5q64 0 124 -18.5t109 -55.5l-43 -61q-52 36 -94 48.5t-94 12.5q-63 0 -99.5 -30.5t-36.5 -81.5q0 -60 48 -95.5t145 -35.5h97v-75h-102q-110 0 -165 -33t-55 -97q0 -67 48.5 -102.5t139.5 -35.5q105 0 214 52v-82q-90 -44 -219 -44
q-135 0 -206 52t-71 153q0 76 46.5 121t137.5 57v4q-72 12 -111.5 56.5t-39.5 113.5z" />
    <glyph glyph-name="uni0191" unicode="&#x191;" horiz-adv-x="519" 
d="M45 -240q-32 0 -56 13v76q21 -10 45 -10q35 0 49 20t14 62v793h399v-79h-309v-253h290v-79h-290v-386q0 -157 -142 -157z" />
    <glyph glyph-name="florin" unicode="&#x192;" horiz-adv-x="439" 
d="M52 -128q-30 0 -60 27t-30 56t16 29q3 0 24.5 -18.5t46.5 -18.5q28 0 52 77t78 322q-52 -13 -65.5 -13t-29.5 18.5t-16 36.5q0 27 131 49q46 206 88 276.5t123 70.5q50 0 81.5 -39.5t31.5 -93t-27 -53.5q-24 0 -38 53q-6 20 -18 36.5t-29 16.5q-31 0 -55 -60t-53 -195
q37 4 76 4q60 0 60 -27q0 -19 -36.5 -32.5t-117.5 -26.5q-53 -243 -82 -332t-63 -126t-88 -37z" />
    <glyph glyph-name="uni0193" unicode="&#x193;" horiz-adv-x="728" 
d="M407 377h247v-350q-57 -18 -115.5 -27.5t-135.5 -9.5q-163 0 -252.5 97t-89.5 270q0 112 44.5 195.5t128 127.5t197.5 44q71 0 137 -17v17q0 64 27 99t88 35q29 0 60 -13v-72q-24 10 -52 10q-47 0 -47 -48v-53l-34 -78q-94 41 -184 41q-127 0 -199 -77t-72 -211
q0 -142 68.5 -215.5t200.5 -73.5q72 0 140 17v212h-157v80z" />
    <glyph glyph-name="uni0194" unicode="&#x194;" horiz-adv-x="569" 
d="M334 108q33 -65 50 -121t17 -94q0 -59 -32 -96t-84 -37q-54 0 -85 37.5t-31 95.5q0 78 67 214l-236 607h94q89 -237 136.5 -362t54.5 -167q10 51 50 158l140 371h95zM319 -105q0 26 -8.5 62t-25.5 68q-19 -38 -26.5 -72t-7.5 -56q0 -31 9.5 -45t24.5 -14q34 0 34 57z" />
    <glyph glyph-name="uni0195" unicode="&#x195;" horiz-adv-x="934" 
d="M639 63q67 0 96.5 36t29.5 113v324h88v-327q0 -114 -51 -166.5t-163 -52.5q-110 0 -162 48.5t-52 147.5v157q0 65 -26 97t-83 32q-74 0 -108.5 -45.5t-34.5 -149.5v-277h-88v760h88v-223q0 -44 -5 -75h6q24 42 66 62.5t90 20.5q91 0 137 -46.5t46 -149.5v-157
q0 -65 30.5 -97t95.5 -32z" />
    <glyph glyph-name="uni0196" unicode="&#x196;" horiz-adv-x="348" 
d="M179 714v-549q0 -48 18 -72t59 -24q21 0 44 3.5t38 7.5v-74q-13 -6 -40 -11t-55 -5q-80 0 -116.5 41.5t-36.5 125.5v557h89z" />
    <glyph glyph-name="uni0197" unicode="&#x197;" horiz-adv-x="338" 
d="M298 0h-258v52l84 19v256h-90v78h90v237l-84 20v52h258v-52l-84 -20v-237h90v-78h-90v-256l84 -19v-52z" />
    <glyph glyph-name="uni0198" unicode="&#x198;" horiz-adv-x="619" 
d="M327 405l292 -405h-106q-30 40 -121 172q-71 103 -126 170l-79 -77v-265h-90v714h90v-360q28 35 60 72q21 24 185 225q29 38 54.5 53.5t66.5 15.5q30 0 50 -8v-70q-21 3 -44 3q-17 0 -31.5 -10t-36.5 -36z" />
    <glyph glyph-name="uni0199" unicode="&#x199;" horiz-adv-x="534" 
d="M172 363l-4 -87h4l30 38l34 41l171 181h103l-217 -229l232 -307h-106l-186 250l-61 -53v-197h-87v625q0 140 121 140q33 0 65 -13v-73q-23 10 -52 10q-23 0 -35 -13t-12 -45v-268z" />
    <glyph glyph-name="uni019A" unicode="&#x19a;" horiz-adv-x="257" 
d="M173 420h70v-66h-70v-354h-88v354h-70v66h70v340h88v-340z" />
    <glyph glyph-name="uni019B" unicode="&#x19b;" horiz-adv-x="541" 
d="M-6 0l231 526l-23 64l-106 -32l-19 63l99 30q-13 22 -29.5 32t-45.5 10q-30 0 -56 -6v71q33 8 66 8q53 0 87 -21t59 -69l109 33l19 -63l-102 -32l179 -498q10 -28 21.5 -41t28.5 -13q12 0 30 5v-65q-24 -12 -57 -12q-36 0 -58 18t-38 63l-73 205q-42 119 -50 159h-4
q-16 -62 -55 -154l-122 -281h-91z" />
    <glyph glyph-name="uni019C" unicode="&#x19c;" horiz-adv-x="1029" 
d="M180 714v-506q0 -70 29 -105t92 -35q84 0 124.5 47t40.5 147v452h90v-506q0 -70 29 -105t94 -35q84 0 123.5 49.5t39.5 164.5v432h90v-714h-71l-15 82h-5q-25 -42 -74 -67t-107 -25q-68 0 -110.5 24.5t-64.5 75.5h-5q-28 -48 -79.5 -74t-113.5 -26q-103 0 -150 53
t-47 165v506h90z" />
    <glyph glyph-name="uni019D" unicode="&#x19d;" horiz-adv-x="759" 
d="M97 714h104l22 -35l235 -362l124 -194h4q-1 12 -4 84t-3 104v403h84v-714h-105l-382 593h-4l2 -40q6 -89 6 -154v-482q0 -83 -34 -120t-101 -37q-32 0 -56 13v76q21 -10 45 -10q35 0 49 20t14 62v793z" />
    <glyph glyph-name="uni019E" unicode="&#x19e;" horiz-adv-x="618" 
d="M450 -240v583q0 64 -28.5 96.5t-91.5 32.5q-83 0 -120 -46.5t-37 -147.5v-278h-88v536h71l13 -73h5q25 40 70 61.5t99 21.5q99 0 146.5 -48t47.5 -149v-589h-87z" />
    <glyph glyph-name="uni019F" unicode="&#x19f;" horiz-adv-x="782" 
d="M720 358q0 -171 -86.5 -269.5t-242.5 -98.5q-158 0 -244 96.5t-86 272.5q0 174 85.5 270t245.5 96q155 0 241.5 -97.5t86.5 -269.5zM391 68q108 0 167.5 65t65.5 192h-467q6 -127 65.5 -192t168.5 -65zM392 646q-106 0 -165.5 -61.5t-69.5 -181.5h466q-9 121 -67.5 182
t-163.5 61z" />
    <glyph glyph-name="Ohorn" unicode="&#x1a0;" horiz-adv-x="784" 
d="M719 358q0 -173 -86.5 -270.5t-241.5 -97.5q-158 0 -244 96t-86 273q0 176 86 271t245 95t247 -104q33 9 48.5 39.5t15.5 99.5h95l7 -11q-15 -78 -47.5 -120.5t-83.5 -61.5q45 -85 45 -209zM156 358q0 -142 59.5 -216t175.5 -74t174.5 73t58.5 217q0 143 -58.5 215.5
t-173.5 72.5q-118 0 -177 -73.5t-59 -214.5z" />
    <glyph glyph-name="ohorn" unicode="&#x1a1;" horiz-adv-x="616" 
d="M551 269q0 -131 -66.5 -205t-183.5 -74q-73 0 -129 34t-86.5 97.5t-30.5 147.5q0 131 65.5 204t183.5 73q53 0 97.5 -18t76.5 -51q24 7 38.5 23.5t21.5 41t7 76.5h94l7 -11q-16 -79 -46.5 -121.5t-82.5 -61.5q34 -69 34 -155zM146 269q0 -105 38.5 -155.5t118.5 -50.5
q83 0 120 52t37 154q0 100 -38 151.5t-120 51.5q-83 0 -119.5 -51.5t-36.5 -151.5z" />
    <glyph glyph-name="uni01A2" unicode="&#x1a2;" horiz-adv-x="1075" 
d="M688 358q0 -173 -82.5 -270.5t-230.5 -97.5q-150 0 -232 96.5t-82 272.5q0 174 82 270t233 96q142 0 224 -91q28 43 78 67t110 24q102 0 149.5 -52.5t47.5 -165.5v-507h-90v507q0 70 -29 105t-92 35q-53 0 -86.5 -15t-52.5 -46q53 -92 53 -228zM156 358q0 -142 56 -216
t163 -74t162.5 73t55.5 217q0 143 -55 215.5t-162 72.5q-108 0 -164 -73.5t-56 -214.5z" />
    <glyph glyph-name="uni01A3" unicode="&#x1a3;" horiz-adv-x="845" 
d="M526 269q0 -132 -63.5 -205.5t-173.5 -73.5q-69 0 -122.5 34t-82.5 98t-29 147q0 130 62.5 203.5t173.5 73.5q106 0 169 -72q26 37 64 54.5t80 17.5q80 0 120 -47t40 -150v-589h-87v585q0 127 -92 127q-63 0 -94 -44q35 -63 35 -159zM146 269q0 -101 36.5 -153.5
t107.5 -52.5t108 52t37 154q0 101 -37 152t-108 51q-144 0 -144 -203z" />
    <glyph glyph-name="uni01A4" unicode="&#x1a4;" horiz-adv-x="685" 
d="M267 355h72q106 0 154 34.5t48 110.5q0 69 -44.5 103t-138.5 34h-91v-282zM366 714q268 0 268 -210q0 -109 -74.5 -167.5t-210.5 -58.5h-82v-278h-90v637h-26q-61 0 -61 -50q0 -30 10 -54h-79q-4 10 -7.5 26.5t-3.5 28.5q0 65 34.5 95.5t106.5 30.5h215z" />
    <glyph glyph-name="uni01A5" unicode="&#x1a5;" horiz-adv-x="615" 
d="M207 765q33 0 65 -13v-73q-23 10 -52 10q-23 0 -35 -13t-12 -45v-80q0 -30 -4 -68l-2 -20h6q31 44 72 63.5t95 19.5q104 0 162 -72.5t58 -204.5q0 -131 -58 -205t-163 -74q-108 0 -166 78h-6l2 -20q4 -38 4 -68v-220h-88l1 865q0 140 121 140zM324 472q-80 0 -115 -45
t-36 -141v-17q0 -109 36 -157.5t117 -48.5q67 0 105 54.5t38 152.5t-38 150t-107 52z" />
    <glyph glyph-name="uni01A6" unicode="&#x1a6;" horiz-adv-x="622" 
d="M187 271h107q87 0 127 34t40 102q0 67 -40.5 98t-131.5 31h-102v-265zM187 195v-195h-90v714h90v-100h107q133 0 196.5 -50.5t63.5 -152.5q0 -142 -143 -191l196 -320h-105l-173 295h-142z" />
    <glyph glyph-name="uni01A7" unicode="&#x1a7;" horiz-adv-x="548" 
d="M47 191q0 48 20 84t61 63.5t124 58.5q68 25 98.5 44t44 42t13.5 58q0 49 -36 76.5t-99 27.5q-72 0 -154 -38l-28 77q85 40 180 40q102 0 165 -49.5t63 -132.5q0 -76 -41.5 -125.5t-142.5 -86.5q-78 -28 -113 -48t-50 -43t-15 -56q0 -54 40.5 -84.5t120.5 -30.5
q91 0 200 47v-86q-34 -17 -85 -28t-111 -11q-120 0 -187.5 54t-67.5 147z" />
    <glyph glyph-name="uni01A8" unicode="&#x1a8;" horiz-adv-x="479" 
d="M45 148q0 37 15 64t46.5 48.5t99.5 46.5q88 34 113 53t25 49t-28 47.5t-83 17.5q-50 0 -132 -34l-30 70q81 36 156 36q98 0 149.5 -36.5t51.5 -105.5q0 -37 -14.5 -63t-45 -47t-106.5 -50q-53 -20 -81 -35.5t-39.5 -31t-11.5 -37.5q0 -39 32 -59t95 -20q84 0 170 43v-80
q-62 -34 -168 -34q-214 0 -214 158z" />
    <glyph glyph-name="uni01A9" unicode="&#x1a9;" horiz-adv-x="569" 
d="M36 0v74l234 299l-228 266v75h475v-80h-325l-47 1l225 -261l-235 -296l163 1h248v-79h-510z" />
    <glyph glyph-name="uni01AA" unicode="&#x1aa;" horiz-adv-x="309" 
d="M67 542q-60 0 -91.5 29.5t-31.5 82.5q0 54 32.5 82.5t92.5 28.5q63 0 96.5 -36t33.5 -105v-696q0 -49 18 -72.5t59 -23.5q19 0 43.5 3t38.5 8v-67q-15 -7 -41.5 -11.5t-52.5 -4.5q-80 0 -116 41t-36 126v615h-45zM63 693q-21 0 -30 -12t-9 -27q0 -40 49 -40h39v13
q0 35 -12.5 50.5t-36.5 15.5z" />
    <glyph glyph-name="uni01AB" unicode="&#x1ab;" horiz-adv-x="360" 
d="M222 -240q-29 0 -60 12v73q22 -9 50 -9q48 0 48 52v102h-11q-157 0 -157 166v312h-76v42l77 35l35 114h52v-123h155v-68h-155v-310q0 -46 22.5 -71t61.5 -25q17 0 40 3.5t35 7.5v-180q0 -133 -117 -133z" />
    <glyph glyph-name="uni01AC" unicode="&#x1ac;" horiz-adv-x="576" 
d="M151 635q-61 0 -61 -48q0 -30 10 -54h-79q-4 10 -7.5 26.5t-3.5 28.5q0 65 34.5 95.5t106.5 30.5h414v-79h-222v-635h-90v635h-102z" />
    <glyph glyph-name="uni01AD" unicode="&#x1ad;" horiz-adv-x="360" 
d="M180 536h155v-68h-155v-310q0 -46 22.5 -71t61.5 -25q17 0 40 3.5t35 7.5v-67q-12 -5 -38 -10.5t-52 -5.5q-157 0 -157 166v312h-76v42l77 35v66q0 154 147 154q39 0 77 -13v-73q-11 4 -34.5 7t-42.5 3q-32 0 -46 -17t-14 -51v-85z" />
    <glyph glyph-name="uni01AE" unicode="&#x1ae;" horiz-adv-x="556" 
d="M233 635h-223v79h535v-79h-222v-714q0 -42 14.5 -62t48.5 -20q24 0 45 10v-76q-24 -13 -63 -13q-68 0 -101.5 37t-33.5 120v718z" />
    <glyph glyph-name="Uhorn" unicode="&#x1af;" horiz-adv-x="779" 
d="M640 714v-97q40 5 59 37t19 106h93l7 -11q-16 -90 -59 -135.5t-119 -58.5v-303q0 -125 -70.5 -193.5t-200.5 -68.5q-133 0 -206 70.5t-73 193.5v460h90v-464q0 -86 47.5 -134t143.5 -48q88 0 134 46.5t46 136.5v463h89z" />
    <glyph glyph-name="uhorn" unicode="&#x1b0;" horiz-adv-x="673" 
d="M168 535v-344q0 -65 29 -96.5t90 -31.5q83 0 120.5 46t37.5 148v278h88v-59q39 6 57 37.5t18 105.5h93l7 -11q-16 -93 -59 -139.5t-116 -54.5v-414h-72l-13 71h-4q-24 -39 -67.5 -60t-100.5 -21q-98 0 -147.5 46.5t-49.5 148.5v350h89z" />
    <glyph glyph-name="uni01B1" unicode="&#x1b1;" horiz-adv-x="782" 
d="M391 68q114 0 173 62t59 183q0 110 -40.5 189t-126.5 140v72h288v-79h-178q74 -57 113 -141t39 -184q0 -150 -87 -235.5t-240 -85.5q-155 0 -241.5 85t-86.5 235q0 100 39 185t112 141h-177v79h288v-72q-87 -62 -127.5 -142t-40.5 -187q0 -120 59.5 -182.5t174.5 -62.5z
" />
    <glyph glyph-name="uni01B2" unicode="&#x1b2;" horiz-adv-x="600" 
d="M571 580q0 -53 -45 -157l-181 -423h-90l-255 714h94l162 -466q31 -88 45 -156q8 30 27 73q21 50 32 81l85 203q36 88 36 125q0 39 -16 55t-47 16q-24 0 -45 -10v76q22 13 63 13q135 0 135 -144z" />
    <glyph glyph-name="uni01B3" unicode="&#x1b3;" horiz-adv-x="565" 
d="M39 649q-21 0 -39 -8v73q28 11 60 11q37 0 59.5 -17.5t40.5 -57.5l128 -287l181 351h97l-233 -437v-277h-90v273l-162 341q-18 35 -42 35z" />
    <glyph glyph-name="uni01B4" unicode="&#x1b4;" horiz-adv-x="541" 
d="M485 546q33 0 57 -12v-65q-18 5 -30 5q-18 0 -28.5 -13t-21.5 -41l-183 -494q-32 -87 -79 -126.5t-116 -39.5q-37 0 -73 8v70q24 -6 59 -6q85 0 121 95l26 71l-216 538h94l116 -305q37 -100 45 -146h4q8 36 48 147l76 217q19 54 41 75.5t60 21.5z" />
    <glyph glyph-name="uni01B5" unicode="&#x1b5;" horiz-adv-x="571" 
d="M79 407h184l151 227h-364v80h473v-68l-159 -239h122v-71h-169l-170 -256h386v-80h-495v68l178 268h-137v71z" />
    <glyph glyph-name="uni01B6" unicode="&#x1b6;" horiz-adv-x="470" 
d="M57 313h161l109 155h-271v68h368v-66l-111 -157h101v-70h-151l-123 -175h291v-68h-392v58l130 185h-112v70z" />
    <glyph glyph-name="uni01B7" unicode="&#x1b7;" horiz-adv-x="583" 
d="M291 440q68 -2 122.5 -30t85 -76.5t30.5 -112.5q0 -109 -76 -170t-212 -61q-126 0 -206 39v82q49 -23 104 -35t103 -12q97 0 145 41t48 117q0 69 -49.5 107t-143.5 38h-62v65l206 202h-331v80h444v-71z" />
    <glyph glyph-name="uni01B8" unicode="&#x1b8;" horiz-adv-x="583" 
d="M85 643v71h444v-80h-330l205 -202v-65h-78q-84 0 -130.5 -40.5t-46.5 -113.5q0 -71 49.5 -110t143.5 -39q49 0 103.5 11.5t103.5 35.5v-82q-45 -21 -98.5 -30t-119.5 -9q-87 0 -149 27t-94.5 77t-32.5 117q0 68 30 119t84.5 79.5t123.5 30.5z" />
    <glyph glyph-name="uni01B9" unicode="&#x1b9;" horiz-adv-x="498" 
d="M61 472v64h409v-74h-306l219 -243v-61h-59q-101 0 -151.5 -42.5t-50.5 -124.5q0 -71 47 -114.5t126 -43.5q100 0 189 42v-80q-68 -35 -196 -35q-113 0 -183.5 63t-70.5 166q0 105 64.5 168t181.5 71z" />
    <glyph glyph-name="uni01BA" unicode="&#x1ba;" horiz-adv-x="498" 
d="M216 -167q84 0 160 36v-80q-60 -29 -161 -29q-90 0 -138.5 31t-48.5 88q0 62 46.5 91.5t137.5 29.5q80 0 114.5 27.5t34.5 94.5q0 60 -44.5 88t-142.5 28h-59v61l183 163h-270v74h394v-64l-187 -164q104 -5 159 -51.5t55 -133.5q0 -95 -59.5 -145.5t-175.5 -50.5
q-53 0 -78 -10.5t-25 -37.5q0 -21 26.5 -33.5t78.5 -12.5z" />
    <glyph glyph-name="uni01BB" unicode="&#x1bb;" horiz-adv-x="569" 
d="M78 419h241q27 44 39 82t12 81q0 50 -29.5 78t-82.5 28q-45 0 -81.5 -16.5t-73.5 -49.5l-47 59q93 84 204 84q94 0 147.5 -48.5t53.5 -132.5q0 -42 -10.5 -81.5t-35.5 -83.5h100v-70h-144q-11 -16 -23.5 -32.5t-201.5 -242.5v-4h374v-70h-472v73l175 215l47 61h-192v70z
" />
    <glyph glyph-name="uni01BC" unicode="&#x1bc;" horiz-adv-x="583" 
d="M224 634v-193h42q77 0 137 -27t93 -76.5t33 -116.5q0 -109 -76 -170t-212 -61q-126 0 -206 39v82q49 -23 104 -35t103 -12q97 0 145 41t48 117q0 68 -47 106.5t-130 38.5h-124v267h-79v80h444v-80h-275z" />
    <glyph glyph-name="uni01BD" unicode="&#x1bd;" horiz-adv-x="490" 
d="M198 462v-117h23q107 0 165.5 -46.5t58.5 -135.5q0 -82 -60.5 -127.5t-168.5 -45.5q-118 0 -183 35v79q89 -42 182 -42q69 0 106 26.5t37 79.5t-37.5 79t-115.5 26h-95v189h-62v74h364v-74h-214z" />
    <glyph glyph-name="uni01BE" unicode="&#x1be;" horiz-adv-x="462" 
d="M136 378v90h-91v42l92 35l35 114h52v-123h155v-68h-155v-92q0 -34 10.5 -49.5t36.5 -24.5q83 -31 115 -66.5t32 -87.5q0 -75 -56 -116.5t-158 -41.5q-105 0 -168 34v80q86 -43 170 -43q66 0 96.5 21.5t30.5 57.5q0 29 -24 49.5t-90 47.5q-47 20 -65 52t-18 89z" />
    <glyph glyph-name="uni01BF" unicode="&#x1bf;" horiz-adv-x="586" 
d="M173 -240h-88v776h72l12 -73h4q55 83 158 83q96 0 152 -59t56 -164q0 -91 -45.5 -164.5t-130 -117.5t-190.5 -51v-230zM173 62q131 17 203 85.5t72 173.5q0 69 -36 110t-99 41q-73 0 -106.5 -44t-33.5 -142v-224z" />
    <glyph glyph-name="uni01C0" unicode="&#x1c0;" horiz-adv-x="516" 
d="M297 -240h-78v1000h78v-1000z" />
    <glyph glyph-name="uni01C1" unicode="&#x1c1;" horiz-adv-x="516" 
d="M169 -240h-78v1000h78v-1000zM426 -240h-78v1000h78v-1000z" />
    <glyph glyph-name="uni01C2" unicode="&#x1c2;" horiz-adv-x="516" 
d="M65 402h154v358h78v-358h154v-72h-154v-124h154v-72h-154v-374h-78v374h-154v72h154v124h-154v72z" />
    <glyph glyph-name="uni01C3" unicode="&#x1c3;" horiz-adv-x="269" 
d="M163 201h-57l-25 513h107zM72 54q0 32 16 49.5t46 17.5t46 -18t16 -49t-16.5 -49.5t-45.5 -18.5q-30 0 -46 18t-16 50z" />
    <glyph glyph-name="uni01C4" unicode="&#x1c4;" horiz-adv-x="1291" 
d="M1010 887q29 0 29 -26q0 -14 -11.5 -25.5t-40.5 -29.5t-41 -27t-32 -26.5t-32 -26t-22 -8.5q-20 0 -85 64.5t-65 101.5q0 16 9 26.5t23 10.5t28.5 -17t39.5 -49.5t57 -57.5q50 46 88.5 68t54.5 22zM151 721q94 0 200.5 -49t183.5 -135.5t77 -179.5q0 -61 -84.5 -143.5
t-195.5 -141t-184 -58.5q-19 0 -43.5 32.5t-24.5 66t58 241.5t63 274q-32 13 -51 34t-19 40t20 19zM520 368q0 62 -74 134.5t-172 104.5q5 -18 5 -42.5t-17.5 -91.5t-63.5 -224q-19 -66 -31 -145q69 9 154.5 60.5t142 110.5t56.5 93zM1254 633q28 -34 28 -66t-41.5 -85.5
t-101 -106t-119.5 -102.5t-101.5 -89t-41.5 -51t7 -19t19 -7q53 0 169.5 16.5t150.5 16.5t34 -24q0 -32 -125 -63.5t-252 -31.5q-38 0 -69.5 34.5t-31.5 68t43.5 84t105 102.5t122.5 103q149 123 149 166q0 19 -45.5 31.5t-97 12.5t-95 -7.5t-53.5 -7.5q-22 0 -43 23t-21 42
q-2 18 66 31q35 6 81 6q106 0 196 -30q39 -13 67 -47z" />
    <glyph glyph-name="uni01C5" unicode="&#x1c5;" horiz-adv-x="1200" 
d="M983 722q29 0 29 -26q0 -14 -11.5 -25.5t-40.5 -29.5t-41 -27t-32 -26.5t-32 -26t-22 -8.5q-20 0 -85 64.5t-65 101.5q0 16 9 26.5t23 10.5t28.5 -17t39.5 -49.5t57 -57.5q50 46 88.5 68t54.5 22zM151 721q94 0 200.5 -49t183.5 -135.5t77 -179.5q0 -61 -84.5 -143.5
t-195.5 -141t-184 -58.5q-19 0 -43.5 32.5t-24.5 66t58 241.5t63 274q-32 13 -51 34t-19 40t20 19zM520 368q0 62 -74 134.5t-172 104.5q5 -18 5 -42.5t-17.5 -91.5t-63.5 -224q-19 -66 -31 -145q69 9 154.5 60.5t142 110.5t56.5 93zM828 500.5q44 10.5 120.5 10.5
t125.5 -20q22 -9 40.5 -36.5t18.5 -45.5q0 -38 -46.5 -87t-101.5 -87t-101.5 -73t-46.5 -47q0 -17 26 -17q57 0 140 8t99 8q39 0 39 -23q0 -32 -100 -54t-193 -22q-43 0 -79 32.5t-36 59.5t50.5 72.5t110.5 86.5q161 112 161 140q0 19 -102 19q-25 0 -62 -5.5t-53.5 -5.5
t-35 21t-18.5 36q0 19 44 29.5z" />
    <glyph glyph-name="uni01C6" unicode="&#x1c6;" horiz-adv-x="1084" 
d="M870 722q29 0 29 -26q0 -14 -11.5 -25.5t-40.5 -29.5t-41 -27t-32 -26.5t-32 -26t-22 -8.5q-20 0 -85 64.5t-65 101.5q0 16 9 26.5t23 10.5t28.5 -17t39.5 -49.5t57 -57.5q50 46 88.5 68t54.5 22zM459 791q16 0 39.5 -29.5t23.5 -55.5t-25 -147.5t-58 -251.5
q-72 -292 -95 -292q-14 0 -30.5 17.5t-16.5 30.5t7 52q-98 -100 -171 -100q-44 0 -79.5 40t-35.5 83q0 62 33.5 147.5t96.5 155.5t134 70t99 -85q51 212 56 335q0 30 22 30zM349 300q0 54 -18.5 91t-44.5 37q-43 0 -88 -53t-71.5 -121.5t-26.5 -118.5q0 -18 13 -29t31 -11
q39 0 105.5 56t96.5 132l3 12v5zM713 500.5q44 10.5 120.5 10.5t125.5 -20q22 -9 40.5 -36.5t18.5 -45.5q0 -38 -46.5 -87t-101.5 -87t-101.5 -73t-46.5 -47q0 -17 26 -17q57 0 140 8t99 8q39 0 39 -23q0 -32 -100 -54t-193 -22q-43 0 -79 32.5t-36 59.5t50.5 72.5
t110.5 86.5q161 112 161 140q0 19 -102 19q-25 0 -62 -5.5t-53.5 -5.5t-35 21t-18.5 36q0 19 44 29.5z" />
    <glyph glyph-name="uni01C7" unicode="&#x1c7;" horiz-adv-x="796" 
d="M203.5 718q4.5 7 19 7t36.5 -25t22 -53q0 -70 -86 -354q-43 -138 -43 -165t26 -27q113 0 248 37q43 12 51.5 12t11.5 -3.5t3 -13.5q0 -42 -102.5 -79t-208.5 -37q-48 0 -83.5 28t-35.5 66.5t68.5 276.5t68.5 307q0 16 4.5 23zM532 165q0 29 18 29q11 0 60 -50
q19 -18 46 -33.5t53 -15.5q33 0 60.5 69.5t76.5 248t79 227.5q-44 -7 -123.5 -26t-95.5 -19q-37 0 -37 25q0 34 124.5 69t182.5 35q18 0 31.5 -8t13.5 -23.5t-14 -56.5q-62 -181 -81 -246q-65 -237 -99 -307t-101.5 -70t-130.5 56t-63 96z" />
    <glyph glyph-name="uni01C8" unicode="&#x1c8;" horiz-adv-x="782" 
d="M203.5 718q4.5 7 19 7t36.5 -25t22 -53q0 -70 -86 -354q-43 -138 -43 -165t26 -27q113 0 248 37q43 12 51.5 12t11.5 -3.5t3 -13.5q0 -42 -102.5 -79t-208.5 -37q-48 0 -83.5 28t-35.5 66.5t68.5 276.5t68.5 307q0 16 4.5 23zM375 -121q43 -55 71 -55t47 30t37 94.5
t34 132.5t41.5 180t49.5 201q15 49 29 49q17 0 35 -21.5t18 -46.5q0 -23 -31 -139.5t-55 -209.5t-47 -182q-43 -157 -156 -157q-50 0 -97.5 42t-47.5 72q0 13 10.5 30.5t19.5 17.5q11 0 23 -14.5t19 -23.5zM712 691q16 18 33 18t39.5 -40.5t22.5 -67.5q0 -10 -9 -18t-18 -8
q-24 0 -54 29t-30 49t16 38z" />
    <glyph glyph-name="uni01C9" unicode="&#x1c9;" horiz-adv-x="516" 
d="M228 707q0 -188 -78 -488q-50 -204 -70 -204q-14 0 -32.5 22t-18.5 34t29 124t58 275.5t29 294.5q0 14 4 20t17 6t37.5 -28.5t24.5 -55.5zM109 -121q43 -55 71 -55t47 30t37 94.5t34 132.5t41.5 180t49.5 201q15 49 29 49q17 0 35 -21.5t18 -46.5q0 -23 -31 -139.5
t-55 -209.5t-47 -182q-43 -157 -156 -157q-50 0 -97.5 42t-47.5 72q0 13 10.5 30.5t19.5 17.5q11 0 23 -14.5t19 -23.5zM446 691q16 18 33 18t39.5 -40.5t22.5 -67.5q0 -10 -9 -18t-18 -8q-24 0 -54 29t-30 49t16 38z" />
    <glyph glyph-name="uni01CA" unicode="&#x1ca;" horiz-adv-x="1033" 
d="M562 680q2 43 20.5 43t40.5 -23t22 -41q0 -82 -25.5 -233t-68 -280t-80.5 -129q-13 0 -29.5 13t-25.5 32q-30 70 -177 444q-30 -116 -66.5 -262.5t-48.5 -186.5t-21 -40q-13 0 -31.5 22.5t-18.5 46.5t65 281.5t67 321.5q0 32 17 32q11 0 30.5 -18.5t28.5 -40.5
q161 -418 204 -512q65 172 87 411q10 110 10 119zM768 165q0 29 18 29q11 0 60 -50q19 -18 46 -33.5t53 -15.5q33 0 60.5 69.5t76.5 248t79 227.5q-44 -7 -123.5 -26t-95.5 -19q-37 0 -37 25q0 34 124.5 69t182.5 35q18 0 31.5 -8t13.5 -23.5t-14 -56.5q-62 -181 -81 -246
q-65 -237 -99 -307t-101.5 -70t-130.5 56t-63 96z" />
    <glyph glyph-name="uni01CB" unicode="&#x1cb;" horiz-adv-x="1018" 
d="M562 680q2 43 20.5 43t40.5 -23t22 -41q0 -82 -25.5 -233t-68 -280t-80.5 -129q-13 0 -29.5 13t-25.5 32q-30 70 -177 444q-30 -116 -66.5 -262.5t-48.5 -186.5t-21 -40q-13 0 -31.5 22.5t-18.5 46.5t65 281.5t67 321.5q0 32 17 32q11 0 30.5 -18.5t28.5 -40.5
q161 -418 204 -512q65 172 87 411q10 110 10 119zM611 -121q43 -55 71 -55t47 30t37 94.5t34 132.5t41.5 180t49.5 201q15 49 29 49q17 0 35 -21.5t18 -46.5q0 -23 -31 -139.5t-55 -209.5t-47 -182q-43 -157 -156 -157q-50 0 -97.5 42t-47.5 72q0 13 10.5 30.5t19.5 17.5
q11 0 23 -14.5t19 -23.5zM948 691q16 18 33 18t39.5 -40.5t22.5 -67.5q0 -10 -9 -18t-18 -8q-24 0 -54 29t-30 49t16 38z" />
    <glyph glyph-name="uni01CC" unicode="&#x1cc;" horiz-adv-x="875" 
d="M285.5 431.5q60.5 79.5 99 79.5t73 -41t34.5 -87q0 -72 -33 -176q-60 -192 -108 -192q-22 0 -22 30q0 21 21.5 85.5t40 127t18.5 94t-9.5 46.5t-19 15t-19.5 -6t-22.5 -20t-23.5 -27.5t-27.5 -38.5t-27.5 -42.5t-32 -50.5t-32 -50t-29 -46t-28.5 -45t-23.5 -35
q-25 -37 -39.5 -37t-33.5 22.5t-19 39.5q0 5 7 27q19 58 42 143.5t25 194.5q3 73 21 73q22 0 44 -23t22 -50.5t-16.5 -106t-38.5 -146.5q96 163 156.5 242.5zM469 -121q43 -55 71 -55t47 30t37 94.5t34 132.5t41.5 180t49.5 201q15 49 29 49q17 0 35 -21.5t18 -46.5
q0 -23 -31 -139.5t-55 -209.5t-47 -182q-43 -157 -156 -157q-50 0 -97.5 42t-47.5 72q0 13 10.5 30.5t19.5 17.5q11 0 23 -14.5t19 -23.5zM806 691q16 18 33 18t39.5 -40.5t22.5 -67.5q0 -10 -9 -18t-18 -8q-24 0 -54 29t-30 49t16 38z" />
    <glyph glyph-name="uni01CD" unicode="&#x1cd;" horiz-adv-x="639" 
d="M333 900q29 0 29 -26q0 -14 -11.5 -25.5t-40.5 -29.5t-41 -27t-32 -26.5t-32 -26t-22 -8.5q-20 0 -85 64.5t-65 101.5q0 16 9 26.5t23 10.5t28.5 -17t39.5 -49.5t57 -57.5q50 46 88.5 68t54.5 22zM564 363q0 -19 -88 -44q8 -104 8 -177q0 -126 -32 -126q-17 0 -27 21
t-16 73q-7 96 -15 188q-45 -12 -82 -21.5t-112 -30.5q-88 -230 -104 -230t-34.5 19.5t-18.5 41.5q0 10 57 142h-7q-20 0 -35.5 13t-15.5 32.5t99 51.5q16 36 26 65q23 57 64 156t52 126.5t38.5 47t53.5 19.5q31 0 55.5 -99t39.5 -245q28 3 49 3q45 0 45 -26zM237 342
q71 19 150 32q-18 171 -35 257q-45 -103 -115 -289z" />
    <glyph glyph-name="uni01CE" unicode="&#x1ce;" horiz-adv-x="561" 
d="M295 722q29 0 29 -26q0 -14 -11.5 -25.5t-40.5 -29.5t-41 -27t-32 -26.5t-32 -26t-22 -8.5q-20 0 -85 64.5t-65 101.5q0 16 9 26.5t23 10.5t28.5 -17t39.5 -49.5t57 -57.5q50 46 88.5 68t54.5 22zM380 465.5q38 -45.5 38 -82t-25 -74.5q12 -15 12 -26q0 -28 -12.5 -96
t-15 -89t-4.5 -33.5t-5 -24.5q-4 -25 -18 -25q-18 0 -29.5 31.5t-13.5 81.5q-89 -113 -165 -113q-46 0 -90.5 39.5t-44.5 81.5q0 60 44 148.5t114 157.5t132 69q45 0 83 -45.5zM343 335q0 93 -37 93q-39 0 -91 -55.5t-88 -125.5t-36 -111q0 -17 14 -27.5t33 -10.5
q47 0 106 63.5t82 154.5q3 15 17 18v1z" />
    <glyph glyph-name="uni01CF" unicode="&#x1cf;" horiz-adv-x="338" 
d="M185 900q29 0 29 -26q0 -14 -11.5 -25.5t-40.5 -29.5t-41 -27t-32 -26.5t-32 -26t-22 -8.5q-20 0 -85 64.5t-65 101.5q0 16 9 26.5t23 10.5t28.5 -17t39.5 -49.5t57 -57.5q50 46 88.5 68t54.5 22zM87.5 43q-19.5 24 -19.5 44t59.5 279.5t60.5 321.5q0 17 4.5 23.5t19 6.5
t38 -31t23.5 -66.5t-72 -328.5q-7 -27 -19 -77.5t-19 -77.5t-15 -59q-17 -59 -29 -59t-31.5 24z" />
    <glyph glyph-name="uni01D0" unicode="&#x1d0;" horiz-adv-x="257" 
d="M143 722q29 0 29 -26q0 -14 -11.5 -25.5t-40.5 -29.5t-41 -27t-32 -26.5t-32 -26t-22 -8.5q-20 0 -85 64.5t-65 101.5q0 16 9 26.5t23 10.5t28.5 -17t39.5 -49.5t57 -57.5q50 46 88.5 68t54.5 22zM199 488q17 -23 17 -44q0 -57 -103 -378q-15 -50 -43 -50q-14 0 -24 11.5
t-10 26t10.5 56t26.5 99t38.5 157t30.5 122.5t24 23t33 -23z" />
    <glyph glyph-name="uni01D1" unicode="&#x1d1;" horiz-adv-x="780" 
d="M404 900q29 0 29 -26q0 -14 -11.5 -25.5t-40.5 -29.5t-41 -27t-32 -26.5t-32 -26t-22 -8.5q-20 0 -85 64.5t-65 101.5q0 16 9 26.5t23 10.5t28.5 -17t39.5 -49.5t57 -57.5q50 46 88.5 68t54.5 22zM453 300.5q47 86.5 47 163.5t-29.5 125t-69.5 48t-100 -62t-108 -162.5
t-48 -192.5q0 -55 24 -89.5t56 -34.5q50 0 115.5 59t112.5 145.5zM219 17q-66 0 -115.5 65t-49.5 132q0 91 33.5 185t84 164t111.5 114.5t113 44.5q84 0 140 -76.5t56 -172.5t-53 -201.5t-141.5 -180t-178.5 -74.5z" />
    <glyph glyph-name="uni01D2" unicode="&#x1d2;" horiz-adv-x="604" 
d="M316 722q29 0 29 -26q0 -14 -11.5 -25.5t-40.5 -29.5t-41 -27t-32 -26.5t-32 -26t-22 -8.5q-20 0 -85 64.5t-65 101.5q0 16 9 26.5t23 10.5t28.5 -17t39.5 -49.5t57 -57.5q50 46 88.5 68t54.5 22zM333 341q0 34 -11 64.5t-32 44.5q-69 -19 -118.5 -106.5t-49.5 -164.5
t38 -96q72 14 122.5 98.5t50.5 159.5zM161.5 460.5q56.5 50.5 116 50.5t99.5 -50.5t40 -123t-35 -148t-96.5 -125t-130.5 -49.5q-51 0 -85 47t-34 119.5t34.5 150.5t91 128.5z" />
    <glyph glyph-name="uni01D3" unicode="&#x1d3;" horiz-adv-x="730" 
d="M379 900q29 0 29 -26q0 -14 -11.5 -25.5t-40.5 -29.5t-41 -27t-32 -26.5t-32 -26t-22 -8.5q-20 0 -85 64.5t-65 101.5q0 16 9 26.5t23 10.5t28.5 -17t39.5 -49.5t57 -57.5q50 46 88.5 68t54.5 22zM173 712.5q4 6.5 18.5 6.5t38.5 -26.5t24 -62t-40.5 -193.5t-40.5 -214.5
t21 -91.5t54 -35t73 38t74.5 99.5t58 150t23.5 178.5q0 42 -4.5 84t-4.5 52q0 21 18 21q23 0 53 -34.5t30 -88.5q0 -154 -45 -289t-121 -215.5t-162 -80.5q-63 0 -109.5 61t-46.5 140t42 248.5t42 228.5q0 17 4 23.5z" />
    <glyph glyph-name="uni01D4" unicode="&#x1d4;" horiz-adv-x="618" 
d="M323 722q29 0 29 -26q0 -14 -11.5 -25.5t-40.5 -29.5t-41 -27t-32 -26.5t-32 -26t-22 -8.5q-20 0 -85 64.5t-65 101.5q0 16 9 26.5t23 10.5t28.5 -17t39.5 -49.5t57 -57.5q50 46 88.5 68t54.5 22zM393 505q4 6 17.5 6t33 -26t19.5 -50q0 -13 -44 -154t-68 -224
q-12 -42 -34 -42q-13 0 -22 11t-9 40t23 105q-42 -68 -91 -112t-89.5 -44t-76.5 38t-36 78q0 95 55.5 237.5t92.5 142.5q18 0 31.5 -16.5t13.5 -37.5q0 -9 -27 -64.5t-54 -130t-27 -130.5q0 -16 10 -26.5t24 -10.5q38 0 90.5 67t95.5 156t64 165q4 16 8 22z" />
    <glyph glyph-name="uni01D5" unicode="&#x1d5;" horiz-adv-x="730" 
d="M508 815q0 -23 -12.5 -36t-34.5 -13t-34.5 13t-12.5 36q0 26 14 38t33 12q20 0 33.5 -12t13.5 -38zM320 815q0 -26 -13.5 -37.5t-32.5 -11.5q-22 0 -34.5 13t-12.5 36q0 26 14 38t33 12t32.5 -12t13.5 -38zM219 1001h297v-71h-297v71zM173 712.5q4 6.5 18.5 6.5
t38.5 -26.5t24 -62t-40.5 -193.5t-40.5 -214.5t21 -91.5t54 -35t73 38t74.5 99.5t58 150t23.5 178.5q0 42 -4.5 84t-4.5 52q0 21 18 21q23 0 53 -34.5t30 -88.5q0 -154 -45 -289t-121 -215.5t-162 -80.5q-63 0 -109.5 61t-46.5 140t42 248.5t42 228.5q0 17 4 23.5z" />
    <glyph glyph-name="uni01D6" unicode="&#x1d6;" horiz-adv-x="618" 
d="M447 650q0 -23 -12.5 -36t-34.5 -13t-34.5 13t-12.5 36q0 26 14 38t33 12q20 0 33.5 -12t13.5 -38zM259 650q0 -26 -13.5 -37.5t-32.5 -11.5q-22 0 -34.5 13t-12.5 36q0 26 14 38t33 12t32.5 -12t13.5 -38zM158 836h297v-71h-297v71zM393 505q4 6 17.5 6t33 -26t19.5 -50
q0 -13 -44 -154t-68 -224q-12 -42 -34 -42q-13 0 -22 11t-9 40t23 105q-42 -68 -91 -112t-89.5 -44t-76.5 38t-36 78q0 95 55.5 237.5t92.5 142.5q18 0 31.5 -16.5t13.5 -37.5q0 -9 -27 -64.5t-54 -130t-27 -130.5q0 -16 10 -26.5t24 -10.5q38 0 90.5 67t95.5 156t64 165
q4 16 8 22z" />
    <glyph glyph-name="uni01D7" unicode="&#x1d7;" horiz-adv-x="730" 
d="M499 815q0 -23 -12.5 -36t-34.5 -13t-34.5 13t-12.5 36q0 26 14 38t33 12q20 0 33.5 -12t13.5 -38zM311 815q0 -26 -13.5 -37.5t-32.5 -11.5q-22 0 -34.5 13t-12.5 36q0 26 14 38t33 12t32.5 -12t13.5 -38zM305 903q73 84 96 133h105v-10q-28 -43 -142 -135h-59v12z
M173 712.5q4 6.5 18.5 6.5t38.5 -26.5t24 -62t-40.5 -193.5t-40.5 -214.5t21 -91.5t54 -35t73 38t74.5 99.5t58 150t23.5 178.5q0 42 -4.5 84t-4.5 52q0 21 18 21q23 0 53 -34.5t30 -88.5q0 -154 -45 -289t-121 -215.5t-162 -80.5q-63 0 -109.5 61t-46.5 140t42 248.5
t42 228.5q0 17 4 23.5z" />
    <glyph glyph-name="uni01D8" unicode="&#x1d8;" horiz-adv-x="618" 
d="M446 650q0 -23 -12.5 -36t-34.5 -13t-34.5 13t-12.5 36q0 26 14 38t33 12q20 0 33.5 -12t13.5 -38zM258 650q0 -26 -13.5 -37.5t-32.5 -11.5q-22 0 -34.5 13t-12.5 36q0 26 14 38t33 12t32.5 -12t13.5 -38zM252 738q73 84 96 133h105v-10q-28 -43 -142 -135h-59v12z
M393 505q4 6 17.5 6t33 -26t19.5 -50q0 -13 -44 -154t-68 -224q-12 -42 -34 -42q-13 0 -22 11t-9 40t23 105q-42 -68 -91 -112t-89.5 -44t-76.5 38t-36 78q0 95 55.5 237.5t92.5 142.5q18 0 31.5 -16.5t13.5 -37.5q0 -9 -27 -64.5t-54 -130t-27 -130.5q0 -16 10 -26.5
t24 -10.5q38 0 90.5 67t95.5 156t64 165q4 16 8 22z" />
    <glyph glyph-name="uni01D9" unicode="&#x1d9;" horiz-adv-x="730" 
d="M504 815q0 -23 -12.5 -36t-34.5 -13t-34.5 13t-12.5 36q0 26 14 38t33 12q20 0 33.5 -12t13.5 -38zM316 815q0 -26 -13.5 -37.5t-32.5 -11.5q-22 0 -34.5 13t-12.5 36q0 26 14 38t33 12t32.5 -12t13.5 -38zM195 1046h60q26 -17 54 -36t53 -46q27 27 55 46t54 36h62v-13
l-32 -31q-73 -69 -93 -106h-90q-21 36 -92 106l-31 31v13zM173 712.5q4 6.5 18.5 6.5t38.5 -26.5t24 -62t-40.5 -193.5t-40.5 -214.5t21 -91.5t54 -35t73 38t74.5 99.5t58 150t23.5 178.5q0 42 -4.5 84t-4.5 52q0 21 18 21q23 0 53 -34.5t30 -88.5q0 -154 -45 -289
t-121 -215.5t-162 -80.5q-63 0 -109.5 61t-46.5 140t42 248.5t42 228.5q0 17 4 23.5z" />
    <glyph glyph-name="uni01DA" unicode="&#x1da;" horiz-adv-x="618" 
d="M444 650q0 -23 -12.5 -36t-34.5 -13t-34.5 13t-12.5 36q0 26 14 38t33 12q20 0 33.5 -12t13.5 -38zM256 650q0 -26 -13.5 -37.5t-32.5 -11.5q-22 0 -34.5 13t-12.5 36q0 26 14 38t33 12t32.5 -12t13.5 -38zM135 881h60q26 -17 54 -36t53 -46q27 27 55 46t54 36h62v-13
l-32 -31q-73 -69 -93 -106h-90q-21 36 -92 106l-31 31v13zM393 505q4 6 17.5 6t33 -26t19.5 -50q0 -13 -44 -154t-68 -224q-12 -42 -34 -42q-13 0 -22 11t-9 40t23 105q-42 -68 -91 -112t-89.5 -44t-76.5 38t-36 78q0 95 55.5 237.5t92.5 142.5q18 0 31.5 -16.5t13.5 -37.5
q0 -9 -27 -64.5t-54 -130t-27 -130.5q0 -16 10 -26.5t24 -10.5q38 0 90.5 67t95.5 156t64 165q4 16 8 22z" />
    <glyph glyph-name="uni01DB" unicode="&#x1db;" horiz-adv-x="730" 
d="M500 815q0 -23 -12.5 -36t-34.5 -13t-34.5 13t-12.5 36q0 26 14 38t33 12q20 0 33.5 -12t13.5 -38zM312 815q0 -26 -13.5 -37.5t-32.5 -11.5q-22 0 -34.5 13t-12.5 36q0 26 14 38t33 12t32.5 -12t13.5 -38zM414 891h-59q-114 91 -142 135v10h105q23 -49 96 -133v-12z
M173 712.5q4 6.5 18.5 6.5t38.5 -26.5t24 -62t-40.5 -193.5t-40.5 -214.5t21 -91.5t54 -35t73 38t74.5 99.5t58 150t23.5 178.5q0 42 -4.5 84t-4.5 52q0 21 18 21q23 0 53 -34.5t30 -88.5q0 -154 -45 -289t-121 -215.5t-162 -80.5q-63 0 -109.5 61t-46.5 140t42 248.5
t42 228.5q0 17 4 23.5z" />
    <glyph glyph-name="uni01DC" unicode="&#x1dc;" horiz-adv-x="618" 
d="M447 650q0 -23 -12.5 -36t-34.5 -13t-34.5 13t-12.5 36q0 26 14 38t33 12q20 0 33.5 -12t13.5 -38zM259 650q0 -26 -13.5 -37.5t-32.5 -11.5q-22 0 -34.5 13t-12.5 36q0 26 14 38t33 12t32.5 -12t13.5 -38zM361 726h-59q-114 91 -142 135v10h105q23 -49 96 -133v-12z
M393 505q4 6 17.5 6t33 -26t19.5 -50q0 -13 -44 -154t-68 -224q-12 -42 -34 -42q-13 0 -22 11t-9 40t23 105q-42 -68 -91 -112t-89.5 -44t-76.5 38t-36 78q0 95 55.5 237.5t92.5 142.5q18 0 31.5 -16.5t13.5 -37.5q0 -9 -27 -64.5t-54 -130t-27 -130.5q0 -16 10 -26.5
t24 -10.5q38 0 90.5 67t95.5 156t64 165q4 16 8 22z" />
    <glyph glyph-name="uni01DD" unicode="&#x1dd;" horiz-adv-x="563" 
d="M251 546q121 0 189.5 -73t68.5 -201q0 -129 -64 -205.5t-173 -76.5q-101 0 -161 65.5t-60 176.5v53h367q-2 91 -46 138.5t-125 47.5q-43 0 -81.5 -7.5t-90.5 -29.5v77q44 19 83.5 27t92.5 8zM273 62q63 0 99.5 40.5t43.5 112.5h-273q1 -74 34.5 -113.5t95.5 -39.5z" />
    <glyph glyph-name="uni01DE" unicode="&#x1de;" horiz-adv-x="639" 
d="M460 815q0 -23 -12.5 -36t-34.5 -13t-34.5 13t-12.5 36q0 26 14 38t33 12q20 0 33.5 -12t13.5 -38zM272 815q0 -26 -13.5 -37.5t-32.5 -11.5q-22 0 -34.5 13t-12.5 36q0 26 14 38t33 12t32.5 -12t13.5 -38zM171 1001h297v-71h-297v71zM564 363q0 -19 -88 -44
q8 -104 8 -177q0 -126 -32 -126q-17 0 -27 21t-16 73q-7 96 -15 188q-45 -12 -82 -21.5t-112 -30.5q-88 -230 -104 -230t-34.5 19.5t-18.5 41.5q0 10 57 142h-7q-20 0 -35.5 13t-15.5 32.5t99 51.5q16 36 26 65q23 57 64 156t52 126.5t38.5 47t53.5 19.5q31 0 55.5 -99
t39.5 -245q28 3 49 3q45 0 45 -26zM237 342q71 19 150 32q-18 171 -35 257q-45 -103 -115 -289z" />
    <glyph glyph-name="uni01DF" unicode="&#x1df;" horiz-adv-x="561" 
d="M426 650q0 -23 -12.5 -36t-34.5 -13t-34.5 13t-12.5 36q0 26 14 38t33 12q20 0 33.5 -12t13.5 -38zM238 650q0 -26 -13.5 -37.5t-32.5 -11.5q-22 0 -34.5 13t-12.5 36q0 26 14 38t33 12t32.5 -12t13.5 -38zM137 836h297v-71h-297v71zM380 465.5q38 -45.5 38 -82
t-25 -74.5q12 -15 12 -26q0 -28 -12.5 -96t-15 -89t-4.5 -33.5t-5 -24.5q-4 -25 -18 -25q-18 0 -29.5 31.5t-13.5 81.5q-89 -113 -165 -113q-46 0 -90.5 39.5t-44.5 81.5q0 60 44 148.5t114 157.5t132 69q45 0 83 -45.5zM343 335q0 93 -37 93q-39 0 -91 -55.5t-88 -125.5
t-36 -111q0 -17 14 -27.5t33 -10.5q47 0 106 63.5t82 154.5q3 15 17 18v1z" />
    <glyph glyph-name="uni01E0" unicode="&#x1e0;" horiz-adv-x="639" 
d="M269 826q0 29 15 42.5t37 13.5q23 0 37 -15t14 -41t-14.5 -41t-36.5 -15t-37 13.5t-15 42.5zM171 1001h297v-71h-297v71zM564 363q0 -19 -88 -44q8 -104 8 -177q0 -126 -32 -126q-17 0 -27 21t-16 73q-7 96 -15 188q-45 -12 -82 -21.5t-112 -30.5q-88 -230 -104 -230
t-34.5 19.5t-18.5 41.5q0 10 57 142h-7q-20 0 -35.5 13t-15.5 32.5t99 51.5q16 36 26 65q23 57 64 156t52 126.5t38.5 47t53.5 19.5q31 0 55.5 -99t39.5 -245q28 3 49 3q45 0 45 -26zM237 342q71 19 150 32q-18 171 -35 257q-45 -103 -115 -289z" />
    <glyph glyph-name="uni01E1" unicode="&#x1e1;" horiz-adv-x="561" 
d="M235 662q0 29 15 42.5t37 13.5q23 0 37 -15t14 -41t-14.5 -41t-36.5 -15t-37 13.5t-15 42.5zM137 837h297v-71h-297v71zM380 465.5q38 -45.5 38 -82t-25 -74.5q12 -15 12 -26q0 -28 -12.5 -96t-15 -89t-4.5 -33.5t-5 -24.5q-4 -25 -18 -25q-18 0 -29.5 31.5t-13.5 81.5
q-89 -113 -165 -113q-46 0 -90.5 39.5t-44.5 81.5q0 60 44 148.5t114 157.5t132 69q45 0 83 -45.5zM343 335q0 93 -37 93q-39 0 -91 -55.5t-88 -125.5t-36 -111q0 -17 14 -27.5t33 -10.5q47 0 106 63.5t82 154.5q3 15 17 18v1z" />
    <glyph glyph-name="uni01E2" unicode="&#x1e2;" horiz-adv-x="880" 
d="M539 815q17 -4 17 -17t-29.5 -21.5t-87.5 -17t-90 -14.5q-68 -13 -85.5 -12.5t-35 16.5t-17.5 30q0 18 88 29t155.5 11t84.5 -4zM606 631h-52q3 -9 3 -19q0 -77 -41 -216q105 11 149 11q79 0 79 -31q0 -17 -47.5 -26.5t-112 -17.5t-68.5 -8.5t-10.5 -1t-11.5 -1.5
q-51 -171 -51 -189q0 -33 28 -33q115 0 254 37q45 12 52 12q14 0 14 -21q0 -36 -110.5 -74t-213.5 -38q-46 0 -80.5 27t-34.5 63q0 54 46 203q-45 -6 -116.5 -17.5t-88.5 -12.5q-83 -202 -100.5 -233.5t-27.5 -31.5q-16 0 -31.5 17t-15.5 32t17.5 57.5t50 118t90.5 221
t82 187.5q21 35 86.5 47t190 12t190 -5t86.5 -13t21 -21q0 -35 -226 -35zM421 385q46 155 49 244q-115 -6 -128 -22q-21 -22 -117 -253q77 16 196 31z" />
    <glyph glyph-name="uni01E3" unicode="&#x1e3;" horiz-adv-x="863" 
d="M475 650q17 -4 17 -17t-29.5 -21.5t-87.5 -17t-90 -14.5q-68 -13 -85.5 -12.5t-35 16.5t-17.5 30q0 18 88 29t155.5 11t84.5 -4zM368 345q-3 83 -45.5 83t-94 -56t-84.5 -125t-33 -111q0 -17 13 -27.5t29 -10.5q46 0 95.5 49t92.5 136q10 34 27 62zM630.5 404.5
q-24.5 27.5 -55.5 27.5t-70.5 -38.5t-67.5 -95.5q42 -9 92 -9t88 16.5t38 44t-24.5 55zM29 138q0 61 40.5 148t109.5 156t135 69q35 0 66 -24t47 -59q74 83 148 83q60 0 108.5 -56t48.5 -109.5t-57.5 -87t-125.5 -33.5t-136 16q-14 -42 -14 -77.5t21.5 -54.5t71 -19
t102 17.5t57.5 17.5q26 0 26 -20q0 -27 -61 -58.5t-123 -31.5t-108.5 35t-57.5 92q-46 -62 -86 -94.5t-83.5 -32.5t-86 39.5t-42.5 83.5z" />
    <glyph glyph-name="uni01E4" unicode="&#x1e4;" horiz-adv-x="728" 
d="M407 377h247v-150h64v-71h-64v-129q-57 -18 -115.5 -27.5t-135.5 -9.5q-163 0 -252.5 97t-89.5 270q0 112 44.5 195.5t128 127.5t197.5 44t213 -42l-34 -78q-94 41 -184 41q-127 0 -199 -77t-72 -211q0 -142 68.5 -215.5t200.5 -73.5q72 0 140 17v71h-147v71h147v70h-157
v80z" />
    <glyph glyph-name="uni01E5" unicode="&#x1e5;" horiz-adv-x="615" 
d="M443 15l3 66h-4q-54 -81 -166 -81q-105 0 -163 71t-58 201q0 128 58 201t162 73q109 0 168 -81h5l12 71h70v-545q0 -20 -2 -37h57v-71h-72q-47 -123 -223 -123q-117 0 -193 34v81q78 -42 198 -42q77 0 117 50h-149v71h178l2 30v31zM289 72q83 0 119 42.5t36 136.5v16
q0 107 -37 156t-120 49q-68 0 -104.5 -50.5t-36.5 -150.5q0 -199 143 -199z" />
    <glyph glyph-name="Gcaron" unicode="&#x1e6;" horiz-adv-x="728" 
d="M431 887q29 0 29 -26q0 -14 -11.5 -25.5t-40.5 -29.5t-41 -27t-32 -26.5t-32 -26t-22 -8.5q-20 0 -85 64.5t-65 101.5q0 16 9 26.5t23 10.5t28.5 -17t39.5 -49.5t57 -57.5q50 46 88.5 68t54.5 22zM461 624q-63 0 -139.5 -69t-130.5 -172.5t-54 -192.5q0 -36 23 -61.5
t54 -25.5q48 0 112.5 52.5t119.5 135.5q-56 -15 -83 -15t-46 14.5t-19 27.5q0 16 43 25.5t108 9.5q36 0 58.5 -30.5t22.5 -71t-50 -190.5t-75.5 -150t-25.5 29q0 28 14.5 76t30.5 98.5t26 82.5q-49 -83 -111 -131.5t-120.5 -48.5t-115.5 54.5t-57 119.5q0 101 64 225
t161 212.5t182 88.5q28 0 55 -33.5t27 -54t-11 -20.5q-3 0 -22 7.5t-41 7.5z" />
    <glyph glyph-name="gcaron" unicode="&#x1e7;" horiz-adv-x="615" 
d="M321 722q29 0 29 -26q0 -14 -11.5 -25.5t-40.5 -29.5t-41 -27t-32 -26.5t-32 -26t-22 -8.5q-20 0 -85 64.5t-65 101.5q0 16 9 26.5t23 10.5t28.5 -17t39.5 -49.5t57 -57.5q50 46 88.5 68t54.5 22zM427 285q0 -40 -35 -91q-27 -61 -58 -175.5t-52 -163.5
q-42 -102 -129 -102q-71 0 -119.5 38.5t-48.5 76.5q0 16 9.5 32t20 16t23.5 -15t24.5 -32.5t35 -32.5t45.5 -15t33 6.5t21 21t17 29t15.5 41t13.5 45.5t14 53.5t15 55.5q-78 -58 -127 -58t-85 39.5t-36 92t39.5 139.5t106.5 156t131 69q41 0 69 -31q46 -51 46 -145
q0 -12 -1 -17q12 -17 12 -33zM105 136q0 -17 11 -27.5t28 -10.5q50 0 118 59.5t96 138.5q-4 13 -7 40t-6 43t-13 32.5t-26 16.5q-39 0 -88 -56t-81 -125t-32 -111z" />
    <glyph glyph-name="uni01E8" unicode="&#x1e8;" horiz-adv-x="619" 
d="M347 887q29 0 29 -26q0 -14 -11.5 -25.5t-40.5 -29.5t-41 -27t-32 -26.5t-32 -26t-22 -8.5q-20 0 -85 64.5t-65 101.5q0 16 9 26.5t23 10.5t28.5 -17t39.5 -49.5t57 -57.5q50 46 88.5 68t54.5 22zM105 20q-14 0 -32.5 23.5t-18.5 49t65 277.5t65 316q0 18 4 25t18.5 7
t34.5 -31t20 -71t-52 -237q91 124 192 228.5t128 104.5q20 0 37.5 -13t17.5 -25.5t-47.5 -56t-127.5 -121.5t-137 -156q0 -41 22 -89q35 -80 144 -133q47 -23 73.5 -39t26.5 -33q0 -26 -39 -26t-82 16.5t-86 46.5t-78.5 79.5t-48.5 108.5q-31 -55 -58 -145
q-33 -106 -40 -106h-1z" />
    <glyph glyph-name="uni01E9" unicode="&#x1e9;" horiz-adv-x="534" 
d="M311 907q29 0 29 -26q0 -14 -11.5 -25.5t-40.5 -29.5t-41 -27t-32 -26.5t-32 -26t-22 -8.5q-20 0 -85 64.5t-65 101.5q0 16 9 26.5t23 10.5t28.5 -17t39.5 -49.5t57 -57.5q50 46 88.5 68t54.5 22zM473 457q0 -9 -89 -94q-33 -32 -60.5 -75.5t-27.5 -79.5t21.5 -66.5
t47 -46t47 -30.5t21.5 -25q0 -25 -39.5 -25t-94 44.5t-67.5 99.5q-5 10 -8 19q-68 -92 -98.5 -127.5t-45.5 -35.5t-33 23.5t-18 39t32.5 129t65 272.5t32.5 284q0 16 4.5 22t19.5 6t37 -29.5t22 -57.5q0 -89 -36 -249t-86 -304q113 161 195.5 260.5t102 99.5t37.5 -19
t18 -35z" />
    <glyph glyph-name="uni01EA" unicode="&#x1ea;" horiz-adv-x="780" 
d="M464 51q12 0 22.5 -7.5t10.5 -19.5q0 -23 -47.5 -62.5t-47.5 -61.5q0 -19 39 -19q11 0 27 6t25 6t18.5 -9t9.5 -20q0 -24 -38.5 -36.5t-74 -12.5t-61.5 19t-26 45q0 46 54 109t89 63zM453 300.5q47 86.5 47 163.5t-29.5 125t-69.5 48t-100 -62t-108 -162.5t-48 -192.5
q0 -55 24 -89.5t56 -34.5q50 0 115.5 59t112.5 145.5zM219 17q-66 0 -115.5 65t-49.5 132q0 91 33.5 185t84 164t111.5 114.5t113 44.5q84 0 140 -76.5t56 -172.5t-53 -201.5t-141.5 -180t-178.5 -74.5z" />
    <glyph glyph-name="uni01EB" unicode="&#x1eb;" horiz-adv-x="604" 
d="M366 51q12 0 22.5 -7.5t10.5 -19.5q0 -23 -47.5 -62.5t-47.5 -61.5q0 -19 39 -19q11 0 27 6t25 6t18.5 -9t9.5 -20q0 -24 -38.5 -36.5t-74 -12.5t-61.5 19t-26 45q0 46 54 109t89 63zM333 341q0 34 -11 64.5t-32 44.5q-69 -19 -118.5 -106.5t-49.5 -164.5t38 -96
q72 14 122.5 98.5t50.5 159.5zM161.5 460.5q56.5 50.5 116 50.5t99.5 -50.5t40 -123t-35 -148t-96.5 -125t-130.5 -49.5q-51 0 -85 47t-34 119.5t34.5 150.5t91 128.5z" />
    <glyph glyph-name="uni01EC" unicode="&#x1ec;" horiz-adv-x="780" 
d="M464 51q12 0 22.5 -7.5t10.5 -19.5q0 -23 -47.5 -62.5t-47.5 -61.5q0 -19 39 -19q11 0 27 6t25 6t18.5 -9t9.5 -20q0 -24 -38.5 -36.5t-74 -12.5t-61.5 19t-26 45q0 46 54 109t89 63zM434 815q17 -4 17 -17t-29.5 -21.5t-87.5 -17t-90 -14.5q-68 -13 -85.5 -12.5
t-35 16.5t-17.5 30q0 18 88 29t155.5 11t84.5 -4zM453 300.5q47 86.5 47 163.5t-29.5 125t-69.5 48t-100 -62t-108 -162.5t-48 -192.5q0 -55 24 -89.5t56 -34.5q50 0 115.5 59t112.5 145.5zM219 17q-66 0 -115.5 65t-49.5 132q0 91 33.5 185t84 164t111.5 114.5t113 44.5
q84 0 140 -76.5t56 -172.5t-53 -201.5t-141.5 -180t-178.5 -74.5z" />
    <glyph glyph-name="uni01ED" unicode="&#x1ed;" horiz-adv-x="604" 
d="M366 51q12 0 22.5 -7.5t10.5 -19.5q0 -23 -47.5 -62.5t-47.5 -61.5q0 -19 39 -19q11 0 27 6t25 6t18.5 -9t9.5 -20q0 -24 -38.5 -36.5t-74 -12.5t-61.5 19t-26 45q0 46 54 109t89 63zM346 650q17 -4 17 -17t-29.5 -21.5t-87.5 -17t-90 -14.5q-68 -13 -85.5 -12.5
t-35 16.5t-17.5 30q0 18 88 29t155.5 11t84.5 -4zM333 341q0 34 -11 64.5t-32 44.5q-69 -19 -118.5 -106.5t-49.5 -164.5t38 -96q72 14 122.5 98.5t50.5 159.5zM161.5 460.5q56.5 50.5 116 50.5t99.5 -50.5t40 -123t-35 -148t-96.5 -125t-130.5 -49.5q-51 0 -85 47
t-34 119.5t34.5 150.5t91 128.5z" />
    <glyph glyph-name="uni01EE" unicode="&#x1ee;" horiz-adv-x="583" 
d="M286 887q29 0 29 -26q0 -14 -11.5 -25.5t-40.5 -29.5t-41 -27t-32 -26.5t-32 -26t-22 -8.5q-20 0 -85 64.5t-65 101.5q0 16 9 26.5t23 10.5t28.5 -17t39.5 -49.5t57 -57.5q50 46 88.5 68t54.5 22zM291 440q68 -2 122.5 -30t85 -76.5t30.5 -112.5q0 -109 -76 -170
t-212 -61q-126 0 -206 39v82q49 -23 104 -35t103 -12q97 0 145 41t48 117q0 69 -49.5 107t-143.5 38h-62v65l206 202h-331v80h444v-71z" />
    <glyph glyph-name="uni01EF" unicode="&#x1ef;" horiz-adv-x="498" 
d="M218 228q115 -8 180.5 -68.5t65.5 -158.5q0 -70 -33 -125.5t-93.5 -85.5t-138.5 -30q-117 0 -185 35v80q89 -42 189 -42q79 0 126 45t47 121q0 77 -51 118t-151 41h-59v61l219 243h-306v74h409v-64zM241 722q29 0 29 -26q0 -14 -11.5 -25.5t-40.5 -29.5t-41 -27
t-32 -26.5t-32 -26t-22 -8.5q-20 0 -85 64.5t-65 101.5q0 16 9 26.5t23 10.5t28.5 -17t39.5 -49.5t57 -57.5q50 46 88.5 68t54.5 22z" />
    <glyph glyph-name="uni01F0" unicode="&#x1f0;" horiz-adv-x="257" 
d="M143 722q29 0 29 -26q0 -14 -11.5 -25.5t-40.5 -29.5t-41 -27t-32 -26.5t-32 -26t-22 -8.5q-20 0 -85 64.5t-65 101.5q0 16 9 26.5t23 10.5t28.5 -17t39.5 -49.5t57 -57.5q50 46 88.5 68t54.5 22zM22 -240q-46 0 -77 12v71q34 -10 66 -10q38 0 56 21t18 63v619h88v-616
q0 -80 -38.5 -120t-112.5 -40z" />
    <glyph glyph-name="uni01F1" unicode="&#x1f1;" horiz-adv-x="1291" 
d="M151 721q94 0 200.5 -49t183.5 -135.5t77 -179.5q0 -61 -84.5 -143.5t-195.5 -141t-184 -58.5q-19 0 -43.5 32.5t-24.5 66t58 241.5t63 274q-32 13 -51 34t-19 40t20 19zM520 368q0 62 -74 134.5t-172 104.5q5 -18 5 -42.5t-17.5 -91.5t-63.5 -224q-19 -66 -31 -145
q69 9 154.5 60.5t142 110.5t56.5 93zM1254 633q28 -34 28 -66t-41.5 -85.5t-101 -106t-119.5 -102.5t-101.5 -89t-41.5 -51t7 -19t19 -7q53 0 169.5 16.5t150.5 16.5t34 -24q0 -32 -125 -63.5t-252 -31.5q-38 0 -69.5 34.5t-31.5 68t43.5 84t105 102.5t122.5 103
q149 123 149 166q0 19 -45.5 31.5t-97 12.5t-95 -7.5t-53.5 -7.5q-22 0 -43 23t-21 42q-2 18 66 31q35 6 81 6q106 0 196 -30q39 -13 67 -47z" />
    <glyph glyph-name="uni01F2" unicode="&#x1f2;" horiz-adv-x="1200" 
d="M151 721q94 0 200.5 -49t183.5 -135.5t77 -179.5q0 -61 -84.5 -143.5t-195.5 -141t-184 -58.5q-19 0 -43.5 32.5t-24.5 66t58 241.5t63 274q-32 13 -51 34t-19 40t20 19zM520 368q0 62 -74 134.5t-172 104.5q5 -18 5 -42.5t-17.5 -91.5t-63.5 -224q-19 -66 -31 -145
q69 9 154.5 60.5t142 110.5t56.5 93zM828 500.5q44 10.5 120.5 10.5t125.5 -20q22 -9 40.5 -36.5t18.5 -45.5q0 -38 -46.5 -87t-101.5 -87t-101.5 -73t-46.5 -47q0 -17 26 -17q57 0 140 8t99 8q39 0 39 -23q0 -32 -100 -54t-193 -22q-43 0 -79 32.5t-36 59.5t50.5 72.5
t110.5 86.5q161 112 161 140q0 19 -102 19q-25 0 -62 -5.5t-53.5 -5.5t-35 21t-18.5 36q0 19 44 29.5z" />
    <glyph glyph-name="uni01F3" unicode="&#x1f3;" horiz-adv-x="1084" 
d="M459 791q16 0 39.5 -29.5t23.5 -55.5t-25 -147.5t-58 -251.5q-72 -292 -95 -292q-14 0 -30.5 17.5t-16.5 30.5t7 52q-98 -100 -171 -100q-44 0 -79.5 40t-35.5 83q0 62 33.5 147.5t96.5 155.5t134 70t99 -85q51 212 56 335q0 30 22 30zM349 300q0 54 -18.5 91t-44.5 37
q-43 0 -88 -53t-71.5 -121.5t-26.5 -118.5q0 -18 13 -29t31 -11q39 0 105.5 56t96.5 132l3 12v5zM713 500.5q44 10.5 120.5 10.5t125.5 -20q22 -9 40.5 -36.5t18.5 -45.5q0 -38 -46.5 -87t-101.5 -87t-101.5 -73t-46.5 -47q0 -17 26 -17q57 0 140 8t99 8q39 0 39 -23
q0 -32 -100 -54t-193 -22q-43 0 -79 32.5t-36 59.5t50.5 72.5t110.5 86.5q161 112 161 140q0 19 -102 19q-25 0 -62 -5.5t-53.5 -5.5t-35 21t-18.5 36q0 19 44 29.5z" />
    <glyph glyph-name="uni01F4" unicode="&#x1f4;" horiz-adv-x="728" 
d="M461 624q-63 0 -139.5 -69t-130.5 -172.5t-54 -192.5q0 -36 23 -61.5t54 -25.5q48 0 112.5 52.5t119.5 135.5q-56 -15 -83 -15t-46 14.5t-19 27.5q0 16 43 25.5t108 9.5q36 0 58.5 -30.5t22.5 -71t-50 -190.5t-75.5 -150t-25.5 29q0 28 14.5 76t30.5 98.5t26 82.5
q-49 -83 -111 -131.5t-120.5 -48.5t-115.5 54.5t-57 119.5q0 101 64 225t161 212.5t182 88.5q28 0 55 -33.5t27 -54t-11 -20.5q-3 0 -22 7.5t-41 7.5zM191.5 831.5q-7.5 8.5 -7.5 22t12 29.5t37 40t39.5 38t22.5 22t17 16q17 14 30.5 14t27 -19t13.5 -32.5t-2.5 -20
t-6.5 -11t-13.5 -12t-17.5 -12.5t-25 -15.5t-28.5 -18.5t-24.5 -18t-19 -14q-26 -17 -36.5 -17t-18 8.5z" />
    <glyph glyph-name="uni01F5" unicode="&#x1f5;" horiz-adv-x="615" 
d="M427 285q0 -40 -35 -91q-27 -61 -58 -175.5t-52 -163.5q-42 -102 -129 -102q-71 0 -119.5 38.5t-48.5 76.5q0 16 9.5 32t20 16t23.5 -15t24.5 -32.5t35 -32.5t45.5 -15t33 6.5t21 21t17 29t15.5 41t13.5 45.5t14 53.5t15 55.5q-78 -58 -127 -58t-85 39.5t-36 92
t39.5 139.5t106.5 156t131 69q41 0 69 -31q46 -51 46 -145q0 -12 -1 -17q12 -17 12 -33zM105 136q0 -17 11 -27.5t28 -10.5q50 0 118 59.5t96 138.5q-4 13 -7 40t-6 43t-13 32.5t-26 16.5q-39 0 -88 -56t-81 -125t-32 -111zM53.5 666.5q-7.5 8.5 -7.5 22t12 29.5t37 40
t39.5 38t22.5 22t17 16q17 14 30.5 14t27 -19t13.5 -32.5t-2.5 -20t-6.5 -11t-13.5 -12t-17.5 -12.5t-25 -15.5t-28.5 -18.5t-24.5 -18t-19 -14q-26 -17 -36.5 -17t-18 8.5z" />
    <glyph glyph-name="uni01F6" unicode="&#x1f6;" horiz-adv-x="937" 
d="M187 333v-333h-90v714h90v-302h296v302h90v-550q0 -45 23 -70t70 -25q44 0 68 25t24 71v371h90v-371q0 -81 -49 -127.5t-136 -46.5q-85 0 -132.5 46t-47.5 129v167h-296z" />
    <glyph glyph-name="uni01F7" unicode="&#x1f7;" horiz-adv-x="661" 
d="M389 725q103 0 160 -64t57 -179q0 -161 -106.5 -284.5t-312.5 -207.5v-230h-90v955h71l15 -97h5q37 55 86.5 81t114.5 26zM187 74q161 67 245 171.5t84 235.5q0 81 -37 123.5t-106 42.5q-94 0 -140 -55.5t-46 -173.5v-344z" />
    <glyph glyph-name="uni01F8" unicode="&#x1f8;" horiz-adv-x="759" 
d="M562 680q2 43 20.5 43t40.5 -23t22 -41q0 -82 -25.5 -233t-68 -280t-80.5 -129q-13 0 -29.5 13t-25.5 32q-30 70 -177 444q-30 -116 -66.5 -262.5t-48.5 -186.5t-21 -40q-13 0 -31.5 22.5t-18.5 46.5t65 281.5t67 321.5q0 32 17 32q11 0 30.5 -18.5t28.5 -40.5
q161 -418 204 -512q65 172 87 411q10 110 10 119zM61.5 944q-1.5 4 -1.5 16t15 30.5t33 18.5q13 0 38 -26q6 -7 17 -19t18 -19q65 -66 70 -82q2 -5 2 -13.5t-8.5 -17.5t-17.5 -9t-19.5 6.5t-29.5 21.5t-30 23t-24 17t-19 13t-15 10.5t-13.5 10.5t-9 9.5t-6 9.5z" />
    </font>
</defs>
</svg>
