<?xml version="1.0" standalone="no"?>
<!DOCTYPE svg PUBLIC "-//W3C//DTD SVG 1.1//EN" "http://www.w3.org/Graphics/SVG/1.1/DTD/svg11.dtd" >
<svg xmlns="http://www.w3.org/2000/svg" xmlns:xlink="http://www.w3.org/1999/xlink" version="1.1">
<metadata>
Created by FontForge 20190801 at Mon Feb  8 12:16:02 2021
 By root
Copyright (c) 2010, Birgit Pulk (birgitpulk@gmail.com). All rights reserved. Licenced under SIL OFL v1.1
</metadata>
<defs>
<font id="Kristi-Regular" horiz-adv-x="480" >
  <font-face 
    font-family="Kristi"
    font-weight="400"
    font-style="italic"
    font-stretch="normal"
    units-per-em="2048"
    panose-1="2 0 6 3 0 0 0 0 0 0"
    ascent="1272"
    descent="-776"
    x-height="784"
    cap-height="1181"
    bbox="-436 -1035 2521.5 2142"
    underline-thickness="0"
    underline-position="0"
    slope="-15"
    unicode-range="U+0001-206F"
  />
<missing-glyph horiz-adv-x="748" 
d="M68 0v1272h544v-1272h-544zM136 68h408v1136h-408v-1136z" />
    <glyph glyph-name=".notdef" horiz-adv-x="748" 
d="M68 0v1272h544v-1272h-544zM136 68h408v1136h-408v-1136z" />
    <glyph glyph-name="uni0000" 
 />
    <glyph glyph-name="uni0000" 
 />
    <glyph glyph-name="uni000D" unicode="&#xd;" 
 />
    <glyph glyph-name="uni0001" 
 />
    <glyph glyph-name="uni0002" 
 />
    <glyph glyph-name="uni0003" 
 />
    <glyph glyph-name="uni0004" 
 />
    <glyph glyph-name="uni0005" 
 />
    <glyph glyph-name="uni0006" 
 />
    <glyph glyph-name="uni0007" 
 />
    <glyph glyph-name="uni0008" 
 />
    <glyph glyph-name="uni0009" unicode="&#x9;" 
 />
    <glyph glyph-name="uni000A" unicode="&#xa;" 
 />
    <glyph glyph-name="uni000B" 
 />
    <glyph glyph-name="uni000C" 
 />
    <glyph glyph-name="uni000E" 
 />
    <glyph glyph-name="uni000F" 
 />
    <glyph glyph-name="uni0010" 
 />
    <glyph glyph-name="uni0011" 
 />
    <glyph glyph-name="uni0012" 
 />
    <glyph glyph-name="uni0013" 
 />
    <glyph glyph-name="uni0014" 
 />
    <glyph glyph-name="uni0015" 
 />
    <glyph glyph-name="uni0016" 
 />
    <glyph glyph-name="uni0017" 
 />
    <glyph glyph-name="uni0018" 
 />
    <glyph glyph-name="uni0019" 
 />
    <glyph glyph-name="uni001A" 
 />
    <glyph glyph-name="uni001B" 
 />
    <glyph glyph-name="uni001C" 
 />
    <glyph glyph-name="uni001D" 
 />
    <glyph glyph-name="uni001E" 
 />
    <glyph glyph-name="uni001F" 
 />
    <glyph glyph-name="space" unicode=" " 
 />
    <glyph glyph-name="exclam" unicode="!" horiz-adv-x="370" 
d="M275 998q61 0 61 -44q0 -8 -15 -75.5t-31 -200.5q-30 -244 -87 -366q-14 -25 -41 -25.5t-31 25.5q0 4 -0.5 18t8.5 54q15 67 50 267.5t44.5 239t16.5 71t25 36.5zM138 123q60 0 60 -62q0 -14 -5 -27q-16 -37 -53.5 -37t-64.5 19t-27 48.5t10.5 54t18.5 41.5
q4 -16 12 -26.5t49 -10.5z" />
    <glyph glyph-name="quotedbl" unicode="&#x22;" horiz-adv-x="406" 
d="M85 749q37 71 62 205q6 27 13 30t11 3q26 0 48 -25t23 -45q0 -50 -95 -178q-34 -45 -59.5 -69t-41.5 -24.5t-26.5 9.5t-11.5 14q0 4 6 9q41 20 65 60q3 6 6 11zM253 784q37 71 62 205q6 27 13 30t11 3q26 0 48 -25t23 -45q0 -51 -97 -180q-32 -43 -57.5 -67t-41.5 -24.5
t-26.5 9.5t-10.5 14.5t5 9.5q41 19 65 59q3 6 6 11z" />
    <glyph glyph-name="numbersign" unicode="#" horiz-adv-x="882" 
d="M56 709q0 17 22 17l266 18l182 372q3 5 8 15t30 10t35 -14.5t10.5 -32t-48.5 -118.5t-101 -224q128 7 245 11q42 91 178 362q8 16 33 16t35 -14.5t10.5 -32t-40.5 -102t-103 -226.5h68q25 0 37 -41q3 -12 3 -21q-1 -19 -57 -19l-86 -3l-54 -134q-42 -104 -63 -151
q32 1 92 1q25 0 37 -41q3 -12 3 -21q-1 -19 -67.5 -20t-104.5 -3q-155 -311 -162 -311q-34 -44 -55.5 -44.5t-29.5 20.5q-3 14 5 36l119 290q-40 -3 -119 -11.5t-124 -9.5q-125 -250 -153.5 -287.5t-50 -38t-29.5 20.5q-3 14 5 36l110 269q-116 0 -153 7q-56 17 -61 51
q0 17 26.5 18t104.5 7l122 8l120 277q-152 0 -184 7q-56 17 -61 51zM307 382q65 4 234 12l123 281q-48 -4 -128.5 -12t-117.5 -10q-92 -228 -111 -271z" />
    <glyph glyph-name="dollar" unicode="$" horiz-adv-x="718" 
d="M157 -118q-16 8 -16 32t21 97q-25 13 -48 31q-96 74 -96 174q1 38 28 40q12 0 25.5 -6t24.5 -32l14 -34q30 -61 77 -90l133 461q-1 2 -2 6q-62 173 -62 276t38 181q65 131 212 158l38 117q6 17 22 19q8 0 26 -9.5t18 -40.5t-20 -81q49 -2 89 -17q107 -42 107 -159
q0 -35 -7 -64q-16 -66 -56 -66q-8 0 -15 3q-31 11 -31 48q0 12 12 46.5t12 51.5t-13 36q-33 48 -119 56q-59 -192 -159 -564l28 -109q48 -185 48 -256.5t-34 -127.5q-52 -83 -159 -83q-32 0 -63 9q-38 -105 -67 -105q-3 0 -6 2zM370 407q-22 -72 -108 -329q45 5 88.5 50.5
t43.5 119t-24 159.5zM375 742l107 358q-34 -19 -59 -58q-53 -83 -53 -212q0 -38 5 -88z" />
    <glyph glyph-name="percent" unicode="%" horiz-adv-x="979" 
d="M753 1083q9 13 31 13t34 -14.5t12.5 -33t-74 -139.5t-183.5 -327t-152 -276q-163 -260 -195 -300q-63 -65 -86 -20q-6 15 8 41l473 842q66 113 132 214zM263 576q-55 0 -103.5 45t-48.5 134.5t38 167.5q59 120 173 120q46 0 83 -18q79 -39 79.5 -137t-49.5 -190
q-66 -122 -172 -122zM359 960q-58 -1 -95.5 -82.5t-37.5 -154.5t53 -73q56 1 95 90.5t38.5 154t-53.5 65.5zM663 0q-55 0 -103.5 45t-48.5 134.5t38 167.5q59 120 173 120q46 0 83 -18q79 -39 79.5 -137t-49.5 -190q-66 -122 -172 -122zM759 384q-58 -1 -95.5 -82.5
t-37.5 -154.5t53 -73q56 1 95 90.5t38.5 154t-53.5 65.5z" />
    <glyph glyph-name="ampersand" unicode="&#x26;" horiz-adv-x="994" 
d="M163 189q0 -130 157 -130q107 0 230 88l46 35q79 60 103.5 67t37 6.5t12.5 -25.5q0 -72 -120 -148q-168 -106 -328 -106q-120 0 -187 81q-47 58 -47 137q0 240 236 464q80 76 224 182q-4 26 -4 38q0 110 64.5 200t152 90t103.5 -30.5t16 -75.5q0 -90 -96 -178
q-20 -18 -65.5 -55t-65.5 -56l24 -86q67 -246 106.5 -324t63 -103t68 -41.5t50 -31t5.5 -24.5q0 -34 -30 -45q-8 -3 -16 -3q-44 0 -106 86q-2 3 -3 4q-168 225 -245 521q-120 -56 -228 -179q-158 -180 -158 -358zM621 867q11 15 78 87q74 80 74 140q0 1 -3 28
q-69 -46 -109 -122.5t-40 -132.5z" />
    <glyph glyph-name="quotesingle" unicode="'" horiz-adv-x="437" 
d="M184 1006q80 0 80 -97t-28 -210q-2 -10 -6 -17q-14 -45 -48 -45q-23 1 -23 9t1 10q32 41 32 94.5t-21.5 143t-21.5 92.5q1 19 35 20z" />
    <glyph glyph-name="parenleft" unicode="(" horiz-adv-x="306" 
d="M338 1189q62 0 62 -139q0 -35 -16 -59q-142 -206 -196 -570q-18 -122 -22 -237q8 -250 8 -300t-10 -51q-32 0 -64 199q-17 106 -17 190q0 324 130 730q2 2 5 10q49 157 75 191.5t45 35.5z" />
    <glyph glyph-name="parenright" unicode=")" horiz-adv-x="575" 
d="M195 -170q-64 0 -64 140q0 36 16.5 60.5t17.5 25.5q116 179 167 487q25 151 25 290t-6 222t-6 107t10 25q33 0 63 -179q15 -88 17 -147l2 -66q0 -332 -146 -805q-52 -159 -96 -160z" />
    <glyph glyph-name="asterisk" unicode="*" horiz-adv-x="788" 
d="M261 923q0 31 26 40q10 -1 24 -13q65 -66 147 -132q-5 104 -5 200q0 18 34 26q7 1 11 1q16 -1 17 -62t12 -170l20 16q123 90 137.5 95.5t33.5 5.5t24 -16q2 -7 -7 -16l-180 -157l26 -24q97 -97 110 -117.5t13 -41.5t-14 -24q-7 1 -13 7l-138 125v-8q0 -149 -6 -175
q-8 -33 -37 -33q-12 3 -13 16q-9 99 -16 202l-126 -100q-27 -27 -44.5 -27t-27.5 13t-9.5 21t51.5 48.5t138 121.5q-150 132 -183 165q-5 7 -5 13z" />
    <glyph glyph-name="plus" unicode="+" horiz-adv-x="736" 
d="M496 782l-41 -228q108 8 220 8q19 0 26 -42q1 -8 1 -13q-1 -17 -38 -17q-107 -4 -220 -19q-7 -41 -27.5 -123t-35.5 -109.5t-39.5 -28t-24.5 11.5q0 32 39 238q-15 -1 -103 -1t-113 7t-32 33q-4 24 11 27h3q39 3 124 11t126 11q45 231 57 246q10 10 32 11q32 -6 35 -23z
" />
    <glyph glyph-name="comma" unicode="," horiz-adv-x="402" 
d="M219 195q53 0 70 -62q5 -20 5 -43q0 -75 -52 -151.5t-97 -77.5q-10 1 -11 8q1 6 14 22q126 104 24 195q-32 27 -32 39q0 39 42 61q18 9 37 9z" />
    <glyph glyph-name="hyphen" unicode="-" horiz-adv-x="669" 
d="M510 408q-63 -3 -137.5 -16t-132.5 -13t-80 5q-26 16 -27 45q2 13 11 16q252 33 374 33q14 -9 18 -52q-1 -18 -26 -18z" />
    <glyph glyph-name="period" unicode="." horiz-adv-x="491" 
d="M193 179q6 -18 14.5 -29.5t37.5 -11.5t39 -3q45 -12 45 -66q0 -18 -8 -33q-20 -39 -60.5 -39t-70.5 22t-29 67q0 15 1 21t31 72z" />
    <glyph glyph-name="slash" unicode="/" horiz-adv-x="759" 
d="M644 1126q51 -6 50 -39q-1 -24 -69 -147t-168.5 -336.5t-199 -385t-128 -207.5t-54.5 -37q-4 0 -9 2q-34 12 -13 56l138 272q282 555 426 807q8 14 27 15z" />
    <glyph glyph-name="zero" unicode="0" horiz-adv-x="466" 
d="M271 1025q51 108 107 108q50 0 70 -25q49 -61 54.5 -175.5t-3.5 -186.5q-37 -340 -185 -589q-2 -3 -20.5 -29.5t-29.5 -40.5q-91 -129 -157 -129q-14 0 -25 3q-74 17 -74 128t81 421q82 314 182 515zM403 1000q-17 -2 -43 -41q-72 -114 -161 -415t-89 -397q0 -42 16 -43
q14 1 40 30q71 82 153 269q121 275 121 466q0 14 -3 36q-11 95 -34 95z" />
    <glyph glyph-name="one" unicode="1" horiz-adv-x="587" 
d="M222 -66q-12 2 -12 38.5t44 161.5l86 232q122 320 151 471q-49 -40 -119.5 -134t-102.5 -130q-50 15 -50.5 54t51 103.5t58.5 75.5l202 264q24 37 29 40q6 3 12 4q57 0 76 -19t19.5 -35t-12.5 -50l-16 -42q-109 -340 -294 -853q-42 -117 -88 -163q-19 -18 -34 -18z" />
    <glyph glyph-name="two" unicode="2" horiz-adv-x="686" 
d="M542 128l-72 26q-73 0 -161 -75q-13 -12 -67 -61q-95 -87 -172 -87q-46 0 -61 67q-4 19 -4 39q0 75 43 136q11 19 256 310.5t298.5 388.5t53.5 144v6q-122 -40 -237 -129q-26 -21 -63 -20.5t-38 23.5q1 24 42 61q161 141 267 142q65 0 102 -41t37 -80q0 -93 -145 -267
q-14 -16 -34 -40.5t-27 -32.5l-438 -529q246 80 339 79.5t94 -47.5q-2 -12 -13 -13z" />
    <glyph glyph-name="three" unicode="3" horiz-adv-x="674" 
d="M533 723l-189 -22q-18 1 -41 40.5t-25 76.5q-9 18 141.5 95t150.5 95q-1 17 -32.5 17.5t-140.5 -41.5t-117.5 -42t-19.5 1q-92 6 -92 28q1 14 61 44q195 95 305 95q175 0 176 -91q0 -24 -24 -50t-124 -73t-130 -77q42 8 70 8q139 -1 141 -152q0 -213 -194 -444
q-139 -165 -303 -249q-48 -24 -72 -24t-26 20q0 24 12.5 47t39.5 23.5t116 73t196 226.5q146 210 146 346q-1 27 -25 29z" />
    <glyph glyph-name="four" unicode="4" horiz-adv-x="556" 
d="M362 582q-249 -107 -304 -107q-31 1 -31.5 31.5t51.5 99.5l1 2q175 235 417 493q19 20 25.5 22t18.5 2q66 0 90 -20q33 -27 23 -51q-53 -141 -201 -499l-200 -491q-42 -107 -61 -112q-8 2 -8 29q0 150 133 484l21 53q18 45 25 64zM400 698l50 114q52 115 67 159
l-309 -350z" />
    <glyph glyph-name="five" unicode="5" horiz-adv-x="462" 
d="M406 723l-172 -22q-1 0 -4 1q-21 6 -21 40q0 144 11.5 206.5t28.5 89.5q40 61 117 61l239 -3q56 0 57 -29q0 -11 -8 -23q-24 -36 -80 -36l-216 2q-8 0 -16.5 -2t-15.5 -69t-16 -117q27 5 49 5h27q131 -6 131 -152q0 -214 -194 -444q-139 -165 -304 -249
q-48 -24 -71.5 -24t-25.5 20q0 24 12.5 47t39.5 23t92 53q112 92 220 247q146 210 146 346q-1 27 -26 29z" />
    <glyph glyph-name="six" unicode="6" horiz-adv-x="646" 
d="M520 307q-28 -1 -101 -29q-88 -34 -154 -101q-38 -40 -36 -76t41 -42q62 0 163 98.5t101 133.5q-1 14 -14 16zM619 1101q-171 -120 -294 -560l-55 -199q-8 -27 -8 -30q1 -14 17 -15t107 41.5t147 42.5q94 -1 96 -64q-1 -67 -108 -173q-196 -195 -294 -198q-84 1 -85 150
q0 226 145 614q81 216 129 287q17 25 42 50q77 76 148 76q27 0 27.5 -5.5t-14.5 -16.5z" />
    <glyph glyph-name="seven" unicode="7" horiz-adv-x="632" 
d="M326 952l-75 -19q-23 1 -25 22q0 48 41 61q280 85 323 85t84 -34t40.5 -99.5t-92.5 -191.5q-16 -22 -102 -125l-450 -542q-4 -5 -39.5 -95.5t-56.5 -90.5q-20 1 -20 114q4 78 49 144q57 75 215 263l196 236q191 242 191 336v6q-13 -3 -279 -70z" />
    <glyph glyph-name="eight" unicode="8" horiz-adv-x="633" 
d="M351 770q0 161 38 248.5t68.5 108t54.5 20.5q65 0 112 -35.5t48 -73.5q0 -71 -84 -153l-52 -48q-82 -73 -110 -114q35 -55 35 -253t-61 -376q-66 -192 -177 -192q-127 0 -130 185q0 6 -1 11q0 300 253 631q7 9 6.5 22t-0.5 19zM247 24h5q52 0 92 122q71 216 16 459
q-35 -23 -104.5 -179.5t-73.5 -282.5q0 -6 -1 -10q1 -100 66 -109zM416 822q15 22 76.5 98.5t82.5 143.5q-70 -22 -114.5 -95.5t-44.5 -146.5z" />
    <glyph glyph-name="nine" unicode="9" horiz-adv-x="612" 
d="M190 806q1 -12 14.5 -13t27.5 2q79 15 173 81.5t95 121.5q-1 53 -62 55q-86 0 -165.5 -83t-82.5 -164zM195 718q-96 0 -96 64q0 141 103 250.5t233 109.5q41 0 74 -16q75 -36 76 -123q0 -229 -164 -654q-87 -225 -119 -273q-100 -148 -205 -148q-27 0 -27.5 4t-1.5 4
q9 4 32 26q115 115 184 273t160 477l6 21q5 15 10 31.5t4.5 26.5t-16.5 11t-107.5 -41.5t-145.5 -42.5z" />
    <glyph glyph-name="colon" unicode=":" horiz-adv-x="615" 
d="M299 195q6 -18 14.5 -29.5t37.5 -11.5t39 -3q45 -12 45 -66q0 -18 -7 -33q-20 -39 -61 -39t-70.5 22t-29.5 67q0 15 1 21t31 72zM347 691q6 -18 14.5 -29.5t37.5 -11.5t39 -3q45 -12 45 -66q0 -18 -7 -33q-20 -39 -61 -39t-70.5 22t-29.5 67q0 15 1 21t31 72z" />
    <glyph glyph-name="semicolon" unicode=";" horiz-adv-x="724" 
d="M394 688q6 -18 14.5 -29t38.5 -11q83 0 82 -69q0 -18 -7 -33q-19 -39 -59.5 -39t-70.5 21q-51 36 -17 119zM420 195q53 0 70 -62q5 -20 5 -43q0 -75 -52 -151.5t-97 -77.5q-10 1 -11 8q1 6 14 22q126 104 24 195q-32 27 -32 39q0 39 42 61q18 9 37 9z" />
    <glyph glyph-name="less" unicode="&#x3c;" horiz-adv-x="747" 
d="M491 229q-31 2 -100 39q-164 96 -228 126.5t-67 32.5q-14 9 -14 28.5t2 27.5q1 7 14 13q25 11 128 72q108 65 231 125.5t133.5 60.5t11 -21t-15.5 -45q-18 -22 -62 -48l-54 -32q-41 -25 -142 -74t-144 -73q49 -17 143.5 -69.5t118.5 -62.5q60 -25 60 -81q-1 -17 -15 -19z
" />
    <glyph glyph-name="equal" unicode="=" horiz-adv-x="1333" 
d="M909 750h8q19 0 28 -37q2 -9 2 -15q-1 -18 -43 -18q-109 -3 -234.5 -16t-231.5 -13q-107 1 -135 7q-39 8 -39 43q0 14 15 16h3q384 31 627 33zM877 427q-1 -17 -76.5 -18.5t-201 -14.5t-231.5 -13q-107 -1 -134 5q-34 8 -40 44q0 14 14 16h3q425 34 635 34q20 0 29 -38
q2 -9 2 -15z" />
    <glyph glyph-name="greater" unicode="&#x3e;" horiz-adv-x="774" 
d="M226 755q30 -2 98 -39q162 -96 226.5 -126.5t65.5 -31.5q19 -9 19 -33t-4.5 -29t-25 -15.5t-140.5 -79t-224 -120t-114.5 -51.5t-11 21t16 44.5t61 49t69 40.5t125 63t146.5 74q-51 17 -147 70.5t-118 63.5q-58 25 -57 80q1 17 15 19z" />
    <glyph glyph-name="question" unicode="?" horiz-adv-x="771" 
d="M276 389q0 123 66 213q29 42 132.5 153.5t134 147t30.5 85.5t-48 74q-20 9 -55 9.5t-78 -35t-52 -36.5q-23 0 -31 45q-1 7 -1 13q0 47 43 73t88 26q99 0 157 -79q41 -57 41 -128q0 -100 -101 -202q-20 -20 -60 -56t-56 -52q-77 -69 -106.5 -123.5t-42.5 -138.5
q-15 -98 -35 -98t-26 96v13zM294 123q60 0 60 -62q0 -14 -6 -27q-16 -37 -53 -37t-65 19q-46 32 -14 107l17 37q4 -16 11.5 -26.5t49.5 -10.5z" />
    <glyph glyph-name="at" unicode="@" horiz-adv-x="1036" 
d="M682 597q-122 -20 -208 -166q-64 -108 -74 -214q-1 -7 0 -12q158 208 282 392zM690 651q10 0 21 11.5t35.5 11.5t29.5 -24q0 -7 -7.5 -23.5t-9.5 -24t-46.5 -155.5t-44 -194.5t11.5 -47.5q51 -1 121 81q89 104 89 235t-125 184q-60 25 -136 25q-290 0 -414 -150
q-64 -79 -64 -170q0 -191 110 -300.5t307 -109.5q123 0 178 33t71 37.5t39 3.5t24 -20q0 -94 -201 -115q-46 -5 -95 -5q-305 0 -433 208q-74 122 -74 288q0 114 83 210q146 168 473 174h22q182 0 265 -115q44 -61 44 -129q0 -141 -84 -259q-116 -162 -214 -162q-52 0 -64 59
q-10 45 27 181q7 26 10 40q-17 -21 -115 -161q-109 -156 -148 -156t-58 35q-8 15 -7 32q0 45 52 164q85 195 187 273q51 38 98 40z" />
    <glyph glyph-name="A" unicode="A" horiz-adv-x="631" 
d="M508 -163q0 -63 -44 -63q-24 0 -43 16q-45 39 -45 121.5t11.5 168.5t69.5 312q-92 -11 -140 -13q-159 -267 -328 -464q-13 -12 -37.5 -11.5t-26.5 16.5q0 17 29 60t34 49l223 350q-153 1 -188 16t-35 48q0 15 22 19q164 16 268 24l223 370l64 275q8 36 39 36.5t54 -4.5
q70 -16 70 -64q0 -7 -33 -154t-113 -440q83 4 220 4q10 -1 23 -19.5t14 -49.5q-1 -21 -83 -23.5t-201 -13.5q-108 -417 -108 -478q2 -16 31 -44q29 -23 30 -44zM402 530l-20 -37l102 7q19 85 28 148q-3 27 -45.5 -25.5t-64.5 -92.5z" />
    <glyph glyph-name="B" unicode="B" horiz-adv-x="570" 
d="M643 1059q0 -67 -123 -185q-3 -3 -5 -4q69 0 113 -85q28 -56 28 -110q0 -155 -145 -364q-108 -154 -270 -295q-62 -54 -79.5 -59t-24.5 -5q-33 0 -52.5 30.5t-20.5 49.5q0 79 219 837l62 214q18 62 106 79q23 4 46 4q80 0 113 -35.5t33 -71.5zM414 1034q-11 -77 -32 -146
q75 43 108 87.5t60 102.5q-61 -1 -128 -40zM550 786q-116 -49 -227 -148q-4 -23 -70.5 -259.5t-71.5 -264.5q94 56 199 185q196 240 196 453q-1 36 -15 37q-3 0 -11 -3z" />
    <glyph glyph-name="C" unicode="C" horiz-adv-x="720" 
d="M467 555q-27 0 -27 23q1 11 18.5 31.5t50.5 87.5q72 147 72 236q0 16 -9 35q-20 42 -50 42q-101 -2 -264 -544q-44 -143 -44 -280q0 -39 17 -80q34 -80 102 -80q119 0 243 96q44 34 130 107t94 73q4 -1 6 -9q-1 -73 -171 -224q-142 -123 -288 -123q-103 0 -162 51
q-79 69 -79 257t93 437.5t247 393.5q35 31 72 32q178 0 178 -115q0 -62 -95.5 -254.5t-133.5 -192.5z" />
    <glyph glyph-name="D" unicode="D" horiz-adv-x="606" 
d="M402 952l-45 22q18 113 106 147q28 10 59 10q86 0 151 -65q65 -64 65 -144q1 -104 -44 -240q-108 -323 -382 -628l-69 -73q-39 -35 -53 -37q-43 1 -83 83q13 37 130.5 416t164.5 509zM491 1019q0 -83 -31.5 -187.5t-45 -149t-77 -232.5t-94.5 -311q77 81 151 194
q4 6 7 10q228 353 228 663q0 35 -19 41q-6 1 -12 1q-63 -1 -107 -29z" />
    <glyph glyph-name="E" unicode="E" horiz-adv-x="592" 
d="M335 -24l-284 -8q-16 1 -17 7q1 21 17 48q31 145 228 750q-38 -2 -48 -2q-2 2 -2 5q0 44 21 66.5t35.5 23t24.5 0.5l59 176q7 62 39 84q11 7 81 7t288 -7q25 -1 36 -43q3 -10 3 -18q0 -19 -50 -20q-23 0 -47 0.5t-73 0.5t-167 -4l-56 -177q101 -2 212 -6q25 -1 36 -45
q3 -11 3 -18q-4 -19 -39 -19l-104 2q-62 0 -137 -2l-241 -714q57 -1 128 -2t165 -4q39 -1 39 -64q-2 -18 -38.5 -17.5t-66.5 0.5h-45z" />
    <glyph glyph-name="F" unicode="F" horiz-adv-x="597" 
d="M170 27q-64 -99 -145 -153.5t-132 -54.5t-51 21q0 7 12.5 10t13.5 4q196 43 305 390q24 76 59 225l69 294h-24q-15 1 -16 16q0 43 35 72q14 11 29 14q62 260 79 293q18 34 40 38t46 4q28 0 27 -27q0 -22 -4 -36q202 6 409 9q31 0 48 -42q5 -13 6 -22q-1 -21 -76 -21
q-159 -2 -414 -20l-43 -172q216 6 343 6q31 0 47 -41q5 -14 6 -23q-1 -21 -90 -22.5t-331 -18.5l-48 -192q-101 -397 -200 -551z" />
    <glyph glyph-name="G" unicode="G" horiz-adv-x="633" 
d="M568 882q-16 0 -26 20q0 63 -14.5 97t-25.5 35q-80 0 -173 -308q-72 -238 -103 -467q-8 -60 -8 -96t15 -38q51 3 129 164t110 313q8 40 9 68q-14 0 -22 4q-27 14 -29 44q2 14 11 16q267 36 389 36q15 -8 19 -53q-1 -17 -27 -18q-64 -3 -127 -14t-70 -12q-24 -99 -25 -111
t-8 -46q-157 -804 -359 -1087q-69 -96 -150 -145t-127 -49q-60 0 -60 23q0 7 13.5 10t13.5 4q77 12 152 92q19 21 33 41q168 234 322 762q20 67 29 105q-127 -314 -255 -314q-100 0 -100 131t90 456.5t169 497.5q31 67 54.5 95.5t66.5 29.5q93 0 108 -131q4 -34 2 -94
t-26 -61z" />
    <glyph glyph-name="H" unicode="H" horiz-adv-x="691" 
d="M803 1208l-134 -524h49q35 1 53 1q23 0 34 -49q2 -12 2 -20q-1 -22 -51 -22.5t-113 -4.5l-42 -154q-90 -313 -89.5 -518.5t87.5 -282.5q17 -12 18 -20q-2 -10 -17 -10.5t-31 9.5q-86 47 -128 201q-21 78 -21 149q0 184 87 522l24 95l-164 -18q-119 -476 -146 -543
t-51 -111t-78.5 -92t-78.5 -47t-25 10q0 9 12 27q134 204 217 586l40 163h-3q-206 0 -239.5 6t-45.5 25.5t-13 32.5q0 15 19 18q3 0 4 1l305 27l101 410q4 15 10.5 49t21.5 46t64 12q29 -2 30 -27q0 -11 -1 -17l-116 -465q112 6 164 8l120 465q4 15 9.5 49.5t21 46
t65.5 11.5q29 -2 30 -29q0 -10 -1 -16z" />
    <glyph glyph-name="I" unicode="I" horiz-adv-x="376" 
d="M379 1075q4 15 10.5 49t21.5 46t54.5 11t40 -19t-112 -473t-151 -582t-70.5 -185t-86.5 -106t-78.5 -47t-25 10q0 9 12 27q115 175 204 533z" />
    <glyph glyph-name="J" unicode="J" horiz-adv-x="370" 
d="M198 -168q-135 -411 -297 -550q-73 -64 -123 -64q-56 -1 -57 27q0 8 13.5 12t13.5 5q72 24 141 117q24 33 41 66q107 219 188 497t208 872q6 27 22.5 113t26 124.5t14.5 72.5t20.5 46t66.5 12q29 -2 30 -27q0 -11 -24.5 -110.5t-116.5 -544t-167 -668.5z" />
    <glyph glyph-name="K" unicode="K" horiz-adv-x="707" 
d="M508 1186q10 -2 10.5 -14t-113.5 -414l309 365q9 11 26.5 11t32 -17t13.5 -33q0 -18 -80 -110l-166 -201q52 -460 80.5 -567.5t59 -179.5t93.5 -121q27 -21 52 -29.5t26 -17.5q-1 -13 -36 -13q-106 0 -198 134q-48 71 -84 186t-56.5 269.5t-28.5 220.5l-109 -142
q-16 -60 -70 -249.5t-64 -227.5l-14 -53q-8 -31 -16 -31q-28 0 -45 32t-18 46q0 76 210 824l75 263q8 24 31 38q56 31 80 31z" />
    <glyph glyph-name="L" unicode="L" horiz-adv-x="621" 
d="M389 1125q63 98 143.5 153t132.5 55t52 -21q0 -8 -24 -14h-2q-193 -44 -303 -383q-24 -76 -110.5 -437.5t-93.5 -386.5l-10 -37q213 8 418 8q32 0 49 -41q5 -13 5 -23q-1 -20 -98.5 -21t-281.5 -13t-189 -12q-36 0 -36 25t23.5 100.5t93.5 369.5l31 127q95 385 200 551z
" />
    <glyph glyph-name="M" unicode="M" horiz-adv-x="696" 
d="M19 -61q-62 2 -9 46q9 7 13 12q83 76 114 144q13 32 248 798l1 1v2q3 11 13 53q36 168 63.5 201t47.5 33q48 -4 52 -29q0 -5 -9 -39q-77 -258 -77 -393q0 -18 16 -35t19 -17q27 2 102.5 178.5t95.5 216t34 39.5q40 0 53.5 -11.5t14 -16t-20.5 -60t-138.5 -442
t-145 -509.5t-27.5 -182q1 -19 31 -39q36 -24 35 -45q-1 -65 -39 -66q-94 1 -94 176q0 141 61 347q72 243 72 259q-14 -36 -42.5 -60t-49 -24t-47 33t-27.5 54t0 28q-19 -40 -74 -240t-114 -295q-73 -118 -172 -118z" />
    <glyph glyph-name="N" unicode="N" horiz-adv-x="618" 
d="M352 -79l10 470q0 36 -2 84q-224 -646 -277 -773q-41 -78 -95 -82q-6 2 -6 7t20 47q33 67 192 596q242 809 251 883q10 52 44 52q73 0 78 -37q-3 -32 -45 -216.5t-45.5 -214t-17 -119t-13.5 -120t2 -38.5q25 83 80 299t80.5 286.5t29.5 84.5q81 244 128 244
q13 0 36 -16.5t23 -39.5t-20 -57q-68 -116 -166 -379q-191 -514 -201 -867v-1q-4 -134 -38 -134q-14 0 -24 2q-24 6 -24 39z" />
    <glyph glyph-name="O" unicode="O" horiz-adv-x="553" 
d="M219 -42q-100 0 -100 121t80.5 426t178.5 522q20 43 23 51q38 74 93 74t76 -29q51 -61 57 -170t-4 -183q-53 -405 -196 -610l-20 -30q-115 -172 -188 -172zM554 924q-11 94 -30 93q-73 -4 -213 -505q-77 -277 -77 -350q1 -2 2.5 -15.5t11.5 -13.5q13 1 38 28
q69 79 150 263q121 273 121 462q0 15 -3 38z" />
    <glyph glyph-name="P" unicode="P" horiz-adv-x="622" 
d="M332 392q173 180 250 394q29 80 38 153q-22 32 -69.5 31.5t-68.5 -21.5q-14 -52 -61 -236.5t-89 -320.5zM460 1149l38 5q30 0 34 -18q1 -5 -7 -38.5t-8 -43.5q12 2 35 2q101 0 140 -52q17 -24 17 -55q0 -140 -100.5 -329.5t-199.5 -277.5q-55 -48 -92 -49
q-90 -369 -192 -527q-60 -93 -139.5 -145.5t-124 -52.5t-50 9t-6 13.5t12.5 7.5t13 4q77 19 148 101q126 152 236 590l115 469q72 299 89 339.5t39 46.5q2 0 2 1z" />
    <glyph glyph-name="Q" unicode="Q" horiz-adv-x="558" 
d="M210 -42q-101 0 -101 121t81 426t179 522q20 43 23 51q38 74 98 74q40 0 75 -32.5t44 -146t1 -193.5q-47 -413 -192 -620l-15 -22q-14 -22 -22 -32q31 -94 59 -131q57 -73 185 -74q36 0 38 -13q-2 -30 -90 -30q-44 0 -89 11q-125 32 -194 127q-42 -38 -80 -38zM545 924
q-11 94 -30 93q-74 -4 -212 -505q-77 -277 -78 -350q1 -2 2.5 -15.5t11.5 -13.5q13 1 38 28q69 79 150 263q121 273 121 462q0 15 -3 38z" />
    <glyph glyph-name="R" unicode="R" horiz-adv-x="718" 
d="M708 1014q0 -159 -184 -249q32 -272 58 -442q36 -231 100 -330q56 -94 128 -118q22 -5 23 -17q-1 -12 -45 -13q-76 1 -153 91.5t-106 186.5q-3 8 -4 15q-57 183 -101 584l-52 -18q-148 -469 -198 -728q-8 -22 -16 -24q-17 1 -39.5 25t-23 54.5t68.5 301.5t213 750
q5 17 17 32q41 51 135 51q55 0 117 -40t62 -112zM462 1056q-9 -49 -39 -153.5t-33 -113.5q35 7 70 21q140 58 139 180q0 6 -1 16q-11 68 -58 68t-78 -18z" />
    <glyph glyph-name="S" unicode="S" horiz-adv-x="449" 
d="M107 176l-6 -69q0 -39 27 -41q85 0 122 284l99 763q3 20 15 40q30 48 78 48t99 -38t51 -100.5t-24 -129.5q-39 -107 -99 -107q-33 0 -48 22l-74 -502q-19 -121 -55 -212q-66 -161 -162 -161q-46 0 -89.5 39.5t-43.5 126t66 87.5q42 -1 44 -50zM429 952q64 7 67 115
q-19 -2 -44.5 -23.5t-25.5 -70.5q0 -11 3 -21z" />
    <glyph glyph-name="T" unicode="T" horiz-adv-x="576" 
d="M965 1038q-167 -2 -343 -14q-200 -809 -236.5 -924t-67.5 -171.5t-87 -105.5t-92 -50q-13 2 -13 13t23 46q122 191 211 582l148 602q-2 0 -133 -8.5t-188 6.5q-49 23 -57 51q-5 22 67 31l65 6l86 6q92 4 184 9l1 1q4 17 10.5 52t22 47t66.5 12q30 -2 30 -29q0 -15 -1 -18
l-16 -62l345 5q33 0 50 -43q5 -13 5 -23q-1 -21 -80 -21z" />
    <glyph glyph-name="U" unicode="U" horiz-adv-x="704" 
d="M285 145q12 1 28 18q160 185 338 603q8 18 70 168.5t83 162.5q6 3 28 3.5t31 -11t9 -36.5t-16 -66q-100 -248 -173 -528q-35 -139 -35 -258t4 -140t-12.5 -40t-29 -26.5t-34.5 1.5q-22 8 -32 30q-11 24 1.5 137t34.5 211l25 108q-116 -254 -205 -378t-173 -125
q-52 2 -52 96q0 141 85 446t124.5 406.5t47.5 126.5q21 57 64 56.5t44 -41.5q0 -30 -23 -90q-189 -504 -232 -834z" />
    <glyph glyph-name="V" unicode="V" horiz-adv-x="542" 
d="M206 1105q0 63 44 63q47 0 67.5 -45.5t20.5 -96.5q0 -155 -54.5 -393.5t-62.5 -300t-15 -101.5l573 810q25 24 86 23q33 -1 18 -27q-5 -8 -5 -16t-34 -55q-621 -855 -644 -890t-41 -53l-22 -96q-3 -11 -4 -15q-7 -22 -34 -22q-75 1 -75 69q0 11 31.5 147.5t51.5 237.5
t152 604q8 29 8 69q-2 16 -32 44q-29 23 -29 44z" />
    <glyph glyph-name="W" unicode="W" horiz-adv-x="1035" 
d="M939 482q-116 -254 -205 -378t-173 -125q-52 2 -52 95t52 312q-162 -343 -286 -396q-25 -10 -48 -11q-52 2 -52 96q0 141 85 446t124.5 406.5t47.5 126.5q21 57 64 56.5t44 -41.5q0 -30 -23 -90q-189 -504 -232 -834q12 1 28 18q159 185 337 602l77 185l12 31
q19 48 27 73q21 57 64 56.5t44 -41.5q0 -13 -2 -29q-3 -28 -21 -69t-19 -45q-173 -476 -213 -781q12 1 28 18q160 185 338 603q8 18 70 168.5t83 162.5q6 3 28 3.5t31 -11t9 -36.5t-16.5 -66.5t-19.5 -49t-93 -166t-138 -289.5z" />
    <glyph glyph-name="X" unicode="X" horiz-adv-x="387" 
d="M612 929q-1 -2 -6 -18l-295 -523q10 -222 61 -373q16 -32 12 -52q-4 -9 -26 -3.5t-63.5 62.5t-61.5 130q0 2 -7.5 30t-8.5 38l-126 -223q-37 -63 -55 -99q-25 -49 -51 -76q-30 -36 -85 -42q-3 0 -13 12.5t-5 22.5q4 10 20 28q21 25 35.5 53t42.5 76l234 421q3 416 3 704
q0 40 39 66l38 23q12 7 23.5 0.5t8.5 -99.5l-16 -474q-1 -25 -1 -51l163 294q29 57 36 66q21 25 83 32h6q23 1 15 -25z" />
    <glyph glyph-name="Y" unicode="Y" horiz-adv-x="558" 
d="M756 1161q-1 -3 -1 -5q0 -6 -3 -18l-407 -971q-73 -169 -125.5 -243t-107.5 -115t-76.5 -40t-20.5 10.5t15 26.5q101 122 205 348l132 301q-72 451 -94.5 554.5t-19.5 130.5q4 23 42 36q15 5 32.5 4.5t22.5 -18.5q10 -48 43 -249t48 -279l176 441q7 16 18 50t27.5 45
t55 11.5t38.5 -20.5z" />
    <glyph glyph-name="Z" unicode="Z" horiz-adv-x="800" 
d="M826 1036l-428 -16q-27 0 -58 4q-116 17 -116 59q0 15 30 17h2l199 16q158 9 283 9h196q33 0 50 -43q5 -13 4 -25.5t-41 -16.5q-12 -17 -31 -38l-783 -898q58 4 206 17q147 13 181 14q134 4 157 -42q5 -8 5 -15q1 -12 -11 -14.5t-20 -3.5l-168 -23q-154 -15 -259 -18.5
t-167 -6.5q-22 -24 -57 -24t-38.5 25t3.5 42.5t52 68.5z" />
    <glyph glyph-name="bracketleft" unicode="[" horiz-adv-x="688" 
d="M707 1024l-137 -2q-37 -123 -146 -532t-154 -560q40 3 157.5 6t153.5 11q76 17 78 -9q0 -57 -110 -82q-69 -16 -311 -16q-64 1 -64 50q0 25 40 143t130 479l117 464q6 22 14.5 64.5t18.5 50t26 7.5t50 0.5t117 0.5t103 -11t21 -19q0 -21 -34.5 -33t-69.5 -12z" />
    <glyph glyph-name="backslash" unicode="\" horiz-adv-x="589" 
d="M213 1176q33 0 48 -88q60 -324 106 -528l49 -218q67 -300 66.5 -363.5t-37.5 -64.5q-25 2 -34 33q-151 560 -217 966l-36 223q-1 6 -1 11q12 25 56 29z" />
    <glyph glyph-name="bracketright" unicode="]" horiz-adv-x="666" 
d="M162 -90l137 2q39 130 147 538t152 555q-16 -1 -149 -6t-165 -13q-72 -17 -74 11q0 57 110 82q62 15 310 15q63 -3 64 -49q0 -29 -39 -145.5t-129 -477.5l-118 -464q-6 -21 -14.5 -63t-20.5 -51q-9 -6 -23 -7q-208 0 -249.5 1.5t-42.5 27.5q0 20 34 32t70 12z" />
    <glyph glyph-name="asciicircum" unicode="^" horiz-adv-x="715" 
d="M425 1089q24 24 58 -6q10 -6 10 -15q36 -132 78 -259.5t42 -156t-30.5 -28.5t-40.5 22q-2 4 -4 13t-31 95q-40 119 -64 243q-39 -46 -98.5 -128t-83.5 -109l-17 -19q-91 -101 -112 -108q-5 -1 -28.5 0t-26.5 20q1 5 7 11q194 256 262 334l76 87l3 3v1z" />
    <glyph glyph-name="underscore" unicode="_" horiz-adv-x="1000" 
d="M58 -296q0 11 22 10q547 27 806 28q26 0 38 -29q2 -7 2 -12q-1 -13 -95 -13.5t-256.5 -10.5t-295.5 -10.5t-172 4t-48 27.5q-1 4 -1 6z" />
    <glyph glyph-name="grave" unicode="`" horiz-adv-x="453" 
d="M130 1131q9 -1 16 -13t41.5 -86t68 -116t83.5 -55l1 -1q6 -3 6 -9t-10 -18q-8 -12 -26 -12q-30 0 -135.5 92.5t-105.5 144.5q0 17 10 35q20 38 51 38z" />
    <glyph glyph-name="a" unicode="a" horiz-adv-x="707" 
d="M527 653q-160 -27 -279 -210q-116 -178 -122 -352q229 302 401 562zM481 738l59 -8q14 0 29.5 16t40 16t39 -13t14.5 -22.5t-10 -31.5t-12 -29q-133 -417 -133 -532q1 -40 18 -41q61 0 191 160q87 107 112.5 157t40.5 53q3 0 5 1q18 -2 19 -21q0 -36 -83 -162
q-177 -270 -306 -270q-93 0 -93 130q0 62 25 154.5t30 115.5q-23 -30 -154 -218t-188 -222q-18 -10 -31 -11q-57 0 -83 45q-12 22 -12.5 63.5t61.5 191.5q100 242 227 373q100 102 194 105z" />
    <glyph glyph-name="b" unicode="b" horiz-adv-x="597" 
d="M282 160q1 -33 22 -35q15 0 37 21q67 65 148.5 255t81.5 250q-1 16 -17 19q-31 0 -61 -16q-98 -54 -165 -260q-46 -141 -46 -234zM250 -61q-65 0 -66 159q0 67 24 192.5t75 223.5q-31 -42 -93 -142.5t-86 -136.5v-1q-28 -42 -52 -41.5t-26 23.5q0 19 28 64
q136 212 278.5 531.5t168.5 442.5q7 28 53 29q15 0 31 -4q41 -12 41 -39q0 -9 -7 -21q-171 -295 -206 -513q71 42 139 43q24 0 44 -8q57 -22 57 -88q0 -40 -49.5 -185.5t-163 -337t-190.5 -191.5z" />
    <glyph glyph-name="c" unicode="c" horiz-adv-x="593" 
d="M381 787q128 0 128 -83q-4 -43 -69 -181.5t-96 -138.5q-15 3 -19 16q0 8 10 19t24 40q44 88 44 148t-17 84q-27 -1 -63 -55q-65 -101 -112.5 -264t-47.5 -258q0 -19 1 -30q4 -68 57 -68q160 0 433 278q55 55 61 24q0 -17 -20 -50q-52 -86 -161 -181q-161 -141 -276 -141
q-76 1 -122 57q-46 55 -58 111q-29 135 35 273q2 4 20 43q106 235 195 335q20 21 53 22z" />
    <glyph glyph-name="d" unicode="d" horiz-adv-x="634" 
d="M982 1310q-186 -306 -379 -881l-41 -116q-107 -295 -108 -388q2 -16 32 -44q29 -23 29 -44q-2 -57 -43 -63q-25 0 -45 18q-40 37 -40 120q0 154 65.5 338.5t77.5 229.5l-103 -135q-138 -181 -251 -291q-9 -5 -51.5 -40.5t-102.5 -35.5q-17 0 -31 6q-49 20 -49 90
q0 36 66 156t226.5 312t219 216t124.5 24q26 18 55 52t69 118l52 110q17 34 60 128.5t68 144.5q103 206 171 206q67 -1 69 -66q0 -49 -41 -107t-99 -58zM490 619q10 30 10 40.5t-4 12.5q-7 0 -62 -53q-218 -204 -356 -441q-32 -56 -32 -71t7 -17q9 0 28 13q71 48 218 219
t191 297z" />
    <glyph glyph-name="e" unicode="e" horiz-adv-x="547" 
d="M250 490q20 3 86 86t66 130q0 7 -5 16q-20 -20 -83.5 -114t-63.5 -118zM648 341q50 54 56 19q0 -13 -16 -43q-49 -91 -150 -193q-160 -162 -283 -162q-58 0 -99 33q-77 63 -77 219q0 89 54.5 250.5t167.5 292.5q50 64 104 64q26 0 54 -11q66 -27 66 -87q0 -9 -6 -29
q-41 -81 -132 -187t-185 -169q-32 -116 -32 -181t3 -83q9 -42 67 -42t134 53.5t162 141.5t97.5 99t14.5 15z" />
    <glyph glyph-name="f" unicode="f" horiz-adv-x="439" 
d="M524 685l-103 5q-91 -1 -147 -100t-139 -392.5t-113 -371.5q-145 -371 -306 -402q-15 -3 -28 -3q-57 0 -62 53q0 29 32 40q124 36 171.5 86t80.5 120q90 192 190 629t202 758q25 78 64.5 117t70.5 40q73 0 73 -118q0 -42 -24 -63.5t-52 -21t-47 18.5q-18 -66 -42 -145
t-47 -172q28 30 63.5 30.5t100.5 -23t98 -23.5l86 21q15 -2 16 -13q0 -54 -97 -67q-21 -3 -41 -3z" />
    <glyph glyph-name="g" unicode="g" horiz-adv-x="682" 
d="M675 611q-15 34 -39 34q-7 0 -11 -2q-87 -34 -241.5 -137t-159.5 -149q1 -9 12 -11q30 0 114.5 48.5t92.5 52.5q8 3 28 15l29 17q167 93 175 132zM492 269v3q8 50 8 54q-1 16 -29 16.5t-61.5 -14.5t-147.5 -79.5t-190 -64.5q-24 0 -59 22q-68 44 -3 123q50 57 169 145
l182 136q195 144 256 143t120 -71q-25 -14 -33 -72q1 1 12 1t21.5 -5.5t10.5 -46t-8 -41.5q-14 0 -57 -38.5t-64 -71.5q-19 -155 -66 -364q-100 -443 -212 -618q-34 -52 -83 -101q-110 -106 -202 -106q-44 0 -44 21q1 8 28.5 14.5t61.5 26.5q71 43 116 115q83 132 142.5 323
t131.5 550z" />
    <glyph glyph-name="h" unicode="h" horiz-adv-x="557" 
d="M288 594q1 1 38 46q37 44 52 60l19 20q20 19 60 18.5t42 -40.5q0 -11 -14 -49t-38 -142q-60 -252 -60 -408q0 -63 18 -65q31 0 96 79q59 71 186 326q19 33 44 33q13 -3 15 -22q0 -50 -27 -118q-51 -131 -153.5 -246t-168.5 -115q-97 1 -99 159q0 130 43 369
q-64 -21 -115 -101q-50 -80 -104 -232q-56 -157 -77 -177q-24 -18 -53.5 -17.5t-30.5 21.5t103 299t235.5 574t150.5 388q7 28 52 29q15 0 30 -4q42 -11 42 -39q0 -10 -6 -22l-14 -24q-76 -135 -266 -600z" />
    <glyph glyph-name="i" unicode="i" horiz-adv-x="489" 
d="M369 922q-5 2 -25 16q-24 17 -24 25q0 27 75 127t85 120q25 25 69 -25q35 -42 22 -68q-7 -26 -85 -110t-117 -85zM608 294q-37 -104 -147 -212q-130 -128 -218 -128q-119 0 -149 135q-9 41 -9 89q-1 155 59 359q75 258 142 258q33 0 48.5 -15.5t15.5 -22.5
q0 -32 -65 -157.5t-80.5 -182t-23 -147t-7.5 -116.5q0 -88 21.5 -110t52.5 -23q88 0 210 153q59 75 92 138q15 24 31 24q27 -4 30 -27q0 -3 -3 -15z" />
    <glyph glyph-name="j" unicode="j" horiz-adv-x="325" 
d="M312 765q0 -14 -47 -202l-145 -583q-98 -395 -198 -553q-34 -53 -84 -102q-109 -106 -201 -106q-43 0 -43 21q1 8 27.5 14t58.5 25q71 42 118 118q130 209 212 582q57 262 116 489t65.5 260.5t12.5 42.5q15 23 78 23q28 -1 30 -29zM307 918q-5 1 -25 15q-24 17 -24 27
q0 27 74.5 127t85.5 119q6 7 23 7.5t43 -29.5q33 -39 25.5 -67.5t-85.5 -113t-117 -85.5z" />
    <glyph glyph-name="k" unicode="k" horiz-adv-x="488" 
d="M541 1210q43 -30 43.5 -71.5t-29.5 -64.5q-72 -52 -110 -102t-66.5 -154.5t-55.5 -167.5q9 8 62 20t87 12q103 0 102 -61q-1 -50 -75 -136t-221 -179q-6 -37 -6 -143.5t18 -201.5q37 -204 120 -204q22 1 52 23t38.5 22t24 -9t15.5 -29q-2 -68 -108.5 -67.5t-166.5 88.5
q-73 108 -95 373q-7 90 -12 90q-5 -11 -40 -115t-65 -104q-4 0 -12 3q-35 14 -35 37.5t15 61t22 59.5t58 153q263 680 398 862q17 17 42 5zM453 574q0 11 -15.5 11.5t-69.5 -20.5t-99 -63q-22 -21 -23 -65q3 -23 24 -29q25 1 104.5 69.5t78.5 96.5z" />
    <glyph glyph-name="l" unicode="l" horiz-adv-x="419" 
d="M85 -62q0 -81 32 -156q54 -126 160 -126q83 0 139.5 42.5t133.5 139.5q24 31 50 21q26 -9 26 -41q0 -94 -111.5 -161t-212.5 -67q-299 0 -299 354q0 155 58 323l10 29q187 536 290 719q72 132 156 132q119 -1 121 -86q0 -53 -71 -167.5t-285 -399.5q-54 -61 -96 -138
q-101 -190 -101 -418zM269 606q15 1 138.5 216.5t122.5 223t-8 8t-9 -1.5q-33 -20 -139.5 -212.5t-106.5 -228.5q0 -3 2 -5z" />
    <glyph glyph-name="m" unicode="m" horiz-adv-x="753" 
d="M348 728l14 2q52 -1 51 -29q-1 -12 -6 -24.5t-34 -74.5q-36 -77 -29 -106v-6l74 112q72 109 107 158q10 13 34 13t39.5 -12.5t16.5 -19.5l-6 -15q-180 -437 -180 -624q0 -78 51 -93q47 -13 96 28q137 110 245 285l19 32q10 16 31 19q27 0 27 -29q0 -52 -114.5 -186.5
t-170 -176.5t-121 -42t-107.5 78q-29 54 -29 125t33.5 189.5t36.5 142.5t2 27q-47 -61 -108 -171l-80 -141q-18 -29 -36 -29q-50 0 -50 61q0 28 39 107t39 114q-14 -23 -48 -87q-74 -139 -195 -260q-46 -45 -86 -54q-59 7 -34 31q68 66 110 118q88 109 126.5 250.5
t43.5 165.5t19 78l20 71q15 64 34.5 81t45.5 17q49 0 49 -32q0 -30 -76 -185.5t-93 -203.5q6 7 35 53t34.5 54t21.5 36q85 153 109 153z" />
    <glyph glyph-name="n" unicode="n" horiz-adv-x="634" 
d="M804 374q0 -50 -114 -184t-170.5 -176.5t-113.5 -42.5q-106 1 -106 168q0 79 32 247.5t34 183.5q-106 -35 -203 -266q-20 -49 -64 -167q-43 -117 -61 -139q-22 -26 -58 -26t-37 26q0 48 321 796q50 118 58 132q17 33 71 -3q16 -11 16.5 -22t-15.5 -35q-37 -58 -66 -135
l-38 -99l32 39q43 53 69 80.5t43.5 31t36.5 3.5q41 -3 43 -44q0 -20 -14 -54q-63 -145 -97 -439q-9 -84 -8.5 -147.5t30.5 -64.5q42 0 153 130.5t160 216.5q13 21 37 22q25 -6 29 -32z" />
    <glyph glyph-name="o" unicode="o" horiz-adv-x="400" 
d="M317 702q-50 -8 -129 -250t-79 -286t8 -44q42 0 131 180.5t89 330.5q0 68 -20 69zM301 826q28 0 48 -16q35 -30 35 -116q0 -393 -140 -589l-14 -21q-87 -126 -140 -126q-65 7 -75 95q0 73 59.5 296t136.5 386q44 90 90 91z" />
    <glyph glyph-name="p" unicode="p" horiz-adv-x="470" 
d="M114 82q178 189 257 412q30 84 39 162q-24 33 -72 33t-69 -23l-47 -183q-67 -266 -108 -401zM-99 -573q-62 -97 -143.5 -152.5t-133 -55.5t-51.5 21q0 9 24 14h2q80 18 152 105q16 19 27 38q121 192 216 581l112 472q77 328 95 373t40 51q18 6 46 6t32 -16q1 -5 1 -11.5
t-8 -36.5t-8 -40q12 2 37 2q109 0 147 -58q15 -24 15 -54q0 -146 -103 -343t-204 -291q-58 -53 -97 -54q-94 -388 -198 -551z" />
    <glyph glyph-name="q" unicode="q" horiz-adv-x="620" 
d="M516 757l26 3q55 -1 107 -58q-24 -24 -24 -76q9 0 18 -4q35 -18 35 -78q-15 -1 -69 -65t-60 -81t-80 -209.5t-84 -221.5q-173 -479 -173 -743q0 -146 50 -208q21 -21 22 -35t-8 -16q-13 1 -46.5 21.5t-77 104.5t-42.5 215q0 222 254 904l45 120q-20 -6 -37.5 -17
t-142.5 -103.5t-193 -92.5q-14 0 -35 12q-45 26 -45 56t35.5 84t138 154.5t128 127.5t67.5 65q141 129 191 141zM200 301q34 0 188 128l58 44q150 113 150 151q-23 37 -32 37l-20 -11q-72 -45 -184 -139q-176 -149 -175 -196q1 -13 15 -14z" />
    <glyph glyph-name="r" unicode="r" horiz-adv-x="611" 
d="M462 629l-2 -13l-2 -12q0 -24 -70 -192q-71 -168 -70 -238q2 -119 58 -120q56 0 164 125q130 150 159 226q29 75 45 75q13 -1 14 -28q0 -26 -6 -40l-10 -27q-43 -110 -135 -229q-133 -175 -237 -175q-33 0 -60 17q-68 43 -68 162q0 39 17.5 120t17 87.5t-18.5 14.5
q-36 16 -48 4q-10 -14 -88.5 -216t-107.5 -202q-9 0 -34.5 12t-25.5 33q0 4 26 61l55 127q58 134 136 357l133 376q5 14 32 15l26 1q48 0 48 -35q0 -17 -52 -150t-67 -205l-3 -30q0 -13 5 -15q3 1 25 44l26 51q6 9 12 24q22 41 52 41q52 -1 54 -43v-3z" />
    <glyph glyph-name="s" unicode="s" horiz-adv-x="412" 
d="M446 699q0 -145 -80 -149q-20 0 -38 10q8 -176 8 -343t-63 -237q-36 -40 -92.5 -40.5t-85.5 39t-29 77.5q2 47 60 48q37 0 32 -51t24 -51q54 0 66 137q6 63 5.5 175t-18.5 113q-8 0 -22 -26.5t-67.5 -108.5t-92.5 -122t-51 -44q-28 -10 -32 18q1 30 31 70
q108 143 208 330q23 43 23 50v144q0 41 40 63q17 9 32 9q62 -1 115 -37q25 -18 26 -40t1 -34zM320 632q34 6 39.5 23.5t5.5 35t-2 26.5q-30 0 -41 -42q-4 -14 -4 -26t2 -17z" />
    <glyph glyph-name="t" unicode="t" horiz-adv-x="533" 
d="M387 773l359 8q11 0 24 -19.5t14 -52.5q-1 -22 -57 -23q-166 -4 -402 -40q-17 -49 -55 -141q-167 -404 -167 -567q0 -81 31 -156q54 -126 161 -126q83 0 139.5 42.5t133.5 139.5q24 31 50 22q25 -11 25 -43q0 -92 -106 -153.5t-227.5 -61.5t-210 89t-88.5 237
q0 99 25 212t91 281.5t86 224.5q-207 0 -231 5q-74 16 -75 63q1 15 23 19l325 27l214 360q37 62 67 62q12 0 28 -4q59 -13 59 -42.5t-60 -90.5t-74 -78q-47 -58 -102 -194z" />
    <glyph glyph-name="u" unicode="u" horiz-adv-x="639" 
d="M296 845q41 -15 42 -40q0 -9 -14 -49l-38 -109q-134 -384 -151 -508q74 113 178.5 322.5t126.5 250.5t33.5 70t21.5 32.5t37 3.5q40 0 40 -37q-3 -19 -42.5 -124.5t-85 -282t-45 -248t13.5 -73.5q44 0 158.5 125.5t167.5 226.5q22 40 42 41q10 -2 11 -16
q0 -84 -111.5 -219t-191.5 -190l-20 -13q-34 -18 -50 -18h-17q-88 15 -90 148q0 66 20 136l22 81q-98 -215 -163.5 -295.5t-118.5 -80.5q-40 2 -40 72q0 116 82 389q116 385 146 407q6 3 14 3t22 -5z" />
    <glyph glyph-name="v" unicode="v" 
d="M715 728h-275q18 -48 19 -61q-31 -168 -79 -322q-115 -363 -250 -363q-67 1 -67.5 186.5t51.5 413.5q6 26 63 94q64 77 68.5 107t10.5 30l10 -5l25 -146q-45 -95 -93 -258t-49 -239q0 -22 13 -23q9 0 21 10q54 46 128.5 245t74.5 278q0 22 -24 106q30 -7 68 -7t131 22
t138 24t72 -19t3 -57q-9 -14 -59 -16z" />
    <glyph glyph-name="w" unicode="w" horiz-adv-x="635" 
d="M54 746q26 -8 48 -8t54 11q91 33 120 126q4 15 15.5 15t25.5 -3q57 -12 57 -44v-73q-40 -31 -77.5 -104.5t-71.5 -273.5l-6 -35l19 29q145 221 179 332q69 -24 125 -24q236 0 334 80q14 13 18 12q0 -2 -24 -66l-27 -69q-11 -25 -28 -25q-47 6 -57 6q-71 0 -133 -35
q-34 -208 -91 -399q-13 -40 -53 -111q-77 -135 -125 -135q-76 0 -77 200q0 22 1 63t1 59q-9 -5 -17.5 -16t-54.5 -85t-77 -74q-5 0 -16 6q-51 27 -51 81q0 86 71 280t79 227q-30 13 -79.5 -5t-54.5 -18q-30 1 -31 37.5t4 38.5zM358 150q0 -29 16 -19q34 27 108.5 208
t73.5 267q0 10 -4 24q-13 42 -37 42q-6 -2 -13 -13q-50 -86 -97 -255t-47 -254z" />
    <glyph glyph-name="x" unicode="x" horiz-adv-x="419" 
d="M244 781l11 3q12 -1 12 -33t-29 -136t-29 -147.5t6 -73.5q30 16 57 146.5t36 148t15 18.5q47 0 62 -50q5 -16 5 -31q0 -86 -48.5 -214t-83.5 -163.5t-36 -61.5q0 -51 40 -106q43 -59 43 -78q-9 -21 -34 -21.5t-52 34.5t-40 42.5t-28 7.5q-43 0 -103 -83l-35 -50
q-66 -98 -101.5 -126.5t-62 -28t-27.5 8.5q5 26 102.5 163.5t116.5 168t43.5 68.5t25.5 59t-7.5 91.5t-8.5 113t11 123.5l14 104q3 33 5 37.5t11 9.5z" />
    <glyph glyph-name="y" unicode="y" horiz-adv-x="614" 
d="M539 818q56 0 59 -32q0 -10 -38 -152l-47 -169q-15 -57 -38.5 -188.5t-48.5 -240.5q-100 -434 -211 -609q-33 -52 -82 -100q-109 -108 -202 -108q-44 0 -44 21q1 8 28 14.5t59 24.5q90 54 137 148q188 321 272 928q-29 -89 -118.5 -232.5t-165.5 -143.5q-41 0 -40 82
q3 257 176 725q7 19 13 32q15 32 32.5 32t30.5 -3q52 -11 53 -42q0 -7 -14 -49l-49 -143q-117 -338 -140 -474q68 104 187.5 340t129.5 255q12 19 18 35l8 21q12 28 35 28z" />
    <glyph glyph-name="z" unicode="z" horiz-adv-x="798" 
d="M644 739q-4 -1 -26 -11q-230 -99 -297 -99q-37 0 -58 15.5t-22 25.5q2 13 38 24q39 13 153 54q204 74 236 74q34 0 63.5 -21t29.5 -41.5t-31.5 -60.5t-166.5 -189t-173 -200l611 352q7 4 8 4q16 -5 17 -31q2 -27 -4 -31q-24 -16 -47 -29l-136 -85q-300 -186 -455.5 -302
t-286.5 -258q-11 -10 -21 -10q-29 0 -49 30t-20 43.5t5 20.5q82 100 348 402z" />
    <glyph glyph-name="braceleft" unicode="{" horiz-adv-x="521" 
d="M366 782l-9 157q0 82 58 118q25 15 51 15q54 0 73 -53q8 -22 7.5 -58.5t-23.5 -37.5q-13 0 -25 16.5t-23 17.5q-39 0 -56 -47q-6 -17 -6 -33l22 -125q-1 -158 -94 -314q22 -53 22 -124t-76 -215.5t-76 -209.5t12 -71.5t20 -6.5l55 15q44 0 44 -44.5t-46 -63.5
q-24 -9 -50 -9q-120 0 -120 169q0 88 62.5 233t71.5 178.5t9 51t-2 22.5q-1 -8 -15 -8.5t-35.5 29.5t-22 52.5t63.5 107.5q108 143 108 238z" />
    <glyph glyph-name="bar" unicode="|" horiz-adv-x="456" 
d="M359 956q5 -24 -22 -157.5t-55.5 -365t-67.5 -427.5t-57.5 -243t-47.5 -48q-28 1 -28 30.5t61 429.5t134 791q5 23 41.5 23.5t41.5 -33.5z" />
    <glyph glyph-name="braceright" unicode="}" horiz-adv-x="691" 
d="M265 2l10 -157q0 -81 -57 -117q-25 -15 -52 -16q-54 0 -73 53q-8 22 -7.5 58.5t23.5 37.5q13 0 25 -16.5t23 -17.5q39 0 56 47q6 17 6 33l-22 125q1 158 94 314q-22 53 -22 122.5t58.5 183t76 158t17.5 97.5t-12 59.5t-20 6.5l-55 -15q-36 0 -43 39l-2 14q0 36 47 55
q23 9 49 9q120 0 120 -169q0 -88 -62 -233q-63 -145 -71 -179q-14 -56 -7 -73q2 8 14.5 8.5t35.5 -29.5t23 -52q0 -24 -64 -108q-107 -140 -109 -238z" />
    <glyph glyph-name="asciitilde" unicode="~" horiz-adv-x="950" 
d="M126 341q0 139 189 142q77 0 179 -56.5t132 -68t59 -11.5q61 0 105 49q7 8 24 29.5t38 42.5t50 23q30 -2 30.5 -31t-17 -51t-17.5 -23q-83 -107 -208 -108q-57 0 -167.5 54.5t-147 63.5t-60.5 9q-71 -1 -110 -63q-3 -4 -13 -35q-9 -23 -37.5 -22.5t-28.5 56.5z" />
    <glyph glyph-name="uni007F" 
 />
    <glyph glyph-name="exclamdown" unicode="&#xa1;" horiz-adv-x="370" 
d="M119 -178q-61 0 -61 44q0 8 15 75.5t31 200.5q30 244 87 366q14 25 41 25.5t31 -25.5q0 -4 0.5 -18t-8.5 -54q-15 -67 -50 -267.5t-44.5 -239t-16.5 -71t-25 -36.5zM256 697q-60 0 -60 62q0 14 5 27q16 37 53.5 37t64.5 -19t27 -48.5t-10.5 -54t-18.5 -41.5
q-4 16 -12 26.5t-49 10.5z" />
    <glyph glyph-name="cent" unicode="&#xa2;" horiz-adv-x="591" 
d="M177 -33q-108 64 -118 247q-20 0 -35.5 3t-14 23t35.5 56q45 40 57 68l29 66q123 263 194 335q36 37 115 14l34 97q9 22 22 22q51 0 51 -32q0 -24 -14 -64l-29 -80q2 -10 2 -16q0 -46 -77 -201l-153 -480q149 43 379 273q30 32 42.5 31.5t13.5 -14.5t-19 -47
q-52 -86 -160 -181q-161 -141 -277 -141q-1 0 -3.5 0.5t-3.5 0.5q-14 -34 -30 -63t-39 -30q-2 0 -6 1q-18 5 -18 20t2 24zM160 114v-10q1 -71 34 -84q127 414 203 637q-3 17 -14 34q-27 -1 -63 -55q-65 -101 -112.5 -264t-47.5 -258z" />
    <glyph glyph-name="sterling" unicode="&#xa3;" horiz-adv-x="869" 
d="M153 -23.5q0 24.5 23 100t89 350.5q-111 0 -134.5 12t-23.5 32t16 23l161 15l17 65q4 16 8 34q89 353 192 517q33 52 81 100q109 108 203 108q44 0 44 -21q-1 -8 -26 -14q-164 -38 -268 -285q-44 -106 -97 -330l-39 -165q154 12 278 12q6 -1 16.5 -13.5t10.5 -41.5
q-2 -16 -39 -17q-101 -4 -184.5 -15t-102.5 -13q-73 -312 -92 -376q265 8 418 8q17 -1 32 -16q22 -23 22 -48q-1 -19 -89.5 -19.5t-251.5 -11t-195 -11.5q-17 -4 -43 -4t-26 24.5z" />
    <glyph glyph-name="currency" unicode="&#xa4;" horiz-adv-x="738" 
d="M163 166q-37 -66 -67 -214q0 -1 -1 -5q-6 -29 -21 -29t-43.5 18.5t-28 52t51.5 115.5q69 111 117 147q11 61 57 232t131 359q-20 16 -92.5 112.5t-72.5 147.5q0 21 22 46t37 25t22.5 -3t25 -90t42.5 -131.5t39 -58.5q22 43 35.5 58t35 15t26.5 -1q20 -3 20.5 -39.5
t34.5 -37.5l2 -4q60 53 101 255q0 1 1 5q6 29 21 29t43.5 -18.5t28 -52t-52 -116t-96.5 -127.5l-18 -18l1 -1q-2 -1 -5 -3t-9 -4q-18 -18 -31 -115.5t-17 -121.5q-36 -246 -113 -353l-3 -5q19 -19 52 -63q100 -132 100 -183q0 -21 -22 -46t-37 -25t-22 3t-23.5 83.5
t-40.5 127.5t-37 61q-72 -99 -128.5 -99t-65.5 72zM478 837q-41 0 -121 -250.5t-81.5 -287t5.5 -36.5q36 0 128 181t92 310q-6 75 -23 83z" />
    <glyph glyph-name="yen" unicode="&#xa5;" horiz-adv-x="640" 
d="M62 399l-2 12q0 13 16 16l218 20l14 41l-20 81q-73 305 -111 426.5t-37 138t4 23.5q13 24 43 23.5t37 -18.5l144 -491l129 404q4 12 13 44.5t20 47.5t72 15q28 -1 27 -27q0 -10 -2 -17l-221 -683q114 8 224 8q6 -1 16.5 -13.5t10.5 -41.5q-2 -16 -39 -17q-98 -4 -241 -22
l-30 -89q111 7 219 7q6 -1 16.5 -13.5t10.5 -41.5q-2 -16 -39 -17q-99 -4 -237 -22l-9 -26q-57 -165 -89.5 -217.5t-64.5 -88.5q-85 -93 -138 -93q-14 1 -14 11q1 11 13 27q89 118 176 348l11 30q-145 0 -168.5 7t-35.5 32l-2 12q0 13 16 16q131 13 222 20l30 89
q-143 0 -166.5 7t-35.5 32z" />
    <glyph glyph-name="brokenbar" unicode="&#xa6;" horiz-adv-x="445" 
d="M294 990q50 0 50 -44q0 -20 -19 -122t-45 -294q-2 -13 -16 -34.5t-46 -20t-37 34.5q0 48 80 456q5 22 33 24zM187 239q15 7 32 6t17.5 -26.5t-6.5 -59.5l-37 -187q-30 -154 -47 -200q-21 -57 -52 -57q-28 1 -28 30.5t11 91.5l49 321q10 57 61 81z" />
    <glyph glyph-name="section" unicode="&#xa7;" horiz-adv-x="724" 
d="M626 1061q0 -149 -80 -149q-22 0 -38 10q8 -176 8 -304q0 -317 -150 -317q-9 0 -23 2q7 -184 7 -291.5t-21 -173.5q-39 -123 -130 -123q-35 0 -66 19q-55 34 -54 98q1 47 61 48q17 -1 23 -11.5t8 -50.5t25 -40q69 1 70 206l-20 530q0 21 16 45.5t74 24.5t97 -40
q0 21 -21 555q0 23 19 47t57 24t67 -12q70 -28 71 -97zM380 466l-3 27q-11 0 -28.5 -12.5t-17 -39.5t2.5 -33q44 7 46 58zM500 994q44 6 46 57q0 13 -3 27q-10 0 -27.5 -12.5t-17.5 -39.5t2 -32z" />
    <glyph glyph-name="dieresis" unicode="&#xa8;" horiz-adv-x="1333" 
d="M504 899q44 23 76 84q10 18 23 91t20 101.5t35.5 29.5t50.5 -25t22 -42q0 -50 -97 -180q-33 -44 -57 -68q-41 -40 -74 -10q-10 10 1 19zM401 926q18 24 32.5 105.5t21.5 109.5t35.5 28.5t50.5 -25t22 -42.5q0 -42 -97 -180q-26 -36 -48 -56q-26 -24 -40.5 -25.5
t-25.5 8.5q-18 16 -5 24q33 21 54 53z" />
    <glyph glyph-name="copyright" unicode="&#xa9;" horiz-adv-x="1186" 
d="M94 621q2 115 89 216q153 168 489 168q205 0 312 -119.5t107 -312.5v-13q-5 -205 -148.5 -320t-341.5 -115q-252 0 -379.5 139t-127.5 357zM246 786q-78 -83 -78 -198.5t53 -212.5q102 -185 364 -185q160 0 272 87q133 104 133 286q0 104 -40 187q-84 170 -304 170
q-272 0 -400 -134zM573 854q107 0 112 -51q-1 -28 -49 -129t-75 -104q-12 2 -14 9q0 5 4 11q48 66 47 152q0 32 -21 45q-33 -4 -76.5 -95t-62.5 -173t-19 -99v-18q0 -97 50 -100q59 0 140.5 47t219.5 176q21 28 33.5 29t14.5 -10q0 -7 -8 -22q-31 -59 -115 -136
q-142 -130 -255 -130q-56 0 -105.5 42.5t-60.5 135.5h-23q-11 1 -21 17q1 15 31.5 42.5t39 48t23.5 50.5q90 188 148 246q13 15 42 16z" />
    <glyph glyph-name="ordfeminine" unicode="&#xaa;" horiz-adv-x="688" 
d="M600 930q-103 -17 -174 -144q-51 -92 -55 -175q132 172 229 319zM808 811q-6 -34 -62 -114q-92 -130 -159 -131q-53 0 -53 74q0 33 14.5 87.5t16.5 66.5q-19 -24 -84.5 -121t-90.5 -116t-36 -19q-38 0 -51 31q-4 10 -4 35.5t48 130.5q77 170 165 223q32 19 61 20l35 -4
q7 0 16.5 9t25.5 9t21.5 -8.5t5.5 -12.5t-6 -17q-5 -13 -7 -18l-10 -31q-88 -288 -56 -292q39 0 120 102q42 53 55.5 79.5t23.5 27.5q10 -2 11 -11z" />
    <glyph glyph-name="guillemotleft" unicode="&#xab;" horiz-adv-x="1034" 
d="M493 117q-31 2 -102 39q-165 96 -228 127q-65 32 -70 37q-30 47 12 67q7 3 19 10l45 26q207 119 311.5 169.5t108.5 50.5q13 -1 13.5 -22t-16 -44.5t-61 -49t-69.5 -41.5t-127.5 -65t-143.5 -72q49 -17 143.5 -69.5t118.5 -62.5q60 -25 60 -81q-1 -17 -14 -19zM797 117
q-31 2 -102 39q-165 96 -228 127q-65 32 -70 37q-30 47 12 67q7 3 19 10l43 24q216 123 317 172.5t105 49.5q13 -1 13.5 -22t-16 -44.5t-61 -49t-69.5 -41.5t-127.5 -65t-143.5 -72q49 -17 143.5 -69.5t118.5 -62.5q60 -25 60 -81q-1 -17 -14 -19z" />
    <glyph glyph-name="logicalnot" unicode="&#xac;" horiz-adv-x="973" 
d="M784 690l-400 -23q-175 0 -201.5 4.5t-34.5 25.5q-1 4 -1 10q0 8 18 8q428 26 630 26q22 0 31 -35l1 -2v-3l-1 -2q-5 -56 -35 -159l-33 -113q-3 -6 -21.5 -5.5t-19.5 12.5q0 42 24.5 132.5t43.5 123.5h-1z" />
    <glyph glyph-name="uni00AD" unicode="&#xad;" horiz-adv-x="659" 
d="M82 469v160h496v-160h-496z" />
    <glyph glyph-name="registered" unicode="&#xae;" horiz-adv-x="1204" 
d="M105 621q2 115 89 216q153 168 489 168q205 0 312 -119.5t107 -312.5v-16q-6 -204 -148.5 -318t-340.5 -114q-253 0 -380.5 139.5t-127.5 356.5zM257 786q-78 -83 -78 -198.5t53 -211.5q102 -186 365 -186q159 0 281.5 95t122.5 278q0 103 -39 186q-83 171 -305 171
q-272 0 -400 -134zM689 784q-1 -63 -107 -104q27 -96 56 -182q25 -76 83 -157q40 -48 100 -59q12 -5 14 -10q-1 -5 -32 -5q-75 1 -147 75t-106 200l-33 118q-8 -2 -31 -7q-14 -44 -48.5 -176t-39.5 -146.5t-11 -15.5q-10 0 -27.5 10.5t-17.5 27t32.5 149.5t64 229t33.5 100
q19 30 94 30q25 0 50 -6q73 -19 73 -71zM526 811q-1 -3 -8.5 -41.5t-24.5 -78.5q1 0 6 1q123 26 123 92q0 3 -1 7q-6 30 -52 30q-21 0 -43 -10z" />
    <glyph glyph-name="macron" unicode="&#xaf;" horiz-adv-x="932" 
d="M831 936q29 0 36 -43q-1 -13 -53 -13l-474 -24q-187 0 -233.5 7.5t-49.5 32.5q0 10 18 14h3l301 13q285 13 363 13h89z" />
    <glyph glyph-name="degree" unicode="&#xb0;" horiz-adv-x="620" 
d="M318 765q-45 34 -45 92.5t19 106.5q38 94 122 94q26 0 49 -9q60 -25 60 -88t-27 -120q-44 -95 -122 -95q-31 0 -56 19zM406 1002q-34 -1 -61 -49.5t-27 -106.5q4 -44 34 -51q34 1 62 58t28 102t-36 47z" />
    <glyph glyph-name="plusminus" unicode="&#xb1;" horiz-adv-x="921" 
d="M582 718l-40 -228q125 8 220 8q17 0 25 -41q2 -9 2 -14q-1 -17 -39 -17q-105 -4 -220 -19q-3 -22 -27 -116.5t-37 -119t-36.5 -24.5t-26.5 11q0 32 39 238q-15 -1 -103 -1q-87 1 -111 7q-36 10 -36 44q0 14 14 16h2q144 14 250 22q45 231 57 246q10 10 38.5 10.5
t28.5 -22.5zM717 43q-1 -17 -65 -18.5t-175.5 -15.5t-204.5 -14q-92 1 -116 7q-36 10 -36 44q0 14 14 16h2q381 36 554 36q17 0 25 -41q2 -9 2 -14z" />
    <glyph glyph-name="twosuperior" unicode="&#xb2;" horiz-adv-x="623" 
d="M529.73 603.828l-30.252 10.9336q-30.6729 0 -67.6475 -31.54q-5.46191 -5.0459 -28.1514 -25.6523q-39.915 -36.5859 -72.2676 -36.5859q-19.3281 0 -25.6309 28.1758q-1.68066 7.99023 -1.68066 16.4004q0 31.54 18.0674 57.1924q4.62207 7.99023 107.562 130.575
t125.42 163.377q22.4785 40.792 22.4785 60.5566v2.52344q-51.2598 -16.8213 -99.5791 -54.249q-10.9248 -8.83105 -26.4707 -8.62109q-15.5459 0.210938 -15.9658 9.88281q0.419922 10.0928 17.6465 25.6523q67.6465 59.2949 112.185 59.7158q27.3105 0 42.8564 -17.2422
q15.5469 -17.2412 15.5469 -33.6426q0 -39.1094 -60.9248 -112.282q-5.88184 -6.72852 -14.2852 -17.0312t-11.3447 -13.667l-184.033 -222.462q103.361 33.6426 142.437 33.4326t39.4961 -19.9756q-0.84082 -5.0459 -5.46191 -5.4668z" />
    <glyph glyph-name="threesuperior" unicode="&#xb3;" horiz-adv-x="669" 
d="M568.875 828.904l-87.1865 -10.1289q-8.30371 0.459961 -18.9131 18.6475q-10.6104 18.1885 -11.5332 35.2246q-4.15137 8.28809 65.2744 43.7432q69.4268 35.4541 69.4268 43.7422q-0.461914 7.82812 -14.9922 8.05762q-14.5312 0.230469 -64.8135 -19.1084
t-54.2031 -19.3389t-8.99512 0.459961q-42.4404 2.76367 -42.4404 12.8926q0.460938 6.44727 28.1396 20.2598q89.9541 43.7432 140.697 43.7432q80.7285 0 81.1895 -41.9014q0 -11.0508 -11.0713 -23.0215q-11.0713 -11.9727 -57.2012 -33.6133
q-46.1309 -21.6406 -59.9697 -35.4551q19.375 3.68359 32.291 3.68359q64.1211 -0.459961 65.0439 -69.9883q0 -98.0752 -89.4932 -204.439q-64.1211 -75.9736 -139.774 -114.651q-22.1426 -11.0508 -33.2139 -11.0508t-11.9941 9.20898q0 11.0508 5.7666 21.6416
q5.76562 10.5898 18.2217 10.8203q12.4551 0.230469 53.5107 33.6123q41.0557 33.3828 90.415 104.292q67.3506 96.6943 67.3506 159.315q-0.460938 12.4326 -11.5322 13.3525z" />
    <glyph glyph-name="acute" unicode="&#xb4;" horiz-adv-x="443" 
d="M156 953q45 27 143 185q13 15 24 16q27 0 44 -45q6 -18 7 -31q0 -52 -144 -144q-99 -62 -117.5 -62t-35.5 15q-11 11 -10 20t7 11q44 4 82 35z" />
    <glyph glyph-name="paragraph" unicode="&#xb6;" horiz-adv-x="1333" 
d="M750 85l106 434q105 435 125 497q-122 -7 -218 -17q-33 -105 -43 -148l-27 -121q-105 -461 -131 -560q-118 -457 -269 -714q-41 -69 -106 -130q-118 -110 -222 -110q-50 0 -50 22q1 11 32 18.5t66 27.5q82 48 141 135q140 221 252 666q10 37 14 57q-110 33 -183 129
q-101 136 -101 350v19q5 194 92.5 334.5t221.5 145.5q45 2 201 10.5t611 8.5q13 -1 26 -18q19 -30 19 -65q-1 -26 -65 -27l-126 -5l-7 -26q-43 -139 -109.5 -434t-92.5 -394q-118 -457 -269 -714q-41 -70 -108 -132q-118 -108 -220 -108q-49 0 -49 22q1 10 35 18.5t77 36.5
q78 51 125 126q140 221 252 666z" />
    <glyph glyph-name="periodcentered" unicode="&#xb7;" horiz-adv-x="446" 
d="M242 554q67 0 67 -69q0 -17 -7 -33q-19 -39 -60.5 -39t-71 22.5t-29.5 66.5q0 14 1 21.5t31 71.5q6 -19 14.5 -30t54.5 -11z" />
    <glyph glyph-name="cedilla" unicode="&#xb8;" horiz-adv-x="739" 
d="M411 -38l-46 8q-8 0 -20 -4q-38 -13 -38 -35q1 -10 62 -24q73 -22 73 -86q0 -20 -24.5 -53.5t-57.5 -33.5t-35 7q1 5 27 27.5t26 36.5t-9.5 29t-45 25t-43.5 13q-46 15 -46 45q0 24 15 48q33 51 95 51q12 0 26 -4q46 -14 46 -47q-1 -2 -5 -3z" />
    <glyph glyph-name="onesuperior" unicode="&#xb9;" horiz-adv-x="550" 
d="M487 1013q41 0 41 -24q0 -21 -140 -410q-29 -76 -53 -78q-13 6 11 73l41 115q54 143 65 204q-20 -16 -51.5 -58.5t-44.5 -56.5q-22 7 -22.5 23.5t22 44.5t27.5 36l22 31q74 99 82 100z" />
    <glyph glyph-name="ordmasculine" unicode="&#xba;" horiz-adv-x="688" 
d="M415 523q-56 0 -105 46.5t-49 135t37 166.5q60 123 176 123q48 0 86 -20q78 -40 78 -137.5t-49 -189.5q-66 -124 -174 -124zM463 909q-59 -1 -96.5 -80.5t-37 -155.5t50.5 -76q58 1 97.5 93.5t39 154.5t-53.5 64z" />
    <glyph glyph-name="guillemotright" unicode="&#xbb;" horiz-adv-x="1023" 
d="M527 643q30 -2 98 -39q162 -96 226.5 -126.5t65.5 -31.5q19 -9 19 -33t-4.5 -29t-25 -15.5t-140.5 -79t-224 -120t-114.5 -51.5t-11 21t12.5 41q19 27 64 52.5t69.5 40.5t124.5 63t147 74q-51 17 -147 70q-95 54 -117 64q-58 26 -58 80q1 17 15 19zM615 446
q16 -16 16.5 -36.5t-4 -25.5t-25 -15.5t-140.5 -79t-224 -120t-114.5 -51.5t-11 21t12.5 41q19 27 64 52.5t69.5 40.5t124.5 63t147 74q-51 17 -147 70q-95 54 -117 64q-58 26 -58 80q1 17 15 19q30 -2 98 -39q130 -77 292 -158h2z" />
    <glyph glyph-name="onequarter" unicode="&#xbc;" horiz-adv-x="1010" 
d="M770 278q-166 -75 -186.5 -74.5t-23.5 10.5q1 20 29 55q107 135 235 264q21 16 61 15.5t41 -17.5q0 -8 -52.5 -151.5t-110.5 -275.5t-64 -133q-9 2 -9 53t38 146.5t42 107.5zM782 342l50 112q-73 -73 -142 -153zM734 1141q50 -1 52 -47q0 -18 -61 -143.5t-148.5 -342.5
t-123.5 -290q-142 -286 -170.5 -323t-50 -37.5t-29.5 20.5q-3 14 5 36q347 797 411 930l88 181q8 16 27 16zM317 933q-68 -58 -136 -149q-3 -3 -13 -17q-13 -18 -39 -17.5t-28 10.5q0 44 157 222q36 41 51 56q36 42 101 44q20 0 23.5 -7t3.5 -12.5t-11 -33.5l-141 -437
q-31 -97 -77 -104q-30 4 2 102q11 37 47.5 149t59.5 194z" />
    <glyph glyph-name="onehalf" unicode="&#xbd;" horiz-adv-x="1037" 
d="M734 1141q50 -1 52 -47q0 -18 -61 -143.5t-148.5 -342.5t-123.5 -290q-142 -286 -170.5 -323t-50 -37.5t-29.5 20.5q-3 14 5 36q347 797 411 930l88 181q8 16 27 16zM317 933q-63 -54 -127 -138q-36 -46 -60 -46q-28 0 -29 11q0 46 199 268l1 1q41 53 109 53q22 0 26 -12
q1 -2 1 -7.5t-11 -33.5l-141 -437q-33 -103 -77 -104q-16 2 -16 24.5t14 68.5l39 118q49 152 72 234zM814 67l-32 10q-36 0 -98 -43.5t-81 -47.5t-29 -5q-25 0 -29 40v29q1 24 21 47l148 174q121 142 121 191q-26 -2 -64 -25t-56 -22.5t-19 9.5q2 13 19 29q99 85 143.5 85
t64.5 -31q8 -13 8 -27q0 -38 -68 -122l-28 -36q-27 -31 -97 -123l-84 -109q71 20 128 20q27 0 37 -26q5 -15 -5 -17z" />
    <glyph glyph-name="threequarters" unicode="&#xbe;" horiz-adv-x="994" 
d="M734 1141q50 -1 52 -47q0 -18 -61 -143.5t-148.5 -342.5t-123.5 -290q-142 -286 -170.5 -323t-50 -37.5t-29.5 20.5q-3 14 5 36q347 797 411 930l88 181q8 16 27 16zM325 818l-67 -8q-8 0 -21 18t-13 38q1 12 63 45.5t62 42.5q-1 7 -15.5 7.5t-61 -16.5t-48.5 -17
q-51 1 -51.5 10t11.5 17h1q109 55 165 55q86 0 87 -45q-4 -23 -64 -53.5t-74 -44.5q24 5 35 5q63 -5 71 -75q0 -90 -73.5 -190t-171.5 -149q-30 -16 -43 -12t-12.5 15t11.5 22l22 16q47 31 122.5 129t75.5 177q-1 11 -11 13zM722 278q-166 -75 -186.5 -74.5t-23.5 10.5
q1 20 29 55q107 135 235 264q21 16 61 15.5t41 -17.5q0 -8 -52.5 -151.5t-110.5 -275.5t-64 -133q-9 2 -9 53t38 146.5t42 107.5zM734 342l50 112q-73 -73 -142 -153z" />
    <glyph glyph-name="questiondown" unicode="&#xbf;" horiz-adv-x="689" 
d="M517 391q0 -123 -66 -213q-29 -42 -132.5 -153.5t-134 -147t-30.5 -85.5t48 -74q20 -9 55 -9.5t78 35t52 36.5q23 0 31 -45q1 -7 1 -13q0 -47 -43 -73t-88 -26q-99 0 -157 79q-41 57 -41 128q0 100 101 202q20 20 60 56t56 52q77 69 106.5 123.5t42.5 138.5q15 98 35 98
t26 -96v-13zM499 657q-60 0 -60 62q0 14 6 27q16 37 53 37t65 -19q46 -32 14 -107l-17 -37q-4 16 -11.5 26.5t-49.5 10.5z" />
    <glyph glyph-name="Agrave" unicode="&#xc0;" horiz-adv-x="631" 
d="M609 1490q9 -1 16 -13t41.5 -86t68 -116t83.5 -55l1 -1q6 -3 6 -9t-10 -18q-8 -12 -26 -12q-30 0 -135.5 92.5t-105.5 144.5q0 17 10 35q20 38 51 38zM508 -163q0 -63 -44 -63q-24 0 -43 16q-45 39 -45 121.5t11.5 168.5t69.5 312q-92 -11 -140 -13q-159 -267 -328 -464
q-13 -12 -37.5 -11.5t-26.5 16.5q0 17 29 60t34 49l223 350q-153 1 -188 16t-35 48q0 15 22 19q164 16 268 24l223 370l64 275q8 36 39 36.5t54 -4.5q70 -16 70 -64q0 -7 -33 -154t-113 -440q83 4 220 4q10 -1 23 -19.5t14 -49.5q-1 -21 -83 -23.5t-201 -13.5
q-108 -417 -108 -478q2 -16 31 -44q29 -23 30 -44zM402 530l-20 -37l102 7q19 85 28 148q-3 27 -45.5 -25.5t-64.5 -92.5z" />
    <glyph glyph-name="Aacute" unicode="&#xc1;" horiz-adv-x="631" 
d="M606 1265q45 27 143 185q13 15 24 16q27 0 44 -45q6 -18 7 -31q0 -52 -144 -144q-99 -62 -117.5 -62t-35.5 15q-11 11 -10 20t7 11q44 4 82 35zM508 -163q0 -63 -44 -63q-24 0 -43 16q-45 39 -45 121.5t11.5 168.5t69.5 312q-92 -11 -140 -13q-159 -267 -328 -464
q-13 -12 -37.5 -11.5t-26.5 16.5q0 17 29 60t34 49l223 350q-153 1 -188 16t-35 48q0 15 22 19q164 16 268 24l223 370l64 275q8 36 39 36.5t54 -4.5q70 -16 70 -64q0 -7 -33 -154t-113 -440q83 4 220 4q10 -1 23 -19.5t14 -49.5q-1 -21 -83 -23.5t-201 -13.5
q-108 -417 -108 -478q2 -16 31 -44q29 -23 30 -44zM402 530l-20 -37l102 7q19 85 28 148q-3 27 -45.5 -25.5t-64.5 -92.5z" />
    <glyph glyph-name="Acircumflex" unicode="&#xc2;" horiz-adv-x="631" 
d="M745 1326q-66 -50 -143 -124q-23 -20 -30 -20q-20 2 -20 35.5t26.5 59t80 72t79.5 73t45.5 26.5t29.5 -19t10 -28t-7 -58.5t-12 -81t-27.5 -49.5t-36.5 -18q-10 2 -10.5 24t15.5 108zM508 -163q0 -63 -44 -63q-24 0 -43 16q-45 39 -45 121.5t11.5 168.5t69.5 312
q-92 -11 -140 -13q-159 -267 -328 -464q-13 -12 -37.5 -11.5t-26.5 16.5q0 17 29 60t34 49l223 350q-153 1 -188 16t-35 48q0 15 22 19q164 16 268 24l223 370l64 275q8 36 39 36.5t54 -4.5q70 -16 70 -64q0 -7 -33 -154t-113 -440q83 4 220 4q10 -1 23 -19.5t14 -49.5
q-1 -21 -83 -23.5t-201 -13.5q-108 -417 -108 -478q2 -16 31 -44q29 -23 30 -44zM402 530l-20 -37l102 7q19 85 28 148q-3 27 -45.5 -25.5t-64.5 -92.5z" />
    <glyph glyph-name="Atilde" unicode="&#xc3;" horiz-adv-x="631" 
d="M654 1301q33 43 54 113q25 83 59.5 83t57.5 -28.5t23 -46t-10 -42.5q-44 -104 -159 -159q-77 -36 -161.5 -36t-85.5 29q2 13 38 13q127 0 184 74zM508 -163q0 -63 -44 -63q-24 0 -43 16q-45 39 -45 121.5t11.5 168.5t69.5 312q-92 -11 -140 -13q-159 -267 -328 -464
q-13 -12 -37.5 -11.5t-26.5 16.5q0 17 29 60t34 49l223 350q-153 1 -188 16t-35 48q0 15 22 19q164 16 268 24l223 370l64 275q8 36 39 36.5t54 -4.5q70 -16 70 -64q0 -7 -33 -154t-113 -440q83 4 220 4q10 -1 23 -19.5t14 -49.5q-1 -21 -83 -23.5t-201 -13.5
q-108 -417 -108 -478q2 -16 31 -44q29 -23 30 -44zM402 530l-20 -37l102 7q19 85 28 148q-3 27 -45.5 -25.5t-64.5 -92.5z" />
    <glyph glyph-name="Adieresis" unicode="&#xc4;" horiz-adv-x="631" 
d="M709 1250q44 23 76 84q10 18 23 91t20 101.5t35.5 29.5t50.5 -25t22 -42q0 -50 -97 -180q-33 -44 -57 -68q-41 -40 -74 -10q-10 10 1 19zM606 1277q18 24 32.5 105.5t21.5 109.5t35.5 28.5t50.5 -25t22 -42.5q0 -42 -97 -180q-26 -36 -48 -56q-26 -24 -40.5 -25.5
t-25.5 8.5q-18 16 -5 24q33 21 54 53zM508 -163q0 -63 -44 -63q-24 0 -43 16q-45 39 -45 121.5t11.5 168.5t69.5 312q-92 -11 -140 -13q-159 -267 -328 -464q-13 -12 -37.5 -11.5t-26.5 16.5q0 17 29 60t34 49l223 350q-153 1 -188 16t-35 48q0 15 22 19q164 16 268 24
l223 370l64 275q8 36 39 36.5t54 -4.5q70 -16 70 -64q0 -7 -33 -154t-113 -440q83 4 220 4q10 -1 23 -19.5t14 -49.5q-1 -21 -83 -23.5t-201 -13.5q-108 -417 -108 -478q2 -16 31 -44q29 -23 30 -44zM402 530l-20 -37l102 7q19 85 28 148q-3 27 -45.5 -25.5t-64.5 -92.5z
" />
    <glyph glyph-name="Aring" unicode="&#xc5;" horiz-adv-x="631" 
d="M710 1186q-139 0 -139 136q0 18 9 37q34 69 149 69q30 0 53 -10q61 -26 62 -109q0 -40 -23 -72q-38 -51 -111 -51zM775 1305q0 65 -65 65q-33 0 -60.5 -14.5t-27.5 -42.5q0 -77 77 -77q15 0 29 4q47 15 47 65zM508 -163q0 -63 -44 -63q-24 0 -43 16q-45 39 -45 121.5
t11.5 168.5t69.5 312q-92 -11 -140 -13q-159 -267 -328 -464q-13 -12 -37.5 -11.5t-26.5 16.5q0 17 29 60t34 49l223 350q-153 1 -188 16t-35 48q0 15 22 19q164 16 268 24l223 370l64 275q8 36 39 36.5t54 -4.5q70 -16 70 -64q0 -7 -33 -154t-113 -440q83 4 220 4
q10 -1 23 -19.5t14 -49.5q-1 -21 -83 -23.5t-201 -13.5q-108 -417 -108 -478q2 -16 31 -44q29 -23 30 -44zM402 530l-20 -37l102 7q19 85 28 148q-3 27 -45.5 -25.5t-64.5 -92.5z" />
    <glyph glyph-name="AE" unicode="&#xc6;" horiz-adv-x="994" 
d="M561 -163q0 -63 -44 -63q-24 0 -42 16q-45 39 -45.5 121.5t11.5 168.5t69 312q-92 -11 -140 -13q-159 -267 -328 -464q-13 -12 -37.5 -11.5t-26.5 16.5q0 17 30 60l256 399q-153 1 -188 16t-35 48q0 15 22 19q164 16 268 24l223 370l64 275q8 36 48 37q69 -2 102 -36
q117 -1 261 -6q11 -2 25 -18q20 -22 13 -50q-7 -13 -39 -13h-55q-25 1 -38.5 1t-164.5 -3q-58 -259 -135 -538q83 4 220 4q10 -1 23.5 -19.5t13.5 -49.5q-1 -21 -83 -23.5t-201 -13.5q-47 -176 -84 -339q79 -1 325 -7q12 0 25.5 -17.5t13.5 -46.5q-1 -17 -38 -17h-110.5
t-132 -3t-105.5 -4q-2 -16 -0.5 -38t30.5 -50q29 -23 29 -44zM455 530l-20 -37l102 7q19 85 28 148q-3 28 -45.5 -25t-64.5 -93z" />
    <glyph glyph-name="Ccedilla" unicode="&#xc7;" horiz-adv-x="720" 
d="M467 555q-27 0 -27 23q1 11 18.5 32t50.5 87q72 147 72 236q-1 16 -9 35q-18 42 -49.5 42t-68.5 -52q-85 -125 -196 -492q-44 -145 -44 -280q0 -39 17 -80q34 -80 102 -80q119 0 243 96q41 31 128 105.5t96 74.5q4 -1 6 -9q-1 -73 -171 -224q-148 -123 -288 -123h-1
q-5 -7 -5 -15.5t36 -17.5l26 -6q73 -22 73 -86q0 -20 -24.5 -53.5t-57.5 -33.5t-35 7q1 5 27 27.5t25.5 36.5t-8.5 28.5t-44.5 25t-44.5 13.5q-46 15 -46 45q0 18 8 36q-54 12 -91 44q-79 68 -79 256.5t93.5 438t246.5 393.5q35 31 72 32q178 0 178 -115q0 -62 -95.5 -254.5
t-133.5 -192.5z" />
    <glyph glyph-name="Egrave" unicode="&#xc8;" horiz-adv-x="643" 
d="M514 1491q9 -1 16 -13t41.5 -86t68 -116t83.5 -55l1 -1q6 -3 6 -9t-10 -18q-8 -12 -26 -12q-30 0 -135.5 92.5t-105.5 144.5q0 17 10 35q20 38 51 38zM335 -24l-284 -8q-16 1 -17 7q1 21 17 48q31 145 228 750q-38 -2 -48 -2q-2 2 -2 5q0 44 21 66.5t35.5 23t24.5 0.5
l59 176q7 62 39 84q11 7 81 7t288 -7q25 -1 36 -43q3 -10 3 -18q0 -19 -50 -20q-23 0 -47 0.5t-73 0.5t-167 -4l-56 -177q101 -2 212 -6q25 -1 36 -45q3 -11 3 -18q-4 -19 -39 -19l-104 2q-62 0 -137 -2l-241 -714q57 -1 128 -2t165 -4q39 -1 39 -64q-2 -18 -38.5 -17.5
t-66.5 0.5h-45z" />
    <glyph glyph-name="Eacute" unicode="&#xc9;" horiz-adv-x="643" 
d="M557 1271q45 27 143 185q13 15 24 16q27 0 44 -45q6 -18 7 -31q0 -52 -144 -144q-99 -62 -117.5 -62t-35.5 15q-11 11 -10 20t7 11q44 4 82 35zM335 -24l-284 -8q-16 1 -17 7q1 21 17 48q31 145 228 750q-38 -2 -48 -2q-2 2 -2 5q0 44 21 66.5t35.5 23t24.5 0.5l59 176
q7 62 39 84q11 7 81 7t288 -7q25 -1 36 -43q3 -10 3 -18q0 -19 -50 -20q-23 0 -47 0.5t-73 0.5t-167 -4l-56 -177q101 -2 212 -6q25 -1 36 -45q3 -11 3 -18q-4 -19 -39 -19l-104 2q-62 0 -137 -2l-241 -714q57 -1 128 -2t165 -4q39 -1 39 -64q-2 -18 -38.5 -17.5t-66.5 0.5
h-45z" />
    <glyph glyph-name="Ecircumflex" unicode="&#xca;" horiz-adv-x="643" 
d="M689 1325q-66 -50 -143 -124q-23 -20 -30 -20q-20 2 -20 35.5t26.5 59t80 72t79.5 73t45.5 26.5t29.5 -19t10 -28t-7 -58.5t-12 -81t-27.5 -49.5t-36.5 -18q-10 2 -10.5 24t15.5 108zM335 -24l-284 -8q-16 1 -17 7q1 21 17 48q31 145 228 750q-38 -2 -48 -2q-2 2 -2 5
q0 44 21 66.5t35.5 23t24.5 0.5l59 176q7 62 39 84q11 7 81 7t288 -7q25 -1 36 -43q3 -10 3 -18q0 -19 -50 -20q-23 0 -47 0.5t-73 0.5t-167 -4l-56 -177q101 -2 212 -6q25 -1 36 -45q3 -11 3 -18q-4 -19 -39 -19l-104 2q-62 0 -137 -2l-241 -714q57 -1 128 -2t165 -4
q39 -1 39 -64q-2 -18 -38.5 -17.5t-66.5 0.5h-45z" />
    <glyph glyph-name="Edieresis" unicode="&#xcb;" horiz-adv-x="643" 
d="M647 1253q44 23 76 84q10 18 23 91t20 101.5t35.5 29.5t50.5 -25t22 -42q0 -50 -97 -180q-33 -44 -57 -68q-41 -40 -74 -10q-10 10 1 19zM544 1280q18 24 32.5 105.5t21.5 109.5t35.5 28.5t50.5 -25t22 -42.5q0 -42 -97 -180q-26 -36 -48 -56q-26 -24 -40.5 -25.5
t-25.5 8.5q-18 16 -5 24q33 21 54 53zM335 -24l-284 -8q-16 1 -17 7q1 21 17 48q31 145 228 750q-38 -2 -48 -2q-2 2 -2 5q0 44 21 66.5t35.5 23t24.5 0.5l59 176q7 62 39 84q11 7 81 7t288 -7q25 -1 36 -43q3 -10 3 -18q0 -19 -50 -20q-23 0 -47 0.5t-73 0.5t-167 -4
l-56 -177q101 -2 212 -6q25 -1 36 -45q3 -11 3 -18q-4 -19 -39 -19l-104 2q-62 0 -137 -2l-241 -714q57 -1 128 -2t165 -4q39 -1 39 -64q-2 -18 -38.5 -17.5t-66.5 0.5h-45z" />
    <glyph glyph-name="Igrave" unicode="&#xcc;" horiz-adv-x="269" 
d="M408 1494q9 -1 16 -13t41.5 -86t68 -116t83.5 -55l1 -1q6 -3 6 -9t-10 -18q-8 -12 -26 -12q-30 0 -135.5 92.5t-105.5 144.5q0 17 10 35q20 38 51 38zM379 1075q4 15 10.5 49t21.5 46t54.5 11t40 -19t-112 -473t-151 -582t-70.5 -185t-86.5 -106t-78.5 -47t-25 10
q0 9 12 27q115 175 204 533z" />
    <glyph glyph-name="Iacute" unicode="&#xcd;" horiz-adv-x="269" 
d="M381 1265q45 27 143 185q13 15 24 16q27 0 44 -45q6 -18 7 -31q0 -52 -144 -144q-99 -62 -117.5 -62t-35.5 15q-11 11 -10 20t7 11q44 4 82 35zM379 1075q4 15 10.5 49t21.5 46t54.5 11t40 -19t-112 -473t-151 -582t-70.5 -185t-86.5 -106t-78.5 -47t-25 10q0 9 12 27
q115 175 204 533z" />
    <glyph glyph-name="Icircumflex" unicode="&#xce;" horiz-adv-x="269" 
d="M530 1328q-66 -50 -143 -124q-23 -20 -30 -20q-20 2 -20 35.5t26.5 59t80 72t79.5 73t45.5 26.5t29.5 -19t10 -28t-7 -58.5t-12 -81t-27.5 -49.5t-36.5 -18q-10 2 -10.5 24t15.5 108zM379 1075q4 15 10.5 49t21.5 46t54.5 11t40 -19t-112 -473t-151 -582t-70.5 -185
t-86.5 -106t-78.5 -47t-25 10q0 9 12 27q115 175 204 533z" />
    <glyph glyph-name="Idieresis" unicode="&#xcf;" horiz-adv-x="269" 
d="M493 1250q44 23 76 84q10 18 23 91t20 101.5t35.5 29.5t50.5 -25t22 -42q0 -50 -97 -180q-33 -44 -57 -68q-41 -40 -74 -10q-10 10 1 19zM390 1277q18 24 32.5 105.5t21.5 109.5t35.5 28.5t50.5 -25t22 -42.5q0 -42 -97 -180q-26 -36 -48 -56q-26 -24 -40.5 -25.5
t-25.5 8.5q-18 16 -5 24q33 21 54 53zM379 1075q4 15 10.5 49t21.5 46t54.5 11t40 -19t-112 -473t-151 -582t-70.5 -185t-86.5 -106t-78.5 -47t-25 10q0 9 12 27q115 175 204 533z" />
    <glyph glyph-name="Eth" unicode="&#xd0;" horiz-adv-x="642" 
d="M410 952l-45 22q18 113 106 147q28 10 59 10q86 0 152 -64q65 -65 65 -145q0 -104 -45 -240q-108 -323 -382 -628l-69 -73q-39 -35 -53 -37q-43 1 -83 83q13 37 79 249l94 304q-26 -2 -77.5 -2t-73.5 5q-26 16 -27 45q2 13 11 16q111 15 194 23q64 202 95 285zM513 625
q-1 -18 -35.5 -19.5t-82.5 -6.5q-115 -343 -144 -460q77 81 152 194q234 351 234 673q0 35 -19 41q-6 1 -12 1q-63 -1 -107 -29q0 -83 -31.5 -187.5t-37.5 -127.5l-9 -29q52 2 74 2q14 -9 18 -52z" />
    <glyph glyph-name="Ntilde" unicode="&#xd1;" horiz-adv-x="618" 
d="M632 1417q33 43 54 113q25 83 59.5 83t57.5 -28.5t23 -46t-10 -42.5q-44 -104 -159 -159q-77 -36 -161.5 -36t-85.5 29q2 13 38 13q127 0 184 74zM352 -79l10 470q0 36 -2 84q-224 -646 -277 -773q-41 -78 -95 -82q-6 2 -6 7t20 47q33 67 192 596q242 809 251 883
q10 52 44 52q73 0 78 -37q-3 -32 -45 -216.5t-45.5 -214t-17 -119t-13.5 -120t2 -38.5q25 83 80 299t80.5 286.5t29.5 84.5q81 244 128 244q13 0 36 -16.5t23 -39.5t-20 -57q-68 -116 -166 -379q-191 -514 -201 -867v-1q-4 -134 -38 -134q-14 0 -24 2q-24 6 -24 39z" />
    <glyph glyph-name="Ograve" unicode="&#xd2;" horiz-adv-x="553" 
d="M486 1490q9 -1 16 -13t41.5 -86t68 -116t83.5 -55l1 -1q6 -3 6 -9t-10 -18q-8 -12 -26 -12q-30 0 -135.5 92.5t-105.5 144.5q0 17 10 35q20 38 51 38zM219 -42q-100 0 -100 121t80.5 426t178.5 522q20 43 23 51q38 74 93 74t76 -29q51 -61 57 -170t-4 -183
q-53 -405 -196 -610l-20 -30q-115 -172 -188 -172zM554 924q-11 94 -30 93q-73 -4 -213 -505q-77 -277 -77 -350q1 -2 2.5 -15.5t11.5 -13.5q13 1 38 28q69 79 150 263q121 273 121 462q0 15 -3 38z" />
    <glyph glyph-name="Oacute" unicode="&#xd3;" horiz-adv-x="553" 
d="M475 1265q45 27 143 185q13 15 24 16q27 0 44 -45q6 -18 7 -31q0 -52 -144 -144q-99 -62 -117.5 -62t-35.5 15q-11 11 -10 20t7 11q44 4 82 35zM219 -42q-100 0 -100 121t80.5 426t178.5 522q20 43 23 51q38 74 93 74t76 -29q51 -61 57 -170t-4 -183q-53 -405 -196 -610
l-20 -30q-115 -172 -188 -172zM554 924q-11 94 -30 93q-73 -4 -213 -505q-77 -277 -77 -350q1 -2 2.5 -15.5t11.5 -13.5q13 1 38 28q69 79 150 263q121 273 121 462q0 15 -3 38z" />
    <glyph glyph-name="Ocircumflex" unicode="&#xd4;" horiz-adv-x="553" 
d="M612 1325q-66 -50 -143 -124q-23 -20 -30 -20q-20 2 -20 35.5t26.5 59t80 72t79.5 73t45.5 26.5t29.5 -19t10 -28t-7 -58.5t-12 -81t-27.5 -49.5t-36.5 -18q-10 2 -10.5 24t15.5 108zM219 -42q-100 0 -100 121t80.5 426t178.5 522q20 43 23 51q38 74 93 74t76 -29
q51 -61 57 -170t-4 -183q-53 -405 -196 -610l-20 -30q-115 -172 -188 -172zM554 924q-11 94 -30 93q-73 -4 -213 -505q-77 -277 -77 -350q1 -2 2.5 -15.5t11.5 -13.5q13 1 38 28q69 79 150 263q121 273 121 462q0 15 -3 38z" />
    <glyph glyph-name="Otilde" unicode="&#xd5;" horiz-adv-x="553" 
d="M552 1301q33 43 54 113q25 83 59.5 83t57.5 -28.5t23 -46t-10 -42.5q-44 -104 -159 -159q-77 -36 -161.5 -36t-85.5 29q2 13 38 13q127 0 184 74zM219 -42q-100 0 -100 121t80.5 426t178.5 522q20 43 23 51q38 74 93 74t76 -29q51 -61 57 -170t-4 -183
q-53 -405 -196 -610l-20 -30q-115 -172 -188 -172zM554 924q-11 94 -30 93q-73 -4 -213 -505q-77 -277 -77 -350q1 -2 2.5 -15.5t11.5 -13.5q13 1 38 28q69 79 150 263q121 273 121 462q0 15 -3 38z" />
    <glyph glyph-name="Odieresis" unicode="&#xd6;" horiz-adv-x="553" 
d="M579 1250q44 23 76 84q10 18 23 91t20 101.5t35.5 29.5t50.5 -25t22 -42q0 -50 -97 -180q-33 -44 -57 -68q-41 -40 -74 -10q-10 10 1 19zM476 1277q18 24 32.5 105.5t21.5 109.5t35.5 28.5t50.5 -25t22 -42.5q0 -42 -97 -180q-26 -36 -48 -56q-26 -24 -40.5 -25.5
t-25.5 8.5q-18 16 -5 24q33 21 54 53zM219 -42q-100 0 -100 121t80.5 426t178.5 522q20 43 23 51q38 74 93 74t76 -29q51 -61 57 -170t-4 -183q-53 -405 -196 -610l-20 -30q-115 -172 -188 -172zM554 924q-11 94 -30 93q-73 -4 -213 -505q-77 -277 -77 -350q1 -2 2.5 -15.5
t11.5 -13.5q13 1 38 28q69 79 150 263q121 273 121 462q0 15 -3 38z" />
    <glyph glyph-name="multiply" unicode="&#xd7;" horiz-adv-x="887" 
d="M361 862q16 0 32 -36q41 -109 89 -208q75 99 158 195q6 5 23 5t33 -12.5t16 -26.5t-51 -76.5t-130 -184.5q24 -51 60.5 -155t36.5 -129.5t-20.5 -42.5t-27 -16t-12.5 12l-106 232l-19 -22q-110 -128 -132 -142.5t-53.5 -14t-32.5 21.5q1 7 7 13l181 251
q-109 239 -109 292q0 19 25 31.5t32 12.5z" />
    <glyph glyph-name="Oslash" unicode="&#xd8;" horiz-adv-x="553" 
d="M554 924q-11 94 -30 93q-69 -4 -195 -443l226 344zM219 -42q-100 0 -100 130q-54 -73 -92 -71q-5 1 -17 6q-26 10 1 53l136 214q17 82 45 189q88 331 186 548q20 43 23 51q38 74 93 74t82.5 -35t42.5 -104l57 83q9 13 22.5 11.5t22.5 -4.5q32 -15 29 -38.5t-38 -74.5
l-83 -123q-1 -53 -6 -97q-53 -405 -196 -610l-51 -74q-91 -128 -157 -128zM538 722l-71 -116q-121 -202 -167 -268l-51 -71q-15 -73 -15 -90q1 -44 14 -44q13 1 38 28q69 79 146 253t106 308z" />
    <glyph glyph-name="Ugrave" unicode="&#xd9;" horiz-adv-x="753" 
d="M469 1490q9 -1 16 -13t41.5 -86t68 -116t83.5 -55l1 -1q6 -3 6 -9t-10 -18q-8 -12 -26 -12q-30 0 -135.5 92.5t-105.5 144.5q0 17 10 35q20 38 51 38zM285 145q12 1 28 18q160 185 338 603q8 18 70 168.5t83 162.5q6 3 28 3.5t31 -11t9 -36.5t-16 -66
q-100 -248 -173 -528q-35 -139 -35 -258t4 -140t-12.5 -40t-29 -26.5t-34.5 1.5q-22 8 -32 30q-11 24 1.5 137t34.5 211l25 108q-116 -254 -205 -378t-173 -125q-52 2 -52 96q0 141 85 446t124.5 406.5t47.5 126.5q21 57 64 56.5t44 -41.5q0 -30 -23 -90
q-189 -504 -232 -834z" />
    <glyph glyph-name="Uacute" unicode="&#xda;" horiz-adv-x="753" 
d="M546 1266q45 27 143 185q13 15 24 16q27 0 44 -45q6 -18 7 -31q0 -52 -144 -144q-99 -62 -117.5 -62t-35.5 15q-11 11 -10 20t7 11q44 4 82 35zM285 145q12 1 28 18q160 185 338 603q8 18 70 168.5t83 162.5q6 3 28 3.5t31 -11t9 -36.5t-16 -66q-100 -248 -173 -528
q-35 -139 -35 -258t4 -140t-12.5 -40t-29 -26.5t-34.5 1.5q-22 8 -32 30q-11 24 1.5 137t34.5 211l25 108q-116 -254 -205 -378t-173 -125q-52 2 -52 96q0 141 85 446t124.5 406.5t47.5 126.5q21 57 64 56.5t44 -41.5q0 -30 -23 -90q-189 -504 -232 -834z" />
    <glyph glyph-name="Ucircumflex" unicode="&#xdb;" horiz-adv-x="753" 
d="M659 1329q-66 -50 -143 -124q-23 -20 -30 -20q-20 2 -20 35.5t26.5 59t80 72t79.5 73t45.5 26.5t29.5 -19t10 -28t-7 -58.5t-12 -81t-27.5 -49.5t-36.5 -18q-10 2 -10.5 24t15.5 108zM285 145q12 1 28 18q160 185 338 603q8 18 70 168.5t83 162.5q6 3 28 3.5t31 -11
t9 -36.5t-16 -66q-100 -248 -173 -528q-35 -139 -35 -258t4 -140t-12.5 -40t-29 -26.5t-34.5 1.5q-22 8 -32 30q-11 24 1.5 137t34.5 211l25 108q-116 -254 -205 -378t-173 -125q-52 2 -52 96q0 141 85 446t124.5 406.5t47.5 126.5q21 57 64 56.5t44 -41.5q0 -30 -23 -90
q-189 -504 -232 -834z" />
    <glyph glyph-name="Udieresis" unicode="&#xdc;" horiz-adv-x="753" 
d="M628 1250q44 23 76 84q10 18 23 91t20 101.5t35.5 29.5t50.5 -25t22 -42q0 -50 -97 -180q-33 -44 -57 -68q-41 -40 -74 -10q-10 10 1 19zM525 1277q18 24 32.5 105.5t21.5 109.5t35.5 28.5t50.5 -25t22 -42.5q0 -42 -97 -180q-26 -36 -48 -56q-26 -24 -40.5 -25.5
t-25.5 8.5q-18 16 -5 24q33 21 54 53zM285 145q12 1 28 18q160 185 338 603q8 18 70 168.5t83 162.5q6 3 28 3.5t31 -11t9 -36.5t-16 -66q-100 -248 -173 -528q-35 -139 -35 -258t4 -140t-12.5 -40t-29 -26.5t-34.5 1.5q-22 8 -32 30q-11 24 1.5 137t34.5 211l25 108
q-116 -254 -205 -378t-173 -125q-52 2 -52 96q0 141 85 446t124.5 406.5t47.5 126.5q21 57 64 56.5t44 -41.5q0 -30 -23 -90q-189 -504 -232 -834z" />
    <glyph glyph-name="Yacute" unicode="&#xdd;" horiz-adv-x="462" 
d="M407 1261q45 27 143 185q13 15 24 16q27 0 44 -45q6 -18 7 -31q0 -52 -144 -144q-99 -62 -117.5 -62t-35.5 15q-11 11 -10 20t7 11q44 4 82 35zM660 1161q-1 -3 -1 -5q0 -6 -3 -18l-407 -971q-73 -169 -125.5 -243t-107.5 -115t-76.5 -40t-20.5 10.5t15 26.5
q101 122 205 348l132 301q-72 451 -94.5 554.5t-19.5 130.5q4 23 42 36q15 5 32.5 4.5t22.5 -18.5q10 -48 43 -249t48 -279l176 441q7 16 18 50t27.5 45t55 11.5t38.5 -20.5z" />
    <glyph glyph-name="Thorn" unicode="&#xde;" horiz-adv-x="690" 
d="M231 -29q-51 -142 -108 -231.5t-138.5 -145t-128 -55.5t-56.5 21q0 9 24 14h2q80 18 152 105q16 19 27 38q121 192 216 581l112 472q77 328 95 373t40 51q18 6 46 6t32 -16q1 -5 1 -23.5t-14 -58.5v-2q-8 -25 -82 -324q11 2 34 2q110 0 147 -58q14 -24 14 -54
q0 -145 -102.5 -342.5t-206.5 -293.5q-62 -57 -106 -59zM326 298q-18 -74 -54 -201q178 196 251 420q23 72 31 139q-24 33 -64.5 33t-62.5 -12q-68 -272 -101 -379z" />
    <glyph glyph-name="germandbls" unicode="&#xdf;" horiz-adv-x="547" 
d="M266 184q-43 0 -43 30q1 15 18 28t17 14q88 52 154 131q134 160 134 365q0 35 -14 37q-38 0 -106.5 -47.5t-77.5 -47t-10 7.5v4q0 4 1.5 10.5t2.5 14.5t3 18t4.5 20t6 20.5t7.5 19.5q8 18 24 33t46 53q90 110 91 161q-1 19 -27 21q-44 -1 -112 -43q-13 -64 -131 -508
q-172 -647 -199 -711q-32 -103 -57 -103q-28 1 -29 75q0 40 121 496t226 800q28 83 152 83q37 0 70 -12q75 -28 75 -98t-124 -202h16q42 -1 79.5 -45t37.5 -100.5t-19 -118.5q-43 -142 -144.5 -274t-192.5 -132z" />
    <glyph glyph-name="agrave" unicode="&#xe0;" horiz-adv-x="707" 
d="M478 1131q9 -1 16 -13t41.5 -86t68 -116t83.5 -55l1 -1q6 -3 6 -9t-10 -18q-8 -12 -26 -12q-30 0 -135.5 92.5t-105.5 144.5q0 17 10 35q20 38 51 38zM527 653q-160 -27 -279 -210q-116 -178 -122 -352q229 302 401 562zM481 738l59 -8q14 0 29.5 16t40 16t39 -13
t14.5 -22.5t-10 -31.5t-12 -29q-133 -417 -133 -532q1 -40 18 -41q61 0 191 160q87 107 112.5 157t40.5 53q3 0 5 1q18 -2 19 -21q0 -36 -83 -162q-177 -270 -306 -270q-93 0 -93 130q0 62 25 154.5t30 115.5q-23 -30 -154 -218t-188 -222q-18 -10 -31 -11q-57 0 -83 45
q-12 22 -12.5 63.5t61.5 191.5q100 242 227 373q100 102 194 105z" />
    <glyph glyph-name="aacute" unicode="&#xe1;" horiz-adv-x="707" 
d="M539 953q45 27 143 185q13 15 24 16q27 0 44 -45q6 -18 7 -31q0 -52 -144 -144q-99 -62 -117.5 -62t-35.5 15q-11 11 -10 20t7 11q44 4 82 35zM527 653q-160 -27 -279 -210q-116 -178 -122 -352q229 302 401 562zM481 738l59 -8q14 0 29.5 16t40 16t39 -13t14.5 -22.5
t-10 -31.5t-12 -29q-133 -417 -133 -532q1 -40 18 -41q61 0 191 160q87 107 112.5 157t40.5 53q3 0 5 1q18 -2 19 -21q0 -36 -83 -162q-177 -270 -306 -270q-93 0 -93 130q0 62 25 154.5t30 115.5q-23 -30 -154 -218t-188 -222q-18 -10 -31 -11q-57 0 -83 45
q-12 22 -12.5 63.5t61.5 191.5q100 242 227 373q100 102 194 105z" />
    <glyph glyph-name="acircumflex" unicode="&#xe2;" horiz-adv-x="707" 
d="M646 1022q-66 -50 -143 -124q-23 -20 -30 -20q-20 2 -20 35.5t26.5 59t80 72t79.5 73t45.5 26.5t29.5 -19t10 -28t-7 -58.5t-12 -81t-27.5 -49.5t-36.5 -18q-10 2 -10.5 24t15.5 108zM527 653q-160 -27 -279 -210q-116 -178 -122 -352q229 302 401 562zM481 738l59 -8
q14 0 29.5 16t40 16t39 -13t14.5 -22.5t-10 -31.5t-12 -29q-133 -417 -133 -532q1 -40 18 -41q61 0 191 160q87 107 112.5 157t40.5 53q3 0 5 1q18 -2 19 -21q0 -36 -83 -162q-177 -270 -306 -270q-93 0 -93 130q0 62 25 154.5t30 115.5q-23 -30 -154 -218t-188 -222
q-18 -10 -31 -11q-57 0 -83 45q-12 22 -12.5 63.5t61.5 191.5q100 242 227 373q100 102 194 105z" />
    <glyph glyph-name="atilde" unicode="&#xe3;" horiz-adv-x="707" 
d="M554 983q33 43 54 113q25 83 59.5 83t57.5 -28.5t23 -46t-10 -42.5q-44 -104 -159 -159q-77 -36 -161.5 -36t-85.5 29q2 13 38 13q127 0 184 74zM527 653q-160 -27 -279 -210q-116 -178 -122 -352q229 302 401 562zM481 738l59 -8q14 0 29.5 16t40 16t39 -13t14.5 -22.5
t-10 -31.5t-12 -29q-133 -417 -133 -532q1 -40 18 -41q61 0 191 160q87 107 112.5 157t40.5 53q3 0 5 1q18 -2 19 -21q0 -36 -83 -162q-177 -270 -306 -270q-93 0 -93 130q0 62 25 154.5t30 115.5q-23 -30 -154 -218t-188 -222q-18 -10 -31 -11q-57 0 -83 45
q-12 22 -12.5 63.5t61.5 191.5q100 242 227 373q100 102 194 105z" />
    <glyph glyph-name="adieresis" unicode="&#xe4;" horiz-adv-x="707" 
d="M547 899q44 23 76 84q10 18 23 91t20 101.5t35.5 29.5t50.5 -25t22 -42q0 -50 -97 -180q-33 -44 -57 -68q-41 -40 -74 -10q-10 10 1 19zM444 926q18 24 32.5 105.5t21.5 109.5t35.5 28.5t50.5 -25t22 -42.5q0 -42 -97 -180q-26 -36 -48 -56q-26 -24 -40.5 -25.5
t-25.5 8.5q-18 16 -5 24q33 21 54 53zM527 653q-160 -27 -279 -210q-116 -178 -122 -352q229 302 401 562zM481 738l59 -8q14 0 29.5 16t40 16t39 -13t14.5 -22.5t-10 -31.5t-12 -29q-133 -417 -133 -532q1 -40 18 -41q61 0 191 160q87 107 112.5 157t40.5 53q3 0 5 1
q18 -2 19 -21q0 -36 -83 -162q-177 -270 -306 -270q-93 0 -93 130q0 62 25 154.5t30 115.5q-23 -30 -154 -218t-188 -222q-18 -10 -31 -11q-57 0 -83 45q-12 22 -12.5 63.5t61.5 191.5q100 242 227 373q100 102 194 105z" />
    <glyph glyph-name="aring" unicode="&#xe5;" horiz-adv-x="707" 
d="M592 812q-139 0 -139 136q0 18 9 37q34 69 149 69q30 0 53 -10q61 -26 62 -109q0 -40 -23 -72q-38 -51 -111 -51zM657 931q0 65 -65 65q-33 0 -60.5 -14.5t-27.5 -42.5q0 -77 77 -77q15 0 29 4q47 15 47 65zM527 653q-160 -27 -279 -210q-116 -178 -122 -352
q229 302 401 562zM481 738l59 -8q14 0 29.5 16t40 16t39 -13t14.5 -22.5t-10 -31.5t-12 -29q-133 -417 -133 -532q1 -40 18 -41q61 0 191 160q87 107 112.5 157t40.5 53q3 0 5 1q18 -2 19 -21q0 -36 -83 -162q-177 -270 -306 -270q-93 0 -93 130q0 62 25 154.5t30 115.5
q-23 -30 -154 -218t-188 -222q-18 -10 -31 -11q-57 0 -83 45q-12 22 -12.5 63.5t61.5 191.5q100 242 227 373q100 102 194 105z" />
    <glyph glyph-name="ae" unicode="&#xe6;" horiz-adv-x="910" 
d="M523 653q-199 -36 -325 -290q-72 -147 -76 -272q228 302 401 562zM597 490q20 3 86 86t66 130q0 7 -5 16q-20 -20 -83.5 -114t-63.5 -118zM477 738l59 -8q13 0 28.5 16t37.5 16t46 -15q2 2 33.5 38t64.5 36t60 -11q66 -27 66 -87q0 -9 -6 -29q-41 -81 -132 -187
t-185 -169q-32 -116 -32 -181t3 -83q9 -42 67 -42t134 53.5t162 141.5t97.5 99t27.5 29t28.5 17.5t14.5 -12.5q0 -13 -16 -43q-49 -91 -150 -193q-160 -162 -283 -162q-58 0 -99 33q-77 63 -77 219q0 86 40 205q-6 -8 -92 -132q-86 -123 -116 -161l-48 -63q-23 -31 -34 -44
q-48 -59 -79 -59t-52 10q-51 24 -51 84q0 28 21 93q57 180 159 343q153 243 303 248z" />
    <glyph glyph-name="ccedilla" unicode="&#xe7;" horiz-adv-x="593" 
d="M381 787q128 0 128 -83q-4 -43 -69 -181.5t-96 -138.5q-15 3 -19 16q0 8 10 19t24 40q44 88 44 148t-17 84q-27 -1 -63 -55q-65 -102 -112.5 -264.5t-47.5 -257.5q0 -13 1 -30q4 -68 57 -68q156 1 437 282q51 54 57 20q-1 -18 -20 -50q-50 -85 -161 -181
q-163 -141 -276 -141q-7 0 -17 1q-6 -7 -6 -16t36 -18l26 -6q73 -22 73 -86q0 -21 -24.5 -54t-57.5 -33t-35 7q1 5 27 27.5t25.5 36.5t-8.5 28.5t-44.5 25t-44.5 13.5q-46 15 -46 42.5t17 53.5q-27 16 -57 54q-32 36 -44 92q-31 143 35 273q2 4 20 43q111 241 195 335
q20 21 53 22z" />
    <glyph glyph-name="egrave" unicode="&#xe8;" horiz-adv-x="486" 
d="M357 1131q9 -1 16 -13t41.5 -86t68 -116t83.5 -55l1 -1q6 -3 6 -9t-10 -18q-8 -12 -26 -12q-30 0 -135.5 92.5t-105.5 144.5q0 17 10 35q20 38 51 38zM250 490q20 3 86 86t66 130q0 7 -5 16q-20 -20 -83.5 -114t-63.5 -118zM648 341q50 54 56 19q0 -13 -16 -43
q-49 -91 -150 -193q-160 -162 -283 -162q-58 0 -99 33q-77 63 -77 219q0 89 54.5 250.5t167.5 292.5q50 64 104 64q26 0 54 -11q66 -27 66 -87q0 -9 -6 -29q-41 -81 -132 -187t-185 -169q-32 -116 -32 -181t3 -83q9 -42 67 -42t134 53.5t162 141.5t97.5 99t14.5 15z" />
    <glyph glyph-name="eacute" unicode="&#xe9;" horiz-adv-x="486" 
d="M386 953q45 27 143 185q13 15 24 16q27 0 44 -45q6 -18 7 -31q0 -52 -144 -144q-99 -62 -117.5 -62t-35.5 15q-11 11 -10 20t7 11q44 4 82 35zM250 490q20 3 86 86t66 130q0 7 -5 16q-20 -20 -83.5 -114t-63.5 -118zM648 341q50 54 56 19q0 -13 -16 -43
q-49 -91 -150 -193q-160 -162 -283 -162q-58 0 -99 33q-77 63 -77 219q0 89 54.5 250.5t167.5 292.5q50 64 104 64q26 0 54 -11q66 -27 66 -87q0 -9 -6 -29q-41 -81 -132 -187t-185 -169q-32 -116 -32 -181t3 -83q9 -42 67 -42t134 53.5t162 141.5t97.5 99t14.5 15z" />
    <glyph glyph-name="ecircumflex" unicode="&#xea;" horiz-adv-x="486" 
d="M509 1022q-66 -50 -143 -124q-23 -20 -30 -20q-20 2 -20 35.5t26.5 59t80 72t79.5 73t45.5 26.5t29.5 -19t10 -28t-7 -58.5t-12 -81t-27.5 -49.5t-36.5 -18q-10 2 -10.5 24t15.5 108zM250 490q20 3 86 86t66 130q0 7 -5 16q-20 -20 -83.5 -114t-63.5 -118zM648 341
q50 54 56 19q0 -13 -16 -43q-49 -91 -150 -193q-160 -162 -283 -162q-58 0 -99 33q-77 63 -77 219q0 89 54.5 250.5t167.5 292.5q50 64 104 64q26 0 54 -11q66 -27 66 -87q0 -9 -6 -29q-41 -81 -132 -187t-185 -169q-32 -116 -32 -181t3 -83q9 -42 67 -42t134 53.5
t162 141.5t97.5 99t14.5 15z" />
    <glyph glyph-name="edieresis" unicode="&#xeb;" horiz-adv-x="486" 
d="M442 899q44 23 76 84q10 18 23 91t20 101.5t35.5 29.5t50.5 -25t22 -42q0 -50 -97 -180q-33 -44 -57 -68q-41 -40 -74 -10q-10 10 1 19zM339 926q18 24 32.5 105.5t21.5 109.5t35.5 28.5t50.5 -25t22 -42.5q0 -42 -97 -180q-26 -36 -48 -56q-26 -24 -40.5 -25.5
t-25.5 8.5q-18 16 -5 24q33 21 54 53zM250 490q20 3 86 86t66 130q0 7 -5 16q-20 -20 -83.5 -114t-63.5 -118zM648 341q50 54 56 19q0 -13 -16 -43q-49 -91 -150 -193q-160 -162 -283 -162q-58 0 -99 33q-77 63 -77 219q0 89 54.5 250.5t167.5 292.5q50 64 104 64
q26 0 54 -11q66 -27 66 -87q0 -9 -6 -29q-41 -81 -132 -187t-185 -169q-32 -116 -32 -181t3 -83q9 -42 67 -42t134 53.5t162 141.5t97.5 99t14.5 15z" />
    <glyph glyph-name="igrave" unicode="&#xec;" horiz-adv-x="469" 
d="M253 1131q9 -1 16 -13t41.5 -86t68 -116t83.5 -55l1 -1q6 -3 6 -9t-10 -18q-8 -12 -26 -12q-30 0 -135.5 92.5t-105.5 144.5q0 17 10 35q20 38 51 38zM597 294q-37 -104 -147 -212q-130 -128 -218 -128q-119 0 -149 135q-9 41 -9 89q0 155 60 359q75 258 141 258
q33 0 48.5 -15.5t15.5 -22.5q0 -32 -65 -157.5t-80.5 -182t-23 -147t-7.5 -116.5q0 -88 21.5 -110t52.5 -23q88 0 210 153q59 75 92 138q15 24 31 24q27 -4 30 -27q0 -3 -3 -15z" />
    <glyph glyph-name="iacute" unicode="&#xed;" horiz-adv-x="469" 
d="M282 953q45 27 143 185q13 15 24 16q27 0 44 -45q6 -18 7 -31q0 -52 -144 -144q-99 -62 -117.5 -62t-35.5 15q-11 11 -10 20t7 11q44 4 82 35zM597 294q-37 -104 -147 -212q-130 -128 -218 -128q-119 0 -149 135q-9 41 -9 89q0 155 60 359q75 258 141 258
q33 0 48.5 -15.5t15.5 -22.5q0 -32 -65 -157.5t-80.5 -182t-23 -147t-7.5 -116.5q0 -88 21.5 -110t52.5 -23q88 0 210 153q59 75 92 138q15 24 31 24q27 -4 30 -27q0 -3 -3 -15z" />
    <glyph glyph-name="icircumflex" unicode="&#xee;" horiz-adv-x="469" 
d="M405 1022q-66 -50 -143 -124q-23 -20 -30 -20q-20 2 -20 35.5t26.5 59t80 72t79.5 73t45.5 26.5t29.5 -19t10 -28t-7 -58.5t-12 -81t-27.5 -49.5t-36.5 -18q-10 2 -10.5 24t15.5 108zM597 294q-37 -104 -147 -212q-130 -128 -218 -128q-119 0 -149 135q-9 41 -9 89
q0 155 60 359q75 258 141 258q33 0 48.5 -15.5t15.5 -22.5q0 -32 -65 -157.5t-80.5 -182t-23 -147t-7.5 -116.5q0 -88 21.5 -110t52.5 -23q88 0 210 153q59 75 92 138q15 24 31 24q27 -4 30 -27q0 -3 -3 -15z" />
    <glyph glyph-name="idieresis" unicode="&#xef;" horiz-adv-x="469" 
d="M368 899q44 23 76 84q10 18 23 91t20 101.5t35.5 29.5t50.5 -25t22 -42q0 -50 -97 -180q-33 -44 -57 -68q-41 -40 -74 -10q-10 10 1 19zM265 926q18 24 32.5 105.5t21.5 109.5t35.5 28.5t50.5 -25t22 -42.5q0 -42 -97 -180q-26 -36 -48 -56q-26 -24 -40.5 -25.5
t-25.5 8.5q-18 16 -5 24q33 21 54 53zM597 294q-37 -104 -147 -212q-130 -128 -218 -128q-119 0 -149 135q-9 41 -9 89q0 155 60 359q75 258 141 258q33 0 48.5 -15.5t15.5 -22.5q0 -32 -65 -157.5t-80.5 -182t-23 -147t-7.5 -116.5q0 -88 21.5 -110t52.5 -23q88 0 210 153
q59 75 92 138q15 24 31 24q27 -4 30 -27q0 -3 -3 -15z" />
    <glyph glyph-name="eth" unicode="&#xf0;" horiz-adv-x="712" 
d="M429 682l19 -2q13 0 21 2q13 47 25 112q-32 -6 -92 -6t-82 5q-26 16 -27 45q2 13 11 16q112 15 201 24q12 108 12 194t-2 115q5 34 40 37q48 0 64.5 -22.5t17.5 -39.5l-53 -278q53 3 94 3q14 -9 18 -52q-1 -18 -37.5 -19t-89.5 -9q-109 -561 -143 -665t-58 -150
q-73 -133 -195 -133q-150 2 -151 127q0 100 109 316q39 78 51 100q79 155 166 235q48 44 81 45zM366 491q-33 0 -106 -125l-16 -28q-130 -253 -134 -338q2 -50 44 -51q130 0 194 195q41 127 41 269q-1 77 -23 78z" />
    <glyph glyph-name="ntilde" unicode="&#xf1;" horiz-adv-x="622" 
d="M680 983q33 43 54 113q25 83 59.5 83t57.5 -28.5t23 -46t-10 -42.5q-44 -104 -159 -159q-77 -36 -161.5 -36t-85.5 29q2 13 38 13q127 0 184 74zM804 374q0 -50 -114 -184t-170.5 -176.5t-113.5 -42.5q-106 1 -106 168q0 79 32 247.5t34 183.5q-106 -35 -203 -266
q-20 -49 -64 -167q-43 -117 -61 -139q-22 -26 -58 -26t-37 26q0 48 321 796q50 118 58 132q17 33 71 -3q16 -11 16.5 -22t-15.5 -35q-37 -58 -66 -135l-38 -99l32 39q43 53 69 80.5t43.5 31t36.5 3.5q41 -3 43 -44q0 -20 -14 -54q-63 -145 -97 -439q-9 -84 -8.5 -147.5
t30.5 -64.5q42 0 153 130.5t160 216.5q13 21 37 22q25 -6 29 -32z" />
    <glyph glyph-name="ograve" unicode="&#xf2;" horiz-adv-x="420" 
d="M317 1131q9 -1 16 -13t41.5 -86t68 -116t83.5 -55l1 -1q6 -3 6 -9t-10 -18q-8 -12 -26 -12q-30 0 -135.5 92.5t-105.5 144.5q0 17 10 35q20 38 51 38zM317 702q-50 -8 -129 -250t-79 -286t8 -44q42 0 131 180.5t89 330.5q0 68 -20 69zM301 826q28 0 48 -16
q35 -30 35 -116q0 -393 -140 -589l-14 -21q-87 -126 -140 -126q-65 7 -75 95q0 73 59.5 296t136.5 386q44 90 90 91z" />
    <glyph glyph-name="oacute" unicode="&#xf3;" horiz-adv-x="420" 
d="M330 953q45 27 143 185q13 15 24 16q27 0 44 -45q6 -18 7 -31q0 -52 -144 -144q-99 -62 -117.5 -62t-35.5 15q-11 11 -10 20t7 11q44 4 82 35zM317 702q-50 -8 -129 -250t-79 -286t8 -44q42 0 131 180.5t89 330.5q0 68 -20 69zM301 826q28 0 48 -16q35 -30 35 -116
q0 -393 -140 -589l-14 -21q-87 -126 -140 -126q-65 7 -75 95q0 73 59.5 296t136.5 386q44 90 90 91z" />
    <glyph glyph-name="ocircumflex" unicode="&#xf4;" horiz-adv-x="420" 
d="M435 1022q-66 -50 -143 -124q-23 -20 -30 -20q-20 2 -20 35.5t26.5 59t80 72t79.5 73t45.5 26.5t29.5 -19t10 -28t-7 -58.5t-12 -81t-27.5 -49.5t-36.5 -18q-10 2 -10.5 24t15.5 108zM317 702q-50 -8 -129 -250t-79 -286t8 -44q42 0 131 180.5t89 330.5q0 68 -20 69z
M301 826q28 0 48 -16q35 -30 35 -116q0 -393 -140 -589l-14 -21q-87 -126 -140 -126q-65 7 -75 95q0 73 59.5 296t136.5 386q44 90 90 91z" />
    <glyph glyph-name="otilde" unicode="&#xf5;" horiz-adv-x="420" 
d="M391 983q33 43 54 113q25 83 59.5 83t57.5 -28.5t23 -46t-10 -42.5q-44 -104 -159 -159q-77 -36 -161.5 -36t-85.5 29q2 13 38 13q127 0 184 74zM317 702q-50 -8 -129 -250t-79 -286t8 -44q42 0 131 180.5t89 330.5q0 68 -20 69zM301 826q28 0 48 -16q35 -30 35 -116
q0 -393 -140 -589l-14 -21q-87 -126 -140 -126q-65 7 -75 95q0 73 59.5 296t136.5 386q44 90 90 91z" />
    <glyph glyph-name="odieresis" unicode="&#xf6;" horiz-adv-x="420" 
d="M383 899q44 23 76 84q10 18 23 91t20 101.5t35.5 29.5t50.5 -25t22 -42q0 -50 -97 -180q-33 -44 -57 -68q-41 -40 -74 -10q-10 10 1 19zM280 926q18 24 32.5 105.5t21.5 109.5t35.5 28.5t50.5 -25t22 -42.5q0 -42 -97 -180q-26 -36 -48 -56q-26 -24 -40.5 -25.5
t-25.5 8.5q-18 16 -5 24q33 21 54 53zM317 702q-50 -8 -129 -250t-79 -286t8 -44q42 0 131 180.5t89 330.5q0 68 -20 69zM301 826q28 0 48 -16q35 -30 35 -116q0 -393 -140 -589l-14 -21q-87 -126 -140 -126q-65 7 -75 95q0 73 59.5 296t136.5 386q44 90 90 91z" />
    <glyph glyph-name="divide" unicode="&#xf7;" horiz-adv-x="952" 
d="M506 778q53 0 53 -55q0 -13 -6 -25q-15 -31 -45 -31q-80 0 -80 71q0 17 10 37l16 35q4 -14 10 -23t42 -9zM804 507q-1 -17 -74 -18.5t-199.5 -15.5t-233 -14t-134.5 7q-39 10 -39 44q0 14 15 16h3q422 36 621 36h11q19 0 28 -39q2 -9 2 -16zM426 314q53 0 53 -55
q0 -13 -6 -25q-16 -31 -46 -31t-46 10q-33 20 -33 49t10 49l16 35q4 -14 10 -23t42 -9z" />
    <glyph glyph-name="oslash" unicode="&#xf8;" horiz-adv-x="553" 
d="M374 662q-10 66 -25 66q-54 -2 -155 -310l180 241v3zM26 78q-47 -53 -74 -50q-4 0 -14 4q-18 7 1 38l109 149q14 58 37 132q70 232 148 384q16 30 19 36q30 52 74 51.5t66.5 -25t33.5 -72.5l46 58q7 9 22 9q39 -7 38 -30q-3 -17 -32 -53l-66 -86q-1 -37 -5 -68
q-42 -283 -157 -427l-41 -52q-72 -89 -125 -89q-80 0 -80 91zM130 203q-12 -51 -12 -72.5t11 -21.5q11 1 30 20q55 56 117 177.5t85 215.5l-57 -82q-97 -142 -134 -188z" />
    <glyph glyph-name="ugrave" unicode="&#xf9;" horiz-adv-x="639" 
d="M273 1131q9 -1 16 -13t41.5 -86t68 -116t83.5 -55l1 -1q6 -3 6 -9t-10 -18q-8 -12 -26 -12q-30 0 -135.5 92.5t-105.5 144.5q0 17 10 35q20 38 51 38zM296 845q41 -15 42 -40q0 -9 -14 -49l-38 -109q-134 -384 -151 -508q74 113 178.5 322.5t126.5 250.5t33.5 70
t21.5 32.5t37 3.5q40 0 40 -37q-3 -19 -42.5 -124.5t-85 -282t-45 -248t13.5 -73.5q44 0 158.5 125.5t167.5 226.5q22 40 42 41q10 -2 11 -16q0 -84 -111.5 -219t-191.5 -190l-20 -13q-34 -18 -50 -18h-17q-88 15 -90 148q0 66 20 136l22 81q-98 -215 -163.5 -295.5
t-118.5 -80.5q-40 2 -40 72q0 116 82 389q116 385 146 407q6 3 14 3t22 -5z" />
    <glyph glyph-name="uacute" unicode="&#xfa;" horiz-adv-x="639" 
d="M414 953q45 27 143 185q13 15 24 16q27 0 44 -45q6 -18 7 -31q0 -52 -144 -144q-99 -62 -117.5 -62t-35.5 15q-11 11 -10 20t7 11q44 4 82 35zM296 845q41 -15 42 -40q0 -9 -14 -49l-38 -109q-134 -384 -151 -508q74 113 178.5 322.5t126.5 250.5t33.5 70t21.5 32.5
t37 3.5q40 0 40 -37q-3 -19 -42.5 -124.5t-85 -282t-45 -248t13.5 -73.5q44 0 158.5 125.5t167.5 226.5q22 40 42 41q10 -2 11 -16q0 -84 -111.5 -219t-191.5 -190l-20 -13q-34 -18 -50 -18h-17q-88 15 -90 148q0 66 20 136l22 81q-98 -215 -163.5 -295.5t-118.5 -80.5
q-40 2 -40 72q0 116 82 389q116 385 146 407q6 3 14 3t22 -5z" />
    <glyph glyph-name="ucircumflex" unicode="&#xfb;" horiz-adv-x="639" 
d="M503 1022q-66 -50 -143 -124q-23 -20 -30 -20q-20 2 -20 35.5t26.5 59t80 72t79.5 73t45.5 26.5t29.5 -19t10 -28t-7 -58.5t-12 -81t-27.5 -49.5t-36.5 -18q-10 2 -10.5 24t15.5 108zM296 845q41 -15 42 -40q0 -9 -14 -49l-38 -109q-134 -384 -151 -508
q74 113 178.5 322.5t126.5 250.5t33.5 70t21.5 32.5t37 3.5q40 0 40 -37q-3 -19 -42.5 -124.5t-85 -282t-45 -248t13.5 -73.5q44 0 158.5 125.5t167.5 226.5q22 40 42 41q10 -2 11 -16q0 -84 -111.5 -219t-191.5 -190l-20 -13q-34 -18 -50 -18h-17q-88 15 -90 148
q0 66 20 136l22 81q-98 -215 -163.5 -295.5t-118.5 -80.5q-40 2 -40 72q0 116 82 389q116 385 146 407q6 3 14 3t22 -5z" />
    <glyph glyph-name="udieresis" unicode="&#xfc;" horiz-adv-x="639" 
d="M497 908q44 23 76 84q10 18 23 91t20 101.5t35.5 29.5t50.5 -25t22 -42q0 -50 -97 -180q-33 -44 -57 -68q-41 -40 -74 -10q-10 10 1 19zM394 935q18 24 32.5 105.5t21.5 109.5t35.5 28.5t50.5 -25t22 -42.5q0 -42 -97 -180q-26 -36 -48 -56q-26 -24 -40.5 -25.5
t-25.5 8.5q-18 16 -5 24q33 21 54 53zM296 845q41 -15 42 -40q0 -9 -14 -49l-38 -109q-134 -384 -151 -508q74 113 178.5 322.5t126.5 250.5t33.5 70t21.5 32.5t37 3.5q40 0 40 -37q-3 -19 -42.5 -124.5t-85 -282t-45 -248t13.5 -73.5q44 0 158.5 125.5t167.5 226.5
q22 40 42 41q10 -2 11 -16q0 -84 -111.5 -219t-191.5 -190l-20 -13q-34 -18 -50 -18h-17q-88 15 -90 148q0 66 20 136l22 81q-98 -215 -163.5 -295.5t-118.5 -80.5q-40 2 -40 72q0 116 82 389q116 385 146 407q6 3 14 3t22 -5z" />
    <glyph glyph-name="yacute" unicode="&#xfd;" horiz-adv-x="614" 
d="M407 953q45 27 143 185q13 15 24 16q27 0 44 -45q6 -18 7 -31q0 -52 -144 -144q-99 -62 -117.5 -62t-35.5 15q-11 11 -10 20t7 11q44 4 82 35zM539 818q56 0 59 -32q0 -10 -38 -152l-47 -169q-15 -57 -38.5 -188.5t-48.5 -240.5q-100 -434 -211 -609q-33 -52 -82 -100
q-109 -108 -202 -108q-44 0 -44 21q1 8 28 14.5t59 24.5q90 54 137 148q188 321 272 928q-29 -89 -118.5 -232.5t-165.5 -143.5q-41 0 -40 82q3 257 176 725q7 19 13 32q15 32 32.5 32t30.5 -3q52 -11 53 -42q0 -7 -14 -49l-49 -143q-117 -338 -140 -474q68 104 187.5 340
t129.5 255q12 19 18 35l8 21q12 28 35 28z" />
    <glyph glyph-name="thorn" unicode="&#xfe;" horiz-adv-x="693" 
d="M252 206q-3 -27 -2.5 -53.5t22.5 -27.5q48 0 135.5 171t121.5 301q9 36 9 54.5t-17 18.5q-107 0 -191 -184q-61 -136 -78 -280zM217 -61q-65 0 -65 159q0 76 17 164q-75 -211 -177 -387l-19 -32q-42 -63 -102 -111.5t-92 -49.5q-11 2 -11 12q-1 16 29 45
q138 182 475 1007q197 484 197 508q8 28 53 28.5t57.5 -16.5t12.5 -27.5t-5 -19.5q-171 -296 -206 -513q70 43 137.5 43t92.5 -50q10 -21 10 -46q0 -73 -95.5 -295t-199.5 -344q-64 -74 -109 -75z" />
    <glyph glyph-name="ydieresis" unicode="&#xff;" horiz-adv-x="614" 
d="M478 899q44 23 76 84q10 18 23 91t20 101.5t35.5 29.5t50.5 -25t22 -42q0 -50 -97 -180q-33 -44 -57 -68q-41 -40 -74 -10q-10 10 1 19zM375 926q18 24 32.5 105.5t21.5 109.5t35.5 28.5t50.5 -25t22 -42.5q0 -42 -97 -180q-26 -36 -48 -56q-26 -24 -40.5 -25.5
t-25.5 8.5q-18 16 -5 24q33 21 54 53zM539 818q56 0 59 -32q0 -10 -38 -152l-47 -169q-15 -57 -38.5 -188.5t-48.5 -240.5q-100 -434 -211 -609q-33 -52 -82 -100q-109 -108 -202 -108q-44 0 -44 21q1 8 28 14.5t59 24.5q90 54 137 148q188 321 272 928
q-29 -89 -118.5 -232.5t-165.5 -143.5q-41 0 -40 82q3 257 176 725q7 19 13 32q15 32 32.5 32t30.5 -3q52 -11 53 -42q0 -7 -14 -49l-49 -143q-117 -338 -140 -474q68 104 187.5 340t129.5 255q12 19 18 35l8 21q12 28 35 28z" />
    <glyph glyph-name="Amacron" unicode="&#x100;" horiz-adv-x="1309" 
d="M365 1724h608v-145h-608v145zM508 -163q0 -63 -44 -63q-24 0 -43 16q-45 39 -45 121.5t11.5 168.5t69.5 312q-92 -11 -140 -13q-159 -267 -328 -464q-13 -12 -37.5 -11.5t-26.5 16.5q0 17 29 60t34 49l223 350q-153 1 -188 16t-35 48q0 15 22 19q164 16 268 24l223 370
l64 275q8 36 39 36.5t54 -4.5q70 -16 70 -64q0 -7 -33 -154t-113 -440q83 4 220 4q10 -1 23 -19.5t14 -49.5q-1 -21 -83 -23.5t-201 -13.5q-108 -417 -108 -478q2 -16 31 -44q29 -23 30 -44zM402 530l-20 -37l102 7q19 85 28 148q-3 27 -45.5 -25.5t-64.5 -92.5z" />
    <glyph glyph-name="amacron" unicode="&#x101;" horiz-adv-x="1149" 
d="M292 1386h608v-145h-608v145zM527 653q-160 -27 -279 -210q-116 -178 -122 -352q229 302 401 562zM481 738l59 -8q14 0 29.5 16t40 16t39 -13t14.5 -22.5t-10 -31.5t-12 -29q-133 -417 -133 -532q1 -40 18 -41q61 0 191 160q87 107 112.5 157t40.5 53q3 0 5 1
q18 -2 19 -21q0 -36 -83 -162q-177 -270 -306 -270q-93 0 -93 130q0 62 25 154.5t30 115.5q-23 -30 -154 -218t-188 -222q-18 -10 -31 -11q-57 0 -83 45q-12 22 -12.5 63.5t61.5 191.5q100 242 227 373q100 102 194 105z" />
    <glyph glyph-name="Abreve" unicode="&#x102;" horiz-adv-x="1309" 
d="M647 1579q-141 0 -222.5 69t-90.5 206h110q8 -71 50 -100.5t157 -29.5q101 0 150 31.5t57 98.5h113q-13 -131 -99 -203t-225 -72zM508 -163q0 -63 -44 -63q-24 0 -43 16q-45 39 -45 121.5t11.5 168.5t69.5 312q-92 -11 -140 -13q-159 -267 -328 -464q-13 -12 -37.5 -11.5
t-26.5 16.5q0 17 29 60t34 49l223 350q-153 1 -188 16t-35 48q0 15 22 19q164 16 268 24l223 370l64 275q8 36 39 36.5t54 -4.5q70 -16 70 -64q0 -7 -33 -154t-113 -440q83 4 220 4q10 -1 23 -19.5t14 -49.5q-1 -21 -83 -23.5t-201 -13.5q-108 -417 -108 -478q2 -16 31 -44
q29 -23 30 -44zM402 530l-20 -37l102 7q19 85 28 148q-3 27 -45.5 -25.5t-64.5 -92.5z" />
    <glyph glyph-name="abreve" unicode="&#x103;" horiz-adv-x="1149" 
d="M576 1241q-141 0 -222.5 69t-90.5 206h110q8 -71 50 -100.5t157 -29.5q101 0 150 31.5t57 98.5h113q-13 -131 -99 -203t-225 -72zM527 653q-160 -27 -279 -210q-116 -178 -122 -352q229 302 401 562zM481 738l59 -8q14 0 29.5 16t40 16t39 -13t14.5 -22.5t-10 -31.5
t-12 -29q-133 -417 -133 -532q1 -40 18 -41q61 0 191 160q87 107 112.5 157t40.5 53q3 0 5 1q18 -2 19 -21q0 -36 -83 -162q-177 -270 -306 -270q-93 0 -93 130q0 62 25 154.5t30 115.5q-23 -30 -154 -218t-188 -222q-18 -10 -31 -11q-57 0 -83 45q-12 22 -12.5 63.5
t61.5 191.5q100 242 227 373q100 102 194 105z" />
    <glyph glyph-name="Aogonek" unicode="&#x104;" horiz-adv-x="1309" 
d="M1106 -238q0 -46 24.5 -69t67.5 -23q44 0 99 13v-115q-69 -19 -127 -19q-211 0 -211 193q0 139 160 258h127q-70 -66 -105 -120.5t-35 -117.5zM508 -163q0 -63 -44 -63q-24 0 -43 16q-45 39 -45 121.5t11.5 168.5t69.5 312q-92 -11 -140 -13q-159 -267 -328 -464
q-13 -12 -37.5 -11.5t-26.5 16.5q0 17 29 60t34 49l223 350q-153 1 -188 16t-35 48q0 15 22 19q164 16 268 24l223 370l64 275q8 36 39 36.5t54 -4.5q70 -16 70 -64q0 -7 -33 -154t-113 -440q83 4 220 4q10 -1 23 -19.5t14 -49.5q-1 -21 -83 -23.5t-201 -13.5
q-108 -417 -108 -478q2 -16 31 -44q29 -23 30 -44zM402 530l-20 -37l102 7q19 85 28 148q-3 27 -45.5 -25.5t-64.5 -92.5z" />
    <glyph glyph-name="aogonek" unicode="&#x105;" horiz-adv-x="1149" 
d="M839 -238q0 -46 24.5 -69t67.5 -23q44 0 99 13v-115q-69 -19 -127 -19q-211 0 -211 193q0 139 160 258h127q-70 -66 -105 -120.5t-35 -117.5zM527 653q-160 -27 -279 -210q-116 -178 -122 -352q229 302 401 562zM481 738l59 -8q14 0 29.5 16t40 16t39 -13t14.5 -22.5
t-10 -31.5t-12 -29q-133 -417 -133 -532q1 -40 18 -41q61 0 191 160q87 107 112.5 157t40.5 53q3 0 5 1q18 -2 19 -21q0 -36 -83 -162q-177 -270 -306 -270q-93 0 -93 130q0 62 25 154.5t30 115.5q-23 -30 -154 -218t-188 -222q-18 -10 -31 -11q-57 0 -83 45
q-12 22 -12.5 63.5t61.5 191.5q100 242 227 373q100 102 194 105z" />
    <glyph glyph-name="Cacute" unicode="&#x106;" horiz-adv-x="1294" 
d="M467 555q-27 0 -27 23q1 11 18.5 31.5t50.5 87.5q72 147 72 236q0 16 -9 35q-20 42 -50 42q-101 -2 -264 -544q-44 -143 -44 -280q0 -39 17 -80q34 -80 102 -80q119 0 243 96q44 34 130 107t94 73q4 -1 6 -9q-1 -73 -171 -224q-142 -123 -288 -123q-103 0 -162 51
q-79 69 -79 257t93 437.5t247 393.5q35 31 72 32q178 0 178 -115q0 -62 -95.5 -254.5t-133.5 -192.5zM420 1291q45 27 143 185q13 15 24 16q27 0 44 -45q6 -18 7 -31q0 -52 -144 -144q-99 -62 -117.5 -62t-35.5 15q-11 11 -10 20t7 11q44 4 82 35z" />
    <glyph glyph-name="cacute" unicode="&#x107;" horiz-adv-x="983" 
d="M381 787q128 0 128 -83q-4 -43 -69 -181.5t-96 -138.5q-15 3 -19 16q0 8 10 19t24 40q44 88 44 148t-17 84q-27 -1 -63 -55q-65 -101 -112.5 -264t-47.5 -258q0 -19 1 -30q4 -68 57 -68q160 0 433 278q55 55 61 24q0 -17 -20 -50q-52 -86 -161 -181q-161 -141 -276 -141
q-76 1 -122 57q-46 55 -58 111q-29 135 35 273q2 4 20 43q106 235 195 335q20 21 53 22zM228 953q45 27 143 185q13 15 24 16q27 0 44 -45q6 -18 7 -31q0 -52 -144 -144q-99 -62 -117.5 -62t-35.5 15q-11 11 -10 20t7 11q44 4 82 35z" />
    <glyph glyph-name="Ccircumflex" unicode="&#x108;" horiz-adv-x="1294" 
d="M515 1360q-66 -50 -143 -124q-23 -20 -30 -20q-20 2 -20 35.5t26.5 59t80 72t79.5 73t45.5 26.5t29.5 -19t10 -28t-7 -58.5t-12 -81t-27.5 -49.5t-36.5 -18q-10 2 -10.5 24t15.5 108zM467 555q-27 0 -27 23q1 11 18.5 31.5t50.5 87.5q72 147 72 236q0 16 -9 35
q-20 42 -50 42q-101 -2 -264 -544q-44 -143 -44 -280q0 -39 17 -80q34 -80 102 -80q119 0 243 96q44 34 130 107t94 73q4 -1 6 -9q-1 -73 -171 -224q-142 -123 -288 -123q-103 0 -162 51q-79 69 -79 257t93 437.5t247 393.5q35 31 72 32q178 0 178 -115q0 -62 -95.5 -254.5
t-133.5 -192.5z" />
    <glyph glyph-name="ccircumflex" unicode="&#x109;" horiz-adv-x="983" 
d="M306 1022q-66 -50 -143 -124q-23 -20 -30 -20q-20 2 -20 35.5t26.5 59t80 72t79.5 73t45.5 26.5t29.5 -19t10 -28t-7 -58.5t-12 -81t-27.5 -49.5t-36.5 -18q-10 2 -10.5 24t15.5 108zM381 787q128 0 128 -83q-4 -43 -69 -181.5t-96 -138.5q-15 3 -19 16q0 8 10 19t24 40
q44 88 44 148t-17 84q-27 -1 -63 -55q-65 -101 -112.5 -264t-47.5 -258q0 -19 1 -30q4 -68 57 -68q160 0 433 278q55 55 61 24q0 -17 -20 -50q-52 -86 -161 -181q-161 -141 -276 -141q-76 1 -122 57q-46 55 -58 111q-29 135 35 273q2 4 20 43q106 235 195 335q20 21 53 22z
" />
    <glyph glyph-name="Cdotaccent" unicode="&#x10a;" horiz-adv-x="1294" 
d="M690 1733q0 60 30.5 87t75.5 27q42 0 73.5 -27t31.5 -87q0 -59 -31.5 -87t-73.5 -28q-45 0 -75.5 28t-30.5 87zM467 555q-27 0 -27 23q1 11 18.5 31.5t50.5 87.5q72 147 72 236q0 16 -9 35q-20 42 -50 42q-101 -2 -264 -544q-44 -143 -44 -280q0 -39 17 -80
q34 -80 102 -80q119 0 243 96q44 34 130 107t94 73q4 -1 6 -9q-1 -73 -171 -224q-142 -123 -288 -123q-103 0 -162 51q-79 69 -79 257t93 437.5t247 393.5q35 31 72 32q178 0 178 -115q0 -62 -95.5 -254.5t-133.5 -192.5z" />
    <glyph glyph-name="cdotaccent" unicode="&#x10b;" horiz-adv-x="983" 
d="M494 1395q0 60 30.5 87t75.5 27q42 0 73.5 -27t31.5 -87q0 -59 -31.5 -87t-73.5 -28q-45 0 -75.5 28t-30.5 87zM381 787q128 0 128 -83q-4 -43 -69 -181.5t-96 -138.5q-15 3 -19 16q0 8 10 19t24 40q44 88 44 148t-17 84q-27 -1 -63 -55q-65 -101 -112.5 -264t-47.5 -258
q0 -19 1 -30q4 -68 57 -68q160 0 433 278q55 55 61 24q0 -17 -20 -50q-52 -86 -161 -181q-161 -141 -276 -141q-76 1 -122 57q-46 55 -58 111q-29 135 35 273q2 4 20 43q106 235 195 335q20 21 53 22z" />
    <glyph glyph-name="Ccaron" unicode="&#x10c;" horiz-adv-x="1294" 
d="M450 1907h123q114 -74 219 -189q126 126 223 189h127v-27q-205 -205 -256 -301h-184q-60 102 -252 301v27zM467 555q-27 0 -27 23q1 11 18.5 31.5t50.5 87.5q72 147 72 236q0 16 -9 35q-20 42 -50 42q-101 -2 -264 -544q-44 -143 -44 -280q0 -39 17 -80q34 -80 102 -80
q119 0 243 96q44 34 130 107t94 73q4 -1 6 -9q-1 -73 -171 -224q-142 -123 -288 -123q-103 0 -162 51q-79 69 -79 257t93 437.5t247 393.5q35 31 72 32q178 0 178 -115q0 -62 -95.5 -254.5t-133.5 -192.5z" />
    <glyph glyph-name="ccaron" unicode="&#x10d;" horiz-adv-x="983" 
d="M249 1569h123q114 -74 219 -189q126 126 223 189h127v-27q-205 -205 -256 -301h-184q-60 102 -252 301v27zM381 787q128 0 128 -83q-4 -43 -69 -181.5t-96 -138.5q-15 3 -19 16q0 8 10 19t24 40q44 88 44 148t-17 84q-27 -1 -63 -55q-65 -101 -112.5 -264t-47.5 -258
q0 -19 1 -30q4 -68 57 -68q160 0 433 278q55 55 61 24q0 -17 -20 -50q-52 -86 -161 -181q-161 -141 -276 -141q-76 1 -122 57q-46 55 -58 111q-29 135 35 273q2 4 20 43q106 235 195 335q20 21 53 22z" />
    <glyph glyph-name="Dcaron" unicode="&#x10e;" horiz-adv-x="1495" 
d="M348 1907h123q114 -74 219 -189q126 126 223 189h127v-27q-205 -205 -256 -301h-184q-60 102 -252 301v27zM402 952l-45 22q18 113 106 147q28 10 59 10q86 0 151 -65q65 -64 65 -144q1 -104 -44 -240q-108 -323 -382 -628l-69 -73q-39 -35 -53 -37q-43 1 -83 83
q13 37 130.5 416t164.5 509zM491 1019q0 -83 -31.5 -187.5t-45 -149t-77 -232.5t-94.5 -311q77 81 151 194q4 6 7 10q228 353 228 663q0 35 -19 41q-6 1 -12 1q-63 -1 -107 -29z" />
    <glyph glyph-name="dcaron" unicode="&#x10f;" horiz-adv-x="1260" 
d="M1177 1253q23 66 42.5 159t25.5 144h178v-18q-13 -53 -56 -145t-92 -164h-98v24zM982 1310q-186 -306 -379 -881l-41 -116q-107 -295 -108 -388q2 -16 32 -44q29 -23 29 -44q-2 -57 -43 -63q-25 0 -45 18q-40 37 -40 120q0 154 65.5 338.5t77.5 229.5l-103 -135
q-138 -181 -251 -291q-9 -5 -51.5 -40.5t-102.5 -35.5q-17 0 -31 6q-49 20 -49 90q0 36 66 156t226.5 312t219 216t124.5 24q26 18 55 52t69 118l52 110q17 34 60 128.5t68 144.5q103 206 171 206q67 -1 69 -66q0 -49 -41 -107t-99 -58zM490 619q10 30 10 40.5t-4 12.5
q-7 0 -62 -53q-218 -204 -356 -441q-32 -56 -32 -71t7 -17q9 0 28 13q71 48 218 219t191 297z" />
    <glyph glyph-name="Dcroat" unicode="&#x110;" horiz-adv-x="1495" 
d="M410 952l-45 22q18 113 106 147q28 10 59 10q86 0 152 -64q65 -65 65 -145q0 -104 -45 -240q-108 -323 -382 -628l-69 -73q-39 -35 -53 -37q-43 1 -83 83q13 37 79 249l94 304q-26 -2 -77.5 -2t-73.5 5q-26 16 -27 45q2 13 11 16q111 15 194 23q64 202 95 285zM513 625
q-1 -18 -35.5 -19.5t-82.5 -6.5q-115 -343 -144 -460q77 81 152 194q234 351 234 673q0 35 -19 41q-6 1 -12 1q-63 -1 -107 -29q0 -83 -31.5 -187.5t-37.5 -127.5l-9 -29q52 2 74 2q14 -9 18 -52z" />
    <glyph glyph-name="dcroat" unicode="&#x111;" horiz-adv-x="1264" 
d="M563 -20q-214 0 -332 147t-118 416q0 271 117.5 420t332.5 149q223 0 342 -162h13q-3 14 -8 69t-5 95v125h-436v135h436v182h180v-182h156v-135h-156v-1239h-147l-27 147h-8q-115 -167 -340 -167zM594 129q163 0 238 88.5t75 290.5v35q0 230 -76 325t-241 95
q-140 0 -214.5 -107t-74.5 -315q0 -197 72 -304.5t221 -107.5z" />
    <glyph glyph-name="Emacron" unicode="&#x112;" horiz-adv-x="1139" 
d="M303 1724h608v-145h-608v145zM335 -24l-284 -8q-16 1 -17 7q1 21 17 48q31 145 228 750q-38 -2 -48 -2q-2 2 -2 5q0 44 21 66.5t35.5 23t24.5 0.5l59 176q7 62 39 84q11 7 81 7t288 -7q25 -1 36 -43q3 -10 3 -18q0 -19 -50 -20q-23 0 -47 0.5t-73 0.5t-167 -4l-56 -177
q101 -2 212 -6q25 -1 36 -45q3 -11 3 -18q-4 -19 -39 -19l-104 2q-62 0 -137 -2l-241 -714q57 -1 128 -2t165 -4q39 -1 39 -64q-2 -18 -38.5 -17.5t-66.5 0.5h-45z" />
    <glyph glyph-name="emacron" unicode="&#x113;" horiz-adv-x="1155" 
d="M307 1386h608v-145h-608v145zM250 490q20 3 86 86t66 130q0 7 -5 16q-20 -20 -83.5 -114t-63.5 -118zM648 341q50 54 56 19q0 -13 -16 -43q-49 -91 -150 -193q-160 -162 -283 -162q-58 0 -99 33q-77 63 -77 219q0 89 54.5 250.5t167.5 292.5q50 64 104 64q26 0 54 -11
q66 -27 66 -87q0 -9 -6 -29q-41 -81 -132 -187t-185 -169q-32 -116 -32 -181t3 -83q9 -42 67 -42t134 53.5t162 141.5t97.5 99t14.5 15z" />
    <glyph glyph-name="Ebreve" unicode="&#x114;" horiz-adv-x="1139" 
d="M612 1579q-141 0 -222.5 69t-90.5 206h110q8 -71 50 -100.5t157 -29.5q101 0 150 31.5t57 98.5h113q-13 -131 -99 -203t-225 -72zM335 -24l-284 -8q-16 1 -17 7q1 21 17 48q31 145 228 750q-38 -2 -48 -2q-2 2 -2 5q0 44 21 66.5t35.5 23t24.5 0.5l59 176q7 62 39 84
q11 7 81 7t288 -7q25 -1 36 -43q3 -10 3 -18q0 -19 -50 -20q-23 0 -47 0.5t-73 0.5t-167 -4l-56 -177q101 -2 212 -6q25 -1 36 -45q3 -11 3 -18q-4 -19 -39 -19l-104 2q-62 0 -137 -2l-241 -714q57 -1 128 -2t165 -4q39 -1 39 -64q-2 -18 -38.5 -17.5t-66.5 0.5h-45z" />
    <glyph glyph-name="ebreve" unicode="&#x115;" horiz-adv-x="1155" 
d="M597 1241q-141 0 -222.5 69t-90.5 206h110q8 -71 50 -100.5t157 -29.5q101 0 150 31.5t57 98.5h113q-13 -131 -99 -203t-225 -72zM250 490q20 3 86 86t66 130q0 7 -5 16q-20 -20 -83.5 -114t-63.5 -118zM648 341q50 54 56 19q0 -13 -16 -43q-49 -91 -150 -193
q-160 -162 -283 -162q-58 0 -99 33q-77 63 -77 219q0 89 54.5 250.5t167.5 292.5q50 64 104 64q26 0 54 -11q66 -27 66 -87q0 -9 -6 -29q-41 -81 -132 -187t-185 -169q-32 -116 -32 -181t3 -83q9 -42 67 -42t134 53.5t162 141.5t97.5 99t14.5 15z" />
    <glyph glyph-name="Edotaccent" unicode="&#x116;" horiz-adv-x="1139" 
d="M518 1704q0 60 30.5 87t75.5 27q42 0 73.5 -27t31.5 -87q0 -59 -31.5 -87t-73.5 -28q-45 0 -75.5 28t-30.5 87zM335 -24l-284 -8q-16 1 -17 7q1 21 17 48q31 145 228 750q-38 -2 -48 -2q-2 2 -2 5q0 44 21 66.5t35.5 23t24.5 0.5l59 176q7 62 39 84q11 7 81 7t288 -7
q25 -1 36 -43q3 -10 3 -18q0 -19 -50 -20q-23 0 -47 0.5t-73 0.5t-167 -4l-56 -177q101 -2 212 -6q25 -1 36 -45q3 -11 3 -18q-4 -19 -39 -19l-104 2q-62 0 -137 -2l-241 -714q57 -1 128 -2t165 -4q39 -1 39 -64q-2 -18 -38.5 -17.5t-66.5 0.5h-45z" />
    <glyph glyph-name="edotaccent" unicode="&#x117;" horiz-adv-x="1155" 
d="M498 1395q0 60 30.5 87t75.5 27q42 0 73.5 -27t31.5 -87q0 -59 -31.5 -87t-73.5 -28q-45 0 -75.5 28t-30.5 87zM250 490q20 3 86 86t66 130q0 7 -5 16q-20 -20 -83.5 -114t-63.5 -118zM648 341q50 54 56 19q0 -13 -16 -43q-49 -91 -150 -193q-160 -162 -283 -162
q-58 0 -99 33q-77 63 -77 219q0 89 54.5 250.5t167.5 292.5q50 64 104 64q26 0 54 -11q66 -27 66 -87q0 -9 -6 -29q-41 -81 -132 -187t-185 -169q-32 -116 -32 -181t3 -83q9 -42 67 -42t134 53.5t162 141.5t97.5 99t14.5 15z" />
    <glyph glyph-name="Eogonek" unicode="&#x118;" horiz-adv-x="1139" 
d="M803 -238q0 -46 24.5 -69t67.5 -23q44 0 99 13v-115q-69 -19 -127 -19q-211 0 -211 193q0 139 160 258h127q-70 -66 -105 -120.5t-35 -117.5zM335 -24l-284 -8q-16 1 -17 7q1 21 17 48q31 145 228 750q-38 -2 -48 -2q-2 2 -2 5q0 44 21 66.5t35.5 23t24.5 0.5l59 176
q7 62 39 84q11 7 81 7t288 -7q25 -1 36 -43q3 -10 3 -18q0 -19 -50 -20q-23 0 -47 0.5t-73 0.5t-167 -4l-56 -177q101 -2 212 -6q25 -1 36 -45q3 -11 3 -18q-4 -19 -39 -19l-104 2q-62 0 -137 -2l-241 -714q57 -1 128 -2t165 -4q39 -1 39 -64q-2 -18 -38.5 -17.5t-66.5 0.5
h-45z" />
    <glyph glyph-name="eogonek" unicode="&#x119;" horiz-adv-x="1155" 
d="M792 -209q0 -46 24.5 -69t67.5 -23q44 0 99 13v-115q-69 -19 -127 -19q-211 0 -211 193q0 139 160 258h127q-70 -66 -105 -120.5t-35 -117.5zM250 490q20 3 86 86t66 130q0 7 -5 16q-20 -20 -83.5 -114t-63.5 -118zM648 341q50 54 56 19q0 -13 -16 -43q-49 -91 -150 -193
q-160 -162 -283 -162q-58 0 -99 33q-77 63 -77 219q0 89 54.5 250.5t167.5 292.5q50 64 104 64q26 0 54 -11q66 -27 66 -87q0 -9 -6 -29q-41 -81 -132 -187t-185 -169q-32 -116 -32 -181t3 -83q9 -42 67 -42t134 53.5t162 141.5t97.5 99t14.5 15z" />
    <glyph glyph-name="Ecaron" unicode="&#x11a;" horiz-adv-x="1139" 
d="M272 1907h123q114 -74 219 -189q126 126 223 189h127v-27q-205 -205 -256 -301h-184q-60 102 -252 301v27zM335 -24l-284 -8q-16 1 -17 7q1 21 17 48q31 145 228 750q-38 -2 -48 -2q-2 2 -2 5q0 44 21 66.5t35.5 23t24.5 0.5l59 176q7 62 39 84q11 7 81 7t288 -7
q25 -1 36 -43q3 -10 3 -18q0 -19 -50 -20q-23 0 -47 0.5t-73 0.5t-167 -4l-56 -177q101 -2 212 -6q25 -1 36 -45q3 -11 3 -18q-4 -19 -39 -19l-104 2q-62 0 -137 -2l-241 -714q57 -1 128 -2t165 -4q39 -1 39 -64q-2 -18 -38.5 -17.5t-66.5 0.5h-45z" />
    <glyph glyph-name="ecaron" unicode="&#x11b;" horiz-adv-x="1155" 
d="M257 1569h123q114 -74 219 -189q126 126 223 189h127v-27q-205 -205 -256 -301h-184q-60 102 -252 301v27zM250 490q20 3 86 86t66 130q0 7 -5 16q-20 -20 -83.5 -114t-63.5 -118zM648 341q50 54 56 19q0 -13 -16 -43q-49 -91 -150 -193q-160 -162 -283 -162
q-58 0 -99 33q-77 63 -77 219q0 89 54.5 250.5t167.5 292.5q50 64 104 64q26 0 54 -11q66 -27 66 -87q0 -9 -6 -29q-41 -81 -132 -187t-185 -169q-32 -116 -32 -181t3 -83q9 -42 67 -42t134 53.5t162 141.5t97.5 99t14.5 15z" />
    <glyph glyph-name="Gcircumflex" unicode="&#x11c;" horiz-adv-x="1491" 
d="M573 1360q-66 -50 -143 -124q-23 -20 -30 -20q-20 2 -20 35.5t26.5 59t80 72t79.5 73t45.5 26.5t29.5 -19t10 -28t-7 -58.5t-12 -81t-27.5 -49.5t-36.5 -18q-10 2 -10.5 24t15.5 108zM568 882q-16 0 -26 20q0 63 -14.5 97t-25.5 35q-80 0 -173 -308q-72 -238 -103 -467
q-8 -60 -8 -96t15 -38q51 3 129 164t110 313q8 40 9 68q-14 0 -22 4q-27 14 -29 44q2 14 11 16q267 36 389 36q15 -8 19 -53q-1 -17 -27 -18q-64 -3 -127 -14t-70 -12q-24 -99 -25 -111t-8 -46q-157 -804 -359 -1087q-69 -96 -150 -145t-127 -49q-60 0 -60 23q0 7 13.5 10
t13.5 4q77 12 152 92q19 21 33 41q168 234 322 762q20 67 29 105q-127 -314 -255 -314q-100 0 -100 131t90 456.5t169 497.5q31 67 54.5 95.5t66.5 29.5q93 0 108 -131q4 -34 2 -94t-26 -61z" />
    <glyph glyph-name="gcircumflex" unicode="&#x11d;" horiz-adv-x="1260" 
d="M335 1022q-66 -50 -143 -124q-23 -20 -30 -20q-20 2 -20 35.5t26.5 59t80 72t79.5 73t45.5 26.5t29.5 -19t10 -28t-7 -58.5t-12 -81t-27.5 -49.5t-36.5 -18q-10 2 -10.5 24t15.5 108zM675 611q-15 34 -39 34q-7 0 -11 -2q-87 -34 -241.5 -137t-159.5 -149q1 -9 12 -11
q30 0 114.5 48.5t92.5 52.5q8 3 28 15l29 17q167 93 175 132zM492 269v3q8 50 8 54q-1 16 -29 16.5t-61.5 -14.5t-147.5 -79.5t-190 -64.5q-24 0 -59 22q-68 44 -3 123q50 57 169 145l182 136q195 144 256 143t120 -71q-25 -14 -33 -72q1 1 12 1t21.5 -5.5t10.5 -46
t-8 -41.5q-14 0 -57 -38.5t-64 -71.5q-19 -155 -66 -364q-100 -443 -212 -618q-34 -52 -83 -101q-110 -106 -202 -106q-44 0 -44 21q1 8 28.5 14.5t61.5 26.5q71 43 116 115q83 132 142.5 323t131.5 550z" />
    <glyph glyph-name="Gbreve" unicode="&#x11e;" horiz-adv-x="1491" 
d="M848 1579q-141 0 -222.5 69t-90.5 206h110q8 -71 50 -100.5t157 -29.5q101 0 150 31.5t57 98.5h113q-13 -131 -99 -203t-225 -72zM568 882q-16 0 -26 20q0 63 -14.5 97t-25.5 35q-80 0 -173 -308q-72 -238 -103 -467q-8 -60 -8 -96t15 -38q51 3 129 164t110 313
q8 40 9 68q-14 0 -22 4q-27 14 -29 44q2 14 11 16q267 36 389 36q15 -8 19 -53q-1 -17 -27 -18q-64 -3 -127 -14t-70 -12q-24 -99 -25 -111t-8 -46q-157 -804 -359 -1087q-69 -96 -150 -145t-127 -49q-60 0 -60 23q0 7 13.5 10t13.5 4q77 12 152 92q19 21 33 41
q168 234 322 762q20 67 29 105q-127 -314 -255 -314q-100 0 -100 131t90 456.5t169 497.5q31 67 54.5 95.5t66.5 29.5q93 0 108 -131q4 -34 2 -94t-26 -61z" />
    <glyph glyph-name="gbreve" unicode="&#x11f;" horiz-adv-x="1260" 
d="M614 1241q-141 0 -222.5 69t-90.5 206h110q8 -71 50 -100.5t157 -29.5q101 0 150 31.5t57 98.5h113q-13 -131 -99 -203t-225 -72zM675 611q-15 34 -39 34q-7 0 -11 -2q-87 -34 -241.5 -137t-159.5 -149q1 -9 12 -11q30 0 114.5 48.5t92.5 52.5q8 3 28 15l29 17
q167 93 175 132zM492 269v3q8 50 8 54q-1 16 -29 16.5t-61.5 -14.5t-147.5 -79.5t-190 -64.5q-24 0 -59 22q-68 44 -3 123q50 57 169 145l182 136q195 144 256 143t120 -71q-25 -14 -33 -72q1 1 12 1t21.5 -5.5t10.5 -46t-8 -41.5q-14 0 -57 -38.5t-64 -71.5
q-19 -155 -66 -364q-100 -443 -212 -618q-34 -52 -83 -101q-110 -106 -202 -106q-44 0 -44 21q1 8 28.5 14.5t61.5 26.5q71 43 116 115q83 132 142.5 323t131.5 550z" />
    <glyph glyph-name="Gdotaccent" unicode="&#x120;" horiz-adv-x="1491" 
d="M760 1733q0 60 30.5 87t75.5 27q42 0 73.5 -27t31.5 -87q0 -59 -31.5 -87t-73.5 -28q-45 0 -75.5 28t-30.5 87zM568 882q-16 0 -26 20q0 63 -14.5 97t-25.5 35q-80 0 -173 -308q-72 -238 -103 -467q-8 -60 -8 -96t15 -38q51 3 129 164t110 313q8 40 9 68q-14 0 -22 4
q-27 14 -29 44q2 14 11 16q267 36 389 36q15 -8 19 -53q-1 -17 -27 -18q-64 -3 -127 -14t-70 -12q-24 -99 -25 -111t-8 -46q-157 -804 -359 -1087q-69 -96 -150 -145t-127 -49q-60 0 -60 23q0 7 13.5 10t13.5 4q77 12 152 92q19 21 33 41q168 234 322 762q20 67 29 105
q-127 -314 -255 -314q-100 0 -100 131t90 456.5t169 497.5q31 67 54.5 95.5t66.5 29.5q93 0 108 -131q4 -34 2 -94t-26 -61z" />
    <glyph glyph-name="gdotaccent" unicode="&#x121;" horiz-adv-x="1260" 
d="M506 1395q0 60 30.5 87t75.5 27q42 0 73.5 -27t31.5 -87q0 -59 -31.5 -87t-73.5 -28q-45 0 -75.5 28t-30.5 87zM675 611q-15 34 -39 34q-7 0 -11 -2q-87 -34 -241.5 -137t-159.5 -149q1 -9 12 -11q30 0 114.5 48.5t92.5 52.5q8 3 28 15l29 17q167 93 175 132zM492 269v3
q8 50 8 54q-1 16 -29 16.5t-61.5 -14.5t-147.5 -79.5t-190 -64.5q-24 0 -59 22q-68 44 -3 123q50 57 169 145l182 136q195 144 256 143t120 -71q-25 -14 -33 -72q1 1 12 1t21.5 -5.5t10.5 -46t-8 -41.5q-14 0 -57 -38.5t-64 -71.5q-19 -155 -66 -364q-100 -443 -212 -618
q-34 -52 -83 -101q-110 -106 -202 -106q-44 0 -44 21q1 8 28.5 14.5t61.5 26.5q71 43 116 115q83 132 142.5 323t131.5 550z" />
    <glyph glyph-name="uni0122" unicode="&#x122;" horiz-adv-x="1491" 
d="M660 -428q22 51 49 144t35 159h178v-18q-16 -63 -64.5 -156.5t-99.5 -153.5h-98v25zM568 882q-16 0 -26 20q0 63 -14.5 97t-25.5 35q-80 0 -173 -308q-72 -238 -103 -467q-8 -60 -8 -96t15 -38q51 3 129 164t110 313q8 40 9 68q-14 0 -22 4q-27 14 -29 44q2 14 11 16
q267 36 389 36q15 -8 19 -53q-1 -17 -27 -18q-64 -3 -127 -14t-70 -12q-24 -99 -25 -111t-8 -46q-157 -804 -359 -1087q-69 -96 -150 -145t-127 -49q-60 0 -60 23q0 7 13.5 10t13.5 4q77 12 152 92q19 21 33 41q168 234 322 762q20 67 29 105q-127 -314 -255 -314
q-100 0 -100 131t90 456.5t169 497.5q31 67 54.5 95.5t66.5 29.5q93 0 108 -131q4 -34 2 -94t-26 -61z" />
    <glyph glyph-name="uni0123" unicode="&#x123;" horiz-adv-x="1260" 
d="M776 1544q-27 -59 -53 -152t-33 -151h-178v19q15 56 64.5 152t99.5 157h100v-25zM675 611q-15 34 -39 34q-7 0 -11 -2q-87 -34 -241.5 -137t-159.5 -149q1 -9 12 -11q30 0 114.5 48.5t92.5 52.5q8 3 28 15l29 17q167 93 175 132zM492 269v3q8 50 8 54q-1 16 -29 16.5
t-61.5 -14.5t-147.5 -79.5t-190 -64.5q-24 0 -59 22q-68 44 -3 123q50 57 169 145l182 136q195 144 256 143t120 -71q-25 -14 -33 -72q1 1 12 1t21.5 -5.5t10.5 -46t-8 -41.5q-14 0 -57 -38.5t-64 -71.5q-19 -155 -66 -364q-100 -443 -212 -618q-34 -52 -83 -101
q-110 -106 -202 -106q-44 0 -44 21q1 8 28.5 14.5t61.5 26.5q71 43 116 115q83 132 142.5 323t131.5 550z" />
    <glyph glyph-name="Hcircumflex" unicode="&#x124;" horiz-adv-x="1518" 
d="M475 1360q-66 -50 -143 -124q-23 -20 -30 -20q-20 2 -20 35.5t26.5 59t80 72t79.5 73t45.5 26.5t29.5 -19t10 -28t-7 -58.5t-12 -81t-27.5 -49.5t-36.5 -18q-10 2 -10.5 24t15.5 108zM803 1208l-134 -524h49q35 1 53 1q23 0 34 -49q2 -12 2 -20q-1 -22 -51 -22.5
t-113 -4.5l-42 -154q-90 -313 -89.5 -518.5t87.5 -282.5q17 -12 18 -20q-2 -10 -17 -10.5t-31 9.5q-86 47 -128 201q-21 78 -21 149q0 184 87 522l24 95l-164 -18q-119 -476 -146 -543t-51 -111t-78.5 -92t-78.5 -47t-25 10q0 9 12 27q134 204 217 586l40 163h-3
q-206 0 -239.5 6t-45.5 25.5t-13 32.5q0 15 19 18q3 0 4 1l305 27l101 410q4 15 10.5 49t21.5 46t64 12q29 -2 30 -27q0 -11 -1 -17l-116 -465q112 6 164 8l120 465q4 15 9.5 49.5t21 46t65.5 11.5q29 -2 30 -29q0 -10 -1 -16z" />
    <glyph glyph-name="hcircumflex" unicode="&#x125;" horiz-adv-x="1266" 
d="M358 1415q-66 -50 -143 -124q-23 -20 -30 -20q-20 2 -20 35.5t26.5 59t80 72t79.5 73t45.5 26.5t29.5 -19t10 -28t-7 -58.5t-12 -81t-27.5 -49.5t-36.5 -18q-10 2 -10.5 24t15.5 108zM288 594q1 1 38 46q37 44 52 60l19 20q20 19 60 18.5t42 -40.5q0 -11 -14 -49
t-38 -142q-60 -252 -60 -408q0 -63 18 -65q31 0 96 79q59 71 186 326q19 33 44 33q13 -3 15 -22q0 -50 -27 -118q-51 -131 -153.5 -246t-168.5 -115q-97 1 -99 159q0 130 43 369q-64 -21 -115 -101q-50 -80 -104 -232q-56 -157 -77 -177q-24 -18 -53.5 -17.5t-30.5 21.5
t103 299t235.5 574t150.5 388q7 28 52 29q15 0 30 -4q42 -11 42 -39q0 -10 -6 -22l-14 -24q-76 -135 -266 -600z" />
    <glyph glyph-name="Hbar" unicode="&#x126;" horiz-adv-x="1518" 
d="M199 1219v243h184v-243h750v243h184v-243h199v-148h-199v-1071h-184v682h-750v-682h-184v1071h-199v148h199zM1133 844v227h-750v-227h750z" />
    <glyph glyph-name="hbar" unicode="&#x127;" horiz-adv-x="1266" 
d="M922 0v662q0 133 -59.5 198.5t-186.5 65.5q-169 0 -245.5 -92.5t-76.5 -305.5v-528h-180v1237h-156v135h156v184h180v-184h434v-135h-434v-178q0 -88 -10 -152h12q53 85 144.5 127.5t199.5 42.5q199 0 299.5 -96.5t100.5 -306.5v-674h-178z" />
    <glyph glyph-name="Itilde" unicode="&#x128;" horiz-adv-x="694" 
d="M48 1321q33 43 54 113q25 83 59.5 83t57.5 -28.5t23 -46t-10 -42.5q-44 -104 -159 -159q-77 -36 -161.5 -36t-85.5 29q2 13 38 13q127 0 184 74zM379 1075q4 15 10.5 49t21.5 46t54.5 11t40 -19t-112 -473t-151 -582t-70.5 -185t-86.5 -106t-78.5 -47t-25 10q0 9 12 27
q115 175 204 533z" />
    <glyph glyph-name="itilde" unicode="&#x129;" horiz-adv-x="528" 
d="M-34 983q33 43 54 113q25 83 59.5 83t57.5 -28.5t23 -46t-10 -42.5q-44 -104 -159 -159q-77 -36 -161.5 -36t-85.5 29q2 13 38 13q127 0 184 74zM597 294q-37 -104 -147 -212q-130 -128 -218 -128q-119 0 -149 135q-9 41 -9 89q0 155 60 359q75 258 141 258
q33 0 48.5 -15.5t15.5 -22.5q0 -32 -65 -157.5t-80.5 -182t-23 -147t-7.5 -116.5q0 -88 21.5 -110t52.5 -23q88 0 210 153q59 75 92 138q15 24 31 24q27 -4 30 -27q0 -3 -3 -15z" />
    <glyph glyph-name="Imacron" unicode="&#x12a;" horiz-adv-x="694" 
d="M44 1724h608v-145h-608v145zM379 1075q4 15 10.5 49t21.5 46t54.5 11t40 -19t-112 -473t-151 -582t-70.5 -185t-86.5 -106t-78.5 -47t-25 10q0 9 12 27q115 175 204 533z" />
    <glyph glyph-name="imacron" unicode="&#x12b;" horiz-adv-x="528" 
d="M-36 1386h608v-145h-608v145zM597 294q-37 -104 -147 -212q-130 -128 -218 -128q-119 0 -149 135q-9 41 -9 89q0 155 60 359q75 258 141 258q33 0 48.5 -15.5t15.5 -22.5q0 -32 -65 -157.5t-80.5 -182t-23 -147t-7.5 -116.5q0 -88 21.5 -110t52.5 -23q88 0 210 153
q59 75 92 138q15 24 31 24q27 -4 30 -27q0 -3 -3 -15z" />
    <glyph glyph-name="Ibreve" unicode="&#x12c;" horiz-adv-x="694" 
d="M343 1579q-141 0 -222.5 69t-90.5 206h110q8 -71 50 -100.5t157 -29.5q101 0 150 31.5t57 98.5h113q-13 -131 -99 -203t-225 -72zM379 1075q4 15 10.5 49t21.5 46t54.5 11t40 -19t-112 -473t-151 -582t-70.5 -185t-86.5 -106t-78.5 -47t-25 10q0 9 12 27q115 175 204 533
z" />
    <glyph glyph-name="ibreve" unicode="&#x12d;" horiz-adv-x="528" 
d="M259 1241q-141 0 -222.5 69t-90.5 206h110q8 -71 50 -100.5t157 -29.5q101 0 150 31.5t57 98.5h113q-13 -131 -99 -203t-225 -72zM597 294q-37 -104 -147 -212q-130 -128 -218 -128q-119 0 -149 135q-9 41 -9 89q0 155 60 359q75 258 141 258q33 0 48.5 -15.5t15.5 -22.5
q0 -32 -65 -157.5t-80.5 -182t-23 -147t-7.5 -116.5q0 -88 21.5 -110t52.5 -23q88 0 210 153q59 75 92 138q15 24 31 24q27 -4 30 -27q0 -3 -3 -15z" />
    <glyph glyph-name="Iogonek" unicode="&#x12e;" horiz-adv-x="694" 
d="M327 -238q0 -46 24.5 -69t67.5 -23q44 0 99 13v-115q-69 -19 -127 -19q-211 0 -211 193q0 139 160 258h127q-70 -66 -105 -120.5t-35 -117.5zM379 1075q4 15 10.5 49t21.5 46t54.5 11t40 -19t-112 -473t-151 -582t-70.5 -185t-86.5 -106t-78.5 -47t-25 10q0 9 12 27
q115 175 204 533z" />
    <glyph glyph-name="iogonek" unicode="&#x12f;" horiz-adv-x="528" 
d="M198 -238q0 -46 24.5 -69t67.5 -23q44 0 99 13v-115q-69 -19 -127 -19q-211 0 -211 193q0 139 160 258h127q-70 -66 -105 -120.5t-35 -117.5zM369 922q-5 2 -25 16q-24 17 -24 25q0 27 75 127t85 120q25 25 69 -25q35 -42 22 -68q-7 -26 -85 -110t-117 -85zM608 294
q-37 -104 -147 -212q-130 -128 -218 -128q-119 0 -149 135q-9 41 -9 89q-1 155 59 359q75 258 142 258q33 0 48.5 -15.5t15.5 -22.5q0 -32 -65 -157.5t-80.5 -182t-23 -147t-7.5 -116.5q0 -88 21.5 -110t52.5 -23q88 0 210 153q59 75 92 138q15 24 31 24q27 -4 30 -27
q0 -3 -3 -15z" />
    <glyph glyph-name="Idotaccent" unicode="&#x130;" horiz-adv-x="694" 
d="M240 1733q0 60 30.5 87t75.5 27q42 0 73.5 -27t31.5 -87q0 -59 -31.5 -87t-73.5 -28q-45 0 -75.5 28t-30.5 87zM379 1075q4 15 10.5 49t21.5 46t54.5 11t40 -19t-112 -473t-151 -582t-70.5 -185t-86.5 -106t-78.5 -47t-25 10q0 9 12 27q115 175 204 533z" />
    <glyph glyph-name="dotlessi" unicode="&#x131;" horiz-adv-x="469" 
d="M597 294q-37 -104 -147 -212q-130 -128 -218 -128q-119 0 -149 135q-9 41 -9 89q0 155 60 359q75 258 141 258q33 0 48.5 -15.5t15.5 -22.5q0 -32 -65 -157.5t-80.5 -182t-23 -147t-7.5 -116.5q0 -88 21.5 -110t52.5 -23q88 0 210 153q59 75 92 138q15 24 31 24
q27 -4 30 -27q0 -3 -3 -15z" />
    <glyph glyph-name="IJ" unicode="&#x132;" horiz-adv-x="1253" 
d="M379 1075q4 15 10.5 49t21.5 46t54.5 11t40 -19t-112 -473t-151 -582t-70.5 -185t-86.5 -106t-78.5 -47t-25 10q0 9 12 27q115 175 204 533zM892 -168q-135 -411 -297 -550q-73 -64 -123 -64q-56 -1 -57 27q0 8 13.5 12t13.5 5q72 24 141 117q24 33 41 66
q107 219 188 497t208 872q6 27 22.5 113t26 124.5t14.5 72.5t20.5 46t66.5 12q29 -2 30 -27q0 -11 -24.5 -110.5t-116.5 -544t-167 -668.5z" />
    <glyph glyph-name="ij" unicode="&#x133;" horiz-adv-x="1053" 
d="M369 922q-5 2 -25 16q-24 17 -24 25q0 27 75 127t85 120q25 25 69 -25q35 -42 22 -68q-7 -26 -85 -110t-117 -85zM608 294q-37 -104 -147 -212q-130 -128 -218 -128q-119 0 -149 135q-9 41 -9 89q-1 155 59 359q75 258 142 258q33 0 48.5 -15.5t15.5 -22.5
q0 -32 -65 -157.5t-80.5 -182t-23 -147t-7.5 -116.5q0 -88 21.5 -110t52.5 -23q88 0 210 153q59 75 92 138q15 24 31 24q27 -4 30 -27q0 -3 -3 -15zM836 765q0 -14 -47 -202l-145 -583q-98 -395 -198 -553q-34 -53 -84 -102q-109 -106 -201 -106q-43 0 -43 21q1 8 27.5 14
t58.5 25q71 42 118 118q130 209 212 582q57 262 116 489t65.5 260.5t12.5 42.5q15 23 78 23q28 -1 30 -29zM831 918q-5 1 -25 15q-24 17 -24 27q0 27 74.5 127t85.5 119q6 7 23 7.5t43 -29.5q33 -39 25.5 -67.5t-85.5 -113t-117 -85.5z" />
    <glyph glyph-name="Jcircumflex" unicode="&#x134;" horiz-adv-x="559" 
d="M2 1360q-66 -50 -143 -124q-23 -20 -30 -20q-20 2 -20 35.5t26.5 59t80 72t79.5 73t45.5 26.5t29.5 -19t10 -28t-7 -58.5t-12 -81t-27.5 -49.5t-36.5 -18q-10 2 -10.5 24t15.5 108zM198 -168q-135 -411 -297 -550q-73 -64 -123 -64q-56 -1 -57 27q0 8 13.5 12t13.5 5
q72 24 141 117q24 33 41 66q107 219 188 497t208 872q6 27 22.5 113t26 124.5t14.5 72.5t20.5 46t66.5 12q29 -2 30 -27q0 -11 -24.5 -110.5t-116.5 -544t-167 -668.5z" />
    <glyph glyph-name="jcircumflex" unicode="&#x135;" horiz-adv-x="528" 
d="M-22 1022q-66 -50 -143 -124q-23 -20 -30 -20q-20 2 -20 35.5t26.5 59t80 72t79.5 73t45.5 26.5t29.5 -19t10 -28t-7 -58.5t-12 -81t-27.5 -49.5t-36.5 -18q-10 2 -10.5 24t15.5 108zM45 -492q-94 0 -158 25v145q69 -20 136 -20q78 0 114.5 42.5t36.5 129.5v1268h180
v-1262q0 -164 -78.5 -246t-230.5 -82z" />
    <glyph glyph-name="uni0136" unicode="&#x136;" horiz-adv-x="1268" 
d="M504 -428q22 51 49 144t35 159h178v-18q-16 -63 -64.5 -156.5t-99.5 -153.5h-98v25zM508 1186q10 -2 10.5 -14t-113.5 -414l309 365q9 11 26.5 11t32 -17t13.5 -33q0 -18 -80 -110l-166 -201q52 -460 80.5 -567.5t59 -179.5t93.5 -121q27 -21 52 -29.5t26 -17.5
q-1 -13 -36 -13q-106 0 -198 134q-48 71 -84 186t-56.5 269.5t-28.5 220.5l-109 -142q-16 -60 -70 -249.5t-64 -227.5l-14 -53q-8 -31 -16 -31q-28 0 -45 32t-18 46q0 76 210 824l75 263q8 24 31 38q56 31 80 31z" />
    <glyph glyph-name="uni0137" unicode="&#x137;" horiz-adv-x="1094" 
d="M416 -428q22 51 49 144t35 159h178v-18q-16 -63 -64.5 -156.5t-99.5 -153.5h-98v25zM541 1210q43 -30 43.5 -71.5t-29.5 -64.5q-72 -52 -110 -102t-66.5 -154.5t-55.5 -167.5q9 8 62 20t87 12q103 0 102 -61q-1 -50 -75 -136t-221 -179q-6 -37 -6 -143.5t18 -201.5
q37 -204 120 -204q22 1 52 23t38.5 22t24 -9t15.5 -29q-2 -68 -108.5 -67.5t-166.5 88.5q-73 108 -95 373q-7 90 -12 90q-5 -11 -40 -115t-65 -104q-4 0 -12 3q-35 14 -35 37.5t15 61t22 59.5t58 153q263 680 398 862q17 17 42 5zM453 574q0 11 -15.5 11.5t-69.5 -20.5
t-99 -63q-22 -21 -23 -65q3 -23 24 -29q25 1 104.5 69.5t78.5 96.5z" />
    <glyph glyph-name="kgreenlandic" unicode="&#x138;" horiz-adv-x="1094" 
d="M825 1098h217l-415 -486l448 -612h-215l-360 496l-135 -111v-385h-191v1098h191v-285q0 -139 -13 -276l84 102z" />
    <glyph glyph-name="Lacute" unicode="&#x139;" horiz-adv-x="1073" 
d="M389 1125q63 98 143.5 153t132.5 55t52 -21q0 -8 -24 -14h-2q-193 -44 -303 -383q-24 -76 -110.5 -437.5t-93.5 -386.5l-10 -37q213 8 418 8q32 0 49 -41q5 -13 5 -23q-1 -20 -98.5 -21t-281.5 -13t-189 -12q-36 0 -36 25t23.5 100.5t93.5 369.5l31 127q95 385 200 551z
M10 1291q45 27 143 185q13 15 24 16q27 0 44 -45q6 -18 7 -31q0 -52 -144 -144q-99 -62 -117.5 -62t-35.5 15q-11 11 -10 20t7 11q44 4 82 35z" />
    <glyph glyph-name="lacute" unicode="&#x13a;" horiz-adv-x="528" 
d="M85 -62q0 -81 32 -156q54 -126 160 -126q83 0 139.5 42.5t133.5 139.5q24 31 50 21q26 -9 26 -41q0 -94 -111.5 -161t-212.5 -67q-299 0 -299 354q0 155 58 323l10 29q187 536 290 719q72 132 156 132q119 -1 121 -86q0 -53 -71 -167.5t-285 -399.5q-54 -61 -96 -138
q-101 -190 -101 -418zM269 606q15 1 138.5 216.5t122.5 223t-8 8t-9 -1.5q-33 -20 -139.5 -212.5t-106.5 -228.5q0 -3 2 -5zM-66 1348q45 27 143 185q13 15 24 16q27 0 44 -45q6 -18 7 -31q0 -52 -144 -144q-99 -62 -117.5 -62t-35.5 15q-11 11 -10 20t7 11q44 4 82 35z" />
    <glyph glyph-name="uni013B" unicode="&#x13b;" horiz-adv-x="1073" 
d="M418 -428q22 51 49 144t35 159h178v-18q-16 -63 -64.5 -156.5t-99.5 -153.5h-98v25zM389 1125q63 98 143.5 153t132.5 55t52 -21q0 -8 -24 -14h-2q-193 -44 -303 -383q-24 -76 -110.5 -437.5t-93.5 -386.5l-10 -37q213 8 418 8q32 0 49 -41q5 -13 5 -23q-1 -20 -98.5 -21
t-281.5 -13t-189 -12q-36 0 -36 25t23.5 100.5t93.5 369.5l31 127q95 385 200 551z" />
    <glyph glyph-name="uni013C" unicode="&#x13c;" horiz-adv-x="528" 
d="M92 -428q22 51 49 144t35 159h178v-18q-16 -63 -64.5 -156.5t-99.5 -153.5h-98v25zM85 -62q0 -81 32 -156q54 -126 160 -126q83 0 139.5 42.5t133.5 139.5q24 31 50 21q26 -9 26 -41q0 -94 -111.5 -161t-212.5 -67q-299 0 -299 354q0 155 58 323l10 29q187 536 290 719
q72 132 156 132q119 -1 121 -86q0 -53 -71 -167.5t-285 -399.5q-54 -61 -96 -138q-101 -190 -101 -418zM269 606q15 1 138.5 216.5t122.5 223t-8 8t-9 -1.5q-33 -20 -139.5 -212.5t-106.5 -228.5q0 -3 2 -5z" />
    <glyph glyph-name="Lcaron" unicode="&#x13d;" horiz-adv-x="1073" 
d="M682 1160q23 66 42.5 159t25.5 144h178v-18q-13 -53 -56 -145t-92 -164h-98v24zM389 1125q63 98 143.5 153t132.5 55t52 -21q0 -8 -24 -14h-2q-193 -44 -303 -383q-24 -76 -110.5 -437.5t-93.5 -386.5l-10 -37q213 8 418 8q32 0 49 -41q5 -13 5 -23q-1 -20 -98.5 -21
t-281.5 -13t-189 -12q-36 0 -36 25t23.5 100.5t93.5 369.5l31 127q95 385 200 551z" />
    <glyph glyph-name="lcaron" unicode="&#x13e;" horiz-adv-x="528" 
d="M448 1253q23 66 42.5 159t25.5 144h178v-18q-13 -53 -56 -145t-92 -164h-98v24zM85 -62q0 -81 32 -156q54 -126 160 -126q83 0 139.5 42.5t133.5 139.5q24 31 50 21q26 -9 26 -41q0 -94 -111.5 -161t-212.5 -67q-299 0 -299 354q0 155 58 323l10 29q187 536 290 719
q72 132 156 132q119 -1 121 -86q0 -53 -71 -167.5t-285 -399.5q-54 -61 -96 -138q-101 -190 -101 -418zM269 606q15 1 138.5 216.5t122.5 223t-8 8t-9 -1.5q-33 -20 -139.5 -212.5t-106.5 -228.5q0 -3 2 -5z" />
    <glyph glyph-name="Ldot" unicode="&#x13f;" horiz-adv-x="1073" 
d="M680 732q0 60 30.5 87t75.5 27q42 0 73.5 -27t31.5 -87q0 -59 -31.5 -87t-73.5 -28q-45 0 -75.5 28t-30.5 87zM389 1125q63 98 143.5 153t132.5 55t52 -21q0 -8 -24 -14h-2q-193 -44 -303 -383q-24 -76 -110.5 -437.5t-93.5 -386.5l-10 -37q213 8 418 8q32 0 49 -41
q5 -13 5 -23q-1 -20 -98.5 -21t-281.5 -13t-189 -12q-36 0 -36 25t23.5 100.5t93.5 369.5l31 127q95 385 200 551z" />
    <glyph glyph-name="ldot" unicode="&#x140;" horiz-adv-x="666" 
d="M492 683q0 60 30.5 87t75.5 27q42 0 73.5 -27t31.5 -87q0 -59 -31.5 -87t-73.5 -28q-45 0 -75.5 28t-30.5 87zM85 -62q0 -81 32 -156q54 -126 160 -126q83 0 139.5 42.5t133.5 139.5q24 31 50 21q26 -9 26 -41q0 -94 -111.5 -161t-212.5 -67q-299 0 -299 354
q0 155 58 323l10 29q187 536 290 719q72 132 156 132q119 -1 121 -86q0 -53 -71 -167.5t-285 -399.5q-54 -61 -96 -138q-101 -190 -101 -418zM269 606q15 1 138.5 216.5t122.5 223t-8 8t-9 -1.5q-33 -20 -139.5 -212.5t-106.5 -228.5q0 -3 2 -5z" />
    <glyph glyph-name="Lslash" unicode="&#x141;" horiz-adv-x="1073" 
d="M199 0v506l-101 -57l-71 122l172 103v788h184v-680l281 166l73 -129l-354 -205v-450h639v-164h-823z" />
    <glyph glyph-name="lslash" unicode="&#x142;" horiz-adv-x="528" 
d="M340 870l131 91l76 -121l-207 -140v-700h-180v584l-105 -66l-73 121l178 115v802h180v-686z" />
    <glyph glyph-name="Nacute" unicode="&#x143;" horiz-adv-x="1556" 
d="M352 -79l10 470q0 36 -2 84q-224 -646 -277 -773q-41 -78 -95 -82q-6 2 -6 7t20 47q33 67 192 596q242 809 251 883q10 52 44 52q73 0 78 -37q-3 -32 -45 -216.5t-45.5 -214t-17 -119t-13.5 -120t2 -38.5q25 83 80 299t80.5 286.5t29.5 84.5q81 244 128 244
q13 0 36 -16.5t23 -39.5t-20 -57q-68 -116 -166 -379q-191 -514 -201 -867v-1q-4 -134 -38 -134q-14 0 -24 2q-24 6 -24 39zM420 1291q45 27 143 185q13 15 24 16q27 0 44 -45q6 -18 7 -31q0 -52 -144 -144q-99 -62 -117.5 -62t-35.5 15q-11 11 -10 20t7 11q44 4 82 35z" />
    <glyph glyph-name="nacute" unicode="&#x144;" horiz-adv-x="1266" 
d="M804 374q0 -50 -114 -184t-170.5 -176.5t-113.5 -42.5q-106 1 -106 168q0 79 32 247.5t34 183.5q-106 -35 -203 -266q-20 -49 -64 -167q-43 -117 -61 -139q-22 -26 -58 -26t-37 26q0 48 321 796q50 118 58 132q17 33 71 -3q16 -11 16.5 -22t-15.5 -35q-37 -58 -66 -135
l-38 -99l32 39q43 53 69 80.5t43.5 31t36.5 3.5q41 -3 43 -44q0 -20 -14 -54q-63 -145 -97 -439q-9 -84 -8.5 -147.5t30.5 -64.5q42 0 153 130.5t160 216.5q13 21 37 22q25 -6 29 -32zM281 953q45 27 143 185q13 15 24 16q27 0 44 -45q6 -18 7 -31q0 -52 -144 -144
q-99 -62 -117.5 -62t-35.5 15q-11 11 -10 20t7 11q44 4 82 35z" />
    <glyph glyph-name="uni0145" unicode="&#x145;" horiz-adv-x="1556" 
d="M576 -428q22 51 49 144t35 159h178v-18q-16 -63 -64.5 -156.5t-99.5 -153.5h-98v25zM352 -79l10 470q0 36 -2 84q-224 -646 -277 -773q-41 -78 -95 -82q-6 2 -6 7t20 47q33 67 192 596q242 809 251 883q10 52 44 52q73 0 78 -37q-3 -32 -45 -216.5t-45.5 -214t-17 -119
t-13.5 -120t2 -38.5q25 83 80 299t80.5 286.5t29.5 84.5q81 244 128 244q13 0 36 -16.5t23 -39.5t-20 -57q-68 -116 -166 -379q-191 -514 -201 -867v-1q-4 -134 -38 -134q-14 0 -24 2q-24 6 -24 39z" />
    <glyph glyph-name="uni0146" unicode="&#x146;" horiz-adv-x="1266" 
d="M455 -428q22 51 49 144t35 159h178v-18q-16 -63 -64.5 -156.5t-99.5 -153.5h-98v25zM804 374q0 -50 -114 -184t-170.5 -176.5t-113.5 -42.5q-106 1 -106 168q0 79 32 247.5t34 183.5q-106 -35 -203 -266q-20 -49 -64 -167q-43 -117 -61 -139q-22 -26 -58 -26t-37 26
q0 48 321 796q50 118 58 132q17 33 71 -3q16 -11 16.5 -22t-15.5 -35q-37 -58 -66 -135l-38 -99l32 39q43 53 69 80.5t43.5 31t36.5 3.5q41 -3 43 -44q0 -20 -14 -54q-63 -145 -97 -439q-9 -84 -8.5 -147.5t30.5 -64.5q42 0 153 130.5t160 216.5q13 21 37 22q25 -6 29 -32z
" />
    <glyph glyph-name="Ncaron" unicode="&#x147;" horiz-adv-x="1556" 
d="M432 1907h123q114 -74 219 -189q126 126 223 189h127v-27q-205 -205 -256 -301h-184q-60 102 -252 301v27zM352 -79l10 470q0 36 -2 84q-224 -646 -277 -773q-41 -78 -95 -82q-6 2 -6 7t20 47q33 67 192 596q242 809 251 883q10 52 44 52q73 0 78 -37q-3 -32 -45 -216.5
t-45.5 -214t-17 -119t-13.5 -120t2 -38.5q25 83 80 299t80.5 286.5t29.5 84.5q81 244 128 244q13 0 36 -16.5t23 -39.5t-20 -57q-68 -116 -166 -379q-191 -514 -201 -867v-1q-4 -134 -38 -134q-14 0 -24 2q-24 6 -24 39z" />
    <glyph glyph-name="ncaron" unicode="&#x148;" horiz-adv-x="1266" 
d="M295 1569h123q114 -74 219 -189q126 126 223 189h127v-27q-205 -205 -256 -301h-184q-60 102 -252 301v27zM804 374q0 -50 -114 -184t-170.5 -176.5t-113.5 -42.5q-106 1 -106 168q0 79 32 247.5t34 183.5q-106 -35 -203 -266q-20 -49 -64 -167q-43 -117 -61 -139
q-22 -26 -58 -26t-37 26q0 48 321 796q50 118 58 132q17 33 71 -3q16 -11 16.5 -22t-15.5 -35q-37 -58 -66 -135l-38 -99l32 39q43 53 69 80.5t43.5 31t36.5 3.5q41 -3 43 -44q0 -20 -14 -54q-63 -145 -97 -439q-9 -84 -8.5 -147.5t30.5 -64.5q42 0 153 130.5t160 216.5
q13 21 37 22q25 -6 29 -32z" />
    <glyph glyph-name="napostrophe" unicode="&#x149;" horiz-adv-x="1415" 
d="M297 1462l15 -22q-52 -199 -176 -479h-133q70 285 102 501h192zM949 374q0 -50 -114 -184t-170.5 -176.5t-113.5 -42.5q-106 1 -106 168q0 79 32 247.5t34 183.5q-106 -35 -203 -266q-20 -49 -64 -167q-43 -117 -61 -139q-22 -26 -58 -26t-37 26q0 48 321 796
q50 118 58 132q17 33 71 -3q16 -11 16.5 -22t-15.5 -35q-37 -58 -66 -135l-38 -99l32 39q43 53 69 80.5t43.5 31t36.5 3.5q41 -3 43 -44q0 -20 -14 -54q-63 -145 -97 -439q-9 -84 -8.5 -147.5t30.5 -64.5q42 0 153 130.5t160 216.5q13 21 37 22q25 -6 29 -32z" />
    <glyph glyph-name="Eng" unicode="&#x14a;" horiz-adv-x="1556" 
d="M973 -389q-98 0 -156 27v155q71 -20 156 -20q102 0 156.5 58.5t56.5 168.5l-826 1214h-8q17 -255 17 -421v-793h-170v1462h213l780 -1171h8q-14 154 -14 409v762h172v-1450q0 -196 -99.5 -298.5t-285.5 -102.5z" />
    <glyph glyph-name="eng" unicode="&#x14b;" horiz-adv-x="1266" 
d="M807 -492q-86 0 -145 25v145q60 -20 122 -20q138 0 138 172v875q0 133 -59.5 197.5t-184.5 64.5q-170 0 -247 -93.5t-77 -302.5v-571h-180v1098h145l29 -150h10q52 82 142 126t200 44q202 0 302 -95.5t100 -305.5v-881q0 -154 -71.5 -241t-223.5 -87z" />
    <glyph glyph-name="Omacron" unicode="&#x14c;" horiz-adv-x="1599" 
d="M496 1724h608v-145h-608v145zM219 -42q-100 0 -100 121t80.5 426t178.5 522q20 43 23 51q38 74 93 74t76 -29q51 -61 57 -170t-4 -183q-53 -405 -196 -610l-20 -30q-115 -172 -188 -172zM554 924q-11 94 -30 93q-73 -4 -213 -505q-77 -277 -77 -350q1 -2 2.5 -15.5
t11.5 -13.5q13 1 38 28q69 79 150 263q121 273 121 462q0 15 -3 38z" />
    <glyph glyph-name="omacron" unicode="&#x14d;" horiz-adv-x="1239" 
d="M315 1386h608v-145h-608v145zM317 702q-50 -8 -129 -250t-79 -286t8 -44q42 0 131 180.5t89 330.5q0 68 -20 69zM301 826q28 0 48 -16q35 -30 35 -116q0 -393 -140 -589l-14 -21q-87 -126 -140 -126q-65 7 -75 95q0 73 59.5 296t136.5 386q44 90 90 91z" />
    <glyph glyph-name="Obreve" unicode="&#x14e;" horiz-adv-x="1599" 
d="M793 1579q-141 0 -222.5 69t-90.5 206h110q8 -71 50 -100.5t157 -29.5q101 0 150 31.5t57 98.5h113q-13 -131 -99 -203t-225 -72zM219 -42q-100 0 -100 121t80.5 426t178.5 522q20 43 23 51q38 74 93 74t76 -29q51 -61 57 -170t-4 -183q-53 -405 -196 -610l-20 -30
q-115 -172 -188 -172zM554 924q-11 94 -30 93q-73 -4 -213 -505q-77 -277 -77 -350q1 -2 2.5 -15.5t11.5 -13.5q13 1 38 28q69 79 150 263q121 273 121 462q0 15 -3 38z" />
    <glyph glyph-name="obreve" unicode="&#x14f;" horiz-adv-x="1239" 
d="M612 1241q-141 0 -222.5 69t-90.5 206h110q8 -71 50 -100.5t157 -29.5q101 0 150 31.5t57 98.5h113q-13 -131 -99 -203t-225 -72zM317 702q-50 -8 -129 -250t-79 -286t8 -44q42 0 131 180.5t89 330.5q0 68 -20 69zM301 826q28 0 48 -16q35 -30 35 -116q0 -393 -140 -589
l-14 -21q-87 -126 -140 -126q-65 7 -75 95q0 73 59.5 296t136.5 386q44 90 90 91z" />
    <glyph glyph-name="Ohungarumlaut" unicode="&#x150;" horiz-adv-x="1599" 
d="M504 1604q35 46 87 134.5t91 168.5h197v-21q-33 -56 -119.5 -154t-152.5 -153h-103v25zM865 1604q47 65 100 156t78 147h196v-21q-33 -56 -119.5 -154t-152.5 -153h-102v25zM219 -42q-100 0 -100 121t80.5 426t178.5 522q20 43 23 51q38 74 93 74t76 -29q51 -61 57 -170
t-4 -183q-53 -405 -196 -610l-20 -30q-115 -172 -188 -172zM554 924q-11 94 -30 93q-73 -4 -213 -505q-77 -277 -77 -350q1 -2 2.5 -15.5t11.5 -13.5q13 1 38 28q69 79 150 263q121 273 121 462q0 15 -3 38z" />
    <glyph glyph-name="ohungarumlaut" unicode="&#x151;" horiz-adv-x="1239" 
d="M315 1266q35 46 87 134.5t91 168.5h197v-21q-33 -56 -119.5 -154t-152.5 -153h-103v25zM676 1266q47 65 100 156t78 147h196v-21q-33 -56 -119.5 -154t-152.5 -153h-102v25zM317 702q-50 -8 -129 -250t-79 -286t8 -44q42 0 131 180.5t89 330.5q0 68 -20 69zM301 826
q28 0 48 -16q35 -30 35 -116q0 -393 -140 -589l-14 -21q-87 -126 -140 -126q-65 7 -75 95q0 73 59.5 296t136.5 386q44 90 90 91z" />
    <glyph glyph-name="OE" unicode="&#x152;" horiz-adv-x="1901" 
d="M1778 0h-779q-102 -20 -198 -20q-325 0 -500.5 197t-175.5 558q0 359 172.5 554.5t493.5 195.5q106 0 196 -23h791v-162h-588v-456h549v-160h-549v-522h588v-162zM807 1323q-242 0 -366 -151t-124 -439q0 -289 124 -441.5t364 -152.5q117 0 203 35v1116q-85 33 -201 33z
" />
    <glyph glyph-name="oe" unicode="&#x153;" horiz-adv-x="1937" 
d="M1432 -20q-290 0 -418 227q-63 -113 -167.5 -170t-240.5 -57q-226 0 -360.5 154t-134.5 417q0 266 132 415.5t369 149.5q130 0 232 -57t164 -168q60 109 156 167t222 58q205 0 325 -132.5t120 -360.5v-109h-729q8 -381 332 -381q90 0 167 15.5t181 60.5v-158
q-93 -40 -170 -55.5t-180 -15.5zM299 551q0 -208 73 -315t236 -107q160 0 233.5 104.5t73.5 309.5q0 214 -74.5 319t-236.5 105q-161 0 -233 -105.5t-72 -310.5zM1384 969q-123 0 -194.5 -79.5t-83.5 -232.5h534q0 151 -64.5 231.5t-191.5 80.5z" />
    <glyph glyph-name="Racute" unicode="&#x154;" horiz-adv-x="1274" 
d="M708 1014q0 -159 -184 -249q32 -272 58 -442q36 -231 100 -330q56 -94 128 -118q22 -5 23 -17q-1 -12 -45 -13q-76 1 -153 91.5t-106 186.5q-3 8 -4 15q-57 183 -101 584l-52 -18q-148 -469 -198 -728q-8 -22 -16 -24q-17 1 -39.5 25t-23 54.5t68.5 301.5t213 750
q5 17 17 32q41 51 135 51q55 0 117 -40t62 -112zM462 1056q-9 -49 -39 -153.5t-33 -113.5q35 7 70 21q140 58 139 180q0 6 -1 16q-11 68 -58 68t-78 -18zM279 1291q45 27 143 185q13 15 24 16q27 0 44 -45q6 -18 7 -31q0 -52 -144 -144q-99 -62 -117.5 -62t-35.5 15
q-11 11 -10 20t7 11q44 4 82 35z" />
    <glyph glyph-name="racute" unicode="&#x155;" horiz-adv-x="846" 
d="M462 629l-2 -13l-2 -12q0 -24 -70 -192q-71 -168 -70 -238q2 -119 58 -120q56 0 164 125q130 150 159 226q29 75 45 75q13 -1 14 -28q0 -26 -6 -40l-10 -27q-43 -110 -135 -229q-133 -175 -237 -175q-33 0 -60 17q-68 43 -68 162q0 39 17.5 120t17 87.5t-18.5 14.5
q-36 16 -48 4q-10 -14 -88.5 -216t-107.5 -202q-9 0 -34.5 12t-25.5 33q0 4 26 61l55 127q58 134 136 357l133 376q5 14 32 15l26 1q48 0 48 -35q0 -17 -52 -150t-67 -205l-3 -30q0 -13 5 -15q3 1 25 44l26 51q6 9 12 24q22 41 52 41q52 -1 54 -43v-3zM126 953
q45 27 143 185q13 15 24 16q27 0 44 -45q6 -18 7 -31q0 -52 -144 -144q-99 -62 -117.5 -62t-35.5 15q-11 11 -10 20t7 11q44 4 82 35z" />
    <glyph glyph-name="uni0156" unicode="&#x156;" horiz-adv-x="1274" 
d="M496 -428q22 51 49 144t35 159h178v-18q-16 -63 -64.5 -156.5t-99.5 -153.5h-98v25zM708 1014q0 -159 -184 -249q32 -272 58 -442q36 -231 100 -330q56 -94 128 -118q22 -5 23 -17q-1 -12 -45 -13q-76 1 -153 91.5t-106 186.5q-3 8 -4 15q-57 183 -101 584l-52 -18
q-148 -469 -198 -728q-8 -22 -16 -24q-17 1 -39.5 25t-23 54.5t68.5 301.5t213 750q5 17 17 32q41 51 135 51q55 0 117 -40t62 -112zM462 1056q-9 -49 -39 -153.5t-33 -113.5q35 7 70 21q140 58 139 180q0 6 -1 16q-11 68 -58 68t-78 -18z" />
    <glyph glyph-name="uni0157" unicode="&#x157;" horiz-adv-x="846" 
d="M98 -428q22 51 49 144t35 159h178v-18q-16 -63 -64.5 -156.5t-99.5 -153.5h-98v25zM462 629l-2 -13l-2 -12q0 -24 -70 -192q-71 -168 -70 -238q2 -119 58 -120q56 0 164 125q130 150 159 226q29 75 45 75q13 -1 14 -28q0 -26 -6 -40l-10 -27q-43 -110 -135 -229
q-133 -175 -237 -175q-33 0 -60 17q-68 43 -68 162q0 39 17.5 120t17 87.5t-18.5 14.5q-36 16 -48 4q-10 -14 -88.5 -216t-107.5 -202q-9 0 -34.5 12t-25.5 33q0 4 26 61l55 127q58 134 136 357l133 376q5 14 32 15l26 1q48 0 48 -35q0 -17 -52 -150t-67 -205l-3 -30
q0 -13 5 -15q3 1 25 44l26 51q6 9 12 24q22 41 52 41q52 -1 54 -43v-3z" />
    <glyph glyph-name="Rcaron" unicode="&#x158;" horiz-adv-x="1274" 
d="M289 1907h123q114 -74 219 -189q126 126 223 189h127v-27q-205 -205 -256 -301h-184q-60 102 -252 301v27zM708 1014q0 -159 -184 -249q32 -272 58 -442q36 -231 100 -330q56 -94 128 -118q22 -5 23 -17q-1 -12 -45 -13q-76 1 -153 91.5t-106 186.5q-3 8 -4 15
q-57 183 -101 584l-52 -18q-148 -469 -198 -728q-8 -22 -16 -24q-17 1 -39.5 25t-23 54.5t68.5 301.5t213 750q5 17 17 32q41 51 135 51q55 0 117 -40t62 -112zM462 1056q-9 -49 -39 -153.5t-33 -113.5q35 7 70 21q140 58 139 180q0 6 -1 16q-11 68 -58 68t-78 -18z" />
    <glyph glyph-name="rcaron" unicode="&#x159;" horiz-adv-x="846" 
d="M126 1569h123q114 -74 219 -189q126 126 223 189h127v-27q-205 -205 -256 -301h-184q-60 102 -252 301v27zM462 629l-2 -13l-2 -12q0 -24 -70 -192q-71 -168 -70 -238q2 -119 58 -120q56 0 164 125q130 150 159 226q29 75 45 75q13 -1 14 -28q0 -26 -6 -40l-10 -27
q-43 -110 -135 -229q-133 -175 -237 -175q-33 0 -60 17q-68 43 -68 162q0 39 17.5 120t17 87.5t-18.5 14.5q-36 16 -48 4q-10 -14 -88.5 -216t-107.5 -202q-9 0 -34.5 12t-25.5 33q0 4 26 61l55 127q58 134 136 357l133 376q5 14 32 15l26 1q48 0 48 -35q0 -17 -52 -150
t-67 -205l-3 -30q0 -13 5 -15q3 1 25 44l26 51q6 9 12 24q22 41 52 41q52 -1 54 -43v-3z" />
    <glyph glyph-name="Sacute" unicode="&#x15a;" horiz-adv-x="1124" 
d="M107 176l-6 -69q0 -39 27 -41q85 0 122 284l99 763q3 20 15 40q30 48 78 48t99 -38t51 -100.5t-24 -129.5q-39 -107 -99 -107q-33 0 -48 22l-74 -502q-19 -121 -55 -212q-66 -161 -162 -161q-46 0 -89.5 39.5t-43.5 126t66 87.5q42 -1 44 -50zM429 952q64 7 67 115
q-19 -2 -44.5 -23.5t-25.5 -70.5q0 -11 3 -21zM234 1291q45 27 143 185q13 15 24 16q27 0 44 -45q6 -18 7 -31q0 -52 -144 -144q-99 -62 -117.5 -62t-35.5 15q-11 11 -10 20t7 11q44 4 82 35z" />
    <glyph glyph-name="sacute" unicode="&#x15b;" horiz-adv-x="981" 
d="M446 699q0 -145 -80 -149q-20 0 -38 10q8 -176 8 -343t-63 -237q-36 -40 -92.5 -40.5t-85.5 39t-29 77.5q2 47 60 48q37 0 32 -51t24 -51q54 0 66 137q6 63 5.5 175t-18.5 113q-8 0 -22 -26.5t-67.5 -108.5t-92.5 -122t-51 -44q-28 -10 -32 18q1 30 31 70
q108 143 208 330q23 43 23 50v144q0 41 40 63q17 9 32 9q62 -1 115 -37q25 -18 26 -40t1 -34zM320 632q34 6 39.5 23.5t5.5 35t-2 26.5q-30 0 -41 -42q-4 -14 -4 -26t2 -17zM139 953q45 27 143 185q13 15 24 16q27 0 44 -45q6 -18 7 -31q0 -52 -144 -144q-99 -62 -117.5 -62
t-35.5 15q-11 11 -10 20t7 11q44 4 82 35z" />
    <glyph glyph-name="Scircumflex" unicode="&#x15c;" horiz-adv-x="1124" 
d="M303 1360q-66 -50 -143 -124q-23 -20 -30 -20q-20 2 -20 35.5t26.5 59t80 72t79.5 73t45.5 26.5t29.5 -19t10 -28t-7 -58.5t-12 -81t-27.5 -49.5t-36.5 -18q-10 2 -10.5 24t15.5 108zM107 176l-6 -69q0 -39 27 -41q85 0 122 284l99 763q3 20 15 40q30 48 78 48t99 -38
t51 -100.5t-24 -129.5q-39 -107 -99 -107q-33 0 -48 22l-74 -502q-19 -121 -55 -212q-66 -161 -162 -161q-46 0 -89.5 39.5t-43.5 126t66 87.5q42 -1 44 -50zM429 952q64 7 67 115q-19 -2 -44.5 -23.5t-25.5 -70.5q0 -11 3 -21z" />
    <glyph glyph-name="scircumflex" unicode="&#x15d;" horiz-adv-x="981" 
d="M222 1022q-66 -50 -143 -124q-23 -20 -30 -20q-20 2 -20 35.5t26.5 59t80 72t79.5 73t45.5 26.5t29.5 -19t10 -28t-7 -58.5t-12 -81t-27.5 -49.5t-36.5 -18q-10 2 -10.5 24t15.5 108zM446 699q0 -145 -80 -149q-20 0 -38 10q8 -176 8 -343t-63 -237q-36 -40 -92.5 -40.5
t-85.5 39t-29 77.5q2 47 60 48q37 0 32 -51t24 -51q54 0 66 137q6 63 5.5 175t-18.5 113q-8 0 -22 -26.5t-67.5 -108.5t-92.5 -122t-51 -44q-28 -10 -32 18q1 30 31 70q108 143 208 330q23 43 23 50v144q0 41 40 63q17 9 32 9q62 -1 115 -37q25 -18 26 -40t1 -34zM320 632
q34 6 39.5 23.5t5.5 35t-2 26.5q-30 0 -41 -42q-4 -14 -4 -26t2 -17z" />
    <glyph glyph-name="Scedilla" unicode="&#x15e;" horiz-adv-x="1124" 
d="M107 176l-6 -69q0 -39 27 -41q85 0 122 284l99 763q3 20 15 40q30 48 78 48t99 -38t51 -100.5t-24 -129.5q-39 -107 -99 -107q-33 0 -48 22l-74 -502q-19 -121 -55 -212q-66 -161 -162 -161q-46 0 -89.5 39.5t-43.5 126t66 87.5q42 -1 44 -50zM429 952q64 7 67 115
q-19 -2 -44.5 -23.5t-25.5 -70.5q0 -11 3 -21zM710 -38l-46 8q-8 0 -20 -4q-38 -13 -38 -35q1 -10 62 -24q73 -22 73 -86q0 -20 -24.5 -53.5t-57.5 -33.5t-35 7q1 5 27 27.5t26 36.5t-9.5 29t-45 25t-43.5 13q-46 15 -46 45q0 24 15 48q33 51 95 51q12 0 26 -4
q46 -14 46 -47q-1 -2 -5 -3z" />
    <glyph glyph-name="scedilla" unicode="&#x15f;" horiz-adv-x="981" 
d="M446 699q0 -145 -80 -149q-20 0 -38 10q8 -176 8 -343t-63 -237q-36 -40 -92.5 -40.5t-85.5 39t-29 77.5q2 47 60 48q37 0 32 -51t24 -51q54 0 66 137q6 63 5.5 175t-18.5 113q-8 0 -22 -26.5t-67.5 -108.5t-92.5 -122t-51 -44q-28 -10 -32 18q1 30 31 70
q108 143 208 330q23 43 23 50v144q0 41 40 63q17 9 32 9q62 -1 115 -37q25 -18 26 -40t1 -34zM320 632q34 6 39.5 23.5t5.5 35t-2 26.5q-30 0 -41 -42q-4 -14 -4 -26t2 -17zM632 -38l-46 8q-8 0 -20 -4q-38 -13 -38 -35q1 -10 62 -24q73 -22 73 -86q0 -20 -24.5 -53.5
t-57.5 -33.5t-35 7q1 5 27 27.5t26 36.5t-9.5 29t-45 25t-43.5 13q-46 15 -46 45q0 24 15 48q33 51 95 51q12 0 26 -4q46 -14 46 -47q-1 -2 -5 -3z" />
    <glyph glyph-name="Scaron" unicode="&#x160;" horiz-adv-x="1124" 
d="M234 1907h123q114 -74 219 -189q126 126 223 189h127v-27q-205 -205 -256 -301h-184q-60 102 -252 301v27zM107 176l-6 -69q0 -39 27 -41q85 0 122 284l99 763q3 20 15 40q30 48 78 48t99 -38t51 -100.5t-24 -129.5q-39 -107 -99 -107q-33 0 -48 22l-74 -502
q-19 -121 -55 -212q-66 -161 -162 -161q-46 0 -89.5 39.5t-43.5 126t66 87.5q42 -1 44 -50zM429 952q64 7 67 115q-19 -2 -44.5 -23.5t-25.5 -70.5q0 -11 3 -21z" />
    <glyph glyph-name="scaron" unicode="&#x161;" horiz-adv-x="981" 
d="M169 1569h123q114 -74 219 -189q126 126 223 189h127v-27q-205 -205 -256 -301h-184q-60 102 -252 301v27zM446 699q0 -145 -80 -149q-20 0 -38 10q8 -176 8 -343t-63 -237q-36 -40 -92.5 -40.5t-85.5 39t-29 77.5q2 47 60 48q37 0 32 -51t24 -51q54 0 66 137
q6 63 5.5 175t-18.5 113q-8 0 -22 -26.5t-67.5 -108.5t-92.5 -122t-51 -44q-28 -10 -32 18q1 30 31 70q108 143 208 330q23 43 23 50v144q0 41 40 63q17 9 32 9q62 -1 115 -37q25 -18 26 -40t1 -34zM320 632q34 6 39.5 23.5t5.5 35t-2 26.5q-30 0 -41 -42q-4 -14 -4 -26
t2 -17z" />
    <glyph glyph-name="uni0162" unicode="&#x162;" horiz-adv-x="1139" 
d="M965 1038q-167 -2 -343 -14q-200 -809 -236.5 -924t-67.5 -171.5t-87 -105.5t-92 -50q-13 2 -13 13t23 46q122 191 211 582l148 602q-2 0 -133 -8.5t-188 6.5q-49 23 -57 51q-5 22 67 31l65 6l86 6q92 4 184 9l1 1q4 17 10.5 52t22 47t66.5 12q30 -2 30 -29q0 -15 -1 -18
l-16 -62l345 5q33 0 50 -43q5 -13 5 -23q-1 -21 -80 -21zM737 -38l-46 8q-8 0 -20 -4q-38 -13 -38 -35q1 -10 62 -24q73 -22 73 -86q0 -20 -24.5 -53.5t-57.5 -33.5t-35 7q1 5 27 27.5t26 36.5t-9.5 29t-45 25t-43.5 13q-46 15 -46 45q0 24 15 48q33 51 95 51q12 0 26 -4
q46 -14 46 -47q-1 -2 -5 -3z" />
    <glyph glyph-name="uni0163" unicode="&#x163;" horiz-adv-x="739" 
d="M387 773l359 8q11 0 24 -19.5t14 -52.5q-1 -22 -57 -23q-166 -4 -402 -40q-17 -49 -55 -141q-167 -404 -167 -567q0 -81 31 -156q54 -126 161 -126q83 0 139.5 42.5t133.5 139.5q24 31 50 22q25 -11 25 -43q0 -92 -106 -153.5t-227.5 -61.5t-210 89t-88.5 237
q0 99 25 212t91 281.5t86 224.5q-207 0 -231 5q-74 16 -75 63q1 15 23 19l325 27l214 360q37 62 67 62q12 0 28 -4q59 -13 59 -42.5t-60 -90.5t-74 -78q-47 -58 -102 -194zM616 -38l-46 8q-8 0 -20 -4q-38 -13 -38 -35q1 -10 62 -24q73 -22 73 -86q0 -20 -24.5 -53.5
t-57.5 -33.5t-35 7q1 5 27 27.5t26 36.5t-9.5 29t-45 25t-43.5 13q-46 15 -46 45q0 24 15 48q33 51 95 51q12 0 26 -4q46 -14 46 -47q-1 -2 -5 -3z" />
    <glyph glyph-name="Tcaron" unicode="&#x164;" horiz-adv-x="1139" 
d="M226 1907h123q114 -74 219 -189q126 126 223 189h127v-27q-205 -205 -256 -301h-184q-60 102 -252 301v27zM965 1038q-167 -2 -343 -14q-200 -809 -236.5 -924t-67.5 -171.5t-87 -105.5t-92 -50q-13 2 -13 13t23 46q122 191 211 582l148 602q-2 0 -133 -8.5t-188 6.5
q-49 23 -57 51q-5 22 67 31l65 6l86 6q92 4 184 9l1 1q4 17 10.5 52t22 47t66.5 12q30 -2 30 -29q0 -15 -1 -18l-16 -62l345 5q33 0 50 -43q5 -13 5 -23q-1 -21 -80 -21z" />
    <glyph glyph-name="tcaron" unicode="&#x165;" horiz-adv-x="739" 
d="M504 1253q23 66 42.5 159t25.5 144h178v-18q-13 -53 -56 -145t-92 -164h-98v24zM387 773l359 8q11 0 24 -19.5t14 -52.5q-1 -22 -57 -23q-166 -4 -402 -40q-17 -49 -55 -141q-167 -404 -167 -567q0 -81 31 -156q54 -126 161 -126q83 0 139.5 42.5t133.5 139.5
q24 31 50 22q25 -11 25 -43q0 -92 -106 -153.5t-227.5 -61.5t-210 89t-88.5 237q0 99 25 212t91 281.5t86 224.5q-207 0 -231 5q-74 16 -75 63q1 15 23 19l325 27l214 360q37 62 67 62q12 0 28 -4q59 -13 59 -42.5t-60 -90.5t-74 -78q-47 -58 -102 -194z" />
    <glyph glyph-name="Tbar" unicode="&#x166;" horiz-adv-x="1139" 
d="M475 817v481h-455v164h1096v-164h-457v-481h304v-151h-304v-666h-184v666h-305v151h305z" />
    <glyph glyph-name="tbar" unicode="&#x167;" horiz-adv-x="739" 
d="M545 127q85 0 149 23v-138q-26 -12 -79.5 -22t-110.5 -10q-316 0 -316 350v243h-139v136h139v249h-155v86l157 72l72 234h107v-252h317v-140h-317v-249h299v-136h-299v-233q0 -106 42.5 -159.5t133.5 -53.5z" />
    <glyph glyph-name="Utilde" unicode="&#x168;" horiz-adv-x="1497" 
d="M449 1321q33 43 54 113q25 83 59.5 83t57.5 -28.5t23 -46t-10 -42.5q-44 -104 -159 -159q-77 -36 -161.5 -36t-85.5 29q2 13 38 13q127 0 184 74zM285 145q12 1 28 18q160 185 338 603q8 18 70 168.5t83 162.5q6 3 28 3.5t31 -11t9 -36.5t-16 -66q-100 -248 -173 -528
q-35 -139 -35 -258t4 -140t-12.5 -40t-29 -26.5t-34.5 1.5q-22 8 -32 30q-11 24 1.5 137t34.5 211l25 108q-116 -254 -205 -378t-173 -125q-52 2 -52 96q0 141 85 446t124.5 406.5t47.5 126.5q21 57 64 56.5t44 -41.5q0 -30 -23 -90q-189 -504 -232 -834z" />
    <glyph glyph-name="utilde" unicode="&#x169;" horiz-adv-x="1266" 
d="M331 983q33 43 54 113q25 83 59.5 83t57.5 -28.5t23 -46t-10 -42.5q-44 -104 -159 -159q-77 -36 -161.5 -36t-85.5 29q2 13 38 13q127 0 184 74zM296 845q41 -15 42 -40q0 -9 -14 -49l-38 -109q-134 -384 -151 -508q74 113 178.5 322.5t126.5 250.5t33.5 70t21.5 32.5
t37 3.5q40 0 40 -37q-3 -19 -42.5 -124.5t-85 -282t-45 -248t13.5 -73.5q44 0 158.5 125.5t167.5 226.5q22 40 42 41q10 -2 11 -16q0 -84 -111.5 -219t-191.5 -190l-20 -13q-34 -18 -50 -18h-17q-88 15 -90 148q0 66 20 136l22 81q-98 -215 -163.5 -295.5t-118.5 -80.5
q-40 2 -40 72q0 116 82 389q116 385 146 407q6 3 14 3t22 -5z" />
    <glyph glyph-name="Umacron" unicode="&#x16a;" horiz-adv-x="1497" 
d="M444 1724h608v-145h-608v145zM285 145q12 1 28 18q160 185 338 603q8 18 70 168.5t83 162.5q6 3 28 3.5t31 -11t9 -36.5t-16 -66q-100 -248 -173 -528q-35 -139 -35 -258t4 -140t-12.5 -40t-29 -26.5t-34.5 1.5q-22 8 -32 30q-11 24 1.5 137t34.5 211l25 108
q-116 -254 -205 -378t-173 -125q-52 2 -52 96q0 141 85 446t124.5 406.5t47.5 126.5q21 57 64 56.5t44 -41.5q0 -30 -23 -90q-189 -504 -232 -834z" />
    <glyph glyph-name="umacron" unicode="&#x16b;" horiz-adv-x="1266" 
d="M326 1386h608v-145h-608v145zM296 845q41 -15 42 -40q0 -9 -14 -49l-38 -109q-134 -384 -151 -508q74 113 178.5 322.5t126.5 250.5t33.5 70t21.5 32.5t37 3.5q40 0 40 -37q-3 -19 -42.5 -124.5t-85 -282t-45 -248t13.5 -73.5q44 0 158.5 125.5t167.5 226.5q22 40 42 41
q10 -2 11 -16q0 -84 -111.5 -219t-191.5 -190l-20 -13q-34 -18 -50 -18h-17q-88 15 -90 148q0 66 20 136l22 81q-98 -215 -163.5 -295.5t-118.5 -80.5q-40 2 -40 72q0 116 82 389q116 385 146 407q6 3 14 3t22 -5z" />
    <glyph glyph-name="Ubreve" unicode="&#x16c;" horiz-adv-x="1497" 
d="M739 1579q-141 0 -222.5 69t-90.5 206h110q8 -71 50 -100.5t157 -29.5q101 0 150 31.5t57 98.5h113q-13 -131 -99 -203t-225 -72zM285 145q12 1 28 18q160 185 338 603q8 18 70 168.5t83 162.5q6 3 28 3.5t31 -11t9 -36.5t-16 -66q-100 -248 -173 -528q-35 -139 -35 -258
t4 -140t-12.5 -40t-29 -26.5t-34.5 1.5q-22 8 -32 30q-11 24 1.5 137t34.5 211l25 108q-116 -254 -205 -378t-173 -125q-52 2 -52 96q0 141 85 446t124.5 406.5t47.5 126.5q21 57 64 56.5t44 -41.5q0 -30 -23 -90q-189 -504 -232 -834z" />
    <glyph glyph-name="ubreve" unicode="&#x16d;" horiz-adv-x="1266" 
d="M620 1241q-141 0 -222.5 69t-90.5 206h110q8 -71 50 -100.5t157 -29.5q101 0 150 31.5t57 98.5h113q-13 -131 -99 -203t-225 -72zM296 845q41 -15 42 -40q0 -9 -14 -49l-38 -109q-134 -384 -151 -508q74 113 178.5 322.5t126.5 250.5t33.5 70t21.5 32.5t37 3.5
q40 0 40 -37q-3 -19 -42.5 -124.5t-85 -282t-45 -248t13.5 -73.5q44 0 158.5 125.5t167.5 226.5q22 40 42 41q10 -2 11 -16q0 -84 -111.5 -219t-191.5 -190l-20 -13q-34 -18 -50 -18h-17q-88 15 -90 148q0 66 20 136l22 81q-98 -215 -163.5 -295.5t-118.5 -80.5
q-40 2 -40 72q0 116 82 389q116 385 146 407q6 3 14 3t22 -5z" />
    <glyph glyph-name="Uring" unicode="&#x16e;" horiz-adv-x="1497" 
d="M478 1469q-139 0 -139 136q0 18 9 37q34 69 149 69q30 0 53 -10q61 -26 62 -109q0 -40 -23 -72q-38 -51 -111 -51zM543 1588q0 65 -65 65q-33 0 -60.5 -14.5t-27.5 -42.5q0 -77 77 -77q15 0 29 4q47 15 47 65zM285 145q12 1 28 18q160 185 338 603q8 18 70 168.5
t83 162.5q6 3 28 3.5t31 -11t9 -36.5t-16 -66q-100 -248 -173 -528q-35 -139 -35 -258t4 -140t-12.5 -40t-29 -26.5t-34.5 1.5q-22 8 -32 30q-11 24 1.5 137t34.5 211l25 108q-116 -254 -205 -378t-173 -125q-52 2 -52 96q0 141 85 446t124.5 406.5t47.5 126.5
q21 57 64 56.5t44 -41.5q0 -30 -23 -90q-189 -504 -232 -834z" />
    <glyph glyph-name="uring" unicode="&#x16f;" horiz-adv-x="1266" 
d="M359 1131q-139 0 -139 136q0 18 9 37q34 69 149 69q30 0 53 -10q61 -26 62 -109q0 -40 -23 -72q-38 -51 -111 -51zM424 1250q0 65 -65 65q-33 0 -60.5 -14.5t-27.5 -42.5q0 -77 77 -77q15 0 29 4q47 15 47 65zM296 845q41 -15 42 -40q0 -9 -14 -49l-38 -109
q-134 -384 -151 -508q74 113 178.5 322.5t126.5 250.5t33.5 70t21.5 32.5t37 3.5q40 0 40 -37q-3 -19 -42.5 -124.5t-85 -282t-45 -248t13.5 -73.5q44 0 158.5 125.5t167.5 226.5q22 40 42 41q10 -2 11 -16q0 -84 -111.5 -219t-191.5 -190l-20 -13q-34 -18 -50 -18h-17
q-88 15 -90 148q0 66 20 136l22 81q-98 -215 -163.5 -295.5t-118.5 -80.5q-40 2 -40 72q0 116 82 389q116 385 146 407q6 3 14 3t22 -5z" />
    <glyph glyph-name="Uhungarumlaut" unicode="&#x170;" horiz-adv-x="1497" 
d="M452 1604q35 46 87 134.5t91 168.5h197v-21q-33 -56 -119.5 -154t-152.5 -153h-103v25zM813 1604q47 65 100 156t78 147h196v-21q-33 -56 -119.5 -154t-152.5 -153h-102v25zM285 145q12 1 28 18q160 185 338 603q8 18 70 168.5t83 162.5q6 3 28 3.5t31 -11t9 -36.5
t-16 -66q-100 -248 -173 -528q-35 -139 -35 -258t4 -140t-12.5 -40t-29 -26.5t-34.5 1.5q-22 8 -32 30q-11 24 1.5 137t34.5 211l25 108q-116 -254 -205 -378t-173 -125q-52 2 -52 96q0 141 85 446t124.5 406.5t47.5 126.5q21 57 64 56.5t44 -41.5q0 -30 -23 -90
q-189 -504 -232 -834z" />
    <glyph glyph-name="uhungarumlaut" unicode="&#x171;" horiz-adv-x="1266" 
d="M336 1266q35 46 87 134.5t91 168.5h197v-21q-33 -56 -119.5 -154t-152.5 -153h-103v25zM697 1266q47 65 100 156t78 147h196v-21q-33 -56 -119.5 -154t-152.5 -153h-102v25zM296 845q41 -15 42 -40q0 -9 -14 -49l-38 -109q-134 -384 -151 -508q74 113 178.5 322.5
t126.5 250.5t33.5 70t21.5 32.5t37 3.5q40 0 40 -37q-3 -19 -42.5 -124.5t-85 -282t-45 -248t13.5 -73.5q44 0 158.5 125.5t167.5 226.5q22 40 42 41q10 -2 11 -16q0 -84 -111.5 -219t-191.5 -190l-20 -13q-34 -18 -50 -18h-17q-88 15 -90 148q0 66 20 136l22 81
q-98 -215 -163.5 -295.5t-118.5 -80.5q-40 2 -40 72q0 116 82 389q116 385 146 407q6 3 14 3t22 -5z" />
    <glyph glyph-name="Uogonek" unicode="&#x172;" horiz-adv-x="1497" 
d="M729 -238q0 -46 24.5 -69t67.5 -23q44 0 99 13v-115q-69 -19 -127 -19q-211 0 -211 193q0 139 160 258h127q-70 -66 -105 -120.5t-35 -117.5zM285 145q12 1 28 18q160 185 338 603q8 18 70 168.5t83 162.5q6 3 28 3.5t31 -11t9 -36.5t-16 -66q-100 -248 -173 -528
q-35 -139 -35 -258t4 -140t-12.5 -40t-29 -26.5t-34.5 1.5q-22 8 -32 30q-11 24 1.5 137t34.5 211l25 108q-116 -254 -205 -378t-173 -125q-52 2 -52 96q0 141 85 446t124.5 406.5t47.5 126.5q21 57 64 56.5t44 -41.5q0 -30 -23 -90q-189 -504 -232 -834z" />
    <glyph glyph-name="uogonek" unicode="&#x173;" horiz-adv-x="1266" 
d="M938 -238q0 -46 24.5 -69t67.5 -23q44 0 99 13v-115q-69 -19 -127 -19q-211 0 -211 193q0 139 160 258h127q-70 -66 -105 -120.5t-35 -117.5zM296 845q41 -15 42 -40q0 -9 -14 -49l-38 -109q-134 -384 -151 -508q74 113 178.5 322.5t126.5 250.5t33.5 70t21.5 32.5
t37 3.5q40 0 40 -37q-3 -19 -42.5 -124.5t-85 -282t-45 -248t13.5 -73.5q44 0 158.5 125.5t167.5 226.5q22 40 42 41q10 -2 11 -16q0 -84 -111.5 -219t-191.5 -190l-20 -13q-34 -18 -50 -18h-17q-88 15 -90 148q0 66 20 136l22 81q-98 -215 -163.5 -295.5t-118.5 -80.5
q-40 2 -40 72q0 116 82 389q116 385 146 407q6 3 14 3t22 -5z" />
    <glyph glyph-name="Wcircumflex" unicode="&#x174;" horiz-adv-x="1905" 
d="M667 1360q-66 -50 -143 -124q-23 -20 -30 -20q-20 2 -20 35.5t26.5 59t80 72t79.5 73t45.5 26.5t29.5 -19t10 -28t-7 -58.5t-12 -81t-27.5 -49.5t-36.5 -18q-10 2 -10.5 24t15.5 108zM939 482q-116 -254 -205 -378t-173 -125q-52 2 -52 95t52 312q-162 -343 -286 -396
q-25 -10 -48 -11q-52 2 -52 96q0 141 85 446t124.5 406.5t47.5 126.5q21 57 64 56.5t44 -41.5q0 -30 -23 -90q-189 -504 -232 -834q12 1 28 18q159 185 337 602l77 185l12 31q19 48 27 73q21 57 64 56.5t44 -41.5q0 -13 -2 -29q-3 -28 -21 -69t-19 -45q-173 -476 -213 -781
q12 1 28 18q160 185 338 603q8 18 70 168.5t83 162.5q6 3 28 3.5t31 -11t9 -36.5t-16.5 -66.5t-19.5 -49t-93 -166t-138 -289.5z" />
    <glyph glyph-name="wcircumflex" unicode="&#x175;" horiz-adv-x="1610" 
d="M524 1022q-66 -50 -143 -124q-23 -20 -30 -20q-20 2 -20 35.5t26.5 59t80 72t79.5 73t45.5 26.5t29.5 -19t10 -28t-7 -58.5t-12 -81t-27.5 -49.5t-36.5 -18q-10 2 -10.5 24t15.5 108zM54 746q26 -8 48 -8t54 11q91 33 120 126q4 15 15.5 15t25.5 -3q57 -12 57 -44v-73
q-40 -31 -77.5 -104.5t-71.5 -273.5l-6 -35l19 29q145 221 179 332q69 -24 125 -24q236 0 334 80q14 13 18 12q0 -2 -24 -66l-27 -69q-11 -25 -28 -25q-47 6 -57 6q-71 0 -133 -35q-34 -208 -91 -399q-13 -40 -53 -111q-77 -135 -125 -135q-76 0 -77 200q0 22 1 63t1 59
q-9 -5 -17.5 -16t-54.5 -85t-77 -74q-5 0 -16 6q-51 27 -51 81q0 86 71 280t79 227q-30 13 -79.5 -5t-54.5 -18q-30 1 -31 37.5t4 38.5zM358 150q0 -29 16 -19q34 27 108.5 208t73.5 267q0 10 -4 24q-13 42 -37 42q-6 -2 -13 -13q-50 -86 -97 -255t-47 -254z" />
    <glyph glyph-name="Ycircumflex" unicode="&#x176;" horiz-adv-x="1159" 
d="M299 1360q-66 -50 -143 -124q-23 -20 -30 -20q-20 2 -20 35.5t26.5 59t80 72t79.5 73t45.5 26.5t29.5 -19t10 -28t-7 -58.5t-12 -81t-27.5 -49.5t-36.5 -18q-10 2 -10.5 24t15.5 108zM756 1161q-1 -3 -1 -5q0 -6 -3 -18l-407 -971q-73 -169 -125.5 -243t-107.5 -115
t-76.5 -40t-20.5 10.5t15 26.5q101 122 205 348l132 301q-72 451 -94.5 554.5t-19.5 130.5q4 23 42 36q15 5 32.5 4.5t22.5 -18.5q10 -48 43 -249t48 -279l176 441q7 16 18 50t27.5 45t55 11.5t38.5 -20.5z" />
    <glyph glyph-name="ycircumflex" unicode="&#x177;" horiz-adv-x="1044" 
d="M248 1022q-66 -50 -143 -124q-23 -20 -30 -20q-20 2 -20 35.5t26.5 59t80 72t79.5 73t45.5 26.5t29.5 -19t10 -28t-7 -58.5t-12 -81t-27.5 -49.5t-36.5 -18q-10 2 -10.5 24t15.5 108zM539 818q56 0 59 -32q0 -10 -38 -152l-47 -169q-15 -57 -38.5 -188.5t-48.5 -240.5
q-100 -434 -211 -609q-33 -52 -82 -100q-109 -108 -202 -108q-44 0 -44 21q1 8 28 14.5t59 24.5q90 54 137 148q188 321 272 928q-29 -89 -118.5 -232.5t-165.5 -143.5q-41 0 -40 82q3 257 176 725q7 19 13 32q15 32 32.5 32t30.5 -3q52 -11 53 -42q0 -7 -14 -49l-49 -143
q-117 -338 -140 -474q68 104 187.5 340t129.5 255q12 19 18 35l8 21q12 28 35 28z" />
    <glyph glyph-name="Ydieresis" unicode="&#x178;" horiz-adv-x="1159" 
d="M756 1161q-1 -3 -1 -5q0 -6 -3 -18l-407 -971q-73 -169 -125.5 -243t-107.5 -115t-76.5 -40t-20.5 10.5t15 26.5q101 122 205 348l132 301q-72 451 -94.5 554.5t-19.5 130.5q4 23 42 36q15 5 32.5 4.5t22.5 -18.5q10 -48 43 -249t48 -279l176 441q7 16 18 50t27.5 45
t55 11.5t38.5 -20.5zM493 1237q44 23 76 84q10 18 23 91t20 101.5t35.5 29.5t50.5 -25t22 -42q0 -50 -97 -180q-33 -44 -57 -68q-41 -40 -74 -10q-10 10 1 19zM390 1264q18 24 32.5 105.5t21.5 109.5t35.5 28.5t50.5 -25t22 -42.5q0 -42 -97 -180q-26 -36 -48 -56
q-26 -24 -40.5 -25.5t-25.5 8.5q-18 16 -5 24q33 21 54 53z" />
    <glyph glyph-name="Zacute" unicode="&#x179;" horiz-adv-x="1171" 
d="M826 1036l-428 -16q-27 0 -58 4q-116 17 -116 59q0 15 30 17h2l199 16q158 9 283 9h196q33 0 50 -43q5 -13 4 -25.5t-41 -16.5q-12 -17 -31 -38l-783 -898q58 4 206 17q147 13 181 14q134 4 157 -42q5 -8 5 -15q1 -12 -11 -14.5t-20 -3.5l-168 -23q-154 -15 -259 -18.5
t-167 -6.5q-22 -24 -57 -24t-38.5 25t3.5 42.5t52 68.5zM222 1291q45 27 143 185q13 15 24 16q27 0 44 -45q6 -18 7 -31q0 -52 -144 -144q-99 -62 -117.5 -62t-35.5 15q-11 11 -10 20t7 11q44 4 82 35z" />
    <glyph glyph-name="zacute" unicode="&#x17a;" horiz-adv-x="963" 
d="M644 739q-4 -1 -26 -11q-230 -99 -297 -99q-37 0 -58 15.5t-22 25.5q2 13 38 24q39 13 153 54q204 74 236 74q34 0 63.5 -21t29.5 -41.5t-31.5 -60.5t-166.5 -189t-173 -200l611 352q7 4 8 4q16 -5 17 -31q2 -27 -4 -31q-24 -16 -47 -29l-136 -85q-300 -186 -455.5 -302
t-286.5 -258q-11 -10 -21 -10q-29 0 -49 30t-20 43.5t5 20.5q82 100 348 402zM139 953q45 27 143 185q13 15 24 16q27 0 44 -45q6 -18 7 -31q0 -52 -144 -144q-99 -62 -117.5 -62t-35.5 15q-11 11 -10 20t7 11q44 4 82 35z" />
    <glyph glyph-name="Zdotaccent" unicode="&#x17b;" horiz-adv-x="1171" 
d="M477 1733q0 60 30.5 87t75.5 27q42 0 73.5 -27t31.5 -87q0 -59 -31.5 -87t-73.5 -28q-45 0 -75.5 28t-30.5 87zM826 1036l-428 -16q-27 0 -58 4q-116 17 -116 59q0 15 30 17h2l199 16q158 9 283 9h196q33 0 50 -43q5 -13 4 -25.5t-41 -16.5q-12 -17 -31 -38l-783 -898
q58 4 206 17q147 13 181 14q134 4 157 -42q5 -8 5 -15q1 -12 -11 -14.5t-20 -3.5l-168 -23q-154 -15 -259 -18.5t-167 -6.5q-22 -24 -57 -24t-38.5 25t3.5 42.5t52 68.5z" />
    <glyph glyph-name="zdotaccent" unicode="&#x17c;" horiz-adv-x="963" 
d="M379 1395q0 60 30.5 87t75.5 27q42 0 73.5 -27t31.5 -87q0 -59 -31.5 -87t-73.5 -28q-45 0 -75.5 28t-30.5 87zM644 739q-4 -1 -26 -11q-230 -99 -297 -99q-37 0 -58 15.5t-22 25.5q2 13 38 24q39 13 153 54q204 74 236 74q34 0 63.5 -21t29.5 -41.5t-31.5 -60.5
t-166.5 -189t-173 -200l611 352q7 4 8 4q16 -5 17 -31q2 -27 -4 -31q-24 -16 -47 -29l-136 -85q-300 -186 -455.5 -302t-286.5 -258q-11 -10 -21 -10q-29 0 -49 30t-20 43.5t5 20.5q82 100 348 402z" />
    <glyph glyph-name="Zcaron" unicode="&#x17d;" horiz-adv-x="1171" 
d="M243 1907h123q114 -74 219 -189q126 126 223 189h127v-27q-205 -205 -256 -301h-184q-60 102 -252 301v27zM826 1036l-428 -16q-27 0 -58 4q-116 17 -116 59q0 15 30 17h2l199 16q158 9 283 9h196q33 0 50 -43q5 -13 4 -25.5t-41 -16.5q-12 -17 -31 -38l-783 -898
q58 4 206 17q147 13 181 14q134 4 157 -42q5 -8 5 -15q1 -12 -11 -14.5t-20 -3.5l-168 -23q-154 -15 -259 -18.5t-167 -6.5q-22 -24 -57 -24t-38.5 25t3.5 42.5t52 68.5z" />
    <glyph glyph-name="zcaron" unicode="&#x17e;" horiz-adv-x="963" 
d="M140 1569h123q114 -74 219 -189q126 126 223 189h127v-27q-205 -205 -256 -301h-184q-60 102 -252 301v27zM644 739q-4 -1 -26 -11q-230 -99 -297 -99q-37 0 -58 15.5t-22 25.5q2 13 38 24q39 13 153 54q204 74 236 74q34 0 63.5 -21t29.5 -41.5t-31.5 -60.5t-166.5 -189
t-173 -200l611 352q7 4 8 4q16 -5 17 -31q2 -27 -4 -31q-24 -16 -47 -29l-136 -85q-300 -186 -455.5 -302t-286.5 -258q-11 -10 -21 -10q-29 0 -49 30t-20 43.5t5 20.5q82 100 348 402z" />
    <glyph glyph-name="longs" unicode="&#x17f;" horiz-adv-x="668" 
d="M535 1417q-94 0 -137.5 -58.5t-43.5 -176.5v-1182h-180v1182q0 385 363 385q100 0 204 -39l-47 -142q-90 31 -159 31z" />
    <glyph glyph-name="uni0180" unicode="&#x180;" horiz-adv-x="1260" 
d="M694 1116q217 0 335 -149.5t118 -417.5q0 -272 -120 -420.5t-333 -148.5q-111 0 -198 40t-142 119h-14q-31 -120 -37 -139h-129v1239h-156v135h156v182h180v-182h437v-135h-437v-61q0 -113 -10 -226h10q111 164 340 164zM664 967q-166 0 -238 -94t-72 -318v-8
q0 -225 73.5 -321.5t240.5 -96.5q148 0 220.5 108.5t72.5 313.5q0 208 -73 312t-224 104z" />
    <glyph glyph-name="uni0181" unicode="&#x181;" horiz-adv-x="1495" 
d="M309 1305q-125 0 -125 -103q0 -61 21 -110h-162q-9 21 -16 54t-7 58q0 133 70.5 195.5t218.5 62.5h471q294 0 424.5 -87.5t130.5 -274.5q0 -130 -71 -214.5t-207 -109.5v-10q167 -29 247 -116.5t80 -233.5q0 -197 -134.5 -306.5t-372.5 -109.5h-515v1305h-53zM547 840
h270q172 0 250 55t78 184q0 120 -85.5 173t-271.5 53h-241v-465zM547 686v-530h295q176 0 261 68t85 206q0 131 -90 193.5t-271 62.5h-280z" />
    <glyph glyph-name="uni0182" unicode="&#x182;" horiz-adv-x="1260" 
d="M1155 428q0 -216 -130 -322t-398 -106h-428v1462h868v-162h-684v-456h217q280 0 417.5 -99t137.5 -317zM383 158h225q188 0 272.5 63.5t84.5 206.5q0 140 -88 198t-299 58h-195v-526z" />
    <glyph glyph-name="uni0183" unicode="&#x183;" horiz-adv-x="1260" 
d="M694 1116q217 0 335 -149.5t118 -417.5q0 -272 -120 -420.5t-333 -148.5q-111 0 -198 40t-142 119h-14q-31 -120 -37 -139h-129v1556h862v-151h-682v-227q0 -113 -10 -226h10q111 164 340 164zM664 967q-166 0 -238 -94t-72 -318v-8q0 -225 73.5 -321.5t240.5 -96.5
q148 0 220.5 108.5t72.5 313.5q0 208 -73 312t-224 104z" />
    <glyph glyph-name="uni0184" unicode="&#x184;" horiz-adv-x="1300" 
d="M369 430q0 -158 76.5 -225.5t250.5 -67.5q163 0 236.5 73t73.5 210q0 141 -98.5 202.5t-286.5 61.5h-252v-254zM184 1462h185v-618h274q265 0 409 -108.5t144 -315.5t-130.5 -323.5t-367.5 -116.5q-514 0 -514 450v1032z" />
    <glyph glyph-name="uni0185" unicode="&#x185;" horiz-adv-x="1253" 
d="M659 -20q-235 0 -363 148t-128 419v1009h180v-378q0 -113 -10 -226h10q111 164 340 164q217 0 335 -149.5t118 -417.5q0 -274 -125.5 -421.5t-356.5 -147.5zM348 543q0 -196 83.5 -305t230.5 -109t219.5 109t72.5 313q0 208 -72.5 312t-224.5 104q-165 0 -237 -94.5
t-72 -317.5v-12z" />
    <glyph glyph-name="uni0186" unicode="&#x186;" horiz-adv-x="1294" 
d="M498 1483q324 0 497.5 -197t173.5 -557q0 -225 -81 -394.5t-234.5 -262t-355.5 -92.5q-113 0 -201.5 13t-175.5 46v160q193 -58 348 -58q236 0 371 158t135 432q0 281 -130.5 435.5t-375.5 154.5q-157 0 -332 -80l-74 156q172 86 435 86z" />
    <glyph glyph-name="uni0187" unicode="&#x187;" horiz-adv-x="1294" 
d="M825 1321q-236 0 -371 -158t-135 -432q0 -283 131 -436.5t373 -153.5q156 0 351 58v-160q-93 -34 -179 -46.5t-198 -12.5q-323 0 -497.5 196.5t-174.5 556.5q0 226 83.5 396t243 262t375.5 92q124 0 240 -29v29q0 132 55 203t181 71q61 0 122 -26v-148q-49 21 -106 21
q-96 0 -96 -99v-104l-74 -160q-68 31 -147 55.5t-177 24.5z" />
    <glyph glyph-name="uni0188" unicode="&#x188;" horiz-adv-x="1030" 
d="M614 -20q-237 0 -369 145.5t-132 417.5q0 276 133.5 425.5t380.5 149.5q56 0 133 -12v186q0 132 54.5 203.5t180.5 71.5q60 0 123 -27v-149q-47 20 -106 20q-97 0 -97 -98v-254l-55 -150q-139 52 -237 52q-166 0 -245 -104.5t-79 -311.5q0 -199 79 -304.5t234 -105.5
q145 0 285 64v-160q-114 -59 -283 -59z" />
    <glyph glyph-name="uni0189" unicode="&#x189;" horiz-adv-x="1495" 
d="M410 952l-45 22q18 113 106 147q28 10 59 10q86 0 152 -64q65 -65 65 -145q0 -104 -45 -240q-108 -323 -382 -628l-69 -73q-39 -35 -53 -37q-43 1 -83 83q13 37 79 249l94 304q-26 -2 -77.5 -2t-73.5 5q-26 16 -27 45q2 13 11 16q111 15 194 23q64 202 95 285zM513 625
q-1 -18 -35.5 -19.5t-82.5 -6.5q-115 -343 -144 -460q77 81 152 194q234 351 234 673q0 35 -19 41q-6 1 -12 1q-63 -1 -107 -29q0 -83 -31.5 -187.5t-37.5 -127.5l-9 -29q52 2 74 2q14 -9 18 -52z" />
    <glyph glyph-name="uni018A" unicode="&#x18a;" horiz-adv-x="1659" 
d="M1339 739q0 279 -137.5 422.5t-415.5 143.5h-239v-1147h198q594 0 594 581zM813 1462q344 0 532.5 -189.5t188.5 -527.5q0 -362 -197.5 -553.5t-566.5 -191.5h-408v1305h-53q-125 0 -125 -103q0 -61 21 -110h-162q-9 21 -16 54t-7 58q0 133 70.5 195.5t218.5 62.5h504z
" />
    <glyph glyph-name="uni018B" unicode="&#x18b;" horiz-adv-x="1260" 
d="M877 686h-168q-217 0 -315.5 -65t-98.5 -207q0 -129 90.5 -192.5t284.5 -63.5h207v528zM1061 1462v-1462h-408q-549 0 -549 406q0 210 151 324t433 114h189v456h-684v162h868z" />
    <glyph glyph-name="uni018C" unicode="&#x18c;" horiz-adv-x="1260" 
d="M592 129q164 0 239.5 89.5t75.5 293.5v33q0 229 -76.5 326.5t-240.5 97.5q-139 0 -215 -110.5t-76 -315.5q0 -204 75.5 -309t217.5 -105zM1085 0h-145l-27 147h-8q-115 -167 -342 -167q-214 0 -332 148t-118 419q0 269 118.5 420t333.5 151q221 0 340 -162h13
q-3 20 -8 80.5t-5 81.5v287h-682v151h862v-1556z" />
    <glyph glyph-name="uni018D" unicode="&#x18d;" horiz-adv-x="1237" 
d="M698 602q136 -77 195 -157t59 -179q0 -132 -98 -209t-270 -77q-104 0 -199 23t-223 87l78 141q76 -43 162 -73.5t190 -30.5q82 0 130 38t48 103q0 69 -54.5 122.5t-219.5 144.5q-213 117 -299 239t-86 279q0 236 135 369.5t377 133.5q229 0 366 -124t137 -334
q0 -179 -111 -307t-317 -189zM297 1055q0 -126 61.5 -216t196.5 -159q189 45 286 152t97 268q0 138 -85 222.5t-230 84.5q-158 0 -242 -90.5t-84 -261.5z" />
    <glyph glyph-name="uni018E" unicode="&#x18e;" horiz-adv-x="1139" 
d="M123 162h633v522h-596v160h596v456h-633v162h817v-1462h-817v162z" />
    <glyph glyph-name="uni018F" unicode="&#x18f;" horiz-adv-x="1513" 
d="M680 1323q-225 0 -467 -84v168q125 44 234 61t237 17q332 0 517 -200t185 -556q0 -350 -173.5 -549.5t-485.5 -199.5q-301 0 -453.5 188.5t-152.5 562.5v70h1071q-17 259 -146 390.5t-366 131.5zM727 141q205 0 327 130.5t138 367.5h-875q0 -255 100.5 -376.5
t309.5 -121.5z" />
    <glyph glyph-name="uni0190" unicode="&#x190;" horiz-adv-x="1204" 
d="M178 1120q0 167 124.5 265t340.5 98q132 0 254.5 -38.5t222.5 -113.5l-88 -125q-107 73 -193 99t-192 26q-130 0 -204 -62.5t-74 -166.5q0 -123 98.5 -195.5t296.5 -72.5h199v-154h-209q-225 0 -338 -67.5t-113 -198.5q0 -137 99 -210t286 -73q215 0 438 107v-168
q-184 -90 -448 -90q-276 0 -421.5 106t-145.5 313q0 156 95.5 248t280.5 117v8q-147 25 -228 115.5t-81 232.5z" />
    <glyph glyph-name="uni0191" unicode="&#x191;" horiz-adv-x="1063" 
d="M92 -492q-66 0 -115 27v156q42 -21 93 -21q72 0 100.5 41.5t28.5 126.5v1624h817v-162h-633v-518h594v-161h-594v-791q0 -322 -291 -322z" />
    <glyph glyph-name="florin" unicode="&#x192;" horiz-adv-x="1171" 
d="M330 -492q-73 0 -140 19v149q70 -18 129 -18q92 0 130 48t38 163v962h-215v84l215 62v133q0 193 81 283t266 90q93 0 210 -43l-45 -140q-102 33 -159 33q-94 0 -133 -50t-39 -171v-141h276v-140h-272v-962q0 -187 -82 -274t-260 -87z" />
    <glyph glyph-name="uni0193" unicode="&#x193;" horiz-adv-x="1491" 
d="M834 772h505v-717q-116 -37 -236 -56t-278 -19q-334 0 -517 198t-183 553q0 229 91 400t262.5 261.5t404.5 90.5q146 0 280 -35v35q0 132 55 203t181 71q59 0 123 -26v-148q-49 21 -107 21q-96 0 -96 -99v-108l-70 -160q-193 84 -377 84q-261 0 -408 -158t-147 -432
q0 -290 141 -441t410 -151q147 0 287 35v434h-321v164z" />
    <glyph glyph-name="uni0194" unicode="&#x194;" horiz-adv-x="1167" 
d="M684 221q68 -134 102.5 -248.5t34.5 -191.5q0 -121 -65.5 -197t-171.5 -76q-110 0 -174 77.5t-64 195.5q0 159 137 438l-483 1243h193q183 -486 279.5 -742t111.5 -341q20 104 102 323l287 760h194zM653 -215q0 54 -17.5 127.5t-51.5 138.5q-39 -77 -54.5 -147
t-15.5 -115q0 -63 19.5 -92t50.5 -29q69 0 69 117z" />
    <glyph glyph-name="uni0195" unicode="&#x195;" horiz-adv-x="1913" 
d="M1309 129q137 0 197.5 73.5t60.5 231.5v664h180v-670q0 -234 -104 -341t-334 -107q-226 0 -332.5 99.5t-106.5 301.5v321q0 134 -53.5 199.5t-169.5 65.5q-152 0 -222.5 -93.5t-70.5 -306.5v-567h-180v1556h180v-456q0 -90 -10 -154h12q50 85 135.5 127.5t184.5 42.5
q186 0 280.5 -95.5t94.5 -305.5v-322q0 -133 62.5 -198.5t195.5 -65.5z" />
    <glyph glyph-name="uni0196" unicode="&#x196;" horiz-adv-x="713" 
d="M367 1462v-1124q0 -99 37 -148t120 -49q44 0 91 7t77 16v-152q-26 -12 -82 -22t-112 -10q-164 0 -239 84.5t-75 257.5v1140h183z" />
    <glyph glyph-name="uni0197" unicode="&#x197;" horiz-adv-x="694" 
d="M610 0h-528v106l172 39v525h-184v159h184v486l-172 41v106h528v-106l-172 -41v-486h185v-159h-185v-525l172 -39v-106z" />
    <glyph glyph-name="uni0198" unicode="&#x198;" horiz-adv-x="1268" 
d="M670 829l598 -829h-217q-61 81 -248 353q-146 211 -258 347l-162 -157v-543h-184v1462h184v-737q57 72 123 148q44 50 379 460q59 77 111.5 109.5t136.5 32.5q62 0 102 -17v-143q-42 6 -90 6q-34 0 -64 -20t-75 -74z" />
    <glyph glyph-name="uni0199" unicode="&#x199;" horiz-adv-x="1094" 
d="M352 743l-8 -178h8l61 78l70 84l351 371h210l-444 -469l475 -629h-217l-381 512l-125 -109v-403h-178v1280q0 287 248 287q67 0 133 -27v-149q-47 20 -106 20q-47 0 -72 -27t-25 -92v-549z" />
    <glyph glyph-name="uni019A" unicode="&#x19a;" horiz-adv-x="528" 
d="M354 860h144v-135h-144v-725h-180v725h-143v135h143v696h180v-696z" />
    <glyph glyph-name="uni019B" unicode="&#x19b;" horiz-adv-x="1110" 
d="M-12 0l473 1077l-47 131l-217 -65l-39 129l202 61q-26 46 -60 66t-93 20q-62 0 -115 -12v145q68 17 135 17q109 0 178.5 -43t120.5 -142l224 68l38 -129l-208 -66l366 -1019q20 -57 43.5 -84t59.5 -27q24 0 61 10v-133q-50 -24 -117 -24q-74 0 -119 37t-77 128l-150 420
q-85 243 -102 326h-8q-33 -126 -113 -316l-250 -575h-186z" />
    <glyph glyph-name="uni019C" unicode="&#x19c;" horiz-adv-x="2109" 
d="M369 1462v-1036q0 -143 59 -215t188 -72q173 0 255.5 96.5t82.5 301.5v925h185v-1036q0 -143 59.5 -215t192.5 -72q172 0 252.5 102t80.5 337v884h185v-1462h-146l-30 168h-11q-51 -87 -151 -137.5t-219 -50.5q-139 0 -226.5 50t-132.5 154h-10q-58 -98 -163.5 -151
t-231.5 -53q-211 0 -307.5 108t-96.5 338v1036h185z" />
    <glyph glyph-name="uni019D" unicode="&#x19d;" horiz-adv-x="1556" 
d="M199 1462h213l45 -71l480 -742l255 -397h8q-2 24 -8 171.5t-6 213.5v825h172v-1462h-215l-783 1214h-8l5 -81q12 -182 12 -316v-987q0 -169 -69.5 -245.5t-207.5 -76.5q-66 0 -115 27v156q42 -21 93 -21q72 0 100.5 41.5t28.5 126.5v1624z" />
    <glyph glyph-name="uni019E" unicode="&#x19e;" horiz-adv-x="1266" 
d="M922 -492v1194q0 132 -59 198.5t-187 66.5q-169 0 -245.5 -95.5t-76.5 -302.5v-569h-180v1098h145l27 -150h10q51 81 143 125.5t203 44.5q202 0 300 -98t98 -305v-1207h-178z" />
    <glyph glyph-name="uni019F" unicode="&#x19f;" horiz-adv-x="1602" 
d="M1475 733q0 -351 -177.5 -552t-496.5 -201q-323 0 -499.5 197.5t-176.5 557.5q0 357 175.5 553.5t502.5 196.5q318 0 495 -199.5t177 -552.5zM801 139q222 0 343.5 133.5t133.5 393.5h-956q13 -260 134.5 -393.5t344.5 -133.5zM803 1323q-218 0 -340 -125.5t-141 -372.5
h954q-19 248 -138.5 373t-334.5 125z" />
    <glyph glyph-name="Ohorn" unicode="&#x1a0;" horiz-adv-x="1606" 
d="M1473 733q0 -354 -177.5 -553.5t-494.5 -199.5q-323 0 -499.5 196.5t-176.5 558.5q0 360 176.5 555t501.5 195t506 -213q68 19 99.5 81t31.5 203h194l15 -22q-31 -160 -98 -247t-171 -126q93 -174 93 -428zM319 733q0 -291 122 -442.5t360 -151.5q237 0 357 149.5
t120 444.5q0 292 -119.5 441t-355.5 149q-241 0 -362.5 -151t-121.5 -439z" />
    <glyph glyph-name="ohorn" unicode="&#x1a1;" horiz-adv-x="1262" 
d="M1128 551q0 -269 -136 -420t-376 -151q-149 0 -264 69.5t-177 199.5t-62 302q0 268 134 417.5t376 149.5q108 0 199 -36.5t157 -104.5q50 15 79.5 48.5t43.5 84t14 156.5h193l14 -23q-32 -161 -95 -248.5t-169 -126.5q69 -140 69 -317zM299 551q0 -216 79 -319t243 -103
q169 0 245 107t76 315q0 205 -77.5 310.5t-246.5 105.5t-244 -105.5t-75 -310.5z" />
    <glyph glyph-name="uni01A2" unicode="&#x1a2;" horiz-adv-x="2202" 
d="M1409 733q0 -354 -169 -553.5t-472 -199.5q-307 0 -475 197t-168 558q0 357 167.5 553.5t477.5 196.5q291 0 459 -187q57 88 159.5 137.5t225.5 49.5q209 0 306 -108t97 -339v-1038h-184v1038q0 144 -59 215.5t-189 71.5q-108 0 -177 -31t-108 -94q109 -189 109 -467z
M319 733q0 -290 114.5 -442t334.5 -152q219 0 332.5 150t113.5 444q0 293 -112.5 441.5t-331.5 148.5q-222 0 -336.5 -150.5t-114.5 -439.5z" />
    <glyph glyph-name="uni01A3" unicode="&#x1a3;" horiz-adv-x="1731" 
d="M1077 551q0 -270 -129.5 -420.5t-355.5 -150.5q-142 0 -251.5 69.5t-168.5 200.5t-59 301q0 267 127.5 417t355.5 150q217 0 346 -147q53 75 130.5 111t164.5 36q164 0 246 -96t82 -307v-1207h-179v1199q0 260 -188 260q-130 0 -192 -90q71 -130 71 -326zM299 551
q0 -207 75 -314.5t220 -107.5t221 107t76 315q0 206 -75.5 311t-221.5 105q-295 0 -295 -416z" />
    <glyph glyph-name="uni01A4" unicode="&#x1a4;" horiz-adv-x="1403" 
d="M547 727h147q218 0 316 70.5t98 226.5q0 141 -91 211t-284 70h-186v-578zM750 1462q548 0 548 -430q0 -223 -152 -343t-431 -120h-168v-569h-185v1305h-53q-125 0 -125 -103q0 -61 21 -110h-162q-9 21 -16 54t-7 58q0 133 70.5 195.5t218.5 62.5h441z" />
    <glyph glyph-name="uni01A5" unicode="&#x1a5;" horiz-adv-x="1260" 
d="M424 1567q67 0 133 -27v-149q-47 20 -106 20q-47 0 -72 -27t-25 -92v-164q0 -61 -8 -139l-4 -41h12q64 90 148 130t194 40q214 0 332.5 -148.5t118.5 -418.5q0 -269 -119 -420t-334 -151q-221 0 -340 159h-12l4 -41q8 -78 8 -139v-451h-180l2 1772q0 287 248 287z
M664 967q-163 0 -235.5 -92t-74.5 -289v-35q0 -223 74 -322.5t240 -99.5q138 0 215.5 112t77.5 312q0 201 -77.5 307.5t-219.5 106.5z" />
    <glyph glyph-name="uni01A6" unicode="&#x1a6;" horiz-adv-x="1274" 
d="M383 555h219q178 0 260 70t82 209q0 138 -83 201t-269 63h-209v-543zM383 399v-399h-184v1462h184v-205h219q272 0 402.5 -103.5t130.5 -311.5q0 -290 -293 -391l401 -656h-215l-354 604h-291z" />
    <glyph glyph-name="uni01A7" unicode="&#x1a7;" horiz-adv-x="1124" 
d="M96 391q0 99 41 172t125 130t254 120q140 52 202.5 90.5t90 86t27.5 118.5q0 101 -73.5 157t-203.5 56q-147 0 -315 -78l-58 158q175 82 369 82q209 0 338 -101t129 -272q0 -156 -85 -257.5t-292 -176.5q-159 -58 -230.5 -99t-102.5 -88t-31 -114q0 -110 82.5 -173
t246.5 -63q186 0 410 97v-177q-69 -34 -174 -56.5t-228 -22.5q-245 0 -383.5 110t-138.5 301z" />
    <glyph glyph-name="uni01A8" unicode="&#x1a8;" horiz-adv-x="981" 
d="M92 303q0 76 31 131t95.5 99t203.5 96q181 69 232 108.5t51 100.5q0 62 -58 97.5t-170 35.5q-103 0 -270 -70l-62 143q165 74 320 74q201 0 306.5 -75t105.5 -216q0 -76 -29.5 -129t-92.5 -95.5t-218 -102.5q-108 -41 -165.5 -73t-81.5 -63.5t-24 -76.5q0 -80 65.5 -121
t194.5 -41q172 0 348 88v-164q-128 -69 -344 -69q-438 0 -438 323z" />
    <glyph glyph-name="uni01A9" unicode="&#x1a9;" horiz-adv-x="1167" 
d="M74 0v152l479 612l-467 545v153h973v-164h-666l-96 2l461 -534l-482 -606l334 2h508v-162h-1044z" />
    <glyph glyph-name="uni01AA" unicode="&#x1aa;" horiz-adv-x="633" 
d="M137 1110q-123 0 -187.5 60t-64.5 169q0 110 67 169t189 59q130 0 198.5 -74t68.5 -215v-1425q0 -100 37 -148.5t120 -48.5q39 0 89.5 6.5t78.5 15.5v-137q-31 -14 -85.5 -23.5t-106.5 -9.5q-163 0 -237.5 84.5t-74.5 257.5v1260h-92zM129 1419q-44 0 -62 -24.5
t-18 -55.5q0 -82 101 -82h79v27q0 72 -25 103.5t-75 31.5z" />
    <glyph glyph-name="uni01AB" unicode="&#x1ab;" horiz-adv-x="739" 
d="M455 -492q-60 0 -123 25v150q46 -19 102 -19q98 0 98 107v209h-22q-322 0 -322 339v639h-155v86l157 72l72 234h107v-252h317v-140h-317v-634q0 -95 45.5 -146t126.5 -51q35 0 82 7t71 16v-369q0 -273 -239 -273z" />
    <glyph glyph-name="uni01AC" unicode="&#x1ac;" horiz-adv-x="1180" 
d="M309 1300q-125 0 -125 -98q0 -61 21 -110h-162q-9 21 -16 54t-7 58q0 133 70.5 195.5t218.5 62.5h848v-162h-455v-1300h-184v1300h-209z" />
    <glyph glyph-name="uni01AD" unicode="&#x1ad;" horiz-adv-x="739" 
d="M369 1098h317v-140h-317v-634q0 -95 45.5 -146t126.5 -51q35 0 82 7t71 16v-138q-25 -11 -77.5 -21.5t-106.5 -10.5q-322 0 -322 339v639h-155v86l157 72v135q0 316 302 316q79 0 157 -27v-149q-23 8 -70.5 14t-86.5 6q-65 0 -94 -35t-29 -104v-174z" />
    <glyph glyph-name="uni01AE" unicode="&#x1ae;" horiz-adv-x="1139" 
d="M477 1300h-457v162h1096v-162h-454v-1462q0 -87 29 -127.5t100 -40.5q50 0 92 21v-156q-49 -27 -129 -27q-139 0 -208 76.5t-69 245.5v1470z" />
    <glyph glyph-name="Uhorn" unicode="&#x1af;" horiz-adv-x="1597" 
d="M1311 1462v-198q82 11 120.5 75.5t38.5 216.5h191l14 -22q-33 -185 -121 -278t-243 -119v-621q0 -256 -144.5 -396t-410.5 -140q-272 0 -422 144t-150 396v942h185v-950q0 -177 97 -275t294 -98q180 0 274 95t94 280v948h183z" />
    <glyph glyph-name="uhorn" unicode="&#x1b0;" horiz-adv-x="1380" 
d="M344 1096v-705q0 -133 59.5 -197.5t184.5 -64.5q169 0 246 94t77 303v570h181v-121q80 13 116.5 77t36.5 216h191l14 -23q-32 -191 -120.5 -285.5t-237.5 -111.5v-848h-148l-26 145h-9q-50 -79 -139 -122t-205 -43q-201 0 -302 95t-101 304v717h182z" />
    <glyph glyph-name="uni01B1" unicode="&#x1b1;" horiz-adv-x="1602" 
d="M801 139q234 0 354.5 127.5t120.5 374.5q0 225 -83 386.5t-259 287.5v147h590v-162h-365q151 -116 231 -288t80 -377q0 -308 -177.5 -483t-491.5 -175q-318 0 -495 174t-177 482q0 205 80 379t229 288h-362v162h590v-147q-179 -128 -261.5 -291t-82.5 -383
q0 -246 121.5 -374t357.5 -128z" />
    <glyph glyph-name="uni01B2" unicode="&#x1b2;" horiz-adv-x="1229" 
d="M1169 1188q0 -109 -92 -322l-370 -866h-185l-522 1462h193l331 -954q63 -180 92 -320q17 61 55 149q43 102 66 167l174 416q74 181 74 256q0 80 -33 112.5t-96 32.5q-50 0 -92 -21v156q46 27 129 27q276 0 276 -295z" />
    <glyph glyph-name="uni01B3" unicode="&#x1b3;" horiz-adv-x="1159" 
d="M80 1329q-43 0 -80 -16v149q58 23 123 23q75 0 121 -35.5t84 -118.5l262 -588l371 719h198l-477 -895v-567h-184v559l-332 698q-36 72 -86 72z" />
    <glyph glyph-name="uni01B4" unicode="&#x1b4;" horiz-adv-x="1110" 
d="M993 1118q67 0 117 -24v-133q-37 10 -61 10q-36 0 -58.5 -27t-44.5 -84l-375 -1012q-65 -179 -161.5 -259.5t-237.5 -80.5q-75 0 -149 17v143q50 -12 120 -12q174 0 248 194l53 146l-442 1102h193l237 -625q75 -204 92 -299h8q17 73 99 301l155 445q39 111 84.5 154.5
t122.5 43.5z" />
    <glyph glyph-name="uni01B5" unicode="&#x1b5;" horiz-adv-x="1171" 
d="M162 834h377l309 464h-746v164h969v-139l-326 -489h250v-146h-346l-348 -524h791v-164h-1014v139l364 549h-280v146z" />
    <glyph glyph-name="uni01B6" unicode="&#x1b6;" horiz-adv-x="963" 
d="M117 641h329l224 317h-555v140h753v-135l-227 -322h207v-143h-309l-252 -359h596v-139h-803v119l266 379h-229v143z" />
    <glyph glyph-name="uni01B7" unicode="&#x1b7;" horiz-adv-x="1196" 
d="M596 901q139 -4 251 -61t174 -156.5t62 -230.5q0 -224 -155 -348.5t-434 -124.5q-259 0 -422 79v168q100 -48 213 -72t211 -24q199 0 297 84t98 240q0 142 -101 219.5t-294 77.5h-127v133l422 413h-678v164h909v-145z" />
    <glyph glyph-name="uni01B8" unicode="&#x1b8;" horiz-adv-x="1196" 
d="M174 1317v145h909v-164h-675l419 -413v-133h-159q-173 0 -268 -83t-95 -233q0 -145 101 -225t294 -80q100 0 212.5 24t211.5 72v-168q-92 -44 -201 -61.5t-245 -17.5q-179 0 -306 55.5t-193 157.5t-66 239q0 139 61.5 243.5t172.5 163t253 62.5z" />
    <glyph glyph-name="uni01B9" unicode="&#x1b9;" horiz-adv-x="1020" 
d="M125 967v131h838v-152h-627l448 -497v-125h-120q-206 0 -310 -87t-104 -255q0 -146 96.5 -235t257.5 -89q204 0 387 86v-164q-140 -72 -401 -72q-232 0 -376 129.5t-144 339.5q0 216 131.5 344.5t371.5 145.5z" />
    <glyph glyph-name="uni01BA" unicode="&#x1ba;" horiz-adv-x="1020" 
d="M442 -342q172 0 328 74v-164q-122 -60 -330 -60q-185 0 -284 64t-99 180q0 128 95 188t282 60q163 0 234 56t71 194q0 122 -91 179.5t-292 57.5h-120v125l374 334h-553v152h807v-131l-383 -336q212 -10 325.5 -105.5t113.5 -273.5q0 -195 -122 -298.5t-360 -103.5
q-108 0 -159.5 -21t-51.5 -77q0 -43 54.5 -68.5t160.5 -25.5z" />
    <glyph glyph-name="uni01BB" unicode="&#x1bb;" horiz-adv-x="1167" 
d="M160 858h493q56 90 80.5 167.5t24.5 166.5q0 103 -61 160t-169 57q-93 0 -167.5 -34t-149.5 -101l-96 121q191 172 417 172q192 0 302 -99.5t110 -271.5q0 -86 -21.5 -166.5t-72.5 -171.5h205v-143h-295q-22 -33 -48 -66.5t-413 -496.5v-9h766v-143h-967v150l359 440
l96 125h-393v143z" />
    <glyph glyph-name="uni01BC" unicode="&#x1bc;" horiz-adv-x="1196" 
d="M459 1298v-395h86q158 0 281 -55t190 -157t67 -238q0 -224 -155 -348.5t-434 -124.5q-259 0 -422 79v168q100 -48 213 -72t211 -24q199 0 297 84t98 240q0 139 -96 218t-267 79h-254v546h-161v164h909v-164h-563z" />
    <glyph glyph-name="uni01BD" unicode="&#x1bd;" horiz-adv-x="1004" 
d="M406 946v-239h47q219 0 338.5 -95t119.5 -278q0 -167 -124 -260.5t-345 -93.5q-242 0 -374 71v162q183 -86 372 -86q141 0 217 54.5t76 162.5q0 109 -77 162t-236 53h-195v387h-127v152h746v-152h-438z" />
    <glyph glyph-name="uni01BE" unicode="&#x1be;" horiz-adv-x="948" 
d="M279 774v184h-187v86l189 72l71 234h107v-252h317v-140h-317v-188q0 -69 21 -101.5t75 -50.5q169 -63 235 -136t66 -179q0 -154 -115 -238.5t-323 -84.5q-216 0 -344 69v164q176 -88 348 -88q136 0 198 44t62 118q0 60 -49.5 102t-183.5 96q-97 41 -133.5 107t-36.5 182z
" />
    <glyph glyph-name="uni01BF" unicode="&#x1bf;" horiz-adv-x="1202" 
d="M354 -492h-180v1590h148l24 -150h8q112 170 324 170q196 0 311 -121t115 -335q0 -187 -93.5 -337.5t-266 -241t-390.5 -103.5v-472zM354 127q268 35 416 175t148 355q0 142 -74 226t-203 84q-149 0 -218 -90t-69 -291v-459z" />
    <glyph glyph-name="uni01C0" unicode="&#x1c0;" horiz-adv-x="1057" 
d="M608 -492h-159v2048h159v-2048z" />
    <glyph glyph-name="uni01C1" unicode="&#x1c1;" horiz-adv-x="1057" 
d="M345 -492h-159v2048h159v-2048zM872 -492h-159v2048h159v-2048z" />
    <glyph glyph-name="uni01C2" unicode="&#x1c2;" horiz-adv-x="1057" 
d="M133 823h316v733h159v-733h316v-147h-316v-254h316v-148h-316v-766h-159v766h-316v148h316v254h-316v147z" />
    <glyph glyph-name="uni01C3" unicode="&#x1c3;" horiz-adv-x="551" 
d="M334 412h-117l-51 1050h219zM147 111q0 66 32.5 101.5t94.5 35.5t94.5 -36.5t32.5 -100.5t-33.5 -102t-93.5 -38q-61 0 -94 37t-33 103z" />
    <glyph glyph-name="uni01C4" unicode="&#x1c4;" horiz-adv-x="2646" 
d="M1694 1907h123q114 -74 219 -189q126 126 223 189h127v-27q-205 -205 -256 -301h-184q-60 102 -252 301v27zM402 952l-45 22q18 113 106 147q28 10 59 10q86 0 151 -65q65 -64 65 -144q1 -104 -44 -240q-108 -323 -382 -628l-69 -73q-39 -35 -53 -37q-43 1 -83 83
q13 37 130.5 416t164.5 509zM491 1019q0 -83 -31.5 -187.5t-45 -149t-77 -232.5t-94.5 -311q77 81 151 194q4 6 7 10q228 353 228 663q0 35 -19 41q-6 1 -12 1q-63 -1 -107 -29zM2301 1036l-428 -16q-27 0 -58 4q-116 17 -116 59q0 15 30 17h2l199 16q158 9 283 9h196
q33 0 50 -43q5 -13 4 -25.5t-41 -16.5q-12 -17 -31 -38l-783 -898q58 4 206 17q147 13 181 14q134 4 157 -42q5 -8 5 -15q1 -12 -11 -14.5t-20 -3.5l-168 -23q-154 -15 -259 -18.5t-167 -6.5q-22 -24 -57 -24t-38.5 25t3.5 42.5t52 68.5z" />
    <glyph glyph-name="uni01C5" unicode="&#x1c5;" horiz-adv-x="2458" 
d="M1638 1569h123q114 -74 219 -189q126 126 223 189h127v-27q-205 -205 -256 -301h-184q-60 102 -252 301v27zM402 952l-45 22q18 113 106 147q28 10 59 10q86 0 151 -65q65 -64 65 -144q1 -104 -44 -240q-108 -323 -382 -628l-69 -73q-39 -35 -53 -37q-43 1 -83 83
q13 37 130.5 416t164.5 509zM491 1019q0 -83 -31.5 -187.5t-45 -149t-77 -232.5t-94.5 -311q77 81 151 194q4 6 7 10q228 353 228 663q0 35 -19 41q-6 1 -12 1q-63 -1 -107 -29zM2139 739q-4 -1 -26 -11q-230 -99 -297 -99q-37 0 -58 15.5t-22 25.5q2 13 38 24q39 13 153 54
q204 74 236 74q34 0 63.5 -21t29.5 -41.5t-31.5 -60.5t-166.5 -189t-173 -200l611 352q7 4 8 4q16 -5 17 -31q2 -27 -4 -31q-24 -16 -47 -29l-136 -85q-300 -186 -455.5 -302t-286.5 -258q-11 -10 -21 -10q-29 0 -49 30t-20 43.5t5 20.5q82 100 348 402z" />
    <glyph glyph-name="uni01C6" unicode="&#x1c6;" horiz-adv-x="2222" 
d="M1407 1569h123q114 -74 219 -189q126 126 223 189h127v-27q-205 -205 -256 -301h-184q-60 102 -252 301v27zM982 1310q-186 -306 -379 -881l-41 -116q-107 -295 -108 -388q2 -16 32 -44q29 -23 29 -44q-2 -57 -43 -63q-25 0 -45 18q-40 37 -40 120q0 154 65.5 338.5
t77.5 229.5l-103 -135q-138 -181 -251 -291q-9 -5 -51.5 -40.5t-102.5 -35.5q-17 0 -31 6q-49 20 -49 90q0 36 66 156t226.5 312t219 216t124.5 24q26 18 55 52t69 118l52 110q17 34 60 128.5t68 144.5q103 206 171 206q67 -1 69 -66q0 -49 -41 -107t-99 -58zM490 619
q10 30 10 40.5t-4 12.5q-7 0 -62 -53q-218 -204 -356 -441q-32 -56 -32 -71t7 -17q9 0 28 13q71 48 218 219t191 297zM1904 739q-4 -1 -26 -11q-230 -99 -297 -99q-37 0 -58 15.5t-22 25.5q2 13 38 24q39 13 153 54q204 74 236 74q34 0 63.5 -21t29.5 -41.5t-31.5 -60.5
t-166.5 -189t-173 -200l611 352q7 4 8 4q16 -5 17 -31q2 -27 -4 -31q-24 -16 -47 -29l-136 -85q-300 -186 -455.5 -302t-286.5 -258q-11 -10 -21 -10q-29 0 -49 30t-20 43.5t5 20.5q82 100 348 402z" />
    <glyph glyph-name="uni01C7" unicode="&#x1c7;" horiz-adv-x="1632" 
d="M389 1125q63 98 143.5 153t132.5 55t52 -21q0 -8 -24 -14h-2q-193 -44 -303 -383q-24 -76 -110.5 -437.5t-93.5 -386.5l-10 -37q213 8 418 8q32 0 49 -41q5 -13 5 -23q-1 -20 -98.5 -21t-281.5 -13t-189 -12q-36 0 -36 25t23.5 100.5t93.5 369.5l31 127q95 385 200 551z
M1271 -168q-135 -411 -297 -550q-73 -64 -123 -64q-56 -1 -57 27q0 8 13.5 12t13.5 5q72 24 141 117q24 33 41 66q107 219 188 497t208 872q6 27 22.5 113t26 124.5t14.5 72.5t20.5 46t66.5 12q29 -2 30 -27q0 -11 -24.5 -110.5t-116.5 -544t-167 -668.5z" />
    <glyph glyph-name="uni01C8" unicode="&#x1c8;" horiz-adv-x="1602" 
d="M389 1125q63 98 143.5 153t132.5 55t52 -21q0 -8 -24 -14h-2q-193 -44 -303 -383q-24 -76 -110.5 -437.5t-93.5 -386.5l-10 -37q213 8 418 8q32 0 49 -41q5 -13 5 -23q-1 -20 -98.5 -21t-281.5 -13t-189 -12q-36 0 -36 25t23.5 100.5t93.5 369.5l31 127q95 385 200 551z
M1385 765q0 -14 -47 -202l-145 -583q-98 -395 -198 -553q-34 -53 -84 -102q-109 -106 -201 -106q-43 0 -43 21q1 8 27.5 14t58.5 25q71 42 118 118q130 209 212 582q57 262 116 489t65.5 260.5t12.5 42.5q15 23 78 23q28 -1 30 -29zM1380 918q-5 1 -25 15q-24 17 -24 27
q0 27 74.5 127t85.5 119q6 7 23 7.5t43 -29.5q33 -39 25.5 -67.5t-85.5 -113t-117 -85.5z" />
    <glyph glyph-name="uni01C9" unicode="&#x1c9;" horiz-adv-x="1057" 
d="M85 -62q0 -81 32 -156q54 -126 160 -126q83 0 139.5 42.5t133.5 139.5q24 31 50 21q26 -9 26 -41q0 -94 -111.5 -161t-212.5 -67q-299 0 -299 354q0 155 58 323l10 29q187 536 290 719q72 132 156 132q119 -1 121 -86q0 -53 -71 -167.5t-285 -399.5q-54 -61 -96 -138
q-101 -190 -101 -418zM269 606q15 1 138.5 216.5t122.5 223t-8 8t-9 -1.5q-33 -20 -139.5 -212.5t-106.5 -228.5q0 -3 2 -5zM840 765q0 -14 -47 -202l-145 -583q-98 -395 -198 -553q-34 -53 -84 -102q-109 -106 -201 -106q-43 0 -43 21q1 8 27.5 14t58.5 25q71 42 118 118
q130 209 212 582q57 262 116 489t65.5 260.5t12.5 42.5q15 23 78 23q28 -1 30 -29zM835 918q-5 1 -25 15q-24 17 -24 27q0 27 74.5 127t85.5 119q6 7 23 7.5t43 -29.5q33 -39 25.5 -67.5t-85.5 -113t-117 -85.5z" />
    <glyph glyph-name="uni01CA" unicode="&#x1ca;" horiz-adv-x="2116" 
d="M352 -79l10 470q0 36 -2 84q-224 -646 -277 -773q-41 -78 -95 -82q-6 2 -6 7t20 47q33 67 192 596q242 809 251 883q10 52 44 52q73 0 78 -37q-3 -32 -45 -216.5t-45.5 -214t-17 -119t-13.5 -120t2 -38.5q25 83 80 299t80.5 286.5t29.5 84.5q81 244 128 244
q13 0 36 -16.5t23 -39.5t-20 -57q-68 -116 -166 -379q-191 -514 -201 -867v-1q-4 -134 -38 -134q-14 0 -24 2q-24 6 -24 39zM1754 -168q-135 -411 -297 -550q-73 -64 -123 -64q-56 -1 -57 27q0 8 13.5 12t13.5 5q72 24 141 117q24 33 41 66q107 219 188 497t208 872
q6 27 22.5 113t26 124.5t14.5 72.5t20.5 46t66.5 12q29 -2 30 -27q0 -11 -24.5 -110.5t-116.5 -544t-167 -668.5z" />
    <glyph glyph-name="uni01CB" unicode="&#x1cb;" horiz-adv-x="2085" 
d="M352 -79l10 470q0 36 -2 84q-224 -646 -277 -773q-41 -78 -95 -82q-6 2 -6 7t20 47q33 67 192 596q242 809 251 883q10 52 44 52q73 0 78 -37q-3 -32 -45 -216.5t-45.5 -214t-17 -119t-13.5 -120t2 -38.5q25 83 80 299t80.5 286.5t29.5 84.5q81 244 128 244
q13 0 36 -16.5t23 -39.5t-20 -57q-68 -116 -166 -379q-191 -514 -201 -867v-1q-4 -134 -38 -134q-14 0 -24 2q-24 6 -24 39zM1868 765q0 -14 -47 -202l-145 -583q-98 -395 -198 -553q-34 -53 -84 -102q-109 -106 -201 -106q-43 0 -43 21q1 8 27.5 14t58.5 25q71 42 118 118
q130 209 212 582q57 262 116 489t65.5 260.5t12.5 42.5q15 23 78 23q28 -1 30 -29zM1863 918q-5 1 -25 15q-24 17 -24 27q0 27 74.5 127t85.5 119q6 7 23 7.5t43 -29.5q33 -39 25.5 -67.5t-85.5 -113t-117 -85.5z" />
    <glyph glyph-name="uni01CC" unicode="&#x1cc;" horiz-adv-x="1794" 
d="M804 374q0 -50 -114 -184t-170.5 -176.5t-113.5 -42.5q-106 1 -106 168q0 79 32 247.5t34 183.5q-106 -35 -203 -266q-20 -49 -64 -167q-43 -117 -61 -139q-22 -26 -58 -26t-37 26q0 48 321 796q50 118 58 132q17 33 71 -3q16 -11 16.5 -22t-15.5 -35q-37 -58 -66 -135
l-38 -99l32 39q43 53 69 80.5t43.5 31t36.5 3.5q41 -3 43 -44q0 -20 -14 -54q-63 -145 -97 -439q-9 -84 -8.5 -147.5t30.5 -64.5q42 0 153 130.5t160 216.5q13 21 37 22q25 -6 29 -32zM1578 765q0 -14 -47 -202l-145 -583q-98 -395 -198 -553q-34 -53 -84 -102
q-109 -106 -201 -106q-43 0 -43 21q1 8 27.5 14t58.5 25q71 42 118 118q130 209 212 582q57 262 116 489t65.5 260.5t12.5 42.5q15 23 78 23q28 -1 30 -29zM1573 918q-5 1 -25 15q-24 17 -24 27q0 27 74.5 127t85.5 119q6 7 23 7.5t43 -29.5q33 -39 25.5 -67.5t-85.5 -113
t-117 -85.5z" />
    <glyph glyph-name="uni01CD" unicode="&#x1cd;" horiz-adv-x="1309" 
d="M307 1934h123q114 -74 219 -189q126 126 223 189h127v-27q-205 -205 -256 -301h-184q-60 102 -252 301v27zM508 -163q0 -63 -44 -63q-24 0 -43 16q-45 39 -45 121.5t11.5 168.5t69.5 312q-92 -11 -140 -13q-159 -267 -328 -464q-13 -12 -37.5 -11.5t-26.5 16.5
q0 17 29 60t34 49l223 350q-153 1 -188 16t-35 48q0 15 22 19q164 16 268 24l223 370l64 275q8 36 39 36.5t54 -4.5q70 -16 70 -64q0 -7 -33 -154t-113 -440q83 4 220 4q10 -1 23 -19.5t14 -49.5q-1 -21 -83 -23.5t-201 -13.5q-108 -417 -108 -478q2 -16 31 -44
q29 -23 30 -44zM402 530l-20 -37l102 7q19 85 28 148q-3 27 -45.5 -25.5t-64.5 -92.5z" />
    <glyph glyph-name="uni01CE" unicode="&#x1ce;" horiz-adv-x="1149" 
d="M230 1569h123q114 -74 219 -189q126 126 223 189h127v-27q-205 -205 -256 -301h-184q-60 102 -252 301v27zM527 653q-160 -27 -279 -210q-116 -178 -122 -352q229 302 401 562zM481 738l59 -8q14 0 29.5 16t40 16t39 -13t14.5 -22.5t-10 -31.5t-12 -29
q-133 -417 -133 -532q1 -40 18 -41q61 0 191 160q87 107 112.5 157t40.5 53q3 0 5 1q18 -2 19 -21q0 -36 -83 -162q-177 -270 -306 -270q-93 0 -93 130q0 62 25 154.5t30 115.5q-23 -30 -154 -218t-188 -222q-18 -10 -31 -11q-57 0 -83 45q-12 22 -12.5 63.5t61.5 191.5
q100 242 227 373q100 102 194 105z" />
    <glyph glyph-name="uni01CF" unicode="&#x1cf;" horiz-adv-x="694" 
d="M3 1934h123q114 -74 219 -189q126 126 223 189h127v-27q-205 -205 -256 -301h-184q-60 102 -252 301v27zM379 1075q4 15 10.5 49t21.5 46t54.5 11t40 -19t-112 -473t-151 -582t-70.5 -185t-86.5 -106t-78.5 -47t-25 10q0 9 12 27q115 175 204 533z" />
    <glyph glyph-name="uni01D0" unicode="&#x1d0;" horiz-adv-x="528" 
d="M-81 1569h123q114 -74 219 -189q126 126 223 189h127v-27q-205 -205 -256 -301h-184q-60 102 -252 301v27zM597 294q-37 -104 -147 -212q-130 -128 -218 -128q-119 0 -149 135q-9 41 -9 89q0 155 60 359q75 258 141 258q33 0 48.5 -15.5t15.5 -22.5q0 -32 -65 -157.5
t-80.5 -182t-23 -147t-7.5 -116.5q0 -88 21.5 -110t52.5 -23q88 0 210 153q59 75 92 138q15 24 31 24q27 -4 30 -27q0 -3 -3 -15z" />
    <glyph glyph-name="uni01D1" unicode="&#x1d1;" horiz-adv-x="1599" 
d="M453 1934h123q114 -74 219 -189q126 126 223 189h127v-27q-205 -205 -256 -301h-184q-60 102 -252 301v27zM219 -42q-100 0 -100 121t80.5 426t178.5 522q20 43 23 51q38 74 93 74t76 -29q51 -61 57 -170t-4 -183q-53 -405 -196 -610l-20 -30q-115 -172 -188 -172z
M554 924q-11 94 -30 93q-73 -4 -213 -505q-77 -277 -77 -350q1 -2 2.5 -15.5t11.5 -13.5q13 1 38 28q69 79 150 263q121 273 121 462q0 15 -3 38z" />
    <glyph glyph-name="uni01D2" unicode="&#x1d2;" horiz-adv-x="1239" 
d="M272 1569h123q114 -74 219 -189q126 126 223 189h127v-27q-205 -205 -256 -301h-184q-60 102 -252 301v27zM317 702q-50 -8 -129 -250t-79 -286t8 -44q42 0 131 180.5t89 330.5q0 68 -20 69zM301 826q28 0 48 -16q35 -30 35 -116q0 -393 -140 -589l-14 -21
q-87 -126 -140 -126q-65 7 -75 95q0 73 59.5 296t136.5 386q44 90 90 91z" />
    <glyph glyph-name="uni01D3" unicode="&#x1d3;" horiz-adv-x="1497" 
d="M401 1934h123q114 -74 219 -189q126 126 223 189h127v-27q-205 -205 -256 -301h-184q-60 102 -252 301v27zM285 145q12 1 28 18q160 185 338 603q8 18 70 168.5t83 162.5q6 3 28 3.5t31 -11t9 -36.5t-16 -66q-100 -248 -173 -528q-35 -139 -35 -258t4 -140t-12.5 -40
t-29 -26.5t-34.5 1.5q-22 8 -32 30q-11 24 1.5 137t34.5 211l25 108q-116 -254 -205 -378t-173 -125q-52 2 -52 96q0 141 85 446t124.5 406.5t47.5 126.5q21 57 64 56.5t44 -41.5q0 -30 -23 -90q-189 -504 -232 -834z" />
    <glyph glyph-name="uni01D4" unicode="&#x1d4;" horiz-adv-x="1266" 
d="M287 1569h123q114 -74 219 -189q126 126 223 189h127v-27q-205 -205 -256 -301h-184q-60 102 -252 301v27zM296 845q41 -15 42 -40q0 -9 -14 -49l-38 -109q-134 -384 -151 -508q74 113 178.5 322.5t126.5 250.5t33.5 70t21.5 32.5t37 3.5q40 0 40 -37
q-3 -19 -42.5 -124.5t-85 -282t-45 -248t13.5 -73.5q44 0 158.5 125.5t167.5 226.5q22 40 42 41q10 -2 11 -16q0 -84 -111.5 -219t-191.5 -190l-20 -13q-34 -18 -50 -18h-17q-88 15 -90 148q0 66 20 136l22 81q-98 -215 -163.5 -295.5t-118.5 -80.5q-40 2 -40 72
q0 116 82 389q116 385 146 407q6 3 14 3t22 -5z" />
    <glyph glyph-name="uni01D5" unicode="&#x1d5;" horiz-adv-x="1497" 
d="M1041 1669q0 -48 -25.5 -74t-71.5 -26t-71 27t-25 73q0 53 29 78t67 25q41 0 69 -25t28 -78zM656 1669q0 -53 -28 -76.5t-67 -23.5q-46 0 -71 27t-25 73q0 53 29 78t67 25q39 0 67 -25t28 -78zM449 2050h608v-145h-608v145zM285 145q12 1 28 18q160 185 338 603
q8 18 70 168.5t83 162.5q6 3 28 3.5t31 -11t9 -36.5t-16 -66q-100 -248 -173 -528q-35 -139 -35 -258t4 -140t-12.5 -40t-29 -26.5t-34.5 1.5q-22 8 -32 30q-11 24 1.5 137t34.5 211l25 108q-116 -254 -205 -378t-173 -125q-52 2 -52 96q0 141 85 446t124.5 406.5
t47.5 126.5q21 57 64 56.5t44 -41.5q0 -30 -23 -90q-189 -504 -232 -834z" />
    <glyph glyph-name="uni01D6" unicode="&#x1d6;" horiz-adv-x="1266" 
d="M916 1331q0 -48 -25.5 -74t-71.5 -26t-71 27t-25 73q0 53 29 78t67 25q41 0 69 -25t28 -78zM531 1331q0 -53 -28 -76.5t-67 -23.5q-46 0 -71 27t-25 73q0 53 29 78t67 25q39 0 67 -25t28 -78zM324 1712h608v-145h-608v145zM296 845q41 -15 42 -40q0 -9 -14 -49l-38 -109
q-134 -384 -151 -508q74 113 178.5 322.5t126.5 250.5t33.5 70t21.5 32.5t37 3.5q40 0 40 -37q-3 -19 -42.5 -124.5t-85 -282t-45 -248t13.5 -73.5q44 0 158.5 125.5t167.5 226.5q22 40 42 41q10 -2 11 -16q0 -84 -111.5 -219t-191.5 -190l-20 -13q-34 -18 -50 -18h-17
q-88 15 -90 148q0 66 20 136l22 81q-98 -215 -163.5 -295.5t-118.5 -80.5q-40 2 -40 72q0 116 82 389q116 385 146 407q6 3 14 3t22 -5z" />
    <glyph glyph-name="uni01D7" unicode="&#x1d7;" horiz-adv-x="1497" 
d="M1022 1669q0 -48 -25.5 -74t-71.5 -26t-71 27t-25 73q0 53 29 78t67 25q41 0 69 -25t28 -78zM637 1669q0 -53 -28 -76.5t-67 -23.5q-46 0 -71 27t-25 73q0 53 29 78t67 25q39 0 67 -25t28 -78zM624 1849q149 173 197 273h215v-21q-57 -89 -291 -276h-121v24zM285 145
q12 1 28 18q160 185 338 603q8 18 70 168.5t83 162.5q6 3 28 3.5t31 -11t9 -36.5t-16 -66q-100 -248 -173 -528q-35 -139 -35 -258t4 -140t-12.5 -40t-29 -26.5t-34.5 1.5q-22 8 -32 30q-11 24 1.5 137t34.5 211l25 108q-116 -254 -205 -378t-173 -125q-52 2 -52 96
q0 141 85 446t124.5 406.5t47.5 126.5q21 57 64 56.5t44 -41.5q0 -30 -23 -90q-189 -504 -232 -834z" />
    <glyph glyph-name="uni01D8" unicode="&#x1d8;" horiz-adv-x="1266" 
d="M914 1331q0 -48 -25.5 -74t-71.5 -26t-71 27t-25 73q0 53 29 78t67 25q41 0 69 -25t28 -78zM529 1331q0 -53 -28 -76.5t-67 -23.5q-46 0 -71 27t-25 73q0 53 29 78t67 25q39 0 67 -25t28 -78zM516 1511q149 173 197 273h215v-21q-57 -89 -291 -276h-121v24zM296 845
q41 -15 42 -40q0 -9 -14 -49l-38 -109q-134 -384 -151 -508q74 113 178.5 322.5t126.5 250.5t33.5 70t21.5 32.5t37 3.5q40 0 40 -37q-3 -19 -42.5 -124.5t-85 -282t-45 -248t13.5 -73.5q44 0 158.5 125.5t167.5 226.5q22 40 42 41q10 -2 11 -16q0 -84 -111.5 -219
t-191.5 -190l-20 -13q-34 -18 -50 -18h-17q-88 15 -90 148q0 66 20 136l22 81q-98 -215 -163.5 -295.5t-118.5 -80.5q-40 2 -40 72q0 116 82 389q116 385 146 407q6 3 14 3t22 -5z" />
    <glyph glyph-name="uni01D9" unicode="&#x1d9;" horiz-adv-x="1497" 
d="M1032 1669q0 -48 -25.5 -74t-71.5 -26t-71 27t-25 73q0 53 29 78t67 25q41 0 69 -25t28 -78zM647 1669q0 -53 -28 -76.5t-67 -23.5q-46 0 -71 27t-25 73q0 53 29 78t67 25q39 0 67 -25t28 -78zM399 2142h123q53 -35 110.5 -74t108.5 -94q56 56 112.5 94.5t110.5 73.5h127
v-26l-66 -64q-150 -142 -190 -217h-184q-44 74 -188 217l-64 64v26zM285 145q12 1 28 18q160 185 338 603q8 18 70 168.5t83 162.5q6 3 28 3.5t31 -11t9 -36.5t-16 -66q-100 -248 -173 -528q-35 -139 -35 -258t4 -140t-12.5 -40t-29 -26.5t-34.5 1.5q-22 8 -32 30
q-11 24 1.5 137t34.5 211l25 108q-116 -254 -205 -378t-173 -125q-52 2 -52 96q0 141 85 446t124.5 406.5t47.5 126.5q21 57 64 56.5t44 -41.5q0 -30 -23 -90q-189 -504 -232 -834z" />
    <glyph glyph-name="uni01DA" unicode="&#x1da;" horiz-adv-x="1266" 
d="M910 1331q0 -48 -25.5 -74t-71.5 -26t-71 27t-25 73q0 53 29 78t67 25q41 0 69 -25t28 -78zM525 1331q0 -53 -28 -76.5t-67 -23.5q-46 0 -71 27t-25 73q0 53 29 78t67 25q39 0 67 -25t28 -78zM277 1804h123q53 -35 110.5 -74t108.5 -94q56 56 112.5 94.5t110.5 73.5h127
v-26l-66 -64q-150 -142 -190 -217h-184q-44 74 -188 217l-64 64v26zM296 845q41 -15 42 -40q0 -9 -14 -49l-38 -109q-134 -384 -151 -508q74 113 178.5 322.5t126.5 250.5t33.5 70t21.5 32.5t37 3.5q40 0 40 -37q-3 -19 -42.5 -124.5t-85 -282t-45 -248t13.5 -73.5
q44 0 158.5 125.5t167.5 226.5q22 40 42 41q10 -2 11 -16q0 -84 -111.5 -219t-191.5 -190l-20 -13q-34 -18 -50 -18h-17q-88 15 -90 148q0 66 20 136l22 81q-98 -215 -163.5 -295.5t-118.5 -80.5q-40 2 -40 72q0 116 82 389q116 385 146 407q6 3 14 3t22 -5z" />
    <glyph glyph-name="uni01DB" unicode="&#x1db;" horiz-adv-x="1497" 
d="M1024 1669q0 -48 -25.5 -74t-71.5 -26t-71 27t-25 73q0 53 29 78t67 25q41 0 69 -25t28 -78zM639 1669q0 -53 -28 -76.5t-67 -23.5q-46 0 -71 27t-25 73q0 53 29 78t67 25q39 0 67 -25t28 -78zM848 1825h-121q-234 187 -291 276v21h215q48 -100 197 -273v-24zM285 145
q12 1 28 18q160 185 338 603q8 18 70 168.5t83 162.5q6 3 28 3.5t31 -11t9 -36.5t-16 -66q-100 -248 -173 -528q-35 -139 -35 -258t4 -140t-12.5 -40t-29 -26.5t-34.5 1.5q-22 8 -32 30q-11 24 1.5 137t34.5 211l25 108q-116 -254 -205 -378t-173 -125q-52 2 -52 96
q0 141 85 446t124.5 406.5t47.5 126.5q21 57 64 56.5t44 -41.5q0 -30 -23 -90q-189 -504 -232 -834z" />
    <glyph glyph-name="uni01DC" unicode="&#x1dc;" horiz-adv-x="1266" 
d="M916 1331q0 -48 -25.5 -74t-71.5 -26t-71 27t-25 73q0 53 29 78t67 25q41 0 69 -25t28 -78zM531 1331q0 -53 -28 -76.5t-67 -23.5q-46 0 -71 27t-25 73q0 53 29 78t67 25q39 0 67 -25t28 -78zM740 1487h-121q-234 187 -291 276v21h215q48 -100 197 -273v-24zM296 845
q41 -15 42 -40q0 -9 -14 -49l-38 -109q-134 -384 -151 -508q74 113 178.5 322.5t126.5 250.5t33.5 70t21.5 32.5t37 3.5q40 0 40 -37q-3 -19 -42.5 -124.5t-85 -282t-45 -248t13.5 -73.5q44 0 158.5 125.5t167.5 226.5q22 40 42 41q10 -2 11 -16q0 -84 -111.5 -219
t-191.5 -190l-20 -13q-34 -18 -50 -18h-17q-88 15 -90 148q0 66 20 136l22 81q-98 -215 -163.5 -295.5t-118.5 -80.5q-40 2 -40 72q0 116 82 389q116 385 146 407q6 3 14 3t22 -5z" />
    <glyph glyph-name="uni01DD" unicode="&#x1dd;" horiz-adv-x="1155" 
d="M514 1118q248 0 388 -149.5t140 -411.5q0 -264 -131 -420.5t-354 -156.5q-207 0 -330 133.5t-123 361.5v109h752q-5 186 -95 283.5t-255 97.5q-88 0 -167 -15.5t-185 -60.5v158q91 39 171 55t189 16zM559 127q129 0 204 83t89 230h-559q2 -151 70 -232t196 -81z" />
    <glyph glyph-name="uni01DE" unicode="&#x1de;" horiz-adv-x="1309" 
d="M942 1669q0 -48 -25.5 -74t-71.5 -26t-71 27t-25 73q0 53 29 78t67 25q41 0 69 -25t28 -78zM557 1669q0 -53 -28 -76.5t-67 -23.5q-46 0 -71 27t-25 73q0 53 29 78t67 25q39 0 67 -25t28 -78zM350 2050h608v-145h-608v145zM508 -163q0 -63 -44 -63q-24 0 -43 16
q-45 39 -45 121.5t11.5 168.5t69.5 312q-92 -11 -140 -13q-159 -267 -328 -464q-13 -12 -37.5 -11.5t-26.5 16.5q0 17 29 60t34 49l223 350q-153 1 -188 16t-35 48q0 15 22 19q164 16 268 24l223 370l64 275q8 36 39 36.5t54 -4.5q70 -16 70 -64q0 -7 -33 -154t-113 -440
q83 4 220 4q10 -1 23 -19.5t14 -49.5q-1 -21 -83 -23.5t-201 -13.5q-108 -417 -108 -478q2 -16 31 -44q29 -23 30 -44zM402 530l-20 -37l102 7q19 85 28 148q-3 27 -45.5 -25.5t-64.5 -92.5z" />
    <glyph glyph-name="uni01DF" unicode="&#x1df;" horiz-adv-x="1149" 
d="M873 1331q0 -48 -25.5 -74t-71.5 -26t-71 27t-25 73q0 53 29 78t67 25q41 0 69 -25t28 -78zM488 1331q0 -53 -28 -76.5t-67 -23.5q-46 0 -71 27t-25 73q0 53 29 78t67 25q39 0 67 -25t28 -78zM281 1712h608v-145h-608v145zM527 653q-160 -27 -279 -210
q-116 -178 -122 -352q229 302 401 562zM481 738l59 -8q14 0 29.5 16t40 16t39 -13t14.5 -22.5t-10 -31.5t-12 -29q-133 -417 -133 -532q1 -40 18 -41q61 0 191 160q87 107 112.5 157t40.5 53q3 0 5 1q18 -2 19 -21q0 -36 -83 -162q-177 -270 -306 -270q-93 0 -93 130
q0 62 25 154.5t30 115.5q-23 -30 -154 -218t-188 -222q-18 -10 -31 -11q-57 0 -83 45q-12 22 -12.5 63.5t61.5 191.5q100 242 227 373q100 102 194 105z" />
    <glyph glyph-name="uni01E0" unicode="&#x1e0;" horiz-adv-x="1309" 
d="M551 1692q0 60 30.5 87t75.5 27q48 0 76 -30.5t28 -83.5q0 -54 -29 -84.5t-75 -30.5q-45 0 -75.5 28t-30.5 87zM350 2050h608v-145h-608v145zM508 -163q0 -63 -44 -63q-24 0 -43 16q-45 39 -45 121.5t11.5 168.5t69.5 312q-92 -11 -140 -13q-159 -267 -328 -464
q-13 -12 -37.5 -11.5t-26.5 16.5q0 17 29 60t34 49l223 350q-153 1 -188 16t-35 48q0 15 22 19q164 16 268 24l223 370l64 275q8 36 39 36.5t54 -4.5q70 -16 70 -64q0 -7 -33 -154t-113 -440q83 4 220 4q10 -1 23 -19.5t14 -49.5q-1 -21 -83 -23.5t-201 -13.5
q-108 -417 -108 -478q2 -16 31 -44q29 -23 30 -44zM402 530l-20 -37l102 7q19 85 28 148q-3 27 -45.5 -25.5t-64.5 -92.5z" />
    <glyph glyph-name="uni01E1" unicode="&#x1e1;" horiz-adv-x="1149" 
d="M482 1356q0 60 30.5 87t75.5 27q48 0 76 -30.5t28 -83.5q0 -54 -29 -84.5t-75 -30.5q-45 0 -75.5 28t-30.5 87zM281 1714h608v-145h-608v145zM527 653q-160 -27 -279 -210q-116 -178 -122 -352q229 302 401 562zM481 738l59 -8q14 0 29.5 16t40 16t39 -13t14.5 -22.5
t-10 -31.5t-12 -29q-133 -417 -133 -532q1 -40 18 -41q61 0 191 160q87 107 112.5 157t40.5 53q3 0 5 1q18 -2 19 -21q0 -36 -83 -162q-177 -270 -306 -270q-93 0 -93 130q0 62 25 154.5t30 115.5q-23 -30 -154 -218t-188 -222q-18 -10 -31 -11q-57 0 -83 45
q-12 22 -12.5 63.5t61.5 191.5q100 242 227 373q100 102 194 105z" />
    <glyph glyph-name="uni01E2" unicode="&#x1e2;" horiz-adv-x="1804" 
d="M711 1724h608v-145h-608v145zM561 -163q0 -63 -44 -63q-24 0 -42 16q-45 39 -45.5 121.5t11.5 168.5t69 312q-92 -11 -140 -13q-159 -267 -328 -464q-13 -12 -37.5 -11.5t-26.5 16.5q0 17 30 60l256 399q-153 1 -188 16t-35 48q0 15 22 19q164 16 268 24l223 370l64 275
q8 36 48 37q69 -2 102 -36q117 -1 261 -6q11 -2 25 -18q20 -22 13 -50q-7 -13 -39 -13h-55q-25 1 -38.5 1t-164.5 -3q-58 -259 -135 -538q83 4 220 4q10 -1 23.5 -19.5t13.5 -49.5q-1 -21 -83 -23.5t-201 -13.5q-47 -176 -84 -339q79 -1 325 -7q12 0 25.5 -17.5t13.5 -46.5
q-1 -17 -38 -17h-110.5t-132 -3t-105.5 -4q-2 -16 -0.5 -38t30.5 -50q29 -23 29 -44zM455 530l-20 -37l102 7q19 85 28 148q-3 28 -45.5 -25t-64.5 -93z" />
    </font>
</defs>
</svg>
