<?xml version="1.0" standalone="no"?>
<!DOCTYPE svg PUBLIC "-//W3C//DTD SVG 1.1//EN" "http://www.w3.org/Graphics/SVG/1.1/DTD/svg11.dtd" >
<svg xmlns="http://www.w3.org/2000/svg" xmlns:xlink="http://www.w3.org/1999/xlink" version="1.1">
<metadata>
Created by FontForge 20190801 at Mon Feb  8 12:16:04 2021
 By root
Created by JavaPep,,, with FontForge 2.0 (http://fontforge.sf.net)
</metadata>
<defs>
<font id="Lizelie" horiz-adv-x="300" >
  <font-face 
    font-family="Lizelie"
    font-weight="500"
    font-stretch="normal"
    units-per-em="1000"
    panose-1="2 0 6 3 0 0 0 0 0 0"
    ascent="800"
    descent="-200"
    x-height="330"
    cap-height="778"
    bbox="-516 -545 1853 1120"
    underline-thickness="50"
    underline-position="-150"
    unicode-range="U+0001-206F"
  />
<missing-glyph horiz-adv-x="364" 
d="M33 0v666h265v-666h-265zM66 33h199v600h-199v-600z" />
    <glyph glyph-name=".notdef" horiz-adv-x="364" 
d="M33 0v666h265v-666h-265zM66 33h199v600h-199v-600z" />
    <glyph glyph-name="uni0000" 
 />
    <glyph glyph-name="uni0000" 
 />
    <glyph glyph-name="uni000D" unicode="&#xd;" 
 />
    <glyph glyph-name="uni0001" 
 />
    <glyph glyph-name="uni0002" 
 />
    <glyph glyph-name="uni0003" 
 />
    <glyph glyph-name="uni0004" 
 />
    <glyph glyph-name="uni0005" 
 />
    <glyph glyph-name="uni0006" 
 />
    <glyph glyph-name="uni0007" 
 />
    <glyph glyph-name="uni0008" 
 />
    <glyph glyph-name="uni0009" unicode="&#x9;" 
 />
    <glyph glyph-name="uni000A" unicode="&#xa;" 
 />
    <glyph glyph-name="uni000B" 
 />
    <glyph glyph-name="uni000C" 
 />
    <glyph glyph-name="uni000E" 
 />
    <glyph glyph-name="uni000F" 
 />
    <glyph glyph-name="uni0010" 
 />
    <glyph glyph-name="uni0011" 
 />
    <glyph glyph-name="uni0012" 
 />
    <glyph glyph-name="uni0013" 
 />
    <glyph glyph-name="uni0014" 
 />
    <glyph glyph-name="uni0015" 
 />
    <glyph glyph-name="uni0016" 
 />
    <glyph glyph-name="uni0017" 
 />
    <glyph glyph-name="uni0018" 
 />
    <glyph glyph-name="uni0019" 
 />
    <glyph glyph-name="uni001A" 
 />
    <glyph glyph-name="uni001B" 
 />
    <glyph glyph-name="uni001C" 
 />
    <glyph glyph-name="uni001D" 
 />
    <glyph glyph-name="uni001E" 
 />
    <glyph glyph-name="uni001F" 
 />
    <glyph glyph-name="space" unicode=" " 
 />
    <glyph glyph-name="exclam" unicode="!" horiz-adv-x="471" 
d="M524 774q10 0 15 -8t1 -16l-198 -432l-130 -293q-2 -5 -8 -5q-4 0 -7 4t-1 8l73 164l239 568q5 10 16 10zM179 -10q13 0 19 -8q8 -6 8 -20q0 -12 -9 -19q-6 -8 -20 -8q-5 0 -10.5 2t-8.5 6q-3 3 -5.5 9t-1.5 10q0 5 2.5 10.5t5.5 9.5q10 8 20 8z" />
    <glyph glyph-name="quotedbl" unicode="&#x22;" horiz-adv-x="214" 
d="M84 756v0q9 0 16 -7.5t5 -26.5q-1 -12 -19 -29t-36 -19l-1 4q14 8 19.5 15.5t7.5 13.5q-7 2 -10.5 9.5t-3.5 14.5q0 11 6 17.5t13 6.5q1 1 3 1zM141 756v0q9 0 16.5 -7.5t5.5 -26.5q-2 -12 -20 -29t-36 -19l-1 4q14 8 20 15.5t7 13.5q-6 2 -10 9.5t-4 14.5q0 11 6 17.5
t13 6.5q2 1 3 1z" />
    <glyph glyph-name="numbersign" unicode="#" horiz-adv-x="724" 
d="M366 558v0q11 0 11 -12q0 -2 -1 -4l-71 -162h160l75 171q3 7 11 7v0q11 0 11 -12q0 -2 -1 -4l-71 -162l172 1v0q12 0 12 -11q0 -12 -12 -12v0l-182 -1l-61 -139h209v0q12 0 12 -11q0 -12 -12 -12v0h-219l-76 -171q-3 -7 -10 -7q-12 0 -12 11q0 3 1 5l72 162l-161 -1
l-75 -170q-3 -7 -10 -7q-12 0 -12 11q0 3 1 5l71 161l-136 -1v0q-12 0 -12 12q0 11 12 11v0l146 1l62 140l-174 -1v0q-11 0 -11 12q0 11 11 11v0l184 1l75 171q3 7 11 7zM455 357h-160l-61 -140l160 1z" />
    <glyph glyph-name="dollar" unicode="$" horiz-adv-x="568" 
d="M447 684v0q7 0 10.5 -5.5t1.5 -12.5l-20 -47q5 -3 9 -7q19 -14 32 -37t19 -56q1 -8 -7 -9q-9 -2 -10 7q-5 30 -16.5 50t-27.5 32l-6 4l-106 -255l7 -7q48 -46 73 -93t28 -93q2 -46 -16.5 -87.5t-53.5 -75.5q-15 -15 -34 -26q-35 -21 -80 -24.5t-85 13.5q-1 0 -2 1
l-23 -55q-4 -12 -16 -7t-7 16l24 58q-17 11 -31 27t-23 37q-13 29 -15.5 67t6.5 86q2 8 10 6q9 -1 7 -10q-9 -46 -6.5 -81t13.5 -61q16 -35 46 -55l142 343q-60 62 -77.5 119t-0.5 101q16 44 56.5 67t84.5 25h1h10v0h1v0q28 -1 51 -9l20 46q3 8 11 8zM360 622v0q-9 0 -17 -1
q-29 -5 -55 -26t-39 -61q-9 -30 1 -72t57 -95l103 247q-11 4 -24 6.5t-26 1.5zM310 308l-140 -337h2q19 -9 39 -11q42 -5 75 10.5t50 32.5q30 30 45 71.5t13 77.5t-22 75t-62 81z" />
    <glyph glyph-name="percent" unicode="%" horiz-adv-x="500" 
d="M439 593v0q12 0 12 -13q0 -3 -2 -6l-376 -637q-3 -6 -10 -6q-13 0 -13 13q0 3 2 6l375 637q4 6 11 6h1zM226 561v0q28 0 43.5 -26t10.5 -61t-27.5 -61t-50.5 -26t-43.5 26t-10.5 61q4 35 27 61t51 26zM231 544v0q-21 0 -36.5 -20t-20.5 -50q-4 -30 2.5 -50t27.5 -20
t39 20t22 50t-5 50t-29 20zM299 137q28 0 43.5 -26t10.5 -61t-27.5 -61t-50.5 -26t-43.5 26t-10.5 61t27.5 61t50.5 26zM304 120v0q-21 0 -36.5 -20.5t-19.5 -49.5q-4 -30 2.5 -50t26.5 -20q21 0 39 20t22 50q4 29 -5 49.5t-29 20.5z" />
    <glyph glyph-name="ampersand" unicode="&#x26;" horiz-adv-x="726" 
d="M473 643v0q36 0 59.5 -15.5t34.5 -35.5q14 -26 7 -59.5t-26 -62.5q-5 -7 -12 -2t-2 12q22 32 25 59t-7 46t-30.5 30.5t-47.5 10.5q-23 0 -39 -8.5t-31 -26.5q-12 -13 -22 -38t-13 -59t8 -73l-18 -2q-38 -4 -75 -22q-44 -22 -79.5 -63.5t-59.5 -94.5t-31 -111t6 -113
q12 -46 54 -81.5t111 -35.5q40 0 82.5 19.5t77 51.5t50.5 71q18 46 15 84t-19.5 65t-40.5 41q-36 20 -73 10h-0.5h-0.5q-18 -8 -31 -17q-23 -16 -34.5 -40.5t-5.5 -66.5q2 -8 -7 -9q-9 -2 -10 7q-6 45 7.5 75t39.5 48t60.5 28t70.5 17q37 8 72.5 16t63.5 22t46 35.5t21 57.5
q1 8 9 8q9 0 8 -9q-3 -40 -24.5 -66t-51.5 -41q-31 -15 -67.5 -23.5t-72.5 -15.5q-11 -3 -21 -5t-20 -5q16 -3 29 -11q28 -16 47 -46t22 -72t-16 -93q-15 -37 -46.5 -69t-72.5 -54t-84 -30q-49 -9 -94 1q-49 10 -86.5 41t-53.5 80q-24 74 -8.5 148t56.5 135q38 55 93 94.5
t118 51.5q-11 57 -1 97.5t32 65.5q25 27 55.5 37.5t53.5 10.5z" />
    <glyph glyph-name="quotesingle" unicode="'" horiz-adv-x="157" 
d="M84 756v0q9 0 16.5 -7.5t5.5 -26.5q-2 -12 -20 -29t-36 -19l-1 4q14 8 20 15.5t7 13.5q-6 2 -10 9.5t-4 14.5q0 11 6 17.5t13 6.5q2 1 3 1z" />
    <glyph glyph-name="parenleft" unicode="(" horiz-adv-x="617" 
d="M607 849v0h5q8 0 8 -9t-9 -8q-79 -1 -137 -36t-109 -97q-72 -85 -121 -177t-83.5 -190.5t-61.5 -201.5q-13 -51 -19.5 -102t-1 -94t24.5 -70q6 -7 -1 -12t-12 2q-27 34 -33.5 94t2.5 136t32.5 162t59.5 171t84 163.5t107 138.5q57 59 124 94.5t141 35.5z" />
    <glyph glyph-name="parenright" unicode=")" horiz-adv-x="616" 
d="M523 849v0q5 0 7 -4q26 -33 33 -93.5t-2 -136.5t-32.5 -162t-59.5 -171t-84.5 -163.5t-106.5 -138.5q-58 -59 -126 -95t-144 -35q-8 0 -8 9t9 8q79 1 138.5 36t110.5 97q71 85 119.5 177t82 190.5t61.5 201.5q13 51 19 102t1 94t-24 70q-6 7 1 12q2 2 5 2z" />
    <glyph glyph-name="asterisk" unicode="*" horiz-adv-x="299" 
d="M184 649v0q11 0 11 -11q0 -3 -1 -5l-22 -49l61 28q3 1 5 1h1q11 0 11 -11q0 -8 -7 -11l-80 -36l49 -60q2 -3 2 -7q0 -12 -11 -12q-6 0 -9 4l-45 55l-29 -64q-3 -7 -11 -7q-11 0 -11 12q0 2 1 5l26 56l-59 -27q-2 -1 -4 -1q-12 0 -12 11q0 8 7 11l70 32l-46 56q-2 3 -2 7
q0 12 11 12v0q6 0 9 -5l45 -55l29 65q3 6 11 6v0z" />
    <glyph glyph-name="plus" unicode="+" horiz-adv-x="595" 
d="M380 477v0q13 0 13 -13q0 -4 -1 -6l-73 -157h173v0q14 0 14 -14q0 -13 -14 -13v0h-186l-78 -169q-3 -8 -12 -8q-13 0 -13 14q0 3 1 6l73 157h-173v0q-14 0 -14 13q0 14 14 14v0h185l78 168q4 8 13 8v0z" />
    <glyph glyph-name="comma" unicode="," horiz-adv-x="237" 
d="M84 53v0q9 0 16.5 -8t5.5 -28q-2 -14 -20 -31.5t-36 -19.5l-1 4q14 8 20 16.5t7 14.5q-6 2 -10 10t-4 15q0 12 6 18.5t13 7.5q2 1 3 1z" />
    <glyph glyph-name="hyphen" unicode="-" horiz-adv-x="484" 
d="M104 228h277v0q13 0 13 -14q0 -13 -13 -13v0h-277v0q-14 0 -14 13q0 14 14 14v0z" />
    <glyph glyph-name="period" unicode="." horiz-adv-x="232" 
d="M76 53q11 0 18.5 -8t7.5 -18q0 -11 -7.5 -18.5t-18.5 -7.5t-18.5 7.5t-7.5 18.5q0 10 7.5 18t18.5 8z" />
    <glyph glyph-name="slash" unicode="/" horiz-adv-x="643" 
d="M539 849v0v0q13 0 13 -13q0 -2 -1 -4l-378 -982q-3 -8 -12 -8q-12 0 -12 12q0 3 1 5l378 982q3 7 11 8z" />
    <glyph glyph-name="zero" unicode="0" horiz-adv-x="598" 
d="M416 657q46 0 77 -29t46 -81t11.5 -120.5t-26.5 -146.5q-24 -78 -61.5 -146.5t-83.5 -120.5t-95 -81t-95 -29t-77.5 29t-46.5 81t-11.5 120.5t26.5 146.5q24 78 62 146.5t84 120.5t95 81t95 29zM420 627v0q-45 0 -94.5 -39t-95.5 -113.5t-80 -180.5q-23 -72 -35.5 -137
t-9.5 -115t24.5 -79t64.5 -29q51 0 108 42t108.5 119.5t86.5 185.5q31 97 30.5 175t-28.5 124.5t-79 46.5z" />
    <glyph glyph-name="one" unicode="1" horiz-adv-x="393" 
d="M375 649v0q10 0 16 -9t1 -19l-302 -715q-3 -8 -11 -11t-15 0q-8 4 -11 11.5t0 15.5l262 618q-17 -20 -34 -38q-30 -30 -61 -51.5t-60 -26.5q-8 -2 -10 7q-1 8 7 10q23 4 53 24t59 49q27 28 50 60t36 61v1q1 1 1 2q1 2 1 3q2 4 7 6t10 2h1z" />
    <glyph glyph-name="two" unicode="2" horiz-adv-x="586" 
d="M365 652v0h4q6 0 12 -1v0q49 -4 85 -31t54 -66q21 -43 18 -94.5t-32 -95.5q-24 -36 -63 -72.5t-86 -73.5t-94 -75q-64 -52 -120 -106t-82 -107q19 10 41 14t44 3q19 0 38 -2.5t37 -5.5q49 -9 93.5 -16.5t71.5 5.5h4q8 0 8 -8q0 -5 -5 -8q-34 -16 -80 -7.5t-95 17.5
q-47 8 -92 7.5t-79 -28.5q-9 -11 -22 -6q-7 3 -11 10.5t-1 15.5q17 47 52 90t80 83.5t93 79.5t94 76t83 71t57 65q18 27 28.5 61.5t5.5 68.5q-3 20 -12 38q-17 36 -52 59.5t-86 21.5q-27 -2 -56 -11.5t-53 -31.5q-25 -23 -42 -61.5t-19 -99.5q0 -8 -9 -8q-8 0 -8 8v1
q2 63 20.5 105t45.5 67q28 25 59.5 35.5t60.5 12.5h10z" />
    <glyph glyph-name="three" unicode="3" horiz-adv-x="530" 
d="M318 651v0q35 0 62 -13t45 -50q17 -36 8 -80q-6 -26 -21 -51t-41 -43q31 -12 54 -35t37 -53q20 -46 19 -102.5t-27 -111.5q-35 -76 -87.5 -124.5t-111.5 -71.5t-114 -22q-21 -1 -41.5 3t-39.5 12l-1 1h-1v0q-18 9 -33.5 22t-26.5 32v0q-10 18 -14 37.5t-3 39.5q0 9 8 8
q9 0 9 -8q-1 -18 2.5 -35.5t12.5 -32.5v-1v0q13 -23 35 -37.5t49 -19.5q46 -8 94 6.5t90 42.5q42 27 76.5 68t60.5 97q22 48 23 96t-16 85q-16 35 -45 55.5t-72 17.5q-3 -1 -5 -1q-8 -2 -15 2t-9 12t3.5 16.5t15.5 9.5q1 1 3 1q42 12 63.5 38.5t29.5 54.5q3 15 3.5 39
t-11 46t-42.5 30q-24 6 -44.5 1t-37.5 -17q-19 -13 -31.5 -33.5t-15.5 -41.5q-1 -8 -9 -7q-9 1 -8 10q4 24 18 47.5t36 38.5q14 10 31 16t35 6z" />
    <glyph glyph-name="four" unicode="4" horiz-adv-x="607" 
d="M438 651v0q9 0 9 -9q0 -1 -1 -3q-51 -130 -114 -221.5t-118 -145.5q18 -2 33 -5q41 -6 82 -19.5t77 -30.5l117 276q5 12 18 12v0q9 0 14.5 -6t5.5 -14q0 -4 -1 -8l-242 -571q-5 -12 -18 -12q-8 0 -14 6t-6 14q0 4 2 8l118 279q-72 36 -156 50q-24 4 -47 5
q-18 -16 -34 -29t-30 -21q-23 -14 -43 -16q-20 -1 -30 11q-11 12 -3 29q7 16 28 27q20 11 47.5 14.5t58.5 2.5q55 52 120.5 144.5t118.5 226.5q2 6 8 6zM173 257v0q-25 0 -45.5 -3.5t-34.5 -11.5q-9 -5 -14 -10t-7 -9q-3 -7 1 -11q4 -5 16 -5q7 1 16 4t19 9q22 14 49 37z
" />
    <glyph glyph-name="five" unicode="5" horiz-adv-x="564" 
d="M283 652v0q19 0 40 -8.5t41 -13.5q26 -8 57.5 -9.5t70.5 13.5q8 3 11 -4q4 -8 -4 -11q-42 -17 -77 -15.5t-63 9.5q-19 6 -34.5 11t-28.5 8q-2 -4 -4 -9l-33 -77l-32 -77l-22 -50q33 8 69 8q31 1 60.5 -5t53.5 -21q18 -12 35 -30.5t28 -44.5q21 -45 19.5 -102t-26.5 -112
q-36 -76 -88.5 -124.5t-111.5 -71.5t-113 -22h-19q-40 3 -73 20.5t-51 49.5t-18 77t25 101q3 8 11 4q8 -3 4 -11q-23 -54 -23 -94.5t15 -68.5q25 -43 80 -56q42 -9 92 6t90 40q43 27 80.5 69t62.5 98q17 37 23 84.5t-15 96.5q-17 37 -48 57q-16 10 -41 15.5t-52 4.5
q-56 0 -93 -19q-9 -5 -19 -1q-8 3 -11 11t0 16l39 90l33 77l32 77q3 7 9 10q1 0 3 1q7 3 16 3z" />
    <glyph glyph-name="six" unicode="6" horiz-adv-x="605" 
d="M580 664v0q10 0 10 -8t-7 -9q-86 -14 -155.5 -47.5t-123.5 -80t-92.5 -98.5t-62.5 -102q-37 -77 -47.5 -139.5t-2.5 -108.5q7 -45 29 -78q13 139 56.5 217.5t97.5 107.5q20 10 41 13.5t41 1.5q17 -2 30 -7.5t25 -13.5q30 -20 46 -54q17 -35 17 -78q0 -93 -36 -154.5
t-87 -92.5t-106 -35.5t-94 16.5q-9 5 -17 10q-1 -47 2 -97q1 -9 -8 -9q-9 -1 -9 8q-3 58 -2 111q-24 22 -41.5 54t-24.5 73q-9 54 3 122.5t51 149.5q33 71 95 136t147.5 114.5t189.5 70.5q17 4 34 7h1zM348 317v0h-4q-16 0 -28.5 -3.5t-25.5 -10.5q-33 -18 -64 -58.5
t-53 -107.5t-29 -163q15 -15 34 -24q26 -14 71.5 -11.5t88.5 28.5q28 18 54 50.5t42.5 78t16.5 101.5q0 29 -13 58q-13 28 -37 45q-10 7 -24 12t-29 5z" />
    <glyph glyph-name="seven" unicode="7" horiz-adv-x="537" 
d="M506 649h1q8 0 14 -6t6 -14q0 -5 -2 -10q-36 -66 -76.5 -137t-81.5 -158q22 -3 42 -5t37 -1q23 0 38 5q14 5 20 14q3 4 7 4h1q8 0 8 -8q0 -3 -2 -5q-9 -15 -29 -21q-17 -6 -42 -6q-20 -1 -42 1t-46 5q-36 -79 -71 -176.5t-64 -221.5q-3 -15 -20 -15q-8 0 -14 5.5t-6 14.5
q0 2 1 5q29 121 63 217.5t70 176.5q-56 7 -109 8.5t-85 -17.5q-2 -1 -5 -1q-8 0 -8 8q0 5 4 8q39 23 96 20.5t114 -10.5q39 83 77.5 151.5t71.5 129.5q-17 -5 -43 -6q-25 0 -55 3t-61 7q-43 5 -85.5 9t-78 1t-59.5 -16q-2 -1 -4 -1q-8 0 -8 8q0 5 4 8q28 16 66 19t81 -1.5
t86 -9.5q31 -4 60.5 -7t53.5 -3q24 1 39 6q13 4 19 11q6 11 17 11z" />
    <glyph glyph-name="eight" unicode="8" horiz-adv-x="550" 
d="M391 650v0q10 0 19 -1q8 -1 16 -3q26 -7 43.5 -24t26.5 -39q12 -30 9 -63.5t-21 -59.5q-3 -4 -6 -9t-7 -9q-18 -21 -42 -37t-53 -29q-8 -4 -17 -8t-19 -8q6 -10 12 -19q18 -31 33.5 -66.5t25.5 -78.5q20 -87 2 -148.5t-58 -95.5q-25 -22 -54.5 -33.5t-59.5 -13.5
q-35 -3 -66 6q-42 11 -73 49.5t-42 89.5q-11 50 3.5 106.5t65.5 103.5q37 35 80.5 58t85.5 41l-1 1q-13 23 -25.5 51.5t-21.5 65.5q-10 38 -0.5 70.5t30.5 54.5q21 23 49.5 35t57.5 13h7zM391 633v0h-5q-18 -1 -36.5 -7t-33.5 -17q-31 -23 -34.5 -58.5t4.5 -63.5
q6 -25 17.5 -53t28.5 -59q10 4 19 8t18 9q28 13 50.5 27.5t38.5 33.5q4 4 7 8.5t6 9.5q15 23 17.5 51.5t-8.5 53.5q-9 24 -30 40.5t-55 16.5h-4zM303 344v0q-42 -18 -84.5 -40.5t-78.5 -55.5q-47 -44 -60.5 -96t-2.5 -99q10 -47 38.5 -81.5t63.5 -44.5q9 -3 17 -4
q31 -4 68 9t65 37q31 27 46.5 83t-3.5 135q-8 35 -27 76t-42 81z" />
    <glyph glyph-name="nine" unicode="9" horiz-adv-x="534" 
d="M321 661v0h6q41 -2 74 -19q36 -19 63.5 -55t36.5 -89q6 -34 2.5 -75.5t-17.5 -90.5q-15 -49 -39 -100l-7 -14q-35 -68 -97 -130.5t-145 -109.5t-184 -68q-16 -3 -33 -6q-10 -1 -10.5 7t6.5 10q85 13 154.5 47t123.5 80t92.5 98t62.5 102q13 26 22 51q-29 -34 -67.5 -53
t-78.5 -21q-34 -1 -66 9t-57 33q-25 22 -41 56t-17 79q-2 68 21 127t81 102q26 15 53.5 22.5t54.5 7.5h6zM316 620v0q-22 0 -45 -6t-44 -18q-20 -12 -40 -30t-36 -44q-16 -28 -22.5 -66t-2.5 -74q4 -38 16.5 -62t31.5 -41q23 -19 52 -28.5t59 -8.5q50 3 96.5 33t71.5 90
q8 31 10 61l1 -1q3 36 -2 67q-8 44 -29.5 71.5t-50.5 43.5q-27 14 -66 13v0z" />
    <glyph glyph-name="colon" unicode=":" horiz-adv-x="251" 
d="M175 316v0q11 0 18.5 -7.5t7.5 -18.5t-7.5 -18.5t-18.5 -7.5t-18.5 7.5t-7.5 18.5t7.5 18.5t18.5 7.5zM76 53v0q11 0 18.5 -8t7.5 -18q0 -11 -7.5 -18.5t-18.5 -7.5t-18.5 7.5t-7.5 18.5q0 10 7.5 18t18.5 8z" />
    <glyph glyph-name="semicolon" unicode=";" horiz-adv-x="262" 
d="M185 316v0q11 0 18.5 -7.5t7.5 -18.5t-7.5 -18.5t-18.5 -7.5t-18.5 7.5t-7.5 18.5t7.5 18.5t18.5 7.5zM84 53v0q9 0 16 -8t5 -28q-1 -14 -19 -31.5t-36 -19.5l-1 4q14 8 19.5 16.5t7.5 14.5q-7 2 -10.5 10t-3.5 15q0 12 6 18.5t13 7.5q1 1 3 1z" />
    <glyph glyph-name="less" unicode="&#x3c;" horiz-adv-x="550" 
d="M447 511v0q14 0 14 -14q0 -7 -7 -11l-328 -211l248 -209q5 -4 5 -10q0 -13 -14 -13q2 -1 -2.5 0.5t-5.5 2.5l-262 220q-5 4 -5 11t6 11l344 221q3 2 7 2z" />
    <glyph glyph-name="equal" unicode="=" horiz-adv-x="514" 
d="M121 341h290v0q14 0 14 -14q0 -13 -14 -13v0h-290h-1q-13 0 -13 13q0 14 13 14h1zM104 261l290 -1v0q14 0 14 -13q0 -14 -14 -14v0l-290 1v0q-14 0 -14 13q0 14 14 14v0z" />
    <glyph glyph-name="greater" unicode="&#x3e;" horiz-adv-x="550" 
d="M186 511v0q5 0 8 -3l262 -221q3 -2 4 -5v0v0v-1q1 -2 1 -4q0 -8 -7 -12l-343 -220q-3 -2 -8 -2q-13 0 -13 13q0 8 6 12l329 210l-248 209q-5 4 -5 10q0 14 13 14h1z" />
    <glyph glyph-name="question" unicode="?" horiz-adv-x="618" 
d="M443 775v0q78 0 124.5 -47t50.5 -127q2 -50 -14 -91t-40 -74q-25 -34 -56.5 -62t-64.5 -56q-34 -27 -69 -56t-65 -63q-25 -29 -53 -70t-44 -82q-4 -10 -11 -10t-9 2q-8 4 -5 11q12 30 30 63t38 63t38 50q20 22 40.5 42t41.5 38q23 21 45 39q34 28 63.5 55t52.5 57
q22 30 34.5 64.5t12.5 79.5q0 42 -16 78t-47 58t-77 21q-38 0 -76 -20t-66.5 -64t-40.5 -115q-1 -8 -9 -7q-9 2 -7 10q12 74 43 121t72.5 69.5t83.5 22.5zM179 -10v0q11 0 19 -8t8 -20q-1 -11 -9 -19q-9 -8 -20 -8q-12 0 -19 8q-8 8 -8 19q1 12 9 20t20 8z" />
    <glyph glyph-name="at" unicode="@" horiz-adv-x="768" 
d="M372 339q-16 0 -38 -18t-34 -47q-8 -17 -12 -35t-4 -34t4 -27t15 -11t27 16.5t31 38.5t24 39q4 12 11 26q2 5 3 11t1 12q0 10 -6.5 19.5t-21.5 9.5zM449 576q57 0 101.5 -29t70 -77.5t25.5 -108.5q0 -75 -22.5 -130.5t-59 -93t-77.5 -55.5q-31 -14 -60 -14t-49 17t-23 48
q-1 20 3.5 39.5t9.5 40.5q-14 -23 -32 -40.5t-33 -17.5q-23 0 -33 19.5t-10 43.5q0 14 2.5 30t8.5 31q13 33 42 53t54 20q19 0 29 -10t13 -24q3 6 6 11t5 10q3 4 8 4q6 0 12 -4t6 -9q0 -4 -2 -6q-14 -27 -29.5 -62.5t-26 -71.5t-10.5 -65q0 -25 24 -35q30 -13 78 8
q33 14 65.5 45t55.5 77t27 107q2 67 -20 119t-63 81t-95 29q-62 0 -119 -37t-98 -101t-56 -147q-15 -88 2.5 -155t61 -104.5t104.5 -37.5q33 0 65.5 12t62.5 34q7 4 10.5 -3t-1.5 -12q-35 -25 -73.5 -39.5t-78.5 -14.5q-70 0 -117 43t-65 115.5t-2 159.5q16 88 61 157.5
t108 109.5t134 40z" />
    <glyph glyph-name="A" unicode="A" horiz-adv-x="1213" 
d="M1211 746q-13 -21 -39 -67t-58 -110t-63 -138q-10 -23 -19 -46.5t-18 -48.5q45 1 77 13t48 42q2 5 7 5q9 0 9 -9q0 -2 -1 -3q-17 -35 -53.5 -50t-87.5 -15h-5q-28 -83 -48 -170t-20 -162q0 -11 0.5 -21t1.5 -20v-1q0 -5 -4.5 -7.5t-9.5 -2.5q-6 0 -11 2.5t-7 8.5
q-1 10 -1.5 21t-0.5 22q0 75 17 162t43 169q-37 3 -77.5 10.5t-84.5 16.5q-54 -75 -114 -151t-127 -142t-142 -111q-57 -34 -119 -53.5t-130 -19.5q-40 0 -82 7t-86 23q-6 2 -6 8q0 9 9 9h1t1 -1q43 -15 83.5 -22t79.5 -7q65 0 125 19t115 52q72 43 137.5 107t125 138.5
t111.5 147.5q-58 13 -122 28t-127 27t-119 16q-10 1 -20.5 1.5t-20.5 0.5q-51 0 -92 -11.5t-67 -39.5q-3 -3 -6 -3q-9 0 -9 9q0 3 3 6q29 31 72.5 43.5t96.5 12.5q11 0 22.5 -0.5t22.5 -1.5q58 -4 122.5 -16.5t130 -28t124.5 -28.5q47 67 92.5 130t89.5 116q51 62 102 105.5
t104 57.5q6 2 8 2q9 0 14 -6.5t5 -13.5t-3 -11zM1167 750q-43 -18 -86 -57t-87 -91q-43 -52 -86.5 -113.5t-90.5 -126.5q43 -9 82 -16t74 -9q10 29 20.5 57t20.5 53q28 67 57 125.5t54 104t42 73.5z" />
    <glyph glyph-name="B" unicode="B" horiz-adv-x="730" 
d="M358 754v-7q80 3 136 -33q34 -22 52.5 -64.5t0.5 -94.5q-11 -29 -29 -54t-40 -44q44 -23 80 -61.5t51 -92.5t-3 -122q-26 -93 -84.5 -152.5t-141 -90t-179.5 -38.5q-73 -5 -118 15.5t-64 55.5t-14 78t29 83t66 70.5t97 40.5q22 77 43.5 160.5t40.5 166t32 155.5
q-51 -9 -101 -34.5t-88 -66.5q-6 -7 -12.5 -0.5t-0.5 12.5q41 45 95 71.5t110 35.5q1 4 1.5 8t1.5 8q2 13 12.5 16t19.5 -2.5t7 -18.5zM355 729q-13 -74 -33.5 -156t-44 -165.5t-46.5 -161.5q47 2 100 -15t108 -61q7 -5 2 -12t-12 -2q-55 43 -106.5 59t-96.5 14
q-11 -38 -21.5 -73.5t-21.5 -67.5q-3 -8 -11 -8.5t-14 4t-4 14.5q9 29 18.5 61t19.5 66q-48 -11 -85 -38.5t-59 -63.5q-22 -37 -26 -75.5t12 -68.5t56 -48.5t110 -13.5q52 4 93 19t88 37q62 33 112.5 85t70.5 130q18 70 6.5 120t-42 83.5t-67.5 51.5q-19 -16 -42 -26
t-41 -11q-9 0 -16.5 2t-13.5 8q-14 14 -12 33t18 29q6 4 13.5 4.5t15.5 0.5q19 0 36 -4t36 -12q28 29 47 67.5t13 80.5q-5 31 -18 52.5t-33 35.5q-37 26 -91 26h-18zM361 462q-10 -4 -9.5 -15t7.5 -18q6 -6 19 -5q16 1 33 10t31 20q-18 7 -41 12t-40 -4z" />
    <glyph glyph-name="C" unicode="C" horiz-adv-x="970" 
d="M656 555q-25 -35 -48 -78t-44 -96q-18 -47 -29 -104t-13 -113q0 -26 2 -70.5t17 -85.5q7 -18 17.5 -35t25.5 -28q27 -19 58.5 -14.5t60 20t47.5 28.5q74 51 131 120.5t104 145.5q5 7 12 2t3 -12q-48 -77 -106.5 -147t-134.5 -123q-29 -21 -65 -38.5t-79 -16.5
q-31 0 -53 14.5t-37 35.5q-25 37 -35 90.5t-8 112.5t13 119.5t31 111.5q19 48 41 90t45 76q-82 9 -163.5 14.5t-162.5 -5.5h-1q-79 -7 -152 -44.5t-113 -107.5q-4 -7 -12 -3t-3 12q29 50 73.5 83.5t98 52.5t107.5 24q86 10 170.5 4t168.5 -15q68 96 142.5 142.5t135.5 53.5
q39 5 74 -6t53 -36.5t6 -66.5q-5 -16 -16 -34.5t-29 -34.5q-31 -26 -69 -35t-75 -11q-47 -2 -95 0.5t-94 7.5zM904 731q-48 -6 -111 -43t-125 -117q44 -5 88 -7t88 -1q36 2 71.5 11t62.5 32q12 10 22 23t15 29q8 26 -6 44.5t-42.5 26t-62.5 2.5z" />
    <glyph glyph-name="D" unicode="D" horiz-adv-x="860" 
d="M368 751l-4 -14l-4 -14q51 35 102 46q13 3 25.5 3.5t25.5 0.5q74 0 136 -44q54 -39 90 -104t44 -149t-22 -178q-21 -65 -62.5 -126.5t-99 -113.5t-125.5 -87.5t-140 -48.5q-115 -20 -186 4t-106 70t-38.5 100t12.5 96q25 64 78 101.5t121 47.5q23 83 50.5 184.5
t63.5 236.5q3 12 14 13.5t19.5 -5t5.5 -19.5zM494 753q-46 1 -79 -16.5t-62 -41.5q-29 -109 -53.5 -193.5t-46.5 -157.5q67 2 137 -24t129 -80q6 -6 0 -12t-12 0q-58 53 -126 77t-133 22q-23 -77 -44.5 -145.5t-42.5 -142.5q-3 -11 -11 -12.5t-14 4.5t-3 20q20 71 39 136
t38 136q-61 -11 -108.5 -45t-69.5 -91q-15 -37 -11 -88t35 -93q27 -36 80 -58.5t138 -15.5q71 6 143 42.5t135 93t109 120.5q40 59 59 119q21 67 22.5 128t-14.5 112q-14 47 -47 94.5t-81 79t-106 32.5z" />
    <glyph glyph-name="E" unicode="E" horiz-adv-x="781" 
d="M580 476q-28 0 -60 -9q-58 -17 -103.5 -57.5t-75.5 -78.5q-28 -35 -52.5 -84t-37 -101.5t-6 -98.5t39.5 -75q32 -28 81.5 -37t111.5 6q22 6 43 15t41 23q71 49 129.5 119.5t105.5 146.5q5 7 12 2t3 -12q-45 -71 -99.5 -138t-120.5 -117q-34 -27 -78 -43.5t-87 -21.5
q-61 -7 -112 8t-83.5 51t-37.5 90q-5 55 12.5 111t51.5 107t78.5 93.5t94 71.5t97.5 39q-32 15 -45.5 48.5t-0.5 80.5q-58 7 -124 17.5t-130 13.5t-118.5 -10t-90.5 -52q-6 -6 -12.5 0t-0.5 12q38 42 94.5 56t123 11t134 -13t128.5 -18q16 46 48 77.5t70 48t73 16.5
q10 0 15 -1q36 -4 54 -26t18 -48.5t-16 -42.5q-38 -38 -98.5 -45t-128.5 0q-11 -39 -3 -73t36 -42q12 -3 26 -3q9 0 9 -9q0 -8 -9 -8zM623 732q-32 -14 -58.5 -42t-39.5 -62q63 -6 120.5 0.5t90.5 39.5q10 10 12 27.5t-9 33.5q-11 15 -33 17t-45 -3t-38 -11z" />
    <glyph glyph-name="F" unicode="F" horiz-adv-x="848" 
d="M714 646q-10 -26 -31.5 -87t-50.5 -140q19 -5 37 -8.5t34 -6.5q6 16 15 27.5t20 15.5q18 7 32.5 -4.5t16.5 -27.5q2 -18 -9 -25t-28 -7.5t-35 2.5q-3 -11 -5.5 -25.5t-4.5 -31.5q0 -9 -9 -9q-7 0 -7 9q1 34 8 60q-16 3 -34 6.5t-37 8.5q-13 -37 -26 -73t-30 -83
q-37 -104 -89 -174t-111 -109t-122 -49t-122 6q-9 3 -10 11t4.5 14t16.5 1q32 -12 70 -10t75 14.5t67 32.5q46 30 78.5 69t57 90t48.5 118q16 42 28.5 79.5t25.5 71.5q-43 10 -94 20.5t-87 10.5q-28 0 -47 -7.5t-22 -30.5q0 -7 -9 -7t-9 8v2q4 30 28.5 41.5t58.5 11.5
q39 0 91 -10.5t96 -21.5q28 78 48 135.5t32 88.5q-56 12 -112 28.5t-111 29.5q-75 17 -150.5 29t-150.5 -3q-41 -8 -75.5 -31.5t-53.5 -61.5q-4 -8 -12 -4t-4 11q21 41 59.5 67.5t82.5 35.5q80 16 157 3t151 -29q57 -14 113.5 -30t112.5 -28q1 4 2.5 7l2.5 5q22 55 56 81
t67 26q29 0 47.5 -15.5t24.5 -38.5q2 -11 1.5 -25t-8.5 -28q-17 -30 -50 -39q-28 -7 -56 -4t-53 7zM823 760q-12 0 -23 -4q-24 -8 -45.5 -33.5t-34.5 -60.5q27 -4 54.5 -5.5t50 5t33.5 27.5q13 24 4.5 47.5t-39.5 23.5zM720 401q27 -3 41 0q12 3 10 12.5t-10 14.5
q-14 10 -24 -0.5t-17 -26.5z" />
    <glyph glyph-name="G" unicode="G" horiz-adv-x="1253" 
d="M1019 775q11 0 19.5 -0.5t14.5 -1.5q31 -4 49.5 -18t23.5 -32t0 -36t-18 -31q-27 -27 -71 -38.5t-97 -12t-107 5t-101 13.5q-38 -34 -71.5 -77t-56.5 -95q-36 -80 -44 -152.5t7.5 -129.5t49 -91t79.5 -37q50 -3 104 20.5t104.5 77.5t89.5 145v1q3 10 15.5 11.5t23.5 -4
t8 -14.5q-12 -49 -30 -113t-45 -138q52 22 109 51.5t108 70t84 96.5q5 8 12 4t2 -12q-37 -61 -92.5 -105t-117 -74.5t-114.5 -52.5q-38 -100 -95 -211t-139 -223q-35 -46 -70 -71t-67 -33q-37 -9 -66.5 1t-45.5 31q-40 50 -40 101.5t25 99t61 85.5q63 69 165 128t230 98
q22 58 38 110.5t28 97.5q-47 -84 -105.5 -130.5t-118.5 -59t-112 5.5q-45 16 -80 51t-51 87t-12 118t35 143q26 65 59.5 114t71.5 86q-68 11 -147 24t-157 21.5t-143 5.5q-71 -4 -123.5 -24t-78.5 -67q-5 -7 -12 -3t-3 12q29 51 86 73t130 26q68 3 149.5 -6t163.5 -23
t152 -25q35 31 70 52.5t70 35.5q58 23 109 30.5t85 7.5zM750 639q69 -10 131 -15q73 -4 129.5 5t86.5 39q20 20 12 51q-7 20 -29 29.5t-49 9.5q-55 0 -131.5 -30t-149.5 -89zM907 -8q-122 -38 -219.5 -96t-156.5 -122q-62 -68 -76 -137q-6 -32 0.5 -62.5t27.5 -59.5
q22 -27 51 -28.5t60.5 16.5t61.5 49.5t54 70.5q19 30 38.5 58.5t35.5 57.5q39 66 68.5 127.5t54.5 125.5z" />
    <glyph glyph-name="H" unicode="H" horiz-adv-x="927" 
d="M607 761q-11 -31 -19 -52t-18 -43q-6 -14 -23 -61.5t-43 -121t-59 -165.5q67 14 132.5 30t119.5 36q32 97 61.5 184t46.5 141q11 32 35 48.5t49 16.5q35 0 54.5 -22t20.5 -56q2 -45 -25 -103q-24 -55 -66.5 -108t-91.5 -82q-11 -6 -22 -11t-23 -10q-28 -84 -56.5 -165.5
t-51.5 -148t-37 -106.5l-14 -40q-3 -10 -12 -11t-16 4.5t-4 14.5l12.5 37t34 99t47 139t52.5 158q-55 -19 -120.5 -35t-131.5 -29q-5 -15 -9 -25.5t-10 -26.5q-38 -104 -89.5 -174t-110.5 -109q-8 -5 -15.5 -9.5t-15.5 -9.5q-53 -28 -95 -23.5t-66 35.5t-22 82
q2 47 28.5 96.5t80 89.5t135.5 56q35 7 73 14t77 14q53 149 87 246t46 125l23 62q-112 -90 -218 -129t-184 -37q-48 2 -87 20t-53 54.5t12 91.5q4 8 11.5 4t3.5 -11q-16 -33 -14.5 -58t17.5 -43t44 -29t67 -12q52 -1 119 16.5t142.5 58t152.5 107.5q7 5 17 4t17 -6.5
t4 -11.5zM901 748q-19 0 -35 -15t-23 -36q-17 -52 -43 -129.5t-56 -164.5q8 4 15 8l14 8q47 26 87.5 77.5t63.5 103.5q22 46 23 95q-1 21 -12 37t-34 16zM394 290q-37 -7 -72.5 -13t-68.5 -13q-79 -15 -129 -52.5t-74 -84t-26 -88.5q-1 -18 1.5 -33.5t10.5 -28.5
q12 -20 32.5 -24.5t43.5 1t43 15.5t32 18q70 46 115 110t81 164q6 17 11 29z" />
    <glyph glyph-name="I" unicode="I" horiz-adv-x="611" 
d="M668 761q-11 -31 -18 -52t-17 -43q-6 -16 -26 -72t-51.5 -144t-72.5 -203q-38 -104 -90 -174t-111 -109q-39 -26 -79 -39t-81 -14q-56 -2 -89 31.5t-24 85.5q6 36 33 66t70 46t99 7q8 -1 6.5 -9t-9.5 -7q-55 8 -94 -7t-61 -42.5t-27 -56.5q-3 -18 0 -35.5t14 -30.5
q16 -17 43.5 -20.5t59.5 1.5t63 17t54 27q47 30 79 69t57 90t49 118q61 169 99.5 278.5t51.5 140.5l11 30q-29 -25 -70 -34t-89.5 -9.5t-99.5 1.5q-66 2 -117 -5t-82.5 -35t-39.5 -90q-1 -8 -9.5 -7t-7.5 9q7 52 31 83.5t59 45.5t78 15.5t88 0.5q47 -1 91.5 -1.5t82 6
t65.5 25t41 54.5q3 9 13.5 9t20 -5t6.5 -12z" />
    <glyph glyph-name="J" unicode="J" horiz-adv-x="923" 
d="M996 726q0 -1 -0.5 -2t-0.5 -2q-23 -50 -68.5 -72.5t-102.5 -29.5q-1 -2 -1 -5t-1 -5q-8 -40 -24.5 -103.5t-40 -142.5t-52 -164.5t-59.5 -168.5q58 25 113.5 55t102 69t77.5 91q3 5 6 5h1q8 0 8 -9q0 -3 -1 -4q-33 -56 -83 -97.5t-110 -73t-123 -57.5
q-36 -94 -72.5 -175.5t-70.5 -133.5q-30 -46 -74.5 -94t-102 -85t-125.5 -51q-46 -11 -84 1t-61 40q-22 27 -30.5 68.5t2.5 82.5q20 75 83.5 125.5t147.5 88.5q78 35 168 65t174 65q33 85 63.5 176t56.5 175t44.5 151.5t26.5 107.5q-45 -2 -93 -1t-95 0q-99 -1 -172 -21
t-117.5 -72t-57.5 -148q-2 -8 -9 -8q-8 0 -8 9l1 1q12 84 46 135.5t84 77.5t110.5 34t122.5 9q61 1 121 0t112.5 5t92 27t59.5 64q1 4 7 4q9 0 9 -7zM461 -276q28 43 59 110.5t63 149.5q-82 -32 -167 -60.5t-159 -62.5q-83 -37 -143 -85t-79 -117q-8 -29 -5 -60t17 -54
q17 -30 51 -36.5t74 0.5q69 13 123.5 47t95.5 79t70 89z" />
    <glyph glyph-name="K" unicode="K" horiz-adv-x="989" 
d="M564 769q10 -1 16 -8.5t3 -17.5q-26 -93 -51 -190.5t-50 -189.5q69 0 135 23.5t126.5 63t111 87.5t88 98t58.5 94q4 7 11.5 4t3.5 -11q-27 -56 -76.5 -117.5t-116 -116.5t-143.5 -93t-158 -46q60 -19 100 -62t67 -98t49 -112q18 -49 36 -94.5t40 -79.5t52 -52t76 -14
q8 1 9 -7.5t-7 -9.5q-50 -4 -84.5 17.5t-58.5 57.5t-42 81.5t-36 94.5q-17 46 -37.5 91t-48 82.5t-66.5 63.5t-94 34q-7 -23 -13 -46t-13 -45q-33 -113 -68 -202t-78 -136q-7 -8 -17 -5.5t-14 10.5t6 19q33 38 66 125.5t66 200.5q29 102 58.5 216.5t60.5 226.5
q-28 -28 -69.5 -39.5t-91 -14t-101.5 -4.5q-65 -2 -118.5 -11.5t-88 -39t-43.5 -91.5q-1 -8 -10 -6.5t-7 9.5q8 59 38 91t74 46t96 17t104.5 4t100 7.5t82.5 26t50 61.5q3 9 17 7z" />
    <glyph glyph-name="L" unicode="L" horiz-adv-x="1115" 
d="M816 426q-47 -1 -98 7.5t-104 23.5q-121 34 -218 61t-171 28q-73 1 -123 -32q-25 -17 -45.5 -45.5t-36.5 -72.5q-3 -8 -11.5 -5.5t-5.5 10.5q28 77 78.5 120t143.5 41q77 -2 174.5 -28t219.5 -60q54 -15 105 -23.5t98 -7.5q16 49 32.5 99t33.5 97q19 52 42 82t49 43
q30 14 54 6t40 -30t21 -47q7 -37 -1 -73.5t-21 -58.5q-38 -62 -91.5 -93.5t-121.5 -38.5q-33 -105 -67 -210t-78 -197.5t-107 -161.5q44 -14 92 -31.5t93 -34t81 -28.5q79 -28 156.5 -46.5t140.5 -17.5t106 23.5t56 72.5q2 8 10.5 5.5t6.5 -10.5q-15 -55 -62 -80.5
t-116 -26.5q-66 -1 -145 16.5t-158 46.5q-37 13 -83.5 30.5t-96 35t-94.5 32.5q-45 -46 -94 -71t-97 -29q-36 -4 -56 15.5t-17 47.5q4 33 37.5 61t91.5 26q30 -1 53 -7.5t53 -15.5q63 63 107 153t77.5 193t66.5 206zM996 728q-16 -7 -34.5 -32t-35.5 -72q-16 -43 -31 -87.5
t-30 -90.5q61 8 109.5 37t83.5 86q10 16 17.5 49t2.5 62q-5 26 -28 43.5t-54 4.5zM450 -119q-20 0 -36 -5t-29 -13q-10 -7 -19.5 -17.5t-13.5 -21.5q-7 -20 3 -28.5t28 -9t37 3.5t31 8q25 10 51.5 26t48.5 36q-27 8 -49.5 14.5t-51.5 6.5z" />
    <glyph glyph-name="M" unicode="M" horiz-adv-x="1475" 
d="M1029 701q8 -24 11.5 -54.5t3.5 -64.5q0 -35 -3 -71q-7 -80 -23.5 -164t-35.5 -151q46 89 92.5 174t90.5 151q26 41 52 72t51 50q14 11 30 18.5t32 7.5q15 0 34 -11q23 -15 32.5 -42t9.5 -62q0 -15 -1.5 -30t-3.5 -31q-8 -60 -27.5 -129t-43.5 -139.5t-48 -135.5
t-42 -119q-10 -28 -16 -53t-11 -45q-4 -20 -4 -36q0 -6 0.5 -11t0.5 -8v-2q0 -7 -5.5 -10t-11.5 -3q-14 0 -14 10v10q0 27 5 57t16.5 70t29.5 97t44 137t60 190q19 60 27 106.5t8 78.5q0 41 -11.5 61.5t-29.5 21.5h-4q-19 0 -38 -11t-38 -28q-16 -17 -33.5 -40t-34.5 -50
q-52 -79 -108.5 -185.5t-114.5 -216.5q-3 -7 -14 -7q-7 0 -14 4.5t-7 11.5q0 3 1 4q39 120 61 239.5t22 212.5q0 83 -20 134q-15 38 -46 38q-42 0 -103 -72q-9 -11 -17.5 -23t-18.5 -25q-37 -53 -76.5 -120t-77.5 -140t-72 -144.5t-61 -133.5q-26 -58 -43.5 -101t-22.5 -61
q-2 -7 -7 -12t-12 -5q-8 0 -14 6t-6 14v1q3 62 16.5 141.5t35 167.5t47.5 175.5t55 165.5t57 138q-40 -35 -97 -74t-121 -75t-127 -62q-40 -16 -85 -29t-85 -13q-45 0 -75 21.5t-30 76.5v10.5t1 11.5q0 8 8 8q9 0 9 -9v-1q-1 -4 -1 -9v-9q0 -47 25 -66t63 -19q37 0 81.5 13
t83.5 29q55 23 111 53.5t107.5 64.5t92.5 66.5t65 59.5q5 5 13 5t14.5 -6t6.5 -14q0 -2 -1 -5t-2 -5q-25 -46 -52.5 -115t-54.5 -151t-50 -168t-40.5 -167.5t-25.5 -148.5q9 21 19.5 47.5t24.5 56.5q27 62 61.5 134t72.5 145.5t77.5 141t77.5 120.5q39 56 74 91q37 37 69 43
q5 1 9.5 1h9.5q33 0 52 -21t28 -50z" />
    <glyph glyph-name="N" unicode="N" horiz-adv-x="1109" 
d="M1040 701q12 -37 14 -86t-2 -104t-13.5 -114t-21.5 -112q-4 -18 -13.5 -52t-21.5 -76.5t-24 -86.5q-14 -47 -28 -100.5t-29 -90.5q-3 -7 -13.5 -6.5t-19 7t-4.5 15.5q13 41 30 93.5t34 109t31.5 108.5t22.5 91q9 42 18 97.5t13.5 114t1.5 111t-18 89.5q-17 45 -56.5 36.5
t-92.5 -70.5q-18 -23 -35 -48q-37 -53 -76.5 -120t-78 -140t-72.5 -144.5t-61 -133.5q-25 -58 -42.5 -101t-22.5 -61q-2 -7 -7 -12t-12 -5q-8 0 -14.5 6t-6.5 14v1q3 62 17 142t35.5 168t48 175.5t55.5 166t57 138.5q-41 -35 -98 -74.5t-122 -76t-128 -62.5
q-55 -22 -106 -34t-90 -6q-89 14 -78 118q0 8 8 8q9 0 9 -9v-1q-4 -46 11.5 -70t52.5 -30q34 -5 83.5 5.5t104.5 33.5t111.5 53.5t108 65t92.5 67.5t65 59q4 4 13 4h1q8 0 14 -6t6 -14q0 -4 -2 -10q-25 -46 -52.5 -115t-54.5 -151t-50 -168t-40.5 -167.5t-25.5 -148.5
q9 21 19.5 47.5t23.5 56.5q27 62 61.5 134t72.5 145.5t77.5 141t77.5 120.5q19 27 38.5 50.5t36.5 40.5t34.5 28.5t33.5 14.5q43 9 66 -14.5t33 -55.5z" />
    <glyph glyph-name="O" unicode="O" horiz-adv-x="1287" 
d="M1156 674q47 -64 60 -159.5t-24 -208.5q-25 -79 -69 -153t-100 -129q-43 -41 -91 -69t-101 -38q-32 -6 -59 -3.5t-50 12.5q-42 18 -69 55.5t-39.5 88.5t-12.5 109.5t10 118.5q10 54 29 109q-59 18 -120 41.5t-119 45.5q-70 26 -134 44t-115 18q-59 0 -90 -26.5t-45 -76.5
q-2 -7 -9.5 -5t-5.5 9q15 55 50.5 85t99.5 30q54 0 119.5 -19t135.5 -44q58 -22 119 -45.5t119 -41.5q21 59 52 110t74 88q10 49 39 87.5t79 54.5q82 28 152 1t115 -89zM894 747q-41 -14 -66.5 -43.5t-36.5 -67.5q22 16 47.5 25.5t59.5 11.5q59 5 92 -28.5t34 -85.5
q1 -47 -23.5 -95.5t-72.5 -71.5q-51 -25 -118 -20t-135 24q-18 -51 -27 -105q-13 -76 -8 -146.5t29 -118.5q44 -75 115 -85.5t149 33.5q21 12 41 28t39 34q55 53 97.5 125t67.5 150q36 110 23 201.5t-57 151.5q-43 58 -107.5 83.5t-142.5 -0.5zM852 627q-37 -14 -70 -47
q-3 -59 20 -111q3 -6 -4 -10q-8 -3 -14 10t-10 32.5t-6 37.5t-2 24q-26 -30 -47.5 -69t-37.5 -83q68 -19 131 -23t109 18q38 18 60 54t27 75q3 41 -20 66.5t-60 33t-76 -7.5z" />
    <glyph glyph-name="P" unicode="P" horiz-adv-x="994" 
d="M782 740q-76 -22 -133 -95t-104 -177q-17 -38 -33.5 -78t-32.5 -82q24 -28 68 -45.5t95 -18.5q26 0 49 6t49 17q57 27 99.5 76t67.5 105q34 76 34 147q0 37 -10.5 67.5t-32.5 50.5q-15 13 -36 23.5t-47 9.5q-18 -1 -33 -6zM581 743q-30 -106 -59 -217t-58 -214
q32 86 66 162q48 105 107.5 181t140.5 100q30 10 59 10q63 -1 96 -42t40 -97q1 -9 1.5 -17.5t0.5 -18.5q0 -68 -30.5 -142.5t-90.5 -135.5q-44 -44 -98.5 -63.5t-109.5 -19.5h-4q-51 1 -96 17t-73 45q-23 -60 -45 -121.5t-46 -123.5q-16 -44 -31 -77.5t-31 -54.5
q-6 -7 -13 -7t-12.5 4.5t-5.5 12.5t5 14q22 34 50.5 120.5t61.5 199.5q30 103 61 219.5t62 228.5q-28 -27 -69.5 -38.5t-91 -14.5t-101.5 -5q-65 -2 -118.5 -11.5t-88 -39t-43.5 -91.5q-2 -7 -8 -7q-9 0 -9 8v2q8 59 37.5 90.5t73 45.5t95 17.5t104 4t100 6.5t83 25t51.5 59
q6 12 18 12q8 0 14 -5.5t6 -14.5q0 -4 -1 -6z" />
    <glyph glyph-name="Q" unicode="Q" horiz-adv-x="1162" 
d="M1032 674q46 -64 60 -159.5t-23 -208.5q-31 -94 -86 -180.5t-130 -142.5q27 -23 59 -50.5t64 -51t60 -35.5q33 -15 58 -10t45 29q1 3 6 3q8 0 8 -8q0 -3 -2 -5q-47 -56 -121 -24q-30 13 -63.5 38t-66 54t-61.5 52q-31 -21 -64 -36t-68 -22q-31 -6 -58.5 -3.5t-50.5 12.5
q-52 22 -80 71.5t-36 116.5t0 139q-72 -16 -146.5 -19.5t-140.5 9t-113 44.5t-64.5 86.5t4.5 135.5q2 7 9 5t5 -9q-22 -79 -3.5 -130.5t66 -80.5t112 -39t136 -5t137.5 20q15 104 55.5 198t107.5 152q11 49 40 87.5t78 54.5q83 28 152.5 1t114.5 -89zM825 -15
q-27 21 -63.5 44.5t-78 34t-83.5 -5.5h-3q-8 0 -8 7q0 5 5 7q36 14 71 10.5t66.5 -18t58.5 -34t49 -36.5q13 10 25.5 20.5t24.5 21.5q55 53 97.5 125t67.5 150q36 110 23 201.5t-57 151.5q-43 58 -107 83.5t-142 -0.5q-41 -14 -67 -43.5t-37 -67.5q12 8 23.5 15t24.5 11
q41 15 84 11t73 -28.5t33 -72.5q3 -45 -24 -93.5t-76 -85.5q-59 -43 -133 -76.5t-152 -53.5q-9 -68 -3 -130.5t28 -106.5q31 -54 77 -73.5t98.5 -10t104.5 42.5zM729 627q-38 -14 -71 -47q-2 -28 4 -57t17 -54q3 -6 -4 -10q-8 -3 -14 10t-10.5 32.5t-6.5 37.5t-2 24
q-45 -51 -75.5 -127t-43.5 -157q76 20 146.5 52.5t126.5 73.5q35 25 57.5 58t30.5 66q7 31 -5 54.5t-36 36.5t-54 15.5t-60 -8.5z" />
    <glyph glyph-name="R" unicode="R" horiz-adv-x="994" 
d="M583 743q-30 -107 -60.5 -220.5t-59.5 -217.5q17 45 34 87t35 82q48 105 107.5 181t140.5 100q30 10 59 10q63 -1 96 -42t40 -97q7 -48 -4 -103.5t-40 -110t-75 -100.5q-22 -22 -64.5 -48.5t-94 -47.5t-100.5 -26q19 -72 28 -138t22 -118q13 -57 37.5 -97.5t82.5 -50.5
q7 -1 8 -8.5t-3 -14t-11 -5.5q-42 6 -67.5 26.5t-40.5 52t-25 70.5q-16 64 -26.5 136.5t-25.5 144.5q-22 1 -44 8.5t-35 24.5q-14 19 -3 35.5t26 21.5q23 8 39 -5.5t23 -33.5q3 -9 6 -17t5 -17q14 1 28.5 5t30.5 8q74 24 131.5 71t95 106.5t53.5 120t7.5 113t-43.5 84.5
q-14 13 -38.5 21.5t-55.5 6t-67 -21.5q-15 -8 -27 -18.5t-26 -23.5q-44 -43 -75 -95t-60 -114q-43 -94 -82 -203t-82 -219q-16 -44 -31 -77.5t-31 -54.5q-7 -9 -17.5 -7.5t-15 10.5t5.5 21q16 22 34 68.5t38 111t42 140.5q30 103 61 219.5t62 228.5q-28 -27 -69.5 -38.5
t-91 -14.5t-101.5 -5q-65 -2 -118.5 -11.5t-88 -39t-43.5 -91.5q-1 -8 -10 -6.5t-7 9.5q8 59 37.5 90.5t73 45.5t95 17.5t103.5 4.5t99.5 6.5t82.5 24.5t52 59q5 11 15.5 11.5t18 -7t4.5 -18.5zM510 230q10 -13 27 -18.5t36 -6.5q-3 16 -6 29.5t-13 24.5q-9 9 -23 6t-22 -13
t1 -22z" />
    <glyph glyph-name="S" unicode="S" horiz-adv-x="990" 
d="M1146 753q0 -8 -6 -14t-14 -5q-71 4 -126.5 -35t-103.5 -106t-90.5 -154t-86.5 -174t-90 -165t-105 -128q-35 -28 -75 -44.5t-87 -15.5q-68 -2 -130.5 22t-112 68.5t-79.5 104t-35 129t23 143.5q27 73 72.5 119t100 68t110.5 23q44 0 83 -11q38 44 91 69t113 41
q57 14 117.5 22.5t119.5 15t112 15.5t95 25q1 0 1.5 0.5t1.5 0.5t1.5 -0.5l0.5 -0.5q9 3 25 6t33 3.5t29 -4.5t12 -18zM971 729q-55 -11 -118 -17.5t-127.5 -14.5t-124.5 -23q-57 -15 -106 -39t-85 -62q58 -19 105.5 -61.5t68.5 -106t2 -144.5q-1 -7 -9 -5t-6 9
q18 77 -3 137.5t-67 101t-102 57.5q-29 -37 -46 -88t-16 -122q0 -9 -8 -9t-8 9q-1 71 16 122.5t46 90.5q-62 15 -128.5 2t-123 -59.5t-88.5 -132.5q-34 -88 -18.5 -170t63.5 -144q29 -37 61 -58t62 -35t59.5 -20t56.5 -5q55 1 99 20.5t70 41.5q53 45 98.5 119.5t88.5 160.5
t85.5 174.5t93.5 159.5q24 34 51.5 62.5t57.5 48.5z" />
    <glyph glyph-name="T" unicode="T" horiz-adv-x="593" 
d="M1076 888q8 0 8 -9q0 -1 -0.5 -1.5t-0.5 -1.5q-11 -32 -42.5 -50.5t-73 -28t-84.5 -15.5q-61 -8 -134 -10t-150 -3q2 -5 0 -10q-35 -123 -77 -255.5t-86 -249.5t-82.5 -207.5t-68.5 -132.5q-7 -8 -15.5 -7t-12 10t3.5 21q16 22 38 70.5t48.5 115t54.5 144.5
q43 116 83.5 247t74.5 253q-101 -2 -200.5 -7t-176.5 -21q-38 -8 -74 -22t-61 -36.5t-30 -58.5q-2 -8 -9 -8q-9 0 -9 9v1q6 41 33 66.5t66 41t80 24.5q71 15 160.5 20.5t185.5 6.5t187.5 3.5t168.5 11.5q39 5 77.5 13.5t68 25t40.5 44.5q2 6 8 6h1z" />
    <glyph glyph-name="U" unicode="U" horiz-adv-x="1032" 
d="M680 740q-20 -28 -46 -76.5t-55.5 -110t-57.5 -129t-51.5 -134t-37.5 -124.5q-9 -37 -14 -68t-4 -54q3 -98 77 -67q4 1 7 2.5l7 3.5q38 22 85 70.5t96 112.5t98 135.5t96 144t90 138.5t80 119q8 11 18.5 9t16.5 -11t-2 -20q-42 -61 -81 -140.5t-73.5 -165t-61.5 -163.5
q-28 -80 -52.5 -163.5t-19.5 -173.5q2 -12 -4.5 -16t-14.5 -1.5t-10 11.5q-4 33 0 77t15 96q17 78 43 160.5t57 162t63 148.5q-57 -88 -120 -183t-125 -175q-49 -65 -96 -113.5t-89 -72.5q-19 -11 -49 -19t-53 6q-21 12 -29 35.5t-9 51.5t4.5 61.5t15.5 71.5q16 65 41.5 138
t56 145t62 136.5t59.5 112.5q-41 -34 -96 -71t-116 -71t-121 -58q-56 -22 -106.5 -34t-89.5 -6q-43 7 -63.5 36.5t-15.5 81.5q0 8 9 8q8 0 8 -9v-1q-4 -46 11.5 -70t52.5 -30q34 -5 83.5 5.5t104.5 33.5q54 23 110 53t107.5 63.5t92.5 66t65 59.5q9 9 19 6.5t15 -12
t-3 -19.5z" />
    <glyph glyph-name="V" unicode="V" horiz-adv-x="1113" 
d="M721 770q-5 0 -12 -6t-14 -21q-12 -23 -25.5 -61.5t-29.5 -86.5q2 1 3 2t3 2q56 44 75.5 82.5t16.5 63.5q-1 10 -5.5 17.5t-11.5 7.5zM1228 816l-61.5 -123t-82 -158.5t-96.5 -173.5t-104 -168q-52 -79 -104.5 -144t-100.5 -101q-23 -16 -45 -26t-43 -10q-19 0 -36 11
q-20 13 -31 37t-16 53t-5 64t3 75q8 88 28 188.5t45 191.5q-77 -50 -162.5 -88t-163.5 -46q-123 -14 -184 53.5t-68 191.5q-1 7 7 8t8 -7q8 -118 64 -180.5t172 -49.5q52 6 109.5 26t115 50.5t109.5 65.5q17 62 35 113.5t34 84.5q19 41 50 44t44 -30q12 -30 -6 -79t-88 -102
q-6 -5 -11.5 -9t-11.5 -9q-19 -64 -36.5 -137t-30.5 -146t-19 -137q-3 -38 -2.5 -71.5t4.5 -58.5q4 -21 12 -43.5t24 -35t44 -2.5q20 8 41 24q47 34 98 97.5t103 142.5q52 80 103 168t96.5 173t82 158l61.5 123q4 8 11.5 4t3.5 -12z" />
    <glyph glyph-name="W" unicode="W" horiz-adv-x="1503" 
d="M1606 824q4 8 11 4t3 -11l-57.5 -122.5t-76.5 -159t-89 -174t-96 -168.5q-49 -79 -97.5 -144t-93.5 -101q-14 -10 -32.5 -21.5t-42.5 -13.5q-29 -3 -47 12t-27 39t-13 49q-4 29 -4 64t3 75q5 70 18.5 148.5t31 156t36.5 143.5q-41 -83 -88 -167.5t-96 -157.5
q-44 -65 -87 -114.5t-84 -73.5q-32 -20 -61 -20h-7t-7 1q-28 7 -41 33.5t-16 63.5t-2 73q2 68 15 148t30 157q-77 -49 -160 -78t-160 -31q-111 -2 -177.5 54t-89.5 153q-2 7 6 9t9 -5q23 -93 84.5 -146t167.5 -51q78 2 162.5 33.5t162.5 83.5q14 56 28 105t27 82q1 2 2 5
t3 5q9 17 21 25.5t25 10.5q31 3 44 -30q12 -30 -6 -79t-88 -102l-15 -12q-13 -55 -25 -114.5t-20 -117t-10 -106.5q-2 -61 8 -97q12 -39 30 -47.5t39 1.5t42 27q32 26 67 68.5t70 94.5q64 94 123 205.5t109 220.5q0 1 0.5 1.5t0.5 1.5q5 11 15.5 12t18 -6t3.5 -19
q-5 -14 -10 -29t-10 -31q-22 -68 -42.5 -153.5t-36.5 -173.5t-22 -164q-3 -38 -2.5 -71.5t4.5 -58.5t11 -45t16 -27q17 -15 45 -4.5t51 28.5q41 36 86 96t91 135q48 80 95 167.5t89.5 173t77 158.5t57.5 123zM711 772q-6 0 -12.5 -6t-11.5 -20q-11 -25 -22.5 -62.5
t-23.5 -84.5q56 44 75 82.5t17 63.5q-3 27 -22 27z" />
    <glyph glyph-name="X" unicode="X" horiz-adv-x="908" 
d="M660 746q-27 -76 -53 -167t-46 -185q68 34 131.5 66t115.5 66q63 41 104 87.5t51 102.5q2 7 8 7q8 0 8 -9v-1q-11 -61 -54.5 -109.5t-107.5 -90.5q-55 -37 -122 -71t-138 -69q-13 -58 -22 -115t-15 -110q-6 -77 9 -135q7 -29 19 -51.5t20 -27.5q9 -6 8 -14t-7.5 -12
t-14.5 1q-19 13 -31 38t-20 57t-11.5 70t-0.5 78q7 48 13.5 99.5t16.5 103.5q-84 -42 -165 -89.5t-150.5 -105.5t-119 -132t-69.5 -168q-1 -6 -8 -6q-9 0 -9 8v2q21 99 73 176t124.5 137t156.5 108.5t170 90.5q17 97 41.5 191.5t52.5 175.5q-19 -9 -44.5 -12t-54.5 -5
q-41 -2 -86 -1t-90 0q-40 -1 -79.5 -5.5t-71 -16.5t-50.5 -36t-18 -63q0 -7 -8 -7t-8 7q-1 42 19.5 69t53.5 42q42 19 100 22.5t120 2t117 1.5q38 1 67 8t45 20q12 10 23.5 0.5t6.5 -23.5z" />
    <glyph glyph-name="Y" unicode="Y" horiz-adv-x="1150" 
d="M806 -8q-122 -38 -219 -96t-156 -122q-64 -70 -77 -137q-12 -66 29 -122q9 -11 22 -20t33 -9q39 0 66.5 21.5t46.5 41.5q31 32 57 74q19 30 39.5 58.5t36.5 57.5q39 66 67.5 127.5t54.5 125.5zM628 774q13 0 18.5 -10t-1.5 -21q-19 -28 -41 -71.5t-44 -96.5t-40.5 -109
t-31 -110t-15.5 -98q-2 -28 0.5 -50.5t8.5 -37.5t18 -27.5t28 -14.5q25 -4 46 3t41 20q19 13 39.5 30t40.5 37q57 56 113 133.5t104 165t81 171.5q1 3 6 5q7 7 16 7q11 0 17.5 -9t3.5 -19l-99 -408q-13 -53 -30 -110t-43 -126q52 22 109.5 51.5t108.5 70t84 96.5q2 5 8 5
q8 0 8 -9q0 -3 -1 -4q-37 -61 -92.5 -105t-117 -74.5t-114.5 -52.5q-38 -100 -95.5 -211t-139.5 -223h-1q-35 -46 -70 -71t-67 -33q-37 -9 -66.5 1t-45.5 31q-40 50 -40 101.5t25 99t61 85.5q63 69 165.5 128t230.5 98q14 36 28.5 81.5t27.5 91t22 83.5l81 330
q-35 -73 -78 -144.5t-91 -135.5t-97 -112q-43 -44 -85 -71t-81 -33q-47 -7 -71 14.5t-32 60.5t-5 83q4 52 18 113t35 123t45.5 119t48.5 101q-40 -31 -92.5 -61t-111 -54.5t-115.5 -38.5q-54 -13 -102 -14.5t-84.5 11.5t-55.5 45.5t-14 86.5q0 8 9 8t9 -8l-1 -1
q-5 -50 12.5 -78.5t51.5 -39.5t78 -8.5t93 14.5q51 13 103.5 34.5t101.5 47.5t88 54.5t63 54.5q5 5 15 5z" />
    <glyph glyph-name="Z" unicode="Z" horiz-adv-x="1105" 
d="M963 650q-4 -101 -76.5 -198.5t-211.5 -175.5q77 -10 119.5 -62.5t57.5 -124.5q5 -21 6 -43q48 22 96.5 50t91 65t71.5 85q3 5 7 5h1q8 0 8 -9q0 -3 -1 -4q-31 -52 -76.5 -91t-96.5 -68t-100 -51q1 -18 0 -37t-4 -37q-11 -70 -47 -142.5t-103 -139.5q-37 -37 -98 -78.5
t-124 -71.5q-63 -32 -119 -41q-28 -5 -60 2t-58 30q-24 21 -30 55.5t7 74.5t47 83t93 86q45 32 109 63t132 59q63 26 120.5 50t94.5 44q-3 56 -21.5 104t-56 77.5t-95.5 28.5h-2q-12 -4 -22.5 3.5t-11 19t14.5 20.5q65 35 121.5 79t97.5 95t60.5 106.5t10.5 113.5
q-5 33 -29.5 53t-60.5 22.5t-76 -15.5q-12 -7 -23.5 -15.5t-22.5 -20.5q2 -3 3.5 -5.5t2.5 -6.5q14 -40 0.5 -66.5t-33.5 -33.5q-13 -5 -22.5 -0.5t-13.5 13.5q-6 14 1 33.5t19 37.5t20 28q-17 12 -44.5 11t-58.5 -6q-48 -8 -107.5 -25t-121.5 -33t-121 -28t-107 -10
q-49 2 -83 24t-37 71q0 8 9 8t9 -8q4 -43 31 -60t72 -18q46 -1 103.5 10.5t119.5 27.5t121 33t109 25q32 5 64.5 5.5t52.5 -15.5q30 31 64 46t67 16q40 1 72.5 -14.5t51 -44t17.5 -64.5zM691 686q-7 -8 -13 -17t-12 -19q-10 -20 -11.5 -36.5t15.5 -10.5q8 3 17 14t12 29
t-8 40zM815 -40q1 13 2.5 25t1.5 25q-39 -20 -94.5 -43.5t-114.5 -48.5q-68 -28 -131 -58.5t-106 -61.5q-58 -42 -90.5 -82.5t-44.5 -77.5q-7 -20 -7.5 -38.5t3.5 -34.5q7 -26 37.5 -42t86.5 -2q22 5 50.5 14t58.5 24q40 19 80 43.5t74 50t56 47.5q62 62 95.5 129.5
t42.5 130.5z" />
    <glyph glyph-name="bracketleft" unicode="[" horiz-adv-x="628" 
d="M494 849v0q29 0 61.5 -0.5t65.5 -0.5q9 0 9 -8q0 -9 -9 -9l-108 1l-3 -8l-421 -957h99q9 0 9 -8q0 -9 -9 -9h-116q-10 -1 -16 7.5t-2 17.5l424 964q4 10 16 10z" />
    <glyph glyph-name="backslash" unicode="\" horiz-adv-x="844" 
d="M203 849v0q8 0 11 -8l378 -982q1 -2 1 -5q0 -12 -13 -12q-8 0 -11 8l-378 982q-1 2 -1 4q0 13 12 13h1z" />
    <glyph glyph-name="bracketright" unicode="]" horiz-adv-x="628" 
d="M561 849v0q9 0 14 -8t1 -16l-423 -964q-5 -11 -16 -11q-29 0 -62 0.5t-66 0.5q-9 0 -9 9q0 8 9 8h109l3 7l421 957h-100q-8 0 -8 9q0 8 8 8h116h3z" />
    <glyph glyph-name="asciicircum" unicode="^" horiz-adv-x="307" 
d="M189 772v0q6 0 10 -6q1 -1 2 -3l60 -145q5 -11 -6 -15t-15 6l-54 130l-111 -133q-7 -9 -16 -1q-9 7 -1 16l122 146q3 5 9 5z" />
    <glyph glyph-name="underscore" unicode="_" horiz-adv-x="696" 
d="M163 -15h368v0q14 0 14 -14q0 -13 -14 -13v0h-368v0q-13 0 -13 13q0 14 13 14v0z" />
    <glyph glyph-name="grave" unicode="`" horiz-adv-x="178" 
d="M69 766v0q6 0 8 -4l53 -85q3 -5 -3.5 -10t-10.5 0l-61 78q-6 7 0.5 14t13.5 7z" />
    <glyph glyph-name="a" unicode="a" horiz-adv-x="542" 
d="M144 312q-26 0 -59 -28t-53 -73q-13 -27 -18.5 -55t-5.5 -52q0 -25 6.5 -42.5t22.5 -17.5q13 0 31 15t36 38.5t34 48t27 44.5q4 10 8 20.5t8 20.5q7 17 7 36q0 16 -10 30.5t-34 14.5zM-12 218q14 34 39.5 59.5t55 39.5t54.5 14q29 0 45 -15t20 -37q4 9 8.5 17t8.5 16
q4 6 13 6t18 -6t9 -15q0 -5 -2 -8q-17 -31 -35.5 -72t-34.5 -85t-26.5 -85.5t-11.5 -74.5q0 -24 13.5 -33t32.5 -9q14 0 29 3q25 6 48 19t45 27q73 52 131.5 121t105.5 145q4 6 10 3t6 -8q0 -2 -2 -4q-49 -76 -107.5 -147t-133.5 -124q-31 -21 -67 -38t-76 -17h-3
q-35 2 -49 26.5t-14 60.5q0 27 6 58t15 60q-23 -35 -50.5 -62.5t-51.5 -27.5q-36 0 -51.5 30.5t-15.5 67.5q0 23 4 47.5t14 47.5z" />
    <glyph glyph-name="b" unicode="b" horiz-adv-x="449" 
d="M148 80q-46 -3 -79.5 -19.5t-50.5 -36.5q-16 -19 -16 -33q0 -17 22 -21q2 0 3 -0.5t2 -0.5q17 0 38 16.5t42.5 41.5t38.5 53zM227 618q-54 -79 -96 -159.5t-76 -174.5q95 46 176 111.5t133 131.5q28 35 46.5 68t25.5 61q2 8 2 15v14q0 22 -11 38.5t-39 19.5q-2 0 -3 0.5
t-2 0.5q-24 0 -51.5 -18t-54.5 -47t-50 -61zM423 757q33 -29 33 -73q0 -17 -4 -32q-8 -32 -27 -65.5t-47 -69.5q-56 -71 -143 -139.5t-188 -116.5q-9 -26 -16 -51.5t-12 -48.5q19 29 45.5 58.5t55.5 50t56 20.5h2q37 0 51.5 -22.5t14.5 -54.5q0 -26 -7.5 -55.5t-19.5 -55.5
q36 3 65 7.5t54 15.5q36 15 65.5 43.5t60.5 78.5q4 6 10 3.5t6 -8.5q0 -2 -1 -4q-31 -52 -63.5 -82.5t-71.5 -46.5q-28 -12 -61 -17t-73 -8q-23 -44 -53.5 -75.5t-61.5 -48t-55 -16.5q-2 0 -4 0.5t-4 0.5q-25 3 -36 14t-11 27q0 18 15 39q21 31 62 50t99 23q16 27 30.5 65
t14.5 67q0 16 -7 28t-24 13h-1q-16 0 -39.5 -17.5t-49 -44t-46.5 -55t-33 -50.5q-4 -8 -11 -11t-11 -3q-12 0 -12 19q0 1 0.5 3t0.5 4l1 10q9 60 33 135.5t61.5 156t85.5 157.5q39 64 76.5 106.5t72.5 65.5q17 11 36.5 18.5t38.5 7.5q13 0 24.5 -3.5t22.5 -12.5z" />
    <glyph glyph-name="c" unicode="c" horiz-adv-x="416" 
d="M444 242q0 -3 -2 -5q-48 -77 -107.5 -148.5t-133.5 -121.5q-59 -39 -111 -39q-21 0 -40.5 5.5t-35.5 17.5q-31 22 -44 54.5t-13 70.5q0 35 10.5 72t26.5 70q31 58 74 85.5t82 27.5q32 0 47.5 -18.5t15.5 -44.5q0 -29 -19 -61q-3 -5 -10.5 -1t-0.5 15q4 6 9 20t5 30
q0 13 -7 25t-25 16q-2 1 -4.5 0.5t-4.5 -0.5q-26 0 -58 -29.5t-57 -77.5q-23 -43 -33 -80t-10 -69q0 -38 12.5 -64t33.5 -38q21 -9 46 -9q22 0 48 8.5t54 27.5q71 49 130.5 119.5t106.5 146.5q2 4 7 4q8 0 8 -9z" />
    <glyph glyph-name="d" unicode="d" horiz-adv-x="588" 
d="M153 312q-26 0 -59 -28.5t-53 -72.5q-12 -25 -17 -53t-5 -53q0 -30 7.5 -51t22.5 -23h2q14 0 32 19.5t36.5 49.5t34 60t25.5 51q4 15 8 29.5t9 29.5q-1 14 -10.5 28t-32.5 14zM578 743h-1q-23 0 -51.5 -17t-56.5 -45.5t-52 -62.5q-52 -76 -97.5 -160.5t-76.5 -174.5
q95 47 177 112.5t135 131.5q57 71 71 129q3 14 3 27q0 24 -12 42t-39 18zM613 757q33 -29 33 -73q0 -8 -0.5 -16t-2.5 -16q-7 -32 -27 -65.5t-48 -69.5q-56 -71 -144 -139.5t-189 -116.5q-20 -62 -31 -121t-11 -107q0 -14 1 -27t3 -25q4 -29 19 -39t32 -10q10 0 20.5 2
t18.5 5q20 7 39.5 18t37.5 24q74 51 132 120.5t105 145.5q5 7 12 2t2 -12q-48 -77 -106.5 -147t-134.5 -123q-32 -21 -68 -38t-77 -17h-1q-20 0 -42 13t-28 50q-2 15 -3.5 30t-1.5 31q0 52 12 111q-15 -30 -35 -60.5t-40 -51.5t-39 -21h-3q-35 4 -52 36.5t-17 75.5
q0 22 4.5 46t13.5 46q13 34 38.5 59.5t55 39.5t55.5 14q2 0 4.5 -0.5t4.5 -0.5q36 -5 50 -34q30 86 72.5 170t95.5 157q31 44 60.5 75t57.5 49q17 12 36.5 19t38.5 7q13 0 24.5 -3.5t22.5 -12.5z" />
    <glyph glyph-name="e" unicode="e" horiz-adv-x="414" 
d="M154 312q-26 0 -58 -29.5t-58 -77.5q-12 -23 -20 -44t-13 -40q41 6 81 22.5t70 44.5t37 68q1 3 1 6v6q0 15 -9 29.5t-31 14.5zM-8 218q31 58 74 85.5t82 27.5q32 0 47.5 -18.5t15.5 -44.5q0 -3 -0.5 -6t-0.5 -6q-2 -12 -7.5 -25t-10.5 -24q-17 -29 -47.5 -50.5t-68.5 -35
t-75 -18.5q-2 -12 -3 -22.5t-1 -21.5q0 -44 17 -72.5t43 -37.5q13 -4 31 -4q22 0 47.5 8.5t53.5 27.5q71 49 130.5 119.5t106.5 146.5q4 6 10 3.5t6 -8.5q0 -1 -2 -5q-48 -77 -107.5 -148.5t-133.5 -121.5q-59 -39 -112 -39q-21 0 -40 5.5t-35 17.5q-31 22 -44.5 54.5
t-13.5 70.5q0 35 11 72t27 70z" />
    <glyph glyph-name="f" unicode="f" horiz-adv-x="445" 
d="M37 106q12 -23 56 -34q-5 13 -10 24t-9 21q-7 16 -16 20q-6 2 -10 2q-8 0 -12 -5.5t-4 -13.5q0 -6 5 -14zM344 641q-24 -1 -52 -19t-55 -48t-50 -65q-41 -65 -78 -137.5t-64 -148.5q91 49 166.5 109t122.5 118q25 31 41.5 59.5t20.5 53.5q1 5 0.5 9t-0.5 9q0 24 -12 42
t-40 18zM377 655q37 -28 37 -74q0 -5 -0.5 -10.5t-1.5 -10.5q-5 -28 -21.5 -59t-42.5 -62q-51 -62 -132.5 -125.5t-178.5 -114.5q-23 -70 -37 -140.5t-14 -128.5q0 -37 6 -67q6 -37 22 -50.5t32 -13.5q8 0 16 3q33 13 46 51.5t13 79.5q0 31 -6 63t-15 58q-26 5 -47.5 16.5
t-31.5 27.5q-5 10 -5 22q0 22 19 32q8 4 16 4q14 0 24 -10t15 -21q5 -12 10.5 -26t11.5 -30q20 -3 41 -3t45 3q42 5 87.5 23.5t89.5 56t82 98.5q4 6 10 3.5t6 -8.5q0 -3 -1 -5q-40 -63 -86 -101.5t-94 -58t-92 -25.5q-26 -3 -47 -3q-9 0 -17.5 0.5t-16.5 1.5q6 -17 10 -33.5
t6 -32.5q1 -12 2.5 -23t1.5 -24q0 -40 -10 -76t-32.5 -59t-59.5 -23h-6t-7 1q-26 3 -44.5 23t-24.5 43q-9 41 -9 90q0 59 13 124.5t35 136.5q26 81 64 162.5t85 151.5q29 46 57.5 78t55.5 51q17 13 37.5 21t39.5 8q11 0 22 -3.5t22 -11.5z" />
    <glyph glyph-name="g" unicode="g" horiz-adv-x="461" 
d="M111 -13q-94 -41 -177 -102t-142 -128q-32 -36 -55 -72t-36 -68q-10 -26 -10 -55q0 -31 14.5 -53.5t44.5 -22.5q22 0 50 14q31 16 60.5 49t55.5 74q19 30 38.5 58.5t35.5 57.5q38 65 67 125t54 123zM151 312q-26 0 -59 -28.5t-53 -72.5q-13 -27 -19 -55.5t-6 -52.5
t6.5 -40.5t20.5 -18.5h2q13 0 32.5 16.5t40 42t38.5 51.5t28 46q2 9 4 17.5t4 16.5q1 5 2 11.5t1 14.5q0 19 -8.5 35.5t-33.5 16.5zM204 291q2 6 3 11.5t2 10.5q3 10 18 10q10 0 18 -3.5t8 -11.5q0 -32 -12 -77t-30.5 -97.5t-38.5 -105.5q52 22 109 51.5t108 70t84 96.5
q4 6 10 4t6 -8l-2 -4q-37 -61 -92.5 -105t-117 -74.5t-114.5 -52.5q-38 -99 -94.5 -209t-136.5 -220q-38 -53 -75 -82t-68 -37q-13 -3 -24 -3q-26 0 -46 13.5t-33 32.5q-8 12 -10.5 25.5t-2.5 29.5q0 17 4 35t9 32q14 35 37 72t56 74q63 71 152 135.5t189 105.5
q14 34 24.5 66.5t19.5 62.5q-18 -27 -39 -53t-42.5 -43t-39.5 -17h-4q-34 4 -48.5 32t-14.5 65q0 23 4.5 47.5t14.5 47.5q13 34 38.5 59.5t55 39.5t55.5 14t40 -11.5t20 -28.5z" />
    <glyph glyph-name="h" unicode="h" horiz-adv-x="561" 
d="M396 744h-1q-23 0 -51.5 -17t-57 -46t-52.5 -63q-54 -79 -96 -159.5t-76 -174.5q94 46 176 111.5t134 131.5q56 70 70 129q2 7 3 15t1 16v8.5t-2 7.5q-6 21 -19 30.5t-29 10.5zM430 757q33 -29 33 -73q0 -17 -4 -32q-7 -32 -26 -65.5t-47 -69.5q-56 -71 -144 -139.5
t-188 -116.5q-12 -35 -20 -67t-13 -60q44 69 83 104.5t71 48.5q21 9 42 9q29 0 46 -17q5 -5 8.5 -12.5t3.5 -20.5q0 -9 -2 -19.5t-8 -24.5q-22 -49 -44.5 -96t-47.5 -101q-2 -6 -5 -16.5t-3 -22.5q0 -14 7.5 -25t27.5 -12h4q36 0 69.5 16t63.5 36q73 51 131 120.5t105 145.5
q4 6 10 3.5t6 -8.5q0 -3 -1 -5q-48 -77 -106.5 -147t-134.5 -123q-31 -22 -68 -38.5t-77 -16.5h-2h-1q-34 0 -51.5 20.5t-17.5 51.5q0 26 12 53q16 37 32 72.5t32 71.5q10 23 19.5 43t9.5 34q0 15 -17 15q-8 0 -16 -1.5t-18 -5.5q-32 -14 -76 -57t-95 -135q-1 -2 -3 -4.5
t-3 -4.5q-10 -16 -22 -16t-12 21q0 16 1.5 27.5t4.5 28.5q9 60 33 135.5t61.5 156t85.5 157.5q39 64 77 106.5t73 65.5q17 11 36.5 18.5t38.5 7.5q13 0 24 -3.5t22 -12.5z" />
    <glyph glyph-name="i" unicode="i" horiz-adv-x="367" 
d="M89 309l-9 -17q-18 -34 -40 -79t-40 -92t-26 -88q0 -3 -0.5 -6t-0.5 -6q0 -23 16 -32.5t36 -9.5q6 0 10 1q23 2 51.5 14.5t58.5 30.5q45 27 91 64.5t83 78.5t59 78q3 5 8 5q8 0 8 -9q0 -3 -1 -4q-23 -40 -61.5 -82t-85 -80t-92.5 -66q-36 -21 -70.5 -35t-65.5 -14
q-26 0 -44 12q-16 11 -22 27.5t-6 34.5q0 16 3.5 32.5t7.5 31.5q13 46 30.5 91t34 81t27.5 54q4 7 14 7q9 0 18.5 -5.5t9.5 -12.5q0 -1 -2 -5zM110 424q12 0 20 -8t8 -19t-8 -18.5t-20 -7.5q-11 0 -19 7.5t-8 18.5t8 19t19 8z" />
    <glyph glyph-name="j" unicode="j" horiz-adv-x="274" 
d="M89 397q0 -13 -8.5 -19t-19.5 -6q-10 0 -18.5 6t-8.5 19t8.5 19.5t18.5 6.5q11 0 19.5 -6.5t8.5 -19.5zM68 304q-11 -50 -30.5 -120.5t-51.5 -154.5q52 21 109 51t107.5 71t83.5 96q4 6 10 3.5t6 -8.5q0 -3 -1 -4q-37 -61 -92.5 -104.5t-116.5 -74.5t-114 -52
q-39 -100 -96.5 -211.5t-139.5 -223.5q-38 -52 -73 -79t-67 -35q-6 -2 -12 -2h-12q-26 0 -46.5 13t-32.5 32q-15 24 -15 55q0 30 14 67q14 35 38 71.5t56 73.5q63 71 152 136t189 106q35 92 56.5 170t33.5 133l3 12q3 8 15 8q11 0 20 -4.5t9 -10.5q0 -4 -0.5 -7t-1.5 -7z
M-76 -12q-93 -41 -176.5 -102.5t-142.5 -128.5q-67 -74 -91 -140q-11 -28 -11 -58q0 -24 11 -44t41 -27q16 -4 29.5 0t28.5 12q30 17 60.5 50t55.5 73q19 30 38 58.5t36 57.5q38 65 67 125.5t54 123.5z" />
    <glyph glyph-name="k" unicode="k" horiz-adv-x="552" 
d="M201 286q-23 -5 -59 -31t-73 -84q61 6 95 22t48 33.5t18 27.5q1 3 1.5 6t0.5 7q0 13 -9 18t-22 1zM395 744h-1q-24 0 -52 -17t-56 -46t-52 -63q-43 -63 -75 -122t-63 -127q-10 -22 -18 -43.5t-16 -41.5q94 47 175.5 112t134.5 131q28 35 46 68t24 61q2 7 3 14.5t1 14.5v9
t-2 9q-6 23 -19 31.5t-30 9.5zM383 773q28 0 47 -16q33 -27 33 -73q0 -8 -1 -16t-3 -16q-7 -32 -26 -66t-48 -70q-56 -70 -143.5 -138.5t-187.5 -116.5q-12 -35 -20 -66.5t-13 -59.5q45 86 92.5 126t82.5 48q4 1 8.5 1.5t8.5 -0.5q24 0 38 -19q9 -13 9 -31q0 -14 -6 -29
q-13 -29 -52.5 -54.5t-111.5 -32.5q0 -32 6.5 -69t21 -70t37.5 -53.5t56 -20.5q5 0 10 0.5t10 1.5q26 7 51.5 20.5t46.5 27.5q73 52 131 121t105 145q4 4 8 4q8 0 8 -9q0 -3 -1 -4q-49 -76 -107.5 -147t-133.5 -124q-19 -13 -45.5 -28t-56 -24t-58.5 -3q-11 2 -21 6
q-27 10 -46 34.5t-35 59.5q-28 62 -28 121v5q-10 -17 -19.5 -37.5t-18.5 -43.5q-6 -14 -14.5 -21.5t-14.5 -7.5q-12 0 -12 21v5q1 14 4 35t5 37q9 61 33 136t62 155.5t85 157.5q39 64 77 106.5t72 65.5q37 23 67 26h8z" />
    <glyph glyph-name="l" unicode="l" horiz-adv-x="412" 
d="M400 743q-24 0 -52 -17t-56.5 -45.5t-52.5 -62.5q-7 -10 -14 -21.5t-15 -23.5q-41 -62 -76.5 -131.5t-61.5 -139.5q-2 -4 -4 -9t-3 -10q95 47 177 112.5t135 131.5q56 70 70 129q1 7 3 14t2 15q0 9 -3 18q-6 22 -19.5 31t-29.5 9zM388 773q27 0 47 -16q33 -29 33 -73
q0 -17 -4 -32q-8 -32 -26 -65.5t-47 -69.5q-56 -71 -144 -139.5t-189 -116.5q-20 -62 -31 -121t-11 -107q0 -14 1 -27t3 -25q4 -29 18 -39t31 -10q11 0 21 2t18 5q41 15 79 42q73 51 131 120.5t105 145.5q3 4 7 4q5 0 7.5 -4.5t-0.5 -9.5q-48 -77 -106.5 -147t-134.5 -123
q-32 -21 -68 -38t-77 -17h-1q-21 0 -42.5 14t-28.5 49q-2 14 -3 28.5t-1 30.5q0 61 15.5 133.5t43.5 147.5q29 79 70.5 159t90.5 149q31 44 60.5 75t57.5 49q17 12 34 17.5t33 7.5q2 0 4 0.5t4 0.5z" />
    <glyph glyph-name="m" unicode="m" horiz-adv-x="734" 
d="M223 359q18 0 30.5 -11t17.5 -30q3 -10 3 -24q0 -33 -19 -83q26 30 50.5 48t45.5 26q21 10 42 10h1q27 -1 43 -17q5 -5 8.5 -13t3.5 -19q0 -8 -2.5 -19t-8.5 -25q-22 -49 -44.5 -95.5t-47.5 -101.5q-10 -23 -10 -41q0 -35 39 -35q36 0 70 15.5t65 36.5q73 52 131 121
t105 145q4 4 8 4q8 0 8 -9q0 -3 -1 -4q-49 -76 -107.5 -147t-133.5 -124q-32 -21 -68 -38t-77 -17h-2q-23 0 -43 13.5t-24 36.5q-2 4 -2 9.5v11.5q0 29 11 54q18 41 33 74.5t31 69.5q10 22 19.5 43.5t9.5 34.5q0 12 -9 15.5t-21 1.5t-21 -6q-27 -11 -61.5 -41.5t-73.5 -89.5
q-9 -16 -19 -32.5t-21 -34.5q-1 -2 -2 -3.5t-2 -3.5q-3 -5 -10 -4.5t-12 2.5q-10 7 -10 20q0 5 2 11q29 46 46 75.5t28 60.5q8 20 14 36t6 32q0 10 -5 23q-6 16 -26 16q-12 0 -22 -7q-21 -14 -46 -43t-54 -70q-27 -39 -56 -87t-58 -102q-3 -5 -6 -11q-3 -4 -8 -4
q-6 0 -11.5 3.5t-5.5 10.5q2 16 5 32.5t8 32.5q12 47 30 93.5t35.5 83.5t28.5 56q3 5 12 7h2q8 -1 17.5 -5.5t9.5 -12.5q0 -3 -1 -5l-9 -17q-21 -38 -45.5 -90t-42.5 -105q21 36 41.5 68.5t39.5 61.5q29 41 55 71t49 46q19 13 40 15h4z" />
    <glyph glyph-name="n" unicode="n" horiz-adv-x="542" 
d="M65 332q8 -1 17.5 -5.5t9.5 -12.5q0 -3 -1 -5l-9 -17q-20 -37 -43.5 -86.5t-41.5 -100.5q53 94 95.5 142.5t76.5 67.5q26 16 48 16q23 0 38.5 -14t15.5 -41q0 -16 -9 -39q-14 -33 -33 -73t-39 -81t-36 -78q-10 -23 -10 -41q0 -27 21 -33q5 -1 9 -1.5t9 -0.5q36 0 70 16
t65 36q73 52 131 121t105 145q4 4 8 4q8 0 8 -9q0 -3 -1 -4q-49 -76 -107.5 -147t-133.5 -124q-32 -21 -68 -38t-77 -17h-2q-23 0 -43 13.5t-24 36.5q-2 5 -2 10.5v10.5q0 13 2.5 28t8.5 26q18 38 40 84.5t37 81.5q10 23 20.5 48t10.5 41t-9.5 19t-22.5 -1t-22 -9
q-35 -20 -86 -81.5t-115 -189.5q-3 -3 -3 -8q-3 -7 -14 -7q-5 0 -10 3t-5 8q0 15 4 32.5t9 33.5q12 47 30 93.5t35.5 83.5t28.5 56q3 5 12 7h2z" />
    <glyph glyph-name="o" unicode="o" horiz-adv-x="461" 
d="M33 188q-9 -26 -14 -52t-5 -51q0 -16 2 -31.5t7 -30.5q5 -14 13 -19.5t18 -5.5q16 0 33.5 10.5t32.5 24t23 23.5q22 26 39 62q-44 8 -82 25t-67 45zM98 418q-7 0 -13.5 -0.5t-13.5 -2.5q-16 -5 -31 -18t-26 -31q-18 -31 -18 -62q0 -4 0.5 -8t1.5 -9q5 -23 13 -39
q8 20 18 39.5t22 36.5q5 7 15 6.5t18 -5.5t8 -13q0 -5 -5 -13q-26 -40 -48 -93q27 -28 66 -46t84 -25q11 26 17.5 56t6.5 61q0 18 -2.5 37t-8.5 38q-4 13 -15 31t-27 34q-13 12 -28 19t-34 7zM95 436h3q22 -1 41 -9.5t33 -22.5q19 -17 30.5 -37t16.5 -35q6 -20 8.5 -41
t2.5 -40q0 -63 -23 -118q7 -1 14.5 -1.5t15.5 -0.5q67 0 132 28.5t104 86.5q5 7 11 2q4 -3 4 -7q0 -1 -2 -5q-42 -63 -110 -92.5t-139 -29.5q-9 0 -18 0.5t-18 1.5h-1q-18 -39 -44 -71q-42 -52 -89 -65q-5 -2 -9 -2h-9q-17 0 -32.5 9.5t-23.5 31.5q-14 37 -14 81q0 45 12 90
q2 10 5.5 19.5t6.5 18.5q-7 13 -13 26t-9 29q-1 5 -1.5 11t-0.5 11q0 38 20 70q12 20 29.5 35.5t37.5 21.5q13 4 29 4z" />
    <glyph glyph-name="p" unicode="p" horiz-adv-x="459" 
d="M158 80h-1q-46 -3 -79.5 -19.5t-50.5 -36.5q-15 -18 -15 -33q0 -17 21 -21q1 0 2 -0.5t3 -0.5q16 0 38 16.5t43.5 41.5t38.5 53zM63 330q11 0 21 -6t10 -15q0 -4 -2 -7q-19 -30 -44 -80q28 34 63 61.5t66 28.5h4q37 -1 53.5 -30t16.5 -70q0 -52 -20 -98l-2 -6t-3 -6
q36 3 65 7.5t54 15.5q36 15 65.5 43.5t60.5 78.5q3 4 8 4q8 0 8 -9q0 -2 -2 -4q-31 -52 -62.5 -82.5t-70.5 -46.5q-28 -12 -61 -17t-73 -8q-23 -44 -54 -75.5t-62 -48t-55 -16.5q-2 0 -4.5 0.5t-3.5 0.5q-23 3 -34.5 15t-11.5 28q0 17 14 37q0 2 1 3q19 26 57.5 46t90.5 23
q3 0 6 0.5t6 0.5q8 13 12 22q14 28 21.5 59t7.5 57q0 24 -8 40t-27 17h-1q-16 0 -39 -17t-48 -43t-45.5 -53t-32.5 -47q-14 -33 -28.5 -69.5t-28.5 -75.5q-38 -106 -70.5 -227t-48.5 -240l-3 -20q-2 -10 -16 -10q-8 0 -15.5 3.5t-7.5 11.5l2 19q16 121 46.5 245t68.5 232
t75.5 193t65.5 128q4 7 14 7h1z" />
    <glyph glyph-name="q" unicode="q" horiz-adv-x="457" 
d="M148 -8q-12 -35 -22 -72t-19 -77q-6 -27 -15.5 -67t-17.5 -85t-9 -87v-12q0 -27 4.5 -50.5t15.5 -39.5q10 -14 22.5 -19.5t26.5 -5.5q27 0 54 19.5t41 50.5q15 32 21.5 66.5t6.5 76.5q0 75 -26.5 156t-82.5 146zM146 312q-26 0 -59.5 -28.5t-53.5 -72.5
q-13 -27 -19 -55.5t-6 -52.5t6.5 -40.5t20.5 -18.5h2q14 0 33.5 17.5t40.5 43.5t39 53t28 46q2 5 4.5 10t4.5 10q3 12 3 31q0 17 -7.5 34.5t-29.5 22.5q-2 1 -3.5 0.5t-3.5 -0.5zM138 331q3 0 5 -0.5t4 -0.5q29 -4 43 -21.5t16 -43.5q8 16 14 29.5t14 27.5q4 7 17 7
q11 0 20 -5.5t9 -16.5q0 -6 -2 -10q-22 -47 -48 -100.5t-49 -115.5q-5 -14 -10.5 -28t-10.5 -29q52 22 111 52t112 72t86 98q3 5 8 5q8 0 8 -9q0 -2 -2 -4q-37 -62 -92.5 -105.5t-117 -74t-114.5 -52.5q60 -68 87.5 -153t27.5 -163q0 -87 -31 -151q-15 -30 -36 -50.5
t-49 -28.5q-14 -3 -25 -3q-22 0 -43 10.5t-36 33.5q-13 19 -20 47.5t-7 67.5q0 15 1 31t3 33q16 123 45.5 232t64.5 201q-24 -34 -52.5 -60.5t-51.5 -26.5h-4q-34 4 -48.5 32t-14.5 65q0 23 4.5 47.5t14.5 47.5q13 34 38.5 59.5t55 39.5t55.5 14z" />
    <glyph glyph-name="r" unicode="r" horiz-adv-x="446" 
d="M67 428q-11 0 -22 -11t-11 -36q0 -10 9 -20.5t22 -20.5q12 20 17 36t5 26q0 26 -20 26zM87 -71q36 0 70 16t65 36q73 52 131 121t105 145q4 4 8 4q8 0 8 -9q0 -3 -1 -4q-49 -76 -107.5 -147t-133.5 -124q-32 -21 -68 -38t-77 -17h-2q-23 0 -43 13.5t-24 36.5
q-2 6 -2 11.5v11.5q0 12 2.5 25.5t8.5 26.5q17 37 30 65t25 55.5t26 62.5q11 27 11 43q0 20 -17 31t-31 21q-11 -19 -22 -38.5t-23 -38.5q-4 -4 -10 -3.5t-6 7.5q0 1 2 5q6 11 17 29.5t19.5 33l8.5 14.5q-1 1 -3 2q-14 10 -25.5 24t-11.5 31q0 30 16 47t34 17h3q16 0 25 -13
t9 -30q0 -14 -6 -32t-19 -40q10 -6 18.5 -11t12.5 -8q16 -11 32.5 -26t16.5 -42q0 -13 -5.5 -28t-12.5 -31q-15 -34 -26.5 -58.5t-24 -52t-32.5 -68.5q-2 -5 -5 -16t-3 -23q0 -16 8 -26.5t29 -10.5z" />
    <glyph glyph-name="s" unicode="s" horiz-adv-x="347" 
d="M88 101q-18 -3 -44 -8t-52 -14q-30 -11 -55.5 -26.5t-36.5 -37.5q-4 -7 -5 -14t-1 -14q0 -17 12 -29.5t35 -12.5h7.5t7.5 1q31 5 61 26.5t52 58.5q10 16 14 34t5 36zM84 357q8 0 16 -4.5t8 -11.5q0 -3 -2 -7l-8 -18q-2 -4 -2 -15q0 -18 8 -52q6 -24 13 -52.5t10 -59.5
q0 -3 0.5 -6.5t0.5 -6.5q75 14 136 42.5t96 79.5q4 4 7 4q9 0 9 -9q0 -1 -2 -5q-38 -56 -103.5 -86t-142.5 -43q0 -24 -5 -48.5t-19 -46.5q-16 -25 -35 -47.5t-50 -37.5q-16 -7 -33.5 -12t-34.5 -5q-32 0 -55 19q-21 17 -21 50q0 23 10 43q13 28 42 45t60 28q29 10 56 15
t45 8v7.5t-1 7.5q-3 27 -10 54t-13 52q-3 13 -5 24.5t-3 23.5q-8 -13 -15 -25t-15 -25q-6 -8 -12 -3q-8 6 -2 13q14 22 26 44.5t25 44.5l6 15q4 6 15 6z" />
    <glyph glyph-name="t" unicode="t" horiz-adv-x="404" 
d="M272 719h1q8 0 17 -8.5t9 -16.5q0 -3 -3 -6q-25 -24 -49.5 -54t-43.5 -61q-7 -11 -14 -22.5t-14 -23.5q29 -6 57 -11t53 -9t47 -5.5t41 -1.5h20q44 3 57 21q5 6 12 1q3 -3 3 -6q0 -1 -2 -5q-11 -13 -29 -20t-40 -8q-5 -1 -10 -1h-11q-19 0 -42.5 2t-48.5 6
q-27 4 -56.5 9.5t-60.5 12.5q-29 -50 -54 -103.5t-45 -106.5q-27 -74 -42 -144t-15 -125q0 -14 1 -27t3 -25q4 -29 18.5 -39t31.5 -10q21 0 40 7q20 7 40 18t38 24q73 51 130.5 120.5t104.5 145.5q3 4 8 4t7.5 -4.5t-0.5 -9.5q-48 -77 -107 -147t-135 -123q-31 -21 -67 -38
t-77 -17h-2q-12 1 -26 5t-25.5 17t-17.5 41q-3 14 -4 29t-1 31q0 60 15.5 132.5t43.5 147.5q19 52 43.5 104.5t52.5 101.5q-33 7 -66.5 13.5t-67.5 13.5q-69 14 -134.5 24t-119.5 10q-7 0 -12.5 -0.5t-11.5 -0.5q-28 -1 -52 -6t-40 -16q-32 -21 -38 -62q-2 -10 -10 -8
q-7 2 -7 9q0 25 14.5 44.5t31.5 30.5q19 12 45 18.5t55 7.5h25q56 0 122 -10.5t135 -24.5q35 -8 70 -14t70 -14q13 22 27 44.5t29 42.5q19 27 39 51t38 41q4 4 6 4z" />
    <glyph glyph-name="u" unicode="u" horiz-adv-x="604" 
d="M56 332q9 0 18.5 -6t9.5 -14q0 -1 -2 -5l-7 -15q-14 -33 -25.5 -57.5t-22 -47t-21.5 -49.5t-25 -65q-10 -29 -10 -52q0 -18 7 -27q4 -4 11 -8t18 -4q17 0 38 11q39 23 89 79t103 150q11 27 22 50.5t20 39.5q4 7 14 7q9 0 17.5 -6t8.5 -15q0 -4 -3 -9q-17 -31 -35.5 -72
t-34 -85.5t-25.5 -86t-10 -74.5q0 -23 13.5 -32t32.5 -9q13 0 27 3q25 7 48.5 19t45.5 27q74 51 131.5 120.5t104.5 145.5q3 4 8 4q8 0 8 -9q0 -3 -1 -5q-48 -77 -106.5 -147t-134.5 -123q-32 -21 -68 -38t-77 -17h-2q-35 2 -48.5 25t-13.5 60q0 44 14 98q3 12 6.5 23.5
t7.5 24.5q-51 -77 -98 -119.5t-84 -56.5q-17 -7 -33 -7q-8 0 -11 1q-18 3 -31 19q-17 20 -17 53q0 26 10 56q14 39 25 66.5t21.5 50.5t21.5 47.5t25 57.5l8 18q2 5 10 5h2z" />
    <glyph glyph-name="v" unicode="v" horiz-adv-x="618" 
d="M319 425q-20 0 -37.5 -12.5t-27.5 -32.5q-4 -10 -7 -20t-3 -20q0 -34 19.5 -66t43.5 -58q22 33 41 68t21 70q0 3 0.5 5t0.5 5q0 22 -9.5 40.5t-35.5 20.5h-6zM318 452q24 0 41 -14q13 -11 20.5 -29.5t7.5 -44.5q0 -3 -0.5 -6t-0.5 -6q-3 -40 -23.5 -77.5t-43.5 -71.5
q16 -16 44 -28t57 -16q8 -1 15 -1.5t15 -0.5q26 0 51 6q40 9 74 30t56 55q6 8 13 3q3 -2 3 -7q0 -4 -1 -5q-32 -48 -85 -73t-111 -25q-79 0 -142 45q-24 -36 -53.5 -72.5t-59.5 -69t-55.5 -57.5t-41.5 -38t-31 -22.5t-29 -15.5q-7 -3 -14 -5t-16 -2q-10 0 -23 5
q-14 6 -22.5 19.5t-13.5 30.5q-2 11 -3.5 22t-1.5 25q0 19 3 43q5 49 21.5 99t38.5 94.5t42 74.5l6 7q5 5 11 5q9 0 18 -6t9 -14q0 -5 -3 -9l-5 -6q-17 -26 -38.5 -68.5t-39 -90t-21.5 -90.5q-1 -11 -1.5 -21t-0.5 -20q0 -30 5 -47q10 -29 32 -29q16 0 35 11q8 5 15.5 10.5
t15.5 12.5q15 12 40 36.5t55 57t59.5 68.5t52.5 71q-24 20 -43 48.5t-30 65.5q-2 9 -3.5 17t-1.5 16q0 40 23 68t52 38q12 4 26 4h1z" />
    <glyph glyph-name="w" unicode="w" horiz-adv-x="898" 
d="M601 425q-20 0 -38.5 -12.5t-28.5 -32.5q-9 -20 -9 -40q0 -34 19.5 -66t43.5 -58q22 33 41 68t21 70v10q0 22 -9 40.5t-35 20.5h-5zM600 452q24 0 41 -14q27 -24 27 -74q0 -3 -0.5 -6t-0.5 -6q-3 -40 -23 -77.5t-43 -71.5q16 -16 43.5 -28t56.5 -16q7 -1 15 -1.5t15 -0.5
q25 0 51 6q40 9 74 30t56 55q6 8 12 3q4 -3 4 -7t-1 -5q-31 -48 -84.5 -73t-111.5 -25q-38 0 -74.5 11.5t-68.5 33.5q-24 -36 -53.5 -72.5t-59.5 -69t-55 -57.5t-41 -38t-31.5 -22.5t-28.5 -15.5q-7 -3 -14.5 -5t-16.5 -2t-22 5q-14 6 -23 19.5t-13 30.5q-4 19 -4 47v20.5
t2 22.5q6 56 26 113q-43 -63 -80.5 -107t-59.5 -62q-16 -13 -30 -22.5t-28 -15.5q-16 -7 -34 -7q-5 0 -9.5 0.5t-9.5 2.5q-14 6 -22.5 20t-13.5 31q-2 10 -3.5 22t-1.5 25q0 19 3 43q7 73 31.5 126.5t55.5 98.5l6 7q5 5 11 5q9 0 17.5 -6t8.5 -14q0 -6 -2 -9l-5 -6
q-26 -40 -51 -91t-32 -115q-1 -10 -1.5 -21t-0.5 -21q0 -15 1 -26.5t3 -19.5q8 -26 31 -26q19 0 42 15q12 7 24 18q18 15 50 51.5t71 91t77 121.5q16 28 28 46l6 7q5 5 12 5q9 0 17 -6t8 -14q0 -6 -2 -9l-5 -6q-18 -26 -39 -68.5t-38 -90t-21 -90.5q-1 -11 -1.5 -21
t-0.5 -20q0 -30 5 -47q10 -29 31 -29q16 0 35 11q7 5 15 10.5t16 12.5q15 12 40 36.5t54.5 57t59 68.5t52.5 71q-24 20 -42.5 48.5t-29.5 65.5h-1q-4 16 -4 33q0 40 23 68t52 38q12 4 27 4h1z" />
    <glyph glyph-name="x" unicode="x" horiz-adv-x="537" 
d="M-223 -180q-5 0 -16.5 0.5t-21 3.5t-9.5 10v2q2 8 11 6q10 -3 18.5 -4t17.5 -1q31 0 61 14.5t58 39.5q45 40 90.5 99.5t86.5 115.5q-6 50 -8 100.5t-4 90.5q-8 -15 -17.5 -29.5t-18.5 -29.5q-5 -7 -12 -2.5t-2 11.5q13 19 25 40.5t23 41.5q9 15 25 15q13 0 14 -11l1 -13
q2 -34 3.5 -78t6.5 -91q27 33 61 68t76.5 60t92.5 27h6h5q10 0 22 -2t12 -9v-2q-2 -9 -10 -7q-15 3 -29 3q-38 0 -73.5 -16.5t-68.5 -45.5q-23 -20 -46.5 -46t-45.5 -54q3 -31 10 -69t18 -70t28 -41q5 -2 11.5 -5.5t19.5 -3.5h5q31 2 59 15t53 30q72 51 129.5 120t104.5 144
q3 4 8 4q8 0 8 -9q0 -2 -0.5 -2t-1.5 -2q-47 -76 -105.5 -146t-132.5 -123q-32 -22 -68.5 -39.5t-78.5 -17.5h-2q-16 1 -33 8.5t-27 23.5q-16 26 -25.5 63t-14.5 75q-40 -53 -82.5 -109t-86.5 -95q-30 -26 -62.5 -42t-67.5 -16z" />
    <glyph glyph-name="y" unicode="y" horiz-adv-x="510" 
d="M159 -13q-94 -41 -177 -102t-142 -128q-32 -36 -55 -72t-36 -68q-5 -13 -8 -27t-3 -29q0 -5 0.5 -10t1.5 -9q4 -23 20.5 -34.5t37.5 -11.5q22 0 46 12q22 10 39.5 24.5t36 36t44.5 54.5q21 28 39.5 57.5t34.5 58.5q34 58 61.5 114.5t49.5 109.5q6 14 10 24zM58 330
q9 0 18.5 -5.5t9.5 -13.5q0 -4 -1 -6l-7 -15q-14 -33 -24 -55t-18.5 -41.5t-18.5 -44t-24 -62.5q-11 -31 -11 -52q0 -18 7 -27q4 -4 11.5 -8t18.5 -4t23.5 4.5t28.5 15.5q37 26 82.5 88t97.5 183q1 7 3 13.5t4 12.5q3 10 16 10q10 0 18.5 -3.5t8.5 -11.5q0 -32 -12 -77
t-30.5 -97.5t-38.5 -105.5q52 22 109 51.5t108 70t84 96.5q3 5 7 5q9 0 9 -9q0 -3 -1 -4q-36 -61 -92.5 -105t-118 -74.5t-114.5 -52.5q-38 -100 -95 -211t-139 -223q-38 -52 -73 -79t-66 -35q-14 -3 -25 -3q-26 0 -46 13.5t-33 32.5q-14 24 -14 55q0 34 13 67q28 71 94 146
q63 71 152 135.5t189 105.5q20 52 34.5 99.5t26.5 89.5q-37 -73 -71 -118t-64 -68.5t-57 -33.5q-7 -3 -14 -4t-14 -1q-14 0 -26.5 4t-20.5 13q-18 21 -18 53q0 14 2.5 27.5t8.5 29.5q14 39 23.5 64t18.5 45t18.5 42t23.5 55l8 18q2 5 10 5h1z" />
    <glyph glyph-name="z" unicode="z" horiz-adv-x="641" 
d="M203 261v0q0 30 -18.5 51.5t-51.5 21.5q-16 0 -31 -7q-24 -12 -42.5 -38.5t-32.5 -51.5q-5 -7 -11.5 -1.5t-2.5 11.5q6 10 12 19t12 20q20 35 50.5 52.5t60.5 17.5q42 0 67 -27t25 -70q0 -22 -4.5 -39.5t-12.5 -35.5q-9 -22 -24 -46t-30 -44q6 1 11 0.5t10 -0.5
q45 -2 77.5 -25t50.5 -53q1 1 2 1t2 1v-1q54 21 117 51.5t120 74t93 103.5q3 5 7 5q9 0 9 -9q0 -3 -1 -4q-29 -48 -70 -85.5t-88.5 -66t-95 -49.5t-87.5 -37q11 -22 15.5 -52.5t4.5 -58.5q0 -71 -27 -140t-73 -124q-54 -66 -128 -107t-163 -41q-4 0 -7.5 0.5t-7.5 0.5
q-85 4 -85 84q0 34 13 66q14 34 38 70t57 73q59 65 141 125.5t174 102.5q-14 29 -38 46t-59 17q-9 0 -20 -1.5t-20 -4.5h-1q-9 -3 -15 -3q-18 0 -18 14q0 11 9 19q20 18 40 48t33.5 63.5t13.5 63.5zM285 -17v0q-91 -41 -171 -100t-138 -123q-65 -73 -91 -138
q-11 -30 -11 -50q0 -31 20 -47t56 -16q34 0 73 12q51 20 101.5 56t81.5 73q44 52 69 117t25 129q0 23 -4.5 46t-10.5 41z" />
    <glyph glyph-name="braceleft" unicode="{" horiz-adv-x="624" 
d="M569 854v0q23 0 49 -5q9 -2 7 -10q-2 -9 -10 -7q-40 8 -69.5 3.5t-52.5 -18.5q-12 -8 -22 -19q-16 -18 -29.5 -49t-25.5 -66t-21 -65q-14 -45 -28.5 -89t-37.5 -79q-12 -17 -26.5 -31t-33.5 -22q-13 -6 -28 -9q4 -7 6 -14q6 -19 4.5 -39.5t-8.5 -43.5q-12 -45 -37.5 -97
t-51.5 -103q-17 -34 -38 -73.5t-34.5 -75t-9.5 -55.5q3 -14 15.5 -17t23.5 -3q18 -1 46 5q9 1 10 -7q2 -8 -6 -10q-57 -12 -86 4q-15 8 -20 25.5t-3 39.5q3 38 24 85t47 98t51 102t36 91q11 41 4 63q-3 10 -10.5 16.5t-24.5 9.5q-16 3 -14 19q1 8 7 13t15 3q21 -5 37.5 -3
t30.5 8q25 11 44 41q20 29 34 71t29 88q14 45 31.5 89.5t46.5 77.5q30 35 72 49q12 4 27 6.5t30 2.5z" />
    <glyph glyph-name="bar" unicode="|" horiz-adv-x="595" 
d="M332 847v0q13 0 13 -13v-1l-70 -983q-1 -11 -12 -11q-13 0 -13 12v1l70 983q1 11 12 12z" />
    <glyph glyph-name="braceright" unicode="}" horiz-adv-x="624" 
d="M508 854v0q26 0 43 -9q15 -8 20 -26t4 -39q-3 -38 -24.5 -85t-47.5 -98t-50.5 -102t-35.5 -92q-12 -41 -4 -62q3 -10 10 -16.5t24 -9.5q16 -3 14 -19q-1 -8 -7 -13t-14 -3q-22 5 -38.5 3t-29.5 -8q-25 -11 -45 -41q-19 -29 -33.5 -71t-28.5 -88q-15 -45 -32.5 -89.5
t-46.5 -77.5q-30 -35 -72 -49q-12 -4 -26.5 -6.5t-30.5 -2.5q-23 0 -49 5q-8 2 -6 10q1 9 10 7q40 -8 69.5 -4t51.5 18q13 9 22 20q16 18 30 49t25.5 66t20.5 65q14 45 29 89t38 79q11 17 26 31t33 22q14 6 29 9q-4 7 -7 14q-6 18 -4 39t8 44q12 45 37.5 97t51.5 103
q17 34 38 73.5t35 75t9 55.5q-3 14 -15.5 17t-22.5 3q-19 1 -47 -5q-8 -2 -10 7q-2 8 7 10q24 5 42 5z" />
    <glyph glyph-name="asciitilde" unicode="~" horiz-adv-x="982" 
d="M321 309v0q8 0 16 -1q45 -2 85 -16t78 -31q39 -16 77 -30.5t79 -17.5q41 -4 86.5 6.5t99.5 44.5q7 4 12 -3q4 -7 -3 -12q-56 -35 -104.5 -55.5t-92.5 -16.5q-43 4 -82.5 19t-78.5 31q-38 17 -76.5 30.5t-79.5 15.5q-42 2 -93 -4t-98 -38q-7 -5 -12 2t3 12q50 34 94 48
t84 16h6z" />
    <glyph glyph-name="uni007F" 
 />
    <glyph glyph-name="exclamdown" unicode="&#xa1;" horiz-adv-x="471" 
d="M490 690v0q5 0 7.5 -3.5t0.5 -8.5l-72 -164l-240 -568q-4 -10 -16 -10q-10 0 -15 8t-1 16l199 431l130 294q2 5 7 5zM517 775v0q12 0 19 -8q8 -8 8 -19q0 -12 -9 -20q-8 -8 -20 -8q-11 0 -19 8t-8 20q1 11 9 19q9 8 20 8z" />
    <glyph glyph-name="cent" unicode="&#xa2;" horiz-adv-x="442" 
d="M366 610v0q13 0 13 -13q0 -2 -1 -5l-47 -112q19 -10 29 -28q19 -34 2 -75q-3 -8 -11 -4q-8 3 -5 11q8 17 7 32.5t-8 27.5q-7 13 -21 21l-161 -388q2 -1 3 -1q11 -2 20 -1q15 1 29.5 9.5t25.5 25.5q5 8 12 3q8 -5 3 -12q-14 -20 -32 -31t-37 -12q-15 -1 -30 3l-51 -122
q-3 -8 -12 -8q-12 0 -12 12q0 3 1 5l51 123q-10 6 -19 14q-32 31 -38.5 92t36.5 152q38 79 81 116.5t82 42.5q14 3 31 0l47 114q3 8 12 8zM300 471v0q-22 -1 -45 -17.5t-44.5 -41t-39 -51t-26.5 -47.5q-27 -57 -36 -108t4 -85q7 -13 15 -22q6 -6 13 -11z" />
    <glyph glyph-name="sterling" unicode="&#xa3;" horiz-adv-x="651" 
d="M494 651v0h3q50 -2 73 -37q25 -38 7 -97q-2 -8 -10 -6q-8 3 -6 11q8 27 6 47.5t-11 34.5q-19 29 -61 30q-12 0 -26 -6t-27 -19q-9 -10 -16.5 -26t-15.5 -37q-29 -74 -53.5 -137t-45.5 -116q13 -2 28 -4q36 -6 70.5 -10.5t60.5 -4.5q28 0 43 7t19 20q1 7 8 7v0q9 -1 9 -9
q0 -1 -1 -2q-5 -22 -28 -31q-10 -5 -22.5 -7t-26.5 -2q-29 0 -63.5 4.5t-71.5 10.5q-17 3 -31 5q-35 -86 -64 -146t-58 -101.5t-65 -70.5q64 18 130 13t122 -13q32 -5 60 -9t49 -2q21 1 32 8q11 6 15 21q2 7 9 6q10 0 8 -10q-6 -22 -23 -32q-15 -9 -40 -10q-23 -2 -51.5 2
t-61.5 9q-43 7 -91 11.5t-96.5 0t-93.5 -24.5q-8 -3 -12 5t3 12l5 4t16 16t26.5 32.5t36.5 53.5q9 16 20 35t23 41q15 31 32 69t35 84q-20 2 -39 3.5t-36 1.5q-31 -1 -54 -8.5t-34 -23.5q-2 -4 -7 -4q-8 0 -8 8q0 3 1 5q15 22 42 30.5t60 9.5q19 0 39.5 -1.5t42.5 -4.5
q21 55 44.5 120t49.5 142q13 39 39.5 61t57.5 28q13 3 25 3z" />
    <glyph glyph-name="currency" unicode="&#xa4;" horiz-adv-x="505" 
d="M221 447v0q8 0 10 -9l9 -54q30 17 58 17q25 0 42.5 -12.5t26.5 -32.5q0 -1 1 -3l51 37q3 2 6 2h1q9 0 9 -10q0 -5 -4 -8l-57 -42q7 -36 -6 -79q-9 -30 -25.5 -57t-37.5 -47q-11 -10 -23 -19l11 -67v-2q0 -10 -10 -10t-11 9l-9 59q-27 -15 -53 -15q-25 0 -42 12.5
t-26 32.5q-1 1 -2 4l-54 -36q-3 -2 -6 -2q-10 0 -10 10q0 6 5 9l59 39q-6 36 7 80q8 30 24.5 56.5t37.5 46.5q9 8 18 15l-11 64v2q0 10 10 10h1zM293 376v0q-25 0 -53 -18q-2 -2 -4 -3q-9 -6 -16 -13q-17 -17 -31.5 -40t-22.5 -49q-8 -27 -7.5 -50.5t8.5 -40.5
q15 -35 50 -35q17 0 35.5 10t36.5 26q17 17 31 40t22 50q17 55 2 89q-16 34 -51 34z" />
    <glyph glyph-name="yen" unicode="&#xa5;" horiz-adv-x="567" 
d="M96 633v0h1v0q4 -1 6 -3q57 -63 89.5 -159.5t41.5 -208.5q45 89 102 173t130 183q5 8 14 8v0q7 0 12 -5.5t5 -12.5q0 -5 -3 -10q-79 -107 -137.5 -195t-104.5 -184q15 -3 28 -4.5t24 -1.5q15 1 23 6q9 6 13 18q1 6 7 6v0q8 0 8 -8q0 -1 -1 -2q-5 -18 -19 -27
q-12 -7 -30 -8q-14 -1 -29 1.5t-31 5.5q-16 -35 -31 -72q1 -1 2 -1h2q20 -5 39 -8t33 -3q15 1 24 7q9 5 12 17q2 6 7 6h1q7 0 7 -8v-2q-5 -18 -19 -27q-12 -7 -31 -8q-17 -1 -36.5 2.5t-39.5 8.5q-3 0 -7 1q-33 -84 -61 -187q-3 -13 -16 -13q-7 0 -12.5 5t-5.5 12q0 2 1 5
q28 101 60 185q-10 1 -19.5 2.5t-17.5 1.5q-18 0 -31 -5t-22 -17q-2 -3 -6 -3q-8 0 -8 8q0 2 1 4q12 16 29 22t37 6q10 0 21 -1t22 -3q14 37 31 72q-16 4 -31.5 6t-29.5 2q-17 0 -30.5 -4.5t-22.5 -16.5q-2 -3 -6 -3q-8 0 -8 8q0 2 2 4q11 16 28.5 22t36.5 6q16 0 33 -3
l34 -6q2 3 3 5q-8 118 -40 220.5t-90 165.5q-2 3 -2 6q0 8 8 9z" />
    <glyph glyph-name="brokenbar" unicode="&#xa6;" horiz-adv-x="595" 
d="M331 847h1q12 0 12 -13v-1l-31 -445q-1 -12 -13 -12t-12 13v1l31 445q1 11 12 12zM293 308v0v0q13 0 13 -12v-1l-32 -445q0 -12 -12 -12t-12 13v1l31 445q1 11 12 11z" />
    <glyph glyph-name="section" unicode="&#xa7;" horiz-adv-x="639" 
d="M376 312v0q-64 61 -86.5 118.5t-10.5 103.5q-20 -21 -29 -52q-11 -33 3.5 -82t79.5 -111q48 -46 73 -93t28 -93q2 -46 -17 -90q25 30 37.5 68t10.5 71q-2 37 -23 77.5t-66 82.5zM430 639v0h3h3v0v0q22 0 43.5 -6.5t40.5 -20.5q18 -14 31.5 -37t18.5 -56q2 -8 -7 -10
q-8 -1 -10 8q-5 30 -16.5 50t-27.5 32t-35 17.5t-39 5.5h-10t-10 -1q-29 -5 -55 -26t-39 -61q-11 -33 3.5 -82t79.5 -111q49 -46 73.5 -93t27.5 -93q2 -46 -16.5 -87.5t-52.5 -75.5q-23 -22 -57 -37v0q-7 -8 -15 -15q-15 -16 -35 -27q-35 -20 -79.5 -23.5t-84.5 13.5
q-24 10 -44.5 29.5t-33.5 47.5q-13 29 -15.5 66.5t6.5 86.5q2 8 10 7q9 -2 7 -11q-9 -46 -6.5 -81t14.5 -61q11 -26 29 -42.5t40 -25.5q18 -8 40 -11q40 -3 73.5 11.5t50.5 31.5q30 30 45 71.5t13 77.5q-2 37 -23 77.5t-66 82.5q-69 66 -90 127t-3 108q11 31 34.5 51
t51.5 30q22 31 58 46.5t73 16.5h1z" />
    <glyph glyph-name="dieresis" unicode="&#xa8;" horiz-adv-x="238" 
d="M73 854v0q8 0 12 -5q6 -6 4 -14q-1 -8 -7 -13q-6 -6 -14 -6t-13 5t-4 14q1 7 7 13q7 6 15 6zM173 854v0q7 0 12 -5q5 -6 4 -14t-7 -13q-7 -6 -15 -6q-7 0 -12 5q-6 5 -4 14q1 7 7 13t15 6z" />
    <glyph glyph-name="copyright" unicode="&#xa9;" horiz-adv-x="567" 
d="M351 379v0q3 8 -4 11.5t-15 3.5v0h-6q-11 -1 -25 -9.5t-29 -25.5q19 -2 39 -2t32 10q6 6 8 12zM265 349v0q-12 -16 -22 -41t-11 -54q0 -11 2.5 -26t9.5 -24t23 -4q5 2 10 5t8 5q19 12 33 29.5t26 36.5q2 4 6.5 1.5t1.5 -7.5q-12 -19 -27 -37t-34 -31q-14 -10 -32.5 -13.5
t-30.5 12.5q-15 22 -13 51.5t12.5 57t20.5 41.5q-4 1 -14.5 2.5t-2.5 7.5q1 2 4 2q4 -1 9 -1.5t10 -1.5q36 50 77 50q14 0 24.5 -8t5.5 -24q-1 -4 -4 -9t-8 -9q-8 -7 -18 -9.5t-20 -2.5q-11 -1 -23 -0.5t-23 1.5zM321 478v0q-40 -1 -79 -19t-69.5 -50.5t-46.5 -75.5
q-18 -48 -10.5 -93t36 -76t72.5 -41q45 -10 91 6t83 51t55 84q20 53 9.5 102t-47 80.5t-94.5 31.5zM323 494v0q48 0 83 -20t54.5 -53.5t22.5 -75.5t-13 -85q-20 -52 -60.5 -90.5t-91 -56t-100.5 -6.5q-49 11 -80.5 45.5t-39.5 83t12 101.5q17 46 50 81.5t75.5 55.5t87.5 20z
" />
    <glyph glyph-name="ordfeminine" unicode="&#xaa;" horiz-adv-x="389" 
d="M215 491v0q-18 0 -42 -20.5t-38 -52.5q-10 -19 -14 -39.5t-4 -37.5q0 -18 5 -30.5t16 -12.5q13 0 31 18.5t34.5 43t26.5 43.5q3 8 6 15l6 14q5 13 5 26q0 12 -7.5 22.5t-24.5 10.5zM103 423v0q15 37 47.5 59t59.5 22q21 0 32.5 -10.5t14.5 -26.5q3 7 6.5 12.5t5.5 11.5
q3 4 10 4q6 0 12.5 -4.5t6.5 -10.5q0 -4 -1 -6q-17 -30 -34.5 -71.5t-30 -83t-13.5 -73.5q-6 -2 -13.5 5t-9.5 22q0 20 4.5 37.5t11.5 38.5q-17 -25 -37 -45t-37 -20q-26 0 -37 22t-11 49q0 16 3 33.5t10 34.5z" />
    <glyph glyph-name="guillemotleft" unicode="&#xab;" horiz-adv-x="501" 
d="M307 368v0q13 0 13 -13q0 -8 -6 -11l-188 -121l141 -119q5 -4 5 -10q0 -14 -14 -14q-5 0 -8 4l-155 130q-5 4 -5 10q0 7 5 11v0l1 1v0l203 130q4 2 8 2zM398 368v0q14 0 14 -13q0 -8 -7 -11l-187 -121l140 -119q5 -4 5 -10q0 -14 -13 -14q-5 0 -9 4l-155 130q-5 4 -5 10
q0 7 6 11v0q0 1 1 1v0l203 130q3 2 7 2z" />
    <glyph glyph-name="logicalnot" unicode="&#xac;" horiz-adv-x="480" 
d="M104 301h271h1h1q8 0 11 -7q1 -2 1 -1q1 -3 1 -6q0 -5 -3 -9l-62 -91q-4 -6 -11 -6q-14 0 -14 14q0 4 3 8l48 71h-247v0q-14 0 -14 13q0 14 14 14v0z" />
    <glyph glyph-name="uni00AD" unicode="&#xad;" horiz-adv-x="484" 
d="M104 228h277v0q13 0 13 -14q0 -13 -13 -13v0h-277v0q-14 0 -14 13q0 14 14 14v0z" />
    <glyph glyph-name="registered" unicode="&#xae;" horiz-adv-x="567" 
d="M323 494v0q19 0 38 -4q50 -10 81 -45t39 -83.5t-11 -101.5q-20 -52 -60.5 -90.5t-91 -56t-100.5 -6.5q-49 11 -80.5 45.5t-39.5 83t12 101.5q17 46 50 81.5t75.5 55.5t87.5 20zM321 478v0q-40 -1 -79 -19t-69.5 -50.5t-46.5 -75.5q-18 -48 -10.5 -93t36 -76t72.5 -41
q21 -4 42.5 -3t41.5 7q47 14 86.5 50t58.5 87q18 49 10.5 93.5t-35.5 76t-73 40.5q-17 4 -34 4zM272 414v0h1q2 0 4.5 -2.5t1.5 -6.5q-4 -16 -8.5 -32.5t-9.5 -33.5q12 27 27.5 46.5t36.5 25.5q8 3 16 3q16 0 26 -12q9 -10 11 -26q2 -19 -5.5 -41t-25.5 -40v0q-9 -8 -27 -18
t-37 -13q5 -17 7 -33t5 -28v0v0q4 -16 9 -24q7 -9 19 -11v0q6 -1 4.5 -7.5t-6.5 -5.5v0v0q-16 2 -25 14q-4 5 -6.5 11.5t-4.5 13.5v1v0q-4 15 -6.5 33t-6.5 35q-13 2 -19 9v0v0q-5 6 -1 12q2 5 8 7q6 3 12 -2q5 -3 7 -9v0v0q1 -3 2 -7q5 1 12 3q23 7 39 23.5t24 34.5
q9 19 8 36t-11 26q-4 4 -14 6t-23 -5q-5 -3 -13 -10q-10 -11 -18 -23.5t-15 -28.5v0v0q-11 -23 -21 -50.5t-20 -55.5v0q-4 -11 -8 -19.5t-8 -14.5v0v0q-5 -5 -11 -1q-3 2 -3 5t2 6q5 7 13 29q4 10 8 23t8 27v0q7 26 15 55.5t16 57.5l3 12v1q2 4 8 4zM265 283v0q-3 0 -4 -2
l-1 -1v-2q3 -4 10 -5q-1 7 -3 9q-1 1 -2 1z" />
    <glyph glyph-name="macron" unicode="&#xaf;" horiz-adv-x="303" 
d="M64 887h176v0q13 0 13 -13q0 -14 -13 -14v0h-176v0q-14 0 -14 14q0 13 14 13v0z" />
    <glyph glyph-name="degree" unicode="&#xb0;" horiz-adv-x="349" 
d="M214 616v0q33 0 46 -32.5t0 -76.5q-9 -30 -27 -54.5t-40 -39.5t-44 -15q-33 0 -46 32t0 77q9 29 27 54t40 40t44 15zM216 594v0q-24 0 -47 -25t-34 -62t-7.5 -62.5t27.5 -25.5q25 0 50.5 25.5t36.5 62.5t4.5 62t-30.5 25v0z" />
    <glyph glyph-name="plusminus" unicode="&#xb1;" horiz-adv-x="595" 
d="M106 68h277v0q13 0 13 -14q0 -13 -13 -13v0h-277v0q-14 0 -14 13q0 14 14 14v0zM380 477v0q13 0 13 -13q0 -4 -1 -6l-73 -157h173v0q14 0 14 -14q0 -13 -14 -13v0h-186l-78 -169q-3 -8 -12 -8q-13 0 -13 14q0 3 1 6l73 157h-173v0q-14 0 -14 13q0 14 14 14v0h185l78 168
q4 8 13 8v0z" />
    <glyph glyph-name="uni00B2" unicode="&#xb2;" horiz-adv-x="264" 
d="M161 630v0q14 0 28 -6q12 -5 22.5 -13.5t18.5 -25.5q9 -19 7.5 -42t-14.5 -43q-16 -24 -45 -47.5t-60 -48.5q-25 -20 -47 -41t-34 -41q14 5 29 4t29 -4q21 -4 38.5 -7t27.5 2q4 2 8 -1q3 -3 2.5 -7t-4.5 -5q-16 -8 -35.5 -4t-39.5 7q-19 4 -36.5 3.5t-31.5 -12.5
q-5 -4 -12 -2q-12 4 -7 16q11 31 39 58.5t59 52.5t59.5 48t40.5 42q7 11 11 23.5t4 25.5q-2 11 -6 20q-7 15 -21 24.5t-35 8.5q-11 -1 -23 -5t-22 -13q-9 -9 -16.5 -25t-8.5 -41q0 -8 -7 -8q-8 1 -8 8q1 28 9.5 47t20.5 30q10 9 25 15.5t35 6.5z" />
    <glyph glyph-name="uni00B3" unicode="&#xb3;" horiz-adv-x="243" 
d="M129 630v0q29 0 44 -17t10 -49q-4 -23 -24 -40h1q25 -12 36 -39t7 -53q-3 -30 -19.5 -56.5t-39.5 -46.5q-21 -17 -45 -26q-20 -7 -41 -7.5t-40 6.5q-12 6 -21 15.5t-14 24.5q-3 9 -2 21q0 8 7 8q8 -1 8 -8q-1 -9 2 -17v0v0q3 -15 16.5 -24.5t29.5 -10.5q20 -1 41 8t38 22
q21 18 37 42t19 52q2 19 -4.5 39t-24.5 29q-6 4 -13 3.5t-13 -0.5q-12 -2 -14 9q-3 12 9 15t24.5 12t16.5 27q4 11 1.5 24.5t-17.5 19.5q-18 7 -35 -5t-19 -30q-1 -6 -7.5 -6.5t-7.5 5.5q1 21 17 36.5t37 16.5z" />
    <glyph glyph-name="acute" unicode="&#xb4;" horiz-adv-x="170" 
d="M108 927v0q6 0 11.5 -6t1.5 -12l-56 -69q-3 -5 -9 -0.5t-3 9.5l47 74q3 4 8 4z" />
    <glyph glyph-name="uni00B5" unicode="&#xb5;" horiz-adv-x="609" 
d="M64 330v0q12 0 23.5 -9t4.5 -19q-18 -29 -44 -80q-7 -15 -18 -39.5t-22 -49.5q-7 -15 -12 -29.5t-11 -30.5q-10 -28 -10 -49.5t6 -29.5q7 -8 25 -11t43 10q39 24 89 79.5t103 148.5q12 28 23 51t20 40q3 7 13 7q11 0 21 -9t3 -21q-17 -31 -35.5 -72t-34 -85t-26 -85.5
t-10.5 -74.5q-1 -32 22.5 -38.5t50.5 -0.5q25 6 48.5 18.5t45.5 27.5q73 52 130.5 121t105.5 145q3 4 8 4t7 -4.5t0 -8.5q-49 -77 -107.5 -147.5t-133.5 -123.5v0v0q-32 -21 -69 -38.5t-78 -16.5q-36 2 -50 28t-12 67t14 87q6 23 14 48q-51 -76 -98 -118.5t-84 -56.5
q-24 -9 -43 -6t-32 19q-2 3 -5 6q-37 -106 -69 -226t-48 -238l-2 -19q-1 -8 -11 -9.5t-19.5 2.5t-9.5 12l3 20q16 121 46 244.5t69 231.5q38 108 75.5 193.5t65.5 128.5q4 6 15 6z" />
    <glyph glyph-name="paragraph" unicode="&#xb6;" horiz-adv-x="656" 
d="M394 651v0v0h2h1v0h1h3v0l150 -1v0h1l1 1h1q13 0 13 -13q0 -2 -1 -4l-292 -758q-3 -9 -12 -9q-12 0 -12 13q0 2 1 5l285 740l-133 1l-289 -750q-3 -9 -11 -9q-13 0 -13 13q0 2 1 5l188 487q-42 7 -61 46.5t-7 92.5q9 38 32.5 70t54.5 51t64 19h14h16h2z" />
    <glyph glyph-name="periodcentered" unicode="&#xb7;" horiz-adv-x="241" 
d="M80 338v0q13 0 22 -9.5t9 -23.5q0 -13 -9 -23t-22 -10t-22 10t-9 23q0 14 9 23.5t22 9.5z" />
    <glyph glyph-name="cedilla" unicode="&#xb8;" horiz-adv-x="182" 
d="M102 -67v0v0q11 0 11 -10q0 -3 -1 -5l-15 -28q18 -5 27 -15q14 -15 6 -33q-7 -15 -26.5 -22t-44.5 -1q-9 1 -9 10q0 11 11 11h2q21 -5 33 0.5t14 10.5t-2 9q-3 3 -10 6.5t-18 5.5q-9 2 -9 11q0 3 1 5l21 40q2 5 9 5z" />
    <glyph glyph-name="uni00B9" unicode="&#xb9;" horiz-adv-x="195" 
d="M177 628v0q6 0 10 -5.5t1 -11.5l-130 -308q-5 -11 -16 -7q-12 5 -7 17l104 246v0q-13 -13 -26.5 -23t-27.5 -12q-7 -1 -8 6q-2 8 6 9q19 3 46 30q26 27 37 54q3 5 11 5z" />
    <glyph glyph-name="ordmasculine" unicode="&#xba;" horiz-adv-x="261" 
d="M193 630v0q27 0 42.5 -22.5t17.5 -60.5t-12 -84t-38.5 -84t-54 -60.5t-56.5 -22.5t-42.5 22.5t-17.5 60.5t12 84t39 84t54 60.5t56 22.5zM195 608v0q-24 0 -56 -34t-54 -105q-21 -64 -16 -105.5t26 -43.5q29 -3 66 34t61 109q20 64 11.5 104.5t-38.5 40.5z" />
    <glyph glyph-name="guillemotright" unicode="&#xbb;" horiz-adv-x="501" 
d="M152 368v0q5 0 9 -3l154 -130q5 -4 5 -11q0 -2 -1 -5v0v-1v0l-1 -1v0q0 -1 -1 -1v0q0 -1 -1 -1v0q0 -1 -1 -1q-1 -1 0 0q0 -1 -1 -1v0l-203 -130q-3 -3 -7 -3q-14 0 -14 14q0 7 6 11l188 121l-141 119q-5 4 -5 10q0 13 14 13v0zM243 368v0q5 0 9 -3l155 -130q0 -1 1 -1v0
q0 -1 1 -1v0v-1h0.5h0.5v-1v0v0l1 -1v-1v-1v0v-1h1v-1v-1v-1v0v-1v-1h-0.5h-0.5v-1v0v-1v-1q-1 0 -1 -1v0v-1h-0.5h-0.5v-1v0q-2 -2 -4 -3l-203 -130q-3 -3 -7 -3q-14 0 -14 14q0 7 7 11l188 121l-141 119q-5 4 -5 10q0 13 13 13v0z" />
    <glyph glyph-name="onequarter" unicode="&#xbc;" horiz-adv-x="585" 
d="M295 628v0q7 0 10.5 -5.5t0.5 -11.5l-130 -308q-5 -11 -16 -7q-11 5 -6 17l104 246v0q-13 -13 -27 -23t-27 -12q-8 -1 -9 6q-1 8 6 9q19 3 46 30q26 27 37 54q3 5 11 5zM479 593v0q12 0 12 -13q0 -3 -2 -6l-376 -637q-3 -6 -10 -6q-13 0 -13 12q0 4 2 7l376 637q3 6 10 6
h1zM439 275v0q8 0 8 -7q0 -2 -1 -3q-21 -54 -46.5 -92t-48.5 -62q5 -1 6 -1q36 -6 67 -21l48 115q3 8 11 8h1q12 0 12 -12q0 -3 -1 -5l-104 -246q-3 -8 -11 -8q-13 0 -13 12q0 3 1 5l50 117q-30 14 -63 20l-18 2q-15 -13 -27 -21q-11 -7 -21 -7q-10 -1 -16 6t-2 16
q4 8 14 14q9 5 21 6.5t25 0.5q23 23 51 62t50 96q2 5 7 5zM313 97v0q-13 -2 -21 -6q-6 -3 -7 -6v-1h3q6 0 14 5q5 3 11 8z" />
    <glyph glyph-name="onehalf" unicode="&#xbd;" horiz-adv-x="606" 
d="M295 628v0q7 0 10.5 -5.5t0.5 -11.5l-130 -308q-5 -11 -16 -7q-11 5 -6 17l104 246v0q-13 -13 -27 -23t-27 -12q-8 -1 -9 6q-1 8 6 9q19 3 46 30q26 27 37 54q3 5 11 5zM479 593v0q12 0 12 -13q0 -3 -2 -6l-376 -637q-3 -6 -10 -6q-13 0 -13 12q0 4 2 7l376 637q3 6 10 6
h1zM440 275v0q13 0 27 -5q12 -5 22.5 -13.5t18.5 -25.5q10 -20 8.5 -43t-14.5 -42q-16 -25 -45.5 -48.5t-60.5 -48.5q-25 -20 -46.5 -40.5t-34.5 -40.5q14 4 29 3t30 -3q20 -4 37.5 -7t27.5 2q5 2 8 -1t2.5 -7t-3.5 -6q-17 -8 -36.5 -4t-38.5 8q-20 4 -37.5 3.5t-31.5 -12.5
q-4 -4 -12 -2q-11 4 -7 15q11 32 39 59t59 52t59.5 48.5t40.5 42.5q7 10 11.5 23t3.5 26q-1 10 -6 20q-7 15 -21 24t-35 8q-11 0 -22.5 -4t-21.5 -13t-17 -25t-8 -42q-1 -7 -8 -7q-8 0 -7 8q1 28 9 47t21 30q9 9 24 15t36 6z" />
    <glyph glyph-name="threequarters" unicode="&#xbe;" horiz-adv-x="612" 
d="M238 630v0q28 0 43.5 -17t9.5 -49q-4 -23 -23 -40q1 0 0 0q26 -12 36.5 -39t7.5 -53q-4 -30 -20 -56.5t-39 -46.5q-21 -17 -46 -26q-20 -7 -41 -7.5t-40 6.5q-12 6 -21 15.5t-14 24.5q-2 9 -2 21q0 8 8 8q7 -1 7 -8q0 -9 2 -17v0v0q4 -15 17 -24.5t29 -10.5q20 -1 41.5 8
t37.5 22q21 18 37 42t19 52q2 19 -4.5 39t-24.5 29q-6 4 -12.5 3.5t-13.5 -0.5q-11 -2 -14 9q-3 12 9 15t24.5 12t17.5 27q3 11 0.5 24.5t-17.5 19.5q-18 7 -35 -5t-19 -30q0 -6 -7 -6.5t-8 5.5q1 21 17.5 36.5t37.5 16.5zM505 593v0q12 0 12 -13q0 -3 -2 -6l-376 -637
q-3 -6 -10 -6q-13 0 -13 12q0 4 2 7l376 637q3 6 10 6h1zM465 275v0q8 0 8 -7q0 -2 -1 -3q-21 -54 -46.5 -92t-48.5 -62q5 -1 6 -1q36 -6 67 -21l48 115q3 8 11 8h1q12 0 12 -12q0 -3 -1 -5l-104 -246q-3 -8 -11 -8q-13 0 -13 12q0 3 1 5l50 117q-30 14 -63 20l-18 2
q-15 -13 -27 -21q-11 -7 -21 -7q-10 -1 -16 6t-2 16q4 8 14 14q9 5 21 6.5t25 0.5q23 23 51 62t50 96q2 5 7 5zM339 97v0q-13 -2 -21 -6q-6 -3 -7 -6v-1h3q6 0 14 5q5 3 11 8z" />
    <glyph glyph-name="questiondown" unicode="&#xbf;" horiz-adv-x="588" 
d="M633 775v0q12 0 19 -8q8 -8 8 -19q0 -12 -9 -20q-8 -8 -20 -8q-11 0 -19 8t-8 20q1 11 9 19q9 8 20 8zM612 673v0q4 0 7 -2q7 -4 4 -11q-12 -30 -30 -63t-38 -63t-38 -50q-19 -22 -40 -42t-42 -38q-23 -21 -45 -39q-34 -28 -63.5 -55t-51.5 -57t-35 -64.5t-13 -79.5
q0 -42 16 -78t47 -58t77 -21q38 0 76 20t66.5 63.5t40.5 114.5q1 9 10 8q8 -2 7 -10q-12 -74 -43.5 -121t-73 -69.5t-83.5 -22.5q-78 0 -124.5 47t-50.5 127q-2 50 14 91t40 74q25 34 56.5 62t65.5 56q33 27 68 56t65 63q25 29 53 70t44 82q4 10 14 10z" />
    <glyph glyph-name="Agrave" unicode="&#xc0;" horiz-adv-x="1213" 
d="M1178 904v0q5 0 7 -4l48 -74q3 -5 -3 -9.5t-9 0.5l-56 69q-5 6 1 12t12 6zM1211 746q-13 -21 -39 -67t-58 -110t-63 -138q-10 -23 -19 -46.5t-18 -48.5q45 1 77 13t48 42q2 5 7 5q9 0 9 -9q0 -2 -1 -3q-17 -35 -53.5 -50t-87.5 -15h-5q-29 -83 -48.5 -170t-19.5 -162
q0 -11 0.5 -21t1.5 -20v-1q0 -5 -4.5 -7.5t-9.5 -2.5q-6 0 -11.5 2.5t-6.5 8.5q-1 10 -1.5 21t-0.5 22q0 75 17 162t43 169q-37 3 -78 10.5t-84 16.5q-54 -75 -114 -151t-127 -142t-142 -111q-57 -34 -119 -53.5t-130 -19.5q-40 0 -82 7t-86 23q-6 2 -6 8q0 9 9 9h1t1 -1
q43 -15 83.5 -22t79.5 -7q65 0 125 19t115 52q72 43 137.5 107t124.5 138.5t112 147.5q-58 13 -122 28t-127.5 27t-118.5 16q-11 1 -21 1.5t-20 0.5q-51 0 -92 -11.5t-67 -39.5q-3 -3 -6 -3q-9 0 -9 9q0 3 3 6q29 31 72.5 43.5t96.5 12.5q11 0 22.5 -0.5t22.5 -1.5
q57 -4 122 -16.5t130.5 -28t124.5 -28.5q47 67 92.5 130t89.5 116q51 62 102 105.5t104 57.5q6 2 8 2q9 0 14 -6.5t5 -13.5t-3 -11zM1167 750q-43 -18 -86 -57t-87 -91q-43 -52 -87 -113.5t-90 -126.5q43 -9 82 -16t74 -9q10 29 20 57t21 53q28 67 57 125.5t54 104t42 73.5z
" />
    <glyph glyph-name="Aacute" unicode="&#xc1;" horiz-adv-x="1213" 
d="M1260 912v0q6 0 12 -6.5t1 -12.5l-56 -69q-3 -4 -9 0.5t-3 8.5l48 75q2 4 7 4zM1211 746q-13 -21 -39 -67t-58 -110t-63 -138q-10 -23 -19 -46.5t-18 -48.5q45 1 77 13t48 42q2 5 7 5q9 0 9 -9q0 -2 -1 -3q-17 -35 -53.5 -50t-87.5 -15h-5q-28 -83 -48 -170t-20 -162
q0 -11 0.5 -21t1.5 -20v-1q0 -5 -4.5 -7.5t-9.5 -2.5q-6 0 -11 2.5t-7 8.5q-1 10 -1.5 21t-0.5 22q0 75 17 161.5t43 169.5q-37 3 -77.5 10.5t-84.5 16.5q-54 -75 -114 -151t-127 -142t-142 -111q-57 -34 -119 -53.5t-130 -19.5q-40 0 -82 7t-86 23q-6 2 -6 8q0 9 9 9h1
t1 -1q43 -15 83.5 -22t79.5 -7q65 0 125 19t115 52q72 43 137.5 107t125 138t111.5 148q-57 13 -121.5 28t-127.5 27t-119 16q-10 1 -20.5 1.5t-20.5 0.5q-51 0 -92 -11.5t-67 -39.5q-3 -3 -6 -3q-9 0 -9 9q0 3 3 6q29 31 73 43.5t96 12.5q11 0 22.5 -0.5t22.5 -1.5
q58 -4 122.5 -16.5t130 -28t124.5 -28.5q47 67 92.5 130t89.5 116q51 61 102 105t104 58q6 2 8 2q9 0 14 -6.5t5 -13.5t-3 -11zM1167 750q-43 -18 -86 -57t-87 -91q-43 -52 -86.5 -113.5t-90.5 -126.5q43 -9 82.5 -16t73.5 -9q10 29 20.5 56.5t20.5 53.5q28 67 57 125.5
t54.5 104t41.5 73.5z" />
    <glyph glyph-name="Acircumflex" unicode="&#xc2;" horiz-adv-x="1213" 
d="M1225 929v0q7 0 10 -5l42 -81q4 -7 -7 -13t-15 2l-32 61q-11 -13 -23.5 -28t-20.5 -25.5l-8 -10.5q-6 -6 -15.5 2t-4.5 14q11 14 25.5 31.5t26 31.5t14.5 18q2 3 8 3zM1211 746q-13 -21 -39 -67t-58 -110t-63 -138q-10 -22 -19 -46t-18 -49q45 1 77 13t48 42q2 5 7 5
q9 0 9 -9q0 -2 -1 -3q-17 -35 -53.5 -50t-87.5 -15h-5q-28 -83 -48 -170t-20 -162q0 -10 0.5 -20.5t1.5 -20.5v-1q0 -5 -4.5 -7.5t-9.5 -2.5q-6 0 -11 2.5t-7 8.5q-1 11 -1.5 21.5t-0.5 21.5q0 75 17 162t43 169q-37 3 -77.5 10.5t-84.5 16.5q-54 -75 -114 -151t-127 -142
t-142 -111q-57 -34 -119 -53.5t-130 -19.5q-40 0 -82 7t-86 23q-6 2 -6 8q0 9 9 9h1t1 -1q43 -15 83.5 -22t79.5 -7q65 0 125 19t115 52q72 43 137.5 107t125 138.5t111.5 147.5q-57 13 -121.5 28t-127.5 27.5t-119 15.5q-10 1 -20.5 1.5t-20.5 0.5q-51 0 -92 -11.5
t-67 -39.5q-3 -3 -6 -3q-9 0 -9 9q0 3 3 6q29 31 73 43.5t96 12.5q11 0 22.5 -0.5t22.5 -1.5q58 -4 122.5 -16.5t130 -28t124.5 -28.5q47 67 92.5 130t89.5 116q51 62 102 105.5t104 57.5q6 2 8 2q9 0 14 -6t5 -14q0 -6 -3 -11zM1167 750q-43 -18 -86 -56.5t-87 -91.5
q-43 -52 -86.5 -113.5t-90.5 -126.5q43 -9 82.5 -16t73.5 -9q10 29 20.5 57t20.5 53q28 67 57 125.5t54.5 104.5t41.5 73z" />
    <glyph glyph-name="Atilde" unicode="&#xc3;" horiz-adv-x="1213" 
d="M1165 876v0q17 0 32.5 -7t32.5 -9q7 -1 16.5 0t21.5 8q9 6 14 -3t-3 -14q-14 -9 -27.5 -12t-24.5 -4q-18 0 -34 7t-32.5 9t-36.5 -11q-8 -4 -13 4.5t4 14.5q27 17 50 17zM1211 746q-13 -21 -39 -67t-58 -110t-63 -138q-10 -23 -19 -46.5t-18 -48.5q45 1 77 13t48 42
q2 5 7 5q9 0 9 -9q0 -2 -1 -3q-17 -35 -53.5 -50t-87.5 -15h-5q-29 -83 -48.5 -170t-19.5 -162q0 -11 0.5 -21t1.5 -20v-1q0 -5 -4.5 -7.5t-9.5 -2.5q-6 0 -11.5 2.5t-6.5 8.5q-1 10 -1.5 21t-0.5 22q0 75 17 161.5t43 169.5q-37 3 -78 10.5t-84 16.5q-54 -75 -114 -151
t-127 -142t-142 -111q-57 -34 -119 -53.5t-130 -19.5q-40 0 -82 7t-86 23q-6 2 -6 8q0 9 9 9h1t1 -1q43 -15 83.5 -22t79.5 -7q65 0 125 19t115 52q72 43 137.5 107t124.5 138t112 148q-58 13 -122 28t-127.5 27t-118.5 16q-11 1 -21 1.5t-20 0.5q-51 0 -92 -11.5t-67 -39.5
q-3 -3 -6 -3q-9 0 -9 9q0 3 3 6q29 31 72.5 43.5t96.5 12.5q11 0 22.5 -0.5t22.5 -1.5q57 -4 122 -16.5t130.5 -28t124.5 -28.5q47 67 92.5 130t89.5 116q51 61 102 105t104 58q6 2 8 2q9 0 14 -6.5t5 -13.5t-3 -11zM1167 750q-43 -18 -86 -57t-87 -91q-43 -52 -87 -113.5
t-90 -126.5q43 -9 82 -16t74 -9q10 29 20 56.5t21 53.5q28 67 57 125.5t54 104t42 73.5z" />
    <glyph glyph-name="Adieresis" unicode="&#xc4;" horiz-adv-x="1213" 
d="M1151 854v0q8 0 12 -5q6 -6 4 -14q-1 -8 -7 -13q-6 -6 -14 -6t-13 5t-4 14q1 7 7 13q7 6 15 6zM1251 854v0q7 0 12 -5q5 -6 4 -14t-7 -13q-7 -6 -15 -6t-12 5q-6 5 -4 14q1 7 7 13t15 6zM1211 746q-13 -21 -39 -67t-58 -110t-63 -138q-10 -22 -19 -46t-18 -49q45 1 77 13
t48 42q2 5 7 5q9 0 9 -9q0 -2 -1 -3q-17 -35 -53.5 -50t-87.5 -15h-5q-28 -83 -48 -170t-20 -162q0 -10 0.5 -20.5t1.5 -20.5v-1q0 -5 -4.5 -7.5t-9.5 -2.5q-6 0 -11 2.5t-7 8.5q-1 11 -1.5 21.5t-0.5 21.5q0 75 17 162t43 169q-37 3 -77.5 10.5t-84.5 16.5
q-54 -75 -114 -151t-127 -142t-142 -111q-57 -34 -119 -53.5t-130 -19.5q-40 0 -82 7t-86 23q-6 2 -6 8q0 9 9 9h1t1 -1q43 -15 83.5 -22t79.5 -7q65 0 125 19t115 52q72 43 137.5 107t125 138.5t111.5 147.5q-57 13 -121.5 28t-127.5 27.5t-119 15.5q-10 1 -20.5 1.5
t-20.5 0.5q-51 0 -92 -11.5t-67 -39.5q-3 -3 -6 -3q-9 0 -9 9q0 3 3 6q29 31 73 43.5t96 12.5q11 0 22.5 -0.5t22.5 -1.5q58 -4 122.5 -16.5t130 -28t124.5 -28.5q47 67 92.5 130t89.5 116q51 62 102 105.5t104 57.5q6 2 8 2q9 0 14 -6t5 -14q0 -6 -3 -11zM1167 750
q-43 -18 -86 -56.5t-87 -91.5q-43 -52 -86.5 -113.5t-90.5 -126.5q43 -9 82.5 -16t73.5 -9q10 29 20.5 57t20.5 53q28 67 57 125.5t54.5 104.5t41.5 73z" />
    <glyph glyph-name="Aring" unicode="&#xc5;" horiz-adv-x="1213" 
d="M1225 888q16 0 25.5 -13t6.5 -31q-2 -17 -14.5 -30.5t-29.5 -13.5t-26 13.5t-7 30.5q3 18 15.5 31t29.5 13zM1222 870v0q-7 0 -14 -7t-8 -19q-2 -11 3 -18t12 -7t14.5 7t8.5 18q2 12 -3.5 19t-12.5 7zM1211 746q-13 -21 -39 -67t-58 -110t-63 -138q-10 -23 -19 -46.5
t-18 -48.5q45 1 77 13t48 42q2 5 7 5q9 0 9 -9q0 -2 -1 -3q-17 -35 -53.5 -50t-87.5 -15h-5q-28 -83 -48 -170t-20 -162q0 -11 0.5 -21t1.5 -20v-1q0 -5 -4.5 -7.5t-9.5 -2.5q-6 0 -11 2.5t-7 8.5q-1 10 -1.5 21t-0.5 22q0 75 17 162t43 169q-37 3 -77.5 10.5t-84.5 16.5
q-54 -75 -114 -151t-127 -142t-142 -111q-57 -34 -119 -53.5t-130 -19.5q-40 0 -82 7t-86 23q-6 2 -6 8q0 9 9 9h1t1 -1q43 -15 83.5 -22t79.5 -7q65 0 125 19t115 52q72 43 137.5 107t125 138.5t111.5 147.5q-57 13 -121.5 28t-127.5 27t-119 16q-10 1 -20.5 1.5t-20.5 0.5
q-51 0 -92 -11.5t-67 -39.5q-3 -3 -6 -3q-9 0 -9 9q0 3 3 6q29 31 73 43.5t96 12.5q11 0 22.5 -0.5t22.5 -1.5q58 -4 122.5 -16.5t130 -28t124.5 -28.5q47 67 92.5 130t89.5 116q51 62 102 105.5t104 57.5q6 2 8 2q9 0 14 -6.5t5 -13.5t-3 -11zM1167 750q-43 -18 -86 -57
t-87 -91q-43 -52 -86.5 -113.5t-90.5 -126.5q43 -9 82.5 -16t73.5 -9q10 29 20.5 57t20.5 53q28 67 57 125.5t54.5 104t41.5 73.5z" />
    <glyph glyph-name="AE" unicode="&#xc6;" horiz-adv-x="1503" 
d="M1299 746q-54 -14 -106.5 -48t-104.5 -81q-59 -54 -118.5 -120.5t-120.5 -136.5q41 -10 79.5 -20t75.5 -17q50 61 113.5 105t125.5 57q-31 17 -46.5 52.5t4.5 93.5q13 39 39.5 68t58.5 47zM1373 774q5 0 10.5 -0.5t10.5 -0.5q28 -1 57.5 -19.5t35.5 -54.5q3 -19 -2 -40
q-5 -25 -21.5 -45.5t-39.5 -28.5q-22 -7 -41 -2t-30 18t-12.5 31t7.5 36q3 8 12 4q7 -3 3 -11q-14 -30 3 -49q8 -9 21 -13t31 2q19 6 32.5 23.5t18.5 38.5q3 16 1 32.5t-13 28.5q-13 14 -34 18.5t-44 1t-41 -12.5q-12 -7 -32 -20.5t-38 -34.5t-27 -49q-8 -25 -10.5 -52.5
t6 -49.5t32.5 -30q12 -3 26 -3q9 0 9 -9q0 -8 -9 -8q-29 0 -60 -9q-59 -17 -104 -57.5t-75 -78.5q-6 -6 -11 -14q33 -6 63 -9q32 -3 59 -2t48 7q43 12 60 45q2 4 7 4q9 0 9 -8q0 -1 -0.5 -2t-0.5 -2q-10 -20 -28.5 -33t-42.5 -20q-23 -7 -51.5 -8t-60.5 2q-17 2 -35.5 4.5
t-37.5 5.5q-25 -37 -44.5 -82.5t-27.5 -92t0 -87t38 -66.5q32 -28 82 -37t111 6q22 6 43 15t41 23q71 49 129.5 119.5t105.5 145.5q4 8 12 3t3 -13q-45 -70 -99.5 -137t-120.5 -117q-35 -27 -78 -43.5t-87 -21.5q-60 -7 -111.5 8t-84 51t-37.5 90q-6 62 17.5 125.5
t65.5 118.5q-37 8 -76 17.5t-79 19.5q-13 -14 -25.5 -29t-25.5 -30q-79 -88 -164 -170.5t-180 -140.5t-203 -81.5t-232 4.5q-7 2 -7 8q0 9 9 9h2q120 -28 224.5 -4.5t197.5 79.5q94 56 177.5 137.5t162.5 170.5q11 13 22.5 26t23.5 26q-3 1 -5.5 1.5t-5.5 1.5
q-80 20 -160 38.5t-150 25.5t-125 -2.5t-87 -41.5q-2 -3 -6 -3q-8 0 -8 9q0 2 2 6q27 28 67.5 39.5t89.5 12.5q33 0 68 -3q72 -7 152.5 -25.5t160.5 -39.5q5 -1 9.5 -2t9.5 -3q62 73 122.5 141.5t122.5 123.5q70 65 144 104.5t153 40.5z" />
    <glyph glyph-name="Ccedilla" unicode="&#xc7;" horiz-adv-x="970" 
d="M904 731q-48 -6 -111 -43t-125 -117q44 -5 88 -7t88 -1q36 2 71.5 11t62.5 32q12 10 22 23t15 29q8 26 -6 44.5t-42.5 26t-62.5 2.5zM656 555v0q-25 -35 -48 -78t-44 -96q-18 -46 -29 -103.5t-13 -113.5q0 -25 2 -70t17 -86q7 -18 17.5 -35t25.5 -28q27 -19 58.5 -14.5
t60 20.5t47.5 28q74 51 131 120.5t104 145.5q5 8 12.5 3t2.5 -13q-48 -76 -106.5 -146.5t-134.5 -123.5q-26 -19 -58 -35t-69 -19l-8 -16q17 -5 26 -15q14 -15 7 -33q-7 -15 -26.5 -22t-45.5 -1q-8 1 -8 10q0 11 10 11h3q21 -5 33 0.5t14 10.5q2 4 -2 9q-3 3 -10 6.5
t-19 5.5q-9 2 -9 11q0 2 2 5l9 17q-29 2 -49 16t-34 34q-25 37 -35 90.5t-8 112.5t13 119.5t31 111.5q19 48 41 90t45 76q-82 9 -163.5 14.5t-162.5 -5.5h-1q-79 -7 -152 -44.5t-113 -107.5q-4 -7 -12 -3t-3 12q29 50 73.5 83.5t98 52.5t107.5 24q86 10 170.5 4t168.5 -15
q68 96 142.5 142.5t135.5 53.5q39 5 74 -6t53 -36.5t6 -66.5q-5 -16 -16 -34.5t-29 -34.5q-31 -26 -69 -35t-75 -11q-47 -2 -95 0.5t-94 7.5z" />
    <glyph glyph-name="Egrave" unicode="&#xc8;" horiz-adv-x="781" 
d="M632 900v0q5 0 8 -3l47 -75q3 -4 -3 -8.5t-9 -0.5l-56 69q-4 6 1.5 12t11.5 6zM580 476v0q-28 0 -60 -9q-58 -17 -103.5 -57.5t-75.5 -78.5q-28 -35 -52.5 -84t-37 -101.5t-6 -98.5t39.5 -75q32 -28 82 -37t111 6q22 6 43 15t41 23q71 49 129.5 119.5t105.5 146.5
q5 8 12.5 3t2.5 -13q-45 -71 -99.5 -138t-120.5 -117q-34 -27 -77.5 -43.5t-87.5 -21.5q-60 -7 -111.5 8t-84 51t-37.5 90q-5 55 12.5 111t51.5 107t78.5 93.5t94 71.5t97.5 39q-31 15 -45 48.5t-1 80.5q-58 8 -124 18t-130 13t-118.5 -10t-90.5 -52q-6 -6 -12.5 0t-0.5 12
q38 42 94.5 56t123 11t134 -13t128.5 -18q17 46 48.5 77.5t69.5 48t73 16.5q10 0 15 -1q36 -4 54 -26t18.5 -48t-16.5 -43q-38 -38 -98.5 -45t-128.5 0q-11 -39 -3 -73t36 -42q12 -3 26 -3q9 0 9 -9q0 -8 -9 -8zM623 732q-32 -14 -58 -41.5t-40 -62.5q63 -6 120.5 0.5
t90.5 39.5q11 11 12.5 28t-9.5 33q-10 15 -32.5 17t-45.5 -2.5t-38 -11.5z" />
    <glyph glyph-name="Eacute" unicode="&#xc9;" horiz-adv-x="781" 
d="M738 914v0q7 0 12.5 -6t1.5 -12l-56 -69q-4 -4 -9.5 0.5t-2.5 8.5l47 75q3 3 7 3zM580 476v0q-28 0 -60 -9q-58 -17 -103.5 -57.5t-75.5 -78.5q-28 -35 -52.5 -84t-37 -101.5t-6 -98.5t39.5 -75q32 -29 81.5 -37.5t111.5 6.5q22 6 43 15t41 23q71 49 129.5 119.5
t105.5 146.5q5 7 12 2t3 -12q-45 -71 -99.5 -138.5t-120.5 -116.5q-34 -27 -78 -43.5t-87 -21.5q-61 -8 -112 7.5t-83.5 51t-37.5 90.5t12.5 111t51.5 107t78.5 93.5t94 71t97.5 39.5q-32 15 -45.5 48.5t-0.5 80.5q-58 7 -124 17.5t-130 13.5t-118.5 -10t-90.5 -52
q-6 -6 -12.5 0t-0.5 12q38 42 94.5 56t123 11t134 -13.5t128.5 -17.5q16 46 48 77.5t70 48t73 16.5q10 0 15 -1q36 -4 54 -26t18 -48.5t-16 -42.5q-38 -38 -98.5 -45t-128.5 0q-11 -39 -3 -73t36 -42q12 -3 26 -3q9 0 9 -9q0 -8 -9 -8zM623 732q-32 -14 -58.5 -42t-39.5 -62
q63 -6 120.5 0.5t90.5 39.5q10 10 12 27.5t-9 33.5q-11 15 -33 17t-45 -3t-38 -11z" />
    <glyph glyph-name="Ecircumflex" unicode="&#xca;" horiz-adv-x="781" 
d="M701 926v0q7 0 10 -5l42 -81q4 -7 -7 -13t-15 2l-33 61q-11 -13 -23 -28t-20.5 -25.5l-8.5 -10.5q-5 -6 -14.5 2t-4.5 14q11 14 25.5 31.5t26 31.5t14.5 18q2 3 8 3zM580 476v0q-28 0 -60 -9q-58 -17 -103.5 -57.5t-75.5 -78.5q-28 -35 -52.5 -84t-37 -101.5t-6 -98.5
t39.5 -75q32 -28 82 -37t111 6q22 6 43 15t41 23q71 49 129.5 119.5t105.5 146.5q5 7 12.5 2t2.5 -12q-45 -71 -99.5 -138t-120.5 -117q-34 -27 -77.5 -43.5t-87.5 -21.5q-60 -7 -111.5 8t-84 51t-37.5 90q-5 55 12.5 111t51.5 107t78.5 93.5t94 71.5t97.5 39
q-31 15 -45 48.5t-1 80.5q-58 7 -124 17.5t-130 13.5t-118.5 -10t-90.5 -52q-6 -6 -12.5 0t-0.5 12q38 42 94.5 56t123 11t134 -13t128.5 -18q17 46 48.5 77.5t69.5 48t73 16.5q10 0 15 -1q36 -4 54 -26t18.5 -48.5t-16.5 -42.5q-38 -38 -98.5 -45t-128.5 0q-11 -39 -3 -73
t36 -42q12 -3 26 -3q9 0 9 -9q0 -8 -9 -8zM623 732q-32 -14 -58 -42t-40 -62q63 -6 120.5 0.5t90.5 39.5q11 10 12.5 27.5t-9.5 33.5q-10 15 -32.5 17t-45.5 -3t-38 -11z" />
    <glyph glyph-name="Edieresis" unicode="&#xcb;" horiz-adv-x="781" 
d="M643 858v0q8 0 12 -5q6 -6 4 -14q-1 -8 -7 -13q-6 -6 -14 -6t-13 5q-5 6 -4 14t7 13q7 6 15 6zM743 858v0q7 0 12 -5q5 -6 4 -14t-7 -13q-7 -6 -15 -6t-12 5q-6 6 -4 14q1 8 7 13q6 6 15 6zM580 476q-29 0 -60 -9q-59 -17 -104 -57.5t-75 -78.5q-28 -35 -52.5 -84
t-37 -101.5t-6 -98.5t39.5 -75q32 -28 81.5 -37t111.5 6q22 6 43 15t41 23q71 49 129.5 119.5t105.5 146.5q4 8 11.5 3t3.5 -13q-45 -71 -99.5 -138t-120.5 -117q-35 -27 -78.5 -43.5t-86.5 -21.5q-61 -7 -112 8t-83.5 51t-37.5 90q-5 55 12.5 111t51.5 107t78.5 93.5
t94 71.5t97.5 39q-32 15 -45.5 48.5t-0.5 80.5q-58 8 -124 18t-130 13t-118.5 -10t-90.5 -52q-6 -6 -12.5 0t-0.5 12q38 42 94.5 56t123 11t134 -13t128.5 -18q16 46 48 77.5t69.5 48t73.5 16.5q10 0 15 -1q36 -4 54 -26t18 -48t-16 -43q-38 -38 -98.5 -45t-128.5 0
q-11 -39 -3 -73t36 -42q12 -3 26 -3q9 0 9 -9q0 -8 -9 -8zM623 732q-32 -14 -58.5 -41.5t-39.5 -62.5q63 -6 120.5 0.5t90.5 39.5q10 11 12 28t-9 33q-11 15 -33 17t-45.5 -2.5t-37.5 -11.5z" />
    <glyph glyph-name="Igrave" unicode="&#xcc;" horiz-adv-x="611" 
d="M595 910v0q5 0 7 -4l48 -75q3 -4 -3 -8.5t-9 -0.5l-56 70q-5 5 1 11.5t12 6.5zM668 761q-11 -31 -18 -52t-17 -43q-6 -16 -26 -72t-51.5 -144t-72.5 -203q-37 -104 -89.5 -174t-111.5 -109q-39 -26 -79 -39t-81 -14q-56 -2 -89 31.5t-24 85.5q7 36 33.5 66t69.5 46t99 7
q8 -1 6.5 -9t-9.5 -7q-55 8 -94 -7t-61 -42.5t-27 -56.5q-3 -18 0 -35.5t14 -30.5q16 -17 44 -20.5t59 1.5q32 5 63 17t54 27q47 30 79 69t57 90t49 118q61 169 99.5 278.5t51.5 140.5l11 30q-29 -25 -70 -34t-89.5 -9.5t-99.5 1.5q-66 2 -117 -5t-82.5 -35t-39.5 -90
q-1 -8 -9.5 -7t-7.5 9q7 52 31 83.5t59 45.5t78 15.5t88 0.5q47 -1 91.5 -1.5t82 6t65.5 25t41 54.5q3 9 13.5 9t20 -5t6.5 -12z" />
    <glyph glyph-name="Iacute" unicode="&#xcd;" horiz-adv-x="611" 
d="M713 923v0q6 0 11.5 -6.5t1.5 -11.5l-56 -70q-3 -4 -9 0.5t-3 8.5l47 75q3 4 8 4zM668 761q-11 -31 -18 -51.5t-17 -43.5q-6 -16 -26 -72t-51.5 -144t-72.5 -203q-38 -104 -90 -174t-111 -109q-39 -25 -79 -38t-81 -15q-56 -2 -89 31.5t-24 85.5q6 36 33 66t70 46t99 7
q8 -1 6.5 -9t-9.5 -7q-55 8 -94 -7t-61 -42t-27 -57q-3 -18 0 -35t14 -31q16 -17 43.5 -20.5t59.5 1.5t63 17t54 27q47 31 79 70t57 90t49 117q61 170 99.5 279t51.5 140l11 30q-29 -25 -70 -34t-89.5 -9t-99.5 1q-66 2 -117 -5t-82.5 -35t-39.5 -90q-1 -8 -9.5 -7t-7.5 9
q7 53 31 84t59 45t78 16t88 0q47 -1 91.5 -1.5t82 6t65.5 25t41 54.5q3 9 13.5 9t20 -5t6.5 -12z" />
    <glyph glyph-name="Icircumflex" unicode="&#xce;" horiz-adv-x="611" 
d="M670 929v0q8 -1 10 -6l43 -80q4 -8 -7 -13.5t-15 1.5l-33 62q-11 -14 -23 -28.5t-20.5 -25l-8.5 -10.5q-5 -6 -14.5 1.5t-4.5 14.5q11 13 25.5 30.5t26 32t13.5 17.5q3 4 8 4zM668 761q-11 -31 -18 -52t-17 -43q-6 -17 -26 -72.5t-51.5 -144t-72.5 -202.5
q-37 -104 -89.5 -174t-111.5 -109q-39 -26 -79 -39t-81 -14q-56 -2 -89 31t-24 86q7 35 33.5 65.5t69.5 46t99 7.5q8 -1 6.5 -9.5t-9.5 -6.5q-55 8 -94 -7t-61 -42.5t-27 -56.5q-3 -18 0 -35.5t14 -30.5q16 -17 44 -20.5t59 1.5q32 5 63 17t54 27q47 30 79 69t57 90t49 118
q61 169 99.5 278.5t51.5 140.5l11 30q-29 -25 -70 -34t-89.5 -9.5t-99.5 1.5q-66 2 -117 -5t-82.5 -35.5t-39.5 -89.5q-1 -8 -9.5 -7t-7.5 9q7 52 31 83.5t59 45.5t78 15.5t88 0.5q47 -2 91.5 -2t82 6.5t65.5 25t41 54.5q3 8 13.5 8.5t20 -4.5t6.5 -12z" />
    <glyph glyph-name="Idieresis" unicode="&#xcf;" horiz-adv-x="611" 
d="M624 868v0q7 0 12 -5q5 -6 4 -14q-1 -7 -7 -13q-7 -6 -15 -6t-12 5q-6 6 -4 14q1 8 7 13q6 6 15 6zM723 868v0q8 0 12 -5q6 -6 4 -14q-1 -7 -7 -13t-14 -6t-13 5q-5 6 -4 14t7 13q7 6 15 6zM668 761q-11 -31 -18 -51.5t-17 -43.5q-6 -16 -26 -72t-51.5 -144t-72.5 -203
q-37 -104 -89.5 -174t-111.5 -109q-39 -25 -79 -38t-81 -15q-56 -2 -89 31.5t-24 85.5q7 36 33.5 66t69.5 46t99 7q8 -1 6.5 -9t-9.5 -7q-55 8 -94 -7t-61 -42t-27 -57q-3 -18 0 -35t14 -31q16 -17 44 -20.5t59 1.5q32 5 63 17t54 27q47 31 79 70t57 90t49 117
q61 170 99.5 279t51.5 140l11 30q-29 -25 -70 -34t-89.5 -9t-99.5 1q-66 2 -117 -5t-82.5 -35t-39.5 -90q-1 -8 -9.5 -7t-7.5 9q7 53 31 84t59 45t78 16t88 0q47 -1 91.5 -1.5t82 6t65.5 25t41 54.5q3 9 13.5 9t20 -5t6.5 -12z" />
    <glyph glyph-name="Eth" unicode="&#xd0;" horiz-adv-x="860" 
d="M494 753v0q-46 1 -79 -16.5t-62 -41.5q-16 -59 -30.5 -111t-27.5 -98h124h1q13 0 13 -13q0 -14 -13 -14h-1h-132q-9 -30 -17.5 -59t-16.5 -56q67 2 137 -24t129 -80q6 -6 0 -12t-12 0q-58 53 -126 77t-133 22q-23 -77 -44.5 -145.5t-42.5 -142.5q-3 -11 -11 -12.5
t-14 4.5t-3 20q20 71 39 136t38 136q-61 -11 -108.5 -45t-69.5 -91q-15 -37 -11 -88t35 -93q27 -36 80 -58.5t138 -15.5q71 6 143 42.5t135 93t109 120.5q40 59 59 119q21 67 22.5 128t-14.5 112q-14 47 -47 94.5t-81 79t-106 32.5zM368 751v0q-2 -8 -4 -14.5t-4 -13.5
q51 35 102 46q13 3 25.5 3.5t25.5 0.5q74 0 136 -44q54 -39 90 -104t44 -149t-22 -178q-21 -65 -62.5 -126.5t-99 -113.5t-125.5 -87.5t-140 -48.5q-115 -20 -186 3.5t-106 70.5q-34 46 -38 100t12 96q25 64 78.5 101.5t120.5 47.5q15 54 33 118h-105h-1q-13 0 -13 14
q0 13 13 13h1h112q16 59 34 127t40 149q3 12 14 13.5t19.5 -5.5t5.5 -19z" />
    <glyph glyph-name="Ntilde" unicode="&#xd1;" horiz-adv-x="1109" 
d="M912 881v0q18 0 33 -7t33 -9q7 -1 16 0t21 8q10 5 14.5 -3.5t-3.5 -13.5q-13 -9 -27 -12.5t-24 -3.5q-19 0 -34.5 7t-32 9t-36.5 -11q-9 -5 -14 4t5 15q27 17 49 17zM1040 701q12 -37 14.5 -86t-2.5 -104q-4 -56 -13.5 -114.5t-21.5 -111.5q-4 -18 -13.5 -52t-21.5 -76.5
t-24 -86.5q-14 -47 -28 -100.5t-29 -90.5q-3 -8 -13.5 -7t-18.5 7.5t-5 15.5q13 40 30 93t34 109.5t31.5 108.5t22.5 91q9 42 18 97.5t13.5 114t1.5 111t-18 89.5q-17 45 -56.5 36.5t-92.5 -70.5q-18 -23 -35 -48q-37 -53 -76.5 -120t-78 -140t-72.5 -144.5t-61 -133.5
q-25 -58 -42.5 -101t-22.5 -61q-1 -7 -6 -12t-13 -5t-14.5 6t-6.5 14v1q3 62 17 142t35.5 168t48 175.5t55.5 166t57 138.5q-40 -36 -97.5 -75t-122 -75.5t-128.5 -62.5q-55 -23 -106 -34.5t-90 -5.5q-89 14 -78 118q0 8 8 8q9 0 9 -9v-1q-4 -46 11.5 -70t52.5 -30
q35 -5 84 5.5t104 33.5q55 22 111.5 53t108 65.5t92.5 67.5t65 59q4 4 13 4h1q8 0 14 -6t6 -14q0 -4 -2 -10q-25 -47 -52.5 -115.5t-54.5 -150.5t-50 -168t-40.5 -167.5t-25.5 -148.5q9 21 19.5 47.5t23.5 56.5q27 62 61.5 134t72.5 145.5t77.5 141t77.5 120.5
q19 27 38.5 50.5t36.5 40.5t34.5 28.5t33.5 14.5q43 9 66 -14.5t33 -55.5z" />
    <glyph glyph-name="Ograve" unicode="&#xd2;" horiz-adv-x="1287" 
d="M936 912v0q5 0 8 -4l47 -74q3 -5 -3 -9.5t-9 0.5l-56 69q-4 6 1.5 12t11.5 6zM1156 674q47 -64 60.5 -159.5t-24.5 -208.5q-25 -79 -69 -153t-100 -129q-43 -41 -91 -69t-101 -38q-31 -6 -58.5 -3.5t-50.5 12.5q-42 18 -69 55.5t-39.5 88.5t-12.5 109.5t10 118.5
q10 54 29 109q-58 18 -119 41.5t-120 45.5q-70 26 -134 44t-115 18q-58 0 -89.5 -26.5t-45.5 -76.5q-2 -7 -9.5 -5t-5.5 9q15 55 50.5 85t99.5 30q54 0 119.5 -18.5t135.5 -44.5q59 -22 119.5 -45.5t118.5 -41.5q21 59 52 110t74 88q11 49 40 87.5t78 54.5q83 28 152.5 1
t114.5 -89zM894 747q-41 -14 -66.5 -43.5t-36.5 -67.5q22 16 47.5 25.5t59.5 11.5q59 5 92 -28.5t34 -85.5q2 -47 -23 -95.5t-73 -71.5q-51 -25 -118 -20t-135 24q-18 -51 -27 -105q-13 -76 -8 -146.5t29 -118.5q44 -75 115 -85t149 33q21 12 41 28t39 34q55 53 97.5 125
t67.5 150q36 110 23 201.5t-57 151.5q-43 59 -107.5 84t-142.5 -1zM852 627q-37 -14 -70 -47q-3 -59 20 -111q3 -6 -4 -10q-8 -3 -14 10t-10 32.5t-6 37.5t-2 24q-26 -30 -47.5 -69t-37.5 -83q68 -19 131 -23t109 18q38 18 60 54t27 75q3 41 -20 66.5t-59.5 33t-76.5 -7.5z
" />
    <glyph glyph-name="Oacute" unicode="&#xd3;" horiz-adv-x="1287" 
d="M1070 922v0q7 0 12.5 -6t0.5 -12l-55 -69q-4 -5 -9.5 -0.5t-3.5 9.5l48 74q2 4 7 4zM1156 674q47 -64 60.5 -159.5t-24.5 -208.5q-25 -79 -69 -153t-100 -129q-43 -41 -91 -69t-101 -38q-31 -6 -58.5 -3.5t-50.5 12.5q-42 18 -69 55.5t-39.5 88.5t-12.5 109.5t10 118.5
q10 54 29 109q-58 18 -119 41.5t-120 45.5q-70 25 -134 43.5t-115 18.5q-58 0 -89.5 -26.5t-45.5 -76.5q-2 -8 -9.5 -6t-5.5 10q15 55 50.5 85t99.5 30q54 0 119.5 -19t135.5 -44q59 -22 119.5 -45.5t118.5 -41.5q21 59 52 110t74 88q11 49 40 87t78 55q83 28 152.5 0.5
t114.5 -88.5zM894 747q-41 -14 -66.5 -43.5t-36.5 -67.5q22 16 47.5 25.5t59.5 11.5q59 4 92 -29t34 -85q2 -47 -23 -95.5t-73 -71.5q-51 -25 -118 -20t-135 24q-18 -51 -27 -105q-13 -76 -8 -146.5t29 -118.5q44 -75 115 -85.5t149 33.5q21 12 41 28t39 34q55 53 97.5 125
t67.5 150q36 110 23 201.5t-57 151.5q-43 58 -107.5 83.5t-142.5 -0.5zM852 627q-37 -14 -70 -47q-3 -59 20 -111q3 -6 -4 -10q-8 -3 -14 10t-10 32.5t-6 37.5t-2 24q-26 -30 -47.5 -69t-37.5 -83q68 -19 131 -23.5t109 18.5q38 18 60 54t27 75q3 40 -20 66t-59.5 33
t-76.5 -7z" />
    <glyph glyph-name="Ocircumflex" unicode="&#xd4;" horiz-adv-x="1287" 
d="M1034 930v0q8 -1 11 -6l42 -80q4 -8 -7 -13.5t-15 1.5l-33 62q-11 -14 -23 -28.5t-20.5 -25l-8.5 -10.5q-5 -6 -14.5 2t-4.5 14q11 13 25.5 31t26 32t13.5 17q3 4 8 4zM1156 674q47 -64 60.5 -159.5t-24.5 -208.5q-25 -79 -69 -153t-100 -129q-43 -41 -91 -69t-101 -38
q-31 -6 -58.5 -3.5t-50.5 12.5q-42 18 -69 55.5t-39.5 88.5t-12.5 109.5t10 118.5q10 54 29 109q-58 18 -119 41.5t-120 45.5q-70 25 -134 43.5t-115 18.5q-58 0 -89.5 -26.5t-45.5 -76.5q-2 -8 -9.5 -6t-5.5 10q15 55 50.5 85t99.5 30q54 0 119.5 -19t135.5 -44
q59 -22 119.5 -45.5t118.5 -41.5q21 59 52 110t74 88q11 49 40 87t78 55q83 28 152.5 0.5t114.5 -88.5zM894 747q-41 -14 -66.5 -43.5t-36.5 -67.5q22 16 47.5 25.5t59.5 11.5q59 4 92 -29t34 -85q2 -47 -23 -95.5t-73 -71.5q-51 -25 -118 -20t-135 24q-18 -51 -27 -105
q-13 -76 -8 -146.5t29 -118.5q44 -75 115 -85.5t149 33.5q21 12 41 28t39 34q55 53 97.5 125t67.5 150q36 110 23 201.5t-57 151.5q-43 58 -107.5 83.5t-142.5 -0.5zM852 627q-37 -14 -70 -47q-3 -59 20 -111q3 -6 -4 -10q-8 -3 -14 10t-10 32.5t-6 37.5t-2 24
q-26 -30 -47.5 -69t-37.5 -83q68 -19 131 -23.5t109 18.5q38 18 60 54t27 75q3 40 -20 66t-59.5 33t-76.5 -7z" />
    <glyph glyph-name="Otilde" unicode="&#xd5;" horiz-adv-x="1287" 
d="M970 885v0q18 0 33 -7.5t33 -8.5q7 -1 16 0t21 8q10 5 14.5 -3.5t-3.5 -14.5q-14 -8 -27.5 -11.5t-24.5 -3.5q-18 0 -34 6.5t-32.5 9t-36.5 -10.5q-8 -5 -13 3.5t4 14.5q27 18 50 18zM1156 674q46 -64 59.5 -159.5t-23.5 -208.5q-26 -79 -69.5 -153t-99.5 -129
q-43 -41 -91 -69t-101 -38q-32 -6 -59 -3.5t-50 12.5q-42 18 -69 55.5t-39.5 88.5t-13 109.5t10.5 118.5q10 54 29 109q-59 18 -120 41.5t-119 45.5q-70 26 -134 44t-115 18q-59 0 -90.5 -26.5t-44.5 -76.5q-2 -7 -9.5 -5t-5.5 9q15 55 50.5 85t99.5 30q54 0 119 -18.5
t136 -44.5q58 -22 119 -45.5t119 -41.5q21 59 52 110t74 88q10 49 39 87.5t79 54.5q82 28 152 1t115 -89zM894 747q-41 -14 -66.5 -43.5t-36.5 -67.5q22 16 47.5 25.5t59.5 11.5q59 5 91.5 -28.5t34.5 -85.5q1 -47 -23.5 -95.5t-72.5 -71.5q-51 -25 -118 -20t-135 24
q-18 -51 -27 -105q-14 -76 -8.5 -146.5t29.5 -118.5q43 -75 114.5 -85t149.5 33q21 12 41 28t39 34q55 53 97.5 125t67.5 150q36 110 23 201.5t-57 151.5q-43 59 -107.5 84t-142.5 -1zM852 627q-37 -14 -70 -47q-3 -59 20 -111q3 -6 -4 -10q-8 -3 -14 10t-10 32.5t-6 37.5
t-2 24q-26 -30 -47.5 -69t-37.5 -83q67 -19 130 -23t110 18q37 18 59.5 54t27.5 75q2 41 -20.5 66.5t-59.5 33t-76 -7.5z" />
    <glyph glyph-name="Odieresis" unicode="&#xd6;" horiz-adv-x="1287" 
d="M943 864v0q8 0 13 -6q5 -5 4 -14q-1 -7 -7 -13q-7 -6 -15 -6t-12 5q-6 6 -5 14q2 8 7 13q7 7 15 7zM1043 864q7 0 12 -6q6 -5 4 -14q-1 -7 -7 -13t-15 -6q-7 0 -12 5q-5 6 -4 14t7 13q7 7 15 7zM1156 674q47 -64 60.5 -159.5t-24.5 -208.5q-25 -79 -69 -153t-100 -129
q-43 -41 -91 -69t-101 -38q-31 -6 -58.5 -3.5t-50.5 12.5q-42 18 -69 55.5t-39.5 88.5t-12.5 109.5t10 118.5q10 54 29 109q-58 18 -119 41.5t-120 45.5q-70 25 -134 43.5t-115 18.5q-58 0 -89.5 -26.5t-45.5 -76.5q-2 -8 -9.5 -6t-5.5 10q15 55 50.5 85t99.5 30
q54 0 119.5 -19t135.5 -44q59 -22 119.5 -45.5t118.5 -41.5q21 59 52 110t74 88q11 49 40 87t78 55q83 28 152.5 0.5t114.5 -88.5zM894 747q-41 -14 -66.5 -43.5t-36.5 -67.5q22 16 47.5 25.5t59.5 11.5q59 4 92 -29t34 -85q2 -47 -23 -95.5t-73 -71.5q-51 -25 -118 -20
t-135 24q-18 -51 -27 -105q-13 -76 -8 -146.5t29 -118.5q44 -75 115 -85.5t149 33.5q21 12 41 28t39 34q55 53 97.5 125t67.5 150q36 110 23 201.5t-57 151.5q-43 58 -107.5 83.5t-142.5 -0.5zM852 627q-37 -14 -70 -47q-3 -59 20 -111q3 -6 -4 -10q-8 -3 -14 10t-10 32.5
t-6 37.5t-2 24q-26 -30 -47.5 -69t-37.5 -83q68 -19 131 -23.5t109 18.5q38 18 60 54t27 75q3 40 -20 66t-59.5 33t-76.5 -7z" />
    <glyph glyph-name="multiply" unicode="&#xd7;" horiz-adv-x="486" 
d="M141 422v0q7 0 11 -5l93 -111l129 112q4 4 9 4v0q13 -1 13 -14q0 -6 -4 -10l-130 -112l93 -111q4 -4 4 -9q0 -13 -14 -13q-6 0 -10 5l-93 110l-130 -112q-3 -3 -9 -3q-13 0 -13 13q0 6 5 10l129 113l-93 110q-3 4 -3 9q0 14 13 14z" />
    <glyph glyph-name="Oslash" unicode="&#xd8;" horiz-adv-x="1287" 
d="M852 627q-37 -14 -70 -47q-3 -59 20 -111q3 -6 -4 -10q-8 -3 -14 10t-10 32.5t-6 37.5t-2 24q-26 -30 -47.5 -69t-37.5 -83q68 -19 131 -23t109 18q38 18 60 54t27 75q3 41 -20 66.5t-60 33t-76 -7.5zM894 747v0q-41 -14 -66.5 -43.5t-36.5 -67.5q22 16 47.5 25.5
t59.5 11.5q59 5 92 -28.5t34 -85.5q1 -47 -23.5 -95.5t-72.5 -71.5q-51 -25 -118 -20t-135 24q-18 -51 -27 -105q-13 -76 -8 -146.5t29 -118.5q21 -36 49 -57q35 55 78 123.5t89.5 143.5t94 150.5t91 145t78.5 125.5q-2 4 -5 7q-43 58 -107.5 83.5t-142.5 -0.5zM1207 733h-1
q12 -2 10 -13q0 -2 -2 -5q-8 -12 -18.5 -29t-23.5 -37q38 -64 46 -152t-26 -191q-26 -79 -69.5 -153t-99.5 -129q-43 -41 -91 -69t-101 -38q-32 -6 -59 -3.5t-50 12.5q-1 0 -2 1q-22 -35 -34 -53q-4 -6 -12 -5q-11 2 -10 13q1 3 2 5q14 21 33 51q-47 30 -70.5 86.5t-27 128
t9.5 145.5q10 54 29 109q-58 18 -119 41.5t-120 45.5q-70 26 -134 44t-115 18q-58 0 -89.5 -26.5t-45.5 -76.5q-2 -7 -9.5 -5t-5.5 9q15 55 50.5 85t99.5 30q54 0 119.5 -18.5t135.5 -44.5q59 -22 119.5 -45.5t118.5 -41.5q21 59 52 110t74 88q11 49 40 87.5t78 54.5
q83 28 152.5 1t114.5 -89q1 -2 2 -3q21 33 37 57q4 6 11 5h1zM738 -44v0q42 -22 92 -16.5t103 34.5q21 12 41 28t39 34q55 53 97.5 125t67.5 150q32 97 25 180t-40 143q-33 -53 -76 -121.5t-90.5 -144.5t-94.5 -151.5t-89.5 -143t-74.5 -117.5z" />
    <glyph glyph-name="Ugrave" unicode="&#xd9;" horiz-adv-x="1032" 
d="M790 913v0q4 0 7 -4l47 -75q3 -4 -2.5 -8.5t-9.5 0.5l-56 69q-4 6 1.5 12t12.5 6zM680 740q-19 -28 -45.5 -76.5t-56 -110t-57.5 -129t-51.5 -134t-37.5 -124.5q-9 -37 -14 -68t-4 -54q3 -98 77 -67q4 2 7 3t7 3q38 22 85 70.5t96 112.5t98 135.5t96 144t90 138.5t80 119
q8 11 18.5 9t16.5 -11t-2 -20q-42 -60 -81 -139.5t-73 -165t-62 -164.5q-28 -80 -52 -163.5t-20 -173.5q2 -12 -4.5 -16t-14 -1t-10.5 11q-4 33 0 77t15 96q17 78 43 160.5t57.5 162.5t62.5 148q-57 -88 -120 -183t-125 -175q-49 -64 -96 -113t-89 -73q-19 -11 -49 -18.5
t-53 5.5q-21 12 -29 35.5t-9 51.5t4.5 61.5t15.5 71.5q16 65 41.5 138t56 145t62 136.5t59.5 112.5q-41 -34 -96 -71t-116 -70.5t-121 -58.5q-55 -22 -106 -34t-90 -6q-43 7 -63.5 36.5t-15.5 81.5q0 8 9 8q8 0 8 -9v-1q-4 -46 11.5 -70t52.5 -30q35 -5 84 6t104 33
q54 23 110 53t107.5 63.5t92.5 66t65 59.5q9 10 19 7t15 -12t-3 -20z" />
    <glyph glyph-name="Uacute" unicode="&#xda;" horiz-adv-x="1032" 
d="M900 920v0q6 0 12 -6t1 -12l-55 -69q-4 -4 -10 0.5t-3 8.5l48 75q2 3 7 3zM680 740q-20 -28 -46 -76.5t-55.5 -110t-57.5 -129t-51.5 -134t-37.5 -124.5q-9 -37 -14 -68t-4 -54q3 -98 77 -67q4 2 7 3t7 3q38 22 85 70.5t96 112.5t98 135.5t96 144t90 138.5t80 119
q7 11 18 9t17 -11t-2 -20q-42 -60 -81 -139.5t-73.5 -165t-61.5 -164.5q-28 -80 -52.5 -163.5t-19.5 -173.5q2 -12 -4.5 -16t-14.5 -1t-10 11q-5 33 -0.5 77t15.5 96q16 78 42.5 160.5t57.5 162.5t63 148q-57 -88 -120 -183t-125 -175q-50 -64 -96.5 -113t-88.5 -73
q-19 -11 -49 -18.5t-53 5.5q-21 12 -29 35.5t-9 51.5t4.5 61.5t15.5 71.5q16 65 41.5 138t56 145t62 136.5t59.5 112.5q-41 -34 -96 -71t-116.5 -70.5t-120.5 -58.5q-56 -22 -106.5 -34t-89.5 -6q-43 7 -63.5 36.5t-15.5 81.5q0 8 9 8q8 0 8 -9v-1q-5 -46 11 -70t53 -30
q34 -5 83.5 6t104.5 33q54 23 110 53t107.5 63.5t92.5 66t65 59.5q8 10 18.5 7t15 -12t-2.5 -20z" />
    <glyph glyph-name="Ucircumflex" unicode="&#xdb;" horiz-adv-x="1032" 
d="M884 931v0q7 -1 10 -6l42 -80q4 -8 -7 -13.5t-15 1.5l-32 62q-12 -14 -24 -28.5t-20 -25l-8 -10.5q-6 -7 -15.5 1t-4.5 15q11 13 25.5 30.5t26 32t14.5 17.5q2 4 8 4zM680 740q-19 -28 -45.5 -76.5t-56 -110t-57.5 -129t-51.5 -134t-37.5 -124.5q-9 -37 -14 -68t-4 -54
q3 -98 77 -67q4 1 7 2.5l7 3.5q38 22 85 70.5t96 112.5t98 135.5t96 144t90 138.5t80 119q8 10 18.5 8t16.5 -11t-2 -19q-42 -61 -81 -140.5t-73 -165t-62 -163.5q-28 -80 -52 -163.5t-20 -173.5q2 -12 -4.5 -16t-14 -1.5t-10.5 11.5q-4 33 0 76.5t15 96.5q17 78 43 160.5
t57.5 162t62.5 148.5q-57 -88 -120 -183t-125 -175q-49 -65 -96 -113.5t-89 -72.5q-19 -11 -49 -19t-53 6q-21 12 -29 35.5t-9 51.5t4.5 61.5t15.5 71.5q16 65 41.5 138t56 145t62 136.5t59.5 112.5q-41 -35 -96 -71.5t-116 -70.5t-121 -58q-55 -23 -106 -34.5t-90 -5.5
q-43 7 -63.5 36.5t-15.5 81.5q0 8 9 8q8 0 8 -9v-1q-4 -46 11.5 -70t52.5 -30q35 -5 84 5.5t104 33.5q54 22 110 52.5t107.5 64t92.5 66t65 59.5q9 9 19 6.5t15 -12t-3 -19.5z" />
    <glyph glyph-name="Udieresis" unicode="&#xdc;" horiz-adv-x="1032" 
d="M818 861v0q8 0 13 -5q5 -6 4 -14q-1 -7 -7 -13q-7 -6 -15 -6t-13 5q-5 6 -4 14t7 13q7 6 15 6zM918 861v0q7 0 12 -5q5 -6 4 -14q-1 -7 -7 -13t-15 -6q-7 0 -12 5q-5 6 -4 14t7 13q6 6 15 6zM680 740q-19 -28 -45.5 -76.5t-56 -110t-57.5 -129t-51.5 -134t-37.5 -124.5
q-9 -37 -14 -68t-4 -54q3 -98 77 -67q4 2 7 3t7 3q38 22 85 70.5t96 112.5t98 135.5t96 144t90 138.5t80 119q8 11 18.5 9t16.5 -11t-2 -20q-42 -60 -81 -139.5t-73 -165t-62 -164.5q-28 -80 -52 -163.5t-20 -173.5q2 -12 -4.5 -16t-14 -1t-10.5 11q-4 33 0 77t15 96
q17 78 43 160.5t57.5 162.5t62.5 148q-57 -88 -120 -183t-125 -175q-49 -64 -96 -113t-89 -73q-19 -11 -49 -18.5t-53 5.5q-21 12 -29 35.5t-9 51.5t4.5 61.5t15.5 71.5q16 65 41.5 138t56 145t62 136.5t59.5 112.5q-41 -34 -96 -71t-116 -70.5t-121 -58.5q-55 -22 -106 -34
t-90 -6q-43 7 -63.5 36.5t-15.5 81.5q0 8 9 8q8 0 8 -9v-1q-4 -46 11.5 -70t52.5 -30q35 -5 84 6t104 33q54 23 110 53t107.5 63.5t92.5 66t65 59.5q9 10 19 7t15 -12t-3 -20z" />
    <glyph glyph-name="Yacute" unicode="&#xdd;" horiz-adv-x="1150" 
d="M881 929v0q6 0 12 -6.5t1 -11.5l-55 -69q-4 -5 -10 -0.5t-3 8.5l48 75q2 4 7 4zM806 -8q-122 -38 -219 -95.5t-156 -122.5q-64 -70 -77 -137q-12 -66 29 -122q9 -11 22 -20t33 -9q39 0 66.5 21.5t46.5 41.5q31 32 57 74q19 30 39.5 59t36.5 57q39 66 67.5 127.5
t54.5 125.5zM628 774q13 0 18.5 -10t-1.5 -21q-19 -28 -41 -71.5t-44 -96.5t-40.5 -109t-31 -110t-15.5 -98q-2 -28 0.5 -50.5t8.5 -37.5t18 -27.5t28 -14.5q25 -4 46 3t41 20q19 13 39.5 30t40.5 37q57 56 113 133.5t104 165t81 171.5q1 3 6 5q7 7 16 7q11 0 17.5 -8.5
t3.5 -19.5l-99 -408q-13 -53 -30 -110t-43 -126q52 22 109.5 51.5t108.5 70.5t84 96q2 5 8 5q8 0 8 -9q0 -3 -1 -4q-37 -61 -92.5 -105t-117 -74.5t-114.5 -52.5q-38 -100 -95.5 -211t-139.5 -223h-1q-35 -46 -70 -71t-67 -33q-37 -9 -66.5 1t-45.5 31q-40 50 -40 101.5
t25 99t61 85.5q63 69 165.5 128t230.5 98q14 37 28.5 82t27.5 90.5t22 83.5l81 330q-35 -73 -78 -144.5t-91 -135t-97 -112.5q-43 -43 -85 -70.5t-81 -33.5q-47 -7 -71 15t-32 60.5t-5 82.5q4 53 18 113.5t35 122.5t45.5 119t48.5 101q-40 -31 -92.5 -61t-111 -54.5
t-115.5 -38.5q-54 -13 -102 -14.5t-84.5 12t-55.5 45.5t-14 86q0 8 9 8t9 -8l-1 -1q-5 -50 12.5 -78.5t51.5 -39.5t78 -8.5t93 14.5q51 13 103.5 34.5t101.5 47.5t88 54.5t63 54.5q5 5 15 5z" />
    <glyph glyph-name="Thorn" unicode="&#xde;" horiz-adv-x="982" 
d="M796 688v0q-8 0 -17 -1t-17 -4q-76 -23 -133 -96.5t-105 -176.5q-17 -37 -33.5 -77.5t-32.5 -82.5q24 -29 67.5 -46t95.5 -17q8 -1 18 0q56 6 104 35t84 73t59 95.5t31 102.5t-1.5 93.5t-38.5 69.5q-15 13 -35 22.5t-46 9.5zM563 769v0h1q10 -1 16 -8.5t3 -17.5
q-30 -106 -59.5 -218t-58.5 -215q11 28 22 54.5t23 51.5q48 105 107 181t140 101q31 9 59 9q45 0 77 -24q25 -19 39.5 -48.5t19.5 -65.5q6 -48 -5 -103.5t-39 -110.5t-74 -101q-44 -44 -101 -64t-113 -19q-51 0 -95.5 16.5t-72.5 45.5q-14 -37 -28 -75.5t-28 -76.5
q-19 -56 -37.5 -98.5t-36.5 -68.5q-7 -8 -16.5 -6.5t-14 10t3.5 20.5q23 33 51.5 119.5t61.5 200.5q30 103 61 219t62 229q-17 -17 -39 -27t-47 -16q-40 -10 -85.5 -11.5t-90.5 -3.5q-46 -1 -88.5 -6t-76.5 -19q-34 -15 -56.5 -42t-28.5 -75q-1 -9 -10 -7q-9 1 -7 9
q7 52 32.5 83.5t62.5 47.5q37 15 81 20t90 6q46 2 91 3.5t82 10.5q38 9 65.5 27.5t40.5 54.5q1 5 6.5 6.5t9.5 1.5z" />
    <glyph glyph-name="germandbls" unicode="&#xdf;" horiz-adv-x="709" 
d="M403 761v0q5 0 13 -1q43 -6 78 -43t40 -98q3 -31 -4.5 -59.5t-21.5 -52.5t-34 -44q-2 -3 -6 -7q3 -2 7 -4q37 -23 68.5 -62t43.5 -95l1 -3q4 -26 4 -54t-6 -59q-5 -21 -13 -42q-21 -52 -60.5 -95t-90 -74t-106.5 -48q-46 -14 -93.5 -16.5t-89.5 8.5q-42 12 -76 39t-53 71
q-4 8 4 12q8 3 11 -5q18 -41 49 -65.5t70 -34.5q39 -11 84 -9.5t89 16.5q55 19 103 59t81 91t43 101q36 167 -65 246q-5 4 -9 6t-11 6q-4 2 -6 7.5t6 13.5l4.5 4.5l4.5 4.5q18 19 31 40q13 23 20 48.5t4 53.5q-1 20 -6 38t-15 31q-19 26 -46 35.5t-54.5 4t-48.5 -24.5
t-28 -49q-5 -20 -9.5 -40.5t-9.5 -41.5q-11 -42 -22 -84.5t-23 -84.5q-23 -85 -47 -165.5t-45 -147.5q-3 -10 -12.5 -13t-16.5 2.5t-5 20.5q24 76 50.5 168.5t52 189.5t45.5 188v0q15 60 50.5 88.5t75.5 28.5z" />
    <glyph glyph-name="agrave" unicode="&#xe0;" horiz-adv-x="542" 
d="M132 460v0q5 0 7 -4l48 -75q3 -4 -3 -8.5t-10 0.5l-55 69q-5 6 1 12t12 6zM144 312q-26 0 -59 -28t-53 -73q-13 -27 -18.5 -55t-5.5 -52q0 -25 6.5 -42.5t22.5 -17.5q13 0 31 15t36 38.5t34 48.5t27 44q4 11 8 21l8 20q7 18 7 36q0 16 -10 30.5t-34 14.5zM-12 218
q14 34 39.5 59.5t55 39.5t54.5 14q29 0 45 -15t20 -37q4 9 8.5 17.5t8.5 15.5q4 6 13 6t18 -6t9 -15q0 -5 -2 -8q-17 -31 -35.5 -72t-34.5 -85t-26.5 -85.5t-11.5 -74.5q0 -24 13.5 -33t32.5 -9q14 0 29 3q25 6 48 19t45 27q73 52 131.5 121t105.5 145q4 6 10 3t6 -8
q0 -2 -2 -4q-49 -76 -107.5 -147t-133.5 -124q-31 -21 -67 -38t-76 -17h-3q-35 2 -49 26.5t-14 60.5q0 27 6 58t15 60q-23 -34 -50.5 -62t-51.5 -28q-36 0 -51.5 30.5t-15.5 67.5q0 23 4 47.5t14 47.5z" />
    <glyph glyph-name="aacute" unicode="&#xe1;" horiz-adv-x="542" 
d="M-12 218q14 34 39.5 59.5t55 39.5t54.5 14q29 0 45 -15t20 -37q4 9 8.5 17t8.5 16q4 6 13 6t18 -6t9 -15q0 -5 -2 -8q-17 -31 -35.5 -72t-34.5 -85t-26.5 -85.5t-11.5 -74.5q0 -24 13.5 -33t32.5 -9q14 0 29 3q25 6 48 19t45 27q73 52 131.5 121t105.5 145q4 6 10 3t6 -8
q0 -2 -2 -4q-49 -76 -107.5 -147t-133.5 -124q-31 -21 -67 -38t-76 -17h-3q-35 2 -49 26.5t-14 60.5q0 27 6 58t15 60q-23 -35 -50.5 -62.5t-51.5 -27.5q-36 0 -51.5 30.5t-15.5 67.5q0 23 4 47.5t14 47.5zM144 312q-26 0 -59 -28t-53 -73q-13 -27 -18.5 -55t-5.5 -52
q0 -25 6.5 -42.5t22.5 -17.5q13 0 31 15t36 38.5t34 48t27 44.5q4 10 8 20.5t8 20.5q7 17 7 36q0 16 -10 30.5t-34 14.5zM233 456v0q4 6 10.5 4t10.5 -7.5t0 -10.5q-8 -10 -21.5 -26.5t-24 -29.5l-10.5 -13q-3 -5 -9 -0.5t-3 8.5z" />
    <glyph glyph-name="acircumflex" unicode="&#xe2;" horiz-adv-x="542" 
d="M176 466v0q8 0 10 -5l43 -80q4 -8 -7 -14t-15 2l-33 62q-11 -14 -23 -29t-20.5 -25l-8.5 -10q-5 -7 -15 1t-4 15q11 13 25 30.5t26 32t14 17.5q2 4 8 3zM144 312q-26 0 -59.5 -28t-52.5 -73q-13 -27 -18.5 -55t-5.5 -52q0 -25 6.5 -42.5t22.5 -17.5q13 0 31 15t36 38.5
t34 48t27 44.5q4 10 8 20.5t8 20.5q7 17 7 36q0 16 -10 30.5t-34 14.5zM-12 218q14 34 39.5 59.5t54.5 39.5t55 14q29 0 44.5 -15t20.5 -37q4 9 8.5 17t8.5 16q4 6 13 6t18 -6t9 -15q0 -5 -2 -8q-17 -32 -35.5 -72.5t-34.5 -84.5t-26.5 -85.5t-11.5 -74.5q0 -24 13.5 -33
t32.5 -9q14 0 29 3q25 6 48 19t45 27q73 52 131.5 121t105.5 145q4 6 10 3t6 -8q0 -2 -2 -4q-49 -77 -107.5 -147.5t-133.5 -123.5q-31 -21 -67 -38t-76 -17h-3q-35 1 -49 26t-14 61q0 27 6 58t15 60q-23 -35 -50.5 -62.5t-51.5 -27.5q-36 0 -51.5 30.5t-15.5 67.5
q0 22 4 47t14 48z" />
    <glyph glyph-name="atilde" unicode="&#xe3;" horiz-adv-x="542" 
d="M130 424v0q17 0 32.5 -7t32.5 -9q7 -1 16.5 0t21.5 8q9 6 14 -3t-3 -14q-14 -9 -27.5 -12t-24.5 -4q-18 0 -34 7t-32.5 9t-36.5 -11q-8 -4 -13 4.5t4 14.5q27 17 50 17zM144 312q-25 0 -58.5 -28t-53.5 -73q-13 -27 -18.5 -55t-5.5 -52q0 -25 6.5 -42.5t22.5 -17.5
q14 0 31.5 15t35.5 38.5t34.5 48t26.5 44.5q4 10 8 20.5t8 20.5q7 17 7 36q0 16 -10 30.5t-34 14.5zM-12 218v0q14 34 39.5 59.5t55 39.5t54.5 14q29 0 45 -15t20 -37q5 9 9 17l8 16q4 6 13 6t18 -6t9 -15q0 -5 -2 -8q-17 -32 -35.5 -72.5t-34.5 -84.5t-26.5 -85.5
t-11.5 -74.5q0 -24 13.5 -33t32.5 -9q14 0 29 3q25 6 48 19t45 27q73 52 131.5 121t105.5 145q4 6 10 3t6 -8q0 -2 -2 -4q-49 -77 -107.5 -147.5t-133.5 -123.5q-31 -21 -67 -38t-76 -17h-3q-35 1 -49 26t-14 61q0 27 6 58t15 60q-22 -35 -50 -62.5t-52 -27.5
q-36 0 -51.5 30.5t-15.5 67.5q0 22 4 47t14 48z" />
    <glyph glyph-name="adieresis" unicode="&#xe4;" horiz-adv-x="542" 
d="M141 427v0q7 0 12 -5q5 -6 4 -14t-7 -13q-6 -6 -15 -6q-7 0 -12 5q-5 6 -4 14t7 13q6 6 15 6zM202 427v0q8 0 13 -5q5 -6 4 -14t-7 -13q-7 -6 -15 -6t-12 5q-6 6 -5 14q2 8 7 13q7 6 15 6zM144 312q-25 0 -58.5 -28t-53.5 -73q-13 -27 -18.5 -55t-5.5 -52
q0 -25 6.5 -42.5t22.5 -17.5q14 0 31.5 15t35.5 38.5t34.5 48t26.5 44.5q4 10 8 20.5t8 20.5q7 17 7 36q0 16 -10 30.5t-34 14.5zM-12 218v0q14 34 39.5 59.5t55 39.5t54.5 14q29 0 45 -15t20 -37q5 9 9 17l8 16q4 6 13 6t18 -6t9 -15q0 -5 -2 -8q-17 -32 -35.5 -72.5
t-34.5 -84.5t-26.5 -85.5t-11.5 -74.5q0 -24 13.5 -33t32.5 -9q14 0 29 3q25 6 48 19t45 27q73 52 131.5 121t105.5 145q4 6 10 3t6 -8q0 -2 -2 -4q-49 -77 -107.5 -147.5t-133.5 -123.5q-31 -21 -67 -38t-76 -17h-3q-35 1 -49 26t-14 61q0 27 6 58t15 60q-22 -35 -50 -62.5
t-52 -27.5q-36 0 -51.5 30.5t-15.5 67.5q0 22 4 47t14 48z" />
    <glyph glyph-name="aring" unicode="&#xe5;" horiz-adv-x="542" 
d="M144 312q-26 0 -59 -28t-53 -73q-13 -27 -18.5 -55t-5.5 -52q0 -25 6.5 -42.5t22.5 -17.5q13 0 31 15t36 38.5t34 48t27 44.5q4 10 8 20.5t8 20.5q7 17 7 36q0 16 -10 30.5t-34 14.5zM-12 218q14 34 39.5 59.5t55 39.5t54.5 14q29 0 45 -15t20 -37q4 9 8.5 17t8.5 16
q4 6 13 6t18 -6t9 -15q0 -5 -2 -8q-17 -31 -35.5 -72t-34.5 -85t-26.5 -85.5t-11.5 -74.5q0 -24 13.5 -33t32.5 -9q14 0 29 3q25 6 48 19t45 27q73 52 131.5 121t105.5 145q4 6 10 3t6 -8q0 -2 -2 -4q-49 -76 -107.5 -147t-133.5 -124q-31 -21 -67 -38t-76 -17h-3
q-35 2 -49 26.5t-14 60.5q0 27 6 58t15 60q-23 -35 -50.5 -62.5t-51.5 -27.5q-36 0 -51.5 30.5t-15.5 67.5q0 23 4 47.5t14 47.5z" />
    <glyph glyph-name="ae" unicode="&#xe6;" horiz-adv-x="599" 
d="M137 330v0q29 0 44.5 -15t20.5 -37q1 -7 2 -17q29 35 63 52t65 17q32 0 47.5 -18t15.5 -45q0 -3 -0.5 -6t-0.5 -6q-1 -12 -7 -25t-11 -23q-17 -29 -47.5 -51t-68 -35.5t-75.5 -17.5q-2 -12 -3 -23t-1 -21q0 -45 17 -73t43 -37q13 -4 31 -4q23 0 48 8.5t53 27.5
q71 48 130.5 119t106.5 146q4 6 10 3.5t6 -8.5q0 -1 -2 -5q-48 -76 -107.5 -147.5t-133.5 -121.5q-59 -39 -112 -39q-21 0 -40 5.5t-35 17.5q-31 22 -44.5 54.5t-13.5 70.5q0 21 4 44q-2 -4 -3 -5q-23 -35 -50.5 -62.5t-51.5 -27.5q-36 0 -51.5 30.5t-15.5 67.5q0 22 4 46.5
t14 47.5q14 34 39 59.5t54.5 39.5t55.5 14zM144 311v0q-26 0 -59.5 -28t-52.5 -72q-13 -27 -18.5 -55t-5.5 -52q0 -25 6.5 -42.5t22.5 -17.5q12 0 28.5 13.5t34 35t33.5 45.5t27 43q6 15 13 30l4 10t4 9q7 18 7 36q0 16 -10 30.5t-34 14.5zM338 311q-25 0 -57.5 -29.5
t-58.5 -76.5q-12 -23 -20 -44t-13 -40q41 6 81.5 22t69.5 44t37 68q1 3 1 6v6q0 15 -8.5 29.5t-31.5 14.5z" />
    <glyph glyph-name="ccedilla" unicode="&#xe7;" horiz-adv-x="416" 
d="M444 242v0q0 -3 -2 -5q-48 -77 -107.5 -148.5t-133.5 -121.5q-59 -39 -111 -39h-6l-9 -16q18 -5 27 -15q14 -15 6 -32q-7 -16 -26 -22.5t-45 -1.5q-9 2 -9 11q0 10 11 10h2q21 -4 33 1.5t14 9.5q2 5 -2 10q-3 3 -10 6.5t-18 5.5q-9 1 -9 10q0 3 1 5l11 21q-27 5 -47 20
q-31 22 -44 54.5t-13 70.5q0 35 10.5 72t26.5 70q31 58 74 85.5t82 27.5q32 0 47.5 -18.5t15.5 -44.5q0 -29 -19 -61q-3 -5 -10.5 -1t-0.5 15q4 6 9 20t5 30q0 13 -7 25t-25 16q-2 1 -4.5 0.5t-4.5 -0.5q-26 0 -58 -29.5t-57 -77.5q-23 -43 -33 -80t-10 -69q0 -38 12.5 -64
t33.5 -38q21 -9 46 -9q22 0 48 8.5t54 27.5q71 49 130.5 119.5t106.5 146.5q2 4 7 4q8 0 8 -9z" />
    <glyph glyph-name="egrave" unicode="&#xe8;" horiz-adv-x="414" 
d="M116 460v0q5 0 7 -4l48 -75q3 -4 -3 -8.5t-10 0.5l-55 69q-5 6 1 12t12 6zM154 312q-25 0 -57.5 -29.5t-58.5 -77.5q-12 -22 -20 -43t-13 -41q41 6 81.5 22.5t70 44.5t36.5 68q1 3 1 6v6q0 15 -8.5 29.5t-31.5 14.5zM-8 218q31 59 74 86t82 27q32 0 47.5 -18.5
t15.5 -44.5q0 -3 -0.5 -6t-0.5 -6q-1 -12 -7 -25t-11 -24q-17 -29 -47.5 -50.5t-68 -35t-75.5 -18.5q-2 -12 -3 -22.5t-1 -21.5q0 -44 17 -72.5t43 -37.5q13 -4 31 -4q23 0 48 8.5t53 27.5q71 49 130.5 119.5t106.5 146.5q4 6 10 3.5t6 -8.5q0 -1 -2 -5q-48 -76 -107.5 -148
t-133.5 -122q-58 -39 -112 -39q-21 0 -40 5.5t-35 17.5q-31 22 -44.5 55t-13.5 70q0 35 11 72t27 70z" />
    <glyph glyph-name="eacute" unicode="&#xe9;" horiz-adv-x="414" 
d="M-8 218q31 58 74 85.5t82 27.5q32 0 47.5 -18.5t15.5 -44.5q0 -3 -0.5 -6t-0.5 -6q-2 -12 -7.5 -25t-10.5 -24q-17 -29 -47.5 -50.5t-68.5 -35t-75 -18.5q-2 -12 -3 -22.5t-1 -21.5q0 -44 17 -72.5t43 -37.5q13 -4 31 -4q22 0 47.5 8.5t53.5 27.5q71 49 130.5 119.5
t106.5 146.5q4 6 10 3.5t6 -8.5q0 -1 -2 -5q-48 -77 -107.5 -148.5t-133.5 -121.5q-59 -39 -112 -39q-21 0 -40 5.5t-35 17.5q-31 22 -44.5 54.5t-13.5 70.5q0 35 11 72t27 70zM154 312q-26 0 -58 -29.5t-58 -77.5q-12 -23 -20 -44t-13 -40q41 6 81 22.5t70 44.5t37 68
q1 3 1 6v6q0 15 -9 29.5t-31 14.5zM214 456v0q4 6 10.5 4t10.5 -7.5t0 -10.5q-8 -10 -21.5 -26.5t-24 -29.5l-10.5 -13q-3 -5 -9 -0.5t-3 8.5z" />
    <glyph glyph-name="ecircumflex" unicode="&#xea;" horiz-adv-x="414" 
d="M176 466v0q8 0 10 -5l43 -80q4 -8 -7 -14t-15 2l-33 62q-11 -14 -23 -29t-20.5 -25l-8.5 -10q-5 -7 -15 1t-4 15q11 13 25 30.5t26 32t14 17.5q2 4 8 3zM154 312q-26 0 -58.5 -29.5t-57.5 -77.5q-12 -23 -20 -44t-13 -40q40 6 80.5 22.5t70 44t37.5 68.5q1 3 1 6v6
q0 15 -9 29.5t-31 14.5zM-8 218q31 58 74 85.5t82 27.5q32 0 47.5 -18.5t15.5 -44.5q0 -3 -0.5 -6t-0.5 -6q-2 -12 -7.5 -25.5t-10.5 -23.5q-17 -29 -47.5 -50.5t-68.5 -35.5t-75 -18q-2 -12 -3 -23t-1 -21q0 -44 17 -72.5t43 -37.5q13 -4 31 -4q22 0 47.5 8.5t53.5 27.5
q71 49 130.5 119.5t106.5 146.5q4 6 10 3.5t6 -8.5q0 -1 -2 -5q-48 -77 -107.5 -148.5t-133.5 -121.5q-59 -39 -112 -39q-21 0 -40 5.5t-35 17.5q-31 22 -44.5 54.5t-13.5 70.5q0 35 10.5 72t27.5 70z" />
    <glyph glyph-name="edieresis" unicode="&#xeb;" horiz-adv-x="414" 
d="M119 424v0q7 0 12 -5q5 -6 4 -14t-7 -13q-6 -6 -15 -6q-7 0 -12 5q-5 6 -4 14t7 13q6 6 15 6zM180 424v0q8 0 13 -5q5 -6 4 -14t-7 -13q-7 -6 -15 -6t-12 5q-6 6 -5 14q2 8 7 13q7 6 15 6zM154 312q-25 0 -57.5 -29.5t-58.5 -77.5q-12 -23 -20 -44t-13 -40
q41 6 81.5 22.5t70 44t36.5 68.5q1 3 1 6v6q0 15 -8.5 29.5t-31.5 14.5zM-8 218q31 58 74 85.5t82 27.5q32 0 47.5 -18.5t15.5 -44.5q0 -3 -0.5 -6t-0.5 -6q-1 -12 -7 -25.5t-11 -23.5q-17 -29 -47.5 -50.5t-68 -35.5t-75.5 -18q-2 -12 -3 -23t-1 -21q0 -44 17 -72.5
t43 -37.5q13 -4 31 -4q23 0 48 8.5t53 27.5q71 49 130.5 119.5t106.5 146.5q4 6 10 3.5t6 -8.5q0 -1 -2 -5q-48 -77 -107.5 -148.5t-133.5 -121.5q-58 -39 -112 -39q-21 0 -40 5.5t-35 17.5q-31 22 -44.5 54.5t-13.5 70.5q0 35 11 72t27 70z" />
    <glyph glyph-name="igrave" unicode="&#xec;" horiz-adv-x="367" 
d="M46 456v0q5 0 7 -4l48 -75q3 -4 -3 -8.5t-10 0.5l-55 69q-5 6 1 12t12 6zM89 309l-9 -17q-18 -34 -40 -79t-40 -92t-26 -88q0 -3 -0.5 -6t-0.5 -6q0 -23 16 -32.5t36 -9.5q6 0 10 1q23 2 51.5 14.5t58.5 30.5q46 27 91.5 64.5t83 78.5t58.5 78q3 5 8 5q8 0 8 -9
q0 -3 -1 -4q-23 -39 -61.5 -81.5t-84.5 -80.5t-93 -66q-36 -21 -70.5 -35t-65.5 -14q-26 0 -44 12q-16 11 -22 27.5t-6 34.5q0 16 3.5 32.5t7.5 31.5q13 46 30.5 91t34.5 81t27 54q4 7 14 7q9 0 18.5 -5.5t9.5 -12.5q0 -1 -2 -5z" />
    <glyph glyph-name="iacute" unicode="&#xed;" horiz-adv-x="367" 
d="M89 309l-9 -17q-18 -34 -40 -79t-40 -92t-26 -88q0 -3 -0.5 -6t-0.5 -6q0 -23 16 -32.5t36 -9.5q6 0 10 1q23 2 51.5 14.5t58.5 30.5q45 27 91 64.5t83 78.5t59 78q3 5 8 5q8 0 8 -9q0 -3 -1 -4q-23 -40 -61.5 -82t-85 -80t-92.5 -66q-36 -21 -70.5 -35t-65.5 -14
q-26 0 -44 12q-16 11 -22 27.5t-6 34.5q0 16 3.5 32.5t7.5 31.5q13 46 30.5 91t34 81t27.5 54q4 7 14 7q9 0 18.5 -5.5t9.5 -12.5q0 -1 -2 -5zM141 460v0q6 0 11.5 -6t1.5 -12q-8 -10 -21.5 -26.5t-24 -29.5l-10.5 -13q-3 -5 -9 -0.5t-3 8.5l47 75q3 4 8 4z" />
    <glyph glyph-name="icircumflex" unicode="&#xee;" horiz-adv-x="367" 
d="M95 466v0q8 0 10 -5l43 -80q4 -8 -7 -14t-15 2l-33 62q-11 -14 -23 -29t-20.5 -25l-8.5 -10q-5 -7 -15 1t-4 15q11 13 25 30.5t26 32t14 17.5q2 4 8 3zM89 309l-9 -17q-18 -34 -40 -79t-40 -92t-26 -88q0 -3 -0.5 -6t-0.5 -6q0 -23 16 -32.5t36 -9.5q6 0 10 1
q23 2 51.5 14.5t58.5 30.5q46 27 91.5 64.5t83 78.5t58.5 78q3 5 8 5q8 0 8 -9q0 -3 -1 -4q-23 -40 -61.5 -82t-84.5 -80t-93 -66q-36 -21 -70.5 -35t-65.5 -14q-26 0 -44 12q-16 11 -22 27.5t-6 34.5q0 16 3.5 32.5t7.5 31.5q13 46 30.5 91t34.5 81t27 54q4 7 14 7
q9 0 18.5 -5.5t9.5 -12.5q0 -1 -2 -5z" />
    <glyph glyph-name="idieresis" unicode="&#xef;" horiz-adv-x="367" 
d="M68 424v0q7 0 12 -5q5 -6 4 -14t-7 -13q-6 -6 -15 -6q-7 0 -12 5q-5 6 -4 14t7 13q6 6 15 6zM129 424v0q8 0 13 -5q5 -6 4 -14t-7 -13q-7 -6 -15 -6t-12 5q-6 6 -5 14q2 8 7 13q7 6 15 6zM89 309l-9 -17q-19 -34 -40.5 -79t-40 -92t-25.5 -88q0 -3 -0.5 -6t-0.5 -6
q0 -23 16 -32.5t36 -9.5q6 0 10 1q23 2 51.5 14.5t58.5 30.5q45 27 90.5 64.5t83 78.5t59.5 78q3 5 8 5q8 0 8 -9q0 -3 -1 -4q-23 -40 -61.5 -82t-85 -80t-92.5 -66q-36 -21 -70.5 -35t-65.5 -14q-26 0 -44 12q-16 11 -22 27.5t-6 34.5q0 16 3.5 32.5t7.5 31.5q12 46 30 91
t34.5 81t27.5 54q4 7 14 7q9 0 18.5 -5.5t9.5 -12.5q0 -1 -2 -5z" />
    <glyph glyph-name="eth" unicode="&#xf0;" horiz-adv-x="548" 
d="M183 441v0q7 1 13 -4q21 -16 35 -35l27 15q2 1 4 1v0q9 0 9 -9q0 -5 -5 -7l-26 -14q19 -35 14 -74q-3 -29 -15 -59.5t-26 -65.5q-17 -40 -32.5 -80.5t-22.5 -75.5q-6 -33 15 -44.5t46 -8.5q23 2 51.5 14.5t58.5 30.5q46 27 91.5 64.5t83 78.5t58.5 78q3 5 8 5t7 -4.5
t0 -8.5q-23 -39 -61.5 -81t-84.5 -80.5t-93 -66.5q-36 -21 -69 -34t-61 -14q-31 -2 -50 11q-20 15 -25 36t-1.5 45t9.5 45q3 9 6 19q-18 -24 -37.5 -45.5t-38.5 -34.5t-35 -12q-36 5 -51 35t-12.5 73t19.5 84q14 37 41.5 63t58.5 39t58 10q26 -3 39 -18t15 -38q4 11 6.5 22
t4.5 22q2 15 0.5 27.5t-8.5 24.5l-33 -18q-2 -1 -4 -1q-9 0 -9 8q0 5 5 8l31 17q-10 11 -25 22q-11 8 -7 21.5t18 13.5zM148 312v0q-26 1 -59 -27.5t-53 -73.5q-17 -36 -23 -73.5t0 -64t24 -29.5q12 -1 29.5 12.5t36.5 35.5t36.5 47t29.5 46q1 3 4 9q2 8 5.5 15.5t6.5 15.5
q3 12 4.5 30.5t-5 34.5t-28.5 21q-4 1 -8 1z" />
    <glyph glyph-name="ntilde" unicode="&#xf1;" horiz-adv-x="542" 
d="M186 419v0q17 0 32.5 -7t33.5 -9q7 -1 16 0t21 8q9 6 14 -3t-3 -14q-14 -9 -27.5 -12t-24.5 -3q-18 0 -34 6.5t-32.5 9t-36.5 -11.5q-8 -4 -13 4.5t4 14.5q27 17 50 17zM65 332q8 -1 17.5 -6t9.5 -12q0 -3 -1 -5l-9 -17q-20 -37 -43.5 -86.5t-41.5 -100.5
q53 94 95.5 142.5t76.5 67.5q26 16 48 16q23 0 38.5 -14t15.5 -41q0 -17 -9 -39q-14 -33 -33 -73t-39 -81.5t-36 -77.5q-10 -23 -10 -41q0 -27 21 -33q5 -1 9 -1.5t9 -0.5q36 0 70 16t65 36q73 52 131 121t105 145q4 4 8 4q8 0 8 -9q0 -3 -1 -4q-49 -77 -107.5 -147.5
t-133.5 -123.5q-32 -21 -68 -38t-77 -17h-2q-23 0 -43 13.5t-24 36.5q-2 5 -2 10.5v10.5q0 13 2.5 28t8.5 26q18 38 40 84.5t37 81.5q10 22 20.5 47t10.5 42q0 15 -9.5 18.5t-22.5 -0.5t-22 -9q-35 -20 -86 -82t-115 -189q-3 -3 -3 -8q-3 -7 -14 -7q-5 0 -10 3t-5 8
q0 15 4 32t9 34q12 47 30 93.5t35.5 83.5t28.5 56q3 5 12 7h2z" />
    <glyph glyph-name="ograve" unicode="&#xf2;" horiz-adv-x="461" 
d="M84 557v0q5 0 7 -4l48 -75q3 -4 -3 -8.5t-10 0.5l-55 69q-5 6 1 12t12 6zM33 188v0q-9 -25 -14 -51t-5 -52q0 -16 2 -31.5t7 -30.5q5 -14 13 -19.5t18 -5.5q16 0 33.5 10.5t32.5 24t23 23.5q22 26 39 62q-43 8 -81.5 25t-67.5 45zM98 418q-7 0 -13 -0.5t-14 -2.5
q-16 -4 -31 -17.5t-26 -31.5q-18 -31 -18 -62q0 -4 0.5 -8t1.5 -9q5 -23 13 -39q8 20 18 39.5t22 36.5q5 7 15 6.5t18 -5.5t8 -13q0 -5 -5 -13q-26 -40 -48 -93q27 -28 66 -46t84 -25q11 26 17.5 56t6.5 61q0 18 -2.5 37t-8.5 38q-4 13 -14.5 31t-27.5 34q-13 12 -28 19
t-34 7zM95 436h3q23 -1 41.5 -9.5t32.5 -22.5q19 -17 31 -37t16 -35q6 -20 8.5 -40.5t2.5 -40.5q0 -63 -23 -118q8 -1 15 -1.5t15 -0.5q68 0 132.5 28.5t103.5 86.5q5 7 11 2q4 -3 4 -7q0 -1 -2 -5q-42 -63 -110 -92.5t-139 -29.5q-9 0 -18 0.5t-18 1.5h-1q-18 -39 -44 -71
q-42 -52 -89 -65q-4 -1 -8.5 -1.5t-9.5 -0.5q-16 0 -32 9.5t-24 31.5q-14 37 -14 81q0 45 12 90q2 10 5.5 19.5t6.5 18.5q-7 13 -13 26t-9 29q-1 5 -1.5 11t-0.5 11q0 38 20 70q12 20 29.5 35.5t37.5 21.5q13 4 29 4z" />
    <glyph glyph-name="oacute" unicode="&#xf3;" horiz-adv-x="461" 
d="M95 436h3q22 -1 41 -9.5t33 -22.5q19 -17 30.5 -37t16.5 -35q6 -20 8.5 -41t2.5 -40q0 -63 -23 -118q7 -1 14.5 -1.5t15.5 -0.5q67 0 132 28.5t104 86.5q5 7 11 2q4 -3 4 -7q0 -1 -2 -5q-42 -63 -110 -92.5t-139 -29.5q-9 0 -18 0.5t-18 1.5h-1q-18 -39 -44 -71
q-42 -52 -89 -65q-5 -2 -9 -2h-9q-17 0 -32.5 9.5t-23.5 31.5q-14 37 -14 81q0 45 12 90q2 10 5.5 19.5t6.5 18.5q-7 13 -13 26t-9 29q-1 5 -1.5 11t-0.5 11q0 38 20 70q12 20 29.5 35.5t37.5 21.5q13 4 29 4zM98 418q-7 0 -13.5 -0.5t-13.5 -2.5q-16 -5 -31 -18t-26 -31
q-18 -31 -18 -62q0 -4 0.5 -8t1.5 -9q5 -23 13 -39q8 20 18 39.5t22 36.5q5 7 15 6.5t18 -5.5t8 -13q0 -5 -5 -13q-26 -40 -48 -93q27 -28 66 -46t84 -25q11 26 17.5 56t6.5 61q0 18 -2.5 37t-8.5 38q-4 13 -15 31t-27 34q-13 12 -28 19t-34 7zM33 188q-9 -26 -14 -52
t-5 -51q0 -16 2 -31.5t7 -30.5q5 -14 13 -19.5t18 -5.5q16 0 33.5 10.5t32.5 24t23 23.5q22 26 39 62q-44 8 -82 25t-67 45zM166 557v0q6 0 12 -6t1 -12q-8 -10 -21 -26.5t-23.5 -29.5l-10.5 -13q-4 -5 -10 -0.5t-3 8.5l48 75q2 4 7 4z" />
    <glyph glyph-name="ocircumflex" unicode="&#xf4;" horiz-adv-x="461" 
d="M138 573v0q7 0 10 -5l42 -81q4 -7 -7 -13t-15 2l-33 62q-11 -14 -23 -29t-20.5 -25l-8.5 -10q-5 -7 -14.5 1t-4.5 14q11 14 25.5 31.5t26 31.5t13.5 18q3 3 9 3zM33 188q-9 -25 -14 -51t-5 -52q0 -16 2 -31.5t7 -30.5q5 -14 13 -19.5t18 -5.5q16 0 33.5 10.5t32.5 24
t23 23.5q22 26 39 62q-43 8 -81.5 25t-67.5 45zM98 418q-7 0 -13 -0.5t-14 -2.5q-16 -4 -31 -17.5t-26 -31.5q-18 -31 -18 -62q0 -4 0.5 -8t1.5 -9q5 -23 13 -39q8 20 18 39.5t22 36.5q5 7 15 6.5t18 -5.5t8 -13q0 -5 -5 -13q-26 -40 -48 -93q27 -28 66 -46t84 -25
q11 26 17.5 56t6.5 61q0 18 -2.5 37t-8.5 38q-4 13 -14.5 31t-27.5 34q-13 12 -28 19t-34 7zM95 436h3q23 -1 41.5 -9.5t32.5 -22.5q19 -17 31 -37t16 -35q6 -20 8.5 -40.5t2.5 -40.5q0 -63 -23 -118q8 -1 15 -1.5t15 -0.5q68 0 132.5 28.5t103.5 86.5q5 7 11 2q4 -3 4 -7
q0 -1 -2 -5q-42 -63 -110 -92.5t-139 -29.5q-9 0 -18 0.5t-18 1.5h-1q-18 -39 -44 -71q-42 -52 -89 -65q-4 -1 -8.5 -1.5t-9.5 -0.5q-16 0 -32 9.5t-24 31.5q-14 37 -14 81q0 45 12 90q2 10 5.5 19.5t6.5 18.5q-7 13 -13 26t-9 29q-1 5 -1.5 11t-0.5 11q0 38 20 70
q12 20 29.5 35.5t37.5 21.5q13 4 29 4z" />
    <glyph glyph-name="otilde" unicode="&#xf5;" horiz-adv-x="461" 
d="M87 524v0q18 0 33 -7t33 -9q7 0 16.5 1t20.5 7q10 6 14.5 -3t-3.5 -14q-13 -9 -27 -12t-24 -3q-19 0 -34.5 6.5t-32 9t-36.5 -10.5q-8 -5 -13 3.5t4 14.5q27 17 49 17zM33 188v0q-9 -26 -14 -52t-5 -51q0 -16 2 -31.5t7 -30.5q5 -14 12.5 -19.5t18.5 -5.5q15 0 33 10.5
t33 24t23 23.5q22 26 39 62q-44 7 -82.5 24.5t-66.5 45.5zM98 418q-7 0 -13.5 -0.5t-13.5 -2.5q-16 -5 -31 -18t-26 -31q-18 -31 -18 -62q0 -5 0.5 -9t1.5 -8q5 -23 13 -39q8 20 18 39.5t22 36.5q5 7 15 6.5t18 -6t8 -12.5q0 -5 -5 -13q-26 -40 -48 -93q27 -29 66 -46.5
t84 -24.5q11 26 17.5 56t6.5 61q0 18 -2.5 37t-8.5 38q-4 13 -15 31t-27 34q-13 12 -28 19t-34 7zM95 436h3q22 -1 41 -10t33 -22q19 -17 30.5 -37t16.5 -35q6 -20 8.5 -41t2.5 -40q0 -63 -23 -118q7 -1 14.5 -1.5t15.5 -0.5q67 0 132 28t104 87q5 7 11 2q4 -3 4 -7
q0 -1 -2 -5q-42 -63 -110 -92.5t-139 -29.5q-9 0 -18 0.5t-18 1.5h-1q-18 -39 -44 -71q-42 -52 -89 -65q-5 -2 -9.5 -2h-8.5q-17 0 -32.5 9.5t-23.5 31.5q-14 37 -14 81q0 45 12 90q2 10 5.5 19.5t6.5 18.5q-8 13 -13.5 26t-8.5 29q-1 5 -1.5 11t-0.5 11q0 38 20 70
q12 20 29.5 35.5t37.5 21.5q13 4 29 4z" />
    <glyph glyph-name="odieresis" unicode="&#xf6;" horiz-adv-x="461" 
d="M114 525v0q7 0 12 -5t4 -14q-1 -7 -7 -13q-7 -6 -15 -6t-12 5q-6 6 -4 14q1 8 7 13q6 6 15 6zM175 525v0q8 0 12 -5q6 -5 5 -14q-2 -7 -8 -13t-14 -6t-13 5q-5 6 -4 14t7 13q7 6 15 6zM33 188q-9 -26 -14 -52t-5 -51q0 -16 2 -31.5t7 -30.5q5 -14 13 -19.5t18 -5.5
q16 0 33.5 10.5t32.5 24t23 23.5q22 26 39 62q-43 7 -81.5 24.5t-67.5 45.5zM98 418q-7 0 -13 -0.5t-14 -2.5q-16 -5 -31 -18t-26 -31q-18 -31 -18 -62q0 -5 0.5 -9t1.5 -8q5 -23 13 -39q8 20 18 39.5t22 36.5q5 7 15 6.5t18 -6t8 -12.5q0 -5 -5 -13q-26 -40 -48 -93
q27 -29 66 -46.5t84 -24.5q11 26 17.5 56t6.5 61q0 18 -2.5 37t-8.5 38q-4 13 -14.5 31t-27.5 34q-13 12 -28 19t-34 7zM95 436h3q23 -1 41.5 -10t32.5 -22q19 -17 31 -37t16 -35q6 -20 8.5 -41t2.5 -40q0 -63 -23 -118q8 -1 15 -1.5t15 -0.5q68 0 132.5 28t103.5 87
q5 7 11 2q4 -3 4 -7q0 -1 -2 -5q-42 -63 -110 -92.5t-139 -29.5q-9 0 -18 0.5t-18 1.5h-1q-18 -39 -44 -71q-42 -52 -89 -65q-4 -2 -8.5 -2h-9.5q-16 0 -32 9.5t-24 31.5q-14 37 -14 81q0 45 12 90q2 10 5.5 19.5t6.5 18.5q-7 13 -13 26t-9 29q-1 5 -1.5 11t-0.5 11
q0 38 20 70q12 20 29.5 35.5t37.5 21.5q13 4 29 4z" />
    <glyph glyph-name="divide" unicode="&#xf7;" horiz-adv-x="484" 
d="M258 389v0q11 0 19 -8t8 -19v0q0 -11 -8 -19t-19 -8t-18.5 8t-7.5 19t7.5 19t18.5 8zM104 301h276h1q13 0 13 -14q0 -13 -13 -13h-1h-276h-1q-13 0 -13 13q0 14 13 14h1zM226 239v0q11 0 18.5 -7.5t7.5 -18.5v0q0 -11 -7.5 -19t-18.5 -8t-19 8t-8 19v0q0 11 8 18.5
t19 7.5z" />
    <glyph glyph-name="oslash" unicode="&#xf8;" horiz-adv-x="461" 
d="M106 162v0q40 -20 88 -27q11 26 17.5 56t6.5 61q0 21 -3.5 44.5t-11.5 42.5q-24 -43 -48.5 -88.5t-48.5 -88.5zM29 21v0q5 -13 12.5 -18t17.5 -5q15 0 33 10.5t33 24t23 23.5q22 26 39 62q-49 8 -89 28q-18 -33 -35.5 -64.5t-33.5 -60.5zM38 188v0q-9 -25 -14 -51t-5 -52
q0 -16 2 -29q14 27 28 52t27 50q-21 13 -38 30zM189 363v0q-13 20 -34.5 37.5t-51.5 17.5q-31 0 -50 -14t-34 -38q-18 -31 -18 -62q0 -16 4.5 -30t10.5 -26q8 20 18 39.5t22 36.5q5 7 15 6.5t18 -5.5t8 -13q0 -5 -5 -13q-26 -40 -48 -93q17 -18 40 -33q24 44 49 90t56 100z
M8 228v0q-10 16 -17 34.5t-7 42.5q0 44 26.5 80.5t60.5 46.5q13 4 29 4h3q32 -1 56 -18t39 -38q14 25 29 50q4 7 11 6h1q6 0 9 -5.5t-1 -11.5q-8 -15 -16.5 -30.5t-17.5 -30.5q11 -22 16.5 -51t5.5 -56q0 -63 -23 -118q7 -1 14.5 -1.5t15.5 -0.5q67 0 132 28t104 87
q4 5 9.5 3t5.5 -8q0 -1 -2 -5q-42 -63 -110 -92.5t-139 -29.5q-9 0 -18 0.5t-18 1.5h-1q-13 -28 -33.5 -56.5t-46 -50.5t-53.5 -29q-5 -2 -9.5 -2h-8.5q-24 0 -40 16q-14 -23 -25 -42q-5 -10 -15.5 -4.5t-4.5 15.5l30 54q-8 18 -11.5 40t-3.5 43q0 33 7.5 67t16.5 61z" />
    <glyph glyph-name="ugrave" unicode="&#xf9;" horiz-adv-x="604" 
d="M132 460v0q5 0 7 -4l48 -75q3 -4 -3 -8.5t-10 0.5l-55 69q-5 6 1 12t12 6zM56 332v0q9 0 18.5 -6t9.5 -14q0 -1 -2 -5l-7 -15q-14 -33 -25.5 -57.5t-22 -47t-21.5 -49.5t-25 -65q-10 -29 -10 -52q0 -18 7 -27q4 -4 11 -8t18 -4q17 0 38 11q39 23 89 79t103 150
q11 27 22 50.5t20 39.5q4 7 14 7q9 0 17.5 -6t8.5 -15q0 -4 -3 -9q-17 -31 -35.5 -72t-34 -85.5t-25.5 -86t-10 -74.5q0 -23 13.5 -32t32.5 -9q13 0 27 3q25 7 48.5 19t45.5 27q74 51 131.5 120.5t104.5 145.5q3 4 8 4q8 0 8 -9q0 -3 -1 -5q-48 -76 -106.5 -146.5
t-134.5 -123.5q-32 -21 -68 -38t-77 -17h-2q-35 2 -48.5 25t-13.5 60q0 44 14 98q3 12 6.5 23.5t7.5 24.5q-51 -76 -98 -119t-84 -57q-17 -7 -33 -7q-8 0 -11 1q-18 3 -31 19q-17 20 -17 53q0 26 10 56q14 39 25 66.5t21.5 50.5t21.5 47.5t25 57.5l8 18q2 5 10 5h2z" />
    <glyph glyph-name="uacute" unicode="&#xfa;" horiz-adv-x="604" 
d="M56 332q9 0 18.5 -6t9.5 -14q0 -1 -2 -5l-7 -15q-14 -33 -25.5 -57.5t-22 -47t-21.5 -49.5t-25 -65q-10 -29 -10 -52q0 -18 7 -27q4 -4 11 -8t18 -4q17 0 38 11q39 23 89 79t103 150q11 27 22 50.5t20 39.5q4 7 14 7q9 0 17.5 -6t8.5 -15q0 -4 -3 -9q-17 -31 -35.5 -72
t-34 -85.5t-25.5 -86t-10 -74.5q0 -23 13.5 -32t32.5 -9q13 0 27 3q25 7 48.5 19t45.5 27q74 51 131.5 120.5t104.5 145.5q3 4 8 4q8 0 8 -9q0 -3 -1 -5q-48 -77 -106.5 -147t-134.5 -123q-32 -21 -68 -38t-77 -17h-2q-35 2 -48.5 25t-13.5 60q0 44 14 98q3 12 6.5 23.5
t7.5 24.5q-51 -77 -98 -119.5t-84 -56.5q-17 -7 -33 -7q-8 0 -11 1q-18 3 -31 19q-17 20 -17 53q0 26 10 56q14 39 25 66.5t21.5 50.5t21.5 47.5t25 57.5l8 18q2 5 10 5h2zM243 460v0q6 0 11.5 -6t1.5 -12q-8 -10 -21.5 -26.5t-24 -29.5l-10.5 -13q-3 -5 -9 -0.5t-3 8.5
l47 75q3 4 8 4z" />
    <glyph glyph-name="ucircumflex" unicode="&#xfb;" horiz-adv-x="604" 
d="M204 466v0q8 0 10 -5l43 -80q4 -8 -7 -14t-15 2l-33 62q-11 -14 -23 -29t-20.5 -25l-8.5 -10q-5 -7 -15 1t-4 15q11 13 25 30.5t26 32t14 17.5q2 4 8 3zM56 332v0q9 0 18.5 -6t9.5 -14q0 -1 -2 -5l-7 -15q-14 -33 -25.5 -57.5t-22 -47t-21.5 -49.5t-25 -65
q-10 -29 -10 -52q0 -18 7 -27q4 -5 11 -8.5t18 -3.5q17 0 38 11q39 23 89 79t103 150q11 27 22 50.5t20 39.5q4 7 14 7q9 0 17.5 -6t8.5 -15q0 -5 -3 -9q-17 -32 -35.5 -72.5t-34 -85t-25.5 -86t-10 -74.5q0 -23 13.5 -32t32.5 -9q13 0 27 3q25 7 48.5 19t45.5 27
q73 51 131 120.5t105 145.5q3 4 8 4q8 0 8 -9q0 -3 -1 -5q-48 -77 -106.5 -147.5t-134.5 -122.5q-32 -21 -68.5 -38t-76.5 -17h-2q-35 1 -48.5 24.5t-13.5 60.5q0 44 14 98q3 12 6.5 23.5t7.5 24.5q-51 -77 -98 -119.5t-84 -56.5q-17 -7 -33 -7q-8 0 -11 1q-18 3 -31 19
q-17 20 -17 53q0 26 10 56q14 39 25 66.5t21.5 50.5t21.5 47.5t25 57.5l8 18q2 5 10 5h2z" />
    <glyph glyph-name="udieresis" unicode="&#xfc;" horiz-adv-x="604" 
d="M156 424v0q7 0 12 -5q5 -6 4 -14t-7 -13q-6 -6 -15 -6q-7 0 -12 5q-5 6 -4 14t7 13q6 6 15 6zM217 424v0q8 0 13 -5q5 -6 4 -14t-7 -13q-7 -6 -15 -6t-12 5q-6 6 -5 14q2 8 7 13q7 6 15 6zM56 332v0q9 0 18.5 -6t9.5 -14q0 -1 -2 -5l-7 -15q-14 -33 -25.5 -57.5t-22 -47
t-21.5 -49.5t-25 -65q-10 -29 -10 -52q0 -18 7 -27q4 -5 11.5 -8.5t17.5 -3.5q17 0 38 11q39 23 89 79t103 150q11 27 22 50.5t20 39.5q4 7 14 7q9 0 17.5 -6t8.5 -15q0 -5 -3 -9q-17 -32 -35.5 -72.5t-34 -85t-25.5 -86t-10 -74.5q0 -23 13.5 -32t32.5 -9q14 0 27 3
q25 7 48.5 19t45.5 27q74 51 131.5 120.5t104.5 145.5q3 4 8 4q8 0 8 -9q0 -3 -1 -5q-48 -77 -106.5 -147.5t-134.5 -122.5q-31 -21 -67.5 -38t-77.5 -17h-2q-34 1 -48 24.5t-14 60.5q0 44 14 98q3 12 6.5 23.5t7.5 24.5q-51 -77 -98 -119.5t-84 -56.5q-17 -7 -33 -7
q-8 0 -11 1q-18 3 -31 19q-17 20 -17 53q0 26 10 56q14 39 25 66.5t21.5 50.5t21.5 47.5t25 57.5l8 18q2 5 10 5h2z" />
    <glyph glyph-name="yacute" unicode="&#xfd;" horiz-adv-x="510" 
d="M58 330q9 0 18.5 -5.5t9.5 -13.5q0 -4 -1 -6l-7 -15q-14 -33 -24 -55t-18.5 -41.5t-18.5 -44t-24 -62.5q-11 -31 -11 -52q0 -18 7 -27q4 -4 11.5 -8t18.5 -4t23.5 4.5t28.5 15.5q37 26 82.5 88t97.5 183q1 7 3 13.5t4 12.5q3 10 16 10q10 0 18.5 -3.5t8.5 -11.5
q0 -32 -12 -77t-30.5 -97.5t-38.5 -105.5q52 22 109 51.5t108 70t84 96.5q3 5 7 5q9 0 9 -9q0 -3 -1 -4q-36 -61 -92.5 -105t-118 -74.5t-114.5 -52.5q-38 -100 -95 -211t-139 -223q-38 -52 -73 -79t-66 -35q-14 -3 -25 -3q-26 0 -46 13.5t-33 32.5q-14 24 -14 55
q0 34 13 67q28 71 94 146q63 71 152 135.5t189 105.5q20 52 34.5 99.5t26.5 89.5q-37 -73 -71 -118t-64 -68.5t-57 -33.5q-7 -3 -14 -4t-14 -1q-14 0 -26.5 4t-20.5 13q-18 21 -18 53q0 14 2.5 27.5t8.5 29.5q14 39 23.5 64t18.5 45t18.5 42t23.5 55l8 18q2 5 10 5h1z
M159 -13q-94 -41 -177 -102t-142 -128q-32 -36 -55 -72t-36 -68q-5 -13 -8 -27t-3 -29q0 -5 0.5 -10t1.5 -9q4 -23 20.5 -34.5t37.5 -11.5q22 0 46 12q22 10 39.5 24.5t36 36t44.5 54.5q21 28 39.5 57.5t34.5 58.5q34 58 61.5 114.5t49.5 109.5q6 14 10 24zM227 460v0
q6 0 11.5 -6t1.5 -12q-8 -10 -21.5 -26.5t-24 -29.5l-10.5 -13q-3 -5 -9 -0.5t-3 8.5l47 75q3 4 8 4z" />
    <glyph glyph-name="thorn" unicode="&#xfe;" horiz-adv-x="460" 
d="M140 489v0h1q9 0 21.5 -9t6.5 -19q-3 -7 -14.5 -28t-26.5 -50.5t-31 -60.5t-29 -58t-20 -42q29 34 63 62t66 29h1.5h2.5q30 -1 46 -20t21 -49.5t0.5 -65t-17.5 -64.5q-2 -6 -5 -12q36 3 65 8t54 15q36 15 65.5 43t60.5 79q3 4 8 4t7 -4.5t0 -8.5q-32 -52 -64 -82.5
t-71 -45.5q-28 -12 -61 -17.5t-73 -8.5q-24 -47 -56.5 -79t-65 -47.5t-55.5 -12.5q-36 4 -44 28.5t11 52.5q1 1 1 2q19 27 57.5 46.5t90.5 22.5h6t6 1q7 12 12 22q13 28 20.5 58t8 56t-7.5 42t-28 17q-16 0 -39 -17t-47.5 -42.5t-46 -52.5t-32.5 -48q-14 -33 -28.5 -69.5
t-28.5 -74.5q-38 -107 -70.5 -228.5t-48.5 -240.5l-3 -19q-1 -8 -10.5 -9.5t-19 2.5t-9.5 12l2 20q17 121 47.5 244.5t67.5 231.5q18 53 42.5 112t50.5 117t50.5 109t44.5 88.5t31 54.5q4 6 14 6zM158 80v0h-1q-45 -3 -78.5 -19t-51.5 -37q-15 -18 -15.5 -34t21.5 -20
q17 -4 39 12t45 42.5t41 55.5z" />
    <glyph glyph-name="ydieresis" unicode="&#xff;" horiz-adv-x="510" 
d="M156 424v0q7 0 12 -5q5 -6 4 -14t-7 -13q-6 -6 -15 -6q-7 0 -12 5q-5 6 -4 14t7 13q6 6 15 6zM217 424v0q8 0 13 -5q5 -6 4 -14t-7 -13q-7 -6 -15 -6t-12 5q-6 6 -5 14q2 8 7 13q7 6 15 6zM159 -13q-94 -41 -177 -102t-142 -128q-32 -36 -55 -72t-36 -68q-4 -13 -7.5 -27
t-3.5 -29q0 -5 0.5 -10t1.5 -9q5 -23 21 -34.5t37 -11.5q22 0 46 12q22 10 39.5 24.5t36.5 36t44 54.5q21 28 39.5 57.5t34.5 58.5q34 58 61.5 114.5t49.5 109.5q6 14 10 24zM58 330v0q9 0 18.5 -5.5t9.5 -13.5q0 -4 -1 -6l-7 -15q-14 -33 -24 -55t-18.5 -41.5t-18.5 -44
t-24 -62.5q-11 -31 -11 -52q0 -18 7 -27q4 -5 12 -8.5t18 -3.5q11 0 23.5 4.5t28.5 15.5q38 26 83 88t97 183q2 7 4 13.5t3 12.5q3 10 16 10q10 0 18.5 -4t8.5 -11q0 -32 -12 -77.5t-30.5 -97.5t-38.5 -105q52 21 109 51t108 70.5t84 96.5q3 5 7 5q9 0 9 -9q0 -3 -1 -4
q-36 -61 -92.5 -105t-118 -75t-114.5 -52q-38 -100 -95 -211t-139 -223q-38 -53 -73 -80t-66 -34q-13 -3 -25 -3q-26 0 -46 13t-33 33q-14 24 -14 55q0 34 13 67q28 71 94 146q63 71 152 135.5t189 105.5q20 52 34.5 99.5t26.5 89.5q-37 -74 -71 -118.5t-64 -68t-57 -33.5
q-7 -3 -13.5 -4t-14.5 -1q-14 0 -26.5 4t-20.5 13q-18 21 -18 53q0 13 2.5 27t8.5 30q14 39 23.5 64t18.5 45t18.5 42t23.5 55l8 18q2 5 10 5h1z" />
    <glyph glyph-name="Amacron" unicode="&#x100;" horiz-adv-x="639" 
d="M178 842h297v-71h-297v71zM1211 746q-13 -21 -39 -67t-58 -110t-63 -138q-10 -23 -19 -46.5t-18 -48.5q45 1 77 13t48 42q2 5 7 5q9 0 9 -9q0 -2 -1 -3q-17 -35 -53.5 -50t-87.5 -15h-5q-28 -83 -48 -170t-20 -162q0 -11 0.5 -21t1.5 -20v-1q0 -5 -4.5 -7.5t-9.5 -2.5
q-6 0 -11 2.5t-7 8.5q-1 10 -1.5 21t-0.5 22q0 75 17 162t43 169q-37 3 -77.5 10.5t-84.5 16.5q-54 -75 -114 -151t-127 -142t-142 -111q-57 -34 -119 -53.5t-130 -19.5q-40 0 -82 7t-86 23q-6 2 -6 8q0 9 9 9h1t1 -1q43 -15 83.5 -22t79.5 -7q65 0 125 19t115 52
q72 43 137.5 107t125 138.5t111.5 147.5q-58 13 -122 28t-127 27t-119 16q-10 1 -20.5 1.5t-20.5 0.5q-51 0 -92 -11.5t-67 -39.5q-3 -3 -6 -3q-9 0 -9 9q0 3 3 6q29 31 72.5 43.5t96.5 12.5q11 0 22.5 -0.5t22.5 -1.5q58 -4 122.5 -16.5t130 -28t124.5 -28.5
q47 67 92.5 130t89.5 116q51 62 102 105.5t104 57.5q6 2 8 2q9 0 14 -6.5t5 -13.5t-3 -11zM1167 750q-43 -18 -86 -57t-87 -91q-43 -52 -86.5 -113.5t-90.5 -126.5q43 -9 82 -16t74 -9q10 29 20.5 57t20.5 53q28 67 57 125.5t54 104t42 73.5z" />
    <glyph glyph-name="amacron" unicode="&#x101;" horiz-adv-x="561" 
d="M143 677h297v-71h-297v71zM144 312q-26 0 -59 -28t-53 -73q-13 -27 -18.5 -55t-5.5 -52q0 -25 6.5 -42.5t22.5 -17.5q13 0 31 15t36 38.5t34 48t27 44.5q4 10 8 20.5t8 20.5q7 17 7 36q0 16 -10 30.5t-34 14.5zM-12 218q14 34 39.5 59.5t55 39.5t54.5 14q29 0 45 -15
t20 -37q4 9 8.5 17t8.5 16q4 6 13 6t18 -6t9 -15q0 -5 -2 -8q-17 -31 -35.5 -72t-34.5 -85t-26.5 -85.5t-11.5 -74.5q0 -24 13.5 -33t32.5 -9q14 0 29 3q25 6 48 19t45 27q73 52 131.5 121t105.5 145q4 6 10 3t6 -8q0 -2 -2 -4q-49 -76 -107.5 -147t-133.5 -124
q-31 -21 -67 -38t-76 -17h-3q-35 2 -49 26.5t-14 60.5q0 27 6 58t15 60q-23 -35 -50.5 -62.5t-51.5 -27.5q-36 0 -51.5 30.5t-15.5 67.5q0 23 4 47.5t14 47.5z" />
    <glyph glyph-name="Abreve" unicode="&#x102;" horiz-adv-x="639" 
d="M316 771q-69 0 -108.5 33.5t-44.5 100.5h54q4 -35 24.5 -49t76.5 -14q49 0 73 15.5t28 47.5h55q-6 -64 -48 -99t-110 -35zM1211 746q-13 -21 -39 -67t-58 -110t-63 -138q-10 -23 -19 -46.5t-18 -48.5q45 1 77 13t48 42q2 5 7 5q9 0 9 -9q0 -2 -1 -3q-17 -35 -53.5 -50
t-87.5 -15h-5q-28 -83 -48 -170t-20 -162q0 -11 0.5 -21t1.5 -20v-1q0 -5 -4.5 -7.5t-9.5 -2.5q-6 0 -11 2.5t-7 8.5q-1 10 -1.5 21t-0.5 22q0 75 17 162t43 169q-37 3 -77.5 10.5t-84.5 16.5q-54 -75 -114 -151t-127 -142t-142 -111q-57 -34 -119 -53.5t-130 -19.5
q-40 0 -82 7t-86 23q-6 2 -6 8q0 9 9 9h1t1 -1q43 -15 83.5 -22t79.5 -7q65 0 125 19t115 52q72 43 137.5 107t125 138.5t111.5 147.5q-58 13 -122 28t-127 27t-119 16q-10 1 -20.5 1.5t-20.5 0.5q-51 0 -92 -11.5t-67 -39.5q-3 -3 -6 -3q-9 0 -9 9q0 3 3 6q29 31 72.5 43.5
t96.5 12.5q11 0 22.5 -0.5t22.5 -1.5q58 -4 122.5 -16.5t130 -28t124.5 -28.5q47 67 92.5 130t89.5 116q51 62 102 105.5t104 57.5q6 2 8 2q9 0 14 -6.5t5 -13.5t-3 -11zM1167 750q-43 -18 -86 -57t-87 -91q-43 -52 -86.5 -113.5t-90.5 -126.5q43 -9 82 -16t74 -9
q10 29 20.5 57t20.5 53q28 67 57 125.5t54 104t42 73.5z" />
    <glyph glyph-name="abreve" unicode="&#x103;" horiz-adv-x="561" 
d="M281 606q-69 0 -108.5 33.5t-44.5 100.5h54q4 -35 24.5 -49t76.5 -14q49 0 73 15.5t28 47.5h55q-6 -64 -48 -99t-110 -35zM144 312q-26 0 -59 -28t-53 -73q-13 -27 -18.5 -55t-5.5 -52q0 -25 6.5 -42.5t22.5 -17.5q13 0 31 15t36 38.5t34 48t27 44.5q4 10 8 20.5t8 20.5
q7 17 7 36q0 16 -10 30.5t-34 14.5zM-12 218q14 34 39.5 59.5t55 39.5t54.5 14q29 0 45 -15t20 -37q4 9 8.5 17t8.5 16q4 6 13 6t18 -6t9 -15q0 -5 -2 -8q-17 -31 -35.5 -72t-34.5 -85t-26.5 -85.5t-11.5 -74.5q0 -24 13.5 -33t32.5 -9q14 0 29 3q25 6 48 19t45 27
q73 52 131.5 121t105.5 145q4 6 10 3t6 -8q0 -2 -2 -4q-49 -76 -107.5 -147t-133.5 -124q-31 -21 -67 -38t-76 -17h-3q-35 2 -49 26.5t-14 60.5q0 27 6 58t15 60q-23 -35 -50.5 -62.5t-51.5 -27.5q-36 0 -51.5 30.5t-15.5 67.5q0 23 4 47.5t14 47.5z" />
    <glyph glyph-name="Aogonek" unicode="&#x104;" horiz-adv-x="639" 
d="M540 -116q0 -22 12 -33.5t33 -11.5t48 6v-56q-34 -9 -62 -9q-103 0 -103 94q0 68 78 126h62q-34 -32 -51 -58.5t-17 -57.5zM1211 746q-13 -21 -39 -67t-58 -110t-63 -138q-10 -23 -19 -46.5t-18 -48.5q45 1 77 13t48 42q2 5 7 5q9 0 9 -9q0 -2 -1 -3q-17 -35 -53.5 -50
t-87.5 -15h-5q-28 -83 -48 -170t-20 -162q0 -11 0.5 -21t1.5 -20v-1q0 -5 -4.5 -7.5t-9.5 -2.5q-6 0 -11 2.5t-7 8.5q-1 10 -1.5 21t-0.5 22q0 75 17 162t43 169q-37 3 -77.5 10.5t-84.5 16.5q-54 -75 -114 -151t-127 -142t-142 -111q-57 -34 -119 -53.5t-130 -19.5
q-40 0 -82 7t-86 23q-6 2 -6 8q0 9 9 9h1t1 -1q43 -15 83.5 -22t79.5 -7q65 0 125 19t115 52q72 43 137.5 107t125 138.5t111.5 147.5q-58 13 -122 28t-127 27t-119 16q-10 1 -20.5 1.5t-20.5 0.5q-51 0 -92 -11.5t-67 -39.5q-3 -3 -6 -3q-9 0 -9 9q0 3 3 6q29 31 72.5 43.5
t96.5 12.5q11 0 22.5 -0.5t22.5 -1.5q58 -4 122.5 -16.5t130 -28t124.5 -28.5q47 67 92.5 130t89.5 116q51 62 102 105.5t104 57.5q6 2 8 2q9 0 14 -6.5t5 -13.5t-3 -11zM1167 750q-43 -18 -86 -57t-87 -91q-43 -52 -86.5 -113.5t-90.5 -126.5q43 -9 82 -16t74 -9
q10 29 20.5 57t20.5 53q28 67 57 125.5t54 104t42 73.5z" />
    <glyph glyph-name="aogonek" unicode="&#x105;" horiz-adv-x="561" 
d="M410 -116q0 -22 12 -33.5t33 -11.5t48 6v-56q-34 -9 -62 -9q-103 0 -103 94q0 68 78 126h62q-34 -32 -51 -58.5t-17 -57.5zM144 312q-26 0 -59 -28t-53 -73q-13 -27 -18.5 -55t-5.5 -52q0 -25 6.5 -42.5t22.5 -17.5q13 0 31 15t36 38.5t34 48t27 44.5q4 10 8 20.5t8 20.5
q7 17 7 36q0 16 -10 30.5t-34 14.5zM-12 218q14 34 39.5 59.5t55 39.5t54.5 14q29 0 45 -15t20 -37q4 9 8.5 17t8.5 16q4 6 13 6t18 -6t9 -15q0 -5 -2 -8q-17 -31 -35.5 -72t-34.5 -85t-26.5 -85.5t-11.5 -74.5q0 -24 13.5 -33t32.5 -9q14 0 29 3q25 6 48 19t45 27
q73 52 131.5 121t105.5 145q4 6 10 3t6 -8q0 -2 -2 -4q-49 -76 -107.5 -147t-133.5 -124q-31 -21 -67 -38t-76 -17h-3q-35 2 -49 26.5t-14 60.5q0 27 6 58t15 60q-23 -35 -50.5 -62.5t-51.5 -27.5q-36 0 -51.5 30.5t-15.5 67.5q0 23 4 47.5t14 47.5z" />
    <glyph glyph-name="Cacute" unicode="&#x106;" horiz-adv-x="631" 
d="M656 555q-25 -35 -48 -78t-44 -96q-18 -47 -29 -104t-13 -113q0 -26 2 -70.5t17 -85.5q7 -18 17.5 -35t25.5 -28q27 -19 58.5 -14.5t60 20t47.5 28.5q74 51 131 120.5t104 145.5q5 7 12 2t3 -12q-48 -77 -106.5 -147t-134.5 -123q-29 -21 -65 -38.5t-79 -16.5
q-31 0 -53 14.5t-37 35.5q-25 37 -35 90.5t-8 112.5t13 119.5t31 111.5q19 48 41 90t45 76q-82 9 -163.5 14.5t-162.5 -5.5h-1q-79 -7 -152 -44.5t-113 -107.5q-4 -7 -12 -3t-3 12q29 50 73.5 83.5t98 52.5t107.5 24q86 10 170.5 4t168.5 -15q68 96 142.5 142.5t135.5 53.5
q39 5 74 -6t53 -36.5t6 -66.5q-5 -16 -16 -34.5t-29 -34.5q-31 -26 -69 -35t-75 -11q-47 -2 -95 0.5t-94 7.5zM904 731q-48 -6 -111 -43t-125 -117q44 -5 88 -7t88 -1q36 2 71.5 11t62.5 32q12 10 22 23t15 29q8 26 -6 44.5t-42.5 26t-62.5 2.5zM237 1092v0q6 0 11.5 -6
t1.5 -12l-56 -69q-3 -5 -9 -0.5t-3 9.5l47 74q3 4 8 4z" />
    <glyph glyph-name="cacute" unicode="&#x107;" horiz-adv-x="479" 
d="M444 242q0 -3 -2 -5q-48 -77 -107.5 -148.5t-133.5 -121.5q-59 -39 -111 -39q-21 0 -40.5 5.5t-35.5 17.5q-31 22 -44 54.5t-13 70.5q0 35 10.5 72t26.5 70q31 58 74 85.5t82 27.5q32 0 47.5 -18.5t15.5 -44.5q0 -29 -19 -61q-3 -5 -10.5 -1t-0.5 15q4 6 9 20t5 30
q0 13 -7 25t-25 16q-2 1 -4.5 0.5t-4.5 -0.5q-26 0 -58 -29.5t-57 -77.5q-23 -43 -33 -80t-10 -69q0 -38 12.5 -64t33.5 -38q21 -9 46 -9q22 0 48 8.5t54 27.5q71 49 130.5 119.5t106.5 146.5q2 4 7 4q8 0 8 -9zM143 927v0q6 0 11.5 -6t1.5 -12l-56 -69q-3 -5 -9 -0.5
t-3 9.5l47 74q3 4 8 4z" />
    <glyph glyph-name="Ccircumflex" unicode="&#x108;" horiz-adv-x="631" 
d="M220 782q61 65 86 96.5t37 52.5h90q25 -49 125 -149v-11h-62q-44 26 -109 90q-64 -62 -107 -90h-60v11zM656 555q-25 -35 -48 -78t-44 -96q-18 -47 -29 -104t-13 -113q0 -26 2 -70.5t17 -85.5q7 -18 17.5 -35t25.5 -28q27 -19 58.5 -14.5t60 20t47.5 28.5
q74 51 131 120.5t104 145.5q5 7 12 2t3 -12q-48 -77 -106.5 -147t-134.5 -123q-29 -21 -65 -38.5t-79 -16.5q-31 0 -53 14.5t-37 35.5q-25 37 -35 90.5t-8 112.5t13 119.5t31 111.5q19 48 41 90t45 76q-82 9 -163.5 14.5t-162.5 -5.5h-1q-79 -7 -152 -44.5t-113 -107.5
q-4 -7 -12 -3t-3 12q29 50 73.5 83.5t98 52.5t107.5 24q86 10 170.5 4t168.5 -15q68 96 142.5 142.5t135.5 53.5q39 5 74 -6t53 -36.5t6 -66.5q-5 -16 -16 -34.5t-29 -34.5q-31 -26 -69 -35t-75 -11q-47 -2 -95 0.5t-94 7.5zM904 731q-48 -6 -111 -43t-125 -117q44 -5 88 -7
t88 -1q36 2 71.5 11t62.5 32q12 10 22 23t15 29q8 26 -6 44.5t-42.5 26t-62.5 2.5z" />
    <glyph glyph-name="ccircumflex" unicode="&#x109;" horiz-adv-x="479" 
d="M118 617q61 65 86 96.5t37 52.5h90q25 -49 125 -149v-11h-62q-44 26 -109 90q-64 -62 -107 -90h-60v11zM444 242q0 -3 -2 -5q-48 -77 -107.5 -148.5t-133.5 -121.5q-59 -39 -111 -39q-21 0 -40.5 5.5t-35.5 17.5q-31 22 -44 54.5t-13 70.5q0 35 10.5 72t26.5 70
q31 58 74 85.5t82 27.5q32 0 47.5 -18.5t15.5 -44.5q0 -29 -19 -61q-3 -5 -10.5 -1t-0.5 15q4 6 9 20t5 30q0 13 -7 25t-25 16q-2 1 -4.5 0.5t-4.5 -0.5q-26 0 -58 -29.5t-57 -77.5q-23 -43 -33 -80t-10 -69q0 -38 12.5 -64t33.5 -38q21 -9 46 -9q22 0 48 8.5t54 27.5
q71 49 130.5 119.5t106.5 146.5q2 4 7 4q8 0 8 -9z" />
    <glyph glyph-name="Cdotaccent" unicode="&#x10a;" horiz-adv-x="631" 
d="M337 846q0 29 15 42.5t37 13.5q21 0 36 -13.5t15 -42.5t-15.5 -42.5t-35.5 -13.5q-22 0 -37 13.5t-15 42.5zM656 555q-25 -35 -48 -78t-44 -96q-18 -47 -29 -104t-13 -113q0 -26 2 -70.5t17 -85.5q7 -18 17.5 -35t25.5 -28q27 -19 58.5 -14.5t60 20t47.5 28.5
q74 51 131 120.5t104 145.5q5 7 12 2t3 -12q-48 -77 -106.5 -147t-134.5 -123q-29 -21 -65 -38.5t-79 -16.5q-31 0 -53 14.5t-37 35.5q-25 37 -35 90.5t-8 112.5t13 119.5t31 111.5q19 48 41 90t45 76q-82 9 -163.5 14.5t-162.5 -5.5h-1q-79 -7 -152 -44.5t-113 -107.5
q-4 -7 -12 -3t-3 12q29 50 73.5 83.5t98 52.5t107.5 24q86 10 170.5 4t168.5 -15q68 96 142.5 142.5t135.5 53.5q39 5 74 -6t53 -36.5t6 -66.5q-5 -16 -16 -34.5t-29 -34.5q-31 -26 -69 -35t-75 -11q-47 -2 -95 0.5t-94 7.5zM904 731q-48 -6 -111 -43t-125 -117q44 -5 88 -7
t88 -1q36 2 71.5 11t62.5 32q12 10 22 23t15 29q8 26 -6 44.5t-42.5 26t-62.5 2.5z" />
    <glyph glyph-name="cdotaccent" unicode="&#x10b;" horiz-adv-x="479" 
d="M241 681q0 29 15 42.5t37 13.5q21 0 36 -13.5t15 -42.5t-15.5 -42.5t-35.5 -13.5q-22 0 -37 13.5t-15 42.5zM444 242q0 -3 -2 -5q-48 -77 -107.5 -148.5t-133.5 -121.5q-59 -39 -111 -39q-21 0 -40.5 5.5t-35.5 17.5q-31 22 -44 54.5t-13 70.5q0 35 10.5 72t26.5 70
q31 58 74 85.5t82 27.5q32 0 47.5 -18.5t15.5 -44.5q0 -29 -19 -61q-3 -5 -10.5 -1t-0.5 15q4 6 9 20t5 30q0 13 -7 25t-25 16q-2 1 -4.5 0.5t-4.5 -0.5q-26 0 -58 -29.5t-57 -77.5q-23 -43 -33 -80t-10 -69q0 -38 12.5 -64t33.5 -38q21 -9 46 -9q22 0 48 8.5t54 27.5
q71 49 130.5 119.5t106.5 146.5q2 4 7 4q8 0 8 -9z" />
    <glyph glyph-name="Ccaron" unicode="&#x10c;" horiz-adv-x="631" 
d="M220 931h60q56 -36 107 -92q62 62 109 92h62v-13q-100 -100 -125 -147h-90q-29 50 -123 147v13zM656 555q-25 -35 -48 -78t-44 -96q-18 -47 -29 -104t-13 -113q0 -26 2 -70.5t17 -85.5q7 -18 17.5 -35t25.5 -28q27 -19 58.5 -14.5t60 20t47.5 28.5q74 51 131 120.5
t104 145.5q5 7 12 2t3 -12q-48 -77 -106.5 -147t-134.5 -123q-29 -21 -65 -38.5t-79 -16.5q-31 0 -53 14.5t-37 35.5q-25 37 -35 90.5t-8 112.5t13 119.5t31 111.5q19 48 41 90t45 76q-82 9 -163.5 14.5t-162.5 -5.5h-1q-79 -7 -152 -44.5t-113 -107.5q-4 -7 -12 -3t-3 12
q29 50 73.5 83.5t98 52.5t107.5 24q86 10 170.5 4t168.5 -15q68 96 142.5 142.5t135.5 53.5q39 5 74 -6t53 -36.5t6 -66.5q-5 -16 -16 -34.5t-29 -34.5q-31 -26 -69 -35t-75 -11q-47 -2 -95 0.5t-94 7.5zM904 731q-48 -6 -111 -43t-125 -117q44 -5 88 -7t88 -1q36 2 71.5 11
t62.5 32q12 10 22 23t15 29q8 26 -6 44.5t-42.5 26t-62.5 2.5z" />
    <glyph glyph-name="ccaron" unicode="&#x10d;" horiz-adv-x="479" 
d="M122 766h60q56 -36 107 -92q62 62 109 92h62v-13q-100 -100 -125 -147h-90q-29 50 -123 147v13zM444 242q0 -3 -2 -5q-48 -77 -107.5 -148.5t-133.5 -121.5q-59 -39 -111 -39q-21 0 -40.5 5.5t-35.5 17.5q-31 22 -44 54.5t-13 70.5q0 35 10.5 72t26.5 70q31 58 74 85.5
t82 27.5q32 0 47.5 -18.5t15.5 -44.5q0 -29 -19 -61q-3 -5 -10.5 -1t-0.5 15q4 6 9 20t5 30q0 13 -7 25t-25 16q-2 1 -4.5 0.5t-4.5 -0.5q-26 0 -58 -29.5t-57 -77.5q-23 -43 -33 -80t-10 -69q0 -38 12.5 -64t33.5 -38q21 -9 46 -9q22 0 48 8.5t54 27.5q71 49 130.5 119.5
t106.5 146.5q2 4 7 4q8 0 8 -9z" />
    <glyph glyph-name="Dcaron" unicode="&#x10e;" horiz-adv-x="729" 
d="M170 931h60q56 -36 107 -92q62 62 109 92h62v-13q-100 -100 -125 -147h-90q-29 50 -123 147v13zM368 751l-4 -14l-4 -14q51 35 102 46q13 3 25.5 3.5t25.5 0.5q74 0 136 -44q54 -39 90 -104t44 -149t-22 -178q-21 -65 -62.5 -126.5t-99 -113.5t-125.5 -87.5t-140 -48.5
q-115 -20 -186 4t-106 70t-38.5 100t12.5 96q25 64 78 101.5t121 47.5q23 83 50.5 184.5t63.5 236.5q3 12 14 13.5t19.5 -5t5.5 -19.5zM494 753q-46 1 -79 -16.5t-62 -41.5q-29 -109 -53.5 -193.5t-46.5 -157.5q67 2 137 -24t129 -80q6 -6 0 -12t-12 0q-58 53 -126 77
t-133 22q-23 -77 -44.5 -145.5t-42.5 -142.5q-3 -11 -11 -12.5t-14 4.5t-3 20q20 71 39 136t38 136q-61 -11 -108.5 -45t-69.5 -91q-15 -37 -11 -88t35 -93q27 -36 80 -58.5t138 -15.5q71 6 143 42.5t135 93t109 120.5q40 59 59 119q21 67 22.5 128t-14.5 112
q-14 47 -47 94.5t-81 79t-106 32.5z" />
    <glyph glyph-name="dcaron" unicode="&#x10f;" horiz-adv-x="615" 
d="M575 612q11 32 20.5 77.5t12.5 70.5h87v-9q-6 -26 -27 -71t-45 -80h-48v12zM153 312q-26 0 -59 -28.5t-53 -72.5q-12 -25 -17 -53t-5 -53q0 -30 7.5 -51t22.5 -23h2q14 0 32 19.5t36.5 49.5t34 60t25.5 51q4 15 8 29.5t9 29.5q-1 14 -10.5 28t-32.5 14zM578 743h-1
q-23 0 -51.5 -17t-56.5 -45.5t-52 -62.5q-52 -76 -97.5 -160.5t-76.5 -174.5q95 47 177 112.5t135 131.5q57 71 71 129q3 14 3 27q0 24 -12 42t-39 18zM613 757q33 -29 33 -73q0 -8 -0.5 -16t-2.5 -16q-7 -32 -27 -65.5t-48 -69.5q-56 -71 -144 -139.5t-189 -116.5
q-20 -62 -31 -121t-11 -107q0 -14 1 -27t3 -25q4 -29 19 -39t32 -10q10 0 20.5 2t18.5 5q20 7 39.5 18t37.5 24q74 51 132 120.5t105 145.5q5 7 12 2t2 -12q-48 -77 -106.5 -147t-134.5 -123q-32 -21 -68 -38t-77 -17h-1q-20 0 -42 13t-28 50q-2 15 -3.5 30t-1.5 31
q0 52 12 111q-15 -30 -35 -60.5t-40 -51.5t-39 -21h-3q-35 4 -52 36.5t-17 75.5q0 22 4.5 46t13.5 46q13 34 38.5 59.5t55 39.5t55.5 14q2 0 4.5 -0.5t4.5 -0.5q36 -5 50 -34q30 86 72.5 170t95.5 157q31 44 60.5 75t57.5 49q17 12 36.5 19t38.5 7q13 0 24.5 -3.5
t22.5 -12.5z" />
    <glyph glyph-name="Dcroat" unicode="&#x110;" horiz-adv-x="729" 
d="M494 753v0q-46 1 -79 -16.5t-62 -41.5q-16 -59 -30.5 -111t-27.5 -98h124h1q13 0 13 -13q0 -14 -13 -14h-1h-132q-9 -30 -17.5 -59t-16.5 -56q67 2 137 -24t129 -80q6 -6 0 -12t-12 0q-58 53 -126 77t-133 22q-23 -77 -44.5 -145.5t-42.5 -142.5q-3 -11 -11 -12.5
t-14 4.5t-3 20q20 71 39 136t38 136q-61 -11 -108.5 -45t-69.5 -91q-15 -37 -11 -88t35 -93q27 -36 80 -58.5t138 -15.5q71 6 143 42.5t135 93t109 120.5q40 59 59 119q21 67 22.5 128t-14.5 112q-14 47 -47 94.5t-81 79t-106 32.5zM368 751v0q-2 -8 -4 -14.5t-4 -13.5
q51 35 102 46q13 3 25.5 3.5t25.5 0.5q74 0 136 -44q54 -39 90 -104t44 -149t-22 -178q-21 -65 -62.5 -126.5t-99 -113.5t-125.5 -87.5t-140 -48.5q-115 -20 -186 3.5t-106 70.5q-34 46 -38 100t12 96q25 64 78.5 101.5t120.5 47.5q15 54 33 118h-105h-1q-13 0 -13 14
q0 13 13 13h1h112q16 59 34 127t40 149q3 12 14 13.5t19.5 -5.5t5.5 -19z" />
    <glyph glyph-name="dcroat" unicode="&#x111;" horiz-adv-x="617" 
d="M275 -10q-104 0 -162 72t-58 203q0 132 57.5 205t162.5 73q109 0 167 -79h6q-1 7 -3.5 33.5t-2.5 46.5v61h-213v66h213v89h88v-89h76v-66h-76v-605h-72l-13 72h-4q-56 -82 -166 -82zM290 63q80 0 116.5 43t36.5 142v17q0 112 -37 158.5t-118 46.5q-68 0 -104.5 -52
t-36.5 -154q0 -96 35 -148.5t108 -52.5z" />
    <glyph glyph-name="Emacron" unicode="&#x112;" horiz-adv-x="556" 
d="M148 842h297v-71h-297v71zM580 476q-28 0 -60 -9q-58 -17 -103.5 -57.5t-75.5 -78.5q-28 -35 -52.5 -84t-37 -101.5t-6 -98.5t39.5 -75q32 -28 81.5 -37t111.5 6q22 6 43 15t41 23q71 49 129.5 119.5t105.5 146.5q5 7 12 2t3 -12q-45 -71 -99.5 -138t-120.5 -117
q-34 -27 -78 -43.5t-87 -21.5q-61 -7 -112 8t-83.5 51t-37.5 90q-5 55 12.5 111t51.5 107t78.5 93.5t94 71.5t97.5 39q-32 15 -45.5 48.5t-0.5 80.5q-58 7 -124 17.5t-130 13.5t-118.5 -10t-90.5 -52q-6 -6 -12.5 0t-0.5 12q38 42 94.5 56t123 11t134 -13t128.5 -18
q16 46 48 77.5t70 48t73 16.5q10 0 15 -1q36 -4 54 -26t18 -48.5t-16 -42.5q-38 -38 -98.5 -45t-128.5 0q-11 -39 -3 -73t36 -42q12 -3 26 -3q9 0 9 -9q0 -8 -9 -8zM623 732q-32 -14 -58.5 -42t-39.5 -62q63 -6 120.5 0.5t90.5 39.5q10 10 12 27.5t-9 33.5q-11 15 -33 17
t-45 -3t-38 -11z" />
    <glyph glyph-name="emacron" unicode="&#x113;" horiz-adv-x="563" 
d="M150 677h297v-71h-297v71zM154 312q-26 0 -58 -29.5t-58 -77.5q-12 -23 -20 -44t-13 -40q41 6 81 22.5t70 44.5t37 68q1 3 1 6v6q0 15 -9 29.5t-31 14.5zM-8 218q31 58 74 85.5t82 27.5q32 0 47.5 -18.5t15.5 -44.5q0 -3 -0.5 -6t-0.5 -6q-2 -12 -7.5 -25t-10.5 -24
q-17 -29 -47.5 -50.5t-68.5 -35t-75 -18.5q-2 -12 -3 -22.5t-1 -21.5q0 -44 17 -72.5t43 -37.5q13 -4 31 -4q22 0 47.5 8.5t53.5 27.5q71 49 130.5 119.5t106.5 146.5q4 6 10 3.5t6 -8.5q0 -1 -2 -5q-48 -77 -107.5 -148.5t-133.5 -121.5q-59 -39 -112 -39q-21 0 -40 5.5
t-35 17.5q-31 22 -44.5 54.5t-13.5 70.5q0 35 11 72t27 70z" />
    <glyph glyph-name="Ebreve" unicode="&#x114;" horiz-adv-x="556" 
d="M299 771q-69 0 -108.5 33.5t-44.5 100.5h54q4 -35 24.5 -49t76.5 -14q49 0 73 15.5t28 47.5h55q-6 -64 -48 -99t-110 -35zM580 476q-28 0 -60 -9q-58 -17 -103.5 -57.5t-75.5 -78.5q-28 -35 -52.5 -84t-37 -101.5t-6 -98.5t39.5 -75q32 -28 81.5 -37t111.5 6q22 6 43 15
t41 23q71 49 129.5 119.5t105.5 146.5q5 7 12 2t3 -12q-45 -71 -99.5 -138t-120.5 -117q-34 -27 -78 -43.5t-87 -21.5q-61 -7 -112 8t-83.5 51t-37.5 90q-5 55 12.5 111t51.5 107t78.5 93.5t94 71.5t97.5 39q-32 15 -45.5 48.5t-0.5 80.5q-58 7 -124 17.5t-130 13.5
t-118.5 -10t-90.5 -52q-6 -6 -12.5 0t-0.5 12q38 42 94.5 56t123 11t134 -13t128.5 -18q16 46 48 77.5t70 48t73 16.5q10 0 15 -1q36 -4 54 -26t18 -48.5t-16 -42.5q-38 -38 -98.5 -45t-128.5 0q-11 -39 -3 -73t36 -42q12 -3 26 -3q9 0 9 -9q0 -8 -9 -8zM623 732
q-32 -14 -58.5 -42t-39.5 -62q63 -6 120.5 0.5t90.5 39.5q10 10 12 27.5t-9 33.5q-11 15 -33 17t-45 -3t-38 -11z" />
    <glyph glyph-name="ebreve" unicode="&#x115;" horiz-adv-x="563" 
d="M292 606q-69 0 -108.5 33.5t-44.5 100.5h54q4 -35 24.5 -49t76.5 -14q49 0 73 15.5t28 47.5h55q-6 -64 -48 -99t-110 -35zM154 312q-26 0 -58 -29.5t-58 -77.5q-12 -23 -20 -44t-13 -40q41 6 81 22.5t70 44.5t37 68q1 3 1 6v6q0 15 -9 29.5t-31 14.5zM-8 218
q31 58 74 85.5t82 27.5q32 0 47.5 -18.5t15.5 -44.5q0 -3 -0.5 -6t-0.5 -6q-2 -12 -7.5 -25t-10.5 -24q-17 -29 -47.5 -50.5t-68.5 -35t-75 -18.5q-2 -12 -3 -22.5t-1 -21.5q0 -44 17 -72.5t43 -37.5q13 -4 31 -4q22 0 47.5 8.5t53.5 27.5q71 49 130.5 119.5t106.5 146.5
q4 6 10 3.5t6 -8.5q0 -1 -2 -5q-48 -77 -107.5 -148.5t-133.5 -121.5q-59 -39 -112 -39q-21 0 -40 5.5t-35 17.5q-31 22 -44.5 54.5t-13.5 70.5q0 35 11 72t27 70z" />
    <glyph glyph-name="Edotaccent" unicode="&#x116;" horiz-adv-x="556" 
d="M253 832q0 29 15 42.5t37 13.5q21 0 36 -13.5t15 -42.5t-15.5 -42.5t-35.5 -13.5q-22 0 -37 13.5t-15 42.5zM580 476q-28 0 -60 -9q-58 -17 -103.5 -57.5t-75.5 -78.5q-28 -35 -52.5 -84t-37 -101.5t-6 -98.5t39.5 -75q32 -28 81.5 -37t111.5 6q22 6 43 15t41 23
q71 49 129.5 119.5t105.5 146.5q5 7 12 2t3 -12q-45 -71 -99.5 -138t-120.5 -117q-34 -27 -78 -43.5t-87 -21.5q-61 -7 -112 8t-83.5 51t-37.5 90q-5 55 12.5 111t51.5 107t78.5 93.5t94 71.5t97.5 39q-32 15 -45.5 48.5t-0.5 80.5q-58 7 -124 17.5t-130 13.5t-118.5 -10
t-90.5 -52q-6 -6 -12.5 0t-0.5 12q38 42 94.5 56t123 11t134 -13t128.5 -18q16 46 48 77.5t70 48t73 16.5q10 0 15 -1q36 -4 54 -26t18 -48.5t-16 -42.5q-38 -38 -98.5 -45t-128.5 0q-11 -39 -3 -73t36 -42q12 -3 26 -3q9 0 9 -9q0 -8 -9 -8zM623 732q-32 -14 -58.5 -42
t-39.5 -62q63 -6 120.5 0.5t90.5 39.5q10 10 12 27.5t-9 33.5q-11 15 -33 17t-45 -3t-38 -11z" />
    <glyph glyph-name="edotaccent" unicode="&#x117;" horiz-adv-x="563" 
d="M243 681q0 29 15 42.5t37 13.5q21 0 36 -13.5t15 -42.5t-15.5 -42.5t-35.5 -13.5q-22 0 -37 13.5t-15 42.5zM154 312q-26 0 -58 -29.5t-58 -77.5q-12 -23 -20 -44t-13 -40q41 6 81 22.5t70 44.5t37 68q1 3 1 6v6q0 15 -9 29.5t-31 14.5zM-8 218q31 58 74 85.5t82 27.5
q32 0 47.5 -18.5t15.5 -44.5q0 -3 -0.5 -6t-0.5 -6q-2 -12 -7.5 -25t-10.5 -24q-17 -29 -47.5 -50.5t-68.5 -35t-75 -18.5q-2 -12 -3 -22.5t-1 -21.5q0 -44 17 -72.5t43 -37.5q13 -4 31 -4q22 0 47.5 8.5t53.5 27.5q71 49 130.5 119.5t106.5 146.5q4 6 10 3.5t6 -8.5
q0 -1 -2 -5q-48 -77 -107.5 -148.5t-133.5 -121.5q-59 -39 -112 -39q-21 0 -40 5.5t-35 17.5q-31 22 -44.5 54.5t-13.5 70.5q0 35 11 72t27 70z" />
    <glyph glyph-name="Eogonek" unicode="&#x118;" horiz-adv-x="556" 
d="M392 -116q0 -22 12 -33.5t33 -11.5t48 6v-56q-34 -9 -62 -9q-103 0 -103 94q0 68 78 126h62q-34 -32 -51 -58.5t-17 -57.5zM580 476q-28 0 -60 -9q-58 -17 -103.5 -57.5t-75.5 -78.5q-28 -35 -52.5 -84t-37 -101.5t-6 -98.5t39.5 -75q32 -28 81.5 -37t111.5 6q22 6 43 15
t41 23q71 49 129.5 119.5t105.5 146.5q5 7 12 2t3 -12q-45 -71 -99.5 -138t-120.5 -117q-34 -27 -78 -43.5t-87 -21.5q-61 -7 -112 8t-83.5 51t-37.5 90q-5 55 12.5 111t51.5 107t78.5 93.5t94 71.5t97.5 39q-32 15 -45.5 48.5t-0.5 80.5q-58 7 -124 17.5t-130 13.5
t-118.5 -10t-90.5 -52q-6 -6 -12.5 0t-0.5 12q38 42 94.5 56t123 11t134 -13t128.5 -18q16 46 48 77.5t70 48t73 16.5q10 0 15 -1q36 -4 54 -26t18 -48.5t-16 -42.5q-38 -38 -98.5 -45t-128.5 0q-11 -39 -3 -73t36 -42q12 -3 26 -3q9 0 9 -9q0 -8 -9 -8zM623 732
q-32 -14 -58.5 -42t-39.5 -62q63 -6 120.5 0.5t90.5 39.5q10 10 12 27.5t-9 33.5q-11 15 -33 17t-45 -3t-38 -11z" />
    <glyph glyph-name="eogonek" unicode="&#x119;" horiz-adv-x="563" 
d="M387 -102q0 -22 12 -33.5t33 -11.5t48 6v-56q-34 -9 -62 -9q-103 0 -103 94q0 68 78 126h62q-34 -32 -51 -58.5t-17 -57.5zM154 312q-26 0 -58 -29.5t-58 -77.5q-12 -23 -20 -44t-13 -40q41 6 81 22.5t70 44.5t37 68q1 3 1 6v6q0 15 -9 29.5t-31 14.5zM-8 218
q31 58 74 85.5t82 27.5q32 0 47.5 -18.5t15.5 -44.5q0 -3 -0.5 -6t-0.5 -6q-2 -12 -7.5 -25t-10.5 -24q-17 -29 -47.5 -50.5t-68.5 -35t-75 -18.5q-2 -12 -3 -22.5t-1 -21.5q0 -44 17 -72.5t43 -37.5q13 -4 31 -4q22 0 47.5 8.5t53.5 27.5q71 49 130.5 119.5t106.5 146.5
q4 6 10 3.5t6 -8.5q0 -1 -2 -5q-48 -77 -107.5 -148.5t-133.5 -121.5q-59 -39 -112 -39q-21 0 -40 5.5t-35 17.5q-31 22 -44.5 54.5t-13.5 70.5q0 35 11 72t27 70z" />
    <glyph glyph-name="Ecaron" unicode="&#x11a;" horiz-adv-x="556" 
d="M133 931h60q56 -36 107 -92q62 62 109 92h62v-13q-100 -100 -125 -147h-90q-29 50 -123 147v13zM580 476q-28 0 -60 -9q-58 -17 -103.5 -57.5t-75.5 -78.5q-28 -35 -52.5 -84t-37 -101.5t-6 -98.5t39.5 -75q32 -28 81.5 -37t111.5 6q22 6 43 15t41 23q71 49 129.5 119.5
t105.5 146.5q5 7 12 2t3 -12q-45 -71 -99.5 -138t-120.5 -117q-34 -27 -78 -43.5t-87 -21.5q-61 -7 -112 8t-83.5 51t-37.5 90q-5 55 12.5 111t51.5 107t78.5 93.5t94 71.5t97.5 39q-32 15 -45.5 48.5t-0.5 80.5q-58 7 -124 17.5t-130 13.5t-118.5 -10t-90.5 -52
q-6 -6 -12.5 0t-0.5 12q38 42 94.5 56t123 11t134 -13t128.5 -18q16 46 48 77.5t70 48t73 16.5q10 0 15 -1q36 -4 54 -26t18 -48.5t-16 -42.5q-38 -38 -98.5 -45t-128.5 0q-11 -39 -3 -73t36 -42q12 -3 26 -3q9 0 9 -9q0 -8 -9 -8zM623 732q-32 -14 -58.5 -42t-39.5 -62
q63 -6 120.5 0.5t90.5 39.5q10 10 12 27.5t-9 33.5q-11 15 -33 17t-45 -3t-38 -11z" />
    <glyph glyph-name="ecaron" unicode="&#x11b;" horiz-adv-x="563" 
d="M126 766h60q56 -36 107 -92q62 62 109 92h62v-13q-100 -100 -125 -147h-90q-29 50 -123 147v13zM154 312q-26 0 -58 -29.5t-58 -77.5q-12 -23 -20 -44t-13 -40q41 6 81 22.5t70 44.5t37 68q1 3 1 6v6q0 15 -9 29.5t-31 14.5zM-8 218q31 58 74 85.5t82 27.5
q32 0 47.5 -18.5t15.5 -44.5q0 -3 -0.5 -6t-0.5 -6q-2 -12 -7.5 -25t-10.5 -24q-17 -29 -47.5 -50.5t-68.5 -35t-75 -18.5q-2 -12 -3 -22.5t-1 -21.5q0 -44 17 -72.5t43 -37.5q13 -4 31 -4q22 0 47.5 8.5t53.5 27.5q71 49 130.5 119.5t106.5 146.5q4 6 10 3.5t6 -8.5
q0 -1 -2 -5q-48 -77 -107.5 -148.5t-133.5 -121.5q-59 -39 -112 -39q-21 0 -40 5.5t-35 17.5q-31 22 -44.5 54.5t-13.5 70.5q0 35 11 72t27 70z" />
    <glyph glyph-name="Gcircumflex" unicode="&#x11c;" horiz-adv-x="728" 
d="M248 782q61 65 86 96.5t37 52.5h90q25 -49 125 -149v-11h-62q-44 26 -109 90q-64 -62 -107 -90h-60v11zM1019 775q11 0 19.5 -0.5t14.5 -1.5q31 -4 49.5 -18t23.5 -32t0 -36t-18 -31q-27 -27 -71 -38.5t-97 -12t-107 5t-101 13.5q-38 -34 -71.5 -77t-56.5 -95
q-36 -80 -44 -152.5t7.5 -129.5t49 -91t79.5 -37q50 -3 104 20.5t104.5 77.5t89.5 145v1q3 10 15.5 11.5t23.5 -4t8 -14.5q-12 -49 -30 -113t-45 -138q52 22 109 51.5t108 70t84 96.5q5 8 12 4t2 -12q-37 -61 -92.5 -105t-117 -74.5t-114.5 -52.5q-38 -100 -95 -211
t-139 -223q-35 -46 -70 -71t-67 -33q-37 -9 -66.5 1t-45.5 31q-40 50 -40 101.5t25 99t61 85.5q63 69 165 128t230 98q22 58 38 110.5t28 97.5q-47 -84 -105.5 -130.5t-118.5 -59t-112 5.5q-45 16 -80 51t-51 87t-12 118t35 143q26 65 59.5 114t71.5 86q-68 11 -147 24
t-157 21.5t-143 5.5q-71 -4 -123.5 -24t-78.5 -67q-5 -7 -12 -3t-3 12q29 51 86 73t130 26q68 3 149.5 -6t163.5 -23t152 -25q35 31 70 52.5t70 35.5q58 23 109 30.5t85 7.5zM750 639q69 -10 131 -15q73 -4 129.5 5t86.5 39q20 20 12 51q-7 20 -29 29.5t-49 9.5
q-55 0 -131.5 -30t-149.5 -89zM907 -8q-122 -38 -219.5 -96t-156.5 -122q-62 -68 -76 -137q-6 -32 0.5 -62.5t27.5 -59.5q22 -27 51 -28.5t60.5 16.5t61.5 49.5t54 70.5q19 30 38.5 58.5t35.5 57.5q39 66 68.5 127.5t54.5 125.5z" />
    <glyph glyph-name="gcircumflex" unicode="&#x11d;" horiz-adv-x="615" 
d="M132 617q61 65 86 96.5t37 52.5h90q25 -49 125 -149v-11h-62q-44 26 -109 90q-64 -62 -107 -90h-60v11zM111 -13q-94 -41 -177 -102t-142 -128q-32 -36 -55 -72t-36 -68q-10 -26 -10 -55q0 -31 14.5 -53.5t44.5 -22.5q22 0 50 14q31 16 60.5 49t55.5 74q19 30 38.5 58.5
t35.5 57.5q38 65 67 125t54 123zM151 312q-26 0 -59 -28.5t-53 -72.5q-13 -27 -19 -55.5t-6 -52.5t6.5 -40.5t20.5 -18.5h2q13 0 32.5 16.5t40 42t38.5 51.5t28 46q2 9 4 17.5t4 16.5q1 5 2 11.5t1 14.5q0 19 -8.5 35.5t-33.5 16.5zM204 291q2 6 3 11.5t2 10.5q3 10 18 10
q10 0 18 -3.5t8 -11.5q0 -32 -12 -77t-30.5 -97.5t-38.5 -105.5q52 22 109 51.5t108 70t84 96.5q4 6 10 4t6 -8l-2 -4q-37 -61 -92.5 -105t-117 -74.5t-114.5 -52.5q-38 -99 -94.5 -209t-136.5 -220q-38 -53 -75 -82t-68 -37q-13 -3 -24 -3q-26 0 -46 13.5t-33 32.5
q-8 12 -10.5 25.5t-2.5 29.5q0 17 4 35t9 32q14 35 37 72t56 74q63 71 152 135.5t189 105.5q14 34 24.5 66.5t19.5 62.5q-18 -27 -39 -53t-42.5 -43t-39.5 -17h-4q-34 4 -48.5 32t-14.5 65q0 23 4.5 47.5t14.5 47.5q13 34 38.5 59.5t55 39.5t55.5 14t40 -11.5t20 -28.5z" />
    <glyph glyph-name="Gbreve" unicode="&#x11e;" horiz-adv-x="728" 
d="M414 771q-69 0 -108.5 33.5t-44.5 100.5h54q4 -35 24.5 -49t76.5 -14q49 0 73 15.5t28 47.5h55q-6 -64 -48 -99t-110 -35zM1019 775q11 0 19.5 -0.5t14.5 -1.5q31 -4 49.5 -18t23.5 -32t0 -36t-18 -31q-27 -27 -71 -38.5t-97 -12t-107 5t-101 13.5q-38 -34 -71.5 -77
t-56.5 -95q-36 -80 -44 -152.5t7.5 -129.5t49 -91t79.5 -37q50 -3 104 20.5t104.5 77.5t89.5 145v1q3 10 15.5 11.5t23.5 -4t8 -14.5q-12 -49 -30 -113t-45 -138q52 22 109 51.5t108 70t84 96.5q5 8 12 4t2 -12q-37 -61 -92.5 -105t-117 -74.5t-114.5 -52.5
q-38 -100 -95 -211t-139 -223q-35 -46 -70 -71t-67 -33q-37 -9 -66.5 1t-45.5 31q-40 50 -40 101.5t25 99t61 85.5q63 69 165 128t230 98q22 58 38 110.5t28 97.5q-47 -84 -105.5 -130.5t-118.5 -59t-112 5.5q-45 16 -80 51t-51 87t-12 118t35 143q26 65 59.5 114t71.5 86
q-68 11 -147 24t-157 21.5t-143 5.5q-71 -4 -123.5 -24t-78.5 -67q-5 -7 -12 -3t-3 12q29 51 86 73t130 26q68 3 149.5 -6t163.5 -23t152 -25q35 31 70 52.5t70 35.5q58 23 109 30.5t85 7.5zM750 639q69 -10 131 -15q73 -4 129.5 5t86.5 39q20 20 12 51q-7 20 -29 29.5
t-49 9.5q-55 0 -131.5 -30t-149.5 -89zM907 -8q-122 -38 -219.5 -96t-156.5 -122q-62 -68 -76 -137q-6 -32 0.5 -62.5t27.5 -59.5q22 -27 51 -28.5t60.5 16.5t61.5 49.5t54 70.5q19 30 38.5 58.5t35.5 57.5q39 66 68.5 127.5t54.5 125.5z" />
    <glyph glyph-name="gbreve" unicode="&#x11f;" horiz-adv-x="615" 
d="M300 606q-69 0 -108.5 33.5t-44.5 100.5h54q4 -35 24.5 -49t76.5 -14q49 0 73 15.5t28 47.5h55q-6 -64 -48 -99t-110 -35zM111 -13q-94 -41 -177 -102t-142 -128q-32 -36 -55 -72t-36 -68q-10 -26 -10 -55q0 -31 14.5 -53.5t44.5 -22.5q22 0 50 14q31 16 60.5 49t55.5 74
q19 30 38.5 58.5t35.5 57.5q38 65 67 125t54 123zM151 312q-26 0 -59 -28.5t-53 -72.5q-13 -27 -19 -55.5t-6 -52.5t6.5 -40.5t20.5 -18.5h2q13 0 32.5 16.5t40 42t38.5 51.5t28 46q2 9 4 17.5t4 16.5q1 5 2 11.5t1 14.5q0 19 -8.5 35.5t-33.5 16.5zM204 291q2 6 3 11.5
t2 10.5q3 10 18 10q10 0 18 -3.5t8 -11.5q0 -32 -12 -77t-30.5 -97.5t-38.5 -105.5q52 22 109 51.5t108 70t84 96.5q4 6 10 4t6 -8l-2 -4q-37 -61 -92.5 -105t-117 -74.5t-114.5 -52.5q-38 -99 -94.5 -209t-136.5 -220q-38 -53 -75 -82t-68 -37q-13 -3 -24 -3
q-26 0 -46 13.5t-33 32.5q-8 12 -10.5 25.5t-2.5 29.5q0 17 4 35t9 32q14 35 37 72t56 74q63 71 152 135.5t189 105.5q14 34 24.5 66.5t19.5 62.5q-18 -27 -39 -53t-42.5 -43t-39.5 -17h-4q-34 4 -48.5 32t-14.5 65q0 23 4.5 47.5t14.5 47.5q13 34 38.5 59.5t55 39.5
t55.5 14t40 -11.5t20 -28.5z" />
    <glyph glyph-name="Gdotaccent" unicode="&#x120;" horiz-adv-x="728" 
d="M371 846q0 29 15 42.5t37 13.5q21 0 36 -13.5t15 -42.5t-15.5 -42.5t-35.5 -13.5q-22 0 -37 13.5t-15 42.5zM1019 775q11 0 19.5 -0.5t14.5 -1.5q31 -4 49.5 -18t23.5 -32t0 -36t-18 -31q-27 -27 -71 -38.5t-97 -12t-107 5t-101 13.5q-38 -34 -71.5 -77t-56.5 -95
q-36 -80 -44 -152.5t7.5 -129.5t49 -91t79.5 -37q50 -3 104 20.5t104.5 77.5t89.5 145v1q3 10 15.5 11.5t23.5 -4t8 -14.5q-12 -49 -30 -113t-45 -138q52 22 109 51.5t108 70t84 96.5q5 8 12 4t2 -12q-37 -61 -92.5 -105t-117 -74.5t-114.5 -52.5q-38 -100 -95 -211
t-139 -223q-35 -46 -70 -71t-67 -33q-37 -9 -66.5 1t-45.5 31q-40 50 -40 101.5t25 99t61 85.5q63 69 165 128t230 98q22 58 38 110.5t28 97.5q-47 -84 -105.5 -130.5t-118.5 -59t-112 5.5q-45 16 -80 51t-51 87t-12 118t35 143q26 65 59.5 114t71.5 86q-68 11 -147 24
t-157 21.5t-143 5.5q-71 -4 -123.5 -24t-78.5 -67q-5 -7 -12 -3t-3 12q29 51 86 73t130 26q68 3 149.5 -6t163.5 -23t152 -25q35 31 70 52.5t70 35.5q58 23 109 30.5t85 7.5zM750 639q69 -10 131 -15q73 -4 129.5 5t86.5 39q20 20 12 51q-7 20 -29 29.5t-49 9.5
q-55 0 -131.5 -30t-149.5 -89zM907 -8q-122 -38 -219.5 -96t-156.5 -122q-62 -68 -76 -137q-6 -32 0.5 -62.5t27.5 -59.5q22 -27 51 -28.5t60.5 16.5t61.5 49.5t54 70.5q19 30 38.5 58.5t35.5 57.5q39 66 68.5 127.5t54.5 125.5z" />
    <glyph glyph-name="gdotaccent" unicode="&#x121;" horiz-adv-x="615" 
d="M247 681q0 29 15 42.5t37 13.5q21 0 36 -13.5t15 -42.5t-15.5 -42.5t-35.5 -13.5q-22 0 -37 13.5t-15 42.5zM111 -13q-94 -41 -177 -102t-142 -128q-32 -36 -55 -72t-36 -68q-10 -26 -10 -55q0 -31 14.5 -53.5t44.5 -22.5q22 0 50 14q31 16 60.5 49t55.5 74
q19 30 38.5 58.5t35.5 57.5q38 65 67 125t54 123zM151 312q-26 0 -59 -28.5t-53 -72.5q-13 -27 -19 -55.5t-6 -52.5t6.5 -40.5t20.5 -18.5h2q13 0 32.5 16.5t40 42t38.5 51.5t28 46q2 9 4 17.5t4 16.5q1 5 2 11.5t1 14.5q0 19 -8.5 35.5t-33.5 16.5zM204 291q2 6 3 11.5
t2 10.5q3 10 18 10q10 0 18 -3.5t8 -11.5q0 -32 -12 -77t-30.5 -97.5t-38.5 -105.5q52 22 109 51.5t108 70t84 96.5q4 6 10 4t6 -8l-2 -4q-37 -61 -92.5 -105t-117 -74.5t-114.5 -52.5q-38 -99 -94.5 -209t-136.5 -220q-38 -53 -75 -82t-68 -37q-13 -3 -24 -3
q-26 0 -46 13.5t-33 32.5q-8 12 -10.5 25.5t-2.5 29.5q0 17 4 35t9 32q14 35 37 72t56 74q63 71 152 135.5t189 105.5q14 34 24.5 66.5t19.5 62.5q-18 -27 -39 -53t-42.5 -43t-39.5 -17h-4q-34 4 -48.5 32t-14.5 65q0 23 4.5 47.5t14.5 47.5q13 34 38.5 59.5t55 39.5
t55.5 14t40 -11.5t20 -28.5z" />
    <glyph glyph-name="uni0122" unicode="&#x122;" horiz-adv-x="728" 
d="M322 -209q11 25 24 70.5t17 77.5h87v-9q-8 -31 -31.5 -76.5t-48.5 -74.5h-48v12zM1019 775q11 0 19.5 -0.5t14.5 -1.5q31 -4 49.5 -18t23.5 -32t0 -36t-18 -31q-27 -27 -71 -38.5t-97 -12t-107 5t-101 13.5q-38 -34 -71.5 -77t-56.5 -95q-36 -80 -44 -152.5t7.5 -129.5
t49 -91t79.5 -37q50 -3 104 20.5t104.5 77.5t89.5 145v1q3 10 15.5 11.5t23.5 -4t8 -14.5q-12 -49 -30 -113t-45 -138q52 22 109 51.5t108 70t84 96.5q5 8 12 4t2 -12q-37 -61 -92.5 -105t-117 -74.5t-114.5 -52.5q-38 -100 -95 -211t-139 -223q-35 -46 -70 -71t-67 -33
q-37 -9 -66.5 1t-45.5 31q-40 50 -40 101.5t25 99t61 85.5q63 69 165 128t230 98q22 58 38 110.5t28 97.5q-47 -84 -105.5 -130.5t-118.5 -59t-112 5.5q-45 16 -80 51t-51 87t-12 118t35 143q26 65 59.5 114t71.5 86q-68 11 -147 24t-157 21.5t-143 5.5q-71 -4 -123.5 -24
t-78.5 -67q-5 -7 -12 -3t-3 12q29 51 86 73t130 26q68 3 149.5 -6t163.5 -23t152 -25q35 31 70 52.5t70 35.5q58 23 109 30.5t85 7.5zM750 639q69 -10 131 -15q73 -4 129.5 5t86.5 39q20 20 12 51q-7 20 -29 29.5t-49 9.5q-55 0 -131.5 -30t-149.5 -89zM907 -8
q-122 -38 -219.5 -96t-156.5 -122q-62 -68 -76 -137q-6 -32 0.5 -62.5t27.5 -59.5q22 -27 51 -28.5t60.5 16.5t61.5 49.5t54 70.5q19 30 38.5 58.5t35.5 57.5q39 66 68.5 127.5t54.5 125.5z" />
    <glyph glyph-name="uni0123" unicode="&#x123;" horiz-adv-x="615" 
d="M379 754q-13 -29 -26 -74.5t-16 -73.5h-87v9q7 27 31.5 74t48.5 77h49v-12zM111 -13q-94 -41 -177 -102t-142 -128q-32 -36 -55 -72t-36 -68q-10 -26 -10 -55q0 -31 14.5 -53.5t44.5 -22.5q22 0 50 14q31 16 60.5 49t55.5 74q19 30 38.5 58.5t35.5 57.5q38 65 67 125
t54 123zM151 312q-26 0 -59 -28.5t-53 -72.5q-13 -27 -19 -55.5t-6 -52.5t6.5 -40.5t20.5 -18.5h2q13 0 32.5 16.5t40 42t38.5 51.5t28 46q2 9 4 17.5t4 16.5q1 5 2 11.5t1 14.5q0 19 -8.5 35.5t-33.5 16.5zM204 291q2 6 3 11.5t2 10.5q3 10 18 10q10 0 18 -3.5t8 -11.5
q0 -32 -12 -77t-30.5 -97.5t-38.5 -105.5q52 22 109 51.5t108 70t84 96.5q4 6 10 4t6 -8l-2 -4q-37 -61 -92.5 -105t-117 -74.5t-114.5 -52.5q-38 -99 -94.5 -209t-136.5 -220q-38 -53 -75 -82t-68 -37q-13 -3 -24 -3q-26 0 -46 13.5t-33 32.5q-8 12 -10.5 25.5t-2.5 29.5
q0 17 4 35t9 32q14 35 37 72t56 74q63 71 152 135.5t189 105.5q14 34 24.5 66.5t19.5 62.5q-18 -27 -39 -53t-42.5 -43t-39.5 -17h-4q-34 4 -48.5 32t-14.5 65q0 23 4.5 47.5t14.5 47.5q13 34 38.5 59.5t55 39.5t55.5 14t40 -11.5t20 -28.5z" />
    <glyph glyph-name="Hcircumflex" unicode="&#x124;" horiz-adv-x="741" 
d="M200 782q61 65 86 96.5t37 52.5h90q25 -49 125 -149v-11h-62q-44 26 -109 90q-64 -62 -107 -90h-60v11zM607 761q-11 -31 -19 -52t-18 -43q-6 -14 -23 -61.5t-43 -121t-59 -165.5q67 14 132.5 30t119.5 36q32 97 61.5 184t46.5 141q11 32 35 48.5t49 16.5q35 0 54.5 -22
t20.5 -56q2 -45 -25 -103q-24 -55 -66.5 -108t-91.5 -82q-11 -6 -22 -11t-23 -10q-28 -84 -56.5 -165.5t-51.5 -148t-37 -106.5l-14 -40q-3 -10 -12 -11t-16 4.5t-4 14.5l12.5 37t34 99t47 139t52.5 158q-55 -19 -120.5 -35t-131.5 -29q-5 -15 -9 -25.5t-10 -26.5
q-38 -104 -89.5 -174t-110.5 -109q-8 -5 -15.5 -9.5t-15.5 -9.5q-53 -28 -95 -23.5t-66 35.5t-22 82q2 47 28.5 96.5t80 89.5t135.5 56q35 7 73 14t77 14q53 149 87 246t46 125l23 62q-112 -90 -218 -129t-184 -37q-48 2 -87 20t-53 54.5t12 91.5q4 8 11.5 4t3.5 -11
q-16 -33 -14.5 -58t17.5 -43t44 -29t67 -12q52 -1 119 16.5t142.5 58t152.5 107.5q7 5 17 4t17 -6.5t4 -11.5zM901 748q-19 0 -35 -15t-23 -36q-17 -52 -43 -129.5t-56 -164.5q8 4 15 8l14 8q47 26 87.5 77.5t63.5 103.5q22 46 23 95q-1 21 -12 37t-34 16zM394 290
q-37 -7 -72.5 -13t-68.5 -13q-79 -15 -129 -52.5t-74 -84t-26 -88.5q-1 -18 1.5 -33.5t10.5 -28.5q12 -20 32.5 -24.5t43.5 1t43 15.5t32 18q70 46 115 110t81 164q6 17 11 29z" />
    <glyph glyph-name="hcircumflex" unicode="&#x125;" horiz-adv-x="618" 
d="M143 809q61 65 86 96.5t37 52.5h90q25 -49 125 -149v-11h-62q-44 26 -109 90q-64 -62 -107 -90h-60v11zM396 744h-1q-23 0 -51.5 -17t-57 -46t-52.5 -63q-54 -79 -96 -159.5t-76 -174.5q94 46 176 111.5t134 131.5q56 70 70 129q2 7 3 15t1 16v8.5t-2 7.5q-6 21 -19 30.5
t-29 10.5zM430 757q33 -29 33 -73q0 -17 -4 -32q-7 -32 -26 -65.5t-47 -69.5q-56 -71 -144 -139.5t-188 -116.5q-12 -35 -20 -67t-13 -60q44 69 83 104.5t71 48.5q21 9 42 9q29 0 46 -17q5 -5 8.5 -12.5t3.5 -20.5q0 -9 -2 -19.5t-8 -24.5q-22 -49 -44.5 -96t-47.5 -101
q-2 -6 -5 -16.5t-3 -22.5q0 -14 7.5 -25t27.5 -12h4q36 0 69.5 16t63.5 36q73 51 131 120.5t105 145.5q4 6 10 3.5t6 -8.5q0 -3 -1 -5q-48 -77 -106.5 -147t-134.5 -123q-31 -22 -68 -38.5t-77 -16.5h-2h-1q-34 0 -51.5 20.5t-17.5 51.5q0 26 12 53q16 37 32 72.5t32 71.5
q10 23 19.5 43t9.5 34q0 15 -17 15q-8 0 -16 -1.5t-18 -5.5q-32 -14 -76 -57t-95 -135q-1 -2 -3 -4.5t-3 -4.5q-10 -16 -22 -16t-12 21q0 16 1.5 27.5t4.5 28.5q9 60 33 135.5t61.5 156t85.5 157.5q39 64 77 106.5t73 65.5q17 11 36.5 18.5t38.5 7.5q13 0 24 -3.5t22 -12.5z
" />
    <glyph glyph-name="Hbar" unicode="&#x126;" horiz-adv-x="741" 
d="M97 595v119h90v-119h366v119h90v-119h97v-72h-97v-523h-90v333h-366v-333h-90v523h-97v72h97zM553 412v111h-366v-111h366z" />
    <glyph glyph-name="hbar" unicode="&#x127;" horiz-adv-x="618" 
d="M450 0v323q0 65 -29 97t-91 32q-83 0 -120 -45t-37 -149v-258h-88v604h-76v66h76v90h88v-90h212v-66h-212v-87q0 -43 -5 -74h6q26 42 70.5 62.5t97.5 20.5q97 0 146 -47t49 -150v-329h-87z" />
    <glyph glyph-name="Itilde" unicode="&#x128;" horiz-adv-x="338" 
d="M244 772q-21 0 -41 9t-39.5 19.5t-37 19.5t-34.5 9q-24 0 -36 -14.5t-19 -43.5h-51q6 60 34 94t76 34q22 0 42.5 -9t39.5 -19.5t37 -19.5t33 -9q23 0 35.5 14.5t19.5 43.5h50q-6 -58 -34 -93t-75 -35zM668 761q-11 -31 -18 -52t-17 -43q-6 -16 -26 -72t-51.5 -144
t-72.5 -203q-38 -104 -90 -174t-111 -109q-39 -26 -79 -39t-81 -14q-56 -2 -89 31.5t-24 85.5q6 36 33 66t70 46t99 7q8 -1 6.5 -9t-9.5 -7q-55 8 -94 -7t-61 -42.5t-27 -56.5q-3 -18 0 -35.5t14 -30.5q16 -17 43.5 -20.5t59.5 1.5t63 17t54 27q47 30 79 69t57 90t49 118
q61 169 99.5 278.5t51.5 140.5l11 30q-29 -25 -70 -34t-89.5 -9.5t-99.5 1.5q-66 2 -117 -5t-82.5 -35t-39.5 -90q-1 -8 -9.5 -7t-7.5 9q7 52 31 83.5t59 45.5t78 15.5t88 0.5q47 -1 91.5 -1.5t82 6t65.5 25t41 54.5q3 9 13.5 9t20 -5t6.5 -12z" />
    <glyph glyph-name="itilde" unicode="&#x129;" horiz-adv-x="257" 
d="M204 607q-21 0 -41 9t-39.5 19.5t-37 19.5t-34.5 9q-24 0 -36 -14.5t-19 -43.5h-51q6 60 34 94t76 34q22 0 42.5 -9t39.5 -19.5t37 -19.5t33 -9q23 0 35.5 14.5t19.5 43.5h50q-6 -58 -34 -93t-75 -35zM89 309l-9 -17q-18 -34 -40 -79t-40 -92t-26 -88q0 -3 -0.5 -6
t-0.5 -6q0 -23 16 -32.5t36 -9.5q6 0 10 1q23 2 51.5 14.5t58.5 30.5q45 27 91 64.5t83 78.5t59 78q3 5 8 5q8 0 8 -9q0 -3 -1 -4q-23 -40 -61.5 -82t-85 -80t-92.5 -66q-36 -21 -70.5 -35t-65.5 -14q-26 0 -44 12q-16 11 -22 27.5t-6 34.5q0 16 3.5 32.5t7.5 31.5
q13 46 30.5 91t34 81t27.5 54q4 7 14 7q9 0 18.5 -5.5t9.5 -12.5q0 -1 -2 -5z" />
    <glyph glyph-name="Imacron" unicode="&#x12a;" horiz-adv-x="338" 
d="M21 842h297v-71h-297v71zM668 761q-11 -31 -18 -52t-17 -43q-6 -16 -26 -72t-51.5 -144t-72.5 -203q-38 -104 -90 -174t-111 -109q-39 -26 -79 -39t-81 -14q-56 -2 -89 31.5t-24 85.5q6 36 33 66t70 46t99 7q8 -1 6.5 -9t-9.5 -7q-55 8 -94 -7t-61 -42.5t-27 -56.5
q-3 -18 0 -35.5t14 -30.5q16 -17 43.5 -20.5t59.5 1.5t63 17t54 27q47 30 79 69t57 90t49 118q61 169 99.5 278.5t51.5 140.5l11 30q-29 -25 -70 -34t-89.5 -9.5t-99.5 1.5q-66 2 -117 -5t-82.5 -35t-39.5 -90q-1 -8 -9.5 -7t-7.5 9q7 52 31 83.5t59 45.5t78 15.5t88 0.5
q47 -1 91.5 -1.5t82 6t65.5 25t41 54.5q3 9 13.5 9t20 -5t6.5 -12z" />
    <glyph glyph-name="imacron" unicode="&#x12b;" horiz-adv-x="257" 
d="M-18 677h297v-71h-297v71zM89 309l-9 -17q-18 -34 -40 -79t-40 -92t-26 -88q0 -3 -0.5 -6t-0.5 -6q0 -23 16 -32.5t36 -9.5q6 0 10 1q23 2 51.5 14.5t58.5 30.5q45 27 91 64.5t83 78.5t59 78q3 5 8 5q8 0 8 -9q0 -3 -1 -4q-23 -40 -61.5 -82t-85 -80t-92.5 -66
q-36 -21 -70.5 -35t-65.5 -14q-26 0 -44 12q-16 11 -22 27.5t-6 34.5q0 16 3.5 32.5t7.5 31.5q13 46 30.5 91t34 81t27.5 54q4 7 14 7q9 0 18.5 -5.5t9.5 -12.5q0 -1 -2 -5z" />
    <glyph glyph-name="Ibreve" unicode="&#x12c;" horiz-adv-x="338" 
d="M168 771q-69 0 -108.5 33.5t-44.5 100.5h54q4 -35 24.5 -49t76.5 -14q49 0 73 15.5t28 47.5h55q-6 -64 -48 -99t-110 -35zM668 761q-11 -31 -18 -52t-17 -43q-6 -16 -26 -72t-51.5 -144t-72.5 -203q-38 -104 -90 -174t-111 -109q-39 -26 -79 -39t-81 -14q-56 -2 -89 31.5
t-24 85.5q6 36 33 66t70 46t99 7q8 -1 6.5 -9t-9.5 -7q-55 8 -94 -7t-61 -42.5t-27 -56.5q-3 -18 0 -35.5t14 -30.5q16 -17 43.5 -20.5t59.5 1.5t63 17t54 27q47 30 79 69t57 90t49 118q61 169 99.5 278.5t51.5 140.5l11 30q-29 -25 -70 -34t-89.5 -9.5t-99.5 1.5
q-66 2 -117 -5t-82.5 -35t-39.5 -90q-1 -8 -9.5 -7t-7.5 9q7 52 31 83.5t59 45.5t78 15.5t88 0.5q47 -1 91.5 -1.5t82 6t65.5 25t41 54.5q3 9 13.5 9t20 -5t6.5 -12z" />
    <glyph glyph-name="ibreve" unicode="&#x12d;" horiz-adv-x="257" 
d="M126 606q-69 0 -108.5 33.5t-44.5 100.5h54q4 -35 24.5 -49t76.5 -14q49 0 73 15.5t28 47.5h55q-6 -64 -48 -99t-110 -35zM89 309l-9 -17q-18 -34 -40 -79t-40 -92t-26 -88q0 -3 -0.5 -6t-0.5 -6q0 -23 16 -32.5t36 -9.5q6 0 10 1q23 2 51.5 14.5t58.5 30.5
q45 27 91 64.5t83 78.5t59 78q3 5 8 5q8 0 8 -9q0 -3 -1 -4q-23 -40 -61.5 -82t-85 -80t-92.5 -66q-36 -21 -70.5 -35t-65.5 -14q-26 0 -44 12q-16 11 -22 27.5t-6 34.5q0 16 3.5 32.5t7.5 31.5q13 46 30.5 91t34 81t27.5 54q4 7 14 7q9 0 18.5 -5.5t9.5 -12.5q0 -1 -2 -5z
" />
    <glyph glyph-name="Iogonek" unicode="&#x12e;" horiz-adv-x="338" 
d="M160 -116q0 -22 12 -33.5t33 -11.5t48 6v-56q-34 -9 -62 -9q-103 0 -103 94q0 68 78 126h62q-34 -32 -51 -58.5t-17 -57.5zM668 761q-11 -31 -18 -52t-17 -43q-6 -16 -26 -72t-51.5 -144t-72.5 -203q-38 -104 -90 -174t-111 -109q-39 -26 -79 -39t-81 -14
q-56 -2 -89 31.5t-24 85.5q6 36 33 66t70 46t99 7q8 -1 6.5 -9t-9.5 -7q-55 8 -94 -7t-61 -42.5t-27 -56.5q-3 -18 0 -35.5t14 -30.5q16 -17 43.5 -20.5t59.5 1.5t63 17t54 27q47 30 79 69t57 90t49 118q61 169 99.5 278.5t51.5 140.5l11 30q-29 -25 -70 -34t-89.5 -9.5
t-99.5 1.5q-66 2 -117 -5t-82.5 -35t-39.5 -90q-1 -8 -9.5 -7t-7.5 9q7 52 31 83.5t59 45.5t78 15.5t88 0.5q47 -1 91.5 -1.5t82 6t65.5 25t41 54.5q3 9 13.5 9t20 -5t6.5 -12z" />
    <glyph glyph-name="iogonek" unicode="&#x12f;" horiz-adv-x="257" 
d="M97 -116q0 -22 12 -33.5t33 -11.5t48 6v-56q-34 -9 -62 -9q-103 0 -103 94q0 68 78 126h62q-34 -32 -51 -58.5t-17 -57.5zM89 309l-9 -17q-18 -34 -40 -79t-40 -92t-26 -88q0 -3 -0.5 -6t-0.5 -6q0 -23 16 -32.5t36 -9.5q6 0 10 1q23 2 51.5 14.5t58.5 30.5
q45 27 91 64.5t83 78.5t59 78q3 5 8 5q8 0 8 -9q0 -3 -1 -4q-23 -40 -61.5 -82t-85 -80t-92.5 -66q-36 -21 -70.5 -35t-65.5 -14q-26 0 -44 12q-16 11 -22 27.5t-6 34.5q0 16 3.5 32.5t7.5 31.5q13 46 30.5 91t34 81t27.5 54q4 7 14 7q9 0 18.5 -5.5t9.5 -12.5q0 -1 -2 -5z
M110 424q12 0 20 -8t8 -19t-8 -18.5t-20 -7.5q-11 0 -19 7.5t-8 18.5t8 19t19 8z" />
    <glyph glyph-name="Idotaccent" unicode="&#x130;" horiz-adv-x="338" 
d="M117 846q0 29 15 42.5t37 13.5q21 0 36 -13.5t15 -42.5t-15.5 -42.5t-35.5 -13.5q-22 0 -37 13.5t-15 42.5zM668 761q-11 -31 -18 -52t-17 -43q-6 -16 -26 -72t-51.5 -144t-72.5 -203q-38 -104 -90 -174t-111 -109q-39 -26 -79 -39t-81 -14q-56 -2 -89 31.5t-24 85.5
q6 36 33 66t70 46t99 7q8 -1 6.5 -9t-9.5 -7q-55 8 -94 -7t-61 -42.5t-27 -56.5q-3 -18 0 -35.5t14 -30.5q16 -17 43.5 -20.5t59.5 1.5t63 17t54 27q47 30 79 69t57 90t49 118q61 169 99.5 278.5t51.5 140.5l11 30q-29 -25 -70 -34t-89.5 -9.5t-99.5 1.5q-66 2 -117 -5
t-82.5 -35t-39.5 -90q-1 -8 -9.5 -7t-7.5 9q7 52 31 83.5t59 45.5t78 15.5t88 0.5q47 -1 91.5 -1.5t82 6t65.5 25t41 54.5q3 9 13.5 9t20 -5t6.5 -12z" />
    <glyph glyph-name="dotlessi" unicode="&#x131;" horiz-adv-x="367" 
d="M89 309l-9 -17q-18 -34 -40 -79t-40 -92t-26 -88q0 -3 -0.5 -6t-0.5 -6q0 -23 16 -32.5t36 -9.5q6 0 10 1q23 2 51.5 14.5t58.5 30.5q45 27 91 64.5t83 78.5t59 78q3 5 8 5q8 0 8 -9q0 -3 -1 -4q-23 -40 -61.5 -82t-85 -80t-92.5 -66q-36 -21 -70.5 -35t-65.5 -14
q-26 0 -44 12q-16 11 -22 27.5t-6 34.5q0 16 3.5 32.5t7.5 31.5q13 46 30.5 91t34 81t27.5 54q4 7 14 7q9 0 18.5 -5.5t9.5 -12.5q0 -1 -2 -5z" />
    <glyph glyph-name="IJ" unicode="&#x132;" horiz-adv-x="611" 
d="M668 761q-11 -31 -18 -52t-17 -43q-6 -16 -26 -72t-51.5 -144t-72.5 -203q-38 -104 -90 -174t-111 -109q-39 -26 -79 -39t-81 -14q-56 -2 -89 31.5t-24 85.5q6 36 33 66t70 46t99 7q8 -1 6.5 -9t-9.5 -7q-55 8 -94 -7t-61 -42.5t-27 -56.5q-3 -18 0 -35.5t14 -30.5
q16 -17 43.5 -20.5t59.5 1.5t63 17t54 27q47 30 79 69t57 90t49 118q61 169 99.5 278.5t51.5 140.5l11 30q-29 -25 -70 -34t-89.5 -9.5t-99.5 1.5q-66 2 -117 -5t-82.5 -35t-39.5 -90q-1 -8 -9.5 -7t-7.5 9q7 52 31 83.5t59 45.5t78 15.5t88 0.5q47 -1 91.5 -1.5t82 6
t65.5 25t41 54.5q3 9 13.5 9t20 -5t6.5 -12zM1335 726q0 -1 -0.5 -2t-0.5 -2q-23 -50 -68.5 -72.5t-102.5 -29.5q-1 -2 -1 -5t-1 -5q-8 -40 -24.5 -103.5t-40 -142.5t-52 -164.5t-59.5 -168.5q58 25 113.5 55t102 69t77.5 91q3 5 6 5h1q8 0 8 -9q0 -3 -1 -4
q-33 -56 -83 -97.5t-110 -73t-123 -57.5q-36 -94 -72.5 -175.5t-70.5 -133.5q-30 -46 -74.5 -94t-102 -85t-125.5 -51q-46 -11 -84 1t-61 40q-22 27 -30.5 68.5t2.5 82.5q20 75 83.5 125.5t147.5 88.5q78 35 168 65t174 65q33 85 63.5 176t56.5 175t44.5 151.5t26.5 107.5
q-45 -2 -93 -1t-95 0q-99 -1 -172 -21t-117.5 -72t-57.5 -148q-2 -8 -9 -8q-8 0 -8 9l1 1q12 84 46 135.5t84 77.5t110.5 34t122.5 9q61 1 121 0t112.5 5t92 27t59.5 64q1 4 7 4q9 0 9 -7zM800 -276q28 43 59 110.5t63 149.5q-82 -32 -167 -60.5t-159 -62.5
q-83 -37 -143 -85t-79 -117q-8 -29 -5 -60t17 -54q17 -30 51 -36.5t74 0.5q69 13 123.5 47t95.5 79t70 89z" />
    <glyph glyph-name="ij" unicode="&#x133;" horiz-adv-x="514" 
d="M89 309l-9 -17q-18 -34 -40 -79t-40 -92t-26 -88q0 -3 -0.5 -6t-0.5 -6q0 -23 16 -32.5t36 -9.5q6 0 10 1q23 2 51.5 14.5t58.5 30.5q45 27 91 64.5t83 78.5t59 78q3 5 8 5q8 0 8 -9q0 -3 -1 -4q-23 -40 -61.5 -82t-85 -80t-92.5 -66q-36 -21 -70.5 -35t-65.5 -14
q-26 0 -44 12q-16 11 -22 27.5t-6 34.5q0 16 3.5 32.5t7.5 31.5q13 46 30.5 91t34 81t27.5 54q4 7 14 7q9 0 18.5 -5.5t9.5 -12.5q0 -1 -2 -5zM110 424q12 0 20 -8t8 -19t-8 -18.5t-20 -7.5q-11 0 -19 7.5t-8 18.5t8 19t19 8zM345 397q0 -13 -8.5 -19t-19.5 -6
q-10 0 -18.5 6t-8.5 19t8.5 19.5t18.5 6.5q11 0 19.5 -6.5t8.5 -19.5zM324 304q-11 -50 -30.5 -120.5t-51.5 -154.5q52 21 109 51t107.5 71t83.5 96q4 6 10 3.5t6 -8.5q0 -3 -1 -4q-37 -61 -92.5 -104.5t-116.5 -74.5t-114 -52q-39 -100 -96.5 -211.5t-139.5 -223.5
q-38 -52 -73 -79t-67 -35q-6 -2 -12 -2h-12q-26 0 -46.5 13t-32.5 32q-15 24 -15 55q0 30 14 67q14 35 38 71.5t56 73.5q63 71 152 136t189 106q35 92 56.5 170t33.5 133l3 12q3 8 15 8q11 0 20 -4.5t9 -10.5q0 -4 -0.5 -7t-1.5 -7zM180 -12q-93 -41 -176.5 -102.5
t-142.5 -128.5q-67 -74 -91 -140q-11 -28 -11 -58q0 -24 11 -44t41 -27q16 -4 29.5 0t28.5 12q30 17 60.5 50t55.5 73q19 30 38 58.5t36 57.5q38 65 67 125.5t54 123.5z" />
    <glyph glyph-name="Jcircumflex" unicode="&#x134;" horiz-adv-x="272" 
d="M-31 782q61 65 86 96.5t37 52.5h90q25 -49 125 -149v-11h-62q-44 26 -109 90q-64 -62 -107 -90h-60v11zM996 726q0 -1 -0.5 -2t-0.5 -2q-23 -50 -68.5 -72.5t-102.5 -29.5q-1 -2 -1 -5t-1 -5q-8 -40 -24.5 -103.5t-40 -142.5t-52 -164.5t-59.5 -168.5q58 25 113.5 55
t102 69t77.5 91q3 5 6 5h1q8 0 8 -9q0 -3 -1 -4q-33 -56 -83 -97.5t-110 -73t-123 -57.5q-36 -94 -72.5 -175.5t-70.5 -133.5q-30 -46 -74.5 -94t-102 -85t-125.5 -51q-46 -11 -84 1t-61 40q-22 27 -30.5 68.5t2.5 82.5q20 75 83.5 125.5t147.5 88.5q78 35 168 65t174 65
q33 85 63.5 176t56.5 175t44.5 151.5t26.5 107.5q-45 -2 -93 -1t-95 0q-99 -1 -172 -21t-117.5 -72t-57.5 -148q-2 -8 -9 -8q-8 0 -8 9l1 1q12 84 46 135.5t84 77.5t110.5 34t122.5 9q61 1 121 0t112.5 5t92 27t59.5 64q1 4 7 4q9 0 9 -7zM461 -276q28 43 59 110.5t63 149.5
q-82 -32 -167 -60.5t-159 -62.5q-83 -37 -143 -85t-79 -117q-8 -29 -5 -60t17 -54q17 -30 51 -36.5t74 0.5q69 13 123.5 47t95.5 79t70 89z" />
    <glyph glyph-name="jcircumflex" unicode="&#x135;" horiz-adv-x="257" 
d="M-42 617q61 65 86 96.5t37 52.5h90q25 -49 125 -149v-11h-62q-44 26 -109 90q-64 -62 -107 -90h-60v11zM22 -240q-46 0 -77 12v71q34 -10 66 -10q38 0 56 21t18 63v619h88v-616q0 -80 -38.5 -120t-112.5 -40z" />
    <glyph glyph-name="uni0136" unicode="&#x136;" horiz-adv-x="619" 
d="M246 -209q11 25 24 70.5t17 77.5h87v-9q-8 -31 -31.5 -76.5t-48.5 -74.5h-48v12zM564 769q10 -1 16 -8.5t3 -17.5q-26 -93 -51 -190.5t-50 -189.5q69 0 135 23.5t126.5 63t111 87.5t88 98t58.5 94q4 7 11.5 4t3.5 -11q-27 -56 -76.5 -117.5t-116 -116.5t-143.5 -93
t-158 -46q60 -19 100 -62t67 -98t49 -112q18 -49 36 -94.5t40 -79.5t52 -52t76 -14q8 1 9 -7.5t-7 -9.5q-50 -4 -84.5 17.5t-58.5 57.5t-42 81.5t-36 94.5q-17 46 -37.5 91t-48 82.5t-66.5 63.5t-94 34q-7 -23 -13 -46t-13 -45q-33 -113 -68 -202t-78 -136q-7 -8 -17 -5.5
t-14 10.5t6 19q33 38 66 125.5t66 200.5q29 102 58.5 216.5t60.5 226.5q-28 -28 -69.5 -39.5t-91 -14t-101.5 -4.5q-65 -2 -118.5 -11.5t-88 -39t-43.5 -91.5q-1 -8 -10 -6.5t-7 9.5q8 59 38 91t74 46t96 17t104.5 4t100 7.5t82.5 26t50 61.5q3 9 17 7z" />
    <glyph glyph-name="uni0137" unicode="&#x137;" horiz-adv-x="534" 
d="M203 -209q11 25 24 70.5t17 77.5h87v-9q-8 -31 -31.5 -76.5t-48.5 -74.5h-48v12zM201 286q-23 -5 -59 -31t-73 -84q61 6 95 22t48 33.5t18 27.5q1 3 1.5 6t0.5 7q0 13 -9 18t-22 1zM395 744h-1q-24 0 -52 -17t-56 -46t-52 -63q-43 -63 -75 -122t-63 -127
q-10 -22 -18 -43.5t-16 -41.5q94 47 175.5 112t134.5 131q28 35 46 68t24 61q2 7 3 14.5t1 14.5v9t-2 9q-6 23 -19 31.5t-30 9.5zM383 773q28 0 47 -16q33 -27 33 -73q0 -8 -1 -16t-3 -16q-7 -32 -26 -66t-48 -70q-56 -70 -143.5 -138.5t-187.5 -116.5q-12 -35 -20 -66.5
t-13 -59.5q45 86 92.5 126t82.5 48q4 1 8.5 1.5t8.5 -0.5q24 0 38 -19q9 -13 9 -31q0 -14 -6 -29q-13 -29 -52.5 -54.5t-111.5 -32.5q0 -32 6.5 -69t21 -70t37.5 -53.5t56 -20.5q5 0 10 0.5t10 1.5q26 7 51.5 20.5t46.5 27.5q73 52 131 121t105 145q4 4 8 4q8 0 8 -9
q0 -3 -1 -4q-49 -76 -107.5 -147t-133.5 -124q-19 -13 -45.5 -28t-56 -24t-58.5 -3q-11 2 -21 6q-27 10 -46 34.5t-35 59.5q-28 62 -28 121v5q-10 -17 -19.5 -37.5t-18.5 -43.5q-6 -14 -14.5 -21.5t-14.5 -7.5q-12 0 -12 21v5q1 14 4 35t5 37q9 61 33 136t62 155.5t85 157.5
q39 64 77 106.5t72 65.5q37 23 67 26h8z" />
    <glyph glyph-name="kgreenlandic" unicode="&#x138;" horiz-adv-x="534" 
d="M403 536h106l-203 -237l219 -299h-105l-176 242l-66 -54v-188h-93v536h93v-139q0 -68 -6 -135l41 50z" />
    <glyph glyph-name="Lacute" unicode="&#x139;" horiz-adv-x="523" 
d="M816 426q-47 -1 -98 7.5t-104 23.5q-121 34 -218 61t-171 28q-73 1 -123 -32q-25 -17 -45.5 -45.5t-36.5 -72.5q-3 -8 -11.5 -5.5t-5.5 10.5q28 77 78.5 120t143.5 41q77 -2 174.5 -28t219.5 -60q54 -15 105 -23.5t98 -7.5q16 49 32.5 99t33.5 97q19 52 42 82t49 43
q30 14 54 6t40 -30t21 -47q7 -37 -1 -73.5t-21 -58.5q-38 -62 -91.5 -93.5t-121.5 -38.5q-33 -105 -67 -210t-78 -197.5t-107 -161.5q44 -14 92 -31.5t93 -34t81 -28.5q79 -28 156.5 -46.5t140.5 -17.5t106 23.5t56 72.5q2 8 10.5 5.5t6.5 -10.5q-15 -55 -62 -80.5
t-116 -26.5q-66 -1 -145 16.5t-158 46.5q-37 13 -83.5 30.5t-96 35t-94.5 32.5q-45 -46 -94 -71t-97 -29q-36 -4 -56 15.5t-17 47.5q4 33 37.5 61t91.5 26q30 -1 53 -7.5t53 -15.5q63 63 107 153t77.5 193t66.5 206zM996 728q-16 -7 -34.5 -32t-35.5 -72q-16 -43 -31 -87.5
t-30 -90.5q61 8 109.5 37t83.5 86q10 16 17.5 49t2.5 62q-5 26 -28 43.5t-54 4.5zM450 -119q-20 0 -36 -5t-29 -13q-10 -7 -19.5 -17.5t-13.5 -21.5q-7 -20 3 -28.5t28 -9t37 3.5t31 8q25 10 51.5 26t48.5 36q-27 8 -49.5 14.5t-51.5 6.5zM37 1092v0q6 0 11.5 -6t1.5 -12
l-56 -69q-3 -5 -9 -0.5t-3 9.5l47 74q3 4 8 4z" />
    <glyph glyph-name="lacute" unicode="&#x13a;" horiz-adv-x="257" 
d="M400 743q-24 0 -52 -17t-56.5 -45.5t-52.5 -62.5q-7 -10 -14 -21.5t-15 -23.5q-41 -62 -76.5 -131.5t-61.5 -139.5q-2 -4 -4 -9t-3 -10q95 47 177 112.5t135 131.5q56 70 70 129q1 7 3 14t2 15q0 9 -3 18q-6 22 -19.5 31t-29.5 9zM388 773q27 0 47 -16q33 -29 33 -73
q0 -17 -4 -32q-8 -32 -26 -65.5t-47 -69.5q-56 -71 -144 -139.5t-189 -116.5q-20 -62 -31 -121t-11 -107q0 -14 1 -27t3 -25q4 -29 18 -39t31 -10q11 0 21 2t18 5q41 15 79 42q73 51 131 120.5t105 145.5q3 4 7 4q5 0 7.5 -4.5t-0.5 -9.5q-48 -77 -106.5 -147t-134.5 -123
q-32 -21 -68 -38t-77 -17h-1q-21 0 -42.5 14t-28.5 49q-2 14 -3 28.5t-1 30.5q0 61 15.5 133.5t43.5 147.5q29 79 70.5 159t90.5 149q31 44 60.5 75t57.5 49q17 12 34 17.5t33 7.5q2 0 4 0.5t4 0.5zM0 1120v0q6 0 11.5 -6t1.5 -12l-56 -69q-3 -5 -9 -0.5t-3 9.5l47 74
q3 4 8 4z" />
    <glyph glyph-name="uni013B" unicode="&#x13b;" horiz-adv-x="523" 
d="M204 -209q11 25 24 70.5t17 77.5h87v-9q-8 -31 -31.5 -76.5t-48.5 -74.5h-48v12zM816 426q-47 -1 -98 7.5t-104 23.5q-121 34 -218 61t-171 28q-73 1 -123 -32q-25 -17 -45.5 -45.5t-36.5 -72.5q-3 -8 -11.5 -5.5t-5.5 10.5q28 77 78.5 120t143.5 41q77 -2 174.5 -28
t219.5 -60q54 -15 105 -23.5t98 -7.5q16 49 32.5 99t33.5 97q19 52 42 82t49 43q30 14 54 6t40 -30t21 -47q7 -37 -1 -73.5t-21 -58.5q-38 -62 -91.5 -93.5t-121.5 -38.5q-33 -105 -67 -210t-78 -197.5t-107 -161.5q44 -14 92 -31.5t93 -34t81 -28.5q79 -28 156.5 -46.5
t140.5 -17.5t106 23.5t56 72.5q2 8 10.5 5.5t6.5 -10.5q-15 -55 -62 -80.5t-116 -26.5q-66 -1 -145 16.5t-158 46.5q-37 13 -83.5 30.5t-96 35t-94.5 32.5q-45 -46 -94 -71t-97 -29q-36 -4 -56 15.5t-17 47.5q4 33 37.5 61t91.5 26q30 -1 53 -7.5t53 -15.5q63 63 107 153
t77.5 193t66.5 206zM996 728q-16 -7 -34.5 -32t-35.5 -72q-16 -43 -31 -87.5t-30 -90.5q61 8 109.5 37t83.5 86q10 16 17.5 49t2.5 62q-5 26 -28 43.5t-54 4.5zM450 -119q-20 0 -36 -5t-29 -13q-10 -7 -19.5 -17.5t-13.5 -21.5q-7 -20 3 -28.5t28 -9t37 3.5t31 8
q25 10 51.5 26t48.5 36q-27 8 -49.5 14.5t-51.5 6.5z" />
    <glyph glyph-name="uni013C" unicode="&#x13c;" horiz-adv-x="257" 
d="M45 -209q11 25 24 70.5t17 77.5h87v-9q-8 -31 -31.5 -76.5t-48.5 -74.5h-48v12zM400 743q-24 0 -52 -17t-56.5 -45.5t-52.5 -62.5q-7 -10 -14 -21.5t-15 -23.5q-41 -62 -76.5 -131.5t-61.5 -139.5q-2 -4 -4 -9t-3 -10q95 47 177 112.5t135 131.5q56 70 70 129q1 7 3 14
t2 15q0 9 -3 18q-6 22 -19.5 31t-29.5 9zM388 773q27 0 47 -16q33 -29 33 -73q0 -17 -4 -32q-8 -32 -26 -65.5t-47 -69.5q-56 -71 -144 -139.5t-189 -116.5q-20 -62 -31 -121t-11 -107q0 -14 1 -27t3 -25q4 -29 18 -39t31 -10q11 0 21 2t18 5q41 15 79 42q73 51 131 120.5
t105 145.5q3 4 7 4q5 0 7.5 -4.5t-0.5 -9.5q-48 -77 -106.5 -147t-134.5 -123q-32 -21 -68 -38t-77 -17h-1q-21 0 -42.5 14t-28.5 49q-2 14 -3 28.5t-1 30.5q0 61 15.5 133.5t43.5 147.5q29 79 70.5 159t90.5 149q31 44 60.5 75t57.5 49q17 12 34 17.5t33 7.5q2 0 4 0.5
t4 0.5z" />
    <glyph glyph-name="Lcaron" unicode="&#x13d;" horiz-adv-x="523" 
d="M333 567q11 32 20.5 77.5t12.5 70.5h87v-9q-6 -26 -27 -71t-45 -80h-48v12zM816 426q-47 -1 -98 7.5t-104 23.5q-121 34 -218 61t-171 28q-73 1 -123 -32q-25 -17 -45.5 -45.5t-36.5 -72.5q-3 -8 -11.5 -5.5t-5.5 10.5q28 77 78.5 120t143.5 41q77 -2 174.5 -28
t219.5 -60q54 -15 105 -23.5t98 -7.5q16 49 32.5 99t33.5 97q19 52 42 82t49 43q30 14 54 6t40 -30t21 -47q7 -37 -1 -73.5t-21 -58.5q-38 -62 -91.5 -93.5t-121.5 -38.5q-33 -105 -67 -210t-78 -197.5t-107 -161.5q44 -14 92 -31.5t93 -34t81 -28.5q79 -28 156.5 -46.5
t140.5 -17.5t106 23.5t56 72.5q2 8 10.5 5.5t6.5 -10.5q-15 -55 -62 -80.5t-116 -26.5q-66 -1 -145 16.5t-158 46.5q-37 13 -83.5 30.5t-96 35t-94.5 32.5q-45 -46 -94 -71t-97 -29q-36 -4 -56 15.5t-17 47.5q4 33 37.5 61t91.5 26q30 -1 53 -7.5t53 -15.5q63 63 107 153
t77.5 193t66.5 206zM996 728q-16 -7 -34.5 -32t-35.5 -72q-16 -43 -31 -87.5t-30 -90.5q61 8 109.5 37t83.5 86q10 16 17.5 49t2.5 62q-5 26 -28 43.5t-54 4.5zM450 -119q-20 0 -36 -5t-29 -13q-10 -7 -19.5 -17.5t-13.5 -21.5q-7 -20 3 -28.5t28 -9t37 3.5t31 8
q25 10 51.5 26t48.5 36q-27 8 -49.5 14.5t-51.5 6.5z" />
    <glyph glyph-name="lcaron" unicode="&#x13e;" horiz-adv-x="257" 
d="M219 612q11 32 20.5 77.5t12.5 70.5h87v-9q-6 -26 -27 -71t-45 -80h-48v12zM400 743q-24 0 -52 -17t-56.5 -45.5t-52.5 -62.5q-7 -10 -14 -21.5t-15 -23.5q-41 -62 -76.5 -131.5t-61.5 -139.5q-2 -4 -4 -9t-3 -10q95 47 177 112.5t135 131.5q56 70 70 129q1 7 3 14t2 15
q0 9 -3 18q-6 22 -19.5 31t-29.5 9zM388 773q27 0 47 -16q33 -29 33 -73q0 -17 -4 -32q-8 -32 -26 -65.5t-47 -69.5q-56 -71 -144 -139.5t-189 -116.5q-20 -62 -31 -121t-11 -107q0 -14 1 -27t3 -25q4 -29 18 -39t31 -10q11 0 21 2t18 5q41 15 79 42q73 51 131 120.5
t105 145.5q3 4 7 4q5 0 7.5 -4.5t-0.5 -9.5q-48 -77 -106.5 -147t-134.5 -123q-32 -21 -68 -38t-77 -17h-1q-21 0 -42.5 14t-28.5 49q-2 14 -3 28.5t-1 30.5q0 61 15.5 133.5t43.5 147.5q29 79 70.5 159t90.5 149q31 44 60.5 75t57.5 49q17 12 34 17.5t33 7.5q2 0 4 0.5
t4 0.5z" />
    <glyph glyph-name="Ldot" unicode="&#x13f;" horiz-adv-x="523" 
d="M332 357q0 29 15 42.5t37 13.5q21 0 36 -13.5t15 -42.5t-15.5 -42.5t-35.5 -13.5q-22 0 -37 13.5t-15 42.5zM816 426q-47 -1 -98 7.5t-104 23.5q-121 34 -218 61t-171 28q-73 1 -123 -32q-25 -17 -45.5 -45.5t-36.5 -72.5q-3 -8 -11.5 -5.5t-5.5 10.5q28 77 78.5 120
t143.5 41q77 -2 174.5 -28t219.5 -60q54 -15 105 -23.5t98 -7.5q16 49 32.5 99t33.5 97q19 52 42 82t49 43q30 14 54 6t40 -30t21 -47q7 -37 -1 -73.5t-21 -58.5q-38 -62 -91.5 -93.5t-121.5 -38.5q-33 -105 -67 -210t-78 -197.5t-107 -161.5q44 -14 92 -31.5t93 -34
t81 -28.5q79 -28 156.5 -46.5t140.5 -17.5t106 23.5t56 72.5q2 8 10.5 5.5t6.5 -10.5q-15 -55 -62 -80.5t-116 -26.5q-66 -1 -145 16.5t-158 46.5q-37 13 -83.5 30.5t-96 35t-94.5 32.5q-45 -46 -94 -71t-97 -29q-36 -4 -56 15.5t-17 47.5q4 33 37.5 61t91.5 26
q30 -1 53 -7.5t53 -15.5q63 63 107 153t77.5 193t66.5 206zM996 728q-16 -7 -34.5 -32t-35.5 -72q-16 -43 -31 -87.5t-30 -90.5q61 8 109.5 37t83.5 86q10 16 17.5 49t2.5 62q-5 26 -28 43.5t-54 4.5zM450 -119q-20 0 -36 -5t-29 -13q-10 -7 -19.5 -17.5t-13.5 -21.5
q-7 -20 3 -28.5t28 -9t37 3.5t31 8q25 10 51.5 26t48.5 36q-27 8 -49.5 14.5t-51.5 6.5z" />
    <glyph glyph-name="ldot" unicode="&#x140;" horiz-adv-x="325" 
d="M240 333q0 29 15 42.5t37 13.5q21 0 36 -13.5t15 -42.5t-15.5 -42.5t-35.5 -13.5q-22 0 -37 13.5t-15 42.5zM400 743q-24 0 -52 -17t-56.5 -45.5t-52.5 -62.5q-7 -10 -14 -21.5t-15 -23.5q-41 -62 -76.5 -131.5t-61.5 -139.5q-2 -4 -4 -9t-3 -10q95 47 177 112.5
t135 131.5q56 70 70 129q1 7 3 14t2 15q0 9 -3 18q-6 22 -19.5 31t-29.5 9zM388 773q27 0 47 -16q33 -29 33 -73q0 -17 -4 -32q-8 -32 -26 -65.5t-47 -69.5q-56 -71 -144 -139.5t-189 -116.5q-20 -62 -31 -121t-11 -107q0 -14 1 -27t3 -25q4 -29 18 -39t31 -10q11 0 21 2
t18 5q41 15 79 42q73 51 131 120.5t105 145.5q3 4 7 4q5 0 7.5 -4.5t-0.5 -9.5q-48 -77 -106.5 -147t-134.5 -123q-32 -21 -68 -38t-77 -17h-1q-21 0 -42.5 14t-28.5 49q-2 14 -3 28.5t-1 30.5q0 61 15.5 133.5t43.5 147.5q29 79 70.5 159t90.5 149q31 44 60.5 75t57.5 49
q17 12 34 17.5t33 7.5q2 0 4 0.5t4 0.5z" />
    <glyph glyph-name="Lslash" unicode="&#x141;" horiz-adv-x="523" 
d="M97 0v247l-49 -28l-35 60l84 50v385h90v-332l137 81l36 -63l-173 -100v-220h312v-80h-402z" />
    <glyph glyph-name="lslash" unicode="&#x142;" horiz-adv-x="257" 
d="M166 425l64 44l37 -59l-101 -68v-342h-88v285l-51 -32l-36 59l87 56v392h88v-335z" />
    <glyph glyph-name="Nacute" unicode="&#x143;" horiz-adv-x="759" 
d="M1040 701q12 -37 14 -86t-2 -104t-13.5 -114t-21.5 -112q-4 -18 -13.5 -52t-21.5 -76.5t-24 -86.5q-14 -47 -28 -100.5t-29 -90.5q-3 -7 -13.5 -6.5t-19 7t-4.5 15.5q13 41 30 93.5t34 109t31.5 108.5t22.5 91q9 42 18 97.5t13.5 114t1.5 111t-18 89.5q-17 45 -56.5 36.5
t-92.5 -70.5q-18 -23 -35 -48q-37 -53 -76.5 -120t-78 -140t-72.5 -144.5t-61 -133.5q-25 -58 -42.5 -101t-22.5 -61q-2 -7 -7 -12t-12 -5q-8 0 -14.5 6t-6.5 14v1q3 62 17 142t35.5 168t48 175.5t55.5 166t57 138.5q-41 -35 -98 -74.5t-122 -76t-128 -62.5
q-55 -22 -106 -34t-90 -6q-89 14 -78 118q0 8 8 8q9 0 9 -9v-1q-4 -46 11.5 -70t52.5 -30q34 -5 83.5 5.5t104.5 33.5t111.5 53.5t108 65t92.5 67.5t65 59q4 4 13 4h1q8 0 14 -6t6 -14q0 -4 -2 -10q-25 -46 -52.5 -115t-54.5 -151t-50 -168t-40.5 -167.5t-25.5 -148.5
q9 21 19.5 47.5t23.5 56.5q27 62 61.5 134t72.5 145.5t77.5 141t77.5 120.5q19 27 38.5 50.5t36.5 40.5t34.5 28.5t33.5 14.5q43 9 66 -14.5t33 -55.5zM237 1092v0q6 0 11.5 -6t1.5 -12l-56 -69q-3 -5 -9 -0.5t-3 9.5l47 74q3 4 8 4z" />
    <glyph glyph-name="nacute" unicode="&#x144;" horiz-adv-x="618" 
d="M65 332q8 -1 17.5 -5.5t9.5 -12.5q0 -3 -1 -5l-9 -17q-20 -37 -43.5 -86.5t-41.5 -100.5q53 94 95.5 142.5t76.5 67.5q26 16 48 16q23 0 38.5 -14t15.5 -41q0 -16 -9 -39q-14 -33 -33 -73t-39 -81t-36 -78q-10 -23 -10 -41q0 -27 21 -33q5 -1 9 -1.5t9 -0.5q36 0 70 16
t65 36q73 52 131 121t105 145q4 4 8 4q8 0 8 -9q0 -3 -1 -4q-49 -76 -107.5 -147t-133.5 -124q-32 -21 -68 -38t-77 -17h-2q-23 0 -43 13.5t-24 36.5q-2 5 -2 10.5v10.5q0 13 2.5 28t8.5 26q18 38 40 84.5t37 81.5q10 23 20.5 48t10.5 41t-9.5 19t-22.5 -1t-22 -9
q-35 -20 -86 -81.5t-115 -189.5q-3 -3 -3 -8q-3 -7 -14 -7q-5 0 -10 3t-5 8q0 15 4 32.5t9 33.5q12 47 30 93.5t35.5 83.5t28.5 56q3 5 12 7h2zM169 927v0q6 0 11.5 -6t1.5 -12l-56 -69q-3 -5 -9 -0.5t-3 9.5l47 74q3 4 8 4z" />
    <glyph glyph-name="uni0145" unicode="&#x145;" horiz-adv-x="759" 
d="M281 -209q11 25 24 70.5t17 77.5h87v-9q-8 -31 -31.5 -76.5t-48.5 -74.5h-48v12zM1040 701q12 -37 14 -86t-2 -104t-13.5 -114t-21.5 -112q-4 -18 -13.5 -52t-21.5 -76.5t-24 -86.5q-14 -47 -28 -100.5t-29 -90.5q-3 -7 -13.5 -6.5t-19 7t-4.5 15.5q13 41 30 93.5t34 109
t31.5 108.5t22.5 91q9 42 18 97.5t13.5 114t1.5 111t-18 89.5q-17 45 -56.5 36.5t-92.5 -70.5q-18 -23 -35 -48q-37 -53 -76.5 -120t-78 -140t-72.5 -144.5t-61 -133.5q-25 -58 -42.5 -101t-22.5 -61q-2 -7 -7 -12t-12 -5q-8 0 -14.5 6t-6.5 14v1q3 62 17 142t35.5 168
t48 175.5t55.5 166t57 138.5q-41 -35 -98 -74.5t-122 -76t-128 -62.5q-55 -22 -106 -34t-90 -6q-89 14 -78 118q0 8 8 8q9 0 9 -9v-1q-4 -46 11.5 -70t52.5 -30q34 -5 83.5 5.5t104.5 33.5t111.5 53.5t108 65t92.5 67.5t65 59q4 4 13 4h1q8 0 14 -6t6 -14q0 -4 -2 -10
q-25 -46 -52.5 -115t-54.5 -151t-50 -168t-40.5 -167.5t-25.5 -148.5q9 21 19.5 47.5t23.5 56.5q27 62 61.5 134t72.5 145.5t77.5 141t77.5 120.5q19 27 38.5 50.5t36.5 40.5t34.5 28.5t33.5 14.5q43 9 66 -14.5t33 -55.5z" />
    </font>
</defs>
</svg>
