<?xml version="1.0" standalone="no"?>
<!DOCTYPE svg PUBLIC "-//W3C//DTD SVG 1.1//EN" "http://www.w3.org/Graphics/SVG/1.1/DTD/svg11.dtd" >
<svg xmlns="http://www.w3.org/2000/svg" xmlns:xlink="http://www.w3.org/1999/xlink" version="1.1">
<metadata>
Created by FontForge 20190801 at Mon Feb  8 12:16:15 2021
 By root
Copyright (c) 2015 by Set Sail Studios. All rights reserved.
</metadata>
<defs>
<font id="MadinaClean" horiz-adv-x="407" >
  <font-face 
    font-family="Madina Clean"
    font-weight="400"
    font-stretch="normal"
    units-per-em="1000"
    panose-1="2 0 0 0 0 0 0 0 0 0"
    ascent="800"
    descent="-200"
    x-height="358"
    cap-height="849"
    bbox="-513.889 -790.865 1564.68 1046"
    underline-thickness="50"
    underline-position="-150"
    unicode-range="U+0001-206F"
  />
<missing-glyph horiz-adv-x="364" 
d="M33 0v666h265v-666h-265zM66 33h199v600h-199v-600z" />
    <glyph glyph-name=".notdef" horiz-adv-x="364" 
d="M33 0v666h265v-666h-265zM66 33h199v600h-199v-600z" />
    <glyph glyph-name=".null" horiz-adv-x="0" 
 />
    <glyph glyph-name="uni000D" unicode="&#xd;" 
 />
    <glyph glyph-name="glyph3" 
 />
    <glyph glyph-name="glyph3" 
 />
    <glyph glyph-name="uni0001" 
 />
    <glyph glyph-name="uni0002" 
 />
    <glyph glyph-name="uni0003" 
 />
    <glyph glyph-name="uni0004" 
 />
    <glyph glyph-name="uni0005" 
 />
    <glyph glyph-name="uni0006" 
 />
    <glyph glyph-name="uni0007" 
 />
    <glyph glyph-name="uni0008" 
 />
    <glyph glyph-name="uni0009" unicode="&#x9;" 
 />
    <glyph glyph-name="uni000A" unicode="&#xa;" 
 />
    <glyph glyph-name="uni000B" 
 />
    <glyph glyph-name="uni000C" 
 />
    <glyph glyph-name="uni000E" 
 />
    <glyph glyph-name="uni000F" 
 />
    <glyph glyph-name="uni0010" 
 />
    <glyph glyph-name="uni0011" 
 />
    <glyph glyph-name="uni0012" 
 />
    <glyph glyph-name="uni0013" 
 />
    <glyph glyph-name="uni0014" 
 />
    <glyph glyph-name="uni0015" 
 />
    <glyph glyph-name="uni0016" 
 />
    <glyph glyph-name="uni0017" 
 />
    <glyph glyph-name="uni0018" 
 />
    <glyph glyph-name="uni0019" 
 />
    <glyph glyph-name="uni001A" 
 />
    <glyph glyph-name="uni001B" 
 />
    <glyph glyph-name="uni001C" 
 />
    <glyph glyph-name="uni001D" 
 />
    <glyph glyph-name="uni001E" 
 />
    <glyph glyph-name="uni001F" 
 />
    <glyph glyph-name="space" unicode=" " 
 />
    <glyph glyph-name="exclam" unicode="!" horiz-adv-x="303" 
d="M250 720q3 -48 -2.5 -91t-13.5 -85q-13 -86 -21.5 -170.5t-13.5 -185.5q0 -18 -0.5 -43t-0.5 -51v-25t-1 -25.5t-4 -22t-9 -13.5q-3 -2 -9.5 -3.5t-13.5 -1.5t-13.5 1t-9.5 3q-12 7 -15 31t-1 47q3 23 4.5 45t3.5 43q8 86 11.5 178.5t11.5 181.5l4 44t4 43q2 22 5 44.5
t3 42.5q0 4 -0.5 9.5t-0.5 10t2 8t7 4.5q24 4 42 -3.5t31 -15.5zM143 -95q15 4 21.5 -4.5t12.5 -15.5q0 -24 -16 -29q-11 -4 -19 2t-11 15.5t-0.5 19t12.5 12.5z" />
    <glyph glyph-name="quotedbl" unicode="&#x22;" horiz-adv-x="388" 
d="M145 734q4 1 12 -1t15.5 -6t13.5 -9.5t7 -10.5t-1.5 -13.5t-4.5 -14.5q-7 -37 -10 -72.5t-4 -76.5q0 -8 0.5 -17.5t0.5 -19t-0.5 -17.5t-2.5 -11q-3 -5 -10.5 -7t-15.5 -0.5t-15.5 5t-11.5 8.5q-2 3 -4.5 11.5t-3.5 16.5q-2 20 -1.5 44t2.5 48.5t5 49t7 44.5q3 14 7.5 30
t14.5 19zM261 734q8 2 20.5 -1.5t17.5 -10.5q7 -11 2.5 -29t-6.5 -32q-4 -33 -5 -68.5t9 -62.5q3 -8 8 -14t4 -14q0 -8 -6.5 -12.5t-15.5 -5.5t-18 0.5t-14 5.5q-8 6 -13.5 22.5t-8.5 30.5q-7 32 -6 68t9 67q3 11 8 29t13 26q0 1 2 1z" />
    <glyph glyph-name="numbersign" unicode="#" horiz-adv-x="852" 
d="M556 818q-1 18 9 24.5t23.5 5.5t27.5 -6.5t22 -10.5q7 -39 -0.5 -76t-15.5 -71q-8 -35 -16.5 -69.5t-14.5 -70.5q40 -1 87 3t88 -4q10 -2 24 -6.5t16 -15.5q1 -7 -3 -15t-8 -14q-11 -18 -26 -20t-44 -2h-75t-70 -2q-7 -32 -11.5 -65.5t-9.5 -66.5q31 1 64 2t65 3t63.5 -1
t51.5 -17q2 -13 -0.5 -27t-12.5 -19q-11 -5 -29 -3t-32 2h-40t-45.5 -1t-47 -2.5t-44.5 -2.5q-10 -78 -17.5 -166t-12.5 -175q-2 -29 -2.5 -59.5t-11.5 -50.5q-3 -5 -9 -10.5t-14 -9.5t-17 -5.5t-18 3.5q-8 4 -11 18.5t-3 32t1.5 35t1.5 28.5q5 92 16 179t19 172
q-40 -2 -79.5 -9t-77.5 -14q-5 -42 -10.5 -92.5t-9.5 -95.5q-2 -17 -4 -32.5t-7 -26.5q-3 -7 -10.5 -13.5t-17 -10t-19 -3t-17.5 7.5q-9 8 -10.5 26t0.5 35q4 48 10.5 95.5t9.5 91.5q-30 -5 -63.5 -13t-67.5 -13q-11 -2 -26 -4t-23 2q-7 3 -11.5 15t-5 26.5t3 26.5t11.5 15
q19 10 45.5 8.5t49.5 0.5q25 2 48 6t46 6q6 35 10 72.5t7 75.5q-21 -1 -42.5 -5t-44.5 -9q-22 -5 -42.5 -13t-42.5 -6q-20 1 -25 15.5t-9 31.5q-2 8 -3.5 21t4.5 21q7 8 22 7.5t28 -1.5q42 -3 84 3.5t80 8.5q9 64 15.5 139.5t8.5 143.5q0 8 -4 15.5t-1 15.5q7 6 15.5 5.5
t17.5 -3.5t18.5 -6t18.5 -3q8 -8 11 -20t3 -25.5t-2 -28t-3 -28.5q-4 -51 -8.5 -101t-9.5 -96q40 2 81.5 5.5t83.5 5.5q12 69 23.5 141t22.5 139zM339 455q-4 -37 -7.5 -73t-6.5 -73q40 4 79 9t79 10q4 35 8.5 69t8.5 69q-42 -2 -82.5 -4t-78.5 -7zM556 818q1 -3 -0.5 -1.5
t0.5 1.5z" />
    <glyph glyph-name="dollar" unicode="$" horiz-adv-x="453" 
d="M362 865q5 -8 5.5 -17.5t-1 -20.5t-3.5 -21.5t-2 -19.5q13 -5 27.5 -16.5t26 -26.5t18 -33t4.5 -36q-1 -6 -5 -13t-10 -12t-13.5 -7.5t-14.5 1.5q-7 3 -8 12.5t-3 18.5q-4 17 -12.5 33t-17.5 23q-10 -59 -22 -121t-23 -123q-2 -9 -4.5 -18.5t-1.5 -16.5q1 -10 9 -24.5
t13 -26.5q17 -39 33 -76.5t31 -78.5q10 -27 19 -54t14 -59t6.5 -67t-9.5 -64q-11 -27 -32 -49t-45 -36q-26 -16 -57 -24t-71 -9q-3 -11 -2 -19.5t-4 -15.5q-8 -13 -27 -14.5t-36 2.5q-7 9 -5.5 24t2.5 29q-37 7 -64.5 25t-47.5 45q-19 26 -31.5 61.5t-10.5 77.5
q2 60 28.5 106.5t62.5 75.5q12 10 27 19.5t32 7.5q-1 -14 -9.5 -18t-16.5 -11q-25 -22 -44 -55.5t-27.5 -71.5t-4 -77.5t26.5 -72.5q13 -20 33.5 -35t55.5 -13q19 92 36.5 188.5t32.5 196.5q2 14 5.5 29.5t2.5 27.5q-1 11 -9.5 28.5t-13.5 28.5q-7 15 -13 28.5t-11 27.5
q-11 28 -23.5 57t-17.5 61q-6 39 -0.5 73t22 58t45.5 36t71 8q4 14 4 30.5t5 30.5q14 5 36 4.5t39 -1.5zM250 555q7 44 13 89.5t8 92.5q-16 -12 -25.5 -34.5t-12 -48.5t1.5 -53t15 -46zM223 -43q48 9 76 37q14 14 25.5 32t13.5 42q2 32 -4.5 63.5t-16.5 61.5t-22 57.5
t-20 51.5q0 1 -1 1q-13 -87 -26 -172.5t-25 -173.5z" />
    <glyph glyph-name="percent" unicode="%" horiz-adv-x="639" 
d="M532 786q15 -5 30.5 -14.5t17.5 -26.5q3 -18 -6.5 -35t-16.5 -29q-23 -41 -50 -79t-54 -75q-36 -50 -71.5 -98.5t-72.5 -101.5q-52 -75 -104 -152t-94 -167l-12 -28t-14 -32q-2 -6 -5 -14.5t-7.5 -16.5t-9.5 -14t-12 -7q-8 0 -15.5 7t-13.5 11q-8 7 -13.5 11t-9.5 12
q38 93 87.5 175.5t102.5 160.5q54 79 107.5 155.5t112.5 150.5q-23 -10 -47.5 -23t-56.5 -18q-14 -12 -28 -27.5t-29.5 -30t-33.5 -26t-40 -15.5q-17 -3 -34.5 1t-28.5 10q-20 12 -31 35t-9 54q3 40 21 72t39 60t45.5 52.5t50.5 42.5q10 2 17 -4.5t16 -6.5q5 1 9 4.5t9 2.5
q10 0 23.5 -7t21.5 -12q20 -10 33 -21.5t11 -41.5q0 -21 -7 -39.5t-15 -33.5q33 12 64.5 29t62.5 32q16 22 29 45t26 47q1 6 0.5 13t1.5 10q1 3 3 3zM258 699q-5 -7 -11 -13.5t-13 -16.5q-4 -5 -10 -15t-11 -21.5t-6.5 -23t3.5 -18.5q5 -6 17 -8t25.5 -1.5t25.5 3t17 4.5
q5 3 11.5 11.5t12 19.5t9.5 23t5 22q3 27 -10 46t-35 14q-11 -2 -17 -9.5t-13 -16.5zM126 493q18 -1 33.5 3t29 11t25.5 15t23 16q-23 8 -38 22.5t-29 31.5q-13 -22 -28 -44.5t-16 -54.5zM513 249q-2 -6 -8 -9.5t-11 -8.5q-11 -11 -22.5 -25t-22.5 -29q-8 -11 -16.5 -21.5
t-15.5 -22.5t-11 -25.5t-3 -29.5q32 2 54.5 20t41.5 43q18 23 32 49t17.5 54t-22.5 45q-16 11 -37 9t-44 0q5 19 24 27t42 2q19 -5 40 -18.5t27 -25.5q8 -14 9 -30.5t-2 -33t-8.5 -32t-11.5 -27.5q-9 -21 -21.5 -43t-28 -41.5t-33.5 -34.5t-39 -22q-18 -1 -33 5.5t-25 15.5
q-12 12 -21.5 33.5t-7.5 44.5q2 26 17 51.5t29 45.5q15 19 34 37q8 7 20 18.5t21 11.5q14 1 22 -12t14 -21z" />
    <glyph glyph-name="ampersand" unicode="&#x26;" horiz-adv-x="774" 
d="M582 623q-10 -1 -21.5 0.5t-16.5 7.5q-5 5 -6.5 14t-4.5 14q-5 9 -15.5 17.5t-23.5 15.5t-27.5 11.5t-27.5 4.5q-22 0 -41 -10.5t-33.5 -27.5t-23.5 -38.5t-10 -42.5q-2 -17 1.5 -29t10 -21.5t15.5 -17t19 -14.5q12 -9 24.5 -17t20.5 -19t11 -30.5t-4 -36.5
q-5 -14 -20 -26t-28 -22q-68 -51 -125 -112.5t-96 -141.5q-16 -32 -26 -70.5t-6 -87.5q2 -29 17.5 -50t40 -34t55 -17t63.5 1q40 6 74 23t61 42.5t46.5 58.5t31.5 70q5 15 10 34t1 34q-2 7 -8 14.5t-14 13.5t-17.5 10.5t-17.5 4.5q-13 0 -30 -7t-25 -13q-22 -15 -40 -38
t-32 -46q-5 -8 -9 -16.5t-11 -14.5q-14 -2 -26.5 2.5t-18.5 14.5q1 19 9.5 34t16.5 29q26 42 62 71t93 41q26 5 55 9t57.5 9t55 12t48.5 19q14 8 25 21t6 32q-4 13 -16.5 18.5t-26.5 5.5q-10 0 -20 -2.5t-17.5 -2.5t-11 5.5t-0.5 22.5q8 9 21.5 12.5t27.5 3.5t28 -3t23 -9
q10 -6 20.5 -19t17.5 -30t8.5 -36.5t-5.5 -37.5q-4 -10 -14.5 -18t-23 -14t-26.5 -11t-26 -8q-29 -8 -58.5 -13t-58.5 -10q8 -11 15 -20t13 -21q11 -23 12 -47.5t-4 -48.5t-14.5 -45.5t-18.5 -37.5q-23 -38 -48.5 -69t-56.5 -56q-33 -27 -77.5 -41.5t-98.5 -10.5
q-51 3 -90 22.5t-64.5 52.5t-37.5 79t-8 103q4 69 28 125t59 102t77 84.5t83 73.5q6 5 17 14t12 14q0 5 -4 9.5t-9.5 9t-11.5 8.5t-10 7q-24 17 -43 37.5t-22 57.5q-2 31 3.5 59t17 51.5t28.5 41.5t38 29q25 13 56 13t62 -7t58 -19t44 -24q8 -6 16.5 -15t14 -20.5t5.5 -24.5
t-8 -25z" />
    <glyph glyph-name="quotesingle" unicode="'" horiz-adv-x="193" 
d="M130 652q10 -13 15 -32.5t6 -41.5t-1.5 -44.5t-7.5 -40.5q-4 -11 -8 -24t-13 -17q-6 -2 -13.5 -1.5t-14.5 2.5t-11.5 6t-5.5 8q-2 7 3.5 19.5t7.5 21.5q4 23 5 46.5t-3 46.5q-2 11 -7 22t-3 19q1 8 6.5 11.5t13.5 4t16.5 -1t14.5 -4.5z" />
    <glyph glyph-name="parenleft" unicode="(" horiz-adv-x="381" 
d="M211 -246q-7 -6 -16.5 -8.5t-18.5 -1.5t-17 4.5t-13 8.5q-8 8 -13.5 29t-10.5 38q-18 60 -28.5 129t-14 142t0.5 147.5t15 144.5q13 81 30.5 151t44.5 136q19 46 37.5 96t40.5 97q3 6 7.5 15.5t10.5 18.5t12 15t12 5q8 -2 17.5 -7.5t17.5 -13.5t13.5 -17.5t5.5 -18.5
q0 -11 -12 -28t-18 -29q-50 -103 -90 -214t-64 -239q-11 -57 -15.5 -118.5t-3 -122t9.5 -118t23 -107.5q10 -33 23 -64.5t14 -69.5z" />
    <glyph glyph-name="parenright" unicode=")" horiz-adv-x="329" 
d="M93 801q10 5 27 7t28 4q12 1 18.5 -3t10.5 -11t6.5 -16t5.5 -17q5 -15 10.5 -29t10.5 -29q13 -47 19.5 -97.5t11.5 -107.5q5 -73 5 -147.5t-10 -148.5q-14 -107 -37.5 -197.5t-54.5 -182.5q-5 -14 -10 -29t-11.5 -29t-16 -25t-21.5 -15q-14 -5 -32 -2.5t-23 10.5
q-8 11 -2.5 30.5t10.5 32.5q17 42 35 84t33 84q20 57 37 121t26 130q15 109 8.5 220t-28.5 207q-8 32 -16 63.5t-20 57.5q-3 5 -6 8l-6 6t-5 7.5t-3 13.5z" />
    <glyph glyph-name="asterisk" unicode="*" horiz-adv-x="383" 
d="M179 637q14 5 26.5 12t26.5 14q12 7 26 14t31 5q4 -7 2 -15.5t-4 -13.5q-19 -17 -39.5 -30.5t-38.5 -30.5q7 -14 16 -26.5t17.5 -26t15 -28t9.5 -32.5q-6 -6 -11.5 -5.5t-10.5 4.5t-9 9t-7 8q-14 17 -27.5 35t-27.5 31q-12 -14 -25 -32l-26 -36q-4 -5 -8.5 -12.5
t-8.5 -9.5q-8 -4 -18 0t-12 14q1 19 6 34t13 27t18 22t19 21q-15 5 -31 7t-24 13q-7 9 -9 24t0 29q19 -5 37.5 -10t34.5 -13q-2 14 1 28t1 27q-1 5 -3.5 8.5t-1.5 8.5q1 6 6.5 7.5t12 0.5t12.5 -3.5t8 -4.5q7 -5 9 -14.5t1 -20t-3 -21t-4 -18.5z" />
    <glyph glyph-name="plus" unicode="+" horiz-adv-x="503" 
d="M278 344q47 3 93 8t88 10q3 -4 6 -15.5t3.5 -24t-2 -24t-8.5 -15.5t-19 -3.5t-26 -0.5q-32 -2 -69.5 -4.5t-66.5 -4.5q1 -20 0 -41.5t-1 -46.5q0 -10 1 -22t1.5 -24t-0.5 -22.5t-5 -17.5q-5 -11 -21.5 -16t-30.5 2q-10 5 -14.5 17t-5.5 27q-1 32 1.5 68.5t0.5 65.5
q-18 -1 -37.5 -4.5t-40 -6.5t-41 -3.5t-39.5 4.5q-3 8 -6.5 19t-5 22.5t-1 22.5t5.5 20q37 1 80.5 0t82.5 3q-2 19 -3.5 42t-1.5 46.5t2 46t6 41.5h20.5t24.5 -1.5t22 -5.5t12 -10q3 -7 1.5 -17t-3.5 -19q-3 -26 -2.5 -57t-0.5 -59z" />
    <glyph glyph-name="comma" unicode="," horiz-adv-x="154" 
d="M90 55q11 2 22.5 -4t15.5 -14q4 -11 1 -27t-6 -27q-7 -26 -17.5 -44.5t-24.5 -35.5q-7 -8 -15.5 -16.5t-19.5 -9.5t-21.5 5.5t-10.5 17.5q-1 7 8 14.5t14 15.5q14 20 25 42.5t16 50.5q2 12 1.5 20.5t11.5 11.5z" />
    <glyph glyph-name="hyphen" unicode="-" horiz-adv-x="511" 
d="M469 363q1 -9 2 -21t0.5 -23t-4.5 -20t-11 -12q-5 -3 -19 -3t-25 -1q-34 -2 -67.5 -4.5t-65.5 -5.5q-52 -5 -90 -12t-80 -9q-17 -2 -34 0t-25 10q-3 3 -6.5 14.5t-5.5 24t-1.5 24t6.5 16.5q5 4 15.5 2.5t19.5 -2.5q45 -3 91 -1t90 7t87 10.5t82 9.5q10 1 21 1t20 -5z" />
    <glyph glyph-name="period" unicode="." horiz-adv-x="136" 
d="M64 52q14 5 29 -1.5t17 -17.5q1 -8 -2 -15t-8 -13t-11.5 -10t-11.5 -4q-11 -1 -18.5 7.5t-9.5 19.5t1 21t14 13z" />
    <glyph glyph-name="slash" unicode="/" horiz-adv-x="421" 
d="M266 399q1 4 -2 1.5t2 -1.5q0 -1 -1 -1.5t0 -1.5q-5 -9 -5.5 -21.5t-9.5 -23.5q-3 -14 -10 -20q5 0 1.5 -4.5t-1.5 -8.5q-5 1 -3.5 -3.5t-3.5 -2.5q3 -3 0.5 -8t0.5 -5q-8 -20 -14.5 -43.5t-13.5 -43.5h-3q-9 -40 -21.5 -76t-20.5 -74q-3 1 -1.5 -1t-2.5 0q1 -3 -1 -9
t-4 -9q-3 -18 -6.5 -34.5t-11.5 -27.5q0 -3 1 -4.5t0 -3.5q-6 -9 -7 -25.5t-7 -31.5q1 -8 -2 -13t-4 -15q-3 1 -3 -1t-2 -2q2 -7 -2 -14t-10 -9q1 -3 0 -4t-2 -3q-7 0 -7 -7q-4 0 -5 -2q-2 2 0.5 3t2.5 3q-3 3 -3 -1q-2 1 -0.5 2.5t2.5 1.5q0 2 -4 2q1 1 1 3q-2 0 -2.5 -1.5
t1.5 -1.5q0 -1 -1.5 -1t-1.5 1q-1 -2 -2.5 -2.5t-1.5 -3.5q-2 0 -2 4q-5 1 -6.5 -3.5t-0.5 -8.5q2 -1 2.5 0t2.5 1q2 -6 -4 -5t-9 -1q2 3 0.5 6.5t0.5 6.5h2q-2 -3 1 -3q2 -1 2 1.5t-2 2.5q1 2 -1.5 2t-2.5 -2q-3 2 -1 4q-1 0 -2 0.5t-3 0.5q2 -4 3 -7t2 -7q0 -1 -2 -1v0
q0 -2 -1.5 -1t-3.5 1v3q-3 -1 -4.5 0t-3.5 2q1 2 2 2t2 2q-2 3 0 5t-1 5q-2 -1 -3.5 0t-4.5 0q0 -2 3 -3t-1 -2q0 -2 2 -1.5t3 -0.5q-1 0 -4 -3q-4 1 -5.5 1.5t-5.5 -1.5q2 2 0 2.5t-1 2.5l3 1.5t3 -1.5q1 3 -1.5 3.5t-1.5 2.5q4 2 3.5 6t3.5 7q-2 3 -3 7.5t3 6.5l1 -1
q0 1 -1 1q-2 14 6 22q-1 2 -1.5 1.5t-2.5 -0.5q3 5 2 9q2 0 2.5 1t2.5 0q2 12 6 22t5 24q0 -2 3 -3q-2 -4 -2.5 -7t-1.5 -10q3 5 4 12.5t3 11.5q-1 2 -1.5 0.5t-2.5 0.5q6 21 11 42.5t12 41.5q4 -1 0.5 -4.5t-0.5 -5.5q0 4 3 6.5t2 8.5q-2 1 -2.5 -1.5t-2.5 -1.5
q0 3 1.5 4.5t1.5 4.5h6q-1 3 -2 1.5t-4 -0.5l30 102q2 0 3 1q-2 2 0.5 5.5t1.5 9.5q5 -2 7.5 1t4 8t2 11t2.5 9l-3 3q4 1 5 4.5t0 7.5q-4 1 -5 -4.5t-1 -7.5q-2 0 -2 2.5t1.5 5.5l3 6t2.5 4q1 -2 3 0q0 -1 0.5 -1t0.5 -1v0q2 5 3 10t3 10q0 1 -4 1q0 2 0.5 2t0.5 2q4 1 1 -2
q5 -1 6 5t3 11q-3 -2 -3.5 -1.5t-2.5 -1.5q-2 4 1.5 4.5t5.5 1.5q-1 2 -0.5 2.5t-0.5 3.5q-2 0 -2.5 -1t-2.5 0q1 2 2 2.5t1 3.5q1 2 1 -0.5t-1 -3.5q7 4 9 12.5t6 16.5q-2 2 -2.5 -1t-4.5 -1q7 11 6 20q1 0 1 -0.5t1 -0.5q0 2 -2 2q0 1 3 1q0 4 -1 4q0 4 2.5 4t2.5 2
q-3 1 -3 6q0 2 2 1.5t4 -0.5q-1 3 0 4.5t1 3.5q1 1 0 1t-2 -1q1 5 7 14t3 16q7 5 8.5 17.5t8.5 18.5q-3 2 0.5 6.5t1.5 7.5q4 1 1.5 3.5t2.5 2.5q0 1 -3 1q0 2 2.5 0.5t0.5 2.5q1 0 1 3l2 2q2 1 1 1t-1 -1q-2 1 3 7.5t3 11.5q2 1 1 1t-1 -1q-1 0 -0.5 1.5t1.5 1.5
q0 -2 0.5 -1t-0.5 1q0 1 2 1q1 2 0 3t-1 3h3q-2 1 -1 5t4 3q-2 3 -0.5 4t-0.5 4q3 1 4 6.5t-1 7.5q4 4 3 8q5 2 6 9t1 9q3 6 5 9.5t4 11.5q2 -1 2 -0.5t2 0.5q-2 2 -1 3.5t1 6.5q2 0 2 0.5t2 0.5q0 1 -3 1q2 2 1 5q3 2 4 2t3 2q0 2 -1 1t-3 0q2 5 4 4t3 3q1 2 -0.5 2.5
t-2.5 2.5q4 1 3.5 3.5t4.5 4.5q0 1 -3 1q6 3 6 15q0 1 -1.5 1t-1.5 -1q-2 1 0 2t1 3q2 -2 2.5 -2t0.5 1v2t2 0q0 2 -3 5q2 2 3.5 0t1.5 1q0 2 -3 2q4 3 4 9t5 7q0 2 -1.5 1.5t-2.5 0.5q2 4 5 5.5t1 8.5q2 -1 4 -1q0 1 -3 1q9 21 19 43.5t15 47.5q3 -3 4.5 4.5t0.5 6.5
q7 17 15.5 36t10.5 38q5 -2 4.5 2.5t1.5 6.5q2 -1 2.5 -2t2.5 -1q1 3 -1 3.5t0 2.5l4 -2q3 1 7 1t7 1q15 -8 26.5 -13.5t22.5 -15.5q-3 -7 1 -12q-1 -4 -3 -9t0 -9q-11 -26 -22.5 -58t-25.5 -61h-3q0 -2 -0.5 -4.5t-0.5 -4.5q-6 -11 -11.5 -23t-10.5 -25q-3 0 -1 -1.5
t-3 -0.5q3 -4 -0.5 -9.5t-7.5 -8.5q0 -2 2 -2q-5 -4 -5 -10t-7 -9q3 -2 2 -6q-3 0 -4 -1q0 -7 -0.5 -12.5t-5.5 -8.5l-2.5 -10t-4.5 -8q3 -2 0.5 -4t-4.5 -4q1 -2 1.5 -1t1.5 1q1 -6 -4 -10t-5 -13h-3q-2 -17 -8 -29.5t-13 -28.5q2 -5 -1 -14.5t-5 -16.5q-2 5 -3 1.5
t-4 -1.5q2 -1 1 -2.5t-4 -1.5q1 -2 3.5 -3t0.5 -3h-2zM278 639q1 -3 1.5 0t-1.5 0zM277 572q0 2 1.5 3t1.5 4h-3q-2 -1 -2 -4t2 -3zM296 573q-2 -2 0.5 0t-0.5 0zM250 497q0 -1 -1 -1t-1 -1h4q-1 4 1.5 2t3.5 2q-2 0 -4.5 -0.5t-4.5 1.5q0 -2 1 -2t1 -1v0zM242 486
q0 -2 -0.5 -2.5t0.5 -2.5q5 -2 7 5q-2 1 -3.5 0t-3.5 0zM225 486q0 -3 0.5 0t-0.5 0zM222 446q2 5 0 4t0 -4zM240 434q2 0 1.5 -1t0.5 -1t1.5 1.5t-1.5 2.5q0 -1 -1 -1t-1 -1zM214 426q1 -3 1 0t-1 0v0zM205 410q1 0 3 -2q2 1 3 5t-1 6q-2 -6 -5 -9zM225 407q1 -3 1.5 0
t-1.5 0zM210 405q-1 0 -1 -1q-2 3 -3 1t-3 0v-2l1 -1q0 1 1 1t1 -1q-1 0 -1 -1q-2 -1 -4.5 -3.5t-1.5 -4.5q1 2 2 1.5t0 -2.5q-4 1 -2.5 -1.5t2.5 1.5h1q0 3 2 3q0 -5 -2.5 -7.5t-3.5 -9.5q2 0 3 1t3 0q1 3 1.5 6t2.5 5q0 -3 5 -3q1 2 1 5q-2 0 -3.5 -1t-3.5 1q2 5 -3 3
q1 2 1 6q1 0 1 1q2 2 3 2t1 1q2 1 1 1t-1 -1zM239 394l2 -1v2q-1 0 -2 1v-2zM217 389q1 2 1 0.5t1 -1.5q1 2 1.5 2t0.5 2l-4 2q0 -1 -1 -3t1 -2zM232 389q2 0 3 -3t3 -6v5.5t3 2.5q-4 2 -9 1zM221 372l5 5t0 5q-2 -3 -2.5 -4.5t-2.5 -5.5zM194 373h-1q-1 -3 0.5 -3t1.5 2
l2 -1q0 -2 -2 -2.5t-3 -2.5q4 2 7 4t3 7q-2 0 -2 -1q-2 0 -2 0.5t-2 1.5q0 -2 0.5 -2.5t0.5 -1.5q-1 1 -3 1v-2zM199 350q-2 -2 0.5 0t-0.5 0v0zM196 344h3q0 2 -3 2v-2zM185 338q0 2 1 2.5t0 2.5q-1 0 -1.5 0.5t-2.5 0.5l1.5 -3zM205 334q1 -2 2 -2t0 -2q4 0 4 2
q-3 0 0 2.5t4 4.5q-2 -1 -5 -1.5t-5 -3.5zM182 338q-1 -6 0.5 -2t-0.5 2zM205 326q-1 0 -2 -1q-2 0 -2 -3q5 0 5 -2q-2 2 -1.5 -0.5t0.5 -3.5q-1 1 -2.5 1t-1.5 -1q2 -1 0 -2t-2 -2q2 -1 3.5 -0.5t1.5 -1.5q-2 0 -0.5 -1t1.5 -2q-1 1 -1 -0.5t-1 -2.5h-4q1 -4 -1 -5
q2 0 2 -2q-1 0 -3 -2q2 0 1 -1.5t-2 -2.5q14 11 11 23q3 1 3.5 4t1.5 6q0 1 -3 1v2q-2 0 -2.5 -0.5t-1.5 -0.5zM179 316q1 -4 4.5 -3t-0.5 -3q4 0 5 2q-2 0 -0.5 2t0.5 4q-2 -2 -4.5 -1t-4.5 -1zM172 309q2 -2 2.5 1t-1.5 3q1 -2 0 -2.5t-1 -1.5zM177 311v0q2 1 1 1t-1 -1z
M177 303q5 0 5 3q-2 1 -3 -0.5t-2 -2.5zM168 298q0 2 2 2t1 4h-3q-1 -1 -1.5 -3.5t1.5 -2.5zM175 301q0 2 -3 2q0 -5 0.5 -2.5t2.5 0.5zM160 273v-1q3 -1 5 0t4 -1q1 3 4 2q-3 -2 -0.5 -2.5t3.5 1.5q1 -3 -2 -4t-6 -1t-4.5 -0.5t1.5 -2.5h-3q-1 -2 0.5 -1.5t0.5 -1.5
q-3 -2 -5 -4t-6 -2v-4q-1 -4 -1.5 -5.5t-1.5 -5.5q-1 0 -1 0.5t-1 0.5q1 -3 0 -3.5t-1 -2.5q5 0 5.5 4t0.5 9q2 -2 4 0t5 0q2 -2 1 -3t0 -3q-3 1 -5 -3.5t-2 -7.5q-2 1 -2.5 -0.5t-2.5 0.5q-1 -2 0.5 -3.5t-0.5 -1.5q-4 0 -1.5 2t-1.5 1q1 3 -1.5 2t-2.5 -3q2 -1 2.5 0.5
t1.5 0.5q-1 -3 -1 -3.5t-2 -3.5l-1 -1q-2 -6 -2 -11.5t-1 -12.5l2 4t0 5q3 0 4 1.5t2 3.5q2 0 1 -1.5t0 -1.5q2 4 5.5 7t3.5 6q3 0 4.5 1t3.5 2q-2 5 0.5 8.5t4.5 9.5q-1 0 -1 2h1q3 11 6 20.5t5 23.5q-3 4 -6 4t-6 3q1 -5 -2.5 -3t-5.5 0q5 1 1.5 -2.5t0.5 -5.5q-1 0 -1 -2
q-2 0 -4 1q2 -5 0 -7.5t0 -4.5q0 3 1 2v0zM185 280h5q-2 2 2.5 4.5t-0.5 5.5q0 -4 -2.5 -4.5t-4.5 -5.5zM176 250q-3 0 -1.5 -1.5t1.5 1.5q2 -2 0.5 -4t-2.5 -4q4 0 3 -1q-4 -1 -6.5 -7.5t-0.5 -6.5q1 -2 -2 -2q1 -4 -1 -4q-5 1 -6.5 -2t-4.5 -3q0 -2 1.5 -3.5t-0.5 -3.5
q-1 0 -0.5 -1.5t-1.5 -0.5q-4 1 -6 -1l-4 -4l4 -2q-4 2 -4 -2t-3 -3q2 0 2 -2h-4q-1 -2 1 -2t0 -2q-1 1 -2.5 -1t0.5 -2v-2q-2 0 -3 0.5t-2 -1.5q2 -1 0.5 -0.5t-1.5 -0.5q3 -4 0.5 -5.5t-1.5 -5.5q2 -2 3 -0.5t3 0.5q-2 -2 -3 -5t-6 -1q1 -7 -6 -8q4 0 2 -4q2 0 2.5 0.5
t1.5 0.5q1 -2 0 -3q-2 2 -4 -1q2 0 2.5 -0.5t1.5 1.5q3 1 7 3q3 9 7 10q2 3 1.5 4.5t0.5 3.5q-2 2 -3.5 2.5t-3.5 1.5q10 2 11 1q2 2 0 2t-1 2q4 -1 6 0t4 1q0 -2 -2 -2.5t-4 -2.5q2 -2 3 -1t2 -1q0 -2 -2 -0.5t-4 0.5q-4 -11 -6 -20t-10 -14q1 2 5 6q-2 0 -2 2q4 0 2.5 1.5
t-2.5 -1.5q-2 -2 -6 -3t-2 -5q-1 -2 -4.5 -3t-2.5 -4q-1 0 -1.5 -0.5t-1.5 -0.5q3 -2 3 1q3 0 3 -1t-1 -1t-1 -1q2 2 2.5 -0.5t-1.5 -2.5v0q-1 -3 -1.5 -3t-2.5 -2q2 0 2 -1q-2 0 -3 1q2 -6 -1 -9.5t-7 -7.5q2 -3 3 0t5 1q-2 -1 -1 -2.5t2 -2.5q-1 -1 -2 -0.5t-2 -1.5
q1 0 1 -0.5t1 -0.5q2 -4 -0.5 -2.5t-2.5 -0.5q2 0 1 -2t-1 -3q2 -1 3 0t3 1q0 -2 -3 -3.5t0 -4.5q-2 -1 -3.5 -1t-3.5 -2q1 -5 -1 -6.5t-5 -3.5q0 -1 -3 2q0 -2 -1.5 -3.5t0.5 -3.5v0q2 2 3 1.5t3 0.5q1 -1 1 -4q-1 0 -2 1h-2q2 0 0.5 -2.5t0.5 -1.5q-1 -2 -1 -3.5t2 0.5
q0 -3 -1.5 -4t0.5 -3q2 1 2 2.5t2 0.5q-2 -5 -4 -4t-4 -2q-2 2 -1.5 -0.5t1.5 0.5q2 -4 -1 -9t-7 -3q3 -2 2 -2.5t-3 -2.5q-1 0 -1 -1.5t1 -1.5q1 1 0 3q3 -1 8 -1q1 2 2 2.5t2 1.5q1 -2 0 -2t-1 -1q1 -2 2 -0.5t0 -1.5q-2 1 -2 0.5t-2 -0.5q0 -2 0.5 -2t0.5 -2q-2 0 -2 1
t-2 -1q2 -2 1.5 -3.5t-2 -3t-2 -3.5t2.5 -3q-3 -3 -6 -2q-2 -6 -4 -7q5 -2 1.5 -2.5t-4.5 -2.5q3 -4 2 -9.5t-6 -6.5q5 -1 1.5 -1.5t-4.5 -2.5q5 -2 3.5 -6t-3.5 -5q7 2 7 8.5t6 8.5l-3 3q2 0 3.5 -0.5t4.5 1.5q0 -9 -5 -10q2 -1 2 -3q-2 0 -2.5 -0.5t-2.5 -0.5
q1 -5 -0.5 -7.5t0.5 -4.5q-5 0 -3 -7q-2 0 -3 0.5t-3 0.5q2 -3 3 -5l2 -4q-2 2 -3 1t-2 -2.5l-2 -3t-3 -0.5q-1 -6 -3 -9t-2 -9q3 -1 3 2t4 2q-2 -2 0 -4t4 0q1 -5 -1 -7t-2 -4h-1q-1 -1 -1 -4q2 -2 3 0t-1 4q8 10 9.5 21.5t3.5 26.5l2 -2q3 9 3.5 17t7.5 12v5
q8 5 11.5 15.5t8.5 19.5q-2 2 -0.5 6t3.5 4q0 3 0.5 3.5t0.5 3.5q-2 1 -2 -1.5t-2 -2.5q2 -5 -3 -8t-3 -10q-2 0 -5 -1t-8 1q5 4 12.5 13t6.5 17h4q0 -2 0.5 -1.5t-0.5 1.5q5 11 8 23.5t9 22.5q-2 0 -2 2q4 2 6 8t-3 8q3 2 2.5 3.5t1.5 3.5h2q1 -2 1 -1.5t-1 1.5
q-2 3 1.5 3.5t3.5 3.5q-2 7 2.5 15.5t2.5 17.5q3 1 3 5t4 4q-1 4 1 7.5t4 7.5t3 8.5t-1 9.5q2 7 5 6q0 2 -1.5 3.5t-2.5 3.5q8 11 10 20t4 20q-2 2 -3 0.5t-2 0.5q2 2 3.5 2.5t-1.5 2.5q2 1 2 2t2 -1q2 5 6 10.5t-1 10.5q1 -5 -2.5 -9t-9.5 -2q1 -3 0 -5t1 -5q-2 -1 -5 -3
t-1 -4t2 0t2 1q-1 -5 -7 -5q0 -2 0.5 -2.5t-1.5 -2.5zM159 261q-2 2 -2 0h2zM129 169q0 3 -3 3q0 -3 3 -3zM108 102q0 1 1 1t-1 2q0 -1 -1 -1.5t1 -1.5v0zM112 97q3 3 0 5q0 -1 -1 -3t1 -2zM96 101q0 -1 -0.5 -3.5t1.5 -0.5q0 5 1 2t3 -3q0 2 0.5 3t0.5 3q-3 1 -3.5 -0.5
t-2.5 -0.5zM89 63q2 -1 2 0.5t1 2.5h-3v-3v0zM76 -27q-2 0 -2 -1q2 0 2 1v0zM78 -35q1 -3 1.5 0t-1.5 0zM94 -52q-2 0 -2 -1q3 0 4 -1q-1 2 0.5 3.5t-1.5 2.5q0 -1 -0.5 -1.5t-0.5 -2.5zM76 -80q2 -2 2 0t-2 0v0zM83 -115q1 -2 1 -1t-1 1q2 5 3 8t0 9q-2 -1 -2 -3.5t-5 -0.5
q-1 -5 -2 -8t6 -5zM72 -128q2 0 1.5 -0.5t0.5 -0.5q2 1 2 4t-2 4q1 -3 -0.5 -4t-1.5 -3v0zM39 -127q0 -3 0.5 0t-0.5 0zM75 -130q-2 0 -2 -1q2 0 2 1v0zM77 -132q1 -3 1.5 0t-1.5 0zM61 -136q3 -1 1.5 0.5t-1.5 -0.5q-1 0 -1 0.5t-1 0.5q-1 -6 2 -1v0zM54 -142q2 -2 2 -0.5
t1 2.5q-2 0 -3 1v-3zM47 -150q2 -1 2.5 3t-1.5 3q1 -2 0.5 -2.5t-1.5 -3.5zM38 -144q-2 0 -2 -1q2 0 2 1zM259 588q3 2 2.5 -0.5t-2.5 0.5v0zM210 451q-1 0 -1 -3q-3 -1 -2 2t3 2v-1v0zM205 438zM265 396l4 2q-2 -2 -4 -2v0zM200 376q1 0 1 -0.5t-1 -0.5v1v0zM194 373
q1 0 1 -1q-1 0 -1 1zM197 371q0 1 1 1t1 -1h-2zM180 369q1 0 1 -1t-1 1zM174 355q2 0 1.5 -2t-2.5 0v2q1 -1 1 0zM169 337q1 -3 -0.5 -1.5t0.5 1.5zM205 326q2 -1 4 -1q1 -2 -2.5 -2t-3.5 2q1 0 2 1zM160 310q0 1 1 1q0 -1 -1 -1v0zM160 310zM158 301q2 -2 2 0q3 -2 0.5 -3
t-0.5 -1q0 -2 -2 -1t-2 -2q-3 2 0 3t2 4zM167 291q0 1 1 1t-1 -1zM167 291zM173 287q-2 -2 -3.5 0t3.5 0zM170 283q-2 -2 -3 -0.5t-3 -0.5q2 2 3 1.5t3 -0.5v0zM150 279q2 3 2 0.5t-2 -0.5v0zM168 277q2 2 2 -1t-2 1v0zM172 277h2v-2h-2v2zM160 273q1 2 3 4q4 0 4 -1
q-2 -1 -3.5 -2t-3.5 -1zM170 259q0 1 3 1q0 -1 -3 -1zM145 260q-2 0 0 1.5t0 -1.5zM152 251q0 2 3 2q-2 -2 -3 -2zM168 251q2 2 1.5 -1t-1.5 1zM182 249q3 2 0.5 0t-0.5 0zM170 244l-2 2q2 0 2 -2v0zM140 245q0 1 0 0.5t-0.5 -1.5l-0.5 -1zM163 238q0 1 -1 1q1 2 2.5 1.5
t2.5 1.5q2 -2 0 -3t-4 -1zM138 237q0 5 1 3.5t-1 -3.5zM163 238zM141 237q0 1 1 1t-1 -1zM167 236q-2 -5 -7 -5q3 5 7 5zM174 235q2 -1 1 -1.5t-1 -1.5q-2 1 -1 1.5t1 1.5zM172 229q0 1 1 1t-1 -1zM172 229q0 -2 -2 -2q0 2 2 2zM176 227q2 3 0.5 -1t-0.5 1zM155 223
q-1 -3 -3.5 -3t-4.5 1q2 3 3.5 2.5t4.5 -0.5zM143 221l1 1q1 0 0.5 -0.5t-1.5 -0.5zM166 219q-2 -2 -2 -6t-1 -9q-3 0 -3 -2t-1 -4q-1 0 -2.5 -0.5t0.5 -2.5q0 -2 -2 -0.5t-3 -0.5q0 1 -1 1q0 1 -1 1q2 2 2 5q2 1 2.5 -0.5t2.5 -0.5q0 2 -1 2t-1 2q5 1 6 6.5t3 9.5
q1 0 1 -0.5t1 -0.5zM166 219q0 1 1 0.5t-1 -0.5zM172 218q2 0 1.5 -2.5t-2.5 -0.5v2q1 0 1 1zM150 218v-3q-2 0 -4 1q1 0 1.5 1t2.5 1zM130 216q5 0 4 -3q-4 2 -3.5 -1.5t-2.5 -2.5q1 2 2 3t0 4v0zM170 209q2 0 1.5 -2.5t-3.5 -1.5q0 2 0.5 2t1.5 2zM127 208h2v-2h-2v2z
M125 200q1 2 1 5q3 0 4 -1q0 -2 -1.5 -2t-3.5 -2v0zM125 200q1 -4 0 -6.5t-2 -5.5q-2 3 -0.5 6t2.5 6zM151 195l1 -1v-3q-4 0 -7 1q0 2 2.5 1.5t2.5 1.5h1zM142 187q2 1 2 3t2 0q-1 0 -1.5 -2.5t-2.5 -0.5zM154 190h2q0 -1 -1 -1.5t-1 -1.5q-2 1 0 3zM158 187q1 -1 3 -1
q0 -1 -0.5 -1.5t-0.5 -1.5q-2 2 -2 0q-2 0 -1 1.5t1 2.5zM139 186q0 1 0.5 1t0.5 -1h-1zM142 187zM154 184q0 -2 -3 -2q0 2 3 2zM159 164q0 3 -0.5 3.5t0.5 3.5q2 0 2 -3t-2 -4v0zM142 170q0 1 1 1t-1 -1zM142 170zM154 168q2 -1 1 -2t-1 -2q-2 0 -2 -0.5t-2 -0.5q-1 3 1 3
t3 2zM141 167q2 3 1.5 0t-1.5 0zM159 164q2 -2 1 -4q-2 -1 -2 4h1zM129 154q0 2 2 2q0 -2 -2 -2v0zM132 155h2q0 -2 -2 0zM148 149q3 -2 0.5 -5.5t-0.5 -6.5q-2 1 -4 0.5t0 -2.5q0 -2 -1.5 -1t-3.5 1q6 4 9 14zM130 141q4 0 4 -1q-2 1 -2.5 0t-1.5 1zM132 132q3 1 2.5 -1
t-1.5 -3q-1 0 -1 4zM130 126q0 -3 -1 -7.5t-7 -4.5q4 2 5 5.5t3 6.5zM135 115q1 3 0.5 0t-0.5 0v0zM141 111q2 -2 1 -4.5t-3 -0.5q-1 2 1 2t1 3zM138 105h2q0 -1 -1 -2h-2q1 1 1 2v0zM124 104q4 2 1 0t-1 0zM131 101q3 1 2.5 -1t-1.5 -3q-1 0 -1 4zM137 99q1 3 1 0t-1 0z
M119 99q0 1 1 1t1 -1q0 -2 -2 0zM136 94q-1 3 0.5 1.5t-0.5 -1.5zM136 94q-2 -2 1 -2q-3 -2 -3 -6.5t-5 -3.5q0 3 2.5 6t4.5 6zM135 84q2 4 0 0t0 0zM119 84q0 1 1 1t1 -1h-2zM116 81q2 0 2 -2.5t-2 -0.5v3zM125 76v1q2 0 1.5 -1t-1.5 -1.5t-1.5 -0.5t1.5 2zM116 74q0 1 2 1
q0 -1 -2 -1zM116 73q-4 -4 -6 -4q2 4 6 4zM114 69q3 -3 0.5 -2.5t-0.5 2.5zM112 65h2v-2h-2v2zM115 64q2 2 1.5 0t-1.5 0zM121 61q2 0 1.5 -2.5t-2.5 -0.5v2q1 0 1 1v0zM106 61q0 1 1 0.5t-1 -0.5zM108 44q3 0 3 2.5t2 2.5q-2 -5 0 -3.5t2 -1.5q-2 1 -3.5 -0.5t-3.5 0.5v0z
M108 44h-2q-3 2 -1.5 3t2.5 0q1 0 1 -3zM104 37h1h2q1 -1 -1.5 -1.5t-1.5 1.5v0zM106 29q1 0 2 0.5t0 -1.5q-2 0 -2 1zM101 8q2 3 1.5 0t-1.5 0v0zM109 7q1 0 1 -3h-3q0 2 1 1.5t1 1.5zM101 0q-5 2 -5.5 -4t-3.5 -7q-2 2 -0.5 3t-1.5 3q1 3 5.5 6.5t5.5 -1.5zM91 -30
q0 1 1 1q0 -1 -1 -1v0zM91 -30zM58 -32q1 1 1 4q3 -3 2 -5q-1 0 -1 0.5t-2 0.5zM79 -68v0q3 -3 -0.5 -3.5t-5.5 0.5q2 4 4.5 6.5t4.5 5.5q2 -2 0.5 -5t-3.5 -4v0zM78 -73q0 2 2 0h-2zM26 -124q1 3 0.5 0t-0.5 0zM92 -147h2q1 -2 -3 -2q0 1 0.5 1t0.5 1v0zM71 -149q1 3 0.5 0
t-0.5 0v0zM61 -149q0 1 1 1q0 -1 -1 -1zM92 -152q0 1 2 1q0 -1 -2 -1zM33 -150q3 2 1.5 -2t-1.5 2zM36 -152q0 1 3 1q0 -1 -3 -1zM48 -158zM48 -158h2q0 -1 -1 -1t-1 1z" />
    <glyph glyph-name="zero" unicode="0" horiz-adv-x="466" 
d="M260 703q36 -2 62.5 -13.5t46 -29.5t33 -42.5t23.5 -51.5q22 -57 21 -126.5t-16 -134.5q-21 -93 -59.5 -166t-104.5 -123q-20 -15 -50.5 -30t-64.5 -13q-30 2 -52.5 18.5t-39.5 33.5q-27 28 -38.5 70.5t-12.5 91t5 99.5t14 95q11 58 27.5 115t36.5 108q9 23 20.5 48.5
t25.5 48.5q6 11 14.5 24.5t18.5 25.5t21.5 20.5t24.5 10.5q5 1 9.5 0.5t10.5 -0.5q5 -5 13 -10.5t15.5 -12t13 -15t4.5 -17.5q-1 -11 -8.5 -13.5t-13.5 -10.5zM210 627q-5 -8 -8.5 -15.5t-7.5 -14.5q-18 -36 -33.5 -78.5t-28.5 -88t-23 -93t-17 -93.5q-3 -24 -5.5 -51.5
t0 -52t10.5 -45t25 -30.5q18 -10 36 -9.5t35 6.5t32 15.5t27 18.5q48 36 76 89t46 119q12 42 18 95t-2 101q-5 30 -15.5 58.5t-27.5 50t-42.5 34t-59.5 11.5q-19 0 -23 -7t-12 -20z" />
    <glyph glyph-name="one" unicode="1" horiz-adv-x="398" 
d="M211 20q10 -8 25.5 -12t32 -4t32 3t26.5 10q3 1 6.5 5t7.5 8t7.5 7t6.5 3q5 -1 7.5 -11t1.5 -18q-2 -14 -10 -24.5t-20 -17.5t-26 -10t-28 -1q-15 2 -30 8.5t-30.5 13.5t-31.5 13t-34 6q-21 1 -37 -5t-29 -15t-24.5 -19t-24.5 -19q-13 2 -27.5 3.5t-16.5 12.5
q-1 8 7.5 18.5t14.5 16.5q21 21 50.5 36t64.5 17q11 70 18.5 143t15.5 146t17 144.5t23 137.5q-7 -1 -15.5 -5.5t-18 -10t-19.5 -9t-19 -3.5q-12 1 -20 10.5t-13 20.5q28 27 57 52.5t65 44.5v16t1 19t4 15.5t9 6.5q12 1 21 -5t20 -14q8 -6 18.5 -13.5t12.5 -15.5t0 -22
t-4 -25q-11 -76 -25.5 -150t-26.5 -149q-14 -92 -24 -181t-18 -178z" />
    <glyph glyph-name="two" unicode="2" horiz-adv-x="441" 
d="M162 126q27 -16 52 -27t53 -30q23 -16 55.5 -26.5t66.5 3.5q6 3 16.5 11.5t16.5 6.5q8 -2 9.5 -13.5t0.5 -17.5q-2 -18 -18.5 -29.5t-32.5 -14.5q-22 -3 -41 1t-36 12t-32 17.5t-29 17.5q-17 10 -34.5 20.5t-35.5 11.5q-23 2 -41 -10t-27 -26q-5 -8 -10 -20t-10.5 -24
t-12.5 -21t-17 -11q-8 -1 -19 2.5t-21 9.5t-17.5 13t-8.5 13q-4 13 1 28.5t10 26.5q16 35 35.5 67t37.5 63q50 86 102 167t103 169q17 29 36 63.5t31 72.5q4 14 5.5 30.5t-5.5 24.5q-6 7 -17 8.5t-23 0.5t-24 -4t-20 -6q-24 -9 -42.5 -22.5t-34 -29.5t-29.5 -34t-29 -36
q-6 -6 -13 -14.5t-14 -9.5q-5 0 -12.5 4t-14.5 10t-12 12.5t-5 11.5q0 7 4 15.5t10 17.5t12 16.5t9 11.5q14 19 33 38t41.5 35.5t48 27.5t53.5 13q39 3 64 -10t45 -33q15 -15 27 -34t17 -41q4 -21 1 -41.5t-10 -40t-16 -37.5t-16 -34q-23 -50 -50 -97.5t-55 -94t-56 -92.5
t-55 -92z" />
    <glyph glyph-name="three" unicode="3" horiz-adv-x="447" 
d="M271 474q29 -11 50.5 -28t39.5 -37q19 -20 35 -43t25 -51q11 -35 10.5 -68.5t-8.5 -64.5t-22 -57.5t-30 -46.5q-32 -43 -79.5 -74t-113.5 -42q-37 -6 -68 0.5t-54 23.5q-12 9 -26 27t-23 39.5t-9 44t16 41.5q18 20 52.5 29t75.5 2q4 -1 11 -2t13.5 -2.5t11 -4t4.5 -6.5
q1 -7 -4.5 -8.5t-13.5 -1t-17 2.5t-15 2q-17 0 -31.5 -4t-24 -13t-12 -22t4.5 -30q7 -14 18 -23.5t25 -15.5q15 -7 35.5 -8t34.5 1q34 5 63 21.5t46 32.5q20 17 37.5 41t29.5 55q12 29 16.5 65t-12.5 68q-16 31 -39.5 51t-54 32t-68 18t-82.5 9q-12 1 -22.5 2t-18.5 7
q-7 6 -12.5 20t-3.5 27q2 9 11.5 16t22 12t26 9t23.5 8q50 19 90.5 37t81.5 47q8 6 17.5 13t17.5 16q7 7 16 19t7 22q-1 9 -10 14.5t-21 9t-25 5.5t-21 4q-36 6 -64 1.5t-50 -16.5t-39.5 -29t-33.5 -35q-5 -5 -13 -15t-15 -11q-3 0 -10 3.5t-13.5 9t-12 11.5t-6.5 9
q-2 8 1.5 16t8.5 15.5t10.5 13.5t9.5 10q11 11 23 21t22 18q27 19 57.5 32t70.5 13q129 0 164 -96q5 -13 8.5 -26.5t-0.5 -27.5q-6 -27 -25 -49t-38 -39q-20 -19 -40.5 -35t-40.5 -35z" />
    <glyph glyph-name="four" unicode="4" horiz-adv-x="463" 
d="M113 310q24 7 51.5 14t53.5 13q13 77 24 155.5t22 157.5q4 26 7.5 51.5t10.5 49.5q14 1 28.5 0.5t27 -5t20.5 -13.5t9 -24q2 -22 -2.5 -47t-8.5 -49q-9 -69 -21 -141.5t-21 -137.5q18 -2 36 -7.5t36 -12t36 -12.5t36 -7q20 -2 36.5 1t32.5 8t31.5 10t33.5 7
q-2 -14 -8.5 -23t-14.5 -17q-23 -21 -55 -31.5t-70 -1.5q-16 4 -32 9.5t-33 10.5t-35 8.5t-37 2.5q-9 -55 -15.5 -120.5t-14.5 -128.5l-4 -42t-15 -31q-7 -6 -16.5 -7t-19.5 0.5t-20 4.5t-17 6q-8 38 -2 78t11 78q6 39 10.5 77.5t8.5 78.5q-33 -7 -62 -22t-52 -35
q-4 -10 -4 -25.5t-8 -22.5q-6 -5 -18 -4t-24 5t-22 9.5t-12 10.5q-6 14 -2.5 38.5t5.5 40.5q9 64 21 128.5t26 128t28.5 125t26.5 118.5q14 5 27 1t23 -14t15 -24.5t4 -29.5q-2 -23 -9 -47t-12 -48q-14 -69 -27.5 -148t-23.5 -148z" />
    <glyph glyph-name="five" unicode="5" horiz-adv-x="437" 
d="M413 742q6 -10 4.5 -19t-7 -16t-13 -12.5t-14.5 -9.5q-20 -11 -46 -18.5t-55 -4.5q-12 1 -27 5.5t-31 8.5t-33 4.5t-33 -5.5q-3 -13 -3.5 -28t-0.5 -31q-1 -14 -3 -31.5t3 -29.5q4 -11 21 -14.5t27 -7.5q44 -15 79.5 -40.5t59.5 -62.5t34.5 -86t5.5 -112
q-8 -93 -52 -155.5t-106 -101.5q-21 -13 -47 -22.5t-61 -7.5q-52 4 -78.5 37.5t-26.5 86.5q0 45 20 81t54 50q15 6 33.5 3t23.5 -20q-25 -5 -41 -12.5t-25 -26.5q-8 -17 -7 -43t10.5 -49t26.5 -38.5t40 -11.5q22 4 38.5 18t27.5 25q40 40 62.5 100.5t17.5 146.5
q-5 85 -45 138t-114 68q-11 2 -22 3.5t-20 6.5q-16 8 -23 25.5t-9.5 40t-1.5 48t1 48.5q0 13 -1.5 25t-0.5 22t5 16.5t15 8.5q19 3 35.5 -1.5t32.5 -6.5q15 6 29 6t28.5 -3.5t28.5 -8t28 -7.5q29 -6 61.5 -5t59.5 11q10 4 16 8.5t19 6.5z" />
    <glyph glyph-name="six" unicode="6" horiz-adv-x="429" 
d="M105 377q28 9 59.5 12.5t62.5 1t58 -10.5t45 -21q33 -25 49.5 -70.5t4.5 -98.5q-15 -61 -45.5 -109t-76.5 -77q-23 -14 -53 -25.5t-66 -8.5q-26 2 -48 16t-38.5 34.5t-28 45.5t-16.5 49q-7 30 -8 63t1.5 66.5t7 65t9.5 57.5q14 84 39 164.5t63 147.5q11 20 27 42t37 31
q18 8 43 9.5t50.5 -2t48 -11.5t36.5 -18q12 -10 22 -29q3 -8 8.5 -19t3.5 -20q-2 -13 -17 -19t-32 -4q-8 3 -11 9t-4.5 12.5t-2.5 14t-3 13.5q-5 12 -17 20t-32 6q-23 -3 -40.5 -22.5t-28.5 -37.5q-20 -29 -35 -62.5t-28 -69.5t-23.5 -72.5t-20.5 -72.5zM93 316
q-6 -12 -7 -29.5t-2 -30.5q-2 -21 -3.5 -47t-0.5 -51t5.5 -47.5t15.5 -36.5q14 -18 40.5 -26.5t52.5 -0.5t52.5 28.5t44.5 43.5q20 26 32 58t11 69q-1 31 -15 51t-37 31.5t-53.5 15.5t-63.5 1q-10 -1 -21.5 -3.5t-22 -6t-18 -8.5t-10.5 -11z" />
    <glyph glyph-name="seven" unicode="7" horiz-adv-x="376" 
d="M24 -5q28 91 62 178.5t66 177.5t65.5 176.5t69.5 170.5q-21 3 -40 9t-38.5 11.5t-39.5 8t-42 -1.5q-30 -6 -51 -20.5t-39 -33.5q-5 -5 -12 -13.5t-13 -9.5q-4 0 -9 3.5t-9.5 8.5t-8 10.5t-3.5 9.5q0 8 9 17l15 15q20 21 45 38.5t60 22.5q28 5 52.5 2t47.5 -8.5
t45.5 -11.5t46.5 -7q3 7 5 14.5t7 12.5q7 2 20.5 4t27.5 2t26.5 -3t17.5 -10q6 -9 2 -26t-9 -29q-28 -68 -57.5 -133.5t-59 -131.5t-57 -133.5t-51.5 -139.5q-8 -25 -17 -51t-18 -53q-4 -12 -8.5 -26t-9.5 -27.5t-12 -23.5t-17 -14q-8 -3 -18.5 -3t-20.5 2t-18.5 6t-11.5 10
z" />
    <glyph glyph-name="eight" unicode="8" horiz-adv-x="453" 
d="M283 470q37 -23 69 -60.5t50 -80.5q17 -42 16.5 -91.5t-14.5 -93.5q-13 -40 -34 -74t-51 -60q-29 -25 -71 -41t-95 -10q-45 5 -77.5 30t-55.5 56q-25 34 -26.5 81.5t15.5 92.5q29 80 76.5 142.5t97.5 121.5q-22 13 -35.5 34t-19.5 46.5t-4.5 54t10.5 55.5q8 24 20 47
t29 41t39 29t51 12q27 1 49 -8.5t38 -25t25.5 -37t11.5 -44.5q3 -39 -11.5 -69t-30.5 -55q-17 -26 -36 -48t-36 -45zM233 729q-12 -11 -23 -28t-19 -37t-13 -42.5t-4 -43.5q0 -8 3.5 -19t8.5 -21t11 -16.5t13 -6.5q4 0 9.5 5t11.5 12t11.5 13.5t8.5 10.5q11 13 19 24t16 24
q17 25 33 52t15 65q-1 24 -13 29.5t-34 3.5q-17 -2 -30.5 -8.5t-23.5 -16.5zM256 440q-15 -11 -29 -32.5t-27 -38.5q-26 -35 -53.5 -74.5t-47.5 -79.5q-10 -21 -20 -44t-14 -50q-3 -23 6 -40t25 -28t37.5 -15.5t43.5 -2.5q31 4 59 21t48 36q43 43 55 109q7 38 4.5 74
t-13 67.5t-28.5 56.5t-42 42q0 1 -0.5 1t-0.5 -1q-2 0 -3 -1z" />
    <glyph glyph-name="nine" unicode="9" horiz-adv-x="375" 
d="M297 699q-11 -4 -22 -1t-18 8q-4 8 -4.5 14.5t-5.5 11.5q-12 12 -29 9t-28 -12q-32 -24 -52.5 -63.5t-34.5 -80.5q-9 -27 -15.5 -60.5t-1.5 -75.5q1 -14 4.5 -32.5t9.5 -34.5t16 -27t25 -10q17 2 28.5 16.5t19.5 23.5q40 51 62 113q5 15 10.5 34t6.5 36q0 8 -2 19t-4 21
q-2 8 -5.5 19.5t1.5 18.5q4 8 14.5 8t21.5 -3.5t20.5 -9t11.5 -8.5q9 -13 13 -38t6 -46q4 -36 4 -73.5t-2.5 -74.5t-6.5 -72.5t-8 -66.5q-7 -44 -17.5 -84.5t-26.5 -77.5q-8 -17 -17.5 -35t-20 -34.5t-23 -30t-25.5 -22.5q-30 -19 -63 -18t-61 15t-47 38.5t-22 53.5
q-3 30 5 50.5t23 37.5q10 -14 12.5 -34t8.5 -38q4 -14 10 -26t16 -20t23 -9.5t30 6.5q21 10 36.5 26.5t27.5 37t21.5 44.5t17.5 48q17 54 26.5 109t8.5 115q-7 -17 -13.5 -34.5t-14 -33t-18 -28.5t-24.5 -21t-31.5 -9t-35 2t-33.5 9.5t-26 13.5q-23 16 -37.5 44.5t-21 63
t-5.5 73t9 75.5q6 32 17 63.5t25 59.5t32 53t41 39q18 12 40.5 15t43.5 -1.5t39 -15t28 -26.5q7 -11 11.5 -27t-4.5 -30z" />
    <glyph glyph-name="colon" unicode=":" horiz-adv-x="257" 
d="M124 313q14 10 31.5 5.5t21.5 -17.5q3 -10 -0.5 -19.5t-11 -15.5t-17 -7t-18.5 6q-8 6 -9.5 21t3.5 27zM176 109q-3 -13 -7 -24.5t-15 -15.5q-12 -5 -21.5 1t-14 16.5t-3 22.5t10.5 20q18 3 31.5 -2.5t18.5 -17.5z" />
    <glyph glyph-name="semicolon" unicode=";" horiz-adv-x="257" 
d="M122 313q6 5 14.5 6.5t17 -0.5t14.5 -7t8 -12q2 -11 -2.5 -20.5t-12 -14.5t-16.5 -5.5t-17 5.5q-9 7 -10 21.5t4 26.5zM177 133q-2 -18 -6.5 -39t-12 -40t-18.5 -34t-26 -21q-14 -6 -27.5 -1.5t-16.5 17.5q20 20 34 43.5t21 58.5q2 8 2.5 17.5t4.5 14.5q14 5 27 -1
t18 -15z" />
    <glyph glyph-name="less" unicode="&#x3c;" horiz-adv-x="384" 
d="M350 -87q-12 -5 -26 -3t-25 7q-23 9 -40.5 27.5t-32.5 33.5q-43 42 -82 84t-84 85q-8 7 -18 16t-12 20t3 19.5t9 15.5q12 20 27 42.5t28 42.5q46 71 79.5 153t63.5 170q4 12 7.5 24.5t8 23.5t12 18t20.5 9q14 2 32.5 -3t24.5 -15q7 -12 5 -33q-2 -17 -8 -35.5t-11 -35.5
q-35 -100 -79 -189t-92 -177l-7.5 -12.5t-9.5 -15.5l-10 -15t-5 -14q0 -6 11.5 -15.5t17.5 -14.5q36 -37 70.5 -75t69.5 -75q14 -14 29 -28.5t24 -34.5z" />
    <glyph glyph-name="equal" unicode="=" horiz-adv-x="486" 
d="M35 379q-2 7 -4 17t-3 19.5t0.5 18.5t6.5 15q20 8 43.5 8h46.5q69 0 145.5 -1t141.5 3q15 1 29.5 -1t18.5 -10q4 -7 3.5 -16t-4 -17.5t-8.5 -15t-9 -8.5q-8 -3 -21 -4t-27.5 -1t-29.5 0.5t-25 0.5q-52 -1 -105 -1.5t-102 -5.5q-24 -2 -48.5 -4.5t-48.5 3.5zM454 326
q1 -9 2.5 -21t0.5 -23t-4.5 -19.5t-11.5 -12.5q-5 -2 -18.5 -2.5t-25.5 -1.5q-33 -2 -67 -4t-66 -6q-52 -5 -90 -11.5t-80 -9.5q-17 -1 -35 1t-25 10q-3 4 -6 15t-5 23.5t-1 24t6 15.5q5 5 16 3t20 -3q45 -3 91 -0.5t90 7t86.5 10.5t81.5 9q10 2 21 2t20 -6z" />
    <glyph glyph-name="greater" unicode="&#x3e;" horiz-adv-x="436" 
d="M58 679q6 4 23.5 2t26.5 -6q8 -3 18 -10.5t20 -16.5t19 -18l16 -16q40 -40 80.5 -84t84.5 -86q8 -8 18.5 -16.5t12.5 -18.5t-3 -19t-9 -17q-13 -20 -29 -43.5t-27 -42.5q-46 -71 -80.5 -155.5t-63.5 -173.5q-7 -18 -13 -37t-20 -27q-8 -4 -19 -4t-21 2t-18 6t-11 9
q-8 11 -6 33q1 17 7 35.5t12 35.5q27 84 64 159t76 149q11 21 22.5 43t25.5 44q4 7 9.5 15.5t5.5 13.5q-1 7 -12 15.5t-17 14.5q-45 45 -86 90t-83 91q-7 8 -15.5 15t-7.5 18z" />
    <glyph glyph-name="question" unicode="?" horiz-adv-x="446" 
d="M293 764q27 3 49.5 -6t38.5 -25.5t25.5 -39.5t11.5 -47q3 -33 -4 -59.5t-19 -48.5t-26.5 -41.5t-27.5 -38.5q-38 -56 -68.5 -112t-56.5 -124q-13 -33 -24.5 -67.5t-13.5 -75.5q-1 -14 -1 -29.5t-8 -23.5q-7 -6 -20.5 -6t-21.5 5t-11.5 16t-4.5 24.5t-0.5 28.5t1.5 27
q2 29 6 51.5t12 42.5q16 41 33 77.5t37 80.5q17 37 39.5 72.5t47.5 69.5q11 15 23 32t23 35q10 17 20.5 37t11.5 44q1 14 -3 27.5t-10 16.5q-9 5 -25.5 2t-26.5 -6q-28 -8 -50.5 -22t-42 -31t-38 -36t-38.5 -37q-7 -5 -14.5 -12.5l-15.5 -15.5t-15 -16.5t-17 -10.5
q-7 -2 -16 0.5t-17.5 6.5t-15 10t-6.5 12q-1 11 8.5 19.5t16.5 16.5q37 41 76.5 77t88.5 65q20 11 43 22t46 13zM113 -82q16 10 35.5 3.5t20.5 -24.5q1 -20 -12 -26t-27 -1.5t-22 17.5t5 31z" />
    <glyph glyph-name="at" unicode="@" horiz-adv-x="835" 
d="M413 120q-16 -5 -33 -4t-32 6.5t-27.5 13t-20.5 16.5q-17 19 -22 43.5t-1.5 50t13 50.5t20.5 44q23 42 50.5 79.5t61.5 57.5q14 9 29 9q2 9 4 15t9 10q15 8 29.5 3.5t26.5 -14.5t22 -22.5t16 -19.5q-3 -35 -7.5 -68t-9.5 -65.5t-10 -65.5t-8 -69q-5 -50 -10 -105t0 -109
q2 -16 4 -31.5t13 -26.5q28 10 45.5 32.5t31.5 47.5q28 51 47 109.5t35 122.5q8 32 15 64.5t9 67.5q3 37 1 74.5t-7 72.5t-12.5 66t-24.5 53q-18 23 -43 37.5t-55.5 20.5t-64.5 3t-68 -15q-54 -19 -99 -53.5t-80 -80.5t-60.5 -100.5t-40.5 -112.5q-9 -32 -12.5 -68t-2.5 -73
t6.5 -72t14.5 -64t27.5 -50t44 -35t56.5 -22t66 -12q0 -21 -11 -30.5t-27.5 -11.5t-35.5 2t-34 9q-51 18 -85.5 58t-53.5 88q-14 35 -19.5 76t-4.5 84t7.5 85t16.5 80q28 108 90 194t151 135q30 17 67 28q25 7 53 9.5t56.5 0.5t55 -8t48.5 -15q24 -11 50.5 -28.5t38.5 -38.5
q23 -42 34.5 -96t13.5 -113t-3.5 -119.5t-16.5 -115.5q-17 -82 -41.5 -151.5t-58.5 -137.5q-11 -21 -26 -44.5t-33 -31.5q-23 -9 -46 -5t-42.5 15.5t-35 27.5t-23.5 31q-12 21 -17.5 47.5t-8 55t-3 57t-2.5 52.5zM331 242q-3 -20 -4.5 -43t11.5 -41q14 -3 26 2t23 11
q8 5 20 13t15 16q4 11 4 27t2 30q2 19 5 42t5.5 46.5t4 45.5t0.5 40q-38 -29 -70 -79t-42 -110z" />
    <glyph glyph-name="A" unicode="A" horiz-adv-x="644" 
d="M461 486q88 20 183 38.5t198 29.5q36 4 78.5 6t82 -1.5t71.5 -15.5t47 -36q5 -9 7.5 -20.5t1 -23t-6.5 -21.5t-15 -16q-4 14 -6 27.5t-10 22.5q-9 11 -26.5 18t-39 10.5t-45 4.5t-43.5 1q-69 0 -131.5 -9.5t-121.5 -22t-116 -26.5t-114 -23q-11 -89 -23 -179.5t-22 -184
t-16.5 -190t-6.5 -198.5q0 -28 2 -54.5t14 -46.5q12 4 19 14t14 19q24 34 43.5 74t35.5 83.5t30 88t28 88.5q29 88 59 176.5t59 176.5q4 11 8 24t15 20q2 -29 -5.5 -57t-14.5 -56q-32 -139 -69 -272.5t-76 -267.5q-8 -27 -17 -52.5t-21.5 -47t-30.5 -37.5t-43 -25
q-34 -12 -56 -2t-36 32.5t-21 52t-10 56.5q-7 62 -6 131t6 131q10 130 27 248t33 239q-26 -2 -54 -7.5t-57 -7.5q-17 -59 -35 -119t-37.5 -118.5t-41.5 -115t-48 -108.5q-13 -26 -27 -50t-33 -46q-17 -20 -40.5 -39t-55.5 -18q-23 1 -42.5 11t-34 27t-23 39.5t-10.5 46.5
q-1 17 -0.5 35.5t8.5 33.5q14 -5 25.5 -16t16.5 -26q4 -12 5 -25l2 -26t4.5 -23.5t12.5 -17.5q37 13 61.5 42t44.5 61q61 96 101 212t75 237q-27 3 -56.5 3.5t-57 4t-50 12.5t-33.5 27q-3 6 -6 15t-4.5 19.5t-1 21t3.5 19.5q7 -3 10.5 -9t7 -12.5t7.5 -13t12 -10.5
q16 -8 39 -12t48.5 -5.5t51 -2t46.5 -1.5q16 45 30.5 93t31 96t36 93.5t43.5 84.5q6 10 18 24.5t23 15.5q10 0 24.5 -2.5t28 -7t24.5 -10t15 -11.5q7 -8 10 -21t4 -24q3 -38 -3 -75t-12 -75q-5 -38 -10 -75t-10 -71zM395 789q-35 -77 -62.5 -161.5t-53.5 -172.5
q28 2 54.5 5.5t50.5 9.5q11 77 27.5 154.5t22.5 155.5q1 5 1.5 11t-4.5 9q-9 -2 -17.5 -5.5t-18.5 -5.5z" />
    <glyph glyph-name="B" unicode="B" horiz-adv-x="672" 
d="M185 664q16 17 35 35t42 33q11 7 27.5 15.5t35.5 14t38 6t36 -6.5q12 -6 25 -16.5t23.5 -24t18 -29t9.5 -31.5q3 -27 -8.5 -50t-22.5 -41q-29 -49 -65.5 -88t-73.5 -78q116 6 185.5 -33.5t99.5 -118.5q17 3 35.5 8.5t38.5 9.5q19 3 42 3.5t35 -11.5q-32 -17 -67.5 -29
t-67.5 -27q9 -39 9 -78t-6.5 -76t-17.5 -70.5t-23 -61.5q-26 -60 -60.5 -113t-74.5 -96q-40 -44 -89.5 -81.5t-110.5 -62.5q-32 -14 -68 -23t-74 -5q-39 3 -69 14t-56 33q-24 19 -43 45.5t-27 56.5q-9 37 -1.5 76t21.5 68q13 28 33 52t43 45t47.5 39.5t48.5 35.5
q100 73 212.5 131.5t241.5 101.5q-8 51 -45 77.5t-96 26.5q-18 0 -33.5 -2t-30.5 -5q-14 -4 -26.5 -9t-26.5 -8q-30 -7 -52 7.5t-31 34.5q-6 12 -5 22t5.5 18t11 15t13.5 14q40 42 78.5 82t72.5 92q5 7 12 18t12.5 23.5t8 26t-0.5 25.5q-6 19 -20.5 20.5t-31.5 -5
t-32.5 -17.5t-21.5 -17q-29 -26 -54 -57.5t-47 -66.5q-21 -35 -40 -73.5t-29 -81.5q-11 -46 -18 -94.5t-15 -96.5t-15 -95.5t-24 -89.5q-25 -6 -43.5 3t-31.5 20q2 73 16 140.5t30 131.5q5 21 11 41.5t10 43.5q11 66 22 134t19 141q3 25 6 50.5t1 48.5q0 4 -1.5 9.5
t-1.5 10.5t3 8t11 3q12 -1 25.5 -4.5t25.5 -9.5t21 -14t12 -18q3 -11 1.5 -22.5t-4.5 -23.5t-5.5 -24.5t-2.5 -24.5zM354 89q-23 -13 -43.5 -27.5t-43.5 -27.5q-66 -40 -128.5 -83.5t-113.5 -100.5q-14 -17 -29.5 -38.5t-26.5 -47.5q-5 -12 -8.5 -27.5t-5 -31.5t0 -32
t7.5 -29q12 -26 44 -38.5t65 -11.5q35 0 67.5 9.5t55.5 20.5q104 47 180.5 125.5t124.5 182.5q19 40 32.5 80.5t19.5 97.5q0 2 1.5 13.5t2 24t-0.5 22.5t-5 10q-1 1 -1 0q-52 -23 -100.5 -44.5t-94.5 -46.5z" />
    <glyph glyph-name="C" unicode="C" horiz-adv-x="492" 
d="M564 320q7 -14 4 -29t-8 -29q-11 -38 -28 -74t-34 -71q-22 -47 -44.5 -91.5t-48.5 -92.5q-21 -40 -46.5 -86.5t-53.5 -90.5q-12 -20 -26.5 -41t-30.5 -40q-15 -18 -36 -34t-47 -21q-20 -3 -35.5 3t-29.5 14q-19 11 -35.5 20.5t-27.5 25.5q-14 23 -21.5 57.5t-10 74
t-2 81.5t2.5 80q9 163 30 297q17 108 41.5 205t68.5 177q9 15 19.5 32t23.5 31t29.5 23.5t36.5 11.5t40 -1.5t38 -10t34 -15t28 -16.5t25 -19t23 -24q5 -6 10 -13t7.5 -15.5t1.5 -17t-9 -15.5q-20 -3 -33.5 7t-24.5 19q-8 7 -18.5 17t-22.5 17.5t-26.5 10t-30.5 -3.5
q-12 -4 -21 -13t-17 -21t-15 -25.5t-13 -25.5q-38 -75 -60.5 -164.5t-39.5 -186.5q-16 -95 -25 -198t-9 -219q0 -14 0.5 -35.5t2.5 -42t7.5 -36.5t16.5 -19t21.5 0.5t18.5 8.5q38 22 67 61t54 75q66 96 122.5 199.5t107.5 211.5q8 17 16 32.5t17 30.5q3 5 6.5 10.5t9.5 3.5z
" />
    <glyph glyph-name="D" unicode="D" horiz-adv-x="683" 
d="M670 436q14 3 32.5 9.5t35.5 12.5q8 2 18 4t19 0.5t15 -7.5t6 -18q-7 -7 -16 -8t-17 -3q-24 -7 -48 -17t-47 -19q-17 -149 -65 -269.5t-116 -221.5q-24 -36 -50.5 -73t-57.5 -70t-67 -60.5t-80 -45.5q-14 -6 -31.5 -10t-35 -3.5t-34 6t-27.5 19.5q-25 22 -33 55.5
t-6 70.5t11.5 73t19.5 63q23 61 57 112t73 94q81 88 181 156t209 125q7 55 4.5 111t-19.5 98q-8 20 -20 38.5t-29 31.5t-39 20t-51 5q-25 -2 -46 -10.5t-39 -20.5t-33.5 -26.5t-28.5 -29.5q-41 -47 -73 -102.5t-57 -117.5t-45.5 -129.5t-39.5 -137.5q-12 -45 -20.5 -94
t-18.5 -101q-5 -24 -10 -48.5t-8 -50.5q-2 -12 -2 -27.5t-1 -30t-3.5 -26.5t-7.5 -18q-7 -8 -18.5 -11t-23 -1t-21 7.5t-12.5 13.5q-5 11 -2 27.5t6 32.5q35 193 56 394.5t32 421.5q2 33 0.5 66.5t6.5 65.5q8 -2 19.5 -2t23.5 -0.5t22 -2.5t15 -6q9 -8 11.5 -25.5t2.5 -38
t-1.5 -41.5t-2.5 -34q-2 -39 -6.5 -74.5t-6.5 -67.5q29 44 57.5 94t65 93t85 73t117.5 35q34 2 61 -5t48.5 -20t37.5 -32t27 -41q23 -47 32.5 -105t8.5 -126zM277 115q-28 -34 -55 -70t-48.5 -78t-34 -93t-11.5 -114q0 -17 1 -36t9 -27t26.5 -6t31.5 7q40 14 70.5 38.5
t56.5 50.5q54 54 101 115.5t84.5 132t63.5 151.5t40 175v1l-1 1l-1 -1q-97 -50 -180.5 -111t-152.5 -136z" />
    <glyph glyph-name="E" unicode="E" horiz-adv-x="531" 
d="M623 345q-5 -32 -17.5 -60t-24.5 -56q-35 -83 -74 -162t-84 -154q-29 -49 -61.5 -94.5t-72.5 -87.5q-18 -20 -40 -38.5t-48 -32.5t-57 -22t-68 -7q-76 2 -121.5 35.5t-56.5 102.5q-6 35 -3 69.5t11 67t19.5 62.5t23.5 56q25 54 53.5 104.5t62.5 95.5q35 45 74 84t74 81
q-38 7 -68.5 28.5t-49 52t-23.5 69t8 80.5q12 40 46 75t80 56t100.5 25.5t108.5 -16.5q9 -3 20.5 -8.5t22 -12.5t18 -15t8.5 -17q3 -17 -6.5 -26.5t-21.5 -16.5q-22 8 -49 14.5t-56 9.5t-58.5 1.5t-55.5 -9.5q-37 -11 -61.5 -33.5t-42.5 -54.5q-11 -22 -14.5 -42.5
t13.5 -40.5q20 -23 53.5 -35.5t68.5 -19.5q17 -3 34.5 -4.5t31.5 -7.5l16 -8t19 -12.5t15 -16t5 -17.5t-15.5 -16t-23.5 -13q-29 -20 -56.5 -45.5t-50.5 -50.5q-33 -36 -64.5 -72t-60 -73.5t-54.5 -78.5t-48 -89q-10 -22 -19 -46t-16 -54q-5 -27 -7 -61.5t11 -58.5
q7 -14 21 -22t31 -12t37 -4t40 2q38 5 67 19.5t49 32.5q45 40 81.5 88.5t68.5 97.5q60 89 114.5 180.5t108.5 185.5l15 27q4 5 7.5 12t11.5 9z" />
    <glyph glyph-name="F" unicode="F" horiz-adv-x="586" 
d="M1023 676q2 9 12 15t21 11.5t19 13.5t7 22q-1 6 -8.5 10.5t-17 7t-20.5 4t-19 2.5q-63 7 -129 1.5t-120 -12.5q-81 -11 -154 -25.5t-138 -34.5q7 -35 9 -74.5t0.5 -80t-5 -81t-6.5 -77.5q35 7 70.5 16.5t74.5 14.5q12 2 25.5 3t24.5 -5q-4 -13 -15.5 -19.5t-22.5 -11.5
q-36 -17 -79 -27.5t-84 -21.5q-12 -85 -26 -167t-32.5 -159.5t-43.5 -149.5t-59 -135q-32 -61 -79.5 -113t-111.5 -82q-37 -17 -78.5 -23t-82 -2t-77.5 17.5t-64 34.5q-30 23 -47.5 52t-23.5 70q-8 43 0 86t21 80q24 71 63.5 129.5t85.5 106.5q88 91 209.5 163.5
t257.5 116.5q4 1 7.5 2t7.5 3q4 8 4.5 17t1.5 18q4 65 4 139t-8 136q-28 -5 -59 -15.5t-64.5 -20.5t-69 -16t-72.5 -3q-41 3 -59.5 36.5t-5.5 81.5q2 10 7 19.5t15 12.5q8 -3 12 -10t5.5 -16.5t2 -20t2.5 -19.5q31 -13 70 -9.5t73 8.5q72 10 135 27q-2 16 -8.5 29.5
t-8.5 26.5q17 5 34.5 2t30.5 -11q8 -5 11.5 -14t11.5 -14q57 11 114 25.5t116 27.5t120.5 23.5t127.5 13.5q32 1 63.5 -1t57.5 -11t43 -25.5t19 -43.5q0 -20 -7 -31q-12 -20 -38 -30.5t-53 -12.5zM-26 58q-28 -30 -56 -65t-51 -75.5t-39 -87t-19 -100.5q-6 -77 41 -122
q23 -24 56 -32.5t68 -7t68.5 12t58.5 25.5q54 32 90.5 74.5t65.5 98.5q28 56 47.5 117.5t36.5 127.5t29.5 135t19.5 145l-1 1q-123 -42 -229.5 -101.5t-185.5 -145.5z" />
    <glyph glyph-name="G" unicode="G" horiz-adv-x="514" 
d="M414 665q-14 -2 -24 4t-19 15t-17 19.5t-17.5 18t-21 9.5t-27.5 -5q-17 -8 -30.5 -23.5t-24.5 -35t-20 -41t-16 -40.5q-29 -72 -52.5 -150.5t-47.5 -158.5q-6 -18 -11.5 -37.5t-10.5 -42.5q-3 -14 -7.5 -32t-4.5 -34t8 -25.5t30 -5.5q22 5 40 17.5t34 25.5q47 40 87 91
t74 99q-20 -4 -41 -8.5t-44 -7.5q-11 -1 -23 -1.5t-22 2.5t-15.5 9.5t-3.5 20.5q15 10 36.5 13.5t44.5 5.5q22 3 45 5t44 5q20 3 43.5 6t47.5 3q10 0 21.5 -1t20.5 -5t14 -12t4 -21q-22 -5 -47 -5t-50 -2q6 -6 7 -17t-0.5 -24t-4 -27.5t-4.5 -27.5q-3 -20 -5.5 -38.5
t-6.5 -35.5q35 23 68.5 48t61.5 57q8 11 18.5 21t26.5 12q2 -10 0 -19t-6.5 -17.5t-10.5 -15.5t-11 -14q-17 -20 -36.5 -38t-40.5 -34.5t-41.5 -33t-39.5 -33.5q-12 -54 -23.5 -108.5t-26 -107t-33.5 -102t-44 -92.5q-24 -40 -57 -76.5t-80 -55.5q-29 -11 -61 -10
t-61.5 11.5t-51.5 29t-29 42.5q-8 24 -7.5 49t5 48t12.5 43t17 35q20 36 45 63.5t54 51.5q59 51 122 92.5t129 83.5q3 38 11.5 79.5t15.5 81.5q-30 -35 -62.5 -76t-64.5 -79q-12 -14 -24.5 -27.5t-28 -24t-35.5 -15.5t-46 -1q-42 7 -62.5 31t-23.5 70q-2 28 1.5 53.5
t10.5 50t15.5 47.5t16.5 45q16 45 28.5 91.5t26 92t30.5 89t41 81.5q10 17 23.5 35t29.5 33t35.5 26t42.5 14q14 2 30.5 -1.5t31.5 -10t27.5 -15.5t19.5 -18q6 -8 11 -18.5t10 -21.5q5 -10 8.5 -22.5t-1.5 -24.5zM161 -321q17 25 29 52.5t23 55.5q23 60 39.5 123.5
t30.5 126.5q0 2 -1 1q0 -1 -1 -1t-1 -1q-41 -27 -83 -55.5t-80.5 -61t-70 -71.5t-52.5 -87q-7 -15 -12 -34.5t-5.5 -40t3.5 -40t16 -35.5q32 -5 57 -1.5t45 13t35.5 24.5t27.5 32z" />
    <glyph glyph-name="H" unicode="H" horiz-adv-x="446" 
d="M152 267q38 8 80 16.5t87 13.5q14 83 20.5 174.5t13.5 184.5q1 12 0.5 24.5t7.5 23.5q13 0 23.5 -7.5t19.5 -15.5q7 -6 18.5 -16.5t13.5 -18.5q5 -19 3.5 -41.5t-2.5 -45.5q-2 -68 -9 -133.5t-17 -120.5q11 -1 25 -0.5t28 -0.5q4 0 11 -0.5t13.5 -2t11 -4.5t3.5 -9
q-2 -9 -18.5 -10.5l-27.5 -2.5q-31 -5 -51 -6q-6 -40 -14 -80.5t-14 -83t-9 -87.5t1 -93q1 -11 3 -26.5t-2 -20.5q-6 -7 -19 -3.5t-20 6.5q-10 4 -19 8t-14 9q-13 12 -14.5 37.5t-1.5 50.5q0 72 11 140.5t19 134.5q-45 -4 -87.5 -14t-81.5 -21q-15 -79 -34.5 -154.5
t-45.5 -144.5t-60.5 -129.5t-80.5 -109.5q-29 -31 -70 -57.5t-94 -30.5q-47 -4 -78.5 9t-55.5 35q-27 23 -46 59t-15 90q1 23 9 45.5t19.5 43t24.5 38.5t25 33q79 99 186.5 170t237.5 117q8 45 14 96t11 105t9 109t8 109q1 14 1 34v40q0 8 -0.5 19.5t0.5 22t4 18t10 6.5
q25 -4 49.5 -19.5t27.5 -40.5q2 -15 -1.5 -31.5t-4.5 -30.5q-4 -51 -7.5 -104.5t-8 -106t-11 -103.5t-15.5 -96zM-301 -73q-21 -29 -41.5 -65.5t-23.5 -78.5q-1 -13 -0.5 -23.5t3.5 -19.5q3 -12 10.5 -24t18 -21.5t23.5 -15t27 -5.5q9 0 20.5 4t22.5 7q36 9 65 28.5t52.5 44
t42.5 53.5t34 58q38 72 63 153t42 174q0 1 -1 1q-109 -42 -200.5 -110.5t-157.5 -159.5z" />
    <glyph glyph-name="I" unicode="I" horiz-adv-x="469" 
d="M280 -88q36 21 64.5 50t52.5 63.5t44 72.5t39 78q8 17 18.5 38t18.5 41q3 8 5 17t6 10q9 3 12 -8.5t3 -22.5q-1 -29 -13 -55.5t-22 -47.5q-21 -47 -45.5 -92t-54.5 -83.5t-68.5 -69t-88.5 -48.5q-19 -26 -35 -55.5t-34 -57.5t-40.5 -51.5t-53.5 -38.5q-22 -10 -47.5 -9.5
t-49.5 11.5q-41 19 -63 58.5t-32 90.5q-3 17 -5.5 38t-3 43t1 44t6.5 41q3 12 8 24t15 13q11 2 20.5 -7t15.5 -17q7 -8 15 -17t10 -18q3 -14 0 -30.5t-4 -33.5q-1 -24 -1.5 -49t1.5 -48.5t7.5 -43.5t17.5 -33q32 3 53 21.5t39 36.5q18 19 34.5 40.5t31.5 43.5
q-58 18 -89.5 68.5t-44 117.5t-11 143t10.5 145q17 135 61.5 253t111.5 204q11 12 22.5 23.5t25 21.5t30.5 16t38 6q33 0 55 -17t36 -43.5t22 -59t11 -62.5q8 -75 -1 -146.5t-18 -134.5q-20 -137 -53.5 -255.5t-84.5 -218.5zM278 765q-72 -71 -117 -166.5t-70 -210.5
q-8 -34 -14.5 -76t-10.5 -87t-4 -90t6.5 -85.5t21 -74.5t38.5 -55q4 -3 11 -8.5t14.5 -10t15 -7t13.5 -1.5q3 1 7 6.5t7.5 12.5l7 14t6.5 11q72 133 110 288.5t53 339.5q3 34 2.5 68.5t-5 65.5t-15 57.5t-28.5 45.5q-13 -4 -25.5 -15t-23.5 -22z" />
    <glyph glyph-name="J" unicode="J" horiz-adv-x="485" 
d="M-183 800h2q4 -7 6 -16l4 -18t4.5 -17.5t7.5 -14.5q14 -17 43.5 -23t64 -6t69 3.5t59.5 6.5q62 6 121.5 14t119.5 15.5t121 14t125 10.5q30 1 64.5 2.5t66 -2.5t56 -14t34.5 -31q5 -11 5 -28.5t-11 -25.5q-19 31 -59 43t-88 12.5t-98.5 -5.5t-90.5 -10
q-2 -119 -10 -233.5t-22 -223.5q28 10 59.5 22.5t63.5 23.5q4 1 10.5 3t12.5 2.5t10.5 -1.5t4.5 -8q0 -5 -4 -9.5t-10.5 -8t-13 -6t-10.5 -4.5q-34 -16 -67 -32t-63 -34q-19 -116 -48.5 -220t-73.5 -197q-16 -33 -33.5 -66t-39 -62t-48 -54t-59.5 -42q-10 -5 -23 -10.5
t-27 -9t-28.5 -4.5t-28.5 3q-27 7 -48 24.5t-34 42t-16 55.5t6 66q23 87 64.5 156.5t95.5 127t117.5 104.5t132.5 88q17 115 27 239.5t11 255.5q-63 -9 -127.5 -21t-132.5 -20q-35 -5 -79 -9.5t-84.5 -2t-72.5 15.5t-42 43q-3 9 -4.5 22.5t-1.5 27.5t2.5 26.5t7.5 19.5z
M64 -64q-34 -44 -64 -99.5t-39 -124.5q-2 -11 -3 -25.5t0 -28t3.5 -24.5t8.5 -17q7 -7 19 -7.5t25 2t25 7t20 8.5q19 10 33.5 21.5t27.5 25.5q40 42 68.5 95t49.5 113t36 125.5t28 132.5q0 1 -1 1q-69 -43 -127.5 -92t-109.5 -113z" />
    <glyph glyph-name="K" unicode="K" horiz-adv-x="508" 
d="M155 367q57 20 113.5 42.5t118.5 39.5q19 5 42 10.5t43 -5.5q-2 -11 -9 -19.5t-16 -14.5t-18.5 -11t-18.5 -9q-57 -30 -118.5 -56t-117.5 -55q11 -102 29.5 -197.5t41.5 -187.5q7 -30 14.5 -59.5t24.5 -52.5q12 16 20.5 34.5t16.5 37.5q24 56 47.5 113.5t47.5 114.5
t49.5 112.5t55.5 107.5q9 16 21 33q5 7 11 15.5t17 6.5q3 -5 1 -10.5t-4 -10.5q-45 -121 -91.5 -242t-82.5 -252q-7 -23 -15.5 -42.5t-21.5 -36.5q-8 -10 -18.5 -19.5t-23.5 -15.5t-27.5 -7t-28.5 6q-21 10 -34.5 29t-23 43t-16.5 50.5t-13 50.5q-14 53 -25.5 105t-22.5 106
q-11 -84 -15 -181t-5 -197q0 -15 -1 -31.5t-4 -31t-8.5 -26t-14.5 -17.5q-14 -8 -35.5 -7.5t-35.5 8.5q2 233 19.5 454.5t46.5 433.5q7 50 14 102.5t20 102.5q3 14 9 33t14 24h28.5t32.5 -2t28.5 -7.5t16.5 -16.5q3 -11 -0.5 -25l-6.5 -26q-12 -39 -20.5 -83.5t-16.5 -89.5
t-16 -89t-18 -82z" />
    <glyph glyph-name="L" unicode="L" horiz-adv-x="623" 
d="M395 -101q98 -10 186 -37.5t154 -75.5q20 -14 41.5 -33t33.5 -42q4 -8 7.5 -18t-1.5 -21q-14 5 -23 15.5t-19 18.5q-71 63 -170.5 95t-226.5 40q-29 -95 -77 -170.5t-121 -128.5q-17 -12 -37.5 -24.5t-44.5 -21t-49.5 -11t-52.5 6.5q-42 14 -74.5 48.5t-37.5 87.5
q-2 22 2 40t12 32.5t18.5 26.5t21.5 23q66 67 162 101.5t214 48.5q27 111 46.5 227.5t39.5 233.5q-23 -8 -48.5 -19t-52.5 -21q-12 -4 -26.5 -8.5t-30 -7t-30.5 -2t-28 8.5q4 8 12 11t16 5q54 22 104 50t97 57q8 46 17.5 94t22 94t28.5 89t37 80q7 13 17.5 29.5t23.5 31
t29 24.5t35 10q20 1 40 -5t37.5 -15.5t31 -21.5t19.5 -24q12 -21 13 -45t-4.5 -47t-15 -45t-18.5 -38q-43 -74 -105 -132.5t-131 -102.5q-20 -95 -36.5 -191t-35.5 -193q-7 -32 -13.5 -63.5t-8.5 -64.5zM673 676q11 18 21 39t12 43q2 23 -6 45t-22 27q-14 7 -27 0t-21 -14
q-27 -23 -45.5 -60.5t-32 -81t-23.5 -89t-21 -84.5q41 34 87 80t78 95zM293 -166q-90 -13 -165.5 -44.5t-125.5 -88.5q-17 -18 -31.5 -41t-17.5 -52q-3 -23 9 -37t30 -21q17 -6 34.5 -4t33.5 8.5t30 15t25 16.5q63 48 106 113t75 137q0 2 -1 1q0 -1 -1 -1t-1 -2z" />
    <glyph glyph-name="M" unicode="M" horiz-adv-x="938" 
d="M672 -274q23 1 38.5 17t28.5 32q39 48 69 106t57 119q31 70 58.5 145t53.5 153q1 3 3 9.5l4 13t5 11.5t7 5q5 0 7.5 -6t3.5 -14.5t0.5 -17t-0.5 -14.5q-5 -45 -17.5 -81t-23.5 -71q-34 -101 -69 -188.5t-87 -170.5q-12 -19 -25.5 -37.5t-30.5 -35.5q-15 -16 -35.5 -31
t-46.5 -15q-25 -1 -43 11.5t-28 29.5q-14 23 -18.5 56.5t-3 70.5t7 72.5t10.5 63.5q11 61 29.5 118t35.5 115q25 88 49 174.5t43 180.5q6 30 11.5 63t-4.5 67q-22 -9 -38 -25.5t-31 -33.5q-91 -97 -160 -223.5t-114 -269.5l-16.5 -49.5t-11.5 -49.5q-3 -19 -2.5 -36.5
t-8.5 -27.5q-8 -8 -21.5 -10t-27 1t-24.5 10t-14 18q-5 11 -3.5 29.5t3.5 32.5q5 80 15.5 147.5t26.5 136.5l6.5 26t4.5 28.5t-1.5 27.5t-11.5 24q-32 -14 -54 -40t-39 -55q-71 -116 -102 -273q-4 -17 -4.5 -40.5t1.5 -48.5q0 -9 1 -21.5t1 -25t-1.5 -23t-5.5 -14.5
q-3 -3 -10 -4.5t-15 -1.5t-16 1t-13 4q-12 5 -18.5 22t-9.5 38.5t-4 44t-2 39.5q-5 80 -10.5 165.5t-5.5 172.5q0 44 -0.5 88.5t10.5 79.5q10 7 23 8.5t25 -2.5t21.5 -11t12.5 -16q5 -17 5 -38.5v-44.5q0 -31 -0.5 -64.5t-0.5 -67t1 -65.5t3 -59q20 56 46.5 117.5
t62.5 109.5q13 17 30.5 34.5t41.5 19.5q33 3 53 -10.5t29.5 -37t9.5 -54t-7 -60.5q25 42 51 86.5t53.5 89.5t57.5 89t63 84q19 24 45 51.5t56 38.5q12 5 26.5 4.5t27.5 -5.5q30 -14 48.5 -53t18.5 -84q-1 -28 -9 -55t-14 -54q-32 -132 -64 -264.5t-58 -270.5
q-8 -42 -15.5 -84t-9.5 -88q-1 -14 -1.5 -29.5t5.5 -29.5z" />
    <glyph glyph-name="N" unicode="N" horiz-adv-x="727" 
d="M94 17q29 106 62 207t81 191q23 43 49.5 84.5t62.5 73.5q16 14 37 29.5t44 24.5q36 15 68 4t47 -39q12 -21 16 -50t3.5 -60.5t-5 -63t-9.5 -58.5q-31 -170 -58.5 -344.5t-31.5 -361.5q12 4 18.5 14.5t12.5 19.5q22 36 39.5 76.5t33 83t30 86t31.5 84.5q32 83 69 162
t81 152q5 10 11 21t19 13q4 -12 -1.5 -23t-10.5 -22q-57 -115 -99.5 -243t-84.5 -261q-16 -47 -35 -90q-10 -22 -20 -43.5t-23 -38.5q-7 -9 -20 -20t-29.5 -18.5t-34.5 -9t-34 7.5q-11 6 -16.5 18.5t-8.5 28.5t-3.5 34.5t-0.5 36.5q1 36 5 69.5t8 63.5q16 134 35 256.5
t47 247.5q9 42 21.5 87.5t11.5 99.5q-1 21 -6 35t-16 16t-25.5 -7t-23.5 -17q-35 -28 -63 -64t-50.5 -77t-41.5 -85.5t-36 -89.5q-35 -91 -66 -186.5t-48 -207.5q-3 -17 -5 -33.5t-10 -23.5q-12 -9 -31 -5t-33 5q-20 42 -26.5 94t-11.5 106q-11 141 -4.5 286t29.5 272
q5 25 9.5 49t17.5 43q7 3 18.5 3.5t23 -1.5t20.5 -7.5t11 -14.5q1 -5 0.5 -15t-2.5 -21t-4.5 -21.5t-3.5 -16.5q-11 -59 -20.5 -127t-16 -138.5t-8 -142t4.5 -138.5z" />
    <glyph glyph-name="O" unicode="O" horiz-adv-x="727" 
d="M506 827q66 0 108 -35t63.5 -91.5t26 -128t-2.5 -144.5q-8 -69 -22.5 -130.5t-34.5 -117t-43 -106.5t-47 -101q-24 -51 -51.5 -98.5t-59.5 -91.5q-32 -45 -68 -84t-84 -65q-26 -14 -59 -19t-62 9q-36 16 -55.5 49.5t-27 76t-6 90.5t8.5 95q1 7 3.5 18t1.5 14
q-2 5 -11.5 8.5t-11.5 5.5q-33 22 -48.5 61.5t-18.5 87t4.5 98t20.5 94.5q19 64 47 120.5t57 101.5q32 51 68.5 94t81.5 83q20 18 44 36t50 33q26 14 58 25.5t70 11.5zM152 -264q2 -17 8 -37t20 -23q9 -2 18.5 1.5t19.5 8.5t18 11.5t14 10.5q46 34 83.5 75t70.5 84
q45 59 82.5 128.5t69.5 137.5q32 69 60 148t39 171q6 46 5.5 97.5t-11 96.5t-32.5 77t-59 40q-40 8 -77.5 -4t-66.5 -26q-75 -37 -133.5 -95.5t-100.5 -127.5q-43 -69 -77 -151.5t-45 -183.5q-3 -24 -3 -49.5t4.5 -47.5t15 -38.5t28.5 -22.5q12 63 26 124t34 115
q7 19 15 36.5t14 34.5q3 9 5 21.5t10 14.5q6 1 16 -3t20 -10.5t17.5 -13.5t8.5 -11q2 -8 0 -18t-5 -20.5t-7 -20.5t-6 -17q-17 -54 -33.5 -109.5t-29.5 -111.5q64 24 111.5 65.5t77.5 98.5q4 8 8 17t12 14q8 -11 4.5 -24t-6.5 -24q-8 -26 -18 -43q-33 -58 -87.5 -96
t-114.5 -66q-5 -27 -10.5 -54.5t-10 -56.5t-6 -59.5t3.5 -63.5z" />
    <glyph glyph-name="P" unicode="P" horiz-adv-x="641" 
d="M232 507q32 25 66 50.5t72 47.5q18 10 39 20.5t45 18t49.5 10.5t51.5 -3q48 -11 72.5 -48t27.5 -90q4 -58 -8.5 -108t-25.5 -95q22 -3 47 -9q9 -2 23.5 -6t14.5 -12q0 -7 -8.5 -10.5t-20.5 -4t-24.5 0t-19.5 1.5q-6 1 -13.5 2.5t-12.5 0.5q-4 -2 -7.5 -10.5t-6.5 -15.5
q-9 -20 -21 -40t-23 -36q-32 -47 -78 -82.5t-97 -62.5q-12 -6 -25.5 -13t-29.5 -12t-34 -7.5t-37 -0.5q-15 1 -29 7.5t-26 16t-20 23t-9 29.5q-2 19 2.5 35t13 29.5t18.5 23.5t20 18q25 18 50.5 31.5t50.5 26.5q54 26 111.5 47t130.5 29q16 29 25.5 63t14.5 75
q3 18 4.5 40.5t-1 43t-10 36.5t-23.5 21q-15 5 -33.5 -0.5t-32.5 -10.5q-179 -61 -284 -188q-8 -11 -17.5 -22t-15.5 -23q-5 -11 -7.5 -23.5t-6.5 -25.5q-23 -86 -45 -176.5t-38 -181.5q-9 -54 -18 -107t-15 -112q-2 -28 -4 -58.5t-4 -59.5q-1 -12 -1.5 -28.5t-2.5 -32.5
t-6 -28t-11 -15q-8 -3 -18 0t-18 5q-10 2 -17 5t-13 8q11 173 32 333t51 313q15 75 33 148t39 145q11 35 20 70.5t16 73.5q7 36 14.5 73t29.5 65q11 0 24.5 -2.5t25.5 -6.5t22 -10t13 -14q4 -11 3 -24t-5 -26.5t-9.5 -26.5t-9.5 -23q-9 -28 -16 -51.5t-14 -43.5zM239 104
q-8 -8 -16.5 -20t-6.5 -20q1 -6 7 -8.5t14 -3.5t16.5 0t15.5 2q48 6 80 24t59 41q38 32 69.5 67.5t57.5 77.5q-1 0 -1 0.5t-1 0.5t-1 -1q-85 -24 -162 -62.5t-131 -97.5z" />
    <glyph glyph-name="Q" unicode="Q" horiz-adv-x="742" 
d="M476 -207q45 -39 97 -82t111 -76q9 -5 26.5 -13t35.5 -12.5t34 -2t24 17.5q2 5 1.5 13.5t5.5 10.5q10 4 13.5 -4.5t3.5 -21.5t-2 -25.5t-4 -16.5q-10 -20 -37 -30t-58 -3q-20 4 -41.5 17t-39.5 24q-57 35 -109 74t-101 80q-20 -19 -39.5 -37t-43.5 -33q-23 -14 -55 -23.5
t-65 1.5q-30 9 -50.5 30.5t-33 52t-17 67.5t-0.5 78q-18 0 -32 -1t-29 -6q-11 -4 -24 -13t-26 -7q-5 1 -10 9.5t-8 19.5t-4.5 22t-0.5 17q1 5 4.5 10.5t7.5 8.5q21 18 57.5 23.5t71.5 4.5q2 8 3 16t2 17q-35 16 -55 45.5t-28.5 67t-7.5 80t8.5 84.5t19.5 81t24 70
q42 102 103.5 187.5t142.5 152.5q19 16 42 32.5t49 29.5t54.5 21t59.5 8q58 0 96.5 -26.5t61.5 -70.5t32 -101t8.5 -117t-8.5 -120t-21 -109q-19 -75 -47.5 -144t-59.5 -135t-65.5 -127.5t-76.5 -115.5zM653 283q21 60 38.5 129t17.5 154q0 42 -5.5 85t-21 76.5t-43.5 53
t-73 16.5q-32 -2 -61.5 -12.5t-56 -25.5t-50 -33t-43.5 -35q-84 -72 -142 -172t-90 -224q-8 -29 -14.5 -66t-5.5 -72.5t11.5 -65t37.5 -43.5q12 64 26 124.5t34 115.5q7 18 15 35.5t14 35.5q3 9 4.5 19.5t10.5 16.5q17 -4 37.5 -13.5t24.5 -25.5t-4.5 -37t-13.5 -37
q-18 -55 -34 -111.5t-29 -110.5q65 23 111.5 65.5t77.5 98.5q5 8 8.5 17t11.5 14q8 -11 4.5 -24t-6.5 -24q-8 -26 -18 -43q-33 -58 -87.5 -96t-114.5 -66q-3 -13 -5.5 -25.5t-4.5 -26.5q58 -17 106 -43.5t90 -58.5q77 91 138 200.5t105 234.5zM203 -131q-1 0 -1 -3
q-3 -17 -3.5 -41.5t1.5 -48.5q1 -8 3 -19t5 -21t7.5 -18t10.5 -10q9 -3 20.5 0t22.5 9.5t21 14t16 12.5q17 14 32.5 27.5t24.5 26.5q-72 46 -160 71z" />
    <glyph glyph-name="R" unicode="R" horiz-adv-x="617" 
d="M216 563q52 48 110.5 97.5t129.5 83.5q14 6 31.5 13t36.5 10.5t38.5 3.5t38.5 -7q42 -17 71.5 -55.5t29.5 -95.5q0 -43 -13.5 -80.5t-30.5 -67.5q-17 -32 -37.5 -60t-40.5 -54q-22 -27 -44.5 -52.5t-48.5 -47.5t-55.5 -40t-65.5 -30q28 -48 61 -96.5t65 -97.5
q32 -48 63.5 -96t69.5 -92q36 -42 78 -81.5t91 -71.5q23 -16 51 -30t58 -22q20 -6 47 -9.5t51.5 -1t43.5 13t23 32.5q3 13 1 26t-6 25t-8 23t-7 21q12 7 22.5 5t18.5 -9t14 -17.5t10 -20.5q6 -16 10 -33t2 -37q-5 -44 -31.5 -70.5t-61.5 -37.5q-43 -13 -86.5 -3.5
t-78.5 24.5q-71 29 -128 72.5t-104.5 96t-88 111.5t-79.5 120q-40 62 -78 123t-79 120q-38 -6 -77 -2t-72 10q-6 -38 -10.5 -80.5t-9 -86l-9 -87t-9.5 -83.5q-4 -29 -6.5 -56.5t-10.5 -50.5q-3 -10 -10 -19.5t-16 -15.5t-19.5 -7t-22.5 8q5 152 16 296.5t28 282.5
q-5 -3 -8.5 -8.5t-8 -11t-10 -9t-13.5 -3.5q-9 0 -14 9.5t-8 22.5t-3.5 26.5t1.5 22.5q5 26 25 48t37 40q5 6 13 12.5t10 14.5q3 8 3.5 20t2.5 23q9 63 19 124.5t21 124.5q2 11 5 21t3 19q0 6 -3.5 14.5t0.5 13.5q6 1 16.5 1.5t22 0t21 -2.5t14.5 -5q10 -7 14 -20.5t4.5 -30
t-1.5 -34t-5 -31.5q-6 -33 -12.5 -62.5t-11.5 -53.5zM544 390q32 32 59.5 74.5t44.5 92.5q5 17 11 37.5t4 38.5q-2 17 -10.5 31t-21.5 24.5t-29 16.5t-34 6q-39 -1 -72 -20t-58 -38q-27 -21 -49.5 -42.5t-45.5 -47.5q-32 -36 -64.5 -73.5t-62.5 -75.5q-9 -12 -22 -27
t-17 -27q-5 -14 -3.5 -30.5t-2.5 -30.5q18 6 36 13.5t40 5.5q17 -2 29.5 -9t21.5 -17.5t16 -23t14 -23.5q63 26 115.5 61.5t100.5 83.5zM214 257q4 -5 11.5 -9t15.5 1q2 7 -1.5 11.5t-9 5.5t-10.5 -1t-6 -8z" />
    <glyph glyph-name="S" unicode="S" horiz-adv-x="675" 
d="M331 254q46 19 93.5 39.5t96 39.5t100 35t107.5 27q15 3 32 5.5t32 -7.5q-4 -14 -19 -17.5t-28 -6.5q-101 -26 -190 -65.5t-168 -85.5q53 -41 109 -79t100 -88q22 -25 39 -55.5t25 -68.5q8 -39 1.5 -80.5t-21.5 -76.5q-28 -62 -76.5 -110.5t-102.5 -85.5
q-58 -39 -122 -68t-144 -41q-47 -7 -90.5 -4t-77.5 14q-38 13 -61.5 33.5t-43.5 49.5q-20 28 -34.5 60.5t-19.5 73.5q-5 45 4.5 84t23.5 73q27 63 70 116.5t91 97.5q50 46 102.5 86.5t112.5 73.5q-27 19 -50.5 36.5t-43.5 42.5q-11 13 -21.5 28t-18.5 33t-12.5 39t-2.5 46
q2 33 17.5 65t32.5 57q25 36 60.5 67t78.5 55t91.5 40.5t99.5 22.5q28 3 38.5 -11t19.5 -35q6 -14 11.5 -29.5t-2.5 -28.5q-11 -9 -25 -4t-26 6q-29 1 -62 -9t-58 -20q-55 -21 -96.5 -51t-78.5 -71q-11 -12 -23 -27.5t-19.5 -32t-8.5 -35t9 -36.5q11 -21 29 -36.5t38.5 -29
t42 -25.5t39.5 -26zM295 159q-61 -42 -115 -86t-104 -94q-42 -42 -79 -92.5t-58 -112.5q-8 -21 -14 -45.5t-5 -50.5q1 -33 15 -57t35.5 -41.5t49.5 -28.5t57 -17q35 -8 69 -7t65.5 7.5t60 16t53.5 20.5q75 32 140.5 83.5t107.5 120.5q14 23 27 51t15 58q1 33 -15 61t-31 47
q-49 60 -110.5 104.5t-125.5 86.5q-8 -5 -18.5 -11.5t-19.5 -12.5z" />
    <glyph glyph-name="T" unicode="T" horiz-adv-x="595" 
d="M266 665q78 10 163.5 19.5t175.5 15t182 6.5t184 -6q28 -2 57 -5.5t54.5 -10t45.5 -17.5t32 -29q6 -11 8.5 -23.5t0 -24.5t-9.5 -20.5t-19 -11.5q-14 -3 -23.5 2.5t-18.5 10.5q0 7 7.5 11t9.5 13q-13 20 -38 25t-50 9q-80 11 -171 11.5t-178 -2.5q-119 -5 -227 -18
t-208 -33q-33 -106 -65.5 -216t-52.5 -232q-14 -89 -25.5 -188t-3.5 -202q2 -31 9 -60t29 -43q48 30 86.5 72t70.5 89q65 94 123 194.5t118 200.5q23 37 44.5 74t44.5 75q6 11 14 24t24 15q4 -17 -4 -31.5t-15 -27.5q-39 -73 -76 -147.5t-75 -148t-78.5 -145.5t-85.5 -140
q-16 -23 -33 -46.5t-37 -46.5q-17 -20 -41.5 -42t-51.5 -27q-18 -3 -34.5 2.5t-31 16t-26 23.5t-17.5 24q-13 22 -19.5 49.5t-9 57.5t-2 61t2.5 61q8 193 43 363t77 324q-49 -9 -99.5 -21.5t-102.5 -26t-106 -25.5t-109 -19q-21 -3 -44 -5.5t-45.5 -2t-43 4t-35.5 12.5
q-17 10 -31.5 28t-24.5 37q-5 8 -10 20t-7 24.5t0.5 24t13.5 18.5q10 -17 15 -38.5t19 -33.5q15 -13 39 -17t51 -3t54.5 5t50.5 9q52 10 108 21.5t112 23.5t111 22.5t105 19.5q17 51 31 103t34 100q7 0 18 -1t21.5 -3.5t19.5 -6t13 -8.5q5 -8 4.5 -19.5t-3.5 -23.5t-7 -23.5
t-7 -19.5q-8 -24 -13.5 -45t-10.5 -36z" />
    <glyph glyph-name="U" unicode="U" horiz-adv-x="659" 
d="M114 -132q29 -9 51 3.5t37 27.5q48 47 77.5 112.5t54.5 134.5q16 44 33 94t26 100q8 42 11 84.5t7 87.5q2 13 3 31t6 23q9 8 24 4.5t24 -6.5q13 -5 21.5 -10t13.5 -14q-1 -54 -8 -106t-15 -103t-16 -100.5t-16 -99.5t-15 -102t-11 -108q-2 -27 -2.5 -55t-2.5 -57
q-1 -28 -1.5 -56t7.5 -53q20 9 32.5 28t22.5 38q32 58 54.5 126.5t47.5 134.5q29 75 61.5 148.5t67.5 145.5q5 9 10 19t16 13q9 -13 6.5 -28.5t-7.5 -28.5q-11 -38 -28 -74.5t-31 -73.5q-19 -50 -37 -100.5t-37 -101.5q-18 -50 -34.5 -102.5t-38.5 -101.5q-10 -23 -22.5 -45
t-33.5 -37q-9 -6 -22.5 -11.5t-28.5 -8t-29.5 0t-24.5 12.5q-12 11 -16.5 35t-6.5 47q-6 78 0.5 150.5t10.5 144.5q-18 -60 -45.5 -107t-69.5 -85q-14 -13 -30 -23t-37 -12q-23 -2 -43 3.5t-37 16.5t-29.5 25.5t-19.5 29.5q-15 35 -19 83.5t-2 97.5q5 98 15.5 187.5
t24.5 180.5q8 43 11 91t5 97q1 24 1.5 49t-1.5 48.5t-8 44t-17 35.5q-26 -8 -45.5 -19.5t-32.5 -31.5q-4 -6 -7 -14.5t-7.5 -15t-11.5 -10t-19 -0.5q-13 4 -13.5 16.5t4.5 27t13 27.5t11 18q10 14 24 25.5t31 18t36.5 6t40.5 -10.5q13 -6 26 -12.5t21 -14.5q15 -16 23 -42
t10.5 -56.5t1 -63.5t-3.5 -63q-5 -63 -11 -122t-13 -116q-5 -45 -11.5 -88t-11.5 -86.5t-8.5 -88.5t-3.5 -95q0 -31 3 -61t14 -52zM322 -474q1 2 2.5 0.5t-2.5 -0.5v0z" />
    <glyph glyph-name="V" unicode="V" horiz-adv-x="481" 
d="M671 775q-2 -7 -9.5 -7.5t-13.5 -3.5q-12 -7 -24 -24t-21 -31q-35 -52 -64.5 -110t-56 -119.5t-50.5 -125t-48 -125.5q-52 -136 -104 -271t-94 -280q-3 -11 -5 -21t-6 -17q-3 -5 -10.5 -10t-16.5 -7.5t-19 -2t-17 6.5q-11 8 -18.5 31t-13.5 42q-22 68 -36.5 146t-23 162
t-11.5 171.5t-1 173.5q-14 -8 -31.5 -19t-36.5 -22q-18 -11 -37.5 -22t-42.5 -9q-11 1 -21.5 7.5t-18.5 12.5q-6 4 -13 10.5t-10.5 14t-1 14.5t14.5 12q9 0 13 -7t12 -8q12 -2 25.5 5t24.5 12q34 15 67 35.5t58 40.5q7 96 35 177.5t76 141.5l15 17.5t16 12.5q10 2 24 -1
t27.5 -8.5t25 -12t16.5 -10.5q15 -26 14.5 -54t-10.5 -54.5t-24.5 -50t-26.5 -41.5q-15 -23 -34 -47t-39 -47q-5 -7 -15 -14.5t-12 -13.5q-2 -8 -1.5 -19.5t-0.5 -22.5q-4 -77 -4 -157t5.5 -157t17.5 -147.5t33 -128.5q46 115 89.5 233.5t89 235.5t96 230t110.5 216
q16 26 37.5 56.5t45.5 45.5q20 12 37 1t18 -36zM192 730q-25 -11 -40 -37t-25 -53q-11 -31 -16 -65.5t-7 -66.5q18 13 35.5 32.5t33.5 42.5q10 14 20.5 31t17 35.5t7.5 39.5t-8 42q-11 2 -18 -1z" />
    <glyph glyph-name="W" unicode="W" horiz-adv-x="924" 
d="M382 295q-24 -55 -51 -104.5t-61 -93.5q-15 -19 -36 -40t-47 -35t-56 -16.5t-63 17.5q-18 11 -27.5 32t-13.5 48t-4 57.5t2 59.5q5 82 22 159.5t35 152.5q5 19 9 36t9 38q4 15 6.5 29t8.5 24t16.5 15t29.5 2q19 -4 45 -17q10 -5 22 -11.5t13 -15.5q0 -4 -3 -9t-7 -9.5
t-8 -8.5t-6 -7q-14 -25 -23.5 -56.5t-18.5 -62.5q-18 -65 -32 -129.5t-27 -133.5q-6 -35 -10.5 -71t2.5 -71q15 -1 28 4t23.5 12.5t20 17.5t17.5 19q38 42 68.5 92.5t58.5 101.5q33 60 63.5 123t59.5 129q5 11 9.5 21t11.5 15q9 6 23.5 6.5t28.5 -2t24.5 -8.5t13.5 -14
q5 -14 -2 -31t-11 -29q-33 -100 -54.5 -207.5t-35.5 -225.5q-6 -55 -10 -118.5t-0.5 -125t16.5 -116t40 -91.5q7 -10 18.5 -21t22.5 -12q16 -2 35 8t32 18q42 26 74 65.5t56 82.5q17 30 31 63t22 70q12 54 21 116t14 127t4.5 130.5t-9.5 128.5q-10 70 -27.5 133.5
t-49.5 113.5q-5 7 -10.5 13.5t-3.5 16.5q3 4 9 5.5t13 1t13.5 -2.5t11.5 -4q11 -6 21 -16.5t18 -23t15 -26.5l13 -26q18 -41 29 -91t16 -104.5t5 -112.5t-4 -115q-5 -73 -17 -141t-29 -131t-40.5 -119.5t-55.5 -101.5q-16 -23 -35 -44.5t-42 -39.5t-50.5 -30t-60.5 -16
q-38 -5 -65 7.5t-45.5 34.5t-30.5 51.5t-21 59.5q-18 63 -25.5 134.5t-8 146.5t4.5 151t12 148z" />
    <glyph glyph-name="X" unicode="X" horiz-adv-x="668" 
d="M456 -204q16 14 27.5 32t22.5 36q32 55 56.5 118.5t53.5 124.5q33 70 66 139.5t70 137.5q5 8 10.5 18.5t18.5 8.5q2 -12 -4 -22.5t-11 -20.5q-33 -75 -61.5 -153t-57.5 -161q-8 -23 -15.5 -46.5t-13.5 -48.5q-12 -50 -28.5 -94t-45.5 -79q-8 -9 -19 -19.5t-24.5 -17.5
t-29 -9t-31.5 5q-15 6 -30.5 18.5t-26.5 24.5q-28 32 -45.5 75t-34.5 87q-17 45 -33 89.5t-30 89.5q-55 -64 -112 -132t-123 -129q-21 -20 -44.5 -40t-52.5 -29q-32 -10 -63.5 -2t-45.5 27q-3 5 -7 17t5 17q6 3 15 -1t14 -5q20 -2 39 4.5t36 17t31.5 23t25.5 22.5
q37 34 69 72.5t61.5 79t58.5 82t60 81.5q-17 56 -34 114t-35 116q-6 19 -11.5 38.5t-13.5 35.5q-6 11 -15.5 19.5t-5.5 25.5q5 10 18.5 11t27.5 0t29 -0.5t26 -2.5q12 -4 19.5 -22.5t12.5 -32.5q17 -48 30.5 -101t25.5 -101q14 13 25.5 28.5t23.5 30.5q72 90 153.5 172
t176.5 152q17 13 37.5 26t44.5 15q5 -5 8.5 -11.5t8.5 -14.5l9 -13.5t4 -15.5t-12 -14.5t-20 -12.5q-64 -38 -118 -89.5t-103 -102.5q-50 -51 -96.5 -109t-89.5 -118q-5 -8 -13.5 -18.5t-9.5 -16.5q-2 -11 4 -28.5t9 -30.5q10 -45 18 -89t21 -86q8 -27 18.5 -53t21.5 -50
q11 -25 23 -48.5t31 -40.5z" />
    <glyph glyph-name="Y" unicode="Y" horiz-adv-x="694" 
d="M253 138q60 38 102.5 90.5t84.5 116.5q30 45 57 89.5t54 94.5q10 17 19.5 33t14.5 31q2 6 3 17t2.5 22.5t4 21t6.5 12.5q8 5 21 2.5t21 -5.5q11 -4 19.5 -7.5t15.5 -8.5q2 -38 -6 -74t-17 -71q-26 -104 -51 -206t-44 -212q50 -7 91.5 -25t64.5 -53q7 -11 12.5 -26.5
t-4.5 -30.5q-7 2 -9.5 8t-5.5 11q-20 34 -61.5 53.5t-98.5 11.5q-21 -90 -46.5 -176t-63.5 -160.5t-91.5 -134t-128.5 -96.5q-27 -14 -59 -20t-62.5 -4.5t-58.5 12t-48 30.5t-31.5 45t-16.5 57t1 64.5t17 60.5q22 51 55 95.5t69 78.5q79 72 176.5 123t226.5 71
q22 88 41.5 177.5t33.5 184.5q-45 -78 -98 -152t-114 -142q-9 -11 -20 -22t-23.5 -20t-28 -15t-34.5 -6q-33 0 -52.5 20t-28.5 50t-10.5 66.5t0.5 70.5q7 95 25.5 176.5t39.5 160.5q11 40 21.5 79.5t15.5 81.5q-18 -2 -32.5 -14t-27.5 -24q-61 -60 -111 -136t-83 -166
q-6 -17 -15 -33t-18 -33q-4 -8 -8 -16.5t-9.5 -16t-13.5 -12t-18 -3.5q-7 10 -5.5 21.5t2.5 22.5q5 33 14.5 62t20.5 55q30 70 70 131t88 117q22 25 50.5 51.5t65.5 34.5q5 1 13 0.5t15 -2.5q14 -5 30.5 -17.5t21.5 -21.5q8 -15 9 -36.5t-2 -44t-8 -44t-9 -37.5
q-9 -40 -18.5 -77t-20.5 -72q-11 -38 -14 -81t-5 -88q-1 -45 0.5 -90t14.5 -81zM468 30q-27 -1 -53 -7.5t-49 -14.5q-71 -22 -127 -58.5t-105 -81.5q-32 -30 -61.5 -65.5t-47.5 -73.5q-20 -45 -20 -104q1 -27 7 -51.5t18.5 -42.5t32 -28.5t47.5 -9.5q23 1 44 8.5t39.5 19.5
t34.5 25.5t29 26.5q30 29 56.5 60t45.5 65q28 49 51 116t42 131q5 16 12 37.5t10 39.5q2 10 1 8.5t-5 -0.5h-2z" />
    <glyph glyph-name="Z" unicode="Z" horiz-adv-x="617" 
d="M366 -12q41 -17 79.5 -38t77 -44t77 -45.5t80.5 -41.5q16 -7 36.5 -14t42 -10.5t43 -1.5t39.5 14q9 -27 -4 -41.5t-37 -19.5t-52.5 -3t-48.5 8q-35 11 -65.5 27t-57.5 32q-59 35 -115.5 69.5t-121.5 57.5q-26 -36 -52 -72.5t-55.5 -70.5t-63.5 -63.5t-76 -50.5
q-13 -6 -28.5 -12.5t-33 -11t-36.5 -6t-38 3.5q-18 5 -33.5 15t-28.5 23q-9 8 -17.5 20.5t-13.5 27.5t-5 31.5t8 32.5q11 21 30.5 42.5t38.5 38.5q29 27 65.5 52.5t80 44t93.5 27t106 2.5q45 79 84.5 163t82 165t91.5 156t112 135q-40 0 -79 8.5t-78 15.5t-78.5 8t-78.5 -13
q-11 -4 -20.5 -8.5t-19.5 -11.5q-9 -6 -19 -12t-16 -13q-5 -5 -6 -11t-7 -11q-9 2 -12 7.5t-8 13.5q-3 5 -8.5 12.5t-4.5 14.5q1 11 15 21t23 16q32 23 79.5 34.5t101.5 5.5q45 -5 93.5 -16.5t100.5 -14.5q18 -1 37 -2t33 4q7 2 14 10t12 13q8 8 20.5 19t28.5 9
q7 -1 17 -9.5t18.5 -20t13.5 -24.5t2 -22q-2 -9 -15 -16.5t-24 -15.5q-72 -50 -127 -120t-101 -143q-58 -91 -102.5 -182t-88.5 -188zM117 -68q-59 -20 -98.5 -52t-68.5 -83q-2 -3 -5.5 -9t-6.5 -12t-5.5 -12t-1.5 -9q2 -8 13.5 -11t22.5 -3q26 0 49.5 8t44 21t38 27.5
t31.5 26.5q35 30 63.5 63t50.5 68q-38 1 -67.5 -6t-59.5 -17z" />
    <glyph glyph-name="bracketleft" unicode="[" horiz-adv-x="382" 
d="M285 -172q-1 -14 -12.5 -23t-28 -14.5t-35.5 -6t-35 4.5q-21 6 -32 21.5t-16.5 37t-7 47.5t-3.5 53q-5 84 -5.5 171t1 175t4 175t4.5 171q1 33 2 67t3 69q1 23 3.5 43t9 35t19.5 23.5t34 10.5q17 2 33.5 -0.5t31.5 -6.5q5 -1 13 -3t15.5 -5t13 -7t4.5 -10t-11 -7t-22.5 0
t-24.5 1t-17 -3q-7 -5 -11 -18.5t-6 -30.5t-3 -34t-2 -29q-13 -158 -15.5 -318.5t-2.5 -328.5q0 -48 1 -96.5t3 -99.5q1 -17 1 -34.5t5 -25.5q6 -10 17.5 -11t24 1t25.5 5t22 1z" />
    <glyph glyph-name="backslash" unicode="\" horiz-adv-x="531" 
d="M444 -152q-11 -8 -21.5 -8t-20 4t-17.5 11.5t-12 15.5q-13 23 -19 58.5t-14 66.5q-49 189 -109.5 363.5t-132.5 341.5q-5 13 -11 26.5t-13 28.5q-5 11 -14.5 27t-7.5 29q1 5 7.5 11t15.5 11.5t18 9t15 3.5q9 0 15 -6.5t10.5 -16.5t7.5 -21.5t6 -20.5q39 -108 80 -209.5
t77 -210.5q32 -97 59.5 -189.5t55.5 -190.5q9 -32 19.5 -65.5t5.5 -68.5z" />
    <glyph glyph-name="bracketright" unicode="]" horiz-adv-x="328" 
d="M147 -186q-8 128 -0.5 254t14.5 254t11.5 255.5t8.5 255.5q-14 0 -31.5 -2.5t-34 -3t-31 2t-23.5 12.5q8 13 25 17.5t33 7.5q17 5 36 9.5t36 5.5q10 1 22.5 -2.5t23.5 -9t19.5 -13t11.5 -14.5q5 -11 1 -27.5t-7 -32.5q-9 -43 -12.5 -91.5t-5.5 -97.5q-5 -96 -12.5 -194.5
t-12.5 -195.5q-4 -81 -3.5 -166.5t0.5 -173.5q0 -29 -1.5 -50.5t-20.5 -31.5q-13 -6 -32 -7t-39 -3q-8 0 -19 -0.5t-21.5 0t-18 3.5t-8.5 9t3 10t10 6.5t13 3.5t13 2q14 2 27.5 3.5t24.5 4.5z" />
    <glyph glyph-name="asciicircum" unicode="^" horiz-adv-x="362" 
d="M46 460v-1q2 0 1.5 0.5t-1.5 0.5q-3 1 -3 7q-3 -1 -5 0t-4 3q1 4 3.5 5t-1.5 5q4 1 6.5 2.5t7.5 0.5q17 14 33.5 27.5t33.5 27.5q2 0 1 0.5t-1 -0.5q-1 1 -1 2q2 2 2.5 0.5t2.5 -0.5t0 2t0 3q2 0 2.5 -1t2.5 0q0 2 -2 2q7 8 16 14.5t11 16.5q13 5 26 2t24 -8q0 -2 -1 -3
q17 -9 29.5 -21.5t29.5 -20.5q14 -12 29 -23t31 -21q2 -3 3.5 -5t2.5 -5q0 -3 -2 -2q5 -1 4 -3.5t2 -4.5l-4 -4t-2 -7q-11 -3 -20 -0.5t-17 7.5t-15.5 11t-14.5 10q-22 11 -41.5 24t-39.5 27q-21 -18 -39.5 -35t-44.5 -31q-1 0 -0.5 -1.5t-0.5 -2.5q-2 -2 -7 -1.5t-4 -4.5
q-5 0 -6.5 -2.5t-3.5 -5.5q-9 0 -14 3.5t-10 8.5q2 2 1 2zM154 574h-1l-1 -1q2 0 2 1zM49 456h2v2h-2v-2v0z" />
    <glyph glyph-name="underscore" unicode="_" horiz-adv-x="984" 
d="M46 56q15 5 31 6t32 3q113 11 234.5 13.5t242.5 8.5q76 3 151.5 -0.5t150.5 -3.5q9 0 21.5 1.5t17.5 -1.5q7 -5 8 -16.5t-1 -24t-6.5 -23t-8.5 -12.5q-6 -5 -22.5 -5t-30.5 2q-41 2 -81.5 5.5t-78.5 5.5q-108 5 -222 1.5t-220 -10.5q-25 -2 -52 -3.5t-53 -5.5
q-12 -2 -26 -4.5t-27.5 -4t-25.5 -0.5t-19 7q-11 8 -14.5 26t-0.5 35z" />
    <glyph glyph-name="grave" unicode="`" horiz-adv-x="372" 
d="M311 526q-3 -11 -12.5 -24.5t-21.5 -15.5q-14 -3 -31.5 4t-28.5 12q-29 11 -52 21.5t-52 24.5q-5 2 -13 5t-15.5 6.5t-13 7.5t-5.5 9q-2 7 5.5 14t14.5 9q12 2 28.5 -3.5t29.5 -9.5q27 -10 52 -19.5t51 -19.5q17 -7 32.5 -13.5t31.5 -7.5z" />
    <glyph glyph-name="a" unicode="a" horiz-adv-x="365" 
d="M158 356q2 9 10 10t18 -1t19.5 -6t15.5 -6q7 -27 3.5 -55t-8.5 -54q-8 -53 -17.5 -103.5t-9.5 -113.5q0 -29 1.5 -58t12.5 -50q11 8 17.5 19.5t11.5 23.5q29 61 50 129t47 132q11 26 21 52t24 46q8 11 19.5 22t28.5 10q-4 -16 -11.5 -30t-15.5 -28q-20 -43 -35.5 -88.5
t-29.5 -99.5q-8 -33 -18 -65t-22 -64q-11 -29 -26.5 -59.5t-35.5 -47.5q-14 -13 -33 -10.5t-34 14.5q-18 15 -28 39.5t-14.5 55t-5 64.5t1.5 66q-11 -11 -27.5 -21.5t-39.5 -2.5q-12 4 -22 14.5t-17 20.5q-17 25 -18.5 54.5t6.5 59t22 56t28 44.5q8 10 17 21t17 16
q17 9 39 4.5t38 -10.5zM83 253q-15 -32 -26 -69t-1 -73q23 17 38 41.5t29 50.5t20.5 58.5t10.5 67.5q-13 -1 -23.5 -9t-19 -19t-15.5 -24t-13 -24z" />
    <glyph glyph-name="b" unicode="b" horiz-adv-x="423" 
d="M111 235q15 12 32 28t37 31q18 14 40 26.5t50 13.5q24 1 41.5 -7t30 -21.5t20.5 -32t13 -39.5q26 15 50 32t47 37q7 6 13.5 13.5t16.5 9.5q2 -14 -7 -23.5t-17 -17.5q-24 -26 -50 -49.5t-52 -46.5q-16 -79 -50.5 -143.5t-82.5 -116.5q-15 -17 -35.5 -32t-43.5 -20
q-17 -3 -31 2t-19 15t-3 22.5t7.5 25t12 23t11.5 18.5q34 60 75.5 108.5t90.5 93.5q-1 30 -6 55t-17 44q-40 -17 -69.5 -45.5t-51.5 -62.5q-46 -68 -69 -160q-8 -4 -20 -6t-24 -1t-22.5 4t-16.5 9q1 151 21.5 288t49.5 268q14 63 30 125t40 119q11 27 25 53.5t33.5 48.5
t45 36.5t59.5 16.5q28 2 53.5 -4t45 -19t31 -33t12.5 -47q0 -26 -6 -51.5t-13 -48.5q-23 -79 -59.5 -147t-80.5 -129t-92 -117t-94 -111q-2 -8 -2 -17v-18zM298 555q19 31 38 63.5t34.5 68.5t25 76.5t9.5 87.5q-1 38 -14.5 60t-51.5 19q-18 -2 -34 -13.5t-29 -27
t-23.5 -33.5t-17.5 -32q-27 -50 -45.5 -109t-31.5 -122.5t-22.5 -129t-17.5 -129.5q53 42 96.5 98.5t83.5 122.5zM222 37q-17 -22 -31.5 -46.5t-22.5 -53.5q16 -2 26.5 9t18.5 22q26 33 48 70.5t36 82.5l-1 1q-20 -20 -38.5 -41t-35.5 -44z" />
    <glyph glyph-name="c" unicode="c" horiz-adv-x="223" 
d="M51 115q23 3 40 15.5t32 26.5q37 34 67.5 75t61.5 81q5 8 12 15.5t17 9.5q5 -11 -0.5 -22.5t-10.5 -21.5q-26 -48 -58.5 -92.5t-72.5 -79.5q-17 -16 -37.5 -32t-43.5 -22q-13 -3 -24.5 0t-21 9.5t-16.5 14.5t-11 16q-9 17 -11 41q-3 43 8.5 76.5t25.5 65.5q14 31 30 61.5
t36 47.5q11 9 27.5 13.5t35.5 -0.5q12 -3 28 -10t16 -17q0 -8 -7 -12t-12 -5q-8 0 -15 4.5t-16 2.5q-6 -2 -10.5 -10.5t-8.5 -15.5q-22 -34 -39 -72.5t-25 -86.5q-3 -19 -4.5 -39t7.5 -37z" />
    <glyph glyph-name="d" unicode="d" horiz-adv-x="328" 
d="M204 -125q16 26 24.5 57t16.5 62q20 78 44.5 154t53.5 148q5 14 11.5 28t18.5 22q6 -27 -3 -52t-17 -48q-26 -76 -44.5 -159t-38.5 -170q-4 -17 -8 -32t-10 -32q-6 -14 -12.5 -30.5t-17.5 -21.5q-9 -4 -22.5 -1.5t-19.5 5.5q-14 8 -21.5 28t-11.5 40q-6 32 -8 68.5t-2 74
t1 75t1 71.5q-10 -10 -22.5 -24t-28.5 -25t-35.5 -15.5t-42.5 4.5q-26 11 -36.5 34t-11.5 51.5t6.5 58t17.5 52.5q11 25 24 46.5t31.5 36.5t44.5 22.5t62 6.5q5 68 10.5 136.5t14 133.5t22.5 125.5t37 113.5q7 16 16 33.5t21.5 31.5t28 23.5t35.5 11.5q16 1 33 -3.5
t32 -13.5t26 -20.5t16 -23.5q9 -23 9.5 -50.5t-4 -55t-11.5 -54.5t-13 -48q-28 -97 -62.5 -182.5t-73.5 -170.5q-14 -31 -29 -61.5t-34 -58.5q-6 -8 -14 -18t-11 -18t-3 -20.5t-1 -24.5q-2 -39 -3.5 -81.5t-1 -84.5t4 -82t11.5 -73zM257 489l54 132t49 136q11 35 22 73
t11 80q0 12 -2.5 24.5t-8 22.5t-14 15t-20.5 2q-21 -4 -36 -17t-26.5 -31t-19.5 -38t-14 -39q-16 -45 -26 -98t-16 -110t-9 -116t-4 -115q1 -5 6.5 -5t5.5 -6q-2 -8 -8 -14t-3 -20q19 26 32 59t27 65zM61 283q-15 -29 -23.5 -65t-1.5 -77q26 19 45.5 46.5t39.5 55.5
q6 9 14.5 19.5t10.5 18.5q6 22 1.5 45.5t-0.5 49.5h-2q-26 -12 -48 -38.5t-36 -54.5z" />
    <glyph glyph-name="e" unicode="e" horiz-adv-x="244" 
d="M80 260q-9 -14 -17.5 -31.5t-14.5 -38t-8 -43t2 -44.5q24 6 44.5 17t38 24.5t33 29.5t30.5 31q23 23 45.5 47.5t41.5 51.5q7 8 13.5 17.5t17.5 11.5q-17 -64 -60 -115.5t-91 -91.5q-9 -8 -19.5 -18t-22.5 -18.5t-25 -15t-27 -7.5q-23 -2 -42 10.5t-27 26.5
q-11 18 -12 41.5t3 48.5t11.5 47.5t13.5 39.5q8 20 17 37.5t19 34.5q8 13 16.5 26t19 24t24 18t32.5 8q20 1 34.5 -6t22.5 -19t8 -27.5t-9 -32.5q-6 -11 -15 -23t-20 -23t-22.5 -20.5t-21.5 -13.5q-6 -3 -15 -4.5t-18 0.5zM154 394q-9 -4 -16.5 -14t-14 -22t-12 -24.5
t-10.5 -21.5q23 11 41 27t23 46q-2 2 -4.5 6.5t-6.5 2.5z" />
    <glyph glyph-name="f" unicode="f" horiz-adv-x="341" 
d="M123 224q15 -19 36 -24t43.5 -2t44 12t36.5 18q29 17 55.5 40t49.5 47q3 2 6 6.5t8 2.5q6 -20 -4.5 -35.5t-21.5 -27.5t-23 -23.5t-26 -21.5q-17 -13 -38.5 -27t-46 -22.5t-51.5 -9.5t-54 11q13 -32 16.5 -71t-2.5 -76t-21.5 -67.5t-40.5 -46.5q-14 -9 -27 -8.5t-24.5 7
t-20.5 18t-15 23.5q-13 24 -18 56.5t-5 67t4.5 69.5t10.5 65q17 84 43 157.5t53 144.5q42 106 91 206.5t108 191.5q20 29 41.5 60t48.5 48q10 6 20.5 8.5t24.5 -0.5q9 -2 19.5 -7t21 -11t18.5 -12t13 -12q17 -21 22 -53t2 -66t-11.5 -66.5t-17.5 -55.5q-20 -53 -47.5 -100
t-54.5 -92q-57 -93 -121 -175.5t-145 -146.5zM441 961q-36 -26 -67 -65t-58 -77q-85 -118 -148.5 -257t-106.5 -291q46 22 82 57t68 73q66 76 121 159t97 183q10 23 19.5 50t14.5 56q3 14 4 30t-0.5 31.5t-6.5 29t-15 23.5q-2 0 -2 -0.5t-2 -1.5zM48 -58q23 17 39.5 50
t18.5 70q2 42 -11.5 77t-34.5 58q-12 -23 -21.5 -56.5t-12.5 -69t1.5 -70t20.5 -59.5z" />
    <glyph glyph-name="g" unicode="g" horiz-adv-x="301" 
d="M212 352q8 -35 6 -78.5t0 -85.5q20 12 37 28t33 34t31.5 36.5t32.5 35.5q5 5 9.5 10t11.5 5q5 -17 -5 -32t-18 -26q-28 -37 -62.5 -68.5t-68.5 -61.5q0 -90 -7.5 -172t-27 -153t-51.5 -130t-80 -102q-32 -29 -73.5 -50.5t-92.5 -24.5q-30 -2 -57 2.5t-49.5 15.5t-38 27.5
t-21.5 38.5q-7 26 -2 56t13 52q12 35 29 65t37 57t43 50.5t46 46.5q66 64 136 116.5t139 106.5q2 22 0 44.5t-4 42.5q-17 -35 -39.5 -71t-57.5 -52q-16 -7 -31 -4t-26.5 12.5t-19.5 23.5t-9 29q-2 27 2.5 52t14.5 46.5t23 39.5t28 30q10 8 24.5 17t28.5 8q10 0 18.5 -4.5
t10.5 -14.5q-2 -7 -7.5 -9t-10.5 -6q-18 -14 -33.5 -36.5t-26.5 -45.5q-12 -23 -20 -52t-1 -60q29 11 49.5 30.5t39.5 45.5q17 23 33 51.5t20 59.5q0 4 -0.5 10t-0.5 12t1.5 11t4.5 7q11 4 21 -3.5t18 -12.5zM-80 -86q-26 -26 -51 -54.5t-48 -63.5q-20 -31 -39.5 -70.5
t-18.5 -88.5q0 -33 16 -49.5t39 -21.5t50.5 -0.5t51.5 14.5q67 28 113 81t74.5 123.5t41.5 154t14 173.5h-2q-63 -45 -123.5 -93t-117.5 -105z" />
    <glyph glyph-name="h" unicode="h" horiz-adv-x="394" 
d="M78 240q10 8 18.5 19t18.5 22q9 9 19.5 21t24.5 14q26 3 43.5 -12t19.5 -38q2 -27 -0.5 -57t-2.5 -62q0 -57 -1.5 -118.5t-0.5 -120.5q1 -29 3 -57t13 -48q21 31 32 67.5t25 72.5q36 88 66.5 178.5t65.5 181.5q3 7 6 15.5t8 19.5q1 1 3 6t5 10t6.5 8.5t6.5 1.5
q4 -2 4.5 -7.5t-1 -12t-3 -12t-2.5 -6.5q-8 -29 -17.5 -54.5t-17.5 -53.5q-22 -77 -42 -150t-43 -146q-5 -17 -11 -35.5t-12 -36.5q-4 -14 -9 -30.5t-13 -31t-20.5 -24t-30.5 -7.5q-14 2 -29 13.5t-22 22.5q-10 18 -16 42.5t-9 52.5t-4 56.5t-2 55.5q-2 59 -1.5 118
t-4.5 111q-13 -12 -20 -30t-15 -35q-7 -17 -13 -37t-19 -31q-5 -4 -13.5 -7.5t-18 -4.5t-18.5 1t-14 9q-5 8 -6.5 29.5t-2.5 39.5q-6 137 14 256.5t49 221.5q18 63 39 118t47 107q12 24 27 50t34.5 47.5t44 36t57.5 17.5q40 3 68.5 -8.5t45.5 -35t22 -56t-2 -71.5
q-6 -32 -16.5 -61t-24 -55.5t-28.5 -51t-29 -46.5q-60 -96 -130 -182t-148 -164q0 -12 -1 -23t-2 -23zM113 383q7 8 14 15.5t13 15.5q66 79 127.5 163.5t105.5 186.5q7 17 16 40.5t14 49.5t3.5 51.5t-13.5 46.5q-7 12 -22.5 23t-35.5 6q-20 -6 -37 -20t-30.5 -31.5t-25 -37
t-20.5 -36.5q-19 -37 -33 -75.5t-28 -76.5q-29 -85 -47 -170t-29 -179q9 4 15 12t13 16z" />
    <glyph glyph-name="i" unicode="i" horiz-adv-x="187" 
d="M121 436q-11 -5 -20 1t-10 14q-3 15 5.5 18.5t17.5 0t13.5 -13t-6.5 -20.5zM52 366q17 -3 35.5 -7t22.5 -19q3 -12 -5.5 -29.5t-13.5 -30.5q-8 -22 -15 -47t-11.5 -51t-5 -53t4.5 -53q35 21 58.5 55t43.5 72q15 27 29 56t29 58q4 8 9 17.5t15 13.5q2 -27 -7 -50.5
t-17 -44.5q-18 -44 -37.5 -84.5t-46.5 -77.5q-8 -11 -19.5 -23.5t-25 -20t-28.5 -8t-30 12.5q-21 16 -27.5 46.5t-5 66t8.5 71t15 61.5q5 17 10.5 34t10.5 32q0 1 3 3z" />
    <glyph glyph-name="j" unicode="j" horiz-adv-x="289" 
d="M77 518q15 1 21 -7.5t5 -19.5t-8 -20t-19 -8q-8 1 -14.5 9t-8 17.5t3.5 18t20 10.5zM134 370q10 -18 15.5 -41.5t8.5 -50t5 -54t5 -53.5q14 8 25.5 18.5t23.5 21.5q23 22 45.5 45t45.5 46q11 11 22.5 22t25.5 18q2 -20 -9.5 -37t-22.5 -31q-35 -43 -74 -81.5t-79 -75.5
q1 -158 -17.5 -295.5t-52.5 -262.5q-17 -60 -42 -113.5t-65 -93.5q-19 -19 -43 -35.5t-54 -24.5q-34 -9 -67 -4t-59 23q-47 34 -68 94t-7 137q11 63 37 120t53 105q57 103 134 182t165 149q-3 47 -6.5 94t-9.5 92q-2 15 -3 31t-5 28q-2 6 -7 11t-2 13q14 11 38 8t44 -5z
M24 -12q-149 -135 -238 -333q-9 -18 -18 -39.5t-15.5 -45t-10.5 -48.5t-2 -50q1 -20 7.5 -40.5t17 -38.5t24 -32t27.5 -22q13 -7 27 -8t27.5 2.5t26 10t21.5 13.5q55 43 81.5 103t44.5 137q23 103 33.5 213t8.5 234q0 1 -0.5 1t-0.5 -1q-17 -12 -31 -27t-30 -29z" />
    <glyph glyph-name="k" unicode="k" horiz-adv-x="388" 
d="M93 254q26 8 51 18.5t50.5 20.5t52 18t56.5 11q7 -14 2.5 -22t-15 -13t-23 -8t-21.5 -6q-43 -14 -87 -30t-77 -34q-2 -13 -1.5 -26t1.5 -26q20 -13 50 -18.5t62 -2.5q24 2 46 13.5t41 23.5q46 30 84.5 70t69.5 86q5 8 10 19t18 12q1 -17 -6 -32t-13 -29
q-20 -42 -46.5 -78.5t-60.5 -63.5q-22 -17 -51 -31.5t-62.5 -23t-70.5 -8.5t-74 11q-1 -57 3 -109q-3 -3 -11.5 -9t-18 -10t-19.5 -5t-16 5q-4 3 -6 11.5t-2.5 19t0 22.5t0.5 22q0 60 1.5 118.5t7.5 114.5q15 150 47.5 281.5t85.5 243.5q12 26 27 54t33 53t40.5 44t49.5 28
q3 2 11 2t16 -1q20 -2 38.5 -8.5t33.5 -18.5t24 -28t11 -37q2 -26 -3 -53.5t-10 -51.5q-16 -70 -41.5 -133t-58 -120t-70.5 -107.5t-79 -95.5q-14 -16 -29 -32.5t-29 -26.5q-4 -2 -8.5 -3.5t-8.5 -3.5q-1 -5 -3 -8.5t-2 -8.5zM193 449q44 57 83 120t70 135q9 21 18.5 46.5
t16 52.5t7.5 55t-7 54q-5 15 -11 27.5t-23 10.5q-19 -2 -36 -13t-31.5 -26.5t-26 -32.5t-18.5 -30q-30 -51 -52 -110.5t-37.5 -123.5t-27.5 -132.5t-23 -137.5q29 21 52 48.5t46 56.5z" />
    <glyph glyph-name="l" unicode="l" horiz-adv-x="306" 
d="M58 -263q18 8 31.5 25t24.5 35q34 54 61 115t54 123q31 72 61 144.5t64 143.5q4 8 9 18.5t16 12.5q4 -5 2.5 -12t-3.5 -12q-25 -85 -57.5 -168.5t-62.5 -164.5q-16 -42 -31.5 -87t-35.5 -88q-10 -21 -21 -42t-24 -38.5t-29 -31t-35 -20.5q-17 -6 -34 -0.5t-31 18.5
t-23.5 29.5t-12.5 31.5q-4 17 -3.5 37.5t-0.5 41.5q-3 60 0.5 121t9.5 115q8 76 19.5 145t27.5 138q15 66 33 131.5t43 123.5q11 28 25 54.5t31 54.5q8 15 18 31.5t23 31.5t28.5 26t35.5 13q48 5 76 -18t31 -65q2 -45 -12 -83.5t-28 -68.5q-45 -99 -109.5 -180t-129.5 -154
q-16 -92 -31.5 -190.5t-21.5 -204.5q-2 -34 -2.5 -70t14.5 -62zM126 376q-2 -1 -1 -1.5t1 1.5q2 0 2 3q45 51 86.5 115.5t73.5 135.5q11 23 21.5 48t15.5 51q2 18 -4.5 34t-23.5 18q-12 1 -23 -8t-19.5 -21.5t-15 -25.5l-10.5 -21q-25 -49 -42.5 -104t-31.5 -109
q-17 -58 -29 -116zM-154 574z" />
    <glyph glyph-name="m" unicode="m" horiz-adv-x="600" 
d="M431 -160q14 11 21.5 26t15.5 30q54 100 100.5 208t89.5 220q3 8 5.5 17t10.5 14q8 -9 5.5 -21t-5.5 -22q-21 -73 -43 -146t-48 -141q-23 -57 -48.5 -111.5t-60.5 -104.5q-5 -6 -11 -15t-13.5 -17.5t-15 -14.5t-14.5 -7q-10 -2 -19 2t-16 10.5t-11.5 15.5t-5.5 18
q-2 22 -0.5 46t2.5 47q5 157 31 297.5t57 274.5q-25 -26 -44 -62t-35.5 -76.5t-33 -82t-35.5 -77.5q-5 -10 -12.5 -23.5t-17.5 -25t-21 -19.5t-24 -8q-16 0 -27.5 13.5t-17.5 25.5q-7 15 -10 34t-3.5 40t-0.5 43t-1 43q-22 -28 -44 -70.5t-39 -84.5q-6 -17 -11.5 -38
t-20.5 -26q-17 -6 -33 2.5t-29 15.5q6 56 14 119.5t3 127.5q0 7 -1.5 10t-1.5 8q8 8 21 5t27 -5q11 -2 25 -5.5t17 -13.5q4 -11 0.5 -21.5t-2.5 -24.5q7 4 15 13.5t17 19t18.5 17.5t20.5 10t26 -3t21 -11q4 -4 6.5 -11t3.5 -14q2 -20 0.5 -45t-2.5 -49.5t0.5 -47.5t10.5 -39
q14 6 21 20.5t13 28.5q20 44 36.5 86.5t40.5 84.5q23 39 42.5 81t46.5 79q8 11 20 25t27 15q12 0 28.5 -9t20.5 -19q4 -9 3.5 -20.5t-2.5 -23.5t-5 -23t-5 -19q-32 -142 -57.5 -289t-35.5 -307z" />
    <glyph glyph-name="n" unicode="n" horiz-adv-x="377" 
d="M76 135q-2 0 -0.5 -1.5t0.5 1.5q16 44 41 89.5t49 84.5q8 14 17 29t20 23q20 14 42 6.5t36 -18.5q-1 -51 -11 -95.5t-21.5 -88t-21 -88.5t-10.5 -99q12 5 20 15t16 19q8 11 15 21.5t14 21.5q45 72 85.5 148.5t78.5 152.5q7 -4 9 -10.5t1 -14t-4 -14.5t-5 -12
q-5 -12 -12 -25t-12 -24q-24 -48 -49.5 -95.5t-49.5 -95.5q-13 -24 -25 -49t-26 -45q-8 -10 -19.5 -18t-26.5 -10q-29 -2 -41.5 11.5t-14.5 38.5q-4 45 6 83.5t18 76.5q8 40 16 77.5t10 79.5q-17 -9 -28 -28t-21 -39q-20 -40 -36 -82.5t-31 -87.5q-3 -9 -6.5 -21t-8.5 -23
t-11.5 -20t-16.5 -12q-8 -2 -19.5 -0.5t-16.5 4.5q-6 4 -9 13.5t-5 21.5t-2.5 24.5t-0.5 22.5q0 39 4 76.5t8.5 74t7.5 72.5t2 71q14 7 34 4t34 -8q2 -30 -0.5 -60t-7 -59t-9.5 -59t-6 -60z" />
    <glyph glyph-name="o" unicode="o" horiz-adv-x="231" 
d="M126 339q2 -5 0 -6.5t-3 -4.5q19 -7 40.5 -8t43 1.5t41 7.5t34.5 10q-2 -12 -13.5 -20.5t-23.5 -14.5q-37 -20 -87 -13q17 -29 23.5 -66.5t-0.5 -78.5q-5 -34 -18 -69t-32 -54q-11 -11 -26 -16t-31.5 -4t-31 7.5t-23.5 18.5q-11 15 -16.5 36t-7 45.5t0 50t5.5 48.5
q9 43 23 83q3 7 7 17.5t8.5 20.5t10.5 18t13 10q20 6 37 -2.5t26 -16.5zM105 284q0 -2 -1 -3q-8 -23 -20 -49.5t-17 -55.5t-8 -64t8 -63q33 4 50 34t20.5 67.5t-5 75t-27.5 58.5z" />
    <glyph glyph-name="p" unicode="p" horiz-adv-x="432" 
d="M89 230q12 18 25.5 40t30 43t36.5 38.5t44 25.5q26 9 48.5 2.5t43.5 -17.5q11 -6 23 -13.5t19 -18.5q9 -16 11 -35.5t7 -41.5q36 16 68 40.5t58 53.5q3 4 6.5 9t9.5 4q-2 -32 -18 -53.5t-35 -38.5q-20 -17 -43.5 -31t-47.5 -25q-10 -49 -27 -91.5t-47 -75.5
q-20 -22 -55 -35t-77 -1q-20 6 -35.5 16.5t-16.5 36.5q-2 41 19 68.5t50 43.5q30 17 65.5 26.5t64.5 24.5q2 15 2.5 34.5t-2.5 38t-10.5 32.5t-20.5 16q-10 1 -20.5 -2.5t-20 -9.5t-17.5 -13.5t-14 -13.5q-36 -35 -61 -77.5t-48 -91.5q-5 -9 -10 -19t-7 -19
q-4 -18 -2.5 -39.5t0.5 -42.5q-5 -99 -12 -195t-24 -184q-5 -25 -12 -51.5t-18 -49t-28.5 -37.5t-44.5 -18q-33 -3 -54 7.5t-23 39.5q-2 18 1.5 37.5t6.5 37.5q17 105 48 196.5t65 182.5q5 17 13 33.5t10 31.5q2 23 1.5 47t-0.5 47q0 54 0.5 112.5t0.5 118.5q0 11 -1.5 21.5
t3.5 21.5q10 -1 28.5 -6t25.5 -12q11 -11 12 -34.5t3 -44.5q1 -23 1.5 -46t1.5 -44zM174 105q-8 -19 0.5 -33.5t22.5 -19.5q27 3 45 15.5t30 30.5t20 40.5t14 44.5q-14 -7 -34 -14t-40 -16t-36 -20.5t-22 -27.5zM-66 -371q-1 -6 -4 -20.5t-4 -30.5t1 -28.5t10 -13.5
q7 -1 12.5 4t9.5 12.5t7 15.5t5 13q5 17 8.5 32.5t6.5 31.5q11 63 17 120t5 126l-1 1q-19 -61 -39.5 -127.5t-33.5 -135.5z" />
    <glyph glyph-name="q" unicode="q" horiz-adv-x="320" 
d="M91 -241q10 4 14.5 13.5t9.5 17.5q26 47 48.5 99t43.5 105.5t42 107.5t44 105q16 36 35 73q9 18 17.5 36t19.5 35q15 -5 13 -17.5t-6 -22.5q-11 -32 -24 -64t-24 -63q-31 -87 -61.5 -171.5t-72.5 -162.5q-10 -19 -20.5 -38t-21.5 -37q-7 -12 -14 -25t-16.5 -24t-22 -18
t-29.5 -7t-24.5 12t-10.5 30t-2.5 38.5t0.5 38.5q2 86 14 163.5t22 155.5q-9 -5 -17.5 -14t-22.5 -10q-18 -1 -26.5 7t-11.5 21.5t-1.5 30t4.5 31.5q7 34 16.5 61.5t24.5 55.5q8 12 16 26t19 18t27 0.5t29 -1.5q14 1 27 6.5t24 -4.5q3 -19 -2 -37t-10 -35
q-23 -87 -40.5 -179.5t-27.5 -192.5q-4 -40 -7 -81.5t5 -82.5zM40 211q-1 -5 -2.5 -12t-2 -13.5t0.5 -11.5t6 -6q4 -1 8.5 2t8 7.5t6 9.5t3.5 8q15 26 24 57.5t13 64.5h-2q-12 -5 -22 -16.5t-18 -26.5t-13.5 -31.5t-9.5 -31.5z" />
    <glyph glyph-name="r" unicode="r" horiz-adv-x="367" 
d="M86 323q14 -6 30 -9t30 -7t26 -11t19 -19q10 -18 10.5 -39.5t-4 -42.5t-12 -41l-13.5 -36q-15 -40 -30 -83t-26.5 -89t-17 -95.5t-2.5 -101.5q14 17 23.5 35.5t20.5 37.5q31 56 60.5 113.5t61.5 114.5q32 56 63.5 111.5t64.5 110.5q4 7 9.5 17.5t12 19t15.5 13.5t21 2
q0 -11 -6 -20.5t-11 -19.5q-35 -67 -69 -135.5t-68 -138.5q-18 -38 -34 -80.5t-36 -84.5q-8 -18 -18 -38t-21 -40q-10 -18 -22 -38t-26 -31q-12 -9 -25.5 -11t-26.5 1.5t-23.5 11.5t-16.5 18q-8 13 -12 30t-5 36t0.5 38.5t3.5 38.5q11 90 36 167.5t51 155.5q5 14 11.5 32.5
t0.5 33.5q-2 5 -8.5 9t-15 7.5t-17.5 6t-16 5.5q-23 9 -43.5 20.5t-31.5 30.5q-12 21 -15 48.5t0 56.5t10 56t15 48q9 23 20 43.5t24 39.5q6 9 14.5 21t18.5 22.5t22 18.5t25 9q11 1 24 -1t25 -6t21.5 -10.5t13.5 -13.5q5 -10 6 -23.5t-0.5 -28t-5 -28t-6.5 -23.5
q-21 -67 -57 -124.5t-68 -110.5zM110 483q8 14 16 28.5t16 30.5q8 17 15 33t9 34q1 16 -3 24t-11.5 10t-16.5 -1.5t-16 -10.5q-20 -19 -35 -48t-28 -63t-21 -71.5t2 -72.5q20 22 38 50t35 57z" />
    <glyph glyph-name="s" unicode="s" horiz-adv-x="429" 
d="M296 188q40 29 81 55t76 61q11 11 21.5 23t25.5 20q-4 -41 -26.5 -67.5t-46.5 -47.5q-26 -22 -53.5 -41.5t-53.5 -39.5q15 -32 22.5 -65.5t7.5 -72.5q0 -48 -9.5 -89.5t-25.5 -77t-37 -66t-45 -56.5t-55 -47t-78 -23q-46 -2 -80.5 15.5t-47.5 56.5q-7 21 -4.5 42.5
t10 41.5t17.5 38t18 32q48 81 109.5 147t130.5 126q-16 29 -42 44.5t-59 23.5q-19 5 -38 6t-36 5q-15 3 -30.5 11t-27 20.5t-16.5 28.5t2 36q6 20 21.5 39t35.5 34.5t43 27t45 16.5q9 2 25 1t31.5 -5t27 -11t12.5 -16q1 -13 -14 -20.5t-27 -12.5q-16 -5 -29.5 -9.5
t-25.5 -9.5t-23.5 -12t-21.5 -17q-3 -3 -8.5 -8t-10.5 -11.5t-8 -13.5t0 -12q1 -3 10 -5.5t20 -4t21 -3t14 -2.5q49 -12 87 -32t65 -53zM267 111q-43 -34 -78 -74.5t-69 -85.5q-25 -32 -44 -69t-32 -85q-4 -13 -9 -33t-1 -34q3 -11 19.5 -19.5t32.5 -8.5q33 0 60 17.5
t45 34.5q22 21 37.5 41.5t28.5 49.5q12 27 19.5 60.5t9.5 69.5t-2 71.5t-14 65.5q0 2 -1.5 1t-1.5 -2z" />
    <glyph glyph-name="t" unicode="t" horiz-adv-x="305" 
d="M167 737q4 -26 0 -53t-9 -50q125 11 256 25t267 20q65 3 135.5 5t136.5 -8q30 -5 59 -11t56 -17q13 -5 28.5 -12t28 -16t21.5 -21.5t10 -29.5q2 -18 -6 -33.5t-17 -26.5q-8 -9 -20 -16t-26 -10t-28.5 -0.5t-25.5 12.5q3 7 10.5 9.5t14.5 5.5t17.5 8.5t20.5 12.5
t17.5 15.5t7.5 18.5q0 12 -8 21t-21 15.5t-27 11t-26 7.5q-40 10 -88.5 14t-100.5 4.5t-103.5 -1.5t-96.5 -4q-133 -6 -257 -19.5t-242 -27.5q-11 -59 -28 -116.5t-29 -117.5q-25 -122 -45.5 -245t-41.5 -250q-11 -63 -17.5 -130t5.5 -135q13 5 20 17t14 23q20 36 35.5 78
t29.5 84q38 115 82 221t95 208q19 38 40.5 73t42.5 72q7 11 13.5 23.5t20.5 17.5q1 -17 -5.5 -33.5t-13.5 -31.5q-20 -45 -41.5 -87t-43.5 -85q-14 -29 -26 -59.5t-23 -62.5q-23 -63 -46 -124.5t-43 -129.5q-10 -33 -18.5 -66.5t-19.5 -65t-27 -58.5t-41 -46
q-31 -23 -63.5 -13.5t-45.5 41.5q-11 26 -10.5 60t2.5 69q5 101 19.5 193t30.5 183q22 124 44 242.5t46 236.5q-43 -5 -87 -12.5t-89.5 -14.5t-93 -12t-98.5 -5q-30 0 -57.5 1.5t-49.5 8t-37.5 20.5t-22.5 38q-2 6 -2.5 18.5t1 25.5t5 22.5t11.5 9.5q10 0 9 -11t3 -24
q3 -11 15 -18t27.5 -11.5t33 -7t32.5 -3.5q53 -4 105.5 -2t104 6.5t102 10.5t98.5 10q1 9 4.5 22.5t7 28.5t6 30t2.5 26q0 4 -1.5 10t-2 12t1.5 9.5t10 3.5q19 -1 35 -11t31 -16z" />
    <glyph glyph-name="u" unicode="u" horiz-adv-x="461" 
d="M245 296q2 0 1 1.5t-1 -1.5q-21 -56 -45.5 -107.5t-54.5 -99.5q-8 -14 -19.5 -32.5t-25.5 -25.5q-10 -5 -21.5 -5t-22.5 2.5t-20.5 7t-16.5 9.5q-8 5 -16 14t-12 17q-12 29 -9 68.5t8 74.5t11.5 68.5t12.5 65.5q12 2 23.5 -1.5t19.5 -7.5q10 -31 8.5 -63.5t-7 -66
t-11 -68t-3.5 -69.5q12 5 19 14.5t14 19.5q51 72 93 151.5t88 153.5q0 8 -2.5 14.5t-0.5 14.5q7 2 16.5 1.5t19 -3t17 -6.5t10.5 -8q3 -5 4 -15t0.5 -20.5t-2 -21l-2.5 -17.5q-6 -45 -15 -88t-17.5 -86t-15.5 -86.5t-10 -91.5q-2 -41 -1 -80t13 -71q17 5 28.5 19.5
t19.5 29.5q23 40 41 82.5t35 85.5l34 86t38 84q8 15 17 30.5t17 32.5q2 4 7 13.5t11 19.5t12.5 17t11.5 6t6.5 -5.5t1 -10t-2 -11t-2.5 -8.5q-2 -9 -6 -18.5t-7 -16.5q-29 -70 -56.5 -138.5t-53.5 -137.5q-10 -26 -18.5 -54t-19 -54.5t-23.5 -50t-31 -40.5q-8 -8 -19 -14
t-23 -8.5t-24 -0.5t-22 11q-19 16 -30 43t-15.5 59.5t-4 68.5t3.5 71q8 72 21 135t26 118z" />
    <glyph glyph-name="v" unicode="v" horiz-adv-x="300" 
d="M79 92q15 21 27.5 48t24.5 56.5t24 59.5t26 56q3 7 9.5 15.5t11.5 9.5q11 2 19.5 -2t16.5 -4q2 -2 2 -7t4 -7q20 -4 39.5 -3.5t39.5 2.5q19 3 35.5 8.5t31.5 7.5q-8 -20 -26 -29.5t-41 -15.5q-23 -5 -50 -5t-53 -3q-27 -74 -54.5 -156.5t-55.5 -161.5q-3 -9 -8 -22
t-13 -18q-14 -8 -34.5 -5t-28.5 15q-12 41 -18 89.5t-7 100t1.5 103t7.5 99.5q3 33 7.5 64t12.5 58q11 2 30 -2t27 -15q9 -13 5.5 -36.5t-6.5 -41.5q-5 -28 -7 -61.5t-2 -68t0.5 -68t1.5 -60.5z" />
    <glyph glyph-name="w" unicode="w" horiz-adv-x="463" 
d="M138 374q1 -27 -8 -52.5t-13 -53.5q-10 -84 -17 -176.5t1 -185.5q17 36 33 74.5t33 77.5q5 13 12 26t9 25q1 5 0 11t-1 11q0 26 5 51t10 49q11 6 27.5 12t33.5 1q12 -4 16 -15t3.5 -25t-3.5 -28.5t-4 -26.5q-2 -20 -0.5 -40.5t3.5 -39.5q2 -20 3.5 -39t9.5 -31
q11 2 16 12t9 19q22 47 36.5 102t17.5 121q1 10 0.5 25.5t-0.5 31.5t2.5 28t9.5 14q5 2 10.5 0t11 -6l11 -8t10.5 -5q16 -5 33.5 -4.5t35 4t33 8.5t29.5 8q-2 -16 -16 -24.5t-28 -13.5q-23 -9 -49.5 -10.5t-55.5 -1.5q5 -61 -2 -128.5t-19 -121.5q-5 -26 -14 -48t-27 -34
q-20 -13 -43 -13t-44 9t-36 25.5t-18 36.5q-14 -45 -27 -87.5t-36 -80.5q-6 -11 -15.5 -23.5t-20.5 -16.5q-11 -5 -23 -3t-23 7.5t-19 13t-12 15.5q-5 11 -9 26.5t-6.5 32.5t-4.5 34t-4 31q-9 84 -5.5 175.5t19.5 168.5q3 13 7 31t11 24t20.5 9t29 3t30 -3t22.5 -8z" />
    <glyph glyph-name="x" unicode="x" horiz-adv-x="427" 
d="M342 469q1 -1 2 -1q4 -20 5 -41t-6 -37q-5 -14 -17.5 -29t-22.5 -29q-26 -38 -49 -72.5l-49 -73.5q-5 -7 -11 -16t-7 -14q-1 -9 5.5 -24.5t10.5 -26.5q20 -63 41 -124.5t44 -122.5q5 -12 9.5 -24.5t9.5 -23.5t9.5 -23t14.5 -19q7 86 21.5 164t35 150t45 140.5t51.5 135.5
l7.5 20t9.5 12t6.5 -5t1.5 -11.5t-1 -13t-2 -10.5q-6 -32 -15 -59.5t-19 -56.5q-13 -39 -24.5 -76.5t-19.5 -79.5q-8 -43 -15 -85.5t-13 -86.5q-3 -21 -4.5 -45t-4 -47t-7 -44t-12.5 -36q-5 -9 -12.5 -15.5t-20.5 -6.5q-29 -1 -51 17t-36 38q-15 22 -25 47t-18 51
q-17 55 -35.5 106.5t-38.5 102.5q-17 -26 -32.5 -52.5t-38.5 -49.5q-6 -7 -15.5 -14.5t-20.5 -6.5q-4 0 -11 4.5t-13.5 10.5t-11 13t-4.5 12q0 8 11 21t16 21q20 30 42.5 61.5t42.5 60.5q-14 31 -31 66t-36 65q-7 11 -12.5 21.5t-13.5 18.5q-5 5 -12.5 9t-7.5 14
q1 11 14.5 14.5t24.5 5.5q15 2 28 2h27q26 -28 43 -64t34 -73q23 28 45 58t44.5 60.5t46 60t48.5 56.5z" />
    <glyph glyph-name="y" unicode="y" horiz-adv-x="502" 
d="M407 189q8 3 14 9t12 11q45 41 90 84t86 88q6 -13 4.5 -24.5t-7.5 -22t-14.5 -19.5t-14.5 -16q-70 -85 -153 -162q-8 -7 -17.5 -15t-13.5 -16q-7 -17 -9.5 -42t-6.5 -45q-11 -63 -25.5 -126.5t-30.5 -123.5q-16 -61 -33.5 -119.5t-40 -112.5t-51 -102.5t-65.5 -88.5
q-25 -27 -55 -49t-65 -35q-19 -7 -42 -9.5t-46.5 -1t-44.5 7t-37 13.5q-33 18 -52.5 48.5t-23.5 79.5q-3 39 2.5 74t16.5 66.5t26 59t30 49.5q34 49 74 90t82 78q75 67 149.5 133t149.5 135q9 8 22.5 19t18.5 20q6 11 9 30.5t5 33.5q11 49 20.5 97.5t14.5 99.5
q-9 -2 -14.5 -9.5t-11.5 -14.5t-12.5 -13t-12.5 -14q-11 -15 -20.5 -33t-19.5 -36q-9 -17 -18.5 -34.5t-20.5 -34.5q-20 -34 -44.5 -65t-59.5 -47q-9 -4 -20.5 -5.5t-24.5 1.5q-9 2 -20 8t-21.5 13.5t-19.5 16.5t-14 18q-12 23 -17.5 55t-4.5 63q1 32 7.5 64.5t4.5 63.5
q0 7 -2.5 13.5t1.5 12.5q24 1 50 -8.5t33 -28.5q4 -11 2 -27t-4 -31q-2 -19 -5 -42t-4.5 -46t-1 -45t6.5 -40q23 11 41.5 27.5t35.5 35.5q17 17 33.5 36.5t29.5 42.5q11 19 21.5 40t22 41t25 37t31.5 29q12 8 27 8.5t28.5 -4t24 -13.5t15.5 -19q6 -15 6 -31q1 -23 -3 -46
t-10 -46t-11.5 -45.5t-6.5 -43.5zM140 -106q-43 -38 -85 -77.5t-84 -80.5q-40 -40 -76.5 -84.5t-59.5 -105.5q-9 -24 -14.5 -50.5t-6 -52.5t4.5 -51t17 -46q7 -11 17.5 -24t22.5 -18q14 -6 30 -6.5t32 2.5t31 8.5t27 10.5q38 18 67 46t51.5 62t40.5 72.5t33 77.5
q44 109 76.5 224t55.5 244q0 1 -1 1q0 1 -0.5 1t-0.5 -1q-46 -36 -89.5 -74.5t-88.5 -77.5z" />
    <glyph glyph-name="z" unicode="z" horiz-adv-x="375" 
d="M110 370q13 -1 26 1.5t26 4.5t25.5 1.5t24.5 -7.5q11 -7 19 -21.5t6 -28.5q-1 -12 -11.5 -23.5t-18.5 -19.5q-27 -28 -59.5 -52.5t-54.5 -52.5q23 -22 44.5 -43.5t40.5 -45.5q59 64 117.5 126.5t122.5 121.5q9 8 17.5 17.5t21.5 12.5q6 -16 -4.5 -26t-18.5 -18
q-59 -64 -113.5 -133t-107.5 -140q30 -43 52.5 -103.5t33.5 -123.5q6 -29 9 -61t2.5 -63.5t-4.5 -61.5t-13 -55q-32 -98 -106 -163q-14 -13 -36 -28t-47.5 -25t-53.5 -10.5t-54 15.5q-38 24 -61.5 63t-28.5 93q-5 58 9 108t31 93q32 75 74.5 140t87.5 128q5 6 15 17.5
t10 18.5q1 7 -9.5 19t-15.5 19q-14 20 -26.5 35t-28.5 34q-6 7 -12.5 14t-11 15.5t-4.5 18.5t8 22q6 8 15 14.5t17 14.5q24 20 48.5 43.5t44.5 45.5q-29 -7 -56 -8t-50 4t-40 17t-26 31q-8 18 -9 41t3 47t12 46.5t18 40.5q9 15 21 32t26 33t29.5 28.5t32.5 20.5q14 6 31 5
t33 -6t28 -14t17 -18q9 -16 4 -38q-5 -34 -20 -62t-32 -54q-17 -27 -35 -50.5t-35 -46.5zM165 563q2 6 5 16.5t4 20t-2 16t-13 3.5q-28 -8 -52.5 -26t-44.5 -44t-34.5 -53.5t-17.5 -62.5q-1 -21 4 -40t21 -20q10 -1 17.5 4.5t13.5 14t11.5 16.5t11.5 13q26 28 44 64t32 78z
M128 -73q-38 -59 -73.5 -120t-61.5 -130q-10 -29 -18 -60.5t-8 -67.5q1 -34 11 -55.5t27 -38.5q8 -8 19 -18.5t24 -11.5q8 0 17.5 3t19 8t17.5 10.5t14 10.5q17 12 29 24t21 26q20 29 36 66t24 75q10 47 7.5 92.5t-13 86.5t-26 78t-31.5 68q-7 -5 -17 -20t-18 -26z" />
    <glyph glyph-name="braceleft" unicode="{" horiz-adv-x="437" 
d="M439 907q3 1 8 1t8 -2q6 -3 11.5 -13.5t7.5 -22t-0.5 -22t-10.5 -13.5t-15.5 2t-15.5 4q-6 0 -15 -5.5t-17 -10.5q-54 -30 -83 -84.5t-41 -126.5q-3 -19 -4.5 -41t-4 -44.5t-5.5 -43.5t-9 -39q-8 -26 -21 -48.5t-31 -43.5q-4 -5 -13 -13.5t-9 -11.5q0 -2 3.5 -6t8 -8.5
l8.5 -8.5t5 -6q18 -26 26.5 -62t11.5 -75q4 -38 3 -79.5t4 -85.5q8 -63 40 -113t79 -74q6 -2 16 -5.5t13 -8.5q3 -4 3.5 -12t-0.5 -16t-4 -15t-6 -9q-8 -5 -21.5 -0.5t-22.5 8.5q-29 14 -52.5 32t-40.5 42q-23 34 -38 77t-17 90q-2 57 -1 110.5t-14 96.5q-10 29 -27 54.5
t-43 42.5q-8 6 -16.5 12t-9.5 17t5.5 19.5t16 15t20 12.5t16.5 12q32 29 50.5 66t25.5 91q7 52 12 104.5t23 93.5q13 28 30 56.5t39 51.5t50 38.5t64 19.5z" />
    <glyph glyph-name="bar" unicode="|" horiz-adv-x="421" 
d="M270 858q2 -29 -3.5 -59t-8.5 -59q-20 -179 -28.5 -364t1.5 -375q1 -15 1.5 -30.5t2.5 -30.5q2 -23 2 -46.5t-6 -41t-19 -27.5t-37 -6q-14 26 -14.5 58.5t-1.5 64.5q-4 91 -2 195t2 202q0 94 9.5 193t15.5 197q2 26 2.5 50t2.5 51q0 17 2 31.5t20 14.5q15 0 32 -5t27 -13
z" />
    <glyph glyph-name="braceright" unicode="}" horiz-adv-x="508" 
d="M81 -253q-5 2 -10 12t-7.5 22t-1 22.5t9.5 13.5q9 4 17 -1t16 -4q12 1 24.5 10.5t20.5 14.5q26 16 45 41t32.5 56.5t21 67t10.5 73.5q3 32 4.5 64.5t7.5 61.5q9 40 30.5 70.5t44.5 57.5q-26 23 -40 54.5t-22 73.5t-8.5 86.5t-5.5 89.5q-8 70 -30 113.5t-65 76.5
q-11 9 -29 18q-8 4 -17.5 7.5t-13.5 8.5q-3 5 -3.5 14t1.5 17.5t6 15.5t11 7q9 1 20 -2.5t21.5 -8.5t20.5 -11t17 -10q48 -30 76.5 -90t33.5 -130q4 -55 5 -107t15 -94q11 -29 28 -53.5t42 -41.5q10 -6 18.5 -12t9.5 -15q3 -17 -8.5 -26.5t-23.5 -17.5q-32 -20 -56.5 -56.5
t-34.5 -77.5q-6 -24 -7.5 -50.5t-3 -52.5t-3.5 -52.5t-9 -50.5q-10 -39 -27.5 -72t-39.5 -60q-11 -14 -23 -26t-29 -22q-18 -11 -41.5 -19t-49.5 -6z" />
    <glyph glyph-name="asciitilde" unicode="~" horiz-adv-x="391" 
d="M98 294q5 -12 0.5 -20.5t-16.5 -7.5q-7 0 -12.5 6.5t-8 15.5t-2.5 18.5t4 16.5q7 14 26.5 21.5t41.5 5.5q16 -1 33 -6.5t36 -8.5q29 -5 59 -7t51 11q-3 11 -12 14.5t-15 9.5q5 18 33 16q9 -4 17 -15t12 -24.5t2 -26.5t-13 -20q-9 -6 -25 -8.5t-34 -2.5t-35.5 2t-28.5 5
q-14 4 -29.5 8.5t-30.5 6.5t-29 0t-24 -10z" />
    <glyph glyph-name="uni007F" 
 />
    <glyph glyph-name="exclamdown" unicode="&#xa1;" horiz-adv-x="303" 
d="M122 -125q-3 48 2.5 91t13.5 85q13 86 21.5 170.5t13.5 185.5q0 18 0.5 43t0.5 51v25t1 25.5t4 22t9 13.5t22.5 4.5t23.5 -3.5q12 -7 15 -31t1 -47q-3 -23 -4.5 -45t-3.5 -43q-8 -86 -11.5 -178.5t-11.5 -181.5l-4 -44t-4 -43q-2 -22 -5 -44.5t-3 -42.5q-1 -9 0.5 -19.5
t-8.5 -12.5q-24 -4 -42 3.5t-31 15.5zM229 690q-15 -4 -21.5 4.5t-12.5 15.5q0 24 16 29q11 4 19 -2t11 -15.5t0.5 -19t-12.5 -12.5z" />
    <glyph glyph-name="cent" unicode="&#xa2;" horiz-adv-x="333" 
d="M208 281q0 1 0.5 1t0.5 1q-2 1 -2 -0.5t1 -1.5q-2 -3 -2 -6t-1 -6q0 -2 2.5 -1t0.5 -1q3 2 5 6t7 2q-2 -3 -3.5 -6.5t0.5 -5.5q-2 -3 -4.5 -5t-3.5 -7h-7q-3 -3 -1.5 -6t1.5 -6q3 2 5 6.5t7 1.5q-3 -2 -3.5 -6t-0.5 -7q0 -2 -2 -1.5t-2 -1.5q4 -2 2 -6t0 -6
q-1 -4 -1.5 -7.5t-2.5 -5.5q2 -1 2.5 -2t2.5 -1q-3 0 -1.5 -2.5t-3.5 -2.5q0 -1 1 -1t1 -1q-4 -14 -5 -27.5t-4 -30.5q4 1 2.5 3.5t2.5 3.5q-3 7 2 17t2 18q2 0 1.5 -2t1.5 0q1 3 1 4.5t2 5.5q2 -12 -0.5 -26t-5.5 -31h-2q-1 -2 0 -4t-2 -1q3 -8 0.5 -15t-1.5 -15
q-2 0 -2.5 0.5t-2.5 -1.5q3 -1 2 -2.5t2 -0.5q-2 -9 -6.5 -17t-3.5 -16q1 -2 1.5 0t2.5 1q0 2 -0.5 6.5t3.5 5.5q1 -5 -1 -5.5t-1 -4.5q8 5 14.5 10.5t8.5 15.5q0 8 -0.5 20.5t4.5 19.5q8 7 22.5 8.5t26.5 3.5q2 -2 3 -2.5t2 -1.5q5 -1 7.5 0t7.5 -1q0 -7 7 -7q0 -2 -1 -3
q5 -7 5 -14t2 -16q-4 -5 -3 -13t-6 -11q-1 -2 0 -3t1 -2q-5 -4 -6.5 -10t-8.5 -8q0 -8 -8 -11t-11 -10q-5 1 -6.5 -2t-5.5 -3q-11 -12 -30.5 -16t-39.5 -5q-3 -8 -5 -17t-6 -15h-4v0v-2q-14 -9 -27 -2t-22 15q0 3 -2 7q2 2 2 4.5t4 2.5q-5 5 -1.5 6t2.5 7q-28 11 -49.5 27.5
t-34.5 42.5q-8 22 -11.5 44.5t-4.5 43.5q-1 20 0 39.5t6 39.5q5 38 16 73.5t25 65.5q1 2 0 2.5t-1 2.5q2 0 2 0.5t2 0.5q7 10 14 19.5t12 20.5q3 -1 5 2q17 5 34 5t33 5q6 -2 12 -1.5t13 -1.5q2 1 0.5 5t2.5 3q-1 6 1 12.5l4 13t2.5 12t-2.5 10.5q9 3 23 1.5t24 -10.5
q0 -2 0.5 -3.5t-1.5 -2.5q3 -2 6.5 -6.5t-1.5 -6.5q3 -8 0 -15q5 -2 2 -7t-5 -7q2 -2 1.5 -5t-1.5 -5q0 -4 3 -3t3 -2q14 -3 19.5 -13t11.5 -21q2 -3 5 -5q-1 -8 5.5 -15t5.5 -15q1 -1 1 0t1 0q1 -3 0 -3.5t-1 -2.5q-4 0 -5 1q-5 -7 -14.5 -9.5t-21 -3t-22.5 -0.5t-19 -2h3
q-3 -3 -1 -10q-1 0 -1.5 -0.5t-1.5 -0.5v-8t-3 -6q4 -7 0.5 -15t-3.5 -16q-2 -2 -5 -2q3 8 3.5 15.5t3.5 13.5q-2 0 -1 3t-2 5q-3 -5 -2 -14t-3 -12q2 -1 1.5 -3t-2.5 -2zM240 484q3 0 3 4h-3v-4zM238 470q4 0 4 3q-4 0 -4 -3zM249 431q-2 2 -2 0t2 0v0zM133 64q2 -1 2.5 1
t0.5 4q-3 0 -2 -2t-1 -3q-3 -1 -1.5 1.5t1.5 4.5q2 5 1.5 11t1.5 11h4q0 2 -1 2t-1 2h3q0 4 1 4q-2 2 -2.5 1t-0.5 2q2 1 1.5 -0.5t1.5 -1.5q2 2 0.5 4.5t2.5 2.5q0 -1 -1 -2.5t1 -1.5q3 2 3 5.5t2 5.5q-2 0 -1 2t-1 1q-2 0 -1 -2t-2 0q0 6 -1 7q-2 -1 -1 -3t-2 -1q0 4 3 7
q1 1 3 -1q0 2 1 2t1 2q-2 0 -3 -1.5t-2 0.5q0 5 1 5q0 -2 2 -2q4 5 7.5 12t8.5 5q-6 -2 -5 -6q2 -1 2 1t2 1q-1 -5 -2 -6t-3 -4q4 0 4 -1q-2 -1 -4 -1.5t-3 -2.5q1 -1 2.5 -0.5t0.5 -1.5q-2 -2 0 -2t0 2q2 0 2 1t2 1q0 3 1 5.5t-1 4.5h3q1 7 2 15t-1 12q-1 -2 -2.5 -4.5
t-3.5 -4.5q2 1 1.5 -1t-1.5 -3q-1 1 -3 1q-1 0 -2 -1q-1 3 0.5 6.5t2.5 7.5q-5 -1 -4.5 -2.5t1.5 -3.5q-1 -2 -2.5 -4t0.5 -4q-3 -1 -3 -3v-4t-0.5 -3.5t-3.5 -1.5q10 29 12 56.5t11 61.5q1 -1 1 -2.5t1 -2.5q-1 2 0 4t-1 3q0 -2 -1.5 -1.5t-1.5 2.5q2 1 2 4t2 1q2 3 -0.5 2
t-1.5 2q0 1 1.5 0.5t1.5 1.5q-2 -1 -1.5 0.5t-0.5 3.5q-3 0 -3 1q4 4 5 9t1 10t1 10t4 8q-1 -2 -1 -4.5t2 -2.5q3 5 2 12q-2 1 -2 -1.5t-2 -1.5q1 5 3 6.5t2 5.5q-3 0 -3.5 -2.5t-3.5 -3.5q3 6 3.5 11.5t2.5 13.5q0 1 -1.5 1t-1.5 1q5 9 6 17t2 18q-6 -2 -8.5 -7.5
t-7.5 -7.5q-6 -18 -15 -31t-17 -31q-4 -19 -12.5 -43.5t-10.5 -45.5q-6 -15 -6 -38q0 -1 -1 -1t-1 -1q4 -14 0 -27.5t2 -29.5q0 -1 -0.5 -1t-0.5 -1q2 -17 7.5 -34t16.5 -27q1 2 1.5 0.5t2.5 -0.5q-1 2 -0.5 2.5t-1.5 2.5v0zM186 357q-2 2 -1.5 0t1.5 0zM292 352h2v1h-2v-1
v0zM218 337v-1h1q0 1 1 1v1h-2v-1v0zM180 335q1 -2 1 0t-1 0zM218 335q-3 1 -2 -0.5t2 0.5zM216 326q-1 0 -1 0.5t-1 0.5q-1 -2 0.5 -2.5t1.5 1.5zM211 318q5 1 2.5 -2.5t1.5 -3.5q1 3 2 6.5t0 5.5q-2 -1 -3 -2.5t-3 -3.5zM189 298q2 0 2 3t-1 3q-2 -4 -1 -6zM176 284
q1 3 2 9t-4 7q2 -4 -0.5 -9t2.5 -7zM185 277q3 -2 3.5 1t-1.5 3q0 -1 -1 -1.5t-1 -2.5zM183 269h3q-1 2 0.5 4t-1.5 2q0 -2 -0.5 -3l-1.5 -3v0zM185 263v4q-2 0 -2 -2t2 -2zM206 264q3 -3 -0.5 -6t1.5 -4q-1 3 1 5t2 7q-2 0 -4 -2zM169 263v-1h2q0 2 -2 2v-1zM183 260
q2 -2 2 0t-2 0zM179 251h2v2h-2v-2zM166 240q5 0 4.5 5.5t-2.5 6.5q-2 -6 -2 -12zM166 231q1 2 2 2.5t1 2.5q-2 0 -1.5 1.5t-1.5 0.5q-1 -4 0 -7zM198 235q2 0 3 1t2 -1q0 -3 -2 -2.5t-3 -0.5q0 -5 -0.5 -8t-5.5 -6q2 -2 2.5 0t2.5 0q0 -2 -1 -3t-1 -4q2 -1 1.5 1t1.5 2
q2 -5 0 -9l-4 -8q8 3 6.5 9.5t3.5 11.5q-2 2 -1 5.5t3 5.5q-3 2 -1.5 3.5t0.5 4.5q-2 2 -4 1.5t-4 -0.5q0 -3 1 -3zM189 227q3 0 3 2q-1 0 -3 -2zM161 224h3q0 2 -3 2v-2zM177 219q0 -4 0.5 -1t-0.5 1zM162 217q1 -2 1 0t-1 0zM176 214h1v1h-1v-1v0zM183 214h2v1h-2v-1z
M162 212h-1q0 -2 0.5 -4t2.5 -2q-1 2 -1 3t-1 3q2 0 1 1t-1 -1zM189 209q0 1 -0.5 1t-0.5 -1h1zM161 202v1q1 1 1 2h-2q-1 -2 0 -3.5t1 0.5zM178 203q1 -2 1 0t-1 0v0zM160 194l1 1q0 4 -2 4q-2 -2 1 -5v0zM194 190q0 2 1.5 3t2.5 3q-2 0 -5 -2t1 -4zM168 190q-3 0 -3 -1
q3 0 3 1zM192 188v-5q-2 1 -2.5 0t-1.5 -1q1 -3 -1 -4t0 -4q3 -1 5 2.5t4 1.5q2 3 1 4.5t1 6.5q-5 0 -6 -1zM186 185q3 0 3 1h-2q-1 0 -1 -1zM159 182q2 0 3 2h-2q0 -2 -1 -2zM155 175q2 -2 2 0t-2 0zM190 166q0 2 -1 0.5t1 -0.5v-2q0 -1 -1 -0.5t-1 -1.5t-1 -4t1 -5
q-3 0 -3 -1q3 1 3 -2t2 -4q-1 8 2.5 15.5t1.5 14.5q-1 -3 -4.5 -3h-6.5q-1 -2 0.5 -1.5t1.5 -1.5q2 0 3 1.5t3 0.5q0 -2 1 -1.5t1 -1.5q-2 -1 -1.5 -2t-1.5 -1zM155 168q2 -1 2.5 1t-1.5 2q0 -2 -0.5 -2t-0.5 -1zM194 129q2 0 3 2h-3v-2zM161 122v3h-2q0 -3 2 -3v0zM153 113
q0 -1 -1 -1.5t1 -1.5q0 2 2 2h3q1 2 -0.5 2t-0.5 2q3 0 3 1q-2 -1 -0.5 1.5t-0.5 2.5q2 -2 -0.5 -2.5t-3.5 1.5q2 -1 2 1.5t-2 1.5q1 -2 -0.5 -1.5t-1.5 -1.5q2 -2 0 -3.5t0 -3.5v0zM170 99q2 -2 2 0t-2 0zM182 97q1 -2 1 0t-1 0zM163 73h2v2h-2v-2zM146 67q1 -2 1 0.5
t-1 -0.5zM133 57v0q0 2 -1 0.5t1 -0.5zM156 49q-3 0 -3 -1q3 0 3 1zM182 374q1 3 1 0.5t-1 -0.5v0zM214 252v-3q-2 1 -2 2t2 1v0zM213 231q1 -1 0 -3t-3 -2q0 2 3 5v0zM210 225h2q0 -3 -2 -7q-1 2 -0.5 3.5t0.5 3.5zM208 219q0 1 1 1t-1 -1zM198 217h1v-2h-1v2zM208 209
q1 2 1 0t-1 0zM214 201q1 2 1 0t-1 0zM163 154q0 1 2 1q0 -1 -2 -1zM157 152q0 1 1 1t-1 -1zM157 152q-2 -4 -4 -4q1 1 1.5 2.5t2.5 1.5zM145 133q0 3 1 3q0 -3 -1 -3zM154 114q0 2 1 2q0 -2 -1 -2zM153 113q0 1 1 1q0 -1 -1 -1zM141 113q3 -3 0 -2.5t0 2.5zM30 89q0 1 3 1
q0 -1 -3 -1z" />
    <glyph glyph-name="sterling" unicode="&#xa3;" horiz-adv-x="597" 
d="M25 -122v0q-8 -3 -15 0.5t-13 1.5v3q-14 -3 -27.5 2.5t-27.5 7.5q-3 4 -7.5 6.5t-5.5 10.5q-2 0 -4 -1.5t-4 -3.5q0 1 1 3.5t-1 4.5q1 2 2 0t2 -1q-5 4 -8.5 12t-4.5 16q-4 2 -6 6t-4 6q2 7 0 16t3 13q0 2 -1.5 1.5t-1.5 1.5q0 22 7 41.5t15 39.5q1 2 0 3t-1 3
q11 18 22.5 36t25.5 33.5t31 26.5t40 15q14 1 25.5 1t24.5 3q16 -4 30 -6t29 -6q17 47 26.5 98t19.5 106q-12 -2 -30 -4t-34 -10q-20 -2 -38.5 -3t-31.5 13q-2 10 -7 21t-4 27q15 0 31 1.5t30 1.5q14 -9 26 0q2 -1 2.5 -2t2.5 -1q17 1 31 0.5t31 -0.5q2 2 2 12
q14 50 22.5 103.5t22.5 104.5q9 39 18 74.5t31 61.5q4 -1 6.5 0t5.5 1q17 8 38.5 11t44.5 5q9 -2 15.5 -5t13.5 -4q14 7 27 -5q18 -2 32 -7t28 -12q2 -4 4 -6t3 -4q15 -6 24 -18.5t20 -23.5q-1 -4 1 -6t0 -4q5 -11 8.5 -23.5t4.5 -27.5q1 -11 -0.5 -22.5t-2.5 -22.5
q0 -9 -0.5 -18t-2.5 -18q-5 -2 -8 -5t-7 -6q-12 -6 -26 -4t-22 11q0 10 -0.5 22t-0.5 23q2 33 -8.5 59t-21.5 49q-9 5 -22 12.5t-26 5.5q-9 -2 -12 -7.5t-12 -7.5q-15 -20 -25.5 -46t-19.5 -52q2 -7 -0.5 -12.5t-5.5 -9.5q2 -11 -6 -19q-2 -8 -3 -16.5t-5 -13.5
q1 -19 -4.5 -36t-4.5 -34q-6 -11 -8 -26t-4 -27q1 -2 4 0t5 0q2 -1 4.5 -1t4.5 -1q19 1 43 3t47 -3q10 -2 14 -7q0 -12 -4 -24q-2 -2 -4.5 -3t-4.5 -3q-8 -2 -17 -0.5t-17 0.5q-3 -1 -5.5 -2.5t-5.5 -1.5q-9 -2 -18 -0.5t-19 0.5q-8 -2 -16 -5t-19 -1q-5 -11 -7.5 -26
t-7.5 -25q-2 -16 -3.5 -31.5t-8.5 -28.5q-2 -36 -11.5 -66t-14.5 -62q-2 -3 -4.5 -6.5t-0.5 -6.5q2 0 2 3t2 1q3 0 3 -3t-2 -4q2 -4 6 -4.5t1 -4.5q11 -1 16 -9t16 -10v-3q1 -1 4 -1.5t1 -2.5q13 -4 21 -16q29 -17 56.5 -33t60.5 -30q23 -4 45 -2.5t39 9.5l6 6t6 8
q2 5 1.5 11.5t-1.5 12.5q1 5 4.5 6t5.5 5q3 -1 5.5 -1.5t5.5 -1.5q1 -7 4 -13.5t-2 -10.5q3 -2 5.5 -9.5t-2.5 -8.5q3 -3 3.5 -8t-2.5 -7q0 -1 3 -1q-2 -11 -2.5 -18.5t-7.5 -13.5q-10 0 -16.5 -6.5t-15.5 -2.5q-8 -7 -19 -8t-21 3q-1 -4 -1.5 -3t-2.5 -1q-12 4 -21.5 4
t-16.5 3q-1 0 -1.5 1.5t-2.5 2.5t-5 0.5t-6 0.5q-10 2 -21.5 8.5t-22.5 11.5q-40 20 -74.5 46t-69.5 50q-3 -5 -5 -13t-8 -12q0 -2 1 -2.5t0 -2.5q-9 -12 -14 -29t-13 -31q-2 0 -2 -1t-2 0q-3 -11 -8 -19t-11 -15q0 -4 -0.5 -2.5t-2.5 1.5q-5 -10 -11 -18.5t-12 -19.5
q-1 0 -3 2q-1 -2 -2 -3t-1 -3q1 0 -3 2q-4 -6 -9 -11t-9 -12q-7 -3 -13.5 -3t-12.5 -4q-2 3 -8 0t-10 2q-8 -2 -14 -8t-14 -2q0 2 1.5 2.5t1.5 2.5q-2 2 -3.5 -0.5t-4.5 -1.5q0 -2 1.5 -1.5t0.5 -1.5q-3 -2 -8 1q-1 -5 -7 -3t-10 1zM119 141q-2 0 -5 1.5t-6 3.5
q-7 1 -13.5 -1.5t-11.5 -2.5q-5 -1 -10.5 0t-9.5 0q-5 -2 -10 -5t-11 0q-16 -13 -32 -24t-30 -25q-3 -13 -7.5 -23t-8.5 -22q3 -5 3 -13.5v-18t1 -18t6 -13.5q8 -2 14 -6.5t13 -5.5q8 -2 14 0.5t14 0.5q31 9 47.5 33t28.5 49q8 17 17.5 40t16.5 46q-4 5 -9.5 3.5t-10.5 0.5z
M9 -110q2 0 4.5 -0.5t1.5 2.5h-6v-2v0zM39 -110q2 -2 3.5 -0.5t-1.5 2.5q0 -2 -1 -1.5t-1 -0.5zM23 -117q1 -2 1 -1t-1 1v1q-1 -1 -1 2h-2q0 -3 1 -3h2zM386 682q0 -1 2 1q0 -1 -2 -1zM505 588q0 -1 2 1q0 -1 -2 -1zM-93 -62h2v-2h-2v2v0zM-92 -66q2 2 2 -1t-2 1z" />
    <glyph glyph-name="currency" unicode="&#xa4;" horiz-adv-x="571" 
d="M90 353q0 57 35 110l-66 68l49 47l66 -64q49 35 112 35q59 0 110 -35l67 64l48 -47l-64 -67q35 -54 35 -111q0 -63 -35 -112l63 -66l-47 -47l-67 64q-50 -34 -110 -34q-64 0 -112 35l-66 -64l-48 47l65 66q-35 53 -35 111zM157 353q0 -54 37.5 -91.5t91.5 -37.5t92 37
t38 92q0 56 -38 93.5t-92 37.5t-91.5 -38t-37.5 -93z" />
    <glyph glyph-name="yen" unicode="&#xa5;" horiz-adv-x="571" 
d="M285 365l179 349h92l-201 -375h124v-64h-151v-82h151v-64h-151v-129h-86v129h-151v64h151v82h-151v64h122l-199 375h93z" />
    <glyph glyph-name="brokenbar" unicode="&#xa6;" horiz-adv-x="550" 
d="M239 760h73v-381h-73v381zM239 140h73v-381h-73v381z" />
    <glyph glyph-name="section" unicode="&#xa7;" horiz-adv-x="513" 
d="M67 395q0 42 21 75t58 51q-36 20 -56 47t-20 68q0 60 50.5 94.5t146.5 34.5q45 0 82 -7t89 -27l-27 -67q-47 19 -80.5 26t-69.5 7q-56 0 -82.5 -14.5t-26.5 -44.5q0 -27 28 -47.5t104 -47.5q89 -33 126 -70t37 -90q0 -88 -75 -133q74 -39 74 -110q0 -69 -57.5 -107
t-160.5 -38t-169 33v75q42 -19 88.5 -30t84.5 -11q62 0 96 18t34 53q0 30 -26 49t-103 49q-96 36 -131 72.5t-35 91.5zM142 405q0 -25 13 -43.5t43 -35.5t109 -47q64 37 64 91q0 40 -34 66.5t-123 54.5q-32 -9 -52 -33t-20 -53z" />
    <glyph glyph-name="dieresis" unicode="&#xa8;" horiz-adv-x="242" 
d="M178 464q12 2 21 -4t11 -17q1 -11 -4 -19.5t-13.5 -14t-19.5 -7t-20 3.5q-2 1 -5.5 4.5t-4.5 7.5q-5 17 8 30t27 16zM59 464q11 1 20.5 -11.5t9.5 -24.5q0 -11 -8.5 -18.5t-19 -10t-19.5 2t-11 16.5q-3 15 6.5 29.5t21.5 16.5z" />
    <glyph glyph-name="copyright" unicode="&#xa9;" horiz-adv-x="640" 
d="M298 656q16 12 35.5 19t45.5 9q42 2 70 -18t45 -42q16 -22 30 -54.5t22 -70t8.5 -77.5t-9.5 -77q-17 -65 -58.5 -113t-101.5 -66q-37 -12 -69.5 -6.5t-59.5 21t-48.5 38t-36.5 45.5q-17 23 -31 54t-16 63q-3 38 2.5 72.5t17.5 65t29 56.5t36 48q5 6 12 13l15 15
q6 5 16 12.5t18 8.5q11 0 15.5 -5.5t12.5 -10.5zM225 532q-17 -27 -33.5 -62t-18.5 -72q-3 -41 9.5 -73.5t30.5 -55.5q16 -21 43 -42t59 -25q21 -3 40.5 1t36.5 12t31 19t24 22q22 24 37.5 55t23.5 67t7 75.5t-12 79.5q-11 35 -25 66t-42 47q-32 17 -69 12t-65 -18
q-19 -28 -39 -53.5t-38 -54.5zM349 541q-7 -3 -8.5 -7t-0.5 -8.5t3.5 -9t4.5 -8.5q7 -25 -1 -49t-10 -49q-2 -20 -3.5 -39t2.5 -39q16 5 27 15t20.5 22.5t17.5 25.5t18 23q1 -16 -4.5 -29t-11.5 -25q-6 -11 -12 -23t-14.5 -22t-19 -17t-25.5 -8q-17 -2 -32.5 3.5t-25.5 14.5
q-17 14 -21.5 38t-2.5 51.5t8.5 54t12.5 45.5l4.5 13.5t5.5 15.5q2 7 4 15.5t6 13.5q7 9 26.5 13.5t37.5 2.5q20 -3 39 -19q8 -8 16.5 -16t8.5 -16q-1 -8 -9 -13.5t-16 -4.5q-8 0 -13.5 5t-10.5 11t-10 11.5t-11 7.5z" />
    <glyph glyph-name="ordfeminine" unicode="&#xaa;" horiz-adv-x="356" 
d="M261 389l-12 42q-46 -48 -114 -48q-47 0 -75 24.5t-28 74.5t38.5 76t119.5 29l56 2v22q0 30 -19 44.5t-52 14.5q-49 0 -101 -26q-13 30 -22 49q60 29 125 29t98 -27t33 -86v-220h-47zM96 482q0 -48 54 -48q96 0 96 87v23l-48 -2q-54 -2 -78 -16t-24 -44z" />
    <glyph glyph-name="guillemotleft" unicode="&#xab;" horiz-adv-x="508" 
d="M40 270l168 201l63 -36l-140 -171l140 -171l-63 -37l-168 201v13zM238 270l170 201l62 -36l-140 -171l140 -171l-62 -37l-170 201v13z" />
    <glyph glyph-name="logicalnot" unicode="&#xac;" horiz-adv-x="571" 
d="M520 388v-260h-71v189h-399v71h470z" />
    <glyph glyph-name="uni00AD" unicode="&#xad;" horiz-adv-x="321" 
d="M40 229v78h242v-78h-242z" />
    <glyph glyph-name="registered" unicode="&#xae;" horiz-adv-x="832" 
d="M355 373h50q40 0 61.5 19.5t21.5 51.5q0 36 -20 51.5t-64 15.5h-49v-138zM565 446q0 -41 -21 -70.5t-57 -43.5l116 -194h-86l-100 173h-62v-173h-76v437h128q82 0 120 -32t38 -97zM49 357q0 98 48.5 183t134 134.5t184.5 49.5q98 0 183.5 -49t134.5 -134t49 -184
q0 -96 -47.5 -180.5t-132.5 -135.5t-187 -51q-101 0 -186.5 50.5t-133 135t-47.5 181.5zM102 357q0 -84 42 -157t115 -115t157 -42t157 42t115 115t42 157t-42 156.5t-115 115t-157 42.5t-156.5 -42t-115 -115t-42.5 -157z" />
    <glyph glyph-name="macron" unicode="&#xaf;" horiz-adv-x="339" 
d="M469 363q1 -9 2 -21t0.5 -23t-4.5 -20t-11 -12q-5 -3 -19 -3t-25 -1q-34 -2 -67.5 -4.5t-65.5 -5.5q-52 -5 -90 -12t-80 -9q-17 -2 -34 0t-25 10q-3 3 -6.5 14.5t-5.5 24t-1.5 24t6.5 16.5q5 4 15.5 2.5t19.5 -2.5q45 -3 91 -1t90 7t87 10.5t82 9.5q10 1 21 1t20 -5z" />
    <glyph glyph-name="degree" unicode="&#xb0;" horiz-adv-x="223" 
d="M136 682q2 -2 0.5 -4.5t-0.5 -6.5h6t5 -2q14 -5 22.5 -17t11 -27.5t-1.5 -32t-15 -29.5q-11 -12 -29.5 -21t-35.5 -5q-25 6 -37.5 31.5t-10.5 52.5q0 10 4 22t10 22.5t14 17.5t17 9q12 2 20.5 -3t19.5 -7zM122 660q-8 -6 -15.5 -14.5t-12.5 -18.5t-6.5 -22.5t3.5 -25.5
q18 -3 31.5 7.5t19.5 25t2 29t-22 19.5z" />
    <glyph glyph-name="plusminus" unicode="&#xb1;" horiz-adv-x="503" 
d="M278 498q47 3 93 8t88 10q3 -4 6 -15.5t3.5 -24t-2 -24t-8.5 -15.5t-19 -3.5t-26 -0.5q-32 -2 -69.5 -4.5t-66.5 -4.5q1 -20 0 -41.5t-1 -46.5q0 -10 1 -22t1.5 -24t-0.5 -22.5t-5 -17.5q-5 -11 -21.5 -16t-30.5 2q-10 5 -14.5 17t-5.5 27q-1 32 1.5 68.5t0.5 65.5
q-18 -1 -37.5 -4.5t-40 -6.5t-41 -3.5t-39.5 4.5q-3 8 -6.5 19t-5 22.5t-1 22.5t5.5 20q37 1 80.5 0t82.5 3q-2 19 -3.5 42t-1.5 46.5t2 46t6 41.5h20.5t24.5 -1.5t22 -5.5t12 -10q3 -7 1.5 -17t-3.5 -19q-3 -26 -2.5 -57t-0.5 -59zM464 183q1 -9 2 -21t0.5 -23t-4.5 -20
t-11 -12q-5 -3 -19 -3t-25 -1q-34 -2 -67.5 -4.5t-65.5 -5.5q-52 -5 -90 -12t-80 -9q-17 -2 -34 0t-25 10q-3 3 -6.5 14.5t-5.5 24t-1.5 24t6.5 16.5q5 4 15.5 2.5t19.5 -2.5q45 -3 91 -1t90 7t87 10.5t82 9.5q10 1 21 1t20 -5z" />
    <glyph glyph-name="uni00B2" unicode="&#xb2;" horiz-adv-x="350" 
d="M306 286h-282v54l115 112q62 60 79.5 87.5t17.5 61.5q0 32 -18.5 48t-48.5 16t-54.5 -11.5t-50.5 -31.5l-35 46q65 55 141 55q64 0 100.5 -32t36.5 -86q0 -22 -6 -41.5t-18.5 -39.5t-33 -42.5t-138.5 -133.5h195v-62z" />
    <glyph glyph-name="uni00B3" unicode="&#xb3;" horiz-adv-x="350" 
d="M308 613q0 -74 -74 -102q87 -21 87 -102q0 -62 -45 -96.5t-128 -34.5q-74 0 -131 28v63q69 -34 132 -34q100 0 100 76q0 69 -110 69h-57v55h57q50 0 73.5 19t23.5 51q0 29 -19 45t-51 16q-51 0 -111 -38l-36 46q36 27 71 38t75 11q66 0 104.5 -29.5t38.5 -80.5z" />
    <glyph glyph-name="acute" unicode="&#xb4;" horiz-adv-x="293" 
d="M28 450q3 2 6.5 0.5t5.5 0.5q23 11 47.5 22.5t50.5 23.5q26 11 51.5 23.5t51.5 17.5q9 2 19 -5.5t8 -15.5q0 -5 -5.5 -9.5t-12.5 -8.5t-14.5 -7.5t-12.5 -6.5q-27 -15 -49.5 -27t-51.5 -26q-11 -5 -27 -13.5t-30 -6.5q-13 2 -22.5 14.5t-14.5 23.5z" />
    <glyph glyph-name="mu" unicode="&#xb5;" horiz-adv-x="623" 
d="M173 190q0 -127 120 -127q83 0 120 45.5t37 148.5v279h88v-536h-71l-14 72h-5q-53 -82 -161 -82q-71 0 -115 45h-4q5 -36 5 -119v-156h-88v776h88v-346z" />
    <glyph glyph-name="paragraph" unicode="&#xb6;" horiz-adv-x="654" 
d="M549 -127h-58v831h-102v-831h-58v400q-30 -9 -71 -9q-105 0 -155 61t-50 184q0 127 53.5 189t166.5 62h274v-887z" />
    <glyph glyph-name="periodcentered" unicode="&#xb7;" horiz-adv-x="136" 
d="M54 332q14 5 29 -1.5t17 -17.5q1 -8 -2 -15t-8 -13t-11.5 -10t-11.5 -4q-11 -1 -18.5 7.5t-9.5 19.5t1 21t14 13z" />
    <glyph glyph-name="cedilla" unicode="&#xb8;" horiz-adv-x="316" 
d="M168 92q9 -22 4.5 -48t-15.5 -40q33 -1 55.5 -8.5t35.5 -24.5q12 -16 16 -35.5t3 -40t-6.5 -40.5t-13.5 -36q-16 -33 -43.5 -58t-63.5 -28q-35 -4 -55.5 10.5t-34.5 35.5q0 26 10.5 44t21.5 35q3 5 6.5 11t10.5 6q1 -12 -3 -22t-7.5 -19t-6 -19t1.5 -22q3 -11 14 -14
t24 -2t25.5 6t19.5 11q14 11 27 34.5t19 46.5q4 15 3 35t-6 35q-2 6 -7.5 15t-13.5 11q-9 1 -16 -1.5t-13 -6.5l-12 -8t-13 -5q-12 -2 -24 5.5t-16 12.5q-9 12 -6 27.5t9.5 31t11.5 31t1 27.5q3 4 9.5 6t15 2t17 -0.5t15.5 -0.5z" />
    <glyph glyph-name="uni00B9" unicode="&#xb9;" horiz-adv-x="350" 
d="M167 714h73v-428h-71v276q0 33 4 89q-15 -14 -26.5 -23t-74.5 -55l-35 49z" />
    <glyph glyph-name="ordmasculine" unicode="&#xba;" horiz-adv-x="375" 
d="M345 553q0 -80 -42 -125t-116 -45q-71 0 -113 45t-42 125q0 81 41 125t116 44q73 0 114.5 -44.5t41.5 -124.5zM95 553q0 -59 21.5 -88t71.5 -29q49 0 71 29t22 88t-22 87.5t-71 28.5t-71 -28.5t-22 -87.5z" />
    <glyph glyph-name="guillemotright" unicode="&#xbb;" horiz-adv-x="508" 
d="M469 257l-170 -201l-62 37l140 171l-140 171l62 36l170 -201v-13zM270 257l-169 -201l-62 37l140 171l-140 171l62 36l169 -201v-13z" />
    <glyph glyph-name="onequarter" unicode="&#xbc;" horiz-adv-x="790" 
d="M736 96h-61v-96h-75v96h-195v52l197 283h73v-275h61v-60zM600 156v93q0 52 3 101q-4 -9 -48 -77l-80 -117h125zM354 -151q-3 36 7 70t19 67q28 97 56 191t60 191q36 108 77.5 211t81.5 212q3 7 5.5 17t6 18.5t8.5 14.5t12 7q6 1 16 -2.5t19.5 -9t16.5 -11.5t8 -11
q2 -14 -7.5 -30t-14.5 -28q-45 -97 -83 -196t-75 -204q-32 -92 -58.5 -181t-51.5 -188q-4 -16 -7.5 -33.5t-7.5 -34t-9 -31t-12 -24.5q-5 -6 -12.5 -12t-16.5 -9t-19 -2t-19 8zM165 714h73v-428h-71v276q0 33 4 89q-15 -14 -26.5 -23t-74.5 -55l-35 49z" />
    <glyph glyph-name="onehalf" unicode="&#xbd;" horiz-adv-x="790" 
d="M324 -151q-3 36 7 70t19 67q28 97 56 191t60 191q36 108 77.5 211t81.5 212q3 7 5.5 17t6 18.5t8.5 14.5t12 7q6 1 16 -2.5t19.5 -9t16.5 -11.5t8 -11q2 -14 -7.5 -30t-14.5 -28q-45 -97 -83 -196t-75 -204q-32 -92 -58.5 -181t-51.5 -188q-4 -16 -7.5 -33.5t-7.5 -34
t-9 -31t-12 -24.5q-5 -6 -12.5 -12t-16.5 -9t-19 -2t-19 8zM152 714h73v-428h-71v276q0 33 4 89q-15 -14 -26.5 -23t-74.5 -55l-35 49zM727 0h-282v54l115 112q62 60 79.5 87.5t17.5 61.5q0 32 -18.5 48t-48.5 16t-54.5 -11.5t-50.5 -31.5l-35 46q65 55 141 55
q64 0 100.5 -32t36.5 -86q0 -22 -6 -41.5t-18.5 -39.5t-33 -42.5t-138.5 -133.5h195v-62z" />
    <glyph glyph-name="threequarters" unicode="&#xbe;" horiz-adv-x="790" 
d="M772 96h-61v-96h-75v96h-195v52l197 283h73v-275h61v-60zM636 156v93q0 52 3 101q-4 -9 -48 -77l-80 -117h125zM398 -151q-3 36 7 70t19 67q28 97 56 191t60 191q36 108 77.5 211t81.5 212q3 7 5.5 17t6 18.5t8.5 14.5t12 7q6 1 16 -2.5t19.5 -9t16.5 -11.5t8 -11
q2 -14 -7.5 -30t-14.5 -28q-45 -97 -83 -196t-75 -204q-32 -92 -58.5 -181t-51.5 -188q-4 -16 -7.5 -33.5t-7.5 -34t-9 -31t-12 -24.5q-5 -6 -12.5 -12t-16.5 -9t-19 -2t-19 8zM307 613q0 -74 -74 -102q87 -21 87 -102q0 -62 -45 -96.5t-128 -34.5q-74 0 -131 28v63
q69 -34 132 -34q100 0 100 76q0 69 -110 69h-57v55h57q50 0 73.5 19t23.5 51q0 29 -19 45t-51 16q-51 0 -111 -38l-36 46q36 27 71 38t75 11q66 0 104.5 -29.5t38.5 -80.5z" />
    <glyph glyph-name="questiondown" unicode="&#xbf;" horiz-adv-x="446" 
d="M139 -132q-27 -3 -49.5 6t-38.5 25.5t-26 39.5t-11 47q-3 33 4 59.5t19 48.5t26.5 41.5t27.5 38.5q38 56 68.5 112t56.5 124q13 33 24.5 67.5t13.5 75.5q1 14 1 29.5t8 23.5q7 6 20.5 6t21.5 -5q7 -5 11 -16t5 -24.5t0.5 -28.5t-1.5 -27q-2 -29 -6 -51.5t-12 -42.5
q-16 -41 -33 -77.5t-37 -80.5q-17 -37 -39.5 -72.5t-47.5 -69.5q-11 -15 -23 -32t-23 -35q-10 -17 -20.5 -37t-11.5 -44q-1 -14 3 -27.5t10 -16.5q9 -5 25.5 -2t26.5 6q28 8 50.5 22t42 31t38 36t38.5 37q7 5 14.5 12.5l15.5 15.5t15 16.5t17 10.5q7 1 16 -1t17.5 -6t15 -10
t6.5 -12q1 -11 -8.5 -19.5t-16.5 -16.5q-37 -41 -76.5 -77t-88.5 -65q-20 -11 -43 -22t-46 -13zM319 714q-8 -5 -17.5 -6t-18 2t-14.5 9.5t-6 15.5q-2 20 11.5 26t27.5 1.5t22 -17.5t-5 -31z" />
    <glyph glyph-name="Agrave" unicode="&#xc0;" horiz-adv-x="644" 
d="M461 486q88 20 183 38.5t198 29.5q36 4 78.5 6t82 -1.5t71.5 -15.5t47 -36q5 -9 7.5 -20.5t1 -23t-6.5 -21.5t-15 -16q-4 14 -6 27.5t-10 22.5q-9 11 -26.5 18t-39 10.5t-45 4.5t-43.5 1q-69 0 -131.5 -9.5t-121.5 -22t-116 -26.5t-114 -23q-11 -89 -23 -179.5t-22 -184
t-16.5 -190t-6.5 -198.5q0 -28 2 -54.5t14 -46.5q12 4 19 14t14 19q24 34 43.5 74t35.5 83.5t30 88t28 88.5q29 88 59 176.5t59 176.5q4 11 8 24t15 20q2 -29 -5.5 -57t-14.5 -56q-32 -139 -69 -272.5t-76 -267.5q-8 -27 -17 -52.5t-21.5 -47t-30.5 -37.5t-43 -25
q-34 -12 -56 -2t-36 32.5t-21 52t-10 56.5q-7 62 -6 131t6 131q10 130 27 248t33 239q-26 -2 -54 -7.5t-57 -7.5q-17 -59 -35 -119t-37.5 -118.5t-41.5 -115t-48 -108.5q-13 -26 -27 -50t-33 -46q-17 -20 -40.5 -39t-55.5 -18q-23 1 -42.5 11t-34 27t-23 39.5t-10.5 46.5
q-1 17 -0.5 35.5t8.5 33.5q14 -5 25.5 -16t16.5 -26q4 -12 5 -25l2 -26t4.5 -23.5t12.5 -17.5q37 13 61.5 42t44.5 61q61 96 101 212t75 237q-27 3 -56.5 3.5t-57 4t-50 12.5t-33.5 27q-3 6 -6 15t-4.5 19.5t-1 21t3.5 19.5q7 -3 10.5 -9t7 -12.5t7.5 -13t12 -10.5
q16 -8 39 -12t48.5 -5.5t51 -2t46.5 -1.5q16 45 30.5 93t31 96t36 93.5t43.5 84.5q10 17 27.5 27t37 11.5t38 -5.5t30.5 -24q7 -8 10 -21t4 -24q3 -38 -3 -75t-12 -75q-5 -38 -10 -75t-10 -71zM395 789q-35 -77 -62.5 -161.5t-53.5 -172.5q28 2 54.5 5.5t50.5 9.5
q11 77 27.5 154.5t22.5 155.5q1 5 1.5 11t-4.5 9q-9 -2 -17.5 -5.5t-18.5 -5.5zM590 903q-3 -11 -12.5 -24.5t-21.5 -15.5q-14 -3 -31.5 4t-28.5 12q-29 11 -52 21.5t-52 24.5q-5 2 -13 5t-15.5 7t-13 8t-5.5 8q-1 7 6 14t14 9q12 2 28.5 -3.5t29.5 -9.5q27 -9 52 -19
t51 -20q17 -7 32.5 -13t31.5 -8z" />
    <glyph glyph-name="Aacute" unicode="&#xc1;" horiz-adv-x="644" 
d="M461 486q88 20 183 38.5t198 29.5q36 4 78.5 6t82 -1.5t71.5 -15.5t47 -36q5 -9 7.5 -20.5t1 -23t-6.5 -21.5t-15 -16q-4 14 -6 27.5t-10 22.5q-9 11 -26.5 18t-39 10.5t-45 4.5t-43.5 1q-69 0 -131.5 -9.5t-121.5 -22t-116 -26.5t-114 -23q-11 -89 -23 -179.5t-22 -184
t-16.5 -190t-6.5 -198.5q0 -28 2 -54.5t14 -46.5q12 4 19 14t14 19q24 34 43.5 74t35.5 83.5t30 88t28 88.5q29 88 59 176.5t59 176.5q4 11 8 24t15 20q2 -29 -5.5 -57t-14.5 -56q-32 -139 -69 -272.5t-76 -267.5q-8 -27 -17 -52.5t-21.5 -47t-30.5 -37.5t-43 -25
q-34 -12 -56 -2t-36 32.5t-21 52t-10 56.5q-7 62 -6 131t6 131q10 130 27 248t33 239q-26 -2 -54 -7.5t-57 -7.5q-17 -59 -35 -119t-37.5 -118.5t-41.5 -115t-48 -108.5q-13 -26 -27 -50t-33 -46q-17 -20 -40.5 -39t-55.5 -18q-23 1 -42.5 11t-34 27t-23 39.5t-10.5 46.5
q-1 17 -0.5 35.5t8.5 33.5q14 -5 25.5 -16t16.5 -26q4 -12 5 -25l2 -26t4.5 -23.5t12.5 -17.5q37 13 61.5 42t44.5 61q61 96 101 212t75 237q-27 3 -56.5 3.5t-57 4t-50 12.5t-33.5 27q-3 6 -6 15t-4.5 19.5t-1 21t3.5 19.5q7 -3 10.5 -9t7 -12.5t7.5 -13t12 -10.5
q16 -8 39 -12t48.5 -5.5t51 -2t46.5 -1.5q16 45 30.5 93t31 96t36 93.5t43.5 84.5q6 10 18 24.5t23 15.5q10 0 24.5 -2.5t28 -7t24.5 -10t15 -11.5q7 -8 10 -21t4 -24q3 -38 -3 -75t-12 -75q-5 -38 -10 -75t-10 -71zM395 789q-35 -77 -62.5 -161.5t-53.5 -172.5
q28 2 54.5 5.5t50.5 9.5q11 77 27.5 154.5t22.5 155.5q1 5 1.5 11t-4.5 9q-9 -2 -17.5 -5.5t-18.5 -5.5zM293 939q2 2 6 0.5t6 0.5q23 11 47.5 22.5t50.5 23.5q26 11 51 23.5t52 17.5q8 2 18 -5.5t9 -15.5q0 -5 -5.5 -9.5t-12.5 -8.5t-14.5 -7.5t-12.5 -6.5
q-27 -15 -49.5 -27t-51.5 -26q-11 -5 -27 -13.5t-30 -6.5t-23 14.5t-14 23.5z" />
    <glyph glyph-name="Acircumflex" unicode="&#xc2;" horiz-adv-x="644" 
d="M461 486q88 20 183 38.5t198 29.5q36 4 78.5 6t82 -1.5t71.5 -15.5t47 -36q5 -9 7.5 -20.5t1 -23t-6.5 -21.5t-15 -16q-4 14 -6 27.5t-10 22.5q-9 11 -26.5 18t-39 10.5t-45 4.5t-43.5 1q-69 0 -131.5 -9.5t-121.5 -22t-116 -26.5t-114 -23q-11 -89 -23 -179.5t-22 -184
t-16.5 -190t-6.5 -198.5q0 -28 2 -54.5t14 -46.5q12 4 19 14t14 19q24 34 43.5 74t35.5 83.5t30 88t28 88.5q29 88 59 176.5t59 176.5q4 11 8 24t15 20q2 -29 -5.5 -57t-14.5 -56q-32 -139 -69 -272.5t-76 -267.5q-8 -27 -17 -52.5t-21.5 -47t-30.5 -37.5t-43 -25
q-34 -12 -56 -2t-36 32.5t-21 52t-10 56.5q-7 62 -6 131t6 131q10 130 27 248t33 239q-26 -2 -54 -7.5t-57 -7.5q-17 -59 -35 -119t-37.5 -118.5t-41.5 -115t-48 -108.5q-13 -26 -27 -50t-33 -46q-17 -20 -40.5 -39t-55.5 -18q-23 1 -42.5 11t-34 27t-23 39.5t-10.5 46.5
q-1 17 -0.5 35.5t8.5 33.5q14 -5 25.5 -16t16.5 -26q4 -12 5 -25l2 -26t4.5 -23.5t12.5 -17.5q37 13 61.5 42t44.5 61q61 96 101 212t75 237q-27 3 -56.5 3.5t-57 4t-50 12.5t-33.5 27q-3 6 -6 15t-4.5 19.5t-1 21t3.5 19.5q7 -3 10.5 -9t7 -12.5t7.5 -13t12 -10.5
q16 -8 39 -12t48.5 -5.5t51 -2t46.5 -1.5q16 45 30.5 93t31 96t36 93.5t43.5 84.5q6 10 18 24.5t23 15.5q10 0 24.5 -2.5t28 -7t24.5 -10t15 -11.5q7 -8 10 -21t4 -24q3 -38 -3 -75t-12 -75q-5 -38 -10 -75t-10 -71zM395 789q-35 -77 -62.5 -161.5t-53.5 -172.5
q28 2 54.5 5.5t50.5 9.5q11 77 27.5 154.5t22.5 155.5q1 5 1.5 11t-4.5 9q-9 -2 -17.5 -5.5t-18.5 -5.5zM587 901q-12 -3 -22.5 3t-18.5 11q-26 16 -51 33t-51 34q-18 -14 -39 -31t-42 -33q-6 -5 -14.5 -11.5t-15.5 -6.5q-11 -1 -19 8t-10 21q4 6 15 6q18 16 39 34.5
t41 35.5q7 5 15 14.5t14 11.5q12 3 21 0t16.5 -8t14 -11.5t12.5 -10.5q31 -24 66 -48q6 -5 13.5 -10t13 -11t7 -14t-4.5 -17z" />
    <glyph glyph-name="Atilde" unicode="&#xc3;" horiz-adv-x="644" 
d="M461 486q88 20 183 38.5t198 29.5q36 4 78.5 6t82 -1.5t71.5 -15.5t47 -36q5 -9 7.5 -20.5t1 -23t-6.5 -21.5t-15 -16q-4 14 -6 27.5t-10 22.5q-9 11 -26.5 18t-39 10.5t-45 4.5t-43.5 1q-69 0 -131.5 -9.5t-121.5 -22t-116 -26.5t-114 -23q-11 -89 -23 -179.5t-22 -184
t-16.5 -190t-6.5 -198.5q0 -28 2 -54.5t14 -46.5q12 4 19 14t14 19q24 34 43.5 74t35.5 83.5t30 88t28 88.5q29 88 59 176.5t59 176.5q4 11 8 24t15 20q2 -29 -5.5 -57t-14.5 -56q-32 -139 -69 -272.5t-76 -267.5q-8 -27 -17 -52.5t-21.5 -47t-30.5 -37.5t-43 -25
q-34 -12 -56 -2t-36 32.5t-21 52t-10 56.5q-7 62 -6 131t6 131q10 130 27 248t33 239q-26 -2 -54 -7.5t-57 -7.5q-17 -59 -35 -119t-37.5 -118.5t-41.5 -115t-48 -108.5q-13 -26 -27 -50t-33 -46q-17 -20 -40.5 -39t-55.5 -18q-23 1 -42.5 11t-34 27t-23 39.5t-10.5 46.5
q-1 17 -0.5 35.5t8.5 33.5q14 -5 25.5 -16t16.5 -26q4 -12 5 -25l2 -26t4.5 -23.5t12.5 -17.5q37 13 61.5 42t44.5 61q61 96 101 212t75 237q-27 3 -56.5 3.5t-57 4t-50 12.5t-33.5 27q-3 6 -6 15t-4.5 19.5t-1 21t3.5 19.5q7 -3 10.5 -9t7 -12.5t7.5 -13t12 -10.5
q16 -8 39 -12t48.5 -5.5t51 -2t46.5 -1.5q16 45 30.5 93t31 96t36 93.5t43.5 84.5q6 10 18 24.5t23 15.5q10 0 24.5 -2.5t28 -7t24.5 -10t15 -11.5q7 -8 10 -21t4 -24q3 -38 -3 -75t-12 -75q-5 -38 -10 -75t-10 -71zM395 789q-35 -77 -62.5 -161.5t-53.5 -172.5
q28 2 54.5 5.5t50.5 9.5q11 77 27.5 154.5t22.5 155.5q1 5 1.5 11t-4.5 9q-9 -2 -17.5 -5.5t-18.5 -5.5zM348 937q5 -12 0.5 -20.5t-16.5 -7.5q-7 0 -12.5 6.5t-8 15.5t-2.5 18.5t4 16.5q7 14 26.5 21.5t41.5 5.5q16 -1 33 -6.5t36 -8.5q29 -5 59 -7t51 11q-3 11 -12 14.5
t-15 9.5q5 18 33 16q9 -4 17 -15t12 -24.5t2 -26.5t-13 -20q-9 -6 -25 -8.5t-34 -2.5t-35.5 2t-28.5 5q-14 4 -29.5 8.5t-30.5 6.5t-29 0t-24 -10z" />
    <glyph glyph-name="Adieresis" unicode="&#xc4;" horiz-adv-x="644" 
d="M461 486q88 20 183 38.5t198 29.5q36 4 78.5 6t82 -1.5t71.5 -15.5t47 -36q5 -9 7.5 -20.5t1 -23t-6.5 -21.5t-15 -16q-4 14 -6 27.5t-10 22.5q-9 11 -26.5 18t-39 10.5t-45 4.5t-43.5 1q-69 0 -131.5 -9.5t-121.5 -22t-116 -26.5t-114 -23q-11 -89 -23 -179.5t-22 -184
t-16.5 -190t-6.5 -198.5q0 -28 2 -54.5t14 -46.5q12 4 19 14t14 19q24 34 43.5 74t35.5 83.5t30 88t28 88.5q29 88 59 176.5t59 176.5q4 11 8 24t15 20q2 -29 -5.5 -57t-14.5 -56q-32 -139 -69 -272.5t-76 -267.5q-8 -27 -17 -52.5t-21.5 -47t-30.5 -37.5t-43 -25
q-34 -12 -56 -2t-36 32.5t-21 52t-10 56.5q-7 62 -6 131t6 131q10 130 27 248t33 239q-26 -2 -54 -7.5t-57 -7.5q-17 -59 -35 -119t-37.5 -118.5t-41.5 -115t-48 -108.5q-13 -26 -27 -50t-33 -46q-17 -20 -40.5 -39t-55.5 -18q-23 1 -42.5 11t-34 27t-23 39.5t-10.5 46.5
q-1 17 -0.5 35.5t8.5 33.5q14 -5 25.5 -16t16.5 -26q4 -12 5 -25l2 -26t4.5 -23.5t12.5 -17.5q37 13 61.5 42t44.5 61q61 96 101 212t75 237q-27 3 -56.5 3.5t-57 4t-50 12.5t-33.5 27q-3 6 -6 15t-4.5 19.5t-1 21t3.5 19.5q7 -3 10.5 -9t7 -12.5t7.5 -13t12 -10.5
q16 -8 39 -12t48.5 -5.5t51 -2t46.5 -1.5q16 45 30.5 93t31 96t36 93.5t43.5 84.5q6 10 18 24.5t23 15.5q10 0 24.5 -2.5t28 -7t24.5 -10t15 -11.5q7 -8 10 -21t4 -24q3 -38 -3 -75t-12 -75q-5 -38 -10 -75t-10 -71zM395 789q-35 -77 -62.5 -161.5t-53.5 -172.5
q28 2 54.5 5.5t50.5 9.5q11 77 27.5 154.5t22.5 155.5q1 5 1.5 11t-4.5 9q-9 -2 -17.5 -5.5t-18.5 -5.5zM522 980q13 2 21.5 -4t10.5 -17q2 -10 -3 -18.5t-14 -14t-20 -7t-20 2.5l-5.5 5.5t-4.5 6.5q-4 18 8.5 31t26.5 15zM367 975q12 2 21.5 -11t8.5 -25q0 -11 -8.5 -18.5
t-18.5 -9.5t-19.5 2t-11.5 16q-2 15 7.5 29.5t20.5 16.5z" />
    <glyph glyph-name="Aring" unicode="&#xc5;" horiz-adv-x="644" 
d="M461 486q88 20 183 38.5t198 29.5q36 4 78.5 6t82 -1.5t71.5 -15.5t47 -36q5 -9 7.5 -20.5t1 -23t-6.5 -21.5t-15 -16q-4 14 -6 27.5t-10 22.5q-9 11 -26.5 18t-39 10.5t-45 4.5t-43.5 1q-69 0 -131.5 -9.5t-121.5 -22t-116 -26.5t-114 -23q-11 -89 -23 -179.5t-22 -184
t-16.5 -190t-6.5 -198.5q0 -28 2 -54.5t14 -46.5q12 4 19 14t14 19q24 34 43.5 74t35.5 83.5t30 88t28 88.5q29 88 59 176.5t59 176.5q4 11 8 24t15 20q2 -29 -5.5 -57t-14.5 -56q-32 -139 -69 -272.5t-76 -267.5q-8 -27 -17 -52.5t-21.5 -47t-30.5 -37.5t-43 -25
q-34 -12 -56 -2t-36 32.5t-21 52t-10 56.5q-7 62 -6 131t6 131q10 130 27 248t33 239q-26 -2 -54 -7.5t-57 -7.5q-17 -59 -35 -119t-37.5 -118.5t-41.5 -115t-48 -108.5q-13 -26 -27 -50t-33 -46q-17 -20 -40.5 -39t-55.5 -18q-23 1 -42.5 11t-34 27t-23 39.5t-10.5 46.5
q-1 17 -0.5 35.5t8.5 33.5q14 -5 25.5 -16t16.5 -26q4 -12 5 -25l2 -26t4.5 -23.5t12.5 -17.5q37 13 61.5 42t44.5 61q61 96 101 212t75 237q-27 3 -56.5 3.5t-57 4t-50 12.5t-33.5 27q-3 6 -6 15t-4.5 19.5t-1 21t3.5 19.5q7 -3 10.5 -9t7 -12.5t7.5 -13t12 -10.5
q16 -8 39 -12t48.5 -5.5t51 -2t46.5 -1.5q16 45 30.5 93t31 96t36 93.5t43.5 84.5q6 10 18 24.5t23 15.5q10 0 24.5 -2.5t28 -7t24.5 -10t15 -11.5q7 -8 10 -21t4 -24q3 -38 -3 -75t-12 -75q-5 -38 -10 -75t-10 -71zM395 789q-35 -77 -62.5 -161.5t-53.5 -172.5
q28 2 54.5 5.5t50.5 9.5q11 77 27.5 154.5t22.5 155.5q1 5 1.5 11t-4.5 9q-9 -2 -17.5 -5.5t-18.5 -5.5zM460 1022q2 -2 0.5 -4.5t-0.5 -6.5h6t5 -2q14 -5 22.5 -17t11 -27.5t-1.5 -32t-15 -29.5q-11 -12 -29.5 -21t-35.5 -5q-25 6 -37.5 31.5t-10.5 52.5q0 10 4 22t10 22.5
t14 17.5t17 9q12 2 20.5 -3t19.5 -7zM446 1000q-8 -6 -15.5 -14.5t-12.5 -18.5t-6.5 -22.5t3.5 -25.5q18 -3 31.5 7.5t19.5 25t2 29t-22 19.5z" />
    <glyph glyph-name="AE" unicode="&#xc6;" horiz-adv-x="943" 
d="M455 -243q15 39 27.5 81.5t30.5 79.5q7 -5 10 -14t3 -19.5t-1.5 -22t-2.5 -20.5q-3 -20 -6 -41t-5 -38q28 6 51 18.5t43 29.5t37 36.5t33 39.5q88 110 161 234.5t146 250.5q3 5 6.5 10.5t7.5 11.5q2 5 5 11t11 6q-16 -59 -40 -112.5t-48 -106.5q-25 -53 -51 -103.5
t-54 -98.5t-59.5 -93.5t-68.5 -85.5q-19 -20 -39 -39t-43.5 -34t-51 -26t-60.5 -14q-12 -38 -23 -76.5t-33 -68.5q-9 -12 -24 -25t-33 -21.5t-38 -9.5t-39 11q-18 11 -29.5 31.5t-18 46.5t-9 55.5t-3.5 59.5q-3 64 0 125t8 118q9 120 26 229.5t31 218.5q-27 -5 -54 -9
t-56 -7q-20 -63 -39.5 -128t-41 -129.5t-46.5 -125.5t-56 -115q-10 -17 -21.5 -35t-25.5 -33.5t-30.5 -28t-35.5 -17.5q-9 -3 -20 -3q-24 0 -44 10.5t-35 28t-24 40.5t-10 48q-2 17 -1 34t9 33q14 -5 25.5 -16t16.5 -26q4 -12 4.5 -25t2 -26t5 -23.5t12.5 -17.5q36 13 61 42
t45 61q60 96 100.5 212t75.5 237q-27 3 -57 3.5t-57.5 4t-49.5 12.5t-33 27q-4 6 -7 15t-4.5 19.5t-0.5 21t4 19.5q6 -3 9.5 -8.5t6.5 -12t7 -12.5t10 -10q14 -10 39 -13.5t48 -5.5q25 -3 51 -3.5t50 -0.5q28 82 54.5 165t64.5 158q5 11 11.5 23.5t14.5 24.5q6 10 16 22
t21 14q12 2 24 -2.5t22 -6.5q14 -4 27 -8.5t21 -15.5q10 -15 12.5 -36t1 -44t-5.5 -46t-7 -42q-8 -48 -13 -89.5t-10 -81.5q28 5 58 12.5t60 13.5q-23 27 -40 59t-17 81q0 46 19 83t51 64t74.5 42.5t89.5 20.5q55 5 110 -15q9 -4 20.5 -9.5t22 -12.5t18 -15.5t8.5 -17.5
q2 -17 -7.5 -25.5t-20.5 -15.5q-23 8 -50 14.5t-56 9.5t-58 1.5t-55 -9.5q-37 -11 -62 -33.5t-42 -54.5q-6 -11 -12 -23.5t-5 -23.5q0 -16 10 -29t24 -23t30 -17t30 -11q35 -11 72 -18t63 -21q4 -2 9.5 -6t10 -9.5t8 -11.5t2.5 -12q-1 -4 -5.5 -8t-10.5 -7.5t-12.5 -7
t-10.5 -6.5q-69 -48 -125.5 -111t-105.5 -129q-22 -30 -43 -60t-39 -62t-32.5 -68t-23.5 -77q-3 -13 -5.5 -28.5t-2.5 -31.5t2 -31t8 -27q11 -23 36.5 -31t60.5 -10zM333 767q-36 -78 -63.5 -162t-52.5 -172q27 2 54 5.5t51 9.5q10 77 26.5 154t23.5 156q0 4 1 10.5t-4 9.5
q-10 -2 -18.5 -5.5t-17.5 -5.5zM393 407q-11 -66 -19.5 -136t-14.5 -138q19 45 45 84.5t55 76t60 70.5t62 67q4 5 8.5 9.5t4.5 8.5q-51 -11 -100.5 -21t-100.5 -21zM327 -252q0 1 -1 1t0 -2q-1 -25 -1.5 -52.5t0.5 -53.5q0 -26 2.5 -50t15.5 -38q32 28 52 66.5t40 79.5
q-36 4 -62 16.5t-46 32.5z" />
    <glyph glyph-name="Ccedilla" unicode="&#xc7;" horiz-adv-x="492" 
d="M564 320q7 -14 4 -29t-8 -29q-11 -38 -28 -74t-34 -71q-22 -47 -44.5 -91.5t-48.5 -92.5q-21 -40 -46.5 -86.5t-53.5 -90.5q-12 -20 -26.5 -41t-30.5 -40q-15 -18 -36 -34t-47 -21q-20 -3 -35.5 3t-29.5 14q-19 11 -35.5 20.5t-27.5 25.5q-14 23 -21.5 57.5t-10 74
t-2 81.5t2.5 80q9 163 30 297q17 108 41.5 205t68.5 177q9 15 19.5 32t23.5 31t29.5 23.5t36.5 11.5t40 -1.5t38 -10t34 -15t28 -16.5t25 -19t23 -24q5 -6 10 -13t7.5 -15.5t1.5 -17t-9 -15.5q-20 -3 -33.5 7t-24.5 19q-8 7 -18.5 17t-22.5 17.5t-26.5 10t-30.5 -3.5
q-12 -4 -21 -13t-17 -21t-15 -25.5t-13 -25.5q-38 -75 -60.5 -164.5t-39.5 -186.5q-16 -95 -25 -198t-9 -219q0 -14 0.5 -35.5t2.5 -42t7.5 -36.5t16.5 -19t21.5 0.5t18.5 8.5q38 22 67 61t54 75q66 96 122.5 199.5t107.5 211.5q8 17 16 32.5t17 30.5q3 5 6.5 10.5t9.5 3.5z
M194 -431q8 -22 3.5 -48t-14.5 -40q32 -1 55 -8t36 -25q11 -16 15.5 -35.5t3.5 -39.5t-6.5 -40t-13.5 -37q-16 -33 -44 -57.5t-63 -28.5t-55.5 10.5t-34.5 35.5q0 26 10.5 44t21.5 35q3 5 6 11.5t11 5.5q1 -12 -3 -22t-8 -19t-6 -19t2 -22q3 -11 14 -14t24 -2t25.5 6
t19.5 11q14 11 27 34.5t19 46.5q4 16 3 35.5t-6 34.5q-2 7 -7.5 15.5t-13.5 10.5q-9 1 -16 -1.5t-13.5 -6.5t-12.5 -8t-12 -5q-13 -2 -24.5 5.5t-15.5 12.5q-9 12 -6 27.5t9 31.5t11.5 31t1.5 27q3 5 9.5 7t15 2t17 -1t15.5 -1z" />
    <glyph glyph-name="Egrave" unicode="&#xc8;" horiz-adv-x="531" 
d="M623 345q-5 -32 -17.5 -60t-24.5 -56q-35 -83 -74 -162t-84 -154q-29 -49 -61.5 -94.5t-72.5 -87.5q-18 -20 -40 -38.5t-48 -32.5t-57 -22t-68 -7q-76 2 -121.5 35.5t-56.5 102.5q-6 35 -3 69.5t11 67t19.5 62.5t23.5 56q25 54 53.5 104.5t62.5 95.5q35 45 74 84t74 81
q-38 7 -68.5 28.5t-49 52t-23.5 69t8 80.5q12 40 46 75t80 56t100.5 25.5t108.5 -16.5q9 -3 20.5 -8.5t22 -12.5t18 -15t8.5 -17q3 -17 -6.5 -26.5t-21.5 -16.5q-22 8 -49 14.5t-56 9.5t-58.5 1.5t-55.5 -9.5q-37 -11 -61.5 -33.5t-42.5 -54.5q-11 -22 -14.5 -42.5
t13.5 -40.5q20 -23 53.5 -35.5t68.5 -19.5q17 -3 34.5 -4.5t31.5 -7.5l16 -8t19 -12.5t15 -16t5 -17.5t-15.5 -16t-23.5 -13q-29 -20 -56.5 -45.5t-50.5 -50.5q-33 -36 -64.5 -72t-60 -73.5t-54.5 -78.5t-48 -89q-10 -22 -19 -46t-16 -54q-5 -27 -7 -61.5t11 -58.5
q7 -14 21 -22t31 -12t37 -4t40 2q38 5 67 19.5t49 32.5q45 40 81.5 88.5t68.5 97.5q60 89 114.5 180.5t108.5 185.5l15 27q4 5 7.5 12t11.5 9zM491 868q-3 -11 -12.5 -24.5t-21.5 -15.5q-14 -3 -31.5 4t-28.5 12q-29 11 -52 21.5t-52 24.5q-5 2 -13 5t-15.5 7t-13 8t-5.5 8
q-1 7 6 14t14 9q12 2 28.5 -3.5t29.5 -9.5q27 -9 52 -19t51 -20q17 -7 32.5 -13t31.5 -8z" />
    <glyph glyph-name="Eacute" unicode="&#xc9;" horiz-adv-x="531" 
d="M623 345q-5 -32 -17.5 -60t-24.5 -56q-35 -83 -74 -162t-84 -154q-29 -49 -61.5 -94.5t-72.5 -87.5q-18 -20 -40 -38.5t-48 -32.5t-57 -22t-68 -7q-76 2 -121.5 35.5t-56.5 102.5q-6 35 -3 69.5t11 67t19.5 62.5t23.5 56q25 54 53.5 104.5t62.5 95.5q35 45 74 84t74 81
q-38 7 -68.5 28.5t-49 52t-23.5 69t8 80.5q12 40 46 75t80 56t100.5 25.5t108.5 -16.5q9 -3 20.5 -8.5t22 -12.5t18 -15t8.5 -17q3 -17 -6.5 -26.5t-21.5 -16.5q-22 8 -49 14.5t-56 9.5t-58.5 1.5t-55.5 -9.5q-37 -11 -61.5 -33.5t-42.5 -54.5q-11 -22 -14.5 -42.5
t13.5 -40.5q20 -23 53.5 -35.5t68.5 -19.5q17 -3 34.5 -4.5t31.5 -7.5l16 -8t19 -12.5t15 -16t5 -17.5t-15.5 -16t-23.5 -13q-29 -20 -56.5 -45.5t-50.5 -50.5q-33 -36 -64.5 -72t-60 -73.5t-54.5 -78.5t-48 -89q-10 -22 -19 -46t-16 -54q-5 -27 -7 -61.5t11 -58.5
q7 -14 21 -22t31 -12t37 -4t40 2q38 5 67 19.5t49 32.5q45 40 81.5 88.5t68.5 97.5q60 89 114.5 180.5t108.5 185.5l15 27q4 5 7.5 12t11.5 9zM106 858q2 2 6 0.5t6 0.5q23 11 47.5 22.5t50.5 23.5q25 11 50.5 23.5t52.5 17.5q8 2 18 -5.5t9 -15.5q-1 -5 -6.5 -9.5
t-12.5 -8.5t-14.5 -7.5t-11.5 -6.5q-28 -15 -50 -27t-51 -26q-11 -5 -27 -13.5t-30 -6.5t-23.5 14.5t-13.5 23.5z" />
    <glyph glyph-name="Ecircumflex" unicode="&#xca;" horiz-adv-x="531" 
d="M623 345q-5 -32 -17.5 -60t-24.5 -56q-35 -83 -74 -162t-84 -154q-29 -49 -61.5 -94.5t-72.5 -87.5q-18 -20 -40 -38.5t-48 -32.5t-57 -22t-68 -7q-76 2 -121.5 35.5t-56.5 102.5q-6 35 -3 69.5t11 67t19.5 62.5t23.5 56q25 54 53.5 104.5t62.5 95.5q35 45 74 84t74 81
q-38 7 -68.5 28.5t-49 52t-23.5 69t8 80.5q12 40 46 75t80 56t100.5 25.5t108.5 -16.5q9 -3 20.5 -8.5t22 -12.5t18 -15t8.5 -17q3 -17 -6.5 -26.5t-21.5 -16.5q-22 8 -49 14.5t-56 9.5t-58.5 1.5t-55.5 -9.5q-37 -11 -61.5 -33.5t-42.5 -54.5q-11 -22 -14.5 -42.5
t13.5 -40.5q20 -23 53.5 -35.5t68.5 -19.5q17 -3 34.5 -4.5t31.5 -7.5l16 -8t19 -12.5t15 -16t5 -17.5t-15.5 -16t-23.5 -13q-29 -20 -56.5 -45.5t-50.5 -50.5q-33 -36 -64.5 -72t-60 -73.5t-54.5 -78.5t-48 -89q-10 -22 -19 -46t-16 -54q-5 -27 -7 -61.5t11 -58.5
q7 -14 21 -22t31 -12t37 -4t40 2q38 5 67 19.5t49 32.5q45 40 81.5 88.5t68.5 97.5q60 89 114.5 180.5t108.5 185.5l15 27q4 5 7.5 12t11.5 9zM472 838q-12 -3 -22.5 3t-18.5 11q-26 16 -51 33t-51 34q-18 -14 -39 -31t-42 -33q-6 -5 -14.5 -11.5t-15.5 -6.5q-11 -1 -19 8
t-10 21q4 6 15 6q18 16 39 34.5t41 35.5q7 5 15 14.5t14 11.5q12 3 21 0t16.5 -8t14 -11.5t12.5 -10.5q31 -24 66 -48q6 -5 13.5 -10t13 -11t7 -14t-4.5 -17z" />
    <glyph glyph-name="Edieresis" unicode="&#xcb;" horiz-adv-x="531" 
d="M623 345q-5 -32 -17.5 -60t-24.5 -56q-35 -83 -74 -162t-84 -154q-29 -49 -61.5 -94.5t-72.5 -87.5q-18 -20 -40 -38.5t-48 -32.5t-57 -22t-68 -7q-76 2 -121.5 35.5t-56.5 102.5q-6 35 -3 69.5t11 67t19.5 62.5t23.5 56q25 54 53.5 104.5t62.5 95.5q35 45 74 84t74 81
q-38 7 -68.5 28.5t-49 52t-23.5 69t8 80.5q12 40 46 75t80 56t100.5 25.5t108.5 -16.5q9 -3 20.5 -8.5t22 -12.5t18 -15t8.5 -17q3 -17 -6.5 -26.5t-21.5 -16.5q-22 8 -49 14.5t-56 9.5t-58.5 1.5t-55.5 -9.5q-37 -11 -61.5 -33.5t-42.5 -54.5q-11 -22 -14.5 -42.5
t13.5 -40.5q20 -23 53.5 -35.5t68.5 -19.5q17 -3 34.5 -4.5t31.5 -7.5l16 -8t19 -12.5t15 -16t5 -17.5t-15.5 -16t-23.5 -13q-29 -20 -56.5 -45.5t-50.5 -50.5q-33 -36 -64.5 -72t-60 -73.5t-54.5 -78.5t-48 -89q-10 -22 -19 -46t-16 -54q-5 -27 -7 -61.5t11 -58.5
q7 -14 21 -22t31 -12t37 -4t40 2q38 5 67 19.5t49 32.5q45 40 81.5 88.5t68.5 97.5q60 89 114.5 180.5t108.5 185.5l15 27q4 5 7.5 12t11.5 9zM362 903q13 2 21.5 -4t10.5 -17q2 -10 -3 -18.5t-14 -14t-20 -7t-20 2.5l-5.5 5.5t-4.5 6.5q-4 18 8.5 31t26.5 15zM207 898
q12 2 21.5 -11t8.5 -25q0 -11 -8.5 -18.5t-18.5 -9.5t-19.5 2t-11.5 16q-2 15 7.5 29.5t20.5 16.5z" />
    <glyph glyph-name="Igrave" unicode="&#xcc;" horiz-adv-x="469" 
d="M280 -88q36 21 64.5 50t52.5 63.5t44 72.5t39 78q8 17 18.5 38t18.5 41q3 8 5 17t6 10q9 3 12 -8.5t3 -22.5q-1 -29 -13 -55.5t-22 -47.5q-21 -47 -45.5 -92t-54.5 -83.5t-68.5 -69t-88.5 -48.5q-19 -26 -35 -55.5t-34 -57.5t-40.5 -51.5t-53.5 -38.5q-22 -10 -47.5 -9.5
t-49.5 11.5q-41 19 -63 58.5t-32 90.5q-3 17 -5.5 38t-3 43t1 44t6.5 41q3 12 8 24t15 13q11 2 20.5 -7t15.5 -17q7 -8 15 -17t10 -18q3 -14 0 -30.5t-4 -33.5q-1 -24 -1.5 -49t1.5 -48.5t7.5 -43.5t17.5 -33q32 3 53 21.5t39 36.5q18 19 34.5 40.5t31.5 43.5
q-58 18 -89.5 68.5t-44 117.5t-11 143t10.5 145q17 135 61.5 253t111.5 204q11 12 22.5 23.5t25 21.5t30.5 16t38 6q33 0 55 -17t36 -43.5t22 -59t11 -62.5q8 -75 -1 -146.5t-18 -134.5q-20 -137 -53.5 -255.5t-84.5 -218.5zM278 765q-72 -71 -117 -166.5t-70 -210.5
q-8 -34 -14.5 -76t-10.5 -87t-4 -90t6.5 -85.5t21 -74.5t38.5 -55q4 -3 11 -8.5t14.5 -10t15 -7t13.5 -1.5q3 1 7 6.5t7.5 12.5l7 14t6.5 11q72 133 110 288.5t53 339.5q3 34 2.5 68.5t-5 65.5t-15 57.5t-28.5 45.5q-13 -4 -25.5 -15t-23.5 -22zM477 923q-3 -11 -12.5 -24.5
t-21.5 -15.5q-14 -3 -31.5 4t-28.5 12q-29 11 -52 21.5t-52 24.5q-5 2 -13 5t-15.5 7t-13 8t-5.5 8q-1 7 6 14t14 9q12 2 28.5 -3.5t29.5 -9.5q27 -9 52 -19t51 -20q17 -7 32.5 -13t31.5 -8z" />
    <glyph glyph-name="Iacute" unicode="&#xcd;" horiz-adv-x="469" 
d="M280 -88q36 21 64.5 50t52.5 63.5t44 72.5t39 78q8 17 18.5 38t18.5 41q3 8 5 17t6 10q9 3 12 -8.5t3 -22.5q-1 -29 -13 -55.5t-22 -47.5q-21 -47 -45.5 -92t-54.5 -83.5t-68.5 -69t-88.5 -48.5q-19 -26 -35 -55.5t-34 -57.5t-40.5 -51.5t-53.5 -38.5q-22 -10 -47.5 -9.5
t-49.5 11.5q-41 19 -63 58.5t-32 90.5q-3 17 -5.5 38t-3 43t1 44t6.5 41q3 12 8 24t15 13q11 2 20.5 -7t15.5 -17q7 -8 15 -17t10 -18q3 -14 0 -30.5t-4 -33.5q-1 -24 -1.5 -49t1.5 -48.5t7.5 -43.5t17.5 -33q32 3 53 21.5t39 36.5q18 19 34.5 40.5t31.5 43.5
q-58 18 -89.5 68.5t-44 117.5t-11 143t10.5 145q17 135 61.5 253t111.5 204q11 12 22.5 23.5t25 21.5t30.5 16t38 6q33 0 55 -17t36 -43.5t22 -59t11 -62.5q8 -75 -1 -146.5t-18 -134.5q-20 -137 -53.5 -255.5t-84.5 -218.5zM278 765q-72 -71 -117 -166.5t-70 -210.5
q-8 -34 -14.5 -76t-10.5 -87t-4 -90t6.5 -85.5t21 -74.5t38.5 -55q4 -3 11 -8.5t14.5 -10t15 -7t13.5 -1.5q3 1 7 6.5t7.5 12.5l7 14t6.5 11q72 133 110 288.5t53 339.5q3 34 2.5 68.5t-5 65.5t-15 57.5t-28.5 45.5q-13 -4 -25.5 -15t-23.5 -22zM121 904q2 2 6 0.5t6 0.5
q23 11 47.5 22.5t50.5 23.5q25 11 50.5 23.5t52.5 17.5q8 2 18 -5.5t9 -15.5q-1 -5 -6.5 -9.5t-12.5 -8.5t-14.5 -7.5t-11.5 -6.5q-28 -15 -50 -27t-51 -26q-11 -5 -27 -13.5t-30 -6.5t-23.5 14.5t-13.5 23.5z" />
    <glyph glyph-name="Icircumflex" unicode="&#xce;" horiz-adv-x="469" 
d="M280 -88q36 21 64.5 50t52.5 63.5t44 72.5t39 78q8 17 18.5 38t18.5 41q3 8 5 17t6 10q9 3 12 -8.5t3 -22.5q-1 -29 -13 -55.5t-22 -47.5q-21 -47 -45.5 -92t-54.5 -83.5t-68.5 -69t-88.5 -48.5q-19 -26 -35 -55.5t-34 -57.5t-40.5 -51.5t-53.5 -38.5q-22 -10 -47.5 -9.5
t-49.5 11.5q-41 19 -63 58.5t-32 90.5q-3 17 -5.5 38t-3 43t1 44t6.5 41q3 12 8 24t15 13q11 2 20.5 -7t15.5 -17q7 -8 15 -17t10 -18q3 -14 0 -30.5t-4 -33.5q-1 -24 -1.5 -49t1.5 -48.5t7.5 -43.5t17.5 -33q32 3 53 21.5t39 36.5q18 19 34.5 40.5t31.5 43.5
q-58 18 -89.5 68.5t-44 117.5t-11 143t10.5 145q17 135 61.5 253t111.5 204q11 12 22.5 23.5t25 21.5t30.5 16t38 6q33 0 55 -17t36 -43.5t22 -59t11 -62.5q8 -75 -1 -146.5t-18 -134.5q-20 -137 -53.5 -255.5t-84.5 -218.5zM278 765q-72 -71 -117 -166.5t-70 -210.5
q-8 -34 -14.5 -76t-10.5 -87t-4 -90t6.5 -85.5t21 -74.5t38.5 -55q4 -3 11 -8.5t14.5 -10t15 -7t13.5 -1.5q3 1 7 6.5t7.5 12.5l7 14t6.5 11q72 133 110 288.5t53 339.5q3 34 2.5 68.5t-5 65.5t-15 57.5t-28.5 45.5q-13 -4 -25.5 -15t-23.5 -22zM431 873q-12 -3 -22.5 3
t-18.5 11q-26 16 -51 33t-51 34q-18 -14 -39 -31t-42 -33q-6 -5 -14.5 -11.5t-15.5 -6.5q-11 -1 -19 8t-10 21q4 6 15 6q18 16 39 34.5t41 35.5q7 5 15 14.5t14 11.5q12 3 21 0t16.5 -8t14 -11.5t12.5 -10.5q31 -24 66 -48q6 -5 13.5 -10t13 -11t7 -14t-4.5 -17z" />
    <glyph glyph-name="Idieresis" unicode="&#xcf;" horiz-adv-x="469" 
d="M280 -88q36 21 64.5 50t52.5 63.5t44 72.5t39 78q8 17 18.5 38t18.5 41q3 8 5 17t6 10q9 3 12 -8.5t3 -22.5q-1 -29 -13 -55.5t-22 -47.5q-21 -47 -45.5 -92t-54.5 -83.5t-68.5 -69t-88.5 -48.5q-19 -26 -35 -55.5t-34 -57.5t-40.5 -51.5t-53.5 -38.5q-22 -10 -47.5 -9.5
t-49.5 11.5q-41 19 -63 58.5t-32 90.5q-3 17 -5.5 38t-3 43t1 44t6.5 41q3 12 8 24t15 13q11 2 20.5 -7t15.5 -17q7 -8 15 -17t10 -18q3 -14 0 -30.5t-4 -33.5q-1 -24 -1.5 -49t1.5 -48.5t7.5 -43.5t17.5 -33q32 3 53 21.5t39 36.5q18 19 34.5 40.5t31.5 43.5
q-58 18 -89.5 68.5t-44 117.5t-11 143t10.5 145q17 135 61.5 253t111.5 204q11 12 22.5 23.5t25 21.5t30.5 16t38 6q33 0 55 -17t36 -43.5t22 -59t11 -62.5q8 -75 -1 -146.5t-18 -134.5q-20 -137 -53.5 -255.5t-84.5 -218.5zM278 765q-72 -71 -117 -166.5t-70 -210.5
q-8 -34 -14.5 -76t-10.5 -87t-4 -90t6.5 -85.5t21 -74.5t38.5 -55q4 -3 11 -8.5t14.5 -10t15 -7t13.5 -1.5q3 1 7 6.5t7.5 12.5l7 14t6.5 11q72 133 110 288.5t53 339.5q3 34 2.5 68.5t-5 65.5t-15 57.5t-28.5 45.5q-13 -4 -25.5 -15t-23.5 -22zM366 960q13 2 21.5 -4
t10.5 -17q2 -10 -3 -18.5t-14 -14t-20 -7t-20 2.5l-5.5 5.5t-4.5 6.5q-4 18 8.5 31t26.5 15zM211 955q12 2 21.5 -11t8.5 -25q0 -11 -8.5 -18.5t-18.5 -9.5t-19.5 2t-11.5 16q-2 15 7.5 29.5t20.5 16.5z" />
    <glyph glyph-name="Eth" unicode="&#xd0;" horiz-adv-x="729" 
d="M669 364q0 -175 -96 -269.5t-278 -94.5h-191v314h-74v78h74v322h213q167 0 259.5 -92t92.5 -258zM574 361q0 137 -68 206.5t-202 69.5h-110v-245h178v-78h-178v-237h90q290 0 290 284z" />
    <glyph glyph-name="Ntilde" unicode="&#xd1;" horiz-adv-x="727" 
d="M231 724q2 -5 4 -10.5t0 -11.5q-5 -4 -11.5 -5t-13.5 -1q-5 8 -10.5 14.5t-7.5 16.5q-1 8 1 15t2 12q11 9 24.5 14.5t30.5 9.5q25 1 49.5 -4t48.5 -10t48 -5.5t48 9.5q0 8 -6 9.5t-8 7.5q-7 -1 -8.5 1t-6.5 4q3 11 14 16t22 7q9 -7 16.5 -18t11.5 -23.5t3 -25t-8 -22.5
q-5 -2 -9.5 -3.5t-7.5 -4.5q-23 -1 -43.5 -5t-43.5 1q-2 0 -4 1.5t-4 2.5q-2 0 -3 -1t-2 0q-2 0 -4 1.5t-4 2.5q-4 1 -7 0.5t-6 0.5t-5.5 2.5t-4.5 2.5q-17 5 -34.5 5t-34.5 6q-6 -4 -13.5 -6t-12.5 -6zM94 17q29 106 62 207t81 191q23 43 49.5 84.5t62.5 73.5
q16 14 37 29.5t44 24.5q36 15 68 4t47 -39q12 -21 16 -50t3.5 -60.5t-5 -63t-9.5 -58.5q-31 -170 -58.5 -344.5t-31.5 -361.5q12 4 18.5 14.5t12.5 19.5q22 36 39.5 76.5t33 83t30 86t31.5 84.5q32 83 69 162t81 152q5 10 11 21t19 13q4 -12 -1.5 -23t-10.5 -22
q-57 -115 -99.5 -243t-84.5 -261q-16 -47 -35 -90q-10 -22 -20 -43.5t-23 -38.5q-7 -9 -20 -20t-29.5 -18.5t-34.5 -9t-34 7.5q-11 6 -16.5 18.5t-8.5 28.5t-3.5 34.5t-0.5 36.5q1 36 5 69.5t8 63.5q16 134 35 256.5t47 247.5q9 42 21.5 87.5t11.5 99.5q-1 21 -6 35t-16 16
t-25.5 -7t-23.5 -17q-35 -28 -63 -64t-50.5 -77t-41.5 -85.5t-36 -89.5q-35 -91 -66 -186.5t-48 -207.5q-3 -17 -5 -33.5t-10 -23.5q-12 -9 -31 -5t-33 5q-20 42 -26.5 94t-11.5 106q-11 141 -4.5 286t29.5 272q5 25 9.5 49t17.5 43q7 3 18.5 3.5t23 -1.5t20.5 -7.5
t11 -14.5q1 -5 0.5 -15t-2.5 -21t-4.5 -21.5t-3.5 -16.5q-11 -59 -20.5 -127t-16 -138.5t-8 -142t4.5 -138.5z" />
    <glyph glyph-name="Ograve" unicode="&#xd2;" horiz-adv-x="727" 
d="M506 827q66 0 108 -35t63.5 -91.5t26 -128t-2.5 -144.5q-8 -69 -22.5 -130.5t-34.5 -117t-43 -106.5t-47 -101q-24 -51 -51.5 -98.5t-59.5 -91.5q-32 -45 -68 -84t-84 -65q-26 -14 -59 -19t-62 9q-36 16 -55.5 49.5t-27 76t-6 90.5t8.5 95q1 7 3.5 18t1.5 14
q-2 5 -11.5 8.5t-11.5 5.5q-33 22 -48.5 61.5t-18.5 87t4.5 98t20.5 94.5q19 64 47 120.5t57 101.5q32 51 68.5 94t81.5 83q20 18 44 36t50 33q26 14 58 25.5t70 11.5zM152 -264q2 -17 8 -37t20 -23q9 -2 18.5 1.5t19.5 8.5t18 11.5t14 10.5q46 34 83.5 75t70.5 84
q45 59 82.5 128.5t69.5 137.5q32 69 60 148t39 171q6 46 5.5 97.5t-11 96.5t-32.5 77t-59 40q-40 8 -77.5 -4t-66.5 -26q-75 -37 -133.5 -95.5t-100.5 -127.5q-43 -69 -77 -151.5t-45 -183.5q-3 -24 -3 -49.5t4.5 -47.5t15 -38.5t28.5 -22.5q12 63 26 124t34 115
q7 19 15 36.5t14 34.5q3 9 5 21.5t10 14.5q6 1 16 -3t20 -10.5t17.5 -13.5t8.5 -11q2 -8 0 -18t-5 -20.5t-7 -20.5t-6 -17q-17 -54 -33.5 -109.5t-29.5 -111.5q64 24 111.5 65.5t77.5 98.5q4 8 8 17t12 14q8 -11 4.5 -24t-6.5 -24q-8 -26 -18 -43q-33 -58 -87.5 -96
t-114.5 -66q-5 -27 -10.5 -54.5t-10 -56.5t-6 -59.5t3.5 -63.5zM703 870q-3 -11 -12.5 -24.5t-21.5 -15.5q-14 -3 -31.5 4t-28.5 12q-29 11 -52 21.5t-52 24.5q-5 2 -13 5t-15.5 7t-13 8t-5.5 8q-1 7 6 14t14 9q12 2 28.5 -3.5t29.5 -9.5q27 -9 52 -19t51 -20
q17 -7 32.5 -13t31.5 -8z" />
    <glyph glyph-name="Oacute" unicode="&#xd3;" horiz-adv-x="727" 
d="M506 827q66 0 108 -35t63.5 -91.5t26 -128t-2.5 -144.5q-8 -69 -22.5 -130.5t-34.5 -117t-43 -106.5t-47 -101q-24 -51 -51.5 -98.5t-59.5 -91.5q-32 -45 -68 -84t-84 -65q-26 -14 -59 -19t-62 9q-36 16 -55.5 49.5t-27 76t-6 90.5t8.5 95q1 7 3.5 18t1.5 14
q-2 5 -11.5 8.5t-11.5 5.5q-33 22 -48.5 61.5t-18.5 87t4.5 98t20.5 94.5q19 64 47 120.5t57 101.5q32 51 68.5 94t81.5 83q20 18 44 36t50 33q26 14 58 25.5t70 11.5zM152 -264q2 -17 8 -37t20 -23q9 -2 18.5 1.5t19.5 8.5t18 11.5t14 10.5q46 34 83.5 75t70.5 84
q45 59 82.5 128.5t69.5 137.5q32 69 60 148t39 171q6 46 5.5 97.5t-11 96.5t-32.5 77t-59 40q-40 8 -77.5 -4t-66.5 -26q-75 -37 -133.5 -95.5t-100.5 -127.5q-43 -69 -77 -151.5t-45 -183.5q-3 -24 -3 -49.5t4.5 -47.5t15 -38.5t28.5 -22.5q12 63 26 124t34 115
q7 19 15 36.5t14 34.5q3 9 5 21.5t10 14.5q6 1 16 -3t20 -10.5t17.5 -13.5t8.5 -11q2 -8 0 -18t-5 -20.5t-7 -20.5t-6 -17q-17 -54 -33.5 -109.5t-29.5 -111.5q64 24 111.5 65.5t77.5 98.5q4 8 8 17t12 14q8 -11 4.5 -24t-6.5 -24q-8 -26 -18 -43q-33 -58 -87.5 -96
t-114.5 -66q-5 -27 -10.5 -54.5t-10 -56.5t-6 -59.5t3.5 -63.5zM275 871q2 2 6 0.5t6 0.5q23 11 47.5 22.5t50.5 23.5q25 11 50.5 23.5t52.5 17.5q8 2 18 -5.5t9 -15.5q-1 -5 -6.5 -9.5t-12.5 -8.5t-14.5 -7.5t-11.5 -6.5q-28 -15 -50 -27t-51 -26q-11 -5 -27 -13.5
t-30 -6.5t-23.5 14.5t-13.5 23.5z" />
    <glyph glyph-name="Ocircumflex" unicode="&#xd4;" horiz-adv-x="727" 
d="M506 827q66 0 108 -35t63.5 -91.5t26 -128t-2.5 -144.5q-8 -69 -22.5 -130.5t-34.5 -117t-43 -106.5t-47 -101q-24 -51 -51.5 -98.5t-59.5 -91.5q-32 -45 -68 -84t-84 -65q-26 -14 -59 -19t-62 9q-36 16 -55.5 49.5t-27 76t-6 90.5t8.5 95q1 7 3.5 18t1.5 14
q-2 5 -11.5 8.5t-11.5 5.5q-33 22 -48.5 61.5t-18.5 87t4.5 98t20.5 94.5q19 64 47 120.5t57 101.5q32 51 68.5 94t81.5 83q20 18 44 36t50 33q26 14 58 25.5t70 11.5zM152 -264q2 -17 8 -37t20 -23q9 -2 18.5 1.5t19.5 8.5t18 11.5t14 10.5q46 34 83.5 75t70.5 84
q45 59 82.5 128.5t69.5 137.5q32 69 60 148t39 171q6 46 5.5 97.5t-11 96.5t-32.5 77t-59 40q-40 8 -77.5 -4t-66.5 -26q-75 -37 -133.5 -95.5t-100.5 -127.5q-43 -69 -77 -151.5t-45 -183.5q-3 -24 -3 -49.5t4.5 -47.5t15 -38.5t28.5 -22.5q12 63 26 124t34 115
q7 19 15 36.5t14 34.5q3 9 5 21.5t10 14.5q6 1 16 -3t20 -10.5t17.5 -13.5t8.5 -11q2 -8 0 -18t-5 -20.5t-7 -20.5t-6 -17q-17 -54 -33.5 -109.5t-29.5 -111.5q64 24 111.5 65.5t77.5 98.5q4 8 8 17t12 14q8 -11 4.5 -24t-6.5 -24q-8 -26 -18 -43q-33 -58 -87.5 -96
t-114.5 -66q-5 -27 -10.5 -54.5t-10 -56.5t-6 -59.5t3.5 -63.5zM651 845q-12 -3 -22.5 3t-18.5 11q-26 16 -51 33t-51 34q-18 -14 -39 -31t-42 -33q-6 -5 -14.5 -11.5t-15.5 -6.5q-11 -1 -19 8t-10 21q4 6 15 6q18 16 39 34.5t41 35.5q7 5 15 14.5t14 11.5q12 3 21 0
t16.5 -8t14 -11.5t12.5 -10.5q31 -24 66 -48q6 -5 13.5 -10t13 -11t7 -14t-4.5 -17z" />
    <glyph glyph-name="Otilde" unicode="&#xd5;" horiz-adv-x="727" 
d="M506 827q66 0 108 -35t63.5 -91.5t26 -128t-2.5 -144.5q-8 -69 -22.5 -130.5t-34.5 -117t-43 -106.5t-47 -101q-24 -51 -51.5 -98.5t-59.5 -91.5q-32 -45 -68 -84t-84 -65q-26 -14 -59 -19t-62 9q-36 16 -55.5 49.5t-27 76t-6 90.5t8.5 95q1 7 3.5 18t1.5 14
q-2 5 -11.5 8.5t-11.5 5.5q-33 22 -48.5 61.5t-18.5 87t4.5 98t20.5 94.5q19 64 47 120.5t57 101.5q32 51 68.5 94t81.5 83q20 18 44 36t50 33q26 14 58 25.5t70 11.5zM152 -264q2 -17 8 -37t20 -23q9 -2 18.5 1.5t19.5 8.5t18 11.5t14 10.5q46 34 83.5 75t70.5 84
q45 59 82.5 128.5t69.5 137.5q32 69 60 148t39 171q6 46 5.5 97.5t-11 96.5t-32.5 77t-59 40q-40 8 -77.5 -4t-66.5 -26q-75 -37 -133.5 -95.5t-100.5 -127.5q-43 -69 -77 -151.5t-45 -183.5q-3 -24 -3 -49.5t4.5 -47.5t15 -38.5t28.5 -22.5q12 63 26 124t34 115
q7 19 15 36.5t14 34.5q3 9 5 21.5t10 14.5q6 1 16 -3t20 -10.5t17.5 -13.5t8.5 -11q2 -8 0 -18t-5 -20.5t-7 -20.5t-6 -17q-17 -54 -33.5 -109.5t-29.5 -111.5q64 24 111.5 65.5t77.5 98.5q4 8 8 17t12 14q8 -11 4.5 -24t-6.5 -24q-8 -26 -18 -43q-33 -58 -87.5 -96
t-114.5 -66q-5 -27 -10.5 -54.5t-10 -56.5t-6 -59.5t3.5 -63.5zM416 878q5 -12 0.5 -20.5t-16.5 -7.5q-7 0 -12.5 6.5t-8 15.5t-2.5 18.5t4 16.5q7 14 26.5 21.5t41.5 5.5q16 -1 33 -6.5t36 -8.5q29 -5 59 -7t51 11q-3 11 -12 14.5t-15 9.5q5 18 33 16q9 -4 17 -15t12 -24.5
t2 -26.5t-13 -20q-9 -6 -25 -8.5t-34 -2.5t-35.5 2t-28.5 5q-14 4 -29.5 8.5t-30.5 6.5t-29 0t-24 -10z" />
    <glyph glyph-name="Odieresis" unicode="&#xd6;" horiz-adv-x="727" 
d="M506 827q66 0 108 -35t63.5 -91.5t26 -128t-2.5 -144.5q-8 -69 -22.5 -130.5t-34.5 -117t-43 -106.5t-47 -101q-24 -51 -51.5 -98.5t-59.5 -91.5q-32 -45 -68 -84t-84 -65q-26 -14 -59 -19t-62 9q-36 16 -55.5 49.5t-27 76t-6 90.5t8.5 95q1 7 3.5 18t1.5 14
q-2 5 -11.5 8.5t-11.5 5.5q-33 22 -48.5 61.5t-18.5 87t4.5 98t20.5 94.5q19 64 47 120.5t57 101.5q32 51 68.5 94t81.5 83q20 18 44 36t50 33q26 14 58 25.5t70 11.5zM152 -264q2 -17 8 -37t20 -23q9 -2 18.5 1.5t19.5 8.5t18 11.5t14 10.5q46 34 83.5 75t70.5 84
q45 59 82.5 128.5t69.5 137.5q32 69 60 148t39 171q6 46 5.5 97.5t-11 96.5t-32.5 77t-59 40q-40 8 -77.5 -4t-66.5 -26q-75 -37 -133.5 -95.5t-100.5 -127.5q-43 -69 -77 -151.5t-45 -183.5q-3 -24 -3 -49.5t4.5 -47.5t15 -38.5t28.5 -22.5q12 63 26 124t34 115
q7 19 15 36.5t14 34.5q3 9 5 21.5t10 14.5q6 1 16 -3t20 -10.5t17.5 -13.5t8.5 -11q2 -8 0 -18t-5 -20.5t-7 -20.5t-6 -17q-17 -54 -33.5 -109.5t-29.5 -111.5q64 24 111.5 65.5t77.5 98.5q4 8 8 17t12 14q8 -11 4.5 -24t-6.5 -24q-8 -26 -18 -43q-33 -58 -87.5 -96
t-114.5 -66q-5 -27 -10.5 -54.5t-10 -56.5t-6 -59.5t3.5 -63.5zM569 943q13 2 21.5 -4t10.5 -17q2 -10 -3 -18.5t-14 -14t-20 -7t-20 2.5l-5.5 5.5t-4.5 6.5q-4 18 8.5 31t26.5 15zM414 938q12 2 21.5 -11t8.5 -25q0 -11 -8.5 -18.5t-18.5 -9.5t-19.5 2t-11.5 16
q-2 15 7.5 29.5t20.5 16.5z" />
    <glyph glyph-name="multiply" unicode="&#xd7;" horiz-adv-x="503" 
d="M299 325q18 -23 40 -48t43 -49q8 -9 17.5 -20t10.5 -23q0 -15 -13 -28t-30 -11q-10 1 -20 9t-16 16q-20 23 -41 49.5t-41 49.5q-20 -21 -38.5 -45t-40.5 -45q-6 -5 -16 -14t-18 -8q-9 0 -18.5 8.5t-16.5 14.5q-6 5 -16 14t-9 19q0 9 12 16t19 12q25 20 46 41.5t44 42.5
q-67 59 -114 133q5 8 12.5 13.5t17.5 11.5q8 5 18 11.5t20 4.5q8 -2 14.5 -12t11.5 -17q17 -24 36.5 -47t36.5 -43q23 23 46.5 47.5t46.5 49.5q8 8 14 17.5t14 17.5q1 1 2 1h2q7 2 15.5 -7.5t15.5 -16.5q8 -8 15 -16.5t5 -18.5q-2 -9 -13 -18t-18 -16q-24 -24 -50 -48.5
t-46 -47.5z" />
    <glyph glyph-name="Oslash" unicode="&#xd8;" horiz-adv-x="757" 
d="M671 798q22 -32 35 -74.5t17.5 -90.5t2.5 -98.5t-8 -98.5q-13 -96 -40 -176t-59 -153q-32 -74 -69 -144t-82 -133q-21 -30 -45.5 -59.5t-53.5 -55.5q-14 -12 -30 -24t-35 -20.5t-40.5 -12t-46.5 0.5q-5 -13 -10 -29.5t-12 -32.5t-16 -29t-22 -19q-12 -6 -25.5 -3
t-21.5 13q2 44 14 75.5t22 65.5q-17 25 -29 60t-14 80q-2 44 3.5 88t10.5 82q-37 14 -57 47t-27.5 76t-4.5 92t12 94q16 76 47 142.5t66 121.5q35 57 81 107.5t97 92.5q25 20 54 39t64 32q17 6 37 10.5t40.5 5t40.5 -3.5t37 -13q6 7 9.5 20t8 25.5t11.5 21.5t18 7
q10 -2 16 -8t13 -14q7 -7 13 -14t8 -16q2 -12 -1.5 -22t-9 -19.5t-11.5 -18t-8 -17.5zM343 713q-165 -137 -236 -370q-9 -29 -18.5 -71t-11.5 -84.5t8 -78t40 -51.5q12 63 26.5 124.5t33.5 115.5q7 19 15 36.5t14 34.5q3 10 5 22t11 14q7 1 17 -3t19.5 -10t16.5 -13.5
t8 -11.5q2 -8 0.5 -17.5t-4.5 -20t-7 -20t-7 -17.5q-17 -55 -33 -111t-30 -111q26 8 47.5 21t41.5 27q31 90 66.5 176.5t72 171t74 169t72.5 170.5q-38 4 -72 -3t-64.5 -20.5t-56.5 -32t-48 -36.5zM427 -89q41 54 75 114t63 123t55.5 130.5t43.5 145.5q8 36 13.5 79.5
t4.5 87.5t-8.5 84.5t-24.5 72.5q0 1 -1 1q0 1 -1 1q-115 -244 -218.5 -498.5t-191.5 -524.5q58 35 103.5 82.5t86.5 101.5zM197 12q-5 -26 -10.5 -54t-9.5 -57.5t-5 -60t3 -61.5q23 69 49 137.5t49 135.5q-18 -11 -36 -21.5t-40 -18.5z" />
    <glyph glyph-name="Ugrave" unicode="&#xd9;" horiz-adv-x="659" 
d="M114 -132q29 -9 51 3.5t37 27.5q48 47 77.5 112.5t54.5 134.5q16 44 33 94t26 100q8 42 11 84.5t7 87.5q2 13 3 31t6 23q9 8 24 4.5t24 -6.5q13 -5 21.5 -10t13.5 -14q-1 -54 -8 -106t-15 -103t-16 -100.5t-16 -99.5t-15 -102t-11 -108q-2 -27 -2.5 -55t-2.5 -57
q-1 -28 -1.5 -56t7.5 -53q20 9 32.5 28t22.5 38q32 58 54.5 126.5t47.5 134.5q29 75 61.5 148.5t67.5 145.5q5 9 10 19t16 13q9 -13 6.5 -28.5t-7.5 -28.5q-11 -38 -28 -74.5t-31 -73.5q-19 -50 -37 -100.5t-37 -101.5q-18 -50 -34.5 -102.5t-38.5 -101.5q-10 -23 -22.5 -45
t-33.5 -37q-9 -6 -22.5 -11.5t-28.5 -8t-29.5 0t-24.5 12.5q-12 11 -16.5 35t-6.5 47q-6 78 0.5 150.5t10.5 144.5q-18 -60 -45.5 -107t-69.5 -85q-14 -13 -30 -23t-37 -12q-23 -2 -43 3.5t-37 16.5t-29.5 25.5t-19.5 29.5q-15 35 -19 83.5t-2 97.5q5 98 15.5 187.5
t24.5 180.5q8 43 11 91t5 97q1 24 1.5 49t-1.5 48.5t-8 44t-17 35.5q-26 -8 -45.5 -19.5t-32.5 -31.5q-4 -6 -7 -14.5t-7.5 -15t-11.5 -10t-19 -0.5q-13 4 -13.5 16.5t4.5 27t13 27.5t11 18q10 14 24 25.5t31 18t36.5 6t40.5 -10.5q13 -6 26 -12.5t21 -14.5q15 -16 23 -42
t10.5 -56.5t1 -63.5t-3.5 -63q-5 -63 -11 -122t-13 -116q-5 -45 -11.5 -88t-11.5 -86.5t-8.5 -88.5t-3.5 -95q0 -31 3 -61t14 -52zM322 -474q1 2 2.5 0.5t-2.5 -0.5v0zM468 714q-3 -11 -12.5 -24.5t-21.5 -15.5q-14 -3 -31.5 4t-28.5 12q-29 11 -52 21.5t-52 24.5
q-5 2 -13 5t-15.5 7t-13 8t-5.5 8q-1 7 6 14t14 9q12 2 28.5 -3.5t29.5 -9.5q27 -9 52 -19t51 -20q17 -7 32.5 -13t31.5 -8z" />
    <glyph glyph-name="Uacute" unicode="&#xda;" horiz-adv-x="659" 
d="M114 -132q29 -9 51 3.5t37 27.5q48 47 77.5 112.5t54.5 134.5q16 44 33 94t26 100q8 42 11 84.5t7 87.5q2 13 3 31t6 23q9 8 24 4.5t24 -6.5q13 -5 21.5 -10t13.5 -14q-1 -54 -8 -106t-15 -103t-16 -100.5t-16 -99.5t-15 -102t-11 -108q-2 -27 -2.5 -55t-2.5 -57
q-1 -28 -1.5 -56t7.5 -53q20 9 32.5 28t22.5 38q32 58 54.5 126.5t47.5 134.5q29 75 61.5 148.5t67.5 145.5q5 9 10 19t16 13q9 -13 6.5 -28.5t-7.5 -28.5q-11 -38 -28 -74.5t-31 -73.5q-19 -50 -37 -100.5t-37 -101.5q-18 -50 -34.5 -102.5t-38.5 -101.5q-10 -23 -22.5 -45
t-33.5 -37q-9 -6 -22.5 -11.5t-28.5 -8t-29.5 0t-24.5 12.5q-12 11 -16.5 35t-6.5 47q-6 78 0.5 150.5t10.5 144.5q-18 -60 -45.5 -107t-69.5 -85q-14 -13 -30 -23t-37 -12q-23 -2 -43 3.5t-37 16.5t-29.5 25.5t-19.5 29.5q-15 35 -19 83.5t-2 97.5q5 98 15.5 187.5
t24.5 180.5q8 43 11 91t5 97q1 24 1.5 49t-1.5 48.5t-8 44t-17 35.5q-26 -8 -45.5 -19.5t-32.5 -31.5q-4 -6 -7 -14.5t-7.5 -15t-11.5 -10t-19 -0.5q-13 4 -13.5 16.5t4.5 27t13 27.5t11 18q10 14 24 25.5t31 18t36.5 6t40.5 -10.5q13 -6 26 -12.5t21 -14.5q15 -16 23 -42
t10.5 -56.5t1 -63.5t-3.5 -63q-5 -63 -11 -122t-13 -116q-5 -45 -11.5 -88t-11.5 -86.5t-8.5 -88.5t-3.5 -95q0 -31 3 -61t14 -52zM322 -474q1 2 2.5 0.5t-2.5 -0.5v0zM222 773q2 2 6 0.5t6 0.5q23 11 47.5 22.5t50.5 23.5q25 11 50.5 23.5t52.5 17.5q8 2 18 -5.5t9 -15.5
q-1 -5 -6.5 -9.5t-12.5 -8.5t-14.5 -7.5t-11.5 -6.5q-28 -15 -50 -27t-51 -26q-11 -5 -27 -13.5t-30 -6.5t-23.5 14.5t-13.5 23.5z" />
    <glyph glyph-name="Ucircumflex" unicode="&#xdb;" horiz-adv-x="659" 
d="M114 -132q29 -9 51 3.5t37 27.5q48 47 77.5 112.5t54.5 134.5q16 44 33 94t26 100q8 42 11 84.5t7 87.5q2 13 3 31t6 23q9 8 24 4.5t24 -6.5q13 -5 21.5 -10t13.5 -14q-1 -54 -8 -106t-15 -103t-16 -100.5t-16 -99.5t-15 -102t-11 -108q-2 -27 -2.5 -55t-2.5 -57
q-1 -28 -1.5 -56t7.5 -53q20 9 32.5 28t22.5 38q32 58 54.5 126.5t47.5 134.5q29 75 61.5 148.5t67.5 145.5q5 9 10 19t16 13q9 -13 6.5 -28.5t-7.5 -28.5q-11 -38 -28 -74.5t-31 -73.5q-19 -50 -37 -100.5t-37 -101.5q-18 -50 -34.5 -102.5t-38.5 -101.5q-10 -23 -22.5 -45
t-33.5 -37q-9 -6 -22.5 -11.5t-28.5 -8t-29.5 0t-24.5 12.5q-12 11 -16.5 35t-6.5 47q-6 78 0.5 150.5t10.5 144.5q-18 -60 -45.5 -107t-69.5 -85q-14 -13 -30 -23t-37 -12q-23 -2 -43 3.5t-37 16.5t-29.5 25.5t-19.5 29.5q-15 35 -19 83.5t-2 97.5q5 98 15.5 187.5
t24.5 180.5q8 43 11 91t5 97q1 24 1.5 49t-1.5 48.5t-8 44t-17 35.5q-26 -8 -45.5 -19.5t-32.5 -31.5q-4 -6 -7 -14.5t-7.5 -15t-11.5 -10t-19 -0.5q-13 4 -13.5 16.5t4.5 27t13 27.5t11 18q10 14 24 25.5t31 18t36.5 6t40.5 -10.5q13 -6 26 -12.5t21 -14.5q15 -16 23 -42
t10.5 -56.5t1 -63.5t-3.5 -63q-5 -63 -11 -122t-13 -116q-5 -45 -11.5 -88t-11.5 -86.5t-8.5 -88.5t-3.5 -95q0 -31 3 -61t14 -52zM322 -474q1 2 2.5 0.5t-2.5 -0.5v0zM490 768q-12 -3 -22.5 3t-18.5 11q-26 16 -51 33t-51 34q-18 -14 -39 -31t-42 -33q-6 -5 -14.5 -11.5
t-15.5 -6.5q-11 -1 -19 8t-10 21q4 6 15 6q18 16 39 34.5t41 35.5q7 5 15 14.5t14 11.5q12 3 21 0t16.5 -8t14 -11.5t12.5 -10.5q31 -24 66 -48q6 -5 13.5 -10t13 -11t7 -14t-4.5 -17z" />
    <glyph glyph-name="Udieresis" unicode="&#xdc;" horiz-adv-x="659" 
d="M117 -132q29 -9 51 3.5t37 27.5q48 47 77.5 112.5t54.5 134.5q16 44 33 94t26 100q8 42 11 84.5t7 87.5q2 13 3 31t6 23q9 8 24 4.5t24 -6.5q13 -5 21.5 -10t13.5 -14q-1 -54 -8 -106t-15 -103t-16 -100.5t-16 -99.5t-15 -102t-11 -108q-2 -27 -2.5 -55t-2.5 -57
q-1 -28 -1.5 -56t7.5 -53q20 9 32.5 28t22.5 38q32 58 54.5 126.5t47.5 134.5q29 75 61.5 148.5t67.5 145.5q5 9 10 19t16 13q9 -13 6.5 -28.5t-7.5 -28.5q-11 -38 -28 -74.5t-31 -73.5q-19 -50 -37 -100.5t-37 -101.5q-18 -50 -34.5 -102.5t-38.5 -101.5q-10 -23 -22.5 -45
t-33.5 -37q-9 -6 -22.5 -11.5t-28.5 -8t-29.5 0t-24.5 12.5q-12 11 -16.5 35t-6.5 47q-6 78 0.5 150.5t10.5 144.5q-18 -60 -45.5 -107t-69.5 -85q-14 -13 -30 -23t-37 -12q-23 -2 -43 3.5t-37 16.5t-29.5 25.5t-19.5 29.5q-15 35 -19 83.5t-2 97.5q5 98 15.5 187.5
t24.5 180.5q8 43 11 91t5 97q1 24 1.5 49t-1.5 48.5t-8 44t-17 35.5q-26 -8 -45.5 -19.5t-32.5 -31.5q-4 -6 -7 -14.5t-7.5 -15t-11.5 -10t-19 -0.5q-13 4 -13.5 16.5t4.5 27t13 27.5t11 18q10 14 24 25.5t31 18t36.5 6t40.5 -10.5q13 -6 26 -12.5t21 -14.5q15 -16 23 -42
t10.5 -56.5t1 -63.5t-3.5 -63q-5 -63 -11 -122t-13 -116q-5 -45 -11.5 -88t-11.5 -86.5t-8.5 -88.5t-3.5 -95q0 -31 3 -61t14 -52zM325 -474q1 2 2.5 0.5t-2.5 -0.5v0zM427 821q13 2 21.5 -4t10.5 -17q2 -10 -3 -18.5t-14 -14t-20 -7t-20 2.5l-5.5 5.5t-4.5 6.5
q-4 18 8.5 31t26.5 15zM272 816q12 2 21.5 -11t8.5 -25q0 -11 -8.5 -18.5t-18.5 -9.5t-19.5 2t-11.5 16q-2 15 7.5 29.5t20.5 16.5z" />
    <glyph glyph-name="Yacute" unicode="&#xdd;" horiz-adv-x="694" 
d="M253 138q60 38 102.5 90.5t84.5 116.5q30 45 57 89.5t54 94.5q10 17 19.5 33t14.5 31q2 6 3 17t2.5 22.5t4 21t6.5 12.5q8 5 21 2.5t21 -5.5q11 -4 19.5 -7.5t15.5 -8.5q2 -38 -6 -74t-17 -71q-26 -104 -51 -206t-44 -212q50 -7 91.5 -25t64.5 -53q7 -11 12.5 -26.5
t-4.5 -30.5q-7 2 -9.5 8t-5.5 11q-20 34 -61.5 53.5t-98.5 11.5q-21 -90 -46.5 -176t-63.5 -160.5t-91.5 -134t-128.5 -96.5q-27 -14 -59 -20t-62.5 -4.5t-58.5 12t-48 30.5t-31.5 45t-16.5 57t1 64.5t17 60.5q22 51 55 95.5t69 78.5q79 72 176.5 123t226.5 71
q22 88 41.5 177.5t33.5 184.5q-45 -78 -98 -152t-114 -142q-9 -11 -20 -22t-23.5 -20t-28 -15t-34.5 -6q-33 0 -52.5 20t-28.5 50t-10.5 66.5t0.5 70.5q7 95 25.5 176.5t39.5 160.5q11 40 21.5 79.5t15.5 81.5q-18 -2 -32.5 -14t-27.5 -24q-61 -60 -111 -136t-83 -166
q-6 -17 -15 -33t-18 -33q-4 -8 -8 -16.5t-9.5 -16t-13.5 -12t-18 -3.5q-7 10 -5.5 21.5t2.5 22.5q5 33 14.5 62t20.5 55q30 70 70 131t88 117q22 25 50.5 51.5t65.5 34.5q5 1 13 0.5t15 -2.5q14 -5 30.5 -17.5t21.5 -21.5q8 -15 9 -36.5t-2 -44t-8 -44t-9 -37.5
q-9 -40 -18.5 -77t-20.5 -72q-11 -38 -14 -81t-5 -88q-1 -45 0.5 -90t14.5 -81zM468 30q-27 -1 -53 -7.5t-49 -14.5q-71 -22 -127 -58.5t-105 -81.5q-32 -30 -61.5 -65.5t-47.5 -73.5q-20 -45 -20 -104q1 -27 7 -51.5t18.5 -42.5t32 -28.5t47.5 -9.5q23 1 44 8.5t39.5 19.5
t34.5 25.5t29 26.5q30 29 56.5 60t45.5 65q28 49 51 116t42 131q5 16 12 37.5t10 39.5q2 10 1 8.5t-5 -0.5h-2zM372 763q2 2 6 0.5t6 0.5q23 11 47.5 22.5t50.5 23.5q25 11 50.5 23.5t52.5 17.5q8 2 18 -5.5t9 -15.5q-1 -5 -6.5 -9.5t-12.5 -8.5t-14.5 -7.5t-11.5 -6.5
q-28 -15 -50 -27t-51 -26q-11 -5 -27 -13.5t-30 -6.5t-23.5 14.5t-13.5 23.5z" />
    <glyph glyph-name="Thorn" unicode="&#xde;" horiz-adv-x="604" 
d="M554 382q0 -110 -73.5 -168.5t-212.5 -58.5h-81v-155h-90v714h90v-124h96q137 0 204 -51.5t67 -156.5zM187 231h72q108 0 155 34.5t47 111.5q0 70 -44.5 103t-140.5 33h-89v-282z" />
    <glyph glyph-name="germandbls" unicode="&#xdf;" horiz-adv-x="485" 
d="M391 614q-11 6 -23 7t-23.5 -1t-22 -6.5t-19.5 -8.5q-28 -13 -49.5 -32t-39 -41.5t-32 -48t-29.5 -52.5q-10 -18 -18 -36.5t-13 -38.5q-15 -64 -29.5 -126.5t-28.5 -132.5q-7 -32 -9.5 -68t-2.5 -77q0 -11 1.5 -24.5t-1.5 -21.5q-6 -10 -19.5 -12t-28.5 1t-27 9.5
t-14 13.5q-2 5 -2 13.5t0.5 17.5t1.5 18.5t1 16.5q2 51 8 99.5t16 88.5q14 59 33 108.5t42 98.5t46 94t55 86q31 40 71 71t101 37q37 4 61 -14q12 -10 25 -32t12 -43q-2 -22 -16.5 -40t-26.5 -32q-35 -40 -69 -73.5t-70 -71.5q-5 -5 -13.5 -15.5t-7.5 -20.5q0 -4 6.5 -8
t14.5 -8.5t16 -8t11 -5.5q51 -31 86.5 -71t65.5 -93q21 -37 32 -84t3 -107q-10 -67 -40 -117t-77 -80q-24 -14 -56 -22t-66 2q-30 8 -56 23.5t-40 38.5q-15 23 -16 50t6 53.5t19.5 50t24.5 39.5q21 29 54.5 56.5t80.5 34.5q5 1 13.5 1t10.5 -7q2 -6 -1 -10t-7 -6.5t-8.5 -4
t-5.5 -1.5q-22 -11 -40 -29t-30 -35q-11 -14 -21.5 -31.5t-18 -38.5t-10.5 -44t2 -47l4.5 -13.5t7.5 -11.5q9 -7 23 -7t28 3.5t27 8t20 7.5q30 11 55.5 31t43.5 48.5t26.5 64.5t4.5 80q-7 54 -30 94t-49 69q-32 33 -67 53q-12 6 -27 14t-28.5 18.5t-23 24.5t-10.5 32
q-2 24 10 48t23 41q16 28 38.5 50.5t46 44t46 45t38.5 53.5z" />
    <glyph glyph-name="agrave" unicode="&#xe0;" horiz-adv-x="375" 
d="M158 356q2 9 10 10t18 -1t19.5 -6t15.5 -6q7 -27 3.5 -55t-8.5 -54q-8 -53 -17.5 -103.5t-9.5 -113.5q0 -29 1.5 -58t12.5 -50q11 8 17.5 19.5t11.5 23.5q29 61 50 129t47 132q11 26 21 52t24 46q8 11 19.5 22t28.5 10q-4 -16 -11.5 -30t-15.5 -28q-20 -43 -35.5 -88.5
t-29.5 -99.5q-8 -33 -18 -65t-22 -64q-11 -29 -26.5 -59.5t-35.5 -47.5q-14 -13 -33 -10.5t-34 14.5q-18 15 -28 39.5t-14.5 55t-5 64.5t1.5 66q-11 -11 -27.5 -21.5t-39.5 -2.5q-12 4 -22 14.5t-17 20.5q-17 25 -18.5 54.5t6.5 59t22 56t28 44.5q8 10 17 21t17 16
q17 9 39 4.5t38 -10.5zM83 253q-15 -32 -26 -69t-1 -73q23 17 38 41.5t29 50.5t20.5 58.5t10.5 67.5q-13 -1 -23.5 -9t-19 -19t-15.5 -24t-13 -24zM302 445q-3 -11 -12.5 -24.5t-21.5 -15.5q-14 -3 -31.5 4t-28.5 12q-29 11 -52 21.5t-52 24.5q-5 2 -13 5t-15.5 7t-13 8
t-5.5 8q-1 7 6 14t14 9q12 2 28.5 -3.5t29.5 -9.5q27 -9 52 -19t51 -20q17 -7 32.5 -13t31.5 -8z" />
    <glyph glyph-name="aacute" unicode="&#xe1;" horiz-adv-x="375" 
d="M158 356q2 9 10 10t18 -1t19.5 -6t15.5 -6q7 -27 3.5 -55t-8.5 -54q-8 -53 -17.5 -103.5t-9.5 -113.5q0 -29 1.5 -58t12.5 -50q11 8 17.5 19.5t11.5 23.5q29 61 50 129t47 132q11 26 21 52t24 46q8 11 19.5 22t28.5 10q-4 -16 -11.5 -30t-15.5 -28q-20 -43 -35.5 -88.5
t-29.5 -99.5q-8 -33 -18 -65t-22 -64q-11 -29 -26.5 -59.5t-35.5 -47.5q-14 -13 -33 -10.5t-34 14.5q-18 15 -28 39.5t-14.5 55t-5 64.5t1.5 66q-11 -11 -27.5 -21.5t-39.5 -2.5q-12 4 -22 14.5t-17 20.5q-17 25 -18.5 54.5t6.5 59t22 56t28 44.5q8 10 17 21t17 16
q17 9 39 4.5t38 -10.5zM83 253q-15 -32 -26 -69t-1 -73q23 17 38 41.5t29 50.5t20.5 58.5t10.5 67.5q-13 -1 -23.5 -9t-19 -19t-15.5 -24t-13 -24zM24 448q2 2 6 0.5t6 0.5q23 11 47.5 22.5t50.5 23.5q25 11 50.5 23.5t52.5 17.5q8 2 18 -5.5t9 -15.5q-1 -5 -6.5 -9.5
t-12.5 -8.5t-14.5 -7.5t-11.5 -6.5q-28 -15 -50 -27t-51 -26q-11 -5 -27 -13.5t-30 -6.5t-23.5 14.5t-13.5 23.5z" />
    <glyph glyph-name="acircumflex" unicode="&#xe2;" horiz-adv-x="375" 
d="M158 356q2 9 10 10t18 -1t19.5 -6t15.5 -6q7 -27 3.5 -55t-8.5 -54q-8 -53 -17.5 -103.5t-9.5 -113.5q0 -29 1.5 -58t12.5 -50q11 8 17.5 19.5t11.5 23.5q29 61 50 129t47 132q11 26 21 52t24 46q8 11 19.5 22t28.5 10q-4 -16 -11.5 -30t-15.5 -28q-20 -43 -35.5 -88.5
t-29.5 -99.5q-8 -33 -18 -65t-22 -64q-11 -29 -26.5 -59.5t-35.5 -47.5q-14 -13 -33 -10.5t-34 14.5q-18 15 -28 39.5t-14.5 55t-5 64.5t1.5 66q-11 -11 -27.5 -21.5t-39.5 -2.5q-12 4 -22 14.5t-17 20.5q-17 25 -18.5 54.5t6.5 59t22 56t28 44.5q8 10 17 21t17 16
q17 9 39 4.5t38 -10.5zM83 253q-15 -32 -26 -69t-1 -73q23 17 38 41.5t29 50.5t20.5 58.5t10.5 67.5q-13 -1 -23.5 -9t-19 -19t-15.5 -24t-13 -24zM286 397q-12 -3 -22.5 3t-18.5 11q-26 16 -51 33t-51 34q-18 -14 -39 -31t-42 -33q-6 -5 -14.5 -11.5t-15.5 -6.5
q-11 -1 -19 8t-10 21q4 6 15 6q18 16 39 34.5t41 35.5q7 5 15 14.5t14 11.5q12 3 21 0t16.5 -8t14 -11.5t12.5 -10.5q31 -24 66 -48q6 -5 13.5 -10t13 -11t7 -14t-4.5 -17z" />
    <glyph glyph-name="atilde" unicode="&#xe3;" horiz-adv-x="375" 
d="M158 356q2 9 10 10t18 -1t19.5 -6t15.5 -6q7 -27 3.5 -55t-8.5 -54q-8 -53 -17.5 -103.5t-9.5 -113.5q0 -29 1.5 -58t12.5 -50q11 8 17.5 19.5t11.5 23.5q29 61 50 129t47 132q11 26 21 52t24 46q8 11 19.5 22t28.5 10q-4 -16 -11.5 -30t-15.5 -28q-20 -43 -35.5 -88.5
t-29.5 -99.5q-8 -33 -18 -65t-22 -64q-11 -29 -26.5 -59.5t-35.5 -47.5q-14 -13 -33 -10.5t-34 14.5q-18 15 -28 39.5t-14.5 55t-5 64.5t1.5 66q-11 -11 -27.5 -21.5t-39.5 -2.5q-12 4 -22 14.5t-17 20.5q-17 25 -18.5 54.5t6.5 59t22 56t28 44.5q8 10 17 21t17 16
q17 9 39 4.5t38 -10.5zM83 253q-15 -32 -26 -69t-1 -73q23 17 38 41.5t29 50.5t20.5 58.5t10.5 67.5q-13 -1 -23.5 -9t-19 -19t-15.5 -24t-13 -24zM47 439q5 -12 0.5 -20.5t-16.5 -7.5q-7 0 -12.5 6.5t-8 15.5t-2.5 18.5t4 16.5q7 14 26.5 21.5t41.5 5.5q16 -1 33 -6.5
t36 -8.5q29 -5 59 -7t51 11q-3 11 -12 14.5t-15 9.5q5 18 33 16q9 -4 17 -15t12 -24.5t2 -26.5t-13 -20q-9 -6 -25 -8.5t-34 -2.5t-35.5 2t-28.5 5q-14 4 -29.5 8.5t-30.5 6.5t-29 0t-24 -10z" />
    <glyph glyph-name="adieresis" unicode="&#xe4;" horiz-adv-x="375" 
d="M158 356q2 9 10 10t18 -1t19.5 -6t15.5 -6q7 -27 3.5 -55t-8.5 -54q-8 -53 -17.5 -103.5t-9.5 -113.5q0 -29 1.5 -58t12.5 -50q11 8 17.5 19.5t11.5 23.5q29 61 50 129t47 132q11 26 21 52t24 46q8 11 19.5 22t28.5 10q-4 -16 -11.5 -30t-15.5 -28q-20 -43 -35.5 -88.5
t-29.5 -99.5q-8 -33 -18 -65t-22 -64q-11 -29 -26.5 -59.5t-35.5 -47.5q-14 -13 -33 -10.5t-34 14.5q-18 15 -28 39.5t-14.5 55t-5 64.5t1.5 66q-11 -11 -27.5 -21.5t-39.5 -2.5q-12 4 -22 14.5t-17 20.5q-17 25 -18.5 54.5t6.5 59t22 56t28 44.5q8 10 17 21t17 16
q17 9 39 4.5t38 -10.5zM83 253q-15 -32 -26 -69t-1 -73q23 17 38 41.5t29 50.5t20.5 58.5t10.5 67.5q-13 -1 -23.5 -9t-19 -19t-15.5 -24t-13 -24zM176 468q13 2 21.5 -4t10.5 -17q2 -10 -3 -18.5t-14 -14t-20 -7t-20 2.5l-5.5 5.5t-4.5 6.5q-4 18 8.5 31t26.5 15zM58 459
q12 2 21.5 -11t8.5 -25q0 -11 -8.5 -18.5t-18.5 -9.5t-19.5 2t-11.5 16q-2 15 7.5 29.5t20.5 16.5z" />
    <glyph glyph-name="aring" unicode="&#xe5;" horiz-adv-x="375" 
d="M158 356q2 9 10 10t18 -1t19.5 -6t15.5 -6q7 -27 3.5 -55t-8.5 -54q-8 -53 -17.5 -103.5t-9.5 -113.5q0 -29 1.5 -58t12.5 -50q11 8 17.5 19.5t11.5 23.5q29 61 50 129t47 132q11 26 21 52t24 46q8 11 19.5 22t28.5 10q-4 -16 -11.5 -30t-15.5 -28q-20 -43 -35.5 -88.5
t-29.5 -99.5q-8 -33 -18 -65t-22 -64q-11 -29 -26.5 -59.5t-35.5 -47.5q-14 -13 -33 -10.5t-34 14.5q-18 15 -28 39.5t-14.5 55t-5 64.5t1.5 66q-11 -11 -27.5 -21.5t-39.5 -2.5q-12 4 -22 14.5t-17 20.5q-17 25 -18.5 54.5t6.5 59t22 56t28 44.5q8 10 17 21t17 16
q17 9 39 4.5t38 -10.5zM83 253q-15 -32 -26 -69t-1 -73q23 17 38 41.5t29 50.5t20.5 58.5t10.5 67.5q-13 -1 -23.5 -9t-19 -19t-15.5 -24t-13 -24zM166 527q2 -2 0.5 -4.5t-0.5 -6.5h6t5 -2q14 -5 22.5 -17t11 -27.5t-1.5 -32t-15 -29.5q-11 -12 -29.5 -21t-35.5 -5
q-25 6 -37.5 31.5t-10.5 52.5q0 10 4 22t10 22.5t14 17.5t17 9q12 2 20.5 -3t19.5 -7zM152 505q-8 -6 -15.5 -14.5t-12.5 -18.5t-6.5 -22.5t3.5 -25.5q18 -3 31.5 7.5t19.5 25t2 29t-22 19.5z" />
    <glyph glyph-name="ae" unicode="&#xe6;" horiz-adv-x="500" 
d="M576 356q1 -16 -8 -30t-17 -28q-24 -41 -48.5 -80.5t-45.5 -85.5q-27 -56 -61 -113l-17 -25.5t-21 -24.5t-26.5 -18.5t-32.5 -7.5q-34 0 -52.5 21t-24.5 50q-2 7 -2 15t-2 16q-2 5 -7 9.5t-7 9.5q-7 15 -9 33.5t-1.5 38.5t2 41t1.5 41q-9 -13 -16 -31t-14.5 -36.5
t-16 -36t-20.5 -29.5q-7 -6 -18 -11.5t-24 -8t-25.5 -1t-22.5 9.5q-13 10 -20 32t-9 44q-3 33 3 64t16.5 59t24.5 53t28 46q8 14 19.5 31t23.5 23q9 5 20.5 6t23.5 0t23.5 -3.5t20.5 -4.5q5 17 17.5 22t27.5 -8q11 -10 16 -30.5t3 -40.5q7 25 16 51.5t21 51t27.5 45
t35.5 33.5q18 12 38.5 11.5t40 -9.5t35.5 -23.5t25 -28.5q-9 -48 -29 -84.5t-46.5 -66.5t-57.5 -55.5t-61 -52.5q-8 -47 -19.5 -92t-21.5 -93q-2 -6 -3.5 -15.5t-1.5 -19.5t2.5 -17.5t8.5 -8.5t13 2.5t13.5 9.5t12 12.5t8.5 10.5q27 34 50.5 72.5t47.5 73.5q24 37 49 73
t51 71q8 12 17.5 24t25.5 14zM420 464q-20 -26 -39 -61.5t-26 -66.5q33 35 64 70.5t49 85.5q-7 7 -14 6t-13.5 -7t-11.5 -14t-9 -13zM179 389q-21 -20 -35.5 -54t-27.5 -69q-14 -37 -23.5 -75.5t-9.5 -76.5q22 16 38.5 38.5t30 48.5t25.5 53t26 53q2 23 4 43.5t10 37.5
q-5 14 -17.5 11.5t-20.5 -10.5z" />
    <glyph glyph-name="ccedilla" unicode="&#xe7;" horiz-adv-x="243" 
d="M71 115q23 3 40 15.5t32 26.5q37 34 67.5 75t61.5 81q5 8 12 15.5t17 9.5q5 -11 -0.5 -22.5t-10.5 -21.5q-26 -48 -58.5 -92.5t-72.5 -79.5q-17 -16 -37.5 -32t-43.5 -22q-13 -3 -24.5 0t-21 9.5t-16.5 14.5t-11 16q-9 17 -11 41q-3 43 8.5 76.5t25.5 65.5q14 31 30 61.5
t36 47.5q11 9 27.5 13.5t35.5 -0.5q12 -3 28 -10t16 -17q0 -8 -7 -12t-12 -5q-8 0 -15 4.5t-16 2.5q-6 -2 -10.5 -10.5t-8.5 -15.5q-22 -34 -39 -72.5t-25 -86.5q-3 -19 -4.5 -39t7.5 -37zM109 29q8 -22 3.5 -48t-14.5 -40q32 -1 55 -8t36 -25q11 -16 15.5 -35.5t3.5 -39.5
t-6.5 -40t-13.5 -37q-16 -33 -44 -57.5t-63 -28.5t-55.5 10.5t-34.5 35.5q0 26 10.5 44t21.5 35q3 5 6 11.5t11 5.5q1 -12 -3 -22t-8 -19t-6 -19t2 -22q3 -11 14 -14t24 -2t25.5 6t19.5 11q14 11 27 34.5t19 46.5q4 16 3 35.5t-6 34.5q-2 7 -7.5 15.5t-13.5 10.5
q-9 1 -16 -1.5t-13.5 -6.5t-12.5 -8t-12 -5q-13 -2 -24.5 5.5t-15.5 12.5q-9 12 -6 27.5t9 31.5t11.5 31t1.5 27q3 5 9.5 7t15 2t17 -1t15.5 -1z" />
    <glyph glyph-name="egrave" unicode="&#xe8;" horiz-adv-x="244" 
d="M80 260q-9 -14 -17.5 -31.5t-14.5 -38t-8 -43t2 -44.5q24 6 44.5 17t38 24.5t33 29.5t30.5 31q23 23 45.5 47.5t41.5 51.5q7 8 13.5 17.5t17.5 11.5q-17 -64 -60 -115.5t-91 -91.5q-9 -8 -19.5 -18t-22.5 -18.5t-25 -15t-27 -7.5q-23 -2 -42 10.5t-27 26.5
q-11 18 -12 41.5t3 48.5t11.5 47.5t13.5 39.5q8 20 17 37.5t19 34.5q8 13 16.5 26t19 24t24 18t32.5 8q20 1 34.5 -6t22.5 -19t8 -27.5t-9 -32.5q-6 -11 -15 -23t-20 -23t-22.5 -20.5t-21.5 -13.5q-6 -3 -15 -4.5t-18 0.5zM154 394q-9 -4 -16.5 -14t-14 -22t-12 -24.5
t-10.5 -21.5q23 11 41 27t23 46q-2 2 -4.5 6.5t-6.5 2.5zM287 479q-3 -11 -12.5 -24.5t-21.5 -15.5q-14 -3 -31.5 4t-28.5 12q-29 11 -52 21.5t-52 24.5q-5 2 -13 5t-15.5 7t-13 8t-5.5 8q-1 7 6 14t14 9q12 2 28.5 -3.5t29.5 -9.5q27 -9 52 -19t51 -20q17 -7 32.5 -13
t31.5 -8z" />
    <glyph glyph-name="eacute" unicode="&#xe9;" horiz-adv-x="244" 
d="M80 260q-9 -14 -17.5 -31.5t-14.5 -38t-8 -43t2 -44.5q24 6 44.5 17t38 24.5t33 29.5t30.5 31q23 23 45.5 47.5t41.5 51.5q7 8 13.5 17.5t17.5 11.5q-17 -64 -60 -115.5t-91 -91.5q-9 -8 -19.5 -18t-22.5 -18.5t-25 -15t-27 -7.5q-23 -2 -42 10.5t-27 26.5
q-11 18 -12 41.5t3 48.5t11.5 47.5t13.5 39.5q8 20 17 37.5t19 34.5q8 13 16.5 26t19 24t24 18t32.5 8q20 1 34.5 -6t22.5 -19t8 -27.5t-9 -32.5q-6 -11 -15 -23t-20 -23t-22.5 -20.5t-21.5 -13.5q-6 -3 -15 -4.5t-18 0.5zM154 394q-9 -4 -16.5 -14t-14 -22t-12 -24.5
t-10.5 -21.5q23 11 41 27t23 46q-2 2 -4.5 6.5t-6.5 2.5zM2 476q2 2 6 0.5t6 0.5q23 11 47.5 22.5t50.5 23.5q25 11 50.5 23.5t52.5 17.5q8 2 18 -5.5t9 -15.5q-1 -5 -6.5 -9.5t-12.5 -8.5t-14.5 -7.5t-11.5 -6.5q-28 -15 -50 -27t-51 -26q-11 -5 -27 -13.5t-30 -6.5
t-23.5 14.5t-13.5 23.5z" />
    <glyph glyph-name="ecircumflex" unicode="&#xea;" horiz-adv-x="244" 
d="M80 260q-9 -14 -17.5 -31.5t-14.5 -38t-8 -43t2 -44.5q24 6 44.5 17t38 24.5t33 29.5t30.5 31q23 23 45.5 47.5t41.5 51.5q7 8 13.5 17.5t17.5 11.5q-17 -64 -60 -115.5t-91 -91.5q-9 -8 -19.5 -18t-22.5 -18.5t-25 -15t-27 -7.5q-23 -2 -42 10.5t-27 26.5
q-11 18 -12 41.5t3 48.5t11.5 47.5t13.5 39.5q8 20 17 37.5t19 34.5q8 13 16.5 26t19 24t24 18t32.5 8q20 1 34.5 -6t22.5 -19t8 -27.5t-9 -32.5q-6 -11 -15 -23t-20 -23t-22.5 -20.5t-21.5 -13.5q-6 -3 -15 -4.5t-18 0.5zM154 394q-9 -4 -16.5 -14t-14 -22t-12 -24.5
t-10.5 -21.5q23 11 41 27t23 46q-2 2 -4.5 6.5t-6.5 2.5zM279 453q-12 -3 -22.5 3t-18.5 11q-26 16 -51 33t-51 34q-18 -14 -39 -31t-42 -33q-6 -5 -14.5 -11.5t-15.5 -6.5q-11 -1 -19 8t-10 21q4 6 15 6q18 16 39 34.5t41 35.5q7 5 15 14.5t14 11.5q12 3 21 0t16.5 -8
t14 -11.5t12.5 -10.5q31 -24 66 -48q6 -5 13.5 -10t13 -11t7 -14t-4.5 -17z" />
    <glyph glyph-name="edieresis" unicode="&#xeb;" horiz-adv-x="244" 
d="M80 260q-9 -14 -17.5 -31.5t-14.5 -38t-8 -43t2 -44.5q24 6 44.5 17t38 24.5t33 29.5t30.5 31q23 23 45.5 47.5t41.5 51.5q7 8 13.5 17.5t17.5 11.5q-17 -64 -60 -115.5t-91 -91.5q-9 -8 -19.5 -18t-22.5 -18.5t-25 -15t-27 -7.5q-23 -2 -42 10.5t-27 26.5
q-11 18 -12 41.5t3 48.5t11.5 47.5t13.5 39.5q8 20 17 37.5t19 34.5q8 13 16.5 26t19 24t24 18t32.5 8q20 1 34.5 -6t22.5 -19t8 -27.5t-9 -32.5q-6 -11 -15 -23t-20 -23t-22.5 -20.5t-21.5 -13.5q-6 -3 -15 -4.5t-18 0.5zM154 394q-9 -4 -16.5 -14t-14 -22t-12 -24.5
t-10.5 -21.5q23 11 41 27t23 46q-2 2 -4.5 6.5t-6.5 2.5zM175 540q13 2 21.5 -4t10.5 -17q2 -10 -3 -18.5t-14 -14t-20 -7t-20 2.5l-5.5 5.5t-4.5 6.5q-4 18 8.5 31t26.5 15zM57 531q12 2 21.5 -11t8.5 -25q0 -11 -8.5 -18.5t-18.5 -9.5t-19.5 2t-11.5 16q-2 15 7.5 29.5
t20.5 16.5z" />
    <glyph glyph-name="igrave" unicode="&#xec;" horiz-adv-x="187" 
d="M52 366q17 -3 35.5 -7t22.5 -19q3 -12 -5.5 -29.5t-13.5 -30.5q-8 -22 -15 -47t-11.5 -51t-5 -53t4.5 -53q35 21 58.5 55t43.5 72q15 27 29 56t29 58q4 8 9 17.5t15 13.5q2 -27 -7 -50.5t-17 -44.5q-18 -44 -37.5 -84.5t-46.5 -77.5q-8 -11 -19.5 -23.5t-25 -20t-28.5 -8
t-30 12.5q-21 16 -27.5 46.5t-5 66t8.5 71t15 61.5q5 17 10.5 34t10.5 32q0 1 3 3zM249 443q-3 -11 -12.5 -24.5t-21.5 -15.5q-14 -3 -31.5 4t-28.5 12q-29 11 -52 21.5t-52 24.5q-5 2 -13 5t-15.5 7t-13 8t-5.5 8q-1 7 6 14t14 9q12 2 28.5 -3.5t29.5 -9.5q27 -9 52 -19
t51 -20q17 -7 32.5 -13t31.5 -8z" />
    <glyph glyph-name="iacute" unicode="&#xed;" horiz-adv-x="187" 
d="M52 366q17 -3 35.5 -7t22.5 -19q3 -12 -5.5 -29.5t-13.5 -30.5q-8 -22 -15 -47t-11.5 -51t-5 -53t4.5 -53q35 21 58.5 55t43.5 72q15 27 29 56t29 58q4 8 9 17.5t15 13.5q2 -27 -7 -50.5t-17 -44.5q-18 -44 -37.5 -84.5t-46.5 -77.5q-8 -11 -19.5 -23.5t-25 -20t-28.5 -8
t-30 12.5q-21 16 -27.5 46.5t-5 66t8.5 71t15 61.5q5 17 10.5 34t10.5 32q0 1 3 3zM-4 459q2 2 6 0.5t6 0.5q23 11 47.5 22.5t50.5 23.5q25 11 50.5 23.5t52.5 17.5q8 2 18 -5.5t9 -15.5q-1 -5 -6.5 -9.5t-12.5 -8.5t-14.5 -7.5t-11.5 -6.5q-28 -15 -50 -27t-51 -26
q-11 -5 -27 -13.5t-30 -6.5t-23.5 14.5t-13.5 23.5z" />
    <glyph glyph-name="icircumflex" unicode="&#xee;" horiz-adv-x="187" 
d="M52 366q17 -3 35.5 -7t22.5 -19q3 -12 -5.5 -29.5t-13.5 -30.5q-8 -22 -15 -47t-11.5 -51t-5 -53t4.5 -53q35 21 58.5 55t43.5 72q15 27 29 56t29 58q4 8 9 17.5t15 13.5q2 -27 -7 -50.5t-17 -44.5q-18 -44 -37.5 -84.5t-46.5 -77.5q-8 -11 -19.5 -23.5t-25 -20t-28.5 -8
t-30 12.5q-21 16 -27.5 46.5t-5 66t8.5 71t15 61.5q5 17 10.5 34t10.5 32q0 1 3 3zM244 434q-12 -3 -22.5 3t-18.5 11q-26 16 -51 33t-51 34q-18 -14 -39 -31t-42 -33q-6 -5 -14.5 -11.5t-15.5 -6.5q-11 -1 -19 8t-10 21q4 6 15 6q18 16 39 34.5t41 35.5q7 5 15 14.5
t14 11.5q12 3 21 0t16.5 -8t14 -11.5t12.5 -10.5q31 -24 66 -48q6 -5 13.5 -10t13 -11t7 -14t-4.5 -17z" />
    <glyph glyph-name="idieresis" unicode="&#xef;" horiz-adv-x="187" 
d="M52 366q17 -3 35.5 -7t22.5 -19q3 -12 -5.5 -29.5t-13.5 -30.5q-8 -22 -15 -47t-11.5 -51t-5 -53t4.5 -53q35 21 58.5 55t43.5 72q15 27 29 56t29 58q4 8 9 17.5t15 13.5q2 -27 -7 -50.5t-17 -44.5q-18 -44 -37.5 -84.5t-46.5 -77.5q-8 -11 -19.5 -23.5t-25 -20t-28.5 -8
t-30 12.5q-21 16 -27.5 46.5t-5 66t8.5 71t15 61.5q5 17 10.5 34t10.5 32q0 1 3 3zM170 484q13 2 21.5 -4t10.5 -17q2 -10 -3 -18.5t-14 -14t-20 -7t-20 2.5l-5.5 5.5t-4.5 6.5q-4 18 8.5 31t26.5 15zM52 475q12 2 21.5 -11t8.5 -25q0 -11 -8.5 -18.5t-18.5 -9.5t-19.5 2
t-11.5 16q-2 15 7.5 29.5t20.5 16.5z" />
    <glyph glyph-name="eth" unicode="&#xf0;" horiz-adv-x="604" 
d="M551 275q0 -138 -65 -211.5t-185 -73.5q-110 0 -178 66.5t-68 176.5q0 112 63.5 176t171.5 64q110 0 156 -58l4 2q-29 104 -124 191l-130 -75l-38 55l112 64q-42 28 -90 53l36 60q76 -36 126 -72l115 67l38 -54l-99 -57q74 -68 114.5 -164.5t40.5 -209.5zM462 251
q0 70 -43 110.5t-116 40.5q-81 0 -120 -42.5t-39 -129.5q0 -81 41 -124.5t118 -43.5q83 0 121 48.5t38 140.5z" />
    <glyph glyph-name="ntilde" unicode="&#xf1;" horiz-adv-x="377" 
d="M62 454q2 -5 4 -10.5t0 -11.5q-5 -4 -11.5 -5t-13.5 -1q-5 8 -10.5 14.5t-7.5 16.5q-1 8 1 15t2 12q11 9 24.5 14.5t30.5 9.5q25 1 49.5 -4t48.5 -10t48 -5.5t48 9.5q0 8 -6 9.5t-8 7.5q-7 -1 -8.5 1t-6.5 4q3 11 14 16t22 7q9 -7 16.5 -18t11.5 -23.5t3 -25t-8 -22.5
q-5 -2 -9.5 -3.5t-7.5 -4.5q-23 -1 -43.5 -5t-43.5 1q-2 0 -4 1.5t-4 2.5q-2 0 -3 -1t-2 0q-2 0 -4 1.5t-4 2.5q-4 1 -7 0.5t-6 0.5t-5.5 2.5t-4.5 2.5q-17 5 -34.5 5t-34.5 6q-6 -4 -13.5 -6t-12.5 -6zM76 135q-2 0 -0.5 -1.5t0.5 1.5q16 44 41 89.5t49 84.5q8 14 17 29
t20 23q20 14 42 6.5t36 -18.5q-1 -51 -11 -95.5t-21.5 -88t-21 -88.5t-10.5 -99q12 5 20 15t16 19q8 11 15 21.5t14 21.5q45 72 85.5 148.5t78.5 152.5q7 -4 9 -10.5t1 -14t-4 -14.5t-5 -12q-5 -12 -12 -25t-12 -24q-24 -48 -49.5 -95.5t-49.5 -95.5q-13 -24 -25 -49
t-26 -45q-8 -10 -19.5 -18t-26.5 -10q-29 -2 -41.5 11.5t-14.5 38.5q-4 45 6 83.5t18 76.5q8 40 16 77.5t10 79.5q-17 -9 -28 -28t-21 -39q-20 -40 -36 -82.5t-31 -87.5q-3 -9 -6.5 -21t-8.5 -23t-11.5 -20t-16.5 -12q-8 -2 -19.5 -0.5t-16.5 4.5q-6 4 -9 13.5t-5 21.5
t-2.5 24.5t-0.5 22.5q0 39 4 76.5t8.5 74t7.5 72.5t2 71q14 7 34 4t34 -8q2 -30 -0.5 -60t-7 -59t-9.5 -59t-6 -60z" />
    <glyph glyph-name="ograve" unicode="&#xf2;" horiz-adv-x="239" 
d="M126 339q2 -5 0 -6.5t-3 -4.5q19 -7 40.5 -8t43 1.5t41 7.5t34.5 10q-2 -12 -13.5 -20.5t-23.5 -14.5q-37 -20 -87 -13q17 -29 23.5 -66.5t-0.5 -78.5q-5 -34 -18 -69t-32 -54q-11 -11 -26 -16t-31.5 -4t-31 7.5t-23.5 18.5q-11 15 -16.5 36t-7 45.5t0 50t5.5 48.5
q9 43 23 83q3 7 7 17.5t8.5 20.5t10.5 18t13 10q20 6 37 -2.5t26 -16.5zM105 284q0 -2 -1 -3q-8 -23 -20 -49.5t-17 -55.5t-8 -64t8 -63q33 4 50 34t20.5 67.5t-5 75t-27.5 58.5zM264 427q-3 -11 -12.5 -24.5t-21.5 -15.5q-14 -3 -31.5 4t-28.5 12q-29 11 -52 21.5t-52 24.5
q-5 2 -13 5t-15.5 7t-13 8t-5.5 8q-1 7 6 14t14 9q12 2 28.5 -3.5t29.5 -9.5q27 -9 52 -19t51 -20q17 -7 32.5 -13t31.5 -8z" />
    <glyph glyph-name="oacute" unicode="&#xf3;" horiz-adv-x="239" 
d="M126 339q2 -5 0 -6.5t-3 -4.5q19 -7 40.5 -8t43 1.5t41 7.5t34.5 10q-2 -12 -13.5 -20.5t-23.5 -14.5q-37 -20 -87 -13q17 -29 23.5 -66.5t-0.5 -78.5q-5 -34 -18 -69t-32 -54q-11 -11 -26 -16t-31.5 -4t-31 7.5t-23.5 18.5q-11 15 -16.5 36t-7 45.5t0 50t5.5 48.5
q9 43 23 83q3 7 7 17.5t8.5 20.5t10.5 18t13 10q20 6 37 -2.5t26 -16.5zM105 284q0 -2 -1 -3q-8 -23 -20 -49.5t-17 -55.5t-8 -64t8 -63q33 4 50 34t20.5 67.5t-5 75t-27.5 58.5zM-9 421q2 2 6 0.5t6 0.5q23 11 47.5 22.5t50.5 23.5q25 11 50.5 23.5t52.5 17.5q8 2 18 -5.5
t9 -15.5q-1 -5 -6.5 -9.5t-12.5 -8.5t-14.5 -7.5t-11.5 -6.5q-28 -15 -50 -27t-51 -26q-11 -5 -27 -13.5t-30 -6.5t-23.5 14.5t-13.5 23.5z" />
    <glyph glyph-name="ocircumflex" unicode="&#xf4;" horiz-adv-x="239" 
d="M126 339q2 -5 0 -6.5t-3 -4.5q19 -7 40.5 -8t43 1.5t41 7.5t34.5 10q-2 -12 -13.5 -20.5t-23.5 -14.5q-37 -20 -87 -13q17 -29 23.5 -66.5t-0.5 -78.5q-5 -34 -18 -69t-32 -54q-11 -11 -26 -16t-31.5 -4t-31 7.5t-23.5 18.5q-11 15 -16.5 36t-7 45.5t0 50t5.5 48.5
q9 43 23 83q3 7 7 17.5t8.5 20.5t10.5 18t13 10q20 6 37 -2.5t26 -16.5zM105 284q0 -2 -1 -3q-8 -23 -20 -49.5t-17 -55.5t-8 -64t8 -63q33 4 50 34t20.5 67.5t-5 75t-27.5 58.5zM252 382q-12 -3 -22.5 3t-18.5 11q-26 16 -51 33t-51 34q-18 -14 -39 -31t-42 -33
q-6 -5 -14.5 -11.5t-15.5 -6.5q-11 -1 -19 8t-10 21q4 6 15 6q18 16 39 34.5t41 35.5q7 5 15 14.5t14 11.5q12 3 21 0t16.5 -8t14 -11.5t12.5 -10.5q31 -24 66 -48q6 -5 13.5 -10t13 -11t7 -14t-4.5 -17z" />
    <glyph glyph-name="otilde" unicode="&#xf5;" horiz-adv-x="239" 
d="M126 339q2 -5 0 -6.5t-3 -4.5q19 -7 40.5 -8t43 1.5t41 7.5t34.5 10q-2 -12 -13.5 -20.5t-23.5 -14.5q-37 -20 -87 -13q17 -29 23.5 -66.5t-0.5 -78.5q-5 -34 -18 -69t-32 -54q-11 -11 -26 -16t-31.5 -4t-31 7.5t-23.5 18.5q-11 15 -16.5 36t-7 45.5t0 50t5.5 48.5
q9 43 23 83q3 7 7 17.5t8.5 20.5t10.5 18t13 10q20 6 37 -2.5t26 -16.5zM105 284q0 -2 -1 -3q-8 -23 -20 -49.5t-17 -55.5t-8 -64t8 -63q33 4 50 34t20.5 67.5t-5 75t-27.5 58.5zM20 405q5 -12 0.5 -20.5t-16.5 -7.5q-7 0 -12.5 6.5t-8 15.5t-2.5 18.5t4 16.5
q7 14 26.5 21.5t41.5 5.5q16 -1 33 -6.5t36 -8.5q29 -5 59 -7t51 11q-3 11 -12 14.5t-15 9.5q5 18 33 16q9 -4 17 -15t12 -24.5t2 -26.5t-13 -20q-9 -6 -25 -8.5t-34 -2.5t-35.5 2t-28.5 5q-14 4 -29.5 8.5t-30.5 6.5t-29 0t-24 -10z" />
    <glyph glyph-name="odieresis" unicode="&#xf6;" horiz-adv-x="239" 
d="M126 339q2 -5 0 -6.5t-3 -4.5q19 -7 40.5 -8t43 1.5t41 7.5t34.5 10q-2 -12 -13.5 -20.5t-23.5 -14.5q-37 -20 -87 -13q17 -29 23.5 -66.5t-0.5 -78.5q-5 -34 -18 -69t-32 -54q-11 -11 -26 -16t-31.5 -4t-31 7.5t-23.5 18.5q-11 15 -16.5 36t-7 45.5t0 50t5.5 48.5
q9 43 23 83q3 7 7 17.5t8.5 20.5t10.5 18t13 10q20 6 37 -2.5t26 -16.5zM105 284q0 -2 -1 -3q-8 -23 -20 -49.5t-17 -55.5t-8 -64t8 -63q33 4 50 34t20.5 67.5t-5 75t-27.5 58.5zM172 461q13 2 21.5 -4t10.5 -17q2 -10 -3 -18.5t-14 -14t-20 -7t-20 2.5l-5.5 5.5t-4.5 6.5
q-4 18 8.5 31t26.5 15zM52 460q12 2 21.5 -11t8.5 -25q0 -11 -8.5 -18.5t-18.5 -9.5t-19.5 2t-11.5 16q-2 15 7.5 29.5t20.5 16.5z" />
    <glyph glyph-name="divide" unicode="&#xf7;" horiz-adv-x="421" 
d="M36 -153q-3 36 7 70t19 66q36 126 74 253.5t84 248.5q23 60 46.5 116.5t46.5 120.5q5 14 10.5 29t11.5 32q4 10 7 21t7 20t10 15t16 6q6 0 14.5 -3.5t17 -8.5t15 -11t7.5 -11q1 -7 -1.5 -15.5t-6.5 -16.5t-8.5 -15.5t-6.5 -12.5q-46 -100 -85.5 -202.5t-76.5 -211.5
q-32 -94 -60 -186.5t-52 -195.5q-4 -17 -7.5 -34.5t-9 -33t-13.5 -27.5t-21 -18q-10 -5 -23.5 -4t-21.5 9zM29 570q14 11 31 6.5t22 -18.5q3 -10 -0.5 -19t-11 -15t-17 -7t-18.5 5q-8 7 -9.5 22t3.5 26zM397 108q-3 -12 -7.5 -23.5t-14.5 -16.5q-12 -5 -21.5 1t-14 16.5
t-3 23t10.5 19.5q18 4 31.5 -2t18.5 -18z" />
    <glyph glyph-name="oslash" unicode="&#xf8;" horiz-adv-x="320" 
d="M222 380q12 -1 24.5 -5t20.5 -11t10 -17t-7 -23q31 -5 62.5 0.5t61.5 4.5q-2 -8 -10.5 -11.5t-16.5 -5.5q-25 -7 -53.5 -12t-57.5 -9q-2 -8 -7.5 -13.5t-6.5 -13.5q-1 -5 3 -13.5t6 -14.5q7 -27 8 -56.5t-1.5 -58.5t-8 -57.5t-11.5 -52.5q-8 -28 -17.5 -53.5t-26.5 -47.5
q-19 -24 -41.5 -44.5t-59.5 -25.5q-3 -11 -6.5 -22.5t-10.5 -19.5q-10 -4 -26 -5t-22 8q-3 6 -1.5 14t4.5 15.5t5.5 15t1.5 12.5t-8 10.5t-10 9.5q-9 14 -14 34t-7 39q-3 42 2 84t13.5 82.5t19.5 79t20 73.5q3 10 6 23t7.5 26t10 23.5t13.5 14.5q13 7 29 6t30 -7q14 5 29 -3
t28 -13q6 8 6.5 21.5t8.5 18.5zM179 270q3 8 7.5 17t4.5 15q0 5 -4.5 11t-9.5 3q-29 -59 -50 -127t-35 -140q20 52 42.5 109.5t44.5 111.5zM108 -94q42 46 66.5 118.5t31.5 157.5q0 1 -1 1q-29 -65 -51.5 -135t-45.5 -142z" />
    <glyph glyph-name="ugrave" unicode="&#xf9;" horiz-adv-x="476" 
d="M260 296q2 0 1 1.5t-1 -1.5q-21 -56 -45.5 -107.5t-54.5 -99.5q-8 -14 -19.5 -32.5t-25.5 -25.5q-10 -5 -21.5 -5t-22.5 2.5t-20.5 7t-16.5 9.5q-8 5 -16 14t-12 17q-12 29 -9 68.5t8 74.5t11.5 68.5t12.5 65.5q12 2 23.5 -1.5t19.5 -7.5q10 -31 8.5 -63.5t-7 -66
t-11 -68t-3.5 -69.5q12 5 19 14.5t14 19.5q51 72 93 151.5t88 153.5q0 8 -2.5 14.5t-0.5 14.5q7 2 16.5 1.5t19 -3t17 -6.5t10.5 -8q3 -5 4 -15t0.5 -20.5t-2 -21l-2.5 -17.5q-6 -45 -15 -88t-17.5 -86t-15.5 -86.5t-10 -91.5q-2 -41 -1 -80t13 -71q17 5 28.5 19.5
t19.5 29.5q23 40 41 82.5t35 85.5l34 86t38 84q8 15 17 30.5t17 32.5q2 4 7 13.5t11 19.5t12.5 17t11.5 6t6.5 -5.5t1 -10t-2 -11t-2.5 -8.5q-2 -9 -6 -18.5t-7 -16.5q-29 -70 -56.5 -138.5t-53.5 -137.5q-10 -26 -18.5 -54t-19 -54.5t-23.5 -50t-31 -40.5q-8 -8 -19 -14
t-23 -8.5t-24 -0.5t-22 11q-19 16 -30 43t-15.5 59.5t-4 68.5t3.5 71q8 72 21 135t26 118zM309 529q-3 -11 -12.5 -24.5t-21.5 -15.5q-14 -3 -31.5 4t-28.5 12q-29 11 -52 21.5t-52 24.5q-5 2 -13 5t-15.5 7t-13 8t-5.5 8q-1 7 6 14t14 9q12 2 28.5 -3.5t29.5 -9.5
q27 -9 52 -19t51 -20q17 -7 32.5 -13t31.5 -8z" />
    <glyph glyph-name="uacute" unicode="&#xfa;" horiz-adv-x="476" 
d="M260 296q2 0 1 1.5t-1 -1.5q-21 -56 -45.5 -107.5t-54.5 -99.5q-8 -14 -19.5 -32.5t-25.5 -25.5q-10 -5 -21.5 -5t-22.5 2.5t-20.5 7t-16.5 9.5q-8 5 -16 14t-12 17q-12 29 -9 68.5t8 74.5t11.5 68.5t12.5 65.5q12 2 23.5 -1.5t19.5 -7.5q10 -31 8.5 -63.5t-7 -66
t-11 -68t-3.5 -69.5q12 5 19 14.5t14 19.5q51 72 93 151.5t88 153.5q0 8 -2.5 14.5t-0.5 14.5q7 2 16.5 1.5t19 -3t17 -6.5t10.5 -8q3 -5 4 -15t0.5 -20.5t-2 -21l-2.5 -17.5q-6 -45 -15 -88t-17.5 -86t-15.5 -86.5t-10 -91.5q-2 -41 -1 -80t13 -71q17 5 28.5 19.5
t19.5 29.5q23 40 41 82.5t35 85.5l34 86t38 84q8 15 17 30.5t17 32.5q2 4 7 13.5t11 19.5t12.5 17t11.5 6t6.5 -5.5t1 -10t-2 -11t-2.5 -8.5q-2 -9 -6 -18.5t-7 -16.5q-29 -70 -56.5 -138.5t-53.5 -137.5q-10 -26 -18.5 -54t-19 -54.5t-23.5 -50t-31 -40.5q-8 -8 -19 -14
t-23 -8.5t-24 -0.5t-22 11q-19 16 -30 43t-15.5 59.5t-4 68.5t3.5 71q8 72 21 135t26 118zM20 448q2 2 6 0.5t6 0.5q23 11 47.5 22.5t50.5 23.5q25 11 50.5 23.5t52.5 17.5q8 2 18 -5.5t9 -15.5q-1 -5 -6.5 -9.5t-12.5 -8.5t-14.5 -7.5t-11.5 -6.5q-28 -15 -50 -27t-51 -26
q-11 -5 -27 -13.5t-30 -6.5t-23.5 14.5t-13.5 23.5z" />
    <glyph glyph-name="ucircumflex" unicode="&#xfb;" horiz-adv-x="476" 
d="M260 296q2 0 1 1.5t-1 -1.5q-21 -56 -45.5 -107.5t-54.5 -99.5q-8 -14 -19.5 -32.5t-25.5 -25.5q-10 -5 -21.5 -5t-22.5 2.5t-20.5 7t-16.5 9.5q-8 5 -16 14t-12 17q-12 29 -9 68.5t8 74.5t11.5 68.5t12.5 65.5q12 2 23.5 -1.5t19.5 -7.5q10 -31 8.5 -63.5t-7 -66
t-11 -68t-3.5 -69.5q12 5 19 14.5t14 19.5q51 72 93 151.5t88 153.5q0 8 -2.5 14.5t-0.5 14.5q7 2 16.5 1.5t19 -3t17 -6.5t10.5 -8q3 -5 4 -15t0.5 -20.5t-2 -21l-2.5 -17.5q-6 -45 -15 -88t-17.5 -86t-15.5 -86.5t-10 -91.5q-2 -41 -1 -80t13 -71q17 5 28.5 19.5
t19.5 29.5q23 40 41 82.5t35 85.5l34 86t38 84q8 15 17 30.5t17 32.5q2 4 7 13.5t11 19.5t12.5 17t11.5 6t6.5 -5.5t1 -10t-2 -11t-2.5 -8.5q-2 -9 -6 -18.5t-7 -16.5q-29 -70 -56.5 -138.5t-53.5 -137.5q-10 -26 -18.5 -54t-19 -54.5t-23.5 -50t-31 -40.5q-8 -8 -19 -14
t-23 -8.5t-24 -0.5t-22 11q-19 16 -30 43t-15.5 59.5t-4 68.5t3.5 71q8 72 21 135t26 118zM306 485q-12 -3 -22.5 3t-18.5 11q-26 16 -51 33t-51 34q-18 -14 -39 -31t-42 -33q-6 -5 -14.5 -11.5t-15.5 -6.5q-11 -1 -19 8t-10 21q4 6 15 6q18 16 39 34.5t41 35.5q7 5 15 14.5
t14 11.5q12 3 21 0t16.5 -8t14 -11.5t12.5 -10.5q31 -24 66 -48q6 -5 13.5 -10t13 -11t7 -14t-4.5 -17z" />
    <glyph glyph-name="udieresis" unicode="&#xfc;" horiz-adv-x="476" 
d="M260 296q2 0 1 1.5t-1 -1.5q-21 -56 -45.5 -107.5t-54.5 -99.5q-8 -14 -19.5 -32.5t-25.5 -25.5q-10 -5 -21.5 -5t-22.5 2.5t-20.5 7t-16.5 9.5q-8 5 -16 14t-12 17q-12 29 -9 68.5t8 74.5t11.5 68.5t12.5 65.5q12 2 23.5 -1.5t19.5 -7.5q10 -31 8.5 -63.5t-7 -66
t-11 -68t-3.5 -69.5q12 5 19 14.5t14 19.5q51 72 93 151.5t88 153.5q0 8 -2.5 14.5t-0.5 14.5q7 2 16.5 1.5t19 -3t17 -6.5t10.5 -8q3 -5 4 -15t0.5 -20.5t-2 -21l-2.5 -17.5q-6 -45 -15 -88t-17.5 -86t-15.5 -86.5t-10 -91.5q-2 -41 -1 -80t13 -71q17 5 28.5 19.5
t19.5 29.5q23 40 41 82.5t35 85.5l34 86t38 84q8 15 17 30.5t17 32.5q2 4 7 13.5t11 19.5t12.5 17t11.5 6t6.5 -5.5t1 -10t-2 -11t-2.5 -8.5q-2 -9 -6 -18.5t-7 -16.5q-29 -70 -56.5 -138.5t-53.5 -137.5q-10 -26 -18.5 -54t-19 -54.5t-23.5 -50t-31 -40.5q-8 -8 -19 -14
t-23 -8.5t-24 -0.5t-22 11q-19 16 -30 43t-15.5 59.5t-4 68.5t3.5 71q8 72 21 135t26 118zM207 526q13 2 21.5 -4t10.5 -17q2 -10 -3 -18.5t-14 -14t-20 -7t-20 2.5l-5.5 5.5t-4.5 6.5q-4 18 8.5 31t26.5 15zM87 525q12 2 21.5 -11t8.5 -25q0 -11 -8.5 -18.5t-18.5 -9.5
t-19.5 2t-11.5 16q-2 15 7.5 29.5t20.5 16.5z" />
    <glyph glyph-name="yacute" unicode="&#xfd;" horiz-adv-x="502" 
d="M407 189q8 3 14 9t12 11q45 41 90 84t86 88q6 -13 4.5 -24.5t-7.5 -22t-14.5 -19.5t-14.5 -16q-70 -85 -153 -162q-8 -7 -17.5 -15t-13.5 -16q-7 -17 -9.5 -42t-6.5 -45q-11 -63 -25.5 -126.5t-30.5 -123.5q-16 -61 -33.5 -119.5t-40 -112.5t-51 -102.5t-65.5 -88.5
q-25 -27 -55 -49t-65 -35q-19 -7 -42 -9.5t-46.5 -1t-44.5 7t-37 13.5q-33 18 -52.5 48.5t-23.5 79.5q-3 39 2.5 74t16.5 66.5t26 59t30 49.5q34 49 74 90t82 78q75 67 149.5 133t149.5 135q9 8 22.5 19t18.5 20q6 11 9 30.5t5 33.5q11 49 20.5 97.5t14.5 99.5
q-9 -2 -14.5 -9.5t-11.5 -14.5t-12.5 -13t-12.5 -14q-11 -15 -20.5 -33t-19.5 -36q-9 -17 -18.5 -34.5t-20.5 -34.5q-20 -34 -44.5 -65t-59.5 -47q-9 -4 -20.5 -5.5t-24.5 1.5q-9 2 -20 8t-21.5 13.5t-19.5 16.5t-14 18q-12 23 -17.5 55t-4.5 63q1 32 7.5 64.5t4.5 63.5
q0 7 -2.5 13.5t1.5 12.5q24 1 50 -8.5t33 -28.5q4 -11 2 -27t-4 -31q-2 -19 -5 -42t-4.5 -46t-1 -45t6.5 -40q23 11 41.5 27.5t35.5 35.5q17 17 33.5 36.5t29.5 42.5q11 19 21.5 40t22 41t25 37t31.5 29q12 8 27 8.5t28.5 -4t24 -13.5t15.5 -19q6 -15 6 -31q1 -23 -3 -46
t-10 -46t-11.5 -45.5t-6.5 -43.5zM140 -106q-43 -38 -85 -77.5t-84 -80.5q-40 -40 -76.5 -84.5t-59.5 -105.5q-9 -24 -14.5 -50.5t-6 -52.5t4.5 -51t17 -46q7 -11 17.5 -24t22.5 -18q14 -6 30 -6.5t32 2.5t31 8.5t27 10.5q38 18 67 46t51.5 62t40.5 72.5t33 77.5
q44 109 76.5 224t55.5 244q0 1 -1 1q0 1 -0.5 1t-0.5 -1q-46 -36 -89.5 -74.5t-88.5 -77.5zM113 479q2 2 6 0.5t6 0.5q23 11 47.5 22.5t50.5 23.5q25 11 50.5 23.5t52.5 17.5q8 2 18 -5.5t9 -15.5q-1 -5 -6.5 -9.5t-12.5 -8.5t-14.5 -7.5t-11.5 -6.5q-28 -15 -50 -27
t-51 -26q-11 -5 -27 -13.5t-30 -6.5t-23.5 14.5t-13.5 23.5z" />
    <glyph glyph-name="thorn" unicode="&#xfe;" horiz-adv-x="615" 
d="M174 464q33 44 73.5 63t92.5 19q104 0 162 -73t58 -204t-58 -205t-162 -74q-108 0 -167 78h-6q6 -64 6 -84v-224h-88v1000h88v-224q0 -34 -3 -72h4zM325 472q-79 0 -115 -43.5t-37 -140.5v-19q0 -109 36 -157.5t117 -48.5q143 0 143 207q0 102 -35 152t-109 50z" />
    <glyph glyph-name="ydieresis" unicode="&#xff;" horiz-adv-x="502" 
d="M407 189q8 3 14 9t12 11q45 41 90 84t86 88q6 -13 4.5 -24.5t-7.5 -22t-14.5 -19.5t-14.5 -16q-70 -85 -153 -162q-8 -7 -17.5 -15t-13.5 -16q-7 -17 -9.5 -42t-6.5 -45q-11 -63 -25.5 -126.5t-30.5 -123.5q-16 -61 -33.5 -119.5t-40 -112.5t-51 -102.5t-65.5 -88.5
q-25 -27 -55 -49t-65 -35q-19 -7 -42 -9.5t-46.5 -1t-44.5 7t-37 13.5q-33 18 -52.5 48.5t-23.5 79.5q-3 39 2.5 74t16.5 66.5t26 59t30 49.5q34 49 74 90t82 78q75 67 149.5 133t149.5 135q9 8 22.5 19t18.5 20q6 11 9 30.5t5 33.5q11 49 20.5 97.5t14.5 99.5
q-9 -2 -14.5 -9.5t-11.5 -14.5t-12.5 -13t-12.5 -14q-11 -15 -20.5 -33t-19.5 -36q-9 -17 -18.5 -34.5t-20.5 -34.5q-20 -34 -44.5 -65t-59.5 -47q-9 -4 -20.5 -5.5t-24.5 1.5q-9 2 -20 8t-21.5 13.5t-19.5 16.5t-14 18q-12 23 -17.5 55t-4.5 63q1 32 7.5 64.5t4.5 63.5
q0 7 -2.5 13.5t1.5 12.5q24 1 50 -8.5t33 -28.5q4 -11 2 -27t-4 -31q-2 -19 -5 -42t-4.5 -46t-1 -45t6.5 -40q23 11 41.5 27.5t35.5 35.5q17 17 33.5 36.5t29.5 42.5q11 19 21.5 40t22 41t25 37t31.5 29q12 8 27 8.5t28.5 -4t24 -13.5t15.5 -19q6 -15 6 -31q1 -23 -3 -46
t-10 -46t-11.5 -45.5t-6.5 -43.5zM140 -106q-43 -38 -85 -77.5t-84 -80.5q-40 -40 -76.5 -84.5t-59.5 -105.5q-9 -24 -14.5 -50.5t-6 -52.5t4.5 -51t17 -46q7 -11 17.5 -24t22.5 -18q14 -6 30 -6.5t32 2.5t31 8.5t27 10.5q38 18 67 46t51.5 62t40.5 72.5t33 77.5
q44 109 76.5 224t55.5 244q0 1 -1 1q0 1 -0.5 1t-0.5 -1q-46 -36 -89.5 -74.5t-88.5 -77.5zM283 540q13 2 21.5 -4t10.5 -17q2 -10 -3 -18.5t-14 -14t-20 -7t-20 2.5l-5.5 5.5t-4.5 6.5q-4 18 8.5 31t26.5 15zM163 539q12 2 21.5 -11t8.5 -25q0 -11 -8.5 -18.5t-18.5 -9.5
t-19.5 2t-11.5 16q-2 15 7.5 29.5t20.5 16.5z" />
    <glyph glyph-name="Amacron" unicode="&#x100;" horiz-adv-x="639" 
d="M178 842h297v-71h-297v71zM461 486q88 20 183 38.5t198 29.5q36 4 78.5 6t82 -1.5t71.5 -15.5t47 -36q5 -9 7.5 -20.5t1 -23t-6.5 -21.5t-15 -16q-4 14 -6 27.5t-10 22.5q-9 11 -26.5 18t-39 10.5t-45 4.5t-43.5 1q-69 0 -131.5 -9.5t-121.5 -22t-116 -26.5t-114 -23
q-11 -89 -23 -179.5t-22 -184t-16.5 -190t-6.5 -198.5q0 -28 2 -54.5t14 -46.5q12 4 19 14t14 19q24 34 43.5 74t35.5 83.5t30 88t28 88.5q29 88 59 176.5t59 176.5q4 11 8 24t15 20q2 -29 -5.5 -57t-14.5 -56q-32 -139 -69 -272.5t-76 -267.5q-8 -27 -17 -52.5t-21.5 -47
t-30.5 -37.5t-43 -25q-34 -12 -56 -2t-36 32.5t-21 52t-10 56.5q-7 62 -6 131t6 131q10 130 27 248t33 239q-26 -2 -54 -7.5t-57 -7.5q-17 -59 -35 -119t-37.5 -118.5t-41.5 -115t-48 -108.5q-13 -26 -27 -50t-33 -46q-17 -20 -40.5 -39t-55.5 -18q-23 1 -42.5 11t-34 27
t-23 39.5t-10.5 46.5q-1 17 -0.5 35.5t8.5 33.5q14 -5 25.5 -16t16.5 -26q4 -12 5 -25l2 -26t4.5 -23.5t12.5 -17.5q37 13 61.5 42t44.5 61q61 96 101 212t75 237q-27 3 -56.5 3.5t-57 4t-50 12.5t-33.5 27q-3 6 -6 15t-4.5 19.5t-1 21t3.5 19.5q7 -3 10.5 -9t7 -12.5
t7.5 -13t12 -10.5q16 -8 39 -12t48.5 -5.5t51 -2t46.5 -1.5q16 45 30.5 93t31 96t36 93.5t43.5 84.5q6 10 18 24.5t23 15.5q10 0 24.5 -2.5t28 -7t24.5 -10t15 -11.5q7 -8 10 -21t4 -24q3 -38 -3 -75t-12 -75q-5 -38 -10 -75t-10 -71zM395 789q-35 -77 -62.5 -161.5
t-53.5 -172.5q28 2 54.5 5.5t50.5 9.5q11 77 27.5 154.5t22.5 155.5q1 5 1.5 11t-4.5 9q-9 -2 -17.5 -5.5t-18.5 -5.5z" />
    <glyph glyph-name="amacron" unicode="&#x101;" horiz-adv-x="561" 
d="M143 677h297v-71h-297v71zM158 356q2 9 10 10t18 -1t19.5 -6t15.5 -6q7 -27 3.5 -55t-8.5 -54q-8 -53 -17.5 -103.5t-9.5 -113.5q0 -29 1.5 -58t12.5 -50q11 8 17.5 19.5t11.5 23.5q29 61 50 129t47 132q11 26 21 52t24 46q8 11 19.5 22t28.5 10q-4 -16 -11.5 -30
t-15.5 -28q-20 -43 -35.5 -88.5t-29.5 -99.5q-8 -33 -18 -65t-22 -64q-11 -29 -26.5 -59.5t-35.5 -47.5q-14 -13 -33 -10.5t-34 14.5q-18 15 -28 39.5t-14.5 55t-5 64.5t1.5 66q-11 -11 -27.5 -21.5t-39.5 -2.5q-12 4 -22 14.5t-17 20.5q-17 25 -18.5 54.5t6.5 59t22 56
t28 44.5q8 10 17 21t17 16q17 9 39 4.5t38 -10.5zM83 253q-15 -32 -26 -69t-1 -73q23 17 38 41.5t29 50.5t20.5 58.5t10.5 67.5q-13 -1 -23.5 -9t-19 -19t-15.5 -24t-13 -24z" />
    <glyph glyph-name="Abreve" unicode="&#x102;" horiz-adv-x="639" 
d="M316 771q-69 0 -108.5 33.5t-44.5 100.5h54q4 -35 24.5 -49t76.5 -14q49 0 73 15.5t28 47.5h55q-6 -64 -48 -99t-110 -35zM461 486q88 20 183 38.5t198 29.5q36 4 78.5 6t82 -1.5t71.5 -15.5t47 -36q5 -9 7.5 -20.5t1 -23t-6.5 -21.5t-15 -16q-4 14 -6 27.5t-10 22.5
q-9 11 -26.5 18t-39 10.5t-45 4.5t-43.5 1q-69 0 -131.5 -9.5t-121.5 -22t-116 -26.5t-114 -23q-11 -89 -23 -179.5t-22 -184t-16.5 -190t-6.5 -198.5q0 -28 2 -54.5t14 -46.5q12 4 19 14t14 19q24 34 43.5 74t35.5 83.5t30 88t28 88.5q29 88 59 176.5t59 176.5q4 11 8 24
t15 20q2 -29 -5.5 -57t-14.5 -56q-32 -139 -69 -272.5t-76 -267.5q-8 -27 -17 -52.5t-21.5 -47t-30.5 -37.5t-43 -25q-34 -12 -56 -2t-36 32.5t-21 52t-10 56.5q-7 62 -6 131t6 131q10 130 27 248t33 239q-26 -2 -54 -7.5t-57 -7.5q-17 -59 -35 -119t-37.5 -118.5
t-41.5 -115t-48 -108.5q-13 -26 -27 -50t-33 -46q-17 -20 -40.5 -39t-55.5 -18q-23 1 -42.5 11t-34 27t-23 39.5t-10.5 46.5q-1 17 -0.5 35.5t8.5 33.5q14 -5 25.5 -16t16.5 -26q4 -12 5 -25l2 -26t4.5 -23.5t12.5 -17.5q37 13 61.5 42t44.5 61q61 96 101 212t75 237
q-27 3 -56.5 3.5t-57 4t-50 12.5t-33.5 27q-3 6 -6 15t-4.5 19.5t-1 21t3.5 19.5q7 -3 10.5 -9t7 -12.5t7.5 -13t12 -10.5q16 -8 39 -12t48.5 -5.5t51 -2t46.5 -1.5q16 45 30.5 93t31 96t36 93.5t43.5 84.5q6 10 18 24.5t23 15.5q10 0 24.5 -2.5t28 -7t24.5 -10t15 -11.5
q7 -8 10 -21t4 -24q3 -38 -3 -75t-12 -75q-5 -38 -10 -75t-10 -71zM395 789q-35 -77 -62.5 -161.5t-53.5 -172.5q28 2 54.5 5.5t50.5 9.5q11 77 27.5 154.5t22.5 155.5q1 5 1.5 11t-4.5 9q-9 -2 -17.5 -5.5t-18.5 -5.5z" />
    <glyph glyph-name="abreve" unicode="&#x103;" horiz-adv-x="561" 
d="M281 606q-69 0 -108.5 33.5t-44.5 100.5h54q4 -35 24.5 -49t76.5 -14q49 0 73 15.5t28 47.5h55q-6 -64 -48 -99t-110 -35zM158 356q2 9 10 10t18 -1t19.5 -6t15.5 -6q7 -27 3.5 -55t-8.5 -54q-8 -53 -17.5 -103.5t-9.5 -113.5q0 -29 1.5 -58t12.5 -50q11 8 17.5 19.5
t11.5 23.5q29 61 50 129t47 132q11 26 21 52t24 46q8 11 19.5 22t28.5 10q-4 -16 -11.5 -30t-15.5 -28q-20 -43 -35.5 -88.5t-29.5 -99.5q-8 -33 -18 -65t-22 -64q-11 -29 -26.5 -59.5t-35.5 -47.5q-14 -13 -33 -10.5t-34 14.5q-18 15 -28 39.5t-14.5 55t-5 64.5t1.5 66
q-11 -11 -27.5 -21.5t-39.5 -2.5q-12 4 -22 14.5t-17 20.5q-17 25 -18.5 54.5t6.5 59t22 56t28 44.5q8 10 17 21t17 16q17 9 39 4.5t38 -10.5zM83 253q-15 -32 -26 -69t-1 -73q23 17 38 41.5t29 50.5t20.5 58.5t10.5 67.5q-13 -1 -23.5 -9t-19 -19t-15.5 -24t-13 -24z" />
    <glyph glyph-name="Aogonek" unicode="&#x104;" horiz-adv-x="644" 
d="M461 486q88 20 183 38.5t198 29.5q36 4 78.5 6t82 -1.5t71.5 -15.5t47 -36q5 -9 7.5 -20.5t1 -23t-6.5 -21.5t-15 -16q-4 14 -6 27.5t-10 22.5q-9 11 -26.5 18t-39 10.5t-45 4.5t-43.5 1q-69 0 -131.5 -9.5t-121.5 -22t-116 -26.5t-114 -23q-11 -89 -23 -179.5t-22 -184
t-16.5 -190t-6.5 -198.5q0 -28 2 -54.5t14 -46.5q12 4 19 14t14 19q24 34 43.5 74t35.5 83.5t30 88t28 88.5q29 88 59 176.5t59 176.5q4 11 8 24t15 20q2 -29 -5.5 -57t-14.5 -56q-32 -139 -69 -272.5t-76 -267.5q-8 -27 -17 -52.5t-21.5 -47t-30.5 -37.5t-43 -25
q-28 -10 -47.5 -4.5t-33.5 20.5q-8 -18 -13.5 -35.5t-6.5 -37.5q-1 -9 -1 -19.5t1.5 -20.5t5.5 -18t10 -11q7 -4 16 -3.5t17.5 3.5t16 7t12.5 8q8 7 12.5 14t15.5 11q-1 -20 -9 -33.5t-20 -21.5q-24 -15 -52 -10t-43 19q-17 16 -23 39.5t-5 49.5t8 52t16 46l11 22
q-8 34 -11 62q-7 62 -6 131t6 131q10 130 27 248t33 239q-26 -2 -54 -7.5t-57 -7.5q-17 -59 -35 -119t-37.5 -118.5t-41.5 -115t-48 -108.5q-13 -26 -27 -50t-33 -46q-17 -20 -40.5 -39t-55.5 -18q-23 1 -42.5 11t-34 27t-23 39.5t-10.5 46.5q-1 17 -0.5 35.5t8.5 33.5
q14 -5 25.5 -16t16.5 -26q4 -12 5 -25l2 -26t4.5 -23.5t12.5 -17.5q37 13 61.5 42t44.5 61q61 96 101 212t75 237q-27 3 -56.5 3.5t-57 4t-50 12.5t-33.5 27q-3 6 -6 15t-4.5 19.5t-1 21t3.5 19.5q7 -3 10.5 -9t7 -12.5t7.5 -13t12 -10.5q16 -8 39 -12t48.5 -5.5t51 -2
t46.5 -1.5q16 45 30.5 93t31 96t36 93.5t43.5 84.5q6 10 18 24.5t23 15.5q10 0 24.5 -2.5t28 -7t24.5 -10t15 -11.5q7 -8 10 -21t4 -24q3 -38 -3 -75t-12 -75zM395 789q-35 -77 -62.5 -161.5t-53.5 -172.5q28 2 54.5 5.5t50.5 9.5q11 77 27.5 154.5t22.5 155.5q1 5 1.5 11
t-4.5 9q-9 -2 -17.5 -5.5t-18.5 -5.5z" />
    <glyph glyph-name="aogonek" unicode="&#x105;" horiz-adv-x="375" 
d="M158 356q2 9 10 10t18 -1t19.5 -6t15.5 -6q7 -27 3.5 -55t-8.5 -54q-8 -53 -17.5 -103.5t-9.5 -113.5q0 -29 1.5 -58t12.5 -50q11 8 17.5 19.5t11.5 23.5q29 61 50 129t47 132q11 26 21 52t24 46q8 11 19.5 22t28.5 10q-4 -16 -11.5 -30t-15.5 -28q-20 -43 -35.5 -88.5
t-29.5 -99.5q-8 -33 -18 -65t-22 -64q-11 -29 -26.5 -59.5t-35.5 -47.5q-14 -13 -33 -10.5t-34 14.5q-3 2 -5.5 5t-4.5 5q-5 -14 -8.5 -27.5t-4.5 -27.5q-1 -9 -1 -19.5t1.5 -20.5t5.5 -18t10 -11q7 -4 16 -3.5t17.5 3.5t16 7t12.5 8q8 7 12.5 14t15.5 11q-1 -20 -9 -33.5
t-20 -21.5q-24 -15 -52 -10t-43 19q-17 16 -23 39.5t-5 49.5t8 52t16 46q1 3 2 5.5t3 5.5q-7 34 -7.5 72t1.5 75q-11 -11 -27.5 -21.5t-39.5 -2.5q-12 4 -22 14.5t-17 20.5q-17 25 -18.5 54.5t6.5 59t22 56t28 44.5q8 10 17 21t17 16q17 9 39 4.5t38 -10.5zM83 253
q-15 -32 -26 -69t-1 -73q23 17 38 41.5t29 50.5t20.5 58.5t10.5 67.5q-13 -1 -23.5 -9t-19 -19t-15.5 -24t-13 -24z" />
    <glyph glyph-name="Cacute" unicode="&#x106;" horiz-adv-x="492" 
d="M564 320q7 -14 4 -29t-8 -29q-11 -38 -28 -74t-34 -71q-22 -47 -44.5 -91.5t-48.5 -92.5q-21 -40 -46.5 -86.5t-53.5 -90.5q-12 -20 -26.5 -41t-30.5 -40q-15 -18 -36 -34t-47 -21q-20 -3 -35.5 3t-29.5 14q-19 11 -35.5 20.5t-27.5 25.5q-14 23 -21.5 57.5t-10 74
t-2 81.5t2.5 80q9 163 30 297q17 108 41.5 205t68.5 177q9 15 19.5 32t23.5 31t29.5 23.5t36.5 11.5t40 -1.5t38 -10t34 -15t28 -16.5t25 -19t23 -24q5 -6 10 -13t7.5 -15.5t1.5 -17t-9 -15.5q-20 -3 -33.5 7t-24.5 19q-8 7 -18.5 17t-22.5 17.5t-26.5 10t-30.5 -3.5
q-12 -4 -21 -13t-17 -21t-15 -25.5t-13 -25.5q-38 -75 -60.5 -164.5t-39.5 -186.5q-16 -95 -25 -198t-9 -219q0 -14 0.5 -35.5t2.5 -42t7.5 -36.5t16.5 -19t21.5 0.5t18.5 8.5q38 22 67 61t54 75q66 96 122.5 199.5t107.5 211.5q8 17 16 32.5t17 30.5q3 5 6.5 10.5t9.5 3.5z
M140 838q2 2 6 0.5t6 0.5q23 11 47.5 22.5t50.5 23.5q25 11 50.5 23.5t52.5 17.5q8 2 18 -5.5t9 -15.5q-1 -5 -6.5 -9.5t-12.5 -8.5t-14.5 -7.5t-11.5 -6.5q-28 -15 -50 -27t-51 -26q-11 -5 -27 -13.5t-30 -6.5t-23.5 14.5t-13.5 23.5z" />
    <glyph glyph-name="cacute" unicode="&#x107;" horiz-adv-x="243" 
d="M71 115q23 3 40 15.5t32 26.5q37 34 67.5 75t61.5 81q5 8 12 15.5t17 9.5q5 -11 -0.5 -22.5t-10.5 -21.5q-26 -48 -58.5 -92.5t-72.5 -79.5q-17 -16 -37.5 -32t-43.5 -22q-13 -3 -24.5 0t-21 9.5t-16.5 14.5t-11 16q-9 17 -11 41q-3 43 8.5 76.5t25.5 65.5q14 31 30 61.5
t36 47.5q11 9 27.5 13.5t35.5 -0.5q12 -3 28 -10t16 -17q0 -8 -7 -12t-12 -5q-8 0 -15 4.5t-16 2.5q-6 -2 -10.5 -10.5t-8.5 -15.5q-22 -34 -39 -72.5t-25 -86.5q-3 -19 -4.5 -39t7.5 -37zM18 465q2 2 6 0.5t6 0.5q23 11 47.5 22.5t50.5 23.5q25 11 50.5 23.5t52.5 17.5
q8 2 18 -5.5t9 -15.5q-1 -5 -6.5 -9.5t-12.5 -8.5t-14.5 -7.5t-11.5 -6.5q-28 -15 -50 -27t-51 -26q-11 -5 -27 -13.5t-30 -6.5t-23.5 14.5t-13.5 23.5z" />
    <glyph glyph-name="Ccircumflex" unicode="&#x108;" horiz-adv-x="631" 
d="M220 782q61 65 86 96.5t37 52.5h90q25 -49 125 -149v-11h-62q-44 26 -109 90q-64 -62 -107 -90h-60v11zM564 320q7 -14 4 -29t-8 -29q-11 -38 -28 -74t-34 -71q-22 -47 -44.5 -91.5t-48.5 -92.5q-21 -40 -46.5 -86.5t-53.5 -90.5q-12 -20 -26.5 -41t-30.5 -40
q-15 -18 -36 -34t-47 -21q-20 -3 -35.5 3t-29.5 14q-19 11 -35.5 20.5t-27.5 25.5q-14 23 -21.5 57.5t-10 74t-2 81.5t2.5 80q9 163 30 297q17 108 41.5 205t68.5 177q9 15 19.5 32t23.5 31t29.5 23.5t36.5 11.5t40 -1.5t38 -10t34 -15t28 -16.5t25 -19t23 -24q5 -6 10 -13
t7.5 -15.5t1.5 -17t-9 -15.5q-20 -3 -33.5 7t-24.5 19q-8 7 -18.5 17t-22.5 17.5t-26.5 10t-30.5 -3.5q-12 -4 -21 -13t-17 -21t-15 -25.5t-13 -25.5q-38 -75 -60.5 -164.5t-39.5 -186.5q-16 -95 -25 -198t-9 -219q0 -14 0.5 -35.5t2.5 -42t7.5 -36.5t16.5 -19t21.5 0.5
t18.5 8.5q38 22 67 61t54 75q66 96 122.5 199.5t107.5 211.5q8 17 16 32.5t17 30.5q3 5 6.5 10.5t9.5 3.5z" />
    <glyph glyph-name="ccircumflex" unicode="&#x109;" horiz-adv-x="479" 
d="M118 617q61 65 86 96.5t37 52.5h90q25 -49 125 -149v-11h-62q-44 26 -109 90q-64 -62 -107 -90h-60v11zM51 115q23 3 40 15.5t32 26.5q37 34 67.5 75t61.5 81q5 8 12 15.5t17 9.5q5 -11 -0.5 -22.5t-10.5 -21.5q-26 -48 -58.5 -92.5t-72.5 -79.5q-17 -16 -37.5 -32
t-43.5 -22q-13 -3 -24.5 0t-21 9.5t-16.5 14.5t-11 16q-9 17 -11 41q-3 43 8.5 76.5t25.5 65.5q14 31 30 61.5t36 47.5q11 9 27.5 13.5t35.5 -0.5q12 -3 28 -10t16 -17q0 -8 -7 -12t-12 -5q-8 0 -15 4.5t-16 2.5q-6 -2 -10.5 -10.5t-8.5 -15.5q-22 -34 -39 -72.5t-25 -86.5
q-3 -19 -4.5 -39t7.5 -37z" />
    <glyph glyph-name="Cdotaccent" unicode="&#x10a;" horiz-adv-x="631" 
d="M337 846q0 29 15 42.5t37 13.5q21 0 36 -13.5t15 -42.5t-15.5 -42.5t-35.5 -13.5q-22 0 -37 13.5t-15 42.5zM564 320q7 -14 4 -29t-8 -29q-11 -38 -28 -74t-34 -71q-22 -47 -44.5 -91.5t-48.5 -92.5q-21 -40 -46.5 -86.5t-53.5 -90.5q-12 -20 -26.5 -41t-30.5 -40
q-15 -18 -36 -34t-47 -21q-20 -3 -35.5 3t-29.5 14q-19 11 -35.5 20.5t-27.5 25.5q-14 23 -21.5 57.5t-10 74t-2 81.5t2.5 80q9 163 30 297q17 108 41.5 205t68.5 177q9 15 19.5 32t23.5 31t29.5 23.5t36.5 11.5t40 -1.5t38 -10t34 -15t28 -16.5t25 -19t23 -24q5 -6 10 -13
t7.5 -15.5t1.5 -17t-9 -15.5q-20 -3 -33.5 7t-24.5 19q-8 7 -18.5 17t-22.5 17.5t-26.5 10t-30.5 -3.5q-12 -4 -21 -13t-17 -21t-15 -25.5t-13 -25.5q-38 -75 -60.5 -164.5t-39.5 -186.5q-16 -95 -25 -198t-9 -219q0 -14 0.5 -35.5t2.5 -42t7.5 -36.5t16.5 -19t21.5 0.5
t18.5 8.5q38 22 67 61t54 75q66 96 122.5 199.5t107.5 211.5q8 17 16 32.5t17 30.5q3 5 6.5 10.5t9.5 3.5z" />
    <glyph glyph-name="cdotaccent" unicode="&#x10b;" horiz-adv-x="479" 
d="M241 681q0 29 15 42.5t37 13.5q21 0 36 -13.5t15 -42.5t-15.5 -42.5t-35.5 -13.5q-22 0 -37 13.5t-15 42.5zM51 115q23 3 40 15.5t32 26.5q37 34 67.5 75t61.5 81q5 8 12 15.5t17 9.5q5 -11 -0.5 -22.5t-10.5 -21.5q-26 -48 -58.5 -92.5t-72.5 -79.5q-17 -16 -37.5 -32
t-43.5 -22q-13 -3 -24.5 0t-21 9.5t-16.5 14.5t-11 16q-9 17 -11 41q-3 43 8.5 76.5t25.5 65.5q14 31 30 61.5t36 47.5q11 9 27.5 13.5t35.5 -0.5q12 -3 28 -10t16 -17q0 -8 -7 -12t-12 -5q-8 0 -15 4.5t-16 2.5q-6 -2 -10.5 -10.5t-8.5 -15.5q-22 -34 -39 -72.5t-25 -86.5
q-3 -19 -4.5 -39t7.5 -37z" />
    <glyph glyph-name="Ccaron" unicode="&#x10c;" horiz-adv-x="631" 
d="M220 931h60q56 -36 107 -92q62 62 109 92h62v-13q-100 -100 -125 -147h-90q-29 50 -123 147v13zM564 320q7 -14 4 -29t-8 -29q-11 -38 -28 -74t-34 -71q-22 -47 -44.5 -91.5t-48.5 -92.5q-21 -40 -46.5 -86.5t-53.5 -90.5q-12 -20 -26.5 -41t-30.5 -40q-15 -18 -36 -34
t-47 -21q-20 -3 -35.5 3t-29.5 14q-19 11 -35.5 20.5t-27.5 25.5q-14 23 -21.5 57.5t-10 74t-2 81.5t2.5 80q9 163 30 297q17 108 41.5 205t68.5 177q9 15 19.5 32t23.5 31t29.5 23.5t36.5 11.5t40 -1.5t38 -10t34 -15t28 -16.5t25 -19t23 -24q5 -6 10 -13t7.5 -15.5
t1.5 -17t-9 -15.5q-20 -3 -33.5 7t-24.5 19q-8 7 -18.5 17t-22.5 17.5t-26.5 10t-30.5 -3.5q-12 -4 -21 -13t-17 -21t-15 -25.5t-13 -25.5q-38 -75 -60.5 -164.5t-39.5 -186.5q-16 -95 -25 -198t-9 -219q0 -14 0.5 -35.5t2.5 -42t7.5 -36.5t16.5 -19t21.5 0.5t18.5 8.5
q38 22 67 61t54 75q66 96 122.5 199.5t107.5 211.5q8 17 16 32.5t17 30.5q3 5 6.5 10.5t9.5 3.5z" />
    <glyph glyph-name="ccaron" unicode="&#x10d;" horiz-adv-x="479" 
d="M122 766h60q56 -36 107 -92q62 62 109 92h62v-13q-100 -100 -125 -147h-90q-29 50 -123 147v13zM51 115q23 3 40 15.5t32 26.5q37 34 67.5 75t61.5 81q5 8 12 15.5t17 9.5q5 -11 -0.5 -22.5t-10.5 -21.5q-26 -48 -58.5 -92.5t-72.5 -79.5q-17 -16 -37.5 -32t-43.5 -22
q-13 -3 -24.5 0t-21 9.5t-16.5 14.5t-11 16q-9 17 -11 41q-3 43 8.5 76.5t25.5 65.5q14 31 30 61.5t36 47.5q11 9 27.5 13.5t35.5 -0.5q12 -3 28 -10t16 -17q0 -8 -7 -12t-12 -5q-8 0 -15 4.5t-16 2.5q-6 -2 -10.5 -10.5t-8.5 -15.5q-22 -34 -39 -72.5t-25 -86.5
q-3 -19 -4.5 -39t7.5 -37z" />
    <glyph glyph-name="Dcaron" unicode="&#x10e;" horiz-adv-x="729" 
d="M170 931h60q56 -36 107 -92q62 62 109 92h62v-13q-100 -100 -125 -147h-90q-29 50 -123 147v13zM670 436q14 3 32.5 9.5t35.5 12.5q8 2 18 4t19 0.5t15 -7.5t6 -18q-7 -7 -16 -8t-17 -3q-24 -7 -48 -17t-47 -19q-17 -149 -65 -269.5t-116 -221.5q-24 -36 -50.5 -73
t-57.5 -70t-67 -60.5t-80 -45.5q-14 -6 -31.5 -10t-35 -3.5t-34 6t-27.5 19.5q-25 22 -33 55.5t-6 70.5t11.5 73t19.5 63q23 61 57 112t73 94q81 88 181 156t209 125q7 55 4.5 111t-19.5 98q-8 20 -20 38.5t-29 31.5t-39 20t-51 5q-25 -2 -46 -10.5t-39 -20.5t-33.5 -26.5
t-28.5 -29.5q-41 -47 -73 -102.5t-57 -117.5t-45.5 -129.5t-39.5 -137.5q-12 -45 -20.5 -94t-18.5 -101q-5 -24 -10 -48.5t-8 -50.5q-2 -12 -2 -27.5t-1 -30t-3.5 -26.5t-7.5 -18q-7 -8 -18.5 -11t-23 -1t-21 7.5t-12.5 13.5q-5 11 -2 27.5t6 32.5q35 193 56 394.5t32 421.5
q2 33 0.5 66.5t6.5 65.5q8 -2 19.5 -2t23.5 -0.5t22 -2.5t15 -6q9 -8 11.5 -25.5t2.5 -38t-1.5 -41.5t-2.5 -34q-2 -39 -6.5 -74.5t-6.5 -67.5q29 44 57.5 94t65 93t85 73t117.5 35q34 2 61 -5t48.5 -20t37.5 -32t27 -41q23 -47 32.5 -105t8.5 -126zM277 115
q-28 -34 -55 -70t-48.5 -78t-34 -93t-11.5 -114q0 -17 1 -36t9 -27t26.5 -6t31.5 7q40 14 70.5 38.5t56.5 50.5q54 54 101 115.5t84.5 132t63.5 151.5t40 175v1l-1 1l-1 -1q-97 -50 -180.5 -111t-152.5 -136z" />
    </font>
</defs>
</svg>
