<?xml version="1.0" standalone="no"?>
<!DOCTYPE svg PUBLIC "-//W3C//DTD SVG 1.1//EN" "http://www.w3.org/Graphics/SVG/1.1/DTD/svg11.dtd" >
<svg xmlns="http://www.w3.org/2000/svg" xmlns:xlink="http://www.w3.org/1999/xlink" version="1.1">
<metadata>
Created by FontForge 20190801 at Mon Feb  8 12:16:24 2021
 By root
Copyright 2018 The Mali Project Authors (https://github.com/cadsondemak/Mali)
</metadata>
<defs>
<font id="Mali-Italic" horiz-adv-x="320" >
  <font-face 
    font-family="Mali"
    font-weight="400"
    font-style="italic"
    font-stretch="normal"
    units-per-em="1000"
    panose-1="0 0 5 0 0 0 0 0 0 0"
    ascent="800"
    descent="-200"
    x-height="506"
    cap-height="709"
    bbox="-213 -278 1532 1112"
    underline-thickness="50"
    underline-position="-100"
    slope="-10"
    unicode-range="U+0001-206F"
  />
<missing-glyph horiz-adv-x="364" 
d="M33 0v666h265v-666h-265zM66 33h199v600h-199v-600z" />
    <glyph glyph-name=".notdef" horiz-adv-x="364" 
d="M33 0v666h265v-666h-265zM66 33h199v600h-199v-600z" />
    <glyph glyph-name=".null" horiz-adv-x="0" 
 />
    <glyph glyph-name="nonmarkingreturn" unicode="&#xd;" 
 />
    <glyph glyph-name="NULL" 
 />
    <glyph glyph-name="NULL" 
 />
    <glyph glyph-name="uni0001" 
 />
    <glyph glyph-name="uni0002" 
 />
    <glyph glyph-name="uni0003" 
 />
    <glyph glyph-name="uni0004" 
 />
    <glyph glyph-name="uni0005" 
 />
    <glyph glyph-name="uni0006" 
 />
    <glyph glyph-name="uni0007" 
 />
    <glyph glyph-name="uni0008" 
 />
    <glyph glyph-name="uni0009" unicode="&#x9;" 
 />
    <glyph glyph-name="uni000A" unicode="&#xa;" 
 />
    <glyph glyph-name="uni000B" 
 />
    <glyph glyph-name="uni000C" 
 />
    <glyph glyph-name="uni000E" 
 />
    <glyph glyph-name="uni000F" 
 />
    <glyph glyph-name="uni0010" 
 />
    <glyph glyph-name="uni0011" 
 />
    <glyph glyph-name="uni0012" 
 />
    <glyph glyph-name="uni0013" 
 />
    <glyph glyph-name="uni0014" 
 />
    <glyph glyph-name="uni0015" 
 />
    <glyph glyph-name="uni0016" 
 />
    <glyph glyph-name="uni0017" 
 />
    <glyph glyph-name="uni0018" 
 />
    <glyph glyph-name="uni0019" 
 />
    <glyph glyph-name="uni001A" 
 />
    <glyph glyph-name="uni001B" 
 />
    <glyph glyph-name="uni001C" 
 />
    <glyph glyph-name="uni001D" 
 />
    <glyph glyph-name="uni001E" 
 />
    <glyph glyph-name="uni001F" 
 />
    <glyph glyph-name="space" unicode=" " 
 />
    <glyph glyph-name="exclam" unicode="!" horiz-adv-x="265" 
d="M105.5 180.5q-4.5 9.5 -2.5 23.5l79 480q2 16 12 25t24 9q23 0 23 -22q0 -8 -1 -12l-80 -476q-3 -16 -13 -26.5t-23 -10.5q-14 0 -18.5 9.5zM53.5 15q-14.5 15 -14.5 37q0 26 22.5 47.5t49.5 21.5q21 0 37 -15.5t16 -35.5q0 -26 -24.5 -48t-49.5 -22q-22 0 -36.5 15z" />
    <glyph glyph-name="quotedbl" unicode="&#x22;" horiz-adv-x="353" 
d="M129 485q-7 7 -5 17q14 66 36 193q2 8 11.5 13.5t22.5 5.5q14 0 21.5 -5.5t5.5 -13.5l-10 -54q-17 -85 -25 -141q-1 -10 -11.5 -16t-24.5 -6t-21 7zM259 485q-7 7 -5 17q14 66 36 193q2 8 11.5 13.5t22.5 5.5q14 0 21.5 -5.5t5.5 -13.5l-10 -54q-17 -85 -25 -141
q-1 -10 -11.5 -16t-24.5 -6t-21 7z" />
    <glyph glyph-name="numbersign" unicode="#" horiz-adv-x="615" 
d="M565 417q0 -17 -10.5 -26t-27.5 -9h-42l-60 -183h58q13 0 20 -6t7 -17q0 -14 -11 -24.5t-26 -10.5h-67l-37 -115q-5 -14 -13.5 -20t-23.5 -6q-12 0 -18 8t-3 17l38 116h-155l-36 -115q-9 -27 -35 -27q-22 0 -22 22q0 9 2 14l33 106h-43q-13 0 -20 6t-7 16q0 14 10.5 24.5
t26.5 10.5h51l59 187h-42q-27 0 -27 22q0 16 10.5 26t26.5 10l50 -1l49 156q10 31 36 31q23 0 23 -21q0 -10 -2 -15l-48 -151l157 -2l54 167q4 11 13.5 18t20.5 7q23 0 23 -22q0 -8 -2 -13l-51 -158h33q28 0 28 -22zM427 383l-156 1l-59 -186l155 1z" />
    <glyph glyph-name="dollar" unicode="$" horiz-adv-x="563" 
d="M506 649q45 -46 45 -112q0 -36 -12.5 -48.5t-34.5 -12.5q-20 0 -26.5 7t-6.5 21l1 21q0 41 -25 72.5t-72 37.5l-39 -222l-6 -32q70 -24 119 -65t49 -121q0 -58 -30 -102t-83 -68t-120 -24h-4l-16 -86q-3 -20 -25 -20q-10 0 -15.5 4t-4.5 11q8 48 18 94q-78 12 -121 61.5
t-43 127.5q0 35 10.5 48.5t35.5 13.5q24 0 29.5 -11.5t5.5 -46.5q1 -56 26.5 -86t68.5 -37q14 74 32 173l13 72q-73 24 -121.5 61.5t-48.5 114.5q0 58 32 105.5t86.5 76t118.5 30.5q9 47 15 84q2 7 9.5 12.5t16.5 5.5t15 -5t5 -11l-16 -88q74 -10 119 -56zM209.5 432.5
q26.5 -20.5 79.5 -37.5l1 7l40 234q-41 -4 -74.5 -25t-53 -52t-19.5 -65q0 -41 26.5 -61.5zM395.5 262.5q-25.5 22.5 -78.5 42.5q-27 -150 -43 -234q64 3 105.5 38.5t41.5 89.5q0 41 -25.5 63.5z" />
    <glyph glyph-name="percent" unicode="%" horiz-adv-x="855" 
d="M213 4q-9 7 -9 19q0 8 9 24l397 677q12 22 41 22q15 0 24 -7t9 -18q0 -8 -12 -27l-391 -671q-15 -26 -44 -26q-15 0 -24 7zM188.5 464.5q-32.5 31.5 -32.5 79.5q0 43 23 78.5t61.5 56.5t82.5 21q55 0 85.5 -31.5t30.5 -79.5q0 -42 -22 -78t-60 -57t-82 -21
q-54 0 -86.5 31.5zM348.5 516q24.5 25 24.5 66q0 27 -17 43.5t-44 16.5q-34 0 -61 -25t-27 -66q0 -28 17.5 -44t46.5 -16q36 0 60.5 25zM496.5 82q-32.5 32 -32.5 80q0 43 22.5 78.5t61 56.5t82.5 21q56 0 86.5 -32t30.5 -80q0 -42 -22 -78t-60 -57t-82 -21q-54 0 -86.5 32z
M655.5 134q24.5 26 24.5 64q0 27 -15.5 45t-44.5 18q-36 0 -62 -27.5t-26 -64.5q0 -28 16 -44.5t45 -16.5q38 0 62.5 26z" />
    <glyph glyph-name="ampersand" unicode="&#x26;" horiz-adv-x="722" 
d="M629 73q3 -5 3 -13q0 -14 -9 -25t-25 -11q-9 0 -27 9q-63 32 -90 48q-45 -33 -98 -51t-106 -18q-94 0 -145.5 45.5t-51.5 128.5q0 58 38.5 118t95.5 98q-32 16 -49.5 46t-17.5 67q0 52 26 92.5t70 63t95 22.5q65 0 110 -39t45 -99q0 -68 -42.5 -107.5t-118.5 -61.5
q25 -73 54 -123.5t73 -89.5q6 -6 14 -11q25 28 39.5 61t14.5 67q0 27 -6 41q-2 6 -2 9q0 12 13.5 22t28.5 10q21 0 30 -19q9 -18 9 -54q0 -49 -18.5 -93.5t-52.5 -80.5q24 -14 88 -43q9 -4 12 -9zM283 621q-28 -14 -46.5 -40.5t-18.5 -63.5q0 -32 20.5 -54t60.5 -24
q60 10 93 35t33 78q0 39 -25.5 61t-61.5 22q-27 0 -55 -14zM350.5 83.5q37.5 12.5 71.5 34.5l-21 18q-42 37 -75.5 96.5t-51.5 134.5q-54 -25 -89 -76.5t-35 -104.5q0 -47 32 -81t94 -34q37 0 74.5 12.5z" />
    <glyph glyph-name="quotesingle" unicode="'" horiz-adv-x="221" 
d="M128 485q-7 7 -5 17q14 66 36 193q2 8 11.5 13.5t22.5 5.5q14 0 21.5 -5.5t5.5 -13.5l-10 -54q-17 -85 -25 -141q-1 -10 -11.5 -16t-24.5 -6t-21 7z" />
    <glyph glyph-name="parenleft" unicode="(" horiz-adv-x="340" 
d="M174.5 -127q-4.5 1 -9.5 7q-56 56 -84.5 136t-28.5 174q0 104 35 215t97 201.5t139 133.5q11 7 23 7t20.5 -7t8.5 -18q0 -14 -6.5 -21.5t-17.5 -14.5t-18 -12q-66 -45 -114 -124.5t-73.5 -173.5t-25.5 -183q0 -91 25 -148.5t64 -106.5q13 -16 13 -31q0 -13 -10.5 -24
t-21.5 -11t-15.5 1z" />
    <glyph glyph-name="parenright" unicode=")" horiz-adv-x="340" 
d="M-1 -121q-8 7 -8 19q0 13 7 21t17.5 15l16.5 11q65 46 113.5 125.5t74.5 173t26 180.5q0 92 -26 149.5t-68 107.5q-13 14 -13 31q0 13 12.5 24t23.5 11t15 -1t9 -7q56 -57 85.5 -138.5t29.5 -175.5q0 -100 -35 -209t-97 -199.5t-140 -137.5q-11 -7 -23 -7t-20 7z" />
    <glyph glyph-name="asterisk" unicode="*" horiz-adv-x="497" 
d="M481.5 598.5q5.5 -7.5 5.5 -15.5q0 -16 -22 -26l-130 -61l112 -63q9 -5 9 -16q0 -12 -9 -22.5t-20 -10.5q-8 0 -18 5l-92 58l-18 -109q-2 -10 -11.5 -16.5t-21.5 -6.5t-18.5 6t-4.5 17l18 108l-103 -51q-15 -5 -18 -5q-8 0 -14.5 6.5t-6.5 15.5q0 17 15 24l122 60
l-116 66q-10 7 -10 16q0 10 9.5 20.5t19.5 10.5q9 0 17 -6l101 -60l20 119q4 27 32 27q15 0 20.5 -6.5t3.5 -20.5l-20 -120l108 56q21 8 27 8q8 0 13.5 -7.5z" />
    <glyph glyph-name="plus" unicode="+" horiz-adv-x="540" 
d="M499 339q7 -5 7 -16q0 -39 -42 -39l-158 2l-27 -154q-5 -33 -36 -33q-25 0 -25 21l16 101q4 19 6.5 35.5t4.5 29.5q-51 1 -163 1q-26 0 -26 21q0 18 10 28.5t28 10.5l162 -1l10 56q13 77 15 86q3 17 11 25t25 8q26 0 26 -20l-15 -90l-11 -66l158 -1q17 0 24 -5z" />
    <glyph glyph-name="comma" unicode="," horiz-adv-x="300" 
d="M174.5 128.5q18.5 -23.5 18.5 -63.5q0 -41 -17.5 -81t-47.5 -66q-25 -22 -52.5 -34.5t-52.5 -12.5q-11 0 -17.5 5t-6.5 14q0 12 8 20.5t17 8.5q40 0 78 33q16 13 27.5 32.5t16.5 39.5q-23 -21 -57 -21q-28 0 -44.5 17t-16.5 43q0 35 27.5 62t64.5 27q36 0 54.5 -23.5z
M129 54q13 13 13 31q0 12 -8.5 19.5t-23.5 7.5q-17 0 -29 -14t-12 -30q0 -12 7.5 -19.5t20.5 -7.5q19 0 32 13z" />
    <glyph glyph-name="hyphen" unicode="-" horiz-adv-x="422" 
d="M69 344.5q-6 7.5 -6 18.5q0 19 9.5 30.5t25.5 11.5q92 -2 123 -2q87 0 153 5q33 3 33 -25q0 -18 -12.5 -31t-32.5 -14l-39 -1q-70 -2 -121 -2q-33 0 -51 1l-67 1q-9 0 -15 7.5z" />
    <glyph glyph-name="period" unicode="." horiz-adv-x="296" 
d="M69.5 17q-13.5 13 -13.5 34q0 31 23 53t50 22q20 0 34.5 -15.5t14.5 -37.5q0 -27 -23 -48t-50 -21q-22 0 -35.5 13z" />
    <glyph glyph-name="slash" unicode="/" horiz-adv-x="525" 
d="M59.5 -5.5q-8.5 7.5 -8.5 19.5q0 11 9 26l415 819q7 12 13.5 16.5t17.5 4.5q15 0 25.5 -8t10.5 -22q0 -8 -3 -14.5t-4 -8.5l-415 -814q-14 -26 -34 -26q-18 0 -26.5 7.5z" />
    <glyph glyph-name="zero" unicode="0" horiz-adv-x="617" 
d="M146 46q-53 33 -80 88.5t-27 120.5q0 102 43.5 195.5t119.5 151.5t168 58q77 0 130 -37t79 -98t26 -132q0 -105 -42 -192t-117.5 -137.5t-171.5 -50.5q-75 0 -128 33zM406.5 119.5q57.5 42.5 89 113.5t31.5 155q0 90 -40.5 149t-115.5 59q-70 0 -128.5 -51t-92 -130.5
t-33.5 -157.5q0 -80 40.5 -130t116.5 -50q75 0 132.5 42.5z" />
    <glyph glyph-name="one" unicode="1" horiz-adv-x="447" 
d="M371.5 660q11.5 -13 9.5 -30l-106 -595q-2 -15 -14 -24t-30 -9q-20 0 -27 10t-4 23l94 531q-42 -45 -115 -116q-3 -3 -9.5 -5t-12.5 -2q-14 0 -22.5 10t-8.5 21q0 7 4 12t16 16q24 22 121 125l24 25q21 21 46 21q23 0 34.5 -13z" />
    <glyph glyph-name="two" unicode="2" horiz-adv-x="557" 
d="M453.5 63.5q8.5 -7.5 8.5 -19.5q0 -17 -13 -27.5t-31 -10.5q-12 0 -56 2q-99 3 -129 3q-109 0 -186 -4q-12 0 -20 5.5t-8 14.5q0 59 88.5 141t193.5 147q158 100 158 216q0 49 -32 79t-86 30q-59 0 -102 -41t-52 -97q-4 -15 -14.5 -22t-29.5 -7q-31 0 -31 27
q0 52 31.5 99.5t84 76t113.5 28.5q56 0 101 -23t70.5 -62.5t25.5 -87.5q0 -82 -54.5 -147t-148.5 -123q-74 -44 -133 -93.5t-86 -95.5q39 2 128 2q72 0 186 -3q15 0 23.5 -7.5z" />
    <glyph glyph-name="three" unicode="3" horiz-adv-x="586" 
d="M521.5 303.5q20.5 -36.5 20.5 -82.5q0 -62 -29.5 -111.5t-88 -78.5t-142.5 -29q-103 0 -174.5 45.5t-71.5 140.5q0 29 6 62q8 42 45 42q16 0 25 -7.5t9 -18.5q0 -3 -2 -9q-5 -32 -5 -51q0 -140 169 -140q80 0 132.5 41t52.5 114q0 51 -33 77t-106 26q-31 0 -26 30
q3 17 11.5 26t25.5 9q76 0 121 35.5t45 97.5q0 40 -29 69.5t-79 29.5q-57 0 -104 -35.5t-57 -89.5q-1 -10 -1 -37q0 -13 -11.5 -22t-30.5 -9q-27 0 -32 20q-2 18 -2 26q0 58 32.5 106t87.5 76t118 28q50 0 92.5 -19t68 -54.5t25.5 -82.5q0 -58 -33.5 -103.5t-87.5 -66.5
q38 -18 58.5 -54.5z" />
    <glyph glyph-name="four" unicode="4" horiz-adv-x="587" 
d="M570.5 274q7.5 -7 7.5 -20q0 -37 -36 -41q-54 -6 -108 -9l-38 -173q-2 -15 -14 -24.5t-30 -9.5q-30 0 -30 26q0 7 1 11l37 167q-44 -1 -143 -1q-108 0 -174 17q-23 6 -23 26q0 14 12 32q90 131 169.5 228t175.5 178q11 9 26 9q12 0 20.5 -9t8.5 -18t-6 -18t-19 -22
q-91 -80 -166.5 -168.5t-122.5 -168.5q-3 -4 -3 -9q0 -4 12 -7q47 -7 138 -7q39 0 109 2l49 226q5 33 40 33q17 0 25.5 -7.5t8.5 -20.5q0 -7 -1 -11l-48 -216q64 6 102 10q13 2 20.5 -5z" />
    <glyph glyph-name="five" unicode="5" horiz-adv-x="583" 
d="M98 45q-54 45 -54 123q0 23 5 56q4 18 15.5 27.5t29.5 9.5q17 0 26.5 -7t9.5 -18q0 -3 -2 -9q-5 -30 -5 -50q0 -53 29 -81.5t94 -28.5q100 0 154.5 55t54.5 151q0 63 -35 97.5t-105 34.5q-29 0 -55.5 -5t-82.5 -18q-6 -2 -16 -2q-17 0 -27 9.5t-6 24.5l11 48
q34 146 50 228q87 -4 199 -4q37 0 95 2q46 2 65 2q25 0 25 -22q0 -20 -11 -31.5t-30 -11.5q-39 0 -61 -1l-94 -1q-54 0 -106 2q-7 1 -20 1q-7 -29 -20 -86t-19 -84q0 -7 8 -7q1 0 11 2q7 2 28.5 7.5t41.5 8.5t40 3q90 0 141.5 -51.5t51.5 -135.5q0 -87 -34 -150.5t-98 -98
t-152 -34.5q-98 0 -152 45z" />
    <glyph glyph-name="six" unicode="6" horiz-adv-x="604" 
d="M589 524q0 -16 -14.5 -27.5t-28.5 -11.5q-11 0 -17.5 6t-13.5 20q-14 33 -26.5 54t-38 36t-65.5 15q-95 0 -163 -79.5t-97 -222.5q34 43 90 69t115 26q67 0 114 -26t71 -68.5t24 -91.5q0 -105 -71.5 -163t-188.5 -58q-111 0 -172.5 54t-61.5 157q0 50 7 92
q17 103 60.5 188t113 135.5t159.5 50.5q76 0 127 -38.5t73 -100.5q4 -14 4 -16zM231 326q-45 -20 -71.5 -58t-26.5 -90q0 -53 36.5 -83t108.5 -30q61 0 102.5 22.5t61.5 58.5t20 77q0 52 -32 87.5t-100 35.5q-54 0 -99 -20z" />
    <glyph glyph-name="seven" unicode="7" horiz-adv-x="556" 
d="M529 346q0 -18 -11 -29t-30 -11q-50 0 -77 -1q-69 -138 -154 -284q-6 -10 -18.5 -15.5t-24.5 -5.5q-16 0 -25 7.5t-9 18.5q0 8 6 17q58 95 143 261q-25 -1 -74 -1q-31 0 -31 24q0 19 12 30t31 11q65 0 95 1q67 135 67 193q0 35 -24.5 52t-86.5 17q-75 0 -190 -27
q-3 -1 -10 -1q-12 0 -19 6.5t-7 18.5q0 27 36 39q90 29 190 29q91 0 140 -35t49 -99q0 -36 -16.5 -80.5t-47.5 -110.5l52 1q34 0 34 -26z" />
    <glyph glyph-name="eight" unicode="8" horiz-adv-x="605" 
d="M533 354q36 -48 36 -109q0 -77 -39 -132t-106.5 -83t-152.5 -28q-74 0 -129.5 23.5t-85.5 66.5t-30 100q0 56 30.5 104.5t81 81t108.5 45.5q-26 13 -42 36.5t-16 55.5q0 47 26.5 87t70.5 63t94 23q63 0 103.5 -37t40.5 -92q0 -92 -91 -135q65 -22 101 -70zM294 593.5
q-33 -32.5 -33 -76.5q0 -35 21.5 -54.5t56.5 -19.5q30 0 56 16.5t41 43t15 55.5q0 32 -20.5 50t-54.5 18q-49 0 -82 -32.5zM392.5 90.5q49.5 26.5 75 68t25.5 85.5q0 60 -44 97.5t-118 37.5q-57 0 -110 -23.5t-86 -65.5t-33 -93q0 -61 44.5 -97t128.5 -36q68 0 117.5 26.5z
" />
    <glyph glyph-name="nine" unicode="9" horiz-adv-x="591" 
d="M532 627.5q62 -61.5 62 -166.5q0 -39 -7 -77q-32 -177 -116 -279.5t-222 -102.5q-63 0 -113 21.5t-78 59.5t-28 85q0 16 3 34q2 16 14 26.5t28 10.5t25 -9.5t6 -26.5q-2 -16 -2 -23q0 -51 41 -82.5t115 -31.5q96 0 161.5 81t96.5 224q-33 -55 -90 -84.5t-119 -29.5
q-98 0 -156 46t-58 130q0 76 35 134t96 90t136 32q108 0 170 -61.5zM406.5 341q45.5 24 73 65.5t27.5 91.5q0 57 -40.5 92.5t-105.5 35.5q-54 0 -97.5 -25t-68 -69t-24.5 -99q0 -116 139 -116q51 0 96.5 24z" />
    <glyph glyph-name="colon" unicode=":" horiz-adv-x="310" 
d="M115 319q-19 19 -19 47q0 37 24.5 61t62.5 24q30 0 49.5 -18.5t19.5 -44.5q0 -39 -23.5 -63.5t-64.5 -24.5q-30 0 -49 19zM198.5 351.5q11.5 12.5 11.5 31.5q0 11 -9.5 19.5t-22.5 8.5q-17 0 -28.5 -13t-11.5 -29q0 -14 8.5 -22t21.5 -8q19 0 30.5 12.5zM72.5 34.5
q-19.5 19.5 -19.5 46.5q0 36 23.5 61t59.5 25q33 0 52.5 -20.5t19.5 -48.5q0 -38 -24 -60.5t-63 -22.5q-29 0 -48.5 19.5zM154.5 64.5q11.5 9.5 11.5 26.5q0 15 -8 23.5t-24 8.5q-14 0 -25.5 -12t-12.5 -24q-1 -16 7 -24t22 -8q18 0 29.5 9.5z" />
    <glyph glyph-name="semicolon" unicode=";" horiz-adv-x="329" 
d="M250.5 432.5q19.5 -18.5 19.5 -44.5q0 -39 -23.5 -63.5t-64.5 -24.5q-30 0 -49 19t-19 47q0 37 24.5 61t62.5 24q30 0 49.5 -18.5zM216.5 351.5q11.5 12.5 11.5 31.5q0 11 -9.5 19.5t-22.5 8.5q-17 0 -28.5 -13t-11.5 -29q0 -14 8.5 -22t21.5 -8q19 0 30.5 12.5z
M194.5 128.5q18.5 -23.5 18.5 -63.5q0 -41 -17.5 -81t-47.5 -66q-25 -22 -52.5 -34.5t-52.5 -12.5q-11 0 -17.5 5t-6.5 14q0 12 8 20.5t17 8.5q40 0 78 33q16 13 27.5 32.5t16.5 39.5q-23 -21 -57 -21q-28 0 -44.5 17t-16.5 43q0 35 27.5 62t64.5 27q36 0 54.5 -23.5z
M149 54q13 13 13 31q0 12 -8.5 19.5t-23.5 7.5q-17 0 -29 -14t-12 -30q0 -12 7.5 -19.5t20.5 -7.5q19 0 32 13z" />
    <glyph glyph-name="less" unicode="&#x3c;" horiz-adv-x="540" 
d="M228 182q-88 35 -134 64.5t-46 58.5q0 34 61 68t169 72q53 18 139.5 43t100.5 25q13 0 19.5 -6.5t6.5 -16.5q0 -16 -10.5 -25t-32.5 -15l-29 -8q-118 -32 -179 -52q-64 -21 -118 -47t-54 -38q0 -9 34 -24t109 -43l93 -36q87 -33 93 -35q12 -3 18.5 -10t6.5 -16
q0 -16 -8.5 -25t-23.5 -9q-28 0 -215 75z" />
    <glyph glyph-name="equal" unicode="=" horiz-adv-x="540" 
d="M84.5 356.5q-9.5 6.5 -9.5 18.5q0 17 15 26.5t42 9.5l334 3q17 0 28.5 -7.5t11.5 -20.5q0 -16 -14.5 -24.5t-38.5 -8.5l-344 -3q-15 0 -24.5 6.5zM51 229q0 17 14.5 27t41.5 11l341 10q17 1 28 -6.5t11 -19.5q0 -16 -14 -25t-38 -10l-350 -11q-34 0 -34 24z" />
    <glyph glyph-name="greater" unicode="&#x3e;" horiz-adv-x="540" 
d="M43.5 112q-8.5 5 -8.5 16q0 13 9 23.5t24 15.5q150 53 209 72q65 22 110.5 42t45.5 29q0 10 -38 31.5t-97 46.5q-53 22 -108.5 39t-81.5 23q-32 8 -32 29q0 14 9.5 23t25.5 9q17 0 92.5 -23.5t125.5 -42.5q85 -32 135.5 -67.5t50.5 -67.5q0 -33 -52.5 -60.5t-167.5 -67.5
l-69 -24q-63 -22 -107.5 -36.5t-54.5 -14.5q-12 0 -20.5 5z" />
    <glyph glyph-name="question" unicode="?" horiz-adv-x="527" 
d="M232 209q0 39 27.5 75.5t83.5 91.5q59 57 89 97.5t30 84.5q0 52 -32 82.5t-87 30.5q-79 0 -125 -38t-46 -102q0 -27 15 -44t40 -17q28 0 28 -23q0 -16 -11 -26t-29 -10q-45 0 -74 31t-29 79q0 59 30 107t82.5 75t118.5 27q79 0 128.5 -45.5t49.5 -118.5q0 -40 -19 -77.5
t-45.5 -67.5t-70.5 -72q-48 -45 -71 -74t-23 -57q0 -22 -9.5 -28.5t-27.5 -6.5q-23 0 -23 26zM191 25.5q-13 12.5 -13 32.5q0 24 20 43t45 19q19 0 32 -12.5t13 -31.5q0 -23 -20 -43t-44 -20q-20 0 -33 12.5z" />
    <glyph glyph-name="at" unicode="@" horiz-adv-x="886" 
d="M665 570.5q69 -33.5 108.5 -92.5t39.5 -133q0 -68 -29.5 -139t-78.5 -117.5t-104 -46.5q-34 0 -54.5 17.5t-23.5 45.5q-46 -48 -126 -48q-76 0 -107 42.5t-31 104.5q0 63 27.5 117.5t75.5 86.5t105 32q41 0 69 -16t43 -44l7 25q4 12 14 18.5t24 6.5t22 -6t8 -16
q0 -5 -3 -13q-26 -71 -37 -108q-6 -16 -9 -27q-31 -95 -31 -127q0 -17 7.5 -26t24.5 -9q39 0 71 39t50.5 96.5t18.5 109.5q0 60 -30 106.5t-84.5 72.5t-126.5 26q-108 0 -189.5 -48t-125 -129t-43.5 -177q0 -112 71.5 -177t196.5 -65q31 0 55.5 3.5t60.5 12.5l24 5
q13 3 19.5 -4t6.5 -19q0 -11 -7 -18t-26 -14q-28 -10 -68 -16t-79 -6q-97 0 -170 37t-112 103t-39 152q0 111 55 206.5t153 152.5t222 57q86 0 155 -33.5zM553 313q0 30 -28.5 52.5t-65.5 22.5q-38 0 -69 -25.5t-49 -66t-18 -83.5q0 -46 22.5 -74t67.5 -28q32 0 57.5 15.5
t39.5 44.5q15 32 41 128q2 10 2 14z" />
    <glyph glyph-name="A" unicode="A" horiz-adv-x="692" 
d="M593 181q-10 -14 -29 -14h-7l16 -133l1 -9q0 -16 -15 -25.5t-33 -9.5q-13 0 -22.5 6t-10.5 16l-18 155l-283 2q-48 -96 -78 -153q-12 -25 -42 -25q-19 0 -29 10.5t-7 21.5q0 4 4 12l169 334q51 98 117 229q33 64 52.5 88.5t49.5 24.5q28 0 45.5 -24t25.5 -79
q25 -171 48 -363h25q15 0 23 -8.5t8 -22.5q0 -19 -10 -33zM467 246l-34 288q-5 40 -9 58t-9 18t-14.5 -16t-30.5 -59l-48 -99q-45 -95 -91 -187z" />
    <glyph glyph-name="B" unicode="B" horiz-adv-x="621" 
d="M47 5l-13 1q-27 3 -27 23q0 18 11.5 31.5t31.5 12.5h14q40 153 68 309q18 97 36 217q-7 -3 -16 -3t-14.5 5t-5.5 15q0 19 13 31t43 24q92 36 192 36q68 0 122 -21t84.5 -60t30.5 -90q0 -76 -56.5 -123t-145.5 -61q63 -14 98.5 -54t35.5 -88q0 -70 -43 -119t-113 -72.5
t-151 -20.5l-69 3l-52 1q-11 -25 -39 -25q-32 0 -35 28zM472 210q0 57 -52.5 81.5t-146.5 28.5q-19 1 -30.5 6t-11.5 20q0 43 53 45q73 4 127 15t91 41.5t37 88.5q0 51 -45 77.5t-125 26.5q-26 0 -60 -4t-60 -11q-14 -93 -40 -242q-28 -161 -71 -314l53 -1q22 -1 64 -1
q217 0 217 143z" />
    <glyph glyph-name="C" unicode="C" horiz-adv-x="714" 
d="M722 680q0 -6 -1 -9l-21 -112q-8 -45 -48 -45q-20 0 -30 16q-21 36 -38 58.5t-46.5 38t-72.5 15.5q-83 0 -158.5 -54t-122 -139.5t-46.5 -172.5q0 -69 30.5 -116t80 -69.5t108.5 -22.5q84 0 153.5 45.5t92.5 131.5q4 17 13.5 27.5t31.5 10.5q19 0 28 -7t9 -21
q0 -4 -2 -16q-13 -66 -57 -121.5t-113.5 -88t-155.5 -32.5q-79 0 -147 31t-109 93.5t-41 152.5q0 108 56.5 210t150 165.5t198.5 63.5q62 0 105.5 -23t67.5 -65l9 49q2 15 12.5 24.5t29.5 9.5q33 0 33 -28z" />
    <glyph glyph-name="D" unicode="D" horiz-adv-x="687" 
d="M561 613.5q101 -71.5 101 -212.5q0 -116 -64.5 -205.5t-178 -139t-253.5 -49.5h-87q-19 0 -28 6.5t-9 21.5q0 17 10.5 29t28.5 12h35l82 554h-3q-21 0 -32.5 5.5t-11.5 21.5q0 26 13 34.5t39 8.5h12q10 15 36 15q15 0 22 -4.5t9 -13.5q178 -12 279 -83.5zM391 124
q90 42 142.5 114t52.5 163q0 117 -84.5 167.5t-226.5 59.5l-83 -551q109 5 199 47z" />
    <glyph glyph-name="E" unicode="E" horiz-adv-x="573" 
d="M602.5 681.5q7.5 -4.5 7.5 -17.5q0 -20 -12 -32.5t-28 -10.5q-98 8 -182 8q-64 0 -136 -4q-19 -133 -35 -221l67 -1l110 -3l59 -1q24 0 24 -24q0 -19 -10 -32.5t-26 -13.5l-53 1q-45 3 -118 3q-42 0 -66 1q-14 -74 -28 -128t-33 -120q64 -5 154 -5q54 0 86 2t78 7
q37 4 37 -26q0 -18 -9.5 -29.5t-27.5 -14.5q-38 -8 -185 -8q-132 0 -236 12q-22 3 -22 25q0 18 9.5 30.5t22.5 12.5h17q18 54 31.5 109.5t28.5 133.5h-12q-30 0 -30 26q0 18 10.5 31t27.5 13h16q9 51 10 58q22 119 28 159h-7q-16 0 -16 25q0 26 13 34.5t34 10.5q58 6 173 6
q145 0 206 -9q15 -3 22.5 -7.5z" />
    <glyph glyph-name="F" unicode="F" horiz-adv-x="559" 
d="M602 664q0 -19 -11 -32t-30 -11q-104 13 -184 13q-61 0 -121 -3q-12 -116 -33 -241q39 3 87 3q44 0 91.5 -2t64.5 -5q26 -4 26 -28q0 -16 -10 -28.5t-31 -11.5q-70 5 -136 5q-60 0 -104 -3q-25 -141 -59 -283q-5 -14 -16.5 -22.5t-28.5 -8.5q-19 0 -27 9t-5 23
q17 69 29 124t30 151l-45 -6q-12 -1 -19 5.5t-7 19.5q0 18 10.5 30.5t29.5 14.5q30 4 43 5q21 121 32 245l-29 -2q-32 -1 -32 24q0 42 41 45l25 1l1 13q1 17 13.5 27t31.5 10q34 0 33 -38v-7q61 3 122 3q65 0 117 -3.5t75 -9.5q26 -6 26 -26z" />
    <glyph glyph-name="G" unicode="G" horiz-adv-x="741" 
d="M291.5 573q-71.5 -46 -113 -121.5t-41.5 -159.5q0 -64 26 -114t75 -78t116 -28q91 0 145.5 54t77.5 160l-141 3q-32 1 -32 29q0 20 13 31t30 11l241 -5q34 0 34 -27q0 -19 -11.5 -30.5t-30.5 -11.5l-29 1q-60 -286 -297 -286q-90 0 -157 38.5t-102.5 105t-35.5 148.5
q0 104 53 195.5t143 146.5t195 55q72 0 119.5 -25t74.5 -62l8 29q4 16 14 22t29 6q16 0 25.5 -7.5t7.5 -19.5q-11 -69 -27 -94q-8 -12 -20 -17t-24 -5q-11 0 -19 4.5t-20 17.5q-25 26 -44.5 42t-50 27t-73.5 11q-87 0 -158.5 -46z" />
    <glyph glyph-name="H" unicode="H" horiz-adv-x="713" 
d="M670 344q8 -7 8 -23q0 -20 -12.5 -30.5t-35.5 -10.5h-20l-36 -243q-3 -18 -14.5 -28t-29.5 -10q-19 0 -27.5 9.5t-6.5 26.5l36 246l-328 5l-68 -264q-8 -28 -43 -28q-34 0 -34 24q0 7 1 10l67 260h-25q-13 0 -21.5 7.5t-8.5 23.5q0 18 11.5 28.5t32.5 10.5h29l84 329
q5 18 17.5 26.5t28.5 8.5q32 0 32 -28l-2 -12l-83 -325l321 -5l49 332q2 16 13.5 27t30.5 11q18 0 26.5 -10t6.5 -25l-49 -336h23q19 0 27 -7z" />
    <glyph glyph-name="I" unicode="I" horiz-adv-x="438" 
d="M483 677q0 -20 -12 -32t-30 -11q-30 2 -91 4q-29 -162 -56.5 -292t-62.5 -270l112 -1q16 0 22.5 -6.5t6.5 -20.5q0 -20 -11 -32t-31 -12l-303 4q-25 1 -25 28q0 20 12 31.5t28 11.5l114 -2q70 299 116 560l-70 -4q-60 -4 -75 -4q-9 0 -15 7t-6 22q0 19 11 29t28 13
q54 9 159 9q94 0 153 -6q26 -2 26 -26z" />
    <glyph glyph-name="J" unicode="J" horiz-adv-x="549" 
d="M615 675q0 -44 -44 -44h-51q-30 -159 -69 -373q-44 -258 -249 -258q-88 0 -137 49t-49 137q0 35 7 69q4 24 14 32.5t33 8.5q34 0 34 -29q0 -7 -1 -11q-8 -42 -8 -72q0 -113 102 -113q65 0 111.5 46.5t63.5 145.5q32 172 65 337l6 30q-27 -1 -70 -1q-15 0 -24 7t-9 20
q0 19 10.5 29.5t22.5 11.5q48 4 151 4q45 0 64 -1q27 -3 27 -25z" />
    <glyph glyph-name="K" unicode="K" horiz-adv-x="607" 
d="M654.5 685q9.5 -9 9.5 -22q0 -21 -19 -34q-97 -63 -226 -139q-54 -33 -138 -80l-69 -40l35 -39q57 -64 106 -112q47 -47 79.5 -75.5t90.5 -76.5q10 -9 10 -23q0 -19 -14 -32t-30 -13q-11 0 -21 7q-33 24 -64 53t-74 73l-30 30q-73 72 -131 144q-23 -118 -51 -269
q-3 -18 -15.5 -27.5t-30.5 -9.5q-16 0 -24.5 8t-6.5 23q12 70 37 198l28 151l22 129q8 52 26 156q3 15 15.5 24.5t29.5 9.5q18 0 26.5 -10.5t5.5 -26.5q-5 -26 -8.5 -48.5t-6.5 -42.5q-11 -70 -24 -141q42 24 124 74l65 39q104 62 225 143q11 8 25 8t23.5 -9z" />
    <glyph glyph-name="L" unicode="L" horiz-adv-x="526" 
d="M114 12.5q-37 13.5 -53 43t-16 78.5q0 140 135 538q5 14 17.5 22.5t29.5 8.5q12 0 21.5 -5.5t9.5 -16.5q0 -2 -2 -10l-10 -30q-60 -175 -92.5 -293.5t-32.5 -213.5q0 -29 7.5 -43t27.5 -18.5t62 -4.5q48 0 86 5t96 15l35 6l8 1q14 0 21 -7.5t7 -19.5q0 -38 -49 -47
q-71 -12 -113 -17t-92 -5q-66 0 -103 13.5z" />
    <glyph glyph-name="M" unicode="M" horiz-adv-x="797" 
d="M740 679.5q15 -32.5 15 -97.5q0 -148 -76 -550q-3 -17 -14 -27.5t-30 -10.5q-18 0 -27.5 10.5t-6.5 26.5q42 222 63 349.5t21 187.5q0 54 -17 54q-18 0 -51.5 -43t-64.5 -94q-27 -44 -47 -86.5t-51 -116.5q-12 -30 -49 -30q-17 0 -26.5 6.5t-11.5 21.5q-6 40 -9 73
q-9 77 -20 127q-13 56 -30 100t-33 44q-22 0 -49.5 -86.5t-52.5 -210.5q-38 -191 -54 -296q-5 -32 -45 -32q-32 0 -32 29q0 6 1 10q13 81 38 206q4 23 8 44t8 40q37 200 80 292t101 92q67 0 100 -100t40 -241q33 83 79.5 161.5t98 129t95.5 50.5q34 0 49 -32.5z" />
    <glyph glyph-name="N" unicode="N" horiz-adv-x="738" 
d="M728 701q8 -12 5 -28q-26 -157 -56 -313l-12 -64q-20 -112 -38.5 -173.5t-37 -86t-43.5 -24.5q-30 0 -57.5 31.5t-58 92t-86.5 183.5q-53 118 -80.5 176.5t-47.5 92.5q-15 -80 -31 -185l-9 -58q-33 -208 -53 -303q-2 -12 -14.5 -22t-28.5 -10q-17 0 -27 9.5t-8 22.5l8 43
l46 261q12 65 28 170q8 40 22 127q6 31 18.5 47t36.5 16q28 0 50.5 -23.5t45 -68.5t67.5 -144q9 -21 17 -38.5t14 -31.5q87 -192 146 -293q9 29 18 71.5t12 58.5q6 33 15 72q16 76 66 369q3 17 15 26t30 9q20 0 28 -12z" />
    <glyph glyph-name="O" unicode="O" horiz-adv-x="792" 
d="M211 40q-67 32 -106.5 94t-39.5 148q0 115 50.5 212.5t139.5 155t199 57.5q90 0 160 -39t109.5 -108t39.5 -156q0 -115 -51.5 -205t-144 -140.5t-209.5 -50.5q-80 0 -147 32zM529 121.5q73 42.5 114.5 116.5t41.5 166q0 69 -28 121.5t-79.5 81.5t-119.5 29
q-89 0 -161 -49t-113 -130t-41 -172q0 -73 32 -119t82.5 -66.5t108.5 -20.5q90 0 163 42.5z" />
    <glyph glyph-name="P" unicode="P" horiz-adv-x="611" 
d="M505 679q56 -26 88.5 -72t32.5 -105q0 -73 -41.5 -127.5t-110.5 -83.5t-151 -29q-86 0 -140 31l-49 -262q-3 -18 -15.5 -28t-30.5 -10q-19 0 -27 11t-6 26q14 82 28 151l26 137q21 117 39 244l-4 -2q-10 -5 -18 -5q-11 0 -17.5 9.5t-6.5 23.5q0 18 8.5 27t30.5 20
q16 8 19 10l3 16q7 45 49 45q18 0 27 -6t7 -16v-3q66 24 136 24q67 0 123 -26zM429.5 350q50.5 22 80.5 62t30 90q0 59 -48.5 96t-121.5 37q-55 0 -137 -33q-4 -35 -11 -69l-4 -25q-4 -20 -6.5 -38.5t-4.5 -33.5q-8 -55 -12 -76q50 -32 125 -32q59 0 109.5 22z" />
    <glyph glyph-name="Q" unicode="Q" horiz-adv-x="781" 
d="M677 86q9 -10 9 -21q0 -18 -15 -32.5t-33 -14.5q-17 0 -26 11l-46 55q-52 -34 -112.5 -52.5t-122.5 -18.5q-87 0 -147 36.5t-89.5 99.5t-29.5 143q0 113 56.5 209t150.5 153t202 57q77 0 141 -38.5t101.5 -106.5t37.5 -153q0 -78 -32 -149t-89 -126zM428.5 99
q47.5 15 89.5 42l-58 70q-7 8 -7 18q0 15 18.5 30.5t34.5 15.5q10 0 16 -6l62 -73q43 46 67.5 101.5t24.5 115.5q0 66 -26.5 117.5t-74 80.5t-107.5 29q-84 0 -159 -49.5t-120 -130t-45 -168.5q0 -95 50.5 -151.5t138.5 -56.5q48 0 95.5 15z" />
    <glyph glyph-name="R" unicode="R" horiz-adv-x="641" 
d="M585.5 388.5q-44.5 -51.5 -117.5 -78.5t-158 -27q-57 0 -106 13l319 -210q15 -10 15 -24q0 -18 -12.5 -33.5t-32.5 -15.5q-8 0 -17 3.5t-14 7.5l-296 211l-9 -48l-27 -157q-3 -17 -14.5 -26t-28.5 -9t-25.5 9.5t-8.5 22.5q0 6 1 9q18 89 30.5 161.5t29.5 177.5
q19 118 29 187q-6 -2 -9 -2q-13 0 -16 9t-3 26q0 14 7 22.5t25 17.5l7 3l3 21q3 23 14 33t31 10q37 0 33 -28v-2q41 16 75 22t71 6q75 0 131.5 -23.5t87 -66t30.5 -99.5q0 -71 -44.5 -122.5zM308 620.5q-37 -8.5 -84 -26.5q-18 -136 -34 -228q51 -15 124 -15
q99 0 164.5 41.5t65.5 118.5q0 54 -44 86t-119 32q-36 0 -73 -8.5z" />
    <glyph glyph-name="S" unicode="S" horiz-adv-x="563" 
d="M110 52.5q-56 51.5 -56 140.5q0 35 10.5 48.5t35.5 13.5q24 0 29.5 -11.5t5.5 -46.5q1 -66 35.5 -96t92.5 -30q68 0 113 36t45 92q0 33 -17 54t-45 34t-79 30q-47 15 -83 33.5t-64 54t-28 90.5q0 59 33.5 107.5t90 76.5t122.5 28q58 0 103.5 -22t71 -60.5t25.5 -87.5
q0 -36 -12.5 -48.5t-34.5 -12.5q-20 0 -26.5 7t-6.5 21l1 21q0 47 -31 79.5t-90 32.5q-45 0 -84 -20t-61.5 -53t-22.5 -70q0 -31 16 -50t40 -30t65 -24l26 -9q70 -24 119 -65t49 -121q0 -58 -30 -102t-83 -68t-120 -24q-99 0 -155 51.5z" />
    <glyph glyph-name="T" unicode="T" horiz-adv-x="557" 
d="M588 681q8 -6 8 -21q0 -19 -12.5 -31.5t-32.5 -11.5q-94 7 -162 8q-28 -113 -65 -290q-42 -198 -60 -303q-4 -21 -15 -31.5t-34 -10.5q-18 0 -26 7.5t-8 22.5q0 11 3 26q21 104 62 288l66 291q-81 -2 -171 -11q-33 -3 -33 29q0 18 10 28.5t27 12.5q61 6 107 9t112 3
q52 0 115 -2t87 -5q14 -2 22 -8z" />
    <glyph glyph-name="U" unicode="U" horiz-adv-x="667" 
d="M655 700q9 -8 9 -21q0 -5 -1 -8q-23 -127 -43 -255q-17 -112 -64 -385q-6 -33 -43 -33q-33 0 -33 28q0 8 1 12l13 76q-35 -50 -92.5 -81t-128.5 -31q-68 0 -114 28.5t-68 73.5t-22 95q0 33 16 119t53 267l17 84q6 33 43 33q16 0 25 -6.5t9 -19.5q0 -5 -1 -8
q-44 -204 -63 -310t-19 -159q0 -58 31.5 -92t92.5 -34q58 0 112 31t90.5 79.5t46.5 98.5q14 73 33.5 187.5t32.5 203.5q5 35 41 35q17 0 26 -8z" />
    <glyph glyph-name="V" unicode="V" horiz-adv-x="668" 
d="M259 12.5q-20 12.5 -28 35.5q-19 56 -57 325q-11 73 -22 174q-9 79 -14 120l-1 16q0 11 12.5 18t30.5 7q15 0 23 -8t9 -19q9 -66 25 -204l10 -91q17 -134 26 -193.5t17 -84t19 -24.5q12 0 29 24.5t47.5 86.5t89.5 191l134 301q6 11 13 15t19 4q17 0 29.5 -8.5t12.5 -20.5
q0 -6 -3 -14q-47 -105 -131 -287q-123 -269 -162 -328q-30 -48 -82 -48q-26 0 -46 12.5z" />
    <glyph glyph-name="W" unicode="W" horiz-adv-x="878" 
d="M203.5 11.5q-13.5 9.5 -15.5 26.5q-8 62 -16 221q-4 87 -7 126q-3 44 -13 119q-13 98 -13 151q0 11 1 16q3 14 15 23.5t31 9.5q15 0 22 -6.5t9 -21.5q2 -16 2 -23q16 -151 23 -251l6 -97q5 -92 9 -139t9 -47q4 0 15 16t21 32.5t15 25.5l38 63l15 25q45 73 65 100.5
t34 27.5t25 -23.5t33 -91.5l17 -50l18 -55q12 -39 18.5 -54.5t10.5 -15.5q3 0 15 29.5t23 58t18 47.5q23 64 56 147q27 67 35 88q68 168 76 188q5 13 16 19.5t26 6.5q33 0 33 -37q0 -4 -3 -10q-27 -55 -68 -161l-43 -109q-27 -67 -60 -157q-33 -93 -72 -185q-17 -40 -60 -40
q-18 0 -31.5 14t-26.5 44.5t-33 91.5q-7 21 -22 81q-5 21 -9.5 37t-7.5 16q-4 0 -15 -17.5t-19.5 -32t-12.5 -21.5q-17 -33 -44 -76q-37 -59 -58 -88t-36 -40t-32 -11q-19 0 -32.5 9.5z" />
    <glyph glyph-name="X" unicode="X" horiz-adv-x="664" 
d="M667 626l-266 -288l157 -280q7 -10 7 -21q0 -16 -16 -28.5t-34 -12.5q-16 0 -24 15l-149 264q-63 -69 -211 -228l-32 -35q-10 -10 -16 -12.5t-18 -2.5q-17 0 -31.5 13t-12.5 26q2 9 6.5 15.5t10.5 11.5l26 27q76 82 135.5 146t102.5 110q-118 211 -163 295q-7 11 -4 20
q2 16 16.5 27t32.5 11q10 0 16 -6.5t15 -20.5q60 -110 146 -263l248 266q10 12 17.5 17t15.5 5q18 0 29.5 -13.5t11.5 -29.5q0 -12 -16 -28z" />
    <glyph glyph-name="Y" unicode="Y" horiz-adv-x="655" 
d="M261.5 14.5q-8.5 11.5 -5.5 26.5l48 287q-46 17 -98 131q-23 49 -34.5 88.5t-26.5 107.5q-1 3 -1 10q0 17 14 26t33 9q27 0 35 -35q16 -65 25.5 -97.5t24.5 -71.5q15 -40 36 -73t39 -33q17 0 47.5 29t69.5 79q31 40 56 78t59 93q11 18 17 23.5t17 5.5q17 0 30 -8.5
t13 -21.5q0 -10 -6 -19q-67 -118 -125 -192q-46 -57 -85.5 -89.5t-62.5 -39.5l-47 -285q-8 -40 -45 -40q-19 0 -27.5 11.5z" />
    <glyph glyph-name="Z" unicode="Z" horiz-adv-x="673" 
d="M501 19q-51 4 -99.5 7t-105.5 3q-67 0 -177 -4l-67 -2q-25 0 -34 7t-9 19q0 24 43 67.5t157 141.5q66 57 148 130q136 121 178.5 160t76.5 75q-115 -11 -188 -11q-59 0 -131.5 5.5t-105.5 13.5q-32 8 -32 29q0 18 11.5 29.5t31.5 11.5l21 -3q122 -16 210 -16q42 0 85.5 3
t104.5 8l37 3q11 1 24 -2.5t21 -10.5q13 -10 13 -25q0 -30 -57 -86.5t-193 -176.5q-2 -2 -44 -38l-133 -116q-70 -59 -105.5 -91t-60.5 -59q135 7 220 7q59 0 103.5 -3t103.5 -10q13 -2 20.5 -9t7.5 -18q0 -18 -14.5 -31t-32.5 -10q-20 2 -28 2z" />
    <glyph glyph-name="bracketleft" unicode="[" horiz-adv-x="336" 
d="M-11 -154q47 204 87 450q21 122 35 220.5t29 225.5q65 4 199 4q27 0 27 -31q0 -16 -11 -24.5t-29 -8.5h-60q-58 0 -66 -1l-7 -45q-30 -211 -52 -337q-48 -269 -75 -397l62 -2q22 0 34 1l38 1q22 0 22 -21q0 -19 -10.5 -29t-28.5 -12q-35 -3 -103 -3q-38 0 -91 9z" />
    <glyph glyph-name="backslash" unicode="\" horiz-adv-x="484" 
d="M318.5 6q-7.5 6 -9.5 18l-131 836q-1 3 -1 10q0 15 14.5 29t32.5 14q26 0 30 -25l130 -834v-11q0 -19 -14 -31t-35 -12q-9 0 -16.5 6z" />
    <glyph glyph-name="bracketright" unicode="]" horiz-adv-x="336" 
d="M10 -160q-26 2 -26 24q0 16 9 27t25 11l80 -1q36 0 54 1q20 141 65 397q24 139 64 327l12 59q-23 1 -40.5 0.5t-29.5 -0.5q-17 -1 -51 -1q-16 0 -25.5 6.5t-9.5 18.5q0 14 8.5 25t25.5 11q168 0 203 -3q-29 -120 -47.5 -213.5t-43.5 -232.5q-60 -346 -74 -450
q-43 -8 -95 -8q-44 0 -104 2z" />
    <glyph glyph-name="asciicircum" unicode="^" horiz-adv-x="610" 
d="M88.5 220.5q-9.5 6.5 -9.5 15.5q0 5 1 8q90 208 170.5 332.5t127.5 124.5q51 0 91.5 -120t63.5 -325q2 -19 -8.5 -31t-28.5 -12q-10 0 -18 5.5t-9 15.5q-7 86 -22 180t-34 156.5t-35 62.5q-17 0 -59.5 -63t-92 -157.5t-86.5 -179.5q-5 -11 -11 -15t-19 -4
q-12 0 -21.5 6.5z" />
    <glyph glyph-name="underscore" unicode="_" horiz-adv-x="554" 
d="M-60.5 -115.5q-7.5 7.5 -7.5 20.5q0 17 12 28t29 11l202 -1q194 -2 305 -2q13 0 20 -7t7 -20q0 -18 -10.5 -30t-28.5 -12q-141 0 -283 3q-168 2 -224 2q-14 0 -21.5 7.5z" />
    <glyph glyph-name="grave" unicode="`" horiz-adv-x="314" 
d="M269 500l-144 173q-10 10 -10 19q0 12 13 25t26 13q12 0 23 -14q92 -111 146 -174q6 -6 6 -18q0 -13 -12 -23.5t-26 -10.5q-13 0 -22 10z" />
    <glyph glyph-name="a" unicode="a" horiz-adv-x="623" 
d="M550.5 445.5q-3.5 -12.5 -5.5 -17.5q-6 -14 -16 -51q-17 -63 -34.5 -153.5t-17.5 -123.5q0 -17 6 -25.5t22 -9.5q12 -2 18 -6.5t6 -14.5q0 -18 -9.5 -30t-25.5 -12q-40 0 -57 12.5t-25 46.5q-55 -70 -163 -70q-67 0 -111.5 28.5t-65 74t-20.5 95.5q0 83 34.5 152.5
t97 110.5t142.5 41q50 0 87.5 -21t52.5 -55l10 33q5 17 14 27t27 10q17 0 27 -6.5t10 -16.5q0 -6 -3.5 -18.5zM434 325q0 55 -34 80t-74 25q-55 0 -99.5 -35t-70 -91t-25.5 -115q0 -57 27.5 -95.5t92.5 -38.5q59 0 103 30.5t55 87.5q25 127 25 152z" />
    <glyph glyph-name="b" unicode="b" horiz-adv-x="637" 
d="M471 480.5q52 -25.5 81.5 -72.5t29.5 -109q0 -88 -37 -156.5t-103 -107t-150 -38.5q-44 0 -83 13.5t-66 33t-34 37.5q-9 -22 -29 -41t-37 -26q-8 -4 -17 -4q-14 0 -21.5 10.5t-7.5 23.5q0 10 13 18q27 16 38 39q8 17 13 40.5t15 89.5q4 24 9.5 61.5t14.5 92.5l18 111
q43 275 52 343q1 15 14 23.5t30 8.5q16 0 25 -8t7 -22q-11 -85 -37 -248l-24 -155q66 68 170 68q64 0 116 -25.5zM402.5 92q48.5 32 75 86.5t26.5 118.5q0 70 -40.5 108t-108.5 38q-55 0 -103.5 -30t-77.5 -67l-16 -90q-4 -24 -8 -52.5t-4 -37.5q0 -29 20 -53t53.5 -38.5
t72.5 -14.5q62 0 110.5 32z" />
    <glyph glyph-name="c" unicode="c" horiz-adv-x="588" 
d="M155 29q-51 28 -77.5 74.5t-26.5 101.5q0 83 39.5 154t108 112.5t151.5 41.5q50 0 97.5 -21t76.5 -56t29 -74q0 -33 -39 -33q-15 0 -24 7t-9 20q0 22 -16.5 44t-46.5 36t-68 14q-60 0 -111.5 -35.5t-81.5 -92.5t-30 -117q0 -62 39 -101.5t109 -39.5q52 0 97 21t71 53
t26 63q0 10 10 17t25 7q16 0 24.5 -5.5t8.5 -19.5q0 -56 -38.5 -101.5t-99 -71.5t-124.5 -26q-69 0 -120 28z" />
    <glyph glyph-name="d" unicode="d" horiz-adv-x="634" 
d="M112 46.5q-60 50.5 -60 147.5q0 85 40 157t109 114t151 42q61 0 104.5 -21t64.5 -58l82 414q3 14 15 23t28 9q17 0 26.5 -9.5t6.5 -24.5l-132 -688q-3 -17 -4.5 -36.5t-0.5 -27.5q1 -17 11 -29.5t10 -13.5q0 -3 -8.5 -14.5t-20 -21.5t-21.5 -10q-22 0 -37.5 24.5
t-14.5 58.5q-68 -86 -192 -86q-97 0 -157 50.5zM367.5 83q41.5 19 69 50.5t34.5 67.5l29 153q-13 37 -55 61.5t-95 24.5q-60 0 -110.5 -32.5t-80 -86t-29.5 -113.5q0 -70 42 -107t107 -37q47 0 88.5 19z" />
    <glyph glyph-name="e" unicode="e" horiz-adv-x="619" 
d="M162 25.5q-52 29.5 -79 79t-27 107.5q0 80 39.5 149.5t108.5 110.5t153 41q61 0 109 -22t74.5 -61.5t26.5 -91.5q0 -50 -14.5 -73.5t-48.5 -23.5l-375 -8q-2 -18 -2 -25q0 -64 44.5 -105.5t114.5 -41.5q42 0 74 12.5t51.5 28.5t49.5 45q9 9 20 9q12 0 23 -8.5t11 -19.5
q0 -13 -12 -26q-27 -31 -50 -51t-65.5 -37.5t-101.5 -17.5q-72 0 -124 29.5zM486 302q12 0 15 7.5t3 27.5q0 51 -40.5 82.5t-106.5 31.5q-55 0 -103 -28t-79 -66t-35 -64z" />
    <glyph glyph-name="f" unicode="f" horiz-adv-x="389" 
d="M433.5 708.5q34.5 -31.5 34.5 -84.5q0 -14 -3 -29q-4 -27 -15 -38t-32 -11q-19 0 -27 10t-5 24q5 30 5 47q0 25 -11 36.5t-39 11.5q-44 0 -67 -36t-35 -109l-10 -63q-4 -18 -6.5 -33.5t-4.5 -28.5h79q13 0 19.5 -7t6.5 -18q0 -35 -36 -36q-24 -1 -79 -1l-52 -309
q-3 -18 -14.5 -26t-28.5 -8q-35 0 -30 33q11 64 33 208l16 101l-60 -3q-30 0 -30 23q0 17 8.5 28t31.5 12q30 2 60 2q16 105 21 135q32 201 178 201q58 0 92.5 -31.5z" />
    <glyph glyph-name="g" unicode="g" horiz-adv-x="580" 
d="M536.5 523q12.5 -7 12.5 -18q0 -6 -3 -12q-8 -16 -34 -75l-4 -124q-4 -88 -4 -123q0 -93 -13 -193q-15 -113 -89 -170.5t-187 -57.5q-52 0 -94 19.5t-66 53.5t-24 76q0 23 10.5 34t33.5 11q24 0 24 -24q0 -47 32 -76t84 -29q84 0 134.5 37.5t65.5 122.5q6 36 10 103
q-30 -34 -74.5 -54t-100.5 -20q-64 0 -110.5 29t-70.5 77t-24 103q0 79 37 146t100.5 107t140.5 40q46 0 79.5 -13.5t50.5 -32.5q23 45 28 55q8 15 30 15q13 0 25.5 -7zM328.5 89.5q35.5 14.5 63 36.5t36.5 43l3 100q2 70 4 106q-3 13 -19 27.5t-42 24.5t-56 10
q-54 0 -99 -31.5t-71.5 -83.5t-26.5 -109q0 -60 35 -99t105 -39q32 0 67.5 14.5z" />
    <glyph glyph-name="h" unicode="h" horiz-adv-x="564" 
d="M487 469q39 -46 39 -137q0 -80 -39 -302q-2 -13 -14 -21.5t-29 -8.5t-26 8.5t-6 25.5q20 119 29.5 186.5t9.5 111.5q0 57 -18 85.5t-61 28.5q-40 0 -77 -23t-64 -56t-40 -63q-12 -28 -21 -72t-21 -122q-4 -23 -7.5 -43.5t-6.5 -37.5q-2 -12 -15 -20t-29 -8q-17 0 -26 8
t-7 21q39 219 74 390q26 126 74 330q9 35 44 35q32 0 32 -22q0 -6 -1 -10q-8 -28 -75 -325q70 87 171 87q71 0 110 -46z" />
    <glyph glyph-name="i" unicode="i" horiz-adv-x="306" 
d="M188.5 579.5q-14.5 13.5 -14.5 36.5q0 30 22.5 52t53.5 22q24 0 38 -13.5t14 -36.5q0 -30 -23 -52t-53 -22q-23 0 -37.5 13.5zM85 15q-9 9 -6 24l85 425q3 17 15 26t30 9t27 -9t6 -27l-85 -424q-4 -16 -16 -24.5t-29 -8.5q-18 0 -27 9z" />
    <glyph glyph-name="j" unicode="j" horiz-adv-x="336" 
d="M222 581.5q-15 14.5 -15 37.5q0 28 22 49t53 21q25 0 39.5 -14t14.5 -37q0 -30 -23.5 -50.5t-51.5 -20.5q-24 0 -39 14.5zM-106 -204q-35 32 -35 91q0 30 11 44t37 14q18 0 22.5 -9t4.5 -39q0 -35 8.5 -52.5t40.5 -17.5q54 0 84 51.5t50 145.5q18 83 41.5 210t30.5 163
l13 71q2 13 13 21.5t30 8.5t27 -9t6 -23q-60 -317 -87 -442q-29 -135 -81.5 -197.5t-126.5 -62.5q-54 0 -89 32z" />
    <glyph glyph-name="k" unicode="k" horiz-adv-x="531" 
d="M63.5 3q-9.5 8 -7.5 20l125 707q3 16 14.5 25t29.5 9t27 -8.5t6 -25.5l-65 -354l90 46q146 74 211 110q17 9 24 9q13 0 20.5 -11.5t7.5 -25.5q0 -6 -1 -9q-2 -11 -26 -24l-340 -183l273 -222q7 -7 7 -16q0 -16 -15.5 -31t-30.5 -15t-28 11q-24 18 -100 80q-92 75 -123 99
l-31 -170q-2 -13 -14 -21t-28 -8t-25.5 8z" />
    <glyph glyph-name="l" unicode="l" horiz-adv-x="251" 
d="M54 18q-9 9 -6 26l119 712q3 17 16 26.5t31 9.5q15 0 24 -7.5t7 -19.5l-121 -721q-3 -17 -15 -26t-29 -9t-26 9z" />
    <glyph glyph-name="m" unicode="m" horiz-adv-x="797" 
d="M703 472q35 -39 35 -104q0 -58 -54 -336q-2 -13 -13 -22.5t-29 -9.5t-26 10.5t-5 23.5l5 25q27 148 37.5 211t10.5 98q0 83 -65 83q-56 0 -90 -54.5t-49 -133.5q-24 -124 -40 -229q-4 -32 -42 -32q-21 0 -29 10t-5 24l27 148l13 74q6 35 6 66q0 55 -19 89t-57 34
q-35 0 -68.5 -37.5t-60.5 -115.5q-14 -39 -21 -68.5t-13 -65.5q-1 -7 -5 -28q-10 -52 -17 -101q-2 -13 -13.5 -21t-28.5 -8t-24.5 8.5t-5.5 21.5l28 163q35 206 35 220q0 20 -12 34q-1 2 -4.5 5.5t-3.5 8.5q0 14 12.5 25t24.5 11q15 0 26 -14t16 -30q4 -14 4 -30
q0 -9 -1 -14l-1 -7q50 104 141 104q51 0 81 -32t39 -84q47 119 159 119q67 0 102 -39z" />
    <glyph glyph-name="n" unicode="n" horiz-adv-x="554" 
d="M462.5 469.5q38.5 -39.5 38.5 -114.5q0 -34 -10 -96t-32 -182l-8 -45q-2 -14 -13.5 -22.5t-29.5 -8.5t-27 8.5t-7 22.5l8 45q18 102 30.5 177.5t12.5 99.5q0 44 -16 66t-53 22q-57 0 -100.5 -43t-67.5 -109q-19 -52 -29 -116l-25 -145q-2 -14 -13 -21.5t-29 -7.5
q-19 0 -27.5 8t-6.5 21q2 16 4 22q35 214 52 337q1 6 1 16q0 12 -4 24.5t-11 28.5q-2 6 -2 10q0 13 15 24t29 11q13 0 24 -19q7 -11 14 -34t5 -34l-4 -18q25 49 68 80.5t107 31.5q68 0 106.5 -39.5z" />
    <glyph glyph-name="o" unicode="o" horiz-adv-x="593" 
d="M99.5 51.5q-67.5 51.5 -67.5 162.5q0 81 37.5 150.5t105.5 111t154 41.5q68 0 121.5 -27t84 -79.5t30.5 -127.5q0 -82 -36.5 -146t-103.5 -100.5t-155 -36.5q-103 0 -170.5 51.5zM386 90.5q49 28.5 75 79t26 113.5q0 79 -43.5 124.5t-114.5 45.5q-64 0 -113.5 -32.5
t-77 -87.5t-27.5 -119q0 -81 46 -116.5t113 -35.5t116 28.5z" />
    <glyph glyph-name="p" unicode="p" horiz-adv-x="617" 
d="M467 486.5q50 -26.5 80.5 -75t30.5 -112.5q0 -88 -35 -156t-99.5 -106t-150.5 -38q-62 0 -113 17.5t-69 33.5l-22 -106l-28 -136q-3 -15 -15 -23.5t-29 -8.5q-19 0 -26.5 11t-4.5 24l15 69q29 124 51 238q23 119 32.5 179t9.5 87q0 31 -16 57q0 1 -3.5 4.5t-3.5 10.5
q0 14 17 27t31 13q10 0 18 -8q20 -23 27 -64q27 35 76.5 62t118.5 27q58 0 108 -26.5zM401.5 95q47.5 32 73 85.5t25.5 118.5q0 71 -40.5 109.5t-100.5 38.5q-50 0 -93.5 -22.5t-71.5 -52.5t-31 -48l-4 -23q-25 -139 -30 -166q2 -13 26 -30.5t60.5 -29.5t74.5 -12
q64 0 111.5 32z" />
    <glyph glyph-name="q" unicode="q" horiz-adv-x="641" 
d="M617.5 476q8.5 -9 8.5 -19q0 -9 -12 -24l-54 -73q-40 -197 -68 -346q-5 -29 -9.5 -51t-7.5 -40q-16 -76 -25 -130q-2 -13 -14.5 -21.5t-30.5 -8.5q-17 0 -26 8t-7 20l53 268q-65 -61 -166 -61q-62 0 -112 25.5t-79.5 74t-29.5 115.5q0 82 38.5 150.5t105 108.5t147.5 40
q68 0 119.5 -29.5t70.5 -73.5q19 28 42 56q11 13 17 16.5t13 3.5q18 0 26.5 -9zM471 287q3 13 7 37q-1 24 -18.5 53t-51.5 50t-82 21q-59 0 -107 -33t-75.5 -87.5t-27.5 -114.5q0 -74 40 -111.5t103 -37.5q38 0 77 13t68 32.5t39 37.5q16 67 28 140z" />
    <glyph glyph-name="r" unicode="r" horiz-adv-x="502" 
d="M435 480.5q34 -33.5 34 -86.5q0 -66 -40.5 -101.5t-101.5 -35.5q-18 0 -25.5 4.5t-7.5 15.5q0 33 31 35q39 4 58.5 25t19.5 57q0 25 -14 41t-46 16q-40 0 -76 -34t-61.5 -84.5t-37.5 -99.5q-15 -65 -37 -174q-7 -41 -16.5 -54t-31.5 -13q-19 0 -26 7t-7 21q0 4 2 18
l33 192q12 67 18 125.5t11 138.5q1 15 13 24t30 9q30 0 28 -30q-5 -54 -14 -117q27 64 71 99t101 35q58 0 92 -33.5z" />
    <glyph glyph-name="s" unicode="s" horiz-adv-x="486" 
d="M97 29.5q-48 34.5 -65 84.5q-4 12 -4 19q3 14 17.5 24.5t29.5 10.5q9 0 14 -5.5t12 -19.5q17 -34 45.5 -58.5t70.5 -24.5q47 0 79 24.5t32 59.5q0 28 -24 44t-75 35q-46 18 -74.5 33.5t-49 42.5t-20.5 67q0 44 23 79t66.5 55.5t101.5 20.5q71 0 116.5 -37t45.5 -99
q0 -28 -8 -38t-31 -10q-16 0 -24 8t-7 20q3 47 -21.5 69t-70.5 22q-61 0 -87.5 -26t-26.5 -64q0 -28 25.5 -45.5t76.5 -37.5q45 -18 73.5 -34t48.5 -41.5t20 -63.5q0 -72 -54.5 -110.5t-137.5 -38.5q-69 0 -117 34.5z" />
    <glyph glyph-name="t" unicode="t" horiz-adv-x="440" 
d="M371 137q0 -35 -17 -67t-46.5 -51t-64.5 -19q-58 0 -90 39.5t-32 111.5q0 74 40 239q-23 1 -64 5q-29 2 -25 33q4 16 13 23t24 7q11 0 69 -4q10 39 19.5 70.5t16.5 57.5l17 58q9 30 43 30q16 0 25.5 -7.5t9.5 -18.5q0 -3 -2 -9q-36 -110 -56 -185q46 -2 71 -2q18 0 26 -4
t8 -14q0 -24 -11 -33t-32 -9h-79q-39 -149 -39 -238q0 -41 11 -63.5t37 -22.5q24 0 43 16.5t19 48.5q0 14 10 24t29 10q27 0 27 -26z" />
    <glyph glyph-name="u" unicode="u" horiz-adv-x="547" 
d="M436 110q-2 -14 -2 -19q0 -18 6 -32.5t6 -18.5q0 -11 -13.5 -22t-24.5 -11q-21 0 -35 19.5t-14 41.5v8q-29 -37 -73 -56.5t-94 -19.5q-137 0 -137 150q0 28 10.5 91t22.5 129q16 83 19 104q2 13 14 21t28 8q17 0 26.5 -8t7.5 -21q-6 -35 -11.5 -64.5t-9.5 -53.5
q-11 -61 -20.5 -118.5t-9.5 -81.5q0 -47 19.5 -70t59.5 -23q134 0 178 245l30 167q3 16 14.5 25t28.5 9q18 0 27 -9t7 -25z" />
    <glyph glyph-name="v" unicode="v" horiz-adv-x="529" 
d="M156.5 66.5q-31.5 60.5 -49.5 157.5q-9 51 -14.5 106.5t-5.5 96.5q0 38 9.5 56.5t39.5 18.5q19 0 25 -9t6 -30l-1 -36q0 -75 13 -169q11 -66 27.5 -115.5t26.5 -49.5q12 0 45.5 47.5t71.5 117.5q70 127 95 216q4 15 15.5 24t27.5 9q15 0 23.5 -8t8.5 -22
q0 -24 -31.5 -100t-74.5 -155q-58 -104 -104 -160t-84 -56t-69.5 60.5z" />
    <glyph glyph-name="w" unicode="w" horiz-adv-x="776" 
d="M154 54q-25 52 -36.5 129t-11.5 151q0 86 9 138q5 23 13.5 34t32.5 11q34 0 32 -31q-2 -16 -2 -24q-9 -86 -9 -125q0 -85 11.5 -167.5t33.5 -82.5q12 0 46 71.5t101 226.5q9 21 20 31t28 10t24 -9.5t10 -31.5l13 -100q12 -103 22 -148.5t29 -45.5q14 0 31.5 34t44.5 101
q36 90 49.5 134t31.5 123q3 14 12 23.5t31 9.5q32 0 32 -27q0 -37 -34 -141t-65 -172q-78 -174 -138 -174q-31 0 -56 42t-39 114t-16 159q-45 -140 -94 -227.5t-95 -87.5q-36 0 -61 52z" />
    <glyph glyph-name="x" unicode="x" horiz-adv-x="509" 
d="M467 462l-166 -191l64 -107l67 -112q4 -6 4 -12q0 -16 -14.5 -28t-30.5 -12q-15 0 -22 12l-120 200q-24 -28 -150 -172l-26 -29q-12 -13 -29 -13q-15 0 -24 9t-9 21q0 11 6 18l197 224l-49 82l-65 109q-1 2 -1.5 6t0.5 8q1 11 16.5 22.5t29.5 11.5q13 0 19 -9
q66 -110 102 -171l75 85l75 85q11 11 21 11q14 0 24.5 -10.5t10.5 -24.5q0 -8 -5 -13z" />
    <glyph glyph-name="y" unicode="y" horiz-adv-x="522" 
d="M97.5 -248.5q-8.5 10.5 -6.5 25.5q2 9 5 14l28 51q89 163 115 214q-35 26 -71.5 95t-60 154.5t-23.5 159.5v13q0 9 11 19.5t32 10.5q15 0 19.5 -6.5t5.5 -20.5q5 -92 25 -168.5t46 -128t50 -72.5l53 115q79 172 114 258q6 15 14 20.5t23 5.5q37 0 38 -30q0 -5 -3 -11
q-56 -133 -93 -215t-84 -172q-42 -81 -91.5 -171.5t-79.5 -143.5q-15 -27 -40 -27q-18 0 -26.5 10.5z" />
    <glyph glyph-name="z" unicode="z" horiz-adv-x="556" 
d="M258 7q-36 0 -139 -5l-63 -2q-26 0 -39 6t-13 20q0 18 23 39q230 207 422 373q-17 0 -57 -4q-72 -5 -104 -5q-47 0 -88.5 4t-59.5 9q-24 7 -24 24q0 15 10 29t28 11q96 -13 170 -13q39 0 116 7q50 4 68 4q31 0 40.5 -5.5t9.5 -18.5q0 -16 -7 -27t-19 -22
q-103 -92 -220 -193q-139 -120 -198 -173l46 2q70 4 119 4q73 0 150 -9q20 -3 20 -24q0 -17 -11 -29t-28 -11q-81 9 -152 9z" />
    <glyph glyph-name="braceleft" unicode="{" horiz-adv-x="399" 
d="M121.5 -136q-37.5 44 -37.5 113q0 27 11 87q14 76 14 119q0 54 -23 68q-26 16 -26 39q0 15 11 30t29 21q18 5 38 64t39 170q10 56 39 100t72 69t92 25q29 0 43 -5t14 -22q0 -44 -58 -44q-62 0 -93 -36t-46 -126q-18 -104 -42 -162t-61 -77q21 -20 30.5 -45t9.5 -66
t-12 -117q-10 -64 -10 -84q0 -95 88 -95q16 0 25 -8t9 -21q0 -15 -15 -28t-34 -13q-69 0 -106.5 44z" />
    <glyph glyph-name="bar" unicode="|" horiz-adv-x="265" 
d="M47 -85.5q-8 6.5 -6 17.5q52 259 91 476q40 221 80 463q1 9 11.5 15t23.5 6q12 0 20.5 -5.5t7.5 -13.5q-10 -53 -31 -176q-30 -180 -50 -287q-61 -329 -91 -478q-2 -11 -11.5 -17.5t-23.5 -6.5q-13 0 -21 6.5z" />
    <glyph glyph-name="braceright" unicode="}" horiz-adv-x="399" 
d="M-3.5 -172.5q-9.5 7.5 -9.5 19.5q0 16 13 27.5t33 11.5q111 0 140 157q14 80 29 127.5t34.5 76t49.5 50.5q-33 22 -33 95q0 24 4 58.5t9 66.5q10 70 10 88q0 52 -22 74.5t-71 22.5q-21 0 -33.5 5.5t-12.5 21.5q0 27 17 33.5t52 6.5q64 0 101 -41t37 -108q0 -29 -11 -95
q-14 -86 -14 -131q0 -48 15 -53q13 -4 20 -14.5t7 -22.5q0 -14 -12 -28.5t-32 -24.5q-31 -15 -47 -69t-35 -160q-10 -55 -39 -101t-74 -73.5t-99 -27.5q-17 0 -26.5 7.5z" />
    <glyph glyph-name="asciitilde" unicode="~" horiz-adv-x="540" 
d="M274 291q-5 2 -21.5 8t-32 9t-31.5 3q-27 0 -50 -10q-4 -2 -16.5 -7.5t-20.5 -5.5t-15.5 7.5t-7.5 17.5q0 7 8 19q14 17 49.5 28t70.5 11q21 0 41.5 -6t56.5 -18q45 -15 75 -15q18 0 50 14q20 9 27 9q13 0 22 -11t6 -22q-2 -6 -5 -9.5t-11 -9.5q-20 -14 -46 -22t-49 -8
q-46 0 -100 18z" />
    <glyph glyph-name="uni007F" 
 />
    <glyph glyph-name="uni00A0" unicode="&#xa0;" 
 />
    <glyph glyph-name="exclamdown" unicode="&#xa1;" horiz-adv-x="265" 
d="M122 406q-15 15 -15 36q0 27 23 48.5t50 21.5q21 0 36.5 -15.5t15.5 -37.5q0 -25 -23.5 -46.5t-49.5 -21.5q-22 0 -37 15zM36.5 -187q-6.5 9 -4.5 25l89 470q3 16 11.5 24.5t21.5 8.5t19 -10.5t4 -26.5l-87 -466q-2 -16 -11 -25t-23 -9q-13 0 -19.5 9z" />
    <glyph glyph-name="cent" unicode="&#xa2;" horiz-adv-x="588" 
d="M238.5 414.5q-51.5 -35.5 -81.5 -92.5t-30 -117q0 -62 39 -101.5t109 -39.5q52 0 97 21t71 53t26 63q0 10 10 17t25 7q16 0 24.5 -5.5t8.5 -19.5q0 -55 -37 -100t-96 -71t-121 -28l-14 -72q-1 -11 -8.5 -16.5t-17.5 -5.5q-24 0 -21 21l14 75q-86 12 -135.5 69t-49.5 133
q0 79 36 147.5t99.5 111t140.5 48.5l14 75q1 10 8.5 15t17.5 5q24 0 21 -20l-14 -75q46 -5 87.5 -26.5t66.5 -54.5t25 -69q0 -33 -39 -33q-15 0 -24 7t-9 20q0 22 -16.5 44t-46.5 36t-68 14q-60 0 -111.5 -35.5z" />
    <glyph glyph-name="sterling" unicode="&#xa3;" horiz-adv-x="595" 
d="M508.5 660.5q46.5 -39.5 46.5 -107.5q0 -10 -2 -30t-10 -28.5t-25 -8.5q-15 0 -20 7.5t-5 23.5v24q0 53 -29.5 78t-77.5 25q-44 0 -81 -21t-59 -55.5t-22 -72.5q0 -31 7 -59.5t21 -67.5l12 -38l133 -2q21 0 30 -5.5t6 -19.5q-2 -14 -12.5 -18.5t-32.5 -4.5l-113 1
q3 -18 3 -37q0 -81 -50 -146l37 -14q30 -13 55.5 -21t51.5 -8q31 0 49.5 12.5t42.5 42.5q9 10 15 14.5t14 4.5q10 0 19 -7.5t9 -17.5q0 -7 -6 -16q-27 -41 -66 -64.5t-89 -23.5q-35 0 -61 7.5t-57 21.5q-23 11 -39 16t-34 5q-27 0 -46 -10.5t-47 -32.5q-16 -12 -26 -12
q-12 0 -20 9t-8 19q0 6 2.5 10.5t5.5 7t4 4.5q16 20 54 39t76 24q52 61 52 136q0 20 -3 38l-89 1q-18 0 -27 5t-7 20q3 14 13 18.5t29 4.5l69 -1q-5 17 -17 49q-15 44 -21 67t-6 49q0 55 32 102t85 75t112 28q76 0 122.5 -39.5z" />
    <glyph glyph-name="currency" unicode="&#xa4;" horiz-adv-x="841" 
d="M620 43l-43 51q-44 -27 -87 -39.5t-92 -12.5t-99.5 15.5t-84.5 43.5l-65 -58q-21 -17 -31 -17q-14 0 -25 10.5t-11 25.5q0 5 4.5 10.5t5.5 6.5q3 4 75 69q-24 32 -36.5 74.5t-12.5 84.5q0 68 31 131.5t86 115.5l-44 52q-8 10 -8 20q0 15 14.5 29t32.5 14q10 0 16 -4
t14 -14l38 -45q44 28 88.5 41t98.5 13q52 0 102.5 -16t82.5 -43l55 50q21 19 37 19q12 0 23 -9.5t11 -21.5q0 -18 -18 -33l-61 -54q21 -30 32.5 -69.5t11.5 -81.5q0 -72 -31.5 -136.5t-89.5 -116.5l50 -68q5 -6 5 -14q0 -15 -16 -27.5t-31 -12.5q-13 0 -28 17zM537.5 148
q65.5 41 105 109t39.5 144q0 58 -26 102.5t-71 69t-100 24.5q-74 0 -140.5 -40t-106.5 -106.5t-40 -140.5q0 -57 26 -103.5t71.5 -73t102.5 -26.5q74 0 139.5 41z" />
    <glyph glyph-name="yen" unicode="&#xa5;" horiz-adv-x="655" 
d="M403 338l114 2q19 0 19 -19q0 -12 -7.5 -21t-20.5 -9l-133 -2l-9 -51l132 2q10 0 15.5 -5t5.5 -13q0 -14 -8 -22.5t-21 -8.5l-132 -2l-24 -146q-8 -40 -45 -40q-19 0 -27.5 11.5t-5.5 26.5l25 147l-135 -2q-20 0 -20 21q0 11 7.5 19.5t20.5 8.5l135 2l8 51l-134 -2
q-9 0 -14.5 5.5t-5.5 13.5q0 13 8 21.5t21 8.5l116 2q-39 28 -82 122q-23 49 -34.5 88.5t-26.5 107.5q-1 3 -1 10q0 17 14 26t33 9q27 0 35 -35q16 -65 25.5 -97.5t24.5 -71.5q15 -40 36 -73t39 -33q17 0 47.5 29t69.5 79q31 40 56 78t59 93q11 18 17 23.5t17 5.5
q17 0 30 -8.5t13 -21.5q0 -10 -6 -19q-67 -118 -125 -192q-69 -85 -126 -119z" />
    <glyph glyph-name="brokenbar" unicode="&#xa6;" horiz-adv-x="271" 
d="M149 449.5q-7 6.5 -5 19.5l66 396q2 12 12.5 19t24.5 7q30 0 25 -26l-66 -396q-2 -13 -11.5 -19.5t-23.5 -6.5q-15 0 -22 6.5zM51 -85q-7 7 -5 20l73 397q6 29 36 29q31 0 26 -29l-72 -397q-4 -27 -36 -27q-15 0 -22 7z" />
    <glyph glyph-name="section" unicode="&#xa7;" horiz-adv-x="644" 
d="M509.5 743q42.5 -17 67.5 -49t25 -73q0 -15 -3 -32q-7 -33 -37 -33t-25 23q2 10 2 27q0 49 -31.5 73.5t-89.5 24.5q-47 0 -86 -17.5t-62 -48.5t-23 -71q0 -38 31.5 -67t108.5 -51q90 -26 131 -69t41 -93q0 -48 -31.5 -88.5t-80.5 -64.5q36 -40 36 -99q0 -58 -29.5 -103
t-81.5 -70t-117 -25q-59 0 -105 22.5t-71.5 62.5t-25.5 89q0 12 4 40q2 13 12 20.5t26 7.5q13 0 20 -7.5t5 -19.5q-3 -16 -3 -31q0 -56 35.5 -92t102.5 -36q46 0 83.5 18.5t59 51.5t21.5 74q0 47 -34 72.5t-110 47.5q-172 51 -172 162q0 49 29 96t75 78q-23 34 -23 78
q0 51 30 94.5t83.5 69t120.5 25.5q49 0 91.5 -17zM241 454q-31 -20 -52 -58t-21 -75q0 -39 29.5 -64.5t106.5 -46.5q59 -16 94 -37q42 15 70 47t28 67q0 37 -35.5 63t-111.5 49q-68 20 -108 55z" />
    <glyph glyph-name="dieresis" unicode="&#xa8;" horiz-adv-x="376" 
d="M89.5 589.5q-13.5 13.5 -13.5 33.5q0 28 20 47t47 19q22 0 36 -13t14 -33q0 -27 -21 -47t-48 -20q-21 0 -34.5 13.5zM329.5 589.5q-13.5 13.5 -13.5 33.5q0 28 20 47t47 19q22 0 35.5 -13t13.5 -33q0 -27 -20.5 -47t-47.5 -20q-21 0 -34.5 13.5z" />
    <glyph glyph-name="copyright" unicode="&#xa9;" horiz-adv-x="894" 
d="M693.5 665q67.5 -41 102 -108t34.5 -144q0 -111 -53.5 -206t-146 -151t-203.5 -56q-97 0 -170 42.5t-112 113t-39 150.5q0 111 57 203t154.5 144.5t214.5 52.5q94 0 161.5 -41zM601.5 102q78.5 48 124 130.5t45.5 180.5q0 104 -59 172t-180 68q-97 0 -182 -48
t-135.5 -128t-50.5 -171q0 -71 32 -128.5t92 -90.5t139 -33q96 0 174.5 48zM660 558q7 -5 6 -13q-9 -52 -18 -74.5t-27 -23.5q-17 0 -23 8q-23 33 -40.5 46.5t-47.5 13.5q-47 0 -88.5 -32t-66 -83t-24.5 -104q0 -56 32.5 -82t90.5 -26q57 0 89.5 29t39.5 69q2 10 11 15.5
t22 5.5t20 -5.5t5 -15.5q-12 -64 -65 -105.5t-134 -41.5q-75 0 -124.5 39.5t-49.5 115.5q0 67 33 130t89 102t121 39q33 0 57.5 -12t44.5 -36l5 26q4 20 23 20q12 0 19 -5z" />
    <glyph glyph-name="ordfeminine" unicode="&#xaa;" horiz-adv-x="355" 
d="M354 682.5q-4 -11.5 -7 -29.5q-22 -115 -22 -130q0 -9 3 -12t13 -5q7 -2 9 -4.5t0 -10.5q-3 -10 -7.5 -15t-13.5 -5q-34 0 -42 23l-2 8q-15 -18 -33 -26t-43 -8q-53 0 -78 28.5t-25 69.5q0 40 18 77.5t50.5 61t73.5 23.5q24 0 42 -8.5t27 -21.5l2 9q2 7 9 12.5t16 5.5
t16 -5.5t4 -12.5q-6 -13 -10 -24.5zM259 523q20 14 26 42l12 63q1 4 1 13q0 21 -14 34t-39 13q-32 0 -52.5 -20t-29.5 -48t-9 -53q0 -58 56 -58q29 0 49 14z" />
    <glyph glyph-name="guillemotleft" unicode="&#xab;" horiz-adv-x="568" 
d="M195.5 223.5q-45.5 27.5 -79.5 66t-34 69.5q0 33 50 76t115 75t99 32q25 0 25 -20q0 -15 -10 -24t-30 -16q-39 -9 -83.5 -34.5t-76 -52.5t-31.5 -36q0 -10 22 -32t54 -43t63 -29q12 -4 18.5 -12t6.5 -18q0 -12 -9.5 -20.5t-22.5 -8.5q-31 0 -76.5 27.5zM386 218
q-46 28 -80 67t-34 69q0 31 50.5 74.5t114.5 76t96 32.5q10 0 16.5 -6.5t6.5 -17.5q0 -15 -8 -23t-24 -13q-44 -12 -88 -37t-73 -50.5t-29 -35.5t20.5 -31t52 -41.5t64.5 -31.5q25 -9 25 -27q0 -13 -10 -23t-24 -10q-30 0 -76 28z" />
    <glyph glyph-name="logicalnot" unicode="&#xac;" horiz-adv-x="769" 
d="M647 194q-7 7 -7 17q0 8 1 12l8 46q21 120 24 141l-248 1l-291 -1q-39 0 -39 24q0 42 47 42l301 1h266q17 0 26 -8t8 -23l-37 -224q-6 -35 -39 -35q-13 0 -20 7z" />
    <glyph glyph-name="uni00AD" unicode="&#xad;" horiz-adv-x="381" 
d="M52.5 248q-6.5 8 -6.5 20q0 19 10.5 30.5t24.5 11.5q72 3 236 3q32 0 32 -27q0 -17 -13.5 -29t-32.5 -12q-73 0 -147 -3q-62 -2 -86 -2q-11 0 -17.5 8z" />
    <glyph glyph-name="registered" unicode="&#xae;" horiz-adv-x="894" 
d="M694 668q68 -42 102 -111t34 -147q0 -112 -53.5 -206t-146 -149t-204.5 -55q-97 0 -169.5 40t-111.5 107.5t-39 147.5q0 110 57.5 205.5t155 152.5t210.5 57q97 0 165 -42zM601 101.5q80 49.5 127 132t47 176.5q0 67 -26.5 123.5t-82 90.5t-137.5 34q-96 0 -180.5 -49
t-134.5 -130t-50 -173q0 -70 32 -128t91.5 -92t137.5 -34q96 0 176 49.5zM611.5 527.5q35.5 -27.5 35.5 -76.5q0 -71 -55.5 -107.5t-145.5 -36.5q-5 0 -21 2l157 -123q6 -4 6 -11q0 -11 -11.5 -22.5t-22.5 -11.5q-9 0 -14 5l-158 136l-21 -117q-2 -11 -10 -19t-23 -8
q-25 0 -21 27l7 35q3 13 8 46l19 104l17 117q-9 1 -13.5 9.5t-2.5 20.5q1 10 22 19h1l2 16q2 13 11.5 18.5t22.5 5.5q12 0 18 -5t5 -13q55 17 96 17q56 0 91.5 -27.5zM558 377.5q36 21.5 36 65.5q0 30 -24.5 47t-66.5 17q-40 0 -88 -19q-14 -82 -18 -121q19 -11 71 -11
q54 0 90 21.5z" />
    <glyph glyph-name="macron" unicode="&#xaf;" horiz-adv-x="383" 
d="M158 609q-28 0 -50 8q-18 8 -18 25q0 18 13.5 28t29.5 7q29 -7 68 -7q21 0 69 4t77 4q12 0 36 -2q16 -2 25 -2q11 -1 18 -8t7 -18q0 -16 -12.5 -26t-26.5 -8q-30 4 -52 4q-30 0 -74 -4q-42 -4 -66 -4z" />
    <glyph glyph-name="degree" unicode="&#xb0;" horiz-adv-x="385" 
d="M153.5 593q-33.5 31 -33.5 82q0 49 25.5 90t67.5 64.5t89 23.5q59 0 93.5 -34t34.5 -84q0 -45 -26 -85t-68.5 -64t-88.5 -24q-60 0 -93.5 31zM338.5 646q34.5 32 34.5 79q0 31 -20 53t-64 22q-33 0 -59 -18t-40 -45t-14 -53q0 -33 23 -51.5t57 -18.5q48 0 82.5 32z" />
    <glyph glyph-name="plusminus" unicode="&#xb1;" horiz-adv-x="540" 
d="M507 370q0 -19 -13 -28.5t-36 -9.5q-83 0 -139 1l-20 -114q-2 -15 -12.5 -23.5t-26.5 -8.5q-26 0 -26 23q0 6 1 9l20 115l-151 1q-31 0 -31 22q0 19 12 29.5t34 10.5l146 -2l20 113q5 30 38 30q12 0 20 -8.5t6 -18.5l-7 -43l-13 -74l139 -1q39 0 39 -23zM429 110.5
q10 -6.5 10 -18.5q0 -37 -54 -37l-310 -3q-33 0 -33 21q0 20 11 30.5t38 10.5l309 3q19 0 29 -6.5z" />
    <glyph glyph-name="uni00B2" unicode="&#xb2;" horiz-adv-x="378" 
d="M367 419.5q8 -7.5 8 -18.5q0 -16 -10.5 -26t-27.5 -10l-39 1q-34 3 -89 3q-25 0 -69 -2l-57 -1q-15 0 -22.5 7.5t-3.5 19.5q18 51 66 99t130 99q102 65 102 139q0 31 -19.5 49t-53.5 18t-61 -25.5t-33 -61.5q-4 -26 -40 -26q-29 0 -29 25q0 37 23 71t60.5 55t79.5 21
q43 0 76 -17.5t51.5 -46t18.5 -62.5q0 -43 -20.5 -77.5t-51 -59.5t-75.5 -54q-60 -39 -88.5 -61.5t-45.5 -49.5q24 1 72 1l75 -1q20 -1 51 -1q14 0 22 -7.5z" />
    <glyph glyph-name="uni00B3" unicode="&#xb3;" horiz-adv-x="424" 
d="M427.5 573q14.5 -24 14.5 -54q0 -39 -22 -74.5t-65.5 -58t-106.5 -22.5q-74 0 -121 32t-47 96q0 17 3 36q4 20 13.5 29.5t27.5 9.5q29 0 29 -25q0 -8 -1 -17t-1 -20q0 -36 21.5 -59t79.5 -23q53 0 87 25t34 71q0 33 -24 46t-63 15q-15 1 -20.5 7t-3.5 20q3 17 11 24t22 7
q51 3 78.5 28.5t27.5 67.5q0 29 -19 46t-49 17q-43 0 -73.5 -29t-27.5 -70q1 -11 -10 -19t-30 -8q-16 0 -23.5 7.5t-7.5 24.5q0 41 24 76t63.5 56t84.5 21q38 0 70 -17t50.5 -45t18.5 -60q0 -41 -22.5 -74t-60.5 -50q24 -13 38.5 -37z" />
    <glyph glyph-name="acute" unicode="&#xb4;" horiz-adv-x="376" 
d="M179 568q-6 6 -7 15q0 16 15 31l106 106q13 13 22 18t20 5q12 0 19.5 -7t7.5 -18t-6.5 -21.5t-20.5 -23.5l-105 -94q-10 -10 -18 -13.5t-17 -3.5q-10 0 -16 6z" />
    <glyph glyph-name="mu" unicode="&#xb5;" horiz-adv-x="584" 
d="M150 134q0 -71 70 -71q41 0 80.5 28.5t70.5 82t48 129.5l51 233h86l-114 -536h-72l11 99h-5q-46 -60 -88.5 -84.5t-88.5 -24.5q-55 0 -79 46h-4l-20 -122l-32 -154h-86l164 776h88l-71 -337q-9 -43 -9 -65z" />
    <glyph glyph-name="paragraph" unicode="&#xb6;" horiz-adv-x="600" 
d="M266 -12l49 289q-92 2 -151.5 51t-59.5 134q0 86 47 150.5t127.5 99t176.5 34.5q70 0 87 -2q19 -2 28 -8.5t9 -21.5q0 -8 -1 -12l-123 -700q-4 -19 -10.5 -25.5t-22.5 -6.5q-23 0 -23 17l118 692q2 11 -4.5 13.5t-26.5 2.5q-27 0 -36 -3t-10 -15l-119 -682
q-6 -25 -33 -25q-22 0 -22 18z" />
    <glyph glyph-name="periodcentered" unicode="&#xb7;" horiz-adv-x="436" 
d="M174.5 287q-18.5 18 -18.5 47q0 42 26.5 68t69.5 26q30 0 48 -18t18 -48q0 -42 -26 -67.5t-68 -25.5q-31 0 -49.5 18z" />
    <glyph glyph-name="cedilla" unicode="&#xb8;" horiz-adv-x="376" 
d="M23 -218.5q-25 4.5 -40 9.5q-16 6 -16 25q0 14 10 24t24 10q4 -1 27 -7t41 -6q36 0 53.5 5t17.5 26q0 15 -11.5 20t-30.5 8.5t-26 4.5q-12 1 -19 7t-7 15q0 6 3 12l75 91q13 17 26 17q14 0 25.5 -6.5t11.5 -16.5q0 -5 -8 -17l-46 -57q33 -8 53 -28.5t20 -53.5
q0 -44 -37.5 -65.5t-101.5 -21.5q-19 0 -44 4.5z" />
    <glyph glyph-name="uni00B9" unicode="&#xb9;" horiz-adv-x="285" 
d="M296 840q10 -10 7 -28l-72 -415q-2 -14 -13 -22t-29 -8q-14 0 -21.5 6t-7.5 15q0 3 2 9l64 368q-15 -18 -32 -36.5t-39 -38.5q-11 -10 -25 -10q-10 0 -17.5 7t-7.5 17q0 6 6.5 15t14.5 17l34 36q24 24 62 65q14 13 45 13q19 0 29 -10z" />
    <glyph glyph-name="ordmasculine" unicode="&#xba;" horiz-adv-x="353" 
d="M142 494q-34 27 -34 83q0 39 18 72t51 52.5t78 19.5q48 0 82 -32t34 -81q0 -67 -38.5 -104t-109.5 -37q-47 0 -81 27zM295 532q28 26 28 76q0 34 -19 54t-49 20q-46 0 -74 -30.5t-28 -74.5q0 -32 21 -51.5t49 -19.5q44 0 72 26z" />
    <glyph glyph-name="guillemotright" unicode="&#xbb;" horiz-adv-x="569" 
d="M62.5 201q-5.5 6 -5.5 16q0 16 7.5 24.5t24.5 13.5q44 12 88 37t73 50t29 36q0 10 -20 31t-51.5 42t-65.5 32q-12 3 -18.5 10t-6.5 16q0 13 10 23.5t23 10.5q29 0 75.5 -28.5t81 -68t34.5 -68.5q0 -30 -50.5 -73.5t-115 -76.5t-97.5 -33q-10 0 -15.5 6zM250 196
q-7 6 -7 17q0 14 10.5 24t28.5 13q39 7 83 32.5t76 53.5t32 37t-21.5 31t-53.5 43t-63 30q-13 4 -19.5 12t-6.5 18q0 12 9.5 20.5t21.5 8.5q31 0 77.5 -27.5t80.5 -66t34 -69.5q0 -32 -49.5 -75.5t-114 -75.5t-99.5 -32q-12 0 -19 6z" />
    <glyph glyph-name="onequarter" unicode="&#xbc;" horiz-adv-x="852" 
d="M98.5 604q-7.5 7 -7.5 17q0 6 6.5 15t14.5 17l34 36q24 24 62 65q14 13 45 13q19 0 29 -10t7 -28l-72 -415q-2 -14 -13 -22t-29 -8q-14 0 -21.5 6t-7.5 15q0 3 2 9l64 368q-15 -18 -32 -36.5t-39 -38.5q-11 -10 -25 -10q-10 0 -17.5 7zM697 711l-532 -691
q-16 -20 -38 -20q-13 0 -21 6t-8 17q0 14 13 30l529 689q17 23 41 23q13 0 21 -8t6 -22q-4 -16 -11 -24zM791 199q9 0 14 -5.5t5 -15.5q0 -17 -6.5 -26.5t-25.5 -12.5q-7 -1 -55 -6l-23 -107q-2 -12 -13.5 -20.5t-27.5 -8.5q-17 0 -23.5 9t-4.5 24l22 101q-33 -1 -103 -1
q-62 0 -114 13q-23 6 -23 22q0 11 11 27q67 98 123 170t114 124q10 8 24 8q10 0 18 -8t8 -19q0 -7 -4.5 -14t-16.5 -19q-51 -48 -102 -112.5t-84 -117.5q-2 -4 -2 -6q0 -5 10 -6q23 -5 90 -5q22 0 64 2l32 146q8 30 39 30q18 0 25.5 -9t4.5 -22l-31 -140q17 1 51 5h4z" />
    <glyph glyph-name="onehalf" unicode="&#xbd;" horiz-adv-x="864" 
d="M97.5 603q-7.5 7 -7.5 17q0 6 6.5 15t14.5 17l34 36q24 24 62 65q14 13 45 13q19 0 29 -10t7 -28l-72 -415q-2 -14 -13 -22t-29 -8q-14 0 -21.5 6t-7.5 15q0 3 2 9l64 368q-15 -18 -32 -36.5t-39 -38.5q-11 -10 -25 -10q-10 0 -17.5 7zM696 711l-532 -691
q-16 -20 -38 -20q-13 0 -21 6t-8 17q0 14 13 30l529 689q17 23 41 23q13 0 22 -8.5t5 -21.5q-4 -16 -11 -24zM788 52.5q8 -7.5 8 -18.5q0 -16 -10.5 -26t-27.5 -10l-39 1q-34 3 -89 3q-25 0 -69 -2l-57 -1q-15 0 -22.5 7.5t-3.5 19.5q18 51 66 99t130 99q102 65 102 139
q0 31 -19.5 49t-53.5 18t-61 -25.5t-33 -61.5q-4 -26 -40 -26q-29 0 -29 25q0 37 23 71t60.5 55t79.5 21q43 0 76 -17.5t51.5 -46t18.5 -62.5q0 -43 -20.5 -77.5t-51 -59.5t-75.5 -54q-60 -39 -88.5 -61.5t-45.5 -49.5q24 1 72 1l75 -1q20 -1 51 -1q14 0 22 -7.5z" />
    <glyph glyph-name="threequarters" unicode="&#xbe;" horiz-adv-x="974" 
d="M404 354.5q-22 -35.5 -65.5 -58t-106.5 -22.5q-74 0 -121 32t-47 96q0 17 3 36q4 20 13.5 29.5t27.5 9.5q29 0 29 -25q0 -8 -1 -17t-1 -20q0 -36 21.5 -59t79.5 -23q53 0 87 25t34 71q0 33 -24 46t-63 15q-15 1 -20.5 7t-3.5 20q3 17 11 24t22 7q51 3 78.5 28.5
t27.5 67.5q0 29 -19 46t-49 17q-43 0 -73.5 -29t-27.5 -70q1 -11 -10 -19t-30 -8q-16 0 -23.5 7.5t-7.5 24.5q0 41 24 76t63.5 56t84.5 21q38 0 70 -17t50.5 -45t18.5 -60q0 -41 -22.5 -74t-60.5 -50q24 -13 38.5 -37t14.5 -54q0 -39 -22 -74.5zM837 711l-531 -691
q-16 -20 -38 -20q-13 0 -21 6t-8 17q0 14 13 30l529 689q17 23 40 23q14 0 22 -8t6 -22q-4 -15 -12 -24zM912 192q9 0 14 -5.5t5 -15.5q0 -17 -6.5 -26.5t-25.5 -12.5q-7 -1 -55 -6l-23 -107q-2 -12 -13.5 -20.5t-27.5 -8.5q-17 0 -23.5 9t-4.5 24l22 101q-33 -1 -103 -1
q-62 0 -114 13q-23 6 -23 22q0 11 11 27q67 98 123 170t114 124q10 8 24 8q10 0 18 -8t8 -19q0 -7 -4.5 -14t-16.5 -19q-51 -48 -102 -112.5t-84 -117.5q-2 -4 -2 -6q0 -5 10 -6q22 -5 90 -5q22 0 64 2l32 146q8 30 39 30q18 0 25.5 -9t4.5 -22l-31 -140q17 1 51 5h4z" />
    <glyph glyph-name="questiondown" unicode="&#xbf;" horiz-adv-x="527" 
d="M270 487q-13 13 -13 32q0 24 19.5 43t43.5 19q21 0 34 -12.5t13 -32.5q0 -23 -20 -42.5t-45 -19.5q-19 0 -32 13zM111 -103q-40 22 -61.5 59.5t-21.5 82.5q0 47 18.5 84.5t44.5 64.5t69 64q50 42 73.5 70.5t23.5 64.5q0 16 11 25.5t26 9.5q11 0 17 -7t6 -18
q0 -49 -30 -89.5t-89 -94.5q-56 -53 -83 -88.5t-27 -78.5q0 -51 31.5 -81.5t86.5 -30.5q79 0 125 37.5t46 103.5q0 26 -14 43t-40 17q-29 0 -29 24q0 16 11.5 25.5t28.5 9.5q45 0 74 -35.5t29 -83.5q0 -60 -30 -105.5t-82.5 -70t-118.5 -24.5q-55 0 -95 22z" />
    <glyph glyph-name="Agrave" unicode="&#xc0;" horiz-adv-x="692" 
d="M477 760.5q-6 3.5 -13 12.5l-64 86q-11 17 -11 27q0 15 10.5 25.5t23.5 10.5q17 0 33 -24l58 -85q10 -13 10 -24q0 -13 -10 -22.5t-23 -9.5q-8 0 -14 3.5zM593 181q-10 -14 -29 -14h-7l16 -133l1 -9q0 -16 -15 -25.5t-33 -9.5q-13 0 -22.5 6t-10.5 16l-18 155l-283 2
q-48 -96 -78 -153q-12 -25 -42 -25q-19 0 -29 10.5t-7 21.5q0 4 4 12l169 334q51 98 117 229q33 64 52.5 88.5t49.5 24.5q28 0 45.5 -24t25.5 -79q25 -171 48 -363h25q15 0 23 -8.5t8 -22.5q0 -19 -10 -33zM467 246l-34 288q-5 40 -9 58t-9 18t-14.5 -16t-30.5 -59l-48 -99
q-45 -95 -91 -187z" />
    <glyph glyph-name="Aacute" unicode="&#xc1;" horiz-adv-x="692" 
d="M382 758.5q-7 6.5 -7 16.5q0 8 6 17.5t16 18.5l92 81q15 14 24.5 19.5t18.5 5.5q11 0 18.5 -7.5t7.5 -18.5q0 -21 -25 -41l-99 -81q-20 -17 -35 -17q-10 0 -17 6.5zM593 181q-10 -14 -29 -14h-7l16 -133l1 -9q0 -16 -15 -25.5t-33 -9.5q-13 0 -22.5 6t-10.5 16l-18 155
l-283 2q-48 -96 -78 -153q-12 -25 -42 -25q-19 0 -29 10.5t-7 21.5q0 4 4 12l169 334q51 98 117 229q33 64 52.5 88.5t49.5 24.5q28 0 45.5 -24t25.5 -79q25 -171 48 -363h25q15 0 23 -8.5t8 -22.5q0 -19 -10 -33zM467 246l-34 288q-5 40 -9 58t-9 18t-14.5 -16t-30.5 -59
l-48 -99q-45 -95 -91 -187z" />
    <glyph glyph-name="Acircumflex" unicode="&#xc2;" horiz-adv-x="692" 
d="M537 776q-57 102 -74 102q-8 0 -33.5 -21.5t-74.5 -68.5q-20 -20 -35 -20q-10 0 -17.5 7.5t-7.5 18.5q0 13 14 26q14 10 32 29q48 44 78.5 67.5t50.5 23.5q26 0 46 -23t51 -72l21 -34q6 -8 6 -15q0 -13 -10.5 -23t-23.5 -10q-16 0 -23 13zM593 181q-10 -14 -29 -14h-7
l16 -133l1 -9q0 -16 -15 -25.5t-33 -9.5q-13 0 -22.5 6t-10.5 16l-18 155l-283 2q-48 -96 -78 -153q-12 -25 -42 -25q-19 0 -29 10.5t-7 21.5q0 4 4 12l169 334q51 98 117 229q33 64 52.5 88.5t49.5 24.5q28 0 45.5 -24t25.5 -79q25 -171 48 -363h25q15 0 23 -8.5t8 -22.5
q0 -19 -10 -33zM467 246l-34 288q-5 40 -9 58t-9 18t-14.5 -16t-30.5 -59l-48 -99q-45 -95 -91 -187z" />
    <glyph glyph-name="Atilde" unicode="&#xc3;" horiz-adv-x="692" 
d="M291 772.5q-6 6.5 -6 18.5q0 13 12 25q29 29 50 41t47 12q46 0 84 -22q6 -3 17.5 -9.5t19 -9.5t14.5 -3q13 0 32 17q16 15 28 15q10 0 17 -8t7 -19q0 -14 -11 -25q-25 -20 -45 -29.5t-40 -9.5q-23 0 -55 18l-20 10q-5 2 -23 10.5t-31 8.5q-10 0 -19.5 -7t-27.5 -24
q-19 -16 -33 -16q-11 0 -17 6.5zM593 181q-10 -14 -29 -14h-7l16 -133l1 -9q0 -16 -15 -25.5t-33 -9.5q-13 0 -22.5 6t-10.5 16l-18 155l-283 2q-48 -96 -78 -153q-12 -25 -42 -25q-19 0 -29 10.5t-7 21.5q0 4 4 12l169 334q51 98 117 229q33 64 52.5 88.5t49.5 24.5
q28 0 45.5 -24t25.5 -79q25 -171 48 -363h25q15 0 23 -8.5t8 -22.5q0 -19 -10 -33zM467 246l-34 288q-5 40 -9 58t-9 18t-14.5 -16t-30.5 -59l-48 -99q-45 -95 -91 -187z" />
    <glyph glyph-name="Adieresis" unicode="&#xc4;" horiz-adv-x="692" 
d="M290.5 788.5q-12.5 12.5 -12.5 32.5q0 26 19 44t45 18q20 0 33.5 -12.5t13.5 -31.5q0 -25 -20 -44t-45 -19q-21 0 -33.5 12.5zM530.5 788.5q-12.5 12.5 -12.5 32.5q0 26 19 44t45 18q20 0 33 -12t13 -31q0 -25 -19.5 -44.5t-44.5 -19.5q-21 0 -33.5 12.5zM593 181
q-10 -14 -29 -14h-7l16 -133l1 -9q0 -16 -15 -25.5t-33 -9.5q-13 0 -22.5 6t-10.5 16l-18 155l-283 2q-48 -96 -78 -153q-12 -25 -42 -25q-19 0 -29 10.5t-7 21.5q0 4 4 12l169 334q51 98 117 229q33 64 52.5 88.5t49.5 24.5q28 0 45.5 -24t25.5 -79q25 -171 48 -363h25
q15 0 23 -8.5t8 -22.5q0 -19 -10 -33zM467 246l-34 288q-5 40 -9 58t-9 18t-14.5 -16t-30.5 -59l-48 -99q-45 -95 -91 -187z" />
    <glyph glyph-name="Aring" unicode="&#xc5;" horiz-adv-x="692" 
d="M373.5 764q-27.5 27 -27.5 66q0 33 17 61t47 44.5t65 16.5q39 0 65 -28t26 -65q0 -51 -36.5 -86.5t-88.5 -35.5q-40 0 -67.5 27zM495.5 807.5q20.5 19.5 20.5 47.5q0 19 -13.5 33t-35.5 14q-28 0 -48.5 -20.5t-20.5 -46.5q0 -20 13.5 -33.5t35.5 -13.5q28 0 48.5 19.5z
M593 181q-10 -14 -29 -14h-7l16 -133l1 -9q0 -16 -15 -25.5t-33 -9.5q-13 0 -22.5 6t-10.5 16l-18 155l-283 2q-48 -96 -78 -153q-12 -25 -42 -25q-19 0 -29 10.5t-7 21.5q0 4 4 12l169 334q51 98 117 229q33 64 52.5 88.5t49.5 24.5q28 0 45.5 -24t25.5 -79
q25 -171 48 -363h25q15 0 23 -8.5t8 -22.5q0 -19 -10 -33zM467 246l-34 288q-5 40 -9 58t-9 18t-14.5 -16t-30.5 -59l-48 -99q-45 -95 -91 -187z" />
    <glyph glyph-name="AE" unicode="&#xc6;" horiz-adv-x="913" 
d="M951 667q0 -6 -1 -9q-4 -21 -14 -28.5t-21 -6.5l-32 1q-68 4 -134 4q-83 0 -124 -3q-10 -86 -26 -170l-11 -61l107 -2q94 -2 111 -3q7 -1 10.5 -8.5t1.5 -19.5q-3 -14 -12.5 -21t-28.5 -7l-76 2l-65 2h-60q-14 -69 -37 -159l-26 -107q110 -10 174 -10q35 0 55 1.5t62 7.5
q12 2 22 -4.5t10 -21.5q0 -18 -11.5 -28.5t-26.5 -14.5q-24 -7 -98 -7q-32 0 -106 2q-132 3 -161 3q-32 0 -42 7.5t-8 24.5q4 20 15 28t33 8q15 51 32 122l-236 2l-112 -170q-7 -10 -13.5 -15t-17.5 -5q-20 0 -36 12.5t-8 24.5q106 165 193 294.5t179 241.5t137 116q2 1 7 1
l92 2q66 3 104 3q46 0 181 -9q18 -1 18 -20zM476 245q27 122 53 267q12 69 15 92q-69 -46 -278 -356z" />
    <glyph glyph-name="Ccedilla" unicode="&#xc7;" horiz-adv-x="714" 
d="M722 680q0 -6 -1 -9l-21 -112q-8 -45 -48 -45q-20 0 -30 16q-21 36 -38 58.5t-46.5 38t-72.5 15.5q-83 0 -158.5 -54t-122 -139.5t-46.5 -172.5q0 -69 30.5 -116t80 -69.5t108.5 -22.5q84 0 153.5 45.5t92.5 131.5q4 17 13.5 27.5t31.5 10.5q19 0 28 -7t9 -21
q0 -4 -2 -16q-13 -66 -57 -121.5t-113.5 -88t-155.5 -32.5h-8l-41 -51q33 -8 53 -28.5t20 -53.5q0 -44 -37.5 -65.5t-101.5 -21.5q-19 0 -44 4.5t-40 9.5q-16 6 -16 25q0 14 10 24t24 10q4 -1 27 -7t41 -6q36 0 53.5 5t17.5 26q0 15 -11.5 20t-30.5 8.5t-26 4.5q-12 1 -19 7
t-7 15q0 6 3 12l57 70q-97 20 -159 89t-62 180q0 108 56.5 210t150 165.5t198.5 63.5q62 0 105.5 -23t67.5 -65l9 49q2 15 12.5 24.5t29.5 9.5q33 0 33 -28z" />
    <glyph glyph-name="Egrave" unicode="&#xc8;" horiz-adv-x="573" 
d="M429 760.5q-6 3.5 -13 12.5l-64 86q-11 17 -11 27q0 15 10.5 25.5t23.5 10.5q17 0 33 -24l58 -85q10 -13 10 -24q0 -13 -10 -22.5t-23 -9.5q-8 0 -14 3.5zM602.5 681.5q7.5 -4.5 7.5 -17.5q0 -20 -12 -32.5t-28 -10.5q-98 8 -182 8q-64 0 -136 -4q-19 -133 -35 -221
l67 -1l110 -3l59 -1q24 0 24 -24q0 -19 -10 -32.5t-26 -13.5l-53 1q-45 3 -118 3q-42 0 -66 1q-14 -74 -28 -128t-33 -120q64 -5 154 -5q54 0 86 2t78 7q37 4 37 -26q0 -18 -9.5 -29.5t-27.5 -14.5q-38 -8 -185 -8q-132 0 -236 12q-22 3 -22 25q0 18 9.5 30.5t22.5 12.5h17
q18 54 31.5 109.5t28.5 133.5h-12q-30 0 -30 26q0 18 10.5 31t27.5 13h16q9 51 10 58q22 119 28 159h-7q-16 0 -16 25q0 26 13 34.5t34 10.5q58 6 173 6q145 0 206 -9q15 -3 22.5 -7.5z" />
    <glyph glyph-name="Eacute" unicode="&#xc9;" horiz-adv-x="573" 
d="M334 758.5q-7 6.5 -7 16.5q0 8 6 17.5t16 18.5l92 81q15 14 24.5 19.5t18.5 5.5q11 0 18.5 -7.5t7.5 -18.5q0 -21 -25 -41l-99 -81q-20 -17 -35 -17q-10 0 -17 6.5zM602.5 681.5q7.5 -4.5 7.5 -17.5q0 -20 -12 -32.5t-28 -10.5q-98 8 -182 8q-64 0 -136 -4
q-19 -133 -35 -221l67 -1l110 -3l59 -1q24 0 24 -24q0 -19 -10 -32.5t-26 -13.5l-53 1q-45 3 -118 3q-42 0 -66 1q-14 -74 -28 -128t-33 -120q64 -5 154 -5q54 0 86 2t78 7q37 4 37 -26q0 -18 -9.5 -29.5t-27.5 -14.5q-38 -8 -185 -8q-132 0 -236 12q-22 3 -22 25
q0 18 9.5 30.5t22.5 12.5h17q18 54 31.5 109.5t28.5 133.5h-12q-30 0 -30 26q0 18 10.5 31t27.5 13h16q9 51 10 58q22 119 28 159h-7q-16 0 -16 25q0 26 13 34.5t34 10.5q58 6 173 6q145 0 206 -9q15 -3 22.5 -7.5z" />
    <glyph glyph-name="Ecircumflex" unicode="&#xca;" horiz-adv-x="573" 
d="M489 776q-57 102 -74 102q-8 0 -33.5 -21.5t-74.5 -68.5q-20 -20 -35 -20q-10 0 -17.5 7.5t-7.5 18.5q0 13 14 26q14 10 32 29q48 44 78.5 67.5t50.5 23.5q26 0 46 -23t51 -72l21 -34q6 -8 6 -15q0 -13 -10.5 -23t-23.5 -10q-16 0 -23 13zM602.5 681.5
q7.5 -4.5 7.5 -17.5q0 -20 -12 -32.5t-28 -10.5q-98 8 -182 8q-64 0 -136 -4q-19 -133 -35 -221l67 -1l110 -3l59 -1q24 0 24 -24q0 -19 -10 -32.5t-26 -13.5l-53 1q-45 3 -118 3q-42 0 -66 1q-14 -74 -28 -128t-33 -120q64 -5 154 -5q54 0 86 2t78 7q37 4 37 -26
q0 -18 -9.5 -29.5t-27.5 -14.5q-38 -8 -185 -8q-132 0 -236 12q-22 3 -22 25q0 18 9.5 30.5t22.5 12.5h17q18 54 31.5 109.5t28.5 133.5h-12q-30 0 -30 26q0 18 10.5 31t27.5 13h16q9 51 10 58q22 119 28 159h-7q-16 0 -16 25q0 26 13 34.5t34 10.5q58 6 173 6q145 0 206 -9
q15 -3 22.5 -7.5z" />
    <glyph glyph-name="Edieresis" unicode="&#xcb;" horiz-adv-x="573" 
d="M242.5 788.5q-12.5 12.5 -12.5 32.5q0 26 19 44t45 18q20 0 33.5 -12.5t13.5 -31.5q0 -25 -20 -44t-45 -19q-21 0 -33.5 12.5zM482.5 788.5q-12.5 12.5 -12.5 32.5q0 26 19 44t45 18q20 0 33 -12t13 -31q0 -25 -19.5 -44.5t-44.5 -19.5q-21 0 -33.5 12.5zM602.5 681.5
q7.5 -4.5 7.5 -17.5q0 -20 -12 -32.5t-28 -10.5q-98 8 -182 8q-64 0 -136 -4q-19 -133 -35 -221l67 -1l110 -3l59 -1q24 0 24 -24q0 -19 -10 -32.5t-26 -13.5l-53 1q-45 3 -118 3q-42 0 -66 1q-14 -74 -28 -128t-33 -120q64 -5 154 -5q54 0 86 2t78 7q37 4 37 -26
q0 -18 -9.5 -29.5t-27.5 -14.5q-38 -8 -185 -8q-132 0 -236 12q-22 3 -22 25q0 18 9.5 30.5t22.5 12.5h17q18 54 31.5 109.5t28.5 133.5h-12q-30 0 -30 26q0 18 10.5 31t27.5 13h16q9 51 10 58q22 119 28 159h-7q-16 0 -16 25q0 26 13 34.5t34 10.5q58 6 173 6q145 0 206 -9
q15 -3 22.5 -7.5z" />
    <glyph glyph-name="Igrave" unicode="&#xcc;" horiz-adv-x="438" 
d="M353 760.5q-6 3.5 -13 12.5l-64 86q-11 17 -11 27q0 15 10.5 25.5t23.5 10.5q17 0 33 -24l58 -85q10 -13 10 -24q0 -13 -10 -22.5t-23 -9.5q-8 0 -14 3.5zM483 677q0 -20 -12 -32t-30 -11q-30 2 -91 4q-29 -162 -56.5 -292t-62.5 -270l112 -1q16 0 22.5 -6.5t6.5 -20.5
q0 -20 -11 -32t-31 -12l-303 4q-25 1 -25 28q0 20 12 31.5t28 11.5l114 -2q70 299 116 560l-70 -4q-60 -4 -75 -4q-9 0 -15 7t-6 22q0 19 11 29t28 13q54 9 159 9q94 0 153 -6q26 -2 26 -26z" />
    <glyph glyph-name="Iacute" unicode="&#xcd;" horiz-adv-x="438" 
d="M258 758.5q-7 6.5 -7 16.5q0 8 6 17.5t16 18.5l92 81q15 14 24.5 19.5t18.5 5.5q11 0 18.5 -7.5t7.5 -18.5q0 -21 -25 -41l-99 -81q-20 -17 -35 -17q-10 0 -17 6.5zM483 677q0 -20 -12 -32t-30 -11q-30 2 -91 4q-29 -162 -56.5 -292t-62.5 -270l112 -1q16 0 22.5 -6.5
t6.5 -20.5q0 -20 -11 -32t-31 -12l-303 4q-25 1 -25 28q0 20 12 31.5t28 11.5l114 -2q70 299 116 560l-70 -4q-60 -4 -75 -4q-9 0 -15 7t-6 22q0 19 11 29t28 13q54 9 159 9q94 0 153 -6q26 -2 26 -26z" />
    <glyph glyph-name="Icircumflex" unicode="&#xce;" horiz-adv-x="438" 
d="M413 776q-57 102 -74 102q-8 0 -33.5 -21.5t-74.5 -68.5q-20 -20 -35 -20q-10 0 -17.5 7.5t-7.5 18.5q0 13 14 26q14 10 32 29q48 44 78.5 67.5t50.5 23.5q26 0 46 -23t51 -72l21 -34q6 -8 6 -15q0 -13 -10.5 -23t-23.5 -10q-16 0 -23 13zM483 677q0 -20 -12 -32t-30 -11
q-30 2 -91 4q-29 -162 -56.5 -292t-62.5 -270l112 -1q16 0 22.5 -6.5t6.5 -20.5q0 -20 -11 -32t-31 -12l-303 4q-25 1 -25 28q0 20 12 31.5t28 11.5l114 -2q70 299 116 560l-70 -4q-60 -4 -75 -4q-9 0 -15 7t-6 22q0 19 11 29t28 13q54 9 159 9q94 0 153 -6q26 -2 26 -26z
" />
    <glyph glyph-name="Idieresis" unicode="&#xcf;" horiz-adv-x="438" 
d="M166.5 788.5q-12.5 12.5 -12.5 32.5q0 26 19 44t45 18q20 0 33.5 -12.5t13.5 -31.5q0 -25 -20 -44t-45 -19q-21 0 -33.5 12.5zM406.5 788.5q-12.5 12.5 -12.5 32.5q0 26 19 44t45 18q20 0 33 -12t13 -31q0 -25 -19.5 -44.5t-44.5 -19.5q-21 0 -33.5 12.5zM483 677
q0 -20 -12 -32t-30 -11q-30 2 -91 4q-29 -162 -56.5 -292t-62.5 -270l112 -1q16 0 22.5 -6.5t6.5 -20.5q0 -20 -11 -32t-31 -12l-303 4q-25 1 -25 28q0 20 12 31.5t28 11.5l114 -2q70 299 116 560l-70 -4q-60 -4 -75 -4q-9 0 -15 7t-6 22q0 19 11 29t28 13q54 9 159 9
q94 0 153 -6q26 -2 26 -26z" />
    <glyph glyph-name="Eth" unicode="&#xd0;" horiz-adv-x="726" 
d="M593.5 614q101.5 -74 101.5 -216q0 -117 -68.5 -206t-185.5 -137t-258 -48h-71q-37 0 -37 26q0 42 45 42h25l37 252l-75 1q-23 0 -35 8t-12 22q0 21 16 33.5t45 11.5l72 -2l34 230q-42 3 -42 31q0 21 14 29t46 9q11 14 36 14q28 0 34 -16q177 -10 278.5 -84zM425 124
q87 42 137 115.5t50 170.5q0 193 -301 218l-34 -229l111 -2q19 -1 30 -9.5t11 -22.5q0 -19 -14.5 -30.5t-39.5 -11.5l-109 2l-37 -249q109 6 196 48z" />
    <glyph glyph-name="Ntilde" unicode="&#xd1;" horiz-adv-x="738" 
d="M317 772.5q-6 6.5 -6 18.5q0 13 12 25q29 29 50 41t47 12q46 0 84 -22q6 -3 17.5 -9.5t19 -9.5t14.5 -3q13 0 32 17q16 15 28 15q10 0 17 -8t7 -19q0 -14 -11 -25q-25 -20 -45 -29.5t-40 -9.5q-23 0 -55 18l-20 10q-5 2 -23 10.5t-31 8.5q-10 0 -19.5 -7t-27.5 -24
q-19 -16 -33 -16q-11 0 -17 6.5zM728 701q8 -12 5 -28q-26 -157 -56 -313l-12 -64q-20 -112 -38.5 -173.5t-37 -86t-43.5 -24.5q-30 0 -57.5 31.5t-58 92t-86.5 183.5q-53 118 -80.5 176.5t-47.5 92.5q-15 -80 -31 -185l-9 -58q-33 -208 -53 -303q-2 -12 -14.5 -22
t-28.5 -10q-17 0 -27 9.5t-8 22.5l8 43l46 261q12 65 28 170q8 40 22 127q6 31 18.5 47t36.5 16q28 0 50.5 -23.5t45 -68.5t67.5 -144q9 -21 17 -38.5t14 -31.5q87 -192 146 -293q9 29 18 71.5t12 58.5q6 33 15 72q16 76 66 369q3 17 15 26t30 9q20 0 28 -12z" />
    <glyph glyph-name="Ograve" unicode="&#xd2;" horiz-adv-x="792" 
d="M522 760.5q-6 3.5 -13 12.5l-64 86q-11 17 -11 27q0 15 10.5 25.5t23.5 10.5q17 0 33 -24l58 -85q10 -13 10 -24q0 -13 -10 -22.5t-23 -9.5q-8 0 -14 3.5zM211 40q-67 32 -106.5 94t-39.5 148q0 115 50.5 212.5t139.5 155t199 57.5q90 0 160 -39t109.5 -108t39.5 -156
q0 -115 -51.5 -205t-144 -140.5t-209.5 -50.5q-80 0 -147 32zM529 121.5q73 42.5 114.5 116.5t41.5 166q0 69 -28 121.5t-79.5 81.5t-119.5 29q-89 0 -161 -49t-113 -130t-41 -172q0 -73 32 -119t82.5 -66.5t108.5 -20.5q90 0 163 42.5z" />
    <glyph glyph-name="Oacute" unicode="&#xd3;" horiz-adv-x="792" 
d="M427 758.5q-7 6.5 -7 16.5q0 8 6 17.5t16 18.5l92 81q15 14 24.5 19.5t18.5 5.5q11 0 18.5 -7.5t7.5 -18.5q0 -21 -25 -41l-99 -81q-20 -17 -35 -17q-10 0 -17 6.5zM211 40q-67 32 -106.5 94t-39.5 148q0 115 50.5 212.5t139.5 155t199 57.5q90 0 160 -39t109.5 -108
t39.5 -156q0 -115 -51.5 -205t-144 -140.5t-209.5 -50.5q-80 0 -147 32zM529 121.5q73 42.5 114.5 116.5t41.5 166q0 69 -28 121.5t-79.5 81.5t-119.5 29q-89 0 -161 -49t-113 -130t-41 -172q0 -73 32 -119t82.5 -66.5t108.5 -20.5q90 0 163 42.5z" />
    <glyph glyph-name="Ocircumflex" unicode="&#xd4;" horiz-adv-x="792" 
d="M582 776q-57 102 -74 102q-8 0 -33.5 -21.5t-74.5 -68.5q-20 -20 -35 -20q-10 0 -17.5 7.5t-7.5 18.5q0 13 14 26q14 10 32 29q48 44 78.5 67.5t50.5 23.5q26 0 46 -23t51 -72l21 -34q6 -8 6 -15q0 -13 -10.5 -23t-23.5 -10q-16 0 -23 13zM211 40q-67 32 -106.5 94
t-39.5 148q0 115 50.5 212.5t139.5 155t199 57.5q90 0 160 -39t109.5 -108t39.5 -156q0 -115 -51.5 -205t-144 -140.5t-209.5 -50.5q-80 0 -147 32zM529 121.5q73 42.5 114.5 116.5t41.5 166q0 69 -28 121.5t-79.5 81.5t-119.5 29q-89 0 -161 -49t-113 -130t-41 -172
q0 -73 32 -119t82.5 -66.5t108.5 -20.5q90 0 163 42.5z" />
    <glyph glyph-name="Otilde" unicode="&#xd5;" horiz-adv-x="792" 
d="M336 772.5q-6 6.5 -6 18.5q0 13 12 25q29 29 50 41t47 12q46 0 84 -22q6 -3 17.5 -9.5t19 -9.5t14.5 -3q13 0 32 17q16 15 28 15q10 0 17 -8t7 -19q0 -14 -11 -25q-25 -20 -45 -29.5t-40 -9.5q-23 0 -55 18l-20 10q-5 2 -23 10.5t-31 8.5q-10 0 -19.5 -7t-27.5 -24
q-19 -16 -33 -16q-11 0 -17 6.5zM211 40q-67 32 -106.5 94t-39.5 148q0 115 50.5 212.5t139.5 155t199 57.5q90 0 160 -39t109.5 -108t39.5 -156q0 -115 -51.5 -205t-144 -140.5t-209.5 -50.5q-80 0 -147 32zM529 121.5q73 42.5 114.5 116.5t41.5 166q0 69 -28 121.5
t-79.5 81.5t-119.5 29q-89 0 -161 -49t-113 -130t-41 -172q0 -73 32 -119t82.5 -66.5t108.5 -20.5q90 0 163 42.5z" />
    <glyph glyph-name="Odieresis" unicode="&#xd6;" horiz-adv-x="792" 
d="M335.5 788.5q-12.5 12.5 -12.5 32.5q0 26 19 44t45 18q20 0 33.5 -12.5t13.5 -31.5q0 -25 -20 -44t-45 -19q-21 0 -33.5 12.5zM575.5 788.5q-12.5 12.5 -12.5 32.5q0 26 19 44t45 18q20 0 33 -12t13 -31q0 -25 -19.5 -44.5t-44.5 -19.5q-21 0 -33.5 12.5zM211 40
q-67 32 -106.5 94t-39.5 148q0 115 50.5 212.5t139.5 155t199 57.5q90 0 160 -39t109.5 -108t39.5 -156q0 -115 -51.5 -205t-144 -140.5t-209.5 -50.5q-80 0 -147 32zM529 121.5q73 42.5 114.5 116.5t41.5 166q0 69 -28 121.5t-79.5 81.5t-119.5 29q-89 0 -161 -49
t-113 -130t-41 -172q0 -73 32 -119t82.5 -66.5t108.5 -20.5q90 0 163 42.5z" />
    <glyph glyph-name="multiply" unicode="&#xd7;" horiz-adv-x="540" 
d="M437.5 471q8.5 -7 8.5 -18q0 -8 -2 -14t-10 -13l-123 -112l55 -65l49 -58q7 -9 4 -19q-2 -11 -13 -20t-24 -9q-10 0 -15.5 4t-14.5 14l-89 109q-81 -73 -127 -113q-17 -14 -32 -14q-11 0 -20 8t-9 17q0 12 10 21l140 126l-97 113q-6 8 -7.5 12t0.5 11q2 11 13.5 20.5
t26.5 9.5q10 0 16 -4.5t13 -13.5q29 -38 82 -104q38 34 110 102q10 9 16.5 13t15.5 4q15 0 23.5 -7z" />
    <glyph glyph-name="Oslash" unicode="&#xd8;" horiz-adv-x="792" 
d="M796.5 733q7.5 -9 5.5 -21q-4 -13 -16 -24l-90 -88q67 -81 67 -196t-51.5 -205t-144 -140.5t-209.5 -50.5q-57 0 -108.5 16.5t-90.5 48.5l-78 -77q-19 -19 -35 -19q-12 0 -20.5 8t-6.5 20q1 5 4 10t9 11l88 86q-55 71 -55 170q0 115 50.5 212.5t139.5 155t199 57.5
q60 0 111.5 -17.5t91.5 -50.5l85 83q20 20 35 20q12 0 19.5 -9zM175 166l430 422q-59 48 -147 48q-89 0 -161 -49t-113 -130t-41 -172q0 -71 32 -119zM643 548l-430 -422q59 -47 153 -47q90 0 163 42.5t114.5 116.5t41.5 166q0 83 -42 144z" />
    <glyph glyph-name="Ugrave" unicode="&#xd9;" horiz-adv-x="667" 
d="M460 760.5q-6 3.5 -13 12.5l-64 86q-11 17 -11 27q0 15 10.5 25.5t23.5 10.5q17 0 33 -24l58 -85q10 -13 10 -24q0 -13 -10 -22.5t-23 -9.5q-8 0 -14 3.5zM655 700q9 -8 9 -21q0 -5 -1 -8q-23 -127 -43 -255q-17 -112 -64 -385q-6 -33 -43 -33q-33 0 -33 28q0 8 1 12
l13 76q-35 -50 -92.5 -81t-128.5 -31q-68 0 -114 28.5t-68 73.5t-22 95q0 33 16 119t53 267l17 84q6 33 43 33q16 0 25 -6.5t9 -19.5q0 -5 -1 -8q-44 -204 -63 -310t-19 -159q0 -58 31.5 -92t92.5 -34q58 0 112 31t90.5 79.5t46.5 98.5q14 73 33.5 187.5t32.5 203.5
q5 35 41 35q17 0 26 -8z" />
    <glyph glyph-name="Uacute" unicode="&#xda;" horiz-adv-x="667" 
d="M365 758.5q-7 6.5 -7 16.5q0 8 6 17.5t16 18.5l92 81q15 14 24.5 19.5t18.5 5.5q11 0 18.5 -7.5t7.5 -18.5q0 -21 -25 -41l-99 -81q-20 -17 -35 -17q-10 0 -17 6.5zM655 700q9 -8 9 -21q0 -5 -1 -8q-23 -127 -43 -255q-17 -112 -64 -385q-6 -33 -43 -33q-33 0 -33 28
q0 8 1 12l13 76q-35 -50 -92.5 -81t-128.5 -31q-68 0 -114 28.5t-68 73.5t-22 95q0 33 16 119t53 267l17 84q6 33 43 33q16 0 25 -6.5t9 -19.5q0 -5 -1 -8q-44 -204 -63 -310t-19 -159q0 -58 31.5 -92t92.5 -34q58 0 112 31t90.5 79.5t46.5 98.5q14 73 33.5 187.5
t32.5 203.5q5 35 41 35q17 0 26 -8z" />
    <glyph glyph-name="Ucircumflex" unicode="&#xdb;" horiz-adv-x="667" 
d="M520 776q-57 102 -74 102q-8 0 -33.5 -21.5t-74.5 -68.5q-20 -20 -35 -20q-10 0 -17.5 7.5t-7.5 18.5q0 13 14 26q14 10 32 29q48 44 78.5 67.5t50.5 23.5q26 0 46 -23t51 -72l21 -34q6 -8 6 -15q0 -13 -10.5 -23t-23.5 -10q-16 0 -23 13zM655 700q9 -8 9 -21q0 -5 -1 -8
q-23 -127 -43 -255q-17 -112 -64 -385q-6 -33 -43 -33q-33 0 -33 28q0 8 1 12l13 76q-35 -50 -92.5 -81t-128.5 -31q-68 0 -114 28.5t-68 73.5t-22 95q0 33 16 119t53 267l17 84q6 33 43 33q16 0 25 -6.5t9 -19.5q0 -5 -1 -8q-44 -204 -63 -310t-19 -159q0 -58 31.5 -92
t92.5 -34q58 0 112 31t90.5 79.5t46.5 98.5q14 73 33.5 187.5t32.5 203.5q5 35 41 35q17 0 26 -8z" />
    <glyph glyph-name="Udieresis" unicode="&#xdc;" horiz-adv-x="667" 
d="M273.5 788.5q-12.5 12.5 -12.5 32.5q0 26 19 44t45 18q20 0 33.5 -12.5t13.5 -31.5q0 -25 -20 -44t-45 -19q-21 0 -33.5 12.5zM513.5 788.5q-12.5 12.5 -12.5 32.5q0 26 19 44t45 18q20 0 33 -12t13 -31q0 -25 -19.5 -44.5t-44.5 -19.5q-21 0 -33.5 12.5zM655 700
q9 -8 9 -21q0 -5 -1 -8q-23 -127 -43 -255q-17 -112 -64 -385q-6 -33 -43 -33q-33 0 -33 28q0 8 1 12l13 76q-35 -50 -92.5 -81t-128.5 -31q-68 0 -114 28.5t-68 73.5t-22 95q0 33 16 119t53 267l17 84q6 33 43 33q16 0 25 -6.5t9 -19.5q0 -5 -1 -8q-44 -204 -63 -310
t-19 -159q0 -58 31.5 -92t92.5 -34q58 0 112 31t90.5 79.5t46.5 98.5q14 73 33.5 187.5t32.5 203.5q5 35 41 35q17 0 26 -8z" />
    <glyph glyph-name="Yacute" unicode="&#xdd;" horiz-adv-x="655" 
d="M363 758.5q-7 6.5 -7 16.5q0 8 6 17.5t16 18.5l92 81q15 14 24.5 19.5t18.5 5.5q11 0 18.5 -7.5t7.5 -18.5q0 -21 -25 -41l-99 -81q-20 -17 -35 -17q-10 0 -17 6.5zM261.5 14.5q-8.5 11.5 -5.5 26.5l48 287q-46 17 -98 131q-23 49 -34.5 88.5t-26.5 107.5q-1 3 -1 10
q0 17 14 26t33 9q27 0 35 -35q16 -65 25.5 -97.5t24.5 -71.5q15 -40 36 -73t39 -33q17 0 47.5 29t69.5 79q31 40 56 78t59 93q11 18 17 23.5t17 5.5q17 0 30 -8.5t13 -21.5q0 -10 -6 -19q-67 -118 -125 -192q-46 -57 -85.5 -89.5t-62.5 -39.5l-47 -285q-8 -40 -45 -40
q-19 0 -27.5 11.5z" />
    <glyph glyph-name="Thorn" unicode="&#xde;" horiz-adv-x="631" 
d="M519 621q53 -25 84.5 -71t31.5 -107q0 -69 -38.5 -124.5t-106 -86.5t-152.5 -31q-75 0 -140 24l-39 -196q-3 -15 -16.5 -25.5t-30.5 -10.5q-19 0 -30.5 8.5t-8.5 23.5q18 99 40 203q6 32 14.5 73t10.5 58q3 22 16 92l12 63l-16 -9q-11 -7 -23 -7t-20 11t-8 21q0 17 21 30
q23 15 60 33q16 83 25 146q2 16 15.5 26t33.5 10q18 0 27.5 -9t6.5 -27l-18 -114q74 21 134 21q62 0 115 -25zM448 292q47 21 74 59.5t27 89.5q0 60 -46.5 97t-115.5 37q-55 0 -129 -22q-13 -77 -21 -123l-12 -59l-15 -75q72 -25 134 -25q57 0 104 21z" />
    <glyph glyph-name="germandbls" unicode="&#xdf;" horiz-adv-x="634" 
d="M265.5 3q-34.5 6 -59.5 20q-13 7 -13 22q0 13 11 26.5t23 13.5q4 0 10 -3q46 -23 96 -23q68 0 108 26.5t40 77.5q0 24 -16.5 42t-49.5 41q-37 26 -56.5 48t-19.5 54q0 43 37.5 76t99.5 53q10 17 16.5 38t6.5 39q0 48 -32.5 81t-82.5 33q-78 0 -126.5 -59t-73.5 -189
l-72 -373q-6 -35 -40 -35q-18 0 -25 9.5t-5 25.5l69 374q18 101 48.5 168t84.5 104.5t140 37.5q56 0 99.5 -25.5t67 -66t23.5 -85.5q0 -65 -47 -125q-53 -11 -84.5 -35t-31.5 -46q0 -16 14.5 -31t46.5 -40q41 -32 63 -57t22 -57q0 -80 -63.5 -123t-160.5 -43q-33 0 -67.5 6z
" />
    <glyph glyph-name="agrave" unicode="&#xe0;" horiz-adv-x="623" 
d="M399 560.5q-6 3.5 -13 12.5l-64 86q-11 17 -11 27q0 15 10.5 25.5t23.5 10.5q17 0 33 -24l58 -85q10 -13 10 -24q0 -13 -10 -22.5t-23 -9.5q-8 0 -14 3.5zM550.5 445.5q-3.5 -12.5 -5.5 -17.5q-6 -14 -16 -51q-17 -63 -34.5 -153.5t-17.5 -123.5q0 -17 6 -25.5t22 -9.5
q12 -2 18 -6.5t6 -14.5q0 -18 -9.5 -30t-25.5 -12q-40 0 -57 12.5t-25 46.5q-55 -70 -163 -70q-67 0 -111.5 28.5t-65 74t-20.5 95.5q0 83 34.5 152.5t97 110.5t142.5 41q50 0 87.5 -21t52.5 -55l10 33q5 17 14 27t27 10q17 0 27 -6.5t10 -16.5q0 -6 -3.5 -18.5zM434 325
q0 55 -34 80t-74 25q-55 0 -99.5 -35t-70 -91t-25.5 -115q0 -57 27.5 -95.5t92.5 -38.5q59 0 103 30.5t55 87.5q25 127 25 152z" />
    <glyph glyph-name="aacute" unicode="&#xe1;" horiz-adv-x="623" 
d="M304 558.5q-7 6.5 -7 16.5q0 8 6 17.5t16 18.5l92 81q15 14 24.5 19.5t18.5 5.5q11 0 18.5 -7.5t7.5 -18.5q0 -21 -25 -41l-99 -81q-20 -17 -35 -17q-10 0 -17 6.5zM550.5 445.5q-3.5 -12.5 -5.5 -17.5q-6 -14 -16 -51q-17 -63 -34.5 -153.5t-17.5 -123.5q0 -17 6 -25.5
t22 -9.5q12 -2 18 -6.5t6 -14.5q0 -18 -9.5 -30t-25.5 -12q-40 0 -57 12.5t-25 46.5q-55 -70 -163 -70q-67 0 -111.5 28.5t-65 74t-20.5 95.5q0 83 34.5 152.5t97 110.5t142.5 41q50 0 87.5 -21t52.5 -55l10 33q5 17 14 27t27 10q17 0 27 -6.5t10 -16.5q0 -6 -3.5 -18.5z
M434 325q0 55 -34 80t-74 25q-55 0 -99.5 -35t-70 -91t-25.5 -115q0 -57 27.5 -95.5t92.5 -38.5q59 0 103 30.5t55 87.5q25 127 25 152z" />
    <glyph glyph-name="acircumflex" unicode="&#xe2;" horiz-adv-x="623" 
d="M459 576q-57 102 -74 102q-8 0 -33.5 -21.5t-74.5 -68.5q-20 -20 -35 -20q-10 0 -17.5 7.5t-7.5 18.5q0 13 14 26q14 10 32 29q48 44 78.5 67.5t50.5 23.5q26 0 46 -23t51 -72l21 -34q6 -8 6 -15q0 -13 -10.5 -23t-23.5 -10q-16 0 -23 13zM550.5 445.5
q-3.5 -12.5 -5.5 -17.5q-6 -14 -16 -51q-17 -63 -34.5 -153.5t-17.5 -123.5q0 -17 6 -25.5t22 -9.5q12 -2 18 -6.5t6 -14.5q0 -18 -9.5 -30t-25.5 -12q-40 0 -57 12.5t-25 46.5q-55 -70 -163 -70q-67 0 -111.5 28.5t-65 74t-20.5 95.5q0 83 34.5 152.5t97 110.5t142.5 41
q50 0 87.5 -21t52.5 -55l10 33q5 17 14 27t27 10q17 0 27 -6.5t10 -16.5q0 -6 -3.5 -18.5zM434 325q0 55 -34 80t-74 25q-55 0 -99.5 -35t-70 -91t-25.5 -115q0 -57 27.5 -95.5t92.5 -38.5q59 0 103 30.5t55 87.5q25 127 25 152z" />
    <glyph glyph-name="atilde" unicode="&#xe3;" horiz-adv-x="623" 
d="M213 572.5q-6 6.5 -6 18.5q0 13 12 25q29 29 50 41t47 12q46 0 84 -22q6 -3 17.5 -9.5t19 -9.5t14.5 -3q13 0 32 17q16 15 28 15q10 0 17 -8t7 -19q0 -14 -11 -25q-25 -20 -45 -29.5t-40 -9.5q-23 0 -55 18l-20 10q-5 2 -23 10.5t-31 8.5q-10 0 -19.5 -7t-27.5 -24
q-19 -16 -33 -16q-11 0 -17 6.5zM550.5 445.5q-3.5 -12.5 -5.5 -17.5q-6 -14 -16 -51q-17 -63 -34.5 -153.5t-17.5 -123.5q0 -17 6 -25.5t22 -9.5q12 -2 18 -6.5t6 -14.5q0 -18 -9.5 -30t-25.5 -12q-40 0 -57 12.5t-25 46.5q-55 -70 -163 -70q-67 0 -111.5 28.5t-65 74
t-20.5 95.5q0 83 34.5 152.5t97 110.5t142.5 41q50 0 87.5 -21t52.5 -55l10 33q5 17 14 27t27 10q17 0 27 -6.5t10 -16.5q0 -6 -3.5 -18.5zM434 325q0 55 -34 80t-74 25q-55 0 -99.5 -35t-70 -91t-25.5 -115q0 -57 27.5 -95.5t92.5 -38.5q59 0 103 30.5t55 87.5
q25 127 25 152z" />
    <glyph glyph-name="adieresis" unicode="&#xe4;" horiz-adv-x="623" 
d="M212.5 588.5q-12.5 12.5 -12.5 32.5q0 26 19 44t45 18q20 0 33.5 -12.5t13.5 -31.5q0 -25 -20 -44t-45 -19q-21 0 -33.5 12.5zM452.5 588.5q-12.5 12.5 -12.5 32.5q0 26 19 44t45 18q20 0 33 -12t13 -31q0 -25 -19.5 -44.5t-44.5 -19.5q-21 0 -33.5 12.5zM550.5 445.5
q-3.5 -12.5 -5.5 -17.5q-6 -14 -16 -51q-17 -63 -34.5 -153.5t-17.5 -123.5q0 -17 6 -25.5t22 -9.5q12 -2 18 -6.5t6 -14.5q0 -18 -9.5 -30t-25.5 -12q-40 0 -57 12.5t-25 46.5q-55 -70 -163 -70q-67 0 -111.5 28.5t-65 74t-20.5 95.5q0 83 34.5 152.5t97 110.5t142.5 41
q50 0 87.5 -21t52.5 -55l10 33q5 17 14 27t27 10q17 0 27 -6.5t10 -16.5q0 -6 -3.5 -18.5zM434 325q0 55 -34 80t-74 25q-55 0 -99.5 -35t-70 -91t-25.5 -115q0 -57 27.5 -95.5t92.5 -38.5q59 0 103 30.5t55 87.5q25 127 25 152z" />
    <glyph glyph-name="aring" unicode="&#xe5;" horiz-adv-x="623" 
d="M295.5 564q-27.5 27 -27.5 66q0 33 17 61t47 44.5t65 16.5q39 0 65 -28t26 -65q0 -51 -36.5 -86.5t-88.5 -35.5q-40 0 -67.5 27zM417.5 607.5q20.5 19.5 20.5 47.5q0 19 -13.5 33t-35.5 14q-28 0 -48.5 -20.5t-20.5 -46.5q0 -20 13.5 -33.5t35.5 -13.5q28 0 48.5 19.5z
M550.5 445.5q-3.5 -12.5 -5.5 -17.5q-6 -14 -16 -51q-17 -63 -34.5 -153.5t-17.5 -123.5q0 -17 6 -25.5t22 -9.5q12 -2 18 -6.5t6 -14.5q0 -18 -9.5 -30t-25.5 -12q-40 0 -57 12.5t-25 46.5q-55 -70 -163 -70q-67 0 -111.5 28.5t-65 74t-20.5 95.5q0 83 34.5 152.5t97 110.5
t142.5 41q50 0 87.5 -21t52.5 -55l10 33q5 17 14 27t27 10q17 0 27 -6.5t10 -16.5q0 -6 -3.5 -18.5zM434 325q0 55 -34 80t-74 25q-55 0 -99.5 -35t-70 -91t-25.5 -115q0 -57 27.5 -95.5t92.5 -38.5q59 0 103 30.5t55 87.5q25 127 25 152z" />
    <glyph glyph-name="ae" unicode="&#xe6;" horiz-adv-x="993" 
d="M836.5 488q49.5 -26 77.5 -68.5t28 -88.5q0 -15 -3 -30q-6 -30 -19 -40t-42 -11l-374 -9l-2 -15q-4 -21 -4 -45q0 -68 36.5 -98.5t117.5 -30.5q116 0 186 93q10 13 26 13q12 0 20.5 -9t8.5 -21q0 -15 -13 -32q-82 -106 -228 -106q-81 0 -132.5 26.5t-67.5 75.5
q-26 -48 -81.5 -75t-131.5 -27q-104 0 -152 32.5t-48 103.5q0 83 54 124t168 44l180 4l2 14q2 16 2 24q0 49 -33 80t-97 31q-57 0 -94.5 -17t-81.5 -55q-10 -9 -23 -9q-14 0 -22 9.5t-8 18.5q0 14 18 30q48 43 98 64.5t113 21.5q68 0 119 -34t62 -87q35 55 95.5 90t135.5 35
q60 0 109.5 -26zM637.5 432.5q-43.5 -20.5 -75.5 -56t-45 -76.5l349 9l2 10q1 5 1 14q0 29 -17 56.5t-49 45.5t-76 18q-46 0 -89.5 -20.5zM430 238l-169 -4q-76 -2 -112.5 -29t-36.5 -79q0 -40 30.5 -57.5t96.5 -17.5q69 0 119.5 29.5t59.5 83.5z" />
    <glyph glyph-name="ccedilla" unicode="&#xe7;" horiz-adv-x="588" 
d="M238.5 414.5q-51.5 -35.5 -81.5 -92.5t-30 -117q0 -62 39 -101.5t109 -39.5q52 0 97 21t71 53t26 63q0 10 10 17t25 7q16 0 24.5 -5.5t8.5 -19.5q0 -52 -33 -95t-86.5 -70t-112.5 -33l-46 -56q33 -8 53 -28.5t20 -53.5q0 -44 -37.5 -65.5t-101.5 -21.5q-19 0 -44 4.5
t-40 9.5q-16 6 -16 25q0 14 10 24t24 10q4 -1 27 -7t41 -6q36 0 53.5 5t17.5 26q0 15 -11.5 20t-30.5 8.5t-26 4.5q-12 1 -19 7t-7 15q0 6 3 12l57 69q-85 12 -133 68.5t-48 132.5q0 83 39.5 154t108 112.5t151.5 41.5q50 0 97.5 -21t76.5 -56t29 -74q0 -33 -39 -33
q-15 0 -24 7t-9 20q0 22 -16.5 44t-46.5 36t-68 14q-60 0 -111.5 -35.5z" />
    <glyph glyph-name="egrave" unicode="&#xe8;" horiz-adv-x="619" 
d="M407 560.5q-6 3.5 -13 12.5l-64 86q-11 17 -11 27q0 15 10.5 25.5t23.5 10.5q17 0 33 -24l58 -85q10 -13 10 -24q0 -13 -10 -22.5t-23 -9.5q-8 0 -14 3.5zM162 25.5q-52 29.5 -79 79t-27 107.5q0 80 39.5 149.5t108.5 110.5t153 41q61 0 109 -22t74.5 -61.5t26.5 -91.5
q0 -50 -14.5 -73.5t-48.5 -23.5l-375 -8q-2 -18 -2 -25q0 -64 44.5 -105.5t114.5 -41.5q42 0 74 12.5t51.5 28.5t49.5 45q9 9 20 9q12 0 23 -8.5t11 -19.5q0 -13 -12 -26q-27 -31 -50 -51t-65.5 -37.5t-101.5 -17.5q-72 0 -124 29.5zM486 302q12 0 15 7.5t3 27.5
q0 51 -40.5 82.5t-106.5 31.5q-55 0 -103 -28t-79 -66t-35 -64z" />
    <glyph glyph-name="eacute" unicode="&#xe9;" horiz-adv-x="619" 
d="M162 25.5q-52 29.5 -79 79t-27 107.5q0 80 39.5 149.5t108.5 110.5t153 41q61 0 109 -22t74.5 -61.5t26.5 -91.5q0 -50 -14.5 -73.5t-48.5 -23.5l-375 -8q-2 -18 -2 -25q0 -64 44.5 -105.5t114.5 -41.5q42 0 74 12.5t51.5 28.5t49.5 45q9 9 20 9q12 0 23 -8.5t11 -19.5
q0 -13 -12 -26q-27 -31 -50 -51t-65.5 -37.5t-101.5 -17.5q-72 0 -124 29.5zM486 302q12 0 15 7.5t3 27.5q0 51 -40.5 82.5t-106.5 31.5q-55 0 -103 -28t-79 -66t-35 -64zM307 568q-6 6 -7 15q0 16 15 31l106 106q13 13 22 18t20 5q12 0 19.5 -7t7.5 -18t-6.5 -21.5
t-20.5 -23.5l-105 -94q-10 -10 -18 -13.5t-17 -3.5q-10 0 -16 6z" />
    <glyph glyph-name="ecircumflex" unicode="&#xea;" horiz-adv-x="619" 
d="M467 576q-57 102 -74 102q-8 0 -33.5 -21.5t-74.5 -68.5q-20 -20 -35 -20q-10 0 -17.5 7.5t-7.5 18.5q0 13 14 26q14 10 32 29q48 44 78.5 67.5t50.5 23.5q26 0 46 -23t51 -72l21 -34q6 -8 6 -15q0 -13 -10.5 -23t-23.5 -10q-16 0 -23 13zM162 25.5q-52 29.5 -79 79
t-27 107.5q0 80 39.5 149.5t108.5 110.5t153 41q61 0 109 -22t74.5 -61.5t26.5 -91.5q0 -50 -14.5 -73.5t-48.5 -23.5l-375 -8q-2 -18 -2 -25q0 -64 44.5 -105.5t114.5 -41.5q42 0 74 12.5t51.5 28.5t49.5 45q9 9 20 9q12 0 23 -8.5t11 -19.5q0 -13 -12 -26q-27 -31 -50 -51
t-65.5 -37.5t-101.5 -17.5q-72 0 -124 29.5zM486 302q12 0 15 7.5t3 27.5q0 51 -40.5 82.5t-106.5 31.5q-55 0 -103 -28t-79 -66t-35 -64z" />
    <glyph glyph-name="edieresis" unicode="&#xeb;" horiz-adv-x="619" 
d="M220.5 588.5q-12.5 12.5 -12.5 32.5q0 26 19 44t45 18q20 0 33.5 -12.5t13.5 -31.5q0 -25 -20 -44t-45 -19q-21 0 -33.5 12.5zM460.5 588.5q-12.5 12.5 -12.5 32.5q0 26 19 44t45 18q20 0 33 -12t13 -31q0 -25 -19.5 -44.5t-44.5 -19.5q-21 0 -33.5 12.5zM162 25.5
q-52 29.5 -79 79t-27 107.5q0 80 39.5 149.5t108.5 110.5t153 41q61 0 109 -22t74.5 -61.5t26.5 -91.5q0 -50 -14.5 -73.5t-48.5 -23.5l-375 -8q-2 -18 -2 -25q0 -64 44.5 -105.5t114.5 -41.5q42 0 74 12.5t51.5 28.5t49.5 45q9 9 20 9q12 0 23 -8.5t11 -19.5q0 -13 -12 -26
q-27 -31 -50 -51t-65.5 -37.5t-101.5 -17.5q-72 0 -124 29.5zM486 302q12 0 15 7.5t3 27.5q0 51 -40.5 82.5t-106.5 31.5q-55 0 -103 -28t-79 -66t-35 -64z" />
    <glyph glyph-name="igrave" unicode="&#xec;" horiz-adv-x="314" 
d="M251 560.5q-6 3.5 -13 12.5l-64 86q-11 17 -11 27q0 15 10.5 25.5t23.5 10.5q17 0 33 -24l58 -85q10 -13 10 -24q0 -13 -10 -22.5t-23 -9.5q-8 0 -14 3.5zM85 14.5q-9 10.5 -6 27.5l85 426q3 18 15 28t30 10t27 -10t6 -28l-89 -427q-3 -17 -14 -27t-28 -10t-26 10.5z" />
    <glyph glyph-name="iacute" unicode="&#xed;" horiz-adv-x="314" 
d="M156 558.5q-7 6.5 -7 16.5q0 8 6 17.5t16 18.5l92 81q15 14 24.5 19.5t18.5 5.5q11 0 18.5 -7.5t7.5 -18.5q0 -21 -25 -41l-99 -81q-20 -17 -35 -17q-10 0 -17 6.5zM85 14.5q-9 10.5 -6 27.5l85 426q3 18 15 28t30 10t27 -10t6 -28l-89 -427q-3 -17 -14 -27t-28 -10
t-26 10.5z" />
    <glyph glyph-name="icircumflex" unicode="&#xee;" horiz-adv-x="314" 
d="M311 576q-57 102 -74 102q-8 0 -33.5 -21.5t-74.5 -68.5q-20 -20 -35 -20q-10 0 -17.5 7.5t-7.5 18.5q0 13 14 26q14 10 32 29q48 44 78.5 67.5t50.5 23.5q26 0 46 -23t51 -72l21 -34q6 -8 6 -15q0 -13 -10.5 -23t-23.5 -10q-16 0 -23 13zM85 14.5q-9 10.5 -6 27.5
l85 426q3 18 15 28t30 10t27 -10t6 -28l-89 -427q-3 -17 -14 -27t-28 -10t-26 10.5z" />
    <glyph glyph-name="idieresis" unicode="&#xef;" horiz-adv-x="314" 
d="M64.5 588.5q-12.5 12.5 -12.5 32.5q0 26 19 44t45 18q20 0 33.5 -12.5t13.5 -31.5q0 -25 -20 -44t-45 -19q-21 0 -33.5 12.5zM304.5 588.5q-12.5 12.5 -12.5 32.5q0 26 19 44t45 18q20 0 33 -12t13 -31q0 -25 -19.5 -44.5t-44.5 -19.5q-21 0 -33.5 12.5zM85 14.5
q-9 10.5 -6 27.5l85 426q3 18 15 28t30 10t27 -10t6 -28l-89 -427q-3 -17 -14 -27t-28 -10t-26 10.5z" />
    <glyph glyph-name="eth" unicode="&#xf0;" horiz-adv-x="614" 
d="M548.5 461.5q15.5 -65.5 15.5 -127.5q0 -98 -36 -173.5t-102.5 -117t-157.5 -41.5q-64 0 -112.5 28t-75 75t-26.5 102q0 81 38 149t104.5 108t147.5 40q63 0 114 -27q-13 33 -28 61q-23 39 -52 68l-91 -46q-14 -7 -25 -7q-15 0 -22 9t-5 23t21 24l72 37q-33 23 -60 32
q-14 6 -14 20q0 15 12 28.5t29 13.5q12 0 34 -11q47 -23 74 -44l91 47q10 5 17 5q12 0 21 -8t9 -19q0 -12 -7 -19.5t-21 -15.5l-62 -32q30 -30 52 -67q30 -49 45.5 -114.5zM381.5 102.5q48.5 35.5 74.5 95.5t26 132q0 14 -1 22q-22 45 -57.5 67t-79.5 22q-57 0 -106 -34.5
t-78 -89t-29 -110.5q0 -62 37 -101t100 -39q65 0 113.5 35.5z" />
    <glyph glyph-name="ntilde" unicode="&#xf1;" horiz-adv-x="554" 
d="M189 572.5q-6 6.5 -6 18.5q0 13 12 25q29 29 50 41t47 12q46 0 84 -22q6 -3 17.5 -9.5t19 -9.5t14.5 -3q13 0 32 17q16 15 28 15q10 0 17 -8t7 -19q0 -14 -11 -25q-25 -20 -45 -29.5t-40 -9.5q-23 0 -55 18l-20 10q-5 2 -23 10.5t-31 8.5q-10 0 -19.5 -7t-27.5 -24
q-19 -16 -33 -16q-11 0 -17 6.5zM462.5 469.5q38.5 -39.5 38.5 -114.5q0 -34 -10 -96t-32 -182l-8 -45q-2 -14 -13.5 -22.5t-29.5 -8.5t-27 8.5t-7 22.5l8 45q18 102 30.5 177.5t12.5 99.5q0 44 -16 66t-53 22q-57 0 -100.5 -43t-67.5 -109q-19 -52 -29 -116l-25 -145
q-2 -14 -13 -21.5t-29 -7.5q-19 0 -27.5 8t-6.5 21q2 16 4 22q35 214 52 337q1 6 1 16q0 12 -4 24.5t-11 28.5q-2 6 -2 10q0 13 15 24t29 11q13 0 24 -19q7 -11 14 -34t5 -34l-4 -18q25 49 68 80.5t107 31.5q68 0 106.5 -39.5z" />
    <glyph glyph-name="ograve" unicode="&#xf2;" horiz-adv-x="593" 
d="M390 560.5q-6 3.5 -13 12.5l-64 86q-11 17 -11 27q0 15 10.5 25.5t23.5 10.5q17 0 33 -24l58 -85q10 -13 10 -24q0 -13 -10 -22.5t-23 -9.5q-8 0 -14 3.5zM99.5 51.5q-67.5 51.5 -67.5 162.5q0 81 37.5 150.5t105.5 111t154 41.5q68 0 121.5 -27t84 -79.5t30.5 -127.5
q0 -82 -36.5 -146t-103.5 -100.5t-155 -36.5q-103 0 -170.5 51.5zM386 90.5q49 28.5 75 79t26 113.5q0 79 -43.5 124.5t-114.5 45.5q-64 0 -113.5 -32.5t-77 -87.5t-27.5 -119q0 -81 46 -116.5t113 -35.5t116 28.5z" />
    <glyph glyph-name="oacute" unicode="&#xf3;" horiz-adv-x="593" 
d="M295 558.5q-7 6.5 -7 16.5q0 8 6 17.5t16 18.5l92 81q15 14 24.5 19.5t18.5 5.5q11 0 18.5 -7.5t7.5 -18.5q0 -21 -25 -41l-99 -81q-20 -17 -35 -17q-10 0 -17 6.5zM99.5 51.5q-67.5 51.5 -67.5 162.5q0 81 37.5 150.5t105.5 111t154 41.5q68 0 121.5 -27t84 -79.5
t30.5 -127.5q0 -82 -36.5 -146t-103.5 -100.5t-155 -36.5q-103 0 -170.5 51.5zM386 90.5q49 28.5 75 79t26 113.5q0 79 -43.5 124.5t-114.5 45.5q-64 0 -113.5 -32.5t-77 -87.5t-27.5 -119q0 -81 46 -116.5t113 -35.5t116 28.5z" />
    <glyph glyph-name="ocircumflex" unicode="&#xf4;" horiz-adv-x="593" 
d="M450 576q-57 102 -74 102q-8 0 -33.5 -21.5t-74.5 -68.5q-20 -20 -35 -20q-10 0 -17.5 7.5t-7.5 18.5q0 13 14 26q14 10 32 29q48 44 78.5 67.5t50.5 23.5q26 0 46 -23t51 -72l21 -34q6 -8 6 -15q0 -13 -10.5 -23t-23.5 -10q-16 0 -23 13zM99.5 51.5
q-67.5 51.5 -67.5 162.5q0 81 37.5 150.5t105.5 111t154 41.5q68 0 121.5 -27t84 -79.5t30.5 -127.5q0 -82 -36.5 -146t-103.5 -100.5t-155 -36.5q-103 0 -170.5 51.5zM386 90.5q49 28.5 75 79t26 113.5q0 79 -43.5 124.5t-114.5 45.5q-64 0 -113.5 -32.5t-77 -87.5
t-27.5 -119q0 -81 46 -116.5t113 -35.5t116 28.5z" />
    <glyph glyph-name="otilde" unicode="&#xf5;" horiz-adv-x="593" 
d="M204 572.5q-6 6.5 -6 18.5q0 13 12 25q29 29 50 41t47 12q46 0 84 -22q6 -3 17.5 -9.5t19 -9.5t14.5 -3q13 0 32 17q16 15 28 15q10 0 17 -8t7 -19q0 -14 -11 -25q-25 -20 -45 -29.5t-40 -9.5q-23 0 -55 18l-20 10q-5 2 -23 10.5t-31 8.5q-10 0 -19.5 -7t-27.5 -24
q-19 -16 -33 -16q-11 0 -17 6.5zM99.5 51.5q-67.5 51.5 -67.5 162.5q0 81 37.5 150.5t105.5 111t154 41.5q68 0 121.5 -27t84 -79.5t30.5 -127.5q0 -82 -36.5 -146t-103.5 -100.5t-155 -36.5q-103 0 -170.5 51.5zM386 90.5q49 28.5 75 79t26 113.5q0 79 -43.5 124.5
t-114.5 45.5q-64 0 -113.5 -32.5t-77 -87.5t-27.5 -119q0 -81 46 -116.5t113 -35.5t116 28.5z" />
    <glyph glyph-name="odieresis" unicode="&#xf6;" horiz-adv-x="593" 
d="M203.5 588.5q-12.5 12.5 -12.5 32.5q0 26 19 44t45 18q20 0 33.5 -12.5t13.5 -31.5q0 -25 -20 -44t-45 -19q-21 0 -33.5 12.5zM443.5 588.5q-12.5 12.5 -12.5 32.5q0 26 19 44t45 18q20 0 33 -12t13 -31q0 -25 -19.5 -44.5t-44.5 -19.5q-21 0 -33.5 12.5zM99.5 51.5
q-67.5 51.5 -67.5 162.5q0 81 37.5 150.5t105.5 111t154 41.5q68 0 121.5 -27t84 -79.5t30.5 -127.5q0 -82 -36.5 -146t-103.5 -100.5t-155 -36.5q-103 0 -170.5 51.5zM386 90.5q49 28.5 75 79t26 113.5q0 79 -43.5 124.5t-114.5 45.5q-64 0 -113.5 -32.5t-77 -87.5
t-27.5 -119q0 -81 46 -116.5t113 -35.5t116 28.5z" />
    <glyph glyph-name="divide" unicode="&#xf7;" horiz-adv-x="540" 
d="M273 401q-12 12 -12 29q0 25 19.5 43t41.5 18q19 0 32.5 -12t13.5 -30q0 -24 -19.5 -42t-44.5 -18q-19 0 -31 12zM97.5 271q-6.5 6 -6.5 13q0 14 19 35q21 23 46.5 35t59.5 12q45 0 93 -23q31 -15 72 -15q14 0 23.5 3.5t24.5 11.5q8 5 16.5 8.5t17.5 3.5q11 0 17 -8
t6 -17t-9 -17.5t-25 -19.5q-13 -9 -38.5 -18.5t-46.5 -9.5q-25 0 -45.5 7t-46.5 20q-17 8 -30.5 11.5t-31.5 3.5q-19 0 -35 -5t-30 -19q-18 -18 -36 -18q-8 0 -14.5 6zM227 146.5q-13 12.5 -13 31.5q0 23 21.5 41.5t44.5 18.5q18 0 31 -13t13 -31q0 -25 -19.5 -42.5
t-44.5 -17.5q-20 0 -33 12.5z" />
    <glyph glyph-name="oslash" unicode="&#xf8;" horiz-adv-x="595" 
d="M584.5 550.5q6.5 -8.5 5.5 -19.5q-3 -12 -12 -19l-68 -65q57 -62 57 -164q0 -82 -36.5 -146t-103.5 -100.5t-155 -36.5q-108 0 -170 52l-61 -59q-13 -13 -27 -13q-9 0 -16.5 6.5t-7.5 15.5q0 13 12 25l65 63q-33 49 -33 124q0 81 37.5 150.5t105.5 111t154 41.5
q80 0 140 -37l67 65q14 14 29 14q11 0 17.5 -8.5zM125 146l294 284q-38 23 -88 23q-64 0 -113.5 -32.5t-77 -87.5t-27.5 -119q0 -41 12 -68zM457 395l-303 -293q43 -40 118 -40q67 0 116 28.5t75 79t26 113.5q0 66 -32 112z" />
    <glyph glyph-name="ugrave" unicode="&#xf9;" horiz-adv-x="547" 
d="M354 560.5q-6 3.5 -13 12.5l-64 86q-11 17 -11 27q0 15 10.5 25.5t23.5 10.5q17 0 33 -24l58 -85q10 -13 10 -24q0 -13 -10 -22.5t-23 -9.5q-8 0 -14 3.5zM436 110q-2 -14 -2 -19q0 -18 6 -32.5t6 -18.5q0 -11 -13.5 -22t-24.5 -11q-21 0 -35 19.5t-14 41.5v8
q-29 -37 -73 -56.5t-94 -19.5q-137 0 -137 150q0 28 10.5 91t22.5 129q16 83 19 104q2 13 14 21t28 8q17 0 26.5 -8t7.5 -21q-6 -35 -11.5 -64.5t-9.5 -53.5q-11 -61 -20.5 -118.5t-9.5 -81.5q0 -47 19.5 -70t59.5 -23q134 0 178 245l30 167q3 16 14.5 25t28.5 9q18 0 27 -9
t7 -25z" />
    <glyph glyph-name="uacute" unicode="&#xfa;" horiz-adv-x="547" 
d="M259 558.5q-7 6.5 -7 16.5q0 8 6 17.5t16 18.5l92 81q15 14 24.5 19.5t18.5 5.5q11 0 18.5 -7.5t7.5 -18.5q0 -21 -25 -41l-99 -81q-20 -17 -35 -17q-10 0 -17 6.5zM436 110q-2 -14 -2 -19q0 -18 6 -32.5t6 -18.5q0 -11 -13.5 -22t-24.5 -11q-21 0 -35 19.5t-14 41.5v8
q-29 -37 -73 -56.5t-94 -19.5q-137 0 -137 150q0 28 10.5 91t22.5 129q16 83 19 104q2 13 14 21t28 8q17 0 26.5 -8t7.5 -21q-6 -35 -11.5 -64.5t-9.5 -53.5q-11 -61 -20.5 -118.5t-9.5 -81.5q0 -47 19.5 -70t59.5 -23q134 0 178 245l30 167q3 16 14.5 25t28.5 9q18 0 27 -9
t7 -25z" />
    <glyph glyph-name="ucircumflex" unicode="&#xfb;" horiz-adv-x="547" 
d="M414 576q-57 102 -74 102q-8 0 -33.5 -21.5t-74.5 -68.5q-20 -20 -35 -20q-10 0 -17.5 7.5t-7.5 18.5q0 13 14 26q14 10 32 29q48 44 78.5 67.5t50.5 23.5q26 0 46 -23t51 -72l21 -34q6 -8 6 -15q0 -13 -10.5 -23t-23.5 -10q-16 0 -23 13zM436 110q-2 -14 -2 -19
q0 -18 6 -32.5t6 -18.5q0 -11 -13.5 -22t-24.5 -11q-21 0 -35 19.5t-14 41.5v8q-29 -37 -73 -56.5t-94 -19.5q-137 0 -137 150q0 28 10.5 91t22.5 129q16 83 19 104q2 13 14 21t28 8q17 0 26.5 -8t7.5 -21q-6 -35 -11.5 -64.5t-9.5 -53.5q-11 -61 -20.5 -118.5t-9.5 -81.5
q0 -47 19.5 -70t59.5 -23q134 0 178 245l30 167q3 16 14.5 25t28.5 9q18 0 27 -9t7 -25z" />
    <glyph glyph-name="udieresis" unicode="&#xfc;" horiz-adv-x="547" 
d="M167.5 588.5q-12.5 12.5 -12.5 32.5q0 26 19 44t45 18q20 0 33.5 -12.5t13.5 -31.5q0 -25 -20 -44t-45 -19q-21 0 -33.5 12.5zM407.5 588.5q-12.5 12.5 -12.5 32.5q0 26 19 44t45 18q20 0 33 -12t13 -31q0 -25 -19.5 -44.5t-44.5 -19.5q-21 0 -33.5 12.5zM436 110
q-2 -14 -2 -19q0 -18 6 -32.5t6 -18.5q0 -11 -13.5 -22t-24.5 -11q-21 0 -35 19.5t-14 41.5v8q-29 -37 -73 -56.5t-94 -19.5q-137 0 -137 150q0 28 10.5 91t22.5 129q16 83 19 104q2 13 14 21t28 8q17 0 26.5 -8t7.5 -21q-6 -35 -11.5 -64.5t-9.5 -53.5
q-11 -61 -20.5 -118.5t-9.5 -81.5q0 -47 19.5 -70t59.5 -23q134 0 178 245l30 167q3 16 14.5 25t28.5 9q18 0 27 -9t7 -25z" />
    <glyph glyph-name="yacute" unicode="&#xfd;" horiz-adv-x="522" 
d="M259 558.5q-7 6.5 -7 16.5q0 8 6 17.5t16 18.5l92 81q15 14 24.5 19.5t18.5 5.5q11 0 18.5 -7.5t7.5 -18.5q0 -21 -25 -41l-99 -81q-20 -17 -35 -17q-10 0 -17 6.5zM97.5 -248.5q-8.5 10.5 -6.5 25.5q2 9 5 14l28 51q89 163 115 214q-35 26 -71.5 95t-60 154.5
t-23.5 159.5v13q0 9 11 19.5t32 10.5q15 0 19.5 -6.5t5.5 -20.5q5 -92 25 -168.5t46 -128t50 -72.5l53 115q79 172 114 258q6 15 14 20.5t23 5.5q37 0 38 -30q0 -5 -3 -11q-56 -133 -93 -215t-84 -172q-42 -81 -91.5 -171.5t-79.5 -143.5q-15 -27 -40 -27q-18 0 -26.5 10.5z
" />
    <glyph glyph-name="thorn" unicode="&#xfe;" horiz-adv-x="588" 
d="M430.5 492.5q51.5 -22.5 85.5 -70.5t34 -118q0 -92 -36.5 -160.5t-105 -105.5t-161.5 -37q-37 0 -85 16.5t-77 39.5q-13 -73 -24 -125.5t-27 -111.5q-4 -15 -16 -23.5t-30 -8.5q-15 0 -23.5 9t-5.5 25q7 43 42 201q12 53 46 241q38 221 76 431q3 17 14 27t27 10
q17 0 27.5 -9t7.5 -24l-44 -245q34 26 83 43.5t88 17.5q53 0 104.5 -22.5zM366 95.5q51 31.5 78 86.5t27 122q0 74 -43 111t-102 37q-41 0 -80.5 -18t-67.5 -41t-40 -39l-19 -111q-14 -78 -21 -119q4 -12 28 -26.5t57.5 -24t63.5 -9.5q68 0 119 31.5z" />
    <glyph glyph-name="ydieresis" unicode="&#xff;" horiz-adv-x="522" 
d="M167.5 588.5q-12.5 12.5 -12.5 32.5q0 26 19 44t45 18q20 0 33.5 -12.5t13.5 -31.5q0 -25 -20 -44t-45 -19q-21 0 -33.5 12.5zM407.5 588.5q-12.5 12.5 -12.5 32.5q0 26 19 44t45 18q20 0 33 -12t13 -31q0 -25 -19.5 -44.5t-44.5 -19.5q-21 0 -33.5 12.5zM97.5 -248.5
q-8.5 10.5 -6.5 25.5q2 9 5 14l28 51q89 163 115 214q-35 26 -71.5 95t-60 154.5t-23.5 159.5v13q0 9 11 19.5t32 10.5q15 0 19.5 -6.5t5.5 -20.5q5 -92 25 -168.5t46 -128t50 -72.5l53 115q79 172 114 258q6 15 14 20.5t23 5.5q37 0 38 -30q0 -5 -3 -11q-56 -133 -93 -215
t-84 -172q-42 -81 -91.5 -171.5t-79.5 -143.5q-15 -27 -40 -27q-18 0 -26.5 10.5z" />
    <glyph glyph-name="Amacron" unicode="&#x100;" horiz-adv-x="692" 
d="M593 181q-10 -14 -29 -14h-7l16 -133l1 -9q0 -16 -15 -25.5t-33 -9.5q-13 0 -22.5 6t-10.5 16l-18 155l-283 2q-48 -96 -78 -153q-12 -25 -42 -25q-19 0 -29 10.5t-7 21.5q0 4 4 12l169 334q51 98 117 229q33 64 52.5 88.5t49.5 24.5q28 0 45.5 -24t25.5 -79
q25 -171 48 -363h25q15 0 23 -8.5t8 -22.5q0 -19 -10 -33zM467 246l-34 288q-5 40 -9 58t-9 18t-14.5 -16t-30.5 -59l-48 -99q-45 -95 -91 -187zM347 809q-28 0 -50 8q-18 8 -18 25q0 18 13.5 28t29.5 7q29 -7 68 -7q21 0 69 4t77 4q12 0 36 -2q16 -2 25 -2q11 -1 18 -8
t7 -18q0 -16 -12.5 -26t-26.5 -8q-30 4 -52 4q-30 0 -74 -4q-42 -4 -66 -4z" />
    <glyph glyph-name="amacron" unicode="&#x101;" horiz-adv-x="623" 
d="M183 590q-5 6 -5 16q0 15 9 26t25 13q5 1 43.5 7.5t123.5 6.5h148q15 0 23 -9t5 -24q-6 -28 -37 -28q-18 0 -32 1l-109 1q-67 0 -146 -12q-32 -4 -34 -4q-9 0 -14 6zM550.5 445.5q-3.5 -12.5 -5.5 -17.5q-6 -14 -16 -51q-17 -63 -34.5 -153.5t-17.5 -123.5q0 -17 6 -25.5
t22 -9.5q12 -2 18 -6.5t6 -14.5q0 -18 -9.5 -30t-25.5 -12q-40 0 -57 12.5t-25 46.5q-55 -70 -163 -70q-67 0 -111.5 28.5t-65 74t-20.5 95.5q0 83 34.5 152.5t97 110.5t142.5 41q50 0 87.5 -21t52.5 -55l10 33q5 17 14 27t27 10q17 0 27 -6.5t10 -16.5q0 -6 -3.5 -18.5z
M434 325q0 55 -34 80t-74 25q-55 0 -99.5 -35t-70 -91t-25.5 -115q0 -57 27.5 -95.5t92.5 -38.5q59 0 103 30.5t55 87.5q25 127 25 152z" />
    <glyph glyph-name="Abreve" unicode="&#x102;" horiz-adv-x="692" 
d="M373.5 781q-32.5 15 -50.5 41t-18 56q0 7 2 17q4 14 12.5 22t20.5 8q11 0 19 -4.5t7 -14.5q-1 -5 -1 -14q1 -34 25 -53.5t61 -19.5t69 24.5t39 59.5q2 12 12.5 18.5t22.5 6.5t19 -8t5 -20q-6 -35 -31 -66t-62 -49.5t-78 -18.5t-73.5 15zM593 181q-10 -14 -29 -14h-7
l16 -133l1 -9q0 -16 -15 -25.5t-33 -9.5q-13 0 -22.5 6t-10.5 16l-18 155l-283 2q-48 -96 -78 -153q-12 -25 -42 -25q-19 0 -29 10.5t-7 21.5q0 4 4 12l169 334q51 98 117 229q33 64 52.5 88.5t49.5 24.5q28 0 45.5 -24t25.5 -79q25 -171 48 -363h25q15 0 23 -8.5t8 -22.5
q0 -19 -10 -33zM467 246l-34 288q-5 40 -9 58t-9 18t-14.5 -16t-30.5 -59l-48 -99q-45 -95 -91 -187z" />
    <glyph glyph-name="abreve" unicode="&#x103;" horiz-adv-x="623" 
d="M295.5 581q-32.5 15 -50.5 41t-18 56q0 7 2 17q4 14 12.5 22t20.5 8q11 0 19 -4.5t7 -14.5q-1 -5 -1 -14q1 -34 25 -53.5t61 -19.5t69 24.5t39 59.5q2 12 12.5 18.5t22.5 6.5t19 -8t5 -20q-6 -35 -31 -66t-62 -49.5t-78 -18.5t-73.5 15zM550.5 445.5
q-3.5 -12.5 -5.5 -17.5q-6 -14 -16 -51q-17 -63 -34.5 -153.5t-17.5 -123.5q0 -17 6 -25.5t22 -9.5q12 -2 18 -6.5t6 -14.5q0 -18 -9.5 -30t-25.5 -12q-40 0 -57 12.5t-25 46.5q-55 -70 -163 -70q-67 0 -111.5 28.5t-65 74t-20.5 95.5q0 83 34.5 152.5t97 110.5t142.5 41
q50 0 87.5 -21t52.5 -55l10 33q5 17 14 27t27 10q17 0 27 -6.5t10 -16.5q0 -6 -3.5 -18.5zM434 325q0 55 -34 80t-74 25q-55 0 -99.5 -35t-70 -91t-25.5 -115q0 -57 27.5 -95.5t92.5 -38.5q59 0 103 30.5t55 87.5q25 127 25 152z" />
    <glyph glyph-name="Aogonek" unicode="&#x104;" horiz-adv-x="692" 
d="M593 181q-10 -14 -29 -14h-7l16 -133l1 -9q0 -17 -18 -27l-2 -2q-34 -24 -51 -43.5t-17 -42.5q0 -25 37 -25q7 0 19.5 3.5t15.5 3.5q6 0 10 -4.5t4 -11.5q0 -21 -14.5 -31.5t-40.5 -10.5q-38 0 -64.5 21.5t-26.5 54.5q0 30 17 54t50 48l-18 155l-283 2q-48 -96 -78 -153
q-12 -25 -42 -25q-19 0 -29 10.5t-7 21.5q0 4 4 12l169 334q51 98 117 229q33 64 52.5 88.5t49.5 24.5q28 0 45.5 -24t25.5 -79q25 -171 48 -363h25q15 0 23 -8.5t8 -22.5q0 -19 -10 -33zM467 246l-34 288q-5 40 -9 58t-9 18t-14.5 -16t-30.5 -59l-48 -99q-45 -95 -91 -187z
" />
    <glyph glyph-name="aogonek" unicode="&#x105;" horiz-adv-x="623" 
d="M550.5 445.5q-3.5 -12.5 -5.5 -17.5q-6 -14 -16 -51q-17 -63 -34.5 -153.5t-17.5 -123.5q0 -17 6 -25.5t22 -9.5q12 -2 18 -6.5t6 -14.5q0 -12 -5 -22t-13 -15l-3 -3q-34 -24 -51 -43.5t-17 -42.5q0 -25 37 -25q7 0 19.5 3.5t15.5 3.5q6 0 10 -4.5t4 -11.5
q0 -21 -14.5 -31.5t-40.5 -10.5q-38 0 -64.5 21.5t-26.5 54.5q0 28 14.5 50.5t43.5 45.5q-19 13 -26 47q-55 -70 -163 -70q-67 0 -111.5 28.5t-65 74t-20.5 95.5q0 83 34.5 152.5t97 110.5t142.5 41q50 0 87.5 -21t52.5 -55l10 33q5 17 14 27t27 10q17 0 27 -6.5t10 -16.5
q0 -6 -3.5 -18.5zM434 325q0 55 -34 80t-74 25q-55 0 -99.5 -35t-70 -91t-25.5 -115q0 -57 27.5 -95.5t92.5 -38.5q59 0 103 30.5t55 87.5q25 127 25 152z" />
    <glyph glyph-name="Cacute" unicode="&#x106;" horiz-adv-x="714" 
d="M422 758.5q-7 6.5 -7 16.5q0 8 6 17.5t16 18.5l92 81q15 14 24.5 19.5t18.5 5.5q11 0 18.5 -7.5t7.5 -18.5q0 -21 -25 -41l-99 -81q-20 -17 -35 -17q-10 0 -17 6.5zM722 680q0 -6 -1 -9l-21 -112q-8 -45 -48 -45q-20 0 -30 16q-21 36 -38 58.5t-46.5 38t-72.5 15.5
q-83 0 -158.5 -54t-122 -139.5t-46.5 -172.5q0 -69 30.5 -116t80 -69.5t108.5 -22.5q84 0 153.5 45.5t92.5 131.5q4 17 13.5 27.5t31.5 10.5q19 0 28 -7t9 -21q0 -4 -2 -16q-13 -66 -57 -121.5t-113.5 -88t-155.5 -32.5q-79 0 -147 31t-109 93.5t-41 152.5q0 108 56.5 210
t150 165.5t198.5 63.5q62 0 105.5 -23t67.5 -65l9 49q2 15 12.5 24.5t29.5 9.5q33 0 33 -28z" />
    <glyph glyph-name="cacute" unicode="&#x107;" horiz-adv-x="588" 
d="M308 558.5q-7 6.5 -7 16.5q0 8 6 17.5t16 18.5l92 81q15 14 24.5 19.5t18.5 5.5q11 0 18.5 -7.5t7.5 -18.5q0 -21 -25 -41l-99 -81q-20 -17 -35 -17q-10 0 -17 6.5zM155 29q-51 28 -77.5 74.5t-26.5 101.5q0 83 39.5 154t108 112.5t151.5 41.5q50 0 97.5 -21t76.5 -56
t29 -74q0 -33 -39 -33q-15 0 -24 7t-9 20q0 22 -16.5 44t-46.5 36t-68 14q-60 0 -111.5 -35.5t-81.5 -92.5t-30 -117q0 -62 39 -101.5t109 -39.5q52 0 97 21t71 53t26 63q0 10 10 17t25 7q16 0 24.5 -5.5t8.5 -19.5q0 -56 -38.5 -101.5t-99 -71.5t-124.5 -26q-69 0 -120 28z
" />
    <glyph glyph-name="Ccircumflex" unicode="&#x108;" horiz-adv-x="714" 
d="M577 776q-57 102 -74 102q-8 0 -33.5 -21.5t-74.5 -68.5q-20 -20 -35 -20q-10 0 -17.5 7.5t-7.5 18.5q0 13 14 26q14 10 32 29q48 44 78.5 67.5t50.5 23.5q26 0 46 -23t51 -72l21 -34q6 -8 6 -15q0 -13 -10.5 -23t-23.5 -10q-16 0 -23 13zM722 680q0 -6 -1 -9l-21 -112
q-8 -45 -48 -45q-20 0 -30 16q-21 36 -38 58.5t-46.5 38t-72.5 15.5q-83 0 -158.5 -54t-122 -139.5t-46.5 -172.5q0 -69 30.5 -116t80 -69.5t108.5 -22.5q84 0 153.5 45.5t92.5 131.5q4 17 13.5 27.5t31.5 10.5q19 0 28 -7t9 -21q0 -4 -2 -16q-13 -66 -57 -121.5t-113.5 -88
t-155.5 -32.5q-79 0 -147 31t-109 93.5t-41 152.5q0 108 56.5 210t150 165.5t198.5 63.5q62 0 105.5 -23t67.5 -65l9 49q2 15 12.5 24.5t29.5 9.5q33 0 33 -28z" />
    <glyph glyph-name="ccircumflex" unicode="&#x109;" horiz-adv-x="588" 
d="M463 576q-57 102 -74 102q-8 0 -33.5 -21.5t-74.5 -68.5q-20 -20 -35 -20q-10 0 -17.5 7.5t-7.5 18.5q0 13 14 26q14 10 32 29q48 44 78.5 67.5t50.5 23.5q26 0 46 -23t51 -72l21 -34q6 -8 6 -15q0 -13 -10.5 -23t-23.5 -10q-16 0 -23 13zM155 29q-51 28 -77.5 74.5
t-26.5 101.5q0 83 39.5 154t108 112.5t151.5 41.5q50 0 97.5 -21t76.5 -56t29 -74q0 -33 -39 -33q-15 0 -24 7t-9 20q0 22 -16.5 44t-46.5 36t-68 14q-60 0 -111.5 -35.5t-81.5 -92.5t-30 -117q0 -62 39 -101.5t109 -39.5q52 0 97 21t71 53t26 63q0 10 10 17t25 7
q16 0 24.5 -5.5t8.5 -19.5q0 -56 -38.5 -101.5t-99 -71.5t-124.5 -26q-69 0 -120 28z" />
    <glyph glyph-name="Cdotaccent" unicode="&#x10a;" horiz-adv-x="714" 
d="M449.5 788.5q-12.5 12.5 -12.5 32.5q0 25 19 43.5t45 18.5q20 0 33 -12t13 -31q0 -26 -19 -45t-45 -19q-21 0 -33.5 12.5zM722 680q0 -6 -1 -9l-21 -112q-8 -45 -48 -45q-20 0 -30 16q-21 36 -38 58.5t-46.5 38t-72.5 15.5q-83 0 -158.5 -54t-122 -139.5t-46.5 -172.5
q0 -69 30.5 -116t80 -69.5t108.5 -22.5q84 0 153.5 45.5t92.5 131.5q4 17 13.5 27.5t31.5 10.5q19 0 28 -7t9 -21q0 -4 -2 -16q-13 -66 -57 -121.5t-113.5 -88t-155.5 -32.5q-79 0 -147 31t-109 93.5t-41 152.5q0 108 56.5 210t150 165.5t198.5 63.5q62 0 105.5 -23
t67.5 -65l9 49q2 15 12.5 24.5t29.5 9.5q33 0 33 -28z" />
    <glyph glyph-name="cdotaccent" unicode="&#x10b;" horiz-adv-x="588" 
d="M335.5 588.5q-12.5 12.5 -12.5 32.5q0 25 19 43.5t45 18.5q20 0 33 -12t13 -31q0 -26 -19 -45t-45 -19q-21 0 -33.5 12.5zM155 29q-51 28 -77.5 74.5t-26.5 101.5q0 83 39.5 154t108 112.5t151.5 41.5q50 0 97.5 -21t76.5 -56t29 -74q0 -33 -39 -33q-15 0 -24 7t-9 20
q0 22 -16.5 44t-46.5 36t-68 14q-60 0 -111.5 -35.5t-81.5 -92.5t-30 -117q0 -62 39 -101.5t109 -39.5q52 0 97 21t71 53t26 63q0 10 10 17t25 7q16 0 24.5 -5.5t8.5 -19.5q0 -56 -38.5 -101.5t-99 -71.5t-124.5 -26q-69 0 -120 28z" />
    <glyph glyph-name="Ccaron" unicode="&#x10c;" horiz-adv-x="714" 
d="M643.5 936q6.5 -7 6.5 -17q0 -6 -3 -11.5t-6 -8t-4 -4.5q-56 -63 -93 -96t-69 -33q-19 0 -39.5 22t-54.5 66q-15 21 -25 33q-8 9 -6 22q1 11 12.5 20t22.5 9q14 0 27 -20q59 -90 76 -90q9 0 39 28.5t72 74.5q11 12 28 12q10 0 16.5 -7zM722 680q0 -6 -1 -9l-21 -112
q-8 -45 -48 -45q-20 0 -30 16q-21 36 -38 58.5t-46.5 38t-72.5 15.5q-83 0 -158.5 -54t-122 -139.5t-46.5 -172.5q0 -69 30.5 -116t80 -69.5t108.5 -22.5q84 0 153.5 45.5t92.5 131.5q4 17 13.5 27.5t31.5 10.5q19 0 28 -7t9 -21q0 -4 -2 -16q-13 -66 -57 -121.5t-113.5 -88
t-155.5 -32.5q-79 0 -147 31t-109 93.5t-41 152.5q0 108 56.5 210t150 165.5t198.5 63.5q62 0 105.5 -23t67.5 -65l9 49q2 15 12.5 24.5t29.5 9.5q33 0 33 -28z" />
    <glyph glyph-name="ccaron" unicode="&#x10d;" horiz-adv-x="588" 
d="M529.5 736q6.5 -7 6.5 -17q0 -6 -3 -11.5t-6 -8t-4 -4.5q-56 -63 -93 -96t-69 -33q-19 0 -39.5 22t-54.5 66q-15 21 -25 33q-8 9 -6 22q1 11 12.5 20t22.5 9q14 0 27 -20q59 -90 76 -90q9 0 39 28.5t72 74.5q11 12 28 12q10 0 16.5 -7zM155 29q-51 28 -77.5 74.5
t-26.5 101.5q0 83 39.5 154t108 112.5t151.5 41.5q50 0 97.5 -21t76.5 -56t29 -74q0 -33 -39 -33q-15 0 -24 7t-9 20q0 22 -16.5 44t-46.5 36t-68 14q-60 0 -111.5 -35.5t-81.5 -92.5t-30 -117q0 -62 39 -101.5t109 -39.5q52 0 97 21t71 53t26 63q0 10 10 17t25 7
q16 0 24.5 -5.5t8.5 -19.5q0 -56 -38.5 -101.5t-99 -71.5t-124.5 -26q-69 0 -120 28z" />
    <glyph glyph-name="Dcaron" unicode="&#x10e;" horiz-adv-x="687" 
d="M593.5 936q6.5 -7 6.5 -17q0 -6 -3 -11.5t-6 -8t-4 -4.5q-56 -63 -93 -96t-69 -33q-19 0 -39.5 22t-54.5 66q-15 21 -25 33q-8 9 -6 22q1 11 12.5 20t22.5 9q14 0 27 -20q59 -90 76 -90q9 0 39 28.5t72 74.5q11 12 28 12q10 0 16.5 -7zM561 613.5q101 -71.5 101 -212.5
q0 -116 -64.5 -205.5t-178 -139t-253.5 -49.5h-87q-19 0 -28 6.5t-9 21.5q0 17 10.5 29t28.5 12h35l82 554h-3q-21 0 -32.5 5.5t-11.5 21.5q0 26 13 34.5t39 8.5h12q10 15 36 15q15 0 22 -4.5t9 -13.5q178 -12 279 -83.5zM391 124q90 42 142.5 114t52.5 163
q0 117 -84.5 167.5t-226.5 59.5l-83 -551q109 5 199 47z" />
    <glyph glyph-name="dcaron" unicode="&#x10f;" horiz-adv-x="772" 
d="M842.5 821q13.5 -14 13.5 -34q0 -64 -111 -151q-2 -1 -5.5 -4t-8.5 -3q-11 0 -18 7.5t-7 16.5q0 6 3.5 9.5t4.5 5.5q2 2 24.5 20t36.5 38q-15 0 -26 12.5t-11 29.5q0 27 21.5 47t48.5 20q21 0 34.5 -14zM112 46.5q-60 50.5 -60 147.5q0 85 40 157t109 114t151 42
q61 0 104.5 -21t64.5 -58l82 414q3 14 15 23t28 9q17 0 26.5 -9.5t6.5 -24.5l-132 -688q-3 -17 -4.5 -36.5t-0.5 -27.5q1 -17 11 -29.5t10 -13.5q0 -3 -8.5 -14.5t-20 -21.5t-21.5 -10q-22 0 -37.5 24.5t-14.5 58.5q-68 -86 -192 -86q-97 0 -157 50.5zM367.5 83
q41.5 19 69 50.5t34.5 67.5l29 153q-13 37 -55 61.5t-95 24.5q-60 0 -110.5 -32.5t-80 -86t-29.5 -113.5q0 -70 42 -107t107 -37q47 0 88.5 19z" />
    <glyph glyph-name="Dcroat" unicode="&#x110;" horiz-adv-x="726" 
d="M593.5 614q101.5 -74 101.5 -216q0 -117 -68.5 -206t-185.5 -137t-258 -48h-71q-37 0 -37 26q0 42 45 42h25l37 252l-75 1q-23 0 -35 8t-12 22q0 21 16 33.5t45 11.5l72 -2l34 230q-42 3 -42 31q0 21 14 29t46 9q11 14 36 14q28 0 34 -16q177 -10 278.5 -84zM425 124
q87 42 137 115.5t50 170.5q0 193 -301 218l-34 -229l111 -2q19 -1 30 -9.5t11 -22.5q0 -19 -14.5 -30.5t-39.5 -11.5l-109 2l-37 -249q109 6 196 48z" />
    <glyph glyph-name="dcroat" unicode="&#x111;" horiz-adv-x="721" 
d="M742 706q9 -6 9 -17q0 -17 -12 -28t-31 -11l-66 -1l-95 -497q-3 -17 -4.5 -36.5t-0.5 -27.5q1 -17 11 -29.5t10 -13.5q0 -3 -8.5 -14.5t-20 -21.5t-21.5 -10q-22 0 -37.5 24.5t-14.5 58.5q-68 -86 -192 -86q-97 0 -157 50.5t-60 147.5q0 85 40 157t109 114t151 42
q61 0 104.5 -21t64.5 -58l43 219l-83 -1q-14 0 -22 6.5t-8 17.5q0 16 11 25t29 10l85 2l27 135q3 14 15 23t28 9q17 0 26.5 -9.5t6.5 -24.5l-25 -131l64 2q15 1 24 -5zM500 354q-13 37 -55 61.5t-95 24.5q-60 0 -110.5 -32.5t-80 -86t-29.5 -113.5q0 -70 42 -107t107 -37
q47 0 88.5 19t69 50.5t34.5 67.5z" />
    <glyph glyph-name="Emacron" unicode="&#x112;" horiz-adv-x="573" 
d="M213 790q-5 6 -5 16q0 15 9 26t25 13q5 1 43.5 7.5t123.5 6.5h148q15 0 23 -9t5 -24q-6 -28 -37 -28q-18 0 -32 1l-109 1q-67 0 -146 -12q-32 -4 -34 -4q-9 0 -14 6zM602.5 681.5q7.5 -4.5 7.5 -17.5q0 -20 -12 -32.5t-28 -10.5q-98 8 -182 8q-64 0 -136 -4
q-19 -133 -35 -221l67 -1l110 -3l59 -1q24 0 24 -24q0 -19 -10 -32.5t-26 -13.5l-53 1q-45 3 -118 3q-42 0 -66 1q-14 -74 -28 -128t-33 -120q64 -5 154 -5q54 0 86 2t78 7q37 4 37 -26q0 -18 -9.5 -29.5t-27.5 -14.5q-38 -8 -185 -8q-132 0 -236 12q-22 3 -22 25
q0 18 9.5 30.5t22.5 12.5h17q18 54 31.5 109.5t28.5 133.5h-12q-30 0 -30 26q0 18 10.5 31t27.5 13h16q9 51 10 58q22 119 28 159h-7q-16 0 -16 25q0 26 13 34.5t34 10.5q58 6 173 6q145 0 206 -9q15 -3 22.5 -7.5z" />
    <glyph glyph-name="emacron" unicode="&#x113;" horiz-adv-x="619" 
d="M191 590q-5 6 -5 16q0 15 9 26t25 13q5 1 43.5 7.5t123.5 6.5h148q15 0 23 -9t5 -24q-6 -28 -37 -28q-18 0 -32 1l-109 1q-67 0 -146 -12q-32 -4 -34 -4q-9 0 -14 6zM162 25.5q-52 29.5 -79 79t-27 107.5q0 80 39.5 149.5t108.5 110.5t153 41q61 0 109 -22t74.5 -61.5
t26.5 -91.5q0 -50 -14.5 -73.5t-48.5 -23.5l-375 -8q-2 -18 -2 -25q0 -64 44.5 -105.5t114.5 -41.5q42 0 74 12.5t51.5 28.5t49.5 45q9 9 20 9q12 0 23 -8.5t11 -19.5q0 -13 -12 -26q-27 -31 -50 -51t-65.5 -37.5t-101.5 -17.5q-72 0 -124 29.5zM486 302q12 0 15 7.5t3 27.5
q0 51 -40.5 82.5t-106.5 31.5q-55 0 -103 -28t-79 -66t-35 -64z" />
    <glyph glyph-name="Ebreve" unicode="&#x114;" horiz-adv-x="573" 
d="M325.5 781q-32.5 15 -50.5 41t-18 56q0 7 2 17q4 14 12.5 22t20.5 8q11 0 19 -4.5t7 -14.5q-1 -5 -1 -14q1 -34 25 -53.5t61 -19.5t69 24.5t39 59.5q2 12 12.5 18.5t22.5 6.5t19 -8t5 -20q-6 -35 -31 -66t-62 -49.5t-78 -18.5t-73.5 15zM602.5 681.5q7.5 -4.5 7.5 -17.5
q0 -20 -12 -32.5t-28 -10.5q-98 8 -182 8q-64 0 -136 -4q-19 -133 -35 -221l67 -1l110 -3l59 -1q24 0 24 -24q0 -19 -10 -32.5t-26 -13.5l-53 1q-45 3 -118 3q-42 0 -66 1q-14 -74 -28 -128t-33 -120q64 -5 154 -5q54 0 86 2t78 7q37 4 37 -26q0 -18 -9.5 -29.5t-27.5 -14.5
q-38 -8 -185 -8q-132 0 -236 12q-22 3 -22 25q0 18 9.5 30.5t22.5 12.5h17q18 54 31.5 109.5t28.5 133.5h-12q-30 0 -30 26q0 18 10.5 31t27.5 13h16q9 51 10 58q22 119 28 159h-7q-16 0 -16 25q0 26 13 34.5t34 10.5q58 6 173 6q145 0 206 -9q15 -3 22.5 -7.5z" />
    <glyph glyph-name="ebreve" unicode="&#x115;" horiz-adv-x="619" 
d="M303.5 581q-32.5 15 -50.5 41t-18 56q0 7 2 17q4 14 12.5 22t20.5 8q11 0 19 -4.5t7 -14.5q-1 -5 -1 -14q1 -34 25 -53.5t61 -19.5t69 24.5t39 59.5q2 12 12.5 18.5t22.5 6.5t19 -8t5 -20q-6 -35 -31 -66t-62 -49.5t-78 -18.5t-73.5 15zM162 25.5q-52 29.5 -79 79
t-27 107.5q0 80 39.5 149.5t108.5 110.5t153 41q61 0 109 -22t74.5 -61.5t26.5 -91.5q0 -50 -14.5 -73.5t-48.5 -23.5l-375 -8q-2 -18 -2 -25q0 -64 44.5 -105.5t114.5 -41.5q42 0 74 12.5t51.5 28.5t49.5 45q9 9 20 9q12 0 23 -8.5t11 -19.5q0 -13 -12 -26q-27 -31 -50 -51
t-65.5 -37.5t-101.5 -17.5q-72 0 -124 29.5zM486 302q12 0 15 7.5t3 27.5q0 51 -40.5 82.5t-106.5 31.5q-55 0 -103 -28t-79 -66t-35 -64z" />
    <glyph glyph-name="Edotaccent" unicode="&#x116;" horiz-adv-x="573" 
d="M361.5 788.5q-12.5 12.5 -12.5 32.5q0 25 19 43.5t45 18.5q20 0 33 -12t13 -31q0 -26 -19 -45t-45 -19q-21 0 -33.5 12.5zM602.5 681.5q7.5 -4.5 7.5 -17.5q0 -20 -12 -32.5t-28 -10.5q-98 8 -182 8q-64 0 -136 -4q-19 -133 -35 -221l67 -1l110 -3l59 -1q24 0 24 -24
q0 -19 -10 -32.5t-26 -13.5l-53 1q-45 3 -118 3q-42 0 -66 1q-14 -74 -28 -128t-33 -120q64 -5 154 -5q54 0 86 2t78 7q37 4 37 -26q0 -18 -9.5 -29.5t-27.5 -14.5q-38 -8 -185 -8q-132 0 -236 12q-22 3 -22 25q0 18 9.5 30.5t22.5 12.5h17q18 54 31.5 109.5t28.5 133.5h-12
q-30 0 -30 26q0 18 10.5 31t27.5 13h16q9 51 10 58q22 119 28 159h-7q-16 0 -16 25q0 26 13 34.5t34 10.5q58 6 173 6q145 0 206 -9q15 -3 22.5 -7.5z" />
    <glyph glyph-name="edotaccent" unicode="&#x117;" horiz-adv-x="619" 
d="M339.5 588.5q-12.5 12.5 -12.5 32.5q0 25 19 43.5t45 18.5q20 0 33 -12t13 -31q0 -26 -19 -45t-45 -19q-21 0 -33.5 12.5zM162 25.5q-52 29.5 -79 79t-27 107.5q0 80 39.5 149.5t108.5 110.5t153 41q61 0 109 -22t74.5 -61.5t26.5 -91.5q0 -50 -14.5 -73.5t-48.5 -23.5
l-375 -8q-2 -18 -2 -25q0 -64 44.5 -105.5t114.5 -41.5q42 0 74 12.5t51.5 28.5t49.5 45q9 9 20 9q12 0 23 -8.5t11 -19.5q0 -13 -12 -26q-27 -31 -50 -51t-65.5 -37.5t-101.5 -17.5q-72 0 -124 29.5zM486 302q12 0 15 7.5t3 27.5q0 51 -40.5 82.5t-106.5 31.5
q-55 0 -103 -28t-79 -66t-35 -64z" />
    <glyph glyph-name="Eogonek" unicode="&#x118;" horiz-adv-x="573" 
d="M602.5 681.5q7.5 -4.5 7.5 -17.5q0 -20 -12 -32.5t-28 -10.5q-98 8 -182 8q-64 0 -136 -4q-19 -133 -35 -221l67 -1l110 -3l59 -1q24 0 24 -24q0 -19 -10 -32.5t-26 -13.5l-53 1q-45 3 -118 3q-42 0 -66 1q-14 -74 -28 -128t-33 -120q64 -5 154 -5q54 0 86 2t78 7
q37 4 37 -26q0 -23 -16 -36l-5 -4q-34 -24 -51 -43.5t-17 -42.5q0 -25 37 -25q7 0 19.5 3.5t15.5 3.5q6 0 10 -4.5t4 -11.5q0 -21 -14.5 -31.5t-40.5 -10.5q-38 0 -64.5 21.5t-26.5 54.5q0 42 35 75q-33 -1 -108 -1q-132 0 -236 12q-22 3 -22 25q0 18 9.5 30.5t22.5 12.5h17
q18 54 31.5 109.5t28.5 133.5h-12q-30 0 -30 26q0 18 10.5 31t27.5 13h16q9 51 10 58q22 119 28 159h-7q-16 0 -16 25q0 26 13 34.5t34 10.5q58 6 173 6q145 0 206 -9q15 -3 22.5 -7.5z" />
    <glyph glyph-name="eogonek" unicode="&#x119;" horiz-adv-x="619" 
d="M129 233q-2 -18 -2 -25q0 -64 44.5 -105.5t114.5 -41.5q42 0 74 12.5t51.5 28.5t49.5 45q9 9 20 9q12 0 23 -8.5t11 -19.5q0 -13 -12 -26q-22 -25 -38.5 -40.5t-41.5 -30.5q-33 -30 -33 -59q0 -25 37 -25q7 0 19.5 3.5t15.5 3.5q6 0 10 -4.5t4 -11.5q0 -21 -14.5 -31.5
t-40.5 -10.5q-38 0 -64.5 21.5t-26.5 54.5q0 16 4 28q-20 -4 -48 -4q-72 0 -124 29.5t-79 79t-27 107.5q0 80 39.5 149.5t108.5 110.5t153 41q61 0 109 -22t74.5 -61.5t26.5 -91.5q0 -50 -14.5 -73.5t-48.5 -23.5zM254 423q-48 -28 -79 -66t-35 -64l346 9q12 0 15 7.5
t3 27.5q0 51 -40.5 82.5t-106.5 31.5q-55 0 -103 -28z" />
    <glyph glyph-name="Ecaron" unicode="&#x11a;" horiz-adv-x="573" 
d="M555.5 936q6.5 -7 6.5 -17q0 -6 -3 -11.5t-6 -8t-4 -4.5q-56 -63 -93 -96t-69 -33q-19 0 -39.5 22t-54.5 66q-15 21 -25 33q-8 9 -6 22q1 11 12.5 20t22.5 9q14 0 27 -20q59 -90 76 -90q9 0 39 28.5t72 74.5q11 12 28 12q10 0 16.5 -7zM602.5 681.5q7.5 -4.5 7.5 -17.5
q0 -20 -12 -32.5t-28 -10.5q-98 8 -182 8q-64 0 -136 -4q-19 -133 -35 -221l67 -1l110 -3l59 -1q24 0 24 -24q0 -19 -10 -32.5t-26 -13.5l-53 1q-45 3 -118 3q-42 0 -66 1q-14 -74 -28 -128t-33 -120q64 -5 154 -5q54 0 86 2t78 7q37 4 37 -26q0 -18 -9.5 -29.5t-27.5 -14.5
q-38 -8 -185 -8q-132 0 -236 12q-22 3 -22 25q0 18 9.5 30.5t22.5 12.5h17q18 54 31.5 109.5t28.5 133.5h-12q-30 0 -30 26q0 18 10.5 31t27.5 13h16q9 51 10 58q22 119 28 159h-7q-16 0 -16 25q0 26 13 34.5t34 10.5q58 6 173 6q145 0 206 -9q15 -3 22.5 -7.5z" />
    <glyph glyph-name="ecaron" unicode="&#x11b;" horiz-adv-x="619" 
d="M533.5 736q6.5 -7 6.5 -17q0 -6 -3 -11.5t-6 -8t-4 -4.5q-56 -63 -93 -96t-69 -33q-19 0 -39.5 22t-54.5 66q-15 21 -25 33q-8 9 -6 22q1 11 12.5 20t22.5 9q14 0 27 -20q59 -90 76 -90q9 0 39 28.5t72 74.5q11 12 28 12q10 0 16.5 -7zM162 25.5q-52 29.5 -79 79
t-27 107.5q0 80 39.5 149.5t108.5 110.5t153 41q61 0 109 -22t74.5 -61.5t26.5 -91.5q0 -50 -14.5 -73.5t-48.5 -23.5l-375 -8q-2 -18 -2 -25q0 -64 44.5 -105.5t114.5 -41.5q42 0 74 12.5t51.5 28.5t49.5 45q9 9 20 9q12 0 23 -8.5t11 -19.5q0 -13 -12 -26q-27 -31 -50 -51
t-65.5 -37.5t-101.5 -17.5q-72 0 -124 29.5zM486 302q12 0 15 7.5t3 27.5q0 51 -40.5 82.5t-106.5 31.5q-55 0 -103 -28t-79 -66t-35 -64z" />
    <glyph glyph-name="Gcircumflex" unicode="&#x11c;" horiz-adv-x="741" 
d="M563 776q-57 102 -74 102q-8 0 -33.5 -21.5t-74.5 -68.5q-20 -20 -35 -20q-10 0 -17.5 7.5t-7.5 18.5q0 13 14 26q14 10 32 29q48 44 78.5 67.5t50.5 23.5q26 0 46 -23t51 -72l21 -34q6 -8 6 -15q0 -13 -10.5 -23t-23.5 -10q-16 0 -23 13zM291.5 573
q-71.5 -46 -113 -121.5t-41.5 -159.5q0 -64 26 -114t75 -78t116 -28q91 0 145.5 54t77.5 160l-141 3q-32 1 -32 29q0 20 13 31t30 11l241 -5q34 0 34 -27q0 -19 -11.5 -30.5t-30.5 -11.5l-29 1q-60 -286 -297 -286q-90 0 -157 38.5t-102.5 105t-35.5 148.5q0 104 53 195.5
t143 146.5t195 55q72 0 119.5 -25t74.5 -62l8 29q4 16 14 22t29 6q16 0 25.5 -7.5t7.5 -19.5q-11 -69 -27 -94q-8 -12 -20 -17t-24 -5q-11 0 -19 4.5t-20 17.5q-25 26 -44.5 42t-50 27t-73.5 11q-87 0 -158.5 -46z" />
    <glyph glyph-name="gcircumflex" unicode="&#x11d;" horiz-adv-x="580" 
d="M441 576q-57 102 -74 102q-8 0 -33.5 -21.5t-74.5 -68.5q-20 -20 -35 -20q-10 0 -17.5 7.5t-7.5 18.5q0 13 14 26q14 10 32 29q48 44 78.5 67.5t50.5 23.5q26 0 46 -23t51 -72l21 -34q6 -8 6 -15q0 -13 -10.5 -23t-23.5 -10q-16 0 -23 13zM536.5 523q12.5 -7 12.5 -18
q0 -6 -3 -12q-8 -16 -34 -75l-4 -124q-4 -88 -4 -123q0 -93 -13 -193q-15 -113 -89 -170.5t-187 -57.5q-52 0 -94 19.5t-66 53.5t-24 76q0 23 10.5 34t33.5 11q24 0 24 -24q0 -47 32 -76t84 -29q84 0 134.5 37.5t65.5 122.5q6 36 10 103q-30 -34 -74.5 -54t-100.5 -20
q-64 0 -110.5 29t-70.5 77t-24 103q0 79 37 146t100.5 107t140.5 40q46 0 79.5 -13.5t50.5 -32.5q23 45 28 55q8 15 30 15q13 0 25.5 -7zM328.5 89.5q35.5 14.5 63 36.5t36.5 43l3 100q2 70 4 106q-3 13 -19 27.5t-42 24.5t-56 10q-54 0 -99 -31.5t-71.5 -83.5t-26.5 -109
q0 -60 35 -99t105 -39q32 0 67.5 14.5z" />
    <glyph glyph-name="Gbreve" unicode="&#x11e;" horiz-adv-x="741" 
d="M399.5 781q-32.5 15 -50.5 41t-18 56q0 7 2 17q4 14 12.5 22t20.5 8q11 0 19 -4.5t7 -14.5q-1 -5 -1 -14q1 -34 25 -53.5t61 -19.5t69 24.5t39 59.5q2 12 12.5 18.5t22.5 6.5t19 -8t5 -20q-6 -35 -31 -66t-62 -49.5t-78 -18.5t-73.5 15zM291.5 573q-71.5 -46 -113 -121.5
t-41.5 -159.5q0 -64 26 -114t75 -78t116 -28q91 0 145.5 54t77.5 160l-141 3q-32 1 -32 29q0 20 13 31t30 11l241 -5q34 0 34 -27q0 -19 -11.5 -30.5t-30.5 -11.5l-29 1q-60 -286 -297 -286q-90 0 -157 38.5t-102.5 105t-35.5 148.5q0 104 53 195.5t143 146.5t195 55
q72 0 119.5 -25t74.5 -62l8 29q4 16 14 22t29 6q16 0 25.5 -7.5t7.5 -19.5q-11 -69 -27 -94q-8 -12 -20 -17t-24 -5q-11 0 -19 4.5t-20 17.5q-25 26 -44.5 42t-50 27t-73.5 11q-87 0 -158.5 -46z" />
    <glyph glyph-name="gbreve" unicode="&#x11f;" horiz-adv-x="580" 
d="M277.5 581q-32.5 15 -50.5 41t-18 56q0 7 2 17q4 14 12.5 22t20.5 8q11 0 19 -4.5t7 -14.5q-1 -5 -1 -14q1 -34 25 -53.5t61 -19.5t69 24.5t39 59.5q2 12 12.5 18.5t22.5 6.5t19 -8t5 -20q-6 -35 -31 -66t-62 -49.5t-78 -18.5t-73.5 15zM536.5 523q12.5 -7 12.5 -18
q0 -6 -3 -12q-8 -16 -34 -75l-4 -124q-4 -88 -4 -123q0 -93 -13 -193q-15 -113 -89 -170.5t-187 -57.5q-52 0 -94 19.5t-66 53.5t-24 76q0 23 10.5 34t33.5 11q24 0 24 -24q0 -47 32 -76t84 -29q84 0 134.5 37.5t65.5 122.5q6 36 10 103q-30 -34 -74.5 -54t-100.5 -20
q-64 0 -110.5 29t-70.5 77t-24 103q0 79 37 146t100.5 107t140.5 40q46 0 79.5 -13.5t50.5 -32.5q23 45 28 55q8 15 30 15q13 0 25.5 -7zM328.5 89.5q35.5 14.5 63 36.5t36.5 43l3 100q2 70 4 106q-3 13 -19 27.5t-42 24.5t-56 10q-54 0 -99 -31.5t-71.5 -83.5t-26.5 -109
q0 -60 35 -99t105 -39q32 0 67.5 14.5z" />
    <glyph glyph-name="Gdotaccent" unicode="&#x120;" horiz-adv-x="741" 
d="M435.5 788.5q-12.5 12.5 -12.5 32.5q0 25 19 43.5t45 18.5q20 0 33 -12t13 -31q0 -26 -19 -45t-45 -19q-21 0 -33.5 12.5zM291.5 573q-71.5 -46 -113 -121.5t-41.5 -159.5q0 -64 26 -114t75 -78t116 -28q91 0 145.5 54t77.5 160l-141 3q-32 1 -32 29q0 20 13 31t30 11
l241 -5q34 0 34 -27q0 -19 -11.5 -30.5t-30.5 -11.5l-29 1q-60 -286 -297 -286q-90 0 -157 38.5t-102.5 105t-35.5 148.5q0 104 53 195.5t143 146.5t195 55q72 0 119.5 -25t74.5 -62l8 29q4 16 14 22t29 6q16 0 25.5 -7.5t7.5 -19.5q-11 -69 -27 -94q-8 -12 -20 -17t-24 -5
q-11 0 -19 4.5t-20 17.5q-25 26 -44.5 42t-50 27t-73.5 11q-87 0 -158.5 -46z" />
    <glyph glyph-name="gdotaccent" unicode="&#x121;" horiz-adv-x="580" 
d="M313.5 588.5q-12.5 12.5 -12.5 32.5q0 25 19 43.5t45 18.5q20 0 33 -12t13 -31q0 -26 -19 -45t-45 -19q-21 0 -33.5 12.5zM536.5 523q12.5 -7 12.5 -18q0 -6 -3 -12q-8 -16 -34 -75l-4 -124q-4 -88 -4 -123q0 -93 -13 -193q-15 -113 -89 -170.5t-187 -57.5
q-52 0 -94 19.5t-66 53.5t-24 76q0 23 10.5 34t33.5 11q24 0 24 -24q0 -47 32 -76t84 -29q84 0 134.5 37.5t65.5 122.5q6 36 10 103q-30 -34 -74.5 -54t-100.5 -20q-64 0 -110.5 29t-70.5 77t-24 103q0 79 37 146t100.5 107t140.5 40q46 0 79.5 -13.5t50.5 -32.5
q23 45 28 55q8 15 30 15q13 0 25.5 -7zM328.5 89.5q35.5 14.5 63 36.5t36.5 43l3 100q2 70 4 106q-3 13 -19 27.5t-42 24.5t-56 10q-54 0 -99 -31.5t-71.5 -83.5t-26.5 -109q0 -60 35 -99t105 -39q32 0 67.5 14.5z" />
    <glyph glyph-name="uni0122" unicode="&#x122;" horiz-adv-x="741" 
d="M359 -86q14 -14 14 -34q0 -36 -33.5 -78t-78.5 -73q-8 -7 -18 -7q-8 0 -15 6t-7 15t6 15l19 18q34 32 44 44q-15 2 -25.5 13.5t-10.5 27.5q0 27 21.5 47t48.5 20q21 0 35 -14zM291.5 573q-71.5 -46 -113 -121.5t-41.5 -159.5q0 -64 26 -114t75 -78t116 -28q91 0 145.5 54
t77.5 160l-141 3q-32 1 -32 29q0 20 13 31t30 11l241 -5q34 0 34 -27q0 -19 -11.5 -30.5t-30.5 -11.5l-29 1q-60 -286 -297 -286q-90 0 -157 38.5t-102.5 105t-35.5 148.5q0 104 53 195.5t143 146.5t195 55q72 0 119.5 -25t74.5 -62l8 29q4 16 14 22t29 6q16 0 25.5 -7.5
t7.5 -19.5q-11 -69 -27 -94q-8 -12 -20 -17t-24 -5q-11 0 -19 4.5t-20 17.5q-25 26 -44.5 42t-50 27t-73.5 11q-87 0 -158.5 -46z" />
    <glyph glyph-name="uni0123" unicode="&#x123;" horiz-adv-x="580" 
d="M431 761q6 -6 6 -16q0 -11 -10 -19q-41 -33 -64 -57q18 -2 30.5 -14t12.5 -30q0 -27 -22 -45.5t-49 -18.5q-21 0 -35 14t-14 35q0 35 34.5 77.5t79.5 73.5q9 6 16 6q9 0 15 -6zM536.5 523q12.5 -7 12.5 -18q0 -6 -3 -12q-8 -16 -34 -75l-4 -124q-4 -88 -4 -123
q0 -93 -13 -193q-15 -113 -89 -170.5t-187 -57.5q-52 0 -94 19.5t-66 53.5t-24 76q0 23 10.5 34t33.5 11q24 0 24 -24q0 -47 32 -76t84 -29q84 0 134.5 37.5t65.5 122.5q6 36 10 103q-30 -34 -74.5 -54t-100.5 -20q-64 0 -110.5 29t-70.5 77t-24 103q0 79 37 146t100.5 107
t140.5 40q46 0 79.5 -13.5t50.5 -32.5q23 45 28 55q8 15 30 15q13 0 25.5 -7zM328.5 89.5q35.5 14.5 63 36.5t36.5 43l3 100q2 70 4 106q-3 13 -19 27.5t-42 24.5t-56 10q-54 0 -99 -31.5t-71.5 -83.5t-26.5 -109q0 -60 35 -99t105 -39q32 0 67.5 14.5z" />
    <glyph glyph-name="Hcircumflex" unicode="&#x124;" horiz-adv-x="713" 
d="M554 776q-57 102 -74 102q-8 0 -33.5 -21.5t-74.5 -68.5q-20 -20 -35 -20q-10 0 -17.5 7.5t-7.5 18.5q0 13 14 26q14 10 32 29q48 44 78.5 67.5t50.5 23.5q26 0 46 -23t51 -72l21 -34q6 -8 6 -15q0 -13 -10.5 -23t-23.5 -10q-16 0 -23 13zM670 344q8 -7 8 -23
q0 -20 -12.5 -30.5t-35.5 -10.5h-20l-36 -243q-3 -18 -14.5 -28t-29.5 -10q-19 0 -27.5 9.5t-6.5 26.5l36 246l-328 5l-68 -264q-8 -28 -43 -28q-34 0 -34 24q0 7 1 10l67 260h-25q-13 0 -21.5 7.5t-8.5 23.5q0 18 11.5 28.5t32.5 10.5h29l84 329q5 18 17.5 26.5t28.5 8.5
q32 0 32 -28l-2 -12l-83 -325l321 -5l49 332q2 16 13.5 27t30.5 11q18 0 26.5 -10t6.5 -25l-49 -336h23q19 0 27 -7z" />
    <glyph glyph-name="hcircumflex" unicode="&#x125;" horiz-adv-x="564" 
d="M358 861q-57 102 -74 102q-8 0 -33.5 -21.5t-74.5 -68.5q-20 -20 -35 -20q-10 0 -17.5 7.5t-7.5 18.5q0 13 14 26q14 10 32 29q48 44 78.5 67.5t50.5 23.5q26 0 46 -23t51 -72l21 -34q6 -8 6 -15q0 -13 -10.5 -23t-23.5 -10q-16 0 -23 13zM487 469q39 -46 39 -137
q0 -80 -39 -302q-2 -13 -14 -21.5t-29 -8.5t-26 8.5t-6 25.5q20 119 29.5 186.5t9.5 111.5q0 57 -18 85.5t-61 28.5q-40 0 -77 -23t-64 -56t-40 -63q-12 -28 -21 -72t-21 -122q-4 -23 -7.5 -43.5t-6.5 -37.5q-2 -12 -15 -20t-29 -8q-17 0 -26 8t-7 21q39 219 74 390
q26 126 74 330q9 35 44 35q32 0 32 -22q0 -6 -1 -10q-8 -28 -75 -325q70 87 171 87q71 0 110 -46z" />
    <glyph glyph-name="Hbar" unicode="&#x126;" horiz-adv-x="728" 
d="M653 488l-20 -137h23q19 0 27 -7t8 -23q0 -20 -12.5 -30.5t-35.5 -10.5h-20l-36 -243q-3 -18 -14.5 -28t-29.5 -10q-19 0 -27.5 9.5t-6.5 26.5l36 246l-328 5l-68 -264q-8 -28 -43 -28q-34 0 -34 24q0 7 1 10l67 260h-25q-13 0 -21.5 7.5t-8.5 23.5q0 18 11.5 28.5
t32.5 10.5h29l35 138l-48 1q-17 1 -27 8t-10 20q0 16 15.5 26t34.5 10l51 -1l33 127q5 18 17.5 26.5t28.5 8.5q32 0 32 -28l-2 -12l-31 -123l299 -4l19 129q2 16 13.5 27t30.5 11q18 0 26.5 -10t6.5 -25l-20 -134h28q18 0 28.5 -7t10.5 -19q0 -19 -14.5 -29t-36.5 -10h-25z
M576 490l-306 5l-35 -138l321 -5z" />
    <glyph glyph-name="hbar" unicode="&#x127;" horiz-adv-x="572" 
d="M495 469q39 -46 39 -137q0 -80 -39 -302q-2 -13 -14 -21.5t-29 -8.5t-26 8.5t-6 25.5q20 119 29.5 186.5t9.5 111.5q0 57 -18 85.5t-61 28.5q-40 0 -77 -23t-64 -56t-40 -63q-12 -28 -21 -72t-21 -122q-4 -23 -7.5 -43.5t-6.5 -37.5q-2 -12 -15 -20t-29 -8q-17 0 -26 8
t-7 21q39 219 74 390q16 79 38 172l-45 2q-12 0 -19 7.5t-7 18.5q0 15 11.5 24.5t26.5 9.5l46 -2l23 98q9 35 44 35q32 0 32 -22q0 -6 -1 -10l-24 -103l108 -4q29 0 29 -30q0 -14 -11.5 -22t-27.5 -8l-112 4l-37 -162q70 87 171 87q71 0 110 -46z" />
    <glyph glyph-name="Itilde" unicode="&#x128;" horiz-adv-x="438" 
d="M167 772.5q-6 6.5 -6 18.5q0 13 12 25q29 29 50 41t47 12q46 0 84 -22q6 -3 17.5 -9.5t19 -9.5t14.5 -3q13 0 32 17q16 15 28 15q10 0 17 -8t7 -19q0 -14 -11 -25q-25 -20 -45 -29.5t-40 -9.5q-23 0 -55 18l-20 10q-5 2 -23 10.5t-31 8.5q-10 0 -19.5 -7t-27.5 -24
q-19 -16 -33 -16q-11 0 -17 6.5zM483 677q0 -20 -12 -32t-30 -11q-30 2 -91 4q-29 -162 -56.5 -292t-62.5 -270l112 -1q16 0 22.5 -6.5t6.5 -20.5q0 -20 -11 -32t-31 -12l-303 4q-25 1 -25 28q0 20 12 31.5t28 11.5l114 -2q70 299 116 560l-70 -4q-60 -4 -75 -4q-9 0 -15 7
t-6 22q0 19 11 29t28 13q54 9 159 9q94 0 153 -6q26 -2 26 -26z" />
    <glyph glyph-name="itilde" unicode="&#x129;" horiz-adv-x="314" 
d="M65 572.5q-6 6.5 -6 18.5q0 13 12 25q29 29 50 41t47 12q46 0 84 -22q6 -3 17.5 -9.5t19 -9.5t14.5 -3q13 0 32 17q16 15 28 15q10 0 17 -8t7 -19q0 -14 -11 -25q-25 -20 -45 -29.5t-40 -9.5q-23 0 -55 18l-20 10q-5 2 -23 10.5t-31 8.5q-10 0 -19.5 -7t-27.5 -24
q-19 -16 -33 -16q-11 0 -17 6.5zM85 14.5q-9 10.5 -6 27.5l85 426q3 18 15 28t30 10t27 -10t6 -28l-89 -427q-3 -17 -14 -27t-28 -10t-26 10.5z" />
    <glyph glyph-name="Imacron" unicode="&#x12a;" horiz-adv-x="438" 
d="M137 790q-5 6 -5 16q0 15 9 26t25 13q5 1 43.5 7.5t123.5 6.5h148q15 0 23 -9t5 -24q-6 -28 -37 -28q-18 0 -32 1l-109 1q-67 0 -146 -12q-32 -4 -34 -4q-9 0 -14 6zM483 677q0 -20 -12 -32t-30 -11q-30 2 -91 4q-29 -162 -56.5 -292t-62.5 -270l112 -1q16 0 22.5 -6.5
t6.5 -20.5q0 -20 -11 -32t-31 -12l-303 4q-25 1 -25 28q0 20 12 31.5t28 11.5l114 -2q70 299 116 560l-70 -4q-60 -4 -75 -4q-9 0 -15 7t-6 22q0 19 11 29t28 13q54 9 159 9q94 0 153 -6q26 -2 26 -26z" />
    <glyph glyph-name="imacron" unicode="&#x12b;" horiz-adv-x="314" 
d="M35 590q-5 6 -5 16q0 15 9 26t25 13q5 1 43.5 7.5t123.5 6.5h148q15 0 23 -9t5 -24q-6 -28 -37 -28q-18 0 -32 1l-109 1q-67 0 -146 -12q-32 -4 -34 -4q-9 0 -14 6zM85 14.5q-9 10.5 -6 27.5l85 426q3 18 15 28t30 10t27 -10t6 -28l-89 -427q-3 -17 -14 -27t-28 -10
t-26 10.5z" />
    <glyph glyph-name="Ibreve" unicode="&#x12c;" horiz-adv-x="438" 
d="M249.5 781q-32.5 15 -50.5 41t-18 56q0 7 2 17q4 14 12.5 22t20.5 8q11 0 19 -4.5t7 -14.5q-1 -5 -1 -14q1 -34 25 -53.5t61 -19.5t69 24.5t39 59.5q2 12 12.5 18.5t22.5 6.5t19 -8t5 -20q-6 -35 -31 -66t-62 -49.5t-78 -18.5t-73.5 15zM483 677q0 -20 -12 -32t-30 -11
q-30 2 -91 4q-29 -162 -56.5 -292t-62.5 -270l112 -1q16 0 22.5 -6.5t6.5 -20.5q0 -20 -11 -32t-31 -12l-303 4q-25 1 -25 28q0 20 12 31.5t28 11.5l114 -2q70 299 116 560l-70 -4q-60 -4 -75 -4q-9 0 -15 7t-6 22q0 19 11 29t28 13q54 9 159 9q94 0 153 -6q26 -2 26 -26z
" />
    <glyph glyph-name="ibreve" unicode="&#x12d;" horiz-adv-x="314" 
d="M147.5 581q-32.5 15 -50.5 41t-18 56q0 7 2 17q4 14 12.5 22t20.5 8q11 0 19 -4.5t7 -14.5q-1 -5 -1 -14q1 -34 25 -53.5t61 -19.5t69 24.5t39 59.5q2 12 12.5 18.5t22.5 6.5t19 -8t5 -20q-6 -35 -31 -66t-62 -49.5t-78 -18.5t-73.5 15zM85 14.5q-9 10.5 -6 27.5l85 426
q3 18 15 28t30 10t27 -10t6 -28l-89 -427q-3 -17 -14 -27t-28 -10t-26 10.5z" />
    <glyph glyph-name="Iogonek" unicode="&#x12e;" horiz-adv-x="438" 
d="M483 677q0 -20 -12 -32t-30 -11q-30 2 -91 4q-29 -162 -56.5 -292t-62.5 -270l112 -1q16 0 22.5 -6.5t6.5 -20.5q0 -27 -20 -39q-34 -24 -51 -43.5t-17 -42.5q0 -25 37 -25q7 0 19.5 3.5t15.5 3.5q6 0 10 -4.5t4 -11.5q0 -21 -14.5 -31.5t-40.5 -10.5q-38 0 -64.5 21.5
t-26.5 54.5q0 24 10.5 43.5t31.5 38.5l-239 3q-25 1 -25 28q0 20 12 31.5t28 11.5l114 -2q70 299 116 560l-70 -4q-60 -4 -75 -4q-9 0 -15 7t-6 22q0 19 11 29t28 13q54 9 159 9q94 0 153 -6q26 -2 26 -26z" />
    <glyph glyph-name="iogonek" unicode="&#x12f;" horiz-adv-x="314" 
d="M268 671q13 -12 13 -31q0 -26 -19 -45t-45 -19q-21 0 -33.5 12.5t-12.5 32.5q0 25 19 43.5t45 18.5q20 0 33 -12zM236 496q9 -10 6 -28l-89 -427q-3 -15 -10 -23q-4 -6 -10 -10q-34 -24 -51 -43.5t-17 -42.5q0 -25 37 -25q7 0 19.5 3.5t15.5 3.5q6 0 10 -4.5t4 -11.5
q0 -21 -14.5 -31.5t-40.5 -10.5q-38 0 -64.5 21.5t-26.5 54.5q0 32 18.5 56.5t55.5 50.5q-1 6 0 13l85 426q3 18 15 28t30 10t27 -10z" />
    <glyph glyph-name="Idotaccent" unicode="&#x130;" horiz-adv-x="438" 
d="M285.5 788.5q-12.5 12.5 -12.5 32.5q0 25 19 43.5t45 18.5q20 0 33 -12t13 -31q0 -26 -19 -45t-45 -19q-21 0 -33.5 12.5zM483 677q0 -20 -12 -32t-30 -11q-30 2 -91 4q-29 -162 -56.5 -292t-62.5 -270l112 -1q16 0 22.5 -6.5t6.5 -20.5q0 -20 -11 -32t-31 -12l-303 4
q-25 1 -25 28q0 20 12 31.5t28 11.5l114 -2q70 299 116 560l-70 -4q-60 -4 -75 -4q-9 0 -15 7t-6 22q0 19 11 29t28 13q54 9 159 9q94 0 153 -6q26 -2 26 -26z" />
    <glyph glyph-name="dotlessi" unicode="&#x131;" horiz-adv-x="314" 
d="M85 14.5q-9 10.5 -6 27.5l85 426q3 18 15 28t30 10t27 -10t6 -28l-89 -427q-3 -17 -14 -27t-28 -10t-26 10.5z" />
    <glyph glyph-name="IJ" unicode="&#x132;" horiz-adv-x="987" 
d="M483 677q0 -20 -12 -32t-30 -11q-30 2 -91 4q-29 -162 -56.5 -292t-62.5 -270l112 -1q16 0 22.5 -6.5t6.5 -20.5q0 -20 -11 -32t-31 -12l-303 4q-25 1 -25 28q0 20 12 31.5t28 11.5l114 -2q70 299 116 560l-70 -4q-60 -4 -75 -4q-9 0 -15 7t-6 22q0 19 11 29t28 13
q54 9 159 9q94 0 153 -6q26 -2 26 -26zM1053 675q0 -44 -44 -44h-51q-30 -159 -69 -373q-44 -258 -249 -258q-88 0 -137 49t-49 137q0 35 7 69q4 24 14 32.5t33 8.5q34 0 34 -29q0 -7 -1 -11q-8 -42 -8 -72q0 -113 102 -113q65 0 111.5 46.5t63.5 145.5q32 172 65 337l6 30
q-27 -1 -70 -1q-15 0 -24 7t-9 20q0 19 10.5 29.5t22.5 11.5q48 4 151 4q45 0 64 -1q27 -3 27 -25z" />
    <glyph glyph-name="ij" unicode="&#x133;" horiz-adv-x="642" 
d="M188.5 579.5q-14.5 13.5 -14.5 36.5q0 30 22.5 52t53.5 22q24 0 38 -13.5t14 -36.5q0 -30 -23 -52t-53 -22q-23 0 -37.5 13.5zM85 15q-9 9 -6 24l85 425q3 17 15 26t30 9t27 -9t6 -27l-85 -424q-4 -16 -16 -24.5t-29 -8.5q-18 0 -27 9zM528 581.5q-15 14.5 -15 37.5
q0 28 22 49t53 21q25 0 39.5 -14t14.5 -37q0 -30 -23.5 -50.5t-51.5 -20.5q-24 0 -39 14.5zM200 -204q-35 32 -35 91q0 30 11 44t37 14q18 0 22.5 -9t4.5 -39q0 -35 8.5 -52.5t40.5 -17.5q54 0 84 51.5t50 145.5q18 83 41.5 210t30.5 163l13 71q2 13 13 21.5t30 8.5t27 -9
t6 -23q-60 -317 -87 -442q-29 -135 -81.5 -197.5t-126.5 -62.5q-54 0 -89 32z" />
    <glyph glyph-name="Jcircumflex" unicode="&#x134;" horiz-adv-x="549" 
d="M594 776q-57 102 -74 102q-8 0 -33.5 -21.5t-74.5 -68.5q-20 -20 -35 -20q-10 0 -17.5 7.5t-7.5 18.5q0 13 14 26q14 10 32 29q48 44 78.5 67.5t50.5 23.5q26 0 46 -23t51 -72l21 -34q6 -8 6 -15q0 -13 -10.5 -23t-23.5 -10q-16 0 -23 13zM615 675q0 -44 -44 -44h-51
q-30 -159 -69 -373q-44 -258 -249 -258q-88 0 -137 49t-49 137q0 35 7 69q4 24 14 32.5t33 8.5q34 0 34 -29q0 -7 -1 -11q-8 -42 -8 -72q0 -113 102 -113q65 0 111.5 46.5t63.5 145.5q32 172 65 337l6 30q-27 -1 -70 -1q-15 0 -24 7t-9 20q0 19 10.5 29.5t22.5 11.5
q48 4 151 4q45 0 64 -1q27 -3 27 -25z" />
    <glyph glyph-name="jcircumflex" unicode="&#x135;" horiz-adv-x="307" 
d="M353 576q-57 102 -74 102q-8 0 -33.5 -21.5t-74.5 -68.5q-20 -20 -35 -20q-10 0 -17.5 7.5t-7.5 18.5q0 13 14 26q14 10 32 29q48 44 78.5 67.5t50.5 23.5q26 0 46 -23t51 -72l21 -34q6 -8 6 -15q0 -13 -10.5 -23t-23.5 -10q-16 0 -23 13zM-106 -204q-35 32 -35 91
q0 31 10 44.5t36 13.5q19 0 25 -10t4 -38q-2 -33 7 -51.5t42 -18.5q54 0 84 51.5t50 145.5q18 83 41.5 210t30.5 163l13 71q2 13 13 21.5t30 8.5t27 -9t6 -23q-60 -317 -87 -442q-29 -135 -81.5 -197.5t-126.5 -62.5q-54 0 -89 32z" />
    <glyph glyph-name="uni0136" unicode="&#x136;" horiz-adv-x="607" 
d="M286 -86q14 -14 14 -34q0 -36 -33.5 -78t-78.5 -73q-8 -7 -18 -7q-8 0 -15 6t-7 15t6 15l19 18q34 32 44 44q-15 2 -25.5 13.5t-10.5 27.5q0 27 21.5 47t48.5 20q21 0 35 -14zM654.5 685q9.5 -9 9.5 -22q0 -21 -19 -34q-97 -63 -226 -139q-54 -33 -138 -80l-69 -40
l35 -39q57 -64 106 -112q47 -47 79.5 -75.5t90.5 -76.5q10 -9 10 -23q0 -19 -14 -32t-30 -13q-11 0 -21 7q-33 24 -64 53t-74 73l-30 30q-73 72 -131 144q-23 -118 -51 -269q-3 -18 -15.5 -27.5t-30.5 -9.5q-16 0 -24.5 8t-6.5 23q12 70 37 198l28 151l22 129q8 52 26 156
q3 15 15.5 24.5t29.5 9.5q18 0 26.5 -10.5t5.5 -26.5q-5 -26 -8.5 -48.5t-6.5 -42.5q-11 -70 -24 -141q42 24 124 74l65 39q104 62 225 143q11 8 25 8t23.5 -9z" />
    <glyph glyph-name="uni0137" unicode="&#x137;" horiz-adv-x="531" 
d="M271 -86q14 -14 14 -34q0 -36 -33.5 -78t-78.5 -73q-8 -7 -18 -7q-8 0 -15 6t-7 15t6 15l19 18q34 32 44 44q-15 2 -25.5 13.5t-10.5 27.5q0 27 21.5 47t48.5 20q21 0 35 -14zM63.5 3q-9.5 8 -7.5 20l125 707q3 16 14.5 25t29.5 9t27 -8.5t6 -25.5l-65 -354l90 46
q146 74 211 110q17 9 24 9q13 0 20.5 -11.5t7.5 -25.5q0 -6 -1 -9q-2 -11 -26 -24l-340 -183l273 -222q7 -7 7 -16q0 -16 -15.5 -31t-30.5 -15t-28 11q-24 18 -100 80q-92 75 -123 99l-31 -170q-2 -13 -14 -21t-28 -8t-25.5 8z" />
    <glyph glyph-name="kgreenlandic" unicode="&#x138;" horiz-adv-x="531" 
d="M63.5 3q-9.5 8 -7.5 20l83 471q3 16 14.5 25t29.5 9t27 -8.5t6 -25.5l-23 -118l66 34q160 82 235 122q17 9 24 9q12 0 20 -11t8 -26q0 -11 -6 -18t-21 -15l-340 -183l272 -222q7 -5 7 -18q0 -15 -16 -29.5t-30 -14.5q-15 0 -28 11q-52 46 -222 179l-31 -170
q-2 -13 -14 -21t-28 -8t-25.5 8z" />
    <glyph glyph-name="Lacute" unicode="&#x139;" horiz-adv-x="526" 
d="M191 758.5q-7 6.5 -7 16.5q0 8 6 17.5t16 18.5l92 81q15 14 24.5 19.5t18.5 5.5q11 0 18.5 -7.5t7.5 -18.5q0 -21 -25 -41l-99 -81q-20 -17 -35 -17q-10 0 -17 6.5zM114 12.5q-37 13.5 -53 43t-16 78.5q0 140 135 538q5 14 17.5 22.5t29.5 8.5q12 0 21.5 -5.5t9.5 -16.5
q0 -2 -2 -10l-10 -30q-60 -175 -92.5 -293.5t-32.5 -213.5q0 -29 7.5 -43t27.5 -18.5t62 -4.5q48 0 86 5t96 15l35 6l8 1q14 0 21 -7.5t7 -19.5q0 -38 -49 -47q-71 -12 -113 -17t-92 -5q-66 0 -103 13.5z" />
    <glyph glyph-name="lacute" unicode="&#x13a;" horiz-adv-x="251" 
d="M166 850.5q-7 6.5 -7 16.5q0 8 6 17.5t16 18.5l92 81q15 14 24.5 19.5t18.5 5.5q11 0 18.5 -7.5t7.5 -18.5q0 -21 -25 -41l-99 -81q-20 -17 -35 -17q-10 0 -17 6.5zM54 18q-9 9 -6 26l119 712q3 17 16 26.5t31 9.5q15 0 24 -7.5t7 -19.5l-121 -721q-3 -17 -15 -26t-29 -9
t-26 9z" />
    <glyph glyph-name="uni013B" unicode="&#x13b;" horiz-adv-x="526" 
d="M246 -86q14 -14 14 -34q0 -36 -33.5 -78t-78.5 -73q-8 -7 -18 -7q-8 0 -15 6t-7 15t6 15l19 18q34 32 44 44q-15 2 -25.5 13.5t-10.5 27.5q0 27 21.5 47t48.5 20q21 0 35 -14zM114 12.5q-37 13.5 -53 43t-16 78.5q0 140 135 538q5 14 17.5 22.5t29.5 8.5q12 0 21.5 -5.5
t9.5 -16.5q0 -2 -2 -10l-10 -30q-60 -175 -92.5 -293.5t-32.5 -213.5q0 -29 7.5 -43t27.5 -18.5t62 -4.5q48 0 86 5t96 15l35 6l8 1q14 0 21 -7.5t7 -19.5q0 -38 -49 -47q-71 -12 -113 -17t-92 -5q-66 0 -103 13.5z" />
    <glyph glyph-name="uni013C" unicode="&#x13c;" horiz-adv-x="251" 
d="M101 -86q14 -14 14 -34q0 -36 -33.5 -78t-78.5 -73q-8 -7 -18 -7q-8 0 -15 6t-7 15t6 15l19 18q34 32 44 44q-15 2 -25.5 13.5t-10.5 27.5q0 27 21.5 47t48.5 20q21 0 35 -14zM54 18q-9 9 -6 26l119 712q3 17 16 26.5t31 9.5q15 0 24 -7.5t7 -19.5l-121 -721
q-3 -17 -15 -26t-29 -9t-26 9z" />
    <glyph glyph-name="Lcaron" unicode="&#x13d;" horiz-adv-x="526" 
d="M522.5 700q13.5 -14 13.5 -34q0 -64 -111 -151q-2 -1 -5.5 -4t-8.5 -3q-11 0 -18 7.5t-7 16.5q0 6 3.5 9.5t4.5 5.5q2 2 24.5 20t36.5 38q-15 0 -26 12.5t-11 29.5q0 27 21.5 47t48.5 20q21 0 34.5 -14zM114 12.5q-37 13.5 -53 43t-16 78.5q0 140 135 538q5 14 17.5 22.5
t29.5 8.5q12 0 21.5 -5.5t9.5 -16.5q0 -2 -2 -10l-10 -30q-60 -175 -92.5 -293.5t-32.5 -213.5q0 -29 7.5 -43t27.5 -18.5t62 -4.5q48 0 86 5t96 15l35 6l8 1q14 0 21 -7.5t7 -19.5q0 -38 -49 -47q-71 -12 -113 -17t-92 -5q-66 0 -103 13.5z" />
    <glyph glyph-name="lcaron" unicode="&#x13e;" horiz-adv-x="367" 
d="M405.5 781q13.5 -14 13.5 -34q0 -64 -111 -151q-2 -1 -5.5 -4t-8.5 -3q-11 0 -18 7.5t-7 16.5q0 6 3.5 9.5t4.5 5.5q2 2 24.5 20t36.5 38q-15 0 -26 12.5t-11 29.5q0 27 21.5 47t48.5 20q21 0 34.5 -14zM54 18q-9 9 -6 26l119 712q3 17 16 26.5t31 9.5q15 0 24 -7.5
t7 -19.5l-121 -721q-3 -17 -15 -26t-29 -9t-26 9z" />
    <glyph glyph-name="Ldot" unicode="&#x13f;" horiz-adv-x="526" 
d="M114 12.5q-37 13.5 -53 43t-16 78.5q0 140 135 538q5 14 17.5 22.5t29.5 8.5q12 0 21.5 -5.5t9.5 -16.5q0 -2 -2 -10l-10 -30q-60 -175 -92.5 -293.5t-32.5 -213.5q0 -29 7.5 -43t27.5 -18.5t62 -4.5q48 0 86 5t96 15l35 6l8 1q14 0 21 -7.5t7 -19.5q0 -38 -49 -47
q-71 -12 -113 -17t-92 -5q-66 0 -103 13.5zM268.5 281q-18.5 18 -18.5 47q0 42 26.5 68t69.5 26q30 0 48 -18t18 -48q0 -42 -26 -67.5t-68 -25.5q-31 0 -49.5 18z" />
    <glyph glyph-name="ldot" unicode="&#x140;" horiz-adv-x="368" 
d="M54 18q-9 9 -6 26l119 712q3 17 16 26.5t31 9.5q15 0 24 -7.5t7 -19.5l-121 -721q-3 -17 -15 -26t-29 -9t-26 9zM216.5 194q-18.5 18 -18.5 47q0 42 26.5 68t69.5 26q30 0 48 -18t18 -48q0 -42 -26 -67.5t-68 -25.5q-31 0 -49.5 18z" />
    <glyph glyph-name="Lslash" unicode="&#x141;" horiz-adv-x="526" 
d="M443 95q14 0 21 -7.5t7 -19.5q0 -38 -49 -47q-71 -12 -113 -17t-92 -5q-66 0 -103 13.5t-53 43t-16 78.5q0 52 15 121q-12 -3 -21 -3q-17 0 -23 9t-6 17q0 21 32 44l39 28q37 139 99 322q5 14 17.5 22.5t29.5 8.5q12 0 21.5 -5.5t9.5 -16.5q0 -2 -2 -10
q-57 -165 -84 -258l148 104q15 9 29 9q19 0 26 -12q4 -7 4 -16q0 -11 -7.5 -23t-21.5 -22l-206 -145q-23 -103 -23 -174q0 -29 7.5 -43t27.5 -18.5t62 -4.5q48 0 86 5t96 15l35 6z" />
    <glyph glyph-name="lslash" unicode="&#x142;" horiz-adv-x="311" 
d="M339.5 535.5q7.5 -8.5 7.5 -19.5q0 -24 -29 -37l-84 -43l-66 -392q-3 -17 -15 -26t-29 -9t-26 9t-6 26l58 350l-70 -36q-14 -6 -21 -6q-11 0 -18.5 7t-7.5 18q0 21 26 35l103 54l49 290q3 17 16 26.5t31 9.5q15 0 24 -7.5t7 -19.5l-43 -256l60 31q8 4 15 4
q11 0 18.5 -8.5z" />
    <glyph glyph-name="Nacute" unicode="&#x143;" horiz-adv-x="738" 
d="M408 758.5q-7 6.5 -7 16.5q0 8 6 17.5t16 18.5l92 81q15 14 24.5 19.5t18.5 5.5q11 0 18.5 -7.5t7.5 -18.5q0 -21 -25 -41l-99 -81q-20 -17 -35 -17q-10 0 -17 6.5zM728 701q8 -12 5 -28q-26 -157 -56 -313l-12 -64q-20 -112 -38.5 -173.5t-37 -86t-43.5 -24.5
q-30 0 -57.5 31.5t-58 92t-86.5 183.5q-53 118 -80.5 176.5t-47.5 92.5q-15 -80 -31 -185l-9 -58q-33 -208 -53 -303q-2 -12 -14.5 -22t-28.5 -10q-17 0 -27 9.5t-8 22.5l8 43l46 261q12 65 28 170q8 40 22 127q6 31 18.5 47t36.5 16q28 0 50.5 -23.5t45 -68.5t67.5 -144
q9 -21 17 -38.5t14 -31.5q87 -192 146 -293q9 29 18 71.5t12 58.5q6 33 15 72q16 76 66 369q3 17 15 26t30 9q20 0 28 -12z" />
    <glyph glyph-name="nacute" unicode="&#x144;" horiz-adv-x="554" 
d="M280 558.5q-7 6.5 -7 16.5q0 8 6 17.5t16 18.5l92 81q15 14 24.5 19.5t18.5 5.5q11 0 18.5 -7.5t7.5 -18.5q0 -21 -25 -41l-99 -81q-20 -17 -35 -17q-10 0 -17 6.5zM462.5 469.5q38.5 -39.5 38.5 -114.5q0 -34 -10 -96t-32 -182l-8 -45q-2 -14 -13.5 -22.5t-29.5 -8.5
t-27 8.5t-7 22.5l8 45q18 102 30.5 177.5t12.5 99.5q0 44 -16 66t-53 22q-57 0 -100.5 -43t-67.5 -109q-19 -52 -29 -116l-25 -145q-2 -14 -13 -21.5t-29 -7.5q-19 0 -27.5 8t-6.5 21q2 16 4 22q35 214 52 337q1 6 1 16q0 12 -4 24.5t-11 28.5q-2 6 -2 10q0 13 15 24t29 11
q13 0 24 -19q7 -11 14 -34t5 -34l-4 -18q25 49 68 80.5t107 31.5q68 0 106.5 -39.5z" />
    <glyph glyph-name="uni0145" unicode="&#x145;" horiz-adv-x="738" 
d="M358 -86q14 -14 14 -34q0 -36 -33.5 -78t-78.5 -73q-8 -7 -18 -7q-8 0 -15 6t-7 15t6 15l19 18q34 32 44 44q-15 2 -25.5 13.5t-10.5 27.5q0 27 21.5 47t48.5 20q21 0 35 -14zM728 701q8 -12 5 -28q-26 -157 -56 -313l-12 -64q-20 -112 -38.5 -173.5t-37 -86t-43.5 -24.5
q-30 0 -57.5 31.5t-58 92t-86.5 183.5q-53 118 -80.5 176.5t-47.5 92.5q-15 -80 -31 -185l-9 -58q-33 -208 -53 -303q-2 -12 -14.5 -22t-28.5 -10q-17 0 -27 9.5t-8 22.5l8 43l46 261q12 65 28 170q8 40 22 127q6 31 18.5 47t36.5 16q28 0 50.5 -23.5t45 -68.5t67.5 -144
q9 -21 17 -38.5t14 -31.5q87 -192 146 -293q9 29 18 71.5t12 58.5q6 33 15 72q16 76 66 369q3 17 15 26t30 9q20 0 28 -12z" />
    <glyph glyph-name="uni0146" unicode="&#x146;" horiz-adv-x="554" 
d="M265 -86q14 -14 14 -34q0 -36 -33.5 -78t-78.5 -73q-8 -7 -18 -7q-8 0 -15 6t-7 15t6 15l19 18q34 32 44 44q-15 2 -25.5 13.5t-10.5 27.5q0 27 21.5 47t48.5 20q21 0 35 -14zM462.5 469.5q38.5 -39.5 38.5 -114.5q0 -34 -10 -96t-32 -182l-8 -45q-2 -14 -13.5 -22.5
t-29.5 -8.5t-27 8.5t-7 22.5l8 45q18 102 30.5 177.5t12.5 99.5q0 44 -16 66t-53 22q-57 0 -100.5 -43t-67.5 -109q-19 -52 -29 -116l-25 -145q-2 -14 -13 -21.5t-29 -7.5q-19 0 -27.5 8t-6.5 21q2 16 4 22q35 214 52 337q1 6 1 16q0 12 -4 24.5t-11 28.5q-2 6 -2 10
q0 13 15 24t29 11q13 0 24 -19q7 -11 14 -34t5 -34l-4 -18q25 49 68 80.5t107 31.5q68 0 106.5 -39.5z" />
    <glyph glyph-name="Ncaron" unicode="&#x147;" horiz-adv-x="738" 
d="M629.5 936q6.5 -7 6.5 -17q0 -6 -3 -11.5t-6 -8t-4 -4.5q-56 -63 -93 -96t-69 -33q-19 0 -39.5 22t-54.5 66q-15 21 -25 33q-8 9 -6 22q1 11 12.5 20t22.5 9q14 0 27 -20q59 -90 76 -90q9 0 39 28.5t72 74.5q11 12 28 12q10 0 16.5 -7zM728 701q8 -12 5 -28
q-26 -157 -56 -313l-12 -64q-20 -112 -38.5 -173.5t-37 -86t-43.5 -24.5q-30 0 -57.5 31.5t-58 92t-86.5 183.5q-53 118 -80.5 176.5t-47.5 92.5q-15 -80 -31 -185l-9 -58q-33 -208 -53 -303q-2 -12 -14.5 -22t-28.5 -10q-17 0 -27 9.5t-8 22.5l8 43l46 261q12 65 28 170
q8 40 22 127q6 31 18.5 47t36.5 16q28 0 50.5 -23.5t45 -68.5t67.5 -144q9 -21 17 -38.5t14 -31.5q87 -192 146 -293q9 29 18 71.5t12 58.5q6 33 15 72q16 76 66 369q3 17 15 26t30 9q20 0 28 -12z" />
    <glyph glyph-name="ncaron" unicode="&#x148;" horiz-adv-x="554" 
d="M501.5 736q6.5 -7 6.5 -17q0 -6 -3 -11.5t-6 -8t-4 -4.5q-56 -63 -93 -96t-69 -33q-19 0 -39.5 22t-54.5 66q-15 21 -25 33q-8 9 -6 22q1 11 12.5 20t22.5 9q14 0 27 -20q59 -90 76 -90q9 0 39 28.5t72 74.5q11 12 28 12q10 0 16.5 -7zM462.5 469.5
q38.5 -39.5 38.5 -114.5q0 -34 -10 -96t-32 -182l-8 -45q-2 -14 -13.5 -22.5t-29.5 -8.5t-27 8.5t-7 22.5l8 45q18 102 30.5 177.5t12.5 99.5q0 44 -16 66t-53 22q-57 0 -100.5 -43t-67.5 -109q-19 -52 -29 -116l-25 -145q-2 -14 -13 -21.5t-29 -7.5q-19 0 -27.5 8t-6.5 21
q2 16 4 22q35 214 52 337q1 6 1 16q0 12 -4 24.5t-11 28.5q-2 6 -2 10q0 13 15 24t29 11q13 0 24 -19q7 -11 14 -34t5 -34l-4 -18q25 49 68 80.5t107 31.5q68 0 106.5 -39.5z" />
    <glyph glyph-name="napostrophe" unicode="&#x149;" horiz-adv-x="645" 
d="M198.5 711q13.5 -14 13.5 -34q0 -64 -111 -151q-2 -1 -5.5 -4t-8.5 -3q-11 0 -18 7.5t-7 16.5q0 6 3.5 9.5t4.5 5.5q2 2 24.5 20t36.5 38q-15 0 -26 12.5t-11 29.5q0 27 21.5 47t48.5 20q21 0 34.5 -14zM553.5 469.5q38.5 -39.5 38.5 -114.5q0 -34 -10 -96t-32 -182
l-8 -45q-2 -14 -13.5 -22.5t-29.5 -8.5t-27 8.5t-7 22.5l8 45q18 102 30.5 177.5t12.5 99.5q0 44 -16 66t-53 22q-57 0 -100.5 -43t-67.5 -109q-19 -52 -29 -116l-25 -145q-2 -14 -13 -21.5t-29 -7.5q-19 0 -27.5 8t-6.5 21q2 16 4 22q35 214 52 337q1 6 1 16q0 12 -4 24.5
t-11 28.5q-2 6 -2 10q0 13 15 24t29 11q13 0 24 -19q7 -11 14 -34t5 -34l-4 -18q25 49 68 80.5t107 31.5q68 0 106.5 -39.5z" />
    <glyph glyph-name="Eng" unicode="&#x14a;" horiz-adv-x="738" 
d="M728 701q8 -12 5 -28q-26 -157 -56 -313l-12 -64q-8 -44 -18 -90l-38 -209q-23 -123 -82.5 -183.5t-136.5 -60.5q-55 0 -90 30t-35 82q0 19 4 31q10 31 45 31q36 0 31 -33q-2 -12 -2 -22q0 -28 17.5 -41t42.5 -13q47 0 75.5 45.5t46.5 133.5l4 18q-26 8 -51.5 42.5
t-54.5 92.5t-79 169q-53 118 -80.5 176.5t-47.5 92.5q-15 -80 -31 -185l-9 -58q-33 -208 -53 -303q-2 -12 -14.5 -22t-28.5 -10q-17 0 -27 9.5t-8 22.5l8 43l46 261q12 65 28 170q8 40 22 127q6 31 18.5 47t36.5 16q28 0 50.5 -23.5t45 -68.5t67.5 -144q9 -21 17 -38.5
t14 -31.5q87 -192 146 -293q7 25 21 89l40 196q22 117 50 286q3 17 15 26t30 9q20 0 28 -12z" />
    <glyph glyph-name="eng" unicode="&#x14b;" horiz-adv-x="559" 
d="M502 344q0 -34 -8 -79l-17 -97l-6 -36q-16 -95 -37.5 -155.5t-63.5 -97t-112 -36.5q-18 0 -28 6.5t-10 19.5q0 18 12.5 28t32.5 10q51 0 77.5 51t43.5 159l24 144q9 47 9 81q0 50 -20.5 74t-66.5 24q-35 0 -59 -15t-45 -50.5t-43 -100.5q-19 -62 -27 -110l-6 -33
q-7 -47 -17 -101q-2 -15 -14.5 -24.5t-29.5 -9.5q-32 0 -32 27q0 6 1 9l52 366q1 6 -0.5 12.5t-5.5 17.5q-2 9 -6 20q-4 9 -3 19q2 13 14.5 21.5t29.5 8.5q12 0 17 -6.5t14 -27.5q5 -13 9 -28.5t4 -24.5q30 50 69 71.5t91 21.5q157 0 157 -159z" />
    <glyph glyph-name="Omacron" unicode="&#x14c;" horiz-adv-x="792" 
d="M306 790q-5 6 -5 16q0 15 9 26t25 13q5 1 43.5 7.5t123.5 6.5h148q15 0 23 -9t5 -24q-6 -28 -37 -28q-18 0 -32 1l-109 1q-67 0 -146 -12q-32 -4 -34 -4q-9 0 -14 6zM211 40q-67 32 -106.5 94t-39.5 148q0 115 50.5 212.5t139.5 155t199 57.5q90 0 160 -39t109.5 -108
t39.5 -156q0 -115 -51.5 -205t-144 -140.5t-209.5 -50.5q-80 0 -147 32zM529 121.5q73 42.5 114.5 116.5t41.5 166q0 69 -28 121.5t-79.5 81.5t-119.5 29q-89 0 -161 -49t-113 -130t-41 -172q0 -73 32 -119t82.5 -66.5t108.5 -20.5q90 0 163 42.5z" />
    <glyph glyph-name="omacron" unicode="&#x14d;" horiz-adv-x="593" 
d="M174 590q-5 6 -5 16q0 15 9 26t25 13q5 1 43.5 7.5t123.5 6.5h148q15 0 23 -9t5 -24q-6 -28 -37 -28q-18 0 -32 1l-109 1q-67 0 -146 -12q-32 -4 -34 -4q-9 0 -14 6zM99.5 51.5q-67.5 51.5 -67.5 162.5q0 81 37.5 150.5t105.5 111t154 41.5q68 0 121.5 -27t84 -79.5
t30.5 -127.5q0 -82 -36.5 -146t-103.5 -100.5t-155 -36.5q-103 0 -170.5 51.5zM386 90.5q49 28.5 75 79t26 113.5q0 79 -43.5 124.5t-114.5 45.5q-64 0 -113.5 -32.5t-77 -87.5t-27.5 -119q0 -81 46 -116.5t113 -35.5t116 28.5z" />
    <glyph glyph-name="Obreve" unicode="&#x14e;" horiz-adv-x="792" 
d="M418.5 781q-32.5 15 -50.5 41t-18 56q0 7 2 17q4 14 12.5 22t20.5 8q11 0 19 -4.5t7 -14.5q-1 -5 -1 -14q1 -34 25 -53.5t61 -19.5t69 24.5t39 59.5q2 12 12.5 18.5t22.5 6.5t19 -8t5 -20q-6 -35 -31 -66t-62 -49.5t-78 -18.5t-73.5 15zM211 40q-67 32 -106.5 94
t-39.5 148q0 115 50.5 212.5t139.5 155t199 57.5q90 0 160 -39t109.5 -108t39.5 -156q0 -115 -51.5 -205t-144 -140.5t-209.5 -50.5q-80 0 -147 32zM529 121.5q73 42.5 114.5 116.5t41.5 166q0 69 -28 121.5t-79.5 81.5t-119.5 29q-89 0 -161 -49t-113 -130t-41 -172
q0 -73 32 -119t82.5 -66.5t108.5 -20.5q90 0 163 42.5z" />
    <glyph glyph-name="obreve" unicode="&#x14f;" horiz-adv-x="593" 
d="M286.5 581q-32.5 15 -50.5 41t-18 56q0 7 2 17q4 14 12.5 22t20.5 8q11 0 19 -4.5t7 -14.5q-1 -5 -1 -14q1 -34 25 -53.5t61 -19.5t69 24.5t39 59.5q2 12 12.5 18.5t22.5 6.5t19 -8t5 -20q-6 -35 -31 -66t-62 -49.5t-78 -18.5t-73.5 15zM99.5 51.5
q-67.5 51.5 -67.5 162.5q0 81 37.5 150.5t105.5 111t154 41.5q68 0 121.5 -27t84 -79.5t30.5 -127.5q0 -82 -36.5 -146t-103.5 -100.5t-155 -36.5q-103 0 -170.5 51.5zM386 90.5q49 28.5 75 79t26 113.5q0 79 -43.5 124.5t-114.5 45.5q-64 0 -113.5 -32.5t-77 -87.5
t-27.5 -119q0 -81 46 -116.5t113 -35.5t116 28.5z" />
    <glyph glyph-name="Ohungarumlaut" unicode="&#x150;" horiz-adv-x="792" 
d="M349.5 763q-6.5 6 -6.5 16q0 15 19 34l88 85q24 24 41 24q11 0 17.5 -7t6.5 -18q0 -20 -23 -38l-95 -87q-18 -15 -32 -15q-9 0 -15.5 6zM500.5 763q-6.5 6 -6.5 16q0 16 20 34l87 85q24 24 42 24q11 0 17.5 -7t6.5 -18q0 -20 -24 -38l-94 -86q-17 -16 -33 -16
q-9 0 -15.5 6zM211 40q-67 32 -106.5 94t-39.5 148q0 115 50.5 212.5t139.5 155t199 57.5q90 0 160 -39t109.5 -108t39.5 -156q0 -115 -51.5 -205t-144 -140.5t-209.5 -50.5q-80 0 -147 32zM529 121.5q73 42.5 114.5 116.5t41.5 166q0 69 -28 121.5t-79.5 81.5t-119.5 29
q-89 0 -161 -49t-113 -130t-41 -172q0 -73 32 -119t82.5 -66.5t108.5 -20.5q90 0 163 42.5z" />
    <glyph glyph-name="ohungarumlaut" unicode="&#x151;" horiz-adv-x="593" 
d="M217.5 563q-6.5 6 -6.5 16q0 15 19 34l88 85q24 24 41 24q11 0 17.5 -7t6.5 -18q0 -20 -23 -38l-95 -87q-18 -15 -32 -15q-9 0 -15.5 6zM368.5 563q-6.5 6 -6.5 16q0 16 20 34l87 85q24 24 42 24q11 0 17.5 -7t6.5 -18q0 -20 -24 -38l-94 -86q-17 -16 -33 -16
q-9 0 -15.5 6zM99.5 51.5q-67.5 51.5 -67.5 162.5q0 81 37.5 150.5t105.5 111t154 41.5q68 0 121.5 -27t84 -79.5t30.5 -127.5q0 -82 -36.5 -146t-103.5 -100.5t-155 -36.5q-103 0 -170.5 51.5zM386 90.5q49 28.5 75 79t26 113.5q0 79 -43.5 124.5t-114.5 45.5
q-64 0 -113.5 -32.5t-77 -87.5t-27.5 -119q0 -81 46 -116.5t113 -35.5t116 28.5z" />
    <glyph glyph-name="OE" unicode="&#x152;" horiz-adv-x="980" 
d="M1017 665q0 -20 -11.5 -30t-25.5 -8q-37 4 -57 5t-68 1q-104 0 -132 -2q-5 -57 -16 -130q-6 -40 -20 -108l104 -1q27 -1 65 -1q30 0 30 -25q0 -16 -11 -28t-29 -12q-40 0 -65 1l-109 1q-11 -52 -25 -115t-32 -131q16 -1 27 -2t19 -2q52 -5 106 -5q25 0 53 2q37 3 58 4
q26 1 26 -21q0 -18 -9.5 -27t-24.5 -11q-16 -3 -53.5 -4.5t-69.5 -0.5l-55 2q-19 2 -161 6q-22 1 -30 5t-8 16q0 33 45 33l21 80q-32 -64 -101 -105.5t-153 -41.5q-71 0 -124.5 32.5t-83.5 96t-30 153.5q0 112 45 209t124 154.5t176 57.5q96 0 155.5 -55t68.5 -141l3 24
q5 37 7 61t3 31q-16 0 -16 20q0 37 39 38l47 2q132 3 134 3q69 0 148 -7q16 -1 16 -24zM463 129.5q61 52.5 93.5 133.5t32.5 165q0 101 -48 161.5t-130 60.5q-74 0 -134.5 -49t-95 -130.5t-34.5 -173.5q0 -110 48.5 -165t127.5 -55t140 52.5z" />
    <glyph glyph-name="oe" unicode="&#x153;" horiz-adv-x="1044" 
d="M889 489.5q49 -24.5 77 -65t28 -87.5q0 -9 -2 -27q-5 -31 -18 -46t-43 -16l-373 -8q-3 -16 -3 -29q0 -37 19 -71.5t54 -56t82 -21.5q56 0 92.5 21t58.5 42t28 27q15 14 29 14q10 0 18 -8.5t8 -19.5t-9 -22q-49 -58 -103 -87.5t-122 -29.5q-75 0 -130.5 37t-74.5 95
q-35 -63 -99.5 -97.5t-144.5 -34.5q-59 0 -111.5 23.5t-85.5 69.5t-33 109q0 93 37 164.5t106 111t162 39.5q46 0 89.5 -18t74.5 -51t42 -75q37 63 99 102.5t139 39.5q60 0 109 -24.5zM427 126.5q59 64.5 59 171.5q0 72 -41.5 113.5t-108.5 41.5t-118.5 -34.5t-80 -92.5
t-28.5 -125q0 -68 44.5 -103.5t107.5 -35.5q107 0 166 64.5zM689 429.5q-43 -21.5 -74 -57t-43 -75.5l349 8q2 18 2 28q0 50 -40.5 84t-104.5 34q-46 0 -89 -21.5z" />
    <glyph glyph-name="Racute" unicode="&#x154;" horiz-adv-x="641" 
d="M356 758.5q-7 6.5 -7 16.5q0 8 6 17.5t16 18.5l92 81q15 14 24.5 19.5t18.5 5.5q11 0 18.5 -7.5t7.5 -18.5q0 -21 -25 -41l-99 -81q-20 -17 -35 -17q-10 0 -17 6.5zM585.5 388.5q-44.5 -51.5 -117.5 -78.5t-158 -27q-57 0 -106 13l319 -210q15 -10 15 -24
q0 -18 -12.5 -33.5t-32.5 -15.5q-8 0 -17 3.5t-14 7.5l-296 211l-9 -48l-27 -157q-3 -17 -14.5 -26t-28.5 -9t-25.5 9.5t-8.5 22.5q0 6 1 9q18 89 30.5 161.5t29.5 177.5q19 118 29 187q-6 -2 -9 -2q-13 0 -16 9t-3 26q0 14 7 22.5t25 17.5l7 3l3 21q3 23 14 33t31 10
q37 0 33 -28v-2q41 16 75 22t71 6q75 0 131.5 -23.5t87 -66t30.5 -99.5q0 -71 -44.5 -122.5zM308 620.5q-37 -8.5 -84 -26.5q-18 -136 -34 -228q51 -15 124 -15q99 0 164.5 41.5t65.5 118.5q0 54 -44 86t-119 32q-36 0 -73 -8.5z" />
    <glyph glyph-name="racute" unicode="&#x155;" horiz-adv-x="502" 
d="M268 558.5q-7 6.5 -7 16.5q0 8 6 17.5t16 18.5l92 81q15 14 24.5 19.5t18.5 5.5q11 0 18.5 -7.5t7.5 -18.5q0 -21 -25 -41l-99 -81q-20 -17 -35 -17q-10 0 -17 6.5zM435 480.5q34 -33.5 34 -86.5q0 -66 -40.5 -101.5t-101.5 -35.5q-18 0 -25.5 4.5t-7.5 15.5q0 33 31 35
q39 4 58.5 25t19.5 57q0 25 -14 41t-46 16q-40 0 -76 -34t-61.5 -84.5t-37.5 -99.5q-15 -65 -37 -174q-7 -41 -16.5 -54t-31.5 -13q-19 0 -26 7t-7 21q0 4 2 18l33 192q12 67 18 125.5t11 138.5q1 15 13 24t30 9q30 0 28 -30q-5 -54 -14 -117q27 64 71 99t101 35
q58 0 92 -33.5z" />
    <glyph glyph-name="uni0156" unicode="&#x156;" horiz-adv-x="641" 
d="M306 -86q14 -14 14 -34q0 -36 -33.5 -78t-78.5 -73q-8 -7 -18 -7q-8 0 -15 6t-7 15t6 15l19 18q34 32 44 44q-15 2 -25.5 13.5t-10.5 27.5q0 27 21.5 47t48.5 20q21 0 35 -14zM585.5 388.5q-44.5 -51.5 -117.5 -78.5t-158 -27q-57 0 -106 13l319 -210q15 -10 15 -24
q0 -18 -12.5 -33.5t-32.5 -15.5q-8 0 -17 3.5t-14 7.5l-296 211l-9 -48l-27 -157q-3 -17 -14.5 -26t-28.5 -9t-25.5 9.5t-8.5 22.5q0 6 1 9q18 89 30.5 161.5t29.5 177.5q19 118 29 187q-6 -2 -9 -2q-13 0 -16 9t-3 26q0 14 7 22.5t25 17.5l7 3l3 21q3 23 14 33t31 10
q37 0 33 -28v-2q41 16 75 22t71 6q75 0 131.5 -23.5t87 -66t30.5 -99.5q0 -71 -44.5 -122.5zM308 620.5q-37 -8.5 -84 -26.5q-18 -136 -34 -228q51 -15 124 -15q99 0 164.5 41.5t65.5 118.5q0 54 -44 86t-119 32q-36 0 -73 -8.5z" />
    <glyph glyph-name="uni0157" unicode="&#x157;" horiz-adv-x="502" 
d="M108 -86q14 -14 14 -34q0 -36 -33.5 -78t-78.5 -73q-8 -7 -18 -7q-8 0 -15 6t-7 15t6 15l19 18q34 32 44 44q-15 2 -25.5 13.5t-10.5 27.5q0 27 21.5 47t48.5 20q21 0 35 -14zM435 480.5q34 -33.5 34 -86.5q0 -66 -40.5 -101.5t-101.5 -35.5q-18 0 -25.5 4.5t-7.5 15.5
q0 33 31 35q39 4 58.5 25t19.5 57q0 25 -14 41t-46 16q-40 0 -76 -34t-61.5 -84.5t-37.5 -99.5q-15 -65 -37 -174q-7 -41 -16.5 -54t-31.5 -13q-19 0 -26 7t-7 21q0 4 2 18l33 192q12 67 18 125.5t11 138.5q1 15 13 24t30 9q30 0 28 -30q-5 -54 -14 -117q27 64 71 99t101 35
q58 0 92 -33.5z" />
    <glyph glyph-name="Rcaron" unicode="&#x158;" horiz-adv-x="641" 
d="M577.5 936q6.5 -7 6.5 -17q0 -6 -3 -11.5t-6 -8t-4 -4.5q-56 -63 -93 -96t-69 -33q-19 0 -39.5 22t-54.5 66q-15 21 -25 33q-8 9 -6 22q1 11 12.5 20t22.5 9q14 0 27 -20q59 -90 76 -90q9 0 39 28.5t72 74.5q11 12 28 12q10 0 16.5 -7zM585.5 388.5
q-44.5 -51.5 -117.5 -78.5t-158 -27q-57 0 -106 13l319 -210q15 -10 15 -24q0 -18 -12.5 -33.5t-32.5 -15.5q-8 0 -17 3.5t-14 7.5l-296 211l-9 -48l-27 -157q-3 -17 -14.5 -26t-28.5 -9t-25.5 9.5t-8.5 22.5q0 6 1 9q18 89 30.5 161.5t29.5 177.5q19 118 29 187
q-6 -2 -9 -2q-13 0 -16 9t-3 26q0 14 7 22.5t25 17.5l7 3l3 21q3 23 14 33t31 10q37 0 33 -28v-2q41 16 75 22t71 6q75 0 131.5 -23.5t87 -66t30.5 -99.5q0 -71 -44.5 -122.5zM308 620.5q-37 -8.5 -84 -26.5q-18 -136 -34 -228q51 -15 124 -15q99 0 164.5 41.5t65.5 118.5
q0 54 -44 86t-119 32q-36 0 -73 -8.5z" />
    <glyph glyph-name="rcaron" unicode="&#x159;" horiz-adv-x="502" 
d="M489.5 736q6.5 -7 6.5 -17q0 -6 -3 -11.5t-6 -8t-4 -4.5q-56 -63 -93 -96t-69 -33q-19 0 -39.5 22t-54.5 66q-15 21 -25 33q-8 9 -6 22q1 11 12.5 20t22.5 9q14 0 27 -20q59 -90 76 -90q9 0 39 28.5t72 74.5q11 12 28 12q10 0 16.5 -7zM435 480.5q34 -33.5 34 -86.5
q0 -66 -40.5 -101.5t-101.5 -35.5q-18 0 -25.5 4.5t-7.5 15.5q0 33 31 35q39 4 58.5 25t19.5 57q0 25 -14 41t-46 16q-40 0 -76 -34t-61.5 -84.5t-37.5 -99.5q-15 -65 -37 -174q-7 -41 -16.5 -54t-31.5 -13q-19 0 -26 7t-7 21q0 4 2 18l33 192q12 67 18 125.5t11 138.5
q1 15 13 24t30 9q30 0 28 -30q-5 -54 -14 -117q27 64 71 99t101 35q58 0 92 -33.5z" />
    <glyph glyph-name="Sacute" unicode="&#x15a;" horiz-adv-x="563" 
d="M322 758.5q-7 6.5 -7 16.5q0 8 6 17.5t16 18.5l92 81q15 14 24.5 19.5t18.5 5.5q11 0 18.5 -7.5t7.5 -18.5q0 -21 -25 -41l-99 -81q-20 -17 -35 -17q-10 0 -17 6.5zM110 52.5q-56 51.5 -56 140.5q0 35 10.5 48.5t35.5 13.5q24 0 29.5 -11.5t5.5 -46.5q1 -66 35.5 -96
t92.5 -30q68 0 113 36t45 92q0 33 -17 54t-45 34t-79 30q-47 15 -83 33.5t-64 54t-28 90.5q0 59 33.5 107.5t90 76.5t122.5 28q58 0 103.5 -22t71 -60.5t25.5 -87.5q0 -36 -12.5 -48.5t-34.5 -12.5q-20 0 -26.5 7t-6.5 21l1 21q0 47 -31 79.5t-90 32.5q-45 0 -84 -20
t-61.5 -53t-22.5 -70q0 -31 16 -50t40 -30t65 -24l26 -9q70 -24 119 -65t49 -121q0 -58 -30 -102t-83 -68t-120 -24q-99 0 -155 51.5z" />
    <glyph glyph-name="sacute" unicode="&#x15b;" horiz-adv-x="486" 
d="M97 29.5q-48 34.5 -65 84.5q-4 12 -4 19q3 14 17.5 24.5t29.5 10.5q9 0 14 -5.5t12 -19.5q17 -34 45.5 -58.5t70.5 -24.5q47 0 79 24.5t32 59.5q0 28 -24 44t-75 35q-46 18 -74.5 33.5t-49 42.5t-20.5 67q0 44 23 79t66.5 55.5t101.5 20.5q71 0 116.5 -37t45.5 -99
q0 -28 -8 -38t-31 -10q-16 0 -24 8t-7 20q3 47 -21.5 69t-70.5 22q-61 0 -87.5 -26t-26.5 -64q0 -28 25.5 -45.5t76.5 -37.5q45 -18 73.5 -34t48.5 -41.5t20 -63.5q0 -72 -54.5 -110.5t-137.5 -38.5q-69 0 -117 34.5zM238 568q-6 6 -7 15q0 16 15 31l106 106q13 13 22 18
t20 5q12 0 19.5 -7t7.5 -18t-6.5 -21.5t-20.5 -23.5l-105 -94q-10 -10 -18 -13.5t-17 -3.5q-10 0 -16 6z" />
    <glyph glyph-name="Scircumflex" unicode="&#x15c;" horiz-adv-x="563" 
d="M477 776q-57 102 -74 102q-8 0 -33.5 -21.5t-74.5 -68.5q-20 -20 -35 -20q-10 0 -17.5 7.5t-7.5 18.5q0 13 14 26q14 10 32 29q48 44 78.5 67.5t50.5 23.5q26 0 46 -23t51 -72l21 -34q6 -8 6 -15q0 -13 -10.5 -23t-23.5 -10q-16 0 -23 13zM110 52.5q-56 51.5 -56 140.5
q0 35 10.5 48.5t35.5 13.5q24 0 29.5 -11.5t5.5 -46.5q1 -66 35.5 -96t92.5 -30q68 0 113 36t45 92q0 33 -17 54t-45 34t-79 30q-47 15 -83 33.5t-64 54t-28 90.5q0 59 33.5 107.5t90 76.5t122.5 28q58 0 103.5 -22t71 -60.5t25.5 -87.5q0 -36 -12.5 -48.5t-34.5 -12.5
q-20 0 -26.5 7t-6.5 21l1 21q0 47 -31 79.5t-90 32.5q-45 0 -84 -20t-61.5 -53t-22.5 -70q0 -31 16 -50t40 -30t65 -24l26 -9q70 -24 119 -65t49 -121q0 -58 -30 -102t-83 -68t-120 -24q-99 0 -155 51.5z" />
    <glyph glyph-name="scircumflex" unicode="&#x15d;" horiz-adv-x="486" 
d="M398 576q-57 102 -74 102q-8 0 -33.5 -21.5t-74.5 -68.5q-20 -20 -35 -20q-10 0 -17.5 7.5t-7.5 18.5q0 13 14 26q14 10 32 29q48 44 78.5 67.5t50.5 23.5q26 0 46 -23t51 -72l21 -34q6 -8 6 -15q0 -13 -10.5 -23t-23.5 -10q-16 0 -23 13zM97 29.5q-48 34.5 -65 84.5
q-4 12 -4 19q3 14 17.5 24.5t29.5 10.5q9 0 14 -5.5t12 -19.5q17 -34 45.5 -58.5t70.5 -24.5q47 0 79 24.5t32 59.5q0 28 -24 44t-75 35q-46 18 -74.5 33.5t-49 42.5t-20.5 67q0 44 23 79t66.5 55.5t101.5 20.5q71 0 116.5 -37t45.5 -99q0 -28 -8 -38t-31 -10q-16 0 -24 8
t-7 20q3 47 -21.5 69t-70.5 22q-61 0 -87.5 -26t-26.5 -64q0 -28 25.5 -45.5t76.5 -37.5q45 -18 73.5 -34t48.5 -41.5t20 -63.5q0 -72 -54.5 -110.5t-137.5 -38.5q-69 0 -117 34.5z" />
    <glyph glyph-name="Scedilla" unicode="&#x15e;" horiz-adv-x="563" 
d="M454.5 685q45.5 -22 71 -60.5t25.5 -87.5q0 -36 -12.5 -48.5t-34.5 -12.5q-20 0 -26.5 7t-6.5 21l1 21q0 47 -31 79.5t-90 32.5q-45 0 -84 -20t-61.5 -53t-22.5 -70q0 -31 16 -50t40 -30t65 -24l26 -9q70 -24 119 -65t49 -121q0 -76 -50 -127t-133 -63l-1 -2l-46 -57
q33 -8 53 -28.5t20 -53.5q0 -44 -37.5 -65.5t-101.5 -21.5q-19 0 -44 4.5t-40 9.5q-16 6 -16 25q0 14 10 24t24 10q4 -1 27 -7t41 -6q36 0 53.5 5t17.5 26q0 15 -11.5 20t-30.5 8.5t-26 4.5q-12 1 -19 7t-7 15q0 6 3 12l55 67q-87 7 -136 57.5t-49 133.5q0 35 10.5 48.5
t35.5 13.5q24 0 29.5 -11.5t5.5 -46.5q1 -66 35.5 -96t92.5 -30q68 0 113 36t45 92q0 33 -17 54t-45 34t-79 30q-47 15 -83 33.5t-64 54t-28 90.5q0 59 33.5 107.5t90 76.5t122.5 28q58 0 103.5 -22z" />
    <glyph glyph-name="scedilla" unicode="&#x15f;" horiz-adv-x="486" 
d="M392.5 484q45.5 -37 45.5 -99q0 -28 -8 -38t-31 -10q-16 0 -24 8t-7 20q3 47 -21.5 69t-70.5 22q-61 0 -87.5 -26t-26.5 -64q0 -28 25.5 -45.5t76.5 -37.5q45 -18 73.5 -34t48.5 -41.5t20 -63.5q0 -66 -47 -104t-122 -44l-46 -56q31 -10 53 -29.5t22 -46.5
q0 -51 -37 -81.5t-96 -30.5q-20 0 -47.5 4.5t-42.5 10.5q-16 6 -16 25q0 14 9.5 23.5t22.5 9.5q6 0 28 -6q2 -1 15.5 -5t27.5 -4q28 0 47 10.5t23 32.5q4 19 -14.5 29.5t-59.5 15.5q-8 1 -14 6.5t-6 13.5q0 9 7 17l54 65q-51 11 -86.5 42.5t-48.5 71.5q-4 12 -4 19
q3 14 17.5 24.5t29.5 10.5q9 0 14 -5.5t12 -19.5q17 -34 45.5 -58.5t70.5 -24.5q47 0 79 24.5t32 59.5q0 28 -24 44t-75 35q-46 18 -74.5 33.5t-49 42.5t-20.5 67q0 44 23 79t66.5 55.5t101.5 20.5q71 0 116.5 -37z" />
    <glyph glyph-name="Scaron" unicode="&#x160;" horiz-adv-x="563" 
d="M543.5 936q6.5 -7 6.5 -17q0 -6 -3 -11.5t-6 -8t-4 -4.5q-56 -63 -93 -96t-69 -33q-19 0 -39.5 22t-54.5 66q-15 21 -25 33q-8 9 -6 22q1 11 12.5 20t22.5 9q14 0 27 -20q59 -90 76 -90q9 0 39 28.5t72 74.5q11 12 28 12q10 0 16.5 -7zM110 52.5q-56 51.5 -56 140.5
q0 35 10.5 48.5t35.5 13.5q24 0 29.5 -11.5t5.5 -46.5q1 -66 35.5 -96t92.5 -30q68 0 113 36t45 92q0 33 -17 54t-45 34t-79 30q-47 15 -83 33.5t-64 54t-28 90.5q0 59 33.5 107.5t90 76.5t122.5 28q58 0 103.5 -22t71 -60.5t25.5 -87.5q0 -36 -12.5 -48.5t-34.5 -12.5
q-20 0 -26.5 7t-6.5 21l1 21q0 47 -31 79.5t-90 32.5q-45 0 -84 -20t-61.5 -53t-22.5 -70q0 -31 16 -50t40 -30t65 -24l26 -9q70 -24 119 -65t49 -121q0 -58 -30 -102t-83 -68t-120 -24q-99 0 -155 51.5z" />
    <glyph glyph-name="scaron" unicode="&#x161;" horiz-adv-x="486" 
d="M464.5 736q6.5 -7 6.5 -17q0 -6 -3 -11.5t-6 -8t-4 -4.5q-56 -63 -93 -96t-69 -33q-19 0 -39.5 22t-54.5 66q-15 21 -25 33q-8 9 -6 22q1 11 12.5 20t22.5 9q14 0 27 -20q59 -90 76 -90q9 0 39 28.5t72 74.5q11 12 28 12q10 0 16.5 -7zM97 29.5q-48 34.5 -65 84.5
q-4 12 -4 19q3 14 17.5 24.5t29.5 10.5q9 0 14 -5.5t12 -19.5q17 -34 45.5 -58.5t70.5 -24.5q47 0 79 24.5t32 59.5q0 28 -24 44t-75 35q-46 18 -74.5 33.5t-49 42.5t-20.5 67q0 44 23 79t66.5 55.5t101.5 20.5q71 0 116.5 -37t45.5 -99q0 -28 -8 -38t-31 -10q-16 0 -24 8
t-7 20q3 47 -21.5 69t-70.5 22q-61 0 -87.5 -26t-26.5 -64q0 -28 25.5 -45.5t76.5 -37.5q45 -18 73.5 -34t48.5 -41.5t20 -63.5q0 -72 -54.5 -110.5t-137.5 -38.5q-69 0 -117 34.5z" />
    <glyph glyph-name="uni0162" unicode="&#x162;" horiz-adv-x="557" 
d="M588 681q8 -6 8 -21q0 -19 -12.5 -31.5t-32.5 -11.5q-94 7 -162 8q-28 -113 -65 -290q-42 -198 -60 -303q-1 -9 -5 -18l-1 -2l-5 -7l-1 -2l-46 -57q33 -8 53 -28.5t20 -53.5q0 -44 -37.5 -65.5t-101.5 -21.5q-19 0 -44 4.5t-40 9.5q-16 6 -16 25q0 14 10 24t24 10
q4 -1 27 -7t41 -6q36 0 53.5 5t17.5 26q0 15 -11.5 20t-30.5 8.5t-26 4.5q-12 1 -19 7t-7 15q0 6 3 12l60 73q-1 3 -1 11q0 12 3 27q21 104 62 288l66 291q-81 -2 -171 -11q-33 -3 -33 29q0 18 10 28.5t27 12.5q61 6 107 9t112 3q52 0 115 -2t87 -5q14 -2 22 -8z" />
    <glyph glyph-name="uni0163" unicode="&#x163;" horiz-adv-x="440" 
d="M260 -1l-49 -59q31 -10 53 -29.5t22 -46.5q0 -51 -37 -81.5t-96 -30.5q-20 0 -47.5 4.5t-42.5 10.5q-16 6 -16 25q0 14 9.5 23.5t22.5 9.5q6 0 28 -6q2 -1 15.5 -5t27.5 -4q28 0 47 10.5t23 32.5q4 19 -14.5 29.5t-59.5 15.5q-8 1 -14 6.5t-6 13.5q0 9 7 17l61 74
q-35 14 -54 50.5t-19 91.5q0 74 40 239q-23 1 -64 5q-29 2 -25 33q4 16 13 23t24 7q11 0 69 -4q10 39 19.5 70.5t16.5 57.5l17 58q9 30 43 30q16 0 25.5 -7.5t9.5 -18.5q0 -3 -2 -9q-36 -110 -56 -185q46 -2 71 -2q18 0 26 -4t8 -14q0 -24 -11 -33t-32 -9h-79
q-39 -149 -39 -238q0 -41 11 -63.5t37 -22.5q24 0 43 16.5t19 48.5q0 14 10 24t29 10q27 0 27 -26q0 -49 -31 -88.5t-78 -46.5z" />
    <glyph glyph-name="Tcaron" unicode="&#x164;" horiz-adv-x="557" 
d="M526.5 936q6.5 -7 6.5 -17q0 -6 -3 -11.5t-6 -8t-4 -4.5q-56 -63 -93 -96t-69 -33q-19 0 -39.5 22t-54.5 66q-15 21 -25 33q-8 9 -6 22q1 11 12.5 20t22.5 9q14 0 27 -20q59 -90 76 -90q9 0 39 28.5t72 74.5q11 12 28 12q10 0 16.5 -7zM588 681q8 -6 8 -21
q0 -19 -12.5 -31.5t-32.5 -11.5q-94 7 -162 8q-28 -113 -65 -290q-42 -198 -60 -303q-4 -21 -15 -31.5t-34 -10.5q-18 0 -26 7.5t-8 22.5q0 11 3 26q21 104 62 288l66 291q-81 -2 -171 -11q-33 -3 -33 29q0 18 10 28.5t27 12.5q61 6 107 9t112 3q52 0 115 -2t87 -5
q14 -2 22 -8z" />
    <glyph glyph-name="tcaron" unicode="&#x165;" horiz-adv-x="458" 
d="M500.5 653q13.5 -14 13.5 -34q0 -64 -111 -151q-2 -1 -5.5 -4t-8.5 -3q-11 0 -18 7.5t-7 16.5q0 6 3.5 9.5t4.5 5.5q2 2 24.5 20t36.5 38q-15 0 -26 12.5t-11 29.5q0 27 21.5 47t48.5 20q21 0 34.5 -14zM371 137q0 -35 -17 -67t-46.5 -51t-64.5 -19q-58 0 -90 39.5
t-32 111.5q0 74 40 239q-23 1 -64 5q-29 2 -25 33q4 16 13 23t24 7q11 0 69 -4q10 39 19.5 70.5t16.5 57.5l17 58q9 30 43 30q16 0 25.5 -7.5t9.5 -18.5q0 -3 -2 -9q-36 -110 -56 -185q46 -2 71 -2q18 0 26 -4t8 -14q0 -24 -11 -33t-32 -9h-79q-39 -149 -39 -238
q0 -41 11 -63.5t37 -22.5q24 0 43 16.5t19 48.5q0 14 10 24t29 10q27 0 27 -26z" />
    <glyph glyph-name="Tbar" unicode="&#x166;" horiz-adv-x="557" 
d="M588 681q8 -6 8 -21q0 -19 -12.5 -31.5t-32.5 -11.5q-94 7 -162 8q-21 -81 -42 -184l100 -3q29 -2 29 -24q0 -18 -11 -28t-28 -10l-103 4q-2 -8 -4.5 -19t-5.5 -26q-42 -198 -60 -303q-4 -21 -15 -31.5t-34 -10.5q-18 0 -26 7.5t-8 22.5q0 11 3 26q21 104 62 288
q14 57 11 48l-101 4q-12 0 -19 7t-7 18q0 16 12 25.5t27 9.5l102 -3l41 182q-81 -2 -171 -11q-33 -3 -33 29q0 18 10 28.5t27 12.5q61 6 107 9t112 3q52 0 115 -2t87 -5q14 -2 22 -8z" />
    <glyph glyph-name="tbar" unicode="&#x167;" horiz-adv-x="451" 
d="M377 163.5q6 -6.5 6 -23.5q0 -31 -16 -62t-46 -51t-69 -20q-53 0 -85.5 42.5t-32.5 113.5q0 41 11 109l-61 2q-28 1 -28 21q0 5 1 8q3 15 12.5 21.5t28.5 5.5l57 -2q13 67 25 115l-74 4q-14 1 -20 5.5t-6 16.5q0 17 11 26t30 7q14 -1 23 -2t14 -2l34 -3q38 147 63 205
q6 15 15 22.5t27 7.5q31 0 31 -22q0 -3 -2 -13q-26 -84 -59 -202q18 -1 69 -1q17 0 22.5 -5.5t5.5 -16.5q0 -19 -11.5 -25t-44.5 -6q-32 0 -55 1q-14 -53 -27 -115l85 -3q18 -1 24 -7.5t4 -20.5q-3 -15 -12.5 -22t-28.5 -6l-82 3q-11 -63 -11 -106q0 -92 51 -92q46 0 63 68
q4 17 10.5 24t25.5 7q16 0 22 -6.5z" />
    <glyph glyph-name="Utilde" unicode="&#x168;" horiz-adv-x="667" 
d="M274 772.5q-6 6.5 -6 18.5q0 13 12 25q29 29 50 41t47 12q46 0 84 -22q6 -3 17.5 -9.5t19 -9.5t14.5 -3q13 0 32 17q16 15 28 15q10 0 17 -8t7 -19q0 -14 -11 -25q-25 -20 -45 -29.5t-40 -9.5q-23 0 -55 18l-20 10q-5 2 -23 10.5t-31 8.5q-10 0 -19.5 -7t-27.5 -24
q-19 -16 -33 -16q-11 0 -17 6.5zM655 700q9 -8 9 -21q0 -5 -1 -8q-23 -127 -43 -255q-17 -112 -64 -385q-6 -33 -43 -33q-33 0 -33 28q0 8 1 12l13 76q-35 -50 -92.5 -81t-128.5 -31q-68 0 -114 28.5t-68 73.5t-22 95q0 33 16 119t53 267l17 84q6 33 43 33q16 0 25 -6.5
t9 -19.5q0 -5 -1 -8q-44 -204 -63 -310t-19 -159q0 -58 31.5 -92t92.5 -34q58 0 112 31t90.5 79.5t46.5 98.5q14 73 33.5 187.5t32.5 203.5q5 35 41 35q17 0 26 -8z" />
    <glyph glyph-name="utilde" unicode="&#x169;" horiz-adv-x="547" 
d="M168 572.5q-6 6.5 -6 18.5q0 13 12 25q29 29 50 41t47 12q46 0 84 -22q6 -3 17.5 -9.5t19 -9.5t14.5 -3q13 0 32 17q16 15 28 15q10 0 17 -8t7 -19q0 -14 -11 -25q-25 -20 -45 -29.5t-40 -9.5q-23 0 -55 18l-20 10q-5 2 -23 10.5t-31 8.5q-10 0 -19.5 -7t-27.5 -24
q-19 -16 -33 -16q-11 0 -17 6.5zM436 110q-2 -14 -2 -19q0 -18 6 -32.5t6 -18.5q0 -11 -13.5 -22t-24.5 -11q-21 0 -35 19.5t-14 41.5v8q-29 -37 -73 -56.5t-94 -19.5q-137 0 -137 150q0 28 10.5 91t22.5 129q16 83 19 104q2 13 14 21t28 8q17 0 26.5 -8t7.5 -21
q-6 -35 -11.5 -64.5t-9.5 -53.5q-11 -61 -20.5 -118.5t-9.5 -81.5q0 -47 19.5 -70t59.5 -23q134 0 178 245l30 167q3 16 14.5 25t28.5 9q18 0 27 -9t7 -25z" />
    <glyph glyph-name="Umacron" unicode="&#x16a;" horiz-adv-x="667" 
d="M244 790q-5 6 -5 16q0 15 9 26t25 13q5 1 43.5 7.5t123.5 6.5h148q15 0 23 -9t5 -24q-6 -28 -37 -28q-18 0 -32 1l-109 1q-67 0 -146 -12q-32 -4 -34 -4q-9 0 -14 6zM655 700q9 -8 9 -21q0 -5 -1 -8q-23 -127 -43 -255q-17 -112 -64 -385q-6 -33 -43 -33q-33 0 -33 28
q0 8 1 12l13 76q-35 -50 -92.5 -81t-128.5 -31q-68 0 -114 28.5t-68 73.5t-22 95q0 33 16 119t53 267l17 84q6 33 43 33q16 0 25 -6.5t9 -19.5q0 -5 -1 -8q-44 -204 -63 -310t-19 -159q0 -58 31.5 -92t92.5 -34q58 0 112 31t90.5 79.5t46.5 98.5q14 73 33.5 187.5
t32.5 203.5q5 35 41 35q17 0 26 -8z" />
    <glyph glyph-name="umacron" unicode="&#x16b;" horiz-adv-x="547" 
d="M138 590q-5 6 -5 16q0 15 9 26t25 13q5 1 43.5 7.5t123.5 6.5h148q15 0 23 -9t5 -24q-6 -28 -37 -28q-18 0 -32 1l-109 1q-67 0 -146 -12q-32 -4 -34 -4q-9 0 -14 6zM436 110q-2 -14 -2 -19q0 -18 6 -32.5t6 -18.5q0 -11 -13.5 -22t-24.5 -11q-21 0 -35 19.5t-14 41.5v8
q-29 -37 -73 -56.5t-94 -19.5q-137 0 -137 150q0 28 10.5 91t22.5 129q16 83 19 104q2 13 14 21t28 8q17 0 26.5 -8t7.5 -21q-6 -35 -11.5 -64.5t-9.5 -53.5q-11 -61 -20.5 -118.5t-9.5 -81.5q0 -47 19.5 -70t59.5 -23q134 0 178 245l30 167q3 16 14.5 25t28.5 9q18 0 27 -9
t7 -25z" />
    <glyph glyph-name="Ubreve" unicode="&#x16c;" horiz-adv-x="667" 
d="M356.5 781q-32.5 15 -50.5 41t-18 56q0 7 2 17q4 14 12.5 22t20.5 8q11 0 19 -4.5t7 -14.5q-1 -5 -1 -14q1 -34 25 -53.5t61 -19.5t69 24.5t39 59.5q2 12 12.5 18.5t22.5 6.5t19 -8t5 -20q-6 -35 -31 -66t-62 -49.5t-78 -18.5t-73.5 15zM655 700q9 -8 9 -21q0 -5 -1 -8
q-23 -127 -43 -255q-17 -112 -64 -385q-6 -33 -43 -33q-33 0 -33 28q0 8 1 12l13 76q-35 -50 -92.5 -81t-128.5 -31q-68 0 -114 28.5t-68 73.5t-22 95q0 33 16 119t53 267l17 84q6 33 43 33q16 0 25 -6.5t9 -19.5q0 -5 -1 -8q-44 -204 -63 -310t-19 -159q0 -58 31.5 -92
t92.5 -34q58 0 112 31t90.5 79.5t46.5 98.5q14 73 33.5 187.5t32.5 203.5q5 35 41 35q17 0 26 -8z" />
    <glyph glyph-name="ubreve" unicode="&#x16d;" horiz-adv-x="547" 
d="M250.5 581q-32.5 15 -50.5 41t-18 56q0 7 2 17q4 14 12.5 22t20.5 8q11 0 19 -4.5t7 -14.5q-1 -5 -1 -14q1 -34 25 -53.5t61 -19.5t69 24.5t39 59.5q2 12 12.5 18.5t22.5 6.5t19 -8t5 -20q-6 -35 -31 -66t-62 -49.5t-78 -18.5t-73.5 15zM436 110q-2 -14 -2 -19
q0 -18 6 -32.5t6 -18.5q0 -11 -13.5 -22t-24.5 -11q-21 0 -35 19.5t-14 41.5v8q-29 -37 -73 -56.5t-94 -19.5q-137 0 -137 150q0 28 10.5 91t22.5 129q16 83 19 104q2 13 14 21t28 8q17 0 26.5 -8t7.5 -21q-6 -35 -11.5 -64.5t-9.5 -53.5q-11 -61 -20.5 -118.5t-9.5 -81.5
q0 -47 19.5 -70t59.5 -23q134 0 178 245l30 167q3 16 14.5 25t28.5 9q18 0 27 -9t7 -25z" />
    <glyph glyph-name="Uring" unicode="&#x16e;" horiz-adv-x="667" 
d="M356.5 764q-27.5 27 -27.5 66q0 33 17 61t47 44.5t65 16.5q39 0 65 -28t26 -65q0 -51 -36.5 -86.5t-88.5 -35.5q-40 0 -67.5 27zM478.5 807.5q20.5 19.5 20.5 47.5q0 19 -13.5 33t-35.5 14q-28 0 -48.5 -20.5t-20.5 -46.5q0 -20 13.5 -33.5t35.5 -13.5q28 0 48.5 19.5z
M655 700q9 -8 9 -21q0 -5 -1 -8q-23 -127 -43 -255q-17 -112 -64 -385q-6 -33 -43 -33q-33 0 -33 28q0 8 1 12l13 76q-35 -50 -92.5 -81t-128.5 -31q-68 0 -114 28.5t-68 73.5t-22 95q0 33 16 119t53 267l17 84q6 33 43 33q16 0 25 -6.5t9 -19.5q0 -5 -1 -8
q-44 -204 -63 -310t-19 -159q0 -58 31.5 -92t92.5 -34q58 0 112 31t90.5 79.5t46.5 98.5q14 73 33.5 187.5t32.5 203.5q5 35 41 35q17 0 26 -8z" />
    <glyph glyph-name="uring" unicode="&#x16f;" horiz-adv-x="547" 
d="M250.5 564q-27.5 27 -27.5 66q0 33 17 61t47 44.5t65 16.5q39 0 65 -28t26 -65q0 -51 -36.5 -86.5t-88.5 -35.5q-40 0 -67.5 27zM372.5 607.5q20.5 19.5 20.5 47.5q0 19 -13.5 33t-35.5 14q-28 0 -48.5 -20.5t-20.5 -46.5q0 -20 13.5 -33.5t35.5 -13.5q28 0 48.5 19.5z
M436 110q-2 -14 -2 -19q0 -18 6 -32.5t6 -18.5q0 -11 -13.5 -22t-24.5 -11q-21 0 -35 19.5t-14 41.5v8q-29 -37 -73 -56.5t-94 -19.5q-137 0 -137 150q0 28 10.5 91t22.5 129q16 83 19 104q2 13 14 21t28 8q17 0 26.5 -8t7.5 -21q-6 -35 -11.5 -64.5t-9.5 -53.5
q-11 -61 -20.5 -118.5t-9.5 -81.5q0 -47 19.5 -70t59.5 -23q134 0 178 245l30 167q3 16 14.5 25t28.5 9q18 0 27 -9t7 -25z" />
    <glyph glyph-name="Uhungarumlaut" unicode="&#x170;" horiz-adv-x="667" 
d="M287.5 763q-6.5 6 -6.5 16q0 15 19 34l88 85q24 24 41 24q11 0 17.5 -7t6.5 -18q0 -20 -23 -38l-95 -87q-18 -15 -32 -15q-9 0 -15.5 6zM438.5 763q-6.5 6 -6.5 16q0 16 20 34l87 85q24 24 42 24q11 0 17.5 -7t6.5 -18q0 -20 -24 -38l-94 -86q-17 -16 -33 -16
q-9 0 -15.5 6zM655 700q9 -8 9 -21q0 -5 -1 -8q-23 -127 -43 -255q-17 -112 -64 -385q-6 -33 -43 -33q-33 0 -33 28q0 8 1 12l13 76q-35 -50 -92.5 -81t-128.5 -31q-68 0 -114 28.5t-68 73.5t-22 95q0 33 16 119t53 267l17 84q6 33 43 33q16 0 25 -6.5t9 -19.5q0 -5 -1 -8
q-44 -204 -63 -310t-19 -159q0 -58 31.5 -92t92.5 -34q58 0 112 31t90.5 79.5t46.5 98.5q14 73 33.5 187.5t32.5 203.5q5 35 41 35q17 0 26 -8z" />
    <glyph glyph-name="uhungarumlaut" unicode="&#x171;" horiz-adv-x="547" 
d="M181.5 563q-6.5 6 -6.5 16q0 15 19 34l88 85q24 24 41 24q11 0 17.5 -7t6.5 -18q0 -20 -23 -38l-95 -87q-18 -15 -32 -15q-9 0 -15.5 6zM332.5 563q-6.5 6 -6.5 16q0 16 20 34l87 85q24 24 42 24q11 0 17.5 -7t6.5 -18q0 -20 -24 -38l-94 -86q-17 -16 -33 -16
q-9 0 -15.5 6zM436 110q-2 -14 -2 -19q0 -18 6 -32.5t6 -18.5q0 -11 -13.5 -22t-24.5 -11q-21 0 -35 19.5t-14 41.5v8q-29 -37 -73 -56.5t-94 -19.5q-137 0 -137 150q0 28 10.5 91t22.5 129q16 83 19 104q2 13 14 21t28 8q17 0 26.5 -8t7.5 -21q-6 -35 -11.5 -64.5
t-9.5 -53.5q-11 -61 -20.5 -118.5t-9.5 -81.5q0 -47 19.5 -70t59.5 -23q134 0 178 245l30 167q3 16 14.5 25t28.5 9q18 0 27 -9t7 -25z" />
    <glyph glyph-name="Uogonek" unicode="&#x172;" horiz-adv-x="667" 
d="M655 700q9 -8 9 -21q0 -5 -1 -8q-23 -127 -43 -255q-17 -112 -64 -385q-5 -22 -20 -29q-34 -24 -50.5 -43t-16.5 -42q0 -25 37 -25q7 0 19.5 3.5t15.5 3.5q6 0 10 -4.5t4 -11.5q0 -21 -14.5 -31.5t-40.5 -10.5q-38 0 -64.5 21.5t-26.5 54.5q0 31 18 55.5t53 49.5
q0 10 1 16l13 76q-35 -50 -92.5 -81t-128.5 -31q-68 0 -114 28.5t-68 73.5t-22 95q0 33 16 119t53 267l17 84q6 33 43 33q16 0 25 -6.5t9 -19.5q0 -5 -1 -8q-44 -204 -63 -310t-19 -159q0 -58 31.5 -92t92.5 -34q58 0 112 31t90.5 79.5t46.5 98.5q14 73 33.5 187.5
t32.5 203.5q5 35 41 35q17 0 26 -8z" />
    <glyph glyph-name="uogonek" unicode="&#x173;" horiz-adv-x="547" 
d="M436 110q-2 -14 -2 -19q0 -18 4.5 -29t5.5 -14q2 -4 2 -8q0 -13 -15 -25q-34 -24 -51 -43.5t-17 -42.5q0 -25 37 -25q7 0 19.5 3.5t15.5 3.5q6 0 10 -4.5t4 -11.5q0 -21 -14.5 -31.5t-40.5 -10.5q-38 0 -64.5 21.5t-26.5 54.5q0 30 17 54t50 48q-11 19 -11 37v8
q-29 -37 -73 -56.5t-94 -19.5q-137 0 -137 150q0 28 10.5 91t22.5 129q16 83 19 104q2 13 14 21t28 8q17 0 26.5 -8t7.5 -21q-6 -35 -11.5 -64.5t-9.5 -53.5q-11 -61 -20.5 -118.5t-9.5 -81.5q0 -47 19.5 -70t59.5 -23q134 0 178 245l30 167q3 16 14.5 25t28.5 9q18 0 27 -9
t7 -25z" />
    <glyph glyph-name="Wcircumflex" unicode="&#x174;" horiz-adv-x="878" 
d="M630 776q-57 102 -74 102q-8 0 -33.5 -21.5t-74.5 -68.5q-20 -20 -35 -20q-10 0 -17.5 7.5t-7.5 18.5q0 13 14 26q14 10 32 29q48 44 78.5 67.5t50.5 23.5q26 0 46 -23t51 -72l21 -34q6 -8 6 -15q0 -13 -10.5 -23t-23.5 -10q-16 0 -23 13zM203.5 11.5
q-13.5 9.5 -15.5 26.5q-8 62 -16 221q-4 87 -7 126q-3 44 -13 119q-13 98 -13 151q0 11 1 16q3 14 15 23.5t31 9.5q15 0 22 -6.5t9 -21.5q2 -16 2 -23q16 -151 23 -251l6 -97q5 -92 9 -139t9 -47q4 0 15 16t21 32.5t15 25.5l38 63l15 25q45 73 65 100.5t34 27.5t25 -23.5
t33 -91.5l17 -50l18 -55q12 -39 18.5 -54.5t10.5 -15.5q3 0 15 29.5t23 58t18 47.5q23 64 56 147q27 67 35 88q68 168 76 188q5 13 16 19.5t26 6.5q33 0 33 -37q0 -4 -3 -10q-27 -55 -68 -161l-43 -109q-27 -67 -60 -157q-33 -93 -72 -185q-17 -40 -60 -40q-18 0 -31.5 14
t-26.5 44.5t-33 91.5q-7 21 -22 81q-5 21 -9.5 37t-7.5 16q-4 0 -15 -17.5t-19.5 -32t-12.5 -21.5q-17 -33 -44 -76q-37 -59 -58 -88t-36 -40t-32 -11q-19 0 -32.5 9.5z" />
    <glyph glyph-name="wcircumflex" unicode="&#x175;" horiz-adv-x="776" 
d="M542 576q-57 102 -74 102q-8 0 -33.5 -21.5t-74.5 -68.5q-20 -20 -35 -20q-10 0 -17.5 7.5t-7.5 18.5q0 13 14 26q14 10 32 29q48 44 78.5 67.5t50.5 23.5q26 0 46 -23t51 -72l21 -34q6 -8 6 -15q0 -13 -10.5 -23t-23.5 -10q-16 0 -23 13zM154 54q-25 52 -36.5 129
t-11.5 151q0 86 9 138q5 23 13.5 34t32.5 11q34 0 32 -31q-2 -16 -2 -24q-9 -86 -9 -125q0 -85 11.5 -167.5t33.5 -82.5q12 0 46 71.5t101 226.5q9 21 20 31t28 10t24 -9.5t10 -31.5l13 -100q12 -103 22 -148.5t29 -45.5q14 0 31.5 34t44.5 101q36 90 49.5 134t31.5 123
q3 14 12 23.5t31 9.5q32 0 32 -27q0 -37 -34 -141t-65 -172q-78 -174 -138 -174q-31 0 -56 42t-39 114t-16 159q-45 -140 -94 -227.5t-95 -87.5q-36 0 -61 52z" />
    <glyph glyph-name="Ycircumflex" unicode="&#x176;" horiz-adv-x="655" 
d="M518 776q-57 102 -74 102q-8 0 -33.5 -21.5t-74.5 -68.5q-20 -20 -35 -20q-10 0 -17.5 7.5t-7.5 18.5q0 13 14 26q14 10 32 29q48 44 78.5 67.5t50.5 23.5q26 0 46 -23t51 -72l21 -34q6 -8 6 -15q0 -13 -10.5 -23t-23.5 -10q-16 0 -23 13zM261.5 14.5
q-8.5 11.5 -5.5 26.5l48 287q-46 17 -98 131q-23 49 -34.5 88.5t-26.5 107.5q-1 3 -1 10q0 17 14 26t33 9q27 0 35 -35q16 -65 25.5 -97.5t24.5 -71.5q15 -40 36 -73t39 -33q17 0 47.5 29t69.5 79q31 40 56 78t59 93q11 18 17 23.5t17 5.5q17 0 30 -8.5t13 -21.5
q0 -10 -6 -19q-67 -118 -125 -192q-46 -57 -85.5 -89.5t-62.5 -39.5l-47 -285q-8 -40 -45 -40q-19 0 -27.5 11.5z" />
    <glyph glyph-name="ycircumflex" unicode="&#x177;" horiz-adv-x="522" 
d="M414 576q-57 102 -74 102q-8 0 -33.5 -21.5t-74.5 -68.5q-20 -20 -35 -20q-10 0 -17.5 7.5t-7.5 18.5q0 13 14 26q14 10 32 29q48 44 78.5 67.5t50.5 23.5q26 0 46 -23t51 -72l21 -34q6 -8 6 -15q0 -13 -10.5 -23t-23.5 -10q-16 0 -23 13zM97.5 -248.5
q-8.5 10.5 -6.5 25.5q2 9 5 14l28 51q89 163 115 214q-35 26 -71.5 95t-60 154.5t-23.5 159.5v13q0 9 11 19.5t32 10.5q15 0 19.5 -6.5t5.5 -20.5q5 -92 25 -168.5t46 -128t50 -72.5l53 115q79 172 114 258q6 15 14 20.5t23 5.5q37 0 38 -30q0 -5 -3 -11q-56 -133 -93 -215
t-84 -172q-42 -81 -91.5 -171.5t-79.5 -143.5q-15 -27 -40 -27q-18 0 -26.5 10.5z" />
    <glyph glyph-name="Ydieresis" unicode="&#x178;" horiz-adv-x="655" 
d="M271.5 788.5q-12.5 12.5 -12.5 32.5q0 26 19 44t45 18q20 0 33.5 -12.5t13.5 -31.5q0 -25 -20 -44t-45 -19q-21 0 -33.5 12.5zM511.5 788.5q-12.5 12.5 -12.5 32.5q0 26 19 44t45 18q20 0 33 -12t13 -31q0 -25 -19.5 -44.5t-44.5 -19.5q-21 0 -33.5 12.5zM261.5 14.5
q-8.5 11.5 -5.5 26.5l48 287q-46 17 -98 131q-23 49 -34.5 88.5t-26.5 107.5q-1 3 -1 10q0 17 14 26t33 9q27 0 35 -35q16 -65 25.5 -97.5t24.5 -71.5q15 -40 36 -73t39 -33q17 0 47.5 29t69.5 79q31 40 56 78t59 93q11 18 17 23.5t17 5.5q17 0 30 -8.5t13 -21.5
q0 -10 -6 -19q-67 -118 -125 -192q-46 -57 -85.5 -89.5t-62.5 -39.5l-47 -285q-8 -40 -45 -40q-19 0 -27.5 11.5z" />
    <glyph glyph-name="Zacute" unicode="&#x179;" horiz-adv-x="673" 
d="M369 758.5q-7 6.5 -7 16.5q0 8 6 17.5t16 18.5l92 81q15 14 24.5 19.5t18.5 5.5q11 0 18.5 -7.5t7.5 -18.5q0 -21 -25 -41l-99 -81q-20 -17 -35 -17q-10 0 -17 6.5zM501 19q-51 4 -99.5 7t-105.5 3q-67 0 -177 -4l-67 -2q-25 0 -34 7t-9 19q0 24 43 67.5t157 141.5
q66 57 148 130q136 121 178.5 160t76.5 75q-115 -11 -188 -11q-59 0 -131.5 5.5t-105.5 13.5q-32 8 -32 29q0 18 11.5 29.5t31.5 11.5l21 -3q122 -16 210 -16q42 0 85.5 3t104.5 8l37 3q11 1 24 -2.5t21 -10.5q13 -10 13 -25q0 -30 -57 -86.5t-193 -176.5q-2 -2 -44 -38
l-133 -116q-70 -59 -105.5 -91t-60.5 -59q135 7 220 7q59 0 103.5 -3t103.5 -10q13 -2 20.5 -9t7.5 -18q0 -18 -14.5 -31t-32.5 -10q-20 2 -28 2z" />
    <glyph glyph-name="zacute" unicode="&#x17a;" horiz-adv-x="556" 
d="M290 558.5q-7 6.5 -7 16.5q0 8 6 17.5t16 18.5l92 81q15 14 24.5 19.5t18.5 5.5q11 0 18.5 -7.5t7.5 -18.5q0 -21 -25 -41l-99 -81q-20 -17 -35 -17q-10 0 -17 6.5zM258 7q-36 0 -139 -5l-63 -2q-26 0 -39 6t-13 20q0 18 23 39q230 207 422 373q-17 0 -57 -4
q-72 -5 -104 -5q-47 0 -88.5 4t-59.5 9q-24 7 -24 24q0 15 10 29t28 11q96 -13 170 -13q39 0 116 7q50 4 68 4q31 0 40.5 -5.5t9.5 -18.5q0 -16 -7 -27t-19 -22q-103 -92 -220 -193q-139 -120 -198 -173l46 2q70 4 119 4q73 0 150 -9q20 -3 20 -24q0 -17 -11 -29t-28 -11
q-81 9 -152 9z" />
    <glyph glyph-name="Zdotaccent" unicode="&#x17b;" horiz-adv-x="673" 
d="M396.5 788.5q-12.5 12.5 -12.5 32.5q0 25 19 43.5t45 18.5q20 0 33 -12t13 -31q0 -26 -19 -45t-45 -19q-21 0 -33.5 12.5zM501 19q-51 4 -99.5 7t-105.5 3q-67 0 -177 -4l-67 -2q-25 0 -34 7t-9 19q0 24 43 67.5t157 141.5q66 57 148 130q136 121 178.5 160t76.5 75
q-115 -11 -188 -11q-59 0 -131.5 5.5t-105.5 13.5q-32 8 -32 29q0 18 11.5 29.5t31.5 11.5l21 -3q122 -16 210 -16q42 0 85.5 3t104.5 8l37 3q11 1 24 -2.5t21 -10.5q13 -10 13 -25q0 -30 -57 -86.5t-193 -176.5q-2 -2 -44 -38l-133 -116q-70 -59 -105.5 -91t-60.5 -59
q135 7 220 7q59 0 103.5 -3t103.5 -10q13 -2 20.5 -9t7.5 -18q0 -18 -14.5 -31t-32.5 -10q-20 2 -28 2z" />
    <glyph glyph-name="zdotaccent" unicode="&#x17c;" horiz-adv-x="556" 
d="M317.5 588.5q-12.5 12.5 -12.5 32.5q0 25 19 43.5t45 18.5q20 0 33 -12t13 -31q0 -26 -19 -45t-45 -19q-21 0 -33.5 12.5zM258 7q-36 0 -139 -5l-63 -2q-26 0 -39 6t-13 20q0 18 23 39q230 207 422 373q-17 0 -57 -4q-72 -5 -104 -5q-47 0 -88.5 4t-59.5 9q-24 7 -24 24
q0 15 10 29t28 11q96 -13 170 -13q39 0 116 7q50 4 68 4q31 0 40.5 -5.5t9.5 -18.5q0 -16 -7 -27t-19 -22q-103 -92 -220 -193q-139 -120 -198 -173l46 2q70 4 119 4q73 0 150 -9q20 -3 20 -24q0 -17 -11 -29t-28 -11q-81 9 -152 9z" />
    <glyph glyph-name="Zcaron" unicode="&#x17d;" horiz-adv-x="673" 
d="M590.5 936q6.5 -7 6.5 -17q0 -6 -3 -11.5t-6 -8t-4 -4.5q-56 -63 -93 -96t-69 -33q-19 0 -39.5 22t-54.5 66q-15 21 -25 33q-8 9 -6 22q1 11 12.5 20t22.5 9q14 0 27 -20q59 -90 76 -90q9 0 39 28.5t72 74.5q11 12 28 12q10 0 16.5 -7zM501 19q-51 4 -99.5 7t-105.5 3
q-67 0 -177 -4l-67 -2q-25 0 -34 7t-9 19q0 24 43 67.5t157 141.5q66 57 148 130q136 121 178.5 160t76.5 75q-115 -11 -188 -11q-59 0 -131.5 5.5t-105.5 13.5q-32 8 -32 29q0 18 11.5 29.5t31.5 11.5l21 -3q122 -16 210 -16q42 0 85.5 3t104.5 8l37 3q11 1 24 -2.5
t21 -10.5q13 -10 13 -25q0 -30 -57 -86.5t-193 -176.5q-2 -2 -44 -38l-133 -116q-70 -59 -105.5 -91t-60.5 -59q135 7 220 7q59 0 103.5 -3t103.5 -10q13 -2 20.5 -9t7.5 -18q0 -18 -14.5 -31t-32.5 -10q-20 2 -28 2z" />
    <glyph glyph-name="zcaron" unicode="&#x17e;" horiz-adv-x="556" 
d="M511.5 736q6.5 -7 6.5 -17q0 -6 -3 -11.5t-6 -8t-4 -4.5q-56 -63 -93 -96t-69 -33q-19 0 -39.5 22t-54.5 66q-15 21 -25 33q-8 9 -6 22q1 11 12.5 20t22.5 9q14 0 27 -20q59 -90 76 -90q9 0 39 28.5t72 74.5q11 12 28 12q10 0 16.5 -7zM258 7q-36 0 -139 -5l-63 -2
q-26 0 -39 6t-13 20q0 18 23 39q230 207 422 373q-17 0 -57 -4q-72 -5 -104 -5q-47 0 -88.5 4t-59.5 9q-24 7 -24 24q0 15 10 29t28 11q96 -13 170 -13q39 0 116 7q50 4 68 4q31 0 40.5 -5.5t9.5 -18.5q0 -16 -7 -27t-19 -22q-103 -92 -220 -193q-139 -120 -198 -173l46 2
q70 4 119 4q73 0 150 -9q20 -3 20 -24q0 -17 -11 -29t-28 -11q-81 9 -152 9z" />
    <glyph glyph-name="longs" unicode="&#x17f;" horiz-adv-x="283" 
d="M-64 -240q-34 0 -62 10v74q29 -11 55 -11q65 0 87 114l135 640q20 95 60.5 136.5t121.5 41.5q26 0 52 -6t43 -13l-23 -67q-36 14 -66 14q-43 0 -65.5 -24.5t-33.5 -81.5l-137 -650q-20 -92 -60.5 -134.5t-106.5 -42.5z" />
    <glyph glyph-name="uni0180" unicode="&#x180;" horiz-adv-x="579" 
d="M269 -10q-46 0 -82.5 24t-54.5 68h-5l-33 -82h-66l128 605h-70l14 66h70l19 89h88l-19 -89h196l-14 -66h-196q-18 -81 -28.5 -122.5t-13.5 -46.5h4q50 61 91.5 85t85.5 24q69 0 108 -47.5t39 -134.5q0 -101 -33.5 -188t-93 -136t-134.5 -49zM355 472q-46 0 -93.5 -46
t-74.5 -115.5t-27 -139.5q0 -51 26 -79.5t76 -28.5q48 0 89 40t65 111t24 150q0 108 -85 108z" />
    <glyph glyph-name="uni0181" unicode="&#x181;" horiz-adv-x="669" 
d="M453 714q105 0 158.5 -41.5t53.5 -122.5q0 -70 -42.5 -117t-118.5 -61v-5q55 -15 85 -52.5t30 -92.5q0 -103 -73 -162.5t-201 -59.5h-228l134 637h-18q-76 0 -76 -72q0 -18 5 -32h-75q-7 14 -7 38q0 69 42.5 106t118.5 37h212zM222 76h126q85 0 131 38t46 108
q0 55 -35 84.5t-101 29.5h-112zM293 410h117q74 0 118 34t44 95q0 47 -30 72.5t-100 25.5h-101z" />
    <glyph glyph-name="uni0182" unicode="&#x182;" horiz-adv-x="566" 
d="M289 412q217 0 217 -177q0 -112 -73 -173.5t-209 -61.5h-182l151 714h361l-17 -79h-271l-47 -223h70zM237 76q177 0 177 152q0 55 -30 81t-95 26h-86l-56 -259h90z" />
    <glyph glyph-name="uni0183" unicode="&#x183;" horiz-adv-x="579" 
d="M269 -10q-46 0 -82.5 24t-54.5 68h-5l-33 -82h-66l161 760h390l-16 -74h-302l-22 -106q-9 -43 -21 -90t-16 -54h4q50 61 91.5 85t85.5 24q69 0 108 -47.5t39 -134.5q0 -101 -33.5 -188t-93 -136t-134.5 -49zM355 472q-46 0 -93.5 -46t-74.5 -115.5t-27 -139.5
q0 -51 26 -79.5t76 -28.5q48 0 89 40t65 111t24 150q0 108 -85 108z" />
    <glyph glyph-name="uni0184" unicode="&#x184;" horiz-adv-x="594" 
d="M158 156q0 -46 29.5 -67.5t88.5 -21.5q79 0 124 42.5t45 117.5q0 108 -151 108h-102l-27 -125q-7 -35 -7 -54zM183 714h89l-64 -302h103q107 0 166 -47t59 -134q0 -110 -71 -175.5t-190 -65.5q-102 0 -154 41t-52 119q0 31 7 60z" />
    <glyph glyph-name="uni0185" unicode="&#x185;" horiz-adv-x="573" 
d="M252 -10q-88 0 -137 48.5t-49 138.5q0 35 12 90l105 493h88l-39 -185q-24 -104 -36 -139h4q48 59 90 84t83 25q74 0 112.5 -47.5t38.5 -139.5q0 -99 -34 -187t-95.5 -134.5t-142.5 -46.5zM154 178q0 -115 99 -115q51 0 91.5 39t65 111.5t24.5 147.5q0 56 -20.5 83.5
t-64.5 27.5q-36 0 -74.5 -29.5t-68 -79t-41 -102t-11.5 -83.5z" />
    <glyph glyph-name="uni0186" unicode="&#x186;" horiz-adv-x="586" 
d="M170 69q86 0 151.5 48.5t102.5 138.5t37 193q0 91 -47 143.5t-128 52.5q-71 0 -158 -29v78q43 16 82.5 23t91.5 7q120 0 187 -73t67 -200q0 -125 -50.5 -234.5t-138 -168t-197.5 -58.5q-101 0 -174 40l36 74q67 -35 138 -35z" />
    <glyph glyph-name="uni0187" unicode="&#x187;" horiz-adv-x="586" 
d="M689 858q34 0 54 -11v-73q-27 9 -46 9q-22 0 -35.5 -12.5t-20.5 -44.5l-28 -122q-35 19 -75 30t-80 11q-85 0 -150.5 -48.5t-103 -138t-37.5 -193.5q0 -91 46.5 -143.5t128.5 -52.5q70 0 158 29v-78q-80 -30 -174 -30q-120 0 -187 73t-67 200q0 125 50.5 235t138 168
t197.5 58q57 0 102 -13l7 33q13 58 42.5 86t79.5 28z" />
    <glyph glyph-name="uni0188" unicode="&#x188;" horiz-adv-x="453" 
d="M531 765q33 0 54 -11v-73q-25 9 -46 9q-24 0 -36 -13t-18 -44l-41 -190q-58 29 -115 29q-54 0 -98 -37.5t-68.5 -101.5t-24.5 -142q0 -61 31 -94.5t87 -33.5q36 0 67 10t62 23v-74q-62 -32 -138 -32q-95 0 -147 52.5t-52 147.5q0 99 36 181t99.5 128.5t144.5 46.5
q30 0 58 -5l23 110q22 114 122 114z" />
    <glyph glyph-name="uni0189" unicode="&#x189;" horiz-adv-x="666" 
d="M593.5 614q101.5 -74 101.5 -216q0 -117 -68.5 -206t-185.5 -137t-258 -48h-71q-37 0 -37 26q0 42 45 42h25l37 252l-75 1q-23 0 -35 8t-12 22q0 21 16 33.5t45 11.5l72 -2l34 230q-42 3 -42 31q0 21 14 29t46 9q11 14 36 14q28 0 34 -16q177 -10 278.5 -84zM425 124
q87 42 137 115.5t50 170.5q0 193 -301 218l-34 -229l111 -2q19 -1 30 -9.5t11 -22.5q0 -19 -14.5 -30.5t-39.5 -11.5l-109 2l-37 -249q109 6 196 48z" />
    <glyph glyph-name="uni018A" unicode="&#x18a;" horiz-adv-x="743" 
d="M712 429q0 -128 -51 -225.5t-146 -150.5t-222 -53h-176l134 637h-18q-76 0 -76 -72q0 -18 5 -32h-75q-7 14 -7 38q0 69 42.5 106t118.5 37h196q135 0 205 -73.5t70 -211.5zM298 77q97 0 169.5 44t111.5 125t39 184q0 102 -48.5 154.5t-143.5 52.5h-85l-119 -560h76z" />
    <glyph glyph-name="uni018B" unicode="&#x18b;" horiz-adv-x="570" 
d="M48 177q0 114 79.5 174.5t230.5 60.5h64l47 223h-303l17 79h391l-151 -714h-161q-104 0 -159 45t-55 132zM405 335h-62q-100 0 -152 -40t-52 -115q0 -103 135 -103h76z" />
    <glyph glyph-name="uni018C" unicode="&#x18c;" horiz-adv-x="579" 
d="M193 -10q-67 0 -106 47.5t-39 135.5q0 102 34 189t94.5 135t134.5 48q93 0 135 -92h5q5 39 10 69t34 164h-302l16 74h388l-161 -760h-72l11 99h-4q-47 -58 -89.5 -83.5t-88.5 -25.5zM223 63q45 0 92 45.5t74.5 114.5t27.5 141q0 53 -25.5 80.5t-74.5 27.5
q-48 0 -89 -40.5t-65.5 -111t-24.5 -149.5q0 -108 85 -108z" />
    <glyph glyph-name="uni018D" unicode="&#x18d;" horiz-adv-x="554" 
d="M311 293q47 -38 66.5 -73.5t19.5 -75.5q0 -69 -49.5 -111.5t-130.5 -42.5q-93 0 -174 56l35 63q47 -28 79.5 -38t60.5 -10q50 0 72.5 23t22.5 60q0 20 -6.5 35.5t-19 30.5t-60.5 54q-68 55 -96 109t-28 117q0 78 32 140t91.5 96t138.5 34q60 0 105.5 -25.5t69.5 -70.5
t24 -101q0 -213 -253 -270zM356 687q-75 0 -119.5 -55t-44.5 -141q0 -96 69 -155q104 20 158.5 75t54.5 140q0 64 -31.5 100t-86.5 36z" />
    <glyph glyph-name="uni018E" unicode="&#x18e;" horiz-adv-x="514" 
d="M155 714h362l-151 -714h-362l17 79h273l54 255h-255l15 78h256l48 223h-274z" />
    <glyph glyph-name="uni018F" unicode="&#x18f;" horiz-adv-x="793" 
d="M200.5 24.5q-66.5 32.5 -104 87t-37.5 118.5q0 59 17.5 87.5t56.5 29.5l528 8q5 0 6.5 2t2.5 8q5 30 5 52q0 93 -62.5 148.5t-167.5 55.5q-66 0 -114.5 -21.5t-77.5 -49t-58 -64.5q-7 -8 -13.5 -13t-17.5 -5q-14 0 -27.5 10t-13.5 23t16 34q59 76 136.5 117t172.5 41
q92 0 161 -36.5t106 -99.5t37 -140q0 -121 -52.5 -218t-144.5 -152t-205 -55q-83 0 -149.5 32.5zM494.5 90.5q70.5 36.5 114.5 91.5t44 107q0 6 -13 6l-484 -9q-23 0 -23 -58q0 -47 29 -87t78.5 -63.5t109.5 -23.5q74 0 144.5 36.5z" />
    <glyph glyph-name="uni0190" unicode="&#x190;" horiz-adv-x="538" 
d="M138 520q0 62 29.5 108.5t84 71t124.5 24.5q61 0 104.5 -14t101.5 -55l-41 -61q-45 32 -82 44t-84 12q-67 0 -106.5 -36.5t-39.5 -99.5q0 -53 37 -80t109 -27h89l-16 -75h-93q-229 0 -229 -156q0 -53 36 -82.5t106 -29.5q97 0 202 50v-82q-88 -42 -205 -42
q-110 0 -171 47.5t-61 133.5q0 88 50 138.5t161 67.5l1 4q-51 13 -79 49.5t-28 89.5z" />
    <glyph glyph-name="uni0191" unicode="&#x191;" horiz-adv-x="477" 
d="M-37 -240q-17 0 -33 4.5t-25 10.5v76q23 -12 43 -12q30 0 48 19t28 63l168 793h362l-16 -79h-274l-53 -254h256l-17 -79h-256l-82 -385q-18 -83 -52.5 -120t-96.5 -37z" />
    <glyph glyph-name="florin" unicode="&#x192;" horiz-adv-x="664" 
d="M728 775q0 -16 -9 -27t-24 -11q-7 0 -21 3q-26 6 -47 6q-74 0 -128.5 -64.5t-82.5 -191.5h122q17 0 26 -7t9 -20q0 -18 -13.5 -29.5t-32.5 -11.5h-124q-55 -297 -136.5 -449.5t-179.5 -157.5q-24 -1 -59 3q-22 2 -35 12t-13 25q0 17 12 29.5t29 12.5q6 0 9 -1
q41 -9 70 -9q72 0 124.5 143t103.5 392h-112q-15 0 -23 9.5t-6 24.5q3 16 14.5 25t29.5 9h111q38 164 108 244.5t185 80.5q34 0 70 -12q23 -9 23 -28z" />
    <glyph glyph-name="uni0193" unicode="&#x193;" horiz-adv-x="678" 
d="M398 376h229l-76 -349q-59 -21 -107.5 -29t-100.5 -8q-128 0 -199.5 71t-71.5 198q0 131 50 239t138.5 167t196.5 59q70 0 134 -18l9 39q13 57 43 85t79 28q33 0 54 -11v-73q-27 9 -46 9q-22 0 -35 -12.5t-21 -44.5l-29 -125q-99 44 -189 44q-81 0 -147.5 -49t-104 -136
t-37.5 -195q0 -92 48.5 -144t136.5 -52q69 0 123 18l46 211h-140z" />
    <glyph glyph-name="uni0194" unicode="&#x194;" horiz-adv-x="551" 
d="M281 101q24 -100 24 -170q0 -79 -36.5 -125t-98.5 -46q-45 0 -72 30t-27 79q0 50 29.5 108.5t86.5 129.5l-95 607h89l52 -369q13 -85 16 -158q28 72 77 156l216 371h102zM177 -162q23 0 36 30.5t13 76.5q0 43 -10 80q-35 -51 -48.5 -89.5t-13.5 -62.5q0 -35 23 -35z" />
    <glyph glyph-name="uni0195" unicode="&#x195;" horiz-adv-x="877" 
d="M509 408q0 -27 -11 -82l-29 -134q-6 -26 -6 -45q0 -84 95 -84q57 0 89.5 35t49.5 117l69 321h89l-69 -327q-25 -117 -79 -168t-156 -51q-84 0 -130.5 38t-46.5 108q0 20 6 50l31 150q9 40 9 66q0 70 -66 70q-40 0 -77.5 -28.5t-66.5 -83t-45 -129.5l-49 -231h-88l161 760
h88l-43 -197q-6 -30 -15 -62.5t-17 -64.5h5q43 59 85 84t88 25q62 0 95.5 -35.5t33.5 -101.5z" />
    <glyph glyph-name="uni0196" unicode="&#x196;" horiz-adv-x="311" 
d="M191 62q26 0 69 13v-67q-16 -7 -42 -12.5t-44 -5.5q-61 0 -92 30t-31 87q0 23 10 73l113 534h88l-114 -537q-8 -35 -8 -59q0 -56 51 -56z" />
    <glyph glyph-name="uni0197" unicode="&#x197;" horiz-adv-x="324" 
d="M230 0h-250l10 49l85 20l55 258h-83l17 78h82l51 240l-76 19l10 50h250l-10 -50l-86 -19l-51 -240h84l-17 -78h-84l-54 -258l77 -20z" />
    <glyph glyph-name="uni0198" unicode="&#x198;" horiz-adv-x="562" 
d="M341 400l169 -400h-98l-139 346l-83 -61l-60 -285h-89l151 714h89l-74 -347l62 66l216 221q34 36 61 51t59 15q24 0 47 -9v-71q-22 5 -38 5q-18 0 -35 -10t-45 -39z" />
    <glyph glyph-name="uni0199" unicode="&#x199;" horiz-adv-x="495" 
d="M298 765q17 0 33.5 -4.5t24.5 -8.5v-73q-21 10 -52 10q-42 0 -55 -58q-49 -228 -58 -263.5t-26 -90.5h2l254 259h104l-230 -230l143 -306h-97l-113 251l-72 -57l-40 -194h-89l132 625q17 77 49.5 108.5t89.5 31.5z" />
    <glyph glyph-name="uni019A" unicode="&#x19a;" horiz-adv-x="257" 
d="M204 420h66l-14 -66h-66l-75 -354h-88l76 354h-64l14 66h64l72 340h88z" />
    <glyph glyph-name="uni019B" unicode="&#x19b;" horiz-adv-x="491" 
d="M248 525l-8 63l-104 -32l-18 60l109 34q-18 43 -61 43q-29 0 -50 -5l-11 70q33 8 69 8q55 0 86.5 -20.5t47.5 -70.5l97 31l18 -61l-103 -32l57 -499q6 -53 36 -53q16 0 33 6v-66q-25 -11 -57 -11q-45 0 -67 25t-27 78l-20 189q-9 73 -9 150q-29 -75 -58 -127l-171 -305
h-93zM290 535z" />
    <glyph glyph-name="uni019C" unicode="&#x19c;" horiz-adv-x="958" 
d="M271 714l-107 -506q-6 -27 -6 -49q0 -44 22 -67.5t65 -23.5q77 0 122.5 46.5t67.5 147.5l96 452h89l-107 -506q-6 -26 -6 -51q0 -42 21 -65.5t65 -23.5q73 0 119 49.5t70 164.5l92 432h88l-151 -714h-65l8 82h-4q-63 -92 -177 -92q-112 0 -139 100h-4q-77 -100 -200 -100
q-76 0 -119 42.5t-43 114.5q0 30 7 61l107 506h89z" />
    <glyph glyph-name="uni019D" unicode="&#x19d;" horiz-adv-x="707" 
d="M561 0h-95l-221 592h-3q-2 -19 -12.5 -82.5t-23.5 -123.5l-102 -480q-16 -76 -50.5 -111t-91.5 -35q-17 0 -33 4.5t-25 10.5v76q23 -12 43 -12q31 0 48.5 19.5t27.5 62.5l168 793h95l219 -590h3q6 45 17 106t18 91l84 393h85z" />
    <glyph glyph-name="uni019E" unicode="&#x19e;" horiz-adv-x="579" 
d="M390 -240h-88l123 576q10 48 10 69q0 31 -17 49t-54 18q-42 0 -82 -28.5t-70.5 -83t-46.5 -129.5l-49 -231h-88l114 536h72l-11 -99h5q33 42 59 63t56.5 33.5t64.5 12.5q63 0 99 -34.5t36 -97.5q0 -38 -11 -88z" />
    <glyph glyph-name="uni019F" unicode="&#x19f;" horiz-adv-x="721" 
d="M690 444q0 -134 -44.5 -238.5t-124 -160t-184.5 -55.5q-125 0 -195 73t-70 204q0 128 46.5 234.5t128.5 165t186 58.5q121 0 189 -75t68 -206zM340 69q88 0 152.5 68.5t90.5 187.5h-414q-3 -27 -3 -56q0 -94 46.5 -147t127.5 -53zM427 646q-88 0 -153.5 -65.5
t-91.5 -177.5h411q2 24 2 43q0 94 -44.5 147t-123.5 53z" />
    <glyph glyph-name="Ohorn" unicode="&#x1a0;" horiz-adv-x="819" 
d="M882.5 695.5q5.5 -7.5 3.5 -20.5q-9 -56 -43 -105t-92 -74q12 -43 12 -92q0 -115 -51.5 -205t-144 -140.5t-209.5 -50.5q-80 0 -147 32t-106.5 94t-39.5 148q0 115 50.5 212.5t139.5 155t199 57.5q96 0 169.5 -44.5t110.5 -121.5q39 18 64.5 53.5t33.5 81.5q5 27 32 27
q13 0 18.5 -7.5zM529 121.5q73 42.5 114.5 116.5t41.5 166q0 69 -28 121.5t-79.5 81.5t-119.5 29q-89 0 -161 -49t-113 -130t-41 -172q0 -73 32 -119t82.5 -66.5t108.5 -20.5q90 0 163 42.5z" />
    <glyph glyph-name="ohorn" unicode="&#x1a1;" horiz-adv-x="593" 
d="M673.5 503.5q5.5 -7.5 3.5 -20.5q-8 -51 -36.5 -96t-77.5 -72q2 -22 2 -32q0 -82 -36.5 -146t-103.5 -100.5t-155 -36.5q-103 0 -170.5 51.5t-67.5 162.5q0 81 37.5 150.5t105.5 111t154 41.5q83 0 143 -39t82 -112q27 20 44.5 50.5t24.5 67.5q5 27 32 27q13 0 18.5 -7.5
zM386 90.5q49 28.5 75 79t26 113.5q0 79 -43.5 124.5t-114.5 45.5q-64 0 -113.5 -32.5t-77 -87.5t-27.5 -119q0 -81 46 -116.5t113 -35.5t116 28.5z" />
    <glyph glyph-name="uni01A2" unicode="&#x1a2;" horiz-adv-x="1004" 
d="M680 444q0 -133 -43.5 -237.5t-121.5 -160.5t-180 -56q-125 0 -194 73t-69 204q0 130 47.5 236.5t128.5 164t181 57.5q128 0 195 -89q40 42 91 65.5t101 23.5q77 0 120 -40t43 -115q0 -34 -7 -63l-106 -507h-89l107 507q6 26 6 52q0 88 -88 88q-80 0 -147 -65
q25 -61 25 -138zM423 646q-72 0 -131.5 -49.5t-92 -136.5t-32.5 -191q0 -95 45.5 -147.5t125.5 -52.5q70 0 127 49.5t88.5 137t31.5 190.5q0 93 -43.5 146.5t-118.5 53.5z" />
    <glyph glyph-name="uni01A3" unicode="&#x1a3;" horiz-adv-x="796" 
d="M501 336q0 -93 -35.5 -175t-94.5 -125.5t-133 -43.5q-89 0 -139.5 55.5t-50.5 150.5q0 94 36 176t96.5 125.5t135.5 43.5q99 0 147 -71q32 37 71.5 55.5t78.5 18.5q63 0 95.5 -36t32.5 -100q0 -27 -6 -61l-125 -589h-89l125 585q7 29 7 56q0 71 -65 71q-58 0 -100 -48
q13 -41 13 -88zM411 346q0 57 -25.5 90.5t-68.5 33.5q-52 0 -93.5 -36t-64 -99.5t-22.5 -139.5q0 -62 27 -96t79 -34q47 0 86 35.5t60.5 100t21.5 145.5z" />
    <glyph glyph-name="uni01A4" unicode="&#x1a4;" horiz-adv-x="642" 
d="M642 528q0 -121 -80 -185t-234 -64h-64l-59 -279h-89l134 637h-17q-76 0 -76 -72q0 -18 5 -32h-75q-7 14 -7 38q0 69 42.5 106t118.5 37h187q105 0 159.5 -46.5t54.5 -139.5zM280 354h62q102 0 155.5 44t53.5 127q0 60 -33.5 86t-101.5 26h-76z" />
    <glyph glyph-name="uni01A5" unicode="&#x1a5;" horiz-adv-x="579" 
d="M384 545q69 0 107.5 -48.5t38.5 -134.5q0 -103 -34.5 -190.5t-93.5 -134.5t-132 -47q-45 0 -81.5 23.5t-57.5 68.5h-5q-3 -51 -12 -91l-49 -231h-87l182 865q16 76 47.5 108t90.5 32q17 0 33.5 -4.5t24.5 -8.5v-73q-21 10 -52 10q-42 0 -55 -60l-10 -48q-14 -67 -37 -145
h4q49 60 91.5 84.5t86.5 24.5zM355 472q-44 0 -90.5 -43.5t-75.5 -113.5t-29 -144q0 -52 26 -80t76 -28q48 0 89 40t65 111t24 150q0 108 -85 108z" />
    <glyph glyph-name="uni01A6" unicode="&#x1a6;" horiz-adv-x="573" 
d="M187 271h78q92 0 141.5 40.5t49.5 115.5q0 57 -31.5 83t-104.5 26h-77zM170 195l-41 -195h-88l151 714h89l-21 -100h68q220 0 220 -181q0 -168 -178 -218l118 -315h-98l-102 295h-118z" />
    <glyph glyph-name="uni01A7" unicode="&#x1a7;" horiz-adv-x="504" 
d="M431 554q0 42 -28.5 66.5t-79.5 24.5q-62 0 -144 -37l-27 76q88 40 182 40q87 0 139 -46.5t52 -122.5q0 -56 -22.5 -97t-67.5 -72.5t-134 -63.5q-99 -36 -131.5 -55t-46 -41.5t-13.5 -57.5q0 -46 33.5 -73t90.5 -27q86 0 174 37v-78q-75 -37 -180 -37q-99 0 -154 46.5
t-55 126.5q0 38 9.5 67t26 51.5t39.5 39.5t49.5 30.5t55.5 24t58 21.5q83 30 114 50t45.5 45t14.5 62z" />
    <glyph glyph-name="uni01A8" unicode="&#x1a8;" horiz-adv-x="432" 
d="M339 409q0 30 -21 47.5t-62 17.5q-48 0 -130 -34l-23 69q81 37 162 37q74 0 118 -35t44 -97q0 -45 -18.5 -75.5t-55.5 -52.5t-121 -47q-61 -18 -84 -31t-36 -30.5t-13 -42.5q0 -34 23 -54t73 -20q34 0 68.5 9.5t81.5 31.5v-77q-67 -35 -158 -35q-84 0 -130.5 39
t-46.5 107q0 43 20.5 75t57.5 54.5t107 42.5q61 17 90 30t41.5 28.5t12.5 42.5z" />
    <glyph glyph-name="uni01A9" unicode="&#x1a9;" horiz-adv-x="522" 
d="M-15 0l14 73l261 296l-134 274l14 71h423l-17 -79h-324l132 -273l-249 -283h352l-17 -79h-455z" />
    <glyph glyph-name="uni01AA" unicode="&#x1aa;" horiz-adv-x="292" 
d="M165 -168q26 0 69 13v-67q-15 -7 -40 -12.5t-46 -5.5q-62 0 -92.5 30.5t-30.5 86.5q0 30 10 75l128 595h-27q-53 0 -83 27.5t-30 76.5q0 56 35 87.5t100 31.5q52 0 81.5 -29.5t29.5 -80.5q0 -23 -4 -40l-143 -673q-8 -37 -8 -59q0 -56 51 -56zM146 698q-21 0 -32 -12
t-11 -30q0 -19 12 -28t30 -9h32q6 23 6 38q0 20 -9.5 30.5t-27.5 10.5z" />
    <glyph glyph-name="uni01AB" unicode="&#x1ab;" horiz-adv-x="332" 
d="M198 62q37 0 78 13l-43 -201q-13 -59 -42 -86.5t-80 -27.5q-33 0 -54 11v73q27 -9 46 -9q22 0 34 11.5t20 45.5l21 98q-60 1 -90.5 31.5t-30.5 85.5q0 31 9 71l61 291h-83l8 40l90 38l62 111h52l-27 -122h135l-14 -67h-134l-62 -292q-9 -40 -9 -60q0 -23 12 -39t41 -16z
" />
    <glyph glyph-name="uni01AC" unicode="&#x1ac;" horiz-adv-x="540" 
d="M281 0h-90l134 635h-92q-38 0 -57 -16.5t-19 -53.5q0 -18 5 -32h-75q-7 14 -7 38q0 69 42.5 106t118.5 37h387l-16 -79h-196z" />
    <glyph glyph-name="uni01AD" unicode="&#x1ad;" horiz-adv-x="332" 
d="M198 62q30 0 71 13v-67q-14 -7 -39.5 -12.5t-44.5 -5.5q-62 0 -95 29.5t-33 87.5q0 31 9 71l61 291h-83l8 40l92 39l14 63q18 84 55 119t105 35q36 0 68 -13v-73q-31 10 -65 10q-60 0 -74 -68l-18 -85h135l-14 -67h-134l-62 -292q-9 -40 -9 -60q0 -23 12 -39t41 -16z" />
    <glyph glyph-name="uni01AE" unicode="&#x1ae;" horiz-adv-x="500" 
d="M286 635h-196l17 79h482l-16 -79h-196l-151 -714q-4 -17 -4 -35q0 -47 48 -47q23 0 44 10v-76q-11 -6 -30.5 -9.5t-39.5 -3.5q-53 0 -84.5 29t-31.5 82q0 20 6 46z" />
    <glyph glyph-name="Uhorn" unicode="&#x1af;" horiz-adv-x="722" 
d="M785.5 705.5q5.5 -7.5 3.5 -20.5q-10 -61 -49.5 -113t-106.5 -74l-6 -35l-7 -47q-17 -112 -64 -385q-6 -33 -43 -33q-33 0 -33 28q0 8 1 12l13 76q-35 -50 -92.5 -81t-128.5 -31q-68 0 -114 28.5t-68 73.5t-22 95q0 33 16 119t53 267l17 84q6 33 43 33q16 0 25 -6.5
t9 -19.5q0 -5 -1 -8q-44 -204 -63 -310t-19 -159q0 -58 31.5 -92t92.5 -34q58 0 112 31t90.5 79.5t46.5 98.5q14 73 33.5 187.5t32.5 203.5q5 35 41 35q17 0 26 -8t9 -21q0 -5 -1 -8l-21 -118q37 18 61 53.5t32 79.5q5 27 32 27q13 0 18.5 -7.5z" />
    <glyph glyph-name="uhorn" unicode="&#x1b0;" horiz-adv-x="547" 
d="M613.5 508.5q5.5 -7.5 3.5 -20.5q-10 -60 -47.5 -111t-101.5 -74l-32 -193q-2 -14 -2 -19q0 -18 6 -32.5t6 -18.5q0 -11 -13.5 -22t-24.5 -11q-21 0 -35 19.5t-14 41.5v8q-29 -37 -73 -56.5t-94 -19.5q-137 0 -137 150q0 28 10.5 91t22.5 129q16 83 19 104q2 13 14 21
t28 8q17 0 26.5 -8t7.5 -21q-6 -35 -11.5 -64.5t-9.5 -53.5q-11 -61 -20.5 -118.5t-9.5 -81.5q0 -47 19.5 -70t59.5 -23q134 0 178 245l30 167q3 16 14.5 25t28.5 9q18 0 27 -9t7 -25l-19 -115q34 19 56 52.5t30 76.5q5 27 32 27q13 0 18.5 -7.5z" />
    <glyph glyph-name="uni01B1" unicode="&#x1b1;" horiz-adv-x="731" 
d="M351 68q72 0 128 40t86 112t30 162q0 83 -23.5 145t-78.5 117l14 70h280l-16 -79h-179q48 -47 73 -112.5t25 -144.5q0 -110 -45 -201t-124 -139.5t-177 -48.5q-83 0 -144 33.5t-93.5 96.5t-32.5 145q0 114 55.5 210.5t155.5 160.5h-169l16 79h288l-14 -70
q-116 -69 -176.5 -166.5t-60.5 -214.5q0 -91 47.5 -143t134.5 -52z" />
    <glyph glyph-name="uni01B2" unicode="&#x1b2;" horiz-adv-x="554" 
d="M596 603q0 -27 -6.5 -53t-18.5 -52.5t-42 -74.5t-264 -423h-96l-77 714h88l46 -465q9 -89 9 -157q37 80 84 155l129 204q27 43 42.5 79t15.5 69q0 46 -45 46q-23 0 -46 -10v76q11 6 30 9.5t36 3.5q55 0 85 -31.5t30 -89.5z" />
    <glyph glyph-name="uni01B3" unicode="&#x1b3;" horiz-adv-x="528" 
d="M113 649q-17 0 -33 -7v71q24 12 58 12q40 0 62 -19.5t31 -62.5l59 -281l230 352h101l-306 -449l-55 -265h-90l58 268l-76 346q-8 35 -39 35z" />
    <glyph glyph-name="uni01B4" unicode="&#x1b4;" horiz-adv-x="492" 
d="M48 536h88l35 -265q5 -37 9 -95t4 -104h3q13 32 38 87t40 83l110 207q32 59 55 78t59 19q31 0 52 -12l-13 -65q-15 5 -25 5q-14 0 -24 -10.5t-27 -43.5l-277 -510q-44 -83 -90 -116.5t-110 -33.5q-39 0 -69 10v71q31 -9 64 -9q40 0 69 25t55 73l35 62z" />
    <glyph glyph-name="uni01B5" unicode="&#x1b5;" horiz-adv-x="530" 
d="M102 407h168l179 227h-315l17 80h422l-13 -71l-187 -236h117l-15 -71h-158l-202 -256h335l-16 -80h-444l14 70l210 266h-127z" />
    <glyph glyph-name="uni01B6" unicode="&#x1b6;" horiz-adv-x="444" 
d="M66 313h137l127 157h-230l14 66h325l-14 -71l-125 -152h95l-15 -70h-137l-145 -177h255l-13 -66h-355l12 60l149 183h-95z" />
    <glyph glyph-name="uni01B7" unicode="&#x1b7;" horiz-adv-x="528" 
d="M272 401q92 -2 144 -48t52 -128q0 -71 -35 -124t-100.5 -82t-154.5 -29q-48 0 -94.5 11.5t-76.5 28.5v84q39 -22 84.5 -36t91.5 -14q90 0 140.5 42t50.5 116q0 54 -35 82.5t-104 28.5h-78l14 70l245 231h-279l17 80h392l-15 -71z" />
    </font>
</defs>
</svg>
