<?xml version="1.0" standalone="no"?>
<!DOCTYPE svg PUBLIC "-//W3C//DTD SVG 1.1//EN" "http://www.w3.org/Graphics/SVG/1.1/DTD/svg11.dtd" >
<svg xmlns="http://www.w3.org/2000/svg" xmlns:xlink="http://www.w3.org/1999/xlink" version="1.1">
<metadata>
Created by FontForge 20190801 at Mon Feb  8 12:16:23 2021
 By root
Copyright 2018 The Mali Project Authors (https://github.com/cadsondemak/Mali)
</metadata>
<defs>
<font id="Mali-Bold" horiz-adv-x="360" >
  <font-face 
    font-family="Mali"
    font-weight="700"
    font-stretch="normal"
    units-per-em="1000"
    panose-1="0 0 8 0 0 0 0 0 0 0"
    ascent="800"
    descent="-200"
    x-height="510"
    cap-height="711"
    bbox="-213 -313 1507 1210"
    underline-thickness="50"
    underline-position="-100"
    unicode-range="U+0001-206F"
  />
<missing-glyph horiz-adv-x="364" 
d="M33 0v666h265v-666h-265zM66 33h199v600h-199v-600z" />
    <glyph glyph-name=".notdef" horiz-adv-x="364" 
d="M33 0v666h265v-666h-265zM66 33h199v600h-199v-600z" />
    <glyph glyph-name=".null" horiz-adv-x="0" 
 />
    <glyph glyph-name="nonmarkingreturn" unicode="&#xd;" 
 />
    <glyph glyph-name="NULL" 
 />
    <glyph glyph-name="NULL" 
 />
    <glyph glyph-name="uni0001" 
 />
    <glyph glyph-name="uni0002" 
 />
    <glyph glyph-name="uni0003" 
 />
    <glyph glyph-name="uni0004" 
 />
    <glyph glyph-name="uni0005" 
 />
    <glyph glyph-name="uni0006" 
 />
    <glyph glyph-name="uni0007" 
 />
    <glyph glyph-name="uni0008" 
 />
    <glyph glyph-name="uni0009" unicode="&#x9;" 
 />
    <glyph glyph-name="uni000A" unicode="&#xa;" 
 />
    <glyph glyph-name="uni000B" 
 />
    <glyph glyph-name="uni000C" 
 />
    <glyph glyph-name="uni000E" 
 />
    <glyph glyph-name="uni000F" 
 />
    <glyph glyph-name="uni0010" 
 />
    <glyph glyph-name="uni0011" 
 />
    <glyph glyph-name="uni0012" 
 />
    <glyph glyph-name="uni0013" 
 />
    <glyph glyph-name="uni0014" 
 />
    <glyph glyph-name="uni0015" 
 />
    <glyph glyph-name="uni0016" 
 />
    <glyph glyph-name="uni0017" 
 />
    <glyph glyph-name="uni0018" 
 />
    <glyph glyph-name="uni0019" 
 />
    <glyph glyph-name="uni001A" 
 />
    <glyph glyph-name="uni001B" 
 />
    <glyph glyph-name="uni001C" 
 />
    <glyph glyph-name="uni001D" 
 />
    <glyph glyph-name="uni001E" 
 />
    <glyph glyph-name="uni001F" 
 />
    <glyph glyph-name="space" unicode=" " 
 />
    <glyph glyph-name="exclam" unicode="!" horiz-adv-x="277" 
d="M106.5 225.5q-13.5 15.5 -14.5 41.5l-6 394q-1 25 14.5 41.5t38.5 16.5q24 0 37.5 -15.5t13.5 -42.5l5 -389q0 -26 -15 -44t-37 -18q-23 0 -36.5 15.5zM76 26.5q-26 26.5 -26 62.5q0 34 26.5 60t61.5 26t62 -26t27 -60q0 -35 -27 -62t-62 -27q-36 0 -62 26.5z" />
    <glyph glyph-name="quotedbl" unicode="&#x22;" horiz-adv-x="439" 
d="M94 481q-14 10 -14 28q0 31 1 53l1 119q0 16 13.5 25t38.5 9q26 0 40.5 -9t14.5 -25l-1 -174q0 -17 -14.5 -26.5t-40.5 -9.5q-25 0 -39 10zM264 481q-14 10 -14 28q0 31 1 53l1 119q0 16 13.5 25t38.5 9q26 0 40.5 -9t14.5 -25l-1 -174q0 -17 -14.5 -26.5t-40.5 -9.5
q-25 0 -39 10z" />
    <glyph glyph-name="numbersign" unicode="#" horiz-adv-x="625" 
d="M539 208.5q14 -13.5 14 -35.5q0 -20 -14.5 -34t-35.5 -14h-41l-14 -87q-3 -20 -16 -31t-35 -11q-20 0 -34.5 13.5t-11.5 31.5l14 84h-141l-13 -87q-3 -20 -16 -31.5t-32 -11.5q-22 0 -35.5 13t-13.5 35q0 7 1 10l11 72h-14q-23 0 -37.5 13t-14.5 35q0 20 14.5 34t36.5 14
h30l20 134h-17q-23 0 -37.5 12.5t-14.5 34.5t14.5 36t37.5 14h32l19 124q8 48 47 48q25 0 38 -13.5t13 -34.5q0 -7 -1 -11l-18 -114l143 -2l22 136q4 19 17 30t31 11q21 0 34.5 -14t13.5 -35l-1 -9l-19 -120q23 -1 36.5 -14t13.5 -35t-14.5 -34.5t-37.5 -12.5h-14l-21 -130
h25q22 0 36 -13.5zM380 222l21 131l-141 1l-21 -133z" />
    <glyph glyph-name="dollar" unicode="$" horiz-adv-x="618" 
d="M503 65q-55 -53 -158 -62v-82q0 -26 -32 -26q-14 0 -24 6t-10 16q1 33 1 86q-67 6 -117 38.5t-76.5 82.5t-26.5 106q0 36 16.5 52.5t49.5 16.5q53 0 64 -64q17 -97 92 -114q0 104 1 181q-8 2 -71.5 20t-107 64.5t-43.5 113.5q0 56 29 100.5t79 71.5t112 33v79q0 9 8.5 17
t23.5 8t25 -7.5t10 -15.5v-82q60 -7 108 -37t74.5 -73.5t26.5 -89.5q0 -30 -4 -45t-17 -22.5t-41 -7.5q-38 0 -52.5 13.5t-15.5 50.5q-1 33 -20.5 62.5t-58.5 37.5v-180v-14q56 -15 99.5 -34t77 -59t33.5 -105q0 -83 -55 -136zM219.5 451q21.5 -19 63.5 -34l-1 176
q-84 -13 -84 -95q0 -28 21.5 -47zM403.5 145.5q18.5 21.5 18.5 52.5q0 30 -19.5 49.5t-54.5 32.5l-1 -161q38 5 56.5 26.5z" />
    <glyph glyph-name="percent" unicode="%" horiz-adv-x="970" 
d="M306.5 12.5q-21.5 15.5 -21.5 38.5q0 10 8 28l250 611q7 17 26 27t42 10q29 0 50.5 -15.5t21.5 -37.5q0 -8 -9 -31l-246 -606q-7 -19 -26.5 -29.5t-43.5 -10.5q-30 0 -51.5 15.5zM181.5 424.5q-37.5 19.5 -59.5 53.5t-22 76q0 41 22 74.5t59.5 52.5t83.5 19t83.5 -19
t58.5 -53t21 -76t-21.5 -75.5t-58.5 -52.5t-83 -19t-83.5 19.5zM297 518q13 13 13 33q0 21 -14 35t-31 14q-18 0 -32 -14t-14 -35q0 -20 14 -33t34 -13q17 0 30 13zM623 70.5q-38 19.5 -60 54t-22 75.5t22 74.5t59.5 52.5t83.5 19t83.5 -19.5t59 -53.5t21.5 -75
q0 -42 -21.5 -75.5t-59 -52.5t-82.5 -19q-46 0 -84 19.5zM740.5 164.5q10.5 13.5 10.5 33.5t-11 34.5t-34 14.5t-33.5 -13.5t-10.5 -35.5q0 -47 44 -47q24 0 34.5 13.5z" />
    <glyph glyph-name="ampersand" unicode="&#x26;" horiz-adv-x="749" 
d="M689 74q0 -24 -18 -45t-43 -21q-21 0 -43 9q-49 21 -89 45q-82 -50 -177 -50q-71 0 -125.5 28.5t-84 75.5t-29.5 100q0 46 21.5 93t58.5 84q-33 24 -52 58.5t-19 75.5q0 48 25.5 86t70 59t97.5 21q54 0 98 -22t70 -62t26 -94q0 -60 -31 -90.5t-89 -47.5q71 -120 117 -163
q13 28 13 50t-10 54q-2 6 -5 14.5t-3 14.5q0 17 21.5 31t45.5 14q41 0 61 -30q10 -15 17.5 -43.5t7.5 -56.5q0 -59 -35 -113l35 -15l28 -12q40 -19 40 -48zM239.5 576q-19.5 -18 -19.5 -55q0 -59 61 -65q30 4 47.5 17t17.5 49q0 37 -19 54.5t-43 17.5q-25 0 -44.5 -18z
M398 136q-96 79 -136 208q-26 -20 -39 -53.5t-13 -66.5q0 -52 30 -82t76 -30q42 0 82 24z" />
    <glyph glyph-name="quotesingle" unicode="'" horiz-adv-x="267" 
d="M94 481q-14 10 -14 28q0 31 1 53l1 119q0 16 13.5 25t38.5 9q26 0 40.5 -9t14.5 -25l-1 -174q0 -17 -14.5 -26.5t-40.5 -9.5q-25 0 -39 10z" />
    <glyph glyph-name="parenleft" unicode="(" horiz-adv-x="377" 
d="M243 -122.5q-8 2.5 -17 10.5q-83 71 -129.5 180.5t-46.5 236.5q0 92 23 178t65 151.5t97 99.5q15 10 31 10q23 0 42 -15t19 -36q0 -20 -9 -31t-18.5 -17.5t-12.5 -8.5q-59 -44 -90.5 -131.5t-31.5 -199.5q0 -88 20.5 -151.5t47.5 -101t65 -77.5q25 -25 25 -50
q0 -19 -18.5 -34.5t-38.5 -15.5q-15 0 -23 2.5z" />
    <glyph glyph-name="parenright" unicode=")" horiz-adv-x="377" 
d="M69 -110q-19 15 -19 36q0 19 11 31.5t19 18.5t10 7q58 47 90 134t32 197q0 89 -20.5 152t-47.5 101t-65 76q-25 27 -25 51q0 19 18.5 34.5t38.5 15.5q15 0 23 -2.5t17 -10.5q83 -72 129.5 -181.5t46.5 -235.5q0 -138 -50.5 -256t-133.5 -173q-17 -10 -32 -10
q-23 0 -42 15z" />
    <glyph glyph-name="asterisk" unicode="*" horiz-adv-x="507" 
d="M429 440q4 -7 4 -19q0 -15 -11.5 -28t-24.5 -13q-14 0 -33 8l-61 32l1 -72q0 -15 -13.5 -24.5t-33.5 -9.5q-21 0 -33 9t-12 25q0 41 -1 73l-59 -28q-22 -11 -31 -11q-14 0 -26 12.5t-12 28.5q0 19 18 27l109 47l-124 52q-16 7 -16 29q0 14 10.5 26t21.5 12q16 0 32 -9
l76 -37l-1 83q0 37 46 37q24 0 35 -9t11 -28l1 -83l62 32q2 1 14 6.5t21 5.5q14 0 26 -12t12 -27q0 -20 -23 -32l-111 -46l111 -45q11 -5 15 -12z" />
    <glyph glyph-name="plus" unicode="+" horiz-adv-x="560" 
d="M503 345q13 -14 13 -41q0 -25 -14.5 -37.5t-46.5 -12.5h-124v-112q0 -58 -54 -58q-31 0 -42 14.5t-11 45.5v110q-47 0 -123 2q-29 1 -42.5 13.5t-13.5 37.5q0 55 55 55q78 0 123 -1v104q0 55 55 55q29 0 41 -14t12 -41v-105q50 -1 127 -1q32 0 45 -14z" />
    <glyph glyph-name="comma" unicode="," horiz-adv-x="307" 
d="M226 157.5q29 -31.5 29 -90.5q0 -53 -20 -97.5t-55.5 -71t-80.5 -26.5q-46 0 -46 35q0 17 10.5 25.5t27.5 8.5q29 0 54 20.5t39 49.5q-21 -8 -42 -8q-37 0 -64.5 28t-27.5 65q0 39 28 66t68 27q51 0 80 -31.5zM176 96q0 14 -8.5 22.5t-22.5 8.5q-13 0 -22 -8.5t-9 -22.5
q0 -31 31 -31t31 31z" />
    <glyph glyph-name="hyphen" unicode="-" horiz-adv-x="422" 
d="M53.5 330q-13.5 17 -13.5 42t15 41t38 16h110q78 0 116 3q29 2 46 -14t17 -45q0 -24 -17 -41t-43 -18q-48 -2 -84 -2l-149 1q-22 0 -35.5 17z" />
    <glyph glyph-name="period" unicode="." horiz-adv-x="308" 
d="M93.5 23.5q-23.5 23.5 -23.5 59.5q0 37 24.5 62t60.5 25q33 0 58 -26t25 -61q0 -34 -25.5 -58.5t-60.5 -24.5t-58.5 23.5z" />
    <glyph glyph-name="slash" unicode="/" horiz-adv-x="584" 
d="M123.5 8q-16.5 8 -27.5 27q-6 11 -6 23q0 11 7 34l270 789q10 32 54 32q20 0 40 -11t27 -26q6 -12 6 -26q0 -11 -6 -27l-269 -783q-7 -19 -20 -29.5t-29 -10.5q-30 0 -46.5 8z" />
    <glyph glyph-name="zero" unicode="0" horiz-adv-x="643" 
d="M169 53q-65 39 -101.5 108t-36.5 157q0 99 36.5 176.5t102.5 121t150 43.5q86 0 152.5 -43t103 -120.5t36.5 -177.5q0 -88 -37.5 -157t-104.5 -108t-152 -39q-84 0 -149 39zM424.5 179q40.5 52 40.5 139q0 64 -19 116t-51.5 82t-72.5 30t-73 -30t-52 -82t-19 -116
q0 -56 17.5 -99.5t49 -67.5t71.5 -24q68 0 108.5 52z" />
    <glyph glyph-name="one" unicode="1" horiz-adv-x="443" 
d="M356 61q0 -26 -20.5 -41.5t-53.5 -15.5q-32 0 -48 15t-16 42v404q-18 -23 -38 -44q-6 -6 -17.5 -10t-23.5 -4q-30 0 -47 15t-17 40q0 8 5 20.5t15 23.5q49 59 106 135q9 13 29 21.5t42 8.5q36 0 59.5 -18.5t23.5 -47.5z" />
    <glyph glyph-name="two" unicode="2" horiz-adv-x="559" 
d="M497.5 107q21.5 -16 21.5 -40q0 -25 -21.5 -41.5t-52.5 -16.5q-11 0 -53 2q-93 3 -116 3q-101 0 -169 -4q-29 0 -48 14t-19 36q0 5 1 8q11 69 65 133.5t161 139.5q96 68 96 150q0 44 -24.5 70.5t-65.5 26.5q-35 0 -60 -29t-26 -72q-1 -28 -18.5 -40t-53.5 -12
q-33 0 -50 16.5t-17 46.5q0 56 31 102.5t84.5 73.5t117.5 27q65 0 117.5 -27.5t82 -75.5t29.5 -108q0 -68 -39.5 -128t-120.5 -115q-100 -67 -136 -122q23 1 62 1q105 0 169 -3q31 0 52.5 -16z" />
    <glyph glyph-name="three" unicode="3" horiz-adv-x="600" 
d="M570 202q0 -55 -32.5 -100.5t-88.5 -71.5t-124 -26q-144 0 -219.5 65t-75.5 189q0 31 19.5 48.5t53.5 17.5q69 0 69 -59q0 -70 35.5 -108.5t109.5 -38.5q44 0 79.5 20.5t35.5 63.5q0 97 -113 97q-30 0 -44 14.5t-14 39.5q0 29 13 43.5t43 14.5q50 0 71.5 18.5t21.5 60.5
q0 33 -21.5 56t-54.5 23q-38 0 -64.5 -24.5t-26.5 -61.5q0 -15 3 -33q4 -21 -14 -38.5t-55 -17.5q-22 0 -40.5 9t-25.5 25q-7 19 -9.5 31t-2.5 29q0 54 31 98t84.5 70t117.5 26q61 0 113 -25.5t82.5 -69.5t30.5 -97q0 -47 -20.5 -81t-54.5 -53q87 -47 87 -154z" />
    <glyph glyph-name="four" unicode="4" horiz-adv-x="634" 
d="M594 286q15 -16 15 -45q0 -25 -11 -39t-43 -20q-27 -5 -71 -7l-5 -118q-1 -24 -21 -40.5t-53 -16.5q-34 0 -50.5 18t-15.5 44l5 110h-112q-87 0 -153 17q-54 14 -54 54q0 18 10 37q70 134 131.5 231t126.5 162q15 15 43 15q29 0 46 -16.5t17 -41.5q0 -13 -6 -26t-22 -30
q-55 -61 -105.5 -140t-70.5 -127q-3 -6 -3 -10q0 -7 19 -10q27 -4 117 -4h20l8 183q1 25 17.5 41t49.5 16q35 0 54.5 -18t18.5 -46l-7 -167q46 4 66 7q24 3 39 -13z" />
    <glyph glyph-name="five" unicode="5" horiz-adv-x="584" 
d="M103 60.5q-68 60.5 -68 171.5q0 28 20.5 44.5t52.5 16.5q73 0 74 -56q1 -65 26.5 -92.5t80.5 -27.5q59 0 85.5 26.5t26.5 89.5q0 137 -114 137q-26 0 -52 -3.5t-67 -14.5q-13 -4 -28 -4q-28 0 -46 15t-17 40l1 52q5 142 5 229q84 -3 225 -3q35 0 91 2l67 1q29 0 41 -14.5
t12 -41.5q0 -26 -15.5 -42t-44.5 -16q-37 0 -59 -1l-92 -1h-83q-2 -46 -2 -77q0 -17 12 -17q4 0 12 2q41 9 92 9q50 0 99 -31t80 -88.5t31 -132.5q0 -107 -69 -170t-192 -63q-117 0 -185 60.5z" />
    <glyph glyph-name="six" unicode="6" horiz-adv-x="605" 
d="M443 402.5q57 -28.5 89 -80t32 -116.5q0 -60 -32 -106t-90.5 -71t-133.5 -25q-136 0 -207 78t-71 227q0 111 36 194.5t103 128.5t157 45q73 0 129 -38.5t94 -103.5q7 -11 9 -18t2 -15q0 -23 -22.5 -40t-43.5 -17q-18 0 -29 7.5t-20 18t-13 15.5q-5 5 -26.5 29.5t-45 36.5
t-49.5 12q-53 0 -95 -48.5t-54 -144.5q28 27 68 43.5t82 16.5q74 0 131 -28.5zM392 141.5q28 24.5 28 68.5q0 50 -29.5 79t-77.5 29q-56 0 -86 -25.5t-30 -73.5q0 -50 29 -76t86 -26q52 0 80 24.5z" />
    <glyph glyph-name="seven" unicode="7" horiz-adv-x="557" 
d="M510.5 378.5q17.5 -15.5 17.5 -41.5t-16.5 -42t-45.5 -16h-46q-37 -112 -91 -242q-6 -16 -27 -26.5t-44 -10.5q-32 0 -52.5 15.5t-20.5 38.5q0 14 5 24q29 65 74 199h-25q-31 0 -47 15t-16 41t16.5 42t46.5 16h65q26 79 26 126q0 25 -6.5 37t-22 15.5t-49.5 3.5
q-71 0 -172 -24q-12 -2 -17 -2q-25 0 -40.5 15.5t-15.5 40.5q0 41 53 59q32 10 83 19t108 9q107 0 165 -42.5t58 -123.5q0 -46 -21 -130h7q33 0 50.5 -15.5z" />
    <glyph glyph-name="eight" unicode="8" horiz-adv-x="620" 
d="M553.5 351.5q36.5 -47.5 36.5 -121.5q0 -67 -34.5 -118t-97 -79t-144.5 -28q-83 0 -147.5 28.5t-100.5 80.5t-36 120q0 65 46.5 116.5t122.5 71.5q-33 13 -54 40.5t-21 62.5q0 47 25 84t68.5 57t96.5 20q54 0 96.5 -20.5t66.5 -57.5t24 -84q0 -36 -17 -62.5t-46 -39.5
q79 -23 115.5 -70.5zM278.5 558.5q-15.5 -15.5 -15.5 -41.5q0 -25 15 -40t38 -15t37.5 15.5t14.5 39.5q0 26 -15 41.5t-37 15.5t-37.5 -15.5zM413.5 146.5q35.5 32.5 35.5 83.5q0 53 -39.5 85t-99.5 32q-41 0 -72.5 -16t-48.5 -42t-17 -55q0 -58 37.5 -89t106.5 -31
q62 0 97.5 32.5z" />
    <glyph glyph-name="nine" unicode="9" horiz-adv-x="601" 
d="M448 646.5q64 -37.5 98.5 -106.5t34.5 -162q0 -116 -34 -200.5t-97.5 -129.5t-151.5 -45q-121 0 -194.5 49.5t-73.5 141.5q0 28 19 44t51 16q28 0 47.5 -16t19.5 -44q0 -42 34.5 -61.5t93.5 -19.5q60 0 103.5 49t56.5 150q-24 -32 -64 -52t-90 -20q-120 0 -188 58
t-68 166q0 62 33 112.5t91 79t129 28.5q86 0 150 -37.5zM383.5 376.5q32.5 31.5 32.5 81.5t-33 82t-85 32q-48 0 -79.5 -31.5t-31.5 -79.5q0 -58 28 -87t86 -29q50 0 82.5 31.5z" />
    <glyph glyph-name="colon" unicode=":" horiz-adv-x="317" 
d="M89.5 315q-24.5 25 -24.5 67q0 39 25.5 63t66.5 24q40 0 65.5 -24t25.5 -63q0 -42 -25 -67t-67 -25t-66.5 25zM176 358q8 8 8 20t-9 20t-18 8q-10 0 -18.5 -7.5t-8.5 -20.5q0 -14 8 -21t19 -7t19 8zM95.5 37.5q-25.5 26.5 -25.5 65.5q0 38 25.5 64t64.5 26t65.5 -26
t26.5 -64q0 -41 -25.5 -66.5t-66.5 -25.5q-39 0 -64.5 26.5zM187 99q0 9 -7.5 16t-17.5 7q-12 0 -19 -7t-7 -16q0 -12 7.5 -19.5t18.5 -7.5q25 0 25 27z" />
    <glyph glyph-name="semicolon" unicode=";" horiz-adv-x="365" 
d="M113.5 315q-24.5 25 -24.5 67q0 39 25.5 63t66.5 24q40 0 65.5 -24t25.5 -63q0 -42 -25 -67t-67 -25t-66.5 25zM162.5 398.5q-8.5 -7.5 -8.5 -20.5q0 -14 8 -21t19 -7t19 8t8 20t-9 20t-18 8q-10 0 -18.5 -7.5zM256 157.5q29 -31.5 29 -90.5q0 -53 -20 -97.5t-55.5 -71
t-80.5 -26.5q-46 0 -46 35q0 17 10.5 25.5t27.5 8.5q29 0 53.5 20.5t38.5 49.5q-17 -8 -41 -8q-37 0 -64.5 28t-27.5 65q0 39 28 66t68 27q51 0 80 -31.5zM206 96q0 14 -8.5 22.5t-22.5 8.5q-13 0 -22 -8.5t-9 -22.5q0 -31 31 -31t31 31z" />
    <glyph glyph-name="less" unicode="&#x3c;" horiz-adv-x="560" 
d="M393.5 110.5q-30.5 10.5 -152.5 58.5q-103 41 -147 73t-44 69q0 38 48.5 73.5t149.5 73.5q52 20 122 41.5t90 21.5q24 0 37.5 -16t13.5 -39q0 -21 -13.5 -34.5t-42.5 -21.5l-33 -9q-8 -2 -46 -12.5t-87 -28.5q-56 -21 -82.5 -32t-26.5 -19q0 -5 61 -25q12 -4 43 -15
q86 -33 168 -62q47 -17 47 -55q0 -23 -17.5 -37.5t-43.5 -14.5q-14 0 -44.5 10.5z" />
    <glyph glyph-name="equal" unicode="=" horiz-adv-x="560" 
d="M59 359q-21 15 -21 38q0 26 23.5 41t60.5 15l319 3q33 0 56 -16t23 -40t-23 -38.5t-58 -14.5l-328 -3q-31 0 -52 15zM59 177.5q-21 15.5 -21 39.5q0 25 22 39.5t59 16.5l325 10q33 1 55.5 -15t22.5 -40q0 -25 -21.5 -39.5t-56.5 -15.5l-333 -10q-31 -1 -52 14.5z" />
    <glyph glyph-name="greater" unicode="&#x3e;" horiz-adv-x="560" 
d="M83 112.5q-15 12.5 -15 34.5q0 44 41 60q62 26 168 65q79 29 79 39q0 6 -16.5 14t-65.5 29q-48 20 -84.5 31.5t-84.5 24.5q-55 15 -55 56q0 24 15 37t39 13t93 -20t116 -38q103 -40 150.5 -74.5t47.5 -72.5q0 -37 -43 -67.5t-148 -74.5q-91 -38 -136 -53.5t-61 -15.5
q-25 0 -40 12.5z" />
    <glyph glyph-name="question" unicode="?" horiz-adv-x="549" 
d="M240.5 205.5q-13.5 15.5 -13.5 40.5q0 41 13.5 72t32.5 52t49 48q34 30 50 51t16 49q0 52 -30 85t-80 33q-61 0 -89 -25t-28 -75q0 -21 11.5 -35t28.5 -14q25 0 39.5 -14t14.5 -39q0 -21 -15.5 -34.5t-38.5 -13.5q-38 0 -70.5 20.5t-51.5 55t-19 74.5q0 90 58.5 143
t157.5 53q61 0 109.5 -28t76 -76.5t27.5 -109.5q0 -41 -13.5 -72.5t-32.5 -53t-50 -49.5q-33 -28 -49 -49t-16 -48q0 -25 -14.5 -40.5t-37.5 -15.5q-22 0 -35.5 15.5zM225 22.5q-22 21.5 -22 52.5q0 29 22 50.5t53 21.5q29 0 50.5 -21.5t21.5 -50.5q0 -30 -21 -52t-51 -22
q-31 0 -53 21.5z" />
    <glyph glyph-name="at" unicode="@" horiz-adv-x="903" 
d="M618 274l-5 -25q-7 -35 -8.5 -50.5t-1.5 -36.5q0 -11 7 -21.5t23 -10.5q32 0 51.5 44t19.5 108q0 106 -59.5 170.5t-175.5 64.5q-83 0 -144 -34t-93.5 -96.5t-32.5 -145.5q0 -118 68.5 -187.5t206.5 -69.5q29 0 51.5 3.5t70.5 14.5q4 1 11 1q20 0 33.5 -14t13.5 -33
q0 -14 -10.5 -24t-34.5 -19q-63 -23 -149 -23q-116 0 -202 47t-132 127.5t-46 178.5q0 104 50.5 187.5t137.5 131.5t192 48q101 0 184 -44t131 -119.5t48 -166.5q0 -67 -25 -123t-68 -89t-95 -33q-37 0 -63.5 16.5t-38.5 41.5q-41 -34 -103 -34q-77 0 -120.5 51.5
t-43.5 133.5q0 58 22.5 100.5t60.5 65t86 22.5q61 0 97 -38q5 16 20 25.5t37 9.5q24 0 38.5 -11.5t14.5 -32.5q0 -9 -3 -20q-12 -47 -21 -91zM486.5 330q-19.5 17 -42.5 17q-28 0 -46.5 -27.5t-18.5 -73.5q0 -44 18 -70.5t47 -26.5q22 0 38.5 14.5t16.5 39.5l2 29l5 61
q0 20 -19.5 37z" />
    <glyph glyph-name="A" unicode="A" horiz-adv-x="697" 
d="M622 108l12 -39q3 -10 3 -19q0 -29 -24.5 -45t-57.5 -16q-26 0 -45 11t-25 31l-34 129l-204 1l-35 -127q-6 -23 -24.5 -33.5t-44.5 -10.5q-33 0 -58 16.5t-25 43.5q0 10 3 20l115 346l56 171q23 68 50 96.5t73 28.5q44 0 69.5 -25.5t46.5 -90.5q55 -174 96 -309h27
q49 0 49 -63q0 -64 -37 -64h-1zM417 289l-13 47l-25 88l-10 35q-6 22 -10 32t-8 10q-5 0 -8 -9t-9 -32l-8 -29l-41 -141z" />
    <glyph glyph-name="B" unicode="B" horiz-adv-x="674" 
d="M70.5 114q10.5 20 34.5 19h10q9 114 9 251l-1 165l-5 -1q-15 -4 -26.5 10.5t-11.5 34.5q0 28 16.5 46.5t53.5 33.5q43 18 92 26.5t94 8.5q84 0 149.5 -23.5t102 -68t36.5 -105.5q0 -54 -35.5 -101.5t-108.5 -62.5q72 -19 103.5 -59.5t31.5 -91.5q0 -64 -34.5 -109
t-93.5 -68t-132 -23q-44 0 -112 5q-18 -34 -73 -34q-46 0 -62 37h-5q-22 0 -32.5 18t-10.5 46q0 26 10.5 46zM338 120q61 0 97 21t36 66q0 49 -33.5 68.5t-76.5 19.5q-39 0 -56 10.5t-17 44.5q0 32 18.5 45t52.5 13q121 0 121 91q0 43 -37 66.5t-111 23.5q-27 0 -65 -9
q2 -77 2 -196q0 -65 -2.5 -112.5t-10.5 -148.5q39 -3 82 -3z" />
    <glyph glyph-name="C" unicode="C" horiz-adv-x="742" 
d="M691.5 303q20.5 -19 20.5 -51q0 -73 -40.5 -131.5t-111.5 -91.5t-159 -33q-104 0 -183.5 41.5t-123.5 118t-44 176.5q0 106 41.5 193.5t113.5 138t159 50.5q115 0 177 -54v5q0 19 19 33t48 14q34 0 53 -16.5t19 -47.5l-1 -96q-2 -88 -72 -88q-16 0 -31.5 6t-23.5 17
q-26 35 -42 53t-42 31t-64 13q-51 0 -99.5 -34t-79 -91.5t-30.5 -125.5q0 -60 27.5 -107t75 -73.5t103.5 -26.5q43 0 80 16t59.5 45.5t22.5 66.5q0 30 19 49t53 19q36 0 56.5 -19z" />
    <glyph glyph-name="D" unicode="D" horiz-adv-x="717" 
d="M561 593q106 -84 106 -231q0 -107 -55.5 -187.5t-157 -125t-236.5 -44.5h-65q-44 0 -63 15t-19 51q0 31 13.5 46.5t42.5 15.5h10l-12 441h-6q-22 0 -35.5 15.5t-13.5 46.5q0 34 15.5 50.5t39.5 16.5h13q17 17 56 17q45 0 60 -23q201 -20 307 -104zM403.5 173.5
q54.5 29.5 86.5 78t32 110.5q0 94 -68 141.5t-184 62.5l12 -430q67 8 121.5 37.5z" />
    <glyph glyph-name="E" unicode="E" horiz-adv-x="640" 
d="M530 146q30 0 47 -17.5t17 -47.5q0 -52 -54 -63q-45 -9 -168 -9h-32q-55 0 -104.5 3t-121.5 12q-44 6 -44 60q0 26 10 43.5t31 19.5h10q12 81 10 156h-7q-24 0 -35.5 16.5t-11.5 49.5q0 28 11.5 46t34.5 18h8q1 37 1 141q-34 14 -34 57q0 32 17 46.5t53 18.5q49 5 178 5
q125 0 191 -8q30 -3 46.5 -17.5t16.5 -44.5t-15 -48.5t-41 -16.5q-92 8 -162 8q-32 0 -82 -2l-26 -1l3 -140h23q50 0 122 -2l64 -2q39 0 39 -63q0 -30 -11.5 -47t-32.5 -17q-30 0 -51 1l-130 1h-22q-2 -90 -12 -162q38 -4 95 -4q83 0 156 9q5 1 13 1z" />
    <glyph glyph-name="F" unicode="F" horiz-adv-x="641" 
d="M287 574q4 -88 5 -157q14 1 44 1q57 0 94.5 -2t66.5 -9q28 -7 41 -22t13 -41q0 -29 -15.5 -47t-47.5 -15q-80 8 -148 8q-33 0 -48 -1q-1 -93 -7 -193l-2 -35q-2 -27 -20.5 -43.5t-52.5 -16.5q-35 0 -55 17t-18 44q9 112 10 217l-22 -3q-23 -3 -37.5 16t-14.5 49
q0 32 16.5 45.5t46.5 18.5l10 2q-1 94 -6 164h-8q-32 0 -47 14t-15 49q0 33 12.5 46.5t36.5 16.5l11 1q-1 3 -1 7q-2 25 18.5 40t56.5 15q66 0 72 -54v-3h81q53 0 107.5 -3.5t79.5 -8.5q31 -6 44 -22.5t13 -41.5q0 -30 -16 -48t-44 -15q-105 11 -190 11q-41 0 -64 -1z" />
    <glyph glyph-name="G" unicode="G" horiz-adv-x="770" 
d="M722.5 277q-17.5 -18 -49.5 -19q-11 -123 -80.5 -191t-190.5 -68q-100 0 -180.5 45.5t-126 125.5t-45.5 178q0 97 43.5 175.5t118.5 123.5t165 45q74 0 123.5 -28.5t70.5 -64.5v23q0 20 16.5 34t47.5 14q32 0 48.5 -14.5t17.5 -36.5q3 -83 -14 -116q-9 -16 -26.5 -24
t-39.5 -8q-20 0 -35 7.5t-39 28.5q-27 24 -56 39t-79 15q-62 0 -111.5 -26.5t-77.5 -75t-28 -111.5t28 -113t75 -78t100 -28q56 0 91 32.5t44 97.5l-101 2q-35 1 -51.5 18t-16.5 45q0 31 19 50t52 18l228 -5q38 -1 57.5 -17t19.5 -46q0 -29 -17.5 -47z" />
    <glyph glyph-name="H" unicode="H" horiz-adv-x="805" 
d="M719 368.5q16 -16.5 16 -49.5t-16 -49t-35 -16h-8l5 -187q1 -32 -18.5 -50.5t-53.5 -18.5q-33 0 -53 17.5t-21 47.5l-6 193l-255 4l-17 -215q-4 -52 -72 -52q-38 0 -57 15.5t-17 46.5l16 207h-6q-24 0 -37.5 17.5t-13.5 48.5t15 47.5t40 16.5h13l21 270q2 27 23 44t54 17
q35 0 53 -20t16 -52l-21 -261l241 -3l-8 268q-1 30 18.5 49t54.5 19q33 0 53 -18.5t21 -45.5l8 -274h13q18 0 34 -16.5z" />
    <glyph glyph-name="I" unicode="I" horiz-adv-x="510" 
d="M470 68q0 -66 -65 -66l-300 4q-33 1 -46.5 20t-13.5 45q0 33 17.5 49.5t42.5 16.5l83 -1q13 221 14 443q-43 -3 -72 -6l-33 -2q-28 0 -42.5 17t-14.5 48q0 32 14.5 47t42.5 19q22 3 78 6t112 3q54 0 126 -6q28 -2 42.5 -19.5t14.5 -45.5q0 -63 -63 -63q-15 0 -60 3
q-2 -272 -15 -446l74 -1q64 -1 64 -65z" />
    <glyph glyph-name="J" unicode="J" horiz-adv-x="659" 
d="M585 683.5q14 -16.5 14 -44.5t-15 -45.5t-46 -17.5h-28q-1 -32 -1 -88q0 -72 1 -107l1 -109q0 -127 -62.5 -200.5t-172.5 -73.5t-173 69.5t-63 191.5q0 36 19 55.5t57 19.5q34 0 52 -19.5t18 -50.5q1 -68 23.5 -101.5t61.5 -33.5q40 0 65.5 36t25.5 106v101q0 127 3 204
h-40q-34 0 -49 15t-15 48q0 28 13 44.5t33 17.5q72 3 127 3q63 0 103 -2q34 -2 48 -18.5z" />
    <glyph glyph-name="K" unicode="K" horiz-adv-x="658" 
d="M601 67q0 -30 -21 -50.5t-52 -20.5q-25 0 -45 14l-147 131l-119 105l-1 -62q-1 -42 -1 -112q0 -33 -20 -53.5t-53 -20.5q-38 0 -55 14.5t-17 51.5q0 43 2 131q3 72 3 158q0 65 -2 159l-1 125q0 28 20.5 46t53.5 18t52.5 -18.5t19.5 -48.5l1 -150q80 58 120 88l68 49
l92 67q20 14 46 14q33 0 53 -19t20 -49t-22 -48q-23 -18 -66.5 -46.5t-61.5 -40.5l-43 -27q-58 -38 -105.5 -68t-52.5 -33q43 -34 72 -57.5t47 -38.5l29 -24q-5 4 55 -46q61 -53 103 -86q28 -24 28 -52z" />
    <glyph glyph-name="L" unicode="L" horiz-adv-x="580" 
d="M135.5 18q-45.5 21 -60.5 70t-15 151q0 115 10.5 211t28.5 202q4 24 24.5 38.5t52.5 14.5q34 0 51.5 -16.5t17.5 -44.5q0 -6 -2 -18q-21 -123 -32 -209.5t-11 -181.5q0 -49 4.5 -72t18 -32t42.5 -9q62 0 214 28q5 1 14 1q26 0 41.5 -19.5t15.5 -45.5q0 -53 -77 -67
q-69 -13 -104.5 -17.5t-89.5 -4.5q-98 0 -143.5 21z" />
    <glyph glyph-name="M" unicode="M" horiz-adv-x="809" 
d="M737 198q2 -86 2 -134q0 -34 -19 -52.5t-53 -18.5t-54 18t-20 48v270q0 98 -6 152.5t-15 54.5q-8 0 -24 -42t-28 -83q-17 -56 -35 -130q-7 -27 -27 -40t-53 -13q-67 0 -81 49l-12 43q-14 51 -29 95q-12 35 -30 78t-23 43q-6 0 -9 -55.5t-5 -147.5q-1 -36 -1 -96l1 -180
q0 -27 -20 -43.5t-55 -16.5q-34 0 -52.5 18t-18.5 62l1 126q2 84 2 133q0 136 14 218.5t44 120.5t79 38q59 0 97.5 -47t58 -106t37.5 -140q19 78 41 138.5t61.5 107.5t96.5 47q52 0 81 -43.5t40.5 -125t11.5 -209.5q0 -51 2 -137z" />
    <glyph glyph-name="N" unicode="N" horiz-adv-x="759" 
d="M671.5 696q17.5 -19 17.5 -59q0 -79 -1 -119l-1 -148q0 -152 -8.5 -227t-31.5 -104t-70 -29q-36 0 -66.5 23t-69 76t-107.5 163l-118 191q1 -37 1 -138l1 -255q0 -26 -20.5 -44t-52.5 -18t-52.5 17.5t-20.5 44.5v261l-1 109q-1 28 -1 79q0 74 6.5 114t24.5 57.5t54 17.5
q35 0 63.5 -21t67 -75t115.5 -177q41 -65 122 -198l19 -32v165l1 283q0 27 18 44.5t56 17.5q37 0 54.5 -19z" />
    <glyph glyph-name="O" unicode="O" horiz-adv-x="812" 
d="M215 47.5q-79 41.5 -122 118t-43 180.5q0 105 44 187.5t122.5 129t179.5 46.5q104 0 187.5 -48.5t131 -132.5t47.5 -186q0 -101 -46.5 -177t-128.5 -117.5t-188 -41.5q-105 0 -184 41.5zM513 160q48 24 76 72t28 116q0 67 -26.5 119.5t-75.5 82t-113 29.5t-110.5 -29.5
t-71.5 -81t-25 -117.5q0 -104 58.5 -159.5t151.5 -55.5q60 0 108 24z" />
    <glyph glyph-name="P" unicode="P" horiz-adv-x="683" 
d="M496.5 667.5q67.5 -29.5 107 -83t39.5 -121.5q0 -64 -35 -115t-95.5 -79.5t-134.5 -28.5q-34 0 -66.5 5t-53.5 12l-2 -200q0 -29 -20.5 -47.5t-54.5 -18.5t-54.5 19t-18.5 51q4 104 4 233q0 122 -5 217l-3 -2q-10 -5 -18 -5q-17 0 -28 19t-11 44q0 20 12 32.5t36 27.5
l8 5v13q0 32 18 48.5t58 16.5t55.5 -7.5t15.5 -15.5v-1q49 11 98 11q81 0 148.5 -29.5zM442.5 390q34.5 32 34.5 78q0 47 -37.5 74.5t-96.5 27.5q-32 0 -90 -12q1 -17 1 -43q0 -40 2 -94q2 -30 2 -44q15 -7 43.5 -13t52.5 -6q54 0 88.5 32z" />
    <glyph glyph-name="Q" unicode="Q" horiz-adv-x="803" 
d="M742 85q0 -30 -22.5 -53.5t-52.5 -23.5q-28 0 -52 21l-33 32q-87 -50 -195 -50q-99 0 -175.5 43t-119 119.5t-42.5 175.5q0 103 45.5 186t125 130.5t176.5 47.5t179 -47.5t129.5 -128.5t47.5 -178q0 -110 -62 -199l29 -27q22 -21 22 -48zM479 162l-40 39q-20 20 -20 40
q0 17 12.5 36t32 31.5t38.5 12.5q18 0 31 -12l50 -47q24 46 24 103q0 60 -26 110t-73.5 79t-107.5 29q-59 0 -105.5 -28t-72.5 -79.5t-26 -118.5t26 -116t69.5 -74.5t95.5 -25.5q49 0 92 21z" />
    <glyph glyph-name="R" unicode="R" horiz-adv-x="692" 
d="M620.5 109q9.5 -12 9.5 -32q0 -29 -18.5 -48.5t-47.5 -19.5q-15 0 -31 5t-26 12l-257 159v-127q0 -29 -18 -47t-52 -18q-37 0 -56 20t-19 55q0 144 -3 322l-2 101l-7 -2q-6 -2 -9 -2q-42 0 -42 72q0 23 15 39t42 31v9q0 66 87 66q29 0 41 -5.5t13 -12.5q0 -3 1 -4
q71 20 106 20q90 0 156.5 -28t102.5 -78.5t36 -115.5q0 -99 -80.5 -154t-208.5 -57l240 -138q18 -10 27.5 -22zM248 551q2 -46 2 -161v-7q28 -4 85 -4q67 0 105 26t38 72q0 43 -34 68.5t-95 25.5q-47 0 -101 -20z" />
    <glyph glyph-name="S" unicode="S" horiz-adv-x="626" 
d="M188.5 30.5q-59.5 31.5 -93 83t-33.5 110.5q0 38 19.5 55t50.5 17q73 0 76 -61q3 -51 37 -78.5t78 -27.5q38 0 68 17t30 50q0 26 -19 43.5t-44.5 27t-70.5 22.5q-58 16 -103 35t-84.5 61.5t-39.5 109.5q0 61 33.5 110t90.5 76.5t125 27.5q71 0 128.5 -29.5t90.5 -78.5
t33 -103q0 -66 -72 -66q-31 0 -46.5 15t-24.5 49t-36.5 59t-72.5 25q-44 0 -74 -23.5t-30 -63.5q0 -28 22.5 -41t86.5 -32q6 -2 14 -4.5t17 -5.5q55 -17 101 -39t83 -65t37 -107q0 -58 -32.5 -103.5t-88 -71t-122.5 -25.5q-75 0 -134.5 31.5z" />
    <glyph glyph-name="T" unicode="T" horiz-adv-x="591" 
d="M544 674.5q17 -14.5 17 -48.5q0 -35 -19.5 -51t-55.5 -14q-72 5 -118 5q-8 -113 -11 -226q-3 -112 -3 -284q0 -37 -14.5 -51.5t-55.5 -14.5q-43 0 -62 15t-19 50q0 146 7 285l12 225q-44 -2 -71 -4l-44 -3q-4 -1 -12 -1q-29 0 -47 19t-18 50q0 29 15.5 43t43.5 18
q36 5 101 8t120 3q45 0 102.5 -1.5t84.5 -4.5q30 -3 47 -17.5z" />
    <glyph glyph-name="U" unicode="U" horiz-adv-x="704" 
d="M633 74q0 -42 -18 -60t-55 -18t-54.5 16.5t-17.5 54.5v20q-28 -38 -75.5 -62.5t-109.5 -24.5q-71 0 -124 33t-81 92.5t-28 136.5q0 124 5 344l1 35q1 28 20.5 45.5t54.5 17.5q34 0 52 -16t18 -47q0 -67 -2 -175q-2 -116 -2 -204q0 -61 31.5 -96t75.5 -35q39 0 76.5 27.5
t61.5 75t24 104.5v68q-1 56 -1 240q0 64 68 64q35 0 55 -16.5t20 -47.5q0 -59 2 -189v-29q3 -132 3 -354z" />
    <glyph glyph-name="V" unicode="V" horiz-adv-x="662" 
d="M270.5 14.5q-30.5 16.5 -44.5 44.5q-14 26 -45.5 118.5t-59.5 186.5l-39 136l-39 133q-3 9 -3 17q0 26 23 42.5t53 16.5q53 0 64 -35q28 -90 60 -209l20 -72q32 -117 47.5 -162.5t26.5 -45.5q12 0 28.5 49.5t42.5 158.5q37 157 73 281q11 35 61 35q38 0 60.5 -14.5
t22.5 -43.5q0 -12 -3 -26q-13 -55 -59 -215l-13 -45q-26 -92 -56 -186.5t-41 -117.5q-13 -28 -44.5 -45.5t-68.5 -17.5q-36 0 -66.5 16.5z" />
    <glyph glyph-name="W" unicode="W" horiz-adv-x="852" 
d="M220 16.5q-26 16.5 -32 41.5q-2 6 -18 80q-25 125 -59 236q-23 77 -38 136l-30 108q-3 11 -3 20q0 31 24 49.5t60 18.5q24 0 39.5 -10.5t21.5 -35.5q7 -30 13.5 -52.5t10.5 -39.5q25 -85 41 -161q5 -22 18 -91q9 -43 17 -79t11 -36t10.5 19t13 35.5l8.5 25.5q4 14 21 62
q14 37 22.5 55.5t22.5 32.5t34 14q28 0 46 -25t37 -79q49 -138 59 -138q6 0 23 108q4 20 8 43.5t9 50.5q26 134 54 254q11 46 67 46q35 0 58 -18t23 -46q0 -8 -3 -19q-22 -83 -46 -188l-14 -59q-16 -67 -32.5 -149t-21.5 -105l-11 -57q-6 -30 -29 -46t-59 -16t-60.5 17
t-44.5 54q-3 5 -29 60q-27 60 -31 60t-20 -47q-21 -56 -29 -72q-36 -74 -102 -74q-34 0 -60 16.5z" />
    <glyph glyph-name="X" unicode="X" horiz-adv-x="684" 
d="M620 596q-125 -168 -193 -258l168 -229q24 -31 24 -46q0 -28 -24.5 -50.5t-56.5 -22.5q-16 0 -25 6.5t-19 19.5q-79 103 -155 205l-136 -182q-16 -21 -32.5 -30.5t-38.5 -9.5q-32 0 -54 20t-22 45q0 17 4 25t14 20q40 52 60 76l118 153q-65 88 -175 240l-13 18
q-14 18 -14 33q0 30 24.5 51t59.5 21q20 0 31 -10.5t29 -34.5l148 -202l162 215q13 17 21.5 24.5t22.5 7.5q22 0 42 -10t32 -25t12 -29q0 -22 -14 -41z" />
    <glyph glyph-name="Y" unicode="Y" horiz-adv-x="655" 
d="M277 19q-19 18 -19 49l-3 264q-14 0 -52.5 38.5t-60.5 71.5q-19 28 -44 77t-45 100q-3 8 -3 16q0 25 24.5 46t58.5 21q24 0 40 -12.5t29 -39.5q47 -97 75 -145q40 -66 54 -66q13 0 49 66l78 149q13 24 25.5 35t39.5 11q37 0 61 -16.5t24 -45.5q0 -10 -7 -29
q-9 -23 -39.5 -83.5t-48.5 -87.5q-24 -37 -61.5 -71.5t-51.5 -34.5l3 -261q0 -33 -18.5 -51.5t-53.5 -18.5t-54 18z" />
    <glyph glyph-name="Z" unicode="Z" horiz-adv-x="710" 
d="M541 15q-125 10 -199 10q-46 0 -94 -3q-60 -2 -85 -2q-57 0 -90 8.5t-33 40.5q0 31 34.5 73.5t124.5 136.5q66 66 121 126q75 81 153 159l-22 -2q-11 -1 -41.5 -3t-58.5 -2q-54 0 -116 5.5t-95 12.5q-68 15 -68 65q0 29 17 46.5t50 17.5q14 0 66 -6q88 -11 157 -11
q40 0 86 3t115 9q19 2 40 -3.5t36 -15.5q31 -21 31 -57q0 -33 -40 -81.5t-124 -132.5l-55 -56q-73 -74 -106 -110q-62 -65 -95 -97q8 1 22 1q84 6 131 6q50 0 81.5 -2.5t92.5 -9.5q31 -4 47.5 -20t16.5 -42q0 -29 -18.5 -47.5t-44.5 -18.5z" />
    <glyph glyph-name="bracketleft" unicode="[" horiz-adv-x="376" 
d="M69 -164q4 88 4 197q0 107 -3 263q-2 150 -5.5 228.5t-14.5 223.5q60 5 221 5q22 0 36.5 -16.5t14.5 -37.5q0 -27 -13.5 -42t-41.5 -15h-31q-35 0 -64 -2l2 -50q6 -156 6 -291q0 -189 1 -238v-62q0 -41 -1 -62h101q45 0 45 -56q0 -23 -14.5 -36t-38.5 -15q-34 -3 -101 -3
q-26 0 -103 9z" />
    <glyph glyph-name="backslash" unicode="\" horiz-adv-x="485" 
d="M337 10.5q-13 10.5 -20 29.5l-269 783q-6 16 -6 27q0 14 6 26q7 15 27 26t40 11q44 0 54 -32l270 -789q7 -23 7 -34q0 -12 -6 -23q-11 -19 -27 -27t-47 -8q-16 0 -29 10.5z" />
    <glyph glyph-name="bracketright" unicode="]" horiz-adv-x="376" 
d="M166 -172q-49 0 -69 2q-47 5 -47 51q0 56 45 56h58h43q-1 21 -1 62v62q1 49 1 238q0 136 6 298l2 53q-13 -1 -42 1l-44 1q-30 0 -47 13t-17 38q0 22 10 36.5t32 14.5q47 0 122.5 -1.5t107.5 -4.5l-4 -50q-10 -131 -13 -203t-3 -199l1 -460q-74 -8 -103 -8h-38z" />
    <glyph glyph-name="asciicircum" unicode="^" horiz-adv-x="610" 
d="M81.5 226q-15.5 14 -15.5 31q0 5 1 8q67 220 124 328t115 108q61 0 116 -100.5t120 -324.5q2 -10 2 -15q0 -20 -17 -34.5t-42 -14.5q-18 0 -31 8t-17 21q-25 98 -66.5 216t-63.5 118q-23 0 -65 -116t-69 -219q-4 -13 -19 -20.5t-35 -7.5q-22 0 -37.5 14z" />
    <glyph glyph-name="underscore" unicode="_" horiz-adv-x="574" 
d="M7 -162.5q-17 16.5 -17 41.5t16.5 41t42.5 16l196 -1l283 -2q24 0 40 -15t16 -39q0 -27 -14.5 -45t-39.5 -18q-136 0 -268 3q-158 2 -213 2q-25 0 -42 16.5z" />
    <glyph glyph-name="grave" unicode="`" horiz-adv-x="314" 
d="M207 506l-176 174q-20 19 -20 42q0 21 17 38.5t39 17.5t43 -21l50 -51q77 -79 126 -123q17 -15 17 -40q0 -21 -17 -37t-39 -16t-40 16z" />
    <glyph glyph-name="a" unicode="a" horiz-adv-x="614" 
d="M563.5 97q10.5 -11 10.5 -39q0 -24 -12.5 -41t-33.5 -17q-43 0 -66 10.5t-42 38.5q-22 -33 -60 -46.5t-89 -13.5q-113 0 -172 65t-59 181q0 76 31 135t86.5 92t127.5 33q36 0 67 -14t47 -37l2 13q2 14 16 23.5t44 9.5q32 0 47 -13t15 -33q0 -7 -1 -11q-6 -34 -12 -114
q-3 -37 -3 -95v-50q0 -29 5 -44.5t22 -18.5q19 -3 29.5 -14zM368 307q0 34 -22.5 55.5t-57.5 21.5q-45 0 -74 -41.5t-29 -106.5q0 -62 26 -99t70 -37q41 0 63 20.5t23 59.5q1 41 1 127z" />
    <glyph glyph-name="b" unicode="b" horiz-adv-x="636" 
d="M469 482.5q58 -31.5 92.5 -90t34.5 -135.5q0 -76 -33.5 -135t-93.5 -91t-136 -32q-43 1 -90 20t-65 40q-12 -15 -27.5 -26.5t-25.5 -16.5q-14 -7 -31 -7q-26 0 -45 19.5t-19 43.5q0 18 17 35q3 3 9.5 9t8.5 11q5 9 5 66l-2 184q-1 52 -1 145l-4 290q-1 27 21 43t53 16
q29 0 49 -14t21 -38q1 -16 3 -173l3 -173q20 18 52.5 29.5t75.5 11.5q70 0 128 -31.5zM417.5 152q33.5 41 33.5 108t-34 105t-90 38q-40 0 -69 -17.5t-43 -37.5v-72q0 -41 3 -83q2 -32 37 -57t77 -25q52 0 85.5 41z" />
    <glyph glyph-name="c" unicode="c" horiz-adv-x="598" 
d="M163.5 30q-58.5 31 -91 87t-32.5 129q0 75 34 136.5t94.5 97t136.5 35.5q81 0 144.5 -39t87.5 -101q8 -19 8 -33q0 -33 -46 -44q-13 -3 -24 -3q-20 0 -32.5 10.5t-27.5 34.5q-19 29 -43 46.5t-59 17.5q-56 0 -92 -45.5t-36 -114.5q0 -63 32.5 -98.5t94.5 -35.5
q59 0 87.5 30.5t28.5 71.5q0 16 16.5 29.5t44.5 13.5q34 0 51.5 -13t17.5 -46q0 -50 -26 -95t-84.5 -73.5t-151.5 -28.5q-74 0 -132.5 31z" />
    <glyph glyph-name="d" unicode="d" horiz-adv-x="633" 
d="M169 22.5q-61 32.5 -95 92.5t-34 139t33 138t93 91t139 32q73 0 120 -31l11 240l3 70q1 24 21 38.5t50 14.5q33 0 54.5 -17.5t18.5 -43.5q-6 -50 -11.5 -221.5t-5.5 -302.5q0 -111 5 -134q5 -19 26 -51q6 -9 6 -21q0 -25 -23.5 -45.5t-51.5 -20.5q-13 0 -25 3.5t-19 9.5
q-30 23 -44 56q-54 -69 -131 -69q-79 0 -140 32.5zM366 120q26 16 41.5 41.5t15.5 52.5v149q-11 14 -45.5 27.5t-65.5 13.5q-60 0 -93.5 -40.5t-33.5 -111.5q0 -66 35.5 -107t89.5 -41q30 0 56 16z" />
    <glyph glyph-name="e" unicode="e" horiz-adv-x="596" 
d="M164.5 24q-62.5 34 -93.5 94t-31 136t35.5 135.5t97 92.5t137.5 33q68 0 124.5 -27t89 -77.5t32.5 -118.5q0 -43 -15.5 -61.5t-52.5 -18.5h-323q0 -24 17 -48.5t51 -41.5t81 -17q42 0 66 12.5t50 37.5q19 17 39 17q23 0 43 -17.5t20 -39.5q0 -18 -12 -35
q-21 -33 -71 -61.5t-131 -28.5q-91 0 -153.5 34zM424 302q9 0 11.5 3t2.5 11q0 39 -37.5 65t-92.5 26q-44 0 -76.5 -17t-49.5 -41.5t-17 -46.5h259z" />
    <glyph glyph-name="f" unicode="f" horiz-adv-x="428" 
d="M398.5 697.5q42.5 -42.5 42.5 -111.5q0 -41 -17 -59.5t-54 -18.5q-67 0 -72 61q-1 6 -1 22t-5.5 25t-18.5 9q-11 0 -16 -8t-7 -28t-3 -65q-1 -30 -1 -96h54q48 0 48 -54q0 -53 -50 -53q-33 0 -51 -1q1 -109 6 -261q1 -27 -19 -43t-52 -16q-31 0 -51 15.5t-21 41.5
q-4 121 -5 260h-23q-34 0 -48 14t-14 42q0 26 12 40.5t44 14.5h27l-1 104q0 101 46 154.5t130 53.5q78 0 120.5 -42.5z" />
    <glyph glyph-name="g" unicode="g" horiz-adv-x="596" 
d="M556 -1q0 -69 -31.5 -125.5t-88.5 -90t-132 -33.5q-60 0 -110 21.5t-79 59t-29 82.5q0 28 16.5 41t50.5 13q22 0 36 -10t17 -28q5 -32 28 -47.5t65 -15.5q114 0 114 138q0 20 -1 33q-23 -18 -57.5 -29.5t-75.5 -11.5q-69 0 -123.5 33t-85 91t-30.5 130q0 73 31.5 131
t87 90.5t126.5 32.5q69 0 104 -30l15 30q5 11 17 18t30 7q28 0 53 -15.5t25 -38.5q0 -3 -2 -13l-8 -24q-9 -24 -10 -29l3 -20q16 -111 29 -217q15 -122 15 -173zM361 120.5q30 15.5 37 37.5q-15 122 -27 199q-10 16 -29 26t-43 10q-50 0 -82.5 -42t-32.5 -105
q0 -58 29 -99.5t84 -41.5q34 0 64 15.5z" />
    <glyph glyph-name="h" unicode="h" horiz-adv-x="581" 
d="M541 58q0 -24 -21 -39t-51 -15q-31 0 -52 16t-21 45q0 123 -2.5 191t-12.5 110q-7 28 -21 36.5t-31 8.5q-55 0 -81 -41.5t-26 -108.5v-206q0 -22 -21 -36.5t-51 -14.5t-51 15t-21 37q0 192 5 382q2 71 10 218l4 71q2 26 21 42.5t51 16.5q31 0 49 -15t17 -40
q-8 -118 -14 -255q23 21 57 33.5t77 12.5q67 0 105.5 -34.5t56.5 -107.5q24 -99 24 -322z" />
    <glyph glyph-name="i" unicode="i" horiz-adv-x="338" 
d="M103.5 547.5q-25.5 25.5 -25.5 64.5t25.5 63.5t66.5 24.5q40 0 65 -24.5t25 -62.5q0 -39 -25.5 -65t-65.5 -26t-65.5 25.5zM102 22q-21 16 -20 43l8 369q1 27 21 42.5t52 15.5q33 0 54 -16t20 -44l-8 -368q-1 -27 -21.5 -42.5t-52.5 -15.5t-53 16z" />
    <glyph glyph-name="j" unicode="j" horiz-adv-x="375" 
d="M148.5 552q-27.5 26 -27.5 62q0 35 26.5 60t66.5 25q39 0 65 -24.5t26 -61.5t-26.5 -62t-63.5 -25q-39 0 -66.5 26zM-32.5 -193.5q-47.5 42.5 -47.5 110.5q0 34 15.5 49.5t50.5 15.5q64 0 68 -50q4 -32 11 -44t21 -12q23 0 33.5 33t11.5 117q5 235 5 425q0 21 20.5 34.5
t51.5 13.5q32 0 51 -13.5t19 -37.5q0 -227 -4 -423q-3 -134 -47.5 -197.5t-135.5 -63.5q-76 0 -123.5 42.5z" />
    <glyph glyph-name="k" unicode="k" horiz-adv-x="539" 
d="M81 7q-21 15 -21 37v638q0 27 20 43t51 16q32 0 52.5 -16t20.5 -43l-2 -280l59 38q98 62 143 89q22 13 45 10q20 -3 35 -23.5t15 -43.5q0 -16 -8 -25t-27 -21l-232 -143l241 -184q17 -13 17 -39t-19.5 -43t-45.5 -17q-25 0 -50 18q-35 26 -99 83q-68 59 -74 64v-120
q0 -23 -20 -38t-50 -15t-51 15z" />
    <glyph glyph-name="l" unicode="l" horiz-adv-x="270" 
d="M85 26q-19 17 -19 43l-6 662q0 27 21 44t53 17t51.5 -16.5t19.5 -43.5l5 -662q0 -28 -21.5 -44.5t-52.5 -16.5q-32 0 -51 17z" />
    <glyph glyph-name="m" unicode="m" horiz-adv-x="794" 
d="M700.5 435.5q43.5 -67.5 43.5 -185.5q0 -58 -1 -86l-1 -111q0 -24 -18 -38.5t-48 -14.5q-31 0 -51.5 15t-20.5 42v193q0 80 -13.5 114t-43.5 34q-22 0 -38.5 -35.5t-17.5 -104.5v-68v-133q0 -55 -67 -55q-35 0 -54 14.5t-19 41.5l1 200q0 70 -14.5 102.5t-44.5 32.5
q-19 0 -38.5 -26.5t-30.5 -77.5q-7 -29 -7 -75l1 -91v-75q0 -22 -20 -34.5t-48 -12.5t-48 12.5t-20 35.5v304q0 23 -3 34t-13 21l-6 6t-7.5 10t-2.5 11q0 26 19.5 42.5t43.5 16.5q20 0 44 -30q17 -22 17 -44v-6q16 37 47.5 61.5t79.5 24.5t75.5 -19.5t42.5 -54.5
q22 37 58.5 57t83.5 20q96 0 139.5 -67.5z" />
    <glyph glyph-name="n" unicode="n" horiz-adv-x="574" 
d="M475.5 449.5q48.5 -61.5 48.5 -181.5l-1 -226q0 -21 -20.5 -32t-50.5 -11q-29 0 -51.5 10t-22.5 28l1 232q0 73 -16 102t-50 29q-29 0 -46 -26t-29 -101q-7 -42 -7 -93l1 -129q0 -26 -19.5 -39.5t-52.5 -13.5q-34 0 -53.5 14t-19.5 39q0 208 -6 324q-1 12 -5.5 22.5
t-10.5 19.5t-9 14q-6 11 -6 22q0 21 24.5 39.5t47.5 18.5q11 0 21.5 -7t23.5 -23q11 -14 16 -25t5 -25v-9q18 38 54.5 63.5t96.5 25.5q88 0 136.5 -61.5z" />
    <glyph glyph-name="o" unicode="o" horiz-adv-x="607" 
d="M104.5 63.5q-74.5 66.5 -74.5 186.5q0 78 33 139t93.5 95t142.5 34q83 0 146 -35t97.5 -97.5t34.5 -142.5q0 -117 -73 -181.5t-198 -64.5q-127 0 -201.5 66.5zM398.5 142.5q33.5 34.5 33.5 102.5q0 67 -32.5 114.5t-95.5 47.5q-59 0 -94 -43t-35 -115q0 -70 34 -105.5
t95 -35.5t94.5 34.5z" />
    <glyph glyph-name="p" unicode="p" horiz-adv-x="630" 
d="M471.5 480.5q56.5 -32.5 87.5 -91t31 -136.5q0 -79 -31.5 -137t-88.5 -89.5t-131 -31.5q-42 0 -80 8.5t-56 17.5l-1 -96q-2 -62 -2 -95q0 -24 -21 -39t-53 -15q-34 0 -53 17t-17 43q4 43 5 96t1 133l1 118q2 88 2 157q0 26 -4.5 39.5t-13.5 23.5t-13 16.5t-4 15.5
q0 23 26 45t53 22q15 0 27 -10q24 -22 39 -49q23 30 65 50t102 20q73 0 129.5 -32.5zM412.5 145q32.5 39 32.5 111q0 68 -29 105.5t-85 37.5q-36 0 -63 -14t-42 -34.5t-15 -38.5l-2 -177q5 -8 42 -18.5t70 -10.5q59 0 91.5 39z" />
    <glyph glyph-name="q" unicode="q" horiz-adv-x="645" 
d="M596 400q-3 -4 -13 -19.5t-20 -33.5l-1 -73q-3 -105 -3 -233l-1 -110q-2 -74 -2 -114q0 -23 -19.5 -38.5t-53.5 -15.5q-32 0 -51 14.5t-19 36.5q0 132 1 211q-22 -15 -47.5 -23t-62.5 -8q-77 0 -137 32.5t-93.5 91t-33.5 133.5q0 76 34 135.5t93 92.5t133 33
q64 0 108.5 -23.5t64.5 -57.5q3 6 15 26q12 19 23 28.5t28 9.5q26 0 48 -17.5t22 -42.5q0 -14 -13 -35zM422 299q0 41 -35.5 71t-82.5 30q-53 0 -86 -40t-33 -109q0 -68 33.5 -106.5t93.5 -38.5q37 0 65.5 13.5t40.5 28.5z" />
    <glyph glyph-name="r" unicode="r" horiz-adv-x="521" 
d="M411 500.5q34 -18.5 54 -52.5t20 -79q0 -65 -42.5 -100.5t-109.5 -35.5q-35 0 -49 10.5t-14 35.5q0 24 10 33.5t28 11.5q59 6 59 49q0 18 -8.5 27.5t-23.5 9.5q-27 0 -50 -30.5t-38 -71t-19 -68.5q-7 -44 -7 -156q0 -54 -15.5 -73.5t-54.5 -19.5q-36 0 -54.5 14t-19.5 43
v46v116q0 64 -3 108.5t-10 114.5l-4 41q-2 25 16.5 41t51.5 16q56 0 60 -50q2 -24 4 -68q20 47 56.5 76.5t88.5 29.5q40 0 74 -18.5z" />
    <glyph glyph-name="s" unicode="s" horiz-adv-x="504" 
d="M128 23.5q-54 32.5 -77 86.5q-6 15 -6 25q0 21 22 40t48 19q15 0 24 -6.5t14 -12t6 -7.5q29 -34 48 -48t46 -14q25 0 43 10.5t18 29.5q0 21 -21 33t-68 27q-52 18 -84.5 34t-57 47.5t-24.5 80.5t28 84.5t74.5 54.5t100.5 19q58 0 100.5 -21.5t64.5 -57t22 -75.5
q0 -27 -15 -41t-50 -14q-31 0 -42.5 10t-14.5 28q-3 25 -15.5 40t-49.5 15q-28 0 -43.5 -10t-15.5 -28q0 -22 21.5 -34t69.5 -26q51 -16 84 -31.5t57 -46t24 -80.5q0 -57 -32 -94t-80 -53t-96 -16q-69 0 -123 32.5z" />
    <glyph glyph-name="t" unicode="t" horiz-adv-x="444" 
d="M399 186q15 -13 15 -42q0 -66 -42 -106t-106 -40q-87 0 -127 70.5t-40 223.5q0 46 1 67q-7 1 -23 1q-57 1 -57 55q0 28 14.5 42t51.5 13l22 -1q7 62 23 152q4 24 22.5 36.5t47.5 12.5q34 0 53 -16t19 -39l-1 -8l-5 -32q-12 -82 -16 -112q34 -2 52 -2q51 -1 51 -53
q0 -26 -14 -39t-47 -13h-50q-1 -20 -1 -64q0 -74 3.5 -113.5t10.5 -53.5t18 -14q14 0 18 9t4 32q0 47 55 47q33 0 48 -13z" />
    <glyph glyph-name="u" unicode="u" horiz-adv-x="573" 
d="M495 103q6 -20 13 -32t7 -14q0 -25 -18.5 -41.5t-49.5 -16.5q-19 0 -41.5 20.5t-29.5 45.5q-35 -67 -131 -67q-88 0 -136.5 62t-48.5 158v236q0 23 20.5 37.5t50.5 14.5t51.5 -14.5t21.5 -37.5v-234q0 -43 15 -77t46 -34q39 0 57.5 35t18.5 123v185q0 27 19.5 43t51.5 16
q33 0 53.5 -16t20.5 -43l3 -294q0 -35 6 -55z" />
    <glyph glyph-name="v" unicode="v" horiz-adv-x="542" 
d="M176 52.5q-41 52.5 -80 162.5q-23 64 -39.5 131.5t-16.5 95.5q0 30 20 46.5t52 16.5q28 0 48 -13.5t24 -39.5q15 -99 36 -177q13 -49 27 -87t20 -38q7 0 26.5 45t28.5 83q19 78 25 107.5t10 69.5q3 24 23 39.5t51 15.5q32 0 51.5 -17t19.5 -49q0 -29 -16.5 -92.5
t-42.5 -133.5q-42 -111 -84 -164.5t-92 -53.5t-91 52.5z" />
    <glyph glyph-name="w" unicode="w" horiz-adv-x="770" 
d="M173.5 41.5q-36.5 41.5 -63.5 127.5q-20 66 -35 153t-15 128q0 43 18.5 58t49.5 15q34 0 52 -12.5t21 -40.5q5 -52 11.5 -99.5t17.5 -107.5q17 -97 24 -97q5 0 16 38.5t29 114.5l12 50q8 34 25 52.5t46 18.5q28 0 46 -17.5t29 -54.5q59 -202 71 -202q4 0 8 23.5t12 82.5
q16 126 19 196q1 28 20 41.5t52 13.5q37 0 54 -19.5t17 -63.5q0 -40 -11.5 -119t-28.5 -146q-21 -80 -52.5 -127.5t-81.5 -47.5q-54 0 -90.5 63.5t-61.5 199.5q-18 -133 -48.5 -198t-83.5 -65q-42 0 -78.5 41.5z" />
    <glyph glyph-name="x" unicode="x" horiz-adv-x="526" 
d="M486 55q0 -25 -22.5 -45t-49.5 -20q-24 0 -40 21l-113 147q-58 -86 -98 -141q-9 -13 -23 -19.5t-29 -6.5q-29 0 -50 20t-21 43q0 12 6 21q39 54 133 190l-128 168q-7 10 -7 22q0 23 24 43t50 20q25 0 38 -17l98 -128l32 47l56 81q12 17 33 17q27 0 52 -22t25 -44
q0 -9 -4 -14l-29 -44q-55 -82 -84 -126l141 -186q10 -13 10 -27z" />
    <glyph glyph-name="y" unicode="y" horiz-adv-x="542" 
d="M181.5 -245.5q-21.5 18.5 -21.5 45.5q0 12 5 25l40 116l36 102q-48 35 -90 105.5t-70.5 149t-38.5 137.5q-2 10 -2 20q0 28 19 42t48 14t41.5 -11.5t16.5 -32.5q22 -101 55 -181.5t69 -105.5q15 47 29.5 103t19.5 76q21 83 29 113q6 22 19 31.5t38 9.5q34 0 56 -15.5
t22 -38.5q0 -7 -1 -11q-40 -162 -105 -369q-76 -245 -100 -301q-9 -20 -21 -31t-38 -11q-34 0 -55.5 18.5z" />
    <glyph glyph-name="z" unicode="z" horiz-adv-x="565" 
d="M398 -2q-65 5 -96 5q-44 0 -112 -4q-39 -3 -65 -3q-49 0 -72 14.5t-23 39.5q0 24 24 48l22 23q205 211 264 271q-7 -1 -48 -4.5t-71 -3.5q-23 0 -52 2.5t-49 6.5q-58 12 -58 61q0 26 14 43t40 14q105 -12 169 -12q37 0 101 6q54 4 73 4q44 0 60 -12t16 -36q0 -38 -32 -70
l-103 -102l-174 -175l31 1q69 3 79 3q30 0 67.5 -2.5t58.5 -6.5q45 -9 45 -55q0 -25 -14 -42t-42 -17q-23 0 -53 3z" />
    <glyph glyph-name="braceleft" unicode="{" horiz-adv-x="437" 
d="M218 -161.5q-44 28.5 -69 79t-25 112.5q0 105 -7 149t-22 53q-21 11 -33 29t-12 37q0 21 13.5 38.5t34.5 25.5q5 2 11.5 62t6.5 143q0 61 24 109t66.5 75.5t96.5 27.5q35 0 59.5 -14t24.5 -51q0 -35 -23.5 -49t-49.5 -14q-30 0 -45 -10t-21 -35.5t-6 -76.5q0 -80 -5 -124
t-18 -68t-38 -39q26 -22 40.5 -49t21.5 -73.5t7 -125.5q0 -62 16 -87.5t55 -25.5q26 0 43.5 -19t17.5 -43q0 -25 -19 -45t-45 -20q-56 0 -100 28.5z" />
    <glyph glyph-name="bar" unicode="|" horiz-adv-x="313" 
d="M116.5 -82q-16.5 10 -16.5 27l1 191q2 150 2 277l-1 446q0 14 17 23.5t39 9.5q21 0 38 -9t17 -22v-446q0 -134 -2 -286l-1 -184q0 -17 -15.5 -27t-39.5 -10q-22 0 -38.5 10z" />
    <glyph glyph-name="braceright" unicode="}" horiz-adv-x="437" 
d="M73.5 -174.5q-18.5 15.5 -18.5 39.5t18 43t44 19q80 0 80 123q0 79 7 125.5t21.5 73.5t40.5 49q-25 15 -38 39t-18 68t-5 124q0 74 -19 103t-63 29q-26 0 -49.5 14t-23.5 49q0 36 22.5 45.5t61.5 9.5q54 0 96.5 -27.5t66.5 -75.5t24 -109q0 -83 6.5 -143t11.5 -62
q21 -8 34.5 -25.5t13.5 -38.5q0 -19 -12 -37t-33 -29q-15 -9 -22 -53t-7 -149q0 -62 -25 -112.5t-69 -79t-100 -28.5q-27 0 -45.5 15.5z" />
    <glyph glyph-name="asciitilde" unicode="~" horiz-adv-x="560" 
d="M300.5 256.5q-28.5 8.5 -32.5 9.5q-25 7 -43.5 11.5t-34.5 4.5q-13 0 -39 -8q-5 -1 -22.5 -7t-32.5 -6t-30 16.5t-15 36.5q0 14 10 27q16 20 56.5 34.5t83.5 14.5q22 0 46 -6t56 -17q33 -12 58 -12q21 0 41 10q32 17 48 17q22 0 41 -19t19 -42q0 -11 -4.5 -17.5
t-20.5 -19.5q-19 -16 -50.5 -26t-60.5 -10q-45 0 -73.5 8.5z" />
    <glyph glyph-name="uni007F" 
 />
    <glyph glyph-name="uni00A0" unicode="&#xa0;" 
 />
    <glyph glyph-name="exclamdown" unicode="&#xa1;" horiz-adv-x="277" 
d="M76.5 363q-26.5 26 -26.5 60q0 36 26 62.5t62 26.5q35 0 62 -27t27 -62q0 -34 -27 -60t-62 -26t-61.5 26zM100.5 -179.5q-15.5 16.5 -14.5 41.5l6 383q1 26 14.5 41.5t36.5 15.5q22 0 37 -18t15 -44l-5 -378q0 -27 -13.5 -42.5t-37.5 -15.5q-23 0 -38.5 16.5z" />
    <glyph glyph-name="cent" unicode="&#xa2;" horiz-adv-x="598" 
d="M558 205q0 -50 -29.5 -93.5t-80 -72.5t-112.5 -35v-67q0 -14 -9.5 -21t-24.5 -7q-37 0 -37 27v68q-102 11 -163.5 76.5t-61.5 165.5q0 70 29 127t81 93t119 44v69q0 13 11 19.5t25 6.5q13 0 24 -6.5t11 -19.5v-69q67 -6 115 -40.5t82 -97.5q8 -15 8 -30q0 -35 -46 -47
q-13 -3 -23 -3q-20 0 -33.5 11t-27.5 34q-18 30 -44 47t-59 17q-55 0 -91 -43.5t-36 -109.5q0 -63 32 -99t88 -36q55 0 88.5 28t39.5 83q4 34 52 34q73 0 73 -53z" />
    <glyph glyph-name="sterling" unicode="&#xa3;" horiz-adv-x="622" 
d="M556 150q16 -15 16 -34q0 -10 -6 -21q-21 -40 -63.5 -67.5t-97.5 -27.5q-42 0 -69.5 8t-55.5 21q-13 6 -25.5 10.5t-24.5 4.5q-16 0 -31.5 -7.5t-35.5 -22.5q-28 -22 -48 -22q-25 0 -40 19t-15 36q0 12 3 19t12 19q11 15 42 31.5t68 26.5q10 16 15 40t5 46q0 12 -8 44
h-49q-60 0 -60 42q0 23 15.5 30t45.5 7h23q-7 18 -23 50q-20 41 -29 66.5t-9 54.5q0 42 28 83t77 67.5t108 26.5q95 0 152 -50.5t57 -136.5q0 -31 -12 -45t-42 -14q-31 0 -44 10t-13 32q0 58 -27.5 80t-68.5 22q-37 0 -63.5 -20t-26.5 -59q0 -31 14.5 -72t39.5 -97l98 -1
q36 -1 52.5 -8t16.5 -31q0 -23 -16.5 -31t-52.5 -8l-70 1q4 -16 4 -35q0 -25 -7.5 -50t-20.5 -58q17 -10 53 -21t60 -11q20 0 35 9t32 30q24 29 46 29q20 0 36 -15z" />
    <glyph glyph-name="currency" unicode="&#xa4;" horiz-adv-x="846" 
d="M635 32q-17 10 -25 19l-28 31q-36 -19 -77.5 -29.5t-81.5 -10.5q-85 0 -159 40l-27 -30q-11 -13 -30 -20.5t-34 -7.5q-7 0 -10 1q-23 7 -40 24t-17 35q0 9 2.5 15.5t9.5 18.5q3 5 44 49q-66 84 -66 183t63 181l-32 34q-14 14 -17.5 22.5t-3.5 18.5q0 26 22.5 46.5
t52.5 20.5q16 0 31.5 -9.5t26.5 -20.5l22 -24q76 41 164 41q42 0 84 -10t78 -29l20 22q32 34 62 34q13 0 27 -7q21 -10 33 -27t12 -35q0 -10 -4.5 -19.5t-17.5 -23.5l-30 -32q61 -82 61 -183q0 -103 -67 -185l42 -44q10 -10 13 -16.5t3 -17.5q0 -24 -22.5 -44.5t-50.5 -20.5
q-16 0 -33 10zM513.5 182q40.5 26 64.5 71t24 100t-23.5 99.5t-64 70t-89.5 25.5t-90.5 -26t-66 -70t-24.5 -97q0 -54 24.5 -99.5t66 -72.5t89.5 -27q49 0 89.5 26z" />
    <glyph glyph-name="yen" unicode="&#xa5;" horiz-adv-x="655" 
d="M465.5 380q-28.5 -29 -49.5 -41l101 1q13 0 20.5 -11t7.5 -27q0 -15 -7.5 -25.5t-20.5 -10.5l-116 -2v-56l115 2q14 0 21.5 -10t7.5 -28q0 -16 -7 -25.5t-21 -9.5l-115 -2l1 -64q0 -33 -18.5 -51.5t-53.5 -18.5t-54 18t-19 49l-1 66l-119 -2q-14 0 -21.5 10t-7.5 27
q0 36 29 36l118 2v56l-118 -2q-15 0 -22.5 10.5t-7.5 26.5t8 26.5t22 10.5l105 1q-19 11 -51 45t-50 61q-19 28 -44 77t-45 100q-3 8 -3 16q0 25 24.5 46t58.5 21q24 0 40 -12.5t29 -39.5q25 -53 39.5 -81.5t35.5 -63.5q40 -66 54 -66q13 0 49 66l78 149q13 24 25.5 35
t39.5 11q37 0 61 -16.5t24 -45.5q0 -10 -7 -29q-9 -23 -39.5 -83.5t-48.5 -87.5q-19 -29 -47.5 -58z" />
    <glyph glyph-name="brokenbar" unicode="&#xa6;" horiz-adv-x="319" 
d="M124.5 430q-15.5 10 -15.5 28l-8 396q0 17 16 27.5t40 10.5t38.5 -10t15.5 -28l8 -396q0 -18 -15.5 -28t-39.5 -10t-39.5 10zM115.5 -134.5q-15.5 10.5 -15.5 28.5l7 397q0 20 15 30.5t40 10.5q55 0 55 -41l-6 -397q0 -19 -15 -29t-40 -10t-40.5 10.5z" />
    <glyph glyph-name="section" unicode="&#xa7;" horiz-adv-x="684" 
d="M576 201.5q-18 -35.5 -50 -61.5q20 -23 28.5 -53.5t8.5 -71.5q0 -50 -29.5 -90.5t-81.5 -64t-115 -23.5q-70 0 -125.5 29t-87.5 79.5t-32 114.5q0 21 16.5 32.5t44.5 11.5q27 0 44 -11.5t17 -31.5q0 -34 15 -63.5t43.5 -48t65.5 -18.5q53 0 83 28t30 67q0 35 -14.5 54
t-39.5 30t-91 33q-109 37 -162.5 83t-53.5 115q0 42 17 78.5t49 65.5q-30 42 -30 92q0 51 31 93t85.5 66t120.5 24q59 0 108.5 -22t79 -62.5t29.5 -94.5q0 -25 -15 -38.5t-44 -13.5q-25 0 -42.5 9.5t-17.5 26.5q0 101 -106 101q-52 0 -84.5 -25t-32.5 -64q0 -43 32.5 -68.5
t107.5 -45.5q107 -29 161.5 -78t54.5 -114q0 -34 -18 -69.5zM215.5 293.5q13.5 -20.5 42 -33.5t81.5 -27q66 -18 112 -39q14 17 22 38.5t8 40.5q0 36 -33 57t-113 44q-61 18 -104 45q-12 -16 -20.5 -35t-8.5 -36q0 -34 13.5 -54.5z" />
    <glyph glyph-name="dieresis" unicode="&#xa8;" horiz-adv-x="376" 
d="M4 583.5q-23 23.5 -23 55.5q0 31 23 53.5t55 22.5q31 0 55 -23t24 -53q0 -31 -23.5 -55t-55.5 -24t-55 23.5zM280 583.5q-23 23.5 -23 55.5q0 31 23 53.5t55 22.5q31 0 54.5 -23t23.5 -53q0 -32 -23.5 -55.5t-54.5 -23.5q-32 0 -55 23.5z" />
    <glyph glyph-name="copyright" unicode="&#xa9;" horiz-adv-x="910" 
d="M647 655q81 -45 127 -124t46 -179t-45.5 -180.5t-126 -126t-182.5 -45.5q-104 0 -190.5 47.5t-136 129t-49.5 180.5t49 177t134.5 122t192.5 44q100 0 181 -45zM652 156q69 68 69 186q0 131 -63.5 202t-191.5 71q-79 0 -142.5 -33.5t-99 -92.5t-35.5 -132
q0 -76 35.5 -137.5t98.5 -96.5t143 -35q117 0 186 68zM624.5 319.5q12.5 -9.5 12.5 -24.5q0 -65 -47 -104.5t-125 -39.5q-92 0 -148 51t-56 136q0 61 23.5 110t66 77t98.5 28q21 0 43.5 -8t42.5 -22q2 29 29 29q22 0 35.5 -9t13.5 -23q0 -58 -8.5 -78.5t-30.5 -22.5
q-14 0 -22.5 2t-15.5 11q-19 25 -33.5 36t-35.5 11q-27 0 -49.5 -18.5t-36 -50.5t-13.5 -71q0 -59 24.5 -86t75.5 -27q36 0 56 17.5t20 51.5q0 15 13.5 24.5t33.5 9.5q21 0 33.5 -9.5z" />
    <glyph glyph-name="ordfeminine" unicode="&#xaa;" 
d="M310.5 522q4.5 -2 7 -7.5t2.5 -16.5q0 -16 -7 -22t-24 -6q-34 0 -53 24q-12 -15 -26.5 -21.5t-37.5 -6.5q-55 0 -88.5 34.5t-33.5 92.5q0 59 35 96.5t86 37.5q37 0 59 -22q12 20 33 20q15 0 28 -10t10 -23q-6 -23 -8 -36.5t-2 -37.5v-57q0 -21 1.5 -26t11.5 -10
q2 -1 6.5 -3zM216 611q0 52 -40 52q-44 0 -44 -71q0 -33 9 -47t32 -14q15 0 28 10.5t14 28.5q1 13 1 41z" />
    <glyph glyph-name="guillemotleft" unicode="&#xab;" horiz-adv-x="611" 
d="M268 190q-53 16 -101 46t-77.5 65t-29.5 66t30.5 67.5t80.5 67t103 44.5q9 3 19 3q21 0 35 -13t14 -33q0 -19 -11.5 -30t-35.5 -22q-37 -17 -88 -46t-51 -37q0 -5 25 -23.5t56 -36.5t47 -22q20 -5 32.5 -19.5t12.5 -32.5q0 -20 -13.5 -33t-33.5 -13q-4 0 -14 2zM481 185
q-54 17 -102 47t-77 65.5t-29 65.5q0 29 30 64.5t79.5 66t104.5 47.5q10 3 20 3q20 0 32 -13.5t12 -35.5q0 -38 -40 -49q-25 -7 -58 -24.5t-57 -35.5t-24 -24q0 -9 49.5 -40.5t78.5 -40.5q20 -7 31.5 -20t11.5 -31q0 -20 -14 -33.5t-34 -13.5q-4 0 -14 2z" />
    <glyph glyph-name="logicalnot" unicode="&#xac;" horiz-adv-x="782" 
d="M618 189q-11 15 -11 45v135l-207 1l-268 -1q-37 0 -54.5 16.5t-17.5 43.5t17.5 43.5t50.5 16.5l278 1h239q32 0 52.5 -15.5t21.5 -42.5l3 -199q1 -27 -15.5 -43t-47.5 -16q-30 0 -41 15z" />
    <glyph glyph-name="uni00AD" unicode="&#xad;" horiz-adv-x="381" 
d="M55.5 233.5q-15.5 17.5 -15.5 43.5t15 41t36 16q72 3 189 3q28 0 44.5 -16t16.5 -43q0 -25 -18 -41t-45 -16l-85 -2q-54 -3 -99 -3q-23 0 -38.5 17.5z" />
    <glyph glyph-name="registered" unicode="&#xae;" horiz-adv-x="910" 
d="M646.5 663q81.5 -47 127.5 -129t46 -182t-45.5 -180.5t-126 -126t-182.5 -45.5q-104 0 -190.5 47.5t-136 129t-49.5 180.5q0 98 49 179t134 127.5t188 46.5q104 0 185.5 -47zM602.5 117.5q60.5 34.5 94.5 96t34 138.5t-34 139.5t-95.5 98.5t-140.5 36q-78 0 -140 -35.5
t-97 -97t-35 -135.5q0 -75 35.5 -138t98.5 -100t143 -37q76 0 136.5 34.5zM603.5 351q-22.5 -27 -56 -39.5t-67.5 -12.5h-17l132 -84q13 -7 13 -25q0 -17 -14.5 -32.5t-31.5 -15.5q-15 0 -28 10l-128 100v-76q0 -15 -11.5 -25t-34.5 -10q-47 0 -47 39l1 76v94q0 37 -3 89
q-10 6 -15 18.5t-5 25.5q0 15 17 25v7q0 20 17.5 29t38.5 9q23 0 34 -11q37 10 73 10q68 0 111.5 -36t43.5 -98q0 -40 -22.5 -67zM436 371q21 -2 35 -2q33 0 49.5 14t16.5 41q0 25 -21 38.5t-52 13.5q-27 0 -57 -11q0 -52 1 -89q7 -3 28 -5z" />
    <glyph glyph-name="macron" unicode="&#xaf;" horiz-adv-x="431" 
d="M133.5 588q-11.5 -1 -21.5 -1q-25 0 -54 11q-38 14 -38 54q0 23 15 37.5t38 14.5l21 -2q35 -5 56 -5t65 4q48 4 79 4q38 0 66 -4q19 -2 35 -18t16 -37q0 -23 -16.5 -38.5t-34.5 -15.5q-5 1 -23.5 3t-36.5 2q-27 0 -71 -4q-42 -4 -68 -4q-16 0 -27.5 -1z" />
    <glyph glyph-name="degree" unicode="&#xb0;" horiz-adv-x="406" 
d="M84.5 599q-44.5 40 -44.5 103q0 43 21 78t58.5 55.5t84.5 20.5q46 0 83 -19.5t58 -52.5t21 -73q0 -42 -22 -77t-60 -55t-84 -20q-71 0 -115.5 40zM251.5 660.5q19.5 17.5 19.5 48.5q0 27 -18 44.5t-52 17.5q-29 0 -48 -19.5t-19 -49.5q0 -28 18 -43.5t48 -15.5
q32 0 51.5 17.5z" />
    <glyph glyph-name="plusminus" unicode="&#xb1;" horiz-adv-x="560" 
d="M90 337q-14 15 -14 41q0 25 14.5 39.5t44.5 14.5q52 0 90 -1v75q0 25 14 39.5t44 14.5q57 0 57 -54v-77q33 -1 82 -1q63 0 63 -56q0 -25 -15.5 -38.5t-46.5 -13.5h-83v-73q0 -27 -14.5 -42.5t-43.5 -15.5q-31 0 -43.5 15t-12.5 44v73q-39 1 -94 1q-28 0 -42 15z
M466 130.5q19 -15.5 19 -41.5q0 -25 -19 -38.5t-54 -14.5l-270 -3q-31 0 -47 14.5t-16 39.5q0 55 66 56l269 3q33 0 52 -15.5z" />
    <glyph glyph-name="uni00B2" unicode="&#xb2;" horiz-adv-x="409" 
d="M364.5 452q14.5 -13 14.5 -35t-15 -36t-41 -14l-39 1q-34 3 -82 3q-25 0 -65 -2l-47 -1q-28 0 -45.5 14.5t-13.5 36.5q8 49 45 97t111 100q58 41 58 91q0 25 -12 39t-33 14q-16 0 -29.5 -16t-14.5 -41q-1 -24 -16 -34t-47 -10q-28 0 -43 13.5t-15 39.5q0 41 23 74.5
t62.5 52.5t85.5 19q47 0 85 -19.5t60 -54t22 -78.5q0 -47 -27.5 -89t-85.5 -81q-54 -37 -77 -69h19l61 -1q23 -1 60 -1q27 0 41.5 -13z" />
    <glyph glyph-name="uni00B3" unicode="&#xb3;" horiz-adv-x="450" 
d="M420 506q0 -42 -25 -74.5t-66 -50t-87 -17.5q-101 0 -153.5 41.5t-52.5 118.5q0 26 14.5 40t43.5 14q60 0 60 -50q0 -33 17 -49.5t61 -16.5q23 0 45.5 8.5t22.5 37.5q0 45 -62 45q-50 0 -50 47q0 25 11 37t37 12t40 17t14 48q0 24 -14 35t-34 11q-24 0 -38 -13t-14 -33
q0 -2 0.5 -6t0.5 -14q0 -16 -15 -28t-46 -12q-17 0 -32 6.5t-24 18.5q-10 14 -10 39q0 38 24.5 70t65 51t86.5 19t85.5 -19t63 -51t23.5 -69q0 -76 -50 -114q58 -29 58 -99z" />
    <glyph glyph-name="acute" unicode="&#xb4;" horiz-adv-x="376" 
d="M105 572.5q-14 11.5 -17 28.5q-1 4 -1 12q0 23 15 41l87 106q14 17 27.5 24.5t30.5 7.5q23 0 39 -16t16 -39q0 -29 -26 -56l-89 -94q-13 -15 -24 -20.5t-26 -5.5q-18 0 -32 11.5z" />
    <glyph glyph-name="mu" unicode="&#xb5;" horiz-adv-x="660" 
d="M227 227q0 -59 21.5 -88.5t67.5 -29.5q62 0 89.5 42t27.5 138v257h149v-546h-113l-21 73h-7q-21 -42 -50 -62.5t-72 -20.5q-30 0 -55.5 11.5t-41.5 32.5l3 -41l2 -77v-156h-149v786h149v-319z" />
    <glyph glyph-name="paragraph" unicode="&#xb6;" horiz-adv-x="647" 
d="M302.5 -20.5q-10.5 9.5 -10.5 28.5l-1 263q-67 2 -122 32.5t-87 82.5t-32 118q0 72 39.5 127t112 85.5t170.5 30.5q70 0 87 -2q34 -3 51.5 -17t16.5 -35v-674q0 -27 -9.5 -38t-35.5 -11t-37.5 9t-11.5 27l-2 636q0 10 -5 12.5t-16 2.5q-15 0 -20 -2.5t-5 -11.5l1 -637
q0 -17 -12 -26.5t-37 -9.5q-24 0 -34.5 9.5z" />
    <glyph glyph-name="periodcentered" unicode="&#xb7;" horiz-adv-x="436" 
d="M150 280.5q-29 27.5 -29 67.5t29.5 68t68.5 28t67.5 -28t28.5 -68q0 -43 -28.5 -69t-67.5 -26q-40 0 -69 27.5z" />
    <glyph glyph-name="cedilla" unicode="&#xb8;" horiz-adv-x="376" 
d="M71 -214q-18 8 -26.5 15.5t-8.5 19.5q0 38 37 38q16 0 29 -4q34 -10 50 -10q20 0 29 6t9 15q0 20 -53 28q-20 3 -31.5 15t-11.5 29q0 8 3 17l60 93q9 15 15 21.5t17 6.5q24 0 39 -11t15 -31q0 -12 -8 -23l-47 -68q31 -7 57 -25t26 -53q0 -39 -31 -66.5t-92 -27.5
q-42 0 -77 15z" />
    <glyph glyph-name="uni00B9" unicode="&#xb9;" horiz-adv-x="327" 
d="M226.5 835.5q20.5 -15.5 20.5 -39.5v-376q0 -22 -18.5 -35.5t-46.5 -13.5q-27 0 -41 13.5t-14 35.5v287q-14 -23 -25 -36q-8 -10 -19 -15t-22 -5q-16 0 -32 14t-16 34q0 16 24 47l69 87q7 9 27.5 13.5t42.5 4.5q30 0 50.5 -15.5z" />
    <glyph glyph-name="ordmasculine" unicode="&#xba;" horiz-adv-x="368" 
d="M86.5 499.5q-36.5 32.5 -36.5 90.5t36 94.5t97 36.5t98 -36.5t37 -95.5q0 -57 -36 -89.5t-98 -32.5q-61 0 -97.5 32.5zM226 543.5q15 15.5 15 44.5q0 30 -15.5 51t-43.5 21q-25 0 -40 -19t-15 -51q0 -31 15 -46.5t42 -15.5t42 15.5z" />
    <glyph glyph-name="guillemotright" unicode="&#xbb;" horiz-adv-x="613" 
d="M72.5 201.5q-12.5 13.5 -12.5 35.5q0 19 10.5 31.5t29.5 17.5q26 7 58.5 24.5t56.5 35.5t24 25q0 4 -23.5 22t-53.5 35.5t-51 23.5q-19 5 -30.5 18.5t-11.5 30.5q0 21 14 34.5t33 13.5q10 0 15 -2q54 -17 102 -47.5t77 -65t29 -64.5t-30 -64.5t-79.5 -65.5t-104.5 -49
q-10 -3 -20 -3q-20 0 -32.5 13.5zM284 195.5q-14 13.5 -14 34.5q0 19 13 33t34 18q19 3 52.5 21t60.5 37t27 25q0 5 -25 23t-56 36t-48 23q-20 6 -32.5 20t-12.5 32q0 19 13.5 32.5t33.5 13.5q4 0 14 -2q53 -15 101.5 -45t78 -66t29.5 -66q0 -31 -30.5 -67.5t-80.5 -67
t-104 -45.5q-9 -3 -18 -3q-22 0 -36 13.5z" />
    <glyph glyph-name="onequarter" unicode="&#xbc;" horiz-adv-x="938" 
d="M228.5 300.5q-18.5 -13.5 -46.5 -13.5q-27 0 -41 13.5t-14 35.5v287q-14 -23 -25 -36q-8 -10 -19 -15t-22 -5q-16 0 -32 14t-16 34q0 16 24 47l69 87q7 9 27.5 13.5t42.5 4.5q30 0 50.5 -15.5t20.5 -39.5v-376q0 -22 -18.5 -35.5zM674 674l-383 -654q-6 -12 -20 -18
t-31 -6q-24 0 -41.5 12t-17.5 33q0 17 13 39l383 657q9 14 24 21.5t32 7.5q23 0 38.5 -12.5t15.5 -35.5t-13 -44zM895.5 194.5q12.5 -13.5 12.5 -38.5q0 -21 -9 -33t-37 -18q-2 -1 -7 -1l-3 -65q-1 -20 -19 -34.5t-46 -14.5q-29 0 -43.5 15.5t-13.5 37.5l2 55l-97 1
q-47 0 -98 12q-47 12 -47 46q0 15 8 30l16 31q56 106 90 164t68 92q13 13 37 13q25 0 39.5 -14t14.5 -36q0 -21 -22 -47q-31 -36 -62 -93.5t-41 -84.5l-2 -8q0 -5 15 -8q16 -2 28 -2l45 1h12l5 111q1 21 15.5 35t43.5 14q30 0 47 -15.5t16 -38.5l-4 -95h4q20 2 32.5 -11.5z
" />
    <glyph glyph-name="onehalf" unicode="&#xbd;" horiz-adv-x="967" 
d="M674 674l-383 -654q-6 -12 -20 -18t-31 -6q-24 0 -41.5 12t-17.5 33q0 17 13 39l383 657q9 14 24 21.5t32 7.5q23 0 38.5 -12.5t15.5 -35.5t-13 -44zM228.5 298.5q-18.5 -13.5 -46.5 -13.5q-27 0 -41 13.5t-14 35.5v287q-14 -23 -25 -36q-8 -10 -19 -15t-22 -5
q-16 0 -32 14t-16 34q0 16 24 47l69 87q7 9 27.5 13.5t42.5 4.5q30 0 50.5 -15.5t20.5 -39.5v-376q0 -22 -18.5 -35.5zM922.5 85q14.5 -13 14.5 -35t-15 -36t-41 -14l-39 1q-34 3 -82 3q-25 0 -65 -2l-47 -1q-28 0 -45.5 14.5t-13.5 36.5q8 49 45 97t111 100q58 41 58 91
q0 25 -12 39t-33 14q-16 0 -29.5 -16t-14.5 -41q-1 -24 -16 -34t-47 -10q-28 0 -43 13.5t-15 39.5q0 41 23 74.5t62.5 52.5t85.5 19q47 0 85 -19.5t60 -54t22 -78.5q0 -47 -27.5 -89t-85.5 -81q-54 -37 -77 -69h19l61 -1q23 -1 60 -1q27 0 41.5 -13z" />
    <glyph glyph-name="threequarters" unicode="&#xbe;" horiz-adv-x="1062" 
d="M798 674l-383 -654q-6 -12 -20 -18t-31 -6q-24 0 -41.5 12t-17.5 33q0 17 13 39l383 657q9 14 24 21.5t32 7.5q22 0 38 -12.5t16 -35.5t-13 -44zM395 338.5q-25 -32.5 -66 -50t-87 -17.5q-101 0 -153.5 41.5t-52.5 118.5q0 26 14.5 40t43.5 14q60 0 60 -50
q0 -33 17 -49.5t61 -16.5q23 0 45.5 8.5t22.5 37.5q0 45 -62 45q-50 0 -50 47q0 25 11 37t37 12t40 17t14 48q0 24 -14 35t-34 11q-24 0 -38 -13t-14 -33q0 -2 0.5 -6t0.5 -14q0 -16 -15 -28t-46 -12q-17 0 -32 6.5t-24 18.5q-10 14 -10 39q0 38 24.5 70t65 51t86.5 19
t85.5 -19t63 -51t23.5 -69q0 -76 -50 -114q58 -29 58 -99q0 -42 -25 -74.5zM1019.5 194.5q12.5 -13.5 12.5 -38.5q0 -21 -9 -33t-37 -18q-2 -1 -7 -1l-3 -65q-1 -20 -19 -34.5t-46 -14.5q-29 0 -43.5 15.5t-13.5 37.5l2 55l-97 1q-47 0 -98 12q-47 12 -47 46q0 15 8 30
l16 31q56 106 90 164t68 92q13 13 37 13q25 0 39.5 -14t14.5 -36q0 -21 -22 -47q-31 -36 -62 -93.5t-41 -84.5l-2 -8q0 -5 15 -8q16 -2 28 -2l45 1h12l5 111q1 21 15.5 35t43.5 14q30 0 47 -15.5t16 -38.5l-4 -95h4q20 2 32.5 -11.5z" />
    <glyph glyph-name="questiondown" unicode="&#xbf;" horiz-adv-x="549" 
d="M220.5 461.5q-21.5 21.5 -21.5 50.5q0 30 21 52t51 22q31 0 53 -21.5t22 -52.5q0 -29 -22 -50.5t-53 -21.5q-29 0 -50.5 21.5zM163.5 -97q-48.5 28 -76 76.5t-27.5 109.5q0 41 13.5 72.5t32.5 53t50 49.5q33 28 49 49t16 48q0 25 14.5 40.5t37.5 15.5q22 0 35.5 -15.5
t13.5 -40.5q0 -41 -13.5 -72t-32.5 -52t-49 -48q-34 -30 -50 -51t-16 -49q0 -52 30 -82.5t80 -30.5q62 0 89.5 22.5t27.5 72.5q0 21 -11.5 35t-28.5 14q-25 0 -39.5 14t-14.5 39q0 21 15.5 34.5t38.5 13.5q38 0 70.5 -20.5t51.5 -55t19 -74.5q0 -90 -58.5 -143t-157.5 -53
q-61 0 -109.5 28z" />
    <glyph glyph-name="Agrave" unicode="&#xc0;" horiz-adv-x="697" 
d="M375 755.5q-11 5.5 -23 18.5l-79 86q-23 27 -23 50t15 38t37 15q15 0 28 -7.5t27 -24.5l73 -85q9 -10 14 -22.5t5 -23.5q0 -21 -14 -35.5t-35 -14.5q-14 0 -25 5.5zM622 108l12 -39q3 -10 3 -19q0 -29 -24.5 -45t-57.5 -16q-26 0 -45 11t-25 31l-34 129l-204 1l-35 -127
q-6 -23 -24.5 -33.5t-44.5 -10.5q-33 0 -58 16.5t-25 43.5q0 10 3 20l115 346l56 171q23 68 50 96.5t73 28.5q44 0 69.5 -25.5t46.5 -90.5q55 -174 96 -309h27q49 0 49 -63q0 -64 -37 -64h-1zM417 289l-13 47l-25 88l-10 35q-6 22 -10 32t-8 10q-5 0 -8 -9t-9 -32l-8 -29
l-41 -141z" />
    <glyph glyph-name="Aacute" unicode="&#xc1;" horiz-adv-x="697" 
d="M270 764.5q-14 14.5 -14 35.5q0 12 5 25t14 21l93 85q19 18 30.5 25t25.5 7q22 0 37 -15t15 -38q0 -15 -6.5 -28t-16.5 -22l-100 -86q-14 -13 -25 -18.5t-23 -5.5q-21 0 -35 14.5zM622 108l12 -39q3 -10 3 -19q0 -29 -24.5 -45t-57.5 -16q-26 0 -45 11t-25 31l-34 129
l-204 1l-35 -127q-6 -23 -24.5 -33.5t-44.5 -10.5q-33 0 -58 16.5t-25 43.5q0 10 3 20l115 346l56 171q23 68 50 96.5t73 28.5q44 0 69.5 -25.5t46.5 -90.5q55 -174 96 -309h27q49 0 49 -63q0 -64 -37 -64h-1zM417 289l-13 47l-25 88l-10 35q-6 22 -10 32t-8 10q-5 0 -8 -9
t-9 -32l-8 -29l-41 -141z" />
    <glyph glyph-name="Acircumflex" unicode="&#xc2;" horiz-adv-x="697" 
d="M422 771l-41 53q-3 4 -15.5 20.5t-16.5 16.5q-6 0 -32 -31q-21 -24 -43 -48q-14 -15 -24.5 -21t-23.5 -6q-22 0 -38 15.5t-16 36.5q0 23 15 38l29 31q40 46 71 72.5t57 26.5q30 0 49.5 -16t52.5 -55q5 -6 22 -26.5t35 -38.5q15 -15 15 -37t-14.5 -37t-35.5 -15
q-29 0 -46 21zM622 108l12 -39q3 -10 3 -19q0 -29 -24.5 -45t-57.5 -16q-26 0 -45 11t-25 31l-34 129l-204 1l-35 -127q-6 -23 -24.5 -33.5t-44.5 -10.5q-33 0 -58 16.5t-25 43.5q0 10 3 20l115 346l56 171q23 68 50 96.5t73 28.5q44 0 69.5 -25.5t46.5 -90.5
q55 -174 96 -309h27q49 0 49 -63q0 -64 -37 -64h-1zM417 289l-13 47l-25 88l-10 35q-6 22 -10 32t-8 10q-5 0 -8 -9t-9 -32l-8 -29l-41 -141z" />
    <glyph glyph-name="Atilde" unicode="&#xc3;" horiz-adv-x="697" 
d="M159 823q0 19 14 36q28 34 52 48t55 14q24 0 50.5 -6.5t48.5 -18.5q5 -3 15.5 -8.5t17 -8t9.5 -2.5q6 0 14 8q13 13 21.5 18.5t20.5 5.5q20 0 37 -17t17 -38q0 -22 -16 -38q-24 -24 -46.5 -35t-47.5 -11q-21 0 -40 7t-32 13.5t-16 8.5q-4 2 -19.5 10t-24.5 8
q-6 0 -13.5 -6.5t-17.5 -17.5q-21 -23 -46 -23q-21 0 -36 15q-17 17 -17 38zM622 108l12 -39q3 -10 3 -19q0 -29 -24.5 -45t-57.5 -16q-26 0 -45 11t-25 31l-34 129l-204 1l-35 -127q-6 -23 -24.5 -33.5t-44.5 -10.5q-33 0 -58 16.5t-25 43.5q0 10 3 20l115 346l56 171
q23 68 50 96.5t73 28.5q44 0 69.5 -25.5t46.5 -90.5q55 -174 96 -309h27q49 0 49 -63q0 -64 -37 -64h-1zM417 289l-13 47l-25 88l-10 35q-6 22 -10 32t-8 10q-5 0 -8 -9t-9 -32l-8 -29l-41 -141z" />
    <glyph glyph-name="Adieresis" unicode="&#xc4;" horiz-adv-x="697" 
d="M154 783.5q-23 23.5 -23 55.5q0 31 23 53.5t55 22.5q31 0 55 -23t24 -53q0 -31 -24 -55t-55 -24q-32 0 -55 23.5zM430 783.5q-23 23.5 -23 55.5q0 31 23 53.5t55 22.5q31 0 54.5 -23t23.5 -53q0 -32 -23.5 -55.5t-54.5 -23.5q-32 0 -55 23.5zM622 108l12 -39q3 -10 3 -19
q0 -29 -24.5 -45t-57.5 -16q-26 0 -45 11t-25 31l-34 129l-204 1l-35 -127q-6 -23 -24.5 -33.5t-44.5 -10.5q-33 0 -58 16.5t-25 43.5q0 10 3 20l115 346l56 171q23 68 50 96.5t73 28.5q44 0 69.5 -25.5t46.5 -90.5q55 -174 96 -309h27q49 0 49 -63q0 -64 -37 -64h-1z
M417 289l-13 47l-25 88l-10 35q-6 22 -10 32t-8 10q-5 0 -8 -9t-9 -32l-8 -29l-41 -141z" />
    <glyph glyph-name="Aring" unicode="&#xc5;" horiz-adv-x="697" 
d="M282.5 755q-30.5 18 -48.5 48.5t-18 66.5q0 35 18 65t49 47.5t68 17.5q36 0 66 -18.5t47 -48.5t17 -63q0 -57 -37.5 -95t-94.5 -38q-36 0 -66.5 18zM382 837q13 13 13 34q0 17 -13 30t-33 13q-19 0 -32.5 -12.5t-13.5 -30.5q0 -20 13 -33.5t33 -13.5t33 13zM622 108
l12 -39q3 -10 3 -19q0 -29 -24.5 -45t-57.5 -16q-26 0 -45 11t-25 31l-34 129l-204 1l-35 -127q-6 -23 -24.5 -33.5t-44.5 -10.5q-33 0 -58 16.5t-25 43.5q0 10 3 20l115 346l56 171q23 68 50 96.5t73 28.5q44 0 69.5 -25.5t46.5 -90.5q55 -174 96 -309h27q49 0 49 -63
q0 -64 -37 -64h-1zM417 289l-13 47l-25 88l-10 35q-6 22 -10 32t-8 10q-5 0 -8 -9t-9 -32l-8 -29l-41 -141z" />
    <glyph glyph-name="AE" unicode="&#xc6;" horiz-adv-x="880" 
d="M803 124q12 -5 21.5 -19t9.5 -37q0 -32 -14.5 -47.5t-30.5 -20.5q-14 -4 -34.5 -5t-47.5 -1h-259q-33 0 -49 15.5t-16 43.5q0 31 13 46.5t35 15.5q3 24 7 74l-147 1q-42 -82 -69 -139l-11 -22q-6 -12 -16 -20.5t-31 -8.5q-22 0 -49 11t-43 26.5t-10 29.5
q108 235 206 416.5t163 204.5q5 3 9 3q34 0 66 1t55 2l74 2q62 0 167 -9q20 -2 29 -14t9 -38q0 -41 -14 -53.5t-37 -10.5q-42 3 -92 3q-65 0 -105 -3q4 -84 4 -163l45 -1q90 -2 105 -3q25 -3 25 -45q0 -25 -11.5 -37.5t-41.5 -12.5l-72 2h-50q-2 -76 -10 -157l-3 -29
q26 -4 69 -4h51q17 0 34 1.5t45 5.5q9 1 21 -4zM443 289q2 62 2 187q-41 -66 -103 -186z" />
    <glyph glyph-name="Ccedilla" unicode="&#xc7;" horiz-adv-x="742" 
d="M674 123.5q-38 -57.5 -105.5 -91t-151.5 -36.5l-37 -53q31 -7 57 -25t26 -53q0 -39 -31 -66.5t-92 -27.5q-42 0 -77 15q-18 8 -26.5 15.5t-8.5 19.5q0 38 37 38q16 0 29 -4q34 -10 50 -10q20 0 29 6t9 15q0 20 -53 28q-20 3 -31.5 15t-11.5 29q0 8 3 17l31 48
q-124 23 -197 110.5t-73 218.5q0 106 41.5 193.5t113.5 138t159 50.5q115 0 177 -54v5q0 19 19 33t48 14q34 0 53 -16.5t19 -47.5l-1 -96q-2 -88 -72 -88q-16 0 -31.5 6t-23.5 17q-26 35 -42 53t-42 31t-64 13q-51 0 -99.5 -34t-79 -91.5t-30.5 -125.5q0 -60 27.5 -107
t75 -73.5t103.5 -26.5q43 0 80 16t59.5 45.5t22.5 66.5q0 30 19 49t53 19q36 0 56.5 -19t20.5 -51q0 -71 -38 -128.5z" />
    <glyph glyph-name="Egrave" unicode="&#xc8;" horiz-adv-x="640" 
d="M375 755.5q-11 5.5 -23 18.5l-79 86q-23 27 -23 50t15 38t37 15q15 0 28 -7.5t27 -24.5l73 -85q9 -10 14 -22.5t5 -23.5q0 -21 -14 -35.5t-35 -14.5q-14 0 -25 5.5zM530 146q30 0 47 -17.5t17 -47.5q0 -52 -54 -63q-45 -9 -168 -9h-32q-55 0 -104.5 3t-121.5 12
q-44 6 -44 60q0 26 10 43.5t31 19.5h10q12 81 10 156h-7q-24 0 -35.5 16.5t-11.5 49.5q0 28 11.5 46t34.5 18h8q1 37 1 141q-34 14 -34 57q0 32 17 46.5t53 18.5q49 5 178 5q125 0 191 -8q30 -3 46.5 -17.5t16.5 -44.5t-15 -48.5t-41 -16.5q-92 8 -162 8q-32 0 -82 -2
l-26 -1l3 -140h23q50 0 122 -2l64 -2q39 0 39 -63q0 -30 -11.5 -47t-32.5 -17q-30 0 -51 1l-130 1h-22q-2 -90 -12 -162q38 -4 95 -4q83 0 156 9q5 1 13 1z" />
    <glyph glyph-name="Eacute" unicode="&#xc9;" horiz-adv-x="640" 
d="M270 764.5q-14 14.5 -14 35.5q0 12 5 25t14 21l93 85q19 18 30.5 25t25.5 7q22 0 37 -15t15 -38q0 -15 -6.5 -28t-16.5 -22l-100 -86q-14 -13 -25 -18.5t-23 -5.5q-21 0 -35 14.5zM530 146q30 0 47 -17.5t17 -47.5q0 -52 -54 -63q-45 -9 -168 -9h-32q-55 0 -104.5 3
t-121.5 12q-44 6 -44 60q0 26 10 43.5t31 19.5h10q12 81 10 156h-7q-24 0 -35.5 16.5t-11.5 49.5q0 28 11.5 46t34.5 18h8q1 37 1 141q-34 14 -34 57q0 32 17 46.5t53 18.5q49 5 178 5q125 0 191 -8q30 -3 46.5 -17.5t16.5 -44.5t-15 -48.5t-41 -16.5q-92 8 -162 8
q-32 0 -82 -2l-26 -1l3 -140h23q50 0 122 -2l64 -2q39 0 39 -63q0 -30 -11.5 -47t-32.5 -17q-30 0 -51 1l-130 1h-22q-2 -90 -12 -162q38 -4 95 -4q83 0 156 9q5 1 13 1z" />
    <glyph glyph-name="Ecircumflex" unicode="&#xca;" horiz-adv-x="640" 
d="M422 771l-41 53q-3 4 -15.5 20.5t-16.5 16.5q-6 0 -32 -31q-21 -24 -43 -48q-14 -15 -24.5 -21t-23.5 -6q-22 0 -38 15.5t-16 36.5q0 23 15 38l29 31q40 46 71 72.5t57 26.5q30 0 49.5 -16t52.5 -55q5 -6 22 -26.5t35 -38.5q15 -15 15 -37t-14.5 -37t-35.5 -15
q-29 0 -46 21zM530 146q30 0 47 -17.5t17 -47.5q0 -52 -54 -63q-45 -9 -168 -9h-32q-55 0 -104.5 3t-121.5 12q-44 6 -44 60q0 26 10 43.5t31 19.5h10q12 81 10 156h-7q-24 0 -35.5 16.5t-11.5 49.5q0 28 11.5 46t34.5 18h8q1 37 1 141q-34 14 -34 57q0 32 17 46.5t53 18.5
q49 5 178 5q125 0 191 -8q30 -3 46.5 -17.5t16.5 -44.5t-15 -48.5t-41 -16.5q-92 8 -162 8q-32 0 -82 -2l-26 -1l3 -140h23q50 0 122 -2l64 -2q39 0 39 -63q0 -30 -11.5 -47t-32.5 -17q-30 0 -51 1l-130 1h-22q-2 -90 -12 -162q38 -4 95 -4q83 0 156 9q5 1 13 1z" />
    <glyph glyph-name="Edieresis" unicode="&#xcb;" horiz-adv-x="640" 
d="M154 783.5q-23 23.5 -23 55.5q0 31 23 53.5t55 22.5q31 0 55 -23t24 -53q0 -31 -24 -55t-55 -24q-32 0 -55 23.5zM430 783.5q-23 23.5 -23 55.5q0 31 23 53.5t55 22.5q31 0 54.5 -23t23.5 -53q0 -32 -23.5 -55.5t-54.5 -23.5q-32 0 -55 23.5zM530 146q30 0 47 -17.5
t17 -47.5q0 -52 -54 -63q-45 -9 -168 -9h-32q-55 0 -104.5 3t-121.5 12q-44 6 -44 60q0 26 10 43.5t31 19.5h10q12 81 10 156h-7q-24 0 -35.5 16.5t-11.5 49.5q0 28 11.5 46t34.5 18h8q1 37 1 141q-34 14 -34 57q0 32 17 46.5t53 18.5q49 5 178 5q125 0 191 -8
q30 -3 46.5 -17.5t16.5 -44.5t-15 -48.5t-41 -16.5q-92 8 -162 8q-32 0 -82 -2l-26 -1l3 -140h23q50 0 122 -2l64 -2q39 0 39 -63q0 -30 -11.5 -47t-32.5 -17q-30 0 -51 1l-130 1h-22q-2 -90 -12 -162q38 -4 95 -4q83 0 156 9q5 1 13 1z" />
    <glyph glyph-name="Igrave" unicode="&#xcc;" horiz-adv-x="510" 
d="M292 755.5q-11 5.5 -23 18.5l-79 86q-23 27 -23 50t15 38t37 15q15 0 28 -7.5t27 -24.5l73 -85q9 -10 14 -22.5t5 -23.5q0 -21 -14 -35.5t-35 -14.5q-14 0 -25 5.5zM470 68q0 -66 -65 -66l-300 4q-33 1 -46.5 20t-13.5 45q0 33 17.5 49.5t42.5 16.5l83 -1q13 221 14 443
q-43 -3 -72 -6l-33 -2q-28 0 -42.5 17t-14.5 48q0 32 14.5 47t42.5 19q22 3 78 6t112 3q54 0 126 -6q28 -2 42.5 -19.5t14.5 -45.5q0 -63 -63 -63q-15 0 -60 3q-2 -272 -15 -446l74 -1q64 -1 64 -65z" />
    <glyph glyph-name="Iacute" unicode="&#xcd;" horiz-adv-x="510" 
d="M187 764.5q-14 14.5 -14 35.5q0 12 5 25t14 21l93 85q19 18 30.5 25t25.5 7q22 0 37 -15t15 -38q0 -15 -6.5 -28t-16.5 -22l-100 -86q-14 -13 -25 -18.5t-23 -5.5q-21 0 -35 14.5zM470 68q0 -66 -65 -66l-300 4q-33 1 -46.5 20t-13.5 45q0 33 17.5 49.5t42.5 16.5l83 -1
q13 221 14 443q-43 -3 -72 -6l-33 -2q-28 0 -42.5 17t-14.5 48q0 32 14.5 47t42.5 19q22 3 78 6t112 3q54 0 126 -6q28 -2 42.5 -19.5t14.5 -45.5q0 -63 -63 -63q-15 0 -60 3q-2 -272 -15 -446l74 -1q64 -1 64 -65z" />
    <glyph glyph-name="Icircumflex" unicode="&#xce;" horiz-adv-x="510" 
d="M339 771l-41 53q-3 4 -15.5 20.5t-16.5 16.5q-6 0 -32 -31q-21 -24 -43 -48q-14 -15 -24.5 -21t-23.5 -6q-22 0 -38 15.5t-16 36.5q0 23 15 38l29 31q40 46 71 72.5t57 26.5q30 0 49.5 -16t52.5 -55q5 -6 22 -26.5t35 -38.5q15 -15 15 -37t-14.5 -37t-35.5 -15
q-29 0 -46 21zM470 68q0 -66 -65 -66l-300 4q-33 1 -46.5 20t-13.5 45q0 33 17.5 49.5t42.5 16.5l83 -1q13 221 14 443q-43 -3 -72 -6l-33 -2q-28 0 -42.5 17t-14.5 48q0 32 14.5 47t42.5 19q22 3 78 6t112 3q54 0 126 -6q28 -2 42.5 -19.5t14.5 -45.5q0 -63 -63 -63
q-15 0 -60 3q-2 -272 -15 -446l74 -1q64 -1 64 -65z" />
    <glyph glyph-name="Idieresis" unicode="&#xcf;" horiz-adv-x="510" 
d="M71 783.5q-23 23.5 -23 55.5q0 31 23 53.5t55 22.5q31 0 55 -23t24 -53q0 -31 -24 -55t-55 -24q-32 0 -55 23.5zM347 783.5q-23 23.5 -23 55.5q0 31 23 53.5t55 22.5q31 0 54.5 -23t23.5 -53q0 -32 -23.5 -55.5t-54.5 -23.5q-32 0 -55 23.5zM470 68q0 -66 -65 -66l-300 4
q-33 1 -46.5 20t-13.5 45q0 33 17.5 49.5t42.5 16.5l83 -1q13 221 14 443q-43 -3 -72 -6l-33 -2q-28 0 -42.5 17t-14.5 48q0 32 14.5 47t42.5 19q22 3 78 6t112 3q54 0 126 -6q28 -2 42.5 -19.5t14.5 -45.5q0 -63 -63 -63q-15 0 -60 3q-2 -272 -15 -446l74 -1q64 -1 64 -65z
" />
    <glyph glyph-name="Eth" unicode="&#xd0;" horiz-adv-x="716" 
d="M466 650.5q94 -42.5 147 -118.5t53 -179q0 -104 -55 -183t-156.5 -122t-237.5 -43h-65q-42 0 -62 15t-20 51q0 52 56 60l-5 161h-8q-44 1 -68.5 20t-24.5 53t25.5 54.5t70.5 19.5h1l-4 144q-44 16 -44 60q0 24 13.5 37t45.5 19q17 18 60 18q42 0 62 -16q122 -8 216 -50.5
zM447 211.5q56 58.5 56 148.5q0 177 -224 208l4 -134l28 -1q41 -2 65 -22t24 -53q0 -32 -24 -51.5t-66 -19.5l-23 1l4 -150q100 15 156 73.5z" />
    <glyph glyph-name="Ntilde" unicode="&#xd1;" horiz-adv-x="759" 
d="M199 823q0 19 14 36q28 34 52 48t55 14q24 0 50.5 -6.5t48.5 -18.5q5 -3 15.5 -8.5t17 -8t9.5 -2.5q6 0 14 8q13 13 21.5 18.5t20.5 5.5q20 0 37 -17t17 -38q0 -22 -16 -38q-24 -24 -46.5 -35t-47.5 -11q-21 0 -40 7t-32 13.5t-16 8.5q-4 2 -19.5 10t-24.5 8
q-6 0 -13.5 -6.5t-17.5 -17.5q-21 -23 -46 -23q-21 0 -36 15q-17 17 -17 38zM671.5 696q17.5 -19 17.5 -59q0 -79 -1 -119l-1 -148q0 -152 -8.5 -227t-31.5 -104t-70 -29q-36 0 -66.5 23t-69 76t-107.5 163l-118 191q1 -37 1 -138l1 -255q0 -26 -20.5 -44t-52.5 -18
t-52.5 17.5t-20.5 44.5v261l-1 109q-1 28 -1 79q0 74 6.5 114t24.5 57.5t54 17.5q35 0 63.5 -21t67 -75t115.5 -177q41 -65 122 -198l19 -32v165l1 283q0 27 18 44.5t56 17.5q37 0 54.5 -19z" />
    <glyph glyph-name="Ograve" unicode="&#xd2;" horiz-adv-x="812" 
d="M428 755.5q-11 5.5 -23 18.5l-79 86q-23 27 -23 50t15 38t37 15q15 0 28 -7.5t27 -24.5l73 -85q9 -10 14 -22.5t5 -23.5q0 -21 -14 -35.5t-35 -14.5q-14 0 -25 5.5zM215 47.5q-79 41.5 -122 118t-43 180.5q0 105 44 187.5t122.5 129t179.5 46.5q104 0 187.5 -48.5
t131 -132.5t47.5 -186q0 -101 -46.5 -177t-128.5 -117.5t-188 -41.5q-105 0 -184 41.5zM513 160q48 24 76 72t28 116q0 67 -26.5 119.5t-75.5 82t-113 29.5t-110.5 -29.5t-71.5 -81t-25 -117.5q0 -104 58.5 -159.5t151.5 -55.5q60 0 108 24z" />
    <glyph glyph-name="Oacute" unicode="&#xd3;" horiz-adv-x="812" 
d="M323 764.5q-14 14.5 -14 35.5q0 12 5 25t14 21l93 85q19 18 30.5 25t25.5 7q22 0 37 -15t15 -38q0 -15 -6.5 -28t-16.5 -22l-100 -86q-14 -13 -25 -18.5t-23 -5.5q-21 0 -35 14.5zM215 47.5q-79 41.5 -122 118t-43 180.5q0 105 44 187.5t122.5 129t179.5 46.5
q104 0 187.5 -48.5t131 -132.5t47.5 -186q0 -101 -46.5 -177t-128.5 -117.5t-188 -41.5q-105 0 -184 41.5zM513 160q48 24 76 72t28 116q0 67 -26.5 119.5t-75.5 82t-113 29.5t-110.5 -29.5t-71.5 -81t-25 -117.5q0 -104 58.5 -159.5t151.5 -55.5q60 0 108 24z" />
    <glyph glyph-name="Ocircumflex" unicode="&#xd4;" horiz-adv-x="812" 
d="M475 771l-41 53q-3 4 -15.5 20.5t-16.5 16.5q-6 0 -32 -31q-21 -24 -43 -48q-14 -15 -24.5 -21t-23.5 -6q-22 0 -38 15.5t-16 36.5q0 23 15 38l29 31q40 46 71 72.5t57 26.5q30 0 49.5 -16t52.5 -55q5 -6 22 -26.5t35 -38.5q15 -15 15 -37t-14.5 -37t-35.5 -15
q-29 0 -46 21zM215 47.5q-79 41.5 -122 118t-43 180.5q0 105 44 187.5t122.5 129t179.5 46.5q104 0 187.5 -48.5t131 -132.5t47.5 -186q0 -101 -46.5 -177t-128.5 -117.5t-188 -41.5q-105 0 -184 41.5zM513 160q48 24 76 72t28 116q0 67 -26.5 119.5t-75.5 82t-113 29.5
t-110.5 -29.5t-71.5 -81t-25 -117.5q0 -104 58.5 -159.5t151.5 -55.5q60 0 108 24z" />
    <glyph glyph-name="Otilde" unicode="&#xd5;" horiz-adv-x="812" 
d="M212 823q0 19 14 36q28 34 52 48t55 14q24 0 50.5 -6.5t48.5 -18.5q5 -3 15.5 -8.5t17 -8t9.5 -2.5q6 0 14 8q13 13 21.5 18.5t20.5 5.5q20 0 37 -17t17 -38q0 -22 -16 -38q-24 -24 -46.5 -35t-47.5 -11q-21 0 -40 7t-32 13.5t-16 8.5q-4 2 -19.5 10t-24.5 8
q-6 0 -13.5 -6.5t-17.5 -17.5q-21 -23 -46 -23q-21 0 -36 15q-17 17 -17 38zM215 47.5q-79 41.5 -122 118t-43 180.5q0 105 44 187.5t122.5 129t179.5 46.5q104 0 187.5 -48.5t131 -132.5t47.5 -186q0 -101 -46.5 -177t-128.5 -117.5t-188 -41.5q-105 0 -184 41.5zM513 160
q48 24 76 72t28 116q0 67 -26.5 119.5t-75.5 82t-113 29.5t-110.5 -29.5t-71.5 -81t-25 -117.5q0 -104 58.5 -159.5t151.5 -55.5q60 0 108 24z" />
    <glyph glyph-name="Odieresis" unicode="&#xd6;" horiz-adv-x="812" 
d="M207 783.5q-23 23.5 -23 55.5q0 31 23 53.5t55 22.5q31 0 55 -23t24 -53q0 -31 -24 -55t-55 -24q-32 0 -55 23.5zM483 783.5q-23 23.5 -23 55.5q0 31 23 53.5t55 22.5q31 0 54.5 -23t23.5 -53q0 -32 -23.5 -55.5t-54.5 -23.5q-32 0 -55 23.5zM215 47.5q-79 41.5 -122 118
t-43 180.5q0 105 44 187.5t122.5 129t179.5 46.5q104 0 187.5 -48.5t131 -132.5t47.5 -186q0 -101 -46.5 -177t-128.5 -117.5t-188 -41.5q-105 0 -184 41.5zM513 160q48 24 76 72t28 116q0 67 -26.5 119.5t-75.5 82t-113 29.5t-110.5 -29.5t-71.5 -81t-25 -117.5
q0 -104 58.5 -159.5t151.5 -55.5q60 0 108 24z" />
    <glyph glyph-name="multiply" unicode="&#xd7;" horiz-adv-x="560" 
d="M479 179q3 -7 3 -16q0 -18 -17 -34t-41 -16q-19 0 -31.5 7t-26.5 21l-87 86l-85 -95q-10 -11 -21 -17.5t-28 -6.5q-24 0 -45 17t-21 32q0 10 2.5 17.5t11.5 18.5q59 68 103 116q-47 47 -91 94q-14 15 -17 20t-3 16q0 19 18 37t48 18q32 0 56 -28q27 -31 65 -71
q44 49 59 68q22 28 55 28t50.5 -13.5t17.5 -37.5q0 -11 -2.5 -17t-12.5 -18l-84 -94l111 -115q10 -10 13 -17z" />
    <glyph glyph-name="Oslash" unicode="&#xd8;" horiz-adv-x="840" 
d="M773 672l-86 -102q36 -47 55.5 -105t19.5 -123q0 -101 -46.5 -177t-128.5 -117.5t-188 -41.5q-88 0 -161 31l-48 -57q-9 -12 -22 -19.5t-28 -7.5q-23 0 -39.5 15t-16.5 37q0 8 1.5 14t7.5 15l53 63q-46 45 -71 108t-25 141q0 105 44 187.5t122.5 129t179.5 46.5
q120 0 212 -64l78 93q10 14 23.5 21t26.5 7q22 0 38 -16t16 -38q0 -20 -17 -40zM239 208l284 336q-50 35 -121 35q-64 0 -110.5 -29.5t-71.5 -81t-25 -117.5q0 -88 44 -143zM594 460l-264 -313q36 -11 75 -11q60 0 108 24t76 72t28 116q0 61 -23 112z" />
    <glyph glyph-name="Ugrave" unicode="&#xd9;" horiz-adv-x="704" 
d="M376 755.5q-11 5.5 -23 18.5l-79 86q-23 27 -23 50t15 38t37 15q15 0 28 -7.5t27 -24.5l73 -85q9 -10 14 -22.5t5 -23.5q0 -21 -14 -35.5t-35 -14.5q-14 0 -25 5.5zM633 74q0 -42 -18 -60t-55 -18t-54.5 16.5t-17.5 54.5v20q-28 -38 -75.5 -62.5t-109.5 -24.5
q-71 0 -124 33t-81 92.5t-28 136.5q0 124 5 344l1 35q1 28 20.5 45.5t54.5 17.5q34 0 52 -16t18 -47q0 -67 -2 -175q-2 -116 -2 -204q0 -61 31.5 -96t75.5 -35q39 0 76.5 27.5t61.5 75t24 104.5v68q-1 56 -1 240q0 64 68 64q35 0 55 -16.5t20 -47.5q0 -59 2 -189v-29
q3 -132 3 -354z" />
    <glyph glyph-name="Uacute" unicode="&#xda;" horiz-adv-x="704" 
d="M271 764.5q-14 14.5 -14 35.5q0 12 5 25t14 21l93 85q19 18 30.5 25t25.5 7q22 0 37 -15t15 -38q0 -15 -6.5 -28t-16.5 -22l-100 -86q-14 -13 -25 -18.5t-23 -5.5q-21 0 -35 14.5zM633 74q0 -42 -18 -60t-55 -18t-54.5 16.5t-17.5 54.5v20q-28 -38 -75.5 -62.5
t-109.5 -24.5q-71 0 -124 33t-81 92.5t-28 136.5q0 124 5 344l1 35q1 28 20.5 45.5t54.5 17.5q34 0 52 -16t18 -47q0 -67 -2 -175q-2 -116 -2 -204q0 -61 31.5 -96t75.5 -35q39 0 76.5 27.5t61.5 75t24 104.5v68q-1 56 -1 240q0 64 68 64q35 0 55 -16.5t20 -47.5
q0 -59 2 -189v-29q3 -132 3 -354z" />
    <glyph glyph-name="Ucircumflex" unicode="&#xdb;" horiz-adv-x="704" 
d="M423 771l-41 53q-3 4 -15.5 20.5t-16.5 16.5q-6 0 -32 -31q-21 -24 -43 -48q-14 -15 -24.5 -21t-23.5 -6q-22 0 -38 15.5t-16 36.5q0 23 15 38l29 31q40 46 71 72.5t57 26.5q30 0 49.5 -16t52.5 -55q5 -6 22 -26.5t35 -38.5q15 -15 15 -37t-14.5 -37t-35.5 -15
q-29 0 -46 21zM633 74q0 -42 -18 -60t-55 -18t-54.5 16.5t-17.5 54.5v20q-28 -38 -75.5 -62.5t-109.5 -24.5q-71 0 -124 33t-81 92.5t-28 136.5q0 124 5 344l1 35q1 28 20.5 45.5t54.5 17.5q34 0 52 -16t18 -47q0 -67 -2 -175q-2 -116 -2 -204q0 -61 31.5 -96t75.5 -35
q39 0 76.5 27.5t61.5 75t24 104.5v68q-1 56 -1 240q0 64 68 64q35 0 55 -16.5t20 -47.5q0 -59 2 -189v-29q3 -132 3 -354z" />
    <glyph glyph-name="Udieresis" unicode="&#xdc;" horiz-adv-x="704" 
d="M155 783.5q-23 23.5 -23 55.5q0 31 23 53.5t55 22.5q31 0 55 -23t24 -53q0 -31 -24 -55t-55 -24q-32 0 -55 23.5zM431 783.5q-23 23.5 -23 55.5q0 31 23 53.5t55 22.5q31 0 54.5 -23t23.5 -53q0 -32 -23.5 -55.5t-54.5 -23.5q-32 0 -55 23.5zM633 74q0 -42 -18 -60
t-55 -18t-54.5 16.5t-17.5 54.5v20q-28 -38 -75.5 -62.5t-109.5 -24.5q-71 0 -124 33t-81 92.5t-28 136.5q0 124 5 344l1 35q1 28 20.5 45.5t54.5 17.5q34 0 52 -16t18 -47q0 -67 -2 -175q-2 -116 -2 -204q0 -61 31.5 -96t75.5 -35q39 0 76.5 27.5t61.5 75t24 104.5v68
q-1 56 -1 240q0 64 68 64q35 0 55 -16.5t20 -47.5q0 -59 2 -189v-29q3 -132 3 -354z" />
    <glyph glyph-name="Yacute" unicode="&#xdd;" horiz-adv-x="655" 
d="M256 764.5q-14 14.5 -14 35.5q0 12 5 25t14 21l93 85q19 18 30.5 25t25.5 7q22 0 37 -15t15 -38q0 -15 -6.5 -28t-16.5 -22l-100 -86q-14 -13 -25 -18.5t-23 -5.5q-21 0 -35 14.5zM277 19q-19 18 -19 49l-3 264q-14 0 -52.5 38.5t-60.5 71.5q-19 28 -44 77t-45 100
q-3 8 -3 16q0 25 24.5 46t58.5 21q24 0 40 -12.5t29 -39.5q47 -97 75 -145q40 -66 54 -66q13 0 49 66l78 149q13 24 25.5 35t39.5 11q37 0 61 -16.5t24 -45.5q0 -10 -7 -29q-9 -23 -39.5 -83.5t-48.5 -87.5q-24 -37 -61.5 -71.5t-51.5 -34.5l3 -261q0 -33 -18.5 -51.5
t-53.5 -18.5t-54 18z" />
    <glyph glyph-name="Thorn" unicode="&#xde;" horiz-adv-x="686" 
d="M498.5 616q70.5 -32 109 -87t38.5 -122q0 -66 -37 -119t-102 -82.5t-145 -29.5q-47 0 -83 12l-2 -130q-1 -28 -24.5 -47t-58.5 -19q-36 0 -59.5 19.5t-23.5 52.5l2 27q1 11 2.5 38.5t1.5 53.5t-2 110q-1 59 -7 168l-8 -3q-23 -7 -36 -7q-26 0 -41.5 17.5t-15.5 42.5
q0 31 28 56q23 20 65 37q-2 64 -2 89q0 31 23.5 49.5t58.5 18.5q34 0 58 -17.5t24 -48.5q0 -34 1 -52q42 5 74 5q91 0 161.5 -32zM445.5 335q34.5 29 34.5 80q0 48 -39 75t-140 27q-11 0 -31 -2l6 -96q2 -48 2 -70q1 -10 1 -32q41 -11 75 -11q57 0 91.5 29z" />
    <glyph glyph-name="germandbls" unicode="&#xdf;" horiz-adv-x="627" 
d="M316.5 -2.5q-32.5 5.5 -56.5 20.5q-30 19 -30 47q0 22 13.5 43t33.5 21q10 0 18 -4q25 -11 39.5 -16.5t29.5 -5.5q41 0 58.5 14.5t17.5 47.5q0 20 -17 34.5t-51 32.5q-45 24 -69 46t-24 61q0 37 27.5 69.5t82.5 54.5q8 20 8 39q0 40 -27.5 68t-62.5 28q-51 0 -79.5 -46.5
t-29.5 -150.5l-5 -337q-1 -27 -18 -42.5t-48 -15.5t-49 16t-18 43l3 337q2 155 63 231t187 76q60 0 111 -27t81 -73t30 -100q0 -62 -27 -108q-44 -5 -71 -21t-27 -38q0 -8 12.5 -17.5t39.5 -25.5q55 -31 87.5 -61t32.5 -73q0 -82 -53.5 -127.5t-151.5 -45.5q-28 0 -60.5 5.5
z" />
    <glyph glyph-name="agrave" unicode="&#xe0;" horiz-adv-x="614" 
d="M314 555.5q-11 5.5 -23 18.5l-79 86q-23 27 -23 50t15 38t37 15q15 0 28 -7.5t27 -24.5l73 -85q9 -10 14 -22.5t5 -23.5q0 -21 -14 -35.5t-35 -14.5q-14 0 -25 5.5zM563.5 97q10.5 -11 10.5 -39q0 -24 -12.5 -41t-33.5 -17q-43 0 -66 10.5t-42 38.5q-22 -33 -60 -46.5
t-89 -13.5q-113 0 -172 65t-59 181q0 76 31 135t86.5 92t127.5 33q36 0 67 -14t47 -37l2 13q2 14 16 23.5t44 9.5q32 0 47 -13t15 -33q0 -7 -1 -11q-6 -34 -12 -114q-3 -37 -3 -95v-50q0 -29 5 -44.5t22 -18.5q19 -3 29.5 -14zM368 307q0 34 -22.5 55.5t-57.5 21.5
q-45 0 -74 -41.5t-29 -106.5q0 -62 26 -99t70 -37q41 0 63 20.5t23 59.5q1 41 1 127z" />
    <glyph glyph-name="aacute" unicode="&#xe1;" horiz-adv-x="614" 
d="M209 564.5q-14 14.5 -14 35.5q0 12 5 25t14 21l93 85q19 18 30.5 25t25.5 7q22 0 37 -15t15 -38q0 -15 -6.5 -28t-16.5 -22l-100 -86q-14 -13 -25 -18.5t-23 -5.5q-21 0 -35 14.5zM563.5 97q10.5 -11 10.5 -39q0 -24 -12.5 -41t-33.5 -17q-43 0 -66 10.5t-42 38.5
q-22 -33 -60 -46.5t-89 -13.5q-113 0 -172 65t-59 181q0 76 31 135t86.5 92t127.5 33q36 0 67 -14t47 -37l2 13q2 14 16 23.5t44 9.5q32 0 47 -13t15 -33q0 -7 -1 -11q-6 -34 -12 -114q-3 -37 -3 -95v-50q0 -29 5 -44.5t22 -18.5q19 -3 29.5 -14zM368 307q0 34 -22.5 55.5
t-57.5 21.5q-45 0 -74 -41.5t-29 -106.5q0 -62 26 -99t70 -37q41 0 63 20.5t23 59.5q1 41 1 127z" />
    <glyph glyph-name="acircumflex" unicode="&#xe2;" horiz-adv-x="614" 
d="M361 571l-41 53q-3 4 -15.5 20.5t-16.5 16.5q-6 0 -32 -31q-21 -24 -43 -48q-14 -15 -24.5 -21t-23.5 -6q-22 0 -38 15.5t-16 36.5q0 23 15 38l29 31q40 46 71 72.5t57 26.5q30 0 49.5 -16t52.5 -55q5 -6 22 -26.5t35 -38.5q15 -15 15 -37t-14.5 -37t-35.5 -15
q-29 0 -46 21zM563.5 97q10.5 -11 10.5 -39q0 -24 -12.5 -41t-33.5 -17q-43 0 -66 10.5t-42 38.5q-22 -33 -60 -46.5t-89 -13.5q-113 0 -172 65t-59 181q0 76 31 135t86.5 92t127.5 33q36 0 67 -14t47 -37l2 13q2 14 16 23.5t44 9.5q32 0 47 -13t15 -33q0 -7 -1 -11
q-6 -34 -12 -114q-3 -37 -3 -95v-50q0 -29 5 -44.5t22 -18.5q19 -3 29.5 -14zM368 307q0 34 -22.5 55.5t-57.5 21.5q-45 0 -74 -41.5t-29 -106.5q0 -62 26 -99t70 -37q41 0 63 20.5t23 59.5q1 41 1 127z" />
    <glyph glyph-name="atilde" unicode="&#xe3;" horiz-adv-x="614" 
d="M98 623q0 19 14 36q28 34 52 48t55 14q24 0 50.5 -6.5t48.5 -18.5q5 -3 15.5 -8.5t17 -8t9.5 -2.5q6 0 14 8q13 13 21.5 18.5t20.5 5.5q20 0 37 -17t17 -38q0 -22 -16 -38q-24 -24 -46.5 -35t-47.5 -11q-21 0 -40 7t-32 13.5t-16 8.5q-4 2 -19.5 10t-24.5 8
q-6 0 -13.5 -6.5t-17.5 -17.5q-21 -23 -46 -23q-21 0 -36 15q-17 17 -17 38zM563.5 97q10.5 -11 10.5 -39q0 -24 -12.5 -41t-33.5 -17q-43 0 -66 10.5t-42 38.5q-22 -33 -60 -46.5t-89 -13.5q-113 0 -172 65t-59 181q0 76 31 135t86.5 92t127.5 33q36 0 67 -14t47 -37l2 13
q2 14 16 23.5t44 9.5q32 0 47 -13t15 -33q0 -7 -1 -11q-6 -34 -12 -114q-3 -37 -3 -95v-50q0 -29 5 -44.5t22 -18.5q19 -3 29.5 -14zM368 307q0 34 -22.5 55.5t-57.5 21.5q-45 0 -74 -41.5t-29 -106.5q0 -62 26 -99t70 -37q41 0 63 20.5t23 59.5q1 41 1 127z" />
    <glyph glyph-name="adieresis" unicode="&#xe4;" horiz-adv-x="614" 
d="M93 583.5q-23 23.5 -23 55.5q0 31 23 53.5t55 22.5q31 0 55 -23t24 -53q0 -31 -24 -55t-55 -24q-32 0 -55 23.5zM369 583.5q-23 23.5 -23 55.5q0 31 23 53.5t55 22.5q31 0 54.5 -23t23.5 -53q0 -32 -23.5 -55.5t-54.5 -23.5q-32 0 -55 23.5zM563.5 97q10.5 -11 10.5 -39
q0 -24 -12.5 -41t-33.5 -17q-43 0 -66 10.5t-42 38.5q-22 -33 -60 -46.5t-89 -13.5q-113 0 -172 65t-59 181q0 76 31 135t86.5 92t127.5 33q36 0 67 -14t47 -37l2 13q2 14 16 23.5t44 9.5q32 0 47 -13t15 -33q0 -7 -1 -11q-6 -34 -12 -114q-3 -37 -3 -95v-50q0 -29 5 -44.5
t22 -18.5q19 -3 29.5 -14zM368 307q0 34 -22.5 55.5t-57.5 21.5q-45 0 -74 -41.5t-29 -106.5q0 -62 26 -99t70 -37q41 0 63 20.5t23 59.5q1 41 1 127z" />
    <glyph glyph-name="aring" unicode="&#xe5;" horiz-adv-x="614" 
d="M221.5 555q-30.5 18 -48.5 48.5t-18 66.5q0 35 18 65t49 47.5t68 17.5q36 0 66 -18.5t47 -48.5t17 -63q0 -57 -37.5 -95t-94.5 -38q-36 0 -66.5 18zM321 637q13 13 13 34q0 17 -13 30t-33 13q-19 0 -32.5 -12.5t-13.5 -30.5q0 -20 13 -33.5t33 -13.5t33 13zM563.5 97
q10.5 -11 10.5 -39q0 -24 -12.5 -41t-33.5 -17q-43 0 -66 10.5t-42 38.5q-22 -33 -60 -46.5t-89 -13.5q-113 0 -172 65t-59 181q0 76 31 135t86.5 92t127.5 33q36 0 67 -14t47 -37l2 13q2 14 16 23.5t44 9.5q32 0 47 -13t15 -33q0 -7 -1 -11q-6 -34 -12 -114q-3 -37 -3 -95
v-50q0 -29 5 -44.5t22 -18.5q19 -3 29.5 -14zM368 307q0 34 -22.5 55.5t-57.5 21.5q-45 0 -74 -41.5t-29 -106.5q0 -62 26 -99t70 -37q41 0 63 20.5t23 59.5q1 41 1 127z" />
    <glyph glyph-name="ae" unicode="&#xe6;" horiz-adv-x="935" 
d="M866.5 180.5q19.5 -14.5 19.5 -34.5q0 -17 -13 -38q-33 -54 -94 -86t-140 -32q-69 0 -121 23.5t-74 65.5q-20 -42 -67 -65.5t-114 -23.5q-114 0 -168 37t-54 115q0 173 226 177l109 3v14q0 30 -30 48.5t-73 18.5q-82 0 -134 -40q-30 -24 -52 -24q-17 0 -32 15t-15 32
q0 19 24 43q43 41 96 63t113 22q67 0 112 -28t61 -74q26 46 82.5 76t122.5 30t122 -27t89 -74t33 -104q0 -47 -20.5 -67t-57.5 -21l-299 -7v-6q0 -63 31 -87t92 -24q52 0 81.5 15.5t56.5 51.5q20 27 48 27q20 0 39.5 -14.5zM575 383.5q-34 -23.5 -48 -58.5l234 5v7
q0 34 -33.5 52t-76.5 18q-42 0 -76 -23.5zM348.5 125.5q27.5 26.5 27.5 74.5v14l-109 -3q-42 -1 -63 -19t-21 -47q0 -24 19.5 -35t60.5 -11q58 0 85.5 26.5z" />
    <glyph glyph-name="ccedilla" unicode="&#xe7;" horiz-adv-x="598" 
d="M536.5 108.5q-21.5 -41.5 -71 -71t-126.5 -36.5l-40 -58q31 -7 57 -25t26 -53q0 -39 -31 -66.5t-92 -27.5q-42 0 -77 15q-18 8 -26.5 15.5t-8.5 19.5q0 38 37 38q16 0 29 -4q34 -10 50 -10q20 0 29 6t9 15q0 20 -53 28q-20 3 -31.5 15t-11.5 29q0 8 3 17l32 49
q-91 17 -145.5 81.5t-54.5 160.5q0 75 34 136.5t94.5 97t136.5 35.5q81 0 144.5 -39t87.5 -101q8 -19 8 -33q0 -33 -46 -44q-13 -3 -24 -3q-20 0 -32.5 10.5t-27.5 34.5q-19 29 -43 46.5t-59 17.5q-56 0 -92 -45.5t-36 -114.5q0 -63 32.5 -98.5t94.5 -35.5q59 0 87.5 30.5
t28.5 71.5q0 16 16.5 29.5t44.5 13.5q34 0 51.5 -13t17.5 -46q0 -46 -21.5 -87.5z" />
    <glyph glyph-name="egrave" unicode="&#xe8;" horiz-adv-x="596" 
d="M336 555.5q-11 5.5 -23 18.5l-79 86q-23 27 -23 50t15 38t37 15q15 0 28 -7.5t27 -24.5l73 -85q9 -10 14 -22.5t5 -23.5q0 -21 -14 -35.5t-35 -14.5q-14 0 -25 5.5zM164.5 24q-62.5 34 -93.5 94t-31 136t35.5 135.5t97 92.5t137.5 33q68 0 124.5 -27t89 -77.5
t32.5 -118.5q0 -43 -15.5 -61.5t-52.5 -18.5h-323q0 -24 17 -48.5t51 -41.5t81 -17q42 0 66 12.5t50 37.5q19 17 39 17q23 0 43 -17.5t20 -39.5q0 -18 -12 -35q-21 -33 -71 -61.5t-131 -28.5q-91 0 -153.5 34zM424 302q9 0 11.5 3t2.5 11q0 39 -37.5 65t-92.5 26
q-44 0 -76.5 -17t-49.5 -41.5t-17 -46.5h259z" />
    <glyph glyph-name="eacute" unicode="&#xe9;" horiz-adv-x="596" 
d="M164.5 24q-62.5 34 -93.5 94t-31 136t35.5 135.5t97 92.5t137.5 33q68 0 124.5 -27t89 -77.5t32.5 -118.5q0 -43 -15.5 -61.5t-52.5 -18.5h-323q0 -24 17 -48.5t51 -41.5t81 -17q42 0 66 12.5t50 37.5q19 17 39 17q23 0 43 -17.5t20 -39.5q0 -18 -12 -35
q-21 -33 -71 -61.5t-131 -28.5q-91 0 -153.5 34zM424 302q9 0 11.5 3t2.5 11q0 39 -37.5 65t-92.5 26q-44 0 -76.5 -17t-49.5 -41.5t-17 -46.5h259zM229 572.5q-14 11.5 -17 28.5q-1 4 -1 12q0 23 15 41l87 106q14 17 27.5 24.5t30.5 7.5q23 0 39 -16t16 -39q0 -29 -26 -56
l-89 -94q-13 -15 -24 -20.5t-26 -5.5q-18 0 -32 11.5z" />
    <glyph glyph-name="ecircumflex" unicode="&#xea;" horiz-adv-x="596" 
d="M383 571l-41 53q-3 4 -15.5 20.5t-16.5 16.5q-6 0 -32 -31q-21 -24 -43 -48q-14 -15 -24.5 -21t-23.5 -6q-22 0 -38 15.5t-16 36.5q0 23 15 38l29 31q40 46 71 72.5t57 26.5q30 0 49.5 -16t52.5 -55q5 -6 22 -26.5t35 -38.5q15 -15 15 -37t-14.5 -37t-35.5 -15
q-29 0 -46 21zM164.5 24q-62.5 34 -93.5 94t-31 136t35.5 135.5t97 92.5t137.5 33q68 0 124.5 -27t89 -77.5t32.5 -118.5q0 -43 -15.5 -61.5t-52.5 -18.5h-323q0 -24 17 -48.5t51 -41.5t81 -17q42 0 66 12.5t50 37.5q19 17 39 17q23 0 43 -17.5t20 -39.5q0 -18 -12 -35
q-21 -33 -71 -61.5t-131 -28.5q-91 0 -153.5 34zM424 302q9 0 11.5 3t2.5 11q0 39 -37.5 65t-92.5 26q-44 0 -76.5 -17t-49.5 -41.5t-17 -46.5h259z" />
    <glyph glyph-name="edieresis" unicode="&#xeb;" horiz-adv-x="596" 
d="M115 583.5q-23 23.5 -23 55.5q0 31 23 53.5t55 22.5q31 0 55 -23t24 -53q0 -31 -24 -55t-55 -24q-32 0 -55 23.5zM391 583.5q-23 23.5 -23 55.5q0 31 23 53.5t55 22.5q31 0 54.5 -23t23.5 -53q0 -32 -23.5 -55.5t-54.5 -23.5q-32 0 -55 23.5zM164.5 24q-62.5 34 -93.5 94
t-31 136t35.5 135.5t97 92.5t137.5 33q68 0 124.5 -27t89 -77.5t32.5 -118.5q0 -43 -15.5 -61.5t-52.5 -18.5h-323q0 -24 17 -48.5t51 -41.5t81 -17q42 0 66 12.5t50 37.5q19 17 39 17q23 0 43 -17.5t20 -39.5q0 -18 -12 -35q-21 -33 -71 -61.5t-131 -28.5q-91 0 -153.5 34z
M424 302q9 0 11.5 3t2.5 11q0 39 -37.5 65t-92.5 26q-44 0 -76.5 -17t-49.5 -41.5t-17 -46.5h259z" />
    <glyph glyph-name="igrave" unicode="&#xec;" horiz-adv-x="350" 
d="M202 555.5q-11 5.5 -23 18.5l-79 86q-23 27 -23 50t15 38t37 15q15 0 28 -7.5t27 -24.5l73 -85q9 -10 14 -22.5t5 -23.5q0 -21 -14 -35.5t-35 -14.5q-14 0 -25 5.5zM118.5 19q-20.5 17 -20.5 44l8 385q0 27 20.5 43.5t52.5 16.5q33 0 53.5 -17t20.5 -45l-12 -385
q0 -25 -19 -42t-51 -17t-52.5 17z" />
    <glyph glyph-name="iacute" unicode="&#xed;" horiz-adv-x="350" 
d="M97 564.5q-14 14.5 -14 35.5q0 12 5 25t14 21l93 85q19 18 30.5 25t25.5 7q22 0 37 -15t15 -38q0 -15 -6.5 -28t-16.5 -22l-100 -86q-14 -13 -25 -18.5t-23 -5.5q-21 0 -35 14.5zM118.5 19q-20.5 17 -20.5 44l8 385q0 27 20.5 43.5t52.5 16.5q33 0 53.5 -17t20.5 -45
l-12 -385q0 -25 -19 -42t-51 -17t-52.5 17z" />
    <glyph glyph-name="icircumflex" unicode="&#xee;" horiz-adv-x="350" 
d="M249 571l-41 53q-3 4 -15.5 20.5t-16.5 16.5q-6 0 -32 -31q-21 -24 -43 -48q-14 -15 -24.5 -21t-23.5 -6q-22 0 -38 15.5t-16 36.5q0 23 15 38l29 31q40 46 71 72.5t57 26.5q30 0 49.5 -16t52.5 -55q5 -6 22 -26.5t35 -38.5q15 -15 15 -37t-14.5 -37t-35.5 -15
q-29 0 -46 21zM118.5 19q-20.5 17 -20.5 44l8 385q0 27 20.5 43.5t52.5 16.5q33 0 53.5 -17t20.5 -45l-12 -385q0 -25 -19 -42t-51 -17t-52.5 17z" />
    <glyph glyph-name="idieresis" unicode="&#xef;" horiz-adv-x="350" 
d="M-19 583.5q-23 23.5 -23 55.5q0 31 23 53.5t55 22.5q31 0 55 -23t24 -53q0 -31 -24 -55t-55 -24q-32 0 -55 23.5zM257 583.5q-23 23.5 -23 55.5q0 31 23 53.5t55 22.5q31 0 54.5 -23t23.5 -53q0 -32 -23.5 -55.5t-54.5 -23.5q-32 0 -55 23.5zM118.5 19q-20.5 17 -20.5 44
l8 385q0 27 20.5 43.5t52.5 16.5q33 0 53.5 -17t20.5 -45l-12 -385q0 -25 -19 -42t-51 -17t-52.5 17z" />
    <glyph glyph-name="eth" unicode="&#xf0;" horiz-adv-x="602" 
d="M535 419.5q27 -77.5 27 -148.5q0 -80 -33.5 -141.5t-94 -95t-137.5 -33.5q-75 0 -133.5 31.5t-91 87.5t-32.5 127q0 74 34 129.5t91.5 85.5t125.5 30q26 0 56 -5l-20 23q-15 16 -30 30l-46 -26q-26 -13 -48 -13t-38.5 15t-16.5 37q0 28 27 43l21 12l-12 6q-23 11 -32 21
t-9 29q0 28 17.5 45.5t41.5 17.5t60 -18q51 -26 59 -30l53 31q7 5 18.5 8.5t20.5 3.5q18 0 37.5 -14t19.5 -42q0 -16 -7.5 -26.5t-24.5 -20.5l-22 -12q17 -16 40 -44q52 -66 79 -143.5zM384 156q31 42 31 127q0 21 -1 32q-44 66 -109 66q-51 0 -85.5 -36t-34.5 -98
q0 -58 31.5 -95.5t83.5 -37.5q53 0 84 42z" />
    <glyph glyph-name="ntilde" unicode="&#xf1;" horiz-adv-x="574" 
d="M112 623q0 19 14 36q28 34 52 48t55 14q24 0 50.5 -6.5t48.5 -18.5q5 -3 15.5 -8.5t17 -8t9.5 -2.5q6 0 14 8q13 13 21.5 18.5t20.5 5.5q20 0 37 -17t17 -38q0 -22 -16 -38q-24 -24 -46.5 -35t-47.5 -11q-21 0 -40 7t-32 13.5t-16 8.5q-4 2 -19.5 10t-24.5 8
q-6 0 -13.5 -6.5t-17.5 -17.5q-21 -23 -46 -23q-21 0 -36 15q-17 17 -17 38zM475.5 449.5q48.5 -61.5 48.5 -181.5l-1 -226q0 -21 -20.5 -32t-50.5 -11q-29 0 -51.5 10t-22.5 28l1 232q0 73 -16 102t-50 29q-29 0 -46 -26t-29 -101q-7 -42 -7 -93l1 -129q0 -26 -19.5 -39.5
t-52.5 -13.5q-34 0 -53.5 14t-19.5 39q0 208 -6 324q-1 12 -5.5 22.5t-10.5 19.5t-9 14q-6 11 -6 22q0 21 24.5 39.5t47.5 18.5q11 0 21.5 -7t23.5 -23q11 -14 16 -25t5 -25v-9q18 38 54.5 63.5t96.5 25.5q88 0 136.5 -61.5z" />
    <glyph glyph-name="ograve" unicode="&#xf2;" horiz-adv-x="607" 
d="M331 555.5q-11 5.5 -23 18.5l-79 86q-23 27 -23 50t15 38t37 15q15 0 28 -7.5t27 -24.5l73 -85q9 -10 14 -22.5t5 -23.5q0 -21 -14 -35.5t-35 -14.5q-14 0 -25 5.5zM104.5 63.5q-74.5 66.5 -74.5 186.5q0 78 33 139t93.5 95t142.5 34q83 0 146 -35t97.5 -97.5
t34.5 -142.5q0 -117 -73 -181.5t-198 -64.5q-127 0 -201.5 66.5zM398.5 142.5q33.5 34.5 33.5 102.5q0 67 -32.5 114.5t-95.5 47.5q-59 0 -94 -43t-35 -115q0 -70 34 -105.5t95 -35.5t94.5 34.5z" />
    <glyph glyph-name="oacute" unicode="&#xf3;" horiz-adv-x="607" 
d="M226 564.5q-14 14.5 -14 35.5q0 12 5 25t14 21l93 85q19 18 30.5 25t25.5 7q22 0 37 -15t15 -38q0 -15 -6.5 -28t-16.5 -22l-100 -86q-14 -13 -25 -18.5t-23 -5.5q-21 0 -35 14.5zM104.5 63.5q-74.5 66.5 -74.5 186.5q0 78 33 139t93.5 95t142.5 34q83 0 146 -35
t97.5 -97.5t34.5 -142.5q0 -117 -73 -181.5t-198 -64.5q-127 0 -201.5 66.5zM398.5 142.5q33.5 34.5 33.5 102.5q0 67 -32.5 114.5t-95.5 47.5q-59 0 -94 -43t-35 -115q0 -70 34 -105.5t95 -35.5t94.5 34.5z" />
    <glyph glyph-name="ocircumflex" unicode="&#xf4;" horiz-adv-x="607" 
d="M378 571l-41 53q-3 4 -15.5 20.5t-16.5 16.5q-6 0 -32 -31q-21 -24 -43 -48q-14 -15 -24.5 -21t-23.5 -6q-22 0 -38 15.5t-16 36.5q0 23 15 38l29 31q40 46 71 72.5t57 26.5q30 0 49.5 -16t52.5 -55q5 -6 22 -26.5t35 -38.5q15 -15 15 -37t-14.5 -37t-35.5 -15
q-29 0 -46 21zM104.5 63.5q-74.5 66.5 -74.5 186.5q0 78 33 139t93.5 95t142.5 34q83 0 146 -35t97.5 -97.5t34.5 -142.5q0 -117 -73 -181.5t-198 -64.5q-127 0 -201.5 66.5zM398.5 142.5q33.5 34.5 33.5 102.5q0 67 -32.5 114.5t-95.5 47.5q-59 0 -94 -43t-35 -115
q0 -70 34 -105.5t95 -35.5t94.5 34.5z" />
    <glyph glyph-name="otilde" unicode="&#xf5;" horiz-adv-x="607" 
d="M115 623q0 19 14 36q28 34 52 48t55 14q24 0 50.5 -6.5t48.5 -18.5q5 -3 15.5 -8.5t17 -8t9.5 -2.5q6 0 14 8q13 13 21.5 18.5t20.5 5.5q20 0 37 -17t17 -38q0 -22 -16 -38q-24 -24 -46.5 -35t-47.5 -11q-21 0 -40 7t-32 13.5t-16 8.5q-4 2 -19.5 10t-24.5 8
q-6 0 -13.5 -6.5t-17.5 -17.5q-21 -23 -46 -23q-21 0 -36 15q-17 17 -17 38zM104.5 63.5q-74.5 66.5 -74.5 186.5q0 78 33 139t93.5 95t142.5 34q83 0 146 -35t97.5 -97.5t34.5 -142.5q0 -117 -73 -181.5t-198 -64.5q-127 0 -201.5 66.5zM398.5 142.5q33.5 34.5 33.5 102.5
q0 67 -32.5 114.5t-95.5 47.5q-59 0 -94 -43t-35 -115q0 -70 34 -105.5t95 -35.5t94.5 34.5z" />
    <glyph glyph-name="odieresis" unicode="&#xf6;" horiz-adv-x="607" 
d="M110 583.5q-23 23.5 -23 55.5q0 31 23 53.5t55 22.5q31 0 55 -23t24 -53q0 -31 -24 -55t-55 -24q-32 0 -55 23.5zM386 583.5q-23 23.5 -23 55.5q0 31 23 53.5t55 22.5q31 0 54.5 -23t23.5 -53q0 -32 -23.5 -55.5t-54.5 -23.5q-32 0 -55 23.5zM104.5 63.5
q-74.5 66.5 -74.5 186.5q0 78 33 139t93.5 95t142.5 34q83 0 146 -35t97.5 -97.5t34.5 -142.5q0 -117 -73 -181.5t-198 -64.5q-127 0 -201.5 66.5zM398.5 142.5q33.5 34.5 33.5 102.5q0 67 -32.5 114.5t-95.5 47.5q-59 0 -94 -43t-35 -115q0 -70 34 -105.5t95 -35.5
t94.5 34.5z" />
    <glyph glyph-name="divide" unicode="&#xf7;" horiz-adv-x="560" 
d="M238.5 428.5q-20.5 18.5 -20.5 45.5q0 28 21 48t50 20t49.5 -19.5t20.5 -47.5t-20 -46.5t-50 -18.5t-50.5 18.5zM68.5 272q-15.5 14 -15.5 33q0 16 10 30q16 24 52.5 38.5t78.5 14.5q28 0 63.5 -5t54.5 -10q15 -4 43 -7.5t43 -3.5q19 0 41 10q16 9 33 9q24 0 39.5 -16.5
t15.5 -37.5q0 -28 -33 -47q-17 -10 -45 -15t-54 -5q-25 0 -61 6.5t-61 13.5q-33 9 -74 9q-15 0 -30 -8t-18 -9q-11 -5 -24 -9.5t-23 -4.5q-20 0 -35.5 14zM238 122.5q-21 19.5 -21 48.5q0 26 22 46t51 20q28 0 49 -20t21 -46q0 -29 -21 -48.5t-50 -19.5q-30 0 -51 19.5z" />
    <glyph glyph-name="oslash" unicode="&#xf8;" horiz-adv-x="607" 
d="M560.5 346q16.5 -48 16.5 -103q0 -117 -73 -181.5t-198 -64.5q-83 0 -142 28l-43 -50q-9 -11 -18 -15.5t-22 -4.5q-19 0 -34.5 14t-15.5 32q0 19 13 34l41 48q-55 66 -55 167q0 78 33 139t93.5 95t142.5 34q76 0 134 -29l31 36q17 21 42 21l8 -1q17 -2 29 -16t12 -32
q0 -19 -13 -32l-30 -35q32 -36 48.5 -84zM181 195l173 202q-23 10 -50 10q-59 0 -94 -43t-35 -115q0 -30 6 -54zM398.5 142.5q33.5 34.5 33.5 102.5q0 42 -13 77l-174 -203q27 -11 59 -11q61 0 94.5 34.5z" />
    <glyph glyph-name="ugrave" unicode="&#xf9;" horiz-adv-x="573" 
d="M298 555.5q-11 5.5 -23 18.5l-79 86q-23 27 -23 50t15 38t37 15q15 0 28 -7.5t27 -24.5l73 -85q9 -10 14 -22.5t5 -23.5q0 -21 -14 -35.5t-35 -14.5q-14 0 -25 5.5zM495 103q6 -20 13 -32t7 -14q0 -25 -18.5 -41.5t-49.5 -16.5q-19 0 -41.5 20.5t-29.5 45.5
q-35 -67 -131 -67q-88 0 -136.5 62t-48.5 158v236q0 23 20.5 37.5t50.5 14.5t51.5 -14.5t21.5 -37.5v-234q0 -43 15 -77t46 -34q39 0 57.5 35t18.5 123v185q0 27 19.5 43t51.5 16q33 0 53.5 -16t20.5 -43l3 -294q0 -35 6 -55z" />
    <glyph glyph-name="uacute" unicode="&#xfa;" horiz-adv-x="573" 
d="M193 564.5q-14 14.5 -14 35.5q0 12 5 25t14 21l93 85q19 18 30.5 25t25.5 7q22 0 37 -15t15 -38q0 -15 -6.5 -28t-16.5 -22l-100 -86q-14 -13 -25 -18.5t-23 -5.5q-21 0 -35 14.5zM495 103q6 -20 13 -32t7 -14q0 -25 -18.5 -41.5t-49.5 -16.5q-19 0 -41.5 20.5
t-29.5 45.5q-35 -67 -131 -67q-88 0 -136.5 62t-48.5 158v236q0 23 20.5 37.5t50.5 14.5t51.5 -14.5t21.5 -37.5v-234q0 -43 15 -77t46 -34q39 0 57.5 35t18.5 123v185q0 27 19.5 43t51.5 16q33 0 53.5 -16t20.5 -43l3 -294q0 -35 6 -55z" />
    <glyph glyph-name="ucircumflex" unicode="&#xfb;" horiz-adv-x="573" 
d="M345 571l-41 53q-3 4 -15.5 20.5t-16.5 16.5q-6 0 -32 -31q-21 -24 -43 -48q-14 -15 -24.5 -21t-23.5 -6q-22 0 -38 15.5t-16 36.5q0 23 15 38l29 31q40 46 71 72.5t57 26.5q30 0 49.5 -16t52.5 -55q5 -6 22 -26.5t35 -38.5q15 -15 15 -37t-14.5 -37t-35.5 -15
q-29 0 -46 21zM495 103q6 -20 13 -32t7 -14q0 -25 -18.5 -41.5t-49.5 -16.5q-19 0 -41.5 20.5t-29.5 45.5q-35 -67 -131 -67q-88 0 -136.5 62t-48.5 158v236q0 23 20.5 37.5t50.5 14.5t51.5 -14.5t21.5 -37.5v-234q0 -43 15 -77t46 -34q39 0 57.5 35t18.5 123v185
q0 27 19.5 43t51.5 16q33 0 53.5 -16t20.5 -43l3 -294q0 -35 6 -55z" />
    <glyph glyph-name="udieresis" unicode="&#xfc;" horiz-adv-x="573" 
d="M77 583.5q-23 23.5 -23 55.5q0 31 23 53.5t55 22.5q31 0 55 -23t24 -53q0 -31 -24 -55t-55 -24q-32 0 -55 23.5zM353 583.5q-23 23.5 -23 55.5q0 31 23 53.5t55 22.5q31 0 54.5 -23t23.5 -53q0 -32 -23.5 -55.5t-54.5 -23.5q-32 0 -55 23.5zM495 103q6 -20 13 -32t7 -14
q0 -25 -18.5 -41.5t-49.5 -16.5q-19 0 -41.5 20.5t-29.5 45.5q-35 -67 -131 -67q-88 0 -136.5 62t-48.5 158v236q0 23 20.5 37.5t50.5 14.5t51.5 -14.5t21.5 -37.5v-234q0 -43 15 -77t46 -34q39 0 57.5 35t18.5 123v185q0 27 19.5 43t51.5 16q33 0 53.5 -16t20.5 -43l3 -294
q0 -35 6 -55z" />
    <glyph glyph-name="yacute" unicode="&#xfd;" horiz-adv-x="542" 
d="M194 564.5q-14 14.5 -14 35.5q0 12 5 25t14 21l93 85q19 18 30.5 25t25.5 7q22 0 37 -15t15 -38q0 -15 -6.5 -28t-16.5 -22l-100 -86q-14 -13 -25 -18.5t-23 -5.5q-21 0 -35 14.5zM181.5 -245.5q-21.5 18.5 -21.5 45.5q0 12 5 25l40 116l36 102q-48 35 -90 105.5
t-70.5 149t-38.5 137.5q-2 10 -2 20q0 28 19 42t48 14t41.5 -11.5t16.5 -32.5q22 -101 55 -181.5t69 -105.5q15 47 29.5 103t19.5 76q21 83 29 113q6 22 19 31.5t38 9.5q34 0 56 -15.5t22 -38.5q0 -7 -1 -11q-40 -162 -105 -369q-76 -245 -100 -301q-9 -20 -21 -31t-38 -11
q-34 0 -55.5 18.5z" />
    <glyph glyph-name="thorn" unicode="&#xfe;" horiz-adv-x="605" 
d="M441 485q59 -32 91.5 -91t32.5 -137q0 -121 -71.5 -189.5t-197.5 -68.5q-63 0 -113 29q-2 -98 -9 -168q-2 -24 -23 -38.5t-51 -14.5t-50 16.5t-20 41.5q0 55 6 182q4 85 4 242q0 246 -1 304v59q0 28 19 44.5t50 16.5q32 0 54 -16.5t22 -40.5q0 -108 -1 -180
q26 19 58.5 30t62.5 11q78 0 137 -32zM386.5 148.5q33.5 38.5 33.5 109.5q0 68 -33.5 108t-87.5 40q-26 0 -51.5 -12.5t-43 -31.5t-20.5 -38v-82q0 -31 -1 -45q0 -10 -0.5 -23.5t0.5 -30.5q7 -11 40 -22t67 -11q63 0 96.5 38.5z" />
    <glyph glyph-name="ydieresis" unicode="&#xff;" horiz-adv-x="542" 
d="M78 583.5q-23 23.5 -23 55.5q0 31 23 53.5t55 22.5q31 0 55 -23t24 -53q0 -31 -24 -55t-55 -24q-32 0 -55 23.5zM354 583.5q-23 23.5 -23 55.5q0 31 23 53.5t55 22.5q31 0 54.5 -23t23.5 -53q0 -32 -23.5 -55.5t-54.5 -23.5q-32 0 -55 23.5zM181.5 -245.5
q-21.5 18.5 -21.5 45.5q0 12 5 25l40 116l36 102q-48 35 -90 105.5t-70.5 149t-38.5 137.5q-2 10 -2 20q0 28 19 42t48 14t41.5 -11.5t16.5 -32.5q22 -101 55 -181.5t69 -105.5q15 47 29.5 103t19.5 76q21 83 29 113q6 22 19 31.5t38 9.5q34 0 56 -15.5t22 -38.5
q0 -7 -1 -11q-40 -162 -105 -369q-76 -245 -100 -301q-9 -20 -21 -31t-38 -11q-34 0 -55.5 18.5z" />
    <glyph glyph-name="Amacron" unicode="&#x100;" horiz-adv-x="697" 
d="M622 108l12 -39q3 -10 3 -19q0 -29 -24.5 -45t-57.5 -16q-26 0 -45 11t-25 31l-34 129l-204 1l-35 -127q-6 -23 -24.5 -33.5t-44.5 -10.5q-33 0 -58 16.5t-25 43.5q0 10 3 20l115 346l56 171q23 68 50 96.5t73 28.5q44 0 69.5 -25.5t46.5 -90.5q55 -174 96 -309h27
q49 0 49 -63q0 -64 -37 -64h-1zM417 289l-13 47l-25 88l-10 35q-6 22 -10 32t-8 10q-5 0 -8 -9t-9 -32l-8 -29l-41 -141zM259.5 788q-11.5 -1 -21.5 -1q-25 0 -54 11q-38 14 -38 54q0 23 15 37.5t38 14.5l21 -2q35 -5 56 -5t65 4q48 4 79 4q38 0 66 -4q19 -2 35 -18t16 -37
q0 -23 -16.5 -38.5t-34.5 -15.5q-5 1 -23.5 3t-36.5 2q-27 0 -71 -4q-42 -4 -68 -4q-16 0 -27.5 -1z" />
    <glyph glyph-name="amacron" unicode="&#x101;" horiz-adv-x="614" 
d="M85.5 592.5q-12.5 16.5 -12.5 40.5t13.5 38t36.5 18q58 9 166 15q54 2 79 2l68 -1q26 0 41.5 -17.5t15.5 -42.5q0 -23 -15 -37t-41 -14l-43 1q-39 3 -87 3q-54 0 -97.5 -5t-90.5 -13q-21 -4 -33.5 12.5zM563.5 97q10.5 -11 10.5 -39q0 -24 -12.5 -41t-33.5 -17
q-43 0 -66 10.5t-42 38.5q-22 -33 -60 -46.5t-89 -13.5q-113 0 -172 65t-59 181q0 76 31 135t86.5 92t127.5 33q36 0 67 -14t47 -37l2 13q2 14 16 23.5t44 9.5q32 0 47 -13t15 -33q0 -7 -1 -11q-6 -34 -12 -114q-3 -37 -3 -95v-50q0 -29 5 -44.5t22 -18.5q19 -3 29.5 -14z
M368 307q0 34 -22.5 55.5t-57.5 21.5q-45 0 -74 -41.5t-29 -106.5q0 -62 26 -99t70 -37q41 0 63 20.5t23 59.5q1 41 1 127z" />
    <glyph glyph-name="Abreve" unicode="&#x102;" horiz-adv-x="697" 
d="M256 769q-42 20 -66 55.5t-24 79.5q0 20 16 36t37 16q18 0 32.5 -8.5t16.5 -23.5q12 -83 80 -83q29 0 50.5 20t22.5 59q1 19 16 29t35 10q22 0 37.5 -15.5t15.5 -36.5q0 -44 -24 -80t-64.5 -57t-87.5 -21q-51 0 -93 20zM622 108l12 -39q3 -10 3 -19q0 -29 -24.5 -45
t-57.5 -16q-26 0 -45 11t-25 31l-34 129l-204 1l-35 -127q-6 -23 -24.5 -33.5t-44.5 -10.5q-33 0 -58 16.5t-25 43.5q0 10 3 20l115 346l56 171q23 68 50 96.5t73 28.5q44 0 69.5 -25.5t46.5 -90.5q55 -174 96 -309h27q49 0 49 -63q0 -64 -37 -64h-1zM417 289l-13 47l-25 88
l-10 35q-6 22 -10 32t-8 10q-5 0 -8 -9t-9 -32l-8 -29l-41 -141z" />
    <glyph glyph-name="abreve" unicode="&#x103;" horiz-adv-x="614" 
d="M195 569q-42 20 -66 55.5t-24 79.5q0 20 16 36t37 16q18 0 32.5 -8.5t16.5 -23.5q12 -83 80 -83q29 0 50.5 20t22.5 59q1 19 16 29t35 10q22 0 37.5 -15.5t15.5 -36.5q0 -44 -24 -80t-64.5 -57t-87.5 -21q-51 0 -93 20zM563.5 97q10.5 -11 10.5 -39q0 -24 -12.5 -41
t-33.5 -17q-43 0 -66 10.5t-42 38.5q-22 -33 -60 -46.5t-89 -13.5q-113 0 -172 65t-59 181q0 76 31 135t86.5 92t127.5 33q36 0 67 -14t47 -37l2 13q2 14 16 23.5t44 9.5q32 0 47 -13t15 -33q0 -7 -1 -11q-6 -34 -12 -114q-3 -37 -3 -95v-50q0 -29 5 -44.5t22 -18.5
q19 -3 29.5 -14zM368 307q0 34 -22.5 55.5t-57.5 21.5q-45 0 -74 -41.5t-29 -106.5q0 -62 26 -99t70 -37q41 0 63 20.5t23 59.5q1 41 1 127z" />
    <glyph glyph-name="Aogonek" unicode="&#x104;" horiz-adv-x="697" 
d="M636.5 -102.5q8.5 -10.5 8.5 -29.5q0 -28 -21 -44t-58 -16q-56 0 -88 27t-32 76q0 54 46 105q-4 5 -7 15l-34 129l-204 1l-35 -127q-6 -23 -24.5 -33.5t-44.5 -10.5q-33 0 -58 16.5t-25 43.5q0 10 3 20l115 346l56 171q23 68 50 96.5t73 28.5q44 0 69.5 -25.5t46.5 -90.5
q55 -174 96 -309h27q49 0 49 -63q0 -64 -37 -64h-1l15 -52l12 -39q3 -10 3 -19q0 -32 -31 -49q-7 -10 -15 -17q-25 -21 -34.5 -35t-9.5 -26q0 -24 25 -24q5 0 21 4q13 5 22 5q13 0 21.5 -10.5zM417 289l-13 47l-25 88l-10 35q-6 22 -10 32t-8 10q-5 0 -8 -9t-9 -32l-8 -29
l-41 -141z" />
    <glyph glyph-name="aogonek" unicode="&#x105;" horiz-adv-x="614" 
d="M592.5 -84.5q8.5 -10.5 8.5 -29.5q0 -28 -21 -44t-58 -16q-56 0 -88 27t-32 76q0 48 38 96q-8 7 -20 24q-22 -33 -60 -46.5t-89 -13.5q-113 0 -172 65t-59 181q0 76 31 135t86.5 92t127.5 33q36 0 67 -14t47 -37l2 13q2 14 16 23.5t44 9.5q32 0 47 -13t15 -33
q0 -7 -1 -11q-6 -34 -12 -114q-3 -37 -3 -95v-50q0 -29 5 -44.5t22 -18.5q19 -3 29.5 -14t10.5 -39q0 -31 -19 -48l-8 -8q-25 -21 -34.5 -35t-9.5 -26q0 -24 25 -24q5 0 21 4q13 5 22 5q13 0 21.5 -10.5zM368 307q0 34 -22.5 55.5t-57.5 21.5q-45 0 -74 -41.5t-29 -106.5
q0 -62 26 -99t70 -37q41 0 63 20.5t23 59.5q1 41 1 127z" />
    <glyph glyph-name="Cacute" unicode="&#x106;" horiz-adv-x="742" 
d="M324 764.5q-14 14.5 -14 35.5q0 12 5 25t14 21l93 85q19 18 30.5 25t25.5 7q22 0 37 -15t15 -38q0 -15 -6.5 -28t-16.5 -22l-100 -86q-14 -13 -25 -18.5t-23 -5.5q-21 0 -35 14.5zM691.5 303q20.5 -19 20.5 -51q0 -73 -40.5 -131.5t-111.5 -91.5t-159 -33
q-104 0 -183.5 41.5t-123.5 118t-44 176.5q0 106 41.5 193.5t113.5 138t159 50.5q115 0 177 -54v5q0 19 19 33t48 14q34 0 53 -16.5t19 -47.5l-1 -96q-2 -88 -72 -88q-16 0 -31.5 6t-23.5 17q-26 35 -42 53t-42 31t-64 13q-51 0 -99.5 -34t-79 -91.5t-30.5 -125.5
q0 -60 27.5 -107t75 -73.5t103.5 -26.5q43 0 80 16t59.5 45.5t22.5 66.5q0 30 19 49t53 19q36 0 56.5 -19z" />
    <glyph glyph-name="cacute" unicode="&#x107;" horiz-adv-x="598" 
d="M223 564.5q-14 14.5 -14 35.5q0 12 5 25t14 21l93 85q19 18 30.5 25t25.5 7q22 0 37 -15t15 -38q0 -15 -6.5 -28t-16.5 -22l-100 -86q-14 -13 -25 -18.5t-23 -5.5q-21 0 -35 14.5zM163.5 30q-58.5 31 -91 87t-32.5 129q0 75 34 136.5t94.5 97t136.5 35.5q81 0 144.5 -39
t87.5 -101q8 -19 8 -33q0 -33 -46 -44q-13 -3 -24 -3q-20 0 -32.5 10.5t-27.5 34.5q-19 29 -43 46.5t-59 17.5q-56 0 -92 -45.5t-36 -114.5q0 -63 32.5 -98.5t94.5 -35.5q59 0 87.5 30.5t28.5 71.5q0 16 16.5 29.5t44.5 13.5q34 0 51.5 -13t17.5 -46q0 -50 -26 -95
t-84.5 -73.5t-151.5 -28.5q-74 0 -132.5 31z" />
    <glyph glyph-name="Ccircumflex" unicode="&#x108;" horiz-adv-x="742" 
d="M476 771l-41 53q-3 4 -15.5 20.5t-16.5 16.5q-6 0 -32 -31q-21 -24 -43 -48q-14 -15 -24.5 -21t-23.5 -6q-22 0 -38 15.5t-16 36.5q0 23 15 38l29 31q40 46 71 72.5t57 26.5q30 0 49.5 -16t52.5 -55q5 -6 22 -26.5t35 -38.5q15 -15 15 -37t-14.5 -37t-35.5 -15
q-29 0 -46 21zM691.5 303q20.5 -19 20.5 -51q0 -73 -40.5 -131.5t-111.5 -91.5t-159 -33q-104 0 -183.5 41.5t-123.5 118t-44 176.5q0 106 41.5 193.5t113.5 138t159 50.5q115 0 177 -54v5q0 19 19 33t48 14q34 0 53 -16.5t19 -47.5l-1 -96q-2 -88 -72 -88q-16 0 -31.5 6
t-23.5 17q-26 35 -42 53t-42 31t-64 13q-51 0 -99.5 -34t-79 -91.5t-30.5 -125.5q0 -60 27.5 -107t75 -73.5t103.5 -26.5q43 0 80 16t59.5 45.5t22.5 66.5q0 30 19 49t53 19q36 0 56.5 -19z" />
    <glyph glyph-name="ccircumflex" unicode="&#x109;" horiz-adv-x="598" 
d="M375 571l-41 53q-3 4 -15.5 20.5t-16.5 16.5q-6 0 -32 -31q-21 -24 -43 -48q-14 -15 -24.5 -21t-23.5 -6q-22 0 -38 15.5t-16 36.5q0 23 15 38l29 31q40 46 71 72.5t57 26.5q30 0 49.5 -16t52.5 -55q5 -6 22 -26.5t35 -38.5q15 -15 15 -37t-14.5 -37t-35.5 -15
q-29 0 -46 21zM163.5 30q-58.5 31 -91 87t-32.5 129q0 75 34 136.5t94.5 97t136.5 35.5q81 0 144.5 -39t87.5 -101q8 -19 8 -33q0 -33 -46 -44q-13 -3 -24 -3q-20 0 -32.5 10.5t-27.5 34.5q-19 29 -43 46.5t-59 17.5q-56 0 -92 -45.5t-36 -114.5q0 -63 32.5 -98.5
t94.5 -35.5q59 0 87.5 30.5t28.5 71.5q0 16 16.5 29.5t44.5 13.5q34 0 51.5 -13t17.5 -46q0 -50 -26 -95t-84.5 -73.5t-151.5 -28.5q-74 0 -132.5 31z" />
    <glyph glyph-name="Cdotaccent" unicode="&#x10a;" horiz-adv-x="742" 
d="M346 781.5q-22 22.5 -22 56.5q0 33 22 54.5t56 21.5t56 -21.5t22 -54.5q0 -34 -22 -56.5t-56 -22.5t-56 22.5zM691.5 303q20.5 -19 20.5 -51q0 -73 -40.5 -131.5t-111.5 -91.5t-159 -33q-104 0 -183.5 41.5t-123.5 118t-44 176.5q0 106 41.5 193.5t113.5 138t159 50.5
q115 0 177 -54v5q0 19 19 33t48 14q34 0 53 -16.5t19 -47.5l-1 -96q-2 -88 -72 -88q-16 0 -31.5 6t-23.5 17q-26 35 -42 53t-42 31t-64 13q-51 0 -99.5 -34t-79 -91.5t-30.5 -125.5q0 -60 27.5 -107t75 -73.5t103.5 -26.5q43 0 80 16t59.5 45.5t22.5 66.5q0 30 19 49t53 19
q36 0 56.5 -19z" />
    <glyph glyph-name="cdotaccent" unicode="&#x10b;" horiz-adv-x="598" 
d="M245 581.5q-22 22.5 -22 56.5q0 33 22 54.5t56 21.5t56 -21.5t22 -54.5q0 -34 -22 -56.5t-56 -22.5t-56 22.5zM163.5 30q-58.5 31 -91 87t-32.5 129q0 75 34 136.5t94.5 97t136.5 35.5q81 0 144.5 -39t87.5 -101q8 -19 8 -33q0 -33 -46 -44q-13 -3 -24 -3
q-20 0 -32.5 10.5t-27.5 34.5q-19 29 -43 46.5t-59 17.5q-56 0 -92 -45.5t-36 -114.5q0 -63 32.5 -98.5t94.5 -35.5q59 0 87.5 30.5t28.5 71.5q0 16 16.5 29.5t44.5 13.5q34 0 51.5 -13t17.5 -46q0 -50 -26 -95t-84.5 -73.5t-151.5 -28.5q-74 0 -132.5 31z" />
    <glyph glyph-name="Ccaron" unicode="&#x10c;" horiz-adv-x="742" 
d="M557.5 959q14.5 -15 14.5 -37q0 -17 -15 -37l-17 -23q-32 -44 -51 -65.5t-41 -34.5t-50 -13q-23 0 -51.5 21.5t-49 44t-56.5 64.5q-15 18 -15 38q0 21 16 36.5t38 15.5q13 0 23.5 -6t24.5 -21q22 -24 43 -48q26 -31 32 -31q4 0 16.5 16.5t15.5 20.5l41 53q17 21 46 21
q21 0 35.5 -15zM691.5 303q20.5 -19 20.5 -51q0 -73 -40.5 -131.5t-111.5 -91.5t-159 -33q-104 0 -183.5 41.5t-123.5 118t-44 176.5q0 106 41.5 193.5t113.5 138t159 50.5q115 0 177 -54v5q0 19 19 33t48 14q34 0 53 -16.5t19 -47.5l-1 -96q-2 -88 -72 -88q-16 0 -31.5 6
t-23.5 17q-26 35 -42 53t-42 31t-64 13q-51 0 -99.5 -34t-79 -91.5t-30.5 -125.5q0 -60 27.5 -107t75 -73.5t103.5 -26.5q43 0 80 16t59.5 45.5t22.5 66.5q0 30 19 49t53 19q36 0 56.5 -19z" />
    <glyph glyph-name="ccaron" unicode="&#x10d;" horiz-adv-x="598" 
d="M456.5 759q14.5 -15 14.5 -37q0 -17 -15 -37l-17 -23q-32 -44 -51 -65.5t-41 -34.5t-50 -13q-23 0 -51.5 21.5t-49 44t-56.5 64.5q-15 18 -15 38q0 21 16 36.5t38 15.5q13 0 23.5 -6t24.5 -21q22 -24 43 -48q26 -31 32 -31q4 0 16.5 16.5t15.5 20.5l41 53q17 21 46 21
q21 0 35.5 -15zM163.5 30q-58.5 31 -91 87t-32.5 129q0 75 34 136.5t94.5 97t136.5 35.5q81 0 144.5 -39t87.5 -101q8 -19 8 -33q0 -33 -46 -44q-13 -3 -24 -3q-20 0 -32.5 10.5t-27.5 34.5q-19 29 -43 46.5t-59 17.5q-56 0 -92 -45.5t-36 -114.5q0 -63 32.5 -98.5
t94.5 -35.5q59 0 87.5 30.5t28.5 71.5q0 16 16.5 29.5t44.5 13.5q34 0 51.5 -13t17.5 -46q0 -50 -26 -95t-84.5 -73.5t-151.5 -28.5q-74 0 -132.5 31z" />
    <glyph glyph-name="Dcaron" unicode="&#x10e;" horiz-adv-x="717" 
d="M502.5 959q14.5 -15 14.5 -37q0 -17 -15 -37l-17 -23q-32 -44 -51 -65.5t-41 -34.5t-50 -13q-23 0 -51.5 21.5t-49 44t-56.5 64.5q-15 18 -15 38q0 21 16 36.5t38 15.5q13 0 23.5 -6t24.5 -21q22 -24 43 -48q26 -31 32 -31q4 0 16.5 16.5t15.5 20.5l41 53q17 21 46 21
q21 0 35.5 -15zM561 593q106 -84 106 -231q0 -107 -55.5 -187.5t-157 -125t-236.5 -44.5h-65q-44 0 -63 15t-19 51q0 31 13.5 46.5t42.5 15.5h10l-12 441h-6q-22 0 -35.5 15.5t-13.5 46.5q0 34 15.5 50.5t39.5 16.5h13q17 17 56 17q45 0 60 -23q201 -20 307 -104z
M403.5 173.5q54.5 29.5 86.5 78t32 110.5q0 94 -68 141.5t-184 62.5l12 -430q67 8 121.5 37.5z" />
    <glyph glyph-name="dcaron" unicode="&#x10f;" horiz-adv-x="817" 
d="M783 818q24 -25 24 -59q0 -39 -25 -80t-70 -78q-14 -11 -32 -11q-19 0 -31.5 12.5t-12.5 28.5t11 30q3 4 14 15q4 4 9 9.5t11 12.5q-17 5 -28 24t-11 39q0 34 24.5 58t58.5 24t58 -25zM169 22.5q-61 32.5 -95 92.5t-34 139t33 138t93 91t139 32q73 0 120 -31l11 240l3 70
q1 24 21 38.5t50 14.5q33 0 54.5 -17.5t18.5 -43.5q-6 -50 -11.5 -221.5t-5.5 -302.5q0 -111 5 -134q5 -19 26 -51q6 -9 6 -21q0 -25 -23.5 -45.5t-51.5 -20.5q-13 0 -25 3.5t-19 9.5q-30 23 -44 56q-54 -69 -131 -69q-79 0 -140 32.5zM366 120q26 16 41.5 41.5t15.5 52.5
v149q-11 14 -45.5 27.5t-65.5 13.5q-60 0 -93.5 -40.5t-33.5 -111.5q0 -66 35.5 -107t89.5 -41q30 0 56 16z" />
    <glyph glyph-name="Dcroat" unicode="&#x110;" horiz-adv-x="716" 
d="M466 650.5q94 -42.5 147 -118.5t53 -179q0 -104 -55 -183t-156.5 -122t-237.5 -43h-65q-42 0 -62 15t-20 51q0 52 56 60l-5 161h-8q-44 1 -68.5 20t-24.5 53t25.5 54.5t70.5 19.5h1l-4 144q-44 16 -44 60q0 24 13.5 37t45.5 19q17 18 60 18q42 0 62 -16q122 -8 216 -50.5
zM447 211.5q56 58.5 56 148.5q0 177 -224 208l4 -134l28 -1q41 -2 65 -22t24 -53q0 -32 -24 -51.5t-66 -19.5l-23 1l4 -150q100 15 156 73.5z" />
    <glyph glyph-name="dcroat" unicode="&#x111;" horiz-adv-x="700" 
d="M653.5 721q16.5 -14 16.5 -39q0 -24 -17 -40t-43 -16l-36 -1q-8 -230 -8 -368q0 -106 5 -129q5 -19 26 -51q6 -9 6 -21q0 -25 -23.5 -45.5t-51.5 -20.5q-13 0 -25 3.5t-19 9.5q-30 23 -44 56q-54 -69 -131 -69q-79 0 -140 32.5t-95 92.5t-34 139t33 138t93 91t139 32
q73 0 120 -31l6 139l-48 -1q-26 0 -42 14.5t-16 39.5q0 24 15.5 38.5t41.5 14.5l54 1l3 64q1 24 21 38.5t50 14.5q31 0 52 -15.5t21 -39.5l-1 -21l-3 -37l29 1q29 0 45.5 -14zM423 363q-11 14 -45.5 27.5t-65.5 13.5q-60 0 -93.5 -40.5t-33.5 -111.5q0 -66 35.5 -107
t89.5 -41q30 0 56 16t41.5 41.5t15.5 52.5v149z" />
    <glyph glyph-name="Emacron" unicode="&#x112;" horiz-adv-x="640" 
d="M146.5 792.5q-12.5 16.5 -12.5 40.5t13.5 38t36.5 18q58 9 166 15q54 2 79 2l68 -1q26 0 41.5 -17.5t15.5 -42.5q0 -23 -15 -37t-41 -14l-43 1q-39 3 -87 3q-54 0 -97.5 -5t-90.5 -13q-21 -4 -33.5 12.5zM530 146q30 0 47 -17.5t17 -47.5q0 -52 -54 -63q-45 -9 -168 -9
h-32q-55 0 -104.5 3t-121.5 12q-44 6 -44 60q0 26 10 43.5t31 19.5h10q12 81 10 156h-7q-24 0 -35.5 16.5t-11.5 49.5q0 28 11.5 46t34.5 18h8q1 37 1 141q-34 14 -34 57q0 32 17 46.5t53 18.5q49 5 178 5q125 0 191 -8q30 -3 46.5 -17.5t16.5 -44.5t-15 -48.5t-41 -16.5
q-92 8 -162 8q-32 0 -82 -2l-26 -1l3 -140h23q50 0 122 -2l64 -2q39 0 39 -63q0 -30 -11.5 -47t-32.5 -17q-30 0 -51 1l-130 1h-22q-2 -90 -12 -162q38 -4 95 -4q83 0 156 9q5 1 13 1z" />
    <glyph glyph-name="emacron" unicode="&#x113;" horiz-adv-x="596" 
d="M107.5 592.5q-12.5 16.5 -12.5 40.5t13.5 38t36.5 18q58 9 166 15q54 2 79 2l68 -1q26 0 41.5 -17.5t15.5 -42.5q0 -23 -15 -37t-41 -14l-43 1q-39 3 -87 3q-54 0 -97.5 -5t-90.5 -13q-21 -4 -33.5 12.5zM164.5 24q-62.5 34 -93.5 94t-31 136t35.5 135.5t97 92.5
t137.5 33q68 0 124.5 -27t89 -77.5t32.5 -118.5q0 -43 -15.5 -61.5t-52.5 -18.5h-323q0 -24 17 -48.5t51 -41.5t81 -17q42 0 66 12.5t50 37.5q19 17 39 17q23 0 43 -17.5t20 -39.5q0 -18 -12 -35q-21 -33 -71 -61.5t-131 -28.5q-91 0 -153.5 34zM424 302q9 0 11.5 3t2.5 11
q0 39 -37.5 65t-92.5 26q-44 0 -76.5 -17t-49.5 -41.5t-17 -46.5h259z" />
    <glyph glyph-name="Ebreve" unicode="&#x114;" horiz-adv-x="640" 
d="M256 769q-42 20 -66 55.5t-24 79.5q0 20 16 36t37 16q18 0 32.5 -8.5t16.5 -23.5q12 -83 80 -83q29 0 50.5 20t22.5 59q1 19 16 29t35 10q22 0 37.5 -15.5t15.5 -36.5q0 -44 -24 -80t-64.5 -57t-87.5 -21q-51 0 -93 20zM530 146q30 0 47 -17.5t17 -47.5q0 -52 -54 -63
q-45 -9 -168 -9h-32q-55 0 -104.5 3t-121.5 12q-44 6 -44 60q0 26 10 43.5t31 19.5h10q12 81 10 156h-7q-24 0 -35.5 16.5t-11.5 49.5q0 28 11.5 46t34.5 18h8q1 37 1 141q-34 14 -34 57q0 32 17 46.5t53 18.5q49 5 178 5q125 0 191 -8q30 -3 46.5 -17.5t16.5 -44.5
t-15 -48.5t-41 -16.5q-92 8 -162 8q-32 0 -82 -2l-26 -1l3 -140h23q50 0 122 -2l64 -2q39 0 39 -63q0 -30 -11.5 -47t-32.5 -17q-30 0 -51 1l-130 1h-22q-2 -90 -12 -162q38 -4 95 -4q83 0 156 9q5 1 13 1z" />
    <glyph glyph-name="ebreve" unicode="&#x115;" horiz-adv-x="596" 
d="M217 569q-42 20 -66 55.5t-24 79.5q0 20 16 36t37 16q18 0 32.5 -8.5t16.5 -23.5q12 -83 80 -83q29 0 50.5 20t22.5 59q1 19 16 29t35 10q22 0 37.5 -15.5t15.5 -36.5q0 -44 -24 -80t-64.5 -57t-87.5 -21q-51 0 -93 20zM164.5 24q-62.5 34 -93.5 94t-31 136t35.5 135.5
t97 92.5t137.5 33q68 0 124.5 -27t89 -77.5t32.5 -118.5q0 -43 -15.5 -61.5t-52.5 -18.5h-323q0 -24 17 -48.5t51 -41.5t81 -17q42 0 66 12.5t50 37.5q19 17 39 17q23 0 43 -17.5t20 -39.5q0 -18 -12 -35q-21 -33 -71 -61.5t-131 -28.5q-91 0 -153.5 34zM424 302q9 0 11.5 3
t2.5 11q0 39 -37.5 65t-92.5 26q-44 0 -76.5 -17t-49.5 -41.5t-17 -46.5h259z" />
    <glyph glyph-name="Edotaccent" unicode="&#x116;" horiz-adv-x="640" 
d="M292 781.5q-22 22.5 -22 56.5q0 33 22 54.5t56 21.5t56 -21.5t22 -54.5q0 -34 -22 -56.5t-56 -22.5t-56 22.5zM530 146q30 0 47 -17.5t17 -47.5q0 -52 -54 -63q-45 -9 -168 -9h-32q-55 0 -104.5 3t-121.5 12q-44 6 -44 60q0 26 10 43.5t31 19.5h10q12 81 10 156h-7
q-24 0 -35.5 16.5t-11.5 49.5q0 28 11.5 46t34.5 18h8q1 37 1 141q-34 14 -34 57q0 32 17 46.5t53 18.5q49 5 178 5q125 0 191 -8q30 -3 46.5 -17.5t16.5 -44.5t-15 -48.5t-41 -16.5q-92 8 -162 8q-32 0 -82 -2l-26 -1l3 -140h23q50 0 122 -2l64 -2q39 0 39 -63
q0 -30 -11.5 -47t-32.5 -17q-30 0 -51 1l-130 1h-22q-2 -90 -12 -162q38 -4 95 -4q83 0 156 9q5 1 13 1z" />
    <glyph glyph-name="edotaccent" unicode="&#x117;" horiz-adv-x="596" 
d="M253 581.5q-22 22.5 -22 56.5q0 33 22 54.5t56 21.5t56 -21.5t22 -54.5q0 -34 -22 -56.5t-56 -22.5t-56 22.5zM164.5 24q-62.5 34 -93.5 94t-31 136t35.5 135.5t97 92.5t137.5 33q68 0 124.5 -27t89 -77.5t32.5 -118.5q0 -43 -15.5 -61.5t-52.5 -18.5h-323
q0 -24 17 -48.5t51 -41.5t81 -17q42 0 66 12.5t50 37.5q19 17 39 17q23 0 43 -17.5t20 -39.5q0 -18 -12 -35q-21 -33 -71 -61.5t-131 -28.5q-91 0 -153.5 34zM424 302q9 0 11.5 3t2.5 11q0 39 -37.5 65t-92.5 26q-44 0 -76.5 -17t-49.5 -41.5t-17 -46.5h259z" />
    <glyph glyph-name="Eogonek" unicode="&#x118;" horiz-adv-x="640" 
d="M610.5 -63.5q8.5 -10.5 8.5 -29.5q0 -28 -21 -44t-58 -16q-56 0 -88 27t-32 76q0 31 15 60q-34 -1 -95 -1q-55 0 -104.5 3t-121.5 12q-44 6 -44 60q0 26 10 43.5t31 19.5h10q12 81 10 156h-7q-24 0 -35.5 16.5t-11.5 49.5q0 28 11.5 46t34.5 18h8q1 37 1 141
q-34 14 -34 57q0 32 17 46.5t53 18.5q49 5 178 5q125 0 191 -8q30 -3 46.5 -17.5t16.5 -44.5t-15 -48.5t-41 -16.5q-92 8 -162 8q-32 0 -82 -2l-26 -1l3 -140h23q50 0 122 -2l64 -2q39 0 39 -63q0 -30 -11.5 -47t-32.5 -17q-30 0 -51 1l-130 1h-22q-2 -90 -12 -162
q38 -4 95 -4q83 0 156 9q5 1 13 1q30 0 47 -17.5t17 -47.5t-18 -47q-5 -6 -11 -11q-25 -21 -34.5 -35t-9.5 -26q0 -24 25 -24q5 0 21 4q13 5 22 5q13 0 21.5 -10.5z" />
    <glyph glyph-name="eogonek" unicode="&#x119;" horiz-adv-x="596" 
d="M543.5 -31.5q8.5 -10.5 8.5 -29.5q0 -28 -21 -44t-58 -16q-56 0 -88 27t-32 76v10q-22 -2 -35 -2q-91 0 -153.5 34t-93.5 94t-31 136t35.5 135.5t97 92.5t137.5 33q68 0 124.5 -27t89 -77.5t32.5 -118.5q0 -43 -15.5 -61.5t-52.5 -18.5h-323q0 -24 17 -48.5t51 -41.5
t81 -17q42 0 66 12.5t50 37.5q19 17 39 17q23 0 43 -17.5t20 -39.5q0 -18 -12 -35q-14 -21 -42 -43q-24 -24 -24 -43q0 -24 25 -24q5 0 21 4q13 5 22 5q13 0 21.5 -10.5zM231.5 390q-32.5 -17 -49.5 -41.5t-17 -46.5h259q9 0 11.5 3t2.5 11q0 39 -37.5 65t-92.5 26
q-44 0 -76.5 -17z" />
    <glyph glyph-name="Ecaron" unicode="&#x11a;" horiz-adv-x="640" 
d="M503.5 959q14.5 -15 14.5 -37q0 -17 -15 -37l-17 -23q-32 -44 -51 -65.5t-41 -34.5t-50 -13q-23 0 -51.5 21.5t-49 44t-56.5 64.5q-15 18 -15 38q0 21 16 36.5t38 15.5q13 0 23.5 -6t24.5 -21q22 -24 43 -48q26 -31 32 -31q4 0 16.5 16.5t15.5 20.5l41 53q17 21 46 21
q21 0 35.5 -15zM530 146q30 0 47 -17.5t17 -47.5q0 -52 -54 -63q-45 -9 -168 -9h-32q-55 0 -104.5 3t-121.5 12q-44 6 -44 60q0 26 10 43.5t31 19.5h10q12 81 10 156h-7q-24 0 -35.5 16.5t-11.5 49.5q0 28 11.5 46t34.5 18h8q1 37 1 141q-34 14 -34 57q0 32 17 46.5t53 18.5
q49 5 178 5q125 0 191 -8q30 -3 46.5 -17.5t16.5 -44.5t-15 -48.5t-41 -16.5q-92 8 -162 8q-32 0 -82 -2l-26 -1l3 -140h23q50 0 122 -2l64 -2q39 0 39 -63q0 -30 -11.5 -47t-32.5 -17q-30 0 -51 1l-130 1h-22q-2 -90 -12 -162q38 -4 95 -4q83 0 156 9q5 1 13 1z" />
    <glyph glyph-name="ecaron" unicode="&#x11b;" horiz-adv-x="596" 
d="M464.5 759q14.5 -15 14.5 -37q0 -17 -15 -37l-17 -23q-32 -44 -51 -65.5t-41 -34.5t-50 -13q-23 0 -51.5 21.5t-49 44t-56.5 64.5q-15 18 -15 38q0 21 16 36.5t38 15.5q13 0 23.5 -6t24.5 -21q22 -24 43 -48q26 -31 32 -31q4 0 16.5 16.5t15.5 20.5l41 53q17 21 46 21
q21 0 35.5 -15zM164.5 24q-62.5 34 -93.5 94t-31 136t35.5 135.5t97 92.5t137.5 33q68 0 124.5 -27t89 -77.5t32.5 -118.5q0 -43 -15.5 -61.5t-52.5 -18.5h-323q0 -24 17 -48.5t51 -41.5t81 -17q42 0 66 12.5t50 37.5q19 17 39 17q23 0 43 -17.5t20 -39.5q0 -18 -12 -35
q-21 -33 -71 -61.5t-131 -28.5q-91 0 -153.5 34zM424 302q9 0 11.5 3t2.5 11q0 39 -37.5 65t-92.5 26q-44 0 -76.5 -17t-49.5 -41.5t-17 -46.5h259z" />
    <glyph glyph-name="Gcircumflex" unicode="&#x11c;" horiz-adv-x="770" 
d="M474 771l-41 53q-3 4 -15.5 20.5t-16.5 16.5q-6 0 -32 -31q-21 -24 -43 -48q-14 -15 -24.5 -21t-23.5 -6q-22 0 -38 15.5t-16 36.5q0 23 15 38l29 31q40 46 71 72.5t57 26.5q30 0 49.5 -16t52.5 -55q5 -6 22 -26.5t35 -38.5q15 -15 15 -37t-14.5 -37t-35.5 -15
q-29 0 -46 21zM722.5 277q-17.5 -18 -49.5 -19q-11 -123 -80.5 -191t-190.5 -68q-100 0 -180.5 45.5t-126 125.5t-45.5 178q0 97 43.5 175.5t118.5 123.5t165 45q74 0 123.5 -28.5t70.5 -64.5v23q0 20 16.5 34t47.5 14q32 0 48.5 -14.5t17.5 -36.5q3 -83 -14 -116
q-9 -16 -26.5 -24t-39.5 -8q-20 0 -35 7.5t-39 28.5q-27 24 -56 39t-79 15q-62 0 -111.5 -26.5t-77.5 -75t-28 -111.5t28 -113t75 -78t100 -28q56 0 91 32.5t44 97.5l-101 2q-35 1 -51.5 18t-16.5 45q0 31 19 50t52 18l228 -5q38 -1 57.5 -17t19.5 -46q0 -29 -17.5 -47z" />
    <glyph glyph-name="gcircumflex" unicode="&#x11d;" horiz-adv-x="596" 
d="M375 571l-41 53q-3 4 -15.5 20.5t-16.5 16.5q-6 0 -32 -31q-21 -24 -43 -48q-14 -15 -24.5 -21t-23.5 -6q-22 0 -38 15.5t-16 36.5q0 23 15 38l29 31q40 46 71 72.5t57 26.5q30 0 49.5 -16t52.5 -55q5 -6 22 -26.5t35 -38.5q15 -15 15 -37t-14.5 -37t-35.5 -15
q-29 0 -46 21zM556 -1q0 -69 -31.5 -125.5t-88.5 -90t-132 -33.5q-60 0 -110 21.5t-79 59t-29 82.5q0 28 16.5 41t50.5 13q22 0 36 -10t17 -28q5 -32 28 -47.5t65 -15.5q114 0 114 138q0 20 -1 33q-23 -18 -57.5 -29.5t-75.5 -11.5q-69 0 -123.5 33t-85 91t-30.5 130
q0 73 31.5 131t87 90.5t126.5 32.5q69 0 104 -30l15 30q5 11 17 18t30 7q28 0 53 -15.5t25 -38.5q0 -3 -2 -13l-8 -24q-9 -24 -10 -29l3 -20q16 -111 29 -217q15 -122 15 -173zM361 120.5q30 15.5 37 37.5q-15 122 -27 199q-10 16 -29 26t-43 10q-50 0 -82.5 -42t-32.5 -105
q0 -58 29 -99.5t84 -41.5q34 0 64 15.5z" />
    <glyph glyph-name="Gbreve" unicode="&#x11e;" horiz-adv-x="770" 
d="M308 769q-42 20 -66 55.5t-24 79.5q0 20 16 36t37 16q18 0 32.5 -8.5t16.5 -23.5q12 -83 80 -83q29 0 50.5 20t22.5 59q1 19 16 29t35 10q22 0 37.5 -15.5t15.5 -36.5q0 -44 -24 -80t-64.5 -57t-87.5 -21q-51 0 -93 20zM722.5 277q-17.5 -18 -49.5 -19
q-11 -123 -80.5 -191t-190.5 -68q-100 0 -180.5 45.5t-126 125.5t-45.5 178q0 97 43.5 175.5t118.5 123.5t165 45q74 0 123.5 -28.5t70.5 -64.5v23q0 20 16.5 34t47.5 14q32 0 48.5 -14.5t17.5 -36.5q3 -83 -14 -116q-9 -16 -26.5 -24t-39.5 -8q-20 0 -35 7.5t-39 28.5
q-27 24 -56 39t-79 15q-62 0 -111.5 -26.5t-77.5 -75t-28 -111.5t28 -113t75 -78t100 -28q56 0 91 32.5t44 97.5l-101 2q-35 1 -51.5 18t-16.5 45q0 31 19 50t52 18l228 -5q38 -1 57.5 -17t19.5 -46q0 -29 -17.5 -47z" />
    <glyph glyph-name="gbreve" unicode="&#x11f;" horiz-adv-x="596" 
d="M209 569q-42 20 -66 55.5t-24 79.5q0 20 16 36t37 16q18 0 32.5 -8.5t16.5 -23.5q12 -83 80 -83q29 0 50.5 20t22.5 59q1 19 16 29t35 10q22 0 37.5 -15.5t15.5 -36.5q0 -44 -24 -80t-64.5 -57t-87.5 -21q-51 0 -93 20zM556 -1q0 -69 -31.5 -125.5t-88.5 -90t-132 -33.5
q-60 0 -110 21.5t-79 59t-29 82.5q0 28 16.5 41t50.5 13q22 0 36 -10t17 -28q5 -32 28 -47.5t65 -15.5q114 0 114 138q0 20 -1 33q-23 -18 -57.5 -29.5t-75.5 -11.5q-69 0 -123.5 33t-85 91t-30.5 130q0 73 31.5 131t87 90.5t126.5 32.5q69 0 104 -30l15 30q5 11 17 18t30 7
q28 0 53 -15.5t25 -38.5q0 -3 -2 -13l-8 -24q-9 -24 -10 -29l3 -20q16 -111 29 -217q15 -122 15 -173zM361 120.5q30 15.5 37 37.5q-15 122 -27 199q-10 16 -29 26t-43 10q-50 0 -82.5 -42t-32.5 -105q0 -58 29 -99.5t84 -41.5q34 0 64 15.5z" />
    <glyph glyph-name="Gdotaccent" unicode="&#x120;" horiz-adv-x="770" 
d="M344 781.5q-22 22.5 -22 56.5q0 33 22 54.5t56 21.5t56 -21.5t22 -54.5q0 -34 -22 -56.5t-56 -22.5t-56 22.5zM722.5 277q-17.5 -18 -49.5 -19q-11 -123 -80.5 -191t-190.5 -68q-100 0 -180.5 45.5t-126 125.5t-45.5 178q0 97 43.5 175.5t118.5 123.5t165 45
q74 0 123.5 -28.5t70.5 -64.5v23q0 20 16.5 34t47.5 14q32 0 48.5 -14.5t17.5 -36.5q3 -83 -14 -116q-9 -16 -26.5 -24t-39.5 -8q-20 0 -35 7.5t-39 28.5q-27 24 -56 39t-79 15q-62 0 -111.5 -26.5t-77.5 -75t-28 -111.5t28 -113t75 -78t100 -28q56 0 91 32.5t44 97.5
l-101 2q-35 1 -51.5 18t-16.5 45q0 31 19 50t52 18l228 -5q38 -1 57.5 -17t19.5 -46q0 -29 -17.5 -47z" />
    <glyph glyph-name="gdotaccent" unicode="&#x121;" horiz-adv-x="596" 
d="M245 581.5q-22 22.5 -22 56.5q0 33 22 54.5t56 21.5t56 -21.5t22 -54.5q0 -34 -22 -56.5t-56 -22.5t-56 22.5zM556 -1q0 -69 -31.5 -125.5t-88.5 -90t-132 -33.5q-60 0 -110 21.5t-79 59t-29 82.5q0 28 16.5 41t50.5 13q22 0 36 -10t17 -28q5 -32 28 -47.5t65 -15.5
q114 0 114 138q0 20 -1 33q-23 -18 -57.5 -29.5t-75.5 -11.5q-69 0 -123.5 33t-85 91t-30.5 130q0 73 31.5 131t87 90.5t126.5 32.5q69 0 104 -30l15 30q5 11 17 18t30 7q28 0 53 -15.5t25 -38.5q0 -3 -2 -13l-8 -24q-9 -24 -10 -29l3 -20q16 -111 29 -217q15 -122 15 -173z
M361 120.5q30 15.5 37 37.5q-15 122 -27 199q-10 16 -29 26t-43 10q-50 0 -82.5 -42t-32.5 -105q0 -58 29 -99.5t84 -41.5q34 0 64 15.5z" />
    <glyph glyph-name="uni0122" unicode="&#x122;" horiz-adv-x="770" 
d="M468 -84q24 -24 24 -58q0 -39 -25.5 -80.5t-69.5 -79.5q-14 -11 -33 -11t-32 11.5t-13 29.5q0 15 8 25l16 18l25 28q-18 6 -29.5 22.5t-11.5 36.5q0 34 24.5 58t58.5 24t58 -24zM722.5 277q-17.5 -18 -49.5 -19q-11 -123 -80.5 -191t-190.5 -68q-100 0 -180.5 45.5
t-126 125.5t-45.5 178q0 97 43.5 175.5t118.5 123.5t165 45q74 0 123.5 -28.5t70.5 -64.5v23q0 20 16.5 34t47.5 14q32 0 48.5 -14.5t17.5 -36.5q3 -83 -14 -116q-9 -16 -26.5 -24t-39.5 -8q-20 0 -35 7.5t-39 28.5q-27 24 -56 39t-79 15q-62 0 -111.5 -26.5t-77.5 -75
t-28 -111.5t28 -113t75 -78t100 -28q56 0 91 32.5t44 97.5l-101 2q-35 1 -51.5 18t-16.5 45q0 31 19 50t52 18l228 -5q38 -1 57.5 -17t19.5 -46q0 -29 -17.5 -47z" />
    <glyph glyph-name="uni0123" unicode="&#x123;" horiz-adv-x="596" 
d="M371.5 667q13.5 -17 13.5 -41q0 -34 -24.5 -55.5t-59.5 -21.5q-34 0 -58 24t-24 58q0 42 25 86t73 76q15 10 29 10q16 0 29.5 -12.5t13.5 -29.5q0 -21 -14 -33l-37 -38q20 -6 33.5 -23zM556 -1q0 -69 -31.5 -125.5t-88.5 -90t-132 -33.5q-60 0 -110 21.5t-79 59t-29 82.5
q0 28 16.5 41t50.5 13q22 0 36 -10t17 -28q5 -32 28 -47.5t65 -15.5q114 0 114 138q0 20 -1 33q-23 -18 -57.5 -29.5t-75.5 -11.5q-69 0 -123.5 33t-85 91t-30.5 130q0 73 31.5 131t87 90.5t126.5 32.5q69 0 104 -30l15 30q5 11 17 18t30 7q28 0 53 -15.5t25 -38.5
q0 -3 -2 -13l-8 -24q-9 -24 -10 -29l3 -20q16 -111 29 -217q15 -122 15 -173zM361 120.5q30 15.5 37 37.5q-15 122 -27 199q-10 16 -29 26t-43 10q-50 0 -82.5 -42t-32.5 -105q0 -58 29 -99.5t84 -41.5q34 0 64 15.5z" />
    <glyph glyph-name="Hcircumflex" unicode="&#x124;" horiz-adv-x="805" 
d="M483 771l-41 53q-3 4 -15.5 20.5t-16.5 16.5q-6 0 -32 -31q-21 -24 -43 -48q-14 -15 -24.5 -21t-23.5 -6q-22 0 -38 15.5t-16 36.5q0 23 15 38l29 31q40 46 71 72.5t57 26.5q30 0 49.5 -16t52.5 -55q5 -6 22 -26.5t35 -38.5q15 -15 15 -37t-14.5 -37t-35.5 -15
q-29 0 -46 21zM719 368.5q16 -16.5 16 -49.5t-16 -49t-35 -16h-8l5 -187q1 -32 -18.5 -50.5t-53.5 -18.5q-33 0 -53 17.5t-21 47.5l-6 193l-255 4l-17 -215q-4 -52 -72 -52q-38 0 -57 15.5t-17 46.5l16 207h-6q-24 0 -37.5 17.5t-13.5 48.5t15 47.5t40 16.5h13l21 270
q2 27 23 44t54 17q35 0 53 -20t16 -52l-21 -261l241 -3l-8 268q-1 30 18.5 49t54.5 19q33 0 53 -18.5t21 -45.5l8 -274h13q18 0 34 -16.5z" />
    <glyph glyph-name="hcircumflex" unicode="&#x125;" horiz-adv-x="581" 
d="M245 857l-41 53q-3 4 -15.5 20.5t-16.5 16.5q-6 0 -32 -31q-21 -24 -43 -48q-14 -15 -24.5 -21t-23.5 -6q-22 0 -38 15.5t-16 36.5q0 23 15 38l29 31q40 46 71 72.5t57 26.5q30 0 49.5 -16t52.5 -55q5 -6 22 -26.5t35 -38.5q15 -15 15 -37t-14.5 -37t-35.5 -15
q-29 0 -46 21zM541 58q0 -24 -21 -39t-51 -15q-31 0 -52 16t-21 45q0 123 -2.5 191t-12.5 110q-7 28 -21 36.5t-31 8.5q-55 0 -81 -41.5t-26 -108.5v-206q0 -22 -21 -36.5t-51 -14.5t-51 15t-21 37q0 192 5 382q2 71 10 218l4 71q2 26 21 42.5t51 16.5q31 0 49 -15t17 -40
q-8 -118 -14 -255q23 21 57 33.5t77 12.5q67 0 105.5 -34.5t56.5 -107.5q24 -99 24 -322z" />
    <glyph glyph-name="Hbar" unicode="&#x126;" horiz-adv-x="845" 
d="M683 474l3 -89h13q18 0 34 -16.5t16 -49.5t-16 -49t-35 -16h-8l5 -187q1 -32 -18.5 -50.5t-53.5 -18.5q-33 0 -53 17.5t-21 47.5l-6 193l-255 4l-17 -215q-4 -52 -72 -52q-38 0 -57 15.5t-17 46.5l16 207h-6q-24 0 -37.5 17.5t-13.5 48.5t15 47.5t40 16.5h13l7 91h-8
q-34 1 -57.5 15.5t-23.5 40.5q0 27 24.5 42.5t59.5 14.5h14l5 66q2 27 23 44t54 17q35 0 53 -20t16 -52l-5 -57l219 -3l-2 64q-1 30 18.5 49t54.5 19q33 0 53 -18.5t21 -45.5l2 -70h11q37 -1 60.5 -15.5t23.5 -41.5q0 -28 -23.5 -43t-61.5 -15h-7zM536 477l-231 3l-7 -90
l241 -3z" />
    <glyph glyph-name="hbar" unicode="&#x127;" horiz-adv-x="594" 
d="M554 58q0 -24 -21 -39t-51 -15q-31 0 -52 16t-21 45q0 123 -2.5 191t-12.5 110q-7 28 -21 36.5t-31 8.5q-55 0 -81 -41.5t-26 -108.5v-206q0 -22 -21 -36.5t-51 -14.5t-51 15t-21 37q0 192 5 382q1 46 5 131l-27 1q-23 0 -38.5 16t-15.5 39t16.5 38t41.5 15l29 -1l3 50
q2 26 21 42.5t51 16.5q30 0 48 -14t18 -37q0 -15 -2 -41q-2 -16 -2 -22l62 -2q25 0 41.5 -15.5t16.5 -38.5q0 -24 -16 -39t-41 -15l-69 2l-4 -88q23 21 57 33.5t77 12.5q67 0 105.5 -34.5t56.5 -107.5q24 -99 24 -322z" />
    <glyph glyph-name="Itilde" unicode="&#x128;" horiz-adv-x="510" 
d="M76 823q0 19 14 36q28 34 52 48t55 14q24 0 50.5 -6.5t48.5 -18.5q5 -3 15.5 -8.5t17 -8t9.5 -2.5q6 0 14 8q13 13 21.5 18.5t20.5 5.5q20 0 37 -17t17 -38q0 -22 -16 -38q-24 -24 -46.5 -35t-47.5 -11q-21 0 -40 7t-32 13.5t-16 8.5q-4 2 -19.5 10t-24.5 8
q-6 0 -13.5 -6.5t-17.5 -17.5q-21 -23 -46 -23q-21 0 -36 15q-17 17 -17 38zM470 68q0 -66 -65 -66l-300 4q-33 1 -46.5 20t-13.5 45q0 33 17.5 49.5t42.5 16.5l83 -1q13 221 14 443q-43 -3 -72 -6l-33 -2q-28 0 -42.5 17t-14.5 48q0 32 14.5 47t42.5 19q22 3 78 6t112 3
q54 0 126 -6q28 -2 42.5 -19.5t14.5 -45.5q0 -63 -63 -63q-15 0 -60 3q-2 -272 -15 -446l74 -1q64 -1 64 -65z" />
    <glyph glyph-name="itilde" unicode="&#x129;" horiz-adv-x="350" 
d="M-14 623q0 19 14 36q28 34 52 48t55 14q24 0 50.5 -6.5t48.5 -18.5q5 -3 15.5 -8.5t17 -8t9.5 -2.5q6 0 14 8q13 13 21.5 18.5t20.5 5.5q20 0 37 -17t17 -38q0 -22 -16 -38q-24 -24 -46.5 -35t-47.5 -11q-21 0 -40 7t-32 13.5t-16 8.5q-4 2 -19.5 10t-24.5 8
q-6 0 -13.5 -6.5t-17.5 -17.5q-21 -23 -46 -23q-21 0 -36 15q-17 17 -17 38zM118.5 19q-20.5 17 -20.5 44l8 385q0 27 20.5 43.5t52.5 16.5q33 0 53.5 -17t20.5 -45l-12 -385q0 -25 -19 -42t-51 -17t-52.5 17z" />
    <glyph glyph-name="Imacron" unicode="&#x12a;" horiz-adv-x="510" 
d="M63.5 792.5q-12.5 16.5 -12.5 40.5t13.5 38t36.5 18q58 9 166 15q54 2 79 2l68 -1q26 0 41.5 -17.5t15.5 -42.5q0 -23 -15 -37t-41 -14l-43 1q-39 3 -87 3q-54 0 -97.5 -5t-90.5 -13q-21 -4 -33.5 12.5zM470 68q0 -66 -65 -66l-300 4q-33 1 -46.5 20t-13.5 45
q0 33 17.5 49.5t42.5 16.5l83 -1q13 221 14 443q-43 -3 -72 -6l-33 -2q-28 0 -42.5 17t-14.5 48q0 32 14.5 47t42.5 19q22 3 78 6t112 3q54 0 126 -6q28 -2 42.5 -19.5t14.5 -45.5q0 -63 -63 -63q-15 0 -60 3q-2 -272 -15 -446l74 -1q64 -1 64 -65z" />
    <glyph glyph-name="imacron" unicode="&#x12b;" horiz-adv-x="350" 
d="M-26.5 592.5q-12.5 16.5 -12.5 40.5t13.5 38t36.5 18q58 9 166 15q54 2 79 2l68 -1q26 0 41.5 -17.5t15.5 -42.5q0 -23 -15 -37t-41 -14l-43 1q-39 3 -87 3q-54 0 -97.5 -5t-90.5 -13q-21 -4 -33.5 12.5zM118.5 19q-20.5 17 -20.5 44l8 385q0 27 20.5 43.5t52.5 16.5
q33 0 53.5 -17t20.5 -45l-12 -385q0 -25 -19 -42t-51 -17t-52.5 17z" />
    <glyph glyph-name="Ibreve" unicode="&#x12c;" horiz-adv-x="510" 
d="M173 769q-42 20 -66 55.5t-24 79.5q0 20 16 36t37 16q18 0 32.5 -8.5t16.5 -23.5q12 -83 80 -83q29 0 50.5 20t22.5 59q1 19 16 29t35 10q22 0 37.5 -15.5t15.5 -36.5q0 -44 -24 -80t-64.5 -57t-87.5 -21q-51 0 -93 20zM470 68q0 -66 -65 -66l-300 4q-33 1 -46.5 20
t-13.5 45q0 33 17.5 49.5t42.5 16.5l83 -1q13 221 14 443q-43 -3 -72 -6l-33 -2q-28 0 -42.5 17t-14.5 48q0 32 14.5 47t42.5 19q22 3 78 6t112 3q54 0 126 -6q28 -2 42.5 -19.5t14.5 -45.5q0 -63 -63 -63q-15 0 -60 3q-2 -272 -15 -446l74 -1q64 -1 64 -65z" />
    <glyph glyph-name="ibreve" unicode="&#x12d;" horiz-adv-x="350" 
d="M83 569q-42 20 -66 55.5t-24 79.5q0 20 16 36t37 16q18 0 32.5 -8.5t16.5 -23.5q12 -83 80 -83q29 0 50.5 20t22.5 59q1 19 16 29t35 10q22 0 37.5 -15.5t15.5 -36.5q0 -44 -24 -80t-64.5 -57t-87.5 -21q-51 0 -93 20zM118.5 19q-20.5 17 -20.5 44l8 385q0 27 20.5 43.5
t52.5 16.5q33 0 53.5 -17t20.5 -45l-12 -385q0 -25 -19 -42t-51 -17t-52.5 17z" />
    <glyph glyph-name="Iogonek" unicode="&#x12e;" horiz-adv-x="510" 
d="M491.5 -73.5q8.5 -10.5 8.5 -29.5q0 -28 -21 -44t-58 -16q-56 0 -88 27t-32 76q0 32 17 63l-213 3q-33 1 -46.5 20t-13.5 45q0 33 17.5 49.5t42.5 16.5l83 -1q13 221 14 443q-43 -3 -72 -6l-33 -2q-28 0 -42.5 17t-14.5 48q0 32 14.5 47t42.5 19q22 3 78 6t112 3
q54 0 126 -6q28 -2 42.5 -19.5t14.5 -45.5q0 -63 -63 -63q-15 0 -60 3q-2 -272 -15 -446l74 -1q64 -1 64 -65q0 -41 -27 -57q-23 -20 -32 -34t-9 -25q0 -24 25 -24q5 0 21 4q13 5 22 5q13 0 21.5 -10.5z" />
    <glyph glyph-name="iogonek" unicode="&#x12f;" horiz-adv-x="350" 
d="M119 581.5q-22 22.5 -22 56.5q0 33 22 54.5t56 21.5t56 -21.5t22 -54.5q0 -34 -22 -56.5t-56 -22.5t-56 22.5zM261.5 -75.5q8.5 -10.5 8.5 -29.5q0 -28 -21 -44t-58 -16q-56 0 -88 27t-32 76q0 46 36 93q-9 14 -9 32l8 385q0 27 20.5 43.5t52.5 16.5q33 0 53.5 -17
t20.5 -45l-12 -385q0 -15 -8 -29q-6 -11 -17 -21q-25 -21 -34.5 -35t-9.5 -26q0 -24 25 -24q5 0 21 4q13 5 22 5q13 0 21.5 -10.5z" />
    <glyph glyph-name="Idotaccent" unicode="&#x130;" horiz-adv-x="510" 
d="M209 781.5q-22 22.5 -22 56.5q0 33 22 54.5t56 21.5t56 -21.5t22 -54.5q0 -34 -22 -56.5t-56 -22.5t-56 22.5zM470 68q0 -66 -65 -66l-300 4q-33 1 -46.5 20t-13.5 45q0 33 17.5 49.5t42.5 16.5l83 -1q13 221 14 443q-43 -3 -72 -6l-33 -2q-28 0 -42.5 17t-14.5 48
q0 32 14.5 47t42.5 19q22 3 78 6t112 3q54 0 126 -6q28 -2 42.5 -19.5t14.5 -45.5q0 -63 -63 -63q-15 0 -60 3q-2 -272 -15 -446l74 -1q64 -1 64 -65z" />
    <glyph glyph-name="dotlessi" unicode="&#x131;" horiz-adv-x="350" 
d="M118.5 19q-20.5 17 -20.5 44l8 385q0 27 20.5 43.5t52.5 16.5q33 0 53.5 -17t20.5 -45l-12 -385q0 -25 -19 -42t-51 -17t-52.5 17z" />
    <glyph glyph-name="IJ" unicode="&#x132;" horiz-adv-x="1169" 
d="M470 68q0 -66 -65 -66l-300 4q-33 1 -46.5 20t-13.5 45q0 33 17.5 49.5t42.5 16.5l83 -1q13 221 14 443q-43 -3 -72 -6l-33 -2q-28 0 -42.5 17t-14.5 48q0 32 14.5 47t42.5 19q22 3 78 6t112 3q54 0 126 -6q28 -2 42.5 -19.5t14.5 -45.5q0 -63 -63 -63q-15 0 -60 3
q-2 -272 -15 -446l74 -1q64 -1 64 -65zM1095 683.5q14 -16.5 14 -44.5t-15 -45.5t-46 -17.5h-28q-1 -32 -1 -88q0 -72 1 -107l1 -109q0 -127 -62.5 -200.5t-172.5 -73.5t-173 69.5t-63 191.5q0 36 19 55.5t57 19.5q34 0 52 -19.5t18 -50.5q1 -68 23.5 -101.5t61.5 -33.5
q40 0 65.5 36t25.5 106v101q0 127 3 204h-40q-34 0 -49 15t-15 48q0 28 13 44.5t33 17.5q72 3 127 3q63 0 103 -2q34 -2 48 -18.5z" />
    <glyph glyph-name="ij" unicode="&#x133;" horiz-adv-x="713" 
d="M103.5 547.5q-25.5 25.5 -25.5 64.5t25.5 63.5t66.5 24.5q40 0 65 -24.5t25 -62.5q0 -39 -25.5 -65t-65.5 -26t-65.5 25.5zM102 22q-21 16 -20 43l8 369q1 27 21 42.5t52 15.5q33 0 54 -16t20 -44l-8 -368q-1 -27 -21.5 -42.5t-52.5 -15.5t-53 16zM486.5 552
q-27.5 26 -27.5 62q0 35 26.5 60t66.5 25q39 0 65 -24.5t26 -61.5t-26.5 -62t-63.5 -25q-39 0 -66.5 26zM305.5 -193.5q-47.5 42.5 -47.5 110.5q0 34 15.5 49.5t50.5 15.5q64 0 68 -50q4 -32 11 -44t21 -12q23 0 33.5 33t11.5 117q5 235 5 425q0 21 20.5 34.5t51.5 13.5
q32 0 51 -13.5t19 -37.5q0 -227 -4 -423q-3 -134 -47.5 -197.5t-135.5 -63.5q-76 0 -123.5 42.5z" />
    <glyph glyph-name="Jcircumflex" unicode="&#x134;" horiz-adv-x="659" 
d="M509 771l-41 53q-3 4 -15.5 20.5t-16.5 16.5q-6 0 -32 -31q-21 -24 -43 -48q-14 -15 -24.5 -21t-23.5 -6q-22 0 -38 15.5t-16 36.5q0 23 15 38l29 31q40 46 71 72.5t57 26.5q30 0 49.5 -16t52.5 -55q5 -6 22 -26.5t35 -38.5q15 -15 15 -37t-14.5 -37t-35.5 -15
q-29 0 -46 21zM585 683.5q14 -16.5 14 -44.5t-15 -45.5t-46 -17.5h-28q-1 -32 -1 -88q0 -72 1 -107l1 -109q0 -127 -62.5 -200.5t-172.5 -73.5t-173 69.5t-63 191.5q0 36 19 55.5t57 19.5q34 0 52 -19.5t18 -50.5q1 -68 23.5 -101.5t61.5 -33.5q40 0 65.5 36t25.5 106v101
q0 127 3 204h-40q-34 0 -49 15t-15 48q0 28 13 44.5t33 17.5q72 3 127 3q63 0 103 -2q34 -2 48 -18.5z" />
    <glyph glyph-name="jcircumflex" unicode="&#x135;" horiz-adv-x="348" 
d="M286 571l-41 53q-3 4 -15.5 20.5t-16.5 16.5q-6 0 -32 -31q-21 -24 -43 -48q-14 -15 -24.5 -21t-23.5 -6q-22 0 -38 15.5t-16 36.5q0 23 15 38l29 31q40 46 71 72.5t57 26.5q30 0 49.5 -16t52.5 -55q5 -6 22 -26.5t35 -38.5q15 -15 15 -37t-14.5 -37t-35.5 -15
q-29 0 -46 21zM-4.5 -214q-38.5 22 -57 57t-18.5 74q0 36 16 50.5t50 14.5q39 0 52.5 -14t15.5 -36q4 -31 10.5 -43.5t21.5 -12.5q24 0 33.5 34t11.5 116q5 235 5 425q0 21 20.5 34.5t51.5 13.5q32 0 51 -13.5t19 -37.5q0 -227 -4 -423q-3 -140 -49.5 -200.5t-133.5 -60.5
q-57 0 -95.5 22z" />
    <glyph glyph-name="uni0136" unicode="&#x136;" horiz-adv-x="658" 
d="M397 -84q24 -24 24 -58q0 -39 -25.5 -80.5t-69.5 -79.5q-14 -11 -33 -11t-32 11.5t-13 29.5q0 15 8 25l16 18l25 28q-18 6 -29.5 22.5t-11.5 36.5q0 34 24.5 58t58.5 24t58 -24zM601 67q0 -30 -21 -50.5t-52 -20.5q-25 0 -45 14l-147 131l-119 105l-1 -62q-1 -42 -1 -112
q0 -33 -20 -53.5t-53 -20.5q-38 0 -55 14.5t-17 51.5q0 43 2 131q3 72 3 158q0 65 -2 159l-1 125q0 28 20.5 46t53.5 18t52.5 -18.5t19.5 -48.5l1 -150q80 58 120 88l68 49l92 67q20 14 46 14q33 0 53 -19t20 -49t-22 -48q-23 -18 -66.5 -46.5t-61.5 -40.5l-43 -27
q-58 -38 -105.5 -68t-52.5 -33q43 -34 72 -57.5t47 -38.5l29 -24q-5 4 55 -46q61 -53 103 -86q28 -24 28 -52z" />
    <glyph glyph-name="uni0137" unicode="&#x137;" horiz-adv-x="539" 
d="M343 -84q24 -24 24 -58q0 -39 -25.5 -80.5t-69.5 -79.5q-14 -11 -33 -11t-32 11.5t-13 29.5q0 15 8 25l16 18l25 28q-18 6 -29.5 22.5t-11.5 36.5q0 34 24.5 58t58.5 24t58 -24zM81 7q-21 15 -21 37v638q0 27 20 43t51 16q32 0 52.5 -16t20.5 -43l-2 -280l59 38
q98 62 143 89q22 13 45 10q20 -3 35 -23.5t15 -43.5q0 -16 -8 -25t-27 -21l-232 -143l241 -184q17 -13 17 -39t-19.5 -43t-45.5 -17q-25 0 -50 18q-35 26 -99 83q-68 59 -74 64v-120q0 -23 -20 -38t-50 -15t-51 15z" />
    <glyph glyph-name="kgreenlandic" unicode="&#x138;" horiz-adv-x="539" 
d="M81 7q-21 15 -21 37v425q0 27 20 43t51 16q32 0 53 -16t20 -43l-2 -79q38 24 95 66q59 44 107 73q22 13 45 10q20 -3 35 -23.5t15 -43.5q0 -16 -8 -24.5t-27 -21.5l-218 -143l227 -184q17 -13 17 -39t-19.5 -43t-45.5 -17q-25 0 -50 18q-15 12 -57 54q-13 12 -49.5 47.5
t-66.5 59.5v-134q0 -23 -20 -38t-50 -15t-51 15z" />
    <glyph glyph-name="Lacute" unicode="&#x139;" horiz-adv-x="580" 
d="M99 764.5q-14 14.5 -14 35.5q0 12 5 25t14 21l93 85q19 18 30.5 25t25.5 7q22 0 37 -15t15 -38q0 -15 -6.5 -28t-16.5 -22l-100 -86q-14 -13 -25 -18.5t-23 -5.5q-21 0 -35 14.5zM135.5 18q-45.5 21 -60.5 70t-15 151q0 115 10.5 211t28.5 202q4 24 24.5 38.5t52.5 14.5
q34 0 51.5 -16.5t17.5 -44.5q0 -6 -2 -18q-21 -123 -32 -209.5t-11 -181.5q0 -49 4.5 -72t18 -32t42.5 -9q62 0 214 28q5 1 14 1q26 0 41.5 -19.5t15.5 -45.5q0 -53 -77 -67q-69 -13 -104.5 -17.5t-89.5 -4.5q-98 0 -143.5 21z" />
    <glyph glyph-name="lacute" unicode="&#x13a;" horiz-adv-x="270" 
d="M57 856.5q-14 14.5 -14 35.5q0 12 5 25t14 21l93 85q19 18 30.5 25t25.5 7q22 0 37 -15t15 -38q0 -15 -6.5 -28t-16.5 -22l-100 -86q-14 -13 -25 -18.5t-23 -5.5q-21 0 -35 14.5zM85 26q-19 17 -19 43l-6 662q0 27 21 44t53 17t51.5 -16.5t19.5 -43.5l5 -662
q0 -28 -21.5 -44.5t-52.5 -16.5q-32 0 -51 17z" />
    <glyph glyph-name="uni013B" unicode="&#x13b;" horiz-adv-x="580" 
d="M348 -84q24 -24 24 -58q0 -39 -25.5 -80.5t-69.5 -79.5q-14 -11 -33 -11t-32 11.5t-13 29.5q0 15 8 25l16 18l25 28q-18 6 -29.5 22.5t-11.5 36.5q0 34 24.5 58t58.5 24t58 -24zM135.5 18q-45.5 21 -60.5 70t-15 151q0 115 10.5 211t28.5 202q4 24 24.5 38.5t52.5 14.5
q34 0 51.5 -16.5t17.5 -44.5q0 -6 -2 -18q-21 -123 -32 -209.5t-11 -181.5q0 -49 4.5 -72t18 -32t42.5 -9q62 0 214 28q5 1 14 1q26 0 41.5 -19.5t15.5 -45.5q0 -53 -77 -67q-69 -13 -104.5 -17.5t-89.5 -4.5q-98 0 -143.5 21z" />
    <glyph glyph-name="uni013C" unicode="&#x13c;" horiz-adv-x="270" 
d="M203 -84q24 -24 24 -58q0 -39 -25.5 -80.5t-69.5 -79.5q-14 -11 -33 -11t-32 11.5t-13 29.5q0 15 8 25l16 18l25 28q-18 6 -29.5 22.5t-11.5 36.5q0 34 24.5 58t58.5 24t58 -24zM85 26q-19 17 -19 43l-6 662q0 27 21 44t53 17t51.5 -16.5t19.5 -43.5l5 -662
q0 -28 -21.5 -44.5t-52.5 -16.5q-32 0 -51 17z" />
    <glyph glyph-name="Lcaron" unicode="&#x13d;" horiz-adv-x="580" 
d="M510 684q24 -25 24 -59q0 -39 -25 -80t-70 -78q-14 -11 -32 -11q-19 0 -31.5 12.5t-12.5 28.5t11 30q3 4 14 15q4 4 9 9.5t11 12.5q-17 5 -28 24t-11 39q0 34 24.5 58t58.5 24t58 -25zM135.5 18q-45.5 21 -60.5 70t-15 151q0 115 10.5 211t28.5 202q4 24 24.5 38.5
t52.5 14.5q34 0 51.5 -16.5t17.5 -44.5q0 -6 -2 -18q-21 -123 -32 -209.5t-11 -181.5q0 -49 4.5 -72t18 -32t42.5 -9q62 0 214 28q5 1 14 1q26 0 41.5 -19.5t15.5 -45.5q0 -53 -77 -67q-69 -13 -104.5 -17.5t-89.5 -4.5q-98 0 -143.5 21z" />
    <glyph glyph-name="lcaron" unicode="&#x13e;" horiz-adv-x="461" 
d="M413 770q24 -25 24 -59q0 -39 -25 -80t-70 -78q-14 -11 -32 -11q-19 0 -31.5 12.5t-12.5 28.5t11 30q3 4 14 15q4 4 9 9.5t11 12.5q-17 5 -28 24t-11 39q0 34 24.5 58t58.5 24t58 -25zM85 26q-19 17 -19 43l-6 662q0 27 21 44t53 17t51.5 -16.5t19.5 -43.5l5 -662
q0 -28 -21.5 -44.5t-52.5 -16.5q-32 0 -51 17z" />
    <glyph glyph-name="Ldot" unicode="&#x13f;" horiz-adv-x="580" 
d="M135.5 18q-45.5 21 -60.5 70t-15 151q0 115 10.5 211t28.5 202q4 24 24.5 38.5t52.5 14.5q34 0 51.5 -16.5t17.5 -44.5q0 -6 -2 -18q-21 -123 -32 -209.5t-11 -181.5q0 -49 4.5 -72t18 -32t42.5 -9q62 0 214 28q5 1 14 1q26 0 41.5 -19.5t15.5 -45.5q0 -53 -77 -67
q-69 -13 -104.5 -17.5t-89.5 -4.5q-98 0 -143.5 21zM304 281.5q-29 27.5 -29 67.5t29.5 68t68.5 28t67.5 -28t28.5 -68q0 -43 -28.5 -69t-67.5 -26q-40 0 -69 27.5z" />
    <glyph glyph-name="ldot" unicode="&#x140;" horiz-adv-x="456" 
d="M85 26q-19 17 -19 43l-6 662q0 27 21 44t53 17t51.5 -16.5t19.5 -43.5l5 -662q0 -28 -21.5 -44.5t-52.5 -16.5q-32 0 -51 17zM281 191.5q-29 27.5 -29 67.5t29.5 68t68.5 28t67.5 -28t28.5 -68q0 -43 -28.5 -69t-67.5 -26q-40 0 -69 27.5z" />
    <glyph glyph-name="Lslash" unicode="&#x141;" horiz-adv-x="580" 
d="M493 151q26 0 41.5 -19.5t15.5 -45.5q0 -53 -77 -67q-69 -13 -104.5 -17.5t-89.5 -4.5q-96 0 -142 20.5t-61 68t-16 145.5q-29 2 -42 16q-19 22 -19 45q0 33 39 63l26 21q9 125 35 276q4 24 24.5 38.5t52.5 14.5q34 0 51.5 -16.5t17.5 -44.5q0 -6 -2 -18l-7 -40
q-10 -58 -14 -87l57 45q20 15 43 15q16 0 31 -6.5t25 -18.5q16 -19 16 -41q0 -39 -40 -71l-152 -119q-2 -44 -2 -68q0 -49 4.5 -72t18 -32t42.5 -9q62 0 214 28q5 1 14 1z" />
    <glyph glyph-name="lslash" unicode="&#x142;" horiz-adv-x="359" 
d="M332.5 550.5q16.5 -17.5 16.5 -40.5q0 -22 -11 -33t-25 -19l-54 -30l3 -358q0 -28 -21.5 -44.5t-52.5 -16.5q-32 0 -51 17t-19 43l-3 279l-19 -11q-16 -9 -31 -9q-23 0 -39 16.5t-16 39.5q0 31 32 49l72 41l-2 257q0 27 21 44t53 17t51.5 -16.5t19.5 -43.5l1 -176l8 4
q13 8 27 8q23 0 39.5 -17.5z" />
    <glyph glyph-name="Nacute" unicode="&#x143;" horiz-adv-x="759" 
d="M310 764.5q-14 14.5 -14 35.5q0 12 5 25t14 21l93 85q19 18 30.5 25t25.5 7q22 0 37 -15t15 -38q0 -15 -6.5 -28t-16.5 -22l-100 -86q-14 -13 -25 -18.5t-23 -5.5q-21 0 -35 14.5zM671.5 696q17.5 -19 17.5 -59q0 -79 -1 -119l-1 -148q0 -152 -8.5 -227t-31.5 -104
t-70 -29q-36 0 -66.5 23t-69 76t-107.5 163l-118 191q1 -37 1 -138l1 -255q0 -26 -20.5 -44t-52.5 -18t-52.5 17.5t-20.5 44.5v261l-1 109q-1 28 -1 79q0 74 6.5 114t24.5 57.5t54 17.5q35 0 63.5 -21t67 -75t115.5 -177q41 -65 122 -198l19 -32v165l1 283q0 27 18 44.5
t56 17.5q37 0 54.5 -19z" />
    <glyph glyph-name="nacute" unicode="&#x144;" horiz-adv-x="574" 
d="M223 564.5q-14 14.5 -14 35.5q0 12 5 25t14 21l93 85q19 18 30.5 25t25.5 7q22 0 37 -15t15 -38q0 -15 -6.5 -28t-16.5 -22l-100 -86q-14 -13 -25 -18.5t-23 -5.5q-21 0 -35 14.5zM475.5 449.5q48.5 -61.5 48.5 -181.5l-1 -226q0 -21 -20.5 -32t-50.5 -11q-29 0 -51.5 10
t-22.5 28l1 232q0 73 -16 102t-50 29q-29 0 -46 -26t-29 -101q-7 -42 -7 -93l1 -129q0 -26 -19.5 -39.5t-52.5 -13.5q-34 0 -53.5 14t-19.5 39q0 208 -6 324q-1 12 -5.5 22.5t-10.5 19.5t-9 14q-6 11 -6 22q0 21 24.5 39.5t47.5 18.5q11 0 21.5 -7t23.5 -23q11 -14 16 -25
t5 -25v-9q18 38 54.5 63.5t96.5 25.5q88 0 136.5 -61.5z" />
    <glyph glyph-name="uni0145" unicode="&#x145;" horiz-adv-x="759" 
d="M456 -84q24 -24 24 -58q0 -39 -25.5 -80.5t-69.5 -79.5q-14 -11 -33 -11t-32 11.5t-13 29.5q0 15 8 25l16 18l25 28q-18 6 -29.5 22.5t-11.5 36.5q0 34 24.5 58t58.5 24t58 -24zM671.5 696q17.5 -19 17.5 -59q0 -79 -1 -119l-1 -148q0 -152 -8.5 -227t-31.5 -104t-70 -29
q-36 0 -66.5 23t-69 76t-107.5 163l-118 191q1 -37 1 -138l1 -255q0 -26 -20.5 -44t-52.5 -18t-52.5 17.5t-20.5 44.5v261l-1 109q-1 28 -1 79q0 74 6.5 114t24.5 57.5t54 17.5q35 0 63.5 -21t67 -75t115.5 -177q41 -65 122 -198l19 -32v165l1 283q0 27 18 44.5t56 17.5
q37 0 54.5 -19z" />
    <glyph glyph-name="uni0146" unicode="&#x146;" horiz-adv-x="574" 
d="M369 -84q24 -24 24 -58q0 -39 -25.5 -80.5t-69.5 -79.5q-14 -11 -33 -11t-32 11.5t-13 29.5q0 15 8 25l16 18l25 28q-18 6 -29.5 22.5t-11.5 36.5q0 34 24.5 58t58.5 24t58 -24zM475.5 449.5q48.5 -61.5 48.5 -181.5l-1 -226q0 -21 -20.5 -32t-50.5 -11q-29 0 -51.5 10
t-22.5 28l1 232q0 73 -16 102t-50 29q-29 0 -46 -26t-29 -101q-7 -42 -7 -93l1 -129q0 -26 -19.5 -39.5t-52.5 -13.5q-34 0 -53.5 14t-19.5 39q0 208 -6 324q-1 12 -5.5 22.5t-10.5 19.5t-9 14q-6 11 -6 22q0 21 24.5 39.5t47.5 18.5q11 0 21.5 -7t23.5 -23q11 -14 16 -25
t5 -25v-9q18 38 54.5 63.5t96.5 25.5q88 0 136.5 -61.5z" />
    <glyph glyph-name="Ncaron" unicode="&#x147;" horiz-adv-x="759" 
d="M543.5 959q14.5 -15 14.5 -37q0 -17 -15 -37l-17 -23q-32 -44 -51 -65.5t-41 -34.5t-50 -13q-23 0 -51.5 21.5t-49 44t-56.5 64.5q-15 18 -15 38q0 21 16 36.5t38 15.5q13 0 23.5 -6t24.5 -21q22 -24 43 -48q26 -31 32 -31q4 0 16.5 16.5t15.5 20.5l41 53q17 21 46 21
q21 0 35.5 -15zM671.5 696q17.5 -19 17.5 -59q0 -79 -1 -119l-1 -148q0 -152 -8.5 -227t-31.5 -104t-70 -29q-36 0 -66.5 23t-69 76t-107.5 163l-118 191q1 -37 1 -138l1 -255q0 -26 -20.5 -44t-52.5 -18t-52.5 17.5t-20.5 44.5v261l-1 109q-1 28 -1 79q0 74 6.5 114
t24.5 57.5t54 17.5q35 0 63.5 -21t67 -75t115.5 -177q41 -65 122 -198l19 -32v165l1 283q0 27 18 44.5t56 17.5q37 0 54.5 -19z" />
    <glyph glyph-name="ncaron" unicode="&#x148;" horiz-adv-x="574" 
d="M456.5 759q14.5 -15 14.5 -37q0 -17 -15 -37l-17 -23q-32 -44 -51 -65.5t-41 -34.5t-50 -13q-23 0 -51.5 21.5t-49 44t-56.5 64.5q-15 18 -15 38q0 21 16 36.5t38 15.5q13 0 23.5 -6t24.5 -21q22 -24 43 -48q26 -31 32 -31q4 0 16.5 16.5t15.5 20.5l41 53q17 21 46 21
q21 0 35.5 -15zM475.5 449.5q48.5 -61.5 48.5 -181.5l-1 -226q0 -21 -20.5 -32t-50.5 -11q-29 0 -51.5 10t-22.5 28l1 232q0 73 -16 102t-50 29q-29 0 -46 -26t-29 -101q-7 -42 -7 -93l1 -129q0 -26 -19.5 -39.5t-52.5 -13.5q-34 0 -53.5 14t-19.5 39q0 208 -6 324
q-1 12 -5.5 22.5t-10.5 19.5t-9 14q-6 11 -6 22q0 21 24.5 39.5t47.5 18.5q11 0 21.5 -7t23.5 -23q11 -14 16 -25t5 -25v-9q18 38 54.5 63.5t96.5 25.5q88 0 136.5 -61.5z" />
    <glyph glyph-name="napostrophe" unicode="&#x149;" horiz-adv-x="712" 
d="M157 748q24 -25 24 -59q0 -39 -25 -80t-70 -78q-14 -11 -32 -11q-19 0 -31.5 12.5t-12.5 28.5t11 30q3 4 14 15q4 4 9 9.5t11 12.5q-17 5 -28 24t-11 39q0 34 24.5 58t58.5 24t58 -25zM613.5 449.5q48.5 -61.5 48.5 -181.5l-1 -226q0 -21 -20.5 -32t-50.5 -11
q-29 0 -51.5 10t-22.5 28l1 232q0 73 -16 102t-50 29q-29 0 -46 -26t-29 -101q-7 -42 -7 -93l1 -129q0 -26 -19.5 -39.5t-52.5 -13.5q-34 0 -53.5 14t-19.5 39q0 208 -6 324q-1 12 -5.5 22.5t-10.5 19.5t-9 14q-6 11 -6 22q0 21 24.5 39.5t47.5 18.5q11 0 21.5 -7t23.5 -23
q11 -14 16 -25t5 -25v-9q18 38 54.5 63.5t96.5 25.5q88 0 136.5 -61.5z" />
    <glyph glyph-name="Eng" unicode="&#x14a;" horiz-adv-x="759" 
d="M687 465v-36q1 -3 1 -9l-4 -423q-3 -143 -57.5 -202t-151.5 -59q-46 0 -86.5 20.5t-64.5 56t-24 78.5q0 34 21.5 52t56.5 18q31 0 49 -16.5t18 -40.5q0 -28 9.5 -42t26.5 -14q27 0 43.5 41t16.5 109v18q-39 14 -81.5 68t-125.5 188l-118 191q1 -37 1 -138l1 -255
q0 -26 -20.5 -44t-52.5 -18t-52.5 17.5t-20.5 44.5v261l-1 109q-1 28 -1 79q0 74 6.5 114t24.5 57.5t54 17.5q35 0 63.5 -21t67 -75t115.5 -177q89 -141 123 -200l18 -30v6v159l1 283q0 27 18 44.5t56 17.5q37 0 54.5 -19t17.5 -59q0 -50 -2 -172z" />
    <glyph glyph-name="eng" unicode="&#x14b;" horiz-adv-x="596" 
d="M526 136q0 -89 -12.5 -149.5t-53.5 -99.5t-123 -39q-33 0 -52 15t-19 41q0 56 61 56q27 0 38 36.5t11 125.5l-1 131q0 79 -16.5 113.5t-46.5 34.5q-18 0 -30 -10.5t-22.5 -40.5t-24.5 -90q-5 -22 -6 -46t-1 -49l1 -121q0 -25 -21 -41.5t-51 -16.5q-33 0 -53 16.5
t-20 43.5l-10 330q0 12 -7.5 22t-7.5 11q-9 13 -9 29q0 24 19.5 39t50.5 15q16 0 25 -4.5t16 -14.5t15 -24l10 -19q44 82 128 82q102 0 156.5 -66t54.5 -190z" />
    <glyph glyph-name="Omacron" unicode="&#x14c;" horiz-adv-x="812" 
d="M199.5 792.5q-12.5 16.5 -12.5 40.5t13.5 38t36.5 18q58 9 166 15q54 2 79 2l68 -1q26 0 41.5 -17.5t15.5 -42.5q0 -23 -15 -37t-41 -14l-43 1q-39 3 -87 3q-54 0 -97.5 -5t-90.5 -13q-21 -4 -33.5 12.5zM215 47.5q-79 41.5 -122 118t-43 180.5q0 105 44 187.5t122.5 129
t179.5 46.5q104 0 187.5 -48.5t131 -132.5t47.5 -186q0 -101 -46.5 -177t-128.5 -117.5t-188 -41.5q-105 0 -184 41.5zM513 160q48 24 76 72t28 116q0 67 -26.5 119.5t-75.5 82t-113 29.5t-110.5 -29.5t-71.5 -81t-25 -117.5q0 -104 58.5 -159.5t151.5 -55.5q60 0 108 24z
" />
    <glyph glyph-name="omacron" unicode="&#x14d;" horiz-adv-x="607" 
d="M102.5 592.5q-12.5 16.5 -12.5 40.5t13.5 38t36.5 18q58 9 166 15q54 2 79 2l68 -1q26 0 41.5 -17.5t15.5 -42.5q0 -23 -15 -37t-41 -14l-43 1q-39 3 -87 3q-54 0 -97.5 -5t-90.5 -13q-21 -4 -33.5 12.5zM104.5 63.5q-74.5 66.5 -74.5 186.5q0 78 33 139t93.5 95
t142.5 34q83 0 146 -35t97.5 -97.5t34.5 -142.5q0 -117 -73 -181.5t-198 -64.5q-127 0 -201.5 66.5zM398.5 142.5q33.5 34.5 33.5 102.5q0 67 -32.5 114.5t-95.5 47.5q-59 0 -94 -43t-35 -115q0 -70 34 -105.5t95 -35.5t94.5 34.5z" />
    <glyph glyph-name="Obreve" unicode="&#x14e;" horiz-adv-x="812" 
d="M309 769q-42 20 -66 55.5t-24 79.5q0 20 16 36t37 16q18 0 32.5 -8.5t16.5 -23.5q12 -83 80 -83q29 0 50.5 20t22.5 59q1 19 16 29t35 10q22 0 37.5 -15.5t15.5 -36.5q0 -44 -24 -80t-64.5 -57t-87.5 -21q-51 0 -93 20zM215 47.5q-79 41.5 -122 118t-43 180.5
q0 105 44 187.5t122.5 129t179.5 46.5q104 0 187.5 -48.5t131 -132.5t47.5 -186q0 -101 -46.5 -177t-128.5 -117.5t-188 -41.5q-105 0 -184 41.5zM513 160q48 24 76 72t28 116q0 67 -26.5 119.5t-75.5 82t-113 29.5t-110.5 -29.5t-71.5 -81t-25 -117.5q0 -104 58.5 -159.5
t151.5 -55.5q60 0 108 24z" />
    <glyph glyph-name="obreve" unicode="&#x14f;" horiz-adv-x="607" 
d="M212 569q-42 20 -66 55.5t-24 79.5q0 20 16 36t37 16q18 0 32.5 -8.5t16.5 -23.5q12 -83 80 -83q29 0 50.5 20t22.5 59q1 19 16 29t35 10q22 0 37.5 -15.5t15.5 -36.5q0 -44 -24 -80t-64.5 -57t-87.5 -21q-51 0 -93 20zM104.5 63.5q-74.5 66.5 -74.5 186.5q0 78 33 139
t93.5 95t142.5 34q83 0 146 -35t97.5 -97.5t34.5 -142.5q0 -117 -73 -181.5t-198 -64.5q-127 0 -201.5 66.5zM398.5 142.5q33.5 34.5 33.5 102.5q0 67 -32.5 114.5t-95.5 47.5q-59 0 -94 -43t-35 -115q0 -70 34 -105.5t95 -35.5t94.5 34.5z" />
    <glyph glyph-name="Ohungarumlaut" unicode="&#x150;" horiz-adv-x="812" 
d="M220 764.5q-14 14.5 -14 35.5q0 11 5.5 23.5t13.5 22.5l72 85q28 32 56 32q22 0 37 -15t15 -38q0 -25 -23 -50l-80 -87q-20 -23 -47 -23q-21 0 -35 14.5zM450 764.5q-14 14.5 -14 35.5q0 11 5.5 23.5t13.5 22.5l72 85q28 32 56 32q22 0 37 -15t15 -38q0 -25 -23 -50
l-79 -86q-21 -24 -48 -24q-21 0 -35 14.5zM215 47.5q-79 41.5 -122 118t-43 180.5q0 105 44 187.5t122.5 129t179.5 46.5q104 0 187.5 -48.5t131 -132.5t47.5 -186q0 -101 -46.5 -177t-128.5 -117.5t-188 -41.5q-105 0 -184 41.5zM513 160q48 24 76 72t28 116
q0 67 -26.5 119.5t-75.5 82t-113 29.5t-110.5 -29.5t-71.5 -81t-25 -117.5q0 -104 58.5 -159.5t151.5 -55.5q60 0 108 24z" />
    <glyph glyph-name="ohungarumlaut" unicode="&#x151;" horiz-adv-x="607" 
d="M123 564.5q-14 14.5 -14 35.5q0 11 5.5 23.5t13.5 22.5l72 85q28 32 56 32q22 0 37 -15t15 -38q0 -25 -23 -50l-80 -87q-20 -23 -47 -23q-21 0 -35 14.5zM353 564.5q-14 14.5 -14 35.5q0 11 5.5 23.5t13.5 22.5l72 85q28 32 56 32q22 0 37 -15t15 -38q0 -25 -23 -50
l-79 -86q-21 -24 -48 -24q-21 0 -35 14.5zM104.5 63.5q-74.5 66.5 -74.5 186.5q0 78 33 139t93.5 95t142.5 34q83 0 146 -35t97.5 -97.5t34.5 -142.5q0 -117 -73 -181.5t-198 -64.5q-127 0 -201.5 66.5zM398.5 142.5q33.5 34.5 33.5 102.5q0 67 -32.5 114.5t-95.5 47.5
q-59 0 -94 -43t-35 -115q0 -70 34 -105.5t95 -35.5t94.5 34.5z" />
    <glyph glyph-name="OE" unicode="&#x152;" horiz-adv-x="1018" 
d="M960.5 106.5q11.5 -15.5 11.5 -36.5q0 -24 -11 -36t-28 -15q-38 -5 -125 -5l-76 -1q-54 -2 -83 -2q-38 0 -58 1q-33 1 -46.5 12t-13.5 31t14.5 34.5t33.5 14.5v41q-27 -52 -89 -93.5t-159 -41.5q-79 0 -143 39t-101 116t-37 186q0 115 37.5 196t102.5 121.5t147 40.5
q101 0 166.5 -51t86.5 -126l2 36v22q-13 0 -21 13t-8 36q0 51 51 51l45 2q74 4 134 4q59 0 151 -4q17 -1 25.5 -18t8.5 -46q0 -24 -14.5 -35t-33.5 -11q-25 0 -40 1l-63 1q-72 0 -109 -2q2 -61 2 -95q0 -21 -1 -34l-1 -47q33 0 54 1l74 1q31 0 48.5 -15t17.5 -45
q0 -27 -14.5 -43.5t-42.5 -16.5q-36 0 -144 -2l-3 -123l-2 -49q7 -1 30 -1l73 1q29 0 74 5q8 1 20.5 2t23.5 1q22 0 33.5 -15.5zM455 160.5q41 30.5 64.5 85.5t23.5 127q0 66 -26.5 117.5t-70 80.5t-92.5 29q-42 0 -80.5 -30.5t-62 -85.5t-23.5 -125q0 -109 40.5 -169
t132.5 -60q53 0 94 30.5z" />
    <glyph glyph-name="oe" unicode="&#x153;" horiz-adv-x="998" 
d="M920 178q18 -18 18 -38q0 -13 -7 -25q-33 -56 -89.5 -87t-129.5 -31q-64 0 -117.5 29t-85.5 78q-30 -50 -84.5 -78.5t-125.5 -28.5q-79 0 -140 30.5t-95 85.5t-34 127q0 131 73 204.5t202 73.5q70 0 122 -31.5t81 -87.5q32 53 86.5 85t117.5 32q69 0 125.5 -26t88.5 -74
t32 -111q0 -43 -20 -63t-63 -20l-298 -7v-10q-1 -22 15 -44.5t45.5 -37.5t66.5 -15q43 0 72.5 15.5t58.5 44.5q28 28 49 28q18 0 36 -18zM399.5 142.5q31.5 34.5 31.5 111.5q0 69 -35 111t-91 42q-64 0 -97 -42t-33 -125q0 -60 34 -96t90 -36q69 0 100.5 34.5zM641.5 381
q-33.5 -24 -50.5 -60l229 6v7q0 33 -29 52t-80 19q-36 0 -69.5 -24z" />
    <glyph glyph-name="Racute" unicode="&#x154;" horiz-adv-x="692" 
d="M273 764.5q-14 14.5 -14 35.5q0 12 5 25t14 21l93 85q19 18 30.5 25t25.5 7q22 0 37 -15t15 -38q0 -15 -6.5 -28t-16.5 -22l-100 -86q-14 -13 -25 -18.5t-23 -5.5q-21 0 -35 14.5zM620.5 109q9.5 -12 9.5 -32q0 -29 -18.5 -48.5t-47.5 -19.5q-15 0 -31 5t-26 12l-257 159
v-127q0 -29 -18 -47t-52 -18q-37 0 -56 20t-19 55q0 144 -3 322l-2 101l-7 -2q-6 -2 -9 -2q-42 0 -42 72q0 23 15 39t42 31v9q0 66 87 66q29 0 41 -5.5t13 -12.5q0 -3 1 -4q71 20 106 20q90 0 156.5 -28t102.5 -78.5t36 -115.5q0 -99 -80.5 -154t-208.5 -57l240 -138
q18 -10 27.5 -22zM248 551q2 -46 2 -161v-7q28 -4 85 -4q67 0 105 26t38 72q0 43 -34 68.5t-95 25.5q-47 0 -101 -20z" />
    <glyph glyph-name="racute" unicode="&#x155;" horiz-adv-x="521" 
d="M197 564.5q-14 14.5 -14 35.5q0 12 5 25t14 21l93 85q19 18 30.5 25t25.5 7q22 0 37 -15t15 -38q0 -15 -6.5 -28t-16.5 -22l-100 -86q-14 -13 -25 -18.5t-23 -5.5q-21 0 -35 14.5zM411 500.5q34 -18.5 54 -52.5t20 -79q0 -65 -42.5 -100.5t-109.5 -35.5q-35 0 -49 10.5
t-14 35.5q0 24 10 33.5t28 11.5q59 6 59 49q0 18 -8.5 27.5t-23.5 9.5q-27 0 -50 -30.5t-38 -71t-19 -68.5q-7 -44 -7 -156q0 -54 -15.5 -73.5t-54.5 -19.5q-36 0 -54.5 14t-19.5 43v46v116q0 64 -3 108.5t-10 114.5l-4 41q-2 25 16.5 41t51.5 16q56 0 60 -50q2 -24 4 -68
q20 47 56.5 76.5t88.5 29.5q40 0 74 -18.5z" />
    <glyph glyph-name="uni0156" unicode="&#x156;" horiz-adv-x="692" 
d="M419 -84q24 -24 24 -58q0 -39 -25.5 -80.5t-69.5 -79.5q-14 -11 -33 -11t-32 11.5t-13 29.5q0 15 8 25l16 18l25 28q-18 6 -29.5 22.5t-11.5 36.5q0 34 24.5 58t58.5 24t58 -24zM620.5 109q9.5 -12 9.5 -32q0 -29 -18.5 -48.5t-47.5 -19.5q-15 0 -31 5t-26 12l-257 159
v-127q0 -29 -18 -47t-52 -18q-37 0 -56 20t-19 55q0 144 -3 322l-2 101l-7 -2q-6 -2 -9 -2q-42 0 -42 72q0 23 15 39t42 31v9q0 66 87 66q29 0 41 -5.5t13 -12.5q0 -3 1 -4q71 20 106 20q90 0 156.5 -28t102.5 -78.5t36 -115.5q0 -99 -80.5 -154t-208.5 -57l240 -138
q18 -10 27.5 -22zM248 551q2 -46 2 -161v-7q28 -4 85 -4q67 0 105 26t38 72q0 43 -34 68.5t-95 25.5q-47 0 -101 -20z" />
    <glyph glyph-name="uni0157" unicode="&#x157;" horiz-adv-x="521" 
d="M215 -84q24 -24 24 -58q0 -39 -25.5 -80.5t-69.5 -79.5q-14 -11 -33 -11t-32 11.5t-13 29.5q0 15 8 25l16 18l25 28q-18 6 -29.5 22.5t-11.5 36.5q0 34 24.5 58t58.5 24t58 -24zM411 500.5q34 -18.5 54 -52.5t20 -79q0 -65 -42.5 -100.5t-109.5 -35.5q-35 0 -49 10.5
t-14 35.5q0 24 10 33.5t28 11.5q59 6 59 49q0 18 -8.5 27.5t-23.5 9.5q-27 0 -50 -30.5t-38 -71t-19 -68.5q-7 -44 -7 -156q0 -54 -15.5 -73.5t-54.5 -19.5q-36 0 -54.5 14t-19.5 43v46v116q0 64 -3 108.5t-10 114.5l-4 41q-2 25 16.5 41t51.5 16q56 0 60 -50q2 -24 4 -68
q20 47 56.5 76.5t88.5 29.5q40 0 74 -18.5z" />
    <glyph glyph-name="Rcaron" unicode="&#x158;" horiz-adv-x="692" 
d="M506.5 959q14.5 -15 14.5 -37q0 -17 -15 -37l-17 -23q-32 -44 -51 -65.5t-41 -34.5t-50 -13q-23 0 -51.5 21.5t-49 44t-56.5 64.5q-15 18 -15 38q0 21 16 36.5t38 15.5q13 0 23.5 -6t24.5 -21q22 -24 43 -48q26 -31 32 -31q4 0 16.5 16.5t15.5 20.5l41 53q17 21 46 21
q21 0 35.5 -15zM620.5 109q9.5 -12 9.5 -32q0 -29 -18.5 -48.5t-47.5 -19.5q-15 0 -31 5t-26 12l-257 159v-127q0 -29 -18 -47t-52 -18q-37 0 -56 20t-19 55q0 144 -3 322l-2 101l-7 -2q-6 -2 -9 -2q-42 0 -42 72q0 23 15 39t42 31v9q0 66 87 66q29 0 41 -5.5t13 -12.5
q0 -3 1 -4q71 20 106 20q90 0 156.5 -28t102.5 -78.5t36 -115.5q0 -99 -80.5 -154t-208.5 -57l240 -138q18 -10 27.5 -22zM248 551q2 -46 2 -161v-7q28 -4 85 -4q67 0 105 26t38 72q0 43 -34 68.5t-95 25.5q-47 0 -101 -20z" />
    <glyph glyph-name="rcaron" unicode="&#x159;" horiz-adv-x="521" 
d="M430.5 759q14.5 -15 14.5 -37q0 -17 -15 -37l-17 -23q-32 -44 -51 -65.5t-41 -34.5t-50 -13q-23 0 -51.5 21.5t-49 44t-56.5 64.5q-15 18 -15 38q0 21 16 36.5t38 15.5q13 0 23.5 -6t24.5 -21q22 -24 43 -48q26 -31 32 -31q4 0 16.5 16.5t15.5 20.5l41 53q17 21 46 21
q21 0 35.5 -15zM411 500.5q34 -18.5 54 -52.5t20 -79q0 -65 -42.5 -100.5t-109.5 -35.5q-35 0 -49 10.5t-14 35.5q0 24 10 33.5t28 11.5q59 6 59 49q0 18 -8.5 27.5t-23.5 9.5q-27 0 -50 -30.5t-38 -71t-19 -68.5q-7 -44 -7 -156q0 -54 -15.5 -73.5t-54.5 -19.5
q-36 0 -54.5 14t-19.5 43v46v116q0 64 -3 108.5t-10 114.5l-4 41q-2 25 16.5 41t51.5 16q56 0 60 -50q2 -24 4 -68q20 47 56.5 76.5t88.5 29.5q40 0 74 -18.5z" />
    <glyph glyph-name="Sacute" unicode="&#x15a;" horiz-adv-x="626" 
d="M240 764.5q-14 14.5 -14 35.5q0 12 5 25t14 21l93 85q19 18 30.5 25t25.5 7q22 0 37 -15t15 -38q0 -15 -6.5 -28t-16.5 -22l-100 -86q-14 -13 -25 -18.5t-23 -5.5q-21 0 -35 14.5zM188.5 30.5q-59.5 31.5 -93 83t-33.5 110.5q0 38 19.5 55t50.5 17q73 0 76 -61
q3 -51 37 -78.5t78 -27.5q38 0 68 17t30 50q0 26 -19 43.5t-44.5 27t-70.5 22.5q-58 16 -103 35t-84.5 61.5t-39.5 109.5q0 61 33.5 110t90.5 76.5t125 27.5q71 0 128.5 -29.5t90.5 -78.5t33 -103q0 -66 -72 -66q-31 0 -46.5 15t-24.5 49t-36.5 59t-72.5 25q-44 0 -74 -23.5
t-30 -63.5q0 -28 22.5 -41t86.5 -32q6 -2 14 -4.5t17 -5.5q55 -17 101 -39t83 -65t37 -107q0 -58 -32.5 -103.5t-88 -71t-122.5 -25.5q-75 0 -134.5 31.5z" />
    <glyph glyph-name="sacute" unicode="&#x15b;" horiz-adv-x="504" 
d="M128 23.5q-54 32.5 -77 86.5q-6 15 -6 25q0 21 22 40t48 19q15 0 24 -6.5t14 -12t6 -7.5q29 -34 48 -48t46 -14q25 0 43 10.5t18 29.5q0 21 -21 33t-68 27q-52 18 -84.5 34t-57 47.5t-24.5 80.5t28 84.5t74.5 54.5t100.5 19q58 0 100.5 -21.5t64.5 -57t22 -75.5
q0 -27 -15 -41t-50 -14q-31 0 -42.5 10t-14.5 28q-3 25 -15.5 40t-49.5 15q-28 0 -43.5 -10t-15.5 -28q0 -22 21.5 -34t69.5 -26q51 -16 84 -31.5t57 -46t24 -80.5q0 -57 -32 -94t-80 -53t-96 -16q-69 0 -123 32.5zM176 572.5q-14 11.5 -17 28.5q-1 4 -1 12q0 23 15 41
l87 106q14 17 27.5 24.5t30.5 7.5q23 0 39 -16t16 -39q0 -29 -26 -56l-89 -94q-13 -15 -24 -20.5t-26 -5.5q-18 0 -32 11.5z" />
    <glyph glyph-name="Scircumflex" unicode="&#x15c;" horiz-adv-x="626" 
d="M392 771l-41 53q-3 4 -15.5 20.5t-16.5 16.5q-6 0 -32 -31q-21 -24 -43 -48q-14 -15 -24.5 -21t-23.5 -6q-22 0 -38 15.5t-16 36.5q0 23 15 38l29 31q40 46 71 72.5t57 26.5q30 0 49.5 -16t52.5 -55q5 -6 22 -26.5t35 -38.5q15 -15 15 -37t-14.5 -37t-35.5 -15
q-29 0 -46 21zM188.5 30.5q-59.5 31.5 -93 83t-33.5 110.5q0 38 19.5 55t50.5 17q73 0 76 -61q3 -51 37 -78.5t78 -27.5q38 0 68 17t30 50q0 26 -19 43.5t-44.5 27t-70.5 22.5q-58 16 -103 35t-84.5 61.5t-39.5 109.5q0 61 33.5 110t90.5 76.5t125 27.5q71 0 128.5 -29.5
t90.5 -78.5t33 -103q0 -66 -72 -66q-31 0 -46.5 15t-24.5 49t-36.5 59t-72.5 25q-44 0 -74 -23.5t-30 -63.5q0 -28 22.5 -41t86.5 -32q6 -2 14 -4.5t17 -5.5q55 -17 101 -39t83 -65t37 -107q0 -58 -32.5 -103.5t-88 -71t-122.5 -25.5q-75 0 -134.5 31.5z" />
    <glyph glyph-name="scircumflex" unicode="&#x15d;" horiz-adv-x="504" 
d="M330 571l-41 53q-3 4 -15.5 20.5t-16.5 16.5q-6 0 -32 -31q-21 -24 -43 -48q-14 -15 -24.5 -21t-23.5 -6q-22 0 -38 15.5t-16 36.5q0 23 15 38l29 31q40 46 71 72.5t57 26.5q30 0 49.5 -16t52.5 -55q5 -6 22 -26.5t35 -38.5q15 -15 15 -37t-14.5 -37t-35.5 -15
q-29 0 -46 21zM128 23.5q-54 32.5 -77 86.5q-6 15 -6 25q0 21 22 40t48 19q15 0 24 -6.5t14 -12t6 -7.5q29 -34 48 -48t46 -14q25 0 43 10.5t18 29.5q0 21 -21 33t-68 27q-52 18 -84.5 34t-57 47.5t-24.5 80.5t28 84.5t74.5 54.5t100.5 19q58 0 100.5 -21.5t64.5 -57
t22 -75.5q0 -27 -15 -41t-50 -14q-31 0 -42.5 10t-14.5 28q-3 25 -15.5 40t-49.5 15q-28 0 -43.5 -10t-15.5 -28q0 -22 21.5 -34t69.5 -26q51 -16 84 -31.5t57 -46t24 -80.5q0 -57 -32 -94t-80 -53t-96 -16q-69 0 -123 32.5z" />
    <glyph glyph-name="Scedilla" unicode="&#x15e;" horiz-adv-x="626" 
d="M538.5 103q-27.5 -43 -75.5 -69.5t-107 -32.5l-40 -58q31 -7 57 -25t26 -53q0 -39 -31 -66.5t-92 -27.5q-42 0 -77 15q-18 8 -26.5 15.5t-8.5 19.5q0 38 37 38q16 0 29 -4q34 -10 50 -10q20 0 29 6t9 15q0 20 -53 28q-20 3 -31.5 15t-11.5 29q0 8 3 17l33 51
q-58 12 -102.5 44.5t-69 78t-24.5 95.5q0 38 19.5 55t50.5 17q73 0 76 -61q3 -51 37 -78.5t78 -27.5q38 0 68 17t30 50q0 26 -19 43.5t-44.5 27t-70.5 22.5q-58 16 -103 35t-84.5 61.5t-39.5 109.5q0 61 33.5 110t90.5 76.5t125 27.5q71 0 128.5 -29.5t90.5 -78.5t33 -103
q0 -66 -72 -66q-31 0 -46.5 15t-24.5 49t-36.5 59t-72.5 25q-44 0 -74 -23.5t-30 -63.5q0 -28 22.5 -41t86.5 -32q6 -2 14 -4.5t17 -5.5q55 -17 101 -39t83 -65t37 -107q0 -53 -27.5 -96z" />
    <glyph glyph-name="scedilla" unicode="&#x15f;" horiz-adv-x="504" 
d="M295 -7l-29 -51q47 -11 71.5 -35t24.5 -70q0 -54 -39.5 -81.5t-101.5 -27.5q-27 0 -52.5 5t-41.5 11q-17 7 -27.5 20t-10.5 28q0 17 12 29t30 12q8 0 12 -1q7 -2 31 -9t45 -7q43 0 43 32q0 15 -13 21t-56 12q-19 3 -29 14t-10 26q0 14 7 25l31 52q-50 11 -87 40.5
t-54 71.5q-6 15 -6 25q0 21 22 40t48 19q15 0 24 -6.5t14 -12t6 -7.5q29 -34 48 -48t46 -14q25 0 43 10.5t18 29.5q0 21 -21 33t-68 27q-52 18 -84.5 34t-57 47.5t-24.5 80.5t28 84.5t74.5 54.5t100.5 19q58 0 100.5 -21.5t64.5 -57t22 -75.5q0 -27 -15 -41t-50 -14
q-31 0 -42.5 10t-14.5 28q-3 25 -15.5 40t-49.5 15q-28 0 -43.5 -10t-15.5 -28q0 -22 21.5 -34t69.5 -26q51 -16 84 -31.5t57 -46t24 -80.5q0 -71 -47.5 -110.5t-115.5 -49.5z" />
    <glyph glyph-name="Scaron" unicode="&#x160;" horiz-adv-x="626" 
d="M473.5 959q14.5 -15 14.5 -37q0 -17 -15 -37l-17 -23q-32 -44 -51 -65.5t-41 -34.5t-50 -13q-23 0 -51.5 21.5t-49 44t-56.5 64.5q-15 18 -15 38q0 21 16 36.5t38 15.5q13 0 23.5 -6t24.5 -21q22 -24 43 -48q26 -31 32 -31q4 0 16.5 16.5t15.5 20.5l41 53q17 21 46 21
q21 0 35.5 -15zM188.5 30.5q-59.5 31.5 -93 83t-33.5 110.5q0 38 19.5 55t50.5 17q73 0 76 -61q3 -51 37 -78.5t78 -27.5q38 0 68 17t30 50q0 26 -19 43.5t-44.5 27t-70.5 22.5q-58 16 -103 35t-84.5 61.5t-39.5 109.5q0 61 33.5 110t90.5 76.5t125 27.5q71 0 128.5 -29.5
t90.5 -78.5t33 -103q0 -66 -72 -66q-31 0 -46.5 15t-24.5 49t-36.5 59t-72.5 25q-44 0 -74 -23.5t-30 -63.5q0 -28 22.5 -41t86.5 -32q6 -2 14 -4.5t17 -5.5q55 -17 101 -39t83 -65t37 -107q0 -58 -32.5 -103.5t-88 -71t-122.5 -25.5q-75 0 -134.5 31.5z" />
    <glyph glyph-name="scaron" unicode="&#x161;" horiz-adv-x="504" 
d="M411.5 759q14.5 -15 14.5 -37q0 -17 -15 -37l-17 -23q-32 -44 -51 -65.5t-41 -34.5t-50 -13q-23 0 -51.5 21.5t-49 44t-56.5 64.5q-15 18 -15 38q0 21 16 36.5t38 15.5q13 0 23.5 -6t24.5 -21q22 -24 43 -48q26 -31 32 -31q4 0 16.5 16.5t15.5 20.5l41 53q17 21 46 21
q21 0 35.5 -15zM128 23.5q-54 32.5 -77 86.5q-6 15 -6 25q0 21 22 40t48 19q15 0 24 -6.5t14 -12t6 -7.5q29 -34 48 -48t46 -14q25 0 43 10.5t18 29.5q0 21 -21 33t-68 27q-52 18 -84.5 34t-57 47.5t-24.5 80.5t28 84.5t74.5 54.5t100.5 19q58 0 100.5 -21.5t64.5 -57
t22 -75.5q0 -27 -15 -41t-50 -14q-31 0 -42.5 10t-14.5 28q-3 25 -15.5 40t-49.5 15q-28 0 -43.5 -10t-15.5 -28q0 -22 21.5 -34t69.5 -26q51 -16 84 -31.5t57 -46t24 -80.5q0 -57 -32 -94t-80 -53t-96 -16q-69 0 -123 32.5z" />
    <glyph glyph-name="uni0162" unicode="&#x162;" horiz-adv-x="591" 
d="M544 674.5q17 -14.5 17 -48.5q0 -35 -19.5 -51t-55.5 -14q-72 5 -118 5q-8 -113 -11 -226q-3 -112 -3 -284q0 -30 -9 -45t-33 -19l-34 -49q31 -7 57 -25t26 -53q0 -39 -31 -66.5t-92 -27.5q-42 0 -77 15q-18 8 -26.5 15.5t-8.5 19.5q0 38 37 38q16 0 29 -4q34 -10 50 -10
q20 0 29 6t9 15q0 20 -53 28q-20 3 -31.5 15t-11.5 29q0 8 3 17l33 52q-17 15 -17 48q0 146 7 285l12 225q-44 -2 -71 -4l-44 -3q-4 -1 -12 -1q-29 0 -47 19t-18 50q0 29 15.5 43t43.5 18q36 5 101 8t120 3q45 0 102.5 -1.5t84.5 -4.5q30 -3 47 -17.5z" />
    <glyph glyph-name="uni0163" unicode="&#x163;" horiz-adv-x="444" 
d="M297 -7l-29 -51q47 -11 71.5 -35t24.5 -70q0 -54 -39.5 -81.5t-101.5 -27.5q-27 0 -52.5 5t-41.5 11q-17 7 -27.5 20t-10.5 28q0 17 12 29t30 12q8 0 12 -1q7 -2 31 -9t45 -7q43 0 43 32q0 15 -13 21t-56 12q-19 3 -29 14t-10 26q0 14 7 25l39 64q-53 22 -78 91t-25 191
q0 46 1 67q-7 1 -23 1q-57 1 -57 55q0 28 14.5 42t51.5 13l22 -1q7 62 23 152q4 24 22.5 36.5t47.5 12.5q34 0 53 -16t19 -39l-1 -8l-5 -32q-12 -82 -16 -112q34 -2 52 -2q51 -1 51 -53q0 -26 -14 -39t-47 -13h-50q-1 -20 -1 -64q0 -74 3.5 -113.5t10.5 -53.5t18 -14
q14 0 18 9t4 32q0 47 55 47q33 0 48 -13t15 -42q0 -57 -31 -94.5t-82 -47.5q-2 -6 -4 -9z" />
    <glyph glyph-name="Tcaron" unicode="&#x164;" horiz-adv-x="591" 
d="M435.5 959q14.5 -15 14.5 -37q0 -17 -15 -37l-17 -23q-32 -44 -51 -65.5t-41 -34.5t-50 -13q-23 0 -51.5 21.5t-49 44t-56.5 64.5q-15 18 -15 38q0 21 16 36.5t38 15.5q13 0 23.5 -6t24.5 -21q22 -24 43 -48q26 -31 32 -31q4 0 16.5 16.5t15.5 20.5l41 53q17 21 46 21
q21 0 35.5 -15zM544 674.5q17 -14.5 17 -48.5q0 -35 -19.5 -51t-55.5 -14q-72 5 -118 5q-8 -113 -11 -226q-3 -112 -3 -284q0 -37 -14.5 -51.5t-55.5 -14.5q-43 0 -62 15t-19 50q0 146 7 285l12 225q-44 -2 -71 -4l-44 -3q-4 -1 -12 -1q-29 0 -47 19t-18 50q0 29 15.5 43
t43.5 18q36 5 101 8t120 3q45 0 102.5 -1.5t84.5 -4.5q30 -3 47 -17.5z" />
    <glyph glyph-name="tcaron" unicode="&#x165;" horiz-adv-x="551" 
d="M507 670q24 -25 24 -59q0 -39 -25 -80t-70 -78q-14 -11 -32 -11q-19 0 -31.5 12.5t-12.5 28.5t11 30q3 4 14 15q4 4 9 9.5t11 12.5q-17 5 -28 24t-11 39q0 34 24.5 58t58.5 24t58 -25zM399 186q15 -13 15 -42q0 -66 -42 -106t-106 -40q-87 0 -127 70.5t-40 223.5
q0 46 1 67q-7 1 -23 1q-57 1 -57 55q0 28 14.5 42t51.5 13l22 -1q7 62 23 152q4 24 22.5 36.5t47.5 12.5q34 0 53 -16t19 -39l-1 -8l-5 -32q-12 -82 -16 -112q34 -2 52 -2q51 -1 51 -53q0 -26 -14 -39t-47 -13h-50q-1 -20 -1 -64q0 -74 3.5 -113.5t10.5 -53.5t18 -14
q14 0 18 9t4 32q0 47 55 47q33 0 48 -13z" />
    <glyph glyph-name="Tbar" unicode="&#x166;" horiz-adv-x="591" 
d="M544 674.5q17 -14.5 17 -48.5q0 -35 -19.5 -51t-55.5 -14q-72 5 -118 5q-7 -95 -9 -154l69 -2q26 -1 41.5 -15.5t15.5 -38.5q0 -25 -16 -40.5t-41 -15.5l-72 3q-2 -95 -2 -247q0 -37 -14.5 -51.5t-55.5 -14.5q-43 0 -62 15t-19 50q0 127 5 253l-63 2q-23 1 -39 16.5
t-16 38.5t16.5 38.5t40.5 14.5l67 -2l8 149q-44 -2 -71 -4l-44 -3q-4 -1 -12 -1q-29 0 -47 19t-18 50q0 29 15.5 43t43.5 18q36 5 101 8t120 3q45 0 102.5 -1.5t84.5 -4.5q30 -3 47 -17.5z" />
    <glyph glyph-name="tbar" unicode="&#x167;" horiz-adv-x="451" 
d="M406 186q15 -13 15 -42q0 -66 -42 -106t-106 -40q-77 0 -116 56t-46 177h-27q-31 1 -44 13.5t-13 37.5q0 27 14.5 38.5t51.5 10.5l16 -1q2 56 4 84l-36 1q-30 1 -43.5 9.5t-13.5 31.5q0 27 15 39t51 10l33 -2q9 117 22 178q9 49 67 49q33 0 49 -15t16 -38q0 -7 -1 -10
q-14 -89 -21 -170l49 -1q30 -1 42 -11.5t12 -34.5q0 -23 -14.5 -32.5t-48.5 -9.5q-31 0 -48 1q-2 -26 -4 -84l68 -3q30 -1 42 -13.5t12 -36.5q0 -25 -14.5 -35.5t-48.5 -9.5l-57 1q7 -117 40 -117q14 0 18 9t4 32q0 47 55 47q33 0 48 -13z" />
    <glyph glyph-name="Utilde" unicode="&#x168;" horiz-adv-x="704" 
d="M160 823q0 19 14 36q28 34 52 48t55 14q24 0 50.5 -6.5t48.5 -18.5q5 -3 15.5 -8.5t17 -8t9.5 -2.5q6 0 14 8q13 13 21.5 18.5t20.5 5.5q20 0 37 -17t17 -38q0 -22 -16 -38q-24 -24 -46.5 -35t-47.5 -11q-21 0 -40 7t-32 13.5t-16 8.5q-4 2 -19.5 10t-24.5 8
q-6 0 -13.5 -6.5t-17.5 -17.5q-21 -23 -46 -23q-21 0 -36 15q-17 17 -17 38zM633 74q0 -42 -18 -60t-55 -18t-54.5 16.5t-17.5 54.5v20q-28 -38 -75.5 -62.5t-109.5 -24.5q-71 0 -124 33t-81 92.5t-28 136.5q0 124 5 344l1 35q1 28 20.5 45.5t54.5 17.5q34 0 52 -16t18 -47
q0 -67 -2 -175q-2 -116 -2 -204q0 -61 31.5 -96t75.5 -35q39 0 76.5 27.5t61.5 75t24 104.5v68q-1 56 -1 240q0 64 68 64q35 0 55 -16.5t20 -47.5q0 -59 2 -189v-29q3 -132 3 -354z" />
    <glyph glyph-name="utilde" unicode="&#x169;" horiz-adv-x="573" 
d="M82 623q0 19 14 36q28 34 52 48t55 14q24 0 50.5 -6.5t48.5 -18.5q5 -3 15.5 -8.5t17 -8t9.5 -2.5q6 0 14 8q13 13 21.5 18.5t20.5 5.5q20 0 37 -17t17 -38q0 -22 -16 -38q-24 -24 -46.5 -35t-47.5 -11q-21 0 -40 7t-32 13.5t-16 8.5q-4 2 -19.5 10t-24.5 8
q-6 0 -13.5 -6.5t-17.5 -17.5q-21 -23 -46 -23q-21 0 -36 15q-17 17 -17 38zM495 103q6 -20 13 -32t7 -14q0 -25 -18.5 -41.5t-49.5 -16.5q-19 0 -41.5 20.5t-29.5 45.5q-35 -67 -131 -67q-88 0 -136.5 62t-48.5 158v236q0 23 20.5 37.5t50.5 14.5t51.5 -14.5t21.5 -37.5
v-234q0 -43 15 -77t46 -34q39 0 57.5 35t18.5 123v185q0 27 19.5 43t51.5 16q33 0 53.5 -16t20.5 -43l3 -294q0 -35 6 -55z" />
    <glyph glyph-name="Umacron" unicode="&#x16a;" horiz-adv-x="704" 
d="M147.5 792.5q-12.5 16.5 -12.5 40.5t13.5 38t36.5 18q58 9 166 15q54 2 79 2l68 -1q26 0 41.5 -17.5t15.5 -42.5q0 -23 -15 -37t-41 -14l-43 1q-39 3 -87 3q-54 0 -97.5 -5t-90.5 -13q-21 -4 -33.5 12.5zM633 74q0 -42 -18 -60t-55 -18t-54.5 16.5t-17.5 54.5v20
q-28 -38 -75.5 -62.5t-109.5 -24.5q-71 0 -124 33t-81 92.5t-28 136.5q0 124 5 344l1 35q1 28 20.5 45.5t54.5 17.5q34 0 52 -16t18 -47q0 -67 -2 -175q-2 -116 -2 -204q0 -61 31.5 -96t75.5 -35q39 0 76.5 27.5t61.5 75t24 104.5v68q-1 56 -1 240q0 64 68 64q35 0 55 -16.5
t20 -47.5q0 -59 2 -189v-29q3 -132 3 -354z" />
    <glyph glyph-name="umacron" unicode="&#x16b;" horiz-adv-x="573" 
d="M69.5 592.5q-12.5 16.5 -12.5 40.5t13.5 38t36.5 18q58 9 166 15q54 2 79 2l68 -1q26 0 41.5 -17.5t15.5 -42.5q0 -23 -15 -37t-41 -14l-43 1q-39 3 -87 3q-54 0 -97.5 -5t-90.5 -13q-21 -4 -33.5 12.5zM495 103q6 -20 13 -32t7 -14q0 -25 -18.5 -41.5t-49.5 -16.5
q-19 0 -41.5 20.5t-29.5 45.5q-35 -67 -131 -67q-88 0 -136.5 62t-48.5 158v236q0 23 20.5 37.5t50.5 14.5t51.5 -14.5t21.5 -37.5v-234q0 -43 15 -77t46 -34q39 0 57.5 35t18.5 123v185q0 27 19.5 43t51.5 16q33 0 53.5 -16t20.5 -43l3 -294q0 -35 6 -55z" />
    <glyph glyph-name="Ubreve" unicode="&#x16c;" horiz-adv-x="704" 
d="M257 769q-42 20 -66 55.5t-24 79.5q0 20 16 36t37 16q18 0 32.5 -8.5t16.5 -23.5q12 -83 80 -83q29 0 50.5 20t22.5 59q1 19 16 29t35 10q22 0 37.5 -15.5t15.5 -36.5q0 -44 -24 -80t-64.5 -57t-87.5 -21q-51 0 -93 20zM633 74q0 -42 -18 -60t-55 -18t-54.5 16.5
t-17.5 54.5v20q-28 -38 -75.5 -62.5t-109.5 -24.5q-71 0 -124 33t-81 92.5t-28 136.5q0 124 5 344l1 35q1 28 20.5 45.5t54.5 17.5q34 0 52 -16t18 -47q0 -67 -2 -175q-2 -116 -2 -204q0 -61 31.5 -96t75.5 -35q39 0 76.5 27.5t61.5 75t24 104.5v68q-1 56 -1 240q0 64 68 64
q35 0 55 -16.5t20 -47.5q0 -59 2 -189v-29q3 -132 3 -354z" />
    <glyph glyph-name="ubreve" unicode="&#x16d;" horiz-adv-x="573" 
d="M179 569q-42 20 -66 55.5t-24 79.5q0 20 16 36t37 16q18 0 32.5 -8.5t16.5 -23.5q12 -83 80 -83q29 0 50.5 20t22.5 59q1 19 16 29t35 10q22 0 37.5 -15.5t15.5 -36.5q0 -44 -24 -80t-64.5 -57t-87.5 -21q-51 0 -93 20zM495 103q6 -20 13 -32t7 -14q0 -25 -18.5 -41.5
t-49.5 -16.5q-19 0 -41.5 20.5t-29.5 45.5q-35 -67 -131 -67q-88 0 -136.5 62t-48.5 158v236q0 23 20.5 37.5t50.5 14.5t51.5 -14.5t21.5 -37.5v-234q0 -43 15 -77t46 -34q39 0 57.5 35t18.5 123v185q0 27 19.5 43t51.5 16q33 0 53.5 -16t20.5 -43l3 -294q0 -35 6 -55z" />
    <glyph glyph-name="Uring" unicode="&#x16e;" horiz-adv-x="704" 
d="M283.5 755q-30.5 18 -48.5 48.5t-18 66.5q0 35 18 65t49 47.5t68 17.5q36 0 66 -18.5t47 -48.5t17 -63q0 -57 -37.5 -95t-94.5 -38q-36 0 -66.5 18zM383 837q13 13 13 34q0 17 -13 30t-33 13q-19 0 -32.5 -12.5t-13.5 -30.5q0 -20 13 -33.5t33 -13.5t33 13zM633 74
q0 -42 -18 -60t-55 -18t-54.5 16.5t-17.5 54.5v20q-28 -38 -75.5 -62.5t-109.5 -24.5q-71 0 -124 33t-81 92.5t-28 136.5q0 124 5 344l1 35q1 28 20.5 45.5t54.5 17.5q34 0 52 -16t18 -47q0 -67 -2 -175q-2 -116 -2 -204q0 -61 31.5 -96t75.5 -35q39 0 76.5 27.5t61.5 75
t24 104.5v68q-1 56 -1 240q0 64 68 64q35 0 55 -16.5t20 -47.5q0 -59 2 -189v-29q3 -132 3 -354z" />
    <glyph glyph-name="uring" unicode="&#x16f;" horiz-adv-x="573" 
d="M205.5 555q-30.5 18 -48.5 48.5t-18 66.5q0 35 18 65t49 47.5t68 17.5q36 0 66 -18.5t47 -48.5t17 -63q0 -57 -37.5 -95t-94.5 -38q-36 0 -66.5 18zM305 637q13 13 13 34q0 17 -13 30t-33 13q-19 0 -32.5 -12.5t-13.5 -30.5q0 -20 13 -33.5t33 -13.5t33 13zM495 103
q6 -20 13 -32t7 -14q0 -25 -18.5 -41.5t-49.5 -16.5q-19 0 -41.5 20.5t-29.5 45.5q-35 -67 -131 -67q-88 0 -136.5 62t-48.5 158v236q0 23 20.5 37.5t50.5 14.5t51.5 -14.5t21.5 -37.5v-234q0 -43 15 -77t46 -34q39 0 57.5 35t18.5 123v185q0 27 19.5 43t51.5 16
q33 0 53.5 -16t20.5 -43l3 -294q0 -35 6 -55z" />
    <glyph glyph-name="Uhungarumlaut" unicode="&#x170;" horiz-adv-x="704" 
d="M168 764.5q-14 14.5 -14 35.5q0 11 5.5 23.5t13.5 22.5l72 85q28 32 56 32q22 0 37 -15t15 -38q0 -25 -23 -50l-80 -87q-20 -23 -47 -23q-21 0 -35 14.5zM398 764.5q-14 14.5 -14 35.5q0 11 5.5 23.5t13.5 22.5l72 85q28 32 56 32q22 0 37 -15t15 -38q0 -25 -23 -50
l-79 -86q-21 -24 -48 -24q-21 0 -35 14.5zM633 74q0 -42 -18 -60t-55 -18t-54.5 16.5t-17.5 54.5v20q-28 -38 -75.5 -62.5t-109.5 -24.5q-71 0 -124 33t-81 92.5t-28 136.5q0 124 5 344l1 35q1 28 20.5 45.5t54.5 17.5q34 0 52 -16t18 -47q0 -67 -2 -175q-2 -116 -2 -204
q0 -61 31.5 -96t75.5 -35q39 0 76.5 27.5t61.5 75t24 104.5v68q-1 56 -1 240q0 64 68 64q35 0 55 -16.5t20 -47.5q0 -59 2 -189v-29q3 -132 3 -354z" />
    <glyph glyph-name="uhungarumlaut" unicode="&#x171;" horiz-adv-x="573" 
d="M90 564.5q-14 14.5 -14 35.5q0 11 5.5 23.5t13.5 22.5l72 85q28 32 56 32q22 0 37 -15t15 -38q0 -25 -23 -50l-80 -87q-20 -23 -47 -23q-21 0 -35 14.5zM320 564.5q-14 14.5 -14 35.5q0 11 5.5 23.5t13.5 22.5l72 85q28 32 56 32q22 0 37 -15t15 -38q0 -25 -23 -50
l-79 -86q-21 -24 -48 -24q-21 0 -35 14.5zM495 103q6 -20 13 -32t7 -14q0 -25 -18.5 -41.5t-49.5 -16.5q-19 0 -41.5 20.5t-29.5 45.5q-35 -67 -131 -67q-88 0 -136.5 62t-48.5 158v236q0 23 20.5 37.5t50.5 14.5t51.5 -14.5t21.5 -37.5v-234q0 -43 15 -77t46 -34
q39 0 57.5 35t18.5 123v185q0 27 19.5 43t51.5 16q33 0 53.5 -16t20.5 -43l3 -294q0 -35 6 -55z" />
    <glyph glyph-name="Uogonek" unicode="&#x172;" horiz-adv-x="704" 
d="M654.5 -79.5q8.5 -10.5 8.5 -29.5q0 -28 -21 -44t-58 -16q-56 0 -88 27t-32 76q0 45 33 89q-9 17 -9 44v20q-28 -38 -75.5 -62.5t-109.5 -24.5q-71 0 -124 33t-81 92.5t-28 136.5q0 124 5 344l1 35q1 28 20.5 45.5t54.5 17.5q34 0 52 -16t18 -47q0 -67 -2 -175
q-2 -116 -2 -204q0 -61 31.5 -96t75.5 -35q39 0 76.5 27.5t61.5 75t24 104.5v68q-1 56 -1 240q0 64 68 64q35 0 55 -16.5t20 -47.5q0 -59 2 -189v-29q3 -132 3 -354q0 -11 -2 -25v-2q0 -21 -22 -40q-25 -21 -34.5 -35t-9.5 -26q0 -24 25 -24q5 0 21 4q13 5 22 5
q13 0 21.5 -10.5z" />
    <glyph glyph-name="uogonek" unicode="&#x173;" horiz-adv-x="573" 
d="M537.5 -72.5q8.5 -10.5 8.5 -29.5q0 -28 -21 -44t-58 -16q-56 0 -88 27t-32 76q0 51 41 98q-9 12 -12 26q-35 -67 -131 -67q-88 0 -136.5 62t-48.5 158v236q0 23 20.5 37.5t50.5 14.5t51.5 -14.5t21.5 -37.5v-234q0 -43 15 -77t46 -34q39 0 57.5 35t18.5 123v185
q0 27 19.5 43t51.5 16q33 0 53.5 -16t20.5 -43l3 -294q0 -47 16 -81q6 -8 8 -13q2 -6 2 -7q0 -34 -31 -50q-36 -32 -36 -54q0 -24 25 -24q5 0 21 4q13 5 22 5q13 0 21.5 -10.5z" />
    <glyph glyph-name="Wcircumflex" unicode="&#x174;" horiz-adv-x="852" 
d="M506 771l-41 53q-3 4 -15.5 20.5t-16.5 16.5q-6 0 -32 -31q-21 -24 -43 -48q-14 -15 -24.5 -21t-23.5 -6q-22 0 -38 15.5t-16 36.5q0 23 15 38l29 31q40 46 71 72.5t57 26.5q30 0 49.5 -16t52.5 -55q5 -6 22 -26.5t35 -38.5q15 -15 15 -37t-14.5 -37t-35.5 -15
q-29 0 -46 21zM220 16.5q-26 16.5 -32 41.5q-2 6 -18 80q-25 125 -59 236q-23 77 -38 136l-30 108q-3 11 -3 20q0 31 24 49.5t60 18.5q24 0 39.5 -10.5t21.5 -35.5q7 -30 13.5 -52.5t10.5 -39.5q25 -85 41 -161q5 -22 18 -91q9 -43 17 -79t11 -36t10.5 19t13 35.5l8.5 25.5
q4 14 21 62q14 37 22.5 55.5t22.5 32.5t34 14q28 0 46 -25t37 -79q49 -138 59 -138q6 0 23 108q4 20 8 43.5t9 50.5q26 134 54 254q11 46 67 46q35 0 58 -18t23 -46q0 -8 -3 -19q-22 -83 -46 -188l-14 -59q-16 -67 -32.5 -149t-21.5 -105l-11 -57q-6 -30 -29 -46t-59 -16
t-60.5 17t-44.5 54q-3 5 -29 60q-27 60 -31 60t-20 -47q-21 -56 -29 -72q-36 -74 -102 -74q-34 0 -60 16.5z" />
    <glyph glyph-name="wcircumflex" unicode="&#x175;" horiz-adv-x="770" 
d="M462 571l-41 53q-3 4 -15.5 20.5t-16.5 16.5q-6 0 -32 -31q-21 -24 -43 -48q-14 -15 -24.5 -21t-23.5 -6q-22 0 -38 15.5t-16 36.5q0 23 15 38l29 31q40 46 71 72.5t57 26.5q30 0 49.5 -16t52.5 -55q5 -6 22 -26.5t35 -38.5q15 -15 15 -37t-14.5 -37t-35.5 -15
q-29 0 -46 21zM173.5 41.5q-36.5 41.5 -63.5 127.5q-20 66 -35 153t-15 128q0 43 18.5 58t49.5 15q34 0 52 -12.5t21 -40.5q5 -52 11.5 -99.5t17.5 -107.5q17 -97 24 -97q5 0 16 38.5t29 114.5l12 50q8 34 25 52.5t46 18.5q28 0 46 -17.5t29 -54.5q59 -202 71 -202
q4 0 8 23.5t12 82.5q16 126 19 196q1 28 20 41.5t52 13.5q37 0 54 -19.5t17 -63.5q0 -40 -11.5 -119t-28.5 -146q-21 -80 -52.5 -127.5t-81.5 -47.5q-54 0 -90.5 63.5t-61.5 199.5q-18 -133 -48.5 -198t-83.5 -65q-42 0 -78.5 41.5z" />
    <glyph glyph-name="Ycircumflex" unicode="&#x176;" horiz-adv-x="655" 
d="M408 771l-41 53q-3 4 -15.5 20.5t-16.5 16.5q-6 0 -32 -31q-21 -24 -43 -48q-14 -15 -24.5 -21t-23.5 -6q-22 0 -38 15.5t-16 36.5q0 23 15 38l29 31q40 46 71 72.5t57 26.5q30 0 49.5 -16t52.5 -55q5 -6 22 -26.5t35 -38.5q15 -15 15 -37t-14.5 -37t-35.5 -15
q-29 0 -46 21zM277 19q-19 18 -19 49l-3 264q-14 0 -52.5 38.5t-60.5 71.5q-19 28 -44 77t-45 100q-3 8 -3 16q0 25 24.5 46t58.5 21q24 0 40 -12.5t29 -39.5q47 -97 75 -145q40 -66 54 -66q13 0 49 66l78 149q13 24 25.5 35t39.5 11q37 0 61 -16.5t24 -45.5q0 -10 -7 -29
q-9 -23 -39.5 -83.5t-48.5 -87.5q-24 -37 -61.5 -71.5t-51.5 -34.5l3 -261q0 -33 -18.5 -51.5t-53.5 -18.5t-54 18z" />
    <glyph glyph-name="ycircumflex" unicode="&#x177;" horiz-adv-x="542" 
d="M346 571l-41 53q-3 4 -15.5 20.5t-16.5 16.5q-6 0 -32 -31q-21 -24 -43 -48q-14 -15 -24.5 -21t-23.5 -6q-22 0 -38 15.5t-16 36.5q0 23 15 38l29 31q40 46 71 72.5t57 26.5q30 0 49.5 -16t52.5 -55q5 -6 22 -26.5t35 -38.5q15 -15 15 -37t-14.5 -37t-35.5 -15
q-29 0 -46 21zM181.5 -245.5q-21.5 18.5 -21.5 45.5q0 12 5 25l40 116l36 102q-48 35 -90 105.5t-70.5 149t-38.5 137.5q-2 10 -2 20q0 28 19 42t48 14t41.5 -11.5t16.5 -32.5q22 -101 55 -181.5t69 -105.5q15 47 29.5 103t19.5 76q21 83 29 113q6 22 19 31.5t38 9.5
q34 0 56 -15.5t22 -38.5q0 -7 -1 -11q-40 -162 -105 -369q-76 -245 -100 -301q-9 -20 -21 -31t-38 -11q-34 0 -55.5 18.5z" />
    <glyph glyph-name="Ydieresis" unicode="&#x178;" horiz-adv-x="655" 
d="M140 783.5q-23 23.5 -23 55.5q0 31 23 53.5t55 22.5q31 0 55 -23t24 -53q0 -31 -24 -55t-55 -24q-32 0 -55 23.5zM416 783.5q-23 23.5 -23 55.5q0 31 23 53.5t55 22.5q31 0 54.5 -23t23.5 -53q0 -32 -23.5 -55.5t-54.5 -23.5q-32 0 -55 23.5zM277 19q-19 18 -19 49
l-3 264q-14 0 -52.5 38.5t-60.5 71.5q-19 28 -44 77t-45 100q-3 8 -3 16q0 25 24.5 46t58.5 21q24 0 40 -12.5t29 -39.5q47 -97 75 -145q40 -66 54 -66q13 0 49 66l78 149q13 24 25.5 35t39.5 11q37 0 61 -16.5t24 -45.5q0 -10 -7 -29q-9 -23 -39.5 -83.5t-48.5 -87.5
q-24 -37 -61.5 -71.5t-51.5 -34.5l3 -261q0 -33 -18.5 -51.5t-53.5 -18.5t-54 18z" />
    <glyph glyph-name="Zacute" unicode="&#x179;" horiz-adv-x="710" 
d="M274 764.5q-14 14.5 -14 35.5q0 12 5 25t14 21l93 85q19 18 30.5 25t25.5 7q22 0 37 -15t15 -38q0 -15 -6.5 -28t-16.5 -22l-100 -86q-14 -13 -25 -18.5t-23 -5.5q-21 0 -35 14.5zM541 15q-125 10 -199 10q-46 0 -94 -3q-60 -2 -85 -2q-57 0 -90 8.5t-33 40.5
q0 31 34.5 73.5t124.5 136.5q66 66 121 126q75 81 153 159l-22 -2q-11 -1 -41.5 -3t-58.5 -2q-54 0 -116 5.5t-95 12.5q-68 15 -68 65q0 29 17 46.5t50 17.5q14 0 66 -6q88 -11 157 -11q40 0 86 3t115 9q19 2 40 -3.5t36 -15.5q31 -21 31 -57q0 -33 -40 -81.5t-124 -132.5
l-55 -56q-73 -74 -106 -110q-62 -65 -95 -97q8 1 22 1q84 6 131 6q50 0 81.5 -2.5t92.5 -9.5q31 -4 47.5 -20t16.5 -42q0 -29 -18.5 -47.5t-44.5 -18.5z" />
    <glyph glyph-name="zacute" unicode="&#x17a;" horiz-adv-x="565" 
d="M218 564.5q-14 14.5 -14 35.5q0 12 5 25t14 21l93 85q19 18 30.5 25t25.5 7q22 0 37 -15t15 -38q0 -15 -6.5 -28t-16.5 -22l-100 -86q-14 -13 -25 -18.5t-23 -5.5q-21 0 -35 14.5zM398 -2q-65 5 -96 5q-44 0 -112 -4q-39 -3 -65 -3q-49 0 -72 14.5t-23 39.5q0 24 24 48
l22 23q205 211 264 271q-7 -1 -48 -4.5t-71 -3.5q-23 0 -52 2.5t-49 6.5q-58 12 -58 61q0 26 14 43t40 14q105 -12 169 -12q37 0 101 6q54 4 73 4q44 0 60 -12t16 -36q0 -38 -32 -70l-103 -102l-174 -175l31 1q69 3 79 3q30 0 67.5 -2.5t58.5 -6.5q45 -9 45 -55
q0 -25 -14 -42t-42 -17q-23 0 -53 3z" />
    <glyph glyph-name="Zdotaccent" unicode="&#x17b;" horiz-adv-x="710" 
d="M296 781.5q-22 22.5 -22 56.5q0 33 22 54.5t56 21.5t56 -21.5t22 -54.5q0 -34 -22 -56.5t-56 -22.5t-56 22.5zM541 15q-125 10 -199 10q-46 0 -94 -3q-60 -2 -85 -2q-57 0 -90 8.5t-33 40.5q0 31 34.5 73.5t124.5 136.5q66 66 121 126q75 81 153 159l-22 -2
q-11 -1 -41.5 -3t-58.5 -2q-54 0 -116 5.5t-95 12.5q-68 15 -68 65q0 29 17 46.5t50 17.5q14 0 66 -6q88 -11 157 -11q40 0 86 3t115 9q19 2 40 -3.5t36 -15.5q31 -21 31 -57q0 -33 -40 -81.5t-124 -132.5l-55 -56q-73 -74 -106 -110q-62 -65 -95 -97q8 1 22 1q84 6 131 6
q50 0 81.5 -2.5t92.5 -9.5q31 -4 47.5 -20t16.5 -42q0 -29 -18.5 -47.5t-44.5 -18.5z" />
    <glyph glyph-name="zdotaccent" unicode="&#x17c;" horiz-adv-x="565" 
d="M240 581.5q-22 22.5 -22 56.5q0 33 22 54.5t56 21.5t56 -21.5t22 -54.5q0 -34 -22 -56.5t-56 -22.5t-56 22.5zM398 -2q-65 5 -96 5q-44 0 -112 -4q-39 -3 -65 -3q-49 0 -72 14.5t-23 39.5q0 24 24 48l22 23q205 211 264 271q-7 -1 -48 -4.5t-71 -3.5q-23 0 -52 2.5
t-49 6.5q-58 12 -58 61q0 26 14 43t40 14q105 -12 169 -12q37 0 101 6q54 4 73 4q44 0 60 -12t16 -36q0 -38 -32 -70l-103 -102l-174 -175l31 1q69 3 79 3q30 0 67.5 -2.5t58.5 -6.5q45 -9 45 -55q0 -25 -14 -42t-42 -17q-23 0 -53 3z" />
    <glyph glyph-name="Zcaron" unicode="&#x17d;" horiz-adv-x="710" 
d="M507.5 959q14.5 -15 14.5 -37q0 -17 -15 -37l-17 -23q-32 -44 -51 -65.5t-41 -34.5t-50 -13q-23 0 -51.5 21.5t-49 44t-56.5 64.5q-15 18 -15 38q0 21 16 36.5t38 15.5q13 0 23.5 -6t24.5 -21q22 -24 43 -48q26 -31 32 -31q4 0 16.5 16.5t15.5 20.5l41 53q17 21 46 21
q21 0 35.5 -15zM541 15q-125 10 -199 10q-46 0 -94 -3q-60 -2 -85 -2q-57 0 -90 8.5t-33 40.5q0 31 34.5 73.5t124.5 136.5q66 66 121 126q75 81 153 159l-22 -2q-11 -1 -41.5 -3t-58.5 -2q-54 0 -116 5.5t-95 12.5q-68 15 -68 65q0 29 17 46.5t50 17.5q14 0 66 -6
q88 -11 157 -11q40 0 86 3t115 9q19 2 40 -3.5t36 -15.5q31 -21 31 -57q0 -33 -40 -81.5t-124 -132.5l-55 -56q-73 -74 -106 -110q-62 -65 -95 -97q8 1 22 1q84 6 131 6q50 0 81.5 -2.5t92.5 -9.5q31 -4 47.5 -20t16.5 -42q0 -29 -18.5 -47.5t-44.5 -18.5z" />
    <glyph glyph-name="zcaron" unicode="&#x17e;" horiz-adv-x="565" 
d="M451.5 759q14.5 -15 14.5 -37q0 -17 -15 -37l-17 -23q-32 -44 -51 -65.5t-41 -34.5t-50 -13q-23 0 -51.5 21.5t-49 44t-56.5 64.5q-15 18 -15 38q0 21 16 36.5t38 15.5q13 0 23.5 -6t24.5 -21q22 -24 43 -48q26 -31 32 -31q4 0 16.5 16.5t15.5 20.5l41 53q17 21 46 21
q21 0 35.5 -15zM398 -2q-65 5 -96 5q-44 0 -112 -4q-39 -3 -65 -3q-49 0 -72 14.5t-23 39.5q0 24 24 48l22 23q205 211 264 271q-7 -1 -48 -4.5t-71 -3.5q-23 0 -52 2.5t-49 6.5q-58 12 -58 61q0 26 14 43t40 14q105 -12 169 -12q37 0 101 6q54 4 73 4q44 0 60 -12t16 -36
q0 -38 -32 -70l-103 -102l-174 -175l31 1q69 3 79 3q30 0 67.5 -2.5t58.5 -6.5q45 -9 45 -55q0 -25 -14 -42t-42 -17q-23 0 -53 3z" />
    <glyph glyph-name="longs" unicode="&#x17f;" horiz-adv-x="382" 
d="M289 647q-62 0 -62 -67v-580h-149v586q0 93 46 136t146 43q77 0 136 -23l-35 -109q-45 14 -82 14z" />
    <glyph glyph-name="uni0180" unicode="&#x180;" horiz-adv-x="632" 
d="M382 546q102 0 154 -69t52 -203q0 -135 -56.5 -209.5t-153.5 -74.5q-96 0 -151 70h-10l-25 -60h-114v584h-76v97h76v79h149v-79h154v-97h-154v-11q0 -32 -6 -108h6q52 81 155 81zM334 427q-104 0 -107 -146v-6q0 -88 26 -126t83 -38q46 0 73 42t27 123q0 151 -102 151z
" />
    <glyph glyph-name="uni0181" unicode="&#x181;" horiz-adv-x="793" 
d="M212 590h-26q-32 0 -46.5 -16.5t-14.5 -39.5q0 -22 10 -48h-118q-12 26 -12 58q0 82 47.5 126t137.5 44h244q152 0 220.5 -43.5t68.5 -137.5q0 -63 -30 -104.5t-80 -49.5v-5q68 -15 98 -56.5t30 -110.5q0 -98 -70.5 -152.5t-191.5 -54.5h-267v590zM363 311v-186h99
q62 0 92 24t30 73q0 89 -127 89h-94zM363 431h88q62 0 89.5 19t27.5 63q0 41 -30.5 59t-94.5 18h-80v-159z" />
    <glyph glyph-name="uni0182" unicode="&#x182;" horiz-adv-x="638" 
d="M241 440h60q140 0 216 -56.5t76 -160.5q0 -223 -295 -223h-208v714h451v-125h-300v-149zM241 124h51q77 0 112.5 24.5t35.5 74.5q0 49 -36 71t-124 22h-39v-192z" />
    <glyph glyph-name="uni0183" unicode="&#x183;" horiz-adv-x="632" 
d="M382 546q102 0 154 -69t52 -203q0 -135 -56.5 -209.5t-153.5 -74.5q-96 0 -151 70h-10l-25 -60h-114v760h456v-112h-307v-75q0 -32 -6 -108h6q52 81 155 81zM334 427q-104 0 -107 -146v-6q0 -88 26 -126t83 -38q46 0 73 42t27 123q0 151 -102 151z" />
    <glyph glyph-name="uni0184" unicode="&#x184;" horiz-adv-x="661" 
d="M616 218q0 -109 -69 -168.5t-198 -59.5q-264 0 -264 220v504h151v-274h88q140 0 216 -57.5t76 -164.5zM236 218q0 -104 109 -104q58 0 88 26.5t30 77.5q0 52 -35 75t-125 23h-67v-98z" />
    <glyph glyph-name="uni0185" unicode="&#x185;" horiz-adv-x="633" 
d="M589 273q0 -133 -67.5 -208t-186.5 -75q-125 0 -192.5 72t-67.5 205v493h149v-177q0 -27 -6 -108h6q26 40 67 60.5t92 20.5q97 0 151.5 -75t54.5 -208zM335 437q-59 0 -85 -37.5t-26 -108.5v-26q0 -80 26.5 -117.5t81.5 -37.5q53 0 79 39.5t26 123.5q0 83 -27.5 123.5
t-74.5 40.5z" />
    <glyph glyph-name="uni0186" unicode="&#x186;" horiz-adv-x="637" 
d="M239 598q-42 0 -80.5 -14t-74.5 -33l-49 123q99 50 220 50q153 0 238.5 -96.5t85.5 -266.5q0 -175 -86.5 -273t-245.5 -98q-54 0 -99 8.5t-92 28.5v127q64 -22 101.5 -30t75.5 -8q93 0 141.5 63.5t48.5 178.5q0 114 -48.5 177t-135.5 63z" />
    <glyph glyph-name="uni0187" unicode="&#x187;" horiz-adv-x="637" 
d="M393 598q-85 0 -132 -64t-47 -179q0 -239 179 -239q75 0 182 38v-127q-88 -37 -196 -37q-156 0 -238.5 94.5t-82.5 271.5q0 111 40.5 195t116.5 128.5t178 44.5q46 0 89 -11q1 81 40.5 123.5t113.5 42.5q22 0 41.5 -5t28.5 -10v-114q-28 10 -55 10q-49 0 -49 -56v-40
l-49 -113q-40 19 -80.5 33t-79.5 14z" />
    <glyph glyph-name="uni0188" unicode="&#x188;" horiz-adv-x="514" 
d="M300 -10q-255 0 -255 280q0 139 69.5 212.5t198.5 73.5q29 0 50 -4v41q0 84 39 128t116 44q39 0 69 -15v-114q-28 10 -55 10q-49 0 -49 -56v-76l-44 -110q-35 14 -65.5 23t-60.5 9q-116 0 -116 -165q0 -160 116 -160q43 0 79.5 11.5t73.5 35.5v-127q-36 -23 -73 -32
t-93 -9z" />
    <glyph glyph-name="uni0189" unicode="&#x189;" horiz-adv-x="740" 
d="M466 650.5q94 -42.5 147 -118.5t53 -179q0 -104 -55 -183t-156.5 -122t-237.5 -43h-65q-42 0 -62 15t-20 51q0 52 56 60l-5 161h-8q-44 1 -68.5 20t-24.5 53t25.5 54.5t70.5 19.5h1l-4 144q-44 16 -44 60q0 24 13.5 37t45.5 19q17 18 60 18q42 0 62 -16q122 -8 216 -50.5
zM447 211.5q56 58.5 56 148.5q0 177 -224 208l4 -134l28 -1q41 -2 65 -22t24 -53q0 -32 -24 -51.5t-66 -19.5l-23 1l4 -150q100 15 156 73.5z" />
    <glyph glyph-name="uni018A" unicode="&#x18a;" horiz-adv-x="861" 
d="M804 364q0 -176 -100 -270t-290 -94h-202v590h-26q-32 0 -46.5 -16.5t-14.5 -39.5q0 -22 10 -48h-118q-12 26 -12 58q0 82 47.5 126t137.5 44h246q175 0 271.5 -92t96.5 -258zM647 360q0 230 -203 230h-81v-465h65q219 0 219 235z" />
    <glyph glyph-name="uni018B" unicode="&#x18b;" horiz-adv-x="638" 
d="M397 589h-300v125h451v-714h-220q-142 0 -212.5 54t-70.5 165q0 104 77.5 162.5t219.5 58.5h55v149zM397 316h-39q-88 0 -124 -22.5t-36 -71.5q0 -50 36 -74t112 -24h51v192z" />
    <glyph glyph-name="uni018C" unicode="&#x18c;" horiz-adv-x="632" 
d="M251 -10q-96 0 -151 75t-55 207q0 129 57 201.5t153 72.5q104 0 157 -80h5q-11 62 -11 109v73h-307v112h456v-760h-114l-29 71h-6q-51 -81 -155 -81zM303 109q57 0 84 33t29 113v16q0 83 -27.5 118.5t-87.5 35.5q-50 0 -77.5 -39.5t-27.5 -115.5q0 -81 27.5 -121
t79.5 -40z" />
    <glyph glyph-name="uni018D" unicode="&#x18d;" horiz-adv-x="619" 
d="M382 307q116 -74 116 -167q0 -70 -59 -110t-163 -40q-53 0 -104 11t-121 43l59 105q45 -22 87 -35.5t85 -13.5q36 0 54 13t18 36q0 26 -33.5 52t-101.5 60q-90 45 -132 105.5t-42 138.5q0 126 69 193t198 67q119 0 190.5 -60.5t71.5 -163.5q0 -89 -46.5 -147.5
t-145.5 -86.5zM197 515q0 -95 98 -147q58 15 92 59.5t34 107.5q0 50 -30 80t-80 30q-55 0 -84.5 -33.5t-29.5 -96.5z" />
    <glyph glyph-name="uni018E" unicode="&#x18e;" horiz-adv-x="560" 
d="M59 125h260v184h-242v124h242v157h-260v124h411v-714h-411v125z" />
    <glyph glyph-name="uni018F" unicode="&#x18f;" horiz-adv-x="778" 
d="M210 28q-78 38 -124 104t-46 145q0 52 23 76.5t71 24.5l439 2q9 0 12.5 3t3.5 13q0 49 -28 87t-76 59.5t-106 21.5q-49 0 -81 -14.5t-51 -36t-40 -56.5q-17 -28 -56 -28q-32 0 -62 17t-30 44q0 18 14 44q40 73 124 117t186 44q101 0 182 -45t127 -124t46 -179
q0 -101 -46.5 -182.5t-128.5 -128t-184 -46.5q-91 0 -169 38zM481 126q48 21 78 55.5t30 72.5q0 10 -4 13t-16 3l-356 -4q-14 0 -18.5 -4.5t-4.5 -15.5q0 -45 27 -76.5t71 -48t95 -16.5q50 0 98 21z" />
    <glyph glyph-name="uni0190" unicode="&#x190;" horiz-adv-x="647" 
d="M65 537q0 85 73 136t193 51q75 0 139 -17.5t132 -60.5l-66 -101q-94 58 -194 58q-65 0 -97.5 -21.5t-32.5 -58.5q0 -48 51.5 -70.5t165.5 -22.5h60v-118h-67q-112 0 -170.5 -23.5t-58.5 -74.5q0 -105 180 -105q52 0 114 12t109 35v-127q-95 -39 -256 -39
q-142 0 -219.5 56.5t-77.5 155.5q0 73 53 117.5t149 53.5v3q-180 27 -180 161z" />
    <glyph glyph-name="uni0191" unicode="&#x191;" horiz-adv-x="548" 
d="M239 -64q0 -87 -45 -131.5t-132 -44.5q-43 0 -80 15v114q25 -10 55 -10q23 0 38 15t15 45v775h409v-124h-260v-184h242v-124h-242v-346z" />
    <glyph glyph-name="florin" unicode="&#x192;" horiz-adv-x="683" 
d="M641 775.5q12 -13.5 12 -38.5q0 -22 -11 -35.5t-31 -13.5q-9 0 -20 3q-25 7 -63 7q-47 0 -78 -48.5t-39 -144.5h82q31 0 50.5 -15.5t19.5 -40.5q0 -27 -18.5 -43t-50.5 -16h-86q-4 -162 -30.5 -291.5t-77.5 -206t-124 -78.5q-29 -1 -73 4q-34 4 -53.5 22t-19.5 44
q0 27 16.5 46t44.5 19l10 -1q6 -1 27.5 -5t44.5 -3q24 1 45.5 61.5t36.5 163.5t20 225h-69q-30 0 -48 16t-18 41q0 26 18.5 42t49.5 16h72q7 112 35.5 180t79.5 98.5t129 30.5q41 0 74 -13q31 -12 43 -25.5z" />
    <glyph glyph-name="uni0193" unicode="&#x193;" horiz-adv-x="724" 
d="M361 401h283v-370q-69 -22 -129.5 -31.5t-124.5 -9.5q-162 0 -247 95t-85 273q0 173 99 269.5t274 96.5q50 0 93 -9q1 80 41 122t113 42q22 0 41.5 -5t28.5 -10v-114q-28 10 -55 10q-49 0 -49 -56v-33l-51 -112q-78 39 -163 39q-98 0 -157 -66t-59 -177
q0 -116 47.5 -177.5t138.5 -61.5q47 0 96 10v149h-135v126z" />
    <glyph glyph-name="uni0194" unicode="&#x194;" horiz-adv-x="649" 
d="M494 714h156l-257 -591q69 -138 69 -220q0 -65 -39 -104t-104 -39t-103 38t-38 106q0 50 18.5 103.5t47.5 117.5l-244 589h156l121 -311q10 -23 23 -68t19 -71q9 37 23.5 77.5t23.5 60.5zM354 -97q0 22 -9 56.5t-25 65.5q-18 -34 -26 -66t-8 -54q0 -56 34 -56t34 54z" />
    <glyph glyph-name="uni0195" unicode="&#x195;" horiz-adv-x="986" 
d="M572 238q0 -66 23 -97t72 -31t72.5 33t23.5 109v294h149v-307q0 -249 -245 -249q-129 0 -186.5 54.5t-57.5 171.5v103q0 118 -84 118q-58 0 -85 -43t-27 -137v-257h-149v760h149v-155q0 -18 -3 -85l-4 -44h8q52 80 155 80q91 0 140 -52.5t49 -152.5v-113z" />
    <glyph glyph-name="uni0196" unicode="&#x196;" horiz-adv-x="402" 
d="M243 714v-524q0 -35 18 -54t47 -19q38 0 85 17v-119q-53 -25 -129 -25q-179 0 -179 187v537h158z" />
    <glyph glyph-name="uni0197" unicode="&#x197;" horiz-adv-x="389" 
d="M27 419h92v169l-87 40v86h325v-86l-87 -40v-169h92v-124h-92v-169l87 -40v-86h-325v86l87 40v169h-92v124z" />
    <glyph glyph-name="uni0198" unicode="&#x198;" horiz-adv-x="664" 
d="M664 0h-172l-187 301l-64 -46v-255h-151v714h151v-329l64 91l81 108q46 62 73.5 88t56.5 39.5t63 13.5q43 0 75 -15v-119q-22 9 -48 9q-42 0 -74 -43l-120 -159z" />
    <glyph glyph-name="uni0199" unicode="&#x199;" horiz-adv-x="620" 
d="M221 297l65 83l153 166h168l-217 -237l230 -309h-172l-157 221l-64 -51v-170h-149v595q0 84 44 128t131 44q41 0 78 -15v-114q-28 10 -55 10q-49 0 -49 -56v-171l-8 -124h2z" />
    <glyph glyph-name="uni019A" unicode="&#x19a;" horiz-adv-x="330" 
d="M239 420h81v-112h-81v-308h-149v308h-80v112h80v340h149v-340z" />
    <glyph glyph-name="uni019B" unicode="&#x19b;" horiz-adv-x="615" 
d="M4 0l231 516l-11 28l-100 -30l-25 82l83 25q-15 12 -32.5 16t-40.5 4q-24 0 -50 -6v123q39 8 81 8q65 0 109 -24t75 -77l93 29l25 -83l-83 -25l135 -372q18 -51 36.5 -75t45.5 -24q16 0 34 5v-115q-11 -6 -39 -10.5t-47 -4.5q-54 0 -88 26.5t-54 84.5
q-56 158 -66.5 190.5t-16.5 57.5h-3q-22 -75 -37 -112l-101 -237h-154z" />
    <glyph glyph-name="uni019C" unicode="&#x19c;" horiz-adv-x="1035" 
d="M439 714h151v-477q0 -120 87 -120q60 0 88 42t28 141v414h152v-714h-114l-21 76h-9q-24 -42 -68.5 -64t-99.5 -22q-115 0 -167 90h-7q-55 -90 -171 -90q-99 0 -151 52t-52 152v520h151v-477q0 -120 87 -120q61 0 88.5 41t27.5 125v431z" />
    <glyph glyph-name="uni019D" unicode="&#x19d;" horiz-adv-x="812" 
d="M723 0h-192l-311 540h-4q9 -143 9 -204v-400q0 -85 -44 -130.5t-126 -45.5q-36 0 -73 15v114q25 -10 55 -10q23 0 38 15t15 45v775h191l310 -535h3q-7 139 -7 197v338h136v-714z" />
    <glyph glyph-name="uni019E" unicode="&#x19e;" horiz-adv-x="657" 
d="M582 -240h-149v559q0 59 -21 88.5t-67 29.5q-62 0 -90 -41.5t-28 -138.5v-257h-149v546h114l20 -70h8q25 40 69 60t99 20q95 0 144.5 -51.5t49.5 -148.5v-596z" />
    <glyph glyph-name="uni019F" unicode="&#x19f;" horiz-adv-x="795" 
d="M738 358q0 -177 -88 -272.5t-252 -95.5t-252 95.5t-88 273.5t88 272t253 94t252 -94.5t87 -272.5zM398 117q80 0 126 47t55 139h-363q10 -88 54.5 -137t127.5 -49zM399 599q-154 0 -181 -170h359q-12 83 -56.5 126.5t-121.5 43.5z" />
    <glyph glyph-name="Ohorn" unicode="&#x1a0;" horiz-adv-x="894" 
d="M844 546q-40 -49 -104 -73q22 -63 22 -131q0 -101 -46.5 -177t-128.5 -117.5t-188 -41.5q-105 0 -184 41.5t-122 118t-43 180.5q0 105 44 187.5t122.5 129t179.5 46.5q99 0 180.5 -45t130.5 -122q37 13 61.5 43.5t24.5 82.5q0 48 44 48q23 0 35 -13.5t12 -36.5
q0 -71 -40 -120zM513 160q48 24 76 72t28 116q0 67 -26.5 119.5t-75.5 82t-113 29.5t-110.5 -29.5t-71.5 -81t-25 -117.5q0 -104 58.5 -159.5t151.5 -55.5q60 0 108 24z" />
    <glyph glyph-name="ohorn" unicode="&#x1a1;" horiz-adv-x="607" 
d="M650.5 365q-28.5 -44 -77.5 -71q4 -21 4 -51q0 -117 -73 -181.5t-198 -64.5q-127 0 -201.5 66.5t-74.5 186.5q0 78 33 139t93.5 95t142.5 34q87 0 152 -38.5t98 -106.5q39 37 39 98q0 48 44 48q23 0 35 -13.5t12 -36.5q0 -60 -28.5 -104zM398.5 142.5
q33.5 34.5 33.5 102.5q0 67 -32.5 114.5t-95.5 47.5q-59 0 -94 -43t-35 -115q0 -70 34 -105.5t95 -35.5t94.5 34.5z" />
    <glyph glyph-name="uni01A2" unicode="&#x1a2;" horiz-adv-x="1130" 
d="M718 358q0 -178 -85 -273t-245 -95q-161 0 -245.5 95t-84.5 274q0 177 85.5 271.5t245.5 94.5q154 0 239 -90q82 90 205 90q102 0 157.5 -60.5t55.5 -174.5v-490h-151v478q0 60 -26.5 90.5t-76.5 30.5q-36 0 -62.5 -10t-48.5 -34q37 -82 37 -197zM217 358
q0 -121 43.5 -181t127.5 -60q171 0 171 241t-170 241q-172 0 -172 -241z" />
    <glyph glyph-name="uni01A3" unicode="&#x1a3;" horiz-adv-x="929" 
d="M554 274q0 -134 -68 -209t-188 -75q-117 0 -185 75.5t-68 208.5q0 134 67.5 208t188.5 74q118 0 186 -78q62 78 173 78q95 0 144.5 -51.5t49.5 -148.5v-596h-149v559q0 59 -21 88.5t-67 29.5q-56 0 -85 -35q22 -58 22 -128zM197 274q0 -82 24.5 -123t78.5 -41t78 41
t24 123q0 81 -24.5 121.5t-78.5 40.5q-53 0 -77.5 -40t-24.5 -122z" />
    <glyph glyph-name="uni01A4" unicode="&#x1a4;" horiz-adv-x="750" 
d="M705 491q0 -115 -72 -176t-205 -61h-65v-254h-151v590h-26q-32 0 -46.5 -16.5t-14.5 -39.5q0 -22 10 -48h-118q-12 26 -12 58q0 82 47.5 126t137.5 44h250q130 0 197.5 -56t67.5 -167zM363 378h50q69 0 104 27.5t35 80.5t-29 78.5t-91 25.5h-69v-212z" />
    <glyph glyph-name="uni01A5" unicode="&#x1a5;" horiz-adv-x="632" 
d="M227 583q0 -44 -6 -108h6q24 40 64 60.5t91 20.5q97 0 151.5 -75.5t54.5 -206.5q0 -133 -54.5 -208.5t-151.5 -75.5q-104 0 -155 67h-7l4 -30l3 -46v-221h-149v833q0 83 44 127.5t131 44.5q41 0 78 -15v-114q-28 10 -55 10q-23 0 -35 -13t-14 -43v-7zM334 437
q-55 0 -80.5 -34t-26.5 -112v-16q0 -88 26 -126t83 -38q100 0 100 165q0 81 -24.5 121t-77.5 40z" />
    <glyph glyph-name="uni01A6" unicode="&#x1a6;" horiz-adv-x="660" 
d="M241 174v-174h-151v714h151v-100h57q146 0 215.5 -53t69.5 -161q0 -62 -33.5 -110.5t-99.5 -78.5l210 -311h-168l-170 274h-81zM241 297h49q72 0 106 24t34 75t-35 72.5t-108 21.5h-46v-193z" />
    <glyph glyph-name="uni01A7" unicode="&#x1a7;" horiz-adv-x="550" 
d="M42 193q0 74 40.5 126t133.5 92q67 28 94 44.5t38.5 33.5t11.5 41q0 33 -23.5 50.5t-67.5 17.5q-41 0 -81.5 -11t-89.5 -31l-45 118q111 50 228 50q106 0 166.5 -51.5t60.5 -145.5q0 -75 -40 -125.5t-139 -91.5q-61 -25 -87 -41.5t-39 -34.5t-13 -41q0 -37 26 -57.5
t78 -20.5q100 0 210 46v-126q-92 -45 -219 -45q-117 0 -180 51.5t-63 151.5z" />
    <glyph glyph-name="uni01A8" unicode="&#x1a8;" horiz-adv-x="497" 
d="M38 152q0 62 34.5 103.5t118.5 73.5q76 29 97 43t21 33q0 20 -19 30.5t-52 10.5q-37 0 -72.5 -11.5t-75.5 -28.5l-40 107q94 43 203 43q96 0 150 -39t54 -110q0 -62 -33 -100.5t-120 -72.5q-47 -19 -72 -32t-36 -24t-11 -29q0 -50 88 -50q91 0 174 43v-113
q-79 -39 -186 -39q-111 0 -167 41.5t-56 120.5z" />
    <glyph glyph-name="uni01A9" unicode="&#x1a9;" horiz-adv-x="592" 
d="M38 0v119l230 255l-224 224v116h486v-124h-214q-25 0 -111 5l222 -220l-233 -256q117 6 139 6h226v-125h-521z" />
    <glyph glyph-name="uni01AA" unicode="&#x1aa;" horiz-adv-x="367" 
d="M290 -240q-92 0 -136 45t-44 136v589h-27q-68 0 -105 32t-37 91q0 53 40 85t107 32q171 0 171 -179v-650q0 -32 18 -47t47 -15q39 0 94 17v-111q-53 -25 -128 -25zM67 688q-17 0 -26.5 -10.5t-9.5 -25.5q0 -19 14 -32t41 -13h24v31q0 25 -11.5 37.5t-31.5 12.5z" />
    <glyph glyph-name="uni01AB" unicode="&#x1ab;" horiz-adv-x="434" 
d="M260 -240q-42 0 -80 13v104q23 -9 48 -9q27 0 38.5 14t11.5 44v64h-13q-89 0 -130 45.5t-41 135.5v263h-71v63l82 50l43 115h95v-116h153v-112h-153v-263q0 -32 18 -47t47 -15q39 0 94 17v-200q0 -86 -36 -126t-106 -40z" />
    <glyph glyph-name="uni01AC" unicode="&#x1ac;" horiz-adv-x="618" 
d="M404 0h-151v588h-67q-32 0 -46.5 -16.5t-14.5 -39.5q0 -21 10 -46h-118q-12 26 -12 58q0 82 47.5 126t137.5 44h408v-126h-194v-588z" />
    <glyph glyph-name="uni01AD" unicode="&#x1ad;" horiz-adv-x="434" 
d="M308 109q39 0 94 17v-111q-56 -25 -137 -25q-89 0 -130 45.5t-41 135.5v263h-71v63l71 43v53q0 84 47 128t142 44q49 0 92 -16v-114q-37 11 -75 11q-30 0 -43.5 -14t-13.5 -42v-44h153v-112h-153v-263q0 -32 18 -47t47 -15z" />
    <glyph glyph-name="uni01AE" unicode="&#x1ae;" horiz-adv-x="579" 
d="M365 -61q0 -31 15 -45.5t38 -14.5q30 0 55 10v-114q-12 -5 -35 -10t-49 -5q-175 0 -175 176v652h-194v126h539v-126h-194v-649z" />
    <glyph glyph-name="Uhorn" unicode="&#x1af;" horiz-adv-x="824" 
d="M761 531.5q-53 -52.5 -131 -69.5v-34q3 -132 3 -354q0 -42 -18 -60t-55 -18t-54.5 16.5t-17.5 54.5v20q-28 -38 -75.5 -62.5t-109.5 -24.5q-71 0 -124 33t-81 92.5t-28 136.5q0 124 5 344l1 35q1 28 20.5 45.5t54.5 17.5q34 0 52 -16t18 -47q0 -67 -2 -175
q-2 -116 -2 -204q0 -61 31.5 -96t75.5 -35q39 0 76.5 27.5t61.5 75t24 104.5v68q-1 56 -1 240q0 64 68 64q35 0 55 -16.5t20 -47.5q0 -72 1 -107q40 13 67 43.5t27 85.5q0 48 44 48q23 0 35 -13.5t12 -36.5q0 -82 -53 -134.5z" />
    <glyph glyph-name="uhorn" unicode="&#x1b0;" horiz-adv-x="573" 
d="M597 345.5q-42 -49.5 -109 -72.5l1 -115q0 -35 6 -55t13 -32t7 -14q0 -25 -18.5 -41.5t-49.5 -16.5q-19 0 -41.5 20.5t-29.5 45.5q-35 -67 -131 -67q-88 0 -136.5 62t-48.5 158v236q0 23 20.5 37.5t50.5 14.5t51.5 -14.5t21.5 -37.5v-234q0 -43 15 -77t46 -34
q39 0 57.5 35t18.5 123v185q0 27 19.5 43t51.5 16q33 0 53.5 -16t20.5 -43l1 -96q61 35 61 114q0 48 44 48q23 0 35 -13.5t12 -36.5q0 -73 -42 -122.5z" />
    <glyph glyph-name="uni01B1" unicode="&#x1b1;" horiz-adv-x="786" 
d="M393 116q88 0 136 53t48 151t-31.5 159.5t-98.5 98.5v136h312v-127h-181q73 -45 114 -123.5t41 -175.5q0 -89 -41.5 -157t-119 -104.5t-179.5 -36.5q-103 0 -180 36.5t-118.5 104.5t-41.5 158q0 97 40.5 174.5t116.5 123.5h-183v127h314v-136q-66 -35 -99 -98t-33 -161
q0 -97 47.5 -150t136.5 -53z" />
    <glyph glyph-name="uni01B2" unicode="&#x1b2;" horiz-adv-x="649" 
d="M410 0h-155l-255 714h153l144 -425q7 -19 20.5 -74t17.5 -83q3 25 18.5 79.5t23.5 72.5l70 168q21 49 26 68t5 33q0 23 -13 34.5t-32 11.5q-26 0 -43 -9v117q35 17 83 17q71 0 109.5 -38.5t38.5 -105.5q0 -58 -37 -156z" />
    <glyph glyph-name="uni01B3" unicode="&#x1b3;" horiz-adv-x="624" 
d="M78 724q50 0 84.5 -26t65.5 -93l86 -183l147 292h163l-237 -436v-278h-150v272l-110 231q-20 42 -32.5 61t-24.5 27t-33 8q-20 0 -37 -9v117q37 17 78 17z" />
    <glyph glyph-name="uni01B4" unicode="&#x1b4;" horiz-adv-x="615" 
d="M172 546l86 -254q22 -63 32 -125h3q18 73 34 119l54 148q24 65 60.5 93.5t88.5 28.5q21 0 44 -4.5t36 -10.5v-115q-19 5 -34 5q-26 0 -44.5 -22.5t-37.5 -76.5l-144 -397q-64 -175 -234 -175q-34 0 -72 8v118q6 -1 23.5 -3.5t33.5 -2.5q83 0 116 95l10 29l-217 542h162z
" />
    <glyph glyph-name="uni01B5" unicode="&#x1b5;" horiz-adv-x="579" 
d="M62 415h183l121 174h-333v125h513v-98l-140 -201h93v-124h-180l-115 -166h351v-125h-531v98l135 193h-97v124z" />
    <glyph glyph-name="uni01B6" unicode="&#x1b6;" horiz-adv-x="487" 
d="M458 0h-431v88l105 142h-79v97h150l77 105h-238v114h407v-97l-90 -122h76v-97h-147l-85 -116h255v-114z" />
    <glyph glyph-name="uni01B7" unicode="&#x1b7;" horiz-adv-x="590" 
d="M138 419l176 170h-262v125h468v-97l-211 -201q118 -5 180.5 -58.5t62.5 -149.5q0 -102 -79.5 -160t-224.5 -58q-126 0 -220 39v128q45 -21 102.5 -34t108.5 -13q82 0 122 25.5t40 81.5q0 50 -51 73t-152 23h-60v106z" />
    <glyph glyph-name="uni01B8" unicode="&#x1b8;" horiz-adv-x="590" 
d="M453 313h-60q-102 0 -152.5 -23.5t-50.5 -74.5q0 -53 40.5 -79t121.5 -26q53 0 110 13t101 34v-128q-94 -39 -225 -39q-141 0 -220 56t-79 157q0 96 61.5 150t181.5 63l-211 201v97h468v-125h-263l177 -170v-106z" />
    <glyph glyph-name="uni01B9" unicode="&#x1b9;" horiz-adv-x="581" 
d="M443 139h-58q-97 0 -146 -31.5t-49 -98.5q0 -62 39.5 -95.5t113.5 -33.5q49 0 102.5 12.5t97.5 34.5v-126q-96 -41 -221 -41q-134 0 -208.5 63.5t-74.5 176.5q0 104 61 167t177 80l-211 202v97h472v-114h-288l193 -187v-106z" />
    <glyph glyph-name="uni01BA" unicode="&#x1ba;" horiz-adv-x="581" 
d="M371 143q0 31 -31.5 43.5t-116.5 12.5h-68v100l150 133h-247v114h443v-96l-177 -144q98 -8 148 -50.5t50 -115.5q0 -88 -65 -131.5t-201 -53.5q-43 -3 -62 -13t-19 -27q0 -45 100 -45q92 0 203 39v-110q-43 -18 -101.5 -28.5t-120.5 -10.5q-96 0 -152 40.5t-56 115.5
q0 147 193 162q75 5 102.5 19t27.5 46z" />
    <glyph glyph-name="uni01BB" unicode="&#x1bb;" horiz-adv-x="569" 
d="M387 322l-185 -201v-7h324v-114h-499v111l193 211h-176v97h257q26 32 35.5 64.5t9.5 68.5q0 42 -26 68t-68 26q-38 0 -71.5 -16t-76.5 -58l-73 91q46 42 78.5 60.5t71.5 30t87 11.5q103 0 165.5 -57t62.5 -148q0 -77 -39 -141h69v-97h-139z" />
    <glyph glyph-name="uni01BC" unicode="&#x1bc;" horiz-adv-x="578" 
d="M289 456q114 0 182 -60.5t68 -164.5q0 -118 -80 -179.5t-229 -61.5q-58 0 -112 10t-90 29v130q37 -20 92.5 -33t104.5 -13q81 0 121.5 27.5t40.5 80.5q0 109 -147 109h-127v258h-79v126h484v-126h-256v-132h27z" />
    <glyph glyph-name="uni01BD" unicode="&#x1bd;" horiz-adv-x="555" 
d="M283 337q116 0 175 -42.5t59 -122.5q0 -89 -72.5 -135.5t-211.5 -46.5q-58 0 -110.5 9.5t-84.5 24.5v123q35 -18 90 -30t99 -12q145 0 145 65q0 63 -149 63h-95v201h-84v112h454v-112h-230v-97h15z" />
    <glyph glyph-name="uni01BE" unicode="&#x1be;" horiz-adv-x="497" 
d="M271 399q0 -27 9.5 -41t35.5 -29l53 -31q46 -26 68 -60t22 -81q0 -80 -60 -123.5t-173 -43.5q-56 0 -107.5 9.5t-82.5 24.5v123q37 -20 86.5 -34t90.5 -14q54 0 77.5 13.5t23.5 40.5q0 17 -11 29t-35 26q-84 43 -110.5 83t-26.5 103v40h-95v63l97 50l43 115h95v-116h138
v-112h-138v-35z" />
    <glyph glyph-name="uni01BF" unicode="&#x1bf;" horiz-adv-x="632" 
d="M227 -240h-149v786h121l21 -71h7q52 81 155 81q60 0 107.5 -31t73 -88.5t25.5 -132.5q0 -135 -94.5 -219.5t-266.5 -103.5v-221zM334 437q-59 0 -83 -37.5t-24 -111.5v-180q95 12 152 65.5t57 132.5q0 61 -27 96t-75 35z" />
    <glyph glyph-name="uni01C0" unicode="&#x1c0;" horiz-adv-x="516" 
d="M204 760h107v-1000h-107v1000z" />
    <glyph glyph-name="uni01C1" unicode="&#x1c1;" horiz-adv-x="516" 
d="M76 760h107v-1000h-107v1000zM334 760h107v-1000h-107v1000z" />
    <glyph glyph-name="uni01C2" unicode="&#x1c2;" horiz-adv-x="516" 
d="M204 121h-154v97h154v112h-154v97h154v333h107v-333h155v-97h-155v-112h155v-97h-155v-361h-107v361z" />
    <glyph glyph-name="uni01C3" unicode="&#x1c3;" horiz-adv-x="286" 
d="M203 237h-119l-25 477h169zM57 70q0 41 22 62t64 21q41 0 63 -21.5t22 -61.5q0 -39 -22.5 -61t-62.5 -22q-41 0 -63.5 21.5t-22.5 61.5z" />
    <glyph glyph-name="uni01C4" unicode="&#x1c4;" horiz-adv-x="1309" 
d="M952.5 711.5q-28.5 16.5 -63.5 51.5l-14 14q-27 25 -43 43q-17 19 -17 40t17 38.5t38 17.5q26 0 51 -25q17 -18 42 -41q21 -19 31 -31q15 -15 19 -15q5 0 21 20l14 15l15 16q27 27 43 46q20 22 46 22q22 0 38 -15.5t16 -39.5q0 -22 -13 -38q-5 -7 -20.5 -25.5
t-41.5 -45.5q-37 -37 -63.5 -52t-58.5 -15q-28 3 -56.5 19.5zM561 593q106 -84 106 -231q0 -107 -55.5 -187.5t-157 -125t-236.5 -44.5h-65q-44 0 -63 15t-19 51q0 31 13.5 46.5t42.5 15.5h10l-12 441h-6q-22 0 -35.5 15.5t-13.5 46.5q0 34 15.5 50.5t39.5 16.5h13
q17 17 56 17q45 0 60 -23q201 -20 307 -104zM403.5 173.5q54.5 29.5 86.5 78t32 110.5q0 94 -68 141.5t-184 62.5l12 -430q67 8 121.5 37.5zM1271 15q-125 10 -199 10q-46 0 -94 -3q-60 -2 -85 -2q-57 0 -90 8.5t-33 40.5q0 31 34.5 73.5t124.5 136.5q66 66 121 126
q75 81 153 159l-22 -2q-11 -1 -41.5 -3t-58.5 -2q-54 0 -116 5.5t-95 12.5q-68 15 -68 65q0 29 17 46.5t50 17.5q14 0 66 -6q88 -11 157 -11q40 0 86 3t115 9q19 2 40 -3.5t36 -15.5q31 -21 31 -57q0 -33 -40 -81.5t-124 -132.5l-55 -56q-73 -74 -106 -110q-62 -65 -95 -97
q8 1 22 1q84 6 131 6q50 0 81.5 -2.5t92.5 -9.5q31 -4 47.5 -20t16.5 -42q0 -29 -18.5 -47.5t-44.5 -18.5z" />
    </font>
</defs>
</svg>
