<?xml version="1.0" standalone="no"?>
<!DOCTYPE svg PUBLIC "-//W3C//DTD SVG 1.1//EN" "http://www.w3.org/Graphics/SVG/1.1/DTD/svg11.dtd" >
<svg xmlns="http://www.w3.org/2000/svg" xmlns:xlink="http://www.w3.org/1999/xlink" version="1.1">
<metadata>
Created by FontForge 20190801 at Mon Feb  8 12:16:31 2021
 By root
Copyright (c) 2011, Denis Masharov &#60;denis.masharov@gmail.com&#62;, Marck Fogel, with Reserved Font Names "Marck Script".
</metadata>
<defs>
<font id="MarckScript-Regular" horiz-adv-x="480" >
  <font-face 
    font-family="Marck Script"
    font-weight="400"
    font-stretch="normal"
    units-per-em="1000"
    panose-1="2 0 0 0 0 0 0 0 0 0"
    ascent="800"
    descent="-200"
    x-height="366"
    cap-height="619"
    bbox="-213 -385 1472 1046"
    underline-thickness="75"
    underline-position="-149"
    unicode-range="U+0001-206F"
  />
<missing-glyph horiz-adv-x="364" 
d="M33 0v666h265v-666h-265zM66 33h199v600h-199v-600z" />
    <glyph glyph-name=".notdef" horiz-adv-x="364" 
d="M33 0v666h265v-666h-265zM66 33h199v600h-199v-600z" />
    <glyph glyph-name=".null" horiz-adv-x="0" 
 />
    <glyph glyph-name="nonmarkingreturn" horiz-adv-x="333" 
 />
    <glyph glyph-name="NULL" 
 />
    <glyph glyph-name="NULL" 
 />
    <glyph glyph-name="uni0001" 
 />
    <glyph glyph-name="uni0002" 
 />
    <glyph glyph-name="uni0003" 
 />
    <glyph glyph-name="uni0004" 
 />
    <glyph glyph-name="uni0005" 
 />
    <glyph glyph-name="uni0006" 
 />
    <glyph glyph-name="uni0007" 
 />
    <glyph glyph-name="uni0008" 
 />
    <glyph glyph-name="uni0009" unicode="&#x9;" 
 />
    <glyph glyph-name="uni000A" unicode="&#xa;" 
 />
    <glyph glyph-name="uni000B" 
 />
    <glyph glyph-name="uni000C" 
 />
    <glyph glyph-name="CR" unicode="&#xd;" 
 />
    <glyph glyph-name="uni000E" 
 />
    <glyph glyph-name="uni000F" 
 />
    <glyph glyph-name="uni0010" 
 />
    <glyph glyph-name="uni0011" 
 />
    <glyph glyph-name="uni0012" 
 />
    <glyph glyph-name="uni0013" 
 />
    <glyph glyph-name="uni0014" 
 />
    <glyph glyph-name="uni0015" 
 />
    <glyph glyph-name="uni0016" 
 />
    <glyph glyph-name="uni0017" 
 />
    <glyph glyph-name="uni0018" 
 />
    <glyph glyph-name="uni0019" 
 />
    <glyph glyph-name="uni001A" 
 />
    <glyph glyph-name="uni001B" 
 />
    <glyph glyph-name="uni001C" 
 />
    <glyph glyph-name="uni001D" 
 />
    <glyph glyph-name="uni001E" 
 />
    <glyph glyph-name="uni001F" 
 />
    <glyph glyph-name="space" unicode=" " 
 />
    <glyph glyph-name="exclam" unicode="!" horiz-adv-x="257" 
d="M235 642l47 -29q-143 -244 -225 -477h-56q62 247 234 506zM64 14q13 13 13 31.5t-13 31t-31.5 12.5t-31 -12.5t-12.5 -31t12.5 -31.5t31 -13t31.5 13z" />
    <glyph glyph-name="quotedbl" unicode="&#x22;" horiz-adv-x="20" 
d="M94 612l-82 -124h-32l58 151zM188 610l-80 -122h-34l58 147z" />
    <glyph glyph-name="numbersign" unicode="#" horiz-adv-x="575" 
d="M42 241l134 -1q7 24 34 119h-145l10 48h151q31 98 73 218l45 -19q-22 -59 -68 -198q85 2 126 5q42 128 73 217l45 -18q-26 -68 -66 -196q19 0 39.5 1.5t43.5 3t34 2.5l-10 -46q-73 -8 -123 -10l-37 -123q91 4 135 7l-9 -48q-23 -2 -139 -7q-31 -109 -45 -186l-49 -12
q13 80 44 194h-126q-33 -123 -46 -186l-49 -13q18 94 46 199q-57 0 -131 2zM226 240l126 2q34 115 36 122q-86 -4 -127 -4z" />
    <glyph glyph-name="dollar" unicode="$" horiz-adv-x="485" 
d="M113 -50l12 54q-65 0 -98.5 23.5t-33.5 59.5q0 52 58.5 98t147.5 49q16 40 19 54q-46 14 -70.5 35.5t-24.5 59.5q0 70 78 140t156 87q18 36 30 56l29 -10l-17 -38q41 0 66.5 -16.5t25.5 -50.5q0 -56 -66.5 -105t-129.5 -49l-10 -27q-6 -17 -9 -24q62 -11 91.5 -41
t29.5 -72q0 -76 -76.5 -153t-157.5 -77l-16 -58zM136 40l53 164q-51 -7 -82 -34.5t-31 -60t16 -51t44 -18.5zM226 209l-54 -169q56 0 106.5 53t50.5 105q0 62 -78 82q-9 -22 -15 -43q20 0 27 -1l-5 -27h-32zM249 431l25 -3l60 137q-60 -7 -99 -46t-39 -90t48 -71l15 39
q-12 1 -21 7zM368 564l-58 -135q45 3 75.5 29.5t30.5 59.5q0 44 -48 46z" />
    <glyph glyph-name="percent" unicode="%" horiz-adv-x="542" 
d="M240.5 151.5q36.5 32.5 78 32.5t62 -17.5t20.5 -52t-37.5 -68t-86.5 -33.5q-73 0 -73 62q0 44 36.5 76.5zM254 83q0 -42 40 -42q20 0 38.5 22.5t18.5 47.5q0 49 -36 49q-24 0 -42.5 -24t-18.5 -53zM273 372q-39 -34 -79 -34q-77 0 -77 60q0 43 37 76t78 33t60.5 -16
t19.5 -42q0 -43 -39 -77zM266 444q0 42 -41 42q-21 0 -39.5 -24.5t-18.5 -60.5t36 -36q25 0 44 24.5t19 54.5zM539 507l27 -21l-18 -14q-340 -265 -516 -469l-37 32q22 33 123.5 134t229 207.5t191.5 130.5z" />
    <glyph glyph-name="ampersand" unicode="&#x26;" horiz-adv-x="510" 
d="M483 110l27 -17q-13 -43 -43.5 -68.5t-66.5 -25.5t-82 46q-53 -46 -139 -46t-133 41t-47 100.5t49 105t138 67.5q-19 54 -19 88q0 53 42.5 88.5t99.5 35.5t90.5 -25.5t33.5 -66.5q0 -87 -169 -130q49 -120 84 -172q23 33 53 123h32q-4 -29 -22.5 -74.5t-39.5 -74.5
q34 -43 59 -43q34 0 53 48zM353 477.5q-17 16.5 -46.5 16.5t-50.5 -23.5t-21 -52.5t17 -84q118 31 118 99q0 28 -17 44.5zM118.5 87q30.5 -36 92.5 -36t88 23q-53 81 -104 209q-46 -10 -76.5 -43t-30.5 -75t30.5 -78z" />
    <glyph glyph-name="quotesingle" unicode="'" horiz-adv-x="53" 
d="M95 610l-80 -122h-34l58 147z" />
    <glyph glyph-name="parenleft" unicode="(" horiz-adv-x="248" 
d="M263 676l40 -24q-124 -170 -179 -363.5t-55 -424.5h-44q-3 42 -3 86q0 209 63 402.5t178 323.5z" />
    <glyph glyph-name="parenright" unicode=")" horiz-adv-x="213" 
d="M-8 -136l-40 24q124 170 179 363.5t55 424.5h44q3 -42 3 -86q0 -209 -63 -402.5t-178 -323.5z" />
    <glyph glyph-name="asterisk" unicode="*" horiz-adv-x="208" 
d="M129 563l50 40l20 -30l-51 -34l60 10v-37l-64 -4l49 -42l-26 -25l-49 45v-63h-36v63l-42 -38l-26 27l40 30l-52 -9l-1 35q13 2 33.5 3.5t27.5 2.5l-44 34l24 38q8 -6 24 -21.5t25 -22.5q5 54 7 65l43 -10z" />
    <glyph glyph-name="plus" unicode="+" horiz-adv-x="261" 
d="M145 133h-47q2 69 4 95l-93 -11l-12 54q39 8 109 13q8 80 14 112l54 -12l-11 -91h97v-47l-104 -12z" />
    <glyph glyph-name="comma" unicode="," horiz-adv-x="134" 
d="M11.5 63.5q13.5 12.5 33 12.5t30.5 -11.5t11 -30.5q0 -44 -76 -99l-22 32q40 32 41 34q-31 10 -31 32q0 18 13.5 30.5z" />
    <glyph glyph-name="hyphen" unicode="-" horiz-adv-x="203" 
d="M206 293v-47l-207 -29l-12 54q86 17 219 22z" />
    <glyph glyph-name="period" unicode="." horiz-adv-x="131" 
d="M-1 35q0 17 12 29t29 12t29 -12t12 -29t-12 -29t-29 -12t-29 12t-12 29z" />
    <glyph glyph-name="slash" unicode="/" horiz-adv-x="408" 
d="M500 721l39 -21q-161 -214 -278.5 -402.5t-238.5 -423.5l-44 13q120 234 239.5 425t282.5 409z" />
    <glyph glyph-name="zero" unicode="0" horiz-adv-x="452" 
d="M417.5 460q33.5 -32 33.5 -92.5t-51 -147.5t-132.5 -151.5t-155.5 -64.5q-121 0 -121 135q0 79 50.5 161.5t130 137t156.5 54.5q56 0 89.5 -32zM340.5 227q30.5 67 30.5 117.5t-23 77t-63 26.5q-70 0 -139.5 -90.5t-69.5 -181.5q0 -49 23 -80.5t67.5 -31.5t94 48t80 115z
" />
    <glyph glyph-name="one" unicode="1" horiz-adv-x="218" 
d="M231 473q-3 -17 -41 -87q-120 -216 -127 -368l-64 -10q-6 16 -6 53q0 89 116 325q-38 -15 -62 -15t-45 8l22 51q12 -3 24 -3q32 0 65 20t51 45t31 25t25.5 -9t12.5 -20t-2 -15z" />
    <glyph glyph-name="two" unicode="2" horiz-adv-x="413" 
d="M213 454.5q69 37.5 115.5 37.5t73.5 -25t27 -71t-37 -83.5t-148 -94t-206 -138.5q137 21 255 21q27 0 43 -2v-63q-22 -4 -29.5 -3.5t-24.5 -0.5t-66 -3.5t-100.5 -7.5t-70 -7.5t-22.5 -2.5q-16 0 -28 20.5t-12 39.5q8 31 79.5 90t183.5 117q33 17 61 44t28 51
q0 46 -49 46q-65 0 -167 -84l-17 33q42 49 111 86.5z" />
    <glyph glyph-name="three" unicode="3" horiz-adv-x="407" 
d="M427 404q0 -49 -52.5 -88t-105.5 -55q41 -24 62.5 -45t21.5 -48q0 -66 -74 -115.5t-159 -49.5q-41 0 -81.5 13t-56.5 31l45 42q14 -14 37.5 -25t40.5 -11q59 0 107.5 30.5t48.5 73.5q0 26 -24 46t-64 31q-23 7 -23 23q0 22 90 43q33 8 61 26.5t28 41t-15.5 35t-38.5 12.5
t-70.5 -24.5t-98.5 -63.5l-16 33q42 50 114.5 88t116.5 38t75 -24.5t31 -57.5z" />
    <glyph glyph-name="four" unicode="4" horiz-adv-x="386" 
d="M159 40q0 53 29 128q-63 -5 -102.5 -13t-42.5 -8q-23 0 -35.5 17t-12.5 31.5t1 18.5q6 32 84 103.5t164 129.5t113 58q17 0 27.5 -11t10.5 -28.5t-19 -48t-32.5 -56.5t-22.5 -46q-18 -41 -29 -71q34 2 57 2t39 -2q-13 -65 -17 -68l-108 -2q-26 -47 -42 -157l-58 -9
q-4 13 -4 32zM213 237q23 62 94 194q-60 -31 -140 -101t-109 -116q102 18 155 23z" />
    <glyph glyph-name="five" unicode="5" horiz-adv-x="384" 
d="M433 422q-13 1 -60.5 1t-80 -4t-81.5 -17q-58 -85 -71 -120q27 3 48 3q68 0 116 -33t48 -82q0 -69 -72 -118t-164.5 -49t-129.5 48l42 38q12 -14 41 -25t53 -11q56 0 98 32t42 78q0 32 -37 53t-96 21t-59 36q0 16 28.5 65t32 56t11 18t10.5 14.5t10 11.5t12 12
q15 8 35 14q79 19 181 19h47z" />
    <glyph glyph-name="six" unicode="6" horiz-adv-x="401" 
d="M299 328q39 0 64.5 -23.5t25.5 -61.5q0 -81 -91.5 -159.5t-170.5 -78.5q-61 0 -95 32t-34 93q0 103 60 191t143 133.5t160 46.5l5 -40q-123 -28 -172 -69q-57 -50 -96 -138q98 74 201 74zM168 60q51 0 96.5 44.5t45.5 94.5q0 28 -20.5 44t-52.5 16t-88.5 -21.5
t-61.5 -48.5q-3 -15 -3 -28q0 -44 24.5 -72.5t59.5 -28.5z" />
    <glyph glyph-name="seven" unicode="7" horiz-adv-x="311" 
d="M372 486q18 -14 18 -34t-33 -45t-65.5 -53.5t-71 -70.5t-67.5 -83q-68 -98 -74 -191l-73 -7q2 77 64 198q30 61 85 123t125 106q-100 -1 -254 -41l-12 64q23 10 132.5 27t162 17t63.5 -10z" />
    <glyph glyph-name="eight" unicode="8" horiz-adv-x="436" 
d="M188 293q-45 39 -45 75q0 50 52 86.5t117.5 36.5t102 -25.5t36.5 -66.5q0 -69 -117 -105q57 -23 57 -76q0 -82 -88 -145.5t-174 -63.5q-62 0 -98.5 32t-36.5 86t53.5 100t140.5 66zM283 322q35 10 56 32.5t21 51.5q0 40 -53 40q-32 0 -53 -16.5t-21 -42.5q0 -42 50 -65z
M230 266q-63 -14 -105.5 -49t-42.5 -71.5t27 -60.5t70.5 -24t84.5 40.5t41 85.5q0 27 -18.5 49.5t-56.5 29.5z" />
    <glyph glyph-name="nine" unicode="9" horiz-adv-x="365" 
d="M113 184q-39 0 -64.5 23.5t-25.5 61.5q0 54 44 108.5t104.5 87.5t110.5 33q132 0 132 -116q0 -77 -38 -149t-96.5 -121t-128 -78t-132.5 -29h-9l-5 40q144 33 202 77q27 20 57 55t50 81q-98 -74 -201 -74zM262 450q-53 0 -106.5 -44t-53.5 -93q0 -28 20.5 -44t52.5 -16
q55 0 106.5 37t51.5 90q0 31 -20.5 50.5t-50.5 19.5z" />
    <glyph glyph-name="colon" unicode=":" horiz-adv-x="116" 
d="M16 211q0 17 11.5 28.5t28 11.5t28 -11.5t11.5 -28t-11.5 -28t-28.5 -11.5t-28 11t-11 28zM-18 39q0 17 11.5 28.5t28 11.5t28 -11.5t11.5 -28t-11.5 -28t-28.5 -11.5t-28 11t-11 28z" />
    <glyph glyph-name="semicolon" unicode=";" horiz-adv-x="116" 
d="M16 211q0 17 11.5 28.5t28 11.5t28 -11.5t11.5 -28t-11.5 -28t-28.5 -11.5t-28 11t-11 28zM33 76q19 0 32 -11.5t13 -30.5q0 -44 -76 -99l-22 32q40 32 41 34q-28 9 -28 30.5t10.5 33t29.5 11.5z" />
    <glyph glyph-name="less" unicode="&#x3c;" horiz-adv-x="248" 
d="M232 53q-21 7 -174 169l-50 54q195 171 219 183l23 -27q-144 -129 -163 -153q16 -26 55.5 -69t71.5 -73l31 -30z" />
    <glyph glyph-name="equal" unicode="=" horiz-adv-x="335" 
d="M314 335l4 -47l-235 -23l-3 54q57 17 137 17t97 -1zM89 166l43 -1q81 0 194 26l-4 46l-236 -16z" />
    <glyph glyph-name="greater" unicode="&#x3e;" horiz-adv-x="223" 
d="M140 279l-97 148l32 54q78 -98 145 -199l-183 -233l-32 23q8 29 103 162z" />
    <glyph glyph-name="question" unicode="?" horiz-adv-x="421" 
d="M238 604.5q62 29.5 112.5 29.5t81 -26.5t30.5 -69.5q0 -71 -90 -147l-65 -55q-99 -84 -134 -154q-7 -14 -15 -26l-38 17q20 71 163 217q48 49 62 69.5t14 42.5q0 47 -48 47q-61 0 -115.5 -40t-76.5 -118l-38 5q0 65 47.5 122t109.5 86.5zM73.5 76q13.5 12 33 12
t30.5 -9.5t11 -27t-13.5 -30.5t-33.5 -13q-41 0 -41 37q0 19 13.5 31z" />
    <glyph glyph-name="at" unicode="@" horiz-adv-x="492" 
d="M361 523q60 0 95.5 -34t35.5 -99t-54.5 -158t-141 -162t-160 -69t-105 38.5t-31.5 114.5t54 164.5t139 146.5t168 58zM365 207q51 92 51 169q0 52 -26 82t-74 30t-103.5 -47.5t-92.5 -120t-37 -134t26 -97t74 -35.5q69 0 143 93q-10 -2 -13 -2q-36 0 -36 42q0 17 9 46
l-22 -25q-56 -63 -105 -63q-46 0 -46 55q0 72 69.5 134t149.5 64l1 -22l-25 -6q-56 -14 -98 -54.5t-42 -80.5t28 -40t68 42t67 100l26 -17q-1 -3 -11 -26q-27 -64 -27 -81q0 -22 21 -22q6 0 25 16z" />
    <glyph glyph-name="A" unicode="A" horiz-adv-x="790" 
d="M746 298l-5 -60q-23 2 -49.5 2t-44.5 -1q-14 -110 -18 -239h-70q-6 26 -6 69t2.5 74.5t6.5 62.5t4 36q-14 1 -66 1t-72 -2q-116 -156 -214 -236.5t-196 -80.5q-48 0 -80.5 29t-32.5 77q0 91 138.5 166t358.5 101q26 40 97 123.5t140 145.5q30 70 47.5 97.5t34.5 27.5
t28 -13t11 -33.5t-22.5 -60t-46.5 -122t-33 -155.5q52 0 88 -9zM236 89q83 79 125 150q-168 -10 -259.5 -63t-91.5 -113q0 -26 17.5 -41t46.5 -15q78 0 162 82zM578 307q7 34 18.5 85.5t13.5 60.5q-48 -46 -67 -67.5t-67 -82.5q17 1 41.5 1.5t40.5 1.5t20 1z" />
    <glyph glyph-name="B" unicode="B" horiz-adv-x="667" 
d="M637 181l-1 -39l-55 -2q-12 -70 -38.5 -113t-88.5 -93t-148.5 -83.5t-144.5 -33.5t-88 23.5t-30 61.5q0 58 68.5 116.5t166 98t193.5 53.5q-15 25 -45.5 41t-103.5 36q-40 11 -40 36q0 15 12.5 27.5t42 30t56 36t59 44.5t54.5 54t22 49q0 35 -35 35q-27 0 -73.5 -25.5
t-91.5 -65.5l-43 -136q-45 -143 -99.5 -222t-103.5 -79q-52 0 -52 64t62 163.5t172 204.5q0 1 5.5 18.5t10.5 35.5q17 54 26 69l49 -8q0 -19 -8 -45q56 42 118.5 73.5t92 31.5t47.5 -18.5t18 -54t-33.5 -81.5t-83.5 -83q-91 -68 -155 -98q104 -16 152 -42.5t70 -79.5h64z
M151 158q70 113 93 232q-54 -59 -98 -135t-44 -110q0 -21 14.5 -21t34.5 34zM383 -56q49 33 78 74t29 77q0 17 -5 34q-150 -18 -247 -78.5t-97 -115.5q0 -24 19 -38.5t52 -14.5q81 0 171 62z" />
    <glyph glyph-name="C" unicode="C" horiz-adv-x="608" 
d="M500 632q37 0 57.5 -20.5t20.5 -55.5q0 -78 -93 -144.5t-212 -66.5q-52 0 -110 15q-38 -62 -38 -134.5t40 -117t117 -44.5q138 0 181 161h47q-11 -93 -87.5 -164t-201.5 -71q-66 0 -123 48.5t-57 140.5t70 201q-51 30 -81 74l27 30q7 -7 19 -21q23 -27 62 -47
q59 82 171.5 149t190.5 67zM270 385q87 0 153 41t66 96q0 19 -13.5 30.5t-34.5 11.5q-61 0 -136 -48.5t-119 -116.5q36 -14 84 -14z" />
    <glyph glyph-name="D" unicode="D" horiz-adv-x="684" 
d="M233 638q174 0 297.5 -103t123.5 -241t-84 -218t-213 -78q-69 1 -110 1h-47q-29 0 -29 22q0 8 17 41q56 112 85 229q-103 0 -193 57t-90 129.5t68 116.5t175 44zM229 597q-66 0 -104 -28t-38 -82.5t52.5 -97t140.5 -53.5q31 131 36 169l60 -6q0 -62 -26 -164q8 0 93 10
l5 -33q-20 -7 -111 -21q-39 -126 -81 -218q100 -8 166.5 -8t105.5 49.5t39 133.5q0 145 -99 247t-239 102z" />
    <glyph glyph-name="E" unicode="E" horiz-adv-x="669" 
d="M639 574q0 -50 -47.5 -89t-109 -57t-118.5 -18q-15 0 -22 1v34q2 0 58 9.5t94.5 33.5t38.5 54q0 36 -54 36q-73 0 -138 -50t-65 -105t68 -71q15 -4 20 -8t5 -14t-9.5 -16.5t-43.5 -18.5q-184 -63 -184 -196q0 -27 10 -46q61 78 158 127t187 49q47 0 75 -20.5t28 -56.5
q0 -56 -52 -112t-134.5 -91.5t-164 -35.5t-128.5 30q-1 -1 -9 -15q-20 -40 -34 -56l-33 14q7 28 41 85q-46 52 -46 116.5t52.5 123t146.5 96.5q-47 39 -47 81q0 57 60 116.5t146.5 96.5t162.5 37q40 0 64 -17.5t24 -46.5zM429 169q-59 0 -137.5 -45t-127.5 -107
q40 -45 113.5 -45t144 47.5t70.5 102.5q0 22 -17 34.5t-46 12.5z" />
    <glyph glyph-name="F" unicode="F" horiz-adv-x="763" 
d="M494 621l237 -7q18 0 45.5 8.5t36.5 8.5t14.5 -5.5t5.5 -13.5q0 -21 -19 -35.5t-50 -20.5q-58 -13 -103 -13q-61 -42 -119 -242q99 0 123 -3l-2 -47q-15 -1 -45 -1l-91 3q-56 -171 -151 -272t-201 -101q-65 0 -105 39t-40 103q0 103 123 187.5t303 89.5q61 192 143 244
l-161 6q-101 0 -150.5 -26t-49.5 -69q0 -23 19 -38.5t38 -15.5t28.5 1.5t24 7t20.5 7.5q21 7 51 22l21 -26q-76 -76 -166 -76q-40 0 -66 25t-26 63q0 83 85 140t227 57zM354 62q54 84 86 188q-124 -10 -218.5 -79t-94.5 -148q0 -31 21.5 -51t56.5 -20t76 29.5t73 80.5z" />
    <glyph glyph-name="G" unicode="G" horiz-adv-x="679" 
d="M525 -8l-15 -34q-98 17 -113 18q-49 -133 -140 -210t-204 -77q-61 0 -102 33t-41 82q0 86 118.5 151t287.5 65q23 0 35 -1q18 38 29 81q-64 -43 -136.5 -43t-121 51.5t-48.5 136t56.5 178t149 154.5t188.5 61q56 0 106 -19.5t75 -46.5l-54 -65q-41 32 -58 43
q-44 30 -94 30q-103 0 -191 -99.5t-88 -216.5q0 -64 36 -101t94.5 -37t105.5 28q58 153 108 153q29 0 29 -28t-21.5 -64.5t-55.5 -65.5q-41 -110 -48 -132q70 -8 113 -25zM102 -243q68 0 134.5 63t100.5 158q-135 0 -228.5 -45.5t-93.5 -110.5q0 -30 23.5 -47.5t63.5 -17.5z
" />
    <glyph glyph-name="H" unicode="H" horiz-adv-x="825" 
d="M750 637l45 -22q-67 -131 -139 -337q46 0 63 -4l-4 -57q-21 -7 -82 -7q-21 -58 -25 -94t-6.5 -70t-3.5 -46h-56q-5 17 -5 35q0 62 33 175q-60 0 -182 -14q-5 -16 -25 -59.5t-39.5 -75.5t-52.5 -70t-69 -64q-103 -74 -200 -74q-40 0 -66 25t-26 63q0 96 110.5 174.5
t306.5 125.5q74 216 208 308q-145 -2 -239 -49t-94 -120q0 -23 7 -39.5t33 -51.5l-34 -32q-44 28 -67 68t-23 77q0 62 66 114.5t164 81t199 28.5q51 0 70.5 -7.5t19.5 -28t-29 -38.5q-125 -78 -201 -296q59 10 183 22q48 140 77.5 207.5t82.5 151.5zM168.5 -45.5
q49.5 32.5 83 85t57.5 144.5q-133 -22 -214.5 -77.5t-81.5 -125.5q0 -28 16.5 -43.5t53 -15.5t86 32.5z" />
    <glyph glyph-name="I" unicode="I" horiz-adv-x="586" 
d="M589 616q17 -5 17 -18q0 -4 -12 -18q-46 -59 -64.5 -88t-44 -97t-46 -130.5t-20.5 -63.5q-41 -92 -113 -145t-151 -53q-56 0 -90.5 27.5t-34.5 73.5q0 72 93 132t186 60l4 -33q-74 -15 -127.5 -55t-53.5 -87q0 -30 17.5 -49t44.5 -19q51 0 88 47.5t75.5 168.5t70 177
t79.5 94q-14 1 -31 1q-86 0 -167.5 -27t-81.5 -72q0 -28 25 -53l-22 -27q-67 47 -67 109q0 41 35.5 71t95.5 46q115 31 258 31q31 0 37 -3z" />
    <glyph glyph-name="J" unicode="J" horiz-adv-x="702" 
d="M574 622q61 0 99.5 -7.5t38.5 -30.5q0 -20 -32 -39q-79 -48 -140.5 -155.5t-126.5 -317.5q59 0 89 -5l-6 -40q-28 5 -50 5t-49 -5q-31 -85 -65.5 -138t-88.5 -99t-120 -76t-112.5 -30t-73.5 25.5t-27 67.5q0 64 60 127t158.5 106t207.5 54q2 4 31 95q46 150 103.5 238.5
t138.5 146.5q-17 2 -45 2q-173 0 -284 -63t-111 -142q0 -51 30.5 -94.5t86.5 -89.5l-24 -33q-163 88 -163 222q0 78 66.5 142t175 99t233.5 35zM165.5 -216q50.5 32 95 94t62.5 142q-130 -13 -220.5 -74.5t-90.5 -137.5q0 -26 15 -41t42 -15q46 0 96.5 32z" />
    <glyph glyph-name="K" unicode="K" horiz-adv-x="797" 
d="M824 600l63 -31q-64 -104 -151.5 -185t-232.5 -161q28 -145 69 -232.5t107 -97.5v-46q-8 -1 -21 -1q-67 0 -129.5 93t-112.5 275q-43 -135 -131 -213.5t-183 -78.5q-49 0 -80.5 26.5t-31.5 73t42 96.5t115 84l23 -36q-90 -64 -90 -120q0 -27 18 -43.5t47 -16.5
q68 0 117.5 57.5t88.5 201.5q49 181 100 237q23 26 67 57q-69 -2 -141 -23.5t-126 -64t-54 -94.5q0 -67 61 -107l-20 -31q-56 27 -88 70t-32 89q0 63 69 119t169.5 87t197.5 31q60 0 60 -26q0 -17 -35 -43q-64 -48 -98.5 -125t-56.5 -180q114 42 218.5 139.5t181.5 219.5z
" />
    <glyph glyph-name="L" unicode="L" horiz-adv-x="581" 
d="M175 93l208 -6q44 0 85 29l27 -36q-20 -23 -32 -34.5t-35.5 -22.5t-52.5 -11l-187 8q-125 0 -122 -3q-37 1 -37 33q3 20 27 66.5t65 168.5q-62 0 -111 37l21 37q43 -28 105 -28q58 142 147 213t186 71q46 0 74 -23.5t28 -62.5q0 -84 -110.5 -157.5t-251.5 -82.5
q-46 -146 -103 -199q25 3 69 3zM414 561q-62 0 -115 -63t-76 -163q100 7 175 60t75 111q0 23 -17 39t-42 16z" />
    <glyph glyph-name="M" unicode="M" horiz-adv-x="807" 
d="M817 -103l-12 -37q-26 -2 -39 -2q-60 0 -97.5 50.5t-37.5 131.5q0 49 22.5 185.5t52.5 249.5q6 25 6 33t-7 8t-44.5 -74.5t-89.5 -183t-59.5 -124t-12 -25t-18 -34t-25.5 -43.5q-33 -50 -52 -50q-13 0 -28.5 7t-20.5 15q-11 17 -11 106q0 186 30 355q10 56 10 59
q0 10 -8 10q-16 0 -51 -100l-29 -83q-64 -181 -129.5 -282t-150.5 -142l-26 55q97 72 149.5 147t114.5 242l34 91q35 95 61 135.5t58 40.5q53 0 53 -64q0 -5 -19 -202.5t-19 -260.5q0 -18 6 -19q5 0 11 10q81 135 155 294q9 20 31 69t43 87t32 46.5t35 8.5t41.5 -17.5
t17.5 -41.5t-7 -55q-78 -381 -78 -455.5t24 -102t84 -38.5z" />
    <glyph glyph-name="N" unicode="N" horiz-adv-x="724" 
d="M676 611l58 -7q-18 -78 -48.5 -182.5t-55.5 -169t-54.5 -128t-62.5 -100t-64 -36.5t-45.5 23t-14.5 81.5t17 246t17.5 204t-8.5 16.5q-11 0 -26 -30.5t-23 -46.5q-21 -47 -27 -66q-56 -126 -100 -208t-101 -152q-20 -24 -57 -49t-69 -38l-22 59q83 35 150 121.5
t138.5 241.5t102.5 209q35 57 71 57q23 0 36 -16t13 -41.5t-17.5 -210.5t-17.5 -237t4.5 -67.5t15.5 -15.5q14 0 30 30q55 107 160 512z" />
    <glyph glyph-name="O" unicode="O" horiz-adv-x="694" 
d="M704 492v-48q-45 -26 -166 -71q-54 -135 -171 -251t-214 -116q-55 0 -89 39t-34 107.5t46 165t121 181t153 124.5q32 21 100 21q51 0 83.5 -39.5t32.5 -93t-8 -80.5q76 25 146 61zM307 527q-33 -34 -33 -65.5t32 -50t80.5 -18.5t84.5 9q6 30 6 58q0 99 -85 99
q-39 0 -85 -32zM320 149q98 97 137 202q-25 -5 -64 -5q-168 0 -190 75q-84 -117 -84 -230q0 -45 21.5 -72t63.5 -27q59 0 116 57z" />
    <glyph glyph-name="P" unicode="P" horiz-adv-x="658" 
d="M473 618.5q30 12.5 70.5 12.5t62.5 -28t22 -80q0 -93 -60 -200t-150 -179.5t-170 -72.5q-20 0 -46 2q-49 -104 -89 -157t-80 -53q-25 0 -39 18t-14 50q0 103 95 275.5t209 276.5q16 66 16 96.5t-2 46.5l72 12q0 -7 -9 -88q82 56 112 68.5zM132 145l28 -14q63 123 106 276
q-92 -115 -151 -234t-59 -183q0 -19 12 -19q9 0 32 37.5t39 76.5q-13 6 -25 18zM223 117l19 -1q97 0 182 102q48 59 81.5 135t33.5 129q0 29 -15.5 46t-42.5 17q-49 0 -130 -54q-18 -135 -128 -374z" />
    <glyph glyph-name="Q" unicode="Q" horiz-adv-x="665" 
d="M625 111l60 -34q-71 -104 -154 -104q-57 0 -97 39q-33 32 -78 94q-112 -105 -203 -105q-55 0 -89 39t-34 104t38.5 152t97.5 162.5t136.5 128t147.5 52.5q51 0 83.5 -39.5t32.5 -109t-46.5 -163.5t-120.5 -177q23 -32 38 -51.5t42.5 -41.5t54 -22t56.5 24.5t35 51.5z
M314 545q-71 -51 -125.5 -157.5t-54.5 -190.5q0 -58 26 -87q19 66 53 101.5t75 35.5q15 0 24 -3q22 -6 58 -55q44 59 72.5 130.5t28.5 125t-22.5 88t-62.5 34.5t-72 -22zM220 81l8 1q51 5 100 62q-28 34 -54 34q-14 0 -22.5 -3t-24.5 -25t-31 -65q14 -4 24 -4z" />
    <glyph glyph-name="R" unicode="R" horiz-adv-x="635" 
d="M500 -65l5 -47q-28 -5 -49 -5q-47 0 -90 62.5t-67.5 146.5t-30.5 162q-50 -130 -94.5 -188.5t-91.5 -58.5q-24 0 -38 19.5t-14 51.5q0 74 68.5 188t160.5 187q2 6 17.5 73t18.5 74l58 5q0 -17 -9 -71q135 103 222 103q41 0 65 -22.5t24 -60.5q0 -95 -96 -191.5
t-205 -113.5q8 -145 50.5 -227t95.5 -87zM209 269q27 72 37 115q-55 -51 -101.5 -136t-46.5 -126q0 -21 17 -21q30 0 94 168zM277 283q106 0 190 74t84 147q0 27 -13.5 42t-42.5 15t-84 -32.5t-79 -53.5q-31 -123 -55 -192z" />
    <glyph glyph-name="S" unicode="S" horiz-adv-x="627" 
d="M526 181l71 1v-41q-12 2 -28 2t-36 -2q0 -77 -74 -156t-178.5 -128.5t-194.5 -49.5q-47 0 -76.5 24t-29.5 63q0 58 77 121t180 104t186 48q-10 15 -31 26t-86 34.5t-92 52t-27 80.5t56 119t132.5 112.5t134.5 45.5q26 0 43 -18.5t17 -45.5q0 -44 -53 -110.5t-118 -101.5
l-24 34q39 20 68.5 62.5t29.5 73.5t-33 31q-47 0 -107.5 -58.5t-60.5 -109.5q0 -35 18 -55t91 -49.5t104 -52t41 -56.5zM80 -80q0 -48 78 -48q43 0 111.5 31.5t121 88t52.5 115.5q0 7 -3 21q-137 -13 -248.5 -77t-111.5 -131z" />
    <glyph glyph-name="T" unicode="T" horiz-adv-x="570" 
d="M449 555l-143 3q-219 0 -219 -96q0 -25 18.5 -40.5t55.5 -15.5t97 34l15 -26q-31 -33 -70 -52t-78 -19t-67 26t-28 65q0 79 85.5 138t231.5 59q12 0 86 -4t117 -4t79 13q14 4 17 4q14 0 14 -18q0 -26 -45.5 -47t-104.5 -21q-66 -64 -115.5 -223.5t-118 -243t-162.5 -83.5
q-37 0 -70 24l23 38q12 -6 27 -11l14 -2q5 -1 15 -1q50 0 89.5 48t83 181.5t68 177t85.5 96.5z" />
    <glyph glyph-name="U" unicode="U" horiz-adv-x="701" 
d="M563 78l32 -26q-12 -34 -41 -62.5t-63 -28.5q-46 0 -75 45t-38 130q-46 -50 -115 -94.5t-121 -44.5t-82 35t-30 90q0 125 122 297t247 245l27 -38q-114 -85 -209 -224t-95 -244q0 -39 18.5 -60.5t52 -21.5t93.5 39t90 73q5 97 46.5 197t99 163.5t107.5 63.5q42 0 42 -51
t-75 -170.5t-149 -189.5q-2 -16 -2 -26q0 -44 17.5 -91.5t46.5 -47.5q25 0 54 42zM578 518q-33 0 -73 -77.5t-51 -164.5q62 74 99.5 136.5t37.5 90.5q0 15 -13 15z" />
    <glyph glyph-name="V" unicode="V" horiz-adv-x="568" 
d="M549 612l29 -43q-103 -68 -222 -216.5t-186 -306.5q-14 -33 -24.5 -44t-30 -11t-35 13.5t-15.5 41t7.5 105t7.5 109.5q0 225 -50 363l73 20q57 -99 57 -357q0 -84 -3 -134q160 328 392 460z" />
    <glyph glyph-name="W" unicode="W" horiz-adv-x="789" 
d="M719 620l74 10q6 -27 6 -59q0 -80 -37.5 -182t-90.5 -185.5t-113 -141t-101 -57.5q-88 0 -88 138q0 66 47 274q-116 -164 -214 -287.5t-118.5 -123.5t-37 16t-16.5 33t6 34q43 129 56.5 242t13.5 202.5t-1 110.5h78q6 -32 6 -99.5t-16.5 -188t-40.5 -223.5q75 96 310 422
q27 39 43.5 51.5t40 12.5t23.5 -23q0 -9 -25 -86t-48 -191t-23 -173t30 -59q21 0 52 30q77 74 131 203.5t54 266.5q0 22 -1 33z" />
    <glyph glyph-name="X" unicode="X" horiz-adv-x="644" 
d="M326 345q50 49 286 295l42 -44q-47 -60 -170.5 -181.5t-132.5 -130.5q33 -71 66.5 -123t58.5 -89t30 -45l-54 -51q-74 76 -159 252q-34 -32 -81 -78t-70 -68q-55 -53 -119 -96l-33 45q3 3 103 88.5t174 167.5q-69 185 -92 310l76 14q48 -203 75 -266z" />
    <glyph glyph-name="Y" unicode="Y" horiz-adv-x="660" 
d="M320 9l30 -1q6 21 27.5 80t30.5 78q-104 -98 -161 -118q-31 -11 -63 -11q-53 0 -82 35t-29 98q0 90 83 240.5t189 235.5l40 -37q-222 -239 -222 -399q0 -93 73 -93t142 80t143 248q30 69 46 91t31 22t23.5 -9t8.5 -24q0 -64 -92 -190q-64 -132 -129 -328q47 -3 100 -23
l-10 -34l-106 15q-59 -144 -142.5 -215.5t-199.5 -71.5q-60 0 -100.5 32.5t-40.5 81.5q0 90 121 153.5t289 63.5zM96 -253q81 0 143.5 65.5t92.5 153.5q-134 0 -225 -45.5t-91 -110.5q0 -28 22.5 -45.5t57.5 -17.5z" />
    <glyph glyph-name="Z" unicode="Z" horiz-adv-x="658" 
d="M223 479l5 -45q0 -8 -5.5 -14.5t-12.5 -6.5q-19 0 -39 33t-20 62q0 63 74 85t208 22t164.5 -8.5t30.5 -47.5q0 -17 -16.5 -38t-65 -66t-165 -142t-177.5 -160t-78 -88q42 -2 54 -2q135 0 195 15t60 52l-5 45q0 8 5.5 14.5t12.5 6.5q19 0 39 -33t20 -62q0 -63 -74 -85
t-208 -22t-164.5 8.5t-30.5 47.5q0 27 77.5 101t196.5 174.5t162 142.5t66 76q-42 2 -54 2q-135 0 -195 -15t-60 -52z" />
    <glyph glyph-name="bracketleft" unicode="[" horiz-adv-x="355" 
d="M389 632l-109 5q-57 -153 -122.5 -370.5t-93.5 -353.5q22 3 129 14l6 -58l-154 -22q-7 -3 -15 -3q-34 0 -34 23q31 167 99 394.5t129 399.5q13 37 54 37q15 0 57.5 -6t65.5 -8z" />
    <glyph glyph-name="backslash" unicode="\" horiz-adv-x="263" 
d="M147 -94q-28 242 -101 496q-27 95 -87 288l39 9q78 -240 118.5 -407t68.5 -379z" />
    <glyph glyph-name="bracketright" unicode="]" horiz-adv-x="308" 
d="M257 655l-112 -5l-13 51q150 15 162 15q34 0 34 -27q0 -6 -1 -10q-36 -171 -95.5 -394.5t-122.5 -390.5q-14 -23 -47 -23l-140 13v58l145 -11q48 136 104.5 354t85.5 370z" />
    <glyph glyph-name="asciicircum" unicode="^" horiz-adv-x="414" 
d="M-2 197q7 21 170 173l53 51q171 -195 183 -219l-27 -23q-129 144 -153 163q-26 -16 -69 -55.5t-73 -70.5l-30 -32z" />
    <glyph glyph-name="underscore" unicode="_" horiz-adv-x="450" 
d="M461 -113l21 -48h-492l-15 48h486z" />
    <glyph glyph-name="grave" unicode="`" horiz-adv-x="196" 
d="M163 394l-171 56l68 40l132 -78z" />
    <glyph glyph-name="a" unicode="a" horiz-adv-x="469" 
d="M439 101l23 -17q-14 -30 -51.5 -57t-68.5 -27q-59 0 -59 62q0 29 15 69l-37 -38q-54 -55 -93.5 -74t-77.5 -19t-57.5 21.5t-19.5 59.5q0 70 54 138.5t138 111.5t168 44l2 -33l-42 -9q-91 -20 -160.5 -80t-69.5 -119.5t48 -59.5q45 0 111 63t110 148l42 -25
q-62 -125 -62 -159q0 -14 9.5 -23.5t19 -9.5t12.5 1t6 2.5t7.5 4.5t8 6t11.5 9t13 10z" />
    <glyph glyph-name="b" unicode="b" horiz-adv-x="431" 
d="M270.5 342.5q36.5 18.5 69 18.5t54 -22.5t21.5 -58.5q0 -93 -78 -195.5t-168 -102.5q-27 0 -51 10l24 44q16 -4 25 -4q61 0 111 68t50 134q0 21 -13.5 34.5t-34.5 13.5q-46 0 -107.5 -74t-107.5 -193l-61 25q30 153 120 373t150 311l51 -18q-66 -123 -140.5 -305
t-87.5 -247q41 72 89 121t84.5 67.5z" />
    <glyph glyph-name="c" unicode="c" horiz-adv-x="365" 
d="M281 142l24 -20q-24 -55 -77 -88t-102.5 -33t-82 31t-32.5 85t47 117t121.5 104t146.5 41q10 0 30 -2l-3 -39q-110 -5 -182.5 -67t-72.5 -132q0 -29 18 -47t47 -18q46 0 118 68z" />
    <glyph glyph-name="d" unicode="d" horiz-adv-x="559" 
d="M574 739l51 -18l-14 -26q-110 -205 -187 -397q-51 -126 -51 -189q0 -16 8 -25.5t25.5 -9.5t40.5 23l18 -17q-13 -29 -45 -53.5t-62 -24.5q-58 0 -58 68q0 40 22 123q-118 -206 -231 -206q-39 0 -62 24t-23 65q0 65 52 135t128 114.5t142 44.5l3 -35q-86 -11 -160.5 -74.5
t-74.5 -129.5q0 -28 15 -44.5t39 -16.5q49 0 128 105q29 38 66.5 111t60 117.5t44 87t56.5 112t69 136.5z" />
    <glyph glyph-name="e" unicode="e" horiz-adv-x="381" 
d="M290 118l23 -18q-31 -43 -85 -71.5t-105 -28.5t-82 30t-31 79q0 92 97.5 181t197.5 89q66 0 66 -52q0 -54 -69.5 -109t-195.5 -100q9 -23 28 -36t39 -13q43 0 117 49zM101 148q81 28 139 70t58 77q0 13 -10 23t-23 10q-47 0 -101.5 -58.5t-62.5 -121.5z" />
    <glyph glyph-name="f" unicode="f" horiz-adv-x="341" 
d="M224 393l-32 -121l130 15l-29 -47l-112 -15q-13 -54 -44 -163q-67 -236 -67 -299l-64 -33q0 86 74 332q38 123 47 158q-35 -9 -64 -9q-57 0 -57 45q0 25 38 60q55 51 131 90q59 201 85 252q35 69 64 88q43 27 89 27t65 -26t17 -61q-5 -126 -271 -293zM384 688
q-56 0 -83 -54q-21 -42 -37 -101t-23 -81q55 34 118 92t65 101t-40 43zM141 267l22 88q-38 -16 -59.5 -33t-21.5 -29q0 -26 59 -26z" />
    <glyph glyph-name="g" unicode="g" horiz-adv-x="449" 
d="M441 36l1 -24q-10 -6 -91 -36q-32 -191 -94 -276t-152 -85q-42 0 -67 27t-25 70q0 86 79 160.5t211 117.5q15 67 54 189q-67 -102 -121.5 -138t-98.5 -36t-66.5 24t-22.5 64q0 66 55 134.5t138.5 112t161.5 43.5l8 -35q-111 -12 -190.5 -78t-79.5 -127q0 -26 16 -43
t39 -17q34 0 103 72t97 123l37 -21q-55 -147 -76 -248zM297 -40q-87 -40 -144 -96t-57 -102q0 -24 14 -39t35 -15q42 0 83 59t69 193z" />
    <glyph glyph-name="h" unicode="h" horiz-adv-x="433" 
d="M396 73l23 -19q-42 -70 -109 -70q-58 0 -58 57q0 33 28.5 105.5t28.5 95.5q0 29 -37 29t-100.5 -79.5t-106.5 -184.5l-59 21q52 261 272 699l49 -16q-111 -222 -159 -353q-50 -136 -75 -225q77 127 132.5 176t96.5 49q74 0 74 -53q0 -33 -37 -118t-37 -113t27 -28
q14 0 47 27z" />
    <glyph glyph-name="i" unicode="i" horiz-adv-x="268" 
d="M214 424q-56 0 -56 45q0 25 14 42t36 17t36 -13t14 -34t-12 -39t-32 -18zM201 129l20 -17q-24 -46 -63.5 -78.5t-71.5 -32.5q-56 0 -56 78q0 97 80 253q18 34 21 40l43 -26q-21 -38 -51.5 -121t-30.5 -106.5t10 -33.5t24 -10q27 0 75 54z" />
    <glyph glyph-name="j" unicode="j" horiz-adv-x="403" 
d="M316 141q2 -18 2 -29q-53 -13 -96 -30q-37 -178 -96 -269t-150 -91q-45 0 -70.5 27t-25.5 74q0 85 74 154.5t215 119.5q45 171 108 336q19 50 21 60l50 -16q-28 -62 -68.5 -183t-48.5 -176zM165 58q-125 -62 -158 -98q-43 -47 -43 -98q0 -22 13 -35t35 -13
q45 0 86.5 68.5t66.5 175.5zM412.5 575q-10.5 -19 -34 -19t-40 13t-16.5 36.5t16 42t36.5 18.5t34.5 -14.5t14 -36t-10.5 -40.5z" />
    <glyph glyph-name="k" unicode="k" horiz-adv-x="453" 
d="M414 102l25 -22q-58 -95 -123 -95q-40 0 -82 59t-42 97q0 24 72 48q27 9 49.5 27.5t22.5 38.5t-11 30.5t-28 10.5q-110 -10 -230 -296l-61 21q0 43 116.5 348t165.5 369l49 -18q-135 -235 -226 -546q78 117 134 156t107 39q31 0 49.5 -19t18.5 -48.5t-14.5 -53.5
t-41.5 -42q-39 -26 -96 -51q9 -47 31 -71t50 -24q15 0 65 42z" />
    <glyph glyph-name="l" unicode="l" horiz-adv-x="271" 
d="M166 96l21 -17q-34 -53 -58.5 -76.5t-54.5 -23.5t-49 24t-19 60q0 70 92 301.5t189 407.5l44 -24q-98 -190 -177 -377.5t-79 -269.5q0 -47 35 -47q28 0 56 42z" />
    <glyph glyph-name="m" unicode="m" horiz-adv-x="722" 
d="M687 130l21 -20q-57 -102 -131 -102q-30 0 -46.5 16.5t-16.5 44t33 94.5t35 102q1 16 -9.5 26t-28.5 10t-36.5 -8.5t-36 -27.5t-32 -37t-32 -51t-29.5 -55q-21 -41 -60 -123l-60 21q0 3 33 113t33 131t-10 30.5t-25 9.5q-45 0 -124.5 -112t-101.5 -191l-57 19
q5 53 47 190.5t71 187.5l45 -16q-31 -69 -43 -116.5t-21 -101.5q86 123 144 172.5t105 49.5q51 0 51 -51q0 -20 -17.5 -79t-27.5 -93q138 222 247 222q27 0 43 -16.5t16 -49t-37.5 -107.5t-37.5 -94.5t8 -28.5t20 -9q26 0 68 50z" />
    <glyph glyph-name="n" unicode="n" horiz-adv-x="464" 
d="M429 121l21 -16q-22 -44 -60.5 -74t-69.5 -30t-49 18t-18 45t34.5 94.5t34.5 99.5q0 14 -11.5 25.5t-27.5 11.5q-51 0 -103 -77.5t-116 -223.5l-60 21q19 116 54.5 226.5t65.5 158.5l41 -13q-28 -71 -71 -245q138 236 254 236q25 0 41.5 -17t16.5 -40t-6 -41.5t-37.5 -86
t-31.5 -84.5t10 -26.5t19 -9.5t15 3t13.5 9t13.5 11t14.5 13.5t12.5 11.5z" />
    <glyph glyph-name="o" unicode="o" horiz-adv-x="331" 
d="M295 297q26 -43 26 -95q0 -81 -56 -144.5t-132 -63.5q-58 0 -90.5 33.5t-32.5 92.5q0 95 74 170.5t166 75.5q17 0 24 -1l3 -33q-80 0 -133 -46t-53 -118q0 -43 21 -69.5t61.5 -26.5t64.5 36t24 84.5t-19 88.5z" />
    <glyph glyph-name="p" unicode="p" horiz-adv-x="495" 
d="M291 339.5q56 41.5 98 41.5t65 -25.5t23 -64.5q0 -108 -77.5 -199.5t-174.5 -91.5q-43 0 -68 15l24 43q52 -7 65 -7q54 0 101 63t47 129q0 25 -14.5 41.5t-37.5 16.5q-55 0 -124.5 -97t-130 -240.5t-105.5 -305.5l-60 21q2 6 37.5 103.5t69.5 193.5q94 264 94 289
q0 64 -26 116l50 25q31 -43 31 -90.5t-19 -131.5q76 114 132 155.5z" />
    <glyph glyph-name="q" unicode="q" horiz-adv-x="422" 
d="M164 -348l-54 22q0 68 199 507q-76 -102 -127.5 -139.5t-91.5 -37.5q-78 0 -78 87q0 72 49.5 140t131.5 110.5t169 42.5l9 -35q-94 -2 -181.5 -62t-87.5 -143q0 -53 45 -53q33 0 72.5 37.5t84 92t71.5 74.5l39 -22q-221 -444 -250 -621z" />
    <glyph glyph-name="r" unicode="r" horiz-adv-x="355" 
d="M290 354q25 0 41 -17t16 -44q0 -54 -62 -114l-24 19q14 31 14 45q0 27 -30 27t-57 -38t-63.5 -117.5t-55.5 -112.5l-57 25q55 125 63 147q27 78 27 198l56 15q-3 -65 -9 -100.5t-29 -115.5q101 183 170 183z" />
    <glyph glyph-name="s" unicode="s" horiz-adv-x="331" 
d="M337 391l-9 -39q-17 2 -44 2q-100 0 -100 -66q0 -14 40.5 -82t40.5 -91q0 -54 -36.5 -84.5t-97.5 -30.5q-84 0 -135 93l38 27q14 -11 30 -26.5t24 -21.5q19 -17 42 -17t40 16.5t17 41t-43.5 91.5t-43.5 94q0 49 41.5 75t109 26t86.5 -8z" />
    <glyph glyph-name="t" unicode="t" horiz-adv-x="330" 
d="M244 112l22 -25q-25 -39 -60.5 -61t-71.5 -22t-57 20.5t-21 56.5q0 84 63 232q-51 -8 -102 -24l-7 39l-1 1q50 21 131 34q8 15 36 73q56 115 80 149l43 -17q-10 -22 -35 -73.5t-56 -116.5q45 3 71 3t40 -8v-43q-14 3 -40.5 3t-94.5 -9q-59 -132 -59 -192q0 -23 14.5 -38
t39 -15t65.5 33z" />
    <glyph glyph-name="u" unicode="u" horiz-adv-x="440" 
d="M411 110l21 -17q-17 -42 -53.5 -71t-66 -29t-46.5 20.5t-17 53.5t11 85q-47 -74 -101 -116t-91 -42q-56 0 -56 80q0 68 46 174t67 123l48 -21q-41 -66 -62 -130t-21 -85.5t13.5 -34.5t31.5 -13q40 0 99.5 73.5t121.5 219.5l51 -23q-2 -8 -45.5 -116t-43.5 -129.5
t9.5 -32.5t19 -11t14.5 1t10 4t8.5 5t8.5 7l8 7q2 3 7.5 9.5t7.5 8.5z" />
    <glyph glyph-name="v" unicode="v" horiz-adv-x="380" 
d="M337 358l34 -27q-133 -175 -180 -292q-16 -39 -46 -39q-19 0 -33.5 20t-19 36.5t-14.5 69.5t-22 110.5t-19.5 86t-10 37.5t-8.5 15.5t-7 8.5l65 -6q29 -71 46 -154q4 -17 14 -68.5t16 -80.5q55 106 96.5 172.5t88.5 110.5z" />
    <glyph glyph-name="w" unicode="w" horiz-adv-x="597" 
d="M578 389l28 -26l-60 -73q-106 -131 -157 -260q-13 -27 -26.5 -27t-22 3.5t-19 25.5t-14.5 53t-7 53t-4 32.5t-2.5 22t-2.5 17.5l-2 12t-3 11.5t-3 10t-4.5 15.5t-5.5 19q-52 -56 -89 -132q-14 -29 -55 -116q-9 -19 -24.5 -19t-25 3.5t-19.5 23.5t-15 60q-24 201 -46 274
q29 8 58 8q5 -9 13 -55q17 -89 43 -209q49 94 108.5 173.5t78.5 79.5q22 0 30.5 -30.5t15 -102t17.5 -119.5q94 161 215 272z" />
    <glyph glyph-name="x" unicode="x" horiz-adv-x="444" 
d="M197 167q-59 -53 -159 -173l-28 23q19 46 163 192q-38 92 -42 151l66 12q5 -7 39 -121q126 90 179 115l19 -27q-17 -14 -60 -43q-115 -78 -121 -84q54 -115 129 -198l-47 -30q-82 60 -138 183z" />
    <glyph glyph-name="y" unicode="y" horiz-adv-x="451" 
d="M421 63l3 -26q-4 -3 -93 -36q-12 -66 -30.5 -130.5t-37 -98t-43.5 -66.5q-50 -66 -135 -66q-42 0 -67 26t-25 71q0 173 290 278l54 190q-86 -129 -155 -159q-34 -16 -71.5 -16t-60 24t-22.5 70t31.5 128.5t70.5 138.5l49 -21q-3 -3 -28 -53q-44 -91 -44 -135t17 -59
t50 -15t74.5 39.5t128.5 156.5l36 -21q-8 -33 -35.5 -119.5t-37.5 -132.5zM277 -15q-63 -29 -111 -66q-90 -68 -90 -132q0 -24 14 -39t35 -15q100 0 152 252z" />
    <glyph glyph-name="z" unicode="z" horiz-adv-x="419" 
d="M355 74l-1 -42q-23 -1 -63 -2t-55.5 -1.5t-42.5 -2.5q-46 -3 -85 -12q-49 -11 -53 -11q-19 0 -38.5 23t-19.5 45q0 42 300 253q-13 1 -59.5 1t-161.5 -20l-6 34q68 41 254 41q39 0 55.5 -6t16.5 -27q0 -23 -26 -42q-5 -4 -16.5 -11t-41.5 -28t-60.5 -43.5t-77.5 -67.5
t-90 -99q138 22 186.5 22t84.5 -4z" />
    <glyph glyph-name="braceleft" unicode="{" horiz-adv-x="291" 
d="M295 713l-7 -62q-66 -37 -84 -136l-14 -84q-19 -104 -80 -147q43 -40 43 -82.5t-35.5 -118t-35.5 -112t17 -66.5l-14 -54q-47 48 -47 111q0 43 29 122t29 112q0 62 -69 96q82 11 108 136q11 53 23 108.5t45.5 105t91.5 71.5z" />
    <glyph glyph-name="bar" unicode="|" horiz-adv-x="164" 
d="M67 -22l-34 -10q10 211 30.5 354t75.5 320l39 -9q-49 -129 -79.5 -330.5t-31.5 -324.5z" />
    <glyph glyph-name="braceright" unicode="}" horiz-adv-x="305" 
d="M-10 -166l21 68q46 42 67 86t23 80t3 70q4 81 78 135q-26 23 -26 57.5t29 114.5t29 123.5t-28 78.5l5 68q73 -45 73 -128q0 -46 -28.5 -133.5t-28.5 -117.5q0 -55 58 -71q-47 -6 -68.5 -36.5t-30 -78t-19.5 -99.5t-49.5 -112t-107.5 -105z" />
    <glyph glyph-name="asciitilde" unicode="~" horiz-adv-x="450" 
d="M392 333l21 -48q-85 -87 -118 -87q-21 0 -41.5 17t-34.5 38t-34 38t-36 17t-33 -10q-23 -16 -69 -58l-15 48q51 45 82.5 65.5t55 20.5t45.5 -16.5t35 -35.5q37 -53 66 -53q15 0 30 15q20 20 46 49z" />
    <glyph glyph-name="uni007F" 
 />
    <glyph glyph-name="exclamdown" unicode="&#xa1;" horiz-adv-x="304" 
d="M202 536l47 -29q-119 -202 -191 -496h-56q84 332 200 525zM288 626.5q13 -12.5 13 -31t-13 -31.5t-31.5 -13t-31 13t-12.5 31.5t12.5 31t31 12.5t31.5 -12.5z" />
    <glyph glyph-name="cent" unicode="&#xa2;" horiz-adv-x="425" 
d="M307 468l38 -10q-4 -8 -24 -50q20 2 34 2t23 -3l-3 -40h-31q-2 0 -44 -6q-49 -117 -80 -262q24 0 63 18.5t66 43.5l24 -20q-29 -50 -77 -79.5t-94 -34.5q-12 -58 -17 -86l-43 4l18 82q-53 6 -86.5 32.5t-33.5 76.5q0 83 70 159t165 104q23 54 32 69zM161 266
q-34 -49 -34 -97.5t52 -63.5q33 139 72 238q-56 -28 -90 -77z" />
    <glyph glyph-name="sterling" unicode="&#xa3;" horiz-adv-x="554" 
d="M162 4l-73 -2q-28 0 -45 7t-17 16.5t10 24.5q43 128 65 174q-68 0 -128 -38l-17 42q49 53 165 53q118 326 350 326q42 0 67 -19t25 -51q0 -53 -49 -95.5t-106 -62.5t-102 -21q-2 9 -4 33q82 13 123.5 44.5t41.5 68.5q0 23 -17.5 38.5t-44.5 15.5q-64 0 -115 -64.5
t-94 -215.5q33 -1 106 -1t100 9l21 -47q-53 -19 -247 -19q-33 -95 -88 -150q147 -10 280 -10q46 0 93 29l21 -33q-27 -36 -51.5 -46.5t-57.5 -10.5z" />
    <glyph glyph-name="currency" unicode="&#xa4;" horiz-adv-x="571" 
d="M90 353q0 57 35 110l-66 68l49 47l66 -64q49 35 112 35q59 0 110 -35l67 64l48 -47l-64 -67q35 -54 35 -111q0 -63 -35 -112l63 -66l-47 -47l-67 64q-50 -34 -110 -34q-64 0 -112 35l-66 -64l-48 47l65 66q-35 53 -35 111zM157 353q0 -54 37.5 -91.5t91.5 -37.5t92 37
t38 92q0 56 -38 93.5t-92 37.5t-91.5 -38t-37.5 -93z" />
    <glyph glyph-name="yen" unicode="&#xa5;" horiz-adv-x="574" 
d="M161 264l-155 -9l-3 32q34 5 159 12q0 63 -17 160.5t-32 144.5l59 21q23 -45 41 -147.5t18 -170.5q66 93 143 171t145 126l41 -46q-54 -41 -131.5 -116.5t-134.5 -143.5q62 0 143 -9l-6 -36q-106 8 -162 10q-30 -52 -36 -70l186 -10l-6 -36q-65 7 -193 11
q-15 -37 -53 -161l-68 19q43 107 48 143q-33 0 -131 -7l-3 36l140 6q8 53 8 63v7z" />
    <glyph glyph-name="brokenbar" unicode="&#xa6;" horiz-adv-x="172" 
d="M103 387h-39q18 83 51 189l39 -9q-29 -74 -51 -180zM52 267h36q-19 -152 -19 -237l-34 -10q6 146 17 247z" />
    <glyph glyph-name="section" unicode="&#xa7;" horiz-adv-x="610" 
d="M423 516l15 32q45 3 75.5 29t30.5 63q0 46 -61.5 46t-110 -40.5t-48.5 -96.5q0 -28 20 -51t76 -35t85.5 -34.5t29.5 -64.5q0 -62 -53.5 -129t-134.5 -91q39 -25 53 -45t14 -48q0 -59 -47 -109t-112.5 -75.5t-121.5 -25.5t-89.5 19.5t-33.5 58.5q0 53 58 97.5t148 51.5
l-9 -25q-10 -2 -34.5 -14t-39.5 -23t-27.5 -29t-12.5 -38q0 -50 66 -50t126.5 42t60.5 92q0 30 -27.5 52.5t-100.5 37.5q-100 20 -100 93q0 63 66 131.5t144 87.5q-61 22 -72 48q-5 12 -5 30q0 78 86 156t190 78q92 0 92 -71q0 -58 -55 -104t-141 -46zM450 323
q0 34 -25.5 55t-57.5 21q-59 0 -113 -53t-54 -111q0 -35 22.5 -54t59.5 -19q64 0 116 49.5t52 111.5z" />
    <glyph glyph-name="dieresis" unicode="&#xa8;" horiz-adv-x="210" 
d="M-4 443q0 17 11.5 28.5t28 11.5t28 -11.5t11.5 -28t-11.5 -28t-28.5 -11.5t-28 11t-11 28zM123 443q0 17 11.5 28.5t27.5 11.5t28 -11.5t12 -28t-11.5 -28t-28 -11.5t-28 11t-11.5 28z" />
    <glyph glyph-name="copyright" unicode="&#xa9;" horiz-adv-x="486" 
d="M455.5 487q35.5 -34 35.5 -99t-54.5 -158t-141 -162t-160 -69t-105 38.5t-31.5 114.5t54 164.5t139 146.5t168 58q60 0 95.5 -34zM380.5 236.5q34.5 75.5 34.5 132.5t-26 87t-74 30t-103.5 -47.5t-92.5 -120t-37 -134t26 -97t76 -35.5t106 54.5t90.5 130zM311 233l17 -14
q-17 -38 -53.5 -61t-71.5 -23t-57.5 21.5t-22.5 54.5q0 66 71.5 127t150.5 61q10 0 18 -2l-2 -27l-21 -1q-62 -3 -109 -46.5t-47 -91.5q0 -19 13 -32t32 -13q33 0 82 47z" />
    <glyph glyph-name="ordfeminine" unicode="&#xaa;" horiz-adv-x="356" 
d="M261 389l-12 42q-46 -48 -114 -48q-47 0 -75 24.5t-28 74.5t38.5 76t119.5 29l56 2v22q0 30 -19 44.5t-52 14.5q-49 0 -101 -26q-13 30 -22 49q60 29 125 29t98 -27t33 -86v-220h-47zM96 482q0 -48 54 -48q96 0 96 87v23l-48 -2q-54 -2 -78 -16t-24 -44z" />
    <glyph glyph-name="guillemotleft" unicode="&#xab;" horiz-adv-x="382" 
d="M197 397q-99 -94 -110 -110q23 -38 83 -97l20 -19l-14 -50q-16 6 -130 127l-38 41q147 129 165 138zM356 397q-99 -94 -110 -110q23 -38 84 -97l19 -19l-14 -50q-16 6 -130 127l-38 41q147 129 165 138z" />
    <glyph glyph-name="logicalnot" unicode="&#xac;" horiz-adv-x="571" 
d="M520 388v-260h-71v189h-399v71h470z" />
    <glyph glyph-name="uni00AD" unicode="&#xad;" horiz-adv-x="321" 
d="M40 229v78h242v-78h-242z" />
    <glyph glyph-name="registered" unicode="&#xae;" horiz-adv-x="495" 
d="M362 523q60 0 95.5 -34t35.5 -99t-54.5 -158t-141 -162t-160 -69t-105 38.5t-31.5 114.5t54 164.5t139 146.5t168 58zM349 179q68 104 68 197q0 52 -26 82t-74 30t-103.5 -47.5t-92.5 -120t-37 -134t26 -97t78 -35.5t112 63q-26 6 -50 44.5t-24 67.5q0 24 54 39
q20 5 37 17.5t17 26.5q0 30 -26 30q-75 -7 -154 -216l-41 16q0 35 80 260h36q-28 -79 -46 -149l25 39q64 101 137 103q21 0 33.5 -13.5t12.5 -36.5q0 -38 -37.5 -67t-76.5 -39q4 -35 19.5 -52t34.5 -17q5 0 18 9z" />
    <glyph glyph-name="macron" unicode="&#xaf;" horiz-adv-x="167" 
d="M247 465v-36l-177 -6l-9 31q33 7 186 11z" />
    <glyph glyph-name="degree" unicode="&#xb0;" horiz-adv-x="186" 
d="M150 488q-39 -34 -79 -34q-77 0 -77 60q0 43 37 76t78 33t60.5 -16t19.5 -42q0 -43 -39 -77zM143 560q0 42 -41 42q-21 0 -39.5 -24.5t-18.5 -60.5t36 -36q25 0 44 24.5t19 54.5z" />
    <glyph glyph-name="plusminus" unicode="&#xb1;" horiz-adv-x="261" 
d="M146 200h-47q2 69 4 95l-93 -11l-12 54q39 8 109 13q8 80 14 112l54 -12l-11 -91h97v-47l-104 -12zM259 165v-47l-239 -23l-12 54q54 11 144 13t107 3z" />
    <glyph glyph-name="uni00B2" unicode="&#xb2;" horiz-adv-x="350" 
d="M306 286h-282v54l115 112q62 60 79.5 87.5t17.5 61.5q0 32 -18.5 48t-48.5 16t-54.5 -11.5t-50.5 -31.5l-35 46q65 55 141 55q64 0 100.5 -32t36.5 -86q0 -22 -6 -41.5t-18.5 -39.5t-33 -42.5t-138.5 -133.5h195v-62z" />
    <glyph glyph-name="uni00B3" unicode="&#xb3;" horiz-adv-x="350" 
d="M308 613q0 -74 -74 -102q87 -21 87 -102q0 -62 -45 -96.5t-128 -34.5q-74 0 -131 28v63q69 -34 132 -34q100 0 100 76q0 69 -110 69h-57v55h57q50 0 73.5 19t23.5 51q0 29 -19 45t-51 16q-51 0 -111 -38l-36 46q36 27 71 38t75 11q66 0 104.5 -29.5t38.5 -80.5z" />
    <glyph glyph-name="acute" unicode="&#xb4;" horiz-adv-x="196" 
d="M192 450l-171 -56l-29 18l132 78z" />
    <glyph glyph-name="mu" unicode="&#xb5;" horiz-adv-x="489" 
d="M466 123l21 -17q-17 -42 -53.5 -71t-66 -29t-46.5 20.5t-17 53.5t11 85q-53 -84 -90 -123.5t-70 -39.5q-23 0 -41 24q-6 9 -8 10q-35 -158 -44 -204l-64 -13q14 88 47 218t72.5 229t62.5 118l48 -21q-41 -66 -62 -130t-21 -85.5t13.5 -34.5t31.5 -13q40 0 99.5 73.5
t121.5 219.5l51 -23q-2 -8 -45.5 -116t-43.5 -129.5t9.5 -32.5t19 -11t14.5 1t10 4t8.5 5t8.5 7l7 8q3 2 8.5 8.5t7.5 8.5z" />
    <glyph glyph-name="paragraph" unicode="&#xb6;" horiz-adv-x="654" 
d="M549 -127h-58v831h-102v-831h-58v400q-30 -9 -71 -9q-105 0 -155 61t-50 184q0 127 53.5 189t166.5 62h274v-887z" />
    <glyph glyph-name="periodcentered" unicode="&#xb7;" horiz-adv-x="72" 
d="M-10 324q0 19 13.5 32.5t32.5 13.5t32.5 -13.5t13.5 -32.5t-13.5 -32.5t-32.5 -13.5t-32.5 13.5t-13.5 32.5z" />
    <glyph glyph-name="cedilla" unicode="&#xb8;" horiz-adv-x="179" 
d="M69 -55q24 13 56.5 13t49 -13t16.5 -33q0 -37 -53 -73t-115 -36q-11 0 -24 3l1 24q51 0 86 22t35 46q0 8 -7.5 14t-18 6t-31.5 -14q-24 -13 -31 -13t-12 4t-5 11q0 12 36 83l11 23h38z" />
    <glyph glyph-name="uni00B9" unicode="&#xb9;" horiz-adv-x="350" 
d="M167 714h73v-428h-71v276q0 33 4 89q-15 -14 -26.5 -23t-74.5 -55l-35 49z" />
    <glyph glyph-name="ordmasculine" unicode="&#xba;" horiz-adv-x="375" 
d="M345 553q0 -80 -42 -125t-116 -45q-71 0 -113 45t-42 125q0 81 41 125t116 44q73 0 114.5 -44.5t41.5 -124.5zM95 553q0 -59 21.5 -88t71.5 -29q49 0 71 29t22 88t-22 87.5t-71 28.5t-71 -28.5t-22 -87.5z" />
    <glyph glyph-name="guillemotright" unicode="&#xbb;" horiz-adv-x="392" 
d="M195 289l-131 -167l-26 35q6 22 69 101l21 26q-15 24 -37.5 51t-31.5 43l33 53q55 -70 103 -142zM375 289l-131 -167l-26 35q6 22 69 101l21 26q-15 24 -37.5 51t-31.5 43l33 53q55 -70 103 -142z" />
    <glyph glyph-name="onequarter" unicode="&#xbc;" horiz-adv-x="790" 
d="M736 96h-61v-96h-75v96h-195v52l197 283h73v-275h61v-60zM600 156v93q0 52 3 101q-4 -9 -48 -77l-80 -117h125zM850 510l32 -34q-274 -185 -530 -461l-37 29q198 230 535 466zM165 714h73v-428h-71v276q0 33 4 89q-15 -14 -26.5 -23t-74.5 -55l-35 49z" />
    <glyph glyph-name="onehalf" unicode="&#xbd;" horiz-adv-x="790" 
d="M820 510l32 -34q-274 -185 -530 -461l-37 29q198 230 535 466zM152 714h73v-428h-71v276q0 33 4 89q-15 -14 -26.5 -23t-74.5 -55l-35 49zM727 0h-282v54l115 112q62 60 79.5 87.5t17.5 61.5q0 32 -18.5 48t-48.5 16t-54.5 -11.5t-50.5 -31.5l-35 46q65 55 141 55
q64 0 100.5 -32t36.5 -86q0 -22 -6 -41.5t-18.5 -39.5t-33 -42.5t-138.5 -133.5h195v-62z" />
    <glyph glyph-name="threequarters" unicode="&#xbe;" horiz-adv-x="790" 
d="M772 96h-61v-96h-75v96h-195v52l197 283h73v-275h61v-60zM636 156v93q0 52 3 101q-4 -9 -48 -77l-80 -117h125zM894 510l32 -34q-274 -185 -530 -461l-37 29q198 230 535 466zM307 613q0 -74 -74 -102q87 -21 87 -102q0 -62 -45 -96.5t-128 -34.5q-74 0 -131 28v63
q69 -34 132 -34q100 0 100 76q0 69 -110 69h-57v55h57q50 0 73.5 19t23.5 51q0 29 -19 45t-51 16q-51 0 -111 -38l-36 46q36 27 71 38t75 11q66 0 104.5 -29.5t38.5 -80.5z" />
    <glyph glyph-name="questiondown" unicode="&#xbf;" horiz-adv-x="441" 
d="M294 37.5q-62 -29.5 -112.5 -29.5t-81 26.5t-30.5 69.5q0 71 90 147l65 55q99 84 134 154q7 14 15 26l38 -17q-20 -71 -163 -217q-48 -49 -62 -69.5t-14 -42.5q0 -47 48 -47q61 0 115.5 40t76.5 118l38 -5q0 -65 -47.5 -122t-109.5 -86.5zM458.5 566q-13.5 -12 -33 -12
t-30.5 9.5t-11 27t13.5 30.5t33.5 13q41 0 41 -37q0 -19 -13.5 -31z" />
    <glyph glyph-name="Agrave" unicode="&#xc0;" horiz-adv-x="810" 
d="M756 298l-5 -60q-23 2 -49.5 2t-44.5 -1q-14 -110 -18 -239h-70q-6 26 -6 69t2.5 74.5t6.5 62.5t4 36q-14 1 -66 1t-72 -2q-116 -156 -214 -236.5t-196 -80.5q-48 0 -80.5 29t-32.5 77q0 91 138.5 166t358.5 101q26 40 97 123.5t140 145.5q30 70 47.5 97.5t34.5 27.5
t28 -13t11 -33.5t-22.5 -60t-46.5 -122t-33 -155.5q52 0 88 -9zM246 89q83 79 125 150q-168 -10 -259.5 -63t-91.5 -113q0 -26 17.5 -41t46.5 -15q78 0 162 82zM588 307q7 34 18.5 85.5t13.5 60.5q-48 -46 -67 -67.5t-67 -82.5q17 1 41.5 1.5t40.5 1.5t20 1zM777 726
l-171 56l68 40l132 -78z" />
    <glyph glyph-name="Aacute" unicode="&#xc1;" horiz-adv-x="810" 
d="M756 298l-5 -60q-23 2 -49.5 2t-44.5 -1q-14 -110 -18 -239h-70q-6 26 -6 69t2.5 74.5t6.5 62.5t4 36q-14 1 -66 1t-72 -2q-116 -156 -214 -236.5t-196 -80.5q-48 0 -80.5 29t-32.5 77q0 91 138.5 166t358.5 101q26 40 97 123.5t140 145.5q30 70 47.5 97.5t34.5 27.5
t28 -13t11 -33.5t-22.5 -60t-46.5 -122t-33 -155.5q52 0 88 -9zM246 89q83 79 125 150q-168 -10 -259.5 -63t-91.5 -113q0 -26 17.5 -41t46.5 -15q78 0 162 82zM588 307q7 34 18.5 85.5t13.5 60.5q-48 -46 -67 -67.5t-67 -82.5q17 1 41.5 1.5t40.5 1.5t20 1zM794 777
l-171 -56l-29 18l132 78z" />
    <glyph glyph-name="Acircumflex" unicode="&#xc2;" horiz-adv-x="810" 
d="M756 298l-5 -60q-23 2 -49.5 2t-44.5 -1q-14 -110 -18 -239h-70q-6 26 -6 69t2.5 74.5t6.5 62.5t4 36q-14 1 -66 1t-72 -2q-116 -156 -214 -236.5t-196 -80.5q-48 0 -80.5 29t-32.5 77q0 91 138.5 166t358.5 101q26 40 97 123.5t140 145.5q30 70 47.5 97.5t34.5 27.5
t28 -13t11 -33.5t-22.5 -60t-46.5 -122t-33 -155.5q52 0 88 -9zM246 89q83 79 125 150q-168 -10 -259.5 -63t-91.5 -113q0 -26 17.5 -41t46.5 -15q78 0 162 82zM588 307q7 34 18.5 85.5t13.5 60.5q-48 -46 -67 -67.5t-67 -82.5q17 1 41.5 1.5t40.5 1.5t20 1zM550 750
l147 114q108 -86 129 -108l-30 -24q-85 51 -103 64l-99 -70z" />
    <glyph glyph-name="Atilde" unicode="&#xc3;" horiz-adv-x="810" 
d="M756 298l-5 -60q-23 2 -49.5 2t-44.5 -1q-14 -110 -18 -239h-70q-6 26 -6 69t2.5 74.5t6.5 62.5t4 36q-14 1 -66 1t-72 -2q-116 -156 -214 -236.5t-196 -80.5q-48 0 -80.5 29t-32.5 77q0 91 138.5 166t358.5 101q26 40 97 123.5t140 145.5q30 70 47.5 97.5t34.5 27.5
t28 -13t11 -33.5t-22.5 -60t-46.5 -122t-33 -155.5q52 0 88 -9zM246 89q83 79 125 150q-168 -10 -259.5 -63t-91.5 -113q0 -26 17.5 -41t46.5 -15q78 0 162 82zM588 307q7 34 18.5 85.5t13.5 60.5q-48 -46 -67 -67.5t-67 -82.5q17 1 41.5 1.5t40.5 1.5t20 1zM793 816l23 -19
q-19 -30 -43.5 -51t-45 -21t-44.5 34.5t-44 34.5q-10 0 -20 -7t-15.5 -11t-15.5 -12t-16 -12l-28 26q74 65 99.5 65t54.5 -35t44 -35q10 0 26.5 18t24.5 25z" />
    <glyph glyph-name="Adieresis" unicode="&#xc4;" horiz-adv-x="810" 
d="M756 298l-5 -60q-23 2 -49.5 2t-44.5 -1q-14 -110 -18 -239h-70q-6 26 -6 69t2.5 74.5t6.5 62.5t4 36q-14 1 -66 1t-72 -2q-116 -156 -214 -236.5t-196 -80.5q-48 0 -80.5 29t-32.5 77q0 91 138.5 166t358.5 101q26 40 97 123.5t140 145.5q30 70 47.5 97.5t34.5 27.5
t28 -13t11 -33.5t-22.5 -60t-46.5 -122t-33 -155.5q52 0 88 -9zM246 89q83 79 125 150q-168 -10 -259.5 -63t-91.5 -113q0 -26 17.5 -41t46.5 -15q78 0 162 82zM588 307q7 34 18.5 85.5t13.5 60.5q-48 -46 -67 -67.5t-67 -82.5q17 1 41.5 1.5t40.5 1.5t20 1zM594.5 762.5
q-11.5 11.5 -11.5 28t11.5 28t27.5 11.5t28 -12t12 -28t-11.5 -27.5t-28 -11.5t-28 11.5zM721 762.5q-11 11.5 -11 28t11.5 28t28 11.5t28 -12t11.5 -28t-11.5 -27.5t-28.5 -11.5t-28 11.5z" />
    <glyph glyph-name="Aring" unicode="&#xc5;" horiz-adv-x="810" 
d="M756 298l-5 -60q-23 2 -49.5 2t-44.5 -1q-14 -110 -18 -239h-70q-6 26 -6 69t2.5 74.5t6.5 62.5t4 36q-14 1 -66 1t-72 -2q-116 -156 -214 -236.5t-196 -80.5q-48 0 -80.5 29t-32.5 77q0 91 138.5 166t358.5 101q26 40 97 123.5t140 145.5q30 70 47.5 97.5t34.5 27.5
t28 -13t11 -33.5t-22.5 -60t-46.5 -122t-33 -155.5q52 0 88 -9zM246 89q83 79 125 150q-168 -10 -259.5 -63t-91.5 -113q0 -26 17.5 -41t46.5 -15q78 0 162 82zM588 307q7 34 18.5 85.5t13.5 60.5q-48 -46 -67 -67.5t-67 -82.5q17 1 41.5 1.5t40.5 1.5t20 1zM758.5 832
q15.5 -13 15.5 -39.5t-26 -49.5t-56 -23t-45.5 13.5t-15.5 40.5t25.5 49t56 22t46 -13zM722 759q13 19 13 43t-21 24q-17 0 -31 -19.5t-14 -43t24 -23.5q16 0 29 19z" />
    <glyph glyph-name="AE" unicode="&#xc6;" horiz-adv-x="1177" 
d="M1178 575q0 -50 -47.5 -89t-109 -57t-118.5 -18q-15 0 -22 1v34q2 0 58 9.5t94.5 33.5t38.5 54q0 36 -54 36q-73 0 -138 -50t-65 -105t68 -71q15 -4 20 -8t5 -14t-9.5 -16.5t-43.5 -18.5q-184 -63 -184 -196q0 -27 10 -46q61 78 158 127t187 49q47 0 75 -20.5t28 -56.5
q0 -56 -52 -112t-134.5 -91.5t-164.5 -35.5t-128 30q-1 -1 -8 -16q-21 -39 -35 -55l-33 14q7 28 41 85q-54 40 -54 144q0 51 15 126q-14 1 -66 1t-72 -2q-116 -156 -214 -236.5t-196 -80.5q-48 0 -80.5 29t-32.5 77q0 91 138.5 166t358.5 101q26 40 97 123.5t140 145.5
q30 70 47.5 97.5t34.5 27.5t28 -13t11 -33.5t-19 -53.5q-59 -104 -93 -345q46 37 110 62q-47 39 -47 81q0 57 60 116.5t146.5 96.5t162.5 37q40 0 64 -17.5t24 -46.5zM246 89q83 79 125 150q-168 -10 -259.5 -63t-91.5 -113q0 -26 17.5 -41t46.5 -15q78 0 162 82zM968 170
q-59 0 -137.5 -45t-127.5 -107q40 -45 113.5 -45t144 47.5t70.5 102.5q0 22 -17 34.5t-46 12.5zM588 307q7 34 18.5 85.5t13.5 60.5q-48 -46 -67 -67.5t-67 -82.5q17 1 41.5 1.5t40.5 1.5t20 1z" />
    <glyph glyph-name="Ccedilla" unicode="&#xc7;" horiz-adv-x="628" 
d="M210 -55q24 13 56.5 13t49 -13t16.5 -33q0 -37 -53 -73t-115 -36q-10 0 -24 3l1 24q51 0 86 22t35 46q0 8 -7.5 14t-18 6t-31.5 -14q-24 -13 -31 -13t-12 4t-5 9q0 17 38 90q-59 13 -101.5 59t-42.5 121q0 97 70 206q-51 30 -81 74l27 30q7 -7 19 -21q23 -27 62 -47
q59 82 171.5 149t190.5 67q37 0 57.5 -20.5t20.5 -55.5q0 -78 -93 -144.5t-212 -66.5q-52 0 -110 15q-38 -62 -38 -134.5t40 -117t117 -44.5q138 0 181 161h47q-11 -93 -87.5 -164t-201.5 -71zM280 385q87 0 153 41t66 96q0 19 -13.5 30.5t-34.5 11.5q-61 0 -136 -48.5
t-119 -116.5q36 -14 84 -14z" />
    <glyph glyph-name="Egrave" unicode="&#xc8;" horiz-adv-x="689" 
d="M649 574q0 -50 -47.5 -89t-109 -57t-118.5 -18q-15 0 -22 1v34q2 0 58 9.5t94.5 33.5t38.5 54q0 36 -54 36q-73 0 -138 -50t-65 -105t68 -71q15 -4 20 -8t5 -14t-9.5 -16.5t-43.5 -18.5q-184 -63 -184 -196q0 -27 10 -46q61 78 158 127t187 49q47 0 75 -20.5t28 -56.5
q0 -56 -52 -112t-134.5 -91.5t-164 -35.5t-128.5 30q-1 -1 -9 -15q-20 -40 -34 -56l-33 14q7 28 41 85q-46 52 -46 116.5t52.5 123t146.5 96.5q-47 39 -47 81q0 57 60 116.5t146.5 96.5t162.5 37q40 0 64 -17.5t24 -46.5zM439 169q-59 0 -137.5 -45t-127.5 -107
q40 -45 113.5 -45t144 47.5t70.5 102.5q0 22 -17 34.5t-46 12.5zM568 683l-171 56l68 40l132 -78z" />
    <glyph glyph-name="Eacute" unicode="&#xc9;" horiz-adv-x="689" 
d="M649 574q0 -50 -47.5 -89t-109 -57t-118.5 -18q-15 0 -22 1v34q2 0 58 9.5t94.5 33.5t38.5 54q0 36 -54 36q-73 0 -138 -50t-65 -105t68 -71q15 -4 20 -8t5 -14t-9.5 -16.5t-43.5 -18.5q-184 -63 -184 -196q0 -27 10 -46q61 78 158 127t187 49q47 0 75 -20.5t28 -56.5
q0 -56 -52 -112t-134.5 -91.5t-164 -35.5t-128.5 30q-1 -1 -9 -15q-20 -40 -34 -56l-33 14q7 28 41 85q-46 52 -46 116.5t52.5 123t146.5 96.5q-47 39 -47 81q0 57 60 116.5t146.5 96.5t162.5 37q40 0 64 -17.5t24 -46.5zM439 169q-59 0 -137.5 -45t-127.5 -107
q40 -45 113.5 -45t144 47.5t70.5 102.5q0 22 -17 34.5t-46 12.5zM595 722l-171 -56l-29 18l132 78z" />
    <glyph glyph-name="Ecircumflex" unicode="&#xca;" horiz-adv-x="689" 
d="M649 574q0 -50 -47.5 -89t-109 -57t-118.5 -18q-15 0 -22 1v34q2 0 58 9.5t94.5 33.5t38.5 54q0 36 -54 36q-73 0 -138 -50t-65 -105t68 -71q15 -4 20 -8t5 -14t-9.5 -16.5t-43.5 -18.5q-184 -63 -184 -196q0 -27 10 -46q61 78 158 127t187 49q47 0 75 -20.5t28 -56.5
q0 -56 -52 -112t-134.5 -91.5t-164 -35.5t-128.5 30q-1 -1 -9 -15q-20 -40 -34 -56l-33 14q7 28 41 85q-46 52 -46 116.5t52.5 123t146.5 96.5q-47 39 -47 81q0 57 60 116.5t146.5 96.5t162.5 37q40 0 64 -17.5t24 -46.5zM439 169q-59 0 -137.5 -45t-127.5 -107
q40 -45 113.5 -45t144 47.5t70.5 102.5q0 22 -17 34.5t-46 12.5zM366 682l147 114q108 -86 129 -108l-30 -24q-85 51 -103 64l-99 -70z" />
    <glyph glyph-name="Edieresis" unicode="&#xcb;" horiz-adv-x="689" 
d="M649 574q0 -50 -47.5 -89t-109 -57t-118.5 -18q-15 0 -22 1v34q2 0 58 9.5t94.5 33.5t38.5 54q0 36 -54 36q-73 0 -138 -50t-65 -105t68 -71q15 -4 20 -8t5 -14t-9.5 -16.5t-43.5 -18.5q-184 -63 -184 -196q0 -27 10 -46q61 78 158 127t187 49q47 0 75 -20.5t28 -56.5
q0 -56 -52 -112t-134.5 -91.5t-164 -35.5t-128.5 30q-1 -1 -9 -15q-20 -40 -34 -56l-33 14q7 28 41 85q-46 52 -46 116.5t52.5 123t146.5 96.5q-47 39 -47 81q0 57 60 116.5t146.5 96.5t162.5 37q40 0 64 -17.5t24 -46.5zM439 169q-59 0 -137.5 -45t-127.5 -107
q40 -45 113.5 -45t144 47.5t70.5 102.5q0 22 -17 34.5t-46 12.5zM409 721q0 17 11.5 28.5t27.5 11.5t28 -11.5t12 -28t-11.5 -28t-28 -11.5t-28 11t-11.5 28zM536 721q0 17 11.5 28.5t28 11.5t28 -11.5t11.5 -28t-11.5 -28t-28.5 -11.5t-28 11t-11 28z" />
    <glyph glyph-name="Igrave" unicode="&#xcc;" horiz-adv-x="606" 
d="M599 616q17 -5 17 -18q0 -4 -12 -18q-46 -59 -64.5 -88t-44 -97t-46 -130.5t-20.5 -63.5q-41 -92 -113 -145t-151 -53q-56 0 -90.5 27.5t-34.5 73.5q0 72 93 132t186 60l4 -33q-74 -15 -127.5 -55t-53.5 -87q0 -30 17.5 -49t44.5 -19q51 0 88 47.5t75.5 168.5t70 177
t79.5 94q-14 1 -31 1q-86 0 -167.5 -27t-81.5 -72q0 -28 25 -53l-22 -27q-67 47 -67 109q0 41 35.5 71t95.5 46q115 31 258 31q31 0 37 -3zM553 667l-171 56l68 40l132 -78z" />
    <glyph glyph-name="Iacute" unicode="&#xcd;" horiz-adv-x="606" 
d="M599 616q17 -5 17 -18q0 -4 -12 -18q-46 -59 -64.5 -88t-44 -97t-46 -130.5t-20.5 -63.5q-41 -92 -113 -145t-151 -53q-56 0 -90.5 27.5t-34.5 73.5q0 72 93 132t186 60l4 -33q-74 -15 -127.5 -55t-53.5 -87q0 -30 17.5 -49t44.5 -19q51 0 88 47.5t75.5 168.5t70 177
t79.5 94q-14 1 -31 1q-86 0 -167.5 -27t-81.5 -72q0 -28 25 -53l-22 -27q-67 47 -67 109q0 41 35.5 71t95.5 46q115 31 258 31q31 0 37 -3zM567 728l-171 -56l-29 18l132 78z" />
    <glyph glyph-name="Icircumflex" unicode="&#xce;" horiz-adv-x="606" 
d="M599 616q17 -5 17 -18q0 -4 -12 -18q-46 -59 -64.5 -88t-44 -97t-46 -130.5t-20.5 -63.5q-41 -92 -113 -145t-151 -53q-56 0 -90.5 27.5t-34.5 73.5q0 72 93 132t186 60l4 -33q-74 -15 -127.5 -55t-53.5 -87q0 -30 17.5 -49t44.5 -19q51 0 88 47.5t75.5 168.5t70 177
t79.5 94q-14 1 -31 1q-86 0 -167.5 -27t-81.5 -72q0 -28 25 -53l-22 -27q-67 47 -67 109q0 41 35.5 71t95.5 46q115 31 258 31q31 0 37 -3zM306 688l147 114q108 -86 129 -108l-30 -24q-85 51 -103 64l-99 -70z" />
    <glyph glyph-name="Idieresis" unicode="&#xcf;" horiz-adv-x="606" 
d="M599 616q17 -5 17 -18q0 -4 -12 -18q-46 -59 -64.5 -88t-44 -97t-46 -130.5t-20.5 -63.5q-41 -92 -113 -145t-151 -53q-56 0 -90.5 27.5t-34.5 73.5q0 72 93 132t186 60l4 -33q-74 -15 -127.5 -55t-53.5 -87q0 -30 17.5 -49t44.5 -19q51 0 88 47.5t75.5 168.5t70 177
t79.5 94q-14 1 -31 1q-86 0 -167.5 -27t-81.5 -72q0 -28 25 -53l-22 -27q-67 47 -67 109q0 41 35.5 71t95.5 46q115 31 258 31q31 0 37 -3zM354 723q0 17 11.5 28.5t28 11.5t28 -11.5t11.5 -28t-11.5 -28t-28.5 -11.5t-28 11t-11 28zM481 723q0 17 11.5 28.5t27.5 11.5
t28 -11.5t12 -28t-11.5 -28t-28 -11.5t-28 11t-11.5 28z" />
    <glyph glyph-name="Eth" unicode="&#xd0;" horiz-adv-x="744" 
d="M283 638q174 0 297.5 -103t123.5 -241t-84 -218t-213 -78q-69 1 -110 1h-47q-29 0 -29 22q0 5 25 58t34 76l-109 -16l10 61q64 11 121 17q12 35 21 74q-103 0 -193 57t-90 129.5t68 116.5t175 44zM496 235v-47l-151 -23q-19 -47 -39 -92q100 -8 166.5 -8t105.5 49.5
t39 133.5q0 145 -99 247t-239 102q-66 0 -104 -28t-38 -82.5t52.5 -97t140.5 -53.5q31 131 36 169l60 -6q0 -62 -26 -164q8 0 93 10l5 -33q-20 -7 -111 -21q-16 -51 -21 -66q50 5 130 10z" />
    <glyph glyph-name="Ntilde" unicode="&#xd1;" horiz-adv-x="744" 
d="M686 611l58 -7q-18 -78 -48.5 -182.5t-55.5 -169t-54.5 -128t-62.5 -100t-64 -36.5t-45.5 23t-14.5 81.5t17 246t17.5 204t-8.5 16.5q-11 0 -26 -30.5t-23 -46.5q-21 -47 -27 -66q-56 -126 -100 -208t-101 -152q-20 -24 -57 -49t-69 -38l-22 59q83 35 150 121.5
t138.5 241.5t102.5 209q35 57 71 57q23 0 36 -16t13 -41.5t-17.5 -210.5t-17.5 -237t4.5 -67.5t15.5 -15.5q14 0 30 30q55 107 160 512zM679 781l23 -19q-19 -30 -43.5 -51t-45 -21t-44.5 34.5t-44 34.5q-10 0 -20 -7t-15.5 -11t-15.5 -12t-16 -12l-28 26q74 65 99.5 65
t54.5 -35t44 -35q10 0 26.5 18t24.5 25z" />
    <glyph glyph-name="Ograve" unicode="&#xd2;" horiz-adv-x="714" 
d="M714 492v-48q-45 -26 -166 -71q-54 -135 -171 -251t-214 -116q-55 0 -89 39t-34 107.5t46 165t121 181t153 124.5q32 21 100 21q51 0 83.5 -39.5t32.5 -93t-8 -80.5q76 25 146 61zM317 527q-33 -34 -33 -65.5t32 -50t80.5 -18.5t84.5 9q6 30 6 58q0 99 -85 99
q-39 0 -85 -32zM330 149q98 97 137 202q-25 -5 -64 -5q-168 0 -190 75q-84 -117 -84 -230q0 -45 21.5 -72t63.5 -27q59 0 116 57zM486 675l-171 56l68 40l132 -78z" />
    <glyph glyph-name="Oacute" unicode="&#xd3;" horiz-adv-x="714" 
d="M714 492v-48q-45 -26 -166 -71q-54 -135 -171 -251t-214 -116q-55 0 -89 39t-34 107.5t46 165t121 181t153 124.5q32 21 100 21q51 0 83.5 -39.5t32.5 -93t-8 -80.5q76 25 146 61zM317 527q-33 -34 -33 -65.5t32 -50t80.5 -18.5t84.5 9q6 30 6 58q0 99 -85 99
q-39 0 -85 -32zM330 149q98 97 137 202q-25 -5 -64 -5q-168 0 -190 75q-84 -117 -84 -230q0 -45 21.5 -72t63.5 -27q59 0 116 57zM527 729l-171 -56l-29 18l132 78z" />
    <glyph glyph-name="Ocircumflex" unicode="&#xd4;" horiz-adv-x="714" 
d="M714 492v-48q-45 -26 -166 -71q-54 -135 -171 -251t-214 -116q-55 0 -89 39t-34 107.5t46 165t121 181t153 124.5q32 21 100 21q51 0 83.5 -39.5t32.5 -93t-8 -80.5q76 25 146 61zM317 527q-33 -34 -33 -65.5t32 -50t80.5 -18.5t84.5 9q6 30 6 58q0 99 -85 99
q-39 0 -85 -32zM330 149q98 97 137 202q-25 -5 -64 -5q-168 0 -190 75q-84 -117 -84 -230q0 -45 21.5 -72t63.5 -27q59 0 116 57zM291 694l147 114q108 -86 129 -108l-30 -24q-85 51 -103 64l-99 -70z" />
    <glyph glyph-name="Otilde" unicode="&#xd5;" horiz-adv-x="714" 
d="M714 492v-48q-45 -26 -166 -71q-54 -135 -171 -251t-214 -116q-55 0 -89 39t-34 107.5t46 165t121 181t153 124.5q32 21 100 21q51 0 83.5 -39.5t32.5 -93t-8 -80.5q76 25 146 61zM317 527q-33 -34 -33 -65.5t32 -50t80.5 -18.5t84.5 9q6 30 6 58q0 99 -85 99
q-39 0 -85 -32zM330 149q98 97 137 202q-25 -5 -64 -5q-168 0 -190 75q-84 -117 -84 -230q0 -45 21.5 -72t63.5 -27q59 0 116 57zM545 778l23 -19q-19 -30 -43.5 -51t-45 -21t-44.5 34.5t-44 34.5q-10 0 -20 -7t-15.5 -11t-15.5 -12t-16 -12l-28 26q74 65 99.5 65t54.5 -35
t44 -35q10 0 26.5 18t24.5 25z" />
    <glyph glyph-name="Odieresis" unicode="&#xd6;" horiz-adv-x="714" 
d="M714 492v-48q-45 -26 -166 -71q-54 -135 -171 -251t-214 -116q-55 0 -89 39t-34 107.5t46 165t121 181t153 124.5q32 21 100 21q51 0 83.5 -39.5t32.5 -93t-8 -80.5q76 25 146 61zM317 527q-33 -34 -33 -65.5t32 -50t80.5 -18.5t84.5 9q6 30 6 58q0 99 -85 99
q-39 0 -85 -32zM330 149q98 97 137 202q-25 -5 -64 -5q-168 0 -190 75q-84 -117 -84 -230q0 -45 21.5 -72t63.5 -27q59 0 116 57zM339 690.5q-11 11.5 -11 28t11.5 28t28 11.5t28 -12t11.5 -28t-11.5 -27.5t-28.5 -11.5t-28 11.5zM466.5 690.5q-11.5 11.5 -11.5 28t11.5 28
t27.5 11.5t28 -12t12 -28t-11.5 -27.5t-28 -11.5t-28 11.5z" />
    <glyph glyph-name="multiply" unicode="&#xd7;" horiz-adv-x="261" 
d="M66 206l-29 37q31 29 66 60l-74 58l30 47q35 -24 86 -68q68 55 89 69l30 -46l-76 -60l72 -65l-33 -34l-82 65zM256 165v-47l-220 -30l-12 54q89 17 232 23z" />
    <glyph glyph-name="Oslash" unicode="&#xd8;" horiz-adv-x="549" 
d="M227 -92l-38 7q4 39 14 103q-27 -9 -54 -9q-52 0 -84 38.5t-32 104.5q0 142 95 277t219 181l29 91l39 -9l-21 -68q28 4 43 4q55 0 79 -36.5t24 -86.5q0 -81 -43 -177t-111.5 -175.5t-140.5 -117.5q-11 -61 -18 -127zM183 108q16 0 36 5q37 202 102 415
q-80 -40 -147.5 -140t-67.5 -186q0 -43 22.5 -68.5t54.5 -25.5zM378 542h-10q-72 -237 -107 -411q81 46 144 156t63 189q0 32 -24.5 49t-65.5 17z" />
    <glyph glyph-name="Ugrave" unicode="&#xd9;" horiz-adv-x="721" 
d="M573 78l32 -26q-12 -34 -41 -62.5t-63 -28.5q-46 0 -75 45t-38 130q-46 -50 -115 -94.5t-121 -44.5t-82 35t-30 90q0 125 122 297t247 245l27 -38q-114 -85 -209 -224t-95 -244q0 -39 18.5 -60.5t52 -21.5t93.5 39t90 73q5 97 46.5 197t99 163.5t107.5 63.5q42 0 42 -51
t-75 -170.5t-149 -189.5q-2 -16 -2 -26q0 -44 17.5 -91.5t46.5 -47.5q25 0 54 42zM588 518q-33 0 -73 -77.5t-51 -164.5q62 74 99.5 136.5t37.5 90.5q0 15 -13 15zM632 668l-171 56l68 40l132 -78z" />
    <glyph glyph-name="Uacute" unicode="&#xda;" horiz-adv-x="721" 
d="M573 78l32 -26q-12 -34 -41 -62.5t-63 -28.5q-46 0 -75 45t-38 130q-46 -50 -115 -94.5t-121 -44.5t-82 35t-30 90q0 125 122 297t247 245l27 -38q-114 -85 -209 -224t-95 -244q0 -39 18.5 -60.5t52 -21.5t93.5 39t90 73q5 97 46.5 197t99 163.5t107.5 63.5q42 0 42 -51
t-75 -170.5t-149 -189.5q-2 -16 -2 -26q0 -44 17.5 -91.5t46.5 -47.5q25 0 54 42zM588 518q-33 0 -73 -77.5t-51 -164.5q62 74 99.5 136.5t37.5 90.5q0 15 -13 15zM652 727l-171 -56l-29 18l132 78z" />
    <glyph glyph-name="Ucircumflex" unicode="&#xdb;" horiz-adv-x="721" 
d="M573 78l32 -26q-12 -34 -41 -62.5t-63 -28.5q-46 0 -75 45t-38 130q-46 -50 -115 -94.5t-121 -44.5t-82 35t-30 90q0 125 122 297t247 245l27 -38q-114 -85 -209 -224t-95 -244q0 -39 18.5 -60.5t52 -21.5t93.5 39t90 73q5 97 46.5 197t99 163.5t107.5 63.5q42 0 42 -51
t-75 -170.5t-149 -189.5q-2 -16 -2 -26q0 -44 17.5 -91.5t46.5 -47.5q25 0 54 42zM588 518q-33 0 -73 -77.5t-51 -164.5q62 74 99.5 136.5t37.5 90.5q0 15 -13 15zM430 684l147 114q108 -86 129 -108l-30 -24q-85 51 -103 64l-99 -70z" />
    <glyph glyph-name="Udieresis" unicode="&#xdc;" horiz-adv-x="721" 
d="M573 78l32 -26q-12 -34 -41 -62.5t-63 -28.5q-46 0 -75 45t-38 130q-46 -50 -115 -94.5t-121 -44.5t-82 35t-30 90q0 125 122 297t247 245l27 -38q-114 -85 -209 -224t-95 -244q0 -39 18.5 -60.5t52 -21.5t93.5 39t90 73q5 97 46.5 197t99 163.5t107.5 63.5q42 0 42 -51
t-75 -170.5t-149 -189.5q-2 -16 -2 -26q0 -44 17.5 -91.5t46.5 -47.5q25 0 54 42zM588 518q-33 0 -73 -77.5t-51 -164.5q62 74 99.5 136.5t37.5 90.5q0 15 -13 15zM453 717q0 17 11.5 28.5t27.5 11.5t28 -11.5t12 -28t-11.5 -28t-28 -11.5t-28 11t-11.5 28zM580 717
q0 17 11.5 28.5t28 11.5t28 -11.5t11.5 -28t-11.5 -28t-28.5 -11.5t-28 11t-11 28z" />
    <glyph glyph-name="Yacute" unicode="&#xdd;" horiz-adv-x="680" 
d="M330 9l30 -1q6 21 27.5 80t30.5 78q-104 -98 -161 -118q-31 -11 -63 -11q-53 0 -82 35t-29 98q0 90 83 240.5t189 235.5l40 -37q-222 -239 -222 -399q0 -93 73 -93t142 80t143 248q30 69 46 91t31 22t23.5 -9t8.5 -24q0 -64 -92 -190q-64 -132 -129 -328q47 -3 100 -23
l-10 -34l-106 15q-59 -144 -142.5 -215.5t-199.5 -71.5q-60 0 -100.5 32.5t-40.5 81.5q0 90 121 153.5t289 63.5zM106 -253q81 0 143.5 65.5t92.5 153.5q-134 0 -225 -45.5t-91 -110.5q0 -28 22.5 -45.5t57.5 -17.5zM624 722l-171 -56l-29 18l132 78z" />
    <glyph glyph-name="Thorn" unicode="&#xde;" horiz-adv-x="678" 
d="M388 717l2 -112q0 -77 -6 -113q82 56 112 68.5t70.5 12.5t62.5 -28t22 -80q0 -93 -60 -200t-150 -179.5t-170 -72.5q-20 0 -46 2q-47 -100 -85.5 -148t-79.5 -48q-25 0 -39 18t-14 50q0 103 93 268.5t207 269.5q16 52 16 120l-7 160zM155 87l28 -14q63 123 106 276
q-93 -116 -149.5 -228t-56.5 -175q0 -19 11 -19t32 31.5t36 68.5q-13 6 -25 18zM246 59l19 -1q97 0 182 102q48 59 81.5 135t33.5 129q0 29 -15.5 46t-42.5 17q-49 0 -130 -54q-18 -135 -128 -374z" />
    <glyph glyph-name="germandbls" unicode="&#xdf;" horiz-adv-x="352" 
d="M81 3l-46 10q6 36 75 231t95 233q35 49 83 49q32 0 51 -20.5t19 -61t-28 -83.5t-102 -108q-28 -24 -30 -45q0 -23 25 -60.5t29.5 -48.5t4.5 -37.5t-22.5 -48t-56 -21.5t-60.5 23l16 47q24 -17 46 -17t22 25q0 8 -23.5 55.5t-23.5 57.5q0 39 54 94t73.5 86t19.5 57
q0 45 -26 45q-70 0 -195 -462z" />
    <glyph glyph-name="agrave" unicode="&#xe0;" horiz-adv-x="489" 
d="M449 101l23 -17q-14 -30 -51.5 -57t-68.5 -27q-59 0 -59 62q0 29 15 69l-37 -38q-54 -55 -93.5 -74t-77.5 -19t-57.5 21.5t-19.5 59.5q0 70 54 138.5t138 111.5t168 44l2 -33l-42 -9q-91 -20 -160.5 -80t-69.5 -119.5t48 -59.5q45 0 111 63t110 148l42 -25
q-62 -125 -62 -159q0 -14 9.5 -23.5t19 -9.5t12.5 1t6 2.5t7.5 4.5t8 6t11.5 9t13 10zM346 400l-171 56l68 40l132 -78z" />
    <glyph glyph-name="aacute" unicode="&#xe1;" horiz-adv-x="489" 
d="M449 101l23 -17q-14 -30 -51.5 -57t-68.5 -27q-59 0 -59 62q0 29 15 69l-37 -38q-54 -55 -93.5 -74t-77.5 -19t-57.5 21.5t-19.5 59.5q0 70 54 138.5t138 111.5t168 44l2 -33l-42 -9q-91 -20 -160.5 -80t-69.5 -119.5t48 -59.5q45 0 111 63t110 148l42 -25
q-62 -125 -62 -159q0 -14 9.5 -23.5t19 -9.5t12.5 1t6 2.5t7.5 4.5t8 6t11.5 9t13 10zM384 452l-171 -56l-29 18l132 78z" />
    <glyph glyph-name="acircumflex" unicode="&#xe2;" horiz-adv-x="489" 
d="M449 101l23 -17q-14 -30 -51.5 -57t-68.5 -27q-59 0 -59 62q0 29 15 69l-37 -38q-54 -55 -93.5 -74t-77.5 -19t-57.5 21.5t-19.5 59.5q0 70 54 138.5t138 111.5t168 44l2 -33l-42 -9q-91 -20 -160.5 -80t-69.5 -119.5t48 -59.5q45 0 111 63t110 148l42 -25
q-62 -125 -62 -159q0 -14 9.5 -23.5t19 -9.5t12.5 1t6 2.5t7.5 4.5t8 6t11.5 9t13 10zM152 407l147 114q108 -86 129 -108l-30 -24q-85 51 -103 64l-99 -70z" />
    <glyph glyph-name="atilde" unicode="&#xe3;" horiz-adv-x="489" 
d="M449 101l23 -17q-14 -30 -51.5 -57t-68.5 -27q-59 0 -59 62q0 29 15 69l-37 -38q-54 -55 -93.5 -74t-77.5 -19t-57.5 21.5t-19.5 59.5q0 70 54 138.5t138 111.5t168 44l2 -33l-42 -9q-91 -20 -160.5 -80t-69.5 -119.5t48 -59.5q45 0 111 63t110 148l42 -25
q-62 -125 -62 -159q0 -14 9.5 -23.5t19 -9.5t12.5 1t6 2.5t7.5 4.5t8 6t11.5 9t13 10zM418 493l23 -19q-19 -30 -43.5 -51t-45 -21t-44.5 34.5t-44 34.5q-10 0 -20 -7t-15.5 -11t-15.5 -12t-16 -12l-28 26q74 65 99.5 65t54.5 -35t44 -35q10 0 26.5 18t24.5 25z" />
    <glyph glyph-name="adieresis" unicode="&#xe4;" horiz-adv-x="489" 
d="M449 101l23 -17q-14 -30 -51.5 -57t-68.5 -27q-59 0 -59 62q0 29 15 69l-37 -38q-54 -55 -93.5 -74t-77.5 -19t-57.5 21.5t-19.5 59.5q0 70 54 138.5t138 111.5t168 44l2 -33l-42 -9q-91 -20 -160.5 -80t-69.5 -119.5t48 -59.5q45 0 111 63t110 148l42 -25
q-62 -125 -62 -159q0 -14 9.5 -23.5t19 -9.5t12.5 1t6 2.5t7.5 4.5t8 6t11.5 9t13 10zM223 418.5q-11 11.5 -11 28t11.5 28t28 11.5t28 -12t11.5 -28t-11.5 -27.5t-28.5 -11.5t-28 11.5zM350.5 418.5q-11.5 11.5 -11.5 28t11.5 28t27.5 11.5t28 -12t12 -28t-11.5 -27.5
t-28 -11.5t-28 11.5z" />
    <glyph glyph-name="aring" unicode="&#xe5;" horiz-adv-x="489" 
d="M449 101l23 -17q-14 -30 -51.5 -57t-68.5 -27q-59 0 -59 62q0 29 15 69l-37 -38q-54 -55 -93.5 -74t-77.5 -19t-57.5 21.5t-19.5 59.5q0 70 54 138.5t138 111.5t168 44l2 -33l-42 -9q-91 -20 -160.5 -80t-69.5 -119.5t48 -59.5q45 0 111 63t110 148l42 -25
q-62 -125 -62 -159q0 -14 9.5 -23.5t19 -9.5t12.5 1t6 2.5t7.5 4.5t8 6t11.5 9t13 10zM370.5 523q15.5 -13 15.5 -39.5t-26 -49.5t-56 -23t-45.5 13.5t-15.5 40.5t25.5 49t56 22t46 -13zM334 450q13 19 13 43t-21 24q-17 0 -31 -19.5t-14 -43t24 -23.5q16 0 29 19z" />
    <glyph glyph-name="ae" unicode="&#xe6;" horiz-adv-x="761" 
d="M677 118l23 -18q-31 -43 -85 -71.5t-108.5 -28.5t-86.5 38q-45 -38 -83 -38q-59 0 -59 62q0 29 15 69l-37 -38q-54 -55 -93.5 -74t-77.5 -19t-57.5 21.5t-19.5 59.5q0 70 54 138.5t138 111.5t168 44l2 -33l-42 -9q-91 -20 -160.5 -80t-69.5 -119.5t48 -59.5q45 0 111 63
t110 148l42 -25q-62 -125 -62 -159q0 -14 9.5 -23.5t21.5 -9.5t23 7q-4 15 -4 34q0 92 97.5 181t197.5 89q66 0 66 -52q0 -54 -69.5 -109t-195.5 -100q9 -23 28 -36t39 -13q44 0 117 49zM488 148q81 28 139 70t58 77q0 13 -9.5 23t-23.5 10q-47 0 -101.5 -58.5t-62.5 -121.5
z" />
    <glyph glyph-name="ccedilla" unicode="&#xe7;" horiz-adv-x="385" 
d="M121 -52q24 13 56.5 13t49 -13t16.5 -33q0 -37 -53 -73t-115 -36q-11 0 -24 3l1 24q51 0 86 22t35 46q0 8 -7.5 14t-18 6t-31.5 -14q-24 -13 -31 -13t-12 4t-5 9q0 18 41 97q-41 8 -64.5 37t-23.5 69q0 61 47 124t121.5 104t146.5 41q10 0 30 -2l-3 -39
q-110 -5 -182.5 -67t-72.5 -132q0 -29 18 -47t47 -18q46 0 118 68l24 -20q-23 -53 -73.5 -85.5t-95.5 -35.5z" />
    <glyph glyph-name="egrave" unicode="&#xe8;" horiz-adv-x="401" 
d="M300 118l23 -18q-31 -43 -85 -71.5t-105 -28.5t-82 30t-31 79q0 92 97.5 181t197.5 89q66 0 66 -52q0 -54 -69.5 -109t-195.5 -100q9 -23 28 -36t39 -13q43 0 117 49zM111 148q81 28 139 70t58 77q0 13 -10 23t-23 10q-47 0 -101.5 -58.5t-62.5 -121.5zM322 404l-171 56
l68 40l132 -78z" />
    <glyph glyph-name="eacute" unicode="&#xe9;" horiz-adv-x="401" 
d="M300 118l23 -18q-31 -43 -85 -71.5t-105 -28.5t-82 30t-31 79q0 92 97.5 181t197.5 89q66 0 66 -52q0 -54 -69.5 -109t-195.5 -100q9 -23 28 -36t39 -13q43 0 117 49zM111 148q81 28 139 70t58 77q0 13 -10 23t-23 10q-47 0 -101.5 -58.5t-62.5 -121.5zM366 461l-171 -56
l-29 18l132 78z" />
    <glyph glyph-name="ecircumflex" unicode="&#xea;" horiz-adv-x="401" 
d="M300 118l23 -18q-31 -43 -85 -71.5t-105 -28.5t-82 30t-31 79q0 92 97.5 181t197.5 89q66 0 66 -52q0 -54 -69.5 -109t-195.5 -100q9 -23 28 -36t39 -13q43 0 117 49zM111 148q81 28 139 70t58 77q0 13 -10 23t-23 10q-47 0 -101.5 -58.5t-62.5 -121.5zM104 423l147 114
q108 -86 129 -108l-30 -24q-85 51 -103 64l-99 -70z" />
    <glyph glyph-name="edieresis" unicode="&#xeb;" horiz-adv-x="401" 
d="M300 118l23 -18q-31 -43 -85 -71.5t-105 -28.5t-82 30t-31 79q0 92 97.5 181t197.5 89q66 0 66 -52q0 -54 -69.5 -109t-195.5 -100q9 -23 28 -36t39 -13q43 0 117 49zM111 148q81 28 139 70t58 77q0 13 -10 23t-23 10q-47 0 -101.5 -58.5t-62.5 -121.5zM159 457
q0 17 11.5 28.5t27.5 11.5t28 -11.5t12 -28t-11.5 -28t-28 -11.5t-28 11t-11.5 28zM286 457q0 17 11.5 28.5t28 11.5t28 -11.5t11.5 -28t-11.5 -28t-28.5 -11.5t-28 11t-11 28z" />
    <glyph glyph-name="igrave" unicode="&#xec;" horiz-adv-x="288" 
d="M217 407l-171 56l68 40l132 -78zM211 129l20 -17q-24 -46 -63.5 -78.5t-71.5 -32.5q-56 0 -56 78q0 97 80 253q18 34 21 40l43 -26q-21 -38 -51.5 -121t-30.5 -106.5t10 -33.5t24 -10q27 0 75 54z" />
    <glyph glyph-name="iacute" unicode="&#xed;" horiz-adv-x="288" 
d="M211 129l20 -17q-24 -46 -63.5 -78.5t-71.5 -32.5q-56 0 -56 78q0 97 80 253q18 34 21 40l43 -26q-21 -38 -51.5 -121t-30.5 -106.5t10 -33.5t24 -10q27 0 75 54zM273 463l-171 -56l-29 18l132 78z" />
    <glyph glyph-name="icircumflex" unicode="&#xee;" horiz-adv-x="288" 
d="M211 129l20 -17q-24 -46 -63.5 -78.5t-71.5 -32.5q-56 0 -56 78q0 97 80 253q18 34 21 40l43 -26q-21 -38 -51.5 -121t-30.5 -106.5t10 -33.5t24 -10q27 0 75 54zM18 413l147 114q108 -86 129 -108l-30 -24q-85 51 -103 64l-99 -70z" />
    <glyph glyph-name="idieresis" unicode="&#xef;" horiz-adv-x="288" 
d="M211 129l20 -17q-24 -46 -63.5 -78.5t-71.5 -32.5q-56 0 -56 78q0 97 80 253q18 34 21 40l43 -26q-21 -38 -51.5 -121t-30.5 -106.5t10 -33.5t24 -10q27 0 75 54zM60 451q0 17 11.5 28.5t28 11.5t28 -11.5t11.5 -28t-11.5 -28t-28.5 -11.5t-28 11t-11 28zM187 451
q0 17 11.5 28.5t27.5 11.5t28 -11.5t12 -28t-11.5 -28t-28 -11.5t-28 11t-11.5 28z" />
    <glyph glyph-name="eth" unicode="&#xf0;" horiz-adv-x="371" 
d="M298 528l17 -49l-83 -21q52 -72 79 -130t27 -123q0 -86 -59.5 -145t-139.5 -59q-58 0 -90.5 33.5t-32.5 97t41 125.5t104 93l13 -39q-77 -48 -77 -136q0 -43 21 -69.5t59 -26.5t70 28.5t32 81.5t-27 112.5t-81 141.5l-101 -25l-18 52q34 12 87 25l-41 60l28 70
q5 -10 71 -116q32 7 101 19z" />
    <glyph glyph-name="ntilde" unicode="&#xf1;" horiz-adv-x="484" 
d="M439 121l21 -16q-22 -44 -60.5 -74t-69.5 -30t-49 18t-18 45t34.5 94.5t34.5 99.5q0 14 -11.5 25.5t-27.5 11.5q-51 0 -103 -77.5t-116 -223.5l-60 21q19 116 54.5 226.5t65.5 158.5l41 -13q-28 -71 -71 -245q138 236 254 236q25 0 41.5 -17t16.5 -40t-6 -41.5t-37.5 -86
t-31.5 -84.5t10 -26.5t19 -9.5t15 3t13.5 9t13.5 11t14.5 13.5t12.5 11.5zM355 497l23 -19q-19 -30 -43.5 -51t-45 -21t-44.5 34.5t-44 34.5q-10 0 -20 -7t-15.5 -11t-15.5 -12t-16 -12l-28 26q74 65 99.5 65t54.5 -35t44 -35q10 0 26.5 18t24.5 25z" />
    <glyph glyph-name="ograve" unicode="&#xf2;" horiz-adv-x="351" 
d="M305 297q26 -43 26 -95q0 -81 -56 -144.5t-132 -63.5q-58 0 -90.5 33.5t-32.5 92.5q0 95 74 170.5t166 75.5q17 0 24 -1l3 -33q-80 0 -133 -46t-53 -118q0 -43 21 -69.5t61.5 -26.5t64.5 36t24 84.5t-19 88.5zM274 394l-171 56l68 40l132 -78z" />
    <glyph glyph-name="oacute" unicode="&#xf3;" horiz-adv-x="351" 
d="M305 297q26 -43 26 -95q0 -81 -56 -144.5t-132 -63.5q-58 0 -90.5 33.5t-32.5 92.5q0 95 74 170.5t166 75.5q17 0 24 -1l3 -33q-80 0 -133 -46t-53 -118q0 -43 21 -69.5t61.5 -26.5t64.5 36t24 84.5t-19 88.5zM306 449l-171 -56l-29 18l132 78z" />
    <glyph glyph-name="ocircumflex" unicode="&#xf4;" horiz-adv-x="351" 
d="M305 297q26 -43 26 -95q0 -81 -56 -144.5t-132 -63.5q-58 0 -90.5 33.5t-32.5 92.5q0 95 74 170.5t166 75.5q17 0 24 -1l3 -33q-80 0 -133 -46t-53 -118q0 -43 21 -69.5t61.5 -26.5t64.5 36t24 84.5t-19 88.5zM68 407l147 114q108 -86 129 -108l-30 -24q-85 51 -103 64
l-99 -70z" />
    <glyph glyph-name="otilde" unicode="&#xf5;" horiz-adv-x="351" 
d="M305 297q26 -43 26 -95q0 -81 -56 -144.5t-132 -63.5q-58 0 -90.5 33.5t-32.5 92.5q0 95 74 170.5t166 75.5q17 0 24 -1l3 -33q-80 0 -133 -46t-53 -118q0 -43 21 -69.5t61.5 -26.5t64.5 36t24 84.5t-19 88.5zM315 498l23 -19q-19 -30 -43.5 -51t-45 -21t-44.5 34.5
t-44 34.5q-10 0 -20 -7t-15.5 -11t-15.5 -12t-16 -12l-28 26q74 65 99.5 65t54.5 -35t44 -35q10 0 26.5 18t24.5 25z" />
    <glyph glyph-name="odieresis" unicode="&#xf6;" horiz-adv-x="351" 
d="M305 297q26 -43 26 -95q0 -81 -56 -144.5t-132 -63.5q-58 0 -90.5 33.5t-32.5 92.5q0 95 74 170.5t166 75.5q17 0 24 -1l3 -33q-80 0 -133 -46t-53 -118q0 -43 21 -69.5t61.5 -26.5t64.5 36t24 84.5t-19 88.5zM111 445q0 17 11.5 28.5t27.5 11.5t28 -11.5t12 -28
t-11.5 -28t-28 -11.5t-28 11t-11.5 28zM238 445q0 17 11.5 28.5t28 11.5t28 -11.5t11.5 -28t-11.5 -28t-28.5 -11.5t-28 11t-11 28z" />
    <glyph glyph-name="divide" unicode="&#xf7;" horiz-adv-x="252" 
d="M241 292v-47l-230 -30l-12 54q87 17 242 23zM101 336.5q-11 11.5 -10.5 28t11 28t27.5 11.5t28.5 -12t11.5 -28t-11.5 -27.5t-28.5 -11.5t-28 11.5zM83 149q0 17 11.5 28.5t27.5 11.5t28 -11.5t12 -28t-11.5 -28t-28 -11.5t-28 11t-11.5 28z" />
    <glyph glyph-name="oslash" unicode="&#xf8;" horiz-adv-x="391" 
d="M263 365l17 1q17 0 24 -1l3 -33q-24 0 -54 -7q-30 -118 -44 -252q35 5 59 36.5t24 75.5q0 22 -8 52.5t-11 43.5l52 16q12 -15 19 -43t7 -45q0 -76 -42 -135t-106 -75q-3 -42 -3 -79l-34 -10q1 34 5 84h-8q-58 0 -90.5 33.5t-32.5 92.5q0 79 54 147.5t130 90.5
q17 67 35 123l39 -9q-21 -56 -35 -107zM145.5 253.5q-24.5 -37.5 -24.5 -79.5q0 -84 56 -99q12 129 36 237q-43 -21 -67.5 -58.5z" />
    <glyph glyph-name="ugrave" unicode="&#xf9;" horiz-adv-x="460" 
d="M421 110l21 -17q-17 -42 -53.5 -71t-66 -29t-46.5 20.5t-17 53.5t11 85q-47 -74 -101 -116t-91 -42q-56 0 -56 80q0 68 46 174t67 123l48 -21q-41 -66 -62 -130t-21 -85.5t13.5 -34.5t31.5 -13q40 0 99.5 73.5t121.5 219.5l51 -23q-2 -8 -45.5 -116t-43.5 -129.5
t9.5 -32.5t19 -11t14.5 1t10 4t8.5 5t8.5 7l8 7q2 3 7.5 9.5t7.5 8.5zM332 397l-171 56l68 40l132 -78z" />
    <glyph glyph-name="uacute" unicode="&#xfa;" horiz-adv-x="460" 
d="M421 110l21 -17q-17 -42 -53.5 -71t-66 -29t-46.5 20.5t-17 53.5t11 85q-47 -74 -101 -116t-91 -42q-56 0 -56 80q0 68 46 174t67 123l48 -21q-41 -66 -62 -130t-21 -85.5t13.5 -34.5t31.5 -13q40 0 99.5 73.5t121.5 219.5l51 -23q-2 -8 -45.5 -116t-43.5 -129.5
t9.5 -32.5t19 -11t14.5 1t10 4t8.5 5t8.5 7l8 7q2 3 7.5 9.5t7.5 8.5zM365 456l-171 -56l-29 18l132 78z" />
    <glyph glyph-name="ucircumflex" unicode="&#xfb;" horiz-adv-x="460" 
d="M421 110l21 -17q-17 -42 -53.5 -71t-66 -29t-46.5 20.5t-17 53.5t11 85q-47 -74 -101 -116t-91 -42q-56 0 -56 80q0 68 46 174t67 123l48 -21q-41 -66 -62 -130t-21 -85.5t13.5 -34.5t31.5 -13q40 0 99.5 73.5t121.5 219.5l51 -23q-2 -8 -45.5 -116t-43.5 -129.5
t9.5 -32.5t19 -11t14.5 1t10 4t8.5 5t8.5 7l8 7q2 3 7.5 9.5t7.5 8.5zM129 416l147 114q108 -86 129 -108l-30 -24q-85 51 -103 64l-99 -70z" />
    <glyph glyph-name="udieresis" unicode="&#xfc;" horiz-adv-x="460" 
d="M421 110l21 -17q-17 -42 -53.5 -71t-66 -29t-46.5 20.5t-17 53.5t11 85q-47 -74 -101 -116t-91 -42q-56 0 -56 80q0 68 46 174t67 123l48 -21q-41 -66 -62 -130t-21 -85.5t13.5 -34.5t31.5 -13q40 0 99.5 73.5t121.5 219.5l51 -23q-2 -8 -45.5 -116t-43.5 -129.5
t9.5 -32.5t19 -11t14.5 1t10 4t8.5 5t8.5 7l8 7q2 3 7.5 9.5t7.5 8.5zM179 453q0 17 11.5 28.5t27.5 11.5t28 -11.5t12 -28t-11.5 -28t-28 -11.5t-28 11t-11.5 28zM306 453q0 17 11.5 28.5t28 11.5t28 -11.5t11.5 -28t-11.5 -28t-28.5 -11.5t-28 11t-11 28z" />
    <glyph glyph-name="yacute" unicode="&#xfd;" horiz-adv-x="471" 
d="M431 63l3 -26q-4 -3 -93 -36q-12 -66 -30.5 -130.5t-37 -98t-43.5 -66.5q-50 -66 -135 -66q-42 0 -67 26t-25 71q0 173 290 278l54 190q-86 -129 -155 -159q-34 -16 -71.5 -16t-60 24t-22.5 70t31.5 128.5t70.5 138.5l49 -21q-3 -3 -28 -53q-44 -91 -44 -135t17 -59
t50 -15t74.5 39.5t128.5 156.5l36 -21q-8 -33 -35.5 -119.5t-37.5 -132.5zM287 -15q-63 -29 -111 -66q-90 -68 -90 -132q0 -24 14 -39t35 -15q100 0 152 252zM418 450l-171 -56l-29 18l132 78z" />
    <glyph glyph-name="thorn" unicode="&#xfe;" horiz-adv-x="515" 
d="M301 339.5q56 41.5 98 41.5t65 -25.5t23 -64.5q0 -108 -77.5 -199.5t-174.5 -91.5q-43 0 -68 15l24 43q53 -7 65 -7q54 0 101 63t47 129q0 25 -14.5 41.5t-37.5 16.5q-56 0 -109.5 -70.5t-97 -182.5t-90.5 -279l-60 21q4 40 40 150q100 306 100 490q0 50 -8 106l50 25
q25 -61 25 -115.5t-14.5 -141t-18.5 -120.5q76 114 132 155.5z" />
    <glyph glyph-name="ydieresis" unicode="&#xff;" horiz-adv-x="471" 
d="M431 63l3 -26q-4 -3 -93 -36q-12 -66 -30.5 -130.5t-37 -98t-43.5 -66.5q-50 -66 -135 -66q-42 0 -67 26t-25 71q0 173 290 278l54 190q-86 -129 -155 -159q-34 -16 -71.5 -16t-60 24t-22.5 70t31.5 128.5t70.5 138.5l49 -21q-3 -3 -28 -53q-44 -91 -44 -135t17 -59
t50 -15t74.5 39.5t128.5 156.5l36 -21q-8 -33 -35.5 -119.5t-37.5 -132.5zM287 -15q-63 -29 -111 -66q-90 -68 -90 -132q0 -24 14 -39t35 -15q100 0 152 252zM241 400.5q-11 11.5 -11 28t11.5 28t28 11.5t28 -12t11.5 -28t-11.5 -27.5t-28.5 -11.5t-28 11.5zM368.5 400.5
q-11.5 11.5 -11.5 28t11.5 28t27.5 11.5t28 -12t12 -28t-11.5 -27.5t-28 -11.5t-28 11.5z" />
    <glyph glyph-name="Amacron" unicode="&#x100;" horiz-adv-x="780" 
d="M741 298l-5 -60q-23 2 -49.5 2t-44.5 -1q-14 -110 -18 -239h-70q-6 26 -6 69t2.5 74.5t6.5 62.5t4 36q-14 1 -66 1t-72 -2q-116 -156 -214 -236.5t-196 -80.5q-48 0 -80.5 29t-32.5 77q0 91 138.5 166t358.5 101q26 40 97 123.5t140 145.5q30 70 47.5 97.5t34.5 27.5
t28 -13t11 -33.5t-22.5 -60t-46.5 -122t-33 -155.5q52 0 88 -9zM231 89q83 79 125 150q-168 -10 -259.5 -63t-91.5 -113q0 -26 17.5 -41t46.5 -15q78 0 162 82zM573 307q7 34 18.5 85.5t13.5 60.5q-48 -46 -67 -67.5t-67 -82.5q17 1 41.5 1.5t40.5 1.5t20 1zM732 779v-36
l-177 -6l-9 31q33 7 186 11z" />
    <glyph glyph-name="amacron" unicode="&#x101;" horiz-adv-x="459" 
d="M434 101l23 -17q-14 -30 -51.5 -57t-68.5 -27q-59 0 -59 62q0 29 15 69l-37 -38q-54 -55 -93.5 -74t-77.5 -19t-57.5 21.5t-19.5 59.5q0 70 54 138.5t138 111.5t168 44l2 -33l-42 -9q-91 -20 -160.5 -80t-69.5 -119.5t48 -59.5q45 0 111 63t110 148l42 -25
q-62 -125 -62 -159q0 -14 9.5 -23.5t19 -9.5t12.5 1t6 2.5t7.5 4.5t8 6t11.5 9t13 10zM411 481v-36l-177 -6l-9 31q33 7 186 11z" />
    <glyph glyph-name="Abreve" unicode="&#x102;" horiz-adv-x="810" 
d="M756 298l-5 -60q-23 2 -49.5 2t-44.5 -1q-14 -110 -18 -239h-70q-6 26 -6 69t2.5 74.5t6.5 62.5t4 36q-14 1 -66 1t-72 -2q-116 -156 -214 -236.5t-196 -80.5q-48 0 -80.5 29t-32.5 77q0 91 138.5 166t358.5 101q26 40 97 123.5t140 145.5q30 70 47.5 97.5t34.5 27.5
t28 -13t11 -33.5t-22.5 -60t-46.5 -122t-33 -155.5q52 0 88 -9zM246 89q83 79 125 150q-168 -10 -259.5 -63t-91.5 -113q0 -26 17.5 -41t46.5 -15q78 0 162 82zM588 307q7 34 18.5 85.5t13.5 60.5q-48 -46 -67 -67.5t-67 -82.5q17 1 41.5 1.5t40.5 1.5t20 1zM751 810l30 -16
q-20 -31 -51.5 -55t-62.5 -24t-65 23.5t-55 47.5l32 27q52 -51 85 -51q51 0 87 48z" />
    <glyph glyph-name="abreve" unicode="&#x103;" horiz-adv-x="489" 
d="M449 101l23 -17q-14 -30 -51.5 -57t-68.5 -27q-59 0 -59 62q0 29 15 69l-37 -38q-54 -55 -93.5 -74t-77.5 -19t-57.5 21.5t-19.5 59.5q0 70 54 138.5t138 111.5t168 44l2 -33l-42 -9q-91 -20 -160.5 -80t-69.5 -119.5t48 -59.5q45 0 111 63t110 148l42 -25
q-62 -125 -62 -159q0 -14 9.5 -23.5t19 -9.5t12.5 1t6 2.5t7.5 4.5t8 6t11.5 9t13 10zM425 509l30 -16q-20 -31 -51.5 -55t-62.5 -24t-65 23.5t-55 47.5l32 27q52 -51 85 -51q51 0 87 48z" />
    <glyph glyph-name="Aogonek" unicode="&#x104;" horiz-adv-x="810" 
d="M683 -70l20 -16q-30 -40 -82.5 -71t-84 -31t-48 13.5t-16.5 32.5q0 39 29 85.5t64 78.5q-2 22 -2 56t2.5 65.5t6.5 62.5t4 36q-14 1 -66 1t-72 -2q-116 -156 -214 -236.5t-196 -80.5q-48 0 -80.5 29t-32.5 77q0 91 138.5 166t358.5 101q26 40 97 123.5t140 145.5
q30 70 47.5 97.5t34.5 27.5t28 -13t11 -33.5t-22.5 -60t-46.5 -122t-33 -155.5q52 0 88 -9l-5 -60q-23 2 -49.5 2t-44.5 -1q-14 -110 -18 -239h-39q-42 -58 -42 -87q0 -8 7 -16t23 -8q36 0 95 41zM246 89q83 79 125 150q-168 -10 -259.5 -63t-91.5 -113q0 -26 17.5 -41
t46.5 -15q78 0 162 82zM588 307q7 34 18.5 85.5t13.5 60.5q-48 -46 -67 -67.5t-67 -82.5q17 1 41.5 1.5t40.5 1.5t20 1z" />
    <glyph glyph-name="aogonek" unicode="&#x105;" horiz-adv-x="489" 
d="M420 -67l20 -16q-30 -40 -82.5 -71t-84 -31t-48 13.5t-16.5 32.5q0 39 28.5 85.5t63.5 77.5q-8 15 -8 41t15 66l-37 -38q-54 -55 -93.5 -74t-77.5 -19t-57.5 21.5t-19.5 59.5q0 70 54 138.5t138 111.5t168 44l2 -33l-42 -9q-91 -20 -160.5 -80t-69.5 -119.5t48 -59.5
q45 0 111 63t110 148l42 -25q-62 -125 -62 -159q0 -14 9.5 -23.5t19 -9.5t12.5 1t6 2.5t7.5 4.5t8 6t11.5 9t13 10l23 -17q-14 -30 -51.5 -57t-68.5 -27q-11 0 -16 1q-17 -23 -29 -48.5t-12 -35t7 -17.5t23 -8q36 0 95 41z" />
    <glyph glyph-name="Cacute" unicode="&#x106;" horiz-adv-x="628" 
d="M510 632q37 0 57.5 -20.5t20.5 -55.5q0 -78 -93 -144.5t-212 -66.5q-52 0 -110 15q-38 -62 -38 -134.5t40 -117t117 -44.5q138 0 181 161h47q-11 -93 -87.5 -164t-201.5 -71q-66 0 -123 48.5t-57 140.5t70 201q-51 30 -81 74l27 30q7 -7 19 -21q23 -27 62 -47
q59 82 171.5 149t190.5 67zM280 385q87 0 153 41t66 96q0 19 -13.5 30.5t-34.5 11.5q-61 0 -136 -48.5t-119 -116.5q36 -14 84 -14zM524 724l-171 -56l-29 18l132 78z" />
    <glyph glyph-name="cacute" unicode="&#x107;" horiz-adv-x="385" 
d="M291 142l24 -20q-24 -55 -77 -88t-102.5 -33t-82 31t-32.5 85t47 117t121.5 104t146.5 41q10 0 30 -2l-3 -39q-110 -5 -182.5 -67t-72.5 -132q0 -29 18 -47t47 -18q46 0 118 68zM379 464l-171 -56l-29 18l132 78z" />
    <glyph glyph-name="Ccircumflex" unicode="&#x108;" horiz-adv-x="598" 
d="M495 632q37 0 57.5 -20.5t20.5 -55.5q0 -78 -93 -144.5t-212 -66.5q-52 0 -110 15q-38 -62 -38 -134.5t40 -117t117 -44.5q138 0 181 161h47q-11 -93 -87.5 -164t-201.5 -71q-66 0 -123 48.5t-57 140.5t70 201q-51 30 -81 74l27 30q7 -7 19 -21q23 -27 62 -47
q59 82 171.5 149t190.5 67zM265 385q87 0 153 41t66 96q0 19 -13.5 30.5t-34.5 11.5q-61 0 -136 -48.5t-119 -116.5q36 -14 84 -14zM275 675l147 114q108 -86 129 -108l-30 -24q-85 51 -103 64l-99 -70z" />
    <glyph glyph-name="ccircumflex" unicode="&#x109;" horiz-adv-x="355" 
d="M276 142l24 -20q-24 -55 -77 -88t-102.5 -33t-82 31t-32.5 85t47 117t121.5 104t146.5 41q10 0 30 -2l-3 -39q-110 -5 -182.5 -67t-72.5 -132q0 -29 18.5 -47t46.5 -18q46 0 118 68zM85 430l147 114q108 -86 129 -108l-30 -24q-85 51 -103 64l-99 -70z" />
    <glyph glyph-name="Cdotaccent" unicode="&#x10a;" horiz-adv-x="598" 
d="M495 632q37 0 57.5 -20.5t20.5 -55.5q0 -78 -93 -144.5t-212 -66.5q-52 0 -110 15q-38 -62 -38 -134.5t40 -117t117 -44.5q138 0 181 161h47q-11 -93 -87.5 -164t-201.5 -71q-66 0 -123 48.5t-57 140.5t70 201q-51 30 -81 74l27 30q7 -7 19 -21q23 -27 62 -47
q59 82 171.5 149t190.5 67zM265 385q87 0 153 41t66 96q0 19 -13.5 30.5t-34.5 11.5q-61 0 -136 -48.5t-119 -116.5q36 -14 84 -14zM381 735q0 17 11.5 28.5t27.5 11.5t28 -11.5t12 -28t-11.5 -28t-28 -11.5t-28 11t-11.5 28z" />
    <glyph glyph-name="cdotaccent" unicode="&#x10b;" horiz-adv-x="355" 
d="M276 142l24 -20q-24 -55 -77 -88t-102.5 -33t-82 31t-32.5 85t47 117t121.5 104t146.5 41q10 0 30 -2l-3 -39q-110 -5 -182.5 -67t-72.5 -132q0 -29 18.5 -47t46.5 -18q46 0 118 68zM245 448.5q-11 11.5 -11 28t11.5 28t28 11.5t28 -12t11.5 -28t-11.5 -27.5t-28.5 -11.5
t-28 11.5z" />
    <glyph glyph-name="Ccaron" unicode="&#x10c;" horiz-adv-x="628" 
d="M510 632q37 0 57.5 -20.5t20.5 -55.5q0 -78 -93 -144.5t-212 -66.5q-52 0 -110 15q-38 -62 -38 -134.5t40 -117t117 -44.5q138 0 181 161h47q-11 -93 -87.5 -164t-201.5 -71q-66 0 -123 48.5t-57 140.5t70 201q-51 30 -81 74l27 30q7 -7 19 -21q23 -27 62 -47
q59 82 171.5 149t190.5 67zM280 385q87 0 153 41t66 96q0 19 -13.5 30.5t-34.5 11.5q-61 0 -136 -48.5t-119 -116.5q36 -14 84 -14zM435 665l-147 114l44 24q55 -42 99 -70q18 13 103 64l30 -24q-15 -17 -102 -86z" />
    <glyph glyph-name="ccaron" unicode="&#x10d;" horiz-adv-x="385" 
d="M291 142l24 -20q-24 -55 -77 -88t-102.5 -33t-82 31t-32.5 85t47 117t121.5 104t146.5 41q10 0 30 -2l-3 -39q-110 -5 -182.5 -67t-72.5 -132q0 -29 18 -47t47 -18q46 0 118 68zM263 406l-147 114l44 24q55 -42 99 -70q18 13 103 64l30 -24q-15 -17 -102 -86z" />
    <glyph glyph-name="Dcaron" unicode="&#x10e;" horiz-adv-x="704" 
d="M243 638q174 0 297.5 -103t123.5 -241t-84 -218t-213 -78q-69 1 -110 1h-47q-29 0 -29 22q0 8 17 41q56 112 85 229q-103 0 -193 57t-90 129.5t68 116.5t175 44zM239 597q-66 0 -104 -28t-38 -82.5t52.5 -97t140.5 -53.5q31 131 36 169l60 -6q0 -62 -26 -164q8 0 93 10
l5 -33q-20 -7 -111 -21q-39 -126 -81 -218q100 -8 166.5 -8t105.5 49.5t39 133.5q0 145 -99 247t-239 102zM361 657l-147 114l44 24q55 -42 99 -70q18 13 103 64l30 -24q-15 -17 -102 -86z" />
    <glyph glyph-name="dcaron" unicode="&#x10f;" horiz-adv-x="662" 
d="M584 739l51 -18l-14 -26q-110 -205 -187 -397q-51 -126 -51 -189q0 -16 8 -25.5t25.5 -9.5t40.5 23l18 -17q-13 -29 -45 -53.5t-62 -24.5q-58 0 -58 68q0 40 22 123q-118 -206 -231 -206q-39 0 -62 24t-23 65q0 65 52 135t128 114.5t142 44.5l3 -35q-86 -11 -160.5 -74.5
t-74.5 -129.5q0 -28 15 -44.5t39 -16.5q49 0 128 105q29 38 66.5 111t60 117.5t44 87t56.5 112t69 136.5zM563.5 512.5q13.5 12.5 33 12.5t30.5 -11.5t11 -30.5q0 -44 -76 -99l-22 32q40 32 41 34q-31 10 -31 32q0 18 13.5 30.5z" />
    <glyph glyph-name="Dcroat" unicode="&#x110;" horiz-adv-x="744" 
d="M283 638q174 0 297.5 -103t123.5 -241t-84 -218t-213 -78q-69 1 -110 1h-47q-29 0 -29 22q0 5 25 58t34 76l-109 -16l10 61q64 11 121 17q12 35 21 74q-103 0 -193 57t-90 129.5t68 116.5t175 44zM496 235v-47l-151 -23q-19 -47 -39 -92q100 -8 166.5 -8t105.5 49.5
t39 133.5q0 145 -99 247t-239 102q-66 0 -104 -28t-38 -82.5t52.5 -97t140.5 -53.5q31 131 36 169l60 -6q0 -62 -26 -164q8 0 93 10l5 -33q-20 -7 -111 -21q-16 -51 -21 -66q50 5 130 10z" />
    <glyph glyph-name="dcroat" unicode="&#x111;" horiz-adv-x="579" 
d="M625 566v-48l-100 -12q-142 -292 -142 -397q0 -16 8 -25.5t25.5 -9.5t40.5 23l18 -17q-13 -29 -45 -53.5t-62 -24.5q-58 0 -58 68q0 40 22 123q-118 -206 -231 -206q-39 0 -62 24t-23 65q0 65 52 135t128 114.5t142 44.5l3 -35q-86 -11 -160.5 -74.5t-74.5 -129.5
q0 -28 15 -44.5t39 -16.5q49 0 128 105q23 29 50.5 80.5t124.5 243.5l-94 -10l-14 55q70 11 138 15l91 180l51 -18l-11 -19q-10 -20 -30.5 -60t-40.5 -79z" />
    <glyph glyph-name="Emacron" unicode="&#x112;" horiz-adv-x="659" 
d="M634 574q0 -50 -47.5 -89t-109 -57t-118.5 -18q-15 0 -22 1v34q2 0 58 9.5t94.5 33.5t38.5 54q0 36 -54 36q-73 0 -138 -50t-65 -105t68 -71q15 -4 20 -8t5 -14t-9.5 -16.5t-43.5 -18.5q-184 -63 -184 -196q0 -27 10 -46q61 78 158 127t187 49q47 0 75 -20.5t28 -56.5
q0 -56 -52 -112t-134.5 -91.5t-164.5 -35.5t-128 30q-1 -1 -8 -15q-21 -40 -35 -56l-33 14q7 28 41 85q-46 52 -46 116.5t52.5 123t146.5 96.5q-47 39 -47 81q0 57 60 116.5t146.5 96.5t162.5 37q40 0 64 -17.5t24 -46.5zM424 169q-59 0 -137.5 -45t-127.5 -107
q40 -45 113.5 -45t144 47.5t70.5 102.5q0 22 -17 34.5t-46 12.5zM563 755v-36l-177 -6l-9 31q33 7 186 11z" />
    <glyph glyph-name="emacron" unicode="&#x113;" horiz-adv-x="371" 
d="M285 118l23 -18q-31 -43 -85 -71.5t-105 -28.5t-82 30t-31 79q0 92 97.5 181t197.5 89q66 0 66 -52q0 -54 -69.5 -109t-195.5 -100q9 -23 28 -36t39 -13q44 0 117 49zM96 148q81 28 139 70t58 77q0 13 -9.5 23t-23.5 10q-47 0 -101.5 -58.5t-62.5 -121.5zM329 459v-36
l-177 -6l-9 31q33 7 186 11z" />
    <glyph glyph-name="Ebreve" unicode="&#x114;" horiz-adv-x="659" 
d="M634 574q0 -50 -47.5 -89t-109 -57t-118.5 -18q-15 0 -22 1v34q2 0 58 9.5t94.5 33.5t38.5 54q0 36 -54 36q-73 0 -138 -50t-65 -105t68 -71q15 -4 20 -8t5 -14t-9.5 -16.5t-43.5 -18.5q-184 -63 -184 -196q0 -27 10 -46q61 78 158 127t187 49q47 0 75 -20.5t28 -56.5
q0 -56 -52 -112t-134.5 -91.5t-164.5 -35.5t-128 30q-1 -1 -8 -15q-21 -40 -35 -56l-33 14q7 28 41 85q-46 52 -46 116.5t52.5 123t146.5 96.5q-47 39 -47 81q0 57 60 116.5t146.5 96.5t162.5 37q40 0 64 -17.5t24 -46.5zM424 169q-59 0 -137.5 -45t-127.5 -107
q40 -45 113.5 -45t144 47.5t70.5 102.5q0 22 -17 34.5t-46 12.5zM578 780l30 -16q-20 -31 -51.5 -55t-62.5 -24t-65 23.5t-55 47.5l32 27q52 -51 85 -51q51 0 87 48z" />
    <glyph glyph-name="ebreve" unicode="&#x115;" horiz-adv-x="371" 
d="M285 118l23 -18q-31 -43 -85 -71.5t-105 -28.5t-82 30t-31 79q0 92 97.5 181t197.5 89q66 0 66 -52q0 -54 -69.5 -109t-195.5 -100q9 -23 28 -36t39 -13q44 0 117 49zM96 148q81 28 139 70t58 77q0 13 -9.5 23t-23.5 10q-47 0 -101.5 -58.5t-62.5 -121.5zM315 514l30 -16
q-20 -31 -51.5 -55t-62.5 -24t-65 23.5t-55 47.5l32 27q52 -51 85 -51q51 0 87 48z" />
    <glyph glyph-name="Edotaccent" unicode="&#x116;" horiz-adv-x="659" 
d="M634 574q0 -50 -47.5 -89t-109 -57t-118.5 -18q-15 0 -22 1v34q2 0 58 9.5t94.5 33.5t38.5 54q0 36 -54 36q-73 0 -138 -50t-65 -105t68 -71q15 -4 20 -8t5 -14t-9.5 -16.5t-43.5 -18.5q-184 -63 -184 -196q0 -27 10 -46q61 78 158 127t187 49q47 0 75 -20.5t28 -56.5
q0 -56 -52 -112t-134.5 -91.5t-164.5 -35.5t-128 30q-1 -1 -8 -15q-21 -40 -35 -56l-33 14q7 28 41 85q-46 52 -46 116.5t52.5 123t146.5 96.5q-47 39 -47 81q0 57 60 116.5t146.5 96.5t162.5 37q40 0 64 -17.5t24 -46.5zM424 169q-59 0 -137.5 -45t-127.5 -107
q40 -45 113.5 -45t144 47.5t70.5 102.5q0 22 -17 34.5t-46 12.5zM439 737q0 17 11.5 28.5t27.5 11.5t28 -11.5t12 -28t-11.5 -28t-28 -11.5t-28 11t-11.5 28z" />
    <glyph glyph-name="edotaccent" unicode="&#x117;" horiz-adv-x="371" 
d="M285 118l23 -18q-31 -43 -85 -71.5t-105 -28.5t-82 30t-31 79q0 92 97.5 181t197.5 89q66 0 66 -52q0 -54 -69.5 -109t-195.5 -100q9 -23 28 -36t39 -13q44 0 117 49zM96 148q81 28 139 70t58 77q0 13 -9.5 23t-23.5 10q-47 0 -101.5 -58.5t-62.5 -121.5zM214 463
q0 17 11.5 28.5t28 11.5t28 -11.5t11.5 -28t-11.5 -28t-28.5 -11.5t-28 11t-11 28z" />
    <glyph glyph-name="Eogonek" unicode="&#x118;" horiz-adv-x="689" 
d="M220 -102l20 -16q-30 -40 -82.5 -71t-84 -31t-48 13.5t-16.5 32.5q0 66 75 147q-44 50 -44 114.5t52.5 123t146.5 96.5q-47 39 -47 81q0 57 60 116.5t146.5 96.5t162.5 37q40 0 64 -17.5t24 -46.5q0 -50 -47.5 -89t-109 -57t-118.5 -18q-15 0 -22 1v34q2 0 58 9.5
t94.5 33.5t38.5 54q0 36 -54 36q-73 0 -138 -50t-65 -105t68 -71q15 -4 20 -8t5 -14t-9.5 -16.5t-43.5 -18.5q-184 -63 -184 -196q0 -27 10 -46q61 78 158 127t187 49q47 0 75 -20.5t28 -56.5q0 -56 -52 -112t-134.5 -91.5t-164 -35.5t-128.5 30l-17 -31q-9 -17 -9 -28
t7 -19t23 -8q36 0 95 41zM439 169q-59 0 -137.5 -45t-127.5 -107q40 -45 113.5 -45t144 47.5t70.5 102.5q0 22 -17 34.5t-46 12.5z" />
    <glyph glyph-name="eogonek" unicode="&#x119;" horiz-adv-x="401" 
d="M226 -74l20 -16q-30 -40 -82.5 -71t-84 -31t-48 13.5t-16.5 32.5q0 69 80 151q-35 10 -55 37t-20 67q0 92 97.5 181t197.5 89q66 0 66 -52q0 -54 -69.5 -109t-195.5 -100q9 -23 28 -36t39 -13q43 0 117 49l23 -18q-29 -40 -79 -68t-98 -32q-19 -24 -32 -51.5t-13 -37.5
t7 -18t23 -8q36 0 95 41zM111 148q81 28 139 70t58 77q0 13 -10 23t-23 10q-47 0 -101.5 -58.5t-62.5 -121.5z" />
    <glyph glyph-name="Ecaron" unicode="&#x11a;" horiz-adv-x="689" 
d="M649 574q0 -50 -47.5 -89t-109 -57t-118.5 -18q-15 0 -22 1v34q2 0 58 9.5t94.5 33.5t38.5 54q0 36 -54 36q-73 0 -138 -50t-65 -105t68 -71q15 -4 20 -8t5 -14t-9.5 -16.5t-43.5 -18.5q-184 -63 -184 -196q0 -27 10 -46q61 78 158 127t187 49q47 0 75 -20.5t28 -56.5
q0 -56 -52 -112t-134.5 -91.5t-164 -35.5t-128.5 30q-1 -1 -9 -15q-20 -40 -34 -56l-33 14q7 28 41 85q-46 52 -46 116.5t52.5 123t146.5 96.5q-47 39 -47 81q0 57 60 116.5t146.5 96.5t162.5 37q40 0 64 -17.5t24 -46.5zM439 169q-59 0 -137.5 -45t-127.5 -107
q40 -45 113.5 -45t144 47.5t70.5 102.5q0 22 -17 34.5t-46 12.5zM494 680l-147 114l44 24q55 -42 99 -70q18 13 103 64l30 -24q-15 -17 -101 -86z" />
    <glyph glyph-name="ecaron" unicode="&#x11b;" horiz-adv-x="401" 
d="M300 118l23 -18q-31 -43 -85 -71.5t-105 -28.5t-82 30t-31 79q0 92 97.5 181t197.5 89q66 0 66 -52q0 -54 -69.5 -109t-195.5 -100q9 -23 28 -36t39 -13q43 0 117 49zM111 148q81 28 139 70t58 77q0 13 -10 23t-23 10q-47 0 -101.5 -58.5t-62.5 -121.5zM274 397l-147 114
l44 24q55 -42 99 -70q18 13 103 64l30 -24q-15 -17 -101 -86z" />
    <glyph glyph-name="Gcircumflex" unicode="&#x11c;" horiz-adv-x="669" 
d="M520 -8l-15 -34q-98 17 -113 18q-49 -133 -140 -210t-204 -77q-61 0 -102 33t-41 82q0 86 118.5 151t287.5 65q23 0 35 -1q18 38 29 81q-65 -43 -137 -43t-120.5 51.5t-48.5 136t56.5 178t149 154.5t188.5 61q56 0 106 -19.5t75 -46.5l-54 -65q-41 32 -58 43
q-44 30 -94 30q-103 0 -191 -99.5t-88 -216.5q0 -64 36 -101t94.5 -37t105.5 28q58 153 108 153q29 0 29 -28t-21.5 -64.5t-55.5 -65.5q-41 -110 -48 -132q70 -8 113 -25zM97 -243q68 0 134.5 63t100.5 158q-135 0 -228.5 -45.5t-93.5 -110.5q0 -30 23.5 -47.5t63.5 -17.5z
M275 710l147 114q108 -86 129 -108l-30 -24q-85 51 -103 64l-99 -70z" />
    <glyph glyph-name="gcircumflex" unicode="&#x11d;" horiz-adv-x="439" 
d="M436 36l1 -24q-10 -6 -91 -36q-32 -191 -94 -276t-152 -85q-42 0 -67 27t-25 70q0 86 79 160.5t211 117.5q15 67 54 189q-67 -102 -121.5 -138t-98.5 -36t-66.5 24t-22.5 64q0 66 55 134.5t138.5 112t161.5 43.5l8 -35q-111 -12 -190.5 -78t-79.5 -127q0 -26 16 -43
t39 -17q34 0 103 72t97 123l37 -21q-55 -147 -76 -248zM292 -40q-87 -40 -144 -96t-57 -102q0 -24 14 -39t35 -15q42 0 83 59t69 193zM157 443l147 114q108 -86 129 -108l-30 -24q-85 51 -103 64l-99 -70z" />
    <glyph glyph-name="Gbreve" unicode="&#x11e;" horiz-adv-x="699" 
d="M535 -8l-15 -34q-98 17 -113 18q-49 -133 -140 -210t-204 -77q-61 0 -102 33t-41 82q0 86 118.5 151t287.5 65q23 0 35 -1q18 38 29 81q-64 -43 -136.5 -43t-121 51.5t-48.5 136t56.5 178t149 154.5t188.5 61q56 0 106 -19.5t75 -46.5l-54 -65q-41 32 -58 43
q-44 30 -94 30q-103 0 -191 -99.5t-88 -216.5q0 -64 36 -101t94.5 -37t105.5 28q58 153 108 153q29 0 29 -28t-21.5 -64.5t-55.5 -65.5q-41 -110 -48 -132q70 -8 113 -25zM112 -243q68 0 134.5 63t100.5 158q-135 0 -228.5 -45.5t-93.5 -110.5q0 -30 23.5 -47.5t63.5 -17.5z
M546 787l30 -16q-20 -31 -51.5 -55t-62.5 -24t-65 23.5t-55 47.5l32 27q52 -51 85 -51q51 0 87 48z" />
    <glyph glyph-name="gbreve" unicode="&#x11f;" horiz-adv-x="469" 
d="M451 36l1 -24q-10 -6 -91 -36q-32 -191 -94 -276t-152 -85q-42 0 -67 27t-25 70q0 86 79 160.5t211 117.5q15 67 54 189q-67 -102 -121.5 -138t-98.5 -36t-66.5 24t-22.5 64q0 66 55 134.5t138.5 112t161.5 43.5l8 -35q-111 -12 -190.5 -78t-79.5 -127q0 -26 16 -43
t39 -17q34 0 103 72t97 123l37 -21q-55 -147 -76 -248zM307 -40q-87 -40 -144 -96t-57 -102q0 -24 14 -39t35 -15q42 0 83 59t69 193zM410 514l30 -16q-20 -31 -51.5 -55t-62.5 -24t-65 23.5t-55 47.5l32 27q52 -51 85 -51q51 0 87 48z" />
    <glyph glyph-name="Gdotaccent" unicode="&#x120;" horiz-adv-x="669" 
d="M520 -8l-15 -34q-98 17 -113 18q-49 -133 -140 -210t-204 -77q-61 0 -102 33t-41 82q0 86 118.5 151t287.5 65q23 0 35 -1q18 38 29 81q-65 -43 -137 -43t-120.5 51.5t-48.5 136t56.5 178t149 154.5t188.5 61q56 0 106 -19.5t75 -46.5l-54 -65q-41 32 -58 43
q-44 30 -94 30q-103 0 -191 -99.5t-88 -216.5q0 -64 36 -101t94.5 -37t105.5 28q58 153 108 153q29 0 29 -28t-21.5 -64.5t-55.5 -65.5q-41 -110 -48 -132q70 -8 113 -25zM97 -243q68 0 134.5 63t100.5 158q-135 0 -228.5 -45.5t-93.5 -110.5q0 -30 23.5 -47.5t63.5 -17.5z
M395 708.5q-11 11.5 -11 28t11.5 28t28 11.5t28 -12t11.5 -28t-11.5 -27.5t-28.5 -11.5t-28 11.5z" />
    <glyph glyph-name="gdotaccent" unicode="&#x121;" horiz-adv-x="439" 
d="M436 36l1 -24q-10 -6 -91 -36q-32 -191 -94 -276t-152 -85q-42 0 -67 27t-25 70q0 86 79 160.5t211 117.5q15 67 54 189q-67 -102 -121.5 -138t-98.5 -36t-66.5 24t-22.5 64q0 66 55 134.5t138.5 112t161.5 43.5l8 -35q-111 -12 -190.5 -78t-79.5 -127q0 -26 16 -43
t39 -17q34 0 103 72t97 123l37 -21q-55 -147 -76 -248zM292 -40q-87 -40 -144 -96t-57 -102q0 -24 14 -39t35 -15q42 0 83 59t69 193zM296.5 428.5q-11.5 11.5 -11.5 28t11.5 28t27.5 11.5t28 -12t12 -28t-11.5 -27.5t-28 -11.5t-28 11.5z" />
    <glyph glyph-name="uni0122" unicode="&#x122;" horiz-adv-x="669" 
d="M420.5 -101.5q13.5 12.5 33 12.5t30.5 -11.5t11 -30.5q0 -44 -76 -99l-22 32q40 32 41 34q-31 10 -31 32q0 18 13.5 30.5zM520 -8l-15 -34q-98 17 -113 18q-49 -133 -140 -210t-204 -77q-61 0 -102 33t-41 82q0 86 118.5 151t287.5 65q23 0 35 -1q18 38 29 81
q-65 -43 -137 -43t-120.5 51.5t-48.5 136t56.5 178t149 154.5t188.5 61q56 0 106 -19.5t75 -46.5l-54 -65q-41 32 -58 43q-44 30 -94 30q-103 0 -191 -99.5t-88 -216.5q0 -64 36 -101t94.5 -37t105.5 28q58 153 108 153q29 0 29 -28t-21.5 -64.5t-55.5 -65.5
q-41 -110 -48 -132q70 -8 113 -25zM97 -243q68 0 134.5 63t100.5 158q-135 0 -228.5 -45.5t-93.5 -110.5q0 -30 23.5 -47.5t63.5 -17.5z" />
    <glyph glyph-name="uni0123" unicode="&#x123;" horiz-adv-x="439" 
d="M436 36l1 -24q-10 -6 -91 -36q-32 -191 -94 -276t-152 -85q-42 0 -67 27t-25 70q0 86 79 160.5t211 117.5q15 67 54 189q-67 -102 -121.5 -138t-98.5 -36t-66.5 24t-22.5 64q0 66 55 134.5t138.5 112t161.5 43.5l8 -35q-111 -12 -190.5 -78t-79.5 -127q0 -26 16 -43
t39 -17q34 0 103 72t97 123l37 -21q-55 -147 -76 -248zM292 -40q-87 -40 -144 -96t-57 -102q0 -24 14 -39t35 -15q42 0 83 59t69 193zM353.5 452.5q-13.5 -12.5 -33 -12.5t-30.5 11.5t-11 30.5q0 45 76 99l22 -32q-4 -3 -15 -11.5t-17.5 -13.5t-8.5 -9q31 -10 31 -32
q0 -18 -13.5 -30.5z" />
    <glyph glyph-name="Hcircumflex" unicode="&#x124;" horiz-adv-x="815" 
d="M755 637l45 -22q-67 -131 -139 -337q46 0 63 -4l-4 -57q-21 -7 -82 -7q-21 -58 -25 -94t-6.5 -70t-3.5 -46h-56q-5 17 -5 35q0 62 33 175q-60 0 -182 -14q-5 -16 -25 -59.5t-39.5 -75.5t-52.5 -70t-69 -64q-103 -74 -200 -74q-40 0 -66 25t-26 63q0 96 110.5 174.5
t306.5 125.5q74 216 208 308q-145 -2 -239 -49t-94 -120q0 -23 7 -39.5t33 -51.5l-34 -32q-44 28 -67 68t-23 77q0 62 66 114.5t164 81t199 28.5q51 0 70.5 -7.5t19.5 -28t-29 -38.5q-125 -78 -201 -296q59 10 183 22q48 140 77.5 207.5t82.5 151.5zM173.5 -45.5
q49.5 32.5 83 85t57.5 144.5q-133 -22 -214.5 -77.5t-81.5 -125.5q0 -28 16.5 -43.5t53 -15.5t86 32.5zM458 703l147 114q108 -86 129 -108l-30 -24q-85 51 -103 64l-99 -70z" />
    <glyph glyph-name="hcircumflex" unicode="&#x125;" horiz-adv-x="423" 
d="M391 73l23 -19q-42 -70 -109 -70q-58 0 -58 57q0 33 28.5 105.5t28.5 95.5q0 29 -37 29t-100.5 -79.5t-106.5 -184.5l-59 21q52 261 272 699l49 -16q-111 -222 -159 -353q-50 -136 -75 -225q77 127 132.5 176t95.5 49q75 0 75 -53q0 -33 -37 -118t-37 -113t27 -28
q14 0 47 27zM201 413l147 114q108 -86 129 -108l-30 -24q-85 51 -103 64l-99 -70z" />
    <glyph glyph-name="Hbar" unicode="&#x126;" horiz-adv-x="815" 
d="M785 441v-47l-94 -7q-18 -45 -40 -109q46 0 63 -4l-4 -57q-21 -7 -82 -7q-21 -58 -25 -94t-6.5 -70t-3.5 -46h-56q-5 17 -5 35q0 62 33 175q-60 0 -182 -14q-5 -16 -25 -59.5t-39.5 -75.5t-52.5 -70t-69 -64q-103 -74 -200 -74q-40 0 -66 25t-26 63q0 96 110.5 174.5
t306.5 125.5q25 72 50 119l-78 -12l-18 35q18 4 61 14.5t63 13.5q56 88 130 138q-145 -2 -239 -49t-94 -120q0 -23 7 -39.5t33 -51.5l-34 -32q-44 28 -67 68t-23 77q0 62 66 114.5t164 81t199 28.5q51 0 70.5 -7.5t19.5 -28t-29 -38.5q-70 -44 -124 -130q82 11 163 14
q40 101 103 201l45 -22q-38 -75 -79 -176q30 2 74 2zM163.5 -45.5q49.5 32.5 83 85t57.5 144.5q-133 -22 -214.5 -77.5t-81.5 -125.5q0 -28 16.5 -43.5t53 -15.5t86 32.5zM585 278q18 53 36 103l-173 -15q-25 -50 -46 -110q59 10 183 22z" />
    <glyph glyph-name="hbar" unicode="&#x127;" horiz-adv-x="423" 
d="M347 565v-53l-124 -11q-82 -182 -135 -368q77 127 132.5 176t95.5 49q75 0 75 -53q0 -33 -37 -118t-37 -113t27 -28q14 0 47 27l23 -19q-42 -70 -109 -70q-58 0 -58 57q0 33 28.5 105.5t28.5 95.5q0 29 -37 29t-100.5 -79.5t-106.5 -184.5l-59 21q37 189 163 471l-105 -8
l-13 46q78 15 143 18q34 74 84 172l49 -16q-10 -21 -35 -73t-39 -82z" />
    <glyph glyph-name="Itilde" unicode="&#x128;" horiz-adv-x="576" 
d="M584 616q17 -5 17 -18q0 -4 -11 -18q-47 -59 -65.5 -88t-44 -97t-46 -130.5t-20.5 -63.5q-41 -92 -113 -145t-151 -53q-56 0 -90.5 27.5t-34.5 73.5q0 72 93 132t186 60l4 -33q-74 -15 -127.5 -55t-53.5 -87q0 -30 17.5 -49t44.5 -19q51 0 88 47.5t75.5 168.5t70 177
t79.5 94q-14 1 -31 1q-86 0 -167.5 -27t-81.5 -72q0 -28 25 -53l-22 -27q-67 47 -67 109q0 41 35.5 71t94.5 46q116 31 259 31q31 0 37 -3zM533 758l23 -19q-19 -30 -43.5 -51t-45 -21t-44.5 34.5t-44 34.5q-10 0 -20 -7t-15.5 -11t-15.5 -12t-16 -12l-28 26q74 65 99.5 65
t54.5 -35t44 -35q10 0 26.5 18t24.5 25z" />
    <glyph glyph-name="itilde" unicode="&#x129;" horiz-adv-x="288" 
d="M211 129l20 -17q-24 -46 -63.5 -78.5t-71.5 -32.5q-56 0 -56 78q0 97 80 253q18 34 21 40l43 -26q-21 -38 -51.5 -121t-30.5 -106.5t10 -33.5t24 -10q27 0 75 54zM257 497l23 -19q-19 -30 -43.5 -51t-45 -21t-44.5 34.5t-44 34.5q-10 0 -20 -7t-15.5 -11t-15.5 -12
t-16 -12l-28 26q74 65 99.5 65t54.5 -35t44 -35q10 0 26.5 18t24.5 25z" />
    <glyph glyph-name="Imacron" unicode="&#x12a;" horiz-adv-x="576" 
d="M584 616q17 -5 17 -18q0 -4 -11 -18q-47 -59 -65.5 -88t-44 -97t-46 -130.5t-20.5 -63.5q-41 -92 -113 -145t-151 -53q-56 0 -90.5 27.5t-34.5 73.5q0 72 93 132t186 60l4 -33q-74 -15 -127.5 -55t-53.5 -87q0 -30 17.5 -49t44.5 -19q51 0 88 47.5t75.5 168.5t70 177
t79.5 94q-14 1 -31 1q-86 0 -167.5 -27t-81.5 -72q0 -28 25 -53l-22 -27q-67 47 -67 109q0 41 35.5 71t94.5 46q116 31 259 31q31 0 37 -3zM553 714v-36l-177 -6l-9 31q33 7 186 11z" />
    <glyph glyph-name="imacron" unicode="&#x12b;" horiz-adv-x="288" 
d="M211 129l20 -17q-24 -46 -63.5 -78.5t-71.5 -32.5q-56 0 -56 78q0 97 80 253q18 34 21 40l43 -26q-21 -38 -51.5 -121t-30.5 -106.5t10 -33.5t24 -10q27 0 75 54zM237 465v-36l-177 -6l-9 31q33 7 186 11z" />
    <glyph glyph-name="Ibreve" unicode="&#x12c;" horiz-adv-x="576" 
d="M584 616q17 -5 17 -18q0 -4 -11 -18q-47 -59 -65.5 -88t-44 -97t-46 -130.5t-20.5 -63.5q-41 -92 -113 -145t-151 -53q-56 0 -90.5 27.5t-34.5 73.5q0 72 93 132t186 60l4 -33q-74 -15 -127.5 -55t-53.5 -87q0 -30 17.5 -49t44.5 -19q51 0 88 47.5t75.5 168.5t70 177
t79.5 94q-14 1 -31 1q-86 0 -167.5 -27t-81.5 -72q0 -28 25 -53l-22 -27q-67 47 -67 109q0 41 35.5 71t94.5 46q116 31 259 31q31 0 37 -3zM529 786l30 -16q-20 -31 -51.5 -55t-62.5 -24t-65 23.5t-55 47.5l32 27q52 -51 85 -51q51 0 87 48z" />
    <glyph glyph-name="ibreve" unicode="&#x12d;" horiz-adv-x="288" 
d="M211 129l20 -17q-24 -46 -63.5 -78.5t-71.5 -32.5q-56 0 -56 78q0 97 80 253q18 34 21 40l43 -26q-21 -38 -51.5 -121t-30.5 -106.5t10 -33.5t24 -10q27 0 75 54zM247 508l30 -16q-20 -31 -51.5 -55t-62.5 -24t-65 23.5t-55 47.5l32 27q52 -51 85 -51q51 0 87 48z" />
    <glyph glyph-name="Iogonek" unicode="&#x12e;" horiz-adv-x="576" 
d="M252 -73l20 -16q-30 -40 -82.5 -71t-84 -31t-48 13.5t-16.5 32.5q0 69 79 150q-44 7 -69.5 33.5t-25.5 65.5q0 72 93 132t186 60l4 -33q-74 -15 -127.5 -55t-53.5 -87q0 -30 17.5 -49t44.5 -19q51 0 88 47.5t75.5 168.5t70 177t79.5 94q-14 1 -31 1q-86 0 -167.5 -27
t-81.5 -72q0 -28 25 -53l-22 -27q-67 47 -67 109q0 41 35.5 71t94.5 46q116 31 259 31q31 0 37 -3q17 -5 17 -18q0 -4 -11 -18q-47 -59 -65.5 -88t-44 -97t-46 -130.5t-20.5 -63.5q-38 -86 -102.5 -137.5t-137.5 -59.5q-19 -24 -33 -53t-14 -39t7 -18t23 -8q36 0 95 41z" />
    <glyph glyph-name="iogonek" unicode="&#x12f;" horiz-adv-x="258" 
d="M224 -79l20 -16q-30 -40 -82.5 -71t-84 -31t-48 13.5t-16.5 32.5q0 36 24.5 78t57.5 76q-10 -2 -14 -2q-56 0 -56 78q0 97 81 253l20 40l43 -26q-21 -38 -51.5 -121t-30.5 -106.5t10 -33.5t24 -10q27 0 75 54l20 -17q-27 -50 -68 -82l27 -3q-27 -20 -51.5 -63t-24.5 -56
q0 -28 33 -28t92 41zM209 424q-56 0 -56 45q0 25 14 42t36 17t36 -13t14 -34t-12 -39t-32 -18z" />
    <glyph glyph-name="Idotaccent" unicode="&#x130;" horiz-adv-x="606" 
d="M599 616q17 -5 17 -18q0 -4 -12 -18q-46 -59 -64.5 -88t-44 -97t-46 -130.5t-20.5 -63.5q-41 -92 -113 -145t-151 -53q-56 0 -90.5 27.5t-34.5 73.5q0 72 93 132t186 60l4 -33q-74 -15 -127.5 -55t-53.5 -87q0 -30 17.5 -49t44.5 -19q51 0 88 47.5t75.5 168.5t70 177
t79.5 94q-14 1 -31 1q-86 0 -167.5 -27t-81.5 -72q0 -28 25 -53l-22 -27q-67 47 -67 109q0 41 35.5 71t95.5 46q115 31 258 31q31 0 37 -3zM417 733q0 17 11.5 28.5t27.5 11.5t28 -11.5t12 -28t-11.5 -28t-28 -11.5t-28 11t-11.5 28z" />
    <glyph glyph-name="dotlessi" unicode="&#x131;" horiz-adv-x="288" 
d="M211 129l20 -17q-24 -46 -63.5 -78.5t-71.5 -32.5q-56 0 -56 78q0 97 80 253q18 34 21 40l43 -26q-21 -38 -51.5 -121t-30.5 -106.5t10 -33.5t24 -10q27 0 75 54z" />
    <glyph glyph-name="IJ" unicode="&#x132;" horiz-adv-x="611" 
d="M589 616q17 -5 17 -18q0 -4 -12 -18q-46 -59 -64.5 -88t-44 -97t-46 -130.5t-20.5 -63.5q-41 -92 -113 -145t-151 -53q-56 0 -90.5 27.5t-34.5 73.5q0 72 93 132t186 60l4 -33q-74 -15 -127.5 -55t-53.5 -87q0 -30 17.5 -49t44.5 -19q51 0 88 47.5t75.5 168.5t70 177
t79.5 94q-14 1 -31 1q-86 0 -167.5 -27t-81.5 -72q0 -28 25 -53l-22 -27q-67 47 -67 109q0 41 35.5 71t95.5 46q115 31 258 31q31 0 37 -3zM913 622q61 0 99.5 -7.5t38.5 -30.5q0 -20 -32 -39q-79 -48 -140.5 -155.5t-126.5 -317.5q59 0 89 -5l-6 -40q-28 5 -50 5t-49 -5
q-31 -85 -65.5 -138t-88.5 -99t-120 -76t-112.5 -30t-73.5 25.5t-27 67.5q0 64 60 127t158.5 106t207.5 54q2 4 31 95q46 150 103.5 238.5t138.5 146.5q-17 2 -45 2q-173 0 -284 -63t-111 -142q0 -51 30.5 -94.5t86.5 -89.5l-24 -33q-163 88 -163 222q0 78 66.5 142t175 99
t233.5 35zM504.5 -216q50.5 32 95 94t62.5 142q-130 -13 -220.5 -74.5t-90.5 -137.5q0 -26 15 -41t42 -15q46 0 96.5 32z" />
    <glyph glyph-name="ij" unicode="&#x133;" horiz-adv-x="641" 
d="M559 141q2 -18 2 -29q-53 -13 -96 -30q-37 -178 -96 -269t-150 -91q-45 0 -70.5 27t-25.5 74q0 27 5 44q-22 -10 -37 -10q-56 0 -56 78q0 97 81 253l20 40l43 -26q-21 -38 -51.5 -121t-30.5 -106.5t10 -33.5t25.5 -10t36.5 17q70 88 243 149q45 171 108 336q19 50 21 60
l50 -16q-28 -62 -68.5 -183t-48.5 -176zM408 58q-125 -62 -158 -98q-43 -47 -43 -98q0 -22 13 -35t35 -13q45 0 86.5 68.5t66.5 175.5zM655.5 575q-10.5 -19 -34 -19t-40 13t-16.5 36.5t16 42t36.5 18.5t34.5 -14.5t14 -36t-10.5 -40.5zM219 280q-56 0 -56 45q0 25 14 42
t36 17t36 -13t14 -34t-12 -39t-32 -18z" />
    <glyph glyph-name="Jcircumflex" unicode="&#x134;" horiz-adv-x="692" 
d="M569 622q61 0 99.5 -7.5t38.5 -30.5q0 -20 -32 -39q-79 -48 -140.5 -155.5t-126.5 -317.5q59 0 89 -5l-6 -40q-28 5 -50 5t-49 -5q-31 -85 -65.5 -138t-88.5 -99t-120 -76t-112.5 -30t-73.5 25.5t-27 67.5q0 64 60 127t158.5 106t207.5 54q2 4 31 95q46 150 103.5 238.5
t138.5 146.5q-17 2 -45 2q-173 0 -284 -63t-111 -142q0 -51 30.5 -94.5t86.5 -89.5l-24 -33q-163 88 -163 222q0 78 66.5 142t175 99t233.5 35zM160.5 -216q50.5 32 95 94t62.5 142q-130 -13 -220.5 -74.5t-90.5 -137.5q0 -26 15 -41t42 -15q46 0 96.5 32zM337 695l147 114
q108 -86 129 -108l-30 -24q-85 51 -103 64l-99 -70z" />
    <glyph glyph-name="jcircumflex" unicode="&#x135;" horiz-adv-x="393" 
d="M175 530l147 114q108 -86 129 -108l-30 -24q-85 51 -103 64l-99 -70zM311 141q2 -18 2 -29q-53 -13 -96 -30q-37 -178 -96 -269t-150 -91q-45 0 -70.5 27t-25.5 74q0 85 74 154.5t215 119.5q45 171 108 336q19 50 21 60l50 -16q-28 -62 -68.5 -183t-48.5 -176zM160 58
q-125 -62 -158 -98q-43 -47 -43 -98q0 -22 13 -35t35 -13q45 0 86.5 68.5t66.5 175.5z" />
    <glyph glyph-name="uni0136" unicode="&#x136;" horiz-adv-x="787" 
d="M377.5 -63.5q13.5 12.5 33 12.5t30.5 -11.5t11 -30.5q0 -44 -76 -99l-22 32q40 32 41 34q-31 10 -31 32q0 18 13.5 30.5zM819 600l63 -31q-64 -104 -151.5 -185t-232.5 -161q28 -145 69 -232.5t107 -97.5v-46q-8 -1 -21 -1q-67 0 -129.5 93t-112.5 275
q-43 -135 -131 -213.5t-183 -78.5q-49 0 -80.5 26.5t-31.5 73t42 96.5t115 84l23 -36q-90 -64 -90 -120q0 -27 18 -43.5t47 -16.5q68 0 117.5 57.5t88.5 201.5q49 181 100 237q23 26 67 57q-69 -2 -141 -23.5t-126 -64t-54 -94.5q0 -67 61 -107l-20 -31q-56 27 -88 70
t-32 89q0 63 69 119t169.5 87t197.5 31q60 0 60 -26q0 -17 -35 -43q-64 -48 -98.5 -125t-56.5 -180q114 42 218.5 139.5t181.5 219.5z" />
    <glyph glyph-name="uni0137" unicode="&#x137;" horiz-adv-x="443" 
d="M157.5 -42.5q13.5 12.5 33 12.5t30.5 -11.5t11 -30.5q0 -44 -76 -99l-22 32q40 32 41 34q-31 10 -31 32q0 18 13.5 30.5zM409 102l25 -22q-58 -95 -123 -95q-40 0 -82 59t-42 97q0 24 72 48q27 9 49.5 27.5t22.5 38.5t-11 30.5t-28 10.5q-110 -10 -230 -296l-61 21
q0 43 116.5 348t165.5 369l49 -18q-135 -235 -226 -546q78 117 134 156t107 39q31 0 49.5 -19t18.5 -48.5t-14.5 -53.5t-42.5 -42q-38 -26 -95 -51q9 -47 31 -71t50 -24q15 0 65 42z" />
    <glyph glyph-name="kgreenlandic" unicode="&#x138;" horiz-adv-x="454" 
d="M380 111l25 -22q-58 -95 -123 -95q-37 0 -75.5 48t-46.5 93q-6 -11 -34 -58t-40 -77l-60 21q21 123 51.5 232t57.5 153l41 -13q-18 -46 -60 -245q55 113 111 165.5t123 69.5v-66q-72 -3 -139 -97q4 -65 38.5 -108t65.5 -43q15 0 65 42z" />
    <glyph glyph-name="Lacute" unicode="&#x139;" horiz-adv-x="601" 
d="M185 93l208 -6q44 0 85 29l27 -36q-20 -23 -32 -34.5t-35.5 -22.5t-52.5 -11l-187 8q-125 0 -122 -3q-37 1 -37 33q3 20 27 66.5t65 168.5q-62 0 -111 37l21 37q43 -28 105 -28q58 142 147 213t186 71q46 0 74 -23.5t28 -62.5q0 -84 -110.5 -157.5t-251.5 -82.5
q-46 -146 -103 -199q25 3 69 3zM424 561q-62 0 -115 -63t-76 -163q100 7 175 60t75 111q0 23 -17 39t-42 16zM519 720l-171 -56l-29 18l132 78z" />
    <glyph glyph-name="lacute" unicode="&#x13a;" horiz-adv-x="374" 
d="M176 96l21 -17q-34 -53 -58.5 -76.5t-54.5 -23.5t-49 24t-19 60q0 70 92 301.5t189 407.5l44 -24q-98 -190 -177 -377.5t-79 -269.5q0 -47 35 -47q28 0 56 42zM318.5 653.5q13.5 12.5 33 12.5t30.5 -11.5t11 -30.5q0 -44 -76 -99l-22 32q4 3 15 11.5t17.5 13.5t8.5 9
q-31 10 -31 32q0 18 13.5 30.5z" />
    <glyph glyph-name="uni013B" unicode="&#x13b;" horiz-adv-x="571" 
d="M278.5 -54.5q13.5 12.5 33 12.5t30.5 -11.5t11 -30.5q0 -44 -76 -99l-22 32q4 3 15 11.5t17.5 13.5t8.5 9q-31 10 -31 32q0 18 13.5 30.5zM170 93l208 -6q44 0 85 29l27 -36q-20 -23 -32 -34.5t-35.5 -22.5t-52.5 -11l-187 8q-125 0 -122 -3q-37 1 -37 33q3 20 27 66.5
t65 168.5q-62 0 -111 37l21 37q43 -28 105 -28q58 142 147 213t186 71q46 0 74 -23.5t28 -62.5q0 -84 -110.5 -157.5t-251.5 -82.5q-46 -146 -103 -199q25 3 69 3zM409 561q-62 0 -115 -63t-76 -163q100 7 175 60t75 111q0 23 -17 39t-42 16z" />
    <glyph glyph-name="uni013C" unicode="&#x13c;" horiz-adv-x="261" 
d="M5.5 -77.5q13.5 12.5 33 12.5t30.5 -11.5t11 -30.5q0 -44 -76 -99l-22 32q40 32 41 34q-31 10 -31 32q0 18 13.5 30.5zM161 96l21 -17q-34 -53 -58.5 -76.5t-54.5 -23.5t-49 24t-19 60q0 70 92 301.5t189 407.5l44 -24q-98 -190 -177 -377.5t-79 -269.5q0 -47 35 -47
q28 0 56 42z" />
    <glyph glyph-name="Lcaron" unicode="&#x13d;" horiz-adv-x="601" 
d="M185 93l208 -6q44 0 85 29l27 -36q-20 -23 -32 -34.5t-35.5 -22.5t-52.5 -11l-187 8q-125 0 -122 -3q-37 1 -37 33q3 20 27 66.5t65 168.5q-62 0 -111 37l21 37q43 -28 105 -28q58 142 147 213t186 71q46 0 74 -23.5t28 -62.5q0 -84 -110.5 -157.5t-251.5 -82.5
q-46 -146 -103 -199q25 3 69 3zM424 561q-62 0 -115 -63t-76 -163q100 7 175 60t75 111q0 23 -17 39t-42 16zM438 650l-147 114l44 24q55 -42 99 -70q18 13 103 64l30 -24q-15 -17 -101 -86z" />
    <glyph glyph-name="lcaron" unicode="&#x13e;" horiz-adv-x="374" 
d="M176 96l21 -17q-34 -53 -58.5 -76.5t-54.5 -23.5t-49 24t-19 60q0 70 92 301.5t189 407.5l44 -24q-98 -190 -177 -377.5t-79 -269.5q0 -47 35 -47q28 0 56 42zM318.5 653.5q13.5 12.5 33 12.5t30.5 -11.5t11 -30.5q0 -44 -76 -99l-22 32q4 3 15 11.5t17.5 13.5t8.5 9
q-31 10 -31 32q0 18 13.5 30.5z" />
    <glyph glyph-name="Ldot" unicode="&#x13f;" horiz-adv-x="571" 
d="M170 93l208 -6q44 0 85 29l27 -36q-20 -23 -32 -34.5t-35.5 -22.5t-52.5 -11l-187 8q-125 0 -122 -3q-37 1 -37 33q3 20 27 66.5t65 168.5q-62 0 -111 37l21 37q43 -28 105 -28q58 142 147 213t186 71q46 0 74 -23.5t28 -62.5q0 -84 -110.5 -157.5t-251.5 -82.5
q-46 -146 -103 -199q25 3 69 3zM409 561q-62 0 -115 -63t-76 -163q100 7 175 60t75 111q0 23 -17 39t-42 16zM403 240q0 19 13.5 32.5t32.5 13.5t32.5 -13.5t13.5 -32.5t-13.5 -32.5t-32.5 -13.5t-32.5 13.5t-13.5 32.5z" />
    <glyph glyph-name="ldot" unicode="&#x140;" horiz-adv-x="320" 
d="M158 96l21 -17q-34 -53 -58.5 -76.5t-54.5 -23.5t-49 24t-19 60q0 70 92 301.5t189 407.5l44 -24q-98 -190 -177 -377.5t-79 -269.5q0 -47 35 -47q28 0 56 42zM184 307q0 19 13.5 32.5t32.5 13.5t32.5 -13.5t13.5 -32.5t-13.5 -32.5t-32.5 -13.5t-32.5 13.5t-13.5 32.5z
" />
    <glyph glyph-name="Lslash" unicode="&#x141;" horiz-adv-x="601" 
d="M185 93l208 -6q44 0 85 29l27 -36q-20 -23 -32 -34.5t-35.5 -22.5t-52.5 -11l-187 8q-125 0 -122 -3q-37 1 -37 33q2 20 53 122l-75 -7l-12 54q30 6 108 13l18 53q-62 0 -111 37l21 37q43 -28 105 -28q58 142 147 213t186 71q46 0 74 -23.5t28 -62.5q0 -84 -110.5 -157.5
t-251.5 -82.5l-17 -50q39 2 139 5v-47l-163 -16q-30 -62 -62 -91q25 3 69 3zM424 561q-62 0 -115 -63t-76 -163q100 7 175 60t75 111q0 23 -17 39t-42 16z" />
    <glyph glyph-name="lslash" unicode="&#x142;" horiz-adv-x="291" 
d="M294 407v-45l-140 -16q-69 -176 -69 -245q0 -47 35 -47q28 0 56 42l21 -17q-34 -53 -58.5 -76.5t-54.5 -23.5t-49 24t-19 60q0 65 83 277l-85 -9l-11 52q50 9 118 15q91 220 176 374l44 -24q-99 -191 -164 -346q33 2 117 5z" />
    <glyph glyph-name="Nacute" unicode="&#x143;" horiz-adv-x="744" 
d="M686 611l58 -7q-18 -78 -48.5 -182.5t-55.5 -169t-54.5 -128t-62.5 -100t-64 -36.5t-45.5 23t-14.5 81.5t17 246t17.5 204t-8.5 16.5q-11 0 -26 -30.5t-23 -46.5q-21 -47 -27 -66q-56 -126 -100 -208t-101 -152q-20 -24 -57 -49t-69 -38l-22 59q83 35 150 121.5
t138.5 241.5t102.5 209q35 57 71 57q23 0 36 -16t13 -41.5t-17.5 -210.5t-17.5 -237t4.5 -67.5t15.5 -15.5q14 0 30 30q55 107 160 512zM696 733l-171 -56l-29 18l132 78z" />
    <glyph glyph-name="nacute" unicode="&#x144;" horiz-adv-x="484" 
d="M439 121l21 -16q-22 -44 -60.5 -74t-69.5 -30t-49 18t-18 45t34.5 94.5t34.5 99.5q0 14 -11.5 25.5t-27.5 11.5q-51 0 -103 -77.5t-116 -223.5l-60 21q19 116 54.5 226.5t65.5 158.5l41 -13q-28 -71 -71 -245q138 236 254 236q25 0 41.5 -17t16.5 -40t-6 -41.5t-37.5 -86
t-31.5 -84.5t10 -26.5t19 -9.5t15 3t13.5 9t13.5 11t14.5 13.5t12.5 11.5zM420 463l-171 -56l-29 18l132 78z" />
    <glyph glyph-name="uni0145" unicode="&#x145;" horiz-adv-x="714" 
d="M278.5 -54.5q13.5 12.5 33 12.5t30.5 -11.5t11 -30.5q0 -44 -76 -99l-22 32q4 3 15 11.5t17.5 13.5t8.5 9q-31 10 -31 32q0 18 13.5 30.5zM671 611l58 -7q-18 -78 -48.5 -182.5t-55.5 -169t-54.5 -128t-62.5 -100t-64 -36.5t-45.5 23t-14.5 81.5t17 246t17.5 204
t-8.5 16.5q-11 0 -26 -30.5t-22 -46.5q-22 -47 -28 -66q-56 -126 -100 -208t-101 -152q-20 -24 -57 -49t-69 -38l-22 59q83 35 150 121.5t138.5 241.5t102.5 209q35 57 71 57q23 0 36 -16t13 -41.5t-17.5 -210.5t-17.5 -237t4.5 -67.5t15.5 -15.5q14 0 29 30q56 107 161 512
z" />
    <glyph glyph-name="uni0146" unicode="&#x146;" horiz-adv-x="454" 
d="M135.5 -52.5q13.5 12.5 33 12.5t30.5 -11.5t11 -30.5q0 -44 -76 -99l-22 32q4 3 15 11.5t17.5 13.5t8.5 9q-31 10 -31 32q0 18 13.5 30.5zM424 121l21 -16q-22 -44 -60.5 -74t-69.5 -30t-49 18t-18 45t34.5 94.5t34.5 99.5q0 14 -11.5 25.5t-27.5 11.5q-51 0 -103 -77.5
t-116 -223.5l-60 21q19 116 54.5 226.5t65.5 158.5l41 -13q-28 -71 -71 -245q138 236 254 236q25 0 41.5 -17t16.5 -40t-6 -41.5t-37.5 -86t-31.5 -84.5t10 -26.5t19 -9.5t15 3t13.5 9t13.5 11t14.5 13.5t12.5 11.5z" />
    <glyph glyph-name="Ncaron" unicode="&#x147;" horiz-adv-x="744" 
d="M686 611l58 -7q-18 -78 -48.5 -182.5t-55.5 -169t-54.5 -128t-62.5 -100t-64 -36.5t-45.5 23t-14.5 81.5t17 246t17.5 204t-8.5 16.5q-11 0 -26 -30.5t-23 -46.5q-21 -47 -27 -66q-56 -126 -100 -208t-101 -152q-20 -24 -57 -49t-69 -38l-22 59q83 35 150 121.5
t138.5 241.5t102.5 209q35 57 71 57q23 0 36 -16t13 -41.5t-17.5 -210.5t-17.5 -237t4.5 -67.5t15.5 -15.5q14 0 30 30q55 107 160 512zM610 676l-147 114l44 24q55 -42 99 -70q18 13 103 64l30 -24q-15 -17 -101 -86z" />
    <glyph glyph-name="ncaron" unicode="&#x148;" horiz-adv-x="484" 
d="M439 121l21 -16q-22 -44 -60.5 -74t-69.5 -30t-49 18t-18 45t34.5 94.5t34.5 99.5q0 14 -11.5 25.5t-27.5 11.5q-51 0 -103 -77.5t-116 -223.5l-60 21q19 116 54.5 226.5t65.5 158.5l41 -13q-28 -71 -71 -245q138 236 254 236q25 0 41.5 -17t16.5 -40t-6 -41.5t-37.5 -86
t-31.5 -84.5t10 -26.5t19 -9.5t15 3t13.5 9t13.5 11t14.5 13.5t12.5 11.5zM311 402l-147 114l44 24q55 -42 99 -70q18 13 103 64l30 -24q-15 -17 -102 -86z" />
    <glyph glyph-name="napostrophe" unicode="&#x149;" horiz-adv-x="454" 
d="M265.5 548.5q13.5 12.5 33 12.5t30.5 -11.5t11 -30.5q0 -44 -76 -99l-22 32q4 3 15 11.5t17.5 13.5t8.5 9q-31 10 -31 32q0 18 13.5 30.5zM424 121l21 -16q-22 -44 -60.5 -74t-69.5 -30t-49 18t-18 45t34.5 94.5t34.5 99.5q0 14 -11.5 25.5t-27.5 11.5q-51 0 -103 -77.5
t-116 -223.5l-60 21q19 116 54.5 226.5t65.5 158.5l41 -13q-28 -71 -71 -245q138 236 254 236q25 0 41.5 -17t16.5 -40t-6 -41.5t-37.5 -86t-31.5 -84.5t10 -26.5t19 -9.5t15 3t13.5 9t13.5 11t14.5 13.5t12.5 11.5z" />
    <glyph glyph-name="Eng" unicode="&#x14a;" horiz-adv-x="759" 
d="M475 -190q-48 0 -76 13v76q35 -10 76 -10q50 0 76.5 28.5t27.5 82.5l-403 593h-4q8 -125 8 -206v-387h-83v714h104l381 -572h4q-7 75 -7 200v372h84v-708q0 -96 -48.5 -146t-139.5 -50z" />
    <glyph glyph-name="eng" unicode="&#x14b;" horiz-adv-x="618" 
d="M394 -240q-42 0 -71 12v71q29 -10 60 -10q67 0 67 84v427q0 65 -29 96.5t-90 31.5q-83 0 -120.5 -45.5t-37.5 -147.5v-279h-88v536h71l14 -73h5q25 40 69 61.5t98 21.5q99 0 147.5 -46.5t48.5 -149.5v-430q0 -75 -35 -117.5t-109 -42.5z" />
    <glyph glyph-name="Omacron" unicode="&#x14c;" horiz-adv-x="684" 
d="M699 492v-48q-45 -26 -166 -71q-54 -135 -171 -251t-214 -116q-55 0 -89 39t-34 107.5t46 165t121 181t153 124.5q32 21 100 21q51 0 83.5 -39.5t32.5 -93t-8 -80.5q76 25 146 61zM302 527q-33 -34 -33 -65.5t32 -50t80.5 -18.5t84.5 9q6 30 6 58q0 99 -85 99
q-39 0 -85 -32zM315 149q98 97 137 202q-25 -5 -64 -5q-168 0 -190 75q-84 -117 -84 -230q0 -45 21.5 -72t63.5 -27q59 0 116 57zM501 756v-36l-177 -6l-9 31q33 7 186 11z" />
    <glyph glyph-name="omacron" unicode="&#x14d;" horiz-adv-x="321" 
d="M290 297q26 -43 26 -95q0 -81 -56 -144.5t-132 -63.5q-58 0 -90.5 33.5t-32.5 92.5q0 95 74 170.5t166 75.5q17 0 24 -1l3 -33q-80 0 -133 -46t-53 -118q0 -43 21 -69.5t61.5 -26.5t64.5 36t24 84.5t-19 88.5zM305 476v-36l-177 -6l-9 31q33 7 186 11z" />
    <glyph glyph-name="Obreve" unicode="&#x14e;" horiz-adv-x="684" 
d="M699 492v-48q-45 -26 -166 -71q-54 -135 -171 -251t-214 -116q-55 0 -89 39t-34 107.5t46 165t121 181t153 124.5q32 21 100 21q51 0 83.5 -39.5t32.5 -93t-8 -80.5q76 25 146 61zM302 527q-33 -34 -33 -65.5t32 -50t80.5 -18.5t84.5 9q6 30 6 58q0 99 -85 99
q-39 0 -85 -32zM315 149q98 97 137 202q-25 -5 -64 -5q-168 0 -190 75q-84 -117 -84 -230q0 -45 21.5 -72t63.5 -27q59 0 116 57zM526 802l30 -16q-20 -31 -51.5 -55t-62.5 -24t-65 23.5t-55 47.5l32 27q52 -51 85 -51q51 0 87 48z" />
    <glyph glyph-name="obreve" unicode="&#x14f;" horiz-adv-x="321" 
d="M290 297q26 -43 26 -95q0 -81 -56 -144.5t-132 -63.5q-58 0 -90.5 33.5t-32.5 92.5q0 95 74 170.5t166 75.5q17 0 24 -1l3 -33q-80 0 -133 -46t-53 -118q0 -43 21 -69.5t61.5 -26.5t64.5 36t24 84.5t-19 88.5zM313 509l30 -16q-20 -31 -51.5 -55t-62.5 -24t-65 23.5
t-55 47.5l32 27q52 -51 85 -51q51 0 87 48z" />
    <glyph glyph-name="Ohungarumlaut" unicode="&#x150;" horiz-adv-x="714" 
d="M714 492v-48q-45 -26 -166 -71q-54 -135 -171 -251t-214 -116q-55 0 -89 39t-34 107.5t46 165t121 181t153 124.5q32 21 100 21q51 0 83.5 -39.5t32.5 -93t-8 -80.5q76 25 146 61zM317 527q-33 -34 -33 -65.5t32 -50t80.5 -18.5t84.5 9q6 30 6 58q0 99 -85 99
q-39 0 -85 -32zM330 149q98 97 137 202q-25 -5 -64 -5q-168 0 -190 75q-84 -117 -84 -230q0 -45 21.5 -72t63.5 -27q59 0 116 57zM472 770l-136 -85l-41 14l92 96zM608 760l-140 -77l-42 16l113 89z" />
    <glyph glyph-name="ohungarumlaut" unicode="&#x151;" horiz-adv-x="351" 
d="M305 297q26 -43 26 -95q0 -81 -56 -144.5t-132 -63.5q-58 0 -90.5 33.5t-32.5 92.5q0 95 74 170.5t166 75.5q17 0 24 -1l3 -33q-80 0 -133 -46t-53 -118q0 -43 21 -69.5t61.5 -26.5t64.5 36t24 84.5t-19 88.5zM255 489l-136 -85l-41 14l92 96zM391 479l-140 -77l-42 16
l113 89z" />
    <glyph glyph-name="OE" unicode="&#x152;" horiz-adv-x="1087" 
d="M1090 659q0 -50 -47.5 -89t-109 -57t-118.5 -18q-15 0 -22 1v34q2 0 58 9.5t94.5 33.5t38.5 54q0 36 -54 36q-73 0 -138 -50t-65 -105t68 -71q15 -4 20 -8t5 -14t-9.5 -16.5t-43.5 -18.5q-184 -63 -184 -196q0 -27 10 -46q61 78 158 127t187 49q47 0 75 -20.5t28 -56.5
q0 -56 -52 -112t-134.5 -91.5t-164.5 -35.5t-128 30q-1 -1 -8 -16q-21 -39 -35 -55l-33 14q7 28 41 85q-46 52 -46 116.5t52.5 123t146.5 96.5q-23 19 -33 34q-40 -19 -132 -53q-54 -135 -171 -251t-214 -116q-55 0 -89 39t-34 107.5t46 165t121 181t153 124.5q32 21 100 21
q51 0 83.5 -39.5t32.5 -93t-8 -80.5q41 14 69.5 27.5t28.5 14.5q0 56 60 115t147 97t162 38q40 0 64 -17.5t24 -46.5zM297 149q98 97 137 202q-25 -5 -64 -5q-168 0 -190 75q-84 -117 -84 -230q0 -45 21.5 -72t63.5 -27q59 0 116 57zM880 254q-59 0 -137.5 -45t-127.5 -107
q40 -45 113.5 -45t144 47.5t70.5 102.5q0 22 -17 34.5t-46 12.5zM284 527q-33 -34 -33 -65.5t32 -50t80.5 -18.5t84.5 9q6 30 6 58q0 99 -85 99q-39 0 -85 -32z" />
    <glyph glyph-name="oe" unicode="&#x153;" horiz-adv-x="606" 
d="M530 123l23 -18q-31 -43 -85 -71.5t-104 -28.5q-77 0 -104 59q-57 -70 -137 -70q-58 0 -90.5 33.5t-32.5 92.5q0 95 74 170.5t166 75.5q17 0 24 -1l3 -33q-80 0 -133 -46t-53 -118q0 -43 21 -69.5t61.5 -26.5t64.5 36t24 84.5t-19 88.5l52 16q15 -27 20 -48
q46 58 112 96.5t130 38.5t64 -52q0 -54 -69.5 -109t-195.5 -100q9 -23 28 -36t39 -13q43 0 117 49zM341 153q81 28 139 70t58 77q0 14 -10 23.5t-23 9.5q-47 0 -101.5 -58.5t-62.5 -121.5z" />
    <glyph glyph-name="Racute" unicode="&#x154;" horiz-adv-x="655" 
d="M510 -65l5 -47q-28 -5 -49 -5q-47 0 -90 62.5t-67.5 146.5t-30.5 162q-50 -130 -94.5 -188.5t-91.5 -58.5q-24 0 -38 19.5t-14 51.5q0 74 68.5 188t160.5 187q2 6 17.5 73t18.5 74l58 5q0 -17 -9 -71q135 103 222 103q41 0 65 -22.5t24 -60.5q0 -95 -96 -191.5
t-205 -113.5q8 -145 50.5 -227t95.5 -87zM219 269q27 72 37 115q-55 -51 -101.5 -136t-46.5 -126q0 -21 17 -21q30 0 94 168zM287 283q106 0 190 74t84 147q0 27 -13.5 42t-42.5 15t-84 -32.5t-79 -53.5q-31 -123 -55 -192zM567 741l-171 -56l-29 18l132 78z" />
    <glyph glyph-name="racute" unicode="&#x155;" horiz-adv-x="375" 
d="M300 354q25 0 41 -17t16 -44q0 -54 -62 -114l-24 19q14 31 14 45q0 27 -30 27t-57 -38t-63.5 -117.5t-55.5 -112.5l-57 25q55 125 63 147q27 78 27 198l56 15q-3 -65 -9 -100.5t-29 -115.5q101 183 170 183zM384 452l-171 -56l-29 18l132 78z" />
    <glyph glyph-name="uni0156" unicode="&#x156;" horiz-adv-x="625" 
d="M191.5 -49.5q13.5 12.5 33 12.5t30.5 -11.5t11 -30.5q0 -44 -76 -99l-22 32q40 32 41 34q-31 10 -31 32q0 18 13.5 30.5zM495 -65l5 -47q-28 -5 -49 -5q-47 0 -90 62.5t-67.5 146.5t-30.5 162q-50 -130 -94.5 -188.5t-91.5 -58.5q-24 0 -38 19.5t-14 51.5q0 74 68.5 188
t160.5 187q2 6 17.5 73t18.5 74l58 5q0 -17 -9 -71q135 103 222 103q41 0 65 -22.5t24 -60.5q0 -95 -96 -191.5t-205 -113.5q8 -145 50.5 -227t95.5 -87zM204 269q27 72 37 115q-55 -51 -101.5 -136t-46.5 -126q0 -21 17 -21q30 0 94 168zM272 283q106 0 190 74t84 147
q0 27 -13.5 42t-42.5 15t-84 -32.5t-79 -53.5q-31 -123 -55 -192z" />
    <glyph glyph-name="uni0157" unicode="&#x157;" horiz-adv-x="345" 
d="M88.5 -52.5q13.5 12.5 33 12.5t30.5 -11.5t11 -30.5q0 -44 -76 -99l-22 32q40 32 41 34q-31 10 -31 32q0 18 13.5 30.5zM285 354q25 0 41 -17t16 -44q0 -54 -62 -114l-24 19q14 31 14 45q0 27 -30 27t-57 -38t-63.5 -117.5t-55.5 -112.5l-57 25q55 125 63 147
q27 78 27 198l56 15q-3 -65 -9 -100.5t-29 -115.5q101 183 170 183z" />
    <glyph glyph-name="Rcaron" unicode="&#x158;" horiz-adv-x="655" 
d="M510 -65l5 -47q-28 -5 -49 -5q-47 0 -90 62.5t-67.5 146.5t-30.5 162q-50 -130 -94.5 -188.5t-91.5 -58.5q-24 0 -38 19.5t-14 51.5q0 74 68.5 188t160.5 187q2 6 17.5 73t18.5 74l58 5q0 -17 -9 -71q135 103 222 103q41 0 65 -22.5t24 -60.5q0 -95 -96 -191.5
t-205 -113.5q8 -145 50.5 -227t95.5 -87zM219 269q27 72 37 115q-55 -51 -101.5 -136t-46.5 -126q0 -21 17 -21q30 0 94 168zM287 283q106 0 190 74t84 147q0 27 -13.5 42t-42.5 15t-84 -32.5t-79 -53.5q-31 -123 -55 -192zM498 671l-147 114l44 24q55 -42 99 -70
q18 13 103 64l30 -24q-15 -17 -101 -86z" />
    <glyph glyph-name="rcaron" unicode="&#x159;" horiz-adv-x="375" 
d="M300 354q25 0 41 -17t16 -44q0 -54 -62 -114l-24 19q14 31 14 45q0 27 -30 27t-57 -38t-63.5 -117.5t-55.5 -112.5l-57 25q55 125 63 147q27 78 27 198l56 15q-3 -65 -9 -100.5t-29 -115.5q101 183 170 183zM254 390l-147 114l44 24q55 -42 99 -70q18 13 103 64l30 -24
q-15 -17 -101 -86z" />
    <glyph glyph-name="Sacute" unicode="&#x15a;" horiz-adv-x="647" 
d="M536 181l71 1v-41q-12 2 -28 2t-36 -2q0 -77 -74 -156t-178.5 -128.5t-194.5 -49.5q-47 0 -76.5 24t-29.5 63q0 58 77 121t180 104t186 48q-10 15 -31 26t-86 34.5t-92 52t-27 80.5t56 119t132.5 112.5t134.5 45.5q26 0 43 -18.5t17 -45.5q0 -44 -53 -110.5t-118 -101.5
l-24 34q39 20 68.5 62.5t29.5 73.5t-33 31q-47 0 -107.5 -58.5t-60.5 -109.5q0 -35 18 -55t91 -49.5t104 -52t41 -56.5zM90 -80q0 -48 78 -48q43 0 111.5 31.5t121 88t52.5 115.5q0 7 -3 21q-137 -13 -248.5 -77t-111.5 -131zM528 737l-171 -56l-29 18l132 78z" />
    <glyph glyph-name="sacute" unicode="&#x15b;" horiz-adv-x="351" 
d="M347 391l-9 -39q-17 2 -44 2q-100 0 -100 -66q0 -14 40.5 -82t40.5 -91q0 -54 -36.5 -84.5t-97.5 -30.5q-84 0 -135 93l38 27q14 -11 30 -26.5t24 -21.5q19 -17 42 -17t40 16.5t17 41t-43.5 91.5t-43.5 94q0 49 41.5 75t109 26t86.5 -8zM336 472l-171 -56l-29 18l132 78z
" />
    <glyph glyph-name="Scircumflex" unicode="&#x15c;" horiz-adv-x="617" 
d="M521 181l71 1v-41q-12 2 -28 2t-36 -2q0 -77 -74 -156t-178.5 -128.5t-194.5 -49.5q-47 0 -76.5 24t-29.5 63q0 58 77 121t180 104t186 48q-10 15 -31 26t-86 34.5t-92 52t-27 80.5t56 119t132.5 112.5t134.5 45.5q26 0 43 -18.5t17 -45.5q0 -44 -53 -110.5t-118 -101.5
l-24 34q39 20 68.5 62.5t29.5 73.5t-33 31q-47 0 -107.5 -58.5t-60.5 -109.5q0 -35 18 -55t91 -49.5t104 -52t41 -56.5zM75 -80q0 -48 79 -48q42 0 110.5 31.5t121 88t52.5 115.5q0 7 -3 21q-137 -13 -248.5 -77t-111.5 -131zM273 700l147 114q108 -86 129 -108l-30 -24
q-85 51 -103 64l-99 -70z" />
    <glyph glyph-name="scircumflex" unicode="&#x15d;" horiz-adv-x="321" 
d="M332 391l-9 -39q-17 2 -44 2q-100 0 -100 -66q0 -14 40.5 -82t40.5 -91q0 -54 -36.5 -84.5t-97.5 -30.5q-84 0 -135 93l38 27q14 -11 30 -26.5t23 -21.5q20 -17 43 -17t40 16.5t17 41t-43.5 91.5t-43.5 94q0 49 41.5 75t109 26t86.5 -8zM99 463l147 114q108 -86 129 -108
l-30 -24q-85 51 -103 64l-99 -70z" />
    <glyph glyph-name="Scedilla" unicode="&#x15e;" horiz-adv-x="538" 
d="M137 -133q24 13 56.5 13t49 -13t16.5 -33q0 -37 -53 -73t-115 -36q-11 0 -24 3l1 24q51 0 86 22t35 46q0 8 -7.5 14t-18 6t-31.5 -14q-24 -13 -31 -13t-12 4t-5 14t33 76q-54 9 -76 39.5t-22 63.5q0 62 67.5 116t180.5 60l-10 -28q-74 -10 -114.5 -47t-40.5 -80
q0 -27 15 -48.5t42 -21.5q78 0 139.5 64.5t61.5 122.5q0 29 -24.5 51.5t-82.5 38t-86 48.5t-28 71q0 60 59 127.5t135 110t129 42.5q34 0 50 -19t16 -43q0 -46 -52.5 -112.5t-118.5 -101.5l-24 34q39 20 68.5 62.5t29.5 73.5t-32 31q-49 0 -109 -58.5t-60 -118.5
q0 -25 20 -45.5t82.5 -47t93.5 -51t31 -60t-27 -84t-69 -91.5t-98.5 -72.5t-108.5 -29.5z" />
    <glyph glyph-name="scedilla" unicode="&#x15f;" horiz-adv-x="351" 
d="M126 -51q24 13 56.5 13t49 -13t16.5 -33q0 -37 -53 -73t-115 -36q-10 0 -24 3l1 24q51 0 86 22t35 46q0 8 -7.5 14t-18 6t-31.5 -14q-24 -13 -31 -13t-12 4t-5 9q0 17 40 94q-65 13 -107 91l38 27q14 -11 30 -26.5t24 -21.5q19 -17 42 -17t40 16.5t17 41t-43.5 91.5
t-43.5 94q0 49 41.5 75t109 26t86.5 -8l-9 -39q-17 2 -44 2q-100 0 -100 -66q0 -14 40.5 -82t40.5 -91q0 -52 -34 -82.5t-91 -32.5z" />
    <glyph glyph-name="Scaron" unicode="&#x160;" horiz-adv-x="647" 
d="M536 181l71 1v-41q-12 2 -28 2t-36 -2q0 -77 -74 -156t-178.5 -128.5t-194.5 -49.5q-47 0 -76.5 24t-29.5 63q0 58 77 121t180 104t186 48q-10 15 -31 26t-86 34.5t-92 52t-27 80.5t56 119t132.5 112.5t134.5 45.5q26 0 43 -18.5t17 -45.5q0 -44 -53 -110.5t-118 -101.5
l-24 34q39 20 68.5 62.5t29.5 73.5t-33 31q-47 0 -107.5 -58.5t-60.5 -109.5q0 -35 18 -55t91 -49.5t104 -52t41 -56.5zM90 -80q0 -48 78 -48q43 0 111.5 31.5t121 88t52.5 115.5q0 7 -3 21q-137 -13 -248.5 -77t-111.5 -131zM414 672l-147 114l44 24q55 -42 99 -70
q18 13 103 64l30 -24q-15 -17 -101 -86z" />
    <glyph glyph-name="scaron" unicode="&#x161;" horiz-adv-x="351" 
d="M347 391l-9 -39q-17 2 -44 2q-100 0 -100 -66q0 -14 40.5 -82t40.5 -91q0 -54 -36.5 -84.5t-97.5 -30.5q-84 0 -135 93l38 27q14 -11 30 -26.5t24 -21.5q19 -17 42 -17t40 16.5t17 41t-43.5 91.5t-43.5 94q0 49 41.5 75t109 26t86.5 -8zM214 427l-147 114l44 24
q55 -42 99 -70q18 13 103 64l30 -24q-15 -17 -101 -86z" />
    <glyph glyph-name="uni0162" unicode="&#x162;" horiz-adv-x="560" 
d="M216.5 -38.5q13.5 12.5 33 12.5t30.5 -11.5t11 -30.5q0 -44 -76 -99l-22 32q40 32 41 34q-31 10 -31 32q0 18 13.5 30.5zM444 555l-143 3q-219 0 -219 -96q0 -25 18.5 -40.5t55.5 -15.5t97 34l15 -26q-31 -33 -70 -52t-78 -19t-67 26t-28 65q0 79 85.5 138t231.5 59
q12 0 86 -4t117 -4t79 13q14 4 17 4q14 0 14 -18q0 -26 -45.5 -47t-104.5 -21q-66 -64 -115.5 -223.5t-118 -243t-162.5 -83.5q-37 0 -70 24l23 38q12 -6 27 -11l14 -2q5 -1 15 -1q50 0 89.5 48t83 181.5t68 177t85.5 96.5z" />
    <glyph glyph-name="uni0163" unicode="&#x163;" horiz-adv-x="320" 
d="M57.5 -69.5q13.5 12.5 33 12.5t30.5 -11.5t11 -30.5q0 -44 -76 -99l-22 32q40 32 41 34q-31 10 -31 32q0 18 13.5 30.5zM239 112l22 -25q-25 -39 -60.5 -61t-71.5 -22t-57 20.5t-21 56.5q0 84 63 232q-51 -8 -102 -24l-7 39l-1 1q50 21 131 34q8 15 36 73q56 115 80 149
l43 -17q-10 -22 -35 -73.5t-56 -116.5q45 3 71 3t40 -8v-43q-14 3 -41 3t-94 -9q-59 -132 -59 -192q0 -23 14.5 -38t39 -15t65.5 33z" />
    <glyph glyph-name="Tcaron" unicode="&#x164;" horiz-adv-x="590" 
d="M459 555l-143 3q-219 0 -219 -96q0 -25 18.5 -40.5t55.5 -15.5t97 34l15 -26q-31 -33 -70 -52t-78 -19t-67 26t-28 65q0 79 85.5 138t231.5 59q12 0 86 -4t117 -4t79 13q14 4 17 4q14 0 14 -18q0 -26 -45.5 -47t-104.5 -21q-66 -64 -115.5 -223.5t-118 -243t-162.5 -83.5
q-37 0 -70 24l23 38q12 -6 27 -11l14 -2q5 -1 15 -1q50 0 89.5 48t83 181.5t68 177t85.5 96.5zM449 667l-147 114l44 24q55 -42 99 -70q18 13 103 64l30 -24q-15 -17 -102 -86z" />
    <glyph glyph-name="tcaron" unicode="&#x165;" horiz-adv-x="433" 
d="M254 112l22 -25q-25 -39 -60.5 -61t-71.5 -22t-57 20.5t-21 56.5q0 84 63 232q-51 -8 -102 -24l-7 39l-1 1q50 21 131 34q8 15 36 73q56 115 80 149l43 -17q-10 -22 -35 -73.5t-56 -116.5q45 3 71 3t40 -8v-43q-14 3 -40.5 3t-94.5 -9q-59 -132 -59 -192q0 -23 14.5 -38
t39 -15t65.5 33zM343.5 573.5q13.5 12.5 33 12.5t30.5 -11.5t11 -30.5q0 -44 -76 -99l-22 32q40 32 41 34q-31 10 -31 32q0 18 13.5 30.5z" />
    <glyph glyph-name="Tbar" unicode="&#x166;" horiz-adv-x="560" 
d="M444 555l-143 3q-219 0 -219 -96q0 -25 18.5 -40.5t55.5 -15.5t97 34l15 -26q-31 -33 -70 -52t-78 -19t-67 26t-28 65q0 79 85.5 138t231.5 59q12 0 86 -4t117 -4t79 13q14 4 17 4q14 0 14 -18q0 -26 -45.5 -47t-104.5 -21q-66 -64 -112 -213q-18 -58 -37 -104l118 9v-56
l-143 -7q-88 -179 -222 -179q-37 0 -70 24l23 38q12 -6 27 -11l14 -2q5 -1 15 -1q40 0 71.5 28t64.5 103l-119 -8l-16 41q10 1 43 6q77 13 113 13l16 48q45 133 68.5 176t84.5 96z" />
    <glyph glyph-name="tbar" unicode="&#x167;" horiz-adv-x="320" 
d="M340 505l3 -52l-109 -10l-31 -65q45 3 71 3t40 -8v-43q-14 3 -41 3t-94 -9q-59 -132 -59 -192q0 -23 14.5 -38t39 -15t65.5 33l22 -25q-25 -39 -60.5 -61t-71.5 -22t-57 20.5t-21 56.5q0 84 63 232q-51 -8 -102 -24l-7 39l-1 1q50 21 131 34l36 74l-112 -10l-17 45
q54 13 158 22q29 59 51 91l43 -17q-11 -28 -33 -69z" />
    <glyph glyph-name="Utilde" unicode="&#x168;" horiz-adv-x="691" 
d="M558 78l32 -26q-12 -34 -41 -62.5t-63 -28.5q-46 0 -75 45t-38 130q-46 -50 -115 -94.5t-121 -44.5t-82 35t-30 90q0 125 122 297t247 245l27 -38q-114 -85 -209 -224t-95 -244q0 -39 18.5 -60.5t52 -21.5t93.5 39t90 73q5 97 46.5 197t99 163.5t107.5 63.5q42 0 42 -51
t-75 -170.5t-149 -189.5q-2 -16 -2 -26q0 -44 17.5 -91.5t46.5 -47.5q25 0 54 42zM573 518q-33 0 -73 -77.5t-51 -164.5q62 74 99.5 136.5t37.5 90.5q0 15 -13 15zM644 796l23 -19q-19 -30 -43.5 -51t-45 -21t-44.5 34.5t-44 34.5q-10 0 -20 -7t-15.5 -11t-15.5 -12t-16 -12
l-28 26q74 65 99.5 65t54.5 -35t44 -35q10 0 26.5 18t24.5 25z" />
    <glyph glyph-name="utilde" unicode="&#x169;" horiz-adv-x="430" 
d="M406 110l21 -17q-17 -42 -53.5 -71t-66 -29t-46.5 20.5t-17 53.5t11 85q-47 -74 -101 -116t-91 -42q-56 0 -56 80q0 68 46 174t67 123l48 -21q-41 -66 -62 -130t-21 -85.5t13.5 -34.5t31.5 -13q40 0 99.5 73.5t121.5 219.5l51 -23q-2 -8 -45.5 -116t-43.5 -129.5
t9.5 -32.5t19 -11t14.5 1t10 4t8.5 5t8.5 7l7 7q3 3 8.5 9.5t7.5 8.5zM376 516l23 -19q-19 -30 -43.5 -51t-45 -21t-44.5 34.5t-44 34.5q-10 0 -20 -7t-15.5 -11t-15.5 -12t-16 -12l-28 26q74 65 99.5 65t54.5 -35t44 -35q10 0 26.5 18t24.5 25z" />
    <glyph glyph-name="Umacron" unicode="&#x16a;" horiz-adv-x="691" 
d="M558 78l32 -26q-12 -34 -41 -62.5t-63 -28.5q-46 0 -75 45t-38 130q-46 -50 -115 -94.5t-121 -44.5t-82 35t-30 90q0 125 122 297t247 245l27 -38q-114 -85 -209 -224t-95 -244q0 -39 18.5 -60.5t52 -21.5t93.5 39t90 73q5 97 46.5 197t99 163.5t107.5 63.5q42 0 42 -51
t-75 -170.5t-149 -189.5q-2 -16 -2 -26q0 -44 17.5 -91.5t46.5 -47.5q25 0 54 42zM573 518q-33 0 -73 -77.5t-51 -164.5q62 74 99.5 136.5t37.5 90.5q0 15 -13 15zM626 747v-36l-177 -6l-9 31q33 7 186 11z" />
    <glyph glyph-name="umacron" unicode="&#x16b;" horiz-adv-x="430" 
d="M406 110l21 -17q-17 -42 -53.5 -71t-66 -29t-46.5 20.5t-17 53.5t11 85q-47 -74 -101 -116t-91 -42q-56 0 -56 80q0 68 46 174t67 123l48 -21q-41 -66 -62 -130t-21 -85.5t13.5 -34.5t31.5 -13q40 0 99.5 73.5t121.5 219.5l51 -23q-2 -8 -45.5 -116t-43.5 -129.5
t9.5 -32.5t19 -11t14.5 1t10 4t8.5 5t8.5 7l7 7q3 3 8.5 9.5t7.5 8.5zM381 479v-36l-177 -6l-9 31q33 7 186 11z" />
    <glyph glyph-name="Ubreve" unicode="&#x16c;" horiz-adv-x="691" 
d="M558 78l32 -26q-12 -34 -41 -62.5t-63 -28.5q-46 0 -75 45t-38 130q-46 -50 -115 -94.5t-121 -44.5t-82 35t-30 90q0 125 122 297t247 245l27 -38q-114 -85 -209 -224t-95 -244q0 -39 18.5 -60.5t52 -21.5t93.5 39t90 73q5 97 46.5 197t99 163.5t107.5 63.5q42 0 42 -51
t-75 -170.5t-149 -189.5q-2 -16 -2 -26q0 -44 17.5 -91.5t46.5 -47.5q25 0 54 42zM573 518q-33 0 -73 -77.5t-51 -164.5q62 74 99.5 136.5t37.5 90.5q0 15 -13 15zM610 792l30 -16q-20 -31 -51.5 -55t-62.5 -24t-65 23.5t-55 47.5l32 27q52 -51 85 -51q51 0 87 48z" />
    <glyph glyph-name="ubreve" unicode="&#x16d;" horiz-adv-x="430" 
d="M406 110l21 -17q-17 -42 -53.5 -71t-66 -29t-46.5 20.5t-17 53.5t11 85q-47 -74 -101 -116t-91 -42q-56 0 -56 80q0 68 46 174t67 123l48 -21q-41 -66 -62 -130t-21 -85.5t13.5 -34.5t31.5 -13q40 0 99.5 73.5t121.5 219.5l51 -23q-2 -8 -45.5 -116t-43.5 -129.5
t9.5 -32.5t19 -11t14.5 1t10 4t8.5 5t8.5 7l7 7q3 3 8.5 9.5t7.5 8.5zM365 522l30 -16q-20 -31 -51.5 -55t-62.5 -24t-65 23.5t-55 47.5l32 27q52 -51 85 -51q51 0 87 48z" />
    <glyph glyph-name="Uring" unicode="&#x16e;" horiz-adv-x="721" 
d="M573 78l32 -26q-12 -34 -41 -62.5t-63 -28.5q-46 0 -75 45t-38 130q-46 -50 -115 -94.5t-121 -44.5t-82 35t-30 90q0 125 122 297t247 245l27 -38q-114 -85 -209 -224t-95 -244q0 -39 18.5 -60.5t52 -21.5t93.5 39t90 73q5 97 46.5 197t99 163.5t107.5 63.5q42 0 42 -51
t-75 -170.5t-149 -189.5q-2 -16 -2 -26q0 -44 17.5 -91.5t46.5 -47.5q25 0 54 42zM588 518q-33 0 -73 -77.5t-51 -164.5q62 74 99.5 136.5t37.5 90.5q0 15 -13 15zM605.5 779q15.5 -13 15.5 -39.5t-26 -49.5t-56 -23t-45.5 13.5t-15.5 40.5t25.5 49t56 22t46 -13zM569 706
q13 19 13 43t-21 24q-17 0 -31 -19.5t-14 -43t24 -23.5q16 0 29 19z" />
    <glyph glyph-name="uring" unicode="&#x16f;" horiz-adv-x="460" 
d="M421 110l21 -17q-17 -42 -53.5 -71t-66 -29t-46.5 20.5t-17 53.5t11 85q-47 -74 -101 -116t-91 -42q-56 0 -56 80q0 68 46 174t67 123l48 -21q-41 -66 -62 -130t-21 -85.5t13.5 -34.5t31.5 -13q40 0 99.5 73.5t121.5 219.5l51 -23q-2 -8 -45.5 -116t-43.5 -129.5
t9.5 -32.5t19 -11t14.5 1t10 4t8.5 5t8.5 7l8 7q2 3 7.5 9.5t7.5 8.5zM358.5 511q15.5 -13 15.5 -39.5t-26 -49.5t-56 -23t-45.5 13.5t-15.5 40.5t25.5 49t56 22t46 -13zM322 438q13 19 13 43t-21 24q-17 0 -31 -19.5t-14 -43t24 -23.5q16 0 29 19z" />
    <glyph glyph-name="Uhungarumlaut" unicode="&#x170;" horiz-adv-x="721" 
d="M573 78l32 -26q-12 -34 -41 -62.5t-63 -28.5q-46 0 -75 45t-38 130q-46 -50 -115 -94.5t-121 -44.5t-82 35t-30 90q0 125 122 297t247 245l27 -38q-114 -85 -209 -224t-95 -244q0 -39 18.5 -60.5t52 -21.5t93.5 39t90 73q5 97 46.5 197t99 163.5t107.5 63.5q42 0 42 -51
t-75 -170.5t-149 -189.5q-2 -16 -2 -26q0 -44 17.5 -91.5t46.5 -47.5q25 0 54 42zM588 518q-33 0 -73 -77.5t-51 -164.5q62 74 99.5 136.5t37.5 90.5q0 15 -13 15zM585 764l-136 -85l-41 14l92 96zM721 754l-140 -77l-42 16l113 89z" />
    <glyph glyph-name="uhungarumlaut" unicode="&#x171;" horiz-adv-x="460" 
d="M421 110l21 -17q-17 -42 -53.5 -71t-66 -29t-46.5 20.5t-17 53.5t11 85q-47 -74 -101 -116t-91 -42q-56 0 -56 80q0 68 46 174t67 123l48 -21q-41 -66 -62 -130t-21 -85.5t13.5 -34.5t31.5 -13q40 0 99.5 73.5t121.5 219.5l51 -23q-2 -8 -45.5 -116t-43.5 -129.5
t9.5 -32.5t19 -11t14.5 1t10 4t8.5 5t8.5 7l8 7q2 3 7.5 9.5t7.5 8.5zM333 498l-136 -85l-41 14l92 96zM469 488l-140 -77l-42 16l113 89z" />
    <glyph glyph-name="Uogonek" unicode="&#x172;" horiz-adv-x="691" 
d="M541 -96l20 -16q-30 -40 -82.5 -71t-84 -31t-48 13.5t-16.5 32.5q0 38 27.5 83.5t62.5 78.5q-36 43 -47 142q-46 -50 -115 -94.5t-121 -44.5t-82 35t-30 90q0 125 122 297t247 245l27 -38q-114 -85 -209 -224t-95 -244q0 -39 18.5 -60.5t52 -21.5t93.5 39t90 73
q5 97 46.5 197t99 163.5t107.5 63.5q42 0 42 -51t-75 -170.5t-149 -189.5q-2 -16 -2 -26q0 -44 17.5 -91.5t46.5 -47.5q25 0 54 42l32 -26q-12 -34 -41 -62.5t-63 -28.5q-19 0 -33 7q-37 -56 -37 -81q0 -8 7 -16t23 -8q36 0 95 41zM573 518q-33 0 -73 -77.5t-51 -164.5
q62 74 99.5 136.5t37.5 90.5q0 15 -13 15z" />
    <glyph glyph-name="uogonek" unicode="&#x173;" horiz-adv-x="430" 
d="M382 -90l20 -16q-30 -40 -82.5 -71t-84 -31t-48 13.5t-16.5 32.5q0 40 30.5 88t66.5 80q-24 21 -24 57.5t11 88.5q-47 -74 -101 -116t-91 -42q-56 0 -56 80q0 68 46 174t67 123l48 -21q-41 -66 -62 -130t-21 -85.5t13.5 -34.5t31.5 -13q40 0 99.5 73.5t121.5 219.5
l51 -23q-2 -8 -45.5 -116t-43.5 -129.5t9.5 -32.5t19 -11t14.5 1t10 4t8.5 5t8.5 7l7 7q3 3 8.5 9.5t7.5 8.5l21 -17q-17 -41 -52 -69.5t-66 -30.5q-21 -24 -36.5 -55.5t-15.5 -42t7 -18.5t23 -8q36 0 95 41z" />
    <glyph glyph-name="Wcircumflex" unicode="&#x174;" horiz-adv-x="779" 
d="M714 620l74 10q6 -27 6 -59q0 -80 -37.5 -182t-90.5 -185.5t-113 -141t-101 -57.5q-88 0 -88 138q0 66 47 274q-116 -164 -214 -287.5t-118.5 -123.5t-37 16t-16.5 33t6 34q43 129 56.5 242t13.5 202.5t-1 110.5h78q6 -32 6 -99.5t-16.5 -188t-40.5 -223.5q75 96 310 422
q27 39 43.5 51.5t40 12.5t23.5 -23q0 -9 -25 -86t-48 -191t-23 -173t30 -59q21 0 52 30q77 74 131 203.5t54 266.5q0 22 -1 33zM365 692l147 114q108 -86 129 -108l-30 -24q-85 51 -103 64l-99 -70z" />
    <glyph glyph-name="wcircumflex" unicode="&#x175;" horiz-adv-x="587" 
d="M573 389l28 -26l-60 -73q-106 -131 -157 -260q-14 -27 -27 -27t-21.5 3.5t-19 25.5t-14.5 53t-7 53t-4 32.5t-2.5 22t-2.5 17.5l-2 12t-3 11.5t-3 10t-4.5 15.5t-5.5 19q-52 -56 -89 -132q-14 -29 -55 -116q-9 -19 -24.5 -19t-25 3.5t-19.5 23.5t-15 60q-24 201 -46 274
q29 8 58 8q5 -9 13 -55q17 -89 43 -209q49 94 108.5 173.5t78.5 79.5q22 0 30.5 -30.5t15 -102t17.5 -119.5q94 161 215 272zM155 411l147 114q108 -86 129 -108l-30 -24q-85 51 -103 64l-99 -70z" />
    <glyph glyph-name="Ycircumflex" unicode="&#x176;" horiz-adv-x="650" 
d="M315 9l30 -1q6 21 27.5 80t30.5 78q-104 -98 -161 -118q-31 -11 -63 -11q-53 0 -82 35t-29 98q0 90 83 240.5t189 235.5l40 -37q-222 -239 -222 -399q0 -93 73 -93t142 80t143 248q30 69 46 91t31 22t23.5 -9t8.5 -24q0 -64 -92 -190q-64 -132 -129 -328q47 -3 100 -23
l-10 -34l-106 15q-59 -144 -142.5 -215.5t-199.5 -71.5q-60 0 -100.5 32.5t-40.5 81.5q0 90 121 153.5t289 63.5zM91 -253q81 0 143.5 65.5t92.5 153.5q-134 0 -225 -45.5t-91 -110.5q0 -28 22.5 -45.5t57.5 -17.5zM315 708l147 114q108 -86 129 -108l-30 -24
q-85 51 -103 64l-99 -70z" />
    <glyph glyph-name="ycircumflex" unicode="&#x177;" horiz-adv-x="441" 
d="M416 63l3 -26q-4 -3 -93 -36q-12 -66 -30.5 -130.5t-37 -98t-42.5 -66.5q-51 -66 -136 -66q-42 0 -67 26t-25 71q0 173 290 278l54 190q-86 -129 -154 -159q-35 -16 -72.5 -16t-60 24t-22.5 70t31.5 128.5t70.5 138.5l49 -21q-3 -3 -28 -53q-44 -91 -44 -135t17 -59
t50 -15t74.5 39.5t128.5 156.5l36 -21q-8 -33 -35.5 -119.5t-37.5 -132.5zM272 -15q-63 -29 -111 -66q-90 -68 -90 -132q0 -24 14 -39t35 -15q100 0 152 252zM209 423l147 114q108 -86 129 -108l-30 -24q-85 51 -103 64l-99 -70z" />
    <glyph glyph-name="Ydieresis" unicode="&#x178;" horiz-adv-x="680" 
d="M330 9l30 -1q6 21 27.5 80t30.5 78q-104 -98 -161 -118q-31 -11 -63 -11q-53 0 -82 35t-29 98q0 90 83 240.5t189 235.5l40 -37q-222 -239 -222 -399q0 -93 73 -93t142 80t143 248q30 69 46 91t31 22t23.5 -9t8.5 -24q0 -64 -92 -190q-64 -132 -129 -328q47 -3 100 -23
l-10 -34l-106 15q-59 -144 -142.5 -215.5t-199.5 -71.5q-60 0 -100.5 32.5t-40.5 81.5q0 90 121 153.5t289 63.5zM106 -253q81 0 143.5 65.5t92.5 153.5q-134 0 -225 -45.5t-91 -110.5q0 -28 22.5 -45.5t57.5 -17.5zM427 743q0 17 11.5 28.5t27.5 11.5t28 -11.5t12 -28
t-11.5 -28t-28 -11.5t-28 11t-11.5 28zM554 743q0 17 11.5 28.5t28 11.5t28 -11.5t11.5 -28t-11.5 -28t-28.5 -11.5t-28 11t-11 28z" />
    <glyph glyph-name="Zacute" unicode="&#x179;" horiz-adv-x="678" 
d="M233 479l5 -45q0 -8 -5.5 -14.5t-12.5 -6.5q-19 0 -39 33t-20 62q0 63 74 85t208 22t164.5 -8.5t30.5 -47.5q0 -17 -16.5 -38t-65 -66t-165 -142t-177.5 -160t-78 -88q42 -2 54 -2q135 0 195 15t60 52l-5 45q0 8 5.5 14.5t12.5 6.5q19 0 39 -33t20 -62q0 -63 -74 -85
t-208 -22t-164.5 8.5t-30.5 47.5q0 27 77.5 101t196.5 174.5t162 142.5t66 76q-42 2 -54 2q-135 0 -195 -15t-60 -52zM501 720l-171 -56l-29 18l132 78z" />
    <glyph glyph-name="zacute" unicode="&#x17a;" horiz-adv-x="439" 
d="M365 74l-1 -42q-23 -1 -63 -2t-55.5 -1.5t-42.5 -2.5q-46 -3 -85 -12q-49 -11 -53 -11q-19 0 -38.5 23t-19.5 45q0 42 300 253q-13 1 -59.5 1t-161.5 -20l-6 34q68 41 254 41q39 0 55.5 -6t16.5 -27q0 -23 -26 -42q-5 -4 -16.5 -11t-41.5 -28t-60.5 -43.5t-77.5 -67.5
t-90 -99q138 22 186.5 22t84.5 -4zM335 466l-171 -56l-29 18l132 78z" />
    <glyph glyph-name="Zdotaccent" unicode="&#x17b;" horiz-adv-x="678" 
d="M233 479l5 -45q0 -8 -5.5 -14.5t-12.5 -6.5q-19 0 -39 33t-20 62q0 63 74 85t208 22t164.5 -8.5t30.5 -47.5q0 -17 -16.5 -38t-65 -66t-165 -142t-177.5 -160t-78 -88q42 -2 54 -2q135 0 195 15t60 52l-5 45q0 8 5.5 14.5t12.5 6.5q19 0 39 -33t20 -62q0 -63 -74 -85
t-208 -22t-164.5 8.5t-30.5 47.5q0 27 77.5 101t196.5 174.5t162 142.5t66 76q-42 2 -54 2q-135 0 -195 -15t-60 -52zM399 721q0 17 11.5 28.5t27.5 11.5t28 -11.5t12 -28t-11.5 -28t-28 -11.5t-28 11t-11.5 28z" />
    <glyph glyph-name="zdotaccent" unicode="&#x17c;" horiz-adv-x="439" 
d="M365 74l-1 -42q-23 -1 -63 -2t-55.5 -1.5t-42.5 -2.5q-46 -3 -85 -12q-49 -11 -53 -11q-19 0 -38.5 23t-19.5 45q0 42 300 253q-13 1 -59.5 1t-161.5 -20l-6 34q68 41 254 41q39 0 55.5 -6t16.5 -27q0 -23 -26 -42q-5 -4 -16.5 -11t-41.5 -28t-60.5 -43.5t-77.5 -67.5
t-90 -99q138 22 186.5 22t84.5 -4zM180 453q0 17 11.5 28.5t28 11.5t28 -11.5t11.5 -28t-11.5 -28t-28.5 -11.5t-28 11t-11 28z" />
    <glyph glyph-name="Zcaron" unicode="&#x17d;" horiz-adv-x="678" 
d="M233 479l5 -45q0 -8 -5.5 -14.5t-12.5 -6.5q-19 0 -39 33t-20 62q0 63 74 85t208 22t164.5 -8.5t30.5 -47.5q0 -17 -16.5 -38t-65 -66t-165 -142t-177.5 -160t-78 -88q42 -2 54 -2q135 0 195 15t60 52l-5 45q0 8 5.5 14.5t12.5 6.5q19 0 39 -33t20 -62q0 -63 -74 -85
t-208 -22t-164.5 8.5t-30.5 47.5q0 27 77.5 101t196.5 174.5t162 142.5t66 76q-42 2 -54 2q-135 0 -195 -15t-60 -52zM431 674l-147 114l44 24q55 -42 99 -70q18 13 103 64l30 -24q-15 -17 -102 -86z" />
    <glyph glyph-name="zcaron" unicode="&#x17e;" horiz-adv-x="439" 
d="M365 74l-1 -42q-23 -1 -63 -2t-55.5 -1.5t-42.5 -2.5q-46 -3 -85 -12q-49 -11 -53 -11q-19 0 -38.5 23t-19.5 45q0 42 300 253q-13 1 -59.5 1t-161.5 -20l-6 34q68 41 254 41q39 0 55.5 -6t16.5 -27q0 -23 -26 -42q-5 -4 -16.5 -11t-41.5 -28t-60.5 -43.5t-77.5 -67.5
t-90 -99q138 22 186.5 22t84.5 -4zM240 398l-147 114l44 24q55 -42 99 -70q18 13 103 64l30 -24q-15 -17 -101 -86z" />
    <glyph glyph-name="longs" unicode="&#x17f;" horiz-adv-x="326" 
d="M261 692q-46 0 -67 -28.5t-21 -86.5v-577h-88v577q0 188 177 188q49 0 100 -19l-23 -69q-44 15 -78 15z" />
    <glyph glyph-name="uni0180" unicode="&#x180;" horiz-adv-x="615" 
d="M339 545q106 0 163.5 -73t57.5 -204q0 -133 -58.5 -205.5t-162.5 -72.5q-54 0 -96.5 19.5t-69.5 58.5h-7q-15 -59 -18 -68h-63v605h-76v66h76v89h88v-89h213v-66h-213v-30q0 -55 -5 -110h5q54 80 166 80zM324 472q-81 0 -116 -46t-35 -155v-4q0 -110 36 -157t117 -47
q72 0 107.5 53t35.5 153q0 102 -35.5 152.5t-109.5 50.5z" />
    <glyph glyph-name="uni0181" unicode="&#x181;" horiz-adv-x="729" 
d="M151 637q-61 0 -61 -50q0 -30 10 -54h-79q-4 10 -7.5 26.5t-3.5 28.5q0 65 34.5 95.5t106.5 30.5h230q144 0 207.5 -43t63.5 -134q0 -63 -34.5 -104.5t-101.5 -53.5v-5q82 -14 121 -57t39 -114q0 -96 -66 -149.5t-182 -53.5h-251v637h-26zM267 410h132q84 0 122 27t38 90
q0 59 -41.5 84.5t-132.5 25.5h-118v-227zM267 335v-259h144q86 0 127.5 33.5t41.5 100.5q0 64 -44 94.5t-132 30.5h-137z" />
    <glyph glyph-name="uni0182" unicode="&#x182;" horiz-adv-x="615" 
d="M523 546l-160 20q-103 0 -155.5 -27t-52.5 -73q0 -20 17.5 -34.5t34.5 -14.5t27 2t17 3.5t20.5 6.5t18.5 7q21 10 44 19l19 -26q-82 -75 -171 -75q-41 0 -69.5 21.5t-28.5 58.5q0 90 79.5 145t230.5 55q15 0 96.5 -8.5t120 -8.5t90.5 11t63 11q21 0 21 -17q0 -28 -43 -46
q-61 -27 -157 -30q-20 -13 -31 -24q-31 -27 -66 -112q78 44 138.5 44t98.5 -26.5t38 -86.5q0 -84 -62 -166t-159.5 -133t-195.5 -51q-47 0 -94 14q-41 -32 -74 -32t-50.5 19t-17.5 48q0 60 80.5 155.5t202.5 166.5q68 147 130 184zM241 77q60 67 120 201q4 9 4 10
q-62 -42 -119 -112.5t-57 -96t15.5 -25.5t36.5 23zM608.5 174.5q45.5 62.5 45.5 115t-19 67t-71.5 14.5t-111.5 -31q-12 -24 -35 -76t-38 -84q-41 -87 -90 -140q31 -11 62 -11q69 0 140.5 41.5t117 104z" />
    <glyph glyph-name="uni0183" unicode="&#x183;" horiz-adv-x="615" 
d="M339 545q106 0 163.5 -73t57.5 -204q0 -133 -58.5 -205.5t-162.5 -72.5q-54 0 -96.5 19.5t-69.5 58.5h-7q-15 -59 -18 -68h-63v760h421v-74h-333v-111q0 -55 -5 -110h5q54 80 166 80zM324 472q-81 0 -116 -46t-35 -155v-4q0 -110 36 -157t117 -47q72 0 107.5 53t35.5 153
q0 102 -35.5 152.5t-109.5 50.5z" />
    <glyph glyph-name="uni0184" unicode="&#x184;" horiz-adv-x="634" 
d="M180 210q0 -77 37.5 -110t122.5 -33q80 0 115.5 35.5t35.5 102.5q0 69 -48 99t-140 30h-123v-124zM90 714h90v-302h134q129 0 199.5 -53t70.5 -154t-63.5 -158t-179.5 -57q-251 0 -251 220v504z" />
    <glyph glyph-name="uni0185" unicode="&#x185;" horiz-adv-x="611" 
d="M322 -10q-115 0 -177.5 72.5t-62.5 204.5v493h88v-185q0 -55 -5 -110h5q54 80 166 80q106 0 163.5 -73t57.5 -204q0 -134 -61 -206t-174 -72zM170 265q0 -96 40.5 -149t112.5 -53t107.5 53t35.5 153q0 102 -35.5 152.5t-109.5 50.5q-81 0 -116 -46t-35 -155v-6z" />
    <glyph glyph-name="uni0186" unicode="&#x186;" horiz-adv-x="631" 
d="M243 724q158 0 243 -96t85 -272q0 -110 -39.5 -192.5t-114.5 -128t-174 -45.5q-55 0 -98 6.5t-86 22.5v78q94 -28 170 -28q115 0 181 77t66 211q0 137 -63.5 212.5t-183.5 75.5q-77 0 -162 -39l-36 76q84 42 212 42z" />
    <glyph glyph-name="uni0187" unicode="&#x187;" horiz-adv-x="631" 
d="M403 645q-115 0 -181 -77t-66 -211q0 -138 64 -213t182 -75q76 0 171 28v-78q-45 -17 -87 -23t-97 -6q-158 0 -243 96t-85 272q0 110 41 193t118.5 128t183.5 45q61 0 117 -14v14q0 64 27 99t88 35q30 0 60 -13v-72q-24 10 -52 10q-47 0 -47 -48v-51l-36 -78
q-33 15 -71.5 27t-86.5 12z" />
    <glyph glyph-name="uni0188" unicode="&#x188;" horiz-adv-x="502" 
d="M300 -10q-116 0 -180.5 71t-64.5 204q0 135 65.5 208t185.5 73q27 0 65 -6v91q0 64 26.5 99t88.5 35q29 0 60 -13v-73q-23 10 -52 10q-47 0 -47 -48v-124l-27 -73q-68 25 -116 25q-81 0 -119.5 -51t-38.5 -152q0 -97 38.5 -148.5t114.5 -51.5q71 0 139 31v-78
q-55 -29 -138 -29z" />
    <glyph glyph-name="uni0189" unicode="&#x189;" horiz-adv-x="729" 
d="M283 638q174 0 297.5 -103t123.5 -241t-84 -218t-213 -78q-69 1 -110 1h-47q-29 0 -29 22q0 5 25 58t34 76l-109 -16l10 61q64 11 121 17q12 35 21 74q-103 0 -193 57t-90 129.5t68 116.5t175 44zM496 235v-47l-151 -23q-19 -47 -39 -92q100 -8 166.5 -8t105.5 49.5
t39 133.5q0 145 -99 247t-239 102q-66 0 -104 -28t-38 -82.5t52.5 -97t140.5 -53.5q31 131 36 169l60 -6q0 -62 -26 -164q8 0 93 10l5 -33q-20 -7 -111 -21q-16 -51 -21 -66q50 5 130 10z" />
    <glyph glyph-name="uni018A" unicode="&#x18a;" horiz-adv-x="810" 
d="M654 361q0 136 -67 206t-203 70h-117v-560h97q290 0 290 284zM397 714q168 0 260 -92.5t92 -257.5q0 -177 -96.5 -270.5t-276.5 -93.5h-199v637h-26q-61 0 -61 -50q0 -30 10 -54h-79q-4 10 -7.5 26.5t-3.5 28.5q0 65 34.5 95.5t106.5 30.5h246z" />
    <glyph glyph-name="uni018B" unicode="&#x18b;" horiz-adv-x="615" 
d="M428 335h-82q-106 0 -154 -32t-48 -101q0 -63 44 -94t139 -31h101v258zM518 714v-714h-199q-268 0 -268 198q0 103 73.5 158.5t211.5 55.5h92v223h-334v79h424z" />
    <glyph glyph-name="uni018C" unicode="&#x18c;" horiz-adv-x="615" 
d="M289 63q80 0 117 43.5t37 143.5v16q0 112 -37.5 159.5t-117.5 47.5q-68 0 -105 -54t-37 -154t37 -151t106 -51zM530 0h-71l-13 72h-4q-56 -82 -167 -82q-104 0 -162 72.5t-58 204.5q0 131 58 205t163 74q108 0 166 -79h6q-1 10 -3.5 39.5t-2.5 39.5v140h-333v74h421v-760
z" />
    <glyph glyph-name="uni018D" unicode="&#x18d;" horiz-adv-x="604" 
d="M341 294q66 -38 95 -77t29 -87q0 -64 -48 -102t-132 -38q-51 0 -97 11.5t-109 42.5l38 69q37 -21 79 -36t93 -15q40 0 63.5 18.5t23.5 50.5q0 34 -26.5 60t-107.5 70q-104 57 -146 117t-42 136q0 115 66 180.5t184 65.5q112 0 179 -60.5t67 -163.5q0 -87 -54 -149.5
t-155 -92.5zM145 515q0 -62 30 -105.5t96 -77.5q92 22 139.5 74t47.5 131q0 67 -41.5 108.5t-112.5 41.5q-77 0 -118 -44.5t-41 -127.5z" />
    <glyph glyph-name="uni018E" unicode="&#x18e;" horiz-adv-x="556" 
d="M60 79h309v255h-291v78h291v223h-309v79h399v-714h-399v79z" />
    <glyph glyph-name="uni018F" unicode="&#x18f;" horiz-adv-x="738" 
d="M332 646q-110 0 -228 -41v82q61 21 114 29.5t116 8.5q162 0 252.5 -97.5t90.5 -271.5q0 -171 -85 -268.5t-237 -97.5q-147 0 -221.5 92t-74.5 275v34h523q-8 126 -71 190.5t-179 64.5zM355 69q100 0 159.5 63.5t67.5 179.5h-427q0 -125 49 -184t151 -59z" />
    <glyph glyph-name="uni0190" unicode="&#x190;" horiz-adv-x="587" 
d="M87 547q0 82 60.5 129.5t166.5 47.5q64 0 124 -18.5t109 -55.5l-43 -61q-52 36 -94 48.5t-94 12.5q-63 0 -99.5 -30.5t-36.5 -81.5q0 -60 48 -95.5t145 -35.5h97v-75h-102q-110 0 -165 -33t-55 -97q0 -67 48.5 -102.5t139.5 -35.5q105 0 214 52v-82q-90 -44 -219 -44
q-135 0 -206 52t-71 153q0 76 46.5 121t137.5 57v4q-72 12 -111.5 56.5t-39.5 113.5z" />
    <glyph glyph-name="uni0191" unicode="&#x191;" horiz-adv-x="519" 
d="M45 -240q-32 0 -56 13v76q21 -10 45 -10q35 0 49 20t14 62v793h399v-79h-309v-253h290v-79h-290v-386q0 -157 -142 -157z" />
    <glyph glyph-name="florin" unicode="&#x192;" horiz-adv-x="623" 
d="M549 608q37 0 61.5 -18.5t24.5 -46.5q0 -54 -58.5 -112t-125.5 -61l-9 33q64 22 97.5 50.5t32.5 66.5q-1 17 -15 29t-39 12t-57.5 -29t-60.5 -78q-50 -88 -90 -199q53 -3 81.5 -3t68.5 17l22 -39q-1 0 -12.5 -9.5t-17.5 -12.5t-22 -9q-28 -11 -75.5 -11t-70.5 2
q-65 -180 -121 -247.5t-158 -67.5q-72 0 -141 38l19 33q8 -3 23 -9t22 -9l18 -6q20 -6 36 -6q124 0 228 276q-14 2 -23 2q-40 0 -78 -19l-26 46q26 22 59.5 29t93.5 7q61 182 144 266.5t169 84.5z" />
    <glyph glyph-name="uni0193" unicode="&#x193;" horiz-adv-x="728" 
d="M407 377h247v-350q-57 -18 -115.5 -27.5t-135.5 -9.5q-163 0 -252.5 97t-89.5 270q0 112 44.5 195.5t128 127.5t197.5 44q71 0 137 -17v17q0 64 27 99t88 35q29 0 60 -13v-72q-24 10 -52 10q-47 0 -47 -48v-53l-34 -78q-94 41 -184 41q-127 0 -199 -77t-72 -211
q0 -142 68.5 -215.5t200.5 -73.5q72 0 140 17v212h-157v80z" />
    <glyph glyph-name="uni0194" unicode="&#x194;" horiz-adv-x="569" 
d="M334 108q33 -65 50 -121t17 -94q0 -59 -32 -96t-84 -37q-54 0 -85 37.5t-31 95.5q0 78 67 214l-236 607h94q89 -237 136.5 -362t54.5 -167q10 51 50 158l140 371h95zM319 -105q0 26 -8.5 62t-25.5 68q-19 -38 -26.5 -72t-7.5 -56q0 -31 9.5 -45t24.5 -14q34 0 34 57z" />
    <glyph glyph-name="uni0195" unicode="&#x195;" horiz-adv-x="934" 
d="M639 63q67 0 96.5 36t29.5 113v324h88v-327q0 -114 -51 -166.5t-163 -52.5q-110 0 -162 48.5t-52 147.5v157q0 65 -26 97t-83 32q-74 0 -108.5 -45.5t-34.5 -149.5v-277h-88v760h88v-223q0 -44 -5 -75h6q24 42 66 62.5t90 20.5q91 0 137 -46.5t46 -149.5v-157
q0 -65 30.5 -97t95.5 -32z" />
    <glyph glyph-name="uni0196" unicode="&#x196;" horiz-adv-x="348" 
d="M179 714v-549q0 -48 18 -72t59 -24q21 0 44 3.5t38 7.5v-74q-13 -6 -40 -11t-55 -5q-80 0 -116.5 41.5t-36.5 125.5v557h89z" />
    <glyph glyph-name="uni0197" unicode="&#x197;" horiz-adv-x="338" 
d="M298 0h-258v52l84 19v256h-90v78h90v237l-84 20v52h258v-52l-84 -20v-237h90v-78h-90v-256l84 -19v-52z" />
    <glyph glyph-name="uni0198" unicode="&#x198;" horiz-adv-x="619" 
d="M327 405l292 -405h-106q-30 40 -121 172q-71 103 -126 170l-79 -77v-265h-90v714h90v-360q28 35 60 72q21 24 185 225q29 38 54.5 53.5t66.5 15.5q30 0 50 -8v-70q-21 3 -44 3q-17 0 -31.5 -10t-36.5 -36z" />
    <glyph glyph-name="uni0199" unicode="&#x199;" horiz-adv-x="534" 
d="M172 363l-4 -87h4l30 38l34 41l171 181h103l-217 -229l232 -307h-106l-186 250l-61 -53v-197h-87v625q0 140 121 140q33 0 65 -13v-73q-23 10 -52 10q-23 0 -35 -13t-12 -45v-268z" />
    <glyph glyph-name="uni019A" unicode="&#x19a;" horiz-adv-x="257" 
d="M173 420h70v-66h-70v-354h-88v354h-70v66h70v340h88v-340z" />
    <glyph glyph-name="uni019B" unicode="&#x19b;" horiz-adv-x="541" 
d="M-6 0l231 526l-23 64l-106 -32l-19 63l99 30q-13 22 -29.5 32t-45.5 10q-30 0 -56 -6v71q33 8 66 8q53 0 87 -21t59 -69l109 33l19 -63l-102 -32l179 -498q10 -28 21.5 -41t28.5 -13q12 0 30 5v-65q-24 -12 -57 -12q-36 0 -58 18t-38 63l-73 205q-42 119 -50 159h-4
q-16 -62 -55 -154l-122 -281h-91z" />
    <glyph glyph-name="uni019C" unicode="&#x19c;" horiz-adv-x="1029" 
d="M180 714v-506q0 -70 29 -105t92 -35q84 0 124.5 47t40.5 147v452h90v-506q0 -70 29 -105t94 -35q84 0 123.5 49.5t39.5 164.5v432h90v-714h-71l-15 82h-5q-25 -42 -74 -67t-107 -25q-68 0 -110.5 24.5t-64.5 75.5h-5q-28 -48 -79.5 -74t-113.5 -26q-103 0 -150 53
t-47 165v506h90z" />
    <glyph glyph-name="uni019D" unicode="&#x19d;" horiz-adv-x="759" 
d="M97 714h104l22 -35l235 -362l124 -194h4q-1 12 -4 84t-3 104v403h84v-714h-105l-382 593h-4l2 -40q6 -89 6 -154v-482q0 -83 -34 -120t-101 -37q-32 0 -56 13v76q21 -10 45 -10q35 0 49 20t14 62v793z" />
    <glyph glyph-name="uni019E" unicode="&#x19e;" horiz-adv-x="618" 
d="M450 -240v583q0 64 -28.5 96.5t-91.5 32.5q-83 0 -120 -46.5t-37 -147.5v-278h-88v536h71l13 -73h5q25 40 70 61.5t99 21.5q99 0 146.5 -48t47.5 -149v-589h-87z" />
    <glyph glyph-name="uni019F" unicode="&#x19f;" horiz-adv-x="782" 
d="M720 358q0 -171 -86.5 -269.5t-242.5 -98.5q-158 0 -244 96.5t-86 272.5q0 174 85.5 270t245.5 96q155 0 241.5 -97.5t86.5 -269.5zM391 68q108 0 167.5 65t65.5 192h-467q6 -127 65.5 -192t168.5 -65zM392 646q-106 0 -165.5 -61.5t-69.5 -181.5h466q-9 121 -67.5 182
t-163.5 61z" />
    <glyph glyph-name="Ohorn" unicode="&#x1a0;" horiz-adv-x="784" 
d="M719 358q0 -173 -86.5 -270.5t-241.5 -97.5q-158 0 -244 96t-86 273q0 176 86 271t245 95t247 -104q33 9 48.5 39.5t15.5 99.5h95l7 -11q-15 -78 -47.5 -120.5t-83.5 -61.5q45 -85 45 -209zM156 358q0 -142 59.5 -216t175.5 -74t174.5 73t58.5 217q0 143 -58.5 215.5
t-173.5 72.5q-118 0 -177 -73.5t-59 -214.5z" />
    <glyph glyph-name="ohorn" unicode="&#x1a1;" horiz-adv-x="616" 
d="M551 269q0 -131 -66.5 -205t-183.5 -74q-73 0 -129 34t-86.5 97.5t-30.5 147.5q0 131 65.5 204t183.5 73q53 0 97.5 -18t76.5 -51q24 7 38.5 23.5t21.5 41t7 76.5h94l7 -11q-16 -79 -46.5 -121.5t-82.5 -61.5q34 -69 34 -155zM146 269q0 -105 38.5 -155.5t118.5 -50.5
q83 0 120 52t37 154q0 100 -38 151.5t-120 51.5q-83 0 -119.5 -51.5t-36.5 -151.5z" />
    <glyph glyph-name="uni01A2" unicode="&#x1a2;" horiz-adv-x="1075" 
d="M688 358q0 -173 -82.5 -270.5t-230.5 -97.5q-150 0 -232 96.5t-82 272.5q0 174 82 270t233 96q142 0 224 -91q28 43 78 67t110 24q102 0 149.5 -52.5t47.5 -165.5v-507h-90v507q0 70 -29 105t-92 35q-53 0 -86.5 -15t-52.5 -46q53 -92 53 -228zM156 358q0 -142 56 -216
t163 -74t162.5 73t55.5 217q0 143 -55 215.5t-162 72.5q-108 0 -164 -73.5t-56 -214.5z" />
    <glyph glyph-name="uni01A3" unicode="&#x1a3;" horiz-adv-x="845" 
d="M526 269q0 -132 -63.5 -205.5t-173.5 -73.5q-69 0 -122.5 34t-82.5 98t-29 147q0 130 62.5 203.5t173.5 73.5q106 0 169 -72q26 37 64 54.5t80 17.5q80 0 120 -47t40 -150v-589h-87v585q0 127 -92 127q-63 0 -94 -44q35 -63 35 -159zM146 269q0 -101 36.5 -153.5
t107.5 -52.5t108 52t37 154q0 101 -37 152t-108 51q-144 0 -144 -203z" />
    <glyph glyph-name="uni01A4" unicode="&#x1a4;" horiz-adv-x="685" 
d="M267 355h72q106 0 154 34.5t48 110.5q0 69 -44.5 103t-138.5 34h-91v-282zM366 714q268 0 268 -210q0 -109 -74.5 -167.5t-210.5 -58.5h-82v-278h-90v637h-26q-61 0 -61 -50q0 -30 10 -54h-79q-4 10 -7.5 26.5t-3.5 28.5q0 65 34.5 95.5t106.5 30.5h215z" />
    <glyph glyph-name="uni01A5" unicode="&#x1a5;" horiz-adv-x="615" 
d="M207 765q33 0 65 -13v-73q-23 10 -52 10q-23 0 -35 -13t-12 -45v-80q0 -30 -4 -68l-2 -20h6q31 44 72 63.5t95 19.5q104 0 162 -72.5t58 -204.5q0 -131 -58 -205t-163 -74q-108 0 -166 78h-6l2 -20q4 -38 4 -68v-220h-88l1 865q0 140 121 140zM324 472q-80 0 -115 -45
t-36 -141v-17q0 -109 36 -157.5t117 -48.5q67 0 105 54.5t38 152.5t-38 150t-107 52z" />
    <glyph glyph-name="uni01A6" unicode="&#x1a6;" horiz-adv-x="622" 
d="M187 271h107q87 0 127 34t40 102q0 67 -40.5 98t-131.5 31h-102v-265zM187 195v-195h-90v714h90v-100h107q133 0 196.5 -50.5t63.5 -152.5q0 -142 -143 -191l196 -320h-105l-173 295h-142z" />
    <glyph glyph-name="uni01A7" unicode="&#x1a7;" horiz-adv-x="548" 
d="M47 191q0 48 20 84t61 63.5t124 58.5q68 25 98.5 44t44 42t13.5 58q0 49 -36 76.5t-99 27.5q-72 0 -154 -38l-28 77q85 40 180 40q102 0 165 -49.5t63 -132.5q0 -76 -41.5 -125.5t-142.5 -86.5q-78 -28 -113 -48t-50 -43t-15 -56q0 -54 40.5 -84.5t120.5 -30.5
q91 0 200 47v-86q-34 -17 -85 -28t-111 -11q-120 0 -187.5 54t-67.5 147z" />
    <glyph glyph-name="uni01A8" unicode="&#x1a8;" horiz-adv-x="479" 
d="M45 148q0 37 15 64t46.5 48.5t99.5 46.5q88 34 113 53t25 49t-28 47.5t-83 17.5q-50 0 -132 -34l-30 70q81 36 156 36q98 0 149.5 -36.5t51.5 -105.5q0 -37 -14.5 -63t-45 -47t-106.5 -50q-53 -20 -81 -35.5t-39.5 -31t-11.5 -37.5q0 -39 32 -59t95 -20q84 0 170 43v-80
q-62 -34 -168 -34q-214 0 -214 158z" />
    <glyph glyph-name="uni01A9" unicode="&#x1a9;" horiz-adv-x="569" 
d="M36 0v74l234 299l-228 266v75h475v-80h-325l-47 1l225 -261l-235 -296l163 1h248v-79h-510z" />
    <glyph glyph-name="uni01AA" unicode="&#x1aa;" horiz-adv-x="309" 
d="M67 542q-60 0 -91.5 29.5t-31.5 82.5q0 54 32.5 82.5t92.5 28.5q63 0 96.5 -36t33.5 -105v-696q0 -49 18 -72.5t59 -23.5q19 0 43.5 3t38.5 8v-67q-15 -7 -41.5 -11.5t-52.5 -4.5q-80 0 -116 41t-36 126v615h-45zM63 693q-21 0 -30 -12t-9 -27q0 -40 49 -40h39v13
q0 35 -12.5 50.5t-36.5 15.5z" />
    <glyph glyph-name="uni01AB" unicode="&#x1ab;" horiz-adv-x="360" 
d="M222 -240q-29 0 -60 12v73q22 -9 50 -9q48 0 48 52v102h-11q-157 0 -157 166v312h-76v42l77 35l35 114h52v-123h155v-68h-155v-310q0 -46 22.5 -71t61.5 -25q17 0 40 3.5t35 7.5v-180q0 -133 -117 -133z" />
    <glyph glyph-name="uni01AC" unicode="&#x1ac;" horiz-adv-x="576" 
d="M151 635q-61 0 -61 -48q0 -30 10 -54h-79q-4 10 -7.5 26.5t-3.5 28.5q0 65 34.5 95.5t106.5 30.5h414v-79h-222v-635h-90v635h-102z" />
    <glyph glyph-name="uni01AD" unicode="&#x1ad;" horiz-adv-x="360" 
d="M180 536h155v-68h-155v-310q0 -46 22.5 -71t61.5 -25q17 0 40 3.5t35 7.5v-67q-12 -5 -38 -10.5t-52 -5.5q-157 0 -157 166v312h-76v42l77 35v66q0 154 147 154q39 0 77 -13v-73q-11 4 -34.5 7t-42.5 3q-32 0 -46 -17t-14 -51v-85z" />
    <glyph glyph-name="uni01AE" unicode="&#x1ae;" horiz-adv-x="556" 
d="M233 635h-223v79h535v-79h-222v-714q0 -42 14.5 -62t48.5 -20q24 0 45 10v-76q-24 -13 -63 -13q-68 0 -101.5 37t-33.5 120v718z" />
    <glyph glyph-name="Uhorn" unicode="&#x1af;" horiz-adv-x="779" 
d="M640 714v-97q40 5 59 37t19 106h93l7 -11q-16 -90 -59 -135.5t-119 -58.5v-303q0 -125 -70.5 -193.5t-200.5 -68.5q-133 0 -206 70.5t-73 193.5v460h90v-464q0 -86 47.5 -134t143.5 -48q88 0 134 46.5t46 136.5v463h89z" />
    <glyph glyph-name="uhorn" unicode="&#x1b0;" horiz-adv-x="673" 
d="M168 535v-344q0 -65 29 -96.5t90 -31.5q83 0 120.5 46t37.5 148v278h88v-59q39 6 57 37.5t18 105.5h93l7 -11q-16 -93 -59 -139.5t-116 -54.5v-414h-72l-13 71h-4q-24 -39 -67.5 -60t-100.5 -21q-98 0 -147.5 46.5t-49.5 148.5v350h89z" />
    <glyph glyph-name="uni01B1" unicode="&#x1b1;" horiz-adv-x="782" 
d="M391 68q114 0 173 62t59 183q0 110 -40.5 189t-126.5 140v72h288v-79h-178q74 -57 113 -141t39 -184q0 -150 -87 -235.5t-240 -85.5q-155 0 -241.5 85t-86.5 235q0 100 39 185t112 141h-177v79h288v-72q-87 -62 -127.5 -142t-40.5 -187q0 -120 59.5 -182.5t174.5 -62.5z
" />
    <glyph glyph-name="uni01B2" unicode="&#x1b2;" horiz-adv-x="600" 
d="M571 580q0 -53 -45 -157l-181 -423h-90l-255 714h94l162 -466q31 -88 45 -156q8 30 27 73q21 50 32 81l85 203q36 88 36 125q0 39 -16 55t-47 16q-24 0 -45 -10v76q22 13 63 13q135 0 135 -144z" />
    <glyph glyph-name="uni01B3" unicode="&#x1b3;" horiz-adv-x="565" 
d="M39 649q-21 0 -39 -8v73q28 11 60 11q37 0 59.5 -17.5t40.5 -57.5l128 -287l181 351h97l-233 -437v-277h-90v273l-162 341q-18 35 -42 35z" />
    <glyph glyph-name="uni01B4" unicode="&#x1b4;" horiz-adv-x="541" 
d="M485 546q33 0 57 -12v-65q-18 5 -30 5q-18 0 -28.5 -13t-21.5 -41l-183 -494q-32 -87 -79 -126.5t-116 -39.5q-37 0 -73 8v70q24 -6 59 -6q85 0 121 95l26 71l-216 538h94l116 -305q37 -100 45 -146h4q8 36 48 147l76 217q19 54 41 75.5t60 21.5z" />
    <glyph glyph-name="uni01B5" unicode="&#x1b5;" horiz-adv-x="571" 
d="M79 407h184l151 227h-364v80h473v-68l-159 -239h122v-71h-169l-170 -256h386v-80h-495v68l178 268h-137v71z" />
    <glyph glyph-name="uni01B6" unicode="&#x1b6;" horiz-adv-x="470" 
d="M57 313h161l109 155h-271v68h368v-66l-111 -157h101v-70h-151l-123 -175h291v-68h-392v58l130 185h-112v70z" />
    <glyph glyph-name="uni01B7" unicode="&#x1b7;" horiz-adv-x="583" 
d="M291 440q68 -2 122.5 -30t85 -76.5t30.5 -112.5q0 -109 -76 -170t-212 -61q-126 0 -206 39v82q49 -23 104 -35t103 -12q97 0 145 41t48 117q0 69 -49.5 107t-143.5 38h-62v65l206 202h-331v80h444v-71z" />
    <glyph glyph-name="uni01B8" unicode="&#x1b8;" horiz-adv-x="583" 
d="M85 643v71h444v-80h-330l205 -202v-65h-78q-84 0 -130.5 -40.5t-46.5 -113.5q0 -71 49.5 -110t143.5 -39q49 0 103.5 11.5t103.5 35.5v-82q-45 -21 -98.5 -30t-119.5 -9q-87 0 -149 27t-94.5 77t-32.5 117q0 68 30 119t84.5 79.5t123.5 30.5z" />
    <glyph glyph-name="uni01B9" unicode="&#x1b9;" horiz-adv-x="498" 
d="M61 472v64h409v-74h-306l219 -243v-61h-59q-101 0 -151.5 -42.5t-50.5 -124.5q0 -71 47 -114.5t126 -43.5q100 0 189 42v-80q-68 -35 -196 -35q-113 0 -183.5 63t-70.5 166q0 105 64.5 168t181.5 71z" />
    <glyph glyph-name="uni01BA" unicode="&#x1ba;" horiz-adv-x="498" 
d="M216 -167q84 0 160 36v-80q-60 -29 -161 -29q-90 0 -138.5 31t-48.5 88q0 62 46.5 91.5t137.5 29.5q80 0 114.5 27.5t34.5 94.5q0 60 -44.5 88t-142.5 28h-59v61l183 163h-270v74h394v-64l-187 -164q104 -5 159 -51.5t55 -133.5q0 -95 -59.5 -145.5t-175.5 -50.5
q-53 0 -78 -10.5t-25 -37.5q0 -21 26.5 -33.5t78.5 -12.5z" />
    <glyph glyph-name="uni01BB" unicode="&#x1bb;" horiz-adv-x="569" 
d="M78 419h241q27 44 39 82t12 81q0 50 -29.5 78t-82.5 28q-45 0 -81.5 -16.5t-73.5 -49.5l-47 59q93 84 204 84q94 0 147.5 -48.5t53.5 -132.5q0 -42 -10.5 -81.5t-35.5 -83.5h100v-70h-144q-11 -16 -23.5 -32.5t-201.5 -242.5v-4h374v-70h-472v73l175 215l47 61h-192v70z
" />
    <glyph glyph-name="uni01BC" unicode="&#x1bc;" horiz-adv-x="583" 
d="M224 634v-193h42q77 0 137 -27t93 -76.5t33 -116.5q0 -109 -76 -170t-212 -61q-126 0 -206 39v82q49 -23 104 -35t103 -12q97 0 145 41t48 117q0 68 -47 106.5t-130 38.5h-124v267h-79v80h444v-80h-275z" />
    <glyph glyph-name="uni01BD" unicode="&#x1bd;" horiz-adv-x="490" 
d="M198 462v-117h23q107 0 165.5 -46.5t58.5 -135.5q0 -82 -60.5 -127.5t-168.5 -45.5q-118 0 -183 35v79q89 -42 182 -42q69 0 106 26.5t37 79.5t-37.5 79t-115.5 26h-95v189h-62v74h364v-74h-214z" />
    <glyph glyph-name="uni01BE" unicode="&#x1be;" horiz-adv-x="462" 
d="M136 378v90h-91v42l92 35l35 114h52v-123h155v-68h-155v-92q0 -34 10.5 -49.5t36.5 -24.5q83 -31 115 -66.5t32 -87.5q0 -75 -56 -116.5t-158 -41.5q-105 0 -168 34v80q86 -43 170 -43q66 0 96.5 21.5t30.5 57.5q0 29 -24 49.5t-90 47.5q-47 20 -65 52t-18 89z" />
    <glyph glyph-name="uni01BF" unicode="&#x1bf;" horiz-adv-x="586" 
d="M173 -240h-88v776h72l12 -73h4q55 83 158 83q96 0 152 -59t56 -164q0 -91 -45.5 -164.5t-130 -117.5t-190.5 -51v-230zM173 62q131 17 203 85.5t72 173.5q0 69 -36 110t-99 41q-73 0 -106.5 -44t-33.5 -142v-224z" />
    <glyph glyph-name="uni01C0" unicode="&#x1c0;" horiz-adv-x="516" 
d="M297 -240h-78v1000h78v-1000z" />
    <glyph glyph-name="uni01C1" unicode="&#x1c1;" horiz-adv-x="516" 
d="M169 -240h-78v1000h78v-1000zM426 -240h-78v1000h78v-1000z" />
    <glyph glyph-name="uni01C2" unicode="&#x1c2;" horiz-adv-x="516" 
d="M65 402h154v358h78v-358h154v-72h-154v-124h154v-72h-154v-374h-78v374h-154v72h154v124h-154v72z" />
    <glyph glyph-name="uni01C3" unicode="&#x1c3;" horiz-adv-x="269" 
d="M163 201h-57l-25 513h107zM72 54q0 32 16 49.5t46 17.5t46 -18t16 -49t-16.5 -49.5t-45.5 -18.5q-30 0 -46 18t-16 50z" />
    <glyph glyph-name="uni01C4" unicode="&#x1c4;" horiz-adv-x="1291" 
d="M837 552l-147 114l44 24q55 -42 99 -70q18 13 103 64l30 -24q-15 -17 -102 -86zM233 638q174 0 297.5 -103t123.5 -241t-84 -218t-213 -78q-69 1 -110 1h-47q-29 0 -29 22q0 8 17 41q56 112 85 229q-103 0 -193 57t-90 129.5t68 116.5t175 44zM229 597q-66 0 -104 -28
t-38 -82.5t52.5 -97t140.5 -53.5q31 131 36 169l60 -6q0 -62 -26 -164q8 0 93 10l5 -33q-20 -7 -111 -21q-39 -126 -81 -218q100 -8 166.5 -8t105.5 49.5t39 133.5q0 145 -99 247t-239 102zM943 479l5 -45q0 -8 -5.5 -14.5t-12.5 -6.5q-19 0 -39 33t-20 62q0 63 74 85
t208 22t164.5 -8.5t30.5 -47.5q0 -17 -16.5 -38t-65 -66t-165 -142t-177.5 -160t-78 -88q42 -2 54 -2q135 0 195 15t60 52l-5 45q0 8 5.5 14.5t12.5 6.5q19 0 39 -33t20 -62q0 -63 -74 -85t-208 -22t-164.5 8.5t-30.5 47.5q0 27 77.5 101t196.5 174.5t162 142.5t66 76
q-42 2 -54 2q-135 0 -195 -15t-60 -52z" />
    <glyph glyph-name="uni01C5" unicode="&#x1c5;" horiz-adv-x="1200" 
d="M810 387l-147 114l44 24q55 -42 99 -70q18 13 103 64l30 -24q-15 -17 -102 -86zM233 638q174 0 297.5 -103t123.5 -241t-84 -218t-213 -78q-69 1 -110 1h-47q-29 0 -29 22q0 8 17 41q56 112 85 229q-103 0 -193 57t-90 129.5t68 116.5t175 44zM229 597q-66 0 -104 -28
t-38 -82.5t52.5 -97t140.5 -53.5q31 131 36 169l60 -6q0 -62 -26 -164q8 0 93 10l5 -33q-20 -7 -111 -21q-39 -126 -81 -218q100 -8 166.5 -8t105.5 49.5t39 133.5q0 145 -99 247t-239 102zM1085 74l-1 -42q-23 -1 -63 -2t-55.5 -1.5t-42.5 -2.5q-46 -3 -85 -12
q-49 -11 -53 -11q-19 0 -38.5 23t-19.5 45q0 42 300 253q-13 1 -59.5 1t-161.5 -20l-6 34q68 41 254 41q39 0 55.5 -6t16.5 -27q0 -23 -26 -42q-5 -4 -16.5 -11t-41.5 -28t-60.5 -43.5t-77.5 -67.5t-90 -99q138 22 186.5 22t84.5 -4z" />
    <glyph glyph-name="uni01C6" unicode="&#x1c6;" horiz-adv-x="1084" 
d="M697 387l-147 114l44 24q55 -42 99 -70q18 13 103 64l30 -24q-15 -17 -102 -86zM574 739l51 -18l-14 -26q-110 -205 -187 -397q-51 -126 -51 -189q0 -16 8 -25.5t25.5 -9.5t40.5 23l18 -17q-13 -29 -45 -53.5t-62 -24.5q-58 0 -58 68q0 40 22 123q-118 -206 -231 -206
q-39 0 -62 24t-23 65q0 65 52 135t128 114.5t142 44.5l3 -35q-86 -11 -160.5 -74.5t-74.5 -129.5q0 -28 15 -44.5t39 -16.5q49 0 128 105q29 38 66.5 111t60 117.5t44 87t56.5 112t69 136.5zM970 74l-1 -42q-23 -1 -63 -2t-55.5 -1.5t-42.5 -2.5q-46 -3 -85 -12
q-49 -11 -53 -11q-19 0 -38.5 23t-19.5 45q0 42 300 253q-13 1 -59.5 1t-161.5 -20l-6 34q68 41 254 41q39 0 55.5 -6t16.5 -27q0 -23 -26 -42q-5 -4 -16.5 -11t-41.5 -28t-60.5 -43.5t-77.5 -67.5t-90 -99q138 22 186.5 22t84.5 -4z" />
    <glyph glyph-name="uni01C7" unicode="&#x1c7;" horiz-adv-x="796" 
d="M175 93l208 -6q44 0 85 29l27 -36q-20 -23 -32 -34.5t-35.5 -22.5t-52.5 -11l-187 8q-125 0 -122 -3q-37 1 -37 33q3 20 27 66.5t65 168.5q-62 0 -111 37l21 37q43 -28 105 -28q58 142 147 213t186 71q46 0 74 -23.5t28 -62.5q0 -84 -110.5 -157.5t-251.5 -82.5
q-46 -146 -103 -199q25 3 69 3zM414 561q-62 0 -115 -63t-76 -163q100 7 175 60t75 111q0 23 -17 39t-42 16zM1098 622q61 0 99.5 -7.5t38.5 -30.5q0 -20 -32 -39q-79 -48 -140.5 -155.5t-126.5 -317.5q59 0 89 -5l-6 -40q-28 5 -50 5t-49 -5q-31 -85 -65.5 -138t-88.5 -99
t-120 -76t-112.5 -30t-73.5 25.5t-27 67.5q0 64 60 127t158.5 106t207.5 54q2 4 31 95q46 150 103.5 238.5t138.5 146.5q-17 2 -45 2q-173 0 -284 -63t-111 -142q0 -51 30.5 -94.5t86.5 -89.5l-24 -33q-163 88 -163 222q0 78 66.5 142t175 99t233.5 35zM689.5 -216
q50.5 32 95 94t62.5 142q-130 -13 -220.5 -74.5t-90.5 -137.5q0 -26 15 -41t42 -15q46 0 96.5 32z" />
    <glyph glyph-name="uni01C8" unicode="&#x1c8;" horiz-adv-x="782" 
d="M175 93l208 -6q44 0 85 29l27 -36q-20 -23 -32 -34.5t-35.5 -22.5t-52.5 -11l-187 8q-125 0 -122 -3q-37 1 -37 33q3 20 27 66.5t65 168.5q-62 0 -111 37l21 37q43 -28 105 -28q58 142 147 213t186 71q46 0 74 -23.5t28 -62.5q0 -84 -110.5 -157.5t-251.5 -82.5
q-46 -146 -103 -199q25 3 69 3zM414 561q-62 0 -115 -63t-76 -163q100 7 175 60t75 111q0 23 -17 39t-42 16zM840 141q2 -18 2 -29q-53 -13 -96 -30q-37 -178 -96 -269t-150 -91q-45 0 -70.5 27t-25.5 74q0 85 74 154.5t215 119.5q45 171 108 336q19 50 21 60l50 -16
q-28 -62 -68.5 -183t-48.5 -176zM689 58q-125 -62 -158 -98q-43 -47 -43 -98q0 -22 13 -35t35 -13q45 0 86.5 68.5t66.5 175.5zM936.5 575q-10.5 -19 -34 -19t-40 13t-16.5 36.5t16 42t36.5 18.5t34.5 -14.5t14 -36t-10.5 -40.5z" />
    <glyph glyph-name="uni01C9" unicode="&#x1c9;" horiz-adv-x="516" 
d="M166 96l21 -17q-34 -53 -58.5 -76.5t-54.5 -23.5t-49 24t-19 60q0 70 92 301.5t189 407.5l44 -24q-98 -190 -177 -377.5t-79 -269.5q0 -47 35 -47q28 0 56 42zM574 141q2 -18 2 -29q-53 -13 -96 -30q-37 -178 -96 -269t-150 -91q-45 0 -70.5 27t-25.5 74q0 85 74 154.5
t215 119.5q45 171 108 336q19 50 21 60l50 -16q-28 -62 -68.5 -183t-48.5 -176zM423 58q-125 -62 -158 -98q-43 -47 -43 -98q0 -22 13 -35t35 -13q45 0 86.5 68.5t66.5 175.5zM670.5 575q-10.5 -19 -34 -19t-40 13t-16.5 36.5t16 42t36.5 18.5t34.5 -14.5t14 -36
t-10.5 -40.5z" />
    <glyph glyph-name="uni01CA" unicode="&#x1ca;" horiz-adv-x="1033" 
d="M676 611l58 -7q-18 -78 -48.5 -182.5t-55.5 -169t-54.5 -128t-62.5 -100t-64 -36.5t-45.5 23t-14.5 81.5t17 246t17.5 204t-8.5 16.5q-11 0 -26 -30.5t-23 -46.5q-21 -47 -27 -66q-56 -126 -100 -208t-101 -152q-20 -24 -57 -49t-69 -38l-22 59q83 35 150 121.5
t138.5 241.5t102.5 209q35 57 71 57q23 0 36 -16t13 -41.5t-17.5 -210.5t-17.5 -237t4.5 -67.5t15.5 -15.5q14 0 30 30q55 107 160 512zM1334 622q61 0 99.5 -7.5t38.5 -30.5q0 -20 -32 -39q-79 -48 -140.5 -155.5t-126.5 -317.5q59 0 89 -5l-6 -40q-28 5 -50 5t-49 -5
q-31 -85 -65.5 -138t-88.5 -99t-120 -76t-112.5 -30t-73.5 25.5t-27 67.5q0 64 60 127t158.5 106t207.5 54q2 4 31 95q46 150 103.5 238.5t138.5 146.5q-17 2 -45 2q-173 0 -284 -63t-111 -142q0 -51 30.5 -94.5t86.5 -89.5l-24 -33q-163 88 -163 222q0 78 66.5 142t175 99
t233.5 35zM925.5 -216q50.5 32 95 94t62.5 142q-130 -13 -220.5 -74.5t-90.5 -137.5q0 -26 15 -41t42 -15q46 0 96.5 32z" />
    <glyph glyph-name="uni01CB" unicode="&#x1cb;" horiz-adv-x="1018" 
d="M676 611l58 -7q-18 -78 -48.5 -182.5t-55.5 -169t-54.5 -128t-62.5 -100t-64 -36.5t-45.5 23t-14.5 81.5t17 246t17.5 204t-8.5 16.5q-11 0 -26 -30.5t-23 -46.5q-21 -47 -27 -66q-56 -126 -100 -208t-101 -152q-20 -24 -57 -49t-69 -38l-22 59q83 35 150 121.5
t138.5 241.5t102.5 209q35 57 71 57q23 0 36 -16t13 -41.5t-17.5 -210.5t-17.5 -237t4.5 -67.5t15.5 -15.5q14 0 30 30q55 107 160 512zM1076 141q2 -18 2 -29q-53 -13 -96 -30q-37 -178 -96 -269t-150 -91q-45 0 -70.5 27t-25.5 74q0 85 74 154.5t215 119.5q45 171 108 336
q19 50 21 60l50 -16q-28 -62 -68.5 -183t-48.5 -176zM925 58q-125 -62 -158 -98q-43 -47 -43 -98q0 -22 13 -35t35 -13q45 0 86.5 68.5t66.5 175.5zM1172.5 575q-10.5 -19 -34 -19t-40 13t-16.5 36.5t16 42t36.5 18.5t34.5 -14.5t14 -36t-10.5 -40.5z" />
    <glyph glyph-name="uni01CC" unicode="&#x1cc;" horiz-adv-x="875" 
d="M429 121l21 -16q-22 -44 -60.5 -74t-69.5 -30t-49 18t-18 45t34.5 94.5t34.5 99.5q0 14 -11.5 25.5t-27.5 11.5q-51 0 -103 -77.5t-116 -223.5l-60 21q19 116 54.5 226.5t65.5 158.5l41 -13q-28 -71 -71 -245q138 236 254 236q25 0 41.5 -17t16.5 -40t-6 -41.5t-37.5 -86
t-31.5 -84.5t10 -26.5t19 -9.5t15 3t13.5 9t13.5 11t14.5 13.5t12.5 11.5zM934 141q2 -18 2 -29q-53 -13 -96 -30q-37 -178 -96 -269t-150 -91q-45 0 -70.5 27t-25.5 74q0 85 74 154.5t215 119.5q45 171 108 336q19 50 21 60l50 -16q-28 -62 -68.5 -183t-48.5 -176zM783 58
q-125 -62 -158 -98q-43 -47 -43 -98q0 -22 13 -35t35 -13q45 0 86.5 68.5t66.5 175.5zM1030.5 575q-10.5 -19 -34 -19t-40 13t-16.5 36.5t16 42t36.5 18.5t34.5 -14.5t14 -36t-10.5 -40.5z" />
    <glyph glyph-name="uni01CD" unicode="&#x1cd;" horiz-adv-x="639" 
d="M160 565l-147 114l44 24q55 -42 99 -70q18 13 103 64l30 -24q-15 -17 -102 -86zM746 298l-5 -60q-23 2 -49.5 2t-44.5 -1q-14 -110 -18 -239h-70q-6 26 -6 69t2.5 74.5t6.5 62.5t4 36q-14 1 -66 1t-72 -2q-116 -156 -214 -236.5t-196 -80.5q-48 0 -80.5 29t-32.5 77
q0 91 138.5 166t358.5 101q26 40 97 123.5t140 145.5q30 70 47.5 97.5t34.5 27.5t28 -13t11 -33.5t-22.5 -60t-46.5 -122t-33 -155.5q52 0 88 -9zM236 89q83 79 125 150q-168 -10 -259.5 -63t-91.5 -113q0 -26 17.5 -41t46.5 -15q78 0 162 82zM578 307q7 34 18.5 85.5
t13.5 60.5q-48 -46 -67 -67.5t-67 -82.5q17 1 41.5 1.5t40.5 1.5t20 1z" />
    <glyph glyph-name="uni01CE" unicode="&#x1ce;" horiz-adv-x="561" 
d="M122 387l-147 114l44 24q55 -42 99 -70q18 13 103 64l30 -24q-15 -17 -102 -86zM439 101l23 -17q-14 -30 -51.5 -57t-68.5 -27q-59 0 -59 62q0 29 15 69l-37 -38q-54 -55 -93.5 -74t-77.5 -19t-57.5 21.5t-19.5 59.5q0 70 54 138.5t138 111.5t168 44l2 -33l-42 -9
q-91 -20 -160.5 -80t-69.5 -119.5t48 -59.5q45 0 111 63t110 148l42 -25q-62 -125 -62 -159q0 -14 9.5 -23.5t19 -9.5t12.5 1t6 2.5t7.5 4.5t8 6t11.5 9t13 10z" />
    <glyph glyph-name="uni01CF" unicode="&#x1cf;" horiz-adv-x="338" 
d="M12 565l-147 114l44 24q55 -42 99 -70q18 13 103 64l30 -24q-15 -17 -102 -86zM589 616q17 -5 17 -18q0 -4 -12 -18q-46 -59 -64.5 -88t-44 -97t-46 -130.5t-20.5 -63.5q-41 -92 -113 -145t-151 -53q-56 0 -90.5 27.5t-34.5 73.5q0 72 93 132t186 60l4 -33
q-74 -15 -127.5 -55t-53.5 -87q0 -30 17.5 -49t44.5 -19q51 0 88 47.5t75.5 168.5t70 177t79.5 94q-14 1 -31 1q-86 0 -167.5 -27t-81.5 -72q0 -28 25 -53l-22 -27q-67 47 -67 109q0 41 35.5 71t95.5 46q115 31 258 31q31 0 37 -3z" />
    <glyph glyph-name="uni01D0" unicode="&#x1d0;" horiz-adv-x="257" 
d="M-30 387l-147 114l44 24q55 -42 99 -70q18 13 103 64l30 -24q-15 -17 -102 -86zM211 129l20 -17q-24 -46 -63.5 -78.5t-71.5 -32.5q-56 0 -56 78q0 97 80 253q18 34 21 40l43 -26q-21 -38 -51.5 -121t-30.5 -106.5t10 -33.5t24 -10q27 0 75 54z" />
    <glyph glyph-name="uni01D1" unicode="&#x1d1;" horiz-adv-x="780" 
d="M231 565l-147 114l44 24q55 -42 99 -70q18 13 103 64l30 -24q-15 -17 -102 -86zM704 492v-48q-45 -26 -166 -71q-54 -135 -171 -251t-214 -116q-55 0 -89 39t-34 107.5t46 165t121 181t153 124.5q32 21 100 21q51 0 83.5 -39.5t32.5 -93t-8 -80.5q76 25 146 61zM307 527
q-33 -34 -33 -65.5t32 -50t80.5 -18.5t84.5 9q6 30 6 58q0 99 -85 99q-39 0 -85 -32zM320 149q98 97 137 202q-25 -5 -64 -5q-168 0 -190 75q-84 -117 -84 -230q0 -45 21.5 -72t63.5 -27q59 0 116 57z" />
    <glyph glyph-name="uni01D2" unicode="&#x1d2;" horiz-adv-x="604" 
d="M143 387l-147 114l44 24q55 -42 99 -70q18 13 103 64l30 -24q-15 -17 -102 -86zM295 297q26 -43 26 -95q0 -81 -56 -144.5t-132 -63.5q-58 0 -90.5 33.5t-32.5 92.5q0 95 74 170.5t166 75.5q17 0 24 -1l3 -33q-80 0 -133 -46t-53 -118q0 -43 21 -69.5t61.5 -26.5t64.5 36
t24 84.5t-19 88.5z" />
    <glyph glyph-name="uni01D3" unicode="&#x1d3;" horiz-adv-x="730" 
d="M206 565l-147 114l44 24q55 -42 99 -70q18 13 103 64l30 -24q-15 -17 -102 -86zM563 78l32 -26q-12 -34 -41 -62.5t-63 -28.5q-46 0 -75 45t-38 130q-46 -50 -115 -94.5t-121 -44.5t-82 35t-30 90q0 125 122 297t247 245l27 -38q-114 -85 -209 -224t-95 -244
q0 -39 18.5 -60.5t52 -21.5t93.5 39t90 73q5 97 46.5 197t99 163.5t107.5 63.5q42 0 42 -51t-75 -170.5t-149 -189.5q-2 -16 -2 -26q0 -44 17.5 -91.5t46.5 -47.5q25 0 54 42zM578 518q-33 0 -73 -77.5t-51 -164.5q62 74 99.5 136.5t37.5 90.5q0 15 -13 15z" />
    <glyph glyph-name="uni01D4" unicode="&#x1d4;" horiz-adv-x="618" 
d="M150 387l-147 114l44 24q55 -42 99 -70q18 13 103 64l30 -24q-15 -17 -102 -86zM411 110l21 -17q-17 -42 -53.5 -71t-66 -29t-46.5 20.5t-17 53.5t11 85q-47 -74 -101 -116t-91 -42q-56 0 -56 80q0 68 46 174t67 123l48 -21q-41 -66 -62 -130t-21 -85.5t13.5 -34.5
t31.5 -13q40 0 99.5 73.5t121.5 219.5l51 -23q-2 -8 -45.5 -116t-43.5 -129.5t9.5 -32.5t19 -11t14.5 1t10 4t8.5 5t8.5 7l8 7q2 3 7.5 9.5t7.5 8.5z" />
    <glyph glyph-name="uni01D5" unicode="&#x1d5;" horiz-adv-x="730" 
d="M508 815q0 -23 -12.5 -36t-34.5 -13t-34.5 13t-12.5 36q0 26 14 38t33 12q20 0 33.5 -12t13.5 -38zM320 815q0 -26 -13.5 -37.5t-32.5 -11.5q-22 0 -34.5 13t-12.5 36q0 26 14 38t33 12t32.5 -12t13.5 -38zM219 1001h297v-71h-297v71zM563 78l32 -26q-12 -34 -41 -62.5
t-63 -28.5q-46 0 -75 45t-38 130q-46 -50 -115 -94.5t-121 -44.5t-82 35t-30 90q0 125 122 297t247 245l27 -38q-114 -85 -209 -224t-95 -244q0 -39 18.5 -60.5t52 -21.5t93.5 39t90 73q5 97 46.5 197t99 163.5t107.5 63.5q42 0 42 -51t-75 -170.5t-149 -189.5
q-2 -16 -2 -26q0 -44 17.5 -91.5t46.5 -47.5q25 0 54 42zM578 518q-33 0 -73 -77.5t-51 -164.5q62 74 99.5 136.5t37.5 90.5q0 15 -13 15z" />
    <glyph glyph-name="uni01D6" unicode="&#x1d6;" horiz-adv-x="618" 
d="M447 650q0 -23 -12.5 -36t-34.5 -13t-34.5 13t-12.5 36q0 26 14 38t33 12q20 0 33.5 -12t13.5 -38zM259 650q0 -26 -13.5 -37.5t-32.5 -11.5q-22 0 -34.5 13t-12.5 36q0 26 14 38t33 12t32.5 -12t13.5 -38zM158 836h297v-71h-297v71zM411 110l21 -17q-17 -42 -53.5 -71
t-66 -29t-46.5 20.5t-17 53.5t11 85q-47 -74 -101 -116t-91 -42q-56 0 -56 80q0 68 46 174t67 123l48 -21q-41 -66 -62 -130t-21 -85.5t13.5 -34.5t31.5 -13q40 0 99.5 73.5t121.5 219.5l51 -23q-2 -8 -45.5 -116t-43.5 -129.5t9.5 -32.5t19 -11t14.5 1t10 4t8.5 5t8.5 7
l8 7q2 3 7.5 9.5t7.5 8.5z" />
    <glyph glyph-name="uni01D7" unicode="&#x1d7;" horiz-adv-x="730" 
d="M499 815q0 -23 -12.5 -36t-34.5 -13t-34.5 13t-12.5 36q0 26 14 38t33 12q20 0 33.5 -12t13.5 -38zM311 815q0 -26 -13.5 -37.5t-32.5 -11.5q-22 0 -34.5 13t-12.5 36q0 26 14 38t33 12t32.5 -12t13.5 -38zM305 903q73 84 96 133h105v-10q-28 -43 -142 -135h-59v12z
M563 78l32 -26q-12 -34 -41 -62.5t-63 -28.5q-46 0 -75 45t-38 130q-46 -50 -115 -94.5t-121 -44.5t-82 35t-30 90q0 125 122 297t247 245l27 -38q-114 -85 -209 -224t-95 -244q0 -39 18.5 -60.5t52 -21.5t93.5 39t90 73q5 97 46.5 197t99 163.5t107.5 63.5q42 0 42 -51
t-75 -170.5t-149 -189.5q-2 -16 -2 -26q0 -44 17.5 -91.5t46.5 -47.5q25 0 54 42zM578 518q-33 0 -73 -77.5t-51 -164.5q62 74 99.5 136.5t37.5 90.5q0 15 -13 15z" />
    <glyph glyph-name="uni01D8" unicode="&#x1d8;" horiz-adv-x="618" 
d="M446 650q0 -23 -12.5 -36t-34.5 -13t-34.5 13t-12.5 36q0 26 14 38t33 12q20 0 33.5 -12t13.5 -38zM258 650q0 -26 -13.5 -37.5t-32.5 -11.5q-22 0 -34.5 13t-12.5 36q0 26 14 38t33 12t32.5 -12t13.5 -38zM252 738q73 84 96 133h105v-10q-28 -43 -142 -135h-59v12z
M411 110l21 -17q-17 -42 -53.5 -71t-66 -29t-46.5 20.5t-17 53.5t11 85q-47 -74 -101 -116t-91 -42q-56 0 -56 80q0 68 46 174t67 123l48 -21q-41 -66 -62 -130t-21 -85.5t13.5 -34.5t31.5 -13q40 0 99.5 73.5t121.5 219.5l51 -23q-2 -8 -45.5 -116t-43.5 -129.5t9.5 -32.5
t19 -11t14.5 1t10 4t8.5 5t8.5 7l8 7q2 3 7.5 9.5t7.5 8.5z" />
    <glyph glyph-name="uni01D9" unicode="&#x1d9;" horiz-adv-x="730" 
d="M504 815q0 -23 -12.5 -36t-34.5 -13t-34.5 13t-12.5 36q0 26 14 38t33 12q20 0 33.5 -12t13.5 -38zM316 815q0 -26 -13.5 -37.5t-32.5 -11.5q-22 0 -34.5 13t-12.5 36q0 26 14 38t33 12t32.5 -12t13.5 -38zM195 1046h60q26 -17 54 -36t53 -46q27 27 55 46t54 36h62v-13
l-32 -31q-73 -69 -93 -106h-90q-21 36 -92 106l-31 31v13zM563 78l32 -26q-12 -34 -41 -62.5t-63 -28.5q-46 0 -75 45t-38 130q-46 -50 -115 -94.5t-121 -44.5t-82 35t-30 90q0 125 122 297t247 245l27 -38q-114 -85 -209 -224t-95 -244q0 -39 18.5 -60.5t52 -21.5t93.5 39
t90 73q5 97 46.5 197t99 163.5t107.5 63.5q42 0 42 -51t-75 -170.5t-149 -189.5q-2 -16 -2 -26q0 -44 17.5 -91.5t46.5 -47.5q25 0 54 42zM578 518q-33 0 -73 -77.5t-51 -164.5q62 74 99.5 136.5t37.5 90.5q0 15 -13 15z" />
    <glyph glyph-name="uni01DA" unicode="&#x1da;" horiz-adv-x="618" 
d="M444 650q0 -23 -12.5 -36t-34.5 -13t-34.5 13t-12.5 36q0 26 14 38t33 12q20 0 33.5 -12t13.5 -38zM256 650q0 -26 -13.5 -37.5t-32.5 -11.5q-22 0 -34.5 13t-12.5 36q0 26 14 38t33 12t32.5 -12t13.5 -38zM135 881h60q26 -17 54 -36t53 -46q27 27 55 46t54 36h62v-13
l-32 -31q-73 -69 -93 -106h-90q-21 36 -92 106l-31 31v13zM411 110l21 -17q-17 -42 -53.5 -71t-66 -29t-46.5 20.5t-17 53.5t11 85q-47 -74 -101 -116t-91 -42q-56 0 -56 80q0 68 46 174t67 123l48 -21q-41 -66 -62 -130t-21 -85.5t13.5 -34.5t31.5 -13q40 0 99.5 73.5
t121.5 219.5l51 -23q-2 -8 -45.5 -116t-43.5 -129.5t9.5 -32.5t19 -11t14.5 1t10 4t8.5 5t8.5 7l8 7q2 3 7.5 9.5t7.5 8.5z" />
    <glyph glyph-name="uni01DB" unicode="&#x1db;" horiz-adv-x="730" 
d="M500 815q0 -23 -12.5 -36t-34.5 -13t-34.5 13t-12.5 36q0 26 14 38t33 12q20 0 33.5 -12t13.5 -38zM312 815q0 -26 -13.5 -37.5t-32.5 -11.5q-22 0 -34.5 13t-12.5 36q0 26 14 38t33 12t32.5 -12t13.5 -38zM414 891h-59q-114 91 -142 135v10h105q23 -49 96 -133v-12z
M563 78l32 -26q-12 -34 -41 -62.5t-63 -28.5q-46 0 -75 45t-38 130q-46 -50 -115 -94.5t-121 -44.5t-82 35t-30 90q0 125 122 297t247 245l27 -38q-114 -85 -209 -224t-95 -244q0 -39 18.5 -60.5t52 -21.5t93.5 39t90 73q5 97 46.5 197t99 163.5t107.5 63.5q42 0 42 -51
t-75 -170.5t-149 -189.5q-2 -16 -2 -26q0 -44 17.5 -91.5t46.5 -47.5q25 0 54 42zM578 518q-33 0 -73 -77.5t-51 -164.5q62 74 99.5 136.5t37.5 90.5q0 15 -13 15z" />
    <glyph glyph-name="uni01DC" unicode="&#x1dc;" horiz-adv-x="618" 
d="M447 650q0 -23 -12.5 -36t-34.5 -13t-34.5 13t-12.5 36q0 26 14 38t33 12q20 0 33.5 -12t13.5 -38zM259 650q0 -26 -13.5 -37.5t-32.5 -11.5q-22 0 -34.5 13t-12.5 36q0 26 14 38t33 12t32.5 -12t13.5 -38zM361 726h-59q-114 91 -142 135v10h105q23 -49 96 -133v-12z
M411 110l21 -17q-17 -42 -53.5 -71t-66 -29t-46.5 20.5t-17 53.5t11 85q-47 -74 -101 -116t-91 -42q-56 0 -56 80q0 68 46 174t67 123l48 -21q-41 -66 -62 -130t-21 -85.5t13.5 -34.5t31.5 -13q40 0 99.5 73.5t121.5 219.5l51 -23q-2 -8 -45.5 -116t-43.5 -129.5t9.5 -32.5
t19 -11t14.5 1t10 4t8.5 5t8.5 7l8 7q2 3 7.5 9.5t7.5 8.5z" />
    <glyph glyph-name="uni01DD" unicode="&#x1dd;" horiz-adv-x="563" 
d="M251 546q121 0 189.5 -73t68.5 -201q0 -129 -64 -205.5t-173 -76.5q-101 0 -161 65.5t-60 176.5v53h367q-2 91 -46 138.5t-125 47.5q-43 0 -81.5 -7.5t-90.5 -29.5v77q44 19 83.5 27t92.5 8zM273 62q63 0 99.5 40.5t43.5 112.5h-273q1 -74 34.5 -113.5t95.5 -39.5z" />
    <glyph glyph-name="uni01DE" unicode="&#x1de;" horiz-adv-x="639" 
d="M460 815q0 -23 -12.5 -36t-34.5 -13t-34.5 13t-12.5 36q0 26 14 38t33 12q20 0 33.5 -12t13.5 -38zM272 815q0 -26 -13.5 -37.5t-32.5 -11.5q-22 0 -34.5 13t-12.5 36q0 26 14 38t33 12t32.5 -12t13.5 -38zM171 1001h297v-71h-297v71zM746 298l-5 -60q-23 2 -49.5 2
t-44.5 -1q-14 -110 -18 -239h-70q-6 26 -6 69t2.5 74.5t6.5 62.5t4 36q-14 1 -66 1t-72 -2q-116 -156 -214 -236.5t-196 -80.5q-48 0 -80.5 29t-32.5 77q0 91 138.5 166t358.5 101q26 40 97 123.5t140 145.5q30 70 47.5 97.5t34.5 27.5t28 -13t11 -33.5t-22.5 -60
t-46.5 -122t-33 -155.5q52 0 88 -9zM236 89q83 79 125 150q-168 -10 -259.5 -63t-91.5 -113q0 -26 17.5 -41t46.5 -15q78 0 162 82zM578 307q7 34 18.5 85.5t13.5 60.5q-48 -46 -67 -67.5t-67 -82.5q17 1 41.5 1.5t40.5 1.5t20 1z" />
    <glyph glyph-name="uni01DF" unicode="&#x1df;" horiz-adv-x="561" 
d="M426 650q0 -23 -12.5 -36t-34.5 -13t-34.5 13t-12.5 36q0 26 14 38t33 12q20 0 33.5 -12t13.5 -38zM238 650q0 -26 -13.5 -37.5t-32.5 -11.5q-22 0 -34.5 13t-12.5 36q0 26 14 38t33 12t32.5 -12t13.5 -38zM137 836h297v-71h-297v71zM439 101l23 -17q-14 -30 -51.5 -57
t-68.5 -27q-59 0 -59 62q0 29 15 69l-37 -38q-54 -55 -93.5 -74t-77.5 -19t-57.5 21.5t-19.5 59.5q0 70 54 138.5t138 111.5t168 44l2 -33l-42 -9q-91 -20 -160.5 -80t-69.5 -119.5t48 -59.5q45 0 111 63t110 148l42 -25q-62 -125 -62 -159q0 -14 9.5 -23.5t19 -9.5t12.5 1
t6 2.5t7.5 4.5t8 6t11.5 9t13 10z" />
    <glyph glyph-name="uni01E0" unicode="&#x1e0;" horiz-adv-x="639" 
d="M269 826q0 29 15 42.5t37 13.5q23 0 37 -15t14 -41t-14.5 -41t-36.5 -15t-37 13.5t-15 42.5zM171 1001h297v-71h-297v71zM746 298l-5 -60q-23 2 -49.5 2t-44.5 -1q-14 -110 -18 -239h-70q-6 26 -6 69t2.5 74.5t6.5 62.5t4 36q-14 1 -66 1t-72 -2q-116 -156 -214 -236.5
t-196 -80.5q-48 0 -80.5 29t-32.5 77q0 91 138.5 166t358.5 101q26 40 97 123.5t140 145.5q30 70 47.5 97.5t34.5 27.5t28 -13t11 -33.5t-22.5 -60t-46.5 -122t-33 -155.5q52 0 88 -9zM236 89q83 79 125 150q-168 -10 -259.5 -63t-91.5 -113q0 -26 17.5 -41t46.5 -15
q78 0 162 82zM578 307q7 34 18.5 85.5t13.5 60.5q-48 -46 -67 -67.5t-67 -82.5q17 1 41.5 1.5t40.5 1.5t20 1z" />
    <glyph glyph-name="uni01E1" unicode="&#x1e1;" horiz-adv-x="561" 
d="M235 662q0 29 15 42.5t37 13.5q23 0 37 -15t14 -41t-14.5 -41t-36.5 -15t-37 13.5t-15 42.5zM137 837h297v-71h-297v71zM439 101l23 -17q-14 -30 -51.5 -57t-68.5 -27q-59 0 -59 62q0 29 15 69l-37 -38q-54 -55 -93.5 -74t-77.5 -19t-57.5 21.5t-19.5 59.5q0 70 54 138.5
t138 111.5t168 44l2 -33l-42 -9q-91 -20 -160.5 -80t-69.5 -119.5t48 -59.5q45 0 111 63t110 148l42 -25q-62 -125 -62 -159q0 -14 9.5 -23.5t19 -9.5t12.5 1t6 2.5t7.5 4.5t8 6t11.5 9t13 10z" />
    <glyph glyph-name="uni01E2" unicode="&#x1e2;" horiz-adv-x="880" 
d="M347 842h297v-71h-297v71zM1178 575q0 -50 -47.5 -89t-109 -57t-118.5 -18q-15 0 -22 1v34q2 0 58 9.5t94.5 33.5t38.5 54q0 36 -54 36q-73 0 -138 -50t-65 -105t68 -71q15 -4 20 -8t5 -14t-9.5 -16.5t-43.5 -18.5q-184 -63 -184 -196q0 -27 10 -46q61 78 158 127t187 49
q47 0 75 -20.5t28 -56.5q0 -56 -52 -112t-134.5 -91.5t-164.5 -35.5t-128 30q-1 -1 -8 -16q-21 -39 -35 -55l-33 14q7 28 41 85q-54 40 -54 144q0 51 15 126q-14 1 -66 1t-72 -2q-116 -156 -214 -236.5t-196 -80.5q-48 0 -80.5 29t-32.5 77q0 91 138.5 166t358.5 101
q26 40 97 123.5t140 145.5q30 70 47.5 97.5t34.5 27.5t28 -13t11 -33.5t-19 -53.5q-59 -104 -93 -345q46 37 110 62q-47 39 -47 81q0 57 60 116.5t146.5 96.5t162.5 37q40 0 64 -17.5t24 -46.5zM246 89q83 79 125 150q-168 -10 -259.5 -63t-91.5 -113q0 -26 17.5 -41
t46.5 -15q78 0 162 82zM968 170q-59 0 -137.5 -45t-127.5 -107q40 -45 113.5 -45t144 47.5t70.5 102.5q0 22 -17 34.5t-46 12.5zM588 307q7 34 18.5 85.5t13.5 60.5q-48 -46 -67 -67.5t-67 -82.5q17 1 41.5 1.5t40.5 1.5t20 1z" />
    <glyph glyph-name="uni01E3" unicode="&#x1e3;" horiz-adv-x="863" 
d="M283 677h297v-71h-297v71zM677 118l23 -18q-31 -43 -85 -71.5t-108.5 -28.5t-86.5 38q-45 -38 -83 -38q-59 0 -59 62q0 29 15 69l-37 -38q-54 -55 -93.5 -74t-77.5 -19t-57.5 21.5t-19.5 59.5q0 70 54 138.5t138 111.5t168 44l2 -33l-42 -9q-91 -20 -160.5 -80
t-69.5 -119.5t48 -59.5q45 0 111 63t110 148l42 -25q-62 -125 -62 -159q0 -14 9.5 -23.5t21.5 -9.5t23 7q-4 15 -4 34q0 92 97.5 181t197.5 89q66 0 66 -52q0 -54 -69.5 -109t-195.5 -100q9 -23 28 -36t39 -13q44 0 117 49zM488 148q81 28 139 70t58 77q0 13 -9.5 23
t-23.5 10q-47 0 -101.5 -58.5t-62.5 -121.5z" />
    <glyph glyph-name="uni01E4" unicode="&#x1e4;" horiz-adv-x="728" 
d="M407 377h247v-150h64v-71h-64v-129q-57 -18 -115.5 -27.5t-135.5 -9.5q-163 0 -252.5 97t-89.5 270q0 112 44.5 195.5t128 127.5t197.5 44t213 -42l-34 -78q-94 41 -184 41q-127 0 -199 -77t-72 -211q0 -142 68.5 -215.5t200.5 -73.5q72 0 140 17v71h-147v71h147v70h-157
v80z" />
    <glyph glyph-name="uni01E5" unicode="&#x1e5;" horiz-adv-x="615" 
d="M443 15l3 66h-4q-54 -81 -166 -81q-105 0 -163 71t-58 201q0 128 58 201t162 73q109 0 168 -81h5l12 71h70v-545q0 -20 -2 -37h57v-71h-72q-47 -123 -223 -123q-117 0 -193 34v81q78 -42 198 -42q77 0 117 50h-149v71h178l2 30v31zM289 72q83 0 119 42.5t36 136.5v16
q0 107 -37 156t-120 49q-68 0 -104.5 -50.5t-36.5 -150.5q0 -199 143 -199z" />
    <glyph glyph-name="Gcaron" unicode="&#x1e6;" horiz-adv-x="728" 
d="M258 552l-147 114l44 24q55 -42 99 -70q18 13 103 64l30 -24q-15 -17 -102 -86zM525 -8l-15 -34q-98 17 -113 18q-49 -133 -140 -210t-204 -77q-61 0 -102 33t-41 82q0 86 118.5 151t287.5 65q23 0 35 -1q18 38 29 81q-64 -43 -136.5 -43t-121 51.5t-48.5 136t56.5 178
t149 154.5t188.5 61q56 0 106 -19.5t75 -46.5l-54 -65q-41 32 -58 43q-44 30 -94 30q-103 0 -191 -99.5t-88 -216.5q0 -64 36 -101t94.5 -37t105.5 28q58 153 108 153q29 0 29 -28t-21.5 -64.5t-55.5 -65.5q-41 -110 -48 -132q70 -8 113 -25zM102 -243q68 0 134.5 63
t100.5 158q-135 0 -228.5 -45.5t-93.5 -110.5q0 -30 23.5 -47.5t63.5 -17.5z" />
    <glyph glyph-name="gcaron" unicode="&#x1e7;" horiz-adv-x="615" 
d="M148 387l-147 114l44 24q55 -42 99 -70q18 13 103 64l30 -24q-15 -17 -102 -86zM441 36l1 -24q-10 -6 -91 -36q-32 -191 -94 -276t-152 -85q-42 0 -67 27t-25 70q0 86 79 160.5t211 117.5q15 67 54 189q-67 -102 -121.5 -138t-98.5 -36t-66.5 24t-22.5 64q0 66 55 134.5
t138.5 112t161.5 43.5l8 -35q-111 -12 -190.5 -78t-79.5 -127q0 -26 16 -43t39 -17q34 0 103 72t97 123l37 -21q-55 -147 -76 -248zM297 -40q-87 -40 -144 -96t-57 -102q0 -24 14 -39t35 -15q42 0 83 59t69 193z" />
    <glyph glyph-name="uni01E8" unicode="&#x1e8;" horiz-adv-x="619" 
d="M174 552l-147 114l44 24q55 -42 99 -70q18 13 103 64l30 -24q-15 -17 -102 -86zM824 600l63 -31q-64 -104 -151.5 -185t-232.5 -161q28 -145 69 -232.5t107 -97.5v-46q-8 -1 -21 -1q-67 0 -129.5 93t-112.5 275q-43 -135 -131 -213.5t-183 -78.5q-49 0 -80.5 26.5
t-31.5 73t42 96.5t115 84l23 -36q-90 -64 -90 -120q0 -27 18 -43.5t47 -16.5q68 0 117.5 57.5t88.5 201.5q49 181 100 237q23 26 67 57q-69 -2 -141 -23.5t-126 -64t-54 -94.5q0 -67 61 -107l-20 -31q-56 27 -88 70t-32 89q0 63 69 119t169.5 87t197.5 31q60 0 60 -26
q0 -17 -35 -43q-64 -48 -98.5 -125t-56.5 -180q114 42 218.5 139.5t181.5 219.5z" />
    <glyph glyph-name="uni01E9" unicode="&#x1e9;" horiz-adv-x="534" 
d="M138 572l-147 114l44 24q55 -42 99 -70q18 13 103 64l30 -24q-15 -17 -102 -86zM414 102l25 -22q-58 -95 -123 -95q-40 0 -82 59t-42 97q0 24 72 48q27 9 49.5 27.5t22.5 38.5t-11 30.5t-28 10.5q-110 -10 -230 -296l-61 21q0 43 116.5 348t165.5 369l49 -18
q-135 -235 -226 -546q78 117 134 156t107 39q31 0 49.5 -19t18.5 -48.5t-14.5 -53.5t-41.5 -42q-39 -26 -96 -51q9 -47 31 -71t50 -24q15 0 65 42z" />
    <glyph glyph-name="uni01EA" unicode="&#x1ea;" horiz-adv-x="780" 
d="M516 -79l20 -16q-30 -40 -82.5 -71t-84 -31t-48 13.5t-16.5 32.5q0 47 40.5 103.5t76.5 79.5l45 -5q-27 -20 -51.5 -63t-24.5 -56q0 -28 33 -28t92 41zM704 492v-48q-45 -26 -166 -71q-54 -135 -171 -251t-214 -116q-55 0 -89 39t-34 107.5t46 165t121 181t153 124.5
q32 21 100 21q51 0 83.5 -39.5t32.5 -93t-8 -80.5q76 25 146 61zM307 527q-33 -34 -33 -65.5t32 -50t80.5 -18.5t84.5 9q6 30 6 58q0 99 -85 99q-39 0 -85 -32zM320 149q98 97 137 202q-25 -5 -64 -5q-168 0 -190 75q-84 -117 -84 -230q0 -45 21.5 -72t63.5 -27q59 0 116 57
z" />
    <glyph glyph-name="uni01EB" unicode="&#x1eb;" horiz-adv-x="604" 
d="M418 -79l20 -16q-30 -40 -82.5 -71t-84 -31t-48 13.5t-16.5 32.5q0 47 40.5 103.5t76.5 79.5l45 -5q-27 -20 -51.5 -63t-24.5 -56q0 -28 33 -28t92 41zM295 297q26 -43 26 -95q0 -81 -56 -144.5t-132 -63.5q-58 0 -90.5 33.5t-32.5 92.5q0 95 74 170.5t166 75.5
q17 0 24 -1l3 -33q-80 0 -133 -46t-53 -118q0 -43 21 -69.5t61.5 -26.5t64.5 36t24 84.5t-19 88.5z" />
    <glyph glyph-name="uni01EC" unicode="&#x1ec;" horiz-adv-x="780" 
d="M516 -79l20 -16q-30 -40 -82.5 -71t-84 -31t-48 13.5t-16.5 32.5q0 47 40.5 103.5t76.5 79.5l45 -5q-27 -20 -51.5 -63t-24.5 -56q0 -28 33 -28t92 41zM242 842h297v-71h-297v71zM704 492v-48q-45 -26 -166 -71q-54 -135 -171 -251t-214 -116q-55 0 -89 39t-34 107.5
t46 165t121 181t153 124.5q32 21 100 21q51 0 83.5 -39.5t32.5 -93t-8 -80.5q76 25 146 61zM307 527q-33 -34 -33 -65.5t32 -50t80.5 -18.5t84.5 9q6 30 6 58q0 99 -85 99q-39 0 -85 -32zM320 149q98 97 137 202q-25 -5 -64 -5q-168 0 -190 75q-84 -117 -84 -230
q0 -45 21.5 -72t63.5 -27q59 0 116 57z" />
    <glyph glyph-name="uni01ED" unicode="&#x1ed;" horiz-adv-x="604" 
d="M418 -79l20 -16q-30 -40 -82.5 -71t-84 -31t-48 13.5t-16.5 32.5q0 47 40.5 103.5t76.5 79.5l45 -5q-27 -20 -51.5 -63t-24.5 -56q0 -28 33 -28t92 41zM154 677h297v-71h-297v71zM295 297q26 -43 26 -95q0 -81 -56 -144.5t-132 -63.5q-58 0 -90.5 33.5t-32.5 92.5
q0 95 74 170.5t166 75.5q17 0 24 -1l3 -33q-80 0 -133 -46t-53 -118q0 -43 21 -69.5t61.5 -26.5t64.5 36t24 84.5t-19 88.5z" />
    <glyph glyph-name="uni01EE" unicode="&#x1ee;" horiz-adv-x="583" 
d="M113 552l-147 114l44 24q55 -42 99 -70q18 13 103 64l30 -24q-15 -17 -102 -86zM291 440q68 -2 122.5 -30t85 -76.5t30.5 -112.5q0 -109 -76 -170t-212 -61q-126 0 -206 39v82q49 -23 104 -35t103 -12q97 0 145 41t48 117q0 69 -49.5 107t-143.5 38h-62v65l206 202h-331
v80h444v-71z" />
    <glyph glyph-name="uni01EF" unicode="&#x1ef;" horiz-adv-x="498" 
d="M218 228q115 -8 180.5 -68.5t65.5 -158.5q0 -70 -33 -125.5t-93.5 -85.5t-138.5 -30q-117 0 -185 35v80q89 -42 189 -42q79 0 126 45t47 121q0 77 -51 118t-151 41h-59v61l219 243h-306v74h409v-64zM68 387l-147 114l44 24q55 -42 99 -70q18 13 103 64l30 -24
q-15 -17 -102 -86z" />
    <glyph glyph-name="uni01F0" unicode="&#x1f0;" horiz-adv-x="257" 
d="M-30 387l-147 114l44 24q55 -42 99 -70q18 13 103 64l30 -24q-15 -17 -102 -86zM22 -240q-46 0 -77 12v71q34 -10 66 -10q38 0 56 21t18 63v619h88v-616q0 -80 -38.5 -120t-112.5 -40z" />
    <glyph glyph-name="uni01F1" unicode="&#x1f1;" horiz-adv-x="1291" 
d="M233 638q174 0 297.5 -103t123.5 -241t-84 -218t-213 -78q-69 1 -110 1h-47q-29 0 -29 22q0 8 17 41q56 112 85 229q-103 0 -193 57t-90 129.5t68 116.5t175 44zM229 597q-66 0 -104 -28t-38 -82.5t52.5 -97t140.5 -53.5q31 131 36 169l60 -6q0 -62 -26 -164q8 0 93 10
l5 -33q-20 -7 -111 -21q-39 -126 -81 -218q100 -8 166.5 -8t105.5 49.5t39 133.5q0 145 -99 247t-239 102zM943 479l5 -45q0 -8 -5.5 -14.5t-12.5 -6.5q-19 0 -39 33t-20 62q0 63 74 85t208 22t164.5 -8.5t30.5 -47.5q0 -17 -16.5 -38t-65 -66t-165 -142t-177.5 -160
t-78 -88q42 -2 54 -2q135 0 195 15t60 52l-5 45q0 8 5.5 14.5t12.5 6.5q19 0 39 -33t20 -62q0 -63 -74 -85t-208 -22t-164.5 8.5t-30.5 47.5q0 27 77.5 101t196.5 174.5t162 142.5t66 76q-42 2 -54 2q-135 0 -195 -15t-60 -52z" />
    <glyph glyph-name="uni01F2" unicode="&#x1f2;" horiz-adv-x="1200" 
d="M233 638q174 0 297.5 -103t123.5 -241t-84 -218t-213 -78q-69 1 -110 1h-47q-29 0 -29 22q0 8 17 41q56 112 85 229q-103 0 -193 57t-90 129.5t68 116.5t175 44zM229 597q-66 0 -104 -28t-38 -82.5t52.5 -97t140.5 -53.5q31 131 36 169l60 -6q0 -62 -26 -164q8 0 93 10
l5 -33q-20 -7 -111 -21q-39 -126 -81 -218q100 -8 166.5 -8t105.5 49.5t39 133.5q0 145 -99 247t-239 102zM1085 74l-1 -42q-23 -1 -63 -2t-55.5 -1.5t-42.5 -2.5q-46 -3 -85 -12q-49 -11 -53 -11q-19 0 -38.5 23t-19.5 45q0 42 300 253q-13 1 -59.5 1t-161.5 -20l-6 34
q68 41 254 41q39 0 55.5 -6t16.5 -27q0 -23 -26 -42q-5 -4 -16.5 -11t-41.5 -28t-60.5 -43.5t-77.5 -67.5t-90 -99q138 22 186.5 22t84.5 -4z" />
    <glyph glyph-name="uni01F3" unicode="&#x1f3;" horiz-adv-x="1084" 
d="M574 739l51 -18l-14 -26q-110 -205 -187 -397q-51 -126 -51 -189q0 -16 8 -25.5t25.5 -9.5t40.5 23l18 -17q-13 -29 -45 -53.5t-62 -24.5q-58 0 -58 68q0 40 22 123q-118 -206 -231 -206q-39 0 -62 24t-23 65q0 65 52 135t128 114.5t142 44.5l3 -35q-86 -11 -160.5 -74.5
t-74.5 -129.5q0 -28 15 -44.5t39 -16.5q49 0 128 105q29 38 66.5 111t60 117.5t44 87t56.5 112t69 136.5zM970 74l-1 -42q-23 -1 -63 -2t-55.5 -1.5t-42.5 -2.5q-46 -3 -85 -12q-49 -11 -53 -11q-19 0 -38.5 23t-19.5 45q0 42 300 253q-13 1 -59.5 1t-161.5 -20l-6 34
q68 41 254 41q39 0 55.5 -6t16.5 -27q0 -23 -26 -42q-5 -4 -16.5 -11t-41.5 -28t-60.5 -43.5t-77.5 -67.5t-90 -99q138 22 186.5 22t84.5 -4z" />
    <glyph glyph-name="uni01F4" unicode="&#x1f4;" horiz-adv-x="728" 
d="M525 -8l-15 -34q-98 17 -113 18q-49 -133 -140 -210t-204 -77q-61 0 -102 33t-41 82q0 86 118.5 151t287.5 65q23 0 35 -1q18 38 29 81q-64 -43 -136.5 -43t-121 51.5t-48.5 136t56.5 178t149 154.5t188.5 61q56 0 106 -19.5t75 -46.5l-54 -65q-41 32 -58 43
q-44 30 -94 30q-103 0 -191 -99.5t-88 -216.5q0 -64 36 -101t94.5 -37t105.5 28q58 153 108 153q29 0 29 -28t-21.5 -64.5t-55.5 -65.5q-41 -110 -48 -132q70 -8 113 -25zM102 -243q68 0 134.5 63t100.5 158q-135 0 -228.5 -45.5t-93.5 -110.5q0 -30 23.5 -47.5t63.5 -17.5z
M366 615l-171 -56l-29 18l132 78z" />
    <glyph glyph-name="uni01F5" unicode="&#x1f5;" horiz-adv-x="615" 
d="M441 36l1 -24q-10 -6 -91 -36q-32 -191 -94 -276t-152 -85q-42 0 -67 27t-25 70q0 86 79 160.5t211 117.5q15 67 54 189q-67 -102 -121.5 -138t-98.5 -36t-66.5 24t-22.5 64q0 66 55 134.5t138.5 112t161.5 43.5l8 -35q-111 -12 -190.5 -78t-79.5 -127q0 -26 16 -43
t39 -17q34 0 103 72t97 123l37 -21q-55 -147 -76 -248zM297 -40q-87 -40 -144 -96t-57 -102q0 -24 14 -39t35 -15q42 0 83 59t69 193zM228 450l-171 -56l-29 18l132 78z" />
    <glyph glyph-name="uni01F6" unicode="&#x1f6;" horiz-adv-x="937" 
d="M187 333v-333h-90v714h90v-302h296v302h90v-550q0 -45 23 -70t70 -25q44 0 68 25t24 71v371h90v-371q0 -81 -49 -127.5t-136 -46.5q-85 0 -132.5 46t-47.5 129v167h-296z" />
    <glyph glyph-name="uni01F7" unicode="&#x1f7;" horiz-adv-x="661" 
d="M389 725q103 0 160 -64t57 -179q0 -161 -106.5 -284.5t-312.5 -207.5v-230h-90v955h71l15 -97h5q37 55 86.5 81t114.5 26zM187 74q161 67 245 171.5t84 235.5q0 81 -37 123.5t-106 42.5q-94 0 -140 -55.5t-46 -173.5v-344z" />
    <glyph glyph-name="uni01F8" unicode="&#x1f8;" horiz-adv-x="759" 
d="M676 611l58 -7q-18 -78 -48.5 -182.5t-55.5 -169t-54.5 -128t-62.5 -100t-64 -36.5t-45.5 23t-14.5 81.5t17 246t17.5 204t-8.5 16.5q-11 0 -26 -30.5t-23 -46.5q-21 -47 -27 -66q-56 -126 -100 -208t-101 -152q-20 -24 -57 -49t-69 -38l-22 59q83 35 150 121.5
t138.5 241.5t102.5 209q35 57 71 57q23 0 36 -16t13 -41.5t-17.5 -210.5t-17.5 -237t4.5 -67.5t15.5 -15.5q14 0 30 30q55 107 160 512zM213 559l-171 56l68 40l132 -78z" />
    <glyph glyph-name="uni01F9" unicode="&#x1f9;" horiz-adv-x="618" 
d="M429 121l21 -16q-22 -44 -60.5 -74t-69.5 -30t-49 18t-18 45t34.5 94.5t34.5 99.5q0 14 -11.5 25.5t-27.5 11.5q-51 0 -103 -77.5t-116 -223.5l-60 21q19 116 54.5 226.5t65.5 158.5l41 -13q-28 -71 -71 -245q138 236 254 236q25 0 41.5 -17t16.5 -40t-6 -41.5t-37.5 -86
t-31.5 -84.5t10 -26.5t19 -9.5t15 3t13.5 9t13.5 11t14.5 13.5t12.5 11.5zM152 394l-171 56l68 40l132 -78z" />
    <glyph glyph-name="Aringacute" unicode="&#x1fa;" horiz-adv-x="640" 
d="M430 699q0 -32 -13 -54.5t-35 -35.5l258 -609h-93l-82 192h-295l-78 -192h-92l258 608q-49 26 -49 90q0 48 29.5 77t79.5 29t81 -29.5t31 -75.5zM439 272l-84 207q-13 30 -36 101q-15 -52 -35 -103l-83 -205h238zM271 838q28 33 51 67t34 53h106v-8q-15 -21 -58 -60.5
t-74 -60.5h-59v9zM374 698q0 27 -15.5 41.5t-40.5 14.5q-24 0 -40 -14.5t-16 -41.5q0 -26 14.5 -41t41.5 -15q25 0 40.5 14.5t15.5 41.5z" />
    <glyph glyph-name="aringacute" unicode="&#x1fb;" horiz-adv-x="561" 
d="M416 0l-17 76h-4q-40 -50 -80 -68t-100 -18q-79 0 -124 41.5t-45 117.5q0 163 257 171l91 3v32q0 61 -26.5 90t-84.5 29q-42 0 -80 -12.5t-71 -28.5l-27 66q41 21 88.5 33.5t94.5 12.5q97 0 144.5 -43t47.5 -137v-365h-64zM235 61q74 0 116 40t42 113v48l-79 -3
q-92 -3 -134.5 -29t-42.5 -82q0 -42 26 -64.5t72 -22.5zM396 713q0 -49 -30.5 -78t-80.5 -29t-79.5 29t-29.5 77q0 47 29 76t80 29q49 0 80 -29t31 -75zM341 712q0 26 -16 41t-40 15t-40 -15t-16 -41t14.5 -41t41.5 -15q25 0 40.5 15t15.5 41zM230 856v8q22 21 48 50t37 44
h131v-6q-10 -12 -50.5 -37.5t-102.5 -58.5h-63z" />
    <glyph glyph-name="AEacute" unicode="&#x1fc;" horiz-adv-x="1177" 
d="M1178 575q0 -50 -47.5 -89t-109 -57t-118.5 -18q-15 0 -22 1v34q2 0 58 9.5t94.5 33.5t38.5 54q0 36 -54 36q-73 0 -138 -50t-65 -105t68 -71q15 -4 20 -8t5 -14t-9.5 -16.5t-43.5 -18.5q-184 -63 -184 -196q0 -27 10 -46q61 78 158 127t187 49q47 0 75 -20.5t28 -56.5
q0 -56 -52 -112t-134.5 -91.5t-164.5 -35.5t-128 30q-1 -1 -8 -16q-21 -39 -35 -55l-33 14q7 28 41 85q-54 40 -54 144q0 51 15 126q-14 1 -66 1t-72 -2q-116 -156 -214 -236.5t-196 -80.5q-48 0 -80.5 29t-32.5 77q0 91 138.5 166t358.5 101q26 40 97 123.5t140 145.5
q30 70 47.5 97.5t34.5 27.5t28 -13t11 -33.5t-19 -53.5q-59 -104 -93 -345q46 37 110 62q-47 39 -47 81q0 57 60 116.5t146.5 96.5t162.5 37q40 0 64 -17.5t24 -46.5zM246 89q83 79 125 150q-168 -10 -259.5 -63t-91.5 -113q0 -26 17.5 -41t46.5 -15q78 0 162 82zM968 170
q-59 0 -137.5 -45t-127.5 -107q40 -45 113.5 -45t144 47.5t70.5 102.5q0 22 -17 34.5t-46 12.5zM588 307q7 34 18.5 85.5t13.5 60.5q-48 -46 -67 -67.5t-67 -82.5q17 1 41.5 1.5t40.5 1.5t20 1zM1019 752l-171 -56l-29 18l132 78z" />
    <glyph glyph-name="aeacute" unicode="&#x1fd;" horiz-adv-x="761" 
d="M677 118l23 -18q-31 -43 -85 -71.5t-108.5 -28.5t-86.5 38q-45 -38 -83 -38q-59 0 -59 62q0 29 15 69l-37 -38q-54 -55 -93.5 -74t-77.5 -19t-57.5 21.5t-19.5 59.5q0 70 54 138.5t138 111.5t168 44l2 -33l-42 -9q-91 -20 -160.5 -80t-69.5 -119.5t48 -59.5q45 0 111 63
t110 148l42 -25q-62 -125 -62 -159q0 -14 9.5 -23.5t21.5 -9.5t23 7q-4 15 -4 34q0 92 97.5 181t197.5 89q66 0 66 -52q0 -54 -69.5 -109t-195.5 -100q9 -23 28 -36t39 -13q44 0 117 49zM488 148q81 28 139 70t58 77q0 13 -9.5 23t-23.5 10q-47 0 -101.5 -58.5t-62.5 -121.5
zM610 462l-171 -56l-29 18l132 78z" />
    <glyph glyph-name="Oslashacute" unicode="&#x1fe;" horiz-adv-x="684" 
d="M583 721l39 -21q-42 -55 -82 -112q21 -37 21 -83.5t-8 -73.5q76 25 146 61v-48q-45 -26 -166 -71q-50 -125 -156 -236.5t-201 -128.5q-24 -42 -71 -134l-44 13q28 56 63 121q-45 8 -72 45.5t-27 102.5t46 161.5t121 181t153 124.5q32 21 100 21q37 0 65 -22zM114 191
q0 -80 58 -96q69 125 152 254q-110 15 -126 72q-84 -117 -84 -230zM302 527q-33 -34 -33 -63q0 -56 84 -69q36 54 96 140q-22 24 -61.5 24t-85.5 -32zM315 149q98 97 137 202q-25 -5 -64 -5h-14q-86 -136 -151 -251q47 9 92 54zM488 733l-171 -56l-29 18l132 78zM466 402
q6 30 6 49.5t-2 37.5q-34 -49 -65 -96q34 2 61 9z" />
    <glyph glyph-name="oslashacute" unicode="&#x1ff;" horiz-adv-x="321" 
d="M402 721l39 -21q-131 -174 -238 -339q23 5 41 5t25 -1l3 -33q-60 0 -104 -26q-36 -56 -82 -135v-3q0 -43 21 -69.5t61.5 -26.5t64.5 36t24 84.5t-19 88.5l52 16q26 -43 26 -95q0 -81 -56 -144.5t-134 -63.5t-107 59q-62 -114 -95 -179l-44 13q59 114 125 233
q0 63 35.5 121t92.5 92q123 194 269 388zM38 471l171 56l-68 40l-132 -78z" />
    <glyph glyph-name="uni0200" unicode="&#x200;" horiz-adv-x="639" 
d="M449 771h-50q-29 23 -72 72t-61 78v10h97q14 -30 38 -72.5t48 -75.5v-12zM273 771h-50q-32 25 -74.5 74t-58.5 76v10h97q14 -30 38 -72.5t48 -75.5v-12zM746 298l-5 -60q-23 2 -49.5 2t-44.5 -1q-14 -110 -18 -239h-70q-6 26 -6 69t2.5 74.5t6.5 62.5t4 36q-14 1 -66 1
t-72 -2q-116 -156 -214 -236.5t-196 -80.5q-48 0 -80.5 29t-32.5 77q0 91 138.5 166t358.5 101q26 40 97 123.5t140 145.5q30 70 47.5 97.5t34.5 27.5t28 -13t11 -33.5t-22.5 -60t-46.5 -122t-33 -155.5q52 0 88 -9zM236 89q83 79 125 150q-168 -10 -259.5 -63t-91.5 -113
q0 -26 17.5 -41t46.5 -15q78 0 162 82zM578 307q7 34 18.5 85.5t13.5 60.5q-48 -46 -67 -67.5t-67 -82.5q17 1 41.5 1.5t40.5 1.5t20 1z" />
    <glyph glyph-name="uni0201" unicode="&#x201;" horiz-adv-x="561" 
d="M415 606h-50q-29 23 -72 72t-61 78v10h97q14 -30 38 -72.5t48 -75.5v-12zM239 606h-50q-32 25 -74.5 74t-58.5 76v10h97q14 -30 38 -72.5t48 -75.5v-12zM439 101l23 -17q-14 -30 -51.5 -57t-68.5 -27q-59 0 -59 62q0 29 15 69l-37 -38q-54 -55 -93.5 -74t-77.5 -19
t-57.5 21.5t-19.5 59.5q0 70 54 138.5t138 111.5t168 44l2 -33l-42 -9q-91 -20 -160.5 -80t-69.5 -119.5t48 -59.5q45 0 111 63t110 148l42 -25q-62 -125 -62 -159q0 -14 9.5 -23.5t19 -9.5t12.5 1t6 2.5t7.5 4.5t8 6t11.5 9t13 10z" />
    <glyph glyph-name="uni0202" unicode="&#x202;" horiz-adv-x="639" 
d="M322 905q69 0 108.5 -33.5t44.5 -100.5h-54q-4 36 -25 49.5t-76 13.5q-50 0 -73.5 -15.5t-27.5 -47.5h-55q5 63 47.5 98.5t110.5 35.5zM746 298l-5 -60q-23 2 -49.5 2t-44.5 -1q-14 -110 -18 -239h-70q-6 26 -6 69t2.5 74.5t6.5 62.5t4 36q-14 1 -66 1t-72 -2
q-116 -156 -214 -236.5t-196 -80.5q-48 0 -80.5 29t-32.5 77q0 91 138.5 166t358.5 101q26 40 97 123.5t140 145.5q30 70 47.5 97.5t34.5 27.5t28 -13t11 -33.5t-22.5 -60t-46.5 -122t-33 -155.5q52 0 88 -9zM236 89q83 79 125 150q-168 -10 -259.5 -63t-91.5 -113
q0 -26 17.5 -41t46.5 -15q78 0 162 82zM578 307q7 34 18.5 85.5t13.5 60.5q-48 -46 -67 -67.5t-67 -82.5q17 1 41.5 1.5t40.5 1.5t20 1z" />
    <glyph glyph-name="uni0203" unicode="&#x203;" horiz-adv-x="561" 
d="M293 740q69 0 108.5 -33.5t44.5 -100.5h-54q-4 36 -25 49.5t-76 13.5q-50 0 -73.5 -15.5t-27.5 -47.5h-55q5 63 47.5 98.5t110.5 35.5zM439 101l23 -17q-14 -30 -51.5 -57t-68.5 -27q-59 0 -59 62q0 29 15 69l-37 -38q-54 -55 -93.5 -74t-77.5 -19t-57.5 21.5t-19.5 59.5
q0 70 54 138.5t138 111.5t168 44l2 -33l-42 -9q-91 -20 -160.5 -80t-69.5 -119.5t48 -59.5q45 0 111 63t110 148l42 -25q-62 -125 -62 -159q0 -14 9.5 -23.5t19 -9.5t12.5 1t6 2.5t7.5 4.5t8 6t11.5 9t13 10z" />
    </font>
</defs>
</svg>
