<?xml version="1.0" standalone="no"?>
<!DOCTYPE svg PUBLIC "-//W3C//DTD SVG 1.1//EN" "http://www.w3.org/Graphics/SVG/1.1/DTD/svg11.dtd" >
<svg xmlns="http://www.w3.org/2000/svg" xmlns:xlink="http://www.w3.org/1999/xlink" version="1.1">
<metadata>
Created by FontForge 20190801 at Mon Feb  8 12:16:36 2021
 By root
Copyright (c) 2011, 2012 Johan Kallas (johankallas@gmail.com), Mihkel Virkus (mihkelvirkus@gmail.com), with Reserved Font Name 'Meie Script'
</metadata>
<defs>
<font id="MeieScript-Regular" horiz-adv-x="614" >
  <font-face 
    font-family="Meie Script"
    font-weight="400"
    font-stretch="normal"
    units-per-em="2048"
    panose-1="0 0 0 0 0 0 0 0 0 0"
    ascent="1638"
    descent="-410"
    x-height="600"
    cap-height="1500"
    bbox="-914 -780 4208 2142"
    underline-thickness="100"
    underline-position="-200"
    unicode-range="U+0001-206F"
  />
<missing-glyph horiz-adv-x="748" 
d="M68 0v1365h544v-1365h-544zM136 68h408v1229h-408v-1229z" />
    <glyph glyph-name=".notdef" horiz-adv-x="748" 
d="M68 0v1365h544v-1365h-544zM136 68h408v1229h-408v-1229z" />
    <glyph glyph-name="uni0000" 
 />
    <glyph glyph-name="uni0000" 
 />
    <glyph glyph-name="uni000D" unicode="&#xd;" 
 />
    <glyph glyph-name="uni0001" 
 />
    <glyph glyph-name="uni0002" 
 />
    <glyph glyph-name="uni0003" 
 />
    <glyph glyph-name="uni0004" 
 />
    <glyph glyph-name="uni0005" 
 />
    <glyph glyph-name="uni0006" 
 />
    <glyph glyph-name="uni0007" 
 />
    <glyph glyph-name="uni0008" 
 />
    <glyph glyph-name="uni0009" unicode="&#x9;" 
 />
    <glyph glyph-name="uni000A" unicode="&#xa;" 
 />
    <glyph glyph-name="uni000B" 
 />
    <glyph glyph-name="uni000C" 
 />
    <glyph glyph-name="uni000E" 
 />
    <glyph glyph-name="uni000F" 
 />
    <glyph glyph-name="uni0010" 
 />
    <glyph glyph-name="uni0011" 
 />
    <glyph glyph-name="uni0012" 
 />
    <glyph glyph-name="uni0013" 
 />
    <glyph glyph-name="uni0014" 
 />
    <glyph glyph-name="uni0015" 
 />
    <glyph glyph-name="uni0016" 
 />
    <glyph glyph-name="uni0017" 
 />
    <glyph glyph-name="uni0018" 
 />
    <glyph glyph-name="uni0019" 
 />
    <glyph glyph-name="uni001A" 
 />
    <glyph glyph-name="uni001B" 
 />
    <glyph glyph-name="uni001C" 
 />
    <glyph glyph-name="uni001D" 
 />
    <glyph glyph-name="uni001E" 
 />
    <glyph glyph-name="uni001F" 
 />
    <glyph glyph-name="space" unicode=" " 
 />
    <glyph glyph-name="space" unicode="&#xa0;" 
 />
    <glyph glyph-name="exclam" unicode="!" horiz-adv-x="688" 
d="M1314 1240q-156 -180 -275.5 -317t-207.5 -239t-149 -172t-100.5 -116t-61.5 -71l-33 -37.5t-13.5 -15.5t-3.5 -4q-28 -28 -54 -28q-21 0 -36.5 13t-15.5 33q0 11 6.5 22.5t17.5 25.5q69 88 140.5 176t146.5 177.5t153.5 182.5t161.5 192q18 22 43.5 52t54 62.5t58 63.5
t56 56t47.5 40.5t33 15.5q8 0 22 -3t27.5 -8.5t23 -14t9.5 -18.5q0 -11 -14.5 -28t-35.5 -40zM336 82q0 -17 -9 -32t-23.5 -26t-33.5 -17.5t-38 -6.5q-14 0 -27.5 3t-25 11t-18.5 21.5t-7 34.5q0 18 10 31t25 21t34 12t37 4q30 0 50.5 -13.5t25.5 -42.5z" />
    <glyph glyph-name="quotedbl" unicode="&#x22;" horiz-adv-x="680" 
d="M382 1448q36 0 54 -13t18 -33q0 -31 -42 -64q-29 -24 -70 -50.5t-81 -48.5t-73.5 -36.5t-47.5 -14.5q-6 0 -6 6q0 10 18 34q8 11 20.5 29.5t23.5 32.5q29 33 56.5 70t65.5 66q14 11 29 16.5t35 5.5zM680 1448q36 0 54 -13t18 -33q0 -31 -42 -64q-29 -24 -70 -50.5
t-81 -48.5t-73.5 -36.5t-47.5 -14.5q-6 0 -6 6q0 10 18 34q8 11 20.5 29.5t23.5 32.5q29 33 56.5 70t65.5 66q14 11 29 16.5t35 5.5z" />
    <glyph glyph-name="numbersign" unicode="#" horiz-adv-x="1312" 
d="M358 130h-264l88 100l256 -10l68 78h-264l88 100l256 -10l230 262h164l-268 -266l128 -6l238 272h164l-278 -276l294 -10l-58 -66h-312l-92 -90l314 -12l-58 -66h-334l-298 -298h-62l262 298h-162l-300 -298h-62zM544 218l148 -6l76 86h-142z" />
    <glyph glyph-name="dollar" unicode="$" horiz-adv-x="998" 
d="M552 452q51 36 100.5 71t92.5 65.5t76.5 54t52.5 37.5l18 -30q-23 -23 -38.5 -44.5t-24.5 -42t-13 -40.5t-4 -41q0 -98 -22.5 -172t-60 -128t-86.5 -89.5t-103 -56.5l-16 -434h-64l-14 408q-30 -5 -59.5 -7.5t-56.5 -2.5q-33 0 -72.5 8.5t-73.5 26t-57 44.5t-23 65
q0 31 14 59.5t37.5 51t54 36t62.5 13.5q15 0 28 -4t22 -10q24 18 54 38.5t60 41.5l-24 630h160zM678 494q-43 -29 -80.5 -54t-76.5 -52t-82 -57t-95 -67q6 -9 6 -18q0 -21 -9.5 -36.5t-24 -26t-31.5 -18.5t-31.5 -15t-24 -14.5t-9.5 -17.5q0 -13 7 -22.5t18 -15.5t24 -9
t25 -3q24 0 49.5 6t48.5 14q52 16 100.5 48.5t87.5 82.5t65 118t33 157z" />
    <glyph glyph-name="percent" unicode="%" horiz-adv-x="1060" 
d="M1014 504q0 -39 -20.5 -73t-53.5 -59t-75 -39.5t-85 -14.5q-31 0 -62.5 7t-57 25t-42 49t-16.5 79q0 40 22.5 69t57 47.5t77 27t83.5 8.5q68 0 114.5 -30.5t57.5 -95.5zM932 492q-6 41 -35 59.5t-71 18.5q-25 0 -51 -5.5t-47 -17t-34.5 -29t-13.5 -42.5q0 -29 10 -48
t25.5 -30t34.5 -15.5t38 -4.5q27 0 53 9t46 24t32.5 36t12.5 45zM460 892q0 -39 -20.5 -73t-53.5 -59t-75.5 -39.5t-86.5 -14.5q-31 0 -62 7t-56.5 25t-41.5 48.5t-16 77.5q0 40 22.5 69.5t57 48t77 27.5t83.5 9q68 0 114.5 -30.5t57.5 -95.5zM378 880q-6 39 -35 58.5
t-71 19.5q-26 0 -52 -5.5t-47.5 -17t-35 -30t-13.5 -43.5q0 -29 10 -47.5t25.5 -29t34.5 -15t38 -4.5q27 0 53 9t47 24t33.5 36t12.5 45zM786 1078l158 -10l-738 -790l-68 -12z" />
    <glyph glyph-name="ampersand" unicode="&#x26;" horiz-adv-x="1808" 
d="M1208 6q-73 42 -134 116q-49 -42 -95 -67t-86.5 -38t-75.5 -17t-61 -4q-67 0 -117 19t-83.5 52t-50.5 77.5t-17 95.5q0 72 28.5 132t79 103t119.5 67t149 24q12 0 24 -1t26 -3v14q0 72 18 137t56 114.5t97.5 79t142.5 29.5q46 0 85 -16t67.5 -43t44 -63t15.5 -76
q0 -58 -18.5 -109.5t-59 -90.5t-104 -61.5t-154.5 -22.5q-40 0 -82 6q9 -81 29.5 -144t50.5 -116q33 32 66.5 72t63.5 90l32 -12q-36 -57 -71.5 -102t-70.5 -80q24 -38 53.5 -71t62.5 -63zM794 52q22 0 50.5 5.5t61.5 18t69.5 32t74.5 48.5q-48 66 -81 147t-47 169h-12
q-69 0 -130 -23t-106 -60.5t-71.5 -85.5t-26.5 -97q0 -21 7 -47.5t30 -50.5t66 -40t115 -16zM1016 544q21 -2 42 -3t44 -1q49 0 96 9t84.5 31.5t60.5 62t23 101.5q0 16 -4.5 37t-19.5 40t-42 32t-72 13q-47 0 -86 -27.5t-67 -69.5t-43.5 -93.5t-15.5 -99.5v-32z" />
    <glyph glyph-name="quotesingle" unicode="'" horiz-adv-x="292" 
d="M278 1448q36 0 54 -13t18 -33q0 -31 -42 -64q-29 -24 -70 -50.5t-81 -48.5t-73.5 -36.5t-47.5 -14.5q-6 0 -6 6q0 10 18 34q8 11 20.5 29.5t23.5 32.5q29 33 56.5 70t65.5 66q14 11 29 16.5t35 5.5z" />
    <glyph glyph-name="parenleft" unicode="(" horiz-adv-x="1054" 
d="M580 996q162 171 324.5 291.5t314 201.5t285.5 129t236.5 73t168 32.5t81.5 8.5q-13 -1 -58 -7.5t-118 -28t-171.5 -62.5t-217.5 -109.5t-257 -170t-290 -244.5q-158 -149 -266.5 -288t-175.5 -266.5t-96.5 -242.5t-29.5 -215q0 -116 35.5 -210.5t92.5 -157.5
q-68 54 -121 128q-23 31 -44.5 70.5t-38.5 86t-27.5 100t-10.5 113.5q0 75 18.5 161t63 182.5t118.5 202.5t184 222z" />
    <glyph glyph-name="parenright" unicode=")" horiz-adv-x="940" 
d="M892 466q-161 -170 -324 -291t-314.5 -202t-285.5 -129t-236.5 -73t-168.5 -32.5t-81 -8.5q13 1 58 7.5t118 28t171.5 62.5t217.5 109.5t257 170t290 244.5q158 148 266.5 287.5t175.5 267t96.5 242.5t29.5 215q0 116 -35.5 210.5t-92.5 157.5q67 -54 121 -128
q22 -32 44 -71t39 -85.5t27.5 -100t10.5 -113.5q0 -75 -18.5 -161t-63 -182.5t-118.5 -203t-184 -221.5z" />
    <glyph glyph-name="asterisk" unicode="*" horiz-adv-x="1158" 
d="M356 638l-250 -100l44 126l270 92l-158 54l40 92l236 -106l356 306v-64l-192 -186l330 112l-22 -60l-376 -152l148 -66l22 -60l-248 84l-362 -350l-6 134z" />
    <glyph glyph-name="plus" unicode="+" horiz-adv-x="802" 
d="M280 284h-216l88 100l200 -18l114 128h164l-162 -140l248 -22l-42 -48h-288l-178 -154h-62z" />
    <glyph glyph-name="comma" unicode="," horiz-adv-x="642" 
d="M312 138q12 0 25.5 -3.5t24.5 -11t18.5 -19.5t7.5 -28q0 -21 -13.5 -44.5t-34 -46t-46.5 -43t-51 -36t-47 -25t-34 -9.5q-8 0 -8 6t15.5 17t33.5 25t33.5 30.5t15.5 33.5q0 12 -7 20t-16 16.5t-16 19.5t-7 30q0 18 10 31t25 21t34 12t37 4z" />
    <glyph glyph-name="hyphen" unicode="-" horiz-adv-x="886" 
d="M768 272l-42 -48h-610l88 100z" />
    <glyph glyph-name="period" unicode="." horiz-adv-x="506" 
d="M314 82q0 -17 -9 -32t-23.5 -26t-33.5 -17.5t-38 -6.5q-14 0 -27.5 3t-25 11t-18.5 21.5t-7 34.5q0 18 10 31t25 21t34 12t37 4q30 0 50.5 -13.5t25.5 -42.5z" />
    <glyph glyph-name="slash" unicode="/" horiz-adv-x="666" 
d="M944 1400l158 -10l-1208 -1378l-68 -12z" />
    <glyph glyph-name="zero" unicode="0" horiz-adv-x="852" 
d="M736 486q0 -48 -18.5 -102t-51 -106.5t-76 -100t-93.5 -84t-104 -58t-107 -21.5q-45 0 -74.5 10.5t-47.5 29t-25 43t-7 53.5q0 54 23.5 107.5t63 101.5t91 90t108 72t114 47.5t108.5 17.5q28 0 47 -7.5t29.5 -21t15 -31.5t4.5 -40zM326 70q40 0 82.5 17.5t82.5 47
t76 68.5t63 81.5t42.5 86t15.5 83.5q0 23 -8 38t-28 26q-5 3 -14 5.5t-26 2.5q-32 0 -76 -22t-89 -59.5t-86 -87.5t-67 -105q-11 -21 -22.5 -54t-11.5 -62q0 -26 15 -46t51 -20z" />
    <glyph glyph-name="one" unicode="1" horiz-adv-x="656" 
d="M278 406q75 21 148.5 60.5t139.5 89.5q23 20 40 32t28 12q8 0 22 -3t27.5 -8.5t23 -14t9.5 -18.5q0 -11 -14.5 -28t-35.5 -40l-166 -188q-8 -9 -34 -39t-58 -68t-64 -77.5t-52 -67.5q-4 -5 -10 -13t-15 -15.5t-20.5 -13.5t-24.5 -6q-8 0 -20.5 4t-24.5 10.5t-20.5 15.5
t-8.5 20q0 12 10 25.5t16 22.5q15 22 38 51.5t47 59.5t46.5 57t36.5 44q15 18 36.5 43.5t45.5 52.5q-42 -14 -81.5 -23t-72.5 -9q-20 0 -32 8t-10 10q6 1 14 4q7 2 16 4.5t20 5.5z" />
    <glyph glyph-name="two" unicode="2" horiz-adv-x="832" 
d="M586 608q63 0 101.5 -25t38.5 -79v-13t-2 -13q-5 -26 -23.5 -51.5t-48 -51t-67.5 -50.5t-81 -49q-65 -38 -124.5 -74t-109.5 -68q8 2 15.5 3t16.5 1q20 0 37.5 -11t33.5 -24t31 -24t32 -11q19 0 42 7.5t47 18.5t46.5 23.5t42.5 22.5l6 -40q-36 -21 -71.5 -39.5
t-71.5 -32.5t-74 -22t-79 -8q-12 0 -25.5 8t-28.5 17t-32 17t-36 8q-18 0 -40 -8.5t-42 -18.5q-23 -12 -46 -27l-26 30q55 42 113 79.5t115 73.5t112.5 71.5t107.5 73.5q39 29 66.5 71.5t27.5 96.5q0 23 -10.5 40.5t-43.5 17.5q-21 0 -44.5 -6.5t-47.5 -17t-46.5 -24
t-41.5 -28.5l-12 28q53 48 115 78t127 30z" />
    <glyph glyph-name="three" unicode="3" horiz-adv-x="820" 
d="M444 234q0 17 -12.5 29.5t-30.5 20.5t-39 12t-38 4t-34 -1.5t-32 -4.5l-4 18q26 14 60.5 23t71 17.5t72.5 18t64 24t45 36.5t17 55q0 20 -12.5 30t-41.5 10q-42 0 -85.5 -16t-84.5 -46l-8 28q57 48 124 78t132 30q57 0 86.5 -25t29.5 -61q0 -44 -18 -75t-48.5 -51.5
t-71 -32.5t-84.5 -19q13 -5 25.5 -13.5t22.5 -21t16 -30.5t6 -43q0 -53 -32 -96.5t-82 -74.5t-110.5 -48t-117.5 -17q-34 0 -66 9.5t-57.5 26.5t-41 41.5t-15.5 54.5q0 45 25.5 73.5t60.5 28.5q38 0 38 -38q0 -23 -14 -33t-30.5 -14.5t-30 -8.5t-13.5 -16t6 -25.5
t19.5 -24.5t33.5 -18.5t49 -7.5q38 0 82 11t81.5 34.5t62 60t24.5 88.5z" />
    <glyph glyph-name="four" unicode="4" horiz-adv-x="798" 
d="M688 284q-47 -24 -113 -35.5t-143 -14.5q-18 -22 -39 -47t-41.5 -50t-38.5 -48t-31 -41q-4 -5 -10 -13t-15 -15.5t-20.5 -13.5t-24.5 -6q-8 0 -20.5 4t-24.5 10.5t-20.5 15.5t-8.5 20q0 12 10 25.5t16 22.5q20 27 47.5 61.5t60.5 72.5q-35 2 -68 6t-63 11.5t-55 18
t-44 26.5q82 14 160.5 46.5t146 71t121 77.5t86.5 67q23 20 40 32t28 12q8 0 22 -3t27.5 -8.5t23 -14t9.5 -18.5q0 -11 -14.5 -28t-35.5 -40l-166 -188q-5 -5 -12 -12.5t-16 -19.5q28 2 56 5.5t59 9t65 13.5t74 20zM484 462q-60 -47 -114.5 -78.5t-101.5 -52.5t-85 -32
t-65 -15q42 -8 91.5 -13t90.5 -5q44 50 90.5 99.5t93.5 96.5z" />
    <glyph glyph-name="five" unicode="5" horiz-adv-x="808" 
d="M458 584q29 -18 70 -26t88 -8q62 0 124.5 13t109.5 37l12 -14q-27 -32 -68 -57t-89 -42.5t-100.5 -27t-102.5 -9.5q-26 0 -49.5 1.5t-46.5 6.5l-100 -122q18 6 37 10t39 4q23 0 46 -6t46 -20q24 -15 33 -38.5t9 -59.5q0 -24 -6.5 -48t-17.5 -44q-26 -49 -62 -78.5
t-76.5 -46t-84.5 -22t-87 -5.5q-29 0 -58 9t-51.5 26t-36.5 41t-14 54q0 45 25.5 73.5t60.5 28.5q38 0 38 -38q0 -23 -14 -33t-30.5 -14.5t-30 -8.5t-13.5 -16t6 -25.5t19.5 -24.5t33.5 -18.5t49 -7.5q38 0 76.5 15t69.5 42t50.5 64t19.5 81q0 17 -7 28.5t-19 18t-27.5 9
t-32.5 2.5t-34 -1.5t-32 -4.5l-4 18l142 172z" />
    <glyph glyph-name="six" unicode="6" horiz-adv-x="668" 
d="M700 600q-23 -34 -57.5 -59.5t-77 -46.5t-88.5 -40t-91.5 -40t-87.5 -46.5t-74 -59.5q50 24 96 29t78 5q60 0 88 -26.5t28 -65.5q0 -38 -24.5 -82.5t-69.5 -82t-109.5 -62.5t-144.5 -25q-57 0 -94.5 32.5t-37.5 95.5q0 42 13.5 85t34.5 75q37 55 101 103t145 88.5
t172 73.5t182 59zM186 38q27 0 61.5 23.5t65.5 57.5t52 71.5t21 65.5q0 17 -17 31.5t-59 14.5q-41 0 -68.5 -8.5t-45.5 -19.5q-24 -35 -37 -77.5t-13 -96.5q0 -9 2.5 -20t7 -20t12 -15.5t18.5 -6.5z" />
    <glyph glyph-name="seven" unicode="7" horiz-adv-x="702" 
d="M146 294q93 -18 168 -18q8 9 15 17.5t13 16.5q5 6 19 22t32.5 37t40 44.5t41 45.5t35.5 40l24 27q-20 2 -38 2h-36q-78 0 -140.5 -6.5t-121.5 -15.5q8 12 24 28q8 8 20 18q17 5 48 10.5t69 11t79 10t79 8.5t69 6t48 2q8 0 22 -3t27.5 -8.5t23 -14t9.5 -18.5
q0 -11 -14.5 -28t-35.5 -40l-166 -188q-3 -3 -7.5 -8.5t-12.5 -13.5q33 3 66 7t72 9l-28 -32q-69 -12 -138 -18q-19 -22 -41 -48t-44 -53t-42 -51.5t-33 -43.5q-4 -5 -10 -13t-15 -15.5t-20.5 -13.5t-24.5 -6q-8 0 -20.5 4t-24.5 10.5t-20.5 15.5t-8.5 20q0 12 10 25.5
t16 22.5q10 14 23 31.5t28 36.5t30.5 38.5t30.5 37.5q-48 3 -87.5 10t-68.5 16z" />
    <glyph glyph-name="eight" unicode="8" horiz-adv-x="738" 
d="M574 596q23 0 46.5 -4t42.5 -14.5t31 -29t12 -48.5q0 -34 -15.5 -59.5t-41 -45t-60 -33.5t-71.5 -24q40 -25 40 -68q0 -62 -34.5 -113t-87 -88.5t-116.5 -58t-122 -20.5q-26 0 -51 7t-45.5 21t-33 36t-12.5 52q0 60 27 99.5t70.5 65t99 41t111.5 28.5q-15 15 -23.5 33
t-8.5 41q0 46 22 80t56.5 56.5t77.5 34t86 11.5zM408 304q-4 4 -8 6q-35 -9 -65 -17t-53 -19q-60 -27 -91 -69t-31 -81q0 -38 19 -54t55 -16q32 0 66.5 18.5t63 48t46.5 66t18 73.5q0 12 -4.5 24t-15.5 20zM436 408q0 -14 8 -24.5t20 -19.5q32 9 60 20.5t48.5 27t32.5 36
t13 48.5q0 15 -10 25.5t-30 10.5t-45 -8t-46.5 -23.5t-36 -38.5t-14.5 -54z" />
    <glyph glyph-name="nine" unicode="9" horiz-adv-x="624" 
d="M404 302q14 19 29.5 41.5t28 47t20.5 51t8 52.5q0 20 -8.5 32t-23.5 12q-31 0 -60.5 -18t-52.5 -46.5t-37 -62.5t-14 -65q0 -27 25 -36.5t55 -9.5h15t15 2zM104 8q44 31 75.5 54.5t55 43t40 36.5t32 35.5t31.5 39.5t38 49q-29 -9 -58 -14.5t-56 -5.5q-42 0 -70 17t-28 61
q0 61 34.5 112t88 87.5t117 56.5t122.5 20q33 0 53.5 -8t32.5 -20t16 -26.5t4 -27.5q0 -28 -16 -73t-46 -97t-74 -106.5t-100.5 -103t-125 -86t-146.5 -54.5z" />
    <glyph glyph-name="colon" unicode=":" horiz-adv-x="424" 
d="M308 544q0 -17 -9 -32t-23.5 -26t-33.5 -17.5t-38 -6.5q-14 0 -27.5 3t-25 11t-18.5 21.5t-7 34.5q0 18 10 31t25 21t34 12t37 4q30 0 50.5 -13.5t25.5 -42.5zM306 94q0 -17 -9 -32t-23.5 -26t-33.5 -17.5t-38 -6.5q-14 0 -27.5 3t-25 11t-18.5 21.5t-7 34.5q0 18 10 31
t25 21t34 12t37 4q30 0 50.5 -13.5t25.5 -42.5z" />
    <glyph glyph-name="semicolon" unicode=";" horiz-adv-x="402" 
d="M230 152q12 0 25.5 -3.5t24.5 -11t18.5 -19.5t7.5 -28q0 -21 -13.5 -44.5t-34 -46t-46.5 -43t-51 -36t-47 -25t-34 -9.5q-8 0 -8 6t15.5 17t33.5 25t33.5 30.5t15.5 33.5q0 12 -7 20t-16 16.5t-16 19.5t-7 30q0 18 10 31t25 21t34 12t37 4zM306 544q0 -17 -9 -32
t-23.5 -26t-33.5 -17.5t-38 -6.5q-14 0 -27.5 3t-25 11t-18.5 21.5t-7 34.5q0 18 10 31t25 21t34 12t37 4q30 0 50.5 -13.5t25.5 -42.5z" />
    <glyph glyph-name="less" unicode="&#x3c;" horiz-adv-x="1062" 
d="M68 254l44 126l882 300l-22 -60l-776 -314l392 -176l22 -60z" />
    <glyph glyph-name="equal" unicode="=" horiz-adv-x="1336" 
d="M896 180l-42 -48h-610l88 100zM1050 370l-42 -48h-610l88 100z" />
    <glyph glyph-name="greater" unicode="&#x3e;" horiz-adv-x="1062" 
d="M974 496l-44 -126l-882 -300l22 60l774 314l-390 176l-22 60z" />
    <glyph glyph-name="question" unicode="?" horiz-adv-x="1000" 
d="M356 82q0 -17 -9 -32t-23.5 -26t-33.5 -17.5t-38 -6.5q-14 0 -27.5 3t-25 11t-18.5 21.5t-7 34.5q0 18 10 31t25 21t34 12t37 4q30 0 50.5 -13.5t25.5 -42.5zM930 984q-21 -11 -48.5 -15.5t-57.5 -4.5t-57 8.5t-48 25t-33 40t-12 52.5t15 62t48 60.5t86 45.5t129 18
q59 0 102 -12t73.5 -30.5t50 -41t30 -45t14.5 -41.5t4 -30q0 -59 -35 -114t-92.5 -106.5t-131 -100t-150.5 -94.5t-150.5 -89t-131 -84t-92.5 -79.5t-35 -74.5q0 -23 7 -37.5t17.5 -22t23.5 -10t26 -2.5q35 0 81.5 17t94.5 43l8 -10q-16 -16 -38 -32t-48 -29.5t-55.5 -22
t-60.5 -8.5q-22 0 -46 5.5t-44.5 19.5t-34 37.5t-13.5 59.5q0 57 44.5 110t114 105t154.5 103t166.5 103t150 106.5t104.5 112.5q30 51 30 94q0 26 -7.5 47.5t-25.5 36.5t-48 23.5t-75 8.5q-35 0 -70.5 -6.5t-64 -20t-46 -36t-17.5 -53.5q0 -26 11.5 -42.5t29.5 -25.5
t41.5 -12.5t47.5 -3.5h16t14 2z" />
    <glyph glyph-name="at" unicode="@" horiz-adv-x="1376" 
d="M842 -102q-109 -65 -210.5 -89.5t-195.5 -24.5q-74 0 -134.5 19t-104 55t-67.5 89t-24 121q0 83 29 163.5t80 152.5t120 132.5t148 105t165 69.5t172 25q76 0 147 -11t125.5 -37t87 -69.5t32.5 -108.5q0 -55 -20 -113t-53.5 -112.5t-78.5 -103t-94.5 -85t-101.5 -57.5
t-100 -21q-20 0 -41.5 5t-39 15.5t-28.5 26t-11 35.5q0 12 2 22t10 22q-66 -65 -128.5 -95.5t-113.5 -30.5q-41 0 -66 10.5t-38.5 28t-18.5 40t-5 45.5q0 37 18 79t48 82t70 77t84 65t89 44.5t87 16.5q54 0 91 -20t37 -66q0 -27 -12 -60l-28 -14q2 11 3 20t1 20
q0 24 -11.5 46t-44.5 22q-35 0 -71.5 -16.5t-71 -43.5t-65 -61.5t-53.5 -69t-36 -66.5t-13 -55q0 -33 14.5 -43.5t49.5 -10.5q41 0 84 25t94 67q17 18 36.5 37t39.5 43q16 16 37.5 41t45.5 52t48 54.5t46 49.5t40.5 35.5t30.5 13.5q7 0 18.5 -2.5t22.5 -7t19 -11.5t8 -15
t-12 -22.5t-30 -31.5l-148 -170q-39 -44 -67.5 -82.5t-28.5 -65.5q0 -23 17 -31.5t41 -8.5q30 0 68.5 19.5t78.5 52.5t78 77t68 93.5t48.5 101t18.5 100.5q0 97 -92 145.5t-266 48.5q-71 0 -148 -22t-150.5 -62t-140 -95.5t-116.5 -123t-79.5 -145t-29.5 -160.5
q0 -48 17 -93t51.5 -79.5t87.5 -55t124 -20.5q38 0 83.5 4.5t96 16.5t104.5 31.5t110 49.5z" />
    <glyph glyph-name="A" unicode="A" horiz-adv-x="2022" 
d="M1558 710h-228l64 90l244 -12l112 110q207 204 433.5 356t472.5 252q5 2 15 4t21 2q9 0 15.5 -2.5t6.5 -11.5q0 -16 -5.5 -27t-13.5 -18.5t-16.5 -12.5t-14.5 -8q-38 -18 -88.5 -58t-107.5 -93.5t-118 -117t-121.5 -131t-117.5 -134.5t-105 -126l158 -6l-34 -56h-176
q-50 -59 -104.5 -118.5t-107.5 -117.5t-101 -112.5t-85 -101.5t-58.5 -85t-21.5 -63q0 -41 14 -53.5t52 -12.5q42 0 96 13.5t110.5 33.5t111 44t98.5 45l10 -24q-152 -74 -275 -117t-209 -43q-24 0 -50 4t-48 17t-36 37t-14 64q0 35 36 93t97.5 134t142.5 167.5t172 195.5
h-158q-83 -86 -171 -172t-181 -166.5t-191.5 -151t-204.5 -124.5q-56 -28 -104 -46.5t-91.5 -30t-84 -16.5t-80.5 -5q-51 0 -86.5 14.5t-57.5 37t-32 49.5t-10 53q0 31 11 57.5t29 46t41.5 30t48.5 10.5q14 0 28 -3.5t24.5 -12t17 -23.5t6.5 -37q0 -32 -15.5 -52t-33.5 -34
t-33.5 -25.5t-15.5 -26.5q0 -11 9 -18.5t22 -12t28 -6t27 -1.5q48 0 88.5 5.5t79 16.5t78 27.5t86.5 38.5q28 13 67.5 37t84 55t90.5 66t89 70t79.5 67.5t61.5 58.5zM1700 786l146 -6q44 50 81.5 92t72.5 80.5t69.5 76t74 79t85.5 88t103 104.5q-61 -35 -135 -86.5
t-149 -110.5t-144.5 -120t-121.5 -113z" />
    <glyph glyph-name="B" unicode="B" horiz-adv-x="2438" 
d="M2260 1398q-44 0 -94 -2t-104 -8.5t-110 -19t-112 -32.5q-52 -19 -101 -44.5t-87.5 -58t-62 -71.5t-23.5 -84q0 -26 9 -43t21 -17q36 0 74.5 15t76.5 39.5t74.5 56t68.5 64t58.5 63.5t45.5 56l16 -26q-49 -94 -111 -168q-27 -32 -59 -62t-69.5 -53.5t-80.5 -38t-90 -14.5
q-21 0 -38.5 10.5t-30.5 27.5t-20 39t-7 45q0 28 11 56.5t29.5 56t43.5 52.5t54 45q56 39 127 69t150.5 50t163 30.5t165.5 10.5h30t30 -2q48 -3 90 -12q81 42 168 66l16 -26q-27 -17 -53.5 -32.5t-50.5 -33.5q60 -27 90 -70t30 -96q0 -41 -15 -82.5t-42 -80t-63.5 -71.5
t-79.5 -58q29 -35 43.5 -78.5t14.5 -85.5q0 -70 -24 -147t-66 -153t-99.5 -148t-125.5 -132.5t-143 -107t-152 -70.5q-14 -5 -32.5 -8.5t-38 -6t-38 -4t-31.5 -1.5q-29 0 -54 7.5t-43.5 24.5t-29.5 45t-11 69q0 37 9 78t33 87.5t65 99.5t105 115l14 -22q-24 -26 -54.5 -62
t-57.5 -79t-45.5 -90.5t-18.5 -94.5q0 -54 21.5 -75t56.5 -21q56 0 110.5 21t106 55.5t99 79t89 93t75 96.5t58.5 89q13 22 29 54.5t30.5 71t24.5 79.5t10 79q0 29 -4.5 56t-13.5 48q-24 -8 -48 -11t-48 -3h-8q-21 1 -37 8.5t-27 18t-16.5 22.5t-5.5 23q0 27 23.5 48.5
t74.5 21.5q36 0 68 -10t58 -28q27 23 54 51.5t48 59t34.5 61.5t13.5 60q0 42 -13.5 78t-54.5 60q-67 -51 -124.5 -105t-108.5 -107.5t-95 -104.5t-84 -95q-30 -33 -70 -79.5t-87 -100t-98 -111.5t-102.5 -116.5t-102.5 -114t-96 -102.5q-70 -73 -143 -134t-152 -105.5
t-164 -69.5t-179 -25q-109 0 -168.5 42t-59.5 110q0 25 8 51.5t24.5 48t41 35t56.5 13.5q36 0 56 -19t20 -55q0 -33 -15.5 -53.5t-33.5 -34.5t-33.5 -25.5t-15.5 -26.5q0 -21 24 -31.5t66 -10.5q80 0 149 24t132 67t123.5 103t123.5 132q97 110 209.5 236t230.5 260
q58 66 124.5 138t139.5 142.5t152 135t162 114.5q-33 6 -76 6z" />
    <glyph glyph-name="C" unicode="C" horiz-adv-x="1792" 
d="M2376 1452q29 -23 45.5 -58t16.5 -74q0 -47 -23 -88t-59 -71.5t-78.5 -48.5t-81.5 -18q-17 0 -37 3t-37 11t-28.5 22.5t-11.5 37.5q0 19 8.5 36.5t23 31t33.5 22t39 8.5q26 0 37 -12t11 -24q0 -20 -12.5 -31t-27.5 -18.5t-27.5 -13.5t-12.5 -15q0 -16 32 -16
q22 0 50 11.5t53 34.5t42 57.5t17 80.5q0 42 -28 68t-82 26t-129.5 -26.5t-162.5 -73.5t-181.5 -112.5t-186 -144.5t-176.5 -168.5t-154 -184t-116.5 -192t-65.5 -192.5q-12 -69 -12 -116q0 -38 14.5 -64t40 -42t60 -23t73.5 -7q60 0 124.5 14t122.5 33.5t103 40t66 34.5
q3 -8 5.5 -13.5t4.5 -10.5q-29 -20 -85 -49t-127.5 -55.5t-153 -45t-162.5 -18.5q-109 0 -168.5 56t-59.5 172q0 97 37 203.5t101.5 214t151.5 212t186.5 199t208 174.5t215 139t207 92.5t185.5 33.5q19 0 42.5 -1.5t46.5 -6t44.5 -13t38.5 -21.5z" />
    <glyph glyph-name="D" unicode="D" horiz-adv-x="2460" 
d="M2398 1514q77 0 128.5 -24.5t81.5 -69.5q56 32 107.5 52.5t90.5 23.5l16 -26q-47 -27 -92 -58.5t-90 -67.5q6 -26 10 -55t4 -61q0 -162 -42 -301t-113 -255.5t-165 -212t-198.5 -170t-212.5 -129.5t-207.5 -90.5t-183.5 -53.5t-140 -18q-48 0 -100 15t-106 35
q-60 -17 -115.5 -24.5t-106.5 -7.5q-18 0 -39 4.5t-39 14t-30 24.5t-12 35q0 15 11.5 27.5t28.5 21.5t37 14t37 5q57 0 109 -16t103 -36q75 34 147 82t133 97t107 91.5t69 65.5q29 21 77 69t105 110t119 133.5t121 140t110 128.5t86 101q24 28 59.5 62t78.5 69.5t90.5 70.5
t95.5 66q-24 48 -62.5 64t-85.5 16q-112 0 -217 -37.5t-196 -97.5t-166.5 -136t-129.5 -154t-83.5 -150.5t-29.5 -124.5q0 -21 15.5 -31.5t44.5 -10.5q34 0 76 12t93 48t113 103.5t138 178.5l16 -18q-50 -95 -104 -171.5t-112.5 -130.5t-120 -83t-125.5 -29q-51 0 -81 18.5
t-46 50t-20.5 71.5t-4.5 84q0 65 30.5 138t88 145t139 137.5t183.5 115.5t222 80t255 30zM2000 646q-100 -119 -196.5 -212t-189 -163t-180.5 -118.5t-170 -78.5q33 -12 67.5 -19t70.5 -7q70 0 159.5 22.5t187 65.5t199 104t196.5 138t179 168t146.5 194t98.5 215.5
t36 232.5q0 35 -1.5 65.5t-6.5 54.5q-75 -62 -142.5 -130t-123.5 -136zM968 106q-24 0 -39 -5.5t-15 -14.5q0 -12 19 -19t37 -7q30 0 61 5.5t63 14.5q-33 11 -64.5 17.5t-61.5 8.5z" />
    <glyph glyph-name="E" unicode="E" horiz-adv-x="2000" 
d="M1714 1300q-9 -2 -29 -11.5t-45.5 -24.5t-52 -35.5t-49 -45t-36.5 -52.5t-14 -57q0 -22 9.5 -40.5t30 -32t52.5 -21.5t78 -8q23 0 46 1.5t46 6.5v26q0 69 21.5 132t57.5 117t84.5 97.5t101.5 74t108.5 47t106.5 16.5q34 0 57 -10.5t37 -27t20 -37t6 -39.5q0 -26 -8.5 -62
t-43.5 -82.5t-106 -103.5t-196 -124q-36 -20 -69 -33.5t-63 -22.5q7 -33 21 -59t28 -44q17 -21 35 -37l-24 -24q-20 14 -49.5 24t-74.5 10l-28 -2q-52 -5 -117 -30.5t-132.5 -66.5t-131.5 -94t-114 -112.5t-80.5 -122t-30.5 -122.5q0 -33 5.5 -66.5t25 -60.5t58 -44
t103.5 -17q60 0 120 20t114 53.5t100 77t80 90.5t53 94.5t19 88.5q0 32 -11 54.5t-29 36t-41.5 19.5t-48.5 6q-54 0 -114.5 -24t-118 -66.5t-108.5 -102t-85 -129.5l-8 8q12 35 36 79t56 89t71.5 87.5t83.5 75.5t91.5 53t95.5 20q35 0 65 -16t51.5 -42.5t33.5 -60.5t12 -69
q0 -63 -25.5 -125.5t-68.5 -119.5t-100.5 -106.5t-121.5 -85.5t-130.5 -56.5t-127.5 -20.5q-49 0 -96 16.5t-84.5 50t-60.5 83.5t-23 118q0 82 27.5 158.5t75.5 143t113.5 121t141 93.5t157 60.5t163.5 21.5h8h11.5t20.5 -0.5t34 -1.5q-6 11 -13 24t-13 28q-38 -6 -71 -7
t-63 -1q-54 0 -101.5 7t-83.5 23t-56.5 41.5t-20.5 62.5t21 69.5t53.5 59.5t72 49.5t76.5 38.5t66.5 26.5t42.5 14.5l6 2h2zM1976 1250q-22 -25 -42 -53t-36 -59t-26.5 -64.5t-11.5 -69.5q85 27 161 70t133.5 92.5t91.5 100.5t34 95q0 24 -16 36t-40 12q-23 0 -53.5 -12.5
t-64 -34.5t-67.5 -51t-63 -62z" />
    <glyph glyph-name="F" unicode="F" horiz-adv-x="2040" 
d="M3020 1366q-100 -18 -198 -26t-198 -8h-54q-58 -47 -108.5 -96.5t-95.5 -97.5t-84.5 -93t-75.5 -85q-23 -24 -49.5 -55t-58.5 -67l148 -10l-34 -56h-170q-47 -53 -97 -110.5t-101 -114.5t-100.5 -111t-93.5 -100q-70 -73 -143 -134t-152 -105.5t-164 -69.5t-179 -25
q-109 0 -168.5 42t-59.5 110q0 25 8 51.5t24.5 48t41 35t56.5 13.5q36 0 56 -19t20 -55q0 -33 -15.5 -53.5t-33.5 -34.5t-33.5 -25.5t-15.5 -26.5q0 -21 24 -31.5t66 -10.5q80 0 149 24t132 67t123.5 103t123.5 132q78 91 168.5 191t187.5 209h-160l64 90l164 -12
q23 25 46.5 51.5t49 55t54 59.5t62.5 66q68 71 142 137t154 123q-34 4 -68 9t-76 9.5t-96 7t-128 2.5q-127 0 -235 -29t-187 -73t-123.5 -96t-44.5 -98q0 -19 7 -35.5t24.5 -29t46 -20t72.5 -7.5q35 0 69.5 10.5t67 28t62.5 40t56 46.5q61 55 115 125l14 -26
q-39 -93 -87.5 -151t-99.5 -90t-102.5 -43.5t-96.5 -11.5q-35 0 -70.5 7.5t-64 26.5t-46 51t-17.5 81q0 48 30.5 95.5t82 91.5t119.5 82t143.5 66.5t154 44.5t150.5 16q40 0 87 -5.5t102 -14t119 -18.5t138 -18q48 27 97.5 48.5t100.5 35.5l16 -26q-29 -17 -54.5 -33.5
t-51.5 -34.5q51 -3 107.5 -5.5t118.5 -2.5q39 0 77.5 1t74.5 3z" />
    <glyph glyph-name="G" unicode="G" horiz-adv-x="2062" 
d="M2272 932q-62 -56 -106 -105.5t-83.5 -99t-81 -102.5t-99.5 -115l-160 -176q-68 -74 -140.5 -135.5t-152 -105.5t-165.5 -68.5t-180 -24.5q-109 0 -168.5 42t-59.5 110q0 25 8 51.5t24.5 48t41 35t56.5 13.5q36 0 56 -19t20 -55q0 -33 -15.5 -53.5t-33.5 -34.5
t-33.5 -25.5t-15.5 -26.5q0 -21 24 -31.5t66 -10.5q80 0 149 24t132 67t123.5 103t123.5 132l168 188q48 56 110.5 113t125.5 111q-11 -2 -22 -2h-22q-33 0 -66.5 7.5t-62.5 25t-51.5 46.5t-33.5 73q-32 -5 -61.5 -5.5t-56.5 -0.5q-54 0 -101.5 7t-83.5 23t-56.5 41.5
t-20.5 62.5t21 69.5t53.5 59.5t72 49.5t76.5 38.5t66.5 26.5t42.5 14.5l6 2h2l6 -10q-9 -2 -29 -11.5t-45.5 -24.5t-52 -35.5t-49 -45t-36.5 -52.5t-14 -57q0 -22 9.5 -40.5t30 -32t52.5 -21.5t78 -8q40 0 82 6v22q0 58 18.5 117t52 113.5t79.5 101.5t100.5 82.5t115 55.5
t124.5 20q34 0 57 -10.5t37 -27t20 -37t6 -39.5q0 -26 -8.5 -62t-43.5 -82.5t-106 -103.5t-196 -124q-36 -20 -69 -33.5t-63 -22.5q4 -22 13.5 -42t29 -35t49.5 -24t74 -9q16 0 40 12.5t49.5 30.5t49 39t39.5 38q5 3 8 8zM1874 1078q-6 -17 -10 -33t-4 -31q85 27 161 70
t133.5 92.5t91.5 100.5t34 95q0 24 -16 36t-40 12q-25 0 -56.5 -15t-66 -40.5t-69.5 -59.5t-66 -72t-55 -78t-37 -77z" />
    <glyph glyph-name="H" unicode="H" horiz-adv-x="2272" 
d="M2052 918q71 81 149 155t156.5 137t153.5 113.5t140.5 86t117.5 55t85 19.5q14 0 27 -5t23 -17t16 -31.5t6 -48.5q0 -71 -38 -137t-102.5 -127t-150 -116.5t-181 -106t-194.5 -97t-190 -88.5q-14 -6 -26 -11.5t-24 -10.5q-49 -56 -102.5 -114t-104.5 -113.5t-96.5 -107.5
t-80 -97t-54.5 -81.5t-20 -60.5q0 -41 14 -53.5t52 -12.5q42 0 96 13.5t110.5 33.5t111 44t98.5 45l10 -24q-152 -74 -275 -117t-209 -43q-24 0 -50 4t-48 17t-36 37t-14 64q0 30 26 76t72 106t108 132t134 154q-65 -23 -128 -44t-120 -42q-30 -11 -60 -21t-62 -21
q-32 -35 -61.5 -68t-58.5 -62q-62 -65 -131 -125t-144 -105.5t-154.5 -72.5t-162.5 -27q-26 0 -51.5 5.5t-45.5 18t-32.5 33t-12.5 51.5q0 41 33.5 77t88 67.5t124.5 59t143.5 51t144.5 43t128 36.5l372 420q89 101 185 203t215 193q-12 -8 -31.5 -18t-42.5 -18.5t-47.5 -14
t-46.5 -5.5q-32 0 -53 15t-21 53v86q0 9 -5 13.5t-13 4.5q-11 0 -26.5 -9t-41.5 -35l-20 18q34 39 64 53.5t72 14.5q47 0 67.5 -15.5t20.5 -44.5q0 -19 4 -30.5t10.5 -17.5t14 -8t15.5 -2q33 0 74 10t86 26.5t91.5 37.5t89.5 43t81 42.5t66 36.5l20 -18q-83 -53 -163.5 -120
t-154.5 -137.5t-139 -139t-115 -125.5l-378 -430q86 27 181.5 58.5t180.5 61.5q20 21 39.5 43.5t40.5 46.5q23 26 42.5 48.5t39.5 43.5zM2144 838q-17 -20 -31.5 -38t-28.5 -36q-6 -6 -10 -14q46 20 102.5 46t118 56t124.5 63t121 68t108 71t86 72q38 39 66.5 72.5t47 65
t27.5 63.5t9 67q0 20 -8 33t-16 13q-42 0 -111 -33.5t-160.5 -106t-203.5 -187t-241 -275.5zM588 104q0 -14 7.5 -24t20 -16t28 -9t32.5 -3q66 0 125 26.5t114.5 70.5t109 101t107.5 118q3 5 6 8l8 8q-72 -23 -141 -44t-131 -42t-114.5 -42t-90.5 -44.5t-59.5 -50
t-21.5 -57.5z" />
    <glyph glyph-name="I" unicode="I" horiz-adv-x="1854" 
d="M1898 1354q34 39 64 53.5t72 14.5q47 0 67.5 -15.5t20.5 -44.5q0 -19 4 -30.5t10.5 -17.5t14 -8t15.5 -2q33 0 74 10t86 26.5t91.5 37.5t89.5 43t81 42.5t66 36.5l20 -18q-83 -53 -163.5 -120.5t-154 -138t-138.5 -139t-116 -124.5q-30 -34 -70 -80t-87 -99.5t-98 -111.5
t-102.5 -116.5t-102.5 -114t-96 -102.5q-70 -73 -143 -134t-152 -105.5t-164 -69.5t-179 -25q-109 0 -168.5 42t-59.5 110q0 25 8 51.5t24.5 48t41 35t56.5 13.5q36 0 56 -19t20 -55q0 -33 -15.5 -53.5t-33.5 -34.5t-33.5 -25.5t-15.5 -26.5q0 -21 24 -31.5t66 -10.5
q80 0 149 24t132 67t123.5 103t123.5 132q97 110 209.5 236t230.5 260q89 101 185 203t215 193q-12 -8 -31.5 -18t-42.5 -18.5t-47.5 -14t-46.5 -5.5q-32 0 -53 15t-21 53v86q0 9 -5 13.5t-13 4.5q-11 0 -26.5 -9t-41.5 -35z" />
    <glyph glyph-name="J" unicode="J" horiz-adv-x="1938" 
d="M1876 1354q34 39 64 53.5t72 14.5q47 0 67.5 -15.5t20.5 -44.5q0 -19 4 -30.5t10.5 -17.5t14 -8t15.5 -2q33 0 74 10t86 26.5t91.5 37.5t89.5 43t81 42.5t66 36.5l20 -18q-83 -53 -163.5 -120t-154.5 -137.5t-139 -139t-115 -125.5l-258 -294l146 -10l-34 -56h-170
q-62 -71 -124 -139t-116 -125q-70 -73 -143 -134t-152 -105.5t-164 -69.5t-179 -25q-109 0 -168.5 42t-59.5 110q0 25 8 51.5t24.5 48t41 35t56.5 13.5q36 0 56 -19t20 -55q0 -33 -15.5 -53.5t-33.5 -34.5t-33.5 -25.5t-15.5 -26.5q0 -21 24 -31.5t66 -10.5q80 0 149 24
t132 67t123.5 103t123.5 132q47 53 97.5 109.5t104.5 118.5h-158l64 90l164 -12l168 190q89 101 185 203t215 193q-12 -8 -31.5 -18t-42.5 -18.5t-47.5 -14t-46.5 -5.5q-32 0 -53 15t-21 53v86q0 9 -5 13.5t-13 4.5q-11 0 -26.5 -9t-41.5 -35z" />
    <glyph glyph-name="K" unicode="K" horiz-adv-x="2418" 
d="M1790 1350q34 39 64 53.5t72 14.5q47 0 67.5 -15.5t20.5 -44.5q0 -19 4 -30.5t10.5 -17.5t14 -8t15.5 -2q33 0 74 10t86 26.5t91.5 37.5t89.5 43t81 42.5t66 36.5l20 -18q-83 -53 -163.5 -120.5t-154 -138t-138.5 -139t-116 -124.5q-30 -34 -70 -80t-87 -99.5t-98 -111.5
t-102.5 -116.5t-102.5 -114t-96 -102.5q-70 -73 -143 -134t-152 -105.5t-164 -69.5t-179 -25q-109 0 -168.5 42t-59.5 110q0 25 8 51.5t24.5 48t41 35t56.5 13.5q36 0 56 -19t20 -55q0 -33 -15.5 -53.5t-33.5 -34.5t-33.5 -25.5t-15.5 -26.5q0 -21 24 -31.5t66 -10.5
q80 0 149 24t132 67t123.5 103t123.5 132q97 110 209.5 236t230.5 260q89 101 185 203t215 193q-12 -8 -31.5 -18t-42.5 -18.5t-47.5 -14t-46.5 -5.5q-32 0 -53 15t-21 53v86q0 9 -5 13.5t-13 4.5q-11 0 -26.5 -9t-41.5 -35zM2280 686q0 -68 -33 -130t-82.5 -117.5
t-107.5 -104t-107.5 -90.5t-82.5 -76.5t-33 -61.5q0 -20 7.5 -31.5t20 -17.5t29 -7.5t35.5 -1.5q42 0 96 13.5t110.5 33.5t111 44t98.5 45l10 -24q-152 -74 -275 -117t-209 -43q-24 0 -50 4t-48 17t-36 37t-14 64q0 50 32.5 96.5t81.5 91.5t106 90.5t106 93.5t81.5 100.5
t32.5 111.5q0 17 -10 30q-14 -10 -28 -15t-26.5 -7.5t-22 -3t-13.5 -0.5q-23 0 -40.5 7.5t-29.5 18t-18 23t-6 23.5q0 27 23.5 48.5t74.5 21.5q26 0 48.5 -4t43.5 -12q41 20 80 57.5t79 86t82 103t88.5 109t99 104.5t112.5 88t130 61t151 23q31 0 55.5 -8.5t41.5 -22.5
t26 -32.5t9 -38.5q0 -25 -11.5 -53.5t-33 -52.5t-53.5 -40t-72 -16q-12 0 -25.5 3t-25.5 10t-19.5 18.5t-7.5 28.5q0 31 20.5 50t45.5 31.5t45.5 22.5t20.5 24q0 11 -13 13.5t-25 2.5q-82 0 -150.5 -33t-128 -86.5t-113 -121.5t-106.5 -136.5t-108 -132.5t-116 -110
q23 -23 34.5 -49.5t11.5 -52.5z" />
    <glyph glyph-name="L" unicode="L" horiz-adv-x="2084" 
d="M2050 1150q88 100 175.5 167.5t168.5 108.5t153.5 58.5t130.5 17.5q20 0 42.5 -2t41.5 -10t31.5 -24t12.5 -44q0 -75 -42.5 -148t-111.5 -139t-157 -124.5t-177.5 -103.5t-173.5 -76t-146 -43q-54 -12 -114 -18q-20 -23 -37.5 -42t-32.5 -36q-75 -83 -146.5 -164.5
t-142 -156t-142 -138.5t-147.5 -113q58 -14 116.5 -27.5t113.5 -24t105 -16.5t91 -6q16 0 46 3.5t81 17t126.5 41t182.5 74.5q2 -6 5 -10q2 -4 3.5 -8t1.5 -6q-53 -24 -110.5 -52t-118.5 -52t-124.5 -40t-128.5 -16q-47 0 -101.5 8t-113 20t-119 27t-120.5 29
q-75 -41 -155 -62.5t-169 -21.5q-40 0 -74.5 8.5t-60 22t-40.5 31.5t-15 38q0 31 15 50.5t39 30t54.5 14t61.5 3.5q53 0 128.5 -14t163.5 -34q55 41 110 94.5t109 112.5t105.5 120t101.5 117q32 35 70.5 80t83.5 96q-48 4 -107 14.5t-111 31.5t-87 52.5t-35 77.5
q0 38 20.5 67.5t53.5 51.5t75 37.5t85 25.5t83.5 15.5t70.5 8.5l6 -12q-32 -2 -78 -17t-89.5 -40.5t-74 -60t-30.5 -74.5q0 -38 25.5 -62t64.5 -39t84.5 -22t85.5 -9q72 83 151 169.5t157 166.5zM1930 824q26 5 51 9.5t51 12.5q48 13 118 42.5t147 71t153 93t136.5 107
t98 113t37.5 111.5q0 13 -7 21t-18 12.5t-24 5.5t-25 1q-45 0 -90.5 -15.5t-90.5 -42.5t-88.5 -62t-84.5 -74q-24 -26 -47 -50t-41 -44zM878 48q45 0 90 15.5t92 42.5q-60 14 -117 22t-105 8q-12 0 -26 -1t-26 -4.5t-20 -10.5t-8 -18t11 -20.5t28 -17t38.5 -12t42.5 -4.5z
" />
    <glyph glyph-name="M" unicode="M" horiz-adv-x="2292" 
d="M342 302q14 0 28 -3.5t24.5 -12t17 -23.5t6.5 -37q0 -32 -15.5 -52t-33.5 -34t-33.5 -25.5t-15.5 -26.5q0 -11 9 -18.5t22 -12t28 -6t27 -1.5q48 0 88.5 5.5t79 16.5t78 27.5t86.5 38.5q29 13 68 37.5t83 55.5t90.5 66t89 70t79.5 67.5t62 57.5l420 412
q207 204 433.5 356t472.5 252q5 2 15 4t21 2q9 0 15.5 -2.5t6.5 -11.5q0 -16 -5.5 -27t-13.5 -18.5t-16.5 -12.5t-14.5 -8q-39 -19 -90 -59t-109 -94.5t-120.5 -120t-123.5 -133.5t-118 -136t-105 -127q-43 -53 -92 -108t-99 -110t-98.5 -108t-90.5 -102q-17 -21 -29 -36
t-23 -27.5t-23.5 -24.5t-30.5 -28q44 30 90.5 65.5t90 71t80.5 68.5t63 59l420 412q207 204 433.5 356t472.5 252q5 2 15 4t21 2q9 0 15.5 -2.5t6.5 -11.5q0 -16 -5.5 -27t-13.5 -18.5t-16.5 -12.5t-14.5 -8q-39 -18 -90 -58.5t-109 -95t-120.5 -120t-123.5 -133.5
t-118 -136t-105 -127q-50 -61 -107.5 -125t-115.5 -127.5t-112 -123t-95.5 -111.5t-66.5 -94t-25 -69q0 -41 14 -53.5t52 -12.5q42 0 96 13.5t110.5 33.5t111 44t98.5 45l10 -24q-152 -74 -275 -117t-209 -43q-24 0 -50 4t-48 17t-36 37t-14 64q0 37 38 97t102.5 139.5
t149.5 175t180 202.5q51 58 93.5 106t80.5 90t75 82.5t78 83.5t89.5 92.5t109.5 111.5q-61 -35 -135 -86.5t-149 -110.5t-144.5 -120t-121.5 -113q-69 -71 -141 -145.5t-147 -149.5t-154 -147.5t-162 -137.5l-10 -8q-51 -39 -108 -78q-41 -29 -86.5 -57.5t-93.5 -52.5
q-59 -30 -100 -48t-69.5 -28t-47 -13t-31.5 -3q-5 0 -12.5 1t-14.5 4t-12 8t-5 13q0 18 32.5 38t85.5 46q60 29 111.5 74.5t108.5 119.5q33 43 74.5 92t89.5 103.5t101 114t109 122.5q51 58 93.5 106t80.5 90t75 82.5t78 83.5t89.5 92.5t109.5 111.5q-61 -35 -135 -86.5
t-149 -110.5t-144.5 -120t-121.5 -113q-98 -101 -202.5 -209t-216.5 -211t-233 -195t-252 -159q-56 -28 -104 -46.5t-91.5 -30t-84 -16.5t-80.5 -5q-51 0 -86.5 14.5t-57.5 37t-32 49.5t-10 53q0 31 11 57.5t29 46t41.5 30t48.5 10.5z" />
    <glyph glyph-name="N" unicode="N" horiz-adv-x="1936" 
d="M1316 312q33 43 74.5 92t89.5 103.5t101 114t109 122.5q51 58 93.5 106t80.5 90t75 82.5t78 83.5t89.5 92.5t109.5 111.5q-61 -35 -135 -86.5t-149 -110.5t-144.5 -120t-121.5 -113q-98 -101 -202.5 -209t-216.5 -211t-233 -195t-252 -159q-56 -28 -104 -46.5t-91.5 -30
t-84 -16.5t-80.5 -5q-51 0 -86.5 14.5t-57.5 37t-32 49.5t-10 53q0 31 11 57.5t29 46t41.5 30t48.5 10.5q14 0 28 -3.5t24.5 -12t17 -23.5t6.5 -37q0 -32 -15.5 -52t-33.5 -34t-33.5 -25.5t-15.5 -26.5q0 -11 9 -18.5t22 -12t28 -6t27 -1.5q48 0 88.5 5.5t79 16.5t78 27.5
t86.5 38.5q28 13 67.5 37.5t83.5 55.5t90.5 66t89 70t79.5 67.5t62 57.5l420 412q207 204 433.5 356t472.5 252q5 2 15 4t21 2q9 0 15.5 -2.5t6.5 -11.5q0 -16 -5.5 -27t-13.5 -18.5t-16.5 -12.5t-14.5 -8q-39 -18 -90 -58.5t-109 -95t-120.5 -120t-123.5 -133.5t-118 -136
t-105 -127q-43 -53 -92 -108t-99 -110t-98.5 -108t-90.5 -102q-17 -21 -29 -36t-23 -27.5t-23.5 -24.5t-30.5 -28q86 47 165 97t158 108.5t161.5 129t174.5 157.5t198 193.5t233 238.5q106 111 188 179.5t148 106.5t120.5 51t107.5 13q62 0 95 -27.5t33 -68.5
q0 -25 -11.5 -53.5t-33 -52.5t-53.5 -40t-72 -16q-12 0 -25.5 3t-25.5 10t-19.5 18.5t-7.5 28.5q0 31 20.5 50t45.5 31.5t45.5 22.5t20.5 24q0 11 -13 13.5t-25 2.5q-44 0 -87 -13t-84.5 -35t-81 -51t-75.5 -61q-54 -48 -99.5 -97t-80.5 -85q-123 -131 -229.5 -239.5
t-205 -200.5t-193 -170t-192 -146.5t-202.5 -129.5t-224 -120q-60 -29 -101 -47t-69.5 -28t-46.5 -13.5t-31 -3.5q-5 0 -12.5 1t-14.5 4t-12 8t-5 13q0 18 32.5 38t85.5 46q60 29 111.5 74.5t108.5 119.5z" />
    <glyph glyph-name="O" unicode="O" horiz-adv-x="2126" 
d="M1564 884q35 68 87 140t116 140t137 129t147.5 106.5t148 72t140.5 26.5q34 0 64 -11.5t52.5 -32.5t36 -52t13.5 -70q0 -91 -35.5 -196.5t-97 -216t-144.5 -221.5t-178 -213.5t-197.5 -191t-203 -153.5t-194.5 -102.5t-172 -37.5q-65 0 -110 18.5t-73 49.5t-40.5 72
t-12.5 86q0 65 16 132.5t42.5 134.5t61 131t71 122t72 107.5t65.5 88.5q61 82 134.5 155.5t149.5 134.5t150 107.5t136 74.5l28 -30q-88 -62 -165 -132.5t-146 -147t-131.5 -159.5t-121.5 -171q-38 -55 -77 -121t-71.5 -140.5t-53 -156t-20.5 -166.5q0 -53 29.5 -77.5
t88.5 -24.5q16 0 57.5 12.5t100.5 40.5t133 72.5t156 109t168 149.5t171 194q27 35 61.5 83t70.5 102.5t70.5 114t61.5 118t43.5 114.5t16.5 104q0 45 -28.5 70.5t-91.5 25.5q-27 0 -69.5 -19t-96.5 -53.5t-118 -83t-132.5 -108t-140.5 -128.5t-143 -144z" />
    <glyph glyph-name="P" unicode="P" horiz-adv-x="2042" 
d="M1776 868q58 66 124.5 138t139.5 142.5t152 135t162 114.5q-33 6 -76 6q-44 0 -94 -2t-104 -8.5t-110 -19t-112 -32.5q-52 -19 -101 -44.5t-87.5 -58t-62 -71.5t-23.5 -84q0 -26 9 -43t21 -17q36 0 74.5 15t76.5 39.5t74.5 56t68.5 64t58.5 63.5t45.5 56l16 -26
q-49 -94 -111 -168q-27 -32 -59 -62t-69.5 -53.5t-80.5 -38t-90 -14.5q-21 0 -38.5 10.5t-30.5 27.5t-20 39t-7 45q0 28 11 56.5t29.5 56t43.5 52.5t54 45q56 39 127 69t150.5 50t163 30.5t165.5 10.5h30t30 -2q48 -3 90 -12q81 42 168 66l16 -26q-27 -17 -53.5 -32.5
t-50.5 -33.5q60 -27 90 -70t30 -96q0 -62 -23 -105t-59 -70t-78.5 -39t-81.5 -12q-17 0 -37 3t-37 11t-28.5 22.5t-11.5 37.5q0 19 8.5 36.5t23 31t33.5 22t39 8.5q26 0 37 -12t11 -24q0 -20 -12.5 -31t-27.5 -18.5t-27.5 -13.5t-12.5 -15q0 -16 32 -16q22 0 47.5 10.5
t48 32t37.5 54.5t15 79q0 42 -13.5 78t-54.5 60q-67 -51 -124.5 -105t-108.5 -107.5t-95 -104.5t-84 -95q-30 -34 -70 -80t-87 -99.5t-98 -111.5t-102.5 -116.5t-102.5 -114t-96 -102.5q-70 -73 -143 -134t-152 -105.5t-164 -69.5t-179 -25q-109 0 -168.5 42t-59.5 110
q0 25 8 51.5t24.5 48t41 35t56.5 13.5q36 0 56 -19t20 -55q0 -33 -15.5 -53.5t-33.5 -34.5t-33.5 -25.5t-15.5 -26.5q0 -21 24 -31.5t66 -10.5q80 0 149 24t132 67t123.5 103t123.5 132q97 110 209.5 236t230.5 260z" />
    <glyph glyph-name="Q" unicode="Q" horiz-adv-x="2250" 
d="M2518 1264q0 -78 -28.5 -160.5t-79 -167t-119.5 -168.5t-150.5 -163.5t-171.5 -153t-182 -137.5t-183 -116t-174 -88q55 -13 108.5 -24.5t103.5 -20.5t95 -14t83 -5q16 0 46 3.5t81 17t126.5 41t182.5 74.5q2 -6 5 -10q2 -4 3.5 -8t1.5 -6q-53 -24 -110.5 -52t-118.5 -52
t-124.5 -40t-128.5 -16q-45 0 -97 7t-107.5 18.5t-114.5 25t-117 27.5q-100 -38 -187 -58t-155 -20q-40 0 -74.5 8.5t-60 22t-40.5 31.5t-15 38q0 31 15 50.5t39 30t54.5 14t61.5 3.5q56 0 139.5 -16.5t178.5 -39.5q72 36 157 88.5t175 118.5t181.5 142.5t176 160t158 170.5
t127.5 174.5t85.5 172.5t31.5 163q0 7 -2 25.5t-9.5 38t-21.5 35t-39 15.5q-15 0 -28 -3t-30 -9q-76 -28 -148 -75t-135.5 -104.5t-116.5 -121.5t-91 -127t-59.5 -120.5t-21.5 -101.5q0 -21 15.5 -31.5t44.5 -10.5q34 0 86 14.5t114.5 49.5t133 93.5t142.5 146.5l16 -18
q-48 -79 -111 -147.5t-132 -119.5t-140 -80t-135 -29q-51 0 -81 18.5t-46 50t-20.5 71.5t-4.5 84q0 77 36 153.5t95.5 146t137.5 130t162 104.5t168 69t157 25q54 0 90 -16.5t57 -47.5t30 -75t9 -99zM1036 48q30 0 79 14.5t111 41.5q-63 14 -121 23t-109 9q-12 0 -26 -1
t-26 -4.5t-20 -10.5t-8 -18t11 -20.5t28 -17t38.5 -12t42.5 -4.5z" />
    <glyph glyph-name="R" unicode="R" horiz-adv-x="2354" 
d="M2300 1402q-44 0 -94 -2t-104 -8.5t-110 -19t-112 -32.5q-52 -19 -101 -44.5t-87.5 -58t-62 -71.5t-23.5 -84q0 -26 9 -43t21 -17q36 0 74.5 15t76.5 39.5t74.5 56t68.5 64t58.5 63.5t45.5 56l16 -26q-49 -94 -111 -168q-27 -32 -59 -62t-69.5 -53.5t-80.5 -38t-90 -14.5
q-21 0 -38.5 10.5t-30.5 27.5t-20 39t-7 45q0 28 11 56.5t29.5 56t43.5 52.5t54 45q56 39 127 69t150.5 50t163 30.5t165.5 10.5h30t30 -2q48 -3 90 -12q81 42 168 66l16 -26q-27 -17 -53.5 -32.5t-50.5 -33.5q60 -27 90 -70t30 -96q0 -41 -14.5 -81.5t-40 -78t-61 -70.5
t-76.5 -58q28 -40 28 -82q0 -51 -29.5 -106.5t-78 -112.5t-110.5 -114t-126.5 -110.5t-126 -103t-110 -91t-78 -74t-29.5 -52.5t7.5 -31.5t20 -17.5t29 -7.5t35.5 -1.5q42 0 96 13.5t110.5 33.5t111 44t98.5 45l10 -24q-152 -74 -275 -117t-209 -43q-24 0 -50 4t-48 17
t-36 37t-14 64q0 37 29.5 80.5t77.5 90.5t109 97.5t125 102t125 103.5t109 102.5t77.5 99t29.5 92.5q0 8 -2.5 17t-7.5 15q-13 -11 -27 -16.5t-27 -8t-22.5 -3t-13.5 -0.5q-23 0 -40.5 7.5t-29.5 18t-18 23t-6 23.5q0 27 23.5 48.5t74.5 21.5q39 0 71.5 -9.5t58.5 -24.5
q27 23 53 51.5t47 59t33.5 61t12.5 58.5q0 42 -13.5 78t-54.5 60q-67 -51 -124.5 -105t-108.5 -107.5t-95 -104.5t-84 -95q-30 -34 -70 -80t-87 -99.5t-98 -111.5t-102.5 -116.5t-102.5 -114t-96 -102.5q-70 -73 -143 -134t-152 -105.5t-164 -69.5t-179 -25
q-109 0 -168.5 42t-59.5 110q0 25 8 51.5t24.5 48t41 35t56.5 13.5q36 0 56 -19t20 -55q0 -33 -15.5 -53.5t-33.5 -34.5t-33.5 -25.5t-15.5 -26.5q0 -21 24 -31.5t66 -10.5q80 0 149 24t132 67t123.5 103t123.5 132q97 110 209.5 236t230.5 260q58 66 124.5 138t139.5 142.5
t152 135t162 114.5q-33 6 -76 6z" />
    <glyph glyph-name="S" unicode="S" horiz-adv-x="2104" 
d="M1752 816q61 67 106.5 116t77.5 84.5t52.5 58.5t33.5 37q88 97 172 170t165.5 122.5t162.5 74.5t164 25q20 0 42.5 -2t41.5 -10t31.5 -24t12.5 -44q0 -75 -42.5 -148t-111.5 -139t-157 -124.5t-177.5 -103.5t-173.5 -76t-146 -43q-53 -12 -118 -18q-47 -53 -97 -110.5
t-101 -114.5t-100.5 -111t-93.5 -100q-70 -73 -143 -134t-152 -105.5t-164 -69.5t-179 -25q-109 0 -168.5 42t-59.5 110q0 25 8 51.5t24.5 48t41 35t56.5 13.5q36 0 56 -19t20 -55q0 -33 -15.5 -53.5t-33.5 -34.5t-33.5 -25.5t-15.5 -26.5q0 -21 24 -31.5t66 -10.5
q80 0 149 24t132 67t123.5 103t123.5 132q78 89 168.5 189t185.5 207q-48 4 -107.5 15t-111.5 32t-87.5 52.5t-35.5 78.5q0 38 20.5 67.5t53.5 51.5t75 37.5t85 25.5t83.5 15.5t70.5 8.5l6 -12q-32 -2 -78 -17t-89.5 -40.5t-74 -60t-30.5 -74.5q0 -38 26 -62.5t65 -39.5
t85 -21.5t86 -8.5zM2302 1232q-97 -97 -186.5 -198.5t-181.5 -207.5q26 3 52.5 8.5t53.5 13.5q36 9 85 28.5t104.5 46.5t114 60.5t114 71.5t105 79t87 83.5t59 85t21.5 83.5q0 13 -7 21t-18 12.5t-24 5.5t-25 1q-45 0 -90.5 -15.5t-90.5 -42.5t-88.5 -62t-84.5 -74z" />
    <glyph glyph-name="T" unicode="T" horiz-adv-x="2186" 
d="M1916 868q51 58 108 120.5t118.5 124t128 120.5t137.5 109q-34 4 -68 9t-76 9.5t-96 7t-128 2.5q-127 0 -235 -29t-187 -73t-123.5 -96t-44.5 -98q0 -19 7 -35.5t24.5 -29t46 -20t72.5 -7.5q35 0 69.5 10.5t67 28t62.5 40t56 46.5q61 55 115 125l14 -26
q-39 -93 -87.5 -151t-99.5 -90t-102.5 -43.5t-96.5 -11.5q-35 0 -70.5 7.5t-64 26.5t-46 51t-17.5 81q0 48 30.5 95.5t82 91.5t119.5 82t143.5 66.5t154 44.5t150.5 16q40 0 87 -5.5t102 -14t119 -18.5t138 -18q48 27 97.5 48.5t100.5 35.5l16 -26q-29 -17 -54.5 -33.5
t-51.5 -34.5q51 -3 107.5 -5.5t118.5 -2.5q39 0 77.5 1t74.5 3l-26 -36q-100 -18 -198 -26t-198 -8h-54q-58 -47 -108.5 -96.5t-95.5 -97.5t-84.5 -93t-75.5 -85q-30 -34 -70 -80t-87 -99.5t-98 -111.5t-102.5 -116.5t-102.5 -114t-96 -102.5q-70 -73 -143 -134t-152 -105.5
t-164 -69.5t-179 -25q-109 0 -168.5 42t-59.5 110q0 25 8 51.5t24.5 48t41 35t56.5 13.5q36 0 56 -19t20 -55q0 -33 -15.5 -53.5t-33.5 -34.5t-33.5 -25.5t-15.5 -26.5q0 -21 24 -31.5t66 -10.5q80 0 149 24t132 67t123.5 103t123.5 132q97 110 209.5 236t230.5 260z" />
    <glyph glyph-name="U" unicode="U" horiz-adv-x="2230" 
d="M2580 1276q41 45 74 77.5t50 32.5q10 0 26.5 -2.5t32 -7t26.5 -11.5t11 -17q0 -4 -10 -17t-26 -31t-35 -39t-37 -40.5t-33.5 -36t-22.5 -24.5q-155 -178 -311.5 -351t-314.5 -351q-55 -62 -102.5 -116t-83 -99t-56 -79t-20.5 -54q0 -11 1 -22.5t6 -20.5t15.5 -15t29.5 -6
q48 0 102.5 11.5t111.5 31t113.5 43.5t108.5 50l10 -24q-70 -36 -139.5 -65.5t-133 -50.5t-118 -32.5t-93.5 -11.5q-24 0 -50 2t-48 12.5t-36 32t-14 61.5q0 12 1.5 24t6.5 26q-35 -32 -76 -62t-86 -53.5t-91.5 -38t-92.5 -14.5t-78.5 12.5t-53.5 32t-30.5 44t-9.5 47.5
q0 49 21 97t54.5 93.5t75.5 89t83 84.5q44 45 103 104.5t121.5 122t122.5 123.5t108 109t77 78t30 31q23 27 46.5 56.5t42.5 58.5t31 57t12 52q0 28 -14.5 52.5t-43.5 43t-73 29.5t-103 11q-33 0 -75.5 -5t-86.5 -15t-86.5 -26.5t-75.5 -39t-53.5 -52t-20.5 -66.5
q0 -25 15.5 -42.5t40.5 -28.5t57 -16t65 -5q38 0 76.5 6.5t74 19t66 31t53.5 41.5l20 -12q-29 -35 -69 -59t-86.5 -39t-96 -21.5t-96.5 -6.5q-57 0 -95 16.5t-60.5 39.5t-31.5 48.5t-9 43.5q5 66 53 119q20 22 51.5 43.5t77.5 38t108 27t144 10.5q88 0 151.5 -12t106.5 -31
t68.5 -43.5t39.5 -48.5t18 -46t4 -37q0 -50 -25 -98t-61 -92.5t-75.5 -84t-68.5 -73.5q-38 -43 -87.5 -93t-104 -102.5t-111.5 -107t-110 -107t-99.5 -102t-79.5 -92.5q-8 -9 -25.5 -32t-35.5 -51.5t-31.5 -58.5t-13.5 -54q0 -21 22 -36.5t58 -15.5q58 0 118.5 30
t120.5 76.5t116 104t105 113.5q33 39 65 74t61 64l4 4t12 13t27.5 30.5t51.5 56.5t83 91t122.5 135t170 187.5t225.5 248.5z" />
    <glyph glyph-name="V" unicode="V" horiz-adv-x="2106" 
d="M1964 1206q-29 -35 -69 -59t-86.5 -39t-96 -21.5t-96.5 -6.5q-57 0 -95 16.5t-60.5 39.5t-31.5 48.5t-9 43.5q5 66 53 119q20 22 51.5 43.5t77.5 38t108 27t144 10.5q89 0 152 -12t106 -31t68.5 -43.5t39.5 -48.5t18 -46t4 -37q0 -50 -25 -98t-61 -92.5t-75.5 -84
t-68.5 -73.5q-38 -43 -87.5 -93t-104 -102.5t-111.5 -107t-110 -107t-99.5 -102t-79.5 -92.5q-8 -9 -25.5 -32t-35.5 -51.5t-31.5 -58.5t-13.5 -54q0 -21 22 -36.5t58 -15.5q38 0 79 12.5t85 35.5q48 27 100 64.5t108 87.5q60 54 127 122t134.5 143.5t133.5 157.5t125 165.5
t108 166t84 159.5q-19 3 -30.5 10.5t-17.5 18t-8 22.5t-2 23q0 24 9.5 48t27 43t42 31t53.5 12t39.5 -17.5t10.5 -38.5q0 -14 -3.5 -26.5t-8.5 -21.5q-12 -30 -28 -62q46 3 83 12.5t68.5 25.5t59 39t53.5 53l16 -16q-25 -39 -66 -72q-35 -28 -93 -54t-143 -34
q-66 -131 -150 -260.5t-182 -252.5t-207.5 -237t-226.5 -214q-57 -48 -113.5 -88.5t-110.5 -67.5q-39 -20 -81 -35t-89 -15h-8q-46 0 -78.5 12.5t-53.5 32t-30.5 44t-9.5 47.5q0 49 21 97t54.5 93.5t75.5 89t83 84.5q44 45 103 104.5t121.5 122t122.5 123.5t108 109t77 78
t30 31q23 27 46.5 56.5t42.5 58.5t31 57t12 52q0 28 -14.5 52.5t-43.5 43t-73 29.5t-103 11q-33 0 -75.5 -5t-86.5 -15t-86.5 -26.5t-75.5 -39t-53.5 -52t-20.5 -66.5q0 -25 15.5 -42.5t40.5 -28.5t57 -16t65 -5q38 0 76.5 6.5t74 19t66 31t53.5 41.5z" />
    <glyph glyph-name="W" unicode="W" horiz-adv-x="2728" 
d="M2016 1206q-29 -35 -69 -59t-86.5 -39t-96 -21.5t-96.5 -6.5q-57 0 -95 16.5t-60.5 39.5t-31.5 48.5t-9 43.5q5 66 53 119q20 22 51.5 43.5t77.5 38t108 27t144 10.5q88 0 151.5 -12t106.5 -31t68.5 -43.5t39.5 -48.5t18 -46t4 -37q0 -50 -25 -98t-61 -92.5t-75.5 -84
t-68.5 -73.5q-38 -43 -87.5 -93t-104 -102.5t-111.5 -107t-110 -107t-99.5 -102t-79.5 -92.5q-8 -9 -25.5 -32t-35.5 -51.5t-31.5 -58.5t-13.5 -54q0 -21 22 -36.5t58 -15.5q61 0 118 34t111.5 86.5t106.5 115t102 118.5q26 30 50.5 56.5t47.5 49.5l4 4t12 13t27.5 30.5
t51.5 56.5t83 91t122.5 135t170 187.5t225.5 248.5q41 45 74 77.5t50 32.5q10 0 26.5 -2.5t32 -7t26.5 -11.5t11 -17q0 -4 -10 -17t-26 -31t-35 -39t-37 -40.5t-33.5 -36t-22.5 -24.5q-155 -178 -311.5 -351t-314.5 -351q-55 -62 -102.5 -116t-83 -99t-56 -79t-20.5 -54
q0 -11 1 -22.5t6 -20.5t15.5 -15t29.5 -6q56 0 112.5 17t112 46t108.5 68t103 83q60 54 127 122t134.5 143.5t133.5 157.5t125 165.5t108 166t84 159.5q-19 3 -30.5 10.5t-17.5 18t-8 22.5t-2 23q0 24 9.5 48t27 43t42 31t53.5 12t39.5 -17.5t10.5 -38.5q0 -14 -3.5 -26.5
t-8.5 -21.5q-12 -30 -28 -62q46 3 83 12.5t68.5 25.5t59 39t53.5 53l16 -16q-25 -39 -66 -72q-35 -28 -93 -54t-143 -34q-66 -131 -150 -260.5t-182 -252.5t-207.5 -237t-226.5 -214q-52 -44 -107 -82.5t-113.5 -68t-120 -46.5t-125.5 -17q-24 0 -52.5 3t-53.5 14.5
t-41.5 34t-16.5 62.5q0 6 1 14t3 16q-33 -31 -68.5 -57.5t-72.5 -46t-75 -31t-76 -11.5q-46 0 -78.5 12.5t-53.5 32t-30.5 44t-9.5 47.5q0 49 21 97t54.5 93.5t75.5 89t83 84.5q44 45 103 104.5t121.5 122t122.5 123.5t108 109t77 78t30 31q23 27 46.5 56.5t42.5 58.5t31 57
t12 52q0 28 -14.5 52.5t-43.5 43t-73 29.5t-103 11q-33 0 -75.5 -5t-86.5 -15t-86.5 -26.5t-75.5 -39t-53.5 -52t-20.5 -66.5q0 -25 15.5 -42.5t40.5 -28.5t57 -16t65 -5q38 0 76.5 6.5t74 19t66 31t53.5 41.5z" />
    <glyph glyph-name="X" unicode="X" horiz-adv-x="2604" 
d="M1920 1462q75 0 122.5 -43.5t67.5 -138.5q6 -35 9 -71.5t3 -72.5q0 -66 -12 -138q20 20 38 40.5t38 41.5q69 72 141 135.5t143 115.5t138.5 90.5t127.5 60.5q34 -23 62 -54.5t48 -70t31 -82t11 -89.5q0 -49 -14 -94.5t-43.5 -80.5t-74.5 -56t-106 -21q-17 0 -37 3t-37 11
t-28.5 22.5t-11.5 37.5q0 19 8.5 36.5t23 31t33.5 22t39 8.5q26 0 37 -12t11 -24q0 -20 -12.5 -31t-27.5 -18.5t-27.5 -13.5t-12.5 -15q0 -16 32 -16q37 0 64.5 17t45.5 45.5t27 65t9 74.5q0 57 -19.5 109t-60.5 79q-39 -22 -94.5 -62t-120 -95t-134.5 -123.5t-137 -147
t-127.5 -166t-106 -180.5t-72 -190.5t-26.5 -195.5q0 -38 14.5 -64t40 -42t60 -23t73.5 -7q60 0 124.5 14t122.5 33.5t103 40t66 34.5q3 -8 5.5 -13.5t4.5 -10.5q-29 -20 -85 -49t-127.5 -55.5t-153 -45t-162.5 -18.5q-109 0 -163.5 53t-54.5 169q0 63 12 126
q-80 -77 -169 -141t-180 -110t-179 -71.5t-164 -25.5q-33 0 -62 6t-50 18.5t-33.5 32.5t-12.5 49q0 23 10.5 45t28.5 39t41 27.5t48 10.5q32 0 46 -15t14 -29q0 -25 -15.5 -39t-34.5 -23.5t-34.5 -17t-15.5 -18.5q0 -12 17 -25t49 -13q65 0 136 24t142.5 66t142 98
t134.5 120t119.5 133t97.5 137q41 66 73 137t55 149q11 50 16.5 101.5t5.5 102.5q0 39 -3.5 77.5t-12.5 76.5q-12 56 -49.5 79t-90.5 23q-60 0 -122 -18.5t-121.5 -48.5t-113.5 -69t-97 -80q-5 8 -8 12.5t-6 9.5q46 48 111.5 98.5t139 91.5t151 67.5t148.5 26.5z" />
    <glyph glyph-name="Y" unicode="Y" horiz-adv-x="2334" 
d="M1534 -38q20 21 40.5 46t43.5 52q-51 -32 -105.5 -51t-108.5 -19q-46 0 -78.5 12.5t-53.5 32t-30.5 44t-9.5 47.5q0 49 21 97t54.5 93.5t75.5 89t83 84.5q44 45 103 104.5t121.5 122t122.5 123.5t108 109t77 78t30 31q23 27 46.5 56.5t42.5 58.5t31 57t12 52
q0 28 -14.5 52.5t-43.5 43t-73 29.5t-103 11q-33 0 -75.5 -5t-86.5 -15t-86.5 -26.5t-75.5 -39t-53.5 -52t-20.5 -66.5q0 -25 15.5 -42.5t40.5 -28.5t57 -16t65 -5q38 0 76.5 6.5t74 19t66 31t53.5 41.5l20 -12q-29 -35 -69 -59t-86.5 -39t-96 -21.5t-96.5 -6.5
q-57 0 -95 16.5t-60.5 39.5t-31.5 48.5t-9 43.5q5 66 53 119q20 22 51.5 43.5t77.5 38t108 27t144 10.5q88 0 151.5 -12t106.5 -31t68.5 -43.5t39.5 -48.5t18 -46t4 -37q0 -50 -25 -98t-61 -92.5t-75.5 -84t-68.5 -73.5q-38 -43 -87.5 -93t-104 -102.5t-111.5 -107
t-110 -107t-99.5 -102t-79.5 -92.5q-8 -9 -25.5 -32t-35.5 -51.5t-31.5 -58.5t-13.5 -54q0 -21 22 -36.5t58 -15.5q57 0 117.5 29t119.5 75t115 102.5t104 111.5q161 184 362 413.5t442 496.5q41 45 74 77.5t50 32.5q10 0 26.5 -2.5t32 -7t26.5 -11.5t11 -17q0 -4 -10 -17
t-26 -31t-35 -39t-37 -40.5t-33.5 -36t-22.5 -24.5q-43 -49 -109 -122.5t-148 -164t-175 -192.5t-189 -207.5t-190.5 -209t-178.5 -196.5q113 54 236 96t254 80l10 -24q-48 -13 -113 -35t-139.5 -51t-154 -64t-155.5 -72q-72 -77 -130 -141t-96 -109t-76.5 -91t-74.5 -88.5
t-67.5 -79.5t-55.5 -63q-78 -85 -165 -132.5t-175 -47.5q-20 0 -39 4.5t-34 15t-24 27t-9 39.5q0 28 21 67.5t62.5 86t103 98t143.5 104.5q89 59 185.5 118t202.5 116zM1066 -566q38 38 88.5 92.5t107 117.5t115 131.5t113.5 136.5q-92 -50 -190.5 -111t-188 -123.5
t-162 -122t-111.5 -107.5q-17 -20 -29.5 -44.5t-12.5 -47.5q0 -20 13.5 -33t48.5 -13q28 0 57.5 12.5t56.5 31t51 40t43 40.5z" />
    <glyph glyph-name="Z" unicode="Z" horiz-adv-x="2042" 
d="M2526 1428q-105 -69 -200 -148.5t-184 -166.5t-173.5 -179t-168.5 -186q-71 -80 -142.5 -164t-147.5 -165t-159.5 -157.5t-178.5 -141.5q58 -14 116.5 -27.5t113.5 -24t105 -16.5t91 -6q16 0 46 3.5t81 17t126.5 41t182.5 74.5q2 -6 5 -10q2 -4 3.5 -8t1.5 -6
q-53 -24 -110.5 -52t-118.5 -52t-124.5 -40t-128.5 -16q-47 0 -101.5 8t-113 20t-119 27t-120.5 29q-75 -41 -155 -62.5t-169 -21.5q-40 0 -74.5 8.5t-60 22t-40.5 31.5t-15 38q0 31 15 50.5t39 30t54.5 14t61.5 3.5q53 0 128.5 -14t163.5 -34q55 41 110 94.5t109 112.5
t105.5 120t101.5 117l67.5 76.5t79.5 91t88.5 101t94.5 105.5q44 50 89 98t101 102q-8 -4 -23 -12t-36 -16.5t-46 -15t-51 -6.5q-36 0 -60 17t-24 61v98q0 9 -6.5 14.5t-15.5 5.5q-12 0 -29.5 -10.5t-46.5 -39.5l-24 20q39 45 73.5 61.5t82.5 16.5q53 0 76.5 -18t23.5 -50
q0 -22 4.5 -35t11.5 -20t16 -9t18 -2q37 0 84 11.5t98 30t104 42.5t102.5 48.5t92.5 48t75 41.5zM774 136q-12 0 -26 -1t-26 -4.5t-20 -10.5t-8 -18t11 -20.5t28 -17t38.5 -12t42.5 -4.5q45 0 90 15.5t92 42.5q-60 14 -117 22t-105 8z" />
    <glyph glyph-name="bracketleft" unicode="[" horiz-adv-x="1334" 
d="M1290 1400l580 -34l-44 -66h-458l-1052 -1200h510l-44 -66l-610 -34z" />
    <glyph glyph-name="backslash" unicode="\" horiz-adv-x="1666" 
d="M1466 2l-68 12l-1208 1378l158 10z" />
    <glyph glyph-name="bracketright" unicode="]" horiz-adv-x="1666" 
d="M1810 1396l-1208 -1378l-608 34l44 66h584l942 1178h-378l44 66z" />
    <glyph glyph-name="asciicircum" unicode="^" horiz-adv-x="1666" 
d="M600 1168l22 60l116 168l258 -140l22 -60l-266 90z" />
    <glyph glyph-name="underscore" unicode="_" horiz-adv-x="1666" 
d="M1066 4h-976l88 100l930 -52z" />
    <glyph glyph-name="grave" unicode="`" horiz-adv-x="538" 
d="M102 1268l40 92l262 -142l22 -60z" />
    <glyph glyph-name="a" unicode="a" horiz-adv-x="1016" 
d="M726 282q-48 -54 -81 -102.5t-33 -83.5q0 -27 19.5 -38.5t48.5 -11.5q27 0 63.5 6t86 21.5t115 41.5t151.5 67l10 -24q-90 -43 -162 -73t-130.5 -49.5t-106 -28.5t-87.5 -9q-25 0 -51 6.5t-47.5 20t-35.5 32.5t-14 45q0 12 3 25t11 27q-83 -81 -159 -118.5t-141 -37.5
q-50 0 -80.5 13.5t-48 35t-23.5 48.5t-6 55q0 47 22 98t59.5 101t87 95.5t104.5 80t111 55t108 20.5q33 0 62 -6t50 -18.5t33.5 -33t12.5 -48.5q0 -32 -18 -74l-34 -16q6 24 6 46q0 16 -3.5 31.5t-11.5 27.5t-21.5 19.5t-33.5 7.5q-43 0 -88 -20.5t-87.5 -54t-80 -75
t-65.5 -84.5t-44.5 -83t-16.5 -69q0 -41 19 -53.5t61 -12.5q50 0 104 31t114 85q27 26 52.5 50t55.5 60q18 22 43.5 52t54 62.5t58 63.5t56 56t47.5 40.5t33 15.5q8 0 22 -3t27.5 -8.5t23 -14t9.5 -18.5q0 -11 -14.5 -28t-35.5 -40z" />
    <glyph glyph-name="b" unicode="b" horiz-adv-x="906" 
d="M736 490q15 57 47 91.5t67 34.5q23 0 36.5 -14t13.5 -38q0 -42 -25 -89.5t-67 -104.5q1 -23 13.5 -41.5t31 -31t41.5 -19t46 -6.5q21 0 41.5 4t40.5 12l12 -18q-20 -15 -45.5 -22.5t-54.5 -7.5q-51 0 -95 21.5t-71 60.5q-62 -71 -138 -129.5t-155.5 -101t-157.5 -66
t-143 -23.5q-41 0 -67.5 8t-42 21.5t-22 32.5t-6.5 42q0 47 29.5 115t79 148t114.5 168.5t136.5 176.5t145 172t139.5 156q20 22 53 54t73 67.5t84.5 70.5t88 63t83 45.5t70.5 17.5q41 0 57.5 -20t16.5 -52q0 -25 -16 -58t-41 -70t-55.5 -75t-59.5 -71t-53.5 -59t-36.5 -39
q-60 -63 -108 -113t-95 -96.5t-98 -95t-117 -108t-152.5 -135.5t-203.5 -178q-11 -27 -16.5 -49.5t-5.5 -40.5q0 -27 22.5 -39.5t51.5 -12.5q60 0 129.5 27t139.5 71.5t135.5 100.5t117.5 115q-14 34 -14 78q0 26 6 50zM850 1046q-53 -54 -112 -115.5t-118.5 -128
t-118 -135.5t-111 -136.5t-97.5 -131t-77 -119.5q55 47 123 107.5t142.5 128t151 139.5t148 143.5t134.5 139t110 125.5t74 104t27 75q0 14 -14 14q-20 0 -50 -19.5t-65.5 -50t-73.5 -68t-73 -72.5z" />
    <glyph glyph-name="c" unicode="c" horiz-adv-x="656" 
d="M102 156q0 -28 11 -47.5t31 -31.5t48 -17.5t62 -5.5q85 0 187.5 33.5t240.5 102.5l10 -24q-50 -32 -115 -62.5t-135.5 -54t-142.5 -37.5t-135 -14q-46 0 -85 8.5t-67.5 27.5t-45 49t-16.5 73q0 46 22 97.5t59.5 101.5t87 95.5t104.5 80t111 55t108 20.5q33 0 62 -6
t50 -18.5t33.5 -33t12.5 -48.5q0 -23 -10.5 -45t-28.5 -39t-41 -27.5t-48 -10.5q-32 0 -46 15t-14 29q0 25 15.5 39t34.5 23.5t34.5 17t15.5 18.5q0 12 -8 17t-20 5q-43 0 -88 -20.5t-87.5 -54t-80 -75t-65.5 -84.5t-44.5 -83t-16.5 -69z" />
    <glyph glyph-name="d" unicode="d" horiz-adv-x="972" 
d="M1052 682q-63 -71 -121.5 -137.5t-106.5 -121t-83 -93t-51 -54.5q-23 -26 -43.5 -50.5t-35.5 -47.5t-24 -43.5t-9 -36.5q0 -27 19.5 -38.5t48.5 -11.5q27 0 63.5 6t86 21.5t115 41.5t151.5 67l10 -24q-90 -43 -162 -73t-130.5 -49.5t-106 -28.5t-87.5 -9q-25 0 -51 6.5
t-47.5 20t-35.5 32.5t-14 45q0 12 3 25t11 27q-83 -81 -159 -118.5t-141 -37.5q-50 0 -80.5 13.5t-48 35t-23.5 48.5t-6 55q0 46 22 97.5t59.5 101.5t87 95.5t104.5 80t111 55t108 20.5q33 0 62 -6t50 -18.5t33.5 -33t12.5 -48.5q0 -32 -18 -74l-34 -16q6 24 6 46
q0 16 -3.5 31.5t-11.5 27.5t-21.5 19.5t-33.5 7.5q-43 0 -88 -20.5t-87.5 -54t-80 -75t-65.5 -84.5t-44.5 -83t-16.5 -69q0 -41 19 -53.5t61 -12.5q50 0 103 31.5t115 84.5q33 30 74 73t80 87l746 834q38 42 71.5 70t50.5 28q8 0 22 -3t27.5 -8.5t23 -14t9.5 -18.5
q0 -11 -14.5 -28t-35.5 -40z" />
    <glyph glyph-name="e" unicode="e" horiz-adv-x="680" 
d="M716 160q-128 -59 -214 -92t-146.5 -49.5t-104.5 -20.5t-89 -4q-35 0 -66.5 9t-55.5 28t-38 49t-14 72q0 48 20.5 99.5t56.5 101t84.5 93.5t105.5 77.5t119.5 53t125.5 19.5q22 0 52 -4t57 -15.5t46 -31.5t19 -51q0 -28 -26 -58t-69.5 -60.5t-100.5 -60.5t-117.5 -57.5
t-121.5 -51.5t-113 -42q-2 -8 -2 -16v-16q0 -38 25 -63t69 -25q39 0 77 3t91 16.5t129 42t191 78.5zM486 534q-26 0 -58 -14.5t-67 -39t-69.5 -57.5t-65 -70.5t-54.5 -77t-36 -77.5q44 16 91.5 35t93 40t86.5 44.5t72 49.5t49 53.5t18 57.5q0 24 -12.5 40t-47.5 16z" />
    <glyph glyph-name="f" unicode="f" horiz-adv-x="682" 
d="M1024 908q-84 -89 -171 -160t-178.5 -138.5t-187.5 -139t-199 -160.5q13 -19 28.5 -52t39.5 -65t58 -55.5t84 -23.5q42 0 98.5 15.5t133.5 54.5l10 -24q-95 -48 -159.5 -67t-108.5 -19q-37 0 -64.5 14t-48 35.5t-35.5 46.5t-26.5 46.5t-21.5 35.5t-20 14q-5 0 -8 -1
t-8 -3q-13 -16 -26.5 -32.5t-29 -36t-34.5 -42.5t-42 -51q-27 -50 -53 -107.5t-49.5 -117t-43.5 -116.5t-34 -105t-32 -100.5t-40 -102t-48 -94t-56 -75.5q-26 -26 -60.5 -40t-69.5 -14q-22 0 -41.5 6.5t-34.5 20t-23.5 35t-8.5 52.5q0 57 34.5 137t91.5 173t130.5 193.5
t151.5 199t154.5 190t139.5 165.5l200 236q80 95 166 196.5t178 201.5q20 22 53 54t73 67.5t84.5 70.5t88 63t83 45.5t70.5 17.5q41 0 58.5 -15t17.5 -41q0 -29 -18 -67t-45.5 -79.5t-60 -82t-62 -74.5t-51.5 -57t-27 -28zM930 1038q-127 -127 -244 -260.5t-230 -275.5
q58 47 116.5 91.5t117 89.5t117 91.5t117.5 97.5q33 29 66.5 62t65 67.5t59 68.5t48 64.5t32 56t11.5 43.5q0 14 -14 14q-20 0 -50 -19.5t-65.5 -50t-73.5 -68t-73 -72.5zM-76 -240q21 62 44 118t50 110q-17 -21 -35 -43.5t-39 -48.5q-60 -74 -119 -154t-106 -155t-76 -138
t-29 -103q0 -39 13.5 -52.5t30.5 -13.5q16 0 34 11.5t35 28.5t31.5 37.5t23.5 38.5q29 54 62 142t80 222z" />
    <glyph glyph-name="g" unicode="g" horiz-adv-x="914" 
d="M588 156q-30 -35 -58.5 -66.5t-57.5 -61.5q122 56 252 104.5t270 87.5l10 -24q-53 -14 -120 -37t-142.5 -53t-158 -66t-167.5 -76q-183 -202 -312 -352t-210 -236q-29 -30 -61.5 -58t-69.5 -49t-77.5 -34t-83.5 -13q-20 0 -39 4.5t-34 15t-24 27t-9 39.5q0 28 21 67.5
t62.5 86t103 98t143.5 104.5q89 59 185.5 118t202.5 116q36 45 71.5 88.5t70.5 85.5q-54 -38 -104.5 -55t-95.5 -17q-50 0 -80.5 13.5t-48 35t-23.5 48.5t-6 55q0 46 22 97.5t59.5 101.5t87 95.5t104.5 80t111 55t108 20.5q33 0 62 -6t50 -18.5t33.5 -33t12.5 -48.5
q0 -32 -18 -74l-34 -16q6 24 6 46q0 16 -3.5 31.5t-11.5 27.5t-21.5 19.5t-33.5 7.5q-43 0 -88 -20.5t-87.5 -54t-80 -75t-65.5 -84.5t-44.5 -83t-16.5 -69q0 -41 19 -53.5t61 -12.5q50 0 103 31.5t115 84.5q14 12 29.5 26.5t32.5 31.5q11 14 22 27t22 25q18 22 43.5 52
t54 62.5t58 63.5t56 56t47.5 40.5t33 15.5q8 0 22 -3t27.5 -8.5t23 -14t9.5 -18.5q0 -11 -14.5 -28t-35.5 -40l-166 -188q-7 -7 -21 -22.5t-31.5 -35.5t-36.5 -43t-35 -45zM-230 -618q38 38 83.5 88t96 108.5t104 123t108.5 132.5q-92 -50 -178 -103t-160.5 -105.5
t-134.5 -104t-99 -99.5q-17 -20 -29.5 -44.5t-12.5 -47.5q0 -20 13.5 -33t48.5 -13q16 0 36.5 8.5t41.5 22t42 31t40 36.5z" />
    <glyph glyph-name="h" unicode="h" horiz-adv-x="1042" 
d="M504 440q-80 -57 -151.5 -121t-140.5 -133q-17 -20 -37 -42t-39.5 -43t-38.5 -40.5t-35 -32.5q-12 -12 -22 -19t-24 -7q-5 0 -10.5 0.5t-13.5 3.5q-18 6 -31 16.5t-13 25.5q0 6 3 14t9 16l404 462q49 56 105.5 117t116.5 125t121.5 129.5t122.5 130.5q20 22 53 54
t73 67.5t84.5 70.5t88 63t83 45.5t70.5 17.5q41 0 57.5 -20t16.5 -52q-1 -32 -28.5 -78.5t-70.5 -99t-96 -106.5t-104.5 -101t-95.5 -84t-69 -55q-42 -31 -84.5 -58t-86 -54t-90 -57t-95.5 -67q-12 -17 -23 -32t-23 -30q15 13 45.5 35t71 43.5t87.5 37.5t94 16
q64 0 87 -18.5t23 -51.5q0 -38 -22 -78.5t-54.5 -80.5t-70 -78.5t-70 -73.5t-54 -65.5t-21.5 -53.5q0 -14 5 -22.5t12.5 -13t17 -5.5t19.5 -1q57 0 113 11t110.5 29t107.5 41.5t103 48.5l10 -24q-33 -22 -91 -50t-130 -53t-153.5 -42t-161.5 -17q-47 0 -75.5 23t-28.5 73
q0 24 16 56t41.5 66.5t57 70.5t62 69t57.5 61.5t44 48.5q6 9 17 23.5t11 26.5q0 8 -6.5 13t-21.5 5q-31 0 -59.5 -6.5t-57 -18.5t-58.5 -30t-63 -41zM1000 1046q-94 -94 -190.5 -196.5t-187.5 -211.5q43 28 87 55t89 57t92.5 65t99.5 81q49 43 100 93t92.5 97.5t67.5 88.5
t26 67q0 14 -14 14q-20 0 -50 -19.5t-65.5 -50t-73.5 -68t-73 -72.5z" />
    <glyph glyph-name="i" unicode="i" horiz-adv-x="546" 
d="M752 856q0 -17 -9 -32t-23.5 -26t-33.5 -17.5t-38 -6.5q-14 0 -27.5 3t-25 11t-18.5 21.5t-7 34.5q0 18 10 31t25 21t34 12t37 4q30 0 50.5 -13.5t25.5 -42.5zM160 160q-15 -18 -23.5 -36.5t-8.5 -29.5q0 -26 16.5 -33t45.5 -7q27 0 66.5 4.5t92 18.5t119 39.5
t148.5 67.5l10 -24q-77 -46 -152.5 -77t-145 -50t-130.5 -27t-108 -8q-54 0 -79 26.5t-25 71.5q0 24 16 54.5t52 77.5q38 48 80 94t84 96q28 33 58 65.5t57 58.5t49 42t34 16q8 0 22 -3t27.5 -8.5t23 -14t9.5 -18.5q0 -11 -14.5 -28t-35.5 -40l-166 -188q-7 -7 -20.5 -21.5
t-30 -34t-35.5 -41.5t-36 -43z" />
    <glyph glyph-name="j" unicode="j" horiz-adv-x="526" 
d="M730 862q0 -17 -9 -32t-23.5 -26t-33.5 -17.5t-38 -6.5q-14 0 -27.5 3t-25 11t-18.5 21.5t-7 34.5q0 18 10 31t25 21t34 12t37 4q30 0 50.5 -13.5t25.5 -42.5zM178 154q-30 -35 -58.5 -66.5t-57.5 -61.5q122 56 252 104.5t270 87.5l10 -24q-53 -14 -120 -37t-142.5 -53
t-158 -66t-167.5 -76q-183 -202 -312 -352t-210 -236q-29 -30 -61.5 -58t-69.5 -49t-77.5 -34t-83.5 -13q-20 0 -39 4.5t-34 15t-24 27t-9 39.5q0 28 21 67.5t62.5 86t103 98t143.5 104.5q89 59 185.5 118t202.5 116l340 414q19 22 44 52t53.5 62.5t58 63.5t56 56t47.5 40.5
t33 15.5q8 0 22 -3t27.5 -8.5t23 -14t9.5 -18.5q0 -11 -14.5 -28t-35.5 -40l-166 -188q-7 -7 -21 -22.5t-31.5 -35.5t-36.5 -43t-35 -45zM-640 -620q38 38 83.5 88t96 108.5t104 123t108.5 132.5q-92 -50 -178 -103t-160.5 -105.5t-134.5 -104t-99 -99.5
q-17 -20 -29.5 -44.5t-12.5 -47.5q0 -20 13.5 -33t48.5 -13q16 0 36.5 8.5t41.5 22t42 31t40 36.5z" />
    <glyph glyph-name="k" unicode="k" horiz-adv-x="960" 
d="M230 398q30 35 62.5 71.5t62 66t53.5 48t38 18.5q8 0 22 -3t27.5 -8.5t23 -14t9.5 -18.5q0 -11 -14.5 -28t-35.5 -40q-17 -18 -31.5 -33t-26.5 -29q37 27 85 55.5t97 52.5t94.5 39t79.5 15q20 0 40 -4.5t35.5 -13.5t25 -23.5t9.5 -34.5q0 -23 -10.5 -45t-28 -39
t-40 -27.5t-47.5 -10.5q-32 0 -46 14.5t-14 29.5q0 24 13 36.5t31 23.5q5 3 14.5 7t18.5 9t16 10.5t7 11.5q0 8 -6 15t-18 7q-30 0 -67.5 -11.5t-77.5 -30t-80 -41.5t-76 -47t-66.5 -46t-50.5 -38q37 16 65.5 25.5t51.5 15t42 7.5t39 2q51 0 73.5 -18.5t22.5 -47.5
q0 -35 -19.5 -65.5t-42.5 -58.5t-42.5 -53.5t-19.5 -48.5q0 -24 12 -34t44 -10q86 0 196.5 32t235.5 98l10 -24q-46 -28 -106.5 -56.5t-130 -52t-146 -38.5t-153.5 -15q-45 0 -69.5 20t-24.5 56q0 11 1.5 22.5t6.5 23.5q12 32 32 58t39.5 48.5t34 44t14.5 45.5
q0 21 -7.5 26.5t-30.5 5.5q-24 0 -55 -9t-63 -23.5t-61.5 -32.5t-50.5 -37q-33 -36 -77 -84.5t-111 -121.5q-21 -23 -34.5 -31.5t-27.5 -8.5q-12 0 -24 4t-22 10t-16 14t-6 16q0 17 10.5 30t15.5 18z" />
    <glyph glyph-name="l" unicode="l" horiz-adv-x="562" 
d="M890 914q-60 -63 -108 -113t-95 -96.5t-98 -95t-117 -108t-152.5 -135.5t-203.5 -178q-11 -27 -16.5 -49.5t-5.5 -40.5q0 -14 8 -23.5t20.5 -15.5t28 -8.5t29.5 -2.5q27 0 63.5 6t86 21.5t115 41.5t151.5 67l10 -24q-90 -43 -162 -73t-130.5 -49.5t-106 -28.5t-87.5 -9
q-41 0 -67.5 8t-42 21.5t-22 32.5t-6.5 42q0 47 29.5 115t79 148t114.5 168.5t136.5 176.5t145 172t139.5 156q20 22 53 54t73 67.5t84.5 70.5t88 63t83 45.5t70.5 17.5q41 0 57.5 -20t16.5 -52q0 -25 -16 -58t-41 -70t-55.5 -75t-59.5 -71t-53.5 -59t-36.5 -39zM796 1044
q-53 -53 -112 -115t-118.5 -128.5t-118 -135.5t-111 -136.5t-97.5 -131t-77 -119.5q55 47 123 107.5t142.5 128t151 139.5t148 143.5t134.5 139t110 125.5t74 104t27 75q0 14 -14 14q-20 0 -50 -19.5t-65.5 -50t-73.5 -68t-73 -72.5z" />
    <glyph glyph-name="m" unicode="m" horiz-adv-x="1434" 
d="M52 8q-6 -3 -13 -5.5t-13 -2.5q-10 0 -21.5 3.5t-22 9.5t-17.5 14t-7 17q0 18 9 28.5t17 19.5l266 304q30 35 62.5 71.5t62 66t53.5 48t38 18.5q8 0 22 -3t27.5 -8.5t23 -14t9.5 -18.5q0 -11 -14.5 -28t-35.5 -40l-10 -10q26 17 63.5 37.5t79.5 38.5t85.5 30t81.5 12
q64 0 87 -18.5t23 -51.5q0 -11 -2.5 -20t-5.5 -20q22 16 52 34.5t65.5 35t74.5 27.5t78 11q64 0 87 -18.5t23 -51.5q0 -38 -22 -78.5t-54.5 -80.5t-70 -78.5t-70 -73.5t-54 -65.5t-21.5 -53.5q0 -14 5 -22.5t12.5 -13t17 -5.5t19.5 -1q57 0 113 11t110.5 29t107.5 41.5
t103 48.5l10 -24q-33 -22 -91 -50t-130 -53t-153.5 -42t-161.5 -17q-47 0 -75.5 23t-28.5 73q0 25 16 56.5t41.5 66t57 70.5t62 69t57.5 61.5t44 48.5q6 9 17 23.5t11 26.5q0 8 -6.5 13t-21.5 5q-62 0 -113.5 -25t-110.5 -75q-4 -3 -17 -16t-32.5 -33t-44 -45t-51 -51.5
t-52.5 -53t-49 -49.5q-18 -19 -38 -41t-39.5 -43.5t-38 -41t-34.5 -32.5q-12 -12 -22 -19t-24 -7q-5 0 -10.5 0.5t-13.5 3.5q-18 6 -31 16.5t-13 25.5q0 6 3 14t9 16l350 390q8 8 18 23t10 27q0 8 -6.5 13t-21.5 5q-31 0 -59.5 -6.5t-57 -18.5t-58.5 -30t-63 -41
q-80 -57 -151.5 -121t-140.5 -133q-30 -35 -66 -75t-68 -69q-19 -22 -36 -32z" />
    <glyph glyph-name="n" unicode="n" horiz-adv-x="986" 
d="M2 4q-5 -2 -10 -2h-10q-12 0 -23.5 4.5t-20.5 11t-14.5 14t-5.5 14.5q0 12 7.5 24.5t18.5 23.5l266 304q30 35 62.5 71.5t62 66t53.5 48t38 18.5q8 0 22 -3t27.5 -8.5t23 -14t9.5 -18.5q0 -11 -14.5 -28t-35.5 -40l-16 -18q22 15 57.5 36.5t78.5 41.5t89.5 34t90.5 14
q64 0 87 -18.5t23 -51.5q0 -38 -22 -78.5t-54.5 -80.5t-70 -78.5t-70 -73.5t-54 -65.5t-21.5 -53.5q0 -14 5 -22.5t12.5 -13t17 -5.5t19.5 -1q57 0 113 11t110.5 29t107.5 41.5t103 48.5l10 -24q-33 -22 -91 -50t-130 -53t-153.5 -42t-161.5 -17q-47 0 -75.5 23t-28.5 73
q0 24 16 56t41.5 66.5t57 70.5t62 69t57.5 61.5t44 48.5q6 9 17 23.5t11 26.5q0 8 -6.5 13t-21.5 5q-31 0 -59.5 -6.5t-57 -18.5t-58.5 -30t-63 -41q-80 -57 -151.5 -121t-140.5 -133q-30 -35 -66 -75t-68 -69q-15 -17 -26 -25t-20 -13z" />
    <glyph glyph-name="o" unicode="o" horiz-adv-x="812" 
d="M730 204q-48 0 -85.5 16.5t-64.5 45.5q-54 -85 -107 -138t-102.5 -83t-95 -40.5t-85.5 -10.5q-48 0 -84 11.5t-60 31t-36 46t-12 57.5q0 63 25 122.5t67 111t96.5 94t112.5 73t116 47t107 16.5q26 0 52 -4t47 -16t34 -33t13 -55q0 -23 -4.5 -47.5t-10.5 -47.5t-13.5 -44
t-13.5 -37q8 -39 43.5 -59.5t76.5 -20.5q33 0 66.5 13t59.5 37l20 -16q-26 -32 -70 -51t-92 -19zM232 54q33 0 75 14t85.5 44t85.5 77t76 113q-34 56 -34 118q0 32 14.5 58.5t43.5 53.5q-6 3 -15.5 4.5t-26.5 1.5q-35 0 -84.5 -24t-101 -64.5t-97.5 -94.5t-73 -113
q-12 -24 -23 -55.5t-11 -60.5q0 -30 18 -51t68 -21z" />
    <glyph glyph-name="p" unicode="p" horiz-adv-x="1078" 
d="M520 440q-80 -57 -151.5 -121t-140.5 -133q-9 -10 -45 -50.5t-89.5 -100.5t-119 -134t-134 -150t-134 -149.5t-118.5 -132t-88.5 -96.5t-43.5 -45q-12 -12 -22 -19t-24 -7q-5 0 -10.5 0.5t-13.5 3.5q-18 6 -31 16.5t-13 25.5q0 11 5.5 20t20.5 26l994 1128q8 8 15 16.5
t15 17.5q28 33 58 65.5t57 58.5t49 42t34 16q8 0 22 -3t27.5 -8.5t23 -14t9.5 -18.5q0 -11 -14.5 -28t-35.5 -40l-110 -124q65 47 140 71.5t152 24.5q64 0 87 -18.5t23 -51.5q0 -38 -22 -78.5t-54.5 -80.5t-70 -78.5t-70 -73.5t-54 -65.5t-21.5 -53.5q0 -14 5 -22.5
t12.5 -13t17 -5.5t19.5 -1q57 0 113 11t110.5 29t107.5 41.5t103 48.5l10 -24q-33 -22 -91 -50t-130 -53t-153.5 -42t-161.5 -17q-47 0 -75.5 23t-28.5 73q0 24 16 56t41.5 66.5t57 70.5t62 69t57.5 61.5t44 48.5q6 9 17 23.5t11 26.5q0 8 -6.5 13t-21.5 5q-31 0 -59.5 -6.5
t-57 -18.5t-58.5 -30t-63 -41z" />
    <glyph glyph-name="q" unicode="q" horiz-adv-x="1148" 
d="M550 260q11 14 22 27t22 25l136 156q25 28 48.5 52.5t44 42.5t36.5 28.5t27 10.5q8 0 22 -3t27.5 -8.5t23 -14t9.5 -18.5q0 -11 -14.5 -28t-35.5 -40l-176 -186q13 -20 28.5 -52.5t39 -63t57 -52.5t81.5 -22q42 0 98.5 15.5t133.5 54.5l10 -24q-95 -48 -159.5 -67
t-108.5 -19q-37 0 -64.5 14t-48 35.5t-35.5 46.5t-26.5 46.5t-21.5 35.5t-20 14q-10 -11 -29.5 -32t-42 -46t-44.5 -50t-36 -42q-14 -27 -28.5 -59.5t-31.5 -70.5q-27 -63 -58 -141.5t-58 -170.5q-14 -48 -32 -100.5t-40 -102t-48 -94t-56 -75.5q-26 -26 -60.5 -40
t-69.5 -14q-22 0 -41.5 6.5t-34.5 20t-23.5 35t-8.5 52.5q0 53 31 126t82 158.5t117.5 179t137.5 188.5q4 6 12.5 17t17.5 22.5t17 21t11 13.5q-106 -68 -194 -68q-50 0 -80.5 13.5t-48 35t-23.5 48.5t-6 55q0 46 22 97.5t59.5 101.5t87 95.5t104.5 80t111 55t108 20.5
q33 0 62 -6t50 -18.5t33.5 -33t12.5 -48.5q0 -32 -18 -74l-34 -16q6 24 6 46q0 16 -3.5 31.5t-11.5 27.5t-21.5 19.5t-33.5 7.5q-43 0 -88 -20.5t-87.5 -54t-80 -75t-65.5 -84.5t-44.5 -83t-16.5 -69q0 -41 19 -53.5t61 -12.5q50 0 103 31.5t115 84.5zM374 -240
q21 62 43 118t51 110q-17 -21 -35 -43.5t-39 -48.5q-60 -74 -119 -154t-106 -155t-76 -138t-29 -103q0 -39 13.5 -52.5t30.5 -13.5q16 0 34 11.5t35 28.5t31.5 37.5t23.5 38.5q29 54 62 142t80 222z" />
    <glyph glyph-name="r" unicode="r" horiz-adv-x="846" 
d="M324 734q21 0 40.5 -9t31.5 -27q15 -18 19.5 -46.5t4.5 -61.5l-2 -50q14 -5 35.5 -8.5t44.5 -3.5q44 0 103 15t139 59q2 -2 4 -6t5 -9t7 -11q-18 -9 -30 -18t-24 -20q-13 -11 -33.5 -32.5t-42.5 -45.5t-42.5 -48.5t-33.5 -41.5q-32 -41 -61.5 -83t-52 -79t-35.5 -66.5
t-13 -45.5q0 -26 16.5 -33t45.5 -7q27 0 66.5 4.5t92 18.5t119 39.5t148.5 67.5l10 -24q-77 -46 -152.5 -77t-145 -50t-130.5 -27t-108 -8q-54 0 -79 26.5t-25 71.5q0 18 10 41t31 54.5t54.5 72.5t80.5 96q3 3 13 14.5t23.5 26t29 31t28.5 30.5t22.5 24t11.5 12
q-14 -3 -31 -5.5t-35 -2.5q-17 0 -37 0.5t-37 3.5q-6 -30 -16.5 -58t-28.5 -55t-45.5 -53t-67.5 -52l-26 16q41 23 67 51t41 56.5t20.5 57t7.5 53.5q-26 8 -49.5 21t-41 30t-27.5 39t-10 48q0 36 25.5 60t64.5 24z" />
    <glyph glyph-name="s" unicode="s" horiz-adv-x="798" 
d="M180 304q15 0 28 -4t22 -10q42 29 94 65.5t107 75t109 77t101 72t84 60t57 40.5l18 -30q-23 -23 -38.5 -44.5t-24.5 -42t-13 -40.5t-4 -41q0 -96 -21.5 -169.5t-58 -127t-84.5 -89t-101.5 -57t-109.5 -30.5t-107 -9q-33 0 -72.5 8.5t-73.5 26t-57 44.5t-23 65
q0 31 14 59.5t37.5 51t54 36t62.5 13.5zM586 494q-43 -29 -80.5 -54t-76.5 -52t-82 -57t-95 -67q6 -9 6 -18q0 -21 -9.5 -36.5t-24 -26t-31.5 -18.5t-31.5 -15t-24 -14.5t-9.5 -17.5q0 -13 7 -22.5t18 -15.5t24 -9t25 -3q24 0 49.5 6t48.5 14q52 16 100.5 48.5t87.5 82.5
t65 118t33 157z" />
    <glyph glyph-name="t" unicode="t" horiz-adv-x="620" 
d="M626 864q29 35 58.5 70t59.5 70q19 22 44 52t53.5 62.5t58 63.5t56 56t47.5 40.5t33 15.5q8 0 22 -3t27.5 -8.5t23 -14t9.5 -18.5q0 -11 -14.5 -28t-35.5 -40l-166 -188q-7 -7 -20 -21.5t-29.5 -34t-35.5 -41t-37 -41.5l234 -14l-44 -66h-260q-52 -59 -104.5 -119.5
t-101.5 -117.5t-93 -108t-78.5 -92t-59 -69.5t-33.5 -39.5q-36 -42 -59 -78.5t-23 -57.5q0 -26 16.5 -33t45.5 -7q27 0 66.5 4.5t92 18.5t119 39.5t148.5 67.5l10 -24q-77 -46 -152.5 -77t-145 -50t-130.5 -27t-108 -8q-54 0 -79 26.5t-25 71.5q0 29 23.5 69t76.5 105
q6 7 26.5 31.5t52.5 61.5t73 85t87.5 101.5t96.5 111t100 115.5h-192l74 100z" />
    <glyph glyph-name="u" unicode="u" horiz-adv-x="972" 
d="M540 312q18 22 43 52.5t53.5 62.5t57.5 63t55.5 55.5t47.5 39.5t33 15q8 0 22 -3t27.5 -8.5t23 -14t9.5 -18.5q0 -11 -14.5 -28t-35.5 -40q-47 -54 -81.5 -92.5t-61 -67.5t-46.5 -52t-39 -46q-36 -42 -61 -77t-25 -55q0 -14 5 -22.5t12.5 -13t17 -5.5t19.5 -1
q57 0 113 11t110.5 29t107.5 41.5t103 48.5l10 -24q-33 -22 -91 -50t-130 -53t-153.5 -42t-161.5 -17q-47 0 -75.5 23t-28.5 73q0 14 6 32q-19 -14 -53.5 -35.5t-78 -42t-91.5 -35.5t-93 -15q-65 0 -90.5 20.5t-25.5 53.5q0 25 14 54.5t36 60t48 61.5t50 60q18 22 43.5 52
t54 62.5t58 63.5t56 56t47.5 40.5t33 15.5q8 0 22 -3t27.5 -8.5t23 -14t9.5 -18.5q0 -11 -14.5 -28t-35.5 -40l-166 -188q-7 -8 -22.5 -25t-34.5 -39.5t-39.5 -47t-37 -46.5t-27.5 -39t-11 -23q0 -8 6.5 -13t21.5 -5q31 0 65 9t69.5 24t71 35.5t68.5 43.5q11 8 33 33t45 51z
" />
    <glyph glyph-name="v" unicode="v" horiz-adv-x="842" 
d="M806 212q-60 0 -104.5 24t-73.5 62q-24 -26 -49.5 -49.5t-49.5 -44.5t-46 -38t-39 -30q-14 -11 -48.5 -33.5t-80 -45t-97 -40t-100.5 -17.5q-65 0 -90.5 20.5t-25.5 53.5q0 25 14 54.5t36 60t48 61.5t50 60q18 22 43.5 52t54 62.5t58 63.5t56 56t47.5 40.5t33 15.5
q8 0 22 -3t27.5 -8.5t23 -14t9.5 -18.5q0 -11 -14.5 -28t-35.5 -40l-166 -188q-7 -8 -22.5 -25t-34.5 -39.5t-39.5 -47t-37 -46.5t-27.5 -39t-11 -23q0 -8 6.5 -13t21.5 -5q31 0 65 9t69.5 24t71 35.5t68.5 43.5q5 4 21.5 16t39.5 32.5t51.5 48.5t57.5 63q-22 47 -22 94
q0 32 12 62.5t33 54t49 37.5t60 14q18 0 25 -13t7 -31v-10q-3 -42 -28.5 -88.5t-61.5 -93.5q4 -35 18 -56.5t33 -34t40.5 -17t40.5 -4.5q35 0 69.5 13.5t58.5 36.5l20 -16q-8 -11 -22.5 -23t-35 -22.5t-45.5 -17.5t-53 -7z" />
    <glyph glyph-name="w" unicode="w" horiz-adv-x="1218" 
d="M1208 212q-60 0 -104.5 24t-73.5 62q-24 -26 -49.5 -49.5t-49.5 -44.5t-46 -38t-39 -30q-14 -11 -48.5 -33.5t-80 -45t-97 -40t-100.5 -17.5q-65 0 -90.5 20.5t-25.5 53.5q0 11 2.5 22.5t7.5 23.5q-22 -15 -56.5 -35.5t-75.5 -39.5t-85.5 -32t-86.5 -13q-65 0 -90.5 20.5
t-25.5 53.5q0 25 14 54.5t36 60t48 61.5t50 60q18 22 43.5 52t54 62.5t58 63.5t56 56t47.5 40.5t33 15.5q8 0 22 -3t27.5 -8.5t23 -14t9.5 -18.5q0 -11 -14.5 -28t-35.5 -40l-166 -188q-7 -8 -22.5 -25t-34.5 -39.5t-39.5 -47t-37 -46.5t-27.5 -39t-11 -23q0 -8 6.5 -13
t21.5 -5q31 0 65 9t69.5 24t71 35.5t68.5 43.5q9 6 27.5 26t38.5 44l56 66q19 22 44 52t53.5 62.5t58 63.5t56 56t47.5 40.5t33 15.5q8 0 22 -3t27.5 -8.5t23 -14t9.5 -18.5q0 -11 -14.5 -28t-35.5 -40l-166 -188q-7 -8 -22.5 -25t-34.5 -39.5t-39.5 -47t-37 -46.5
t-27.5 -39t-11 -23q0 -8 6.5 -13t21.5 -5q31 0 65 9t69.5 24t71 35.5t68.5 43.5q5 4 21.5 16t39.5 32.5t51.5 48.5t57.5 63q-22 47 -22 94q0 32 12 62.5t33 54t49 37.5t60 14q18 0 25 -13t7 -31v-10q-3 -42 -28.5 -88.5t-61.5 -93.5q4 -35 18 -56.5t33 -34t40.5 -17
t40.5 -4.5q35 0 69.5 13.5t58.5 36.5l20 -16q-8 -11 -22.5 -23t-35 -22.5t-45.5 -17.5t-53 -7z" />
    <glyph glyph-name="x" unicode="x" horiz-adv-x="996" 
d="M238 500q44 48 101.5 78t122.5 30q62 0 102 -26.5t54 -79.5q60 48 125.5 77t128.5 29q33 0 62 -6t50 -18.5t33.5 -33t12.5 -48.5q0 -23 -10.5 -45t-28.5 -39t-41 -27.5t-48 -10.5q-32 0 -46 15t-14 29q0 25 15.5 39t34.5 23.5t34.5 17t15.5 18.5q0 12 -8 17t-20 5
q-43 0 -88 -20.5t-87.5 -54t-80 -75t-65.5 -84.5t-44.5 -83t-16.5 -69q0 -28 11 -47.5t31 -31.5t48 -17.5t62 -5.5q85 0 187.5 33.5t240.5 102.5l10 -24q-50 -32 -115 -62.5t-135.5 -54t-142.5 -37.5t-135 -14q-75 0 -120 24t-60 78q-59 -45 -122.5 -73.5t-125.5 -28.5
q-33 0 -62 6t-50 18.5t-33.5 32.5t-12.5 49q0 23 10.5 45t28.5 39t41 27.5t48 10.5q32 0 46 -15t14 -29q0 -25 -15.5 -39t-34.5 -23.5t-34.5 -17t-15.5 -18.5q0 -12 8 -17t20 -5q43 0 89 22t89.5 58t82 80.5t68 90t46.5 87t17 70.5q0 54 -24.5 76t-59.5 22q-21 0 -45.5 -9.5
t-48.5 -24.5t-46 -32t-38 -32z" />
    <glyph glyph-name="y" unicode="y" horiz-adv-x="866" 
d="M542 154q-30 -35 -58.5 -66.5t-57.5 -61.5q122 56 252 104.5t270 87.5l10 -24q-53 -14 -120 -37t-142.5 -53t-158 -66t-167.5 -76q-183 -202 -312 -352t-210 -236q-29 -30 -61.5 -58t-69.5 -49t-77.5 -34t-83.5 -13q-20 0 -39 4.5t-34 15t-24 27t-9 39.5q0 28 21 67.5
t62.5 86t103 98t143.5 104.5q89 59 185.5 118t202.5 116q81 102 162 198q-26 -15 -57.5 -31.5t-66 -30.5t-70.5 -23t-70 -9q-65 0 -90.5 20.5t-25.5 53.5q0 25 14 54.5t36 60t48 61.5t50 60q19 22 44 52t53.5 62.5t58 63.5t56 56t47.5 40.5t33 15.5q8 0 22 -3t27.5 -8.5
t23 -14t9.5 -18.5q0 -11 -14.5 -28t-35.5 -40l-166 -188q-7 -8 -22.5 -25t-34.5 -39.5t-39.5 -47t-37 -46.5t-27.5 -39t-11 -23q0 -8 6.5 -13t21.5 -5q31 0 65 9t69.5 24t71 35.5t68.5 43.5q6 5 19 19t39 41q14 17 27 33t27 31q8 8 10 12q18 22 43.5 52t54 62.5t58 63.5
t56 56t47.5 40.5t33 15.5q8 0 22 -3t27.5 -8.5t23 -14t9.5 -18.5q0 -11 -14.5 -28t-35.5 -40l-166 -188q-7 -7 -21 -22.5t-31.5 -35.5t-36.5 -43t-35 -45zM-276 -620q38 38 83.5 88t96 108.5t104 123t108.5 132.5q-92 -50 -178 -103t-160.5 -105.5t-134.5 -104t-99 -99.5
q-17 -20 -29.5 -44.5t-12.5 -47.5q0 -20 13.5 -33t48.5 -13q16 0 36.5 8.5t41.5 22t42 31t40 36.5z" />
    <glyph glyph-name="z" unicode="z" horiz-adv-x="820" 
d="M384 596q30 0 46.5 -8.5t25 -22t12.5 -28.5t8.5 -28.5t13 -22t26.5 -8.5q37 0 79.5 13t86 33.5t87.5 45.5t85 50l20 -18q-77 -52 -163.5 -102.5t-173.5 -103t-171 -109t-156 -119.5q26 8 54 13t58 5q37 0 71 -17t63 -37t53 -37t41 -17q40 12 73.5 23t66 24t67 29t75.5 38
l10 -24q-53 -35 -114 -65.5t-126 -53t-132.5 -36t-131.5 -13.5q-19 0 -34 9.5t-32 21.5t-39 21.5t-53 9.5q-29 0 -61.5 -10t-59.5 -22q-33 -14 -63 -32l-26 28q31 19 69 47.5t81 62t90 69.5t95 70.5t97 65t96 53.5q-14 -5 -30.5 -10t-32.5 -9t-30 -6.5t-23 -2.5
q-24 0 -38 13t-21 32t-9.5 42t-4.5 42t-5 32t-10 13q-11 0 -26.5 -9t-41.5 -35l-20 18q17 19 39 34.5t46 26t48 16t45 5.5z" />
    <glyph glyph-name="braceleft" unicode="{" horiz-adv-x="1032" 
d="M978 1200q-53 -47 -99.5 -75t-87 -43.5t-73.5 -20.5t-58 -5h-27t-13 2q14 -20 17 -38t3 -36q0 -61 -20.5 -115t-51 -106.5t-66 -104.5t-66.5 -108q-68 -127 -97 -239.5t-29 -212.5q0 -116 35.5 -210.5t92.5 -157.5q-68 54 -121 128q-23 31 -44.5 70.5t-38.5 86t-27.5 100
t-10.5 113.5q0 92 30 198.5t96 231.5q21 39 50 79.5t55 80.5t44.5 79t18.5 75q0 19 -3.5 33t-11 24.5t-18.5 19.5t-27 19q-20 14 -20 40q0 14 5 27.5t13 22.5q14 15 35 25.5t45 10.5q17 0 32.5 -4t29 -9t26 -9.5t24.5 -5.5q31 0 63 7.5t62.5 19.5t57.5 26t47 27
q137 110 270.5 188.5t254 132t225 86t185 49.5t132.5 23t69 7q-16 -2 -59 -8.5t-110 -26t-155 -55t-195 -94t-230 -144t-259 -204.5z" />
    <glyph glyph-name="bar" unicode="|" horiz-adv-x="490" 
d="M164 1398h160l-48 -1398h-64z" />
    <glyph glyph-name="braceright" unicode="}" horiz-adv-x="998" 
d="M540 262q35 31 77 66t88.5 65t96 49.5t100.5 19.5q11 0 20 -1t20 -3q-20 29 -28 56t-8 54q0 42 13.5 75.5t37.5 70.5t56 83.5t69 114.5q68 127 97 239.5t29 212.5q0 116 -35.5 210.5t-92.5 157.5q67 -54 121 -128q22 -32 44 -71t39 -85.5t27.5 -100t10.5 -113.5
q0 -92 -30 -198.5t-96 -231.5q-21 -39 -42.5 -68.5t-38.5 -56.5t-28 -55t-11 -64q0 -23 11.5 -40.5t25.5 -34t25.5 -35t11.5 -44.5q0 -20 -7.5 -38t-30.5 -30q-9 -5 -14.5 -5.5t-11.5 -0.5q-24 0 -44 5.5t-36.5 12.5t-31.5 12.5t-28 5.5q-52 0 -95 -18t-77.5 -43
t-60.5 -50.5t-45 -40.5q-149 -117 -287.5 -198.5t-259.5 -135t-222.5 -84t-178 -45.5t-125 -19t-63.5 -4q16 2 59 8.5t110 26t155 55t195 94t230 144t259 204.5z" />
    <glyph glyph-name="asciitilde" unicode="~" horiz-adv-x="704" 
d="M544 1362l-34 -56h-362l64 90z" />
    <glyph glyph-name="uni007F" 
 />
    <glyph glyph-name="exclamdown" unicode="&#xa1;" horiz-adv-x="1666" 
d="M324 118q156 180 275.5 317t207.5 239t149 172t100.5 116t61.5 71l33 37.5t13.5 15.5t3.5 4q15 15 27.5 21.5t26.5 6.5q21 0 36.5 -13t15.5 -33q0 -11 -6.5 -22.5t-17.5 -25.5q-69 -89 -140.5 -176.5t-146.5 -177t-153.5 -182.5t-161.5 -192q-19 -22 -44 -52t-53.5 -62.5
t-58 -63.5t-56 -56t-47.5 -40.5t-33 -15.5q-8 0 -22 3t-27.5 8.5t-23 13.5t-9.5 19t14.5 28t35.5 40zM1302 1276q0 17 9 32t23.5 26t33 17.5t38.5 6.5q13 0 27 -3t25.5 -11t18.5 -21.5t7 -34.5q0 -18 -10 -31t-25 -21t-34 -12t-37 -4q-30 0 -50.5 13.5t-25.5 42.5z" />
    <glyph glyph-name="cent" unicode="&#xa2;" horiz-adv-x="578" 
d="M102 156q0 -28 11 -47.5t31 -31.5t48 -17.5t62 -5.5q85 0 187.5 33.5t240.5 102.5l10 -24q-33 -22 -73 -42.5t-84 -39t-91 -34.5t-94 -28l-16 -454h-64l-16 436q-48 -6 -90 -6q-46 0 -85 8.5t-67.5 27.5t-45 49t-16.5 73q0 48 23.5 101.5t62.5 105t91 97.5t109 80
l-14 426h160l-12 -370q18 5 36 7.5t36 2.5q33 0 62 -6t50 -18.5t33.5 -33t12.5 -48.5q0 -23 -10.5 -45t-28.5 -39t-41 -27.5t-48 -10.5q-32 0 -46 15t-14 29q0 25 15.5 39t34.5 23.5t34.5 17t15.5 18.5q0 12 -8 17t-20 5q-43 0 -88 -20.5t-87.5 -54t-80 -75t-65.5 -84.5
t-44.5 -83t-16.5 -69z" />
    <glyph glyph-name="sterling" unicode="&#xa3;" horiz-adv-x="1666" 
d="M988 620l128 148q-48 4 -107 14.5t-111 31.5t-87 52.5t-35 77.5q0 38 20.5 67.5t53.5 51.5t75 37.5t85 25.5t83.5 15.5t70.5 8.5l6 -12q-32 -2 -78 -17t-89.5 -40.5t-74 -60t-30.5 -74.5q0 -38 25.5 -62t64.5 -39t84.5 -22t85.5 -9q45 53 94 106.5t100 109.5
q29 30 57 60.5t57 59.5q88 100 175.5 167.5t168.5 108.5t153.5 58.5t130.5 17.5q20 0 42.5 -2t41.5 -10t31.5 -24t12.5 -44q0 -75 -42.5 -148t-111.5 -139t-157 -124.5t-177.5 -103.5t-173.5 -76t-146 -43q-54 -12 -114 -18q-20 -23 -37.5 -42t-32.5 -36q-20 -23 -39 -44
t-39 -42l212 -20l-42 -48h-230l-100 -114l226 -20l-42 -48h-250q-66 -71 -134 -130t-140 -106q58 -14 116.5 -27.5t113.5 -24t105 -16.5t91 -6q16 0 46 3.5t81 17t126.5 41t182.5 74.5q2 -6 5 -10q2 -4 3.5 -8t1.5 -6q-53 -24 -110.5 -52t-118.5 -52t-124.5 -40t-128.5 -16
q-47 0 -102 8t-113.5 20t-119 27t-119.5 29q-75 -41 -155 -62.5t-169 -21.5q-40 0 -74.5 8.5t-60 22t-40.5 31.5t-15 38q0 31 15 50.5t39 30t54.5 14t61.5 3.5q53 0 128.5 -14t163.5 -34q56 42 110.5 95.5t107.5 112.5h-188l88 100l176 -16l84 98h-202l88 100zM1346 824
q26 5 51 9.5t51 12.5q49 13 118.5 42.5t146.5 71t153 93t136.5 107t98 113t37.5 111.5q0 13 -7 21t-18 12.5t-24 5.5t-25 1q-45 0 -90.5 -15.5t-90.5 -42.5t-88.5 -62t-84.5 -74q-24 -26 -47 -50t-41 -44zM294 48q45 0 90 15.5t92 42.5q-60 14 -117 22t-105 8q-12 0 -26 -1
t-26 -4.5t-20 -10.5t-8 -18t11 -20.5t28 -17t38.5 -12t42.5 -4.5z" />
    <glyph glyph-name="currency" unicode="&#xa4;" horiz-adv-x="1208" 
d="M812 468q-41 -38 -98.5 -60t-117.5 -22q-25 0 -50 3.5t-48.5 11.5t-44 21.5t-35.5 33.5l-284 -114l44 126l208 70q-2 9 -2 18v20q0 9 1 18t3 18l-68 24l40 92l82 -36q22 17 49.5 30t57.5 21.5t61.5 12.5t61.5 4q54 0 97.5 -16.5t72.5 -51.5l218 76l-22 -60l-168 -68
q2 -12 3 -22.5t1 -21.5q0 -18 -5 -36.5t-17 -41.5l120 -50l22 -60zM780 594q-8 48 -42.5 71t-85.5 23q-30 0 -61.5 -6.5t-57 -20.5t-41.5 -35.5t-16 -51.5q0 -35 12 -57t30.5 -35.5t41.5 -18.5t46 -5q32 0 63.5 10.5t56 29t39.5 43t15 53.5z" />
    <glyph glyph-name="yen" unicode="&#xa5;" horiz-adv-x="1666" 
d="M576 -38q20 21 40.5 46t43.5 52q-51 -32 -105.5 -51t-108.5 -19q-46 0 -78.5 12.5t-53.5 32t-30.5 44t-9.5 47.5q0 49 21 97t54.5 93.5t75.5 89t83 84.5q44 45 103 104.5t121.5 122t122.5 123.5t108 109t77 78t30 31q23 27 46.5 56.5t42.5 58.5t31 57t12 52
q0 28 -14.5 52.5t-43.5 43t-73 29.5t-103 11q-33 0 -75.5 -5t-86.5 -15t-86.5 -26.5t-75.5 -39t-53.5 -52t-20.5 -66.5q0 -25 15.5 -42.5t40.5 -28.5t57 -16t65 -5q38 0 76.5 6.5t74 19t66 31t53.5 41.5l20 -12q-29 -35 -69 -59t-86.5 -39t-96 -21.5t-96.5 -6.5
q-57 0 -95 16.5t-60.5 39.5t-31.5 48.5t-9 43.5q5 66 53 119q20 22 51.5 43.5t77.5 38t108 27t144 10.5q88 0 151.5 -12t106.5 -31t68.5 -43.5t39.5 -48.5t18 -46t4 -37q0 -50 -25 -98t-61 -92.5t-75.5 -84t-68.5 -73.5q-38 -43 -87.5 -93t-104 -102.5t-111.5 -107
t-110 -107t-99.5 -102t-79.5 -92.5q-8 -9 -25.5 -32t-35.5 -51.5t-31.5 -58.5t-13.5 -54q0 -21 22 -36.5t58 -15.5q57 0 117 29.5t119 75.5t115 102.5t105 110.5q48 56 99 114.5t107 123.5h-188l88 100l174 -16q23 26 46 52.5t46 53.5h-200l88 100l186 -18q83 95 172 194.5
t186 205.5q41 45 74 77.5t50 32.5q10 0 26.5 -2.5t32 -7t26.5 -11.5t11 -17q0 -4 -10 -17t-26 -31t-35 -39t-37 -40.5t-33.5 -36t-22.5 -24.5q-44 -50 -112 -127t-154 -171l230 -20l-42 -48h-250q-27 -30 -55 -59t-55 -61l248 -22l-42 -48h-270l-488 -536q113 54 236 96
t254 80l10 -24q-48 -13 -113 -35t-139.5 -51t-154 -64t-155.5 -72q-72 -77 -130 -141t-96 -109t-76.5 -91t-74.5 -88.5t-67.5 -79.5t-55.5 -63q-78 -85 -165 -132.5t-175 -47.5q-20 0 -39 4.5t-34 15t-24 27t-9 39.5q0 28 21 67.5t62.5 86t103 98t143.5 104.5
q89 59 185.5 118t202.5 116zM108 -566q38 38 88.5 92.5t107 117.5t115 131.5t113.5 136.5q-92 -50 -190.5 -111t-188 -123.5t-162 -122t-111.5 -107.5q-17 -20 -29.5 -44.5t-12.5 -47.5q0 -20 13.5 -33t48.5 -13q28 0 57.5 12.5t56.5 31t51 40t43 40.5z" />
    <glyph glyph-name="brokenbar" unicode="&#xa6;" horiz-adv-x="1666" 
d="M770 810l-20 588h160l-20 -588h-120zM882 578l-20 -578h-64l-20 578h104z" />
    <glyph glyph-name="section" unicode="&#xa7;" horiz-adv-x="1666" 
d="M672 462q0 32 -14 60t-35 53.5t-46 49t-46 45t-35 42.5t-14 42q0 15 8.5 30t29 31t53.5 32.5t83 34.5q-20 27 -33 59.5t-13 74.5q0 37 17.5 78t47.5 81t69.5 76.5t83.5 64t89 44t87 16.5q26 0 49 -4.5t40 -15t27 -26.5t10 -38q0 -19 -8.5 -36.5t-23 -31t-33 -22
t-37.5 -8.5q-26 0 -37 11.5t-11 22.5q0 20 12.5 32t27.5 19.5t27.5 13.5t12.5 15t-6.5 12.5t-15.5 3.5q-35 0 -71 -16.5t-70 -43t-64 -60t-52.5 -67.5t-35.5 -66t-13 -55q0 -32 14 -60t35 -53.5t46 -49t46 -45t35 -42.5t14 -42q0 -15 -9 -30.5t-29.5 -31.5t-53.5 -33
t-82 -35q20 -26 33 -58.5t13 -73.5q0 -37 -17.5 -78t-47.5 -81t-69.5 -76.5t-83.5 -64t-89.5 -44t-86.5 -16.5q-26 0 -49 4.5t-40 15t-27 26t-10 38.5q0 19 8.5 36.5t23 31t32.5 22t38 8.5q26 0 37 -11.5t11 -22.5q0 -20 -12.5 -32t-27.5 -19.5t-27.5 -13.5t-12.5 -15
t6.5 -12.5t15.5 -3.5q34 0 70.5 16.5t70.5 43t64 60t52.5 67.5t35.5 66t13 55zM798 726q0 12 -8.5 24t-22 24.5t-30.5 26.5t-35 31q-53 -24 -74.5 -43.5t-21.5 -36.5q0 -12 8 -24t21.5 -24.5t30.5 -27t34 -30.5q54 24 76 43t22 37z" />
    <glyph glyph-name="dieresis" unicode="&#xa8;" horiz-adv-x="632" 
d="M286 1322q0 -17 -9 -32t-23.5 -26t-33.5 -17.5t-38 -6.5q-14 0 -27.5 3t-25 11t-18.5 21.5t-7 34.5q0 18 10 31t25 21t34 12t37 4q30 0 50.5 -13.5t25.5 -42.5zM524 1320q0 -17 -9 -32t-23.5 -26t-33.5 -17.5t-38 -6.5q-14 0 -27.5 3t-25 11t-18.5 21.5t-7 34.5
q0 18 10 31t25 21t34 12t37 4q30 0 50.5 -13.5t25.5 -42.5z" />
    <glyph glyph-name="copyright" unicode="&#xa9;" horiz-adv-x="1666" 
d="M600 472q44 44 93 78t100 57t102 35t99 12q63 0 117.5 -20t96.5 -62q41 -41 60.5 -94.5t19.5 -115.5q0 -48 -12 -99t-35 -102t-57 -100t-78 -93q-91 -91 -194 -136.5t-200 -45.5q-62 0 -116.5 19.5t-95.5 60.5t-60.5 95t-19.5 117q0 48 11.5 99t34 102t56.5 100t78 93z
M624 450q-86 -86 -131 -182.5t-45 -187.5q0 -56 18 -105t56 -87t86 -56t104 -18q91 0 187.5 45t182.5 131t131 182.5t45 187.5q0 56 -18 104t-56 86t-87 56t-105 18q-89 0 -185.5 -44t-182.5 -130zM672 116q0 -41 31 -58.5t81 -17.5q63 0 137 25t175 75l8 -18
q-36 -23 -83.5 -45t-99.5 -39t-104.5 -27.5t-98.5 -10.5q-33 0 -61.5 6.5t-49.5 20t-33 35.5t-12 54q0 34 16 71.5t43.5 74t63.5 69.5t76 58t81.5 40t79.5 15q48 0 81 -18t33 -60q0 -17 -7.5 -32.5t-20.5 -28t-29.5 -20t-34.5 -7.5q-24 0 -34 10.5t-10 21.5q0 18 11 28.5
t24.5 17.5t25 12.5t11.5 13.5q0 16 -20 16q-31 0 -64 -15t-64.5 -39.5t-59 -55t-48 -62t-32.5 -60.5t-12 -50z" />
    <glyph glyph-name="ordfeminine" unicode="&#xaa;" horiz-adv-x="974" 
d="M510 752q15 17 36.5 42.5t43.5 49t40.5 40t27.5 16.5q4 0 11.5 -1.5t14 -4.5t11.5 -7t5 -9q0 -3 -4 -8.5t-17.5 -21.5t-40 -45.5t-72.5 -80.5q-18 -21 -29 -40.5t-11 -33.5t9.5 -20t24.5 -6q13 0 31.5 3t43.5 10.5t57.5 21t75.5 33.5l4 -12q-90 -42 -146 -61t-96 -19
q-13 0 -26 3.5t-23.5 10t-17.5 16t-7 22.5q0 14 6 26q-41 -41 -79 -59.5t-71 -18.5q-25 0 -40 7t-23.5 17.5t-11.5 24t-3 27.5q0 35 24 75t60 73.5t79.5 55.5t82.5 22q33 0 55.5 -12.5t22.5 -41.5q0 -17 -8 -36l-18 -8q2 6 3 11t1 11q0 17 -7.5 30.5t-28.5 13.5
q-32 0 -66 -22t-61.5 -53t-45 -64t-17.5 -55q0 -20 9.5 -26t30.5 -6q24 0 51 15.5t57 42.5q24 21 52 52z" />
    <glyph glyph-name="guillemotleft" unicode="&#xab;" horiz-adv-x="1666" 
d="M148 254l44 126l882 300l-22 -60l-776 -314l392 -176l22 -60zM692 254l44 126l882 300l-22 -60l-776 -314l392 -176l22 -60z" />
    <glyph glyph-name="logicalnot" unicode="&#xac;" horiz-adv-x="1666" 
d="M994 732h-462l88 100l566 -52l-302 -342h-62z" />
    <glyph glyph-name="uni00AD" unicode="&#xad;" horiz-adv-x="659" 
d="M82 469v160h496v-160h-496z" />
    <glyph glyph-name="registered" unicode="&#xae;" horiz-adv-x="1666" 
d="M582 494q44 44 93 78t100 57t102 35t99 12q63 0 117.5 -20t96.5 -62q41 -41 60.5 -94.5t19.5 -115.5q0 -48 -12 -99t-35 -102t-57 -100t-78 -93q-91 -91 -194 -136.5t-200 -45.5q-62 0 -116.5 19.5t-95.5 60.5t-60.5 95t-19.5 117q0 48 11.5 99t34 102t56.5 100t78 93z
M606 472q-86 -86 -131 -182.5t-45 -187.5q0 -56 18 -105t56 -87t86 -56t104 -18q91 0 187.5 45t182.5 131t131 182.5t45 187.5q0 56 -18 104t-56 86t-87 56t-105 18q-89 0 -185.5 -44t-182.5 -130zM562 304q10 16 21 33t24.5 30.5t30.5 22t38 8.5q31 0 53 -12.5t38 -29
t27 -33t20 -25.5q34 33 69.5 57t69 40t64 24t55.5 9q5 -5 8.5 -13.5t3.5 -20.5q-8 -5 -29 -19.5t-42.5 -34.5t-38 -42.5t-16.5 -41.5q0 -9 6 -15.5t20 -6.5q32 0 60 7t53.5 19t49.5 27.5t47 32.5v-22q-53 -44 -110.5 -74t-129.5 -30q-27 0 -43.5 15t-16.5 35q0 6 2 15.5
t5.5 19t8.5 17.5t12 12q-32 -6 -65.5 -26t-60.5 -50q-38 -41 -72 -78.5t-60 -67t-43.5 -48t-22.5 -22.5q-8 -8 -14 -12t-14 -4h-9t-7 2q-12 5 -21 11t-9 17q0 8 2.5 14t13.5 18l156 174q30 33 30 76q0 21 -12 38t-38 20q-24 0 -43.5 -19t-46.5 -61z" />
    <glyph glyph-name="macron" unicode="&#xaf;" horiz-adv-x="618" 
d="M496 1330l-34 -56h-362l64 90z" />
    <glyph glyph-name="degree" unicode="&#xb0;" horiz-adv-x="774" 
d="M628 1252q0 -47 -24.5 -87.5t-64 -70.5t-90.5 -47t-103 -17q-37 0 -74.5 8.5t-68 29.5t-50 58t-19.5 94q0 49 26.5 83.5t68.5 57t93 33t100 10.5q81 0 137.5 -37t68.5 -115zM530 1238q-8 48 -42.5 71t-85.5 23q-30 0 -61.5 -6.5t-57 -20.5t-41.5 -35.5t-16 -51.5
q0 -35 12 -57t30.5 -35.5t41.5 -18.5t46 -5q32 0 63.5 10.5t56 29t39.5 43t15 53.5z" />
    <glyph glyph-name="plusminus" unicode="&#xb1;" horiz-adv-x="1226" 
d="M676 712h-218l88 100l202 -18l150 170h164l-210 -180l258 -24l-42 -48h-298l-130 -112h-62zM196 404l564 -52l-42 -48h-610z" />
    <glyph glyph-name="twosuperior" unicode="&#xb2;" horiz-adv-x="832" 
d="M266 612q56 42 113.5 77t110.5 73q20 14 33 35.5t13 48.5q0 11 -4.5 19.5t-21.5 8.5q-21 0 -46.5 -11.5t-43.5 -26.5l-6 14q26 24 57 39t63 15t51 -12.5t19 -39.5q0 -17 -9.5 -32.5t-24.5 -29.5t-35 -27t-41 -25q-33 -18 -62.5 -35.5t-55.5 -34.5q5 2 8 2h8q10 0 19 -5.5
t17 -12.5t16 -12.5t16 -5.5q20 0 44 13.5t44 22.5l4 -20q-36 -21 -71.5 -35.5t-76.5 -14.5q-6 0 -13 3.5t-14.5 8t-16 8.5t-18.5 4q-9 0 -20 -4t-21 -9q-11 -6 -23 -13z" />
    <glyph glyph-name="threesuperior" unicode="&#xb3;" horiz-adv-x="820" 
d="M420 720q0 9 -6.5 15.5t-15.5 10.5t-19.5 6t-18.5 2q-9 0 -17.5 -1t-16.5 -3l-2 10q19 10 47.5 15.5t55 13t45 20t18.5 37.5q0 20 -28 20q-21 0 -42.5 -7.5t-41.5 -22.5l-4 14q29 24 62 39t66 15q29 0 43.5 -13t14.5 -31q0 -22 -9 -37t-24.5 -25.5t-36 -16.5t-42.5 -9
q14 -6 25 -18t11 -36q0 -27 -16 -49t-41.5 -37t-56 -23.5t-58.5 -8.5q-17 0 -33 4.5t-28.5 13.5t-20.5 21t-8 27q0 23 13 36.5t31 13.5t18 -18q0 -12 -7 -17t-15 -7t-15 -4t-7 -8q0 -12 12.5 -25t41.5 -13q19 0 41.5 5.5t41 17t31 29.5t12.5 44z" />
    <glyph glyph-name="acute" unicode="&#xb4;" horiz-adv-x="540" 
d="M78 1152l22 60l262 142l40 -92z" />
    <glyph glyph-name="uni00B5" unicode="&#xb5;" horiz-adv-x="1666" 
d="M558 308q19 22 44.5 51.5t54 62t58 64t55.5 56.5t47 40.5t33 15.5q8 0 22 -3t27.5 -8.5t23 -14t9.5 -18.5q0 -11 -14.5 -28t-35.5 -40l-166 -188q-14 -15 -31.5 -37.5t-34 -48t-27.5 -50.5t-11 -44q0 -18 12 -29t42 -11q20 0 46 6t62 29t83.5 69.5t112.5 127.5
q18 22 43 52.5t53.5 62.5t57.5 63t55.5 55.5t47.5 39.5t33 15q8 0 22 -3t27.5 -8.5t23 -14t9.5 -18.5q0 -11 -14.5 -28t-35.5 -40q-47 -54 -81.5 -92.5t-61 -67.5t-46.5 -52t-39 -46q-36 -42 -61 -77t-25 -55q0 -14 5 -22.5t12.5 -13t17 -5.5t19.5 -1q57 0 113 11t110.5 29
t107.5 41.5t103 48.5l10 -24q-33 -22 -91 -50t-130 -53t-153.5 -42t-161.5 -17q-41 0 -67.5 17t-34.5 53q-16 -11 -35.5 -23t-44 -22t-54.5 -16.5t-66 -6.5q-48 0 -83 16t-53 46q-51 -56 -96.5 -105.5t-80.5 -88t-58 -63t-29 -29.5q-12 -12 -22 -19t-24 -7q-5 0 -10.5 0.5
t-13.5 3.5q-18 6 -31 16.5t-13 25.5q0 11 5.5 20t20.5 26z" />
    <glyph glyph-name="paragraph" unicode="&#xb6;" horiz-adv-x="1234" 
d="M930 1324l-128 -10l-570 -898h-62l262 496q-98 2 -143 43.5t-45 106.5q0 80 60 176q23 38 56 65.5t70 45.5t74.5 28.5t71.5 16t60.5 7t41.5 1.5h468l-728 -986h-62z" />
    <glyph glyph-name="periodcentered" unicode="&#xb7;" horiz-adv-x="744" 
d="M448 616q0 -17 -9 -32t-23.5 -26t-33.5 -17.5t-38 -6.5q-14 0 -27.5 3t-25 11t-18.5 21.5t-7 34.5q0 18 10 31t25 21t34 12t37 4q30 0 50.5 -13.5t25.5 -42.5z" />
    <glyph glyph-name="cedilla" unicode="&#xb8;" horiz-adv-x="808" 
d="M612 -42q24 -15 33 -38.5t9 -59.5q0 -24 -6.5 -48t-17.5 -44q-26 -49 -62 -78.5t-76.5 -46t-84.5 -22t-87 -5.5q-29 0 -58 9t-51.5 26t-36.5 41t-14 54q0 45 25.5 73.5t60.5 28.5q38 0 38 -38q0 -23 -14 -33t-30.5 -14.5t-30 -8.5t-13.5 -16t6 -25.5t19.5 -24.5
t33.5 -18.5t49 -7.5q38 0 76.5 15t69.5 42t50.5 64t19.5 81q0 17 -7 28.5t-19 18t-27.5 9t-32.5 2.5t-34 -1.5t-32 -4.5l-4 18l116 138l86 -8l-66 -80h20q23 0 46 -6t46 -20z" />
    <glyph glyph-name="onesuperior" unicode="&#xb9;" horiz-adv-x="656" 
d="M308 802q38 11 74.5 30.5t69.5 45.5q12 9 20.5 15.5t13.5 6.5q4 0 11.5 -1.5t14 -4.5t11.5 -7t5 -9q0 -6 -7.5 -14.5t-18.5 -19.5l-82 -94q-5 -5 -18 -20t-29 -34t-31.5 -39t-25.5 -33q-5 -5 -13.5 -14.5t-22.5 -9.5q-4 0 -10 2t-12 5t-10 7.5t-4 9.5q0 6 4.5 12.5
t7.5 11.5q7 11 19 26l24 30t23 28.5t18 21.5q8 9 19 21.5t23 26.5q-21 -6 -41 -11t-37 -5q-9 0 -15.5 4t-4.5 6q3 0 7 1q3 1 7.5 2t9.5 3z" />
    <glyph glyph-name="ordmasculine" unicode="&#xba;" horiz-adv-x="702" 
d="M526 836q0 -36 -20 -77.5t-52 -76.5t-72 -58.5t-80 -23.5q-45 0 -63.5 20.5t-18.5 49.5q0 40 26 79t65 69.5t84 49t83 18.5q29 0 38.5 -13.5t9.5 -36.5zM322 628q30 0 62 19t58 47.5t43 62.5t17 63q0 12 -3.5 19.5t-14.5 12.5q-4 4 -20 4t-38 -11t-44.5 -29.5t-42.5 -43
t-33 -52.5q-6 -11 -12 -27.5t-6 -30.5t8 -24t26 -10z" />
    <glyph glyph-name="guillemotright" unicode="&#xbb;" horiz-adv-x="1666" 
d="M1618 496l-44 -126l-882 -300l22 60l774 314l-390 176l-22 60zM1074 496l-44 -126l-882 -300l22 60l774 314l-390 176l-22 60z" />
    <glyph glyph-name="onequarter" unicode="&#xbc;" horiz-adv-x="2120" 
d="M1600 1400l158 -10l-1208 -1378l-68 -12zM1820 406q-47 -24 -113 -35.5t-143 -14.5q-18 -22 -39 -47t-41.5 -50t-38.5 -48t-31 -41q-4 -5 -10 -13t-15 -15.5t-20.5 -13.5t-24.5 -6q-8 0 -20.5 4t-24.5 10.5t-20.5 15.5t-8.5 20q0 12 10 25.5t16 22.5q20 27 47.5 61.5
t60.5 72.5q-62 3 -120.5 15t-93.5 35q-9 3 -13.5 6.5t-2.5 5.5q82 14 160.5 46.5t146 71t121 77.5t86.5 67q23 20 40 32t28 12q8 0 22 -3t27.5 -8.5t23 -14t9.5 -18.5q0 -11 -14.5 -28t-35.5 -40l-166 -188q-5 -5 -12 -12.5t-16 -19.5q28 2 56 5.5t59 9t65 13.5t74 20z
M738 1142q75 21 148.5 60.5t139.5 89.5q23 20 40 32t28 12q8 0 22 -3t27.5 -8.5t23 -14t9.5 -18.5q0 -11 -14.5 -28t-35.5 -40l-166 -188q-8 -9 -34 -39t-58 -68t-64 -77.5t-52 -67.5q-4 -5 -10 -13t-15 -15.5t-20.5 -13.5t-24.5 -6q-8 0 -20.5 4t-24.5 10.5t-20.5 15.5
t-8.5 20q0 12 10 25.5t16 22.5q15 22 38 51.5t47 59.5t46.5 57t36.5 44q15 18 36.5 43.5t45.5 52.5q-42 -14 -81.5 -23t-72.5 -9q-20 0 -32 8t-10 10q6 1 14 4q7 2 16 4.5t20 5.5zM1616 584q-60 -47 -114.5 -78.5t-101.5 -52.5t-85 -32t-65 -15q42 -8 91.5 -13t90.5 -5
q44 50 90.5 99.5t93.5 96.5z" />
    <glyph glyph-name="onehalf" unicode="&#xbd;" horiz-adv-x="2154" 
d="M1600 1400l158 -10l-1208 -1378l-68 -12zM738 1142q75 21 148.5 60.5t139.5 89.5q23 20 40 32t28 12q8 0 22 -3t27.5 -8.5t23 -14t9.5 -18.5q0 -11 -14.5 -28t-35.5 -40l-166 -188q-8 -9 -34 -39t-58 -68t-64 -77.5t-52 -67.5q-4 -5 -10 -13t-15 -15.5t-20.5 -13.5
t-24.5 -6q-8 0 -20.5 4t-24.5 10.5t-20.5 15.5t-8.5 20q0 12 10 25.5t16 22.5q15 22 38 51.5t47 59.5t46.5 57t36.5 44q15 18 36.5 43.5t45.5 52.5q-42 -14 -81.5 -23t-72.5 -9q-20 0 -32 8t-10 10q6 1 14 4q7 2 16 4.5t20 5.5zM1094 152q55 42 113 79.5t115 73.5
t112.5 71.5t107.5 73.5q39 29 66.5 71.5t27.5 96.5q0 23 -10.5 40.5t-43.5 17.5q-21 0 -44.5 -6.5t-47.5 -17t-46.5 -24t-41.5 -28.5l-12 28q53 48 115 78t127 30q63 0 101.5 -25t38.5 -79v-13t-2 -13q-5 -26 -23.5 -51.5t-48 -51t-67.5 -50.5t-81 -49q-65 -38 -124.5 -74
t-109.5 -68q8 2 15.5 3t16.5 1q20 0 37.5 -11t33.5 -24t31 -24t32 -11q19 0 42 7.5t47 18.5t46.5 23.5t42.5 22.5l6 -40q-36 -21 -71.5 -39.5t-71.5 -32.5t-74 -22t-79 -8q-12 0 -25.5 8t-28.5 17t-32 17t-36 8q-18 0 -40 -8.5t-42 -18.5q-23 -12 -46 -27z" />
    <glyph glyph-name="threequarters" unicode="&#xbe;" horiz-adv-x="2284" 
d="M1600 1400l158 -10l-1208 -1378l-68 -12zM1820 406q-47 -24 -113 -35.5t-143 -14.5q-18 -22 -39 -47t-41.5 -50t-38.5 -48t-31 -41q-4 -5 -10 -13t-15 -15.5t-20.5 -13.5t-24.5 -6q-8 0 -20.5 4t-24.5 10.5t-20.5 15.5t-8.5 20q0 12 10 25.5t16 22.5q20 27 47.5 61.5
t60.5 72.5q-62 3 -120.5 15t-93.5 35q-9 3 -13.5 6.5t-2.5 5.5q82 14 160.5 46.5t146 71t121 77.5t86.5 67q23 20 40 32t28 12q8 0 22 -3t27.5 -8.5t23 -14t9.5 -18.5q0 -11 -14.5 -28t-35.5 -40l-166 -188q-5 -5 -12 -12.5t-16 -19.5q28 2 56 5.5t59 9t65 13.5t74 20z
M1616 584q-60 -47 -114.5 -78.5t-101.5 -52.5t-85 -32t-65 -15q42 -8 91.5 -13t90.5 -5q44 50 90.5 99.5t93.5 96.5zM830 978q0 17 -12.5 29.5t-30.5 20.5t-39 12t-38 4t-34 -1.5t-32 -4.5l-4 18q26 14 60.5 23t71 17.5t72.5 18t64 24t45 36.5t17 55q0 20 -12.5 30t-41.5 10
q-42 0 -85.5 -16t-84.5 -46l-8 28q57 48 124 78t132 30q57 0 86.5 -25t29.5 -61q0 -44 -18 -75t-48.5 -51.5t-71 -32.5t-84.5 -19q13 -5 25.5 -13.5t22.5 -21t16 -30.5t6 -43q0 -53 -32 -96.5t-82 -74.5t-110.5 -48t-117.5 -17q-34 0 -66 9.5t-57.5 26.5t-41 41.5
t-15.5 54.5q0 45 25.5 73.5t60.5 28.5q38 0 38 -38q0 -23 -14 -33t-30.5 -14.5t-30 -8.5t-13.5 -16t6 -25.5t19.5 -24.5t33.5 -18.5t49 -7.5q38 0 82 11t81.5 34.5t62 60t24.5 88.5z" />
    <glyph glyph-name="questiondown" unicode="&#xbf;" horiz-adv-x="1252" 
d="M1054 1194q0 17 9 32t23.5 26t33 17.5t38.5 6.5q13 0 27 -3t25.5 -11t18.5 -21.5t7 -34.5q0 -18 -10 -31t-25 -21t-34 -12t-37 -4q-30 0 -50.5 13.5t-25.5 42.5zM480 292q21 11 48.5 15.5t57.5 4.5t57 -8.5t48 -25t33 -40t12 -52.5t-15 -62t-48 -60.5t-86 -45.5t-129 -18
q-59 0 -102 12t-73.5 30.5t-50 41t-30 45t-14.5 41.5t-4 30q0 58 35 113.5t92.5 107t131 100t150.5 94.5t150.5 89t131 84t92.5 79.5t35 74.5q0 23 -7 37.5t-17.5 22t-23.5 10t-26 2.5q-35 0 -81.5 -17t-94.5 -43l-8 10q16 16 38 32t48 29.5t55.5 22t60.5 8.5q22 0 46 -5.5
t44.5 -19.5t34 -37.5t13.5 -59.5q0 -57 -44.5 -110t-114 -105t-154.5 -103t-166.5 -103t-150 -106.5t-104.5 -112.5q-30 -51 -30 -94q0 -26 7.5 -47.5t25.5 -36.5t48 -23.5t75 -8.5q35 0 70.5 6.5t64 20t46 35.5t17.5 54q0 26 -11.5 42.5t-29.5 25.5t-41.5 12.5t-47.5 3.5
h-16t-14 -2z" />
    <glyph glyph-name="Agrave" unicode="&#xc0;" horiz-adv-x="1536" 
d="M1974 1664l40 92l262 -142l22 -60zM1058 710h-228l64 90l244 -12l112 110q207 204 433.5 356t472.5 252q5 2 15 4t21 2q9 0 15.5 -2.5t6.5 -11.5q0 -16 -5.5 -27t-13.5 -18.5t-16.5 -12.5t-14.5 -8q-39 -18 -89 -58t-107 -93.5t-118 -117t-121.5 -131t-117.5 -134.5
t-105 -126l158 -6l-34 -56h-176q-50 -59 -104.5 -118.5t-107.5 -117.5t-101 -112.5t-85 -101.5t-58.5 -85t-21.5 -63q0 -41 14 -53.5t52 -12.5q42 0 96 13.5t110.5 33.5t111 44t98.5 45l10 -24q-152 -74 -275 -117t-209 -43q-24 0 -50 4t-48 17t-36 37t-14 64q0 35 36 93
t97.5 134t142.5 167.5t172 195.5h-158q-83 -86 -170.5 -172.5t-180.5 -166.5t-192 -150.5t-205 -124.5q-56 -28 -104 -47t-91.5 -30t-84 -16t-80.5 -5q-51 0 -86.5 14.5t-57.5 37t-32 49.5t-10 53q0 31 11 57.5t29 46t41.5 30t48.5 10.5q14 0 28 -3.5t24.5 -12t17 -23.5
t6.5 -37q0 -32 -15.5 -52t-33.5 -34t-33.5 -25.5t-15.5 -26.5q0 -11 9 -18.5t22 -12t28 -6t27 -1.5q48 0 88.5 5.5t79 16.5t78 27.5t86.5 38.5q29 13 68 37t83.5 55t90.5 66t89 70t79.5 67.5t61.5 58.5zM1200 786l146 -6q44 50 81.5 92t72.5 80.5t69.5 76t74 79t85.5 88
t103 104.5q-61 -35 -135 -86.5t-149 -110.5t-144.5 -120t-121.5 -113z" />
    <glyph glyph-name="Aacute" unicode="&#xc1;" horiz-adv-x="1536" 
d="M2582 1756l40 -92l-324 -110l22 60zM1058 710h-228l64 90l244 -12l112 110q207 204 433.5 356t472.5 252q5 2 15 4t21 2q9 0 15.5 -2.5t6.5 -11.5q0 -16 -5.5 -27t-13.5 -18.5t-16.5 -12.5t-14.5 -8q-39 -18 -89 -58t-107 -93.5t-118 -117t-121.5 -131t-117.5 -134.5
t-105 -126l158 -6l-34 -56h-176q-50 -59 -104.5 -118.5t-107.5 -117.5t-101 -112.5t-85 -101.5t-58.5 -85t-21.5 -63q0 -41 14 -53.5t52 -12.5q42 0 96 13.5t110.5 33.5t111 44t98.5 45l10 -24q-152 -74 -275 -117t-209 -43q-24 0 -50 4t-48 17t-36 37t-14 64q0 35 36 93
t97.5 134t142.5 167.5t172 195.5h-158q-83 -86 -170.5 -172.5t-180.5 -166.5t-192 -150.5t-205 -124.5q-56 -28 -104 -47t-91.5 -30t-84 -16t-80.5 -5q-51 0 -86.5 14.5t-57.5 37t-32 49.5t-10 53q0 31 11 57.5t29 46t41.5 30t48.5 10.5q14 0 28 -3.5t24.5 -12t17 -23.5
t6.5 -37q0 -32 -15.5 -52t-33.5 -34t-33.5 -25.5t-15.5 -26.5q0 -11 9 -18.5t22 -12t28 -6t27 -1.5q48 0 88.5 5.5t79 16.5t78 27.5t86.5 38.5q29 13 68 37t83.5 55t90.5 66t89 70t79.5 67.5t61.5 58.5zM1200 786l146 -6q44 50 81.5 92t72.5 80.5t69.5 76t74 79t85.5 88
t103 104.5q-61 -35 -135 -86.5t-149 -110.5t-144.5 -120t-121.5 -113z" />
    <glyph glyph-name="Acircumflex" unicode="&#xc2;" horiz-adv-x="1536" 
d="M2242 1624l-266 -90l22 60l258 140l116 -168l22 -60zM1058 710h-228l64 90l244 -12l112 110q207 204 433.5 356t472.5 252q5 2 15 4t21 2q9 0 15.5 -2.5t6.5 -11.5q0 -16 -5.5 -27t-13.5 -18.5t-16.5 -12.5t-14.5 -8q-39 -18 -89 -58t-107 -93.5t-118 -117t-121.5 -131
t-117.5 -134.5t-105 -126l158 -6l-34 -56h-176q-50 -59 -104.5 -118.5t-107.5 -117.5t-101 -112.5t-85 -101.5t-58.5 -85t-21.5 -63q0 -41 14 -53.5t52 -12.5q42 0 96 13.5t110.5 33.5t111 44t98.5 45l10 -24q-152 -74 -275 -117t-209 -43q-24 0 -50 4t-48 17t-36 37t-14 64
q0 35 36 93t97.5 134t142.5 167.5t172 195.5h-158q-83 -86 -170.5 -172.5t-180.5 -166.5t-192 -150.5t-205 -124.5q-56 -28 -104 -47t-91.5 -30t-84 -16t-80.5 -5q-51 0 -86.5 14.5t-57.5 37t-32 49.5t-10 53q0 31 11 57.5t29 46t41.5 30t48.5 10.5q14 0 28 -3.5t24.5 -12
t17 -23.5t6.5 -37q0 -32 -15.5 -52t-33.5 -34t-33.5 -25.5t-15.5 -26.5q0 -11 9 -18.5t22 -12t28 -6t27 -1.5q48 0 88.5 5.5t79 16.5t78 27.5t86.5 38.5q29 13 68 37t83.5 55t90.5 66t89 70t79.5 67.5t61.5 58.5zM1200 786l146 -6q44 50 81.5 92t72.5 80.5t69.5 76t74 79
t85.5 88t103 104.5q-61 -35 -135 -86.5t-149 -110.5t-144.5 -120t-121.5 -113z" />
    <glyph glyph-name="Atilde" unicode="&#xc3;" horiz-adv-x="1536" 
d="M2456 1610l-34 -56h-362l64 90zM1058 710h-228l64 90l244 -12l112 110q207 204 433.5 356t472.5 252q5 2 15 4t21 2q9 0 15.5 -2.5t6.5 -11.5q0 -16 -5.5 -27t-13.5 -18.5t-16.5 -12.5t-14.5 -8q-39 -18 -89 -58t-107 -93.5t-118 -117t-121.5 -131t-117.5 -134.5
t-105 -126l158 -6l-34 -56h-176q-50 -59 -104.5 -118.5t-107.5 -117.5t-101 -112.5t-85 -101.5t-58.5 -85t-21.5 -63q0 -41 14 -53.5t52 -12.5q42 0 96 13.5t110.5 33.5t111 44t98.5 45l10 -24q-152 -74 -275 -117t-209 -43q-24 0 -50 4t-48 17t-36 37t-14 64q0 35 36 93
t97.5 134t142.5 167.5t172 195.5h-158q-83 -86 -170.5 -172.5t-180.5 -166.5t-192 -150.5t-205 -124.5q-56 -28 -104 -47t-91.5 -30t-84 -16t-80.5 -5q-51 0 -86.5 14.5t-57.5 37t-32 49.5t-10 53q0 31 11 57.5t29 46t41.5 30t48.5 10.5q14 0 28 -3.5t24.5 -12t17 -23.5
t6.5 -37q0 -32 -15.5 -52t-33.5 -34t-33.5 -25.5t-15.5 -26.5q0 -11 9 -18.5t22 -12t28 -6t27 -1.5q48 0 88.5 5.5t79 16.5t78 27.5t86.5 38.5q29 13 68 37t83.5 55t90.5 66t89 70t79.5 67.5t61.5 58.5zM1200 786l146 -6q44 50 81.5 92t72.5 80.5t69.5 76t74 79t85.5 88
t103 104.5q-61 -35 -135 -86.5t-149 -110.5t-144.5 -120t-121.5 -113z" />
    <glyph glyph-name="Adieresis" unicode="&#xc4;" horiz-adv-x="1536" 
d="M2218 1638q0 -17 -9 -32t-23.5 -26t-33.5 -17.5t-38 -6.5q-14 0 -27.5 3t-25 11t-18.5 21.5t-7 34.5q0 18 10 31t25 21t34 12t37 4q30 0 50.5 -13.5t25.5 -42.5zM2456 1636q0 -17 -9 -32t-23.5 -26t-33.5 -17.5t-38 -6.5q-14 0 -27.5 3t-25 11t-18.5 21.5t-7 34.5
q0 18 10 31t25 21t34 12t37 4q30 0 50.5 -13.5t25.5 -42.5zM1058 710h-228l64 90l244 -12l112 110q207 204 433.5 356t472.5 252q5 2 15 4t21 2q9 0 15.5 -2.5t6.5 -11.5q0 -16 -5.5 -27t-13.5 -18.5t-16.5 -12.5t-14.5 -8q-39 -18 -89 -58t-107 -93.5t-118 -117
t-121.5 -131t-117.5 -134.5t-105 -126l158 -6l-34 -56h-176q-50 -59 -104.5 -118.5t-107.5 -117.5t-101 -112.5t-85 -101.5t-58.5 -85t-21.5 -63q0 -41 14 -53.5t52 -12.5q42 0 96 13.5t110.5 33.5t111 44t98.5 45l10 -24q-152 -74 -275 -117t-209 -43q-24 0 -50 4t-48 17
t-36 37t-14 64q0 35 36 93t97.5 134t142.5 167.5t172 195.5h-158q-83 -86 -170.5 -172.5t-180.5 -166.5t-192 -150.5t-205 -124.5q-56 -28 -104 -47t-91.5 -30t-84 -16t-80.5 -5q-51 0 -86.5 14.5t-57.5 37t-32 49.5t-10 53q0 31 11 57.5t29 46t41.5 30t48.5 10.5
q14 0 28 -3.5t24.5 -12t17 -23.5t6.5 -37q0 -32 -15.5 -52t-33.5 -34t-33.5 -25.5t-15.5 -26.5q0 -11 9 -18.5t22 -12t28 -6t27 -1.5q48 0 88.5 5.5t79 16.5t78 27.5t86.5 38.5q29 13 68 37t83.5 55t90.5 66t89 70t79.5 67.5t61.5 58.5zM1200 786l146 -6q44 50 81.5 92
t72.5 80.5t69.5 76t74 79t85.5 88t103 104.5q-61 -35 -135 -86.5t-149 -110.5t-144.5 -120t-121.5 -113z" />
    <glyph glyph-name="Aring" unicode="&#xc5;" horiz-adv-x="1536" 
d="M2560 1672q0 -25 -12.5 -46.5t-33.5 -37.5t-47.5 -25t-54.5 -9q-20 0 -39.5 4.5t-36 16t-26.5 31t-10 50.5q0 25 14 43.5t36.5 30t49 17t52.5 5.5q42 0 72 -19.5t36 -60.5zM2508 1664q-3 26 -21 38t-45 12q-16 0 -32 -3.5t-29.5 -11t-22 -18.5t-8.5 -27q0 -36 22 -49
t46 -13q17 0 33.5 5.5t29 15.5t20 23t7.5 28zM1058 710h-228l64 90l244 -12l112 110q207 204 433.5 356t472.5 252q5 2 15 4t21 2q9 0 15.5 -2.5t6.5 -11.5q0 -16 -5.5 -27t-13.5 -18.5t-16.5 -12.5t-14.5 -8q-39 -18 -89 -58t-107 -93.5t-118 -117t-121.5 -131
t-117.5 -134.5t-105 -126l158 -6l-34 -56h-176q-50 -59 -104.5 -118.5t-107.5 -117.5t-101 -112.5t-85 -101.5t-58.5 -85t-21.5 -63q0 -41 14 -53.5t52 -12.5q42 0 96 13.5t110.5 33.5t111 44t98.5 45l10 -24q-152 -74 -275 -117t-209 -43q-24 0 -50 4t-48 17t-36 37t-14 64
q0 35 36 93t97.5 134t142.5 167.5t172 195.5h-158q-83 -86 -170.5 -172.5t-180.5 -166.5t-192 -150.5t-205 -124.5q-56 -28 -104 -47t-91.5 -30t-84 -16t-80.5 -5q-51 0 -86.5 14.5t-57.5 37t-32 49.5t-10 53q0 31 11 57.5t29 46t41.5 30t48.5 10.5q14 0 28 -3.5t24.5 -12
t17 -23.5t6.5 -37q0 -32 -15.5 -52t-33.5 -34t-33.5 -25.5t-15.5 -26.5q0 -11 9 -18.5t22 -12t28 -6t27 -1.5q48 0 88.5 5.5t79 16.5t78 27.5t86.5 38.5q29 13 68 37t83.5 55t90.5 66t89 70t79.5 67.5t61.5 58.5zM1200 786l146 -6q44 50 81.5 92t72.5 80.5t69.5 76t74 79
t85.5 88t103 104.5q-61 -35 -135 -86.5t-149 -110.5t-144.5 -120t-121.5 -113z" />
    <glyph glyph-name="AE" unicode="&#xc6;" horiz-adv-x="2800" 
d="M1560 502q106 106 200.5 201t183.5 181q-53 10 -95 32t-71.5 51t-45.5 64t-16 73q0 47 22.5 93t63.5 83.5t98.5 61.5t127.5 28l6 -10q-9 -2 -30 -7.5t-47 -17t-53.5 -29.5t-50.5 -45t-38 -64.5t-15 -86.5q0 -41 15 -71.5t41 -51.5t62 -33.5t78 -19.5q133 127 253 227.5
t233.5 170.5t224 108t225.5 42q6 2 12 2h12h8q31 -2 52.5 -12.5t35 -27t19 -36t5.5 -38.5q0 -46 -39 -95.5t-106 -99t-156 -96t-189 -85.5v-10q0 -42 13.5 -76t30.5 -57q19 -28 44 -49l-24 -24q-20 14 -49.5 24t-74.5 10l-28 -2q-52 -5 -117 -30.5t-132.5 -66.5t-131.5 -94
t-114 -112.5t-80.5 -122t-30.5 -122.5q0 -33 5.5 -66.5t25 -60.5t58 -44t103.5 -17q60 0 120 20t114 53.5t100 77t80 90.5t53 94.5t19 88.5q0 32 -11 54.5t-29 36t-41.5 19.5t-48.5 6q-54 0 -114.5 -24t-118 -66.5t-108.5 -102t-85 -129.5l-8 8q12 35 36 79t56 89t71.5 87.5
t83.5 75.5t91.5 53t95.5 20q35 0 65 -16t51.5 -42.5t33.5 -60.5t12 -69q0 -63 -24 -124.5t-66 -116.5t-97 -102.5t-117 -81.5t-127.5 -53.5t-126.5 -19.5q-49 0 -97 16t-86 46.5t-61.5 74t-23.5 99.5q0 89 31 168t84 146t125 121t154.5 92t170.5 60t175 25
q-11 18 -21.5 39.5t-16.5 50.5q-113 -36 -225.5 -58t-212.5 -22q-98 -101 -202 -209t-215 -211t-231.5 -195t-251.5 -159q-56 -28 -104 -46.5t-91.5 -30t-84 -16.5t-80.5 -5q-51 0 -86.5 14.5t-57.5 37t-32 49.5t-10 53q0 31 11 57.5t29 46t41.5 30t48.5 10.5q14 0 28 -3.5
t24.5 -12t17 -23.5t6.5 -37q0 -32 -13.5 -50t-29.5 -30t-29.5 -21.5t-13.5 -24.5q0 -11 9 -18.5t22 -12t28 -6t27 -1.5q63 0 131.5 21t139 55.5t139.5 79.5t133 94t119 98t98 92zM2702 1244q-38 -42 -69 -95t-43 -113q82 33 157 72t132.5 80.5t92 84t34.5 83.5q0 24 -16 36
t-40 12q-23 0 -53.5 -12.5t-64 -34.5t-67.5 -51t-63 -62zM2476 1000q0 91 34.5 168.5t91.5 139.5q-4 -2 -8 -2q-54 -31 -119.5 -75.5t-133 -96t-133 -106t-118.5 -104.5h50q63 0 151.5 18t184.5 50v8z" />
    <glyph glyph-name="Ccedilla" unicode="&#xc7;" horiz-adv-x="1730" 
d="M1078 -72q24 -15 33 -38.5t9 -59.5q0 -24 -6.5 -48t-17.5 -44q-26 -49 -62 -78.5t-76.5 -46t-84.5 -22t-87 -5.5q-29 0 -58 9t-51.5 26t-36.5 41t-14 54q0 45 25.5 73.5t60.5 28.5q38 0 38 -38q0 -23 -14 -33t-30.5 -14.5t-30 -8.5t-13.5 -16t6 -25.5t19.5 -24.5
t33.5 -18.5t49 -7.5q38 0 76.5 15t69.5 42t50.5 64t19.5 81q0 17 -7 28.5t-19 18t-27.5 9t-32.5 2.5t-34 -1.5t-32 -4.5l-4 18l94 110q-63 21 -97.5 73.5t-34.5 140.5q0 97 37 203.5t101.5 214t151.5 212t186.5 199t208 174.5t215 139t207 92.5t185.5 33.5q19 0 42.5 -1.5
t46.5 -6t44.5 -13t38.5 -21.5q29 -23 45.5 -58t16.5 -74q0 -47 -23 -88t-59 -71.5t-78.5 -48.5t-81.5 -18q-17 0 -37 3t-37 11t-28.5 22.5t-11.5 37.5q0 19 8.5 36.5t23 31t33.5 22t39 8.5q26 0 37 -12t11 -24q0 -20 -12.5 -31t-27.5 -18.5t-27.5 -13.5t-12.5 -15
q0 -16 32 -16q22 0 50 11.5t53 34.5t42 57.5t17 80.5q0 42 -28 68t-82 26t-129.5 -26.5t-162.5 -73.5t-181.5 -112.5t-186 -144.5t-176.5 -168.5t-154 -184t-116.5 -192t-65.5 -192.5q-12 -69 -12 -116q0 -38 14.5 -64t40 -42t60 -23t73.5 -7q60 0 124.5 14t122.5 33.5
t103 40t66 34.5q3 -8 5.5 -13.5t4.5 -10.5q-29 -20 -85 -49t-127.5 -55.5t-153 -45t-162.5 -18.5h-16l-38 -46h20q23 0 46 -6t46 -20z" />
    <glyph glyph-name="Egrave" unicode="&#xc8;" horiz-adv-x="1950" 
d="M2164 1660l40 92l262 -142l22 -60zM1636 1300q-9 -2 -29 -11.5t-45.5 -24.5t-52 -35.5t-49 -45t-36.5 -52.5t-14 -57q0 -22 9.5 -40.5t30 -32t52.5 -21.5t78 -8q23 0 46 1.5t46 6.5v26q0 69 21.5 132t57.5 117t84.5 97.5t101.5 74t108.5 47t106.5 16.5q34 0 57 -10.5
t37 -27t20 -37t6 -39.5q0 -26 -8.5 -62t-43.5 -82.5t-106 -103.5t-196 -124q-36 -20 -69 -33.5t-63 -22.5q7 -33 21 -59t28 -44q17 -21 35 -37l-24 -24q-20 14 -49.5 24t-74.5 10l-28 -2q-52 -5 -117 -30.5t-132.5 -66.5t-131.5 -94t-114 -112.5t-80.5 -122t-30.5 -122.5
q0 -33 5.5 -66.5t25 -60.5t58 -44t103.5 -17q60 0 120 20t114 53.5t100 77t80 90.5t53 94.5t19 88.5q0 32 -11 54.5t-29 36t-41.5 19.5t-48.5 6q-54 0 -114.5 -24t-118 -66.5t-108.5 -102t-85 -129.5l-8 8q12 35 36 79t56 89t71.5 87.5t83.5 75.5t91.5 53t95.5 20
q35 0 65 -16t51.5 -42.5t33.5 -60.5t12 -69q0 -63 -25.5 -125.5t-68.5 -119.5t-100.5 -106.5t-121.5 -85.5t-130.5 -56.5t-127.5 -20.5q-49 0 -96 16.5t-84.5 50t-60.5 83.5t-23 118q0 82 27.5 158.5t75.5 143t113.5 121t141 93.5t157 60.5t163.5 21.5h8h11.5t20.5 -0.5
t34 -1.5q-6 11 -13 24t-13 28q-38 -6 -71 -7t-63 -1q-54 0 -101.5 7t-83.5 23t-56.5 41.5t-20.5 62.5t21 69.5t53.5 59.5t72 49.5t76.5 38.5t66.5 26.5t42.5 14.5l6 2h2zM1898 1250q-22 -25 -42 -53t-36 -59t-26.5 -64.5t-11.5 -69.5q85 27 161 70t133.5 92.5t91.5 100.5
t34 95q0 24 -16 36t-40 12q-23 0 -53.5 -12.5t-64 -34.5t-67.5 -51t-63 -62z" />
    <glyph glyph-name="Eacute" unicode="&#xc9;" horiz-adv-x="1840" 
d="M1526 1300q-9 -2 -29 -11.5t-45.5 -24.5t-52 -35.5t-49 -45t-36.5 -52.5t-14 -57q0 -22 9.5 -40.5t30 -32t52.5 -21.5t78 -8q23 0 46 1.5t46 6.5v26q0 69 21.5 132t57.5 117t84.5 97.5t101.5 74t108.5 47t106.5 16.5q34 0 57 -10.5t37 -27t20 -37t6 -39.5q0 -26 -8.5 -62
t-43.5 -82.5t-106 -103.5t-196 -124q-36 -20 -69 -33.5t-63 -22.5q7 -33 21 -59t28 -44q17 -21 35 -37l-24 -24q-20 14 -49.5 24t-74.5 10l-28 -2q-52 -5 -117 -30.5t-132.5 -66.5t-131.5 -94t-114 -112.5t-80.5 -122t-30.5 -122.5q0 -33 5.5 -66.5t25 -60.5t58 -44
t103.5 -17q61 0 120.5 20t113.5 53.5t100 77t80 90.5t53 94.5t19 88.5q0 32 -11 54.5t-29 36t-41.5 19.5t-48.5 6q-54 0 -114.5 -24t-118 -66.5t-108.5 -102t-85 -129.5l-8 8q12 35 36 79t56 89t71.5 87.5t83.5 75.5t91.5 53t95.5 20q35 0 65 -16t51.5 -42.5t33.5 -60.5
t12 -69q0 -63 -25.5 -125.5t-68.5 -119.5t-100.5 -106.5t-121.5 -85.5t-130.5 -56.5t-127.5 -20.5q-49 0 -96 16.5t-84.5 50t-60.5 83.5t-23 118q0 82 27.5 158.5t75.5 143t113.5 121t141 93.5t157 60.5t163.5 21.5h8h11.5t20.5 -0.5t34 -1.5q-6 11 -13 24t-13 28
q-38 -6 -71 -7t-63 -1q-54 0 -101.5 7t-83.5 23t-56.5 41.5t-20.5 62.5t21 69.5t53.5 59.5t72 49.5t76.5 38.5t66.5 26.5t42.5 14.5l6 2h2zM1788 1250q-22 -25 -42 -53t-36 -59t-26.5 -64.5t-11.5 -69.5q85 27 161 70t133.5 92.5t91.5 100.5t34 95q0 24 -16 36t-40 12
q-23 0 -53.5 -12.5t-64 -34.5t-67.5 -51t-63 -62zM2144 1578l22 60l262 142l40 -92z" />
    <glyph glyph-name="Ecircumflex" unicode="&#xca;" horiz-adv-x="1832" 
d="M1518 1300q-9 -2 -29 -11.5t-45.5 -24.5t-52 -35.5t-49 -45t-36.5 -52.5t-14 -57q0 -22 9.5 -40.5t30 -32t52.5 -21.5t78 -8q23 0 46 1.5t46 6.5v26q0 69 21.5 132t57.5 117t84.5 97.5t101.5 74t108.5 47t106.5 16.5q34 0 57 -10.5t37 -27t20 -37t6 -39.5q0 -26 -8.5 -62
t-43.5 -82.5t-106 -103.5t-196 -124q-36 -20 -69 -33.5t-63 -22.5q7 -33 21 -59t28 -44q17 -21 35 -37l-24 -24q-20 14 -49.5 24t-74.5 10l-28 -2q-52 -5 -117 -30.5t-132.5 -66.5t-131.5 -94t-114 -112.5t-80.5 -122t-30.5 -122.5q0 -33 5.5 -66.5t25 -60.5t58 -44
t103.5 -17q60 0 120 20t114 53.5t100 77t80 90.5t53 94.5t19 88.5q0 32 -11 54.5t-29 36t-41.5 19.5t-48.5 6q-54 0 -114.5 -24t-118 -66.5t-108.5 -102t-85 -129.5l-8 8q13 35 36.5 79t55.5 89t71.5 87.5t83.5 75.5t91.5 53t95.5 20q35 0 65 -16t51.5 -42.5t33.5 -60.5
t12 -69q0 -63 -25.5 -125.5t-68.5 -119.5t-100.5 -106.5t-121.5 -85.5t-130.5 -56.5t-127.5 -20.5q-49 0 -96 16.5t-84.5 50t-60.5 83.5t-23 118q0 82 27.5 158.5t75.5 143t113.5 121t141 93.5t157 60.5t163.5 21.5h8h11.5t20.5 -0.5t34 -1.5q-6 11 -13 24t-13 28
q-38 -6 -71 -7t-63 -1q-54 0 -101.5 7t-83.5 23t-56.5 41.5t-20.5 62.5t21 69.5t53.5 59.5t72 49.5t76.5 38.5t66.5 26.5t42.5 14.5l6 2h2zM1780 1250q-22 -25 -42 -53t-36 -59t-26.5 -64.5t-11.5 -69.5q85 27 161 70t133.5 92.5t91.5 100.5t34 95q0 24 -16 36t-40 12
q-23 0 -53.5 -12.5t-64 -34.5t-67.5 -51t-63 -62zM2166 1704l-266 -90l22 60l258 140l116 -168l22 -60z" />
    <glyph glyph-name="Edieresis" unicode="&#xcb;" horiz-adv-x="1830" 
d="M1526 1300q-9 -2 -29 -11.5t-45.5 -24.5t-52 -35.5t-49 -45t-36.5 -52.5t-14 -57q0 -22 9.5 -40.5t30 -32t52.5 -21.5t78 -8q23 0 46 1.5t46 6.5v26q0 69 21.5 132t57.5 117t84.5 97.5t101.5 74t108.5 47t106.5 16.5q34 0 57 -10.5t37 -27t20 -37t6 -39.5q0 -26 -8.5 -62
t-43.5 -82.5t-106 -103.5t-196 -124q-36 -20 -69 -33.5t-63 -22.5q7 -33 21 -59t28 -44q17 -21 35 -37l-24 -24q-20 14 -49.5 24t-74.5 10l-28 -2q-52 -5 -117 -30.5t-132.5 -66.5t-131.5 -94t-114 -112.5t-80.5 -122t-30.5 -122.5q0 -33 5.5 -66.5t25 -60.5t58 -44
t103.5 -17q61 0 120.5 20t113.5 53.5t100 77t80 90.5t53 94.5t19 88.5q0 32 -11 54.5t-29 36t-41.5 19.5t-48.5 6q-54 0 -114.5 -24t-118 -66.5t-108.5 -102t-85 -129.5l-8 8q12 35 36 79t56 89t71.5 87.5t83.5 75.5t91.5 53t95.5 20q35 0 65 -16t51.5 -42.5t33.5 -60.5
t12 -69q0 -63 -25.5 -125.5t-68.5 -119.5t-100.5 -106.5t-121.5 -85.5t-130.5 -56.5t-127.5 -20.5q-49 0 -96 16.5t-84.5 50t-60.5 83.5t-23 118q0 82 27.5 158.5t75.5 143t113.5 121t141 93.5t157 60.5t163.5 21.5h8h11.5t20.5 -0.5t34 -1.5q-6 11 -13 24t-13 28
q-38 -6 -71 -7t-63 -1q-54 0 -101.5 7t-83.5 23t-56.5 41.5t-20.5 62.5t21 69.5t53.5 59.5t72 49.5t76.5 38.5t66.5 26.5t42.5 14.5l6 2h2zM1788 1250q-22 -25 -42 -53t-36 -59t-26.5 -64.5t-11.5 -69.5q85 27 161 70t133.5 92.5t91.5 100.5t34 95q0 24 -16 36t-40 12
q-23 0 -53.5 -12.5t-64 -34.5t-67.5 -51t-63 -62zM2108 1660q0 -17 -9 -32t-23.5 -26t-33.5 -17.5t-38 -6.5q-14 0 -27.5 3t-25 11t-18.5 21.5t-7 34.5q0 18 10 31t25 21t34 12t37 4q30 0 50.5 -13.5t25.5 -42.5zM2346 1658q0 -17 -9 -32t-23.5 -26t-33.5 -17.5t-38 -6.5
q-14 0 -27.5 3t-25 11t-18.5 21.5t-7 34.5q0 18 10 31t25 21t34 12t37 4q30 0 50.5 -13.5t25.5 -42.5z" />
    <glyph glyph-name="Igrave" unicode="&#xcc;" horiz-adv-x="1732" 
d="M1770 1354q34 39 64 53.5t72 14.5q47 0 67.5 -15.5t20.5 -44.5q0 -19 4 -30.5t10.5 -17.5t14 -8t15.5 -2q33 0 74 10t86 26.5t91.5 37.5t89.5 43t81 42.5t66 36.5l20 -18q-83 -53 -163.5 -120.5t-154 -138t-138.5 -139t-116 -124.5q-30 -34 -70 -80t-87 -99.5t-98 -111.5
t-102.5 -116.5t-102.5 -114t-96 -102.5q-70 -73 -143 -134t-152 -105.5t-164 -69.5t-179 -25q-109 0 -168.5 42t-59.5 110q0 25 8 51.5t24.5 48t41 35t56.5 13.5q36 0 56 -19t20 -55q0 -33 -15.5 -53.5t-33.5 -34.5t-33.5 -25.5t-15.5 -26.5q0 -21 24 -31.5t66 -10.5
q80 0 149 24t132 67t123.5 103t123.5 132q97 110 209.5 236t230.5 260q89 101 185 203t215 193q-12 -8 -31.5 -18t-42.5 -18.5t-47.5 -14t-46.5 -5.5q-32 0 -53 15t-21 53v86q0 9 -5 13.5t-13 4.5q-11 0 -26.5 -9t-41.5 -35zM1994 1610l40 92l262 -142l22 -60z" />
    <glyph glyph-name="Iacute" unicode="&#xcd;" horiz-adv-x="1808" 
d="M1836 1354q34 39 64 53.5t72 14.5q47 0 67.5 -15.5t20.5 -44.5q0 -19 4 -30.5t10.5 -17.5t14 -8t15.5 -2q33 0 74 10t86 26.5t91.5 37.5t89.5 43t81 42.5t66 36.5l20 -18q-83 -53 -163.5 -120.5t-154 -138t-138.5 -139t-116 -124.5q-30 -34 -70 -80t-87 -99.5t-98 -111.5
t-102.5 -116.5t-102.5 -114t-96 -102.5q-70 -73 -143 -134t-152 -105.5t-164 -69.5t-179 -25q-109 0 -168.5 42t-59.5 110q0 25 8 51.5t24.5 48t41 35t56.5 13.5q36 0 56 -19t20 -55q0 -33 -15.5 -53.5t-33.5 -34.5t-33.5 -25.5t-15.5 -26.5q0 -21 24 -31.5t66 -10.5
q80 0 149 24t132 67t123.5 103t123.5 132q97 110 209.5 236t230.5 260q89 101 185 203t215 193q-12 -8 -31.5 -18t-42.5 -18.5t-47.5 -14t-46.5 -5.5q-32 0 -53 15t-21 53v86q0 9 -5 13.5t-13 4.5q-11 0 -26.5 -9t-41.5 -35zM2168 1490l22 60l262 142l40 -92z" />
    <glyph glyph-name="Icircumflex" unicode="&#xce;" horiz-adv-x="1870" 
d="M2424 1682l-266 -90l22 60l258 140l116 -168l22 -60zM1898 1354q34 39 64 53.5t72 14.5q47 0 67.5 -15.5t20.5 -44.5q0 -19 4 -30.5t10.5 -17.5t14 -8t15.5 -2q33 0 74 10t86 26.5t91.5 37.5t89.5 43t81 42.5t66 36.5l20 -18q-83 -53 -163.5 -120.5t-154 -138
t-138.5 -139t-116 -124.5q-30 -34 -70 -80t-87 -99.5t-98 -111.5t-102.5 -116.5t-102.5 -114t-96 -102.5q-70 -73 -143 -134t-152 -105.5t-164 -69.5t-179 -25q-109 0 -168.5 42t-59.5 110q0 25 8 51.5t24.5 48t41 35t56.5 13.5q36 0 56 -19t20 -55q0 -33 -15.5 -53.5
t-33.5 -34.5t-33.5 -25.5t-15.5 -26.5q0 -21 24 -31.5t66 -10.5q80 0 149 24t132 67t123.5 103t123.5 132q97 110 209.5 236t230.5 260q89 101 185 203t215 193q-12 -8 -31.5 -18t-42.5 -18.5t-47.5 -14t-46.5 -5.5q-32 0 -53 15t-21 53v86q0 9 -5 13.5t-13 4.5
q-11 0 -26.5 -9t-41.5 -35z" />
    <glyph glyph-name="Idieresis" unicode="&#xcf;" horiz-adv-x="1902" 
d="M1930 1354q34 39 64 53.5t72 14.5q47 0 67.5 -15.5t20.5 -44.5q0 -19 4 -30.5t10.5 -17.5t14 -8t15.5 -2q33 0 74 10t86 26.5t91.5 37.5t89.5 43t81 42.5t66 36.5l20 -18q-83 -53 -163.5 -120.5t-154 -138t-138.5 -139t-116 -124.5q-30 -34 -70 -80t-87 -99.5t-98 -111.5
t-102.5 -116.5t-102.5 -114t-96 -102.5q-70 -73 -143 -134t-152 -105.5t-164 -69.5t-179 -25q-109 0 -168.5 42t-59.5 110q0 25 8 51.5t24.5 48t41 35t56.5 13.5q36 0 56 -19t20 -55q0 -33 -15.5 -53.5t-33.5 -34.5t-33.5 -25.5t-15.5 -26.5q0 -21 24 -31.5t66 -10.5
q80 0 149 24t132 67t123.5 103t123.5 132q97 110 209.5 236t230.5 260q89 101 185 203t215 193q-12 -8 -31.5 -18t-42.5 -18.5t-47.5 -14t-46.5 -5.5q-32 0 -53 15t-21 53v86q0 9 -5 13.5t-13 4.5q-11 0 -26.5 -9t-41.5 -35zM2458 1672q0 -17 -9 -32t-23.5 -26t-33.5 -17.5
t-38 -6.5q-14 0 -27.5 3t-25 11t-18.5 21.5t-7 34.5q0 18 10 31t25 21t34 12t37 4q30 0 50.5 -13.5t25.5 -42.5zM2696 1670q0 -17 -9 -32t-23.5 -26t-33.5 -17.5t-38 -6.5q-14 0 -27.5 3t-25 11t-18.5 21.5t-7 34.5q0 18 10 31t25 21t34 12t37 4q30 0 50.5 -13.5t25.5 -42.5
z" />
    <glyph glyph-name="Eth" unicode="&#xd0;" horiz-adv-x="1406" 
d="M1812 1470q-47 -27 -92 -58.5t-90 -67.5q6 -26 10 -55t4 -61q0 -162 -42 -301t-113 -255.5t-165 -212t-198.5 -170t-212.5 -129.5t-207.5 -90.5t-183.5 -53.5t-140 -18q-48 0 -100 15t-106 35q-60 -17 -115.5 -24.5t-106.5 -7.5q-18 0 -39 4.5t-39 14t-30 24.5t-12 35
q0 15 11.5 27.5t28.5 21.5t37 14t37 5q57 0 109 -16t103 -36q53 24 105 56t100 66.5t90.5 69.5t76.5 66h-232l88 100l228 -22q30 22 77.5 70t104.5 110t119.5 133t121 139.5t109.5 128.5t86 101q24 28 59.5 62t78.5 69.5t90.5 70.5t95.5 66q-24 48 -62.5 64t-85.5 16
q-113 0 -217.5 -37.5t-195.5 -97.5t-166.5 -136t-129.5 -154t-83.5 -150t-29.5 -125q0 -21 15.5 -31.5t44.5 -10.5q34 0 76 12t93 48t113 103.5t138 178.5l16 -18q-50 -95 -104 -171.5t-112.5 -130.5t-120 -83t-125.5 -29q-51 0 -81 18.5t-46 50t-20.5 71.5t-4.5 84
q0 65 30.5 138t88 145t139 137.5t183.5 115.5t222 80t255 30q77 0 128.5 -24.5t81.5 -69.5q56 32 107.5 52.5t90.5 23.5zM952 416l-42 -48h-188q-125 -112 -242 -183.5t-226 -110.5q33 -12 67.5 -19t70.5 -7q70 0 159.5 22.5t187 65.5t199 104t196.5 138t179 168t146.5 194
t98.5 215.5t36 232.5q0 35 -1.5 65.5t-6.5 54.5q-75 -62 -142.5 -130t-123.5 -136l-330 -396q-51 -62 -101.5 -115t-98.5 -101zM-42 106q-24 0 -39 -5.5t-15 -14.5q0 -12 19 -19t37 -7q30 0 61 5.5t63 14.5q-33 11 -64.5 17.5t-61.5 8.5z" />
    <glyph glyph-name="Ntilde" unicode="&#xd1;" horiz-adv-x="1590" 
d="M976 312q33 43 74.5 92t89.5 103.5t101 114t109 122.5q51 58 93.5 106t80.5 90t75 82.5t78 83.5t89.5 92.5t109.5 111.5q-61 -35 -135 -86.5t-149 -110.5t-144.5 -120t-121.5 -113q-98 -101 -202.5 -209t-216.5 -211t-233 -195t-252 -159q-56 -28 -104 -46.5t-91.5 -30
t-84 -16.5t-80.5 -5q-51 0 -86.5 14.5t-57.5 37t-32 49.5t-10 53q0 31 11 57.5t29 46t41.5 30t48.5 10.5q14 0 28 -3.5t24.5 -12t17 -23.5t6.5 -37q0 -32 -15.5 -52t-33.5 -34t-33.5 -25.5t-15.5 -26.5q0 -11 9 -18.5t22 -12t28 -6t27 -1.5q48 0 88.5 5.5t79 16.5t78 27.5
t86.5 38.5q28 13 67.5 37.5t83.5 55.5t90.5 66t89 70t79.5 67.5t62 57.5l420 412q207 204 433.5 356t472.5 252q5 2 15 4t21 2q9 0 15.5 -2.5t6.5 -11.5q0 -16 -5.5 -27t-13.5 -18.5t-16.5 -12.5t-14.5 -8q-39 -18 -90 -58.5t-109 -95t-120.5 -120t-123.5 -133.5t-118 -136
t-105 -127q-43 -53 -92 -108t-99 -110t-98.5 -108t-90.5 -102q-17 -21 -29 -36t-23 -27.5t-23.5 -24.5t-30.5 -28q86 47 165 97t158 108.5t161.5 129t174.5 157.5t198 193.5t233 238.5q106 111 188 179.5t148 106.5t120.5 51t107.5 13q62 0 95 -27.5t33 -68.5
q0 -25 -11.5 -53.5t-33 -52.5t-53.5 -40t-72 -16q-12 0 -25.5 3t-25.5 10t-19.5 18.5t-7.5 28.5q0 31 20.5 50t45.5 31.5t45.5 22.5t20.5 24q0 11 -13 13.5t-25 2.5q-44 0 -87 -13t-84.5 -35t-81 -51t-75.5 -61q-54 -48 -99.5 -97t-80.5 -85q-122 -131 -229 -239.5
t-205.5 -200.5t-193 -170t-192 -146.5t-202.5 -129.5t-224 -120q-60 -29 -101 -47t-69.5 -28t-46.5 -13.5t-31 -3.5q-5 0 -12.5 1t-14.5 4t-12 8t-5 13q0 18 32.5 38t85.5 46q60 29 111.5 74.5t108.5 119.5zM2798 1702l-34 -56h-362l64 90z" />
    <glyph glyph-name="Ograve" unicode="&#xd2;" horiz-adv-x="2062" 
d="M1444 884q35 68 87 140t116 140t137 129t147.5 106.5t148 72t140.5 26.5q34 0 64 -11.5t52.5 -32.5t36 -52t13.5 -70q0 -91 -35.5 -196.5t-97 -216t-144.5 -221.5t-178 -213.5t-197.5 -191t-203 -153.5t-194.5 -102.5t-172 -37.5q-65 0 -110 18.5t-73 49.5t-40.5 72
t-12.5 86q0 65 16 132.5t42.5 134.5t61 131t71 122t72 107.5t65.5 88.5q61 82 134.5 155.5t149.5 134.5t150 107.5t136 74.5l28 -30q-88 -62 -165 -132.5t-146 -147t-131.5 -159.5t-121.5 -171q-38 -55 -77 -121t-71.5 -140.5t-53 -156t-20.5 -166.5q0 -53 29.5 -77.5
t88.5 -24.5q16 0 57.5 12.5t100.5 40.5t133 72.5t156 109t168 149.5t171 194q27 35 61.5 83t70.5 102.5t70.5 114t61.5 118t43.5 114.5t16.5 104q0 45 -28.5 70.5t-91.5 25.5q-27 0 -69.5 -19t-96.5 -53.5t-118 -83t-132.5 -108t-140.5 -128.5t-143 -144zM2166 1692l40 92
l262 -142l22 -60z" />
    <glyph glyph-name="Oacute" unicode="&#xd3;" horiz-adv-x="2000" 
d="M1372 884q35 68 87 140t116 140t137 129t147.5 106.5t148 72t140.5 26.5q34 0 64 -11.5t52.5 -32.5t36 -52t13.5 -70q0 -91 -35.5 -196.5t-97 -216t-144.5 -221.5t-178 -213.5t-197.5 -191t-203 -153.5t-194.5 -102.5t-172 -37.5q-65 0 -110 18.5t-73 49.5t-40.5 72
t-12.5 86q0 65 16 132.5t42.5 134.5t61 131t71 122t72 108t64.5 89q62 81 135.5 154.5t149.5 134.5t150 107.5t136 74.5l28 -30q-88 -62 -165 -132.5t-146 -147t-131.5 -159.5t-122.5 -171q-37 -55 -76 -121t-71.5 -140.5t-53 -156t-20.5 -166.5q0 -53 29.5 -77.5
t88.5 -24.5q16 0 57.5 12.5t100.5 40.5t133 72.5t155.5 109t168 150t170.5 194.5q27 35 62 82.5t71 102t70.5 114t61.5 118t43.5 114.5t16.5 104q0 45 -28.5 70.5t-91.5 25.5q-27 0 -69.5 -19t-96.5 -53.5t-118 -83t-132.5 -108t-140.5 -128.5t-143 -144zM2266 1608l22 60
l262 142l40 -92z" />
    <glyph glyph-name="Ocircumflex" unicode="&#xd4;" horiz-adv-x="2086" 
d="M1440 884q34 68 86.5 140t116.5 140t137 129t147.5 106.5t148 72t140.5 26.5q34 0 64 -11.5t52.5 -32.5t36 -52t13.5 -70q0 -91 -35.5 -196.5t-97 -216t-144.5 -221.5t-178 -213.5t-197.5 -191t-203 -153.5t-194.5 -102.5t-172 -37.5q-65 0 -110 18.5t-73 49.5t-40.5 72
t-12.5 86q0 65 16 132.5t42.5 134.5t61 131t71 122t72 107.5t65.5 88.5q61 82 134.5 155.5t149.5 134.5t150 107.5t136 74.5l28 -30q-88 -62 -165 -132.5t-146 -147t-131.5 -159.5t-121.5 -171q-38 -55 -77 -121t-71.5 -140.5t-53 -156t-20.5 -166.5q0 -53 29.5 -77.5
t88.5 -24.5q16 0 57.5 12.5t100.5 40.5t133 72.5t156 109t168 149.5t171 194q27 35 61.5 83t70.5 102.5t70.5 114t61.5 118t43.5 114.5t16.5 104q0 45 -28.5 70.5t-91.5 25.5q-27 0 -69.5 -19t-96.5 -53.5t-118 -83t-132.5 -108t-140.5 -128.5t-143 -144zM2346 1690
l-266 -90l22 60l258 140l116 -168l22 -60z" />
    <glyph glyph-name="Otilde" unicode="&#xd5;" horiz-adv-x="2006" 
d="M1368 884q34 68 86.5 140t116.5 140t137 129t147.5 106.5t148 72t140.5 26.5q34 0 64 -11.5t52.5 -32.5t36 -52t13.5 -70q0 -91 -35.5 -196.5t-97 -216t-144.5 -221.5t-178 -213.5t-197.5 -191t-203 -153.5t-194.5 -102.5t-172 -37.5q-65 0 -110 18.5t-73 49.5t-40.5 72
t-12.5 86q0 65 16 132.5t42.5 134.5t61 131t71 122t72 107.5t65.5 88.5q61 82 134.5 155.5t149.5 134.5t150 107.5t136 74.5l28 -30q-88 -62 -165 -132.5t-146 -147t-131.5 -159.5t-121.5 -171q-38 -55 -77 -121t-71.5 -140.5t-53 -156t-20.5 -166.5q0 -53 29.5 -77.5
t88.5 -24.5q16 0 57.5 12.5t100.5 40.5t133 72.5t156 109t168 149.5t171 194q27 35 61.5 83t70.5 102.5t70.5 114t61.5 118t43.5 114.5t16.5 104q0 45 -28.5 70.5t-91.5 25.5q-27 0 -69.5 -19t-96.5 -53.5t-118 -83t-132.5 -108t-140.5 -128.5t-143 -144zM2502 1712l-34 -56
h-362l64 90z" />
    <glyph glyph-name="Odieresis" unicode="&#xd6;" horiz-adv-x="2088" 
d="M1416 884q34 68 86.5 140t116.5 140t137 129t147.5 106.5t148 72t140.5 26.5q34 0 64 -11.5t52.5 -32.5t36 -52t13.5 -70q0 -91 -35.5 -196.5t-97 -216t-144.5 -221.5t-178 -213.5t-197.5 -191t-203 -153.5t-194.5 -102.5t-172 -37.5q-65 0 -110 18.5t-73 49.5t-40.5 72
t-12.5 86q0 65 16 132.5t42.5 134.5t61 131t71 122t72 107.5t65.5 88.5q61 82 134.5 155.5t149.5 134.5t150 107.5t136 74.5l28 -30q-88 -62 -165 -132.5t-146 -147t-131.5 -159.5t-121.5 -171q-38 -55 -77 -121t-71.5 -140.5t-53 -156t-20.5 -166.5q0 -53 29.5 -77.5
t88.5 -24.5q16 0 57.5 12.5t100.5 40.5t133 72.5t156 109t168 149.5t171 194q27 35 61.5 83t70.5 102.5t70.5 114t61.5 118t43.5 114.5t16.5 104q0 45 -28.5 70.5t-91.5 25.5q-27 0 -69.5 -19t-96.5 -53.5t-118 -83t-132.5 -108t-140.5 -128.5t-143 -144zM2318 1708
q0 -17 -9 -32t-23.5 -26t-33.5 -17.5t-38 -6.5q-14 0 -27.5 3t-25 11t-18.5 21.5t-7 34.5q0 18 10 31t25 21t34 12t37 4q30 0 50.5 -13.5t25.5 -42.5zM2556 1706q0 -17 -9 -32t-23.5 -26t-33.5 -17.5t-38 -6.5q-14 0 -27.5 3t-25 11t-18.5 21.5t-7 34.5q0 18 10 31t25 21
t34 12t37 4q30 0 50.5 -13.5t25.5 -42.5z" />
    <glyph glyph-name="multiply" unicode="&#xd7;" horiz-adv-x="1010" 
d="M516 286l-478 -194l44 126l318 108l-176 60l40 92l250 -114l450 154l-22 -60l-334 -136l136 -60l22 -60z" />
    <glyph glyph-name="Oslash" unicode="&#xd8;" horiz-adv-x="1666" 
d="M794 884q34 68 86.5 140t116.5 140t137 129t147.5 106.5t148 72t140.5 26.5q34 0 64 -11.5t52.5 -32.5t36 -52t13.5 -70q0 -91 -35.5 -196.5t-97 -216t-144.5 -221.5t-178 -213.5t-197.5 -191t-203 -153.5t-194.5 -102.5t-172 -37.5q-65 0 -110 18.5t-73 49.5t-40.5 72
t-12.5 86q0 65 16 132.5t42.5 134.5t61 131t71 122t72 107.5t65.5 88.5q61 82 134.5 155.5t149.5 134.5t150 107.5t136 74.5l28 -30q-88 -62 -165 -132.5t-146 -147t-131.5 -159.5t-121.5 -171q-38 -55 -77 -121t-71.5 -140.5t-53 -156t-20.5 -166.5q0 -65 46 -88l1030 1290
q-48 -14 -122 -59.5t-162.5 -116t-187.5 -161t-196 -193.5zM1646 1302q0 17 -4.5 32t-13.5 26l-1114 -1272h22q17 0 58 12.5t100 40.5t133 72.5t156 109t168 149.5t171 194q27 35 61.5 83t70.5 102.5t70.5 114t61.5 118t43.5 114.5t16.5 104z" />
    <glyph glyph-name="Ugrave" unicode="&#xd9;" horiz-adv-x="1586" 
d="M1746 1276q41 45 74 77.5t50 32.5q10 0 26.5 -2.5t32 -7t26.5 -11.5t11 -17q0 -4 -10 -17t-26 -31t-35 -39t-37 -40.5t-33.5 -36t-22.5 -24.5q-155 -178 -311.5 -351t-314.5 -351q-55 -62 -102.5 -116t-83 -99t-56 -79t-20.5 -54q0 -11 1 -22.5t6 -20.5t15.5 -15t29.5 -6
q48 0 102.5 11.5t111.5 31t113.5 43.5t108.5 50l10 -24q-70 -36 -139.5 -65.5t-133 -50.5t-118 -32.5t-93.5 -11.5q-24 0 -50 2t-48 12.5t-36 32t-14 61.5q0 12 1.5 24t6.5 26q-35 -32 -76 -62t-86 -53.5t-91.5 -38t-92.5 -14.5t-78.5 12.5t-53.5 32t-30.5 44t-9.5 47.5
q0 49 21 97t54.5 93.5t75.5 89t83 84.5q44 45 103 104.5t121.5 122t122.5 123.5t108 109t77 78t30 31q23 27 46.5 56.5t42.5 58.5t31 57t12 52q0 28 -14.5 52.5t-43.5 43t-73 29.5t-103 11q-33 0 -75.5 -5t-86.5 -15t-86.5 -26.5t-75.5 -39t-53.5 -52t-20.5 -66.5
q0 -25 15.5 -42.5t40.5 -28.5t57 -16t65 -5q38 0 76.5 6.5t74 19t66 31t53.5 41.5l20 -12q-29 -35 -69 -59t-86.5 -39t-96 -21.5t-96.5 -6.5q-57 0 -95 16.5t-60.5 39.5t-31.5 48.5t-9 43.5q5 66 53 119q20 22 51.5 43.5t77.5 38t108 27t144 10.5q88 0 151.5 -12t106.5 -31
t68.5 -43.5t39.5 -48.5t18 -46t4 -37q0 -50 -25 -98t-61 -92.5t-75.5 -84t-68.5 -73.5q-38 -43 -87.5 -93t-104 -102.5t-111.5 -107t-110 -107t-99.5 -102t-79.5 -92.5q-8 -9 -25.5 -32t-35.5 -51.5t-31.5 -58.5t-13.5 -54q0 -21 22 -36.5t58 -15.5q58 0 118.5 30
t120.5 76.5t116 104t105 113.5q33 39 65 74t61 64l4 4t12 13t27.5 30.5t51.5 56.5t83 91t122.5 135t170 187.5t225.5 248.5zM1372 1574l40 92l262 -142l22 -60z" />
    <glyph glyph-name="Uacute" unicode="&#xda;" horiz-adv-x="2204" 
d="M2520 1276q41 45 74 77.5t50 32.5q10 0 26.5 -2.5t32 -7t26.5 -11.5t11 -17q0 -4 -10 -17t-26 -31t-35 -39t-37 -40.5t-33.5 -36t-22.5 -24.5q-155 -178 -311.5 -351t-314.5 -351q-55 -62 -102.5 -116t-83 -99t-56 -79t-20.5 -54q0 -11 1 -22.5t6 -20.5t15.5 -15t29.5 -6
q48 0 102.5 11.5t111.5 31t113.5 43.5t108.5 50l10 -24q-70 -36 -139.5 -65.5t-133 -50.5t-118 -32.5t-93.5 -11.5q-24 0 -50 2t-48 12.5t-36 32t-14 61.5q0 12 1.5 24t6.5 26q-35 -32 -76 -62t-86 -53.5t-91.5 -38t-92.5 -14.5t-78.5 12.5t-53.5 32t-30.5 44t-9.5 47.5
q0 49 21 97t54.5 93.5t75.5 89t83 84.5q45 45 103.5 104.5t121 122t122.5 123.5t108 109t77 78t30 31q23 27 46.5 56.5t42.5 58.5t31 57t12 52q0 28 -14.5 52.5t-43.5 43t-73 29.5t-103 11q-33 0 -75.5 -5t-86.5 -15t-86.5 -26.5t-75.5 -39t-53.5 -52t-20.5 -66.5
q0 -25 15.5 -42.5t40.5 -28.5t57 -16t65 -5q38 0 76.5 6.5t74 19t66 31t53.5 41.5l20 -12q-29 -35 -69 -59t-86.5 -39t-96 -21.5t-96.5 -6.5q-57 0 -95 16.5t-60.5 39.5t-31.5 48.5t-9 43.5q5 66 53 119q20 22 51.5 43.5t77.5 38t108 27t144 10.5q89 0 152 -12t106 -31
t68.5 -43.5t39.5 -48.5t18 -46t4 -37q0 -50 -25 -98t-61 -92.5t-75.5 -84t-68.5 -73.5q-38 -43 -87.5 -93t-104 -102.5t-111.5 -107t-110 -107t-99.5 -102t-79.5 -92.5q-8 -9 -25.5 -32t-35.5 -51.5t-31.5 -58.5t-13.5 -54q0 -21 22 -36.5t58 -15.5q58 0 118.5 30
t120.5 76.5t116 104t105 113.5q33 39 65 74t61 64l4 4t12 13t27.5 30.5t51.5 56.5t83 91t122.5 135t170 187.5t225.5 248.5zM2394 1522l22 60l262 142l40 -92z" />
    <glyph glyph-name="Ucircumflex" unicode="&#xdb;" horiz-adv-x="2114" 
d="M2426 1276q41 45 74 77.5t50 32.5q10 0 26.5 -2.5t32 -7t26.5 -11.5t11 -17q0 -4 -10 -17t-26 -31t-35 -39t-37 -40.5t-33.5 -36t-22.5 -24.5q-155 -178 -311.5 -351t-314.5 -351q-55 -62 -102.5 -116t-83 -99t-56 -79t-20.5 -54q0 -11 1 -22.5t6 -20.5t15.5 -15t29.5 -6
q48 0 102.5 11.5t111.5 31t113.5 43.5t108.5 50l10 -24q-70 -36 -139.5 -65.5t-133 -50.5t-118 -32.5t-93.5 -11.5q-24 0 -50 2t-48 12.5t-36 32t-14 61.5q0 12 1.5 24t6.5 26q-35 -32 -76 -62t-86 -53.5t-91.5 -38t-92.5 -14.5t-78.5 12.5t-53.5 32t-30.5 44t-9.5 47.5
q0 49 21 97t54.5 93.5t75.5 89t83 84.5q44 45 103 104.5t121.5 122t122.5 123.5t108 109t77 78t30 31q23 27 46.5 56.5t42.5 58.5t31 57t12 52q0 28 -14.5 52.5t-43.5 43t-73 29.5t-103 11q-33 0 -75.5 -5t-86.5 -15t-86.5 -26.5t-75.5 -39t-53.5 -52t-20.5 -66.5
q0 -25 15.5 -42.5t40.5 -28.5t57 -16t65 -5q38 0 76.5 6.5t74 19t66 31t53.5 41.5l20 -12q-29 -35 -69 -59t-86.5 -39t-96 -21.5t-96.5 -6.5q-57 0 -95 16.5t-60.5 39.5t-31.5 48.5t-9 43.5q5 66 53 119q20 22 51.5 43.5t77.5 38t108 27t144 10.5q88 0 151.5 -12t106.5 -31
t68.5 -43.5t39.5 -48.5t18 -46t4 -37q0 -50 -25 -98t-61 -92.5t-75.5 -84t-68.5 -73.5q-38 -43 -87.5 -93t-104 -102.5t-111.5 -107t-110 -107t-99.5 -102t-79.5 -92.5q-8 -9 -25.5 -32t-35.5 -51.5t-31.5 -58.5t-13.5 -54q0 -21 22 -36.5t58 -15.5q58 0 118.5 30
t120.5 76.5t116 104t105 113.5q33 39 65 74t61 64l4 4t12 13t27.5 30.5t51.5 56.5t83 91t122.5 135t170 187.5t225.5 248.5zM2366 1634l-266 -90l22 60l258 140l116 -168l22 -60z" />
    <glyph glyph-name="Udieresis" unicode="&#xdc;" horiz-adv-x="2128" 
d="M2432 1276q41 45 74 77.5t50 32.5q10 0 26.5 -2.5t32 -7t26.5 -11.5t11 -17q0 -4 -10 -17t-26 -31t-35 -39t-37 -40.5t-33.5 -36t-22.5 -24.5q-155 -178 -311.5 -351t-314.5 -351q-55 -62 -102.5 -116t-83 -99t-56 -79t-20.5 -54q0 -11 1 -22.5t6 -20.5t15.5 -15t29.5 -6
q48 0 102.5 11.5t111.5 31t113.5 43.5t108.5 50l10 -24q-70 -36 -139.5 -65.5t-133 -50.5t-118 -32.5t-93.5 -11.5q-24 0 -50 2t-48 12.5t-36 32t-14 61.5q0 12 1.5 24t6.5 26q-35 -32 -76 -62t-86 -53.5t-91.5 -38t-92.5 -14.5t-78.5 12.5t-53.5 32t-30.5 44t-9.5 47.5
q0 49 21 97t54.5 93.5t75.5 89t83 84.5q44 45 103 104.5t121.5 122t122.5 123.5t108 109t77 78t30 31q23 27 46.5 56.5t42.5 58.5t31 57t12 52q0 28 -14.5 52.5t-43.5 43t-73 29.5t-103 11q-33 0 -75.5 -5t-86.5 -15t-86.5 -26.5t-75.5 -39t-53.5 -52t-20.5 -66.5
q0 -25 15.5 -42.5t40.5 -28.5t57 -16t65 -5q38 0 76.5 6.5t74 19t66 31t53.5 41.5l20 -12q-29 -35 -69 -59t-86.5 -39t-96 -21.5t-96.5 -6.5q-57 0 -95 16.5t-60.5 39.5t-31.5 48.5t-9 43.5q5 66 53 119q20 22 51.5 43.5t77.5 38t108 27t144 10.5q88 0 151.5 -12t106.5 -31
t68.5 -43.5t39.5 -48.5t18 -46t4 -37q0 -50 -25 -98t-61 -92.5t-75.5 -84t-68.5 -73.5q-38 -43 -87.5 -93t-104 -102.5t-111.5 -107t-110 -107t-99.5 -102t-79.5 -92.5q-8 -9 -25.5 -32t-35.5 -51.5t-31.5 -58.5t-13.5 -54q0 -21 22 -36.5t58 -15.5q58 0 118.5 30
t120.5 76.5t116 104t105 113.5q33 39 65 74t61 64l4 4t12 13t27.5 30.5t51.5 56.5t83 91t122.5 135t170 187.5t225.5 248.5zM2296 1632q0 -17 -9 -32t-23.5 -26t-33.5 -17.5t-38 -6.5q-14 0 -27.5 3t-25 11t-18.5 21.5t-7 34.5q0 18 10 31t25 21t34 12t37 4q30 0 50.5 -13.5
t25.5 -42.5zM2534 1630q0 -17 -9 -32t-23.5 -26t-33.5 -17.5t-38 -6.5q-14 0 -27.5 3t-25 11t-18.5 21.5t-7 34.5q0 18 10 31t25 21t34 12t37 4q30 0 50.5 -13.5t25.5 -42.5z" />
    <glyph glyph-name="Yacute" unicode="&#xdd;" horiz-adv-x="2206" 
d="M1336 -38q20 21 40.5 46t43.5 52q-51 -32 -105.5 -51t-108.5 -19q-46 0 -78.5 12.5t-53.5 32t-30.5 44t-9.5 47.5q0 49 21 97t54.5 93.5t75.5 89t83 84.5q44 45 103 104.5t121.5 122t122.5 123.5t108 109t77 78t30 31q23 27 46.5 56.5t42.5 58.5t31 57t12 52
q0 28 -14.5 52.5t-43.5 43t-73 29.5t-103 11q-33 0 -75.5 -5t-86.5 -15t-86.5 -26.5t-75.5 -39t-53.5 -52t-20.5 -66.5q0 -25 15.5 -42.5t40.5 -28.5t57 -16t65 -5q38 0 76.5 6.5t74 19t66 31t53.5 41.5l20 -12q-29 -35 -69 -59t-86.5 -39t-96 -21.5t-96.5 -6.5
q-57 0 -95 16.5t-60.5 39.5t-31.5 48.5t-9 43.5q5 66 53 119q20 22 51.5 43.5t77.5 38t108 27t144 10.5q88 0 151.5 -12t106.5 -31t68.5 -43.5t39.5 -48.5t18 -46t4 -37q0 -50 -25 -98t-61 -92.5t-75.5 -84t-68.5 -73.5q-38 -43 -87.5 -93t-104 -102.5t-111.5 -107
t-110 -107t-99.5 -102t-79.5 -92.5q-8 -9 -25.5 -32t-35.5 -51.5t-31.5 -58.5t-13.5 -54q0 -21 22 -36.5t58 -15.5q57 0 117.5 29t119.5 75t115 102.5t104 111.5q161 184 362 413.5t442 496.5q41 45 74 77.5t50 32.5q10 0 26.5 -2.5t32 -7t26.5 -11.5t11 -17q0 -4 -10 -17
t-26 -31t-35 -39t-37 -40.5t-33.5 -36t-22.5 -24.5q-42 -49 -108.5 -122.5t-148.5 -164t-175 -192.5t-189 -207.5t-190.5 -209t-178.5 -196.5q113 54 236 96t254 80l10 -24q-48 -13 -113 -35t-139.5 -51t-154 -64t-155.5 -72q-72 -77 -130 -141t-96 -109t-76.5 -91
t-74.5 -88.5t-67.5 -79.5t-55.5 -63q-78 -85 -165 -132.5t-175 -47.5q-20 0 -39 4.5t-34 15t-24 27t-9 39.5q0 28 21 67.5t62.5 86t103 98t143.5 104.5q89 59 185.5 118t202.5 116zM868 -566q38 38 88.5 92.5t107 117.5t115 131.5t113.5 136.5q-92 -50 -190.5 -111
t-188 -123.5t-162 -122t-111.5 -107.5q-17 -20 -29.5 -44.5t-12.5 -47.5q0 -20 13.5 -33t48.5 -13q28 0 57.5 12.5t56.5 31t51 40t43 40.5zM2342 1478l22 60l262 142l40 -92z" />
    <glyph glyph-name="Thorn" unicode="&#xde;" horiz-adv-x="1434" 
d="M876 410q-80 -57 -151.5 -121t-140.5 -133q-9 -10 -45 -50.5t-89.5 -100.5t-119 -134t-134 -150t-134 -149.5t-118.5 -132t-88.5 -96.5t-43.5 -45q-12 -12 -22 -19t-24 -7q-5 0 -10.5 0.5t-13.5 3.5q-18 6 -31 16.5t-13 25.5q0 11 5.5 20t20.5 26l994 1128
q12 12 42.5 44.5t74 79.5t97.5 105.5t113 122t120 128.5t119 126t110 114.5t92.5 93.5t67.5 63t34 23q8 0 22 -3t27.5 -8.5t23 -14t9.5 -18.5q0 -11 -14.5 -28t-35.5 -40l-752 -808q65 47 140 71.5t152 24.5q64 0 87 -18.5t23 -51.5q0 -38 -22 -78.5t-54.5 -80.5t-70 -78.5
t-70 -73.5t-54 -65.5t-21.5 -53.5q0 -14 5 -22.5t12.5 -13t17 -5.5t19.5 -1q57 0 113 11t110.5 29t107.5 41.5t103 48.5l10 -24q-33 -22 -91 -50t-130 -53t-153.5 -42t-161.5 -17q-47 0 -75.5 23t-28.5 73q0 24 16 56t41.5 66.5t57 70.5t62 69t57.5 61.5t44 48.5
q6 9 17 23.5t11 26.5q0 8 -6.5 13t-21.5 5q-31 0 -59.5 -6.5t-57 -18.5t-58.5 -30t-63 -41z" />
    <glyph glyph-name="germandbls" unicode="&#xdf;" horiz-adv-x="1666" 
d="M1740 778q0 -84 -31 -174.5t-85.5 -176.5t-127.5 -164t-156 -136t-173 -92.5t-177 -34.5q-29 0 -54 7.5t-43.5 24.5t-29.5 45t-11 69q0 37 9 78t33 87.5t65 99.5t105 115l14 -22q-24 -26 -54.5 -62t-57.5 -79t-45.5 -90.5t-18.5 -94.5q0 -54 21.5 -75t56.5 -21
q55 0 110 21t106.5 55.5t99 79t89 93t75 96.5t58.5 89q13 22 29 54.5t30.5 71t24.5 79.5t10 79q0 62 -18 104q-37 -9 -68 -12q-11 -2 -18 -2h-10q-23 0 -40.5 7.5t-29.5 18t-18 23t-6 23.5q0 27 23.5 48.5t74.5 21.5q44 0 80.5 -15t65.5 -39q63 25 129.5 67.5t121.5 96.5
t90 116.5t35 127.5q0 13 -7 21t-18 12.5t-24 5.5t-25 1q-43 0 -86 -14t-86 -38.5t-84.5 -57.5t-81.5 -70q-31 -27 -58 -58q-7 -7 -25 -26t-41 -44t-48 -52t-45.5 -50t-34.5 -39t-14 -17q-30 -34 -70 -80t-87 -99.5t-98 -111.5t-102.5 -116.5t-102.5 -114t-96 -102.5
q-70 -73 -143 -134t-152 -105.5t-164 -69.5t-179 -25q-109 0 -168.5 42t-59.5 110q0 25 8 51.5t24.5 48t41 35t56.5 13.5q36 0 56 -19t20 -55q0 -33 -15.5 -53.5t-33.5 -34.5t-33.5 -25.5t-15.5 -26.5q0 -21 24 -31.5t66 -10.5q80 0 149 24t132 67t123.5 103t123.5 132
q97 110 210.5 235t229.5 261q63 74 129.5 142t132.5 142q88 100 175.5 167.5t168.5 108.5t153.5 58.5t130.5 17.5q20 0 42.5 -2t41.5 -10t31.5 -24t12.5 -44q0 -83 -38 -157.5t-98.5 -137.5t-136 -112.5t-149.5 -80.5q26 -35 40 -76t14 -82z" />
    <glyph glyph-name="agrave" unicode="&#xe0;" horiz-adv-x="974" 
d="M726 282q-48 -54 -81 -102.5t-33 -83.5q0 -27 19.5 -38.5t48.5 -11.5q27 0 63.5 6t86 21.5t115 41.5t151.5 67l10 -24q-90 -43 -162 -73t-130.5 -49.5t-106 -28.5t-87.5 -9q-25 0 -51 6.5t-47.5 20t-35.5 32.5t-14 45q0 12 3 25t11 27q-83 -81 -159 -118.5t-141 -37.5
q-50 0 -80.5 13.5t-48 35t-23.5 48.5t-6 55q0 47 22 98t59.5 101t87 95.5t104.5 80t111 55t108 20.5q33 0 62 -6t50 -18.5t33.5 -33t12.5 -48.5q0 -32 -18 -74l-34 -16q6 24 6 46q0 16 -3.5 31.5t-11.5 27.5t-21.5 19.5t-33.5 7.5q-43 0 -88 -20.5t-87.5 -54t-80 -75
t-65.5 -84.5t-44.5 -83t-16.5 -69q0 -41 19 -53.5t61 -12.5q50 0 104 31t114 85q27 26 52.5 50t55.5 60q18 22 43.5 52t54 62.5t58 63.5t56 56t47.5 40.5t33 15.5q8 0 22 -3t27.5 -8.5t23 -14t9.5 -18.5q0 -11 -14.5 -28t-35.5 -40zM648 868l40 92l262 -142l22 -60z" />
    <glyph glyph-name="aacute" unicode="&#xe1;" horiz-adv-x="974" 
d="M726 282q-48 -54 -81 -102.5t-33 -83.5q0 -27 19.5 -38.5t48.5 -11.5q27 0 63.5 6t86 21.5t115 41.5t151.5 67l10 -24q-90 -43 -162 -73t-130.5 -49.5t-106 -28.5t-87.5 -9q-25 0 -51 6.5t-47.5 20t-35.5 32.5t-14 45q0 12 3 25t11 27q-83 -81 -159 -118.5t-141 -37.5
q-50 0 -80.5 13.5t-48 35t-23.5 48.5t-6 55q0 47 22 98t59.5 101t87 95.5t104.5 80t111 55t108 20.5q33 0 62 -6t50 -18.5t33.5 -33t12.5 -48.5q0 -32 -18 -74l-34 -16q6 24 6 46q0 16 -3.5 31.5t-11.5 27.5t-21.5 19.5t-33.5 7.5q-43 0 -88 -20.5t-87.5 -54t-80 -75
t-65.5 -84.5t-44.5 -83t-16.5 -69q0 -41 19 -53.5t61 -12.5q50 0 104 30.5t114 85.5q27 26 52.5 50t55.5 60q18 22 43.5 52t54 62.5t58 63.5t56 56t47.5 40.5t33 15.5q8 0 22 -3t27.5 -8.5t23 -14t9.5 -18.5q0 -11 -14.5 -28t-35.5 -40zM718 734l22 60l262 142l40 -92z" />
    <glyph glyph-name="acircumflex" unicode="&#xe2;" horiz-adv-x="974" 
d="M726 282q-48 -54 -81 -102.5t-33 -83.5q0 -27 19.5 -38.5t48.5 -11.5q27 0 63.5 6t86 21.5t115 41.5t151.5 67l10 -24q-90 -43 -162 -73t-130.5 -49.5t-106 -28.5t-87.5 -9q-25 0 -51 6.5t-47.5 20t-35.5 32.5t-14 45q0 12 3 25t11 27q-83 -81 -159 -118.5t-141 -37.5
q-50 0 -80.5 13.5t-48 35t-23.5 48.5t-6 55q0 47 22 98t59.5 101t87 95.5t104.5 80t111 55t108 20.5q33 0 62 -6t50 -18.5t33.5 -33t12.5 -48.5q0 -32 -18 -74l-34 -16q6 24 6 46q0 16 -3.5 31.5t-11.5 27.5t-21.5 19.5t-33.5 7.5q-43 0 -88 -20.5t-87.5 -54t-80 -75
t-65.5 -84.5t-44.5 -83t-16.5 -69q0 -41 19 -53.5t61 -12.5q50 0 104 31t114 85q27 26 52.5 50t55.5 60q18 22 43.5 52t54 62.5t58 63.5t56 56t47.5 40.5t33 15.5q8 0 22 -3t27.5 -8.5t23 -14t9.5 -18.5q0 -11 -14.5 -28t-35.5 -40zM882 838l-266 -90l22 60l258 140
l116 -168l22 -60z" />
    <glyph glyph-name="atilde" unicode="&#xe3;" horiz-adv-x="974" 
d="M726 282q-48 -54 -81 -102.5t-33 -83.5q0 -27 19.5 -38.5t48.5 -11.5q27 0 63.5 6t86 21.5t115 41.5t151.5 67l10 -24q-90 -43 -162 -73t-130.5 -49.5t-106 -28.5t-87.5 -9q-25 0 -51 6.5t-47.5 20t-35.5 32.5t-14 45q0 12 3 25t11 27q-83 -81 -159 -118.5t-141 -37.5
q-50 0 -80.5 13.5t-48 35t-23.5 48.5t-6 55q0 47 22 98t59.5 101t87 95.5t104.5 80t111 55t108 20.5q33 0 62 -6t50 -18.5t33.5 -33t12.5 -48.5q0 -32 -18 -74l-34 -16q6 24 6 46q0 16 -3.5 31.5t-11.5 27.5t-21.5 19.5t-33.5 7.5q-43 0 -88 -20.5t-87.5 -54t-80 -75
t-65.5 -84.5t-44.5 -83t-16.5 -69q0 -41 19 -53.5t61 -12.5q50 0 104 31t114 85q27 26 52.5 50t55.5 60q18 22 43.5 52t54 62.5t58 63.5t56 56t47.5 40.5t33 15.5q8 0 22 -3t27.5 -8.5t23 -14t9.5 -18.5q0 -11 -14.5 -28t-35.5 -40zM1048 828l-34 -56h-362l64 90z" />
    <glyph glyph-name="adieresis" unicode="&#xe4;" horiz-adv-x="974" 
d="M726 282q-48 -54 -81 -102.5t-33 -83.5q0 -27 19.5 -38.5t48.5 -11.5q27 0 63.5 6t86 21.5t115 41.5t151.5 67l10 -24q-90 -43 -162 -73t-130.5 -49.5t-106 -28.5t-87.5 -9q-25 0 -51 6.5t-47.5 20t-35.5 32.5t-14 45q0 12 3 25t11 27q-83 -81 -159 -118.5t-141 -37.5
q-50 0 -80.5 13.5t-48 35t-23.5 48.5t-6 55q0 47 22 98t59.5 101t87 95.5t104.5 80t111 55t108 20.5q33 0 62 -6t50 -18.5t33.5 -33t12.5 -48.5q0 -32 -18 -74l-34 -16q6 24 6 46q0 16 -3.5 31.5t-11.5 27.5t-21.5 19.5t-33.5 7.5q-43 0 -88 -20.5t-87.5 -54t-80 -75
t-65.5 -84.5t-44.5 -83t-16.5 -69q0 -41 19 -53.5t61 -12.5q50 0 104 31t114 85q27 26 52.5 50t55.5 60q18 22 43.5 52t54 62.5t58 63.5t56 56t47.5 40.5t33 15.5q8 0 22 -3t27.5 -8.5t23 -14t9.5 -18.5q0 -11 -14.5 -28t-35.5 -40zM850 790q0 -17 -9 -32t-23.5 -26
t-33.5 -17.5t-38 -6.5q-14 0 -27.5 3t-25 11t-18.5 21.5t-7 34.5q0 18 10 31t25 21t34 12t37 4q30 0 50.5 -13.5t25.5 -42.5zM1088 788q0 -17 -9 -32t-23.5 -26t-33.5 -17.5t-38 -6.5q-14 0 -27.5 3t-25 11t-18.5 21.5t-7 34.5q0 18 10 31t25 21t34 12t37 4q30 0 50.5 -13.5
t25.5 -42.5z" />
    <glyph glyph-name="aring" unicode="&#xe5;" horiz-adv-x="974" 
d="M726 282q-48 -54 -81 -102.5t-33 -83.5q0 -27 19.5 -38.5t48.5 -11.5q27 0 63.5 6t86 21.5t115 41.5t151.5 67l10 -24q-90 -43 -162 -73t-130.5 -49.5t-106 -28.5t-87.5 -9q-25 0 -51 6.5t-47.5 20t-35.5 32.5t-14 45q0 12 3 25t11 27q-83 -81 -159 -118.5t-141 -37.5
q-50 0 -80.5 13.5t-48 35t-23.5 48.5t-6 55q0 47 22 98t59.5 101t87 95.5t104.5 80t111 55t108 20.5q33 0 62 -6t50 -18.5t33.5 -33t12.5 -48.5q0 -32 -18 -74l-34 -16q6 24 6 46q0 16 -3.5 31.5t-11.5 27.5t-21.5 19.5t-33.5 7.5q-43 0 -88 -20.5t-87.5 -54t-80 -75
t-65.5 -84.5t-44.5 -83t-16.5 -69q0 -41 19 -53.5t61 -12.5q50 0 104 31t114 85q27 26 52.5 50t55.5 60q18 22 43.5 52t54 62.5t58 63.5t56 56t47.5 40.5t33 15.5q8 0 22 -3t27.5 -8.5t23 -14t9.5 -18.5q0 -11 -14.5 -28t-35.5 -40zM1084 902q0 -25 -12.5 -46.5t-33.5 -37.5
t-47.5 -25t-54.5 -9q-20 0 -39.5 4.5t-36 16t-26.5 31t-10 50.5q0 25 14 43.5t36.5 30t49 17t52.5 5.5q42 0 72 -19.5t36 -60.5zM1032 894q-3 26 -21 38t-45 12q-16 0 -32 -3.5t-29.5 -11t-22 -18.5t-8.5 -27q0 -36 22 -49t46 -13q17 0 33.5 5.5t29 15.5t20 23t7.5 28z" />
    <glyph glyph-name="ae" unicode="&#xe6;" horiz-adv-x="1208" 
d="M228 508q43 18 87.5 34.5t86.5 29.5t80.5 20.5t69.5 7.5q56 0 98.5 -30t59.5 -84q66 48 143 78t155 30q49 0 82.5 -9.5t54.5 -25.5t30 -36.5t9 -42.5q0 -47 -39 -83t-108 -63t-162.5 -45.5t-202.5 -28.5q-18 -35 -29 -67.5t-11 -62.5q0 -38 25 -61t69 -23q39 0 91.5 13.5
t108 34t109.5 44.5t97 44l10 -24q-49 -24 -112 -52t-128 -52t-126 -40t-106 -16q-32 0 -61.5 6.5t-52.5 21t-38.5 37.5t-19.5 57q-41 -27 -85 -49t-90 -38t-92 -24.5t-89 -8.5q-44 0 -76 9.5t-53.5 24.5t-32 34t-10.5 38q0 44 19.5 72.5t55.5 46t85.5 25.5t110.5 12t130.5 6
t144.5 6q35 50 55.5 103.5t20.5 106.5q0 30 -28.5 49t-67.5 19q-24 0 -53.5 -5.5t-62 -15t-67.5 -22t-69 -25.5zM994 532q-31 0 -71 -20.5t-82 -54t-81.5 -77.5t-69.5 -90q71 9 137 23t116.5 36t80.5 53t30 74q0 24 -12.5 40t-47.5 16zM184 62q38 0 79.5 14t82 38t78.5 57.5
t70 72.5q-69 -5 -140 -10.5t-128 -18.5t-93.5 -36t-36.5 -61q0 -11 7.5 -21.5t20 -18t28 -12t32.5 -4.5z" />
    <glyph glyph-name="ccedilla" unicode="&#xe7;" horiz-adv-x="578" 
d="M102 156q0 -28 11 -47.5t31 -31.5t48 -17.5t62 -5.5q85 0 187.5 33.5t240.5 102.5l10 -24q-47 -31 -109 -61t-129.5 -54t-136.5 -38.5t-131 -14.5h-6.5h-9.5t-17 0.5t-29 1.5l-38 -46h20q23 0 46 -6t46 -20q24 -15 33 -38.5t9 -59.5q0 -24 -6.5 -48t-17.5 -44
q-26 -49 -62 -78.5t-76.5 -46t-84.5 -22t-87 -5.5q-29 0 -58 9t-51.5 26t-36.5 41t-14 54q0 45 25.5 73.5t60.5 28.5q38 0 38 -38q0 -23 -14 -33t-30.5 -14.5t-30 -8.5t-13.5 -16t6 -25.5t19.5 -24.5t33.5 -18.5t49 -7.5q38 0 76.5 15t69.5 42t50.5 64t19.5 81q0 17 -7 28.5
t-19 18t-27.5 9t-32.5 2.5t-34 -1.5t-32 -4.5l-4 18l94 112q-42 18 -68 52t-26 88q0 46 22 97.5t59.5 101.5t87 95.5t104.5 80t111 55t108 20.5q33 0 62 -6t50 -18.5t33.5 -33t12.5 -48.5q0 -23 -10.5 -45t-28.5 -39t-41 -27.5t-48 -10.5q-32 0 -46 15t-14 29q0 25 15.5 39
t34.5 23.5t34.5 17t15.5 18.5q0 12 -8 17t-20 5q-43 0 -88 -20.5t-87.5 -54t-80 -75t-65.5 -84.5t-44.5 -83t-16.5 -69z" />
    <glyph glyph-name="egrave" unicode="&#xe8;" horiz-adv-x="658" 
d="M652 160q-128 -59 -214 -92t-146.5 -49.5t-104.5 -20.5t-89 -4q-35 0 -66.5 9t-55.5 28t-38 49t-14 72q0 48 20.5 99.5t56.5 101t84.5 93.5t105.5 77.5t119.5 53t125.5 19.5q22 0 52 -4t57 -15.5t46 -31.5t19 -51q0 -28 -26 -58t-69.5 -60.5t-100.5 -60.5t-117.5 -57.5
t-121.5 -51.5t-113 -42q-2 -8 -2 -16v-16q0 -38 25 -63t69 -25q39 0 77 3t91 16.5t129 42t191 78.5zM422 534q-25 0 -57.5 -14.5t-67.5 -39t-69.5 -57.5t-65 -70.5t-54.5 -77t-36 -77.5q44 16 91.5 35t93 40t86.5 44.5t72 49.5t49 53.5t18 57.5q0 24 -12.5 40t-47.5 16z
M450 750l40 92l262 -142l22 -60z" />
    <glyph glyph-name="eacute" unicode="&#xe9;" horiz-adv-x="658" 
d="M652 160q-128 -59 -214 -92t-146.5 -49.5t-104.5 -20.5t-89 -4q-35 0 -66.5 9t-55.5 28t-38 49t-14 72q0 48 20.5 99.5t56.5 101t84.5 93.5t105.5 77.5t119.5 53t125.5 19.5q22 0 52 -4t57 -15.5t46 -31.5t19 -51q0 -28 -26 -58t-69.5 -60.5t-100.5 -60.5t-117.5 -57.5
t-121.5 -51.5t-113 -42q-2 -8 -2 -16v-16q0 -38 25 -63t69 -25q39 0 77 3t91 16.5t129 42t191 78.5zM422 534q-25 0 -57.5 -14.5t-67.5 -39t-69.5 -57.5t-65 -70.5t-54.5 -77t-36 -77.5q44 16 91.5 35t93 40t86.5 44.5t72 49.5t49 53.5t18 57.5q0 24 -12.5 40t-47.5 16z
M498 690l22 60l262 142l40 -92z" />
    <glyph glyph-name="ecircumflex" unicode="&#xea;" horiz-adv-x="658" 
d="M652 160q-128 -59 -214 -92t-146.5 -49.5t-104.5 -20.5t-89 -4q-35 0 -66.5 9t-55.5 28t-38 49t-14 72q0 48 20.5 99.5t56.5 101t84.5 93.5t105.5 77.5t119.5 53t125.5 19.5q22 0 52 -4t57 -15.5t46 -31.5t19 -51q0 -28 -26 -58t-69.5 -60.5t-100.5 -60.5t-117.5 -57.5
t-121.5 -51.5t-113 -42q-2 -8 -2 -16v-16q0 -38 25 -63t69 -25q39 0 77 3t91 16.5t129 42t191 78.5zM422 534q-25 0 -57.5 -14.5t-67.5 -39t-69.5 -57.5t-65 -70.5t-54.5 -77t-36 -77.5q44 16 91.5 35t93 40t86.5 44.5t72 49.5t49 53.5t18 57.5q0 24 -12.5 40t-47.5 16z
M670 804l-266 -90l22 60l258 140l116 -168l22 -60z" />
    <glyph glyph-name="edieresis" unicode="&#xeb;" horiz-adv-x="658" 
d="M652 160q-128 -59 -214 -92t-146.5 -49.5t-104.5 -20.5t-89 -4q-35 0 -66.5 9t-55.5 28t-38 49t-14 72q0 48 20.5 99.5t56.5 101t84.5 93.5t105.5 77.5t119.5 53t125.5 19.5q22 0 52 -4t57 -15.5t46 -31.5t19 -51q0 -28 -26 -58t-69.5 -60.5t-100.5 -60.5t-117.5 -57.5
t-121.5 -51.5t-113 -42q-2 -8 -2 -16v-16q0 -38 25 -63t69 -25q39 0 77 3t91 16.5t129 42t191 78.5zM422 534q-25 0 -57.5 -14.5t-67.5 -39t-69.5 -57.5t-65 -70.5t-54.5 -77t-36 -77.5q44 16 91.5 35t93 40t86.5 44.5t72 49.5t49 53.5t18 57.5q0 24 -12.5 40t-47.5 16z
M478 766q0 -17 -9 -32t-23.5 -26t-33.5 -17.5t-38 -6.5q-14 0 -27.5 3t-25 11t-18.5 21.5t-7 34.5q0 18 10 31t25 21t34 12t37 4q30 0 50.5 -13.5t25.5 -42.5zM716 764q0 -17 -9 -32t-23.5 -26t-33.5 -17.5t-38 -6.5q-14 0 -27.5 3t-25 11t-18.5 21.5t-7 34.5q0 18 10 31
t25 21t34 12t37 4q30 0 50.5 -13.5t25.5 -42.5z" />
    <glyph glyph-name="igrave" unicode="&#xec;" horiz-adv-x="608" 
d="M160 160q-15 -18 -23.5 -36.5t-8.5 -29.5q0 -26 16.5 -33t45.5 -7q27 0 66.5 4.5t92 18.5t119 39.5t148.5 67.5l10 -24q-77 -46 -152.5 -77t-145 -50t-130.5 -27t-108 -8q-54 0 -79 26.5t-25 71.5q0 24 16 54.5t52 77.5q38 48 80 94t84 96q28 33 58 65.5t57 58.5t49 42
t34 16q8 0 22 -3t27.5 -8.5t23 -14t9.5 -18.5q0 -11 -14.5 -28t-35.5 -40l-166 -188q-7 -7 -20.5 -21.5t-30 -34t-35.5 -41.5t-36 -43zM390 856l40 92l262 -142l22 -60z" />
    <glyph glyph-name="iacute" unicode="&#xed;" horiz-adv-x="608" 
d="M160 160q-15 -18 -23.5 -36.5t-8.5 -29.5q0 -26 16.5 -33t45.5 -7q27 0 66.5 4.5t92 18.5t119 39.5t148.5 67.5l10 -24q-77 -46 -152.5 -77t-145 -50t-130.5 -27t-108 -8q-54 0 -79 26.5t-25 71.5q0 24 16 54.5t52 77.5q38 48 80 94t84 96q28 33 58 65.5t57 58.5t49 42
t34 16q8 0 22 -3t27.5 -8.5t23 -14t9.5 -18.5q0 -11 -14.5 -28t-35.5 -40l-166 -188q-7 -7 -20.5 -21.5t-30 -34t-35.5 -41.5t-36 -43zM608 768l22 60l262 142l40 -92z" />
    <glyph glyph-name="icircumflex" unicode="&#xee;" horiz-adv-x="608" 
d="M160 160q-15 -18 -23.5 -36.5t-8.5 -29.5q0 -26 16.5 -33t45.5 -7q27 0 66.5 4.5t92 18.5t119 39.5t148.5 67.5l10 -24q-77 -46 -152.5 -77t-145 -50t-130.5 -27t-108 -8q-54 0 -79 26.5t-25 71.5q0 24 16 54.5t52 77.5q38 48 80 94t84 96q28 33 58 65.5t57 58.5t49 42
t34 16q8 0 22 -3t27.5 -8.5t23 -14t9.5 -18.5q0 -11 -14.5 -28t-35.5 -40l-166 -188q-7 -7 -20.5 -21.5t-30 -34t-35.5 -41.5t-36 -43zM622 842l-266 -90l22 60l258 140l116 -168l22 -60z" />
    <glyph glyph-name="idieresis" unicode="&#xef;" horiz-adv-x="608" 
d="M160 160q-15 -18 -23.5 -36.5t-8.5 -29.5q0 -26 16.5 -33t45.5 -7q27 0 66.5 4.5t92 18.5t119 39.5t148.5 67.5l10 -24q-77 -46 -152.5 -77t-145 -50t-130.5 -27t-108 -8q-54 0 -79 26.5t-25 71.5q0 24 16 54.5t52 77.5q38 48 80 94t84 96q28 33 58 65.5t57 58.5t49 42
t34 16q8 0 22 -3t27.5 -8.5t23 -14t9.5 -18.5q0 -11 -14.5 -28t-35.5 -40l-166 -188q-7 -7 -20.5 -21.5t-30 -34t-35.5 -41.5t-36 -43zM642 856q0 -17 -9 -32t-23.5 -26t-33.5 -17.5t-38 -6.5q-14 0 -27.5 3t-25 11t-18.5 21.5t-7 34.5q0 18 10 31t25 21t34 12t37 4
q30 0 50.5 -13.5t25.5 -42.5zM880 854q0 -17 -9 -32t-23.5 -26t-33.5 -17.5t-38 -6.5q-14 0 -27.5 3t-25 11t-18.5 21.5t-7 34.5q0 18 10 31t25 21t34 12t37 4q30 0 50.5 -13.5t25.5 -42.5z" />
    <glyph glyph-name="eth" unicode="&#xf0;" horiz-adv-x="624" 
d="M676 474q0 -15 -1.5 -30t-6.5 -32q36 60 68.5 124.5t61.5 129.5l-126 -42l22 60l140 76q29 81 46.5 157t17.5 139q0 59 -19.5 87.5t-66.5 28.5q-35 0 -79 -21.5t-90 -57t-90 -81t-78.5 -93t-55.5 -93t-21 -80.5q0 -15 1 -26t6.5 -18t17 -10.5t33.5 -3.5q34 0 74 18t75 41
q40 26 81 59l8 -10q2 1 -12 -11t-38.5 -30t-57 -39.5t-69 -40t-74 -31t-71.5 -12.5q-47 0 -74.5 30.5t-27.5 83.5q0 47 25 106t81 124q33 46 84 90t109.5 78.5t118.5 55t110 20.5q31 0 57 -8.5t45 -27.5t29.5 -50t10.5 -76q0 -62 -12.5 -129.5t-35.5 -138.5l64 36l40 -92
l-144 -48q-21 -52 -56 -123.5t-81 -147.5t-101 -150t-117.5 -132.5t-131 -94.5t-139.5 -36q-45 0 -74.5 10.5t-47.5 29t-25 43t-7 53.5q0 54 23.5 107.5t63 101.5t91 90t108 72t114 47.5t108.5 17.5q28 0 47 -7.5t29.5 -21t15 -31.5t4.5 -40zM266 58q40 0 82.5 17.5t82.5 47
t76 68.5t63 81.5t42.5 86t15.5 83.5q0 23 -8 38t-28 26q-5 3 -14 5.5t-26 2.5q-32 0 -76 -22t-89 -59.5t-86 -87.5t-67 -105q-11 -21 -22.5 -54t-11.5 -62q0 -26 15 -46t51 -20z" />
    <glyph glyph-name="ntilde" unicode="&#xf1;" horiz-adv-x="948" 
d="M-28 4q-5 -2 -10 -2h-10q-12 0 -23.5 4.5t-20.5 11t-14.5 14t-5.5 14.5q0 12 7.5 24.5t18.5 23.5l266 304q30 35 62.5 71.5t62 66t53.5 48t38 18.5q8 0 22 -3t27.5 -8.5t23 -14t9.5 -18.5q0 -11 -14.5 -28t-35.5 -40l-16 -18q22 15 57.5 36.5t78.5 41.5t89.5 34t90.5 14
q64 0 87 -18.5t23 -51.5q-1 -38 -22.5 -78.5t-54 -80.5t-70 -78.5t-70 -73.5t-54 -65.5t-21.5 -53.5q0 -14 5 -22.5t12.5 -13t17 -5.5t19.5 -1q57 0 113 11t110.5 29t107.5 41.5t103 48.5l10 -24q-33 -22 -91 -50t-130 -53t-153.5 -42t-161.5 -17q-47 0 -75.5 23t-28.5 73
q0 24 16 56t41.5 66.5t57 70.5t62 69t57.5 61.5t44 48.5q6 9 17 23.5t11 26.5q0 8 -6.5 13t-21.5 5q-31 0 -59.5 -6.5t-57 -18.5t-58.5 -30t-63 -41q-80 -57 -151.5 -121t-140.5 -133q-30 -35 -66 -75t-68 -69q-15 -17 -26 -25t-20 -13zM988 810l-34 -56h-362l64 90z" />
    <glyph glyph-name="ograve" unicode="&#xf2;" horiz-adv-x="702" 
d="M694 204q-48 0 -85.5 16.5t-64.5 45.5q-54 -85 -107 -138t-102.5 -83t-95 -40.5t-85.5 -10.5q-48 0 -84 11.5t-60 31t-36 46t-12 57.5q0 63 25 122.5t67 111t96.5 94t112.5 73t116 47t107 16.5q26 0 52 -4t47 -16t34 -33t13 -55q0 -23 -4.5 -47.5t-10.5 -47.5t-13.5 -44
t-13.5 -37q8 -39 43.5 -59.5t76.5 -20.5q33 0 66.5 13t59.5 37l20 -16q-26 -32 -70 -51t-92 -19zM196 54q33 0 75 14t85.5 44t85.5 77t76 113q-34 56 -34 118q0 32 14.5 58.5t43.5 53.5q-6 3 -15.5 4.5t-26.5 1.5q-35 0 -84.5 -24t-101 -64.5t-97.5 -94.5t-73 -113
q-12 -24 -23 -55.5t-11 -60.5q0 -30 18 -51t68 -21zM440 828l40 92l262 -142l22 -60z" />
    <glyph glyph-name="oacute" unicode="&#xf3;" horiz-adv-x="702" 
d="M694 204q-48 0 -85.5 16.5t-64.5 45.5q-54 -85 -107 -138t-102.5 -83t-95 -40.5t-85.5 -10.5q-48 0 -84 11.5t-60 31t-36 46t-12 57.5q0 63 25 122.5t67 111t96.5 94t112.5 73t116 47t107 16.5q26 0 52 -4t47 -16t34 -33t13 -55q0 -23 -4.5 -47.5t-10.5 -47.5t-13.5 -44
t-13.5 -37q8 -39 43.5 -59.5t76.5 -20.5q33 0 66.5 13t59.5 37l20 -16q-26 -32 -70 -51t-92 -19zM196 54q33 0 75 14t85.5 44t85.5 77t76 113q-34 56 -34 118q0 32 14.5 58.5t43.5 53.5q-6 3 -15.5 4.5t-26.5 1.5q-35 0 -84 -24t-100 -65t-97.5 -94.5t-74.5 -112.5
q-11 -24 -22.5 -55.5t-11.5 -60.5q0 -30 18 -51t68 -21zM494 716l22 60l262 142l40 -92z" />
    <glyph glyph-name="ocircumflex" unicode="&#xf4;" horiz-adv-x="702" 
d="M694 204q-48 0 -85.5 16.5t-64.5 45.5q-54 -85 -107 -138t-102.5 -83t-95 -40.5t-85.5 -10.5q-48 0 -84 11.5t-60 31t-36 46t-12 57.5q0 63 25 122.5t67 111t96.5 94t112.5 73t116 47t107 16.5q26 0 52 -4t47 -16t34 -33t13 -55q0 -23 -4.5 -47.5t-10.5 -47.5t-13.5 -44
t-13.5 -37q8 -39 43.5 -59.5t76.5 -20.5q33 0 66.5 13t59.5 37l20 -16q-26 -32 -70 -51t-92 -19zM196 54q33 0 75 14t85.5 44t85.5 77t76 113q-34 56 -34 118q0 32 14.5 58.5t43.5 53.5q-6 3 -15.5 4.5t-26.5 1.5q-35 0 -84.5 -24t-101 -64.5t-97.5 -94.5t-73 -113
q-12 -24 -23 -55.5t-11 -60.5q0 -30 18 -51t68 -21zM676 816l-266 -90l22 60l258 140l116 -168l22 -60z" />
    <glyph glyph-name="otilde" unicode="&#xf5;" horiz-adv-x="702" 
d="M850 782l-34 -56h-362l64 90zM694 204q-48 0 -85.5 16.5t-64.5 45.5q-54 -85 -107 -138t-102.5 -83t-95 -40.5t-85.5 -10.5q-48 0 -84 11.5t-60 31t-36 46t-12 57.5q0 63 25 122.5t67 111t96.5 94t112.5 73t116 47t107 16.5q26 0 52 -4t47 -16t34 -33t13 -55
q0 -23 -4.5 -47.5t-10.5 -47.5t-13.5 -44t-13.5 -37q8 -39 43.5 -59.5t76.5 -20.5q33 0 66.5 13t59.5 37l20 -16q-26 -32 -70 -51t-92 -19zM196 54q33 0 75 14t85.5 44t85.5 77t76 113q-34 56 -34 118q0 32 14.5 58.5t43.5 53.5q-6 3 -15.5 4.5t-26.5 1.5q-35 0 -84.5 -24
t-101 -64.5t-97.5 -94.5t-73 -113q-12 -24 -23 -55.5t-11 -60.5q0 -30 18 -51t68 -21z" />
    <glyph glyph-name="odieresis" unicode="&#xf6;" horiz-adv-x="702" 
d="M694 204q-48 0 -85.5 16.5t-64.5 45.5q-54 -85 -107 -138t-102.5 -83t-95 -40.5t-85.5 -10.5q-48 0 -84 11.5t-60 31t-36 46t-12 57.5q0 63 25 122.5t67 111t96.5 94t112.5 73t116 47t107 16.5q26 0 52 -4t47 -16t34 -33t13 -55q0 -23 -4.5 -47.5t-10.5 -47.5t-13.5 -44
t-13.5 -37q8 -39 43.5 -59.5t76.5 -20.5q33 0 66.5 13t59.5 37l20 -16q-26 -32 -70 -51t-92 -19zM196 54q33 0 75 14t85.5 44t85.5 77t76 113q-34 56 -34 118q0 32 14.5 58.5t43.5 53.5q-6 3 -15.5 4.5t-26.5 1.5q-35 0 -84.5 -24t-101 -64.5t-97.5 -94.5t-73 -113
q-12 -24 -23 -55.5t-11 -60.5q0 -30 18 -51t68 -21zM638 796q0 -17 -9 -32t-23.5 -26t-33.5 -17.5t-38 -6.5q-14 0 -27.5 3t-25 11t-18.5 21.5t-7 34.5q0 18 10 31t25 21t34 12t37 4q30 0 50.5 -13.5t25.5 -42.5zM876 794q0 -17 -9 -32t-23.5 -26t-33.5 -17.5t-38 -6.5
q-14 0 -27.5 3t-25 11t-18.5 21.5t-7 34.5q0 18 10 31t25 21t34 12t37 4q30 0 50.5 -13.5t25.5 -42.5z" />
    <glyph glyph-name="divide" unicode="&#xf7;" horiz-adv-x="584" 
d="M468 544q0 -17 -9 -32t-23.5 -26t-33.5 -17.5t-38 -6.5q-14 0 -27.5 3t-25 11t-18.5 21.5t-7 34.5q0 18 10 31t25 21t34 12t37 4q30 0 50.5 -13.5t25.5 -42.5zM466 94q0 -17 -9 -32t-23.5 -26t-33.5 -17.5t-38 -6.5q-14 0 -27.5 3t-25 11t-18.5 21.5t-7 34.5q0 18 10 31
t25 21t34 12t37 4q30 0 50.5 -13.5t25.5 -42.5zM708 322l-42 -48h-610l88 100z" />
    <glyph glyph-name="oslash" unicode="&#xf8;" horiz-adv-x="702" 
d="M692 208q-48 0 -85.5 16.5t-64.5 45.5q-55 -86 -108 -139.5t-103 -83.5t-96.5 -40.5t-86.5 -10.5q-48 0 -80 12t-51 32.5t-27 47.5t-8 58q0 68 22.5 128.5t62 112t92.5 92.5t113.5 69.5t125 44t128.5 15.5q31 0 51 -8t32 -22.5t16.5 -34t4.5 -41.5q0 -24 -4.5 -48.5
t-11 -48t-14 -44.5t-14.5 -37q4 -20 16.5 -34.5t29 -25t36.5 -15.5t40 -5q33 0 67 13t61 37l20 -16q-26 -33 -71 -51.5t-93 -18.5zM120 126q0 -28 14 -48l370 466h-8q-35 0 -82 -23.5t-95 -64t-91.5 -94t-71.5 -112.5q-11 -23 -23.5 -57.5t-12.5 -66.5zM190 56q34 0 76.5 14
t86.5 44t86 77.5t75 114.5q-28 47 -34 98l-304 -348h14z" />
    <glyph glyph-name="ugrave" unicode="&#xf9;" horiz-adv-x="860" 
d="M468 312q18 22 43 52.5t53.5 62.5t57.5 63t55.5 55.5t47.5 39.5t33 15q8 0 22 -3t27.5 -8.5t23 -14t9.5 -18.5q0 -11 -14.5 -28t-35.5 -40q-47 -54 -81.5 -92.5t-61 -67.5t-46.5 -52t-39 -46q-36 -42 -61 -77t-25 -55q0 -14 5 -22.5t12.5 -13t17 -5.5t19.5 -1
q57 0 113 11t110.5 29t107.5 41.5t103 48.5l10 -24q-33 -22 -91 -50t-130 -53t-153.5 -42t-161.5 -17q-47 0 -75.5 23t-28.5 73q0 14 6 32q-19 -14 -53.5 -35.5t-78 -42t-91.5 -35.5t-93 -15q-65 0 -90.5 20.5t-25.5 53.5q0 25 14 54.5t36 60t48 61.5t50 60q18 22 43.5 52
t54 62.5t58 63.5t56 56t47.5 40.5t33 15.5q8 0 22 -3t27.5 -8.5t23 -14t9.5 -18.5q0 -11 -14.5 -28t-35.5 -40l-166 -188q-7 -8 -22.5 -25t-34.5 -39.5t-39.5 -47t-37 -46.5t-27.5 -39t-11 -23q0 -8 6.5 -13t21.5 -5q31 0 65 9t69.5 24t71 35.5t68.5 43.5q11 8 33 33t45 51z
M546 784l40 92l262 -142l22 -60z" />
    <glyph glyph-name="uacute" unicode="&#xfa;" horiz-adv-x="860" 
d="M468 312q18 22 43 52.5t53.5 62.5t57.5 63t55.5 55.5t47.5 39.5t33 15q8 0 22 -3t27.5 -8.5t23 -14t9.5 -18.5q0 -11 -14.5 -28.5t-34.5 -40.5q-48 -54 -82.5 -92t-61 -67t-47 -51.5t-39.5 -45.5q-35 -43 -60 -78t-25 -55q0 -14 5 -22.5t12.5 -13t17 -5.5t19.5 -1
q57 0 113 11t110.5 29t107.5 41.5t103 48.5l10 -24q-33 -22 -91 -50t-130 -53t-153.5 -42t-161.5 -17q-47 0 -75.5 23t-28.5 73q0 14 6 32q-19 -14 -53.5 -35.5t-78 -42t-91.5 -35.5t-93 -15q-65 0 -90.5 20.5t-25.5 53.5q0 25 14 54.5t36 60t48 61.5t50 60q18 22 43.5 52
t54 62.5t58 63.5t56 56t47.5 40.5t33 15.5q8 0 22 -3t27.5 -8.5t23 -14t9.5 -18.5q0 -11 -15 -28t-35 -40l-166 -188q-7 -8 -22.5 -25t-34.5 -39.5t-39.5 -47t-37 -46.5t-27.5 -39t-11 -23q0 -8 6.5 -13t21.5 -5q31 0 65 9t69.5 24t71 35.5t68.5 43.5q11 8 33 33t45 51z
M614 746l22 60l262 142l40 -92z" />
    <glyph glyph-name="ucircumflex" unicode="&#xfb;" horiz-adv-x="860" 
d="M468 312q18 22 43 52.5t53.5 62.5t57.5 63t55.5 55.5t47.5 39.5t33 15q8 0 22 -3t27.5 -8.5t23 -14t9.5 -18.5q0 -11 -14.5 -28t-35.5 -40q-47 -54 -81.5 -92.5t-61 -67.5t-46.5 -52t-39 -46q-36 -42 -61 -77t-25 -55q0 -14 5 -22.5t12.5 -13t17 -5.5t19.5 -1
q57 0 113 11t110.5 29t107.5 41.5t103 48.5l10 -24q-33 -22 -91 -50t-130 -53t-153.5 -42t-161.5 -17q-47 0 -75.5 23t-28.5 73q0 14 6 32q-19 -14 -53.5 -35.5t-78 -42t-91.5 -35.5t-93 -15q-65 0 -90.5 20.5t-25.5 53.5q0 25 14 54.5t36 60t48 61.5t50 60q18 22 43.5 52
t54 62.5t58 63.5t56 56t47.5 40.5t33 15.5q8 0 22 -3t27.5 -8.5t23 -14t9.5 -18.5q0 -11 -14.5 -28t-35.5 -40l-166 -188q-7 -8 -22.5 -25t-34.5 -39.5t-39.5 -47t-37 -46.5t-27.5 -39t-11 -23q0 -8 6.5 -13t21.5 -5q31 0 65 9t69.5 24t71 35.5t68.5 43.5q11 8 33 33t45 51z
M776 820l-266 -90l22 60l258 140l116 -168l22 -60z" />
    <glyph glyph-name="udieresis" unicode="&#xfc;" horiz-adv-x="860" 
d="M468 312q18 22 43 52.5t53.5 62.5t57.5 63t55.5 55.5t47.5 39.5t33 15q8 0 22 -3t27.5 -8.5t23 -14t9.5 -18.5q0 -11 -14.5 -28t-35.5 -40q-47 -54 -81.5 -92.5t-61 -67.5t-46.5 -52t-39 -46q-36 -42 -61 -77t-25 -55q0 -14 5 -22.5t12.5 -13t17 -5.5t19.5 -1
q57 0 113 11t110.5 29t107.5 41.5t103 48.5l10 -24q-33 -22 -91 -50t-130 -53t-153.5 -42t-161.5 -17q-47 0 -75.5 23t-28.5 73q0 14 6 32q-19 -14 -53.5 -35.5t-78 -42t-91.5 -35.5t-93 -15q-65 0 -90.5 20.5t-25.5 53.5q0 25 14 54.5t36 60t48 61.5t50 60q18 22 43.5 52
t54 62.5t58 63.5t56 56t47.5 40.5t33 15.5q8 0 22 -3t27.5 -8.5t23 -14t9.5 -18.5q0 -11 -14.5 -28t-35.5 -40l-166 -188q-7 -8 -22.5 -25t-34.5 -39.5t-39.5 -47t-37 -46.5t-27.5 -39t-11 -23q0 -8 6.5 -13t21.5 -5q31 0 65 9t69.5 24t71 35.5t68.5 43.5q11 8 33 33t45 51z
M698 818q0 -17 -9 -32t-23.5 -26t-33.5 -17.5t-38 -6.5q-14 0 -27.5 3t-25 11t-18.5 21.5t-7 34.5q0 18 10 31t25 21t34 12t37 4q30 0 50.5 -13.5t25.5 -42.5zM936 816q0 -17 -9 -32t-23.5 -26t-33.5 -17.5t-38 -6.5q-14 0 -27.5 3t-25 11t-18.5 21.5t-7 34.5q0 18 10 31
t25 21t34 12t37 4q30 0 50.5 -13.5t25.5 -42.5z" />
    <glyph glyph-name="yacute" unicode="&#xfd;" horiz-adv-x="866" 
d="M542 154q-30 -35 -58.5 -66.5t-57.5 -61.5q122 56 252 104.5t270 87.5l10 -24q-53 -14 -120 -37t-142.5 -53t-158 -66t-167.5 -76q-183 -202 -312 -352t-210 -236q-29 -30 -61.5 -58t-69.5 -49t-77.5 -34t-83.5 -13q-20 0 -39 4.5t-34 15t-24 27t-9 39.5q0 28 21 67.5
t62.5 86t103 98t143.5 104.5q89 59 185.5 118t202.5 116q81 102 162 198q-26 -15 -57.5 -31.5t-66 -30.5t-70.5 -23t-70 -9q-65 0 -90.5 20.5t-25.5 53.5q0 25 14 54.5t36 60t48 61.5t50 60q19 22 44 52t53.5 62.5t58 63.5t56 56t47.5 40.5t33 15.5q8 0 22 -3t27.5 -8.5
t23 -14t9.5 -18.5q0 -11 -14.5 -28t-35.5 -40l-166 -188q-7 -8 -22.5 -25t-34.5 -39.5t-39.5 -47t-37 -46.5t-27.5 -39t-11 -23q0 -8 6.5 -13t21.5 -5q31 0 65 9t69.5 24t71 35.5t68.5 43.5q6 5 19 19t39 41q14 17 27 33t27 31q8 8 10 12q18 22 43.5 52t54 62.5t58 63.5
t56 56t47.5 40.5t33 15.5q8 0 22 -3t27.5 -8.5t23 -14t9.5 -18.5q0 -11 -14.5 -28t-35.5 -40l-166 -188q-7 -7 -21 -22.5t-31.5 -35.5t-36.5 -43t-35 -45zM-276 -620q38 38 83.5 88t96 108.5t104 123t108.5 132.5q-92 -50 -178 -103t-160.5 -105.5t-134.5 -104t-99 -99.5
q-17 -20 -29.5 -44.5t-12.5 -47.5q0 -20 13.5 -33t48.5 -13q16 0 36.5 8.5t41.5 22t42 31t40 36.5zM650 726l22 60l262 142l40 -92z" />
    <glyph glyph-name="thorn" unicode="&#xfe;" horiz-adv-x="1300" 
d="M876 882q76 90 168 186t195.5 181.5t216 152t230.5 98.5l16 -26q-71 -40 -132.5 -85.5t-116.5 -93.5t-103.5 -97.5t-91.5 -97.5q50 17 95 24.5t83 7.5q20 0 42.5 -2t41.5 -10t31.5 -24t12.5 -44q0 -75 -42.5 -148t-111.5 -139t-157 -124.5t-177.5 -103.5t-173.5 -76
t-146 -43q-53 -12 -118 -18l-60 -64q-70 -73 -143 -134t-152 -105.5t-164 -69.5t-179 -25q-109 0 -168.5 42t-59.5 110q0 25 8 51.5t24.5 48t41 35t56.5 13.5q36 0 56 -19t20 -55q0 -33 -15.5 -53.5t-33.5 -34.5t-33.5 -25.5t-15.5 -26.5q0 -21 24 -31.5t66 -10.5
q80 0 149 24t132 67t123.5 103t123.5 132q5 6 10.5 12t11.5 12q-48 4 -107.5 15t-111.5 32t-87.5 52.5t-35.5 78.5q0 38 20.5 67.5t53.5 51.5t75 37.5t85 25.5t83.5 15.5t70.5 8.5l6 -12q-32 -2 -78 -17t-89.5 -40.5t-74 -60t-30.5 -74.5q0 -38 26 -62.5t65 -39.5t85 -21.5
t86 -8.5zM1406 1054q-53 0 -107.5 -22t-107 -58t-102.5 -82.5t-95 -95.5q-35 -39 -73 -81.5t-77 -86.5t-78.5 -88t-77.5 -86q26 5 51 9.5t51 12.5q36 9 85 28.5t104.5 46.5t114 60.5t114 71.5t105 79t87 83.5t59 85t21.5 83.5q0 13 -7 21t-18 12.5t-24 5.5t-25 1z" />
    <glyph glyph-name="ydieresis" unicode="&#xff;" horiz-adv-x="866" 
d="M542 154q-30 -35 -58.5 -66.5t-57.5 -61.5q122 56 252 104.5t270 87.5l10 -24q-53 -14 -120 -37t-142.5 -53t-158 -66t-167.5 -76q-183 -202 -312 -352t-210 -236q-29 -30 -61.5 -58t-69.5 -49t-77.5 -34t-83.5 -13q-20 0 -39 4.5t-34 15t-24 27t-9 39.5q0 28 21 67.5
t62.5 86t103 98t143.5 104.5q89 59 185.5 118t202.5 116q81 102 162 198q-26 -15 -57.5 -31.5t-66 -30.5t-70.5 -23t-70 -9q-65 0 -90.5 20.5t-25.5 53.5q0 25 14 54.5t36 60t48 61.5t50 60q19 22 44 52t53.5 62.5t58 63.5t56 56t47.5 40.5t33 15.5q8 0 22 -3t27.5 -8.5
t23 -14t9.5 -18.5q0 -11 -14.5 -28t-35.5 -40l-166 -188q-7 -8 -22.5 -25t-34.5 -39.5t-39.5 -47t-37 -46.5t-27.5 -39t-11 -23q0 -8 6.5 -13t21.5 -5q31 0 65 9t69.5 24t71 35.5t68.5 43.5q6 5 19 19t39 41q14 17 27 33t27 31q8 8 10 12q18 22 43.5 52t54 62.5t58 63.5
t56 56t47.5 40.5t33 15.5q8 0 22 -3t27.5 -8.5t23 -14t9.5 -18.5q0 -11 -14.5 -28t-35.5 -40l-166 -188q-7 -7 -21 -22.5t-31.5 -35.5t-36.5 -43t-35 -45zM-276 -620q38 38 83.5 88t96 108.5t104 123t108.5 132.5q-92 -50 -178 -103t-160.5 -105.5t-134.5 -104t-99 -99.5
q-17 -20 -29.5 -44.5t-12.5 -47.5q0 -20 13.5 -33t48.5 -13q16 0 36.5 8.5t41.5 22t42 31t40 36.5zM728 788q0 -17 -9 -32t-23.5 -26t-33.5 -17.5t-38 -6.5q-14 0 -27.5 3t-25 11t-18.5 21.5t-7 34.5q0 18 10 31t25 21t34 12t37 4q30 0 50.5 -13.5t25.5 -42.5zM966 786
q0 -17 -9 -32t-23.5 -26t-33.5 -17.5t-38 -6.5q-14 0 -27.5 3t-25 11t-18.5 21.5t-7 34.5q0 18 10 31t25 21t34 12t37 4q30 0 50.5 -13.5t25.5 -42.5z" />
    <glyph glyph-name="Amacron" unicode="&#x100;" horiz-adv-x="1309" 
d="M365 1724h608v-145h-608v145zM1558 710h-228l64 90l244 -12l112 110q207 204 433.5 356t472.5 252q5 2 15 4t21 2q9 0 15.5 -2.5t6.5 -11.5q0 -16 -5.5 -27t-13.5 -18.5t-16.5 -12.5t-14.5 -8q-38 -18 -88.5 -58t-107.5 -93.5t-118 -117t-121.5 -131t-117.5 -134.5
t-105 -126l158 -6l-34 -56h-176q-50 -59 -104.5 -118.5t-107.5 -117.5t-101 -112.5t-85 -101.5t-58.5 -85t-21.5 -63q0 -41 14 -53.5t52 -12.5q42 0 96 13.5t110.5 33.5t111 44t98.5 45l10 -24q-152 -74 -275 -117t-209 -43q-24 0 -50 4t-48 17t-36 37t-14 64q0 35 36 93
t97.5 134t142.5 167.5t172 195.5h-158q-83 -86 -171 -172t-181 -166.5t-191.5 -151t-204.5 -124.5q-56 -28 -104 -46.5t-91.5 -30t-84 -16.5t-80.5 -5q-51 0 -86.5 14.5t-57.5 37t-32 49.5t-10 53q0 31 11 57.5t29 46t41.5 30t48.5 10.5q14 0 28 -3.5t24.5 -12t17 -23.5
t6.5 -37q0 -32 -15.5 -52t-33.5 -34t-33.5 -25.5t-15.5 -26.5q0 -11 9 -18.5t22 -12t28 -6t27 -1.5q48 0 88.5 5.5t79 16.5t78 27.5t86.5 38.5q28 13 67.5 37t84 55t90.5 66t89 70t79.5 67.5t61.5 58.5zM1700 786l146 -6q44 50 81.5 92t72.5 80.5t69.5 76t74 79t85.5 88
t103 104.5q-61 -35 -135 -86.5t-149 -110.5t-144.5 -120t-121.5 -113z" />
    <glyph glyph-name="amacron" unicode="&#x101;" horiz-adv-x="1149" 
d="M292 1386h608v-145h-608v145zM726 282q-48 -54 -81 -102.5t-33 -83.5q0 -27 19.5 -38.5t48.5 -11.5q27 0 63.5 6t86 21.5t115 41.5t151.5 67l10 -24q-90 -43 -162 -73t-130.5 -49.5t-106 -28.5t-87.5 -9q-25 0 -51 6.5t-47.5 20t-35.5 32.5t-14 45q0 12 3 25t11 27
q-83 -81 -159 -118.5t-141 -37.5q-50 0 -80.5 13.5t-48 35t-23.5 48.5t-6 55q0 47 22 98t59.5 101t87 95.5t104.5 80t111 55t108 20.5q33 0 62 -6t50 -18.5t33.5 -33t12.5 -48.5q0 -32 -18 -74l-34 -16q6 24 6 46q0 16 -3.5 31.5t-11.5 27.5t-21.5 19.5t-33.5 7.5
q-43 0 -88 -20.5t-87.5 -54t-80 -75t-65.5 -84.5t-44.5 -83t-16.5 -69q0 -41 19 -53.5t61 -12.5q50 0 104 31t114 85q27 26 52.5 50t55.5 60q18 22 43.5 52t54 62.5t58 63.5t56 56t47.5 40.5t33 15.5q8 0 22 -3t27.5 -8.5t23 -14t9.5 -18.5q0 -11 -14.5 -28t-35.5 -40z" />
    <glyph glyph-name="Abreve" unicode="&#x102;" horiz-adv-x="1309" 
d="M351 1448l-190 194l40 92l150 -212l150 212l40 -92zM1558 710h-228l64 90l244 -12l112 110q207 204 433.5 356t472.5 252q5 2 15 4t21 2q9 0 15.5 -2.5t6.5 -11.5q0 -16 -5.5 -27t-13.5 -18.5t-16.5 -12.5t-14.5 -8q-38 -18 -88.5 -58t-107.5 -93.5t-118 -117
t-121.5 -131t-117.5 -134.5t-105 -126l158 -6l-34 -56h-176q-50 -59 -104.5 -118.5t-107.5 -117.5t-101 -112.5t-85 -101.5t-58.5 -85t-21.5 -63q0 -41 14 -53.5t52 -12.5q42 0 96 13.5t110.5 33.5t111 44t98.5 45l10 -24q-152 -74 -275 -117t-209 -43q-24 0 -50 4t-48 17
t-36 37t-14 64q0 35 36 93t97.5 134t142.5 167.5t172 195.5h-158q-83 -86 -171 -172t-181 -166.5t-191.5 -151t-204.5 -124.5q-56 -28 -104 -46.5t-91.5 -30t-84 -16.5t-80.5 -5q-51 0 -86.5 14.5t-57.5 37t-32 49.5t-10 53q0 31 11 57.5t29 46t41.5 30t48.5 10.5
q14 0 28 -3.5t24.5 -12t17 -23.5t6.5 -37q0 -32 -15.5 -52t-33.5 -34t-33.5 -25.5t-15.5 -26.5q0 -11 9 -18.5t22 -12t28 -6t27 -1.5q48 0 88.5 5.5t79 16.5t78 27.5t86.5 38.5q28 13 67.5 37t84 55t90.5 66t89 70t79.5 67.5t61.5 58.5zM1700 786l146 -6q44 50 81.5 92
t72.5 80.5t69.5 76t74 79t85.5 88t103 104.5q-61 -35 -135 -86.5t-149 -110.5t-144.5 -120t-121.5 -113z" />
    <glyph glyph-name="abreve" unicode="&#x103;" horiz-adv-x="1149" 
d="M280 1110l-190 194l40 92l150 -212l150 212l40 -92zM726 282q-48 -54 -81 -102.5t-33 -83.5q0 -27 19.5 -38.5t48.5 -11.5q27 0 63.5 6t86 21.5t115 41.5t151.5 67l10 -24q-90 -43 -162 -73t-130.5 -49.5t-106 -28.5t-87.5 -9q-25 0 -51 6.5t-47.5 20t-35.5 32.5t-14 45
q0 12 3 25t11 27q-83 -81 -159 -118.5t-141 -37.5q-50 0 -80.5 13.5t-48 35t-23.5 48.5t-6 55q0 47 22 98t59.5 101t87 95.5t104.5 80t111 55t108 20.5q33 0 62 -6t50 -18.5t33.5 -33t12.5 -48.5q0 -32 -18 -74l-34 -16q6 24 6 46q0 16 -3.5 31.5t-11.5 27.5t-21.5 19.5
t-33.5 7.5q-43 0 -88 -20.5t-87.5 -54t-80 -75t-65.5 -84.5t-44.5 -83t-16.5 -69q0 -41 19 -53.5t61 -12.5q50 0 104 31t114 85q27 26 52.5 50t55.5 60q18 22 43.5 52t54 62.5t58 63.5t56 56t47.5 40.5t33 15.5q8 0 22 -3t27.5 -8.5t23 -14t9.5 -18.5q0 -11 -14.5 -28
t-35.5 -40z" />
    <glyph glyph-name="Aogonek" unicode="&#x104;" horiz-adv-x="1309" 
d="M1250 0q26 0 57 -7t49 -21l82 102h94l-138 -174q-10 10 -24 16t-29 9.5t-29.5 5t-25.5 1.5q-23 0 -45 -10.5t-39 -28.5t-27.5 -40.5t-10.5 -46.5q0 -19 7 -37t20 -32.5t31.5 -23.5t41.5 -9q36 0 59 14t23 38q0 12 -14 16t-30.5 8.5t-30 14.5t-13.5 33q0 38 38 38
q35 0 60.5 -28.5t25.5 -73.5q0 -30 -12.5 -50.5t-31.5 -33.5t-42 -18.5t-44 -5.5q-38 0 -70.5 12t-56.5 34.5t-37.5 54t-13.5 69.5q0 34 15 65.5t40 55.5t56.5 38.5t64.5 14.5zM1558 710h-228l64 90l244 -12l112 110q207 204 433.5 356t472.5 252q5 2 15 4t21 2
q9 0 15.5 -2.5t6.5 -11.5q0 -16 -5.5 -27t-13.5 -18.5t-16.5 -12.5t-14.5 -8q-38 -18 -88.5 -58t-107.5 -93.5t-118 -117t-121.5 -131t-117.5 -134.5t-105 -126l158 -6l-34 -56h-176q-50 -59 -104.5 -118.5t-107.5 -117.5t-101 -112.5t-85 -101.5t-58.5 -85t-21.5 -63
q0 -41 14 -53.5t52 -12.5q42 0 96 13.5t110.5 33.5t111 44t98.5 45l10 -24q-152 -74 -275 -117t-209 -43q-24 0 -50 4t-48 17t-36 37t-14 64q0 35 36 93t97.5 134t142.5 167.5t172 195.5h-158q-83 -86 -171 -172t-181 -166.5t-191.5 -151t-204.5 -124.5q-56 -28 -104 -46.5
t-91.5 -30t-84 -16.5t-80.5 -5q-51 0 -86.5 14.5t-57.5 37t-32 49.5t-10 53q0 31 11 57.5t29 46t41.5 30t48.5 10.5q14 0 28 -3.5t24.5 -12t17 -23.5t6.5 -37q0 -32 -15.5 -52t-33.5 -34t-33.5 -25.5t-15.5 -26.5q0 -11 9 -18.5t22 -12t28 -6t27 -1.5q48 0 88.5 5.5t79 16.5
t78 27.5t86.5 38.5q28 13 67.5 37t84 55t90.5 66t89 70t79.5 67.5t61.5 58.5zM1700 786l146 -6q44 50 81.5 92t72.5 80.5t69.5 76t74 79t85.5 88t103 104.5q-61 -35 -135 -86.5t-149 -110.5t-144.5 -120t-121.5 -113z" />
    <glyph glyph-name="aogonek" unicode="&#x105;" horiz-adv-x="1149" 
d="M983 0q26 0 57 -7t49 -21l82 102h94l-138 -174q-10 10 -24 16t-29 9.5t-29.5 5t-25.5 1.5q-23 0 -45 -10.5t-39 -28.5t-27.5 -40.5t-10.5 -46.5q0 -19 7 -37t20 -32.5t31.5 -23.5t41.5 -9q36 0 59 14t23 38q0 12 -14 16t-30.5 8.5t-30 14.5t-13.5 33q0 38 38 38
q35 0 60.5 -28.5t25.5 -73.5q0 -30 -12.5 -50.5t-31.5 -33.5t-42 -18.5t-44 -5.5q-38 0 -70.5 12t-56.5 34.5t-37.5 54t-13.5 69.5q0 34 15 65.5t40 55.5t56.5 38.5t64.5 14.5zM726 282q-48 -54 -81 -102.5t-33 -83.5q0 -27 19.5 -38.5t48.5 -11.5q27 0 63.5 6t86 21.5
t115 41.5t151.5 67l10 -24q-90 -43 -162 -73t-130.5 -49.5t-106 -28.5t-87.5 -9q-25 0 -51 6.5t-47.5 20t-35.5 32.5t-14 45q0 12 3 25t11 27q-83 -81 -159 -118.5t-141 -37.5q-50 0 -80.5 13.5t-48 35t-23.5 48.5t-6 55q0 47 22 98t59.5 101t87 95.5t104.5 80t111 55
t108 20.5q33 0 62 -6t50 -18.5t33.5 -33t12.5 -48.5q0 -32 -18 -74l-34 -16q6 24 6 46q0 16 -3.5 31.5t-11.5 27.5t-21.5 19.5t-33.5 7.5q-43 0 -88 -20.5t-87.5 -54t-80 -75t-65.5 -84.5t-44.5 -83t-16.5 -69q0 -41 19 -53.5t61 -12.5q50 0 104 31t114 85q27 26 52.5 50
t55.5 60q18 22 43.5 52t54 62.5t58 63.5t56 56t47.5 40.5t33 15.5q8 0 22 -3t27.5 -8.5t23 -14t9.5 -18.5q0 -11 -14.5 -28t-35.5 -40z" />
    <glyph glyph-name="Cacute" unicode="&#x106;" horiz-adv-x="1294" 
d="M2376 1452q29 -23 45.5 -58t16.5 -74q0 -47 -23 -88t-59 -71.5t-78.5 -48.5t-81.5 -18q-17 0 -37 3t-37 11t-28.5 22.5t-11.5 37.5q0 19 8.5 36.5t23 31t33.5 22t39 8.5q26 0 37 -12t11 -24q0 -20 -12.5 -31t-27.5 -18.5t-27.5 -13.5t-12.5 -15q0 -16 32 -16
q22 0 50 11.5t53 34.5t42 57.5t17 80.5q0 42 -28 68t-82 26t-129.5 -26.5t-162.5 -73.5t-181.5 -112.5t-186 -144.5t-176.5 -168.5t-154 -184t-116.5 -192t-65.5 -192.5q-12 -69 -12 -116q0 -38 14.5 -64t40 -42t60 -23t73.5 -7q60 0 124.5 14t122.5 33.5t103 40t66 34.5
q3 -8 5.5 -13.5t4.5 -10.5q-29 -20 -85 -49t-127.5 -55.5t-153 -45t-162.5 -18.5q-109 0 -168.5 56t-59.5 172q0 97 37 203.5t101.5 214t151.5 212t186.5 199t208 174.5t215 139t207 92.5t185.5 33.5q19 0 42.5 -1.5t46.5 -6t44.5 -13t38.5 -21.5zM342 1490l22 60l262 142
l40 -92z" />
    <glyph glyph-name="cacute" unicode="&#x107;" horiz-adv-x="983" 
d="M102 156q0 -28 11 -47.5t31 -31.5t48 -17.5t62 -5.5q85 0 187.5 33.5t240.5 102.5l10 -24q-50 -32 -115 -62.5t-135.5 -54t-142.5 -37.5t-135 -14q-46 0 -85 8.5t-67.5 27.5t-45 49t-16.5 73q0 46 22 97.5t59.5 101.5t87 95.5t104.5 80t111 55t108 20.5q33 0 62 -6
t50 -18.5t33.5 -33t12.5 -48.5q0 -23 -10.5 -45t-28.5 -39t-41 -27.5t-48 -10.5q-32 0 -46 15t-14 29q0 25 15.5 39t34.5 23.5t34.5 17t15.5 18.5q0 12 -8 17t-20 5q-43 0 -88 -20.5t-87.5 -54t-80 -75t-65.5 -84.5t-44.5 -83t-16.5 -69zM150 1152l22 60l262 142l40 -92z
" />
    <glyph glyph-name="Ccircumflex" unicode="&#x108;" horiz-adv-x="1294" 
d="M536 1624l-266 -90l22 60l258 140l116 -168l22 -60zM2376 1452q29 -23 45.5 -58t16.5 -74q0 -47 -23 -88t-59 -71.5t-78.5 -48.5t-81.5 -18q-17 0 -37 3t-37 11t-28.5 22.5t-11.5 37.5q0 19 8.5 36.5t23 31t33.5 22t39 8.5q26 0 37 -12t11 -24q0 -20 -12.5 -31
t-27.5 -18.5t-27.5 -13.5t-12.5 -15q0 -16 32 -16q22 0 50 11.5t53 34.5t42 57.5t17 80.5q0 42 -28 68t-82 26t-129.5 -26.5t-162.5 -73.5t-181.5 -112.5t-186 -144.5t-176.5 -168.5t-154 -184t-116.5 -192t-65.5 -192.5q-12 -69 -12 -116q0 -38 14.5 -64t40 -42t60 -23
t73.5 -7q60 0 124.5 14t122.5 33.5t103 40t66 34.5q3 -8 5.5 -13.5t4.5 -10.5q-29 -20 -85 -49t-127.5 -55.5t-153 -45t-162.5 -18.5q-109 0 -168.5 56t-59.5 172q0 97 37 203.5t101.5 214t151.5 212t186.5 199t208 174.5t215 139t207 92.5t185.5 33.5q19 0 42.5 -1.5
t46.5 -6t44.5 -13t38.5 -21.5z" />
    <glyph glyph-name="ccircumflex" unicode="&#x109;" horiz-adv-x="983" 
d="M327 1286l-266 -90l22 60l258 140l116 -168l22 -60zM102 156q0 -28 11 -47.5t31 -31.5t48 -17.5t62 -5.5q85 0 187.5 33.5t240.5 102.5l10 -24q-50 -32 -115 -62.5t-135.5 -54t-142.5 -37.5t-135 -14q-46 0 -85 8.5t-67.5 27.5t-45 49t-16.5 73q0 46 22 97.5t59.5 101.5
t87 95.5t104.5 80t111 55t108 20.5q33 0 62 -6t50 -18.5t33.5 -33t12.5 -48.5q0 -23 -10.5 -45t-28.5 -39t-41 -27.5t-48 -10.5q-32 0 -46 15t-14 29q0 25 15.5 39t34.5 23.5t34.5 17t15.5 18.5q0 12 -8 17t-20 5q-43 0 -88 -20.5t-87.5 -54t-80 -75t-65.5 -84.5t-44.5 -83
t-16.5 -69z" />
    <glyph glyph-name="Cdotaccent" unicode="&#x10a;" horiz-adv-x="1294" 
d="M832 1770q0 -17 -9 -32t-23.5 -26t-33.5 -17.5t-38 -6.5q-14 0 -27.5 3t-25 11t-18.5 21.5t-7 34.5q0 18 10 31t25 21t34 12t37 4q30 0 50.5 -13.5t25.5 -42.5zM2376 1452q29 -23 45.5 -58t16.5 -74q0 -47 -23 -88t-59 -71.5t-78.5 -48.5t-81.5 -18q-17 0 -37 3t-37 11
t-28.5 22.5t-11.5 37.5q0 19 8.5 36.5t23 31t33.5 22t39 8.5q26 0 37 -12t11 -24q0 -20 -12.5 -31t-27.5 -18.5t-27.5 -13.5t-12.5 -15q0 -16 32 -16q22 0 50 11.5t53 34.5t42 57.5t17 80.5q0 42 -28 68t-82 26t-129.5 -26.5t-162.5 -73.5t-181.5 -112.5t-186 -144.5
t-176.5 -168.5t-154 -184t-116.5 -192t-65.5 -192.5q-12 -69 -12 -116q0 -38 14.5 -64t40 -42t60 -23t73.5 -7q60 0 124.5 14t122.5 33.5t103 40t66 34.5q3 -8 5.5 -13.5t4.5 -10.5q-29 -20 -85 -49t-127.5 -55.5t-153 -45t-162.5 -18.5q-109 0 -168.5 56t-59.5 172
q0 97 37 203.5t101.5 214t151.5 212t186.5 199t208 174.5t215 139t207 92.5t185.5 33.5q19 0 42.5 -1.5t46.5 -6t44.5 -13t38.5 -21.5z" />
    <glyph glyph-name="cdotaccent" unicode="&#x10b;" horiz-adv-x="983" 
d="M636 1432q0 -17 -9 -32t-23.5 -26t-33.5 -17.5t-38 -6.5q-14 0 -27.5 3t-25 11t-18.5 21.5t-7 34.5q0 18 10 31t25 21t34 12t37 4q30 0 50.5 -13.5t25.5 -42.5zM102 156q0 -28 11 -47.5t31 -31.5t48 -17.5t62 -5.5q85 0 187.5 33.5t240.5 102.5l10 -24
q-50 -32 -115 -62.5t-135.5 -54t-142.5 -37.5t-135 -14q-46 0 -85 8.5t-67.5 27.5t-45 49t-16.5 73q0 46 22 97.5t59.5 101.5t87 95.5t104.5 80t111 55t108 20.5q33 0 62 -6t50 -18.5t33.5 -33t12.5 -48.5q0 -23 -10.5 -45t-28.5 -39t-41 -27.5t-48 -10.5q-32 0 -46 15
t-14 29q0 25 15.5 39t34.5 23.5t34.5 17t15.5 18.5q0 12 -8 17t-20 5q-43 0 -88 -20.5t-87.5 -54t-80 -75t-65.5 -84.5t-44.5 -83t-16.5 -69z" />
    <glyph glyph-name="Ccaron" unicode="&#x10c;" horiz-adv-x="1810" 
d="M2344 1682l266 90l-22 -60l-258 -140l-116 168l-22 60zM2318 1454q29 -23 45.5 -58t16.5 -74q0 -47 -23 -88t-59 -71.5t-78.5 -48.5t-81.5 -18q-17 0 -37 3t-37 11t-28.5 22.5t-11.5 37.5q0 19 8.5 36.5t23 31t33.5 22t39 8.5q26 0 37 -12t11 -24q0 -20 -12.5 -31
t-27.5 -18.5t-27.5 -13.5t-12.5 -15q0 -16 32 -16q22 0 50 11.5t53 34.5t42 57.5t17 80.5q0 42 -28 68t-82 26t-129.5 -26.5t-162.5 -73.5t-181.5 -112.5t-186 -144.5t-176.5 -168.5t-154 -184t-116.5 -192t-65.5 -192.5q-12 -69 -12 -116q0 -38 14.5 -64t40 -42t60 -23
t73.5 -7q60 0 124.5 14t122.5 33.5t103 40t66 34.5q3 -8 5.5 -13.5t4.5 -10.5q-29 -20 -85 -49t-127.5 -55.5t-153 -45t-162.5 -18.5q-109 0 -168.5 56t-59.5 172q0 97 37 203.5t101.5 214t151.5 212t186.5 199t208 174.5t215 139t207 92.5t185.5 33.5q19 0 42.5 -1.5
t46.5 -6t44.5 -13t38.5 -21.5z" />
    <glyph glyph-name="ccaron" unicode="&#x10d;" horiz-adv-x="578" 
d="M102 156q0 -28 11 -47.5t31 -31.5t48 -17.5t62 -5.5q85 0 187.5 33.5t240.5 102.5l10 -24q-50 -32 -115 -62.5t-135.5 -54t-142.5 -37.5t-135 -14q-46 0 -85 8.5t-67.5 27.5t-45 49t-16.5 73q0 46 22 97.5t59.5 101.5t87 95.5t104.5 80t111 55t108 20.5q33 0 62 -6
t50 -18.5t33.5 -33t12.5 -48.5q0 -23 -10.5 -45t-28.5 -39t-41 -27.5t-48 -10.5q-32 0 -46 15t-14 29q0 25 15.5 39t34.5 23.5t34.5 17t15.5 18.5q0 12 -8 17t-20 5q-43 0 -88 -20.5t-87.5 -54t-80 -75t-65.5 -84.5t-44.5 -83t-16.5 -69zM604 814l266 90l-22 -60l-258 -140
l-116 168l-22 60z" />
    <glyph glyph-name="Dcaron" unicode="&#x10e;" horiz-adv-x="1495" 
d="M348 1616l266 90l-22 -60l-258 -140l-116 168l-22 60zM2398 1514q77 0 128.5 -24.5t81.5 -69.5q56 32 107.5 52.5t90.5 23.5l16 -26q-47 -27 -92 -58.5t-90 -67.5q6 -26 10 -55t4 -61q0 -162 -42 -301t-113 -255.5t-165 -212t-198.5 -170t-212.5 -129.5t-207.5 -90.5
t-183.5 -53.5t-140 -18q-48 0 -100 15t-106 35q-60 -17 -115.5 -24.5t-106.5 -7.5q-18 0 -39 4.5t-39 14t-30 24.5t-12 35q0 15 11.5 27.5t28.5 21.5t37 14t37 5q57 0 109 -16t103 -36q75 34 147 82t133 97t107 91.5t69 65.5q29 21 77 69t105 110t119 133.5t121 140
t110 128.5t86 101q24 28 59.5 62t78.5 69.5t90.5 70.5t95.5 66q-24 48 -62.5 64t-85.5 16q-112 0 -217 -37.5t-196 -97.5t-166.5 -136t-129.5 -154t-83.5 -150.5t-29.5 -124.5q0 -21 15.5 -31.5t44.5 -10.5q34 0 76 12t93 48t113 103.5t138 178.5l16 -18
q-50 -95 -104 -171.5t-112.5 -130.5t-120 -83t-125.5 -29q-51 0 -81 18.5t-46 50t-20.5 71.5t-4.5 84q0 65 30.5 138t88 145t139 137.5t183.5 115.5t222 80t255 30zM2000 646q-100 -119 -196.5 -212t-189 -163t-180.5 -118.5t-170 -78.5q33 -12 67.5 -19t70.5 -7
q70 0 159.5 22.5t187 65.5t199 104t196.5 138t179 168t146.5 194t98.5 215.5t36 232.5q0 35 -1.5 65.5t-6.5 54.5q-75 -62 -142.5 -130t-123.5 -136zM968 106q-24 0 -39 -5.5t-15 -14.5q0 -12 19 -19t37 -7q30 0 61 5.5t63 14.5q-33 11 -64.5 17.5t-61.5 8.5z" />
    <glyph glyph-name="dcaron" unicode="&#x10f;" horiz-adv-x="1260" 
d="M1177 1253q23 66 42.5 159t25.5 144h178v-18q-13 -53 -56 -145t-92 -164h-98v24zM1052 682q-63 -71 -121.5 -137.5t-106.5 -121t-83 -93t-51 -54.5q-23 -26 -43.5 -50.5t-35.5 -47.5t-24 -43.5t-9 -36.5q0 -27 19.5 -38.5t48.5 -11.5q27 0 63.5 6t86 21.5t115 41.5
t151.5 67l10 -24q-90 -43 -162 -73t-130.5 -49.5t-106 -28.5t-87.5 -9q-25 0 -51 6.5t-47.5 20t-35.5 32.5t-14 45q0 12 3 25t11 27q-83 -81 -159 -118.5t-141 -37.5q-50 0 -80.5 13.5t-48 35t-23.5 48.5t-6 55q0 46 22 97.5t59.5 101.5t87 95.5t104.5 80t111 55t108 20.5
q33 0 62 -6t50 -18.5t33.5 -33t12.5 -48.5q0 -32 -18 -74l-34 -16q6 24 6 46q0 16 -3.5 31.5t-11.5 27.5t-21.5 19.5t-33.5 7.5q-43 0 -88 -20.5t-87.5 -54t-80 -75t-65.5 -84.5t-44.5 -83t-16.5 -69q0 -41 19 -53.5t61 -12.5q50 0 103 31.5t115 84.5q33 30 74 73t80 87
l746 834q38 42 71.5 70t50.5 28q8 0 22 -3t27.5 -8.5t23 -14t9.5 -18.5q0 -11 -14.5 -28t-35.5 -40z" />
    <glyph glyph-name="Dcroat" unicode="&#x110;" horiz-adv-x="1495" 
d="M1812 1470q-47 -27 -92 -58.5t-90 -67.5q6 -26 10 -55t4 -61q0 -162 -42 -301t-113 -255.5t-165 -212t-198.5 -170t-212.5 -129.5t-207.5 -90.5t-183.5 -53.5t-140 -18q-48 0 -100 15t-106 35q-60 -17 -115.5 -24.5t-106.5 -7.5q-18 0 -39 4.5t-39 14t-30 24.5t-12 35
q0 15 11.5 27.5t28.5 21.5t37 14t37 5q57 0 109 -16t103 -36q53 24 105 56t100 66.5t90.5 69.5t76.5 66h-232l88 100l228 -22q30 22 77.5 70t104.5 110t119.5 133t121 139.5t109.5 128.5t86 101q24 28 59.5 62t78.5 69.5t90.5 70.5t95.5 66q-24 48 -62.5 64t-85.5 16
q-113 0 -217.5 -37.5t-195.5 -97.5t-166.5 -136t-129.5 -154t-83.5 -150t-29.5 -125q0 -21 15.5 -31.5t44.5 -10.5q34 0 76 12t93 48t113 103.5t138 178.5l16 -18q-50 -95 -104 -171.5t-112.5 -130.5t-120 -83t-125.5 -29q-51 0 -81 18.5t-46 50t-20.5 71.5t-4.5 84
q0 65 30.5 138t88 145t139 137.5t183.5 115.5t222 80t255 30q77 0 128.5 -24.5t81.5 -69.5q56 32 107.5 52.5t90.5 23.5zM952 416l-42 -48h-188q-125 -112 -242 -183.5t-226 -110.5q33 -12 67.5 -19t70.5 -7q70 0 159.5 22.5t187 65.5t199 104t196.5 138t179 168t146.5 194
t98.5 215.5t36 232.5q0 35 -1.5 65.5t-6.5 54.5q-75 -62 -142.5 -130t-123.5 -136l-330 -396q-51 -62 -101.5 -115t-98.5 -101zM-42 106q-24 0 -39 -5.5t-15 -14.5q0 -12 19 -19t37 -7q30 0 61 5.5t63 14.5q-33 11 -64.5 17.5t-61.5 8.5z" />
    <glyph glyph-name="dcroat" unicode="&#x111;" horiz-adv-x="1264" 
d="M563 -20q-214 0 -332 147t-118 416q0 271 117.5 420t332.5 149q223 0 342 -162h13q-3 14 -8 69t-5 95v125h-436v135h436v182h180v-182h156v-135h-156v-1239h-147l-27 147h-8q-115 -167 -340 -167zM594 129q163 0 238 88.5t75 290.5v35q0 230 -76 325t-241 95
q-140 0 -214.5 -107t-74.5 -315q0 -197 72 -304.5t221 -107.5z" />
    <glyph glyph-name="Emacron" unicode="&#x112;" horiz-adv-x="1139" 
d="M303 1724h608v-145h-608v145zM1714 1300q-9 -2 -29 -11.5t-45.5 -24.5t-52 -35.5t-49 -45t-36.5 -52.5t-14 -57q0 -22 9.5 -40.5t30 -32t52.5 -21.5t78 -8q23 0 46 1.5t46 6.5v26q0 69 21.5 132t57.5 117t84.5 97.5t101.5 74t108.5 47t106.5 16.5q34 0 57 -10.5t37 -27
t20 -37t6 -39.5q0 -26 -8.5 -62t-43.5 -82.5t-106 -103.5t-196 -124q-36 -20 -69 -33.5t-63 -22.5q7 -33 21 -59t28 -44q17 -21 35 -37l-24 -24q-20 14 -49.5 24t-74.5 10l-28 -2q-52 -5 -117 -30.5t-132.5 -66.5t-131.5 -94t-114 -112.5t-80.5 -122t-30.5 -122.5
q0 -33 5.5 -66.5t25 -60.5t58 -44t103.5 -17q60 0 120 20t114 53.5t100 77t80 90.5t53 94.5t19 88.5q0 32 -11 54.5t-29 36t-41.5 19.5t-48.5 6q-54 0 -114.5 -24t-118 -66.5t-108.5 -102t-85 -129.5l-8 8q12 35 36 79t56 89t71.5 87.5t83.5 75.5t91.5 53t95.5 20
q35 0 65 -16t51.5 -42.5t33.5 -60.5t12 -69q0 -63 -25.5 -125.5t-68.5 -119.5t-100.5 -106.5t-121.5 -85.5t-130.5 -56.5t-127.5 -20.5q-49 0 -96 16.5t-84.5 50t-60.5 83.5t-23 118q0 82 27.5 158.5t75.5 143t113.5 121t141 93.5t157 60.5t163.5 21.5h8h11.5t20.5 -0.5
t34 -1.5q-6 11 -13 24t-13 28q-38 -6 -71 -7t-63 -1q-54 0 -101.5 7t-83.5 23t-56.5 41.5t-20.5 62.5t21 69.5t53.5 59.5t72 49.5t76.5 38.5t66.5 26.5t42.5 14.5l6 2h2zM1976 1250q-22 -25 -42 -53t-36 -59t-26.5 -64.5t-11.5 -69.5q85 27 161 70t133.5 92.5t91.5 100.5
t34 95q0 24 -16 36t-40 12q-23 0 -53.5 -12.5t-64 -34.5t-67.5 -51t-63 -62z" />
    <glyph glyph-name="emacron" unicode="&#x113;" horiz-adv-x="1155" 
d="M307 1386h608v-145h-608v145zM716 160q-128 -59 -214 -92t-146.5 -49.5t-104.5 -20.5t-89 -4q-35 0 -66.5 9t-55.5 28t-38 49t-14 72q0 48 20.5 99.5t56.5 101t84.5 93.5t105.5 77.5t119.5 53t125.5 19.5q22 0 52 -4t57 -15.5t46 -31.5t19 -51q0 -28 -26 -58t-69.5 -60.5
t-100.5 -60.5t-117.5 -57.5t-121.5 -51.5t-113 -42q-2 -8 -2 -16v-16q0 -38 25 -63t69 -25q39 0 77 3t91 16.5t129 42t191 78.5zM486 534q-26 0 -58 -14.5t-67 -39t-69.5 -57.5t-65 -70.5t-54.5 -77t-36 -77.5q44 16 91.5 35t93 40t86.5 44.5t72 49.5t49 53.5t18 57.5
q0 24 -12.5 40t-47.5 16z" />
    <glyph glyph-name="Ebreve" unicode="&#x114;" horiz-adv-x="1139" 
d="M316 1448l-190 194l40 92l150 -212l150 212l40 -92zM1714 1300q-9 -2 -29 -11.5t-45.5 -24.5t-52 -35.5t-49 -45t-36.5 -52.5t-14 -57q0 -22 9.5 -40.5t30 -32t52.5 -21.5t78 -8q23 0 46 1.5t46 6.5v26q0 69 21.5 132t57.5 117t84.5 97.5t101.5 74t108.5 47t106.5 16.5
q34 0 57 -10.5t37 -27t20 -37t6 -39.5q0 -26 -8.5 -62t-43.5 -82.5t-106 -103.5t-196 -124q-36 -20 -69 -33.5t-63 -22.5q7 -33 21 -59t28 -44q17 -21 35 -37l-24 -24q-20 14 -49.5 24t-74.5 10l-28 -2q-52 -5 -117 -30.5t-132.5 -66.5t-131.5 -94t-114 -112.5t-80.5 -122
t-30.5 -122.5q0 -33 5.5 -66.5t25 -60.5t58 -44t103.5 -17q60 0 120 20t114 53.5t100 77t80 90.5t53 94.5t19 88.5q0 32 -11 54.5t-29 36t-41.5 19.5t-48.5 6q-54 0 -114.5 -24t-118 -66.5t-108.5 -102t-85 -129.5l-8 8q12 35 36 79t56 89t71.5 87.5t83.5 75.5t91.5 53
t95.5 20q35 0 65 -16t51.5 -42.5t33.5 -60.5t12 -69q0 -63 -25.5 -125.5t-68.5 -119.5t-100.5 -106.5t-121.5 -85.5t-130.5 -56.5t-127.5 -20.5q-49 0 -96 16.5t-84.5 50t-60.5 83.5t-23 118q0 82 27.5 158.5t75.5 143t113.5 121t141 93.5t157 60.5t163.5 21.5h8h11.5
t20.5 -0.5t34 -1.5q-6 11 -13 24t-13 28q-38 -6 -71 -7t-63 -1q-54 0 -101.5 7t-83.5 23t-56.5 41.5t-20.5 62.5t21 69.5t53.5 59.5t72 49.5t76.5 38.5t66.5 26.5t42.5 14.5l6 2h2zM1976 1250q-22 -25 -42 -53t-36 -59t-26.5 -64.5t-11.5 -69.5q85 27 161 70t133.5 92.5
t91.5 100.5t34 95q0 24 -16 36t-40 12q-23 0 -53.5 -12.5t-64 -34.5t-67.5 -51t-63 -62z" />
    <glyph glyph-name="ebreve" unicode="&#x115;" horiz-adv-x="1155" 
d="M301 1110l-190 194l40 92l150 -212l150 212l40 -92zM716 160q-128 -59 -214 -92t-146.5 -49.5t-104.5 -20.5t-89 -4q-35 0 -66.5 9t-55.5 28t-38 49t-14 72q0 48 20.5 99.5t56.5 101t84.5 93.5t105.5 77.5t119.5 53t125.5 19.5q22 0 52 -4t57 -15.5t46 -31.5t19 -51
q0 -28 -26 -58t-69.5 -60.5t-100.5 -60.5t-117.5 -57.5t-121.5 -51.5t-113 -42q-2 -8 -2 -16v-16q0 -38 25 -63t69 -25q39 0 77 3t91 16.5t129 42t191 78.5zM486 534q-26 0 -58 -14.5t-67 -39t-69.5 -57.5t-65 -70.5t-54.5 -77t-36 -77.5q44 16 91.5 35t93 40t86.5 44.5
t72 49.5t49 53.5t18 57.5q0 24 -12.5 40t-47.5 16z" />
    <glyph glyph-name="Edotaccent" unicode="&#x116;" horiz-adv-x="1139" 
d="M660 1741q0 -17 -9 -32t-23.5 -26t-33.5 -17.5t-38 -6.5q-14 0 -27.5 3t-25 11t-18.5 21.5t-7 34.5q0 18 10 31t25 21t34 12t37 4q30 0 50.5 -13.5t25.5 -42.5zM1714 1300q-9 -2 -29 -11.5t-45.5 -24.5t-52 -35.5t-49 -45t-36.5 -52.5t-14 -57q0 -22 9.5 -40.5t30 -32
t52.5 -21.5t78 -8q23 0 46 1.5t46 6.5v26q0 69 21.5 132t57.5 117t84.5 97.5t101.5 74t108.5 47t106.5 16.5q34 0 57 -10.5t37 -27t20 -37t6 -39.5q0 -26 -8.5 -62t-43.5 -82.5t-106 -103.5t-196 -124q-36 -20 -69 -33.5t-63 -22.5q7 -33 21 -59t28 -44q17 -21 35 -37
l-24 -24q-20 14 -49.5 24t-74.5 10l-28 -2q-52 -5 -117 -30.5t-132.5 -66.5t-131.5 -94t-114 -112.5t-80.5 -122t-30.5 -122.5q0 -33 5.5 -66.5t25 -60.5t58 -44t103.5 -17q60 0 120 20t114 53.5t100 77t80 90.5t53 94.5t19 88.5q0 32 -11 54.5t-29 36t-41.5 19.5t-48.5 6
q-54 0 -114.5 -24t-118 -66.5t-108.5 -102t-85 -129.5l-8 8q12 35 36 79t56 89t71.5 87.5t83.5 75.5t91.5 53t95.5 20q35 0 65 -16t51.5 -42.5t33.5 -60.5t12 -69q0 -63 -25.5 -125.5t-68.5 -119.5t-100.5 -106.5t-121.5 -85.5t-130.5 -56.5t-127.5 -20.5q-49 0 -96 16.5
t-84.5 50t-60.5 83.5t-23 118q0 82 27.5 158.5t75.5 143t113.5 121t141 93.5t157 60.5t163.5 21.5h8h11.5t20.5 -0.5t34 -1.5q-6 11 -13 24t-13 28q-38 -6 -71 -7t-63 -1q-54 0 -101.5 7t-83.5 23t-56.5 41.5t-20.5 62.5t21 69.5t53.5 59.5t72 49.5t76.5 38.5t66.5 26.5
t42.5 14.5l6 2h2zM1976 1250q-22 -25 -42 -53t-36 -59t-26.5 -64.5t-11.5 -69.5q85 27 161 70t133.5 92.5t91.5 100.5t34 95q0 24 -16 36t-40 12q-23 0 -53.5 -12.5t-64 -34.5t-67.5 -51t-63 -62z" />
    <glyph glyph-name="edotaccent" unicode="&#x117;" horiz-adv-x="1155" 
d="M640 1432q0 -17 -9 -32t-23.5 -26t-33.5 -17.5t-38 -6.5q-14 0 -27.5 3t-25 11t-18.5 21.5t-7 34.5q0 18 10 31t25 21t34 12t37 4q30 0 50.5 -13.5t25.5 -42.5zM716 160q-128 -59 -214 -92t-146.5 -49.5t-104.5 -20.5t-89 -4q-35 0 -66.5 9t-55.5 28t-38 49t-14 72
q0 48 20.5 99.5t56.5 101t84.5 93.5t105.5 77.5t119.5 53t125.5 19.5q22 0 52 -4t57 -15.5t46 -31.5t19 -51q0 -28 -26 -58t-69.5 -60.5t-100.5 -60.5t-117.5 -57.5t-121.5 -51.5t-113 -42q-2 -8 -2 -16v-16q0 -38 25 -63t69 -25q39 0 77 3t91 16.5t129 42t191 78.5z
M486 534q-26 0 -58 -14.5t-67 -39t-69.5 -57.5t-65 -70.5t-54.5 -77t-36 -77.5q44 16 91.5 35t93 40t86.5 44.5t72 49.5t49 53.5t18 57.5q0 24 -12.5 40t-47.5 16z" />
    <glyph glyph-name="Eogonek" unicode="&#x118;" horiz-adv-x="1139" 
d="M947 0q26 0 57 -7t49 -21l82 102h94l-138 -174q-10 10 -24 16t-29 9.5t-29.5 5t-25.5 1.5q-23 0 -45 -10.5t-39 -28.5t-27.5 -40.5t-10.5 -46.5q0 -19 7 -37t20 -32.5t31.5 -23.5t41.5 -9q36 0 59 14t23 38q0 12 -14 16t-30.5 8.5t-30 14.5t-13.5 33q0 38 38 38
q35 0 60.5 -28.5t25.5 -73.5q0 -30 -12.5 -50.5t-31.5 -33.5t-42 -18.5t-44 -5.5q-38 0 -70.5 12t-56.5 34.5t-37.5 54t-13.5 69.5q0 34 15 65.5t40 55.5t56.5 38.5t64.5 14.5zM1714 1300q-9 -2 -29 -11.5t-45.5 -24.5t-52 -35.5t-49 -45t-36.5 -52.5t-14 -57
q0 -22 9.5 -40.5t30 -32t52.5 -21.5t78 -8q23 0 46 1.5t46 6.5v26q0 69 21.5 132t57.5 117t84.5 97.5t101.5 74t108.5 47t106.5 16.5q34 0 57 -10.5t37 -27t20 -37t6 -39.5q0 -26 -8.5 -62t-43.5 -82.5t-106 -103.5t-196 -124q-36 -20 -69 -33.5t-63 -22.5q7 -33 21 -59
t28 -44q17 -21 35 -37l-24 -24q-20 14 -49.5 24t-74.5 10l-28 -2q-52 -5 -117 -30.5t-132.5 -66.5t-131.5 -94t-114 -112.5t-80.5 -122t-30.5 -122.5q0 -33 5.5 -66.5t25 -60.5t58 -44t103.5 -17q60 0 120 20t114 53.5t100 77t80 90.5t53 94.5t19 88.5q0 32 -11 54.5t-29 36
t-41.5 19.5t-48.5 6q-54 0 -114.5 -24t-118 -66.5t-108.5 -102t-85 -129.5l-8 8q12 35 36 79t56 89t71.5 87.5t83.5 75.5t91.5 53t95.5 20q35 0 65 -16t51.5 -42.5t33.5 -60.5t12 -69q0 -63 -25.5 -125.5t-68.5 -119.5t-100.5 -106.5t-121.5 -85.5t-130.5 -56.5
t-127.5 -20.5q-49 0 -96 16.5t-84.5 50t-60.5 83.5t-23 118q0 82 27.5 158.5t75.5 143t113.5 121t141 93.5t157 60.5t163.5 21.5h8h11.5t20.5 -0.5t34 -1.5q-6 11 -13 24t-13 28q-38 -6 -71 -7t-63 -1q-54 0 -101.5 7t-83.5 23t-56.5 41.5t-20.5 62.5t21 69.5t53.5 59.5
t72 49.5t76.5 38.5t66.5 26.5t42.5 14.5l6 2h2zM1976 1250q-22 -25 -42 -53t-36 -59t-26.5 -64.5t-11.5 -69.5q85 27 161 70t133.5 92.5t91.5 100.5t34 95q0 24 -16 36t-40 12q-23 0 -53.5 -12.5t-64 -34.5t-67.5 -51t-63 -62z" />
    <glyph glyph-name="eogonek" unicode="&#x119;" horiz-adv-x="1155" 
d="M936 29q26 0 57 -7t49 -21l82 102h94l-138 -174q-10 10 -24 16t-29 9.5t-29.5 5t-25.5 1.5q-23 0 -45 -10.5t-39 -28.5t-27.5 -40.5t-10.5 -46.5q0 -19 7 -37t20 -32.5t31.5 -23.5t41.5 -9q36 0 59 14t23 38q0 12 -14 16t-30.5 8.5t-30 14.5t-13.5 33q0 38 38 38
q35 0 60.5 -28.5t25.5 -73.5q0 -30 -12.5 -50.5t-31.5 -33.5t-42 -18.5t-44 -5.5q-38 0 -70.5 12t-56.5 34.5t-37.5 54t-13.5 69.5q0 34 15 65.5t40 55.5t56.5 38.5t64.5 14.5zM716 160q-128 -59 -214 -92t-146.5 -49.5t-104.5 -20.5t-89 -4q-35 0 -66.5 9t-55.5 28t-38 49
t-14 72q0 48 20.5 99.5t56.5 101t84.5 93.5t105.5 77.5t119.5 53t125.5 19.5q22 0 52 -4t57 -15.5t46 -31.5t19 -51q0 -28 -26 -58t-69.5 -60.5t-100.5 -60.5t-117.5 -57.5t-121.5 -51.5t-113 -42q-2 -8 -2 -16v-16q0 -38 25 -63t69 -25q39 0 77 3t91 16.5t129 42t191 78.5z
M486 534q-26 0 -58 -14.5t-67 -39t-69.5 -57.5t-65 -70.5t-54.5 -77t-36 -77.5q44 16 91.5 35t93 40t86.5 44.5t72 49.5t49 53.5t18 57.5q0 24 -12.5 40t-47.5 16z" />
    <glyph glyph-name="Ecaron" unicode="&#x11a;" horiz-adv-x="1139" 
d="M272 1616l266 90l-22 -60l-258 -140l-116 168l-22 60zM1714 1300q-9 -2 -29 -11.5t-45.5 -24.5t-52 -35.5t-49 -45t-36.5 -52.5t-14 -57q0 -22 9.5 -40.5t30 -32t52.5 -21.5t78 -8q23 0 46 1.5t46 6.5v26q0 69 21.5 132t57.5 117t84.5 97.5t101.5 74t108.5 47t106.5 16.5
q34 0 57 -10.5t37 -27t20 -37t6 -39.5q0 -26 -8.5 -62t-43.5 -82.5t-106 -103.5t-196 -124q-36 -20 -69 -33.5t-63 -22.5q7 -33 21 -59t28 -44q17 -21 35 -37l-24 -24q-20 14 -49.5 24t-74.5 10l-28 -2q-52 -5 -117 -30.5t-132.5 -66.5t-131.5 -94t-114 -112.5t-80.5 -122
t-30.5 -122.5q0 -33 5.5 -66.5t25 -60.5t58 -44t103.5 -17q60 0 120 20t114 53.5t100 77t80 90.5t53 94.5t19 88.5q0 32 -11 54.5t-29 36t-41.5 19.5t-48.5 6q-54 0 -114.5 -24t-118 -66.5t-108.5 -102t-85 -129.5l-8 8q12 35 36 79t56 89t71.5 87.5t83.5 75.5t91.5 53
t95.5 20q35 0 65 -16t51.5 -42.5t33.5 -60.5t12 -69q0 -63 -25.5 -125.5t-68.5 -119.5t-100.5 -106.5t-121.5 -85.5t-130.5 -56.5t-127.5 -20.5q-49 0 -96 16.5t-84.5 50t-60.5 83.5t-23 118q0 82 27.5 158.5t75.5 143t113.5 121t141 93.5t157 60.5t163.5 21.5h8h11.5
t20.5 -0.5t34 -1.5q-6 11 -13 24t-13 28q-38 -6 -71 -7t-63 -1q-54 0 -101.5 7t-83.5 23t-56.5 41.5t-20.5 62.5t21 69.5t53.5 59.5t72 49.5t76.5 38.5t66.5 26.5t42.5 14.5l6 2h2zM1976 1250q-22 -25 -42 -53t-36 -59t-26.5 -64.5t-11.5 -69.5q85 27 161 70t133.5 92.5
t91.5 100.5t34 95q0 24 -16 36t-40 12q-23 0 -53.5 -12.5t-64 -34.5t-67.5 -51t-63 -62z" />
    <glyph glyph-name="ecaron" unicode="&#x11b;" horiz-adv-x="1155" 
d="M257 1278l266 90l-22 -60l-258 -140l-116 168l-22 60zM716 160q-128 -59 -214 -92t-146.5 -49.5t-104.5 -20.5t-89 -4q-35 0 -66.5 9t-55.5 28t-38 49t-14 72q0 48 20.5 99.5t56.5 101t84.5 93.5t105.5 77.5t119.5 53t125.5 19.5q22 0 52 -4t57 -15.5t46 -31.5t19 -51
q0 -28 -26 -58t-69.5 -60.5t-100.5 -60.5t-117.5 -57.5t-121.5 -51.5t-113 -42q-2 -8 -2 -16v-16q0 -38 25 -63t69 -25q39 0 77 3t91 16.5t129 42t191 78.5zM486 534q-26 0 -58 -14.5t-67 -39t-69.5 -57.5t-65 -70.5t-54.5 -77t-36 -77.5q44 16 91.5 35t93 40t86.5 44.5
t72 49.5t49 53.5t18 57.5q0 24 -12.5 40t-47.5 16z" />
    <glyph glyph-name="Gcircumflex" unicode="&#x11c;" horiz-adv-x="1491" 
d="M594 1624l-266 -90l22 60l258 140l116 -168l22 -60zM2272 932q-62 -56 -106 -105.5t-83.5 -99t-81 -102.5t-99.5 -115l-160 -176q-68 -74 -140.5 -135.5t-152 -105.5t-165.5 -68.5t-180 -24.5q-109 0 -168.5 42t-59.5 110q0 25 8 51.5t24.5 48t41 35t56.5 13.5
q36 0 56 -19t20 -55q0 -33 -15.5 -53.5t-33.5 -34.5t-33.5 -25.5t-15.5 -26.5q0 -21 24 -31.5t66 -10.5q80 0 149 24t132 67t123.5 103t123.5 132l168 188q48 56 110.5 113t125.5 111q-11 -2 -22 -2h-22q-33 0 -66.5 7.5t-62.5 25t-51.5 46.5t-33.5 73q-32 -5 -61.5 -5.5
t-56.5 -0.5q-54 0 -101.5 7t-83.5 23t-56.5 41.5t-20.5 62.5t21 69.5t53.5 59.5t72 49.5t76.5 38.5t66.5 26.5t42.5 14.5l6 2h2l6 -10q-9 -2 -29 -11.5t-45.5 -24.5t-52 -35.5t-49 -45t-36.5 -52.5t-14 -57q0 -22 9.5 -40.5t30 -32t52.5 -21.5t78 -8q40 0 82 6v22
q0 58 18.5 117t52 113.5t79.5 101.5t100.5 82.5t115 55.5t124.5 20q34 0 57 -10.5t37 -27t20 -37t6 -39.5q0 -26 -8.5 -62t-43.5 -82.5t-106 -103.5t-196 -124q-36 -20 -69 -33.5t-63 -22.5q4 -22 13.5 -42t29 -35t49.5 -24t74 -9q16 0 40 12.5t49.5 30.5t49 39t39.5 38
q5 3 8 8zM1874 1078q-6 -17 -10 -33t-4 -31q85 27 161 70t133.5 92.5t91.5 100.5t34 95q0 24 -16 36t-40 12q-25 0 -56.5 -15t-66 -40.5t-69.5 -59.5t-66 -72t-55 -78t-37 -77z" />
    <glyph glyph-name="gcircumflex" unicode="&#x11d;" horiz-adv-x="1260" 
d="M356 1286l-266 -90l22 60l258 140l116 -168l22 -60zM588 156q-30 -35 -58.5 -66.5t-57.5 -61.5q122 56 252 104.5t270 87.5l10 -24q-53 -14 -120 -37t-142.5 -53t-158 -66t-167.5 -76q-183 -202 -312 -352t-210 -236q-29 -30 -61.5 -58t-69.5 -49t-77.5 -34t-83.5 -13
q-20 0 -39 4.5t-34 15t-24 27t-9 39.5q0 28 21 67.5t62.5 86t103 98t143.5 104.5q89 59 185.5 118t202.5 116q36 45 71.5 88.5t70.5 85.5q-54 -38 -104.5 -55t-95.5 -17q-50 0 -80.5 13.5t-48 35t-23.5 48.5t-6 55q0 46 22 97.5t59.5 101.5t87 95.5t104.5 80t111 55
t108 20.5q33 0 62 -6t50 -18.5t33.5 -33t12.5 -48.5q0 -32 -18 -74l-34 -16q6 24 6 46q0 16 -3.5 31.5t-11.5 27.5t-21.5 19.5t-33.5 7.5q-43 0 -88 -20.5t-87.5 -54t-80 -75t-65.5 -84.5t-44.5 -83t-16.5 -69q0 -41 19 -53.5t61 -12.5q50 0 103 31.5t115 84.5
q14 12 29.5 26.5t32.5 31.5q11 14 22 27t22 25q18 22 43.5 52t54 62.5t58 63.5t56 56t47.5 40.5t33 15.5q8 0 22 -3t27.5 -8.5t23 -14t9.5 -18.5q0 -11 -14.5 -28t-35.5 -40l-166 -188q-7 -7 -21 -22.5t-31.5 -35.5t-36.5 -43t-35 -45zM-230 -618q38 38 83.5 88t96 108.5
t104 123t108.5 132.5q-92 -50 -178 -103t-160.5 -105.5t-134.5 -104t-99 -99.5q-17 -20 -29.5 -44.5t-12.5 -47.5q0 -20 13.5 -33t48.5 -13q16 0 36.5 8.5t41.5 22t42 31t40 36.5z" />
    <glyph glyph-name="Gbreve" unicode="&#x11e;" horiz-adv-x="1491" 
d="M552 1448l-190 194l40 92l150 -212l150 212l40 -92zM2272 932q-62 -56 -106 -105.5t-83.5 -99t-81 -102.5t-99.5 -115l-160 -176q-68 -74 -140.5 -135.5t-152 -105.5t-165.5 -68.5t-180 -24.5q-109 0 -168.5 42t-59.5 110q0 25 8 51.5t24.5 48t41 35t56.5 13.5
q36 0 56 -19t20 -55q0 -33 -15.5 -53.5t-33.5 -34.5t-33.5 -25.5t-15.5 -26.5q0 -21 24 -31.5t66 -10.5q80 0 149 24t132 67t123.5 103t123.5 132l168 188q48 56 110.5 113t125.5 111q-11 -2 -22 -2h-22q-33 0 -66.5 7.5t-62.5 25t-51.5 46.5t-33.5 73q-32 -5 -61.5 -5.5
t-56.5 -0.5q-54 0 -101.5 7t-83.5 23t-56.5 41.5t-20.5 62.5t21 69.5t53.5 59.5t72 49.5t76.5 38.5t66.5 26.5t42.5 14.5l6 2h2l6 -10q-9 -2 -29 -11.5t-45.5 -24.5t-52 -35.5t-49 -45t-36.5 -52.5t-14 -57q0 -22 9.5 -40.5t30 -32t52.5 -21.5t78 -8q40 0 82 6v22
q0 58 18.5 117t52 113.5t79.5 101.5t100.5 82.5t115 55.5t124.5 20q34 0 57 -10.5t37 -27t20 -37t6 -39.5q0 -26 -8.5 -62t-43.5 -82.5t-106 -103.5t-196 -124q-36 -20 -69 -33.5t-63 -22.5q4 -22 13.5 -42t29 -35t49.5 -24t74 -9q16 0 40 12.5t49.5 30.5t49 39t39.5 38
q5 3 8 8zM1874 1078q-6 -17 -10 -33t-4 -31q85 27 161 70t133.5 92.5t91.5 100.5t34 95q0 24 -16 36t-40 12q-25 0 -56.5 -15t-66 -40.5t-69.5 -59.5t-66 -72t-55 -78t-37 -77z" />
    <glyph glyph-name="gbreve" unicode="&#x11f;" horiz-adv-x="1260" 
d="M318 1110l-190 194l40 92l150 -212l150 212l40 -92zM588 156q-30 -35 -58.5 -66.5t-57.5 -61.5q122 56 252 104.5t270 87.5l10 -24q-53 -14 -120 -37t-142.5 -53t-158 -66t-167.5 -76q-183 -202 -312 -352t-210 -236q-29 -30 -61.5 -58t-69.5 -49t-77.5 -34t-83.5 -13
q-20 0 -39 4.5t-34 15t-24 27t-9 39.5q0 28 21 67.5t62.5 86t103 98t143.5 104.5q89 59 185.5 118t202.5 116q36 45 71.5 88.5t70.5 85.5q-54 -38 -104.5 -55t-95.5 -17q-50 0 -80.5 13.5t-48 35t-23.5 48.5t-6 55q0 46 22 97.5t59.5 101.5t87 95.5t104.5 80t111 55
t108 20.5q33 0 62 -6t50 -18.5t33.5 -33t12.5 -48.5q0 -32 -18 -74l-34 -16q6 24 6 46q0 16 -3.5 31.5t-11.5 27.5t-21.5 19.5t-33.5 7.5q-43 0 -88 -20.5t-87.5 -54t-80 -75t-65.5 -84.5t-44.5 -83t-16.5 -69q0 -41 19 -53.5t61 -12.5q50 0 103 31.5t115 84.5
q14 12 29.5 26.5t32.5 31.5q11 14 22 27t22 25q18 22 43.5 52t54 62.5t58 63.5t56 56t47.5 40.5t33 15.5q8 0 22 -3t27.5 -8.5t23 -14t9.5 -18.5q0 -11 -14.5 -28t-35.5 -40l-166 -188q-7 -7 -21 -22.5t-31.5 -35.5t-36.5 -43t-35 -45zM-230 -618q38 38 83.5 88t96 108.5
t104 123t108.5 132.5q-92 -50 -178 -103t-160.5 -105.5t-134.5 -104t-99 -99.5q-17 -20 -29.5 -44.5t-12.5 -47.5q0 -20 13.5 -33t48.5 -13q16 0 36.5 8.5t41.5 22t42 31t40 36.5z" />
    <glyph glyph-name="Gdotaccent" unicode="&#x120;" horiz-adv-x="1491" 
d="M902 1770q0 -17 -9 -32t-23.5 -26t-33.5 -17.5t-38 -6.5q-14 0 -27.5 3t-25 11t-18.5 21.5t-7 34.5q0 18 10 31t25 21t34 12t37 4q30 0 50.5 -13.5t25.5 -42.5zM2272 932q-62 -56 -106 -105.5t-83.5 -99t-81 -102.5t-99.5 -115l-160 -176q-68 -74 -140.5 -135.5
t-152 -105.5t-165.5 -68.5t-180 -24.5q-109 0 -168.5 42t-59.5 110q0 25 8 51.5t24.5 48t41 35t56.5 13.5q36 0 56 -19t20 -55q0 -33 -15.5 -53.5t-33.5 -34.5t-33.5 -25.5t-15.5 -26.5q0 -21 24 -31.5t66 -10.5q80 0 149 24t132 67t123.5 103t123.5 132l168 188
q48 56 110.5 113t125.5 111q-11 -2 -22 -2h-22q-33 0 -66.5 7.5t-62.5 25t-51.5 46.5t-33.5 73q-32 -5 -61.5 -5.5t-56.5 -0.5q-54 0 -101.5 7t-83.5 23t-56.5 41.5t-20.5 62.5t21 69.5t53.5 59.5t72 49.5t76.5 38.5t66.5 26.5t42.5 14.5l6 2h2l6 -10q-9 -2 -29 -11.5
t-45.5 -24.5t-52 -35.5t-49 -45t-36.5 -52.5t-14 -57q0 -22 9.5 -40.5t30 -32t52.5 -21.5t78 -8q40 0 82 6v22q0 58 18.5 117t52 113.5t79.5 101.5t100.5 82.5t115 55.5t124.5 20q34 0 57 -10.5t37 -27t20 -37t6 -39.5q0 -26 -8.5 -62t-43.5 -82.5t-106 -103.5t-196 -124
q-36 -20 -69 -33.5t-63 -22.5q4 -22 13.5 -42t29 -35t49.5 -24t74 -9q16 0 40 12.5t49.5 30.5t49 39t39.5 38q5 3 8 8zM1874 1078q-6 -17 -10 -33t-4 -31q85 27 161 70t133.5 92.5t91.5 100.5t34 95q0 24 -16 36t-40 12q-25 0 -56.5 -15t-66 -40.5t-69.5 -59.5t-66 -72
t-55 -78t-37 -77z" />
    <glyph glyph-name="gdotaccent" unicode="&#x121;" horiz-adv-x="1260" 
d="M648 1432q0 -17 -9 -32t-23.5 -26t-33.5 -17.5t-38 -6.5q-14 0 -27.5 3t-25 11t-18.5 21.5t-7 34.5q0 18 10 31t25 21t34 12t37 4q30 0 50.5 -13.5t25.5 -42.5zM588 156q-30 -35 -58.5 -66.5t-57.5 -61.5q122 56 252 104.5t270 87.5l10 -24q-53 -14 -120 -37t-142.5 -53
t-158 -66t-167.5 -76q-183 -202 -312 -352t-210 -236q-29 -30 -61.5 -58t-69.5 -49t-77.5 -34t-83.5 -13q-20 0 -39 4.5t-34 15t-24 27t-9 39.5q0 28 21 67.5t62.5 86t103 98t143.5 104.5q89 59 185.5 118t202.5 116q36 45 71.5 88.5t70.5 85.5q-54 -38 -104.5 -55
t-95.5 -17q-50 0 -80.5 13.5t-48 35t-23.5 48.5t-6 55q0 46 22 97.5t59.5 101.5t87 95.5t104.5 80t111 55t108 20.5q33 0 62 -6t50 -18.5t33.5 -33t12.5 -48.5q0 -32 -18 -74l-34 -16q6 24 6 46q0 16 -3.5 31.5t-11.5 27.5t-21.5 19.5t-33.5 7.5q-43 0 -88 -20.5t-87.5 -54
t-80 -75t-65.5 -84.5t-44.5 -83t-16.5 -69q0 -41 19 -53.5t61 -12.5q50 0 103 31.5t115 84.5q14 12 29.5 26.5t32.5 31.5q11 14 22 27t22 25q18 22 43.5 52t54 62.5t58 63.5t56 56t47.5 40.5t33 15.5q8 0 22 -3t27.5 -8.5t23 -14t9.5 -18.5q0 -11 -14.5 -28t-35.5 -40
l-166 -188q-7 -7 -21 -22.5t-31.5 -35.5t-36.5 -43t-35 -45zM-230 -618q38 38 83.5 88t96 108.5t104 123t108.5 132.5q-92 -50 -178 -103t-160.5 -105.5t-134.5 -104t-99 -99.5q-17 -20 -29.5 -44.5t-12.5 -47.5q0 -20 13.5 -33t48.5 -13q16 0 36.5 8.5t41.5 22t42 31
t40 36.5z" />
    <glyph glyph-name="uni0122" unicode="&#x122;" horiz-adv-x="1491" 
d="M660 -428q22 51 49 144t35 159h178v-18q-16 -63 -64.5 -156.5t-99.5 -153.5h-98v25zM2272 932q-62 -56 -106 -105.5t-83.5 -99t-81 -102.5t-99.5 -115l-160 -176q-68 -74 -140.5 -135.5t-152 -105.5t-165.5 -68.5t-180 -24.5q-109 0 -168.5 42t-59.5 110q0 25 8 51.5
t24.5 48t41 35t56.5 13.5q36 0 56 -19t20 -55q0 -33 -15.5 -53.5t-33.5 -34.5t-33.5 -25.5t-15.5 -26.5q0 -21 24 -31.5t66 -10.5q80 0 149 24t132 67t123.5 103t123.5 132l168 188q48 56 110.5 113t125.5 111q-11 -2 -22 -2h-22q-33 0 -66.5 7.5t-62.5 25t-51.5 46.5
t-33.5 73q-32 -5 -61.5 -5.5t-56.5 -0.5q-54 0 -101.5 7t-83.5 23t-56.5 41.5t-20.5 62.5t21 69.5t53.5 59.5t72 49.5t76.5 38.5t66.5 26.5t42.5 14.5l6 2h2l6 -10q-9 -2 -29 -11.5t-45.5 -24.5t-52 -35.5t-49 -45t-36.5 -52.5t-14 -57q0 -22 9.5 -40.5t30 -32t52.5 -21.5
t78 -8q40 0 82 6v22q0 58 18.5 117t52 113.5t79.5 101.5t100.5 82.5t115 55.5t124.5 20q34 0 57 -10.5t37 -27t20 -37t6 -39.5q0 -26 -8.5 -62t-43.5 -82.5t-106 -103.5t-196 -124q-36 -20 -69 -33.5t-63 -22.5q4 -22 13.5 -42t29 -35t49.5 -24t74 -9q16 0 40 12.5
t49.5 30.5t49 39t39.5 38q5 3 8 8zM1874 1078q-6 -17 -10 -33t-4 -31q85 27 161 70t133.5 92.5t91.5 100.5t34 95q0 24 -16 36t-40 12q-25 0 -56.5 -15t-66 -40.5t-69.5 -59.5t-66 -72t-55 -78t-37 -77z" />
    <glyph glyph-name="uni0123" unicode="&#x123;" horiz-adv-x="1260" 
d="M776 1544q-27 -59 -53 -152t-33 -151h-178v19q15 56 64.5 152t99.5 157h100v-25zM588 156q-30 -35 -58.5 -66.5t-57.5 -61.5q122 56 252 104.5t270 87.5l10 -24q-53 -14 -120 -37t-142.5 -53t-158 -66t-167.5 -76q-183 -202 -312 -352t-210 -236q-29 -30 -61.5 -58
t-69.5 -49t-77.5 -34t-83.5 -13q-20 0 -39 4.5t-34 15t-24 27t-9 39.5q0 28 21 67.5t62.5 86t103 98t143.5 104.5q89 59 185.5 118t202.5 116q36 45 71.5 88.5t70.5 85.5q-54 -38 -104.5 -55t-95.5 -17q-50 0 -80.5 13.5t-48 35t-23.5 48.5t-6 55q0 46 22 97.5t59.5 101.5
t87 95.5t104.5 80t111 55t108 20.5q33 0 62 -6t50 -18.5t33.5 -33t12.5 -48.5q0 -32 -18 -74l-34 -16q6 24 6 46q0 16 -3.5 31.5t-11.5 27.5t-21.5 19.5t-33.5 7.5q-43 0 -88 -20.5t-87.5 -54t-80 -75t-65.5 -84.5t-44.5 -83t-16.5 -69q0 -41 19 -53.5t61 -12.5
q50 0 103 31.5t115 84.5q14 12 29.5 26.5t32.5 31.5q11 14 22 27t22 25q18 22 43.5 52t54 62.5t58 63.5t56 56t47.5 40.5t33 15.5q8 0 22 -3t27.5 -8.5t23 -14t9.5 -18.5q0 -11 -14.5 -28t-35.5 -40l-166 -188q-7 -7 -21 -22.5t-31.5 -35.5t-36.5 -43t-35 -45zM-230 -618
q38 38 83.5 88t96 108.5t104 123t108.5 132.5q-92 -50 -178 -103t-160.5 -105.5t-134.5 -104t-99 -99.5q-17 -20 -29.5 -44.5t-12.5 -47.5q0 -20 13.5 -33t48.5 -13q16 0 36.5 8.5t41.5 22t42 31t40 36.5z" />
    <glyph glyph-name="Hcircumflex" unicode="&#x124;" horiz-adv-x="1518" 
d="M496 1624l-266 -90l22 60l258 140l116 -168l22 -60zM2052 918q71 81 149 155t156.5 137t153.5 113.5t140.5 86t117.5 55t85 19.5q14 0 27 -5t23 -17t16 -31.5t6 -48.5q0 -71 -38 -137t-102.5 -127t-150 -116.5t-181 -106t-194.5 -97t-190 -88.5q-14 -6 -26 -11.5
t-24 -10.5q-49 -56 -102.5 -114t-104.5 -113.5t-96.5 -107.5t-80 -97t-54.5 -81.5t-20 -60.5q0 -41 14 -53.5t52 -12.5q42 0 96 13.5t110.5 33.5t111 44t98.5 45l10 -24q-152 -74 -275 -117t-209 -43q-24 0 -50 4t-48 17t-36 37t-14 64q0 30 26 76t72 106t108 132t134 154
q-65 -23 -128 -44t-120 -42q-30 -11 -60 -21t-62 -21q-32 -35 -61.5 -68t-58.5 -62q-62 -65 -131 -125t-144 -105.5t-154.5 -72.5t-162.5 -27q-26 0 -51.5 5.5t-45.5 18t-32.5 33t-12.5 51.5q0 41 33.5 77t88 67.5t124.5 59t143.5 51t144.5 43t128 36.5l372 420
q89 101 185 203t215 193q-12 -8 -31.5 -18t-42.5 -18.5t-47.5 -14t-46.5 -5.5q-32 0 -53 15t-21 53v86q0 9 -5 13.5t-13 4.5q-11 0 -26.5 -9t-41.5 -35l-20 18q34 39 64 53.5t72 14.5q47 0 67.5 -15.5t20.5 -44.5q0 -19 4 -30.5t10.5 -17.5t14 -8t15.5 -2q33 0 74 10
t86 26.5t91.5 37.5t89.5 43t81 42.5t66 36.5l20 -18q-83 -53 -163.5 -120t-154.5 -137.5t-139 -139t-115 -125.5l-378 -430q86 27 181.5 58.5t180.5 61.5q20 21 39.5 43.5t40.5 46.5q23 26 42.5 48.5t39.5 43.5zM2144 838q-17 -20 -31.5 -38t-28.5 -36q-6 -6 -10 -14
q46 20 102.5 46t118 56t124.5 63t121 68t108 71t86 72q38 39 66.5 72.5t47 65t27.5 63.5t9 67q0 20 -8 33t-16 13q-42 0 -111 -33.5t-160.5 -106t-203.5 -187t-241 -275.5zM588 104q0 -14 7.5 -24t20 -16t28 -9t32.5 -3q66 0 125 26.5t114.5 70.5t109 101t107.5 118q3 5 6 8
l8 8q-72 -23 -141 -44t-131 -42t-114.5 -42t-90.5 -44.5t-59.5 -50t-21.5 -57.5z" />
    <glyph glyph-name="hcircumflex" unicode="&#x125;" horiz-adv-x="1266" 
d="M379 1679l-266 -90l22 60l258 140l116 -168l22 -60zM504 440q-80 -57 -151.5 -121t-140.5 -133q-17 -20 -37 -42t-39.5 -43t-38.5 -40.5t-35 -32.5q-12 -12 -22 -19t-24 -7q-5 0 -10.5 0.5t-13.5 3.5q-18 6 -31 16.5t-13 25.5q0 6 3 14t9 16l404 462q49 56 105.5 117
t116.5 125t121.5 129.5t122.5 130.5q20 22 53 54t73 67.5t84.5 70.5t88 63t83 45.5t70.5 17.5q41 0 57.5 -20t16.5 -52q-1 -32 -28.5 -78.5t-70.5 -99t-96 -106.5t-104.5 -101t-95.5 -84t-69 -55q-42 -31 -84.5 -58t-86 -54t-90 -57t-95.5 -67q-12 -17 -23 -32t-23 -30
q15 13 45.5 35t71 43.5t87.5 37.5t94 16q64 0 87 -18.5t23 -51.5q0 -38 -22 -78.5t-54.5 -80.5t-70 -78.5t-70 -73.5t-54 -65.5t-21.5 -53.5q0 -14 5 -22.5t12.5 -13t17 -5.5t19.5 -1q57 0 113 11t110.5 29t107.5 41.5t103 48.5l10 -24q-33 -22 -91 -50t-130 -53t-153.5 -42
t-161.5 -17q-47 0 -75.5 23t-28.5 73q0 24 16 56t41.5 66.5t57 70.5t62 69t57.5 61.5t44 48.5q6 9 17 23.5t11 26.5q0 8 -6.5 13t-21.5 5q-31 0 -59.5 -6.5t-57 -18.5t-58.5 -30t-63 -41zM1000 1046q-94 -94 -190.5 -196.5t-187.5 -211.5q43 28 87 55t89 57t92.5 65t99.5 81
q49 43 100 93t92.5 97.5t67.5 88.5t26 67q0 14 -14 14q-20 0 -50 -19.5t-65.5 -50t-73.5 -68t-73 -72.5z" />
    <glyph glyph-name="Hbar" unicode="&#x126;" horiz-adv-x="1518" 
d="M199 1219v243h184v-243h750v243h184v-243h199v-148h-199v-1071h-184v682h-750v-682h-184v1071h-199v148h199zM1133 844v227h-750v-227h750z" />
    <glyph glyph-name="hbar" unicode="&#x127;" horiz-adv-x="1266" 
d="M922 0v662q0 133 -59.5 198.5t-186.5 65.5q-169 0 -245.5 -92.5t-76.5 -305.5v-528h-180v1237h-156v135h156v184h180v-184h434v-135h-434v-178q0 -88 -10 -152h12q53 85 144.5 127.5t199.5 42.5q199 0 299.5 -96.5t100.5 -306.5v-674h-178z" />
    <glyph glyph-name="Itilde" unicode="&#x128;" horiz-adv-x="694" 
d="M208 1742l-34 -56h-362l64 90zM1898 1354q34 39 64 53.5t72 14.5q47 0 67.5 -15.5t20.5 -44.5q0 -19 4 -30.5t10.5 -17.5t14 -8t15.5 -2q33 0 74 10t86 26.5t91.5 37.5t89.5 43t81 42.5t66 36.5l20 -18q-83 -53 -163.5 -120.5t-154 -138t-138.5 -139t-116 -124.5
q-30 -34 -70 -80t-87 -99.5t-98 -111.5t-102.5 -116.5t-102.5 -114t-96 -102.5q-70 -73 -143 -134t-152 -105.5t-164 -69.5t-179 -25q-109 0 -168.5 42t-59.5 110q0 25 8 51.5t24.5 48t41 35t56.5 13.5q36 0 56 -19t20 -55q0 -33 -15.5 -53.5t-33.5 -34.5t-33.5 -25.5
t-15.5 -26.5q0 -21 24 -31.5t66 -10.5q80 0 149 24t132 67t123.5 103t123.5 132q97 110 209.5 236t230.5 260q89 101 185 203t215 193q-12 -8 -31.5 -18t-42.5 -18.5t-47.5 -14t-46.5 -5.5q-32 0 -53 15t-21 53v86q0 9 -5 13.5t-13 4.5q-11 0 -26.5 -9t-41.5 -35z" />
    </font>
</defs>
</svg>
