<?xml version="1.0" standalone="no"?>
<!DOCTYPE svg PUBLIC "-//W3C//DTD SVG 1.1//EN" "http://www.w3.org/Graphics/SVG/1.1/DTD/svg11.dtd" >
<svg xmlns="http://www.w3.org/2000/svg" xmlns:xlink="http://www.w3.org/1999/xlink" version="1.1">
<metadata>
Created by FontForge 20190801 at Mon Feb  8 12:16:38 2021
 By root
Roman Jokiranta
</metadata>
<defs>
<font id="Mellow-Regular" horiz-adv-x="300" >
  <font-face 
    font-family="Mellow"
    font-weight="400"
    font-stretch="normal"
    units-per-em="1000"
    panose-1="0 0 5 0 0 0 0 0 0 0"
    ascent="800"
    descent="-200"
    x-height="440"
    cap-height="885"
    bbox="-220 -553 1314 1528.29"
    underline-thickness="50"
    underline-position="-100"
    unicode-range="U+0001-206F"
  />
<missing-glyph horiz-adv-x="364" 
d="M33 0v666h265v-666h-265zM66 33h199v600h-199v-600z" />
    <glyph glyph-name=".notdef" horiz-adv-x="364" 
d="M33 0v666h265v-666h-265zM66 33h199v600h-199v-600z" />
    <glyph glyph-name="uni0000" 
 />
    <glyph glyph-name="uni0000" 
 />
    <glyph glyph-name="uni000D" unicode="&#xd;" 
 />
    <glyph glyph-name="uni0001" 
 />
    <glyph glyph-name="uni0002" 
 />
    <glyph glyph-name="uni0003" 
 />
    <glyph glyph-name="uni0004" 
 />
    <glyph glyph-name="uni0005" 
 />
    <glyph glyph-name="uni0006" 
 />
    <glyph glyph-name="uni0007" 
 />
    <glyph glyph-name="uni0008" 
 />
    <glyph glyph-name="uni0009" unicode="&#x9;" 
 />
    <glyph glyph-name="uni000A" unicode="&#xa;" 
 />
    <glyph glyph-name="uni000B" 
 />
    <glyph glyph-name="uni000C" 
 />
    <glyph glyph-name="uni000E" 
 />
    <glyph glyph-name="uni000F" 
 />
    <glyph glyph-name="uni0010" 
 />
    <glyph glyph-name="uni0011" 
 />
    <glyph glyph-name="uni0012" 
 />
    <glyph glyph-name="uni0013" 
 />
    <glyph glyph-name="uni0014" 
 />
    <glyph glyph-name="uni0015" 
 />
    <glyph glyph-name="uni0016" 
 />
    <glyph glyph-name="uni0017" 
 />
    <glyph glyph-name="uni0018" 
 />
    <glyph glyph-name="uni0019" 
 />
    <glyph glyph-name="uni001A" 
 />
    <glyph glyph-name="uni001B" 
 />
    <glyph glyph-name="uni001C" 
 />
    <glyph glyph-name="uni001D" 
 />
    <glyph glyph-name="uni001E" 
 />
    <glyph glyph-name="uni001F" 
 />
    <glyph glyph-name="space" unicode=" " 
 />
    <glyph glyph-name="exclam" unicode="!" horiz-adv-x="200" 
d="M94 151q-10 6 -15 11q-7 4 -9 15l-7 24q-2 12 -2 18l1 65l2 15q4 25 5 40q2 13 4 39q1 7 2 18t1 17q1 6 1 19q2 24 4 36q0 6 1 10l1 31q1 10 1 30l-1 59v48q3 23 3 25t3 14q0 5 3 6q2 1 4.5 3.5t3.5 1.5h2q2 0 5.5 1t5.5 -3q2 -1 4 -0.5t3 -0.5t6 -4t5 -9q4 -13 10 -39
q3 -16 4 -28t2 -20q2 -26 2 -40q1 -10 1 -32q0 -36 -4 -64q-1 -28 -5 -79q-2 -13 -4 -41l-5 -38l-3 -32q-3 -21 -7 -63q-2 -13 -7 -24q-3 -6 -3 -10q0 -6 5 -14l-6 -10q-11 0 -17 5zM64 2q-14 3 -14 18q0 18 11 25q6 3 8 5l6 -3q0 -4 -1 -7l10 2.5t11 0.5q5 -2 11.5 -3
t9.5 -1q1 -1 1 -4t-3 -5.5t-4 -4.5v-9q0 -8 -8 -12q-10 -4 -15 -4q-15 0 -23 2z" />
    <glyph glyph-name="quotedbl" unicode="&#x22;" horiz-adv-x="223" 
d="M52 647q0 52 -2 85q13 7 17 8.5t5.5 -0.5t4.5 -2l3 -145l-25 -5q-3 12 -3 59zM145 647q0 51 -2 84q13 8 17 9t5.5 -1t3.5 -2l4 -145l-25 -4q-3 12 -3 59zM65 680q2 -34 6 -51q-1 26 -6 51zM158 680q2 -33 6 -52q-5 48 -6 52z" />
    <glyph glyph-name="numbersign" unicode="#" horiz-adv-x="450" 
d="M177 106h-1q-2 -4 -2 -5q-5 0 -7.5 1t-5.5 5q-1 0 -1.5 -0.5t-1.5 0.5q-9 6 -13.5 11t-4.5 13q0 9 -2 27l-3 13q-1 3 -1 9q0 27 2 85v24q-46 -6 -70 -12q-3 1 -4 4l-2 8v3q0 4 4 7q12 7 16 8q3 1 35 9l23 5l1 80q-9 -2 -34.5 -6.5t-47.5 -5.5q-2 2 -3 2l-3 3l4 3l-1 1
l-2 -1q-2 4 -2 6q4 4 7 4q17 7 38 13l40 9q1 1 4 1v10q1 6 1 17l3 61q0 8 3 14q4 9 13 8q1 0 3 -2q4 4 11 2q0 -2 3 -7q1 1 1 2.5t1 2.5q6 -1 12 -7l5 -5h2q0 -3 1 -6.5t1 -6.5v-51l-1 -18l1 -3q43 6 81 5q1 4 1 9l2 62q0 16 6 24q3 7 10 8q4 0 6 -1l9 1q1 -2 1 -6l5 4l2 -2
q14 -8 15 -19l1 -33q1 -14 1 -43v-4h11q6 -1 19 -1q5 0 8.5 -3.5l4.5 -4.5q3 -4 3 -14q-2 -2 -8 -2h-38q-1 -9 -2 -26t-1 -36q0 -17 1 -19l7 -1l35 -1q15 0 21 -14v-7l-6 -1q-10 2 -15 2q-13 0 -39 -2h-3l-1 -19v-114l1 -10q0 -11 -1 -18.5t-2 -13.5q-2 -12 -2 -17l2 -8
q-2 -11 -9 -13l-8 1q-10 2 -15 7l-8 6l-2 1q-8 3 -10 14l-3 27q-1 4 -1 12q-1 4 -1 13v68q1 4 1 12q-1 13 -1 38v7q-6 1 -39 -3.5t-41 -6.5q-1 -2 -1 -6l-1 -50l-1 -63q0 -7 -1 -15t-2 -12q-1 -7 -2 -16.5t-1 -14.5q0 -10 -4 -18q-2 -3 -7 -5v7zM302 541q-6 -4 -5 -13z
M277 339l2 80q-27 0 -81 -8v-79zM80.5 294q4.5 2 8.5 3q-15 -1 -19 -7q6 2 10.5 4z" />
    <glyph glyph-name="dollar" unicode="$" horiz-adv-x="376" 
d="M185 -33q-12 0 -25 13q-2 2 -4 10q-1 11 -5 38l-1 4l-12 2q-32 6 -69 36q-11 9 -14 22q-2 6 -4 22l-1 13l1 12q0 11 4 19q10 22 16 32q2 3 6 6.5t6 6.5q7 0 11 1q0 -2 1 -3l5 3l5 -7l2 1q1 -1 1 -3q-2 -6 -4 -8q-15 -22 -15 -49q0 -34 11 -52q7 -10 15 -14l8 -2q6 0 10 3
q15 7 26 22q26 33 35 70q1 5 3 14t3 17q2 15 2 45q0 16 -1 28t-2 20q-4 36 -8 52q-3 19 -13 50q-8 20 -13 30l-10 24q-6 14 -16.5 31.5t-15.5 25.5q-10 18 -23 51q-12 29 -16 53q-5 28 -5 49q0 49 22 83q4 7 16 19q17 16 32 23q19 10 42 10h6l2 1q0 4 -2 14q-5 20 -3 52
q2 7 6 9l13 -1l6 -6q8 -52 13 -78q20 -7 42 -22q34 -25 49 -66q4 -10 2 -24q-2 -7 -6 -9q-2 0 -6 2q-1 2 -3 4t-4 6q-1 2 -1 6q0 38 -31 63q-28 23 -62 23q-11 0 -22.5 -6t-16.5 -18q-3 -5 -10 -25q0 -3 -1 -4q-4 -10 -6.5 -23t-3.5 -18q-4 -24 -4 -36q0 -42 16 -87
q7 -21 24 -53q4 -8 10.5 -18.5t10.5 -18.5q14 -24 18 -32l23 -52q4 -10 10 -32q8 -33 10 -47q5 -31 6 -59l1 -20q0 -56 -24 -109q-9 -22 -31 -44q-12 -12 -30 -22q2 -12 2 -18q0 -7 -2 -19q-1 -7 -1.5 -18t-3.5 -18h-2zM158 762q-19 -9 -25 -31q-2 -3 25 31zM137 759
q-10 -4 -20 -19t-12 -30q7 18 32 49zM211 157q8 29 6 54q-8 -52 -28 -97q14 14 22 43zM72 155l10 26q-9 -10 -12 -26h2zM67 168q-9 -15 -8 -25q6 16 8 25zM222.5 132.5q4.5 14.5 6.5 34.5q-7 -20 -23 -60q12 11 16.5 25.5zM247.5 118.5q3.5 10.5 8.5 31.5h-2l-19 -51
q9 9 12.5 19.5z" />
    <glyph glyph-name="percent" unicode="%" horiz-adv-x="592" 
d="M208 12q-2 -1 -6 -1q-8 0 -14 6q1 6 8 26l-2 1l-11 -22q-1 0 -7 2l3 14l-2 1q-4 -6 -7 -9l-6 6l2 1q0 6 -0.5 16.5t0.5 24.5q2 15 6 30q10 36 16 54q4 14 14 40l12 35q4 14 7 21l9 28l15 42l24 69q14 38 20 57l15 42q2 7 11 32q7 22 17 49t21 50q8 19 26 57q8 17 25 23
q3 1 9 1v-2q-2 -4 -11 -13.5t-10 -19.5q2 3 10.5 14t17.5 19l6 -3q0 -1 -2 -9l9 6q14 -16 15 -30q0 -26 -16 -72q-5 -15 -29 -74l-9 -28l-8 -23q-21 -64 -28 -82q-10 -30 -32 -90q-12 -38 -19 -56l-30 -88l-12 -38q-4 -16 -14 -46q-5 -15 -13 -30l-12 -21q-1 -1 -4 -6.5
t-10 -7.5zM186 82q16 54 25 81l33 100l15 42l25 73q29 77 50 146q7 23 25 67l14 37q3 6 7 18q-4 -5 -7 -13l-14 -35q-12 -28 -20 -50q-6 -16 -25 -73l-18 -47l-9 -27q-16 -42 -23 -63q-8 -22 -11 -33l-15 -44q-34 -94 -52 -160q-3 -7 -3 -17q0 -7 1 -10zM84 369q-2 3 -18 19
q-12 12 -15 29q-1 9 -1 27q5 44 18 73l8 21q9 24 26 48q21 26 50 34q4 1 11 1q14 0 34 -9t26 -24q-3 -6 -4 -7q3 -5 5.5 -11.5t5.5 -12.5q9 -17 9 -41q0 -12 -1 -19q-2 -24 -11 -56q-12 -43 -36 -67q-20 -20 -46 -29q-8 -2 -13 -2q-3 0 -13 2q-23 8 -35 24zM112 563l25 33
q-14 -5 -26.5 -25t-20.5 -44zM161 590q-25 -10 -33 -37zM190 578q-8 -3 -20 -16q-11 -12 -13 -22zM142 404q14 10 18 14q15 15 24 29q25 35 31 74q2 23 -12 55q-26 -21 -50 -74t-24 -88q0 -6 2 -14q8 2 11 4zM206 469l-34 -54q20 19 34 54zM189.5 415.5q4.5 6.5 10.5 18.5
h-0.5t-0.5 1l-22 -31q8 5 12.5 11.5zM377 195q-6 8 -20 24q-15 20 -15 49q0 27 14 55q6 11 18 23q13 13 25 10q6 6 8 6q5 1 19 4t26 3q11 0 23 -3q22 -6 39 -24q28 -33 28 -70v-18.5t-6 -28.5q-9 -19 -18 -31.5t-23 -20.5q-27 -16 -48 -16q-9 0 -18 3q-32 9 -52 35zM299 363
q-11 -17 -52 -141t-41 -139zM392 346q-16 -7 -21 -27zM434 214q25 0 45 14q15 11 22.5 27.5t7.5 34.5q0 14 -5 29q-8 22 -32 24h-48l-4 -1q2 -10 2 -14q0 -5 -2 -15q-7 -32 -5 -73q2 -17 6 -25q4 -1 13 -1zM294 249q0 1 -0.5 1h-0.5q-7 -13 -29.5 -83t-22.5 -79zM506 247
l-15 -21q12 6 15 21zM509 231l-14 -16l2 -2q11 6 12 18zM230.5 53q4.5 12 5.5 23l-15 -35q-2 -4 0 -6q5 6 9.5 18z" />
    <glyph glyph-name="ampersand" unicode="&#x26;" horiz-adv-x="680" 
d="M21 1009zM242 6q-48 13 -89 49q-32 28 -46 43q-17 21 -26 37q-23 47 -27 78q-4 20 -4 46q0 24 4 43q13 59 28 95q15 37 45 76q24 31 55 52q43 29 86 29q7 0 21 -2h3q0 1 -0.5 2.5t-2.5 3.5q-32 45 -53 88q-18 35 -18 81q2 49 23 89q14 30 39 49q32 24 70 24t75 -26
q24 -15 37 -42.5t13 -58.5q0 -11 -4 -31q-6 -20 -21 -53l-9 -12l-8 4l-8 12v4q0 8 4 22q8 32 11 48q2 12 2 19q0 16 -5 36q-5 18 -25 26q-9 3 -19 3q-23 0 -45 -22q-17 -18 -29 -49l-15 -46l-1 -4q-2 -18 -2 -28q0 -36 13 -66q8 -20 27 -49l62 -84l8 -13l-4 -18h0.5t0.5 -1
l-9 -7q-22 12 -32 19q-16 11 -40 14q-4 1 -13 1q-25 0 -51 -16q-71 -44 -104 -139q-12 -35 -16 -63q-4 -21 -4 -50q3 -65 40 -115q14 -21 43 -36q9 -5 25 -3q41 8 71 31q28 20 53 55q33 48 72 122v3l-6 1q-49 2 -91 -24l-13 -6l-1 4l-6 2l-6 12q-2 6 -2 9q0 8 6 15q3 5 9 9
q38 31 73 33q18 2 27 2q11 0 27 6q60 24 89 54q17 19 53 55q2 2 5 4t7 0l-2 -6l9 3q0 -1 2 -7h1q5 0 5 -7q0 -1 1.5 -6.5t-2.5 -9.5l-15 -24l-49 -59q-5 -5 -13 -15q-21 -25 -50 -37q-4 -2 -6 -2l-10 -25q-12 -30 -19 -45l-9 -22q-24 -54 -36 -75q-28 -46 -46 -66
q-39 -42 -93 -48q-14 -1 -40 5zM305 862q-16 -6 -26 -18.5t-18 -31.5q13 19 44 50zM327 852q-10 -1 -16.5 -6.5t-12.5 -16.5l2 -1zM350 834q-14 -3 -18 -16zM104 392l7 14q4 8 7 12l7 12q6 8 8 12l18 24l9 11l10 10l11 11q1 1 4 3.5t4 6.5q-33 -22 -55.5 -53.5t-38.5 -73.5
l3 -2zM215 498q-19 -7 -44.5 -35.5t-30.5 -49.5q24 36 75 85zM235 469q-36 -20 -56 -59zM545 375q-15 -13 -35 -25t-27 -16q34 9 62 41zM522 340l-36 -21q21 1 36 21zM522 310q-14 -8 -21 -13v-0.5t1 -0.5q13 3 20 14zM359 303q-16 -4 -29 -19l1 -1zM371 295q-19 -4 -33 -18
l1 -2zM418 202q33 58 36 74q-19 -37 -41 -76t-42 -70q14 14 47 72zM408 154l47 93l3 7l-2 1l-38 -73q-9 -17 -17 -29.5t-13 -21.5l-12 -19q19 17 32 42zM436 167l-30 -52l-19 -33q29 33 49 85z" />
    <glyph glyph-name="quotesingle" unicode="'" horiz-adv-x="130" 
d="M52 647q0 52 -2 85q13 7 17 8.5t5.5 -0.5t4.5 -2l3 -145l-25 -5q-3 12 -3 59zM65 680q2 -34 6 -51q-1 26 -6 51z" />
    <glyph glyph-name="parenleft" unicode="(" horiz-adv-x="235" 
d="M155 49.5q-8 4.5 -11 6.5q-13 8 -25 25l-30 48q-8 16 -10 24q-6 16 -9 29t-7 34q-3 15 -7 38q-2 18 -4 52q-2 24 -2 37l1 19v36l3 30q0 17 1 25q2 24 4 38l7 40q3 15 7 38q1 2 2 5t1 6q2 7 4.5 18.5t7.5 26.5q12 38 22 57q8 18 27 44l9 10q7 7 14 7q2 0 8 -2q2 0 2 -1
q2 0 3 -1q1 -2 5 -6l-4 -16q-1 -4 -2 -10t-1 -14q1 -19 -7 -55l-14 -47l-8 -38q-2 -16 -4 -22l-4 -22q-6 -30 -9 -60q-2 -14 -2.5 -24.5t-0.5 -17.5l-2 -31l-1 -31l1 -32q2 -36 4 -56q1 -13 5 -32l6 -34q9 -34 19 -59q2 -6 4 -16q3 -19 13 -41q1 -2 2.5 -3t2.5 -3
q1 -1 2 -2.5t2 -3.5l3 1l2 -5q0 -3 -1 -5l-2 -4q-4 -6 -11 -6q-8 1 -16 5.5zM161 731q-8 -5 -10 -18zM79 512l5 26q7 35 10 47q7 35 23 72q14 38 31 70q-1 0 -1 1q-4 -4 -5 -7l-15 -27q-24 -52 -36 -108l-15 -78q-2 -10 -4 -30q3 13 7 34z" />
    <glyph glyph-name="parenright" unicode=")" horiz-adv-x="235" 
d="M53 50q-5 9 -1 14l3 -1q1 2 2 3.5t2 2.5q1 2 2.5 3t2.5 3q10 22 13 41q2 10 4 16q10 25 19 59l6 34q4 19 5 32q2 20 4 56q1 11 1 32t-1 31l-2 31q0 7 -0.5 17.5t-2.5 24.5q-3 30 -9 60q-2 14 -4 22l-4 22l-8 38l-14 47q-8 36 -7 55q0 8 -1 14t-2 10l-4 16q4 4 5 6
q1 1 3 1q0 1 2 1q6 2 8 2q7 0 14 -7l9 -10q19 -26 27 -44q10 -19 22 -57q5 -15 7.5 -26.5t4.5 -18.5q0 -3 1 -6t2 -5q4 -23 7 -38l7 -40q2 -14 4 -38q1 -8 1 -25l3 -30v-36l1 -19q0 -13 -2 -37q-2 -34 -4 -52q-4 -23 -7 -38q-4 -21 -7 -34t-9 -29q-2 -8 -10 -24l-30 -48
q-12 -17 -25 -25q-3 -2 -11 -6.5t-16 -5.5q-7 0 -11 6zM74 731l10 -18q-2 13 -10 18zM159 508l-15 78q-12 56 -36 108l-15 27q-1 3 -5 7q0 -1 -1 -1q17 -32 31 -70q16 -37 23 -72q3 -12 10 -47l5 -26q4 -21 7 -34q-2 20 -4 30z" />
    <glyph glyph-name="asterisk" unicode="*" horiz-adv-x="307" 
d="M144 503l-13 14l-1 42l-39 -27h-2q-6 0 -10 3.5t-5 4.5l47 46q-1 0 -1 2h-8l-42 -5h-7q-4 0 -6.5 2t-6.5 9q4 5 15 7q15 3 45 7q3 1 10 1l-5 5q-36 33 -35 32q-6 6 -5 11q2 1 6 1q6 0 10 -4l32 -24l5 -2v10l2 45q0 11 7 17h5q11 0 16 -8q-2 -14 -2 -22l1 -22q1 -8 1 -23
l6 5l46 41q10 8 15 11q7 5 12 5q10 0 16 -11l-2 -5q-3 -1 -5.5 -1.5t-5.5 -2.5q-9 -7 -38 -36l-14 -15v-2q7 -1 20 -1q5 0 13.5 -1t14.5 -2q16 -2 21 -16q-2 -2 -3 -2q-15 3 -29 3q-16 0 -23 -1l-24 -1v-2q2 -3 5 -5q2 -2 43 -37l12 -12l-4 -6h-2q-6 0 -14 6q-34 26 -51 38
q-3 3 -9 6v-29q0 -7 -0.5 -17.5t0.5 -24.5q0 -6 -5 -9z" />
    <glyph glyph-name="plus" unicode="+" horiz-adv-x="395" 
d="M207 153q-5 0 -8 4q-3 1 -8 4t-8 5q-5 4 -9 14q-16 46 -17 80l-1 4l-8 1q-29 0 -69 -7q-4 0 -6.5 -1t-4.5 -2q-8 0 -12 3l-6 9q2 1 5.5 2.5t5.5 1.5l22 6q14 4 21 5l44 2h8q0 40 2 59q1 19 7 57q5 20 11 38q1 3 3.5 5.5t3.5 4.5q4 4 10 3q2 0 7 -1t8 -3q8 -2 9 -7
q0 -1 5 -4v-24l1 -40l-1 -35q1 -16 1 -47q0 -5 1 -7q11 0 17 -1q24 0 36 -1l36 -1q13 0 20 5q6 -3 10 -6l2 -6q-6 -9 -19 -9q-14 -2 -44 -2q-33 0 -48 2h-9v-9q1 -8 2 -19t1 -26q0 -5 -1 -11.5t-2 -9.5l-1 -15q1 -1 4 -3v-2q0 -10 -10 -17q-7 0 -11 1z" />
    <glyph glyph-name="comma" unicode="," horiz-adv-x="158" 
d="M69 -37l-6 7q-1 3 2 8l11 19l-1 1q-8 3 -14 10.5t-8 9.5q-3 5 -3 8q0 6 6 10q5 4 13 4q7 0 14 -3q14 -5 25 -21q-1 -17 -10 -29t-24 -25z" />
    <glyph glyph-name="hyphen" unicode="-" horiz-adv-x="915" 
d="M75 189q-5 0 -14 4l-11 21q18 9 27 12l19 6q56 16 84 22q154 36 300 56q49 7 127 7h32l168 -2h10q27 1 44 -20q0 -2 1 -3l3 -12q-15 -11 -13 -10l-13 5q-44 -1 -125 -5q-19 0 -29 -1q-45 0 -88 -3q-40 -3 -128 -13q-67 -9 -175 -26l-58 -9l-108 -18q-15 -2 -45 -10z" />
    <glyph glyph-name="period" unicode="." horiz-adv-x="164" 
d="M56 18q-6 4 -6 14l2 12q1 5 5.5 9t10.5 3q13 0 20 -2q11 -2 23 -16q4 -5 2 -14l-1 -3q-7 -19 -22 -19q-7 0 -19 5q-5 3 -15 11z" />
    <glyph glyph-name="slash" unicode="/" horiz-adv-x="378" 
d="M90 40q-2 -1 -5 -1q-8 0 -14 6l5 16l-2 1q-3 -4 -4 -7.5t-3 -6.5l-5 4q0 8 1 13q-5 -4 -7 -8q-6 2 -6 11q0 31 6 50q12 45 25 81q17 44 22 55q2 7 8 21l35 88l36 91q3 9 5.5 17t4.5 14l19 54l12 34q1 7 5 21q12 56 19 84q1 3 3.5 16t9.5 23l17 17q2 2 6 2q5 0 9 -1
q-2 -4 -10.5 -12.5t-8.5 -17.5q3 2 7 9l8 10l8 10q2 0 8 -2l-1 -8l8 4q13 -12 16 -26q1 -5 1 -15q0 -8 -2 -24l-3 -21q-1 -8 -5 -31q-9 -38 -16 -65q-3 -13 -6.5 -23t-5.5 -18q-13 -41 -16 -50l-21 -57q-5 -14 -17 -42q-14 -39 -19 -51l-25 -62l-33 -80l-36 -80
q-2 -5 -17 -32q-4 -8 -12 -14zM64 84q4 9 7 20l6 20q13 43 42 113l20 49q18 50 56 148q4 14 7 21q-6 -3 -6 -9q-13 -30 -35 -90l-63 -153q-12 -36 -20 -62l-10 -31q-2 -5 -3 -13t-2 -13h1zM172 319l-1 1q-10 -17 -48.5 -117t-38.5 -109zM123 110q5 12 9 22t8 19q12 26 17 39
l16 42q2 6 7.5 18t7.5 22l-66 -154l-19 -45l1 -4q8 13 19 41z" />
    <glyph glyph-name="zero" unicode="0" horiz-adv-x="452" 
d="M223 5q-24 0 -54 15q-33 17 -52 39q-18 21 -29 39t-14 38q-3 14 -8 34l-7 31q-3 11 -5 33q-1 8 -2 20t-1 29q-1 9 -1 28q0 24 4 72q0 18 2 40t3 30q6 62 12 94q2 11 4.5 19t4.5 14l10 37q5 15 10 26t8 19t8 13q7 9 10 17q8 23 16 41q12 29 30 43q27 21 61 21q57 0 96 -49
q18 -21 35 -63q25 -62 32 -122q6 -56 6 -82q0 -21 -2 -61q-2 -26 -2 -39q-1 -25 -7 -75q-7 -52 -11.5 -79.5t-14.5 -55.5q-3 -9 -9 -27.5t-12 -31.5q-8 -24 -28 -56q-13 -22 -42 -36l-11 -5q-20 -10 -40 -10zM230 45.5q11 3.5 18 7.5q9 5 20 16l15 21q13 18 20.5 37t19.5 53
q17 50 24 102q8 59 11 106q0 12 2 36l3 39q1 13 1 39q0 61 -11 110q-13 58 -36 104q-15 30 -37 48q-9 8 -20 9l-12 1q-30 0 -50 -20q-13 -11 -22 -27.5t-12 -21.5q-4 -5 -5.5 -9t-3.5 -7l17 -13l1 -10q0 -15 -1 -22q0 -30 -2 -45q-4 -34 -5 -50q-1 -10 -5 -30l-4 -26
q-4 -21 -8 -65l-2 -21l-2 -29q0 -9 -2 -29q-1 -9 -0.5 -18.5t-0.5 -18.5q-2 -19 -2 -57q0 -31 1 -47t3 -29t3 -23l2.5 -7.5t1.5 -8.5q3 -24 12 -48q12 -30 31 -47q11 -9 21 -5q5 2 16 5.5zM155 724q-11 -16 -17 -32l2 -1zM73 390q2 14 4 34q6 61 11 95q6 43 30 122l2 11h-2
q-4 -4 -5 -7q-16 -60 -23 -90q-7 -28 -10.5 -61.5t-5.5 -65.5l-3 -38h2zM351.5 251.5q8.5 47.5 14 98t3.5 66.5l-3 -30q-6 -39 -9 -82q-4 -47 -23 -114q9 14 17.5 61.5zM70 326l2 51h-1l-2 -51h1zM370 326q-14 -127 -55 -219q49 94 55 219zM377 259l-13 -65q11 30 13 65z
M343 125q9 18 12 38q-7 -17 -13 -38h1z" />
    <glyph glyph-name="one" unicode="1" horiz-adv-x="316" 
d="M218 3l-20 11q-4 4 -5 6t-7 16t-6 27q0 10 -2 28l-3 28l-3 68v36q0 17 2 49l6 82l4 42v63l1 59q0 36 1 54q2 56 4 87q0 6 0.5 16t-0.5 25q-1 0 -3 -5q-5 -11 -10 -19q-9 -20 -29 -58q-27 -50 -54 -84q-3 -4 -22 -23h-4q-7 0 -12 4t-6 5q4 8 6 10q44 60 87 147
q26 52 59 116q1 3 5 7l17 -3l5 -7h1v-5l1 -2q10 -1 12 -12l7 -47l8 -72l5 -70q1 -16 1 -48q2 -54 2 -83q0 -38 -1 -56q-4 -56 -5 -84q-3 -34 -7 -95l-2 -92l-3 -79q0 -5 -1 -9t-2 -7q0 -9 -1 -13q0 -11 -7 -15q-2 0 -4.5 -0.5t-4.5 0.5q-6 0 -10 2zM208 791l-2 1
q-3 -6 -8.5 -18t-9.5 -22q7 10 20 39zM186 745l-2 1q-3 -7 -7 -14.5t-7 -14.5l2 -1q2 5 14 29zM172 701q10 18 14 27l-2 1l-3 -5l-52 -104h1l2 -1zM166 707q-5 -6 -11 -18.5t-7 -18.5zM196 323l-2 1l-2 -28q-4 -44 -3 -65q3 33 7 92z" />
    <glyph glyph-name="two" unicode="2" horiz-adv-x="462" 
d="M55 -7q-1 4 -5 17q6 9 18.5 13.5t18.5 7.5q-1 3 -1 9q0 7 2 19t3 20q0 2 -0.5 6t0.5 7q2 7 3.5 13.5t3.5 13.5l21 49l46 95q24 50 42 81l24 41l14 23q5 8 9 16t8 14l13 24q16 23 26 42q14 26 19 40q15 33 23 60q12 36 12 64q0 12 -1 18q-3 25 -16 42q-1 1 -2 3t-4 4
q-38 28 -79 28q-19 0 -38 -14q-15 -11 -32 -35q-40 -52 -51 -130q-5 -36 -5 -88v-36v-14l-5 -1q-10 0 -13 9q-6 10 -8 27q-3 26 -3 50q0 28 4 51q6 51 27 99q23 51 55 83q23 23 54 23q85 0 143 -63q34 -36 31 -89l-5 -51q-2 -15 -6 -28q-15 -57 -50 -121l-10 -20l-21 -39
l-40 -77q-16 -34 -25 -51q-6 -13 -14 -28.5t-17 -35.5q-6 -12 -27 -58l-17 -38l-16 -29q-3 -3 -4.5 -6t-3.5 -5h10q41 7 88 7q29 0 44 -1q21 0 31 1l22 3v-3h4q2 -2 3.5 -4.5t2.5 -3.5v-9q-5 -9 -16 -11q-15 -3 -32 -3q-54 -2 -82 -4q-66 -5 -110 -16q-16 -3 -31 -9l-23 -6
l-5 -1zM146 685q-13 -21 -16 -41zM102 42l2 14q6 36 21 72q51 116 93 192l30 54l19 34l27 48l19 33q30 50 44 103q2 8 2 15q-2 -4 -2 -5q-19 -58 -50 -114q-11 -20 -35 -60q-8 -14 -18 -31t-21 -37q-27 -49 -58 -112q-2 -5 -17 -36l-9 -19q-10 -20 -28 -60q-10 -22 -13 -34
q-3 -11 -5.5 -26.5t-3.5 -24.5v-6h3zM119 47q4 16 8 25q42 106 78 176q33 66 105 194q3 6 5.5 10.5t4.5 8.5q21 37 37 81q2 3 4 13l-5 -8q-12 -24 -14 -29l-17 -34l-29 -51l-49 -89q-58 -109 -91 -183q-29 -66 -40 -111l-2 -8l2 -1zM147 49l6 12t5 11q4 7 8.5 16l10.5 21
q27 56 32 68q7 14 14.5 31t17.5 37l90 175l36 74q3 5 7 17q-3 0 -3 -2l-18 -35q-8 -17 -26 -51l-15 -27l-52 -100q-29 -59 -48 -101l-32 -67q-10 -18 -37 -77l-2 -6q4 -1 6 4z" />
    <glyph glyph-name="three" unicode="3" horiz-adv-x="472" 
d="M119 40q-25 18 -49 47q-19 23 -19 51q0 15 5 33q5 20 24 41q5 5 15 16q20 16 34 17q11 2 15 -1l8 -2q2 -6 2 -7l4 -1v-3q-4 -3 -6 -6t-4 -5q-18 -11 -31 -39q-9 -18 -9 -45q0 -24 10 -43q13 -22 38 -24q36 -3 67 10q29 11 57 43q18 20 25 32q16 30 23 46t9 36q2 36 -3 59
q-9 37 -13 49q-13 40 -42 62q-9 8 -32 14q-2 -1 -6.5 -3t-9.5 0q2 3 4 9q0 1 -2 1q-2 -1 -4 -3t-5 -4l-1 1l3 7l-7 -6l-11 11q1 4 6 11.5t5 12.5h1q3 0 7 6l47 71l4 7l-2 1l-35 -52q-8 -11 -22 -33l-16 -17l-6 7q0 2 6 16l11 16l18 29l24 39q14 20 20 30q5 8 8 15t5 12h-3
l-44 -69l-36 -57q-5 -10 -3 -15q-8 -6 -11 -9q-8 8 -5 16q0 2 3 8q21 43 39 66l15 24l13 21q5 8 10.5 19.5t9.5 18.5q6 14 9 28q11 30 13 67v5q0 10 -5 22q-7 3 -16 3q-8 0 -12 -1q-22 -5 -52 -19q-32 -19 -67 -64q-8 -11 -22 -35l-23 -35q-13 -20 -25 -52q-2 -4 -4.5 -6.5
t-3.5 -5.5q-15 3 -17 19q-1 4 -1 13q0 13 5 26q24 53 37 78q15 31 42 59q39 44 102 64q12 3 23 3q21 0 43 -11q32 -17 52 -58q12 -26 16 -54q1 -6 1 -19q0 -28 -9 -55q-8 -26 -22 -52q-7 -13 -23 -37q-12 -18 -38 -54l-2 -4q8 -3 22 -11q22 -11 39.5 -28.5t34.5 -41.5
q23 -34 34 -73q14 -49 14 -85q-2 -33 -13 -60q-22 -52 -56 -90q-22 -24 -49 -38l-23 -12q-27 -11 -52 -11q-11 0 -33 4q-46 10 -77 34zM147 727q-16 -13 -38 -45.5t-23 -46.5q17 36 61 92zM162 726q-12 -8 -32 -34t-21 -36zM159 693q-6 -3 -12.5 -11t-9.5 -15zM269.5 463.5
q2.5 5.5 5.5 8.5q6 8 11 20l-27 -33l3 -3q5 2 7.5 7.5zM108 212q-18 -12 -20 -29zM77 187q4 8 9 17q-16 -12 -17 -32q4 7 8 15zM323.5 144q18.5 29 18.5 45q-19 -41 -55 -87q18 13 36.5 42zM327 108q9 12 16 31q-13 -17 -41 -51q16 8 25 20zM351.5 82q6.5 9 10.5 15.5
t6 10.5l-2 1q-34 -44 -31 -40l2 -1q8 5 14.5 14z" />
    <glyph glyph-name="four" unicode="4" horiz-adv-x="410" 
d="M304.5 6q-10.5 5 -16.5 14q-11 24 -16 53q-2 9 -5.5 23.5t-4.5 25.5q-4 24 -8 68l-1 24q-1 12 -2 30.5t-4 43.5q-2 14 -2 43q0 41 1 63q0 1 -0.5 2t-0.5 4q-34 -25 -69 -67q-3 -4 -22.5 -28t-33.5 -48q-8 0 -10 1q-13 4 -15 6q-23 12 -27 36l-7 44q-8 45 -10 65
q-2 32 -2 48q0 30 4 54l3 25q1 26 6 52q2 18 4.5 31.5t4.5 22.5l6 40l3 32q1 10 2.5 29t3.5 33q0 3 3 15q1 2 3 4t3 5l20 -4q16 -15 25 -42q11 -35 11 -59q1 -19 1 -59q0 -23 -4 -65q-2 -34 -8 -94l-5 -54q-2 -36 -4 -53q-4 -26 -7 -38q-4 -16 -2 -25q5 1 7 8q2 2 19 25
l28 35q24 29 63 58q2 2 4 3l4 2l1 2l2 20q2 18 4.5 42t4.5 54q2 20 8 58l3 27q1 9 2 22.5t4 31.5q7 50 10 70q1 5 5 15q5 8 14 8h7q7 4 10 -2q6 2 7 2q4 0 10 -4.5t9 -4.5l4 -15l3 -36q2 -20 4 -64q1 -8 1 -24q0 -21 -4 -63l-9 -100q-3 -44 -11 -143v-153q0 -13 -2 -37
q-2 -16 -2 -24l-3 -56q0 -25 -3 -36q-1 -2 -1 -7t4 -9l-3 -10q-11 -1 -21.5 4zM272 462.5v3.5q4 26 8 78q10 90 14 128l1 20q2 49 9 80v3q-6 -5 -7 -11.5t-1 -7.5q-4 -57 -7 -88q0 -4 -6 -56l-3 -24q-2 -26 -8 -80l-4 -42v-9q4 3 4 5.5zM86 620q-5 -15 -11.5 -64.5
t-4.5 -62.5zM265 339v19q1 7 1 22q2 12 2 19l1 11q0 3 -2 9q-4 -23 -4 -48.5v-31.5h2z" />
    <glyph glyph-name="five" unicode="5" horiz-adv-x="485" 
d="M122 33q-18 12 -33 24q-42 35 -38 85q3 62 41 104q26 29 66 29q21 0 31 -3q10 -4 16 -13q4 -7 1 -11q-5 0 -7 -1q2 -1 -13 10q-26 1 -44 -17q-25 -26 -31 -64q-2 -20 -2 -29q0 -20 5 -35q5 -20 18 -33q14 -14 35 -17q22 -1 52 15q36 17 70 59q10 12 26 33q3 3 4 5.5
t2 4.5q14 30 19 66q4 28 4 42q0 26 -7 61q-12 59 -43 107q-7 9 -13 10q-50 25 -96 21q-14 -2 -24.5 -2.5t-17.5 -0.5h-4q-11 0 -19 7q-7 7 -29 21q-10 5 -15 18l-10 39q-7 19 -5 50l6 84q3 34 13 62q4 10 14 13q13 7 43 13q68 8 104 8q19 0 51 -4q9 0 25 -2q8 -1 18 -11
q5 -4 7 -18q-4 -4 -11 -4q-28 -2 -42 -2q-5 -1 -12.5 -2t-17.5 -1q-68 -2 -114 -9h-5l-2 -2q1 -3 1.5 -9.5t1.5 -10.5q5 -20 7 -44.5t3 -47.5l1 -48q1 -13 -5 -37l-3 -11l7 2q14 6 35 6q53 0 107 -26q48 -24 83 -72q36 -48 51 -120q8 -37 8 -70q0 -23 -8 -71q-8 -33 -26 -61
t-46 -58q-38 -39 -88 -57q-16 -6 -42 -8q-54 -1 -103 33zM96 212.5q4 7.5 6 12.5q-14 -12 -14 -30q4 10 8 17.5zM85 221q-17 -25 -19 -57q5 23 19 57zM353 209q-17 -46 -45 -80q42 37 45 80zM327 113l14 14t15.5 20t6.5 22l-38 -56h2zM396 150q-7 -9 -20 -29.5t-13 -23.5
q27 25 33 53z" />
    <glyph glyph-name="six" unicode="6" horiz-adv-x="513" 
d="M158 41q-37 33 -61 70q-27 41 -35 73q-10 44 -11 67q-1 12 -1 36q0 19 2 59l10 65q10 55 26 94q5 19 14 43q6 18 17 39l14 31q6 9 16 27q13 25 28 45q30 43 71 73q33 26 73 26q38 0 75 -26q39 -30 63 -91q4 -12 4 -28q0 -11 -1 -17q-2 -17 -11 -25q-13 5 -15 23
q0 24 -2 36q-6 43 -40 68q-14 10 -31 10q-16 0 -32 -9q-19 -11 -30 -25l-33 -48q-17 -26 -30 -51l-12 -20q-3 -5 -5 -11t-5 -11q-10 -18 -18.5 -40t-10.5 -28q-19 -45 -28 -94l-6 -26q-6 -24 -7 -37q-4 -23 -6 -67l-1 -22l1 -23q0 -42 13 -78q17 -43 31 -66q17 -30 54 -32
q32 0 61 17q40 24 70 74q24 40 32 71q10 37 10 67q0 25 -6 49q-5 26 -20 49q-19 31 -66 47q-21 6 -40 6q-12 0 -34 -4l-57 -14l-7 2l-9 12q0 5 10 7q3 1 54 16q4 1 10 3t14 3q14 2 20 2q25 0 52 -11q61 -23 98 -83q29 -48 29 -104q0 -95 -58 -180q-19 -30 -46 -52
q-37 -27 -75 -27q-5 0 -14 -1t-14 0q-55 6 -94 41zM133 569l2 2q15 27 17 32q4 7 8 15t9 17q43 75 102 123l3 3q-7 -1 -12 -6q-35 -25 -55 -53q-43 -57 -74 -129q-1 -1 -1 -4h1zM293 753q-22 -9 -35.5 -25.5t-34.5 -47.5q24 30 70 73zM316 732q-22 -7 -38 -34zM403 185
q-16 -32 -25 -48l-30 -45q34 31 55 93zM393 131l-41 -55q30 22 41 55zM404 106l-22 -31l-14 -19q25 19 36 50z" />
    <glyph glyph-name="seven" unicode="7" horiz-adv-x="474" 
d="M171 7l-5 -7q-12 0 -16 9h-1q-5 1 -9 5t-7 6q-5 3 -5 12l-2 22q0 7 -2 21q-3 17 -3 32q2 42 5 63q2 16 10 53l6 32l9 44l4 16q5 21 13 61q2 6 4 14l3 12l-54 -15l-37 -10q-6 1 -8 7t-4 9l15 10q29 14 64 25q11 3 33 11l10 31l14 43q2 8 11 35l21 58l15 41q17 46 46 81
l26 32q-1 0 -2 0.5t-2 -0.5l-63 -4q-60 -3 -115 -19l-78 -21l-7 -2l-5 5q-2 4 -3 7.5t-2 6.5q11 8 13 9q24 12 44 20q46 19 91 26q27 5 53 6q28 2 43 2l52 -3l14 -15v-3q0 -7 6 -12q1 -1 6 -11q-2 -8 -5 -27t-9 -34q-10 -28 -14 -42l-7 -21q-3 -10 -20 -61l-30 -90
q-2 -6 -3.5 -12t-3.5 -11q8 1 23 1q14 0 32 -1t27 -2q8 -1 20 -2t28 -1l12 -10l2 -10q-3 -4 -14 -4h-27q-18 0 -27 -1l-79 -3l-6 -1q-5 -10 -7.5 -22t-3.5 -16q-7 -27 -19 -81l-3 -18l-12 -57q-2 -12 -8 -36l-3 -21q-4 -21 -6 -42q-1 -15 -3 -27.5t-3 -21.5q0 -3 -2 -9
q-4 -9 -11 -34l-6 -21q-2 -7 -4 -9l-8 -9zM342 760l-2 1q-37 -46 -53 -84zM178 331q-5 -10 -19.5 -81t-13.5 -80z" />
    <glyph glyph-name="eight" unicode="8" horiz-adv-x="387" 
d="M102 33q-41 21 -49 71q-3 21 -3 43q0 29 6 59q8 38 14 56q10 28 38 80q25 42 50 72l30 33l7 8l-4 8q-4 12 -14 36l-15 36q-25 70 -25 121q0 21 2 32q6 40 26 71q8 13 18 23q14 15 37 15q32 0 62 -19q51 -31 51 -92q1 -24 -10 -63q-16 -59 -39 -104q-4 -9 -22 -38l-2 -4
q10 -24 16 -36l12 -29l16 -41q11 -29 18 -53q9 -33 10 -59l2 -8q4 -40 3 -79q0 -47 -21 -97q-11 -27 -39 -45q-37 -24 -80 -24q-34 0 -74 16q-14 8 -21 11zM173 745q4 9 8.5 16t8.5 14q-10 -8 -19.5 -27t-10.5 -33q5 10 13 30zM205 771q-14 -7 -18 -29zM249 506l4 7l21 53
q22 56 30 103q1 7 1 20q0 27 -10 50q-12 25 -41 31l-6 1q-14 0 -22 -14q-9 -16 -14 -39q-5 -20 -5 -48q0 -12 2 -34q5 -33 19 -79l19 -51h2zM242 105q7 24 9 49.5t2 59.5q0 23 -2 34q-1 8 -2 16.5t-2 17.5q-5 33 -12 62q-4 14 -20 62l-10 23q-5 -7 -6 -9q-2 -2 -13 -19
q-41 -55 -69 -115q-10 -23 -20 -69q-7 -35 -5 -79q2 -28 8 -47t21 -34q8 -8 20.5 -12.5t25.5 -4.5q20 0 36 10q28 18 39 55zM93 278q-13 -26 -19 -74zM76 255q-7 -12 -12.5 -42t-5.5 -53q0 -9 1 -13q1 47 17 108zM265 115.5q5 20.5 5 41.5q0 11 -1 16q-4 -27 -7 -43l-10 -43
q8 8 13 28.5zM281.5 100.5q3.5 9.5 2.5 27.5l-15 -44q9 7 12.5 16.5zM303 78q7 8 9.5 17.5t4.5 24.5l-2 1l-14 -43h2z" />
    <glyph glyph-name="nine" unicode="9" horiz-adv-x="508" 
d="M262 -2q-30 0 -59 12q-48 21 -70 42q-12 12 -22 32q-18 37 -19 69v6q0 11 1 16q3 24 9 50q5 29 25 46l11 12l12 2q1 -1 1 -4q5 2 7 4l10 -10q0 -6 -7 -15q-19 -29 -19 -64q0 -16 5 -38q10 -40 37 -80l19 -20q6 -6 17 -4q43 6 68 47q23 38 32 66q16 46 22 69q10 38 14 69
q9 51 10 87l-1 30l-2 43q-1 39 -11 80q-17 70 -52 129q-6 11 -35 49q-7 9 -23 16q-24 11 -46 10q-31 -5 -52 -27q-45 -46 -52 -108q-1 -7 -2 -16t-1 -21q0 -8 2 -22q4 -50 36 -91q9 -13 27 -24q16 -10 34 -10q9 0 13 1q48 8 82 39q7 6 13.5 16t9.5 14l9 13q6 7 12 7
q8 0 12 -7q-2 -5 -4.5 -11.5t-4.5 -14.5q-12 -43 -58 -67q-26 -13 -50 -17l-13 -1q-37 0 -70 21q-71 44 -86 130q-4 19 -4 44q0 12 2 38q6 49 30 89q2 3 14 23q13 20 39 36q19 12 44 12q81 -2 140 -53q36 -31 62 -73q22 -34 34 -63q14 -31 24 -61q11 -35 17 -95q1 -9 2 -21
t1 -29l-1 -66l-2 -21q-8 -43 -10 -62q-3 -29 -19 -78q-20 -68 -54 -118q-16 -23 -32 -34q-12 -10 -34 -17q-22 -6 -44 -6zM99 734q-31 -40 -36 -84q13 42 36 84zM98 704l12 23q-23 -27 -29 -56q12 22 17 33zM116 699q-14 -16 -17 -32zM357 197q9 31 14.5 61t3.5 38
q-13 -58 -27 -103.5t-34 -87.5q28 43 43 92zM130 246q-5 -6 -7 -13t-3 -18zM115 241q-7 -15 -9 -31t-3 -41zM381 211q-30 -78 -48 -117q38 48 48 117zM411 184q-12 -32 -38 -96q32 44 38 96z" />
    <glyph glyph-name="colon" unicode=":" horiz-adv-x="156" 
d="M76.5 453.5q-4.5 1.5 -7.5 4.5q-5 3 -15 13q-7 8 -2 18q3 11 15 11t24 -6q7 -4 13 -13q2 -2 2 -8q0 -5 -2 -8l-9 -11q-6 -4 -12 -3q-2 1 -6.5 2.5zM76.5 0.5q-4.5 1.5 -7.5 4.5q-5 3 -15 13q-7 8 -2 18q3 11 15 11t24 -6q7 -4 13 -13q2 -2 2 -8q0 -5 -2 -8l-9 -11
q-6 -5 -12 -3q-2 1 -6.5 2.5z" />
    <glyph glyph-name="semicolon" unicode=";" horiz-adv-x="164" 
d="M56 462q-6 4 -6 14l2 12q1 5 5.5 9t10.5 3q13 0 20 -2q11 -2 23 -16q4 -5 2 -14l-1 -3q-7 -19 -22 -19q-7 0 -19 5q-5 3 -15 11zM74 -37l-6 7q-1 3 2 8l11 19l-1 1q-8 3 -14 10.5t-8 9.5q-3 5 -3 8q0 6 6 10q5 4 13 4q7 0 14 -3q14 -5 25 -21q-1 -17 -10 -29t-24 -25z
" />
    <glyph glyph-name="less" unicode="&#x3c;" horiz-adv-x="487" 
d="M293 543q-4 4 -8 4q-5 -1 -14 -5q-14 -9 -20 -15l-19 -18l-16 -18l-17 -21l-15 -19l-3 -4q-1 -2 1 -6l3 -6q0 -1 0.5 -3t0.5 -3q4 -5 9 -8l5 -4q11 -5 32 -17q6 -3 17 -10l22 -17l2.5 -2t5.5 0l3 -2q4 0 5 3v4q0 3 -2 7q-4 8 -12 16q-12 8 -17 13q-3 2 -13 8q-9 7 -32 17
l-3 2l21 21l31 34l14 15q2 1 9.5 10t10.5 19v3zM284 542q-16 -9 -35 -27q-9 -8 -34 -37l-26 -29q0 -1 -1 -1l1 2q0 1 21 26q7 7 21 23l10.5 10.5l14.5 14.5q10 10 20 16q5 3 9 3z" />
    <glyph glyph-name="equal" unicode="=" horiz-adv-x="636" 
d="M106.5 295.5q-3.5 7.5 -4.5 9.5q2 6 10 8q22 9 43 15q46 14 123 25q27 3 76 7l28 1q38 2 57 2q34 0 52 -1l51 -1q23 0 34 -14q1 -1 10 -17l-11 -10l-15 10l-96 -6l-65 -3l-35 -2q-70 -4 -105 -8q-20 -1 -60 -9q-16 -4 -24 -5q-14 -2 -58 -11q-7 2 -10.5 9.5zM67 163
q-2 0 -9 3l-8 14l19 8l25 7q21 8 42 12q116 25 197 36q35 5 105 5q37 -1 110 -1h7q18 0 28 -14l1 -1l2 -9l-8 -6q-3 1 -5 2t-4 1l-82 -3l-26 -1q-17 0 -51 -2q-28 -2 -84 -8q-71 -11 -115 -17l-109 -18q-10 -1 -30 -7z" />
    <glyph glyph-name="greater" unicode="&#x3e;" horiz-adv-x="487" 
d="M178 543q4 4 8 4q4 -1 14 -5q13 -9 19 -15l20 -18l16 -18l17 -21l15 -19l3 -4q0 -2 -1 -6l-3 -6q-1 -1 -1 -3t-1 -3q-3 -5 -8 -8l-6 -4q-10 -5 -31 -17q-7 -3 -18 -10l-21 -17q-1 0 -3.5 -2t-5.5 0l-2 -2q-4 0 -6 3l1 4q0 3 1 7q5 8 13 16q11 8 17 13l12 8q10 7 32 17
l4 2l-21 21l-31 34l-15 15q-1 1 -8.5 10t-10.5 19v3zM186 542q17 -9 36 -27q8 -8 34 -37l25 -29q0 -1 2 -1l-1 2q-1 1 -22 26q-6 7 -20 23l-10.5 10.5t-15.5 14.5q-9 10 -19 16q-5 3 -10 3z" />
    <glyph glyph-name="question" unicode="?" horiz-adv-x="327" 
d="M142 166h-1q-5 -9 -8 -17l-7 -2l-5 3l2 13h-1l-5 -9q-4 2 -3.5 6t-0.5 6l-4 -6q-4 1 -4 6q-2 36 -4 54l1 7l7 60l3 16q2 6 4 12.5t4 13.5q4 20 12 40q4 13 16 39q18 40 22 49l19 41l11 30l4 11q7 19 10 43q1 7 1 21q0 15 -3 28q-1 7 -5 14q-1 5 -8 7l-9 1q-17 0 -33 -8
q-37 -19 -53 -63q-13 -36 -13 -77q-1 -20 2 -43l3 -11q-4 -5 -11 -2q-12 7 -19 19q-12 19 -15 50q-1 8 -1 23q0 42 16 78q17 40 46 61q23 17 49 17q5 0 17 -2q37 -6 61 -28q28 -25 35 -57q4 -14 2 -34q-2 -44 -17 -80q-11 -29 -27 -61l-8 -19q-9 -21 -11 -26
q-10 -21 -17 -38q-2 -5 -13 -41q-7 -21 -13 -65q-3 -13 -3 -27q-1 -14 -8 -31l-9 -21q-1 -3 -8 -17q-1 -2 -5 -4h-1zM96 648q-14 -11 -24 -36t-9 -41q9 41 33 77zM108 644q-20 -17 -28 -49zM118 624q-16 -16 -20 -36q14 24 20 36zM119 251l3 21q8 47 24 88q14 39 38 88
q18 39 33 81l3 10q-1 0 -1 0.5v0.5l-4 -8q-2 -6 -5 -13.5t-6 -15.5q-17 -38 -31 -67q-3 -8 -16.5 -37t-21.5 -57l-12 -50q-2 -10 -4 -32l-2 -15q2 4 2 6zM186 416l-2 1q-3 -6 -10.5 -22.5t-11.5 -31.5zM98 21q-6 4 -6 14l2 12q1 5 5.5 9t10.5 3q13 0 20 -2q11 -2 23 -16
q4 -5 2 -14l-1 -3q-7 -19 -22 -19q-7 0 -19 5q-5 3 -15 11z" />
    <glyph glyph-name="at" unicode="@" horiz-adv-x="649" 
d="M366 19q-37 0 -80 5q-45 5 -93 28q-27 13 -65 49q-39 36 -62 88q-13 26 -16 66q-1 30 8 74q11 50 38 100q24 45 48 75q43 55 109 87q36 17 77 22q9 1 26 1q42 0 77 -14q86 -31 132 -114q25 -44 31 -79q3 -19 3 -39q0 -14 -1 -21q-2 -38 -5 -57q-8 -52 -35 -94
q-25 -38 -63 -49q-12 -4 -19 -4q-5 0 -13 2q-46 13 -73 45q-4 5 -15.5 20t-18.5 29q-1 0 -3 2q-3 -3 -4 -5.5t-2 -4.5q-15 -23 -39 -37q-11 -7 -24 -7t-26 7q-10 4 -15 9q-23 22 -34 33q-14 15 -12 41q3 27 16 57q16 37 46 69q35 35 76 35t65 -30l1 -2v-3l-6 -8l-15 4
q-7 3 -15 0q-20 -9 -29 -22q-12 -17 -24.5 -36.5t-19.5 -37.5q-6 -11 -10 -26t-4 -26q4 1 10 5q31 22 49 40q6 8 8 19q4 10 7 14q7 10 23 7q12 -3 19 -7q11 -5 15 -19q3 -8 5 -28q0 -4 2 -20.5t7 -30.5q5 -15 13 -23l15 2q52 13 76 65q12 26 18 54q7 31 7 64q0 36 -9 63
q-15 42 -37 68q-27 32 -70 46q-30 10 -62 10q-38 0 -77 -15q-58 -24 -101 -73q-40 -46 -67 -109q-13 -29 -21 -62q-9 -40 -9 -67q-1 -31 12 -64q14 -38 37 -67q29 -40 82 -61q33 -14 81 -19q43 -3 78 -2q14 2 23 2q13 2 19 12l3 -3l5 3v-6l5 4l7 -8q-2 -17 -18 -20
q-17 -4 -29 -5q-13 -1 -38 -1zM193 526q-51 -45 -87 -127q39 75 87 127zM169 518q-16 -13 -40 -50t-40.5 -75t-15.5 -53q29 95 96 178zM194 501q-35 -35 -56 -79q31 49 56 79zM226 314l8 18l9 16l10 17q8 10 11 15q2 3 5.5 7t4.5 9q-45 -42 -54 -99zM300 395
q-33 -23 -49 -71zM327 383l-2 1q-27 -27 -43 -69zM529 246q7 13 14 35q-9 -21 -35 -57q14 9 21 22zM343 275l-1 1q-1 -1 -19 -22q0 -1 0.5 -1h0.5q14 14 19 22zM342.5 240q4.5 7 5.5 14l-16 -24q6 3 10.5 10zM540 238l-1 1q-24 -31 -22 -28h0.5t0.5 -1q15 8 22 28zM552 208
q0 1 -0.5 1h-0.5l-17 -21l2 -1q11 7 16 21z" />
    <glyph glyph-name="A" unicode="A" horiz-adv-x="542" 
d="M367.5 1.5q-1.5 0.5 -3.5 -1.5h-14l-1 8q-3 -3 -7 -4l-6 6h-3q-7 0 -8 8q-1 19 2.5 64.5t8.5 102.5q12 124 19 224v4l-8 1q-33 0 -99 -4q-64 -4 -126 -21l-54 -16l-11 -4q-6 -63 -6 -127q0 -114 18 -230q-2 -3 -6.5 -3h-6.5l-4 8q-9 22 -12 47q-8 67 -11.5 108.5
t-3.5 87.5q0 18 2 64l1 26v5q-6 -2 -11.5 -6.5t-7.5 -6.5q-5 0 -7 4.5t-2 5.5q2 7 7 11.5t11.5 9t11.5 7.5l3 22q11 113 27 194q41 222 137 274q35 20 68 20q34 0 71 -23q25 -16 44.5 -45.5t31.5 -65.5q8 -26 12.5 -52t12.5 -97q5 -70 5 -126q0 -101 -13 -241t-34 -196
q-4 -11 -11.5 -24t-10.5 -18l-4 -4q0 3 -1.5 3.5zM314 434q27 0 41 -1q1 2 1 6q2 38 2 111q0 132 -1 148q-2 40 -4.5 61.5t-9.5 44.5q-14 33 -28.5 49t-40.5 16t-55.5 -18t-50.5 -46q-29 -35 -51 -99q-14 -41 -26 -97q-10 -46 -14 -69q-4 -18 -8 -56l-9 -71l-1 -20
q117 41 255 41zM62 538l24 112q1 3 9 37l12 35h-2q-1 -4 -5 -14.5t-6 -19.5l-3 -7q-8 -27 -15 -61t-10 -47l-4 -22l-2 -16q2 0 2 3zM377 452v21v86q-4 -84 -4 -126l2 -3q2 9 2 22zM55 539q-7 -36 -11 -89zM49 431q-6 -28 -5 -41zM337 24l2 5l3 23l9 63l12 118q4 47 10 131
q2 30 2 44v2.5t-3 1.5l-1 -3l-4 -57l-9 -102l-7 -73q-1 -27 -6 -54l-4 -36l-6 -54v-9h2zM355 33l4 21q1 5 5 22.5t5 32.5q3 27 6.5 64.5t5.5 56.5l8 81q1 12 2 29t1 26l-12 -113l-4 -40q-2 -21 -8 -73q-1 -7 -12 -77l-6 -35q5 -1 5 5zM39 314l3 46h-2l-3 -46h2zM388 54
q2 6 2 8q12 44 17 101l7 64l5 59v9l-6 -53q-7 -66 -13.5 -110.5t-17.5 -87.5q4 4 6 10zM38 247v42h-1v-42h1z" />
    <glyph glyph-name="B" unicode="B" horiz-adv-x="650" 
d="M313 0q-42 0 -81.5 16t-70.5 47q-29 29 -26 80q1 22 6 43t15 52l8 16q8 9 21 8l6 -4l-3 -5q-5 -5 -9 -21q-13 -42 -13 -78q0 -43 23 -73q36 -49 91 -49q21 0 43 8q51 17 88 62.5t53 106.5q5 19 8 47t3 50q0 21 -3 45t-8 41q-11 37 -33 57t-56 26q-12 2 -18 2
q-17 0 -31 -7q-9 -4 -20 -7q-6 -2 -10 -2q-8 0 -16 5q-1 1 -1 5q-3 -1 -8 -1l-3 7q-2 -1 -6 -1l-5 5q6 9 26 21q7 6 21 16q36 27 53 43t29 39.5t20 62.5q6 29 6 59q0 46 -13 85q-19 56 -61 56q-20 0 -42 -13.5t-42 -36.5q-22 -26 -46 -75q-28 -58 -53 -146q-17 -59 -33 -125
q-18 -68 -31 -151q-6 -36 -6 -71q0 -40 -2.5 -85.5t-6.5 -70.5q-2 -16 -10 -29q-9 -13 -21 -13q-14 0 -29 15q-10 19 -14 35t-4 35q0 7 2 33q2 24 2 41l2 136q5 278 5 460q1 6 1 19q0 4 2 14q2 8 9 9l4 -3l3.5 3.5t6.5 0.5l4 -5l2 5q19 -6 27 -21q13 -25 17 -51
q4 -18 5.5 -39.5t2.5 -28.5q2 -18 2 -63q0 -36 -2 -102t-1 -83l4 15q16 77 36 144l23 73q25 70 51 114t65 67q28 17 57 17q34 0 65.5 -21t51.5 -58q15 -26 24 -61t9 -66q0 -15 -1 -22q-7 -62 -35 -105q-17 -27 -49 -50l-11 -8q6 -2 7 -2q49 -9 95 -52q33 -31 50 -82t17 -107
q0 -21 -3 -42q-7 -58 -41 -106t-83 -75q-52 -30 -111 -30zM102 441q0 1 2 7q19 90 43 168q28 94 61 159l2 3q-2 0 -2 -1l-4 -5q-18 -34 -38 -88q-34 -101 -61 -218q-1 -10 -5 -25h2zM150 652l9 26h-2l-4 -12l-8 -27q5 12 5 13zM411.5 619q7.5 22 11.5 52q-13 -52 -35 -93
q16 19 23.5 41zM120 549l16 56l7 25l2 7l-10 -29l1 -3l-4 -6l-12 -46q-1 -1 -1 -4h1zM17 117q2 16 2 24l1 52q0 27 1 40q0 37 1 55l1 29q1 9 1 28l2 95l3 85q1 11 1 32v72q-7 -152 -10 -342l-5 -170h2zM429 623l-15 -31l-11 -22q23 21 26 53zM451 604q-15 -33 -19 -40l2 -1
q14 14 17 41zM484.5 208.5q6.5 31.5 5.5 70.5q-4 -62 -30 -130q18 28 24.5 59.5zM503 218q-8 -26 -26 -76q26 32 26 76zM525.5 167q6.5 20 4.5 30l-19 -57q8 7 14.5 27zM155 193q-7 -21 -7 -36l1 -11zM143 168q-3 -10 -3 -21q0 -8 2 -22z" />
    <glyph glyph-name="C" unicode="C" horiz-adv-x="444" 
d="M78 46q-19 18 -34 44q-17 30 -31 89q-7 30 -11 73q-2 23 -2 67q1 19 5 62q0 18 3 34l6 35q24 120 55.5 202.5t90.5 151.5l13 15q16 20 56 50q24 15 43 23q18 5 33 5q18 0 36 -6q65 -20 85 -91q6 -17 6 -44q0 -30 -6 -60t-17 -70q-11 -36 -25 -67q-3 -5 -5.5 -9t-4.5 -7
h-6q-6 4 -9 7q2 12 4 16q15 44 32 114q11 51 11 84q0 43 -19 73q-14 21 -28 27q-13 5 -25 5t-26 -6q-28 -14 -54 -47q-20 -26 -43 -62q-25 -39 -47 -86q-5 -11 -25 -58l-9 -24q-21 -57 -38 -131l-7 -30l-5 -30q-3 -17 -7 -58q-2 -16 -2.5 -28t-0.5 -20q-1 -8 -1 -25
q0 -20 4 -64q5 -56 21 -99q14 -34 37 -57q21 -21 58 -21q30 0 57 15q47 27 101.5 112.5t97.5 172.5q2 2 5 2q5 0 11.5 -3.5t5.5 -5.5q-122 -239 -193 -290q-17 -12 -41.5 -19.5t-48.5 -7.5q-22 0 -43 8q-42 18 -63 39zM42 407l6 30q23 113 69 221q38 89 94 159l1 2l-1 2
l-4 -5q-37 -43 -54 -72q-31 -52 -60 -130q-33 -85 -50 -186q-2 -18 -4 -27l2 -1zM71 414l2 6q2 16 4 22q14 61 31 112q17 54 40 104q33 76 91 153l1 3l-1 1q-5 -7 -12 -15.5t-15 -19.5q-37 -49 -65 -114q-27 -62 -43 -111q-16 -54 -26 -101q-6 -26 -8 -40h1zM15 295l1 4
q0 13 2 39q2 47 15 113q21 104 62 203q36 86 78 142l3 6q-3 -1 -3 -2q-30 -35 -47 -68q-16 -30 -36 -75q-40 -94 -59 -189q-10 -50 -13 -89q-2 -16 -4 -50q-1 -11 -0.5 -19.5t0.5 -14.5h1z" />
    <glyph glyph-name="D" unicode="D" horiz-adv-x="651" 
d="M282 -21q-36 0 -66.5 16.5t-47.5 46.5t-15 69q0 48 18 85q20 40 33 59q14 21 37 22l5 1q3 0 6.5 -2t5.5 -3q3 -6 -5 -8q-12 -2 -21 -18q-29 -48 -33 -97q-2 -18 -2 -27q0 -7 2 -23q3 -19 6.5 -31t11.5 -22q27 -35 61 -35q25 0 48 20q44 38 69 96q19 42 29 83q14 55 19 92
l8 57q6 45 7.5 62t2 55.5t0.5 67.5q0 95 -20 179t-57 86q-23 2 -55 -11q-35 -15 -64 -55q-50 -71 -85 -180q-13 -42 -31 -103q-3 -11 -10 -43l-9 -39q-6 -29 -20 -87l-3 -21l-9 -84q0 -7 -2 -21l-3 -21q-1 -18 -7 -38t-7 -25q-1 -3 -7 -20l-6 -10q-2 5 -1.5 12t-0.5 11
l-6 -22l-3 4q-2 -4 -4 -6l-13 2l2 34l9 77q6 39 10 117q1 8 0.5 14t-0.5 10l-15 -123q-5 -42 -13 -126q-3 1 -7 1q-2 8 -2 12q-1 58 8 122q8 56 10 122l2 151q0 24 -2 36q0 -48 -1 -72l-3 -84q-3 -77 -16 -176q-6 -39 -4 -86v-23q-3 2 -5.5 3.5t-4.5 2.5q-2 20 -4 30
q-1 8 -1 24q0 23 3 45q3 23 7 64l4 35l6 117q1 32 1 96v63l1 73l-8 224v7q0 11 1 17q2 11 12 15l7 2l-2 -19h1l9 18h10l3 -10l4 8l8 -3q11 -8 17.5 -15.5t9.5 -17.5q11 -37 13 -142l1 -33q1 -15 2 -40t1 -45v-124l2 -1l8 30q30 122 74 211q28 56 56 89q33 39 80 54
q17 5 32 5q67 0 116 -61q16 -20 30 -53q9 -21 18.5 -59.5t14.5 -72.5q4 -32 5 -49q2 -70 2 -88q0 -64 -10 -123q-3 -24 -11 -72q-12 -64 -29 -114q-25 -67 -68 -108q-30 -30 -58.5 -44t-74.5 -18q-6 -1 -17 -1zM226 718q-11 -14 -34 -66.5t-22 -62.5q23 62 56 129zM134 500
q6 23 20 67q7 23 23 67h-2q-40 -105 -58 -203zM165 575l-2 1q-8 -24 -22 -74l2 -1zM463 290q15 82 15 130q0 15 -1 20q-12 -134 -43 -259q14 27 29 109zM480 257q15 69 12 91l-39 -179q12 19 27 88zM511.5 240q7.5 37 11.5 84l-33 -157q14 36 21.5 73zM81 147.5
q2 24.5 3 33.5q-10 -49 -13 -77q8 19 10 43.5zM179 168q-7 -14 -7 -43q0 -12 1 -16zM190 126q2 12 4 32h-2q-2 -20 -4 -32h2zM163 110q0 15 1 25.5t2 18.5q-5 -12 -5 -39q0 -23 4 -31q-2 16 -2 26z" />
    <glyph glyph-name="E" unicode="E" horiz-adv-x="567" 
d="M573 325q5 0 11.5 -3.5t5.5 -5.5q-44 -86 -97 -166.5t-96 -113.5q-67 -51 -147 -51q-63 0 -120.5 31t-92.5 84.5t-35 117.5q0 11 2 31q6 45 38 106.5t66 90.5q25 22 49 35q33 18 70 27q1 0 7 2l-39 33q-27 25 -44.5 71t-17.5 89q0 36 19 78t48 68q24 23 54.5 35t63.5 12
q20 0 36 -4q37 -7 70 -23q18 -9 27 -27.5t9 -43.5q0 -45 -27 -94.5t-71 -77.5q-10 -7 -16 -7q-5 0 -6 6.5t-1 12.5l7 9q24 23 44 50q33 46 33 86q0 19 -6 35q-5 13 -15 22q-8 9 -22 10q-43 3 -90 -24q-36 -21 -57 -56q-20 -35 -25 -61q-2 -18 -2 -26q0 -40 18 -83
q14 -34 32 -53q18 -20 43 -27q11 -3 44 -10q15 -4 15 -20q0 -10 -2 -17q-7 0 -10 1q-7 1 -20 1q-24 0 -48 -9q-63 -27 -98.5 -54.5t-58.5 -69.5q-17 -32 -27 -59.5t-16 -62.5q-2 -16 -2 -24q0 -48 27.5 -89.5t72.5 -65.5t94 -24q55 0 99 31q46 32 105.5 118.5t93.5 156.5
q2 2 5 2zM154 739q16 46 53 95q-45 -41 -53 -95zM228 829q-34 -24 -47 -69q19 33 47 69zM209 751q4 6 38 56q-28 -23 -38 -56zM406.5 711.5q-2.5 -4.5 -4.5 -8.5q7 7 12.5 18.5t6.5 19.5l-9 -19q-3 -6 -5.5 -10.5zM415.5 704.5q7.5 12.5 7.5 17.5l-24 -37q9 7 16.5 19.5z
M18 198q0 41 20 103q12 38 46 96q-4 -4 -10 -14q-31 -45 -46 -94q-12 -38 -13 -71q0 -14 1 -20h2zM43 253q4 15 11 34q7 22 22 54q8 17 15 29.5t12 21.5q-59 -73 -66 -161zM74 256q15 53 45 103q1 1 1 2.5t1 2.5q-19 -21 -37 -66t-17 -71q3 17 7 29z" />
    <glyph glyph-name="F" unicode="F" horiz-adv-x="737" 
d="M252 4q0 1 -2 9l-4 -5q-5 0 -9 6q-11 2 -13 10q-2 5 -4 17l-2 11v5l1 26q1 6 2 15t1 21q2 20 4 56q1 25 1 75l-1 54q-1 28 -1 84v5q-6 -1 -11 -4q-78 -36 -116 -57l-3 -2q-4 2 -6 2l-7 12l9 9q11 11 26.5 20.5t21.5 13.5q47 27 80 40l7 3q1 28 1 85q0 81 -5 186
q-6 -2 -7 -2q-35 -16 -85 -26q-4 -1 -20 -3t-29 -1q-29 0 -52 17q-9 6 -15.5 17t-8.5 15q-5 9 -5 21q0 16 13 31q9 10 26 17q3 1 8 1q7 0 14 -4q5 -3 5 -8q-32 -25 -29 -59q10 -2 14 -2q25 -1 58 9q31 9 70 26l174 85l46 20l24 9q7 3 31 11.5t45 13.5q40 10 72 10h6
q13 0 26 -5q25 -11 32 -36q2 -6 2 -19v-3q0 -5 -2.5 -7t-9.5 -4l-7 6q-1 7 -5 19q-2 1 -7 1q-20 0 -43 -5q-42 -11 -111 -36l-19 -8l-38 -16q-27 -12 -54 -27q-31 -15 -55 -28l-7 -4l5 -4q8 -5 11 -17q3 -14 5 -43q0 -19 2 -61l1 -32v-116l23 4l102 18q4 1 13 1l5 1
q10 0 18 -10q0 -4 1 -7q-4 -2 -6 -2q-36 -5 -85 -19l-70 -19q-1 -3 -1 -9v-62v-31l1 -138q0 -11 -2 -29l-4 -60q0 -7 -1 -20.5t-2 -22.5q-3 -15 -13 -43l-4 -5q-1 -1 -4 -1q0 6 3.5 18.5t1.5 20.5l-5 -19l-6 -20l-2 3l-4 -3zM243 515h-1v-51l-1 -14q0 -5 2 -11v76zM242 327
v70h-1v-70h1zM239 99q1 12 3 42t2 55q0 15 -2 43v-9q0 -28 -1 -41q-2 -44 -4 -64l-4 -57v-5q0 -5 2 -13q2 34 4 49z" />
    <glyph glyph-name="G" unicode="G" horiz-adv-x="565" 
d="M289 -190q-41 0 -79 24q-3 2 -13.5 8.5t-17.5 15.5q-16 18 -22 44q-5 23 -5 40q0 39 20 79q14 26 25 36q31 28 69 32q16 2 47 2q10 0 15 -2q7 -2 8.5 -5.5t0.5 -10.5q-6 -2 -7 -2l-6 3q-5 2 -7 4q-54 2 -90 -32q-13 -13 -23 -35q-14 -28 -14 -63q0 -18 5 -41
q6 -29 25 -48q17 -17 39 -17q12 0 21 4q11 5 23 15q18 18 29 36q5 8 11 19t13 25q3 7 6.5 17.5l5.5 16.5q7 26 11 44l6 43l4 51l-1 24q0 15 -2 43q0 15 -1 22l-1 22q-3 27 -3 54q-1 11 -1 32l-2 10l-2 -2q-14 -28 -34 -54q-32 -41 -43 -52q-19 -21 -39 -35q-23 -15 -62 -20
q-6 -1 -16 -1q-23 0 -55 9q-32 10 -53 26q-18 13 -31 35q-20 36 -28 69q-2 7 -4 18.5t-4 19.5q-3 10 -4 24t-2 22q-1 11 -0.5 20t0.5 15l6 53q4 25 12 53q5 23 21 67q10 28 16 42l8 21l12 27l9 20q4 7 7.5 15t8.5 16q18 30 32 48q29 38 51 59q24 24 46 37q35 23 66 28
q16 2 23 2q33 0 69 -18q32 -16 49 -37q19 -21 24 -41q4 -11 4 -24q0 -5 -2 -19l-7 -30q-4 -14 -20 -36l-4 -3l-7 2l-3 4q-7 5 -5 17l9 54l1 13q0 24 -10 44q-4 6 -7 9q-25 23 -57 23q-29 0 -62 -21q-40 -23 -78 -73q-23 -29 -38 -57q-17 -30 -30 -60q-16 -36 -30 -72
q-6 -15 -9.5 -26.5t-5.5 -18.5l-6 -20q-10 -32 -15 -69q-4 -21 -4 -49q0 -27 4 -50q1 -6 2 -15t4 -21q6 -31 21 -62q10 -22 18 -31q28 -30 60 -30q22 0 45 16q37 28 64 64t43 66q8 13 20 41l14 31q7 19 7 50q0 24 7 42l2 15v8q3 -3 6.5 -1.5t5.5 1.5q14 -3 17 -14
q0 -7 1 -11q10 -10 15 -23t9 -32q3 -15 5 -46l2 -53q1 -20 5 -60l2 -46q2 -17 4 -53q0 -8 2 -26q2 -34 1 -51q0 -6 -1 -26.5t-4 -37.5l-5 -39q-8 -38 -21 -72q-9 -23 -23 -47q-11 -19 -29 -37q-17 -15 -30 -21q-16 -9 -33 -11q-18 -2 -26 -2zM17 394l2 34q5 51 26 119
q28 87 67 162q38 70 93 126q4 3 7 7q-1 0 -1 1q-2 -2 -3 -2q-18 -16 -50 -52q-42 -52 -73 -122q-27 -64 -43 -114q-12 -42 -16 -63q-8 -29 -10 -66v-33q1 1 1 3zM61 541q28 84 60 148q41 81 109 147l3 4q-12 -7 -30 -25q-46 -46 -80 -112q-40 -82 -65 -165v-3zM133 652
q10 18 14 27l14 27q37 63 85 111l4 4q-1 0 -5 -2q-25 -20 -54 -60q-22 -29 -42 -70l-21 -42l2 -1zM112 603q4 8 10 24q0 1 -0.5 1h-0.5l-10 -25h1zM363 -82l3 7q23 41 29 87q2 11 7 59q1 4 1 13q1 4 1 13v12q-9 -114 -43 -192zM400 -43.5q12 35.5 11 55.5q-9 -37 -37 -107
q14 16 26 51.5zM180 1q-10 -20 -9 -36zM168 -7q-10 -21 -8 -46zM426 -53.5q11 31.5 9 39.5q-3 -9 -23 -64l-9 -24q12 17 23 48.5z" />
    <glyph glyph-name="H" unicode="H" horiz-adv-x="593" 
d="M135.5 5.5q-3.5 -0.5 -4.5 -0.5q-9 0 -16 9q-33 39 -44 131l-3 21t-2 11q-3 22 -7 61q-6 64 -10 152l-1 7l-37 -11l-6 5l-5 13q1 5 5 8.5t8 5.5l25 12l10 5v5q0 29 1 43l1 50l2 36l5 54l3 30q0 8 8 56l5 26q7 35 10 47l29 106q4 12 13 14l12 1h10q0 -5 -1 -8
q-24 -94 -38 -158q-6 -28 -8 -42l-4 -21l-6 -33q-2 -10 -2 -15q-2 -25 -4 -79q-2 -40 -2 -60l-1 -30v-4t2 -5q2 4 2 6v21q2 93 8 159q6 53 18 104q20 86 31 129q1 8 5.5 18.5t6.5 15.5q7 0 17 -8l1 -6l6 2q5 -5 3 -13q-3 -13 -7 -39q-5 -31 -12 -58q-8 -31 -20 -95
q-2 -10 -3.5 -23.5t-2.5 -20.5l-3 -23q-4 -32 -6 -96q-1 -17 -1 -51v-8l15 2q52 11 89 12q13 1 39 1q32 0 47 -2l51 -7q3 -1 10 -1v8l2 98q2 20 5 52.5t6 56.5q4 31 10 57q1 6 3 15t4 21q3 15 8 37q1 6 5 16q5 9 16 9l1 -4q0 -3 -4 -11q-1 -3 -3 -6t-3 -8l-5 -24
q-4 -19 -10 -55q-6 -30 -9 -60l-9 -76q-3 -27 -3 -81v-41v-6q3 0 5 -1v68q0 47 8 100q8 70 14 105q4 21 11 53q3 10 7 30q1 6 7 18h13q-2 -8 -5.5 -19t-6.5 -25q-4 -15 -6 -26.5t-3 -18.5l-6 -45l5 26q7 37 13 61t16 47q5 -2 15 -4q-2 -8 -2 -10q2 2 4 6q1 -1 1 -4t-2 -9
q-2 -4 -4 -12l-6 -28q0 -3 -2 -13l-1 -14q2 7 4 19l5 20l6 18q1 4 3 8.5t4 10.5q5 -3 5 -11q-4 -13 -5 -17q-9 -47 -17 -104l-5 -36l-5 -45q-5 -43 -5 -77q0 -44 10 -267.5t13 -225.5q-2 -8 -4 -22q0 -3 -1 -5l-2 -4l-15 -5l-3 6l-2 -4h-2q-12 0 -19 13q-14 24 -19 45
q-12 40 -17 91q-2 26 -7 111q-9 128 -9 139q-1 6 -0.5 11.5t0.5 9.5q-54 3 -105 3q-68 0 -148 -15v-28q1 -24 5 -74q6 -94 22 -185q10 -58 10 -86q0 -9 -2 -23l-3 -12q-2 -2 -4 -2t-3 -1q-5 -3 -10 -2q-2 2 -5.5 1.5zM153 791l-2 1q-12 -41 -20 -95zM429 696
q-15 -82 -15 -133zM120 608l5 44l-2 1q-5 -18 -5 -33q0 -8 1 -12h1zM119 598q-2 -7 -4 -42.5t-2 -67.5q0 -24 1 -28q1 46 5 138zM438 28q1 0 1 1q0 3 -2 7q-13 42 -18 86q-6 53 -14 152l-3 58l-4 81q-1 3 -1 11q0 1 -3 4l-2 -6l1 -31l2 -35q2 -46 4 -69q5 -75 12 -150
q3 -39 17 -81q7 -22 10 -28v0zM155 46q0 6 -2 18q-11 50 -19 107q-8 52 -14 152l-5 86l-1 5h-2l-1 -6q1 -11 1 -34l10 -146q3 -37 15 -104q14 -66 16 -99q2 14 2 21zM134 29q-2 4 -2 8q-25 88 -35 207q-5 52 -11 156l-1 7q-4 0 -4 -4q0 -17 2 -53l2 -31q2 -22 4 -62
q5 -66 16 -121q6 -30 25 -101q0 -3 2 -7zM453 24q-9 50 -14 82q-6 40 -9 82q-3 28 -7 91q-4 53 -5 77q-1 0 -1 -0.5v-0.5q0 -3 -0.5 -6.5t0.5 -8.5l7 -144q1 -9 2 -23.5t4 -33.5q5 -33 19 -107l3 -12zM471 38q0 4 0.5 12t-0.5 14l-7 58l-7 85q-3 29 -7 92q0 1 -2 3
q2 -46 4 -71q4 -64 7 -96q2 -22 4 -33q1 -8 3 -29t2 -38l2 -3z" />
    <glyph glyph-name="I" unicode="I" horiz-adv-x="418" 
d="M3 -7.5q-2 5.5 -3 8.5q2 6 11 11q43 21 76 27q41 8 59 10h6q0 2 -1 5.5t-2 5.5q-4 8 -5 20t-2 17l-5 64l-3 31l-2 47l-3 88q0 131 10 301q3 53 3 78l-1 52l-1 24l1 25q0 8 1 14t2 11q1 4 2 10t2 13q-31 -1 -64.5 -6t-40.5 -6l-36 -6q-7 4 -7 13l9 5q43 16 93 22
q52 6 157 8q29 0 58 -4t70 -12l3 -1l8 -11v-9q-3 -2 -7 -2h-5l-50 6q-41 7 -94 5h-41l-7 -1l3 -8l12 -48q6 -28 6 -56q1 -16 1 -48q0 -19 -2 -55l-2 -40q-8 -99 -8 -258l1 -50q0 -19 2 -57l1 -104q1 -13 1 -30q0 -24 -7 -48v-5q6 -2 9 -2q23 -2 92 -16q13 -1 22 -15
q2 -2 2 -5q0 -4 1 -7q-3 -4 -10 -4h-31l-93 8q-9 1 -27 1q-26 0 -56 -5l-85 -16l-16 -3q-5 2 -7 7.5zM155 792l5 63q-4 -5 -4.5 -11t-0.5 -9l-1 -22v-21h1zM148 237v5l-1 56l-1 80q2 102 4 153q2 46 4 68l2 32l1 23q2 30 2 45q0 19 -1 28v5q-2 -1 -2 -5v-33q-2 -26 -2 -38
q-2 -22 -2 -33l-4 -56q-2 -44 -2 -65l-3 -89q0 -31 2 -95q0 -27 2 -81h1z" />
    <glyph glyph-name="J" unicode="J" horiz-adv-x="448" 
d="M148 799q-9 0 -21 5l-4 3q-1 4 -4 10t-3 11q2 16 15 20q12 4 18 4q7 0 13 -3q8 -3 12 -9.5t3 -14.5q0 -14 -6.5 -19.5t-18.5 -6.5h-4zM33.5 -410q-15.5 24 -25.5 63q-8 29 -8 65q0 17 4 53q7 51 36 117q23 52 62 100q43 52 74 81l36 33l6 5q-2 20 -2 28q0 90 -14.5 227.5
t-33.5 231.5l-6 37q-1 8 -5.5 30t-5.5 38v2q0 9 10 12q2 -2 5 -3q0 2 3 5q4 0 6 1l5 -5l3 4h3q4 0 9.5 -4t8.5 -4l2 -2l9 -18l13 -30q10 -25 27 -125t19 -138l3 -54l6 -71q2 -24 4.5 -58.5t2.5 -36.5q48 24 86.5 57.5t72.5 91.5q10 2 14 2q12 0 8 -9q-35 -60 -70.5 -92
t-79.5 -61q-6 -3 -22 -14l-7 -6l2 -42q2 -34 2 -52q0 -64 -4 -124q-3 -50 -12 -99q-7 -31 -14 -73q-5 -31 -9.5 -48.5t-16.5 -48.5q-12 -32 -34.5 -54t-51.5 -34q-22 -11 -50 -11q-14 0 -29 3q-26 6 -41.5 30zM233.5 129q0.5 5 -0.5 12l-4 66l-6 74l-3 44l-5 80l-2 18h-2
l20 -291l1 -10l1 -1q0 3 0.5 8zM211 -241q6 46 11 68q13 69 15 158v31v62l-1 9h-2l-1 -5v-19q1 -15 1 -45q-2 -48 -4 -74q-1 -25 -7 -75l-3 -22q-6 -34 -8 -47q-4 -21 -5 -34q-7 -44 -13 -70q8 22 17 63zM188.5 -265.5q14.5 80.5 26.5 189.5q5 52 5 111q0 27 -1 38
q-8 -5 -30.5 -30t-38.5 -43q-31 -35 -53 -72q-30 -51 -49 -111q-18 -61 -15 -108q4 -56 20.5 -90t41.5 -34q27 0 59 42q20 27 34.5 107.5zM211 -313q37 127 43 275h-2v-7l-3 -24q-2 -27 -6 -52q-1 -5 -9 -59q-3 -14 -7 -40l-6 -31q-4 -30 -12 -60v-2h2zM279 -82
q-1 -9 -27 -169l-8 -46q27 100 35 215zM22 -222l7 36q4 15 5 20q-23 -64 -20 -110q6 42 8 54zM8 -287q0 18 1 27q0 4 6 53q-10 -40 -10 -71q0 -19 3 -35v26zM194 -305q-1 -1 -1 -3z" />
    <glyph glyph-name="K" unicode="K" horiz-adv-x="585" 
d="M352 19.5q-32 19.5 -53 47.5q-13 21 -24 42q-19 42 -32.5 90.5t-18.5 91.5q-2 19 -7.5 54t-7.5 35q0 10 -25 -60.5t-30 -92.5l-13 -55l-20 -88l-5 -39q-2 -18 -5 -26q-2 -9 -9 -11q-27 -4 -39 17.5t-17 63.5l-2 22l-6 107l-4 51l-4 65l-3 63q-4 146 -7 169l-9 100l-7 68
q-2 42 -2 51q-2 36 -2 42q0 20 5 36q3 10 12 13l3 -2q5 3 11 4l4 -5l3 3h1q4 0 9 -4.5t8 -4.5q6 -8 10 -28q5 -20 7 -42t2 -27q2 -26 4 -41l6 -61q3 -26 7 -78l4 -36l3 -51q1 -46 8 -210l2 -31q0 -6 3 -12q23 106 42 158q16 42 25 63q12 28 38 82l18 36q21 43 39 96t24 92
q1 4 2 12.5t1 15.5t-1 11q-1 18 -5.5 32t-16.5 44q0 6 13 6q16 0 27 -14l15 -24q11 -17 13 -19q10 -13 13 -32t3 -40q0 -41 -13 -86t-42 -113q-13 -28 -51 -96l-15 -29q11 -12 15.5 -19t7.5 -14q4 -9 12 -33t13 -45l11 -55q3 -15 7 -38q15 -73 25 -112t24 -63q9 -16 18 -27
t22 -18q3 -2 9 -2q18 0 33 36q10 24 17 58l11 71q0 4 1 7t2 5l12 1l4 -4l-1 -8l-5 -67q-4 -47 -21.5 -82.5t-47.5 -35.5q-26 0 -58 19.5zM18 859.5q1 4.5 -1 6.5q-2 -6 -2 -13v-10q2 12 3 16.5zM258 604l10 21l21 51q20 54 23 84q2 16 2 25q0 8 -1 12q-4 -45 -17.5 -88.5
t-38.5 -104.5h1zM270 586q19 38 37 87q11 27 15 55q1 4 2 10t1 9h-1l-9 -28q-3 -9 -8 -26t-10 -30q-7 -23 -31 -83q2 2 4 6zM348 731q-24 -86 -45 -139q38 79 45 139zM460 118l-8 -36q6 14 8 36zM465 110q-9 -33 -11 -44q10 22 11 44z" />
    <glyph glyph-name="L" unicode="L" horiz-adv-x="243" 
d="M11 -65q-1 5 -3.5 11t-3.5 10q-3 14 -3 36v29l-1 76l1 53v112q0 17 2 53q2 24 2 35l2 46q4 107 6 125l1 32q2 92 7 149q5 79 3 95l-1 27q0 26 2 39q1 7 7 12.5t14 6.5l3 -4q6 3 16 0t18 -7t10 -6q9 -17 11 -42l3 -42q0 -28 -11 -290l-2 -63q-8 -200 -8 -249v-83l-1 -120
q0 -4 -2 -20q8 2 27 4l24 3q32 5 55 5q12 0 18 -1q29 -3 57 -3l58 1h6q12 0 21 -14q5 -10 4 -21q-7 -7 -15 -3q-2 1 -7 1l-90 -8q-17 -2 -50 -2q-8 -1 -25 -1l-141 -4q-13 11 -14 22zM26.5 -56q-0.5 3 -0.5 4q-5 21 -5 51v90q0 81 4 239q1 49 5 147q1 31 5 86v91
q-2 -2 -2 -72q0 -10 -2 -26l-5 -73l-3 -65q-4 -70 -5 -104l-2 -95q-1 -17 -1 -51l1 -101v-89q0 -14 7 -37q4 2 3.5 5zM42 -53v65v136q0 135 2 203q-2 -8 -2 -11q0 -35 -1 -61t-2 -44q-4 -72 -4 -106l1 -139q0 -22 1 -34l1 -10zM74 -6v281q-5 -72 -5 -175q0 -81 1 -122
q2 0 2 -1q2 12 2 17z" />
    <glyph glyph-name="M" unicode="M" horiz-adv-x="932" 
d="M685.5 -130q-28.5 27 -39.5 75.5t-14 124.5q-2 38 12 165l11 82q8 48 13.5 86t10.5 85q6 52 6 112q0 64 -8 88q-1 3 -3 7t-3 10q-20 0 -44.5 -23t-46.5 -57q-36 -54 -60 -105q-13 -28 -29 -68q-15 -39 -29 -81q-12 -35 -21 -89q-2 -20 -8 -50q-3 -16 -3 -32q0 -15 1 -22
q4 -34 4 -52q0 -8 -2 -26l-4 -19q-2 -3 -5 -4.5t-4 -2.5v14q-2 0 -2 1q-2 -10 -4 -14q-2 0 -4 -0.5t-4 0.5q-3 0 -5 1l-4 2l-3 8l-4 -5l-11 7q-10 1 -15 14q-8 39 -10 61q-2 19 -2 66q0 75 7 159q2 27 8 73l5 39l10 64l44 260q1 10 2 24t1 33q0 14 -3 26q0 4 -3 7q-3 2 -8 2
q-4 0 -10 -2q-13 -3 -24 -12q-22 -18 -40 -44q-31 -44 -63 -119q-28 -65 -60 -164l-7 -21q-16 -50 -20 -65q-6 -21 -16 -63l-6 -24l-17 -72l-21 -101q-7 -36 -29 -106l-16 -55q-2 -8 -2 -13t1 -8q3 -13 -7 -13q-8 0 -34 11q-26 18 -26 128l-4 149l-2 57l-1 39q-2 67 -3 73
q-3 38 -7 109q-1 17 -1 50q0 19 4 55q0 11 9 12l3 -3q1 1 3 2.5t3.5 1.5t3.5 -2q8 0 11 -1q11 -5 16 -13q4 -8 7 -11q6 -8 9 -21q7 -29 9 -62q2 -55 5 -81l2 -29q0 -9 2 -29l5 -150q1 -9 1 -27v-27l1 -27q1 -10 1 -28q0 -3 2 -5q1 1 1 3t1 3l5 25q9 51 17 79q10 47 37 158
q6 24 15.5 55.5t13.5 45.5q5 14 13 42q18 54 45 122q36 80 56 114q22 38 44 62q10 11 28 22q14 8 28 8q10 0 19 -3q33 -8 57 -40q20 -29 20 -91q0 -46 -8.5 -101.5t-22.5 -124.5q-13 -70 -15 -88q-2 -22 -8 -58v-8q27 71 40.5 102.5t26.5 53.5q32 56 44 75q39 58 72 70
q13 5 23 5q56 4 84 -33t28 -108q0 -29 -2 -87q-2 -40 -5 -60l-3 -22q-11 -65 -14 -93l-18 -135q-8 -59 -8 -111q0 -53 2 -80t6 -52q6 -34 19.5 -60.5t29.5 -17.5q17 10 25 31q18 35 34 88l24 81q23 81 42 141t40 105q3 0 11 -2t11 -5q-39 -86 -58 -148.5t-38 -145.5
q-10 -45 -17.5 -74t-18.5 -57q-10 -21 -30 -36q-12 -9 -26 -9q-53 -3 -81.5 24zM131 301q2 12 8 36l8 31q31 132 53 201q47 149 95 241q0 3 1 5q-3 -3 -5 -7l-24 -49q-44 -101 -89 -256q-15 -51 -36 -145l-8 -34q-2 -7 -4 -23h1zM370 174.5v0.5l-1 45l2 50q0 39 3 76
q1 18 4 40.5t4 31.5l3 26q1 28 8 65l10 65q3 18 10 65q3 27 11 68l9 57l2 8q-2 -4 -5 -17q-2 -14 -8 -50l-15 -83q-10 -60 -16 -90q-4 -20 -8 -64q-8 -53 -10 -83l-6 -91q-2 -32 -2 -48q0 -13 2 -41l2 -31q1 0 1 0.5zM220 654v0.5t-1 0.5l-7.5 -22.5t-10.5 -29.5l2 -1
q10 29 17 52zM651 20l-1 41q0 69 9 136q1 7 12 92q4 23 5 31l5 35q8 47 12 89q11 69 9 156v6h-1q-1 -2 -1 -5l-3 -73q-2 -37 -8 -78t-7 -50q-3 -23 -11 -69q-2 -17 -8 -56.5t-9 -71.5q-1 -8 -3 -30t-2 -40q-1 -24 -1 -72q0 -14 2 -48q1 3 1 7zM673 167q5 32 13 96
q3 28 14 98q9 51 11 71q4 41 5 58l-1 1q-3 -24 -8 -57q-9 -52 -20 -136l-5 -36q-4 -29 -10 -87q-1 -9 -1 -27q0 7 2 19zM165 476q-8 -21 -11 -45zM719 287q16 104 21 156l-6 -38q-20 -126 -27 -194zM143 386l7 28h-1q-3 -10 -7 -28h1zM863 70l7 28q-13 -39 -20 -68
q-13 -52 -28 -93q20 49 41 133z" />
    <glyph glyph-name="N" unicode="N" horiz-adv-x="723" 
d="M479 -114q-35 0 -64.5 26t-46.5 69t-17 93q0 10 -0.5 24t0.5 32l5 93l13 133l16 140q18 145 23 227v8l-1 29q-1 26 -10 61q-3 13 -7 19t-10 6q-8 0 -27 -17q-21 -18 -39 -48q-26 -43 -55 -113q-26 -63 -65 -187q-8 -25 -16.5 -59t-13.5 -51l-10 -40l-26 -109l-45 -182
q-2 -9 -4.5 -16t-4.5 -14v-7q0 -9 -6 -14q-3 1 -4 4l-2 -4q-5 -2 -11 -2t-10 4l-7 -1q-3 0 -7 4l-4 -1q-8 0 -11 10q-11 39 -11 82q0 14 2 52l3 79l3 89l2 116l5 150q1 26 2.5 37.5t1.5 16.5l-3 58l-4 55l-3 42q0 6 1 10q4 10 16 9l2 -14l8 15q4 -1 11 -1l3 -11q2 2 3 4l2 4
l13 -6l14 -13q4 -8 5 -12q7 -47 11 -116q0 -63 -2 -103l-3 -75v-37q0 -64 -1 -97l-3 -107l0.5 -0.5l1.5 -1.5q2 8 2 11l32 141q22 90 38 134l21 59q20 63 38 103q11 29 39 87q16 37 36 68q16 24 26 34q21 21 50 19q50 -3 78.5 -40t33.5 -101q2 -22 2 -36q0 -12 -2 -36
q-2 -32 -4 -48l-12 -105q-9 -83 -11 -97q-3 -21 -7 -63q-2 -28 -4 -43q-4 -42 -9 -108t-5 -87v-62q0 -40 4.5 -59t22.5 -49q15 -24 33 -24q8 0 15 4q32 22 55 61t71 144q30 65 89 188q8 10 18 10q7 0 7 -7q0 -4 -3 -10q-17 -31 -49 -104q-62 -136 -107.5 -220.5
t-79.5 -100.5q-17 -5 -31 -5zM92 141q12 58 32 142l16 71q35 157 108 335q33 80 65 128l1 3h-1q-4 -2 -6 -7q-18 -30 -26 -45q-38 -70 -72 -168q-34 -94 -52 -160q-48 -200 -69 -301v-5q1 1 4 7zM300 768q-10 -17 -26 -49q0 -1 1 -1q13 24 25 50zM384 -18q-13 48 -13 111
q0 16 2 48l1 46q2 32 4 50q3 24 7 67l6 66q5 42 13 126q4 28 10 86v8h-1l-1 -8l-17 -122l-4 -35q-6 -44 -8 -70q-6 -49 -9 -95l-6 -79q-3 -37 -3 -76t3 -66t12 -53l3 -6zM213 558l-2 1q-12 -34 -20 -61l2 -1q6 21 20 61zM24 13q-1 4 -1 11q-1 6 -2 14t-1 19q0 9 1 14
q2 10 2.5 17.5t0.5 12.5q0 32 2 98l4 111q2 62 2 187v28h-1q-1 -1 -1 -3q0 -22 -1 -33q0 -11 -1 -24.5t-2 -20.5q-2 -29 -2 -86v-34q0 -43 -4 -131l-2 -39q-2 -52 -4 -80q0 -24 5 -54q0 -2 1 -3.5t1 -3.5h3zM128 243l11 44l12 51l5 28l2 4l15 59q1 4 5 19q-2 -1 -4 -5
l-13 -55l-5 -22l-2 -7q-11 -36 -18 -72l-9 -37l-3 -15zM395 16q-4 50 -4 73q0 19 1 29l3 49q1 16 2 40.5t4 57.5q8 97 13 140q0 19 1 28q-3 -18 -3 -21q-12 -92 -17 -138l-3 -40q-1 -14 -2 -34.5t-4 -47.5q-1 -12 -1 -37q0 -42 4 -75q2 -20 6 -30v6zM426 0v15q-3 35 -3 68
q0 40 4 124q1 20 5 65l10 111q1 4 1 9q-4 -12 -8 -42q-2 -31 -6 -62l-3 -33q-2 -35 -8 -115q-1 -12 -1 -35q0 -42 7 -96q0 -6 1 -9h1zM40 31q0 2 -0.5 6t0.5 10l4 52q0 63 3 126q2 54 2 81q0 34 -1 51q0 5 -1 8h-1l-1 -37l-3 -150q-1 -37 -7 -109q-1 -14 -1 -41
q0 -1 0.5 -3.5t4.5 -4.5q1 4 1 11zM73 129q1 2 1 8q6 128 6 193h-3l-5 -201h1z" />
    <glyph glyph-name="O" unicode="O" horiz-adv-x="527" 
d="M164 6q-33 11 -62 30q-30 20 -52 53q-19 28 -29 66q-2 7 -6.5 29.5t-4.5 24.5q-6 44 -8 62q-1 14 -1 42q-1 15 -0.5 25.5t0.5 17.5v21q0 23 4 88.5t7 86.5q2 20 12 58q5 12 12.5 15.5t8.5 4.5q10 50 16 75q21 83 67.5 135t106.5 52q39 0 78 -23q41 -26 65 -52
q13 -14 33 -46q24 -37 40 -100q11 -43 14 -96q2 -26 2 -40l-1 -28q-1 -20 -5 -60q-2 -25 -6 -59.5t-7 -57.5q-15 -87 -50 -164q-28 -59 -57 -97q-28 -35 -53.5 -52.5t-59.5 -18.5q-31 -3 -64 8zM298 78q37 41 59 89q25 55 32 72q17 41 30 117q6 34 8 56q2 9 4 27q5 32 6 62
q1 11 1 33q0 55 -11 113q-14 65 -35 109q-29 59 -85 97q-31 21 -64 21q-40 0 -71 -29q-33 -32 -59 -87q-8 -17 -14.5 -39t-8.5 -28l-8 -24q-2 -8 -3.5 -15.5t-3.5 -15.5q8 -3 12 -12.5t4 -17.5q0 -11 -2 -33l-3 -46l-3 -40q-2 -36 -2 -79q0 -72 3.5 -142t9.5 -96
q8 -36 24 -69q17 -37 41 -55q25 -19 51 -19q21 0 43 12t45 39zM76 701q4 15 11 34l9 28q-8 -10 -22.5 -61t-13.5 -66q10 44 16 65zM77 736q-17 -46 -25 -101zM19 273l-1 70q1 50 7 152q5 67 15 110q0 4 1 7q-5 -4 -7 -11q-2 -9 -4.5 -21.5t-4.5 -27.5l-2 -30q-4 -46 -6 -94
q-2 -38 -2 -114q-1 -19 4 -47v6zM48 550q4 27 5 38q2 6 -3 7q-8 -59 -10 -127zM440 399l-5 -29q-1 -10 -5 -30q-8 -40 -13 -60q-3 -12 -8 -28l-9 -29q29 68 40 176z" />
    <glyph glyph-name="P" unicode="P" horiz-adv-x="536" 
d="M45 28l-15 44q-4 17 -5 29q-4 25 -10 67l-6 58q-4 41 -5 65q-2 44 -2 68q-2 28 -2 43l1 63l1 79v85l1 59l5 79q1 19 8 40q5 22 27 26q7 2 21 2q3 0 5.5 -1t4.5 -2v-8l5 5q4 -2 4 -8v-19l-1 -29q-2 -38 -2 -58l-2 -102l-1 -109q-1 -37 -1 -110l1 -55l2 -10q1 1 1 3l3 45
l10 79q2 17 8 59q3 20 11 60q6 33 15 66q15 57 39 111q41 98 102 132q31 17 61 17q33 0 68 -20q33 -19 54 -50q36 -60 49 -114q4 -17 10 -51q6 -31 6 -64q0 -41 -7 -77t-21 -73q-10 -26 -31 -57q-18 -26 -30 -39q-15 -16 -47 -40q-31 -21 -72 -21q-28 0 -49 6t-43 23
q-13 11 -16 15q-17 24 -17 55q0 11 1 17q6 32 13 48q7 15 16 20l1 2q10 12 24 12l8 -4q0 -3 -2 -9l-3 -5q-9 -8 -12.5 -18t-6.5 -26q-1 -6 -1 -18q0 -21 7 -39l9 -16q20 -35 48 -35q22 0 46 21q32 28 57 65q16 22 29 54q8 20 11 31l6 19q7 24 10 56q1 7 1 24q0 35 -5 81.5
t-11 70.5q-13 46 -34 83q-27 46 -55 46q-13 0 -25.5 -5.5t-27.5 -16.5q-30 -21 -51 -57q-35 -57 -62 -141q-19 -64 -32 -143q-6 -34 -16 -104q-3 -21 -7 -63l-6 -92q-2 -38 -2 -55l-1 -27l-6 -79v-47l-2 -22q0 -2 -11.5 -9.5t-21.5 -7.5q-14 0 -20 14q-2 3 -4 9zM73 790
l-1 6q0 5 1.5 11t0.5 10h-2q0 -9 -2 -27h3zM63 84l-6 46q-8 66 -11 100q-5 47 -5 86q-3 69 -3 139q0 44 2 132l-1 86q0 22 2 64q2 40 9 66q0 2 2 12q-7 -5 -9 -15q-1 -23 -5 -69q-1 -7 -2 -21t-1 -25l-2 -89q0 -56 -1 -83l-1 -85q0 -70 7 -170q7 -68 20 -153l4 -25q1 1 1 4z
M142.5 624.5q10.5 45.5 27.5 88.5q-39 -97 -51 -203q13 69 23.5 114.5zM129 611q7 32 27 94q-10 -16 -29 -93.5t-18 -98.5zM77 185v13l-6 62q-2 31 -4 93q-1 23 -1 70q0 64 1 96q0 49 1 74l-1 50v61h-2l-1 -35v-58q0 -39 -1 -59l-1 -72q-1 -24 -1 -70q0 -59 5 -131l9 -94h2z
M159 627q-14 -50 -22 -107zM461 589q0 20 -1 30q0 -78 -31 -163q32 61 32 133zM475 558q-9 -46 -33 -113q30 46 33 113zM490.5 489.5q8.5 31.5 8.5 47.5l-26 -90q9 11 17.5 42.5zM203 430q-4 -14 -4 -21q0 -8 3 -16zM192 417q-3 -9 -3 -19q0 -11 5 -24zM94 173v86l4 84
q-5 -37 -6 -82t-1 -88h3zM107 210v41h-1v-41h1z" />
    <glyph glyph-name="Q" unicode="Q" horiz-adv-x="527" 
d="M311 -12q-26 15 -29 18l-6 4q-26 -13 -60 -13q-54 0 -114 39q-30 20 -52 53q-19 28 -29 66q-13 45 -16.5 95t-3.5 127q0 23 4 88.5t7 86.5q2 20 12 58q5 13 17 18q2 0 4 2q10 50 16 75q21 83 67.5 135t106.5 52q39 0 78 -23q41 -26 65 -52q13 -14 33 -46q24 -37 40 -100
q11 -43 14 -96q2 -26 2 -40l-1 -28q-1 -20 -5 -60q-2 -25 -6 -59.5t-7 -57.5q-15 -87 -50 -164q-28 -59 -57 -97q-13 -18 -30 -33q5 -7 10 -12l9 -9q5 -5 11 -5l12 -2q6 -2 9 -7h4q2 -4 2 -6q0 -4 -2.5 -8t-6.5 -6q-6 -3 -12 -3q-20 0 -36 10zM227 75q-14 21 -19 39
q-4 11 -4 24q0 10 3 22q3 10 13 15q1 0 17 3l4 -2l4 1q2 0 11 -4q-1 -2 -1 -5q1 1 2.5 1t2.5 1q4 -3 2 -7q0 -3 -0.5 -8t0.5 -12q0 -23 8 -40q3 -8 6.5 -14t5.5 -10l7 -11l9 10q37 41 59 89q25 55 32 72q17 41 30 117q6 34 8 56q2 9 4 27q5 32 6 62q1 11 1 33q0 55 -11 113
q-14 65 -35 109q-29 59 -85 97q-31 21 -64 21q-40 0 -71 -29q-33 -32 -59 -87q-8 -17 -14.5 -39t-8.5 -28l-8 -24q-2 -8 -3.5 -15.5t-3.5 -15.5l7 -7q2 0 3 1l3 -10l2 -6t1 -8q0 -11 -2 -33l-3 -46l-3 -40l-4 -51l-1 -41q0 -82 9.5 -166.5t30.5 -127.5q17 -37 41 -55
q25 -19 50 -19q18 0 42 11q-21 32 -24 37zM76 701q4 15 11 34l9 28q-8 -10 -22.5 -61t-13.5 -66q10 44 16 65zM77 736q-17 -46 -25 -101zM19 273l-1 70q1 50 7 152q5 67 15 110q0 4 1 7q-5 -4 -7 -11q-2 -9 -4.5 -21.5t-4.5 -27.5l-2 -30q-4 -46 -6 -94q-2 -38 -2 -114
q-1 -19 4 -47v6zM48 550q4 27 5 38q2 6 -3 7q-8 -59 -10 -127zM440 399l-5 -29q-1 -10 -5 -30q-8 -40 -13 -60q-3 -12 -8 -28l-9 -29q29 68 40 176zM222 163q-4 -4 -5.5 -10.5t0.5 -11.5z" />
    <glyph glyph-name="R" unicode="R" horiz-adv-x="591" 
d="M382 -75q-9 15 -19 43l-17 53l-7 27q-19 85 -28 105q-15 40 -33 58q-12 13 -33 27q-4 3 -13 5q-8 2 -13 2q-7 1 -9 4t-1 10q2 23 10 41q6 15 10.5 27.5t7.5 21.5v3q-4 -9 -19 -46q-12 -32 -16 -40q-11 3 -8 13l23 65q7 19 27 53l21 35q10 16 31 50.5t30 50.5
q3 5 17.5 30.5t28.5 59.5q13 27 23 64q4 13 7 32q4 20 5 30q3 33 3 59q0 37 -8 55.5t-27 18.5q-7 0 -11 -1q-31 -9 -53.5 -26t-44.5 -46q-51 -70 -81 -163q-12 -31 -15.5 -45.5t-9.5 -53.5l-8 -52q-3 -21 -7 -58q-4 -33 -5 -52q-2 -18 -4 -54q-1 -13 -1 -41q-1 -15 -1 -44
l1 -27l5 -88l7 -122q0 -17 -11 -23q-2 4 -4 6l-3 -5q-1 0 -9 1t-12 8q-5 0 -8 1t-7 5q-11 1 -16 12q-14 34 -19.5 53t-15.5 70q-3 12 -7 36l-8 46l-17 131q-2 15 -4 45l-4 51l-1 51q-1 12 -1 56l1 38l1 28q5 50 6 83q4 50 6.5 67.5t11.5 26.5q7 7 14 8q4 0 12 2l4 -5l4 4h1
q4 0 9.5 -4t8.5 -5q6 -7 6 -18q0 -6 0.5 -15t-0.5 -22q0 -19 -2 -59q0 -10 -2 -32l-1 -16l-2 -124q0 -37 1 -55l3 -43l4 -48q4 -32 7 -48q0 7 2 25l5 72q2 14 2 21q8 70 14.5 110.5t18.5 88.5q21 75 50 135q46 90 92 124q42 33 91 33q46 0 79 -30q18 -16 29 -46
q10 -26 10 -56v-25q0 -29 -9 -72q-6 -39 -29 -94q-13 -33 -33 -67l-63 -106l-31 -50q-12 -18 -20 -35q-8 -15 -22 -45l-2 -7q8 0 12 -2q29 -8 47 -29l21 -24q14 -19 22 -42.5t24 -82.5l23 -88q8 -27 27 -69q7 -15 18 -24t22 -9q10 0 19.5 7t16.5 20q2 3 9 27t12 39
q30 100 34 101l4 3h11q3 -5 2 -11l-11 -51q-14 -61 -19 -82q-6 -22 -19 -44q-14 -22 -46 -38t-62 -16q-37 0 -50 25q-10 19 -12 23zM54 790l-3 1q-5 -6 -4.5 -14t0.5 -11q3 8 7 24zM18 469q0 9 -0.5 23t0.5 33q0 34 2 100l9 120q1 9 2.5 18t2.5 18l2 6q-1 1 -3 1
q-1 -2 -3 -7t-3 -9l-4 -36l-4 -68l-4 -77v-81q0 -17 2 -51q1 3 1 10zM410 671q16 54 16 85q0 9 -2 15q-4 -39 -16 -89q-4 -16 -20 -60q-5 -12 -10 -26q16 21 32 75zM119 144v6q-2 26 -2 40q-4 52 -4 81q0 69 8 147l3 26q8 71 14 108q18 101 60 192l3 6q-3 -1 -5 -5l-10 -24
q-9 -18 -15 -36q-36 -94 -48 -227q-3 -23 -7 -69q-7 -73 -7 -127q0 -34 6 -102l3 -16h1zM440 731q-13 -64 -53 -159q49 83 53 159zM109 414q4 25 5 40l4 32l-1 13l2 4q4 19 10 55q12 75 43 155l2 7l-2 -2l-2 -5q-30 -77 -43 -148q-4 -22 -10 -66q-1 -6 -2 -14t-1 -19
q-1 -4 -0.5 -7t0.5 -5q-2 -2 -2 -3q-1 -3 -1 -9l-3 -28h1zM467 710q-16 -65 -44 -133q37 70 44 133zM150 529q13 62 15 70q5 20 17 58l10 31q-35 -86 -46 -181zM103 242v25q0 8 -0.5 20t0.5 29l4 73h-0.5t-0.5 1v-3q-7 -70 -7 -120l2 -25h2zM138 65v7l-3 61l-2 33
q-2 22 -4 66l-1 44q0 44 5 99v10q-2 -12 -4 -36l-3 -86v-26q2 -21 4 -61q4 -59 5 -86q2 -16 2 -25h1zM228 278.5l1 0.5l28 69q-4 -4 -17 -34t-14 -36q1 0 2 0.5zM445 -56l-2 4l-9 24q-3 8 -7 18t-8 23l-14 51q-5 21 -7 28l-28 96q-4 13 -14 26q0 -1 -0.5 -1h-0.5l2 -7
q3 -9 7.5 -19.5t8.5 -23.5q16 -47 32 -118q9 -42 27 -79q2 -4 11 -23zM410 -92v1l-1 2q-26 48 -43 107q-4 13 -13 52l-21 76q-8 26 -13 39q-6 14 -22 28q18 -27 27 -58q8 -24 11 -36q6 -24 10 -36q9 -32 14 -55q13 -53 32 -93q6 -11 14 -23l4 -4h1zM415 -59q-20 52 -29 78
l-11 41q-4 17 -11 41q-5 19 -23 80q-2 10 -15 23q0 -3 1 -4q23 -58 47 -157q11 -49 31 -91l9 -16l3 -4q0 3 -2 9z" />
    <glyph glyph-name="S" unicode="S" horiz-adv-x="523" 
d="M192 -4q-57 0 -107 28t-70 76q-15 38 -15 85q0 50 17 90q18 39 40 59q29 26 61 26q24 0 37.5 -7t21 -19.5t16.5 -36.5q6 -16 10 -24l-4 -7h-9q-7 5 -8 5q-7 5 -9 11q-12 26 -26.5 39.5t-29.5 13.5q-25 0 -45 -31.5t-26 -83.5q-1 -7 -1 -22q0 -37 11 -66q10 -31 25 -53
q30 -43 82 -43q33 0 66 19t57.5 54t34.5 81q2 20 2 28q0 38 -12.5 73.5t-34 70t-63.5 95.5q-30 44 -43 68q-18 31 -34 88q-12 39 -16 67q-3 20 -3 38q0 40 16 76.5t46 61.5q25 22 57 34q18 6 38 6q36 0 72.5 -18.5t61.5 -49.5q25 -33 35 -69q10 -37 10 -62q0 -50 -32 -101
q-1 -2 -5 -6q-6 -8 -15 -5q-4 2 -8 6q2 10 4 15l11 38q6 21 6 47q0 47 -17 92t-44 62q-22 13 -46 13q-34 0 -63.5 -24.5t-46.5 -65.5q-15 -32 -13 -83q5 -71 36 -128l11 -22q5 -9 16 -28.5t22.5 -37t28.5 -42.5q15 -21 52 -80q9 -16 15 -31l7 -14t8 -19q13 -38 13 -77
q0 -28 -8 -62q-8 -30 -30.5 -61t-50.5 -51q-46 -36 -112 -36zM176 836q-33 -32 -39 -75q15 41 39 75zM177 805l17 27q-25 -19 -33 -53zM215 819q-24 -24 -27 -44zM44 289q-18 -29 -21 -61zM28 277q-9 -11 -14 -33.5t-5 -42.5q0 -12 1 -17q0 50 18 93zM54 272
q-10 -15 -12 -35zM335 166q4 19 4 39q0 11 -2 21q-1 -44 -14 -88q8 9 12 28zM349.5 153.5q4.5 14.5 3.5 30.5q-7 -22 -16 -55q8 10 12.5 24.5zM374.5 145.5q2.5 10.5 3.5 26.5l-13 -46q7 9 9.5 19.5z" />
    <glyph glyph-name="T" unicode="T" horiz-adv-x="402" 
d="M237 3q-13 -3 -34 11t-24 29l-5 28l-4 32q-3 28 -4 38q-2 31 -4 95l-1 72q-1 15 -1 71q0 105 5 192l6 113l3 57q3 55 5 66l4 37v5q-44 -2 -85 -6q-55 -4 -80 -5q-8 3 -12 10.5t-6 10.5q1 5 7 7l27 7q87 13 122 17q16 2 23 2l22 2q25 3 50 3q39 0 86 -5q68 -8 103 -8
l40 -3q16 -2 26 -13q6 -7 6 -16l-5 -4h-3q-12 3 -13 3q-63 -4 -95 -4q-19 0 -43 2q-32 4 -79 4h-11q-3 -21 -4 -49l-5 -61q2 2 -4 -106l-6 -128q-1 -25 -2 -62t-1 -63q0 -110 4 -201q3 -38 6 -102q0 -5 0.5 -25.5t4.5 -27.5q1 -2 1 -6q0 -6 -4 -12t-11 -10zM197 178
q-2 56 -2 86v98v49q0 40 1 60q0 89 3 179l4 90q0 26 6 51q0 1 1 4t-3 5q-8 -20 -9 -37l-3 -89l-2 -39q-1 -19 -2 -47t-1 -66l-1 -95v-30q0 -49 1 -74l1 -65l2 -73q1 -8 1 -26l-1 -57q0 -14 1 -15zM223 240q-3 24 -3 50q-3 69 -3 139l1 75q1 25 1 75l-1 79q0 35 2 53l-3 -6
q-1 -7 -2 -21t-1 -25q0 -29 -2 -89q-2 -112 -2 -168q0 -70 7 -170l8 -28q0 12 -2 36z" />
    <glyph glyph-name="U" unicode="U" horiz-adv-x="687" 
d="M598 -137q-21 9 -28 14q-8 6 -14 15q-16 26 -23 39q-4 6 -16 38.5t-19 52.5q-19 63 -31 187.5t-12 205.5l1 61v15l-2 1l-3 -8l-41 -116q-14 -39 -35 -89q-23 -59 -64 -143q-14 -28 -33 -58q-18 -31 -55 -62q-10 -8 -33 -14q-4 -1 -10 -2t-14 -1q-28 0 -48 13
q-24 14 -43 28q-32 24 -47 63q-19 52 -26 114q0 21 -1 34l-1 68q0 51 4 99q4 32 19 192q3 40 16 101.5t27 107.5q5 13 17 29q10 12 25 13q5 0 12 -1.5t10 -1.5q9 -2 10 -9q2 -1 6 -1q2 -10 2 -15l-3 -14l-8 -49q-27 -170 -38 -251.5t-14 -146.5q-1 -18 -1 -54q-1 -12 -1 -37
q0 -66 7.5 -114t28.5 -85q4 -8 23 -36q4 -7 14 -7q11 0 24.5 7.5t23.5 17.5q29 26 50 67q16 31 46 95q7 15 19 45l22 53l17 43l12 31l21 52q34 86 48 131l15 40q9 21 12 44q3 21 14 32t25 11t24.5 -10t14.5 -29l1 -32q0 -15 -1 -22l-1 -24l-4 -88l1 -67l-1 -85q0 -21 2 -61
l2 -29q2 -38 4 -60q5 -54 17 -107t36 -136q8 -29 25 -74q2 -6 2 -8q0 -9 -8 -15h-9q-8 0 -12 2zM116 841l-3 1q-7 -7 -10 -18.5t-5 -17.5l2 -1q6 12 16 36zM20 369q2 36 4 56q3 37 11 111q4 32 5 49q1 12 3 30t6 42q9 53 21 105q11 45 24 74q1 1 1 4q0 1 -1 1l-2 -2
q-11 -15 -15 -31q-14 -46 -21 -91q-12 -76 -17 -115q-5 -34 -11 -102q-4 -42 -10 -116v-20q2 4 2 5zM275 147q21 41 43 92t41 99l35 92q39 97 56 153l9 29l-1 1q-1 -2 -2 -4.5t-2 -5.5l-26 -78q-28 -74 -43 -110q-8 -21 -41 -104l-12 -30q-27 -69 -60 -135q-2 -4 -2 -6
q4 4 5 7zM281 134q36 67 71 155q68 167 103 277q2 5 4 17q-50 -141 -92.5 -250t-92.5 -210q3 3 7 11zM455 519q-60 -172 -108 -287q57 127 108 287zM474 456v58h-1v-58h1zM323 176q11 25 12 32l-12 -25q-14 -31 -17 -38q6 6 17 31z" />
    <glyph glyph-name="V" unicode="V" horiz-adv-x="476" 
d="M77 86q-18 27 -27 57q-11 32 -25.5 135t-19.5 172l-4 89l-1 46l1 45q1 24 5 72q4 39 11 65q2 6 15 38q0 2 1 3.5t2 2.5q8 13 26 13q4 0 12 -2q3 -1 5 -3.5t4 -3.5v-66l-2 -69q-2 -32 -2 -49q-1 -13 -0.5 -23t0.5 -17v-21q0 -36 1 -55l3 -68l3 -41l4 -40q2 -22 8 -70
l3 -24q1 -12 5 -36q9 -48 13 -65q9 -36 18.5 -58.5t29.5 -49.5q12 -16 25 -22q78 10 162 326q19 74 25.5 112.5t10.5 107.5q4 76 5 113q1 7 1 21q0 17 -1 29t-2 21q-3 29 -11 98q-4 33 -7 52l-7 52q-3 11 -3 21q-1 1 -0.5 2t0.5 2l15 2q4 -4 7 -5q4 -19 5 -25
q10 -48 19.5 -104t12.5 -84q3 -24 3 -52v-35l-2 -75q-4 -56 -8 -85l-4 -27q-2 -14 -8 -52l-16 -80l-7 -32l-14 -59q-21 -81 -49 -151t-56 -101q-25 -27 -56 -27q-16 0 -35 8q-65 28 -94 72zM61 808q-1 1 -3 1q-5 -5 -6 -13.5t-1 -10.5zM18 614v6q2 25 4 79q5 61 22 105
q1 1 1 3q-3 -2 -7 -10q-6 -13 -11 -37q-4 -21 -5.5 -47t-2.5 -34l-3 -48v-17h2zM380 452q1 9 5 27q9 55 12 112l4 75v56q-1 -10 -0.5 -19t-0.5 -18l-8 -128q-2 -29 -10 -77q-2 -22 -4 -31q2 2 2 3zM323 230q25 78 37 129q3 16 11 50l-2 -4l-6 -22q-22 -99 -48 -170
q0 -3 -1 -5q5 6 9 22zM374 330q-2 0 -2 1q-11 -48 -12 -52q0 -1 0.5 -1h0.5zM342 217h-0.5t-0.5 1l-23 -68q9 20 24 67z" />
    <glyph glyph-name="W" unicode="W" horiz-adv-x="954" 
d="M904 539q0 -87 -26 -169q-14 -44 -22 -66q-10 -25 -24 -52l-22 -38q-28 -42 -73 -64t-95 -22q-51 0 -96.5 22t-72.5 63q-13 18 -19 32q-6 13 -13 36q-4 9 -7 23l-3 -6q-22 -66 -66 -143q-29 -51 -71 -91q-39 -37 -78 -49q-18 -6 -36 -6q-34 0 -66 20q-38 23 -61.5 51
t-36.5 70q-16 47 -16 110q0 29 1 43q0 7 0.5 17t2.5 24q9 77 14 104t26 106q22 76 38 111l15 35q4 6 17 36q20 40 43 78t37 54q17 19 27 25q14 10 31 7q5 -1 22 -7q8 -4 8 -11l4 -2q2 -6 -2 -12l-14 -24q-26 -36 -52 -81q-32 -59 -55 -112q-16 -40 -17 -43q-16 -48 -23 -72
q-8 -27 -18.5 -75.5t-15.5 -80.5q-6 -51 -6 -98q0 -96 24.5 -156t67.5 -60q32 0 68 35q36 36 64 81q17 26 30 51l38 71q4 9 22 49l9 22q25 58 38 83t23 25q14 0 23 -54q2 -12 8 -44l6 -44q19 -80 52.5 -126t78.5 -46q30 0 62 22t50 45q30 36 48 79q3 7 12 27t14 37
q22 70 27 124q3 30 3 61q0 48 -6 94q-8 60 -33 112q-11 21 -30 49q-25 38 -36.5 60t-0.5 23q23 2 36 -18q38 -52 70.5 -114.5t41.5 -108.5q11 -60 11 -122zM93 641q15 38 51 112q34 60 54 89q8 11 14.5 20t11.5 15v1l-6 -4q-19 -19 -37 -45q-27 -44 -52 -94
q-32 -63 -50 -119q-3 -9 -18 -58l-6 -21q-4 -14 -7 -25t-5 -20q-15 -73 -18 -103l-5 -39q4 12 5 19q1 8 2 19.5t3 18.5q11 63 28 123q16 65 35 111zM236 869q-15 -15 -26 -32l-33 -54q-41 -74 -65 -136q0 -4 -1 -6q35 76 60 121q32 60 76 112l-2 1zM222 798
q-37 -62 -56 -108l17 32q23 47 52 90q11 17 22 31l13 18q4 6 4 11q-15 -12 -52 -74zM822 343q42 109 41 210q-3 -19 -4 -32.5t-2 -23.5q-3 -24 -9 -52q-3 -14 -13 -52q-4 -16 -8 -28.5t-7 -21.5h2zM870 476q-16 -79 -47 -164q38 75 47 164zM873.5 383q14.5 53 12.5 61
l-36 -131q9 17 23.5 70zM385 301q6 8 22.5 48t15.5 45q-12 -31 -38 -93zM378 250q22 43 47 107q2 8 2 9h-2l-51 -121zM432 321h-3l-31 -79q19 34 34 79z" />
    <glyph glyph-name="X" unicode="X" horiz-adv-x="700" 
d="M413 -13q-31 21 -52 51t-40.5 82.5t-43.5 143.5q-4 11 -8 28.5t-7 30.5l-9 43q-6 36 -10 54l-3 15l-2 -4l-11 -28l-19 -49q-19 -51 -32 -89l-8 -23q-28 -88 -38 -152q-8 -42 -10 -64l1 -7q0 -6 -6 -8h-5l-5 1q-2 6 -2 10q0 23 1 35q2 26 12 78q11 51 40 143q22 66 34 99
q3 8 23 62l17 42q1 3 1 9l-10 61l-6 35l-21 96q-4 14 -14 42q-16 49 -38.5 86t-47.5 32q-21 -2 -42 -18.5t-33 -38.5l-7 -15l-3 -1q-4 0 -8 4q-1 2 -1 5t2 9q8 26 29 50q12 14 26 21q18 9 38 9q8 0 22 -2q27 -4 57 -30q37 -34 56 -86l8 -17q9 -25 11 -32q5 -14 13 -44
q5 -19 13 -57q1 -3 2 -5.5t2 -6.5q38 74 79 131q26 36 60.5 70t41.5 41l11 1l1 -3l4 2l4 -1q2 -4 2 -6l4 1v-2q-2 -6 -4 -8l-57 -60q-37 -39 -60 -75q-12 -18 -34 -54l-42 -75q-2 -6 -1 -9q3 -24 11 -70l6 -36l8 -41q2 -14 11 -53l12 -49q3 -13 11 -39l11 -39q4 -13 14 -37
q16 -42 22 -54q5 -11 24 -47q12 -21 32 -43q14 -18 29 -24q5 -3 18 -5q6 0 10 3l12 12q30 37 46 140q4 18 6 31.5t3 22.5q1 13 5 34q2 12 2 20q2 11 10 17l6 1q4 -6 2 -14l-4 -46q-10 -94 -17 -135t-18.5 -63.5t-35.5 -38.5q-15 -10 -37 -13l-19 -3q-28 -3 -55 16zM373 53.5
q-4 6.5 -7 13.5l-24 53q-21 50 -38 102l-21 79l-10 40l-2 4q0 -2 -0.5 -3t0.5 -2q2 -16 4 -26l8 -29q15 -60 33 -111q5 -15 17 -43l10 -25q12 -30 35 -64l2 -2q-3 7 -7 13.5zM364 105l-8 21q-9 21 -16 42q-29 84 -40 132q-1 9 -10 21q1 -8 11.5 -47.5t19.5 -67.5
q10 -31 25.5 -67.5t20.5 -40.5zM384 118q-8 22 -13 33q-10 26 -20 59t-14 45l-7 24l-8 31q0 1 -1 3t-5 3q29 -116 68 -200v2z" />
    <glyph glyph-name="Y" unicode="Y" horiz-adv-x="564" 
d="M97 -475q-32 20 -51 40t-31 52q-10 27 -13 58q-2 24 -2 35q0 12 2 36q2 22 11 53q12 37 28 64q33 60 86 79q24 8 47 8q14 0 27 -3q23 -4 45 -24q11 -10 22 -32l28 -61l-3 -7h-4q-7 0 -13 4t-8 5l-10 18q-18 32 -33 52q-1 1 -11 14q-7 10 -24 8q-61 -9 -98 -63
q-48 -71 -48 -158q0 -31 7 -58q11 -49 44 -82q24 -24 53 -24q34 0 75 31q36 27 54 43.5t33 41.5q11 18 21 41l4 9q14 39 19 59.5t13 61.5l8 44l2 27l6 55l3 54l3 51q3 46 4.5 104t1.5 104q0 45 -11 169l-2 23l-10 114h-0.5t-0.5 1q-2 -4 -2 -5q-19 -44 -27 -68
q-6 -15 -11.5 -25.5t-18.5 -30.5q-15 -23 -41 -53q-15 -16 -34 -29q-31 -21 -64 -21q-60 0 -92.5 66.5t-32.5 155.5l1 23q1 18 5 49l4 28l5 27q2 6 4 22l11 41q2 7 15 35q3 5 9 10q6 6 16 3q3 1 8 1t8 -2q1 -1 3 -1h2q6 0 16 -8l-2 -7l6 3q4 -3 1 -10l-9 -23
q-12 -33 -18 -66q-9 -47 -11 -65q-5 -33 -5 -73q0 -69 13 -120t38 -47q27 7 45.5 18.5t34.5 29.5q25 26 46 62q19 33 33 66l35 88q2 6 2 10q0 7 -0.5 17t0.5 23q1 18 14.5 30.5t26.5 12.5t17 -12q5 -14 7 -43q2 -44 4 -67l4 -34l6 -55q-1 12 9 -98q2 -9 6 -82q5 -70 5 -100
l1 -31l-1 -19l-1 -50l-3 -56q-2 -62 -4 -92l-4 -57l-5 -52q-3 -33 -9 -70q-4 -27 -12 -59q-5 -23 -16.5 -55.5t-21.5 -53.5q-16 -31 -34.5 -53t-46.5 -45q-27 -23 -55 -35q-37 -16 -72 -16q-49 0 -82 21zM109 784l-2 1q-1 -2 -3 -3.5t-3 -4.5q-2 -6 -5.5 -14t-6.5 -19
q-11 -37 -21 -109v-4q17 96 41 153zM117 760l8 18q-6 0 -8 -6q-10 -28 -12 -42zM149 773q-8 -7 -10.5 -19t-4.5 -17zM379 701q5 20 7 26q-9 -10 -9 -26h2zM354.5 605.5q8.5 22.5 8.5 26.5l-22 -56q5 7 13.5 29.5zM354 580q12 31 11 36q-14 -34 -28 -74q5 7 17 38z
M363.5 566.5q5.5 15.5 4.5 19.5l-14 -41q4 6 9.5 21.5zM336 -331l21 46q13 31 22 79q6 36 8 54l4 27q3 22 7 68l5 73l3 78q2 30 4 88v19q0 -1 -0.5 -1h-0.5l-1 -13v-19l-3 -51l-2 -62l-2 -28q-2 -36 -4 -54q-2 -25 -8 -83q-4 -43 -18 -108q-12 -58 -38 -113q-1 -1 -1 -3z
M60 -144q-27 -43 -35 -93q17 54 35 93zM17 -234q5 22 12 45q6 16 18 44q-17 -26 -28 -63.5t-10 -69.5q4 30 8 44zM70 -162q-19 -34 -25 -68zM377.5 -278q11.5 38 18.5 86q-15 -73 -53 -156q23 32 34.5 70zM417 -222q-20 -74 -45 -129q31 50 45 129z" />
    <glyph glyph-name="Z" unicode="Z" horiz-adv-x="571" 
d="M154 -519q-48 0 -83.5 24.5t-54.5 65.5t-19 87q0 31 9 61q12 42 35 84q27 45 75 86l37 32q18 15 44 31q92 55 176 125q-3 7 -10 31q-11 30 -23 51q-19 35 -50.5 58.5t-62.5 23.5l-16 1q-12 -2 -25.5 4.5t-21.5 16.5t-5 18l3 7l24 28l20 21l7 8l36 36l24 25
q49 56 61.5 74.5t55.5 99.5q12 26 17 40q15 41 15 69q0 30 -14.5 46t-39.5 16q-27 0 -62 -19.5t-68 -55.5q-38 -41 -64 -81l-46 -72q5 -19 6 -24q5 -25 5 -44q0 -11 -1 -16l-1 -23q0 -19 -1 -29q0 -7 -1 -10q-2 -5 -5 -7l-3 6l-2 -6q-4 -3 -7 -3.5t-7 0.5q-2 10 -2 15
q-2 46 -2 70q-1 17 -11 53l-1 3q7 -46 9 -111l1 -28l-2 -1h-4l-3 11l-2 29l-2 22q-2 28 -4 44q-3 24 -15 56q-2 5 -5 7l6 -19q7 -24 13 -72l4 -59l3 -17h-3q-5 0 -7 5q-2 6 -2 8l-2 25l-3 26q0 6 -2 18q-5 35 -13 63q-5 17 -10 28q-3 6 -5 20q-1 4 16 15t30 11t16 -13l6 -17
l4 -7l10 19q39 75 78 121t95 72q24 10 37 13q11 3 21 3q13 0 25 -3q34 -6 51 -17q28 -19 38 -49q7 -20 7 -42q0 -11 -4 -37q-6 -33 -20 -64q-16 -38 -52 -100q-6 -10 -35 -48q-8 -11 -22.5 -28t-24.5 -27l-59 -61l-29 -26q60 -16 111 -59q51 -44 72 -101q42 36 76.5 83
t77.5 122q18 -2 22 -7q-39 -65 -96.5 -146.5t-67.5 -81.5q14 -49 20 -95q3 -17 5.5 -42t2.5 -38q0 -36 -2 -54q-4 -49 -17 -88q-10 -31 -35 -77.5t-54 -86.5q-31 -40 -39 -49q-37 -37 -60 -52t-65 -22q-16 -3 -32 -3zM319 437q32 38 44 59q40 66 54 108l8 25h-2
q-13 -40 -31 -70q-20 -37 -37 -67q-11 -19 -25.5 -38.5t-18.5 -24.5zM143 572q6 10 11 19t9 16h-1q-8 -11 -20 -35h1zM420 574q-50 -96 -102 -160q58 57 102 160zM62 567v0.5t-1 0.5q-2 -2 -2 -4v-2q0 -4 2.5 -9t5.5 -8zM395 470.5q20 33.5 42 81.5l-42 -74q-16 -28 -48 -69
q28 28 48 61.5zM128 391q1 3 1 11l1 34v19q0 13 -1 19q-1 4 -2 10t-4 14q0 -9 2 -27q2 -26 2 -37q0 -8 -0.5 -18.5t0.5 -24.5h1zM175.5 282.5q1.5 4.5 2.5 6.5q-1 -1 -4.5 -4t-3.5 -9q4 2 5.5 6.5zM305 -341.5q10 13.5 13 18.5q6 8 11.5 17.5t14.5 27t19 35.5q10 19 16 43
q9 33 12 59t3 62q0 28 -3.5 62.5t-10.5 56.5q-8 -8 -114 -83q-57 -40 -67 -48q-28 -22 -53 -47q-38 -40 -47 -52q-59 -74 -59 -154q0 -56 29.5 -93t73.5 -37q31 0 64 20.5t65 63.5q23 35 33 48.5zM329 -335q8 12 13.5 22.5t10.5 17.5l12 20q30 53 37 109q0 2 1.5 8t0.5 11
l-9 -39q-10 -43 -37 -93q-4 -8 -10 -17.5t-12 -22.5l-10 -17h0.5t0.5 -1q0 2 2 2zM46 -235q17 34 20 41q-25 -31 -37 -83q5 14 17 42zM12 -302q11 51 40 104q0 1 -0.5 1h-0.5q-6 -8 -8 -12q-22 -40 -31 -80l-2 -13h2zM329 -362q32 43 59 97q8 15 18 47l3 13q-15 -39 -38 -81
q-26 -50 -45 -77q0 -1 1 -1zM77 -210q-20 -26 -31 -67zM404 -288q16 31 25 64q-28 -66 -65 -131q24 36 40 67z" />
    <glyph glyph-name="bracketleft" unicode="[" horiz-adv-x="269" 
d="M63 50v6q-2 30 -2 44l-1 14l1 51v39q1 12 1 36q0 67 -1 100q0 25 -2 73l-2 51q-1 19 -5 57v11q-1 10 -1 30q0 8 -0.5 19t0.5 25l1 41q2 27 6 41q-1 2 -1 5q0 4 4 8q6 7 19 9q40 8 60 10q14 1 32.5 1h26.5h16q4 0 4 -2q-6 -10 -16 -11l-13 -3q-12 -2 -32 -4q-10 0 -26 -2
l-38 -7q1 -1 1 -2.5t1 -2.5q7 -13 8 -27q4 -26 5 -40l6 -55l3 -45l3 -24q2 -30 2 -45l4 -73v-33l1 -36l-4 -53l-3 -53v-28q0 -19 -1 -29l-1 -44l-2 -37v-15l2 -1q1 1 3 1q15 3 29 3q18 0 34 -3q7 0 17 -4q8 -4 9 -10l-8 -1q-16 -2 -46 -4q-4 -1 -9.5 -2t-13.5 -1h-40
q-2 -5 -9 -5.5t-9 -0.5q-13 15 -13 28zM86 688h-1q4 -16 7 -23q0 15 -6 23z" />
    <glyph glyph-name="backslash" unicode="\" horiz-adv-x="378" 
d="M272 51q-15 27 -17 32l-36 80l-33 80l-9 23q-3 7 -7 16.5t-8 22.5q-10 24 -20 51q-12 28 -17 42l-21 57l-16 50q-2 8 -5.5 18t-6.5 23l-16 65l-8 52q-2 16 -2 23l1 16q3 14 16 26l8 -4l-1 8q6 2 8 2l8 -10l8 -10q4 -7 8 -9q-1 9 -9.5 17.5t-10.5 12.5q2 0 7 1t8 -2
l17 -17q7 -10 9.5 -23t3.5 -16q7 -28 19 -84q4 -14 5 -21l12 -34l19 -54l11 -31q13 -35 25 -65l10 -26l35 -88q6 -14 8 -21q5 -11 22 -55q10 -27 26 -81q5 -20 5 -50q0 -8 -5 -11l-7 8v-13l-5 -4q-3 8 -7 14l-2 -1l5 -16q-9 -8 -19 -5l-4 -3q-8 6 -12 14zM315 84q-1 5 -2 13
t-3 13l-10 31q-8 26 -20 62q-25 64 -62 153l-35 90q-2 7 -7 9q3 -7 7 -21q38 -98 56 -148q14 -36 22 -54q6 -15 19 -48t22 -60q2 -7 5.5 -19.5t6.5 -20.5h1zM256.5 202.5q-38.5 100.5 -49.5 117.5l-1 -1l88 -225q1 8 -37.5 108.5zM275 73l-19 45l-66 154q2 -10 7.5 -22
t7.5 -18q6 -14 16 -42q5 -13 17 -39q4 -9 8 -19t9 -22q11 -28 19 -41z" />
    <glyph glyph-name="bracketright" unicode="]" horiz-adv-x="268" 
d="M184 22.5q-7 0.5 -9 5.5h-40q-8 0 -13.5 1t-9.5 2q-30 2 -46 4l-8 1q1 6 9 10q10 4 17 4q17 3 34 3q14 0 29 -3q2 0 3 -1l2 1v15l-2 37l-1 44v29q0 19 -1 28l-3 53l-4 53l1 36v33l4 73q0 15 2 45l3 24l3 45l6 55q1 14 5 40q1 14 8 27q1 1 1 2.5t1 2.5l-38 7q-16 2 -26 2
q-20 2 -32 4l-13 3q-10 1 -16 11q0 2 4 2h16h30q20 0 29 -1q20 -2 60 -10q13 -2 19 -9q7 -7 3 -13q4 -14 6 -41l1 -41q1 -14 0.5 -25t-0.5 -19q0 -20 -1 -30v-11q-4 -38 -5 -57l-2 -51q-2 -48 -2 -73q-1 -33 -1 -100q0 -24 1 -36v-39l1 -51l-1 -14q0 -14 -2 -44v-6
q0 -13 -13 -28q-2 0 -9 0.5zM184 688h-1q-6 -8 -6 -23q3 7 7 23z" />
    <glyph glyph-name="asciicircum" unicode="^" horiz-adv-x="298" 
d="M56 571q-6 5 -6 10q0 6 4 18q8 18 14 26l18 26l18 21l21 23l19 20l4 4q3 1 7 -1l7 -3q2 -1 4 -1t3 -1q6 -4 10 -10l5 -7q7 -13 23 -39q4 -8 14 -22l21 -26q0 -1 2.5 -4t0.5 -7l3 -3q0 -5 -3 -7h-4q-4 0 -8 2q-10 5 -20 15q-10 14 -16 21q-3 3 -11 15q-9 12 -23 40l-2 4
l-21 -28l-34 -41l-15 -19q-1 -2 -10 -12t-20 -15h-3zM55 582q8 22 26 47q8 11 37 45l29 34q1 0 1 2l-2 -1q-1 -1 -26 -29q-7 -9 -23 -27q-4 -6 -10.5 -14.5t-14.5 -19.5q-10 -13 -15 -26q-3 -6 -3 -12z" />
    <glyph glyph-name="underscore" unicode="_" horiz-adv-x="915" 
d="M75 -189q-5 0 -14 4l-11 21q18 9 27 12l19 6q56 16 84 22q154 36 300 56q49 7 127 7h32l168 -2h10q27 1 44 -20q0 -2 1 -3l3 -12q-15 -11 -13 -10l-13 5q-44 -1 -125 -5q-19 0 -29 -1q-45 0 -88 -3q-40 -3 -128 -13q-67 -9 -175 -26l-58 -9l-108 -18q-15 -2 -45 -10z" />
    <glyph glyph-name="grave" unicode="`" horiz-adv-x="580" 
d="M390 606h-59q-37 29 -80.5 76t-61.5 74v10h105q16 -32 44.5 -76.5t51.5 -71.5v-12z" />
    <glyph glyph-name="a" unicode="a" horiz-adv-x="487" 
d="M174 8q-23 37 -19 99l1 42q-36 -67 -54.5 -96.5t-33.5 -41t-36 -11.5q-40 0 -66 34t-26 85q0 65 25 145.5t67 136.5t89 56q30 0 54 -16t40 -43q12 13 25 13q22 0 22 -28q0 -14 -7 -98q-10 -97 -16 -141q-10 -78 -10 -102q0 -17 4 -25t13 -8q51 0 120.5 102t121.5 212h12
q6 0 8 -1.5t2 -5.5q-50 -100 -75 -147t-83.5 -122.5t-106.5 -75.5t-71 37zM96 99q39 63 70.5 141t31.5 117q0 16 -13 38t-30 24q-29 0 -62 -61.5t-56 -143.5t-23 -134q0 -18 6 -31t18 -13q19 0 58 63zM-15 186q11 49 27 95q19 55 64 119q6 8 10 12l-2 2q-3 -3 -11.5 -11
t-13.5 -17q-16 -26 -23 -39q-28 -56 -49 -138l-5 -28q1 0 3 5zM51 297q16 34 29.5 59t31.5 46l-2 1l-2 -1q-19 -21 -26 -34q-27 -51 -35 -72l-3 -10l-3 -9zM25.5 223q3.5 12 2.5 18l-9 -35q3 5 6.5 17zM152 188q7 11 12 26l-2 1q-3 -9 -11 -27h1zM177 142q1 22 6 46l3 25
q-6 -8 -7 -17q-9 -56 -9 -95q0 -19 1 -28z" />
    <glyph glyph-name="b" unicode="b" horiz-adv-x="466" 
d="M64 -15q-2 0 -4.5 -1t-3.5 0q-3 0 -7 4l-7 2q-32 12 -47 85t-15 168q0 128 31.5 276.5t90 251.5t133.5 103q28 0 48.5 -24.5t20.5 -57.5q0 -82 -67 -191t-157 -193l-6 -5q-12 -112 -12 -168q0 -46 6 -93l2 7q14 57 44 121t68.5 108.5t77.5 44.5q50 0 76 -51t26 -128
q27 6 58 26t47 53q8 0 11.5 -0.5t6 -2.5t4.5 -4q-17 -36 -53.5 -64t-75.5 -39q-17 -80 -49.5 -134.5t-82.5 -54.5q-31 0 -52.5 16.5t-21.5 45.5q0 31 16 52.5t41.5 35.5t69.5 32l5 3l6 37q3 29 3 58q0 56 -5 79.5t-21 21.5q-39 -3 -78 -53.5t-68 -118.5t-41 -121
q-4 -13 -10 -39v-11q1 -14 5 -42q0 -3 -1 -4q-1 -5 -2.5 -12t-1.5 -12q0 -2 -4 -10q-3 3 -4 3zM79 432q39 31 87.5 100t82 142.5t33.5 118.5q0 22 -7 38.5t-21 16.5q-39 0 -75 -73.5t-62.5 -170.5t-39.5 -172h2zM206 842l-2 1l-4 -4q-19 -18 -32 -36q-34 -46 -55 -92
q-2 -4 -2 -5q43 82 95 136zM7 166q-1 22 -1 66q0 25 2 75q2 34 4 51l2 26q3 51 14 105q11 59 32 127q22 70 56 126q30 52 67 92q2 3 5 5l-2 1l-7 -6l-4 -4q-49 -52 -87 -131q-21 -45 -38 -107t-24 -98q-7 -47 -10 -65l-3 -31q-2 -12 -4 -40q-2 -19 -4 -57q-1 -9 -1 -27v-79
q0 -11 2 -31zM306.5 227.5q0.5 7.5 0.5 10.5l2 24q1 4 1 12t-1 12q-2 -26 -8 -70q0 -1 0.5 -1h0.5q4 5 4.5 12.5zM317 200l-1 1l-2 -2q-20 -67 -25 -83q21 34 28 84zM342 201q-3 -7 -10 -35l-13 -45q18 32 23 80zM300 194q-5 0 -7 -6q-4 -17 -11 -40q-2 -9 -8 -27
q1 0 1 -0.5v-0.5q15 29 25 74zM255 106q9 23 21 61q2 6 4 20h-4q-41 -19 -65.5 -42t-24.5 -54q0 -16 7 -27t17 -11q12 0 23 15q13 15 22 38zM166 114q-7 -12 -5 -29z" />
    <glyph glyph-name="c" unicode="c" horiz-adv-x="386" 
d="M26 14.5q-36 24.5 -56 66t-20 92.5q0 63 20 113q39 97 87 147t123 50q23 0 48 -10q22 -9 33.5 -28.5t11.5 -41.5q0 -36 -37 -73l-11 -9q-1 -1 -4 -1t-11 12l-1 2q0 2 4 4.5t6 4.5q13 18 20.5 33.5t7.5 33.5t-7 30.5t-24 12.5q-38 0 -79 -52.5t-68.5 -124.5t-27.5 -124
q0 -44 14 -81t38 -37q60 0 109.5 36.5t91 96.5t93.5 156q3 1 5 2t4 1q3 0 13 -10q-78 -157 -153 -241.5t-149 -84.5q-45 0 -81 24.5zM24 285.5q10 16.5 22 40.5q39 75 57 98q-15 -19 -48.5 -65t-39.5 -74q-1 -4 -1 -9q0 -7 10 9.5zM61.5 291.5q9.5 14.5 21.5 35.5
q44 75 59 93l7 9q-6 -7 -25.5 -32t-40.5 -56t-28 -51q-3 -7 -3 -10t9.5 11.5zM20 322l32 66q-30 -48 -59 -104.5t-22 -60.5q15 26 49 99zM364 251.5q14 26.5 15 31.5q1 7 -13 -19.5t-15 -31.5q-1 -7 13 19.5z" />
    <glyph glyph-name="d" unicode="d" horiz-adv-x="506" 
d="M190 16.5q-29 58.5 -29 175.5l-2 4l-13 -24q-21 -44 -46.5 -74t-52.5 -30q-21 0 -43.5 15.5t-38 40.5t-15.5 50q0 53 19 112t51.5 99t72.5 40q45 0 76 -24q29 208 76.5 330.5t128.5 122.5q28 0 48 -21.5t20 -57.5q0 -41 -30.5 -115t-76 -153t-86.5 -131q-4 -61 -4 -200
q0 -75 12 -126t38 -51q25 0 60 50q18 23 62.5 102t89.5 172l6 1q3 0 7 -2.5t9 -5.5l-10 -20t-9 -19q-69 -139 -122.5 -229t-91.5 -90q-77 0 -106 58.5zM253 697l10 21q5 13 17 37q21 37 48 64q0 1 2 3l2 2q-32 -23 -50 -57q-7 -13 -14 -30t-11 -25q-4 -7 -5.5 -12.5
t-3.5 -9.5q0 -1 0.5 -1h0.5zM350 821q-26 -16 -46 -59q16 19 46 59zM367 637q42 87 42 143q0 29 -7 36q-8 0 -17 -7q-5 -5 -13 -15q-18 -23 -31 -51q-4 -8 -11 -28l-8 -20q-5 -11 -13 -33q-10 -24 -18 -55q-12 -38 -17 -65q-13 -57 -19 -110q70 118 112 205zM372 809
q-11 -7 -18 -17.5t-15 -27.5zM350 576q11 18 14 24l-2 1l-35 -57q12 14 23 32zM315 486l11 19q17 28 26 50l-28 -50l-10 -18v-1h1zM179 210v64l3 65q4 42 5 63h-1q-10 -73 -10 -153q0 -60 5 -103q0 22 -2 64zM-28 221q12 53 29 91q22 46 50 82q-4 -2 -6 -4l-21 -24
q-15 -21 -30 -58q-12 -36 -17 -54q-3 -8 -4.5 -18.5t-2.5 -14.5h2zM44 100q14 0 37.5 33.5t57.5 91.5q15 28 20 35l7 123q-4 6 -6.5 7t-8.5 1q-28 2 -56 -39.5t-46.5 -101t-18.5 -107.5q0 -14 1 -21q3 -22 13 -22zM39 340q12 18 24 34l12 17l-8 -6q-22 -17 -40 -57l-9 -21
q0 -1 0.5 -1h0.5q8 16 20 34zM108 381q-12 -6 -28.5 -28.5t-21.5 -37.5zM159 238q0 1 -0.5 1h-0.5l-18 -38q10 14 19 37z" />
    <glyph glyph-name="e" unicode="e" horiz-adv-x="382" 
d="M39.5 26.5q-39.5 26.5 -60.5 71t-18 96.5q-1 60 25.5 128.5t70.5 115.5t94 47q34 0 60 -22.5t27 -54.5q0 -34 -33 -81.5t-80.5 -91.5t-88.5 -68q-1 -9 -1 -26q0 -46 20 -77t62 -31q69 0 129.5 70.5t136.5 219.5q11 0 14.5 -1t7.5 -6q-67 -139 -138.5 -227.5t-140.5 -88.5
q-47 0 -86.5 26.5zM102 453q-3 0 -4 -1q-20 -16 -30 -25q-12 -11 -20.5 -23.5t-21.5 -35.5q-15 -27 -29 -68l1 -2q34 92 104 155zM96 419l32 32q-20 -9 -34 -25t-30 -40h0.5t0.5 -1q33 36 31 34zM156 310.5q50 58.5 50 110.5v4q0 10 -3.5 14.5t-16.5 4.5q-26 0 -56.5 -35.5
t-55 -92t-34.5 -115.5q66 51 116 109.5zM91 385q-21 -9 -35 -34z" />
    <glyph glyph-name="f" unicode="f" horiz-adv-x="348" 
d="M19.5 -147.5q-40.5 83.5 -52.5 220.5q-5 60 -5 127q0 135 20.5 263t69 215t127.5 87q34 0 55.5 -22t21.5 -57q0 -46 -39.5 -124t-92.5 -149.5t-87 -95.5q-1 -18 -1 -53q0 -113 15 -221t37 -175.5t41 -67.5q4 0 8 4q16 14 19 35q5 20 5 50q0 67 -25.5 139t-66.5 112
q-2 1 -3.5 9.5t-1.5 13.5l-1 2q88 7 165.5 39t120.5 119q5 -2 12 -3.5t10 -3.5q-38 -74 -99 -113.5t-173 -63.5q36 -30 61.5 -95t31.5 -141q1 -8 1 -24q0 -43 -14.5 -75.5t-43.5 -34.5q-75 0 -115.5 83.5zM122.5 453.5q44.5 65.5 74 131t29.5 105.5q0 24 -8 36.5t-21 12.5
q-22 0 -46 -27q-50 -59 -77.5 -153t-34.5 -209q39 38 83.5 103.5zM142 736q-11 -4 -27.5 -24.5t-20.5 -34.5q20 29 48 59zM-6 -11q-1 17 -3 30.5t-3 22.5q-3 44 -3 86q-1 9 -1 28v22q0 8 -0.5 19t0.5 26q0 53 3 105q2 76 16 144q18 82 45 144q19 39 34.5 66t37.5 49l2 2
q-5 -2 -7 -5q-24 -24 -36 -43q-26 -48 -37 -73q-25 -56 -41 -128q-9 -41 -14 -101q-3 -31 -7 -86q-1 -10 -1 -31v-31v-70q0 -36 1 -54l2 -38q0 -8 2 -24l3 -24q4 -28 8 -42zM168 -111q0 20 -1 28q0 7 -2 13l1 -56q0 -24 -2 -36q4 12 4 51zM176 -139l-1 17q-2 -13 -4 -43
q5 11 5 26z" />
    <glyph glyph-name="g" unicode="g" horiz-adv-x="498" 
d="M120.5 -398.5q-27.5 19.5 -43 52.5t-15.5 72q0 80 39 144.5t117 142.5l3 3q0 157 -10 271q-4 -4 -12 -21.5t-11 -24.5q-13 -33 -26 -59q-12 -27 -30 -57.5t-32 -44.5q-23 -29 -54 -29q-24 0 -46 18t-36 48.5t-14 67.5q0 57 27 125.5t71 117t93 51.5q68 4 85 -29
q2 -3 2 -5.5t-1 -5.5q2 -8 2 -10q1 0 2.5 3t4.5 3h1v-7l4 5h1q3 0 5 -4t4 -4v-5l1 -2q26 -26 39 -286l2 -35v-6l43 41q51 47 89 89.5t74 101.5q9 0 15.5 -3t6.5 -4q-41 -67 -82.5 -117t-138.5 -151l-5 -6l1 -53v-42q0 -152 -22 -258.5t-94 -106.5q-32 0 -59.5 19.5zM40 87
q21 0 57 64q21 42 53.5 112.5t55.5 122.5l18 48q-4 3 -8.5 7.5t-8.5 6.5t-9 2q-1 0 -11 -2q-38 -7 -77 -59.5t-64.5 -123t-25.5 -124.5t20 -54zM19 352q29 51 62 86q0 1 -0.5 1h-0.5q-16 -14 -23 -22q-26 -29 -45 -68q-19 -33 -32 -80l-2 -7l-2 -7q0 -1 2 -1q10 45 41 98z
M43 357q20 28 22 31q12 17 42 51q-17 -8 -45.5 -45.5t-34.5 -59.5zM95 382q6 9 38 45q-16 -10 -41.5 -42.5t-30.5 -50.5q27 39 34 48zM111 156q24 47 52 109l42 94q2 4 2 8v2l-30 -66q-34 -76 -75 -160q0 -1 1 -1q7 12 8 14zM108 130l4 6q12 20 17 31l51 108l26 61l1 6
l-38 -81l-11 -25l-51 -106h1zM167 207.5q19 41.5 35 80.5l-72 -154q18 32 37 73.5zM187 -321.5q19 50.5 30.5 115.5t11.5 114q0 37 -8 55l-3 -2q-55 -62 -84.5 -117.5t-29.5 -116.5q0 -74 44 -108q20 9 39 59.5zM117 -136q-23 -42 -32 -87q22 58 32 87zM84 -195q6 18 20 54
q-11 -16 -23 -52t-10 -58q5 30 13 56zM193 -354.5q2 1.5 3 4.5l11 25q12 26 17 58q3 16 7 46q5 37 4 64v-8l-5 -38q-8 -50 -9 -55q-8 -42 -28 -90q-2 -3 -4 -9q0 -1 0.5 -1h0.5q1 2 3 3.5zM125 -159q-6 -7 -14.5 -30.5t-8.5 -31.5q14 35 23 62zM228 -325q11 31 11 48
l-33 -85q11 6 22 37zM239 -365q19 28 26 72l-27 -70v-2h1z" />
    <glyph glyph-name="h" unicode="h" horiz-adv-x="442" 
d="M234 -54q-15 0 -29.5 7.5t-34.5 20.5q-42 27 -42 96q0 39 11 85t33 116l9 30q4 13 4 32t-5 30t-14 5q-16 -13 -26 -30q-24 -38 -41.5 -116t-17.5 -129v-12q0 -10 -5 -13l-4 3q-3 -3 -6 -3q-5 0 -9 4h-4q-25 14 -37 53.5t-20 100.5q-10 75 -10 157q0 143 24.5 270.5
t69.5 169.5q16 16 37 16q20 0 38 -16q13 -13 21 -41t8 -54q0 -56 -34.5 -138.5t-80.5 -150.5l-16 -20l2 -95q4 -64 10 -96q2 2 2 5q8 64 37 115t66 51q21 0 43 -19q14 -14 19.5 -24t5.5 -28q0 -20 -7 -58t-25 -122q-1 -8 -5 -26q-7 -35 -7 -61q0 -51 23 -81q5 -5 11 -5
q22 0 62.5 66.5t115.5 211.5l37 70l13 -1l9 -6q-22 -40 -61 -126q-50 -108 -84.5 -167.5t-66.5 -72.5q-8 -4 -19 -4zM83 507.5q23 49.5 46 110t26 79.5q3 20 3 39q0 31 -7 53.5t-18 22.5q-10 0 -20 -20q-13 -25 -26 -92t-22 -138.5t-9 -98.5q4 -5 27 44.5zM69 787q2 5 21 34
q-11 -6 -22 -28t-16 -43q9 23 17 37zM102 817q-6 -3 -10.5 -9t-3.5 -11zM99 529q1 0 1 0.5v0.5l24 56q1 1 1 3q-2 -2 -4 -7q-4 -8 -10 -24l-13 -29l-16 -33v-2q11 18 17 35zM96 508q-24 -39 -31 -54q24 39 31 54zM5 496q-2 -6 -2 -10l-1 -11q0 -3 2 -9zM5 284q-1 10 -2 24
t-1 32q-1 20 -1 59q0 21 2 63v2q-1 -1 -1 -2.5t-1 -2.5l-1 -27q-2 -34 -2 -52q2 -54 4 -81q0 -8 2 -26q1 4 1 11zM131 358q-15 -14 -31.5 -59.5t-18.5 -72.5q16 75 50 132zM74 228q1 6 5 23.5t9 30.5q18 52 32 75q-15 -15 -34 -71.5t-17 -82.5zM133 338q-19 -29 -32 -82
q16 50 32 82zM144 102l6 34q9 44 28 106l15 45q2 8 2 13q-13 -32 -16 -44q-16 -54 -23 -82q-2 -6 -12 -58q-1 -4 -1 -14h1zM434 293l-44 -106q27 55 44 106z" />
    <glyph glyph-name="i" unicode="i" horiz-adv-x="249" 
d="M28.5 594.5q-16.5 11.5 -16.5 22.5q0 5 1 8l2.5 2.5t2.5 4.5q14 18 33 18q11 0 20.5 -6t16.5 -16q2 -2 2 -4t1 -3q-1 -15 -9 -26.5t-24 -11.5q-13 0 -29.5 11.5zM37 12q-40 18 -59 80.5t-19 145.5q0 68 11.5 129.5t30.5 95.5q5 8 13 8h4q-2 -5 -3.5 -9.5l-2.5 -7.5l2 -1
q3 3 10 18l10 -2q0 -5 1 -9l5 6q3 0 7 -2q20 -16 20 -34q0 -16 -11 -77q-1 -8 -10 -64t-9 -105q0 -45 10.5 -96t29.5 -51q16 0 36.5 27.5t47.5 79.5t89 179q13 0 16.5 -1t3.5 -3t2 -3q-28 -55 -51.5 -106t-28.5 -63q-38 -85 -58 -116t-44 -31q-33 0 -53 12zM-23 189
q1 14 2.5 41t3.5 47q5 39 12 78l6 35q-29 -121 -25 -229zM239 278q-2 -4 -8 -16.5t-9 -23.5q12 26 17 40z" />
    <glyph glyph-name="j" unicode="j" horiz-adv-x="236" 
d="M13 556q-6 0 -12 3.5t-8 4.5q-11 7 -13 17l-1 5q-3 5 -3 8q0 4 4 10q10 10 19 10q3 0 7 0.5t10 -0.5q10 0 17.5 -5.5t9.5 -6.5q5 -5 5 -11q-3 -19 -20 -25l-5 -1l-4 -8q-2 -1 -6 -1zM-74 -480q-21 0 -39.5 12.5t-28.5 35.5q-19 50 -19 96q0 58 27.5 114.5t82.5 127.5
q31 39 37 47l-2 77q-6 261 -6 315q0 76 4 83q3 9 13 9q4 0 6 1q9 2 11 -2q6 4 12 0q23 -12 26 -32q7 -25 10 -125.5t3 -220.5l1 -15q16 0 68.5 88.5t104.5 191.5q10 0 15 -3t7 -4q-35 -72 -89 -163t-106 -148q-6 -169 -14.5 -250.5t-26.5 -129t-55 -88.5q-17 -17 -42 -17z
M2 -26q0 192 -1 290v-290h1zM-35 -395q1 7 12 44q6 44 10 70q2 16 4 44l2 22q2 36 4 57q0 13 2 39q3 19 3 39q1 1 1 4l-1 8q-3 -4 -3 -12l-3 -29q-2 -16 -2 -26l-4 -45v-42q-1 -3 -3 -21l-8 -49q-2 -43 -19 -106v-5zM-48 -379q16 69 24 153t8 134l-2 1q0 -1 -3 -4
q-111 -131 -111 -241q0 -59 34 -111q5 -7 11 -10q23 9 39 78zM-137.5 -272q3.5 13 4.5 23q-9 -21 -9 -43q1 7 4.5 20zM-25 -404q14 31 19 57q2 9 3.5 17.5t3.5 17.5q1 17 7 58h-1t-1 1q-1 -8 -2.5 -16t-2.5 -16q0 -8 -4 -30q-2 -7 -3.5 -15t-3.5 -15q-6 -20 -8 -30l-9 -29h2
zM-152 -304l6 27q-5 -11 -6 -23.5t-1 -32.5q1 11 1 29zM21.5 -345q5.5 21 8.5 40.5t4 25.5q-14 -64 -29 -106q11 19 16.5 40z" />
    <glyph glyph-name="k" unicode="k" horiz-adv-x="420" 
d="M73 -18q-5 -3 -9 -3t-11 5l-9 4q-2 2 -3 2q-7 0 -11 9q-8 14 -20 44q-11 30 -14.5 48.5t-6.5 38.5t-4 28l-2 25q-4 42 -4 64q-2 50 -2 75q0 15 2 47l1 24l3 55q0 5 2 15q4 44 7 65q2 12 8 46l6 28q7 29 13 50q6 20 20 55t25 57q10 22 17 33q19 32 36 48q29 29 67 29
q31 0 52 -24q9 -12 13 -34q1 -6 1 -18q0 -21 -7 -49q-13 -49 -41 -95q-32 -58 -50 -86q-41 -69 -89 -117l-4 -5q-5 -34 -5 -133q0 -129 8 -150l7 41q11 68 24 113t37 82q14 24 34.5 36.5t40.5 12.5q23 0 38 -15.5t15 -44.5q4 -116 -130 -145q1 -1 14.5 -43t37 -91.5
t40.5 -60.5q8 -5 15 -5q29 0 67 60t95 173l24 47q7 -2 13 -2h3t3 -1t3 -4q-66 -143 -115 -222t-87 -79q-20 0 -47.5 11.5t-40.5 29.5q-18 26 -27.5 51t-31.5 107q-2 -7 -4 -19l-15 -90q-2 -12 -2 -19l3 -27l7 -34q1 -11 1 -33q0 -10 -9 -14zM63 480l3 3q31 38 63 86
q32 50 61 106q29 60 36 103q2 14 2 22q0 19 -6 38q-3 8 -8 11.5t-14 3.5q-25 -2 -40 -19q-18 -19 -26 -40q-3 -7 -10 -23t-11 -29q-7 -21 -19 -65l-7 -27q-4 -16 -10 -48l-9 -50q-2 -15 -4 -49q-2 -16 -2 -23h1zM8 526l7 40v9l3 8l6 28q18 70 47 139q22 49 47 82v4l-4 -5
q-11 -15 -20 -29q-23 -37 -42 -92q-21 -57 -30 -98q-2 -10 -7 -37l-9 -50zM112 803q6 10 11.5 18t9.5 14l-2 1q-12 -13 -20 -28t-18 -39q16 29 19 34zM137 812l10 16q-14 -14 -20 -31q4 5 10 15zM1 460q1 4 1 12h-2q-8 -98 -8 -147q0 -20 2 -58q0 103 7 193zM160.5 299.5
q26.5 25.5 42 54.5t15.5 51q0 16 -8 23q-32 0 -60 -46.5t-45 -106.5q0 -3 -2 -13q31 12 57.5 37.5zM223.5 362.5q4.5 16.5 3.5 27.5l-14 -54q6 10 10.5 26.5zM234 372q-2 -7 -14 -43q14 20 14 43zM248 359l-11 -33q9 13 11 33zM-5 261q-1 -2 -1 -16q0 -15 1.5 -30.5
t2.5 -19.5zM137 106l-38 131h-1l1 -8l32 -113q1 -2 5 -11q0 1 1 1z" />
    <glyph glyph-name="l" unicode="l" horiz-adv-x="366" 
d="M147 9q-53 0 -104 36q-11 8 -19 19q-27 34 -38 80q-14 50 -15 89v22q0 8 -0.5 19.5t0.5 26.5q1 19 5 52q2 17 8 59q2 15 8 45l13 64q7 35 20 78q4 16 8 28t7 20l17 46l12 27q18 34 28 51q3 5 24 37l9 11q11 18 26 31l24 23q18 15 37 23q16 6 31 6q24 0 45 -15
q33 -23 33 -68q0 -26 -10 -58q-15 -44 -45 -102l-38 -73q-47 -91 -102 -151q-19 -21 -35.5 -35t-38.5 -26q-2 -10 -4 -28q-2 -15 -4 -47q-1 -11 -1 -33q0 -31 4 -89q1 -10 8 -47q6 -30 13 -44q22 -52 64 -52q19 0 40 12q40 21 71.5 67.5t85.5 147.5q9 18 33 62l11 1
q9 0 11 -8l-31 -58q-66 -123 -101.5 -177t-71.5 -66q-18 -6 -38 -6zM118 771q33 56 79 101l-5 -4q-37 -29 -67 -77q-23 -40 -37 -68q-10 -19 -26 -59q-3 -7 -7 -21q30 72 63 128zM103.5 439.5q26.5 30.5 49.5 63.5t47 78q54 104 78 158q16 40 21 68q1 6 1 19q0 17 -4 30
q-3 12 -15 15q-2 1 -6 1t-7 -1t-5 -2q-13 -5 -25 -19l-24 -31q-5 -8 -14.5 -22.5t-15.5 -25.5q-19 -33 -33 -64q-24 -45 -30 -66l-7 -20q-2 -7 -7 -21t-8 -25l-20 -76q-2 -8 -4 -20l-7 -40l-7 -37q16 7 42.5 37.5zM220 872q-17 -9 -39 -34.5t-32 -47.5q21 30 71 82zM238 861
q-16 -11 -28.5 -27.5t-15.5 -21.5l1 -2q15 17 43 51zM42 597l-3 -2l-6 -24q0 -1 0.5 -1h0.5zM345.5 251q17.5 34 18.5 41l-43 -84q7 9 24.5 43z" />
    <glyph glyph-name="m" unicode="m" horiz-adv-x="660" 
d="M468 -30q-34 0 -62.5 23.5t-32.5 56.5q-3 21 -3 40q0 27 5 53.5t18 79.5q10 42 21.5 95.5t19.5 112.5q-2 -1 -4 -1.5t-3 -1.5q-22 -18 -36 -42q-30 -57 -35 -68q-8 -18 -32 -88q-25 -77 -45.5 -119t-45.5 -42q-9 0 -17 5q-21 11 -31 29q-6 20 -6 50q0 62 28 197
q11 54 12 66q5 20 3 41q-3 20 -3 22l-1 8l-7 -4q-12 -10 -26 -32q-17 -27 -28 -60l-13 -37l-18 -51q-15 -42 -33 -115l-7 -25q-4 -17 -11 -40q-3 -14 -8 -23q-9 -19 -23 -19q-7 0 -20 6.5t-27 15.5q-15 12 -21 32.5t-6 51.5q0 30 5 85q3 32 7 91q2 27 9 44q4 9 12 9l1 -5h1
q2 0 3.5 3t3.5 3h6q0 -3 2 -11q1 3 2.5 5t2.5 5q11 0 16 -10h5q6 -8 6 -22q1 -14 -4 -97q-8 -100 -8 -151l1 -2q2 2 2 3q14 40 20 60q19 67 41 128q25 74 36 101q14 30 24 46t28 34q11 7 21 7q5 0 8 -1q29 -5 42.5 -24.5t20.5 -55.5q3 -15 3 -31q0 -12 -3 -26q-3 -13 -7 -46
q-6 -24 -8 -40l-4 -20q-2 -9 -10 -51q-4 -19 -10 -55q-2 -9 -7 -47q0 -3 1 -5q2 2 2 3q12 24 14 29q8 22 14 40l14 40q43 111 66.5 156.5t55.5 73.5q11 11 29 11q21 0 35 -14q11 -11 18 -34t7 -45q-2 -28 -4 -41q-5 -29 -22 -97q-16 -63 -20 -86q-5 -25 -5 -68q0 -17 1 -22
q5 -33 12.5 -49t19.5 -16q17 0 47 46q15 24 59 121q53 113 79 164q5 2 11 2q4 0 7 -3.5t4 -5.5q-18 -36 -57 -131q-33 -82 -56 -127t-56 -72q-20 -16 -46 -16zM52 115.5q1 1.5 1 3.5q6 12 14 36q30 110 56 185q10 28 21 57.5t24 52.5v2q-5 -4 -7 -11q-2 -5 -5.5 -12
t-7.5 -16q-40 -99 -73 -218q-9 -42 -25 -79v-3q1 1 2 2.5zM48 127q10 26 12 32q42 143 75 234q2 7 14 35q-3 -4 -8 -15.5t-7 -18.5l-22 -58q-19 -54 -32 -100q-3 -9 -7 -27q-20 -65 -28 -85h0.5t0.5 -1zM196 201l12 65q9 39 11 53q4 19 10 57q1 8 2.5 17t2.5 17h-1
q0 -3 -3 -9q-5 -30 -17 -92q-2 -14 -8 -42l-4 -21q-4 -15 -8 -45q0 -3 1 -5zM261 115.5q3 5.5 4 7.5q3 9 23 64q42 127 95 219l1 2h-2l-11 -19q-43 -76 -75 -171q-26 -77 -41 -109l-1 -2q4 3 7 8.5zM-15 192l3 40q3 23 7 76l2 45l7 45q0 1 0.5 3t-1.5 5q-3 -6 -4 -7l-3 -27
l-3 -50q-1 -19 -5 -45l-3 -57q-1 -10 -0.5 -18t0.5 -13v3zM252 119q8 15 16 37l16 43l15 43q28 75 54 126l-4 -4q-3 -7 -21 -43q-22 -52 -44 -111q-10 -32 -21 -59l-8 -22q-5 -10 -7 -16q4 2 4 6zM388 61l2 58q3 37 10 65l33 138q2 8 4 19t4 19h-2l-1 -3q-2 -9 -5.5 -24
t-6.5 -25q-4 -18 -11 -43q-11 -40 -14 -53q-12 -44 -18 -120q0 -22 4 -34zM369 355q-2 -3 -6.5 -11t-6.5 -16zM648 250l26 69h-1q-16 -40 -26 -69h1zM416 176l17 81q-9 -16 -19.5 -70.5t-10.5 -82.5q0 -9 1 -11q3 41 12 83zM447 195l9 44q-8 -16 -17.5 -66.5t-6.5 -64.5
q3 29 15 87zM73 129.5q4 13.5 6 19.5h-1q-6 -14 -9.5 -24.5t-5.5 -17.5q6 9 10 22.5z" />
    <glyph glyph-name="n" unicode="n" horiz-adv-x="436" 
d="M232 14l-18 14q-15 9 -18 31q-1 11 -1 33q0 48 8 92.5t22 102.5q12 52 17.5 80t6.5 57q0 22 -6 38q-11 -3 -21 -11q-11 -10 -22 -28q-2 -4 -12 -21.5t-16 -34.5l-30 -84l-9 -34l-7 -25l-6 -22q-11 -40 -12 -44l-27 -90q-1 -3 -12 -25q-3 -6 -7 -9q-8 -6 -18 -5
q-16 3 -27 13l-16 12q-16 10 -19 30q-7 28 -7 77q0 48 11 176q7 64 8 101v2q1 13 15 12q1 -3 1 -12l8 12l9 -1v-13q3 1 4.5 4.5t3.5 4.5q6 0 10 -4.5t5 -5.5l1 -10l5 5q0 -1 0.5 -1h0.5l2 -8l-4 -75q-2 -30 -7.5 -131.5t-3.5 -106.5q29 74 55 175q19 69 35 108t55 88
q15 16 43 16q9 0 13 -1q30 -6 49 -29q12 -17 16 -38q3 -15 3 -29q0 -12 -4 -36l-3 -21q-2 -14 -4 -21q-10 -51 -21 -95q-9 -38 -18 -98q-2 -13 -2.5 -22.5t-0.5 -15.5v-11q0 -19 1 -28l4 -17l2 -1q33 15 59 58.5t67 135.5l44 95q10 -7 15.5 -6.5t6.5 -0.5l-36 -80
q-46 -102 -68.5 -146.5t-43.5 -67t-46 -22.5q-17 1 -33 14zM198 454q-21 -22 -42 -70q-19 -42 -29 -76q35 93 71 146zM48 89.5q1 1.5 2 4.5q12 26 22 62l26 90q9 33 33 97q20 53 51 103l2 4q-3 -2 -5 -5q-17 -25 -30 -54q-35 -76 -55 -147q-4 -16 -14 -48q-5 -22 -7 -26
q-9 -33 -26 -74q-2 -4 -2 -8h0.5t0.5 -1q1 1 2 2.5zM199 431q-1 0 -1 1q-19 -29 -28 -54zM339 92.5q1 1.5 2 4.5q22 37 45 95q4 13 16 39l32 64l3 6q-2 -1 -4 -5q-12 -20 -17 -31q-4 -8 -12.5 -26t-14.5 -32q-22 -59 -44 -98l-9 -18q0 -1 0.5 -1h0.5q1 1 2 2.5zM220.5 189.5
q0.5 2.5 0.5 3.5q9 44 16 74l3 16q-1 -1 -3 -4l-7 -29q-8 -42 -13 -64q3 1 3.5 3.5zM105 233q-8 -13 -8 -24zM57 80q2 6 5.5 14t6.5 18l9 26q3 13 7 23h-2l-6 -18q-5 -15 -7 -19l-6 -19q-6 -12 -8 -18q-1 -2 -4 -7.5t-4 -11.5q6 4 9 12zM74 70q5 14 6 25q-3 -9 -7.5 -19.5
t-8.5 -22.5q5 3 10 17z" />
    <glyph glyph-name="o" unicode="o" horiz-adv-x="469" 
d="M-13 34.5q-41 47.5 -37 134.5q7 66 23.5 121t46.5 109q16 28 40 38q12 6 25 6q8 0 17 -3q2 -1 8 -2t10 -7l-1 -6q6 2 7 2q4 -3 2 -10q-1 -4 -3.5 -13.5t-6.5 -16.5q-12 -26 -19 -39l-12 -25q-18 -38 -30 -90t-12 -97q0 -53 19 -84q14 -21 34 -21q13 0 23 5q36 14 70 54.5
t51 90.5q-60 16 -89 68t-29 119q2 49 29 85q13 17 30.5 26t37.5 9q30 0 56.5 -19t38.5 -52q11 -32 11 -70q0 -29 -5 -55t-13 -59l-5 -20q42 0 86.5 22.5t79.5 87.5l12 2q6 0 10 -9q-64 -126 -196 -130q-31 -93 -77 -144.5t-114 -51.5q-77 -3 -118 44.5zM268 260q13 54 13 90
q0 43 -14 76.5t-36 33.5q-17 0 -34 -21q-31 -35 -31 -87q0 -49 17.5 -91t68.5 -52zM159 425q-11 -15 -13 -41zM146 421q-13 -22 -12 -49zM46.5 257.5l0.5 0.5l2 5q18 54 52 116l12 25q1 1 2 4t1 4q-1 1 -3 1l-13 -25q-22 -41 -35 -70.5t-20 -61.5zM45 403q-27 -35 -45 -83
q-31 -88 -31 -166q0 -23 1 -34q3 149 75 283zM6 235q12 50 23 75l43 93q-16 -14 -32.5 -50t-27.5 -76t-11 -63zM263 208q10 30 19 71t9 67l-3 -22q-1 -10 -5 -32q-1 -3 -13 -50l-9 -34h2zM275 207q6 14 13 42.5t8 41.5l-11 -42q-9 -30 -12 -42h2zM261.5 167.5
q5.5 13.5 4.5 19.5l-15 -40q5 7 10.5 20.5z" />
    <glyph glyph-name="p" unicode="p" horiz-adv-x="579" 
d="M37 -377h-2q-6 0 -11 7q-4 8 -7 12q-17 36 -21 67q-11 115 -17 209.5t-6 194.5q0 152 15 309q0 13 5 20q4 7 15 7q-4 -15 -5 -20h2q2 7 8 21l9 -1l1 -9l6 7q3 0 5 -1q19 -13 23 -24q4 -18 5 -28q0 -50 -1 -75q0 -50 -1 -75q0 -11 -2 -29l-1 -46q-2 -41 -4 -121
q-2 -66 -2 -100q0 -17 2 -49l1 -24l4 -36q0 -3 2 -9l2 15l9 80l3 23q1 9 3.5 32t6.5 40q6 38 17 96q6 37 30 121q22 75 42 121q26 51 41 76.5t33 43.5q7 8 25 22q12 6 24 6q7 0 23 -4q34 -12 58 -50q14 -24 25 -65q9 -40 10 -70l5 -93q45 3 90 29.5t73 69.5h2l10 1
q5 0 10 -8q-23 -41 -50 -65t-58 -37t-78 -25l-1 -15q-3 -25 -3 -41q-1 -15 -10 -64q-10 -63 -44 -102.5t-71 -39.5q-22 0 -41 16t-31 49q-4 14 -4 24q0 46 41.5 102.5t87.5 86.5q3 33 3 58q0 29 -3 65q-4 72 -23 146q-7 0 -11 -1q-8 -1 -18 -11q-20 -20 -31 -39
q-13 -21 -37 -67q-14 -29 -29 -78q-17 -49 -33 -127q-6 -30 -16 -92q-6 -33 -9 -66q-6 -52 -10 -79q-3 -20 -7 -55l-8 -83q-1 -8 -6 -46.5t-11.5 -69t-14.5 -36.5q-5 -5 -14 -5q-10 0 -12 4q-5 -5 -10 -1q-1 1 -3 1zM77 -294v3l5 55q2 46 4 69l3 24l10 76l9 85q14 84 23 125
q19 88 39 147q30 90 85 169q1 0 1 2q-20 -22 -27 -35q-32 -52 -55 -117q-32 -92 -52 -194q-11 -51 -18 -102q-3 -35 -9 -69q-3 -34 -7 -58q-4 -29 -8 -85l-6 -81l1 -14h2zM260 441q-38 -53 -60 -114q30 65 60 114zM30 -278q0 4 -1 6l-4 33l-9 77q-6 84 -6 127q0 15 2 49
q2 32 2 48q3 77 3 153q0 1 -0.5 3.5t0.5 4.5q-2 -4 -2 -5q-4 -58 -5 -86l-2 -56q0 -38 -1 -57q-1 -16 -1 -49q0 -63 7 -119l9 -78q2 -20 4 -31l3 -20h1zM43 -137q0 5 -1 7l-1 17q0 16 -1 24q0 6 -0.5 14.5t0.5 19.5q0 29 2 87q0 16 2 50l1 25q-1 17 -0.5 29t0.5 20v24v27
q-1 -1 -1 -4l-3 -52l-4 -134v-31v-61l3 -53q0 -3 2 -9h1zM92 -296q2 16 2 25l3 20q1 8 3 19t3 25l3 50l14 105q6 60 10 85l10 68l6 26q4 15 5 25l4 20q-8 -27 -9 -32q-12 -62 -21 -123q-2 -26 -8 -68l-4 -34q-7 -47 -15 -145q-4 -36 -7 -55v-11h1zM312.5 32.5
q9.5 29.5 17.5 86.5q2 21 4 30q-28 -18 -48.5 -54t-20.5 -71q0 -24 12 -45q26 24 35.5 53.5zM327 21q9 18 14 45q7 35 7 62q0 -7 -2 -19l-4 -18l-4 -19q-4 -12 -5 -18l-6 -18l-6 -16q-6 -12 -6 -17zM250 76q-14 -18 -13 -33q6 12 13 33zM234 72q-7 -9 -11 -23t-1 -20z
M265 65q-5 -7 -7 -12t-2 -12zM347.5 21q6.5 18 8.5 36l-26 -63q11 9 17.5 27zM381 34l-2 2q-16 -43 -18 -49l2 -1q13 22 18 48z" />
    <glyph glyph-name="q" unicode="q" horiz-adv-x="462" 
d="M178 -424q-30 9 -48 31t-27 53t-19 84q-3 25 -3 58q0 52 6 112t14 100l12 59q2 9 4.5 17t4.5 14q1 3 1 11q-12 -12 -19 -17q-13 -11 -25 -18q-15 -10 -28 -14q-9 -3 -17 -3q-15 0 -29 8q-8 4 -21.5 14t-20.5 17q-24 20 -24 69q0 48 21.5 109t54.5 111t64 66q18 9 37 9
q26 0 49 -14q17 -10 32.5 -35.5t19.5 -48.5l2 -14l16 -12q14 -10 17 -14.5t2 -14.5l-4 -21q-8 -46 -11 -58l-9 -34l-14 -53l-21 -73q-11 -42 -27 -141q-2 -14 -4.5 -52.5t-3.5 -59.5q0 -97 10.5 -148.5t46.5 -74.5q7 -4 13 0q28 19 46 48q25 45 40 108q11 45 14 86
q2 24 2 34q0 55 -15 103t-50 133l-5 24q21 10 63.5 43.5t81.5 73.5t56 72q5 5 10 5q4 0 7.5 -4t4.5 -8q-47 -73 -84 -109.5t-85 -70.5l-24 -18q7 -15 13 -24q22 -32 40 -87q16 -49 22 -103q1 -12 1 -35q0 -44 -7 -82q-9 -50 -26 -99q-19 -54 -49 -87t-65 -33q-17 0 -43 8z
M70 432h-2q-2 -2 -3 -2q-23 -22 -43 -55q-40 -66 -58 -154q-1 -1 -0.5 -1.5t0.5 -1.5q29 121 106 214zM49 372q7 11 41 54l-4 -2q-21 -16 -32 -35l-28 -50q-5 -8 -7.5 -14t-4.5 -10l1 -1q22 40 34 58zM64 128q44 35 72 81q10 16 46 78l12 21q4 6 15 31q-9 7 -15 24
q-10 28 -24 49l-6 9q-28 6 -73 -59q-40 -61 -55.5 -111t-15.5 -113l1 -30q24 4 43 20zM115 409q-20 -14 -34 -34.5t-27 -48.5q19 33 61 83zM192 262l10 25h-0.5t-0.5 1q-2 -4 -6 -11.5t-5 -14.5h2zM157 222q7 10 9 21l-19 -33q0 -1 0.5 -1h0.5q2 3 9 13zM112 -318v4
q-10 44 -12 119q0 73 14 176q10 66 32 139l11 34l-2 2q-1 -2 -3 -4.5t-3 -6.5q-13 -39 -21 -71q-5 -20 -13 -60q-2 -9 -4.5 -21.5t-4.5 -29.5q-10 -76 -11 -115v-44q0 -59 11 -107q2 -6 2 -9l3 -9q1 1 1 3zM119 -220q0 74 8 159q9 84 40 195q-10 -29 -18 -62q-5 -18 -10 -44
l-5 -22q-10 -52 -17 -120q-3 -32 -3 -64q0 -33 3 -64l3 -26q-1 16 -1 48zM149 -210q0 92 12 185q-16 -83 -16 -157q0 -38 5 -85q-1 19 -1 57zM340 -132q0 36 -7 67q5 -40 5 -72q0 -15 -2 -43q4 21 4 48zM350 -135q0 15 -3 32l-3 -87q6 38 6 55zM364 -135q0 12 -2 20l-1 -53
q3 16 3 33z" />
    <glyph glyph-name="r" unicode="r" horiz-adv-x="409" 
d="M72 3q-30 37 -30 92q0 36 19 94.5t45 114.5q15 31 36 71q16 30 21.5 42.5t5.5 24.5q0 13 -10 26.5t-35 36.5q-7 -16 -53 -100q-38 -68 -48 -89q-8 -4 -12 -4q-5 0 -6.5 5t-3.5 6q7 16 20 39.5t20 37.5q25 45 39 72.5t22 53.5q-25 20 -38.5 45t-13.5 46q0 17 8.5 27
t23.5 10q30 0 48.5 -22t18.5 -53q0 -22 -8 -38q48 -48 66.5 -72t18.5 -47q0 -21 -16 -46q-28 -71 -42 -100q-24 -51 -38 -91q-24 -66 -24 -113q0 -69 51 -69q5 0 17 2q36 7 110.5 113.5t125.5 204.5q5 5 10 5q6 0 12 -12l-29 -55q-45 -88 -81.5 -148.5t-82.5 -105t-93 -41.5
q-44 0 -74 37zM60 118l2 16q7 37 20.5 72.5t33.5 80.5l43 95q11 23 15 46q0 6 1 8q-3 -7 -6 -14.5t-7 -15.5q-10 -29 -44 -105l-18 -40q-21 -49 -29 -74q-10 -32 -13 -60q0 -2 -1.5 -10t0.5 -14zM80 144q3 7 7 21q21 63 48 123q2 5 5 11l6 12q4 9 12.5 28.5t14.5 35.5
q4 14 8 23l-3 1l-1 -4l-47 -106q-17 -37 -27 -62t-17 -52l-9 -35q1 -2 2 -2zM117 175q14 40 39 96l31 71q2 4 4 10.5t5 14.5h-2q0 -2 -1.5 -3.5t-1.5 -3.5q-3 -6 -7 -15.5t-7 -14.5q-23 -54 -44 -99q-14 -34 -26 -79v-4q4 7 10 27z" />
    <glyph glyph-name="s" unicode="s" horiz-adv-x="280" 
d="M31 -127q-35 0 -59 23.5t-24 60.5q0 34 14.5 61t40.5 52q14 15 44 41l7 7q-2 10 -7 27t-9 30l-29 75l-23 61q-10 30 -10 58q0 32 14 53q10 15 27 22.5t36 7.5q32 0 57 -17q27 -18 36 -47.5t7 -72.5q-2 -16 -4 -21q0 -4 -4 -12q-6 0 -8 1l-8 7l-2 27q-4 45 -21 74.5
t-40 29.5q-30 0 -30 -47q0 -53 35 -140q12 -27 20.5 -48.5t9.5 -22.5q42 18 102 70.5t78 89.5l12 1q5 0 10 -8q-26 -47 -86 -101t-106 -79q11 -44 17 -73.5t6 -57.5q0 -21 -5 -44q-7 -33 -24 -55t-48 -30q-14 -3 -26 -3zM9 427q-13 -8 -15 -26q12 19 15 26zM25 425q0 1 -1 1
q-10 -7 -10 -18zM45.5 -79q6.5 10 13.5 29q7 20 8 36q1 9 1 28q0 30 -4 54l-3 21q-1 -2 -6.5 -6t-10.5 -10q-55 -50 -66 -104q-1 -5 -1 -15q0 -25 15 -44q9 -12 20 -12q6 0 13 4q14 9 20.5 19zM82 -6q0 15 -1 23q0 -35 -14 -84q15 24 15 61zM-26 12q-12 -18 -12 -40
q11 36 12 40zM-37 5q-9 -20 -11 -46q7 24 11 46zM94 -28q-5 -11 -8 -21.5t-6 -19.5q14 14 14 41zM118 -40h-2q-2 -11 -10 -31q10 9 12 31z" />
    <glyph glyph-name="t" unicode="t" horiz-adv-x="339" 
d="M131 -13q-29 0 -58.5 20.5t-50.5 53.5t-25 69q-11 86 -11 153q0 29 1 45q11 178 34 311v4l-31 -10q-90 -26 -132 -34q-17 -3 -33 -3q-19 2 -29.5 9.5t-15.5 27.5l6 9q13 -3 15 -15q8 -2 12 -2l11 1q7 1 20.5 3.5t23.5 5.5q72 20 107 32l53 19l36 160q5 20 16 31q7 7 14 5
q-2 -6 -4 -8q-6 -8 -8.5 -18.5t-3.5 -13.5q-12 -54 -19 -81q-2 -8 -2 -14l1 -1q2 8 2 10l18 74q7 27 18 46l4 7l7 -1l2 -7q2 2 6 4q24 -11 24 -40q0 -36 -23 -128h7q44 11 83 17q46 6 70 6l20 -1q4 0 50 -6l11 -13q4 -4 0 -10l3 -2l-2 -2q-2 -1 -5 -2t-7 -1l-29 1
q-9 1 -27 1q-26 0 -56 -5l-79 -15l-43 -9l-2 -1l-6 -28q-5 -23 -10 -59l-8 -48q-5 -37 -11 -101.5t-7 -84.5q-2 -50 -2 -77q0 -117 18 -193q7 -28 18 -43q9 -12 16 -12q5 0 12 3q35 14 55 30.5t36.5 43t48.5 90.5q48 94 70 133l5 2q6 0 17 -9q-23 -45 -51 -106
q-31 -69 -52.5 -110t-48.5 -71.5t-59 -38.5q-10 -3 -20 -3zM22 525q6 44 10 66l9 53v5q-5 -8 -13.5 -64.5t-7.5 -66.5zM304 218.5q38 78.5 39 87.5l-86 -176q9 10 47 88.5zM318 270l-1 1l-36 -75q18 31 37 74zM272 175l-2 1l-12 -23l2 -1z" />
    <glyph glyph-name="u" unicode="u" horiz-adv-x="554" 
d="M276 -6q-21 11 -32 36q-11 23 -11 72q0 54 11 114q0 2 -2 4l-13 -23q-26 -47 -61.5 -90t-65.5 -57q-18 -9 -36 -9q-27 0 -51.5 17t-39.5 46t-15 62q0 62 25.5 151t58.5 129q16 19 35 24l20 -6l9 -12q0 -4 0.5 -10.5t-0.5 -11.5l-15 -77l-24 -102q-13 -51 -19 -80t-6 -52
q0 -22 8 -43l3 -3q25 -4 72.5 44t75.5 98q23 40 67 122l7 10l26 -10q10 -8 11 -15q9 -28 12.5 -54.5t3.5 -58.5t-1 -51l-1 -78q0 -41 5 -61q1 -1 1 -3t2 -4q31 15 55 41t47 63.5t66 115.5l51 91q6 0 9 0.5t4 0.5q2 0 4 -2.5t5 -5.5q-46 -83 -64 -117q-45 -83 -71.5 -126
t-54 -70.5t-56.5 -27.5q-16 0 -34 9q-7 4 -21 10zM81 446q1 2 4 5.5t3 7.5q-8 -6 -10.5 -14t-3.5 -10q3 3 7 11zM-18 202l23 102q11 49 45 118q3 6 9 15.5t10 16.5q-13 -8 -22 -26q-28 -52 -44 -117l-19 -82q-2 -11 -4 -35z" />
    <glyph glyph-name="v" unicode="v" horiz-adv-x="347" 
d="M66 -30q-29 0 -57.5 21t-37.5 51q-10 37 -10 128q0 70 6 134.5t16 90.5q2 7 8.5 11t14.5 4q4 -1 7 -0.5t6 0.5l-3 -13h2q1 4 5 10h2q10 -3 17.5 -12.5t7.5 -20.5q0 -34 -6 -104q-7 -63 -7 -109q0 -82 27 -155q29 14 62 89.5t45 137.5q-33 21 -54 60.5t-21 79.5
q0 37 19 65q16 26 45 26q15 0 30 -9q20 -12 29 -33q13 -29 13 -61q0 -31 -12 -83q-1 -6 -2 -13t-3 -14q4 -1 14 -1q30 0 64.5 19t54.5 54q1 1 4 1q5 0 12.5 -3t5.5 -5q-26 -46 -63 -69t-77 -23q-14 0 -20 1q-32 -111 -53 -164.5t-55 -78.5q-13 -12 -36 -12zM191 349
q0 46 -11 73q-2 5 -8 15l-6 -3q-10 -7 -16 -19q-14 -24 -14 -60q0 -25 8 -49q4 -11 15.5 -27t18.5 -20q13 39 13 90zM113 409l9 23q-13 -14 -15 -46zM133 430l-1 1q-9 -9 -11 -27zM-6.5 369.5q3.5 17.5 9.5 30.5q-7 -4 -9 -12l-4 -29l-2 -16q2 9 5.5 26.5zM195 287.5
q5 26.5 3 33.5l-14 -68q6 8 11 34.5zM202 280h-2l-7 -31l2 -1q4 22 7 32zM-20 255q-5 -35 -5 -85q0 -37 2 -56zM169 185.5q13 42.5 12 49.5q-16 -49 -31 -102q6 10 19 52.5zM176 175q14 47 13 55q-12 -37 -34 -113q7 11 21 58zM203 225l-29 -100q18 44 29 100z" />
    <glyph glyph-name="w" unicode="w" horiz-adv-x="640" 
d="M282 -49q-32 0 -59 19t-43 51t-16 69q0 11 1 17q0 6 2 20q2 22 1 25q-10 -20 -25 -45t-23 -36q-15 -18 -16 -19q-25 -22 -51 -22q-19 0 -43 11q-30 14 -44 51t-14 89q0 51 12.5 106.5t33.5 100.5q4 7 19 16q2 2 8 2l13 -1l-9 -21q0 -1 2 -1l5 10l6 11q13 -6 18 -18
q4 -12 4 -28q0 -13 -1 -19q-4 -55 -23 -138q-15 -69 -15 -93q0 -29 13 -42q30 4 55.5 41.5t67.5 121.5q7 13 23.5 46t32.5 61q1 4 17.5 1t19.5 -8l-5 -33q-15 -85 -22 -134t-7 -92q0 -88 42 -88q6 0 9 1q47 11 89.5 69.5t62.5 120.5q-57 11 -93.5 55t-36.5 97q0 47 31 87
q23 30 61 30q34 0 66 -24t44 -61q6 -18 6 -41q0 -22 -4.5 -46.5t-15.5 -67.5q41 -1 85 30.5t75 90.5q4 8 10 8q4 0 7.5 -4.5t4.5 -10.5q-46 -86 -92 -112.5t-72 -28.5t-27 -3q-24 -48 -28 -57q-33 -68 -56 -101.5t-60 -51.5q-25 -11 -46 -11zM443 231q16 55 16 95t-21 68
q-11 17 -30 17q-41 0 -58 -43q-8 -19 -12 -50l-1 -16q0 -89 95 -104zM334 409q-18 -15 -23 -42q7 14 23 42zM-23 258q11 45 20 75t22 59q-8 -4 -12 -13q-2 -5 -4.5 -11.5t-4.5 -14.5q-14 -45 -26 -110l-3 -17zM181.5 246.5q34.5 69.5 35.5 78.5l-26 -52l-52 -104
q8 8 42.5 77.5zM144 154q5 10 20.5 38t25.5 53l-21 -39q-30 -58 -36 -71zM171 171l-2 1l-18 -36q0 -1 2 -1zM408.5 114.5q22.5 44.5 23.5 56.5l-1 -1q-8 -21 -20.5 -45t-25.5 -46l-10 -18v-1q11 10 33.5 54.5zM438 153l-63 -114q39 53 63 114zM444 127q-26 -48 -38 -72h0.5
t0.5 -1q26 45 37 73z" />
    <glyph glyph-name="x" unicode="x" horiz-adv-x="462" 
d="M246.5 -22q-12.5 2 -19.5 3q-26 5 -40.5 21t-22 39t-16.5 69l-11 52q-45 -70 -61 -98t-35 -78l-6 -2q-2 1 -5 2t-6 3q-2 4 -2 9q0 25 31 80t78 130q1 1 2 2.5t1 3.5q0 200 -11 222q-28 3 -52.5 -31.5t-47.5 -88.5h-11q-5 0 -7 1.5t-4 5.5l16 30q31 61 51.5 88t48.5 27
q18 0 38 -13q31 -20 40 -48t12 -82l2 -15q39 44 124 121q2 0 4.5 0.5t4.5 -0.5q1 -3 3 -2.5t3 0.5l7 -8l-8 -10l-60 -59q-27 -27 -50 -53.5t-27 -31.5q2 -103 19 -173.5t45 -88.5q6 -3 11 -3q12 0 24.5 20.5t41.5 79.5q54 115 112 221l22 -7l-55 -128q-45 -105 -60 -135
t-34 -49q-28 -28 -67 -28q-10 0 -22.5 2zM440 257q0 1 -0.5 1h-0.5l-15 -35l2 -1zM186 93q-4 25 -5 35q-1 6 -2.5 17t-3.5 18q-2 -7 -1 -18q1 -6 4.5 -36.5t12.5 -56.5q1 -4 3.5 -12t5.5 -14z" />
    <glyph glyph-name="y" unicode="y" horiz-adv-x="475" 
d="M221 -553q-15 0 -30 3q-26 5 -45 18q-16 11 -29 33q-15 30 -23 69q-4 37 -5 53q-1 6 -1 18q0 16 4 46q11 51 29 91q15 33 32.5 62.5t51.5 82.5l36 53l3 4q-10 50 -33 156q-11 42 -15.5 68t-5.5 62v3l-6 -9l-12 -25q-23 -51 -37.5 -74.5t-40.5 -40.5q-11 -7 -27 -7
q-19 0 -39 10.5t-32 26.5q-14 20 -22 49q-4 19 -4 57q0 49 8 101.5t21 77.5q3 5 12 5q10 0 35 -7q3 -13 3 -52q0 -50 -4 -88q-3 -45 -3 -75q0 -32 4 -51t14 -31q13 5 25.5 16t21.5 23q16 19 36.5 61.5t35.5 81.5q7 15 15 45l3 10q3 10 16 9q8 0 19 -36.5t18 -67.5
q9 -29 15 -62q5 -18 10 -49q3 -10 7 -32l14 -56q2 -12 4 -18l3 3q12 18 27 38q120 168 146 221l11 1q4 0 5.5 -3t5.5 -5q-44 -84 -80 -137.5t-76 -104.5q-13 -15 -28 -36l-6 -10l4 -23l13 -62q5 -24 11 -72q3 -14 5 -42q4 -32 5 -47q1 -8 3 -30t1 -40q2 -49 -7 -95
q-7 -54 -30 -102q-4 -11 -15 -28q-20 -29 -61 -39q-5 -1 -16 -1zM0 395l11 39q-8 -6 -14 -32.5t-4 -43.5zM-11 303q1 6 2 13.5t1 17.5l-1 10q-2 -26 -4 -41h2zM183.5 296q4.5 11 4.5 16l-13 -32q4 5 8.5 16zM203 284q-1 -3 -1 -10q0 -18 4 -26zM256 -3l1 2l-32 136
q6 -36 15 -72q10 -44 14 -66h2zM283 -401q1 6 4 20t4 25q5 33 5 61q0 13 -2 37q-5 58 -12 116q0 4 -12 76l-5 26l-2 4q-2 -2 -1.5 -4t0.5 -3q2 -10 2 -15q7 -30 15 -94l7 -72q4 -36 4 -82q0 -40 -9 -101q2 4 2 6zM216 -525q24 15 36.5 54t19.5 100q5 34 5 83q0 39 -7 100.5
t-16 111.5q-2 14 -4 19h-1l-1 -0.5t-1 -1.5l-26 -38q-5 -8 -26.5 -43.5t-36.5 -68.5q-15 -32 -29 -78q-7 -29 -7 -64q0 -17 1 -26q3 -44 17 -77q11 -30 24 -47q18 -19 40 -25q5 -3 12 1zM312 -329q1 9 1 28q0 20 -1 35t-2 26l-2 20l-2 12q0 5 -2 11q4 -35 4 -78
q0 -67 -11 -139q12 36 15 85zM330 -398q12 48 10 100q1 18 -2 41l-3 33h-1q1 -10 2 -24t1 -32q0 -11 -2 -33q-1 -29 -7 -87zM104 -333q-2 -20 -2 -29q0 -28 6 -53zM117 -339q-1 -3 -1 -15q0 -13 1 -26t3 -20zM97 -379.5q-2 32.5 -2 39.5q-1 -4 -1 -18q0 -23 3.5 -50.5
t7.5 -33.5q-6 30 -8 62.5z" />
    <glyph glyph-name="z" unicode="z" horiz-adv-x="560" 
d="M432 -15q8 -40 8 -75q0 -23 -2 -34q-5 -37 -18.5 -82.5t-28.5 -76.5q-16 -35 -31 -61q-21 -40 -52.5 -78.5t-62.5 -65.5q-38 -35 -92 -35q-37 0 -55 21t-18 58q0 57 33 129q31 71 96 157l64 83l45 58l45 55l6 7l-6 27q-9 36 -27 57q-28 32 -68 32q-32 0 -65 -20t-57 -51
q-6 -8 -10 -12q-1 -2 -3 -3t-3 -2v2q0 2 1.5 5.5t0.5 6.5l-8 -10h-7l-7 4l3 9l36 69q25 47 54 122l24 62q0 1 0.5 2.5t-0.5 4.5q-1 -3 -2 -5.5t-2 -4.5q-20 -59 -73 -163l-13 -26q-14 -28 -20 -42q-2 -4 -7 -18l-3 -5h-2q-4 0 -6 6q-9 0 -10 9l6 22q3 16 12.5 37t18.5 40
q5 8 17 35q19 41 44 104q16 38 23 59t10 48q1 17 -0.5 26.5t-7.5 23.5q-4 11 -18 11q-34 2 -64 -19.5t-51 -55.5q-21 -32 -56 -116h-6q-10 0 -16 7q9 18 13 30q24 58 46 92q23 35 56 59q33 23 68 23q27 0 46 -16q36 -30 42 -69q3 -22 3 -42q0 -33 -8.5 -61t-31.5 -85
l-11 -28q-5 -13 -27 -59l-5 -10l10 4q38 13 69 13t57.5 -15t53.5 -48q6 -8 10 -14.5t7 -11.5l6 7q18 17 53.5 69t65 99.5t37.5 62.5l12 1q6 0 10 -8q-32 -58 -54.5 -92.5t-55.5 -80.5q-25 -34 -51 -71q-3 -5 -11 -15l3 -9q11 -29 18 -63zM226 405q0 -1 -0.5 -1.5t-0.5 -1.5
q-3 -7 -5 -15t-5 -15l-26 -65q-10 -26 -44 -98q-16 -32 -23 -48l-14 -33q-5 -15 -7 -19l1 -5h2l3 8q18 42 28 62q5 12 10 21.5t9 17.5q35 76 60 143q9 25 12 49zM534 251l2 -1l14 24q0 1 -0.5 1h-0.5zM179 155q15 26 42 93q4 12 7 18h-2q-15 -35 -57 -120v-0.5t1 -0.5
q4 1 9 10zM273 -353q41 78 48 95q24 60 35 103t14 99q1 14 1 42q0 10 -1 17l-5 -6l-28 -35l-22 -27q-44 -54 -64 -81q-55 -73 -92 -140q-30 -52 -43 -101q-7 -28 -7 -50q0 -32 13 -48q5 -6 14 -9.5t15 -1.5q21 10 25 13q27 16 77 97q9 13 20 33zM316 -304q61 108 66 205
q-14 -91 -66 -205zM316 -343l43 81q17 38 26 74q2 14 4 19q-26 -67 -41 -103t-36 -73l2 -1q0 1 2 3zM412 -190l-17 -44q-22 -60 -37 -88q37 61 54 132zM105 -369q-5 -10 -9 -27.5t-2 -22.5q8 34 11 50zM85 -438l9 57q-10 -31 -9 -57z" />
    <glyph glyph-name="braceleft" unicode="{" horiz-adv-x="288" 
d="M194 46q-10 6 -23.5 16.5t-20.5 15.5q-25 19 -36 50q-8 23 -10 49q-1 23 -1 69v65q0 31 -10 68q-2 6 -8 18q-13 24 -18 31q-1 2 -4.5 5t-5.5 6l-6 4l3 7l-1 2q-5 5 -2 13l12 28q1 3 11 20q18 24 25 37q18 34 25 51q3 7 13 34l8 22q1 4 15 28q9 18 34 41h1q8 8 17 8
q6 0 12 -3l5 -6l-3 -6q-12 -20 -15 -43q-4 -39 -15 -78q-10 -36 -28 -68q-26 -44 -39 -59q-4 -5 -8 -9t-7 -8l-10 -9l4 -3q25 -15 41 -44q14 -27 18 -56q4 -30 5 -45q0 -22 -1 -33v-59q0 -37 3 -56q5 -25 14 -41q2 -5 14 -29q2 -6 10 -13q2 0 8 2v-6q4 2 6 4l7 -5l-1 -8l5 5
q1 0 1 -0.5v-0.5v-3q0 -7 -5 -12t-12 -5q-15 1 -27 9zM193 696q4 8 7 12l6 10q-16 -14 -20 -33zM65 463l1 2l12 21q10 18 16 26q6 10 14 20q23 35 43 96q15 46 34 76l2 4q-18 -18 -28 -47q-17 -48 -22 -61q-17 -42 -46 -86q-18 -26 -28 -45q0 -3 -2 -7q3 -1 4 1zM82 465
l31 44q25 35 36 68l1 4q-16 -32 -54 -87l-21 -32q5 -1 7 3zM149 516.5q18 30.5 19 41.5l-48 -80q11 8 29 38.5z" />
    <glyph glyph-name="bar" unicode="|" horiz-adv-x="205" 
d="M103 42h-2l-2 -16q-2 2 -6 2q-3 9 -3 13q-4 -5 -4 -10q-6 0 -10 8q-10 29 -11 49q-4 37 -4 85q0 28 2 82q0 48 3 94q0 34 2 98q-1 9 -0.5 17t-0.5 16v57q-1 13 -1 36q-2 14 -2 22q-8 56 -11 85q-1 5 -2 11.5t-1 15.5q0 4 2 14q3 8 10 22q2 3 7 4.5t7 1.5q-1 -4 -6 -15.5
t-2 -19.5q2 2 2.5 6t1.5 5l4 12l4 12q2 1 8 1l2 -8q4 5 6 7q17 -7 24 -19q9 -18 12 -37q1 -6 5 -23l6 -29l7 -66q1 -8 1 -21t1 -22l3 -52q-1 -21 -1 -61q0 -30 -1 -45q0 -37 -1 -55q0 -22 -1 -33l-1 -34q-2 -58 -4 -86l-6 -88q-1 -10 -5 -35q-1 -11 -7 -18l-4 2
q-6 -4 -11 -4q-3 0 -9 2zM84 59q0 8 -1 21t0 21q-1 15 -1 46q0 29 2 85l1 43q0 52 2 158q0 3 -0.5 8.5t0.5 13.5q-2 -2 -3 -5t0 -5q-2 -33 -2 -97l-7 -165q0 -18 2 -58q2 -26 2 -40q0 -6 1.5 -13.5l2.5 -12.5h1zM101 154q2 53 4 163l-1 1q-3 -14 -4.5 -78t-1.5 -120
q0 -42 1 -45zM130 84.5q1 13.5 1 19.5l2 44q2 28 2 43l1 45l1 28q0 9 -1 14l-12 -216l3 -3q2 12 3 25.5z" />
    <glyph glyph-name="braceright" unicode="}" horiz-adv-x="288" 
d="M54 43.5q-5 6.5 -4 13.5v0.5t1 0.5l5 -5l-1 8l7 5q2 -2 6 -4v6q6 -2 8 -2q8 7 10 13q12 24 14 29q9 16 14 41q3 19 3 56v59q-1 11 -1 33q1 15 5 45q4 29 18 56q16 29 41 44l4 3l-10 9q-3 4 -7 8t-8 9q-13 15 -39 59q-18 32 -28 68q-11 39 -15 78q-3 23 -15 43l-3 6l5 6
q6 3 12 3q9 0 17 -8h1q25 -23 34 -41q14 -24 15 -28l8 -22q10 -27 13 -34q7 -17 25 -51q7 -13 25 -37q10 -17 11 -20l12 -28q3 -8 -2 -13l-1 -2l3 -7l-6 -4q-2 -3 -5.5 -6t-4.5 -5q-5 -7 -18 -31q-6 -12 -8 -18q-10 -37 -10 -68v-65q0 -46 -1 -69q-2 -26 -10 -49
q-11 -31 -36 -50q-7 -5 -20.5 -15.5t-23.5 -16.5q-12 -8 -27 -9q-8 0 -13 6.5zM82 718l6 -10q3 -4 7 -12l7 -11q-4 19 -20 33zM225 469q-10 19 -28 45q-29 44 -46 86q-5 13 -22 61q-10 29 -28 47l2 -4q19 -30 34 -76q20 -61 43 -96q8 -10 14 -20q6 -8 16 -26l12 -21l1 -2
t4 -1q-2 4 -2 7zM192 494q-38 55 -54 87l1 -4q11 -33 36 -68l31 -44q2 -4 7 -3zM120 558q1 -11 19 -41.5t29 -38.5z" />
    <glyph glyph-name="asciitilde" unicode="~" horiz-adv-x="436" 
d="M339 456q-3 2 -7 0h-2l-3 3l-3 -4q-2 -1 -4 -3t-3 -2q-4 -3 -19 -9q-7 -3 -11 -4q-17 -3 -38 2l-36 9q-32 8 -38 8q-12 3 -28 0q-18 -4 -31 -19q-4 -5 -11 -13t-11 -15q-6 -7 -8 -18q-1 -5 1.5 -9t5.5 -5l2 -1v0q1 0 1 1l-2 4l4 -2l3 5q-1 1 -1 5l3 -1v6q0 4 8 5
q4 1 17 6q12 5 24 5q9 0 31 -5l33 -8q6 -2 18 -5q8 -2 25 -3q24 -1 33 6q26 18 28 23zM337 445z" />
    <glyph glyph-name="uni007F" 
 />
    <glyph glyph-name="exclamdown" unicode="&#xa1;" horiz-adv-x="269" 
d="M104 330h58l25 -512h-108zM196 478q0 -33 -16 -50t-46 -17t-46 17t-16 50q0 32 16.5 50t45.5 18t45.5 -17.5t16.5 -50.5z" />
    <glyph glyph-name="cent" unicode="&#xa2;" horiz-adv-x="571" 
d="M476 117q-55 -28 -124 -30v-97h-67v100q-100 15 -147 82.5t-47 189.5q0 248 194 278v84h68v-80q74 -3 132 -29l-26 -73q-70 26 -119 26q-82 0 -120.5 -51t-38.5 -154q0 -104 39 -151.5t116 -47.5q43 0 76 8.5t64 21.5v-77z" />
    <glyph glyph-name="sterling" unicode="&#xa3;" horiz-adv-x="571" 
d="M334 723q93 0 177 -41l-31 -70q-82 38 -144 38q-57 0 -87 -29.5t-30 -95.5v-139h204v-66h-204v-104q0 -47 -15.5 -80.5t-52.5 -55.5h384v-80h-503v74q99 23 99 141v105h-96v66h96v148q0 88 55 138.5t148 50.5z" />
    <glyph glyph-name="currency" unicode="&#xa4;" horiz-adv-x="571" 
d="M90 353q0 57 35 110l-66 68l49 47l66 -64q49 35 112 35q59 0 110 -35l67 64l48 -47l-64 -67q35 -54 35 -111q0 -63 -35 -112l63 -66l-47 -47l-67 64q-50 -34 -110 -34q-64 0 -112 35l-66 -64l-48 47l65 66q-35 53 -35 111zM157 353q0 -54 37.5 -91.5t91.5 -37.5t92 37
t38 92q0 56 -38 93.5t-92 37.5t-91.5 -38t-37.5 -93z" />
    <glyph glyph-name="yen" unicode="&#xa5;" horiz-adv-x="571" 
d="M285 365l179 349h92l-201 -375h124v-64h-151v-82h151v-64h-151v-129h-86v129h-151v64h151v82h-151v64h122l-199 375h93z" />
    <glyph glyph-name="brokenbar" unicode="&#xa6;" horiz-adv-x="550" 
d="M239 760h73v-381h-73v381zM239 140h73v-381h-73v381z" />
    <glyph glyph-name="section" unicode="&#xa7;" horiz-adv-x="513" 
d="M67 395q0 42 21 75t58 51q-36 20 -56 47t-20 68q0 60 50.5 94.5t146.5 34.5q45 0 82 -7t89 -27l-27 -67q-47 19 -80.5 26t-69.5 7q-56 0 -82.5 -14.5t-26.5 -44.5q0 -27 28 -47.5t104 -47.5q89 -33 126 -70t37 -90q0 -88 -75 -133q74 -39 74 -110q0 -69 -57.5 -107
t-160.5 -38t-169 33v75q42 -19 88.5 -30t84.5 -11q62 0 96 18t34 53q0 30 -26 49t-103 49q-96 36 -131 72.5t-35 91.5zM142 405q0 -25 13 -43.5t43 -35.5t109 -47q64 37 64 91q0 40 -34 66.5t-123 54.5q-32 -9 -52 -33t-20 -53z" />
    <glyph glyph-name="dieresis" unicode="&#xa8;" horiz-adv-x="249" 
d="M81.5 509.5q-16.5 11.5 -16.5 22.5q0 5 1 8l2.5 2.5t2.5 4.5q14 18 33 18q11 0 20.5 -6t16.5 -16q2 -2 2 -4t1 -3q-1 -15 -9 -26.5t-24 -11.5q-13 0 -29.5 11.5zM-19.5 544.5q-16.5 11.5 -16.5 22.5q0 7 1 8l2.5 2.5t2.5 4.5q14 18 33 18q11 0 21 -6q12 -8 16 -16l2 -4
t1 -3q-1 -15 -9 -26.5t-24 -11.5q-13 0 -29.5 11.5z" />
    <glyph glyph-name="copyright" unicode="&#xa9;" horiz-adv-x="832" 
d="M436 515q-58 0 -91 -41.5t-33 -116.5q0 -77 28.5 -118t94.5 -41q46 0 105 23v-64q-29 -13 -53 -18.5t-56 -5.5q-94 0 -145.5 58.5t-51.5 165.5q0 102 54 162.5t147 60.5q63 0 123 -30l-29 -61q-52 26 -93 26zM49 357q0 98 48.5 183t134 134.5t184.5 49.5q98 0 183.5 -49
t134.5 -134t49 -184q0 -96 -47.5 -180.5t-132.5 -135.5t-187 -51q-101 0 -186.5 50.5t-133 135t-47.5 181.5zM102 357q0 -84 42 -157t115 -115t157 -42t157 42t115 115t42 157t-42 156.5t-115 115t-157 42.5t-156.5 -42t-115 -115t-42.5 -157z" />
    <glyph glyph-name="ordfeminine" unicode="&#xaa;" horiz-adv-x="356" 
d="M261 389l-12 42q-46 -48 -114 -48q-47 0 -75 24.5t-28 74.5t38.5 76t119.5 29l56 2v22q0 30 -19 44.5t-52 14.5q-49 0 -101 -26q-13 30 -22 49q60 29 125 29t98 -27t33 -86v-220h-47zM96 482q0 -48 54 -48q96 0 96 87v23l-48 -2q-54 -2 -78 -16t-24 -44z" />
    <glyph glyph-name="guillemotleft" unicode="&#xab;" horiz-adv-x="571" 
d="M294 70q-2 -1 -7 -1q-8 0 -15 7q-34 28 -52 41q-14 11 -44 29q-52 32 -78 47q-3 3 -7 5t-8 5q-10 9 -19 19q-2 2 -3 6.5t-2 7.5l-5 14q-5 9 -3 15l9 7l40 40l46 42l42 35q24 18 52 37q30 20 53 28q17 8 35 9q13 0 21 -12l2 -4v-8q-9 -16 -22 -29.5t-33 -29.5
q-35 -29 -37 -31l-28 -23l-56 -46l-32 -24l-16 -12q-1 -1 -3.5 -2.5t-4.5 -3.5q4 -1 5.5 -2.5t2.5 -1.5q56 -28 82 -46q18 -12 30 -22l41 -33q19 -16 31 -39q7 -12 4 -24q-4 -7 -14 -7zM464 70q-2 -1 -7 -1q-8 0 -15 7q-34 28 -52 41q-14 11 -44 29q-52 32 -78 47q-3 3 -7 5
t-8 5q-10 9 -19 19q-2 2 -3 6.5t-2 7.5l-5 14q-5 9 -3 15l9 7l40 40l46 42l42 35q24 18 52 37q30 20 53 28q17 8 35 9q14 0 21 -12l2 -4v-8q-9 -16 -22 -29.5t-33 -29.5q-35 -29 -37 -31l-28 -23l-56 -46l-32 -24l-16 -12q-1 -1 -3.5 -2.5t-4.5 -3.5q4 -1 5.5 -2.5t2.5 -1.5
q56 -28 82 -46q18 -12 30 -22l41 -33q19 -16 31 -39q7 -12 4 -24q-4 -7 -14 -7zM74 266l67 60q53 46 92 74q51 37 93 53q1 0 3 2q-11 0 -25 -7q-33 -15 -52 -30l-69 -51l-53 -46l-19 -17q-12 -12 -40 -36l-2 -4q3 0 5 2zM244 266l67 60q53 46 92 74q51 37 93 53q1 0 3 2
q-11 0 -25 -7q-33 -15 -52 -30l-69 -51l-53 -46l-19 -17q-12 -12 -40 -36l-2 -4q3 0 5 2z" />
    <glyph glyph-name="logicalnot" unicode="&#xac;" horiz-adv-x="571" 
d="M520 388v-260h-71v189h-399v71h470z" />
    <glyph glyph-name="uni00AD" unicode="&#xad;" horiz-adv-x="321" 
d="M40 229v78h242v-78h-242z" />
    <glyph glyph-name="registered" unicode="&#xae;" horiz-adv-x="560" 
 />
    <glyph glyph-name="macron" unicode="&#xaf;" horiz-adv-x="339" 
d="M75 189q-5 0 -14 4l-11 21q18 9 27 12l19 6q56 16 84 22q154 36 300 56q49 7 127 7h32l168 -2h10q27 1 44 -20q0 -2 1 -3l3 -12q-15 -11 -13 -10l-13 5q-44 -1 -125 -5q-19 0 -29 -1q-45 0 -88 -3q-40 -3 -128 -13q-67 -9 -175 -26l-58 -9l-108 -18q-15 -2 -45 -10z" />
    <glyph glyph-name="degree" unicode="&#xb0;" horiz-adv-x="324" 
d="M162 565q-12 4 -21 9t-16 12q-20 12 -60 52q-15 18 -15 42q0 17 7 30q13 44 60 44q26 0 48.5 -6t47.5 -18q29 -17 52 -52q9 -15 9 -32t-9 -32l-18 -22l-18 -22q-17 -13 -36 -13q-8 0 -12 1q-7 3 -19 7zM177 605q8 0 18 7l18 22q5 8 5 16t-5 16q-12 17 -26 26
q-24 12 -48 12t-30 -22q-3 -7 -3 -15q0 -13 7 -21q20 -20 30 -26q6 -6 15.5 -9.5t12.5 -4.5z" />
    <glyph glyph-name="plusminus" unicode="&#xb1;" horiz-adv-x="571" 
d="M321 391h199v-71h-199v-206h-72v206h-199v71h199v207h72v-207zM50 0v71h470v-71h-470z" />
    <glyph glyph-name="uni00B2" unicode="&#xb2;" horiz-adv-x="350" 
d="M306 286h-282v54l115 112q62 60 79.5 87.5t17.5 61.5q0 32 -18.5 48t-48.5 16t-54.5 -11.5t-50.5 -31.5l-35 46q65 55 141 55q64 0 100.5 -32t36.5 -86q0 -22 -6 -41.5t-18.5 -39.5t-33 -42.5t-138.5 -133.5h195v-62z" />
    <glyph glyph-name="uni00B3" unicode="&#xb3;" horiz-adv-x="350" 
d="M308 613q0 -74 -74 -102q87 -21 87 -102q0 -62 -45 -96.5t-128 -34.5q-74 0 -131 28v63q69 -34 132 -34q100 0 100 76q0 69 -110 69h-57v55h57q50 0 73.5 19t23.5 51q0 29 -19 45t-51 16q-51 0 -111 -38l-36 46q36 27 71 38t75 11q66 0 104.5 -29.5t38.5 -80.5z" />
    <glyph glyph-name="acute" unicode="&#xb4;" horiz-adv-x="580" 
d="M189 618q19 23 47.5 66.5t47.5 81.5h106v-10q-21 -31 -66.5 -78.5t-76.5 -71.5h-58v12z" />
    <glyph glyph-name="mu" unicode="&#xb5;" horiz-adv-x="623" 
d="M173 190q0 -127 120 -127q83 0 120 45.5t37 148.5v279h88v-536h-71l-14 72h-5q-53 -82 -161 -82q-71 0 -115 45h-4q5 -36 5 -119v-156h-88v776h88v-346z" />
    <glyph glyph-name="paragraph" unicode="&#xb6;" horiz-adv-x="654" 
d="M549 -127h-58v831h-102v-831h-58v400q-30 -9 -71 -9q-105 0 -155 61t-50 184q0 127 53.5 189t166.5 62h274v-887z" />
    <glyph glyph-name="periodcentered" unicode="&#xb7;" horiz-adv-x="155" 
d="M75.5 265.5q-4.5 1.5 -7.5 4.5q-5 3 -15 13q-7 8 -2 18q3 11 15 11t24 -6q7 -4 13 -13q2 -2 2 -8q0 -5 -2 -8l-9 -11q-6 -4 -12 -3q-2 1 -6.5 2.5z" />
    <glyph glyph-name="cedilla" unicode="&#xb8;" horiz-adv-x="225" 
d="M212 -139q0 -48 -37 -74.5t-111 -26.5q-32 0 -50 5v55q18 -5 53 -5q37 0 55.5 9.5t18.5 34.5q0 43 -91 55l43 86h58l-26 -53q87 -19 87 -86z" />
    <glyph glyph-name="uni00B9" unicode="&#xb9;" horiz-adv-x="350" 
d="M167 714h73v-428h-71v276q0 33 4 89q-15 -14 -26.5 -23t-74.5 -55l-35 49z" />
    <glyph glyph-name="ordmasculine" unicode="&#xba;" horiz-adv-x="375" 
d="M345 553q0 -80 -42 -125t-116 -45q-71 0 -113 45t-42 125q0 81 41 125t116 44q73 0 114.5 -44.5t41.5 -124.5zM95 553q0 -59 21.5 -88t71.5 -29q49 0 71 29t22 88t-22 87.5t-71 28.5t-71 -28.5t-22 -87.5z" />
    <glyph glyph-name="guillemotright" unicode="&#xbb;" horiz-adv-x="571" 
d="M86 70q-1 2 -1 7q0 9 5 17q12 23 31 39l41 33q12 10 30 22q26 18 82 46q1 0 2.5 1.5t5.5 2.5q-2 2 -4.5 3.5t-3.5 2.5l-16 12l-32 24l-56 46l-28 23q-2 2 -37 31q-20 16 -33 29.5t-22 29.5v8l2 4q7 12 21 12q18 -1 35 -9q23 -8 53 -28q28 -19 52 -37l42 -35l46 -42
l40 -40l9 -7q1 -2 1 -5q0 -2 -4 -10l-5 -14q-1 -3 -2 -7.5t-3 -6.5q-9 -10 -19 -19q-4 -3 -8 -5t-7 -5q-26 -15 -78 -47q-30 -18 -44 -29q-18 -13 -52 -41q-12 -10 -22 -6l-7 -7q-10 0 -14 7zM256 70q-1 2 -1 7q0 9 5 17q12 23 31 39l41 33q12 10 30 22q26 18 82 46
q1 0 2.5 1.5t5.5 2.5q-2 2 -4.5 3.5t-3.5 2.5l-16 12l-32 24l-56 46l-28 23q-2 2 -37 31q-20 16 -33 29.5t-22 29.5v8l2 4q8 12 21 12q18 -1 35 -9q23 -8 53 -28q28 -19 52 -37l42 -35l46 -42l40 -40l9 -7q1 -2 1 -5q0 -2 -4 -10l-5 -14q-1 -3 -2 -7.5t-3 -6.5
q-9 -10 -19 -19q-4 -3 -8 -5t-7 -5q-26 -15 -78 -47q-30 -18 -44 -29q-18 -13 -52 -41q-12 -10 -22 -6l-7 -7q-10 0 -14 7zM330 268q-28 24 -40 36l-19 17l-53 46l-69 51q-19 15 -52 30q-14 7 -25 7q2 -2 3 -2q42 -16 93 -53q39 -28 92 -74l67 -60q2 -2 5 -2zM500 268
q-28 24 -40 36l-19 17l-53 46l-69 51q-19 15 -52 30q-14 7 -25 7q2 -2 3 -2q42 -16 93 -53q39 -28 92 -74l67 -60q2 -2 5 -2z" />
    <glyph glyph-name="onequarter" unicode="&#xbc;" horiz-adv-x="790" 
d="M736 96h-61v-96h-75v96h-195v52l197 283h73v-275h61v-60zM600 156v93q0 52 3 101q-4 -9 -48 -77l-80 -117h125zM394 110q-10 0 -15 12q6 8 11 13l-2 1q-2 -1 -12 -9l-3 5q2 7 6 12q-7 -2 -9 -5q-4 4 -1 13q12 28 26 43q26 33 55 64l59 57l67 66l70 69l22 24l39 42l25 26
l13 17q34 46 52 69q6 8 13 16.5t15 13.5l22 9h2q3 0 6.5 -2t5.5 -3q-3 -2 -14.5 -7t-14.5 -13q3 0 6 2t4 3q3 2 6 3.5l5 2.5l11 6q4 -2 7 -5q-1 -1 -2 -2.5t-2 -4.5q3 1 9 1q5 -12 5 -22q0 -6 -1 -9q-6 -17 -17 -35l-13 -20q-10 -16 -16 -24q-21 -28 -41 -53
q-5 -8 -13.5 -18t-13.5 -15l-35 -39l-43 -43l-32 -32l-15 -16l-23 -23l-21 -20l-27 -26l-21 -20l-42 -40q-44 -38 -65 -58l-29 -23q-7 -6 -17 -7zM388 161q6 5 13.5 14.5t14.5 16.5q29 34 81 82l42 41l111 112q10 11 15 16q-3 0 -5.5 -1.5t-3.5 -3.5q-9 -8 -52 -51l-17 -17
l-119 -114q-14 -14 -42 -46l-24 -27q-5 -7 -8.5 -12.5t-6.5 -9.5h1zM525 274l57 57v2q-16 -12 -92 -87.5t-80 -83.5q116 113 115 112zM453 160l32 31l31 29l32 32q23 21 30 30l-106 -98l-53 -49l-1 -4q10 6 35 29zM165 714h73v-428h-71v276q0 33 4 89q-15 -14 -26.5 -23
t-74.5 -55l-35 49z" />
    <glyph glyph-name="onehalf" unicode="&#xbd;" horiz-adv-x="790" 
d="M364 110q-10 0 -15 12q6 8 11 13l-2 1q-2 -1 -12 -9l-3 5q2 7 6 12q-7 -2 -9 -5q-4 4 -1 13q12 28 26 43q26 33 55 64l59 57l67 66l70 69l22 24l39 42l25 26l13 17q34 46 52 69q6 8 13 16.5t15 13.5l22 9h2q3 0 6.5 -2t5.5 -3q-3 -2 -14.5 -7t-14.5 -13q3 0 6 2t4 3
q3 2 6 3.5l5 2.5l11 6q4 -2 7 -5q-1 -1 -2 -2.5t-2 -4.5q3 1 9 1q5 -12 5 -22q0 -6 -1 -9q-6 -17 -17 -35l-13 -20q-10 -16 -16 -24q-21 -28 -41 -53q-5 -8 -13.5 -18t-13.5 -15l-35 -39l-43 -43l-32 -32l-15 -16l-23 -23l-21 -20l-27 -26l-21 -20l-42 -40q-44 -38 -65 -58
l-29 -23q-7 -6 -17 -7zM358 161q6 5 13.5 14.5t14.5 16.5q29 34 81 82l42 41l111 112q10 11 15 16q-3 0 -5.5 -1.5t-3.5 -3.5q-9 -8 -52 -51l-17 -17l-119 -114q-14 -14 -42 -46l-24 -27q-5 -7 -8.5 -12.5t-6.5 -9.5h1zM495 274l57 57v2q-16 -12 -92 -87.5t-80 -83.5
q116 113 115 112zM423 160l32 31l31 29l32 32q23 21 30 30l-106 -98l-53 -49l-1 -4q10 6 35 29zM152 714h73v-428h-71v276q0 33 4 89q-15 -14 -26.5 -23t-74.5 -55l-35 49zM727 0h-282v54l115 112q62 60 79.5 87.5t17.5 61.5q0 32 -18.5 48t-48.5 16t-54.5 -11.5
t-50.5 -31.5l-35 46q65 55 141 55q64 0 100.5 -32t36.5 -86q0 -22 -6 -41.5t-18.5 -39.5t-33 -42.5t-138.5 -133.5h195v-62z" />
    <glyph glyph-name="threequarters" unicode="&#xbe;" horiz-adv-x="790" 
d="M772 96h-61v-96h-75v96h-195v52l197 283h73v-275h61v-60zM636 156v93q0 52 3 101q-4 -9 -48 -77l-80 -117h125zM438 110q-10 0 -15 12q6 8 11 13l-2 1q-2 -1 -12 -9l-3 5q2 7 6 12q-7 -2 -9 -5q-4 4 -1 13q12 28 26 43q26 33 55 64l59 57l67 66l70 69l22 24l39 42l25 26
l13 17q34 46 52 69q6 8 13 16.5t15 13.5l22 9h2q3 0 6.5 -2t5.5 -3q-3 -2 -14.5 -7t-14.5 -13q3 0 6 2t4 3q3 2 6 3.5l5 2.5l11 6q4 -2 7 -5q-1 -1 -2 -2.5t-2 -4.5q3 1 9 1q5 -12 5 -22q0 -6 -1 -9q-6 -17 -17 -35l-13 -20q-10 -16 -16 -24q-21 -28 -41 -53
q-5 -8 -13.5 -18t-13.5 -15l-35 -39l-43 -43l-32 -32l-15 -16l-23 -23l-21 -20l-27 -26l-21 -20l-42 -40q-44 -38 -65 -58l-29 -23q-7 -6 -17 -7zM432 161q6 5 13.5 14.5t14.5 16.5q29 34 81 82l42 41l111 112q10 11 15 16q-3 0 -5.5 -1.5t-3.5 -3.5q-9 -8 -52 -51l-17 -17
l-119 -114q-14 -14 -42 -46l-24 -27q-5 -7 -8.5 -12.5t-6.5 -9.5h1zM569 274l57 57v2q-16 -12 -92 -87.5t-80 -83.5q116 113 115 112zM497 160l32 31l31 29l32 32q23 21 30 30l-106 -98l-53 -49l-1 -4q10 6 35 29zM307 613q0 -74 -74 -102q87 -21 87 -102q0 -62 -45 -96.5
t-128 -34.5q-74 0 -131 28v63q69 -34 132 -34q100 0 100 76q0 69 -110 69h-57v55h57q50 0 73.5 19t23.5 51q0 29 -19 45t-51 16q-51 0 -111 -38l-36 46q36 27 71 38t75 11q66 0 104.5 -29.5t38.5 -80.5z" />
    <glyph glyph-name="questiondown" unicode="&#xbf;" horiz-adv-x="434" 
d="M294 330v-26q0 -57 -18 -93.5t-67 -77.5q-65 -54 -82 -81t-17 -68q0 -47 31 -73.5t89 -26.5q78 0 161 43l31 -71q-97 -48 -195 -48q-95 0 -148.5 45.5t-53.5 128.5q0 36 9.5 63.5t29.5 52.5t79 75q50 44 65 71t15 70v16h71zM317 478q0 -67 -62 -67q-30 0 -45.5 17.5
t-15.5 49.5q0 36 17.5 52t43.5 16t44 -16t18 -52z" />
    <glyph glyph-name="Agrave" unicode="&#xc0;" horiz-adv-x="639" 
d="M367.5 1.5q-1.5 0.5 -3.5 -1.5h-14l-1 8q-3 -3 -7 -4l-6 6h-3q-7 0 -8 8q-1 19 2.5 64.5t8.5 102.5q12 124 19 224v4l-8 1q-33 0 -99 -4q-64 -4 -126 -21l-54 -16l-11 -4q-6 -63 -6 -127q0 -114 18 -230q-2 -3 -6.5 -3h-6.5l-4 8q-9 22 -12 47q-8 67 -11.5 108.5
t-3.5 87.5q0 18 2 64l1 26v5q-6 -2 -11.5 -6.5t-7.5 -6.5q-5 0 -7 4.5t-2 5.5q2 7 7 11.5t11.5 9t11.5 7.5l3 22q11 113 27 194q41 222 137 274q35 20 68 20q34 0 71 -23q25 -16 44.5 -45.5t31.5 -65.5q8 -26 12.5 -52t12.5 -97q5 -70 5 -126q0 -101 -13 -241t-34 -196
q-4 -11 -11.5 -24t-10.5 -18l-4 -4q0 3 -1.5 3.5zM314 434q27 0 41 -1q1 2 1 6q2 38 2 111q0 132 -1 148q-2 40 -4.5 61.5t-9.5 44.5q-14 33 -28.5 49t-40.5 16t-55.5 -18t-50.5 -46q-29 -35 -51 -99q-14 -41 -26 -97q-10 -46 -14 -69q-4 -18 -8 -56l-9 -71l-1 -20
q117 41 255 41zM62 538l24 112q1 3 9 37l12 35h-2q-1 -4 -5 -14.5t-6 -19.5l-3 -7q-8 -27 -15 -61t-10 -47l-4 -22l-2 -16q2 0 2 3zM377 452v21v86q-4 -84 -4 -126l2 -3q2 9 2 22zM55 539q-7 -36 -11 -89zM49 431q-6 -28 -5 -41zM337 24l2 5l3 23l9 63l12 118q4 47 10 131
q2 30 2 44v2.5t-3 1.5l-1 -3l-4 -57l-9 -102l-7 -73q-1 -27 -6 -54l-4 -36l-6 -54v-9h2zM355 33l4 21q1 5 5 22.5t5 32.5q3 27 6.5 64.5t5.5 56.5l8 81q1 12 2 29t1 26l-12 -113l-4 -40q-2 -21 -8 -73q-1 -7 -12 -77l-6 -35q5 -1 5 5zM39 314l3 46h-2l-3 -46h2zM388 54
q2 6 2 8q12 44 17 101l7 64l5 59v9l-6 -53q-7 -66 -13.5 -110.5t-17.5 -87.5q4 4 6 10zM38 247v42h-1v-42h1zM364 771h-59q-37 29 -80.5 76t-61.5 74v10h105q16 -32 44.5 -76.5t51.5 -71.5v-12z" />
    <glyph glyph-name="Aacute" unicode="&#xc1;" horiz-adv-x="639" 
d="M367.5 1.5q-1.5 0.5 -3.5 -1.5h-14l-1 8q-3 -3 -7 -4l-6 6h-3q-7 0 -8 8q-1 19 2.5 64.5t8.5 102.5q12 124 19 224v4l-8 1q-33 0 -99 -4q-64 -4 -126 -21l-54 -16l-11 -4q-6 -63 -6 -127q0 -114 18 -230q-2 -3 -6.5 -3h-6.5l-4 8q-9 22 -12 47q-8 67 -11.5 108.5
t-3.5 87.5q0 18 2 64l1 26v5q-6 -2 -11.5 -6.5t-7.5 -6.5q-5 0 -7 4.5t-2 5.5q2 7 7 11.5t11.5 9t11.5 7.5l3 22q11 113 27 194q41 222 137 274q35 20 68 20q34 0 71 -23q25 -16 44.5 -45.5t31.5 -65.5q8 -26 12.5 -52t12.5 -97q5 -70 5 -126q0 -101 -13 -241t-34 -196
q-4 -11 -11.5 -24t-10.5 -18l-4 -4q0 3 -1.5 3.5zM314 434q27 0 41 -1q1 2 1 6q2 38 2 111q0 132 -1 148q-2 40 -4.5 61.5t-9.5 44.5q-14 33 -28.5 49t-40.5 16t-55.5 -18t-50.5 -46q-29 -35 -51 -99q-14 -41 -26 -97q-10 -46 -14 -69q-4 -18 -8 -56l-9 -71l-1 -20
q117 41 255 41zM62 538l24 112q1 3 9 37l12 35h-2q-1 -4 -5 -14.5t-6 -19.5l-3 -7q-8 -27 -15 -61t-10 -47l-4 -22l-2 -16q2 0 2 3zM377 452v21v86q-4 -84 -4 -126l2 -3q2 9 2 22zM55 539q-7 -36 -11 -89zM49 431q-6 -28 -5 -41zM337 24l2 5l3 23l9 63l12 118q4 47 10 131
q2 30 2 44v2.5t-3 1.5l-1 -3l-4 -57l-9 -102l-7 -73q-1 -27 -6 -54l-4 -36l-6 -54v-9h2zM355 33l4 21q1 5 5 22.5t5 32.5q3 27 6.5 64.5t5.5 56.5l8 81q1 12 2 29t1 26l-12 -113l-4 -40q-2 -21 -8 -73q-1 -7 -12 -77l-6 -35q5 -1 5 5zM39 314l3 46h-2l-3 -46h2zM388 54
q2 6 2 8q12 44 17 101l7 64l5 59v9l-6 -53q-7 -66 -13.5 -110.5t-17.5 -87.5q4 4 6 10zM38 247v42h-1v-42h1zM257 783q19 23 47.5 66.5t47.5 81.5h106v-10q-21 -31 -66.5 -78.5t-76.5 -71.5h-58v12z" />
    <glyph glyph-name="Acircumflex" unicode="&#xc2;" horiz-adv-x="639" 
d="M146 782q61 65 86 96.5t37 52.5h90q25 -49 125 -149v-11h-62q-44 26 -109 90q-64 -62 -107 -90h-60v11zM367.5 1.5q-1.5 0.5 -3.5 -1.5h-14l-1 8q-3 -3 -7 -4l-6 6h-3q-7 0 -8 8q-1 19 2.5 64.5t8.5 102.5q12 124 19 224v4l-8 1q-33 0 -99 -4q-64 -4 -126 -21l-54 -16
l-11 -4q-6 -63 -6 -127q0 -114 18 -230q-2 -3 -6.5 -3h-6.5l-4 8q-9 22 -12 47q-8 67 -11.5 108.5t-3.5 87.5q0 18 2 64l1 26v5q-6 -2 -11.5 -6.5t-7.5 -6.5q-5 0 -7 4.5t-2 5.5q2 7 7 11.5t11.5 9t11.5 7.5l3 22q11 113 27 194q41 222 137 274q35 20 68 20q34 0 71 -23
q25 -16 44.5 -45.5t31.5 -65.5q8 -26 12.5 -52t12.5 -97q5 -70 5 -126q0 -101 -13 -241t-34 -196q-4 -11 -11.5 -24t-10.5 -18l-4 -4q0 3 -1.5 3.5zM314 434q27 0 41 -1q1 2 1 6q2 38 2 111q0 132 -1 148q-2 40 -4.5 61.5t-9.5 44.5q-14 33 -28.5 49t-40.5 16t-55.5 -18
t-50.5 -46q-29 -35 -51 -99q-14 -41 -26 -97q-10 -46 -14 -69q-4 -18 -8 -56l-9 -71l-1 -20q117 41 255 41zM62 538l24 112q1 3 9 37l12 35h-2q-1 -4 -5 -14.5t-6 -19.5l-3 -7q-8 -27 -15 -61t-10 -47l-4 -22l-2 -16q2 0 2 3zM377 452v21v86q-4 -84 -4 -126l2 -3q2 9 2 22z
M55 539q-7 -36 -11 -89zM49 431q-6 -28 -5 -41zM337 24l2 5l3 23l9 63l12 118q4 47 10 131q2 30 2 44v2.5t-3 1.5l-1 -3l-4 -57l-9 -102l-7 -73q-1 -27 -6 -54l-4 -36l-6 -54v-9h2zM355 33l4 21q1 5 5 22.5t5 32.5q3 27 6.5 64.5t5.5 56.5l8 81q1 12 2 29t1 26l-12 -113
l-4 -40q-2 -21 -8 -73q-1 -7 -12 -77l-6 -35q5 -1 5 5zM39 314l3 46h-2l-3 -46h2zM388 54q2 6 2 8q12 44 17 101l7 64l5 59v9l-6 -53q-7 -66 -13.5 -110.5t-17.5 -87.5q4 4 6 10zM38 247v42h-1v-42h1z" />
    <glyph glyph-name="Atilde" unicode="&#xc3;" horiz-adv-x="639" 
d="M390 772q-21 0 -41 9t-39.5 19.5t-37 19.5t-34.5 9q-24 0 -36 -14.5t-19 -43.5h-51q6 60 34 94t76 34q22 0 42.5 -9t39.5 -19.5t37 -19.5t33 -9q23 0 35.5 14.5t19.5 43.5h50q-6 -58 -34 -93t-75 -35zM367.5 1.5q-1.5 0.5 -3.5 -1.5h-14l-1 8q-3 -3 -7 -4l-6 6h-3
q-7 0 -8 8q-1 19 2.5 64.5t8.5 102.5q12 124 19 224v4l-8 1q-33 0 -99 -4q-64 -4 -126 -21l-54 -16l-11 -4q-6 -63 -6 -127q0 -114 18 -230q-2 -3 -6.5 -3h-6.5l-4 8q-9 22 -12 47q-8 67 -11.5 108.5t-3.5 87.5q0 18 2 64l1 26v5q-6 -2 -11.5 -6.5t-7.5 -6.5q-5 0 -7 4.5
t-2 5.5q2 7 7 11.5t11.5 9t11.5 7.5l3 22q11 113 27 194q41 222 137 274q35 20 68 20q34 0 71 -23q25 -16 44.5 -45.5t31.5 -65.5q8 -26 12.5 -52t12.5 -97q5 -70 5 -126q0 -101 -13 -241t-34 -196q-4 -11 -11.5 -24t-10.5 -18l-4 -4q0 3 -1.5 3.5zM314 434q27 0 41 -1
q1 2 1 6q2 38 2 111q0 132 -1 148q-2 40 -4.5 61.5t-9.5 44.5q-14 33 -28.5 49t-40.5 16t-55.5 -18t-50.5 -46q-29 -35 -51 -99q-14 -41 -26 -97q-10 -46 -14 -69q-4 -18 -8 -56l-9 -71l-1 -20q117 41 255 41zM62 538l24 112q1 3 9 37l12 35h-2q-1 -4 -5 -14.5t-6 -19.5
l-3 -7q-8 -27 -15 -61t-10 -47l-4 -22l-2 -16q2 0 2 3zM377 452v21v86q-4 -84 -4 -126l2 -3q2 9 2 22zM55 539q-7 -36 -11 -89zM49 431q-6 -28 -5 -41zM337 24l2 5l3 23l9 63l12 118q4 47 10 131q2 30 2 44v2.5t-3 1.5l-1 -3l-4 -57l-9 -102l-7 -73q-1 -27 -6 -54l-4 -36
l-6 -54v-9h2zM355 33l4 21q1 5 5 22.5t5 32.5q3 27 6.5 64.5t5.5 56.5l8 81q1 12 2 29t1 26l-12 -113l-4 -40q-2 -21 -8 -73q-1 -7 -12 -77l-6 -35q5 -1 5 5zM39 314l3 46h-2l-3 -46h2zM388 54q2 6 2 8q12 44 17 101l7 64l5 59v9l-6 -53q-7 -66 -13.5 -110.5t-17.5 -87.5
q4 4 6 10zM38 247v42h-1v-42h1z" />
    <glyph glyph-name="Adieresis" unicode="&#xc4;" horiz-adv-x="542" 
d="M358 939q-9 0 -21 5l-4 3q-1 4 -4 10t-3 11q2 16 15 20q12 4 18 4q7 0 13 -3q8 -3 12 -9.5t3 -14.5q0 -14 -6.5 -19.5t-18.5 -6.5h-4zM148 931q-14 0 -21 5l-4 3q-1 4 -4 10t-3 11q2 16 15 20q12 4 18 4q7 0 13 -3q8 -3 12 -9.5t3 -14.5q0 -14 -7 -19q-7 -7 -18 -7h-4z
M367.5 1.5q-1.5 0.5 -3.5 -1.5h-14l-1 8q-3 -3 -7 -4l-6 6h-3q-7 0 -8 8q-1 19 2.5 64.5t8.5 102.5q12 124 19 224v4l-8 1q-33 0 -99 -4q-64 -4 -126 -21l-54 -16l-11 -4q-6 -63 -6 -127q0 -114 18 -230q-2 -3 -6.5 -3h-6.5l-4 8q-9 22 -12 47q-8 67 -11.5 108.5t-3.5 87.5
q0 18 2 64l1 26v5q-6 -2 -11.5 -6.5t-7.5 -6.5q-5 0 -7 4.5t-2 5.5q2 7 7 11.5t11.5 9t11.5 7.5l3 22q11 113 27 194q41 222 137 274q35 20 68 20q34 0 71 -23q25 -16 44.5 -45.5t31.5 -65.5q8 -26 12.5 -52t12.5 -97q5 -70 5 -126q0 -101 -13 -241t-34 -196
q-4 -11 -11.5 -24t-10.5 -18l-4 -4q0 3 -1.5 3.5zM314 434q27 0 41 -1q1 2 1 6q2 38 2 111q0 132 -1 148q-2 40 -4.5 61.5t-9.5 44.5q-14 33 -28.5 49t-40.5 16t-55.5 -18t-50.5 -46q-29 -35 -51 -99q-14 -41 -26 -97q-10 -46 -14 -69q-4 -18 -8 -56l-9 -71l-1 -20
q117 41 255 41zM62 538l24 112q1 3 9 37l12 35h-2q-1 -4 -5 -14.5t-6 -19.5l-3 -7q-8 -27 -15 -61t-10 -47l-4 -22l-2 -16q2 0 2 3zM377 452v21v86q-4 -84 -4 -126l2 -3q2 9 2 22zM55 539q-7 -36 -11 -89zM49 431q-6 -28 -5 -41zM337 24l2 5l3 23l9 63l12 118q4 47 10 131
q2 30 2 44v2.5t-3 1.5l-1 -3l-4 -57l-9 -102l-7 -73q-1 -27 -6 -54l-4 -36l-6 -54v-9h2zM355 33l4 21q1 5 5 22.5t5 32.5q3 27 6.5 64.5t5.5 56.5l8 81q1 12 2 29t1 26l-12 -113l-4 -40q-2 -21 -8 -73q-1 -7 -12 -77l-6 -35q5 -1 5 5zM39 314l3 46h-2l-3 -46h2zM388 54
q2 6 2 8q12 44 17 101l7 64l5 59v9l-6 -53q-7 -66 -13.5 -110.5t-17.5 -87.5q4 4 6 10zM38 247v42h-1v-42h1z" />
    <glyph glyph-name="Aring" unicode="&#xc5;" horiz-adv-x="542" 
d="M276 956q-4 0 -10 1q-5 1 -8.5 2.5t-5.5 3t-2 2.5q-1 1 -1 3l-2 2q0 1 -1 2v2v2v2v5q0 1 0.5 3l0.5 2q1 5 2 7l1.5 1.5l0.5 0.5l2 3q1 1 1.5 2t1.5 1q0 1 1 1q1 1 2 1q1 2 3 3q2 2 5 3q5 2 11 2q10 0 16 -4q3 -1 6 -4q5 -5 6 -9t1 -6v-4q-1 -2 -1 -3q0 -2 -1 -5.5
t-2 -5.5l-2 -4l-2 -2l-2 -2q-1 -2 -5 -4q-2 -2 -7 -3h-2q-4 -1 -7 -1zM277 962h3q3 1 4 2l2 1l4 2l2 2q2 3 3 7q3 7 2 8l1 2v3v3v8l-6 4q-2 2 -6 4h-4h-2q-3 0 -4 -2l4 2h-2h-1v-7v0v0v-2v0q-1 -3 -1 -4t-1 -2l-1 -2q0 -1 -1 -5l-1 -1v-2v-2v-2l-0.5 -1t-0.5 -4v-3
q1 -2 1 -3v-1q1 0 1 -1v0l2 -2l5 -2q-3 -4 -6 -1q0 1 3 1zM264 1008q-2 -1 -3 -3v0zM250 984v2q1 5 2 7q1 3 6 9v1v0l-1 -1l-4.5 -6t-2 -4.5t-0.5 -5.5l-1 -2h1zM296 974q2 3 3 7q1 3 0 5v-3q-1 -2 -2 -6q-1 -7 -2 -8q1 2 1 5zM249 979l1 4h-1v-4v0zM299 979q-2 -11 -7 -16
q6 5 7 16zM301 974l-1 -4q1 2 1 4zM297 965l2 2l-2 -2v0zM367.5 1.5q-1.5 0.5 -3.5 -1.5h-14l-1 8q-3 -3 -7 -4l-6 6h-3q-7 0 -8 8q-1 19 2.5 64.5t8.5 102.5q12 124 19 224v4l-8 1q-33 0 -99 -4q-64 -4 -126 -21l-54 -16l-11 -4q-6 -63 -6 -127q0 -114 18 -230
q-2 -3 -6.5 -3h-6.5l-4 8q-9 22 -12 47q-8 67 -11.5 108.5t-3.5 87.5q0 18 2 64l1 26v5q-6 -2 -11.5 -6.5t-7.5 -6.5q-5 0 -7 4.5t-2 5.5q2 7 7 11.5t11.5 9t11.5 7.5l3 22q11 113 27 194q41 222 137 274q35 20 68 20q34 0 71 -23q25 -16 44.5 -45.5t31.5 -65.5
q8 -26 12.5 -52t12.5 -97q5 -70 5 -126q0 -101 -13 -241t-34 -196q-4 -11 -11.5 -24t-10.5 -18l-4 -4q0 3 -1.5 3.5zM314 434q27 0 41 -1q1 2 1 6q2 38 2 111q0 132 -1 148q-2 40 -4.5 61.5t-9.5 44.5q-14 33 -28.5 49t-40.5 16t-55.5 -18t-50.5 -46q-29 -35 -51 -99
q-14 -41 -26 -97q-10 -46 -14 -69q-4 -18 -8 -56l-9 -71l-1 -20q117 41 255 41zM62 538l24 112q1 3 9 37l12 35h-2q-1 -4 -5 -14.5t-6 -19.5l-3 -7q-8 -27 -15 -61t-10 -47l-4 -22l-2 -16q2 0 2 3zM377 452v21v86q-4 -84 -4 -126l2 -3q2 9 2 22zM55 539q-7 -36 -11 -89z
M49 431q-6 -28 -5 -41zM337 24l2 5l3 23l9 63l12 118q4 47 10 131q2 30 2 44v2.5t-3 1.5l-1 -3l-4 -57l-9 -102l-7 -73q-1 -27 -6 -54l-4 -36l-6 -54v-9h2zM355 33l4 21q1 5 5 22.5t5 32.5q3 27 6.5 64.5t5.5 56.5l8 81q1 12 2 29t1 26l-12 -113l-4 -40q-2 -21 -8 -73
q-1 -7 -12 -77l-6 -35q5 -1 5 5zM39 314l3 46h-2l-3 -46h2zM388 54q2 6 2 8q12 44 17 101l7 64l5 59v9l-6 -53q-7 -66 -13.5 -110.5t-17.5 -87.5q4 4 6 10zM38 247v42h-1v-42h1z" />
    <glyph glyph-name="AE" unicode="&#xc6;" horiz-adv-x="880" 
d="M821 0h-372v221h-250l-107 -221h-93l339 714h483v-79h-282v-223h263v-78h-263v-255h282v-79zM234 301h215v333h-58z" />
    <glyph glyph-name="Ccedilla" unicode="&#xc7;" horiz-adv-x="444" 
d="M164 23q36 -38 41 -59q7 -34 -2 -73q-6 -25 -24 -44q-23 -25 -55 -31q-29 -6 -70 7q-23 7 -40 26t-23 43q-3 12 -2 24q1 17 7 45l6 10l7 -1l10 -8v-3q2 -7 1 -18v-39q1 -9 2 -15q3 -12 11.5 -26.5t26.5 -15.5q8 -1 17 1q20 4 34 25q13 20 16 43l3 38v3q1 11 -3 22
q-7 18 -30 48q-18 23 -31 34zM157 -155q12 7 18 18q7 12 10 28q-8 -17 -28 -46zM136 -152q8 3 13 8q4 6 7 15l-2 1zM113 -142q11 5 12 16zM78 46q-19 18 -34 44q-17 30 -31 89q-7 30 -11 73q-2 23 -2 67q1 19 5 62q0 18 3 34l6 35q24 120 55.5 202.5t90.5 151.5l13 15
q16 20 56 50q24 15 43 23q18 5 33 5q18 0 36 -6q65 -20 85 -91q6 -17 6 -44q0 -30 -6 -60t-17 -70q-11 -36 -25 -67q-3 -5 -5.5 -9t-4.5 -7h-6q-6 4 -9 7q2 12 4 16q15 44 32 114q11 51 11 84q0 43 -19 73q-14 21 -28 27q-13 5 -25 5t-26 -6q-28 -14 -54 -47
q-20 -26 -43 -62q-25 -39 -47 -86q-5 -11 -25 -58l-9 -24q-21 -57 -38 -131l-7 -30l-5 -30q-3 -17 -7 -58q-2 -16 -2.5 -28t-0.5 -20q-1 -8 -1 -25q0 -20 4 -64q5 -56 21 -99q14 -34 37 -57q21 -21 58 -21q30 0 57 15q47 27 101.5 112.5t97.5 172.5q2 2 5 2q5 0 11.5 -3.5
t5.5 -5.5q-122 -239 -193 -290q-17 -12 -41.5 -19.5t-48.5 -7.5q-22 0 -43 8q-42 18 -63 39zM42 407l6 30q23 113 69 221q38 89 94 159l1 2l-1 2l-4 -5q-37 -43 -54 -72q-31 -52 -60 -130q-33 -85 -50 -186q-2 -18 -4 -27l2 -1zM71 414l2 6q2 16 4 22q14 61 31 112
q17 54 40 104q33 76 91 153l1 3l-1 1q-5 -7 -12 -15.5t-15 -19.5q-37 -49 -65 -114q-27 -62 -43 -111q-16 -54 -26 -101q-6 -26 -8 -40h1zM15 295l1 4q0 13 2 39q2 47 15 113q21 104 62 203q36 86 78 142l3 6q-3 -1 -3 -2q-30 -35 -47 -68q-16 -30 -36 -75q-40 -94 -59 -189
q-10 -50 -13 -89q-2 -16 -4 -50q-1 -11 -0.5 -19.5t0.5 -14.5h1z" />
    <glyph glyph-name="Egrave" unicode="&#xc8;" horiz-adv-x="556" 
d="M573 325q5 0 11.5 -3.5t5.5 -5.5q-44 -86 -97 -166.5t-96 -113.5q-67 -51 -147 -51q-63 0 -120.5 31t-92.5 84.5t-35 117.5q0 11 2 31q6 45 38 106.5t66 90.5q25 22 49 35q33 18 70 27q1 0 7 2l-39 33q-27 25 -44.5 71t-17.5 89q0 36 19 78t48 68q24 23 54.5 35t63.5 12
q20 0 36 -4q37 -7 70 -23q18 -9 27 -27.5t9 -43.5q0 -45 -27 -94.5t-71 -77.5q-10 -7 -16 -7q-5 0 -6 6.5t-1 12.5l7 9q24 23 44 50q33 46 33 86q0 19 -6 35q-5 13 -15 22q-8 9 -22 10q-43 3 -90 -24q-36 -21 -57 -56q-20 -35 -25 -61q-2 -18 -2 -26q0 -40 18 -83
q14 -34 32 -53q18 -20 43 -27q11 -3 44 -10q15 -4 15 -20q0 -10 -2 -17q-7 0 -10 1q-7 1 -20 1q-24 0 -48 -9q-63 -27 -98.5 -54.5t-58.5 -69.5q-17 -32 -27 -59.5t-16 -62.5q-2 -16 -2 -24q0 -48 27.5 -89.5t72.5 -65.5t94 -24q55 0 99 31q46 32 105.5 118.5t93.5 156.5
q2 2 5 2zM154 739q16 46 53 95q-45 -41 -53 -95zM228 829q-34 -24 -47 -69q19 33 47 69zM209 751q4 6 38 56q-28 -23 -38 -56zM406.5 711.5q-2.5 -4.5 -4.5 -8.5q7 7 12.5 18.5t6.5 19.5l-9 -19q-3 -6 -5.5 -10.5zM415.5 704.5q7.5 12.5 7.5 17.5l-24 -37q9 7 16.5 19.5z
M18 198q0 41 20 103q12 38 46 96q-4 -4 -10 -14q-31 -45 -46 -94q-12 -38 -13 -71q0 -14 1 -20h2zM43 253q4 15 11 34q7 22 22 54q8 17 15 29.5t12 21.5q-59 -73 -66 -161zM74 256q15 53 45 103q1 1 1 2.5t1 2.5q-19 -21 -37 -66t-17 -71q3 17 7 29zM354 771h-59
q-37 29 -80.5 76t-61.5 74v10h105q16 -32 44.5 -76.5t51.5 -71.5v-12z" />
    <glyph glyph-name="Eacute" unicode="&#xc9;" horiz-adv-x="567" 
d="M344 1043q-34 -39 -58 -62q5 -14 7 -18t4.5 -3.5t4.5 -1.5l99 106l-15 21q-10 -7 -42 -42zM332 1010q24 24 38 34q-18 -19 -38 -34zM573 325q5 0 11.5 -3.5t5.5 -5.5q-44 -86 -97 -166.5t-96 -113.5q-67 -51 -147 -51q-63 0 -120.5 31t-92.5 84.5t-35 117.5q0 11 2 31
q6 45 38 106.5t66 90.5q25 22 49 35q33 18 70 27q1 0 7 2l-39 33q-27 25 -44.5 71t-17.5 89q0 36 19 78t48 68q24 23 54.5 35t63.5 12q20 0 36 -4q37 -7 70 -23q18 -9 27 -27.5t9 -43.5q0 -45 -27 -94.5t-71 -77.5q-10 -7 -16 -7q-5 0 -6 6.5t-1 12.5l7 9q24 23 44 50
q33 46 33 86q0 19 -6 35q-5 13 -15 22q-8 9 -22 10q-43 3 -90 -24q-36 -21 -57 -56q-20 -35 -25 -61q-2 -18 -2 -26q0 -40 18 -83q14 -34 32 -53q18 -20 43 -27q11 -3 44 -10q15 -4 15 -20q0 -10 -2 -17q-7 0 -10 1q-7 1 -20 1q-24 0 -48 -9q-63 -27 -98.5 -54.5
t-58.5 -69.5q-17 -32 -27 -59.5t-16 -62.5q-2 -16 -2 -24q0 -48 27.5 -89.5t72.5 -65.5t94 -24q55 0 99 31q46 32 105.5 118.5t93.5 156.5q2 2 5 2zM154 739q16 46 53 95q-45 -41 -53 -95zM228 829q-34 -24 -47 -69q19 33 47 69zM209 751q4 6 38 56q-28 -23 -38 -56z
M406.5 711.5q-2.5 -4.5 -4.5 -8.5q7 7 12.5 18.5t6.5 19.5l-9 -19q-3 -6 -5.5 -10.5zM415.5 704.5q7.5 12.5 7.5 17.5l-24 -37q9 7 16.5 19.5zM18 198q0 41 20 103q12 38 46 96q-4 -4 -10 -14q-31 -45 -46 -94q-12 -38 -13 -71q0 -14 1 -20h2zM43 253q4 15 11 34q7 22 22 54
q8 17 15 29.5t12 21.5q-59 -73 -66 -161zM74 256q15 53 45 103q1 1 1 2.5t1 2.5q-19 -21 -37 -66t-17 -71q3 17 7 29z" />
    <glyph glyph-name="Ecircumflex" unicode="&#xca;" horiz-adv-x="556" 
d="M125 782q61 65 86 96.5t37 52.5h90q25 -49 125 -149v-11h-62q-44 26 -109 90q-64 -62 -107 -90h-60v11zM573 325q5 0 11.5 -3.5t5.5 -5.5q-44 -86 -97 -166.5t-96 -113.5q-67 -51 -147 -51q-63 0 -120.5 31t-92.5 84.5t-35 117.5q0 11 2 31q6 45 38 106.5t66 90.5
q25 22 49 35q33 18 70 27q1 0 7 2l-39 33q-27 25 -44.5 71t-17.5 89q0 36 19 78t48 68q24 23 54.5 35t63.5 12q20 0 36 -4q37 -7 70 -23q18 -9 27 -27.5t9 -43.5q0 -45 -27 -94.5t-71 -77.5q-10 -7 -16 -7q-5 0 -6 6.5t-1 12.5l7 9q24 23 44 50q33 46 33 86q0 19 -6 35
q-5 13 -15 22q-8 9 -22 10q-43 3 -90 -24q-36 -21 -57 -56q-20 -35 -25 -61q-2 -18 -2 -26q0 -40 18 -83q14 -34 32 -53q18 -20 43 -27q11 -3 44 -10q15 -4 15 -20q0 -10 -2 -17q-7 0 -10 1q-7 1 -20 1q-24 0 -48 -9q-63 -27 -98.5 -54.5t-58.5 -69.5q-17 -32 -27 -59.5
t-16 -62.5q-2 -16 -2 -24q0 -48 27.5 -89.5t72.5 -65.5t94 -24q55 0 99 31q46 32 105.5 118.5t93.5 156.5q2 2 5 2zM154 739q16 46 53 95q-45 -41 -53 -95zM228 829q-34 -24 -47 -69q19 33 47 69zM209 751q4 6 38 56q-28 -23 -38 -56zM406.5 711.5q-2.5 -4.5 -4.5 -8.5
q7 7 12.5 18.5t6.5 19.5l-9 -19q-3 -6 -5.5 -10.5zM415.5 704.5q7.5 12.5 7.5 17.5l-24 -37q9 7 16.5 19.5zM18 198q0 41 20 103q12 38 46 96q-4 -4 -10 -14q-31 -45 -46 -94q-12 -38 -13 -71q0 -14 1 -20h2zM43 253q4 15 11 34q7 22 22 54q8 17 15 29.5t12 21.5
q-59 -73 -66 -161zM74 256q15 53 45 103q1 1 1 2.5t1 2.5q-19 -21 -37 -66t-17 -71q3 17 7 29z" />
    <glyph glyph-name="Edieresis" unicode="&#xcb;" horiz-adv-x="556" 
d="M573 325q5 0 11.5 -3.5t5.5 -5.5q-44 -86 -97 -166.5t-96 -113.5q-67 -51 -147 -51q-63 0 -120.5 31t-92.5 84.5t-35 117.5q0 11 2 31q6 45 38 106.5t66 90.5q25 22 49 35q33 18 70 27q1 0 7 2l-39 33q-27 25 -44.5 71t-17.5 89q0 36 19 78t48 68q24 23 54.5 35t63.5 12
q20 0 36 -4q37 -7 70 -23q18 -9 27 -27.5t9 -43.5q0 -45 -27 -94.5t-71 -77.5q-10 -7 -16 -7q-5 0 -6 6.5t-1 12.5l7 9q24 23 44 50q33 46 33 86q0 19 -6 35q-5 13 -15 22q-8 9 -22 10q-43 3 -90 -24q-36 -21 -57 -56q-20 -35 -25 -61q-2 -18 -2 -26q0 -40 18 -83
q14 -34 32 -53q18 -20 43 -27q11 -3 44 -10q15 -4 15 -20q0 -10 -2 -17q-7 0 -10 1q-7 1 -20 1q-24 0 -48 -9q-63 -27 -98.5 -54.5t-58.5 -69.5q-17 -32 -27 -59.5t-16 -62.5q-2 -16 -2 -24q0 -48 27.5 -89.5t72.5 -65.5t94 -24q55 0 99 31q46 32 105.5 118.5t93.5 156.5
q2 2 5 2zM154 739q16 46 53 95q-45 -41 -53 -95zM228 829q-34 -24 -47 -69q19 33 47 69zM209 751q4 6 38 56q-28 -23 -38 -56zM406.5 711.5q-2.5 -4.5 -4.5 -8.5q7 7 12.5 18.5t6.5 19.5l-9 -19q-3 -6 -5.5 -10.5zM415.5 704.5q7.5 12.5 7.5 17.5l-24 -37q9 7 16.5 19.5z
M18 198q0 41 20 103q12 38 46 96q-4 -4 -10 -14q-31 -45 -46 -94q-12 -38 -13 -71q0 -14 1 -20h2zM43 253q4 15 11 34q7 22 22 54q8 17 15 29.5t12 21.5q-59 -73 -66 -161zM74 256q15 53 45 103q1 1 1 2.5t1 2.5q-19 -21 -37 -66t-17 -71q3 17 7 29zM88.5 674.5
q-16.5 11.5 -16.5 22.5q0 5 1 8l2.5 2.5t2.5 4.5q14 18 33 18q11 0 20.5 -6t16.5 -16q2 -2 2 -4t1 -3q-1 -15 -9 -26.5t-24 -11.5q-13 0 -29.5 11.5zM-12.5 709.5q-16.5 11.5 -16.5 22.5q0 7 1 8l2.5 2.5t2.5 4.5q14 18 33 18q11 0 21 -6q12 -8 16 -16l2 -4t1 -3
q-1 -15 -9 -26.5t-24 -11.5q-13 0 -29.5 11.5z" />
    <glyph glyph-name="Igrave" unicode="&#xcc;" horiz-adv-x="338" 
d="M3 -7.5q-2 5.5 -3 8.5q2 6 11 11q43 21 76 27q41 8 59 10h6q0 2 -1 5.5t-2 5.5q-4 8 -5 20t-2 17l-5 64l-3 31l-2 47l-3 88q0 131 10 301q3 53 3 78l-1 52l-1 24l1 25q0 8 1 14t2 11q1 4 2 10t2 13q-31 -1 -64.5 -6t-40.5 -6l-36 -6q-7 4 -7 13l9 5q43 16 93 22
q52 6 157 8q29 0 58 -4t70 -12l3 -1l8 -11v-9q-3 -2 -7 -2h-5l-50 6q-41 7 -94 5h-41l-7 -1l3 -8l12 -48q6 -28 6 -56q1 -16 1 -48q0 -19 -2 -55l-2 -40q-8 -99 -8 -258l1 -50q0 -19 2 -57l1 -104q1 -13 1 -30q0 -24 -7 -48v-5q6 -2 9 -2q23 -2 92 -16q13 -1 22 -15
q2 -2 2 -5q0 -4 1 -7q-3 -4 -10 -4h-31l-93 8q-9 1 -27 1q-26 0 -56 -5l-85 -16l-16 -3q-5 2 -7 7.5zM155 792l5 63q-4 -5 -4.5 -11t-0.5 -9l-1 -22v-21h1zM148 237v5l-1 56l-1 80q2 102 4 153q2 46 4 68l2 32l1 23q2 30 2 45q0 19 -1 28v5q-2 -1 -2 -5v-33q-2 -26 -2 -38
q-2 -22 -2 -33l-4 -56q-2 -44 -2 -65l-3 -89q0 -31 2 -95q0 -27 2 -81h1zM230 771h-59q-37 29 -80.5 76t-61.5 74v10h105q16 -32 44.5 -76.5t51.5 -71.5v-12z" />
    <glyph glyph-name="Iacute" unicode="&#xcd;" horiz-adv-x="338" 
d="M3 -7.5q-2 5.5 -3 8.5q2 6 11 11q43 21 76 27q41 8 59 10h6q0 2 -1 5.5t-2 5.5q-4 8 -5 20t-2 17l-5 64l-3 31l-2 47l-3 88q0 131 10 301q3 53 3 78l-1 52l-1 24l1 25q0 8 1 14t2 11q1 4 2 10t2 13q-31 -1 -64.5 -6t-40.5 -6l-36 -6q-7 4 -7 13l9 5q43 16 93 22
q52 6 157 8q29 0 58 -4t70 -12l3 -1l8 -11v-9q-3 -2 -7 -2h-5l-50 6q-41 7 -94 5h-41l-7 -1l3 -8l12 -48q6 -28 6 -56q1 -16 1 -48q0 -19 -2 -55l-2 -40q-8 -99 -8 -258l1 -50q0 -19 2 -57l1 -104q1 -13 1 -30q0 -24 -7 -48v-5q6 -2 9 -2q23 -2 92 -16q13 -1 22 -15
q2 -2 2 -5q0 -4 1 -7q-3 -4 -10 -4h-31l-93 8q-9 1 -27 1q-26 0 -56 -5l-85 -16l-16 -3q-5 2 -7 7.5zM155 792l5 63q-4 -5 -4.5 -11t-0.5 -9l-1 -22v-21h1zM148 237v5l-1 56l-1 80q2 102 4 153q2 46 4 68l2 32l1 23q2 30 2 45q0 19 -1 28v5q-2 -1 -2 -5v-33q-2 -26 -2 -38
q-2 -22 -2 -33l-4 -56q-2 -44 -2 -65l-3 -89q0 -31 2 -95q0 -27 2 -81h1zM115 783q19 23 47.5 66.5t47.5 81.5h106v-10q-21 -31 -66.5 -78.5t-76.5 -71.5h-58v12z" />
    <glyph glyph-name="Icircumflex" unicode="&#xce;" horiz-adv-x="338" 
d="M-1 782q61 65 86 96.5t37 52.5h90q25 -49 125 -149v-11h-62q-44 26 -109 90q-64 -62 -107 -90h-60v11zM3 -7.5q-2 5.5 -3 8.5q2 6 11 11q43 21 76 27q41 8 59 10h6q0 2 -1 5.5t-2 5.5q-4 8 -5 20t-2 17l-5 64l-3 31l-2 47l-3 88q0 131 10 301q3 53 3 78l-1 52l-1 24l1 25
q0 8 1 14t2 11q1 4 2 10t2 13q-31 -1 -64.5 -6t-40.5 -6l-36 -6q-7 4 -7 13l9 5q43 16 93 22q52 6 157 8q29 0 58 -4t70 -12l3 -1l8 -11v-9q-3 -2 -7 -2h-5l-50 6q-41 7 -94 5h-41l-7 -1l3 -8l12 -48q6 -28 6 -56q1 -16 1 -48q0 -19 -2 -55l-2 -40q-8 -99 -8 -258l1 -50
q0 -19 2 -57l1 -104q1 -13 1 -30q0 -24 -7 -48v-5q6 -2 9 -2q23 -2 92 -16q13 -1 22 -15q2 -2 2 -5q0 -4 1 -7q-3 -4 -10 -4h-31l-93 8q-9 1 -27 1q-26 0 -56 -5l-85 -16l-16 -3q-5 2 -7 7.5zM155 792l5 63q-4 -5 -4.5 -11t-0.5 -9l-1 -22v-21h1zM148 237v5l-1 56l-1 80
q2 102 4 153q2 46 4 68l2 32l1 23q2 30 2 45q0 19 -1 28v5q-2 -1 -2 -5v-33q-2 -26 -2 -38q-2 -22 -2 -33l-4 -56q-2 -44 -2 -65l-3 -89q0 -31 2 -95q0 -27 2 -81h1z" />
    <glyph glyph-name="Idieresis" unicode="&#xcf;" horiz-adv-x="338" 
d="M3 -7.5q-2 5.5 -3 8.5q2 6 11 11q43 21 76 27q41 8 59 10h6q0 2 -1 5.5t-2 5.5q-4 8 -5 20t-2 17l-5 64l-3 31l-2 47l-3 88q0 131 10 301q3 53 3 78l-1 52l-1 24l1 25q0 8 1 14t2 11q1 4 2 10t2 13q-31 -1 -64.5 -6t-40.5 -6l-36 -6q-7 4 -7 13l9 5q43 16 93 22
q52 6 157 8q29 0 58 -4t70 -12l3 -1l8 -11v-9q-3 -2 -7 -2h-5l-50 6q-41 7 -94 5h-41l-7 -1l3 -8l12 -48q6 -28 6 -56q1 -16 1 -48q0 -19 -2 -55l-2 -40q-8 -99 -8 -258l1 -50q0 -19 2 -57l1 -104q1 -13 1 -30q0 -24 -7 -48v-5q6 -2 9 -2q23 -2 92 -16q13 -1 22 -15
q2 -2 2 -5q0 -4 1 -7q-3 -4 -10 -4h-31l-93 8q-9 1 -27 1q-26 0 -56 -5l-85 -16l-16 -3q-5 2 -7 7.5zM155 792l5 63q-4 -5 -4.5 -11t-0.5 -9l-1 -22v-21h1zM148 237v5l-1 56l-1 80q2 102 4 153q2 46 4 68l2 32l1 23q2 30 2 45q0 19 -1 28v5q-2 -1 -2 -5v-33q-2 -26 -2 -38
q-2 -22 -2 -33l-4 -56q-2 -44 -2 -65l-3 -89q0 -31 2 -95q0 -27 2 -81h1zM-38.5 674.5q-16.5 11.5 -16.5 22.5q0 5 1 8l2.5 2.5t2.5 4.5q14 18 33 18q11 0 20.5 -6t16.5 -16q2 -2 2 -4t1 -3q-1 -15 -9 -26.5t-24 -11.5q-13 0 -29.5 11.5zM-139.5 709.5
q-16.5 11.5 -16.5 22.5q0 7 1 8l2.5 2.5t2.5 4.5q14 18 33 18q11 0 21 -6q12 -8 16 -16l2 -4t1 -3q-1 -15 -9 -26.5t-24 -11.5q-13 0 -29.5 11.5z" />
    <glyph glyph-name="Eth" unicode="&#xd0;" horiz-adv-x="729" 
d="M669 364q0 -175 -96 -269.5t-278 -94.5h-191v314h-74v78h74v322h213q167 0 259.5 -92t92.5 -258zM574 361q0 137 -68 206.5t-202 69.5h-110v-245h178v-78h-178v-237h90q290 0 290 284z" />
    <glyph glyph-name="Ntilde" unicode="&#xd1;" horiz-adv-x="723" 
d="M369 1026q-3 2 -7 0h-2l-3 3l-3 -4q-2 -1 -4 -3t-3 -2q-4 -3 -19 -9q-7 -3 -11 -4q-17 -3 -38 2l-36 9q-32 8 -38 8q-12 3 -28 0q-18 -4 -31 -19q-4 -5 -11 -13t-11 -15q-6 -7 -8 -18q-1 -5 1.5 -9t5.5 -5l2 -1v0q1 0 1 1l-2 4l4 -2l3 5q-1 1 -1 5l3 -1v6q0 4 8 5
q4 1 17 6q12 5 24 5q9 0 31 -5l33 -8q6 -2 18 -5q8 -2 25 -3q24 -1 33 6q26 18 28 23zM367 1015zM479 -114q-35 0 -64.5 26t-46.5 69t-17 93q0 10 -0.5 24t0.5 32l5 93l13 133l16 140q18 145 23 227v8l-1 29q-1 26 -10 61q-3 13 -7 19t-10 6q-8 0 -27 -17q-21 -18 -39 -48
q-26 -43 -55 -113q-26 -63 -65 -187q-8 -25 -16.5 -59t-13.5 -51l-10 -40l-26 -109l-45 -182q-2 -9 -4.5 -16t-4.5 -14v-7q0 -9 -6 -14q-3 1 -4 4l-2 -4q-5 -2 -11 -2t-10 4l-7 -1q-3 0 -7 4l-4 -1q-8 0 -11 10q-11 39 -11 82q0 14 2 52l3 79l3 89l2 116l5 150
q1 26 2.5 37.5t1.5 16.5l-3 58l-4 55l-3 42q0 6 1 10q4 10 16 9l2 -14l8 15q4 -1 11 -1l3 -11q2 2 3 4l2 4l13 -6l14 -13q4 -8 5 -12q7 -47 11 -116q0 -63 -2 -103l-3 -75v-37q0 -64 -1 -97l-3 -107l0.5 -0.5l1.5 -1.5q2 8 2 11l32 141q22 90 38 134l21 59q20 63 38 103
q11 29 39 87q16 37 36 68q16 24 26 34q21 21 50 19q50 -3 78.5 -40t33.5 -101q2 -22 2 -36q0 -12 -2 -36q-2 -32 -4 -48l-12 -105q-9 -83 -11 -97q-3 -21 -7 -63q-2 -28 -4 -43q-4 -42 -9 -108t-5 -87v-62q0 -40 4.5 -59t22.5 -49q15 -24 33 -24q8 0 15 4q32 22 55 61
t71 144q30 65 89 188q8 10 18 10q7 0 7 -7q0 -4 -3 -10q-17 -31 -49 -104q-62 -136 -107.5 -220.5t-79.5 -100.5q-17 -5 -31 -5zM92 141q12 58 32 142l16 71q35 157 108 335q33 80 65 128l1 3h-1q-4 -2 -6 -7q-18 -30 -26 -45q-38 -70 -72 -168q-34 -94 -52 -160
q-48 -200 -69 -301v-5q1 1 4 7zM300 768q-10 -17 -26 -49q0 -1 1 -1q13 24 25 50zM384 -18q-13 48 -13 111q0 16 2 48l1 46q2 32 4 50q3 24 7 67l6 66q5 42 13 126q4 28 10 86v8h-1l-1 -8l-17 -122l-4 -35q-6 -44 -8 -70q-6 -49 -9 -95l-6 -79q-3 -37 -3 -76t3 -66t12 -53
l3 -6zM213 558l-2 1q-12 -34 -20 -61l2 -1q6 21 20 61zM24 13q-1 4 -1 11q-1 6 -2 14t-1 19q0 9 1 14q2 10 2.5 17.5t0.5 12.5q0 32 2 98l4 111q2 62 2 187v28h-1q-1 -1 -1 -3q0 -22 -1 -33q0 -11 -1 -24.5t-2 -20.5q-2 -29 -2 -86v-34q0 -43 -4 -131l-2 -39q-2 -52 -4 -80
q0 -24 5 -54q0 -2 1 -3.5t1 -3.5h3zM128 243l11 44l12 51l5 28l2 4l15 59q1 4 5 19q-2 -1 -4 -5l-13 -55l-5 -22l-2 -7q-11 -36 -18 -72l-9 -37l-3 -15zM395 16q-4 50 -4 73q0 19 1 29l3 49q1 16 2 40.5t4 57.5q8 97 13 140q0 19 1 28q-3 -18 -3 -21q-12 -92 -17 -138
l-3 -40q-1 -14 -2 -34.5t-4 -47.5q-1 -12 -1 -37q0 -42 4 -75q2 -20 6 -30v6zM426 0v15q-3 35 -3 68q0 40 4 124q1 20 5 65l10 111q1 4 1 9q-4 -12 -8 -42q-2 -31 -6 -62l-3 -33q-2 -35 -8 -115q-1 -12 -1 -35q0 -42 7 -96q0 -6 1 -9h1zM40 31q0 2 -0.5 6t0.5 10l4 52
q0 63 3 126q2 54 2 81q0 34 -1 51q0 5 -1 8h-1l-1 -37l-3 -150q-1 -37 -7 -109q-1 -14 -1 -41q0 -1 0.5 -3.5t4.5 -4.5q1 4 1 11zM73 129q1 2 1 8q6 128 6 193h-3l-5 -201h1z" />
    <glyph glyph-name="Ograve" unicode="&#xd2;" horiz-adv-x="780" 
d="M164 6q-33 11 -62 30q-30 20 -52 53q-19 28 -29 66q-2 7 -6.5 29.5t-4.5 24.5q-6 44 -8 62q-1 14 -1 42q-1 15 -0.5 25.5t0.5 17.5v21q0 23 4 88.5t7 86.5q2 20 12 58q5 12 12.5 15.5t8.5 4.5q10 50 16 75q21 83 67.5 135t106.5 52q39 0 78 -23q41 -26 65 -52
q13 -14 33 -46q24 -37 40 -100q11 -43 14 -96q2 -26 2 -40l-1 -28q-1 -20 -5 -60q-2 -25 -6 -59.5t-7 -57.5q-15 -87 -50 -164q-28 -59 -57 -97q-28 -35 -53.5 -52.5t-59.5 -18.5q-31 -3 -64 8zM298 78q37 41 59 89q25 55 32 72q17 41 30 117q6 34 8 56q2 9 4 27q5 32 6 62
q1 11 1 33q0 55 -11 113q-14 65 -35 109q-29 59 -85 97q-31 21 -64 21q-40 0 -71 -29q-33 -32 -59 -87q-8 -17 -14.5 -39t-8.5 -28l-8 -24q-2 -8 -3.5 -15.5t-3.5 -15.5q8 -3 12 -12.5t4 -17.5q0 -11 -2 -33l-3 -46l-3 -40q-2 -36 -2 -79q0 -72 3.5 -142t9.5 -96
q8 -36 24 -69q17 -37 41 -55q25 -19 51 -19q21 0 43 12t45 39zM76 701q4 15 11 34l9 28q-8 -10 -22.5 -61t-13.5 -66q10 44 16 65zM77 736q-17 -46 -25 -101zM19 273l-1 70q1 50 7 152q5 67 15 110q0 4 1 7q-5 -4 -7 -11q-2 -9 -4.5 -21.5t-4.5 -27.5l-2 -30q-4 -46 -6 -94
q-2 -38 -2 -114q-1 -19 4 -47v6zM48 550q4 27 5 38q2 6 -3 7q-8 -59 -10 -127zM440 399l-5 -29q-1 -10 -5 -30q-8 -40 -13 -60q-3 -12 -8 -28l-9 -29q29 68 40 176zM448 771h-59q-37 29 -80.5 76t-61.5 74v10h105q16 -32 44.5 -76.5t51.5 -71.5v-12z" />
    <glyph glyph-name="Oacute" unicode="&#xd3;" horiz-adv-x="780" 
d="M164 6q-33 11 -62 30q-30 20 -52 53q-19 28 -29 66q-2 7 -6.5 29.5t-4.5 24.5q-6 44 -8 62q-1 14 -1 42q-1 15 -0.5 25.5t0.5 17.5v21q0 23 4 88.5t7 86.5q2 20 12 58q5 12 12.5 15.5t8.5 4.5q10 50 16 75q21 83 67.5 135t106.5 52q39 0 78 -23q41 -26 65 -52
q13 -14 33 -46q24 -37 40 -100q11 -43 14 -96q2 -26 2 -40l-1 -28q-1 -20 -5 -60q-2 -25 -6 -59.5t-7 -57.5q-15 -87 -50 -164q-28 -59 -57 -97q-28 -35 -53.5 -52.5t-59.5 -18.5q-31 -3 -64 8zM298 78q37 41 59 89q25 55 32 72q17 41 30 117q6 34 8 56q2 9 4 27q5 32 6 62
q1 11 1 33q0 55 -11 113q-14 65 -35 109q-29 59 -85 97q-31 21 -64 21q-40 0 -71 -29q-33 -32 -59 -87q-8 -17 -14.5 -39t-8.5 -28l-8 -24q-2 -8 -3.5 -15.5t-3.5 -15.5q8 -3 12 -12.5t4 -17.5q0 -11 -2 -33l-3 -46l-3 -40q-2 -36 -2 -79q0 -72 3.5 -142t9.5 -96
q8 -36 24 -69q17 -37 41 -55q25 -19 51 -19q21 0 43 12t45 39zM76 701q4 15 11 34l9 28q-8 -10 -22.5 -61t-13.5 -66q10 44 16 65zM77 736q-17 -46 -25 -101zM19 273l-1 70q1 50 7 152q5 67 15 110q0 4 1 7q-5 -4 -7 -11q-2 -9 -4.5 -21.5t-4.5 -27.5l-2 -30q-4 -46 -6 -94
q-2 -38 -2 -114q-1 -19 4 -47v6zM48 550q4 27 5 38q2 6 -3 7q-8 -59 -10 -127zM440 399l-5 -29q-1 -10 -5 -30q-8 -40 -13 -60q-3 -12 -8 -28l-9 -29q29 68 40 176zM321 783q19 23 47.5 66.5t47.5 81.5h106v-10q-21 -31 -66.5 -78.5t-76.5 -71.5h-58v12z" />
    <glyph glyph-name="Ocircumflex" unicode="&#xd4;" horiz-adv-x="780" 
d="M215 782q61 65 86 96.5t37 52.5h90q25 -49 125 -149v-11h-62q-44 26 -109 90q-64 -62 -107 -90h-60v11zM164 6q-33 11 -62 30q-30 20 -52 53q-19 28 -29 66q-2 7 -6.5 29.5t-4.5 24.5q-6 44 -8 62q-1 14 -1 42q-1 15 -0.5 25.5t0.5 17.5v21q0 23 4 88.5t7 86.5
q2 20 12 58q5 12 12.5 15.5t8.5 4.5q10 50 16 75q21 83 67.5 135t106.5 52q39 0 78 -23q41 -26 65 -52q13 -14 33 -46q24 -37 40 -100q11 -43 14 -96q2 -26 2 -40l-1 -28q-1 -20 -5 -60q-2 -25 -6 -59.5t-7 -57.5q-15 -87 -50 -164q-28 -59 -57 -97q-28 -35 -53.5 -52.5
t-59.5 -18.5q-31 -3 -64 8zM298 78q37 41 59 89q25 55 32 72q17 41 30 117q6 34 8 56q2 9 4 27q5 32 6 62q1 11 1 33q0 55 -11 113q-14 65 -35 109q-29 59 -85 97q-31 21 -64 21q-40 0 -71 -29q-33 -32 -59 -87q-8 -17 -14.5 -39t-8.5 -28l-8 -24q-2 -8 -3.5 -15.5
t-3.5 -15.5q8 -3 12 -12.5t4 -17.5q0 -11 -2 -33l-3 -46l-3 -40q-2 -36 -2 -79q0 -72 3.5 -142t9.5 -96q8 -36 24 -69q17 -37 41 -55q25 -19 51 -19q21 0 43 12t45 39zM76 701q4 15 11 34l9 28q-8 -10 -22.5 -61t-13.5 -66q10 44 16 65zM77 736q-17 -46 -25 -101zM19 273
l-1 70q1 50 7 152q5 67 15 110q0 4 1 7q-5 -4 -7 -11q-2 -9 -4.5 -21.5t-4.5 -27.5l-2 -30q-4 -46 -6 -94q-2 -38 -2 -114q-1 -19 4 -47v6zM48 550q4 27 5 38q2 6 -3 7q-8 -59 -10 -127zM440 399l-5 -29q-1 -10 -5 -30q-8 -40 -13 -60q-3 -12 -8 -28l-9 -29q29 68 40 176z
" />
    <glyph glyph-name="Otilde" unicode="&#xd5;" horiz-adv-x="780" 
d="M461 772q-21 0 -41 9t-39.5 19.5t-37 19.5t-34.5 9q-24 0 -36 -14.5t-19 -43.5h-51q6 60 34 94t76 34q22 0 42.5 -9t39.5 -19.5t37 -19.5t33 -9q23 0 35.5 14.5t19.5 43.5h50q-6 -58 -34 -93t-75 -35zM164 6q-33 11 -62 30q-30 20 -52 53q-19 28 -29 66q-2 7 -6.5 29.5
t-4.5 24.5q-6 44 -8 62q-1 14 -1 42q-1 15 -0.5 25.5t0.5 17.5v21q0 23 4 88.5t7 86.5q2 20 12 58q5 12 12.5 15.5t8.5 4.5q10 50 16 75q21 83 67.5 135t106.5 52q39 0 78 -23q41 -26 65 -52q13 -14 33 -46q24 -37 40 -100q11 -43 14 -96q2 -26 2 -40l-1 -28q-1 -20 -5 -60
q-2 -25 -6 -59.5t-7 -57.5q-15 -87 -50 -164q-28 -59 -57 -97q-28 -35 -53.5 -52.5t-59.5 -18.5q-31 -3 -64 8zM298 78q37 41 59 89q25 55 32 72q17 41 30 117q6 34 8 56q2 9 4 27q5 32 6 62q1 11 1 33q0 55 -11 113q-14 65 -35 109q-29 59 -85 97q-31 21 -64 21
q-40 0 -71 -29q-33 -32 -59 -87q-8 -17 -14.5 -39t-8.5 -28l-8 -24q-2 -8 -3.5 -15.5t-3.5 -15.5q8 -3 12 -12.5t4 -17.5q0 -11 -2 -33l-3 -46l-3 -40q-2 -36 -2 -79q0 -72 3.5 -142t9.5 -96q8 -36 24 -69q17 -37 41 -55q25 -19 51 -19q21 0 43 12t45 39zM76 701q4 15 11 34
l9 28q-8 -10 -22.5 -61t-13.5 -66q10 44 16 65zM77 736q-17 -46 -25 -101zM19 273l-1 70q1 50 7 152q5 67 15 110q0 4 1 7q-5 -4 -7 -11q-2 -9 -4.5 -21.5t-4.5 -27.5l-2 -30q-4 -46 -6 -94q-2 -38 -2 -114q-1 -19 4 -47v6zM48 550q4 27 5 38q2 6 -3 7q-8 -59 -10 -127z
M440 399l-5 -29q-1 -10 -5 -30q-8 -40 -13 -60q-3 -12 -8 -28l-9 -29q29 68 40 176z" />
    <glyph glyph-name="Odieresis" unicode="&#xd6;" horiz-adv-x="527" 
d="M358 917q-14 0 -21 5l-4 3q-1 4 -4 10t-3 11q2 16 15 20q12 4 18 4q7 0 13 -3q8 -3 12 3.5t3 -1.5q0 -40 -7 -45q-7 -7 -18 -7h-4zM148 937q-14 0 -21 5l-4 3q-1 4 -4 10t-3 11q2 16 15 20q12 4 18 4q7 0 13 -3q8 -3 12 -9.5t3 -14.5q0 -14 -7 -19q-7 -7 -18 -7h-4z
M164 6q-33 11 -62 30q-30 20 -52 53q-19 28 -29 66q-2 7 -6.5 29.5t-4.5 24.5q-6 44 -8 62q-1 14 -1 42q-1 15 -0.5 25.5t0.5 17.5v21q0 23 4 88.5t7 86.5q2 20 12 58q5 12 12.5 15.5t8.5 4.5q10 50 16 75q21 83 67.5 135t106.5 52q39 0 78 -23q41 -26 65 -52q13 -14 33 -46
q24 -37 40 -100q11 -43 14 -96q2 -26 2 -40l-1 -28q-1 -20 -5 -60q-2 -25 -6 -59.5t-7 -57.5q-15 -87 -50 -164q-28 -59 -57 -97q-28 -35 -53.5 -52.5t-59.5 -18.5q-31 -3 -64 8zM298 78q37 41 59 89q25 55 32 72q17 41 30 117q6 34 8 56q2 9 4 27q5 32 6 62q1 11 1 33
q0 55 -11 113q-14 65 -35 109q-29 59 -85 97q-31 21 -64 21q-40 0 -71 -29q-33 -32 -59 -87q-8 -17 -14.5 -39t-8.5 -28l-8 -24q-2 -8 -3.5 -15.5t-3.5 -15.5q8 -3 12 -12.5t4 -17.5q0 -11 -2 -33l-3 -46l-3 -40q-2 -36 -2 -79q0 -72 3.5 -142t9.5 -96q8 -36 24 -69
q17 -37 41 -55q25 -19 51 -19q21 0 43 12t45 39zM76 701q4 15 11 34l9 28q-8 -10 -22.5 -61t-13.5 -66q10 44 16 65zM77 736q-17 -46 -25 -101zM19 273l-1 70q1 50 7 152q5 67 15 110q0 4 1 7q-5 -4 -7 -11q-2 -9 -4.5 -21.5t-4.5 -27.5l-2 -30q-4 -46 -6 -94
q-2 -38 -2 -114q-1 -19 4 -47v6zM48 550q4 27 5 38q2 6 -3 7q-8 -59 -10 -127zM440 399l-5 -29q-1 -10 -5 -30q-8 -40 -13 -60q-3 -12 -8 -28l-9 -29q29 68 40 176z" />
    <glyph glyph-name="multiply" unicode="&#xd7;" horiz-adv-x="343" 
d="M262 177q-10 0 -17 7q-12 9 -33 30q-23 23 -32 35l-7 7l-6 -7q-6 -7 -13 -15.5t-17 -18.5q-2 -2 -17 -12q-3 -3 -6 -5.5t-5 -4.5q-1 -1 1 -5q-6 -9 -21 -7q-5 5 -7 9q-3 3 -3 8q-2 3 -3 9t-2 9q0 6 4 16q21 43 44 69l3 3q-2 2 -3 4t-2 3q-21 20 -54 44l-10 5q-6 6 -6 11
l2 10q2 -1 5 -2t5 -2l19 -11l19 -12q5 -4 9 -8t8 -7l16 -15l6 -5q28 28 43 40q17 16 45 35q20 13 35 19q3 2 12 2q7 0 9 -5q2 -3 4.5 -6.5t3.5 -6.5q4 -7 1 -11q-1 -1 1 -7l-17 -17l-28 -29q-5 -5 -11.5 -10.5t-13.5 -13.5l-33 -34l-4 -5q2 -3 5 -6t6 -7l50 -52l5.5 -5.5
t12.5 -5.5q2 -8 2 -11l-2 -6h-3z" />
    <glyph glyph-name="Oslash" unicode="&#xd8;" horiz-adv-x="780" 
d="M720 358q0 -171 -86.5 -269.5t-242.5 -98.5q-113 0 -185 47l-48 -68l-61 40l52 74q-88 97 -88 276q0 174 85.5 270t245.5 96q100 0 178 -45l46 66l61 -41l-51 -71q94 -99 94 -276zM625 358q0 129 -51 202l-320 -454q56 -38 137 -38q115 0 174.5 73t59.5 217zM156 358
q0 -126 47 -198l319 451q-53 35 -130 35q-116 0 -176 -73.5t-60 -214.5z" />
    <glyph glyph-name="Ugrave" unicode="&#xd9;" horiz-adv-x="730" 
d="M598 -137q-21 9 -28 14q-8 6 -14 15q-16 26 -23 39q-4 6 -16 38.5t-19 52.5q-19 63 -31 187.5t-12 205.5l1 61v15l-2 1l-3 -8l-41 -116q-14 -39 -35 -89q-23 -59 -64 -143q-14 -28 -33 -58q-18 -31 -55 -62q-10 -8 -33 -14q-4 -1 -10 -2t-14 -1q-28 0 -48 13
q-24 14 -43 28q-32 24 -47 63q-19 52 -26 114q0 21 -1 34l-1 68q0 51 4 99q4 32 19 192q3 40 16 101.5t27 107.5q5 13 17 29q10 12 25 13q5 0 12 -1.5t10 -1.5q9 -2 10 -9q2 -1 6 -1q2 -10 2 -15l-3 -14l-8 -49q-27 -170 -38 -251.5t-14 -146.5q-1 -18 -1 -54q-1 -12 -1 -37
q0 -66 7.5 -114t28.5 -85q4 -8 23 -36q4 -7 14 -7q11 0 24.5 7.5t23.5 17.5q29 26 50 67q16 31 46 95q7 15 19 45l22 53l17 43l12 31l21 52q34 86 48 131l15 40q9 21 12 44q3 21 14 32t25 11t24.5 -10t14.5 -29l1 -32q0 -15 -1 -22l-1 -24l-4 -88l1 -67l-1 -85q0 -21 2 -61
l2 -29q2 -38 4 -60q5 -54 17 -107t36 -136q8 -29 25 -74q2 -6 2 -8q0 -9 -8 -15h-9q-8 0 -12 2zM116 841l-3 1q-7 -7 -10 -18.5t-5 -17.5l2 -1q6 12 16 36zM20 369q2 36 4 56q3 37 11 111q4 32 5 49q1 12 3 30t6 42q9 53 21 105q11 45 24 74q1 1 1 4q0 1 -1 1l-2 -2
q-11 -15 -15 -31q-14 -46 -21 -91q-12 -76 -17 -115q-5 -34 -11 -102q-4 -42 -10 -116v-20q2 4 2 5zM275 147q21 41 43 92t41 99l35 92q39 97 56 153l9 29l-1 1q-1 -2 -2 -4.5t-2 -5.5l-26 -78q-28 -74 -43 -110q-8 -21 -41 -104l-12 -30q-27 -69 -60 -135q-2 -4 -2 -6
q4 4 5 7zM281 134q36 67 71 155q68 167 103 277q2 5 4 17q-50 -141 -92.5 -250t-92.5 -210q3 3 7 11zM455 519q-60 -172 -108 -287q57 127 108 287zM474 456v58h-1v-58h1zM323 176q11 25 12 32l-12 -25q-14 -31 -17 -38q6 6 17 31zM422 771h-59q-37 29 -80.5 76t-61.5 74v10
h105q16 -32 44.5 -76.5t51.5 -71.5v-12z" />
    <glyph glyph-name="Uacute" unicode="&#xda;" horiz-adv-x="730" 
d="M598 -137q-21 9 -28 14q-8 6 -14 15q-16 26 -23 39q-4 6 -16 38.5t-19 52.5q-19 63 -31 187.5t-12 205.5l1 61v15l-2 1l-3 -8l-41 -116q-14 -39 -35 -89q-23 -59 -64 -143q-14 -28 -33 -58q-18 -31 -55 -62q-10 -8 -33 -14q-4 -1 -10 -2t-14 -1q-28 0 -48 13
q-24 14 -43 28q-32 24 -47 63q-19 52 -26 114q0 21 -1 34l-1 68q0 51 4 99q4 32 19 192q3 40 16 101.5t27 107.5q5 13 17 29q10 12 25 13q5 0 12 -1.5t10 -1.5q9 -2 10 -9q2 -1 6 -1q2 -10 2 -15l-3 -14l-8 -49q-27 -170 -38 -251.5t-14 -146.5q-1 -18 -1 -54q-1 -12 -1 -37
q0 -66 7.5 -114t28.5 -85q4 -8 23 -36q4 -7 14 -7q11 0 24.5 7.5t23.5 17.5q29 26 50 67q16 31 46 95q7 15 19 45l22 53l17 43l12 31l21 52q34 86 48 131l15 40q9 21 12 44q3 21 14 32t25 11t24.5 -10t14.5 -29l1 -32q0 -15 -1 -22l-1 -24l-4 -88l1 -67l-1 -85q0 -21 2 -61
l2 -29q2 -38 4 -60q5 -54 17 -107t36 -136q8 -29 25 -74q2 -6 2 -8q0 -9 -8 -15h-9q-8 0 -12 2zM116 841l-3 1q-7 -7 -10 -18.5t-5 -17.5l2 -1q6 12 16 36zM20 369q2 36 4 56q3 37 11 111q4 32 5 49q1 12 3 30t6 42q9 53 21 105q11 45 24 74q1 1 1 4q0 1 -1 1l-2 -2
q-11 -15 -15 -31q-14 -46 -21 -91q-12 -76 -17 -115q-5 -34 -11 -102q-4 -42 -10 -116v-20q2 4 2 5zM275 147q21 41 43 92t41 99l35 92q39 97 56 153l9 29l-1 1q-1 -2 -2 -4.5t-2 -5.5l-26 -78q-28 -74 -43 -110q-8 -21 -41 -104l-12 -30q-27 -69 -60 -135q-2 -4 -2 -6
q4 4 5 7zM281 134q36 67 71 155q68 167 103 277q2 5 4 17q-50 -141 -92.5 -250t-92.5 -210q3 3 7 11zM455 519q-60 -172 -108 -287q57 127 108 287zM474 456v58h-1v-58h1zM323 176q11 25 12 32l-12 -25q-14 -31 -17 -38q6 6 17 31zM293 783q19 23 47.5 66.5t47.5 81.5h106
v-10q-21 -31 -66.5 -78.5t-76.5 -71.5h-58v12z" />
    <glyph glyph-name="Ucircumflex" unicode="&#xdb;" horiz-adv-x="730" 
d="M189 782q61 65 86 96.5t37 52.5h90q25 -49 125 -149v-11h-62q-44 26 -109 90q-64 -62 -107 -90h-60v11zM598 -137q-21 9 -28 14q-8 6 -14 15q-16 26 -23 39q-4 6 -16 38.5t-19 52.5q-19 63 -31 187.5t-12 205.5l1 61v15l-2 1l-3 -8l-41 -116q-14 -39 -35 -89
q-23 -59 -64 -143q-14 -28 -33 -58q-18 -31 -55 -62q-10 -8 -33 -14q-4 -1 -10 -2t-14 -1q-28 0 -48 13q-24 14 -43 28q-32 24 -47 63q-19 52 -26 114q0 21 -1 34l-1 68q0 51 4 99q4 32 19 192q3 40 16 101.5t27 107.5q5 13 17 29q10 12 25 13q5 0 12 -1.5t10 -1.5
q9 -2 10 -9q2 -1 6 -1q2 -10 2 -15l-3 -14l-8 -49q-27 -170 -38 -251.5t-14 -146.5q-1 -18 -1 -54q-1 -12 -1 -37q0 -66 7.5 -114t28.5 -85q4 -8 23 -36q4 -7 14 -7q11 0 24.5 7.5t23.5 17.5q29 26 50 67q16 31 46 95q7 15 19 45l22 53l17 43l12 31l21 52q34 86 48 131
l15 40q9 21 12 44q3 21 14 32t25 11t24.5 -10t14.5 -29l1 -32q0 -15 -1 -22l-1 -24l-4 -88l1 -67l-1 -85q0 -21 2 -61l2 -29q2 -38 4 -60q5 -54 17 -107t36 -136q8 -29 25 -74q2 -6 2 -8q0 -9 -8 -15h-9q-8 0 -12 2zM116 841l-3 1q-7 -7 -10 -18.5t-5 -17.5l2 -1q6 12 16 36
zM20 369q2 36 4 56q3 37 11 111q4 32 5 49q1 12 3 30t6 42q9 53 21 105q11 45 24 74q1 1 1 4q0 1 -1 1l-2 -2q-11 -15 -15 -31q-14 -46 -21 -91q-12 -76 -17 -115q-5 -34 -11 -102q-4 -42 -10 -116v-20q2 4 2 5zM275 147q21 41 43 92t41 99l35 92q39 97 56 153l9 29l-1 1
q-1 -2 -2 -4.5t-2 -5.5l-26 -78q-28 -74 -43 -110q-8 -21 -41 -104l-12 -30q-27 -69 -60 -135q-2 -4 -2 -6q4 4 5 7zM281 134q36 67 71 155q68 167 103 277q2 5 4 17q-50 -141 -92.5 -250t-92.5 -210q3 3 7 11zM455 519q-60 -172 -108 -287q57 127 108 287zM474 456v58h-1
v-58h1zM323 176q11 25 12 32l-12 -25q-14 -31 -17 -38q6 6 17 31z" />
    <glyph glyph-name="Udieresis" unicode="&#xdc;" horiz-adv-x="542" 
d="M451 820q-9 0 -21 5l-4 3q-1 4 -4 10t-3 11q2 16 15 20q12 4 18 4q7 0 13 -3q8 -3 12 -9.5t3 -14.5q0 -14 -6.5 -19.5t-18.5 -6.5h-4zM286 886q-14 0 -21 5l-4 3q-1 4 -4 10t-3 11q2 16 15 20q12 4 18 4q7 0 13 -3q8 -3 12 -9.5t3 -14.5q0 -14 -7 -20t-18 -6h-4z
M598 -137q-21 9 -28 14q-8 6 -14 15q-16 26 -23 39q-4 6 -16 38.5t-19 52.5q-19 63 -31 187.5t-12 205.5l1 61v15l-2 1l-3 -8l-41 -116q-14 -39 -35 -89q-23 -59 -64 -143q-14 -28 -33 -58q-18 -31 -55 -62q-10 -8 -33 -14q-4 -1 -10 -2t-14 -1q-28 0 -48 13q-24 14 -43 28
q-32 24 -47 63q-19 52 -26 114q0 21 -1 34l-1 68q0 51 4 99q4 32 19 192q3 40 16 101.5t27 107.5q5 13 17 29q10 12 25 13q5 0 12 -1.5t10 -1.5q9 -2 10 -9q2 -1 6 -1q2 -10 2 -15l-3 -14l-8 -49q-27 -170 -38 -251.5t-14 -146.5q-1 -18 -1 -54q-1 -12 -1 -37
q0 -66 7.5 -114t28.5 -85q4 -8 23 -36q4 -7 14 -7q11 0 24.5 7.5t23.5 17.5q29 26 50 67q16 31 46 95q7 15 19 45l22 53l17 43l12 31l21 52q34 86 48 131l15 40q9 21 12 44q3 21 14 32t25 11t24.5 -10t14.5 -29l1 -32q0 -15 -1 -22l-1 -24l-4 -88l1 -67l-1 -85q0 -21 2 -61
l2 -29q2 -38 4 -60q5 -54 17 -107t36 -136q8 -29 25 -74q2 -6 2 -8q0 -9 -8 -15h-9q-8 0 -12 2zM116 841l-3 1q-7 -7 -10 -18.5t-5 -17.5l2 -1q6 12 16 36zM20 369q2 36 4 56q3 37 11 111q4 32 5 49q1 12 3 30t6 42q9 53 21 105q11 45 24 74q1 1 1 4q0 1 -1 1l-2 -2
q-11 -15 -15 -31q-14 -46 -21 -91q-12 -76 -17 -115q-5 -34 -11 -102q-4 -42 -10 -116v-20q2 4 2 5zM275 147q21 41 43 92t41 99l35 92q39 97 56 153l9 29l-1 1q-1 -2 -2 -4.5t-2 -5.5l-26 -78q-28 -74 -43 -110q-8 -21 -41 -104l-12 -30q-27 -69 -60 -135q-2 -4 -2 -6
q4 4 5 7zM281 134q36 67 71 155q68 167 103 277q2 5 4 17q-50 -141 -92.5 -250t-92.5 -210q3 3 7 11zM455 519q-60 -172 -108 -287q57 127 108 287zM474 456v58h-1v-58h1zM323 176q11 25 12 32l-12 -25q-14 -31 -17 -38q6 6 17 31z" />
    <glyph glyph-name="Yacute" unicode="&#xdd;" horiz-adv-x="565" 
d="M97 -475q-32 20 -51 40t-31 52q-10 27 -13 58q-2 24 -2 35q0 12 2 36q2 22 11 53q12 37 28 64q33 60 86 79q24 8 47 8q14 0 27 -3q23 -4 45 -24q11 -10 22 -32l28 -61l-3 -7h-4q-7 0 -13 4t-8 5l-10 18q-18 32 -33 52q-1 1 -11 14q-7 10 -24 8q-61 -9 -98 -63
q-48 -71 -48 -158q0 -31 7 -58q11 -49 44 -82q24 -24 53 -24q34 0 75 31q36 27 54 43.5t33 41.5q11 18 21 41l4 9q14 39 19 59.5t13 61.5l8 44l2 27l6 55l3 54l3 51q3 46 4.5 104t1.5 104q0 45 -11 169l-2 23l-10 114h-0.5t-0.5 1q-2 -4 -2 -5q-19 -44 -27 -68
q-6 -15 -11.5 -25.5t-18.5 -30.5q-15 -23 -41 -53q-15 -16 -34 -29q-31 -21 -64 -21q-60 0 -92.5 66.5t-32.5 155.5l1 23q1 18 5 49l4 28l5 27q2 6 4 22l11 41q2 7 15 35q3 5 9 10q6 6 16 3q3 1 8 1t8 -2q1 -1 3 -1h2q6 0 16 -8l-2 -7l6 3q4 -3 1 -10l-9 -23
q-12 -33 -18 -66q-9 -47 -11 -65q-5 -33 -5 -73q0 -69 13 -120t38 -47q27 7 45.5 18.5t34.5 29.5q25 26 46 62q19 33 33 66l35 88q2 6 2 10q0 7 -0.5 17t0.5 23q1 18 14.5 30.5t26.5 12.5t17 -12q5 -14 7 -43q2 -44 4 -67l4 -34l6 -55q-1 12 9 -98q2 -9 6 -82q5 -70 5 -100
l1 -31l-1 -19l-1 -50l-3 -56q-2 -62 -4 -92l-4 -57l-5 -52q-3 -33 -9 -70q-4 -27 -12 -59q-5 -23 -16.5 -55.5t-21.5 -53.5q-16 -31 -34.5 -53t-46.5 -45q-27 -23 -55 -35q-37 -16 -72 -16q-49 0 -82 21zM109 784l-2 1q-1 -2 -3 -3.5t-3 -4.5q-2 -6 -5.5 -14t-6.5 -19
q-11 -37 -21 -109v-4q17 96 41 153zM117 760l8 18q-6 0 -8 -6q-10 -28 -12 -42zM149 773q-8 -7 -10.5 -19t-4.5 -17zM379 701q5 20 7 26q-9 -10 -9 -26h2zM354.5 605.5q8.5 22.5 8.5 26.5l-22 -56q5 7 13.5 29.5zM354 580q12 31 11 36q-14 -34 -28 -74q5 7 17 38z
M363.5 566.5q5.5 15.5 4.5 19.5l-14 -41q4 6 9.5 21.5zM336 -331l21 46q13 31 22 79q6 36 8 54l4 27q3 22 7 68l5 73l3 78q2 30 4 88v19q0 -1 -0.5 -1h-0.5l-1 -13v-19l-3 -51l-2 -62l-2 -28q-2 -36 -4 -54q-2 -25 -8 -83q-4 -43 -18 -108q-12 -58 -38 -113q-1 -1 -1 -3z
M60 -144q-27 -43 -35 -93q17 54 35 93zM17 -234q5 22 12 45q6 16 18 44q-17 -26 -28 -63.5t-10 -69.5q4 30 8 44zM70 -162q-19 -34 -25 -68zM377.5 -278q11.5 38 18.5 86q-15 -73 -53 -156q23 32 34.5 70zM417 -222q-20 -74 -45 -129q31 50 45 129zM216 783q19 23 47.5 66.5
t47.5 81.5h106v-10q-21 -31 -66.5 -78.5t-76.5 -71.5h-58v12z" />
    <glyph glyph-name="Thorn" unicode="&#xde;" horiz-adv-x="604" 
d="M554 382q0 -110 -73.5 -168.5t-212.5 -58.5h-81v-155h-90v714h90v-124h96q137 0 204 -51.5t67 -156.5zM187 231h72q108 0 155 34.5t47 111.5q0 70 -44.5 103t-140.5 33h-89v-282z" />
    <glyph glyph-name="germandbls" unicode="&#xdf;" horiz-adv-x="560" 
d="M78 756q-8 -29 -18 -100q-1 -13 -2 -20l2 1q6 37 25 130v0.5t-1 0.5q-4 -2 -6 -12zM432 345q8 -40 8 -75q0 -23 -2 -34q-5 -37 -18.5 -82.5t-28.5 -76.5q-7 -15 -31 -61q-21 -40 -52.5 -78.5t-62.5 -65.5q-38 -35 -92 -35q-37 0 -55 21t-18 58q0 53 33 129q32 74 96 157
l64 83l45 58l45 55l6 7l-6 27q-8 35 -27 57q-28 32 -68 32q-35 0 -65 -20q-18 -12 -57 -51q-7 -7 -10 -12q-1 -2 -3 -3q-3 -1 -3 -2v2q0 2 1.5 5.5t0.5 6.5l-8 -10h-7l-7 4l3 9l36 69q27 51 54 122l24 62q0 1 0.5 2.5t-0.5 4.5q-1 -3 -2 -5.5t-2 -4.5q-18 -53 -73 -163
l-13 -26q-14 -28 -20 -42q-2 -4 -7 -18l-3 -5h-2q-4 0 -6 6q-12 0 -10 9l6 22q7 26 13 37q17 38 18 40q8 13 17 35q2 5 44 104q16 38 23 59q9 26 10 48q1 17 -0.5 26.5t-7.5 23.5q-6 15 -18 11q-56 -18 -85 -107q-25 -75 -83 -628q-64 -610 -69 -610h-6q-10 0 -16 7
q3 17 5 35l107 1162q15 101 69 138q33 23 68 23q27 0 46 -16q36 -30 42 -69q3 -22 3 -42q0 -33 -9 -61q-9 -29 -31 -85l-11 -28q-9 -23 -27 -59l-5 -10l10 4q33 13 69 13q31 0 57 -15q31 -17 54 -48q6 -8 10 -14.5t7 -11.5l6 7q30 35 53 69q36 52 65.5 99.5t37.5 62.5l12 1
q6 0 10 -8q-32 -58 -54.5 -92.5t-55.5 -80.5q-46 -62 -51 -71q-3 -5 -11 -15l3 -9q13 -39 18 -63zM226 765q0 -1 -0.5 -1.5t-0.5 -1.5q-3 -7 -5 -15t-5 -15l-26 -65q-10 -26 -44 -98q-16 -32 -23 -48l-14 -33q-5 -15 -7 -19l1 -5h2l3 8q18 42 28 62q5 12 10 21.5t9 17.5
q35 76 60 143q9 25 12 49zM534 611l2 -1l14 24q0 1 -0.5 1h-0.5zM179 515q15 26 42 93q4 12 7 18h-2q-15 -35 -57 -120v-0.5t1 -0.5q4 1 9 10zM273 7q41 78 48 95q24 60 35 103t14 99q1 14 1 42q0 10 -1 17l-5 -6l-28 -35l-22 -27q-44 -54 -64 -81q-55 -73 -92 -140
q-30 -52 -43 -101q-7 -28 -7 -50q0 -32 13 -48q5 -6 14 -9.5t15 -1.5q21 10 25 13q27 16 77 97q9 13 20 33zM316 56q61 108 66 205q-14 -91 -66 -205zM316 17l43 81q17 38 26 74q2 14 4 19q-26 -67 -41 -103t-36 -73l2 -1q0 1 2 3zM412 170l-17 -44q-22 -60 -37 -88
q37 61 54 132zM105 -9q-5 -10 -9 -27.5t-2 -22.5q8 34 11 50zM85 -78l9 57q-10 -31 -9 -57zM619 966z" />
    <glyph glyph-name="agrave" unicode="&#xe0;" horiz-adv-x="487" 
d="M195 551q-24 46 -41 74q8 12 10.5 15.5t5 2.5t5.5 0l70 -127l-20 -16q-8 9 -30 51zM191 586q18 -29 29 -42q-13 22 -29 42zM174 8q-23 37 -19 99l1 42q-36 -67 -54.5 -96.5t-33.5 -41t-36 -11.5q-40 0 -66 34t-26 85q0 65 25 145.5t67 136.5t89 56q30 0 54 -16t40 -43
q12 13 25 13q22 0 22 -28q0 -14 -7 -98q-10 -97 -16 -141q-10 -78 -10 -102q0 -17 4 -25t13 -8q51 0 120.5 102t121.5 212h12q6 0 8 -1.5t2 -5.5q-50 -100 -75 -147t-83.5 -122.5t-106.5 -75.5t-71 37zM96 99q39 63 70.5 141t31.5 117q0 16 -13 38t-30 24q-29 0 -62 -61.5
t-56 -143.5t-23 -134q0 -18 6 -31t18 -13q19 0 58 63zM-15 186q11 49 27 95q19 55 64 119q6 8 10 12l-2 2q-3 -3 -11.5 -11t-13.5 -17q-16 -26 -23 -39q-28 -56 -49 -138l-5 -28q1 0 3 5zM51 297q16 34 29.5 59t31.5 46l-2 1l-2 -1q-19 -21 -26 -34q-27 -51 -35 -72l-3 -10
l-3 -9zM25.5 223q3.5 12 2.5 18l-9 -35q3 5 6.5 17zM152 188q7 11 12 26l-2 1q-3 -9 -11 -27h1zM177 142q1 22 6 46l3 25q-6 -8 -7 -17q-9 -56 -9 -95q0 -19 1 -28z" />
    <glyph glyph-name="aacute" unicode="&#xe1;" horiz-adv-x="487" 
d="M223 603q-34 -39 -58 -62q5 -14 7 -18t4.5 -3.5t4.5 -1.5l99 106l-15 21q-10 -7 -42 -42zM211 570q24 24 38 34q-18 -19 -38 -34zM174 8q-23 37 -19 99l1 42q-36 -67 -54.5 -96.5t-33.5 -41t-36 -11.5q-40 0 -66 34t-26 85q0 65 25 145.5t67 136.5t89 56q30 0 54 -16
t40 -43q12 13 25 13q22 0 22 -28q0 -14 -7 -98q-10 -97 -16 -141q-10 -78 -10 -102q0 -17 4 -25t13 -8q51 0 120.5 102t121.5 212h12q6 0 8 -1.5t2 -5.5q-50 -100 -75 -147t-83.5 -122.5t-106.5 -75.5t-71 37zM96 99q39 63 70.5 141t31.5 117q0 16 -13 38t-30 24
q-29 0 -62 -61.5t-56 -143.5t-23 -134q0 -18 6 -31t18 -13q19 0 58 63zM-15 186q11 49 27 95q19 55 64 119q6 8 10 12l-2 2q-3 -3 -11.5 -11t-13.5 -17q-16 -26 -23 -39q-28 -56 -49 -138l-5 -28q1 0 3 5zM51 297q16 34 29.5 59t31.5 46l-2 1l-2 -1q-19 -21 -26 -34
q-27 -51 -35 -72l-3 -10l-3 -9zM25.5 223q3.5 12 2.5 18l-9 -35q3 5 6.5 17zM152 188q7 11 12 26l-2 1q-3 -9 -11 -27h1zM177 142q1 22 6 46l3 25q-6 -8 -7 -17q-9 -56 -9 -95q0 -19 1 -28z" />
    <glyph glyph-name="acircumflex" unicode="&#xe2;" horiz-adv-x="487" 
d="M106 529q-4 5 -3 8q1 5 8 13q10 12 17 17l22 17l20 12l24 14l20 11l5 2q3 1 6 -2l5 -3q2 -1 3.5 -1.5t2.5 -1.5q4 -4 6 -10l3 -6q4 -11 12 -34q2 -7 7 -19l13 -24l1.5 -3t-1.5 -6l2 -2q-1 -4 -4 -5l-4 1q-3 0 -6 3q-8 5 -14 15q-6 12 -10 19q-2 3 -6 13q-5 11 -11 35
l-1 3l-25 -17l-38 -25l-18 -11q-1 -2 -11 -7.5t-21 -7.5l-2 1zM108 537q12 15 33 31q9 7 42 27l33 20l1 2l-2 -1q-1 0 -29 -17q-8 -5 -26 -16q-5 -4 -12.5 -9t-16.5 -12q-12 -8 -19 -17q-4 -4 -5 -8h1zM174 8q-23 37 -19 99l1 42q-36 -67 -54.5 -96.5t-33.5 -41t-36 -11.5
q-40 0 -66 34t-26 85q0 65 25 145.5t67 136.5t89 56q30 0 54 -16t40 -43q12 13 25 13q22 0 22 -28q0 -14 -7 -98q-10 -97 -16 -141q-10 -78 -10 -102q0 -17 4 -25t13 -8q51 0 120.5 102t121.5 212h12q6 0 8 -1.5t2 -5.5q-50 -100 -75 -147t-83.5 -122.5t-106.5 -75.5t-71 37
zM96 99q39 63 70.5 141t31.5 117q0 16 -13 38t-30 24q-29 0 -62 -61.5t-56 -143.5t-23 -134q0 -18 6 -31t18 -13q19 0 58 63zM-15 186q11 49 27 95q19 55 64 119q6 8 10 12l-2 2q-3 -3 -11.5 -11t-13.5 -17q-16 -26 -23 -39q-28 -56 -49 -138l-5 -28q1 0 3 5zM51 297
q16 34 29.5 59t31.5 46l-2 1l-2 -1q-19 -21 -26 -34q-27 -51 -35 -72l-3 -10l-3 -9zM25.5 223q3.5 12 2.5 18l-9 -35q3 5 6.5 17zM152 188q7 11 12 26l-2 1q-3 -9 -11 -27h1zM177 142q1 22 6 46l3 25q-6 -8 -7 -17q-9 -56 -9 -95q0 -19 1 -28z" />
    <glyph glyph-name="atilde" unicode="&#xe3;" horiz-adv-x="487" 
d="M318 596q-3 2 -7 0h-2l-3 3l-3 -4q-2 -1 -4 -3t-3 -2q-4 -3 -19 -9q-7 -3 -11 -4q-17 -3 -38 2l-36 9q-32 8 -38 8q-12 3 -28 0q-18 -4 -31 -19q-4 -5 -11 -13t-11 -15q-6 -7 -8 -18q-1 -5 1.5 -9t5.5 -5l2 -1v0q1 0 1 1l-2 4l4 -2l3 5q-1 1 -1 5l3 -1v6q0 4 8 5
q4 1 17 6q12 5 24 5q9 0 31 -5l33 -8q6 -2 18 -5q8 -2 25 -3q24 -1 33 6q26 18 28 23zM316 585zM174 8q-23 37 -19 99l1 42q-36 -67 -54.5 -96.5t-33.5 -41t-36 -11.5q-40 0 -66 34t-26 85q0 65 25 145.5t67 136.5t89 56q30 0 54 -16t40 -43q12 13 25 13q22 0 22 -28
q0 -14 -7 -98q-10 -97 -16 -141q-10 -78 -10 -102q0 -17 4 -25t13 -8q51 0 120.5 102t121.5 212h12q6 0 8 -1.5t2 -5.5q-50 -100 -75 -147t-83.5 -122.5t-106.5 -75.5t-71 37zM96 99q39 63 70.5 141t31.5 117q0 16 -13 38t-30 24q-29 0 -62 -61.5t-56 -143.5t-23 -134
q0 -18 6 -31t18 -13q19 0 58 63zM-15 186q11 49 27 95q19 55 64 119q6 8 10 12l-2 2q-3 -3 -11.5 -11t-13.5 -17q-16 -26 -23 -39q-28 -56 -49 -138l-5 -28q1 0 3 5zM51 297q16 34 29.5 59t31.5 46l-2 1l-2 -1q-19 -21 -26 -34q-27 -51 -35 -72l-3 -10l-3 -9zM25.5 223
q3.5 12 2.5 18l-9 -35q3 5 6.5 17zM152 188q7 11 12 26l-2 1q-3 -9 -11 -27h1zM177 142q1 22 6 46l3 25q-6 -8 -7 -17q-9 -56 -9 -95q0 -19 1 -28z" />
    <glyph glyph-name="adieresis" unicode="&#xe4;" horiz-adv-x="487" 
d="M231.5 489.5q-16.5 11.5 -16.5 22.5q0 5 1 8l2.5 2.5t2.5 4.5q14 18 33 18q11 0 20.5 -6t16.5 -16q2 -2 2 -4t1 -3q-1 -15 -9 -26.5t-24 -11.5q-13 0 -29.5 11.5zM100.5 524.5q-16.5 11.5 -16.5 22.5q0 7 1 8l2.5 2.5t2.5 4.5q14 18 33 18q11 0 21 -6q12 -8 16 -16l2 -4
t1 -3q-1 -15 -9 -26.5t-24 -11.5q-13 0 -29.5 11.5zM174 8q-23 37 -19 99l1 42q-36 -67 -54.5 -96.5t-33.5 -41t-36 -11.5q-40 0 -66 34t-26 85q0 65 25 145.5t67 136.5t89 56q30 0 54 -16t40 -43q12 13 25 13q22 0 22 -28q0 -14 -7 -98q-10 -97 -16 -141q-10 -78 -10 -102
q0 -17 4 -25t13 -8q51 0 120.5 102t121.5 212h12q6 0 8 -1.5t2 -5.5q-50 -100 -75 -147t-83.5 -122.5t-106.5 -75.5t-71 37zM96 99q39 63 70.5 141t31.5 117q0 16 -13 38t-30 24q-29 0 -62 -61.5t-56 -143.5t-23 -134q0 -18 6 -31t18 -13q19 0 58 63zM-15 186q11 49 27 95
q19 55 64 119q6 8 10 12l-2 2q-3 -3 -11.5 -11t-13.5 -17q-16 -26 -23 -39q-28 -56 -49 -138l-5 -28q1 0 3 5zM51 297q16 34 29.5 59t31.5 46l-2 1l-2 -1q-19 -21 -26 -34q-27 -51 -35 -72l-3 -10l-3 -9zM25.5 223q3.5 12 2.5 18l-9 -35q3 5 6.5 17zM152 188q7 11 12 26
l-2 1q-3 -9 -11 -27h1zM177 142q1 22 6 46l3 25q-6 -8 -7 -17q-9 -56 -9 -95q0 -19 1 -28z" />
    <glyph glyph-name="aring" unicode="&#xe5;" horiz-adv-x="487" 
d="M196 506q-4 0 -10 1q-5 1 -8.5 2.5t-5.5 3t-2 2.5q-1 1 -1 3l-2 2q0 1 -1 2v2v2v2v5q0 1 0.5 3l0.5 2q1 5 2 7l1.5 1.5l0.5 0.5l2 3q1 1 1.5 2t1.5 1q0 1 1 1q1 1 2 1q1 2 3 3q2 2 5 3q5 2 11 2q10 0 16 -4q3 -1 6 -4q5 -5 6 -9t1 -6v-4q-1 -2 -1 -3q0 -2 -1 -5.5
t-2 -5.5l-2 -4l-2 -2l-2 -2q-1 -2 -5 -4q-2 -2 -7 -3h-2q-4 -1 -7 -1zM197 512h3q3 1 4 2l2 1l4 2l2 2q2 3 3 7q3 7 2 8l1 2v3v3v8l-6 4q-2 2 -6 4h-4h-2q-3 0 -4 -2l4 2h-2h-1v-7v0v0v-2v0q-1 -3 -1 -4t-1 -2l-1 -2q0 -1 -1 -5l-1 -1v-2v-2v-2l-0.5 -1t-0.5 -4v-3
q1 -2 1 -3v-1q1 0 1 -1v0l2 -2l5 -2q-3 -4 -6 -1q0 1 3 1zM184 558q-2 -1 -3 -3v0zM170 534v2q1 5 2 7q1 3 6 9v1v0l-1 -1l-4.5 -6t-2 -4.5t-0.5 -5.5l-1 -2h1zM216 524q2 3 3 7q1 3 0 5v-3q-1 -2 -2 -6q-1 -7 -2 -8q1 2 1 5zM169 529l1 4h-1v-4v0zM219 529q-2 -11 -7 -16
q6 5 7 16zM221 524l-1 -4q1 2 1 4zM217 515l2 2l-2 -2v0zM174 8q-23 37 -19 99l1 42q-36 -67 -54.5 -96.5t-33.5 -41t-36 -11.5q-40 0 -66 34t-26 85q0 65 25 145.5t67 136.5t89 56q30 0 54 -16t40 -43q12 13 25 13q22 0 22 -28q0 -14 -7 -98q-10 -97 -16 -141
q-10 -78 -10 -102q0 -17 4 -25t13 -8q51 0 120.5 102t121.5 212h12q6 0 8 -1.5t2 -5.5q-50 -100 -75 -147t-83.5 -122.5t-106.5 -75.5t-71 37zM96 99q39 63 70.5 141t31.5 117q0 16 -13 38t-30 24q-29 0 -62 -61.5t-56 -143.5t-23 -134q0 -18 6 -31t18 -13q19 0 58 63z
M-15 186q11 49 27 95q19 55 64 119q6 8 10 12l-2 2q-3 -3 -11.5 -11t-13.5 -17q-16 -26 -23 -39q-28 -56 -49 -138l-5 -28q1 0 3 5zM51 297q16 34 29.5 59t31.5 46l-2 1l-2 -1q-19 -21 -26 -34q-27 -51 -35 -72l-3 -10l-3 -9zM25.5 223q3.5 12 2.5 18l-9 -35q3 5 6.5 17z
M152 188q7 11 12 26l-2 1q-3 -9 -11 -27h1zM177 142q1 22 6 46l3 25q-6 -8 -7 -17q-9 -56 -9 -95q0 -19 1 -28z" />
    <glyph glyph-name="ae" unicode="&#xe6;" horiz-adv-x="863" 
d="M46 149q0 163 244 171l90 3v34q0 60 -27.5 88.5t-84.5 28.5q-68 0 -150 -41l-27 66q35 20 84.5 33t99.5 13q62 0 102.5 -20.5t61.5 -65.5q26 42 67.5 64.5t96.5 22.5q96 0 153 -66t57 -174v-54h-343q4 -187 155 -187q43 0 80.5 8t83.5 29v-77q-43 -19 -80 -27t-87 -8
q-142 0 -203 113q-40 -61 -88.5 -87t-114.5 -26q-80 0 -125 42t-45 117zM137 148q0 -45 25.5 -66t67.5 -21q68 0 108 40t40 113v48l-75 -3q-86 -3 -126 -29t-40 -82zM602 474q-58 0 -91 -39t-39 -114h248q0 74 -30.5 113.5t-87.5 39.5z" />
    <glyph glyph-name="ccedilla" unicode="&#xe7;" horiz-adv-x="386" 
d="M106 -12zM98 -3zM77 -63q-3 -5 -8 -12q-13 -24 -19 -31q13 18 16 20q1 1 14 23v3q0 3 -3 -3zM65 -64q-4 -4 -8 -11q-7 -14 -20 -29l-2 -3q6 7 8 10q7 8 14 17q10 14 10 16q0 3 1 3q0 2 -3 -3zM78 -74l-12 -21q11 15 21 33q10 17 8 19q-1 -2 -17 -31zM-30 80.5
q-20 41.5 -20 92.5q0 63 20 113q39 97 87 147t123 50q23 0 48 -10q22 -9 33.5 -28.5t11.5 -41.5q0 -36 -37 -73l-11 -9q-1 -1 -4 -1t-11 12l-1 2q0 2 4 4.5t6 4.5q13 18 20.5 33.5t7.5 33.5t-7 30.5t-24 12.5q-38 0 -79 -52.5t-68.5 -124.5t-27.5 -124q0 -44 14 -81t38 -37
q60 0 109.5 36.5t91 96.5t93.5 156q3 1 5 2t4 1q3 0 13 -10q-78 -157 -153 -241.5t-149 -84.5q-45 0 -81 24.5t-56 66zM46 326q39 75 57 98q-15 -19 -48.5 -65t-39.5 -74q-1 -4 -1 -9q0 -7 10 9.5t22 40.5zM83 327q44 75 59 93l7 9q-6 -7 -25.5 -32t-40.5 -56t-28 -51
q-3 -7 -3 -10t9.5 11.5t21.5 35.5zM20 322l32 66q-30 -48 -59 -104.5t-22 -60.5q15 26 49 99zM379 283q1 7 -13 -19.5t-15 -31.5q-1 -7 13 19.5t15 31.5z" />
    <glyph glyph-name="egrave" unicode="&#xe8;" horiz-adv-x="382" 
d="M185 566q-24 46 -41 74q8 12 10.5 15.5t5 2.5t5.5 0l70 -127l-20 -16q-8 9 -30 51zM181 601q18 -29 29 -42q-13 22 -29 42zM39.5 26.5q-39.5 26.5 -60.5 71t-18 96.5q-1 60 25.5 128.5t70.5 115.5t94 47q34 0 60 -22.5t27 -54.5q0 -34 -33 -81.5t-80.5 -91.5t-88.5 -68
q-1 -9 -1 -26q0 -46 20 -77t62 -31q69 0 129.5 70.5t136.5 219.5q11 0 14.5 -1t7.5 -6q-67 -139 -138.5 -227.5t-140.5 -88.5q-47 0 -86.5 26.5zM102 453q-3 0 -4 -1q-20 -16 -30 -25q-12 -11 -20.5 -23.5t-21.5 -35.5q-15 -27 -29 -68l1 -2q34 92 104 155zM96 419l32 32
q-20 -9 -34 -25t-30 -40h0.5t0.5 -1q33 36 31 34zM156 310.5q50 58.5 50 110.5v4q0 10 -3.5 14.5t-16.5 4.5q-26 0 -56.5 -35.5t-55 -92t-34.5 -115.5q66 51 116 109.5zM91 385q-21 -9 -35 -34z" />
    <glyph glyph-name="eacute" unicode="&#xe9;" horiz-adv-x="382" 
d="M133 613q-34 -39 -58 -62q5 -14 7 -18t4.5 -3.5t4.5 -1.5l99 106l-15 21q-10 -7 -42 -42zM121 580q24 24 38 34q-18 -19 -38 -34zM39.5 26.5q-39.5 26.5 -60.5 71t-18 96.5q-1 60 25.5 128.5t70.5 115.5t94 47q34 0 60 -22.5t27 -54.5q0 -34 -33 -81.5t-80.5 -91.5
t-88.5 -68q-1 -9 -1 -26q0 -46 20 -77t62 -31q69 0 129.5 70.5t136.5 219.5q11 0 14.5 -1t7.5 -6q-67 -139 -138.5 -227.5t-140.5 -88.5q-47 0 -86.5 26.5zM102 453q-3 0 -4 -1q-20 -16 -30 -25q-12 -11 -20.5 -23.5t-21.5 -35.5q-15 -27 -29 -68l1 -2q34 92 104 155z
M96 419l32 32q-20 -9 -34 -25t-30 -40h0.5t0.5 -1q33 36 31 34zM156 310.5q50 58.5 50 110.5v4q0 10 -3.5 14.5t-16.5 4.5q-26 0 -56.5 -35.5t-55 -92t-34.5 -115.5q66 51 116 109.5zM91 385q-21 -9 -35 -34z" />
    <glyph glyph-name="ecircumflex" unicode="&#xea;" horiz-adv-x="382" 
d="M102 543q-4 3 -2 8q1 4 6 11q5 8 14 15l17 15l16 11l19 12l16 11l4 2q1 1 4 -2l5 -3l2 -2q2 0 2 -1l16 -8l3 -6q6 -16 9 -30q2 -10 6 -18l10 -21q0 -1 1 -3q1 -3 -1 -5l-9 -3q-3 -4 -4 -4l-3 1q6 3 6 2q-22 13 -22 14q-5 11 -7 17q-2 3 -6 12q-5 16 -9 31v3l-20 -15
l-30 -22l-14 -11q-8 -5 -9 -6q-8 -5 -17 -7l-2 1zM103 550q10 14 27 28q7 6 33 24l26 18q1 0 1 2l-1 -1q-1 0 -24 -15q-6 -5 -20 -14q-4 -4 -10 -8.5t-13 -10.5q-10 -8 -15 -16q-3 -3 -5 -7h1zM39.5 26.5q-39.5 26.5 -60.5 71t-18 96.5q-1 60 25.5 128.5t70.5 115.5t94 47
q34 0 60 -22.5t27 -54.5q0 -34 -33 -81.5t-80.5 -91.5t-88.5 -68q-1 -9 -1 -26q0 -46 20 -77t62 -31q69 0 129.5 70.5t136.5 219.5q11 0 14.5 -1t7.5 -6q-67 -139 -138.5 -227.5t-140.5 -88.5q-47 0 -86.5 26.5zM102 453q-3 0 -4 -1q-20 -16 -30 -25q-12 -11 -20.5 -23.5
t-21.5 -35.5q-15 -27 -29 -68l1 -2q34 92 104 155zM96 419l32 32q-20 -9 -34 -25t-30 -40h0.5t0.5 -1q33 36 31 34zM156 310.5q50 58.5 50 110.5v4q0 10 -3.5 14.5t-16.5 4.5q-26 0 -56.5 -35.5t-55 -92t-34.5 -115.5q66 51 116 109.5zM91 385q-21 -9 -35 -34z" />
    <glyph glyph-name="edieresis" unicode="&#xeb;" horiz-adv-x="382" 
d="M191.5 529.5q-16.5 11.5 -16.5 22.5q0 5 1 8l2.5 2.5t2.5 4.5q14 18 33 18q11 0 20.5 -6t16.5 -16q2 -2 2 -4t1 -3q-1 -15 -9 -26.5t-24 -11.5q-13 0 -29.5 11.5zM80.5 544.5q-16.5 11.5 -16.5 22.5q0 7 1 8l2.5 2.5t2.5 4.5q14 18 33 18q11 0 21 -6q12 -8 16 -16l2 -4
t1 -3q-1 -15 -9 -26.5t-24 -11.5q-13 0 -29.5 11.5zM39.5 26.5q-39.5 26.5 -60.5 71t-18 96.5q-1 60 25.5 128.5t70.5 115.5t94 47q34 0 60 -22.5t27 -54.5q0 -34 -33 -81.5t-80.5 -91.5t-88.5 -68q-1 -9 -1 -26q0 -46 20 -77t62 -31q69 0 129.5 70.5t136.5 219.5
q11 0 14.5 -1t7.5 -6q-67 -139 -138.5 -227.5t-140.5 -88.5q-47 0 -86.5 26.5zM102 453q-3 0 -4 -1q-20 -16 -30 -25q-12 -11 -20.5 -23.5t-21.5 -35.5q-15 -27 -29 -68l1 -2q34 92 104 155zM96 419l32 32q-20 -9 -34 -25t-30 -40h0.5t0.5 -1q33 36 31 34zM156 310.5
q50 58.5 50 110.5v4q0 10 -3.5 14.5t-16.5 4.5q-26 0 -56.5 -35.5t-55 -92t-34.5 -115.5q66 51 116 109.5zM91 385q-21 -9 -35 -34z" />
    <glyph glyph-name="igrave" unicode="&#xec;" horiz-adv-x="249" 
d="M55 566q-24 46 -41 74q8 12 10.5 15.5t5 2.5t5.5 0l70 -127l-20 -16q-8 9 -30 51zM51 601q18 -29 29 -42q-13 22 -29 42zM37 12q-40 18 -59 80.5t-19 145.5q0 68 11.5 129.5t30.5 95.5q5 8 13 8h4q-2 -5 -3.5 -9.5l-2.5 -7.5l2 -1q3 3 10 18l10 -2q0 -5 1 -9l5 6
q3 0 7 -2q20 -16 20 -34q0 -16 -11 -77q-1 -8 -10 -64t-9 -105q0 -45 10.5 -96t29.5 -51q16 0 36.5 27.5t47.5 79.5t89 179q13 0 16.5 -1t3.5 -3t2 -3q-28 -55 -51.5 -106t-28.5 -63q-38 -85 -58 -116t-44 -31q-33 0 -53 12zM-23 189q1 14 2.5 41t3.5 47q5 39 12 78l6 35
q-29 -121 -25 -229zM239 278q-2 -4 -8 -16.5t-9 -23.5q12 26 17 40z" />
    <glyph glyph-name="iacute" unicode="&#xed;" horiz-adv-x="249" 
d="M73 613q-34 -39 -58 -62q5 -14 7 -18t4.5 -3.5t4.5 -1.5l99 106l-15 21q-10 -7 -42 -42zM61 580q24 24 38 34q-18 -19 -38 -34zM37 12q-40 18 -59 80.5t-19 145.5q0 68 11.5 129.5t30.5 95.5q5 8 13 8h4q-2 -5 -3.5 -9.5l-2.5 -7.5l2 -1q3 3 10 18l10 -2q0 -5 1 -9l5 6
q3 0 7 -2q20 -16 20 -34q0 -16 -11 -77q-1 -8 -10 -64t-9 -105q0 -45 10.5 -96t29.5 -51q16 0 36.5 27.5t47.5 79.5t89 179q13 0 16.5 -1t3.5 -3t2 -3q-28 -55 -51.5 -106t-28.5 -63q-38 -85 -58 -116t-44 -31q-33 0 -53 12zM-23 189q1 14 2.5 41t3.5 47q5 39 12 78l6 35
q-29 -121 -25 -229zM239 278q-2 -4 -8 -16.5t-9 -23.5q12 26 17 40z" />
    <glyph glyph-name="icircumflex" unicode="&#xee;" horiz-adv-x="249" 
d="M-8 543q-4 3 -2 8q1 4 6 11q5 8 14 15l17 15l16 11l19 12l16 11l4 2q1 1 4 -2l5 -3l2 -2q2 0 2 -1l16 -8l3 -6q6 -16 9 -30q2 -10 6 -18l10 -21q0 -1 1 -3q1 -3 -1 -5l-9 -3q-3 -4 -4 -4l-3 1q6 3 6 2q-22 13 -22 14q-5 11 -7 17q-2 3 -6 12q-5 16 -9 31v3l-20 -15
l-30 -22l-14 -11q-8 -5 -9 -6q-8 -5 -17 -7l-2 1zM-7 550q10 14 27 28q7 6 33 24l26 18q1 0 1 2l-1 -1q-1 0 -24 -15q-6 -5 -20 -14q-4 -4 -10 -8.5t-13 -10.5q-10 -8 -15 -16q-3 -3 -5 -7h1zM37 12q-40 18 -59 80.5t-19 145.5q0 68 11.5 129.5t30.5 95.5q5 8 13 8h4
q-2 -5 -3.5 -9.5l-2.5 -7.5l2 -1q3 3 10 18l10 -2q0 -5 1 -9l5 6q3 0 7 -2q20 -16 20 -34q0 -16 -11 -77q-1 -8 -10 -64t-9 -105q0 -45 10.5 -96t29.5 -51q16 0 36.5 27.5t47.5 79.5t89 179q13 0 16.5 -1t3.5 -3t2 -3q-28 -55 -51.5 -106t-28.5 -63q-38 -85 -58 -116
t-44 -31q-33 0 -53 12zM-23 189q1 14 2.5 41t3.5 47q5 39 12 78l6 35q-29 -121 -25 -229zM239 278q-2 -4 -8 -16.5t-9 -23.5q12 26 17 40z" />
    <glyph glyph-name="idieresis" unicode="&#xef;" horiz-adv-x="249" 
d="M81.5 509.5q-16.5 11.5 -16.5 22.5q0 5 1 8l2.5 2.5t2.5 4.5q14 18 33 18q11 0 20.5 -6t16.5 -16q2 -2 2 -4t1 -3q-1 -15 -9 -26.5t-24 -11.5q-13 0 -29.5 11.5zM-19.5 544.5q-16.5 11.5 -16.5 22.5q0 7 1 8l2.5 2.5t2.5 4.5q14 18 33 18q11 0 21 -6q12 -8 16 -16l2 -4
t1 -3q-1 -15 -9 -26.5t-24 -11.5q-13 0 -29.5 11.5zM37 12q-40 18 -59 80.5t-19 145.5q0 68 11.5 129.5t30.5 95.5q5 8 13 8h4q-2 -5 -3.5 -9.5l-2.5 -7.5l2 -1q3 3 10 18l10 -2q0 -5 1 -9l5 6q3 0 7 -2q20 -16 20 -34q0 -16 -11 -77q-1 -8 -10 -64t-9 -105q0 -45 10.5 -96
t29.5 -51q16 0 36.5 27.5t47.5 79.5t89 179q13 0 16.5 -1t3.5 -3t2 -3q-28 -55 -51.5 -106t-28.5 -63q-38 -85 -58 -116t-44 -31q-33 0 -53 12zM-23 189q1 14 2.5 41t3.5 47q5 39 12 78l6 35q-29 -121 -25 -229zM239 278q-2 -4 -8 -16.5t-9 -23.5q12 26 17 40z" />
    <glyph glyph-name="eth" unicode="&#xf0;" horiz-adv-x="604" 
d="M551 275q0 -138 -65 -211.5t-185 -73.5q-110 0 -178 66.5t-68 176.5q0 112 63.5 176t171.5 64q110 0 156 -58l4 2q-29 104 -124 191l-130 -75l-38 55l112 64q-42 28 -90 53l36 60q76 -36 126 -72l115 67l38 -54l-99 -57q74 -68 114.5 -164.5t40.5 -209.5zM462 251
q0 70 -43 110.5t-116 40.5q-81 0 -120 -42.5t-39 -129.5q0 -81 41 -124.5t118 -43.5q83 0 121 48.5t38 140.5z" />
    <glyph glyph-name="ntilde" unicode="&#xf1;" horiz-adv-x="436" 
d="M338 626q-3 2 -7 0h-2l-3 3l-3 -4q-2 -1 -4 -3t-3 -2q-4 -3 -19 -9q-7 -3 -11 -4q-17 -3 -38 2l-36 9q-32 8 -38 8q-12 3 -28 0q-18 -4 -31 -19q-4 -5 -11 -13t-11 -15q-6 -7 -8 -18q-1 -5 1.5 -9t5.5 -5l2 -1v0q1 0 1 1l-2 4l4 -2l3 5q-1 1 -1 5l3 -1v6q0 4 8 5
q4 1 17 6q12 5 24 5q9 0 31 -5l33 -8q6 -2 18 -5q8 -2 25 -3q24 -1 33 6q26 18 28 23zM336 615zM232 14l-18 14q-15 9 -18 31q-1 11 -1 33q0 48 8 92.5t22 102.5q12 52 17.5 80t6.5 57q0 22 -6 38q-11 -3 -21 -11q-11 -10 -22 -28q-2 -4 -12 -21.5t-16 -34.5l-30 -84l-9 -34
l-7 -25l-6 -22q-11 -40 -12 -44l-27 -90q-1 -3 -12 -25q-3 -6 -7 -9q-8 -6 -18 -5q-16 3 -27 13l-16 12q-16 10 -19 30q-7 28 -7 77q0 48 11 176q7 64 8 101v2q1 13 15 12q1 -3 1 -12l8 12l9 -1v-13q3 1 4.5 4.5t3.5 4.5q6 0 10 -4.5t5 -5.5l1 -10l5 5q0 -1 0.5 -1h0.5l2 -8
l-4 -75q-2 -30 -7.5 -131.5t-3.5 -106.5q29 74 55 175q19 69 35 108t55 88q15 16 43 16q9 0 13 -1q30 -6 49 -29q12 -17 16 -38q3 -15 3 -29q0 -12 -4 -36l-3 -21q-2 -14 -4 -21q-10 -51 -21 -95q-9 -38 -18 -98q-2 -13 -2.5 -22.5t-0.5 -15.5v-11q0 -19 1 -28l4 -17l2 -1
q33 15 59 58.5t67 135.5l44 95q10 -7 15.5 -6.5t6.5 -0.5l-36 -80q-46 -102 -68.5 -146.5t-43.5 -67t-46 -22.5q-17 1 -33 14zM198 454q-21 -22 -42 -70q-19 -42 -29 -76q35 93 71 146zM48 89.5q1 1.5 2 4.5q12 26 22 62l26 90q9 33 33 97q20 53 51 103l2 4q-3 -2 -5 -5
q-17 -25 -30 -54q-35 -76 -55 -147q-4 -16 -14 -48q-5 -22 -7 -26q-9 -33 -26 -74q-2 -4 -2 -8h0.5t0.5 -1q1 1 2 2.5zM199 431q-1 0 -1 1q-19 -29 -28 -54zM339 92.5q1 1.5 2 4.5q22 37 45 95q4 13 16 39l32 64l3 6q-2 -1 -4 -5q-12 -20 -17 -31q-4 -8 -12.5 -26t-14.5 -32
q-22 -59 -44 -98l-9 -18q0 -1 0.5 -1h0.5q1 1 2 2.5zM220.5 189.5q0.5 2.5 0.5 3.5q9 44 16 74l3 16q-1 -1 -3 -4l-7 -29q-8 -42 -13 -64q3 1 3.5 3.5zM105 233q-8 -13 -8 -24zM57 80q2 6 5.5 14t6.5 18l9 26q3 13 7 23h-2l-6 -18q-5 -15 -7 -19l-6 -19q-6 -12 -8 -18
q-1 -2 -4 -7.5t-4 -11.5q6 4 9 12zM74 70q5 14 6 25q-3 -9 -7.5 -19.5t-8.5 -22.5q5 3 10 17z" />
    <glyph glyph-name="ograve" unicode="&#xf2;" horiz-adv-x="469" 
d="M185 596q-24 46 -41 74q8 12 10.5 15.5t5 2.5t5.5 0l70 -127l-20 -16q-8 9 -30 51zM181 631q18 -29 29 -42q-13 22 -29 42zM-13 34.5q-41 47.5 -37 134.5q7 66 23.5 121t46.5 109q16 28 40 38q12 6 25 6q8 0 17 -3q2 -1 8 -2t10 -7l-1 -6q6 2 7 2q4 -3 2 -10
q-1 -4 -3.5 -13.5t-6.5 -16.5q-12 -26 -19 -39l-12 -25q-18 -38 -30 -90t-12 -97q0 -53 19 -84q14 -21 34 -21q13 0 23 5q36 14 70 54.5t51 90.5q-60 16 -89 68t-29 119q2 49 29 85q13 17 30.5 26t37.5 9q30 0 56.5 -19t38.5 -52q11 -32 11 -70q0 -29 -5 -55t-13 -59l-5 -20
q42 0 86.5 22.5t79.5 87.5l12 2q6 0 10 -9q-64 -126 -196 -130q-31 -93 -77 -144.5t-114 -51.5q-77 -3 -118 44.5zM268 260q13 54 13 90q0 43 -14 76.5t-36 33.5q-17 0 -34 -21q-31 -35 -31 -87q0 -49 17.5 -91t68.5 -52zM159 425q-11 -15 -13 -41zM146 421q-13 -22 -12 -49
zM46.5 257.5l0.5 0.5l2 5q18 54 52 116l12 25q1 1 2 4t1 4q-1 1 -3 1l-13 -25q-22 -41 -35 -70.5t-20 -61.5zM45 403q-27 -35 -45 -83q-31 -88 -31 -166q0 -23 1 -34q3 149 75 283zM6 235q12 50 23 75l43 93q-16 -14 -32.5 -50t-27.5 -76t-11 -63zM263 208q10 30 19 71t9 67
l-3 -22q-1 -10 -5 -32q-1 -3 -13 -50l-9 -34h2zM275 207q6 14 13 42.5t8 41.5l-11 -42q-9 -30 -12 -42h2zM261.5 167.5q5.5 13.5 4.5 19.5l-15 -40q5 7 10.5 20.5z" />
    <glyph glyph-name="oacute" unicode="&#xf3;" horiz-adv-x="469" 
d="M173 613q-34 -39 -58 -62q5 -14 7 -18t4.5 -3.5t4.5 -1.5l99 106l-15 21q-10 -7 -42 -42zM161 580q24 24 38 34q-18 -19 -38 -34zM-13 34.5q-41 47.5 -37 134.5q7 66 23.5 121t46.5 109q16 28 40 38q12 6 25 6q8 0 17 -3q2 -1 8 -2t10 -7l-1 -6q6 2 7 2q4 -3 2 -10
q-1 -4 -3.5 -13.5t-6.5 -16.5q-12 -26 -19 -39l-12 -25q-18 -38 -30 -90t-12 -97q0 -53 19 -84q14 -21 34 -21q13 0 23 5q36 14 70 54.5t51 90.5q-60 16 -89 68t-29 119q2 49 29 85q13 17 30.5 26t37.5 9q30 0 56.5 -19t38.5 -52q11 -32 11 -70q0 -29 -5 -55t-13 -59l-5 -20
q42 0 86.5 22.5t79.5 87.5l12 2q6 0 10 -9q-64 -126 -196 -130q-31 -93 -77 -144.5t-114 -51.5q-77 -3 -118 44.5zM268 260q13 54 13 90q0 43 -14 76.5t-36 33.5q-17 0 -34 -21q-31 -35 -31 -87q0 -49 17.5 -91t68.5 -52zM159 425q-11 -15 -13 -41zM146 421q-13 -22 -12 -49
zM46.5 257.5l0.5 0.5l2 5q18 54 52 116l12 25q1 1 2 4t1 4q-1 1 -3 1l-13 -25q-22 -41 -35 -70.5t-20 -61.5zM45 403q-27 -35 -45 -83q-31 -88 -31 -166q0 -23 1 -34q3 149 75 283zM6 235q12 50 23 75l43 93q-16 -14 -32.5 -50t-27.5 -76t-11 -63zM263 208q10 30 19 71t9 67
l-3 -22q-1 -10 -5 -32q-1 -3 -13 -50l-9 -34h2zM275 207q6 14 13 42.5t8 41.5l-11 -42q-9 -30 -12 -42h2zM261.5 167.5q5.5 13.5 4.5 19.5l-15 -40q5 7 10.5 20.5z" />
    <glyph glyph-name="ocircumflex" unicode="&#xf4;" horiz-adv-x="469" 
d="M112 563q-4 3 -2 8q1 4 6 11q5 8 14 15l17 15l16 11l19 12l16 11l4 2q1 1 4 -2l5 -3l2 -2q2 0 2 -1l16 -8l3 -6q6 -16 9 -30q2 -10 6 -18l10 -21q0 -1 1 -3q1 -3 -1 -5l-9 -3q-3 -4 -4 -4l-3 1q6 3 6 2q-22 13 -22 14q-5 11 -7 17q-2 3 -6 12q-5 16 -9 31v3l-20 -15
l-30 -22l-14 -11q-8 -5 -9 -6q-8 -5 -17 -7l-2 1zM113 570q10 14 27 28q7 6 33 24l26 18q1 0 1 2l-1 -1q-1 0 -24 -15q-6 -5 -20 -14q-4 -4 -10 -8.5t-13 -10.5q-10 -8 -15 -16q-3 -3 -5 -7h1zM-13 34.5q-41 47.5 -37 134.5q7 66 23.5 121t46.5 109q16 28 40 38q12 6 25 6
q8 0 17 -3q2 -1 8 -2t10 -7l-1 -6q6 2 7 2q4 -3 2 -10q-1 -4 -3.5 -13.5t-6.5 -16.5q-12 -26 -19 -39l-12 -25q-18 -38 -30 -90t-12 -97q0 -53 19 -84q14 -21 34 -21q13 0 23 5q36 14 70 54.5t51 90.5q-60 16 -89 68t-29 119q2 49 29 85q13 17 30.5 26t37.5 9q30 0 56.5 -19
t38.5 -52q11 -32 11 -70q0 -29 -5 -55t-13 -59l-5 -20q42 0 86.5 22.5t79.5 87.5l12 2q6 0 10 -9q-64 -126 -196 -130q-31 -93 -77 -144.5t-114 -51.5q-77 -3 -118 44.5zM268 260q13 54 13 90q0 43 -14 76.5t-36 33.5q-17 0 -34 -21q-31 -35 -31 -87q0 -49 17.5 -91
t68.5 -52zM159 425q-11 -15 -13 -41zM146 421q-13 -22 -12 -49zM46.5 257.5l0.5 0.5l2 5q18 54 52 116l12 25q1 1 2 4t1 4q-1 1 -3 1l-13 -25q-22 -41 -35 -70.5t-20 -61.5zM45 403q-27 -35 -45 -83q-31 -88 -31 -166q0 -23 1 -34q3 149 75 283zM6 235q12 50 23 75l43 93
q-16 -14 -32.5 -50t-27.5 -76t-11 -63zM263 208q10 30 19 71t9 67l-3 -22q-1 -10 -5 -32q-1 -3 -13 -50l-9 -34h2zM275 207q6 14 13 42.5t8 41.5l-11 -42q-9 -30 -12 -42h2zM261.5 167.5q5.5 13.5 4.5 19.5l-15 -40q5 7 10.5 20.5z" />
    <glyph glyph-name="otilde" unicode="&#xf5;" horiz-adv-x="469" 
d="M338 626q-3 2 -7 0h-2l-3 3l-3 -4q-2 -1 -4 -3t-3 -2q-4 -3 -19 -9q-7 -3 -11 -4q-17 -3 -38 2l-36 9q-32 8 -38 8q-12 3 -28 0q-18 -4 -31 -19q-4 -5 -11 -13t-11 -15q-6 -7 -8 -18q-1 -5 1.5 -9t5.5 -5l2 -1v0q1 0 1 1l-2 4l4 -2l3 5q-1 1 -1 5l3 -1v6q0 4 8 5
q4 1 17 6q12 5 24 5q9 0 31 -5l33 -8q6 -2 18 -5q8 -2 25 -3q24 -1 33 6q26 18 28 23zM336 615zM-13 34.5q-41 47.5 -37 134.5q7 66 23.5 121t46.5 109q16 28 40 38q12 6 25 6q8 0 17 -3q2 -1 8 -2t10 -7l-1 -6q6 2 7 2q4 -3 2 -10q-1 -4 -3.5 -13.5t-6.5 -16.5
q-12 -26 -19 -39l-12 -25q-18 -38 -30 -90t-12 -97q0 -53 19 -84q14 -21 34 -21q13 0 23 5q36 14 70 54.5t51 90.5q-60 16 -89 68t-29 119q2 49 29 85q13 17 30.5 26t37.5 9q30 0 56.5 -19t38.5 -52q11 -32 11 -70q0 -29 -5 -55t-13 -59l-5 -20q42 0 86.5 22.5t79.5 87.5
l12 2q6 0 10 -9q-64 -126 -196 -130q-31 -93 -77 -144.5t-114 -51.5q-77 -3 -118 44.5zM268 260q13 54 13 90q0 43 -14 76.5t-36 33.5q-17 0 -34 -21q-31 -35 -31 -87q0 -49 17.5 -91t68.5 -52zM159 425q-11 -15 -13 -41zM146 421q-13 -22 -12 -49zM46.5 257.5l0.5 0.5l2 5
q18 54 52 116l12 25q1 1 2 4t1 4q-1 1 -3 1l-13 -25q-22 -41 -35 -70.5t-20 -61.5zM45 403q-27 -35 -45 -83q-31 -88 -31 -166q0 -23 1 -34q3 149 75 283zM6 235q12 50 23 75l43 93q-16 -14 -32.5 -50t-27.5 -76t-11 -63zM263 208q10 30 19 71t9 67l-3 -22q-1 -10 -5 -32
q-1 -3 -13 -50l-9 -34h2zM275 207q6 14 13 42.5t8 41.5l-11 -42q-9 -30 -12 -42h2zM261.5 167.5q5.5 13.5 4.5 19.5l-15 -40q5 7 10.5 20.5z" />
    <glyph glyph-name="odieresis" unicode="&#xf6;" horiz-adv-x="469" 
d="M204.5 561.5q-16.5 11.5 -16.5 22.5q0 5 1 8l2.5 2.5t2.5 4.5q14 18 33 18q11 0 20.5 -6t16.5 -16q2 -2 2 -4t1 -3q-1 -15 -9 -26.5t-24 -11.5q-13 0 -29.5 11.5zM50.5 541.5q-16.5 11.5 -16.5 22.5q0 7 1 8l2.5 2.5t2.5 4.5q14 18 33 18q11 0 21 -6q12 -8 16 -16l2 -4
t1 -3q-1 -15 -9 -26.5t-24 -11.5q-13 0 -29.5 11.5zM-13 34.5q-41 47.5 -37 134.5q7 66 23.5 121t46.5 109q16 28 40 38q12 6 25 6q8 0 17 -3q2 -1 8 -2t10 -7l-1 -6q6 2 7 2q4 -3 2 -10q-1 -4 -3.5 -13.5t-6.5 -16.5q-12 -26 -19 -39l-12 -25q-18 -38 -30 -90t-12 -97
q0 -53 19 -84q14 -21 34 -21q13 0 23 5q36 14 70 54.5t51 90.5q-60 16 -89 68t-29 119q2 49 29 85q13 17 30.5 26t37.5 9q30 0 56.5 -19t38.5 -52q11 -32 11 -70q0 -29 -5 -55t-13 -59l-5 -20q42 0 86.5 22.5t79.5 87.5l12 2q6 0 10 -9q-64 -126 -196 -130
q-31 -93 -77 -144.5t-114 -51.5q-77 -3 -118 44.5zM268 260q13 54 13 90q0 43 -14 76.5t-36 33.5q-17 0 -34 -21q-31 -35 -31 -87q0 -49 17.5 -91t68.5 -52zM159 425q-11 -15 -13 -41zM146 421q-13 -22 -12 -49zM46.5 257.5l0.5 0.5l2 5q18 54 52 116l12 25q1 1 2 4t1 4
q-1 1 -3 1l-13 -25q-22 -41 -35 -70.5t-20 -61.5zM45 403q-27 -35 -45 -83q-31 -88 -31 -166q0 -23 1 -34q3 149 75 283zM6 235q12 50 23 75l43 93q-16 -14 -32.5 -50t-27.5 -76t-11 -63zM263 208q10 30 19 71t9 67l-3 -22q-1 -10 -5 -32q-1 -3 -13 -50l-9 -34h2zM275 207
q6 14 13 42.5t8 41.5l-11 -42q-9 -30 -12 -42h2zM261.5 167.5q5.5 13.5 4.5 19.5l-15 -40q5 7 10.5 20.5z" />
    <glyph glyph-name="divide" unicode="&#xf7;" horiz-adv-x="550" 
d="M50 286v73h451v-73h-451zM219 156q0 17 4.5 28.5t12 19t17.5 10.5t22 3q11 0 21.5 -3t18 -10.5t12 -19t4.5 -28.5q0 -16 -4.5 -27.5t-12 -19t-18 -11t-21.5 -3.5q-12 0 -22 3.5t-17.5 11t-12 19t-4.5 27.5zM219 497q0 17 4.5 28.5t12 19t17.5 10.5t22 3q11 0 21.5 -3
t18 -10.5t12 -19t4.5 -28.5q0 -16 -4.5 -27.5t-12 -19t-18 -11t-21.5 -3.5q-12 0 -22 3.5t-17.5 11t-12 19t-4.5 27.5zM221 622z" />
    <glyph glyph-name="oslash" unicode="&#xf8;" horiz-adv-x="604" 
d="M551 269q0 -131 -66.5 -205t-183.5 -74q-74 0 -129 33l-40 -56l-58 39l45 62q-64 76 -64 201q0 131 65.5 204t183.5 73q74 0 131 -36l39 56l59 -38l-45 -63q63 -76 63 -196zM146 269q0 -81 24 -128l220 306q-36 25 -88 25q-156 0 -156 -203zM460 269q0 74 -23 123
l-220 -306q34 -23 86 -23q77 0 117 52.5t40 153.5z" />
    <glyph glyph-name="ugrave" unicode="&#xf9;" horiz-adv-x="487" 
d="M276 -6q-21 11 -32 36q-11 23 -11 72q0 54 11 114q0 2 -2 4l-13 -23q-26 -47 -61.5 -90t-65.5 -57q-18 -9 -36 -9q-27 0 -51.5 17t-39.5 46t-15 62q0 62 25.5 151t58.5 129q16 19 35 24l20 -6l9 -12q0 -4 0.5 -10.5t-0.5 -11.5l-15 -77l-24 -102q-13 -51 -19 -80t-6 -52
q0 -22 8 -43l3 -3q25 -4 72.5 44t75.5 98q23 40 67 122l7 10l26 -10q10 -8 11 -15q9 -28 12.5 -54.5t3.5 -58.5t-1 -51l-1 -78q0 -41 5 -61q1 -1 1 -3t2 -4q31 15 55 41t47 63.5t66 115.5l51 91q6 0 9 0.5t4 0.5q2 0 4 -2.5t5 -5.5q-46 -83 -64 -117q-45 -83 -71.5 -126
t-54 -70.5t-56.5 -27.5q-16 0 -34 9q-7 4 -21 10zM81 446q1 2 4 5.5t3 7.5q-8 -6 -10.5 -14t-3.5 -10q3 3 7 11zM-18 202l23 102q11 49 45 118q3 6 9 15.5t10 16.5q-13 -8 -22 -26q-28 -52 -44 -117l-19 -82q-2 -11 -4 -35zM230 511q-24 46 -41 74q8 12 11 16q2 3 5 2
q2 -1 5 0l70 -127l-20 -16q-8 9 -30 51zM226 546q18 -29 29 -42q-13 22 -29 42z" />
    <glyph glyph-name="uacute" unicode="&#xfa;" horiz-adv-x="249" 
d="M240 525q-24 -46 -41 -74q8 -12 11 -16q2 -3 5 -2q2 1 5 0l70 127l-20 16q-8 -9 -30 -51zM236 490q18 29 29 42q-13 -22 -29 -42zM276 -6q-21 11 -32 36q-11 23 -11 72q0 54 11 114q0 2 -2 4l-13 -23q-26 -47 -61.5 -90t-65.5 -57q-18 -9 -36 -9q-27 0 -51.5 17t-39.5 46
t-15 62q0 62 25.5 151t58.5 129q16 19 35 24l20 -6l9 -12q0 -4 0.5 -10.5t-0.5 -11.5l-15 -77l-24 -102q-13 -51 -19 -80t-6 -52q0 -22 8 -43l3 -3q25 -4 72.5 44t75.5 98q23 40 67 122l7 10l26 -10q10 -8 11 -15q9 -28 12.5 -54.5t3.5 -58.5t-1 -51l-1 -78q0 -41 5 -61
q1 -1 1 -3t2 -4q31 15 55 41t47 63.5t66 115.5l51 91q6 0 9 0.5t4 0.5q2 0 4 -2.5t5 -5.5q-46 -83 -64 -117q-45 -83 -71.5 -126t-54 -70.5t-56.5 -27.5q-16 0 -34 9q-7 4 -21 10zM81 446q1 2 4 5.5t3 7.5q-8 -6 -10.5 -14t-3.5 -10q3 3 7 11zM-18 202l23 102q11 49 45 118
q3 6 9 15.5t10 16.5q-13 -8 -22 -26q-28 -52 -44 -117l-19 -82q-2 -11 -4 -35z" />
    <glyph glyph-name="ucircumflex" unicode="&#xfb;" horiz-adv-x="487" 
d="M276 -6q-21 11 -32 36q-11 23 -11 72q0 54 11 114q0 2 -2 4l-13 -23q-26 -47 -61.5 -90t-65.5 -57q-18 -9 -36 -9q-27 0 -51.5 17t-39.5 46t-15 62q0 62 25.5 151t58.5 129q16 19 35 24l20 -6l9 -12q0 -4 0.5 -10.5t-0.5 -11.5l-15 -77l-24 -102q-13 -51 -19 -80t-6 -52
q0 -22 8 -43l3 -3q25 -4 72.5 44t75.5 98q23 40 67 122l7 10l26 -10q10 -8 11 -15q9 -28 12.5 -54.5t3.5 -58.5t-1 -51l-1 -78q0 -41 5 -61q1 -1 1 -3t2 -4q31 15 55 41t47 63.5t66 115.5l51 91q6 0 9 0.5t4 0.5q2 0 4 -2.5t5 -5.5q-46 -83 -64 -117q-45 -83 -71.5 -126
t-54 -70.5t-56.5 -27.5q-16 0 -34 9q-7 4 -21 10zM81 446q1 2 4 5.5t3 7.5q-8 -6 -10.5 -14t-3.5 -10q3 3 7 11zM-18 202l23 102q11 49 45 118q3 6 9 15.5t10 16.5q-13 -8 -22 -26q-28 -52 -44 -117l-19 -82q-2 -11 -4 -35zM149 514q-4 3 -3 8t8 13q9 11 17 17l22 17l20 12
l24 14l20 11l5 2q1 1 6 -2l5 -3l3 -2q2 0 3 -1q4 -4 6 -10l3 -6q6 -13 12 -34q2 -9 7 -19l13 -24l1 -3q2 -3 -1 -6l2 -2q5 -7 -4 -5l-4 1q-5 1 -6 3q-11 7 -14 15q-6 12 -10 19q-2 3 -6 13q-5 10 -11 35l-1 3l-25 -17l-38 -25l-18 -11q-9 -6 -11 -7q-10 -6 -21 -8l-2 1z
M151 522q15 19 33 31q16 11 42 27l33 20q1 1 1 2l-2 -1q-5 -3 -29 -17q-21 -12 -26 -16t-12.5 -9t-16.5 -12q-12 -8 -19 -17q-4 -4 -5 -8h1z" />
    <glyph glyph-name="udieresis" unicode="&#xfc;" horiz-adv-x="554" 
d="M250.5 434q-16.5 12 -16.5 22q0 6 1 8t2.5 3t2.5 5q14 18 33 18q11 0 20.5 -6t16.5 -16q2 -2 2 -4t1 -4q-1 -14 -9 -26t-24 -12q-13 0 -29.5 12zM144.5 493.5q-16.5 11.5 -16.5 22.5q0 7 1 8l2.5 2.5t2.5 4.5q14 18 33 18q11 0 21 -6q12 -8 16 -16l2 -4t1 -3
q-1 -15 -9 -26.5t-24 -11.5q-13 0 -29.5 11.5zM276 -6q-21 11 -32 36q-11 23 -11 72q0 54 11 114q0 2 -2 4l-13 -23q-26 -47 -61.5 -90t-65.5 -57q-18 -9 -36 -9q-27 0 -51.5 17t-39.5 46t-15 62q0 62 25.5 151t58.5 129q16 19 35 24l20 -6l9 -12q0 -4 0.5 -10.5t-0.5 -11.5
l-15 -77l-24 -102q-13 -51 -19 -80t-6 -52q0 -22 8 -43l3 -3q25 -4 72.5 44t75.5 98q23 40 67 122l7 10l26 -10q10 -8 11 -15q9 -28 12.5 -54.5t3.5 -58.5t-1 -51l-1 -78q0 -41 5 -61q1 -1 1 -3t2 -4q31 15 55 41t47 63.5t66 115.5l51 91q6 0 9 0.5t4 0.5q2 0 4 -2.5t5 -5.5
q-46 -83 -64 -117q-45 -83 -71.5 -126t-54 -70.5t-56.5 -27.5q-16 0 -34 9q-7 4 -21 10zM81 446q1 2 4 5.5t3 7.5q-8 -6 -10.5 -14t-3.5 -10q3 3 7 11zM-18 202l23 102q11 49 45 118q3 6 9 15.5t10 16.5q-13 -8 -22 -26q-28 -52 -44 -117l-19 -82q-2 -11 -4 -35z" />
    </font>
</defs>
</svg>
