<?xml version="1.0" standalone="no"?>
<!DOCTYPE svg PUBLIC "-//W3C//DTD SVG 1.1//EN" "http://www.w3.org/Graphics/SVG/1.1/DTD/svg11.dtd" >
<svg xmlns="http://www.w3.org/2000/svg" xmlns:xlink="http://www.w3.org/1999/xlink" version="1.1">
<metadata>
Created by FontForge 20190801 at Mon Feb  8 12:16:42 2021
 By root
Roman Jokiranta
</metadata>
<defs>
<font id="Merina-Regular" horiz-adv-x="300" >
  <font-face 
    font-family="Merina"
    font-weight="400"
    font-stretch="normal"
    units-per-em="1000"
    panose-1="0 0 5 0 0 0 0 0 0 0"
    ascent="800"
    descent="-200"
    x-height="328"
    cap-height="790"
    bbox="-213 -735 1516 1046"
    underline-thickness="50"
    underline-position="-100"
    unicode-range="U+0001-206F"
  />
<missing-glyph horiz-adv-x="364" 
d="M33 0v666h265v-666h-265zM66 33h199v600h-199v-600z" />
    <glyph glyph-name=".notdef" horiz-adv-x="364" 
d="M33 0v666h265v-666h-265zM66 33h199v600h-199v-600z" />
    <glyph glyph-name="uni0000" 
 />
    <glyph glyph-name="uni0000" 
 />
    <glyph glyph-name="uni000D" unicode="&#xd;" 
 />
    <glyph glyph-name="uni0001" 
 />
    <glyph glyph-name="uni0002" 
 />
    <glyph glyph-name="uni0003" 
 />
    <glyph glyph-name="uni0004" 
 />
    <glyph glyph-name="uni0005" 
 />
    <glyph glyph-name="uni0006" 
 />
    <glyph glyph-name="uni0007" 
 />
    <glyph glyph-name="uni0008" 
 />
    <glyph glyph-name="uni0009" unicode="&#x9;" 
 />
    <glyph glyph-name="uni000A" unicode="&#xa;" 
 />
    <glyph glyph-name="uni000B" 
 />
    <glyph glyph-name="uni000C" 
 />
    <glyph glyph-name="uni000E" 
 />
    <glyph glyph-name="uni000F" 
 />
    <glyph glyph-name="uni0010" 
 />
    <glyph glyph-name="uni0011" 
 />
    <glyph glyph-name="uni0012" 
 />
    <glyph glyph-name="uni0013" 
 />
    <glyph glyph-name="uni0014" 
 />
    <glyph glyph-name="uni0015" 
 />
    <glyph glyph-name="uni0016" 
 />
    <glyph glyph-name="uni0017" 
 />
    <glyph glyph-name="uni0018" 
 />
    <glyph glyph-name="uni0019" 
 />
    <glyph glyph-name="uni001A" 
 />
    <glyph glyph-name="uni001B" 
 />
    <glyph glyph-name="uni001C" 
 />
    <glyph glyph-name="uni001D" 
 />
    <glyph glyph-name="uni001E" 
 />
    <glyph glyph-name="uni001F" 
 />
    <glyph glyph-name="space" unicode=" " 
 />
    <glyph glyph-name="exclam" unicode="!" horiz-adv-x="600" 
d="M393 766q0 -8 -2 -19t-3 -16l-19 -111q-5 -28 -14.5 -82.5t-15.5 -95.5q-6 -32 -12 -96l-4 -38l-9 -111q-8 -88 -11 -132q-1 -2 -1 -8q-2 -12 -10.5 -20t-20.5 -8q-21 0 -30 20q-2 6 -4 14.5t-4 14.5q-7 38 -9 115v23q-1 14 -0.5 24.5t0.5 17.5v21q3 104 9.5 181.5
t24.5 151.5q21 88 57 141q6 10 31 35q10 8 20 8q7 0 14 -4q13 -6 13 -26zM281.5 -158.5q5.5 -6.5 5.5 -17.5t-5.5 -17.5t-15.5 -6.5q-10 -1 -17 5.5t-7 16.5q-1 10 7 18t18 8q9 0 14.5 -6.5z" />
    <glyph glyph-name="quotedbl" unicode="&#x22;" horiz-adv-x="378" 
d="M119 699q8 0 14 -7q14 -14 14 -34q0 -19 -12 -34q-7 -10 -15 -17q-3 -4 -7 -5t-7 1q-9 5 -6 15q3 11 7 20t4 21q0 9 -3 18q-1 3 -1 7q0 9 7 14q2 1 5 1zM250 699q8 0 14 -7q14 -14 14 -34q0 -19 -12 -34q-7 -10 -15 -17q-3 -4 -7 -5t-7 1q-9 5 -6 15q3 11 7 20t4 21
q0 9 -3 18q-1 3 -1 7q0 9 7 14q2 1 5 1z" />
    <glyph glyph-name="numbersign" unicode="#" horiz-adv-x="553" 
d="M322 553q0 -8 -6 -19l-24 -42q-2 -2 -7 -15q41 8 53 12q3 1 6 5.5t4 5.5q4 6 12.5 19t16.5 22q7 9 22 17q6 2 9 2q8 0 14 -7q4 -4 4 -10q0 -5 -3 -11l-15 -29q14 -2 16 -3q14 -5 18 -8q9 -7 5 -19q-4 -10 -17 -10q-20 0 -31 -1q-10 0 -14 -10q-17 -42 -23 -54l15 2
q13 3 39 11q2 1 5 1q10 0 11 -7q1 -2 1 -8q0 -8 -2 -10q-13 -11 -24 -15q-16 -6 -48 -14q-15 -3 -18 -18q-7 -29 -23 -87q-5 -21 -14 -50q0 -3 -3 -9q-5 -10 -13.5 -14t-18.5 -2q-9 2 -15 9t-6 17q2 29 7 52q4 20 14 60l3 16q-23 -8 -63 -24q-6 -1 -8 -11l-8 -22l-21 -60
q-8 -23 -28 -18q-8 2 -13.5 8.5t-5.5 16.5q0 1 3 19q0 7 2 33l-16 -6q-3 -1 -7 -1q-6 0 -10 5q-3 5 -3 8q0 6 7 11l27 18q14 7 18 21l25 65q-11 -2 -13 -3q-9 -3 -15.5 -6.5t-11.5 -5.5q-6 -2 -9 -2q-7 0 -11 6q-2 3 -2 7q0 8 7 13q7 7 19 14q32 18 48 25q14 6 25 22
q18 30 51 78q9 12 23 23q8 7 19 7q9 0 15 -6t6 -14zM298 442q-14 -2 -32 -8q-7 -3 -10 -10q-12 -23 -34 -69l3 -4q3 1 11.5 4t15.5 4q38 6 47 43q3 9 9 22.5l10 22.5z" />
    <glyph glyph-name="dollar" unicode="$" horiz-adv-x="480" 
d="M342 682q-15 -54 -19 -68q35 -20 50 -62q5 -20 7 -46v-3q0 -8 -3 -14q-4 -9 -10.5 -14t-13.5 -5q-20 0 -21 24q-3 27 -23 47q-7 7 -14 7t-14 -11q-11 -19 -11 -38q0 -9 3 -20q2 -7 10.5 -31.5t18.5 -44.5q27 -57 27 -119q0 -64 -27 -127q-21 -47 -70 -67q-18 -7 -21 -26
q-4 -22 -11 -45q-3 -12 -15 -12q-16 0 -18 16v12l4 20q1 3 1 7t2 11l-22 3q-52 8 -52 59q0 18 5 40q4 21 23 35q10 7 17 7t11 -4q5 -5 5 -12t-4 -14q-4 -6 -5 -9q-6 -16 -7 -25q-1 -24 17 -24q8 0 13 2q36 12 46 50q11 36 11 79q0 48 -13 93l-24 81q-7 28 -7 49q0 17 5 40
q8 39 31 63.5t62 37.5q12 42 13 45q6 14 16 28q5 6 12 6l8 -2q11 -5 7 -19z" />
    <glyph glyph-name="percent" unicode="%" horiz-adv-x="617" 
d="M249 576q29 -25 29 -64q0 -100 -74 -151q-19 -13 -40 -13q-24 0 -50 16q-60 38 -64 90q-1 6 -1 17q0 76 58 110q14 9 36.5 13.5t30.5 6.5q46 0 75 -25zM465 598q8 0 19 -8q14 -12 11 -27q-3 -8 -9 -16q-8 -12 -21 -25q-166 -179 -263 -460q-7 -23 -20 -48q-4 -10 -17 -10
q-7 0 -11 2q-15 6 -26 27q0 7 0.5 20t2.5 21q3 8 10 34q21 70 38 109q66 155 167 264q29 31 58 64l29 32q5 7 23 19q6 2 9 2zM161.5 481q-9.5 -28 -8.5 -63h6q17 0 26 12q5 7 18.5 23.5t21.5 30.5q6 12 6 43q0 11 -5 16t-18 9q-6 2 -17 2q-20 -45 -29.5 -73zM519 293
q20 -14 33 -40l9 -21q6 -21 6 -39q0 -17 -7 -40q-20 -59 -69 -105q-11 -11 -36 -20q-12 -4 -27 -4q-40 0 -77 29.5t-47 73.5q-4 16 -4 35q0 65 38 108q24 27 54 27q9 0 14 -1q4 0 12 2q9 2 25.5 5.5t30.5 3.5q25 0 45 -14zM432 223l-8 -22q-6 -15 -13 -37q-6 -24 -6 -40
q0 -5 3.5 -12t7.5 -11q4 -3 11 -4t11 1q36 14 56 41.5t20 68.5q0 29 -17.5 44t-49.5 14z" />
    <glyph glyph-name="ampersand" unicode="&#x26;" horiz-adv-x="689" 
d="M388 654q-19 0 -31.5 -27t-12.5 -69q0 -66 32 -129q6 -12 6 -35q1 -15 -6 -22.5t-20 -5.5q-14 2 -18 2q-31 0 -47.5 -18.5t-26.5 -39.5t-13 -27q-20 -38 -20 -85q0 -28 9 -54t25 -55q22 -37 59 -37q18 0 40 11q80 42 93 148q1 5 1 13q0 20 -17 20q-9 0 -21 -3
q-2 -1 -10 -4q-18 -5 -28 -14t-20 -24q-9 -13 -16.5 -19t-20.5 -6q-25 0 -25 29q0 24 16.5 51.5t38.5 36.5q40 16 77 26q34 10 53.5 19t30.5 29q10 18 23.5 28t26.5 10q10 0 16.5 -8t6.5 -22q0 -32 -20.5 -58t-53.5 -43q-15 -8 -21 -19.5t-6 -29.5q1 -122 -107 -191
q-46 -27 -94 -27q-58 0 -107 33.5t-67 84.5q-13 36 -13 76q0 68 37 122.5t101 71.5q3 1 11 2t13 9q-20 56 -20 111q0 57 20.5 103t53 71.5t66.5 25.5t61 -28t38 -85q2 -9 2 -26q0 -25 -8.5 -41t-17.5 -16q-6 0 -10 9.5t-3 26.5q1 19 -4.5 35t-17.5 39q-18 25 -34 25z" />
    <glyph glyph-name="quotesingle" unicode="'" horiz-adv-x="247" 
d="M119 699q8 0 14 -7q14 -14 14 -34q0 -19 -12 -34q-7 -10 -15 -17q-3 -4 -7 -5t-7 1q-9 5 -6 15q3 11 7 20t4 21q0 9 -3 18q-1 3 -1 7q0 9 7 14q2 1 5 1z" />
    <glyph glyph-name="parenleft" unicode="(" horiz-adv-x="459" 
d="M329 616q0 -13 -8 -24q-6 -9 -23 -22q-125 -96 -144 -255q-5 -40 -5 -73q0 -28 5 -63q14 -85 89 -161q6 -6 15.5 -15t15.5 -16q18 -23 18 -43q0 -17 -12 -27t-33 -10q-45 0 -86 38q-66 61 -97 148.5t-31 188.5q0 102 29 197t76.5 154t98.5 59q31 0 58 -21q34 -25 34 -55z
" />
    <glyph glyph-name="parenright" unicode=")" horiz-adv-x="417" 
d="M93.5 695.5q18.5 -9.5 30.5 -21.5q97 -93 145 -215.5t48 -242.5q0 -91 -27 -162t-73 -102q-25 -16 -57 -29q-7 -3 -16 -3q-24 0 -44 20q-15 16 -15 36q0 10 4 18q2 6 4 8l22 32q28 45 50 72q56 75 53 199q0 11 -3.5 27.5t-5.5 25.5q-30 78 -77 146q-16 24 -50 72
q-14 18 -40 56q-3 4 -8 10t-8 12q-7 14 -7 26q0 13 7 20q9 11 24 11q12 0 22 -5q3 -1 21.5 -10.5z" />
    <glyph glyph-name="asterisk" unicode="*" horiz-adv-x="316" 
d="M209.5 614q6.5 -2 6.5 -4q0 -4 -8 -5l-35 -8q6 -13 9 -30v-3q0 -5 -3 -8.5t-7 -3.5q-7 0 -13 12l-7 14q-12 -18 -15 -25q-4 -7 -12 -7q-7 0 -12 6t-3 15q1 4 14 23q-4 -1 -11 -1q-6 0 -10 4.5t-4 10.5q0 13 13 13h23q-6 10 -9 20q-1 3 -1 7q0 9 7 14q2 1 7 1q8 0 12 -7
l9 -21q13 16 16 23t11.5 11.5t16.5 4.5q6 0 8.5 -3t0.5 -7q-4 -8 -32 -44h12q10 0 16.5 -2z" />
    <glyph glyph-name="plus" unicode="+" horiz-adv-x="448" 
d="M269 398q0 -3 -2 -11l-18 -52l-10 -23l52 4q9 0 29 2q28 2 42 2q15 0 24.5 -7.5t11.5 -19.5q1 -12 -7.5 -21.5t-23.5 -11.5q-76 -12 -134 -16q-19 -2 -30.5 -10t-15.5 -25q-1 -7 -5 -15l-6 -12q-8 -16 -15 -21.5t-16 -2.5q-14 5 -14 22q0 3 2 15q2 10 9 35l-39 -5
q-12 -2 -18 -2q-5 0 -11 2q-7 3 -14 8.5t-9 11.5l-1 5q0 12 9 23q9 10 28 16q38 10 57 12q16 2 25.5 9t14.5 22q7 22 20 44l10 20q3 6 13 16q9 9 18 9q6 0 14 -5q10 -7 10 -18z" />
    <glyph glyph-name="comma" unicode="," horiz-adv-x="248" 
d="M120 60q8 0 14 -7q14 -14 14 -34q0 -19 -12 -34q-7 -10 -15 -17q-3 -4 -7 -5t-7 1q-9 4 -6 15t7 20t4 21q0 9 -3 18q-1 3 -1 7q0 9 7 14q2 1 5 1z" />
    <glyph glyph-name="hyphen" unicode="-" horiz-adv-x="382" 
d="M246 302l32 1q11 0 16 -1q14 -2 26 -10q12 -9 12 -22q0 -8 -5 -14.5t-14 -10.5q-10 -4 -33 -6l-172 -15q-20 0 -36 4q-10 2 -16.5 7.5t-5.5 14.5q0 7 4 14.5t10 10.5q20 14 41 15q26 4 59 6.5t47 3.5l35 3v-1z" />
    <glyph glyph-name="period" unicode="." horiz-adv-x="245" 
d="M139.5 44.5q5.5 -6.5 5.5 -17.5t-5.5 -17.5t-15.5 -6.5q-10 -1 -17 5.5t-7 16.5q-1 10 7 18t18 8q9 0 14.5 -6.5z" />
    <glyph glyph-name="slash" unicode="/" horiz-adv-x="568" 
d="M437 598q8 0 19 -8q14 -12 11 -27q-3 -8 -9 -16q-8 -12 -21 -25q-166 -179 -263 -460q-7 -23 -20 -48q-4 -10 -17 -10q-7 0 -11 2q-15 6 -26 27q0 7 0.5 20t2.5 21q3 8 10 34q21 70 38 109q66 155 167 264q29 31 58 64l29 32q6 7 23 19q6 2 9 2z" />
    <glyph glyph-name="zero" unicode="0" horiz-adv-x="600" 
d="M319 735q23 0 43 -17q15 -10 19 -11q29 -6 47.5 -25.5t34.5 -51.5q36 -71 55 -175q8 -44 8 -98q0 -107 -42 -214q-51 -128 -186 -183q-26 -11 -56 -11q-48 0 -90 33q-46 36 -69.5 86t-29.5 114q-1 5 -1 15l1 31q5 165 50 296q42 118 134 177q28 19 61 30q9 4 21 4z
M247 526q-62 -163 -59 -366q0 -39 29 -88q20 -32 49 -32q4 0 16 2q50 13 85.5 38.5t56.5 69.5q49 109 49 211q0 58 -14 108q-16 66 -42.5 111t-78.5 72q-62 -50 -91 -126z" />
    <glyph glyph-name="one" unicode="1" horiz-adv-x="600" 
d="M372 713q1 -4 1 -12q0 -11 -1 -17q-6 -58 -10 -87q-13 -95 -15 -159q-1 -22 -1 -66q0 -46 2 -138q2 -60 2 -91l-1 -104q0 -9 1 -15t2 -11q1 -4 1 -12q0 -29 -25 -42q-11 -7 -27 -7q-20 0 -33 13q-19 19 -22 39q-9 49 -13.5 81.5t-5.5 65.5q-1 26 -1 78q0 41 2 125l1 62
q0 94 26 193q-20 -17 -43 -34q-7 -6 -15 -6t-14 7q-5 5 -5 13q0 9 6 16q4 6 7 9q32 34 49 50l34 34l34 34q15 13 28 13q6 0 9 -1q24 -8 27 -31z" />
    <glyph glyph-name="two" unicode="2" horiz-adv-x="600" 
d="M375 745q32 0 55.5 -20t33.5 -57q10 -32 10 -79q0 -34 -5 -76q-9 -74 -32.5 -146.5t-62.5 -161.5q-3 -7 -6.5 -16t-8.5 -23l58 -1q14 0 40 2q13 1 39 16q12 6 18 6q8 0 15 -7q8 -7 8 -17q0 -7 -5 -17q-17 -32 -52 -37q-6 -1 -44.5 -7t-74.5 -6q-21 0 -35 -6.5t-25 -23.5
q-33 -55 -104 -85q-21 -8 -38 -8q-35 0 -58.5 24t-23.5 62t30 66q37 37 90 39q29 1 41.5 15t22.5 46q15 49 49 145q7 21 18 51.5t24 71.5q11 32 25 100l5 22q2 12 2 17q0 2 -3 29q-2 13 -6.5 18.5t-13.5 5.5q-6 0 -15 -3q-15 -4 -30 -14q-49 -28 -75 -78l-40 -77
q-9 -19 -22 -19q-6 0 -9 2q-13 5 -13 19q0 4 2 12q43 154 168 206q24 10 48 10zM167.5 86q-9.5 -7 -12.5 -26q31 6 48 35q-26 -2 -35.5 -9z" />
    <glyph glyph-name="three" unicode="3" horiz-adv-x="600" 
d="M294 730q37 0 61.5 -26t24.5 -67q0 -40 -20 -75q-16 -24 -25 -40l32 -23q67 -48 103.5 -120t36.5 -152q0 -56 -20 -114q-25 -75 -88 -112q-8 -5 -28 -16.5t-38 -19t-35 -11.5q-22 -4 -32 -4q-45 0 -95 30q-22 15 -35.5 40.5t-13.5 52.5q0 12 3 24q5 18 21 33q4 4 13 4
q8 0 12 -3q4 -2 7 -10.5t1 -12.5q-4 -11 -4 -22q0 -24 23 -41q24 -16 48 -16q16 0 29 6q87 40 96 117q5 38 5 69q0 18 -2 54q-3 61 -46 110q-30 32 -75 74q-29 26 -29 50q0 20 15 42q2 3 20 29l15 22q15 21 15 39q0 7 -1 11q-22 -3 -39 -13.5t-34 -28.5q-2 -2 -10 -15
q-13 -17 -27 -10q-7 4 -12.5 10.5t-6.5 11.5q-2 24 9 41q36 57 95 77q18 5 31 5z" />
    <glyph glyph-name="four" unicode="4" horiz-adv-x="600" 
d="M224 679l-10 -103l-3 -42q-6 -88 -8 -137v-40q0 -64 1 -97l2 -16l86 7q4 66 8 101q22 161 37 256q5 29 18 51q11 21 32 32q10 5 20 5q13 0 24.5 -8.5t15.5 -23.5q2 -7 3 -18t1 -15q3 -39 3 -79q0 -61 -8 -185q-2 -57 -4 -171q0 -69 -1 -103q0 -12 -2 -32l-3 -35
q0 -21 3 -41q2 -12 2 -17q0 -21 -17 -32q-11 -7 -25 -7q-17 0 -31 12q-12 10 -18 24q-46 103 -50 187l-3 27q-2 6 -6 13q-54 -15 -59 -17q-8 -3 -25 -8.5t-30 -9.5q-12 -2 -17 -2q-20 0 -34 11t-20 31q-7 21 -7 45q-1 50 -1 148q0 72 1 108q1 81 33 163q8 22 27 44
q11 16 30 16q9 0 13 -2q24 -9 22 -40z" />
    <glyph glyph-name="five" unicode="5" horiz-adv-x="600" 
d="M317 731q56 0 104 -11q12 -2 21 -7q10 -5 15.5 -14t5.5 -18q0 -19 -17 -29q-17 -11 -45 -15q-33 -3 -67 -3q-7 -1 -22 -1l-51 -4l-32 -183l60 -7q58 -7 105 -40.5t73.5 -84t26.5 -106.5q0 -43 -16 -82q-55 -139 -189 -176q-27 -7 -55 -7q-61 0 -117 36q-29 19 -45 49.5
t-16 64.5q0 41 24 77q2 5 5 8q12 14 22 14q6 0 11 -4q9 -5 9 -14q0 -8 -7 -19q-13 -19 -13 -47q0 -13 3 -27q9 -40 47 -57q33 -14 62 -14q31 0 58 13q43 20 71 54q33 43 33 83q0 22 -8 42q-18 53 -46 91q-27 37 -73 41l-70 5q-68 5 -68 63q0 14 2 22q13 68 41 204
q5 19 21 57q15 35 53 40q42 6 84 6z" />
    <glyph glyph-name="six" unicode="6" horiz-adv-x="600" 
d="M362 743q29 0 53.5 -16t38.5 -46q7 -13 13 -47v-6q0 -13 -3 -27q-6 -24 -29 -27q-22 -1 -32 22q-4 8 -7 15.5t-6 14.5q-5 12 -12 20t-19 12q-13 -8 -20.5 -19t-16.5 -30q-45 -101 -65 -210l-13 -79l36 22q24 15 47 15q34 0 62 -37q29 -40 29 -84q0 -10 -1 -15
q-11 -89 -50 -163q-15 -29 -40 -52q-30 -30 -66 -30q-20 0 -39.5 11t-35.5 31q-39 50 -45 120l-1 11q3 113 9 188.5t25 149.5q29 107 67 172q25 42 57 63q30 21 64 21zM252 268q-4 -3 -7 -9.5t-3 -11.5q-2 -46 -2 -70q0 -28 1 -43q2 -38 28 -66q5 4 13.5 9.5t12.5 10.5
q29 37 46.5 68.5t22.5 67.5q1 4 1 13q0 34 -27 60q-9 9 -18 9q-6 0 -11 -4q-46 -26 -57 -34z" />
    <glyph glyph-name="seven" unicode="7" horiz-adv-x="600" 
d="M455 674l-1 -12q-6 -62 -10 -97l-5 -45l-8 -103q6 0 13.5 0.5t16.5 -0.5q14 -1 24 -10.5t12 -22.5q2 -23 -27 -33q-5 0 -7 -1q-20 -7 -27 -11.5t-9 -13t-3 -30.5l-5 -149q-2 -30 -8 -49q-15 -52 -15 -95q1 -24 -14.5 -38.5t-38.5 -14.5q-31 0 -46 26q-9 15 -17 53
q-17 98 -17 159q0 15 2 45q0 1 -1.5 3.5t-3.5 6.5l-65 -40l-56 -39q-14 -10 -25 -10q-8 0 -14 7q-6 6 -6 15t11 25q23 28 41 42q39 32 100 73q12 7 17 16t7 23q6 50 22 161l3 22q-9 0 -14 -2q-45 -20 -101 -18q-54 3 -116 -17q-22 -7 -39 -6q-11 0 -17.5 6.5t-6.5 15.5
q0 8 5 16q9 10 18 17q57 47 134 61q112 21 186 100q1 0 3 2q27 25 51 25q9 0 22 -5q35 -15 35 -58z" />
    <glyph glyph-name="eight" unicode="8" horiz-adv-x="600" 
d="M331 717q46 0 81.5 -29t45.5 -79q4 -24 4 -36q0 -30 -12 -57q-6 -14 -34 -67l-23 -45q3 -6 15 -24q56 -92 56 -191q0 -54 -18 -111q-20 -61 -70 -98q-40 -31 -94 -31q-55 0 -97 33q-18 14 -33 30q-41 46 -41 95q0 24 11 52q22 57 66 112l43 56q-21 34 -31 52
q-45 78 -45 146q0 60 34 110t89 72q26 10 53 10zM317 607q-16 -12 -21 -29q-3 -9 -3 -19q0 -5 2 -13q15 -51 55 -88q39 48 44 99q2 23 -12.5 42.5t-33.5 19.5q-15 0 -31 -12zM212 207q-25 -43 -32 -67q-5 -17 -5 -30q0 -47 51 -70q18 -7 27 -7q27 0 34 40q5 35 5 61
q0 51 -13 99q-3 10 -9 23.5t-9 21.5q-24 -28 -49 -71z" />
    <glyph glyph-name="nine" unicode="9" horiz-adv-x="600" 
d="M470 577q35 -80 35 -171q0 -15 -2 -43q-9 -118 -55 -233q-38 -98 -112 -158q-53 -43 -113 -43q-68 0 -108 46q-28 31 -28 81q0 24 5 54q1 11 9.5 18t21.5 6q22 -1 24 -30q1 -11 3 -20.5t3 -19.5q2 -20 14 -31t33 -17q6 -2 16 -2q26 0 42 22q26 35 38 66q39 97 51 245v2
l-1 10q-9 0 -21 -0.5t-26 0.5q-48 1 -84 30.5t-46 76.5q-5 21 -5 51q0 71 38 131q19 30 45 46t57 16q34 0 65 -17q67 -36 101 -116zM251 498q0 -13 1 -20q2 -15 13.5 -24.5t27.5 -11.5q6 -1 17 -1t43 2q-7 57 -18 90t-44 60q-40 -43 -40 -95z" />
    <glyph glyph-name="colon" unicode=":" horiz-adv-x="245" 
d="M139.5 493.5q5.5 -6.5 5.5 -17.5t-5.5 -17.5t-15.5 -6.5q-10 -1 -17 5.5t-7 16.5q-1 10 7 18t18 8q9 0 14.5 -6.5zM139.5 44.5q5.5 -6.5 5.5 -17.5t-5.5 -17.5t-15.5 -6.5q-10 -1 -17 5.5t-7 16.5q-1 10 7 18t18 8q9 0 14.5 -6.5z" />
    <glyph glyph-name="semicolon" unicode=";" horiz-adv-x="248" 
d="M139.5 502.5q5.5 -6.5 5.5 -17.5t-5.5 -17.5t-15.5 -6.5q-10 -1 -17 5.5t-7 16.5q-1 10 7 18t18 8q9 0 14.5 -6.5zM120 60q8 0 14 -7q14 -14 14 -34q0 -19 -12 -34q-7 -10 -15 -17q-3 -4 -7 -5t-7 1q-9 4 -6 15t7 20t4 21q0 9 -3 18q-1 3 -1 7q0 9 7 14q2 1 5 1z" />
    <glyph glyph-name="less" unicode="&#x3c;" horiz-adv-x="550" 
d="M501 77l-451 207v49l451 235v-78l-359 -178l359 -157v-78zM221 622z" />
    <glyph glyph-name="equal" unicode="=" horiz-adv-x="411" 
d="M349 333q7 -3 10 -9t1 -14q-4 -15 -20 -15h-5h-32q-63 0 -110 -2.5t-93 -9.5h-6q-33 -3 -35 22q0 12 8 20t23 9l63 3q52 4 103 4q38 0 64 -1q13 0 29 -7zM284.5 230q10.5 -5 12.5 -17t-8 -22t-28 -12q-33 -4 -101 -10l-24 -2q-36 -4 -53 -4q-33 0 -33 24q0 21 36 25
l164 22q24 1 34.5 -4z" />
    <glyph glyph-name="greater" unicode="&#x3e;" horiz-adv-x="550" 
d="M50 155l359 157l-359 178v78l451 -235v-49l-451 -207v78zM221 622z" />
    <glyph glyph-name="question" unicode="?" horiz-adv-x="600" 
d="M482 738q35 -40 54 -79.5t19 -85.5q0 -69 -37 -122q-26 -39 -84 -113q-50 -65 -84 -138q-17 -37 -30 -103q-2 -12 -4.5 -21t-4.5 -15l-7 -28q-2 -8 -7 -31q-6 -31 -30 -31q-13 0 -22.5 9t-10.5 24l-1 25q-2 32 -2 49q0 36 5 62q15 95 58 162q40 63 84 126l22 33
q24 33 36 54q18 28 27 62q5 18 5 32q0 40 -35 87q-9 10 -29 16q-13 4 -29 4q-19 0 -32 -4q-46 -10 -83 -51.5t-42 -88.5q-3 -21 -7 -70h1v-37q-2 -18 -14 -21q-2 -1 -6 -1q-10 0 -17 12q-8 16 -9 26q-5 33 -5 61q0 24 5 56q8 50 37.5 91t74 64.5t95.5 23.5q26 0 46 -5
q41 -8 63 -34zM265.5 -155q8.5 -10 7.5 -21q0 -10 -7 -17t-17 -7t-17.5 7t-7.5 18q0 13 6.5 22t16.5 8q10 0 18.5 -10z" />
    <glyph glyph-name="at" unicode="@" horiz-adv-x="663" 
d="M370 464q109 0 186 -74q28 -27 42.5 -64.5t14.5 -77.5q0 -61 -32 -109.5t-90 -63.5q-6 -2 -20 -2q-27 0 -54 14.5t-41 38.5q-3 4 -13 21q-21 -14 -63 -40q-25 -15 -60 -15q-33 0 -55.5 19.5t-24.5 50.5q-1 6 -1 17t1 16q7 43 34.5 78t67 54.5t82.5 19.5q18 0 41 -5
q16 -3 27 -14q11 -9 11 -21q0 -8 -5.5 -14.5t-15.5 -9.5q-17 -6 -29 -8q-8 -1 -22 -5q-40 -11 -65 -39t-43 -74q9 2 18.5 2.5t14.5 2.5q27 10 46.5 21t33.5 28q3 7 11 12q11 9 22 9q9 0 16 -5.5t11 -14.5q3 -6 4.5 -14.5t2.5 -12.5q10 -35 32 -35q15 0 31.5 15.5t27.5 40.5
t11 51q0 56 -48 88q-58 39 -123 39q-56 0 -108 -29q-84 -48 -126 -139q-13 -26 -13 -56q0 -40 24.5 -72t65.5 -45q70 -19 145 -16q79 6 123 11q15 2 34 9t28 10q8 3 14 3q8 0 14 -7q5 -7 5 -13q0 -10 -9 -15q-27 -23 -48 -28q-53 -11 -133 -20l-26 -1q-36 -2 -51 -2
q-21 0 -31 1q-43 2 -82 12q-61 19 -95 64.5t-34 104.5q0 26 6 51l4 16q13 44 52 96.5t95.5 92.5t117.5 49q23 3 44 3z" />
    <glyph glyph-name="A" unicode="A" horiz-adv-x="810" 
d="M272 759q21 0 36.5 -13t18.5 -30v-4q0 -17 -17 -17q-5 0 -8 1t-10 1q-48 0 -94.5 -86.5t-76.5 -211t-30 -226.5q0 -25 1 -37q1 -13 5 -29t5 -21q5 -16 15.5 -25t25.5 -9q7 0 16 3q31 12 55 35t48 62q32 53 37 122q3 58 21 170q6 32 8 48q5 31 22 102q3 17 11 51
q4 23 11 35q8 15 24 31q8 8 18 8q7 0 13 -3q7 -4 8.5 -10.5t0.5 -15.5l-25 -212l-12 -123q-8 -82 -13 -123q-2 -30 -2 -47q0 -60 12 -118t36.5 -96.5t60.5 -38.5q7 0 10 1q76 10 163 88t151 189q6 11 21 11q11 0 18 -7t3 -17q-45 -81 -110.5 -156.5t-140.5 -124t-143 -48.5
q-50 0 -81 31.5t-47 75.5t-33 114l-6 26q-4 -5 -36 -52q-30 -43 -80 -66q-25 -12 -52 -12q-37 0 -67.5 21.5t-43.5 59.5q-17 46 -18 90q-1 14 -1 42q0 117 31.5 233t88 203t128.5 120q10 5 24 5z" />
    <glyph glyph-name="B" unicode="B" horiz-adv-x="748" 
d="M75 732.5q9 -6.5 13 -17.5q11 -40 18 -74q3 -13 4 -30.5t2 -27.5q8 1 12.5 7.5t6.5 8.5q39 48 98.5 82t105.5 34q32 0 50 -18.5t18 -58.5q0 -18 -2 -29q-6 -41 -28 -95q-10 -25 -42 -89l-19 -40q16 3 17 3q29 8 53 8q52 0 93 -29.5t63 -81.5q16 -39 16 -83
q0 -80 -52.5 -154.5t-142 -120.5t-194.5 -46q-21 0 -32 1l-23 2l-11 -22q-12 -20 -31 -20q-16 0 -26 8.5t-12 22.5q-1 9 -4 32.5t-4 42.5l-2 67q0 23 -2 67q-4 80 -7 120q-12 135 -12 271q0 54 4 164q1 19 7 57q3 10 8 23q13 23 36 22q12 0 21 -6.5zM223 613
q-30 -19 -53 -45t-52 -67q-6 -8 -6 -27q-2 -62 -2 -91l-1 -46v-36l6 -2l12 14q7 9 15.5 21t19.5 26q19 25 55 75l17 25q40 56 63.5 94.5t32.5 71.5q2 8 2 11q0 9 -5.5 14t-13.5 5q-5 0 -13 -3q-44 -18 -77 -40zM248 275.5q-53 -37.5 -93 -81.5t-40 -77l-1 -167v-16l46 3
q32 2 49 4q77 10 139.5 57t98 109t35.5 115q0 46 -29.5 80t-73.5 34q-19 0 -42 -9q-36 -14 -89 -51.5z" />
    <glyph glyph-name="C" unicode="C" horiz-adv-x="494" 
d="M358 701q36 -50 44 -97q2 -9 6 -28t5 -34q1 -4 1 -12q0 -7 -2 -19q-2 -4 -5.5 -7.5t-7.5 -3.5h-1q-8 0 -14 8q-3 4 -6 16q-12 38 -20 67q-12 39 -39 69q-16 16 -26 21q-17 9 -29 9q-17 0 -34 -26q-34 -54 -66 -146.5t-52 -197t-20 -193.5q0 -86 20 -142q10 -29 25 -40.5
t43 -11.5q90 0 169 77.5t151 199.5q9 13 19 13q9 0 15.5 -6.5t6.5 -15.5q0 -7 -5 -15q-89 -138 -171 -216.5t-187 -96.5q-9 -2 -27 -2q-64 0 -99.5 52.5t-45.5 133.5q-6 39 -6 87q0 87 17.5 188.5t50.5 194t78 151.5q22 31 40 48q29 30 67 30q20 0 40 -7q40 -14 65 -48z" />
    <glyph glyph-name="D" unicode="D" horiz-adv-x="813" 
d="M575 582q38 -96 38 -190q0 -164 -117.5 -297t-331.5 -219q-13 -5 -25 -5q-14 0 -20 12q-3 6 -3 11q0 15 25 30q181 103 278.5 232.5t97.5 262.5q0 106 -63 202q-22 33 -55 50q-14 6 -26 6q-18 0 -32 -13q-22 -20 -51 -60t-46 -78q-47 -100 -80 -185.5t-53 -171.5
q-4 -16 -10 -48l-39 -165q0 -1 -3 -10q-10 -19 -28 -19q-11 0 -19.5 7t-10.5 19q-1 9 -1 27q2 16 4 52q4 51 7 79q9 66 12.5 134.5t5.5 158.5q1 8 1 24q2 92 2 139l1 69q2 21 6 40q6 22 29 25q11 1 19.5 -4.5t11.5 -15.5q12 -33 18 -68q10 -49 10 -134v-45v-32q4 0 5 -1
l8 19l48 120q32 76 86 146q51 62 110 62q46 0 93 -34q64 -44 98 -132z" />
    <glyph glyph-name="E" unicode="E" horiz-adv-x="625" 
d="M494 752q8 -3 12 -9.5t0 -14.5q-4 -9 -19 -15l-29 -6q-17 -3 -29 -7q-18 -5 -23 -7q-105 -50 -164 -131q-29 -38 -42 -95q-3 -10 -3 -21q2 -26 24 -27q21 0 40 6q40 13 76 44q11 11 28 21q5 3 9 3q8 0 15 -7q6 -6 6 -14q0 -5 -3 -11q-7 -12 -16 -21l-48 -56
q-48 -56 -72 -86q-85 -109 -135 -180q-23 -34 -44 -89q-5 -15 -5 -24q0 -16 12 -25.5t35 -10.5q54 -3 116 19q110 38 198 130q4 4 12 12.5t15 13.5q13 12 28 16l4 1q8 0 17 -7q4 -4 4 -8q0 -7 -7 -14l-40 -44q-96 -102 -220 -150q-60 -24 -124 -24l-21 1q-39 2 -68.5 26
t-32.5 57q-2 24 7 61q15 55 63 117q37 48 90 110l46 56l18 21q-9 1 -22 2t-20 3q-24 7 -39 28.5t-16 47.5q-2 37 18 91q20 51 55 89q66 73 172 122q36 17 89 15q18 -2 33 -9z" />
    <glyph glyph-name="F" unicode="F" horiz-adv-x="507" 
d="M513 742q37 0 90 -7q11 -1 23 -10q11 -8 11 -21q0 -20 -22 -27l-10 -2q-84 -11 -250 -43q-7 -1 -20 -3.5t-14 -7.5t-3 -33l-19 -242l-4 -38l4 -6q30 18 46 26q21 12 39 20q3 1 8 1q12 0 16 -10q2 -6 2 -7q0 -5 -4 -9t-9 -7l-59 -36l-35 -22q-18 -10 -24 -34
q-32 -124 -69 -256q-5 -15 -23 -59l-12 -27l-4 -9q-14 -23 -31 -23q-15 0 -28.5 12.5t-9.5 32.5q5 29 17 64q54 154 79 298.5t41 306.5l4 38q-68 -28 -112.5 -52.5t-83.5 -61.5l-12 -10q-9 -7 -16 -7q-5 0 -9 4q-5 5 -8 12t-2 13q3 18 16 34q22 33 70 63q170 105 358 139
q35 6 69 6z" />
    <glyph glyph-name="G" unicode="G" horiz-adv-x="601" 
d="M322 759q24 -50 33 -77q28 -80 47.5 -146t30.5 -131q6 -32 12 -92q1 -3 2 -9.5t2 -17.5l69 54q15 12 21 12q3 0 8 -5q4 -6 4 -10q0 -10 -14 -22l-16 -14q-32 -28 -48 -39q-13 -9 -18 -21t-3 -29q4 -76 4 -113q0 -58 -6 -98q-19 -131 -68 -207.5t-136 -76.5q-15 0 -33 3
q-37 6 -57 45q-19 39 -19 80q0 19 5 44q17 80 72 147q44 56 136 160q10 11 14.5 21t4.5 22q0 8 -1 12l-7 56q-10 89 -18 130q-6 36 -17 77t-14 53q-12 42 -17 63l-3 4q-39 -104 -56 -144q-29 -70 -88 -109q-27 -20 -57 -23q-5 -1 -13 -1q-41 0 -62 42q-16 31 -16 69
q0 100 57 190q22 37 58 51q17 5 28 5q25 0 42 -16q8 -10 5 -19q-1 -3 -7 -6t-9 -4h-3q-12 2 -16 2q-32 0 -53 -41q-36 -70 -39 -157q0 -12 6 -36q6 -16 18 -16q6 0 13 4q16 7 34 23q25 22 47 67q41 82 51 196q4 35 10 53q4 15 13.5 22.5t21.5 7.5q17 0 31 -14q11 -13 14 -21
zM353 150q-72 -75 -136 -174q-43 -62 -43 -130q0 -27 11 -55t45 -30q77 0 111.5 88t34.5 226q0 40 -1 60l-2 34q-17 -15 -20 -19z" />
    <glyph glyph-name="H" unicode="H" horiz-adv-x="1005" 
d="M845.5 766q7.5 -8 7.5 -20q0 -5 -1 -8q-1 -8 -6 -37t-7 -55q-7 -98 -19 -313v-31q43 -2 47 -3q21 -2 35 -8q11 -4 16 -13.5t3 -19.5q-2 -11 -10.5 -17t-20.5 -6h-73q-2 -18 -2 -27l-8 -179q-4 -74 -7 -112q-1 -17 -11 -27.5t-27 -10.5q-12 0 -22 7t-14 20q-4 12 -4 18
l-6 48q-9 64 -8 107q1 21 1 64v63l-1 26l-54 -6q-22 -2 -80 -8t-152 -15q-1 -4 -2.5 -6t-1.5 -4l-6 -49q-2 -18 -5.5 -46t-9.5 -65q-5 -32 -28 -30q-13 0 -21 8.5t-9 24.5q-1 40 -1 119q-1 11 -1 35l-96 -18q-97 -19 -196 -59q-3 -1 -10.5 -4.5t-14.5 -3.5q-8 0 -13.5 5
t-5.5 12q0 6 2 9q8 16 23 25q6 3 33.5 19t53.5 25q50 16 136 38l52 14q13 4 32 7v26l-4 369q-1 23 4 54q3 14 15 26q8 8 18 8q7 0 13 -3q15 -7 15 -26q0 -36 1 -54l21 -360l2 -21l293 26q2 8 2 16q11 171 37 327q5 37 16 68q7 24 26 44q6 7 15.5 11t18.5 4q12 0 19.5 -8z
" />
    <glyph glyph-name="I" unicode="I" horiz-adv-x="522" 
d="M222 374q1 -2 5 -7.5t5 -10.5v-5q0 -12 -4 -16q-3 -3 -10 -4t-11 1q-4 3 -21 15.5t-27 27.5q-54 79 -63 156q-3 23 -3 45q0 62 19.5 111t51 76t66.5 27q49 0 88.5 -54.5t53.5 -162.5q9 -60 9 -136q0 -120 -23.5 -251t-72.5 -250q-33 -82 -95 -118q-35 -22 -75 -22
q-19 0 -35 4q-37 10 -58.5 37.5t-21.5 61.5q0 25 12 49q16 32 38 65q5 7 25 23q5 3 8 3q7 0 13 -8q3 -4 3 -9q0 -4 -4 -12q-22 -36 -31 -55q-9 -22 -9 -40q0 -20 13 -32t33 -12q30 0 52 24q30 34 46 81q92 255 92 511l-1 38q-1 58 -15 103t-34 70t-39 25q-21 0 -34.5 -30
t-13.5 -88q-5 -131 68 -231z" />
    <glyph glyph-name="J" unicode="J" horiz-adv-x="600" 
d="M355 702q49 -67 59 -118q3 -15 5 -48q2 -48 2 -73q0 -94 -14 -227q-2 -16 -4 -48l-8 -82q85 22 123.5 36.5t56 29.5t36.5 45q4 6 14 2t16.5 -13.5t2.5 -16.5q-18 -31 -67.5 -60.5t-172.5 -57.5q-16 -4 -18 -26q-16 -98 -41 -158q-20 -49 -62.5 -89.5t-95.5 -40.5
q-37 0 -61.5 23.5t-24.5 59.5q0 9 4 27q10 38 42 74q67 72 142 111q11 6 16.5 14t6.5 20l15 143q13 120 20 190q3 31 3 95v48q-2 52 -24 100q-20 45 -60 45q-19 0 -43 -11q-20 -9 -40 -33q-38 -44 -44 -102q-1 -5 -1 -13q0 -41 36 -75q2 -2 8 -6t6 -10q0 -11 -10 -11
q-8 0 -20 9q-48 39 -48 95q0 12 1 18q10 70 49 118q45 58 113 58q51 0 82 -42zM290 17q-87 -51 -133 -114q-22 -31 -22 -59q0 -19 12.5 -32t30.5 -13q10 0 23 5q16 8 22 15q24 30 32 47q25 53 43 141q1 3 0.5 6t-0.5 5q-6 0 -8 -1z" />
    <glyph glyph-name="K" unicode="K" horiz-adv-x="731" 
d="M78.5 850q7.5 -7 11.5 -18q2 -10 2 -16q8 -169 11 -248v-83l97 143q62 93 127 158q17 15 33 27q1 1 17 7q3 1 8 1q13 0 20 -12q3 -4 3 -11q0 -14 -12 -19q-36 -18 -59 -43.5t-64 -80.5q-39 -53 -124 -177l-24 -36q-12 -16 -12 -23t15 -23q101 -113 220 -204.5t224 -91.5
q103 0 166 110q4 7 13 7q11 0 20 -9.5t4 -18.5q-83 -136 -216 -136q-100 0 -210 70.5t-206 174.5q-8 9 -46 56q-4 -12 -4 -21q-2 -96 -2 -142q0 -60 -18 -148q-3 -16 -13.5 -26t-23.5 -9q-14 2 -24 12.5t-11 25.5l-1 41l1 40q6 208 11 314q6 210 10 323q0 17 6 51q2 11 6 20
q6 20 28 22q9 0 16.5 -7z" />
    <glyph glyph-name="L" unicode="L" horiz-adv-x="600" 
d="M359 976q22 0 41 -12.5t29 -34.5q8 -19 8 -45q0 -40 -23 -81t-64 -71q-18 -15 -60 -37q-10 -6 -15.5 -12t-6.5 -16l-7 -40q-21 -111 -32.5 -178.5t-19.5 -138.5q-9 -71 -21 -148l-10 -65q19 -11 42 -29q26 -19 40.5 -28t32.5 -16q26 -9 50 -9q71 0 144 58.5t124 143.5
q4 8 13 8q11 0 19.5 -12t2.5 -21q-67 -106 -147 -166.5t-162 -60.5q-70 0 -134 45l-49 35l-14 -22q-4 -6 -12.5 -20t-17.5 -23q-65 -68 -133 -68q-50 0 -110 35q-46 27 -56 88q-1 5 -1 14q0 33 25 58.5t66.5 39.5t87.5 14q34 0 62 -7q6 -1 25 -6q1 5 3 12.5t3 16.5l7 56
q10 92 18 137q14 78 30 156q7 31 19 93l8 33l-24 -2q-22 -2 -32 -2q-60 0 -118 26q-57 26 -69 86q-2 10 -2 16q0 20 12 36q9 12 20 12q6 0 9 -2q10 -4 10 -13q0 -4 -2 -12q-1 -4 -1 -12q0 -17 8.5 -32t24.5 -22q54 -27 112 -27q27 0 56 6q8 1 11.5 5.5t7.5 14.5q3 8 14 41.5
t25 61.5q18 38 52 92q13 21 34 35q22 16 47 16zM321.5 861q-21.5 -53 -26.5 -106q35 24 62.5 65t27.5 68q0 20 -18 23q-24 3 -45.5 -50zM-33 107q-46 0 -74 -19.5t-28 -45.5q0 -24 23.5 -40.5t67.5 -16.5q18 0 34 8q26 14 41 37t28 59q-48 18 -92 18z" />
    <glyph glyph-name="M" unicode="M" horiz-adv-x="1029" 
d="M62.5 635q2.5 -7 3.5 -11q41 -123 47 -251l2 -47q2 -60 4 -91l9 15q9 23 11 29q18 48 42 100q32 70 64 120q16 27 52 56q18 14 38 14q34 0 52 -36q19 -37 19 -85q6 -214 10 -322q0 -7 1.5 -19.5t2.5 -22.5q9 3 14.5 8.5t9.5 11.5l6 9l35 52l44 65q8 13 26 37q37 55 41 62
q18 27 40 27q26 0 41 -35q15 -36 26 -96l4 -20q12 -53 27 -109q12 -39 64 -39q37 0 84 20t88.5 55t65.5 78q2 3 13 -0.5t19 -9.5t5 -11q-57 -84 -140.5 -138t-154.5 -54q-21 0 -41 6q-49 15 -67 60q-23 54 -30 131q-2 18 -2 27q-2 22 -4.5 42.5t-7.5 33.5l-19 -24l-111 -174
q-24 -40 -38 -58q-22 -27 -51 -27q-17 0 -31.5 10t-24.5 29q-18 38 -22 98q-6 110 -6 165q0 60 6 120l4 46v6l-1 29q-32 -13 -58 -53t-58 -109q-64 -140 -92 -239q-5 -17 -9.5 -38.5t-6.5 -29.5q-10 -41 -13 -53q-4 -12 -12 -19t-19 -7q-13 0 -22.5 7.5t-10.5 21.5
q-5 50 -5 91v80v159q0 55 -5.5 110.5t-15.5 128.5q-5 27 -5 48q0 19 7 32q9 16 25 16t25 -16q3 -5 5.5 -12z" />
    <glyph glyph-name="N" unicode="N" horiz-adv-x="691" 
d="M32 687q14 0 23 -14q12 -16 20 -36q20 -59 31.5 -108.5t12.5 -99.5q0 -4 2 -14h4l13 23l35 57q24 36 41 52q32 31 67 31q24 0 44.5 -16.5t31.5 -46.5q16 -44 16 -96q0 -15 -2 -45l-1 -20l-1 -95q-1 -37 -1 -118q4 -49 27.5 -73t61.5 -24q55 0 123.5 47.5t121.5 125.5
q3 5 12.5 -0.5t16.5 -14t4 -13.5q-60 -90 -133 -143t-147 -53q-60 0 -116 38q-36 23 -50 71q-16 51 -16 117q0 17 2 51q2 33 10 99l6 56q1 7 1 20l-1 41q0 1 -3 13q-6 20 -17 20q-7 0 -18 -8q-17 -12 -32 -31q-45 -57 -74 -120l-11 -28q-11 -25 -13 -68q0 -29 -4 -85
q0 -15 -2 -43q-1 -14 -1 -41q0 -21 -16 -28q-3 -2 -11 -2q-15 0 -23 11q-10 16 -11 27q-9 49 -15 107t-10 113l-6 79q-6 67 -23 224l-1 15q0 8 2 22q3 18 23 23q2 1 7 1z" />
    <glyph glyph-name="O" unicode="O" horiz-adv-x="727" 
d="M211.5 722q38.5 15 80.5 15q60 0 114 -31.5t83 -92.5q48 -99 48 -205q0 -55 -10.5 -113t-32.5 -141q-21 -82 -69 -141.5t-109.5 -90.5t-122.5 -31q-77 0 -131 50.5t-60 145.5q-2 40 -2 60q0 198 101 334q23 31 62 60q13 11 45 19q3 1 9 1q18 0 29 -18q5 -8 5 -16
q0 -10 -11 -25q-49 -55 -79 -134q-51 -134 -58 -252v-12q0 -19 1 -29q4 -60 58 -89q35 -19 69 -19q59 0 108.5 52.5t88.5 135.5q59 127 56 248q4 83 -34 165q-26 61 -87 94q-21 11 -51 13q-77 5 -123 -40l-81 -76q-3 -3 -7 -9q-9 -7 -16 -7q-4 0 -12 4q-8 5 -11 12t0 14
q5 17 15 29q39 45 69 77q27 28 65.5 43z" />
    <glyph glyph-name="P" unicode="P" horiz-adv-x="561" 
d="M96 736q2 -22 4 -70q0 -1 0.5 -1h0.5q26 18 29 20q39 28 50 34q18 10 49 17q10 2 16 2q39 0 75.5 -39.5t58.5 -102t22 -127.5q0 -99 -56 -167.5t-174 -71.5q-15 -1 -42 6l-21 4q0 -5 -1 -10.5t-1 -10.5l1 -57q2 -76 2 -113q0 -15 -1 -26t-2 -19q-1 -5 -2 -13.5t-1 -20.5
l-1 -21q0 -9 1 -18.5t1 -19.5q0 -12 -4 -19t-13 -12q-7 -3 -15 -3q-16 0 -30 15q-9 11 -12 22q-2 7 -9.5 34t-12 50.5t-5.5 44.5q-4 126 -4 189q0 115 7 276q3 78 6.5 122.5t14.5 90.5q4 19 10 30q12 20 30 20q27 0 29 -35zM109 564q-8 -29 -8 -68q0 -25 1 -38l1 -40
q6 3 13 7t15 7q14 6 30 6q20 0 39.5 -7.5t30.5 -20.5q8 -10 8 -18q0 -5 -3 -11q-5 -11 -19 -11q-6 0 -9 1l-19 8q-15 7 -27 7q-16 0 -33 -17q-22 -22 -22 -42t11 -27t34 -12q13 -4 31 -4q30 0 77 17q42 15 61.5 57t19.5 99q0 52 -15 104t-39.5 85.5t-51.5 33.5q-8 0 -16 -3
q-89 -32 -110 -113z" />
    <glyph glyph-name="Q" unicode="Q" horiz-adv-x="696" 
d="M485 636q52 -90 52 -216q0 -94 -27.5 -187.5t-75.5 -163.5q-11 -17 -25.5 -35.5t-19.5 -24.5l55 -96q1 -3 3.5 -7t3.5 -7q3 -8 3 -15q0 -15 -11 -24.5t-27 -6.5q-16 2 -28 14q-18 17 -52 53l-17 18l-8 9q-16 -6 -24 -10q-39 -18 -82 -18q-55 0 -102 31t-74.5 82.5
t-28.5 109.5q-2 104 35.5 199t91.5 154t94 59q4 0 12 -2q7 -2 11.5 -7.5t4.5 -12.5q0 -9 -9 -15q-44 -27 -78.5 -93.5t-53.5 -138.5t-19 -113q0 -46 16 -87t46 -66.5t70 -25.5q13 0 29 4t23 5q-4 6 -9 15t-7 15q-8 21 -11 41q-1 12 5.5 21t18.5 14q6 3 12 3q15 0 27 -14
q9 -9 37 -43l16 18l17 19q44 57 73 153.5t29 190.5q0 106 -40 178t-125 83q-45 5 -87 -23t-88 -73l-23 -21q-6 -6 -14 -6q-7 0 -13 6q-8 8 -8 16q0 4 2 10l9 14q55 63 101 94t104 31q21 0 32 -2q102 -16 154 -106z" />
    <glyph glyph-name="R" unicode="R" horiz-adv-x="725" 
d="M285 786q38 0 72 -32q34 -34 52.5 -87.5t18.5 -115.5q0 -65 -20.5 -125.5t-60.5 -104.5t-98 -59q16 -35 62.5 -64t109 -45.5t124.5 -16.5q66 0 116.5 20t74.5 61q3 6 11 6q9 0 17 -7.5t8 -16.5q0 -4 -3 -10q-31 -49 -98.5 -77t-151.5 -28q-79 0 -155 25q-55 18 -104 58
t-102 94q-27 27 -30 29l-10 -112l-11 -151l-4 -25q-2 -8 -4 -22q-1 -11 -1 -34q2 -17 -5.5 -29.5t-21.5 -17.5q-5 -2 -14 -2q-12 0 -22.5 6t-16.5 17q-7 12 -9 26q-1 6 -5 34.5t-4 54.5q2 246 27 591q2 29 10 78q2 9 4 25q3 20 13 34q14 21 34 21q23 0 35 -24q5 -12 11 -36
q1 -4 2 -10.5t4 -14.5l26 30q37 37 88 52q18 5 31 5zM202 709.5q-25 -19.5 -50 -52.5q-13 -16 -13 -39v-38v-77v-84l-1 -22q-3 -34 16.5 -57.5t51.5 -23.5q24 0 45.5 10t35.5 28q36 45 55 107t19 123q0 68 -21.5 112t-60.5 44q-9 0 -19 -3q-33 -8 -58 -27.5z" />
    <glyph glyph-name="S" unicode="S" horiz-adv-x="633" 
d="M235 711q8 -11 10 -30v-1q0 -7 -4.5 -11t-10.5 -4q-4 0 -10 3q-3 2 -7.5 6.5l-7.5 7.5q-35 33 -70 33q-26 0 -38 -27q-9 -23 -9 -55q0 -22 2 -33q13 -78 55 -151q47 -78 96 -153q82 -124 106 -258l4 -11l24 11q118 55 177.5 91.5t91.5 87.5q4 8 15 8q9 0 16.5 -6t7.5 -15
q0 -7 -4 -12q-16 -33 -75.5 -75.5t-129.5 -80.5t-116 -58l2 -21q2 -14 4 -42q4 -68 3 -103q0 -53 -23.5 -103t-69.5 -85t-110 -44q-18 -3 -35 -3q-30 0 -60 9q-59 18 -68 83q-1 5 -1 16q0 21 9 52q17 49 51 90q94 110 195 158l9 6q-16 108 -63 186q-39 64 -97 152
q-31 49 -52 88.5t-33 80.5q-16 54 -16 103q0 47 16 91q22 56 66 74q18 7 38 7q18 0 31 -4q50 -13 81 -58zM255.5 -63.5q-8.5 -3.5 -16.5 -8.5q-94 -58 -160 -149q-17 -24 -28 -62q-4 -12 -4 -28l1 -20q3 -26 30 -33q20 -6 42 -6q33 0 66.5 13t54.5 35q39 40 44 106
q1 12 1 37q0 54 -13 124q-9 -5 -17.5 -8.5z" />
    <glyph glyph-name="T" unicode="T" horiz-adv-x="587" 
d="M525.5 737q9.5 -9 11.5 -24q1 -14 -8.5 -24t-26.5 -14l-107 -21q-26 -5 -44 -10l17 -59q15 -65 15 -157v-32q0 -198 -52 -385q-1 -6 -18 -64l-9 -32l-9 -36q-6 -28 -31 -28q-12 -1 -22 7t-12 20q-1 6 -1 20q0 13 1 20l4 27q2 11 8.5 51.5t14.5 74.5q42 183 45 386
q0 24 -2 53.5t-3 41.5l-3 39q-1 7 -3.5 16.5t-4.5 15.5l-21 -6q-100 -32 -180 -97q-31 -25 -42 -31t-19 -6q-10 0 -17 7t-7 18q0 12 5 19q7 12 15 20q44 55 116 99q130 80 253 99q18 3 55 3q38 0 56 -1q16 -1 25.5 -10z" />
    <glyph glyph-name="U" unicode="U" horiz-adv-x="765" 
d="M89 717q14 8 27 8q15 0 24 -10t8 -30v-12q-8 -55 -11 -77q-26 -166 -44 -307q-9 -65 -9 -108t7 -79q4 -20 8 -30q14 -32 35 -32q14 0 30 12t32 27t22 21q9 7 17 18.5t12 16.5l112 150q7 11 7 27q9 117 46 214q10 31 33 70q7 12 31 30q8 5 16 5t17 -6q10 -7 10 -19
q0 -6 -3 -14q-2 -6 -7 -18t-8 -22q-21 -59 -32 -153q-13 -107 -13 -225v-44q0 -50 24 -79.5t63 -29.5q51 0 113 49t120 147q6 10 16 10q8 0 14.5 -7t6.5 -17q0 -7 -4 -14q-40 -69 -93.5 -122.5t-110 -83t-104.5 -29.5q-52 0 -86 36t-42 110q-3 25 -4 43.5t-2 30.5l-1 24
l-2 23q-7 0 -23.5 -21.5t-43.5 -63.5l-25 -37q-77 -114 -150 -114q-36 0 -69 29q-20 18 -27 39t-15 61q-11 47 -11 89q0 140 16.5 288.5t50.5 203.5q8 14 22 22z" />
    <glyph glyph-name="V" unicode="V" horiz-adv-x="700" 
d="M511 800q11 0 17 -15q16 -35 16 -102q0 -100 -30.5 -247.5t-69.5 -278t-57 -167.5q-42 -87 -133 -88q-50 0 -87 23t-57 67q-24 53 -34 118q-9 57 -16 133l-11 95q-11 89 -40 287q-1 5 -1 16q0 22 10 36q6 9 14 13.5t16 4.5q20 0 29 -21q35 -83 53.5 -136.5t23.5 -111.5
q3 -30 7 -90q1 -19 5 -65.5t8 -84.5q6 -60 24 -150q7 -39 46 -59q14 -7 30 -7q28 0 48 23q29 34 72 161.5t75 279.5t32 261q0 37 -5 72l-2 11q0 17 12 21z" />
    <glyph glyph-name="W" unicode="W" horiz-adv-x="1076" 
d="M41 784q13 0 29 -11q63 -49 103 -136q51 -109 58 -262l5 -160q4 -79 25 -128q1 -3 4 -10t8 -11t14 -4q21 0 32 19q3 5 7 12.5t8 17.5q56 154 61 323q1 23 -5 71q-4 42 -4 63q0 20 3 39q3 15 13.5 24t24.5 9q28 0 37 -34q12 -42 19 -62q5 -19 12.5 -42.5t14.5 -51.5
q21 -78 36 -154q24 -129 99 -272q11 -22 30 -42q18 -18 33 -18q17 0 35 23q41 51 60 121q27 108 40 246l4 47q7 67 7 113q0 15 -4 45l-3 27q-4 38 -4 57q0 21 19 24h2q18 0 21 -19l7 -33q8 -33 12 -55.5t3 -45.5q-4 -142 -29 -290q-11 -69 -21.5 -114t-29.5 -88
q-22 -47 -43 -76q-32 -47 -82 -47q-26 0 -51 13q-55 27 -95 88q-78 121 -111 228q0 1 -11 36q-5 -5 -7 -9l-8 -33q-20 -88 -33 -132q-12 -43 -31 -75q-14 -25 -37.5 -38.5t-50.5 -13.5q-39 0 -71 29q-21 19 -38 54q-35 71 -43 163l-6 74q-2 23 -5.5 67t-6.5 76
q-17 164 -85 276q-7 15 -10 25q-2 10 -2 13q0 22 19 36q11 8 22 8z" />
    <glyph glyph-name="X" unicode="X" horiz-adv-x="929" 
d="M36 800q15 0 25 -14q33 -45 45 -73q21 -50 50 -130q12 -30 25 -65q30 -74 71 -170q1 -3 11 -21q14 25 15 28l12 23q22 42 37 67t35 47q15 18 36 34q10 8 24 8q10 0 14.5 -7.5t0.5 -16.5q-2 -4 -8 -12q-28 -30 -49 -65.5t-42 -81.5q-28 -60 -34 -73q-4 -8 -4 -17
q0 -10 5 -18q56 -110 143 -196q37 -36 82.5 -57t96.5 -21q78 0 158.5 58.5t154.5 189.5q3 3 7 3q11 0 21.5 -10.5t4.5 -20.5q-189 -298 -383 -298q-99 0 -194 79q-80 67 -135 142l-19 24q-3 -9 -9 -21t-8 -20q-15 -44 -43 -132q-2 -5 -1.5 -11t0.5 -8q1 -12 -5 -19.5
t-16 -7.5q-16 0 -26 12.5t-8 30.5q6 48 14 68q24 72 56 152q5 13 5 21q0 11 -7 22q-82 146 -139 339l-51 181l-3 14q-3 28 19 39q7 4 16 4z" />
    <glyph glyph-name="Y" unicode="Y" horiz-adv-x="693" 
d="M291 653q11 0 18 -8t7 -22q0 -24 3 -35q5 -17 13 -51q7 -25 17 -63.5t25 -89.5q21 -70 48 -151l37 -117l30 -99l2.5 -7.5l3.5 -10.5l16 12q63 57 117.5 114t71.5 85q3 6 11 6q11 0 21 -9t5 -18q-32 -49 -88.5 -104t-129.5 -118q-8 -7 -11 -12.5t-1 -15.5q17 -67 17 -142
q0 -69 -16 -170q-7 -50 -27 -120q-20 -72 -75 -147q-32 -41 -75 -68q-41 -27 -85 -27q-26 0 -53 9q-86 27 -104 129q-4 23 -4 50q0 61 27 126q43 96 118 182q79 89 163 154q15 12 15 25q0 8 -2 13q-13 40 -28 92l-14 46l-26 80q-21 62 -35 107l-7 22l-27 -45
q-37 -60 -91 -60q-32 0 -66 20q-40 21 -65 70q-33 63 -41 145q-4 39 -6 118v24q0 21 6 40q4 16 13.5 24.5t23.5 8.5q28 0 36 -34q4 -22 10 -66l4 -25l30 -171q2 -12 8.5 -26t8.5 -20q5 -10 7 -12q13 -15 22.5 -22t18.5 -7q17 0 38 26q36 42 41 112q1 14 -5 44q-4 17 -5 23
q-2 16 -4 22q-8 48 -10 72q-1 6 -1 17q0 17 3 32q4 26 31 39q10 4 15 4zM399 -130q-79 -61 -172 -175q-48 -59 -84 -142q-19 -45 -19 -94q0 -31 7 -59q9 -36 37 -57.5t63 -21.5q38 0 67 25q36 29 61 74q32 60 47 123q22 98 22 214q0 57 -4 102q0 4 -4 26z" />
    <glyph glyph-name="Z" unicode="Z" horiz-adv-x="747" 
d="M547.5 657.5q13.5 -17.5 14.5 -44.5q0 -42 -24 -88q-38 -62 -53 -83q-130 -181 -241 -361q-23 -38 -73 -133q-7 -15 -15 -45q-2 -11 2.5 -19.5t14.5 -11.5q19 -6 43 -8q9 0 29 4q70 21 123.5 42.5t99.5 52.5q102 69 179 133t111 121q5 6 12 6q10 0 18 -6t8 -15
q0 -5 -3 -10q-24 -43 -112 -124t-202 -156t-218 -105q-43 -12 -76 -12q-20 0 -30 2q-47 10 -72.5 40t-25.5 77q0 61 31 118q43 82 77 133q46 69 97.5 136.5t120.5 151.5q32 38 94 116q12 14 23 44q2 4 2 7q0 12 -13 15q-23 6 -46 6q-76 0 -162 -31q-135 -51 -243 -147
q-3 -3 -6 -4q-7 -9 -16 -9q-7 0 -11 5q-5 5 -5 11t8 18l24 27q92 81 210 130t208 49q32 0 59 -8q25 -7 38.5 -24.5z" />
    <glyph glyph-name="bracketleft" unicode="[" horiz-adv-x="406" 
d="M244 683q17 -7 28.5 -20.5t13.5 -27.5t-6 -23.5t-26 -11.5q-28 -2 -43 -2l-42 -2q-17 -45 -21.5 -107.5t-6.5 -175.5q-1 -96 -5 -165t-16 -128h47q19 -1 34 -11t23 -26q4 -8 4 -16q0 -22 -25 -28q-38 -9 -76 -15q-17 -2 -34 11.5t-29.5 31.5t-15.5 27l-6 25q-7 29 -10 48
t-2 36q3 50 11 139q5 58 9.5 119t4.5 113q0 29 -1 44q-1 58 5 121q6 45 14 60.5t27 15.5q10 0 41 -7q39 -9 64 -13q20 -3 39 -12z" />
    <glyph glyph-name="backslash" unicode="\" horiz-adv-x="422" 
d="M131 638q6 0 22 -4q5 -6 13.5 -15t12.5 -16l16 -29q38 -70 52 -106q62 -158 68 -305q1 -43 7 -129v-5q0 -11 -3 -25q-4 -13 -24 -16h-3q-15 0 -24 12q-3 5 -5 17q-3 17 -3 33q-10 244 -139 511q-11 20 -20 48q-1 2 -1 7q0 12 15 19q8 3 16 3z" />
    <glyph glyph-name="bracketright" unicode="]" horiz-adv-x="383" 
d="M159 722q24 -2 49 -2q24 -1 43 -16.5t25 -40.5q7 -32 7 -70v-33q0 -9 -1 -57.5t-7 -89.5q-20 -138 -20 -254q0 -60 6 -123q1 -8 1 -23q0 -22 -3 -41q-3 -18 -11.5 -25t-23.5 -7q-8 0 -34 4q-40 5 -51 5q-28 0 -50 -9q-8 -2 -12 -2q-16 0 -27 15q-8 9 -8 19q0 9 8 17
q24 24 77 24l41 -3l28 -3l-6 66l-10 141q-9 99 -15 202q-1 9 -1 28q0 90 33 175l5 20h-65h-32q-22 0 -39 4q-15 4 -26.5 13.5t-16.5 21.5q-3 8 -3 15q0 22 20 26q26 6 69 6z" />
    <glyph glyph-name="asciicircum" unicode="^" horiz-adv-x="550" 
d="M29 268l224 451h50l218 -451h-78l-165 359l-170 -359h-79z" />
    <glyph glyph-name="underscore" unicode="_" horiz-adv-x="529" 
d="M341 -33h25q8 0 20 0.5t29 -0.5q26 0 38 -3q12 -2 19 -10t7 -19q0 -12 -7 -20t-20 -9q-13 -2 -39 -2h-115q-58 -1 -226 -1q-10 0 -16 4.5t-6 12.5q0 5 3 11q8 15 25 24q13 6 43 10q53 6 105 6q38 0 75 -3q13 -1 40 -1z" />
    <glyph glyph-name="grave" unicode="`" horiz-adv-x="580" 
d="M390 606h-59q-37 29 -80.5 76t-61.5 74v10h105q16 -32 44.5 -76.5t51.5 -71.5v-12z" />
    <glyph glyph-name="a" unicode="a" horiz-adv-x="785" 
d="M337 361q0 -4 -1.5 -11t-2.5 -12l-12 -60q-25 -127 -27 -136q-4 -18 -4 -57q0 -50 31 -73.5t84 -23.5q62 0 138.5 30t144.5 81.5t105 112.5q5 6 11 6q11 0 20 -11.5t3 -20.5q-49 -74 -125.5 -133.5t-161.5 -93.5t-158 -34q-69 0 -116 32.5t-62 100.5l-8 26l-20 -18
q-33 -31 -41 -37q-35 -29 -76 -29q-63 0 -82 61q-7 25 -7 53q0 32 9 63q24 88 83 163q17 22 44 40q42 30 80 30q34 0 75 -24q5 3 11 9.5t11 10t11 3.5q7 0 19 -6q24 -13 24 -42zM124 285q-36 -36 -56 -85t-20 -88q0 -22 7 -35t21 -13q13 0 32 13q24 17 42 36q32 34 46 73.5
t30 109.5q1 3 1 10q-2 20 -22 18q-45 -3 -81 -39z" />
    <glyph glyph-name="b" unicode="b" horiz-adv-x="450" 
d="M59.5 985q17.5 8 36.5 8q23 0 42 -11t30 -31q45 -86 46 -159l1 -34q0 -225 -95 -425q-13 -28 -35 -64q-1 -3 -11 -20q-1 -3 -9 -16q35 -2 52 -5q15 -1 30 -10q36 -17 36 -59q-2 -47 -19 -80q-2 -5 -5 -10.5t-6 -13.5q41 0 102 21.5t117 57.5t85 76q3 5 14 1.5t18.5 -11
t2.5 -14.5q-36 -51 -97 -90.5t-130.5 -61t-132.5 -21.5q-19 0 -28 1q-26 1 -57 10q-62 16 -84 79q-18 50 -25 99q-18 111 -18 239q0 47 4 141q4 72 14 133.5t29 117.5q12 36 32 75l9 21q5 11 21 33q13 15 30.5 23zM106 931q-9 0 -16.5 -4.5t-11.5 -12.5q-9 -14 -18 -42
q-52 -155 -53 -296q-2 -18 -4 -62l-1 -44q-2 -58 -2 -87q0 -75 7 -141q0 -6 1 -12.5t2 -13.5q4 5 15 17.5t17 22.5l16 32q44 84 61 129q59 156 59 319q0 25 -1 37q-5 75 -38 134q-8 12 -12 16q-8 8 -21 8zM101 175q-18 0 -27.5 -11.5t-9.5 -29.5q0 -26 18 -52q8 -14 21 -14
t22 16q12 23 17 50q2 18 -6.5 28t-25.5 12q-3 1 -9 1z" />
    <glyph glyph-name="c" unicode="c" horiz-adv-x="600" 
d="M162 368q34 0 73 -18q39 -20 47 -55q3 -10 3 -24q0 -11 -3 -20q-2 -9 -8 -13.5t-13 -4.5q-11 0 -19 11q-12 17 -26 23.5t-35 4.5q-30 -1 -55 -29t-39 -70t-14 -84q0 -46 19 -75.5t57 -29.5q93 0 187.5 32.5t167 84.5t102.5 107q2 3 8 3q11 0 23 -7.5t7 -14.5
q-42 -64 -123.5 -124t-191 -99.5t-230.5 -41.5q-69 -1 -104 44.5t-35 117.5q0 80 39 157t103 110q29 15 60 15z" />
    <glyph glyph-name="d" unicode="d" horiz-adv-x="707" 
d="M236 923q9 -10 10 -26l11 -238q2 -52 8 -146l4 -71q2 -26 2 -79t6.5 -107t18.5 -127q11 -62 44 -97q19 -19 56 -19q48 0 112.5 29.5t122 76t84.5 93.5q9 15 24 15q8 0 13.5 -4.5t5.5 -13.5t-7 -20q-35 -57 -98 -112.5t-134.5 -90.5t-131.5 -35q-54 0 -88 30
q-66 59 -87 158l-9 44l-14 -12q-27 -39 -69 -68q-25 -18 -53 -18q-22 0 -42 11t-35 30q-22 30 -22 64q0 6 2 20q11 62 57 108t106 55q5 1 15 1l35 -1l1 19l-3 74q-4 73 -6 148q-2 122 -2 184v67q0 21 8 43q4 12 12.5 18.5t18.5 6.5q15 0 24 -10zM73 246.5
q-14 -21.5 -24 -51.5q-4 -16 -4 -20q0 -14 14 -25q11 -8 19 -8q10 0 26 10q46 29 77 92q3 6 5 21q4 37 -24 37q-23 0 -53 -20q-22 -14 -36 -35.5z" />
    <glyph glyph-name="e" unicode="e" horiz-adv-x="490" 
d="M191 384q30 0 54.5 -14t39.5 -39q13 -23 13 -53q0 -48 -36 -84q-68 -68 -155 -77q-3 0 -23 -2q3 -31 20 -56q12 -19 28 -28t39 -9q10 0 15 1q60 6 124.5 38t115.5 74t72 77q5 8 13 8t15.5 -7.5t7.5 -16.5q0 -6 -3 -11q-42 -65 -118 -119.5t-157.5 -85.5t-137.5 -31
q-68 0 -109 58q-40 56 -40 126q0 32 7 60q38 150 181 187q16 4 34 4zM134 286.5q-25 -23.5 -38.5 -57t-11.5 -67.5q60 5 104 33t56 65q1 5 1 13q0 20 -12 32t-32 12q-9 0 -14 -1q-28 -6 -53 -29.5z" />
    <glyph glyph-name="f" unicode="f" horiz-adv-x="420" 
d="M380 949q14 -28 18 -71q4 -66 -18 -147q-14 -49 -29 -79q-89 -215 -228 -375q-13 -15 -40 -42q-12 -12 -12 -27q-9 -127 -9 -254q0 -58 1 -87q3 -105 12 -212q2 -18 8 -40.5t13 -43.5q5 -22 18 -22q16 0 27 19q12 22 12 47q0 12 -3 24q-5 27 -12 48q-11 35 -16.5 70.5
t-10.5 83.5q-4 32 -4 72q0 66 67 77q65 10 107 33.5t75 67t72 121.5q3 5 9 5q9 0 17.5 -7.5t8.5 -16.5q0 -5 -2 -8q-17 -26 -29 -50q-30 -53 -55.5 -86.5t-71.5 -62.5t-119 -43q-12 -2 -17 -6t-5 -13q0 -5 1 -8q18 -102 29 -151q3 -15 11 -45l10 -45q3 -15 3 -28
q0 -54 -41 -112q-16 -25 -52 -33q-11 -3 -20 -3q-25 0 -45 21q-4 4 -21 22t-28 36t-14 34q-10 45 -15 92t-9 109q-4 93 -6 185q0 140 7.5 255t26.5 223q21 126 33.5 178t41 105t92.5 137q13 19 32 36.5t22 20.5q39 37 94 37q44 0 64 -41zM251 914q-49 -56 -78.5 -123.5
t-44.5 -147.5q-5 -21 -10 -58q-7 -40 -10 -55q-16 -82 -33 -243v-16q3 1 4.5 2l1.5 1q4 3 6.5 6.5t5.5 5.5q134 158 225 373q37 90 44 182q1 8 1 23q0 38 -15 65q-13 21 -30 21q-6 0 -15 -3q-31 -9 -52 -33z" />
    <glyph glyph-name="g" unicode="g" horiz-adv-x="520" 
d="M202 291l3 -31q6 -59 13.5 -118.5t18.5 -110.5l27 -153q25 16 126 144t137 188q8 12 17 12q5 0 9 -3q22 -12 15 -24q-41 -71 -74.5 -116t-82.5 -103q-67 -76 -124 -155q-14 -17 -13 -40q2 -22 4.5 -38.5t4.5 -27.5q11 -57 11 -93q0 -17 -3 -35q-9 -47 -24 -80
q-7 -18 -31 -44q-21 -20 -49 -20q-17 0 -34 7q-23 9 -36 26.5t-13 41.5q-1 26 7 58q9 34 25 67t40 72q3 5 9 13t9 15.5t1 14.5l-9 64q-17 122 -18 128q-8 58 -13 84.5t-8.5 34t-11.5 20.5q-12 -2 -18 -5q-15 -6 -31 -6q-36 0 -64 26t-28 68q0 41 21.5 72t59.5 51q8 4 20.5 6
t19.5 3q17 35 48 30q35 -4 39 -43zM86 190q-2 -6 -2 -8q0 -11 12 -11q7 0 12 5q11 9 11 18q1 8 -1 20.5t-3 18.5q-22 -17 -29 -43zM163 -417q-11 -30 -11 -52q0 -28 21 -32h1q14 0 16 19q6 28 6 60q0 30 -6 60q-16 -25 -27 -55z" />
    <glyph glyph-name="h" unicode="h" horiz-adv-x="600" 
d="M237 909q39 0 66 -38t25 -89q0 -56 -34 -154.5t-82 -194t-84 -139.5q-16 -19 -16 -47q0 -40 -1 -53q0 -6 -0.5 -15t-0.5 -26v-27q13 15 18 18q34 30 53 44q10 7 20 7q14 0 29 -12q21 -16 40 -55q15 -31 40 -56q20 -20 54 -20q40 0 90 26.5t92.5 64t60.5 67.5q7 11 17 11
q8 0 15 -6.5t7 -15.5q0 -6 -4 -13q-27 -44 -87 -90.5t-128 -77t-119 -30.5q-44 0 -66 25q-34 40 -51 94l-9 26q-5 -5 -15.5 -14t-16.5 -17q-3 -4 -20 -26.5t-28 -45.5q-13 -27 -37 -27q-17 0 -34 11q-28 19 -30 53q-2 166 -2 248v58q2 88 17 223q11 100 63 197q37 67 91 97
q32 13 44 16t23 3zM173.5 790.5q-11.5 -19.5 -22.5 -45.5q-36 -93 -39 -228v-54v-122l6 4q33 44 69.5 126t61.5 162.5t25 121.5q0 30 -7 52q-12 34 -31 34q-13 0 -33 -17q-18 -14 -29.5 -33.5z" />
    <glyph glyph-name="i" unicode="i" horiz-adv-x="450" 
d="M205 509q0 -16 -13 -30t-30 -14q-8 0 -15 3q-18 8 -18 26q0 15 13 28t31 13q6 0 10 -1q22 -4 22 -25zM132 356q0 -4 -2 -14q-3 -19 -15 -52q-35 -82 -40 -155q0 -35 2 -55t13 -38.5t34 -30.5q39 -21 76 -21q67 0 130 58.5t127 161.5q3 4 8 4q11 0 22 -9t7 -16
q-150 -250 -316 -250q-79 0 -128 42t-56 104q-4 25 -4 55q0 123 79 223q18 24 33 24q9 0 16 -6q14 -8 14 -25z" />
    <glyph glyph-name="j" unicode="j" horiz-adv-x="340" 
d="M77.5 493.5q9.5 -9.5 10.5 -21.5q2 -11 -11 -24.5t-26 -13.5q-10 0 -17.5 9.5t-8.5 23.5q0 16 9 26t22 10q12 0 21.5 -9.5zM74.5 329q10.5 -8 16.5 -22q10 -27 10 -50v-60v-119l-1 -28q102 36 165 81.5t82 78.5q3 4 9 4q10 0 21.5 -8.5t8.5 -13.5q-27 -44 -93.5 -87.5
t-180.5 -100.5q-9 -4 -12.5 -12t-6.5 -23q-21 -141 -37 -218q-13 -76 -66 -135q-35 -40 -82 -40t-68.5 24.5t-21.5 61.5q0 47 24 95q48 95 132 179q18 18 20 48q6 150 10 223q2 25 7 53.5t6 37.5q2 17 11 28t25 11q11 0 21.5 -8zM-64.5 -174q-36.5 -50 -58.5 -99
q-14 -30 -14 -60q0 -20 7.5 -30.5t21.5 -10.5q4 0 14 2q11 3 19 13q27 29 34 61q12 50 17 86q4 21 8 65l2 23q-14 0 -50.5 -50z" />
    <glyph glyph-name="k" unicode="k" horiz-adv-x="510" 
d="M206 869q11 -30 11 -83q-3 -126 -49 -240q-22 -50 -34 -75l-20 -44l-7 -17l23 7q6 1 22.5 4t30.5 3q33 -1 54 -22t21 -51q0 -19 -7 -34q-8 -20 -21 -34q-16 -20 -50 -58l-25 -29l-29 -32q4 -10 56 -20.5t115 -10.5q75 0 135 18.5t86 60.5q3 5 13 1t18 -11.5t5 -12.5
q-38 -62 -128.5 -86t-198.5 -24q-58 0 -124 7l3 -29l4 -36q2 -12 4 -36q0 -19 -6 -35q-7 -17 -23 -17q-7 0 -15 3q-25 10 -30 38q-6 29 -16 87q-17 99 -30 264q0 10 -2 28q-10 124 -10 187q0 21 2 65q4 62 9 102.5t17 79.5q23 70 60 107q27 27 60 27q19 0 41 -11
q26 -13 35 -41zM81 825q-21 -52 -19 -126q0 -68 3 -139q2 -42 8 -134q4 0 6 -1q1 3 26.5 61.5t42.5 105.5q26 71 33 180q1 9 1 26q0 29 -8 53q-4 13 -15.5 20.5t-24.5 7.5q-18 0 -30 -14t-23 -40zM156 363q-20 0 -39.5 -5.5t-29.5 -14.5q-5 -5 -5 -11l4 -78q26 16 59 52
t38 53q-11 4 -27 4z" />
    <glyph glyph-name="l" unicode="l" horiz-adv-x="381" 
d="M262 983q26 0 41 -22q17 -25 17 -48q0 -43 -7 -78q-8 -37 -52.5 -169.5t-91.5 -254t-69 -149.5q-18 -23 -21 -55q-4 -28 -4 -52q0 -23 3.5 -36.5t8 -24t6.5 -17.5q11 -33 48 -33q35 0 86 28.5t97 69t66 73.5q3 4 8 4t11 -3t10 -8t4 -13q0 -7 -4 -13q-61 -75 -138.5 -129
t-141.5 -54q-63 0 -100 58q-26 41 -33 110q-3 26 -4 46t-2 35l-2 31q5 160 31.5 300.5t74 242t110.5 143.5q13 9 30 15q9 3 18 3zM102 361l-3 -28q16 29 54 135t74 217.5t42 137.5q6 29 8 69v17.5t-1 16t-3 4.5q-5 0 -26 -21q-105 -105 -145 -548z" />
    <glyph glyph-name="m" unicode="m" horiz-adv-x="940" 
d="M20 337q8 -13 16.5 -31t11.5 -25l11 -28q5 8 10.5 17t11.5 18q25 36 34 46q27 29 59 29q17 0 32.5 -10t27.5 -28q15 -24 27.5 -54t15.5 -37q5 -13 10 -34l6 -21q9 9 12 14q7 9 19 29l29 42q20 27 36 41q26 24 56 24q35 0 60 -31q14 -18 24 -43q7 -15 20 -54
q27 -84 96 -181q14 -18 22 -26q15 -14 34 -14q11 0 29 8q31 15 75.5 57t85 89.5t56.5 75.5q4 7 11 7q11 0 20.5 -10.5t5.5 -17.5q-47 -70 -99 -128t-117 -113q-37 -30 -84 -30q-29 0 -57 10.5t-48 28.5q-53 46 -86 105.5t-50 132.5q-2 11 -3.5 20.5t-4 16t-7.5 16.5
q-22 -18 -41 -41t-51 -65q-4 -6 -34 -46l-15 -22q-13 -19 -34 -19q-16 0 -27 10q-31 24 -34 56l-3 33q-1 11 -2.5 32t-3.5 36q-4 41 -18 66q-11 -7 -23.5 -22.5t-33.5 -45.5q-17 -25 -19 -28q-6 -7 -6 -20q0 -5 2 -17q5 -18 14 -61q3 -15 3 -29q0 -32 -14.5 -51.5
t-34.5 -19.5q-17 0 -32 15.5t-23 46.5l-60 210l-15 50q-1 5 -2.5 9t-2.5 9q-2 10 -2 15q0 20 10.5 32.5t25.5 12.5q17 0 31 -13q23 -21 37 -44z" />
    <glyph glyph-name="n" unicode="n" horiz-adv-x="630" 
d="M-34 397q11 0 19 -9q13 -13 20 -27q20 -34 31 -72t20 -89l4 -27l25 29q8 10 15 18t13 15q39 42 76 61q24 12 47 12q43 0 72 -38q34 -41 34 -95q0 -8 -2 -26q-3 -15 -11 -45q-1 -7 -8 -34q-12 -56 -16 -89q-1 -4 -1 -10q0 -18 16 -18q6 0 15 3q12 3 25.5 10t17.5 9
q57 27 112.5 75.5t96.5 96t54 70.5q3 5 10 5q11 0 20.5 -9.5t4.5 -20.5q-7 -16 -54.5 -69.5t-109.5 -109.5t-116 -86q-45 -25 -87 -25q-48 0 -77 26t-29 70q0 27 5.5 52.5t17.5 61.5q12 31 22 63q3 12 3 23q0 14 -5 31q-9 20 -23 20q-8 0 -15 -3q-25 -12 -40 -25
q-50 -41 -93 -99q-7 -12 -9 -26q-2 -9 -4 -23.5t-4 -23.5q-2 -15 -11.5 -23.5t-24.5 -8.5q-17 0 -30 16q-21 28 -24 69l-3 38q-6 74 -10 107q-1 13 -11 62l-6 27q-1 6 -2.5 13t-2.5 15q0 21 17 29q10 4 16 4z" />
    <glyph glyph-name="o" unicode="o" horiz-adv-x="570" 
d="M120 330q16 0 29 -7q22 -11 22 -34q0 -10 -5.5 -16t-15.5 -11q-35 -14 -59 -57q-30 -55 -30 -106q0 -29 15.5 -47t44.5 -21q18 -2 38 7t46 27l-27 15q-37 24 -37 62q0 9 1 14q10 48 63 59q10 3 20 3q33 0 56 -31q24 -30 24 -73l24 -1q83 0 155 28.5t93 68.5q2 4 13 1.5
t19.5 -9.5t4.5 -13q-27 -49 -113 -87.5t-190 -46.5q-24 -1 -33 -19q-47 -81 -144 -94q-6 -1 -19 -1q-39 0 -74 17.5t-56.5 52t-21.5 80.5q0 103 64 185q27 34 66 49q15 5 27 5z" />
    <glyph glyph-name="p" unicode="p" horiz-adv-x="540" 
d="M62 358q3 -9 6 -21.5t5 -19.5q7 3 14 8q8 4 19.5 10t19.5 8q16 6 32 6q33 0 56 -22.5t23 -57.5q0 -31 -16 -61q-29 -53 -73 -84l-32 -26q7 -23 21.5 -43t28.5 -24q22 -7 51 -7q57 0 124 26.5t123 70t83 89.5q4 7 11 7q10 0 20 -11t6 -17q-24 -40 -88 -89t-141.5 -82.5
t-141.5 -33.5q-45 0 -70 13.5t-38.5 27t-15.5 13.5q0 -5 0.5 -11.5t-0.5 -14.5l-3 -72q-1 -24 -2 -60.5t-4 -85.5q-2 -25 -7.5 -54.5t-7.5 -37.5q-3 -14 -14 -22.5t-25 -8.5q-15 0 -25 9q-15 11 -20 29q-4 13 -4 29q0 12 1 21.5t2 16.5q4 22 4 34q0 45 2 137l3 137
q0 38 1 57q0 58 1 87q1 18 -5 50q-6 30 -6 44q0 9 1 14q2 14 9 26q14 24 38 21q23 -1 34 -25zM127 279q-13 0 -23.5 -13t-16 -30.5t-3.5 -28.5q17 -2 31.5 6.5t23 22t8.5 25.5q0 9 -7 14q-5 4 -13 4z" />
    <glyph glyph-name="q" unicode="q" horiz-adv-x="640" 
d="M214 363q12 0 20.5 -8t10.5 -22q10 -92 10 -139q0 -29 -2 -85l-1 -40v-28q30 -8 65 -8q59 0 124 20.5t120.5 61t85.5 95.5q3 5 13.5 1.5t18 -11t3.5 -14.5q-42 -66 -109 -110.5t-140.5 -66.5t-140.5 -22q-14 0 -36 2q-7 0 -12 1q-2 -12 -2 -17q2 -146 2 -220
q1 -32 -2 -71q-1 -16 -9.5 -24t-21.5 -8t-25 8.5t-18 23.5q-19 44 -20 81l-3 61q-1 24 -4 77.5t-4 96.5q-1 14 -5.5 21t-16.5 12q-32 14 -55 28.5t-41 35.5q-42 50 -42 110q0 26 14.5 51t38.5 40.5t52 15.5q16 0 33 -6q10 -3 23.5 -9l22.5 -10q2 6 4 16t4 16q1 3 7 14.5
t14 18.5q11 11 24 11zM65.5 237q-7.5 -12 -7.5 -28q0 -67 54 -109q3 -2 22 -13q4 4 4 6q10 88 14 132v3q0 7 -4 13q-7 7 -19 11.5t-25 4.5q-10 0 -18 -3q-13 -5 -20.5 -17z" />
    <glyph glyph-name="r" unicode="r" horiz-adv-x="488" 
d="M111.5 482q9.5 -7 12.5 -20q2 -18 2 -26q0 -32 9 -47.5t43 -20.5q32 -4 45 -6.5t18 -5.5t8 -4q23 -11 23 -41q0 -21 -8.5 -47.5t-26.5 -69.5q-18 -44 -28 -75t-10 -56q0 -50 38 -50q33 0 85 33.5t101 80.5t71 81q3 4 8 4q11 0 21.5 -11.5t3.5 -18.5q-62 -83 -141 -151
t-161 -68q-7 0 -23 2q-43 6 -65 40t-22 80q0 32 5.5 54t18.5 61l14 40q5 17 5 26q0 27 -27 40q-3 2 -10 2q-12 0 -21.5 -14.5t-24.5 -45.5q-20 -45 -36 -66q-4 -5 -11 -5q-9 0 -17 6.5t-8 15.5q0 5 3 9l12 21q16 26 26 48t17 57q2 7 2 25q0 15 -1 25.5t-2 17.5q-3 21 -3 40
q0 23 7 35t26 12q12 0 21.5 -7z" />
    <glyph glyph-name="s" unicode="s" horiz-adv-x="600" 
d="M102 426q3 -16 3 -48q0 -18 12 -39q18 -22 54 -70q44 -59 65 -132q1 -7 6 -17q0 1 3 -5q307 0 362 95q5 9 15 9q11 0 20 -9t5 -16q-32 -54 -126 -85.5t-272 -51.5q0 -30 -2.5 -53.5t-13.5 -49.5q-10 -33 -37.5 -52t-58.5 -19t-52 19.5t-21 55.5q0 9 1 14q9 49 48 81
q13 10 13 23q0 7 -3 14q-27 81 -64 129q-15 -29 -20 -37q-8 -11 -20 -11q-8 0 -15 5.5t-7 12.5q0 6 5 13q6 8 10.5 29t4.5 40q0 18 -5 28q-21 42 -27 63q-4 18 -4 27q0 27 15 52q10 18 26.5 27t34.5 7q36 -6 45 -49zM129 -7.5q-7 -8.5 -9 -26.5v-4q0 -8 4 -12.5t10 -4.5
q5 0 9 5t4 13q0 18 -3 38q-8 0 -15 -8.5z" />
    <glyph glyph-name="t" unicode="t" horiz-adv-x="600" 
d="M104 752q13 0 23 -9t13 -25q1 -4 1 -12q0 -10 -1 -17t-2 -11l-18 -73l33 19q88 57 181 78q13 3 29 3q11 0 16 -1q16 -1 26.5 -13.5t10.5 -30.5q0 -20 -19 -36q-31 -23 -62 -50q-18 -15 -26 -15q-12 0 -25 26q-74 -35 -171 -98q-8 -5 -11 -12.5t-5 -19.5q-13 -88 -13 -205
q0 -33 2 -97l2 -30q4 -75 11 -128.5t29 -98.5t65 -57q18 -5 40 -5q62 0 120.5 46.5t106.5 112t113 168.5l30 47q7 11 19 11t19.5 -9t1.5 -18l-25 -41q-75 -123 -129.5 -198t-125 -128t-151.5 -53q-18 0 -38 3q-68 10 -116.5 89.5t-61.5 187.5q-14 106 -14 204q0 52 5 117v15
l-20 -9q-44 -30 -67 -44q-15 -9 -27 -9q-11 0 -25 8q-5 3 -5 8q0 6 6 15.5t13 18.5q23 30 46 50q34 30 52 44l26 22q19 15 22 38q13 85 26 133t41 76q13 13 29 13z" />
    <glyph glyph-name="u" unicode="u" horiz-adv-x="710" 
d="M50 349q11 0 19.5 -6.5t11.5 -18.5q4 -18 4 -27q0 -5 -2 -17q-8 -56 -8 -106l1 -28q1 -57 21 -57q16 0 46 33.5t94 117.5l23 30q12 14 40 34q11 10 26 10q22 0 32 -25q10 -33 13 -59q9 -107 40.5 -165t80.5 -58q46 0 103 50.5t122 152.5q5 6 12 6q11 0 20.5 -9t4.5 -18
q-74 -121 -147.5 -180t-137.5 -59q-51 0 -92.5 36t-67 101t-31.5 151q2 3 -24 -34l-16 -24q-60 -87 -67 -97q-29 -41 -89 -38q-29 3 -49 20q-25 20 -38.5 60.5t-13.5 85.5q0 41 12 76t34 53q11 9 23 9z" />
    <glyph glyph-name="v" unicode="v" horiz-adv-x="651" 
d="M67 314q8 -10 10 -25q3 -17 3 -52q0 -20 -2 -64q-2 -62 -2 -95q0 -28 8 -58q5 -21 16 -21q7 0 19 12q25 29 33 46q7 16 28 69l16 41q8 21 16 34q13 22 36 22q12 0 25 -7q8 -4 54.5 -28t97.5 -40t92 -16q91 0 141 78q7 12 20 12q9 0 15.5 -6t6.5 -14q0 -5 -3 -10
q-30 -48 -78 -72.5t-109 -24.5q-57 0 -124 21.5t-138 62.5q-11 -30 -14 -42q-20 -75 -61 -139q-14 -21 -40 -43q-21 -17 -47 -17q-25 0 -45 16q-23 17 -40 46q-37 68 -37 142l1 20q4 59 10 87q5 25 21 55q13 24 37 24q7 0 11 -1q15 -3 23 -13z" />
    <glyph glyph-name="w" unicode="w" horiz-adv-x="770" 
d="M42 350q20 0 29 -19q8 -16 8 -33q0 -18 -2 -54q-2 -54 -2 -79q0 -60 5 -103q1 -9 5.5 -19t10.5 -19q7 -13 19 -13q11 0 20 12l6 13q13 41 13 76q0 15 -1 23q-1 18 -1 53q0 8 4 20q4 10 12 16t17 6q14 0 25 -14q10 -13 15 -31q4 -15 5 -20t3.5 -14t5.5 -15q11 -30 22 -48
q14 -21 33 -21q14 0 29 12q28 24 36 70q-38 24 -54 56q-14 26 -14 49q0 21 12.5 34t32.5 13q14 0 24 -5q32 -14 39 -46q4 -17 6 -52q1 -8 1 -25q23 -12 72.5 -20t102.5 -8q71 0 125.5 16t71.5 51q3 5 13.5 1.5t18 -11t4.5 -13.5q-26 -45 -94 -65t-152 -20q-47 0 -88.5 5
t-62.5 13l-18 6q-13 -31 -17 -41q-38 -77 -118 -77q-37 0 -64 29l-17 18q-3 -7 -6 -15.5t-7 -17.5q-13 -28 -21 -37q-19 -22 -43 -22q-27 0 -46 25q-47 57 -53 113q-1 10 -7 56t-6 88l1 25q2 25 8 41q4 13 16 27q10 10 23 10zM333 250q0 -10 6.5 -21t22.5 -27q3 12 3 23
q0 36 -29 39q-3 -7 -3 -14z" />
    <glyph glyph-name="x" unicode="x" horiz-adv-x="620" 
d="M48 324q12 -19 22 -45q6 -16 13 -40l10 -31l13 -35l16 18l28 31l44 48q9 9 18 13q6 3 12 3q11 0 18 -7q8 -8 8 -18q0 -6 -3 -12q-2 -6 -13 -21q-26 -33 -76 -99q-3 -3 -13 -18q21 -33 64 -49.5t99 -16.5q61 0 123.5 19.5t115 57.5t81.5 90q3 5 14 2t18.5 -11t3.5 -14
q-65 -99 -171.5 -150t-221.5 -51q-104 0 -187 40l-16 -24l-21 -30q-15 -22 -28 -22q-5 0 -10 3q-11 6 -11 21q0 11 5 22q10 22 34 66q1 2 4 9l-45 76q-28 47 -35 114q-2 24 4 47q4 16 15.5 25.5t29.5 9.5q23 0 38 -21z" />
    <glyph glyph-name="y" unicode="y" horiz-adv-x="690" 
d="M332 362l10 -37q19 -72 28 -116q16 -76 30 -158l15 -79l4 -16q16 10 76 58t119 103t84 95q6 9 12 9q10 0 18.5 -13.5t5.5 -18.5q-57 -92 -278 -257l-18 -14q-12 -10 -10 -28q13 -104 13 -168q0 -27 -1 -41q-3 -68 -35 -122q-35 -55 -87 -55q-16 0 -34 6q-38 12 -59.5 39
t-21.5 64q0 9 1 14q6 35 20 72q15 35 35 67.5t53 79.5q11 14 11 27q0 3 -2 11q-13 67 -37 199q-6 35 -14 103l-5 36l-3 31l-7 1l-30 -47q-43 -62 -91 -91q-25 -15 -51 -15q-27 0 -49.5 16.5t-32.5 46.5q-9 26 -9 51t9 57q11 39 31 81q7 15 26 26q11 7 19 7t18 -8
q10 -7 10 -20q0 -4 -2 -14q-7 -29 -19 -87q-6 -36 -6 -54l-1 -11q0 -20 13 -25q6 -3 11 -3q11 0 26 13q39 29 80 88q26 40 38 61q8 12 15 34q10 34 34 34q28 0 38 -32zM279 -277q-25 -43 -31 -86q-2 -24 4 -42q4 -19 21 -31.5t36 -12.5q29 0 44 39q9 21 9 45q0 12 -1 18
q-8 60 -14 91q-5 36 -10 59q-3 0 -8 3q-30 -52 -50 -83z" />
    <glyph glyph-name="z" unicode="z" horiz-adv-x="670" 
d="M270 218q0 -42 -29 -87q-4 -6 -31 -43q88 -63 105 -178q12 0 16 1q117 33 206 119.5t140 179.5q4 8 15 8q12 0 21 -8t3 -18q-46 -77 -85 -128t-113.5 -105.5t-190.5 -94.5q0 -4 -0.5 -10t0.5 -14v-62v-32q-7 -120 -105 -220q-25 -26 -58 -38.5t-68 -12.5q-31 0 -60 9
t-52 25q-24 16 -38 46.5t-14 64.5q0 22 5 37q13 41 35 74q60 86 162 123q25 10 61 22q2 9 1 12q-20 95 -71 157q-14 19 -14 32q0 16 16 32l16 15q12 9 24 23q21 25 34 50q8 17 6 38q-1 26 -10.5 38.5t-25.5 12.5q-26 0 -61 -27.5t-66 -69.5q-7 -11 -19 -11q-8 0 -14.5 6
t-6.5 15q0 6 2 9q32 56 80 95t91 39q27 0 49 -18.5t35 -56.5q9 -25 9 -49zM201 -170q-4 0 -7 -1q-113 -32 -176 -108q-20 -25 -31.5 -49t-11.5 -52q1 -38 20.5 -59t55.5 -21q42 0 72.5 21.5t53.5 59.5q18 29 25 62t10 78q2 20 2 29q0 22 -7 40h-6z" />
    <glyph glyph-name="braceleft" unicode="{" horiz-adv-x="561" 
d="M391 742q14 -6 25 -15q12 -9 18.5 -20t6.5 -22q0 -8 -4.5 -14t-13.5 -8q-31 -8 -49 -27t-27 -41t-20 -61q-4 -13 -8.5 -31.5t-6.5 -27.5q-20 -74 -91 -101q-5 -2 -10 -4.5t-10 -4.5l27 -27q72 -65 76 -144q4 -47 4 -105q0 -60 70 -74q6 -1 15.5 -1.5t15.5 -2.5
q7 -2 16 -8t10 -10q1 -2 1 -6q0 -9 -8 -21q-3 -5 -19 -7q-7 -1 -21 -1q-86 0 -145.5 51t-79.5 132q-7 31 -9 77l-3 38v22q-2 22 -12 35t-34 24q-4 2 -9.5 3.5t-10.5 4.5q-27 15 -33 38q-2 8 -2 11q0 9 4.5 15t13.5 7q27 4 43 18t23.5 29t21.5 50l13 31q26 67 49 112
q29 58 79 80q35 13 70 12q10 0 24 -6z" />
    <glyph glyph-name="bar" unicode="|" horiz-adv-x="539" 
d="M234 832h72v-998h-72v998zM172 622zM170 896zM234 -268z" />
    <glyph glyph-name="braceright" unicode="}" horiz-adv-x="495" 
d="M66 742q36 0 76.5 -18.5t66.5 -47.5q39 -45 49 -93q4 -22 5 -33q5 -30 7 -41q16 -64 28 -96q6 -19 13.5 -24t29.5 -10q22 -4 34.5 -13t17.5 -25q2 -5 2 -13q0 -23 -28 -26q-43 -7 -54 -49q-2 -7 -9.5 -34.5t-10.5 -53.5q-10 -124 -120 -179q-6 -4 -18 -10.5t-21 -10.5
q-16 -8 -28 -9q-23 -3 -41 18q-11 12 -11 26q0 7 5 17q5 9 12 13q28 22 41 53.5t23 80.5q4 24 5 36l3 23q4 42 18 73t43 52q-82 74 -82 166q0 19 3 38l4 22q6 28 6 43q0 22 -10 32.5t-37 16.5q-20 3 -38 10q-10 4 -18 12t-11 19q-1 3 -1 9q0 16 17 22q12 4 29 4z" />
    <glyph glyph-name="asciitilde" unicode="~" horiz-adv-x="550" 
d="M259 288q-18 8 -31.5 13.5t-24.5 8.5t-21 4t-21 1q-14 0 -28.5 -4.5t-29 -12.5t-28 -18.5t-25.5 -23.5v79q49 53 121 53q14 0 26 -1t25.5 -4.5t30 -9.5t39.5 -16q18 -8 31.5 -13t25 -8t21 -4.5t20.5 -1.5q14 0 28.5 4.5t29 12.5t28 19t25.5 23v-79q-48 -53 -121 -53
q-14 0 -26.5 1.5t-26 4.5t-29.5 9t-39 16zM221 622z" />
    <glyph glyph-name="uni007F" 
 />
    <glyph glyph-name="exclamdown" unicode="&#xa1;" horiz-adv-x="269" 
d="M104 330h58l25 -512h-108zM196 478q0 -33 -16 -50t-46 -17t-46 17t-16 50q0 32 16.5 50t45.5 18t45.5 -17.5t16.5 -50.5z" />
    <glyph glyph-name="cent" unicode="&#xa2;" horiz-adv-x="571" 
d="M476 117q-55 -28 -124 -30v-97h-67v100q-100 15 -147 82.5t-47 189.5q0 248 194 278v84h68v-80q74 -3 132 -29l-26 -73q-70 26 -119 26q-82 0 -120.5 -51t-38.5 -154q0 -104 39 -151.5t116 -47.5q43 0 76 8.5t64 21.5v-77z" />
    <glyph glyph-name="sterling" unicode="&#xa3;" horiz-adv-x="571" 
d="M334 723q93 0 177 -41l-31 -70q-82 38 -144 38q-57 0 -87 -29.5t-30 -95.5v-139h204v-66h-204v-104q0 -47 -15.5 -80.5t-52.5 -55.5h384v-80h-503v74q99 23 99 141v105h-96v66h96v148q0 88 55 138.5t148 50.5z" />
    <glyph glyph-name="currency" unicode="&#xa4;" horiz-adv-x="571" 
d="M90 353q0 57 35 110l-66 68l49 47l66 -64q49 35 112 35q59 0 110 -35l67 64l48 -47l-64 -67q35 -54 35 -111q0 -63 -35 -112l63 -66l-47 -47l-67 64q-50 -34 -110 -34q-64 0 -112 35l-66 -64l-48 47l65 66q-35 53 -35 111zM157 353q0 -54 37.5 -91.5t91.5 -37.5t92 37
t38 92q0 56 -38 93.5t-92 37.5t-91.5 -38t-37.5 -93z" />
    <glyph glyph-name="yen" unicode="&#xa5;" horiz-adv-x="571" 
d="M285 365l179 349h92l-201 -375h124v-64h-151v-82h151v-64h-151v-129h-86v129h-151v64h151v82h-151v64h122l-199 375h93z" />
    <glyph glyph-name="brokenbar" unicode="&#xa6;" horiz-adv-x="550" 
d="M239 760h73v-381h-73v381zM239 140h73v-381h-73v381z" />
    <glyph glyph-name="section" unicode="&#xa7;" horiz-adv-x="513" 
d="M67 395q0 42 21 75t58 51q-36 20 -56 47t-20 68q0 60 50.5 94.5t146.5 34.5q45 0 82 -7t89 -27l-27 -67q-47 19 -80.5 26t-69.5 7q-56 0 -82.5 -14.5t-26.5 -44.5q0 -27 28 -47.5t104 -47.5q89 -33 126 -70t37 -90q0 -88 -75 -133q74 -39 74 -110q0 -69 -57.5 -107
t-160.5 -38t-169 33v75q42 -19 88.5 -30t84.5 -11q62 0 96 18t34 53q0 30 -26 49t-103 49q-96 36 -131 72.5t-35 91.5zM142 405q0 -25 13 -43.5t43 -35.5t109 -47q64 37 64 91q0 40 -34 66.5t-123 54.5q-32 -9 -52 -33t-20 -53z" />
    <glyph glyph-name="dieresis" unicode="&#xa8;" horiz-adv-x="580" 
d="M149 681q0 26 13.5 37.5t33.5 11.5q19 0 33 -11.5t14 -37.5t-14 -38t-33 -12q-20 0 -33.5 12t-13.5 38zM337 681q0 26 13.5 37.5t32.5 11.5t33 -11.5t14 -37.5t-14 -38t-33 -12t-32.5 12t-13.5 38z" />
    <glyph glyph-name="copyright" unicode="&#xa9;" horiz-adv-x="832" 
d="M436 515q-58 0 -91 -41.5t-33 -116.5q0 -77 28.5 -118t94.5 -41q46 0 105 23v-64q-29 -13 -53 -18.5t-56 -5.5q-94 0 -145.5 58.5t-51.5 165.5q0 102 54 162.5t147 60.5q63 0 123 -30l-29 -61q-52 26 -93 26zM49 357q0 98 48.5 183t134 134.5t184.5 49.5q98 0 183.5 -49
t134.5 -134t49 -184q0 -96 -47.5 -180.5t-132.5 -135.5t-187 -51q-101 0 -186.5 50.5t-133 135t-47.5 181.5zM102 357q0 -84 42 -157t115 -115t157 -42t157 42t115 115t42 157t-42 156.5t-115 115t-157 42.5t-156.5 -42t-115 -115t-42.5 -157z" />
    <glyph glyph-name="ordfeminine" unicode="&#xaa;" horiz-adv-x="356" 
d="M261 389l-12 42q-46 -48 -114 -48q-47 0 -75 24.5t-28 74.5t38.5 76t119.5 29l56 2v22q0 30 -19 44.5t-52 14.5q-49 0 -101 -26q-13 30 -22 49q60 29 125 29t98 -27t33 -86v-220h-47zM96 482q0 -48 54 -48q96 0 96 87v23l-48 -2q-54 -2 -78 -16t-24 -44z" />
    <glyph glyph-name="guillemotleft" unicode="&#xab;" horiz-adv-x="583" 
d="M265 479q11 0 19.5 -7.5t8.5 -18.5q0 -14 -13 -28q-29 -35 -79 -75q-19 -16 -19 -30q0 -13 17 -30q71 -70 71 -102q0 -17 -19 -17q-20 0 -39 17l-20 18q-46 43 -69 68.5t-23 45.5q0 10 7 17q70 77 132 132q13 10 26 10zM455 479q11 0 19.5 -7.5t8.5 -18.5q0 -14 -13 -28
q-29 -35 -79 -75q-19 -16 -19 -30q0 -13 17 -30q71 -70 71 -102q0 -17 -19 -17q-20 0 -39 17l-20 18q-46 43 -69 68.5t-23 45.5q0 10 7 17q70 77 132 132q13 10 26 10z" />
    <glyph glyph-name="logicalnot" unicode="&#xac;" horiz-adv-x="571" 
d="M520 388v-260h-71v189h-399v71h470z" />
    <glyph glyph-name="uni00AD" unicode="&#xad;" horiz-adv-x="321" 
d="M40 229v78h242v-78h-242z" />
    <glyph glyph-name="registered" unicode="&#xae;" horiz-adv-x="832" 
d="M355 373h50q40 0 61.5 19.5t21.5 51.5q0 36 -20 51.5t-64 15.5h-49v-138zM565 446q0 -41 -21 -70.5t-57 -43.5l116 -194h-86l-100 173h-62v-173h-76v437h128q82 0 120 -32t38 -97zM49 357q0 98 48.5 183t134 134.5t184.5 49.5q98 0 183.5 -49t134.5 -134t49 -184
q0 -96 -47.5 -180.5t-132.5 -135.5t-187 -51q-101 0 -186.5 50.5t-133 135t-47.5 181.5zM102 357q0 -84 42 -157t115 -115t157 -42t157 42t115 115t42 157t-42 156.5t-115 115t-157 42.5t-156.5 -42t-115 -115t-42.5 -157z" />
    <glyph glyph-name="macron" unicode="&#xaf;" horiz-adv-x="339" 
d="M246 302l32 1q11 0 16 -1q14 -2 26 -10q12 -9 12 -22q0 -8 -5 -14.5t-14 -10.5q-10 -4 -33 -6l-172 -15q-20 0 -36 4q-10 2 -16.5 7.5t-5.5 14.5q0 7 4 14.5t10 10.5q20 14 41 15q26 4 59 6.5t47 3.5l35 3v-1z" />
    <glyph glyph-name="degree" unicode="&#xb0;" horiz-adv-x="428" 
d="M60 570q0 66 45 110t109 44q65 0 109.5 -45t44.5 -109t-45 -108.5t-109 -44.5q-63 0 -108.5 44t-45.5 109zM120 570q0 -39 28 -66.5t67 -27.5q40 0 66.5 28t26.5 66q0 39 -27 66.5t-66 27.5t-67 -27t-28 -67z" />
    <glyph glyph-name="plusminus" unicode="&#xb1;" horiz-adv-x="571" 
d="M321 391h199v-71h-199v-206h-72v206h-199v71h199v207h72v-207zM50 0v71h470v-71h-470z" />
    <glyph glyph-name="uni00B2" unicode="&#xb2;" horiz-adv-x="350" 
d="M306 286h-282v54l115 112q62 60 79.5 87.5t17.5 61.5q0 32 -18.5 48t-48.5 16t-54.5 -11.5t-50.5 -31.5l-35 46q65 55 141 55q64 0 100.5 -32t36.5 -86q0 -22 -6 -41.5t-18.5 -39.5t-33 -42.5t-138.5 -133.5h195v-62z" />
    <glyph glyph-name="uni00B3" unicode="&#xb3;" horiz-adv-x="350" 
d="M308 613q0 -74 -74 -102q87 -21 87 -102q0 -62 -45 -96.5t-128 -34.5q-74 0 -131 28v63q69 -34 132 -34q100 0 100 76q0 69 -110 69h-57v55h57q50 0 73.5 19t23.5 51q0 29 -19 45t-51 16q-51 0 -111 -38l-36 46q36 27 71 38t75 11q66 0 104.5 -29.5t38.5 -80.5z" />
    <glyph glyph-name="acute" unicode="&#xb4;" horiz-adv-x="580" 
d="M189 618q19 23 47.5 66.5t47.5 81.5h106v-10q-21 -31 -66.5 -78.5t-76.5 -71.5h-58v12z" />
    <glyph glyph-name="mu" unicode="&#xb5;" horiz-adv-x="623" 
d="M173 190q0 -127 120 -127q83 0 120 45.5t37 148.5v279h88v-536h-71l-14 72h-5q-53 -82 -161 -82q-71 0 -115 45h-4q5 -36 5 -119v-156h-88v776h88v-346z" />
    <glyph glyph-name="paragraph" unicode="&#xb6;" horiz-adv-x="654" 
d="M549 -127h-58v831h-102v-831h-58v400q-30 -9 -71 -9q-105 0 -155 61t-50 184q0 127 53.5 189t166.5 62h274v-887z" />
    <glyph glyph-name="periodcentered" unicode="&#xb7;" horiz-adv-x="268" 
d="M72 353q0 32 16 50t45 18q30 0 46.5 -18.5t16.5 -49.5t-16.5 -49.5t-46.5 -18.5q-29 0 -45 18t-16 50z" />
    <glyph glyph-name="cedilla" unicode="&#xb8;" horiz-adv-x="225" 
d="M212 -139q0 -48 -37 -74.5t-111 -26.5q-32 0 -50 5v55q18 -5 53 -5q37 0 55.5 9.5t18.5 34.5q0 43 -91 55l43 86h58l-26 -53q87 -19 87 -86z" />
    <glyph glyph-name="uni00B9" unicode="&#xb9;" horiz-adv-x="350" 
d="M167 714h73v-428h-71v276q0 33 4 89q-15 -14 -26.5 -23t-74.5 -55l-35 49z" />
    <glyph glyph-name="ordmasculine" unicode="&#xba;" horiz-adv-x="375" 
d="M345 553q0 -80 -42 -125t-116 -45q-71 0 -113 45t-42 125q0 81 41 125t116 44q73 0 114.5 -44.5t41.5 -124.5zM95 553q0 -59 21.5 -88t71.5 -29q49 0 71 29t22 88t-22 87.5t-71 28.5t-71 -28.5t-22 -87.5z" />
    <glyph glyph-name="guillemotright" unicode="&#xbb;" horiz-adv-x="584" 
d="M201 447q45 -41 69 -69t24 -48q0 -10 -7 -17q-67 -72 -134 -130q-13 -10 -26 -10q-11 0 -19 7.5t-8 17.5q0 15 13 29q27 33 79 74q20 16 20 30q0 13 -17 30q-70 70 -70 103q0 17 19 17q9 0 19.5 -4.5t19.5 -13.5zM394 441q42 -38 66 -65.5t24 -47.5q0 -10 -7 -17
q-65 -69 -134 -131q-11 -10 -25 -10q-12 0 -20 7.5t-8 18.5q0 15 13 29q30 35 79 74q20 14 20 29q0 14 -17 31q-70 70 -70 102q0 17 19 17q20 0 39 -17z" />
    <glyph glyph-name="onequarter" unicode="&#xbc;" horiz-adv-x="790" 
d="M736 96h-61v-96h-75v96h-195v52l197 283h73v-275h61v-60zM600 156v93q0 52 3 101q-4 -9 -48 -77l-80 -117h125zM845 708q8 0 19 -8q14 -12 11 -27q-3 -8 -9 -16q-8 -12 -21 -25q-61 -66 -132.5 -168t-132 -210.5t-89.5 -191.5q-7 -23 -20 -48q-4 -10 -17 -10q-7 0 -11 2
q-15 6 -26 27q0 7 0.5 20t2.5 21q3 8 10 34q21 70 38 109q30 69 114.5 189.5t143.5 184.5q29 31 58 64l29 32q5 7 23 19q6 2 9 2zM165 714h73v-428h-71v276q0 33 4 89q-15 -14 -26.5 -23t-74.5 -55l-35 49z" />
    <glyph glyph-name="onehalf" unicode="&#xbd;" horiz-adv-x="790" 
d="M815 708q8 0 19 -8q14 -12 11 -27q-3 -8 -9 -16q-8 -12 -21 -25q-61 -66 -132.5 -168t-132 -210.5t-89.5 -191.5q-7 -23 -20 -48q-4 -10 -17 -10q-7 0 -11 2q-15 6 -26 27q0 7 0.5 20t2.5 21q3 8 10 34q21 70 38 109q30 69 114.5 189.5t143.5 184.5q29 31 58 64l29 32
q5 7 23 19q6 2 9 2zM152 714h73v-428h-71v276q0 33 4 89q-15 -14 -26.5 -23t-74.5 -55l-35 49zM727 0h-282v54l115 112q62 60 79.5 87.5t17.5 61.5q0 32 -18.5 48t-48.5 16t-54.5 -11.5t-50.5 -31.5l-35 46q65 55 141 55q64 0 100.5 -32t36.5 -86q0 -22 -6 -41.5
t-18.5 -39.5t-33 -42.5t-138.5 -133.5h195v-62z" />
    <glyph glyph-name="threequarters" unicode="&#xbe;" horiz-adv-x="790" 
d="M772 96h-61v-96h-75v96h-195v52l197 283h73v-275h61v-60zM636 156v93q0 52 3 101q-4 -9 -48 -77l-80 -117h125zM889 708q8 0 19 -8q14 -12 11 -27q-3 -8 -9 -16q-8 -12 -21 -25q-61 -66 -132.5 -168t-132 -210.5t-89.5 -191.5q-7 -23 -20 -48q-4 -10 -17 -10q-7 0 -11 2
q-15 6 -26 27q0 7 0.5 20t2.5 21q3 8 10 34q21 70 38 109q30 69 114.5 189.5t143.5 184.5q29 31 58 64l29 32q5 7 23 19q6 2 9 2zM307 613q0 -74 -74 -102q87 -21 87 -102q0 -62 -45 -96.5t-128 -34.5q-74 0 -131 28v63q69 -34 132 -34q100 0 100 76q0 69 -110 69h-57v55h57
q50 0 73.5 19t23.5 51q0 29 -19 45t-51 16q-51 0 -111 -38l-36 46q36 27 71 38t75 11q66 0 104.5 -29.5t38.5 -80.5z" />
    <glyph glyph-name="questiondown" unicode="&#xbf;" horiz-adv-x="434" 
d="M294 330v-26q0 -57 -18 -93.5t-67 -77.5q-65 -54 -82 -81t-17 -68q0 -47 31 -73.5t89 -26.5q78 0 161 43l31 -71q-97 -48 -195 -48q-95 0 -148.5 45.5t-53.5 128.5q0 36 9.5 63.5t29.5 52.5t79 75q50 44 65 71t15 70v16h71zM317 478q0 -67 -62 -67q-30 0 -45.5 17.5
t-15.5 49.5q0 36 17.5 52t43.5 16t44 -16t18 -52z" />
    <glyph glyph-name="Agrave" unicode="&#xc0;" horiz-adv-x="639" 
d="M272 759q21 0 36.5 -13t18.5 -30v-4q0 -17 -17 -17q-5 0 -8 1t-10 1q-48 0 -94.5 -86.5t-76.5 -211t-30 -226.5q0 -25 1 -37q1 -13 5 -29t5 -21q5 -16 15.5 -25t25.5 -9q7 0 16 3q31 12 55 35t48 62q32 53 37 122q3 58 21 170q6 32 8 48q5 31 22 102q3 17 11 51
q4 23 11 35q8 15 24 31q8 8 18 8q7 0 13 -3q7 -4 8.5 -10.5t0.5 -15.5l-25 -212l-12 -123q-8 -82 -13 -123q-2 -30 -2 -47q0 -60 12 -118t36.5 -96.5t60.5 -38.5q7 0 10 1q76 10 163 88t151 189q6 11 21 11q11 0 18 -7t3 -17q-45 -81 -110.5 -156.5t-140.5 -124t-143 -48.5
q-50 0 -81 31.5t-47 75.5t-33 114l-6 26q-4 -5 -36 -52q-30 -43 -80 -66q-25 -12 -52 -12q-37 0 -67.5 21.5t-43.5 59.5q-17 46 -18 90q-1 14 -1 42q0 117 31.5 233t88 203t128.5 120q10 5 24 5zM364 771h-59q-37 29 -80.5 76t-61.5 74v10h105q16 -32 44.5 -76.5t51.5 -71.5
v-12z" />
    <glyph glyph-name="Aacute" unicode="&#xc1;" horiz-adv-x="639" 
d="M272 759q21 0 36.5 -13t18.5 -30v-4q0 -17 -17 -17q-5 0 -8 1t-10 1q-48 0 -94.5 -86.5t-76.5 -211t-30 -226.5q0 -25 1 -37q1 -13 5 -29t5 -21q5 -16 15.5 -25t25.5 -9q7 0 16 3q31 12 55 35t48 62q32 53 37 122q3 58 21 170q6 32 8 48q5 31 22 102q3 17 11 51
q4 23 11 35q8 15 24 31q8 8 18 8q7 0 13 -3q7 -4 8.5 -10.5t0.5 -15.5l-25 -212l-12 -123q-8 -82 -13 -123q-2 -30 -2 -47q0 -60 12 -118t36.5 -96.5t60.5 -38.5q7 0 10 1q76 10 163 88t151 189q6 11 21 11q11 0 18 -7t3 -17q-45 -81 -110.5 -156.5t-140.5 -124t-143 -48.5
q-50 0 -81 31.5t-47 75.5t-33 114l-6 26q-4 -5 -36 -52q-30 -43 -80 -66q-25 -12 -52 -12q-37 0 -67.5 21.5t-43.5 59.5q-17 46 -18 90q-1 14 -1 42q0 117 31.5 233t88 203t128.5 120q10 5 24 5zM257 783q19 23 47.5 66.5t47.5 81.5h106v-10q-21 -31 -66.5 -78.5
t-76.5 -71.5h-58v12z" />
    <glyph glyph-name="Acircumflex" unicode="&#xc2;" horiz-adv-x="639" 
d="M146 782q61 65 86 96.5t37 52.5h90q25 -49 125 -149v-11h-62q-44 26 -109 90q-64 -62 -107 -90h-60v11zM272 759q21 0 36.5 -13t18.5 -30v-4q0 -17 -17 -17q-5 0 -8 1t-10 1q-48 0 -94.5 -86.5t-76.5 -211t-30 -226.5q0 -25 1 -37q1 -13 5 -29t5 -21q5 -16 15.5 -25
t25.5 -9q7 0 16 3q31 12 55 35t48 62q32 53 37 122q3 58 21 170q6 32 8 48q5 31 22 102q3 17 11 51q4 23 11 35q8 15 24 31q8 8 18 8q7 0 13 -3q7 -4 8.5 -10.5t0.5 -15.5l-25 -212l-12 -123q-8 -82 -13 -123q-2 -30 -2 -47q0 -60 12 -118t36.5 -96.5t60.5 -38.5q7 0 10 1
q76 10 163 88t151 189q6 11 21 11q11 0 18 -7t3 -17q-45 -81 -110.5 -156.5t-140.5 -124t-143 -48.5q-50 0 -81 31.5t-47 75.5t-33 114l-6 26q-4 -5 -36 -52q-30 -43 -80 -66q-25 -12 -52 -12q-37 0 -67.5 21.5t-43.5 59.5q-17 46 -18 90q-1 14 -1 42q0 117 31.5 233t88 203
t128.5 120q10 5 24 5z" />
    <glyph glyph-name="Atilde" unicode="&#xc3;" horiz-adv-x="639" 
d="M390 772q-21 0 -41 9t-39.5 19.5t-37 19.5t-34.5 9q-24 0 -36 -14.5t-19 -43.5h-51q6 60 34 94t76 34q22 0 42.5 -9t39.5 -19.5t37 -19.5t33 -9q23 0 35.5 14.5t19.5 43.5h50q-6 -58 -34 -93t-75 -35zM272 759q21 0 36.5 -13t18.5 -30v-4q0 -17 -17 -17q-5 0 -8 1t-10 1
q-48 0 -94.5 -86.5t-76.5 -211t-30 -226.5q0 -25 1 -37q1 -13 5 -29t5 -21q5 -16 15.5 -25t25.5 -9q7 0 16 3q31 12 55 35t48 62q32 53 37 122q3 58 21 170q6 32 8 48q5 31 22 102q3 17 11 51q4 23 11 35q8 15 24 31q8 8 18 8q7 0 13 -3q7 -4 8.5 -10.5t0.5 -15.5l-25 -212
l-12 -123q-8 -82 -13 -123q-2 -30 -2 -47q0 -60 12 -118t36.5 -96.5t60.5 -38.5q7 0 10 1q76 10 163 88t151 189q6 11 21 11q11 0 18 -7t3 -17q-45 -81 -110.5 -156.5t-140.5 -124t-143 -48.5q-50 0 -81 31.5t-47 75.5t-33 114l-6 26q-4 -5 -36 -52q-30 -43 -80 -66
q-25 -12 -52 -12q-37 0 -67.5 21.5t-43.5 59.5q-17 46 -18 90q-1 14 -1 42q0 117 31.5 233t88 203t128.5 120q10 5 24 5z" />
    <glyph glyph-name="Adieresis" unicode="&#xc4;" horiz-adv-x="810" 
d="M439 832q7 -7 7 -16q2 -8 -7.5 -18t-19.5 -10q-7 0 -12.5 7t-6.5 17q0 12 7 19.5t16 7.5t16 -7zM319 852q7 -7 7 -16q2 -8 -7.5 -18t-19.5 -10q-7 0 -12.5 7t-6.5 17q0 12 7 19.5t16 7.5t16 -7zM272 759q21 0 36.5 -13t18.5 -30v-4q0 -17 -17 -17q-5 0 -8 1t-10 1
q-48 0 -94.5 -86.5t-76.5 -211t-30 -226.5q0 -25 1 -37q1 -13 5 -29t5 -21q5 -16 15.5 -25t25.5 -9q7 0 16 3q31 12 55 35t48 62q32 53 37 122q3 58 21 170q6 32 8 48q5 31 22 102q3 17 11 51q4 23 11 35q8 15 24 31q8 8 18 8q7 0 13 -3q7 -4 8.5 -10.5t0.5 -15.5l-25 -212
l-12 -123q-8 -82 -13 -123q-2 -30 -2 -47q0 -60 12 -118t36.5 -96.5t60.5 -38.5q7 0 10 1q76 10 163 88t151 189q6 11 21 11q11 0 18 -7t3 -17q-45 -81 -110.5 -156.5t-140.5 -124t-143 -48.5q-50 0 -81 31.5t-47 75.5t-33 114l-6 26q-4 -5 -36 -52q-30 -43 -80 -66
q-25 -12 -52 -12q-37 0 -67.5 21.5t-43.5 59.5q-17 46 -18 90q-1 14 -1 42q0 117 31.5 233t88 203t128.5 120q10 5 24 5z" />
    <glyph glyph-name="Aring" unicode="&#xc5;" horiz-adv-x="639" 
d="M428 774q0 -34 -14.5 -58t-39.5 -36l264 -680h-93l-86 221h-283l-85 -221h-91l263 677q-26 12 -40.5 36.5t-14.5 59.5q0 48 29.5 76.5t79.5 28.5t80.5 -29t30.5 -75zM432 301l-80 216l-34 107q-15 -59 -31 -107l-81 -216h226zM373 773q0 26 -16 41t-40 15t-40 -15
t-16 -41t14.5 -41t41.5 -15q25 0 40.5 15t15.5 41z" />
    <glyph glyph-name="AE" unicode="&#xc6;" horiz-adv-x="880" 
d="M821 0h-372v221h-250l-107 -221h-93l339 714h483v-79h-282v-223h263v-78h-263v-255h282v-79zM234 301h215v333h-58z" />
    <glyph glyph-name="Ccedilla" unicode="&#xc7;" horiz-adv-x="631" 
d="M358 701q36 -50 44 -97q2 -9 6 -28t5 -34q1 -4 1 -12q0 -7 -2 -19q-2 -4 -5.5 -7.5t-7.5 -3.5h-1q-8 0 -14 8q-3 4 -6 16q-12 38 -20 67q-12 39 -39 69q-16 16 -26 21q-17 9 -29 9q-17 0 -34 -26q-34 -54 -66 -146.5t-52 -197t-20 -193.5q0 -86 20 -142q10 -29 25 -40.5
t43 -11.5q90 0 169 77.5t151 199.5q9 13 19 13q9 0 15.5 -6.5t6.5 -15.5q0 -7 -5 -15q-89 -138 -171 -216.5t-187 -96.5q-9 -2 -27 -2q-64 0 -99.5 52.5t-45.5 133.5q-6 39 -6 87q0 87 17.5 188.5t50.5 194t78 151.5q22 31 40 48q29 30 67 30q20 0 40 -7q40 -14 65 -48z
M464 -139q0 -48 -37 -74.5t-111 -26.5q-32 0 -50 5v55q18 -5 53 -5q37 0 55.5 9.5t18.5 34.5q0 43 -91 55l43 86h58l-26 -53q87 -19 87 -86z" />
    <glyph glyph-name="Egrave" unicode="&#xc8;" horiz-adv-x="556" 
d="M494 752q8 -3 12 -9.5t0 -14.5q-4 -9 -19 -15l-29 -6q-17 -3 -29 -7q-18 -5 -23 -7q-105 -50 -164 -131q-29 -38 -42 -95q-3 -10 -3 -21q2 -26 24 -27q21 0 40 6q40 13 76 44q11 11 28 21q5 3 9 3q8 0 15 -7q6 -6 6 -14q0 -5 -3 -11q-7 -12 -16 -21l-48 -56
q-48 -56 -72 -86q-85 -109 -135 -180q-23 -34 -44 -89q-5 -15 -5 -24q0 -16 12 -25.5t35 -10.5q54 -3 116 19q110 38 198 130q4 4 12 12.5t15 13.5q13 12 28 16l4 1q8 0 17 -7q4 -4 4 -8q0 -7 -7 -14l-40 -44q-96 -102 -220 -150q-60 -24 -124 -24l-21 1q-39 2 -68.5 26
t-32.5 57q-2 24 7 61q15 55 63 117q37 48 90 110l46 56l18 21q-9 1 -22 2t-20 3q-24 7 -39 28.5t-16 47.5q-2 37 18 91q20 51 55 89q66 73 172 122q36 17 89 15q18 -2 33 -9zM354 771h-59q-37 29 -80.5 76t-61.5 74v10h105q16 -32 44.5 -76.5t51.5 -71.5v-12z" />
    <glyph glyph-name="Eacute" unicode="&#xc9;" horiz-adv-x="556" 
d="M494 752q8 -3 12 -9.5t0 -14.5q-4 -9 -19 -15l-29 -6q-17 -3 -29 -7q-18 -5 -23 -7q-105 -50 -164 -131q-29 -38 -42 -95q-3 -10 -3 -21q2 -26 24 -27q21 0 40 6q40 13 76 44q11 11 28 21q5 3 9 3q8 0 15 -7q6 -6 6 -14q0 -5 -3 -11q-7 -12 -16 -21l-48 -56
q-48 -56 -72 -86q-85 -109 -135 -180q-23 -34 -44 -89q-5 -15 -5 -24q0 -16 12 -25.5t35 -10.5q54 -3 116 19q110 38 198 130q4 4 12 12.5t15 13.5q13 12 28 16l4 1q8 0 17 -7q4 -4 4 -8q0 -7 -7 -14l-40 -44q-96 -102 -220 -150q-60 -24 -124 -24l-21 1q-39 2 -68.5 26
t-32.5 57q-2 24 7 61q15 55 63 117q37 48 90 110l46 56l18 21q-9 1 -22 2t-20 3q-24 7 -39 28.5t-16 47.5q-2 37 18 91q20 51 55 89q66 73 172 122q36 17 89 15q18 -2 33 -9zM221 783q19 23 47.5 66.5t47.5 81.5h106v-10q-21 -31 -66.5 -78.5t-76.5 -71.5h-58v12z" />
    <glyph glyph-name="Ecircumflex" unicode="&#xca;" horiz-adv-x="556" 
d="M125 782q61 65 86 96.5t37 52.5h90q25 -49 125 -149v-11h-62q-44 26 -109 90q-64 -62 -107 -90h-60v11zM494 752q8 -3 12 -9.5t0 -14.5q-4 -9 -19 -15l-29 -6q-17 -3 -29 -7q-18 -5 -23 -7q-105 -50 -164 -131q-29 -38 -42 -95q-3 -10 -3 -21q2 -26 24 -27q21 0 40 6
q40 13 76 44q11 11 28 21q5 3 9 3q8 0 15 -7q6 -6 6 -14q0 -5 -3 -11q-7 -12 -16 -21l-48 -56q-48 -56 -72 -86q-85 -109 -135 -180q-23 -34 -44 -89q-5 -15 -5 -24q0 -16 12 -25.5t35 -10.5q54 -3 116 19q110 38 198 130q4 4 12 12.5t15 13.5q13 12 28 16l4 1q8 0 17 -7
q4 -4 4 -8q0 -7 -7 -14l-40 -44q-96 -102 -220 -150q-60 -24 -124 -24l-21 1q-39 2 -68.5 26t-32.5 57q-2 24 7 61q15 55 63 117q37 48 90 110l46 56l18 21q-9 1 -22 2t-20 3q-24 7 -39 28.5t-16 47.5q-2 37 18 91q20 51 55 89q66 73 172 122q36 17 89 15q18 -2 33 -9z" />
    <glyph glyph-name="Edieresis" unicode="&#xcb;" horiz-adv-x="556" 
d="M494 752q8 -3 12 -9.5t0 -14.5q-4 -9 -19 -15l-29 -6q-17 -3 -29 -7q-18 -5 -23 -7q-105 -50 -164 -131q-29 -38 -42 -95q-3 -10 -3 -21q2 -26 24 -27q21 0 40 6q40 13 76 44q11 11 28 21q5 3 9 3q8 0 15 -7q6 -6 6 -14q0 -5 -3 -11q-7 -12 -16 -21l-48 -56
q-48 -56 -72 -86q-85 -109 -135 -180q-23 -34 -44 -89q-5 -15 -5 -24q0 -16 12 -25.5t35 -10.5q54 -3 116 19q110 38 198 130q4 4 12 12.5t15 13.5q13 12 28 16l4 1q8 0 17 -7q4 -4 4 -8q0 -7 -7 -14l-40 -44q-96 -102 -220 -150q-60 -24 -124 -24l-21 1q-39 2 -68.5 26
t-32.5 57q-2 24 7 61q15 55 63 117q37 48 90 110l46 56l18 21q-9 1 -22 2t-20 3q-24 7 -39 28.5t-16 47.5q-2 37 18 91q20 51 55 89q66 73 172 122q36 17 89 15q18 -2 33 -9zM156 846q0 26 13.5 37.5t33.5 11.5q19 0 33 -11.5t14 -37.5t-14 -38t-33 -12q-20 0 -33.5 12
t-13.5 38zM344 846q0 26 13.5 37.5t32.5 11.5t33 -11.5t14 -37.5t-14 -38t-33 -12t-32.5 12t-13.5 38z" />
    <glyph glyph-name="Igrave" unicode="&#xcc;" horiz-adv-x="338" 
d="M222 374q1 -2 5 -7.5t5 -10.5v-5q0 -12 -4 -16q-3 -3 -10 -4t-11 1q-4 3 -21 15.5t-27 27.5q-54 79 -63 156q-3 23 -3 45q0 62 19.5 111t51 76t66.5 27q49 0 88.5 -54.5t53.5 -162.5q9 -60 9 -136q0 -120 -23.5 -251t-72.5 -250q-33 -82 -95 -118q-35 -22 -75 -22
q-19 0 -35 4q-37 10 -58.5 37.5t-21.5 61.5q0 25 12 49q16 32 38 65q5 7 25 23q5 3 8 3q7 0 13 -8q3 -4 3 -9q0 -4 -4 -12q-22 -36 -31 -55q-9 -22 -9 -40q0 -20 13 -32t33 -12q30 0 52 24q30 34 46 81q92 255 92 511l-1 38q-1 58 -15 103t-34 70t-39 25q-21 0 -34.5 -30
t-13.5 -88q-5 -131 68 -231zM230 771h-59q-37 29 -80.5 76t-61.5 74v10h105q16 -32 44.5 -76.5t51.5 -71.5v-12z" />
    <glyph glyph-name="Iacute" unicode="&#xcd;" horiz-adv-x="338" 
d="M222 374q1 -2 5 -7.5t5 -10.5v-5q0 -12 -4 -16q-3 -3 -10 -4t-11 1q-4 3 -21 15.5t-27 27.5q-54 79 -63 156q-3 23 -3 45q0 62 19.5 111t51 76t66.5 27q49 0 88.5 -54.5t53.5 -162.5q9 -60 9 -136q0 -120 -23.5 -251t-72.5 -250q-33 -82 -95 -118q-35 -22 -75 -22
q-19 0 -35 4q-37 10 -58.5 37.5t-21.5 61.5q0 25 12 49q16 32 38 65q5 7 25 23q5 3 8 3q7 0 13 -8q3 -4 3 -9q0 -4 -4 -12q-22 -36 -31 -55q-9 -22 -9 -40q0 -20 13 -32t33 -12q30 0 52 24q30 34 46 81q92 255 92 511l-1 38q-1 58 -15 103t-34 70t-39 25q-21 0 -34.5 -30
t-13.5 -88q-5 -131 68 -231zM115 783q19 23 47.5 66.5t47.5 81.5h106v-10q-21 -31 -66.5 -78.5t-76.5 -71.5h-58v12z" />
    <glyph glyph-name="Icircumflex" unicode="&#xce;" horiz-adv-x="338" 
d="M-1 782q61 65 86 96.5t37 52.5h90q25 -49 125 -149v-11h-62q-44 26 -109 90q-64 -62 -107 -90h-60v11zM222 374q1 -2 5 -7.5t5 -10.5v-5q0 -12 -4 -16q-3 -3 -10 -4t-11 1q-4 3 -21 15.5t-27 27.5q-54 79 -63 156q-3 23 -3 45q0 62 19.5 111t51 76t66.5 27
q49 0 88.5 -54.5t53.5 -162.5q9 -60 9 -136q0 -120 -23.5 -251t-72.5 -250q-33 -82 -95 -118q-35 -22 -75 -22q-19 0 -35 4q-37 10 -58.5 37.5t-21.5 61.5q0 25 12 49q16 32 38 65q5 7 25 23q5 3 8 3q7 0 13 -8q3 -4 3 -9q0 -4 -4 -12q-22 -36 -31 -55q-9 -22 -9 -40
q0 -20 13 -32t33 -12q30 0 52 24q30 34 46 81q92 255 92 511l-1 38q-1 58 -15 103t-34 70t-39 25q-21 0 -34.5 -30t-13.5 -88q-5 -131 68 -231z" />
    <glyph glyph-name="Idieresis" unicode="&#xcf;" horiz-adv-x="338" 
d="M222 374q1 -2 5 -7.5t5 -10.5v-5q0 -12 -4 -16q-3 -3 -10 -4t-11 1q-4 3 -21 15.5t-27 27.5q-54 79 -63 156q-3 23 -3 45q0 62 19.5 111t51 76t66.5 27q49 0 88.5 -54.5t53.5 -162.5q9 -60 9 -136q0 -120 -23.5 -251t-72.5 -250q-33 -82 -95 -118q-35 -22 -75 -22
q-19 0 -35 4q-37 10 -58.5 37.5t-21.5 61.5q0 25 12 49q16 32 38 65q5 7 25 23q5 3 8 3q7 0 13 -8q3 -4 3 -9q0 -4 -4 -12q-22 -36 -31 -55q-9 -22 -9 -40q0 -20 13 -32t33 -12q30 0 52 24q30 34 46 81q92 255 92 511l-1 38q-1 58 -15 103t-34 70t-39 25q-21 0 -34.5 -30
t-13.5 -88q-5 -131 68 -231zM29 846q0 26 13.5 37.5t33.5 11.5q19 0 33 -11.5t14 -37.5t-14 -38t-33 -12q-20 0 -33.5 12t-13.5 38zM217 846q0 26 13.5 37.5t32.5 11.5t33 -11.5t14 -37.5t-14 -38t-33 -12t-32.5 12t-13.5 38z" />
    <glyph glyph-name="Eth" unicode="&#xd0;" horiz-adv-x="729" 
d="M669 364q0 -175 -96 -269.5t-278 -94.5h-191v314h-74v78h74v322h213q167 0 259.5 -92t92.5 -258zM574 361q0 137 -68 206.5t-202 69.5h-110v-245h178v-78h-178v-237h90q290 0 290 284z" />
    <glyph glyph-name="Ntilde" unicode="&#xd1;" horiz-adv-x="759" 
d="M459 772q-21 0 -41 9t-39.5 19.5t-37 19.5t-34.5 9q-24 0 -36 -14.5t-19 -43.5h-51q6 60 34 94t76 34q22 0 42.5 -9t39.5 -19.5t37 -19.5t33 -9q23 0 35.5 14.5t19.5 43.5h50q-6 -58 -34 -93t-75 -35zM32 687q14 0 23 -14q12 -16 20 -36q20 -59 31.5 -108.5t12.5 -99.5
q0 -4 2 -14h4l13 23l35 57q24 36 41 52q32 31 67 31q24 0 44.5 -16.5t31.5 -46.5q16 -44 16 -96q0 -15 -2 -45l-1 -20l-1 -95q-1 -37 -1 -118q4 -49 27.5 -73t61.5 -24q55 0 123.5 47.5t121.5 125.5q3 5 12.5 -0.5t16.5 -14t4 -13.5q-60 -90 -133 -143t-147 -53
q-60 0 -116 38q-36 23 -50 71q-16 51 -16 117q0 17 2 51q2 33 10 99l6 56q1 7 1 20l-1 41q0 1 -3 13q-6 20 -17 20q-7 0 -18 -8q-17 -12 -32 -31q-45 -57 -74 -120l-11 -28q-11 -25 -13 -68q0 -29 -4 -85q0 -15 -2 -43q-1 -14 -1 -41q0 -21 -16 -28q-3 -2 -11 -2
q-15 0 -23 11q-10 16 -11 27q-9 49 -15 107t-10 113l-6 79q-6 67 -23 224l-1 15q0 8 2 22q3 18 23 23q2 1 7 1z" />
    <glyph glyph-name="Ograve" unicode="&#xd2;" horiz-adv-x="780" 
d="M211.5 722q38.5 15 80.5 15q60 0 114 -31.5t83 -92.5q48 -99 48 -205q0 -55 -10.5 -113t-32.5 -141q-21 -82 -69 -141.5t-109.5 -90.5t-122.5 -31q-77 0 -131 50.5t-60 145.5q-2 40 -2 60q0 198 101 334q23 31 62 60q13 11 45 19q3 1 9 1q18 0 29 -18q5 -8 5 -16
q0 -10 -11 -25q-49 -55 -79 -134q-51 -134 -58 -252v-12q0 -19 1 -29q4 -60 58 -89q35 -19 69 -19q59 0 108.5 52.5t88.5 135.5q59 127 56 248q4 83 -34 165q-26 61 -87 94q-21 11 -51 13q-77 5 -123 -40l-81 -76q-3 -3 -7 -9q-9 -7 -16 -7q-4 0 -12 4q-8 5 -11 12t0 14
q5 17 15 29q39 45 69 77q27 28 65.5 43zM448 771h-59q-37 29 -80.5 76t-61.5 74v10h105q16 -32 44.5 -76.5t51.5 -71.5v-12z" />
    <glyph glyph-name="Oacute" unicode="&#xd3;" horiz-adv-x="780" 
d="M211.5 722q38.5 15 80.5 15q60 0 114 -31.5t83 -92.5q48 -99 48 -205q0 -55 -10.5 -113t-32.5 -141q-21 -82 -69 -141.5t-109.5 -90.5t-122.5 -31q-77 0 -131 50.5t-60 145.5q-2 40 -2 60q0 198 101 334q23 31 62 60q13 11 45 19q3 1 9 1q18 0 29 -18q5 -8 5 -16
q0 -10 -11 -25q-49 -55 -79 -134q-51 -134 -58 -252v-12q0 -19 1 -29q4 -60 58 -89q35 -19 69 -19q59 0 108.5 52.5t88.5 135.5q59 127 56 248q4 83 -34 165q-26 61 -87 94q-21 11 -51 13q-77 5 -123 -40l-81 -76q-3 -3 -7 -9q-9 -7 -16 -7q-4 0 -12 4q-8 5 -11 12t0 14
q5 17 15 29q39 45 69 77q27 28 65.5 43zM321 783q19 23 47.5 66.5t47.5 81.5h106v-10q-21 -31 -66.5 -78.5t-76.5 -71.5h-58v12z" />
    <glyph glyph-name="Ocircumflex" unicode="&#xd4;" horiz-adv-x="780" 
d="M215 782q61 65 86 96.5t37 52.5h90q25 -49 125 -149v-11h-62q-44 26 -109 90q-64 -62 -107 -90h-60v11zM211.5 722q38.5 15 80.5 15q60 0 114 -31.5t83 -92.5q48 -99 48 -205q0 -55 -10.5 -113t-32.5 -141q-21 -82 -69 -141.5t-109.5 -90.5t-122.5 -31q-77 0 -131 50.5
t-60 145.5q-2 40 -2 60q0 198 101 334q23 31 62 60q13 11 45 19q3 1 9 1q18 0 29 -18q5 -8 5 -16q0 -10 -11 -25q-49 -55 -79 -134q-51 -134 -58 -252v-12q0 -19 1 -29q4 -60 58 -89q35 -19 69 -19q59 0 108.5 52.5t88.5 135.5q59 127 56 248q4 83 -34 165q-26 61 -87 94
q-21 11 -51 13q-77 5 -123 -40l-81 -76q-3 -3 -7 -9q-9 -7 -16 -7q-4 0 -12 4q-8 5 -11 12t0 14q5 17 15 29q39 45 69 77q27 28 65.5 43z" />
    <glyph glyph-name="Otilde" unicode="&#xd5;" horiz-adv-x="780" 
d="M461 772q-21 0 -41 9t-39.5 19.5t-37 19.5t-34.5 9q-24 0 -36 -14.5t-19 -43.5h-51q6 60 34 94t76 34q22 0 42.5 -9t39.5 -19.5t37 -19.5t33 -9q23 0 35.5 14.5t19.5 43.5h50q-6 -58 -34 -93t-75 -35zM211.5 722q38.5 15 80.5 15q60 0 114 -31.5t83 -92.5q48 -99 48 -205
q0 -55 -10.5 -113t-32.5 -141q-21 -82 -69 -141.5t-109.5 -90.5t-122.5 -31q-77 0 -131 50.5t-60 145.5q-2 40 -2 60q0 198 101 334q23 31 62 60q13 11 45 19q3 1 9 1q18 0 29 -18q5 -8 5 -16q0 -10 -11 -25q-49 -55 -79 -134q-51 -134 -58 -252v-12q0 -19 1 -29
q4 -60 58 -89q35 -19 69 -19q59 0 108.5 52.5t88.5 135.5q59 127 56 248q4 83 -34 165q-26 61 -87 94q-21 11 -51 13q-77 5 -123 -40l-81 -76q-3 -3 -7 -9q-9 -7 -16 -7q-4 0 -12 4q-8 5 -11 12t0 14q5 17 15 29q39 45 69 77q27 28 65.5 43z" />
    <glyph glyph-name="Odieresis" unicode="&#xd6;" horiz-adv-x="727" 
d="M469 802q7 -7 7 -16q2 -8 -7.5 -18t-19.5 -10q-7 0 -12.5 7t-6.5 17q0 12 7 19.5t16 7.5t16 -7zM349 822q7 -7 7 -16q2 -8 -7.5 -18t-19.5 -10q-7 0 -12.5 7t-6.5 17q0 12 7 19.5t16 7.5t16 -7zM211.5 722q38.5 15 80.5 15q60 0 114 -31.5t83 -92.5q48 -99 48 -205
q0 -55 -10.5 -113t-32.5 -141q-21 -82 -69 -141.5t-109.5 -90.5t-122.5 -31q-77 0 -131 50.5t-60 145.5q-2 40 -2 60q0 198 101 334q23 31 62 60q13 11 45 19q3 1 9 1q18 0 29 -18q5 -8 5 -16q0 -10 -11 -25q-49 -55 -79 -134q-51 -134 -58 -252v-12q0 -19 1 -29
q4 -60 58 -89q35 -19 69 -19q59 0 108.5 52.5t88.5 135.5q59 127 56 248q4 83 -34 165q-26 61 -87 94q-21 11 -51 13q-77 5 -123 -40l-81 -76q-3 -3 -7 -9q-9 -7 -16 -7q-4 0 -12 4q-8 5 -11 12t0 14q5 17 15 29q39 45 69 77q27 28 65.5 43z" />
    <glyph glyph-name="multiply" unicode="&#xd7;" horiz-adv-x="424" 
d="M296 373q14 0 21 -14q2 -6 2 -9q0 -10 -10 -20l-42 -36q-7 -3 -21 -14q26 -12 46 -23q46 -23 63 -34q19 -10 19 -29q0 -13 -8 -21t-20 -8q-5 0 -17 4q-62 25 -124 57q-14 7 -27 7q-16 0 -30 -13q-7 -8 -23 -18q-17 -11 -26 -11t-13 6q-6 6 -6 12q0 10 14 26q7 7 13.5 13
t12.5 12q-20 10 -35 16q-19 8 -25 16q-5 6 -8 14t-2 14q2 6 8.5 12t13.5 8q6 3 14 3q7 0 17 -4q33 -8 56 -19q12 -6 22 -6q14 0 29 12q11 10 37 26q14 8 21 13t20 7q3 1 8 1z" />
    <glyph glyph-name="Oslash" unicode="&#xd8;" horiz-adv-x="780" 
d="M720 358q0 -171 -86.5 -269.5t-242.5 -98.5q-113 0 -185 47l-48 -68l-61 40l52 74q-88 97 -88 276q0 174 85.5 270t245.5 96q100 0 178 -45l46 66l61 -41l-51 -71q94 -99 94 -276zM625 358q0 129 -51 202l-320 -454q56 -38 137 -38q115 0 174.5 73t59.5 217zM156 358
q0 -126 47 -198l319 451q-53 35 -130 35q-116 0 -176 -73.5t-60 -214.5z" />
    <glyph glyph-name="Ugrave" unicode="&#xd9;" horiz-adv-x="730" 
d="M89 717q14 8 27 8q15 0 24 -10t8 -30v-12q-8 -55 -11 -77q-26 -166 -44 -307q-9 -65 -9 -108t7 -79q4 -20 8 -30q14 -32 35 -32q14 0 30 12t32 27t22 21q9 7 17 18.5t12 16.5l112 150q7 11 7 27q9 117 46 214q10 31 33 70q7 12 31 30q8 5 16 5t17 -6q10 -7 10 -19
q0 -6 -3 -14q-2 -6 -7 -18t-8 -22q-21 -59 -32 -153q-13 -107 -13 -225v-44q0 -50 24 -79.5t63 -29.5q51 0 113 49t120 147q6 10 16 10q8 0 14.5 -7t6.5 -17q0 -7 -4 -14q-40 -69 -93.5 -122.5t-110 -83t-104.5 -29.5q-52 0 -86 36t-42 110q-3 25 -4 43.5t-2 30.5l-1 24
l-2 23q-7 0 -23.5 -21.5t-43.5 -63.5l-25 -37q-77 -114 -150 -114q-36 0 -69 29q-20 18 -27 39t-15 61q-11 47 -11 89q0 140 16.5 288.5t50.5 203.5q8 14 22 22zM422 771h-59q-37 29 -80.5 76t-61.5 74v10h105q16 -32 44.5 -76.5t51.5 -71.5v-12z" />
    <glyph glyph-name="Uacute" unicode="&#xda;" horiz-adv-x="730" 
d="M89 717q14 8 27 8q15 0 24 -10t8 -30v-12q-8 -55 -11 -77q-26 -166 -44 -307q-9 -65 -9 -108t7 -79q4 -20 8 -30q14 -32 35 -32q14 0 30 12t32 27t22 21q9 7 17 18.5t12 16.5l112 150q7 11 7 27q9 117 46 214q10 31 33 70q7 12 31 30q8 5 16 5t17 -6q10 -7 10 -19
q0 -6 -3 -14q-2 -6 -7 -18t-8 -22q-21 -59 -32 -153q-13 -107 -13 -225v-44q0 -50 24 -79.5t63 -29.5q51 0 113 49t120 147q6 10 16 10q8 0 14.5 -7t6.5 -17q0 -7 -4 -14q-40 -69 -93.5 -122.5t-110 -83t-104.5 -29.5q-52 0 -86 36t-42 110q-3 25 -4 43.5t-2 30.5l-1 24
l-2 23q-7 0 -23.5 -21.5t-43.5 -63.5l-25 -37q-77 -114 -150 -114q-36 0 -69 29q-20 18 -27 39t-15 61q-11 47 -11 89q0 140 16.5 288.5t50.5 203.5q8 14 22 22zM293 783q19 23 47.5 66.5t47.5 81.5h106v-10q-21 -31 -66.5 -78.5t-76.5 -71.5h-58v12z" />
    <glyph glyph-name="Ucircumflex" unicode="&#xdb;" horiz-adv-x="730" 
d="M189 782q61 65 86 96.5t37 52.5h90q25 -49 125 -149v-11h-62q-44 26 -109 90q-64 -62 -107 -90h-60v11zM89 717q14 8 27 8q15 0 24 -10t8 -30v-12q-8 -55 -11 -77q-26 -166 -44 -307q-9 -65 -9 -108t7 -79q4 -20 8 -30q14 -32 35 -32q14 0 30 12t32 27t22 21q9 7 17 18.5
t12 16.5l112 150q7 11 7 27q9 117 46 214q10 31 33 70q7 12 31 30q8 5 16 5t17 -6q10 -7 10 -19q0 -6 -3 -14q-2 -6 -7 -18t-8 -22q-21 -59 -32 -153q-13 -107 -13 -225v-44q0 -50 24 -79.5t63 -29.5q51 0 113 49t120 147q6 10 16 10q8 0 14.5 -7t6.5 -17q0 -7 -4 -14
q-40 -69 -93.5 -122.5t-110 -83t-104.5 -29.5q-52 0 -86 36t-42 110q-3 25 -4 43.5t-2 30.5l-1 24l-2 23q-7 0 -23.5 -21.5t-43.5 -63.5l-25 -37q-77 -114 -150 -114q-36 0 -69 29q-20 18 -27 39t-15 61q-11 47 -11 89q0 140 16.5 288.5t50.5 203.5q8 14 22 22z" />
    <glyph glyph-name="Udieresis" unicode="&#xdc;" horiz-adv-x="765" 
d="M399 762q7 -7 7 -16q2 -8 -7.5 -18t-19.5 -10q-7 0 -12.5 7t-6.5 17q0 12 7 19.5t16 7.5t16 -7zM279 782q7 -7 7 -16q2 -8 -7.5 -18t-19.5 -10q-7 0 -12.5 7t-6.5 17q0 12 7 19.5t16 7.5t16 -7zM89 717q14 8 27 8q15 0 24 -10t8 -30v-12q-8 -55 -11 -77
q-26 -166 -44 -307q-9 -65 -9 -108t7 -79q4 -20 8 -30q14 -32 35 -32q14 0 30 12t32 27t22 21q9 7 17 18.5t12 16.5l112 150q7 11 7 27q9 117 46 214q10 31 33 70q7 12 31 30q8 5 16 5t17 -6q10 -7 10 -19q0 -6 -3 -14q-2 -6 -7 -18t-8 -22q-21 -59 -32 -153
q-13 -107 -13 -225v-44q0 -50 24 -79.5t63 -29.5q51 0 113 49t120 147q6 10 16 10q8 0 14.5 -7t6.5 -17q0 -7 -4 -14q-40 -69 -93.5 -122.5t-110 -83t-104.5 -29.5q-52 0 -86 36t-42 110q-3 25 -4 43.5t-2 30.5l-1 24l-2 23q-7 0 -23.5 -21.5t-43.5 -63.5l-25 -37
q-77 -114 -150 -114q-36 0 -69 29q-20 18 -27 39t-15 61q-11 47 -11 89q0 140 16.5 288.5t50.5 203.5q8 14 22 22z" />
    <glyph glyph-name="Yacute" unicode="&#xdd;" horiz-adv-x="565" 
d="M291 653q11 0 18 -8t7 -22q0 -24 3 -35q5 -17 13 -51q7 -25 17 -63.5t25 -89.5q21 -70 48 -151l37 -117l30 -99l2.5 -7.5l3.5 -10.5l16 12q63 57 117.5 114t71.5 85q3 6 11 6q11 0 21 -9t5 -18q-32 -49 -88.5 -104t-129.5 -118q-8 -7 -11 -12.5t-1 -15.5q17 -67 17 -142
q0 -69 -16 -170q-7 -50 -27 -120q-20 -72 -75 -147q-32 -41 -75 -68q-41 -27 -85 -27q-26 0 -53 9q-86 27 -104 129q-4 23 -4 50q0 61 27 126q43 96 118 182q79 89 163 154q15 12 15 25q0 8 -2 13q-13 40 -28 92l-14 46l-26 80q-21 62 -35 107l-7 22l-27 -45
q-37 -60 -91 -60q-32 0 -66 20q-40 21 -65 70q-33 63 -41 145q-4 39 -6 118v24q0 21 6 40q4 16 13.5 24.5t23.5 8.5q28 0 36 -34q4 -22 10 -66l4 -25l30 -171q2 -12 8.5 -26t8.5 -20q5 -10 7 -12q13 -15 22.5 -22t18.5 -7q17 0 38 26q36 42 41 112q1 14 -5 44q-4 17 -5 23
q-2 16 -4 22q-8 48 -10 72q-1 6 -1 17q0 17 3 32q4 26 31 39q10 4 15 4zM399 -130q-79 -61 -172 -175q-48 -59 -84 -142q-19 -45 -19 -94q0 -31 7 -59q9 -36 37 -57.5t63 -21.5q38 0 67 25q36 29 61 74q32 60 47 123q22 98 22 214q0 57 -4 102q0 4 -4 26zM216 783
q19 23 47.5 66.5t47.5 81.5h106v-10q-21 -31 -66.5 -78.5t-76.5 -71.5h-58v12z" />
    <glyph glyph-name="Thorn" unicode="&#xde;" horiz-adv-x="604" 
d="M554 382q0 -110 -73.5 -168.5t-212.5 -58.5h-81v-155h-90v714h90v-124h96q137 0 204 -51.5t67 -156.5zM187 231h72q108 0 155 34.5t47 111.5q0 70 -44.5 103t-140.5 33h-89v-282z" />
    <glyph glyph-name="germandbls" unicode="&#xdf;" horiz-adv-x="386" 
d="M12 104l22 280l38 226q35 161 59 192q18 24 57 30q31 4 67 -11q18 -7 27 -28q7 -16 10 -37q3 -16 2 -34v-23q-9 -80 -52 -137l-51 -59l-11 -10q-18 -16 -21 -17q-9 -4 -19 -10q-3 -2 -5 -4q-3 -3 -4 -9t0 -11q1 -6 4 -8l9 -6q7 -4 14 -7q9 -4 16 -2q5 1 7 2q3 2 22 4
l23 3q68 9 86 -19q11 -17 19 -29q3 -5 11 -25l6 -15q3 -6 5 -17l1 -6q-2 -93 -28 -148q-19 -39 -20 -41q-6 -17 -32 -46q-9 -10 -30 -27q-12 -10 -36 -15q-10 -3 -13 0q-4 6 -8 11q-17 21 -22 44q-1 5 -4 18q-8 39 1 84q1 5 4 19q4 28 4 30l-18 30q-9 3 -13 2t-8 -8
q-17 -31 -26 -79q-7 -39 -2 -71q-6 -19 1 -36q4 -10 5 -19l1 -9l32 -36q16 -13 30 -22q26 -18 56 -13q36 5 53 24q34 38 40 44q120 128 71 304q-7 25 -10 36q-7 19 -10 25q-4 12 -10 16q-5 3 -13 11q-1 1 -9 7q-7 6 -12 13t-24 18l-14 8l13 23q34 60 49 131q12 59 3 130
q-2 15 -13 44q-2 5 -6 7q-4 1 -9 1q-5 1 -8 4q-3 4 -20 19q-50 46 -112 46q-8 0 -14 -1q-10 -2 -22 -7q-67 -28 -91 -100q-8 -25 -25 -89l-15 -56q-60 -345 -60 -894q0 -3 1 -5q3 -5 2 -6l12 19v0l4 1q-17 -24 5 -20l24 34zM366 338q2 1 4 1q-2 2 -2 6q0 3 -2 6q-1 1 -1 4
q-1 2 -3 3t-6 0zM191 503q0 -4 9 -9l11 23h-1h-1zM34 661q0 -3 3 -10q3 13 3 14q0 3 1.5 6.5t0.5 5.5q0 2 -2 5q-8 -11 -6 -21z" />
    <glyph glyph-name="agrave" unicode="&#xe0;" horiz-adv-x="561" 
d="M337 361q0 -4 -1.5 -11t-2.5 -12l-12 -60q-25 -127 -27 -136q-4 -18 -4 -57q0 -50 31 -73.5t84 -23.5q62 0 138.5 30t144.5 81.5t105 112.5q5 6 11 6q11 0 20 -11.5t3 -20.5q-49 -74 -125.5 -133.5t-161.5 -93.5t-158 -34q-69 0 -116 32.5t-62 100.5l-8 26l-20 -18
q-33 -31 -41 -37q-35 -29 -76 -29q-63 0 -82 61q-7 25 -7 53q0 32 9 63q24 88 83 163q17 22 44 40q42 30 80 30q34 0 75 -24q5 3 11 9.5t11 10t11 3.5q7 0 19 -6q24 -13 24 -42zM124 285q-36 -36 -56 -85t-20 -88q0 -22 7 -35t21 -13q13 0 32 13q24 17 42 36q32 34 46 73.5
t30 109.5q1 3 1 10q-2 20 -22 18q-45 -3 -81 -39zM335 606h-59q-37 29 -80.5 76t-61.5 74v10h105q16 -32 44.5 -76.5t51.5 -71.5v-12z" />
    <glyph glyph-name="aacute" unicode="&#xe1;" horiz-adv-x="561" 
d="M337 361q0 -4 -1.5 -11t-2.5 -12l-12 -60q-25 -127 -27 -136q-4 -18 -4 -57q0 -50 31 -73.5t84 -23.5q62 0 138.5 30t144.5 81.5t105 112.5q5 6 11 6q11 0 20 -11.5t3 -20.5q-49 -74 -125.5 -133.5t-161.5 -93.5t-158 -34q-69 0 -116 32.5t-62 100.5l-8 26l-20 -18
q-33 -31 -41 -37q-35 -29 -76 -29q-63 0 -82 61q-7 25 -7 53q0 32 9 63q24 88 83 163q17 22 44 40q42 30 80 30q34 0 75 -24q5 3 11 9.5t11 10t11 3.5q7 0 19 -6q24 -13 24 -42zM124 285q-36 -36 -56 -85t-20 -88q0 -22 7 -35t21 -13q13 0 32 13q24 17 42 36q32 34 46 73.5
t30 109.5q1 3 1 10q-2 20 -22 18q-45 -3 -81 -39zM213 618q19 23 47.5 66.5t47.5 81.5h106v-10q-21 -31 -66.5 -78.5t-76.5 -71.5h-58v12z" />
    <glyph glyph-name="acircumflex" unicode="&#xe2;" horiz-adv-x="561" 
d="M109 617q61 65 86 96.5t37 52.5h90q25 -49 125 -149v-11h-62q-44 26 -109 90q-64 -62 -107 -90h-60v11zM337 361q0 -4 -1.5 -11t-2.5 -12l-12 -60q-25 -127 -27 -136q-4 -18 -4 -57q0 -50 31 -73.5t84 -23.5q62 0 138.5 30t144.5 81.5t105 112.5q5 6 11 6q11 0 20 -11.5
t3 -20.5q-49 -74 -125.5 -133.5t-161.5 -93.5t-158 -34q-69 0 -116 32.5t-62 100.5l-8 26l-20 -18q-33 -31 -41 -37q-35 -29 -76 -29q-63 0 -82 61q-7 25 -7 53q0 32 9 63q24 88 83 163q17 22 44 40q42 30 80 30q34 0 75 -24q5 3 11 9.5t11 10t11 3.5q7 0 19 -6
q24 -13 24 -42zM124 285q-36 -36 -56 -85t-20 -88q0 -22 7 -35t21 -13q13 0 32 13q24 17 42 36q32 34 46 73.5t30 109.5q1 3 1 10q-2 20 -22 18q-45 -3 -81 -39z" />
    <glyph glyph-name="atilde" unicode="&#xe3;" horiz-adv-x="561" 
d="M356 607q-21 0 -41 9t-39.5 19.5t-37 19.5t-34.5 9q-24 0 -36 -14.5t-19 -43.5h-51q6 60 34 94t76 34q22 0 42.5 -9t39.5 -19.5t37 -19.5t33 -9q23 0 35.5 14.5t19.5 43.5h50q-6 -58 -34 -93t-75 -35zM337 361q0 -4 -1.5 -11t-2.5 -12l-12 -60q-25 -127 -27 -136
q-4 -18 -4 -57q0 -50 31 -73.5t84 -23.5q62 0 138.5 30t144.5 81.5t105 112.5q5 6 11 6q11 0 20 -11.5t3 -20.5q-49 -74 -125.5 -133.5t-161.5 -93.5t-158 -34q-69 0 -116 32.5t-62 100.5l-8 26l-20 -18q-33 -31 -41 -37q-35 -29 -76 -29q-63 0 -82 61q-7 25 -7 53
q0 32 9 63q24 88 83 163q17 22 44 40q42 30 80 30q34 0 75 -24q5 3 11 9.5t11 10t11 3.5q7 0 19 -6q24 -13 24 -42zM124 285q-36 -36 -56 -85t-20 -88q0 -22 7 -35t21 -13q13 0 32 13q24 17 42 36q32 34 46 73.5t30 109.5q1 3 1 10q-2 20 -22 18q-45 -3 -81 -39z" />
    <glyph glyph-name="adieresis" unicode="&#xe4;" horiz-adv-x="785" 
d="M319 492q7 -7 7 -16q2 -8 -7.5 -18t-19.5 -10q-7 0 -12.5 7t-6.5 17q0 12 7 19.5t16 7.5t16 -7zM209 502q7 -7 7 -16q2 -8 -7.5 -18t-19.5 -10q-7 0 -12.5 7t-6.5 17q0 12 7 19.5t16 7.5t16 -7zM337 361q0 -4 -1.5 -11t-2.5 -12l-12 -60q-25 -127 -27 -136q-4 -18 -4 -57
q0 -50 31 -73.5t84 -23.5q62 0 138.5 30t144.5 81.5t105 112.5q5 6 11 6q11 0 20 -11.5t3 -20.5q-49 -74 -125.5 -133.5t-161.5 -93.5t-158 -34q-69 0 -116 32.5t-62 100.5l-8 26l-20 -18q-33 -31 -41 -37q-35 -29 -76 -29q-63 0 -82 61q-7 25 -7 53q0 32 9 63q24 88 83 163
q17 22 44 40q42 30 80 30q34 0 75 -24q5 3 11 9.5t11 10t11 3.5q7 0 19 -6q24 -13 24 -42zM124 285q-36 -36 -56 -85t-20 -88q0 -22 7 -35t21 -13q13 0 32 13q24 17 42 36q32 34 46 73.5t30 109.5q1 3 1 10q-2 20 -22 18q-45 -3 -81 -39z" />
    <glyph glyph-name="aring" unicode="&#xe5;" horiz-adv-x="561" 
d="M397 713q0 -49 -30.5 -78t-80.5 -29t-79.5 28.5t-29.5 77.5q0 48 29.5 76.5t79.5 28.5q49 0 80 -29t31 -75zM342 712q0 26 -16 41t-40 15t-40 -15t-16 -41t14.5 -41t41.5 -15q25 0 40.5 15t15.5 41zM337 361q0 -4 -1.5 -11t-2.5 -12l-12 -60q-25 -127 -27 -136
q-4 -18 -4 -57q0 -50 31 -73.5t84 -23.5q62 0 138.5 30t144.5 81.5t105 112.5q5 6 11 6q11 0 20 -11.5t3 -20.5q-49 -74 -125.5 -133.5t-161.5 -93.5t-158 -34q-69 0 -116 32.5t-62 100.5l-8 26l-20 -18q-33 -31 -41 -37q-35 -29 -76 -29q-63 0 -82 61q-7 25 -7 53
q0 32 9 63q24 88 83 163q17 22 44 40q42 30 80 30q34 0 75 -24q5 3 11 9.5t11 10t11 3.5q7 0 19 -6q24 -13 24 -42zM124 285q-36 -36 -56 -85t-20 -88q0 -22 7 -35t21 -13q13 0 32 13q24 17 42 36q32 34 46 73.5t30 109.5q1 3 1 10q-2 20 -22 18q-45 -3 -81 -39z" />
    <glyph glyph-name="ae" unicode="&#xe6;" horiz-adv-x="863" 
d="M46 149q0 163 244 171l90 3v34q0 60 -27.5 88.5t-84.5 28.5q-68 0 -150 -41l-27 66q35 20 84.5 33t99.5 13q62 0 102.5 -20.5t61.5 -65.5q26 42 67.5 64.5t96.5 22.5q96 0 153 -66t57 -174v-54h-343q4 -187 155 -187q43 0 80.5 8t83.5 29v-77q-43 -19 -80 -27t-87 -8
q-142 0 -203 113q-40 -61 -88.5 -87t-114.5 -26q-80 0 -125 42t-45 117zM137 148q0 -45 25.5 -66t67.5 -21q68 0 108 40t40 113v48l-75 -3q-86 -3 -126 -29t-40 -82zM602 474q-58 0 -91 -39t-39 -114h248q0 74 -30.5 113.5t-87.5 39.5z" />
    <glyph glyph-name="ccedilla" unicode="&#xe7;" horiz-adv-x="479" 
d="M162 368q34 0 73 -18q39 -20 47 -55q3 -10 3 -24q0 -11 -3 -20q-2 -9 -8 -13.5t-13 -4.5q-11 0 -19 11q-12 17 -26 23.5t-35 4.5q-30 -1 -55 -29t-39 -70t-14 -84q0 -46 19 -75.5t57 -29.5q93 0 187.5 32.5t167 84.5t102.5 107q2 3 8 3q11 0 23 -7.5t7 -14.5
q-42 -64 -123.5 -124t-191 -99.5t-230.5 -41.5q-69 -1 -104 44.5t-35 117.5q0 80 39 157t103 110q29 15 60 15zM374 -139q0 -48 -37 -74.5t-111 -26.5q-32 0 -50 5v55q18 -5 53 -5q37 0 55.5 9.5t18.5 34.5q0 43 -91 55l43 86h58l-26 -53q87 -19 87 -86z" />
    <glyph glyph-name="egrave" unicode="&#xe8;" horiz-adv-x="563" 
d="M191 384q30 0 54.5 -14t39.5 -39q13 -23 13 -53q0 -48 -36 -84q-68 -68 -155 -77q-3 0 -23 -2q3 -31 20 -56q12 -19 28 -28t39 -9q10 0 15 1q60 6 124.5 38t115.5 74t72 77q5 8 13 8t15.5 -7.5t7.5 -16.5q0 -6 -3 -11q-42 -65 -118 -119.5t-157.5 -85.5t-137.5 -31
q-68 0 -109 58q-40 56 -40 126q0 32 7 60q38 150 181 187q16 4 34 4zM134 286.5q-25 -23.5 -38.5 -57t-11.5 -67.5q60 5 104 33t56 65q1 5 1 13q0 20 -12 32t-32 12q-9 0 -14 -1q-28 -6 -53 -29.5zM353 606h-59q-37 29 -80.5 76t-61.5 74v10h105q16 -32 44.5 -76.5
t51.5 -71.5v-12z" />
    <glyph glyph-name="eacute" unicode="&#xe9;" horiz-adv-x="563" 
d="M191 384q30 0 54.5 -14t39.5 -39q13 -23 13 -53q0 -48 -36 -84q-68 -68 -155 -77q-3 0 -23 -2q3 -31 20 -56q12 -19 28 -28t39 -9q10 0 15 1q60 6 124.5 38t115.5 74t72 77q5 8 13 8t15.5 -7.5t7.5 -16.5q0 -6 -3 -11q-42 -65 -118 -119.5t-157.5 -85.5t-137.5 -31
q-68 0 -109 58q-40 56 -40 126q0 32 7 60q38 150 181 187q16 4 34 4zM134 286.5q-25 -23.5 -38.5 -57t-11.5 -67.5q60 5 104 33t56 65q1 5 1 13q0 20 -12 32t-32 12q-9 0 -14 -1q-28 -6 -53 -29.5zM228 618q19 23 47.5 66.5t47.5 81.5h106v-10q-21 -31 -66.5 -78.5
t-76.5 -71.5h-58v12z" />
    <glyph glyph-name="ecircumflex" unicode="&#xea;" horiz-adv-x="563" 
d="M124 617q61 65 86 96.5t37 52.5h90q25 -49 125 -149v-11h-62q-44 26 -109 90q-64 -62 -107 -90h-60v11zM191 384q30 0 54.5 -14t39.5 -39q13 -23 13 -53q0 -48 -36 -84q-68 -68 -155 -77q-3 0 -23 -2q3 -31 20 -56q12 -19 28 -28t39 -9q10 0 15 1q60 6 124.5 38t115.5 74
t72 77q5 8 13 8t15.5 -7.5t7.5 -16.5q0 -6 -3 -11q-42 -65 -118 -119.5t-157.5 -85.5t-137.5 -31q-68 0 -109 58q-40 56 -40 126q0 32 7 60q38 150 181 187q16 4 34 4zM134 286.5q-25 -23.5 -38.5 -57t-11.5 -67.5q60 5 104 33t56 65q1 5 1 13q0 20 -12 32t-32 12
q-9 0 -14 -1q-28 -6 -53 -29.5z" />
    <glyph glyph-name="edieresis" unicode="&#xeb;" horiz-adv-x="563" 
d="M191 384q30 0 54.5 -14t39.5 -39q13 -23 13 -53q0 -48 -36 -84q-68 -68 -155 -77q-3 0 -23 -2q3 -31 20 -56q12 -19 28 -28t39 -9q10 0 15 1q60 6 124.5 38t115.5 74t72 77q5 8 13 8t15.5 -7.5t7.5 -16.5q0 -6 -3 -11q-42 -65 -118 -119.5t-157.5 -85.5t-137.5 -31
q-68 0 -109 58q-40 56 -40 126q0 32 7 60q38 150 181 187q16 4 34 4zM134 286.5q-25 -23.5 -38.5 -57t-11.5 -67.5q60 5 104 33t56 65q1 5 1 13q0 20 -12 32t-32 12q-9 0 -14 -1q-28 -6 -53 -29.5zM154 681q0 26 13.5 37.5t33.5 11.5q19 0 33 -11.5t14 -37.5t-14 -38
t-33 -12q-20 0 -33.5 12t-13.5 38zM342 681q0 26 13.5 37.5t32.5 11.5t33 -11.5t14 -37.5t-14 -38t-33 -12t-32.5 12t-13.5 38z" />
    <glyph glyph-name="igrave" unicode="&#xec;" horiz-adv-x="257" 
d="M173 0h-88v536h88v-536zM180 606h-59q-37 29 -80.5 76t-61.5 74v10h105q16 -32 44.5 -76.5t51.5 -71.5v-12z" />
    <glyph glyph-name="iacute" unicode="&#xed;" horiz-adv-x="257" 
d="M173 0h-88v536h88v-536zM82 618q19 23 47.5 66.5t47.5 81.5h106v-10q-21 -31 -66.5 -78.5t-76.5 -71.5h-58v12z" />
    <glyph glyph-name="icircumflex" unicode="&#xee;" horiz-adv-x="257" 
d="M-40 617q61 65 86 96.5t37 52.5h90q25 -49 125 -149v-11h-62q-44 26 -109 90q-64 -62 -107 -90h-60v11zM173 0h-88v536h88v-536z" />
    <glyph glyph-name="idieresis" unicode="&#xef;" horiz-adv-x="257" 
d="M173 0h-88v536h88v-536zM-11 681q0 26 13.5 37.5t33.5 11.5q19 0 33 -11.5t14 -37.5t-14 -38t-33 -12q-20 0 -33.5 12t-13.5 38zM177 681q0 26 13.5 37.5t32.5 11.5t33 -11.5t14 -37.5t-14 -38t-33 -12t-32.5 12t-13.5 38z" />
    <glyph glyph-name="eth" unicode="&#xf0;" horiz-adv-x="604" 
d="M551 275q0 -138 -65 -211.5t-185 -73.5q-110 0 -178 66.5t-68 176.5q0 112 63.5 176t171.5 64q110 0 156 -58l4 2q-29 104 -124 191l-130 -75l-38 55l112 64q-42 28 -90 53l36 60q76 -36 126 -72l115 67l38 -54l-99 -57q74 -68 114.5 -164.5t40.5 -209.5zM462 251
q0 70 -43 110.5t-116 40.5q-81 0 -120 -42.5t-39 -129.5q0 -81 41 -124.5t118 -43.5q83 0 121 48.5t38 140.5z" />
    <glyph glyph-name="ntilde" unicode="&#xf1;" horiz-adv-x="618" 
d="M392 607q-21 0 -41 9t-39.5 19.5t-37 19.5t-34.5 9q-24 0 -36 -14.5t-19 -43.5h-51q6 60 34 94t76 34q22 0 42.5 -9t39.5 -19.5t37 -19.5t33 -9q23 0 35.5 14.5t19.5 43.5h50q-6 -58 -34 -93t-75 -35zM-34 397q11 0 19 -9q13 -13 20 -27q20 -34 31 -72t20 -89l4 -27
l25 29q8 10 15 18t13 15q39 42 76 61q24 12 47 12q43 0 72 -38q34 -41 34 -95q0 -8 -2 -26q-3 -15 -11 -45q-1 -7 -8 -34q-12 -56 -16 -89q-1 -4 -1 -10q0 -18 16 -18q6 0 15 3q12 3 25.5 10t17.5 9q57 27 112.5 75.5t96.5 96t54 70.5q3 5 10 5q11 0 20.5 -9.5t4.5 -20.5
q-7 -16 -54.5 -69.5t-109.5 -109.5t-116 -86q-45 -25 -87 -25q-48 0 -77 26t-29 70q0 27 5.5 52.5t17.5 61.5q12 31 22 63q3 12 3 23q0 14 -5 31q-9 20 -23 20q-8 0 -15 -3q-25 -12 -40 -25q-50 -41 -93 -99q-7 -12 -9 -26q-2 -9 -4 -23.5t-4 -23.5q-2 -15 -11.5 -23.5
t-24.5 -8.5q-17 0 -30 16q-21 28 -24 69l-3 38q-6 74 -10 107q-1 13 -11 62l-6 27q-1 6 -2.5 13t-2.5 15q0 21 17 29q10 4 16 4z" />
    <glyph glyph-name="ograve" unicode="&#xf2;" horiz-adv-x="604" 
d="M120 330q16 0 29 -7q22 -11 22 -34q0 -10 -5.5 -16t-15.5 -11q-35 -14 -59 -57q-30 -55 -30 -106q0 -29 15.5 -47t44.5 -21q18 -2 38 7t46 27l-27 15q-37 24 -37 62q0 9 1 14q10 48 63 59q10 3 20 3q33 0 56 -31q24 -30 24 -73l24 -1q83 0 155 28.5t93 68.5q2 4 13 1.5
t19.5 -9.5t4.5 -13q-27 -49 -113 -87.5t-190 -46.5q-24 -1 -33 -19q-47 -81 -144 -94q-6 -1 -19 -1q-39 0 -74 17.5t-56.5 52t-21.5 80.5q0 103 64 185q27 34 66 49q15 5 27 5zM367 606h-59q-37 29 -80.5 76t-61.5 74v10h105q16 -32 44.5 -76.5t51.5 -71.5v-12z" />
    <glyph glyph-name="oacute" unicode="&#xf3;" horiz-adv-x="604" 
d="M120 330q16 0 29 -7q22 -11 22 -34q0 -10 -5.5 -16t-15.5 -11q-35 -14 -59 -57q-30 -55 -30 -106q0 -29 15.5 -47t44.5 -21q18 -2 38 7t46 27l-27 15q-37 24 -37 62q0 9 1 14q10 48 63 59q10 3 20 3q33 0 56 -31q24 -30 24 -73l24 -1q83 0 155 28.5t93 68.5q2 4 13 1.5
t19.5 -9.5t4.5 -13q-27 -49 -113 -87.5t-190 -46.5q-24 -1 -33 -19q-47 -81 -144 -94q-6 -1 -19 -1q-39 0 -74 17.5t-56.5 52t-21.5 80.5q0 103 64 185q27 34 66 49q15 5 27 5zM233 618q19 23 47.5 66.5t47.5 81.5h106v-10q-21 -31 -66.5 -78.5t-76.5 -71.5h-58v12z" />
    <glyph glyph-name="ocircumflex" unicode="&#xf4;" horiz-adv-x="604" 
d="M133 617q61 65 86 96.5t37 52.5h90q25 -49 125 -149v-11h-62q-44 26 -109 90q-64 -62 -107 -90h-60v11zM120 330q16 0 29 -7q22 -11 22 -34q0 -10 -5.5 -16t-15.5 -11q-35 -14 -59 -57q-30 -55 -30 -106q0 -29 15.5 -47t44.5 -21q18 -2 38 7t46 27l-27 15q-37 24 -37 62
q0 9 1 14q10 48 63 59q10 3 20 3q33 0 56 -31q24 -30 24 -73l24 -1q83 0 155 28.5t93 68.5q2 4 13 1.5t19.5 -9.5t4.5 -13q-27 -49 -113 -87.5t-190 -46.5q-24 -1 -33 -19q-47 -81 -144 -94q-6 -1 -19 -1q-39 0 -74 17.5t-56.5 52t-21.5 80.5q0 103 64 185q27 34 66 49
q15 5 27 5z" />
    <glyph glyph-name="otilde" unicode="&#xf5;" horiz-adv-x="604" 
d="M379 607q-21 0 -41 9t-39.5 19.5t-37 19.5t-34.5 9q-24 0 -36 -14.5t-19 -43.5h-51q6 60 34 94t76 34q22 0 42.5 -9t39.5 -19.5t37 -19.5t33 -9q23 0 35.5 14.5t19.5 43.5h50q-6 -58 -34 -93t-75 -35zM120 330q16 0 29 -7q22 -11 22 -34q0 -10 -5.5 -16t-15.5 -11
q-35 -14 -59 -57q-30 -55 -30 -106q0 -29 15.5 -47t44.5 -21q18 -2 38 7t46 27l-27 15q-37 24 -37 62q0 9 1 14q10 48 63 59q10 3 20 3q33 0 56 -31q24 -30 24 -73l24 -1q83 0 155 28.5t93 68.5q2 4 13 1.5t19.5 -9.5t4.5 -13q-27 -49 -113 -87.5t-190 -46.5q-24 -1 -33 -19
q-47 -81 -144 -94q-6 -1 -19 -1q-39 0 -74 17.5t-56.5 52t-21.5 80.5q0 103 64 185q27 34 66 49q15 5 27 5z" />
    <glyph glyph-name="odieresis" unicode="&#xf6;" horiz-adv-x="570" 
d="M329 362q7 -7 7 -16q2 -8 -7.5 -18t-19.5 -10q-7 0 -12.5 7t-6.5 17q0 12 7 19.5t16 7.5t16 -7zM229 392q5 -6 7 -16q2 -8 -8 -18q-9 -10 -19 -10q-7 0 -12 7q-6 7 -7 17q0 12 7 19q7 8 16 8t16 -7zM120 330q16 0 29 -7q22 -11 22 -34q0 -10 -5.5 -16t-15.5 -11
q-35 -14 -59 -57q-30 -55 -30 -106q0 -29 15.5 -47t44.5 -21q18 -2 38 7t46 27l-27 15q-37 24 -37 62q0 9 1 14q10 48 63 59q10 3 20 3q33 0 56 -31q24 -30 24 -73l24 -1q83 0 155 28.5t93 68.5q2 4 13 1.5t19.5 -9.5t4.5 -13q-27 -49 -113 -87.5t-190 -46.5q-24 -1 -33 -19
q-47 -81 -144 -94q-6 -1 -19 -1q-39 0 -74 17.5t-56.5 52t-21.5 80.5q0 103 64 185q27 34 66 49q15 5 27 5z" />
    <glyph glyph-name="divide" unicode="&#xf7;" horiz-adv-x="550" 
d="M50 286v73h451v-73h-451zM219 156q0 17 4.5 28.5t12 19t17.5 10.5t22 3q11 0 21.5 -3t18 -10.5t12 -19t4.5 -28.5q0 -16 -4.5 -27.5t-12 -19t-18 -11t-21.5 -3.5q-12 0 -22 3.5t-17.5 11t-12 19t-4.5 27.5zM219 497q0 17 4.5 28.5t12 19t17.5 10.5t22 3q11 0 21.5 -3
t18 -10.5t12 -19t4.5 -28.5q0 -16 -4.5 -27.5t-12 -19t-18 -11t-21.5 -3.5q-12 0 -22 3.5t-17.5 11t-12 19t-4.5 27.5zM221 622z" />
    <glyph glyph-name="oslash" unicode="&#xf8;" horiz-adv-x="604" 
d="M551 269q0 -131 -66.5 -205t-183.5 -74q-74 0 -129 33l-40 -56l-58 39l45 62q-64 76 -64 201q0 131 65.5 204t183.5 73q74 0 131 -36l39 56l59 -38l-45 -63q63 -76 63 -196zM146 269q0 -81 24 -128l220 306q-36 25 -88 25q-156 0 -156 -203zM460 269q0 74 -23 123
l-220 -306q34 -23 86 -23q77 0 117 52.5t40 153.5z" />
    <glyph glyph-name="ugrave" unicode="&#xf9;" horiz-adv-x="618" 
d="M50 349q11 0 19.5 -6.5t11.5 -18.5q4 -18 4 -27q0 -5 -2 -17q-8 -56 -8 -106l1 -28q1 -57 21 -57q16 0 46 33.5t94 117.5l23 30q12 14 40 34q11 10 26 10q22 0 32 -25q10 -33 13 -59q9 -107 40.5 -165t80.5 -58q46 0 103 50.5t122 152.5q5 6 12 6q11 0 20.5 -9t4.5 -18
q-74 -121 -147.5 -180t-137.5 -59q-51 0 -92.5 36t-67 101t-31.5 151q2 3 -24 -34l-16 -24q-60 -87 -67 -97q-29 -41 -89 -38q-29 3 -49 20q-25 20 -38.5 60.5t-13.5 85.5q0 41 12 76t34 53q11 9 23 9zM360 606h-59q-37 29 -80.5 76t-61.5 74v10h105q16 -32 44.5 -76.5
t51.5 -71.5v-12z" />
    <glyph glyph-name="uacute" unicode="&#xfa;" horiz-adv-x="618" 
d="M50 349q11 0 19.5 -6.5t11.5 -18.5q4 -18 4 -27q0 -5 -2 -17q-8 -56 -8 -106l1 -28q1 -57 21 -57q16 0 46 33.5t94 117.5l23 30q12 14 40 34q11 10 26 10q22 0 32 -25q10 -33 13 -59q9 -107 40.5 -165t80.5 -58q46 0 103 50.5t122 152.5q5 6 12 6q11 0 20.5 -9t4.5 -18
q-74 -121 -147.5 -180t-137.5 -59q-51 0 -92.5 36t-67 101t-31.5 151q2 3 -24 -34l-16 -24q-60 -87 -67 -97q-29 -41 -89 -38q-29 3 -49 20q-25 20 -38.5 60.5t-13.5 85.5q0 41 12 76t34 53q11 9 23 9zM246 618q19 23 47.5 66.5t47.5 81.5h106v-10q-21 -31 -66.5 -78.5
t-76.5 -71.5h-58v12z" />
    <glyph glyph-name="ucircumflex" unicode="&#xfb;" horiz-adv-x="618" 
d="M137 617q61 65 86 96.5t37 52.5h90q25 -49 125 -149v-11h-62q-44 26 -109 90q-64 -62 -107 -90h-60v11zM50 349q11 0 19.5 -6.5t11.5 -18.5q4 -18 4 -27q0 -5 -2 -17q-8 -56 -8 -106l1 -28q1 -57 21 -57q16 0 46 33.5t94 117.5l23 30q12 14 40 34q11 10 26 10
q22 0 32 -25q10 -33 13 -59q9 -107 40.5 -165t80.5 -58q46 0 103 50.5t122 152.5q5 6 12 6q11 0 20.5 -9t4.5 -18q-74 -121 -147.5 -180t-137.5 -59q-51 0 -92.5 36t-67 101t-31.5 151q2 3 -24 -34l-16 -24q-60 -87 -67 -97q-29 -41 -89 -38q-29 3 -49 20q-25 20 -38.5 60.5
t-13.5 85.5q0 41 12 76t34 53q11 9 23 9z" />
    <glyph glyph-name="udieresis" unicode="&#xfc;" horiz-adv-x="710" 
d="M279 412q7 -7 7 -16q2 -8 -7.5 -18t-19.5 -10q-7 0 -12.5 7t-6.5 17q0 12 7 19.5t16 7.5t16 -7zM169 422q7 -7 7 -16q2 -8 -7.5 -18t-19.5 -10q-7 0 -12.5 7t-6.5 17q0 12 7 19.5t16 7.5t16 -7zM50 349q11 0 19.5 -6.5t11.5 -18.5q4 -18 4 -27q0 -5 -2 -17
q-8 -56 -8 -106l1 -28q1 -57 21 -57q16 0 46 33.5t94 117.5l23 30q12 14 40 34q11 10 26 10q22 0 32 -25q10 -33 13 -59q9 -107 40.5 -165t80.5 -58q46 0 103 50.5t122 152.5q5 6 12 6q11 0 20.5 -9t4.5 -18q-74 -121 -147.5 -180t-137.5 -59q-51 0 -92.5 36t-67 101
t-31.5 151q2 3 -24 -34l-16 -24q-60 -87 -67 -97q-29 -41 -89 -38q-29 3 -49 20q-25 20 -38.5 60.5t-13.5 85.5q0 41 12 76t34 53q11 9 23 9z" />
    <glyph glyph-name="yacute" unicode="&#xfd;" horiz-adv-x="509" 
d="M332 362l10 -37q19 -72 28 -116q16 -76 30 -158l15 -79l4 -16q16 10 76 58t119 103t84 95q6 9 12 9q10 0 18.5 -13.5t5.5 -18.5q-57 -92 -278 -257l-18 -14q-12 -10 -10 -28q13 -104 13 -168q0 -27 -1 -41q-3 -68 -35 -122q-35 -55 -87 -55q-16 0 -34 6q-38 12 -59.5 39
t-21.5 64q0 9 1 14q6 35 20 72q15 35 35 67.5t53 79.5q11 14 11 27q0 3 -2 11q-13 67 -37 199q-6 35 -14 103l-5 36l-3 31l-7 1l-30 -47q-43 -62 -91 -91q-25 -15 -51 -15q-27 0 -49.5 16.5t-32.5 46.5q-9 26 -9 51t9 57q11 39 31 81q7 15 26 26q11 7 19 7t18 -8
q10 -7 10 -20q0 -4 -2 -14q-7 -29 -19 -87q-6 -36 -6 -54l-1 -11q0 -20 13 -25q6 -3 11 -3q11 0 26 13q39 29 80 88q26 40 38 61q8 12 15 34q10 34 34 34q28 0 38 -32zM279 -277q-25 -43 -31 -86q-2 -24 4 -42q4 -19 21 -31.5t36 -12.5q29 0 44 39q9 21 9 45q0 12 -1 18
q-8 60 -14 91q-5 36 -10 59q-3 0 -8 3q-30 -52 -50 -83zM200 618q19 23 47.5 66.5t47.5 81.5h106v-10q-21 -31 -66.5 -78.5t-76.5 -71.5h-58v12z" />
    <glyph glyph-name="thorn" unicode="&#xfe;" horiz-adv-x="615" 
d="M174 464q33 44 73.5 63t92.5 19q104 0 162 -73t58 -204t-58 -205t-162 -74q-108 0 -167 78h-6q6 -64 6 -84v-224h-88v1000h88v-224q0 -34 -3 -72h4zM325 472q-79 0 -115 -43.5t-37 -140.5v-19q0 -109 36 -157.5t117 -48.5q143 0 143 207q0 102 -35 152t-109 50z" />
    <glyph glyph-name="ydieresis" unicode="&#xff;" horiz-adv-x="509" 
d="M332 362l10 -37q19 -72 28 -116q16 -76 30 -158l15 -79l4 -16q16 10 76 58t119 103t84 95q6 9 12 9q10 0 18.5 -13.5t5.5 -18.5q-57 -92 -278 -257l-18 -14q-12 -10 -10 -28q13 -104 13 -168q0 -27 -1 -41q-3 -68 -35 -122q-35 -55 -87 -55q-16 0 -34 6q-38 12 -59.5 39
t-21.5 64q0 9 1 14q6 35 20 72q15 35 35 67.5t53 79.5q11 14 11 27q0 3 -2 11q-13 67 -37 199q-6 35 -14 103l-5 36l-3 31l-7 1l-30 -47q-43 -62 -91 -91q-25 -15 -51 -15q-27 0 -49.5 16.5t-32.5 46.5q-9 26 -9 51t9 57q11 39 31 81q7 15 26 26q11 7 19 7t18 -8
q10 -7 10 -20q0 -4 -2 -14q-7 -29 -19 -87q-6 -36 -6 -54l-1 -11q0 -20 13 -25q6 -3 11 -3q11 0 26 13q39 29 80 88q26 40 38 61q8 12 15 34q10 34 34 34q28 0 38 -32zM279 -277q-25 -43 -31 -86q-2 -24 4 -42q4 -19 21 -31.5t36 -12.5q29 0 44 39q9 21 9 45q0 12 -1 18
q-8 60 -14 91q-5 36 -10 59q-3 0 -8 3q-30 -52 -50 -83zM114 681q0 26 13.5 37.5t33.5 11.5q19 0 33 -11.5t14 -37.5t-14 -38t-33 -12q-20 0 -33.5 12t-13.5 38zM302 681q0 26 13.5 37.5t32.5 11.5t33 -11.5t14 -37.5t-14 -38t-33 -12t-32.5 12t-13.5 38z" />
    <glyph glyph-name="Amacron" unicode="&#x100;" horiz-adv-x="639" 
d="M178 842h297v-71h-297v71zM272 759q21 0 36.5 -13t18.5 -30v-4q0 -17 -17 -17q-5 0 -8 1t-10 1q-48 0 -94.5 -86.5t-76.5 -211t-30 -226.5q0 -25 1 -37q1 -13 5 -29t5 -21q5 -16 15.5 -25t25.5 -9q7 0 16 3q31 12 55 35t48 62q32 53 37 122q3 58 21 170q6 32 8 48
q5 31 22 102q3 17 11 51q4 23 11 35q8 15 24 31q8 8 18 8q7 0 13 -3q7 -4 8.5 -10.5t0.5 -15.5l-25 -212l-12 -123q-8 -82 -13 -123q-2 -30 -2 -47q0 -60 12 -118t36.5 -96.5t60.5 -38.5q7 0 10 1q76 10 163 88t151 189q6 11 21 11q11 0 18 -7t3 -17q-45 -81 -110.5 -156.5
t-140.5 -124t-143 -48.5q-50 0 -81 31.5t-47 75.5t-33 114l-6 26q-4 -5 -36 -52q-30 -43 -80 -66q-25 -12 -52 -12q-37 0 -67.5 21.5t-43.5 59.5q-17 46 -18 90q-1 14 -1 42q0 117 31.5 233t88 203t128.5 120q10 5 24 5z" />
    <glyph glyph-name="amacron" unicode="&#x101;" horiz-adv-x="561" 
d="M143 677h297v-71h-297v71zM337 361q0 -4 -1.5 -11t-2.5 -12l-12 -60q-25 -127 -27 -136q-4 -18 -4 -57q0 -50 31 -73.5t84 -23.5q62 0 138.5 30t144.5 81.5t105 112.5q5 6 11 6q11 0 20 -11.5t3 -20.5q-49 -74 -125.5 -133.5t-161.5 -93.5t-158 -34q-69 0 -116 32.5
t-62 100.5l-8 26l-20 -18q-33 -31 -41 -37q-35 -29 -76 -29q-63 0 -82 61q-7 25 -7 53q0 32 9 63q24 88 83 163q17 22 44 40q42 30 80 30q34 0 75 -24q5 3 11 9.5t11 10t11 3.5q7 0 19 -6q24 -13 24 -42zM124 285q-36 -36 -56 -85t-20 -88q0 -22 7 -35t21 -13q13 0 32 13
q24 17 42 36q32 34 46 73.5t30 109.5q1 3 1 10q-2 20 -22 18q-45 -3 -81 -39z" />
    <glyph glyph-name="Abreve" unicode="&#x102;" horiz-adv-x="639" 
d="M316 771q-69 0 -108.5 33.5t-44.5 100.5h54q4 -35 24.5 -49t76.5 -14q49 0 73 15.5t28 47.5h55q-6 -64 -48 -99t-110 -35zM272 759q21 0 36.5 -13t18.5 -30v-4q0 -17 -17 -17q-5 0 -8 1t-10 1q-48 0 -94.5 -86.5t-76.5 -211t-30 -226.5q0 -25 1 -37q1 -13 5 -29t5 -21
q5 -16 15.5 -25t25.5 -9q7 0 16 3q31 12 55 35t48 62q32 53 37 122q3 58 21 170q6 32 8 48q5 31 22 102q3 17 11 51q4 23 11 35q8 15 24 31q8 8 18 8q7 0 13 -3q7 -4 8.5 -10.5t0.5 -15.5l-25 -212l-12 -123q-8 -82 -13 -123q-2 -30 -2 -47q0 -60 12 -118t36.5 -96.5
t60.5 -38.5q7 0 10 1q76 10 163 88t151 189q6 11 21 11q11 0 18 -7t3 -17q-45 -81 -110.5 -156.5t-140.5 -124t-143 -48.5q-50 0 -81 31.5t-47 75.5t-33 114l-6 26q-4 -5 -36 -52q-30 -43 -80 -66q-25 -12 -52 -12q-37 0 -67.5 21.5t-43.5 59.5q-17 46 -18 90q-1 14 -1 42
q0 117 31.5 233t88 203t128.5 120q10 5 24 5z" />
    <glyph glyph-name="abreve" unicode="&#x103;" horiz-adv-x="561" 
d="M281 606q-69 0 -108.5 33.5t-44.5 100.5h54q4 -35 24.5 -49t76.5 -14q49 0 73 15.5t28 47.5h55q-6 -64 -48 -99t-110 -35zM337 361q0 -4 -1.5 -11t-2.5 -12l-12 -60q-25 -127 -27 -136q-4 -18 -4 -57q0 -50 31 -73.5t84 -23.5q62 0 138.5 30t144.5 81.5t105 112.5
q5 6 11 6q11 0 20 -11.5t3 -20.5q-49 -74 -125.5 -133.5t-161.5 -93.5t-158 -34q-69 0 -116 32.5t-62 100.5l-8 26l-20 -18q-33 -31 -41 -37q-35 -29 -76 -29q-63 0 -82 61q-7 25 -7 53q0 32 9 63q24 88 83 163q17 22 44 40q42 30 80 30q34 0 75 -24q5 3 11 9.5t11 10
t11 3.5q7 0 19 -6q24 -13 24 -42zM124 285q-36 -36 -56 -85t-20 -88q0 -22 7 -35t21 -13q13 0 32 13q24 17 42 36q32 34 46 73.5t30 109.5q1 3 1 10q-2 20 -22 18q-45 -3 -81 -39z" />
    <glyph glyph-name="Aogonek" unicode="&#x104;" horiz-adv-x="639" 
d="M540 -116q0 -22 12 -33.5t33 -11.5t48 6v-56q-34 -9 -62 -9q-103 0 -103 94q0 68 78 126h62q-34 -32 -51 -58.5t-17 -57.5zM272 759q21 0 36.5 -13t18.5 -30v-4q0 -17 -17 -17q-5 0 -8 1t-10 1q-48 0 -94.5 -86.5t-76.5 -211t-30 -226.5q0 -25 1 -37q1 -13 5 -29t5 -21
q5 -16 15.5 -25t25.5 -9q7 0 16 3q31 12 55 35t48 62q32 53 37 122q3 58 21 170q6 32 8 48q5 31 22 102q3 17 11 51q4 23 11 35q8 15 24 31q8 8 18 8q7 0 13 -3q7 -4 8.5 -10.5t0.5 -15.5l-25 -212l-12 -123q-8 -82 -13 -123q-2 -30 -2 -47q0 -60 12 -118t36.5 -96.5
t60.5 -38.5q7 0 10 1q76 10 163 88t151 189q6 11 21 11q11 0 18 -7t3 -17q-45 -81 -110.5 -156.5t-140.5 -124t-143 -48.5q-50 0 -81 31.5t-47 75.5t-33 114l-6 26q-4 -5 -36 -52q-30 -43 -80 -66q-25 -12 -52 -12q-37 0 -67.5 21.5t-43.5 59.5q-17 46 -18 90q-1 14 -1 42
q0 117 31.5 233t88 203t128.5 120q10 5 24 5z" />
    <glyph glyph-name="aogonek" unicode="&#x105;" horiz-adv-x="561" 
d="M410 -116q0 -22 12 -33.5t33 -11.5t48 6v-56q-34 -9 -62 -9q-103 0 -103 94q0 68 78 126h62q-34 -32 -51 -58.5t-17 -57.5zM337 361q0 -4 -1.5 -11t-2.5 -12l-12 -60q-25 -127 -27 -136q-4 -18 -4 -57q0 -50 31 -73.5t84 -23.5q62 0 138.5 30t144.5 81.5t105 112.5
q5 6 11 6q11 0 20 -11.5t3 -20.5q-49 -74 -125.5 -133.5t-161.5 -93.5t-158 -34q-69 0 -116 32.5t-62 100.5l-8 26l-20 -18q-33 -31 -41 -37q-35 -29 -76 -29q-63 0 -82 61q-7 25 -7 53q0 32 9 63q24 88 83 163q17 22 44 40q42 30 80 30q34 0 75 -24q5 3 11 9.5t11 10
t11 3.5q7 0 19 -6q24 -13 24 -42zM124 285q-36 -36 -56 -85t-20 -88q0 -22 7 -35t21 -13q13 0 32 13q24 17 42 36q32 34 46 73.5t30 109.5q1 3 1 10q-2 20 -22 18q-45 -3 -81 -39z" />
    <glyph glyph-name="Cacute" unicode="&#x106;" horiz-adv-x="631" 
d="M358 701q36 -50 44 -97q2 -9 6 -28t5 -34q1 -4 1 -12q0 -7 -2 -19q-2 -4 -5.5 -7.5t-7.5 -3.5h-1q-8 0 -14 8q-3 4 -6 16q-12 38 -20 67q-12 39 -39 69q-16 16 -26 21q-17 9 -29 9q-17 0 -34 -26q-34 -54 -66 -146.5t-52 -197t-20 -193.5q0 -86 20 -142q10 -29 25 -40.5
t43 -11.5q90 0 169 77.5t151 199.5q9 13 19 13q9 0 15.5 -6.5t6.5 -15.5q0 -7 -5 -15q-89 -138 -171 -216.5t-187 -96.5q-9 -2 -27 -2q-64 0 -99.5 52.5t-45.5 133.5q-6 39 -6 87q0 87 17.5 188.5t50.5 194t78 151.5q22 31 40 48q29 30 67 30q20 0 40 -7q40 -14 65 -48z
M318 783q19 23 47.5 66.5t47.5 81.5h106v-10q-21 -31 -66.5 -78.5t-76.5 -71.5h-58v12z" />
    <glyph glyph-name="cacute" unicode="&#x107;" horiz-adv-x="479" 
d="M162 368q34 0 73 -18q39 -20 47 -55q3 -10 3 -24q0 -11 -3 -20q-2 -9 -8 -13.5t-13 -4.5q-11 0 -19 11q-12 17 -26 23.5t-35 4.5q-30 -1 -55 -29t-39 -70t-14 -84q0 -46 19 -75.5t57 -29.5q93 0 187.5 32.5t167 84.5t102.5 107q2 3 8 3q11 0 23 -7.5t7 -14.5
q-42 -64 -123.5 -124t-191 -99.5t-230.5 -41.5q-69 -1 -104 44.5t-35 117.5q0 80 39 157t103 110q29 15 60 15zM224 618q19 23 47.5 66.5t47.5 81.5h106v-10q-21 -31 -66.5 -78.5t-76.5 -71.5h-58v12z" />
    <glyph glyph-name="Ccircumflex" unicode="&#x108;" horiz-adv-x="631" 
d="M220 782q61 65 86 96.5t37 52.5h90q25 -49 125 -149v-11h-62q-44 26 -109 90q-64 -62 -107 -90h-60v11zM358 701q36 -50 44 -97q2 -9 6 -28t5 -34q1 -4 1 -12q0 -7 -2 -19q-2 -4 -5.5 -7.5t-7.5 -3.5h-1q-8 0 -14 8q-3 4 -6 16q-12 38 -20 67q-12 39 -39 69
q-16 16 -26 21q-17 9 -29 9q-17 0 -34 -26q-34 -54 -66 -146.5t-52 -197t-20 -193.5q0 -86 20 -142q10 -29 25 -40.5t43 -11.5q90 0 169 77.5t151 199.5q9 13 19 13q9 0 15.5 -6.5t6.5 -15.5q0 -7 -5 -15q-89 -138 -171 -216.5t-187 -96.5q-9 -2 -27 -2q-64 0 -99.5 52.5
t-45.5 133.5q-6 39 -6 87q0 87 17.5 188.5t50.5 194t78 151.5q22 31 40 48q29 30 67 30q20 0 40 -7q40 -14 65 -48z" />
    <glyph glyph-name="ccircumflex" unicode="&#x109;" horiz-adv-x="479" 
d="M118 617q61 65 86 96.5t37 52.5h90q25 -49 125 -149v-11h-62q-44 26 -109 90q-64 -62 -107 -90h-60v11zM162 368q34 0 73 -18q39 -20 47 -55q3 -10 3 -24q0 -11 -3 -20q-2 -9 -8 -13.5t-13 -4.5q-11 0 -19 11q-12 17 -26 23.5t-35 4.5q-30 -1 -55 -29t-39 -70t-14 -84
q0 -46 19 -75.5t57 -29.5q93 0 187.5 32.5t167 84.5t102.5 107q2 3 8 3q11 0 23 -7.5t7 -14.5q-42 -64 -123.5 -124t-191 -99.5t-230.5 -41.5q-69 -1 -104 44.5t-35 117.5q0 80 39 157t103 110q29 15 60 15z" />
    <glyph glyph-name="Cdotaccent" unicode="&#x10a;" horiz-adv-x="631" 
d="M337 846q0 29 15 42.5t37 13.5q21 0 36 -13.5t15 -42.5t-15.5 -42.5t-35.5 -13.5q-22 0 -37 13.5t-15 42.5zM358 701q36 -50 44 -97q2 -9 6 -28t5 -34q1 -4 1 -12q0 -7 -2 -19q-2 -4 -5.5 -7.5t-7.5 -3.5h-1q-8 0 -14 8q-3 4 -6 16q-12 38 -20 67q-12 39 -39 69
q-16 16 -26 21q-17 9 -29 9q-17 0 -34 -26q-34 -54 -66 -146.5t-52 -197t-20 -193.5q0 -86 20 -142q10 -29 25 -40.5t43 -11.5q90 0 169 77.5t151 199.5q9 13 19 13q9 0 15.5 -6.5t6.5 -15.5q0 -7 -5 -15q-89 -138 -171 -216.5t-187 -96.5q-9 -2 -27 -2q-64 0 -99.5 52.5
t-45.5 133.5q-6 39 -6 87q0 87 17.5 188.5t50.5 194t78 151.5q22 31 40 48q29 30 67 30q20 0 40 -7q40 -14 65 -48z" />
    <glyph glyph-name="cdotaccent" unicode="&#x10b;" horiz-adv-x="479" 
d="M241 681q0 29 15 42.5t37 13.5q21 0 36 -13.5t15 -42.5t-15.5 -42.5t-35.5 -13.5q-22 0 -37 13.5t-15 42.5zM162 368q34 0 73 -18q39 -20 47 -55q3 -10 3 -24q0 -11 -3 -20q-2 -9 -8 -13.5t-13 -4.5q-11 0 -19 11q-12 17 -26 23.5t-35 4.5q-30 -1 -55 -29t-39 -70
t-14 -84q0 -46 19 -75.5t57 -29.5q93 0 187.5 32.5t167 84.5t102.5 107q2 3 8 3q11 0 23 -7.5t7 -14.5q-42 -64 -123.5 -124t-191 -99.5t-230.5 -41.5q-69 -1 -104 44.5t-35 117.5q0 80 39 157t103 110q29 15 60 15z" />
    <glyph glyph-name="Ccaron" unicode="&#x10c;" horiz-adv-x="631" 
d="M220 931h60q56 -36 107 -92q62 62 109 92h62v-13q-100 -100 -125 -147h-90q-29 50 -123 147v13zM358 701q36 -50 44 -97q2 -9 6 -28t5 -34q1 -4 1 -12q0 -7 -2 -19q-2 -4 -5.5 -7.5t-7.5 -3.5h-1q-8 0 -14 8q-3 4 -6 16q-12 38 -20 67q-12 39 -39 69q-16 16 -26 21
q-17 9 -29 9q-17 0 -34 -26q-34 -54 -66 -146.5t-52 -197t-20 -193.5q0 -86 20 -142q10 -29 25 -40.5t43 -11.5q90 0 169 77.5t151 199.5q9 13 19 13q9 0 15.5 -6.5t6.5 -15.5q0 -7 -5 -15q-89 -138 -171 -216.5t-187 -96.5q-9 -2 -27 -2q-64 0 -99.5 52.5t-45.5 133.5
q-6 39 -6 87q0 87 17.5 188.5t50.5 194t78 151.5q22 31 40 48q29 30 67 30q20 0 40 -7q40 -14 65 -48z" />
    <glyph glyph-name="ccaron" unicode="&#x10d;" horiz-adv-x="479" 
d="M122 766h60q56 -36 107 -92q62 62 109 92h62v-13q-100 -100 -125 -147h-90q-29 50 -123 147v13zM162 368q34 0 73 -18q39 -20 47 -55q3 -10 3 -24q0 -11 -3 -20q-2 -9 -8 -13.5t-13 -4.5q-11 0 -19 11q-12 17 -26 23.5t-35 4.5q-30 -1 -55 -29t-39 -70t-14 -84
q0 -46 19 -75.5t57 -29.5q93 0 187.5 32.5t167 84.5t102.5 107q2 3 8 3q11 0 23 -7.5t7 -14.5q-42 -64 -123.5 -124t-191 -99.5t-230.5 -41.5q-69 -1 -104 44.5t-35 117.5q0 80 39 157t103 110q29 15 60 15z" />
    <glyph glyph-name="Dcaron" unicode="&#x10e;" horiz-adv-x="729" 
d="M170 931h60q56 -36 107 -92q62 62 109 92h62v-13q-100 -100 -125 -147h-90q-29 50 -123 147v13zM575 582q38 -96 38 -190q0 -164 -117.5 -297t-331.5 -219q-13 -5 -25 -5q-14 0 -20 12q-3 6 -3 11q0 15 25 30q181 103 278.5 232.5t97.5 262.5q0 106 -63 202
q-22 33 -55 50q-14 6 -26 6q-18 0 -32 -13q-22 -20 -51 -60t-46 -78q-47 -100 -80 -185.5t-53 -171.5q-4 -16 -10 -48l-39 -165q0 -1 -3 -10q-10 -19 -28 -19q-11 0 -19.5 7t-10.5 19q-1 9 -1 27q2 16 4 52q4 51 7 79q9 66 12.5 134.5t5.5 158.5q1 8 1 24q2 92 2 139l1 69
q2 21 6 40q6 22 29 25q11 1 19.5 -4.5t11.5 -15.5q12 -33 18 -68q10 -49 10 -134v-45v-32q4 0 5 -1l8 19l48 120q32 76 86 146q51 62 110 62q46 0 93 -34q64 -44 98 -132z" />
    <glyph glyph-name="dcaron" unicode="&#x10f;" horiz-adv-x="615" 
d="M575 612q11 32 20.5 77.5t12.5 70.5h87v-9q-6 -26 -27 -71t-45 -80h-48v12zM236 923q9 -10 10 -26l11 -238q2 -52 8 -146l4 -71q2 -26 2 -79t6.5 -107t18.5 -127q11 -62 44 -97q19 -19 56 -19q48 0 112.5 29.5t122 76t84.5 93.5q9 15 24 15q8 0 13.5 -4.5t5.5 -13.5
t-7 -20q-35 -57 -98 -112.5t-134.5 -90.5t-131.5 -35q-54 0 -88 30q-66 59 -87 158l-9 44l-14 -12q-27 -39 -69 -68q-25 -18 -53 -18q-22 0 -42 11t-35 30q-22 30 -22 64q0 6 2 20q11 62 57 108t106 55q5 1 15 1l35 -1l1 19l-3 74q-4 73 -6 148q-2 122 -2 184v67q0 21 8 43
q4 12 12.5 18.5t18.5 6.5q15 0 24 -10zM73 246.5q-14 -21.5 -24 -51.5q-4 -16 -4 -20q0 -14 14 -25q11 -8 19 -8q10 0 26 10q46 29 77 92q3 6 5 21q4 37 -24 37q-23 0 -53 -20q-22 -14 -36 -35.5z" />
    <glyph glyph-name="Dcroat" unicode="&#x110;" horiz-adv-x="729" 
d="M669 364q0 -175 -96 -269.5t-278 -94.5h-191v314h-74v78h74v322h213q167 0 259.5 -92t92.5 -258zM574 361q0 137 -68 206.5t-202 69.5h-110v-245h178v-78h-178v-237h90q290 0 290 284z" />
    <glyph glyph-name="dcroat" unicode="&#x111;" horiz-adv-x="617" 
d="M275 -10q-104 0 -162 72t-58 203q0 132 57.5 205t162.5 73q109 0 167 -79h6q-1 7 -3.5 33.5t-2.5 46.5v61h-213v66h213v89h88v-89h76v-66h-76v-605h-72l-13 72h-4q-56 -82 -166 -82zM290 63q80 0 116.5 43t36.5 142v17q0 112 -37 158.5t-118 46.5q-68 0 -104.5 -52
t-36.5 -154q0 -96 35 -148.5t108 -52.5z" />
    <glyph glyph-name="Emacron" unicode="&#x112;" horiz-adv-x="556" 
d="M148 842h297v-71h-297v71zM494 752q8 -3 12 -9.5t0 -14.5q-4 -9 -19 -15l-29 -6q-17 -3 -29 -7q-18 -5 -23 -7q-105 -50 -164 -131q-29 -38 -42 -95q-3 -10 -3 -21q2 -26 24 -27q21 0 40 6q40 13 76 44q11 11 28 21q5 3 9 3q8 0 15 -7q6 -6 6 -14q0 -5 -3 -11
q-7 -12 -16 -21l-48 -56q-48 -56 -72 -86q-85 -109 -135 -180q-23 -34 -44 -89q-5 -15 -5 -24q0 -16 12 -25.5t35 -10.5q54 -3 116 19q110 38 198 130q4 4 12 12.5t15 13.5q13 12 28 16l4 1q8 0 17 -7q4 -4 4 -8q0 -7 -7 -14l-40 -44q-96 -102 -220 -150q-60 -24 -124 -24
l-21 1q-39 2 -68.5 26t-32.5 57q-2 24 7 61q15 55 63 117q37 48 90 110l46 56l18 21q-9 1 -22 2t-20 3q-24 7 -39 28.5t-16 47.5q-2 37 18 91q20 51 55 89q66 73 172 122q36 17 89 15q18 -2 33 -9z" />
    <glyph glyph-name="emacron" unicode="&#x113;" horiz-adv-x="563" 
d="M150 677h297v-71h-297v71zM191 384q30 0 54.5 -14t39.5 -39q13 -23 13 -53q0 -48 -36 -84q-68 -68 -155 -77q-3 0 -23 -2q3 -31 20 -56q12 -19 28 -28t39 -9q10 0 15 1q60 6 124.5 38t115.5 74t72 77q5 8 13 8t15.5 -7.5t7.5 -16.5q0 -6 -3 -11q-42 -65 -118 -119.5
t-157.5 -85.5t-137.5 -31q-68 0 -109 58q-40 56 -40 126q0 32 7 60q38 150 181 187q16 4 34 4zM134 286.5q-25 -23.5 -38.5 -57t-11.5 -67.5q60 5 104 33t56 65q1 5 1 13q0 20 -12 32t-32 12q-9 0 -14 -1q-28 -6 -53 -29.5z" />
    <glyph glyph-name="Ebreve" unicode="&#x114;" horiz-adv-x="556" 
d="M299 771q-69 0 -108.5 33.5t-44.5 100.5h54q4 -35 24.5 -49t76.5 -14q49 0 73 15.5t28 47.5h55q-6 -64 -48 -99t-110 -35zM494 752q8 -3 12 -9.5t0 -14.5q-4 -9 -19 -15l-29 -6q-17 -3 -29 -7q-18 -5 -23 -7q-105 -50 -164 -131q-29 -38 -42 -95q-3 -10 -3 -21
q2 -26 24 -27q21 0 40 6q40 13 76 44q11 11 28 21q5 3 9 3q8 0 15 -7q6 -6 6 -14q0 -5 -3 -11q-7 -12 -16 -21l-48 -56q-48 -56 -72 -86q-85 -109 -135 -180q-23 -34 -44 -89q-5 -15 -5 -24q0 -16 12 -25.5t35 -10.5q54 -3 116 19q110 38 198 130q4 4 12 12.5t15 13.5
q13 12 28 16l4 1q8 0 17 -7q4 -4 4 -8q0 -7 -7 -14l-40 -44q-96 -102 -220 -150q-60 -24 -124 -24l-21 1q-39 2 -68.5 26t-32.5 57q-2 24 7 61q15 55 63 117q37 48 90 110l46 56l18 21q-9 1 -22 2t-20 3q-24 7 -39 28.5t-16 47.5q-2 37 18 91q20 51 55 89q66 73 172 122
q36 17 89 15q18 -2 33 -9z" />
    <glyph glyph-name="ebreve" unicode="&#x115;" horiz-adv-x="563" 
d="M292 606q-69 0 -108.5 33.5t-44.5 100.5h54q4 -35 24.5 -49t76.5 -14q49 0 73 15.5t28 47.5h55q-6 -64 -48 -99t-110 -35zM191 384q30 0 54.5 -14t39.5 -39q13 -23 13 -53q0 -48 -36 -84q-68 -68 -155 -77q-3 0 -23 -2q3 -31 20 -56q12 -19 28 -28t39 -9q10 0 15 1
q60 6 124.5 38t115.5 74t72 77q5 8 13 8t15.5 -7.5t7.5 -16.5q0 -6 -3 -11q-42 -65 -118 -119.5t-157.5 -85.5t-137.5 -31q-68 0 -109 58q-40 56 -40 126q0 32 7 60q38 150 181 187q16 4 34 4zM134 286.5q-25 -23.5 -38.5 -57t-11.5 -67.5q60 5 104 33t56 65q1 5 1 13
q0 20 -12 32t-32 12q-9 0 -14 -1q-28 -6 -53 -29.5z" />
    <glyph glyph-name="Edotaccent" unicode="&#x116;" horiz-adv-x="556" 
d="M253 832q0 29 15 42.5t37 13.5q21 0 36 -13.5t15 -42.5t-15.5 -42.5t-35.5 -13.5q-22 0 -37 13.5t-15 42.5zM494 752q8 -3 12 -9.5t0 -14.5q-4 -9 -19 -15l-29 -6q-17 -3 -29 -7q-18 -5 -23 -7q-105 -50 -164 -131q-29 -38 -42 -95q-3 -10 -3 -21q2 -26 24 -27q21 0 40 6
q40 13 76 44q11 11 28 21q5 3 9 3q8 0 15 -7q6 -6 6 -14q0 -5 -3 -11q-7 -12 -16 -21l-48 -56q-48 -56 -72 -86q-85 -109 -135 -180q-23 -34 -44 -89q-5 -15 -5 -24q0 -16 12 -25.5t35 -10.5q54 -3 116 19q110 38 198 130q4 4 12 12.5t15 13.5q13 12 28 16l4 1q8 0 17 -7
q4 -4 4 -8q0 -7 -7 -14l-40 -44q-96 -102 -220 -150q-60 -24 -124 -24l-21 1q-39 2 -68.5 26t-32.5 57q-2 24 7 61q15 55 63 117q37 48 90 110l46 56l18 21q-9 1 -22 2t-20 3q-24 7 -39 28.5t-16 47.5q-2 37 18 91q20 51 55 89q66 73 172 122q36 17 89 15q18 -2 33 -9z" />
    <glyph glyph-name="edotaccent" unicode="&#x117;" horiz-adv-x="563" 
d="M243 681q0 29 15 42.5t37 13.5q21 0 36 -13.5t15 -42.5t-15.5 -42.5t-35.5 -13.5q-22 0 -37 13.5t-15 42.5zM191 384q30 0 54.5 -14t39.5 -39q13 -23 13 -53q0 -48 -36 -84q-68 -68 -155 -77q-3 0 -23 -2q3 -31 20 -56q12 -19 28 -28t39 -9q10 0 15 1q60 6 124.5 38
t115.5 74t72 77q5 8 13 8t15.5 -7.5t7.5 -16.5q0 -6 -3 -11q-42 -65 -118 -119.5t-157.5 -85.5t-137.5 -31q-68 0 -109 58q-40 56 -40 126q0 32 7 60q38 150 181 187q16 4 34 4zM134 286.5q-25 -23.5 -38.5 -57t-11.5 -67.5q60 5 104 33t56 65q1 5 1 13q0 20 -12 32t-32 12
q-9 0 -14 -1q-28 -6 -53 -29.5z" />
    <glyph glyph-name="Eogonek" unicode="&#x118;" horiz-adv-x="556" 
d="M392 -116q0 -22 12 -33.5t33 -11.5t48 6v-56q-34 -9 -62 -9q-103 0 -103 94q0 68 78 126h62q-34 -32 -51 -58.5t-17 -57.5zM494 752q8 -3 12 -9.5t0 -14.5q-4 -9 -19 -15l-29 -6q-17 -3 -29 -7q-18 -5 -23 -7q-105 -50 -164 -131q-29 -38 -42 -95q-3 -10 -3 -21
q2 -26 24 -27q21 0 40 6q40 13 76 44q11 11 28 21q5 3 9 3q8 0 15 -7q6 -6 6 -14q0 -5 -3 -11q-7 -12 -16 -21l-48 -56q-48 -56 -72 -86q-85 -109 -135 -180q-23 -34 -44 -89q-5 -15 -5 -24q0 -16 12 -25.5t35 -10.5q54 -3 116 19q110 38 198 130q4 4 12 12.5t15 13.5
q13 12 28 16l4 1q8 0 17 -7q4 -4 4 -8q0 -7 -7 -14l-40 -44q-96 -102 -220 -150q-60 -24 -124 -24l-21 1q-39 2 -68.5 26t-32.5 57q-2 24 7 61q15 55 63 117q37 48 90 110l46 56l18 21q-9 1 -22 2t-20 3q-24 7 -39 28.5t-16 47.5q-2 37 18 91q20 51 55 89q66 73 172 122
q36 17 89 15q18 -2 33 -9z" />
    <glyph glyph-name="eogonek" unicode="&#x119;" horiz-adv-x="563" 
d="M387 -102q0 -22 12 -33.5t33 -11.5t48 6v-56q-34 -9 -62 -9q-103 0 -103 94q0 68 78 126h62q-34 -32 -51 -58.5t-17 -57.5zM191 384q30 0 54.5 -14t39.5 -39q13 -23 13 -53q0 -48 -36 -84q-68 -68 -155 -77q-3 0 -23 -2q3 -31 20 -56q12 -19 28 -28t39 -9q10 0 15 1
q60 6 124.5 38t115.5 74t72 77q5 8 13 8t15.5 -7.5t7.5 -16.5q0 -6 -3 -11q-42 -65 -118 -119.5t-157.5 -85.5t-137.5 -31q-68 0 -109 58q-40 56 -40 126q0 32 7 60q38 150 181 187q16 4 34 4zM134 286.5q-25 -23.5 -38.5 -57t-11.5 -67.5q60 5 104 33t56 65q1 5 1 13
q0 20 -12 32t-32 12q-9 0 -14 -1q-28 -6 -53 -29.5z" />
    <glyph glyph-name="Ecaron" unicode="&#x11a;" horiz-adv-x="556" 
d="M133 931h60q56 -36 107 -92q62 62 109 92h62v-13q-100 -100 -125 -147h-90q-29 50 -123 147v13zM494 752q8 -3 12 -9.5t0 -14.5q-4 -9 -19 -15l-29 -6q-17 -3 -29 -7q-18 -5 -23 -7q-105 -50 -164 -131q-29 -38 -42 -95q-3 -10 -3 -21q2 -26 24 -27q21 0 40 6
q40 13 76 44q11 11 28 21q5 3 9 3q8 0 15 -7q6 -6 6 -14q0 -5 -3 -11q-7 -12 -16 -21l-48 -56q-48 -56 -72 -86q-85 -109 -135 -180q-23 -34 -44 -89q-5 -15 -5 -24q0 -16 12 -25.5t35 -10.5q54 -3 116 19q110 38 198 130q4 4 12 12.5t15 13.5q13 12 28 16l4 1q8 0 17 -7
q4 -4 4 -8q0 -7 -7 -14l-40 -44q-96 -102 -220 -150q-60 -24 -124 -24l-21 1q-39 2 -68.5 26t-32.5 57q-2 24 7 61q15 55 63 117q37 48 90 110l46 56l18 21q-9 1 -22 2t-20 3q-24 7 -39 28.5t-16 47.5q-2 37 18 91q20 51 55 89q66 73 172 122q36 17 89 15q18 -2 33 -9z" />
    <glyph glyph-name="ecaron" unicode="&#x11b;" horiz-adv-x="563" 
d="M126 766h60q56 -36 107 -92q62 62 109 92h62v-13q-100 -100 -125 -147h-90q-29 50 -123 147v13zM191 384q30 0 54.5 -14t39.5 -39q13 -23 13 -53q0 -48 -36 -84q-68 -68 -155 -77q-3 0 -23 -2q3 -31 20 -56q12 -19 28 -28t39 -9q10 0 15 1q60 6 124.5 38t115.5 74t72 77
q5 8 13 8t15.5 -7.5t7.5 -16.5q0 -6 -3 -11q-42 -65 -118 -119.5t-157.5 -85.5t-137.5 -31q-68 0 -109 58q-40 56 -40 126q0 32 7 60q38 150 181 187q16 4 34 4zM134 286.5q-25 -23.5 -38.5 -57t-11.5 -67.5q60 5 104 33t56 65q1 5 1 13q0 20 -12 32t-32 12q-9 0 -14 -1
q-28 -6 -53 -29.5z" />
    <glyph glyph-name="Gcircumflex" unicode="&#x11c;" horiz-adv-x="728" 
d="M248 782q61 65 86 96.5t37 52.5h90q25 -49 125 -149v-11h-62q-44 26 -109 90q-64 -62 -107 -90h-60v11zM322 759q24 -50 33 -77q28 -80 47.5 -146t30.5 -131q6 -32 12 -92q1 -3 2 -9.5t2 -17.5l69 54q15 12 21 12q3 0 8 -5q4 -6 4 -10q0 -10 -14 -22l-16 -14
q-32 -28 -48 -39q-13 -9 -18 -21t-3 -29q4 -76 4 -113q0 -58 -6 -98q-19 -131 -68 -207.5t-136 -76.5q-15 0 -33 3q-37 6 -57 45q-19 39 -19 80q0 19 5 44q17 80 72 147q44 56 136 160q10 11 14.5 21t4.5 22q0 8 -1 12l-7 56q-10 89 -18 130q-6 36 -17 77t-14 53
q-12 42 -17 63l-3 4q-39 -104 -56 -144q-29 -70 -88 -109q-27 -20 -57 -23q-5 -1 -13 -1q-41 0 -62 42q-16 31 -16 69q0 100 57 190q22 37 58 51q17 5 28 5q25 0 42 -16q8 -10 5 -19q-1 -3 -7 -6t-9 -4h-3q-12 2 -16 2q-32 0 -53 -41q-36 -70 -39 -157q0 -12 6 -36
q6 -16 18 -16q6 0 13 4q16 7 34 23q25 22 47 67q41 82 51 196q4 35 10 53q4 15 13.5 22.5t21.5 7.5q17 0 31 -14q11 -13 14 -21zM353 150q-72 -75 -136 -174q-43 -62 -43 -130q0 -27 11 -55t45 -30q77 0 111.5 88t34.5 226q0 40 -1 60l-2 34q-17 -15 -20 -19z" />
    <glyph glyph-name="gcircumflex" unicode="&#x11d;" horiz-adv-x="615" 
d="M132 617q61 65 86 96.5t37 52.5h90q25 -49 125 -149v-11h-62q-44 26 -109 90q-64 -62 -107 -90h-60v11zM202 291l3 -31q6 -59 13.5 -118.5t18.5 -110.5l27 -153q25 16 126 144t137 188q8 12 17 12q5 0 9 -3q22 -12 15 -24q-41 -71 -74.5 -116t-82.5 -103
q-67 -76 -124 -155q-14 -17 -13 -40q2 -22 4.5 -38.5t4.5 -27.5q11 -57 11 -93q0 -17 -3 -35q-9 -47 -24 -80q-7 -18 -31 -44q-21 -20 -49 -20q-17 0 -34 7q-23 9 -36 26.5t-13 41.5q-1 26 7 58q9 34 25 67t40 72q3 5 9 13t9 15.5t1 14.5l-9 64q-17 122 -18 128
q-8 58 -13 84.5t-8.5 34t-11.5 20.5q-12 -2 -18 -5q-15 -6 -31 -6q-36 0 -64 26t-28 68q0 41 21.5 72t59.5 51q8 4 20.5 6t19.5 3q17 35 48 30q35 -4 39 -43zM86 190q-2 -6 -2 -8q0 -11 12 -11q7 0 12 5q11 9 11 18q1 8 -1 20.5t-3 18.5q-22 -17 -29 -43zM163 -417
q-11 -30 -11 -52q0 -28 21 -32h1q14 0 16 19q6 28 6 60q0 30 -6 60q-16 -25 -27 -55z" />
    <glyph glyph-name="Gbreve" unicode="&#x11e;" horiz-adv-x="728" 
d="M414 771q-69 0 -108.5 33.5t-44.5 100.5h54q4 -35 24.5 -49t76.5 -14q49 0 73 15.5t28 47.5h55q-6 -64 -48 -99t-110 -35zM322 759q24 -50 33 -77q28 -80 47.5 -146t30.5 -131q6 -32 12 -92q1 -3 2 -9.5t2 -17.5l69 54q15 12 21 12q3 0 8 -5q4 -6 4 -10q0 -10 -14 -22
l-16 -14q-32 -28 -48 -39q-13 -9 -18 -21t-3 -29q4 -76 4 -113q0 -58 -6 -98q-19 -131 -68 -207.5t-136 -76.5q-15 0 -33 3q-37 6 -57 45q-19 39 -19 80q0 19 5 44q17 80 72 147q44 56 136 160q10 11 14.5 21t4.5 22q0 8 -1 12l-7 56q-10 89 -18 130q-6 36 -17 77t-14 53
q-12 42 -17 63l-3 4q-39 -104 -56 -144q-29 -70 -88 -109q-27 -20 -57 -23q-5 -1 -13 -1q-41 0 -62 42q-16 31 -16 69q0 100 57 190q22 37 58 51q17 5 28 5q25 0 42 -16q8 -10 5 -19q-1 -3 -7 -6t-9 -4h-3q-12 2 -16 2q-32 0 -53 -41q-36 -70 -39 -157q0 -12 6 -36
q6 -16 18 -16q6 0 13 4q16 7 34 23q25 22 47 67q41 82 51 196q4 35 10 53q4 15 13.5 22.5t21.5 7.5q17 0 31 -14q11 -13 14 -21zM353 150q-72 -75 -136 -174q-43 -62 -43 -130q0 -27 11 -55t45 -30q77 0 111.5 88t34.5 226q0 40 -1 60l-2 34q-17 -15 -20 -19z" />
    <glyph glyph-name="gbreve" unicode="&#x11f;" horiz-adv-x="615" 
d="M300 606q-69 0 -108.5 33.5t-44.5 100.5h54q4 -35 24.5 -49t76.5 -14q49 0 73 15.5t28 47.5h55q-6 -64 -48 -99t-110 -35zM202 291l3 -31q6 -59 13.5 -118.5t18.5 -110.5l27 -153q25 16 126 144t137 188q8 12 17 12q5 0 9 -3q22 -12 15 -24q-41 -71 -74.5 -116
t-82.5 -103q-67 -76 -124 -155q-14 -17 -13 -40q2 -22 4.5 -38.5t4.5 -27.5q11 -57 11 -93q0 -17 -3 -35q-9 -47 -24 -80q-7 -18 -31 -44q-21 -20 -49 -20q-17 0 -34 7q-23 9 -36 26.5t-13 41.5q-1 26 7 58q9 34 25 67t40 72q3 5 9 13t9 15.5t1 14.5l-9 64q-17 122 -18 128
q-8 58 -13 84.5t-8.5 34t-11.5 20.5q-12 -2 -18 -5q-15 -6 -31 -6q-36 0 -64 26t-28 68q0 41 21.5 72t59.5 51q8 4 20.5 6t19.5 3q17 35 48 30q35 -4 39 -43zM86 190q-2 -6 -2 -8q0 -11 12 -11q7 0 12 5q11 9 11 18q1 8 -1 20.5t-3 18.5q-22 -17 -29 -43zM163 -417
q-11 -30 -11 -52q0 -28 21 -32h1q14 0 16 19q6 28 6 60q0 30 -6 60q-16 -25 -27 -55z" />
    <glyph glyph-name="Gdotaccent" unicode="&#x120;" horiz-adv-x="728" 
d="M371 846q0 29 15 42.5t37 13.5q21 0 36 -13.5t15 -42.5t-15.5 -42.5t-35.5 -13.5q-22 0 -37 13.5t-15 42.5zM322 759q24 -50 33 -77q28 -80 47.5 -146t30.5 -131q6 -32 12 -92q1 -3 2 -9.5t2 -17.5l69 54q15 12 21 12q3 0 8 -5q4 -6 4 -10q0 -10 -14 -22l-16 -14
q-32 -28 -48 -39q-13 -9 -18 -21t-3 -29q4 -76 4 -113q0 -58 -6 -98q-19 -131 -68 -207.5t-136 -76.5q-15 0 -33 3q-37 6 -57 45q-19 39 -19 80q0 19 5 44q17 80 72 147q44 56 136 160q10 11 14.5 21t4.5 22q0 8 -1 12l-7 56q-10 89 -18 130q-6 36 -17 77t-14 53
q-12 42 -17 63l-3 4q-39 -104 -56 -144q-29 -70 -88 -109q-27 -20 -57 -23q-5 -1 -13 -1q-41 0 -62 42q-16 31 -16 69q0 100 57 190q22 37 58 51q17 5 28 5q25 0 42 -16q8 -10 5 -19q-1 -3 -7 -6t-9 -4h-3q-12 2 -16 2q-32 0 -53 -41q-36 -70 -39 -157q0 -12 6 -36
q6 -16 18 -16q6 0 13 4q16 7 34 23q25 22 47 67q41 82 51 196q4 35 10 53q4 15 13.5 22.5t21.5 7.5q17 0 31 -14q11 -13 14 -21zM353 150q-72 -75 -136 -174q-43 -62 -43 -130q0 -27 11 -55t45 -30q77 0 111.5 88t34.5 226q0 40 -1 60l-2 34q-17 -15 -20 -19z" />
    <glyph glyph-name="gdotaccent" unicode="&#x121;" horiz-adv-x="615" 
d="M247 681q0 29 15 42.5t37 13.5q21 0 36 -13.5t15 -42.5t-15.5 -42.5t-35.5 -13.5q-22 0 -37 13.5t-15 42.5zM202 291l3 -31q6 -59 13.5 -118.5t18.5 -110.5l27 -153q25 16 126 144t137 188q8 12 17 12q5 0 9 -3q22 -12 15 -24q-41 -71 -74.5 -116t-82.5 -103
q-67 -76 -124 -155q-14 -17 -13 -40q2 -22 4.5 -38.5t4.5 -27.5q11 -57 11 -93q0 -17 -3 -35q-9 -47 -24 -80q-7 -18 -31 -44q-21 -20 -49 -20q-17 0 -34 7q-23 9 -36 26.5t-13 41.5q-1 26 7 58q9 34 25 67t40 72q3 5 9 13t9 15.5t1 14.5l-9 64q-17 122 -18 128
q-8 58 -13 84.5t-8.5 34t-11.5 20.5q-12 -2 -18 -5q-15 -6 -31 -6q-36 0 -64 26t-28 68q0 41 21.5 72t59.5 51q8 4 20.5 6t19.5 3q17 35 48 30q35 -4 39 -43zM86 190q-2 -6 -2 -8q0 -11 12 -11q7 0 12 5q11 9 11 18q1 8 -1 20.5t-3 18.5q-22 -17 -29 -43zM163 -417
q-11 -30 -11 -52q0 -28 21 -32h1q14 0 16 19q6 28 6 60q0 30 -6 60q-16 -25 -27 -55z" />
    <glyph glyph-name="uni0122" unicode="&#x122;" horiz-adv-x="728" 
d="M322 -209q11 25 24 70.5t17 77.5h87v-9q-8 -31 -31.5 -76.5t-48.5 -74.5h-48v12zM322 759q24 -50 33 -77q28 -80 47.5 -146t30.5 -131q6 -32 12 -92q1 -3 2 -9.5t2 -17.5l69 54q15 12 21 12q3 0 8 -5q4 -6 4 -10q0 -10 -14 -22l-16 -14q-32 -28 -48 -39q-13 -9 -18 -21
t-3 -29q4 -76 4 -113q0 -58 -6 -98q-19 -131 -68 -207.5t-136 -76.5q-15 0 -33 3q-37 6 -57 45q-19 39 -19 80q0 19 5 44q17 80 72 147q44 56 136 160q10 11 14.5 21t4.5 22q0 8 -1 12l-7 56q-10 89 -18 130q-6 36 -17 77t-14 53q-12 42 -17 63l-3 4q-39 -104 -56 -144
q-29 -70 -88 -109q-27 -20 -57 -23q-5 -1 -13 -1q-41 0 -62 42q-16 31 -16 69q0 100 57 190q22 37 58 51q17 5 28 5q25 0 42 -16q8 -10 5 -19q-1 -3 -7 -6t-9 -4h-3q-12 2 -16 2q-32 0 -53 -41q-36 -70 -39 -157q0 -12 6 -36q6 -16 18 -16q6 0 13 4q16 7 34 23q25 22 47 67
q41 82 51 196q4 35 10 53q4 15 13.5 22.5t21.5 7.5q17 0 31 -14q11 -13 14 -21zM353 150q-72 -75 -136 -174q-43 -62 -43 -130q0 -27 11 -55t45 -30q77 0 111.5 88t34.5 226q0 40 -1 60l-2 34q-17 -15 -20 -19z" />
    <glyph glyph-name="uni0123" unicode="&#x123;" horiz-adv-x="615" 
d="M379 754q-13 -29 -26 -74.5t-16 -73.5h-87v9q7 27 31.5 74t48.5 77h49v-12zM202 291l3 -31q6 -59 13.5 -118.5t18.5 -110.5l27 -153q25 16 126 144t137 188q8 12 17 12q5 0 9 -3q22 -12 15 -24q-41 -71 -74.5 -116t-82.5 -103q-67 -76 -124 -155q-14 -17 -13 -40
q2 -22 4.5 -38.5t4.5 -27.5q11 -57 11 -93q0 -17 -3 -35q-9 -47 -24 -80q-7 -18 -31 -44q-21 -20 -49 -20q-17 0 -34 7q-23 9 -36 26.5t-13 41.5q-1 26 7 58q9 34 25 67t40 72q3 5 9 13t9 15.5t1 14.5l-9 64q-17 122 -18 128q-8 58 -13 84.5t-8.5 34t-11.5 20.5
q-12 -2 -18 -5q-15 -6 -31 -6q-36 0 -64 26t-28 68q0 41 21.5 72t59.5 51q8 4 20.5 6t19.5 3q17 35 48 30q35 -4 39 -43zM86 190q-2 -6 -2 -8q0 -11 12 -11q7 0 12 5q11 9 11 18q1 8 -1 20.5t-3 18.5q-22 -17 -29 -43zM163 -417q-11 -30 -11 -52q0 -28 21 -32h1q14 0 16 19
q6 28 6 60q0 30 -6 60q-16 -25 -27 -55z" />
    <glyph glyph-name="Hcircumflex" unicode="&#x124;" horiz-adv-x="741" 
d="M200 782q61 65 86 96.5t37 52.5h90q25 -49 125 -149v-11h-62q-44 26 -109 90q-64 -62 -107 -90h-60v11zM845.5 766q7.5 -8 7.5 -20q0 -5 -1 -8q-1 -8 -6 -37t-7 -55q-7 -98 -19 -313v-31q43 -2 47 -3q21 -2 35 -8q11 -4 16 -13.5t3 -19.5q-2 -11 -10.5 -17t-20.5 -6h-73
q-2 -18 -2 -27l-8 -179q-4 -74 -7 -112q-1 -17 -11 -27.5t-27 -10.5q-12 0 -22 7t-14 20q-4 12 -4 18l-6 48q-9 64 -8 107q1 21 1 64v63l-1 26l-54 -6q-22 -2 -80 -8t-152 -15q-1 -4 -2.5 -6t-1.5 -4l-6 -49q-2 -18 -5.5 -46t-9.5 -65q-5 -32 -28 -30q-13 0 -21 8.5t-9 24.5
q-1 40 -1 119q-1 11 -1 35l-96 -18q-97 -19 -196 -59q-3 -1 -10.5 -4.5t-14.5 -3.5q-8 0 -13.5 5t-5.5 12q0 6 2 9q8 16 23 25q6 3 33.5 19t53.5 25q50 16 136 38l52 14q13 4 32 7v26l-4 369q-1 23 4 54q3 14 15 26q8 8 18 8q7 0 13 -3q15 -7 15 -26q0 -36 1 -54l21 -360
l2 -21l293 26q2 8 2 16q11 171 37 327q5 37 16 68q7 24 26 44q6 7 15.5 11t18.5 4q12 0 19.5 -8z" />
    <glyph glyph-name="hcircumflex" unicode="&#x125;" horiz-adv-x="618" 
d="M143 809q61 65 86 96.5t37 52.5h90q25 -49 125 -149v-11h-62q-44 26 -109 90q-64 -62 -107 -90h-60v11zM237 909q39 0 66 -38t25 -89q0 -56 -34 -154.5t-82 -194t-84 -139.5q-16 -19 -16 -47q0 -40 -1 -53q0 -6 -0.5 -15t-0.5 -26v-27q13 15 18 18q34 30 53 44q10 7 20 7
q14 0 29 -12q21 -16 40 -55q15 -31 40 -56q20 -20 54 -20q40 0 90 26.5t92.5 64t60.5 67.5q7 11 17 11q8 0 15 -6.5t7 -15.5q0 -6 -4 -13q-27 -44 -87 -90.5t-128 -77t-119 -30.5q-44 0 -66 25q-34 40 -51 94l-9 26q-5 -5 -15.5 -14t-16.5 -17q-3 -4 -20 -26.5t-28 -45.5
q-13 -27 -37 -27q-17 0 -34 11q-28 19 -30 53q-2 166 -2 248v58q2 88 17 223q11 100 63 197q37 67 91 97q32 13 44 16t23 3zM173.5 790.5q-11.5 -19.5 -22.5 -45.5q-36 -93 -39 -228v-54v-122l6 4q33 44 69.5 126t61.5 162.5t25 121.5q0 30 -7 52q-12 34 -31 34
q-13 0 -33 -17q-18 -14 -29.5 -33.5z" />
    <glyph glyph-name="Hbar" unicode="&#x126;" horiz-adv-x="741" 
d="M97 595v119h90v-119h366v119h90v-119h97v-72h-97v-523h-90v333h-366v-333h-90v523h-97v72h97zM553 412v111h-366v-111h366z" />
    <glyph glyph-name="hbar" unicode="&#x127;" horiz-adv-x="618" 
d="M450 0v323q0 65 -29 97t-91 32q-83 0 -120 -45t-37 -149v-258h-88v604h-76v66h76v90h88v-90h212v-66h-212v-87q0 -43 -5 -74h6q26 42 70.5 62.5t97.5 20.5q97 0 146 -47t49 -150v-329h-87z" />
    <glyph glyph-name="Itilde" unicode="&#x128;" horiz-adv-x="338" 
d="M244 772q-21 0 -41 9t-39.5 19.5t-37 19.5t-34.5 9q-24 0 -36 -14.5t-19 -43.5h-51q6 60 34 94t76 34q22 0 42.5 -9t39.5 -19.5t37 -19.5t33 -9q23 0 35.5 14.5t19.5 43.5h50q-6 -58 -34 -93t-75 -35zM222 374q1 -2 5 -7.5t5 -10.5v-5q0 -12 -4 -16q-3 -3 -10 -4t-11 1
q-4 3 -21 15.5t-27 27.5q-54 79 -63 156q-3 23 -3 45q0 62 19.5 111t51 76t66.5 27q49 0 88.5 -54.5t53.5 -162.5q9 -60 9 -136q0 -120 -23.5 -251t-72.5 -250q-33 -82 -95 -118q-35 -22 -75 -22q-19 0 -35 4q-37 10 -58.5 37.5t-21.5 61.5q0 25 12 49q16 32 38 65
q5 7 25 23q5 3 8 3q7 0 13 -8q3 -4 3 -9q0 -4 -4 -12q-22 -36 -31 -55q-9 -22 -9 -40q0 -20 13 -32t33 -12q30 0 52 24q30 34 46 81q92 255 92 511l-1 38q-1 58 -15 103t-34 70t-39 25q-21 0 -34.5 -30t-13.5 -88q-5 -131 68 -231z" />
    <glyph glyph-name="itilde" unicode="&#x129;" horiz-adv-x="257" 
d="M204 607q-21 0 -41 9t-39.5 19.5t-37 19.5t-34.5 9q-24 0 -36 -14.5t-19 -43.5h-51q6 60 34 94t76 34q22 0 42.5 -9t39.5 -19.5t37 -19.5t33 -9q23 0 35.5 14.5t19.5 43.5h50q-6 -58 -34 -93t-75 -35zM173 0h-88v536h88v-536z" />
    <glyph glyph-name="Imacron" unicode="&#x12a;" horiz-adv-x="338" 
d="M21 842h297v-71h-297v71zM222 374q1 -2 5 -7.5t5 -10.5v-5q0 -12 -4 -16q-3 -3 -10 -4t-11 1q-4 3 -21 15.5t-27 27.5q-54 79 -63 156q-3 23 -3 45q0 62 19.5 111t51 76t66.5 27q49 0 88.5 -54.5t53.5 -162.5q9 -60 9 -136q0 -120 -23.5 -251t-72.5 -250
q-33 -82 -95 -118q-35 -22 -75 -22q-19 0 -35 4q-37 10 -58.5 37.5t-21.5 61.5q0 25 12 49q16 32 38 65q5 7 25 23q5 3 8 3q7 0 13 -8q3 -4 3 -9q0 -4 -4 -12q-22 -36 -31 -55q-9 -22 -9 -40q0 -20 13 -32t33 -12q30 0 52 24q30 34 46 81q92 255 92 511l-1 38q-1 58 -15 103
t-34 70t-39 25q-21 0 -34.5 -30t-13.5 -88q-5 -131 68 -231z" />
    <glyph glyph-name="imacron" unicode="&#x12b;" horiz-adv-x="257" 
d="M-18 677h297v-71h-297v71zM173 0h-88v536h88v-536z" />
    <glyph glyph-name="Ibreve" unicode="&#x12c;" horiz-adv-x="338" 
d="M168 771q-69 0 -108.5 33.5t-44.5 100.5h54q4 -35 24.5 -49t76.5 -14q49 0 73 15.5t28 47.5h55q-6 -64 -48 -99t-110 -35zM222 374q1 -2 5 -7.5t5 -10.5v-5q0 -12 -4 -16q-3 -3 -10 -4t-11 1q-4 3 -21 15.5t-27 27.5q-54 79 -63 156q-3 23 -3 45q0 62 19.5 111t51 76
t66.5 27q49 0 88.5 -54.5t53.5 -162.5q9 -60 9 -136q0 -120 -23.5 -251t-72.5 -250q-33 -82 -95 -118q-35 -22 -75 -22q-19 0 -35 4q-37 10 -58.5 37.5t-21.5 61.5q0 25 12 49q16 32 38 65q5 7 25 23q5 3 8 3q7 0 13 -8q3 -4 3 -9q0 -4 -4 -12q-22 -36 -31 -55
q-9 -22 -9 -40q0 -20 13 -32t33 -12q30 0 52 24q30 34 46 81q92 255 92 511l-1 38q-1 58 -15 103t-34 70t-39 25q-21 0 -34.5 -30t-13.5 -88q-5 -131 68 -231z" />
    <glyph glyph-name="ibreve" unicode="&#x12d;" horiz-adv-x="257" 
d="M126 606q-69 0 -108.5 33.5t-44.5 100.5h54q4 -35 24.5 -49t76.5 -14q49 0 73 15.5t28 47.5h55q-6 -64 -48 -99t-110 -35zM173 0h-88v536h88v-536z" />
    <glyph glyph-name="Iogonek" unicode="&#x12e;" horiz-adv-x="338" 
d="M160 -116q0 -22 12 -33.5t33 -11.5t48 6v-56q-34 -9 -62 -9q-103 0 -103 94q0 68 78 126h62q-34 -32 -51 -58.5t-17 -57.5zM222 374q1 -2 5 -7.5t5 -10.5v-5q0 -12 -4 -16q-3 -3 -10 -4t-11 1q-4 3 -21 15.5t-27 27.5q-54 79 -63 156q-3 23 -3 45q0 62 19.5 111t51 76
t66.5 27q49 0 88.5 -54.5t53.5 -162.5q9 -60 9 -136q0 -120 -23.5 -251t-72.5 -250q-33 -82 -95 -118q-35 -22 -75 -22q-19 0 -35 4q-37 10 -58.5 37.5t-21.5 61.5q0 25 12 49q16 32 38 65q5 7 25 23q5 3 8 3q7 0 13 -8q3 -4 3 -9q0 -4 -4 -12q-22 -36 -31 -55
q-9 -22 -9 -40q0 -20 13 -32t33 -12q30 0 52 24q30 34 46 81q92 255 92 511l-1 38q-1 58 -15 103t-34 70t-39 25q-21 0 -34.5 -30t-13.5 -88q-5 -131 68 -231z" />
    <glyph glyph-name="iogonek" unicode="&#x12f;" horiz-adv-x="257" 
d="M97 -116q0 -22 12 -33.5t33 -11.5t48 6v-56q-34 -9 -62 -9q-103 0 -103 94q0 68 78 126h62q-34 -32 -51 -58.5t-17 -57.5zM205 509q0 -16 -13 -30t-30 -14q-8 0 -15 3q-18 8 -18 26q0 15 13 28t31 13q6 0 10 -1q22 -4 22 -25zM132 356q0 -4 -2 -14q-3 -19 -15 -52
q-35 -82 -40 -155q0 -35 2 -55t13 -38.5t34 -30.5q39 -21 76 -21q67 0 130 58.5t127 161.5q3 4 8 4q11 0 22 -9t7 -16q-150 -250 -316 -250q-79 0 -128 42t-56 104q-4 25 -4 55q0 123 79 223q18 24 33 24q9 0 16 -6q14 -8 14 -25z" />
    <glyph glyph-name="Idotaccent" unicode="&#x130;" horiz-adv-x="338" 
d="M117 846q0 29 15 42.5t37 13.5q21 0 36 -13.5t15 -42.5t-15.5 -42.5t-35.5 -13.5q-22 0 -37 13.5t-15 42.5zM222 374q1 -2 5 -7.5t5 -10.5v-5q0 -12 -4 -16q-3 -3 -10 -4t-11 1q-4 3 -21 15.5t-27 27.5q-54 79 -63 156q-3 23 -3 45q0 62 19.5 111t51 76t66.5 27
q49 0 88.5 -54.5t53.5 -162.5q9 -60 9 -136q0 -120 -23.5 -251t-72.5 -250q-33 -82 -95 -118q-35 -22 -75 -22q-19 0 -35 4q-37 10 -58.5 37.5t-21.5 61.5q0 25 12 49q16 32 38 65q5 7 25 23q5 3 8 3q7 0 13 -8q3 -4 3 -9q0 -4 -4 -12q-22 -36 -31 -55q-9 -22 -9 -40
q0 -20 13 -32t33 -12q30 0 52 24q30 34 46 81q92 255 92 511l-1 38q-1 58 -15 103t-34 70t-39 25q-21 0 -34.5 -30t-13.5 -88q-5 -131 68 -231z" />
    <glyph glyph-name="dotlessi" unicode="&#x131;" horiz-adv-x="257" 
d="M173 0h-88v536h88v-536z" />
    <glyph glyph-name="IJ" unicode="&#x132;" horiz-adv-x="611" 
d="M222 374q1 -2 5 -7.5t5 -10.5v-5q0 -12 -4 -16q-3 -3 -10 -4t-11 1q-4 3 -21 15.5t-27 27.5q-54 79 -63 156q-3 23 -3 45q0 62 19.5 111t51 76t66.5 27q49 0 88.5 -54.5t53.5 -162.5q9 -60 9 -136q0 -120 -23.5 -251t-72.5 -250q-33 -82 -95 -118q-35 -22 -75 -22
q-19 0 -35 4q-37 10 -58.5 37.5t-21.5 61.5q0 25 12 49q16 32 38 65q5 7 25 23q5 3 8 3q7 0 13 -8q3 -4 3 -9q0 -4 -4 -12q-22 -36 -31 -55q-9 -22 -9 -40q0 -20 13 -32t33 -12q30 0 52 24q30 34 46 81q92 255 92 511l-1 38q-1 58 -15 103t-34 70t-39 25q-21 0 -34.5 -30
t-13.5 -88q-5 -131 68 -231zM694 702q49 -67 59 -118q3 -15 5 -48q2 -48 2 -73q0 -94 -14 -227q-2 -16 -4 -48l-8 -82q85 22 123.5 36.5t56 29.5t36.5 45q4 6 14 2t16.5 -13.5t2.5 -16.5q-18 -31 -67.5 -60.5t-172.5 -57.5q-16 -4 -18 -26q-16 -98 -41 -158
q-20 -49 -62.5 -89.5t-95.5 -40.5q-37 0 -61.5 23.5t-24.5 59.5q0 9 4 27q10 38 42 74q67 72 142 111q11 6 16.5 14t6.5 20l15 143q13 120 20 190q3 31 3 95v48q-2 52 -24 100q-20 45 -60 45q-19 0 -43 -11q-20 -9 -40 -33q-38 -44 -44 -102q-1 -5 -1 -13q0 -41 36 -75
q2 -2 8 -6t6 -10q0 -11 -10 -11q-8 0 -20 9q-48 39 -48 95q0 12 1 18q10 70 49 118q45 58 113 58q51 0 82 -42zM629 17q-87 -51 -133 -114q-22 -31 -22 -59q0 -19 12.5 -32t30.5 -13q10 0 23 5q16 8 22 15q24 30 32 47q25 53 43 141q1 3 0.5 6t-0.5 5q-6 0 -8 -1z" />
    <glyph glyph-name="ij" unicode="&#x133;" horiz-adv-x="514" 
d="M205 509q0 -16 -13 -30t-30 -14q-8 0 -15 3q-18 8 -18 26q0 15 13 28t31 13q6 0 10 -1q22 -4 22 -25zM132 356q0 -4 -2 -14q-3 -19 -15 -52q-35 -82 -40 -155q0 -35 2 -55t13 -38.5t34 -30.5q39 -21 76 -21q67 0 130 58.5t127 161.5q3 4 8 4q11 0 22 -9t7 -16
q-150 -250 -316 -250q-79 0 -128 42t-56 104q-4 25 -4 55q0 123 79 223q18 24 33 24q9 0 16 -6q14 -8 14 -25zM333.5 493.5q9.5 -9.5 10.5 -21.5q2 -11 -11 -24.5t-26 -13.5q-10 0 -17.5 9.5t-8.5 23.5q0 16 9 26t22 10q12 0 21.5 -9.5zM330.5 329q10.5 -8 16.5 -22
q10 -27 10 -50v-60v-119l-1 -28q102 36 165 81.5t82 78.5q3 4 9 4q10 0 21.5 -8.5t8.5 -13.5q-27 -44 -93.5 -87.5t-180.5 -100.5q-9 -4 -12.5 -12t-6.5 -23q-21 -141 -37 -218q-13 -76 -66 -135q-35 -40 -82 -40t-68.5 24.5t-21.5 61.5q0 47 24 95q48 95 132 179
q18 18 20 48q6 150 10 223q2 25 7 53.5t6 37.5q2 17 11 28t25 11q11 0 21.5 -8zM191.5 -174q-36.5 -50 -58.5 -99q-14 -30 -14 -60q0 -20 7.5 -30.5t21.5 -10.5q4 0 14 2q11 3 19 13q27 29 34 61q12 50 17 86q4 21 8 65l2 23q-14 0 -50.5 -50z" />
    <glyph glyph-name="Jcircumflex" unicode="&#x134;" horiz-adv-x="272" 
d="M-31 782q61 65 86 96.5t37 52.5h90q25 -49 125 -149v-11h-62q-44 26 -109 90q-64 -62 -107 -90h-60v11zM355 702q49 -67 59 -118q3 -15 5 -48q2 -48 2 -73q0 -94 -14 -227q-2 -16 -4 -48l-8 -82q85 22 123.5 36.5t56 29.5t36.5 45q4 6 14 2t16.5 -13.5t2.5 -16.5
q-18 -31 -67.5 -60.5t-172.5 -57.5q-16 -4 -18 -26q-16 -98 -41 -158q-20 -49 -62.5 -89.5t-95.5 -40.5q-37 0 -61.5 23.5t-24.5 59.5q0 9 4 27q10 38 42 74q67 72 142 111q11 6 16.5 14t6.5 20l15 143q13 120 20 190q3 31 3 95v48q-2 52 -24 100q-20 45 -60 45
q-19 0 -43 -11q-20 -9 -40 -33q-38 -44 -44 -102q-1 -5 -1 -13q0 -41 36 -75q2 -2 8 -6t6 -10q0 -11 -10 -11q-8 0 -20 9q-48 39 -48 95q0 12 1 18q10 70 49 118q45 58 113 58q51 0 82 -42zM290 17q-87 -51 -133 -114q-22 -31 -22 -59q0 -19 12.5 -32t30.5 -13q10 0 23 5
q16 8 22 15q24 30 32 47q25 53 43 141q1 3 0.5 6t-0.5 5q-6 0 -8 -1z" />
    <glyph glyph-name="jcircumflex" unicode="&#x135;" horiz-adv-x="257" 
d="M-42 617q61 65 86 96.5t37 52.5h90q25 -49 125 -149v-11h-62q-44 26 -109 90q-64 -62 -107 -90h-60v11zM22 -240q-46 0 -77 12v71q34 -10 66 -10q38 0 56 21t18 63v619h88v-616q0 -80 -38.5 -120t-112.5 -40z" />
    <glyph glyph-name="uni0136" unicode="&#x136;" horiz-adv-x="619" 
d="M246 -209q11 25 24 70.5t17 77.5h87v-9q-8 -31 -31.5 -76.5t-48.5 -74.5h-48v12zM78.5 850q7.5 -7 11.5 -18q2 -10 2 -16q8 -169 11 -248v-83l97 143q62 93 127 158q17 15 33 27q1 1 17 7q3 1 8 1q13 0 20 -12q3 -4 3 -11q0 -14 -12 -19q-36 -18 -59 -43.5t-64 -80.5
q-39 -53 -124 -177l-24 -36q-12 -16 -12 -23t15 -23q101 -113 220 -204.5t224 -91.5q103 0 166 110q4 7 13 7q11 0 20 -9.5t4 -18.5q-83 -136 -216 -136q-100 0 -210 70.5t-206 174.5q-8 9 -46 56q-4 -12 -4 -21q-2 -96 -2 -142q0 -60 -18 -148q-3 -16 -13.5 -26t-23.5 -9
q-14 2 -24 12.5t-11 25.5l-1 41l1 40q6 208 11 314q6 210 10 323q0 17 6 51q2 11 6 20q6 20 28 22q9 0 16.5 -7z" />
    <glyph glyph-name="uni0137" unicode="&#x137;" horiz-adv-x="534" 
d="M203 -209q11 25 24 70.5t17 77.5h87v-9q-8 -31 -31.5 -76.5t-48.5 -74.5h-48v12zM206 869q11 -30 11 -83q-3 -126 -49 -240q-22 -50 -34 -75l-20 -44l-7 -17l23 7q6 1 22.5 4t30.5 3q33 -1 54 -22t21 -51q0 -19 -7 -34q-8 -20 -21 -34q-16 -20 -50 -58l-25 -29l-29 -32
q4 -10 56 -20.5t115 -10.5q75 0 135 18.5t86 60.5q3 5 13 1t18 -11.5t5 -12.5q-38 -62 -128.5 -86t-198.5 -24q-58 0 -124 7l3 -29l4 -36q2 -12 4 -36q0 -19 -6 -35q-7 -17 -23 -17q-7 0 -15 3q-25 10 -30 38q-6 29 -16 87q-17 99 -30 264q0 10 -2 28q-10 124 -10 187
q0 21 2 65q4 62 9 102.5t17 79.5q23 70 60 107q27 27 60 27q19 0 41 -11q26 -13 35 -41zM81 825q-21 -52 -19 -126q0 -68 3 -139q2 -42 8 -134q4 0 6 -1q1 3 26.5 61.5t42.5 105.5q26 71 33 180q1 9 1 26q0 29 -8 53q-4 13 -15.5 20.5t-24.5 7.5q-18 0 -30 -14t-23 -40z
M156 363q-20 0 -39.5 -5.5t-29.5 -14.5q-5 -5 -5 -11l4 -78q26 16 59 52t38 53q-11 4 -27 4z" />
    <glyph glyph-name="kgreenlandic" unicode="&#x138;" horiz-adv-x="534" 
d="M403 536h106l-203 -237l219 -299h-105l-176 242l-66 -54v-188h-93v536h93v-139q0 -68 -6 -135l41 50z" />
    <glyph glyph-name="Lacute" unicode="&#x139;" horiz-adv-x="523" 
d="M359 976q22 0 41 -12.5t29 -34.5q8 -19 8 -45q0 -40 -23 -81t-64 -71q-18 -15 -60 -37q-10 -6 -15.5 -12t-6.5 -16l-7 -40q-21 -111 -32.5 -178.5t-19.5 -138.5q-9 -71 -21 -148l-10 -65q19 -11 42 -29q26 -19 40.5 -28t32.5 -16q26 -9 50 -9q71 0 144 58.5t124 143.5
q4 8 13 8q11 0 19.5 -12t2.5 -21q-67 -106 -147 -166.5t-162 -60.5q-70 0 -134 45l-49 35l-14 -22q-4 -6 -12.5 -20t-17.5 -23q-65 -68 -133 -68q-50 0 -110 35q-46 27 -56 88q-1 5 -1 14q0 33 25 58.5t66.5 39.5t87.5 14q34 0 62 -7q6 -1 25 -6q1 5 3 12.5t3 16.5l7 56
q10 92 18 137q14 78 30 156q7 31 19 93l8 33l-24 -2q-22 -2 -32 -2q-60 0 -118 26q-57 26 -69 86q-2 10 -2 16q0 20 12 36q9 12 20 12q6 0 9 -2q10 -4 10 -13q0 -4 -2 -12q-1 -4 -1 -12q0 -17 8.5 -32t24.5 -22q54 -27 112 -27q27 0 56 6q8 1 11.5 5.5t7.5 14.5q3 8 14 41.5
t25 61.5q18 38 52 92q13 21 34 35q22 16 47 16zM321.5 861q-21.5 -53 -26.5 -106q35 24 62.5 65t27.5 68q0 20 -18 23q-24 3 -45.5 -50zM-33 107q-46 0 -74 -19.5t-28 -45.5q0 -24 23.5 -40.5t67.5 -16.5q18 0 34 8q26 14 41 37t28 59q-48 18 -92 18zM118 783
q19 23 47.5 66.5t47.5 81.5h106v-10q-21 -31 -66.5 -78.5t-76.5 -71.5h-58v12z" />
    <glyph glyph-name="lacute" unicode="&#x13a;" horiz-adv-x="257" 
d="M262 983q26 0 41 -22q17 -25 17 -48q0 -43 -7 -78q-8 -37 -52.5 -169.5t-91.5 -254t-69 -149.5q-18 -23 -21 -55q-4 -28 -4 -52q0 -23 3.5 -36.5t8 -24t6.5 -17.5q11 -33 48 -33q35 0 86 28.5t97 69t66 73.5q3 4 8 4t11 -3t10 -8t4 -13q0 -7 -4 -13q-61 -75 -138.5 -129
t-141.5 -54q-63 0 -100 58q-26 41 -33 110q-3 26 -4 46t-2 35l-2 31q5 160 31.5 300.5t74 242t110.5 143.5q13 9 30 15q9 3 18 3zM102 361l-3 -28q16 29 54 135t74 217.5t42 137.5q6 29 8 69v17.5t-1 16t-3 4.5q-5 0 -26 -21q-105 -105 -145 -548zM81 811q19 23 47.5 66.5
t47.5 81.5h106v-10q-21 -31 -66.5 -78.5t-76.5 -71.5h-58v12z" />
    <glyph glyph-name="uni013B" unicode="&#x13b;" horiz-adv-x="523" 
d="M204 -209q11 25 24 70.5t17 77.5h87v-9q-8 -31 -31.5 -76.5t-48.5 -74.5h-48v12zM359 976q22 0 41 -12.5t29 -34.5q8 -19 8 -45q0 -40 -23 -81t-64 -71q-18 -15 -60 -37q-10 -6 -15.5 -12t-6.5 -16l-7 -40q-21 -111 -32.5 -178.5t-19.5 -138.5q-9 -71 -21 -148l-10 -65
q19 -11 42 -29q26 -19 40.5 -28t32.5 -16q26 -9 50 -9q71 0 144 58.5t124 143.5q4 8 13 8q11 0 19.5 -12t2.5 -21q-67 -106 -147 -166.5t-162 -60.5q-70 0 -134 45l-49 35l-14 -22q-4 -6 -12.5 -20t-17.5 -23q-65 -68 -133 -68q-50 0 -110 35q-46 27 -56 88q-1 5 -1 14
q0 33 25 58.5t66.5 39.5t87.5 14q34 0 62 -7q6 -1 25 -6q1 5 3 12.5t3 16.5l7 56q10 92 18 137q14 78 30 156q7 31 19 93l8 33l-24 -2q-22 -2 -32 -2q-60 0 -118 26q-57 26 -69 86q-2 10 -2 16q0 20 12 36q9 12 20 12q6 0 9 -2q10 -4 10 -13q0 -4 -2 -12q-1 -4 -1 -12
q0 -17 8.5 -32t24.5 -22q54 -27 112 -27q27 0 56 6q8 1 11.5 5.5t7.5 14.5q3 8 14 41.5t25 61.5q18 38 52 92q13 21 34 35q22 16 47 16zM321.5 861q-21.5 -53 -26.5 -106q35 24 62.5 65t27.5 68q0 20 -18 23q-24 3 -45.5 -50zM-33 107q-46 0 -74 -19.5t-28 -45.5
q0 -24 23.5 -40.5t67.5 -16.5q18 0 34 8q26 14 41 37t28 59q-48 18 -92 18z" />
    <glyph glyph-name="uni013C" unicode="&#x13c;" horiz-adv-x="257" 
d="M45 -209q11 25 24 70.5t17 77.5h87v-9q-8 -31 -31.5 -76.5t-48.5 -74.5h-48v12zM262 983q26 0 41 -22q17 -25 17 -48q0 -43 -7 -78q-8 -37 -52.5 -169.5t-91.5 -254t-69 -149.5q-18 -23 -21 -55q-4 -28 -4 -52q0 -23 3.5 -36.5t8 -24t6.5 -17.5q11 -33 48 -33
q35 0 86 28.5t97 69t66 73.5q3 4 8 4t11 -3t10 -8t4 -13q0 -7 -4 -13q-61 -75 -138.5 -129t-141.5 -54q-63 0 -100 58q-26 41 -33 110q-3 26 -4 46t-2 35l-2 31q5 160 31.5 300.5t74 242t110.5 143.5q13 9 30 15q9 3 18 3zM102 361l-3 -28q16 29 54 135t74 217.5t42 137.5
q6 29 8 69v17.5t-1 16t-3 4.5q-5 0 -26 -21q-105 -105 -145 -548z" />
    <glyph glyph-name="Lcaron" unicode="&#x13d;" horiz-adv-x="523" 
d="M333 567q11 32 20.5 77.5t12.5 70.5h87v-9q-6 -26 -27 -71t-45 -80h-48v12zM359 976q22 0 41 -12.5t29 -34.5q8 -19 8 -45q0 -40 -23 -81t-64 -71q-18 -15 -60 -37q-10 -6 -15.5 -12t-6.5 -16l-7 -40q-21 -111 -32.5 -178.5t-19.5 -138.5q-9 -71 -21 -148l-10 -65
q19 -11 42 -29q26 -19 40.5 -28t32.5 -16q26 -9 50 -9q71 0 144 58.5t124 143.5q4 8 13 8q11 0 19.5 -12t2.5 -21q-67 -106 -147 -166.5t-162 -60.5q-70 0 -134 45l-49 35l-14 -22q-4 -6 -12.5 -20t-17.5 -23q-65 -68 -133 -68q-50 0 -110 35q-46 27 -56 88q-1 5 -1 14
q0 33 25 58.5t66.5 39.5t87.5 14q34 0 62 -7q6 -1 25 -6q1 5 3 12.5t3 16.5l7 56q10 92 18 137q14 78 30 156q7 31 19 93l8 33l-24 -2q-22 -2 -32 -2q-60 0 -118 26q-57 26 -69 86q-2 10 -2 16q0 20 12 36q9 12 20 12q6 0 9 -2q10 -4 10 -13q0 -4 -2 -12q-1 -4 -1 -12
q0 -17 8.5 -32t24.5 -22q54 -27 112 -27q27 0 56 6q8 1 11.5 5.5t7.5 14.5q3 8 14 41.5t25 61.5q18 38 52 92q13 21 34 35q22 16 47 16zM321.5 861q-21.5 -53 -26.5 -106q35 24 62.5 65t27.5 68q0 20 -18 23q-24 3 -45.5 -50zM-33 107q-46 0 -74 -19.5t-28 -45.5
q0 -24 23.5 -40.5t67.5 -16.5q18 0 34 8q26 14 41 37t28 59q-48 18 -92 18z" />
    <glyph glyph-name="lcaron" unicode="&#x13e;" horiz-adv-x="257" 
d="M219 612q11 32 20.5 77.5t12.5 70.5h87v-9q-6 -26 -27 -71t-45 -80h-48v12zM262 983q26 0 41 -22q17 -25 17 -48q0 -43 -7 -78q-8 -37 -52.5 -169.5t-91.5 -254t-69 -149.5q-18 -23 -21 -55q-4 -28 -4 -52q0 -23 3.5 -36.5t8 -24t6.5 -17.5q11 -33 48 -33q35 0 86 28.5
t97 69t66 73.5q3 4 8 4t11 -3t10 -8t4 -13q0 -7 -4 -13q-61 -75 -138.5 -129t-141.5 -54q-63 0 -100 58q-26 41 -33 110q-3 26 -4 46t-2 35l-2 31q5 160 31.5 300.5t74 242t110.5 143.5q13 9 30 15q9 3 18 3zM102 361l-3 -28q16 29 54 135t74 217.5t42 137.5q6 29 8 69v17.5
t-1 16t-3 4.5q-5 0 -26 -21q-105 -105 -145 -548z" />
    <glyph glyph-name="Ldot" unicode="&#x13f;" horiz-adv-x="523" 
d="M332 357q0 29 15 42.5t37 13.5q21 0 36 -13.5t15 -42.5t-15.5 -42.5t-35.5 -13.5q-22 0 -37 13.5t-15 42.5zM359 976q22 0 41 -12.5t29 -34.5q8 -19 8 -45q0 -40 -23 -81t-64 -71q-18 -15 -60 -37q-10 -6 -15.5 -12t-6.5 -16l-7 -40q-21 -111 -32.5 -178.5t-19.5 -138.5
q-9 -71 -21 -148l-10 -65q19 -11 42 -29q26 -19 40.5 -28t32.5 -16q26 -9 50 -9q71 0 144 58.5t124 143.5q4 8 13 8q11 0 19.5 -12t2.5 -21q-67 -106 -147 -166.5t-162 -60.5q-70 0 -134 45l-49 35l-14 -22q-4 -6 -12.5 -20t-17.5 -23q-65 -68 -133 -68q-50 0 -110 35
q-46 27 -56 88q-1 5 -1 14q0 33 25 58.5t66.5 39.5t87.5 14q34 0 62 -7q6 -1 25 -6q1 5 3 12.5t3 16.5l7 56q10 92 18 137q14 78 30 156q7 31 19 93l8 33l-24 -2q-22 -2 -32 -2q-60 0 -118 26q-57 26 -69 86q-2 10 -2 16q0 20 12 36q9 12 20 12q6 0 9 -2q10 -4 10 -13
q0 -4 -2 -12q-1 -4 -1 -12q0 -17 8.5 -32t24.5 -22q54 -27 112 -27q27 0 56 6q8 1 11.5 5.5t7.5 14.5q3 8 14 41.5t25 61.5q18 38 52 92q13 21 34 35q22 16 47 16zM321.5 861q-21.5 -53 -26.5 -106q35 24 62.5 65t27.5 68q0 20 -18 23q-24 3 -45.5 -50zM-33 107
q-46 0 -74 -19.5t-28 -45.5q0 -24 23.5 -40.5t67.5 -16.5q18 0 34 8q26 14 41 37t28 59q-48 18 -92 18z" />
    <glyph glyph-name="ldot" unicode="&#x140;" horiz-adv-x="325" 
d="M240 333q0 29 15 42.5t37 13.5q21 0 36 -13.5t15 -42.5t-15.5 -42.5t-35.5 -13.5q-22 0 -37 13.5t-15 42.5zM262 983q26 0 41 -22q17 -25 17 -48q0 -43 -7 -78q-8 -37 -52.5 -169.5t-91.5 -254t-69 -149.5q-18 -23 -21 -55q-4 -28 -4 -52q0 -23 3.5 -36.5t8 -24
t6.5 -17.5q11 -33 48 -33q35 0 86 28.5t97 69t66 73.5q3 4 8 4t11 -3t10 -8t4 -13q0 -7 -4 -13q-61 -75 -138.5 -129t-141.5 -54q-63 0 -100 58q-26 41 -33 110q-3 26 -4 46t-2 35l-2 31q5 160 31.5 300.5t74 242t110.5 143.5q13 9 30 15q9 3 18 3zM102 361l-3 -28
q16 29 54 135t74 217.5t42 137.5q6 29 8 69v17.5t-1 16t-3 4.5q-5 0 -26 -21q-105 -105 -145 -548z" />
    <glyph glyph-name="Lslash" unicode="&#x141;" horiz-adv-x="523" 
d="M97 0v247l-49 -28l-35 60l84 50v385h90v-332l137 81l36 -63l-173 -100v-220h312v-80h-402z" />
    <glyph glyph-name="lslash" unicode="&#x142;" horiz-adv-x="257" 
d="M166 425l64 44l37 -59l-101 -68v-342h-88v285l-51 -32l-36 59l87 56v392h88v-335z" />
    <glyph glyph-name="Nacute" unicode="&#x143;" horiz-adv-x="759" 
d="M32 687q14 0 23 -14q12 -16 20 -36q20 -59 31.5 -108.5t12.5 -99.5q0 -4 2 -14h4l13 23l35 57q24 36 41 52q32 31 67 31q24 0 44.5 -16.5t31.5 -46.5q16 -44 16 -96q0 -15 -2 -45l-1 -20l-1 -95q-1 -37 -1 -118q4 -49 27.5 -73t61.5 -24q55 0 123.5 47.5t121.5 125.5
q3 5 12.5 -0.5t16.5 -14t4 -13.5q-60 -90 -133 -143t-147 -53q-60 0 -116 38q-36 23 -50 71q-16 51 -16 117q0 17 2 51q2 33 10 99l6 56q1 7 1 20l-1 41q0 1 -3 13q-6 20 -17 20q-7 0 -18 -8q-17 -12 -32 -31q-45 -57 -74 -120l-11 -28q-11 -25 -13 -68q0 -29 -4 -85
q0 -15 -2 -43q-1 -14 -1 -41q0 -21 -16 -28q-3 -2 -11 -2q-15 0 -23 11q-10 16 -11 27q-9 49 -15 107t-10 113l-6 79q-6 67 -23 224l-1 15q0 8 2 22q3 18 23 23q2 1 7 1zM318 783q19 23 47.5 66.5t47.5 81.5h106v-10q-21 -31 -66.5 -78.5t-76.5 -71.5h-58v12z" />
    <glyph glyph-name="nacute" unicode="&#x144;" horiz-adv-x="618" 
d="M-34 397q11 0 19 -9q13 -13 20 -27q20 -34 31 -72t20 -89l4 -27l25 29q8 10 15 18t13 15q39 42 76 61q24 12 47 12q43 0 72 -38q34 -41 34 -95q0 -8 -2 -26q-3 -15 -11 -45q-1 -7 -8 -34q-12 -56 -16 -89q-1 -4 -1 -10q0 -18 16 -18q6 0 15 3q12 3 25.5 10t17.5 9
q57 27 112.5 75.5t96.5 96t54 70.5q3 5 10 5q11 0 20.5 -9.5t4.5 -20.5q-7 -16 -54.5 -69.5t-109.5 -109.5t-116 -86q-45 -25 -87 -25q-48 0 -77 26t-29 70q0 27 5.5 52.5t17.5 61.5q12 31 22 63q3 12 3 23q0 14 -5 31q-9 20 -23 20q-8 0 -15 -3q-25 -12 -40 -25
q-50 -41 -93 -99q-7 -12 -9 -26q-2 -9 -4 -23.5t-4 -23.5q-2 -15 -11.5 -23.5t-24.5 -8.5q-17 0 -30 16q-21 28 -24 69l-3 38q-6 74 -10 107q-1 13 -11 62l-6 27q-1 6 -2.5 13t-2.5 15q0 21 17 29q10 4 16 4zM250 618q19 23 47.5 66.5t47.5 81.5h106v-10
q-21 -31 -66.5 -78.5t-76.5 -71.5h-58v12z" />
    <glyph glyph-name="uni0145" unicode="&#x145;" horiz-adv-x="759" 
d="M281 -209q11 25 24 70.5t17 77.5h87v-9q-8 -31 -31.5 -76.5t-48.5 -74.5h-48v12zM32 687q14 0 23 -14q12 -16 20 -36q20 -59 31.5 -108.5t12.5 -99.5q0 -4 2 -14h4l13 23l35 57q24 36 41 52q32 31 67 31q24 0 44.5 -16.5t31.5 -46.5q16 -44 16 -96q0 -15 -2 -45l-1 -20
l-1 -95q-1 -37 -1 -118q4 -49 27.5 -73t61.5 -24q55 0 123.5 47.5t121.5 125.5q3 5 12.5 -0.5t16.5 -14t4 -13.5q-60 -90 -133 -143t-147 -53q-60 0 -116 38q-36 23 -50 71q-16 51 -16 117q0 17 2 51q2 33 10 99l6 56q1 7 1 20l-1 41q0 1 -3 13q-6 20 -17 20q-7 0 -18 -8
q-17 -12 -32 -31q-45 -57 -74 -120l-11 -28q-11 -25 -13 -68q0 -29 -4 -85q0 -15 -2 -43q-1 -14 -1 -41q0 -21 -16 -28q-3 -2 -11 -2q-15 0 -23 11q-10 16 -11 27q-9 49 -15 107t-10 113l-6 79q-6 67 -23 224l-1 15q0 8 2 22q3 18 23 23q2 1 7 1z" />
    <glyph glyph-name="uni0146" unicode="&#x146;" horiz-adv-x="618" 
d="M222 -209q11 25 24 70.5t17 77.5h87v-9q-8 -31 -31.5 -76.5t-48.5 -74.5h-48v12zM-34 397q11 0 19 -9q13 -13 20 -27q20 -34 31 -72t20 -89l4 -27l25 29q8 10 15 18t13 15q39 42 76 61q24 12 47 12q43 0 72 -38q34 -41 34 -95q0 -8 -2 -26q-3 -15 -11 -45q-1 -7 -8 -34
q-12 -56 -16 -89q-1 -4 -1 -10q0 -18 16 -18q6 0 15 3q12 3 25.5 10t17.5 9q57 27 112.5 75.5t96.5 96t54 70.5q3 5 10 5q11 0 20.5 -9.5t4.5 -20.5q-7 -16 -54.5 -69.5t-109.5 -109.5t-116 -86q-45 -25 -87 -25q-48 0 -77 26t-29 70q0 27 5.5 52.5t17.5 61.5q12 31 22 63
q3 12 3 23q0 14 -5 31q-9 20 -23 20q-8 0 -15 -3q-25 -12 -40 -25q-50 -41 -93 -99q-7 -12 -9 -26q-2 -9 -4 -23.5t-4 -23.5q-2 -15 -11.5 -23.5t-24.5 -8.5q-17 0 -30 16q-21 28 -24 69l-3 38q-6 74 -10 107q-1 13 -11 62l-6 27q-1 6 -2.5 13t-2.5 15q0 21 17 29q10 4 16 4
z" />
    <glyph glyph-name="Ncaron" unicode="&#x147;" horiz-adv-x="759" 
d="M211 931h60q56 -36 107 -92q62 62 109 92h62v-13q-100 -100 -125 -147h-90q-29 50 -123 147v13zM32 687q14 0 23 -14q12 -16 20 -36q20 -59 31.5 -108.5t12.5 -99.5q0 -4 2 -14h4l13 23l35 57q24 36 41 52q32 31 67 31q24 0 44.5 -16.5t31.5 -46.5q16 -44 16 -96
q0 -15 -2 -45l-1 -20l-1 -95q-1 -37 -1 -118q4 -49 27.5 -73t61.5 -24q55 0 123.5 47.5t121.5 125.5q3 5 12.5 -0.5t16.5 -14t4 -13.5q-60 -90 -133 -143t-147 -53q-60 0 -116 38q-36 23 -50 71q-16 51 -16 117q0 17 2 51q2 33 10 99l6 56q1 7 1 20l-1 41q0 1 -3 13
q-6 20 -17 20q-7 0 -18 -8q-17 -12 -32 -31q-45 -57 -74 -120l-11 -28q-11 -25 -13 -68q0 -29 -4 -85q0 -15 -2 -43q-1 -14 -1 -41q0 -21 -16 -28q-3 -2 -11 -2q-15 0 -23 11q-10 16 -11 27q-9 49 -15 107t-10 113l-6 79q-6 67 -23 224l-1 15q0 8 2 22q3 18 23 23q2 1 7 1z
" />
    <glyph glyph-name="ncaron" unicode="&#x148;" horiz-adv-x="618" 
d="M144 766h60q56 -36 107 -92q62 62 109 92h62v-13q-100 -100 -125 -147h-90q-29 50 -123 147v13zM-34 397q11 0 19 -9q13 -13 20 -27q20 -34 31 -72t20 -89l4 -27l25 29q8 10 15 18t13 15q39 42 76 61q24 12 47 12q43 0 72 -38q34 -41 34 -95q0 -8 -2 -26q-3 -15 -11 -45
q-1 -7 -8 -34q-12 -56 -16 -89q-1 -4 -1 -10q0 -18 16 -18q6 0 15 3q12 3 25.5 10t17.5 9q57 27 112.5 75.5t96.5 96t54 70.5q3 5 10 5q11 0 20.5 -9.5t4.5 -20.5q-7 -16 -54.5 -69.5t-109.5 -109.5t-116 -86q-45 -25 -87 -25q-48 0 -77 26t-29 70q0 27 5.5 52.5t17.5 61.5
q12 31 22 63q3 12 3 23q0 14 -5 31q-9 20 -23 20q-8 0 -15 -3q-25 -12 -40 -25q-50 -41 -93 -99q-7 -12 -9 -26q-2 -9 -4 -23.5t-4 -23.5q-2 -15 -11.5 -23.5t-24.5 -8.5q-17 0 -30 16q-21 28 -24 69l-3 38q-6 74 -10 107q-1 13 -11 62l-6 27q-1 6 -2.5 13t-2.5 15
q0 21 17 29q10 4 16 4z" />
    <glyph glyph-name="napostrophe" unicode="&#x149;" horiz-adv-x="690" 
d="M145 714l7 -11q-25 -97 -86 -234h-65q34 139 50 245h94zM37 397q11 0 19 -9q13 -13 20 -27q20 -34 31 -72t20 -89l4 -27l25 29q8 10 15 18t13 15q39 42 76 61q24 12 47 12q43 0 72 -38q34 -41 34 -95q0 -8 -2 -26q-3 -15 -11 -45q-1 -7 -8 -34q-12 -56 -16 -89
q-1 -4 -1 -10q0 -18 16 -18q6 0 15 3q12 3 25.5 10t17.5 9q57 27 112.5 75.5t96.5 96t54 70.5q3 5 10 5q11 0 20.5 -9.5t4.5 -20.5q-7 -16 -54.5 -69.5t-109.5 -109.5t-116 -86q-45 -25 -87 -25q-48 0 -77 26t-29 70q0 27 5.5 52.5t17.5 61.5q12 31 22 63q3 12 3 23
q0 14 -5 31q-9 20 -23 20q-8 0 -15 -3q-25 -12 -40 -25q-50 -41 -93 -99q-7 -12 -9 -26q-2 -9 -4 -23.5t-4 -23.5q-2 -15 -11.5 -23.5t-24.5 -8.5q-17 0 -30 16q-21 28 -24 69l-3 38q-6 74 -10 107q-1 13 -11 62l-6 27q-1 6 -2.5 13t-2.5 15q0 21 17 29q10 4 16 4z" />
    <glyph glyph-name="Eng" unicode="&#x14a;" horiz-adv-x="759" 
d="M475 -190q-48 0 -76 13v76q35 -10 76 -10q50 0 76.5 28.5t27.5 82.5l-403 593h-4q8 -125 8 -206v-387h-83v714h104l381 -572h4q-7 75 -7 200v372h84v-708q0 -96 -48.5 -146t-139.5 -50z" />
    <glyph glyph-name="eng" unicode="&#x14b;" horiz-adv-x="618" 
d="M394 -240q-42 0 -71 12v71q29 -10 60 -10q67 0 67 84v427q0 65 -29 96.5t-90 31.5q-83 0 -120.5 -45.5t-37.5 -147.5v-279h-88v536h71l14 -73h5q25 40 69 61.5t98 21.5q99 0 147.5 -46.5t48.5 -149.5v-430q0 -75 -35 -117.5t-109 -42.5z" />
    <glyph glyph-name="Omacron" unicode="&#x14c;" horiz-adv-x="780" 
d="M242 842h297v-71h-297v71zM211.5 722q38.5 15 80.5 15q60 0 114 -31.5t83 -92.5q48 -99 48 -205q0 -55 -10.5 -113t-32.5 -141q-21 -82 -69 -141.5t-109.5 -90.5t-122.5 -31q-77 0 -131 50.5t-60 145.5q-2 40 -2 60q0 198 101 334q23 31 62 60q13 11 45 19q3 1 9 1
q18 0 29 -18q5 -8 5 -16q0 -10 -11 -25q-49 -55 -79 -134q-51 -134 -58 -252v-12q0 -19 1 -29q4 -60 58 -89q35 -19 69 -19q59 0 108.5 52.5t88.5 135.5q59 127 56 248q4 83 -34 165q-26 61 -87 94q-21 11 -51 13q-77 5 -123 -40l-81 -76q-3 -3 -7 -9q-9 -7 -16 -7
q-4 0 -12 4q-8 5 -11 12t0 14q5 17 15 29q39 45 69 77q27 28 65.5 43z" />
    <glyph glyph-name="omacron" unicode="&#x14d;" horiz-adv-x="604" 
d="M154 677h297v-71h-297v71zM120 330q16 0 29 -7q22 -11 22 -34q0 -10 -5.5 -16t-15.5 -11q-35 -14 -59 -57q-30 -55 -30 -106q0 -29 15.5 -47t44.5 -21q18 -2 38 7t46 27l-27 15q-37 24 -37 62q0 9 1 14q10 48 63 59q10 3 20 3q33 0 56 -31q24 -30 24 -73l24 -1
q83 0 155 28.5t93 68.5q2 4 13 1.5t19.5 -9.5t4.5 -13q-27 -49 -113 -87.5t-190 -46.5q-24 -1 -33 -19q-47 -81 -144 -94q-6 -1 -19 -1q-39 0 -74 17.5t-56.5 52t-21.5 80.5q0 103 64 185q27 34 66 49q15 5 27 5z" />
    <glyph glyph-name="Obreve" unicode="&#x14e;" horiz-adv-x="780" 
d="M387 771q-69 0 -108.5 33.5t-44.5 100.5h54q4 -35 24.5 -49t76.5 -14q49 0 73 15.5t28 47.5h55q-6 -64 -48 -99t-110 -35zM211.5 722q38.5 15 80.5 15q60 0 114 -31.5t83 -92.5q48 -99 48 -205q0 -55 -10.5 -113t-32.5 -141q-21 -82 -69 -141.5t-109.5 -90.5t-122.5 -31
q-77 0 -131 50.5t-60 145.5q-2 40 -2 60q0 198 101 334q23 31 62 60q13 11 45 19q3 1 9 1q18 0 29 -18q5 -8 5 -16q0 -10 -11 -25q-49 -55 -79 -134q-51 -134 -58 -252v-12q0 -19 1 -29q4 -60 58 -89q35 -19 69 -19q59 0 108.5 52.5t88.5 135.5q59 127 56 248q4 83 -34 165
q-26 61 -87 94q-21 11 -51 13q-77 5 -123 -40l-81 -76q-3 -3 -7 -9q-9 -7 -16 -7q-4 0 -12 4q-8 5 -11 12t0 14q5 17 15 29q39 45 69 77q27 28 65.5 43z" />
    <glyph glyph-name="obreve" unicode="&#x14f;" horiz-adv-x="604" 
d="M299 606q-69 0 -108.5 33.5t-44.5 100.5h54q4 -35 24.5 -49t76.5 -14q49 0 73 15.5t28 47.5h55q-6 -64 -48 -99t-110 -35zM120 330q16 0 29 -7q22 -11 22 -34q0 -10 -5.5 -16t-15.5 -11q-35 -14 -59 -57q-30 -55 -30 -106q0 -29 15.5 -47t44.5 -21q18 -2 38 7t46 27
l-27 15q-37 24 -37 62q0 9 1 14q10 48 63 59q10 3 20 3q33 0 56 -31q24 -30 24 -73l24 -1q83 0 155 28.5t93 68.5q2 4 13 1.5t19.5 -9.5t4.5 -13q-27 -49 -113 -87.5t-190 -46.5q-24 -1 -33 -19q-47 -81 -144 -94q-6 -1 -19 -1q-39 0 -74 17.5t-56.5 52t-21.5 80.5
q0 103 64 185q27 34 66 49q15 5 27 5z" />
    <glyph glyph-name="Ohungarumlaut" unicode="&#x150;" horiz-adv-x="780" 
d="M246 783q17 22 42.5 65.5t44.5 82.5h96v-10q-16 -27 -58.5 -75t-74.5 -75h-50v12zM422 783q23 32 49 76.5t38 71.5h96v-10q-16 -27 -58.5 -75t-74.5 -75h-50v12zM211.5 722q38.5 15 80.5 15q60 0 114 -31.5t83 -92.5q48 -99 48 -205q0 -55 -10.5 -113t-32.5 -141
q-21 -82 -69 -141.5t-109.5 -90.5t-122.5 -31q-77 0 -131 50.5t-60 145.5q-2 40 -2 60q0 198 101 334q23 31 62 60q13 11 45 19q3 1 9 1q18 0 29 -18q5 -8 5 -16q0 -10 -11 -25q-49 -55 -79 -134q-51 -134 -58 -252v-12q0 -19 1 -29q4 -60 58 -89q35 -19 69 -19
q59 0 108.5 52.5t88.5 135.5q59 127 56 248q4 83 -34 165q-26 61 -87 94q-21 11 -51 13q-77 5 -123 -40l-81 -76q-3 -3 -7 -9q-9 -7 -16 -7q-4 0 -12 4q-8 5 -11 12t0 14q5 17 15 29q39 45 69 77q27 28 65.5 43z" />
    <glyph glyph-name="ohungarumlaut" unicode="&#x151;" horiz-adv-x="604" 
d="M154 618q17 22 42.5 65.5t44.5 82.5h96v-10q-16 -27 -58.5 -75t-74.5 -75h-50v12zM330 618q23 32 49 76.5t38 71.5h96v-10q-16 -27 -58.5 -75t-74.5 -75h-50v12zM120 330q16 0 29 -7q22 -11 22 -34q0 -10 -5.5 -16t-15.5 -11q-35 -14 -59 -57q-30 -55 -30 -106
q0 -29 15.5 -47t44.5 -21q18 -2 38 7t46 27l-27 15q-37 24 -37 62q0 9 1 14q10 48 63 59q10 3 20 3q33 0 56 -31q24 -30 24 -73l24 -1q83 0 155 28.5t93 68.5q2 4 13 1.5t19.5 -9.5t4.5 -13q-27 -49 -113 -87.5t-190 -46.5q-24 -1 -33 -19q-47 -81 -144 -94q-6 -1 -19 -1
q-39 0 -74 17.5t-56.5 52t-21.5 80.5q0 103 64 185q27 34 66 49q15 5 27 5z" />
    <glyph glyph-name="OE" unicode="&#x152;" horiz-adv-x="928" 
d="M868 0h-380q-50 -10 -97 -10q-159 0 -244.5 96.5t-85.5 272.5q0 175 84 270.5t241 95.5q52 0 96 -11h386v-79h-287v-223h268v-78h-268v-255h287v-79zM394 646q-118 0 -178.5 -73.5t-60.5 -214.5t60.5 -215.5t177.5 -74.5q57 0 99 17v545q-41 16 -98 16z" />
    <glyph glyph-name="oe" unicode="&#x153;" horiz-adv-x="945" 
d="M699 -10q-142 0 -204 111q-31 -55 -82 -83t-117 -28q-110 0 -176 75.5t-66 203.5q0 130 64.5 203t180.5 73q63 0 113 -28t80 -82q29 53 76 81.5t109 28.5q100 0 158.5 -64.5t58.5 -176.5v-53h-356q4 -186 162 -186q44 0 81.5 7.5t88.5 29.5v-77q-45 -20 -83 -27.5
t-88 -7.5zM146 269q0 -102 35.5 -154t115.5 -52q78 0 114 51t36 151q0 104 -36.5 155.5t-115.5 51.5t-114 -51.5t-35 -151.5zM676 473q-60 0 -95 -38.5t-41 -113.5h261q0 74 -31.5 113t-93.5 39z" />
    <glyph glyph-name="Racute" unicode="&#x154;" horiz-adv-x="622" 
d="M285 786q38 0 72 -32q34 -34 52.5 -87.5t18.5 -115.5q0 -65 -20.5 -125.5t-60.5 -104.5t-98 -59q16 -35 62.5 -64t109 -45.5t124.5 -16.5q66 0 116.5 20t74.5 61q3 6 11 6q9 0 17 -7.5t8 -16.5q0 -4 -3 -10q-31 -49 -98.5 -77t-151.5 -28q-79 0 -155 25q-55 18 -104 58
t-102 94q-27 27 -30 29l-10 -112l-11 -151l-4 -25q-2 -8 -4 -22q-1 -11 -1 -34q2 -17 -5.5 -29.5t-21.5 -17.5q-5 -2 -14 -2q-12 0 -22.5 6t-16.5 17q-7 12 -9 26q-1 6 -5 34.5t-4 54.5q2 246 27 591q2 29 10 78q2 9 4 25q3 20 13 34q14 21 34 21q23 0 35 -24q5 -12 11 -36
q1 -4 2 -10.5t4 -14.5l26 30q37 37 88 52q18 5 31 5zM202 709.5q-25 -19.5 -50 -52.5q-13 -16 -13 -39v-38v-77v-84l-1 -22q-3 -34 16.5 -57.5t51.5 -23.5q24 0 45.5 10t35.5 28q36 45 55 107t19 123q0 68 -21.5 112t-60.5 44q-9 0 -19 -3q-33 -8 -58 -27.5zM249 783
q19 23 47.5 66.5t47.5 81.5h106v-10q-21 -31 -66.5 -78.5t-76.5 -71.5h-58v12z" />
    <glyph glyph-name="racute" unicode="&#x155;" horiz-adv-x="413" 
d="M111.5 482q9.5 -7 12.5 -20q2 -18 2 -26q0 -32 9 -47.5t43 -20.5q32 -4 45 -6.5t18 -5.5t8 -4q23 -11 23 -41q0 -21 -8.5 -47.5t-26.5 -69.5q-18 -44 -28 -75t-10 -56q0 -50 38 -50q33 0 85 33.5t101 80.5t71 81q3 4 8 4q11 0 21.5 -11.5t3.5 -18.5q-62 -83 -141 -151
t-161 -68q-7 0 -23 2q-43 6 -65 40t-22 80q0 32 5.5 54t18.5 61l14 40q5 17 5 26q0 27 -27 40q-3 2 -10 2q-12 0 -21.5 -14.5t-24.5 -45.5q-20 -45 -36 -66q-4 -5 -11 -5q-9 0 -17 6.5t-8 15.5q0 5 3 9l12 21q16 26 26 48t17 57q2 7 2 25q0 15 -1 25.5t-2 17.5q-3 21 -3 40
q0 23 7 35t26 12q12 0 21.5 -7zM174 618q19 23 47.5 66.5t47.5 81.5h106v-10q-21 -31 -66.5 -78.5t-76.5 -71.5h-58v12z" />
    <glyph glyph-name="uni0156" unicode="&#x156;" horiz-adv-x="622" 
d="M242 -209q11 25 24 70.5t17 77.5h87v-9q-8 -31 -31.5 -76.5t-48.5 -74.5h-48v12zM285 786q38 0 72 -32q34 -34 52.5 -87.5t18.5 -115.5q0 -65 -20.5 -125.5t-60.5 -104.5t-98 -59q16 -35 62.5 -64t109 -45.5t124.5 -16.5q66 0 116.5 20t74.5 61q3 6 11 6q9 0 17 -7.5
t8 -16.5q0 -4 -3 -10q-31 -49 -98.5 -77t-151.5 -28q-79 0 -155 25q-55 18 -104 58t-102 94q-27 27 -30 29l-10 -112l-11 -151l-4 -25q-2 -8 -4 -22q-1 -11 -1 -34q2 -17 -5.5 -29.5t-21.5 -17.5q-5 -2 -14 -2q-12 0 -22.5 6t-16.5 17q-7 12 -9 26q-1 6 -5 34.5t-4 54.5
q2 246 27 591q2 29 10 78q2 9 4 25q3 20 13 34q14 21 34 21q23 0 35 -24q5 -12 11 -36q1 -4 2 -10.5t4 -14.5l26 30q37 37 88 52q18 5 31 5zM202 709.5q-25 -19.5 -50 -52.5q-13 -16 -13 -39v-38v-77v-84l-1 -22q-3 -34 16.5 -57.5t51.5 -23.5q24 0 45.5 10t35.5 28
q36 45 55 107t19 123q0 68 -21.5 112t-60.5 44q-9 0 -19 -3q-33 -8 -58 -27.5z" />
    <glyph glyph-name="uni0157" unicode="&#x157;" horiz-adv-x="413" 
d="M48 -209q11 25 24 70.5t17 77.5h87v-9q-8 -31 -31.5 -76.5t-48.5 -74.5h-48v12zM111.5 482q9.5 -7 12.5 -20q2 -18 2 -26q0 -32 9 -47.5t43 -20.5q32 -4 45 -6.5t18 -5.5t8 -4q23 -11 23 -41q0 -21 -8.5 -47.5t-26.5 -69.5q-18 -44 -28 -75t-10 -56q0 -50 38 -50
q33 0 85 33.5t101 80.5t71 81q3 4 8 4q11 0 21.5 -11.5t3.5 -18.5q-62 -83 -141 -151t-161 -68q-7 0 -23 2q-43 6 -65 40t-22 80q0 32 5.5 54t18.5 61l14 40q5 17 5 26q0 27 -27 40q-3 2 -10 2q-12 0 -21.5 -14.5t-24.5 -45.5q-20 -45 -36 -66q-4 -5 -11 -5q-9 0 -17 6.5
t-8 15.5q0 5 3 9l12 21q16 26 26 48t17 57q2 7 2 25q0 15 -1 25.5t-2 17.5q-3 21 -3 40q0 23 7 35t26 12q12 0 21.5 -7z" />
    <glyph glyph-name="Rcaron" unicode="&#x158;" horiz-adv-x="622" 
d="M141 931h60q56 -36 107 -92q62 62 109 92h62v-13q-100 -100 -125 -147h-90q-29 50 -123 147v13zM285 786q38 0 72 -32q34 -34 52.5 -87.5t18.5 -115.5q0 -65 -20.5 -125.5t-60.5 -104.5t-98 -59q16 -35 62.5 -64t109 -45.5t124.5 -16.5q66 0 116.5 20t74.5 61q3 6 11 6
q9 0 17 -7.5t8 -16.5q0 -4 -3 -10q-31 -49 -98.5 -77t-151.5 -28q-79 0 -155 25q-55 18 -104 58t-102 94q-27 27 -30 29l-10 -112l-11 -151l-4 -25q-2 -8 -4 -22q-1 -11 -1 -34q2 -17 -5.5 -29.5t-21.5 -17.5q-5 -2 -14 -2q-12 0 -22.5 6t-16.5 17q-7 12 -9 26q-1 6 -5 34.5
t-4 54.5q2 246 27 591q2 29 10 78q2 9 4 25q3 20 13 34q14 21 34 21q23 0 35 -24q5 -12 11 -36q1 -4 2 -10.5t4 -14.5l26 30q37 37 88 52q18 5 31 5zM202 709.5q-25 -19.5 -50 -52.5q-13 -16 -13 -39v-38v-77v-84l-1 -22q-3 -34 16.5 -57.5t51.5 -23.5q24 0 45.5 10t35.5 28
q36 45 55 107t19 123q0 68 -21.5 112t-60.5 44q-9 0 -19 -3q-33 -8 -58 -27.5z" />
    <glyph glyph-name="rcaron" unicode="&#x159;" horiz-adv-x="413" 
d="M62 766h60q56 -36 107 -92q62 62 109 92h62v-13q-100 -100 -125 -147h-90q-29 50 -123 147v13zM111.5 482q9.5 -7 12.5 -20q2 -18 2 -26q0 -32 9 -47.5t43 -20.5q32 -4 45 -6.5t18 -5.5t8 -4q23 -11 23 -41q0 -21 -8.5 -47.5t-26.5 -69.5q-18 -44 -28 -75t-10 -56
q0 -50 38 -50q33 0 85 33.5t101 80.5t71 81q3 4 8 4q11 0 21.5 -11.5t3.5 -18.5q-62 -83 -141 -151t-161 -68q-7 0 -23 2q-43 6 -65 40t-22 80q0 32 5.5 54t18.5 61l14 40q5 17 5 26q0 27 -27 40q-3 2 -10 2q-12 0 -21.5 -14.5t-24.5 -45.5q-20 -45 -36 -66q-4 -5 -11 -5
q-9 0 -17 6.5t-8 15.5q0 5 3 9l12 21q16 26 26 48t17 57q2 7 2 25q0 15 -1 25.5t-2 17.5q-3 21 -3 40q0 23 7 35t26 12q12 0 21.5 -7z" />
    <glyph glyph-name="Sacute" unicode="&#x15a;" horiz-adv-x="548" 
d="M235 711q8 -11 10 -30v-1q0 -7 -4.5 -11t-10.5 -4q-4 0 -10 3q-3 2 -7.5 6.5l-7.5 7.5q-35 33 -70 33q-26 0 -38 -27q-9 -23 -9 -55q0 -22 2 -33q13 -78 55 -151q47 -78 96 -153q82 -124 106 -258l4 -11l24 11q118 55 177.5 91.5t91.5 87.5q4 8 15 8q9 0 16.5 -6t7.5 -15
q0 -7 -4 -12q-16 -33 -75.5 -75.5t-129.5 -80.5t-116 -58l2 -21q2 -14 4 -42q4 -68 3 -103q0 -53 -23.5 -103t-69.5 -85t-110 -44q-18 -3 -35 -3q-30 0 -60 9q-59 18 -68 83q-1 5 -1 16q0 21 9 52q17 49 51 90q94 110 195 158l9 6q-16 108 -63 186q-39 64 -97 152
q-31 49 -52 88.5t-33 80.5q-16 54 -16 103q0 47 16 91q22 56 66 74q18 7 38 7q18 0 31 -4q50 -13 81 -58zM255.5 -63.5q-8.5 -3.5 -16.5 -8.5q-94 -58 -160 -149q-17 -24 -28 -62q-4 -12 -4 -28l1 -20q3 -26 30 -33q20 -6 42 -6q33 0 66.5 13t54.5 35q39 40 44 106
q1 12 1 37q0 54 -13 124q-9 -5 -17.5 -8.5zM227 783q19 23 47.5 66.5t47.5 81.5h106v-10q-21 -31 -66.5 -78.5t-76.5 -71.5h-58v12z" />
    <glyph glyph-name="sacute" unicode="&#x15b;" horiz-adv-x="479" 
d="M102 426q3 -16 3 -48q0 -18 12 -39q18 -22 54 -70q44 -59 65 -132q1 -7 6 -17q0 1 3 -5q307 0 362 95q5 9 15 9q11 0 20 -9t5 -16q-32 -54 -126 -85.5t-272 -51.5q0 -30 -2.5 -53.5t-13.5 -49.5q-10 -33 -37.5 -52t-58.5 -19t-52 19.5t-21 55.5q0 9 1 14q9 49 48 81
q13 10 13 23q0 7 -3 14q-27 81 -64 129q-15 -29 -20 -37q-8 -11 -20 -11q-8 0 -15 5.5t-7 12.5q0 6 5 13q6 8 10.5 29t4.5 40q0 18 -5 28q-21 42 -27 63q-4 18 -4 27q0 27 15 52q10 18 26.5 27t34.5 7q36 -6 45 -49zM129 -7.5q-7 -8.5 -9 -26.5v-4q0 -8 4 -12.5t10 -4.5
q5 0 9 5t4 13q0 18 -3 38q-8 0 -15 -8.5zM181 618q19 23 47.5 66.5t47.5 81.5h106v-10q-21 -31 -66.5 -78.5t-76.5 -71.5h-58v12z" />
    <glyph glyph-name="Scircumflex" unicode="&#x15c;" horiz-adv-x="548" 
d="M116 782q61 65 86 96.5t37 52.5h90q25 -49 125 -149v-11h-62q-44 26 -109 90q-64 -62 -107 -90h-60v11zM235 711q8 -11 10 -30v-1q0 -7 -4.5 -11t-10.5 -4q-4 0 -10 3q-3 2 -7.5 6.5l-7.5 7.5q-35 33 -70 33q-26 0 -38 -27q-9 -23 -9 -55q0 -22 2 -33q13 -78 55 -151
q47 -78 96 -153q82 -124 106 -258l4 -11l24 11q118 55 177.5 91.5t91.5 87.5q4 8 15 8q9 0 16.5 -6t7.5 -15q0 -7 -4 -12q-16 -33 -75.5 -75.5t-129.5 -80.5t-116 -58l2 -21q2 -14 4 -42q4 -68 3 -103q0 -53 -23.5 -103t-69.5 -85t-110 -44q-18 -3 -35 -3q-30 0 -60 9
q-59 18 -68 83q-1 5 -1 16q0 21 9 52q17 49 51 90q94 110 195 158l9 6q-16 108 -63 186q-39 64 -97 152q-31 49 -52 88.5t-33 80.5q-16 54 -16 103q0 47 16 91q22 56 66 74q18 7 38 7q18 0 31 -4q50 -13 81 -58zM255.5 -63.5q-8.5 -3.5 -16.5 -8.5q-94 -58 -160 -149
q-17 -24 -28 -62q-4 -12 -4 -28l1 -20q3 -26 30 -33q20 -6 42 -6q33 0 66.5 13t54.5 35q39 40 44 106q1 12 1 37q0 54 -13 124q-9 -5 -17.5 -8.5z" />
    <glyph glyph-name="scircumflex" unicode="&#x15d;" horiz-adv-x="479" 
d="M77 617q61 65 86 96.5t37 52.5h90q25 -49 125 -149v-11h-62q-44 26 -109 90q-64 -62 -107 -90h-60v11zM102 426q3 -16 3 -48q0 -18 12 -39q18 -22 54 -70q44 -59 65 -132q1 -7 6 -17q0 1 3 -5q307 0 362 95q5 9 15 9q11 0 20 -9t5 -16q-32 -54 -126 -85.5t-272 -51.5
q0 -30 -2.5 -53.5t-13.5 -49.5q-10 -33 -37.5 -52t-58.5 -19t-52 19.5t-21 55.5q0 9 1 14q9 49 48 81q13 10 13 23q0 7 -3 14q-27 81 -64 129q-15 -29 -20 -37q-8 -11 -20 -11q-8 0 -15 5.5t-7 12.5q0 6 5 13q6 8 10.5 29t4.5 40q0 18 -5 28q-21 42 -27 63q-4 18 -4 27
q0 27 15 52q10 18 26.5 27t34.5 7q36 -6 45 -49zM129 -7.5q-7 -8.5 -9 -26.5v-4q0 -8 4 -12.5t10 -4.5q5 0 9 5t4 13q0 18 -3 38q-8 0 -15 -8.5z" />
    <glyph glyph-name="Scedilla" unicode="&#x15e;" horiz-adv-x="548" 
d="M235 711q8 -11 10 -30v-1q0 -7 -4.5 -11t-10.5 -4q-4 0 -10 3q-3 2 -7.5 6.5l-7.5 7.5q-35 33 -70 33q-26 0 -38 -27q-9 -23 -9 -55q0 -22 2 -33q13 -78 55 -151q47 -78 96 -153q82 -124 106 -258l4 -11l24 11q118 55 177.5 91.5t91.5 87.5q4 8 15 8q9 0 16.5 -6t7.5 -15
q0 -7 -4 -12q-16 -33 -75.5 -75.5t-129.5 -80.5t-116 -58l2 -21q2 -14 4 -42q4 -68 3 -103q0 -53 -23.5 -103t-69.5 -85t-110 -44q-18 -3 -35 -3q-30 0 -60 9q-59 18 -68 83q-1 5 -1 16q0 21 9 52q17 49 51 90q94 110 195 158l9 6q-16 108 -63 186q-39 64 -97 152
q-31 49 -52 88.5t-33 80.5q-16 54 -16 103q0 47 16 91q22 56 66 74q18 7 38 7q18 0 31 -4q50 -13 81 -58zM255.5 -63.5q-8.5 -3.5 -16.5 -8.5q-94 -58 -160 -149q-17 -24 -28 -62q-4 -12 -4 -28l1 -20q3 -26 30 -33q20 -6 42 -6q33 0 66.5 13t54.5 35q39 40 44 106
q1 12 1 37q0 54 -13 124q-9 -5 -17.5 -8.5zM358 -139q0 -48 -37 -74.5t-111 -26.5q-32 0 -50 5v55q18 -5 53 -5q37 0 55.5 9.5t18.5 34.5q0 43 -91 55l43 86h58l-26 -53q87 -19 87 -86z" />
    <glyph glyph-name="scedilla" unicode="&#x15f;" horiz-adv-x="479" 
d="M102 426q3 -16 3 -48q0 -18 12 -39q18 -22 54 -70q44 -59 65 -132q1 -7 6 -17q0 1 3 -5q307 0 362 95q5 9 15 9q11 0 20 -9t5 -16q-32 -54 -126 -85.5t-272 -51.5q0 -30 -2.5 -53.5t-13.5 -49.5q-10 -33 -37.5 -52t-58.5 -19t-52 19.5t-21 55.5q0 9 1 14q9 49 48 81
q13 10 13 23q0 7 -3 14q-27 81 -64 129q-15 -29 -20 -37q-8 -11 -20 -11q-8 0 -15 5.5t-7 12.5q0 6 5 13q6 8 10.5 29t4.5 40q0 18 -5 28q-21 42 -27 63q-4 18 -4 27q0 27 15 52q10 18 26.5 27t34.5 7q36 -6 45 -49zM129 -7.5q-7 -8.5 -9 -26.5v-4q0 -8 4 -12.5t10 -4.5
q5 0 9 5t4 13q0 18 -3 38q-8 0 -15 -8.5zM320 -139q0 -48 -37 -74.5t-111 -26.5q-32 0 -50 5v55q18 -5 53 -5q37 0 55.5 9.5t18.5 34.5q0 43 -91 55l43 86h58l-26 -53q87 -19 87 -86z" />
    <glyph glyph-name="Scaron" unicode="&#x160;" horiz-adv-x="548" 
d="M114 931h60q56 -36 107 -92q62 62 109 92h62v-13q-100 -100 -125 -147h-90q-29 50 -123 147v13zM235 711q8 -11 10 -30v-1q0 -7 -4.5 -11t-10.5 -4q-4 0 -10 3q-3 2 -7.5 6.5l-7.5 7.5q-35 33 -70 33q-26 0 -38 -27q-9 -23 -9 -55q0 -22 2 -33q13 -78 55 -151
q47 -78 96 -153q82 -124 106 -258l4 -11l24 11q118 55 177.5 91.5t91.5 87.5q4 8 15 8q9 0 16.5 -6t7.5 -15q0 -7 -4 -12q-16 -33 -75.5 -75.5t-129.5 -80.5t-116 -58l2 -21q2 -14 4 -42q4 -68 3 -103q0 -53 -23.5 -103t-69.5 -85t-110 -44q-18 -3 -35 -3q-30 0 -60 9
q-59 18 -68 83q-1 5 -1 16q0 21 9 52q17 49 51 90q94 110 195 158l9 6q-16 108 -63 186q-39 64 -97 152q-31 49 -52 88.5t-33 80.5q-16 54 -16 103q0 47 16 91q22 56 66 74q18 7 38 7q18 0 31 -4q50 -13 81 -58zM255.5 -63.5q-8.5 -3.5 -16.5 -8.5q-94 -58 -160 -149
q-17 -24 -28 -62q-4 -12 -4 -28l1 -20q3 -26 30 -33q20 -6 42 -6q33 0 66.5 13t54.5 35q39 40 44 106q1 12 1 37q0 54 -13 124q-9 -5 -17.5 -8.5z" />
    <glyph glyph-name="scaron" unicode="&#x161;" horiz-adv-x="479" 
d="M83 766h60q56 -36 107 -92q62 62 109 92h62v-13q-100 -100 -125 -147h-90q-29 50 -123 147v13zM102 426q3 -16 3 -48q0 -18 12 -39q18 -22 54 -70q44 -59 65 -132q1 -7 6 -17q0 1 3 -5q307 0 362 95q5 9 15 9q11 0 20 -9t5 -16q-32 -54 -126 -85.5t-272 -51.5
q0 -30 -2.5 -53.5t-13.5 -49.5q-10 -33 -37.5 -52t-58.5 -19t-52 19.5t-21 55.5q0 9 1 14q9 49 48 81q13 10 13 23q0 7 -3 14q-27 81 -64 129q-15 -29 -20 -37q-8 -11 -20 -11q-8 0 -15 5.5t-7 12.5q0 6 5 13q6 8 10.5 29t4.5 40q0 18 -5 28q-21 42 -27 63q-4 18 -4 27
q0 27 15 52q10 18 26.5 27t34.5 7q36 -6 45 -49zM129 -7.5q-7 -8.5 -9 -26.5v-4q0 -8 4 -12.5t10 -4.5q5 0 9 5t4 13q0 18 -3 38q-8 0 -15 -8.5z" />
    <glyph glyph-name="uni0162" unicode="&#x162;" horiz-adv-x="556" 
d="M525.5 737q9.5 -9 11.5 -24q1 -14 -8.5 -24t-26.5 -14l-107 -21q-26 -5 -44 -10l17 -59q15 -65 15 -157v-32q0 -198 -52 -385q-1 -6 -18 -64l-9 -32l-9 -36q-6 -28 -31 -28q-12 -1 -22 7t-12 20q-1 6 -1 20q0 13 1 20l4 27q2 11 8.5 51.5t14.5 74.5q42 183 45 386
q0 24 -2 53.5t-3 41.5l-3 39q-1 7 -3.5 16.5t-4.5 15.5l-21 -6q-100 -32 -180 -97q-31 -25 -42 -31t-19 -6q-10 0 -17 7t-7 18q0 12 5 19q7 12 15 20q44 55 116 99q130 80 253 99q18 3 55 3q38 0 56 -1q16 -1 25.5 -10zM371 -139q0 -48 -37 -74.5t-111 -26.5q-32 0 -50 5v55
q18 -5 53 -5q37 0 55.5 9.5t18.5 34.5q0 43 -91 55l43 86h58l-26 -53q87 -19 87 -86z" />
    <glyph glyph-name="uni0163" unicode="&#x163;" horiz-adv-x="360" 
d="M104 752q13 0 23 -9t13 -25q1 -4 1 -12q0 -10 -1 -17t-2 -11l-18 -73l33 19q88 57 181 78q13 3 29 3q11 0 16 -1q16 -1 26.5 -13.5t10.5 -30.5q0 -20 -19 -36q-31 -23 -62 -50q-18 -15 -26 -15q-12 0 -25 26q-74 -35 -171 -98q-8 -5 -11 -12.5t-5 -19.5q-13 -88 -13 -205
q0 -33 2 -97l2 -30q4 -75 11 -128.5t29 -98.5t65 -57q18 -5 40 -5q62 0 120.5 46.5t106.5 112t113 168.5l30 47q7 11 19 11t19.5 -9t1.5 -18l-25 -41q-75 -123 -129.5 -198t-125 -128t-151.5 -53q-18 0 -38 3q-68 10 -116.5 89.5t-61.5 187.5q-14 106 -14 204q0 52 5 117v15
l-20 -9q-44 -30 -67 -44q-15 -9 -27 -9q-11 0 -25 8q-5 3 -5 8q0 6 6 15.5t13 18.5q23 30 46 50q34 30 52 44l26 22q19 15 22 38q13 85 26 133t41 76q13 13 29 13zM312 -139q0 -48 -37 -74.5t-111 -26.5q-32 0 -50 5v55q18 -5 53 -5q37 0 55.5 9.5t18.5 34.5q0 43 -91 55
l43 86h58l-26 -53q87 -19 87 -86z" />
    <glyph glyph-name="Tcaron" unicode="&#x164;" horiz-adv-x="556" 
d="M110 931h60q56 -36 107 -92q62 62 109 92h62v-13q-100 -100 -125 -147h-90q-29 50 -123 147v13zM525.5 737q9.5 -9 11.5 -24q1 -14 -8.5 -24t-26.5 -14l-107 -21q-26 -5 -44 -10l17 -59q15 -65 15 -157v-32q0 -198 -52 -385q-1 -6 -18 -64l-9 -32l-9 -36q-6 -28 -31 -28
q-12 -1 -22 7t-12 20q-1 6 -1 20q0 13 1 20l4 27q2 11 8.5 51.5t14.5 74.5q42 183 45 386q0 24 -2 53.5t-3 41.5l-3 39q-1 7 -3.5 16.5t-4.5 15.5l-21 -6q-100 -32 -180 -97q-31 -25 -42 -31t-19 -6q-10 0 -17 7t-7 18q0 12 5 19q7 12 15 20q44 55 116 99q130 80 253 99
q18 3 55 3q38 0 56 -1q16 -1 25.5 -10z" />
    <glyph glyph-name="tcaron" unicode="&#x165;" horiz-adv-x="360" 
d="M246 612q11 32 20.5 77.5t12.5 70.5h87v-9q-6 -26 -27 -71t-45 -80h-48v12zM104 752q13 0 23 -9t13 -25q1 -4 1 -12q0 -10 -1 -17t-2 -11l-18 -73l33 19q88 57 181 78q13 3 29 3q11 0 16 -1q16 -1 26.5 -13.5t10.5 -30.5q0 -20 -19 -36q-31 -23 -62 -50q-18 -15 -26 -15
q-12 0 -25 26q-74 -35 -171 -98q-8 -5 -11 -12.5t-5 -19.5q-13 -88 -13 -205q0 -33 2 -97l2 -30q4 -75 11 -128.5t29 -98.5t65 -57q18 -5 40 -5q62 0 120.5 46.5t106.5 112t113 168.5l30 47q7 11 19 11t19.5 -9t1.5 -18l-25 -41q-75 -123 -129.5 -198t-125 -128t-151.5 -53
q-18 0 -38 3q-68 10 -116.5 89.5t-61.5 187.5q-14 106 -14 204q0 52 5 117v15l-20 -9q-44 -30 -67 -44q-15 -9 -27 -9q-11 0 -25 8q-5 3 -5 8q0 6 6 15.5t13 18.5q23 30 46 50q34 30 52 44l26 22q19 15 22 38q13 85 26 133t41 76q13 13 29 13z" />
    <glyph glyph-name="Tbar" unicode="&#x166;" horiz-adv-x="556" 
d="M232 399v235h-222v80h535v-80h-223v-235h148v-74h-148v-325h-90v325h-149v74h149z" />
    <glyph glyph-name="tbar" unicode="&#x167;" horiz-adv-x="360" 
d="M266 62q42 0 73 11v-67q-13 -6 -39 -11t-54 -5q-154 0 -154 171v119h-68v66h68v122h-76v42l77 35l35 114h52v-123h155v-68h-155v-122h146v-66h-146v-114q0 -52 21 -78t65 -26z" />
    <glyph glyph-name="Utilde" unicode="&#x168;" horiz-adv-x="730" 
d="M440 772q-21 0 -41 9t-39.5 19.5t-37 19.5t-34.5 9q-24 0 -36 -14.5t-19 -43.5h-51q6 60 34 94t76 34q22 0 42.5 -9t39.5 -19.5t37 -19.5t33 -9q23 0 35.5 14.5t19.5 43.5h50q-6 -58 -34 -93t-75 -35zM89 717q14 8 27 8q15 0 24 -10t8 -30v-12q-8 -55 -11 -77
q-26 -166 -44 -307q-9 -65 -9 -108t7 -79q4 -20 8 -30q14 -32 35 -32q14 0 30 12t32 27t22 21q9 7 17 18.5t12 16.5l112 150q7 11 7 27q9 117 46 214q10 31 33 70q7 12 31 30q8 5 16 5t17 -6q10 -7 10 -19q0 -6 -3 -14q-2 -6 -7 -18t-8 -22q-21 -59 -32 -153
q-13 -107 -13 -225v-44q0 -50 24 -79.5t63 -29.5q51 0 113 49t120 147q6 10 16 10q8 0 14.5 -7t6.5 -17q0 -7 -4 -14q-40 -69 -93.5 -122.5t-110 -83t-104.5 -29.5q-52 0 -86 36t-42 110q-3 25 -4 43.5t-2 30.5l-1 24l-2 23q-7 0 -23.5 -21.5t-43.5 -63.5l-25 -37
q-77 -114 -150 -114q-36 0 -69 29q-20 18 -27 39t-15 61q-11 47 -11 89q0 140 16.5 288.5t50.5 203.5q8 14 22 22z" />
    <glyph glyph-name="utilde" unicode="&#x169;" horiz-adv-x="618" 
d="M383 607q-21 0 -41 9t-39.5 19.5t-37 19.5t-34.5 9q-24 0 -36 -14.5t-19 -43.5h-51q6 60 34 94t76 34q22 0 42.5 -9t39.5 -19.5t37 -19.5t33 -9q23 0 35.5 14.5t19.5 43.5h50q-6 -58 -34 -93t-75 -35zM50 349q11 0 19.5 -6.5t11.5 -18.5q4 -18 4 -27q0 -5 -2 -17
q-8 -56 -8 -106l1 -28q1 -57 21 -57q16 0 46 33.5t94 117.5l23 30q12 14 40 34q11 10 26 10q22 0 32 -25q10 -33 13 -59q9 -107 40.5 -165t80.5 -58q46 0 103 50.5t122 152.5q5 6 12 6q11 0 20.5 -9t4.5 -18q-74 -121 -147.5 -180t-137.5 -59q-51 0 -92.5 36t-67 101
t-31.5 151q2 3 -24 -34l-16 -24q-60 -87 -67 -97q-29 -41 -89 -38q-29 3 -49 20q-25 20 -38.5 60.5t-13.5 85.5q0 41 12 76t34 53q11 9 23 9z" />
    <glyph glyph-name="Umacron" unicode="&#x16a;" horiz-adv-x="730" 
d="M217 842h297v-71h-297v71zM89 717q14 8 27 8q15 0 24 -10t8 -30v-12q-8 -55 -11 -77q-26 -166 -44 -307q-9 -65 -9 -108t7 -79q4 -20 8 -30q14 -32 35 -32q14 0 30 12t32 27t22 21q9 7 17 18.5t12 16.5l112 150q7 11 7 27q9 117 46 214q10 31 33 70q7 12 31 30q8 5 16 5
t17 -6q10 -7 10 -19q0 -6 -3 -14q-2 -6 -7 -18t-8 -22q-21 -59 -32 -153q-13 -107 -13 -225v-44q0 -50 24 -79.5t63 -29.5q51 0 113 49t120 147q6 10 16 10q8 0 14.5 -7t6.5 -17q0 -7 -4 -14q-40 -69 -93.5 -122.5t-110 -83t-104.5 -29.5q-52 0 -86 36t-42 110
q-3 25 -4 43.5t-2 30.5l-1 24l-2 23q-7 0 -23.5 -21.5t-43.5 -63.5l-25 -37q-77 -114 -150 -114q-36 0 -69 29q-20 18 -27 39t-15 61q-11 47 -11 89q0 140 16.5 288.5t50.5 203.5q8 14 22 22z" />
    <glyph glyph-name="umacron" unicode="&#x16b;" horiz-adv-x="618" 
d="M159 677h297v-71h-297v71zM50 349q11 0 19.5 -6.5t11.5 -18.5q4 -18 4 -27q0 -5 -2 -17q-8 -56 -8 -106l1 -28q1 -57 21 -57q16 0 46 33.5t94 117.5l23 30q12 14 40 34q11 10 26 10q22 0 32 -25q10 -33 13 -59q9 -107 40.5 -165t80.5 -58q46 0 103 50.5t122 152.5
q5 6 12 6q11 0 20.5 -9t4.5 -18q-74 -121 -147.5 -180t-137.5 -59q-51 0 -92.5 36t-67 101t-31.5 151q2 3 -24 -34l-16 -24q-60 -87 -67 -97q-29 -41 -89 -38q-29 3 -49 20q-25 20 -38.5 60.5t-13.5 85.5q0 41 12 76t34 53q11 9 23 9z" />
    <glyph glyph-name="Ubreve" unicode="&#x16c;" horiz-adv-x="730" 
d="M361 771q-69 0 -108.5 33.5t-44.5 100.5h54q4 -35 24.5 -49t76.5 -14q49 0 73 15.5t28 47.5h55q-6 -64 -48 -99t-110 -35zM89 717q14 8 27 8q15 0 24 -10t8 -30v-12q-8 -55 -11 -77q-26 -166 -44 -307q-9 -65 -9 -108t7 -79q4 -20 8 -30q14 -32 35 -32q14 0 30 12t32 27
t22 21q9 7 17 18.5t12 16.5l112 150q7 11 7 27q9 117 46 214q10 31 33 70q7 12 31 30q8 5 16 5t17 -6q10 -7 10 -19q0 -6 -3 -14q-2 -6 -7 -18t-8 -22q-21 -59 -32 -153q-13 -107 -13 -225v-44q0 -50 24 -79.5t63 -29.5q51 0 113 49t120 147q6 10 16 10q8 0 14.5 -7t6.5 -17
q0 -7 -4 -14q-40 -69 -93.5 -122.5t-110 -83t-104.5 -29.5q-52 0 -86 36t-42 110q-3 25 -4 43.5t-2 30.5l-1 24l-2 23q-7 0 -23.5 -21.5t-43.5 -63.5l-25 -37q-77 -114 -150 -114q-36 0 -69 29q-20 18 -27 39t-15 61q-11 47 -11 89q0 140 16.5 288.5t50.5 203.5q8 14 22 22z
" />
    <glyph glyph-name="ubreve" unicode="&#x16d;" horiz-adv-x="618" 
d="M303 606q-69 0 -108.5 33.5t-44.5 100.5h54q4 -35 24.5 -49t76.5 -14q49 0 73 15.5t28 47.5h55q-6 -64 -48 -99t-110 -35zM50 349q11 0 19.5 -6.5t11.5 -18.5q4 -18 4 -27q0 -5 -2 -17q-8 -56 -8 -106l1 -28q1 -57 21 -57q16 0 46 33.5t94 117.5l23 30q12 14 40 34
q11 10 26 10q22 0 32 -25q10 -33 13 -59q9 -107 40.5 -165t80.5 -58q46 0 103 50.5t122 152.5q5 6 12 6q11 0 20.5 -9t4.5 -18q-74 -121 -147.5 -180t-137.5 -59q-51 0 -92.5 36t-67 101t-31.5 151q2 3 -24 -34l-16 -24q-60 -87 -67 -97q-29 -41 -89 -38q-29 3 -49 20
q-25 20 -38.5 60.5t-13.5 85.5q0 41 12 76t34 53q11 9 23 9z" />
    <glyph glyph-name="Uring" unicode="&#x16e;" horiz-adv-x="730" 
d="M475 878q0 -49 -30.5 -78t-80.5 -29t-79.5 28.5t-29.5 77.5q0 48 29.5 76.5t79.5 28.5q49 0 80 -29t31 -75zM420 877q0 26 -16 41t-40 15t-40 -15t-16 -41t14.5 -41t41.5 -15q25 0 40.5 15t15.5 41zM89 717q14 8 27 8q15 0 24 -10t8 -30v-12q-8 -55 -11 -77
q-26 -166 -44 -307q-9 -65 -9 -108t7 -79q4 -20 8 -30q14 -32 35 -32q14 0 30 12t32 27t22 21q9 7 17 18.5t12 16.5l112 150q7 11 7 27q9 117 46 214q10 31 33 70q7 12 31 30q8 5 16 5t17 -6q10 -7 10 -19q0 -6 -3 -14q-2 -6 -7 -18t-8 -22q-21 -59 -32 -153
q-13 -107 -13 -225v-44q0 -50 24 -79.5t63 -29.5q51 0 113 49t120 147q6 10 16 10q8 0 14.5 -7t6.5 -17q0 -7 -4 -14q-40 -69 -93.5 -122.5t-110 -83t-104.5 -29.5q-52 0 -86 36t-42 110q-3 25 -4 43.5t-2 30.5l-1 24l-2 23q-7 0 -23.5 -21.5t-43.5 -63.5l-25 -37
q-77 -114 -150 -114q-36 0 -69 29q-20 18 -27 39t-15 61q-11 47 -11 89q0 140 16.5 288.5t50.5 203.5q8 14 22 22z" />
    <glyph glyph-name="uring" unicode="&#x16f;" horiz-adv-x="618" 
d="M417 713q0 -49 -30.5 -78t-80.5 -29t-79.5 28.5t-29.5 77.5q0 48 29.5 76.5t79.5 28.5q49 0 80 -29t31 -75zM362 712q0 26 -16 41t-40 15t-40 -15t-16 -41t14.5 -41t41.5 -15q25 0 40.5 15t15.5 41zM50 349q11 0 19.5 -6.5t11.5 -18.5q4 -18 4 -27q0 -5 -2 -17
q-8 -56 -8 -106l1 -28q1 -57 21 -57q16 0 46 33.5t94 117.5l23 30q12 14 40 34q11 10 26 10q22 0 32 -25q10 -33 13 -59q9 -107 40.5 -165t80.5 -58q46 0 103 50.5t122 152.5q5 6 12 6q11 0 20.5 -9t4.5 -18q-74 -121 -147.5 -180t-137.5 -59q-51 0 -92.5 36t-67 101
t-31.5 151q2 3 -24 -34l-16 -24q-60 -87 -67 -97q-29 -41 -89 -38q-29 3 -49 20q-25 20 -38.5 60.5t-13.5 85.5q0 41 12 76t34 53q11 9 23 9z" />
    <glyph glyph-name="Uhungarumlaut" unicode="&#x170;" horiz-adv-x="730" 
d="M221 783q17 22 42.5 65.5t44.5 82.5h96v-10q-16 -27 -58.5 -75t-74.5 -75h-50v12zM397 783q23 32 49 76.5t38 71.5h96v-10q-16 -27 -58.5 -75t-74.5 -75h-50v12zM89 717q14 8 27 8q15 0 24 -10t8 -30v-12q-8 -55 -11 -77q-26 -166 -44 -307q-9 -65 -9 -108t7 -79
q4 -20 8 -30q14 -32 35 -32q14 0 30 12t32 27t22 21q9 7 17 18.5t12 16.5l112 150q7 11 7 27q9 117 46 214q10 31 33 70q7 12 31 30q8 5 16 5t17 -6q10 -7 10 -19q0 -6 -3 -14q-2 -6 -7 -18t-8 -22q-21 -59 -32 -153q-13 -107 -13 -225v-44q0 -50 24 -79.5t63 -29.5
q51 0 113 49t120 147q6 10 16 10q8 0 14.5 -7t6.5 -17q0 -7 -4 -14q-40 -69 -93.5 -122.5t-110 -83t-104.5 -29.5q-52 0 -86 36t-42 110q-3 25 -4 43.5t-2 30.5l-1 24l-2 23q-7 0 -23.5 -21.5t-43.5 -63.5l-25 -37q-77 -114 -150 -114q-36 0 -69 29q-20 18 -27 39t-15 61
q-11 47 -11 89q0 140 16.5 288.5t50.5 203.5q8 14 22 22z" />
    <glyph glyph-name="uhungarumlaut" unicode="&#x171;" horiz-adv-x="618" 
d="M164 618q17 22 42.5 65.5t44.5 82.5h96v-10q-16 -27 -58.5 -75t-74.5 -75h-50v12zM340 618q23 32 49 76.5t38 71.5h96v-10q-16 -27 -58.5 -75t-74.5 -75h-50v12zM50 349q11 0 19.5 -6.5t11.5 -18.5q4 -18 4 -27q0 -5 -2 -17q-8 -56 -8 -106l1 -28q1 -57 21 -57
q16 0 46 33.5t94 117.5l23 30q12 14 40 34q11 10 26 10q22 0 32 -25q10 -33 13 -59q9 -107 40.5 -165t80.5 -58q46 0 103 50.5t122 152.5q5 6 12 6q11 0 20.5 -9t4.5 -18q-74 -121 -147.5 -180t-137.5 -59q-51 0 -92.5 36t-67 101t-31.5 151q2 3 -24 -34l-16 -24
q-60 -87 -67 -97q-29 -41 -89 -38q-29 3 -49 20q-25 20 -38.5 60.5t-13.5 85.5q0 41 12 76t34 53q11 9 23 9z" />
    <glyph glyph-name="Uogonek" unicode="&#x172;" horiz-adv-x="730" 
d="M356 -116q0 -22 12 -33.5t33 -11.5t48 6v-56q-34 -9 -62 -9q-103 0 -103 94q0 68 78 126h62q-34 -32 -51 -58.5t-17 -57.5zM89 717q14 8 27 8q15 0 24 -10t8 -30v-12q-8 -55 -11 -77q-26 -166 -44 -307q-9 -65 -9 -108t7 -79q4 -20 8 -30q14 -32 35 -32q14 0 30 12t32 27
t22 21q9 7 17 18.5t12 16.5l112 150q7 11 7 27q9 117 46 214q10 31 33 70q7 12 31 30q8 5 16 5t17 -6q10 -7 10 -19q0 -6 -3 -14q-2 -6 -7 -18t-8 -22q-21 -59 -32 -153q-13 -107 -13 -225v-44q0 -50 24 -79.5t63 -29.5q51 0 113 49t120 147q6 10 16 10q8 0 14.5 -7t6.5 -17
q0 -7 -4 -14q-40 -69 -93.5 -122.5t-110 -83t-104.5 -29.5q-52 0 -86 36t-42 110q-3 25 -4 43.5t-2 30.5l-1 24l-2 23q-7 0 -23.5 -21.5t-43.5 -63.5l-25 -37q-77 -114 -150 -114q-36 0 -69 29q-20 18 -27 39t-15 61q-11 47 -11 89q0 140 16.5 288.5t50.5 203.5q8 14 22 22z
" />
    <glyph glyph-name="uogonek" unicode="&#x173;" horiz-adv-x="618" 
d="M458 -116q0 -22 12 -33.5t33 -11.5t48 6v-56q-34 -9 -62 -9q-103 0 -103 94q0 68 78 126h62q-34 -32 -51 -58.5t-17 -57.5zM50 349q11 0 19.5 -6.5t11.5 -18.5q4 -18 4 -27q0 -5 -2 -17q-8 -56 -8 -106l1 -28q1 -57 21 -57q16 0 46 33.5t94 117.5l23 30q12 14 40 34
q11 10 26 10q22 0 32 -25q10 -33 13 -59q9 -107 40.5 -165t80.5 -58q46 0 103 50.5t122 152.5q5 6 12 6q11 0 20.5 -9t4.5 -18q-74 -121 -147.5 -180t-137.5 -59q-51 0 -92.5 36t-67 101t-31.5 151q2 3 -24 -34l-16 -24q-60 -87 -67 -97q-29 -41 -89 -38q-29 3 -49 20
q-25 20 -38.5 60.5t-13.5 85.5q0 41 12 76t34 53q11 9 23 9z" />
    <glyph glyph-name="Wcircumflex" unicode="&#x174;" horiz-adv-x="930" 
d="M294 782q61 65 86 96.5t37 52.5h90q25 -49 125 -149v-11h-62q-44 26 -109 90q-64 -62 -107 -90h-60v11zM41 784q13 0 29 -11q63 -49 103 -136q51 -109 58 -262l5 -160q4 -79 25 -128q1 -3 4 -10t8 -11t14 -4q21 0 32 19q3 5 7 12.5t8 17.5q56 154 61 323q1 23 -5 71
q-4 42 -4 63q0 20 3 39q3 15 13.5 24t24.5 9q28 0 37 -34q12 -42 19 -62q5 -19 12.5 -42.5t14.5 -51.5q21 -78 36 -154q24 -129 99 -272q11 -22 30 -42q18 -18 33 -18q17 0 35 23q41 51 60 121q27 108 40 246l4 47q7 67 7 113q0 15 -4 45l-3 27q-4 38 -4 57q0 21 19 24h2
q18 0 21 -19l7 -33q8 -33 12 -55.5t3 -45.5q-4 -142 -29 -290q-11 -69 -21.5 -114t-29.5 -88q-22 -47 -43 -76q-32 -47 -82 -47q-26 0 -51 13q-55 27 -95 88q-78 121 -111 228q0 1 -11 36q-5 -5 -7 -9l-8 -33q-20 -88 -33 -132q-12 -43 -31 -75q-14 -25 -37.5 -38.5
t-50.5 -13.5q-39 0 -71 29q-21 19 -38 54q-35 71 -43 163l-6 74q-2 23 -5.5 67t-6.5 76q-17 164 -85 276q-7 15 -10 25q-2 10 -2 13q0 22 19 36q11 8 22 8z" />
    <glyph glyph-name="wcircumflex" unicode="&#x175;" horiz-adv-x="786" 
d="M224 617q61 65 86 96.5t37 52.5h90q25 -49 125 -149v-11h-62q-44 26 -109 90q-64 -62 -107 -90h-60v11zM42 350q20 0 29 -19q8 -16 8 -33q0 -18 -2 -54q-2 -54 -2 -79q0 -60 5 -103q1 -9 5.5 -19t10.5 -19q7 -13 19 -13q11 0 20 12l6 13q13 41 13 76q0 15 -1 23
q-1 18 -1 53q0 8 4 20q4 10 12 16t17 6q14 0 25 -14q10 -13 15 -31q4 -15 5 -20t3.5 -14t5.5 -15q11 -30 22 -48q14 -21 33 -21q14 0 29 12q28 24 36 70q-38 24 -54 56q-14 26 -14 49q0 21 12.5 34t32.5 13q14 0 24 -5q32 -14 39 -46q4 -17 6 -52q1 -8 1 -25
q23 -12 72.5 -20t102.5 -8q71 0 125.5 16t71.5 51q3 5 13.5 1.5t18 -11t4.5 -13.5q-26 -45 -94 -65t-152 -20q-47 0 -88.5 5t-62.5 13l-18 6q-13 -31 -17 -41q-38 -77 -118 -77q-37 0 -64 29l-17 18q-3 -7 -6 -15.5t-7 -17.5q-13 -28 -21 -37q-19 -22 -43 -22q-27 0 -46 25
q-47 57 -53 113q-1 10 -7 56t-6 88l1 25q2 25 8 41q4 13 16 27q10 10 23 10zM333 250q0 -10 6.5 -21t22.5 -27q3 12 3 23q0 36 -29 39q-3 -7 -3 -14z" />
    <glyph glyph-name="Ycircumflex" unicode="&#x176;" horiz-adv-x="565" 
d="M114 782q61 65 86 96.5t37 52.5h90q25 -49 125 -149v-11h-62q-44 26 -109 90q-64 -62 -107 -90h-60v11zM291 653q11 0 18 -8t7 -22q0 -24 3 -35q5 -17 13 -51q7 -25 17 -63.5t25 -89.5q21 -70 48 -151l37 -117l30 -99l2.5 -7.5l3.5 -10.5l16 12q63 57 117.5 114t71.5 85
q3 6 11 6q11 0 21 -9t5 -18q-32 -49 -88.5 -104t-129.5 -118q-8 -7 -11 -12.5t-1 -15.5q17 -67 17 -142q0 -69 -16 -170q-7 -50 -27 -120q-20 -72 -75 -147q-32 -41 -75 -68q-41 -27 -85 -27q-26 0 -53 9q-86 27 -104 129q-4 23 -4 50q0 61 27 126q43 96 118 182
q79 89 163 154q15 12 15 25q0 8 -2 13q-13 40 -28 92l-14 46l-26 80q-21 62 -35 107l-7 22l-27 -45q-37 -60 -91 -60q-32 0 -66 20q-40 21 -65 70q-33 63 -41 145q-4 39 -6 118v24q0 21 6 40q4 16 13.5 24.5t23.5 8.5q28 0 36 -34q4 -22 10 -66l4 -25l30 -171q2 -12 8.5 -26
t8.5 -20q5 -10 7 -12q13 -15 22.5 -22t18.5 -7q17 0 38 26q36 42 41 112q1 14 -5 44q-4 17 -5 23q-2 16 -4 22q-8 48 -10 72q-1 6 -1 17q0 17 3 32q4 26 31 39q10 4 15 4zM399 -130q-79 -61 -172 -175q-48 -59 -84 -142q-19 -45 -19 -94q0 -31 7 -59q9 -36 37 -57.5
t63 -21.5q38 0 67 25q36 29 61 74q32 60 47 123q22 98 22 214q0 57 -4 102q0 4 -4 26z" />
    <glyph glyph-name="ycircumflex" unicode="&#x177;" horiz-adv-x="509" 
d="M89 617q61 65 86 96.5t37 52.5h90q25 -49 125 -149v-11h-62q-44 26 -109 90q-64 -62 -107 -90h-60v11zM332 362l10 -37q19 -72 28 -116q16 -76 30 -158l15 -79l4 -16q16 10 76 58t119 103t84 95q6 9 12 9q10 0 18.5 -13.5t5.5 -18.5q-57 -92 -278 -257l-18 -14
q-12 -10 -10 -28q13 -104 13 -168q0 -27 -1 -41q-3 -68 -35 -122q-35 -55 -87 -55q-16 0 -34 6q-38 12 -59.5 39t-21.5 64q0 9 1 14q6 35 20 72q15 35 35 67.5t53 79.5q11 14 11 27q0 3 -2 11q-13 67 -37 199q-6 35 -14 103l-5 36l-3 31l-7 1l-30 -47q-43 -62 -91 -91
q-25 -15 -51 -15q-27 0 -49.5 16.5t-32.5 46.5q-9 26 -9 51t9 57q11 39 31 81q7 15 26 26q11 7 19 7t18 -8q10 -7 10 -20q0 -4 -2 -14q-7 -29 -19 -87q-6 -36 -6 -54l-1 -11q0 -20 13 -25q6 -3 11 -3q11 0 26 13q39 29 80 88q26 40 38 61q8 12 15 34q10 34 34 34
q28 0 38 -32zM279 -277q-25 -43 -31 -86q-2 -24 4 -42q4 -19 21 -31.5t36 -12.5q29 0 44 39q9 21 9 45q0 12 -1 18q-8 60 -14 91q-5 36 -10 59q-3 0 -8 3q-30 -52 -50 -83z" />
    <glyph glyph-name="Ydieresis" unicode="&#x178;" horiz-adv-x="565" 
d="M291 653q11 0 18 -8t7 -22q0 -24 3 -35q5 -17 13 -51q7 -25 17 -63.5t25 -89.5q21 -70 48 -151l37 -117l30 -99l2.5 -7.5l3.5 -10.5l16 12q63 57 117.5 114t71.5 85q3 6 11 6q11 0 21 -9t5 -18q-32 -49 -88.5 -104t-129.5 -118q-8 -7 -11 -12.5t-1 -15.5q17 -67 17 -142
q0 -69 -16 -170q-7 -50 -27 -120q-20 -72 -75 -147q-32 -41 -75 -68q-41 -27 -85 -27q-26 0 -53 9q-86 27 -104 129q-4 23 -4 50q0 61 27 126q43 96 118 182q79 89 163 154q15 12 15 25q0 8 -2 13q-13 40 -28 92l-14 46l-26 80q-21 62 -35 107l-7 22l-27 -45
q-37 -60 -91 -60q-32 0 -66 20q-40 21 -65 70q-33 63 -41 145q-4 39 -6 118v24q0 21 6 40q4 16 13.5 24.5t23.5 8.5q28 0 36 -34q4 -22 10 -66l4 -25l30 -171q2 -12 8.5 -26t8.5 -20q5 -10 7 -12q13 -15 22.5 -22t18.5 -7q17 0 38 26q36 42 41 112q1 14 -5 44q-4 17 -5 23
q-2 16 -4 22q-8 48 -10 72q-1 6 -1 17q0 17 3 32q4 26 31 39q10 4 15 4zM399 -130q-79 -61 -172 -175q-48 -59 -84 -142q-19 -45 -19 -94q0 -31 7 -59q9 -36 37 -57.5t63 -21.5q38 0 67 25q36 29 61 74q32 60 47 123q22 98 22 214q0 57 -4 102q0 4 -4 26zM144 846
q0 26 13.5 37.5t33.5 11.5q19 0 33 -11.5t14 -37.5t-14 -38t-33 -12q-20 0 -33.5 12t-13.5 38zM332 846q0 26 13.5 37.5t32.5 11.5t33 -11.5t14 -37.5t-14 -38t-33 -12t-32.5 12t-13.5 38z" />
    <glyph glyph-name="Zacute" unicode="&#x179;" horiz-adv-x="571" 
d="M547.5 657.5q13.5 -17.5 14.5 -44.5q0 -42 -24 -88q-38 -62 -53 -83q-130 -181 -241 -361q-23 -38 -73 -133q-7 -15 -15 -45q-2 -11 2.5 -19.5t14.5 -11.5q19 -6 43 -8q9 0 29 4q70 21 123.5 42.5t99.5 52.5q102 69 179 133t111 121q5 6 12 6q10 0 18 -6t8 -15
q0 -5 -3 -10q-24 -43 -112 -124t-202 -156t-218 -105q-43 -12 -76 -12q-20 0 -30 2q-47 10 -72.5 40t-25.5 77q0 61 31 118q43 82 77 133q46 69 97.5 136.5t120.5 151.5q32 38 94 116q12 14 23 44q2 4 2 7q0 12 -13 15q-23 6 -46 6q-76 0 -162 -31q-135 -51 -243 -147
q-3 -3 -6 -4q-7 -9 -16 -9q-7 0 -11 5q-5 5 -5 11t8 18l24 27q92 81 210 130t208 49q32 0 59 -8q25 -7 38.5 -24.5zM221 783q19 23 47.5 66.5t47.5 81.5h106v-10q-21 -31 -66.5 -78.5t-76.5 -71.5h-58v12z" />
    <glyph glyph-name="zacute" unicode="&#x17a;" horiz-adv-x="470" 
d="M270 218q0 -42 -29 -87q-4 -6 -31 -43q88 -63 105 -178q12 0 16 1q117 33 206 119.5t140 179.5q4 8 15 8q12 0 21 -8t3 -18q-46 -77 -85 -128t-113.5 -105.5t-190.5 -94.5q0 -4 -0.5 -10t0.5 -14v-62v-32q-7 -120 -105 -220q-25 -26 -58 -38.5t-68 -12.5q-31 0 -60 9
t-52 25q-24 16 -38 46.5t-14 64.5q0 22 5 37q13 41 35 74q60 86 162 123q25 10 61 22q2 9 1 12q-20 95 -71 157q-14 19 -14 32q0 16 16 32l16 15q12 9 24 23q21 25 34 50q8 17 6 38q-1 26 -10.5 38.5t-25.5 12.5q-26 0 -61 -27.5t-66 -69.5q-7 -11 -19 -11q-8 0 -14.5 6
t-6.5 15q0 6 2 9q32 56 80 95t91 39q27 0 49 -18.5t35 -56.5q9 -25 9 -49zM201 -170q-4 0 -7 -1q-113 -32 -176 -108q-20 -25 -31.5 -49t-11.5 -52q1 -38 20.5 -59t55.5 -21q42 0 72.5 21.5t53.5 59.5q18 29 25 62t10 78q2 20 2 29q0 22 -7 40h-6zM181 618q19 23 47.5 66.5
t47.5 81.5h106v-10q-21 -31 -66.5 -78.5t-76.5 -71.5h-58v12z" />
    <glyph glyph-name="Zdotaccent" unicode="&#x17b;" horiz-adv-x="571" 
d="M233 846q0 29 15 42.5t37 13.5q21 0 36 -13.5t15 -42.5t-15.5 -42.5t-35.5 -13.5q-22 0 -37 13.5t-15 42.5zM547.5 657.5q13.5 -17.5 14.5 -44.5q0 -42 -24 -88q-38 -62 -53 -83q-130 -181 -241 -361q-23 -38 -73 -133q-7 -15 -15 -45q-2 -11 2.5 -19.5t14.5 -11.5
q19 -6 43 -8q9 0 29 4q70 21 123.5 42.5t99.5 52.5q102 69 179 133t111 121q5 6 12 6q10 0 18 -6t8 -15q0 -5 -3 -10q-24 -43 -112 -124t-202 -156t-218 -105q-43 -12 -76 -12q-20 0 -30 2q-47 10 -72.5 40t-25.5 77q0 61 31 118q43 82 77 133q46 69 97.5 136.5t120.5 151.5
q32 38 94 116q12 14 23 44q2 4 2 7q0 12 -13 15q-23 6 -46 6q-76 0 -162 -31q-135 -51 -243 -147q-3 -3 -6 -4q-7 -9 -16 -9q-7 0 -11 5q-5 5 -5 11t8 18l24 27q92 81 210 130t208 49q32 0 59 -8q25 -7 38.5 -24.5z" />
    </font>
</defs>
</svg>
