<?xml version="1.0" standalone="no"?>
<!DOCTYPE svg PUBLIC "-//W3C//DTD SVG 1.1//EN" "http://www.w3.org/Graphics/SVG/1.1/DTD/svg11.dtd" >
<svg xmlns="http://www.w3.org/2000/svg" xmlns:xlink="http://www.w3.org/1999/xlink" version="1.1">
<metadata>
Created by FontForge 20190801 at Mon Feb  8 12:16:46 2021
 By root
Copyright (c) 2006 Alejandro Paul (sudtipos@sudtipos.com),with Reserved Font Name "MonsieurLaDoulaise"
</metadata>
<defs>
<font id="MonsieurLaDoulaise-Regular" horiz-adv-x="150" >
  <font-face 
    font-family="Monsieur La Doulaise"
    font-weight="400"
    font-stretch="normal"
    units-per-em="1000"
    panose-1="2 0 0 0 0 0 0 0 0 0"
    ascent="800"
    descent="-200"
    x-height="170"
    cap-height="753"
    bbox="-557 -513 2124 1048"
    underline-thickness="50"
    underline-position="-100"
    unicode-range="U+0001-206F"
  />
<missing-glyph horiz-adv-x="364" 
d="M33 0v666h265v-666h-265zM66 33h199v600h-199v-600z" />
    <glyph glyph-name=".notdef" horiz-adv-x="364" 
d="M33 0v666h265v-666h-265zM66 33h199v600h-199v-600z" />
    <glyph glyph-name="uni0000" 
 />
    <glyph glyph-name="uni0000" 
 />
    <glyph glyph-name="uni000D" unicode="&#xd;" 
 />
    <glyph glyph-name="uni0001" 
 />
    <glyph glyph-name="uni0002" 
 />
    <glyph glyph-name="uni0003" 
 />
    <glyph glyph-name="uni0004" 
 />
    <glyph glyph-name="uni0005" 
 />
    <glyph glyph-name="uni0006" 
 />
    <glyph glyph-name="uni0007" 
 />
    <glyph glyph-name="uni0008" 
 />
    <glyph glyph-name="uni0009" unicode="&#x9;" 
 />
    <glyph glyph-name="uni000A" unicode="&#xa;" 
 />
    <glyph glyph-name="uni000B" 
 />
    <glyph glyph-name="uni000C" 
 />
    <glyph glyph-name="uni000E" 
 />
    <glyph glyph-name="uni000F" 
 />
    <glyph glyph-name="uni0010" 
 />
    <glyph glyph-name="uni0011" 
 />
    <glyph glyph-name="uni0012" 
 />
    <glyph glyph-name="uni0013" 
 />
    <glyph glyph-name="uni0014" 
 />
    <glyph glyph-name="uni0015" 
 />
    <glyph glyph-name="uni0016" 
 />
    <glyph glyph-name="uni0017" 
 />
    <glyph glyph-name="uni0018" 
 />
    <glyph glyph-name="uni0019" 
 />
    <glyph glyph-name="uni001A" 
 />
    <glyph glyph-name="uni001B" 
 />
    <glyph glyph-name="uni001C" 
 />
    <glyph glyph-name="uni001D" 
 />
    <glyph glyph-name="uni001E" 
 />
    <glyph glyph-name="uni001F" 
 />
    <glyph glyph-name="space" unicode=" " 
 />
    <glyph glyph-name="exclam" unicode="!" horiz-adv-x="280" 
d="M27 7q0 11 18 27t32.5 16t14.5 -13q0 -15 -18 -29.5t-32.5 -14.5t-14.5 14zM470 534l-359 -454q-1 0 -8 6l347 486q20 -4 20 -38z" />
    <glyph glyph-name="quotedbl" unicode="&#x22;" horiz-adv-x="496" 
d="M596 562l-131 -156q-1 0 -8 6l119 188q20 -4 20 -38zM516 562l-131 -156q-1 0 -8 6l119 188q20 -4 20 -38z" />
    <glyph glyph-name="numbersign" unicode="#" horiz-adv-x="411" 
d="M208 247l-40 -74h95l40 74h-95zM404 263l-10 -16h-76l-40 -74h96l-10 -16h-95l-51 -96l-18 -6l55 102h-96l-51 -96l-18 -6l55 102h-89l12 16h85l40 74h-107l12 16h103l48 88l19 8l-52 -96h95l48 88l19 8l-52 -96h78z" />
    <glyph glyph-name="dollar" unicode="$" horiz-adv-x="380" 
d="M21 23l21 26q21 27 21 42q0 29 -23 29q-13 0 -22.5 -11.5t-9.5 -39t13 -46.5zM467 444q0 30 -59 30t-106.5 -46t-47.5 -90q0 -17 5 -40q85 24 146.5 66t61.5 80zM14 -2l-98 -120l-9 5l99 122q-22 27 -22 64.5t15 53t33.5 15.5t32 -11.5t13.5 -31.5t-21 -45l-30 -36
q26 -27 78 -27t105 39.5t53 94.5q0 36 -21.5 84t-26.5 65q-36 -7 -77 -7q-77 0 -125 32t-48 106t67 143.5t162 69.5l-4 -12q-87 0 -146 -63t-59 -131q0 -128 152 -128q38 0 72 7q-4 16 -4 36q0 44 35 82t80.5 57.5t84.5 19.5h8l103 118l10 -9l-93 -111q58 -7 58 -40
q0 -45 -67 -90.5t-159 -69.5q5 -15 17 -46q25 -63 25 -97q0 -61 -73 -111.5t-147 -50.5q-47 0 -73 23z" />
    <glyph glyph-name="percent" unicode="%" horiz-adv-x="662" 
d="M621 283q0 14 -16 14q-31 0 -74 -38.5t-78 -93.5q61 1 114.5 44.5t53.5 73.5zM328 428q0 14 -16 14q-31 0 -74 -38.5t-78 -93.5q61 1 114.5 44.5t53.5 73.5zM443 5q68 0 150 112t82 177q0 29 -23 29q-30 0 -41 -12q-6 1 -6 4.5t17 10.5t32 7q40 0 40 -46t-40 -117
t-103.5 -127t-118.5 -56t-55 54q0 45 34 106.5t89.5 108.5t106.5 47q22 0 22 -18q0 -34 -55.5 -79.5t-124.5 -46.5q-44 -73 -44 -113.5t38 -40.5zM624 534q0 -4 -3 -7l-443 -611q-3 -3 -6 -3q-8 0 -17 11l441 611q-120 -3 -217.5 -25t-152 -53t-83.5 -61.5t-29 -52t18 -29.5
q37 56 86.5 94.5t95.5 39.5q22 0 22 -18q0 -34 -55.5 -79.5t-124.5 -46.5q-44 -73 -44 -113.5t38 -40.5q68 0 150 112t82 177q0 29 -23 29q-30 0 -41 -12q-6 1 -6 4.5t17 10.5t32 7q40 0 40 -46t-40 -117t-103.5 -127t-118.5 -56t-55 54q0 51 44 121q-26 7 -26 30.5t19 49
t61.5 53.5t100 50.5t144 37t185.5 14.5q12 0 12 -8z" />
    <glyph glyph-name="ampersand" unicode="&#x26;" horiz-adv-x="697" 
d="M870 802q0 29 -32 29q-66 0 -129.5 -69t-114.5 -183q137 68 206 118t70 105zM500 252q-8 -66 -8 -129t15 -118q62 25 95.5 70.5t33.5 88.5t-24 68t-67 25q-20 0 -45 -5zM488 -1q-15 57 -15 122t9 127q-79 -24 -129.5 -97t-50.5 -153v-7q35 -7 86.5 -7t99.5 15zM561 539
q-183 -90 -228 -121t-80 -60.5t-54 -55.5q-45 -62 -45 -126q0 -152 130 -182v5q0 85 55 161.5t145 101.5q22 141 77 277zM106 158q0 52 30 103t65.5 86.5t109.5 81t117 67.5q125 65 145 73q55 123 125.5 199t142.5 76q22 0 37 -9.5t15 -31t-11 -45t-35 -46.5t-48 -41.5
t-65 -42.5q-63 -35 -153 -79q-57 -138 -79 -283q28 5 52 5q55 0 84 -26.5t29 -73t-41.5 -98.5t-113.5 -81q31 -94 107 -107q2 0 2 -8t-3 -8q-90 10 -126 115q-62 -20 -110 -20t-78 3q11 -69 66.5 -112.5t156.5 -43.5q32 0 68 12l8 -5q-31 -17 -90 -17q-103 0 -160 47
t-67 121q-180 25 -180 189z" />
    <glyph glyph-name="quotesingle" unicode="'" horiz-adv-x="416" 
d="M516 562l-131 -156q-1 0 -8 6l119 188q20 -4 20 -38z" />
    <glyph glyph-name="parenleft" unicode="(" horiz-adv-x="254" 
d="M596 823q-247 -127 -400 -351.5t-153 -476.5q0 -72 13 -138l-16 -6q-30 79 -30 190t49.5 238.5t131 232.5t185.5 189t214 134z" />
    <glyph glyph-name="parenright" unicode=")" horiz-adv-x="411" 
d="M-88 -137q247 127 400 351.5t153 476.5q0 72 -13 138l16 6q30 -79 30 -190t-49.5 -238.5t-131 -232.5t-185.5 -189t-214 -134z" />
    <glyph glyph-name="asterisk" unicode="*" horiz-adv-x="287" 
d="M247 528l-79 -92l113 -42l-2 -7l-117 25l17 -122l-6 -2l-39 117l-95 -79l-5 4l83 94l-116 44l1 5l121 -23l-20 119l6 3l43 -117l91 77z" />
    <glyph glyph-name="plus" unicode="+" horiz-adv-x="411" 
d="M394 223l-10 -16h-138l-58 -146l-18 -6l61 152h-155l12 16h149l52 128l19 8l-55 -136h141z" />
    <glyph glyph-name="comma" unicode="," horiz-adv-x="190" 
d="M-54 -80l-8 8q42 14 74.5 42.5t32.5 57.5q-15 8 -15 20.5t16.5 24.5t31.5 12t15 -14q0 -30 -48 -83t-99 -68z" />
    <glyph glyph-name="hyphen" unicode="-" horiz-adv-x="390" 
d="M362 103l13 -6q-33 -38 -92 -38q-31 0 -78 18.5t-68 18.5q-40 0 -84 -28l-8 5q49 42 116 42q36 0 85 -16t70.5 -16t45.5 20z" />
    <glyph glyph-name="period" unicode="." horiz-adv-x="163" 
d="M6 7q0 11 18 27t32.5 16t14.5 -13q0 -15 -18 -29.5t-32.5 -14.5t-14.5 14z" />
    <glyph glyph-name="slash" unicode="/" horiz-adv-x="190" 
d="M-115 -119l648 1007l22 -12l-647 -1003z" />
    <glyph glyph-name="zero" unicode="0" horiz-adv-x="424" 
d="M136 254h3q66 0 131 35.5t101.5 78.5t36.5 71q0 22 -26 22q-52 0 -120.5 -60.5t-125.5 -146.5zM278 520l-4 -12q-68 0 -137.5 -70t-69.5 -129q0 -37 34 -50q58 89 135.5 150t149.5 62q34 0 34 -29q0 -23 -23 -56.5t-60.5 -65t-92.5 -54t-111 -22.5h-4q-75 -118 -75 -193
q0 -64 62 -64q78 0 169 92.5t149 204.5t58 178q0 48 -36 48q-12 0 -33.5 -8.5t-31.5 -19.5q-9 2 -9 7q0 7 27 17.5t50 10.5q63 0 63 -72t-62.5 -183t-162 -199t-185.5 -88t-86 84q0 81 68 189q-46 13 -46 56q0 63 78.5 139.5t151.5 76.5z" />
    <glyph glyph-name="one" unicode="1" horiz-adv-x="203" 
d="M377 494q24 28 24 34t-3 6q-6 0 -19 -16q-2 0 -64 -85q38 33 62 61zM365 531q24 30 41.5 30t17.5 -18.5t-40.5 -63t-101.5 -90.5q-227 -310 -282 -396q-12 -12 -22.5 -12t-16 6t-5.5 14q49 57 270 348q-92 -60 -163 -72l-11 15q99 22 202 94q98 130 111 145z" />
    <glyph glyph-name="two" unicode="2" horiz-adv-x="500" 
d="M337 -1q25 0 41 12t16 27q0 30 -52 30q-78 0 -132 -42q68 -27 127 -27zM-7 71q-33 0 -59.5 -20t-26.5 -40q0 -26 45 -26q63 0 160 58q-62 28 -119 28zM248 419q-41 -43 -41 -80t46 -37t78 38t32 77t-14 61q-60 -16 -101 -59zM209 547l9 6q95 -7 138 -64q25 6 56 6
q92 0 92 -62q0 -71 -108 -188.5t-241 -195.5q19 -9 46 -19q58 48 148 48q33 0 50 -11t17 -29.5t-25.5 -35.5t-81.5 -17t-118 22q-25 -30 -25 -62t30 -54t90 -22q32 0 55 10l1 -7q-17 -9 -50 -9q-69 0 -103.5 23.5t-34.5 59t27 65.5q-13 5 -51 24q-108 -59 -176 -59t-68 33
q0 25 36 48.5t93 23.5t119 -24q123 80 228.5 198t105.5 182q0 48 -67 48q-14 0 -40 -4q20 -32 20 -73.5t-35 -77.5t-94 -36t-59 46q0 39 43 83t108 63q-38 54 -135 61z" />
    <glyph glyph-name="three" unicode="3" horiz-adv-x="360" 
d="M174 239q47 0 105 35q-27 15 -60.5 15t-54.5 -9.5t-21 -22.5q0 -18 31 -18zM144 377q0 -32 38.5 -32t87.5 44t52 102q-7 1 -20 1q-54 0 -106 -32t-52 -83zM155.5 286.5q29.5 14.5 71 14.5t72.5 -13q44 32 74 72.5t30 72.5q0 45 -62 56q-5 -59 -63.5 -106t-107.5 -47
t-49 37q0 56 62 92t129 36h10q-4 76 -136 76l2 11q75 0 113 -25t40 -64q94 -8 94 -68q0 -35 -33.5 -78t-84.5 -76q23 -19 23 -51t-31.5 -76t-81 -82t-117 -64t-132.5 -26q-43 0 -43 29q0 17 15.5 36.5t30 19.5t14.5 -9q0 -13 -18 -26t-18 -22q0 -15 28 -15q73 0 149.5 41
t123.5 96t47 99q0 22 -13 36q-63 -34 -115.5 -34t-52.5 23q0 20 29.5 34.5z" />
    <glyph glyph-name="four" unicode="4" horiz-adv-x="408" 
d="M384 191q-45 0 -80 -54q44 9 70 22.5t26 23.5q0 8 -16 8zM183 126l221 282l14 -13q-2 0 -81 -105.5t-120 -163.5q29 1 68 7q16 30 47 51.5t62 21.5t31 -12q0 -15 -36 -36t-93 -36q-8 -19 -8 -33q0 -31 34 -31q20 0 58 15v-5q-41 -19 -67 -19q-41 0 -41 40q0 12 5 29
q-36 -8 -74 -11q-35 -50 -75 -110q-12 -12 -22.5 -12t-16 6t-5.5 14q17 20 82 100h-17q-135 0 -158 23q-2 2 -2 4q0 14 23 29.5t54.5 39t85.5 71.5t100 97.5t86.5 114t54.5 122.5h11q-36 -148 -182 -298q-55 -55 -83.5 -81t-94.5 -85q0 -8 51.5 -12t87.5 -4z" />
    <glyph glyph-name="five" unicode="5" horiz-adv-x="360" 
d="M498 557l8 -2q-30 -61 -67.5 -85.5t-92.5 -24.5q-30 0 -89 9l-105 -164q30 11 68 11q105 0 105 -64q0 -35 -32.5 -80t-81 -84.5t-112.5 -67t-121 -27.5q-43 0 -43 29q0 17 15.5 36.5t30 19.5t14.5 -9q0 -13 -18 -26t-18 -22q0 -15 28 -15q62 0 135 43t121 101t48 100
q0 25 -23.5 39.5t-56.5 14.5q-60 0 -87 -40l-10 8q0 2 50.5 79t91.5 152q13 22 15 22t17 -8q47 -22 90 -22q76 0 120 77z" />
    <glyph glyph-name="six" unicode="6" horiz-adv-x="373" 
d="M70 -8q47 0 105.5 29t101.5 77t43 93.5t-51 45.5q-65 0 -144.5 -81t-90.5 -157q18 -7 36 -7zM476 479q0 17 -19 17q-66 0 -176 -81t-194.5 -187.5t-84.5 -171.5q0 -27 13 -43q22 83 114.5 163.5t174.5 80.5q60 0 60 -53q0 -56 -52 -109.5t-122.5 -84t-128.5 -30.5
q-16 0 -28 3v-1q0 -90 133 -90q50 0 114 17l8 -5q-73 -21 -132 -21q-146 0 -146 94v12q-35 18 -35 60q0 72 83 181.5t201.5 193.5t206.5 84q35 0 35 -32q0 -17 -13.5 -37.5t-29 -20.5t-15.5 13q0 9 16.5 25t16.5 23z" />
    <glyph glyph-name="seven" unicode="7" horiz-adv-x="340" 
d="M162 477q-18 -16 -18 -32.5t15 -16.5q12 0 27.5 19t26.5 47q-33 -1 -51 -17zM152 407q-33 0 -33 31q0 26 26.5 49t70.5 23h4q7 18 10 44l10 1q-4 -20 -12 -46q30 -1 98 -16.5t94 -15.5t47 16t26.5 16t5.5 -5q0 -14 -33 -30q-72 -68 -173 -208t-181 -274q-8 -17 -18 -17
q-16 0 -34 16q124 182 207.5 291.5t162.5 177.5q-16 -2 -36 -2t-83 17.5t-88 18.5q-30 -87 -71 -87z" />
    <glyph glyph-name="eight" unicode="8" horiz-adv-x="380" 
d="M263 121q0 35 -18.5 77.5t-21.5 49.5q-154 -79 -187 -137q-15 -28 -15 -59t20 -46.5t52 -15.5q58 0 114 39.5t56 91.5zM405 482q11 0 11 -5l-1 -3q-66 0 -113.5 -46t-47.5 -90q0 -24 10 -56q92 46 141.5 88t49.5 100q0 38 -33.5 61t-100.5 23l3 10q79 0 117 -23.5
t38 -63.5q0 -91 -147 -171q-24 -14 -64 -35q4 -11 16 -42q23 -59 23 -92q0 -63 -77.5 -111.5t-154.5 -48.5q-40 0 -64 16.5t-24 48t14 58.5t32.5 46.5t54.5 42.5q45 29 130 71q-13 34 -13 70.5t35 74.5t80.5 57.5t84.5 19.5z" />
    <glyph glyph-name="nine" unicode="9" horiz-adv-x="396" 
d="M456 482q-93 0 -207.5 -80t-137.5 -148q19 -5 52 -5q91 0 178.5 35t136 79.5t48.5 78.5q0 40 -70 40zM398 276q19 5 29.5 5t10.5 -4q0 -33 -69.5 -105t-163.5 -133t-152 -61q-43 0 -43 29q0 17 15.5 36.5t30 19.5t14.5 -9q0 -13 -18 -26t-18 -22q0 -15 28 -15
q58 0 168.5 90t160.5 170q-52 -28 -116 -49.5t-112 -21.5q-91 0 -91 54q0 10 3 20q-50 21 -50 71q0 75 99 159t236 106v-9q-129 -17 -225 -98.5t-96 -153.5q0 -44 40 -64q30 76 149 152t238 76q87 0 87 -50q0 -28 -30.5 -63t-81.5 -66.5t-126.5 -52.5t-155.5 -21
q-31 0 -51 4q-1 -4 -1 -11q0 -41 67 -41q87 0 224 84z" />
    <glyph glyph-name="colon" unicode=":" horiz-adv-x="163" 
d="M94 143q0 11 18 27t32.5 16t14.5 -13q0 -15 -18 -29.5t-32.5 -14.5t-14.5 14zM6 7q0 11 18 27t32.5 16t14.5 -13q0 -15 -18 -29.5t-32.5 -14.5t-14.5 14z" />
    <glyph glyph-name="semicolon" unicode=";" horiz-adv-x="190" 
d="M-54 -80l-8 8q42 14 74.5 42.5t32.5 57.5q-15 8 -15 20.5t16.5 24.5t31.5 12t15 -14q0 -30 -48 -83t-99 -68zM84 143q0 11 18 27t32.5 16t14.5 -13q0 -15 -18 -29.5t-32.5 -14.5t-14.5 14z" />
    <glyph glyph-name="less" unicode="&#x3c;" horiz-adv-x="411" 
d="M347 126l-6 -13l-240 86l10 18l280 123l-2 -14l-265 -119z" />
    <glyph glyph-name="equal" unicode="=" horiz-adv-x="439" 
d="M401 197l-10 -16h-308l12 16h306zM422 247l-10 -16h-308l12 16h306z" />
    <glyph glyph-name="greater" unicode="&#x3e;" horiz-adv-x="376" 
d="M142 322l6 13l210 -110l-10 -18l-276 -95l10 15l253 90z" />
    <glyph glyph-name="question" unicode="?" horiz-adv-x="330" 
d="M-10 7q0 11 18 27t32.5 16t14.5 -13q0 -15 -18 -29.5t-32.5 -14.5t-14.5 14zM298 521q0 32 -13 58q-71 -20 -130.5 -73.5t-59.5 -108.5q0 -30 14.5 -45t38.5 -15q51 0 100.5 53t49.5 131zM68 79l-15 10q0 39 38.5 83t93.5 84.5t109 79.5q132 96 132 157q0 94 -89 94
q-16 0 -39 -5q18 -32 18 -69q0 -86 -53 -140t-112 -54q-33 0 -54 19.5t-21 56.5q0 57 63.5 114t140.5 78q-47 81 -195 81l7 7q147 -1 202 -84q25 5 45 5q46 0 73 -25t27 -78t-35.5 -103.5t-88 -90t-105.5 -75.5q-130 -88 -142 -145z" />
    <glyph glyph-name="at" unicode="@" horiz-adv-x="593" 
d="M132 -2q38 0 103.5 40t106 74.5t40.5 40.5t-14.5 10t-39.5 4t-66 -19.5t-71 -46.5t-50 -53t-20 -38t11 -12zM400 166q20 16 22 16q27 -3 28 -4.5t1 -3.5t-7.5 -12t-47 -47t-70 -68.5t-30.5 -43.5q0 -17 27 -17q74 0 148.5 66t74.5 128q0 38 -36.5 61.5t-115.5 23.5
t-156 -26.5t-130.5 -66.5t-87 -87t-33.5 -88t38.5 -66t105.5 -25t130 11l-4 -11q-77 -16 -148 -16t-111.5 28.5t-40.5 74.5t33 95t89 91.5t139.5 70.5t176.5 28t137.5 -27t44.5 -72q0 -69 -83.5 -137t-176.5 -68q-43 0 -43 27t33 70q-122 -88 -187 -89q-24 0 -24 29
q0 52 66.5 111t175.5 59q36 0 62 -15z" />
    <glyph glyph-name="A" unicode="A" horiz-adv-x="1417" 
d="M938 120q8 46 42 102q41 -13 77 -33q-32 -17 -119 -69zM1162 43q0 -17 -7 -41q-55 -15 -94 -15q-109 0 -123 93q35 21 146 92q78 -56 78 -129zM426 62q0 64 102.5 124.5t252.5 62.5q-203 -162 -339 -229q-16 17 -16 42zM823 261l190 161q2 1 75.5 63.5t112.5 93t108 75
t121 63.5q9 3 12 3h3q1 0 0 -1q-15 -12 -90.5 -69t-116 -91t-102.5 -91q-120 -108 -178 -221q-63 13 -135 14zM1188 56q0 79 -78 132q97 57 156 57q111 0 111 -63q0 -44 -58.5 -93t-137.5 -78q7 21 7 45zM808 249q80 -3 141 -19q-28 -63 -31 -122q-103 -62 -180.5 -94.5
t-159.5 -32.5t-123 28q151 72 353 240zM640 521l1 -17h14q90 0 173.5 25.5t138.5 63.5t87.5 80.5t32.5 76.5t-28.5 53.5t-84.5 19.5q-85 0 -164 -50t-124.5 -120t-45.5 -132zM803 975l3 -12q-156 -22 -260.5 -118.5t-104.5 -194.5q0 -58 42 -96.5t126 -47.5q-2 18 -2 28
q0 50 28 103.5t76 99t120 75t142.5 29.5t101 -22.5t30.5 -61.5t-33 -84.5t-90 -86.5t-145.5 -68t-187.5 -27h-6q22 -85 147 -85q64 0 153 38t183 116l6 -8q-30 -26 -76 -57.5t-126 -65.5t-145 -34q-144 0 -172 97q-93 7 -140.5 49t-47.5 105q0 101 106.5 201t271.5 128z
M233 127v-11q71 7 126.5 53.5t55.5 92.5q0 30 -28.5 48t-86.5 18q-131 0 -215 -77t-84 -167q0 -62 46 -102t135 -40q122 0 261 62q42 -34 128 -34q174 0 348 99q15 -94 135 -94q41 0 96 15q-45 -107 -246 -177v-10q106 28 176.5 80t95.5 114q88 29 152 82.5t64 106.5
q0 33 -28 52.5t-85 19.5q-86 0 -194 -54q-38 20 -94 36q82 128 247 281t290 224q5 4 5 9q0 10 -11 10q-2 0 -14 -2q-153 -31 -471 -301q-180 -151 -241 -200q-179 -1 -282.5 -61.5t-103.5 -131.5q0 -30 21 -53q-124 -58 -218.5 -58t-136.5 37t-42 95q0 83 74.5 155t186.5 72
q48 0 71.5 -17.5t23.5 -44.5q0 -41 -45.5 -80.5t-111.5 -46.5z" />
    <glyph glyph-name="B" unicode="B" horiz-adv-x="1371" 
d="M1052 422q-11 -12 -35 -36q40 0 90 9q-23 18 -55 27zM978 432q-60 0 -60 -17t49 -26q28 30 39 42q-9 1 -28 1zM1120 159l-30 1q-87 0 -172.5 -52t-85.5 -91q0 -27 51 -27q71 0 135.5 48.5t101.5 120.5zM259 218q82 15 156.5 15t136.5 -13q21 40 21 70q0 63 -83 63
q-71 0 -132.5 -38.5t-98.5 -96.5zM307 -9q37 -14 94.5 -14t150.5 43q95 44 152 101q-45 52 -129 78q-35 -63 -106 -120t-162 -88zM14 41q0 -30 32.5 -48.5t94.5 -18.5t124 20q-58 36 -58 109q0 49 27 99q-100 -25 -160 -71.5t-60 -89.5zM1127 400q103 26 168 89.5t65 131.5
q0 37 -23 69q-84 -59 -170 -147q-19 -19 -106 -111q38 -10 66 -32zM545 208q-65 15 -139.5 15t-154.5 -17q-29 -50 -29 -100q0 -72 63 -106q84 31 154 89t106 119zM668 564.5q-26 -46.5 -26 -82.5t19.5 -56t55.5 -20q76 0 152 54t123 131.5t47 146.5q0 19 -4 34
q-91 -7 -168.5 -39.5t-125 -77t-73.5 -91zM1098 173l29 -1q28 59 28 117t-36 95q-57 -10 -113 -10q-142 -148 -175 -186q-30 -30 -87 -74q40 -49 40 -103q0 -77 -81.5 -140.5t-240.5 -87.5v11q139 22 213 83.5t74 136.5q0 44 -27 85q-193 -135 -333 -135q-64 0 -106 20
q-73 -21 -144 -21t-109 22.5t-38 57.5q0 48 66 97.5t183 74.5q39 65 108.5 108.5t152.5 43.5q51 0 76 -21.5t25 -57.5t-21 -76q85 -25 139 -74q49 48 233 239q-54 9 -54 33q0 13 23 22.5t49 9.5t44 -2l35 37q136 148 271 230q-70 67 -238 67q-6 0 -12 -0.5t-9 -0.5
q5 -20 5 -39q0 -74 -48.5 -152.5t-134.5 -133.5t-180 -55q-46 0 -70.5 23t-24.5 63t28.5 88t79 93.5t134 79t181.5 41.5q-29 97 -181 97q-50 0 -107 -16.5t-102 -40.5q-91 -49 -142 -89l-21 -16l-10 9q24 21 73.5 54t93.5 55.5t105.5 40.5t117.5 18q167 0 201 -110
q17 1 31 1q162 0 245 -68q124 72 227 72q78 0 120 -30.5t42 -80.5t-55.5 -99t-153.5 -66l-10 8q91 17 140.5 61t49.5 90t-37.5 75t-105.5 29q-89 0 -201 -74q39 -42 39 -95q0 -69 -66.5 -130.5t-185.5 -87.5q49 -49 49 -125q0 -47 -20 -95q76 -12 114.5 -46t38.5 -81
q0 -69 -76.5 -132.5t-202.5 -82.5l-4 12q108 10 182 72.5t74 130.5q0 41 -32.5 71.5t-98.5 41.5q-35 -77 -111.5 -127t-180.5 -50q-52 0 -52 35q0 48 84 104.5t194 56.5z" />
    <glyph glyph-name="C" unicode="C" horiz-adv-x="1028" 
d="M510 234q-17 -53 -17 -85.5t5 -54.5q114 69 160 94q-63 35 -148 46zM677 176l-170 -109q41 -88 187 -88q29 0 66 7q7 24 7 43q0 88 -90 147zM967 177q0 33 -23 53t-68 20q-74 0 -181 -63q107 -68 107 -167q0 -13 -3 -24q76 25 122 78t46 103zM388 553q103 0 197.5 36
t147 84.5t52.5 89.5q0 60 -118.5 60t-211.5 -81t-116 -187q30 -2 49 -2zM407 241q-181 0 -279 -56t-98 -125q0 -41 37.5 -68t104.5 -27q107 0 288 107q-15 33 -15 77.5t12 89.5q-32 2 -50 2zM577 313q110 0 226 40t199.5 96.5t137 117.5t53.5 104q0 57 -97 57t-209.5 -62.5
t-201 -156t-141.5 -195.5q11 -1 33 -1zM431 975l3 -15q-112 -19 -189 -98t-77 -162q0 -53 37.5 -91.5t114.5 -50.5q26 113 125.5 199t231.5 86q62 0 93.5 -20.5t31.5 -54.5q0 -75 -122.5 -150.5t-299.5 -75.5q-30 0 -44 1q-3 -21 -3 -41q0 -66 38.5 -114.5t117.5 -65.5
q37 78 100 152t143 134.5t179.5 97.5t203 37t103.5 -67q0 -47 -55.5 -111.5t-143 -124.5t-210.5 -101.5t-243 -41.5q-20 0 -30 1q-12 -26 -21 -51q95 -13 161 -50q129 67 217 67q49 0 74.5 -22.5t25.5 -59.5q0 -56 -53.5 -115.5t-143.5 -85.5q-23 -75 -114 -131.5
t-215 -56.5q-51 0 -108 12l10 9q38 -7 80 -7q109 0 193 47.5t113 117.5q-42 -7 -75 -7q-151 0 -206 83q-168 -96 -308 -96q-76 0 -121 32.5t-45 79.5q0 74 106.5 132t308.5 58q16 0 46 -2q11 32 20 53q-85 18 -126.5 70t-41.5 123q0 26 4 47q-92 11 -137.5 52.5t-45.5 99.5
q0 86 84.5 169.5t212.5 108.5z" />
    <glyph glyph-name="D" unicode="D" horiz-adv-x="1160" 
d="M23 21q0 -28 51.5 -54.5t132 -26.5t175.5 46q-25 6 -93 26q-131 37 -198.5 37t-67.5 -28zM491 453q0 -58 90 -58q46 0 104 26t110 68t87.5 105t35.5 129q0 21 -5 41q-78 -12 -157.5 -49t-136 -83t-92.5 -95t-36 -84zM458 -9q62 -12 106 -12q90 0 180.5 27t165.5 72.5
t140.5 105.5t110.5 124q97 140 97 256q0 62 -30 109q-111 -85 -358 -347q-85 -89 -198.5 -185t-213.5 -150zM748 873q-103 0 -233 -55t-196 -121l-13 8q91 78 219 131t232 53q142 0 172 -103q32 3 64 3q156 0 235 -87q125 77 230 77q63 0 99 -28t36 -69.5t-32.5 -81.5
t-95.5 -69l-2 11q50 20 80.5 59t30.5 77.5t-32.5 63t-97.5 24.5q-90 0 -201 -82q44 -62 44 -142t-31.5 -159t-95.5 -154t-151 -134.5t-208.5 -96t-256.5 -36.5q-55 0 -117 13q-129 -62 -252 -62q-74 0 -126.5 32.5t-52.5 67.5q0 23 25.5 37t74.5 14t97 -9t123.5 -29.5
t95.5 -25.5q92 50 203.5 147t200 190t199.5 196t197 159q-70 78 -230 78q-25 0 -49 -3q3 -15 3 -33q0 -73 -38 -142t-94 -116t-118.5 -75t-110.5 -28t-72 23.5t-24 65t28.5 92t80 98.5t136 84.5t184.5 47.5q-32 89 -160 89z" />
    <glyph glyph-name="E" unicode="E" horiz-adv-x="1041" 
d="M950 354q23 0 37.5 6t14.5 13q0 14 -54 14t-108 -9q38 -24 110 -24zM501 96v-10q12 7 74 44t94 55q-48 26 -116 41q-52 -64 -52 -130zM654 -27q49 0 98 13q15 30 15 62q0 71 -76 123q-15 -9 -53 -33q-74 -48 -132 -80q27 -85 148 -85zM954 176q0 30 -22 48t-73 18
t-154 -62q77 -55 77 -131q0 -30 -12 -57q81 26 132.5 80.5t51.5 103.5zM1245 682q0 46 -100 46q-77 0 -158 -46.5t-132 -112t-52 -120.5q111 11 216.5 54t165.5 92.5t60 86.5zM529 622q80 0 159 23t134.5 56t90.5 70.5t35 67.5q0 54 -107 54q-135 0 -235.5 -85.5
t-110.5 -184.5q11 -1 34 -1zM378 243q-169 0 -260.5 -53t-91.5 -119q0 -42 40 -71t109 -29q118 0 280 89q-4 13 -4 31q0 70 64 142q-68 10 -137 10zM563 238q69 -14 121 -45q114 61 180.5 61t97.5 -22t31 -58q0 -56 -65 -115.5t-167 -84.5q-32 -60 -112 -108t-200 -73l-1 13
q111 25 185.5 67.5t108.5 95.5q-52 -10 -99 -10q-138 0 -179 77q-157 -76 -304 -76q-74 0 -117 31t-43 77q0 72 102 129.5t294 57.5q75 0 131 -10q102 104 285 140q-20 19 -30 47q-20 -2 -59 -2q-125 0 -186.5 48.5t-61.5 124.5v9q-101 9 -150.5 51t-49.5 103
q0 86 84.5 169.5t212.5 108.5l3 -15q-112 -19 -189 -98t-77 -162q0 -56 41.5 -95.5t125.5 -48.5q12 108 119 198t252 90q118 0 118 -68q0 -34 -33.5 -74t-90 -76t-142 -60t-178.5 -24h-27v-5q0 -70 59.5 -115t180.5 -45q29 0 44 1q-3 15 -3 31q0 45 25 91t71 85t120 64
t163 25q117 0 117 -54q0 -41 -64 -95t-175.5 -100t-228.5 -59q5 -28 25 -47q66 11 132.5 11t66.5 -21q0 -13 -26 -25t-59 -12q-76 0 -119 34q-167 -32 -260 -137z" />
    <glyph glyph-name="F" unicode="F" horiz-adv-x="1030" 
d="M1061 232.5q25 19.5 25 31t-8 11.5q-21 0 -92 -75q50 13 75 32.5zM283 231q44 4 98 3.5t164 -16.5q26 47 26 83q0 60 -74 60q-61 0 -118 -36.5t-96 -93.5zM21 43q0 -35 29 -56.5t88.5 -21.5t129.5 25q-47 36 -47 99t38 128q-110 -16 -174 -68t-64 -106zM537 206
q-123 17 -171 17t-92 -4q-40 -66 -40 -129t48 -95q81 32 149 90.5t106 120.5zM569 201q-41 -63 -115 -122t-160 -91q41 -22 104 -22q93 0 183 55t190 156q-88 6 -202 24zM628 464q0 -62 96 -62q64 0 141.5 54t131.5 133t54 146q0 12 -4 32q-94 -3 -194.5 -57.5
t-162.5 -124.5t-62 -121zM1504 855q120 60 227 60q71 0 109 -23.5t38 -58.5q0 -54 -79 -99t-213 -45q-76 0 -266.5 39t-257.5 40q3 -15 3 -30q0 -71 -54.5 -153t-137.5 -138.5t-158 -56.5q-51 0 -77 22.5t-26 62.5t30.5 89.5t84 95t137.5 79t179 39.5q-34 91 -212 91
q-50 0 -105.5 -17t-99.5 -42q-89 -49 -138 -90l-21 -17l-6 12q17 17 67 52t92.5 57t103.5 40t118 18q184 0 217 -103q13 1 28 1q90 0 272 -33.5t244 -33.5q117 0 188.5 36t71.5 79q0 29 -36.5 47.5t-117 18.5t-198.5 -49zM782 188q43 44 115.5 125t123.5 134.5t117 112.5
q133 120 265 144l1 -6q-59 -15 -132.5 -72t-133.5 -121.5t-150.5 -162t-153.5 -156.5h13q53 0 94 6q41 45 72.5 69t61.5 24t30 -15q0 -18 -36 -43.5t-95 -40.5q-95 -99 -128 -99q-4 0 -4 2q0 4 10 10q27 21 77 79q-27 -4 -60 -4t-47 1q-235 -219 -430 -219q-70 0 -113 27
q-81 -28 -146.5 -28t-98.5 26t-33 65q0 59 70 113.5t196 69.5q41 63 104 103.5t135 40.5q101 0 101 -72q0 -38 -30 -87q162 -24 205 -26z" />
    <glyph glyph-name="G" unicode="G" horiz-adv-x="932" 
d="M304 219q52 6 122.5 6t141.5 -13q23 41 23 73q0 63 -84 63q-52 0 -106.5 -36t-96.5 -93zM24 42q0 -36 35.5 -59.5t86.5 -23.5t96 10q-27 30 -27 78q0 74 56 156q-118 -18 -182.5 -65t-64.5 -96zM595 191q-40 -72 -124.5 -135.5t-191.5 -90.5q33 -22 100.5 -22t169 47.5
t167.5 107.5l24 21q-50 47 -145 72zM561 199q-72 14 -145 14t-121 -6q-58 -86 -58 -157q0 -47 29 -75q92 27 172.5 91t122.5 133zM441 622q80 0 159 23t134.5 56t90.5 70.5t35 67.5q0 54 -107 54q-127 0 -229.5 -83t-128.5 -186q14 -2 46 -2zM1164 698q0 49 -93 49
q-75 0 -165.5 -55t-158 -133t-87.5 -146q90 7 184.5 40t163 76.5t112.5 89.5t44 79zM1090 425q5 -2 5 -7v-2q-7 -6 -16 -13q-18 -18 -47 -39q-38 -30 -60.5 -52.5t-88 -101t-103.5 -113.5q24 -37 24 -78q0 -80 -87 -152t-246 -104l-1 13q153 34 236 101t83 141q0 36 -21 68
q-79 -66 -198.5 -112t-199 -46t-118.5 31q-52 -11 -112.5 -11t-99.5 26.5t-39 66.5q0 55 72 105.5t207 69.5q45 63 108 103t122 40q112 0 112 -81q0 -32 -20 -74q97 -25 149 -74q153 138 173.5 159t28.5 28q-90 -43 -168 -43t-113 33.5t-37 88.5q-10 -1 -29 -1
q-120 0 -179 48.5t-59 125.5q0 25 4 45q-93 10 -139 51.5t-46 100.5q0 86 84.5 169.5t212.5 108.5l3 -15q-112 -19 -189 -98t-77 -162q0 -54 38.5 -92.5t116.5 -50.5q28 111 136.5 199t246.5 88q118 0 118 -68q0 -34 -33.5 -74t-90 -76t-142 -60t-178.5 -24q-28 0 -41 1
q-4 -17 -4 -39q0 -72 56.5 -117t172.5 -45h18q4 94 83 186q88 102 214 143q71 22 148 22q110 0 110 -57q0 -49 -76 -116.5t-203.5 -124t-253.5 -67.5q-3 -14 -3 -25q0 -87 127 -87q48 0 103 19t86 38l31 19q75 64 89 64z" />
    <glyph glyph-name="H" unicode="H" horiz-adv-x="1135" 
d="M11 29q0 -37 42 -37t107.5 34t132 95.5t130.5 126.5q-214 -73 -313 -120.5t-99 -98.5zM1393 789q-86 0 -236.5 -109.5t-286.5 -260.5q221 87 382.5 191.5t161.5 162.5q0 16 -21 16zM772 -39h10q59 0 113 28t88.5 69t54.5 84t20 76q0 50 -47 50q-70 0 -154.5 -91.5
t-84.5 -209.5v-6zM278 577h25q89 0 170.5 21.5t135.5 54t85.5 69.5t31.5 67t-29 47.5t-87 17.5q-118 0 -217.5 -90t-114.5 -187zM439 1006l3 -12q-155 -21 -256.5 -107t-101.5 -174q0 -51 40 -87t120 -46q4 49 33.5 100t77 94t117.5 70.5t139.5 27.5t101 -21t31.5 -55.5
t-32 -74.5t-87.5 -75t-142.5 -58.5t-185 -23.5h-21v-12q0 -52 37 -83.5t105.5 -31.5t151.5 33.5t172 103.5q146 136 258 188q42 19 56 20l2 -7q-86 -38 -155 -94q-69 -58 -177 -170l-185 -202l-16 -16q100 35 259 93q134 168 308.5 292t302.5 124q34 0 34 -24
q0 -67 -170.5 -177t-404.5 -200q-89 -103 -142.5 -195t-53.5 -153q0 -84 103 -91v13q0 67 26.5 126.5t66 98t83.5 61t80.5 22.5t57 -19.5t20.5 -56.5t-24.5 -81.5t-65.5 -83.5t-101.5 -65.5t-125.5 -26.5h-6q5 -71 51.5 -115.5t135.5 -44.5q32 0 68 12l8 -5q-31 -17 -90 -17
q-85 0 -131 47.5t-52 123.5q-135 6 -135 115q0 117 144 304q-161 -58 -262 -93l-113 -116q-32 -41 -147.5 -111t-198.5 -70q-50 0 -50 40q0 34 23 62t85 57.5t107 46t121.5 42.5t101.5 35q67 67 178 185l27 30q17 19 46 46q-151 -98 -268 -98q-89 0 -133.5 38.5t-44.5 100.5
v2q-86 9 -130 47.5t-44 93.5q0 91 103.5 181t266.5 117z" />
    <glyph glyph-name="I" unicode="I" horiz-adv-x="905" 
d="M1019.5 386.5q15.5 7.5 15.5 16.5t-18 13q-5 -5 -18 -19t-21 -21q26 3 41.5 10.5zM915 375l44 43q-59 -1 -124 -15q25 -22 80 -28zM1526 722q0 18 -39 18q-97 0 -205 -76q121 8 166 15q78 13 78 43zM1212 641q-199 -17 -274 -46q-86 -33 -112 -79q-15 -27 -15 -56t13 -46
q74 18 150 19q147 143 238 208zM900 361q-60 6 -89 36q-143 -39 -228.5 -128.5t-85.5 -173.5q0 -31 12 -53q64 34 137 90.5t124 103.5t130 125zM38 123q-7 -8 -12.5 -8t-9.5 1q-4 0 -4 -12q0 -46 45 -76q75 -50 215 -50q107 0 224 57q-12 27 -12 60q0 56 34 115.5t108 115
t175 83.5q-13 19 -13 49t14.5 58t38 48t60.5 35.5t73 25t86 17.5q62 9 179 18q140 93 263 93q22 0 30.5 -5.5t8.5 -23.5t-21 -32.5t-64 -23.5q-75 -14 -196 -23h-2h-1q-62 -46 -147 -132q-27 -28 -79 -82q28 -6 28 -21.5t-25.5 -29t-68.5 -18.5q-120 -123 -223.5 -207.5
t-217.5 -134.5q48 -40 115 -40q103 0 254 100l2 -15q-145 -101 -258 -101q-40 0 -71.5 12.5t-43.5 25.5l-12 12q-124 -50 -249 -50q-72 0 -155 22q-47 13 -76.5 42t-29.5 71q0 24 8.5 37.5t17.5 15.5l8 1q11 -1 11 -11.5t-7 -18.5z" />
    <glyph glyph-name="J" unicode="J" horiz-adv-x="562" 
d="M1109 763q-92 0 -214 -93l57 4q63 4 109 17q84 24 84 53q0 19 -36 19zM39 -221q21 -6 50 -6q80 0 169.5 38.5t147 90.5t57.5 93q0 59 -127 59q-16 0 -24 -1q-165 -182 -273 -274zM203 387q0 -39 30 -62.5t88 -23.5t131.5 51t124 126.5t50.5 140.5l-1 16
q-205 -24 -314 -98.5t-109 -149.5zM-51 -183l9 6q12 -14 36 -27q100 92 249 250q-105 -17 -224 -69.5t-210 -113.5t-151.5 -122t-60.5 -99t70 -38q114 0 314 180q-26 15 -32 33zM320 62q8 1 25 1q149 0 149 -66q0 -44 -63.5 -99.5t-163 -96t-189.5 -40.5q-32 0 -54 6
q-209 -177 -368 -177q-71 0 -71 48q0 33 34.5 82t98.5 102t144.5 101.5t184.5 85t207 48.5q25 27 97.5 105.5t105.5 113.5t96 100.5t104 105.5q115 110 190 167q-33 -3 -98 -5t-109 -7q1 -5 1 -15q0 -52 -31 -112t-78.5 -108.5t-109 -81t-118 -32.5t-92 31.5t-35.5 74.5
t25 82t75 76t139 65.5t205 39.5q-31 101 -221 101q-50 0 -105.5 -17t-99.5 -41q-89 -50 -139 -91l-20 -17l-6 12q17 17 67 52t92.5 57t103.5 40t118 18q195 0 225 -113q50 5 101.5 6t136.5 5q150 109 253 109q53 0 53 -21q0 -27 -72.5 -60.5t-167.5 -40.5q-46 -4 -70 -5
q-59 -48 -133 -123t-129 -137.5t-147.5 -168.5t-140.5 -160z" />
    <glyph glyph-name="K" unicode="K" horiz-adv-x="1495" 
d="M1058 419q-14 0 -14 -6t8 -13q20 -16 65 -16q12 0 19 1q-24 34 -78 34zM259 218q82 15 156.5 15t136.5 -13q21 40 21 70q0 63 -83 63q-71 0 -132.5 -38.5t-98.5 -96.5zM307 -9q37 -14 93.5 -14t148.5 47q96 49 150 103q-45 47 -124 72q-35 -63 -106 -120t-162 -88z
M207 103q0 49 27 99q-100 -25 -160 -71.5t-60 -89.5q0 -30 32.5 -48.5t94.5 -18.5t124 20q-58 36 -58 109zM545 208q-65 15 -139.5 15t-154.5 -17q-29 -50 -29 -100q0 -72 63 -106q84 31 154 89t106 119zM1129 -45h15q59 0 113 28t88.5 69t54.5 84t20 76q0 37 -46 37
q-32 0 -73 -20t-80 -55.5t-65.5 -92.5t-26.5 -121v-5zM621 514h14q90 0 173.5 25.5t138.5 63.5t87.5 80.5t32.5 76.5t-28.5 53.5t-84.5 19.5q-85 0 -164 -50t-124.5 -120t-45.5 -132zM783 985l3 -12q-156 -22 -260.5 -118.5t-104.5 -194.5q0 -58 42 -96.5t126 -47.5
q-2 18 -2 28q0 50 28 103.5t76 99t120 75t142.5 29.5t101 -22.5t30.5 -61.5t-33 -84.5t-90 -86.5t-145.5 -68t-187.5 -27h-6q22 -85 147 -85q64 0 153 38t183 116l6 -8q-30 -26 -76 -57.5t-126 -65.5t-145 -34q-144 0 -172 97q-93 7 -140.5 49t-47.5 105q0 101 106.5 201
t271.5 128zM1463 772l-3 -10q-127 -46 -295 -214q-20 -20 -112 -117h3q19 0 48 -9.5t47 -34.5q90 15 201 107q50 40 102.5 87.5t108 93.5t112.5 83q127 84 256 84q47 0 70.5 -21.5t23.5 -56.5q0 -73 -78.5 -145.5t-185.5 -72.5q-28 0 -42.5 12t-14.5 32q0 37 41 76.5
t101 50.5v-5q-57 -12 -93.5 -48.5t-36.5 -69.5q0 -38 48 -38q93 0 168.5 70.5t75.5 138.5t-90 68q-63 0 -129.5 -31t-122 -78t-119.5 -104t-121 -107t-128.5 -88.5t-140.5 -48.5q11 -19 11 -51.5t-15 -65t-37 -55.5l-44 -46q-52 -53 -52 -108q0 -83 95 -93v9q0 67 27.5 125
t69 94.5t87 57t81.5 20.5q77 0 77 -63q0 -36 -24.5 -80.5t-65.5 -83.5t-101.5 -65.5t-125.5 -26.5h-11q5 -71 52.5 -115.5t139.5 -44.5q32 0 68 12l8 -5q-31 -17 -90 -17q-90 0 -137.5 47.5t-53.5 123.5q-62 7 -90 44.5t-28 81.5t15 75.5t37 55.5l44 48q51 56 51 105
q0 7 -4 19q-11 -1 -32 -1q-56 0 -91 20l-188 -200q-21 -23 -89 -76q43 -49 43 -106q0 -77 -81.5 -140.5t-240.5 -87.5v11q139 22 213 83.5t74 136.5q0 46 -29 87q-191 -137 -331 -137q-64 0 -106 20q-73 -21 -144 -21t-109 22.5t-38 57.5q0 48 66 97.5t183 74.5
q39 65 108.5 108.5t152.5 43.5q51 0 76 -21.5t25 -57.5t-21 -76q81 -23 134 -69l335 334q87 96 196 179.5t216 115.5z" />
    <glyph glyph-name="L" unicode="L" horiz-adv-x="1250" 
d="M185 -30q132 0 267 70q-249 68 -307 68t-83.5 -16t-25.5 -43.5t40.5 -53t108.5 -25.5zM708 5q145 -31 225.5 -31t137.5 26.5t57 59.5q0 24 -35 40.5t-102 16.5q-106 0 -178 -31t-105 -81zM1170 654q-68 -63 -167.5 -170.5t-145.5 -154.5q10 -1 31 -1q82 0 177.5 42
t169 100t123 120.5t49.5 103.5q0 49 -71 49t-166 -89zM1092 794q0 67 -109 67q-60 0 -123.5 -28.5t-108.5 -74.5t-73 -102t-33 -111q26 -2 42 -2q83 0 161 26t130 64.5t83 82t31 78.5zM513 51q73 -18 174 -42q33 54 112.5 87.5t201.5 33.5q72 0 114.5 -22t42.5 -53
q0 -38 -64.5 -67t-168 -29t-230.5 24q-10 -24 -10 -52q0 -65 63.5 -111.5t176.5 -46.5l4 -8q-18 -2 -27 -2q-107 0 -171.5 51.5t-64.5 121.5q0 27 10 50q-99 21 -198 47q-152 -76 -303 -76q-75 0 -122 29.5t-47 62.5t36 53.5t107.5 20.5t335.5 -65q138 80 313 262
q-87 19 -131 76.5t-44 136.5v2q-82 9 -121.5 47t-39.5 94q0 95 98 194.5t233 126.5l3 -9q-135 -28 -227 -120.5t-92 -182.5q0 -53 36 -89.5t110 -48.5q3 60 31 118.5t74.5 107t117.5 78.5t142 30q130 0 130 -81q0 -39 -33 -85.5t-88.5 -87t-140 -68t-177.5 -27.5
q-24 0 -35 1v-10q0 -71 41.5 -121.5t126.5 -66.5q32 33 94.5 101t95 102t85.5 84t89 74q95 62 169 62q95 0 95 -63q0 -46 -51.5 -112t-129.5 -126t-182.5 -102.5t-199.5 -42.5q-24 0 -35 1q-179 -179 -329 -262z" />
    <glyph glyph-name="M" unicode="M" horiz-adv-x="1609" 
d="M249 228q82 15 156.5 15t136.5 -13q21 40 21 70q0 63 -83 63q-71 0 -132.5 -38.5t-98.5 -96.5zM297 1q37 -14 92 -14q145 0 307 142q-48 54 -131 80q-35 -63 -106 -120t-162 -88zM197 113q0 49 27 99q-100 -25 -160 -71.5t-60 -89.5q0 -30 32.5 -48.5t94 -18.5t124.5 19
q-58 38 -58 110zM535 218q-65 15 -139.5 15t-154.5 -17q-29 -50 -29 -100q0 -72 63 -106q84 31 154 89t106 119zM1256 -29q78 0 146.5 47.5t103.5 106.5t35 104q0 57 -50 57q-53 0 -111 -49.5t-96.5 -122.5t-38.5 -137v-5q3 -1 11 -1zM630 541l1 -17h14q90 0 173.5 25.5
t138.5 63.5t87.5 80.5t32.5 76.5t-28.5 53.5t-84.5 19.5q-85 0 -164 -50t-124.5 -120t-45.5 -132zM793 995l3 -12q-156 -22 -260.5 -118.5t-104.5 -194.5q0 -58 42 -96.5t126 -47.5q-2 18 -2 28q0 50 28 103.5t76 99t120 75t142.5 29.5t101 -22.5t30.5 -61.5t-33 -84.5
t-90 -86.5t-145.5 -68t-187.5 -27h-6q22 -85 147 -85q64 0 153 38t183 116l6 -8q-30 -26 -76 -57.5t-126 -65.5t-145 -34q-144 0 -172 97q-93 7 -140.5 49t-47.5 105q0 101 106.5 201t271.5 128zM1424 -163q32 0 68 12l8 -5q-31 -17 -90 -17q-89 0 -132.5 37.5t-46.5 100.5
q-41 10 -67 45.5t-26 82t23 98.5t55.5 99t86.5 106t95 100t104 96q86 76 169 144l-2 2q-304 -185 -751 -666l-56 -73q-5 -3 -9 -3t-4 6l12 21l100 158q97 162 136 225q137 223 253 328q-17 0 -92 -70l-25 -24q-341 -351 -510 -503q51 -54 51 -116q0 -77 -81.5 -140.5
t-240.5 -87.5v11q139 22 213 83.5t74 136.5q0 50 -35 96q-81 -70 -158 -108t-154 -38t-119 20q-73 -21 -144 -21t-109 22.5t-38 57.5q0 48 66 97.5t183 74.5q39 65 108.5 108.5t152.5 43.5q51 0 76 -21.5t25 -57.5t-21 -76q91 -27 142 -77q8 8 55 51t167.5 163t203.5 205
l82 84q128 125 219 145q11 0 11 -5.5t-6 -7.5q-46 -14 -86 -61.5t-97 -130.5t-87 -132l-172 -273q0 -1 3 -1l13 10q190 200 352.5 341.5t344.5 247.5q39 26 44.5 26t5.5 -6t-2 -8t-42.5 -34t-74.5 -63t-60 -55t-86 -83t-97.5 -99.5t-88.5 -101t-80 -106.5q-72 -114 -72 -187
q0 -45 34 -74q14 -12 33 -16q0 69 40 145.5t103.5 129.5t125.5 53q35 0 56.5 -21.5t21.5 -60.5t-24.5 -83.5t-65.5 -83.5t-101.5 -65.5t-125.5 -26.5l-15 1q11 -125 178 -125z" />
    <glyph glyph-name="N" unicode="N" horiz-adv-x="1099" 
d="M249 228q82 15 156.5 15t136.5 -13q21 40 21 70q0 63 -83 63q-71 0 -132.5 -38.5t-98.5 -96.5zM297 1q37 -14 92 -14q145 0 307 142q-48 54 -131 80q-35 -63 -106 -120t-162 -88zM197 113q0 49 27 99q-100 -25 -160 -71.5t-60 -89.5q0 -30 32.5 -48.5t94 -18.5t124.5 19
q-58 38 -58 110zM535 218q-65 15 -139.5 15t-154.5 -17q-29 -50 -29 -100q0 -72 63 -106q84 31 154 89t106 119zM600 541l1 -17h14q90 0 173.5 25.5t138.5 63.5t87.5 80.5t32.5 76.5t-28.5 53.5t-84.5 19.5q-85 0 -164 -50t-124.5 -120t-45.5 -132zM763 995l3 -12
q-156 -22 -260.5 -118.5t-104.5 -194.5q0 -58 42 -96.5t126 -47.5q-2 18 -2 28q0 50 28 103.5t76 99t120 75t142.5 29.5t101 -22.5t30.5 -61.5t-33 -84.5t-90 -86.5t-145.5 -68t-187.5 -27h-6q22 -85 147 -85q64 0 153 38t183 116l6 -8q-30 -26 -76 -57.5t-126 -65.5
t-145 -34q-144 0 -172 97q-93 7 -140.5 49t-47.5 105q0 101 106.5 201t271.5 128zM1891 726.5q-26 24.5 -82 24.5t-121.5 -23t-123.5 -56t-127.5 -89t-120 -102t-116.5 -115t-101 -109t-91 -104.5t-70 -80.5l-56 -73q-5 -3 -9 -3t-4 6l12 21q14 18 63 123l17 35
q77 162 116 225q137 223 253 328q-17 0 -92 -70l-25 -24q-311 -341 -490 -503q51 -54 51 -116q0 -77 -81.5 -140.5t-240.5 -87.5v11q139 22 213 83.5t74 136.5q0 50 -35 96q-81 -70 -158 -108t-154 -38t-119 20q-73 -21 -144 -21t-109 22.5t-38 57.5q0 48 66 97.5t183 74.5
q39 65 108.5 108.5t152.5 43.5q51 0 76 -21.5t25 -57.5t-21 -76q91 -27 142 -77q8 8 55 51t162.5 163t192.5 205l78 84q128 125 219 145q11 0 11 -5.5t-6 -7.5q-46 -14 -86.5 -62.5t-99 -132.5t-100.5 -156q-102 -172 -128 -227l-8 -19q0 -1 3 -1l13 10q21 22 64.5 69
t70.5 75.5t72.5 75t78 76.5t79 70t84 66t84 54.5t87.5 44.5q96 37 168 37t104 -32t32 -87.5t-63 -124t-146.5 -112.5t-144.5 -44q-72 0 -72 68q0 47 44 95.5t117 66.5l3 -10q-69 -21 -109 -64t-40 -85q0 -58 53 -58t132 48.5t139 118t60 116t-26 71z" />
    <glyph glyph-name="O" unicode="O" horiz-adv-x="679" 
d="M678 697q-86 0 -208 -93t-227 -226h19q70 0 141 21.5t126.5 55.5t100 73t68.5 75t24 61q0 33 -44 33zM94 606q80 0 160 28.5t136.5 70t92 88t35.5 83.5q0 66 -106 66q-89 0 -171 -51t-134 -127t-66 -155q26 -3 53 -3zM79 40q0 -103 122 -103q93 0 226 90t246.5 211.5
t194.5 251t81 203t-82 73.5q-21 0 -58.5 -13.5t-54.5 -29.5q-15 4 -15 11q0 10 46 26.5t86 16.5q98 0 98 -86q0 -53 -38 -132t-99 -163.5t-143 -169.5t-166.5 -151.5t-172.5 -108.5t-161 -42t-110.5 36t-37.5 99q0 131 129 311q-78 17 -115.5 67t-37.5 120q0 19 3 42
q-90 11 -135 54.5t-45 104.5q0 90 85 177.5t212 112.5l3 -15q-112 -19 -189 -102t-77 -171q0 -56 36.5 -95.5t111.5 -53.5q16 84 70.5 163.5t142 133.5t183.5 54q58 0 87.5 -22.5t29.5 -61.5t-34 -88t-91 -93t-143.5 -73t-180.5 -29q-32 0 -47 2q-2 -24 -2 -36
q0 -65 36 -111.5t109 -63.5q104 139 240 232.5t262 93.5q58 0 58 -44q0 -36 -39.5 -87.5t-103.5 -100.5t-158 -83.5t-190 -34.5h-20q-69 -90 -110.5 -176t-41.5 -146z" />
    <glyph glyph-name="P" unicode="P" horiz-adv-x="953" 
d="M269 218q82 15 156.5 15t136.5 -13q21 40 21 70q0 63 -83 63q-71 0 -132.5 -38.5t-98.5 -96.5zM317 -9q37 -14 94.5 -14t150.5 43q95 44 152 101q-45 52 -129 78q-35 -63 -106 -120t-162 -88zM24 41q0 -30 32.5 -48.5t94.5 -18.5t124 20q-58 36 -58 109q0 49 27 99
q-100 -25 -160 -71.5t-60 -89.5zM1177 543q-35 -35 -179 -188h13q141 0 246.5 82.5t105.5 174.5q0 40 -25 72q-78 -57 -161 -141zM555 208q-65 15 -139.5 15t-154.5 -17q-29 -50 -29 -100q0 -72 63 -106q84 31 154 89t106 119zM678 552.5q-26 -46.5 -26 -82.5t19.5 -56
t55.5 -20q76 0 152 54t123 131.5t47 146.5q0 19 -4 34q-91 -7 -168.5 -39.5t-125 -77t-73.5 -91zM908 354l10 11q20 -4 30 -5l113 117q131 143 261 224q-66 61 -228 61l-21 -1q5 -20 5 -39q0 -74 -48.5 -152.5t-134.5 -133.5t-180 -55q-46 0 -70.5 23t-24.5 63t28.5 88
t79 93.5t134 79t181.5 41.5q-29 97 -181 97q-50 0 -107 -16.5t-102 -40.5q-91 -49 -142 -89l-21 -16l-10 9q24 21 73.5 54t93.5 55.5t105.5 40.5t117.5 18q167 0 201 -110q21 1 31 1q162 0 241 -59q125 75 231 75q78 0 120 -30.5t42 -80.5t-55.5 -99t-153.5 -66l-10 8
q91 17 140.5 61t49.5 90t-37.5 75t-105.5 29q-90 0 -204 -76q43 -42 43 -98q0 -96 -108 -178.5t-265 -82.5q-29 0 -44 1q-27 -29 -66 -69q-74 -78 -79 -84q-30 -30 -87 -74q40 -49 40 -103q0 -77 -81.5 -140.5t-240.5 -87.5v11q139 22 213 83.5t74 136.5q0 44 -27 85
q-193 -135 -333 -135q-64 0 -106 20q-73 -21 -144 -21t-109 22.5t-38 57.5q0 48 66 97.5t183 74.5q39 65 108.5 108.5t152.5 43.5q51 0 76 -21.5t25 -57.5t-21 -76q85 -25 139 -74q53 52 206 211z" />
    <glyph glyph-name="Q" unicode="Q" horiz-adv-x="1213" 
d="M729 13q172 -39 247 -39t110.5 20.5t35.5 48t-39 47t-119.5 19.5t-141.5 -26.5t-93 -69.5zM188 92q-80 0 -126.5 -25.5t-46.5 -54t30 -45.5t86 -17q177 1 367 83q-133 37 -198.5 48t-111.5 11zM260 340q0 -57 73 -57t157.5 45.5t149 112t107 145t42.5 142.5q0 7 -2 21
q-102 -12 -202.5 -61.5t-169.5 -112t-112 -127t-43 -108.5zM183 660l-9 6q70 87 200 150.5t234 63.5q165 0 199 -117q32 2 50 2q133 0 197.5 -44.5t64.5 -120.5q0 -125 -152 -287t-377 -267q10 -2 124 -30q36 48 104 77.5t154.5 29.5t128.5 -23t42 -57.5t-47 -62t-125 -27.5
q-121 0 -261 28q-13 -29 -13 -60q0 -65 55 -111.5t153 -46.5q54 0 85 15l5 -10q-26 -16 -80 -16q-114 0 -175.5 48t-61.5 117q0 34 15 67q-76 17 -156 39q-209 -86 -414 -86q-58 0 -91 20.5t-33 49.5q0 40 56 71t161.5 31t330.5 -53q218 106 373.5 270t155.5 284
q0 67 -56 105t-173 38q-13 0 -37 -2q4 -17 4 -41q0 -68 -38.5 -145t-103 -142.5t-159 -109t-194.5 -43.5q-77 0 -77 66q0 38 26 88.5t76.5 104.5t115 102t151 83.5t175.5 45.5q-24 109 -188 109q-92 0 -220.5 -63t-194.5 -146z" />
    <glyph glyph-name="R" unicode="R" horiz-adv-x="1510" 
d="M1055 426l-38 -40q55 0 109 13q-27 19 -71 27zM1007 431q-9 1 -29 1q-60 0 -60 -17t49 -26q30 32 40 42zM259 218q82 15 156.5 15t136.5 -13q21 40 21 70q0 63 -83 63q-71 0 -132.5 -38.5t-98.5 -96.5zM307 -9q37 -14 94.5 -14t150.5 43q95 44 152 101q-45 52 -129 78
q-35 -63 -106 -120t-162 -88zM14 41q0 -30 32.5 -48.5t94.5 -18.5t124 20q-58 36 -58 109q0 49 27 99q-100 -25 -160 -71.5t-60 -89.5zM1167 543q-19 -19 -102 -107q51 -9 79 -32q96 29 156 90.5t60 126.5q0 37 -23 69q-84 -59 -170 -147zM545 208q-65 15 -139.5 15
t-154.5 -17q-29 -50 -29 -100q0 -72 63 -106q84 31 154 89t106 119zM1139 -45h15q59 0 113 28t88.5 69t54.5 84t20 76q0 37 -46 37q-32 0 -73 -20t-80 -55.5t-65.5 -92.5t-26.5 -121v-5zM668 564.5q-26 -46.5 -26 -82.5t19.5 -56t55.5 -20q76 0 152 54t123 131.5t47 146.5
q0 19 -4 34q-91 -7 -168.5 -39.5t-125 -77t-73.5 -91zM1157 392q21 -26 21 -63t-15 -69.5t-37 -55.5l-44 -46q-52 -53 -52 -108q0 -83 95 -93v9q0 67 27.5 125t69 94.5t87 57t81.5 20.5q77 0 77 -63q0 -36 -24.5 -80.5t-65.5 -83.5t-101.5 -65.5t-125.5 -26.5h-11
q5 -71 52.5 -115.5t139.5 -44.5q32 0 68 12l8 -5q-31 -17 -90 -17q-90 0 -137.5 47.5t-53.5 123.5q-62 7 -90 44.5t-28 81.5t15 75.5t37 55.5l44 48q51 56 51 105q0 18 -15 33q-70 -14 -134 -14q-142 -148 -175 -186q-30 -30 -87 -74q40 -49 40 -103q0 -77 -81.5 -140.5
t-240.5 -87.5v11q139 22 213 83.5t74 136.5q0 44 -27 85q-193 -135 -333 -135q-64 0 -106 20q-73 -21 -144 -21t-109 22.5t-38 57.5q0 48 66 97.5t183 74.5q39 65 108.5 108.5t152.5 43.5q51 0 76 -21.5t25 -57.5t-21 -76q85 -25 139 -74q49 48 233 239q-54 9 -54 33
q0 13 23 22.5t53.5 9.5t40.5 -1l34 36q136 148 271 230q-70 67 -238 67l-21 -1q5 -20 5 -39q0 -74 -48.5 -152.5t-134.5 -133.5t-180 -55q-46 0 -70.5 23t-24.5 63t28.5 88t79 93.5t134 79t181.5 41.5q-29 97 -181 97q-50 0 -107 -16.5t-102 -40.5q-91 -49 -142 -89l-21 -16
l-10 9q24 21 73.5 54t93.5 55.5t105.5 40.5t117.5 18q167 0 201 -110q19 1 31 1q162 0 245 -68q124 72 227 72q78 0 120 -30.5t42 -80.5t-55.5 -99t-153.5 -66l-10 8q91 17 140.5 61t49.5 90t-37.5 75t-105.5 29q-89 0 -201 -74q39 -42 39 -95q0 -67 -62 -127t-173 -87z" />
    <glyph glyph-name="S" unicode="S" horiz-adv-x="924" 
d="M498 353q-69 0 -125.5 -37t-90.5 -95q69 12 142.5 12t135.5 -13q21 40 21 70q0 63 -83 63zM54.5 -7.5q32.5 -18.5 94 -18.5t126.5 21q-43 37 -43 98t26 113q-107 -24 -171.5 -72t-64.5 -93q0 -30 32.5 -48.5zM409 -33q163 0 315 140q-45 61 -141 92q-36 -64 -108 -121.5
t-165 -87.5q39 -23 99 -23zM276 210q-28 -54 -28 -114t45 -96q84 31 154 89t106 119q-65 15 -136 15t-141 -13zM1286 692q-31 -24 -53.5 -44t-57.5 -63t-53.5 -67t-59 -79.5t-57.5 -78.5q112 26 220.5 92.5t171 135t62.5 111.5q0 37 -58 37t-115 -44zM884 345q30 0 46 2
q128 175 187 238q149 162 296 162q60 0 60 -45q0 -36 -38.5 -88.5t-101 -105.5t-154 -98.5t-185.5 -64.5q-123 -165 -228 -251q26 -40 26 -83q0 -77 -81.5 -140.5t-240.5 -87.5v11q139 22 213 83.5t74 136.5q0 31 -14 62q-162 -122 -344 -122q-68 0 -110 29
q-75 -20 -144 -20t-107 22.5t-38 57.5q0 50 70.5 101t193.5 74q35 65 99.5 107t146.5 42q51 0 76 -21.5t25 -57.5t-21 -76q95 -27 153 -88q73 72 177 211q-28 -2 -44 -2q-115 0 -174.5 52.5t-59.5 131.5q0 103 93.5 187.5t246.5 84.5q34 0 63 -4l-5 -14q-38 5 -65 5
q-141 0 -226.5 -78.5t-85.5 -175.5q0 -76 56.5 -126.5t164.5 -50.5z" />
    <glyph glyph-name="T" unicode="T" horiz-adv-x="948" 
d="M259 201q82 15 156.5 15t136.5 -13q21 40 21 70q0 63 -83 63q-71 0 -132.5 -38.5t-98.5 -96.5zM307 -26q37 -14 93.5 -14t148.5 47q96 49 150 103q-45 47 -124 72q-35 -63 -106 -120t-162 -88zM207 86q0 50 27 99q-100 -25 -160 -71.5t-60 -89.5q0 -30 32.5 -48.5
t94.5 -18.5t124 20q-58 36 -58 109zM545 191q-65 15 -139.5 15t-154.5 -17q-29 -50 -29 -100q0 -72 63 -105q84 30 154 88t106 119zM715 521q0 -62 96 -62q64 0 141.5 54t131.5 133t54 146q0 12 -4 32q-94 -3 -194.5 -57.5t-162.5 -124.5t-62 -121zM1591 912q120 60 227 60
q71 0 109 -23.5t38 -58.5q0 -54 -79 -99t-213 -45q-76 0 -266.5 39t-257.5 40q3 -15 3 -30q0 -71 -54.5 -153t-137.5 -138.5t-158 -56.5q-51 0 -77 22.5t-26 62.5t30.5 89.5t84 95t137.5 79t179 39.5q-34 91 -212 91q-50 0 -105.5 -17t-99.5 -41q-89 -50 -139 -91l-20 -17
l-6 12q17 17 67 52t92.5 57t103.5 40t118 18q184 0 217 -103q9 1 28 1q90 0 272 -33.5t244 -33.5q117 0 188.5 36t71.5 79q0 29 -36.5 47.5t-117 18.5t-198.5 -49zM1463 755l-3 -10q-127 -46 -295 -214q-15 -15 -335 -355q-31 -30 -89 -76q43 -49 43 -106
q0 -77 -81.5 -140.5t-240.5 -87.5v11q139 22 213 83.5t74 136.5q0 46 -29 87q-191 -137 -331 -137q-64 0 -106 20q-73 -21 -144 -21t-109 22.5t-38 57.5q0 48 66 97.5t183 74.5q39 65 108.5 108.5t152.5 43.5q51 0 76 -21.5t25 -57t-21 -76.5q81 -23 134 -69l335 334
q87 96 196 179.5t216 115.5z" />
    <glyph glyph-name="U" unicode="U" horiz-adv-x="867" 
d="M1058 702q0 17 -14 17q-22 0 -88 -44q-102 -66 -238 -196.5t-227 -253.5q223 147 395 288.5t172 188.5zM812 188q0 29 -16.5 44t-47.5 15t-72.5 -21t-79 -57t-63 -91.5t-25.5 -117.5v-17q64 12 134 50.5t120 92.5t50 102zM-97 434q0 -59 68.5 -59t136 31.5t115 79.5
t77 106.5t29.5 111.5q0 19 -5 39q-89 -11 -186 -57t-166 -115.5t-69 -136.5zM386 10q0 -71 82 -71q7 0 27 2q-1 8 -1 25q0 67 27.5 125t69 94.5t87 57t82.5 20.5q76 0 76 -63q0 -78 -107.5 -164t-218.5 -109q11 -65 59 -99t115 -34q110 0 198 77l8 -5q-95 -84 -212 -84
q-70 0 -119.5 36t-61.5 106q-20 -3 -37 -3q-47 0 -74.5 24t-27.5 73.5t42 130.5q-282 -179 -359 -179q-20 0 -28 30q-3 12 -3 27q0 51 50.5 118t122 132.5t143.5 129.5t122.5 127t50.5 111.5t-35.5 74.5t-96.5 26q-16 0 -24 -1q8 -27 8 -54q0 -56 -28.5 -114t-77.5 -106
t-124 -78.5t-160 -30.5q-39 0 -59.5 19t-20.5 51q0 69 71.5 141.5t173 120.5t195.5 60q-36 114 -223 114q-95 0 -237.5 -63.5t-206.5 -144.5l-9 6q68 85 212 149t245 64t159 -34t79 -90q15 2 29 2q67 0 106.5 -29t39.5 -87.5t-34 -121t-85.5 -115t-113 -108.5t-115.5 -101.5
t-93.5 -93.5t-46.5 -85q0 -28 29 -28q65 0 360 188q83 139 241.5 293.5t288.5 224.5q70 39 108 39q28 0 28 -26q0 -52 -189 -206.5t-426 -309.5q-81 -115 -81 -181z" />
    <glyph glyph-name="V" unicode="V" horiz-adv-x="896" 
d="M1110 709q0 23 -14 23q-16 0 -26.5 -23.5t-10.5 -58.5t14 -60q37 71 37 119zM207 329q60 0 138 40.5t134 100.5t56 109q0 30 -36 30q-72 0 -166 -76t-176 -193q19 -11 50 -11zM1059.5 717.5q15.5 28.5 40 28.5t24.5 -47.5t-41 -121.5q18 -18 49 -18t72 27.5t53 47.5l9 -4
q-7 -9 -20 -23t-51.5 -37t-70.5 -23t-49 17q-71 -121 -216.5 -265.5t-294.5 -245t-226 -100.5q-61 0 -61 68q0 44 33.5 97.5t83 101.5t108 103.5t108 104t83 102.5t33.5 99q0 69 -40 102.5t-119 33.5t-187 -49.5t-185.5 -130.5t-77.5 -160q0 -53 28 -76q83 119 182.5 196
t181.5 77q24 0 37 -13.5t13 -36.5q0 -54 -59 -115.5t-142 -102t-150 -40.5q-35 0 -60 13q-138 -204 -138 -362q0 -96 62 -152t197 -56q178 0 347.5 117.5t218.5 279.5l15 2q-33 -117 -130 -213t-220 -147.5t-250 -51.5t-190.5 59t-63.5 160q0 81 38 179.5t102 192.5
q-36 27 -36 88q0 79 78.5 163t190.5 137t199 53q181 0 181 -175q0 -66 -47 -137.5t-113.5 -132t-133.5 -117.5q-161 -135 -161 -204q0 -43 43 -43q69 0 215.5 98t295.5 243.5t217 266.5q-21 30 -21 72t15.5 70.5z" />
    <glyph glyph-name="W" unicode="W" horiz-adv-x="726" 
d="M714 699q-69 -1 -163 -105q56 13 115.5 46.5t59.5 51.5q0 7 -12 7zM401 -9l738 623q149 120 290 120q58 0 92 -32.5t34 -97t-63.5 -134t-147 -114t-144.5 -44.5q-72 0 -72 68q0 47 44 95.5t117 66.5l3 -10q-69 -21 -109 -64t-40 -85q0 -58 53 -58t132 48.5t139 118
t60 122.5t-28.5 79t-83 26t-131 -34t-142.5 -89q-119 -98 -367.5 -311t-322.5 -272q-89 -71 -130 -97l-12 -7q-8 -6 -13 -6t-5 5.5t12 15.5q28 20 172 214l48 64q149 212 186 255q66 75 146 156l28 29q-21 -11 -98 -76t-144 -125l-66 -60q-196 -174 -255.5 -227t-187.5 -144
q-139 -99 -172 -99q-4 0 -4 5v2q2 9 30 31q67 57 156 174.5t186 250.5t167 206q-45 8 -45 55q0 30 42.5 71t42.5 80q0 18 -32 32q-21 8 -51 8q-102 0 -205.5 -44.5t-176.5 -107.5t-119.5 -132t-46.5 -120q0 -35 24.5 -55.5t69.5 -20.5t129 40t108 73l10 -7
q-17 -26 -104.5 -72.5t-146.5 -46.5q-110 0 -110 84q0 43 30.5 99t86 112t125.5 103.5t158.5 77.5t174.5 30q44 0 71 -19.5t27 -46t-14 -49.5t-30 -40q-45 -44 -45 -62q0 -31 36 -33q122 124 213 124q26 0 26 -15q0 -29 -71.5 -70.5t-135.5 -48.5q-50 -59 -227 -306
q-55 -76 -134 -165t-156 -149q39 4 224 152q22 18 41.5 33.5t170.5 149.5q334 297 364 319t84.5 55.5t61.5 33.5t7 -2l-8 -12q-26 -12 -98 -100t-131 -170l-59 -81q-91 -133 -138 -189q-70 -84 -123 -140z" />
    <glyph glyph-name="X" unicode="X" horiz-adv-x="1052" 
d="M59 -81q86 1 221 85.5t264 208.5q-45 -18 -89 -33q-224 -76 -330 -125.5t-106 -97.5q0 -38 40 -38zM932 148q0 50 -47 50q-70 0 -154.5 -91.5t-84.5 -209.5q0 -18 1 -26q61 8 126.5 47t112 102t46.5 128zM759 311q230 87 385 186.5t155 160.5v1q0 15 -21 15
q-82 0 -245 -113.5t-304 -261.5q13 6 30 12zM301 519q-26 -45 -26 -83.5t21.5 -57.5t57.5 -19q57 0 125.5 39t120.5 110t52 148q0 28 -9 52q-82 -2 -154 -31t-117 -71t-71 -87zM803 609q0 96 -137 100q14 -36 14 -71q0 -59 -32.5 -115.5t-81.5 -95t-104.5 -62t-101.5 -23.5
t-73 23t-27 66.5t24.5 90t70 90t120.5 74t164 34.5q-48 105 -233 105q-92 0 -220.5 -63t-194.5 -146l-9 6q70 87 200 150.5t229.5 63.5t161 -31.5t87.5 -83.5h5q195 0 195 -121q0 -75 -78 -189q130 120 265.5 198t232.5 78q34 0 34 -24q0 -69 -161 -173q-174 -112 -422 -201
q-14 -5 -19 -7q-188 -202 -188 -311q0 -52 27 -77t72 -25q9 0 14 1q-2 11 -2 35q0 67 26.5 126.5t66 98t83.5 61t80.5 22.5t57 -19.5t20.5 -57.5q0 -99 -105 -181.5t-216 -93.5q10 -64 56 -102.5t129 -38.5q32 0 68 12l8 -5q-31 -17 -99.5 -17t-114 41.5t-56.5 108.5
q-5 -1 -14 -1q-58 0 -93.5 30t-35.5 92q0 86 98 223q-138 -126 -287 -210.5t-251 -84.5q-55 0 -55 43q0 58 131 119q74 35 213 82.5t220 79.5q106 106 172 207t66 169z" />
    <glyph glyph-name="Y" unicode="Y" horiz-adv-x="600" 
d="M1117 708q-122 0 -317 -200q-107 -109 -247 -275q234 147 406 279.5t172 178.5q0 17 -14 17zM5 -353q30 -6 52 -6q80 0 169.5 38.5t147 90.5t57.5 93q0 59 -127 59h-20q-163 -180 -279 -275zM-83 -315l9 6q12 -14 36 -27q105 94 249 250q-102 -16 -215.5 -64t-199 -104
t-142 -113t-56.5 -92q0 -40 73 -40q104 0 278 151q-26 16 -32 33zM-74 434q0 -59 68.5 -59t136 31.5t115 79.5t77 106.5t29.5 111.5q0 19 -5 39q-89 -11 -186 -57t-166 -115.5t-69 -136.5zM292 -69h21q149 0 149 -66q0 -44 -63.5 -99.5t-163 -96t-189.5 -40.5q-32 0 -55 6
q-187 -148 -331 -148q-75 0 -75 50q0 41 51.5 101t134.5 119.5t205 107.5t246 61q92 99 182 200q-271 -156 -340 -156q-20 0 -28 30q-3 12 -3 27q0 51 50.5 118t122.5 132.5t143.5 129.5t122 127t50.5 111.5t-35.5 74.5t-96.5 26q-8 0 -14.5 -0.5t-9.5 -0.5q8 -27 8 -54
q0 -56 -28.5 -114t-77.5 -106t-124 -78.5t-160 -30.5q-39 0 -59.5 19t-20.5 51q0 69 71.5 141.5t173 120.5t195.5 60q-36 114 -223 114q-95 0 -237.5 -63.5t-206.5 -144.5l-9 6q68 85 212 149t245 64t158.5 -33.5t78.5 -89.5q10 1 30 1q67 0 106.5 -29t39.5 -87.5t-34 -121
t-85.5 -115t-113 -108.5t-115.5 -101.5t-93.5 -93.5t-46.5 -85q0 -28 29 -28q63 0 357 174q93 103 156.5 171t147 149t145.5 128t127 79.5t115 32.5q28 0 28 -26q0 -51 -193 -199t-441 -301q-164 -192 -229 -265z" />
    <glyph glyph-name="Z" unicode="Z" horiz-adv-x="781" 
d="M199 66q0 -20 35 -20q73 0 214 133q-101 -1 -175 -40.5t-74 -72.5zM1088 730q61 -8 121.5 -8t118.5 27.5t58 53.5q0 23 -51 23q-110 0 -247 -96zM508 185q136 -17 141 -126q52 60 52 122q0 73 -79 112q-77 -75 -114 -108zM15 -396q0 -26 19 -37.5t43 -11.5q83 0 203.5 77
t219 187t123.5 200q-101 -88 -377 -216q-91 -42 -161 -96t-70 -103zM625 774q-129 0 -220 -67.5t-91 -135.5q0 -32 26 -51t76 -19q95 0 227 69t228 169l-35 7q-25 5 -36 7.5t-33 6.5t-36 6t-33 4q-38 4 -73 4zM509 768q78 20 163 20t221 -25q37 45 55 75l9 -5
q-19 -34 -52 -72q112 -20 147 -26q159 103 292 103q60 0 60 -30q0 -33 -70.5 -67.5t-174.5 -34.5q-59 0 -100 4q-96 -73 -213 -188q-41 -41 -112.5 -114.5t-102.5 -104.5q86 -43 86 -116t-67 -143q-2 -70 -55.5 -158t-133.5 -164t-186.5 -127.5t-204.5 -51.5
q-32 0 -50.5 17.5t-18.5 36.5q0 49 47 95.5t123 87t157 78.5q217 100 299 177q3 17 3 31q0 96 -132 110q-167 -145 -274 -145q-37 0 -37 27q0 41 75.5 85t195.5 45q37 35 122 122q-62 18 -143.5 18t-162 -30t-135.5 -75.5t-88.5 -98t-33.5 -102t34 -75t104 -25.5t173 45
t172 112l7 -8q-52 -55 -166.5 -107.5t-204.5 -52.5q-134 0 -134 126q0 49 30 101t85 97t145 74t178 29t150 -18q93 96 141 144t133.5 124.5t155.5 125.5q-65 8 -137 23q-93 -98 -224 -172t-250 -74q-59 0 -90.5 24.5t-31.5 60.5t25.5 72t72 68t124.5 52z" />
    <glyph glyph-name="bracketleft" unicode="[" horiz-adv-x="353" 
d="M50 -61l450 881q10 0 39 -5.5t39 -9.5l-5 -16q-6 1 -59 1l-433 -840q37 -37 42 -41l-7 -15q-11 4 -35.5 21t-30.5 24z" />
    <glyph glyph-name="backslash" unicode="\" horiz-adv-x="190" 
d="M48 977l57 -1197l-24 5l-58 1192h25z" />
    <glyph glyph-name="bracketright" unicode="]" horiz-adv-x="321" 
d="M545 775l-450 -881q-10 0 -39 5.5t-39 9.5l5 16q6 -1 59 -1l433 840q-37 37 -42 41l7 15q11 -4 35.5 -21t30.5 -24z" />
    <glyph glyph-name="asciicircum" unicode="^" horiz-adv-x="354" 
d="M263 63l-11 -6l-49 69l-134 -54l-12 9l149 71q13 0 16 -5z" />
    <glyph glyph-name="underscore" unicode="_" horiz-adv-x="507" 
d="M434 -16l-10 -16h-468l12 16h466z" />
    <glyph glyph-name="grave" unicode="`" horiz-adv-x="500" 
d="M371 213l-138 57q-16 5 -16 16.5t7 11.5t66.5 -30t84.5 -45z" />
    <glyph glyph-name="a" unicode="a" horiz-adv-x="359" 
d="M-7 -2q38 0 101.5 38.5t106 74.5t42.5 42t-14.5 10t-39.5 4t-66 -19.5t-71 -46.5t-50 -53t-20 -38t11 -12zM261 166q20 16 22 16q27 -3 28 -4.5t1 -3.5t-8 -12.5t-47 -49.5q-97 -95 -97 -115q0 -8 7 -8q48 0 180 91l2 -15q-133 -87 -188 -87q-27 0 -27 25.5t31 66.5
q-118 -87 -184 -88q-24 0 -24 29q0 52 66.5 111t175.5 59q36 0 62 -15z" />
    <glyph glyph-name="b" unicode="b" horiz-adv-x="291" 
d="M577 577q-50 0 -234 -161t-298 -296q133 91 335 256.5t202 197.5q0 3 -5 3zM-9 -5q44 0 168 99q12 33 38 61t53 28q10 0 10 -7q0 -23 -82 -89q-3 -11 -3 -18q0 -33 24 -33q29 0 93 43l2 -14q-72 -50 -106.5 -50t-34.5 50v3q-117 -89 -171 -89q-31 0 -31 25
q0 55 128.5 198.5t284 265.5t220.5 122q12 0 12 -9q0 -24 -48.5 -75.5t-130.5 -117.5t-153 -120t-154 -114.5t-95 -70.5q-40 -53 -40 -75q0 -13 16 -13z" />
    <glyph glyph-name="c" unicode="c" horiz-adv-x="254" 
d="M-1 21q0 -26 37.5 -26t96.5 24.5t109 60.5l2 -15q-52 -38 -116.5 -63t-109.5 -25q-60 0 -60 44q0 48 75 106.5t145 58.5q34 0 34 -25q0 -17 -12.5 -32t-31.5 -15t-19 10t11 18t24.5 8.5t13.5 9.5q0 5 -6 9.5t-15 4.5q-48 0 -113 -57.5t-65 -95.5z" />
    <glyph glyph-name="d" unicode="d" horiz-adv-x="359" 
d="M-7 -2q35 0 97 36.5t107.5 74t45.5 44t-14.5 10.5t-39.5 4t-66 -19.5t-71 -46.5t-50 -53t-20 -38t11 -12zM406 263.5q-56 -55.5 -88.5 -89t-54 -54.5t-36.5 -36.5t-32 -33.5t-26 -31.5t-9 -21.5t7 -8q48 0 180 91l2 -15q-133 -87 -188 -87q-27 0 -27 25q0 27 32 67
q-118 -87 -185 -88q-24 0 -24 29q0 52 66.5 111t175.5 59q37 0 63 -15q5 4 12 11l418 405q6 6 24 6t18 -11q0 -4 -4.5 -8.5t-29.5 -26.5t-48.5 -43.5t-65.5 -60.5t-83 -79t-97 -95.5z" />
    <glyph glyph-name="e" unicode="e" horiz-adv-x="238" 
d="M193 168q0 8 -16 8t-65 -30.5t-83 -65.5q67 11 115.5 40.5t48.5 47.5zM-3 27q0 -29 40 -29q76 0 189 82l2 -15q-118 -83 -202 -83q-60 0 -60 50t74.5 104t153.5 54q25 0 25 -15q0 -24 -55.5 -57.5t-145.5 -49.5q-21 -24 -21 -41z" />
    <glyph glyph-name="f" unicode="f" horiz-adv-x="231" 
d="M-343 -377q0 -11 12 -11q35 0 102 76t127 173t81 161q-3 4 -3 10q-139 -148 -229 -262t-90 -147zM575 549q0 7 -10 7q-41 0 -190.5 -132.5t-329.5 -318.5q150 96 340 253t190 191zM1 36q7 -32 47 -32q59 0 170 76l2 -15q-110 -74 -182 -74q-33 0 -49 16
q-35 -80 -91 -170.5t-124.5 -164t-115.5 -73.5q-28 0 -28 24q0 54 127 211.5t288.5 320t318 290t208.5 127.5q23 0 23 -15q0 -34 -110.5 -134t-247 -200.5t-225.5 -152.5l-1 -1q-2 -9 -10 -33z" />
    <glyph glyph-name="g" unicode="g" horiz-adv-x="321" 
d="M-9 2q35 0 95.5 35.5t104.5 72t44 43t-14.5 10.5t-28.5 4q-41 0 -92.5 -32t-85 -69t-33.5 -55q0 -9 10 -9zM-349 -317.5q-12 -19.5 -12 -41.5t22 -22q54 0 317 268q-177 -85 -219.5 -114t-69 -50t-38.5 -40.5zM254 166q16 16 21.5 16t17 -3t11.5 -6.5t-8 -10.5t-209 -208
q132 66 222 126l2 -15q-45 -26 -64 -39q-54 -33 -188 -100q-145 -146 -249.5 -233.5t-155.5 -87.5q-29 0 -29 33t30 67.5t89 70.5q93 56 249 132q7 3 11 5q17 17 54.5 57t49.5 52l18 18q13 14 23 23q-111 -76 -170 -77q-23 0 -23 27q0 51 65.5 109.5t169.5 58.5q35 0 63 -15
z" />
    <glyph glyph-name="h" unicode="h" horiz-adv-x="329" 
d="M564 549q0 7 -10 7q-40 0 -197.5 -143t-282.5 -277q144 93 317 237t173 176zM134 6q0 -13 13.5 -13t40.5 12t48 24.5t50.5 31t31.5 19.5l2 -15q-135 -90 -189 -90q-26 0 -26 26t32.5 57.5t65 56.5t32.5 36q0 4 -7 4q-23 0 -125 -57.5t-133 -84.5l-36 -30q-4 -4 -20 -4
t-16 6q0 3 4 8q105 118 235 247t254.5 230.5t169.5 101.5q24 0 24 -15q0 -32 -100.5 -123.5t-225.5 -183.5t-215 -146q-35 -40 -40 -51q4 0 6 1q64 45 133 80t87 35t24.5 -7t6.5 -15q0 -24 -31.5 -54t-63.5 -54t-32 -33z" />
    <glyph glyph-name="i" unicode="i" horiz-adv-x="168" 
d="M176 237q-16 -13 -29.5 -13t-13.5 11t16 25.5t29.5 14.5t13.5 -11q0 -14 -16 -27zM107 156q-135 -122 -135 -153q0 -10 13.5 -10t40.5 12t48 24.5t50.5 31t31.5 19.5l2 -15q-46 -30 -105 -60t-89.5 -30t-30.5 25q0 21 36 63.5t72 74.5l36 32q5 4 19 3t14 -10q0 -4 -3 -7z
" />
    <glyph glyph-name="j" unicode="j" horiz-adv-x="139" 
d="M208 271.5q0 -13.5 -11 -24.5t-27 -11t-16 12t12.5 24.5t27 12.5t14.5 -13.5zM-531 -317.5q-12 -19.5 -12 -41.5t22 -22q54 0 317 268q-177 -85 -219.5 -114t-69 -50t-38.5 -40.5zM-557 -362q0 33 30 67.5t89 70.5q93 56 249 132q7 3 11 5q32 32 114 119q146 150 157 150
q6 0 17.5 -3t11.5 -6.5t-16 -17.5t-200 -201q83 42 147.5 81t73.5 45l2 -15q-45 -26 -83.5 -50.5t-167.5 -88.5q-147 -147 -251 -234t-155 -87q-29 0 -29 33z" />
    <glyph glyph-name="k" unicode="k" horiz-adv-x="340" 
d="M564 549q0 7 -10 7q-40 0 -197.5 -143t-282.5 -277q144 93 317 237t173 176zM170 79l10 -21q0 -8 -22 -29t-22 -28.5t17.5 -7.5t44.5 12t48 24.5t50.5 31t31.5 19.5l2 -15q-37 -27 -99 -58.5t-97 -31.5t-35 31q0 14 23.5 35.5t23.5 26.5t-5 5q-20 3 -20 15q0 4 3 4h12
q56 0 94 25t38 44q0 7 -7 7q-73 0 -291 -155l-36 -30q-4 -4 -20 -4t-16 6q0 3 4 8q105 118 235 247t254.5 230.5t169.5 101.5q24 0 24 -15q0 -32 -100.5 -123.5t-225.5 -183.5t-215 -146q-34 -39 -39 -49q53 37 85 57.5t84.5 45t89.5 24.5t37 -30t-39.5 -50.5t-77.5 -20.5
q-8 0 -11 0.5t-3 -2.5z" />
    <glyph glyph-name="l" unicode="l" horiz-adv-x="176" 
d="M577 577q-50 0 -234 -161t-298 -296q133 91 335 256.5t202 197.5q0 3 -5 3zM15 83q-40 -53 -40 -71.5t17 -18.5q47 0 172 87l2 -15q-133 -87 -188 -87q-27 0 -27 25q0 55 128.5 198.5t284 266t220.5 122.5q12 0 12 -9q0 -24 -48.5 -75.5t-130.5 -117.5t-153 -120
t-154 -114.5t-95 -70.5z" />
    <glyph glyph-name="m" unicode="m" horiz-adv-x="593" 
d="M83 127q-48 -34 -101 -67l-3 14l95 66q49 35 75 35t26 -22q0 -33 -46 -79l17 10q137 89 171 89t34 -18q0 -20 -32 -63q114 79 183 79q27 0 27 -23t-20 -47.5t-44 -42.5q-64 -46 -64 -58q0 -7 11.5 -7t38.5 12t48 24.5t50.5 31t31.5 19.5l2 -15q-135 -90 -189 -90
q-26 0 -26 25q0 17 21.5 40.5t46.5 43.5q69 52 69 69q0 5 -11 5q-37 0 -110 -40t-162 -130q-6 -6 -25.5 -6t-19.5 9q0 4 35 37q107 101 107 123q0 6 -7 6q-23 0 -100.5 -50.5t-158.5 -117.5q-12 -7 -19 -7q-31 0 -31 7q0 4 27.5 28t74 72.5t46.5 67.5q0 4 -5 4
q-18 0 -63 -34z" />
    <glyph glyph-name="n" unicode="n" horiz-adv-x="423" 
d="M181 157.5q0 -22.5 -32 -65.5q114 79 183 79q27 0 27 -23t-20 -47.5t-44 -42.5q-64 -46 -64 -58q0 -7 11.5 -7t38.5 12t48 24.5t50.5 31t31.5 19.5l2 -15q-135 -90 -189 -90q-26 0 -26 25q0 17 21.5 40.5t46.5 43.5q69 52 69 69q0 5 -11 5q-37 0 -110 -40t-162 -130
q-6 -6 -22.5 -6t-16.5 9q0 3 69 74t69 92q0 5 -6.5 5t-27 -13t-63 -41.5t-72.5 -47.5l-3 14q15 10 41 28t43 29.5t37 24.5q39 24 60 24t21 -22.5z" />
    <glyph glyph-name="o" unicode="o" horiz-adv-x="313" 
d="M12 -8q72 0 140 72v1q0 48 46 90q-3 11 -17 11q-74 0 -131 -55.5t-57 -97.5q0 -21 19 -21zM167 181q53 0 53 -35q0 -30 -37 -72v-8q0 -33 29 -33q18 0 40 15l49 32l2 -15l-46 -29q-32 -21 -62.5 -21t-40.5 31q-80 -71 -152 -71q-43 0 -43 41q0 52 61 108.5t147 56.5z" />
    <glyph glyph-name="p" unicode="p" horiz-adv-x="401" 
d="M280 163q12 0 19 -8t7 -19q0 -22 -35.5 -52t-71 -56.5t-35.5 -40.5q0 -8 13 -8q43 0 131 50q38 21 81 51l2 -15q-34 -22 -76 -45q-24 -15 -70 -34.5t-76 -19.5t-30 27t36.5 60t73 58t36.5 31.5t-17 6.5q-46 0 -140 -58q-45 -27 -148 -122l-244 -234q-77 -75 -84.5 -82.5
t-25 -7.5t-17.5 7q0 14 555 530l-81 -55q-48 -34 -101 -67l-3 14q186 128 262 182q121 112 136 112q8 0 8 -9q0 -14 -101 -91l-195 -189q122 84 191 84z" />
    <glyph glyph-name="q" unicode="q" horiz-adv-x="339" 
d="M-9 2q35 0 95.5 35.5t104.5 72t44 43t-14.5 10.5t-28.5 4q-41 0 -92.5 -32t-85 -69t-33.5 -55q0 -9 10 -9zM-113 -225q-118 -114 -118 -145q0 -9 11 -9q37 0 114 72t145.5 164t88.5 148q-67 -62 -241 -230zM329 65q-111 -73 -163 -73q-15 0 -25 8q-22 -55 -87 -147
t-147.5 -170.5t-134.5 -78.5q-18 0 -18 19.5t30 63t71 84.5t137.5 140.5t131.5 134.5q-89 -59 -145 -60q-23 0 -23 27q0 51 65.5 109.5t169.5 58.5q39 0 65 -17l8 7q10 7 18 7q24 0 24 -12q0 -3 -2 -5q-89 -76 -148 -131v-5q0 -20 17 -20q21 0 67.5 24t86.5 51z" />
    <glyph glyph-name="r" unicode="r" horiz-adv-x="310" 
d="M123 142l47 6q12 0 19 -8t7 -19q0 -22 -31 -48t-61.5 -49t-30.5 -37q0 -8 13 -8q43 0 131 50q38 21 81 51l2 -15q-34 -22 -76 -45q-24 -15 -70 -34.5t-76 -19.5t-30 27q0 31 32 58.5t63.5 46t31.5 28.5q0 3 -7 3l-56 -5q-16 0 -29 3q-48 -34 -101 -67l-3 14l95 66
q1 19 24 38t39 19t16 -8.5t-19 -21.5t-19 -19t8 -6z" />
    <glyph glyph-name="s" unicode="s" horiz-adv-x="252" 
d="M150 201q4 6 9.5 6t5.5 -6t-6 -12t-8.5 -36.5t-15.5 -74t-45 -78.5q0 -2 4 -2q7 0 51 24l14 7q38 21 81 51l2 -15q-156 -101 -239 -101q-33 0 -48.5 14t-15.5 31t8 27.5t20 10.5q15 0 15 -16q0 -10 -16 -18q-5 -3 -5 -10t11.5 -16.5t24.5 -9.5q44 0 75.5 55.5t40.5 110.5
v3q-97 -66 -131 -86l-3 14q163 105 171 127z" />
    <glyph glyph-name="t" unicode="t" horiz-adv-x="172" 
d="M443 486q0 -4 -11 -14.5t-39.5 -37t-68.5 -63.5t-67 -62h167q3 0 3 -4q0 -12 -9 -12h-178q-258 -244 -258 -289q0 -11 14 -11q24 0 140 73q20 12 24 14l2 -15q-136 -90 -193 -90q-30 0 -30 22q0 31 47 84q62 74 207 211h-172q-14 0 -14 8.5t8 8.5h195l200 184q5 4 19 3
t14 -10z" />
    <glyph glyph-name="u" unicode="u" horiz-adv-x="355" 
d="M88 177q5 4 27 2q11 -2 11 -4.5t-5 -8.5t-48 -48q-89 -87 -89 -109q0 -5 6 -5q34 0 247 144l27 22q5 4 19 3t14 -10q0 -4 -3 -7q-140 -126 -140 -152q0 -11 16 -11t43 12t48 24.5t50.5 31t31.5 19.5l2 -15q-46 -30 -105 -60t-89.5 -30t-30.5 25q0 35 54 91
q-157 -102 -194 -102q-22 0 -22 26q0 55 130 162z" />
    <glyph glyph-name="v" unicode="v" horiz-adv-x="387" 
d="M258 69q0 -33 24 -33q28 0 93 43l2 -14q-72 -50 -106.5 -50t-34.5 50v2q-124 -88 -171 -88q-31 0 -31 25q0 34 90 107q29 24 29 31.5t-8 7.5q-24 0 -163 -90l-3 14q137 90 176 90q26 0 26 -29q0 -31 -90 -103q-30 -24 -30 -32q0 -5 13 -5q48 0 168 94q15 37 53.5 75
t66.5 38q10 0 10 -6q0 -12 -32 -43.5t-80 -67.5q-2 -6 -2 -16z" />
    <glyph glyph-name="w" unicode="w" horiz-adv-x="547" 
d="M93 34q-32 -26 -32 -32.5t6 -6.5q30 0 204 115l55 51q5 4 19 3t14 -10q0 -4 -3 -7q-130 -117 -130 -146q0 -6 8 -6q48 0 168 94q15 37 53.5 75t66.5 38q10 0 10 -6q0 -12 -32 -43.5t-80 -67.5q-2 -6 -2 -16q0 -33 24 -33q28 0 93 43l2 -14q-72 -50 -106.5 -50t-34.5 50v2
q-124 -88 -171 -88q-28 0 -28 24.5t38 67.5q-142 -91 -180 -91q-21 0 -21 23t32 55.5t63.5 58.5t31.5 34t-9.5 8t-69 -35t-100.5 -64l-3 14q8 5 27.5 18t30.5 20t29 17.5t29.5 17t24.5 13.5q26 12 43 12q26 0 26 -29q0 -31 -96 -109z" />
    <glyph glyph-name="x" unicode="x" horiz-adv-x="355" 
d="M305 149q-53 0 -114 -47.5t-61 -80.5q0 -23 37 -23q50 0 176 82l2 -15q-54 -38 -108 -61.5t-90 -23.5q-49 0 -49 45q0 6 1 9q-88 -61 -161 -61q-28 0 -28 19q0 16 19 16q5 0 10.5 -11t11.5 -11q52 0 132.5 61.5t80.5 93.5q0 14 -14 14q-20 0 -50 -18.5t-44 -27t-40.5 -27
t-33.5 -22.5l-3 14q145 98 181.5 98t36.5 -22q0 -9 -6 -21q65 36 132 36q18 0 18 -12q0 -6 -5.5 -11.5t-13 -5.5t-11 3.5t-4.5 6.5t-2 3z" />
    <glyph glyph-name="y" unicode="y" horiz-adv-x="391" 
d="M-279 -317.5q-12 -19.5 -12 -41.5t22 -22q54 0 317 268q-177 -85 -219.5 -114t-69 -50t-38.5 -40.5zM-305 -362q0 33 30 67.5t89 70.5q93 56 249 132q7 3 11 5q17 17 54.5 57t65.5 68q-90 -59 -125 -59t-35 25q0 34 90 107q29 24 29 31.5t-8 7.5q-17 0 -56.5 -24
t-49.5 -30t-29.5 -18.5t-27.5 -17.5l-3 14q137 90 176 90q26 0 26 -29q0 -31 -90 -103q-30 -24 -30 -32q0 -5 13 -5q30 0 92 39.5t104 78.5q61 57 66.5 57t17 -3t11.5 -6.5t-14 -16t-190 -188.5q98 50 153.5 84t64.5 40l2 -15q-45 -26 -64 -39q-70 -43 -184 -98
q-148 -148 -252.5 -235.5t-156.5 -87.5q-29 0 -29 33z" />
    <glyph glyph-name="z" unicode="z" horiz-adv-x="342" 
d="M156 40q0 3 -9 3q-36 0 -101 -33l-57 -32q-3 -2 -15.5 -2t-12.5 1.5t1 2.5l215 150q-30 -5 -34 -5q-24 0 -36 18q-72 -50 -125 -83l-3 14l119 82q1 19 19 34.5t34 15.5t16 -9t-19 -22t-19 -18q0 -13 25 -13q50 0 129 52q7 0 7 -7t-6 -13l-206 -143q51 26 83.5 26
t32.5 -13q0 -8 -20.5 -23.5t-20.5 -25.5q0 -7 15 -7t69.5 32t92.5 58l2 -15q-53 -36 -107 -62t-78 -26t-24 14q0 12 25 40z" />
    <glyph glyph-name="braceleft" unicode="{" horiz-adv-x="253" 
d="M244 359q16 -19 16 -50t-27 -83.5t-59 -98.5q-86 -124 -86 -177q0 -36 35 -49l-11 -14q-51 14 -51 62q0 36 40.5 103.5t81 137t40.5 109t-36 58.5l17 33q6 -1 16 -1q45 0 81.5 43.5t62 106t50.5 125.5q58 149 125 149q20 0 39 -8l-5 -16q-12 2 -17 2q-66 0 -122 -137
q-24 -59 -48.5 -119.5t-61 -110.5t-80.5 -65z" />
    <glyph glyph-name="bar" unicode="|" horiz-adv-x="241" 
d="M388 949l-365 -1140l-24 6l365 1135z" />
    <glyph glyph-name="braceright" unicode="}" horiz-adv-x="424" 
d="M369 340q-15 19 -15 50.5t27 84t59 98.5q86 124 86 177q0 36 -35 49l11 14q51 -14 51 -62q0 -36 -40.5 -103.5t-81 -137t-40.5 -109t36 -58.5l-17 -33q-6 1 -16 1q-45 0 -81.5 -43.5t-62 -106t-50.5 -125.5q-58 -149 -125 -149q-20 0 -39 8l5 16q12 -2 17 -2
q65 0 121 137q24 58 48.5 118.5t61 110.5t80.5 65z" />
    <glyph glyph-name="asciitilde" unicode="~" horiz-adv-x="289" 
d="M265 115l9 -6q-22 -38 -64 -38q-22 0 -54 18.5t-53 18.5t-53 -28l-5 5q33 42 80 42q25 0 59 -16t49.5 -16t31.5 20z" />
    <glyph glyph-name="uni007F" 
 />
    <glyph glyph-name="exclamdown" unicode="&#xa1;" horiz-adv-x="280" 
d="M284 177q0 -11 -18 -27t-32.5 -16t-14.5 13q0 15 18 29.5t32.5 14.5t14.5 -14zM-159 -350l359 454q1 0 8 -6l-347 -486q-20 4 -20 38z" />
    <glyph glyph-name="cent" unicode="&#xa2;" horiz-adv-x="305" 
d="M93 146l-84 -100l-9 5l80 98q-29 10 -29 40q0 46 71.5 103.5t140.5 61.5l103 118l10 -9l-93 -110q22 -5 22 -23t-12.5 -33t-31.5 -15t-19 10t11 18t24.5 8.5t13.5 9.5q0 5 -6 9.5t-15 4.5q-48 0 -113 -57.5t-65 -95.5q0 -11 6 -17l37 45l12 -6l-38 -45q9 -3 21 -3
q37 0 96 24.5t109 60.5l2 -15q-52 -38 -116.5 -63t-109.5 -25q-13 0 -18 1z" />
    <glyph glyph-name="sterling" unicode="&#xa3;" horiz-adv-x="758" 
d="M226 23q-162 43 -192 43t-43.5 -10.5t-13.5 -28t22 -33.5t61 -16q83 0 166 45zM403 -2q90 -18 135.5 -18t78 16.5t32.5 34t-19 27.5t-55 10q-126 0 -172 -70zM777 437q0 35 -41 35q-28 0 -49.5 -17.5t-33.5 -28.5t-31.5 -34.5t-30.5 -37.5t-34.5 -44t-35.5 -45
q94 20 175 73t81 99zM269 29l111 -27q47 78 201 78q47 0 74 -14t27 -34q0 -25 -41.5 -43.5t-105 -18.5t-140.5 14q-7 -15 -7 -34q0 -41 38.5 -70t106.5 -29l3 -5l-18 -1q-68 0 -109.5 33t-41.5 78q0 16 6 32q-28 5 -125 29q-94 -47 -195 -47q-48 0 -78 18.5t-30 39.5t23 34
t68.5 13t209.5 -40q76 48 155 139h-141l12 14h141q17 19 49 59h-5q-65 0 -104 31t-39 98q0 83 67.5 153t173.5 70l-2 -11q-93 0 -159.5 -70.5t-66.5 -148.5q0 -58 34.5 -84.5t91.5 -26.5h18q106 134 129 152.5t48 37.5q44 34 94 34q61 0 61 -43q0 -52 -95 -111.5t-199 -76.5
q-34 -42 -53 -63h122l-10 -14h-124q-89 -97 -175 -145z" />
    <glyph glyph-name="currency" unicode="&#xa4;" horiz-adv-x="392" 
d="M226 282q-27 0 -45.5 -28t-18.5 -57.5t13.5 -46.5t40.5 -17t45.5 28t18.5 57.5t-13.5 46.5t-40.5 17zM269 137q-22 -20 -58 -20t-56 31l-57 -43l-8 14l57 44q-7 15 -7 36q0 48 31 77l-38 55l14 8l37 -53q21 12 42 12q44 0 65 -40l56 41l8 -14l-58 -43q3 -14 3 -27
q0 -38 -20 -66l39 -51l-14 -8z" />
    <glyph glyph-name="yen" unicode="&#xa5;" horiz-adv-x="279" 
d="M353 263l-10 -14h-131q-9 -12 -29 -36h149l-10 -14h-150q-10 -21 -58 -92q-68 -101 -76 -114q-12 -12 -22.5 -12t-16 6t-5.5 14q3 4 10 13q88 99 146 185h-106l12 14h104l10 15q8 12 12 21h-117l12 14h113q74 131 74 250q0 13 -2 37l29 12q1 -12 1 -21q0 -120 -80 -272
q79 93 156.5 163t137.5 107q118 72 184 72q46 0 46 -29q0 -17 -13.5 -37.5t-29 -20.5t-15.5 12.5t16.5 26.5t16.5 22q0 17 -28 17t-70 -17t-100 -53.5t-134 -106t-155 -162.5h129z" />
    <glyph glyph-name="brokenbar" unicode="&#xa6;" horiz-adv-x="241" 
d="M388 949l-150 -467h-25l151 468zM23 -191l-24 6l165 514h25z" />
    <glyph glyph-name="section" unicode="&#xa7;" horiz-adv-x="415" 
d="M261 354q18 1 38 6q-4 16 -4 36v9q-23 -25 -34 -51zM254 321q0 -32 26.5 -100t26.5 -101q0 -6 -2 -16q48 39 48 90q0 36 -21.5 84t-26.5 65q-26 -5 -50 -6q-1 -6 -1 -16zM557 517q0 30 -59 30t-106.5 -46t-47.5 -90q0 -17 5 -40q85 24 146.5 66t61.5 80zM78 80l-15 -2
q0 12 -6.5 18.5t-18 6.5t-21 -11.5t-9.5 -33.5q0 -44 25 -66t65 -22q59 0 112 39.5t53 94.5q0 34 -29 101.5t-29 92.5t4 38q-70 4 -112 36.5t-42 96.5q0 79 67 148.5t162 69.5l-4 -12q-87 0 -146 -63t-59 -130q0 -125 141 -129q23 50 87 83q21 50 80.5 84.5t111.5 34.5
q86 0 86 -42q0 -45 -67 -90.5t-159 -69.5q5 -15 17 -45q25 -64 25 -99t-27.5 -68.5t-71.5 -58.5q-21 -50 -85.5 -87t-118.5 -37q-110 0 -110 101q0 31 15 46.5t34 15.5t32 -11.5t13 -29.5z" />
    <glyph glyph-name="dieresis" unicode="&#xa8;" horiz-adv-x="168" 
d="M208 237q-16 -13 -29.5 -13t-13.5 11t16 25.5t29.5 14.5t13.5 -11q0 -14 -16 -27zM120 237q-16 -13 -29.5 -13t-13.5 11t16 25.5t29.5 14.5t13.5 -11q0 -14 -16 -27z" />
    <glyph glyph-name="copyright" unicode="&#xa9;" horiz-adv-x="479" 
d="M144 126q0 -26 37.5 -26t96.5 24.5t109 60.5l2 -15q-52 -38 -116.5 -63t-109.5 -25q-60 0 -60 44q0 48 75 106.5t145 58.5q34 0 34 -25q0 -17 -12.5 -32t-31.5 -15t-19 10t11 18t24.5 8.5t13.5 9.5q0 5 -6 9.5t-15 4.5q-48 0 -113 -57.5t-65 -95.5zM267 371
q-94 0 -150 -64.5t-56 -139t41.5 -121t118.5 -46.5q94 0 150 64.5t56 139t-41.5 121t-118.5 46.5zM207 -21q-83 0 -125.5 47t-42.5 118q0 94 67 171t175 77q83 0 125.5 -47t42.5 -118q0 -94 -67 -171t-175 -77z" />
    <glyph glyph-name="ordfeminine" unicode="&#xaa;" horiz-adv-x="359" 
d="M175 298q30 0 80 30.5t85 60t35 34t-11.5 8t-23.5 3.5q-55 0 -114.5 -50.5t-59.5 -77.5q0 -8 9 -8zM390 433q13 13 17 13q23 0 23 -8q-5 -10 -40.5 -44.5t-58.5 -59.5t-23 -34t6 -9q39 0 144 73l2 -12q-112 -70 -151 -70q-21 0 -21 20.5t25 52.5q-97 -69 -148 -69
q-19 0 -19 23q0 42 53 89t141 47q30 0 50 -12z" />
    <glyph glyph-name="guillemotleft" unicode="&#xab;" horiz-adv-x="409" 
d="M294 18l-6 -9l-156 75q-6 3 -6 7.5t8 6.5l221 77l-2 -12l-177 -79zM175 19l-6 -9l-155 81q-6 3 -6 7.5t8 6.5l218 69l-2 -12l-174 -71z" />
    <glyph glyph-name="logicalnot" unicode="&#xac;" horiz-adv-x="411" 
d="M88 223h306l-58 -146l-18 -6l54 136h-296z" />
    <glyph glyph-name="uni00AD" unicode="&#xad;" horiz-adv-x="321" 
d="M40 229v78h242v-78h-242z" />
    <glyph glyph-name="registered" unicode="&#xae;" horiz-adv-x="479" 
d="M249 247l47 6q12 0 19 -8t7 -19q0 -22 -31 -48t-61.5 -49t-30.5 -37q0 -8 13 -8q61 0 213 100q2 18 2 27q0 67 -41.5 113.5t-118.5 46.5q-94 0 -150 -64.5t-56 -139t41.5 -121t120 -46.5t131.5 48t68 117q-16 -9 -56 -32q-108 -62 -161 -62q-31 0 -31 27q0 31 32 58.5
t63.5 46t31.5 28.5q0 3 -7 3l-56 -5q-16 0 -29 3q-48 -34 -101 -67l-3 14l95 66q1 19 24 38t39 19t16 -9t-19 -22t-19 -18.5t8 -5.5zM207 -21q-83 0 -125.5 47t-42.5 118q0 94 67 171t175 77q83 0 125.5 -47t42.5 -118q0 -94 -67 -171t-175 -77z" />
    <glyph glyph-name="macron" unicode="&#xaf;" horiz-adv-x="359" 
d="M362 247l-10 -16h-268l12 16h266z" />
    <glyph glyph-name="degree" unicode="&#xb0;" horiz-adv-x="221" 
d="M240 490q0 21 -22.5 21t-37.5 -16t-15 -32q0 -21 22.5 -21t37.5 16t15 32zM167 504.5q21 21.5 55.5 21.5t34.5 -32q0 -23 -21.5 -45t-50.5 -22q-39 0 -39 32q0 24 21 45.5z" />
    <glyph glyph-name="plusminus" unicode="&#xb1;" horiz-adv-x="411" 
d="M397 256l-10 -16h-128l-39 -98l-18 -6l42 104h-135l12 16h129l39 95l19 8l-42 -103h131zM318 72l-10 -16h-278l12 16h276z" />
    <glyph glyph-name="twosuperior" unicode="&#xb2;" horiz-adv-x="424" 
d="M267 224q36 -15 64 -15q46 0 46 20t-38.5 20t-71.5 -25zM194 233q-42 18 -70 18t-43 -12t-15 -25q0 -17 35 -17t93 36zM287.5 474q-26.5 -26 -26.5 -49t19 -23q23 0 49.5 25t26.5 56q0 14 -8 28q-34 -11 -60.5 -37zM357 513q11 -17 11 -45t-28.5 -51.5t-61 -23.5
t-32.5 32q0 29 27.5 56.5t68.5 38.5q-30 36 -85 40l7 6q60 -7 87 -44q20 5 38 5q60 0 60 -41q0 -47 -67.5 -121.5t-152.5 -124.5q11 -6 26 -11q37 30 89.5 30t52.5 -27q0 -15 -18 -26t-56 -11t-73 11q-17 -20 -17 -36q0 -45 74 -45q22 0 36 6l1 -9q-12 -6 -45 -6t-55.5 15.5
t-22.5 38t18 42.5q-21 7 -31 13q-70 -39 -120 -39q-18 0 -28 8t-10 23t21 30t61.5 15t78.5 -15q70 46 140 123.5t70 118.5q0 28 -39 28q-7 0 -25 -4z" />
    <glyph glyph-name="threesuperior" unicode="&#xb3;" horiz-adv-x="372" 
d="M240.5 376.5q-14.5 -8.5 -14.5 -16t25 -7.5t59 24q-12 8 -33.5 8t-36 -8.5zM226 443q0 -19 24.5 -19t56 26.5t33.5 63.5q-5 1 -13 1q-42 0 -71.5 -24t-29.5 -48zM227.5 383.5q19.5 10.5 48 10.5t47.5 -8q20 15 42.5 43.5t22.5 51.5t-32 31q-3 -40 -38.5 -68t-72 -28
t-36.5 24q0 37 40.5 60.5t84.5 23.5h6q-2 49 -88 49l1 7q49 0 75.5 -16.5t27.5 -42.5q60 -6 60 -43q0 -23 -22.5 -51t-56.5 -49q15 -22 15 -44q0 -57 -75.5 -103.5t-160.5 -46.5q-28 0 -28 19q0 11 10.5 23.5t19.5 12.5t9 -6q0 -8 -11.5 -16.5t-11.5 -14.5q0 -10 18 -10
q72 0 138 50t66 105q0 13 -4 22q-41 -22 -77.5 -22t-36.5 15q0 11 19.5 21.5z" />
    <glyph glyph-name="acute" unicode="&#xb4;" horiz-adv-x="500" 
d="M359 270l-138 -57l-4 10q25 15 84.5 45t66.5 30t7 -11.5t-16 -16.5z" />
    <glyph glyph-name="mu" unicode="&#xb5;" horiz-adv-x="355" 
d="M-189 -82.5q190 182.5 234 223t52.5 40t18.5 -2t10 -4t-5 -8.5t-48 -48q-89 -87 -89 -109q0 -5 6 -5q34 0 247 144l27 22q5 4 19 3t14 -10q0 -4 -3 -7q-140 -126 -140 -152q0 -11 16 -11t43 12t48 24.5t50.5 31t31.5 19.5l2 -15q-46 -30 -105 -60t-89.5 -30t-30.5 25
q0 35 54 91q-157 -102 -194 -102q-21 0 -22 25l-210 -202q-77 -75 -84.5 -82.5t-25 -7.5t-17.5 6.5t190 189z" />
    <glyph glyph-name="paragraph" unicode="&#xb6;" horiz-adv-x="251" 
d="M453 598l21 -15q-33 -38 -92 -38h-6q-47 -81 -101 -179t-132.5 -264t-98.5 -252l-38 -19q53 162 149.5 352.5t204.5 362.5q-22 3 -62.5 19.5t-61.5 16.5q-40 0 -84 -28l-8 5q45 33 91 33q25 0 70 -13.5t68 -13.5q42 0 80 33zM230 570q27 0 61 -12.5t46 -16.5
q-79 -122 -160 -265q-162 -287 -196 -455l-52 -21q58 177 209 446q71 125 88 159q-33 -28 -76 -51t-73 -23q-39 0 -39 44q0 56 66 125.5t126 69.5z" />
    <glyph glyph-name="periodcentered" unicode="&#xb7;" horiz-adv-x="163" 
d="M33 79q0 11 18 27t32.5 16t14.5 -13q0 -15 -18 -29.5t-32.5 -14.5t-14.5 14z" />
    <glyph glyph-name="cedilla" unicode="&#xb8;" horiz-adv-x="254" 
d="M-18 -55l24 39l15 -1l-25 -33q14 3 27 3q58 0 58 -27q0 -18 -26.5 -34.5t-61.5 -16.5t-66 17l7 7q30 -13 56.5 -13t41.5 9.5t15 20.5t-11 18t-22 7t-29 -3z" />
    <glyph glyph-name="onesuperior" unicode="&#xb9;" horiz-adv-x="299" 
d="M388 541q0 2 -2.5 2t-11.5 -10q-3 0 -39 -50q53 45 53 58zM358 541q21 21 35 21t14 -13q0 -36 -96 -100q-174 -243 -184 -258q-8 -8 -14.5 -8t-13.5 4.5t-7 8.5q50 59 175 227q-57 -39 -106 -47v17q59 12 132 64q35 48 65 84z" />
    <glyph glyph-name="ordmasculine" unicode="&#xba;" horiz-adv-x="313" 
d="M191 299q58 0 112 58q0 39 37 73q-3 8 -14 8q-59 0 -104.5 -44t-45.5 -78q0 -17 15 -17zM315 450q42 0 42 -28q0 -23 -30 -58v-6q0 -26 24 -26q15 0 32 11l39 26l1 -12l-36 -23q-27 -17 -51 -17t-31 25q-64 -57 -122 -57q-35 0 -35 33q0 42 49 87t118 45z" />
    <glyph glyph-name="guillemotright" unicode="&#xbb;" horiz-adv-x="388" 
d="M45 166l6 9l156 -75q6 -3 6 -7.5t-8 -6.5l-221 -77l2 12l177 79zM164 165l6 9l155 -81q6 -3 6 -7.5t-8 -6.5l-218 -69l2 12l174 71z" />
    <glyph glyph-name="onequarter" unicode="&#xbc;" horiz-adv-x="573" 
d="M388 541q0 2 -2.5 2t-11.5 -10q-3 0 -39 -50q53 45 53 58zM358 541q21 21 35 21t14 -13q0 -36 -96 -100q-174 -243 -184 -258q-8 -8 -14.5 -8t-13.5 4.5t-7 8.5q50 59 175 227q-57 -39 -106 -47v17q59 12 132 64q35 48 65 84zM519 114q10 0 10 -5t-7 -10q-16 -13 -55 -21
q23 36 52 36zM522 255q-24 -32 -144 -184q-80 0 -80 11q53 47 77 70t63 66q71 75 94 165h-15q-11 -46 -46.5 -97t-79.5 -92q-71 -65 -121 -99q-16 -11 -16 -20t39 -13t63 -4h11q-28 -37 -53 -65q0 -5 8 -9t15.5 -4t15.5 7q23 37 48 72q18 1 41 6q-3 -18 -3 -19q0 -26 29 -26
t49 11l-1 6q-22 -9 -38 -9q-21 0 -21 19q0 9 5 22q36 7 62 21t26 23.5t-22.5 9.5t-46 -14.5t-33.5 -33.5q-19 -3 -38 -4q126 175 131 175zM98 -29l419 644l22 -12l-418 -640z" />
    <glyph glyph-name="onehalf" unicode="&#xbd;" horiz-adv-x="692" 
d="M388 541q0 2 -2.5 2t-11.5 -10q-3 0 -39 -50q53 45 53 58zM358 541q21 21 35 21t14 -13q0 -36 -96 -100q-174 -243 -184 -258q-8 -8 -14.5 -8t-13.5 4.5t-7 8.5q50 59 175 227q-57 -39 -106 -47v17q59 12 132 64q35 48 65 84zM446 32q36 -15 64 -15q46 0 46 20t-38.5 20
t-71.5 -25zM373 41q-42 18 -70 18t-43 -12t-15 -25q0 -17 34.5 -17t93.5 36zM466.5 282q-26.5 -26 -26.5 -49t19 -23q23 0 49.5 25t26.5 56q0 14 -8 28q-34 -11 -60.5 -37zM98 -29l419 644l22 -12l-418 -640zM536 321q11 -17 11 -45t-28.5 -51.5t-61 -23.5t-32.5 32
q0 29 27.5 56.5t68.5 38.5q-30 36 -85 40l7 6q60 -7 87 -44q20 5 38 5q60 0 60 -41q0 -47 -67.5 -121.5t-152.5 -124.5q11 -6 26 -11q37 30 89.5 30t52.5 -27q0 -15 -18 -26t-56 -11t-73 11q-17 -20 -17 -36q0 -45 74 -45q22 0 36 6l1 -9q-12 -6 -45 -6t-55.5 15.5
t-22.5 38.5t18 42q-21 7 -31 13q-70 -39 -120 -39q-18 0 -28 8t-10 23t21 30t61.5 15t78.5 -15q70 46 140 123.5t70 118.5q0 28 -39 28q-7 0 -25 -4z" />
    <glyph glyph-name="threequarters" unicode="&#xbe;" horiz-adv-x="615" 
d="M272 377q-34 -24 -59 -24t-25 7.5t14.5 16t36 8.5t33.5 -8zM268.5 450.5q-31.5 -26.5 -56 -26.5t-24.5 19q0 24 29.5 48t71.5 24q8 0 13 -1q-2 -37 -33.5 -63.5zM285 386q-19 8 -47.5 8t-48 -10.5t-19.5 -21.5q0 -15 36.5 -15t77.5 22q4 -9 4 -22q0 -55 -66 -105
t-138 -50q-18 0 -18 10q0 6 11.5 14.5t11.5 15.5t-9 7t-19.5 -12.5t-10.5 -23.5q0 -19 28 -19q85 0 160.5 46.5t75.5 103.5q0 22 -15 44q34 21 56.5 49t22.5 51q0 37 -60 43q-1 26 -27.5 42.5t-75.5 16.5l-1 -7q86 0 88 -49h-6q-44 0 -84.5 -23.5t-40.5 -60.5
q0 -24 36.5 -24t72 28t38.5 68q32 -8 32 -31t-22.5 -51.5t-42.5 -43.5zM561 114q10 0 10 -5t-7 -10q-16 -13 -55 -21q23 36 52 36zM564 255q-24 -32 -144 -184q-80 0 -80 11q53 47 77 70t63 66q71 75 94 165h-15q-11 -46 -46.5 -97t-79.5 -92q-71 -65 -121 -99
q-16 -11 -16 -20t39 -13t63 -4h11q-28 -37 -53 -65q0 -5 8 -9t15.5 -4t15.5 7q23 37 48 72q18 1 41 6q-3 -18 -3 -19q0 -26 29 -26t49 11l-1 6q-22 -9 -38 -9q-21 0 -21 19q0 9 5 22q36 7 62 21t26 23.5t-22.5 9.5t-46 -14.5t-33.5 -33.5q-19 -3 -38 -4q126 175 131 175z
M140 -29l419 644l22 -12l-418 -640z" />
    <glyph glyph-name="questiondown" unicode="&#xbf;" horiz-adv-x="290" 
d="M282 171q0 -11 -18 -27t-32.5 -16t-14.5 13q0 15 18 29.5t32.5 14.5t14.5 -14zM-26 -343q0 -32 13 -58q71 20 130.5 73.5t59.5 108.5q0 30 -14.5 45t-38.5 15q-51 0 -100.5 -53t-49.5 -131zM204 99l15 -10q0 -39 -38.5 -83t-93.5 -84.5t-109 -79.5q-132 -96 -132 -157
q0 -94 89 -94q16 0 39 5q-18 32 -18 69q0 86 53 140t112 54q33 0 54 -19.5t21 -56.5q0 -57 -63.5 -114t-140.5 -78q47 -81 195 -81l-7 -7q-149 1 -202 84q-25 -5 -45 -5q-46 0 -73 25t-27 78t35.5 103.5t88 90t105.5 75.5q130 88 142 145z" />
    <glyph glyph-name="Agrave" unicode="&#xc0;" horiz-adv-x="1417" 
d="M1578 802l-138 57q-16 5 -16 16.5t7 11.5t66.5 -30t84.5 -45zM938 120q8 46 42 102q41 -13 77 -33q-32 -17 -119 -69zM1162 43q0 -17 -7 -41q-55 -15 -94 -15q-109 0 -123 93q35 21 146 92q78 -56 78 -129zM426 62q0 64 102.5 124.5t252.5 62.5q-203 -162 -339 -229
q-16 17 -16 42zM823 261l190 161q2 1 75.5 63.5t112.5 93t108 75t121 63.5q9 3 12 3h3q1 0 0 -1q-15 -12 -90.5 -69t-116 -91t-102.5 -91q-120 -108 -178 -221q-63 13 -135 14zM1188 56q0 79 -78 132q97 57 156 57q111 0 111 -63q0 -44 -58.5 -93t-137.5 -78q7 21 7 45z
M808 249q80 -3 141 -19q-28 -63 -31 -122q-103 -62 -180.5 -94.5t-159.5 -32.5t-123 28q151 72 353 240zM640 521l1 -17h14q90 0 173.5 25.5t138.5 63.5t87.5 80.5t32.5 76.5t-28.5 53.5t-84.5 19.5q-85 0 -164 -50t-124.5 -120t-45.5 -132zM803 975l3 -12
q-156 -22 -260.5 -118.5t-104.5 -194.5q0 -58 42 -96.5t126 -47.5q-2 18 -2 28q0 50 28 103.5t76 99t120 75t142.5 29.5t101 -22.5t30.5 -61.5t-33 -84.5t-90 -86.5t-145.5 -68t-187.5 -27h-6q22 -85 147 -85q64 0 153 38t183 116l6 -8q-30 -26 -76 -57.5t-126 -65.5
t-145 -34q-144 0 -172 97q-93 7 -140.5 49t-47.5 105q0 101 106.5 201t271.5 128zM233 127v-11q71 7 126.5 53.5t55.5 92.5q0 30 -28.5 48t-86.5 18q-131 0 -215 -77t-84 -167q0 -62 46 -102t135 -40q122 0 261 62q42 -34 128 -34q174 0 348 99q15 -94 135 -94q41 0 96 15
q-45 -107 -246 -177v-10q106 28 176.5 80t95.5 114q88 29 152 82.5t64 106.5q0 33 -28 52.5t-85 19.5q-86 0 -194 -54q-38 20 -94 36q82 128 247 281t290 224q5 4 5 9q0 10 -11 10q-2 0 -14 -2q-153 -31 -471 -301q-180 -151 -241 -200q-179 -1 -282.5 -61.5t-103.5 -131.5
q0 -30 21 -53q-124 -58 -218.5 -58t-136.5 37t-42 95q0 83 74.5 155t186.5 72q48 0 71.5 -17.5t23.5 -44.5q0 -41 -45.5 -80.5t-111.5 -46.5z" />
    <glyph glyph-name="Aacute" unicode="&#xc1;" horiz-adv-x="1417" 
d="M1509 802l138 57q16 5 16 16.5t-7 11.5t-66.5 -30t-84.5 -45zM938 120q8 46 42 102q41 -13 77 -33q-32 -17 -119 -69zM1162 43q0 -17 -7 -41q-55 -15 -94 -15q-109 0 -123 93q35 21 146 92q78 -56 78 -129zM426 62q0 64 102.5 124.5t252.5 62.5q-203 -162 -339 -229
q-16 17 -16 42zM823 261l190 161q2 1 75.5 63.5t112.5 93t108 75t121 63.5q9 3 12 3h3q1 0 0 -1q-15 -12 -90.5 -69t-116 -91t-102.5 -91q-120 -108 -178 -221q-63 13 -135 14zM1188 56q0 79 -78 132q97 57 156 57q111 0 111 -63q0 -44 -58.5 -93t-137.5 -78q7 21 7 45z
M808 249q80 -3 141 -19q-28 -63 -31 -122q-103 -62 -180.5 -94.5t-159.5 -32.5t-123 28q151 72 353 240zM640 521l1 -17h14q90 0 173.5 25.5t138.5 63.5t87.5 80.5t32.5 76.5t-28.5 53.5t-84.5 19.5q-85 0 -164 -50t-124.5 -120t-45.5 -132zM803 975l3 -12
q-156 -22 -260.5 -118.5t-104.5 -194.5q0 -58 42 -96.5t126 -47.5q-2 18 -2 28q0 50 28 103.5t76 99t120 75t142.5 29.5t101 -22.5t30.5 -61.5t-33 -84.5t-90 -86.5t-145.5 -68t-187.5 -27h-6q22 -85 147 -85q64 0 153 38t183 116l6 -8q-30 -26 -76 -57.5t-126 -65.5
t-145 -34q-144 0 -172 97q-93 7 -140.5 49t-47.5 105q0 101 106.5 201t271.5 128zM233 127v-11q71 7 126.5 53.5t55.5 92.5q0 30 -28.5 48t-86.5 18q-131 0 -215 -77t-84 -167q0 -62 46 -102t135 -40q122 0 261 62q42 -34 128 -34q174 0 348 99q15 -94 135 -94q41 0 96 15
q-45 -107 -246 -177v-10q106 28 176.5 80t95.5 114q88 29 152 82.5t64 106.5q0 33 -28 52.5t-85 19.5q-86 0 -194 -54q-38 20 -94 36q82 128 247 281t290 224q5 4 5 9q0 10 -11 10q-2 0 -14 -2q-153 -31 -471 -301q-180 -151 -241 -200q-179 -1 -282.5 -61.5t-103.5 -131.5
q0 -30 21 -53q-124 -58 -218.5 -58t-136.5 37t-42 95q0 83 74.5 155t186.5 72q48 0 71.5 -17.5t23.5 -44.5q0 -41 -45.5 -80.5t-111.5 -46.5z" />
    <glyph glyph-name="Acircumflex" unicode="&#xc2;" horiz-adv-x="1417" 
d="M1608 791l11 6l-41 84q-2 5 -12 5h-4l-149 -71l12 -9l134 54zM938 120q8 46 42 102q41 -13 77 -33q-32 -17 -119 -69zM1162 43q0 -17 -7 -41q-55 -15 -94 -15q-109 0 -123 93q35 21 146 92q78 -56 78 -129zM426 62q0 64 102.5 124.5t252.5 62.5q-203 -162 -339 -229
q-16 17 -16 42zM823 261l190 161q2 1 75.5 63.5t112.5 93t108 75t121 63.5q9 3 12 3h3q1 0 0 -1q-15 -12 -90.5 -69t-116 -91t-102.5 -91q-120 -108 -178 -221q-63 13 -135 14zM1188 56q0 79 -78 132q97 57 156 57q111 0 111 -63q0 -44 -58.5 -93t-137.5 -78q7 21 7 45z
M808 249q80 -3 141 -19q-28 -63 -31 -122q-103 -62 -180.5 -94.5t-159.5 -32.5t-123 28q151 72 353 240zM640 521l1 -17h14q90 0 173.5 25.5t138.5 63.5t87.5 80.5t32.5 76.5t-28.5 53.5t-84.5 19.5q-85 0 -164 -50t-124.5 -120t-45.5 -132zM803 975l3 -12
q-156 -22 -260.5 -118.5t-104.5 -194.5q0 -58 42 -96.5t126 -47.5q-2 18 -2 28q0 50 28 103.5t76 99t120 75t142.5 29.5t101 -22.5t30.5 -61.5t-33 -84.5t-90 -86.5t-145.5 -68t-187.5 -27h-6q22 -85 147 -85q64 0 153 38t183 116l6 -8q-30 -26 -76 -57.5t-126 -65.5
t-145 -34q-144 0 -172 97q-93 7 -140.5 49t-47.5 105q0 101 106.5 201t271.5 128zM233 127v-11q71 7 126.5 53.5t55.5 92.5q0 30 -28.5 48t-86.5 18q-131 0 -215 -77t-84 -167q0 -62 46 -102t135 -40q122 0 261 62q42 -34 128 -34q174 0 348 99q15 -94 135 -94q41 0 96 15
q-45 -107 -246 -177v-10q106 28 176.5 80t95.5 114q88 29 152 82.5t64 106.5q0 33 -28 52.5t-85 19.5q-86 0 -194 -54q-38 20 -94 36q82 128 247 281t290 224q5 4 5 9q0 10 -11 10q-2 0 -14 -2q-153 -31 -471 -301q-180 -151 -241 -200q-179 -1 -282.5 -61.5t-103.5 -131.5
q0 -30 21 -53q-124 -58 -218.5 -58t-136.5 37t-42 95q0 83 74.5 155t186.5 72q48 0 71.5 -17.5t23.5 -44.5q0 -41 -45.5 -80.5t-111.5 -46.5z" />
    <glyph glyph-name="Atilde" unicode="&#xc3;" horiz-adv-x="1417" 
d="M1623 847l-9 6q-16 -20 -31.5 -20t-49.5 16t-59 16q-47 0 -80 -42l5 -5q32 28 52.5 28t53.5 -18.5t54 -18.5q42 0 64 38zM938 120q8 46 42 102q41 -13 77 -33q-32 -17 -119 -69zM1162 43q0 -17 -7 -41q-55 -15 -94 -15q-109 0 -123 93q35 21 146 92q78 -56 78 -129z
M426 62q0 64 102.5 124.5t252.5 62.5q-203 -162 -339 -229q-16 17 -16 42zM823 261l190 161q2 1 75.5 63.5t112.5 93t108 75t121 63.5q9 3 12 3h3q1 0 0 -1q-15 -12 -90.5 -69t-116 -91t-102.5 -91q-120 -108 -178 -221q-63 13 -135 14zM1188 56q0 79 -78 132q97 57 156 57
q111 0 111 -63q0 -44 -58.5 -93t-137.5 -78q7 21 7 45zM808 249q80 -3 141 -19q-28 -63 -31 -122q-103 -62 -180.5 -94.5t-159.5 -32.5t-123 28q151 72 353 240zM640 521l1 -17h14q90 0 173.5 25.5t138.5 63.5t87.5 80.5t32.5 76.5t-28.5 53.5t-84.5 19.5q-85 0 -164 -50
t-124.5 -120t-45.5 -132zM803 975l3 -12q-156 -22 -260.5 -118.5t-104.5 -194.5q0 -58 42 -96.5t126 -47.5q-2 18 -2 28q0 50 28 103.5t76 99t120 75t142.5 29.5t101 -22.5t30.5 -61.5t-33 -84.5t-90 -86.5t-145.5 -68t-187.5 -27h-6q22 -85 147 -85q64 0 153 38t183 116
l6 -8q-30 -26 -76 -57.5t-126 -65.5t-145 -34q-144 0 -172 97q-93 7 -140.5 49t-47.5 105q0 101 106.5 201t271.5 128zM233 127v-11q71 7 126.5 53.5t55.5 92.5q0 30 -28.5 48t-86.5 18q-131 0 -215 -77t-84 -167q0 -62 46 -102t135 -40q122 0 261 62q42 -34 128 -34
q174 0 348 99q15 -94 135 -94q41 0 96 15q-45 -107 -246 -177v-10q106 28 176.5 80t95.5 114q88 29 152 82.5t64 106.5q0 33 -28 52.5t-85 19.5q-86 0 -194 -54q-38 20 -94 36q82 128 247 281t290 224q5 4 5 9q0 10 -11 10q-2 0 -14 -2q-153 -31 -471 -301
q-180 -151 -241 -200q-179 -1 -282.5 -61.5t-103.5 -131.5q0 -30 21 -53q-124 -58 -218.5 -58t-136.5 37t-42 95q0 83 74.5 155t186.5 72q48 0 71.5 -17.5t23.5 -44.5q0 -41 -45.5 -80.5t-111.5 -46.5z" />
    <glyph glyph-name="Adieresis" unicode="&#xc4;" horiz-adv-x="1417" 
d="M1554 862.5q-16 -14.5 -16 -25.5t13.5 -11t29.5 13t16 27q0 11 -13.5 11t-29.5 -14.5zM1466 862.5q-16 -14.5 -16 -25.5t13.5 -11t29.5 13t16 27q0 11 -13.5 11t-29.5 -14.5zM938 120q8 46 42 102q41 -13 77 -33q-32 -17 -119 -69zM1162 43q0 -17 -7 -41q-55 -15 -94 -15
q-109 0 -123 93q35 21 146 92q78 -56 78 -129zM426 62q0 64 102.5 124.5t252.5 62.5q-203 -162 -339 -229q-16 17 -16 42zM823 261l190 161q2 1 75.5 63.5t112.5 93t108 75t121 63.5q9 3 12 3h3q1 0 0 -1q-15 -12 -90.5 -69t-116 -91t-102.5 -91q-120 -108 -178 -221
q-63 13 -135 14zM1188 56q0 79 -78 132q97 57 156 57q111 0 111 -63q0 -44 -58.5 -93t-137.5 -78q7 21 7 45zM808 249q80 -3 141 -19q-28 -63 -31 -122q-103 -62 -180.5 -94.5t-159.5 -32.5t-123 28q151 72 353 240zM640 521l1 -17h14q90 0 173.5 25.5t138.5 63.5t87.5 80.5
t32.5 76.5t-28.5 53.5t-84.5 19.5q-85 0 -164 -50t-124.5 -120t-45.5 -132zM803 975l3 -12q-156 -22 -260.5 -118.5t-104.5 -194.5q0 -58 42 -96.5t126 -47.5q-2 18 -2 28q0 50 28 103.5t76 99t120 75t142.5 29.5t101 -22.5t30.5 -61.5t-33 -84.5t-90 -86.5t-145.5 -68
t-187.5 -27h-6q22 -85 147 -85q64 0 153 38t183 116l6 -8q-30 -26 -76 -57.5t-126 -65.5t-145 -34q-144 0 -172 97q-93 7 -140.5 49t-47.5 105q0 101 106.5 201t271.5 128zM233 127v-11q71 7 126.5 53.5t55.5 92.5q0 30 -28.5 48t-86.5 18q-131 0 -215 -77t-84 -167
q0 -62 46 -102t135 -40q122 0 261 62q42 -34 128 -34q174 0 348 99q15 -94 135 -94q41 0 96 15q-45 -107 -246 -177v-10q106 28 176.5 80t95.5 114q88 29 152 82.5t64 106.5q0 33 -28 52.5t-85 19.5q-86 0 -194 -54q-38 20 -94 36q82 128 247 281t290 224q5 4 5 9
q0 10 -11 10q-2 0 -14 -2q-153 -31 -471 -301q-180 -151 -241 -200q-179 -1 -282.5 -61.5t-103.5 -131.5q0 -30 21 -53q-124 -58 -218.5 -58t-136.5 37t-42 95q0 83 74.5 155t186.5 72q48 0 71.5 -17.5t23.5 -44.5q0 -41 -45.5 -80.5t-111.5 -46.5z" />
    <glyph glyph-name="Aring" unicode="&#xc5;" horiz-adv-x="1417" 
d="M1516 848q12 13 30.5 13t18.5 -17q0 -14 -12 -27t-30.5 -13t-18.5 17q0 14 12 27zM1580 847q0 27 -29 27t-46.5 -18t-17.5 -38q0 -27 29 -27t46.5 18t17.5 38zM938 120q8 46 42 102q41 -13 77 -33q-32 -17 -119 -69zM1162 43q0 -17 -7 -41q-55 -15 -94 -15
q-109 0 -123 93q35 21 146 92q78 -56 78 -129zM426 62q0 64 102.5 124.5t252.5 62.5q-203 -162 -339 -229q-16 17 -16 42zM823 261l190 161q2 1 75.5 63.5t112.5 93t108 75t121 63.5q9 3 12 3h3q1 0 0 -1q-15 -12 -90.5 -69t-116 -91t-102.5 -91q-120 -108 -178 -221
q-63 13 -135 14zM1188 56q0 79 -78 132q97 57 156 57q111 0 111 -63q0 -44 -58.5 -93t-137.5 -78q7 21 7 45zM808 249q80 -3 141 -19q-28 -63 -31 -122q-103 -62 -180.5 -94.5t-159.5 -32.5t-123 28q151 72 353 240zM640 521l1 -17h14q90 0 173.5 25.5t138.5 63.5t87.5 80.5
t32.5 76.5t-28.5 53.5t-84.5 19.5q-85 0 -164 -50t-124.5 -120t-45.5 -132zM803 975l3 -12q-156 -22 -260.5 -118.5t-104.5 -194.5q0 -58 42 -96.5t126 -47.5q-2 18 -2 28q0 50 28 103.5t76 99t120 75t142.5 29.5t101 -22.5t30.5 -61.5t-33 -84.5t-90 -86.5t-145.5 -68
t-187.5 -27h-6q22 -85 147 -85q64 0 153 38t183 116l6 -8q-30 -26 -76 -57.5t-126 -65.5t-145 -34q-144 0 -172 97q-93 7 -140.5 49t-47.5 105q0 101 106.5 201t271.5 128zM233 127v-11q71 7 126.5 53.5t55.5 92.5q0 30 -28.5 48t-86.5 18q-131 0 -215 -77t-84 -167
q0 -62 46 -102t135 -40q122 0 261 62q42 -34 128 -34q174 0 348 99q15 -94 135 -94q41 0 96 15q-45 -107 -246 -177v-10q106 28 176.5 80t95.5 114q88 29 152 82.5t64 106.5q0 33 -28 52.5t-85 19.5q-86 0 -194 -54q-38 20 -94 36q82 128 247 281t290 224q5 4 5 9
q0 10 -11 10q-2 0 -14 -2q-153 -31 -471 -301q-180 -151 -241 -200q-179 -1 -282.5 -61.5t-103.5 -131.5q0 -30 21 -53q-124 -58 -218.5 -58t-136.5 37t-42 95q0 83 74.5 155t186.5 72q48 0 71.5 -17.5t23.5 -44.5q0 -41 -45.5 -80.5t-111.5 -46.5z" />
    <glyph glyph-name="AE" unicode="&#xc6;" horiz-adv-x="1501" 
d="M1241 451q-43 -5 -79 -5q36 38 85 83q-8 -29 -8 -45.5t2 -32.5zM1304 378q54 9 108 9t54 -14q0 -7 -14.5 -13t-37.5 -6q-72 0 -110 24zM965 86v10q0 66 52 130q64 -14 115 -42q-29 -16 -85.5 -50t-81.5 -48zM1245 436q10 -31 31 -51q-169 -33 -273 -128q52 77 143 173
q50 0 99 6zM769 239q-159 -125 -276 -191q-3 11 -3 22q0 58 72 108t207 61zM1215 -14q-49 -13 -97 -13q-121 0 -148 85q58 32 114 68t71 45q76 -51 76 -122q0 -32 -16 -63zM860 255l-46 -1q107 88 154 128.5t120.5 103t112.5 93t108 75t121 63.5q9 3 12 3h3q1 0 0 -1
q-15 -12 -90 -69t-115.5 -91t-103.5 -90q-120 -108 -177 -220q-47 6 -99 6zM1169 180q103 62 154 62q95 0 95 -66q0 -49 -51 -103.5t-133 -80.5q12 28 12 57q0 76 -77 131zM1609 728q96 0 96 -43q0 -34 -59 -81.5t-163 -90.5t-216 -59q3 55 54.5 119t131.5 109.5t156 45.5z
M919 60q-162 -89 -274 -89t-145 61q125 66 300 210q22 1 57 1t95 -7q-24 -52 -32 -105q-5 -23 -5 -40.5t4 -30.5zM641 504h14q90 0 173.5 25.5t138.5 63.5t87.5 80.5t32.5 76.5t-28.5 53.5t-88.5 19.5t-123 -30t-107.5 -75t-72 -98.5t-27.5 -99.5q0 -11 1 -16zM803 975
l3 -12q-156 -22 -261 -118.5t-105 -194.5q0 -57 42.5 -96t126.5 -48q-2 9 -2 27q0 50 28 103.5t76 99.5t120 75.5t142.5 29.5t101 -22.5t30.5 -61.5t-33 -84.5t-90 -86.5t-145.5 -68t-187.5 -27h-5q20 -85 146 -85q64 0 153 38t183 116l6 -8q-30 -26 -76 -57.5t-126 -65.5
t-145 -34q-144 0 -173 97q-93 7 -140 49t-47 105q0 101 106.5 201t271.5 128zM1618 743q-58 0 -111 -11q7 5 21 13q5 4 5 9q0 10 -11 10q-2 0 -14 -2q-153 -31 -471 -301q-168 -143 -252 -209q-156 -12 -238.5 -66.5t-82.5 -118.5q0 -17 6 -32q-147 -78 -269 -78
q-83 0 -125 37t-42 95q0 83 74.5 155t186.5 72q48 0 71.5 -17.5t23.5 -44.5q0 -41 -45.5 -80.5t-111.5 -46.5v-11q71 7 126.5 53.5t55.5 92.5q0 30 -28.5 48t-86.5 18q-131 0 -215 -77t-84 -167q0 -62 46 -102t135 -40q138 0 296 79q39 -61 146 -61q147 0 304 76
q41 -77 179 -77q47 0 99 10q-34 -52 -109 -95t-185 -68l1 -13q120 25 200 73t112 108q102 25 167 84.5t65 115.5q0 36 -31 58t-97.5 22t-180.5 -61q-51 30 -121 45q91 104 260 137q45 -34 119 -34q33 0 59 12t26 25q0 21 -66.5 21t-132.5 -11q-23 20 -25 52
q118 18 228.5 64.5t173 98.5t62.5 90q0 50 -113 50z" />
    <glyph glyph-name="Ccedilla" unicode="&#xc7;" horiz-adv-x="1028" 
d="M388 553q103 0 197.5 36t147 84.5t52.5 89.5q0 60 -118.5 60t-211.5 -81t-116 -187q30 -2 49 -2zM694 -21q117 0 195 65t78 133q0 33 -23 53t-65.5 20t-92 -19t-83 -38.5t-100.5 -63.5t-96 -62q41 -88 187 -88zM577 313q110 0 226 40t199.5 96.5t137 117.5t53.5 104
q0 57 -97 57t-209.5 -62.5t-201 -156t-141.5 -195.5q11 -1 33 -1zM415 254l-8 -13q-181 0 -279 -56t-98 -125q0 -41 37.5 -68t104.5 -27q107 0 288 107q-15 33 -15 92.5t36 140.5q-85 18 -126.5 70t-41.5 123q0 26 4 47q-92 11 -137.5 52.5t-45.5 99.5q0 86 84.5 169.5
t212.5 108.5l3 -15q-112 -19 -189 -98t-77 -162q0 -53 37.5 -91.5t114.5 -50.5q26 113 125.5 199t231.5 86q62 0 93.5 -20.5t31.5 -54.5q0 -75 -122.5 -150.5t-299.5 -75.5q-30 0 -44 1q-3 -21 -3 -41q0 -66 38.5 -114.5t117.5 -65.5q37 78 100 152t143 134.5t179.5 97.5
t203 37t103.5 -67q0 -47 -55.5 -111.5t-143 -124.5t-210.5 -101.5t-243 -41.5q-20 0 -30 1q-43 -92 -43 -161q0 -21 5 -43q12 7 56.5 33.5t61.5 35.5l54 30q43 23 94 42.5t77.5 24t51.5 4.5q49 0 74.5 -22.5t25.5 -58t-21.5 -73t-60 -70.5t-99.5 -54t-116.5 -21t-90.5 6
l-30 -37q17 4 38 4q89 0 89 -42q0 -29 -42 -55.5t-92 -26.5t-94 22l9 9q41 -17 79.5 -17t65 18t26.5 36t-16.5 28.5t-38.5 10.5t-38 -4l-4 10l30 48q-77 20 -113 73q-168 -96 -308 -96q-76 0 -121 32.5t-45 79.5q0 74 106.5 132t308.5 58z" />
    <glyph glyph-name="Egrave" unicode="&#xc8;" horiz-adv-x="1052" 
d="M1309 778l-138 57q-16 5 -16 16.5t7 11.5t66.5 -30t84.5 -45zM950 354q23 0 37.5 6t14.5 13q0 14 -54 14t-108 -9q38 -24 110 -24zM501 96v-10q12 7 74 44t94 55q-48 26 -116 41q-52 -64 -52 -130zM654 -27q49 0 98 13q15 30 15 62q0 71 -76 123q-15 -9 -53 -33
q-74 -48 -132 -80q27 -85 148 -85zM954 176q0 30 -22 48t-73 18t-154 -62q77 -55 77 -131q0 -30 -12 -57q81 26 132.5 80.5t51.5 103.5zM1245 682q0 46 -100 46q-77 0 -158 -46.5t-132 -112t-52 -120.5q111 11 216.5 54t165.5 92.5t60 86.5zM529 622q80 0 159 23t134.5 56
t90.5 70.5t35 67.5q0 54 -107 54q-135 0 -235.5 -85.5t-110.5 -184.5q11 -1 34 -1zM378 243q-169 0 -260.5 -53t-91.5 -119q0 -42 40 -71t109 -29q118 0 280 89q-4 13 -4 31q0 70 64 142q-68 10 -137 10zM563 238q69 -14 121 -45q114 61 180.5 61t97.5 -22t31 -58
q0 -56 -65 -115.5t-167 -84.5q-32 -60 -112 -108t-200 -73l-1 13q111 25 185.5 67.5t108.5 95.5q-52 -10 -99 -10q-138 0 -179 77q-157 -76 -304 -76q-74 0 -117 31t-43 77q0 72 102 129.5t294 57.5q75 0 131 -10q102 104 285 140q-20 19 -30 47q-20 -2 -59 -2
q-125 0 -186.5 48.5t-61.5 124.5v9q-101 9 -150.5 51t-49.5 103q0 86 84.5 169.5t212.5 108.5l3 -15q-112 -19 -189 -98t-77 -162q0 -56 41.5 -95.5t125.5 -48.5q12 108 119 198t252 90q118 0 118 -68q0 -34 -33.5 -74t-90 -76t-142 -60t-178.5 -24h-27v-5q0 -70 59.5 -115
t180.5 -45q29 0 44 1q-3 15 -3 31q0 45 25 91t71 85t120 64t163 25q117 0 117 -54q0 -41 -64 -95t-175.5 -100t-228.5 -59q5 -28 25 -47q66 11 132.5 11t66.5 -21q0 -13 -26 -25t-59 -12q-76 0 -119 34q-167 -32 -260 -137z" />
    <glyph glyph-name="Eacute" unicode="&#xc9;" horiz-adv-x="1052" 
d="M1175 776l138 57q16 5 16 16.5t-7 11.5t-66.5 -30t-84.5 -45zM950 354q23 0 37.5 6t14.5 13q0 14 -54 14t-108 -9q38 -24 110 -24zM501 96v-10q12 7 74 44t94 55q-48 26 -116 41q-52 -64 -52 -130zM654 -27q49 0 98 13q15 30 15 62q0 71 -76 123q-15 -9 -53 -33
q-74 -48 -132 -80q27 -85 148 -85zM954 176q0 30 -22 48t-73 18t-154 -62q77 -55 77 -131q0 -30 -12 -57q81 26 132.5 80.5t51.5 103.5zM1245 682q0 46 -100 46q-77 0 -158 -46.5t-132 -112t-52 -120.5q111 11 216.5 54t165.5 92.5t60 86.5zM529 622q80 0 159 23t134.5 56
t90.5 70.5t35 67.5q0 54 -107 54q-135 0 -235.5 -85.5t-110.5 -184.5q11 -1 34 -1zM378 243q-169 0 -260.5 -53t-91.5 -119q0 -42 40 -71t109 -29q118 0 280 89q-4 13 -4 31q0 70 64 142q-68 10 -137 10zM563 238q69 -14 121 -45q114 61 180.5 61t97.5 -22t31 -58
q0 -56 -65 -115.5t-167 -84.5q-32 -60 -112 -108t-200 -73l-1 13q111 25 185.5 67.5t108.5 95.5q-52 -10 -99 -10q-138 0 -179 77q-157 -76 -304 -76q-74 0 -117 31t-43 77q0 72 102 129.5t294 57.5q75 0 131 -10q102 104 285 140q-20 19 -30 47q-20 -2 -59 -2
q-125 0 -186.5 48.5t-61.5 124.5v9q-101 9 -150.5 51t-49.5 103q0 86 84.5 169.5t212.5 108.5l3 -15q-112 -19 -189 -98t-77 -162q0 -56 41.5 -95.5t125.5 -48.5q12 108 119 198t252 90q118 0 118 -68q0 -34 -33.5 -74t-90 -76t-142 -60t-178.5 -24h-27v-5q0 -70 59.5 -115
t180.5 -45q29 0 44 1q-3 15 -3 31q0 45 25 91t71 85t120 64t163 25q117 0 117 -54q0 -41 -64 -95t-175.5 -100t-228.5 -59q5 -28 25 -47q66 11 132.5 11t66.5 -21q0 -13 -26 -25t-59 -12q-76 0 -119 34q-167 -32 -260 -137z" />
    <glyph glyph-name="Ecircumflex" unicode="&#xca;" horiz-adv-x="1052" 
d="M1289 769l11 6l-41 84q-3 5 -13 5h-3l-149 -71l12 -9l134 54zM950 354q23 0 37.5 6t14.5 13q0 14 -54 14t-108 -9q38 -24 110 -24zM501 96v-10q12 7 74 44t94 55q-48 26 -116 41q-52 -64 -52 -130zM654 -27q49 0 98 13q15 30 15 62q0 71 -76 123q-15 -9 -53 -33
q-74 -48 -132 -80q27 -85 148 -85zM954 176q0 30 -22 48t-73 18t-154 -62q77 -55 77 -131q0 -30 -12 -57q81 26 132.5 80.5t51.5 103.5zM1245 682q0 46 -100 46q-77 0 -158 -46.5t-132 -112t-52 -120.5q111 11 216.5 54t165.5 92.5t60 86.5zM529 622q80 0 159 23t134.5 56
t90.5 70.5t35 67.5q0 54 -107 54q-135 0 -235.5 -85.5t-110.5 -184.5q11 -1 34 -1zM378 243q-169 0 -260.5 -53t-91.5 -119q0 -42 40 -71t109 -29q118 0 280 89q-4 13 -4 31q0 70 64 142q-68 10 -137 10zM563 238q69 -14 121 -45q114 61 180.5 61t97.5 -22t31 -58
q0 -56 -65 -115.5t-167 -84.5q-32 -60 -112 -108t-200 -73l-1 13q111 25 185.5 67.5t108.5 95.5q-52 -10 -99 -10q-138 0 -179 77q-157 -76 -304 -76q-74 0 -117 31t-43 77q0 72 102 129.5t294 57.5q75 0 131 -10q102 104 285 140q-20 19 -30 47q-20 -2 -59 -2
q-125 0 -186.5 48.5t-61.5 124.5v9q-101 9 -150.5 51t-49.5 103q0 86 84.5 169.5t212.5 108.5l3 -15q-112 -19 -189 -98t-77 -162q0 -56 41.5 -95.5t125.5 -48.5q12 108 119 198t252 90q118 0 118 -68q0 -34 -33.5 -74t-90 -76t-142 -60t-178.5 -24h-27v-5q0 -70 59.5 -115
t180.5 -45q29 0 44 1q-3 15 -3 31q0 45 25 91t71 85t120 64t163 25q117 0 117 -54q0 -41 -64 -95t-175.5 -100t-228.5 -59q5 -28 25 -47q66 11 132.5 11t66.5 -21q0 -13 -26 -25t-59 -12q-76 0 -119 34q-167 -32 -260 -137z" />
    <glyph glyph-name="Edieresis" unicode="&#xcb;" horiz-adv-x="1052" 
d="M1249 841.5q-16 -14.5 -16 -25.5t13.5 -11t29.5 13t16 27q0 11 -13.5 11t-29.5 -14.5zM1161 841.5q-16 -14.5 -16 -25.5t13.5 -11t29.5 13t16 27q0 11 -13.5 11t-29.5 -14.5zM950 354q23 0 37.5 6t14.5 13q0 14 -54 14t-108 -9q38 -24 110 -24zM501 96v-10q12 7 74 44
t94 55q-48 26 -116 41q-52 -64 -52 -130zM654 -27q49 0 98 13q15 30 15 62q0 71 -76 123q-15 -9 -53 -33q-74 -48 -132 -80q27 -85 148 -85zM954 176q0 30 -22 48t-73 18t-154 -62q77 -55 77 -131q0 -30 -12 -57q81 26 132.5 80.5t51.5 103.5zM1245 682q0 46 -100 46
q-77 0 -158 -46.5t-132 -112t-52 -120.5q111 11 216.5 54t165.5 92.5t60 86.5zM529 622q80 0 159 23t134.5 56t90.5 70.5t35 67.5q0 54 -107 54q-135 0 -235.5 -85.5t-110.5 -184.5q11 -1 34 -1zM378 243q-169 0 -260.5 -53t-91.5 -119q0 -42 40 -71t109 -29q118 0 280 89
q-4 13 -4 31q0 70 64 142q-68 10 -137 10zM563 238q69 -14 121 -45q114 61 180.5 61t97.5 -22t31 -58q0 -56 -65 -115.5t-167 -84.5q-32 -60 -112 -108t-200 -73l-1 13q111 25 185.5 67.5t108.5 95.5q-52 -10 -99 -10q-138 0 -179 77q-157 -76 -304 -76q-74 0 -117 31
t-43 77q0 72 102 129.5t294 57.5q75 0 131 -10q102 104 285 140q-20 19 -30 47q-20 -2 -59 -2q-125 0 -186.5 48.5t-61.5 124.5v9q-101 9 -150.5 51t-49.5 103q0 86 84.5 169.5t212.5 108.5l3 -15q-112 -19 -189 -98t-77 -162q0 -56 41.5 -95.5t125.5 -48.5q12 108 119 198
t252 90q118 0 118 -68q0 -34 -33.5 -74t-90 -76t-142 -60t-178.5 -24h-27v-5q0 -70 59.5 -115t180.5 -45q29 0 44 1q-3 15 -3 31q0 45 25 91t71 85t120 64t163 25q117 0 117 -54q0 -41 -64 -95t-175.5 -100t-228.5 -59q5 -28 25 -47q66 11 132.5 11t66.5 -21q0 -13 -26 -25
t-59 -12q-76 0 -119 34q-167 -32 -260 -137z" />
    <glyph glyph-name="Igrave" unicode="&#xcc;" horiz-adv-x="905" 
d="M1564 794l-138 57q-16 5 -16 16.5t7 11.5t66.5 -30t84.5 -45zM1019.5 386.5q15.5 7.5 15.5 16.5t-18 13q-5 -5 -18 -19t-21 -21q26 3 41.5 10.5zM915 375l44 43q-59 -1 -124 -15q25 -22 80 -28zM1526 722q0 18 -39 18q-97 0 -205 -76q121 8 166 15q78 13 78 43zM1212 641
q-199 -17 -274 -46q-86 -33 -112 -79q-15 -27 -15 -56t13 -46q74 18 150 19q147 143 238 208zM900 361q-60 6 -89 36q-143 -39 -228.5 -128.5t-85.5 -173.5q0 -31 12 -53q64 34 137 90.5t124 103.5t130 125zM38 123q-7 -8 -12.5 -8t-9.5 1q-4 0 -4 -12q0 -46 45 -76
q75 -50 215 -50q107 0 224 57q-12 27 -12 60q0 56 34 115.5t108 115t175 83.5q-13 19 -13 49t14.5 58t38 48t60.5 35.5t73 25t86 17.5q62 9 179 18q140 93 263 93q22 0 30.5 -5.5t8.5 -23.5t-21 -32.5t-64 -23.5q-75 -14 -196 -23h-2h-1q-62 -46 -147 -132q-27 -28 -79 -82
q28 -6 28 -21.5t-25.5 -29t-68.5 -18.5q-120 -123 -223.5 -207.5t-217.5 -134.5q48 -40 115 -40q103 0 254 100l2 -15q-145 -101 -258 -101q-40 0 -71.5 12.5t-43.5 25.5l-12 12q-124 -50 -249 -50q-72 0 -155 22q-47 13 -76.5 42t-29.5 71q0 24 8.5 37.5t17.5 15.5l8 1
q11 -1 11 -11.5t-7 -18.5z" />
    <glyph glyph-name="Iacute" unicode="&#xcd;" horiz-adv-x="905" 
d="M1610 846l-138 -57l-4 10q25 15 84.5 45t66.5 30t7 -11.5t-16 -16.5zM1019.5 386.5q15.5 7.5 15.5 16.5t-18 13q-5 -5 -18 -19t-21 -21q26 3 41.5 10.5zM915 375l44 43q-59 -1 -124 -15q25 -22 80 -28zM1526 722q0 18 -39 18q-97 0 -205 -76q121 8 166 15q78 13 78 43z
M1212 641q-199 -17 -274 -46q-86 -33 -112 -79q-15 -27 -15 -56t13 -46q74 18 150 19q147 143 238 208zM900 361q-60 6 -89 36q-143 -39 -228.5 -128.5t-85.5 -173.5q0 -31 12 -53q64 34 137 90.5t124 103.5t130 125zM38 123q-7 -8 -12.5 -8t-9.5 1q-4 0 -4 -12
q0 -46 45 -76q75 -50 215 -50q107 0 224 57q-12 27 -12 60q0 56 34 115.5t108 115t175 83.5q-13 19 -13 49t14.5 58t38 48t60.5 35.5t73 25t86 17.5q62 9 179 18q140 93 263 93q22 0 30.5 -5.5t8.5 -23.5t-21 -32.5t-64 -23.5q-75 -14 -196 -23h-2h-1q-62 -46 -147 -132
q-27 -28 -79 -82q28 -6 28 -21.5t-25.5 -29t-68.5 -18.5q-120 -123 -223.5 -207.5t-217.5 -134.5q48 -40 115 -40q103 0 254 100l2 -15q-145 -101 -258 -101q-40 0 -71.5 12.5t-43.5 25.5l-12 12q-124 -50 -249 -50q-72 0 -155 22q-47 13 -76.5 42t-29.5 71q0 24 8.5 37.5
t17.5 15.5l8 1q11 -1 11 -11.5t-7 -18.5z" />
    <glyph glyph-name="Icircumflex" unicode="&#xce;" horiz-adv-x="905" 
d="M1543 780l-11 -6l-49 69l-134 -54l-12 9l149 71q13 0 16 -5zM1019.5 386.5q15.5 7.5 15.5 16.5t-18 13q-5 -5 -18 -19t-21 -21q26 3 41.5 10.5zM915 375l44 43q-59 -1 -124 -15q25 -22 80 -28zM1526 722q0 18 -39 18q-97 0 -205 -76q121 8 166 15q78 13 78 43zM1212 641
q-199 -17 -274 -46q-86 -33 -112 -79q-15 -27 -15 -56t13 -46q74 18 150 19q147 143 238 208zM900 361q-60 6 -89 36q-143 -39 -228.5 -128.5t-85.5 -173.5q0 -31 12 -53q64 34 137 90.5t124 103.5t130 125zM38 123q-7 -8 -12.5 -8t-9.5 1q-4 0 -4 -12q0 -46 45 -76
q75 -50 215 -50q107 0 224 57q-12 27 -12 60q0 56 34 115.5t108 115t175 83.5q-13 19 -13 49t14.5 58t38 48t60.5 35.5t73 25t86 17.5q62 9 179 18q140 93 263 93q22 0 30.5 -5.5t8.5 -23.5t-21 -32.5t-64 -23.5q-75 -14 -196 -23h-2h-1q-62 -46 -147 -132q-27 -28 -79 -82
q28 -6 28 -21.5t-25.5 -29t-68.5 -18.5q-120 -123 -223.5 -207.5t-217.5 -134.5q48 -40 115 -40q103 0 254 100l2 -15q-145 -101 -258 -101q-40 0 -71.5 12.5t-43.5 25.5l-12 12q-124 -50 -249 -50q-72 0 -155 22q-47 13 -76.5 42t-29.5 71q0 24 8.5 37.5t17.5 15.5l8 1
q11 -1 11 -11.5t-7 -18.5z" />
    <glyph glyph-name="Idieresis" unicode="&#xcf;" horiz-adv-x="905" 
d="M1527 821q-16 -13 -29.5 -13t-13.5 11t16 25.5t29.5 14.5t13.5 -11q0 -14 -16 -27zM1439 821q-16 -13 -29.5 -13t-13.5 11t16 25.5t29.5 14.5t13.5 -11q0 -14 -16 -27zM1019.5 386.5q15.5 7.5 15.5 16.5t-18 13q-5 -5 -18 -19t-21 -21q26 3 41.5 10.5zM915 375l44 43
q-59 -1 -124 -15q25 -22 80 -28zM1526 722q0 18 -39 18q-97 0 -205 -76q121 8 166 15q78 13 78 43zM1212 641q-199 -17 -274 -46q-86 -33 -112 -79q-15 -27 -15 -56t13 -46q74 18 150 19q147 143 238 208zM900 361q-60 6 -89 36q-143 -39 -228.5 -128.5t-85.5 -173.5
q0 -31 12 -53q64 34 137 90.5t124 103.5t130 125zM38 123q-7 -8 -12.5 -8t-9.5 1q-4 0 -4 -12q0 -46 45 -76q75 -50 215 -50q107 0 224 57q-12 27 -12 60q0 56 34 115.5t108 115t175 83.5q-13 19 -13 49t14.5 58t38 48t60.5 35.5t73 25t86 17.5q62 9 179 18q140 93 263 93
q22 0 30.5 -5.5t8.5 -23.5t-21 -32.5t-64 -23.5q-75 -14 -196 -23h-2h-1q-62 -46 -147 -132q-27 -28 -79 -82q28 -6 28 -21.5t-25.5 -29t-68.5 -18.5q-120 -123 -223.5 -207.5t-217.5 -134.5q48 -40 115 -40q103 0 254 100l2 -15q-145 -101 -258 -101q-40 0 -71.5 12.5
t-43.5 25.5l-12 12q-124 -50 -249 -50q-72 0 -155 22q-47 13 -76.5 42t-29.5 71q0 24 8.5 37.5t17.5 15.5l8 1q11 -1 11 -11.5t-7 -18.5z" />
    <glyph glyph-name="Eth" unicode="&#xd0;" horiz-adv-x="1160" 
d="M23 21q0 -28 51.5 -54.5t132 -26.5t175.5 46q-25 6 -93 26q-131 37 -198.5 37t-67.5 -28zM491 453q0 -58 90 -58q46 0 104 26t110 68t87.5 105t35.5 129q0 21 -5 41q-78 -12 -157.5 -49t-136 -83t-92.5 -95t-36 -84zM458 -9q62 -12 106 -12q90 0 180.5 27t165.5 72.5
t140.5 105.5t110.5 124q97 140 97 256q0 62 -30 109q-54 -41 -112.5 -96.5t-149 -149.5t-124.5 -128h168q3 0 3 -4q0 -12 -9 -12h-179q-207 -207 -367 -292zM748 873q-103 0 -233 -55t-196 -121l-13 8q91 78 219 131t232 53q142 0 172 -103q32 3 64 3q156 0 235 -87
q125 77 230 77q63 0 99 -28t36 -69.5t-32.5 -81.5t-95.5 -69l-2 11q50 20 80.5 59t30.5 77.5t-32.5 63t-97.5 24.5q-90 0 -201 -82q44 -62 44 -142t-31.5 -159t-95.5 -154t-151 -134.5t-208.5 -96t-256.5 -36.5q-55 0 -117 13q-129 -62 -252 -62q-74 0 -126.5 32.5
t-52.5 67.5q0 23 25.5 37t74.5 14t97 -9t123.5 -29.5t95.5 -25.5q137 74 349 282h-154q-14 0 -14 8.5t8 8.5h176q16 16 83.5 84t94.5 94t80 75q88 81 177 140q-70 78 -230 78q-25 0 -49 -3q3 -15 3 -33q0 -73 -38 -142t-94 -116t-118.5 -75t-110.5 -28t-72 23.5t-24 65
t28.5 92t80 98.5t136 84.5t184.5 47.5q-32 89 -160 89z" />
    <glyph glyph-name="Ntilde" unicode="&#xd1;" horiz-adv-x="1099" 
d="M1730 868l-9 6q-16 -20 -31.5 -20t-49.5 16t-59 16q-47 0 -80 -42l5 -5q32 28 53 28t53 -18.5t54 -18.5q42 0 64 38zM249 228q82 15 156.5 15t136.5 -13q21 40 21 70q0 63 -83 63q-71 0 -132.5 -38.5t-98.5 -96.5zM297 1q37 -14 92 -14q145 0 307 142q-48 54 -131 80
q-35 -63 -106 -120t-162 -88zM197 113q0 49 27 99q-100 -25 -160 -71.5t-60 -89.5q0 -30 32.5 -48.5t94 -18.5t124.5 19q-58 38 -58 110zM535 218q-65 15 -139.5 15t-154.5 -17q-29 -50 -29 -100q0 -72 63 -106q84 31 154 89t106 119zM600 541l1 -17h14q90 0 173.5 25.5
t138.5 63.5t87.5 80.5t32.5 76.5t-28.5 53.5t-84.5 19.5q-85 0 -164 -50t-124.5 -120t-45.5 -132zM763 995l3 -12q-156 -22 -260.5 -118.5t-104.5 -194.5q0 -58 42 -96.5t126 -47.5q-2 18 -2 28q0 50 28 103.5t76 99t120 75t142.5 29.5t101 -22.5t30.5 -61.5t-33 -84.5
t-90 -86.5t-145.5 -68t-187.5 -27h-6q22 -85 147 -85q64 0 153 38t183 116l6 -8q-30 -26 -76 -57.5t-126 -65.5t-145 -34q-144 0 -172 97q-93 7 -140.5 49t-47.5 105q0 101 106.5 201t271.5 128zM1891 726.5q-26 24.5 -82 24.5t-121.5 -23t-123.5 -56t-127.5 -89t-120 -102
t-116.5 -115t-101 -109t-91 -104.5t-70 -80.5l-56 -73q-5 -3 -9 -3t-4 6l12 21q14 18 63 123l17 35q77 162 116 225q137 223 253 328q-17 0 -92 -70l-25 -24q-311 -341 -490 -503q51 -54 51 -116q0 -77 -81.5 -140.5t-240.5 -87.5v11q139 22 213 83.5t74 136.5q0 50 -35 96
q-81 -70 -158 -108t-154 -38t-119 20q-73 -21 -144 -21t-109 22.5t-38 57.5q0 48 66 97.5t183 74.5q39 65 108.5 108.5t152.5 43.5q51 0 76 -21.5t25 -57.5t-21 -76q91 -27 142 -77q8 8 55 51t162.5 163t192.5 205l78 84q128 125 219 145q11 0 11 -5.5t-6 -7.5
q-46 -14 -86.5 -62.5t-99 -132.5t-100.5 -156q-102 -172 -128 -227l-8 -19q0 -1 3 -1l13 10q21 22 64.5 69t70.5 75.5t72.5 75t78 76.5t79 70t84 66t84 54.5t87.5 44.5q96 37 168 37t104 -32t32 -87.5t-63 -124t-146.5 -112.5t-144.5 -44q-72 0 -72 68q0 47 44 95.5
t117 66.5l3 -10q-69 -21 -109 -64t-40 -85q0 -58 53 -58t132 48.5t139 118t60 116t-26 71z" />
    <glyph glyph-name="Ograve" unicode="&#xd2;" horiz-adv-x="679" 
d="M973 813l-138 57q-16 5 -16 16.5t7 11.5t66.5 -30t84.5 -45zM678 697q-86 0 -208 -93t-227 -226h19q70 0 141 21.5t126.5 55.5t100 73t68.5 75t24 61q0 33 -44 33zM94 606q80 0 160 28.5t136.5 70t92 88t35.5 83.5q0 66 -106 66q-89 0 -171 -51t-134 -127t-66 -155
q26 -3 53 -3zM79 40q0 -103 122 -103q93 0 226 90t246.5 211.5t194.5 251t81 203t-82 73.5q-21 0 -58.5 -13.5t-54.5 -29.5q-15 4 -15 11q0 10 46 26.5t86 16.5q98 0 98 -86q0 -53 -38 -132t-99 -163.5t-143 -169.5t-166.5 -151.5t-172.5 -108.5t-161 -42t-110.5 36
t-37.5 99q0 131 129 311q-78 17 -115.5 67t-37.5 120q0 19 3 42q-90 11 -135 54.5t-45 104.5q0 90 85 177.5t212 112.5l3 -15q-112 -19 -189 -102t-77 -171q0 -56 36.5 -95.5t111.5 -53.5q16 84 70.5 163.5t142 133.5t183.5 54q58 0 87.5 -22.5t29.5 -61.5t-34 -88t-91 -93
t-143.5 -73t-180.5 -29q-32 0 -47 2q-2 -24 -2 -36q0 -65 36 -111.5t109 -63.5q104 139 240 232.5t262 93.5q58 0 58 -44q0 -36 -39.5 -87.5t-103.5 -100.5t-158 -83.5t-190 -34.5h-20q-69 -90 -110.5 -176t-41.5 -146z" />
    <glyph glyph-name="Oacute" unicode="&#xd3;" horiz-adv-x="679" 
d="M918 822l138 57q16 5 16 16.5t-7 11.5t-66.5 -30t-84.5 -45zM678 697q-86 0 -208 -93t-227 -226h19q70 0 141 21.5t126.5 55.5t100 73t68.5 75t24 61q0 33 -44 33zM94 606q80 0 160 28.5t136.5 70t92 88t35.5 83.5q0 66 -106 66q-89 0 -171 -51t-134 -127t-66 -155
q26 -3 53 -3zM79 40q0 -103 122 -103q93 0 226 90t246.5 211.5t194.5 251t81 203t-82 73.5q-21 0 -58.5 -13.5t-54.5 -29.5q-15 4 -15 11q0 10 46 26.5t86 16.5q98 0 98 -86q0 -53 -38 -132t-99 -163.5t-143 -169.5t-166.5 -151.5t-172.5 -108.5t-161 -42t-110.5 36
t-37.5 99q0 131 129 311q-78 17 -115.5 67t-37.5 120q0 19 3 42q-90 11 -135 54.5t-45 104.5q0 90 85 177.5t212 112.5l3 -15q-112 -19 -189 -102t-77 -171q0 -56 36.5 -95.5t111.5 -53.5q16 84 70.5 163.5t142 133.5t183.5 54q58 0 87.5 -22.5t29.5 -61.5t-34 -88t-91 -93
t-143.5 -73t-180.5 -29q-32 0 -47 2q-2 -24 -2 -36q0 -65 36 -111.5t109 -63.5q104 139 240 232.5t262 93.5q58 0 58 -44q0 -36 -39.5 -87.5t-103.5 -100.5t-158 -83.5t-190 -34.5h-20q-69 -90 -110.5 -176t-41.5 -146z" />
    <glyph glyph-name="Ocircumflex" unicode="&#xd4;" horiz-adv-x="679" 
d="M961 809l11 6l-41 84q-3 5 -13 5h-3l-149 -71l12 -9l134 54zM678 697q-86 0 -208 -93t-227 -226h19q70 0 141 21.5t126.5 55.5t100 73t68.5 75t24 61q0 33 -44 33zM94 606q80 0 160 28.5t136.5 70t92 88t35.5 83.5q0 66 -106 66q-89 0 -171 -51t-134 -127t-66 -155
q26 -3 53 -3zM79 40q0 -103 122 -103q93 0 226 90t246.5 211.5t194.5 251t81 203t-82 73.5q-21 0 -58.5 -13.5t-54.5 -29.5q-15 4 -15 11q0 10 46 26.5t86 16.5q98 0 98 -86q0 -53 -38 -132t-99 -163.5t-143 -169.5t-166.5 -151.5t-172.5 -108.5t-161 -42t-110.5 36
t-37.5 99q0 131 129 311q-78 17 -115.5 67t-37.5 120q0 19 3 42q-90 11 -135 54.5t-45 104.5q0 90 85 177.5t212 112.5l3 -15q-112 -19 -189 -102t-77 -171q0 -56 36.5 -95.5t111.5 -53.5q16 84 70.5 163.5t142 133.5t183.5 54q58 0 87.5 -22.5t29.5 -61.5t-34 -88t-91 -93
t-143.5 -73t-180.5 -29q-32 0 -47 2q-2 -24 -2 -36q0 -65 36 -111.5t109 -63.5q104 139 240 232.5t262 93.5q58 0 58 -44q0 -36 -39.5 -87.5t-103.5 -100.5t-158 -83.5t-190 -34.5h-20q-69 -90 -110.5 -176t-41.5 -146z" />
    <glyph glyph-name="Otilde" unicode="&#xd5;" horiz-adv-x="679" 
d="M1027 865l-9 6q-16 -20 -31.5 -20t-49.5 16t-59 16q-47 0 -80 -42l5 -5q32 28 52.5 28t53.5 -18.5t54 -18.5q42 0 64 38zM678 697q-86 0 -208 -93t-227 -226h19q70 0 141 21.5t126.5 55.5t100 73t68.5 75t24 61q0 33 -44 33zM94 606q80 0 160 28.5t136.5 70t92 88
t35.5 83.5q0 66 -106 66q-89 0 -171 -51t-134 -127t-66 -155q26 -3 53 -3zM79 40q0 -103 122 -103q93 0 226 90t246.5 211.5t194.5 251t81 203t-82 73.5q-21 0 -58.5 -13.5t-54.5 -29.5q-15 4 -15 11q0 10 46 26.5t86 16.5q98 0 98 -86q0 -53 -38 -132t-99 -163.5
t-143 -169.5t-166.5 -151.5t-172.5 -108.5t-161 -42t-110.5 36t-37.5 99q0 131 129 311q-78 17 -115.5 67t-37.5 120q0 19 3 42q-90 11 -135 54.5t-45 104.5q0 90 85 177.5t212 112.5l3 -15q-112 -19 -189 -102t-77 -171q0 -56 36.5 -95.5t111.5 -53.5q16 84 70.5 163.5
t142 133.5t183.5 54q58 0 87.5 -22.5t29.5 -61.5t-34 -88t-91 -93t-143.5 -73t-180.5 -29q-32 0 -47 2q-2 -24 -2 -36q0 -65 36 -111.5t109 -63.5q104 139 240 232.5t262 93.5q58 0 58 -44q0 -36 -39.5 -87.5t-103.5 -100.5t-158 -83.5t-190 -34.5h-20q-69 -90 -110.5 -176
t-41.5 -146z" />
    <glyph glyph-name="Odieresis" unicode="&#xd6;" horiz-adv-x="679" 
d="M901 877.5q-16 -14.5 -16 -25.5t13.5 -11t29.5 13t16 27q0 11 -13.5 11t-29.5 -14.5zM813 877.5q-16 -14.5 -16 -25.5t13.5 -11t29.5 13t16 27q0 11 -13.5 11t-29.5 -14.5zM678 697q-86 0 -208 -93t-227 -226h19q70 0 141 21.5t126.5 55.5t100 73t68.5 75t24 61
q0 33 -44 33zM94 606q80 0 160 28.5t136.5 70t92 88t35.5 83.5q0 66 -106 66q-89 0 -171 -51t-134 -127t-66 -155q26 -3 53 -3zM79 40q0 -103 122 -103q93 0 226 90t246.5 211.5t194.5 251t81 203t-82 73.5q-21 0 -58.5 -13.5t-54.5 -29.5q-15 4 -15 11q0 10 46 26.5
t86 16.5q98 0 98 -86q0 -53 -38 -132t-99 -163.5t-143 -169.5t-166.5 -151.5t-172.5 -108.5t-161 -42t-110.5 36t-37.5 99q0 131 129 311q-78 17 -115.5 67t-37.5 120q0 19 3 42q-90 11 -135 54.5t-45 104.5q0 90 85 177.5t212 112.5l3 -15q-112 -19 -189 -102t-77 -171
q0 -56 36.5 -95.5t111.5 -53.5q16 84 70.5 163.5t142 133.5t183.5 54q58 0 87.5 -22.5t29.5 -61.5t-34 -88t-91 -93t-143.5 -73t-180.5 -29q-32 0 -47 2q-2 -24 -2 -36q0 -65 36 -111.5t109 -63.5q104 139 240 232.5t262 93.5q58 0 58 -44q0 -36 -39.5 -87.5t-103.5 -100.5
t-158 -83.5t-190 -34.5h-20q-69 -90 -110.5 -176t-41.5 -146z" />
    <glyph glyph-name="multiply" unicode="&#xd7;" horiz-adv-x="392" 
d="M155 341l77 -105l149 107l8 -14l-147 -106l89 -119l-14 -8l-88 118l-164 -118l-8 14l162 117l-78 106z" />
    <glyph glyph-name="Oslash" unicode="&#xd8;" horiz-adv-x="679" 
d="M678 697q-86 0 -208 -93t-227 -226h19q122 0 235.5 59.5t178.5 136.5l39 61q7 19 7 29q0 33 -44 33zM94 606q80 0 160 28.5t136.5 70t92 88t35.5 83.5q0 66 -106 66q-89 0 -171 -51t-134 -127t-66 -155q26 -3 53 -3zM79 40q0 -103 122 -103q29 0 72 12l360 558
q-75 -63 -174.5 -104t-207.5 -41h-20q-69 -90 -110.5 -176t-41.5 -146zM949 693q0 73 -82 73q-16 0 -43 -8l-514 -796q128 53 281 195.5t255.5 295.5t102.5 240zM799 765l79 123l22 -12l-66 -103q24 4 37 4q98 0 98 -86q0 -70 -65 -183t-161.5 -224t-218.5 -207t-225 -132
l-46 -72l-23 8l34 53q-42 -10 -71 -10q-77 0 -114.5 36t-37.5 99q0 131 129 311q-78 17 -115.5 67t-37.5 120q0 19 3 42q-90 11 -135 54.5t-45 104.5q0 90 85 177.5t212 112.5l3 -15q-112 -19 -189 -102t-77 -171q0 -56 36.5 -95.5t111.5 -53.5q16 84 70.5 163.5t142 133.5
t183.5 54q58 0 87.5 -22.5t29.5 -61.5t-34 -88t-91 -93t-143.5 -73t-180.5 -29q-32 0 -47 2q-2 -24 -2 -36q0 -65 36 -111.5t109 -63.5q104 139 240 232.5t262 93.5q52 0 57 -36l43 66q-22 -11 -30 -19q-15 4 -15 11q0 13 60 31z" />
    <glyph glyph-name="Ugrave" unicode="&#xd9;" horiz-adv-x="867" 
d="M854 756l-138 57q-16 5 -16 16.5t7 11.5t66.5 -30t84.5 -45zM1058 702q0 17 -14 17q-22 0 -88 -44q-102 -66 -238 -196.5t-227 -253.5q223 147 395 288.5t172 188.5zM812 188q0 29 -16.5 44t-47.5 15t-72.5 -21t-79 -57t-63 -91.5t-25.5 -117.5v-17q64 12 134 50.5
t120 92.5t50 102zM-97 434q0 -59 68.5 -59t136 31.5t115 79.5t77 106.5t29.5 111.5q0 19 -5 39q-89 -11 -186 -57t-166 -115.5t-69 -136.5zM386 10q0 -71 82 -71q7 0 27 2q-1 8 -1 25q0 67 27.5 125t69 94.5t87 57t82.5 20.5q76 0 76 -63q0 -78 -107.5 -164t-218.5 -109
q11 -65 59 -99t115 -34q110 0 198 77l8 -5q-95 -84 -212 -84q-70 0 -119.5 36t-61.5 106q-20 -3 -37 -3q-47 0 -74.5 24t-27.5 73.5t42 130.5q-282 -179 -359 -179q-20 0 -28 30q-3 12 -3 27q0 51 50.5 118t122 132.5t143.5 129.5t122.5 127t50.5 111.5t-35.5 74.5t-96.5 26
q-16 0 -24 -1q8 -27 8 -54q0 -56 -28.5 -114t-77.5 -106t-124 -78.5t-160 -30.5q-39 0 -59.5 19t-20.5 51q0 69 71.5 141.5t173 120.5t195.5 60q-36 114 -223 114q-95 0 -237.5 -63.5t-206.5 -144.5l-9 6q68 85 212 149t245 64t159 -34t79 -90q15 2 29 2q67 0 106.5 -29
t39.5 -87.5t-34 -121t-85.5 -115t-113 -108.5t-115.5 -101.5t-93.5 -93.5t-46.5 -85q0 -28 29 -28q65 0 360 188q83 139 241.5 293.5t288.5 224.5q70 39 108 39q28 0 28 -26q0 -52 -189 -206.5t-426 -309.5q-81 -115 -81 -181z" />
    <glyph glyph-name="Uacute" unicode="&#xda;" horiz-adv-x="867" 
d="M807 774l138 57q16 5 16 16.5t-7 11.5t-66.5 -30t-84.5 -45zM1058 702q0 17 -14 17q-22 0 -88 -44q-102 -66 -238 -196.5t-227 -253.5q223 147 395 288.5t172 188.5zM812 188q0 29 -16.5 44t-47.5 15t-72.5 -21t-79 -57t-63 -91.5t-25.5 -117.5v-17q64 12 134 50.5
t120 92.5t50 102zM-97 434q0 -59 68.5 -59t136 31.5t115 79.5t77 106.5t29.5 111.5q0 19 -5 39q-89 -11 -186 -57t-166 -115.5t-69 -136.5zM386 10q0 -71 82 -71q7 0 27 2q-1 8 -1 25q0 67 27.5 125t69 94.5t87 57t82.5 20.5q76 0 76 -63q0 -78 -107.5 -164t-218.5 -109
q11 -65 59 -99t115 -34q110 0 198 77l8 -5q-95 -84 -212 -84q-70 0 -119.5 36t-61.5 106q-20 -3 -37 -3q-47 0 -74.5 24t-27.5 73.5t42 130.5q-282 -179 -359 -179q-20 0 -28 30q-3 12 -3 27q0 51 50.5 118t122 132.5t143.5 129.5t122.5 127t50.5 111.5t-35.5 74.5t-96.5 26
q-16 0 -24 -1q8 -27 8 -54q0 -56 -28.5 -114t-77.5 -106t-124 -78.5t-160 -30.5q-39 0 -59.5 19t-20.5 51q0 69 71.5 141.5t173 120.5t195.5 60q-36 114 -223 114q-95 0 -237.5 -63.5t-206.5 -144.5l-9 6q68 85 212 149t245 64t159 -34t79 -90q15 2 29 2q67 0 106.5 -29
t39.5 -87.5t-34 -121t-85.5 -115t-113 -108.5t-115.5 -101.5t-93.5 -93.5t-46.5 -85q0 -28 29 -28q65 0 360 188q83 139 241.5 293.5t288.5 224.5q70 39 108 39q28 0 28 -26q0 -52 -189 -206.5t-426 -309.5q-81 -115 -81 -181z" />
    <glyph glyph-name="Ucircumflex" unicode="&#xdb;" horiz-adv-x="867" 
d="M861 750l11 6l-41 84q-3 5 -13 5h-3l-149 -71l12 -9l134 54zM1058 702q0 17 -14 17q-22 0 -88 -44q-102 -66 -238 -196.5t-227 -253.5q223 147 395 288.5t172 188.5zM812 188q0 29 -16.5 44t-47.5 15t-72.5 -21t-79 -57t-63 -91.5t-25.5 -117.5v-17q64 12 134 50.5
t120 92.5t50 102zM-97 434q0 -59 68.5 -59t136 31.5t115 79.5t77 106.5t29.5 111.5q0 19 -5 39q-89 -11 -186 -57t-166 -115.5t-69 -136.5zM386 10q0 -71 82 -71q7 0 27 2q-1 8 -1 25q0 67 27.5 125t69 94.5t87 57t82.5 20.5q76 0 76 -63q0 -78 -107.5 -164t-218.5 -109
q11 -65 59 -99t115 -34q110 0 198 77l8 -5q-95 -84 -212 -84q-70 0 -119.5 36t-61.5 106q-20 -3 -37 -3q-47 0 -74.5 24t-27.5 73.5t42 130.5q-282 -179 -359 -179q-20 0 -28 30q-3 12 -3 27q0 51 50.5 118t122 132.5t143.5 129.5t122.5 127t50.5 111.5t-35.5 74.5t-96.5 26
q-16 0 -24 -1q8 -27 8 -54q0 -56 -28.5 -114t-77.5 -106t-124 -78.5t-160 -30.5q-39 0 -59.5 19t-20.5 51q0 69 71.5 141.5t173 120.5t195.5 60q-36 114 -223 114q-95 0 -237.5 -63.5t-206.5 -144.5l-9 6q68 85 212 149t245 64t159 -34t79 -90q15 2 29 2q67 0 106.5 -29
t39.5 -87.5t-34 -121t-85.5 -115t-113 -108.5t-115.5 -101.5t-93.5 -93.5t-46.5 -85q0 -28 29 -28q65 0 360 188q83 139 241.5 293.5t288.5 224.5q70 39 108 39q28 0 28 -26q0 -52 -189 -206.5t-426 -309.5q-81 -115 -81 -181z" />
    <glyph glyph-name="Udieresis" unicode="&#xdc;" horiz-adv-x="867" 
d="M810 826.5q-16 -14.5 -16 -25.5t13.5 -11t29.5 13t16 27q0 11 -13.5 11t-29.5 -14.5zM722 826.5q-16 -14.5 -16 -25.5t13.5 -11t29.5 13t16 27q0 11 -13.5 11t-29.5 -14.5zM1058 702q0 17 -14 17q-22 0 -88 -44q-102 -66 -238 -196.5t-227 -253.5q223 147 395 288.5
t172 188.5zM812 188q0 29 -16.5 44t-47.5 15t-72.5 -21t-79 -57t-63 -91.5t-25.5 -117.5v-17q64 12 134 50.5t120 92.5t50 102zM-97 434q0 -59 68.5 -59t136 31.5t115 79.5t77 106.5t29.5 111.5q0 19 -5 39q-89 -11 -186 -57t-166 -115.5t-69 -136.5zM386 10q0 -71 82 -71
q7 0 27 2q-1 8 -1 25q0 67 27.5 125t69 94.5t87 57t82.5 20.5q76 0 76 -63q0 -78 -107.5 -164t-218.5 -109q11 -65 59 -99t115 -34q110 0 198 77l8 -5q-95 -84 -212 -84q-70 0 -119.5 36t-61.5 106q-20 -3 -37 -3q-47 0 -74.5 24t-27.5 73.5t42 130.5q-282 -179 -359 -179
q-20 0 -28 30q-3 12 -3 27q0 51 50.5 118t122 132.5t143.5 129.5t122.5 127t50.5 111.5t-35.5 74.5t-96.5 26q-16 0 -24 -1q8 -27 8 -54q0 -56 -28.5 -114t-77.5 -106t-124 -78.5t-160 -30.5q-39 0 -59.5 19t-20.5 51q0 69 71.5 141.5t173 120.5t195.5 60q-36 114 -223 114
q-95 0 -237.5 -63.5t-206.5 -144.5l-9 6q68 85 212 149t245 64t159 -34t79 -90q15 2 29 2q67 0 106.5 -29t39.5 -87.5t-34 -121t-85.5 -115t-113 -108.5t-115.5 -101.5t-93.5 -93.5t-46.5 -85q0 -28 29 -28q65 0 360 188q83 139 241.5 293.5t288.5 224.5q70 39 108 39
q28 0 28 -26q0 -52 -189 -206.5t-426 -309.5q-81 -115 -81 -181z" />
    <glyph glyph-name="Yacute" unicode="&#xdd;" horiz-adv-x="600" 
d="M747 764l138 57q16 5 16 16.5t-7 11.5t-66.5 -30t-84.5 -45zM1117 708q-122 0 -317 -200q-107 -109 -247 -275q234 147 406 279.5t172 178.5q0 17 -14 17zM5 -353q30 -6 52 -6q80 0 169.5 38.5t147 90.5t57.5 93q0 59 -127 59h-20q-163 -180 -279 -275zM-83 -315l9 6
q12 -14 36 -27q105 94 249 250q-102 -16 -215.5 -64t-199 -104t-142 -113t-56.5 -92q0 -40 73 -40q104 0 278 151q-26 16 -32 33zM-74 434q0 -59 68.5 -59t136 31.5t115 79.5t77 106.5t29.5 111.5q0 19 -5 39q-89 -11 -186 -57t-166 -115.5t-69 -136.5zM292 -69h21
q149 0 149 -66q0 -44 -63.5 -99.5t-163 -96t-189.5 -40.5q-32 0 -55 6q-187 -148 -331 -148q-75 0 -75 50q0 41 51.5 101t134.5 119.5t205 107.5t246 61q92 99 182 200q-271 -156 -340 -156q-20 0 -28 30q-3 12 -3 27q0 51 50.5 118t122.5 132.5t143.5 129.5t122 127
t50.5 111.5t-35.5 74.5t-96.5 26q-8 0 -14.5 -0.5t-9.5 -0.5q8 -27 8 -54q0 -56 -28.5 -114t-77.5 -106t-124 -78.5t-160 -30.5q-39 0 -59.5 19t-20.5 51q0 69 71.5 141.5t173 120.5t195.5 60q-36 114 -223 114q-95 0 -237.5 -63.5t-206.5 -144.5l-9 6q68 85 212 149t245 64
t158.5 -33.5t78.5 -89.5q10 1 30 1q67 0 106.5 -29t39.5 -87.5t-34 -121t-85.5 -115t-113 -108.5t-115.5 -101.5t-93.5 -93.5t-46.5 -85q0 -28 29 -28q63 0 357 174q93 103 156.5 171t147 149t145.5 128t127 79.5t115 32.5q28 0 28 -26q0 -51 -193 -199t-441 -301
q-164 -192 -229 -265z" />
    <glyph glyph-name="Thorn" unicode="&#xde;" horiz-adv-x="953" 
d="M583 290q0 33 -25 49q-2 -16 -2 -24q0 -37 22 -56q5 18 5 31zM562 220l9 17q-47 19 -47 76q0 15 5 37q-12 3 -29 3q-71 0 -132.5 -38.5t-98.5 -96.5q82 15 156.5 15t136.5 -13zM317 -9q37 -14 94.5 -14t150.5 43q95 44 152 101q-45 52 -129 78q-35 -63 -106 -120
t-162 -88zM24 41q0 -30 32.5 -48.5t94.5 -18.5t124 20q-58 36 -58 109q0 49 27 99q-100 -25 -160 -71.5t-60 -89.5zM555 208q-65 15 -139.5 15t-154.5 -17q-29 -50 -29 -100q0 -72 63 -106q84 31 154 89t106 119zM592 212q85 -25 139 -74l330 339q50 55 108 106
q-67 27 -171 27l-21 -1q5 -20 5 -39q0 -74 -48.5 -152.5t-134.5 -133.5t-180 -55q-13 0 -19 1q-2 -6 -8 -18zM858 206q28 -3 57 -3q141 0 246.5 82.5t105.5 174.5q0 68 -66 107l-24 -24q-81 -81 -319 -337zM613 287q0 -18 -8 -42q12 -3 26 -3q76 0 152 54t123 131.5
t47 146.5q0 19 -4 34q-153 -12 -256 -87.5t-130 -161.5q50 -19 50 -72zM847 195q-16 -22 -93 -81q40 -49 40 -103q0 -77 -81.5 -140.5t-240.5 -87.5v11q139 22 213 83.5t74 136.5q0 44 -27 85q-193 -135 -333 -135q-64 0 -106 20q-73 -21 -144 -21t-109 22.5t-38 57.5
q0 48 66 97.5t183 74.5q39 65 108.5 108.5t152.5 43.5q8 0 22 -2q32 89 141 164t272 88q-29 97 -181 97q-50 0 -107 -16.5t-102 -40.5q-91 -49 -142 -89l-21 -16l-10 9q24 21 73.5 54t93.5 55.5t105.5 40.5t117.5 18q167 0 201 -110q10 1 31 1q106 0 176 -25
q222 193 392 193q78 0 120 -30.5t42 -80.5t-55.5 -99t-153.5 -66l-10 8q91 17 140.5 61t49.5 90t-37.5 75t-105.5 29q-144 0 -349 -194q92 -46 92 -137t-108 -173.5t-265 -82.5q-45 0 -87 7z" />
    <glyph glyph-name="germandbls" unicode="&#xdf;" horiz-adv-x="271" 
d="M564 549q0 7 -10 7q-42 0 -196.5 -135.5t-336.5 -323.5q147 92 345 255t198 197zM261 65q-156 -101 -239 -101q-33 0 -48.5 14t-15.5 31t8 27.5t20 10.5q15 0 15 -16q0 -10 -16 -18q-5 -3 -5 -10t11.5 -16.5t24.5 -9.5q43 0 74.5 59.5t40.5 118.5q-94 -65 -141 -91
q-151 -157 -252 -281.5t-101 -158.5l-13 -4q0 54 126 212t287 321t316.5 291t207.5 128q23 0 23 -15q0 -37 -125.5 -146.5t-282.5 -222.5h1q-5 -5 -7.5 -35.5t-15.5 -74t-45 -78.5q0 -2 4 -2q7 0 51 24l14 7q38 21 81 51z" />
    <glyph glyph-name="agrave" unicode="&#xe0;" horiz-adv-x="359" 
d="M311 213l-138 57q-16 5 -16 16.5t7 11.5t66.5 -30t84.5 -45zM-7 -2q38 0 101.5 38.5t106 74.5t42.5 42t-14.5 10t-39.5 4t-66 -19.5t-71 -46.5t-50 -53t-20 -38t11 -12zM261 166q20 16 22 16q27 -3 28 -4.5t1 -3.5t-8 -12.5t-47 -49.5q-97 -95 -97 -115q0 -8 7 -8
q48 0 180 91l2 -15q-133 -87 -188 -87q-27 0 -27 25.5t31 66.5q-118 -87 -184 -88q-24 0 -24 29q0 52 66.5 111t175.5 59q36 0 62 -15z" />
    <glyph glyph-name="aacute" unicode="&#xe1;" horiz-adv-x="359" 
d="M-7 -2q38 0 101.5 38.5t106 74.5t42.5 42t-14.5 10t-39.5 4t-66 -19.5t-71 -46.5t-50 -53t-20 -38t11 -12zM261 166q20 16 22 16q27 -3 28 -4.5t1 -3.5t-8 -12.5t-47 -49.5q-97 -95 -97 -115q0 -8 7 -8q48 0 180 91l2 -15q-133 -87 -188 -87q-27 0 -27 25.5t31 66.5
q-118 -87 -184 -88q-24 0 -24 29q0 52 66.5 111t175.5 59q36 0 62 -15zM359 270l-138 -57l-4 10q25 15 84.5 45t66.5 30t7 -11.5t-16 -16.5z" />
    <glyph glyph-name="acircumflex" unicode="&#xe2;" horiz-adv-x="359" 
d="M298 212l-11 -6l-49 69l-134 -54l-12 9l149 71q13 0 16 -5zM-7 -2q38 0 101.5 38.5t106 74.5t42.5 42t-14.5 10t-39.5 4t-66 -19.5t-71 -46.5t-50 -53t-20 -38t11 -12zM261 166q20 16 22 16q27 -3 28 -4.5t1 -3.5t-8 -12.5t-47 -49.5q-97 -95 -97 -115q0 -8 7 -8
q48 0 180 91l2 -15q-133 -87 -188 -87q-27 0 -27 25.5t31 66.5q-118 -87 -184 -88q-24 0 -24 29q0 52 66.5 111t175.5 59q36 0 62 -15z" />
    <glyph glyph-name="atilde" unicode="&#xe3;" horiz-adv-x="359" 
d="M324 269l9 -6q-22 -38 -64 -38q-22 0 -54.5 18.5t-53 18.5t-52.5 -28l-5 5q33 42 80 42q25 0 59 -16t49.5 -16t31.5 20zM-7 -2q38 0 101.5 38.5t106 74.5t42.5 42t-14.5 10t-39.5 4t-66 -19.5t-71 -46.5t-50 -53t-20 -38t11 -12zM261 166q20 16 22 16q27 -3 28 -4.5
t1 -3.5t-8 -12.5t-47 -49.5q-97 -95 -97 -115q0 -8 7 -8q48 0 180 91l2 -15q-133 -87 -188 -87q-27 0 -27 25.5t31 66.5q-118 -87 -184 -88q-24 0 -24 29q0 52 66.5 111t175.5 59q36 0 62 -15z" />
    <glyph glyph-name="adieresis" unicode="&#xe4;" horiz-adv-x="359" 
d="M315 237q-16 -13 -29.5 -13t-13.5 11t16 25.5t29.5 14.5t13.5 -11q0 -14 -16 -27zM227 237q-16 -13 -29.5 -13t-13.5 11t16 25.5t29.5 14.5t13.5 -11q0 -14 -16 -27zM-7 -2q38 0 101.5 38.5t106 74.5t42.5 42t-14.5 10t-39.5 4t-66 -19.5t-71 -46.5t-50 -53t-20 -38
t11 -12zM261 166q20 16 22 16q27 -3 28 -4.5t1 -3.5t-8 -12.5t-47 -49.5q-97 -95 -97 -115q0 -8 7 -8q48 0 180 91l2 -15q-133 -87 -188 -87q-27 0 -27 25.5t31 66.5q-118 -87 -184 -88q-24 0 -24 29q0 52 66.5 111t175.5 59q36 0 62 -15z" />
    <glyph glyph-name="aring" unicode="&#xe5;" horiz-adv-x="359" 
d="M-7 -2q38 0 101.5 38.5t106 74.5t42.5 42t-14.5 10t-39.5 4t-66 -19.5t-71 -46.5t-50 -53t-20 -38t11 -12zM261 166q20 16 22 16q27 -3 28 -4.5t1 -3.5t-8 -12.5t-47 -49.5q-97 -95 -97 -115q0 -8 7 -8q48 0 180 91l2 -15q-133 -87 -188 -87q-27 0 -27 25.5t31 66.5
q-118 -87 -184 -88q-24 0 -24 29q0 52 66.5 111t175.5 59q36 0 62 -15zM308 273q0 17 -18.5 17t-30.5 -13t-12 -27q0 -17 18.5 -17t30.5 13t12 27zM247.5 285q17.5 18 46.5 18t29 -27q0 -20 -17.5 -38t-46.5 -18t-29 27q0 20 17.5 38z" />
    <glyph glyph-name="ae" unicode="&#xe6;" horiz-adv-x="432" 
d="M387 168q0 8 -16 8t-65.5 -31t-82.5 -65q67 11 115.5 40.5t48.5 47.5zM-7 -2q35 0 97 36.5t107.5 74t45.5 44t-14.5 10.5t-39.5 4t-66 -19.5t-71 -46.5t-50 -53t-20 -38t11 -12zM191 27q0 -29 40 -29q76 0 189 82l2 -15q-118 -83 -202 -83q-60 0 -60 51q0 20 15 44
q-128 -95 -194 -95q-24 0 -24 29q0 52 66.5 111t175.5 59q47 0 73 -22q62 31 116 31q25 0 25 -15q0 -24 -55.5 -56.5t-145.5 -49.5q-21 -26 -21 -42z" />
    <glyph glyph-name="ccedilla" unicode="&#xe7;" horiz-adv-x="254" 
d="M-1 21q0 -26 37.5 -26t96.5 24.5t109 60.5l2 -15q-52 -38 -116.5 -63t-109.5 -25h-1l-21 -27q14 3 27 3q58 0 58 -27q0 -18 -26.5 -34.5t-61.5 -16.5t-66 17l7 7q30 -13 56.5 -13t41.5 9.5t15 20.5t-11 18t-22 7t-29 -3l-3 7l20 33q-44 7 -44 43q0 48 75 106.5t145 58.5
q34 0 34 -25q0 -17 -12.5 -32t-31.5 -15t-19 10t11 18t24.5 8.5t13.5 9.5q0 5 -6 9.5t-15 4.5q-48 0 -113 -57.5t-65 -95.5z" />
    <glyph glyph-name="egrave" unicode="&#xe8;" horiz-adv-x="238" 
d="M222 213l-138 57q-16 5 -16 16.5t7 11.5t66.5 -30t84.5 -45zM193 168q0 8 -16 8t-65 -30.5t-83 -65.5q67 11 115.5 40.5t48.5 47.5zM-3 27q0 -29 40 -29q76 0 189 82l2 -15q-118 -83 -202 -83q-60 0 -60 50t74.5 104t153.5 54q25 0 25 -15q0 -24 -55.5 -57.5
t-145.5 -49.5q-21 -24 -21 -41z" />
    <glyph glyph-name="eacute" unicode="&#xe9;" horiz-adv-x="238" 
d="M268 270l-138 -57l-4 10q25 15 84.5 45t66.5 30t7 -11.5t-16 -16.5zM193 168q0 8 -16 8t-65 -30.5t-83 -65.5q67 11 115.5 40.5t48.5 47.5zM-3 27q0 -29 40 -29q76 0 189 82l2 -15q-118 -83 -202 -83q-60 0 -60 50t74.5 104t153.5 54q25 0 25 -15q0 -24 -55.5 -57.5
t-145.5 -49.5q-21 -24 -21 -41z" />
    <glyph glyph-name="ecircumflex" unicode="&#xea;" horiz-adv-x="238" 
d="M262 212l-11 -6l-49 69l-134 -54l-12 9l149 71q13 0 16 -5zM193 168q0 8 -16 8t-65 -30.5t-83 -65.5q67 11 115.5 40.5t48.5 47.5zM-3 27q0 -29 40 -29q76 0 189 82l2 -15q-118 -83 -202 -83q-60 0 -60 50t74.5 104t153.5 54q25 0 25 -15q0 -24 -55.5 -57.5t-145.5 -49.5
q-21 -24 -21 -41z" />
    <glyph glyph-name="edieresis" unicode="&#xeb;" horiz-adv-x="238" 
d="M234 237q-16 -13 -29.5 -13t-13.5 11t16 25.5t29.5 14.5t13.5 -11q0 -14 -16 -27zM146 237q-16 -13 -29.5 -13t-13.5 11t16 25.5t29.5 14.5t13.5 -11q0 -14 -16 -27zM193 168q0 8 -16 8t-65 -30.5t-83 -65.5q67 11 115.5 40.5t48.5 47.5zM-3 27q0 -29 40 -29q76 0 189 82
l2 -15q-118 -83 -202 -83q-60 0 -60 50t74.5 104t153.5 54q25 0 25 -15q0 -24 -55.5 -57.5t-145.5 -49.5q-21 -24 -21 -41z" />
    <glyph glyph-name="igrave" unicode="&#xec;" horiz-adv-x="168" 
d="M159 213l-138 57q-16 5 -16 16.5t7 11.5t66.5 -30t84.5 -45zM107 156q-135 -122 -135 -153q0 -10 13.5 -10t40.5 12t48 24.5t50.5 31t31.5 19.5l2 -15q-46 -30 -105 -60t-89.5 -30t-30.5 25q0 21 36 63.5t72 74.5l36 32q5 4 19 3t14 -10q0 -4 -3 -7z" />
    <glyph glyph-name="iacute" unicode="&#xed;" horiz-adv-x="168" 
d="M264 270l-138 -57l-4 10q25 15 84.5 45t66.5 30t7 -11.5t-16 -16.5zM107 156q-135 -122 -135 -153q0 -10 13.5 -10t40.5 12t48 24.5t50.5 31t31.5 19.5l2 -15q-46 -30 -105 -60t-89.5 -30t-30.5 25q0 21 36 63.5t72 74.5l36 32q5 4 19 3t14 -10q0 -4 -3 -7z" />
    <glyph glyph-name="icircumflex" unicode="&#xee;" horiz-adv-x="168" 
d="M209 212l-11 -6l-49 69l-134 -54l-12 9l149 71q13 0 16 -5zM107 156q-135 -122 -135 -153q0 -10 13.5 -10t40.5 12t48 24.5t50.5 31t31.5 19.5l2 -15q-46 -30 -105 -60t-89.5 -30t-30.5 25q0 21 36 63.5t72 74.5l36 32q5 4 19 3t14 -10q0 -4 -3 -7z" />
    <glyph glyph-name="idieresis" unicode="&#xef;" horiz-adv-x="168" 
d="M208 237q-16 -13 -29.5 -13t-13.5 11t16 25.5t29.5 14.5t13.5 -11q0 -14 -16 -27zM120 237q-16 -13 -29.5 -13t-13.5 11t16 25.5t29.5 14.5t13.5 -11q0 -14 -16 -27zM107 156q-135 -122 -135 -153q0 -10 13.5 -10t40.5 12t48 24.5t50.5 31t31.5 19.5l2 -15
q-46 -30 -105 -60t-89.5 -30t-30.5 25q0 21 36 63.5t72 74.5l36 32q5 4 19 3t14 -10q0 -4 -3 -7z" />
    <glyph glyph-name="eth" unicode="&#xf0;" horiz-adv-x="358" 
d="M11 -8q29 0 60 14t47 28l17 14q28 26 45.5 54t17.5 46t-18 18q-74 0 -131 -55.5t-57 -97.5q0 -21 19 -21zM421 291l-65 -10q-40 -70 -118.5 -163t-78.5 -121q0 -8 7 -8q48 0 180 91l2 -15q-133 -87 -188 -87q-27 0 -27 25q0 14 7 28q-79 -56 -139 -56q-43 0 -43 41
q0 52 61 108.5t147 56.5q53 0 53 -35q0 -5 -4 -21l4 4q61 68 106 147l-97 -14q-14 0 -14 8.5t8 8.5l113 15q57 106 57 178q0 96 -103 97l10 11q6 1 19 1q54 0 80 -26.5t26 -73.5q0 -75 -58 -183l61 9q3 0 3 -4q0 -12 -9 -12z" />
    <glyph glyph-name="ntilde" unicode="&#xf1;" horiz-adv-x="423" 
d="M389 269l9 -6q-22 -38 -64 -38q-22 0 -54 18.5t-53 18.5t-53 -28l-5 5q33 42 80 42q25 0 59 -16t49.5 -16t31.5 20zM181 157.5q0 -22.5 -32 -65.5q114 79 183 79q27 0 27 -23t-20 -47.5t-44 -42.5q-64 -46 -64 -58q0 -7 11.5 -7t38.5 12t48 24.5t50.5 31t31.5 19.5l2 -15
q-135 -90 -189 -90q-26 0 -26 25q0 17 21.5 40.5t46.5 43.5q69 52 69 69q0 5 -11 5q-37 0 -110 -40t-162 -130q-6 -6 -22.5 -6t-16.5 9q0 3 69 74t69 92q0 5 -6.5 5t-27 -13t-63 -41.5t-72.5 -47.5l-3 14q15 10 41 28t43 29.5t37 24.5q39 24 60 24t21 -22.5z" />
    <glyph glyph-name="ograve" unicode="&#xf2;" horiz-adv-x="313" 
d="M249 213l-138 57q-16 5 -16 16.5t7 11.5t66.5 -30t84.5 -45zM12 -8q-19 0 -19 21q0 42 57 97.5t131 55.5q14 0 17 -11q-46 -42 -46 -90v-1q-68 -72 -140 -72zM167 181q-86 0 -147 -56.5t-61 -108.5q0 -41 43 -41q72 0 152 71q10 -31 40.5 -31t62.5 21l46 29l-2 15
l-49 -32q-22 -15 -40 -15q-29 0 -29 33v8q37 42 37 72q0 35 -53 35z" />
    <glyph glyph-name="oacute" unicode="&#xf3;" horiz-adv-x="313" 
d="M262 270l-138 -57l-4 10q25 15 84.5 45t66.5 30t7 -11.5t-16 -16.5zM12 -8q72 0 140 72v1q0 48 46 90q-3 11 -17 11q-74 0 -131 -55.5t-57 -97.5q0 -21 19 -21zM167 181q53 0 53 -35q0 -30 -37 -72v-8q0 -33 29 -33q18 0 40 15l49 32l2 -15l-46 -29q-32 -21 -62.5 -21
t-40.5 31q-80 -71 -152 -71q-43 0 -43 41q0 52 61 108.5t147 56.5z" />
    <glyph glyph-name="ocircumflex" unicode="&#xf4;" horiz-adv-x="313" 
d="M260 212l-11 -6l-49 69l-134 -54l-12 9l149 71q13 0 16 -5zM12 -8q72 0 140 72v1q0 48 46 90q-3 11 -17 11q-74 0 -131 -55.5t-57 -97.5q0 -21 19 -21zM167 181q53 0 53 -35q0 -30 -37 -72v-8q0 -33 29 -33q18 0 40 15l49 32l2 -15l-46 -29q-32 -21 -62.5 -21t-40.5 31
q-80 -71 -152 -71q-43 0 -43 41q0 52 61 108.5t147 56.5z" />
    <glyph glyph-name="otilde" unicode="&#xf5;" horiz-adv-x="313" 
d="M280 269l9 -6q-22 -38 -64 -38q-21 0 -54 18.5t-53.5 18.5t-52.5 -28l-5 5q33 42 80 42q25 0 59 -16t49.5 -16t31.5 20zM12 -8q72 0 140 72v1q0 48 46 90q-3 11 -17 11q-74 0 -131 -55.5t-57 -97.5q0 -21 19 -21zM167 181q53 0 53 -35q0 -30 -37 -72v-8q0 -33 29 -33
q18 0 40 15l49 32l2 -15l-46 -29q-32 -21 -62.5 -21t-40.5 31q-80 -71 -152 -71q-43 0 -43 41q0 52 61 108.5t147 56.5z" />
    <glyph glyph-name="odieresis" unicode="&#xf6;" horiz-adv-x="313" 
d="M244 237q-16 -13 -29.5 -13t-13.5 11t16 25.5t29.5 14.5t13.5 -11q0 -14 -16 -27zM156 237q-16 -13 -29.5 -13t-13.5 11t16 25.5t29.5 14.5t13.5 -11q0 -14 -16 -27zM12 -8q72 0 140 72v1q0 48 46 90q-3 11 -17 11q-74 0 -131 -55.5t-57 -97.5q0 -21 19 -21zM167 181
q53 0 53 -35q0 -30 -37 -72v-8q0 -33 29 -33q18 0 40 15l49 32l2 -15l-46 -29q-32 -21 -62.5 -21t-40.5 31q-80 -71 -152 -71q-43 0 -43 41q0 52 61 108.5t147 56.5z" />
    <glyph glyph-name="divide" unicode="&#xf7;" horiz-adv-x="411" 
d="M265 284q0 11 18 27t32.5 16t14.5 -13q0 -15 -18 -29.5t-32.5 -14.5t-14.5 14zM148 110q0 11 18 27t32.5 16t14.5 -13q0 -15 -18 -29.5t-32.5 -14.5t-14.5 14zM394 223l-10 -16h-308l12 16h306z" />
    <glyph glyph-name="oslash" unicode="&#xf8;" horiz-adv-x="313" 
d="M181 166q-14 0 -21 -1l-125 -171q62 11 117 70v1q0 48 46 90q-3 11 -17 11zM12 -8q5 0 9 1l124 169q-62 -13 -107 -63t-45 -86q0 -21 19 -21zM254 292l-82 -111q48 -3 48 -34t-37 -73v-8q0 -33 29 -33q18 0 40 15l49 32l2 -15l-46 -29q-32 -21 -62.5 -21t-40.5 31
q-68 -59 -132 -69l-69 -94q-1 0 -8 6l63 86h-6q-43 0 -43 41q0 47 54 102q25 26 64 43.5t82 19.5l87 118z" />
    <glyph glyph-name="ugrave" unicode="&#xf9;" horiz-adv-x="355" 
d="M253 213l-138 57q-16 5 -16 16.5t7 11.5t66.5 -30t84.5 -45zM116 179.5q-10 0.5 -16.5 1t-11.5 -3.5q-130 -107 -130 -162q0 -26 22 -26q37 0 194 102q-54 -56 -54 -91q0 -25 30.5 -25t89.5 30t105 60l-2 15q-2 -1 -31.5 -19.5t-50.5 -30.5q-61 -37 -84 -37t-23 11
q0 26 140 152q3 3 3 7q0 9 -22 11l-11 -4q-11 -8 -27 -22q-213 -144 -247 -144q-6 0 -6 9t23 36t66 69q53 52 53 56.5t-10 5z" />
    <glyph glyph-name="uacute" unicode="&#xfa;" horiz-adv-x="355" 
d="M327 270l-138 -57l-4 10q25 15 84.5 45t66.5 30t7 -11.5t-16 -16.5zM88 177q5 4 27 2q11 -2 11 -4.5t-5 -8.5t-48 -48q-89 -87 -89 -109q0 -5 6 -5q34 0 247 144l27 22q5 4 19 3t14 -10q0 -4 -3 -7q-140 -126 -140 -152q0 -11 16 -11t43 12t48 24.5t50.5 31t31.5 19.5
l2 -15q-46 -30 -105 -60t-89.5 -30t-30.5 25q0 35 54 91q-157 -102 -194 -102q-22 0 -22 26q0 55 130 162z" />
    <glyph glyph-name="ucircumflex" unicode="&#xfb;" horiz-adv-x="355" 
d="M312 212l-11 -6l-49 69l-134 -54l-12 9l149 71q13 0 16 -5zM88 177q5 4 27 2q11 -2 11 -4.5t-5 -8.5t-48 -48q-89 -87 -89 -109q0 -5 6 -5q34 0 247 144l27 22q5 4 19 3t14 -10q0 -4 -3 -7q-140 -126 -140 -152q0 -11 16 -11t43 12t48 24.5t50.5 31t31.5 19.5l2 -15
q-46 -30 -105 -60t-89.5 -30t-30.5 25q0 35 54 91q-157 -102 -194 -102q-22 0 -22 26q0 55 130 162z" />
    <glyph glyph-name="udieresis" unicode="&#xfc;" horiz-adv-x="355" 
d="M286 237q-16 -13 -29.5 -13t-13.5 11t16 25.5t29.5 14.5t13.5 -11q0 -14 -16 -27zM198 237q-16 -13 -29.5 -13t-13.5 11t16 25.5t29.5 14.5t13.5 -11q0 -14 -16 -27zM88 177q5 4 27 2q11 -2 11 -4.5t-5 -8.5t-48 -48q-89 -87 -89 -109q0 -5 6 -5q34 0 247 144l27 22
q5 4 19 3t14 -10q0 -4 -3 -7q-140 -126 -140 -152q0 -11 16 -11t43 12t48 24.5t50.5 31t31.5 19.5l2 -15q-46 -30 -105 -60t-89.5 -30t-30.5 25q0 35 54 91q-157 -102 -194 -102q-22 0 -22 26q0 55 130 162z" />
    <glyph glyph-name="yacute" unicode="&#xfd;" horiz-adv-x="391" 
d="M379 270l-138 -57l-4 10q25 15 84.5 45t66.5 30t7 -11.5t-16 -16.5zM-279 -317.5q-12 -19.5 -12 -41.5t22 -22q54 0 317 268q-177 -85 -219.5 -114t-69 -50t-38.5 -40.5zM-305 -362q0 33 30 67.5t89 70.5q93 56 249 132q7 3 11 5q17 17 54.5 57t65.5 68q-90 -59 -125 -59
t-35 25q0 34 90 107q29 24 29 31.5t-8 7.5q-17 0 -56.5 -24t-49.5 -30t-29.5 -18.5t-27.5 -17.5l-3 14q137 90 176 90q26 0 26 -29q0 -31 -90 -103q-30 -24 -30 -32q0 -5 13 -5q30 0 92 39.5t104 78.5q61 57 66.5 57t17 -3t11.5 -6.5t-14 -16t-190 -188.5q98 50 153.5 84
t64.5 40l2 -15q-45 -26 -64 -39q-70 -43 -184 -98q-148 -148 -252.5 -235.5t-156.5 -87.5q-29 0 -29 33z" />
    <glyph glyph-name="thorn" unicode="&#xfe;" horiz-adv-x="401" 
d="M280 163q12 0 19 -8t7 -19q0 -22 -35.5 -52t-71 -56.5t-35.5 -40.5q0 -8 13 -8q43 0 131 50q38 21 81 51l2 -15q-34 -22 -76 -45q-24 -15 -70 -34.5t-76 -19.5t-30 27t36.5 60t73 58t36.5 31.5t-17 6.5q-46 0 -140 -58q-45 -27 -148 -122l-244 -234q-77 -75 -84.5 -82.5
t-25 -7.5t-17.5 7q0 14 555 530q-164 -111 -182 -122l-3 14q149 103 261 181q360 345 380 345q8 0 8 -9q0 -19 -232 -217l-307 -295q122 84 191 84z" />
    <glyph glyph-name="ydieresis" unicode="&#xff;" horiz-adv-x="391" 
d="M352 237q-16 -13 -29.5 -13t-13.5 11t16 25.5t29.5 14.5t13.5 -11q0 -14 -16 -27zM264 237q-16 -13 -29.5 -13t-13.5 11t16 25.5t29.5 14.5t13.5 -11q0 -14 -16 -27zM-279 -317.5q-12 -19.5 -12 -41.5t22 -22q54 0 317 268q-177 -85 -219.5 -114t-69 -50t-38.5 -40.5z
M-305 -362q0 33 30 67.5t89 70.5q93 56 249 132q7 3 11 5q17 17 54.5 57t65.5 68q-90 -59 -125 -59t-35 25q0 34 90 107q29 24 29 31.5t-8 7.5q-17 0 -56.5 -24t-49.5 -30t-29.5 -18.5t-27.5 -17.5l-3 14q137 90 176 90q26 0 26 -29q0 -31 -90 -103q-30 -24 -30 -32
q0 -5 13 -5q30 0 92 39.5t104 78.5q61 57 66.5 57t17 -3t11.5 -6.5t-14 -16t-190 -188.5q98 50 153.5 84t64.5 40l2 -15q-45 -26 -64 -39q-70 -43 -184 -98q-148 -148 -252.5 -235.5t-156.5 -87.5q-29 0 -29 33z" />
    <glyph glyph-name="Amacron" unicode="&#x100;" horiz-adv-x="639" 
d="M178 842h297v-71h-297v71zM938 120q8 46 42 102q41 -13 77 -33q-32 -17 -119 -69zM1162 43q0 -17 -7 -41q-55 -15 -94 -15q-109 0 -123 93q35 21 146 92q78 -56 78 -129zM426 62q0 64 102.5 124.5t252.5 62.5q-203 -162 -339 -229q-16 17 -16 42zM823 261l190 161
q2 1 75.5 63.5t112.5 93t108 75t121 63.5q9 3 12 3h3q1 0 0 -1q-15 -12 -90.5 -69t-116 -91t-102.5 -91q-120 -108 -178 -221q-63 13 -135 14zM1188 56q0 79 -78 132q97 57 156 57q111 0 111 -63q0 -44 -58.5 -93t-137.5 -78q7 21 7 45zM808 249q80 -3 141 -19
q-28 -63 -31 -122q-103 -62 -180.5 -94.5t-159.5 -32.5t-123 28q151 72 353 240zM640 521l1 -17h14q90 0 173.5 25.5t138.5 63.5t87.5 80.5t32.5 76.5t-28.5 53.5t-84.5 19.5q-85 0 -164 -50t-124.5 -120t-45.5 -132zM803 975l3 -12q-156 -22 -260.5 -118.5t-104.5 -194.5
q0 -58 42 -96.5t126 -47.5q-2 18 -2 28q0 50 28 103.5t76 99t120 75t142.5 29.5t101 -22.5t30.5 -61.5t-33 -84.5t-90 -86.5t-145.5 -68t-187.5 -27h-6q22 -85 147 -85q64 0 153 38t183 116l6 -8q-30 -26 -76 -57.5t-126 -65.5t-145 -34q-144 0 -172 97q-93 7 -140.5 49
t-47.5 105q0 101 106.5 201t271.5 128zM233 127v-11q71 7 126.5 53.5t55.5 92.5q0 30 -28.5 48t-86.5 18q-131 0 -215 -77t-84 -167q0 -62 46 -102t135 -40q122 0 261 62q42 -34 128 -34q174 0 348 99q15 -94 135 -94q41 0 96 15q-45 -107 -246 -177v-10q106 28 176.5 80
t95.5 114q88 29 152 82.5t64 106.5q0 33 -28 52.5t-85 19.5q-86 0 -194 -54q-38 20 -94 36q82 128 247 281t290 224q5 4 5 9q0 10 -11 10q-2 0 -14 -2q-153 -31 -471 -301q-180 -151 -241 -200q-179 -1 -282.5 -61.5t-103.5 -131.5q0 -30 21 -53q-124 -58 -218.5 -58
t-136.5 37t-42 95q0 83 74.5 155t186.5 72q48 0 71.5 -17.5t23.5 -44.5q0 -41 -45.5 -80.5t-111.5 -46.5z" />
    <glyph glyph-name="amacron" unicode="&#x101;" horiz-adv-x="561" 
d="M143 677h297v-71h-297v71zM-7 -2q38 0 101.5 38.5t106 74.5t42.5 42t-14.5 10t-39.5 4t-66 -19.5t-71 -46.5t-50 -53t-20 -38t11 -12zM261 166q20 16 22 16q27 -3 28 -4.5t1 -3.5t-8 -12.5t-47 -49.5q-97 -95 -97 -115q0 -8 7 -8q48 0 180 91l2 -15q-133 -87 -188 -87
q-27 0 -27 25.5t31 66.5q-118 -87 -184 -88q-24 0 -24 29q0 52 66.5 111t175.5 59q36 0 62 -15z" />
    <glyph glyph-name="Abreve" unicode="&#x102;" horiz-adv-x="639" 
d="M324 468l5 -5q-18 -23 -54 -48t-64 -25q-47 0 -47 76v4q3 6 8 6q11 -65 53 -65t99 57zM938 120q8 46 42 102q41 -13 77 -33q-32 -17 -119 -69zM1162 43q0 -17 -7 -41q-55 -15 -94 -15q-109 0 -123 93q35 21 146 92q78 -56 78 -129zM426 62q0 64 102.5 124.5t252.5 62.5
q-203 -162 -339 -229q-16 17 -16 42zM823 261l190 161q2 1 75.5 63.5t112.5 93t108 75t121 63.5q9 3 12 3h3q1 0 0 -1q-15 -12 -90.5 -69t-116 -91t-102.5 -91q-120 -108 -178 -221q-63 13 -135 14zM1188 56q0 79 -78 132q97 57 156 57q111 0 111 -63q0 -44 -58.5 -93
t-137.5 -78q7 21 7 45zM808 249q80 -3 141 -19q-28 -63 -31 -122q-103 -62 -180.5 -94.5t-159.5 -32.5t-123 28q151 72 353 240zM640 521l1 -17h14q90 0 173.5 25.5t138.5 63.5t87.5 80.5t32.5 76.5t-28.5 53.5t-84.5 19.5q-85 0 -164 -50t-124.5 -120t-45.5 -132zM803 975
l3 -12q-156 -22 -260.5 -118.5t-104.5 -194.5q0 -58 42 -96.5t126 -47.5q-2 18 -2 28q0 50 28 103.5t76 99t120 75t142.5 29.5t101 -22.5t30.5 -61.5t-33 -84.5t-90 -86.5t-145.5 -68t-187.5 -27h-6q22 -85 147 -85q64 0 153 38t183 116l6 -8q-30 -26 -76 -57.5t-126 -65.5
t-145 -34q-144 0 -172 97q-93 7 -140.5 49t-47.5 105q0 101 106.5 201t271.5 128zM233 127v-11q71 7 126.5 53.5t55.5 92.5q0 30 -28.5 48t-86.5 18q-131 0 -215 -77t-84 -167q0 -62 46 -102t135 -40q122 0 261 62q42 -34 128 -34q174 0 348 99q15 -94 135 -94q41 0 96 15
q-45 -107 -246 -177v-10q106 28 176.5 80t95.5 114q88 29 152 82.5t64 106.5q0 33 -28 52.5t-85 19.5q-86 0 -194 -54q-38 20 -94 36q82 128 247 281t290 224q5 4 5 9q0 10 -11 10q-2 0 -14 -2q-153 -31 -471 -301q-180 -151 -241 -200q-179 -1 -282.5 -61.5t-103.5 -131.5
q0 -30 21 -53q-124 -58 -218.5 -58t-136.5 37t-42 95q0 83 74.5 155t186.5 72q48 0 71.5 -17.5t23.5 -44.5q0 -41 -45.5 -80.5t-111.5 -46.5z" />
    <glyph glyph-name="abreve" unicode="&#x103;" horiz-adv-x="561" 
d="M289 303l5 -5q-18 -23 -54 -48t-64 -25q-47 0 -47 76v4q3 6 8 6q11 -65 53 -65t99 57zM-7 -2q38 0 101.5 38.5t106 74.5t42.5 42t-14.5 10t-39.5 4t-66 -19.5t-71 -46.5t-50 -53t-20 -38t11 -12zM261 166q20 16 22 16q27 -3 28 -4.5t1 -3.5t-8 -12.5t-47 -49.5
q-97 -95 -97 -115q0 -8 7 -8q48 0 180 91l2 -15q-133 -87 -188 -87q-27 0 -27 25.5t31 66.5q-118 -87 -184 -88q-24 0 -24 29q0 52 66.5 111t175.5 59q36 0 62 -15z" />
    <glyph glyph-name="Aogonek" unicode="&#x104;" horiz-adv-x="639" 
d="M539 -87l2 -8q-21 -7 -45.5 -7t-42 9.5t-17.5 24.5q0 26 49 55q4 0 6 -2q-25 -26 -25 -46q0 -30 44 -30q16 0 29 4zM938 120q8 46 42 102q41 -13 77 -33q-32 -17 -119 -69zM1162 43q0 -17 -7 -41q-55 -15 -94 -15q-109 0 -123 93q35 21 146 92q78 -56 78 -129zM426 62
q0 64 102.5 124.5t252.5 62.5q-203 -162 -339 -229q-16 17 -16 42zM823 261l190 161q2 1 75.5 63.5t112.5 93t108 75t121 63.5q9 3 12 3h3q1 0 0 -1q-15 -12 -90.5 -69t-116 -91t-102.5 -91q-120 -108 -178 -221q-63 13 -135 14zM1188 56q0 79 -78 132q97 57 156 57
q111 0 111 -63q0 -44 -58.5 -93t-137.5 -78q7 21 7 45zM808 249q80 -3 141 -19q-28 -63 -31 -122q-103 -62 -180.5 -94.5t-159.5 -32.5t-123 28q151 72 353 240zM640 521l1 -17h14q90 0 173.5 25.5t138.5 63.5t87.5 80.5t32.5 76.5t-28.5 53.5t-84.5 19.5q-85 0 -164 -50
t-124.5 -120t-45.5 -132zM803 975l3 -12q-156 -22 -260.5 -118.5t-104.5 -194.5q0 -58 42 -96.5t126 -47.5q-2 18 -2 28q0 50 28 103.5t76 99t120 75t142.5 29.5t101 -22.5t30.5 -61.5t-33 -84.5t-90 -86.5t-145.5 -68t-187.5 -27h-6q22 -85 147 -85q64 0 153 38t183 116
l6 -8q-30 -26 -76 -57.5t-126 -65.5t-145 -34q-144 0 -172 97q-93 7 -140.5 49t-47.5 105q0 101 106.5 201t271.5 128zM233 127v-11q71 7 126.5 53.5t55.5 92.5q0 30 -28.5 48t-86.5 18q-131 0 -215 -77t-84 -167q0 -62 46 -102t135 -40q122 0 261 62q42 -34 128 -34
q174 0 348 99q15 -94 135 -94q41 0 96 15q-45 -107 -246 -177v-10q106 28 176.5 80t95.5 114q88 29 152 82.5t64 106.5q0 33 -28 52.5t-85 19.5q-86 0 -194 -54q-38 20 -94 36q82 128 247 281t290 224q5 4 5 9q0 10 -11 10q-2 0 -14 -2q-153 -31 -471 -301
q-180 -151 -241 -200q-179 -1 -282.5 -61.5t-103.5 -131.5q0 -30 21 -53q-124 -58 -218.5 -58t-136.5 37t-42 95q0 83 74.5 155t186.5 72q48 0 71.5 -17.5t23.5 -44.5q0 -41 -45.5 -80.5t-111.5 -46.5z" />
    <glyph glyph-name="aogonek" unicode="&#x105;" horiz-adv-x="561" 
d="M409 -87l2 -8q-21 -7 -45.5 -7t-42 9.5t-17.5 24.5q0 26 49 55q4 0 6 -2q-25 -26 -25 -46q0 -30 44 -30q16 0 29 4zM-7 -2q38 0 101.5 38.5t106 74.5t42.5 42t-14.5 10t-39.5 4t-66 -19.5t-71 -46.5t-50 -53t-20 -38t11 -12zM261 166q20 16 22 16q27 -3 28 -4.5t1 -3.5
t-8 -12.5t-47 -49.5q-97 -95 -97 -115q0 -8 7 -8q48 0 180 91l2 -15q-133 -87 -188 -87q-27 0 -27 25.5t31 66.5q-118 -87 -184 -88q-24 0 -24 29q0 52 66.5 111t175.5 59q36 0 62 -15z" />
    <glyph glyph-name="Cacute" unicode="&#x106;" horiz-adv-x="631" 
d="M510 234q-17 -53 -17 -85.5t5 -54.5q114 69 160 94q-63 35 -148 46zM677 176l-170 -109q41 -88 187 -88q29 0 66 7q7 24 7 43q0 88 -90 147zM967 177q0 33 -23 53t-68 20q-74 0 -181 -63q107 -68 107 -167q0 -13 -3 -24q76 25 122 78t46 103zM388 553q103 0 197.5 36
t147 84.5t52.5 89.5q0 60 -118.5 60t-211.5 -81t-116 -187q30 -2 49 -2zM407 241q-181 0 -279 -56t-98 -125q0 -41 37.5 -68t104.5 -27q107 0 288 107q-15 33 -15 77.5t12 89.5q-32 2 -50 2zM577 313q110 0 226 40t199.5 96.5t137 117.5t53.5 104q0 57 -97 57t-209.5 -62.5
t-201 -156t-141.5 -195.5q11 -1 33 -1zM431 975l3 -15q-112 -19 -189 -98t-77 -162q0 -53 37.5 -91.5t114.5 -50.5q26 113 125.5 199t231.5 86q62 0 93.5 -20.5t31.5 -54.5q0 -75 -122.5 -150.5t-299.5 -75.5q-30 0 -44 1q-3 -21 -3 -41q0 -66 38.5 -114.5t117.5 -65.5
q37 78 100 152t143 134.5t179.5 97.5t203 37t103.5 -67q0 -47 -55.5 -111.5t-143 -124.5t-210.5 -101.5t-243 -41.5q-20 0 -30 1q-12 -26 -21 -51q95 -13 161 -50q129 67 217 67q49 0 74.5 -22.5t25.5 -59.5q0 -56 -53.5 -115.5t-143.5 -85.5q-23 -75 -114 -131.5
t-215 -56.5q-51 0 -108 12l10 9q38 -7 80 -7q109 0 193 47.5t113 117.5q-42 -7 -75 -7q-151 0 -206 83q-168 -96 -308 -96q-76 0 -121 32.5t-45 79.5q0 74 106.5 132t308.5 58q16 0 46 -2q11 32 20 53q-85 18 -126.5 70t-41.5 123q0 26 4 47q-92 11 -137.5 52.5t-45.5 99.5
q0 86 84.5 169.5t212.5 108.5zM488 435l-138 -57l-4 10q25 15 84.5 45t66.5 30t7 -11.5t-16 -16.5z" />
    <glyph glyph-name="cacute" unicode="&#x107;" horiz-adv-x="479" 
d="M-1 21q0 -26 37.5 -26t96.5 24.5t109 60.5l2 -15q-52 -38 -116.5 -63t-109.5 -25q-60 0 -60 44q0 48 75 106.5t145 58.5q34 0 34 -25q0 -17 -12.5 -32t-31.5 -15t-19 10t11 18t24.5 8.5t13.5 9.5q0 5 -6 9.5t-15 4.5q-48 0 -113 -57.5t-65 -95.5zM394 270l-138 -57l-4 10
q25 15 84.5 45t66.5 30t7 -11.5t-16 -16.5z" />
    <glyph glyph-name="Ccircumflex" unicode="&#x108;" horiz-adv-x="631" 
d="M423 377l-11 -6l-49 69l-134 -54l-12 9l149 71q13 0 16 -5zM510 234q-17 -53 -17 -85.5t5 -54.5q114 69 160 94q-63 35 -148 46zM677 176l-170 -109q41 -88 187 -88q29 0 66 7q7 24 7 43q0 88 -90 147zM967 177q0 33 -23 53t-68 20q-74 0 -181 -63q107 -68 107 -167
q0 -13 -3 -24q76 25 122 78t46 103zM388 553q103 0 197.5 36t147 84.5t52.5 89.5q0 60 -118.5 60t-211.5 -81t-116 -187q30 -2 49 -2zM407 241q-181 0 -279 -56t-98 -125q0 -41 37.5 -68t104.5 -27q107 0 288 107q-15 33 -15 77.5t12 89.5q-32 2 -50 2zM577 313
q110 0 226 40t199.5 96.5t137 117.5t53.5 104q0 57 -97 57t-209.5 -62.5t-201 -156t-141.5 -195.5q11 -1 33 -1zM431 975l3 -15q-112 -19 -189 -98t-77 -162q0 -53 37.5 -91.5t114.5 -50.5q26 113 125.5 199t231.5 86q62 0 93.5 -20.5t31.5 -54.5q0 -75 -122.5 -150.5
t-299.5 -75.5q-30 0 -44 1q-3 -21 -3 -41q0 -66 38.5 -114.5t117.5 -65.5q37 78 100 152t143 134.5t179.5 97.5t203 37t103.5 -67q0 -47 -55.5 -111.5t-143 -124.5t-210.5 -101.5t-243 -41.5q-20 0 -30 1q-12 -26 -21 -51q95 -13 161 -50q129 67 217 67q49 0 74.5 -22.5
t25.5 -59.5q0 -56 -53.5 -115.5t-143.5 -85.5q-23 -75 -114 -131.5t-215 -56.5q-51 0 -108 12l10 9q38 -7 80 -7q109 0 193 47.5t113 117.5q-42 -7 -75 -7q-151 0 -206 83q-168 -96 -308 -96q-76 0 -121 32.5t-45 79.5q0 74 106.5 132t308.5 58q16 0 46 -2q11 32 20 53
q-85 18 -126.5 70t-41.5 123q0 26 4 47q-92 11 -137.5 52.5t-45.5 99.5q0 86 84.5 169.5t212.5 108.5z" />
    <glyph glyph-name="ccircumflex" unicode="&#x109;" horiz-adv-x="479" 
d="M321 212l-11 -6l-49 69l-134 -54l-12 9l149 71q13 0 16 -5zM-1 21q0 -26 37.5 -26t96.5 24.5t109 60.5l2 -15q-52 -38 -116.5 -63t-109.5 -25q-60 0 -60 44q0 48 75 106.5t145 58.5q34 0 34 -25q0 -17 -12.5 -32t-31.5 -15t-19 10t11 18t24.5 8.5t13.5 9.5q0 5 -6 9.5
t-15 4.5q-48 0 -113 -57.5t-65 -95.5z" />
    <glyph glyph-name="Cdotaccent" unicode="&#x10a;" horiz-adv-x="631" 
d="M435 402q-16 -13 -29.5 -13t-13.5 11t16 25.5t29.5 14.5t13.5 -11q0 -14 -16 -27zM510 234q-17 -53 -17 -85.5t5 -54.5q114 69 160 94q-63 35 -148 46zM677 176l-170 -109q41 -88 187 -88q29 0 66 7q7 24 7 43q0 88 -90 147zM967 177q0 33 -23 53t-68 20q-74 0 -181 -63
q107 -68 107 -167q0 -13 -3 -24q76 25 122 78t46 103zM388 553q103 0 197.5 36t147 84.5t52.5 89.5q0 60 -118.5 60t-211.5 -81t-116 -187q30 -2 49 -2zM407 241q-181 0 -279 -56t-98 -125q0 -41 37.5 -68t104.5 -27q107 0 288 107q-15 33 -15 77.5t12 89.5q-32 2 -50 2z
M577 313q110 0 226 40t199.5 96.5t137 117.5t53.5 104q0 57 -97 57t-209.5 -62.5t-201 -156t-141.5 -195.5q11 -1 33 -1zM431 975l3 -15q-112 -19 -189 -98t-77 -162q0 -53 37.5 -91.5t114.5 -50.5q26 113 125.5 199t231.5 86q62 0 93.5 -20.5t31.5 -54.5
q0 -75 -122.5 -150.5t-299.5 -75.5q-30 0 -44 1q-3 -21 -3 -41q0 -66 38.5 -114.5t117.5 -65.5q37 78 100 152t143 134.5t179.5 97.5t203 37t103.5 -67q0 -47 -55.5 -111.5t-143 -124.5t-210.5 -101.5t-243 -41.5q-20 0 -30 1q-12 -26 -21 -51q95 -13 161 -50q129 67 217 67
q49 0 74.5 -22.5t25.5 -59.5q0 -56 -53.5 -115.5t-143.5 -85.5q-23 -75 -114 -131.5t-215 -56.5q-51 0 -108 12l10 9q38 -7 80 -7q109 0 193 47.5t113 117.5q-42 -7 -75 -7q-151 0 -206 83q-168 -96 -308 -96q-76 0 -121 32.5t-45 79.5q0 74 106.5 132t308.5 58q16 0 46 -2
q11 32 20 53q-85 18 -126.5 70t-41.5 123q0 26 4 47q-92 11 -137.5 52.5t-45.5 99.5q0 86 84.5 169.5t212.5 108.5z" />
    <glyph glyph-name="cdotaccent" unicode="&#x10b;" horiz-adv-x="479" 
d="M339 237q-16 -13 -29.5 -13t-13.5 11t16 25.5t29.5 14.5t13.5 -11q0 -14 -16 -27zM-1 21q0 -26 37.5 -26t96.5 24.5t109 60.5l2 -15q-52 -38 -116.5 -63t-109.5 -25q-60 0 -60 44q0 48 75 106.5t145 58.5q34 0 34 -25q0 -17 -12.5 -32t-31.5 -15t-19 10t11 18t24.5 8.5
t13.5 9.5q0 5 -6 9.5t-15 4.5q-48 0 -113 -57.5t-65 -95.5z" />
    <glyph glyph-name="Ccaron" unicode="&#x10c;" horiz-adv-x="631" 
d="M217 461l11 6l49 -69l134 54l12 -9l-149 -71q-13 0 -16 5zM510 234q-17 -53 -17 -85.5t5 -54.5q114 69 160 94q-63 35 -148 46zM677 176l-170 -109q41 -88 187 -88q29 0 66 7q7 24 7 43q0 88 -90 147zM967 177q0 33 -23 53t-68 20q-74 0 -181 -63q107 -68 107 -167
q0 -13 -3 -24q76 25 122 78t46 103zM388 553q103 0 197.5 36t147 84.5t52.5 89.5q0 60 -118.5 60t-211.5 -81t-116 -187q30 -2 49 -2zM407 241q-181 0 -279 -56t-98 -125q0 -41 37.5 -68t104.5 -27q107 0 288 107q-15 33 -15 77.5t12 89.5q-32 2 -50 2zM577 313
q110 0 226 40t199.5 96.5t137 117.5t53.5 104q0 57 -97 57t-209.5 -62.5t-201 -156t-141.5 -195.5q11 -1 33 -1zM431 975l3 -15q-112 -19 -189 -98t-77 -162q0 -53 37.5 -91.5t114.5 -50.5q26 113 125.5 199t231.5 86q62 0 93.5 -20.5t31.5 -54.5q0 -75 -122.5 -150.5
t-299.5 -75.5q-30 0 -44 1q-3 -21 -3 -41q0 -66 38.5 -114.5t117.5 -65.5q37 78 100 152t143 134.5t179.5 97.5t203 37t103.5 -67q0 -47 -55.5 -111.5t-143 -124.5t-210.5 -101.5t-243 -41.5q-20 0 -30 1q-12 -26 -21 -51q95 -13 161 -50q129 67 217 67q49 0 74.5 -22.5
t25.5 -59.5q0 -56 -53.5 -115.5t-143.5 -85.5q-23 -75 -114 -131.5t-215 -56.5q-51 0 -108 12l10 9q38 -7 80 -7q109 0 193 47.5t113 117.5q-42 -7 -75 -7q-151 0 -206 83q-168 -96 -308 -96q-76 0 -121 32.5t-45 79.5q0 74 106.5 132t308.5 58q16 0 46 -2q11 32 20 53
q-85 18 -126.5 70t-41.5 123q0 26 4 47q-92 11 -137.5 52.5t-45.5 99.5q0 86 84.5 169.5t212.5 108.5z" />
    <glyph glyph-name="ccaron" unicode="&#x10d;" horiz-adv-x="479" 
d="M119 296l11 6l49 -69l134 54l12 -9l-149 -71q-13 0 -16 5zM-1 21q0 -26 37.5 -26t96.5 24.5t109 60.5l2 -15q-52 -38 -116.5 -63t-109.5 -25q-60 0 -60 44q0 48 75 106.5t145 58.5q34 0 34 -25q0 -17 -12.5 -32t-31.5 -15t-19 10t11 18t24.5 8.5t13.5 9.5q0 5 -6 9.5
t-15 4.5q-48 0 -113 -57.5t-65 -95.5z" />
    <glyph glyph-name="Dcaron" unicode="&#x10e;" horiz-adv-x="729" 
d="M167 461l11 6l49 -69l134 54l12 -9l-149 -71q-13 0 -16 5zM23 21q0 -28 51.5 -54.5t132 -26.5t175.5 46q-25 6 -93 26q-131 37 -198.5 37t-67.5 -28zM491 453q0 -58 90 -58q46 0 104 26t110 68t87.5 105t35.5 129q0 21 -5 41q-78 -12 -157.5 -49t-136 -83t-92.5 -95
t-36 -84zM458 -9q62 -12 106 -12q90 0 180.5 27t165.5 72.5t140.5 105.5t110.5 124q97 140 97 256q0 62 -30 109q-111 -85 -358 -347q-85 -89 -198.5 -185t-213.5 -150zM748 873q-103 0 -233 -55t-196 -121l-13 8q91 78 219 131t232 53q142 0 172 -103q32 3 64 3
q156 0 235 -87q125 77 230 77q63 0 99 -28t36 -69.5t-32.5 -81.5t-95.5 -69l-2 11q50 20 80.5 59t30.5 77.5t-32.5 63t-97.5 24.5q-90 0 -201 -82q44 -62 44 -142t-31.5 -159t-95.5 -154t-151 -134.5t-208.5 -96t-256.5 -36.5q-55 0 -117 13q-129 -62 -252 -62
q-74 0 -126.5 32.5t-52.5 67.5q0 23 25.5 37t74.5 14t97 -9t123.5 -29.5t95.5 -25.5q92 50 203.5 147t200 190t199.5 196t197 159q-70 78 -230 78q-25 0 -49 -3q3 -15 3 -33q0 -73 -38 -142t-94 -116t-118.5 -75t-110.5 -28t-72 23.5t-24 65t28.5 92t80 98.5t136 84.5
t184.5 47.5q-32 89 -160 89z" />
    <glyph glyph-name="dcaron" unicode="&#x10f;" horiz-adv-x="615" 
d="M575 612q11 32 20.5 77.5t12.5 70.5h87v-9q-6 -26 -27 -71t-45 -80h-48v12zM-7 -2q35 0 97 36.5t107.5 74t45.5 44t-14.5 10.5t-39.5 4t-66 -19.5t-71 -46.5t-50 -53t-20 -38t11 -12zM406 263.5q-56 -55.5 -88.5 -89t-54 -54.5t-36.5 -36.5t-32 -33.5t-26 -31.5t-9 -21.5
t7 -8q48 0 180 91l2 -15q-133 -87 -188 -87q-27 0 -27 25q0 27 32 67q-118 -87 -185 -88q-24 0 -24 29q0 52 66.5 111t175.5 59q37 0 63 -15q5 4 12 11l418 405q6 6 24 6t18 -11q0 -4 -4.5 -8.5t-29.5 -26.5t-48.5 -43.5t-65.5 -60.5t-83 -79t-97 -95.5z" />
    <glyph glyph-name="Dcroat" unicode="&#x110;" horiz-adv-x="729" 
d="M23 21q0 -28 51.5 -54.5t132 -26.5t175.5 46q-25 6 -93 26q-131 37 -198.5 37t-67.5 -28zM491 453q0 -58 90 -58q46 0 104 26t110 68t87.5 105t35.5 129q0 21 -5 41q-78 -12 -157.5 -49t-136 -83t-92.5 -95t-36 -84zM458 -9q62 -12 106 -12q90 0 180.5 27t165.5 72.5
t140.5 105.5t110.5 124q97 140 97 256q0 62 -30 109q-54 -41 -112.5 -96.5t-149 -149.5t-124.5 -128h168q3 0 3 -4q0 -12 -9 -12h-179q-207 -207 -367 -292zM748 873q-103 0 -233 -55t-196 -121l-13 8q91 78 219 131t232 53q142 0 172 -103q32 3 64 3q156 0 235 -87
q125 77 230 77q63 0 99 -28t36 -69.5t-32.5 -81.5t-95.5 -69l-2 11q50 20 80.5 59t30.5 77.5t-32.5 63t-97.5 24.5q-90 0 -201 -82q44 -62 44 -142t-31.5 -159t-95.5 -154t-151 -134.5t-208.5 -96t-256.5 -36.5q-55 0 -117 13q-129 -62 -252 -62q-74 0 -126.5 32.5
t-52.5 67.5q0 23 25.5 37t74.5 14t97 -9t123.5 -29.5t95.5 -25.5q137 74 349 282h-154q-14 0 -14 8.5t8 8.5h176q16 16 83.5 84t94.5 94t80 75q88 81 177 140q-70 78 -230 78q-25 0 -49 -3q3 -15 3 -33q0 -73 -38 -142t-94 -116t-118.5 -75t-110.5 -28t-72 23.5t-24 65
t28.5 92t80 98.5t136 84.5t184.5 47.5q-32 89 -160 89z" />
    <glyph glyph-name="dcroat" unicode="&#x111;" horiz-adv-x="617" 
d="M275 -10q-104 0 -162 72t-58 203q0 132 57.5 205t162.5 73q109 0 167 -79h6q-1 7 -3.5 33.5t-2.5 46.5v61h-213v66h213v89h88v-89h76v-66h-76v-605h-72l-13 72h-4q-56 -82 -166 -82zM290 63q80 0 116.5 43t36.5 142v17q0 112 -37 158.5t-118 46.5q-68 0 -104.5 -52
t-36.5 -154q0 -96 35 -148.5t108 -52.5z" />
    <glyph glyph-name="Emacron" unicode="&#x112;" horiz-adv-x="556" 
d="M148 842h297v-71h-297v71zM950 354q23 0 37.5 6t14.5 13q0 14 -54 14t-108 -9q38 -24 110 -24zM501 96v-10q12 7 74 44t94 55q-48 26 -116 41q-52 -64 -52 -130zM654 -27q49 0 98 13q15 30 15 62q0 71 -76 123q-15 -9 -53 -33q-74 -48 -132 -80q27 -85 148 -85zM954 176
q0 30 -22 48t-73 18t-154 -62q77 -55 77 -131q0 -30 -12 -57q81 26 132.5 80.5t51.5 103.5zM1245 682q0 46 -100 46q-77 0 -158 -46.5t-132 -112t-52 -120.5q111 11 216.5 54t165.5 92.5t60 86.5zM529 622q80 0 159 23t134.5 56t90.5 70.5t35 67.5q0 54 -107 54
q-135 0 -235.5 -85.5t-110.5 -184.5q11 -1 34 -1zM378 243q-169 0 -260.5 -53t-91.5 -119q0 -42 40 -71t109 -29q118 0 280 89q-4 13 -4 31q0 70 64 142q-68 10 -137 10zM563 238q69 -14 121 -45q114 61 180.5 61t97.5 -22t31 -58q0 -56 -65 -115.5t-167 -84.5
q-32 -60 -112 -108t-200 -73l-1 13q111 25 185.5 67.5t108.5 95.5q-52 -10 -99 -10q-138 0 -179 77q-157 -76 -304 -76q-74 0 -117 31t-43 77q0 72 102 129.5t294 57.5q75 0 131 -10q102 104 285 140q-20 19 -30 47q-20 -2 -59 -2q-125 0 -186.5 48.5t-61.5 124.5v9
q-101 9 -150.5 51t-49.5 103q0 86 84.5 169.5t212.5 108.5l3 -15q-112 -19 -189 -98t-77 -162q0 -56 41.5 -95.5t125.5 -48.5q12 108 119 198t252 90q118 0 118 -68q0 -34 -33.5 -74t-90 -76t-142 -60t-178.5 -24h-27v-5q0 -70 59.5 -115t180.5 -45q29 0 44 1q-3 15 -3 31
q0 45 25 91t71 85t120 64t163 25q117 0 117 -54q0 -41 -64 -95t-175.5 -100t-228.5 -59q5 -28 25 -47q66 11 132.5 11t66.5 -21q0 -13 -26 -25t-59 -12q-76 0 -119 34q-167 -32 -260 -137z" />
    <glyph glyph-name="emacron" unicode="&#x113;" horiz-adv-x="563" 
d="M150 677h297v-71h-297v71zM193 168q0 8 -16 8t-65 -30.5t-83 -65.5q67 11 115.5 40.5t48.5 47.5zM-3 27q0 -29 40 -29q76 0 189 82l2 -15q-118 -83 -202 -83q-60 0 -60 50t74.5 104t153.5 54q25 0 25 -15q0 -24 -55.5 -57.5t-145.5 -49.5q-21 -24 -21 -41z" />
    <glyph glyph-name="Ebreve" unicode="&#x114;" horiz-adv-x="556" 
d="M307 468l5 -5q-18 -23 -54 -48t-64 -25q-47 0 -47 76v4q3 6 8 6q11 -65 53 -65t99 57zM950 354q23 0 37.5 6t14.5 13q0 14 -54 14t-108 -9q38 -24 110 -24zM501 96v-10q12 7 74 44t94 55q-48 26 -116 41q-52 -64 -52 -130zM654 -27q49 0 98 13q15 30 15 62q0 71 -76 123
q-15 -9 -53 -33q-74 -48 -132 -80q27 -85 148 -85zM954 176q0 30 -22 48t-73 18t-154 -62q77 -55 77 -131q0 -30 -12 -57q81 26 132.5 80.5t51.5 103.5zM1245 682q0 46 -100 46q-77 0 -158 -46.5t-132 -112t-52 -120.5q111 11 216.5 54t165.5 92.5t60 86.5zM529 622
q80 0 159 23t134.5 56t90.5 70.5t35 67.5q0 54 -107 54q-135 0 -235.5 -85.5t-110.5 -184.5q11 -1 34 -1zM378 243q-169 0 -260.5 -53t-91.5 -119q0 -42 40 -71t109 -29q118 0 280 89q-4 13 -4 31q0 70 64 142q-68 10 -137 10zM563 238q69 -14 121 -45q114 61 180.5 61
t97.5 -22t31 -58q0 -56 -65 -115.5t-167 -84.5q-32 -60 -112 -108t-200 -73l-1 13q111 25 185.5 67.5t108.5 95.5q-52 -10 -99 -10q-138 0 -179 77q-157 -76 -304 -76q-74 0 -117 31t-43 77q0 72 102 129.5t294 57.5q75 0 131 -10q102 104 285 140q-20 19 -30 47
q-20 -2 -59 -2q-125 0 -186.5 48.5t-61.5 124.5v9q-101 9 -150.5 51t-49.5 103q0 86 84.5 169.5t212.5 108.5l3 -15q-112 -19 -189 -98t-77 -162q0 -56 41.5 -95.5t125.5 -48.5q12 108 119 198t252 90q118 0 118 -68q0 -34 -33.5 -74t-90 -76t-142 -60t-178.5 -24h-27v-5
q0 -70 59.5 -115t180.5 -45q29 0 44 1q-3 15 -3 31q0 45 25 91t71 85t120 64t163 25q117 0 117 -54q0 -41 -64 -95t-175.5 -100t-228.5 -59q5 -28 25 -47q66 11 132.5 11t66.5 -21q0 -13 -26 -25t-59 -12q-76 0 -119 34q-167 -32 -260 -137z" />
    <glyph glyph-name="ebreve" unicode="&#x115;" horiz-adv-x="563" 
d="M300 303l5 -5q-18 -23 -54 -48t-64 -25q-47 0 -47 76v4q3 6 8 6q11 -65 53 -65t99 57zM193 168q0 8 -16 8t-65 -30.5t-83 -65.5q67 11 115.5 40.5t48.5 47.5zM-3 27q0 -29 40 -29q76 0 189 82l2 -15q-118 -83 -202 -83q-60 0 -60 50t74.5 104t153.5 54q25 0 25 -15
q0 -24 -55.5 -57.5t-145.5 -49.5q-21 -24 -21 -41z" />
    <glyph glyph-name="Edotaccent" unicode="&#x116;" horiz-adv-x="556" 
d="M351 388q-16 -13 -29.5 -13t-13.5 11t16 25.5t29.5 14.5t13.5 -11q0 -14 -16 -27zM950 354q23 0 37.5 6t14.5 13q0 14 -54 14t-108 -9q38 -24 110 -24zM501 96v-10q12 7 74 44t94 55q-48 26 -116 41q-52 -64 -52 -130zM654 -27q49 0 98 13q15 30 15 62q0 71 -76 123
q-15 -9 -53 -33q-74 -48 -132 -80q27 -85 148 -85zM954 176q0 30 -22 48t-73 18t-154 -62q77 -55 77 -131q0 -30 -12 -57q81 26 132.5 80.5t51.5 103.5zM1245 682q0 46 -100 46q-77 0 -158 -46.5t-132 -112t-52 -120.5q111 11 216.5 54t165.5 92.5t60 86.5zM529 622
q80 0 159 23t134.5 56t90.5 70.5t35 67.5q0 54 -107 54q-135 0 -235.5 -85.5t-110.5 -184.5q11 -1 34 -1zM378 243q-169 0 -260.5 -53t-91.5 -119q0 -42 40 -71t109 -29q118 0 280 89q-4 13 -4 31q0 70 64 142q-68 10 -137 10zM563 238q69 -14 121 -45q114 61 180.5 61
t97.5 -22t31 -58q0 -56 -65 -115.5t-167 -84.5q-32 -60 -112 -108t-200 -73l-1 13q111 25 185.5 67.5t108.5 95.5q-52 -10 -99 -10q-138 0 -179 77q-157 -76 -304 -76q-74 0 -117 31t-43 77q0 72 102 129.5t294 57.5q75 0 131 -10q102 104 285 140q-20 19 -30 47
q-20 -2 -59 -2q-125 0 -186.5 48.5t-61.5 124.5v9q-101 9 -150.5 51t-49.5 103q0 86 84.5 169.5t212.5 108.5l3 -15q-112 -19 -189 -98t-77 -162q0 -56 41.5 -95.5t125.5 -48.5q12 108 119 198t252 90q118 0 118 -68q0 -34 -33.5 -74t-90 -76t-142 -60t-178.5 -24h-27v-5
q0 -70 59.5 -115t180.5 -45q29 0 44 1q-3 15 -3 31q0 45 25 91t71 85t120 64t163 25q117 0 117 -54q0 -41 -64 -95t-175.5 -100t-228.5 -59q5 -28 25 -47q66 11 132.5 11t66.5 -21q0 -13 -26 -25t-59 -12q-76 0 -119 34q-167 -32 -260 -137z" />
    <glyph glyph-name="edotaccent" unicode="&#x117;" horiz-adv-x="563" 
d="M341 237q-16 -13 -29.5 -13t-13.5 11t16 25.5t29.5 14.5t13.5 -11q0 -14 -16 -27zM193 168q0 8 -16 8t-65 -30.5t-83 -65.5q67 11 115.5 40.5t48.5 47.5zM-3 27q0 -29 40 -29q76 0 189 82l2 -15q-118 -83 -202 -83q-60 0 -60 50t74.5 104t153.5 54q25 0 25 -15
q0 -24 -55.5 -57.5t-145.5 -49.5q-21 -24 -21 -41z" />
    <glyph glyph-name="Eogonek" unicode="&#x118;" horiz-adv-x="556" 
d="M391 -87l2 -8q-21 -7 -45.5 -7t-42 9.5t-17.5 24.5q0 26 49 55q4 0 6 -2q-25 -26 -25 -46q0 -30 44 -30q16 0 29 4zM950 354q23 0 37.5 6t14.5 13q0 14 -54 14t-108 -9q38 -24 110 -24zM501 96v-10q12 7 74 44t94 55q-48 26 -116 41q-52 -64 -52 -130zM654 -27
q49 0 98 13q15 30 15 62q0 71 -76 123q-15 -9 -53 -33q-74 -48 -132 -80q27 -85 148 -85zM954 176q0 30 -22 48t-73 18t-154 -62q77 -55 77 -131q0 -30 -12 -57q81 26 132.5 80.5t51.5 103.5zM1245 682q0 46 -100 46q-77 0 -158 -46.5t-132 -112t-52 -120.5q111 11 216.5 54
t165.5 92.5t60 86.5zM529 622q80 0 159 23t134.5 56t90.5 70.5t35 67.5q0 54 -107 54q-135 0 -235.5 -85.5t-110.5 -184.5q11 -1 34 -1zM378 243q-169 0 -260.5 -53t-91.5 -119q0 -42 40 -71t109 -29q118 0 280 89q-4 13 -4 31q0 70 64 142q-68 10 -137 10zM563 238
q69 -14 121 -45q114 61 180.5 61t97.5 -22t31 -58q0 -56 -65 -115.5t-167 -84.5q-32 -60 -112 -108t-200 -73l-1 13q111 25 185.5 67.5t108.5 95.5q-52 -10 -99 -10q-138 0 -179 77q-157 -76 -304 -76q-74 0 -117 31t-43 77q0 72 102 129.5t294 57.5q75 0 131 -10
q102 104 285 140q-20 19 -30 47q-20 -2 -59 -2q-125 0 -186.5 48.5t-61.5 124.5v9q-101 9 -150.5 51t-49.5 103q0 86 84.5 169.5t212.5 108.5l3 -15q-112 -19 -189 -98t-77 -162q0 -56 41.5 -95.5t125.5 -48.5q12 108 119 198t252 90q118 0 118 -68q0 -34 -33.5 -74t-90 -76
t-142 -60t-178.5 -24h-27v-5q0 -70 59.5 -115t180.5 -45q29 0 44 1q-3 15 -3 31q0 45 25 91t71 85t120 64t163 25q117 0 117 -54q0 -41 -64 -95t-175.5 -100t-228.5 -59q5 -28 25 -47q66 11 132.5 11t66.5 -21q0 -13 -26 -25t-59 -12q-76 0 -119 34q-167 -32 -260 -137z" />
    <glyph glyph-name="eogonek" unicode="&#x119;" horiz-adv-x="563" 
d="M386 -73l2 -8q-21 -7 -45.5 -7t-42 9.5t-17.5 24.5q0 26 49 55q4 0 6 -2q-25 -26 -25 -46q0 -30 44 -30q16 0 29 4zM193 168q0 8 -16 8t-65 -30.5t-83 -65.5q67 11 115.5 40.5t48.5 47.5zM-3 27q0 -29 40 -29q76 0 189 82l2 -15q-118 -83 -202 -83q-60 0 -60 50t74.5 104
t153.5 54q25 0 25 -15q0 -24 -55.5 -57.5t-145.5 -49.5q-21 -24 -21 -41z" />
    <glyph glyph-name="Ecaron" unicode="&#x11a;" horiz-adv-x="556" 
d="M130 461l11 6l49 -69l134 54l12 -9l-149 -71q-13 0 -16 5zM950 354q23 0 37.5 6t14.5 13q0 14 -54 14t-108 -9q38 -24 110 -24zM501 96v-10q12 7 74 44t94 55q-48 26 -116 41q-52 -64 -52 -130zM654 -27q49 0 98 13q15 30 15 62q0 71 -76 123q-15 -9 -53 -33
q-74 -48 -132 -80q27 -85 148 -85zM954 176q0 30 -22 48t-73 18t-154 -62q77 -55 77 -131q0 -30 -12 -57q81 26 132.5 80.5t51.5 103.5zM1245 682q0 46 -100 46q-77 0 -158 -46.5t-132 -112t-52 -120.5q111 11 216.5 54t165.5 92.5t60 86.5zM529 622q80 0 159 23t134.5 56
t90.5 70.5t35 67.5q0 54 -107 54q-135 0 -235.5 -85.5t-110.5 -184.5q11 -1 34 -1zM378 243q-169 0 -260.5 -53t-91.5 -119q0 -42 40 -71t109 -29q118 0 280 89q-4 13 -4 31q0 70 64 142q-68 10 -137 10zM563 238q69 -14 121 -45q114 61 180.5 61t97.5 -22t31 -58
q0 -56 -65 -115.5t-167 -84.5q-32 -60 -112 -108t-200 -73l-1 13q111 25 185.5 67.5t108.5 95.5q-52 -10 -99 -10q-138 0 -179 77q-157 -76 -304 -76q-74 0 -117 31t-43 77q0 72 102 129.5t294 57.5q75 0 131 -10q102 104 285 140q-20 19 -30 47q-20 -2 -59 -2
q-125 0 -186.5 48.5t-61.5 124.5v9q-101 9 -150.5 51t-49.5 103q0 86 84.5 169.5t212.5 108.5l3 -15q-112 -19 -189 -98t-77 -162q0 -56 41.5 -95.5t125.5 -48.5q12 108 119 198t252 90q118 0 118 -68q0 -34 -33.5 -74t-90 -76t-142 -60t-178.5 -24h-27v-5q0 -70 59.5 -115
t180.5 -45q29 0 44 1q-3 15 -3 31q0 45 25 91t71 85t120 64t163 25q117 0 117 -54q0 -41 -64 -95t-175.5 -100t-228.5 -59q5 -28 25 -47q66 11 132.5 11t66.5 -21q0 -13 -26 -25t-59 -12q-76 0 -119 34q-167 -32 -260 -137z" />
    <glyph glyph-name="ecaron" unicode="&#x11b;" horiz-adv-x="563" 
d="M123 296l11 6l49 -69l134 54l12 -9l-149 -71q-13 0 -16 5zM193 168q0 8 -16 8t-65 -30.5t-83 -65.5q67 11 115.5 40.5t48.5 47.5zM-3 27q0 -29 40 -29q76 0 189 82l2 -15q-118 -83 -202 -83q-60 0 -60 50t74.5 104t153.5 54q25 0 25 -15q0 -24 -55.5 -57.5t-145.5 -49.5
q-21 -24 -21 -41z" />
    <glyph glyph-name="Gcircumflex" unicode="&#x11c;" horiz-adv-x="728" 
d="M451 377l-11 -6l-49 69l-134 -54l-12 9l149 71q13 0 16 -5zM304 219q52 6 122.5 6t141.5 -13q23 41 23 73q0 63 -84 63q-52 0 -106.5 -36t-96.5 -93zM24 42q0 -36 35.5 -59.5t86.5 -23.5t96 10q-27 30 -27 78q0 74 56 156q-118 -18 -182.5 -65t-64.5 -96zM595 191
q-40 -72 -124.5 -135.5t-191.5 -90.5q33 -22 100.5 -22t169 47.5t167.5 107.5l24 21q-50 47 -145 72zM561 199q-72 14 -145 14t-121 -6q-58 -86 -58 -157q0 -47 29 -75q92 27 172.5 91t122.5 133zM441 622q80 0 159 23t134.5 56t90.5 70.5t35 67.5q0 54 -107 54
q-127 0 -229.5 -83t-128.5 -186q14 -2 46 -2zM1164 698q0 49 -93 49q-75 0 -165.5 -55t-158 -133t-87.5 -146q90 7 184.5 40t163 76.5t112.5 89.5t44 79zM1090 425q5 -2 5 -7v-2q-7 -6 -16 -13q-18 -18 -47 -39q-38 -30 -60.5 -52.5t-88 -101t-103.5 -113.5q24 -37 24 -78
q0 -80 -87 -152t-246 -104l-1 13q153 34 236 101t83 141q0 36 -21 68q-79 -66 -198.5 -112t-199 -46t-118.5 31q-52 -11 -112.5 -11t-99.5 26.5t-39 66.5q0 55 72 105.5t207 69.5q45 63 108 103t122 40q112 0 112 -81q0 -32 -20 -74q97 -25 149 -74q153 138 173.5 159
t28.5 28q-90 -43 -168 -43t-113 33.5t-37 88.5q-10 -1 -29 -1q-120 0 -179 48.5t-59 125.5q0 25 4 45q-93 10 -139 51.5t-46 100.5q0 86 84.5 169.5t212.5 108.5l3 -15q-112 -19 -189 -98t-77 -162q0 -54 38.5 -92.5t116.5 -50.5q28 111 136.5 199t246.5 88q118 0 118 -68
q0 -34 -33.5 -74t-90 -76t-142 -60t-178.5 -24q-28 0 -41 1q-4 -17 -4 -39q0 -72 56.5 -117t172.5 -45h18q4 94 83 186q88 102 214 143q71 22 148 22q110 0 110 -57q0 -49 -76 -116.5t-203.5 -124t-253.5 -67.5q-3 -14 -3 -25q0 -87 127 -87q48 0 103 19t86 38l31 19
q75 64 89 64z" />
    <glyph glyph-name="gcircumflex" unicode="&#x11d;" horiz-adv-x="615" 
d="M335 212l-11 -6l-49 69l-134 -54l-12 9l149 71q13 0 16 -5zM-9 2q35 0 95.5 35.5t104.5 72t44 43t-14.5 10.5t-28.5 4q-41 0 -92.5 -32t-85 -69t-33.5 -55q0 -9 10 -9zM-349 -317.5q-12 -19.5 -12 -41.5t22 -22q54 0 317 268q-177 -85 -219.5 -114t-69 -50t-38.5 -40.5z
M254 166q16 16 21.5 16t17 -3t11.5 -6.5t-8 -10.5t-209 -208q132 66 222 126l2 -15q-45 -26 -64 -39q-54 -33 -188 -100q-145 -146 -249.5 -233.5t-155.5 -87.5q-29 0 -29 33t30 67.5t89 70.5q93 56 249 132q7 3 11 5q17 17 54.5 57t49.5 52l18 18q13 14 23 23
q-111 -76 -170 -77q-23 0 -23 27q0 51 65.5 109.5t169.5 58.5q35 0 63 -15z" />
    <glyph glyph-name="Gbreve" unicode="&#x11e;" horiz-adv-x="728" 
d="M422 468l5 -5q-18 -23 -54 -48t-64 -25q-47 0 -47 76v4q3 6 8 6q11 -65 53 -65t99 57zM304 219q52 6 122.5 6t141.5 -13q23 41 23 73q0 63 -84 63q-52 0 -106.5 -36t-96.5 -93zM24 42q0 -36 35.5 -59.5t86.5 -23.5t96 10q-27 30 -27 78q0 74 56 156q-118 -18 -182.5 -65
t-64.5 -96zM595 191q-40 -72 -124.5 -135.5t-191.5 -90.5q33 -22 100.5 -22t169 47.5t167.5 107.5l24 21q-50 47 -145 72zM561 199q-72 14 -145 14t-121 -6q-58 -86 -58 -157q0 -47 29 -75q92 27 172.5 91t122.5 133zM441 622q80 0 159 23t134.5 56t90.5 70.5t35 67.5
q0 54 -107 54q-127 0 -229.5 -83t-128.5 -186q14 -2 46 -2zM1164 698q0 49 -93 49q-75 0 -165.5 -55t-158 -133t-87.5 -146q90 7 184.5 40t163 76.5t112.5 89.5t44 79zM1090 425q5 -2 5 -7v-2q-7 -6 -16 -13q-18 -18 -47 -39q-38 -30 -60.5 -52.5t-88 -101t-103.5 -113.5
q24 -37 24 -78q0 -80 -87 -152t-246 -104l-1 13q153 34 236 101t83 141q0 36 -21 68q-79 -66 -198.5 -112t-199 -46t-118.5 31q-52 -11 -112.5 -11t-99.5 26.5t-39 66.5q0 55 72 105.5t207 69.5q45 63 108 103t122 40q112 0 112 -81q0 -32 -20 -74q97 -25 149 -74
q153 138 173.5 159t28.5 28q-90 -43 -168 -43t-113 33.5t-37 88.5q-10 -1 -29 -1q-120 0 -179 48.5t-59 125.5q0 25 4 45q-93 10 -139 51.5t-46 100.5q0 86 84.5 169.5t212.5 108.5l3 -15q-112 -19 -189 -98t-77 -162q0 -54 38.5 -92.5t116.5 -50.5q28 111 136.5 199
t246.5 88q118 0 118 -68q0 -34 -33.5 -74t-90 -76t-142 -60t-178.5 -24q-28 0 -41 1q-4 -17 -4 -39q0 -72 56.5 -117t172.5 -45h18q4 94 83 186q88 102 214 143q71 22 148 22q110 0 110 -57q0 -49 -76 -116.5t-203.5 -124t-253.5 -67.5q-3 -14 -3 -25q0 -87 127 -87
q48 0 103 19t86 38l31 19q75 64 89 64z" />
    <glyph glyph-name="gbreve" unicode="&#x11f;" horiz-adv-x="615" 
d="M308 303l5 -5q-18 -23 -54 -48t-64 -25q-47 0 -47 76v4q3 6 8 6q11 -65 53 -65t99 57zM-9 2q35 0 95.5 35.5t104.5 72t44 43t-14.5 10.5t-28.5 4q-41 0 -92.5 -32t-85 -69t-33.5 -55q0 -9 10 -9zM-349 -317.5q-12 -19.5 -12 -41.5t22 -22q54 0 317 268
q-177 -85 -219.5 -114t-69 -50t-38.5 -40.5zM254 166q16 16 21.5 16t17 -3t11.5 -6.5t-8 -10.5t-209 -208q132 66 222 126l2 -15q-45 -26 -64 -39q-54 -33 -188 -100q-145 -146 -249.5 -233.5t-155.5 -87.5q-29 0 -29 33t30 67.5t89 70.5q93 56 249 132q7 3 11 5
q17 17 54.5 57t49.5 52l18 18q13 14 23 23q-111 -76 -170 -77q-23 0 -23 27q0 51 65.5 109.5t169.5 58.5q35 0 63 -15z" />
    <glyph glyph-name="Gdotaccent" unicode="&#x120;" horiz-adv-x="728" 
d="M469 402q-16 -13 -29.5 -13t-13.5 11t16 25.5t29.5 14.5t13.5 -11q0 -14 -16 -27zM304 219q52 6 122.5 6t141.5 -13q23 41 23 73q0 63 -84 63q-52 0 -106.5 -36t-96.5 -93zM24 42q0 -36 35.5 -59.5t86.5 -23.5t96 10q-27 30 -27 78q0 74 56 156q-118 -18 -182.5 -65
t-64.5 -96zM595 191q-40 -72 -124.5 -135.5t-191.5 -90.5q33 -22 100.5 -22t169 47.5t167.5 107.5l24 21q-50 47 -145 72zM561 199q-72 14 -145 14t-121 -6q-58 -86 -58 -157q0 -47 29 -75q92 27 172.5 91t122.5 133zM441 622q80 0 159 23t134.5 56t90.5 70.5t35 67.5
q0 54 -107 54q-127 0 -229.5 -83t-128.5 -186q14 -2 46 -2zM1164 698q0 49 -93 49q-75 0 -165.5 -55t-158 -133t-87.5 -146q90 7 184.5 40t163 76.5t112.5 89.5t44 79zM1090 425q5 -2 5 -7v-2q-7 -6 -16 -13q-18 -18 -47 -39q-38 -30 -60.5 -52.5t-88 -101t-103.5 -113.5
q24 -37 24 -78q0 -80 -87 -152t-246 -104l-1 13q153 34 236 101t83 141q0 36 -21 68q-79 -66 -198.5 -112t-199 -46t-118.5 31q-52 -11 -112.5 -11t-99.5 26.5t-39 66.5q0 55 72 105.5t207 69.5q45 63 108 103t122 40q112 0 112 -81q0 -32 -20 -74q97 -25 149 -74
q153 138 173.5 159t28.5 28q-90 -43 -168 -43t-113 33.5t-37 88.5q-10 -1 -29 -1q-120 0 -179 48.5t-59 125.5q0 25 4 45q-93 10 -139 51.5t-46 100.5q0 86 84.5 169.5t212.5 108.5l3 -15q-112 -19 -189 -98t-77 -162q0 -54 38.5 -92.5t116.5 -50.5q28 111 136.5 199
t246.5 88q118 0 118 -68q0 -34 -33.5 -74t-90 -76t-142 -60t-178.5 -24q-28 0 -41 1q-4 -17 -4 -39q0 -72 56.5 -117t172.5 -45h18q4 94 83 186q88 102 214 143q71 22 148 22q110 0 110 -57q0 -49 -76 -116.5t-203.5 -124t-253.5 -67.5q-3 -14 -3 -25q0 -87 127 -87
q48 0 103 19t86 38l31 19q75 64 89 64z" />
    <glyph glyph-name="gdotaccent" unicode="&#x121;" horiz-adv-x="615" 
d="M345 237q-16 -13 -29.5 -13t-13.5 11t16 25.5t29.5 14.5t13.5 -11q0 -14 -16 -27zM-9 2q35 0 95.5 35.5t104.5 72t44 43t-14.5 10.5t-28.5 4q-41 0 -92.5 -32t-85 -69t-33.5 -55q0 -9 10 -9zM-349 -317.5q-12 -19.5 -12 -41.5t22 -22q54 0 317 268q-177 -85 -219.5 -114
t-69 -50t-38.5 -40.5zM254 166q16 16 21.5 16t17 -3t11.5 -6.5t-8 -10.5t-209 -208q132 66 222 126l2 -15q-45 -26 -64 -39q-54 -33 -188 -100q-145 -146 -249.5 -233.5t-155.5 -87.5q-29 0 -29 33t30 67.5t89 70.5q93 56 249 132q7 3 11 5q17 17 54.5 57t49.5 52l18 18
q13 14 23 23q-111 -76 -170 -77q-23 0 -23 27q0 51 65.5 109.5t169.5 58.5q35 0 63 -15z" />
    <glyph glyph-name="uni0122" unicode="&#x122;" horiz-adv-x="728" 
d="M322 -209q11 25 24 70.5t17 77.5h87v-9q-8 -31 -31.5 -76.5t-48.5 -74.5h-48v12zM304 219q52 6 122.5 6t141.5 -13q23 41 23 73q0 63 -84 63q-52 0 -106.5 -36t-96.5 -93zM24 42q0 -36 35.5 -59.5t86.5 -23.5t96 10q-27 30 -27 78q0 74 56 156q-118 -18 -182.5 -65
t-64.5 -96zM595 191q-40 -72 -124.5 -135.5t-191.5 -90.5q33 -22 100.5 -22t169 47.5t167.5 107.5l24 21q-50 47 -145 72zM561 199q-72 14 -145 14t-121 -6q-58 -86 -58 -157q0 -47 29 -75q92 27 172.5 91t122.5 133zM441 622q80 0 159 23t134.5 56t90.5 70.5t35 67.5
q0 54 -107 54q-127 0 -229.5 -83t-128.5 -186q14 -2 46 -2zM1164 698q0 49 -93 49q-75 0 -165.5 -55t-158 -133t-87.5 -146q90 7 184.5 40t163 76.5t112.5 89.5t44 79zM1090 425q5 -2 5 -7v-2q-7 -6 -16 -13q-18 -18 -47 -39q-38 -30 -60.5 -52.5t-88 -101t-103.5 -113.5
q24 -37 24 -78q0 -80 -87 -152t-246 -104l-1 13q153 34 236 101t83 141q0 36 -21 68q-79 -66 -198.5 -112t-199 -46t-118.5 31q-52 -11 -112.5 -11t-99.5 26.5t-39 66.5q0 55 72 105.5t207 69.5q45 63 108 103t122 40q112 0 112 -81q0 -32 -20 -74q97 -25 149 -74
q153 138 173.5 159t28.5 28q-90 -43 -168 -43t-113 33.5t-37 88.5q-10 -1 -29 -1q-120 0 -179 48.5t-59 125.5q0 25 4 45q-93 10 -139 51.5t-46 100.5q0 86 84.5 169.5t212.5 108.5l3 -15q-112 -19 -189 -98t-77 -162q0 -54 38.5 -92.5t116.5 -50.5q28 111 136.5 199
t246.5 88q118 0 118 -68q0 -34 -33.5 -74t-90 -76t-142 -60t-178.5 -24q-28 0 -41 1q-4 -17 -4 -39q0 -72 56.5 -117t172.5 -45h18q4 94 83 186q88 102 214 143q71 22 148 22q110 0 110 -57q0 -49 -76 -116.5t-203.5 -124t-253.5 -67.5q-3 -14 -3 -25q0 -87 127 -87
q48 0 103 19t86 38l31 19q75 64 89 64z" />
    <glyph glyph-name="uni0123" unicode="&#x123;" horiz-adv-x="615" 
d="M379 754q-13 -29 -26 -74.5t-16 -73.5h-87v9q7 27 31.5 74t48.5 77h49v-12zM-9 2q35 0 95.5 35.5t104.5 72t44 43t-14.5 10.5t-28.5 4q-41 0 -92.5 -32t-85 -69t-33.5 -55q0 -9 10 -9zM-349 -317.5q-12 -19.5 -12 -41.5t22 -22q54 0 317 268q-177 -85 -219.5 -114
t-69 -50t-38.5 -40.5zM254 166q16 16 21.5 16t17 -3t11.5 -6.5t-8 -10.5t-209 -208q132 66 222 126l2 -15q-45 -26 -64 -39q-54 -33 -188 -100q-145 -146 -249.5 -233.5t-155.5 -87.5q-29 0 -29 33t30 67.5t89 70.5q93 56 249 132q7 3 11 5q17 17 54.5 57t49.5 52l18 18
q13 14 23 23q-111 -76 -170 -77q-23 0 -23 27q0 51 65.5 109.5t169.5 58.5q35 0 63 -15z" />
    <glyph glyph-name="Hcircumflex" unicode="&#x124;" horiz-adv-x="741" 
d="M403 377l-11 -6l-49 69l-134 -54l-12 9l149 71q13 0 16 -5zM11 29q0 -37 42 -37t107.5 34t132 95.5t130.5 126.5q-214 -73 -313 -120.5t-99 -98.5zM1393 789q-86 0 -236.5 -109.5t-286.5 -260.5q221 87 382.5 191.5t161.5 162.5q0 16 -21 16zM772 -39h10q59 0 113 28
t88.5 69t54.5 84t20 76q0 50 -47 50q-70 0 -154.5 -91.5t-84.5 -209.5v-6zM278 577h25q89 0 170.5 21.5t135.5 54t85.5 69.5t31.5 67t-29 47.5t-87 17.5q-118 0 -217.5 -90t-114.5 -187zM439 1006l3 -12q-155 -21 -256.5 -107t-101.5 -174q0 -51 40 -87t120 -46
q4 49 33.5 100t77 94t117.5 70.5t139.5 27.5t101 -21t31.5 -55.5t-32 -74.5t-87.5 -75t-142.5 -58.5t-185 -23.5h-21v-12q0 -52 37 -83.5t105.5 -31.5t151.5 33.5t172 103.5q146 136 258 188q42 19 56 20l2 -7q-86 -38 -155 -94q-69 -58 -177 -170l-185 -202l-16 -16
q100 35 259 93q134 168 308.5 292t302.5 124q34 0 34 -24q0 -67 -170.5 -177t-404.5 -200q-89 -103 -142.5 -195t-53.5 -153q0 -84 103 -91v13q0 67 26.5 126.5t66 98t83.5 61t80.5 22.5t57 -19.5t20.5 -56.5t-24.5 -81.5t-65.5 -83.5t-101.5 -65.5t-125.5 -26.5h-6
q5 -71 51.5 -115.5t135.5 -44.5q32 0 68 12l8 -5q-31 -17 -90 -17q-85 0 -131 47.5t-52 123.5q-135 6 -135 115q0 117 144 304q-161 -58 -262 -93l-113 -116q-32 -41 -147.5 -111t-198.5 -70q-50 0 -50 40q0 34 23 62t85 57.5t107 46t121.5 42.5t101.5 35q67 67 178 185
l27 30q17 19 46 46q-151 -98 -268 -98q-89 0 -133.5 38.5t-44.5 100.5v2q-86 9 -130 47.5t-44 93.5q0 91 103.5 181t266.5 117z" />
    <glyph glyph-name="hcircumflex" unicode="&#x125;" horiz-adv-x="618" 
d="M346 404l-11 -6l-49 69l-134 -54l-12 9l149 71q13 0 16 -5zM564 549q0 7 -10 7q-40 0 -197.5 -143t-282.5 -277q144 93 317 237t173 176zM134 6q0 -13 13.5 -13t40.5 12t48 24.5t50.5 31t31.5 19.5l2 -15q-135 -90 -189 -90q-26 0 -26 26t32.5 57.5t65 56.5t32.5 36
q0 4 -7 4q-23 0 -125 -57.5t-133 -84.5l-36 -30q-4 -4 -20 -4t-16 6q0 3 4 8q105 118 235 247t254.5 230.5t169.5 101.5q24 0 24 -15q0 -32 -100.5 -123.5t-225.5 -183.5t-215 -146q-35 -40 -40 -51q4 0 6 1q64 45 133 80t87 35t24.5 -7t6.5 -15q0 -24 -31.5 -54t-63.5 -54
t-32 -33z" />
    <glyph glyph-name="Hbar" unicode="&#x126;" horiz-adv-x="741" 
d="M97 595v119h90v-119h366v119h90v-119h97v-72h-97v-523h-90v333h-366v-333h-90v523h-97v72h97zM553 412v111h-366v-111h366z" />
    <glyph glyph-name="hbar" unicode="&#x127;" horiz-adv-x="618" 
d="M450 0v323q0 65 -29 97t-91 32q-83 0 -120 -45t-37 -149v-258h-88v604h-76v66h76v90h88v-90h212v-66h-212v-87q0 -43 -5 -74h6q26 42 70.5 62.5t97.5 20.5q97 0 146 -47t49 -150v-329h-87z" />
    <glyph glyph-name="Itilde" unicode="&#x128;" horiz-adv-x="338" 
d="M199 434l9 -6q-22 -38 -64 -38q-22 0 -54.5 18.5t-53 18.5t-52.5 -28l-5 5q33 42 80 42q25 0 59 -16t49.5 -16t31.5 20zM1019.5 386.5q15.5 7.5 15.5 16.5t-18 13q-5 -5 -18 -19t-21 -21q26 3 41.5 10.5zM915 375l44 43q-59 -1 -124 -15q25 -22 80 -28zM1526 722
q0 18 -39 18q-97 0 -205 -76q121 8 166 15q78 13 78 43zM1212 641q-199 -17 -274 -46q-86 -33 -112 -79q-15 -27 -15 -56t13 -46q74 18 150 19q147 143 238 208zM900 361q-60 6 -89 36q-143 -39 -228.5 -128.5t-85.5 -173.5q0 -31 12 -53q64 34 137 90.5t124 103.5t130 125z
M38 123q-7 -8 -12.5 -8t-9.5 1q-4 0 -4 -12q0 -46 45 -76q75 -50 215 -50q107 0 224 57q-12 27 -12 60q0 56 34 115.5t108 115t175 83.5q-13 19 -13 49t14.5 58t38 48t60.5 35.5t73 25t86 17.5q62 9 179 18q140 93 263 93q22 0 30.5 -5.5t8.5 -23.5t-21 -32.5t-64 -23.5
q-75 -14 -196 -23h-2h-1q-62 -46 -147 -132q-27 -28 -79 -82q28 -6 28 -21.5t-25.5 -29t-68.5 -18.5q-120 -123 -223.5 -207.5t-217.5 -134.5q48 -40 115 -40q103 0 254 100l2 -15q-145 -101 -258 -101q-40 0 -71.5 12.5t-43.5 25.5l-12 12q-124 -50 -249 -50q-72 0 -155 22
q-47 13 -76.5 42t-29.5 71q0 24 8.5 37.5t17.5 15.5l8 1q11 -1 11 -11.5t-7 -18.5z" />
    <glyph glyph-name="itilde" unicode="&#x129;" horiz-adv-x="257" 
d="M159 269l9 -6q-22 -38 -64 -38q-22 0 -54.5 18.5t-53 18.5t-52.5 -28l-5 5q33 42 80 42q25 0 59 -16t49.5 -16t31.5 20zM107 156q-135 -122 -135 -153q0 -10 13.5 -10t40.5 12t48 24.5t50.5 31t31.5 19.5l2 -15q-46 -30 -105 -60t-89.5 -30t-30.5 25q0 21 36 63.5
t72 74.5l36 32q5 4 19 3t14 -10q0 -4 -3 -7z" />
    <glyph glyph-name="Imacron" unicode="&#x12a;" horiz-adv-x="338" 
d="M21 842h297v-71h-297v71zM1019.5 386.5q15.5 7.5 15.5 16.5t-18 13q-5 -5 -18 -19t-21 -21q26 3 41.5 10.5zM915 375l44 43q-59 -1 -124 -15q25 -22 80 -28zM1526 722q0 18 -39 18q-97 0 -205 -76q121 8 166 15q78 13 78 43zM1212 641q-199 -17 -274 -46
q-86 -33 -112 -79q-15 -27 -15 -56t13 -46q74 18 150 19q147 143 238 208zM900 361q-60 6 -89 36q-143 -39 -228.5 -128.5t-85.5 -173.5q0 -31 12 -53q64 34 137 90.5t124 103.5t130 125zM38 123q-7 -8 -12.5 -8t-9.5 1q-4 0 -4 -12q0 -46 45 -76q75 -50 215 -50
q107 0 224 57q-12 27 -12 60q0 56 34 115.5t108 115t175 83.5q-13 19 -13 49t14.5 58t38 48t60.5 35.5t73 25t86 17.5q62 9 179 18q140 93 263 93q22 0 30.5 -5.5t8.5 -23.5t-21 -32.5t-64 -23.5q-75 -14 -196 -23h-2h-1q-62 -46 -147 -132q-27 -28 -79 -82q28 -6 28 -21.5
t-25.5 -29t-68.5 -18.5q-120 -123 -223.5 -207.5t-217.5 -134.5q48 -40 115 -40q103 0 254 100l2 -15q-145 -101 -258 -101q-40 0 -71.5 12.5t-43.5 25.5l-12 12q-124 -50 -249 -50q-72 0 -155 22q-47 13 -76.5 42t-29.5 71q0 24 8.5 37.5t17.5 15.5l8 1q11 -1 11 -11.5
t-7 -18.5z" />
    <glyph glyph-name="imacron" unicode="&#x12b;" horiz-adv-x="257" 
d="M-18 677h297v-71h-297v71zM107 156q-135 -122 -135 -153q0 -10 13.5 -10t40.5 12t48 24.5t50.5 31t31.5 19.5l2 -15q-46 -30 -105 -60t-89.5 -30t-30.5 25q0 21 36 63.5t72 74.5l36 32q5 4 19 3t14 -10q0 -4 -3 -7z" />
    <glyph glyph-name="Ibreve" unicode="&#x12c;" horiz-adv-x="338" 
d="M176 468l5 -5q-18 -23 -54 -48t-64 -25q-47 0 -47 76v4q3 6 8 6q11 -65 53 -65t99 57zM1019.5 386.5q15.5 7.5 15.5 16.5t-18 13q-5 -5 -18 -19t-21 -21q26 3 41.5 10.5zM915 375l44 43q-59 -1 -124 -15q25 -22 80 -28zM1526 722q0 18 -39 18q-97 0 -205 -76
q121 8 166 15q78 13 78 43zM1212 641q-199 -17 -274 -46q-86 -33 -112 -79q-15 -27 -15 -56t13 -46q74 18 150 19q147 143 238 208zM900 361q-60 6 -89 36q-143 -39 -228.5 -128.5t-85.5 -173.5q0 -31 12 -53q64 34 137 90.5t124 103.5t130 125zM38 123q-7 -8 -12.5 -8
t-9.5 1q-4 0 -4 -12q0 -46 45 -76q75 -50 215 -50q107 0 224 57q-12 27 -12 60q0 56 34 115.5t108 115t175 83.5q-13 19 -13 49t14.5 58t38 48t60.5 35.5t73 25t86 17.5q62 9 179 18q140 93 263 93q22 0 30.5 -5.5t8.5 -23.5t-21 -32.5t-64 -23.5q-75 -14 -196 -23h-2h-1
q-62 -46 -147 -132q-27 -28 -79 -82q28 -6 28 -21.5t-25.5 -29t-68.5 -18.5q-120 -123 -223.5 -207.5t-217.5 -134.5q48 -40 115 -40q103 0 254 100l2 -15q-145 -101 -258 -101q-40 0 -71.5 12.5t-43.5 25.5l-12 12q-124 -50 -249 -50q-72 0 -155 22q-47 13 -76.5 42
t-29.5 71q0 24 8.5 37.5t17.5 15.5l8 1q11 -1 11 -11.5t-7 -18.5z" />
    <glyph glyph-name="ibreve" unicode="&#x12d;" horiz-adv-x="257" 
d="M134 303l5 -5q-18 -23 -54 -48t-64 -25q-47 0 -47 76v4q3 6 8 6q11 -65 53 -65t99 57zM107 156q-135 -122 -135 -153q0 -10 13.5 -10t40.5 12t48 24.5t50.5 31t31.5 19.5l2 -15q-46 -30 -105 -60t-89.5 -30t-30.5 25q0 21 36 63.5t72 74.5l36 32q5 4 19 3t14 -10
q0 -4 -3 -7z" />
    <glyph glyph-name="Iogonek" unicode="&#x12e;" horiz-adv-x="338" 
d="M159 -87l2 -8q-21 -7 -45.5 -7t-42 9.5t-17.5 24.5q0 26 49 55q4 0 6 -2q-25 -26 -25 -46q0 -30 44 -30q16 0 29 4zM1019.5 386.5q15.5 7.5 15.5 16.5t-18 13q-5 -5 -18 -19t-21 -21q26 3 41.5 10.5zM915 375l44 43q-59 -1 -124 -15q25 -22 80 -28zM1526 722q0 18 -39 18
q-97 0 -205 -76q121 8 166 15q78 13 78 43zM1212 641q-199 -17 -274 -46q-86 -33 -112 -79q-15 -27 -15 -56t13 -46q74 18 150 19q147 143 238 208zM900 361q-60 6 -89 36q-143 -39 -228.5 -128.5t-85.5 -173.5q0 -31 12 -53q64 34 137 90.5t124 103.5t130 125zM38 123
q-7 -8 -12.5 -8t-9.5 1q-4 0 -4 -12q0 -46 45 -76q75 -50 215 -50q107 0 224 57q-12 27 -12 60q0 56 34 115.5t108 115t175 83.5q-13 19 -13 49t14.5 58t38 48t60.5 35.5t73 25t86 17.5q62 9 179 18q140 93 263 93q22 0 30.5 -5.5t8.5 -23.5t-21 -32.5t-64 -23.5
q-75 -14 -196 -23h-2h-1q-62 -46 -147 -132q-27 -28 -79 -82q28 -6 28 -21.5t-25.5 -29t-68.5 -18.5q-120 -123 -223.5 -207.5t-217.5 -134.5q48 -40 115 -40q103 0 254 100l2 -15q-145 -101 -258 -101q-40 0 -71.5 12.5t-43.5 25.5l-12 12q-124 -50 -249 -50q-72 0 -155 22
q-47 13 -76.5 42t-29.5 71q0 24 8.5 37.5t17.5 15.5l8 1q11 -1 11 -11.5t-7 -18.5z" />
    <glyph glyph-name="iogonek" unicode="&#x12f;" horiz-adv-x="257" 
d="M96 -87l2 -8q-21 -7 -45.5 -7t-42 9.5t-17.5 24.5q0 26 49 55q4 0 6 -2q-25 -26 -25 -46q0 -30 44 -30q16 0 29 4zM176 237q-16 -13 -29.5 -13t-13.5 11t16 25.5t29.5 14.5t13.5 -11q0 -14 -16 -27zM107 156q-135 -122 -135 -153q0 -10 13.5 -10t40.5 12t48 24.5t50.5 31
t31.5 19.5l2 -15q-46 -30 -105 -60t-89.5 -30t-30.5 25q0 21 36 63.5t72 74.5l36 32q5 4 19 3t14 -10q0 -4 -3 -7z" />
    <glyph glyph-name="Idotaccent" unicode="&#x130;" horiz-adv-x="338" 
d="M215 402q-16 -13 -29.5 -13t-13.5 11t16 25.5t29.5 14.5t13.5 -11q0 -14 -16 -27zM1019.5 386.5q15.5 7.5 15.5 16.5t-18 13q-5 -5 -18 -19t-21 -21q26 3 41.5 10.5zM915 375l44 43q-59 -1 -124 -15q25 -22 80 -28zM1526 722q0 18 -39 18q-97 0 -205 -76q121 8 166 15
q78 13 78 43zM1212 641q-199 -17 -274 -46q-86 -33 -112 -79q-15 -27 -15 -56t13 -46q74 18 150 19q147 143 238 208zM900 361q-60 6 -89 36q-143 -39 -228.5 -128.5t-85.5 -173.5q0 -31 12 -53q64 34 137 90.5t124 103.5t130 125zM38 123q-7 -8 -12.5 -8t-9.5 1
q-4 0 -4 -12q0 -46 45 -76q75 -50 215 -50q107 0 224 57q-12 27 -12 60q0 56 34 115.5t108 115t175 83.5q-13 19 -13 49t14.5 58t38 48t60.5 35.5t73 25t86 17.5q62 9 179 18q140 93 263 93q22 0 30.5 -5.5t8.5 -23.5t-21 -32.5t-64 -23.5q-75 -14 -196 -23h-2h-1
q-62 -46 -147 -132q-27 -28 -79 -82q28 -6 28 -21.5t-25.5 -29t-68.5 -18.5q-120 -123 -223.5 -207.5t-217.5 -134.5q48 -40 115 -40q103 0 254 100l2 -15q-145 -101 -258 -101q-40 0 -71.5 12.5t-43.5 25.5l-12 12q-124 -50 -249 -50q-72 0 -155 22q-47 13 -76.5 42
t-29.5 71q0 24 8.5 37.5t17.5 15.5l8 1q11 -1 11 -11.5t-7 -18.5z" />
    <glyph glyph-name="dotlessi" unicode="&#x131;" horiz-adv-x="168" 
d="M107 156q-135 -122 -135 -153q0 -10 13.5 -10t40.5 12t48 24.5t50.5 31t31.5 19.5l2 -15q-46 -30 -105 -60t-89.5 -30t-30.5 25q0 21 36 63.5t72 74.5l36 32q5 4 19 3t14 -10q0 -4 -3 -7z" />
    <glyph glyph-name="IJ" unicode="&#x132;" horiz-adv-x="611" 
d="M1019.5 386.5q15.5 7.5 15.5 16.5t-18 13q-5 -5 -18 -19t-21 -21q26 3 41.5 10.5zM915 375l44 43q-59 -1 -124 -15q25 -22 80 -28zM1526 722q0 18 -39 18q-97 0 -205 -76q121 8 166 15q78 13 78 43zM1212 641q-199 -17 -274 -46q-86 -33 -112 -79q-15 -27 -15 -56t13 -46
q74 18 150 19q147 143 238 208zM900 361q-60 6 -89 36q-143 -39 -228.5 -128.5t-85.5 -173.5q0 -31 12 -53q64 34 137 90.5t124 103.5t130 125zM38 123q-7 -8 -12.5 -8t-9.5 1q-4 0 -4 -12q0 -46 45 -76q75 -50 215 -50q107 0 224 57q-12 27 -12 60q0 56 34 115.5t108 115
t175 83.5q-13 19 -13 49t14.5 58t38 48t60.5 35.5t73 25t86 17.5q62 9 179 18q140 93 263 93q22 0 30.5 -5.5t8.5 -23.5t-21 -32.5t-64 -23.5q-75 -14 -196 -23h-2h-1q-62 -46 -147 -132q-27 -28 -79 -82q28 -6 28 -21.5t-25.5 -29t-68.5 -18.5q-120 -123 -223.5 -207.5
t-217.5 -134.5q48 -40 115 -40q103 0 254 100l2 -15q-145 -101 -258 -101q-40 0 -71.5 12.5t-43.5 25.5l-12 12q-124 -50 -249 -50q-72 0 -155 22q-47 13 -76.5 42t-29.5 71q0 24 8.5 37.5t17.5 15.5l8 1q11 -1 11 -11.5t-7 -18.5zM1448 763q-92 0 -214 -93l57 4
q63 4 109 17q84 24 84 53q0 19 -36 19zM378 -221q21 -6 50 -6q80 0 169.5 38.5t147 90.5t57.5 93q0 59 -127 59q-16 0 -24 -1q-165 -182 -273 -274zM542 387q0 -39 30 -62.5t88 -23.5t131.5 51t124 126.5t50.5 140.5l-1 16q-205 -24 -314 -98.5t-109 -149.5zM288 -183l9 6
q12 -14 36 -27q100 92 249 250q-105 -17 -224 -69.5t-210 -113.5t-151.5 -122t-60.5 -99t70 -38q114 0 314 180q-26 15 -32 33zM659 62q8 1 25 1q149 0 149 -66q0 -44 -63.5 -99.5t-163 -96t-189.5 -40.5q-32 0 -54 6q-209 -177 -368 -177q-71 0 -71 48q0 33 34.5 82
t98.5 102t144.5 101.5t184.5 85t207 48.5q25 27 97.5 105.5t105.5 113.5t96 100.5t104 105.5q115 110 190 167q-33 -3 -98 -5t-109 -7q1 -5 1 -15q0 -52 -31 -112t-78.5 -108.5t-109 -81t-118 -32.5t-92 31.5t-35.5 74.5t25 82t75 76t139 65.5t205 39.5q-31 101 -221 101
q-50 0 -105.5 -17t-99.5 -41q-89 -50 -139 -91l-20 -17l-6 12q17 17 67 52t92.5 57t103.5 40t118 18q195 0 225 -113q50 5 101.5 6t136.5 5q150 109 253 109q53 0 53 -21q0 -27 -72.5 -60.5t-167.5 -40.5q-46 -4 -70 -5q-59 -48 -133 -123t-129 -137.5t-147.5 -168.5
t-140.5 -160z" />
    <glyph glyph-name="ij" unicode="&#x133;" horiz-adv-x="514" 
d="M176 237q-16 -13 -29.5 -13t-13.5 11t16 25.5t29.5 14.5t13.5 -11q0 -14 -16 -27zM107 156q-135 -122 -135 -153q0 -10 13.5 -10t40.5 12t48 24.5t50.5 31t31.5 19.5l2 -15q-46 -30 -105 -60t-89.5 -30t-30.5 25q0 21 36 63.5t72 74.5l36 32q5 4 19 3t14 -10q0 -4 -3 -7z
M464 271.5q0 -13.5 -11 -24.5t-27 -11t-16 12t12.5 24.5t27 12.5t14.5 -13.5zM-275 -317.5q-12 -19.5 -12 -41.5t22 -22q54 0 317 268q-177 -85 -219.5 -114t-69 -50t-38.5 -40.5zM-301 -362q0 33 30 67.5t89 70.5q93 56 249 132q7 3 11 5q32 32 114 119q146 150 157 150
q6 0 17.5 -3t11.5 -6.5t-16 -17.5t-200 -201q83 42 147.5 81t73.5 45l2 -15q-45 -26 -83.5 -50.5t-167.5 -88.5q-147 -147 -251 -234t-155 -87q-29 0 -29 33z" />
    <glyph glyph-name="Jcircumflex" unicode="&#x134;" horiz-adv-x="272" 
d="M172 377l-11 -6l-49 69l-134 -54l-12 9l149 71q13 0 16 -5zM1109 763q-92 0 -214 -93l57 4q63 4 109 17q84 24 84 53q0 19 -36 19zM39 -221q21 -6 50 -6q80 0 169.5 38.5t147 90.5t57.5 93q0 59 -127 59q-16 0 -24 -1q-165 -182 -273 -274zM203 387q0 -39 30 -62.5
t88 -23.5t131.5 51t124 126.5t50.5 140.5l-1 16q-205 -24 -314 -98.5t-109 -149.5zM-51 -183l9 6q12 -14 36 -27q100 92 249 250q-105 -17 -224 -69.5t-210 -113.5t-151.5 -122t-60.5 -99t70 -38q114 0 314 180q-26 15 -32 33zM320 62q8 1 25 1q149 0 149 -66
q0 -44 -63.5 -99.5t-163 -96t-189.5 -40.5q-32 0 -54 6q-209 -177 -368 -177q-71 0 -71 48q0 33 34.5 82t98.5 102t144.5 101.5t184.5 85t207 48.5q25 27 97.5 105.5t105.5 113.5t96 100.5t104 105.5q115 110 190 167q-33 -3 -98 -5t-109 -7q1 -5 1 -15q0 -52 -31 -112
t-78.5 -108.5t-109 -81t-118 -32.5t-92 31.5t-35.5 74.5t25 82t75 76t139 65.5t205 39.5q-31 101 -221 101q-50 0 -105.5 -17t-99.5 -41q-89 -50 -139 -91l-20 -17l-6 12q17 17 67 52t92.5 57t103.5 40t118 18q195 0 225 -113q50 5 101.5 6t136.5 5q150 109 253 109
q53 0 53 -21q0 -27 -72.5 -60.5t-167.5 -40.5q-46 -4 -70 -5q-59 -48 -133 -123t-129 -137.5t-147.5 -168.5t-140.5 -160z" />
    <glyph glyph-name="jcircumflex" unicode="&#x135;" horiz-adv-x="257" 
d="M161 212l-11 -6l-49 69l-134 -54l-12 9l149 71q13 0 16 -5zM22 -240q-46 0 -77 12v71q34 -10 66 -10q38 0 56 21t18 63v619h88v-616q0 -80 -38.5 -120t-112.5 -40z" />
    <glyph glyph-name="uni0136" unicode="&#x136;" horiz-adv-x="619" 
d="M246 -209q11 25 24 70.5t17 77.5h87v-9q-8 -31 -31.5 -76.5t-48.5 -74.5h-48v12zM1058 419q-14 0 -14 -6t8 -13q20 -16 65 -16q12 0 19 1q-24 34 -78 34zM259 218q82 15 156.5 15t136.5 -13q21 40 21 70q0 63 -83 63q-71 0 -132.5 -38.5t-98.5 -96.5zM307 -9
q37 -14 93.5 -14t148.5 47q96 49 150 103q-45 47 -124 72q-35 -63 -106 -120t-162 -88zM207 103q0 49 27 99q-100 -25 -160 -71.5t-60 -89.5q0 -30 32.5 -48.5t94.5 -18.5t124 20q-58 36 -58 109zM545 208q-65 15 -139.5 15t-154.5 -17q-29 -50 -29 -100q0 -72 63 -106
q84 31 154 89t106 119zM1129 -45h15q59 0 113 28t88.5 69t54.5 84t20 76q0 37 -46 37q-32 0 -73 -20t-80 -55.5t-65.5 -92.5t-26.5 -121v-5zM621 514h14q90 0 173.5 25.5t138.5 63.5t87.5 80.5t32.5 76.5t-28.5 53.5t-84.5 19.5q-85 0 -164 -50t-124.5 -120t-45.5 -132z
M783 985l3 -12q-156 -22 -260.5 -118.5t-104.5 -194.5q0 -58 42 -96.5t126 -47.5q-2 18 -2 28q0 50 28 103.5t76 99t120 75t142.5 29.5t101 -22.5t30.5 -61.5t-33 -84.5t-90 -86.5t-145.5 -68t-187.5 -27h-6q22 -85 147 -85q64 0 153 38t183 116l6 -8q-30 -26 -76 -57.5
t-126 -65.5t-145 -34q-144 0 -172 97q-93 7 -140.5 49t-47.5 105q0 101 106.5 201t271.5 128zM1463 772l-3 -10q-127 -46 -295 -214q-20 -20 -112 -117h3q19 0 48 -9.5t47 -34.5q90 15 201 107q50 40 102.5 87.5t108 93.5t112.5 83q127 84 256 84q47 0 70.5 -21.5
t23.5 -56.5q0 -73 -78.5 -145.5t-185.5 -72.5q-28 0 -42.5 12t-14.5 32q0 37 41 76.5t101 50.5v-5q-57 -12 -93.5 -48.5t-36.5 -69.5q0 -38 48 -38q93 0 168.5 70.5t75.5 138.5t-90 68q-63 0 -129.5 -31t-122 -78t-119.5 -104t-121 -107t-128.5 -88.5t-140.5 -48.5
q11 -19 11 -51.5t-15 -65t-37 -55.5l-44 -46q-52 -53 -52 -108q0 -83 95 -93v9q0 67 27.5 125t69 94.5t87 57t81.5 20.5q77 0 77 -63q0 -36 -24.5 -80.5t-65.5 -83.5t-101.5 -65.5t-125.5 -26.5h-11q5 -71 52.5 -115.5t139.5 -44.5q32 0 68 12l8 -5q-31 -17 -90 -17
q-90 0 -137.5 47.5t-53.5 123.5q-62 7 -90 44.5t-28 81.5t15 75.5t37 55.5l44 48q51 56 51 105q0 7 -4 19q-11 -1 -32 -1q-56 0 -91 20l-188 -200q-21 -23 -89 -76q43 -49 43 -106q0 -77 -81.5 -140.5t-240.5 -87.5v11q139 22 213 83.5t74 136.5q0 46 -29 87
q-191 -137 -331 -137q-64 0 -106 20q-73 -21 -144 -21t-109 22.5t-38 57.5q0 48 66 97.5t183 74.5q39 65 108.5 108.5t152.5 43.5q51 0 76 -21.5t25 -57.5t-21 -76q81 -23 134 -69l335 334q87 96 196 179.5t216 115.5z" />
    <glyph glyph-name="uni0137" unicode="&#x137;" horiz-adv-x="534" 
d="M203 -209q11 25 24 70.5t17 77.5h87v-9q-8 -31 -31.5 -76.5t-48.5 -74.5h-48v12zM564 549q0 7 -10 7q-40 0 -197.5 -143t-282.5 -277q144 93 317 237t173 176zM170 79l10 -21q0 -8 -22 -29t-22 -28.5t17.5 -7.5t44.5 12t48 24.5t50.5 31t31.5 19.5l2 -15
q-37 -27 -99 -58.5t-97 -31.5t-35 31q0 14 23.5 35.5t23.5 26.5t-5 5q-20 3 -20 15q0 4 3 4h12q56 0 94 25t38 44q0 7 -7 7q-73 0 -291 -155l-36 -30q-4 -4 -20 -4t-16 6q0 3 4 8q105 118 235 247t254.5 230.5t169.5 101.5q24 0 24 -15q0 -32 -100.5 -123.5t-225.5 -183.5
t-215 -146q-34 -39 -39 -49q53 37 85 57.5t84.5 45t89.5 24.5t37 -30t-39.5 -50.5t-77.5 -20.5q-8 0 -11 0.5t-3 -2.5z" />
    <glyph glyph-name="kgreenlandic" unicode="&#x138;" horiz-adv-x="534" 
d="M403 536h106l-203 -237l219 -299h-105l-176 242l-66 -54v-188h-93v536h93v-139q0 -68 -6 -135l41 50z" />
    <glyph glyph-name="Lacute" unicode="&#x139;" horiz-adv-x="523" 
d="M185 -30q132 0 267 70q-249 68 -307 68t-83.5 -16t-25.5 -43.5t40.5 -53t108.5 -25.5zM708 5q145 -31 225.5 -31t137.5 26.5t57 59.5q0 24 -35 40.5t-102 16.5q-106 0 -178 -31t-105 -81zM1170 654q-68 -63 -167.5 -170.5t-145.5 -154.5q10 -1 31 -1q82 0 177.5 42
t169 100t123 120.5t49.5 103.5q0 49 -71 49t-166 -89zM1092 794q0 67 -109 67q-60 0 -123.5 -28.5t-108.5 -74.5t-73 -102t-33 -111q26 -2 42 -2q83 0 161 26t130 64.5t83 82t31 78.5zM513 51q73 -18 174 -42q33 54 112.5 87.5t201.5 33.5q72 0 114.5 -22t42.5 -53
q0 -38 -64.5 -67t-168 -29t-230.5 24q-10 -24 -10 -52q0 -65 63.5 -111.5t176.5 -46.5l4 -8q-18 -2 -27 -2q-107 0 -171.5 51.5t-64.5 121.5q0 27 10 50q-99 21 -198 47q-152 -76 -303 -76q-75 0 -122 29.5t-47 62.5t36 53.5t107.5 20.5t335.5 -65q138 80 313 262
q-87 19 -131 76.5t-44 136.5v2q-82 9 -121.5 47t-39.5 94q0 95 98 194.5t233 126.5l3 -9q-135 -28 -227 -120.5t-92 -182.5q0 -53 36 -89.5t110 -48.5q3 60 31 118.5t74.5 107t117.5 78.5t142 30q130 0 130 -81q0 -39 -33 -85.5t-88.5 -87t-140 -68t-177.5 -27.5
q-24 0 -35 1v-10q0 -71 41.5 -121.5t126.5 -66.5q32 33 94.5 101t95 102t85.5 84t89 74q95 62 169 62q95 0 95 -63q0 -46 -51.5 -112t-129.5 -126t-182.5 -102.5t-199.5 -42.5q-24 0 -35 1q-179 -179 -329 -262zM288 435l-138 -57l-4 10q25 15 84.5 45t66.5 30t7 -11.5
t-16 -16.5z" />
    <glyph glyph-name="lacute" unicode="&#x13a;" horiz-adv-x="257" 
d="M577 577q-50 0 -234 -161t-298 -296q133 91 335 256.5t202 197.5q0 3 -5 3zM15 83q-40 -53 -40 -71.5t17 -18.5q47 0 172 87l2 -15q-133 -87 -188 -87q-27 0 -27 25q0 55 128.5 198.5t284 266t220.5 122.5q12 0 12 -9q0 -24 -48.5 -75.5t-130.5 -117.5t-153 -120
t-154 -114.5t-95 -70.5zM251 463l-138 -57l-4 10q25 15 84.5 45t66.5 30t7 -11.5t-16 -16.5z" />
    <glyph glyph-name="uni013B" unicode="&#x13b;" horiz-adv-x="523" 
d="M204 -209q11 25 24 70.5t17 77.5h87v-9q-8 -31 -31.5 -76.5t-48.5 -74.5h-48v12zM185 -30q132 0 267 70q-249 68 -307 68t-83.5 -16t-25.5 -43.5t40.5 -53t108.5 -25.5zM708 5q145 -31 225.5 -31t137.5 26.5t57 59.5q0 24 -35 40.5t-102 16.5q-106 0 -178 -31t-105 -81z
M1170 654q-68 -63 -167.5 -170.5t-145.5 -154.5q10 -1 31 -1q82 0 177.5 42t169 100t123 120.5t49.5 103.5q0 49 -71 49t-166 -89zM1092 794q0 67 -109 67q-60 0 -123.5 -28.5t-108.5 -74.5t-73 -102t-33 -111q26 -2 42 -2q83 0 161 26t130 64.5t83 82t31 78.5zM513 51
q73 -18 174 -42q33 54 112.5 87.5t201.5 33.5q72 0 114.5 -22t42.5 -53q0 -38 -64.5 -67t-168 -29t-230.5 24q-10 -24 -10 -52q0 -65 63.5 -111.5t176.5 -46.5l4 -8q-18 -2 -27 -2q-107 0 -171.5 51.5t-64.5 121.5q0 27 10 50q-99 21 -198 47q-152 -76 -303 -76
q-75 0 -122 29.5t-47 62.5t36 53.5t107.5 20.5t335.5 -65q138 80 313 262q-87 19 -131 76.5t-44 136.5v2q-82 9 -121.5 47t-39.5 94q0 95 98 194.5t233 126.5l3 -9q-135 -28 -227 -120.5t-92 -182.5q0 -53 36 -89.5t110 -48.5q3 60 31 118.5t74.5 107t117.5 78.5t142 30
q130 0 130 -81q0 -39 -33 -85.5t-88.5 -87t-140 -68t-177.5 -27.5q-24 0 -35 1v-10q0 -71 41.5 -121.5t126.5 -66.5q32 33 94.5 101t95 102t85.5 84t89 74q95 62 169 62q95 0 95 -63q0 -46 -51.5 -112t-129.5 -126t-182.5 -102.5t-199.5 -42.5q-24 0 -35 1
q-179 -179 -329 -262z" />
    <glyph glyph-name="uni013C" unicode="&#x13c;" horiz-adv-x="257" 
d="M45 -209q11 25 24 70.5t17 77.5h87v-9q-8 -31 -31.5 -76.5t-48.5 -74.5h-48v12zM577 577q-50 0 -234 -161t-298 -296q133 91 335 256.5t202 197.5q0 3 -5 3zM15 83q-40 -53 -40 -71.5t17 -18.5q47 0 172 87l2 -15q-133 -87 -188 -87q-27 0 -27 25q0 55 128.5 198.5
t284 266t220.5 122.5q12 0 12 -9q0 -24 -48.5 -75.5t-130.5 -117.5t-153 -120t-154 -114.5t-95 -70.5z" />
    <glyph glyph-name="Lcaron" unicode="&#x13d;" horiz-adv-x="523" 
d="M333 567q11 32 20.5 77.5t12.5 70.5h87v-9q-6 -26 -27 -71t-45 -80h-48v12zM185 -30q132 0 267 70q-249 68 -307 68t-83.5 -16t-25.5 -43.5t40.5 -53t108.5 -25.5zM708 5q145 -31 225.5 -31t137.5 26.5t57 59.5q0 24 -35 40.5t-102 16.5q-106 0 -178 -31t-105 -81z
M1170 654q-68 -63 -167.5 -170.5t-145.5 -154.5q10 -1 31 -1q82 0 177.5 42t169 100t123 120.5t49.5 103.5q0 49 -71 49t-166 -89zM1092 794q0 67 -109 67q-60 0 -123.5 -28.5t-108.5 -74.5t-73 -102t-33 -111q26 -2 42 -2q83 0 161 26t130 64.5t83 82t31 78.5zM513 51
q73 -18 174 -42q33 54 112.5 87.5t201.5 33.5q72 0 114.5 -22t42.5 -53q0 -38 -64.5 -67t-168 -29t-230.5 24q-10 -24 -10 -52q0 -65 63.5 -111.5t176.5 -46.5l4 -8q-18 -2 -27 -2q-107 0 -171.5 51.5t-64.5 121.5q0 27 10 50q-99 21 -198 47q-152 -76 -303 -76
q-75 0 -122 29.5t-47 62.5t36 53.5t107.5 20.5t335.5 -65q138 80 313 262q-87 19 -131 76.5t-44 136.5v2q-82 9 -121.5 47t-39.5 94q0 95 98 194.5t233 126.5l3 -9q-135 -28 -227 -120.5t-92 -182.5q0 -53 36 -89.5t110 -48.5q3 60 31 118.5t74.5 107t117.5 78.5t142 30
q130 0 130 -81q0 -39 -33 -85.5t-88.5 -87t-140 -68t-177.5 -27.5q-24 0 -35 1v-10q0 -71 41.5 -121.5t126.5 -66.5q32 33 94.5 101t95 102t85.5 84t89 74q95 62 169 62q95 0 95 -63q0 -46 -51.5 -112t-129.5 -126t-182.5 -102.5t-199.5 -42.5q-24 0 -35 1
q-179 -179 -329 -262z" />
    <glyph glyph-name="lcaron" unicode="&#x13e;" horiz-adv-x="257" 
d="M219 612q11 32 20.5 77.5t12.5 70.5h87v-9q-6 -26 -27 -71t-45 -80h-48v12zM577 577q-50 0 -234 -161t-298 -296q133 91 335 256.5t202 197.5q0 3 -5 3zM15 83q-40 -53 -40 -71.5t17 -18.5q47 0 172 87l2 -15q-133 -87 -188 -87q-27 0 -27 25q0 55 128.5 198.5t284 266
t220.5 122.5q12 0 12 -9q0 -24 -48.5 -75.5t-130.5 -117.5t-153 -120t-154 -114.5t-95 -70.5z" />
    <glyph glyph-name="Ldot" unicode="&#x13f;" horiz-adv-x="523" 
d="M430 -87q-16 -13 -29.5 -13t-13.5 11t16 25.5t29.5 14.5t13.5 -11q0 -14 -16 -27zM185 -30q132 0 267 70q-249 68 -307 68t-83.5 -16t-25.5 -43.5t40.5 -53t108.5 -25.5zM708 5q145 -31 225.5 -31t137.5 26.5t57 59.5q0 24 -35 40.5t-102 16.5q-106 0 -178 -31t-105 -81z
M1170 654q-68 -63 -167.5 -170.5t-145.5 -154.5q10 -1 31 -1q82 0 177.5 42t169 100t123 120.5t49.5 103.5q0 49 -71 49t-166 -89zM1092 794q0 67 -109 67q-60 0 -123.5 -28.5t-108.5 -74.5t-73 -102t-33 -111q26 -2 42 -2q83 0 161 26t130 64.5t83 82t31 78.5zM513 51
q73 -18 174 -42q33 54 112.5 87.5t201.5 33.5q72 0 114.5 -22t42.5 -53q0 -38 -64.5 -67t-168 -29t-230.5 24q-10 -24 -10 -52q0 -65 63.5 -111.5t176.5 -46.5l4 -8q-18 -2 -27 -2q-107 0 -171.5 51.5t-64.5 121.5q0 27 10 50q-99 21 -198 47q-152 -76 -303 -76
q-75 0 -122 29.5t-47 62.5t36 53.5t107.5 20.5t335.5 -65q138 80 313 262q-87 19 -131 76.5t-44 136.5v2q-82 9 -121.5 47t-39.5 94q0 95 98 194.5t233 126.5l3 -9q-135 -28 -227 -120.5t-92 -182.5q0 -53 36 -89.5t110 -48.5q3 60 31 118.5t74.5 107t117.5 78.5t142 30
q130 0 130 -81q0 -39 -33 -85.5t-88.5 -87t-140 -68t-177.5 -27.5q-24 0 -35 1v-10q0 -71 41.5 -121.5t126.5 -66.5q32 33 94.5 101t95 102t85.5 84t89 74q95 62 169 62q95 0 95 -63q0 -46 -51.5 -112t-129.5 -126t-182.5 -102.5t-199.5 -42.5q-24 0 -35 1
q-179 -179 -329 -262z" />
    <glyph glyph-name="ldot" unicode="&#x140;" horiz-adv-x="325" 
d="M338 -111q-16 -13 -29.5 -13t-13.5 11t16 25.5t29.5 14.5t13.5 -11q0 -14 -16 -27zM577 577q-50 0 -234 -161t-298 -296q133 91 335 256.5t202 197.5q0 3 -5 3zM15 83q-40 -53 -40 -71.5t17 -18.5q47 0 172 87l2 -15q-133 -87 -188 -87q-27 0 -27 25q0 55 128.5 198.5
t284 266t220.5 122.5q12 0 12 -9q0 -24 -48.5 -75.5t-130.5 -117.5t-153 -120t-154 -114.5t-95 -70.5z" />
    <glyph glyph-name="Lslash" unicode="&#x141;" horiz-adv-x="1260" 
d="M185 -30q132 0 267 70q-249 68 -307 68t-83.5 -16t-25.5 -43.5t40.5 -53t108.5 -25.5zM708 5q145 -31 225.5 -31t137.5 26.5t57 59.5q0 24 -35 40.5t-102 16.5q-106 0 -178 -31t-105 -81zM1170 654q-68 -63 -167.5 -170.5t-145.5 -154.5q10 -1 31 -1q82 0 177.5 42
t169 100t123 120.5t49.5 103.5q0 49 -71 49t-166 -89zM1092 794q0 67 -109 67q-60 0 -123.5 -28.5t-108.5 -74.5t-73 -102t-33 -111q26 -2 42 -2q83 0 161 26t130 64.5t83 82t31 78.5zM513 51q73 -18 174 -42q33 54 112.5 87.5t201.5 33.5q72 0 114.5 -22t42.5 -53
q0 -38 -64.5 -67t-168 -29t-230.5 24q-10 -24 -10 -52q0 -65 63.5 -111.5t176.5 -46.5l4 -8q-18 -2 -27 -2q-107 0 -171.5 51.5t-64.5 121.5q0 27 10 50q-99 21 -198 47q-152 -76 -303 -76q-75 0 -122 29.5t-47 62.5t36 53.5t107.5 20.5t335.5 -65q106 62 223 172h-171
q-14 0 -14 8.5t8 8.5h194q37 36 73 73q-87 19 -131 76.5t-44 136.5v2q-82 9 -121.5 47t-39.5 94q0 95 98 194.5t233 126.5l3 -9q-135 -28 -227 -120.5t-92 -182.5q0 -53 36 -89.5t110 -48.5q3 60 31 118.5t74.5 107t117.5 78.5t142 30q130 0 130 -81q0 -39 -33 -85.5
t-88.5 -87t-140 -68t-177.5 -27.5q-24 0 -35 1v-10q0 -71 41.5 -121.5t126.5 -66.5q32 33 94.5 101t95 102t85.5 84t89 74q95 62 169 62q95 0 95 -63q0 -46 -51.5 -112t-129.5 -126t-182.5 -102.5t-199.5 -42.5q-24 0 -35 1q-45 -45 -68 -66h166q3 0 3 -7.5t-9 -9.5h-178
q-131 -117 -243 -179z" />
    <glyph glyph-name="lslash" unicode="&#x142;" horiz-adv-x="176" 
d="M577 577q-38 0 -162.5 -101t-249.5 -226q417 278 417 324q0 3 -5 3zM-25 8q0 -15 17 -15q47 0 172 87l2 -15q-133 -87 -188 -87q-27 0 -27 25q0 47 108 175l-46 -7q-14 0 -14 8.5t8 8.5l69 9q126 142 283.5 267.5t224.5 125.5q12 0 12 -12t-17.5 -35.5t-53 -53t-70.5 -57
t-88.5 -64t-87.5 -59.5t-87 -57q-68 -44 -73 -49l93 13q3 0 3 -4q0 -12 -9 -12l-105 -16q-126 -136 -126 -176z" />
    <glyph glyph-name="Nacute" unicode="&#x143;" horiz-adv-x="759" 
d="M249 228q82 15 156.5 15t136.5 -13q21 40 21 70q0 63 -83 63q-71 0 -132.5 -38.5t-98.5 -96.5zM297 1q37 -14 92 -14q145 0 307 142q-48 54 -131 80q-35 -63 -106 -120t-162 -88zM197 113q0 49 27 99q-100 -25 -160 -71.5t-60 -89.5q0 -30 32.5 -48.5t94 -18.5t124.5 19
q-58 38 -58 110zM535 218q-65 15 -139.5 15t-154.5 -17q-29 -50 -29 -100q0 -72 63 -106q84 31 154 89t106 119zM600 541l1 -17h14q90 0 173.5 25.5t138.5 63.5t87.5 80.5t32.5 76.5t-28.5 53.5t-84.5 19.5q-85 0 -164 -50t-124.5 -120t-45.5 -132zM763 995l3 -12
q-156 -22 -260.5 -118.5t-104.5 -194.5q0 -58 42 -96.5t126 -47.5q-2 18 -2 28q0 50 28 103.5t76 99t120 75t142.5 29.5t101 -22.5t30.5 -61.5t-33 -84.5t-90 -86.5t-145.5 -68t-187.5 -27h-6q22 -85 147 -85q64 0 153 38t183 116l6 -8q-30 -26 -76 -57.5t-126 -65.5
t-145 -34q-144 0 -172 97q-93 7 -140.5 49t-47.5 105q0 101 106.5 201t271.5 128zM1891 726.5q-26 24.5 -82 24.5t-121.5 -23t-123.5 -56t-127.5 -89t-120 -102t-116.5 -115t-101 -109t-91 -104.5t-70 -80.5l-56 -73q-5 -3 -9 -3t-4 6l12 21q14 18 63 123l17 35
q77 162 116 225q137 223 253 328q-17 0 -92 -70l-25 -24q-311 -341 -490 -503q51 -54 51 -116q0 -77 -81.5 -140.5t-240.5 -87.5v11q139 22 213 83.5t74 136.5q0 50 -35 96q-81 -70 -158 -108t-154 -38t-119 20q-73 -21 -144 -21t-109 22.5t-38 57.5q0 48 66 97.5t183 74.5
q39 65 108.5 108.5t152.5 43.5q51 0 76 -21.5t25 -57.5t-21 -76q91 -27 142 -77q8 8 55 51t162.5 163t192.5 205l78 84q128 125 219 145q11 0 11 -5.5t-6 -7.5q-46 -14 -86.5 -62.5t-99 -132.5t-100.5 -156q-102 -172 -128 -227l-8 -19q0 -1 3 -1l13 10q21 22 64.5 69
t70.5 75.5t72.5 75t78 76.5t79 70t84 66t84 54.5t87.5 44.5q96 37 168 37t104 -32t32 -87.5t-63 -124t-146.5 -112.5t-144.5 -44q-72 0 -72 68q0 47 44 95.5t117 66.5l3 -10q-69 -21 -109 -64t-40 -85q0 -58 53 -58t132 48.5t139 118t60 116t-26 71zM488 435l-138 -57l-4 10
q25 15 84.5 45t66.5 30t7 -11.5t-16 -16.5z" />
    <glyph glyph-name="nacute" unicode="&#x144;" horiz-adv-x="618" 
d="M181 157.5q0 -22.5 -32 -65.5q114 79 183 79q27 0 27 -23t-20 -47.5t-44 -42.5q-64 -46 -64 -58q0 -7 11.5 -7t38.5 12t48 24.5t50.5 31t31.5 19.5l2 -15q-135 -90 -189 -90q-26 0 -26 25q0 17 21.5 40.5t46.5 43.5q69 52 69 69q0 5 -11 5q-37 0 -110 -40t-162 -130
q-6 -6 -22.5 -6t-16.5 9q0 3 69 74t69 92q0 5 -6.5 5t-27 -13t-63 -41.5t-72.5 -47.5l-3 14q15 10 41 28t43 29.5t37 24.5q39 24 60 24t21 -22.5zM420 270l-138 -57l-4 10q25 15 84.5 45t66.5 30t7 -11.5t-16 -16.5z" />
    <glyph glyph-name="uni0145" unicode="&#x145;" horiz-adv-x="759" 
d="M281 -209q11 25 24 70.5t17 77.5h87v-9q-8 -31 -31.5 -76.5t-48.5 -74.5h-48v12zM249 228q82 15 156.5 15t136.5 -13q21 40 21 70q0 63 -83 63q-71 0 -132.5 -38.5t-98.5 -96.5zM297 1q37 -14 92 -14q145 0 307 142q-48 54 -131 80q-35 -63 -106 -120t-162 -88zM197 113
q0 49 27 99q-100 -25 -160 -71.5t-60 -89.5q0 -30 32.5 -48.5t94 -18.5t124.5 19q-58 38 -58 110zM535 218q-65 15 -139.5 15t-154.5 -17q-29 -50 -29 -100q0 -72 63 -106q84 31 154 89t106 119zM600 541l1 -17h14q90 0 173.5 25.5t138.5 63.5t87.5 80.5t32.5 76.5
t-28.5 53.5t-84.5 19.5q-85 0 -164 -50t-124.5 -120t-45.5 -132zM763 995l3 -12q-156 -22 -260.5 -118.5t-104.5 -194.5q0 -58 42 -96.5t126 -47.5q-2 18 -2 28q0 50 28 103.5t76 99t120 75t142.5 29.5t101 -22.5t30.5 -61.5t-33 -84.5t-90 -86.5t-145.5 -68t-187.5 -27h-6
q22 -85 147 -85q64 0 153 38t183 116l6 -8q-30 -26 -76 -57.5t-126 -65.5t-145 -34q-144 0 -172 97q-93 7 -140.5 49t-47.5 105q0 101 106.5 201t271.5 128zM1891 726.5q-26 24.5 -82 24.5t-121.5 -23t-123.5 -56t-127.5 -89t-120 -102t-116.5 -115t-101 -109t-91 -104.5
t-70 -80.5l-56 -73q-5 -3 -9 -3t-4 6l12 21q14 18 63 123l17 35q77 162 116 225q137 223 253 328q-17 0 -92 -70l-25 -24q-311 -341 -490 -503q51 -54 51 -116q0 -77 -81.5 -140.5t-240.5 -87.5v11q139 22 213 83.5t74 136.5q0 50 -35 96q-81 -70 -158 -108t-154 -38
t-119 20q-73 -21 -144 -21t-109 22.5t-38 57.5q0 48 66 97.5t183 74.5q39 65 108.5 108.5t152.5 43.5q51 0 76 -21.5t25 -57.5t-21 -76q91 -27 142 -77q8 8 55 51t162.5 163t192.5 205l78 84q128 125 219 145q11 0 11 -5.5t-6 -7.5q-46 -14 -86.5 -62.5t-99 -132.5
t-100.5 -156q-102 -172 -128 -227l-8 -19q0 -1 3 -1l13 10q21 22 64.5 69t70.5 75.5t72.5 75t78 76.5t79 70t84 66t84 54.5t87.5 44.5q96 37 168 37t104 -32t32 -87.5t-63 -124t-146.5 -112.5t-144.5 -44q-72 0 -72 68q0 47 44 95.5t117 66.5l3 -10q-69 -21 -109 -64
t-40 -85q0 -58 53 -58t132 48.5t139 118t60 116t-26 71z" />
    <glyph glyph-name="uni0146" unicode="&#x146;" horiz-adv-x="618" 
d="M222 -209q11 25 24 70.5t17 77.5h87v-9q-8 -31 -31.5 -76.5t-48.5 -74.5h-48v12zM181 157.5q0 -22.5 -32 -65.5q114 79 183 79q27 0 27 -23t-20 -47.5t-44 -42.5q-64 -46 -64 -58q0 -7 11.5 -7t38.5 12t48 24.5t50.5 31t31.5 19.5l2 -15q-135 -90 -189 -90q-26 0 -26 25
q0 17 21.5 40.5t46.5 43.5q69 52 69 69q0 5 -11 5q-37 0 -110 -40t-162 -130q-6 -6 -22.5 -6t-16.5 9q0 3 69 74t69 92q0 5 -6.5 5t-27 -13t-63 -41.5t-72.5 -47.5l-3 14q15 10 41 28t43 29.5t37 24.5q39 24 60 24t21 -22.5z" />
    </font>
</defs>
</svg>
