<?xml version="1.0" standalone="no"?>
<!DOCTYPE svg PUBLIC "-//W3C//DTD SVG 1.1//EN" "http://www.w3.org/Graphics/SVG/1.1/DTD/svg11.dtd" >
<svg xmlns="http://www.w3.org/2000/svg" xmlns:xlink="http://www.w3.org/1999/xlink" version="1.1">
<metadata>
Created by FontForge 20190801 at Mon Feb  8 12:16:53 2021
 By root
Copyright (c) 2004 Alejandro Paul (sudtipos@sudtipos.com),with Reserved Font Name "Mrs Saint Delafield"
</metadata>
<defs>
<font id="MrsSaintDelafield-Regular" horiz-adv-x="200" >
  <font-face 
    font-family="Mrs Saint Delafield"
    font-weight="400"
    font-stretch="normal"
    units-per-em="1000"
    panose-1="2 0 0 0 0 0 0 0 0 0"
    ascent="800"
    descent="-200"
    x-height="191"
    cap-height="740"
    bbox="-289 -619 1729 1046"
    underline-thickness="50"
    underline-position="-100"
    unicode-range="U+0001-206F"
  />
<missing-glyph horiz-adv-x="364" 
d="M33 0v666h265v-666h-265zM66 33h199v600h-199v-600z" />
    <glyph glyph-name=".notdef" horiz-adv-x="364" 
d="M33 0v666h265v-666h-265zM66 33h199v600h-199v-600z" />
    <glyph glyph-name="uni0000" 
 />
    <glyph glyph-name="uni0000" 
 />
    <glyph glyph-name="uni000D" unicode="&#xd;" 
 />
    <glyph glyph-name="uni0001" 
 />
    <glyph glyph-name="uni0002" 
 />
    <glyph glyph-name="uni0003" 
 />
    <glyph glyph-name="uni0004" 
 />
    <glyph glyph-name="uni0005" 
 />
    <glyph glyph-name="uni0006" 
 />
    <glyph glyph-name="uni0007" 
 />
    <glyph glyph-name="uni0008" 
 />
    <glyph glyph-name="uni0009" unicode="&#x9;" 
 />
    <glyph glyph-name="uni000A" unicode="&#xa;" 
 />
    <glyph glyph-name="uni000B" 
 />
    <glyph glyph-name="uni000C" 
 />
    <glyph glyph-name="uni000E" 
 />
    <glyph glyph-name="uni000F" 
 />
    <glyph glyph-name="uni0010" 
 />
    <glyph glyph-name="uni0011" 
 />
    <glyph glyph-name="uni0012" 
 />
    <glyph glyph-name="uni0013" 
 />
    <glyph glyph-name="uni0014" 
 />
    <glyph glyph-name="uni0015" 
 />
    <glyph glyph-name="uni0016" 
 />
    <glyph glyph-name="uni0017" 
 />
    <glyph glyph-name="uni0018" 
 />
    <glyph glyph-name="uni0019" 
 />
    <glyph glyph-name="uni001A" 
 />
    <glyph glyph-name="uni001B" 
 />
    <glyph glyph-name="uni001C" 
 />
    <glyph glyph-name="uni001D" 
 />
    <glyph glyph-name="uni001E" 
 />
    <glyph glyph-name="uni001F" 
 />
    <glyph glyph-name="space" unicode=" " 
 />
    <glyph glyph-name="exclam" unicode="!" horiz-adv-x="327" 
d="M476.5 636q11.5 11 23.5 11t18 -8q0 -5 -156.5 -246t-187.5 -290q-11 -18 -21 -18q-8 0 -8 11q1 6 153.5 257t159.5 261.5t18.5 21.5zM134 42q6 -6 6 -18t-13 -28t-24 -16t-17 6.5t-6 15t14 27.5t24 19t16 -6z" />
    <glyph glyph-name="quotedbl" unicode="&#x22;" horiz-adv-x="271" 
d="M299 565q0 -4 -3 -10l-84 -102q-7 -10 -14 -10q-5 0 -5 5.5t3 11.5l76 111q6 10 15 10q12 0 12 -16zM364 565q0 -4 -3 -10l-84 -102q-7 -10 -14 -10q-5 0 -5 5.5t3 11.5l76 111q6 10 15 10q12 0 12 -16z" />
    <glyph glyph-name="numbersign" unicode="#" horiz-adv-x="503" 
d="M330 97l21 58q-23 -1 -66 -1l-21 -57h66zM359 179q38 113 47 113q5 0 9.5 -4.5t4.5 -10.5l-34 -97q86 3 113 9q5 0 5 -3q0 -28 -13 -28q-5 0 -114 -3l-20 -58q91 3 108 9q6 0 6 -3q0 -26 -13 -27l-110 -4l-36 -101q-2 -6 -6.5 -6t-9 4.5t-4.5 10.5q27 84 30 92
q-22 -1 -67 -1l-35 -100q-1 -6 -6.5 -6t-9.5 4.5t-4 10.5q16 51 28 91h-76q-29 0 -29 8q0 18 13 18h101q8 19 20 57h-72q-29 0 -29 8q0 17 13 17h97l32 88q9 25 14.5 25t10.5 -4.5t5 -10.5l-35 -98h66z" />
    <glyph glyph-name="dollar" unicode="$" horiz-adv-x="613" 
d="M593 807q0 -11 -9 -23.5t-25 -39.5q41 -9 63 -27.5t22 -40.5q0 -33 -45 -58t-126 -29q-37 -73 -68 -137q6 -5 34.5 -28t37.5 -30.5t31.5 -28t31 -32.5t20.5 -31q22 -33 22 -67.5t-12.5 -68t-40.5 -68.5t-67 -63.5t-98 -46.5t-127 -18q-15 0 -43 2q-22 -58 -32 -94
q-4 -4 -9.5 -4t-11 6.5t-7.5 19.5q11 35 27 76q-77 14 -116 50.5t-39 84.5q0 65 67 116t177 51q21 0 37 -4q26 57 81 167q-42 36 -64 57.5t-42.5 52t-20.5 56.5q0 67 73.5 106t165.5 39q34 0 55 -4q10 20 38 60q7 10 12 10q8 0 8 -11zM377 173q0 -22 -15 -22q-11 0 -14 12
q-11 46 -44 72q-55 -124 -101 -240q30 -4 48 -4q118 0 197.5 71.5t79.5 155.5q0 51 -36 98t-102 106q-32 -66 -72 -157q59 -25 59 -92zM100 220q-47 -38 -47 -85.5t30.5 -82.5t86.5 -51q40 104 106 249q-22 8 -45 8q-84 0 -131 -38zM426 626l29 -2h8q25 45 58 100
q-20 4 -49 4q-72 0 -130 -31.5t-58 -84.5q0 -36 25 -69t73 -73q34 67 63 119q-28 6 -28 30q2 7 9 7zM619 670q0 14 -20.5 28t-54.5 22q-39 -70 -52 -96q127 6 127 46z" />
    <glyph glyph-name="percent" unicode="%" horiz-adv-x="916" 
d="M454.5 751q11.5 -10 11.5 -24.5t-8 -28.5q50 -7 50 -69t-45 -144.5t-123.5 -146.5t-159.5 -64q-86 0 -86 92q0 71 48 163.5t127 162t155 69.5q19 0 30.5 -10zM841.5 470q11.5 -10 11.5 -24.5t-8 -28.5q50 -7 50 -69t-45 -144.5t-123.5 -146.5t-159.5 -64q-86 0 -86 92
q0 71 48 163.5t127 162t155 69.5q19 0 30.5 -10zM376 626.5q-14 -12.5 -13.5 -20.5t0.5 -9q0 -7 -4.5 -7t-10 6t-5.5 11q0 22 16.5 38.5t36.5 24.5q52 22 52 50q0 25 -34 25q-68 0 -135 -64t-106 -149t-39 -151q0 -85 68 -85q59 0 124.5 63t106.5 143t41 126t-27 55
q-11 -13 -34 -28.5t-37 -28zM763 345.5q-14 -12.5 -13.5 -20.5t0.5 -9q0 -7 -4.5 -7t-10 6t-5.5 11q0 22 16.5 38.5t35.5 24.5q53 22 53 50q0 25 -34 25q-68 0 -135 -64t-106 -149t-39 -151q0 -85 68 -85q59 0 124.5 63t106.5 143t41 126t-27 55q-11 -13 -34 -28.5t-37 -28z
M780 810q-422 -601 -512 -892q-4 -4 -9.5 -4t-11 6.5t-7.5 19.5q53 163 198 396q123 198 219 336t105.5 152t14.5 14q8 0 8 -11t-5 -17z" />
    <glyph glyph-name="ampersand" unicode="&#x26;" horiz-adv-x="552" 
d="M-16 106q0 47 21 96t48.5 86t77 83t82.5 72.5t90 68.5q18 74 55 124q64 88 132 88q27 0 27 -17q0 -29 -28.5 -66t-61.5 -65.5t-95 -77.5q-9 -51 -9 -109t4 -95q91 53 163 53t72 -64q0 -46 -45 -109t-117 -113q60 -98 155 -98q34 0 74.5 21.5t46 21.5t5.5 -5
q0 -18 -51 -39.5t-101 -21.5q-96 0 -162 100q-110 -65 -225 -65q-73 0 -115.5 34t-42.5 97zM238 218q19 26 53 52q-5 48 -5 97t8 100q-197 -157 -244 -266q-21 -51 -21 -102q0 -102 128 -102q95 0 198 64q-45 80 -61 190q-50 -45 -53 -97q-4 -14 -15.5 -14t-11.5 21
q-1 10 -1 46.5t1 53t12 16.5q6 0 10.5 -6.5t4.5 -16t-3 -36.5zM526 267q0 53 -64.5 53t-132.5 -42q16 -117 58 -195q61 44 100 96t39 88zM484 695q0 10 -15 10q-30 0 -68.5 -40.5t-59.5 -124.5q73 55 108 90.5t35 64.5z" />
    <glyph glyph-name="quotesingle" unicode="'" horiz-adv-x="206" 
d="M299 565q0 -4 -3 -10l-84 -102q-7 -10 -14 -10q-5 0 -5 5.5t3 11.5l76 111q6 10 15 10q12 0 12 -16z" />
    <glyph glyph-name="parenleft" unicode="(" horiz-adv-x="317" 
d="M589 766l-5 -12q-189 -91 -308.5 -267.5t-119.5 -400.5q0 -148 61 -236q0 -14 -3.5 -14t-6.5 4q-47 59 -68 113.5t-21 129.5t16 150.5t43 135t62.5 112.5t74 92.5t77.5 72.5t75 56q67 43 105 59l16 7q2 0 2 -2z" />
    <glyph glyph-name="parenright" unicode=")" horiz-adv-x="317" 
d="M-44 -162l5 12q189 91 308.5 267.5t119.5 400.5q0 148 -61 236q0 14 3.5 14t6.5 -4q47 -59 68 -113.5t21 -129.5t-16 -150.5t-43 -135t-62.5 -112.5t-74.5 -92.5t-77.5 -72.5t-73.5 -56q-68 -43 -106 -59l-16 -7q-2 0 -2 2z" />
    <glyph glyph-name="asterisk" unicode="*" horiz-adv-x="500" 
d="M276 238l34 -46q3 -4 3 -9t-8.5 -5t-12.5 7l-27 42l-18 -60q-12 -9 -15.5 -9t-3.5 4.5t1 7.5l18 54l-51 -38q-4 -3 -10 -3t-6 5t8 10l51 40h-57q-8 0 -8 8.5t14 8.5h57l-21 40q-3 6 -3 9q0 7 8 7t8 -4l26 -48l19 63q7 11 13 11t6 -3t-1 -5l-18 -56l51 39q8 2 10 2
q8 0 8 -5t-4 -9q-36 -27 -58 -41h55q8 0 8 -8.5t-13 -8.5h-63z" />
    <glyph glyph-name="plus" unicode="+" horiz-adv-x="356" 
d="M362 297q0 -4 -3.5 -4t-5.5 1h-140l-46 -131q-2 -7 -8 -7t-11.5 5.5t-5.5 12.5q22 73 38 120h-109q-15 0 -15 21q0 6 6 8t50.5 2t77.5 -1q45 128 53 128t13.5 -6t5.5 -13l-39 -109l124 -5q15 -1 15 -22z" />
    <glyph glyph-name="comma" unicode="," horiz-adv-x="206" 
d="M119 47q30 0 30 -20q0 -28 -44.5 -62.5t-96.5 -37.5q-10 0 -10 3t10 5.5t19.5 5.5t21.5 8t21 11q22 14 22 29l-1 27q0 12 8 21.5t20 9.5z" />
    <glyph glyph-name="hyphen" unicode="-" horiz-adv-x="531" 
d="M465 92q0 -5 -9 -5l-282 2q-15 0 -15 21q0 6 6 8t85.5 2t199.5 -6q15 -1 15 -22z" />
    <glyph glyph-name="period" unicode="." horiz-adv-x="243" 
d="M156.5 35q5.5 -6 5.5 -17t-15 -28t-26 -17t-16 6.5t-5 15t16 27.5t25.5 19t15 -6z" />
    <glyph glyph-name="slash" unicode="/" horiz-adv-x="391" 
d="M556 826q-86 -125 -235 -447t-191 -465q-4 -4 -9.5 -4t-11 6.5t-7.5 19.5q68 206 208 489t231 419q7 10 12 10q8 0 8 -11t-5 -17z" />
    <glyph glyph-name="zero" unicode="0" horiz-adv-x="622" 
d="M595.5 727q17.5 -16 17.5 -39.5t-12 -47.5q53 -28 53 -113q0 -58 -25 -131.5t-71.5 -146t-106 -134t-135 -99.5t-147.5 -38t-105.5 39.5t-33.5 106.5t28.5 150.5t80 164.5t114.5 150t139.5 111.5t148.5 42.5q37 0 54.5 -16zM451 491l1 -7q0 -12 -7 -12q-13 0 -13 28
t20.5 51.5t57 46.5t49.5 35q-16 4 -27 4q-74 0 -117 -30q-10 -8 -26.5 -8t-16.5 5.5t12 12.5q62 36 160 36q16 0 29 -3q13 18 13 38t-16 29t-37 9q-106 0 -214 -103t-173 -239.5t-65 -242.5q0 -64 28.5 -101t94.5 -37t144 58t135.5 141t94.5 174.5t37 155t-30 87.5
q-18 -20 -53.5 -45t-58 -45t-22.5 -38z" />
    <glyph glyph-name="one" unicode="1" horiz-adv-x="305" 
d="M0 4q0 63 98.5 281.5t214.5 347.5q-51 -14 -81.5 -29.5t-51.5 -43.5q-16 -15 -29.5 -15t-13.5 15t13.5 28t45.5 25q55 20 136 40q96 99 181 99q35 0 35 -18q0 -31 -96 -61q-36 -12 -88 -26q-93 -101 -185 -281q-128 -250 -145 -394q0 -16 -5 -16q-13 0 -21 16.5t-8 31.5z
M501 733q-50 0 -118 -66q45 13 74 23q57 19 57 36q0 7 -13 7z" />
    <glyph glyph-name="two" unicode="2" horiz-adv-x="534" 
d="M436 736q125 0 125 -99q0 -89 -94 -232.5t-220 -269.5q21 -13 61.5 -46t74 -50.5t71.5 -17.5t97 37q6 5 11.5 5t5.5 -4q0 -17 -55.5 -41.5t-87 -24.5t-63 12.5t-51 26t-51 39t-44.5 34.5q-142 -135 -209 -135q-45 0 -45 41q0 49 57 100.5t137 51.5q30 0 61 -13
q113 123 198.5 259t85.5 218t-103 82t-186.5 -73.5t-83.5 -139.5q0 -56 70 -56q89 0 142 100q6 11 12.5 25t11 23t8.5 18q9 17 16 17q9 0 9 -15q0 -54 -61.5 -121t-152.5 -67q-45 0 -67 19t-22 52.5t26 76t69.5 80t109.5 63t137 25.5zM-7 31q0 -29 40.5 -29t155.5 120
q-29 16 -56 16q-55 0 -97.5 -36.5t-42.5 -70.5z" />
    <glyph glyph-name="three" unicode="3" horiz-adv-x="508" 
d="M283 401l44 3q71 0 105.5 -26.5t34.5 -70.5q0 -73 -78.5 -163t-186.5 -136q51 -31 96 -31q15 0 15 -13q0 -17 -36 -17q-23 0 -55 23q-26 17 -42 30q-66 -23 -120 -23t-84 19t-30 38.5t16.5 30.5t51.5 11t71 -10t53.5 -19t47.5 -28q92 40 154.5 125.5t62.5 156.5
q0 83 -89 83q-35 0 -72.5 -11t-45 -15.5t-9.5 -4.5q-6 0 -6 9.5t26 19.5q103 39 216 132.5t113 152.5q0 33 -25.5 49.5t-74 16.5t-108 -22.5t-103 -64t-43.5 -93.5t43 -52q36 0 79 35.5t53 74t31 38.5q9 0 9 -15q0 -49 -65 -101t-122 -52q-62 0 -62 71q0 57 51.5 108
t123.5 78.5t133.5 27.5t96 -23.5t34.5 -73.5t-73.5 -120t-230.5 -148zM58 52q-76 0 -76 -22q0 -13 26 -24.5t67.5 -11.5t89.5 17q-58 41 -107 41z" />
    <glyph glyph-name="four" unicode="4" horiz-adv-x="588" 
d="M257 -36q-24 0 -24 33q0 48 44 165q-100 -23 -157 -23q-94 0 -94 84q0 63 53.5 157t132 179.5t178.5 147t179.5 61.5t79.5 -42q0 -32 -39 -71t-62 -39q-6 0 -6 7.5t4 10.5q21 10 39.5 32t18.5 41q0 36 -64.5 36t-145.5 -56.5t-148.5 -134.5t-115 -165t-47.5 -144
q0 -77 86 -77q38 0 115 14q59 152 162 354l33 63q2 9 22 9q8 0 8 -8t-2 -13q-114 -222 -180 -397q135 27 161 27t62 -13t36 -29q0 -6 -5.5 -10t-11 -4t-51.5 14t-87 14t-110 -15q-48 -131 -51 -192q-2 -16 -13 -16z" />
    <glyph glyph-name="five" unicode="5" horiz-adv-x="529" 
d="M591 735q0 11 -20 11t-51.5 -18t-48.5 -48h14q43 0 74.5 19t31.5 36zM206 42l-173 4q-77 0 -77 -23q0 -13 26 -24.5t60 -11.5q85 0 164 55zM260 682q-8 0 -13 -9q0 -21 -35.5 -113.5t-66.5 -147.5q0 -6 6 -6l12 3q87 24 157 24q135 0 135 -103q0 -56 -51.5 -131.5
t-130.5 -134.5h67q35 0 49 3t16 3q14 0 14 -15t-20 -16q-8 0 -158 2q-110 -71 -210 -71q-51 0 -81 19t-30 38.5t16.5 30.5t46.5 11q75 0 249 -4h5q67 55 110.5 129.5t43.5 129.5q0 83 -90 83q-35 0 -85 -11.5t-82 -23.5l-33 -12q-16 -8 -21 -8t-5 8l4 13q42 48 79 133
t54 146l16 62q7 6 18 6q24 -10 90.5 -22.5t106.5 -15.5q22 37 62 61.5t85.5 24.5t45.5 -26q0 -28 -48 -54.5t-123 -26.5h-2q-6 -17 -6 -41.5t16 -33.5q5 -4 5 -9t-11 -6q-42 12 -42 54q0 19 7 36q-104 4 -172 21z" />
    <glyph glyph-name="six" unicode="6" horiz-adv-x="597" 
d="M210 4q84 0 165 79q-80 9 -121.5 52.5t-41.5 103.5q0 78 64 141t167 63q52 0 77.5 -26.5t25.5 -76.5t-33 -117.5t-88 -124.5h2q80 0 125 58q5 7 7 7q6 0 6 -8q0 -32 -44.5 -53t-107.5 -21h-6q-109 -104 -232 -104q-74 0 -109.5 42t-35.5 120t45.5 186.5t116 203.5
t166.5 160t187 65q64 0 123 -34q12 -12 12 -30t-17 -18q-9 0 -20 10q-57 34 -130 34t-155 -58.5t-139 -144t-93 -183.5t-36 -172q0 -154 120 -154zM428 423q-79 0 -124 -49.5t-45 -111.5t34.5 -106.5t98.5 -54.5q49 54 79 120.5t30 118.5q0 83 -73 83z" />
    <glyph glyph-name="seven" unicode="7" horiz-adv-x="561" 
d="M502 420q1 0 4 1q13 0 13 -19q0 -27 -33 -27l-77 4q-29 2 -60 2q-99 -178 -137 -329q-11 -37 -16 -80q0 -16 -5 -16q-13 0 -21 16.5t-8 31.5q0 57 40 162t105 217h-31q-73 0 -90.5 2.5t-18.5 13.5q0 5 2.5 6t13.5 1h138q92 153 188 244q-27 9 -81 32q-110 46 -168.5 46
t-95 -32.5t-36.5 -68.5t22.5 -57t60 -21t59.5 19t27 38l5 19q4 9 9.5 9t9 -7t3.5 -15q0 -29 -29.5 -55t-81.5 -26t-85 28.5t-33 74.5t50.5 84.5t142.5 38.5q40 0 130.5 -36.5t118.5 -44.5q91 75 164.5 75t73.5 -43q0 -30 -37.5 -57t-91 -27t-112.5 18q-83 -83 -171 -235
q81 1 139 13zM699 733q-62 0 -136 -64q50 -13 95 -13t67.5 14t22.5 30q0 33 -49 33z" />
    <glyph glyph-name="eight" unicode="8" horiz-adv-x="640" 
d="M275 441l29 -2q43 0 82 9q-39 35 -60 55.5t-39.5 49.5t-18.5 54q0 67 73.5 106t165.5 39q170 0 170 -82q0 -53 -69.5 -120.5t-161.5 -109.5q41 -31 61 -48t49 -46q53 -56 53 -117q0 -65 -53 -131q-63 -79 -165 -110q-59 -18 -127 -18q-111 0 -172.5 62.5t-61.5 145.5
t81.5 139t171.5 56q56 0 91.5 -26.5t35.5 -78.5q0 -22 -15 -22q-11 0 -14 12q-11 48 -42.5 71.5t-74.5 23.5q-68 0 -126.5 -49t-58.5 -121t52.5 -132t146.5 -60q118 0 197.5 71.5t79.5 155.5q0 53 -37.5 101.5t-105.5 106.5q-60 -22 -110 -22q-14 0 -25 8t-11 22q2 7 9 7z
M311 612q0 -39 29 -74.5t83 -78.5q88 29 149.5 87t61.5 108q0 34 -33 54t-103.5 20t-128.5 -31.5t-58 -84.5z" />
    <glyph glyph-name="nine" unicode="9" horiz-adv-x="641" 
d="M33 30q-13 13 -13 28t14 15q11 0 22 -11q62 -56 136 -56t152 59t135 144.5t93.5 183.5t36.5 169q0 147 -118 147q-72 0 -142 -59t-109.5 -137t-39.5 -140q0 -83 73 -83q89 0 142 100q6 11 12.5 25t11 23t9.5 18q8 17 15 17q9 0 9 -15q0 -68 -64 -128t-150 -60
q-52 0 -77.5 26.5t-25.5 75.5t30.5 112.5t79.5 119.5t119.5 94t141.5 38t105 -39.5t34 -106.5t-28 -149.5t-78 -162.5t-111.5 -147.5t-135.5 -109.5t-145 -42t-134 51z" />
    <glyph glyph-name="colon" unicode=":" horiz-adv-x="243" 
d="M156.5 35q5.5 -6 5.5 -17t-15 -28t-26 -17t-16 6.5t-5 15t16 27.5t25.5 19t15 -6zM232.5 186q5.5 -6 5.5 -17t-15 -28t-26 -17t-16 6.5t-5 15t16 27.5t25.5 19t15 -6z" />
    <glyph glyph-name="semicolon" unicode=";" horiz-adv-x="206" 
d="M119 47q30 0 30 -20q0 -28 -44.5 -62.5t-96.5 -37.5q-10 0 -10 3t10 5.5t19.5 5.5t21.5 8t21 11q22 14 22 29l-1 27q0 12 8 21.5t20 9.5zM232.5 186q5.5 -6 5.5 -17t-15 -28t-26 -17t-16 6.5t-5 15t16 27.5t25.5 19t15 -6z" />
    <glyph glyph-name="less" unicode="&#x3c;" horiz-adv-x="455" 
d="M185 262q143 -74 156.5 -84.5t13.5 -24.5t-6 -18.5t-11 -4.5t-5 2q0 19 -59.5 50t-118.5 60t-58 44q0 19 28 19q86 0 168 17t98 41q2 3 4.5 3t6 -6.5t3.5 -11.5q-1 -30 -92 -49.5t-137 -19.5q-9 0 -9 -3q0 -5 18 -14z" />
    <glyph glyph-name="equal" unicode="=" horiz-adv-x="374" 
d="M362 270q0 -4 -3.5 -4t-5.5 1h-282q-15 0 -15 21q0 6 6 8t85.5 2t199.5 -6q15 -1 15 -22zM380 338q0 -4 -3.5 -4t-5.5 1h-282q-15 0 -15 21q0 6 6 8t85.5 2t199.5 -6q15 -1 15 -22z" />
    <glyph glyph-name="greater" unicode="&#x3e;" horiz-adv-x="455" 
d="M270 238q-143 74 -156.5 84.5t-13.5 24.5t6 18.5t11 4.5t5 -2q0 -19 59.5 -50t118.5 -60t58 -44q0 -19 -28 -19q-86 0 -168 -17t-98 -41q-2 -3 -4.5 -3t-6 6.5t-3.5 11.5q1 30 92 49.5t137 19.5q9 0 9 3q0 5 -18 14z" />
    <glyph glyph-name="question" unicode="?" horiz-adv-x="534" 
d="M254 81q0 -11 -28 -11t-47 15t-19 37q0 72 126 164q53 38 106 80.5t90 103.5t37 131q0 47 -29 70t-82 23t-116.5 -27.5t-109 -76t-45.5 -101.5q0 -56 70 -56q89 0 142 100q6 11 12.5 25t11 23t9.5 18q8 17 15 17q9 0 9 -15q0 -54 -61.5 -121t-152.5 -67q-45 0 -67 19
t-22 51q0 61 56.5 117t134.5 87t142 31q134 0 134 -100q0 -67 -28.5 -125t-71 -96t-92.5 -75t-92.5 -64.5t-71 -62.5t-28.5 -72q0 -24 22 -24l28 2q4 0 11 -7t7 -13zM156.5 35q5.5 -6 5.5 -17t-15 -28t-26 -17t-16 6.5t-5 15t16 27.5t25.5 19t15 -6z" />
    <glyph glyph-name="at" unicode="@" horiz-adv-x="548" 
d="M342 120q-6 0 -6 4.5t7 10.5q33 27 33 49q0 14 -25 16q-45 -1 -107.5 -65t-62.5 -96q0 -11 12.5 -11t33.5 17q19 12 71 60q12 12 23 12q14 0 14 -13q0 -5 -3 -8t-11 -12.5t-14 -17.5q-18 -26 -18 -34q0 -20 16 -20q101 0 173 62t72 129q0 39 -31 63.5t-102 24.5
t-162.5 -52t-151 -124t-59.5 -129q0 -89 149 -89q44 0 91.5 18t77 36t30.5 18q6 0 6 -8q0 -20 -76 -50.5t-135 -30.5q-96 0 -141 28t-45 75q0 63 67 139.5t172 131.5t191 55t123.5 -26.5t37.5 -69.5q0 -77 -94.5 -153.5t-215.5 -76.5q-32 0 -32 34q0 8 3 15t3 10t-2 4
q-3 0 -38.5 -27t-62 -27t-26.5 28t37.5 75.5t100.5 86.5t123 39q14 0 23.5 -7t9.5 -21.5t-28.5 -43.5t-50.5 -29z" />
    <glyph glyph-name="A" unicode="A" horiz-adv-x="800" 
d="M133 274q0 -25 91 -48q52 -12 126 -20q-93 83 -184 83q-33 0 -33 -15zM529 7q21 0 104 165q-112 -2 -139.5 -2t-77.5 2q59 -71 96 -151q6 -14 17 -14zM842 684q-33 0 -88 -70.5t-145.5 -199.5t-168.5 -214q70 -2 122.5 -2t84.5 2q71 140 138.5 296t67.5 179q0 9 -11 9z
M701 202l208 15q8 0 8 -8t-13.5 -17t-52.5 -12t-165 -6q-102 -199 -144 -199q-28 0 -40 25q-44 89 -103 156l-29 -28q-148 -138 -345 -138q-50 0 -87.5 7.5t-37.5 20.5q0 9 11 9q7 0 17 -4q30 -12 113 -12q149 0 282 117q48 45 49 46q-94 7 -158 25q-114 32 -114 76
q0 15 16.5 25t43.5 10q119 0 226 -107q9 0 13 -1q89 96 217 272q45 61 90 118q94 118 154 118q39 0 39 -34q0 -23 -64.5 -179.5t-133.5 -294.5z" />
    <glyph glyph-name="B" unicode="B" horiz-adv-x="777" 
d="M588 394l44 3q71 0 105.5 -26.5t34.5 -75t-44 -113.5t-114 -118h57q35 0 49 3t16 3q14 0 14 -15t-20 -16q-77 0 -148 2q-112 -71 -220 -71q-51 0 -81 19t-30 38.5t16.5 30.5t46.5 11q117 0 262 -5q60 49 96 113.5t36 116.5q0 83 -89 83q-35 0 -72.5 -11t-45 -15.5
t-9.5 -4.5q-6 0 -6 8.5t26 20.5q114 55 223 146.5t109 130.5q0 18 -28 18q-114 -1 -313 -171q-40 -103 -131.5 -253t-191.5 -268.5t-149 -118.5q-30 0 -30 31q0 71 134.5 253t304.5 335q30 73 30 106.5t-16 53t-47 28.5q-49 13 -103.5 13t-83.5 -2.5t-70.5 -10t-67.5 -26
t-26 -47t28 -44t68.5 -21.5t80.5 -13t68 -27.5t28 -57.5q0 -10 -4.5 -10t-7 3t-8.5 12q-9 13 -26.5 20t-54 13.5t-69 14t-65.5 19.5t-53 34t-20 51.5t25 52.5t66 36q84 25 175 25q236 0 236 -124q0 -11 -5 -33q202 163 328 163q56 0 56 -34q0 -49 -102.5 -139t-211.5 -140z
M56 -112q29 0 155.5 185.5t202.5 345.5q-150 -143 -265.5 -297.5t-115.5 -210.5q0 -23 23 -23zM545 42l-181 4q-77 0 -77 -23q0 -13 26 -24.5t60 -11.5q89 0 172 55z" />
    <glyph glyph-name="C" unicode="C" horiz-adv-x="428" 
d="M69 364q53 0 116 17q118 135 251.5 228.5t225.5 93.5q46 0 46 -23q0 -31 -70 -89t-182 -119t-220 -97q-81 -94 -131 -182t-50 -145q0 -80 102 -80q57 0 126 36t114 71q10 7 17.5 7t7.5 -8q0 -5 -4 -9q-47 -34 -83.5 -56t-95.5 -43.5t-113 -21.5q-126 0 -126 97
q0 117 162 313q-48 -12 -92 -15q-12 2 -12 13t11 12zM631 675q-59 0 -163.5 -78.5t-206.5 -192.5q93 33 187.5 86.5t151.5 101t57 69.5q0 14 -26 14z" />
    <glyph glyph-name="D" unicode="D" horiz-adv-x="787" 
d="M518 16q27 0 77 47t109 124q-30 -5 -56 -5q-65 0 -96 30.5t-31 86t36.5 131.5t91 142t125.5 111.5t133 45.5q68 0 68 -72t-57 -190t-142 -234q61 24 128 67t88.5 54t32.5 11t17.5 -5.5t6.5 -12.5q0 -14 -32.5 -20t-122.5 -58t-143 -69q-72 -95 -138.5 -154t-108.5 -59
q-58 0 -58 83q0 23 5 66.5t5 56.5q0 78 -47 78q-17 0 -36 -6q-58 -86 -93 -134t-83 -105q-92 -109 -167 -109q-30 0 -30 22q0 46 110 154.5t215 168.5q63 96 99 149.5t92 127.5t101 120q67 67 114 67q19 0 19 -11q0 -7 -6 -10q-14 -8 -22 -12q-80 -53 -172 -174
q-59 -79 -159 -227q19 6 37.5 6t33 -8t20.5 -23q10 -25 10 -59l-13 -136q0 -56 39 -56zM698 215q14 0 29 3q87 118 149.5 241t62.5 185.5t-52 62.5q-63 0 -138.5 -65t-126.5 -155.5t-51 -161.5q0 -110 127 -110zM61 -55q36 0 93 71.5t153 217.5q-88 -52 -176 -144.5
t-88 -129.5q0 -15 18 -15z" />
    <glyph glyph-name="E" unicode="E" horiz-adv-x="672" 
d="M171 443q0 -22 52.5 -22t168.5 16.5t150 16.5q53 0 53 -30q0 -48 -179 -127q-74 -33 -149 -69t-127 -81.5t-52 -91.5q0 -38 85 -38q47 0 142.5 14.5t164.5 14.5q123 0 123 -68q0 -8 -9 -8q-5 0 -22 9q-53 27 -116 27q-33 -2 -153 -15.5t-152 -13.5q-120 0 -120 64
q0 45 52.5 94t127.5 88.5t149.5 74.5t127 63t52.5 43q0 8 -18 8q-232 -31 -335 -31q-83 0 -83 37q0 42 101 111.5t248 123.5q-244 2 -413 21q-9 3 -9 12q0 13 22 13q6 0 79 -5q206 -16 280 -16t118 2q175 55 297 55q44 0 44 -17q0 -61 -361 -65q-135 -47 -237 -111.5
t-102 -98.5z" />
    <glyph glyph-name="F" unicode="F" horiz-adv-x="407" 
d="M64 42l-9 -19q0 -3 3 -3q51 0 119 83q56 68 137 188q-28 -2 -91.5 -2t-85.5 3t-23 17q0 6 3 7.5t71 1.5t147 3q155 226 252 318q-167 -27 -360 -27q-70 0 -168 5q-8 0 -8 -7q0 -2 2 -10q0 -9 -13.5 -9t-34.5 14t-22 29q0 28 36 28q174 -12 327 -12t274 18
q120 100 232 100q45 0 45 -16q0 -28 -121 -68q-62 -21 -144 -37q-72 -68 -164 -201q-31 -43 -83 -122l148 11q21 0 21 -22q0 -9 -19 -17.5t-38 -20.5t-19 -28.5t-10 -16.5q-46 0 -46 18q0 20 25 45q0 4 -7 4l-59 -3l-16 -1q-128 -197 -200 -264q-70 -65 -125 -65
q-35 0 -35 28q0 19 15 39t29.5 20t14.5 -9zM818 740q-73 0 -154 -65q111 20 148 45q14 10 14 15t-8 5z" />
    <glyph glyph-name="G" unicode="G" horiz-adv-x="452" 
d="M64 85q33 -26 97 -26q27 0 64 5q35 41 141 192.5t162 205.5q4 3 4 8.5t-3 5.5l-67 -40q-66 -40 -162 -80t-169 -40q-110 0 -110 69q0 40 38 97q-59 3 -59 27q0 5 4.5 10t7.5 5t21.5 -6.5t46.5 -7.5q68 86 173 154t184 68q45 0 45 -23q0 -29 -62 -79t-154.5 -93.5
t-166.5 -52.5q-22 -38 -22 -67q0 -63 108 -63q61 0 171 48.5t222 134.5q155 121 176 144q6 9 12.5 9t11.5 -5t5 -11t-7 -10q-81 -65 -161 -151.5t-128.5 -151t-115 -157.5t-93.5 -129q65 17 124 42.5t71 39.5q10 0 10 -11q0 -15 -72.5 -46.5t-154.5 -52.5
q-98 -121 -173 -121q-30 0 -44.5 31.5t-14.5 68t6.5 59t15 22.5t11.5 -3t4.5 -9.5t2.5 -9.5zM387 697q-52 0 -134.5 -57.5t-133.5 -126.5q90 14 194.5 75.5t104.5 93.5q0 15 -31 15zM102 -25q39 0 96 59q-38 -6 -80 -6t-62 20q-8 -1 -8 -16.5t2.5 -26t15 -20.5t36.5 -10z
" />
    <glyph glyph-name="H" unicode="H" horiz-adv-x="654" 
d="M1015 732q0 -44 -83 -115t-236 -173q-93 -125 -157.5 -239t-64.5 -158t25 -44q18 0 49.5 19t53.5 38l22 19q6 7 11 7t5 -4q0 -26 -64 -64t-96 -38q-61 0 -61 47.5t48 142.5t124 204q-165 -107 -247 -162q-106 -145 -211 -251.5t-147 -106.5q-23 0 -23 17q0 56 85.5 137
t237.5 187q94 134 157.5 254.5t63.5 175.5q0 63 -63 77q-49 12 -102.5 12t-85 -3t-69.5 -11.5t-61.5 -27.5t-23.5 -46q0 -31 54.5 -49t122 -36t86.5 -44q8 -9 11 -33q0 -7 -4.5 -7t-8.5 7q-9 21 -57.5 37.5t-101 26t-95 31t-42.5 53.5t21 55.5t49.5 35.5t72.5 19
q66 9 154.5 9t138 -29t49.5 -81q0 -111 -178 -366q48 32 136 89.5t113 74.5q103 140 206.5 235t167.5 95q18 0 18 -17zM-2 -123q28 0 100.5 78.5t157.5 196.5q-265 -186 -265 -266q0 -9 7 -9zM973 726q-28 0 -94 -65.5t-146 -168.5q246 168 246 228q0 6 -6 6z" />
    <glyph glyph-name="I" unicode="I" horiz-adv-x="335" 
d="M577 647q-52 -51 -224 -308q141 26 174.5 26t69.5 -13t36 -29q0 -6 -5.5 -10t-11 -4t-51.5 14t-88.5 14t-136.5 -17q-183 -268 -242 -321q-30 -27 -49 -27q-17 0 -17 24q0 13 7 32t19 19q4 0 5 -8.5t3 -8.5q20 0 74.5 71.5t149.5 209.5q-115 -22 -175 -22
q-115 0 -115 60.5t102 154t248 165t255 71.5q77 0 77 -42q0 -32 -39 -71t-62 -39q-6 0 -6 7.5t4 10.5q21 10 39.5 32t18.5 41q0 36 -75 36t-198 -63t-214 -146t-91 -136.5t105 -53.5q40 0 140 16q107 153 155 216q88 114 121 114q5 0 5 -3z" />
    <glyph glyph-name="J" unicode="J" horiz-adv-x="565" 
d="M281 158q46 -35 136 -35h4q56 104 107 192q-153 -90 -247 -157zM871 631q0 34 -46 40q-87 -101 -192 -266q117 70 177.5 123t60.5 103zM280.5 378.5q-42.5 -70.5 -42.5 -121.5t23 -80q94 66 291 180q120 206 217 314q-105 -7 -206 -52t-170.5 -107.5t-112 -133zM410 103
h-21q-88 0 -142 31q-256 -189 -256 -371q0 -112 78 -112q37 0 75 38q22 21 39.5 40t43 58t42 65.5t46.5 79t45.5 81.5t49.5 90zM895 633q-1 -59 -74 -122t-215 -149q-78 -126 -141 -236q97 15 164 71q4 3 9 3t5 -5.5t-22 -22t-68.5 -36.5t-97.5 -28q-159 -270 -219 -346
q-81 -103 -130 -130q-30 -16 -58 -16q-43 0 -67.5 38t-24.5 86q0 210 269 411q-39 35 -39 95.5t46.5 135t124 140.5t192 113t236.5 54q47 49 82 75q12 8 30.5 8t18.5 -10q0 -5 -14 -15t-21 -16l-41 -43q23 -5 39 -21t16 -34z" />
    <glyph glyph-name="K" unicode="K" horiz-adv-x="695" 
d="M608 498q0 -5 -2 -19q29 26 88.5 81.5t100 91.5t90.5 76q101 82 158 82q14 0 14 -9q-1 -20 -18 -35.5t-38.5 -20t-56.5 -24t-81.5 -54.5t-83.5 -65t-94 -77.5t-84 -69.5q-7 -29 -58.5 -190t-51.5 -205q0 -55 54 -55q31 0 59.5 11.5t45 23.5t19.5 12t3 -4q0 -23 -58 -48
t-91 -25q-69 0 -69 72q0 68 38 185q13 40 35.5 105t27.5 81q-79 -61 -108 -61t-29 22q0 35 63 92t105 57q22 0 22 -30zM52.5 45.5q5.5 1.5 13.5 1.5t10 -7.5t4 -7.5q44 32 127 140.5t155 239t72 197.5q-2 47 -34 71q-28 20 -146.5 20t-188 -23.5t-69.5 -61.5
q0 -24 34.5 -38.5t69.5 -19.5q14 -4 44.5 -7t55.5 -7t50 -11q56 -17 56 -64l-4 -6q-17 23 -32 28.5t-20.5 7.5t-20.5 4.5t-22 3.5q-21 3 -57 7q-184 23 -184 91q0 35 35.5 60t90.5 36q96 19 189 19q109 0 151 -26q17 -11 29.5 -33.5t12.5 -53.5q0 -59 -96 -220
t-205.5 -297.5t-143.5 -136.5q-17 0 -17 17q0 7 4 15.5t10.5 23t9 19t7 11t10 8zM457 382q32 0 105 60q7 21 7 33q0 21 -18 21q-23 0 -64 -42t-41 -63q0 -9 11 -9z" />
    <glyph glyph-name="L" unicode="L" horiz-adv-x="809" 
d="M0 -53q0 49 89 129t183 96q19 24 62 81t70 91q85 112 136 169q-204 -54 -417 -54q-44 0 -44 13q0 7 12 15t23 8q54 -7 103 -7q161 0 350 56q181 198 306 198q52 0 52 -24q0 -33 -93 -89t-236 -100q-52 -62 -150 -194t-121 -161q92 -4 159 -62q28 -23 54 -46
q64 -55 136 -55q34 0 74.5 21.5t46 21.5t5.5 -5q0 -18 -51 -39.5t-101 -21.5t-90 16.5t-66.5 40.5t-51.5 48q-59 59 -128 64q-89 -113 -157 -175t-121 -62q-34 0 -34 27zM41 -53q35 0 88 53t129 153q-78 -18 -156.5 -87.5t-78.5 -104.5q0 -14 18 -14zM855 724
q-89 0 -231 -161q112 38 188.5 81t76.5 66q0 14 -34 14z" />
    <glyph glyph-name="M" unicode="M" horiz-adv-x="794" 
d="M54 -16q-20 0 -20 20q0 54 121.5 205t253.5 260q48 101 48 157q0 67 -67 67q-63 0 -148.5 -63t-144.5 -140.5t-59 -121.5q0 -32 37 -32q53 0 115.5 54t93.5 105q11 18 18 18t7 -7t-4 -12q-34 -51 -108 -117t-135 -66t-61 45q0 39 42 101t102.5 119.5t136 99t134.5 41.5
q77 0 77 -76q0 -50 -36 -135q99 73 159 73q36 0 36 -38t-67 -147.5t-134 -197.5l-67 -89q0 -2 1 -2q38 26 133.5 114t176 152t119.5 64q23 0 23 -23t-60 -103t-120 -164t-60 -116t27 -32q31 0 81 31.5t70 50.5t25 19t5 -4q0 -12 -33.5 -41t-84 -55t-86.5 -26q-48 0 -48 39.5
t33.5 96.5t73.5 106q114 136 127 180q0 11 -10 11q-24 0 -148 -108t-182 -164t-78 -76t-31 -32t-22 -22q-21 -19 -28 -19q-1 0 -2 1q-9 4 -9 14q0 25 64 105q113 140 192.5 266t79.5 168q0 16 -20 16q-49 0 -154 -88q-76 -156 -208 -319t-177 -163zM76 10q26 0 131 136.5
t177 271.5q-114 -105 -216.5 -232.5t-102.5 -164.5q0 -11 11 -11z" />
    <glyph glyph-name="N" unicode="N" horiz-adv-x="592" 
d="M270 379q-7 0 -10.5 6t-4.5 7q-11 -11 -30.5 -28t-69.5 -45t-89 -28q-65 0 -65 50q0 54 69 140t171.5 153.5t183.5 67.5q47 0 71.5 -28t24.5 -72.5t-39 -127.5q156 116 217 116q12 0 20 -7t8 -19q0 -20 -81.5 -129t-163.5 -228t-82 -164q0 -28 31 -28q47 0 133 86
q13 13 22 13q6 0 6 -8.5t-32 -37t-79.5 -55.5t-82.5 -27q-47 0 -47 39.5t49.5 122t109.5 160.5q159 205 159 239q0 6 -7 6q-57 0 -194 -108q-77 -151 -209.5 -314t-178.5 -163q-25 0 -25 21q0 65 112 193.5t258 246.5q55 110 55 172q0 76 -81 76q-62 0 -149.5 -60.5
t-149.5 -137.5t-62 -122q0 -38 50 -38q34 0 97 41t72 57q43 76 49 84q21 33 34 33q5 0 6 -7t-1.5 -13.5t-8.5 -16t-11 -17t-13.5 -19.5t-15 -21t-10.5 -17q-6 -12 -6 -28t-10 -16zM93 -8q27 1 134.5 134.5t179.5 267.5q-126 -108 -222 -224t-96 -171q0 -7 4 -7z" />
    <glyph glyph-name="O" unicode="O" horiz-adv-x="527" 
d="M590.5 734q17.5 -16 17.5 -41t-12 -45q51 -25 51 -97q0 -97 -82.5 -234.5t-198.5 -230.5q42 2 87.5 20t73.5 35t31.5 17t3.5 -8q0 -20 -76 -50.5t-135 -30.5h-7q-114 -84 -213 -84q-66 0 -98 36.5t-32 109.5t48.5 182t123 205.5t173.5 164t190 67.5q37 0 54.5 -16z
M446 498l1 -7q0 -12 -7 -12q-13 0 -13 27.5t19.5 50.5t56.5 46.5t49 34.5q-16 4 -26 4q-86 0 -165 -64.5t-124 -155t-45 -166.5q0 -160 149 -170q106 86 185 227t79 237q0 51 -26 74q-18 -20 -53.5 -44.5t-57.5 -44t-22 -37.5zM162 10q74 0 158 60q-90 7 -134 54t-44 115.5
t33.5 142t86.5 135t127.5 102.5t149.5 41q15 0 29 -3q13 19 13 38.5t-16 28.5t-37 9q-81 0 -170 -64.5t-155 -156.5t-109 -195.5t-43 -171.5q0 -135 111 -135z" />
    <glyph glyph-name="P" unicode="P" horiz-adv-x="390" 
d="M0 -51q0 53 138 227.5t304 323.5q22 55 22 87q0 135 -229 135q-70 0 -124 -26q-33 -16 -33 -40t35.5 -49.5t78.5 -45.5t78.5 -52.5t35.5 -68.5q0 -20 -4 -30t-7 -10q-5 0 -7 14q0 56 -84 101q-36 19 -72 37q-84 45 -84 97q0 24 22 42.5t56 28.5q65 18 111 18t87 -7
t85.5 -23t73 -49.5t28.5 -79.5q0 -6 -2 -22q209 171 330 171q50 0 50 -42q0 -48 -56.5 -126t-137 -139.5t-139.5 -61.5q-69 0 -74 71q0 16 10 16q7 0 13.5 -15t25 -32.5t38.5 -17.5q46 0 110 62t107.5 132.5t43.5 101.5q0 22 -23 22q-101 0 -309 -182q-33 -95 -128 -236.5
t-197 -247.5t-149 -106q-24 0 -24 22zM43 -45q49 0 176 168t200 322q-148 -142 -264 -289.5t-116 -195.5q0 -5 4 -5z" />
    <glyph glyph-name="Q" unicode="Q" horiz-adv-x="876" 
d="M712 736q126 0 126 -82.5t-114.5 -223.5t-279.5 -282q37 -14 89.5 -47.5t100.5 -56.5t98.5 -23t122.5 37q9 5 15 5t6 -4.5t-13 -14.5q-24 -15 -75 -33t-98 -18t-97 21.5t-103.5 57t-79.5 47.5q-120 -98 -221.5 -159.5t-152.5 -61.5q-36 0 -36 25q0 34 54.5 90.5t142 103
t165.5 46.5q26 0 57 -7q151 128 255.5 257.5t104.5 209.5q0 86 -111 86q-75 0 -163 -37t-155.5 -88t-113 -106.5t-45.5 -92.5q0 -45 67.5 -45t144 52.5t116.5 110.5q46 70 69 70q11 0 11 -15q0 -28 -59.5 -85t-146.5 -105t-150 -48q-85 0 -85 57q0 43 49 104.5t124.5 118
t179.5 96.5t201 40zM38 -53q0 -17 32 -17t121.5 55.5t194.5 142.5q-28 10 -53 10q-54 0 -126 -37.5t-120.5 -83t-48.5 -70.5z" />
    <glyph glyph-name="R" unicode="R" horiz-adv-x="787" 
d="M478 427q0 9 -16 10q-50 -101 -144 -223.5t-177.5 -203.5t-112 -81t-28.5 24q0 56 138.5 225.5t310.5 315.5q17 49 17 87.5t-21.5 66t-57.5 40.5q-64 23 -135 23q-164 0 -166 -55q0 -21 25 -36.5t61.5 -27.5t73 -26.5t62 -41.5t25.5 -58t-9.5 -31t-9.5 12q0 37 -42 64
t-92 41.5t-92 38.5t-42 51.5t21 45t53 26.5q64 16 116 16t94.5 -7t83.5 -23.5t66 -48.5t25 -76q0 -16 -5 -39q238 189 381 189q53 0 53 -40q0 -47 -63.5 -126.5t-148.5 -141.5t-140 -62q-34 0 -60 14q-1 1 -4 1t-3 -30.5t1.5 -61t8.5 -82t20 -88t39 -64.5t59.5 -28t104.5 32
q10 5 17.5 5t7.5 -4q0 -9 -15 -16q-86 -45 -134 -45t-79.5 34.5t-43.5 93t-16 113t-4 116.5t-3 82zM489 499q-8 -23 -18 -44h32q5 0 6 -9t2 -22t7 -21.5t23.5 -18.5t40.5 -10q46 0 118.5 62.5t125.5 137t53 108.5q0 18 -18 18q-125 0 -372 -201zM43 -41q23 0 98 77t162 197
t130 219q-158 -136 -276.5 -281t-118.5 -205q0 -7 5 -7z" />
    <glyph glyph-name="S" unicode="S" horiz-adv-x="791" 
d="M325 99q-24 32 -62 89q-263 26 -263 110q0 19 19.5 31t59.5 12q100 0 199 -127q100 -10 227 -10h11q128 77 238 155q45 82 78 135.5t80 111.5q93 118 196 118q27 0 27 -24q0 -58 -96 -152t-255 -202q-48 -92 -72 -134q140 11 202 34h3q4 0 4 -5.5t-7 -15.5
q-75 -23 -216 -36q-54 -93 -104.5 -144.5t-101.5 -51.5q-82 0 -155 91q-143 -72 -253 -110q-15 -5 -34.5 -5t-19.5 15q0 8 8 14.5t21 6.5q80 0 266 94zM516 179q-76 -43 -150 -81q67 -83 122 -83q41 0 81.5 44t89.5 127q-61 -5 -143 -7zM1080 700q-69 0 -139 -92
q-58 -78 -127 -206q126 93 202 169.5t76 118.5q0 10 -12 10zM48 302q0 -57 193 -83q-78 104 -157 104q-36 0 -36 -21zM354 113q62 33 119 66h-4q-87 0 -168 6q38 -53 53 -72zM727 308q-54 -36 -168 -104q77 2 113 5q19 33 55 99z" />
    <glyph glyph-name="T" unicode="T" horiz-adv-x="397" 
d="M268 594l-222 11q-2 0 -9 -6t-12 -6t-7 1q-59 21 -59 51q0 15 17 15q10 0 129.5 -15.5t257.5 -15.5t265 15q135 117 268 117q55 0 55 -26q0 -68 -308 -113q-102 -102 -247 -333q-54 -85 -107 -164q-117 -174 -191 -174q-27 0 -27 23.5t20 54.5q19 30 30 30h1q13 0 13 -15
l-4 -19q0 -5 4 -5q53 0 180 216q51 87 130 198t153 182q-173 -22 -330 -22zM872 742q-96 0 -199 -92q74 11 127.5 27t75.5 30t22 24.5t-26 10.5z" />
    <glyph glyph-name="U" unicode="U" horiz-adv-x="647" 
d="M288 441l-14 4q-2 0 -22 -16.5t-46 -35.5t-63 -35.5t-69 -16.5q-73 0 -73 53q0 40 43 100.5t107.5 115.5t149 94.5t157.5 39.5q98 0 98 -67q0 -52 -58.5 -147.5t-129.5 -182.5q-187 -231 -187 -284q0 -28 36 -28q74 0 221 118q36 89 112.5 196.5t154 181.5t116.5 74
q19 0 19 -18q0 -46 -111 -176.5t-246 -244.5q-25 -62 -25 -97q0 -63 69 -63q25 0 61 19t44.5 27.5t11.5 8.5t3 -4q0 -21 -52.5 -46.5t-105.5 -25.5q-75 0 -75 70q0 29 12 65q-156 -119 -241 -119q-25 0 -41 16t-16 41.5t39.5 85.5t96 131t112.5 144q135 176 135 248
q0 54 -77 54q-60 0 -131.5 -36t-127 -85.5t-93 -103t-37.5 -88.5q0 -41 53 -41q42 0 86 27.5t73.5 63.5t48 64.5t21.5 37.5q3 12 20 12q5 0 9.5 -4t4.5 -9.5t-28.5 -52t-32 -56t-12.5 -9.5zM792 573q-28 0 -128 -123q-101 -125 -161 -241q114 102 203.5 211t89.5 146
q0 7 -4 7z" />
    <glyph glyph-name="V" unicode="V" horiz-adv-x="383" 
d="M75 -14q0 93 253 321q108 205 108 292q0 51 -34 75q-35 24 -70 28q-54 6 -94.5 6t-70.5 -2.5t-71 -9.5t-66.5 -25.5t-25.5 -46t32 -42.5t77.5 -20.5t90.5 -13t77 -30t32 -62.5q0 -9 -7 -9l-6 6q-25 48 -140 65q-45 6 -89 14q-102 19 -102 85q0 31 24.5 53t66.5 34
q79 21 184 21q129 0 188 -30q23 -12 40 -35.5t17 -55.5q0 -71 -73 -220q147 124 285 219t172 95q6 0 11.5 -8t5.5 -17t-14 -18q-44 -27 -61 -44.5t-24 -17.5t-9.5 5t-5.5 5q-29 0 -144 -79t-238 -183q-76 -143 -165.5 -260t-129.5 -117q-8 0 -16 6.5t-8 15.5zM111 -5
q18 0 74 78.5t116 185.5q-192 -181 -192 -261q0 -3 2 -3z" />
    <glyph glyph-name="W" unicode="W" horiz-adv-x="688" 
d="M454 -9q-12 0 -12 14q0 31 105.5 247.5t105.5 250.5q0 14 -15 14q-43 0 -191 -131q-68 -154 -187 -304t-181 -150q-21 0 -21 25q17 73 111 183t220 219q52 119 52 186q0 174 -245 174q-66 0 -115 -11q-94 -19 -102 -67q2 -56 111 -81q46 -10 92 -21t78 -34t32 -59
q0 -8 -6 -21.5t-14.5 -13.5t-8.5 10q0 6 4.5 13t4.5 11q0 28 -118 57q-50 12 -99.5 27.5t-84 43t-34.5 60.5t32.5 54.5t81.5 31.5q95 19 168 19q124 0 198 -50t74 -148q0 -45 -29 -121q161 129 206 129q13 0 22.5 -10t9.5 -24.5t-19 -65.5t-86.5 -196t-67.5 -147t3 -4
q6 0 19 18q97 135 291 313.5t336 240.5q29 12 44 12t15 -10.5t-13 -18t-44.5 -29t-41.5 -30.5t-14 -9t-5 6t-4.5 6t-11.5 -3q-121 -57 -308 -237q-197 -191 -278 -310q-29 -42 -41.5 -50.5t-18.5 -8.5zM106 -32q37 0 117.5 107.5t144.5 236.5q-111 -107 -189.5 -203
t-78.5 -135q0 -6 6 -6z" />
    <glyph glyph-name="X" unicode="X" horiz-adv-x="715" 
d="M460 740q106 0 106 -115q0 -71 -57 -254q181 145 337.5 257.5t180.5 112.5q4 0 12 -7t8 -13.5t-40.5 -46t-50.5 -39.5q-2 0 -4.5 3.5t-5.5 3.5q-27 0 -159 -94.5t-295 -227.5q-56 -176 -56 -239q0 -82 71 -82q42 0 81.5 22t92.5 75l10 10q6 0 6 -11.5t-29 -40t-77.5 -53
t-91.5 -24.5q-110 0 -110 111q0 65 36 176q-220 -182 -301 -272q-14 -15 -19.5 -16.5t-12 -1.5t-6.5 5q0 47 356 338q28 73 53 156.5t29.5 110t4.5 49.5q0 86 -80 86q-72 0 -147.5 -38.5t-129.5 -92.5t-89 -111t-35 -96q0 -46 49 -46q70 0 151.5 73t124.5 141q3 4 9 4
q13 0 13 -12q0 -3 -23 -35q-52 -71 -54 -88q-1 -5 -6 -5q-9 0 -11 9q0 3 -2 3q-13 -13 -46 -37t-59 -40q-70 -41 -118 -41q-76 0 -76 59q0 44 43 108t107.5 123t149.5 101t160 42z" />
    <glyph glyph-name="Y" unicode="Y" horiz-adv-x="709" 
d="M715 152q9 0 9 -12q0 -31 -176 -145.5t-292 -169.5l-24 -33q70 -27 70 -87.5t-60 -139.5t-130 -131.5t-109.5 -52.5t-39.5 37q0 59 209 363q-3 1 -10 1q-61 -9 -63 -9q-17 0 -17 10.5t27 13.5q36 8 97 34q62 89 163 224q-125 -83 -177 -83q-21 0 -31.5 11.5t-10.5 45
t40 95t97.5 128t115 135t97.5 136t40 113.5q0 59 -84 59q-69 0 -163.5 -48t-166.5 -124.5t-72 -145.5q0 -47 55 -47q40 0 84 22.5t77 53.5q69 64 87 99q9 16 19.5 16t10.5 -9q0 -20 -48 -69.5t-121 -94.5t-121 -45t-65 23t-17 55q0 56 72.5 135.5t181 139.5t198.5 60
q113 0 113 -99q0 -49 -38.5 -116t-94 -132t-111.5 -129q-132 -151 -132 -219q0 -22 28 -22q44 0 164 92q157 206 281.5 342.5t164.5 136.5q28 0 28 -21q0 -46 -116 -167.5t-263 -237.5q-112 -146 -203 -274q117 59 235.5 137t177.5 137q8 8 14 8zM214.5 -422
q49.5 71 49.5 121t-48 70q-209 -299 -209 -342q0 -17 13 -17q28 0 86.5 48.5t108 119.5zM824 540q-27 0 -275 -321q113 102 198 195.5t85 118.5q0 7 -8 7z" />
    <glyph glyph-name="Z" unicode="Z" horiz-adv-x="980" 
d="M722 419l2 19q0 30 -33 46.5t-83 21t-107.5 11t-107.5 14t-83 31t-33 61.5q0 63 81 96t196 33t215 -23t170 -71.5t70 -108.5t-85 -143q-148 -146 -460 -314q17 -7 75 -32q130 -47 165 -49q54 0 83.5 3t71 19.5t80.5 49.5q7 5 15.5 5t8.5 -7t-14 -20t-42 -28t-63 -28
q-83 -31 -178 -31q-55 0 -145.5 42.5t-108.5 48.5q-131 -67 -237 -110t-140 -43t-34 17q0 19 34.5 51t85.5 62.5t117 53t108 22.5t81 -13q134 79 246.5 159t195 166t82.5 138.5t-58.5 90.5t-143 56.5t-184 18.5t-172.5 -28.5t-73 -82.5q0 -24 32.5 -39t80.5 -20.5t105 -12.5
t105 -15t80.5 -27.5t32.5 -49.5q0 -50 -26 -50q-8 0 -8 10zM311 82q-64 0 -126.5 -28t-96.5 -60t-34 -49q0 -9 11 -9q28 0 114 38.5t196 100.5q-35 7 -64 7z" />
    <glyph glyph-name="bracketleft" unicode="[" horiz-adv-x="408" 
d="M573 801q-2 -24 -29 -24h-217q-36 -128 -123 -453t-129 -474h222q15 0 16 -9q0 -7 -7 -15t-21 -8h-235q-14 0 -15 12l269 960q1 7 6.5 13.5t8.5 6.5h237q16 0 17 -9z" />
    <glyph glyph-name="backslash" unicode="\" horiz-adv-x="339" 
d="M189 906q7 -2 10 -15q33 -210 33 -594q0 -254 -19 -414q-9 -17 -20 -17t-15 8q23 152 23 509t-23 498q0 25 11 25z" />
    <glyph glyph-name="bracketright" unicode="]" horiz-adv-x="408" 
d="M35 -173q2 24 29 24h217q36 128 123 453t129 474h-222q-15 0 -16 9q0 7 7 15t21 8h235q14 0 15 -12l-269 -960q-1 -7 -6.5 -13.5t-8.5 -6.5h-237q-16 0 -17 9z" />
    <glyph glyph-name="asciicircum" unicode="^" horiz-adv-x="328" 
d="M184 125q29 20 36.5 30t18 10t19.5 -9q3 -4 6.5 -27.5t17.5 -44.5q2 -4 2 -5q0 -5 -6 -5t-15 8.5t-18 27.5t-9 20q-24 -22 -111 -52q-6 0 -6 7.5t18 13.5t47 26z" />
    <glyph glyph-name="underscore" unicode="_" horiz-adv-x="466" 
d="M383 -28q0 -5 -9 -5l-282 2q-15 0 -15 21q0 6 6 8t85.5 2t199.5 -6q15 -1 15 -22z" />
    <glyph glyph-name="grave" unicode="`" horiz-adv-x="328" 
d="M103 316q0 13 11.5 13t20.5 -11t34.5 -30t50.5 -28q10 -3 10 -10.5t-6 -7.5q-84 30 -110 56q-11 11 -11 18z" />
    <glyph glyph-name="a" unicode="a" horiz-adv-x="300" 
d="M215 120q-6 0 -6 4.5t7 10.5q33 27 33 49q0 14 -25 16q-45 -1 -107.5 -65t-62.5 -96q0 -11 12.5 -11t33.5 17q19 12 71 60q12 12 23 12q14 0 14 -13q0 -5 -3 -8t-11 -12.5t-14 -17.5q-18 -26 -18 -34q0 -20 16 -20q21 0 79 38.5t106 77.5l48 38q7 5 13 5t6 -7v-2
q-77 -65 -162.5 -122t-112.5 -57q-32 0 -32 34q0 8 3 15t3 10t-2 4q-3 0 -38.5 -27t-62 -27t-26.5 28t37.5 75.5t100.5 86.5t123 39q14 0 23.5 -7t9.5 -21.5t-29 -43.5t-50 -29z" />
    <glyph glyph-name="b" unicode="b" horiz-adv-x="232" 
d="M340 162h23q-93 -84 -184 -96q-22 -32 -51.5 -55t-49.5 -23q-24 0 -24 28t25 80q-44 39 -44 87q0 26 18 42t51 16t53 -10q98 152 225 321l43 57q10 11 20 11q15 0 17 -15v-7q0 -2 -5 -9q-197 -259 -275 -374q26 -26 26 -61t-17 -69q68 8 149 77zM65 181q0 -30 27 -59
q19 35 55 92q-14 8 -31 8q-51 0 -51 -41zM115 103q24 -15 49 -18q18 32 18 59t-14 49q-34 -50 -53 -90zM111 32q17 0 41 33q-24 0 -48 13q-5 -17 -5 -25q0 -21 12 -21z" />
    <glyph glyph-name="c" unicode="c" horiz-adv-x="244" 
d="M354 166q8 5 13.5 5t5.5 -7v-2q-79 -70 -163 -123t-140 -53q-44 0 -44 52.5t63.5 114.5t137.5 62q22 -2 27.5 -7t5.5 -14t-18.5 -32.5t-33.5 -23.5q-17 3 -17 12q0 4 9 13q17 15 17 22t-11 7q-35 -1 -88 -57.5t-53 -93.5q0 -28 36.5 -28t78.5 26q74 45 149 107z" />
    <glyph glyph-name="d" unicode="d" horiz-adv-x="276" 
d="M184 143l32 49q-3 1 -6 1q-42 0 -110 -64t-68 -90q0 -7 8 -7q25 0 76 42.5t68 68.5zM407 162q-208 -168 -252 -168q-17 0 -17 20t15 67q0 1 -2 1q-115 -95 -153 -95q-26 0 -26 19q0 42 90.5 123t144.5 81q7 0 15 -10q23 34 258 369q25 31 40.5 31t15.5 -10
q0 -25 -172 -236q-64 -80 -117.5 -166.5t-53.5 -131.5q0 -19 11 -19q13 0 46 23q68 49 119 90l19 16q7 5 13 5t6 -7v-2z" />
    <glyph glyph-name="e" unicode="e" horiz-adv-x="258" 
d="M369 166q7 5 13 5t6 -7v-2q-104 -86 -173 -129t-125 -43q-45 0 -45 44q0 65 66 133.5t111 68.5q25 0 25 -28q-5 -55 -158 -148v-10q0 -33 34.5 -33t74.5 23q78 46 146 105zM196 205q-22 0 -56.5 -37t-46.5 -84q48 29 81 61.5t33 46t-11 13.5z" />
    <glyph glyph-name="f" unicode="f" horiz-adv-x="263" 
d="M-24.5 15.5q27.5 -18.5 53 -18.5t43.5 3l21 28q-29 52 -93 52q-22 0 -37 -7.5t-15 -23t27.5 -34zM108 -37q0 8 -2 22q-247 -351 -247 -385q0 -9 12 -9q45 0 101.5 62.5t96 151t39.5 158.5zM393 162q-154 -128 -251 -164q3 -14 3 -29q0 -58 -31.5 -131.5t-77.5 -135.5
t-100.5 -104.5t-97.5 -42.5q-29 0 -29 23q0 45 246 397q-15 -1 -21 -1q-51 0 -81 21t-30 46.5t24.5 40.5t60.5 15q65 0 104 -42l227 311q0 2 -3 2q-87 -92 -152.5 -155t-87.5 -80l-22 -17l-5 15q76 62 141 128t92 101l27 35q69 87 85 105q25 27 39 27t14 -17q0 -15 -59 -100
t-92 -132q-103 -145 -128 -178l-54 -76l3 -8q75 27 164 93l73 57q8 5 13.5 5t5.5 -7v-2z" />
    <glyph glyph-name="g" unicode="g" horiz-adv-x="297" 
d="M409 166q7 5 13 5t6 -7v-2q-97 -80 -152 -116l-200 -130l-62 -87q-144 -197 -144 -212q-16 -35 -31 -35q-19 0 -19 25t24.5 67t48.5 68l95 100q12 19 49 70t49 68l43 64l2 4q0 2 -2 2q-59 -49 -98 -49t-39 22.5t30 59.5t72.5 72t94 60.5t91 25.5t39.5 -28
q0 -20 -37.5 -48t-46 -28t-8.5 4q0 6 8 11q34 24 34 45.5t-18 21.5q-44 0 -122.5 -74.5t-78.5 -105.5q0 -9 14.5 -9t49.5 23.5t53 45.5l27 34q5 7 13 7t14 -5t6 -10l-121 -168l148 93q66 40 132 96z" />
    <glyph glyph-name="h" unicode="h" horiz-adv-x="323" 
d="M436 167q7 5 13 5t6 -6v-3q-79 -66 -155 -118q-76 -58 -105.5 -58t-29.5 24q0 26 38 88t38 66.5t-4 4.5q-13 0 -79.5 -57.5t-116.5 -106.5q-19 -17 -26.5 -17t-7.5 11t13 28l349 532q11 17 29.5 17t18.5 -12q0 -7 -5.5 -15t-67.5 -95.5t-71.5 -103.5t-87 -132t-82 -122.5
t-4.5 -10.5t3.5 -4t4.5 1q32 32 87.5 74.5t76.5 42.5q8 0 14 -5.5t6 -18t-39 -68t-39 -72t10.5 -16.5t52.5 28q75 50 138 101z" />
    <glyph glyph-name="i" unicode="i" horiz-adv-x="188" 
d="M234.5 296q5.5 -6 5.5 -17t-15 -28t-26 -17t-16 6.5t-5 15t16 27.5t25.5 19t15 -6zM302 167q8 5 12.5 5t4.5 -6v-3q4 0 -53.5 -44t-123 -88t-82.5 -44q-29 0 -29 24q0 29 50 109.5t73 80.5q17 0 17 -13t-46 -71t-46 -83q0 -14 10.5 -14t52.5 28q75 50 138 101z" />
    <glyph glyph-name="j" unicode="j" horiz-adv-x="186" 
d="M-82 -111q11 -5 19 -10q6 12 14 20q-21 -6 -32 -8q0 -1 -1 -2zM234.5 296q5.5 -6 5.5 -17t-15 -28t-26 -17t-16 6.5t-5 15t16 27.5t25.5 19t15 -6zM-54 -195q0 14 -3 26q-157 -213 -157 -233q0 -9 8 -9q20 0 56.5 34.5t66 87t29.5 94.5zM-76 -139q-25 25 -67 25
q-13 2 -13 11q1 8 12 8q2 0 32 -3q26 0 77 17l167 233q2 3 2 6.5t-3 3.5t-6 -3l-52 -43l-4 15l51 43q36 36 50 36q5 0 10 -4.5t5 -12.5q0 -29 -157 -245q40 22 57 45q4 5 10 5t6 -7q0 -33 -93 -71l-46 -63q18 -22 18 -63t-41 -100.5t-92 -98.5t-80 -39t-29 26q0 19 186 279z
" />
    <glyph glyph-name="k" unicode="k" horiz-adv-x="318" 
d="M335 281q0 9 -12.5 9t-49.5 -26.5t-67 -53.5l-29 -26q0 -2 6 -2q10 0 13 -15.5t11 -15.5q26 0 77 53t51 77zM430 166q7 5 13 5t6 -7v-2q-79 -70 -158 -120q-59 -44 -95.5 -44t-51 27t-14.5 56.5t6 40.5t6 13.5t-6 2.5q-9 0 -62 -69t-59 -69t-11.5 3.5t-5.5 9.5t14.5 29
t94.5 135t83 117.5t3 7.5t-3.5 2t-5.5 -1.5t-30 -20.5q-63 -43 -87 -43t-24 19q0 16 10.5 28t23.5 12q6 0 10 -13.5t13 -13.5t22 7t26.5 17t31 24.5t28.5 24.5q33 30 40 37q19 32 144 183q15 19 29.5 19t14.5 -7t-5 -13.5t-75 -97t-141 -185t-71 -100.5t5 -6
q15 16 38.5 39.5t80.5 63t90.5 39.5t33.5 -18q0 -33 -77 -98t-107 -65l-19 4q-9 0 -15 -15.5t-6 -35.5q0 -61 46 -61q24 0 54 19q64 39 137 100z" />
    <glyph glyph-name="l" unicode="l" horiz-adv-x="242" 
d="M353 166q7 5 13 5t6 -7v-2q-104 -86 -158 -120q-70 -53 -118 -53q-42 0 -42 50q0 67 86.5 198.5t194.5 236.5t163 105q25 0 25 -22q0 -55 -131.5 -181.5t-258.5 -215.5q-37 -71 -37 -108t26 -37t68 30q71 42 138 100zM473 547q-42 0 -149 -121t-177 -242
q115 82 225 200.5t110 153.5q0 9 -9 9z" />
    <glyph glyph-name="m" unicode="m" horiz-adv-x="457" 
d="M117 174l-2 11q0 5 21 5q12 0 12 -15t-34.5 -66.5t-34.5 -53.5t4 -2t92.5 70t106.5 70t18 -12.5t-10 -28t-42 -56t-34 -43.5t-2 -7t6.5 -4t98.5 68t105 68t13 -11q0 -20 -44 -70t-44 -63.5t10.5 -13.5t52.5 28q75 50 138 101l22 18q8 5 13.5 5t5.5 -6v-3
q-211 -176 -261 -176q-29 0 -29 24q0 20 29 59t29 42.5t-2.5 3.5t-82 -57t-94.5 -57q-7 0 -12 5.5t-5 11.5q0 18 43 73q43 54 43 59t-6 5q-7 0 -142 -110l-50 -40q-13 -11 -19.5 -11t-12.5 3.5t-6 10.5t17.5 34t45.5 66q43 58 43 65z" />
    <glyph glyph-name="n" unicode="n" horiz-adv-x="386" 
d="M518 163q-211 -176 -261 -176q-29 0 -29 24t21.5 57t43 58.5t21.5 30.5t-3 5q-93 -62 -110.5 -76t-57 -46t-51.5 -40t-26 -8t-14 12q0 14 56 88q54 74 54 83q0 2 -3.5 2t-86.5 -61l-4 15q71 57 96 73t40.5 16t15.5 -15q0 -10 -56.5 -81.5t-56.5 -77t3.5 -5.5t114 80.5
t134.5 80.5q7 0 13.5 -5.5t6.5 -10.5q0 -12 -53 -79.5t-53 -76.5t12.5 -9t53.5 27q75 49 138 101l22 18q7 5 13 5t6 -6v-3z" />
    <glyph glyph-name="o" unicode="o" horiz-adv-x="231" 
d="M189 86q56 0 134 63l17 -5q-98 -82 -169 -82q-8 0 -12 1q-27 -33 -59 -53.5t-56 -20.5q-38 0 -38 42.5t71 113.5q-12 29 -12 61t23 52t53.5 20t51.5 -20t21 -57q0 -57 -37 -114q4 -1 12 -1zM157 96q31 52 31 88.5t-18 54t-35 17.5q-35 0 -35 -36t16 -71.5t41 -52.5z
M47 37q0 -20 26 -20t66 53q-27 14 -48 49q-44 -48 -44 -82z" />
    <glyph glyph-name="p" unicode="p" horiz-adv-x="336" 
d="M468 163q-211 -176 -261 -176q-29 0 -29 23.5t55 88t55 82.5q-2 2 -4 2q-28 0 -90 -43q-402 -563 -457 -563q-11 0 -18.5 7.5t-7.5 22.5q0 69 136 231t279 273l88 128v1q0 3 -4 3q-20 -35 -108 -105l-29 -22l-4 15q76 62 141 128t92 101l27 35q14 19 31 19t17 -10
q0 -4 -2.5 -7t-23 -32.5t-60.5 -86t-75 -106.5q58 33 87.5 33t29.5 -12q0 -40 -80 -123q-27 -28 -27 -36.5t14.5 -8.5t51.5 25q73 49 135 99l22 18q7 5 13 5t6 -6v-3zM-250 -390q31 0 343 452q-132 -112 -240.5 -244.5t-108.5 -201.5q0 -6 6 -6z" />
    <glyph glyph-name="q" unicode="q" horiz-adv-x="308" 
d="M419 166q7 5 13 5t6 -7v-2q-89 -74 -166.5 -126t-132.5 -52q-5 -1 -5 -13q0 -55 -53.5 -153.5t-122.5 -175t-108 -76.5q-11 0 -20 8.5t-9 19.5q0 19 109 171t197 268q1 2 1 5t-4 3q-49 -43 -91 -43q-28 0 -28 23q0 32 44 85t113.5 97t128.5 44q31 0 31 -21.5t-30 -52
t-51 -30.5q-4 0 -4 6.5t13 13.5t25 22t12 26q0 15 -20 15q-48 0 -128.5 -74t-80.5 -109q0 -13 20.5 -13t97.5 67q20 20 26.5 21t16.5 1t9.5 -10.5t-37 -52t-36.5 -45t4 -4.5q20 0 46 10.5t42 20.5l16 11q56 36 133 98zM-129 -389q0 -8 6 -8q15 0 52.5 37t76 87.5t68.5 110
t30 97.5q0 6 -2 6q-14 0 -122.5 -153.5t-108.5 -176.5z" />
    <glyph glyph-name="r" unicode="r" horiz-adv-x="221" 
d="M333 166q7 5 13 5t6 -7v-2q-75 -60 -148 -112.5t-107 -52.5q-25 0 -25 27t24 54t47.5 47t23.5 26.5t-7.5 15t-12.5 11.5q-17 -17 -74 -62l-4 15q63 50 73 67v9q0 25 5 34t24 25t26 16t12.5 -5t5.5 -10t-3.5 -11.5t-7 -11t-9.5 -11t-7.5 -9t-3 -8.5t-6.5 -10t-5 -10
t8 -26.5t8 -30t-37 -45t-37 -57.5q0 -12 11 -12q14 0 52 25l12 8q65 45 122 91z" />
    <glyph glyph-name="s" unicode="s" horiz-adv-x="199" 
d="M310 166q8 5 13.5 5t5.5 -7v-2q-77 -65 -162.5 -122t-108.5 -57t-38.5 8.5t-15.5 19.5t6 18.5t11 7.5t16.5 -15.5t22.5 -15.5q23 0 36 49t13 67.5t-2.5 18.5t-4.5 -2l-29 -23l-4 15q63 50 73 67q6 16 17 16q7 0 7 -5t-7 -21.5t-18.5 -74.5t-11.5 -67t5 -9q70 43 148 107z
" />
    <glyph glyph-name="t" unicode="t" horiz-adv-x="189" 
d="M651 424l-143 7q-88 0 -175 -7l5 -20q0 -11 -65 -83.5t-130 -158t-65 -126.5q0 -16 11.5 -16t52.5 28q76 50 139 101l22 18q7 5 12 5t5 -6v-3q4 0 -53.5 -44t-123 -88t-82.5 -44q-29 0 -29 26q0 38 42.5 105t93 126.5t96 112.5t49.5 65q-110 -10 -169 -24l-20 -4
q-8 -1 -8 -15q0 -6 -14 -6t-34.5 6.5t-20.5 18.5t20 16q148 26 210 31.5t82.5 7t64 2.5t58.5 1q45 2 105.5 2t73.5 -5t13 -19q0 -10 -23 -10z" />
    <glyph glyph-name="u" unicode="u" horiz-adv-x="289" 
d="M132 13q0 15 14.5 39t15.5 28t-2 4t-8.5 -5.5t-61 -42t-76.5 -36.5q-14 0 -14 18t56 93t79 75q5 0 9.5 -4.5t4.5 -7t-51.5 -61.5t-51.5 -76q0 -4 4 -4q19 0 82 51t89.5 79t41.5 28t15 -13q0 -8 -6 -16t-22.5 -28.5t-30.5 -38.5q-39 -50 -39 -62.5t10.5 -12.5t51.5 28
q76 50 139 101l22 18q7 5 12 5t5 -6v-3q4 0 -53.5 -44t-123 -88t-82.5 -44q-29 0 -29 26z" />
    <glyph glyph-name="v" unicode="v" horiz-adv-x="256" 
d="M288 159l-16 7q-19 0 -207 -163q-18 -16 -26.5 -16t-13 6t-4.5 13.5t34 68t34 65t-4 4.5q-14 -7 -21 -7t-7 4.5t4 8.5q42 33 58.5 33t16.5 -19t-25 -61.5t-25 -49.5t3.5 -7t8.5 4t53 46q163 128 178 128h1q6 0 12 -4t6 -12t-23 -28.5t-37 -20.5z" />
    <glyph glyph-name="w" unicode="w" horiz-adv-x="374" 
d="M353 132l-6 32q0 8 4 14t13 6t14.5 -13.5t5.5 -27.5q0 -51 -56 -105t-116 -54q-14 0 -22 8.5t-8 22t13.5 39.5t13.5 32t-3 6t-5 -2q-100 -84 -147 -84q-28 0 -28 24q0 38 56.5 106.5t80.5 68.5q15 0 15 -5.5t-18.5 -23.5t-56 -64.5t-37.5 -67.5q0 -13 20 -13t88 54.5
t110 99.5q16 16 27.5 16t11.5 -7.5t-4.5 -14.5t-30.5 -37q-65 -79 -65 -124q0 -12 9 -12q37 0 79 39.5t42 86.5z" />
    <glyph glyph-name="x" unicode="x" horiz-adv-x="254" 
d="M6 -1q-7 0 -7 7q0 4 10 14q27 30 93 81q13 59 13 66t-6.5 12t-6.5 7.5t6 8.5q27 19 38 19q15 0 15 -16q0 -8 -16 -64q124 90 144 90q6 0 11 -5.5t5 -9.5q0 -2 -48 -29t-119 -77q-7 -32 -7 -50q0 -33 17 -33q13 0 85 44q58 40 115 86l19 16q7 5 12.5 5t5.5 -8v-1
q-204 -168 -251 -168q-40 0 -40 49q0 9 2 29q-42 -31 -74 -63q-12 -10 -16 -10z" />
    <glyph glyph-name="y" unicode="y" horiz-adv-x="336" 
d="M66 -114l13 17q16 19 20 25q-29 -13 -46 -17.5t-17 -6.5zM71 -174q0 10 -3 21q-147 -184 -147 -220q0 -3 3 -3q17 0 52 33t65 82t30 87zM-9 -97q3 8 4.5 9t7.5 1.5t38 9t76 27.5q128 163 135.5 177.5t7.5 17.5t-4 3t-9 -7q-2 -1 -26.5 -23.5t-48 -41.5t-54.5 -36.5
t-53 -17.5t-22 16q1 37 50.5 102t66.5 65t17 -9q0 -5 -45.5 -62t-45.5 -71t9 -14q18 0 103.5 73t105.5 73q6 0 11.5 -6t5.5 -13q0 -22 -144 -197q135 75 251 170l22 18q8 5 13 5t5 -5l-1 -4q5 0 -53 -44t-107 -78t-151 -86l-71 -87q14 -20 14 -47q0 -46 -39 -102.5
t-87.5 -94t-79.5 -37.5q-9 0 -16.5 6.5t-7.5 18t11.5 34.5t34 53.5t42.5 55t51 61.5t46 55q-18 16 -40.5 20t-22.5 12z" />
    <glyph glyph-name="z" unicode="z" horiz-adv-x="236" 
d="M-146 -392q24 0 80 56t107 135.5t58 134.5q-103 -67 -179.5 -151.5t-76.5 -159.5q0 -15 11 -15zM213 13q8 0 8 -7t-12 -12q-33 -12 -77 -40v-5q0 -60 -62 -150t-134.5 -153.5t-106.5 -63.5q-26 0 -26 29q0 42 28.5 91.5t74.5 95.5q90 93 195 159q-5 52 -67 56
q-15 0 -15 9q0 3 14 11.5t45 27.5t77 58.5t46 62.5q0 11 -10 11q-23 0 -88 -52l-31 -25l-4 15q12 9 27 21q90 74 134 74q27 0 27 -29q0 -59 -182 -160q-8 -4 -8 -8t2 -4q50 -13 61 -51q23 14 49.5 26.5t34.5 12.5z" />
    <glyph glyph-name="braceleft" unicode="{" horiz-adv-x="410" 
d="M519 743q8 -3 8 -13t-4 -10q-50 21 -92.5 21t-64.5 -30t-31 -90t-11 -113.5t-23.5 -105.5t-66.5 -73q23 -37 25 -70q0 -42 -51.5 -145.5t-51.5 -148.5q3 -42 31 -71t89 -47q2 0 2 -3t-6 -8t-11 -5q-139 41 -145 131q0 47 51.5 153t51.5 152q0 27 -11.5 37.5t-23.5 13
t-12 9.5q0 3 9 6q42 11 69.5 51t43.5 177t42.5 172.5t71.5 35.5t111 -26z" />
    <glyph glyph-name="bar" unicode="|" horiz-adv-x="339" 
d="M412 875q7 0 7 -7.5t-1 -10.5q-31 -160 -132.5 -459t-198.5 -493q-11 -9 -22 -9q-14 0 -14 13q71 132 194 465t150 481q1 8 8 16q6 4 9 4z" />
    <glyph glyph-name="braceright" unicode="}" horiz-adv-x="455" 
d="M77 -143q-8 3 -8 13t4 10q50 -21 92.5 -21t64.5 30t31 90t11 113.5t23.5 105.5t66.5 73q-23 37 -25 70q0 42 51.5 145.5t51.5 148.5q-3 42 -31 71t-89 47q-2 0 -2 3t6 8t11 5q139 -41 145 -131q0 -47 -51.5 -153t-51.5 -152q0 -27 11.5 -37.5t23.5 -13t12 -9.5
q0 -3 -9 -6q-42 -11 -69.5 -51t-43.5 -177t-42.5 -172.5t-71.5 -35.5t-111 26z" />
    <glyph glyph-name="asciitilde" unicode="~" horiz-adv-x="407" 
d="M314 94l-94 -10q-22 0 -39 13.5t-24 37.5q0 5 4.5 5t7.5 -6q15 -24 49 -24l84 9q25 0 44.5 -11t19.5 -34q0 -6 -4.5 -6t-7.5 6q-13 20 -40 20z" />
    <glyph glyph-name="uni007F" 
 />
    <glyph glyph-name="exclamdown" unicode="&#xa1;" horiz-adv-x="327" 
d="M-43.5 -299q-11.5 -11 -23.5 -11t-18 8q0 5 156.5 246t187.5 290q11 18 21 18q8 0 8 -11q-1 -6 -153.5 -257t-159.5 -261.5t-18.5 -21.5zM299 295q-6 6 -6 18t13 28t24 16t17 -6.5t6 -15t-14 -27.5t-24 -19t-16 6z" />
    <glyph glyph-name="cent" unicode="&#xa2;" horiz-adv-x="377" 
d="M406 406q7 5 13 5t6 -7v-2q-165 -146 -272 -173q-32 -83 -41 -115q-4 -4 -9.5 -4t-11 6.5t-7.5 19.5q10 33 32 90q-38 3 -38 49.5t48 101.5t111 72l38 98q7 10 12 10q8 0 8 -11q0 -2 -30 -92q5 1 20.5 0t21 -6t5.5 -14t-18.5 -32.5t-33.5 -23.5q-17 3 -17 12q0 4 9 13
q17 15 17 22t-11 7q-35 -1 -88 -57.5t-53 -93.5q0 -28 36.5 -28t78.5 26q74 45 149 107z" />
    <glyph glyph-name="sterling" unicode="&#xa3;" horiz-adv-x="809" 
d="M857 729q0 19 -65.5 19t-157.5 -95q142 18 198 51q25 14 25 25zM41 -29q34 0 82.5 51.5t114.5 148.5q-75 -25 -145 -89.5t-70 -96.5q0 -14 18 -14zM538 319q0 -5 -9 -5q-71 1 -144 1q-12 -17 -38.5 -56.5t-40.5 -59.5h3q100 0 170 -58q29 -24 56 -48q65 -58 139 -58
q34 0 74.5 21.5t46 21.5t5.5 -5q0 -18 -51 -39.5t-101.5 -21.5t-91 17.5t-67.5 42.5t-53 50q-62 60 -138 60h-4q-80 -114 -143.5 -176t-116.5 -62q-34 0 -34 27q0 46 80.5 121.5t171.5 98.5l84 125h-89q-15 0 -15 21q0 6 6 8t29 2h90l31 45h-102q-15 0 -15 21q0 6 6 8t52 2
t81 -1q92 129 161 202q-105 -11 -234 -11q-44 0 -44 13q0 7 12 15t23 8q54 -7 126.5 -7t141.5 7q119 117 212 117t93 -31q0 -17 -30.5 -36.5t-98.5 -39t-161 -31.5q-62 -69 -155 -207l106 -4q15 -1 15 -22q0 -5 -9 -5q-61 1 -132 1l-31 -45l118 -5q15 -1 15 -22z" />
    <glyph glyph-name="currency" unicode="&#xa4;" horiz-adv-x="452" 
d="M344 359q0 40 -21.5 56t-43.5 16q-51 0 -91 -52t-40 -105q0 -67 66 -67q46 0 88 47t42 105zM383 370q0 -68 -54 -129l58 -65q5 -5 5 -9q0 -8 -23 -8q-1 1 -59 63q-52 -45 -106 -45t-78 26q-66 -59 -72 -59q-12 0 -12 17q0 6 28 31.5t40 38.5q-3 13 -3 29q0 69 57 134
q-68 77 -68 85q1 7 16 11q5 -1 70 -77q51 48 112 48q41 0 66 -28l59 47q5 4 11.5 4t6.5 -8q0 -3 -1.5 -6t-61.5 -57q9 -17 9 -43z" />
    <glyph glyph-name="yen" unicode="&#xa5;" horiz-adv-x="760" 
d="M545 252q0 -4 -4 -4h-149q-28 -81 -28 -134t17 -125q0 -22 -35 -24q-31 0 -31 56t52 227l-113 1q-15 0 -15 21q0 6 6 8t52 2t80 -1q4 15 14 45l-98 1q-15 0 -15 21q0 6 6 8t29 2h88q55 180 55 237.5t-54 89t-123.5 31.5t-117.5 -24t-48 -64q0 -51 79 -66
q33 -7 66.5 -15.5t56.5 -31.5t23 -63q0 -9 -7 -9l-6 6q-24 47 -110 67q-33 7 -65 16q-72 20 -72 82.5t61.5 95t148 32.5t150.5 -35.5t64 -100.5q0 -80 -66 -248q46 40 109.5 101.5t102.5 96.5t88 72q92 72 190 72q6 0 11.5 -8t5.5 -17t-8 -14t-19.5 -12t-20.5 -13
q-25 -15 -31.5 -15t-9 5t-5.5 5q-71 0 -179 -87q-59 -49 -95 -81.5t-115 -106.5l109 -4q15 -1 15 -22q0 -5 -9 -5q-80 0 -149 1l-6 -6l-17 -39l127 -5q15 -1 15 -22z" />
    <glyph glyph-name="brokenbar" unicode="&#xa6;" horiz-adv-x="339" 
d="M51 -91q66 124 171 404q3 7 8.5 7t11.5 -7.5t7 -18.5q-85 -232 -162 -389q-11 -9 -22 -9q-14 0 -14 13zM412 875q7 0 7 -7.5t-1 -10.5q-22 -111 -107 -380q-5 -16 -12 -16q-9 0 -17 16q90 257 113 378q1 8 8 16q6 4 9 4z" />
    <glyph glyph-name="section" unicode="&#xa7;" horiz-adv-x="596" 
d="M421 638l26 -1q147 0 147 41q0 20 -38.5 36t-98.5 16t-112 -28.5t-52 -75.5q0 -61 95 -134q39 -30 78.5 -61.5t67 -70.5t27.5 -79q0 -67 -61 -134q-21 -69 -92 -126q-37 -29 -92 -47t-120 -18q-102 0 -155 37t-53 93t60.5 101.5t159.5 45.5q51 0 82.5 -23.5t31.5 -70.5
q0 -20 -13 -20q-10 0 -13 11q-20 85 -100.5 85t-122.5 -34t-42 -82.5t47 -86t131 -37.5q106 0 177.5 64.5t71.5 139.5q0 39 -26.5 80t-64.5 75t-76 66q-91 77 -91 129.5t54 87.5v4q0 61 66 96t143 35t115.5 -20t38.5 -50t-46 -53.5t-126 -23.5q-13 0 -23 7t-10 20q2 6 9 6z
M261 588q-22 -24 -22 -54.5t24 -62.5t59.5 -60.5t72.5 -57t67.5 -64t39.5 -69.5q10 24 10 55t-21.5 67.5t-54.5 68t-68 60.5q-86 72 -107 117z" />
    <glyph glyph-name="dieresis" unicode="&#xa8;" horiz-adv-x="500" 
d="M234.5 296q5.5 -6 5.5 -17t-15 -28t-26 -17t-16 6.5t-5 15t16 27.5t25.5 19t15 -6zM323.5 296q5.5 -6 5.5 -17t-15 -28t-26 -17t-16 6.5t-5 15t16 27.5t25.5 19t15 -6z" />
    <glyph glyph-name="copyright" unicode="&#xa9;" horiz-adv-x="407" 
d="M386 230q0 -88 -70 -164.5t-158 -76.5q-59 0 -87.5 28t-28.5 75q0 84 71 167.5t162 83.5q32 0 67 -20q44 -25 44 -93zM363 193q-53 -46 -116.5 -86.5t-110.5 -40.5q-36 0 -36 42t51.5 93t111.5 51q25 -2 26.5 -7t1.5 -11t-15.5 -24.5t-27.5 -18.5q-13 3 -13 7q0 5 7 12
q14 14 14 17q0 6 -10 6q-29 0 -72 -45.5t-43 -76.5q0 -23 31 -23q59 0 204 122v11q0 77 -71 96q-15 4 -28 4q-79 0 -141 -72t-62 -146q0 -92 102 -92q67 0 126.5 56t70.5 126z" />
    <glyph glyph-name="ordfeminine" unicode="&#xaa;" horiz-adv-x="300" 
d="M206 496l5 22q0 2 -2.5 2t-32 -23t-52.5 -23t-23 21q0 44 73 109t149 65q28 0 28 -22q0 -15 -24.5 -39.5t-42.5 -24.5q-5 0 -5 4.5t4 7.5t9 7.5t7.5 7.5t6.5 8q7 9 7 20t-21 13q-39 -1 -92 -55t-53 -81q0 -10 11 -10t28 15q23 14 60 51q10 10 21 10t11 -11q0 -3 -4 -9
l-10 -13q-25 -29 -25 -43t15.5 -14t65 32.5t90.5 65.5l41 33q6 5 11 5t5 -6v-2q-77 -62 -144 -107t-90 -45q-27 0 -27 29zM54 419q-1 1 -1 3q0 17 35 17t67.5 1.5t59.5 3.5t49.5 4t36.5 3.5t15 1.5q6 0 6 -4q0 -6 -11 -13.5t-26 -8.5q-80 -8 -231 -8z" />
    <glyph glyph-name="guillemotleft" unicode="&#xab;" horiz-adv-x="566" 
d="M369.5 30q15.5 -10 15.5 -23q0 -20 -14 -20q-4 0 -4 2q0 16 -49 41.5t-97.5 49t-47.5 36.5q0 15 22 15q71 0 139 14t81 35q2 2 4 2t5 -5t3 -10q-1 -24 -76 -40.5t-97.5 -16.5t-22.5 -2q0 -4 14 -12q109 -56 124.5 -66zM488 -2q0 -5 -4 -8.5t-7.5 -3.5t-3.5 2
q0 13 -41.5 34.5t-83 42t-40.5 31.5q0 12 19 12q52 0 97 21t59 43l2 2q2 0 5 -4.5t3 -8.5q-1 -21 -54.5 -46t-75.5 -25q-6 0 -6 -2.5t45 -25t65.5 -35.5t20.5 -29z" />
    <glyph glyph-name="logicalnot" unicode="&#xac;" horiz-adv-x="356" 
d="M362 297v-1l-46 -130q-2 -7 -8 -7t-11.5 5.5t-5.5 12.5q18 59 36 115l-256 2q-15 0 -15 21q0 6 6 8t85.5 2t199.5 -6q15 -1 15 -22z" />
    <glyph glyph-name="uni00AD" unicode="&#xad;" horiz-adv-x="321" 
d="M40 229v78h242v-78h-242z" />
    <glyph glyph-name="registered" unicode="&#xae;" horiz-adv-x="428" 
d="M468 268q0 -108 -85.5 -202t-193.5 -94q-73 0 -108 34.5t-35 96t37.5 132.5t105.5 121t143 50q40 0 82 -24q24 -14 39 -43.5t15 -70.5zM94.5 21.5q31.5 -32.5 105.5 -32.5t145 60q-16 -4 -23 -4q-25 0 -40 20.5t-18.5 41t-6 55.5t-3.5 40q-30 -55 -81.5 -113t-71.5 -58
q-10 0 -10 8q0 22 49.5 86.5t110.5 115.5q4 11 4 23q0 46 -80 46q-15 0 -26 -7q-9 -9 -9 -17.5t11 -14.5t24 -9.5t24 -14t11 -22.5t-3.5 -12t-3.5 4q0 20 -36.5 33.5t-38.5 27.5q-65 -84 -65 -170q0 -54 31.5 -86.5zM427.5 155.5q25.5 52.5 25.5 94t-10 66t-24 38t-33 22.5
q-42 12 -61 13q-85 0 -161 -71q10 2 16 2q37 0 66 -14.5t29 -43.5l-1 -3q75 56 130 56q24 0 24 -17q0 -27 -47 -70t-81 -43l-31 3q0 -64 22 -105q15 -28 40 -28q11 0 29 8q42 40 67.5 92.5zM271 240q-2 -7 -8 -21h6q-1 -6 -1 -11t1 -6q12 -9 25 -9q34 0 73.5 40.5t39.5 63.5
q0 9 -9 9q-44 0 -127 -66zM105 42q14 0 64.5 61t73.5 114q-57 -49 -99 -100.5t-42 -73.5q2 -1 3 -1z" />
    <glyph glyph-name="macron" unicode="&#xaf;" horiz-adv-x="300" 
d="M397 284q0 -16 -12 -17q-86 -4 -184 -4q-26 0 -26 8q0 15 12 15h203q7 0 7 -2z" />
    <glyph glyph-name="degree" unicode="&#xb0;" horiz-adv-x="349" 
d="M301 625q0 -32 -33 -67.5t-80 -35.5q-21 0 -33 13t-12 36.5t31.5 60t81.5 36.5q21 0 33 -12t12 -31zM274 614q0 29 -30.5 29t-52 -24t-21.5 -40q0 -32 32 -32q28 0 50 23.5t22 43.5z" />
    <glyph glyph-name="plusminus" unicode="&#xb1;" horiz-adv-x="356" 
d="M318 163q0 -5 -9 -5l-282 2q-15 0 -15 21q0 6 6 8t85.5 2t199.5 -6q15 -1 15 -22zM377 337q0 -4 -3.5 -4t-5.5 1h-140l-32 -90q-2 -7 -8 -7t-11.5 5.5t-5.5 12.5q22 72 24 79h-109q-15 0 -15 21q0 6 6 8t50.5 2t77.5 -1q1 2 2.5 7t2.5 7q26 74 33.5 74t13 -6t5.5 -13
l-24 -69l124 -5q15 -1 15 -22z" />
    <glyph glyph-name="twosuperior" unicode="&#xb2;" horiz-adv-x="395" 
d="M312 608q38 0 59.5 -18t21.5 -46q0 -53 -56.5 -139t-132.5 -162q13 -8 36 -27q47 -37 75.5 -37t65.5 22q5 3 7.5 3t2.5 -3t-8.5 -10t-34 -19.5t-44.5 -12.5t-36.5 7t-28 14t-28.5 22t-26 20q-36 -34 -72.5 -54t-58.5 -20q-27 0 -27 27t34.5 58t82.5 31q18 0 36 -8
q68 74 119.5 155.5t51.5 131t-57 49.5t-107.5 -48t-50.5 -86q0 -28 33 -28q54 0 85 60q5 8 12 23q11 27 16.5 27t5.5 -9q0 -32 -37 -72.5t-91 -40.5t-54 42q0 47 61 97.5t145 50.5zM46 185q0 -18 25 -18t91 69q-17 10 -42 10t-49.5 -20.5t-24.5 -40.5z" />
    <glyph glyph-name="threesuperior" unicode="&#xb3;" horiz-adv-x="340" 
d="M261.5 372q-11.5 11 -41.5 11t-68 -19q-4 0 -4 9q0 5 16 12q61 23 125 77.5t64 90.5q0 39 -49.5 39t-98.5 -31t-49 -69.5t19 -38.5q21 0 47 21.5t32 44.5t18 23q6 0 6 -9q0 -29 -39 -60.5t-73 -31.5q-38 0 -38 47t62.5 85.5t125.5 38.5q76 0 76 -57q0 -31 -44 -73
t-139 -89l27 2q42 0 63 -16t21 -42q0 -44 -49 -98t-114 -82q31 -18 61 -18q9 0 9 -9t-22 -9t-63 31q-35 -13 -66.5 -13t-50 11.5t-18.5 23.5q0 24 38 24q54 0 98 -34q56 24 93 75.5t37 86.5t-11.5 46zM29 171q0 -8 15 -15t35 -7t52 10q-35 23 -68.5 23t-33.5 -11z" />
    <glyph glyph-name="acute" unicode="&#xb4;" horiz-adv-x="328" 
d="M233 316q0 -17 -39.5 -38t-81.5 -36q-6 0 -6 7.5t17.5 13.5t43 25t34.5 30t20.5 11t11.5 -13z" />
    <glyph glyph-name="mu" unicode="&#xb5;" horiz-adv-x="289" 
d="M-29.5 5.5q36.5 46.5 90.5 113.5t74 67q5 0 9.5 -4.5t4.5 -7.5t-15 -20q-50 -57 -79 -95q-9 -14 -9 -20t4 -6q19 0 82 51t89.5 79t41.5 28t15 -13q0 -8 -6 -16t-22.5 -28.5t-30.5 -38.5q-39 -50 -39 -62.5t10.5 -12.5t51.5 28q76 50 139 101l22 18q7 5 12 5t5 -6v-3
q4 0 -53.5 -44t-123 -88t-82.5 -44q-29 0 -29 26q0 15 14.5 39t15.5 28t-2 4t-6 -3t-25.5 -20t-57 -36.5t-49.5 -19.5t-20 5q-54 -75 -106 -154t-54 -84q-14 -26 -29 -26q-10 0 -10 14t20.5 48t65.5 92.5t81.5 105z" />
    <glyph glyph-name="paragraph" unicode="&#xb6;" horiz-adv-x="647" 
d="M458 484q87 0 97 -55q83 -4 83 -66q0 -49 -45 -124t-137 -199t-189.5 -240.5t-110.5 -116.5q-17 0 -17 24q0 13 7 32t19 19q4 0 5 -8.5t3 -8.5q23 0 250 308q81 109 125.5 183t44.5 116t-39 54q-18 -84 -199 -334q-99 -136 -197.5 -253.5t-112.5 -117.5q-17 0 -17 24
q0 13 7 32t19 19q4 0 5 -8.5t3 -8.5q12 0 86.5 92.5t154.5 203t111.5 156t63.5 107t32 97.5q0 8 -1 12q-87 -194 -275 -194q-82 0 -82 51q0 28 26.5 63t67.5 66.5t98.5 53t113.5 21.5z" />
    <glyph glyph-name="periodcentered" unicode="&#xb7;" horiz-adv-x="308" 
d="M228.5 117q5.5 -6 5.5 -17t-15 -28t-26 -17t-16 6.5t-5 15t16 27.5t25.5 19t15 -6z" />
    <glyph glyph-name="cedilla" unicode="&#xb8;" horiz-adv-x="291" 
d="M107 -77q-8 0 -13 4t-5 8q0 7 10 7q59 0 99.5 -19t40.5 -56q0 -24 -16 -40t-33.5 -22t-46.5 -13.5t-38.5 -11t-17 -13.5t-10 -10t-2.5 7q0 29 22 43t49 16.5t49 14t22 33.5q0 52 -110 52z" />
    <glyph glyph-name="onesuperior" unicode="&#xb9;" horiz-adv-x="289" 
d="M60 144q0 38 58.5 167t127.5 206q-55 -15 -78 -39q-8 -9 -17 -9t-9 7q0 26 70 45q15 4 47 12q58 60 115 60q21 0 21 -10t-15 -21q-26 -20 -96 -36q-56 -61 -111 -167t-76 -186q-7 -22 -8.5 -40t-4.5 -18q-8 0 -16 10.5t-8 18.5zM296 542q79 21 79 35q0 4 -8 4
q-29 0 -71 -39z" />
    <glyph glyph-name="ordmasculine" unicode="&#xba;" horiz-adv-x="231" 
d="M248 534q47 0 114 53l14 -4q-83 -70 -144 -70q-7 0 -10 1q-23 -28 -50.5 -45.5t-47.5 -17.5q-32 0 -32 37t60 95q-10 23 -10 51.5t19.5 45.5t45.5 17t44 -17t18 -57t-31 -88q3 -1 10 -1zM221 543q26 43 26 74t-15.5 46t-32.5 15q-27 0 -27 -31t14 -60.5t35 -43.5zM24 405
q-1 1 -1 3q0 17 35 17t67.5 1.5t59.5 3.5t49.5 4t36.5 3.5t15 1.5q6 0 6 -4q0 -6 -11 -13.5t-26 -8.5q-80 -8 -231 -8zM127 492q0 -17 22.5 -17t55.5 45q-23 11 -41 41q-37 -41 -37 -69z" />
    <glyph glyph-name="guillemotright" unicode="&#xbb;" horiz-adv-x="553" 
d="M260.5 140q-15.5 10 -15.5 23q0 20 14 20q4 0 4 -2q0 -16 49 -41.5t97.5 -49t47.5 -36.5q0 -15 -22 -15q-71 0 -139 -14t-81 -35q-2 -2 -4 -2t-5 5t-3 10q1 24 76 40.5t97.5 16.5t22.5 2q0 4 -14 12q-109 56 -124.5 66zM142 172q0 5 4 8.5t7.5 3.5t3.5 -2
q0 -13 41.5 -34.5t83 -42t40.5 -31.5q0 -12 -19 -12q-52 0 -97 -21t-59 -43l-2 -2q-2 0 -5 4.5t-3 8.5q1 21 54.5 46t75.5 25q6 0 6 2.5t-45 25t-65.5 35.5t-20.5 29z" />
    <glyph glyph-name="onequarter" unicode="&#xbc;" horiz-adv-x="762" 
d="M60 144q0 38 58.5 167t127.5 206q-55 -15 -78 -39q-8 -9 -17 -9t-9 7q0 26 70 45q15 4 47 12q58 60 115 60q21 0 21 -10t-15 -21q-26 -20 -96 -36q-56 -61 -111 -167t-76 -186q-7 -22 -8.5 -40t-4.5 -18q-8 0 -16 10.5t-8 18.5zM296 542q79 21 79 35q0 4 -8 4
q-29 0 -71 -39zM563 704q-84 -123 -201.5 -383t-160.5 -407q-4 -4 -9.5 -4t-11 6.5t-7.5 19.5q69 208 177 430.5t198 355.5q7 10 12 10q8 0 8 -11t-5 -17zM676 404l-1 -7q-69 -134 -108 -235q69 16 90.5 16t43.5 -9t22 -19q0 -8 -10 -8q-4 0 -31.5 8.5t-47.5 8.5t-70 -9
q-30 -81 -31 -116q-1 -9 -8 -9q-9 0 -14 7.5t-5 12.5q0 26 26 99q-54 -14 -89 -14q-56 0 -56 50.5t52 128t131 138t144 60.5q46 0 46 -25q0 -19 -23 -42.5t-37 -23.5q-4 0 -4 5t8 8.5t18.5 17t10.5 24.5q0 18 -44.5 18t-108.5 -54.5t-109 -125.5t-45 -117q0 -22 10 -32.5
t29 -10.5t71 8q44 107 98 211l19 37q7 5 19 5q4 0 4 -6z" />
    <glyph glyph-name="onehalf" unicode="&#xbd;" horiz-adv-x="762" 
d="M60 144q0 38 58.5 167t127.5 206q-55 -15 -78 -39q-8 -9 -17 -9t-9 7q0 26 70 45q15 4 47 12q58 60 115 60q21 0 21 -10t-15 -21q-26 -20 -96 -36q-56 -61 -111 -167t-76 -186q-7 -22 -8.5 -40t-4.5 -18q-8 0 -16 10.5t-8 18.5zM296 542q79 21 79 35q0 4 -8 4
q-29 0 -71 -39zM651 492q38 0 59.5 -18t21.5 -46q0 -53 -56.5 -139t-132.5 -162q13 -8 36 -27q47 -37 75.5 -37t65.5 22q4 3 7 3t3 -3t-8.5 -10t-34 -19.5t-44.5 -12.5t-36.5 7t-28 14t-28.5 22t-26 20q-36 -34 -72.5 -54t-58.5 -20q-27 0 -27 27t34.5 58t82.5 31
q18 0 36 -8q68 74 119.5 155.5t51.5 131t-57 49.5t-107.5 -48t-50.5 -86q0 -28 33 -28q54 0 85 60q5 8 11 23q12 27 18 27q5 0 5 -9q0 -32 -37 -72.5t-91 -40.5t-54 42q0 47 61 97.5t145 50.5zM385 69q0 -18 25 -18t91 69q-17 10 -42 10t-49.5 -20.5t-24.5 -40.5zM563 704
q-84 -123 -201.5 -383t-160.5 -407q-4 -4 -9.5 -4t-11 6.5t-7.5 19.5q69 208 177 430.5t198 355.5q7 10 12 10q8 0 8 -11t-5 -17z" />
    <glyph glyph-name="threequarters" unicode="&#xbe;" horiz-adv-x="817" 
d="M600 704q-84 -123 -201.5 -383t-160.5 -407q-4 -4 -9.5 -4t-11 6.5t-7.5 19.5q69 208 177 430.5t198 355.5q7 10 12 10q8 0 8 -11t-5 -17zM713 404l-1 -7q-69 -134 -108 -235q69 16 90.5 16t43.5 -9t22 -19q0 -8 -10 -8q-4 0 -31.5 8.5t-48 8.5t-69.5 -9
q-30 -81 -31 -116q-1 -9 -8 -9q-9 0 -14 7.5t-5 12.5q0 26 26 99q-54 -14 -89 -14q-56 0 -56 50.5t52 128t131 138t144 60.5q46 0 46 -25q0 -19 -23 -42.5t-37 -23.5q-4 0 -4 5t8 8.5t18.5 17t10.5 24.5q0 18 -44.5 18t-108.5 -54.5t-109 -125.5t-45 -117q0 -22 10 -32.5
t29 -10.5t71 8q44 107 97 211l20 37q7 5 19 5q4 0 4 -6zM209 393q95 47 139 89t44 73q0 57 -76 57q-63 0 -125.5 -38.5t-62.5 -85.5t38 -47q34 0 73 31.5t39 60.5q0 9 -6 9q-12 0 -18 -23t-32 -44.5t-47 -21.5q-19 0 -19 38.5t49 69.5t98.5 31t49.5 -39q0 -36 -64 -90.5
t-125 -77.5q-16 -7 -16 -12q0 -9 2.5 -9t3.5 1q32 18 64 18t43.5 -11t11.5 -46t-37 -86.5t-93 -75.5q-44 34 -98 34q-18 0 -28 -6.5t-10 -18t18.5 -23t50 -11.5t66.5 13q41 -31 63 -31t22 9t-9 9q-30 0 -61 18q65 28 114 82t49 98q0 26 -21 42t-63 16q-1 0 -12.5 -1
t-14.5 -1zM29 171q0 11 33.5 11t68.5 -23q-32 -10 -52 -10t-35 7t-15 15z" />
    <glyph glyph-name="questiondown" unicode="&#xbf;" horiz-adv-x="415" 
d="M331 206q-19 15 -47 15t-28 -11q0 -6 7 -13t11 -7l28 2q22 0 22 -24q0 -37 -28.5 -72t-71 -62.5t-92.5 -64.5t-92.5 -75t-71 -96t-28.5 -117t35 -83.5t99 -24.5t142 31t134.5 87t56.5 117q0 32 -22 51t-67 19q-91 0 -152.5 -67t-61.5 -121q0 -15 9 -15q5 0 11 10t18 34.5
t19 38.5q53 100 142 100q70 0 70 -56q0 -53 -45.5 -101.5t-109 -76t-116.5 -27.5q-111 0 -111 93q0 60 26.5 113t66.5 89.5t86.5 73.5t86.5 66t66.5 65t26.5 65t-19 44zM353.5 256q-5.5 6 -5.5 17t15 28t26 17t16 -6.5t5 -15t-16 -27.5t-25.5 -19t-15 6z" />
    <glyph glyph-name="Agrave" unicode="&#xc0;" horiz-adv-x="800" 
d="M816 819q0 13 12 13t20.5 -11t34 -30t50.5 -28q10 -3 10 -10.5t-6 -7.5q-84 30 -111 57q-10 10 -10 17zM133 274q0 -25 91 -48q52 -12 126 -20q-93 83 -184 83q-33 0 -33 -15zM529 7q21 0 104 165q-112 -2 -139.5 -2t-77.5 2q59 -71 96 -151q6 -14 17 -14zM842 684
q-33 0 -88 -70.5t-145.5 -199.5t-168.5 -214q70 -2 122.5 -2t84.5 2q71 140 138.5 296t67.5 179q0 9 -11 9zM701 202l208 15q8 0 8 -8t-13.5 -17t-52.5 -12t-165 -6q-102 -199 -144 -199q-28 0 -40 25q-44 89 -103 156l-29 -28q-148 -138 -345 -138q-50 0 -87.5 7.5
t-37.5 20.5q0 9 11 9q7 0 17 -4q30 -12 113 -12q149 0 282 117q48 45 49 46q-94 7 -158 25q-114 32 -114 76q0 15 16.5 25t43.5 10q119 0 226 -107q9 0 13 -1q89 96 217 272q45 61 90 118q94 118 154 118q39 0 39 -34q0 -23 -64.5 -179.5t-133.5 -294.5z" />
    <glyph glyph-name="Aacute" unicode="&#xc1;" horiz-adv-x="800" 
d="M962 814q0 -17 -39.5 -38t-81.5 -36q-6 0 -6 7.5t17.5 13.5t43 25t34.5 30t20.5 11t11.5 -13zM133 274q0 -25 91 -48q52 -12 126 -20q-93 83 -184 83q-33 0 -33 -15zM529 7q21 0 104 165q-112 -2 -139.5 -2t-77.5 2q59 -71 96 -151q6 -14 17 -14zM842 684
q-33 0 -88 -70.5t-145.5 -199.5t-168.5 -214q70 -2 122.5 -2t84.5 2q71 140 138.5 296t67.5 179q0 9 -11 9zM701 202l208 15q8 0 8 -8t-13.5 -17t-52.5 -12t-165 -6q-102 -199 -144 -199q-28 0 -40 25q-44 89 -103 156l-29 -28q-148 -138 -345 -138q-50 0 -87.5 7.5
t-37.5 20.5q0 9 11 9q7 0 17 -4q30 -12 113 -12q149 0 282 117q48 45 49 46q-94 7 -158 25q-114 32 -114 76q0 15 16.5 25t43.5 10q119 0 226 -107q9 0 13 -1q89 96 217 272q45 61 90 118q94 118 154 118q39 0 39 -34q0 -23 -64.5 -179.5t-133.5 -294.5z" />
    <glyph glyph-name="Acircumflex" unicode="&#xc2;" horiz-adv-x="800" 
d="M850 780q29 20 36.5 30t18 10t19.5 -9q3 -4 6.5 -27.5t17.5 -44.5q2 -4 2 -5q0 -5 -6 -5t-15 8.5t-18 27.5t-9 20q-24 -22 -111 -52q-6 0 -6 7.5t18 13.5t47 26zM133 274q0 -25 91 -48q52 -12 126 -20q-93 83 -184 83q-33 0 -33 -15zM529 7q21 0 104 165
q-112 -2 -139.5 -2t-77.5 2q59 -71 96 -151q6 -14 17 -14zM842 684q-33 0 -88 -70.5t-145.5 -199.5t-168.5 -214q70 -2 122.5 -2t84.5 2q71 140 138.5 296t67.5 179q0 9 -11 9zM701 202l208 15q8 0 8 -8t-13.5 -17t-52.5 -12t-165 -6q-102 -199 -144 -199q-28 0 -40 25
q-44 89 -103 156l-29 -28q-148 -138 -345 -138q-50 0 -87.5 7.5t-37.5 20.5q0 9 11 9q7 0 17 -4q30 -12 113 -12q149 0 282 117q48 45 49 46q-94 7 -158 25q-114 32 -114 76q0 15 16.5 25t43.5 10q119 0 226 -107q9 0 13 -1q89 96 217 272q45 61 90 118q94 118 154 118
q39 0 39 -34q0 -23 -64.5 -179.5t-133.5 -294.5z" />
    <glyph glyph-name="Atilde" unicode="&#xc3;" horiz-adv-x="800" 
d="M930 772l-94 -10q-22 0 -39 13.5t-24 37.5q0 5 4.5 5t7.5 -6q15 -24 49 -24l84 9q25 0 44.5 -11t19.5 -34q0 -6 -4.5 -6t-7.5 6q-13 20 -40 20zM133 274q0 -25 91 -48q52 -12 126 -20q-93 83 -184 83q-33 0 -33 -15zM529 7q21 0 104 165q-112 -2 -139.5 -2t-77.5 2
q59 -71 96 -151q6 -14 17 -14zM842 684q-33 0 -88 -70.5t-145.5 -199.5t-168.5 -214q70 -2 122.5 -2t84.5 2q71 140 138.5 296t67.5 179q0 9 -11 9zM701 202l208 15q8 0 8 -8t-13.5 -17t-52.5 -12t-165 -6q-102 -199 -144 -199q-28 0 -40 25q-44 89 -103 156l-29 -28
q-148 -138 -345 -138q-50 0 -87.5 7.5t-37.5 20.5q0 9 11 9q7 0 17 -4q30 -12 113 -12q149 0 282 117q48 45 49 46q-94 7 -158 25q-114 32 -114 76q0 15 16.5 25t43.5 10q119 0 226 -107q9 0 13 -1q89 96 217 272q45 61 90 118q94 118 154 118q39 0 39 -34
q0 -23 -64.5 -179.5t-133.5 -294.5z" />
    <glyph glyph-name="Adieresis" unicode="&#xc4;" horiz-adv-x="800" 
d="M864.5 805q5.5 -6 5.5 -17t-15 -28t-26 -17t-16 6.5t-5 15t16 27.5t25.5 19t15 -6zM953.5 805q5.5 -6 5.5 -17t-15 -28t-26 -17t-16 6.5t-5 15t16 27.5t25.5 19t15 -6zM133 274q0 -25 91 -48q52 -12 126 -20q-93 83 -184 83q-33 0 -33 -15zM529 7q21 0 104 165
q-112 -2 -139.5 -2t-77.5 2q59 -71 96 -151q6 -14 17 -14zM842 684q-33 0 -88 -70.5t-145.5 -199.5t-168.5 -214q70 -2 122.5 -2t84.5 2q71 140 138.5 296t67.5 179q0 9 -11 9zM701 202l208 15q8 0 8 -8t-13.5 -17t-52.5 -12t-165 -6q-102 -199 -144 -199q-28 0 -40 25
q-44 89 -103 156l-29 -28q-148 -138 -345 -138q-50 0 -87.5 7.5t-37.5 20.5q0 9 11 9q7 0 17 -4q30 -12 113 -12q149 0 282 117q48 45 49 46q-94 7 -158 25q-114 32 -114 76q0 15 16.5 25t43.5 10q119 0 226 -107q9 0 13 -1q89 96 217 272q45 61 90 118q94 118 154 118
q39 0 39 -34q0 -23 -64.5 -179.5t-133.5 -294.5z" />
    <glyph glyph-name="Aring" unicode="&#xc5;" horiz-adv-x="800" 
d="M936 798q0 17 -17.5 17t-30 -14t-12.5 -23q0 -18 17.5 -18t30 13.5t12.5 24.5zM878.5 808.5q18.5 21.5 46 21.5t27.5 -29q0 -15 -19.5 -35.5t-46 -20.5t-26.5 26q0 16 18.5 37.5zM133 274q0 -25 91 -48q52 -12 126 -20q-93 83 -184 83q-33 0 -33 -15zM529 7q21 0 104 165
q-112 -2 -139.5 -2t-77.5 2q59 -71 96 -151q6 -14 17 -14zM842 684q-33 0 -88 -70.5t-145.5 -199.5t-168.5 -214q70 -2 122.5 -2t84.5 2q71 140 138.5 296t67.5 179q0 9 -11 9zM701 202l208 15q8 0 8 -8t-13.5 -17t-52.5 -12t-165 -6q-102 -199 -144 -199q-28 0 -40 25
q-44 89 -103 156l-29 -28q-148 -138 -345 -138q-50 0 -87.5 7.5t-37.5 20.5q0 9 11 9q7 0 17 -4q30 -12 113 -12q149 0 282 117q48 45 49 46q-94 7 -158 25q-114 32 -114 76q0 15 16.5 25t43.5 10q119 0 226 -107q9 0 13 -1q89 96 217 272q45 61 90 118q94 118 154 118
q39 0 39 -34q0 -23 -64.5 -179.5t-133.5 -294.5z" />
    <glyph glyph-name="AE" unicode="&#xc6;" horiz-adv-x="1231" 
d="M894 655q-14 -42 -22 -62q62 31 140 60q-79 0 -118 2zM133 274q0 -25 91 -48q52 -12 126 -20q-93 83 -184 83q-33 0 -33 -15zM529 7q20 0 103 165q-112 -2 -139 -2t-77 2q59 -71 96 -151q6 -14 17 -14zM701 202l122 8q58 34 152 78.5t146.5 72t52.5 43.5q0 8 -18 8
q-232 -31 -335 -31q-25 0 -36 1q-39 -90 -84 -180zM842 684q-33 0 -88 -70.5t-145.5 -199.5t-168.5 -214q70 -2 122 -2t84 2q37 72 90 188q-53 13 -53 44q0 51 129 128q41 102 41 113t-11 11zM790 679q39 31 72.5 31t36.5 -29q65 -3 105.5 -3t84.5 2q175 55 297 55
q44 0 44 -17q0 -61 -361 -65q-127 -44 -219.5 -101.5t-92.5 -94t95 -36.5q58 0 174 16.5t150 16.5q53 0 53 -30q0 -48 -179 -127q-74 -33 -149 -69t-127 -81.5t-52 -91.5q0 -38 85 -38q47 0 142.5 14.5t164.5 14.5q123 0 123 -68q0 -8 -9 -8q-5 0 -22 9q-53 27 -116 27
q-33 -2 -153 -15.5t-152 -13.5q-120 0 -120 63.5t105 136.5q-78 -3 -84 -3q-102 -199 -144 -199q-28 0 -40 25q-44 89 -103 156l-29 -28q-148 -138 -345 -138q-50 0 -87.5 7.5t-37.5 20.5q0 9 11 9q7 0 17 -4q30 -12 113 -12q149 0 282 117q48 45 49 46q-94 7 -158 25
q-114 32 -114 76q0 15 16.5 25t43.5 10q119 0 226 -107q9 0 13 -1q89 96 217 272q45 61 90 117.5t84 87.5z" />
    <glyph glyph-name="Ccedilla" unicode="&#xc7;" horiz-adv-x="428" 
d="M69 364q53 0 116 17q118 135 251.5 228.5t225.5 93.5q46 0 46 -23q0 -31 -70 -89t-182 -119t-220 -97q-81 -94 -131 -182t-50 -145q0 -80 102 -80q57 0 126 36t114 71q10 7 17.5 7t7.5 -8q0 -5 -4 -9q-47 -34 -83.5 -56t-95.5 -43.5t-113 -21.5q-126 0 -126 97
q0 117 162 313q-48 -12 -92 -15q-12 2 -12 13t11 12zM631 675q-59 0 -163.5 -78.5t-206.5 -192.5q93 33 187.5 86.5t151.5 101t57 69.5q0 14 -26 14zM8 -78q-8 0 -13 4t-5 8q0 7 10 7q59 0 99.5 -19t40.5 -56q0 -24 -16 -40t-33.5 -22t-46.5 -13.5t-38.5 -11t-17 -13.5
t-10 -10t-2.5 7q0 29 22 43t49 16.5t49 14t22 33.5q0 52 -110 52z" />
    <glyph glyph-name="Egrave" unicode="&#xc8;" horiz-adv-x="672" 
d="M171 443q0 -22 52.5 -22t168.5 16.5t150 16.5q53 0 53 -30q0 -48 -179 -127q-74 -33 -149 -69t-127 -81.5t-52 -91.5q0 -38 85 -38q47 0 142.5 14.5t164.5 14.5q123 0 123 -68q0 -8 -9 -8q-5 0 -22 9q-53 27 -116 27q-33 -2 -153 -15.5t-152 -13.5q-120 0 -120 64
q0 45 52.5 94t127.5 88.5t149.5 74.5t127 63t52.5 43q0 8 -18 8q-232 -31 -335 -31q-83 0 -83 37q0 42 101 111.5t248 123.5q-244 2 -413 21q-9 3 -9 12q0 13 22 13q6 0 79 -5q206 -16 280 -16t118 2q175 55 297 55q44 0 44 -17q0 -61 -361 -65q-135 -47 -237 -111.5
t-102 -98.5zM564 849q0 13 12 13t20.5 -11t34 -30t50.5 -28q10 -3 10 -10.5t-6 -7.5q-84 30 -111 57q-10 10 -10 17z" />
    <glyph glyph-name="Eacute" unicode="&#xc9;" horiz-adv-x="672" 
d="M594 816q0 -17 -39.5 -38t-81.5 -36q-6 0 -6 7.5t17.5 13.5t43 25t34 30t20.5 11t12 -13zM392 437.5q-116 -16.5 -168.5 -16.5t-52.5 22q0 34 102 98.5t237 111.5q361 4 361 65q0 17 -44 17q-122 0 -297 -55q-44 -2 -88 -2t-140.5 5t-169.5 10.5t-79 5.5q-22 0 -22 -13
q0 -8 9 -12q169 -19 413 -21q-147 -54 -248 -123.5t-101 -111.5q0 -37 92.5 -37t325.5 31q18 0 18 -8q0 -15 -52.5 -43t-127 -63t-149.5 -74.5t-127.5 -88.5t-52.5 -94q0 -64 120 -64q32 0 152 13.5t153 15.5q63 0 116 -27q17 -9 22 -9q9 0 9 8q0 68 -123 68
q-69 0 -164.5 -14.5t-142.5 -14.5q-85 0 -85 38q0 46 52 91.5t126.5 81.5t149.5 69q179 79 179 127q0 30 -53 30q-34 0 -150 -16.5z" />
    <glyph glyph-name="Ecircumflex" unicode="&#xca;" horiz-adv-x="672" 
d="M392 437.5q-116 -16.5 -168.5 -16.5t-52.5 22q0 34 102 98.5t237 111.5q361 4 361 65q0 17 -44 17q-122 0 -297 -55q-44 -2 -88 -2t-140.5 5t-169.5 10.5t-79 5.5q-22 0 -22 -13q0 -8 9 -12q169 -19 413 -21q-147 -54 -248 -123.5t-101 -111.5q0 -37 92.5 -37t325.5 31
q18 0 18 -8q0 -15 -52.5 -43t-127 -63t-149.5 -74.5t-127.5 -88.5t-52.5 -94q0 -64 120 -64q32 0 152 13.5t153 15.5q63 0 116 -27q17 -9 22 -9q9 0 9 8q0 68 -123 68q-69 0 -164.5 -14.5t-142.5 -14.5q-85 0 -85 38q0 46 52 91.5t126.5 81.5t149.5 69q179 79 179 127
q0 30 -53 30q-34 0 -150 -16.5zM591 807q29 20 36.5 30t18 10t19.5 -9q3 -4 6.5 -27.5t17.5 -44.5q2 -4 2 -5q0 -5 -6 -5t-15 8.5t-18 27.5t-9 20q-24 -22 -111 -52q-6 0 -6 7.5t18 13.5t47 26z" />
    <glyph glyph-name="Edieresis" unicode="&#xcb;" horiz-adv-x="672" 
d="M392 437.5q-116 -16.5 -168.5 -16.5t-52.5 22q0 34 102 98.5t237 111.5q361 4 361 65q0 17 -44 17q-122 0 -297 -55q-44 -2 -88 -2t-140.5 5t-169.5 10.5t-79 5.5q-22 0 -22 -13q0 -8 9 -12q169 -19 413 -21q-147 -54 -248 -123.5t-101 -111.5q0 -37 92.5 -37t325.5 31
q18 0 18 -8q0 -15 -52.5 -43t-127 -63t-149.5 -74.5t-127.5 -88.5t-52.5 -94q0 -64 120 -64q32 0 152 13.5t153 15.5q63 0 116 -27q17 -9 22 -9q9 0 9 8q0 68 -123 68q-69 0 -164.5 -14.5t-142.5 -14.5q-85 0 -85 38q0 46 52 91.5t126.5 81.5t149.5 69q179 79 179 127
q0 30 -53 30q-34 0 -150 -16.5zM507.5 819q5.5 -6 5.5 -17t-15 -28t-26 -17t-16 6.5t-5 15t16 27.5t25.5 19t15 -6zM596.5 819q5.5 -6 5.5 -17t-15 -28t-26 -17t-16 6.5t-5 15t16 27.5t25.5 19t15 -6z" />
    <glyph glyph-name="Igrave" unicode="&#xcc;" horiz-adv-x="373" 
d="M577 647q-52 -51 -224 -308q141 26 174.5 26t69.5 -13t36 -29q0 -6 -5.5 -10t-11 -4t-51.5 14t-88.5 14t-136.5 -17q-183 -268 -242 -321q-30 -27 -49 -27q-17 0 -17 24q0 13 7 32t19 19q4 0 5 -8.5t3 -8.5q20 0 74.5 71.5t149.5 209.5q-115 -22 -175 -22
q-115 0 -115 60.5t102 154t248 165t255 71.5q77 0 77 -42q0 -32 -39 -71t-62 -39q-6 0 -6 7.5t4 10.5q21 10 39.5 32t18.5 41q0 36 -75 36t-198 -63t-214 -146t-91 -136.5t105 -53.5q40 0 140 16q107 153 155 216q88 114 121 114q5 0 5 -3zM560 845q0 13 12 13t20.5 -11
t34 -30t50.5 -28q10 -3 10 -10.5t-6 -7.5q-84 30 -111 57q-10 10 -10 17z" />
    <glyph glyph-name="Iacute" unicode="&#xcd;" horiz-adv-x="373" 
d="M577 647q-52 -51 -224 -308q141 26 174.5 26t69.5 -13t36 -29q0 -6 -5.5 -10t-11 -4t-51.5 14t-88.5 14t-136.5 -17q-183 -268 -242 -321q-30 -27 -49 -27q-17 0 -17 24q0 13 7 32t19 19q4 0 5 -8.5t3 -8.5q20 0 74.5 71.5t149.5 209.5q-115 -22 -175 -22
q-115 0 -115 60.5t102 154t248 165t255 71.5q77 0 77 -42q0 -32 -39 -71t-62 -39q-6 0 -6 7.5t4 10.5q21 10 39.5 32t18.5 41q0 36 -75 36t-198 -63t-214 -146t-91 -136.5t105 -53.5q40 0 140 16q107 153 155 216q88 114 121 114q5 0 5 -3zM729 850q0 -17 -39.5 -38
t-81.5 -36q-6 0 -6 7.5t17.5 13.5t43 25t34.5 30t20.5 11t11.5 -13z" />
    <glyph glyph-name="Icircumflex" unicode="&#xce;" horiz-adv-x="373" 
d="M577 647q-52 -51 -224 -308q141 26 174.5 26t69.5 -13t36 -29q0 -6 -5.5 -10t-11 -4t-51.5 14t-88.5 14t-136.5 -17q-183 -268 -242 -321q-30 -27 -49 -27q-17 0 -17 24q0 13 7 32t19 19q4 0 5 -8.5t3 -8.5q20 0 74.5 71.5t149.5 209.5q-115 -22 -175 -22
q-115 0 -115 60.5t102 154t248 165t255 71.5q77 0 77 -42q0 -32 -39 -71t-62 -39q-6 0 -6 7.5t4 10.5q21 10 39.5 32t18.5 41q0 36 -75 36t-198 -63t-214 -146t-91 -136.5t105 -53.5q40 0 140 16q107 153 155 216q88 114 121 114q5 0 5 -3zM616 814q29 20 36.5 30t18 10
t19.5 -9q3 -4 6.5 -27.5t17.5 -44.5q2 -4 2 -5q0 -5 -6 -5t-15 8.5t-18 27.5t-9 20q-24 -22 -111 -52q-6 0 -6 7.5t18 13.5t47 26z" />
    <glyph glyph-name="Idieresis" unicode="&#xcf;" horiz-adv-x="373" 
d="M577 647q-52 -51 -224 -308q141 26 174.5 26t69.5 -13t36 -29q0 -6 -5.5 -10t-11 -4t-51.5 14t-88.5 14t-136.5 -17q-183 -268 -242 -321q-30 -27 -49 -27q-17 0 -17 24q0 13 7 32t19 19q4 0 5 -8.5t3 -8.5q20 0 74.5 71.5t149.5 209.5q-115 -22 -175 -22
q-115 0 -115 60.5t102 154t248 165t255 71.5q77 0 77 -42q0 -32 -39 -71t-62 -39q-6 0 -6 7.5t4 10.5q21 10 39.5 32t18.5 41q0 36 -75 36t-198 -63t-214 -146t-91 -136.5t105 -53.5q40 0 140 16q107 153 155 216q88 114 121 114q5 0 5 -3zM600.5 830q5.5 -6 5.5 -17
t-15 -28t-26 -17t-16 6.5t-5 15t16 27.5t25.5 19t15 -6zM689.5 830q5.5 -6 5.5 -17t-15 -28t-26 -17t-16 6.5t-5 15t16 27.5t25.5 19t15 -6z" />
    <glyph glyph-name="Eth" unicode="&#xd0;" horiz-adv-x="787" 
d="M452 382q31 2 87 7q45 124 155.5 232t212.5 108q68 0 68 -72t-57 -190t-142 -234q61 24 128 67t88.5 54t32.5 11t17.5 -5.5t6.5 -12.5q0 -14 -32.5 -20t-122.5 -58t-143 -69q-72 -95 -138.5 -154t-108.5 -59q-58 0 -58 83q0 23 5 66.5t5 56.5q0 78 -47 78q-17 0 -36 -6
q-58 -86 -93 -134t-83 -105q-92 -109 -167 -109q-30 0 -30 22q0 46 110 154.5t215 168.5q41 64 57 87q-19 1 -79.5 1t-84 2.5t-24.5 15.5q0 6 3 7.5t67 1.5t139 3q125 187 214 279q67 67 114 67q19 0 19 -11q0 -7 -6 -10q-14 -8 -22 -12q-109 -74 -270 -311zM698 215
q14 0 29 3q87 118 149.5 241t62.5 185.5t-52 62.5q-81 0 -176.5 -102t-128.5 -212q5 1 13 1q21 0 21 -22q-1 -16 -44 -23q-1 -8 -1 -24q0 -110 127 -110zM518 16q27 0 77 47t109 124q-30 -5 -56 -5q-65 0 -96 30.5t-31 82.5q0 25 6 50h-28q-48 0 -72 1l-36 -54q19 6 37.5 6
t33 -8t20.5 -23q10 -25 10 -59l-13 -136q0 -56 39 -56zM61 -55q36 0 93 71.5t153 217.5q-88 -52 -176 -144.5t-88 -129.5q0 -15 18 -15z" />
    <glyph glyph-name="Ntilde" unicode="&#xd1;" horiz-adv-x="592" 
d="M270 379q-7 0 -10.5 6t-4.5 7q-11 -11 -30.5 -28t-69.5 -45t-89 -28q-65 0 -65 50q0 54 69 140t171.5 153.5t183.5 67.5q47 0 71.5 -28t24.5 -72.5t-39 -127.5q156 116 217 116q12 0 20 -7t8 -19q0 -20 -81.5 -129t-163.5 -228t-82 -164q0 -28 31 -28q47 0 133 86
q13 13 22 13q6 0 6 -8.5t-32 -37t-79.5 -55.5t-82.5 -27q-47 0 -47 39.5t49.5 122t109.5 160.5q159 205 159 239q0 6 -7 6q-57 0 -194 -108q-77 -151 -209.5 -314t-178.5 -163q-25 0 -25 21q0 65 112 193.5t258 246.5q55 110 55 172q0 76 -81 76q-62 0 -149.5 -60.5
t-149.5 -137.5t-62 -122q0 -38 50 -38q34 0 97 41t72 57q43 76 49 84q21 33 34 33q5 0 6 -7t-1.5 -13.5t-8.5 -16t-11 -17t-13.5 -19.5t-15 -21t-10.5 -17q-6 -12 -6 -28t-10 -16zM93 -8q27 1 134.5 134.5t179.5 267.5q-126 -108 -222 -224t-96 -171q0 -7 4 -7zM712 691
l-94 -10q-22 0 -39 13.5t-24 37.5q0 5 4.5 5t7.5 -6q15 -24 49 -24l84 9q25 0 44.5 -11t19.5 -34q0 -6 -4.5 -6t-7.5 6q-13 20 -40 20z" />
    <glyph glyph-name="Ograve" unicode="&#xd2;" horiz-adv-x="527" 
d="M590.5 734q17.5 -16 17.5 -41t-12 -45q51 -25 51 -97q0 -97 -82.5 -234.5t-198.5 -230.5q42 2 87.5 20t73.5 35t31.5 17t3.5 -8q0 -20 -76 -50.5t-135 -30.5h-7q-114 -84 -213 -84q-66 0 -98 36.5t-32 109.5t48.5 182t123 205.5t173.5 164t190 67.5q37 0 54.5 -16z
M446 498l1 -7q0 -12 -7 -12q-13 0 -13 27.5t19.5 50.5t56.5 46.5t49 34.5q-16 4 -26 4q-86 0 -165 -64.5t-124 -155t-45 -166.5q0 -160 149 -170q106 86 185 227t79 237q0 51 -26 74q-18 -20 -53.5 -44.5t-57.5 -44t-22 -37.5zM162 10q74 0 158 60q-90 7 -134 54t-44 115.5
t33.5 142t86.5 135t127.5 102.5t149.5 41q15 0 29 -3q13 19 13 38.5t-16 28.5t-37 9q-81 0 -170 -64.5t-155 -156.5t-109 -195.5t-43 -171.5q0 -135 111 -135zM535 845q0 13 11.5 13t20.5 -11t34.5 -30t50.5 -28q10 -3 10 -10.5t-6 -7.5q-84 30 -110 57q-11 10 -11 17z" />
    <glyph glyph-name="Oacute" unicode="&#xd3;" horiz-adv-x="527" 
d="M590.5 734q17.5 -16 17.5 -41t-12 -45q51 -25 51 -97q0 -97 -82.5 -234.5t-198.5 -230.5q42 2 87.5 20t73.5 35t31.5 17t3.5 -8q0 -20 -76 -50.5t-135 -30.5h-7q-114 -84 -213 -84q-66 0 -98 36.5t-32 109.5t48.5 182t123 205.5t173.5 164t190 67.5q37 0 54.5 -16z
M446 498l1 -7q0 -12 -7 -12q-13 0 -13 27.5t19.5 50.5t56.5 46.5t49 34.5q-16 4 -26 4q-86 0 -165 -64.5t-124 -155t-45 -166.5q0 -160 149 -170q106 86 185 227t79 237q0 51 -26 74q-18 -20 -53.5 -44.5t-57.5 -44t-22 -37.5zM162 10q74 0 158 60q-90 7 -134 54t-44 115.5
t33.5 142t86.5 135t127.5 102.5t149.5 41q15 0 29 -3q13 19 13 38.5t-16 28.5t-37 9q-81 0 -170 -64.5t-155 -156.5t-109 -195.5t-43 -171.5q0 -135 111 -135zM702 848q0 -17 -39.5 -38t-81.5 -36q-6 0 -6 7.5t17.5 13.5t43 25t34 30t20.5 11t12 -13z" />
    <glyph glyph-name="Ocircumflex" unicode="&#xd4;" horiz-adv-x="527" 
d="M590.5 734q17.5 -16 17.5 -41t-12 -45q51 -25 51 -97q0 -97 -82.5 -234.5t-198.5 -230.5q42 2 87.5 20t73.5 35t31.5 17t3.5 -8q0 -20 -76 -50.5t-135 -30.5h-7q-114 -84 -213 -84q-66 0 -98 36.5t-32 109.5t48.5 182t123 205.5t173.5 164t190 67.5q37 0 54.5 -16z
M446 498l1 -7q0 -12 -7 -12q-13 0 -13 27.5t19.5 50.5t56.5 46.5t49 34.5q-16 4 -26 4q-86 0 -165 -64.5t-124 -155t-45 -166.5q0 -160 149 -170q106 86 185 227t79 237q0 51 -26 74q-18 -20 -53.5 -44.5t-57.5 -44t-22 -37.5zM162 10q74 0 158 60q-90 7 -134 54t-44 115.5
t33.5 142t86.5 135t127.5 102.5t149.5 41q15 0 29 -3q13 19 13 38.5t-16 28.5t-37 9q-81 0 -170 -64.5t-155 -156.5t-109 -195.5t-43 -171.5q0 -135 111 -135zM563 823q29 20 36.5 30t18 10t19.5 -9q3 -4 6.5 -27.5t17.5 -44.5q2 -4 2 -5q0 -5 -6 -5t-15 8.5t-18 27.5t-9 20
q-24 -22 -111 -52q-6 0 -6 7.5t18 13.5t47 26z" />
    <glyph glyph-name="Otilde" unicode="&#xd5;" horiz-adv-x="527" 
d="M590.5 734q17.5 -16 17.5 -41t-12 -45q51 -25 51 -97q0 -97 -82.5 -234.5t-198.5 -230.5q42 2 87.5 20t73.5 35t31.5 17t3.5 -8q0 -20 -76 -50.5t-135 -30.5h-7q-114 -84 -213 -84q-66 0 -98 36.5t-32 109.5t48.5 182t123 205.5t173.5 164t190 67.5q37 0 54.5 -16z
M446 498l1 -7q0 -12 -7 -12q-13 0 -13 27.5t19.5 50.5t56.5 46.5t49 34.5q-16 4 -26 4q-86 0 -165 -64.5t-124 -155t-45 -166.5q0 -160 149 -170q106 86 185 227t79 237q0 51 -26 74q-18 -20 -53.5 -44.5t-57.5 -44t-22 -37.5zM162 10q74 0 158 60q-90 7 -134 54t-44 115.5
t33.5 142t86.5 135t127.5 102.5t149.5 41q15 0 29 -3q13 19 13 38.5t-16 28.5t-37 9q-81 0 -170 -64.5t-155 -156.5t-109 -195.5t-43 -171.5q0 -135 111 -135zM665 791l-94 -10q-22 0 -39 13.5t-24 37.5q0 5 4.5 5t7.5 -6q15 -24 49 -24l84 9q25 0 44.5 -11t19.5 -34
q0 -6 -4.5 -6t-7.5 6q-13 20 -40 20z" />
    <glyph glyph-name="Odieresis" unicode="&#xd6;" horiz-adv-x="527" 
d="M590.5 734q17.5 -16 17.5 -41t-12 -45q51 -25 51 -97q0 -97 -82.5 -234.5t-198.5 -230.5q42 2 87.5 20t73.5 35t31.5 17t3.5 -8q0 -20 -76 -50.5t-135 -30.5h-7q-114 -84 -213 -84q-66 0 -98 36.5t-32 109.5t48.5 182t123 205.5t173.5 164t190 67.5q37 0 54.5 -16z
M446 498l1 -7q0 -12 -7 -12q-13 0 -13 27.5t19.5 50.5t56.5 46.5t49 34.5q-16 4 -26 4q-86 0 -165 -64.5t-124 -155t-45 -166.5q0 -160 149 -170q106 86 185 227t79 237q0 51 -26 74q-18 -20 -53.5 -44.5t-57.5 -44t-22 -37.5zM162 10q74 0 158 60q-90 7 -134 54t-44 115.5
t33.5 142t86.5 135t127.5 102.5t149.5 41q15 0 29 -3q13 19 13 38.5t-16 28.5t-37 9q-81 0 -170 -64.5t-155 -156.5t-109 -195.5t-43 -171.5q0 -135 111 -135zM570.5 843q5.5 -6 5.5 -17t-15 -28t-26 -17t-16 6.5t-5 15t16 27.5t25.5 19t15 -6zM659.5 843q5.5 -6 5.5 -17
t-15 -28t-26 -17t-16 6.5t-5 15t16 27.5t25.5 19t15 -6z" />
    <glyph glyph-name="multiply" unicode="&#xd7;" horiz-adv-x="356" 
d="M106 379l-1 14q0 18 12 18q4 0 5 -1l76 -85q20 15 115 92q3 3 7 3q9 0 9 -13t-3 -20l-105 -87l85 -94q4 -4 4 -5q0 -13 -32 -13l-84 92q-26 -19 -106 -73q-4 -1 -8 -1q-23 0 -23 15q0 3 2 7q63 40 113 77z" />
    <glyph glyph-name="Oslash" unicode="&#xd8;" horiz-adv-x="527" 
d="M320 70q-54 4 -93 23q-3 -9 -15 -37.5t-17 -42.5q59 10 125 57zM568 657q13 19 13 38t-15 28t-34 10q-15 -25 -43 -78q28 5 46.5 5t32.5 -3zM225 396q-33 -77 -33 -140t24 -104q104 244 230 475q-69 -26 -128.5 -90t-92.5 -141zM91.5 309.5q-40.5 -99.5 -40.5 -165.5
q0 -132 108 -134l40 102q-57 45 -57 131q0 117 94.5 242t220.5 162q18 34 47 84q-79 -9 -163.5 -75.5t-146.5 -156.5t-102.5 -189.5zM446 498l1 -7q0 -12 -7 -12q-13 0 -13 27.5t19.5 50.5t56.5 46.5t49 34.5q-16 4 -31.5 4t-40.5 -5q-128 -245 -240 -514q36 -33 101 -37
q106 86 185 227t79 237q0 51 -26 74q-18 -20 -53.5 -44.5t-57.5 -44t-22 -37.5zM584 818l-43 -68q67 -3 67 -58q0 -24 -12 -44q51 -25 51 -97q0 -97 -82.5 -234.5t-198.5 -230.5q42 2 87.5 20t73.5 35t31.5 17t3.5 -8q0 -20 -76 -50.5t-135 -30.5h-7q-83 -62 -157 -77
q-17 -48 -29 -86q-4 -4 -9.5 -4t-11 6.5t-7.5 19.5q3 9 20 58q-11 -1 -19 -1q-66 0 -98 36.5t-32 108t46 177.5t117 200.5t166 164t184 77.5q56 97 67 97q8 0 8 -11t-5 -17z" />
    <glyph glyph-name="Ugrave" unicode="&#xd9;" horiz-adv-x="647" 
d="M288 441l-14 4q-2 0 -22 -16.5t-46 -35.5t-63 -35.5t-69 -16.5q-73 0 -73 53q0 40 43 100.5t107.5 115.5t149 94.5t157.5 39.5q98 0 98 -67q0 -52 -58.5 -147.5t-129.5 -182.5q-187 -231 -187 -284q0 -28 36 -28q74 0 221 118q36 89 112.5 196.5t154 181.5t116.5 74
q19 0 19 -18q0 -46 -111 -176.5t-246 -244.5q-25 -62 -25 -97q0 -63 69 -63q25 0 61 19t44.5 27.5t11.5 8.5t3 -4q0 -21 -52.5 -46.5t-105.5 -25.5q-75 0 -75 70q0 29 12 65q-156 -119 -241 -119q-25 0 -41 16t-16 41.5t39.5 85.5t96 131t112.5 144q135 176 135 248
q0 54 -77 54q-60 0 -131.5 -36t-127 -85.5t-93 -103t-37.5 -88.5q0 -41 53 -41q42 0 86 27.5t73.5 63.5t48 64.5t21.5 37.5q3 12 20 12q5 0 9.5 -4t4.5 -9.5t-28.5 -52t-32 -56t-12.5 -9.5zM792 573q-28 0 -128 -123q-101 -125 -161 -241q114 102 203.5 211t89.5 146
q0 7 -4 7zM637 774q0 13 11.5 13t20.5 -11t34.5 -30t50.5 -28q10 -3 10 -10.5t-6 -7.5q-84 30 -110 56q-11 11 -11 18z" />
    <glyph glyph-name="Uacute" unicode="&#xda;" horiz-adv-x="647" 
d="M288 441l-14 4q-2 0 -22 -16.5t-46 -35.5t-63 -35.5t-69 -16.5q-73 0 -73 53q0 40 43 100.5t107.5 115.5t149 94.5t157.5 39.5q98 0 98 -67q0 -52 -58.5 -147.5t-129.5 -182.5q-187 -231 -187 -284q0 -28 36 -28q74 0 221 118q36 89 112.5 196.5t154 181.5t116.5 74
q19 0 19 -18q0 -46 -111 -176.5t-246 -244.5q-25 -62 -25 -97q0 -63 69 -63q25 0 61 19t44.5 27.5t11.5 8.5t3 -4q0 -21 -52.5 -46.5t-105.5 -25.5q-75 0 -75 70q0 29 12 65q-156 -119 -241 -119q-25 0 -41 16t-16 41.5t39.5 85.5t96 131t112.5 144q135 176 135 248
q0 54 -77 54q-60 0 -131.5 -36t-127 -85.5t-93 -103t-37.5 -88.5q0 -41 53 -41q42 0 86 27.5t73.5 63.5t48 64.5t21.5 37.5q3 12 20 12q5 0 9.5 -4t4.5 -9.5t-28.5 -52t-32 -56t-12.5 -9.5zM792 573q-28 0 -128 -123q-101 -125 -161 -241q114 102 203.5 211t89.5 146
q0 7 -4 7zM810 764q0 -17 -39.5 -38t-81.5 -36q-6 0 -6 7.5t17.5 13.5t43 25t34 30t20.5 11t12 -13z" />
    <glyph glyph-name="Ucircumflex" unicode="&#xdb;" horiz-adv-x="647" 
d="M288 441l-14 4q-2 0 -22 -16.5t-46 -35.5t-63 -35.5t-69 -16.5q-73 0 -73 53q0 40 43 100.5t107.5 115.5t149 94.5t157.5 39.5q98 0 98 -67q0 -52 -58.5 -147.5t-129.5 -182.5q-187 -231 -187 -284q0 -28 36 -28q74 0 221 118q36 89 112.5 196.5t154 181.5t116.5 74
q19 0 19 -18q0 -46 -111 -176.5t-246 -244.5q-25 -62 -25 -97q0 -63 69 -63q25 0 61 19t44.5 27.5t11.5 8.5t3 -4q0 -21 -52.5 -46.5t-105.5 -25.5q-75 0 -75 70q0 29 12 65q-156 -119 -241 -119q-25 0 -41 16t-16 41.5t39.5 85.5t96 131t112.5 144q135 176 135 248
q0 54 -77 54q-60 0 -131.5 -36t-127 -85.5t-93 -103t-37.5 -88.5q0 -41 53 -41q42 0 86 27.5t73.5 63.5t48 64.5t21.5 37.5q3 12 20 12q5 0 9.5 -4t4.5 -9.5t-28.5 -52t-32 -56t-12.5 -9.5zM792 573q-28 0 -128 -123q-101 -125 -161 -241q114 102 203.5 211t89.5 146
q0 7 -4 7zM689 744q29 20 36.5 30t18 10t19.5 -9q3 -4 6.5 -27.5t17.5 -44.5q2 -4 2 -5q0 -5 -6 -5t-15 8.5t-18 27.5t-9 20q-24 -22 -111 -52q-6 0 -6 7.5t18 13.5t47 26z" />
    <glyph glyph-name="Udieresis" unicode="&#xdc;" horiz-adv-x="647" 
d="M288 441l-14 4q-2 0 -22 -16.5t-46 -35.5t-63 -35.5t-69 -16.5q-73 0 -73 53q0 40 43 100.5t107.5 115.5t149 94.5t157.5 39.5q98 0 98 -67q0 -52 -58.5 -147.5t-129.5 -182.5q-187 -231 -187 -284q0 -28 36 -28q74 0 221 118q36 89 112.5 196.5t154 181.5t116.5 74
q19 0 19 -18q0 -46 -111 -176.5t-246 -244.5q-25 -62 -25 -97q0 -63 69 -63q25 0 61 19t44.5 27.5t11.5 8.5t3 -4q0 -21 -52.5 -46.5t-105.5 -25.5q-75 0 -75 70q0 29 12 65q-156 -119 -241 -119q-25 0 -41 16t-16 41.5t39.5 85.5t96 131t112.5 144q135 176 135 248
q0 54 -77 54q-60 0 -131.5 -36t-127 -85.5t-93 -103t-37.5 -88.5q0 -41 53 -41q42 0 86 27.5t73.5 63.5t48 64.5t21.5 37.5q3 12 20 12q5 0 9.5 -4t4.5 -9.5t-28.5 -52t-32 -56t-12.5 -9.5zM792 573q-28 0 -128 -123q-101 -125 -161 -241q114 102 203.5 211t89.5 146
q0 7 -4 7zM695.5 769q5.5 -6 5.5 -17t-15 -28t-26 -17t-16 6.5t-5 15t16 27.5t25.5 19t15 -6zM784.5 769q5.5 -6 5.5 -17t-15 -28t-26 -17t-16 6.5t-5 15t16 27.5t25.5 19t15 -6z" />
    <glyph glyph-name="Yacute" unicode="&#xdd;" horiz-adv-x="709" 
d="M715 152q9 0 9 -12q0 -31 -176 -145.5t-292 -169.5l-24 -33q70 -27 70 -87.5t-60 -139.5t-130 -131.5t-109.5 -52.5t-39.5 37q0 59 209 363q-3 1 -10 1q-61 -9 -63 -9q-17 0 -17 10.5t27 13.5q36 8 97 34q62 89 163 224q-125 -83 -177 -83q-21 0 -31.5 11.5t-10.5 45
t40 95t97.5 128t115 135t97.5 136t40 113.5q0 59 -84 59q-69 0 -163.5 -48t-166.5 -124.5t-72 -145.5q0 -47 55 -47q40 0 84 22.5t77 53.5q69 64 87 99q9 16 19.5 16t10.5 -9q0 -20 -48 -69.5t-121 -94.5t-121 -45t-65 23t-17 55q0 56 72.5 135.5t181 139.5t198.5 60
q113 0 113 -99q0 -49 -38.5 -116t-94 -132t-111.5 -129q-132 -151 -132 -219q0 -22 28 -22q44 0 164 92q157 206 281.5 342.5t164.5 136.5q28 0 28 -21q0 -46 -116 -167.5t-263 -237.5q-112 -146 -203 -274q117 59 235.5 137t177.5 137q8 8 14 8zM214.5 -422
q49.5 71 49.5 121t-48 70q-209 -299 -209 -342q0 -17 13 -17q28 0 86.5 48.5t108 119.5zM824 540q-27 0 -275 -321q113 102 198 195.5t85 118.5q0 7 -8 7zM846 762q0 -17 -39.5 -38t-81.5 -36q-6 0 -6 7.5t17.5 13.5t43 25t34 30t20.5 11t12 -13z" />
    <glyph glyph-name="Thorn" unicode="&#xde;" horiz-adv-x="390" 
d="M0 -51q0 53 119.5 189t269.5 248q75 138 75 201q0 135 -229 135q-70 0 -124 -26q-33 -16 -33 -40t35.5 -49.5t78.5 -45.5t78.5 -52.5t35.5 -68.5q0 -20 -4 -30t-7 -10q-5 0 -7 14q0 56 -84 101q-36 19 -72 37q-84 45 -84 97q0 24 22 42.5t56 28.5q65 18 111 18t87 -7
t85.5 -23t73 -49.5t28.5 -80.5t-47 -139q170 111 284 111q46 0 46 -43q0 -54 -63.5 -149t-151.5 -171t-148 -76q-69 0 -74 71q0 16 10 16q7 0 13.5 -15t25 -32.5t38.5 -17.5q48 0 118.5 74.5t121 162.5t50.5 129q0 22 -18 22q-99 0 -275 -126q-58 -102 -140 -210.5
t-160.5 -183t-116.5 -74.5q-24 0 -24 22zM43 -45q40 0 136 117.5t179 259.5q-128 -104 -223.5 -214.5t-95.5 -157.5q0 -5 4 -5z" />
    <glyph glyph-name="germandbls" unicode="&#xdf;" horiz-adv-x="303" 
d="M-231 -409l2 -25q0 -11 -18 -11q-29 0 -29 23q0 60 469 706q86 119 182 210t147 91q25 0 25 -22q0 -48 -85 -146.5t-193 -193.5q-36 -33 -36 -139l1 -41q0 -6 5 -6q70 44 148 107l28 22q7 5 13 5t6 -7v-2q-77 -65 -162.5 -122t-108.5 -57t-38.5 8.5t-15.5 19.5t6 18.5
t11 7.5t16.5 -15.5t22.5 -15.5q16 0 26 31q15 47 15 109q0 36 45 81q5 5 11 10q96 81 171 175.5t75 128.5q0 12 -11 12q-33 0 -113 -84t-155 -191q-23 -33 -68 -95.5t-52.5 -74t-64 -91.5t-115.5 -164.5t-109.5 -165t-50.5 -96.5z" />
    <glyph glyph-name="agrave" unicode="&#xe0;" horiz-adv-x="300" 
d="M215 120q-6 0 -6 4.5t7 10.5q33 27 33 49q0 14 -25 16q-45 -1 -107.5 -65t-62.5 -96q0 -11 12.5 -11t33.5 17q19 12 71 60q12 12 23 12q14 0 14 -13q0 -5 -3 -8t-11 -12.5t-14 -17.5q-18 -26 -18 -34q0 -20 16 -20q21 0 79 38.5t106 77.5l48 38q7 5 13 5t6 -7v-2
q-77 -65 -162.5 -122t-112.5 -57q-32 0 -32 34q0 8 3 15t3 10t-2 4q-3 0 -38.5 -27t-62 -27t-26.5 28t37.5 75.5t100.5 86.5t123 39q14 0 23.5 -7t9.5 -21.5t-29 -43.5t-50 -29zM196 339q0 13 12 13t20.5 -11t34 -30t50.5 -28q10 -3 10 -10.5t-6 -7.5q-84 30 -111 57
q-10 10 -10 17z" />
    <glyph glyph-name="aacute" unicode="&#xe1;" horiz-adv-x="300" 
d="M215 120q-6 0 -6 4.5t7 10.5q33 27 33 49q0 14 -25 16q-45 -1 -107.5 -65t-62.5 -96q0 -11 12.5 -11t33.5 17q19 12 71 60q12 12 23 12q14 0 14 -13q0 -5 -3 -8t-11 -12.5t-14 -17.5q-18 -26 -18 -34q0 -20 16 -20q21 0 79 38.5t106 77.5l48 38q7 5 13 5t6 -7v-2
q-77 -65 -162.5 -122t-112.5 -57q-32 0 -32 34q0 8 3 15t3 10t-2 4q-3 0 -38.5 -27t-62 -27t-26.5 28t37.5 75.5t100.5 86.5t123 39q14 0 23.5 -7t9.5 -21.5t-29 -43.5t-50 -29zM392 316q0 -17 -39.5 -38t-81.5 -36q-6 0 -6 7.5t17.5 13.5t43 25t34 30t20.5 11t12 -13z" />
    <glyph glyph-name="acircumflex" unicode="&#xe2;" horiz-adv-x="300" 
d="M215 120q-6 0 -6 4.5t7 10.5q33 27 33 49q0 14 -25 16q-45 -1 -107.5 -65t-62.5 -96q0 -11 12.5 -11t33.5 17q19 12 71 60q12 12 23 12q14 0 14 -13q0 -5 -3 -8t-11 -12.5t-14 -17.5q-18 -26 -18 -34q0 -20 16 -20q21 0 79 38.5t106 77.5l48 38q7 5 13 5t6 -7v-2
q-77 -65 -162.5 -122t-112.5 -57q-32 0 -32 34q0 8 3 15t3 10t-2 4q-3 0 -38.5 -27t-62 -27t-26.5 28t37.5 75.5t100.5 86.5t123 39q14 0 23.5 -7t9.5 -21.5t-29 -43.5t-50 -29zM234 289q29 20 36.5 30t18 10t19.5 -9q3 -4 6.5 -27.5t17.5 -44.5q2 -4 2 -5q0 -5 -6 -5
t-15 8.5t-18 27.5t-9 20q-24 -22 -111 -52q-6 0 -6 7.5t18 13.5t47 26z" />
    <glyph glyph-name="atilde" unicode="&#xe3;" horiz-adv-x="300" 
d="M215 120q-6 0 -6 4.5t7 10.5q33 27 33 49q0 14 -25 16q-45 -1 -107.5 -65t-62.5 -96q0 -11 12.5 -11t33.5 17q19 12 71 60q12 12 23 12q14 0 14 -13q0 -5 -3 -8t-11 -12.5t-14 -17.5q-18 -26 -18 -34q0 -20 16 -20q21 0 79 38.5t106 77.5l48 38q7 5 13 5t6 -7v-2
q-77 -65 -162.5 -122t-112.5 -57q-32 0 -32 34q0 8 3 15t3 10t-2 4q-3 0 -38.5 -27t-62 -27t-26.5 28t37.5 75.5t100.5 86.5t123 39q14 0 23.5 -7t9.5 -21.5t-29 -43.5t-50 -29zM322 272l-94 -10q-22 0 -39 13.5t-24 37.5q0 5 4.5 5t7.5 -6q15 -24 49 -24l84 9
q25 0 44.5 -11t19.5 -34q0 -6 -4.5 -6t-7.5 6q-13 20 -40 20z" />
    <glyph glyph-name="adieresis" unicode="&#xe4;" horiz-adv-x="300" 
d="M215 120q-6 0 -6 4.5t7 10.5q33 27 33 49q0 14 -25 16q-45 -1 -107.5 -65t-62.5 -96q0 -11 12.5 -11t33.5 17q19 12 71 60q12 12 23 12q14 0 14 -13q0 -5 -3 -8t-11 -12.5t-14 -17.5q-18 -26 -18 -34q0 -20 16 -20q21 0 79 38.5t106 77.5l48 38q7 5 13 5t6 -7v-2
q-77 -65 -162.5 -122t-112.5 -57q-32 0 -32 34q0 8 3 15t3 10t-2 4q-3 0 -38.5 -27t-62 -27t-26.5 28t37.5 75.5t100.5 86.5t123 39q14 0 23.5 -7t9.5 -21.5t-29 -43.5t-50 -29zM255.5 309q5.5 -6 5.5 -17t-15 -28t-26 -17t-16 6.5t-5 15t16 27.5t25.5 19t15 -6zM344.5 309
q5.5 -6 5.5 -17t-15 -28t-26 -17t-16 6.5t-5 15t16 27.5t25.5 19t15 -6z" />
    <glyph glyph-name="aring" unicode="&#xe5;" horiz-adv-x="300" 
d="M215 120q-6 0 -6 4.5t7 10.5q33 27 33 49q0 14 -25 16q-45 -1 -107.5 -65t-62.5 -96q0 -11 12.5 -11t33.5 17q19 12 71 60q12 12 23 12q14 0 14 -13q0 -5 -3 -8t-11 -12.5t-14 -17.5q-18 -26 -18 -34q0 -20 16 -20q21 0 79 38.5t106 77.5l48 38q7 5 13 5t6 -7v-2
q-77 -65 -162.5 -122t-112.5 -57q-32 0 -32 34q0 8 3 15t3 10t-2 4q-3 0 -38.5 -27t-62 -27t-26.5 28t37.5 75.5t100.5 86.5t123 39q14 0 23.5 -7t9.5 -21.5t-29 -43.5t-50 -29zM278.5 302.5q18.5 21.5 46 21.5t27.5 -29q0 -15 -19.5 -35.5t-46 -20.5t-26.5 26
q0 16 18.5 37.5zM336 292q0 17 -17.5 17t-30 -14t-12.5 -23q0 -18 17.5 -18t30 13.5t12.5 24.5z" />
    <glyph glyph-name="ae" unicode="&#xe6;" horiz-adv-x="337" 
d="M448 166q7 5 13 5t6 -7v-2q-104 -86 -173 -129t-125 -43q-45 0 -45 43q0 8 1 12q-1 0 -36.5 -26.5t-62 -26.5t-26.5 28t37.5 75.5t100.5 86.5t123 39q19 0 28 -12q8 2 11 2q26 0 26 -18q-4 -52 -158 -144q0 -32 34.5 -32t74.5 23q72 43 146 105zM54 39q0 -11 12.5 -11
t29.5 13.5t25 20t13 10.5q15 32 47 65.5t66 54.5q-4 6 -23 8q-45 -1 -107.5 -65t-62.5 -96zM275 184q-23 0 -57 -36.5t-46 -73.5q49 29 81.5 59t32.5 44q0 7 -11 7z" />
    <glyph glyph-name="ccedilla" unicode="&#xe7;" horiz-adv-x="244" 
d="M34 -31q-8 3 -8 7t12.5 4t21 -12.5t8.5 -27t-3 -23.5t-12.5 -15t-12.5 -8t-20 -6l-16 -5q-4 -2 -13 -13l-3 -3q-3 0 -3 11.5t10.5 21t23.5 10.5q34 4 34 31q0 20 -19 28zM354 166q8 5 13.5 5t5.5 -7v-2q-79 -70 -163 -123t-140 -53q-44 0 -44 52.5t63.5 114.5t137.5 62
q22 -2 27.5 -7t5.5 -14t-18.5 -32.5t-33.5 -23.5q-17 3 -17 12q0 4 9 13q17 15 17 22t-11 7q-35 -1 -88 -57.5t-53 -93.5q0 -28 36.5 -28t78.5 26q74 45 149 107z" />
    <glyph glyph-name="egrave" unicode="&#xe8;" horiz-adv-x="262" 
d="M373 166q7 5 13 5t6 -7v-2q-104 -86 -173 -129t-125 -43q-45 0 -45 44q0 65 66 133.5t111 68.5q25 0 25 -28q-5 -55 -158 -148v-10q0 -33 34.5 -33t74.5 23q78 46 146 105zM200 205q-22 0 -56.5 -37t-46.5 -84q48 29 81 61.5t33 46t-11 13.5zM149 342q0 13 11.5 13
t20.5 -11t34.5 -30t50.5 -28q10 -3 10 -10.5t-6 -7.5q-84 30 -110 56q-11 11 -11 18z" />
    <glyph glyph-name="eacute" unicode="&#xe9;" horiz-adv-x="262" 
d="M373 166q7 5 13 5t6 -7v-2q-104 -86 -173 -129t-125 -43q-45 0 -45 44q0 65 66 133.5t111 68.5q25 0 25 -28q-5 -55 -158 -148v-10q0 -33 34.5 -33t74.5 23q78 46 146 105zM200 205q-22 0 -56.5 -37t-46.5 -84q48 29 81 61.5t33 46t-11 13.5zM345 330q0 -17 -39.5 -38
t-81.5 -36q-6 0 -6 7.5t17.5 13.5t43 25t34.5 30t20.5 11t11.5 -13z" />
    <glyph glyph-name="ecircumflex" unicode="&#xea;" horiz-adv-x="262" 
d="M373 166q7 5 13 5t6 -7v-2q-104 -86 -173 -129t-125 -43q-45 0 -45 44q0 65 66 133.5t111 68.5q25 0 25 -28q-5 -55 -158 -148v-10q0 -33 34.5 -33t74.5 23q78 46 146 105zM200 205q-22 0 -56.5 -37t-46.5 -84q48 29 81 61.5t33 46t-11 13.5zM201 299q29 20 36.5 30
t18 10t19.5 -9q3 -4 6.5 -27.5t17.5 -44.5q2 -4 2 -5q0 -5 -6 -5t-15 8.5t-18 27.5t-9 20q-24 -22 -111 -52q-6 0 -6 7.5t18 13.5t47 26z" />
    <glyph glyph-name="edieresis" unicode="&#xeb;" horiz-adv-x="262" 
d="M373 166q7 5 13 5t6 -7v-2q-104 -86 -173 -129t-125 -43q-45 0 -45 44q0 65 66 133.5t111 68.5q25 0 25 -28q-5 -55 -158 -148v-10q0 -33 34.5 -33t74.5 23q78 46 146 105zM200 205q-22 0 -56.5 -37t-46.5 -84q48 29 81 61.5t33 46t-11 13.5zM223.5 314q5.5 -6 5.5 -17
t-15 -28t-26 -17t-16 6.5t-5 15t16 27.5t25.5 19t15 -6zM312.5 314q5.5 -6 5.5 -17t-15 -28t-26 -17t-16 6.5t-5 15t16 27.5t25.5 19t15 -6z" />
    <glyph glyph-name="igrave" unicode="&#xec;" horiz-adv-x="188" 
d="M31 11q0 29 50 109.5t73 80.5q17 0 17 -13t-46 -71t-46 -83q0 -14 10.5 -14t52.5 28q75 50 138 101l22 18q8 5 12.5 5t4.5 -6v-3q4 0 -53.5 -44t-123 -88t-82.5 -44q-29 0 -29 24zM103 321q0 13 11.5 13t20.5 -11t34.5 -30t50.5 -28q10 -3 10 -10.5t-6 -7.5
q-84 30 -110 57q-11 10 -11 17z" />
    <glyph glyph-name="iacute" unicode="&#xed;" horiz-adv-x="188" 
d="M31 11q0 29 50 109.5t73 80.5q17 0 17 -13t-46 -71t-46 -83q0 -14 10.5 -14t52.5 28q75 50 138 101l22 18q8 5 12.5 5t4.5 -6v-3q4 0 -53.5 -44t-123 -88t-82.5 -44q-29 0 -29 24zM290 316q0 -17 -39.5 -38t-81.5 -36q-6 0 -6 7.5t17.5 13.5t43 25t34 30t20.5 11t12 -13z
" />
    <glyph glyph-name="icircumflex" unicode="&#xee;" horiz-adv-x="188" 
d="M31 11q0 29 50 109.5t73 80.5q17 0 17 -13t-46 -71t-46 -83q0 -14 10.5 -14t52.5 28q75 50 138 101l22 18q8 5 12.5 5t4.5 -6v-3q4 0 -53.5 -44t-123 -88t-82.5 -44q-29 0 -29 24zM161 289q29 20 36.5 30t18 10t19.5 -9q3 -4 6.5 -27.5t17.5 -44.5q2 -4 2 -5q0 -5 -6 -5
t-15 8.5t-18 27.5t-9 20q-24 -22 -111 -52q-6 0 -6 7.5t18 13.5t47 26z" />
    <glyph glyph-name="idieresis" unicode="&#xef;" horiz-adv-x="188" 
d="M31 11q0 29 50 109.5t73 80.5q17 0 17 -13t-46 -71t-46 -83q0 -14 10.5 -14t52.5 28q75 50 138 101l22 18q8 5 12.5 5t4.5 -6v-3q4 0 -53.5 -44t-123 -88t-82.5 -44q-29 0 -29 24zM178.5 296q5.5 -6 5.5 -17t-15 -28t-26 -17t-16 6.5t-5 15t16 27.5t25.5 19t15 -6z
M267.5 296q5.5 -6 5.5 -17t-15 -28t-26 -17t-16 6.5t-5 15t16 27.5t25.5 19t15 -6z" />
    <glyph glyph-name="eth" unicode="&#xf0;" horiz-adv-x="276" 
d="M343 326l67 5q11 0 11 -16q0 -13 -55 -13l-39 1q-9 -14 -36.5 -54.5t-43 -65t-22.5 -38t-16 -31.5q-16 -33 -16 -55t11 -22q13 0 46 23q68 49 119 90l19 16q7 5 13 5t6 -7v-2q-208 -168 -252 -168q-17 0 -17 20t15 67q0 1 -2 1q-115 -95 -153 -95q-26 0 -26 19
q0 42 90.5 123t144.5 81q8 0 15 -11l72 105h-24q-49 0 -61.5 1.5t-13.5 10.5q0 5 1.5 6t43.5 1t69 1q42 56 67 107q-85 19 -102 27t-26 14q-19 12 -19 31q0 47 40.5 76t82.5 29t65.5 -17.5t23.5 -54t-29 -94.5q22 -10 30 -19t9 -21v-5q0 -6 -2 -6q-3 0 -6 5q-7 16 -41 27
q-19 -38 -59 -97zM254 514q0 -21 30 -33q20 -8 54.5 -17t47.5 -13q22 52 22 85.5t-15.5 47.5t-45 14t-61.5 -25t-32 -59zM184 143l33 49q-2 1 -7 1q-42 0 -110 -64t-68 -90q0 -7 8 -7q25 0 76 42.5t68 68.5z" />
    <glyph glyph-name="ntilde" unicode="&#xf1;" horiz-adv-x="386" 
d="M518 163q-211 -176 -261 -176q-29 0 -29 24t21.5 57t43 58.5t21.5 30.5t-3 5q-93 -62 -110.5 -76t-57 -46t-51.5 -40t-26 -8t-14 12q0 14 56 88q54 74 54 83q0 2 -3.5 2t-86.5 -61l-4 15q71 57 96 73t40.5 16t15.5 -15q0 -10 -56.5 -81.5t-56.5 -77t3.5 -5.5t114 80.5
t134.5 80.5q7 0 13.5 -5.5t6.5 -10.5q0 -12 -53 -79.5t-53 -76.5t12.5 -9t53.5 27q75 49 138 101l22 18q7 5 13 5t6 -6v-3zM379 279l-94 -10q-22 0 -39 13.5t-24 37.5q0 5 4.5 5t7.5 -6q15 -24 49 -24l84 9q25 0 44.5 -11t19.5 -34q0 -6 -4.5 -6t-7.5 6q-13 20 -40 20z" />
    <glyph glyph-name="ograve" unicode="&#xf2;" horiz-adv-x="231" 
d="M189 86q56 0 134 63l17 -5q-98 -82 -169 -82q-8 0 -12 1q-27 -33 -59 -53.5t-56 -20.5q-38 0 -38 42.5t71 113.5q-12 29 -12 61t23 52t53.5 20t51.5 -20t21 -57q0 -57 -37 -114q4 -1 12 -1zM157 96q31 52 31 88.5t-18 54t-35 17.5q-35 0 -35 -36t16 -71.5t41 -52.5z
M47 37q0 -20 26 -20t66 53q-27 14 -48 49q-44 -48 -44 -82zM119 380q0 13 11.5 13t20.5 -11t34.5 -30t50.5 -28q10 -3 10 -10.5t-6 -7.5q-84 30 -110 56q-11 11 -11 18z" />
    <glyph glyph-name="oacute" unicode="&#xf3;" horiz-adv-x="231" 
d="M189 86q-8 0 -12 1q37 57 37 114q0 37 -21 57t-51.5 20t-53.5 -20t-23 -52t12 -61q-71 -71 -71 -113.5t38 -42.5q24 0 56 20.5t59 53.5q4 -1 12 -1q71 0 169 82l-17 5q-78 -63 -134 -63zM170 238.5q18 -17.5 18 -54t-31 -88.5q-25 17 -41 52.5t-16 61.5q0 46 32 46
q20 0 38 -17.5zM47 37q0 34 44 82q21 -35 48 -49q-40 -53 -66 -53t-26 20zM312 370q0 -17 -39.5 -38t-81.5 -36q-6 0 -6 7.5t17.5 13.5t43 25t34 30t20.5 11t12 -13z" />
    <glyph glyph-name="ocircumflex" unicode="&#xf4;" horiz-adv-x="231" 
d="M189 86q-8 0 -12 1q37 57 37 114q0 37 -21 57t-51.5 20t-53.5 -20t-23 -52t12 -61q-71 -71 -71 -113.5t38 -42.5q24 0 56 20.5t59 53.5q4 -1 12 -1q71 0 169 82l-17 5q-78 -63 -134 -63zM170 238.5q18 -17.5 18 -54t-31 -88.5q-25 17 -41 52.5t-16 61.5q0 46 32 46
q20 0 38 -17.5zM47 37q0 34 44 82q21 -35 48 -49q-40 -53 -66 -53t-26 20zM158 340q29 20 36.5 30t18 10t19.5 -9q3 -4 6.5 -27.5t17.5 -44.5q2 -4 2 -5q0 -5 -6 -5t-15 8.5t-18 27.5t-9 20q-24 -22 -111 -52q-6 0 -6 7.5t18 13.5t47 26z" />
    <glyph glyph-name="otilde" unicode="&#xf5;" horiz-adv-x="231" 
d="M189 86q-8 0 -12 1q37 57 37 114q0 37 -21 57t-51.5 20t-53.5 -20t-23 -52t12 -61q-71 -71 -71 -113.5t38 -42.5q24 0 56 20.5t59 53.5q4 -1 12 -1q71 0 169 82l-17 5q-78 -63 -134 -63zM170 238.5q18 -17.5 18 -54t-31 -88.5q-25 17 -41 52.5t-16 61.5q0 46 32 46
q20 0 38 -17.5zM47 37q0 34 44 82q21 -35 48 -49q-40 -53 -66 -53t-26 20zM246 326l-94 -10q-22 0 -39 13.5t-24 37.5q0 5 4.5 5t7.5 -6q15 -24 49 -24l84 9q25 0 44.5 -11t19.5 -34q0 -6 -4.5 -6t-7.5 6q-13 20 -40 20z" />
    <glyph glyph-name="odieresis" unicode="&#xf6;" horiz-adv-x="231" 
d="M189 86q-8 0 -12 1q37 57 37 114q0 37 -21 57t-51.5 20t-53.5 -20t-23 -52t12 -61q-71 -71 -71 -113.5t38 -42.5q24 0 56 20.5t59 53.5q4 -1 12 -1q71 0 169 82l-17 5q-78 -63 -134 -63zM170 238.5q18 -17.5 18 -54t-31 -88.5q-25 17 -41 52.5t-16 61.5q0 46 32 46
q20 0 38 -17.5zM47 37q0 34 44 82q21 -35 48 -49q-40 -53 -66 -53t-26 20zM168.5 366q5.5 -6 5.5 -17t-15 -28t-26 -17t-16 6.5t-5 15t16 27.5t25.5 19t15 -6zM257.5 366q5.5 -6 5.5 -17t-15 -28t-26 -17t-16 6.5t-5 15t16 27.5t25.5 19t15 -6z" />
    <glyph glyph-name="divide" unicode="&#xf7;" horiz-adv-x="356" 
d="M362 297q0 -5 -9 -5l-282 2q-15 0 -15 21q0 6 6 8t85.5 2t199.5 -6q15 -1 15 -22zM188.5 238q5.5 -6 5.5 -17t-15 -28t-26 -17t-16 6.5t-5 15t16 27.5t25.5 19t15 -6zM278.5 422q5.5 -6 5.5 -17t-15 -28t-26 -17t-16 6.5t-5 15t16 27.5t25.5 19t15 -6z" />
    <glyph glyph-name="oslash" unicode="&#xf8;" horiz-adv-x="231" 
d="M83 20q27 12 56 50q-17 8 -28 21q-17 -41 -28 -71zM47 37q0 -19 18 -20l35 88q-1 2 -9 14q-44 -48 -44 -82zM117 145l47 99q-15 12 -30.5 12t-24.5 -10t-9 -37.5t17 -63.5zM188 194q0 21 -14 40q-20 -41 -48 -106q15 -21 31 -32q31 52 31 98zM189 86q56 0 134 63l17 -5
q-98 -82 -169 -82q-8 0 -12 1q-40 -50 -85 -67q-14 -38 -24 -71q-3 -4 -6 -4q-8 0 -8 14q14 43 19 55l-11 -1q-38 0 -38 42.5t71 113.5q-12 29 -12 61t23 52t48.5 20t41.5 -9q16 32 42 71q5 5 7.5 5t2.5 -6t-13 -24.5t-29 -52.5q26 -21 26 -69.5t-37 -105.5q4 -1 12 -1z" />
    <glyph glyph-name="ugrave" unicode="&#xf9;" horiz-adv-x="289" 
d="M132 13l12 -73q0 15 14.5 39t15.5 28t-2 4t-8.5 -5.5t-61 -42t-76.5 -36.5q-14 0 -14 18t56 93t79 75q5 0 9.5 -4.5t4.5 -7.5t-51.5 -62t-51.5 -75q0 -4 4 -4q19 0 82 51t89.5 79t41.5 28t15 -13q0 -8 -6 -16t-22.5 -28.5t-30.5 -38.5q-39 -50 -39 -62.5t10.5 -12.5
t51.5 27q76 51 139 102l22 18l5 69q4 0 -53.5 -44t-123 -88t-82.5 -44q-29 0 -29 26zM151 235q0 13 11.5 13t20.5 -11t34.5 -30t50.5 -28q10 -3 10 -10.5t-6 -7.5q-84 30 -110 57q-11 10 -11 17z" />
    <glyph glyph-name="uacute" unicode="&#xfa;" horiz-adv-x="289" 
d="M132 13l12 -73q0 15 14.5 39t15.5 28t-2 4t-8.5 -5.5t-61 -42t-76.5 -36.5q-14 0 -14 18t56 93t79 75q5 0 9.5 -4.5t4.5 -7.5t-51.5 -62t-51.5 -75q0 -4 4 -4q19 0 82 51t89.5 79t41.5 28t15 -13q0 -8 -6 -16t-22.5 -28.5t-30.5 -38.5q-39 -50 -39 -62.5t10.5 -12.5
t51.5 27q76 51 139 102l22 18l5 69q4 0 -53.5 -44t-123 -88t-82.5 -44q-29 0 -29 26zM344 238q0 -17 -39.5 -38t-81.5 -36q-6 0 -6 7.5t17.5 13.5t43 25t34 30t20.5 11t12 -13z" />
    <glyph glyph-name="ucircumflex" unicode="&#xfb;" horiz-adv-x="289" 
d="M132 13l12 5q0 15 14.5 39t15.5 28t-2 4t-8.5 -5.5t-61 -42t-76.5 -36.5q-14 0 -14 18t56 93t79 75q5 0 9.5 -4.5t4.5 -7.5t-51.5 -62t-51.5 -75q0 -4 4 -4q19 0 82 51t89.5 79t41.5 28t15 -13q0 -8 -6 -16t-22.5 -28.5t-30.5 -38.5q-39 -50 -39 -62.5t10.5 -12.5
t51.5 27q76 51 139 102l22 18q5 0 5 -6v-3q4 0 -53.5 -44t-123 -88t-82.5 -44q-29 0 -29 26zM211 294q29 20 36.5 30t18 10t19.5 -9q3 -4 6.5 -27.5t17.5 -44.5q2 -4 2 -5q0 -5 -6 -5t-15 8.5t-18 27.5t-9 20q-24 -22 -111 -52q-6 0 -6 7.5t18 13.5t47 26z" />
    <glyph glyph-name="udieresis" unicode="&#xfc;" horiz-adv-x="289" 
d="M132 13l12 5q0 15 14.5 39t15.5 28t-2 4t-8.5 -5.5t-61 -42t-76.5 -36.5q-14 0 -14 18t56 93t79 75q5 0 9.5 -4.5t4.5 -7.5t-51.5 -62t-51.5 -75q0 -4 4 -4q19 0 82 51t89.5 79t41.5 28t15 -13q0 -8 -6 -16t-22.5 -28.5t-30.5 -38.5q-39 -50 -39 -62.5t10.5 -12.5
t51.5 27q76 51 139 102l22 18q5 0 5 -6v-3q4 0 -53.5 -44t-123 -88t-82.5 -44q-29 0 -29 26zM230.5 301q5.5 -6 5.5 -17t-15 -28t-26 -17t-16 6.5t-5 15t16 27.5t25.5 19t15 -6zM319.5 301q5.5 -6 5.5 -17t-15 -28t-26 -17t-16 6.5t-5 15t16 27.5t25.5 19t15 -6z" />
    <glyph glyph-name="yacute" unicode="&#xfd;" horiz-adv-x="336" 
d="M66 -114l13 17q16 19 20 25q-29 -13 -46 -17.5t-17 -6.5zM373 316q0 -17 -39.5 -38t-81.5 -36q-6 0 -6 7.5t17.5 13.5t43 25t34.5 30t20.5 11t11.5 -13zM71 -174q0 10 -3 21q-147 -184 -147 -220q0 -3 3 -3q17 0 52 33t65 82t30 87zM-9 -97q3 8 4.5 9t7.5 1.5t38 9
t76 27.5q128 163 135.5 177.5t7.5 17.5t-4 3t-9 -7q-2 -1 -26.5 -23.5t-48 -41.5t-54.5 -36.5t-53 -17.5t-22 16q1 37 50.5 102t66.5 65t17 -9q0 -5 -45.5 -62t-45.5 -71t9 -14q18 0 103.5 73t105.5 73q6 0 11.5 -6t5.5 -13q0 -22 -144 -197q135 75 251 170l22 18q8 5 13 5
t5 -5l-1 -4q5 0 -53 -44t-107 -78t-151 -86l-71 -87q14 -20 14 -47q0 -46 -39 -102.5t-87.5 -94t-79.5 -37.5q-9 0 -16.5 6.5t-7.5 18t11.5 34.5t34 53.5t42.5 55t51 61.5t46 55q-18 16 -40.5 20t-22.5 12z" />
    <glyph glyph-name="thorn" unicode="&#xfe;" horiz-adv-x="336" 
d="M468 163q-220 -176 -261 -176q-29 0 -29 23.5t55 88t55 82.5q-2 2 -4 2q-28 0 -90 -43q-402 -563 -457 -563q-11 0 -18.5 7.5t-7.5 22.5q0 69 136 231t279 273l88 128v1q0 3 -4 3q-20 -35 -108 -105l-29 -22l-4 15q132 107 234 231l118 154q14 19 31 19t17 -10
q0 -4 -1 -5.5t-27.5 -36.5t-55.5 -74t-36.5 -49t-30.5 -44q-74 -106 -102 -144q58 33 87.5 33t29.5 -12q0 -40 -80 -123q-27 -28 -27 -36.5t14.5 -8.5t51.5 25q73 49 135 99l22 18q7 5 13 5t6 -6v-3zM-250 -390q31 0 343 452q-132 -112 -240.5 -244.5t-108.5 -201.5
q0 -6 6 -6z" />
    <glyph glyph-name="ydieresis" unicode="&#xff;" horiz-adv-x="336" 
d="M66 -114l13 17q16 19 20 25q-29 -13 -46 -17.5t-17 -6.5zM354.5 296q5.5 -6 5.5 -17t-15 -28t-26 -17t-16 6.5t-5 15t16 27.5t25.5 19t15 -6zM265.5 296q5.5 -6 5.5 -17t-15 -28t-26 -17t-16 6.5t-5 15t16 27.5t25.5 19t15 -6zM71 -174q0 10 -3 21q-147 -184 -147 -220
q0 -3 3 -3q17 0 52 33t65 82t30 87zM-9 -97q3 8 4.5 9t7.5 1.5t38 9t76 27.5q128 163 135.5 177.5t7.5 17.5t-4 3t-9 -7q-2 -1 -26.5 -23.5t-48 -41.5t-54.5 -36.5t-53 -17.5t-22 16q1 37 50.5 102t66.5 65t17 -9q0 -5 -45.5 -62t-45.5 -71t9 -14q18 0 103.5 73t105.5 73
q6 0 11.5 -6t5.5 -13q0 -22 -144 -197q135 75 251 170l22 18q8 5 13 5t5 -5l-1 -4q5 0 -53 -44t-107 -78t-151 -86l-71 -87q14 -20 14 -47q0 -46 -39 -102.5t-87.5 -94t-79.5 -37.5q-9 0 -16.5 6.5t-7.5 18t11.5 34.5t34 53.5t42.5 55t51 61.5t46 55q-18 16 -40.5 20
t-22.5 12z" />
    <glyph glyph-name="Amacron" unicode="&#x100;" horiz-adv-x="639" 
d="M178 842h297v-71h-297v71zM133 274q0 -25 91 -48q52 -12 126 -20q-93 83 -184 83q-33 0 -33 -15zM529 7q21 0 104 165q-112 -2 -139.5 -2t-77.5 2q59 -71 96 -151q6 -14 17 -14zM842 684q-33 0 -88 -70.5t-145.5 -199.5t-168.5 -214q70 -2 122.5 -2t84.5 2
q71 140 138.5 296t67.5 179q0 9 -11 9zM701 202l208 15q8 0 8 -8t-13.5 -17t-52.5 -12t-165 -6q-102 -199 -144 -199q-28 0 -40 25q-44 89 -103 156l-29 -28q-148 -138 -345 -138q-50 0 -87.5 7.5t-37.5 20.5q0 9 11 9q7 0 17 -4q30 -12 113 -12q149 0 282 117q48 45 49 46
q-94 7 -158 25q-114 32 -114 76q0 15 16.5 25t43.5 10q119 0 226 -107q9 0 13 -1q89 96 217 272q45 61 90 118q94 118 154 118q39 0 39 -34q0 -23 -64.5 -179.5t-133.5 -294.5z" />
    <glyph glyph-name="amacron" unicode="&#x101;" horiz-adv-x="561" 
d="M143 677h297v-71h-297v71zM215 120q-6 0 -6 4.5t7 10.5q33 27 33 49q0 14 -25 16q-45 -1 -107.5 -65t-62.5 -96q0 -11 12.5 -11t33.5 17q19 12 71 60q12 12 23 12q14 0 14 -13q0 -5 -3 -8t-11 -12.5t-14 -17.5q-18 -26 -18 -34q0 -20 16 -20q21 0 79 38.5t106 77.5l48 38
q7 5 13 5t6 -7v-2q-77 -65 -162.5 -122t-112.5 -57q-32 0 -32 34q0 8 3 15t3 10t-2 4q-3 0 -38.5 -27t-62 -27t-26.5 28t37.5 75.5t100.5 86.5t123 39q14 0 23.5 -7t9.5 -21.5t-29 -43.5t-50 -29z" />
    <glyph glyph-name="Abreve" unicode="&#x102;" horiz-adv-x="639" 
d="M415 484q-23 -30 -55 -50.5t-58 -20.5q-49 0 -52 75q0 5 6 5t8 -2q9 -46 45 -46q31 0 100 44q6 0 6 -5zM133 274q0 -25 91 -48q52 -12 126 -20q-93 83 -184 83q-33 0 -33 -15zM529 7q21 0 104 165q-112 -2 -139.5 -2t-77.5 2q59 -71 96 -151q6 -14 17 -14zM842 684
q-33 0 -88 -70.5t-145.5 -199.5t-168.5 -214q70 -2 122.5 -2t84.5 2q71 140 138.5 296t67.5 179q0 9 -11 9zM701 202l208 15q8 0 8 -8t-13.5 -17t-52.5 -12t-165 -6q-102 -199 -144 -199q-28 0 -40 25q-44 89 -103 156l-29 -28q-148 -138 -345 -138q-50 0 -87.5 7.5
t-37.5 20.5q0 9 11 9q7 0 17 -4q30 -12 113 -12q149 0 282 117q48 45 49 46q-94 7 -158 25q-114 32 -114 76q0 15 16.5 25t43.5 10q119 0 226 -107q9 0 13 -1q89 96 217 272q45 61 90 118q94 118 154 118q39 0 39 -34q0 -23 -64.5 -179.5t-133.5 -294.5z" />
    <glyph glyph-name="abreve" unicode="&#x103;" horiz-adv-x="561" 
d="M380 319q-23 -30 -55 -50.5t-58 -20.5q-49 0 -52 75q0 5 6 5t8 -2q9 -46 45 -46q31 0 100 44q6 0 6 -5zM215 120q-6 0 -6 4.5t7 10.5q33 27 33 49q0 14 -25 16q-45 -1 -107.5 -65t-62.5 -96q0 -11 12.5 -11t33.5 17q19 12 71 60q12 12 23 12q14 0 14 -13q0 -5 -3 -8
t-11 -12.5t-14 -17.5q-18 -26 -18 -34q0 -20 16 -20q21 0 79 38.5t106 77.5l48 38q7 5 13 5t6 -7v-2q-77 -65 -162.5 -122t-112.5 -57q-32 0 -32 34q0 8 3 15t3 10t-2 4q-3 0 -38.5 -27t-62 -27t-26.5 28t37.5 75.5t100.5 86.5t123 39q14 0 23.5 -7t9.5 -21.5t-29 -43.5
t-50 -29z" />
    <glyph glyph-name="Aogonek" unicode="&#x104;" horiz-adv-x="639" 
d="M614 -70q-43 -23 -71 -23q-51 0 -51 29q0 31 59 68l8 -11q-34 -31 -34 -49q0 -16 26.5 -16t62.5 11q1 -2 1 -5t-1 -4zM133 274q0 -25 91 -48q52 -12 126 -20q-93 83 -184 83q-33 0 -33 -15zM529 7q21 0 104 165q-112 -2 -139.5 -2t-77.5 2q59 -71 96 -151q6 -14 17 -14z
M842 684q-33 0 -88 -70.5t-145.5 -199.5t-168.5 -214q70 -2 122.5 -2t84.5 2q71 140 138.5 296t67.5 179q0 9 -11 9zM701 202l208 15q8 0 8 -8t-13.5 -17t-52.5 -12t-165 -6q-102 -199 -144 -199q-28 0 -40 25q-44 89 -103 156l-29 -28q-148 -138 -345 -138q-50 0 -87.5 7.5
t-37.5 20.5q0 9 11 9q7 0 17 -4q30 -12 113 -12q149 0 282 117q48 45 49 46q-94 7 -158 25q-114 32 -114 76q0 15 16.5 25t43.5 10q119 0 226 -107q9 0 13 -1q89 96 217 272q45 61 90 118q94 118 154 118q39 0 39 -34q0 -23 -64.5 -179.5t-133.5 -294.5z" />
    <glyph glyph-name="aogonek" unicode="&#x105;" horiz-adv-x="561" 
d="M484 -70q-43 -23 -71 -23q-51 0 -51 29q0 31 59 68l8 -11q-34 -31 -34 -49q0 -16 26.5 -16t62.5 11q1 -2 1 -5t-1 -4zM215 120q-6 0 -6 4.5t7 10.5q33 27 33 49q0 14 -25 16q-45 -1 -107.5 -65t-62.5 -96q0 -11 12.5 -11t33.5 17q19 12 71 60q12 12 23 12q14 0 14 -13
q0 -5 -3 -8t-11 -12.5t-14 -17.5q-18 -26 -18 -34q0 -20 16 -20q21 0 79 38.5t106 77.5l48 38q7 5 13 5t6 -7v-2q-77 -65 -162.5 -122t-112.5 -57q-32 0 -32 34q0 8 3 15t3 10t-2 4q-3 0 -38.5 -27t-62 -27t-26.5 28t37.5 75.5t100.5 86.5t123 39q14 0 23.5 -7t9.5 -21.5
t-29 -43.5t-50 -29z" />
    <glyph glyph-name="Cacute" unicode="&#x106;" horiz-adv-x="631" 
d="M69 364q53 0 116 17q118 135 251.5 228.5t225.5 93.5q46 0 46 -23q0 -31 -70 -89t-182 -119t-220 -97q-81 -94 -131 -182t-50 -145q0 -80 102 -80q57 0 126 36t114 71q10 7 17.5 7t7.5 -8q0 -5 -4 -9q-47 -34 -83.5 -56t-95.5 -43.5t-113 -21.5q-126 0 -126 97
q0 117 162 313q-48 -12 -92 -15q-12 2 -12 13t11 12zM631 675q-59 0 -163.5 -78.5t-206.5 -192.5q93 33 187.5 86.5t151.5 101t57 69.5q0 14 -26 14zM362 481q0 -17 -39.5 -38t-81.5 -36q-6 0 -6 7.5t17.5 13.5t43 25t34.5 30t20.5 11t11.5 -13z" />
    <glyph glyph-name="cacute" unicode="&#x107;" horiz-adv-x="479" 
d="M354 166q8 5 13.5 5t5.5 -7v-2q-79 -70 -163 -123t-140 -53q-44 0 -44 52.5t63.5 114.5t137.5 62q22 -2 27.5 -7t5.5 -14t-18.5 -32.5t-33.5 -23.5q-17 3 -17 12q0 4 9 13q17 15 17 22t-11 7q-35 -1 -88 -57.5t-53 -93.5q0 -28 36.5 -28t78.5 26q74 45 149 107zM268 316
q0 -17 -39.5 -38t-81.5 -36q-6 0 -6 7.5t17.5 13.5t43 25t34.5 30t20.5 11t11.5 -13z" />
    <glyph glyph-name="Ccircumflex" unicode="&#x108;" horiz-adv-x="631" 
d="M264 454q29 20 36.5 30t18 10t19.5 -9q3 -4 6.5 -27.5t17.5 -44.5q2 -4 2 -5q0 -5 -6 -5t-15 8.5t-18 27.5t-9 20q-24 -22 -111 -52q-6 0 -6 7.5t18 13.5t47 26zM69 364q53 0 116 17q118 135 251.5 228.5t225.5 93.5q46 0 46 -23q0 -31 -70 -89t-182 -119t-220 -97
q-81 -94 -131 -182t-50 -145q0 -80 102 -80q57 0 126 36t114 71q10 7 17.5 7t7.5 -8q0 -5 -4 -9q-47 -34 -83.5 -56t-95.5 -43.5t-113 -21.5q-126 0 -126 97q0 117 162 313q-48 -12 -92 -15q-12 2 -12 13t11 12zM631 675q-59 0 -163.5 -78.5t-206.5 -192.5q93 33 187.5 86.5
t151.5 101t57 69.5q0 14 -26 14z" />
    <glyph glyph-name="ccircumflex" unicode="&#x109;" horiz-adv-x="479" 
d="M162 289q29 20 36.5 30t18 10t19.5 -9q3 -4 6.5 -27.5t17.5 -44.5q2 -4 2 -5q0 -5 -6 -5t-15 8.5t-18 27.5t-9 20q-24 -22 -111 -52q-6 0 -6 7.5t18 13.5t47 26zM354 166q8 5 13.5 5t5.5 -7v-2q-79 -70 -163 -123t-140 -53q-44 0 -44 52.5t63.5 114.5t137.5 62
q22 -2 27.5 -7t5.5 -14t-18.5 -32.5t-33.5 -23.5q-17 3 -17 12q0 4 9 13q17 15 17 22t-11 7q-35 -1 -88 -57.5t-53 -93.5q0 -28 36.5 -28t78.5 26q74 45 149 107z" />
    <glyph glyph-name="Cdotaccent" unicode="&#x10a;" horiz-adv-x="631" 
d="M573.5 484q5.5 -6 5.5 -17t-15 -28t-26 -17t-16 6.5t-5 15t16 27.5t25.5 19t15 -6zM69 364q53 0 116 17q118 135 251.5 228.5t225.5 93.5q46 0 46 -23q0 -31 -70 -89t-182 -119t-220 -97q-81 -94 -131 -182t-50 -145q0 -80 102 -80q57 0 126 36t114 71q10 7 17.5 7
t7.5 -8q0 -5 -4 -9q-47 -34 -83.5 -56t-95.5 -43.5t-113 -21.5q-126 0 -126 97q0 117 162 313q-48 -12 -92 -15q-12 2 -12 13t11 12zM631 675q-59 0 -163.5 -78.5t-206.5 -192.5q93 33 187.5 86.5t151.5 101t57 69.5q0 14 -26 14z" />
    <glyph glyph-name="cdotaccent" unicode="&#x10b;" horiz-adv-x="479" 
d="M477.5 319q5.5 -6 5.5 -17t-15 -28t-26 -17t-16 6.5t-5 15t16 27.5t25.5 19t15 -6zM354 166q8 5 13.5 5t5.5 -7v-2q-79 -70 -163 -123t-140 -53q-44 0 -44 52.5t63.5 114.5t137.5 62q22 -2 27.5 -7t5.5 -14t-18.5 -32.5t-33.5 -23.5q-17 3 -17 12q0 4 9 13q17 15 17 22
t-11 7q-35 -1 -88 -57.5t-53 -93.5q0 -28 36.5 -28t78.5 26q74 45 149 107z" />
    <glyph glyph-name="Ccaron" unicode="&#x10c;" horiz-adv-x="631" 
d="M300 442q-29 -20 -36.5 -30t-18 -10t-19.5 9q-3 4 -6.5 27.5t-17.5 44.5q-2 4 -2 5q0 5 6 5t15 -8.5t18 -27.5t9 -20q24 22 111 52q6 0 6 -7.5t-18 -13.5t-47 -26zM69 364q53 0 116 17q118 135 251.5 228.5t225.5 93.5q46 0 46 -23q0 -31 -70 -89t-182 -119t-220 -97
q-81 -94 -131 -182t-50 -145q0 -80 102 -80q57 0 126 36t114 71q10 7 17.5 7t7.5 -8q0 -5 -4 -9q-47 -34 -83.5 -56t-95.5 -43.5t-113 -21.5q-126 0 -126 97q0 117 162 313q-48 -12 -92 -15q-12 2 -12 13t11 12zM631 675q-59 0 -163.5 -78.5t-206.5 -192.5q93 33 187.5 86.5
t151.5 101t57 69.5q0 14 -26 14z" />
    <glyph glyph-name="ccaron" unicode="&#x10d;" horiz-adv-x="479" 
d="M202 277q-29 -20 -36.5 -30t-18 -10t-19.5 9q-3 4 -6.5 27.5t-17.5 44.5q-2 4 -2 5q0 5 6 5t15 -8.5t18 -27.5t9 -20q24 22 111 52q6 0 6 -7.5t-18 -13.5t-47 -26zM354 166q8 5 13.5 5t5.5 -7v-2q-79 -70 -163 -123t-140 -53q-44 0 -44 52.5t63.5 114.5t137.5 62
q22 -2 27.5 -7t5.5 -14t-18.5 -32.5t-33.5 -23.5q-17 3 -17 12q0 4 9 13q17 15 17 22t-11 7q-35 -1 -88 -57.5t-53 -93.5q0 -28 36.5 -28t78.5 26q74 45 149 107z" />
    <glyph glyph-name="Dcaron" unicode="&#x10e;" horiz-adv-x="729" 
d="M250 442q-29 -20 -36.5 -30t-18 -10t-19.5 9q-3 4 -6.5 27.5t-17.5 44.5q-2 4 -2 5q0 5 6 5t15 -8.5t18 -27.5t9 -20q24 22 111 52q6 0 6 -7.5t-18 -13.5t-47 -26zM518 16q27 0 77 47t109 124q-30 -5 -56 -5q-65 0 -96 30.5t-31 86t36.5 131.5t91 142t125.5 111.5
t133 45.5q68 0 68 -72t-57 -190t-142 -234q61 24 128 67t88.5 54t32.5 11t17.5 -5.5t6.5 -12.5q0 -14 -32.5 -20t-122.5 -58t-143 -69q-72 -95 -138.5 -154t-108.5 -59q-58 0 -58 83q0 23 5 66.5t5 56.5q0 78 -47 78q-17 0 -36 -6q-58 -86 -93 -134t-83 -105
q-92 -109 -167 -109q-30 0 -30 22q0 46 110 154.5t215 168.5q63 96 99 149.5t92 127.5t101 120q67 67 114 67q19 0 19 -11q0 -7 -6 -10q-14 -8 -22 -12q-80 -53 -172 -174q-59 -79 -159 -227q19 6 37.5 6t33 -8t20.5 -23q10 -25 10 -59l-13 -136q0 -56 39 -56zM698 215
q14 0 29 3q87 118 149.5 241t62.5 185.5t-52 62.5q-63 0 -138.5 -65t-126.5 -155.5t-51 -161.5q0 -110 127 -110zM61 -55q36 0 93 71.5t153 217.5q-88 -52 -176 -144.5t-88 -129.5q0 -15 18 -15z" />
    <glyph glyph-name="dcaron" unicode="&#x10f;" horiz-adv-x="615" 
d="M575 612q11 32 20.5 77.5t12.5 70.5h87v-9q-6 -26 -27 -71t-45 -80h-48v12zM184 143l32 49q-3 1 -6 1q-42 0 -110 -64t-68 -90q0 -7 8 -7q25 0 76 42.5t68 68.5zM407 162q-208 -168 -252 -168q-17 0 -17 20t15 67q0 1 -2 1q-115 -95 -153 -95q-26 0 -26 19q0 42 90.5 123
t144.5 81q7 0 15 -10q23 34 258 369q25 31 40.5 31t15.5 -10q0 -25 -172 -236q-64 -80 -117.5 -166.5t-53.5 -131.5q0 -19 11 -19q13 0 46 23q68 49 119 90l19 16q7 5 13 5t6 -7v-2z" />
    <glyph glyph-name="Dcroat" unicode="&#x110;" horiz-adv-x="729" 
d="M452 382q31 2 87 7q45 124 155.5 232t212.5 108q68 0 68 -72t-57 -190t-142 -234q61 24 128 67t88.5 54t32.5 11t17.5 -5.5t6.5 -12.5q0 -14 -32.5 -20t-122.5 -58t-143 -69q-72 -95 -138.5 -154t-108.5 -59q-58 0 -58 83q0 23 5 66.5t5 56.5q0 78 -47 78q-17 0 -36 -6
q-58 -86 -93 -134t-83 -105q-92 -109 -167 -109q-30 0 -30 22q0 46 110 154.5t215 168.5q41 64 57 87q-19 1 -79.5 1t-84 2.5t-24.5 15.5q0 6 3 7.5t67 1.5t139 3q125 187 214 279q67 67 114 67q19 0 19 -11q0 -7 -6 -10q-14 -8 -22 -12q-109 -74 -270 -311zM698 215
q14 0 29 3q87 118 149.5 241t62.5 185.5t-52 62.5q-81 0 -176.5 -102t-128.5 -212q5 1 13 1q21 0 21 -22q-1 -16 -44 -23q-1 -8 -1 -24q0 -110 127 -110zM518 16q27 0 77 47t109 124q-30 -5 -56 -5q-65 0 -96 30.5t-31 82.5q0 25 6 50h-28q-48 0 -72 1l-36 -54q19 6 37.5 6
t33 -8t20.5 -23q10 -25 10 -59l-13 -136q0 -56 39 -56zM61 -55q36 0 93 71.5t153 217.5q-88 -52 -176 -144.5t-88 -129.5q0 -15 18 -15z" />
    <glyph glyph-name="dcroat" unicode="&#x111;" horiz-adv-x="617" 
d="M275 -10q-104 0 -162 72t-58 203q0 132 57.5 205t162.5 73q109 0 167 -79h6q-1 7 -3.5 33.5t-2.5 46.5v61h-213v66h213v89h88v-89h76v-66h-76v-605h-72l-13 72h-4q-56 -82 -166 -82zM290 63q80 0 116.5 43t36.5 142v17q0 112 -37 158.5t-118 46.5q-68 0 -104.5 -52
t-36.5 -154q0 -96 35 -148.5t108 -52.5z" />
    <glyph glyph-name="Emacron" unicode="&#x112;" horiz-adv-x="556" 
d="M148 842h297v-71h-297v71zM171 443q0 -22 52.5 -22t168.5 16.5t150 16.5q53 0 53 -30q0 -48 -179 -127q-74 -33 -149 -69t-127 -81.5t-52 -91.5q0 -38 85 -38q47 0 142.5 14.5t164.5 14.5q123 0 123 -68q0 -8 -9 -8q-5 0 -22 9q-53 27 -116 27q-33 -2 -153 -15.5
t-152 -13.5q-120 0 -120 64q0 45 52.5 94t127.5 88.5t149.5 74.5t127 63t52.5 43q0 8 -18 8q-232 -31 -335 -31q-83 0 -83 37q0 42 101 111.5t248 123.5q-244 2 -413 21q-9 3 -9 12q0 13 22 13q6 0 79 -5q206 -16 280 -16t118 2q175 55 297 55q44 0 44 -17q0 -61 -361 -65
q-135 -47 -237 -111.5t-102 -98.5z" />
    <glyph glyph-name="emacron" unicode="&#x113;" horiz-adv-x="563" 
d="M150 677h297v-71h-297v71zM369 166q7 5 13 5t6 -7v-2q-104 -86 -173 -129t-125 -43q-45 0 -45 44q0 65 66 133.5t111 68.5q25 0 25 -28q-5 -55 -158 -148v-10q0 -33 34.5 -33t74.5 23q78 46 146 105zM196 205q-22 0 -56.5 -37t-46.5 -84q48 29 81 61.5t33 46t-11 13.5z
" />
    <glyph glyph-name="Ebreve" unicode="&#x114;" horiz-adv-x="556" 
d="M398 484q-23 -30 -55 -50.5t-58 -20.5q-49 0 -52 75q0 5 6 5t8 -2q9 -46 45 -46q31 0 100 44q6 0 6 -5zM171 443q0 -22 52.5 -22t168.5 16.5t150 16.5q53 0 53 -30q0 -48 -179 -127q-74 -33 -149 -69t-127 -81.5t-52 -91.5q0 -38 85 -38q47 0 142.5 14.5t164.5 14.5
q123 0 123 -68q0 -8 -9 -8q-5 0 -22 9q-53 27 -116 27q-33 -2 -153 -15.5t-152 -13.5q-120 0 -120 64q0 45 52.5 94t127.5 88.5t149.5 74.5t127 63t52.5 43q0 8 -18 8q-232 -31 -335 -31q-83 0 -83 37q0 42 101 111.5t248 123.5q-244 2 -413 21q-9 3 -9 12q0 13 22 13
q6 0 79 -5q206 -16 280 -16t118 2q175 55 297 55q44 0 44 -17q0 -61 -361 -65q-135 -47 -237 -111.5t-102 -98.5z" />
    <glyph glyph-name="ebreve" unicode="&#x115;" horiz-adv-x="563" 
d="M391 319q-23 -30 -55 -50.5t-58 -20.5q-49 0 -52 75q0 5 6 5t8 -2q9 -46 45 -46q31 0 100 44q6 0 6 -5zM369 166q7 5 13 5t6 -7v-2q-104 -86 -173 -129t-125 -43q-45 0 -45 44q0 65 66 133.5t111 68.5q25 0 25 -28q-5 -55 -158 -148v-10q0 -33 34.5 -33t74.5 23
q78 46 146 105zM196 205q-22 0 -56.5 -37t-46.5 -84q48 29 81 61.5t33 46t-11 13.5z" />
    <glyph glyph-name="Edotaccent" unicode="&#x116;" horiz-adv-x="556" 
d="M489.5 470q5.5 -6 5.5 -17t-15 -28t-26 -17t-16 6.5t-5 15t16 27.5t25.5 19t15 -6zM171 443q0 -22 52.5 -22t168.5 16.5t150 16.5q53 0 53 -30q0 -48 -179 -127q-74 -33 -149 -69t-127 -81.5t-52 -91.5q0 -38 85 -38q47 0 142.5 14.5t164.5 14.5q123 0 123 -68
q0 -8 -9 -8q-5 0 -22 9q-53 27 -116 27q-33 -2 -153 -15.5t-152 -13.5q-120 0 -120 64q0 45 52.5 94t127.5 88.5t149.5 74.5t127 63t52.5 43q0 8 -18 8q-232 -31 -335 -31q-83 0 -83 37q0 42 101 111.5t248 123.5q-244 2 -413 21q-9 3 -9 12q0 13 22 13q6 0 79 -5
q206 -16 280 -16t118 2q175 55 297 55q44 0 44 -17q0 -61 -361 -65q-135 -47 -237 -111.5t-102 -98.5z" />
    <glyph glyph-name="edotaccent" unicode="&#x117;" horiz-adv-x="563" 
d="M479.5 319q5.5 -6 5.5 -17t-15 -28t-26 -17t-16 6.5t-5 15t16 27.5t25.5 19t15 -6zM369 166q7 5 13 5t6 -7v-2q-104 -86 -173 -129t-125 -43q-45 0 -45 44q0 65 66 133.5t111 68.5q25 0 25 -28q-5 -55 -158 -148v-10q0 -33 34.5 -33t74.5 23q78 46 146 105zM196 205
q-22 0 -56.5 -37t-46.5 -84q48 29 81 61.5t33 46t-11 13.5z" />
    <glyph glyph-name="Eogonek" unicode="&#x118;" horiz-adv-x="556" 
d="M466 -70q-43 -23 -71 -23q-51 0 -51 29q0 31 59 68l8 -11q-34 -31 -34 -49q0 -16 26.5 -16t62.5 11q1 -2 1 -5t-1 -4zM171 443q0 -22 52.5 -22t168.5 16.5t150 16.5q53 0 53 -30q0 -48 -179 -127q-74 -33 -149 -69t-127 -81.5t-52 -91.5q0 -38 85 -38q47 0 142.5 14.5
t164.5 14.5q123 0 123 -68q0 -8 -9 -8q-5 0 -22 9q-53 27 -116 27q-33 -2 -153 -15.5t-152 -13.5q-120 0 -120 64q0 45 52.5 94t127.5 88.5t149.5 74.5t127 63t52.5 43q0 8 -18 8q-232 -31 -335 -31q-83 0 -83 37q0 42 101 111.5t248 123.5q-244 2 -413 21q-9 3 -9 12
q0 13 22 13q6 0 79 -5q206 -16 280 -16t118 2q175 55 297 55q44 0 44 -17q0 -61 -361 -65q-135 -47 -237 -111.5t-102 -98.5z" />
    <glyph glyph-name="eogonek" unicode="&#x119;" horiz-adv-x="563" 
d="M461 -56q-43 -23 -71 -23q-51 0 -51 29q0 31 59 68l8 -11q-34 -31 -34 -49q0 -16 26.5 -16t62.5 11q1 -2 1 -5t-1 -4zM369 166q7 5 13 5t6 -7v-2q-104 -86 -173 -129t-125 -43q-45 0 -45 44q0 65 66 133.5t111 68.5q25 0 25 -28q-5 -55 -158 -148v-10q0 -33 34.5 -33
t74.5 23q78 46 146 105zM196 205q-22 0 -56.5 -37t-46.5 -84q48 29 81 61.5t33 46t-11 13.5z" />
    <glyph glyph-name="Ecaron" unicode="&#x11a;" horiz-adv-x="556" 
d="M213 442q-29 -20 -36.5 -30t-18 -10t-19.5 9q-3 4 -6.5 27.5t-17.5 44.5q-2 4 -2 5q0 5 6 5t15 -8.5t18 -27.5t9 -20q24 22 111 52q6 0 6 -7.5t-18 -13.5t-47 -26zM171 443q0 -22 52.5 -22t168.5 16.5t150 16.5q53 0 53 -30q0 -48 -179 -127q-74 -33 -149 -69t-127 -81.5
t-52 -91.5q0 -38 85 -38q47 0 142.5 14.5t164.5 14.5q123 0 123 -68q0 -8 -9 -8q-5 0 -22 9q-53 27 -116 27q-33 -2 -153 -15.5t-152 -13.5q-120 0 -120 64q0 45 52.5 94t127.5 88.5t149.5 74.5t127 63t52.5 43q0 8 -18 8q-232 -31 -335 -31q-83 0 -83 37q0 42 101 111.5
t248 123.5q-244 2 -413 21q-9 3 -9 12q0 13 22 13q6 0 79 -5q206 -16 280 -16t118 2q175 55 297 55q44 0 44 -17q0 -61 -361 -65q-135 -47 -237 -111.5t-102 -98.5z" />
    <glyph glyph-name="ecaron" unicode="&#x11b;" horiz-adv-x="563" 
d="M206 277q-29 -20 -36.5 -30t-18 -10t-19.5 9q-3 4 -6.5 27.5t-17.5 44.5q-2 4 -2 5q0 5 6 5t15 -8.5t18 -27.5t9 -20q24 22 111 52q6 0 6 -7.5t-18 -13.5t-47 -26zM369 166q7 5 13 5t6 -7v-2q-104 -86 -173 -129t-125 -43q-45 0 -45 44q0 65 66 133.5t111 68.5
q25 0 25 -28q-5 -55 -158 -148v-10q0 -33 34.5 -33t74.5 23q78 46 146 105zM196 205q-22 0 -56.5 -37t-46.5 -84q48 29 81 61.5t33 46t-11 13.5z" />
    <glyph glyph-name="Gcircumflex" unicode="&#x11c;" horiz-adv-x="728" 
d="M292 454q29 20 36.5 30t18 10t19.5 -9q3 -4 6.5 -27.5t17.5 -44.5q2 -4 2 -5q0 -5 -6 -5t-15 8.5t-18 27.5t-9 20q-24 -22 -111 -52q-6 0 -6 7.5t18 13.5t47 26zM64 85q33 -26 97 -26q27 0 64 5q35 41 141 192.5t162 205.5q4 3 4 8.5t-3 5.5l-67 -40q-66 -40 -162 -80
t-169 -40q-110 0 -110 69q0 40 38 97q-59 3 -59 27q0 5 4.5 10t7.5 5t21.5 -6.5t46.5 -7.5q68 86 173 154t184 68q45 0 45 -23q0 -29 -62 -79t-154.5 -93.5t-166.5 -52.5q-22 -38 -22 -67q0 -63 108 -63q61 0 171 48.5t222 134.5q155 121 176 144q6 9 12.5 9t11.5 -5t5 -11
t-7 -10q-81 -65 -161 -151.5t-128.5 -151t-115 -157.5t-93.5 -129q65 17 124 42.5t71 39.5q10 0 10 -11q0 -15 -72.5 -46.5t-154.5 -52.5q-98 -121 -173 -121q-30 0 -44.5 31.5t-14.5 68t6.5 59t15 22.5t11.5 -3t4.5 -9.5t2.5 -9.5zM387 697q-52 0 -134.5 -57.5
t-133.5 -126.5q90 14 194.5 75.5t104.5 93.5q0 15 -31 15zM102 -25q39 0 96 59q-38 -6 -80 -6t-62 20q-8 -1 -8 -16.5t2.5 -26t15 -20.5t36.5 -10z" />
    <glyph glyph-name="gcircumflex" unicode="&#x11d;" horiz-adv-x="615" 
d="M176 289q29 20 36.5 30t18 10t19.5 -9q3 -4 6.5 -27.5t17.5 -44.5q2 -4 2 -5q0 -5 -6 -5t-15 8.5t-18 27.5t-9 20q-24 -22 -111 -52q-6 0 -6 7.5t18 13.5t47 26zM409 166q7 5 13 5t6 -7v-2q-97 -80 -152 -116l-200 -130l-62 -87q-144 -197 -144 -212q-16 -35 -31 -35
q-19 0 -19 25t24.5 67t48.5 68l95 100q12 19 49 70t49 68l43 64l2 4q0 2 -2 2q-59 -49 -98 -49t-39 22.5t30 59.5t72.5 72t94 60.5t91 25.5t39.5 -28q0 -20 -37.5 -48t-46 -28t-8.5 4q0 6 8 11q34 24 34 45.5t-18 21.5q-44 0 -122.5 -74.5t-78.5 -105.5q0 -9 14.5 -9
t49.5 23.5t53 45.5l27 34q5 7 13 7t14 -5t6 -10l-121 -168l148 93q66 40 132 96z" />
    <glyph glyph-name="Gbreve" unicode="&#x11e;" horiz-adv-x="728" 
d="M513 484q-23 -30 -55 -50.5t-58 -20.5q-49 0 -52 75q0 5 6 5t8 -2q9 -46 45 -46q31 0 100 44q6 0 6 -5zM64 85q33 -26 97 -26q27 0 64 5q35 41 141 192.5t162 205.5q4 3 4 8.5t-3 5.5l-67 -40q-66 -40 -162 -80t-169 -40q-110 0 -110 69q0 40 38 97q-59 3 -59 27
q0 5 4.5 10t7.5 5t21.5 -6.5t46.5 -7.5q68 86 173 154t184 68q45 0 45 -23q0 -29 -62 -79t-154.5 -93.5t-166.5 -52.5q-22 -38 -22 -67q0 -63 108 -63q61 0 171 48.5t222 134.5q155 121 176 144q6 9 12.5 9t11.5 -5t5 -11t-7 -10q-81 -65 -161 -151.5t-128.5 -151
t-115 -157.5t-93.5 -129q65 17 124 42.5t71 39.5q10 0 10 -11q0 -15 -72.5 -46.5t-154.5 -52.5q-98 -121 -173 -121q-30 0 -44.5 31.5t-14.5 68t6.5 59t15 22.5t11.5 -3t4.5 -9.5t2.5 -9.5zM387 697q-52 0 -134.5 -57.5t-133.5 -126.5q90 14 194.5 75.5t104.5 93.5
q0 15 -31 15zM102 -25q39 0 96 59q-38 -6 -80 -6t-62 20q-8 -1 -8 -16.5t2.5 -26t15 -20.5t36.5 -10z" />
    <glyph glyph-name="gbreve" unicode="&#x11f;" horiz-adv-x="615" 
d="M399 319q-23 -30 -55 -50.5t-58 -20.5q-49 0 -52 75q0 5 6 5t8 -2q9 -46 45 -46q31 0 100 44q6 0 6 -5zM409 166q7 5 13 5t6 -7v-2q-97 -80 -152 -116l-200 -130l-62 -87q-144 -197 -144 -212q-16 -35 -31 -35q-19 0 -19 25t24.5 67t48.5 68l95 100q12 19 49 70t49 68
l43 64l2 4q0 2 -2 2q-59 -49 -98 -49t-39 22.5t30 59.5t72.5 72t94 60.5t91 25.5t39.5 -28q0 -20 -37.5 -48t-46 -28t-8.5 4q0 6 8 11q34 24 34 45.5t-18 21.5q-44 0 -122.5 -74.5t-78.5 -105.5q0 -9 14.5 -9t49.5 23.5t53 45.5l27 34q5 7 13 7t14 -5t6 -10l-121 -168
l148 93q66 40 132 96z" />
    <glyph glyph-name="Gdotaccent" unicode="&#x120;" horiz-adv-x="728" 
d="M607.5 484q5.5 -6 5.5 -17t-15 -28t-26 -17t-16 6.5t-5 15t16 27.5t25.5 19t15 -6zM64 85q33 -26 97 -26q27 0 64 5q35 41 141 192.5t162 205.5q4 3 4 8.5t-3 5.5l-67 -40q-66 -40 -162 -80t-169 -40q-110 0 -110 69q0 40 38 97q-59 3 -59 27q0 5 4.5 10t7.5 5t21.5 -6.5
t46.5 -7.5q68 86 173 154t184 68q45 0 45 -23q0 -29 -62 -79t-154.5 -93.5t-166.5 -52.5q-22 -38 -22 -67q0 -63 108 -63q61 0 171 48.5t222 134.5q155 121 176 144q6 9 12.5 9t11.5 -5t5 -11t-7 -10q-81 -65 -161 -151.5t-128.5 -151t-115 -157.5t-93.5 -129
q65 17 124 42.5t71 39.5q10 0 10 -11q0 -15 -72.5 -46.5t-154.5 -52.5q-98 -121 -173 -121q-30 0 -44.5 31.5t-14.5 68t6.5 59t15 22.5t11.5 -3t4.5 -9.5t2.5 -9.5zM387 697q-52 0 -134.5 -57.5t-133.5 -126.5q90 14 194.5 75.5t104.5 93.5q0 15 -31 15zM102 -25q39 0 96 59
q-38 -6 -80 -6t-62 20q-8 -1 -8 -16.5t2.5 -26t15 -20.5t36.5 -10z" />
    <glyph glyph-name="gdotaccent" unicode="&#x121;" horiz-adv-x="615" 
d="M483.5 319q5.5 -6 5.5 -17t-15 -28t-26 -17t-16 6.5t-5 15t16 27.5t25.5 19t15 -6zM409 166q7 5 13 5t6 -7v-2q-97 -80 -152 -116l-200 -130l-62 -87q-144 -197 -144 -212q-16 -35 -31 -35q-19 0 -19 25t24.5 67t48.5 68l95 100q12 19 49 70t49 68l43 64l2 4q0 2 -2 2
q-59 -49 -98 -49t-39 22.5t30 59.5t72.5 72t94 60.5t91 25.5t39.5 -28q0 -20 -37.5 -48t-46 -28t-8.5 4q0 6 8 11q34 24 34 45.5t-18 21.5q-44 0 -122.5 -74.5t-78.5 -105.5q0 -9 14.5 -9t49.5 23.5t53 45.5l27 34q5 7 13 7t14 -5t6 -10l-121 -168l148 93q66 40 132 96z" />
    <glyph glyph-name="uni0122" unicode="&#x122;" horiz-adv-x="728" 
d="M322 -209q11 25 24 70.5t17 77.5h87v-9q-8 -31 -31.5 -76.5t-48.5 -74.5h-48v12zM64 85q33 -26 97 -26q27 0 64 5q35 41 141 192.5t162 205.5q4 3 4 8.5t-3 5.5l-67 -40q-66 -40 -162 -80t-169 -40q-110 0 -110 69q0 40 38 97q-59 3 -59 27q0 5 4.5 10t7.5 5t21.5 -6.5
t46.5 -7.5q68 86 173 154t184 68q45 0 45 -23q0 -29 -62 -79t-154.5 -93.5t-166.5 -52.5q-22 -38 -22 -67q0 -63 108 -63q61 0 171 48.5t222 134.5q155 121 176 144q6 9 12.5 9t11.5 -5t5 -11t-7 -10q-81 -65 -161 -151.5t-128.5 -151t-115 -157.5t-93.5 -129
q65 17 124 42.5t71 39.5q10 0 10 -11q0 -15 -72.5 -46.5t-154.5 -52.5q-98 -121 -173 -121q-30 0 -44.5 31.5t-14.5 68t6.5 59t15 22.5t11.5 -3t4.5 -9.5t2.5 -9.5zM387 697q-52 0 -134.5 -57.5t-133.5 -126.5q90 14 194.5 75.5t104.5 93.5q0 15 -31 15zM102 -25q39 0 96 59
q-38 -6 -80 -6t-62 20q-8 -1 -8 -16.5t2.5 -26t15 -20.5t36.5 -10z" />
    <glyph glyph-name="uni0123" unicode="&#x123;" horiz-adv-x="615" 
d="M379 754q-13 -29 -26 -74.5t-16 -73.5h-87v9q7 27 31.5 74t48.5 77h49v-12zM409 166q7 5 13 5t6 -7v-2q-97 -80 -152 -116l-200 -130l-62 -87q-144 -197 -144 -212q-16 -35 -31 -35q-19 0 -19 25t24.5 67t48.5 68l95 100q12 19 49 70t49 68l43 64l2 4q0 2 -2 2
q-59 -49 -98 -49t-39 22.5t30 59.5t72.5 72t94 60.5t91 25.5t39.5 -28q0 -20 -37.5 -48t-46 -28t-8.5 4q0 6 8 11q34 24 34 45.5t-18 21.5q-44 0 -122.5 -74.5t-78.5 -105.5q0 -9 14.5 -9t49.5 23.5t53 45.5l27 34q5 7 13 7t14 -5t6 -10l-121 -168l148 93q66 40 132 96z" />
    <glyph glyph-name="Hcircumflex" unicode="&#x124;" horiz-adv-x="741" 
d="M244 454q29 20 36.5 30t18 10t19.5 -9q3 -4 6.5 -27.5t17.5 -44.5q2 -4 2 -5q0 -5 -6 -5t-15 8.5t-18 27.5t-9 20q-24 -22 -111 -52q-6 0 -6 7.5t18 13.5t47 26zM1015 732q0 -44 -83 -115t-236 -173q-93 -125 -157.5 -239t-64.5 -158t25 -44q18 0 49.5 19t53.5 38l22 19
q6 7 11 7t5 -4q0 -26 -64 -64t-96 -38q-61 0 -61 47.5t48 142.5t124 204q-165 -107 -247 -162q-106 -145 -211 -251.5t-147 -106.5q-23 0 -23 17q0 56 85.5 137t237.5 187q94 134 157.5 254.5t63.5 175.5q0 63 -63 77q-49 12 -102.5 12t-85 -3t-69.5 -11.5t-61.5 -27.5
t-23.5 -46q0 -31 54.5 -49t122 -36t86.5 -44q8 -9 11 -33q0 -7 -4.5 -7t-8.5 7q-9 21 -57.5 37.5t-101 26t-95 31t-42.5 53.5t21 55.5t49.5 35.5t72.5 19q66 9 154.5 9t138 -29t49.5 -81q0 -111 -178 -366q48 32 136 89.5t113 74.5q103 140 206.5 235t167.5 95q18 0 18 -17z
M-2 -123q28 0 100.5 78.5t157.5 196.5q-265 -186 -265 -266q0 -9 7 -9zM973 726q-28 0 -94 -65.5t-146 -168.5q246 168 246 228q0 6 -6 6z" />
    <glyph glyph-name="hcircumflex" unicode="&#x125;" horiz-adv-x="618" 
d="M187 481q29 20 36.5 30t18 10t19.5 -9q3 -4 6.5 -27.5t17.5 -44.5q2 -4 2 -5q0 -5 -6 -5t-15 8.5t-18 27.5t-9 20q-24 -22 -111 -52q-6 0 -6 7.5t18 13.5t47 26zM436 167q7 5 13 5t6 -6v-3q-79 -66 -155 -118q-76 -58 -105.5 -58t-29.5 24q0 26 38 88t38 66.5t-4 4.5
q-13 0 -79.5 -57.5t-116.5 -106.5q-19 -17 -26.5 -17t-7.5 11t13 28l349 532q11 17 29.5 17t18.5 -12q0 -7 -5.5 -15t-67.5 -95.5t-71.5 -103.5t-87 -132t-82 -122.5t-4.5 -10.5t3.5 -4t4.5 1q32 32 87.5 74.5t76.5 42.5q8 0 14 -5.5t6 -18t-39 -68t-39 -72t10.5 -16.5
t52.5 28q75 50 138 101z" />
    <glyph glyph-name="Hbar" unicode="&#x126;" horiz-adv-x="741" 
d="M97 595v119h90v-119h366v119h90v-119h97v-72h-97v-523h-90v333h-366v-333h-90v523h-97v72h97zM553 412v111h-366v-111h366z" />
    <glyph glyph-name="hbar" unicode="&#x127;" horiz-adv-x="618" 
d="M450 0v323q0 65 -29 97t-91 32q-83 0 -120 -45t-37 -149v-258h-88v604h-76v66h76v90h88v-90h212v-66h-212v-87q0 -43 -5 -74h6q26 42 70.5 62.5t97.5 20.5q97 0 146 -47t49 -150v-329h-87z" />
    <glyph glyph-name="Itilde" unicode="&#x128;" horiz-adv-x="338" 
d="M115 444l-94 -10q-22 0 -39 13.5t-24 37.5q0 5 4.5 5t7.5 -6q15 -24 49 -24l84 9q25 0 44.5 -11t19.5 -34q0 -6 -4.5 -6t-7.5 6q-13 20 -40 20zM577 647q-52 -51 -224 -308q141 26 174.5 26t69.5 -13t36 -29q0 -6 -5.5 -10t-11 -4t-51.5 14t-88.5 14t-136.5 -17
q-183 -268 -242 -321q-30 -27 -49 -27q-17 0 -17 24q0 13 7 32t19 19q4 0 5 -8.5t3 -8.5q20 0 74.5 71.5t149.5 209.5q-115 -22 -175 -22q-115 0 -115 60.5t102 154t248 165t255 71.5q77 0 77 -42q0 -32 -39 -71t-62 -39q-6 0 -6 7.5t4 10.5q21 10 39.5 32t18.5 41
q0 36 -75 36t-198 -63t-214 -146t-91 -136.5t105 -53.5q40 0 140 16q107 153 155 216q88 114 121 114q5 0 5 -3z" />
    <glyph glyph-name="itilde" unicode="&#x129;" horiz-adv-x="257" 
d="M75 279l-94 -10q-22 0 -39 13.5t-24 37.5q0 5 4.5 5t7.5 -6q15 -24 49 -24l84 9q25 0 44.5 -11t19.5 -34q0 -6 -4.5 -6t-7.5 6q-13 20 -40 20zM31 11q0 29 50 109.5t73 80.5q17 0 17 -13t-46 -71t-46 -83q0 -14 10.5 -14t52.5 28q75 50 138 101l22 18q8 5 12.5 5t4.5 -6
v-3q4 0 -53.5 -44t-123 -88t-82.5 -44q-29 0 -29 24z" />
    <glyph glyph-name="Imacron" unicode="&#x12a;" horiz-adv-x="338" 
d="M21 842h297v-71h-297v71zM577 647q-52 -51 -224 -308q141 26 174.5 26t69.5 -13t36 -29q0 -6 -5.5 -10t-11 -4t-51.5 14t-88.5 14t-136.5 -17q-183 -268 -242 -321q-30 -27 -49 -27q-17 0 -17 24q0 13 7 32t19 19q4 0 5 -8.5t3 -8.5q20 0 74.5 71.5t149.5 209.5
q-115 -22 -175 -22q-115 0 -115 60.5t102 154t248 165t255 71.5q77 0 77 -42q0 -32 -39 -71t-62 -39q-6 0 -6 7.5t4 10.5q21 10 39.5 32t18.5 41q0 36 -75 36t-198 -63t-214 -146t-91 -136.5t105 -53.5q40 0 140 16q107 153 155 216q88 114 121 114q5 0 5 -3z" />
    <glyph glyph-name="imacron" unicode="&#x12b;" horiz-adv-x="257" 
d="M-18 677h297v-71h-297v71zM31 11q0 29 50 109.5t73 80.5q17 0 17 -13t-46 -71t-46 -83q0 -14 10.5 -14t52.5 28q75 50 138 101l22 18q8 5 12.5 5t4.5 -6v-3q4 0 -53.5 -44t-123 -88t-82.5 -44q-29 0 -29 24z" />
    <glyph glyph-name="Ibreve" unicode="&#x12c;" horiz-adv-x="338" 
d="M267 484q-23 -30 -55 -50.5t-58 -20.5q-49 0 -52 75q0 5 6 5t8 -2q9 -46 45 -46q31 0 100 44q6 0 6 -5zM577 647q-52 -51 -224 -308q141 26 174.5 26t69.5 -13t36 -29q0 -6 -5.5 -10t-11 -4t-51.5 14t-88.5 14t-136.5 -17q-183 -268 -242 -321q-30 -27 -49 -27
q-17 0 -17 24q0 13 7 32t19 19q4 0 5 -8.5t3 -8.5q20 0 74.5 71.5t149.5 209.5q-115 -22 -175 -22q-115 0 -115 60.5t102 154t248 165t255 71.5q77 0 77 -42q0 -32 -39 -71t-62 -39q-6 0 -6 7.5t4 10.5q21 10 39.5 32t18.5 41q0 36 -75 36t-198 -63t-214 -146t-91 -136.5
t105 -53.5q40 0 140 16q107 153 155 216q88 114 121 114q5 0 5 -3z" />
    <glyph glyph-name="ibreve" unicode="&#x12d;" horiz-adv-x="257" 
d="M225 319q-23 -30 -55 -50.5t-58 -20.5q-49 0 -52 75q0 5 6 5t8 -2q9 -46 45 -46q31 0 100 44q6 0 6 -5zM31 11q0 29 50 109.5t73 80.5q17 0 17 -13t-46 -71t-46 -83q0 -14 10.5 -14t52.5 28q75 50 138 101l22 18q8 5 12.5 5t4.5 -6v-3q4 0 -53.5 -44t-123 -88t-82.5 -44
q-29 0 -29 24z" />
    <glyph glyph-name="Iogonek" unicode="&#x12e;" horiz-adv-x="338" 
d="M234 -70q-43 -23 -71 -23q-51 0 -51 29q0 31 59 68l8 -11q-34 -31 -34 -49q0 -16 26.5 -16t62.5 11q1 -2 1 -5t-1 -4zM577 647q-52 -51 -224 -308q141 26 174.5 26t69.5 -13t36 -29q0 -6 -5.5 -10t-11 -4t-51.5 14t-88.5 14t-136.5 -17q-183 -268 -242 -321
q-30 -27 -49 -27q-17 0 -17 24q0 13 7 32t19 19q4 0 5 -8.5t3 -8.5q20 0 74.5 71.5t149.5 209.5q-115 -22 -175 -22q-115 0 -115 60.5t102 154t248 165t255 71.5q77 0 77 -42q0 -32 -39 -71t-62 -39q-6 0 -6 7.5t4 10.5q21 10 39.5 32t18.5 41q0 36 -75 36t-198 -63
t-214 -146t-91 -136.5t105 -53.5q40 0 140 16q107 153 155 216q88 114 121 114q5 0 5 -3z" />
    <glyph glyph-name="iogonek" unicode="&#x12f;" horiz-adv-x="257" 
d="M171 -70q-43 -23 -71 -23q-51 0 -51 29q0 31 59 68l8 -11q-34 -31 -34 -49q0 -16 26.5 -16t62.5 11q1 -2 1 -5t-1 -4zM234.5 296q5.5 -6 5.5 -17t-15 -28t-26 -17t-16 6.5t-5 15t16 27.5t25.5 19t15 -6zM302 167q8 5 12.5 5t4.5 -6v-3q4 0 -53.5 -44t-123 -88t-82.5 -44
q-29 0 -29 24q0 29 50 109.5t73 80.5q17 0 17 -13t-46 -71t-46 -83q0 -14 10.5 -14t52.5 28q75 50 138 101z" />
    <glyph glyph-name="Idotaccent" unicode="&#x130;" horiz-adv-x="338" 
d="M353.5 484q5.5 -6 5.5 -17t-15 -28t-26 -17t-16 6.5t-5 15t16 27.5t25.5 19t15 -6zM577 647q-52 -51 -224 -308q141 26 174.5 26t69.5 -13t36 -29q0 -6 -5.5 -10t-11 -4t-51.5 14t-88.5 14t-136.5 -17q-183 -268 -242 -321q-30 -27 -49 -27q-17 0 -17 24q0 13 7 32t19 19
q4 0 5 -8.5t3 -8.5q20 0 74.5 71.5t149.5 209.5q-115 -22 -175 -22q-115 0 -115 60.5t102 154t248 165t255 71.5q77 0 77 -42q0 -32 -39 -71t-62 -39q-6 0 -6 7.5t4 10.5q21 10 39.5 32t18.5 41q0 36 -75 36t-198 -63t-214 -146t-91 -136.5t105 -53.5q40 0 140 16
q107 153 155 216q88 114 121 114q5 0 5 -3z" />
    <glyph glyph-name="dotlessi" unicode="&#x131;" horiz-adv-x="188" 
d="M31 11q0 29 50 109.5t73 80.5q17 0 17 -13t-46 -71t-46 -83q0 -14 10.5 -14t52.5 28q75 50 138 101l22 18q8 5 12.5 5t4.5 -6v-3q4 0 -53.5 -44t-123 -88t-82.5 -44q-29 0 -29 24z" />
    <glyph glyph-name="IJ" unicode="&#x132;" horiz-adv-x="611" 
d="M577 647q-52 -51 -224 -308q141 26 174.5 26t69.5 -13t36 -29q0 -6 -5.5 -10t-11 -4t-51.5 14t-88.5 14t-136.5 -17q-183 -268 -242 -321q-30 -27 -49 -27q-17 0 -17 24q0 13 7 32t19 19q4 0 5 -8.5t3 -8.5q20 0 74.5 71.5t149.5 209.5q-115 -22 -175 -22
q-115 0 -115 60.5t102 154t248 165t255 71.5q77 0 77 -42q0 -32 -39 -71t-62 -39q-6 0 -6 7.5t4 10.5q21 10 39.5 32t18.5 41q0 36 -75 36t-198 -63t-214 -146t-91 -136.5t105 -53.5q40 0 140 16q107 153 155 216q88 114 121 114q5 0 5 -3zM620 158q46 -35 136 -35h4
q56 104 107 192q-153 -90 -247 -157zM1210 631q0 34 -46 40q-87 -101 -192 -266q117 70 177.5 123t60.5 103zM619.5 378.5q-42.5 -70.5 -42.5 -121.5t23 -80q94 66 291 180q120 206 217 314q-105 -7 -206 -52t-170.5 -107.5t-112 -133zM749 103h-21q-88 0 -142 31
q-256 -189 -256 -371q0 -112 78 -112q37 0 75 38q22 21 39.5 40t43 58t42 65.5t46.5 79t45.5 81.5t49.5 90zM1234 633q-1 -59 -74 -122t-215 -149q-78 -126 -141 -236q97 15 164 71q4 3 9 3t5 -5.5t-22 -22t-68.5 -36.5t-97.5 -28q-159 -270 -219 -346q-81 -103 -130 -130
q-30 -16 -58 -16q-43 0 -67.5 38t-24.5 86q0 210 269 411q-39 35 -39 95.5t46.5 135t124 140.5t192 113t236.5 54q47 49 82 75q12 8 30.5 8t18.5 -10q0 -5 -14 -15t-21 -16l-41 -43q23 -5 39 -21t16 -34z" />
    <glyph glyph-name="ij" unicode="&#x133;" horiz-adv-x="514" 
d="M234.5 296q5.5 -6 5.5 -17t-15 -28t-26 -17t-16 6.5t-5 15t16 27.5t25.5 19t15 -6zM302 167q8 5 12.5 5t4.5 -6v-3q4 0 -53.5 -44t-123 -88t-82.5 -44q-29 0 -29 24q0 29 50 109.5t73 80.5q17 0 17 -13t-46 -71t-46 -83q0 -14 10.5 -14t52.5 28q75 50 138 101zM174 -111
q11 -5 19 -10q6 12 14 20q-21 -6 -32 -8q0 -1 -1 -2zM490.5 296q5.5 -6 5.5 -17t-15 -28t-26 -17t-16 6.5t-5 15t16 27.5t25.5 19t15 -6zM202 -195q0 14 -3 26q-157 -213 -157 -233q0 -9 8 -9q20 0 56.5 34.5t66 87t29.5 94.5zM180 -139q-25 25 -67 25q-13 2 -13 11
q1 8 12 8q2 0 32 -3q26 0 77 17l167 233q2 3 2 6.5t-3 3.5t-6 -3l-52 -43l-4 15l51 43q36 36 50 36q5 0 10 -4.5t5 -12.5q0 -29 -157 -245q40 22 57 45q4 5 10 5t6 -7q0 -33 -93 -71l-46 -63q18 -22 18 -63t-41 -100.5t-92 -98.5t-80 -39t-29 26q0 19 186 279z" />
    <glyph glyph-name="Jcircumflex" unicode="&#x134;" horiz-adv-x="272" 
d="M13 454q29 20 36.5 30t18 10t19.5 -9q3 -4 6.5 -27.5t17.5 -44.5q2 -4 2 -5q0 -5 -6 -5t-15 8.5t-18 27.5t-9 20q-24 -22 -111 -52q-6 0 -6 7.5t18 13.5t47 26zM281 158q46 -35 136 -35h4q56 104 107 192q-153 -90 -247 -157zM871 631q0 34 -46 40q-87 -101 -192 -266
q117 70 177.5 123t60.5 103zM280.5 378.5q-42.5 -70.5 -42.5 -121.5t23 -80q94 66 291 180q120 206 217 314q-105 -7 -206 -52t-170.5 -107.5t-112 -133zM410 103h-21q-88 0 -142 31q-256 -189 -256 -371q0 -112 78 -112q37 0 75 38q22 21 39.5 40t43 58t42 65.5t46.5 79
t45.5 81.5t49.5 90zM895 633q-1 -59 -74 -122t-215 -149q-78 -126 -141 -236q97 15 164 71q4 3 9 3t5 -5.5t-22 -22t-68.5 -36.5t-97.5 -28q-159 -270 -219 -346q-81 -103 -130 -130q-30 -16 -58 -16q-43 0 -67.5 38t-24.5 86q0 210 269 411q-39 35 -39 95.5t46.5 135
t124 140.5t192 113t236.5 54q47 49 82 75q12 8 30.5 8t18.5 -10q0 -5 -14 -15t-21 -16l-41 -43q23 -5 39 -21t16 -34z" />
    <glyph glyph-name="jcircumflex" unicode="&#x135;" horiz-adv-x="257" 
d="M2 289q29 20 36.5 30t18 10t19.5 -9q3 -4 6.5 -27.5t17.5 -44.5q2 -4 2 -5q0 -5 -6 -5t-15 8.5t-18 27.5t-9 20q-24 -22 -111 -52q-6 0 -6 7.5t18 13.5t47 26zM22 -240q-46 0 -77 12v71q34 -10 66 -10q38 0 56 21t18 63v619h88v-616q0 -80 -38.5 -120t-112.5 -40z" />
    <glyph glyph-name="uni0136" unicode="&#x136;" horiz-adv-x="619" 
d="M246 -209q11 25 24 70.5t17 77.5h87v-9q-8 -31 -31.5 -76.5t-48.5 -74.5h-48v12zM608 498q0 -5 -2 -19q29 26 88.5 81.5t100 91.5t90.5 76q101 82 158 82q14 0 14 -9q-1 -20 -18 -35.5t-38.5 -20t-56.5 -24t-81.5 -54.5t-83.5 -65t-94 -77.5t-84 -69.5q-7 -29 -58.5 -190
t-51.5 -205q0 -55 54 -55q31 0 59.5 11.5t45 23.5t19.5 12t3 -4q0 -23 -58 -48t-91 -25q-69 0 -69 72q0 68 38 185q13 40 35.5 105t27.5 81q-79 -61 -108 -61t-29 22q0 35 63 92t105 57q22 0 22 -30zM52.5 45.5q5.5 1.5 13.5 1.5t10 -7.5t4 -7.5q44 32 127 140.5t155 239
t72 197.5q-2 47 -34 71q-28 20 -146.5 20t-188 -23.5t-69.5 -61.5q0 -24 34.5 -38.5t69.5 -19.5q14 -4 44.5 -7t55.5 -7t50 -11q56 -17 56 -64l-4 -6q-17 23 -32 28.5t-20.5 7.5t-20.5 4.5t-22 3.5q-21 3 -57 7q-184 23 -184 91q0 35 35.5 60t90.5 36q96 19 189 19
q109 0 151 -26q17 -11 29.5 -33.5t12.5 -53.5q0 -59 -96 -220t-205.5 -297.5t-143.5 -136.5q-17 0 -17 17q0 7 4 15.5t10.5 23t9 19t7 11t10 8zM457 382q32 0 105 60q7 21 7 33q0 21 -18 21q-23 0 -64 -42t-41 -63q0 -9 11 -9z" />
    <glyph glyph-name="uni0137" unicode="&#x137;" horiz-adv-x="534" 
d="M203 -209q11 25 24 70.5t17 77.5h87v-9q-8 -31 -31.5 -76.5t-48.5 -74.5h-48v12zM335 281q0 9 -12.5 9t-49.5 -26.5t-67 -53.5l-29 -26q0 -2 6 -2q10 0 13 -15.5t11 -15.5q26 0 77 53t51 77zM430 166q7 5 13 5t6 -7v-2q-79 -70 -158 -120q-59 -44 -95.5 -44t-51 27
t-14.5 56.5t6 40.5t6 13.5t-6 2.5q-9 0 -62 -69t-59 -69t-11.5 3.5t-5.5 9.5t14.5 29t94.5 135t83 117.5t3 7.5t-3.5 2t-5.5 -1.5t-30 -20.5q-63 -43 -87 -43t-24 19q0 16 10.5 28t23.5 12q6 0 10 -13.5t13 -13.5t22 7t26.5 17t31 24.5t28.5 24.5q33 30 40 37q19 32 144 183
q15 19 29.5 19t14.5 -7t-5 -13.5t-75 -97t-141 -185t-71 -100.5t5 -6q15 16 38.5 39.5t80.5 63t90.5 39.5t33.5 -18q0 -33 -77 -98t-107 -65l-19 4q-9 0 -15 -15.5t-6 -35.5q0 -61 46 -61q24 0 54 19q64 39 137 100z" />
    <glyph glyph-name="kgreenlandic" unicode="&#x138;" horiz-adv-x="534" 
d="M403 536h106l-203 -237l219 -299h-105l-176 242l-66 -54v-188h-93v536h93v-139q0 -68 -6 -135l41 50z" />
    <glyph glyph-name="Lacute" unicode="&#x139;" horiz-adv-x="523" 
d="M0 -53q0 49 89 129t183 96q19 24 62 81t70 91q85 112 136 169q-204 -54 -417 -54q-44 0 -44 13q0 7 12 15t23 8q54 -7 103 -7q161 0 350 56q181 198 306 198q52 0 52 -24q0 -33 -93 -89t-236 -100q-52 -62 -150 -194t-121 -161q92 -4 159 -62q28 -23 54 -46
q64 -55 136 -55q34 0 74.5 21.5t46 21.5t5.5 -5q0 -18 -51 -39.5t-101 -21.5t-90 16.5t-66.5 40.5t-51.5 48q-59 59 -128 64q-89 -113 -157 -175t-121 -62q-34 0 -34 27zM41 -53q35 0 88 53t129 153q-78 -18 -156.5 -87.5t-78.5 -104.5q0 -14 18 -14zM855 724
q-89 0 -231 -161q112 38 188.5 81t76.5 66q0 14 -34 14zM162 481q0 -17 -39.5 -38t-81.5 -36q-6 0 -6 7.5t17.5 13.5t43 25t34.5 30t20.5 11t11.5 -13z" />
    <glyph glyph-name="lacute" unicode="&#x13a;" horiz-adv-x="257" 
d="M353 166q7 5 13 5t6 -7v-2q-104 -86 -158 -120q-70 -53 -118 -53q-42 0 -42 50q0 67 86.5 198.5t194.5 236.5t163 105q25 0 25 -22q0 -55 -131.5 -181.5t-258.5 -215.5q-37 -71 -37 -108t26 -37t68 30q71 42 138 100zM473 547q-42 0 -149 -121t-177 -242
q115 82 225 200.5t110 153.5q0 9 -9 9zM125 509q0 -17 -39.5 -38t-81.5 -36q-6 0 -6 7.5t17.5 13.5t43 25t34.5 30t20.5 11t11.5 -13z" />
    <glyph glyph-name="uni013B" unicode="&#x13b;" horiz-adv-x="523" 
d="M204 -209q11 25 24 70.5t17 77.5h87v-9q-8 -31 -31.5 -76.5t-48.5 -74.5h-48v12zM0 -53q0 49 89 129t183 96q19 24 62 81t70 91q85 112 136 169q-204 -54 -417 -54q-44 0 -44 13q0 7 12 15t23 8q54 -7 103 -7q161 0 350 56q181 198 306 198q52 0 52 -24q0 -33 -93 -89
t-236 -100q-52 -62 -150 -194t-121 -161q92 -4 159 -62q28 -23 54 -46q64 -55 136 -55q34 0 74.5 21.5t46 21.5t5.5 -5q0 -18 -51 -39.5t-101 -21.5t-90 16.5t-66.5 40.5t-51.5 48q-59 59 -128 64q-89 -113 -157 -175t-121 -62q-34 0 -34 27zM41 -53q35 0 88 53t129 153
q-78 -18 -156.5 -87.5t-78.5 -104.5q0 -14 18 -14zM855 724q-89 0 -231 -161q112 38 188.5 81t76.5 66q0 14 -34 14z" />
    <glyph glyph-name="uni013C" unicode="&#x13c;" horiz-adv-x="257" 
d="M45 -209q11 25 24 70.5t17 77.5h87v-9q-8 -31 -31.5 -76.5t-48.5 -74.5h-48v12zM353 166q7 5 13 5t6 -7v-2q-104 -86 -158 -120q-70 -53 -118 -53q-42 0 -42 50q0 67 86.5 198.5t194.5 236.5t163 105q25 0 25 -22q0 -55 -131.5 -181.5t-258.5 -215.5q-37 -71 -37 -108
t26 -37t68 30q71 42 138 100zM473 547q-42 0 -149 -121t-177 -242q115 82 225 200.5t110 153.5q0 9 -9 9z" />
    <glyph glyph-name="Lcaron" unicode="&#x13d;" horiz-adv-x="523" 
d="M333 567q11 32 20.5 77.5t12.5 70.5h87v-9q-6 -26 -27 -71t-45 -80h-48v12zM0 -53q0 49 89 129t183 96q19 24 62 81t70 91q85 112 136 169q-204 -54 -417 -54q-44 0 -44 13q0 7 12 15t23 8q54 -7 103 -7q161 0 350 56q181 198 306 198q52 0 52 -24q0 -33 -93 -89
t-236 -100q-52 -62 -150 -194t-121 -161q92 -4 159 -62q28 -23 54 -46q64 -55 136 -55q34 0 74.5 21.5t46 21.5t5.5 -5q0 -18 -51 -39.5t-101 -21.5t-90 16.5t-66.5 40.5t-51.5 48q-59 59 -128 64q-89 -113 -157 -175t-121 -62q-34 0 -34 27zM41 -53q35 0 88 53t129 153
q-78 -18 -156.5 -87.5t-78.5 -104.5q0 -14 18 -14zM855 724q-89 0 -231 -161q112 38 188.5 81t76.5 66q0 14 -34 14z" />
    <glyph glyph-name="lcaron" unicode="&#x13e;" horiz-adv-x="257" 
d="M219 612q11 32 20.5 77.5t12.5 70.5h87v-9q-6 -26 -27 -71t-45 -80h-48v12zM353 166q7 5 13 5t6 -7v-2q-104 -86 -158 -120q-70 -53 -118 -53q-42 0 -42 50q0 67 86.5 198.5t194.5 236.5t163 105q25 0 25 -22q0 -55 -131.5 -181.5t-258.5 -215.5q-37 -71 -37 -108t26 -37
t68 30q71 42 138 100zM473 547q-42 0 -149 -121t-177 -242q115 82 225 200.5t110 153.5q0 9 -9 9z" />
    <glyph glyph-name="Ldot" unicode="&#x13f;" horiz-adv-x="523" 
d="M568.5 -5q5.5 -6 5.5 -17t-15 -28t-26 -17t-16 6.5t-5 15t16 27.5t25.5 19t15 -6zM0 -53q0 49 89 129t183 96q19 24 62 81t70 91q85 112 136 169q-204 -54 -417 -54q-44 0 -44 13q0 7 12 15t23 8q54 -7 103 -7q161 0 350 56q181 198 306 198q52 0 52 -24q0 -33 -93 -89
t-236 -100q-52 -62 -150 -194t-121 -161q92 -4 159 -62q28 -23 54 -46q64 -55 136 -55q34 0 74.5 21.5t46 21.5t5.5 -5q0 -18 -51 -39.5t-101 -21.5t-90 16.5t-66.5 40.5t-51.5 48q-59 59 -128 64q-89 -113 -157 -175t-121 -62q-34 0 -34 27zM41 -53q35 0 88 53t129 153
q-78 -18 -156.5 -87.5t-78.5 -104.5q0 -14 18 -14zM855 724q-89 0 -231 -161q112 38 188.5 81t76.5 66q0 14 -34 14z" />
    <glyph glyph-name="ldot" unicode="&#x140;" horiz-adv-x="325" 
d="M476.5 -29q5.5 -6 5.5 -17t-15 -28t-26 -17t-16 6.5t-5 15t16 27.5t25.5 19t15 -6zM353 166q7 5 13 5t6 -7v-2q-104 -86 -158 -120q-70 -53 -118 -53q-42 0 -42 50q0 67 86.5 198.5t194.5 236.5t163 105q25 0 25 -22q0 -55 -131.5 -181.5t-258.5 -215.5q-37 -71 -37 -108
t26 -37t68 30q71 42 138 100zM473 547q-42 0 -149 -121t-177 -242q115 82 225 200.5t110 153.5q0 9 -9 9z" />
    <glyph glyph-name="Lslash" unicode="&#x141;" horiz-adv-x="809" 
d="M375 309l-44 1q-92 0 -115.5 2.5t-24.5 15.5q0 6 3 7.5t67.5 1.5t137.5 3q84 107 141 173q-204 -54 -417 -54q-44 0 -44 13q0 7 12 15t23 8q54 -7 103 -7q161 0 350 56q181 198 306 198q52 0 52 -24q0 -33 -93 -89t-236 -100q-52 -62 -145 -187q64 3 99.5 7.5t41.5 4.5
q21 0 21 -22q-2 -27 -117 -27q-48 0 -71 1q-93 -123 -100 -132q92 -4 159 -62q28 -23 54 -46q64 -55 136 -55q34 0 74.5 21.5t46 21.5t5.5 -5q0 -18 -51 -39.5t-101 -21.5t-90 16.5t-66.5 40.5t-51.5 48q-59 59 -128 64q-89 -113 -157 -175t-121 -62q-34 0 -34 27
q0 49 89 129t183 96zM41 -53q35 0 88 53t129 153q-78 -18 -156.5 -87.5t-78.5 -104.5q0 -14 18 -14zM855 724q-89 0 -231 -161q112 38 188.5 81t76.5 66q0 14 -34 14z" />
    <glyph glyph-name="lslash" unicode="&#x142;" horiz-adv-x="242" 
d="M353 166q7 5 13 5t6 -7v-2q-104 -86 -158 -120q-70 -53 -118 -53q-42 0 -42 50q0 39 34 109q-44 0 -56 1.5t-13 10.5q0 5 1.5 6t9.5 1h69q74 136 204.5 274t194.5 138q25 0 25 -22q0 -54 -124.5 -175t-252.5 -213l88 6q11 0 11 -16q0 -13 -49.5 -13t-69.5 1
q-30 -60 -30 -96t26 -36t68 30q71 42 138 100zM473 547q-42 0 -149 -121t-177 -242q115 82 225 200.5t110 153.5q0 9 -9 9z" />
    <glyph glyph-name="Nacute" unicode="&#x143;" horiz-adv-x="759" 
d="M270 379q-7 0 -10.5 6t-4.5 7q-11 -11 -30.5 -28t-69.5 -45t-89 -28q-65 0 -65 50q0 54 69 140t171.5 153.5t183.5 67.5q47 0 71.5 -28t24.5 -72.5t-39 -127.5q156 116 217 116q12 0 20 -7t8 -19q0 -20 -81.5 -129t-163.5 -228t-82 -164q0 -28 31 -28q47 0 133 86
q13 13 22 13q6 0 6 -8.5t-32 -37t-79.5 -55.5t-82.5 -27q-47 0 -47 39.5t49.5 122t109.5 160.5q159 205 159 239q0 6 -7 6q-57 0 -194 -108q-77 -151 -209.5 -314t-178.5 -163q-25 0 -25 21q0 65 112 193.5t258 246.5q55 110 55 172q0 76 -81 76q-62 0 -149.5 -60.5
t-149.5 -137.5t-62 -122q0 -38 50 -38q34 0 97 41t72 57q43 76 49 84q21 33 34 33q5 0 6 -7t-1.5 -13.5t-8.5 -16t-11 -17t-13.5 -19.5t-15 -21t-10.5 -17q-6 -12 -6 -28t-10 -16zM93 -8q27 1 134.5 134.5t179.5 267.5q-126 -108 -222 -224t-96 -171q0 -7 4 -7zM362 481
q0 -17 -39.5 -38t-81.5 -36q-6 0 -6 7.5t17.5 13.5t43 25t34.5 30t20.5 11t11.5 -13z" />
    <glyph glyph-name="nacute" unicode="&#x144;" horiz-adv-x="618" 
d="M518 163q-211 -176 -261 -176q-29 0 -29 24t21.5 57t43 58.5t21.5 30.5t-3 5q-93 -62 -110.5 -76t-57 -46t-51.5 -40t-26 -8t-14 12q0 14 56 88q54 74 54 83q0 2 -3.5 2t-86.5 -61l-4 15q71 57 96 73t40.5 16t15.5 -15q0 -10 -56.5 -81.5t-56.5 -77t3.5 -5.5t114 80.5
t134.5 80.5q7 0 13.5 -5.5t6.5 -10.5q0 -12 -53 -79.5t-53 -76.5t12.5 -9t53.5 27q75 49 138 101l22 18q7 5 13 5t6 -6v-3zM294 316q0 -17 -39.5 -38t-81.5 -36q-6 0 -6 7.5t17.5 13.5t43 25t34.5 30t20.5 11t11.5 -13z" />
    <glyph glyph-name="uni0145" unicode="&#x145;" horiz-adv-x="759" 
d="M281 -209q11 25 24 70.5t17 77.5h87v-9q-8 -31 -31.5 -76.5t-48.5 -74.5h-48v12zM270 379q-7 0 -10.5 6t-4.5 7q-11 -11 -30.5 -28t-69.5 -45t-89 -28q-65 0 -65 50q0 54 69 140t171.5 153.5t183.5 67.5q47 0 71.5 -28t24.5 -72.5t-39 -127.5q156 116 217 116q12 0 20 -7
t8 -19q0 -20 -81.5 -129t-163.5 -228t-82 -164q0 -28 31 -28q47 0 133 86q13 13 22 13q6 0 6 -8.5t-32 -37t-79.5 -55.5t-82.5 -27q-47 0 -47 39.5t49.5 122t109.5 160.5q159 205 159 239q0 6 -7 6q-57 0 -194 -108q-77 -151 -209.5 -314t-178.5 -163q-25 0 -25 21
q0 65 112 193.5t258 246.5q55 110 55 172q0 76 -81 76q-62 0 -149.5 -60.5t-149.5 -137.5t-62 -122q0 -38 50 -38q34 0 97 41t72 57q43 76 49 84q21 33 34 33q5 0 6 -7t-1.5 -13.5t-8.5 -16t-11 -17t-13.5 -19.5t-15 -21t-10.5 -17q-6 -12 -6 -28t-10 -16zM93 -8
q27 1 134.5 134.5t179.5 267.5q-126 -108 -222 -224t-96 -171q0 -7 4 -7z" />
    <glyph glyph-name="uni0146" unicode="&#x146;" horiz-adv-x="618" 
d="M222 -209q11 25 24 70.5t17 77.5h87v-9q-8 -31 -31.5 -76.5t-48.5 -74.5h-48v12zM518 163q-211 -176 -261 -176q-29 0 -29 24t21.5 57t43 58.5t21.5 30.5t-3 5q-93 -62 -110.5 -76t-57 -46t-51.5 -40t-26 -8t-14 12q0 14 56 88q54 74 54 83q0 2 -3.5 2t-86.5 -61l-4 15
q71 57 96 73t40.5 16t15.5 -15q0 -10 -56.5 -81.5t-56.5 -77t3.5 -5.5t114 80.5t134.5 80.5q7 0 13.5 -5.5t6.5 -10.5q0 -12 -53 -79.5t-53 -76.5t12.5 -9t53.5 27q75 49 138 101l22 18q7 5 13 5t6 -6v-3z" />
    <glyph glyph-name="Ncaron" unicode="&#x147;" horiz-adv-x="759" 
d="M291 442q-29 -20 -36.5 -30t-18 -10t-19.5 9q-3 4 -6.5 27.5t-17.5 44.5q-2 4 -2 5q0 5 6 5t15 -8.5t18 -27.5t9 -20q24 22 111 52q6 0 6 -7.5t-18 -13.5t-47 -26zM270 379q-7 0 -10.5 6t-4.5 7q-11 -11 -30.5 -28t-69.5 -45t-89 -28q-65 0 -65 50q0 54 69 140
t171.5 153.5t183.5 67.5q47 0 71.5 -28t24.5 -72.5t-39 -127.5q156 116 217 116q12 0 20 -7t8 -19q0 -20 -81.5 -129t-163.5 -228t-82 -164q0 -28 31 -28q47 0 133 86q13 13 22 13q6 0 6 -8.5t-32 -37t-79.5 -55.5t-82.5 -27q-47 0 -47 39.5t49.5 122t109.5 160.5
q159 205 159 239q0 6 -7 6q-57 0 -194 -108q-77 -151 -209.5 -314t-178.5 -163q-25 0 -25 21q0 65 112 193.5t258 246.5q55 110 55 172q0 76 -81 76q-62 0 -149.5 -60.5t-149.5 -137.5t-62 -122q0 -38 50 -38q34 0 97 41t72 57q43 76 49 84q21 33 34 33q5 0 6 -7t-1.5 -13.5
t-8.5 -16t-11 -17t-13.5 -19.5t-15 -21t-10.5 -17q-6 -12 -6 -28t-10 -16zM93 -8q27 1 134.5 134.5t179.5 267.5q-126 -108 -222 -224t-96 -171q0 -7 4 -7z" />
    <glyph glyph-name="ncaron" unicode="&#x148;" horiz-adv-x="618" 
d="M224 277q-29 -20 -36.5 -30t-18 -10t-19.5 9q-3 4 -6.5 27.5t-17.5 44.5q-2 4 -2 5q0 5 6 5t15 -8.5t18 -27.5t9 -20q24 22 111 52q6 0 6 -7.5t-18 -13.5t-47 -26zM518 163q-211 -176 -261 -176q-29 0 -29 24t21.5 57t43 58.5t21.5 30.5t-3 5q-93 -62 -110.5 -76t-57 -46
t-51.5 -40t-26 -8t-14 12q0 14 56 88q54 74 54 83q0 2 -3.5 2t-86.5 -61l-4 15q71 57 96 73t40.5 16t15.5 -15q0 -10 -56.5 -81.5t-56.5 -77t3.5 -5.5t114 80.5t134.5 80.5q7 0 13.5 -5.5t6.5 -10.5q0 -12 -53 -79.5t-53 -76.5t12.5 -9t53.5 27q75 49 138 101l22 18
q7 5 13 5t6 -6v-3z" />
    <glyph glyph-name="napostrophe" unicode="&#x149;" horiz-adv-x="690" 
d="M145 714l7 -11q-25 -97 -86 -234h-65q34 139 50 245h94zM589 163q-211 -176 -261 -176q-29 0 -29 24t21.5 57t43 58.5t21.5 30.5t-3 5q-93 -62 -110.5 -76t-57 -46t-51.5 -40t-26 -8t-14 12q0 14 56 88q54 74 54 83q0 2 -3.5 2t-86.5 -61l-4 15q71 57 96 73t40.5 16
t15.5 -15q0 -10 -56.5 -81.5t-56.5 -77t3.5 -5.5t114 80.5t134.5 80.5q7 0 13.5 -5.5t6.5 -10.5q0 -12 -53 -79.5t-53 -76.5t12.5 -9t53.5 27q75 49 138 101l22 18q7 5 13 5t6 -6v-3z" />
    <glyph glyph-name="Eng" unicode="&#x14a;" horiz-adv-x="759" 
d="M475 -190q-48 0 -76 13v76q35 -10 76 -10q50 0 76.5 28.5t27.5 82.5l-403 593h-4q8 -125 8 -206v-387h-83v714h104l381 -572h4q-7 75 -7 200v372h84v-708q0 -96 -48.5 -146t-139.5 -50z" />
    <glyph glyph-name="eng" unicode="&#x14b;" horiz-adv-x="618" 
d="M394 -240q-42 0 -71 12v71q29 -10 60 -10q67 0 67 84v427q0 65 -29 96.5t-90 31.5q-83 0 -120.5 -45.5t-37.5 -147.5v-279h-88v536h71l14 -73h5q25 40 69 61.5t98 21.5q99 0 147.5 -46.5t48.5 -149.5v-430q0 -75 -35 -117.5t-109 -42.5z" />
    <glyph glyph-name="Omacron" unicode="&#x14c;" horiz-adv-x="780" 
d="M242 842h297v-71h-297v71zM590.5 734q17.5 -16 17.5 -41t-12 -45q51 -25 51 -97q0 -97 -82.5 -234.5t-198.5 -230.5q42 2 87.5 20t73.5 35t31.5 17t3.5 -8q0 -20 -76 -50.5t-135 -30.5h-7q-114 -84 -213 -84q-66 0 -98 36.5t-32 109.5t48.5 182t123 205.5t173.5 164
t190 67.5q37 0 54.5 -16zM446 498l1 -7q0 -12 -7 -12q-13 0 -13 27.5t19.5 50.5t56.5 46.5t49 34.5q-16 4 -26 4q-86 0 -165 -64.5t-124 -155t-45 -166.5q0 -160 149 -170q106 86 185 227t79 237q0 51 -26 74q-18 -20 -53.5 -44.5t-57.5 -44t-22 -37.5zM162 10q74 0 158 60
q-90 7 -134 54t-44 115.5t33.5 142t86.5 135t127.5 102.5t149.5 41q15 0 29 -3q13 19 13 38.5t-16 28.5t-37 9q-81 0 -170 -64.5t-155 -156.5t-109 -195.5t-43 -171.5q0 -135 111 -135z" />
    <glyph glyph-name="omacron" unicode="&#x14d;" horiz-adv-x="604" 
d="M154 677h297v-71h-297v71zM189 86q56 0 134 63l17 -5q-98 -82 -169 -82q-8 0 -12 1q-27 -33 -59 -53.5t-56 -20.5q-38 0 -38 42.5t71 113.5q-12 29 -12 61t23 52t53.5 20t51.5 -20t21 -57q0 -57 -37 -114q4 -1 12 -1zM157 96q31 52 31 88.5t-18 54t-35 17.5
q-35 0 -35 -36t16 -71.5t41 -52.5zM47 37q0 -20 26 -20t66 53q-27 14 -48 49q-44 -48 -44 -82z" />
    <glyph glyph-name="Obreve" unicode="&#x14e;" horiz-adv-x="780" 
d="M486 484q-23 -30 -55 -50.5t-58 -20.5q-49 0 -52 75q0 5 6 5t8 -2q9 -46 45 -46q31 0 100 44q6 0 6 -5zM590.5 734q17.5 -16 17.5 -41t-12 -45q51 -25 51 -97q0 -97 -82.5 -234.5t-198.5 -230.5q42 2 87.5 20t73.5 35t31.5 17t3.5 -8q0 -20 -76 -50.5t-135 -30.5h-7
q-114 -84 -213 -84q-66 0 -98 36.5t-32 109.5t48.5 182t123 205.5t173.5 164t190 67.5q37 0 54.5 -16zM446 498l1 -7q0 -12 -7 -12q-13 0 -13 27.5t19.5 50.5t56.5 46.5t49 34.5q-16 4 -26 4q-86 0 -165 -64.5t-124 -155t-45 -166.5q0 -160 149 -170q106 86 185 227t79 237
q0 51 -26 74q-18 -20 -53.5 -44.5t-57.5 -44t-22 -37.5zM162 10q74 0 158 60q-90 7 -134 54t-44 115.5t33.5 142t86.5 135t127.5 102.5t149.5 41q15 0 29 -3q13 19 13 38.5t-16 28.5t-37 9q-81 0 -170 -64.5t-155 -156.5t-109 -195.5t-43 -171.5q0 -135 111 -135z" />
    <glyph glyph-name="obreve" unicode="&#x14f;" horiz-adv-x="604" 
d="M398 319q-23 -30 -55 -50.5t-58 -20.5q-49 0 -52 75q0 5 6 5t8 -2q9 -46 45 -46q31 0 100 44q6 0 6 -5zM189 86q56 0 134 63l17 -5q-98 -82 -169 -82q-8 0 -12 1q-27 -33 -59 -53.5t-56 -20.5q-38 0 -38 42.5t71 113.5q-12 29 -12 61t23 52t53.5 20t51.5 -20t21 -57
q0 -57 -37 -114q4 -1 12 -1zM157 96q31 52 31 88.5t-18 54t-35 17.5q-35 0 -35 -36t16 -71.5t41 -52.5zM47 37q0 -20 26 -20t66 53q-27 14 -48 49q-44 -48 -44 -82z" />
    <glyph glyph-name="Ohungarumlaut" unicode="&#x150;" horiz-adv-x="780" 
d="M400 481q0 -17 -39.5 -38t-81.5 -36q-6 0 -6 7.5t17.5 13.5t43 25t34.5 30t20.5 11t11.5 -13zM475 483q0 -17 -39.5 -38t-81.5 -36q-6 0 -6 7.5t17.5 13.5t43 25t34 30t20.5 11t12 -13zM590.5 734q17.5 -16 17.5 -41t-12 -45q51 -25 51 -97q0 -97 -82.5 -234.5
t-198.5 -230.5q42 2 87.5 20t73.5 35t31.5 17t3.5 -8q0 -20 -76 -50.5t-135 -30.5h-7q-114 -84 -213 -84q-66 0 -98 36.5t-32 109.5t48.5 182t123 205.5t173.5 164t190 67.5q37 0 54.5 -16zM446 498l1 -7q0 -12 -7 -12q-13 0 -13 27.5t19.5 50.5t56.5 46.5t49 34.5
q-16 4 -26 4q-86 0 -165 -64.5t-124 -155t-45 -166.5q0 -160 149 -170q106 86 185 227t79 237q0 51 -26 74q-18 -20 -53.5 -44.5t-57.5 -44t-22 -37.5zM162 10q74 0 158 60q-90 7 -134 54t-44 115.5t33.5 142t86.5 135t127.5 102.5t149.5 41q15 0 29 -3q13 19 13 38.5
t-16 28.5t-37 9q-81 0 -170 -64.5t-155 -156.5t-109 -195.5t-43 -171.5q0 -135 111 -135z" />
    <glyph glyph-name="ohungarumlaut" unicode="&#x151;" horiz-adv-x="604" 
d="M308 316q0 -17 -39.5 -38t-81.5 -36q-6 0 -6 7.5t17.5 13.5t43 25t34.5 30t20.5 11t11.5 -13zM383 318q0 -17 -39.5 -38t-81.5 -36q-6 0 -6 7.5t17.5 13.5t43 25t34 30t20.5 11t12 -13zM189 86q56 0 134 63l17 -5q-98 -82 -169 -82q-8 0 -12 1q-27 -33 -59 -53.5
t-56 -20.5q-38 0 -38 42.5t71 113.5q-12 29 -12 61t23 52t53.5 20t51.5 -20t21 -57q0 -57 -37 -114q4 -1 12 -1zM157 96q31 52 31 88.5t-18 54t-35 17.5q-35 0 -35 -36t16 -71.5t41 -52.5zM47 37q0 -20 26 -20t66 53q-27 14 -48 49q-44 -48 -44 -82z" />
    <glyph glyph-name="OE" unicode="&#x152;" horiz-adv-x="853" 
d="M634 653h-35l-2 -4l10 -6q18 6 27 10zM579 679q2 12 2 24t-16 21t-37 9q-67 0 -141 -45q84 -6 192 -9zM78.5 43.5q27.5 -33.5 84.5 -33.5t124 39q1 12 6 24q-77 12 -114 57.5t-37 119t47 163.5t129.5 158.5t173.5 84.5q-97 4 -143 7q-120 -90 -209 -250t-89 -277
q0 -59 27.5 -92.5zM558 637q-15 5 -32 5q-86 0 -165 -64.5t-124 -155t-45 -162.5q0 -140 111 -168q24 39 84 81t127.5 75.5t132 63.5t107 54t42.5 38q0 8 -18 8q-232 -31 -335 -31q-138 0 -138 51q0 30 48.5 72t117.5 78t87 55zM474 421q58 0 174 16.5t150 16.5q53 0 53 -30
q0 -48 -179 -127q-74 -33 -149 -69t-127 -81.5t-52 -91.5q0 -38 85 -38q47 0 142.5 14.5t164.5 14.5q123 0 123 -68q0 -8 -9 -8q-5 0 -22 9q-53 27 -116 27q-33 -2 -153 -15.5t-152 -13.5q-112 0 -120 55q-80 -47 -151 -47q-135 0 -135 136q0 119 94.5 282.5t224.5 261.5
q-63 5 -99 9q-9 3 -9 12q0 13 22 13q8 0 123 -9q96 60 179 60q37 0 54.5 -16t17.5 -42l-1 -14h35q25 0 69 2q175 55 297 55q44 0 44 -17q0 -61 -361 -65q-127 -44 -219.5 -101.5t-92.5 -94t95 -36.5z" />
    <glyph glyph-name="oe" unicode="&#x153;" horiz-adv-x="347" 
d="M458 166q8 5 13.5 5t5.5 -7v-2q-104 -86 -173 -129t-125 -43q-45 0 -45 45q-49 -46 -90 -46q-38 0 -38 42.5t71 113.5q-12 29 -12 61t23 52t53.5 20t51.5 -20t21 -57q0 -16 -6 -44q57 54 101.5 54t44.5 -29q0 -35 -55 -76.5t-120 -45.5q-1 -3 -1 -10q0 -33 34.5 -33
t74.5 23q78 46 147 105zM157 96q31 52 31 88.5t-18 54t-35 17.5q-35 0 -35 -36t16 -71.5t41 -52.5zM313 163q0 21 -24.5 21t-56 -32t-46.5 -68q58 7 92.5 31.5t34.5 47.5zM91 119q-44 -48 -44 -82q0 -20 25.5 -20t67.5 54q-29 15 -49 48z" />
    <glyph glyph-name="Racute" unicode="&#x154;" horiz-adv-x="622" 
d="M478 427q0 9 -16 10q-50 -101 -144 -223.5t-177.5 -203.5t-112 -81t-28.5 24q0 56 138.5 225.5t310.5 315.5q17 49 17 87.5t-21.5 66t-57.5 40.5q-64 23 -135 23q-164 0 -166 -55q0 -21 25 -36.5t61.5 -27.5t73 -26.5t62 -41.5t25.5 -58t-9.5 -31t-9.5 12q0 37 -42 64
t-92 41.5t-92 38.5t-42 51.5t21 45t53 26.5q64 16 116 16t94.5 -7t83.5 -23.5t66 -48.5t25 -76q0 -16 -5 -39q238 189 381 189q53 0 53 -40q0 -47 -63.5 -126.5t-148.5 -141.5t-140 -62q-34 0 -60 14q-1 1 -4 1t-3 -30.5t1.5 -61t8.5 -82t20 -88t39 -64.5t59.5 -28t104.5 32
q10 5 17.5 5t7.5 -4q0 -9 -15 -16q-86 -45 -134 -45t-79.5 34.5t-43.5 93t-16 113t-4 116.5t-3 82zM489 499q-8 -23 -18 -44h32q5 0 6 -9t2 -22t7 -21.5t23.5 -18.5t40.5 -10q46 0 118.5 62.5t125.5 137t53 108.5q0 18 -18 18q-125 0 -372 -201zM43 -41q23 0 98 77t162 197
t130 219q-158 -136 -276.5 -281t-118.5 -205q0 -7 5 -7zM293 481q0 -17 -39.5 -38t-81.5 -36q-6 0 -6 7.5t17.5 13.5t43 25t34.5 30t20.5 11t11.5 -13z" />
    <glyph glyph-name="racute" unicode="&#x155;" horiz-adv-x="413" 
d="M333 166q7 5 13 5t6 -7v-2q-75 -60 -148 -112.5t-107 -52.5q-25 0 -25 27t24 54t47.5 47t23.5 26.5t-7.5 15t-12.5 11.5q-17 -17 -74 -62l-4 15q63 50 73 67v9q0 25 5 34t24 25t26 16t12.5 -5t5.5 -10t-3.5 -11.5t-7 -11t-9.5 -11t-7.5 -9t-3 -8.5t-6.5 -10t-5 -10
t8 -26.5t8 -30t-37 -45t-37 -57.5q0 -12 11 -12q14 0 52 25l12 8q65 45 122 91zM218 316q0 -17 -39.5 -38t-81.5 -36q-6 0 -6 7.5t17.5 13.5t43 25t34.5 30t20.5 11t11.5 -13z" />
    <glyph glyph-name="uni0156" unicode="&#x156;" horiz-adv-x="622" 
d="M242 -209q11 25 24 70.5t17 77.5h87v-9q-8 -31 -31.5 -76.5t-48.5 -74.5h-48v12zM478 427q0 9 -16 10q-50 -101 -144 -223.5t-177.5 -203.5t-112 -81t-28.5 24q0 56 138.5 225.5t310.5 315.5q17 49 17 87.5t-21.5 66t-57.5 40.5q-64 23 -135 23q-164 0 -166 -55
q0 -21 25 -36.5t61.5 -27.5t73 -26.5t62 -41.5t25.5 -58t-9.5 -31t-9.5 12q0 37 -42 64t-92 41.5t-92 38.5t-42 51.5t21 45t53 26.5q64 16 116 16t94.5 -7t83.5 -23.5t66 -48.5t25 -76q0 -16 -5 -39q238 189 381 189q53 0 53 -40q0 -47 -63.5 -126.5t-148.5 -141.5t-140 -62
q-34 0 -60 14q-1 1 -4 1t-3 -30.5t1.5 -61t8.5 -82t20 -88t39 -64.5t59.5 -28t104.5 32q10 5 17.5 5t7.5 -4q0 -9 -15 -16q-86 -45 -134 -45t-79.5 34.5t-43.5 93t-16 113t-4 116.5t-3 82zM489 499q-8 -23 -18 -44h32q5 0 6 -9t2 -22t7 -21.5t23.5 -18.5t40.5 -10
q46 0 118.5 62.5t125.5 137t53 108.5q0 18 -18 18q-125 0 -372 -201zM43 -41q23 0 98 77t162 197t130 219q-158 -136 -276.5 -281t-118.5 -205q0 -7 5 -7z" />
    <glyph glyph-name="uni0157" unicode="&#x157;" horiz-adv-x="413" 
d="M48 -209q11 25 24 70.5t17 77.5h87v-9q-8 -31 -31.5 -76.5t-48.5 -74.5h-48v12zM333 166q7 5 13 5t6 -7v-2q-75 -60 -148 -112.5t-107 -52.5q-25 0 -25 27t24 54t47.5 47t23.5 26.5t-7.5 15t-12.5 11.5q-17 -17 -74 -62l-4 15q63 50 73 67v9q0 25 5 34t24 25t26 16
t12.5 -5t5.5 -10t-3.5 -11.5t-7 -11t-9.5 -11t-7.5 -9t-3 -8.5t-6.5 -10t-5 -10t8 -26.5t8 -30t-37 -45t-37 -57.5q0 -12 11 -12q14 0 52 25l12 8q65 45 122 91z" />
    <glyph glyph-name="Rcaron" unicode="&#x158;" horiz-adv-x="622" 
d="M221 442q-29 -20 -36.5 -30t-18 -10t-19.5 9q-3 4 -6.5 27.5t-17.5 44.5q-2 4 -2 5q0 5 6 5t15 -8.5t18 -27.5t9 -20q24 22 111 52q6 0 6 -7.5t-18 -13.5t-47 -26zM478 427q0 9 -16 10q-50 -101 -144 -223.5t-177.5 -203.5t-112 -81t-28.5 24q0 56 138.5 225.5
t310.5 315.5q17 49 17 87.5t-21.5 66t-57.5 40.5q-64 23 -135 23q-164 0 -166 -55q0 -21 25 -36.5t61.5 -27.5t73 -26.5t62 -41.5t25.5 -58t-9.5 -31t-9.5 12q0 37 -42 64t-92 41.5t-92 38.5t-42 51.5t21 45t53 26.5q64 16 116 16t94.5 -7t83.5 -23.5t66 -48.5t25 -76
q0 -16 -5 -39q238 189 381 189q53 0 53 -40q0 -47 -63.5 -126.5t-148.5 -141.5t-140 -62q-34 0 -60 14q-1 1 -4 1t-3 -30.5t1.5 -61t8.5 -82t20 -88t39 -64.5t59.5 -28t104.5 32q10 5 17.5 5t7.5 -4q0 -9 -15 -16q-86 -45 -134 -45t-79.5 34.5t-43.5 93t-16 113t-4 116.5
t-3 82zM489 499q-8 -23 -18 -44h32q5 0 6 -9t2 -22t7 -21.5t23.5 -18.5t40.5 -10q46 0 118.5 62.5t125.5 137t53 108.5q0 18 -18 18q-125 0 -372 -201zM43 -41q23 0 98 77t162 197t130 219q-158 -136 -276.5 -281t-118.5 -205q0 -7 5 -7z" />
    <glyph glyph-name="rcaron" unicode="&#x159;" horiz-adv-x="413" 
d="M142 277q-29 -20 -36.5 -30t-18 -10t-19.5 9q-3 4 -6.5 27.5t-17.5 44.5q-2 4 -2 5q0 5 6 5t15 -8.5t18 -27.5t9 -20q24 22 111 52q6 0 6 -7.5t-18 -13.5t-47 -26zM333 166q7 5 13 5t6 -7v-2q-75 -60 -148 -112.5t-107 -52.5q-25 0 -25 27t24 54t47.5 47t23.5 26.5
t-7.5 15t-12.5 11.5q-17 -17 -74 -62l-4 15q63 50 73 67v9q0 25 5 34t24 25t26 16t12.5 -5t5.5 -10t-3.5 -11.5t-7 -11t-9.5 -11t-7.5 -9t-3 -8.5t-6.5 -10t-5 -10t8 -26.5t8 -30t-37 -45t-37 -57.5q0 -12 11 -12q14 0 52 25l12 8q65 45 122 91z" />
    <glyph glyph-name="Sacute" unicode="&#x15a;" horiz-adv-x="548" 
d="M325 99q-24 32 -62 89q-263 26 -263 110q0 19 19.5 31t59.5 12q100 0 199 -127q100 -10 227 -10h11q128 77 238 155q45 82 78 135.5t80 111.5q93 118 196 118q27 0 27 -24q0 -58 -96 -152t-255 -202q-48 -92 -72 -134q140 11 202 34h3q4 0 4 -5.5t-7 -15.5
q-75 -23 -216 -36q-54 -93 -104.5 -144.5t-101.5 -51.5q-82 0 -155 91q-143 -72 -253 -110q-15 -5 -34.5 -5t-19.5 15q0 8 8 14.5t21 6.5q80 0 266 94zM516 179q-76 -43 -150 -81q67 -83 122 -83q41 0 81.5 44t89.5 127q-61 -5 -143 -7zM1080 700q-69 0 -139 -92
q-58 -78 -127 -206q126 93 202 169.5t76 118.5q0 10 -12 10zM48 302q0 -57 193 -83q-78 104 -157 104q-36 0 -36 -21zM354 113q62 33 119 66h-4q-87 0 -168 6q38 -53 53 -72zM727 308q-54 -36 -168 -104q77 2 113 5q19 33 55 99zM271 481q0 -17 -39.5 -38t-81.5 -36
q-6 0 -6 7.5t17.5 13.5t43 25t34.5 30t20.5 11t11.5 -13z" />
    <glyph glyph-name="sacute" unicode="&#x15b;" horiz-adv-x="479" 
d="M310 166q8 5 13.5 5t5.5 -7v-2q-77 -65 -162.5 -122t-108.5 -57t-38.5 8.5t-15.5 19.5t6 18.5t11 7.5t16.5 -15.5t22.5 -15.5q23 0 36 49t13 67.5t-2.5 18.5t-4.5 -2l-29 -23l-4 15q63 50 73 67q6 16 17 16q7 0 7 -5t-7 -21.5t-18.5 -74.5t-11.5 -67t5 -9q70 43 148 107z
M225 316q0 -17 -39.5 -38t-81.5 -36q-6 0 -6 7.5t17.5 13.5t43 25t34.5 30t20.5 11t11.5 -13z" />
    <glyph glyph-name="Scircumflex" unicode="&#x15c;" horiz-adv-x="548" 
d="M160 454q29 20 36.5 30t18 10t19.5 -9q3 -4 6.5 -27.5t17.5 -44.5q2 -4 2 -5q0 -5 -6 -5t-15 8.5t-18 27.5t-9 20q-24 -22 -111 -52q-6 0 -6 7.5t18 13.5t47 26zM325 99q-24 32 -62 89q-263 26 -263 110q0 19 19.5 31t59.5 12q100 0 199 -127q100 -10 227 -10h11
q128 77 238 155q45 82 78 135.5t80 111.5q93 118 196 118q27 0 27 -24q0 -58 -96 -152t-255 -202q-48 -92 -72 -134q140 11 202 34h3q4 0 4 -5.5t-7 -15.5q-75 -23 -216 -36q-54 -93 -104.5 -144.5t-101.5 -51.5q-82 0 -155 91q-143 -72 -253 -110q-15 -5 -34.5 -5t-19.5 15
q0 8 8 14.5t21 6.5q80 0 266 94zM516 179q-76 -43 -150 -81q67 -83 122 -83q41 0 81.5 44t89.5 127q-61 -5 -143 -7zM1080 700q-69 0 -139 -92q-58 -78 -127 -206q126 93 202 169.5t76 118.5q0 10 -12 10zM48 302q0 -57 193 -83q-78 104 -157 104q-36 0 -36 -21zM354 113
q62 33 119 66h-4q-87 0 -168 6q38 -53 53 -72zM727 308q-54 -36 -168 -104q77 2 113 5q19 33 55 99z" />
    <glyph glyph-name="scircumflex" unicode="&#x15d;" horiz-adv-x="479" 
d="M121 289q29 20 36.5 30t18 10t19.5 -9q3 -4 6.5 -27.5t17.5 -44.5q2 -4 2 -5q0 -5 -6 -5t-15 8.5t-18 27.5t-9 20q-24 -22 -111 -52q-6 0 -6 7.5t18 13.5t47 26zM310 166q8 5 13.5 5t5.5 -7v-2q-77 -65 -162.5 -122t-108.5 -57t-38.5 8.5t-15.5 19.5t6 18.5t11 7.5
t16.5 -15.5t22.5 -15.5q23 0 36 49t13 67.5t-2.5 18.5t-4.5 -2l-29 -23l-4 15q63 50 73 67q6 16 17 16q7 0 7 -5t-7 -21.5t-18.5 -74.5t-11.5 -67t5 -9q70 43 148 107z" />
    <glyph glyph-name="Scedilla" unicode="&#x15e;" horiz-adv-x="548" 
d="M325 99q-24 32 -62 89q-263 26 -263 110q0 19 19.5 31t59.5 12q100 0 199 -127q100 -10 227 -10h11q128 77 238 155q45 82 78 135.5t80 111.5q93 118 196 118q27 0 27 -24q0 -58 -96 -152t-255 -202q-48 -92 -72 -134q140 11 202 34h3q4 0 4 -5.5t-7 -15.5
q-75 -23 -216 -36q-54 -93 -104.5 -144.5t-101.5 -51.5q-82 0 -155 91q-143 -72 -253 -110q-15 -5 -34.5 -5t-19.5 15q0 8 8 14.5t21 6.5q80 0 266 94zM516 179q-76 -43 -150 -81q67 -83 122 -83q41 0 81.5 44t89.5 127q-61 -5 -143 -7zM1080 700q-69 0 -139 -92
q-58 -78 -127 -206q126 93 202 169.5t76 118.5q0 10 -12 10zM48 302q0 -57 193 -83q-78 104 -157 104q-36 0 -36 -21zM354 113q62 33 119 66h-4q-87 0 -168 6q38 -53 53 -72zM727 308q-54 -36 -168 -104q77 2 113 5q19 33 55 99zM253 -77q-8 0 -13 4t-5 8q0 7 10 7
q59 0 99.5 -19t40.5 -56q0 -24 -16 -40t-33.5 -22t-46.5 -13.5t-38.5 -11t-17 -13.5t-10 -10t-2.5 7q0 29 22 43t49 16.5t49 14t22 33.5q0 52 -110 52z" />
    <glyph glyph-name="scedilla" unicode="&#x15f;" horiz-adv-x="479" 
d="M310 166q8 5 13.5 5t5.5 -7v-2q-77 -65 -162.5 -122t-108.5 -57t-38.5 8.5t-15.5 19.5t6 18.5t11 7.5t16.5 -15.5t22.5 -15.5q23 0 36 49t13 67.5t-2.5 18.5t-4.5 -2l-29 -23l-4 15q63 50 73 67q6 16 17 16q7 0 7 -5t-7 -21.5t-18.5 -74.5t-11.5 -67t5 -9q70 43 148 107z
M215 -77q-8 0 -13 4t-5 8q0 7 10 7q59 0 99.5 -19t40.5 -56q0 -24 -16 -40t-33.5 -22t-46.5 -13.5t-38.5 -11t-17 -13.5t-10 -10t-2.5 7q0 29 22 43t49 16.5t49 14t22 33.5q0 52 -110 52z" />
    <glyph glyph-name="Scaron" unicode="&#x160;" horiz-adv-x="791" 
d="M325 99q-24 32 -62 89q-263 26 -263 110q0 19 19.5 31t59.5 12q100 0 199 -127q100 -10 227 -10h11q128 77 238 155q45 82 78 135.5t80 111.5q93 118 196 118q27 0 27 -24q0 -58 -96 -152t-255 -202q-48 -92 -72 -134q140 11 202 34h3q4 0 4 -5.5t-7 -15.5
q-75 -23 -216 -36q-54 -93 -104.5 -144.5t-101.5 -51.5q-82 0 -155 91q-143 -72 -253 -110q-15 -5 -34.5 -5t-19.5 15q0 8 8 14.5t21 6.5q80 0 266 94zM516 179q-76 -43 -150 -81q67 -83 122 -83q41 0 81.5 44t89.5 127q-61 -5 -143 -7zM1080 700q-69 0 -139 -92
q-58 -78 -127 -206q126 93 202 169.5t76 118.5q0 10 -12 10zM48 302q0 -57 193 -83q-78 104 -157 104q-36 0 -36 -21zM354 113q62 33 119 66h-4q-87 0 -168 6q38 -53 53 -72zM727 308q-54 -36 -168 -104q77 2 113 5q19 33 55 99zM1175 789q-29 -20 -36.5 -30t-18 -10
t-19.5 9q-3 4 -6.5 27.5t-17.5 44.5q-2 4 -2 5q0 5 6 5t15 -8.5t18 -27.5t9 -20q24 22 111 52q6 0 6 -7.5t-18 -13.5t-47 -26z" />
    <glyph glyph-name="scaron" unicode="&#x161;" horiz-adv-x="199" 
d="M231 277q-29 -20 -36.5 -30t-18 -10t-19.5 9q-3 4 -6.5 27.5t-17.5 44.5q-2 4 -2 5q0 5 6 5t15 -8.5t18 -27.5t9 -20q24 22 111 52q6 0 6 -7.5t-18 -13.5t-47 -26zM310 166q8 5 13.5 5t5.5 -7v-2q-77 -65 -162.5 -122t-108.5 -57t-38.5 8.5t-15.5 19.5t6 18.5t11 7.5
t16.5 -15.5t22.5 -15.5q23 0 36 49t13 67.5t-2.5 18.5t-4.5 -2l-29 -23l-4 15q63 50 73 67q6 16 17 16q7 0 7 -5t-7 -21.5t-18.5 -74.5t-11.5 -67t5 -9q70 43 148 107z" />
    <glyph glyph-name="uni0162" unicode="&#x162;" horiz-adv-x="556" 
d="M268 594l-222 11q-2 0 -9 -6t-12 -6t-7 1q-59 21 -59 51q0 15 17 15q10 0 129.5 -15.5t257.5 -15.5t265 15q135 117 268 117q55 0 55 -26q0 -68 -308 -113q-102 -102 -247 -333q-54 -85 -107 -164q-117 -174 -191 -174q-27 0 -27 23.5t20 54.5q19 30 30 30h1q13 0 13 -15
l-4 -19q0 -5 4 -5q53 0 180 216q51 87 130 198t153 182q-173 -22 -330 -22zM872 742q-96 0 -199 -92q74 11 127.5 27t75.5 30t22 24.5t-26 10.5zM266 -77q-8 0 -13 4t-5 8q0 7 10 7q59 0 99.5 -19t40.5 -56q0 -24 -16 -40t-33.5 -22t-46.5 -13.5t-38.5 -11t-17 -13.5
t-10 -10t-2.5 7q0 29 22 43t49 16.5t49 14t22 33.5q0 52 -110 52z" />
    <glyph glyph-name="uni0163" unicode="&#x163;" horiz-adv-x="360" 
d="M651 424l-143 7q-88 0 -175 -7l5 -20q0 -11 -65 -83.5t-130 -158t-65 -126.5q0 -16 11.5 -16t52.5 28q76 50 139 101l22 18q7 5 12 5t5 -6v-3q4 0 -53.5 -44t-123 -88t-82.5 -44q-29 0 -29 26q0 38 42.5 105t93 126.5t96 112.5t49.5 65q-110 -10 -169 -24l-20 -4
q-8 -1 -8 -15q0 -6 -14 -6t-34.5 6.5t-20.5 18.5t20 16q148 26 210 31.5t82.5 7t64 2.5t58.5 1q45 2 105.5 2t73.5 -5t13 -19q0 -10 -23 -10zM207 -77q-8 0 -13 4t-5 8q0 7 10 7q59 0 99.5 -19t40.5 -56q0 -24 -16 -40t-33.5 -22t-46.5 -13.5t-38.5 -11t-17 -13.5t-10 -10
t-2.5 7q0 29 22 43t49 16.5t49 14t22 33.5q0 52 -110 52z" />
    <glyph glyph-name="Tcaron" unicode="&#x164;" horiz-adv-x="556" 
d="M190 442q-29 -20 -36.5 -30t-18 -10t-19.5 9q-3 4 -6.5 27.5t-17.5 44.5q-2 4 -2 5q0 5 6 5t15 -8.5t18 -27.5t9 -20q24 22 111 52q6 0 6 -7.5t-18 -13.5t-47 -26zM268 594l-222 11q-2 0 -9 -6t-12 -6t-7 1q-59 21 -59 51q0 15 17 15q10 0 129.5 -15.5t257.5 -15.5
t265 15q135 117 268 117q55 0 55 -26q0 -68 -308 -113q-102 -102 -247 -333q-54 -85 -107 -164q-117 -174 -191 -174q-27 0 -27 23.5t20 54.5q19 30 30 30h1q13 0 13 -15l-4 -19q0 -5 4 -5q53 0 180 216q51 87 130 198t153 182q-173 -22 -330 -22zM872 742q-96 0 -199 -92
q74 11 127.5 27t75.5 30t22 24.5t-26 10.5z" />
    <glyph glyph-name="tcaron" unicode="&#x165;" horiz-adv-x="360" 
d="M246 612q11 32 20.5 77.5t12.5 70.5h87v-9q-6 -26 -27 -71t-45 -80h-48v12zM651 424l-143 7q-88 0 -175 -7l5 -20q0 -11 -65 -83.5t-130 -158t-65 -126.5q0 -16 11.5 -16t52.5 28q76 50 139 101l22 18q7 5 12 5t5 -6v-3q4 0 -53.5 -44t-123 -88t-82.5 -44q-29 0 -29 26
q0 38 42.5 105t93 126.5t96 112.5t49.5 65q-110 -10 -169 -24l-20 -4q-8 -1 -8 -15q0 -6 -14 -6t-34.5 6.5t-20.5 18.5t20 16q148 26 210 31.5t82.5 7t64 2.5t58.5 1q45 2 105.5 2t73.5 -5t13 -19q0 -10 -23 -10z" />
    <glyph glyph-name="Tbar" unicode="&#x166;" horiz-adv-x="556" 
d="M232 399v235h-222v80h535v-80h-223v-235h148v-74h-148v-325h-90v325h-149v74h149z" />
    <glyph glyph-name="tbar" unicode="&#x167;" horiz-adv-x="360" 
d="M266 62q42 0 73 11v-67q-13 -6 -39 -11t-54 -5q-154 0 -154 171v119h-68v66h68v122h-76v42l77 35l35 114h52v-123h155v-68h-155v-122h146v-66h-146v-114q0 -52 21 -78t65 -26z" />
    <glyph glyph-name="Utilde" unicode="&#x168;" horiz-adv-x="730" 
d="M311 444l-94 -10q-22 0 -39 13.5t-24 37.5q0 5 4.5 5t7.5 -6q15 -24 49 -24l84 9q25 0 44.5 -11t19.5 -34q0 -6 -4.5 -6t-7.5 6q-13 20 -40 20zM288 441l-14 4q-2 0 -22 -16.5t-46 -35.5t-63 -35.5t-69 -16.5q-73 0 -73 53q0 40 43 100.5t107.5 115.5t149 94.5
t157.5 39.5q98 0 98 -67q0 -52 -58.5 -147.5t-129.5 -182.5q-187 -231 -187 -284q0 -28 36 -28q74 0 221 118q36 89 112.5 196.5t154 181.5t116.5 74q19 0 19 -18q0 -46 -111 -176.5t-246 -244.5q-25 -62 -25 -97q0 -63 69 -63q25 0 61 19t44.5 27.5t11.5 8.5t3 -4
q0 -21 -52.5 -46.5t-105.5 -25.5q-75 0 -75 70q0 29 12 65q-156 -119 -241 -119q-25 0 -41 16t-16 41.5t39.5 85.5t96 131t112.5 144q135 176 135 248q0 54 -77 54q-60 0 -131.5 -36t-127 -85.5t-93 -103t-37.5 -88.5q0 -41 53 -41q42 0 86 27.5t73.5 63.5t48 64.5
t21.5 37.5q3 12 20 12q5 0 9.5 -4t4.5 -9.5t-28.5 -52t-32 -56t-12.5 -9.5zM792 573q-28 0 -128 -123q-101 -125 -161 -241q114 102 203.5 211t89.5 146q0 7 -4 7z" />
    <glyph glyph-name="utilde" unicode="&#x169;" horiz-adv-x="618" 
d="M254 279l-94 -10q-22 0 -39 13.5t-24 37.5q0 5 4.5 5t7.5 -6q15 -24 49 -24l84 9q25 0 44.5 -11t19.5 -34q0 -6 -4.5 -6t-7.5 6q-13 20 -40 20zM132 13q0 15 14.5 39t15.5 28t-2 4t-8.5 -5.5t-61 -42t-76.5 -36.5q-14 0 -14 18t56 93t79 75q5 0 9.5 -4.5t4.5 -7
t-51.5 -61.5t-51.5 -76q0 -4 4 -4q19 0 82 51t89.5 79t41.5 28t15 -13q0 -8 -6 -16t-22.5 -28.5t-30.5 -38.5q-39 -50 -39 -62.5t10.5 -12.5t51.5 28q76 50 139 101l22 18q7 5 12 5t5 -6v-3q4 0 -53.5 -44t-123 -88t-82.5 -44q-29 0 -29 26z" />
    <glyph glyph-name="Umacron" unicode="&#x16a;" horiz-adv-x="730" 
d="M217 842h297v-71h-297v71zM288 441l-14 4q-2 0 -22 -16.5t-46 -35.5t-63 -35.5t-69 -16.5q-73 0 -73 53q0 40 43 100.5t107.5 115.5t149 94.5t157.5 39.5q98 0 98 -67q0 -52 -58.5 -147.5t-129.5 -182.5q-187 -231 -187 -284q0 -28 36 -28q74 0 221 118
q36 89 112.5 196.5t154 181.5t116.5 74q19 0 19 -18q0 -46 -111 -176.5t-246 -244.5q-25 -62 -25 -97q0 -63 69 -63q25 0 61 19t44.5 27.5t11.5 8.5t3 -4q0 -21 -52.5 -46.5t-105.5 -25.5q-75 0 -75 70q0 29 12 65q-156 -119 -241 -119q-25 0 -41 16t-16 41.5t39.5 85.5
t96 131t112.5 144q135 176 135 248q0 54 -77 54q-60 0 -131.5 -36t-127 -85.5t-93 -103t-37.5 -88.5q0 -41 53 -41q42 0 86 27.5t73.5 63.5t48 64.5t21.5 37.5q3 12 20 12q5 0 9.5 -4t4.5 -9.5t-28.5 -52t-32 -56t-12.5 -9.5zM792 573q-28 0 -128 -123q-101 -125 -161 -241
q114 102 203.5 211t89.5 146q0 7 -4 7z" />
    <glyph glyph-name="umacron" unicode="&#x16b;" horiz-adv-x="618" 
d="M159 677h297v-71h-297v71zM132 13q0 15 14.5 39t15.5 28t-2 4t-8.5 -5.5t-61 -42t-76.5 -36.5q-14 0 -14 18t56 93t79 75q5 0 9.5 -4.5t4.5 -7t-51.5 -61.5t-51.5 -76q0 -4 4 -4q19 0 82 51t89.5 79t41.5 28t15 -13q0 -8 -6 -16t-22.5 -28.5t-30.5 -38.5
q-39 -50 -39 -62.5t10.5 -12.5t51.5 28q76 50 139 101l22 18q7 5 12 5t5 -6v-3q4 0 -53.5 -44t-123 -88t-82.5 -44q-29 0 -29 26z" />
    <glyph glyph-name="Ubreve" unicode="&#x16c;" horiz-adv-x="730" 
d="M460 484q-23 -30 -55 -50.5t-58 -20.5q-49 0 -52 75q0 5 6 5t8 -2q9 -46 45 -46q31 0 100 44q6 0 6 -5zM288 441l-14 4q-2 0 -22 -16.5t-46 -35.5t-63 -35.5t-69 -16.5q-73 0 -73 53q0 40 43 100.5t107.5 115.5t149 94.5t157.5 39.5q98 0 98 -67q0 -52 -58.5 -147.5
t-129.5 -182.5q-187 -231 -187 -284q0 -28 36 -28q74 0 221 118q36 89 112.5 196.5t154 181.5t116.5 74q19 0 19 -18q0 -46 -111 -176.5t-246 -244.5q-25 -62 -25 -97q0 -63 69 -63q25 0 61 19t44.5 27.5t11.5 8.5t3 -4q0 -21 -52.5 -46.5t-105.5 -25.5q-75 0 -75 70
q0 29 12 65q-156 -119 -241 -119q-25 0 -41 16t-16 41.5t39.5 85.5t96 131t112.5 144q135 176 135 248q0 54 -77 54q-60 0 -131.5 -36t-127 -85.5t-93 -103t-37.5 -88.5q0 -41 53 -41q42 0 86 27.5t73.5 63.5t48 64.5t21.5 37.5q3 12 20 12q5 0 9.5 -4t4.5 -9.5t-28.5 -52
t-32 -56t-12.5 -9.5zM792 573q-28 0 -128 -123q-101 -125 -161 -241q114 102 203.5 211t89.5 146q0 7 -4 7z" />
    <glyph glyph-name="ubreve" unicode="&#x16d;" horiz-adv-x="618" 
d="M402 319q-23 -30 -55 -50.5t-58 -20.5q-49 0 -52 75q0 5 6 5t8 -2q9 -46 45 -46q31 0 100 44q6 0 6 -5zM132 13q0 15 14.5 39t15.5 28t-2 4t-8.5 -5.5t-61 -42t-76.5 -36.5q-14 0 -14 18t56 93t79 75q5 0 9.5 -4.5t4.5 -7t-51.5 -61.5t-51.5 -76q0 -4 4 -4q19 0 82 51
t89.5 79t41.5 28t15 -13q0 -8 -6 -16t-22.5 -28.5t-30.5 -38.5q-39 -50 -39 -62.5t10.5 -12.5t51.5 28q76 50 139 101l22 18q7 5 12 5t5 -6v-3q4 0 -53.5 -44t-123 -88t-82.5 -44q-29 0 -29 26z" />
    <glyph glyph-name="Uring" unicode="&#x16e;" horiz-adv-x="730" 
d="M219.5 480.5q18.5 21.5 46 21.5t27.5 -29q0 -15 -19.5 -35.5t-46 -20.5t-26.5 26q0 16 18.5 37.5zM277 470q0 17 -17.5 17t-30 -14t-12.5 -23q0 -18 17.5 -18t30 13.5t12.5 24.5zM288 441l-14 4q-2 0 -22 -16.5t-46 -35.5t-63 -35.5t-69 -16.5q-73 0 -73 53
q0 40 43 100.5t107.5 115.5t149 94.5t157.5 39.5q98 0 98 -67q0 -52 -58.5 -147.5t-129.5 -182.5q-187 -231 -187 -284q0 -28 36 -28q74 0 221 118q36 89 112.5 196.5t154 181.5t116.5 74q19 0 19 -18q0 -46 -111 -176.5t-246 -244.5q-25 -62 -25 -97q0 -63 69 -63
q25 0 61 19t44.5 27.5t11.5 8.5t3 -4q0 -21 -52.5 -46.5t-105.5 -25.5q-75 0 -75 70q0 29 12 65q-156 -119 -241 -119q-25 0 -41 16t-16 41.5t39.5 85.5t96 131t112.5 144q135 176 135 248q0 54 -77 54q-60 0 -131.5 -36t-127 -85.5t-93 -103t-37.5 -88.5q0 -41 53 -41
q42 0 86 27.5t73.5 63.5t48 64.5t21.5 37.5q3 12 20 12q5 0 9.5 -4t4.5 -9.5t-28.5 -52t-32 -56t-12.5 -9.5zM792 573q-28 0 -128 -123q-101 -125 -161 -241q114 102 203.5 211t89.5 146q0 7 -4 7z" />
    <glyph glyph-name="uring" unicode="&#x16f;" horiz-adv-x="618" 
d="M161.5 315.5q18.5 21.5 46 21.5t27.5 -29q0 -15 -19.5 -35.5t-46 -20.5t-26.5 26q0 16 18.5 37.5zM219 305q0 17 -17.5 17t-30 -14t-12.5 -23q0 -18 17.5 -18t30 13.5t12.5 24.5zM132 13q0 15 14.5 39t15.5 28t-2 4t-8.5 -5.5t-61 -42t-76.5 -36.5q-14 0 -14 18t56 93
t79 75q5 0 9.5 -4.5t4.5 -7t-51.5 -61.5t-51.5 -76q0 -4 4 -4q19 0 82 51t89.5 79t41.5 28t15 -13q0 -8 -6 -16t-22.5 -28.5t-30.5 -38.5q-39 -50 -39 -62.5t10.5 -12.5t51.5 28q76 50 139 101l22 18q7 5 12 5t5 -6v-3q4 0 -53.5 -44t-123 -88t-82.5 -44q-29 0 -29 26z" />
    <glyph glyph-name="Uhungarumlaut" unicode="&#x170;" horiz-adv-x="730" 
d="M375 481q0 -17 -39.5 -38t-81.5 -36q-6 0 -6 7.5t17.5 13.5t43 25t34.5 30t20.5 11t11.5 -13zM450 483q0 -17 -39.5 -38t-81.5 -36q-6 0 -6 7.5t17.5 13.5t43 25t34 30t20.5 11t12 -13zM288 441l-14 4q-2 0 -22 -16.5t-46 -35.5t-63 -35.5t-69 -16.5q-73 0 -73 53
q0 40 43 100.5t107.5 115.5t149 94.5t157.5 39.5q98 0 98 -67q0 -52 -58.5 -147.5t-129.5 -182.5q-187 -231 -187 -284q0 -28 36 -28q74 0 221 118q36 89 112.5 196.5t154 181.5t116.5 74q19 0 19 -18q0 -46 -111 -176.5t-246 -244.5q-25 -62 -25 -97q0 -63 69 -63
q25 0 61 19t44.5 27.5t11.5 8.5t3 -4q0 -21 -52.5 -46.5t-105.5 -25.5q-75 0 -75 70q0 29 12 65q-156 -119 -241 -119q-25 0 -41 16t-16 41.5t39.5 85.5t96 131t112.5 144q135 176 135 248q0 54 -77 54q-60 0 -131.5 -36t-127 -85.5t-93 -103t-37.5 -88.5q0 -41 53 -41
q42 0 86 27.5t73.5 63.5t48 64.5t21.5 37.5q3 12 20 12q5 0 9.5 -4t4.5 -9.5t-28.5 -52t-32 -56t-12.5 -9.5zM792 573q-28 0 -128 -123q-101 -125 -161 -241q114 102 203.5 211t89.5 146q0 7 -4 7z" />
    <glyph glyph-name="uhungarumlaut" unicode="&#x171;" horiz-adv-x="618" 
d="M318 316q0 -17 -39.5 -38t-81.5 -36q-6 0 -6 7.5t17.5 13.5t43 25t34.5 30t20.5 11t11.5 -13zM393 318q0 -17 -39.5 -38t-81.5 -36q-6 0 -6 7.5t17.5 13.5t43 25t34 30t20.5 11t12 -13zM132 13q0 15 14.5 39t15.5 28t-2 4t-8.5 -5.5t-61 -42t-76.5 -36.5q-14 0 -14 18
t56 93t79 75q5 0 9.5 -4.5t4.5 -7t-51.5 -61.5t-51.5 -76q0 -4 4 -4q19 0 82 51t89.5 79t41.5 28t15 -13q0 -8 -6 -16t-22.5 -28.5t-30.5 -38.5q-39 -50 -39 -62.5t10.5 -12.5t51.5 28q76 50 139 101l22 18q7 5 12 5t5 -6v-3q4 0 -53.5 -44t-123 -88t-82.5 -44q-29 0 -29 26
z" />
    <glyph glyph-name="Uogonek" unicode="&#x172;" horiz-adv-x="730" 
d="M430 -70q-43 -23 -71 -23q-51 0 -51 29q0 31 59 68l8 -11q-34 -31 -34 -49q0 -16 26.5 -16t62.5 11q1 -2 1 -5t-1 -4zM288 441l-14 4q-2 0 -22 -16.5t-46 -35.5t-63 -35.5t-69 -16.5q-73 0 -73 53q0 40 43 100.5t107.5 115.5t149 94.5t157.5 39.5q98 0 98 -67
q0 -52 -58.5 -147.5t-129.5 -182.5q-187 -231 -187 -284q0 -28 36 -28q74 0 221 118q36 89 112.5 196.5t154 181.5t116.5 74q19 0 19 -18q0 -46 -111 -176.5t-246 -244.5q-25 -62 -25 -97q0 -63 69 -63q25 0 61 19t44.5 27.5t11.5 8.5t3 -4q0 -21 -52.5 -46.5t-105.5 -25.5
q-75 0 -75 70q0 29 12 65q-156 -119 -241 -119q-25 0 -41 16t-16 41.5t39.5 85.5t96 131t112.5 144q135 176 135 248q0 54 -77 54q-60 0 -131.5 -36t-127 -85.5t-93 -103t-37.5 -88.5q0 -41 53 -41q42 0 86 27.5t73.5 63.5t48 64.5t21.5 37.5q3 12 20 12q5 0 9.5 -4
t4.5 -9.5t-28.5 -52t-32 -56t-12.5 -9.5zM792 573q-28 0 -128 -123q-101 -125 -161 -241q114 102 203.5 211t89.5 146q0 7 -4 7z" />
    <glyph glyph-name="uogonek" unicode="&#x173;" horiz-adv-x="618" 
d="M532 -70q-43 -23 -71 -23q-51 0 -51 29q0 31 59 68l8 -11q-34 -31 -34 -49q0 -16 26.5 -16t62.5 11q1 -2 1 -5t-1 -4zM132 13q0 15 14.5 39t15.5 28t-2 4t-8.5 -5.5t-61 -42t-76.5 -36.5q-14 0 -14 18t56 93t79 75q5 0 9.5 -4.5t4.5 -7t-51.5 -61.5t-51.5 -76q0 -4 4 -4
q19 0 82 51t89.5 79t41.5 28t15 -13q0 -8 -6 -16t-22.5 -28.5t-30.5 -38.5q-39 -50 -39 -62.5t10.5 -12.5t51.5 28q76 50 139 101l22 18q7 5 12 5t5 -6v-3q4 0 -53.5 -44t-123 -88t-82.5 -44q-29 0 -29 26z" />
    <glyph glyph-name="Wcircumflex" unicode="&#x174;" horiz-adv-x="930" 
d="M338 454q29 20 36.5 30t18 10t19.5 -9q3 -4 6.5 -27.5t17.5 -44.5q2 -4 2 -5q0 -5 -6 -5t-15 8.5t-18 27.5t-9 20q-24 -22 -111 -52q-6 0 -6 7.5t18 13.5t47 26zM454 -9q-12 0 -12 14q0 31 105.5 247.5t105.5 250.5q0 14 -15 14q-43 0 -191 -131q-68 -154 -187 -304
t-181 -150q-21 0 -21 25q17 73 111 183t220 219q52 119 52 186q0 174 -245 174q-66 0 -115 -11q-94 -19 -102 -67q2 -56 111 -81q46 -10 92 -21t78 -34t32 -59q0 -8 -6 -21.5t-14.5 -13.5t-8.5 10q0 6 4.5 13t4.5 11q0 28 -118 57q-50 12 -99.5 27.5t-84 43t-34.5 60.5
t32.5 54.5t81.5 31.5q95 19 168 19q124 0 198 -50t74 -148q0 -45 -29 -121q161 129 206 129q13 0 22.5 -10t9.5 -24.5t-19 -65.5t-86.5 -196t-67.5 -147t3 -4q6 0 19 18q97 135 291 313.5t336 240.5q29 12 44 12t15 -10.5t-13 -18t-44.5 -29t-41.5 -30.5t-14 -9t-5 6t-4.5 6
t-11.5 -3q-121 -57 -308 -237q-197 -191 -278 -310q-29 -42 -41.5 -50.5t-18.5 -8.5zM106 -32q37 0 117.5 107.5t144.5 236.5q-111 -107 -189.5 -203t-78.5 -135q0 -6 6 -6z" />
    <glyph glyph-name="wcircumflex" unicode="&#x175;" horiz-adv-x="786" 
d="M268 289q29 20 36.5 30t18 10t19.5 -9q3 -4 6.5 -27.5t17.5 -44.5q2 -4 2 -5q0 -5 -6 -5t-15 8.5t-18 27.5t-9 20q-24 -22 -111 -52q-6 0 -6 7.5t18 13.5t47 26zM353 132l-6 32q0 8 4 14t13 6t14.5 -13.5t5.5 -27.5q0 -51 -56 -105t-116 -54q-14 0 -22 8.5t-8 22
t13.5 39.5t13.5 32t-3 6t-5 -2q-100 -84 -147 -84q-28 0 -28 24q0 38 56.5 106.5t80.5 68.5q15 0 15 -5.5t-18.5 -23.5t-56 -64.5t-37.5 -67.5q0 -13 20 -13t88 54.5t110 99.5q16 16 27.5 16t11.5 -7.5t-4.5 -14.5t-30.5 -37q-65 -79 -65 -124q0 -12 9 -12q37 0 79 39.5
t42 86.5z" />
    <glyph glyph-name="Ycircumflex" unicode="&#x176;" horiz-adv-x="565" 
d="M158 454q29 20 36.5 30t18 10t19.5 -9q3 -4 6.5 -27.5t17.5 -44.5q2 -4 2 -5q0 -5 -6 -5t-15 8.5t-18 27.5t-9 20q-24 -22 -111 -52q-6 0 -6 7.5t18 13.5t47 26zM715 152q9 0 9 -12q0 -31 -176 -145.5t-292 -169.5l-24 -33q70 -27 70 -87.5t-60 -139.5t-130 -131.5
t-109.5 -52.5t-39.5 37q0 59 209 363q-3 1 -10 1q-61 -9 -63 -9q-17 0 -17 10.5t27 13.5q36 8 97 34q62 89 163 224q-125 -83 -177 -83q-21 0 -31.5 11.5t-10.5 45t40 95t97.5 128t115 135t97.5 136t40 113.5q0 59 -84 59q-69 0 -163.5 -48t-166.5 -124.5t-72 -145.5
q0 -47 55 -47q40 0 84 22.5t77 53.5q69 64 87 99q9 16 19.5 16t10.5 -9q0 -20 -48 -69.5t-121 -94.5t-121 -45t-65 23t-17 55q0 56 72.5 135.5t181 139.5t198.5 60q113 0 113 -99q0 -49 -38.5 -116t-94 -132t-111.5 -129q-132 -151 -132 -219q0 -22 28 -22q44 0 164 92
q157 206 281.5 342.5t164.5 136.5q28 0 28 -21q0 -46 -116 -167.5t-263 -237.5q-112 -146 -203 -274q117 59 235.5 137t177.5 137q8 8 14 8zM214.5 -422q49.5 71 49.5 121t-48 70q-209 -299 -209 -342q0 -17 13 -17q28 0 86.5 48.5t108 119.5zM824 540q-27 0 -275 -321
q113 102 198 195.5t85 118.5q0 7 -8 7z" />
    <glyph glyph-name="ycircumflex" unicode="&#x177;" horiz-adv-x="509" 
d="M133 289q29 20 36.5 30t18 10t19.5 -9q3 -4 6.5 -27.5t17.5 -44.5q2 -4 2 -5q0 -5 -6 -5t-15 8.5t-18 27.5t-9 20q-24 -22 -111 -52q-6 0 -6 7.5t18 13.5t47 26zM66 -114l13 17q16 19 20 25q-29 -13 -46 -17.5t-17 -6.5zM71 -174q0 10 -3 21q-147 -184 -147 -220
q0 -3 3 -3q17 0 52 33t65 82t30 87zM-9 -97q3 8 4.5 9t7.5 1.5t38 9t76 27.5q128 163 135.5 177.5t7.5 17.5t-4 3t-9 -7q-2 -1 -26.5 -23.5t-48 -41.5t-54.5 -36.5t-53 -17.5t-22 16q1 37 50.5 102t66.5 65t17 -9q0 -5 -45.5 -62t-45.5 -71t9 -14q18 0 103.5 73t105.5 73
q6 0 11.5 -6t5.5 -13q0 -22 -144 -197q135 75 251 170l22 18q8 5 13 5t5 -5l-1 -4q5 0 -53 -44t-107 -78t-151 -86l-71 -87q14 -20 14 -47q0 -46 -39 -102.5t-87.5 -94t-79.5 -37.5q-9 0 -16.5 6.5t-7.5 18t11.5 34.5t34 53.5t42.5 55t51 61.5t46 55q-18 16 -40.5 20
t-22.5 12z" />
    <glyph glyph-name="Ydieresis" unicode="&#x178;" horiz-adv-x="709" 
d="M715 152q9 0 9 -12q0 -31 -176 -145.5t-292 -169.5l-24 -33q70 -27 70 -87.5t-60 -139.5t-130 -131.5t-109.5 -52.5t-39.5 37q0 59 209 363q-3 1 -10 1q-61 -9 -63 -9q-17 0 -17 10.5t27 13.5q36 8 97 34q62 89 163 224q-125 -83 -177 -83q-21 0 -31.5 11.5t-10.5 45
t40 95t97.5 128t115 135t97.5 136t40 113.5q0 59 -84 59q-69 0 -163.5 -48t-166.5 -124.5t-72 -145.5q0 -47 55 -47q40 0 84 22.5t77 53.5q69 64 87 99q9 16 19.5 16t10.5 -9q0 -20 -48 -69.5t-121 -94.5t-121 -45t-65 23t-17 55q0 56 72.5 135.5t181 139.5t198.5 60
q113 0 113 -99q0 -49 -38.5 -116t-94 -132t-111.5 -129q-132 -151 -132 -219q0 -22 28 -22q44 0 164 92q157 206 281.5 342.5t164.5 136.5q28 0 28 -21q0 -46 -116 -167.5t-263 -237.5q-112 -146 -203 -274q117 59 235.5 137t177.5 137q8 8 14 8zM214.5 -422
q49.5 71 49.5 121t-48 70q-209 -299 -209 -342q0 -17 13 -17q28 0 86.5 48.5t108 119.5zM824 540q-27 0 -275 -321q113 102 198 195.5t85 118.5q0 7 -8 7zM729.5 721q5.5 -6 5.5 -17t-15 -28t-26 -17t-16 6.5t-5 15t16 27.5t25.5 19t15 -6zM818.5 721q5.5 -6 5.5 -17
t-15 -28t-26 -17t-16 6.5t-5 15t16 27.5t25.5 19t15 -6z" />
    <glyph glyph-name="Zacute" unicode="&#x179;" horiz-adv-x="571" 
d="M722 419l2 19q0 30 -33 46.5t-83 21t-107.5 11t-107.5 14t-83 31t-33 61.5q0 63 81 96t196 33t215 -23t170 -71.5t70 -108.5t-85 -143q-148 -146 -460 -314q17 -7 75 -32q130 -47 165 -49q54 0 83.5 3t71 19.5t80.5 49.5q7 5 15.5 5t8.5 -7t-14 -20t-42 -28t-63 -28
q-83 -31 -178 -31q-55 0 -145.5 42.5t-108.5 48.5q-131 -67 -237 -110t-140 -43t-34 17q0 19 34.5 51t85.5 62.5t117 53t108 22.5t81 -13q134 79 246.5 159t195 166t82.5 138.5t-58.5 90.5t-143 56.5t-184 18.5t-172.5 -28.5t-73 -82.5q0 -24 32.5 -39t80.5 -20.5t105 -12.5
t105 -15t80.5 -27.5t32.5 -49.5q0 -50 -26 -50q-8 0 -8 10zM311 82q-64 0 -126.5 -28t-96.5 -60t-34 -49q0 -9 11 -9q28 0 114 38.5t196 100.5q-35 7 -64 7zM265 481q0 -17 -39.5 -38t-81.5 -36q-6 0 -6 7.5t17.5 13.5t43 25t34.5 30t20.5 11t11.5 -13z" />
    <glyph glyph-name="zacute" unicode="&#x17a;" horiz-adv-x="470" 
d="M-146 -392q24 0 80 56t107 135.5t58 134.5q-103 -67 -179.5 -151.5t-76.5 -159.5q0 -15 11 -15zM213 13q8 0 8 -7t-12 -12q-33 -12 -77 -40v-5q0 -60 -62 -150t-134.5 -153.5t-106.5 -63.5q-26 0 -26 29q0 42 28.5 91.5t74.5 95.5q90 93 195 159q-5 52 -67 56
q-15 0 -15 9q0 3 14 11.5t45 27.5t77 58.5t46 62.5q0 11 -10 11q-23 0 -88 -52l-31 -25l-4 15q12 9 27 21q90 74 134 74q27 0 27 -29q0 -59 -182 -160q-8 -4 -8 -8t2 -4q50 -13 61 -51q23 14 49.5 26.5t34.5 12.5zM225 316q0 -17 -39.5 -38t-81.5 -36q-6 0 -6 7.5t17.5 13.5
t43 25t34.5 30t20.5 11t11.5 -13z" />
    <glyph glyph-name="Zdotaccent" unicode="&#x17b;" horiz-adv-x="571" 
d="M469.5 484q5.5 -6 5.5 -17t-15 -28t-26 -17t-16 6.5t-5 15t16 27.5t25.5 19t15 -6zM722 419l2 19q0 30 -33 46.5t-83 21t-107.5 11t-107.5 14t-83 31t-33 61.5q0 63 81 96t196 33t215 -23t170 -71.5t70 -108.5t-85 -143q-148 -146 -460 -314q17 -7 75 -32
q130 -47 165 -49q54 0 83.5 3t71 19.5t80.5 49.5q7 5 15.5 5t8.5 -7t-14 -20t-42 -28t-63 -28q-83 -31 -178 -31q-55 0 -145.5 42.5t-108.5 48.5q-131 -67 -237 -110t-140 -43t-34 17q0 19 34.5 51t85.5 62.5t117 53t108 22.5t81 -13q134 79 246.5 159t195 166t82.5 138.5
t-58.5 90.5t-143 56.5t-184 18.5t-172.5 -28.5t-73 -82.5q0 -24 32.5 -39t80.5 -20.5t105 -12.5t105 -15t80.5 -27.5t32.5 -49.5q0 -50 -26 -50q-8 0 -8 10zM311 82q-64 0 -126.5 -28t-96.5 -60t-34 -49q0 -9 11 -9q28 0 114 38.5t196 100.5q-35 7 -64 7z" />
    <glyph glyph-name="zdotaccent" unicode="&#x17c;" horiz-adv-x="470" 
d="M421.5 319q5.5 -6 5.5 -17t-15 -28t-26 -17t-16 6.5t-5 15t16 27.5t25.5 19t15 -6zM-146 -392q24 0 80 56t107 135.5t58 134.5q-103 -67 -179.5 -151.5t-76.5 -159.5q0 -15 11 -15zM213 13q8 0 8 -7t-12 -12q-33 -12 -77 -40v-5q0 -60 -62 -150t-134.5 -153.5
t-106.5 -63.5q-26 0 -26 29q0 42 28.5 91.5t74.5 95.5q90 93 195 159q-5 52 -67 56q-15 0 -15 9q0 3 14 11.5t45 27.5t77 58.5t46 62.5q0 11 -10 11q-23 0 -88 -52l-31 -25l-4 15q12 9 27 21q90 74 134 74q27 0 27 -29q0 -59 -182 -160q-8 -4 -8 -8t2 -4q50 -13 61 -51
q23 14 49.5 26.5t34.5 12.5z" />
    <glyph glyph-name="Zcaron" unicode="&#x17d;" horiz-adv-x="980" 
d="M724 438l-2 -19q0 -10 8 -10q26 0 26 50q0 30 -32.5 49.5t-80.5 27.5t-105 15t-105 12.5t-80.5 20.5t-32.5 39q0 54 73 82.5t172.5 28.5t184 -18.5t143 -56.5t58.5 -90.5t-82.5 -138.5t-195 -166t-246.5 -159q-39 13 -81 13t-108 -22.5t-117 -53t-85.5 -62.5t-34.5 -51
q0 -17 34 -17t140 43t237 110q18 -6 108.5 -48.5t142 -42.5t99 9t82.5 22t63 28t42 28t14 20t-8.5 7t-15.5 -5q-56 -48 -105.5 -60t-105.5 -12t-93.5 11.5t-95.5 37t-75 32.5q312 168 460 314q85 83 85 143t-70 108.5t-170 71.5t-215 23t-196 -33t-81 -96q0 -38 33 -61.5
t83 -31t107.5 -14t107.5 -11t83 -21t33 -46.5zM311 82q29 0 64 -7q-110 -62 -196 -100.5t-114 -38.5q-11 0 -11 9q0 17 34 49t96.5 60t126.5 28zM886 813q-29 -20 -36.5 -30t-18 -10t-19.5 9q-3 4 -6.5 27.5t-17.5 44.5q-2 4 -2 5q0 5 6 5t15 -8.5t18 -27.5t9 -20
q24 22 111 52q6 0 6 -7.5t-18 -13.5t-47 -26z" />
    <glyph glyph-name="zcaron" unicode="&#x17e;" horiz-adv-x="236" 
d="M289 296q-29 -20 -36.5 -30t-18 -10t-19.5 9q-3 4 -6.5 27.5t-17.5 44.5q-2 4 -2 5q0 5 6 5t15 -8.5t18 -27.5t9 -20q24 22 111 52q6 0 6 -7.5t-18 -13.5t-47 -26zM-146 -392q24 0 80 56t107 135.5t58 134.5q-103 -67 -179.5 -151.5t-76.5 -159.5q0 -15 11 -15zM213 13
q8 0 8 -7t-12 -12q-33 -12 -77 -40v-5q0 -60 -62 -150t-134.5 -153.5t-106.5 -63.5q-26 0 -26 29q0 42 28.5 91.5t74.5 95.5q90 93 195 159q-5 52 -67 56q-15 0 -15 9q0 3 14 11.5t45 27.5t77 58.5t46 62.5q0 11 -10 11q-23 0 -88 -52l-31 -25l-4 15q12 9 27 21
q90 74 134 74q27 0 27 -29q0 -59 -182 -160q-8 -4 -8 -8t2 -4q50 -13 61 -51q23 14 49.5 26.5t34.5 12.5z" />
    <glyph glyph-name="longs" unicode="&#x17f;" horiz-adv-x="326" 
d="M261 692q-46 0 -67 -28.5t-21 -86.5v-577h-88v577q0 188 177 188q49 0 100 -19l-23 -69q-44 15 -78 15z" />
    <glyph glyph-name="uni0180" unicode="&#x180;" horiz-adv-x="615" 
d="M339 545q106 0 163.5 -73t57.5 -204q0 -133 -58.5 -205.5t-162.5 -72.5q-54 0 -96.5 19.5t-69.5 58.5h-7q-15 -59 -18 -68h-63v605h-76v66h76v89h88v-89h213v-66h-213v-30q0 -55 -5 -110h5q54 80 166 80zM324 472q-81 0 -116 -46t-35 -155v-4q0 -110 36 -157t117 -47
q72 0 107.5 53t35.5 153q0 102 -35.5 152.5t-109.5 50.5z" />
    <glyph glyph-name="uni0181" unicode="&#x181;" horiz-adv-x="729" 
d="M151 637q-61 0 -61 -50q0 -30 10 -54h-79q-4 10 -7.5 26.5t-3.5 28.5q0 65 34.5 95.5t106.5 30.5h230q144 0 207.5 -43t63.5 -134q0 -63 -34.5 -104.5t-101.5 -53.5v-5q82 -14 121 -57t39 -114q0 -96 -66 -149.5t-182 -53.5h-251v637h-26zM267 410h132q84 0 122 27t38 90
q0 59 -41.5 84.5t-132.5 25.5h-118v-227zM267 335v-259h144q86 0 127.5 33.5t41.5 100.5q0 64 -44 94.5t-132 30.5h-137z" />
    <glyph glyph-name="uni0182" unicode="&#x182;" horiz-adv-x="615" 
d="M564 209q0 -105 -63.5 -157t-194.5 -52h-209v714h424v-79h-334v-223h106q137 0 204 -48.5t67 -154.5zM187 77h110q92 0 133 31t41 101q0 68 -43 96.5t-146 28.5h-95v-257z" />
    <glyph glyph-name="uni0183" unicode="&#x183;" horiz-adv-x="615" 
d="M339 545q106 0 163.5 -73t57.5 -204q0 -133 -58.5 -205.5t-162.5 -72.5q-54 0 -96.5 19.5t-69.5 58.5h-7q-15 -59 -18 -68h-63v760h421v-74h-333v-111q0 -55 -5 -110h5q54 80 166 80zM324 472q-81 0 -116 -46t-35 -155v-4q0 -110 36 -157t117 -47q72 0 107.5 53t35.5 153
q0 102 -35.5 152.5t-109.5 50.5z" />
    <glyph glyph-name="uni0184" unicode="&#x184;" horiz-adv-x="634" 
d="M180 210q0 -77 37.5 -110t122.5 -33q80 0 115.5 35.5t35.5 102.5q0 69 -48 99t-140 30h-123v-124zM90 714h90v-302h134q129 0 199.5 -53t70.5 -154t-63.5 -158t-179.5 -57q-251 0 -251 220v504z" />
    <glyph glyph-name="uni0185" unicode="&#x185;" horiz-adv-x="611" 
d="M322 -10q-115 0 -177.5 72.5t-62.5 204.5v493h88v-185q0 -55 -5 -110h5q54 80 166 80q106 0 163.5 -73t57.5 -204q0 -134 -61 -206t-174 -72zM170 265q0 -96 40.5 -149t112.5 -53t107.5 53t35.5 153q0 102 -35.5 152.5t-109.5 50.5q-81 0 -116 -46t-35 -155v-6z" />
    <glyph glyph-name="uni0186" unicode="&#x186;" horiz-adv-x="631" 
d="M243 724q158 0 243 -96t85 -272q0 -110 -39.5 -192.5t-114.5 -128t-174 -45.5q-55 0 -98 6.5t-86 22.5v78q94 -28 170 -28q115 0 181 77t66 211q0 137 -63.5 212.5t-183.5 75.5q-77 0 -162 -39l-36 76q84 42 212 42z" />
    <glyph glyph-name="uni0187" unicode="&#x187;" horiz-adv-x="631" 
d="M403 645q-115 0 -181 -77t-66 -211q0 -138 64 -213t182 -75q76 0 171 28v-78q-45 -17 -87 -23t-97 -6q-158 0 -243 96t-85 272q0 110 41 193t118.5 128t183.5 45q61 0 117 -14v14q0 64 27 99t88 35q30 0 60 -13v-72q-24 10 -52 10q-47 0 -47 -48v-51l-36 -78
q-33 15 -71.5 27t-86.5 12z" />
    <glyph glyph-name="uni0188" unicode="&#x188;" horiz-adv-x="502" 
d="M300 -10q-116 0 -180.5 71t-64.5 204q0 135 65.5 208t185.5 73q27 0 65 -6v91q0 64 26.5 99t88.5 35q29 0 60 -13v-73q-23 10 -52 10q-47 0 -47 -48v-124l-27 -73q-68 25 -116 25q-81 0 -119.5 -51t-38.5 -152q0 -97 38.5 -148.5t114.5 -51.5q71 0 139 31v-78
q-55 -29 -138 -29z" />
    <glyph glyph-name="uni0189" unicode="&#x189;" horiz-adv-x="729" 
d="M452 382q31 2 87 7q45 124 155.5 232t212.5 108q68 0 68 -72t-57 -190t-142 -234q61 24 128 67t88.5 54t32.5 11t17.5 -5.5t6.5 -12.5q0 -14 -32.5 -20t-122.5 -58t-143 -69q-72 -95 -138.5 -154t-108.5 -59q-58 0 -58 83q0 23 5 66.5t5 56.5q0 78 -47 78q-17 0 -36 -6
q-58 -86 -93 -134t-83 -105q-92 -109 -167 -109q-30 0 -30 22q0 46 110 154.5t215 168.5q41 64 57 87q-19 1 -79.5 1t-84 2.5t-24.5 15.5q0 6 3 7.5t67 1.5t139 3q125 187 214 279q67 67 114 67q19 0 19 -11q0 -7 -6 -10q-14 -8 -22 -12q-109 -74 -270 -311zM698 215
q14 0 29 3q87 118 149.5 241t62.5 185.5t-52 62.5q-81 0 -176.5 -102t-128.5 -212q5 1 13 1q21 0 21 -22q-1 -16 -44 -23q-1 -8 -1 -24q0 -110 127 -110zM518 16q27 0 77 47t109 124q-30 -5 -56 -5q-65 0 -96 30.5t-31 82.5q0 25 6 50h-28q-48 0 -72 1l-36 -54q19 6 37.5 6
t33 -8t20.5 -23q10 -25 10 -59l-13 -136q0 -56 39 -56zM61 -55q36 0 93 71.5t153 217.5q-88 -52 -176 -144.5t-88 -129.5q0 -15 18 -15z" />
    <glyph glyph-name="uni018A" unicode="&#x18a;" horiz-adv-x="810" 
d="M654 361q0 136 -67 206t-203 70h-117v-560h97q290 0 290 284zM397 714q168 0 260 -92.5t92 -257.5q0 -177 -96.5 -270.5t-276.5 -93.5h-199v637h-26q-61 0 -61 -50q0 -30 10 -54h-79q-4 10 -7.5 26.5t-3.5 28.5q0 65 34.5 95.5t106.5 30.5h246z" />
    <glyph glyph-name="uni018B" unicode="&#x18b;" horiz-adv-x="615" 
d="M428 335h-82q-106 0 -154 -32t-48 -101q0 -63 44 -94t139 -31h101v258zM518 714v-714h-199q-268 0 -268 198q0 103 73.5 158.5t211.5 55.5h92v223h-334v79h424z" />
    <glyph glyph-name="uni018C" unicode="&#x18c;" horiz-adv-x="615" 
d="M289 63q80 0 117 43.5t37 143.5v16q0 112 -37.5 159.5t-117.5 47.5q-68 0 -105 -54t-37 -154t37 -151t106 -51zM530 0h-71l-13 72h-4q-56 -82 -167 -82q-104 0 -162 72.5t-58 204.5q0 131 58 205t163 74q108 0 166 -79h6q-1 10 -3.5 39.5t-2.5 39.5v140h-333v74h421v-760
z" />
    <glyph glyph-name="uni018D" unicode="&#x18d;" horiz-adv-x="604" 
d="M341 294q66 -38 95 -77t29 -87q0 -64 -48 -102t-132 -38q-51 0 -97 11.5t-109 42.5l38 69q37 -21 79 -36t93 -15q40 0 63.5 18.5t23.5 50.5q0 34 -26.5 60t-107.5 70q-104 57 -146 117t-42 136q0 115 66 180.5t184 65.5q112 0 179 -60.5t67 -163.5q0 -87 -54 -149.5
t-155 -92.5zM145 515q0 -62 30 -105.5t96 -77.5q92 22 139.5 74t47.5 131q0 67 -41.5 108.5t-112.5 41.5q-77 0 -118 -44.5t-41 -127.5z" />
    <glyph glyph-name="uni018E" unicode="&#x18e;" horiz-adv-x="556" 
d="M60 79h309v255h-291v78h291v223h-309v79h399v-714h-399v79z" />
    <glyph glyph-name="uni018F" unicode="&#x18f;" horiz-adv-x="738" 
d="M332 646q-110 0 -228 -41v82q61 21 114 29.5t116 8.5q162 0 252.5 -97.5t90.5 -271.5q0 -171 -85 -268.5t-237 -97.5q-147 0 -221.5 92t-74.5 275v34h523q-8 126 -71 190.5t-179 64.5zM355 69q100 0 159.5 63.5t67.5 179.5h-427q0 -125 49 -184t151 -59z" />
    <glyph glyph-name="uni0190" unicode="&#x190;" horiz-adv-x="587" 
d="M87 547q0 82 60.5 129.5t166.5 47.5q64 0 124 -18.5t109 -55.5l-43 -61q-52 36 -94 48.5t-94 12.5q-63 0 -99.5 -30.5t-36.5 -81.5q0 -60 48 -95.5t145 -35.5h97v-75h-102q-110 0 -165 -33t-55 -97q0 -67 48.5 -102.5t139.5 -35.5q105 0 214 52v-82q-90 -44 -219 -44
q-135 0 -206 52t-71 153q0 76 46.5 121t137.5 57v4q-72 12 -111.5 56.5t-39.5 113.5z" />
    <glyph glyph-name="uni0191" unicode="&#x191;" horiz-adv-x="519" 
d="M45 -240q-32 0 -56 13v76q21 -10 45 -10q35 0 49 20t14 62v793h399v-79h-309v-253h290v-79h-290v-386q0 -157 -142 -157z" />
    <glyph glyph-name="florin" unicode="&#x192;" horiz-adv-x="571" 
d="M161 -240q-36 0 -68 9v73q34 -9 63 -9q45 0 63.5 23.5t18.5 79.5v470h-105v41l105 30v65q0 94 39.5 138t129.5 44q45 0 103 -21l-22 -68q-50 16 -78 16q-46 0 -65 -24.5t-19 -83.5v-69h135v-68h-133v-470q0 -91 -40 -133.5t-127 -42.5z" />
    <glyph glyph-name="uni0193" unicode="&#x193;" horiz-adv-x="728" 
d="M407 377h247v-350q-57 -18 -115.5 -27.5t-135.5 -9.5q-163 0 -252.5 97t-89.5 270q0 112 44.5 195.5t128 127.5t197.5 44q71 0 137 -17v17q0 64 27 99t88 35q29 0 60 -13v-72q-24 10 -52 10q-47 0 -47 -48v-53l-34 -78q-94 41 -184 41q-127 0 -199 -77t-72 -211
q0 -142 68.5 -215.5t200.5 -73.5q72 0 140 17v212h-157v80z" />
    <glyph glyph-name="uni0194" unicode="&#x194;" horiz-adv-x="569" 
d="M334 108q33 -65 50 -121t17 -94q0 -59 -32 -96t-84 -37q-54 0 -85 37.5t-31 95.5q0 78 67 214l-236 607h94q89 -237 136.5 -362t54.5 -167q10 51 50 158l140 371h95zM319 -105q0 26 -8.5 62t-25.5 68q-19 -38 -26.5 -72t-7.5 -56q0 -31 9.5 -45t24.5 -14q34 0 34 57z" />
    <glyph glyph-name="uni0195" unicode="&#x195;" horiz-adv-x="934" 
d="M639 63q67 0 96.5 36t29.5 113v324h88v-327q0 -114 -51 -166.5t-163 -52.5q-110 0 -162 48.5t-52 147.5v157q0 65 -26 97t-83 32q-74 0 -108.5 -45.5t-34.5 -149.5v-277h-88v760h88v-223q0 -44 -5 -75h6q24 42 66 62.5t90 20.5q91 0 137 -46.5t46 -149.5v-157
q0 -65 30.5 -97t95.5 -32z" />
    <glyph glyph-name="uni0196" unicode="&#x196;" horiz-adv-x="348" 
d="M179 714v-549q0 -48 18 -72t59 -24q21 0 44 3.5t38 7.5v-74q-13 -6 -40 -11t-55 -5q-80 0 -116.5 41.5t-36.5 125.5v557h89z" />
    <glyph glyph-name="uni0197" unicode="&#x197;" horiz-adv-x="338" 
d="M298 0h-258v52l84 19v256h-90v78h90v237l-84 20v52h258v-52l-84 -20v-237h90v-78h-90v-256l84 -19v-52z" />
    <glyph glyph-name="uni0198" unicode="&#x198;" horiz-adv-x="619" 
d="M327 405l292 -405h-106q-30 40 -121 172q-71 103 -126 170l-79 -77v-265h-90v714h90v-360q28 35 60 72q21 24 185 225q29 38 54.5 53.5t66.5 15.5q30 0 50 -8v-70q-21 3 -44 3q-17 0 -31.5 -10t-36.5 -36z" />
    <glyph glyph-name="uni0199" unicode="&#x199;" horiz-adv-x="534" 
d="M172 363l-4 -87h4l30 38l34 41l171 181h103l-217 -229l232 -307h-106l-186 250l-61 -53v-197h-87v625q0 140 121 140q33 0 65 -13v-73q-23 10 -52 10q-23 0 -35 -13t-12 -45v-268z" />
    <glyph glyph-name="uni019A" unicode="&#x19a;" horiz-adv-x="257" 
d="M173 420h70v-66h-70v-354h-88v354h-70v66h70v340h88v-340z" />
    <glyph glyph-name="uni019B" unicode="&#x19b;" horiz-adv-x="541" 
d="M-6 0l231 526l-23 64l-106 -32l-19 63l99 30q-13 22 -29.5 32t-45.5 10q-30 0 -56 -6v71q33 8 66 8q53 0 87 -21t59 -69l109 33l19 -63l-102 -32l179 -498q10 -28 21.5 -41t28.5 -13q12 0 30 5v-65q-24 -12 -57 -12q-36 0 -58 18t-38 63l-73 205q-42 119 -50 159h-4
q-16 -62 -55 -154l-122 -281h-91z" />
    <glyph glyph-name="uni019C" unicode="&#x19c;" horiz-adv-x="1029" 
d="M180 714v-506q0 -70 29 -105t92 -35q84 0 124.5 47t40.5 147v452h90v-506q0 -70 29 -105t94 -35q84 0 123.5 49.5t39.5 164.5v432h90v-714h-71l-15 82h-5q-25 -42 -74 -67t-107 -25q-68 0 -110.5 24.5t-64.5 75.5h-5q-28 -48 -79.5 -74t-113.5 -26q-103 0 -150 53
t-47 165v506h90z" />
    <glyph glyph-name="uni019D" unicode="&#x19d;" horiz-adv-x="759" 
d="M97 714h104l22 -35l235 -362l124 -194h4q-1 12 -4 84t-3 104v403h84v-714h-105l-382 593h-4l2 -40q6 -89 6 -154v-482q0 -83 -34 -120t-101 -37q-32 0 -56 13v76q21 -10 45 -10q35 0 49 20t14 62v793z" />
    <glyph glyph-name="uni019E" unicode="&#x19e;" horiz-adv-x="618" 
d="M450 -240v583q0 64 -28.5 96.5t-91.5 32.5q-83 0 -120 -46.5t-37 -147.5v-278h-88v536h71l13 -73h5q25 40 70 61.5t99 21.5q99 0 146.5 -48t47.5 -149v-589h-87z" />
    <glyph glyph-name="uni019F" unicode="&#x19f;" horiz-adv-x="782" 
d="M720 358q0 -171 -86.5 -269.5t-242.5 -98.5q-158 0 -244 96.5t-86 272.5q0 174 85.5 270t245.5 96q155 0 241.5 -97.5t86.5 -269.5zM391 68q108 0 167.5 65t65.5 192h-467q6 -127 65.5 -192t168.5 -65zM392 646q-106 0 -165.5 -61.5t-69.5 -181.5h466q-9 121 -67.5 182
t-163.5 61z" />
    <glyph glyph-name="Ohorn" unicode="&#x1a0;" horiz-adv-x="784" 
d="M719 358q0 -173 -86.5 -270.5t-241.5 -97.5q-158 0 -244 96t-86 273q0 176 86 271t245 95t247 -104q33 9 48.5 39.5t15.5 99.5h95l7 -11q-15 -78 -47.5 -120.5t-83.5 -61.5q45 -85 45 -209zM156 358q0 -142 59.5 -216t175.5 -74t174.5 73t58.5 217q0 143 -58.5 215.5
t-173.5 72.5q-118 0 -177 -73.5t-59 -214.5z" />
    </font>
</defs>
</svg>
