<?xml version="1.0" standalone="no"?>
<!DOCTYPE svg PUBLIC "-//W3C//DTD SVG 1.1//EN" "http://www.w3.org/Graphics/SVG/1.1/DTD/svg11.dtd" >
<svg xmlns="http://www.w3.org/2000/svg" xmlns:xlink="http://www.w3.org/1999/xlink" version="1.1">
<metadata>
Created by FontForge 20190801 at Tue May  4 08:59:20 2021
 By root
(c)2019, Hans Co
</metadata>
<defs>
<font id="NesansSemiBold" horiz-adv-x="238" >
  <font-face 
    font-family="Nesans Semi Bold"
    font-weight="600"
    font-stretch="normal"
    units-per-em="1000"
    panose-1="0 0 0 0 0 0 0 0 0 0"
    ascent="800"
    descent="-200"
    x-height="449"
    cap-height="700"
    bbox="-213 -240 1237 1047"
    underline-thickness="50"
    underline-position="-150"
    unicode-range="U+0001-206F"
  />
<missing-glyph horiz-adv-x="364" 
d="M33 0v666h265v-666h-265zM66 33h199v600h-199v-600z" />
    <glyph glyph-name=".notdef" horiz-adv-x="364" 
d="M33 0v666h265v-666h-265zM66 33h199v600h-199v-600z" />
    <glyph glyph-name=".null" 
 />
    <glyph glyph-name=".null" 
 />
    <glyph glyph-name="nonmarkingreturn" horiz-adv-x="333" 
 />
    <glyph glyph-name="uni0001" 
 />
    <glyph glyph-name="uni0002" 
 />
    <glyph glyph-name="uni0003" 
 />
    <glyph glyph-name="uni0004" 
 />
    <glyph glyph-name="uni0005" 
 />
    <glyph glyph-name="uni0006" 
 />
    <glyph glyph-name="uni0007" 
 />
    <glyph glyph-name="uni0008" 
 />
    <glyph glyph-name="uni0009" unicode="&#x9;" 
 />
    <glyph glyph-name="LF" unicode="&#xa;" 
 />
    <glyph glyph-name="uni000B" 
 />
    <glyph glyph-name="uni000C" 
 />
    <glyph glyph-name="controlCR" unicode="&#xd;" 
 />
    <glyph glyph-name="uni000E" 
 />
    <glyph glyph-name="uni000F" 
 />
    <glyph glyph-name="uni0010" 
 />
    <glyph glyph-name="uni0011" 
 />
    <glyph glyph-name="uni0012" 
 />
    <glyph glyph-name="uni0013" 
 />
    <glyph glyph-name="uni0014" 
 />
    <glyph glyph-name="uni0015" 
 />
    <glyph glyph-name="uni0016" 
 />
    <glyph glyph-name="uni0017" 
 />
    <glyph glyph-name="uni0018" 
 />
    <glyph glyph-name="uni0019" 
 />
    <glyph glyph-name="uni001A" 
 />
    <glyph glyph-name="uni001B" 
 />
    <glyph glyph-name="uni001C" 
 />
    <glyph glyph-name="uni001D" 
 />
    <glyph glyph-name="uni001E" 
 />
    <glyph glyph-name="uni001F" 
 />
    <glyph glyph-name="space" unicode=" " 
 />
    <glyph glyph-name="exclam" unicode="!" horiz-adv-x="207" 
d="M89 155l-28 456q-2 32 28 42q31 9 49 -13q10 -12 9 -30l-35 -455h-23zM71 72.5q0 12.5 8.5 21t21 8.5t21 -8.5t8.5 -21t-8.5 -21t-21 -8.5t-21 8.5t-8.5 21z" />
    <glyph glyph-name="quotedbl" unicode="&#x22;" horiz-adv-x="306" 
d="M75 685q-3 24 21 32q25 8 37 -13q4 -10 5 -22l-24 -135q-2 -9 -11 -8.5t-10 9.5zM168 685q-3 24 21 32q25 8 37 -13q5 -10 5 -22l-24 -135q-2 -9 -11 -8.5t-10 9.5z" />
    <glyph glyph-name="numbersign" unicode="#" horiz-adv-x="578" 
d="M153 244h-111l11 29h111l57 152h-111l11 29h111l77 204h31l-77 -204h127l77 204h31l-77 -204h115l-11 -29h-115l-57 -153h115l-11 -29h-115l-77 -203h-31l77 203l-127 1l-77 -204h-31zM252 425l-57 -152l127 -1l57 153h-127z" />
    <glyph glyph-name="dollar" unicode="$" horiz-adv-x="527" 
d="M56 222q-2 19 13 27.5t30 1t15 -27.5q0 -81 45 -123q39 -37 89 -43v283q-73 37 -104 59q-76 55 -66 129q8 53 56 89q48 37 115 40v61h29v-61q46 -3 84.5 -18t65.5 -48.5t28 -79.5q1 -10 -4.5 -17.5t-13 -10t-15.5 -1.5t-13.5 8.5t-6.5 19.5q-3 61 -43 96q-34 30 -82 34
v-246q116 -57 156 -104q46 -55 33 -114q-11 -56 -67 -94q-54 -38 -123 -42v-60h-29v61q-38 2 -73 16q-56 22 -87.5 64t-31.5 101zM249 640q-48 -5 -84 -33q-38 -29 -42 -67q-8 -60 69 -103q19 -10 56 -28zM277 326v-270q55 4 98 40q45 37 48 83q3 43 -33 76q-32 30 -113 71z
" />
    <glyph glyph-name="percent" unicode="%" horiz-adv-x="593" 
d="M174 392q-54 0 -89 34q-29 30 -35 72q-1 8 -1 19v3v3v2v1q0 9 1 15q4 43 34 74q35 36 90 36h9q55 0 90 -36q30 -31 34 -74q1 -6 1 -15v-3v-3v-2v-1q0 -11 -1 -19q-6 -42 -35 -72q-35 -34 -89 -34h-9zM178 633q-23 0 -41.5 -12.5t-28 -32t-14 -43.5t0 -47.5t14 -43t28 -32
t42.5 -13.5q27 1 47 17.5t29 41.5t9 53.5t-9 53t-29 41.5t-47 17h-1zM509 650l-402 -618l-25 16l403 618zM544 168v-3v-2v-3q-1 -12 -2 -20q-5 -42 -35 -71q-34 -35 -88 -35h-10q-54 0 -88 35q-29 29 -35 71q-1 8 -1 20v3v3v2q0 9 1 16q4 43 34 73q34 36 89 36h10
q55 0 90 -36q29 -30 34 -73q0 -7 1 -16zM414 52q33 1 55 24t27.5 55.5t0 65t-27.5 55.5t-54 24h-1q-28 -1 -47.5 -17.5t-28.5 -41t-9 -53.5t9 -53.5t29 -41.5t47 -17z" />
    <glyph glyph-name="ampersand" unicode="&#x26;" horiz-adv-x="565" 
d="M288 461q14 -24 18 -32l125 -236q36 80 21 143q-7 27 16 35q23 7 36 -12q5 -7 6 -17q8 -95 -60 -184l66 -126h-66l-43 80q-51 -47 -111 -65q-42 -10 -83.5 -9.5t-80.5 20.5t-61 56q-10 17 -16 35q-19 61 6 131q18 49 52 83q34 36 114 84q-42 75 -44 120q-2 47 35 76.5
t83 20.5q39 -7 59 -39q18 -29 14 -61t-28 -57q-20 -21 -58 -46zM395 134l-144 270q-4 8 -13 24q-68 -45 -95 -86q-24 -37 -30 -84q-8 -65 22 -113q29 -47 83 -65t106 1q39 14 71 53zM239 573q6 -36 39 -95q33 21 52 41q27 28 22 65q-5 35 -33 51q-9 6 -19 7q-33 4 -50 -16.5
t-11 -52.5z" />
    <glyph glyph-name="quotesingle" unicode="'" horiz-adv-x="213" 
d="M138 682l-24 -135q-2 -9 -11 -9t-10 10l-18 137q-3 24 21 32q25 8 37 -13q5 -9 5 -22z" />
    <glyph glyph-name="parenleft" unicode="(" 
d="M186 737l1 2h12l-3 -6q-179 -363 2 -768l3 -7h-11l-2 3q-248 400 -2 776z" />
    <glyph glyph-name="parenright" unicode=")" 
d="M50 739l2 -2q245 -376 -3 -776l-2 -3h-11l3 7q181 405 2 768l-3 6h12z" />
    <glyph glyph-name="asterisk" unicode="*" horiz-adv-x="261" 
d="M50 576l62 20l-60 20h-1q-22 14 -10 33q11 17 28 9l4 -2v-1l47 -42l-14 61q0 23 19 26q18 2 25 -13q1 -5 1 -11l-11 -63l46 43q22 15 34 -6q10 -18 -6 -29q-2 -1 -3 -2h-1l-62 -23l61 -22h1q22 -14 10 -33q-12 -17 -28 -9l-5 3l-47 44l11 -62v-1q-1 -21 -19 -24
q-11 -2 -19.5 5.5t-6.5 18.5v1l15 62l-47 -41l-1 -1q-19 -11 -30 3q-8 9 -5.5 20t12.5 16z" />
    <glyph glyph-name="plus" unicode="+" horiz-adv-x="429" 
d="M32 363h168v168h29v-168h168v-29h-168v-167h-29v167h-168v29z" />
    <glyph glyph-name="comma" unicode="," horiz-adv-x="101" 
d="M32 -40q-5 -4 -10 -0.5t-2 9.5l13 38q-15 11 -11 30q3 11 13 17.5t22 4t18.5 -12.5t3.5 -22q-2 -11 -47 -64v0z" />
    <glyph glyph-name="hyphen" unicode="-" horiz-adv-x="393" 
d="M379 334h-365v29h365v-29z" />
    <glyph glyph-name="period" unicode="." horiz-adv-x="100" 
d="M20 30q0 12 8.5 20.5t21 8.5t21 -8.5t8.5 -21t-8.5 -21t-20.5 -8.5q-8 0 -15 4t-11 11t-4 15z" />
    <glyph glyph-name="slash" unicode="/" horiz-adv-x="415" 
d="M11 -40l362 778h32l-362 -778h-32z" />
    <glyph glyph-name="zero" unicode="0" horiz-adv-x="605" 
d="M64 285q-3 25 -3 60q0 33 2 59q3 51 18.5 101t42.5 94.5t71 72t98 27.5q9 1 18 0q55 0 99 -27.5t71 -72t42 -94.5t19 -101q2 -26 2 -59q0 -35 -3 -60q-3 -40 -13.5 -79t-29.5 -76.5t-44.5 -66t-62.5 -46t-80 -17.5q-9 -1 -18 0q-42 0 -79 17.5t-62.5 46t-44.5 66
t-29.5 76.5t-13.5 79zM301 683q-56 -2 -97.5 -51.5t-60 -123t-18 -159t19 -159t60 -123t97.5 -51.5q57 2 98.5 51.5t60 123t18.5 159t-18.5 158.5t-59.5 123t-97 52h-2h-1z" />
    <glyph glyph-name="one" unicode="1" horiz-adv-x="208" 
d="M133 -3h-58v703h58v-703z" />
    <glyph glyph-name="two" unicode="2" horiz-adv-x="505" 
d="M449 504q-3 -46 -23 -86t-50.5 -70t-67 -57.5t-74 -53.5t-69.5 -52t-55 -59.5t-29 -70.5h363v-58h-390v55q6 47 31 88q22 37 62 74t78.5 67.5t75 64.5t59.5 78t24 96q2 65 -29 112.5t-93 55.5q-21 2 -42 -3q-44 -11 -72.5 -47.5t-27.5 -80.5q0 -20 -15.5 -27.5t-31.5 0.5
t-16 24q0 34 16 63q25 45 80 68.5t111 19.5q106 -8 156 -85q33 -51 29 -116z" />
    <glyph glyph-name="three" unicode="3" horiz-adv-x="509" 
d="M337 399q-32 -15 -52 -21q50 -7 88 -34.5t57 -73.5q17 -42 14 -89.5t-26 -87.5q-26 -46 -70 -69.5t-98 -23.5q-51 0 -98.5 18t-73.5 55q-24 34 -23 78q0 16 16.5 24t32.5 0.5t15 -29.5q-1 -56 36.5 -92.5t93.5 -36.5q39 -1 69 22.5t45 59t18 78t-7 80.5t-35 67.5
t-62 36.5q-12 3 -26.5 3.5t-36.5 0t-27 -0.5v18q42 0 74 9.5t62 35.5q51 43 56 112q6 66 -32 112q-37 43 -98 43q-56 0 -93 -36t-37 -91q0 -24 -16 -32t-32 0.5t-16 24.5q-1 43 23 77q26 37 73.5 55.5t98.5 18.5q80 0 137 -53q55 -51 55 -118q1 -48 -28 -84t-77 -57z" />
    <glyph glyph-name="four" unicode="4" horiz-adv-x="548" 
d="M421 163h81v-22h-81v-144h-58v145h-322h-8l332 558h56v-537zM113 163h250v421z" />
    <glyph glyph-name="five" unicode="5" horiz-adv-x="499" 
d="M410 642h-266l-34 -201q56 49 144 41q84 -7 130 -62q31 -37 44.5 -88t10.5 -104q-2 -42 -15 -82t-36 -74t-59.5 -54.5t-80.5 -20.5q-51 0 -97.5 18t-72.5 55q-24 34 -23 77q0 16 16 23.5t32 0.5t16 -27v0q-1 -28 8.5 -52t26.5 -41t41 -27t51 -10q20 0 37 8q44 19 69 82
q24 58 25 133q1 94 -33 158q-25 48 -76 62q-44 13 -92 -2t-74 -51l-1 -2l-18 2l48 297h10l269 -1v-58z" />
    <glyph glyph-name="six" unicode="6" horiz-adv-x="523" 
d="M134 431q27 28 64.5 44t74.5 14q50 -3 87.5 -25t58.5 -58.5t30.5 -79t8.5 -90.5q-1 -35 -7 -68t-20 -64.5t-34.5 -54.5t-51.5 -37t-69 -15q-51 0 -90 19t-62 49t-37.5 71.5t-19.5 83.5t-4 88q1 35 3 66.5t8.5 72.5t16 75t26.5 68t39 57.5t54 38t72 14.5q44 0 83 -19
t61 -54t21 -77q0 -16 -15.5 -23.5t-31 -0.5t-15.5 27v0q0 31 -11.5 60.5t-36 50t-56.5 21.5q-38 1 -67 -25.5t-45 -69t-24 -82t-11 -77.5zM126 212q4 -36 13 -68t25 -63.5t44.5 -49.5t66.5 -16q36 1 61.5 24t37.5 59t17.5 69t6.5 67q4 157 -65 212q-25 20 -59 23
q-40 4 -83 -21q-46 -27 -57 -67q-9 -29 -11 -99q0 -36 3 -70z" />
    <glyph glyph-name="seven" unicode="7" horiz-adv-x="446" 
d="M137 0l233 642h-343v58l375 1h11l-253 -701h-23z" />
    <glyph glyph-name="eight" unicode="8" horiz-adv-x="518" 
d="M319 370q57 -12 91 -53.5t40 -104.5q7 -65 -14 -113.5t-66.5 -74.5t-110.5 -27q-92 0 -144 52q-57 56 -49 156q5 66 39 109.5t92 55.5q-55 14 -92 58t-38 101q0 54 25.5 93t68 58t95.5 20q83 1 138.5 -44t54.5 -127q0 -37 -17.5 -71t-46.5 -56.5t-66 -31.5zM388 215
q-3 30 -12 54.5t-24 44t-38.5 30.5t-53.5 11q-34 0 -60 -13q-65 -33 -72 -134q-3 -38 1.5 -70.5t18 -61.5t41.5 -45.5t69 -16.5q42 1 71.5 18.5t42 46t17.5 64.5t-1 72zM179 661q-57 -40 -50 -130q8 -104 78 -136q25 -12 55 -11q28 1 51 12q66 33 74 135q8 90 -51 131
q-33 23 -80 23q-45 -1 -77 -24z" />
    <glyph glyph-name="nine" unicode="9" horiz-adv-x="523" 
d="M388 267q-27 -28 -64.5 -44t-74.5 -14q-50 3 -87.5 25t-58.5 58t-30.5 78.5t-8.5 90.5q1 45 11.5 85.5t31 76t56.5 56.5t84 21q50 0 89 -18.5t62.5 -48.5t37.5 -72t19 -83.5t4 -87.5q-1 -35 -3 -66.5t-8 -73t-16 -75t-26.5 -67.5t-38.5 -57.5t-54.5 -38.5t-71.5 -15
q-44 0 -83 19t-62 55q-22 35 -21 76q0 10 6.5 17t15.5 9t18.5 0.5t16 -9t6.5 -19.5v-1q-2 -48 27 -89t77 -42q30 -1 55 17t40.5 45.5t27 63.5t16.5 67t7 61zM396 486q-4 35 -12.5 67t-25 63.5t-45 49.5t-65.5 17q-36 -1 -61.5 -24t-38 -59.5t-17.5 -69t-6 -67.5
q-5 -156 64 -211q25 -20 60 -23q40 -5 82 21q46 27 58 67q8 29 10 99q1 35 -3 70z" />
    <glyph glyph-name="colon" unicode=":" horiz-adv-x="120" 
d="M59.5 274q12.5 0 21 -8.5t8.5 -21t-8.5 -21t-21 -8.5t-21 8.5t-8.5 21t8.5 21t21 8.5zM30 453q0 12 8.5 21t21 9t21 -9t8.5 -21t-8.5 -21t-21 -9t-21 9t-8.5 21z" />
    <glyph glyph-name="semicolon" unicode=";" horiz-adv-x="129" 
d="M35 184l13 38q-15 11 -11 30q3 11 13 17.5t22 4t18.5 -12.5t3.5 -22q-2 -11 -47 -64v-1q-5 -4 -10 0t-2 10zM36 453q0 12 9 21t21 9t21 -9t9 -21t-9 -21t-21 -9t-21 9t-9 21z" />
    <glyph glyph-name="less" unicode="&#x3c;" horiz-adv-x="528" 
d="M491 422l-396 -199l396 -198v-32l-461 230l461 231v-32z" />
    <glyph glyph-name="equal" unicode="=" horiz-adv-x="407" 
d="M21 270v29h365v-29h-365zM386 399h-365v29h365v-29z" />
    <glyph glyph-name="greater" unicode="&#x3e;" horiz-adv-x="528" 
d="M37 25l396 198l-396 199v32l461 -231l-461 -230v32z" />
    <glyph glyph-name="question" unicode="?" horiz-adv-x="428" 
d="M123 539q-2 -31 -24 -41.5t-42.5 2.5t-19.5 39q1 10 3 19q10 31 41 53.5t68 33.5q34 10 67 10q100 0 144 -68q22 -32 24.5 -65t-13 -63t-36 -54t-49.5 -49q-45 -39 -64 -74q-28 -51 -27 -123l1 -5h-25v5q0 88 25 148q16 37 56 87q1 1 4 4.5t4 5.5q90 111 51 180
q-13 23 -40 35.5t-56 12.5q-34 0 -61 -20q-34 -25 -31 -73v0zM154 72q0 6 2 11.5t6 9.5t9.5 6.5t11.5 2.5q13 0 21.5 -8.5t8.5 -21t-8.5 -21t-21 -8.5t-21 8.5t-8.5 20.5z" />
    <glyph glyph-name="at" unicode="@" horiz-adv-x="713" 
d="M477 240q-3 -35 19 -43q8 -3 19 -1q16 3 30 11q28 14 48 43.5t29.5 61t12.5 64.5q6 88 -32 146q-44 69 -116.5 98.5t-153.5 12.5q-67 -13 -119.5 -54t-83.5 -103q-29 -57 -33.5 -121t16.5 -124q25 -69 79.5 -112t128.5 -57q132 -27 254 61q3 3 7 3.5t6.5 -1.5t4.5 -4.5
t1 -6.5t-4 -7v0q-57 -49 -136 -65t-151 1q-90 19 -153.5 72.5t-85.5 138.5q-16 62 -6.5 124.5t41.5 117.5q34 60 88.5 100.5t121.5 57.5q98 23 187 -13t135 -124q42 -81 22 -174q-18 -81 -71 -134q-27 -27 -60 -37q-35 -10 -59 3q-27 14 -32 52q-24 -24 -64 -34.5t-77 -8.5
q-42 3 -70.5 24t-22.5 61q5 31 27 47.5t57 25.5q14 4 31.5 7.5t35.5 7t31 7.5q54 13 75 38q4 72 -48 95q-16 8 -36 8q-37 0 -67 -25q-32 -27 -39 -71q-2 -18 -18 -22q-15 -3 -24 7q-5 7 -3 16q7 46 51.5 75t94.5 32q43 2 76 -17q57 -33 55 -116q0 -5 -1 -19v-1v0l-4 -25
q-4 -26 -11 -77zM446 340q3 17 5 35q-23 -19 -72 -31q-8 -1 -19 -4q-57 -12 -73 -18q-39 -14 -45 -56q-3 -19 3 -34t19 -24t32 -11q28 -4 57 6.5t47 30.5q19 20 31 52q9 23 15 54z" />
    <glyph glyph-name="A" unicode="A" horiz-adv-x="611" 
d="M431 261h-289l-105 -261h-23l2 6q10 25 139 346q103 259 137 345l1 3h26l279 -703h-62l-1 3q-30 75 -104 261zM150 282h272q-113 284 -135 341h-1z" />
    <glyph glyph-name="B" unicode="B" horiz-adv-x="540" 
d="M330 369q66 -14 109 -60q52 -56 52 -129q1 -18 -3 -36q-11 -60 -58 -100q-51 -43 -128 -47h-227v698v5h193h19q88 -4 139 -56q46 -47 46 -114q-1 -64 -46 -110q-38 -39 -96 -51zM133 359v-161v-161v-19h126q55 0 98 24t63 73q13 31 13 66q1 69 -43 119q-47 55 -127 59
h-126h-4zM133 380h148q73 4 109 63q24 38 24 86q0 63 -40 104q-46 48 -130 47h-111v-300z" />
    <glyph glyph-name="C" unicode="C" horiz-adv-x="569" 
d="M310 699h11q46 1 92.5 -14.5t81.5 -51t34 -83.5q0 -16 -15.5 -23.5t-31 -0.5t-15.5 27v0q1 56 -45.5 93.5t-103.5 35.5q-77 -3 -133 -76q-69 -91 -72 -256q3 -166 73 -257q56 -73 133 -75q57 -2 103 35.5t45 93.5v1q0 19 15.5 26.5t31 -0.5t15.5 -24v-3
q1 -46 -34.5 -81.5t-82.5 -50.5t-91 -14h-11q-58 1 -106 25t-79.5 64t-50 90t-23.5 105q-3 26 -3 61q0 33 2 58q4 63 26 120q32 80 91.5 127t142.5 48z" />
    <glyph glyph-name="C" unicode="&#xc7;" horiz-adv-x="569" 
d="M310 699h11q46 1 92.5 -14.5t81.5 -51t34 -83.5q0 -16 -15.5 -23.5t-31 -0.5t-15.5 27v0q1 56 -45.5 93.5t-103.5 35.5q-77 -3 -133 -76q-69 -91 -72 -256q3 -166 73 -257q56 -73 133 -75q57 -2 103 35.5t45 93.5v1q0 19 15.5 26.5t31 -0.5t15.5 -24v-3
q1 -46 -34.5 -81.5t-82.5 -50.5t-91 -14h-11q-58 1 -106 25t-79.5 64t-50 90t-23.5 105q-3 26 -3 61q0 33 2 58q4 63 26 120q32 80 91.5 127t142.5 48z" />
    <glyph glyph-name="D" unicode="D" horiz-adv-x="618" 
d="M128 -3h-53v703h53q84 0 135 -4q57 -4 106 -23.5t89.5 -54.5t68.5 -84q43 -75 48 -166q7 -121 -53 -218q-40 -65 -103 -102.5t-141 -45.5q-56 -5 -150 -5zM133 18q87 0 143 9q78 11 132.5 63.5t77.5 122t21 147.5q-3 76 -29.5 141.5t-82 113.5t-130.5 57q-52 7 -132 7
v-661z" />
    <glyph glyph-name="E" unicode="E" horiz-adv-x="464" 
d="M444 679h-311v-309h235v-21h-235v-331h311v-21h-369v703h369v-21z" />
    <glyph glyph-name="F" unicode="F" horiz-adv-x="456" 
d="M444 679h-311v-309h235v-21h-235v-352h-58v703h369v-21z" />
    <glyph glyph-name="G" unicode="G" horiz-adv-x="587" 
d="M311 699q6 1 11 0q46 1 92.5 -14t81.5 -51t35 -84q0 -16 -16 -23.5t-31.5 -0.5t-15.5 27v0q2 57 -45 94.5t-104 35.5q-77 -3 -133 -77q-69 -91 -73 -256q4 -167 73 -258q57 -74 134 -76q39 -1 68.5 10.5t47 30.5t28.5 47.5t15 58t4 66.5h-127v21h188v-14
q0 -114 -54.5 -176.5t-167.5 -59.5h-11q-58 0 -106 24t-79.5 64.5t-50.5 90.5t-24 106q-3 26 -3 60q0 33 2 59q4 63 26 120q32 81 91.5 128t143.5 47z" />
    <glyph glyph-name="H" unicode="H" horiz-adv-x="599" 
d="M133 700v-330h332v330h58v-703h-58v352h-332v-352h-58v703h58z" />
    <glyph glyph-name="I" unicode="I" horiz-adv-x="208" 
d="M133 -3h-58v703h58v-703z" />
    <glyph glyph-name="J" unicode="J" horiz-adv-x="320" 
d="M18 34q-3 13 -0.5 22.5t10.5 14t17 5t17.5 -6t12.5 -18.5q6 -17 18 -28q24 -23 56.5 -12t39.5 44q1 7 1 41v604h58v-526q0 -67 -16 -103q-20 -45 -69.5 -69t-96.5 -9q-37 13 -48 41z" />
    <glyph glyph-name="K" unicode="K" horiz-adv-x="530" 
d="M75 325v4v371h58v-326l335 326h31l-326 -316l9 -10l336 -377h-76l-309 344v-344h-58v328z" />
    <glyph glyph-name="L" unicode="L" horiz-adv-x="450" 
d="M133 700v-682h311v-21h-369v703h58z" />
    <glyph glyph-name="M" unicode="M" horiz-adv-x="749" 
d="M136 700l240 -605l240 601v4h58v-703h-58v642l-256 -642h-7l-28 70l-229 576v-646h-21v703h61z" />
    <glyph glyph-name="N" unicode="N" horiz-adv-x="562" 
d="M96 700v-5l239 -379l130 -208v592h21v-703h-19l-371 590v-590h-21v703h21z" />
    <glyph glyph-name="O" unicode="O" horiz-adv-x="640" 
d="M51 285q-3 26 -3 60q0 33 2 59q4 63 26 120q32 81 91.5 128t143.5 47q9 1 18 0q101 -1 169 -70q14 -15 26 -32t21.5 -35t17.5 -37.5t13 -39.5t8.5 -40.5t5.5 -40.5q2 -26 1 -59q0 -35 -2 -60q-5 -56 -24 -106t-50.5 -90.5t-79.5 -64.5t-106 -24h-18q-58 0 -106 24
t-79.5 64.5t-50.5 90.5t-24 106zM186 92q57 -74 134 -76q77 2 133 76q70 91 74 258q-4 165 -73 256q-56 74 -133 77h-1h-1q-77 -3 -133 -77q-69 -91 -73 -256q4 -167 73 -258z" />
    <glyph glyph-name="P" unicode="P" horiz-adv-x="505" 
d="M133 327v-330h-53h-5v698v5h193h19q31 -1 58.5 -10t51 -24t41.5 -38.5t28 -52.5q9 -28 9 -58q0 -47 -15.5 -82t-40.5 -55.5t-62 -32.5t-72.5 -16t-79.5 -4h-72zM133 680v-331h56h61q81 0 124 43.5t43 123.5q0 45 -19 82q-43 83 -154 82h-111z" />
    <glyph glyph-name="Q" unicode="Q" horiz-adv-x="640" 
d="M439 26q78 -41 78 -114q1 -16 -14.5 -24.5t-31.5 -1.5t-16 27v0q0 60 -54 98q-17 -6 -35 -8.5t-37 -2.5h-18q-58 0 -106 24t-79.5 64.5t-50.5 90.5t-24 106q-3 25 -3 60q0 33 2 59q4 63 26 120q32 81 91.5 128t143.5 47q9 1 18 0q101 -1 169 -70q41 -42 64 -102t28 -123
q2 -26 1 -59q0 -34 -2 -60q-8 -82 -46 -153t-104 -106zM234 46q28 8 60 9q6 1 10 1q48 2 96 -14q53 34 85 103q39 83 42 205q-4 165 -73 256q-56 74 -133 77h-1h-1q-77 -3 -133 -77q-69 -91 -73 -256q3 -118 39 -200q31 -68 82 -104zM302 39q-20 -1 -41 -9q29 -13 59 -14
q25 1 51 11q-34 14 -69 12z" />
    <glyph glyph-name="R" unicode="R" horiz-adv-x="536" 
d="M355 346q50 -11 83 -51.5t33 -92.5v-205h-58v217q0 47 -33 80t-80 33h-75h-20h-72v-330h-53h-5v698v5h193h19q63 -3 111 -35t68 -90q9 -28 9 -58q0 -131 -120 -171zM133 680v-331h51h53h7h6q81 0 124 43.5t43 123.5q0 45 -19 82q-43 83 -154 82h-111z" />
    <glyph glyph-name="S" unicode="S" horiz-adv-x="558" 
d="M177 19q-64 25 -99.5 73t-35.5 116q-2 20 14 29.5t32 1.5q19 -8 19 -31q0 -92 51 -141q41 -37 92 -47t102 11q42 17 73.5 51.5t34.5 76.5q3 48 -38 87q-24 22 -67 47q-27 16 -84 45q-94 46 -129 72q-39 28 -60 65.5t-15 80.5q9 61 66 103q58 43 139 44q41 0 79 -9.5
t71 -28.5t53.5 -52.5t21.5 -76.5q1 -18 -13.5 -27.5t-30 -2t-16.5 28.5q-3 75 -55 116q-46 36 -109 34q-60 -2 -106 -37q-45 -33 -50 -79q-9 -68 79 -117q24 -14 71 -36.5t65 -31.5q99 -52 140 -100q52 -62 37 -130q-9 -43 -42 -77t-78 -53q-50 -22 -105.5 -23t-106.5 18z
" />
    <glyph glyph-name="T" unicode="T" horiz-adv-x="509" 
d="M226 -3v682h-221v21h494h5v-21h-221v-682h-57z" />
    <glyph glyph-name="U" unicode="U" horiz-adv-x="577" 
d="M186 15q-118 55 -118 228v457h58v-457q0 -209 181 -217q61 -2 103 23q77 46 77 182v469h21v-473q0 -233 -206 -235q-66 -1 -116 23z" />
    <glyph glyph-name="V" unicode="V" horiz-adv-x="567" 
d="M286 111l17 -47l227 636h23l-2 -6q-68 -187 -249 -694l-1 -3h-36l-251 703h62l1 -3q37 -103 106.5 -299.5t102.5 -286.5z" />
    <glyph glyph-name="W" unicode="W" horiz-adv-x="847" 
d="M286 111l17 -47l109 306l-118 330h62l1 -3q33 -93 86 -241l87 244h23l-2 -6q-44 -119 -97 -269q68 -192 112 -314l16 -47l228 636h23l-2 -6q-68 -186 -249 -694l-1 -3h-36l-122 342q-14 -39 -121 -339l-1 -3h-36l-251 703h62l1 -3q37 -103 106.5 -299.5t102.5 -286.5z
" />
    <glyph glyph-name="X" unicode="X" horiz-adv-x="523" 
d="M25 -3l208 345l-215 358h68l181 -302l182 302h25l-195 -322l228 -381h-67l-195 324l-195 -324h-25z" />
    <glyph glyph-name="Y" unicode="Y" horiz-adv-x="516" 
d="M229 296l-221 404h66l1 -2q34 -61 96.5 -176t92.5 -169l14 -26l205 373h24l-220 -400v-303h-58v299z" />
    <glyph glyph-name="Z" unicode="Z" horiz-adv-x="516" 
d="M500 700l-405 -682h389v-21h-4h-457h-8l405 682h-387v21h5h454h8z" />
    <glyph glyph-name="bracketleft" unicode="[" horiz-adv-x="177" 
d="M183 710h-81v-722h81v-24h-108v770h108v-24z" />
    <glyph glyph-name="backslash" unicode="\" horiz-adv-x="415" 
d="M10 738h32l362 -778h-32z" />
    <glyph glyph-name="bracketright" unicode="]" horiz-adv-x="177" 
d="M-6 -12h81v722h-81v24h108v-770h-108v24z" />
    <glyph glyph-name="asciicircum" unicode="^" horiz-adv-x="329" 
d="M284 562l-120 73l-119 -73q-13 -8 -18 2q-3 5 1 9l1 1l132 125q3 3 7 0l132 -125l1 -1q7 -8 -3 -13q-7 -3 -14 2z" />
    <glyph glyph-name="underscore" unicode="_" horiz-adv-x="485" 
d="M469 -1h-454v29h454v-29z" />
    <glyph glyph-name="grave" unicode="`" horiz-adv-x="241" 
d="M85 689l130 -161l-173 116q-21 14 -9.5 38t34.5 17q9 -2 18 -10z" />
    <glyph glyph-name="a" unicode="a" horiz-adv-x="483" 
d="M368 56q-45 -50 -138 -58q-48 -4 -93.5 9t-69.5 45q-19 26 -19 60q0 43 26 65.5t72 35.5q17 5 76 17q25 6 39 9.5t38 11t41 19t27 26.5q-5 57 -33.5 94t-65.5 45.5t-74 -0.5t-62 -43.5t-25 -84.5q0 -20 -15 -27t-29.5 1.5t-12.5 25.5q0 24 8 45q21 49 76 77q55 29 116 24
q66 -4 111 -46q52 -48 63 -133q1 -8 2 -28v-246h-58v56zM368 211q1 25 0 54q-29 -32 -120 -52q-72 -16 -93 -24q-49 -20 -49 -78q0 -50 33 -77q41 -31 100 -21t89 50q37 49 40 148z" />
    <glyph glyph-name="b" unicode="b" horiz-adv-x="487" 
d="M123 39v-39h-58v147v4v174v4v371h58v-278q41 27 94.5 32t98.5 -13q65 -26 95 -85.5t31 -136.5q0 -73 -30 -129t-94 -79q-47 -17 -101 -9.5t-94 37.5zM123 328v-181v-1v-7q1 -47 31 -82t76 -42q61 -10 103 36q51 54 51 163q0 92 -29 150q-24 50 -66 69q-38 15 -77.5 3.5
t-64.5 -43.5q-23 -29 -24 -65z" />
    <glyph glyph-name="c" unicode="c" horiz-adv-x="469" 
d="M417 360q5 -15 6 -31q1 -15 -13.5 -22.5t-29.5 -1.5t-15 23q-1 36 -24 65q-25 32 -64.5 43.5t-77.5 -3.5q-42 -19 -67 -69q-28 -58 -28 -150q0 -139 78 -185q56 -33 115 -2t67 98q1 10 1 21q0 27 24 30q22 3 31 -15q3 -7 3 -15q2 -72 -70.5 -115.5t-156.5 -26.5
q-98 20 -134 114q-16 44 -16 101q1 106 52 168q45 54 116 65q66 11 125 -16q60 -27 78 -76z" />
    <glyph glyph-name="d" unicode="d" horiz-adv-x="487" 
d="M364 422v278h58v-371v-4v-174v-4v-147h-58v39q-41 -29 -94.5 -37t-100.5 9q-64 23 -94.5 79t-29.5 129q1 77 31 136.5t95 85.5q45 18 98.5 13t94.5 -32zM364 146v1v180v1q-1 36 -24 65q-25 32 -64.5 43.5t-77.5 -3.5q-42 -19 -67 -69q-28 -58 -28 -150q0 -109 50 -163
q43 -46 104 -36q46 7 76 42t31 82v7z" />
    <glyph glyph-name="e" unicode="e" horiz-adv-x="470" 
d="M422 146q-1 -72 -74 -116q-75 -44 -158 -25q-97 21 -131 117q-14 43 -14 97q1 105 53 167q44 54 117 66q65 10 124 -16q61 -26 77 -74q6 -15 6 -31q0 -24 -13 -43q-18 -26 -66 -42q-23 -8 -93 -22q-51 -11 -78 -21q-48 -17 -68 -46q6 -69 48 -108q37 -35 88 -35
q19 0 36 5q42 13 65 47.5t23 79.5q0 21 15 28t29.5 -2t13.5 -26zM103 214v-14.5v-14.5q31 31 113 52q75 18 85 21q41 14 54 34q9 13 9 30q0 38 -20 68t-54 44q-32 12 -64.5 5.5t-57.5 -29.5q-65 -59 -65 -196z" />
    <glyph glyph-name="f" unicode="f" horiz-adv-x="272" 
d="M151 603v-148h105v-20h-105v-438h-58v438h-71v20h71v70q0 67 16 102q20 46 69.5 70t96.5 8q37 -12 48 -40q7 -21 -5 -33t-29 -8t-23 24q-6 17 -18 28q-24 23 -56.5 12t-38.5 -44q-2 -8 -2 -41z" />
    <glyph glyph-name="g" unicode="g" horiz-adv-x="533" 
d="M343 427q26 18 56.5 24t61.5 -3q37 -12 48 -40q7 -21 -5 -33.5t-29 -8t-23 23.5q-6 17 -18 28q-17 16 -39.5 15.5t-38.5 -15.5l2 -2q58 -46 59 -129q1 -75 -49 -115.5t-126 -41.5h-4h-4h-4h-4q-65 1 -110 29l-2 -2q-32 -27 -29 -48q4 -22 54 -29q76 -5 122 -6
q72 -1 116 -35q41 -32 47 -81q7 -60 -40 -107q-51 -50 -141 -51q-29 0 -59 6.5t-57.5 20t-47.5 36.5t-26 53q-5 19 -2 44.5t13 43.5v0q11 18 29.5 17.5t25 -14.5t-4.5 -35q-18 -26 -12 -59q7 -44 51 -72t91 -28q61 1 101 49q37 45 25 90q-16 58 -106 62q-22 1 -65 1
q-38 0 -52 1q-58 2 -78 46q-12 28 -1 61q10 26 33 46q-52 43 -51 118q1 83 59 129q50 39 121 39h4h3q60 0 106 -28zM110 283q0 -64 31 -101t93 -39q62 2 93 39t31 101q0 102 -58 140q-28 19 -66 20q-39 -1 -67 -20q-57 -38 -57 -140z" />
    <glyph glyph-name="h" unicode="h" horiz-adv-x="494" 
d="M123 693v-315q35 45 93 64q65 22 122 -1q34 -13 56 -40.5t31 -59.5t9 -70v-274h-57v274q0 53 -20.5 95t-66.5 56q-44 13 -91 -8q-48 -22 -76 -70v-347h-58v696h58z" />
    <glyph glyph-name="i" unicode="i" horiz-adv-x="188" 
d="M123 453v-456h-58v456h58zM57 622q0 15 11 26t26 11t26 -11t11 -26t-11 -26t-26 -11t-26 11t-11 26z" />
    <glyph glyph-name="j" unicode="j" horiz-adv-x="188" 
d="M-50 -137q6 -17 18 -28q24 -23 56.5 -12t39.5 44q1 7 1 41v545h58v-467q0 -67 -16 -103q-20 -45 -69.5 -69t-96.5 -9q-37 13 -48 41q-3 13 -0.5 23t10.5 14t17 4.5t17.5 -6t12.5 -18.5zM58 622q0 10 5 18.5t13 13.5t18 5q16 0 26.5 -11t10.5 -26t-10.5 -26t-26 -11
t-26 11t-10.5 26z" />
    <glyph glyph-name="k" unicode="k" horiz-adv-x="421" 
d="M65 325v4v371h58v-457l1 1l215 209h31l-203 -197l237 -259h-82l-199 221v-221h-58v328z" />
    <glyph glyph-name="l" unicode="l" horiz-adv-x="188" 
d="M65 -3v328v4v371h58v-703h-58z" />
    <glyph glyph-name="m" unicode="m" horiz-adv-x="764" 
d="M499 408q-47 -20 -85 -70q5 -23 5 -67v-274h-58v274q0 76 -25 111q-15 22 -38 31q-39 16 -87 -7q-50 -23 -88 -77v-332h-58v449h58v-84q29 33 70 58t80 29q72 7 114 -53q13 -17 20 -35q29 34 70 59t81 29q72 7 114 -53q20 -28 26 -55t6 -70v-274h-58v274q0 76 -25 111
q-15 22 -38 31q-37 15 -84 -5z" />
    <glyph glyph-name="n" unicode="n" horiz-adv-x="479" 
d="M123 362q29 33 70 58t80 29q72 7 114 -53q21 -28 26.5 -55t5.5 -70v-274h-58v274q0 76 -25 111q-15 22 -38 31q-39 16 -87 -7q-50 -23 -88 -77v-332h-58v449h58v-84z" />
    <glyph glyph-name="o" unicode="o" horiz-adv-x="484" 
d="M49 175q-8 77 8 137q13 52 47 87t85 47q23 7 48 6h2.5h1.5h6q22 1 42 -5q55 -12 90.5 -49t48.5 -93q15 -62 5 -136q-4 -32 -15.5 -59t-29 -49t-43 -37t-56.5 -22q-20 -5 -42 -5h-6h-1h-3q-25 0 -48 6q-61 15 -96.5 61t-43.5 111zM149 387q-41 -57 -44 -162
q3 -106 44 -162q34 -48 86 -52h8h5q53 4 87 52q40 56 43 162q-3 105 -43 162q-34 47 -87 51q-3 1 -5 1q-3 0 -8 -1q-52 -4 -86 -51z" />
    <glyph glyph-name="p" unicode="p" horiz-adv-x="487" 
d="M123 33v-233h-58v326v4v174v4v7v131h58v-30q40 29 94 37t101 -9q64 -23 94 -79t30 -129q-1 -77 -31 -136.5t-95 -85.5q-45 -18 -98.5 -13t-94.5 32zM123 308v-1v-180v0q1 -36 24 -65q25 -33 64.5 -44t77.5 4q42 19 66 68q29 58 29 151q0 109 -51 163q-42 45 -103 36
q-46 -7 -76 -42t-31 -82v-8z" />
    <glyph glyph-name="q" unicode="q" horiz-adv-x="487" 
d="M364 416v30h58v-138v-4v-174v-4v-326h-58v233q-41 -27 -94.5 -32t-98.5 13q-65 26 -95 85.5t-31 136.5q-1 73 29.5 129t94.5 79q47 17 100.5 9t94.5 -37zM364 127v180v1v8q-1 47 -31 82t-76 42q-61 9 -104 -36q-50 -54 -50 -163q0 -93 28 -151q25 -49 67 -68
q38 -15 77.5 -4t64.5 44q23 29 24 65z" />
    <glyph glyph-name="r" unicode="r" horiz-adv-x="317" 
d="M123 441q27 21 59 28t64 -2q37 -13 48 -40v-1q4 -12 1.5 -22t-11 -14.5t-17 -5t-17 6t-12.5 18.5q-6 17 -18 28q-24 23 -56.5 12t-39.5 -44q-1 -5 -1 -12v-396h-58v449h58v-5z" />
    <glyph glyph-name="s" unicode="s" horiz-adv-x="426" 
d="M186 1q-59 10 -100.5 47.5t-41.5 94.5q-1 17 13.5 25.5t29.5 1.5t15 -27q0 -100 73 -125q27 -10 60 -6q33 5 62 23.5t38 47.5q8 22 0 46q-9 25 -38 43t-64.5 29.5t-71.5 24t-63.5 33t-35.5 49.5q-10 40 8 74q19 33 58.5 50.5t81.5 17.5q30 1 58.5 -6.5t53 -22t39.5 -39.5
t15 -57q1 -15 -11.5 -22.5t-26 -1.5t-13.5 24q0 73 -51 99q-27 14 -62 12q-13 0 -25 -3q-31 -8 -58 -28t-30 -48q-2 -14 4 -28q10 -22 52 -40q7 -3 86 -30q20 -7 33.5 -12.5t31.5 -15t30 -20t22.5 -25.5t13.5 -33q14 -69 -26 -112q-27 -29 -71 -38.5t-89 -1.5z" />
    <glyph glyph-name="t" unicode="t" horiz-adv-x="284" 
d="M79 435h-51v20h51v162h57v-162h126v-20h-126v-260q0 -88 26 -124q33 -47 94 -34l5 1v-12l-3 -1q-8 -3 -16.5 -5t-16.5 -2q-72 -7 -115 52q-20 28 -25.5 55.5t-5.5 69.5v260z" />
    <glyph glyph-name="u" unicode="u" horiz-adv-x="479" 
d="M355 85q-18 -22 -42 -40.5t-52.5 -31.5t-55.5 -15q-72 -7 -114 52q-20 28 -26 55.5t-6 69.5v274h58v-274q0 -76 25 -111q15 -21 38 -31q39 -16 87 7q50 23 88 77v332h58v-452h-58v88z" />
    <glyph glyph-name="v" unicode="v" horiz-adv-x="427" 
d="M233 74l149 376h24l-3 -6q-135 -339 -176 -444l-1 -3h-25l-180 453h62l1 -3q21 -53 71.5 -179t77.5 -194z" />
    <glyph glyph-name="w" unicode="w" horiz-adv-x="590" 
d="M83 450l150 -376l50 127l-99 249h62l68 -171l68 171h24l-80 -200l70 -176l149 376h24l-156 -392q-1 -3 -4 -10.5t-5 -11.5l-15 -39h-25l-64 162l-5 12q-35 -88 -68 -171l-1 -3h-25l-14 36q-1 3 -3 6l-7 19l-156 392h62z" />
    <glyph glyph-name="x" unicode="x" horiz-adv-x="381" 
d="M26 -3l136 226l-136 227h63l105 -175l105 175h25l-118 -195l155 -258h-63l-124 206l-124 -206h-24z" />
    <glyph glyph-name="y" unicode="y" horiz-adv-x="425" 
d="M82 453l149 -376l150 376h23l-208 -528q-49 -120 -117 -125q-29 -2 -59 16q-20 12 -33 30.5t-13 38.5v1q2 28 25 31q14 1 24 -9q11 -11 9 -28q0 -23 8.5 -41t29.5 -20q6 -1 13 0q27 5 50.5 36.5t38.5 67.5l29 74l-17 42q-1 2 -1 3l-2 6l-23 56l-138 349h62z" />
    <glyph glyph-name="z" unicode="z" horiz-adv-x="382" 
d="M29 454l269 1h62l-4 -7q-44 -74 -130 -217.5t-128 -212.5h256v-21h-4h-319h-8l4 7q44 72 130 215.5t128 214.5h-256v20z" />
    <glyph glyph-name="braceleft" unicode="{" horiz-adv-x="258" 
d="M138 381q-19 -23 -45 -32q25 -10 44 -33q34 -41 34 -111v-93q0 -18 0.5 -25t1 -23t2.5 -23t5.5 -19t10 -18t14.5 -13.5t20 -11.5t27 -6h4v-9h-4q-48 1 -73 22q-35 30 -35 117v104q0 73 -29 102q-20 19 -74 34l-3 1v9l3 1q54 15 74 35q29 28 29 102v103q0 87 35 118
q25 21 73 22h4v-9l-4 -1q-17 -2 -30 -7.5t-21.5 -12t-14.5 -18.5t-9 -20.5t-4 -26t-1.5 -25.5t-0.5 -29v-92q0 -71 -33 -112z" />
    <glyph glyph-name="verticalbar" unicode="|" horiz-adv-x="180" 
d="M104 -40h-29v778h29v-778z" />
    <glyph glyph-name="braceright" unicode="}" horiz-adv-x="258" 
d="M120 316q19 23 45 33q-27 9 -46 32q-33 41 -33 112v92v26t-1 22.5t-3 23t-5.5 19.5t-9.5 18t-14.5 13.5t-20.5 11t-27 5.5l-4 1v9h5q47 -1 72 -22q36 -31 36 -118v-103q0 -74 28 -102q20 -20 74 -35l3 -1v-9l-3 -1q-54 -15 -74 -34q-28 -29 -28 -102v-104q0 -87 -36 -117
q-25 -21 -72 -22h-5v9h4q17 2 30.5 8t22 12t14 18.5t8.5 20.5t4.5 25.5t1.5 26v28.5v93q0 70 34 111z" />
    <glyph glyph-name="asciitilde" unicode="~" horiz-adv-x="455" 
d="M26 282l9 22q16 40 40.5 60.5t52.5 23.5t58.5 -1t61.5 -11.5t60 -11.5t56.5 4t46.5 30l17 19l-9 -24q-27 -71 -80 -85q-8 -3 -17 -4t-20.5 0t-18 1t-21 3t-18 4t-20 5t-17.5 4q-36 9 -59.5 12t-53.5 -4t-51 -30z" />
    <glyph glyph-name="uni007F" 
 />
    <glyph glyph-name="nonbreakingspace" unicode="&#xa0;" 
 />
    <glyph glyph-name="exclamdown" unicode="&#xa1;" horiz-adv-x="207" 
d="M118 542l28 -456q2 -26 -20 -38t-44.5 -0.5t-21.5 40.5l35 454h23zM136 625.5q0 -12.5 -8.5 -21t-21 -8.5t-21 8.5t-8.5 21t8.5 21t21 8.5t21 -8.5t8.5 -21z" />
    <glyph glyph-name="cent" unicode="&#xa2;" horiz-adv-x="446" 
d="M393 284q0 -24 -10 -46q-22 -49 -83 -73q-58 -22 -117 -9l-24 -89l-27 7l24 91q-54 22 -79.5 71.5t-24.5 113.5q1 119 71 176q59 46 139 36l23 86l28 -7l-23 -85q42 -12 72 -40t31 -67q1 -14 -12.5 -21t-27 -1.5t-13.5 21.5q-1 14 -5 27t-11.5 24t-17 20.5t-21.5 15.5
l-97 -362q26 -11 56 -7q40 6 68 38q29 33 28 81q0 18 13.5 24.5t27 -1.5t12.5 -24zM105 345q0 -111 57 -157l96 359q-57 15 -99 -27q-54 -52 -54 -175z" />
    <glyph glyph-name="sterling" unicode="&#xa3;" horiz-adv-x="364" 
d="M147 325q0 -40 -2 -66t-13 -59.5t-32 -55.5h215v-9v-37h-265v35l3 2q15 7 26 19q20 25 25 75q3 29 0 96h-58v29h57q-2 82 21 134q20 48 57 66q29 14 61 8.5t54 -29.5q19 -20 22 -46l1 -5l-39 -8l-1 4q-9 31 -36 40q-37 13 -66 -25q-35 -45 -31 -139h85v-29h-84z" />
    <glyph glyph-name="currency" unicode="&#xa4;" horiz-adv-x="571" 
d="M92 353q0 50 26 96l-63 62l72 72l62 -62q44 26 96 26q51 0 96 -27l62 63l73 -70l-63 -63q26 -43 26 -97q0 -52 -26 -97l61 -61l-71 -71l-62 61q-46 -25 -96 -25q-56 0 -97 25l-61 -60l-71 71l62 61q-26 45 -26 96zM193 353q0 -38 26.5 -65t65.5 -27q40 0 67 27t27 65
q0 39 -27.5 66t-66.5 27q-38 0 -65 -27.5t-27 -65.5z" />
    <glyph glyph-name="yen" unicode="&#xa5;" horiz-adv-x="439" 
d="M198 98v128h-105v30h105v49h-105v29h92l-145 265h50l1 -2q24 -43 68.5 -125t65.5 -119l9 -17l145 263h20l-146 -265h95v-29h-107v-49h107v-30h-107v-128h-43z" />
    <glyph glyph-name="brokenbar" unicode="&#xa6;" horiz-adv-x="550" 
d="M222 757h107v-398h-107v398zM222 171h107v-398h-107v398z" />
    <glyph glyph-name="section" unicode="&#xa7;" horiz-adv-x="518" 
d="M146 501q-2 28 11 52q13 23 37 39t50 22.5t53 7.5q41 0 77 -12.5t62.5 -42t26.5 -70.5q1 -15 -11.5 -22.5t-26 -1.5t-13.5 23q0 73 -51 100q-27 14 -62 12q-13 -1 -25 -4q-31 -7 -57.5 -27.5t-30.5 -47.5q-2 -15 4 -28q10 -23 52 -40q7 -4 86 -31q25 -8 42 -15.5
t38 -20.5t34 -30.5t17 -39.5q14 -69 -26 -111q-19 -21 -50 -33q-1 -45 -29 -75q-27 -29 -71 -39t-89 -2q-59 11 -100.5 48.5t-41.5 93.5q-1 18 13.5 26.5t29.5 1.5t15 -27q0 -100 73 -126q27 -9 60 -5t62 23t38 47q8 23 0 47q-9 25 -38 43t-64.5 29.5t-71.5 24t-63.5 33
t-35.5 49.5q-10 40 8 73q20 37 68 56zM380 217l2 -12q26 17 38 42t2 54q-9 24 -37.5 42t-64 29.5t-71.5 24t-63.5 32.5t-35.5 49q-25 -16 -37.5 -38.5t-1.5 -46.5q10 -22 52 -40q7 -3 86 -30q20 -7 33.5 -12.5t31.5 -15t30 -20t22.5 -25.5t13.5 -33z" />
    <glyph glyph-name="dieresis" unicode="&#xa8;" horiz-adv-x="606" 
d="M136 686q0 32 18.5 49t49.5 17q32 0 50.5 -18t18.5 -48q0 -29 -18.5 -47t-50.5 -18q-31 0 -49.5 17t-18.5 48zM333 686q0 34 20 50t49 16q32 0 50.5 -17.5t18.5 -48.5q0 -30 -19 -47.5t-50 -17.5q-29 0 -49 16t-20 49z" />
    <glyph glyph-name="copyright" unicode="&#xa9;" horiz-adv-x="638" 
d="M318.5 624q110.5 0 188.5 -78t78 -188.5t-78 -188.5t-188.5 -78t-188.5 78t-78 188.5t78 188.5t188.5 78zM331 557q3 1 6 0q43 1 81.5 -21.5t38.5 -63.5q0 -9 -9 -13.5t-18 -0.5t-9 16q1 32 -26 53.5t-60 20.5q-43 -2 -76 -44q-39 -52 -41 -147q2 -95 42 -147
q32 -42 76 -43q33 -1 59.5 20.5t25.5 53.5v0q0 12 9 16t18 -0.5t9 -13.5v-2q1 -39 -38.5 -61.5t-81.5 -21.5q-2 -1 -6 -1q-65 1 -104 48.5t-45 114.5q-1 15 -1 35q0 19 1 34q2 36 15 68q18 46 52 73t82 27zM560 357.5q0 99.5 -70.5 170.5t-170.5 71t-171 -71t-71 -170.5
t71 -170.5t171 -71t170.5 71t70.5 170.5z" />
    <glyph glyph-name="ordfeminine" unicode="&#xaa;" horiz-adv-x="270" 
d="M196 420q-23 -22 -65 -25q-21 -2 -41 2.5t-35 19t-15 36.5q0 38 49 51q9 3 37 9q56 11 69 30q-2 27 -15.5 44t-31 21t-34.5 0t-28.5 -20.5t-11.5 -39.5q0 -12 -9 -15.5t-17 1t-7 14.5q0 41 43 63t89.5 2.5t54.5 -81.5q0 -4 1 -14v-122h-33v24zM196 501v21
q-14 -13 -54 -22t-47 -12q-22 -9 -22 -36q0 -23 15 -35q19 -15 47 -10.5t42 23.5q18 24 19 71z" />
    <glyph glyph-name="guillemotleft" unicode="&#xab;" horiz-adv-x="654" 
d="M95 223l396 -198v-32l-461 230l461 231v-32zM220 223l396 -198v-32l-461 230l461 231v-32z" />
    <glyph glyph-name="logicalnot" unicode="&#xac;" horiz-adv-x="571" 
d="M528 121h-107v178h-378v107h485v-285z" />
    <glyph glyph-name="softhyphen" unicode="&#xad;" horiz-adv-x="0" 
 />
    <glyph glyph-name="registered" unicode="&#xae;" horiz-adv-x="638" 
d="M318.5 624q110.5 0 188.5 -78t78 -188.5t-78 -188.5t-188.5 -78t-188.5 78t-78 188.5t78 188.5t188.5 78zM319 116q100 0 170.5 71t70.5 170.5t-70.5 170.5t-170.5 71t-171 -71t-71 -170.5t71 -170.5t171 -71zM431 449q0 -71 -65 -93q27 -6 45 -27.5t18 -49.5v-112h-31
v118q0 25 -18 43t-44 18h-40h-11h-39v-179h-3h-29v3v378h3h112q34 -2 60 -19.5t37 -48.5q5 -15 5 -31zM309 358q44 0 67.5 23.5t23.5 66.5q0 25 -11 44q-23 45 -83 45h-60v-179h17.5h20.5h18h4h3z" />
    <glyph glyph-name="macron" unicode="&#xaf;" horiz-adv-x="365" 
d="M379 334h-365v29h365v-29z" />
    <glyph glyph-name="degree" unicode="&#xb0;" horiz-adv-x="343" 
d="M171 571q54 0 92 -38t38 -92t-38 -92t-92 -38t-92 38t-38 92t38 92t92 38zM262 441.5q0 37.5 -26.5 64t-64.5 26.5t-64.5 -26.5t-26.5 -64t26.5 -64t64.5 -26.5t64.5 26.5t26.5 64z" />
    <glyph glyph-name="plusminus" unicode="&#xb1;" horiz-adv-x="571" 
d="M232 329h-189v107h189v190h107v-190h189v-107h-189v-188h-107v188zM43 0v107h485v-107h-485z" />
    <glyph glyph-name="twosuperior" unicode="&#xb2;" horiz-adv-x="250" 
d="M206 555q-1 -25 -15.5 -46t-34.5 -36t-40 -28.5t-36.5 -31t-20.5 -35.5h146v-29h-163v24v1q3 23 17.5 43t33 35t37 30.5t31.5 35.5t14 44q1 25 -11 43.5t-36 21.5q-21 3 -37.5 -13t-16.5 -37q0 -10 -7.5 -13.5t-15.5 0.5t-8 12q0 30 27.5 47.5t59.5 15.5q35 -3 56.5 -26
t19.5 -58z" />
    <glyph glyph-name="threesuperior" unicode="&#xb3;" horiz-adv-x="249" 
d="M159 509q-7 -3 -12 -5q30 -8 44.5 -33.5t11.5 -52t-24.5 -48t-55.5 -21.5q-32 0 -57 16.5t-24 46.5q0 9 8 12.5t15.5 0t7.5 -13.5v0q-1 -22 13.5 -36t35.5 -14q30 0 43.5 30.5t4.5 63.5t-37 39q-3 1 -10 1h-28v13h4q31 0 51 17q14 11 19 29t1.5 34t-16 27.5t-32.5 11.5
q-21 0 -35.5 -14t-13.5 -36v0q0 -10 -7.5 -13.5t-15.5 0.5t-8 12q-1 30 24 46.5t57 16.5q36 0 60 -24.5t19 -56.5t-43 -49z" />
    <glyph glyph-name="acute" unicode="&#xb4;" horiz-adv-x="606" 
d="M162 606v13q84 98 115 147h167v-10q-25 -25 -86.5 -75.5t-96.5 -74.5h-99z" />
    <glyph glyph-name="mu" unicode="&#xb5;" horiz-adv-x="660" 
d="M227 227q0 -59 21.5 -88.5t67.5 -29.5q62 0 89.5 42t27.5 138v257h149v-546h-113l-21 73h-7q-21 -42 -50 -62.5t-72 -20.5q-30 0 -55.5 11.5t-41.5 32.5l3 -41l2 -77v-156h-149v786h149v-319z" />
    <glyph glyph-name="paragraph" unicode="&#xb6;" horiz-adv-x="654" 
d="M570 -127h-79v789h-81v-789h-79v400q-30 -9 -71 -9q-105 0 -155 61t-50 184q0 127 53.5 189t166.5 62h295v-887z" />
    <glyph glyph-name="periodcentered" unicode="&#xb7;" horiz-adv-x="146" 
d="M73 323q-19 0 -33 13.5t-14 32.5t14 32t33 13t33 -13t14 -32t-14 -32.5t-33 -13.5z" />
    <glyph glyph-name="cedilla" unicode="&#xb8;" horiz-adv-x="205" 
d="M204 -122q0 -62 -37 -90t-114 -28q-38 0 -71 10v82q13 -3 35.5 -6.5t34.5 -3.5q35 0 35 30q0 41 -81 53l38 75h94l-13 -30q36 -12 57.5 -36.5t21.5 -55.5z" />
    <glyph glyph-name="onesuperior" unicode="&#xb9;" horiz-adv-x="125" 
d="M77 349h-29v290h29v-290z" />
    <glyph glyph-name="ordmasculine" unicode="&#xba;" horiz-adv-x="290" 
d="M45 468q-2 24 0 49q3 47 28 84.5t68 37.5h7q30 0 52 -20t32 -46.5t13 -55.5q1 -25 -1 -49q-4 -46 -28.5 -82t-67.5 -36h-7q-43 0 -67.5 36t-28.5 82zM144 627q-26 -1 -44 -28.5t-22 -66t0 -77t22 -65.5t45 -28q26 1 44 28t22 65.5t0 77t-22 66t-44 28.5h-1z" />
    <glyph glyph-name="guillemotright" unicode="&#xbb;" horiz-adv-x="654" 
d="M558 223l-396 199v32l461 -231l-461 -230v32zM433 223l-396 199v32l461 -231l-461 -230v32z" />
    <glyph glyph-name="onequarter" unicode="&#xbc;" horiz-adv-x="880" 
d="M821 74h-61v-74h-116v74h-187v75l188 282h115v-275h61v-82zM644 156v80q0 42 3 90q-4 -13 -17 -39.5t-21 -37.5l-62 -93h97zM55 349h-29v290h29v-290zM669 714l-396 -714h-117l396 714h117z" />
    <glyph glyph-name="onehalf" unicode="&#xbd;" horiz-adv-x="880" 
d="M55 349h-29v290h29v-290zM669 714l-396 -714h-117l396 714h117zM701 269q-1 -25 -15.5 -46t-34.5 -36t-40 -28.5t-36.5 -31t-20.5 -35.5h146v-29h-163v24v1q3 23 17.5 43t33 35t37 30.5t31.5 35.5t14 44q1 25 -11 43.5t-36 21.5q-21 3 -37.5 -13t-16.5 -37
q0 -10 -7.5 -13.5t-15.5 0.5t-8 12q0 30 27.5 47.5t59.5 15.5q35 -3 56.5 -26t19.5 -58z" />
    <glyph glyph-name="threequarters" unicode="&#xbe;" horiz-adv-x="880" 
d="M836 74h-61v-74h-116v74h-187v75l188 282h115v-275h61v-82zM659 156v80q0 42 3 90q-4 -13 -17 -39.5t-21 -37.5l-62 -93h97zM174 509q-7 -3 -12 -5q30 -8 44.5 -33.5t11.5 -52t-24.5 -48t-55.5 -21.5q-32 0 -57 16.5t-24 46.5q0 9 8 12.5t15.5 0t7.5 -13.5v0
q-1 -22 13.5 -36t35.5 -14q30 0 43.5 30.5t4.5 63.5t-37 39q-3 1 -10 1h-28v13h4q31 0 51 17q14 11 19 29t1.5 34t-16 27.5t-32.5 11.5q-21 0 -35.5 -14t-13.5 -36v0q0 -10 -7.5 -13.5t-15.5 0.5t-8 12q-1 30 24 46.5t57 16.5q36 0 60 -24.5t19 -56.5t-43 -49zM704 714
l-396 -714h-117l396 714h117z" />
    <glyph glyph-name="questiondown" unicode="&#xbf;" horiz-adv-x="428" 
d="M304 159q1 19 10.5 30.5t22 13.5t25 -1.5t21 -15.5t7.5 -28q0 -9 -3 -18q-7 -22 -25.5 -40t-39.5 -29t-44 -18q-34 -10 -67 -10q-100 0 -144 67q-22 33 -24.5 66t13 63t36 54t49.5 49q45 39 64 74q28 51 27 123v4h24v-4q0 -88 -25 -148q-16 -38 -56 -87q-1 -1 -2 -2.5
t-2 -2.5t-2 -2.5t-2 -2.5q-90 -111 -51 -180q13 -23 40 -36t56 -13q35 0 61 20q35 26 31 73v1zM273 625.5q0 -12.5 -8.5 -21t-21 -8.5t-21 8.5t-8.5 20.5q0 8 4 15t11 11t15 4q12 0 20.5 -8.5t8.5 -21z" />
    <glyph glyph-name="Agrave" unicode="&#xc0;" horiz-adv-x="607" 
d="M427 260h-287l-104 -259h-23l2 6q13 31 138 343q102 257 137 344l1 3h25l277 -699h-61l-1 2q-20 49 -104 260zM356 751l-7 -7l-145 97q-21 14 -10 38q11 23 34 18q10 -3 19 -11zM148 281h271q-97 244 -135 339z" />
    <glyph glyph-name="Aacute" unicode="&#xc1;" horiz-adv-x="607" 
d="M210 751l109 135q26 23 46 2q18 -18 6 -38q-4 -5 -9 -9l-145 -97zM427 260h-287l-104 -259h-23l2 6q13 31 138 343q102 257 137 344l1 3h25l277 -699h-61l-1 2q-32 79 -104 260zM148 281h271q-97 244 -135 339z" />
    <glyph glyph-name="Acircumflex" unicode="&#xc2;" horiz-adv-x="607" 
d="M427 260h-287l-104 -259h-23l2 6q13 31 138 343q102 257 137 344l1 3h25l277 -699h-61l-1 2q-32 79 -104 260zM305 822l-95 -57q-12 -9 -18 1q-1 5 2 10l107 109q4 4 7 0h1l107 -110l1 -1q7 -8 -3 -12q-7 -4 -14 1zM148 281h271q-99 248 -135 339z" />
    <glyph glyph-name="Atilde" unicode="&#xc3;" horiz-adv-x="607" 
d="M427 260h-287l-104 -259h-23l2 6q13 31 138 343q102 257 137 344l1 3h25l277 -699h-61l-1 2zM163 779q16 39 43 52.5t57.5 9t60.5 -12.5t59.5 -5.5t48.5 23.5l16 19l-9 -24q-19 -51 -57 -61q-23 -5 -53 -0.5t-56 13t-54.5 5t-47.5 -23.5l-17 -17zM148 281h271
q-97 244 -135 339z" />
    <glyph glyph-name="Adieresis" unicode="&#xc4;" horiz-adv-x="607" 
d="M241 863q9 0 16.5 -3t13 -9t9 -13.5t3.5 -16.5q0 -17 -12.5 -29.5t-29.5 -12.5t-29.5 12.5t-12.5 30t12.5 29.5t29.5 12zM427 260h-287l-104 -259h-23l2 6q13 31 138 343q102 257 137 344l1 3h25l277 -699h-61l-1 2q-32 79 -104 260zM419 281q-99 248 -135 339l-136 -339
h271zM323 821.5q0 17.5 12.5 29.5t30 12t29.5 -12t12 -29.5t-12 -30t-29.5 -12.5t-30 12.5t-12.5 30z" />
    <glyph glyph-name="Aring" unicode="&#xc5;" horiz-adv-x="607" 
d="M297 870q29 0 50 -20.5t21 -49.5t-21 -49.5t-50 -20.5t-49.5 20.5t-20.5 49.5t20.5 49.5t49.5 20.5zM427 260h-287l-104 -259h-23l2 6q13 31 138 343q102 257 137 344l1 3h25l277 -699h-61l-1 2q-23 57 -104 260zM419 281q-98 247 -135 339l-136 -339h271zM334 800
q0 15 -10.5 26t-26 11t-26 -11t-10.5 -26q0 -10 4.5 -18.5t13 -13.5t18.5 -5q16 0 26.5 11t10.5 26z" />
    <glyph glyph-name="AE" unicode="&#xc6;" horiz-adv-x="921" 
d="M591 676v-307h234v-21h-234v-329h309v-21h-368l-1 2l-104 260h-287l-104 -259h-23l2 6q13 31 138 343q102 257 137 344l1 3h25l217 -548v548h367v-21h-309zM148 281h271q-99 248 -135 339z" />
    <glyph glyph-name="Egrave" unicode="&#xc8;" horiz-adv-x="463" 
d="M132 676v-307h235v-21h-235v-329h310v-21h-367v699h367v-21h-310zM233 886l109 -135l-8 -7l-144 97q-21 14 -10 38q11 23 34 18q10 -3 19 -11z" />
    <glyph glyph-name="Eacute" unicode="&#xc9;" horiz-adv-x="463" 
d="M132 676v-307h235v-21h-235v-329h310v-21h-367v699h367v-21h-310zM183 744l-7 7l108 135q26 23 47 2q17 -18 5 -38q-3 -5 -9 -9z" />
    <glyph glyph-name="Ecircumflex" unicode="&#xca;" horiz-adv-x="463" 
d="M132 676v-307h235v-21h-235v-329h310v-21h-367v699h367v-21h-310zM353 763l-95 59l-94 -57q-13 -9 -18 1q-2 5 1 10l108 109q3 4 7 0l108 -110v-1q7 -8 -3 -12q-6 -4 -14 1z" />
    <glyph glyph-name="Edieresis" unicode="&#xcb;" horiz-adv-x="463" 
d="M132 676v-307h235v-21h-235v-329h310v-21h-367v699h367v-21h-310zM320.5 863q17.5 0 30 -12t12.5 -29.5t-12.5 -30t-30 -12.5t-29.5 12.5t-12 30t12 29.5t29.5 12zM154 821.5q0 17.5 12.5 29.5t30 12t29.5 -12t12 -29.5t-12 -30t-29.5 -12.5t-30 12.5t-12.5 30z" />
    <glyph glyph-name="Igrave" unicode="&#xcc;" horiz-adv-x="208" 
d="M75 697h57v-699h-57v699zM78 886l109 -135l-8 -7l-144 97q-21 14 -10 38q11 23 34 18q9 -3 19 -11z" />
    <glyph glyph-name="Iacute" unicode="&#xcd;" horiz-adv-x="208" 
d="M75 697h58v-699h-58v699zM28 744l-7 7l109 135q26 23 46 2q18 -18 6 -38q-4 -5 -9 -9z" />
    <glyph glyph-name="Icircumflex" unicode="&#xce;" horiz-adv-x="208" 
d="M75 697h57v-699h-57v699zM199 763l-96 59l-94 -57q-12 -9 -18 1q-2 5 1 10h1l107 109q3 4 7 0l108 -110v-1q7 -8 -3 -12q-6 -4 -13 1z" />
    <glyph glyph-name="Idieresis" unicode="&#xcf;" horiz-adv-x="207" 
d="M75 697h57v-699h-57v699zM165.5 863q17.5 0 29.5 -12t12 -29.5t-12 -30t-29.5 -12.5t-30 12.5t-12.5 30t12.5 29.5t30 12zM-1 821q0 12 5.5 21.5t15.5 15t21 5.5q17 0 29.5 -12t12.5 -29.5t-12.5 -30t-29.5 -12.5t-29.5 12.5t-12.5 29.5z" />
    <glyph glyph-name="Eth" unicode="&#xd0;" horiz-adv-x="740" 
d="M23 415h67v299h224q175 0 271.5 -92.5t96.5 -257.5q0 -176 -100.5 -270t-289.5 -94h-202v291h-67v124zM525 360q0 113 -51 171.5t-153 58.5h-80v-175h116v-124h-116v-166h64q220 0 220 235z" />
    <glyph glyph-name="Ntilde" unicode="&#xd1;" horiz-adv-x="559" 
d="M166 779q16 39 42.5 52.5t57 9t60.5 -12.5t59.5 -5.5t48.5 23.5l17 19l-9 -24q-20 -51 -58 -61q-23 -5 -53 -0.5t-56 13t-54 5t-48 -23.5l-17 -17zM96 697v-5l237 -378l130 -206v589h21v-699h-20l-368 586v-586h-21v699h21z" />
    <glyph glyph-name="Ograve" unicode="&#xd2;" horiz-adv-x="637" 
d="M401 751l-7 -7l-145 97q-20 14 -9 38q10 23 33 18q10 -3 19 -11h1zM51 284q-3 25 -3 60q0 33 2 58q4 63 26 120q31 80 90.5 126.5t142.5 47.5h18q100 -1 168 -70q41 -42 64 -101.5t28 -122.5q1 -25 1 -58q0 -35 -2 -60q-5 -56 -24 -105.5t-50.5 -89.5t-79 -64t-105.5 -25
h-18q-57 1 -105 25t-79.5 64t-50 89.5t-23.5 105.5zM185 92q57 -73 133 -75q77 2 133 75q69 91 73 256q-4 165 -72 255q-56 74 -133 77h-1h-1q-76 -3 -132 -77q-69 -90 -73 -255q4 -165 73 -256z" />
    <glyph glyph-name="Oacute" unicode="&#xd3;" horiz-adv-x="637" 
d="M235 751l109 135q26 23 46 2q18 -18 6 -38q-4 -5 -9 -9l-145 -97zM51 284q-3 25 -3 60q0 33 2 58q4 63 26 120q31 80 90.5 126.5t142.5 47.5h18q100 -1 168 -70q41 -42 64 -101.5t28 -122.5q1 -25 1 -58q0 -35 -2 -60q-5 -56 -24 -105.5t-50.5 -89.5t-79 -64t-105.5 -25
h-18q-57 1 -105 25t-79.5 64t-50 89.5t-23.5 105.5zM185 92q57 -73 133 -75q77 2 133 75q69 91 73 256q-4 165 -72 255q-56 74 -133 77h-1h-1q-76 -3 -132 -77q-69 -90 -73 -255q4 -165 73 -256z" />
    <glyph glyph-name="Ocircumflex" unicode="&#xd4;" horiz-adv-x="637" 
d="M318 822l-95 -57q-12 -9 -18 1q-1 5 2 10l107 109q4 4 7 0l108 -110v-1q8 -8 -2 -12q-7 -4 -14 1zM51 284q-3 25 -3 60q0 33 2 58q4 63 26 120q31 80 90.5 126.5t142.5 47.5h18q100 -1 168 -70q41 -42 64 -101.5t28 -122.5q1 -25 1 -58q0 -35 -2 -60q-5 -56 -24 -105.5
t-50.5 -89.5t-79 -64t-105.5 -25h-18q-57 1 -105 25t-79.5 64t-50 89.5t-23.5 105.5zM185 92q57 -73 133 -75q77 2 133 75q69 91 73 256q-4 165 -72 255q-56 74 -133 77h-1h-1q-76 -3 -132 -77q-69 -90 -73 -255q4 -165 73 -256z" />
    <glyph glyph-name="Otilde" unicode="&#xd5;" horiz-adv-x="637" 
d="M180 779q16 39 43 52.5t57.5 9t60.5 -12.5t59.5 -5.5t48.5 23.5l16 19l-9 -24q-19 -51 -57 -61q-23 -5 -53 -0.5t-56 13t-54.5 5t-47.5 -23.5l-17 -17zM51 284q-3 25 -3 60q0 33 2 58q4 63 26 120q31 80 90.5 126.5t142.5 47.5h18q100 -1 168 -70q41 -42 64 -101.5
t28 -122.5q1 -25 1 -58q0 -35 -2 -60q-5 -56 -24 -105.5t-50.5 -89.5t-79 -64t-105.5 -25h-18q-57 1 -105 25t-79.5 64t-50 89.5t-23.5 105.5zM185 92q17 -21 37 -37.5t45 -27t51 -10.5q77 2 133 75q69 91 73 256q-4 165 -72 255q-56 74 -133 77h-1h-1q-76 -3 -132 -77
q-69 -90 -73 -255q4 -165 73 -256z" />
    <glyph glyph-name="Odieresis" unicode="&#xd6;" horiz-adv-x="637" 
d="M256 863q17 0 29.5 -12t12.5 -29.5t-12.5 -30t-29.5 -12.5t-29.5 12.5t-12.5 30t12.5 29.5t29.5 12zM51 284q-3 25 -3 60q0 33 2 58q4 63 26 120q31 80 90.5 126.5t142.5 47.5h18q100 -1 168 -70q41 -42 64 -101.5t28 -122.5q1 -25 1 -58q0 -35 -2 -60q-4 -44 -16.5 -85
t-34.5 -77t-51.5 -63t-69.5 -42.5t-87 -16.5h-18q-57 1 -105 25t-79.5 64t-50 89.5t-23.5 105.5zM318 17q77 2 133 75q69 91 73 256q-4 165 -72 255q-56 74 -133 77h-1h-1q-76 -3 -132 -77q-69 -90 -73 -255q4 -165 73 -256q57 -73 133 -75zM338 821.5q0 17.5 12.5 29.5
t30 12t29.5 -12t12 -29.5t-12 -30t-29.5 -12.5t-30 12.5t-12.5 30z" />
    <glyph glyph-name="multiply" unicode="&#xd7;" horiz-adv-x="353" 
d="M37 230l119 119l-119 118l21 21l118 -119l119 119l20 -21l-118 -118l118 -119l-20 -20l-119 118l-118 -118z" />
    <glyph glyph-name="Oslash" unicode="&#xd8;" horiz-adv-x="637" 
d="M403 684l27 79l55 -19l-30 -85q59 -39 92.5 -109t39.5 -148q1 -25 1 -58q0 -35 -2 -60q-4 -44 -16.5 -85t-34.5 -77t-51.5 -63t-69.5 -42.5t-87 -16.5h-18q-40 1 -76 13l-27 -79l-54 18l29 86q-57 37 -90.5 104t-39.5 142q-3 25 -3 60q0 33 2 58q4 63 26 120
q31 80 90.5 126.5t142.5 47.5h18q41 0 76 -12zM196 80l198 576q-37 22 -75 24h-1h-1q-76 -3 -132 -77q-69 -90 -73 -255q5 -178 84 -268zM524 348q-4 179 -83 268l-198 -576q36 -22 75 -23q77 2 133 75q69 91 73 256z" />
    <glyph glyph-name="Ugrave" unicode="&#xd9;" horiz-adv-x="575" 
d="M68 242v455h57v-455q0 -208 180 -215q62 -3 103 22q76 46 76 181v467h21v-471q0 -110 -49 -171.5t-155 -62.5q-66 0 -116 23q-117 55 -117 227zM261 886l109 -135l-7 -7l-145 97q-21 14 -10 38q11 23 34 18q10 -3 19 -11z" />
    <glyph glyph-name="Uacute" unicode="&#xda;" horiz-adv-x="575" 
d="M68 242v455h57v-455q0 -208 180 -215q62 -3 103 22q76 46 76 181v467h21v-471q0 -232 -204 -234q-66 0 -116 23q-117 55 -117 227zM211 744l-7 7l108 135q26 23 47 2q17 -18 5 -38q-3 -5 -9 -9z" />
    <glyph glyph-name="Ucircumflex" unicode="&#xdb;" horiz-adv-x="575" 
d="M68 242v455h57v-455q0 -208 180 -215q62 -3 103 22q76 46 76 181v467h21v-471q0 -232 -204 -234q-66 0 -116 23q-117 55 -117 227zM381 763l-95 59l-94 -57q-13 -9 -18 1q-3 5 1 10h1l107 109q3 4 7 0l108 -110v-1q7 -8 -3 -12q-6 -4 -14 1z" />
    <glyph glyph-name="Udieresis" unicode="&#xdc;" horiz-adv-x="575" 
d="M68 242v455h57v-455q0 -208 180 -215q62 -3 103 22q76 46 76 181v467h21v-471q0 -110 -49 -171.5t-155 -62.5q-66 0 -116 23q-117 55 -117 227zM348.5 863q17.5 0 30 -12t12.5 -29.5t-12.5 -30t-30 -12.5t-29.5 12.5t-12 30t12 29.5t29.5 12zM182 821q0 18 12.5 30t30 12
t30 -12t12.5 -29.5t-12.5 -30t-30.5 -12.5q-11 0 -20.5 6t-15.5 15.5t-6 20.5z" />
    <glyph glyph-name="Yacute" unicode="&#xdd;" horiz-adv-x="517" 
d="M175 751l109 135q26 23 46 2q18 -18 6 -38q-4 -5 -9 -9l-145 -97zM230 295l-220 402h66l1 -3q33 -60 95.5 -174.5t91.5 -167.5l15 -26l203 371h24l-219 -398v-301h-57v297z" />
    <glyph glyph-name="Thorn" unicode="&#xde;" horiz-adv-x="627" 
d="M583 376q0 -112 -69.5 -172.5t-197.5 -60.5h-75v-143h-151v714h151v-112h87q124 0 189.5 -58t65.5 -168zM241 265h49q71 0 105.5 25.5t34.5 85.5q0 52 -31 77.5t-97 25.5h-61v-214z" />
    <glyph glyph-name="germandbls" unicode="&#xdf;" horiz-adv-x="521" 
d="M269 378q73 5 109 63q24 38 24 86q0 39 -21 71t-54.5 49.5t-73.5 17.5q-29 1 -54 -12q-39 -19 -58 -59t-19 -87v-643h-57v652q0 38 9.5 71t31 61.5t54.5 45.5q43 22 94 20q53 -1 99.5 -24t76 -66t29.5 -96q0 -64 -45 -110q-37 -39 -96 -51q66 -13 109 -60q51 -54 52 -128
q0 -18 -3 -35q-12 -60 -58 -100q-51 -43 -127 -46h-70v20h27q18 0 34.5 2.5t32 8t29.5 13.5t26 18.5t21.5 24t16.5 30.5q13 31 13 66q1 68 -42 118q-48 55 -127 58h-25v21h42z" />
    <glyph glyph-name="agrave" unicode="&#xe0;" horiz-adv-x="480" 
d="M343 516l-7 -7l-145 97q-21 15 -10 38t34 18q10 -3 19 -11zM366 57q-45 -50 -137 -58q-47 -4 -92.5 8.5t-69.5 45.5q-19 25 -19 59q0 42 25.5 65t71.5 36q18 4 75 16q35 8 54.5 13t48.5 19.5t42 33.5q-5 56 -33 93t-65.5 45.5t-73.5 0t-61 -43.5t-25 -84q0 -20 -15 -27
t-29.5 1.5t-12.5 25.5q0 23 8 45q20 48 76 77q54 27 115 23q66 -4 111 -46q51 -47 62 -132q1 -8 2 -28v-244h-58v56zM366 210q1 25 0 54q-29 -31 -119 -51q-72 -16 -93 -25q-49 -20 -49 -77q0 -50 34 -76q40 -31 98.5 -21.5t88.5 49.5q37 49 40 147z" />
    <glyph glyph-name="aacute" unicode="&#xe1;" horiz-adv-x="480" 
d="M177 516l108 135h1q25 23 46 2q17 -18 5 -38q-3 -5 -9 -9l-144 -97zM366 57q-45 -50 -137 -58q-47 -4 -92.5 8.5t-69.5 45.5q-19 25 -19 59q0 42 25.5 65t71.5 36q18 4 75 16q26 6 40 9.5t38 11.5t40.5 19t26.5 26q-5 56 -33 93t-65.5 45.5t-73.5 0t-61 -43.5t-25 -84
q0 -20 -15 -27t-29.5 1.5t-12.5 25.5q0 23 8 45q20 48 76 77q54 27 115 23q66 -4 111 -46q51 -47 62 -132q1 -8 2 -28v-244h-58v56zM366 210q1 25 0 54q-29 -31 -119 -51q-72 -16 -93 -25q-49 -20 -49 -77q0 -50 34 -76q40 -31 98.5 -21.5t88.5 49.5q37 49 40 147z" />
    <glyph glyph-name="acircumflex" unicode="&#xe2;" horiz-adv-x="480" 
d="M366 57q-45 -50 -137 -58q-47 -4 -92.5 8.5t-69.5 45.5q-19 25 -19 59q0 42 25.5 65t71.5 36q18 4 75 16q35 8 54.5 13t48.5 19.5t42 33.5q-5 56 -33 93t-65.5 45.5t-73.5 0t-61 -43.5t-25 -84q0 -20 -15 -27t-29.5 1.5t-12.5 25.5q0 23 8 45q20 48 76 77q54 27 115 23
q66 -4 111 -46q51 -47 62 -132q1 -8 2 -28v-244h-58v56zM259 587l-94 -57q-12 -9 -18 1q-3 5 1 10h1l107 109q3 4 7 1v-1l108 -110q7 -9 -3 -13q-6 -3 -13 1zM366 210q1 25 0 54q-29 -31 -119 -51q-72 -16 -93 -25q-49 -20 -49 -77q0 -50 34 -76q40 -31 98.5 -21.5
t88.5 49.5q37 49 40 147z" />
    <glyph glyph-name="atilde" unicode="&#xe3;" horiz-adv-x="480" 
d="M122 544q16 39 43 52.5t57 9t60 -12t60 -5.5t48 23l17 19l-9 -23q-20 -52 -58 -62q-23 -5 -53 -0.5t-56 13t-54 5.5t-48 -24l-16 -17zM366 57q-45 -50 -137 -58q-47 -4 -92.5 8.5t-69.5 45.5q-19 25 -19 59q0 42 25.5 65t71.5 36q18 4 75 16q35 8 54.5 13t48.5 19.5
t42 33.5q-5 56 -33 93t-65.5 45.5t-73.5 0t-61 -43.5t-25 -84q0 -20 -15 -27t-29.5 1.5t-12.5 25.5q0 23 8 45q20 48 76 77q54 27 115 23q66 -4 111 -46q51 -47 62 -132q1 -8 2 -28v-244h-58v56zM366 210q1 25 0 54q-29 -31 -119 -51q-72 -16 -93 -25q-49 -20 -49 -77
q0 -50 34 -76q40 -31 98.5 -21.5t88.5 49.5q37 49 40 147z" />
    <glyph glyph-name="adieresis" unicode="&#xe4;" horiz-adv-x="480" 
d="M366 57q-45 -50 -137 -58q-47 -4 -92.5 8.5t-69.5 45.5q-19 25 -19 59q0 42 25.5 65t71.5 36q18 4 75 16q35 8 54.5 13t48.5 19.5t42 33.5q-5 56 -33 93t-65.5 45.5t-73.5 0t-61 -43.5t-25 -84q0 -20 -15 -27t-29.5 1.5t-12.5 25.5q0 23 8 45q20 48 76 77q54 27 115 23
q66 -4 111 -46q51 -47 62 -132q1 -8 2 -28v-244h-58v56zM321.5 628q17.5 0 30 -12t12.5 -29.5t-12.5 -30t-30 -12.5t-29.5 12.5t-12 30t12 29.5t29.5 12zM197.5 628q17.5 0 30 -12t12.5 -29.5t-12.5 -30t-30 -12.5t-29.5 12.5t-12 30t12 29.5t29.5 12zM366 210q1 25 0 54
q-29 -31 -119 -51q-72 -16 -93 -25q-49 -20 -49 -77q0 -50 34 -76q40 -31 98.5 -21.5t88.5 49.5q37 49 40 147z" />
    <glyph glyph-name="aring" unicode="&#xe5;" horiz-adv-x="480" 
d="M260 636q29 0 49.5 -21t20.5 -50t-20.5 -49.5t-49.5 -20.5t-50 20.5t-21 49.5t21 50t50 21zM366 57q-23 -26 -60.5 -40.5t-76.5 -17.5q-47 -4 -92.5 8.5t-69.5 45.5q-19 25 -19 59q0 29 14 50t34 31.5t49 19.5q18 4 75 16q35 8 54.5 13t48.5 19.5t42 33.5q-5 56 -33 93
t-65.5 45.5t-73.5 0t-61 -43.5t-25 -84q0 -20 -15 -27t-29.5 1.5t-12.5 25.5q0 23 8 45q20 48 76 77q54 28 115 23q66 -4 111 -46q51 -47 62 -132q1 -8 2 -28v-244h-58v56zM366 264q-29 -31 -119 -51q-72 -16 -93 -25q-49 -20 -49 -77q0 -50 34 -76q40 -31 98.5 -21.5
t88.5 49.5q37 49 40 147q1 25 0 54zM297 565q0 10 -5 18.5t-13.5 13.5t-18.5 5q-16 0 -26.5 -10.5t-10.5 -26t10.5 -26.5t26 -11t26.5 11t11 26z" />
    <glyph glyph-name="ae" unicode="&#xe6;" horiz-adv-x="790" 
d="M398 353q28 51 78 77q47 25 105 22q54 -2 97 -27q45 -25 58 -65q6 -15 6 -30q0 -25 -13 -43q-18 -26 -66 -42q-22 -7 -92 -22q-51 -11 -77 -20q-49 -18 -68 -46q6 -69 47 -108q37 -35 89 -34q18 0 35 5q42 12 64.5 46.5t22.5 79.5q0 21 15 27.5t29.5 -2t13.5 -25.5
q0 -24 -10 -47q-21 -46 -75 -74q-52 -27 -112 -24q-74 4 -121 52v-52h-58v56q-45 -50 -137 -58q-47 -4 -92.5 8.5t-69.5 45.5q-19 25 -19 59q0 42 25.5 65t71.5 36q18 4 75 16q35 8 54.5 13t48.5 19.5t42 33.5q-5 56 -33 93t-65.5 45.5t-73.5 0t-61 -43.5t-25 -84
q0 -20 -15 -27t-29.5 1.5t-12.5 25.5q0 23 8 45q19 44 65 70.5t98 29.5q38 3 72 -7.5t61 -33.5t44 -57zM366 264q-29 -31 -119 -51q-72 -16 -93 -25q-49 -20 -49 -77q0 -50 34 -76q40 -31 98.5 -21.5t88.5 49.5q37 49 40 147q1 25 0 54zM425 213v-13.5v-15.5q31 32 113 52
q74 18 83 21q41 14 55 34q8 13 8 30q0 37 -19.5 67.5t-53.5 43.5q-32 12 -64 5.5t-58 -28.5q-64 -59 -64 -196z" />
    <glyph glyph-name="ccedilla" unicode="&#xe7;" horiz-adv-x="466" 
d="M362 146q0 21 15 27.5t29.5 -2t12.5 -25.5q1 -27 -10 -51q-21 -48 -75 -73t-111 -21l-2 -6q15 -6 21 -18q5 -9 4 -19q-2 -9 -8 -17q-20 -22 -62 -18h-5l3 28l4 -1q29 -2 39 9q1 2 1 4v1q-3 5 -18 6l-19 1l14 33q-65 13 -104 61q-47 58 -46 154q1 105 52 166q44 54 116 65
q64 11 123 -16q60 -26 78 -75q5 -15 5 -31q2 -15 -12.5 -22.5t-29.5 -2t-15 23.5q-1 35 -24 65q-25 32 -64 43t-77 -4q-42 -18 -66 -68q-28 -58 -28 -150q0 -138 77 -184q56 -32 115 -1q58 31 66 98q1 10 1 20z" />
    <glyph glyph-name="egrave" unicode="&#xe8;" horiz-adv-x="468" 
d="M315 516l-7 -7l-145 97q-20 15 -9 38t33 18q11 -3 19 -11h1zM419 146q0 -72 -74 -116q-73 -43 -156 -25q-96 22 -129 117q-15 42 -15 97q1 104 52 166q45 53 117 65q65 10 124 -16q60 -26 76 -74q5 -15 5 -30q0 -25 -12 -43q-18 -26 -66 -42q-22 -7 -93 -22
q-50 -11 -77 -20q-48 -17 -67 -46q6 -69 47 -108q37 -35 88 -34q18 0 35 5q42 12 65 46.5t23 79.5q0 26 23 30q23 3 32 -16q3 -6 2 -14zM103 213q0 -4 -0.5 -13.5t-0.5 -15.5q32 32 113 52q75 18 84 21q41 14 55 34q8 13 8 30q0 37 -19.5 67.5t-54.5 43.5q-32 12 -64 5.5
t-57 -28.5q-65 -59 -64 -196z" />
    <glyph glyph-name="eacute" unicode="&#xe9;" horiz-adv-x="468" 
d="M149 516l109 135q26 23 46 2q18 -18 6 -38q-4 -5 -9 -9l-145 -97zM419 146q0 -72 -74 -116q-73 -43 -156 -25q-96 22 -129 117q-15 42 -15 97q1 104 52 166q45 53 117 65q65 10 124 -16q60 -26 76 -74q5 -15 5 -30q0 -25 -12 -43q-18 -26 -66 -42q-22 -7 -93 -22
q-50 -11 -77 -20q-48 -17 -67 -46q6 -69 47 -108q37 -35 88 -34q18 0 35 5q42 12 65 46.5t23 79.5q0 21 15 27.5t29.5 -2t12.5 -25.5zM103 213q0 -4 -0.5 -14.5t-0.5 -14.5q32 32 113 52q75 18 84 21q41 14 55 34q8 13 8 30q0 37 -19.5 67.5t-54.5 43.5q-32 12 -64 5.5
t-57 -28.5q-65 -59 -64 -196z" />
    <glyph glyph-name="ecircumflex" unicode="&#xea;" horiz-adv-x="468" 
d="M232 587l-95 -57q-12 -9 -18 1q-2 5 2 10l107 109q4 4 7 1l1 -1l107 -110q8 -9 -2 -13q-7 -3 -14 1zM419 146q0 -71 -72 -115q-74 -44 -157 -26q-96 21 -130 115q-15 43 -15 99q1 104 52 166q45 53 117 65q65 10 124 -16q60 -26 76 -74q5 -15 5 -30q0 -25 -12 -43
q-18 -26 -66 -42q-22 -7 -93 -22q-50 -11 -77 -20q-48 -17 -67 -46q6 -69 47 -108q37 -35 88 -34q18 0 35 5q42 12 65 46.5t23 79.5q0 26 23 30q23 3 32 -16q3 -6 2 -14zM103 213q0 -3 -0.5 -14t-0.5 -15q32 32 113 52q75 18 84 21q41 14 55 34q8 13 8 30q0 25 -9 46.5
t-25.5 38.5t-39.5 26q-32 12 -64 5.5t-57 -28.5q-65 -59 -64 -196z" />
    <glyph glyph-name="edieresis" unicode="&#xeb;" horiz-adv-x="468" 
d="M170 628q17 0 29.5 -12t12.5 -29.5t-12.5 -30t-29.5 -12.5t-29.5 12.5t-12.5 30t12.5 29.5t29.5 12zM419 146q0 -72 -74 -116q-73 -43 -156 -25q-96 22 -129 117q-15 42 -15 97q1 104 52 166q45 53 117 65q65 10 124 -16q60 -26 76 -74q5 -15 5 -30q0 -25 -12 -43
q-18 -26 -66 -42q-22 -7 -93 -22q-50 -11 -77 -20q-48 -17 -67 -46q6 -69 47 -108q37 -35 88 -34q18 0 35 5q42 12 65 46.5t23 79.5q0 26 23 30q23 3 32 -16q3 -6 2 -14zM102 184q32 32 113 52q75 18 84 21q41 14 55 34q8 13 8 30q0 37 -19.5 67.5t-54.5 43.5
q-32 12 -64 5.5t-57 -28.5q-65 -59 -64 -196q0 -4 -0.5 -13.5t-0.5 -15.5zM252 586q0 12 6 21.5t15.5 15t21 5.5t21 -5.5t15 -15t5.5 -21.5q0 -17 -12 -29.5t-29.5 -12.5t-30 12.5t-12.5 29.5z" />
    <glyph glyph-name="igrave" unicode="&#xec;" horiz-adv-x="188" 
d="M177 516l-8 -7l-144 97q-21 15 -10 38t34 18q9 -2 19 -11zM65 451h57v-453h-57v453z" />
    <glyph glyph-name="iacute" unicode="&#xed;" horiz-adv-x="188" 
d="M11 516l109 135q26 23 46 2q18 -18 5 -38q-3 -5 -8 -9l-145 -97zM65 451h58v-453h-58v453z" />
    <glyph glyph-name="icircumflex" unicode="&#xee;" horiz-adv-x="188" 
d="M93 587l-94 -57q-12 -9 -18 1q-3 5 1 10h1l107 109q3 4 7 1v-1l108 -110q7 -9 -3 -13q-6 -3 -13 1zM65 451h57v-453h-57v453z" />
    <glyph glyph-name="idieresis" unicode="&#xef;" horiz-adv-x="187" 
d="M31 628q17 0 29.5 -12t12.5 -29.5t-12.5 -30t-29.5 -12.5t-29.5 12.5t-12.5 30t12.5 29.5t29.5 12zM122 451v-453h-57v453h57zM113 586.5q0 17.5 12.5 29.5t29.5 12q12 0 21.5 -5.5t15 -15t5.5 -21.5q0 -17 -12 -29.5t-29.5 -12.5t-30 12.5t-12.5 30z" />
    <glyph glyph-name="eth" unicode="&#xf0;" horiz-adv-x="619" 
d="M249 634q-43 29 -74 45l49 86q72 -33 126 -69l110 68l49 -75l-83 -51q76 -70 112 -157t36 -201q0 -137 -70.5 -213.5t-195.5 -76.5q-120 0 -191.5 67t-71.5 182q0 114 63.5 180.5t171.5 66.5q100 0 134 -48l4 2q-31 76 -94 135l-112 -69l-49 76zM422 260q0 53 -30 84.5
t-82 31.5q-59 0 -86 -33.5t-27 -104.5q0 -68 29 -103t84 -35q60 0 86 40t26 120z" />
    <glyph glyph-name="ntilde" unicode="&#xf1;" horiz-adv-x="477" 
d="M103 544q16 39 43 52.5t57 9t60.5 -12t60 -5.5t47.5 23l17 19l-9 -23q-19 -52 -58 -62q-22 -5 -52 -0.5t-56 13t-54.5 5.5t-47.5 -24l-17 -17zM122 444v-84q29 34 70 58.5t80 28.5q71 7 114 -52q20 -28 25.5 -55.5t5.5 -69.5v-272h-57v272q0 75 -25 111q-15 21 -38 30
q-39 16 -87 -6q-50 -23 -88 -78v-329h-57v446h57z" />
    <glyph glyph-name="ograve" unicode="&#xf2;" horiz-adv-x="482" 
d="M49 175q-8 76 7 136q14 51 48 86t84 47q23 7 48 6h2h2h6q22 1 42 -5q54 -11 89.5 -48.5t48.5 -92.5q15 -62 5 -135q-6 -43 -23.5 -76.5t-48 -57.5t-71.5 -33q-20 -5 -42 -4h-6h-2h-2q-25 -1 -47 6q-61 15 -96.5 60.5t-43.5 110.5zM324 516l-8 -7l-144 97q-21 15 -10 38
t34 18q10 -3 19 -11zM148 385q-40 -56 -43 -161q3 -105 43 -161q34 -48 86 -52h8h5q52 4 86 52q41 56 43 161q-2 105 -43 161q-34 48 -86 52h-5h-8q-52 -4 -86 -52z" />
    <glyph glyph-name="oacute" unicode="&#xf3;" horiz-adv-x="482" 
d="M49 175q-8 76 7 136q14 51 48 86t84 47q23 7 48 6h2h2h6q22 1 42 -5q36 -8 64.5 -27.5t47 -48t26.5 -65.5q15 -62 5 -135q-9 -65 -45.5 -109t-97.5 -58q-20 -5 -42 -4h-6h-2h-2q-25 -1 -47 6q-61 15 -96.5 60.5t-43.5 110.5zM157 516l109 135q26 23 47 2q17 -18 5 -38
q-3 -5 -9 -9l-144 -97zM148 385q-40 -56 -43 -161q3 -105 43 -161q34 -48 86 -52h8h5q52 4 86 52q41 56 43 161q-2 105 -43 161q-34 48 -86 52h-5h-8q-52 -4 -86 -52z" />
    <glyph glyph-name="ocircumflex" unicode="&#xf4;" horiz-adv-x="482" 
d="M49 175q-8 76 7 136q14 51 48 86t84 47q23 7 48 6h2h2h6q22 1 42 -5q54 -11 89.5 -48.5t48.5 -92.5q15 -62 5 -135q-6 -43 -23.5 -76.5t-48 -57.5t-71.5 -33q-20 -5 -42 -4h-6h-2h-2q-25 -1 -47 6q-61 15 -96.5 60.5t-43.5 110.5zM240 587l-94 -57q-13 -9 -18 1
q-3 5 1 10l107 109q4 4 8 1v-1l108 -110q7 -9 -3 -13q-6 -3 -14 1zM148 385q-40 -56 -43 -161q3 -105 43 -161q34 -48 86 -52h8h5q52 4 86 52q41 56 43 161q-2 105 -43 161q-34 48 -86 52h-5h-8q-52 -4 -86 -52z" />
    <glyph glyph-name="otilde" unicode="&#xf5;" horiz-adv-x="482" 
d="M49 175q-8 76 7 136q14 51 48 86t84 47q23 7 48 6h2h2h6q22 1 42 -5q54 -11 89.5 -48.5t48.5 -92.5q15 -62 5 -135q-9 -65 -45.5 -109t-97.5 -58q-20 -5 -42 -4h-6h-2h-2q-25 -1 -47 6q-61 15 -96.5 60.5t-43.5 110.5zM103 544q16 39 42.5 52.5t57 9t60.5 -12t59.5 -5.5
t48.5 23l17 19l-9 -23q-20 -52 -58 -62q-23 -5 -53 -0.5t-56 13t-54 5.5t-48 -24l-17 -17zM148 385q-40 -56 -43 -161q3 -105 43 -161q34 -48 86 -52h8h5q52 4 86 52q41 56 43 161q-2 105 -43 161q-34 48 -86 52h-5h-8q-52 -4 -86 -52z" />
    <glyph glyph-name="odieresis" unicode="&#xf6;" horiz-adv-x="482" 
d="M49 175q-8 76 7 136q14 51 48 86t84 47q23 7 48 6h2h2h6q22 1 42 -5q54 -11 89.5 -48.5t48.5 -92.5q15 -62 5 -135q-9 -65 -45.5 -109t-97.5 -58q-20 -5 -42 -4h-6h-2h-2q-25 -1 -47 6q-61 15 -96.5 60.5t-43.5 110.5zM302.5 628q17.5 0 30 -12t12.5 -29.5t-12.5 -30
t-30 -12.5t-29.5 12.5t-12 30t12 29.5t29.5 12zM178.5 628q17.5 0 29.5 -12t12 -29.5t-12 -30t-29.5 -12.5t-30 12.5t-12.5 30t12.5 29.5t30 12zM148 385q-40 -56 -43 -161q3 -105 43 -161q34 -48 86 -52h8h5q52 4 86 52q41 56 43 161q-2 105 -43 161q-34 48 -86 52h-5h-8
q-52 -4 -86 -52z" />
    <glyph glyph-name="divide" unicode="&#xf7;" horiz-adv-x="407" 
d="M203 274q13 0 21.5 -8.5t8.5 -21t-8.5 -21t-21 -8.5t-21 8.5t-8.5 21.5q0 8 4 14.5t10.5 10.5t14.5 4zM203 483q13 0 21.5 -9t8.5 -21t-8.5 -21t-21 -9t-21 9t-8.5 21q0 8 4 15t10.5 11t14.5 4zM386 334h-365v29h365v-29z" />
    <glyph glyph-name="oslash" unicode="&#xf8;" horiz-adv-x="482" 
d="M281 447l18 52l38 -13l-17 -50q83 -35 106 -132q15 -62 5 -135q-9 -65 -45.5 -109t-97.5 -58q-20 -5 -42 -4h-6h-2h-2q-25 -1 -47 6q-9 2 -16 4l-14 -40l-38 13l15 44q-74 46 -87 150q-8 76 7 136q14 51 48 86t84 47q23 7 48 6h2h2h6q18 0 35 -3zM276 430q-14 5 -29 7h-5
h-8q-52 -4 -86 -52q-40 -56 -43 -161q3 -106 44 -162zM311 410l-131 -379q12 -9 26 -14t28 -6h8h5q52 4 86 52q41 56 43 161q-3 133 -65 186z" />
    <glyph glyph-name="ugrave" unicode="&#xf9;" horiz-adv-x="477" 
d="M354 85q-29 -34 -70 -58.5t-80 -28.5q-71 -7 -113 52q-20 28 -26 55t-6 69v273h57v-273q0 -75 26 -110q15 -21 37 -30q39 -16 87 6q50 23 88 77v330h57v-449h-57v87zM210 651l108 -135l-7 -7l-145 97q-20 15 -9 38q10 23 33 18q11 -3 19 -11h1z" />
    <glyph glyph-name="uacute" unicode="&#xfa;" horiz-adv-x="477" 
d="M354 85q-29 -34 -70 -58.5t-80 -28.5q-71 -7 -113 52q-20 28 -26 55t-6 69v273h57v-273q0 -75 26 -110q15 -21 37 -30q39 -16 87 6q50 23 88 77v330h57v-449h-57v87zM159 509l-7 7l109 135q26 23 46 2q18 -18 6 -38q-4 -5 -9 -9z" />
    <glyph glyph-name="ucircumflex" unicode="&#xfb;" horiz-adv-x="477" 
d="M354 85q-29 -34 -70 -58.5t-80 -28.5q-71 -7 -113 52q-20 28 -26 55t-6 69v273h57v-273q0 -75 26 -110q15 -21 37 -30q39 -16 87 6q50 23 88 77v330h57v-449h-57v87zM330 528l-95 59l-95 -57q-12 -9 -18 1q-1 6 2 10l107 110q4 3 7 0v-1l108 -110q8 -9 -2 -13
q-7 -3 -14 1z" />
    <glyph glyph-name="udieresis" unicode="&#xfc;" horiz-adv-x="477" 
d="M354 85q-29 -34 -70 -58.5t-80 -28.5q-71 -7 -113 52q-20 28 -26 55t-6 69v273h57v-273q0 -75 26 -110q15 -21 37 -30q39 -16 87 6q50 23 88 77v330h57v-449h-57v87zM297.5 628q17.5 0 29.5 -12t12 -29.5t-12 -30t-29.5 -12.5t-30 12.5t-12.5 30t12.5 29.5t30 12z
M131 586.5q0 17.5 12.5 29.5t29.5 12t29.5 -12t12.5 -29.5t-12.5 -30t-29.5 -12.5t-29.5 12.5t-12.5 30z" />
    <glyph glyph-name="yacute" unicode="&#xfd;" horiz-adv-x="424" 
d="M231 77l149 374h23l-207 -525q-49 -119 -117 -124q-29 -2 -59 16q-19 12 -32 30.5t-13 38.5q2 28 25 31q14 1 24 -9q11 -10 9 -28q0 -22 8.5 -40.5t28.5 -20.5q7 0 13 1q28 5 51 36.5t38 66.5l29 73l-17 42q-1 2 -1 3l-3 6l-22 56l-138 347h62zM180 509l-8 7l109 135
q26 23 47 2q17 -18 5 -38q-3 -5 -9 -9z" />
    <glyph glyph-name="thorn" unicode="&#xfe;" horiz-adv-x="632" 
d="M227 475q24 40 64 60.5t91 20.5q97 0 151.5 -75.5t54.5 -206.5q0 -133 -54.5 -208.5t-151.5 -75.5q-104 0 -155 67h-7l4 -30l3 -46v-221h-149v1000h149v-191l-3 -59l-4 -35h7zM334 437q-55 0 -80.5 -34t-26.5 -112v-16q0 -88 26 -126t83 -38q100 0 100 165
q0 81 -24.5 121t-77.5 40z" />
    <glyph glyph-name="ydieresis" unicode="&#xff;" horiz-adv-x="424" 
d="M231 77l149 374h23l-207 -525q-49 -119 -117 -124q-29 -2 -59 16q-19 12 -32 30.5t-13 38.5q2 28 25 31q14 1 24 -9q11 -10 9 -28q0 -14 3 -26.5t11.5 -22.5t22.5 -12q7 0 13 1q28 5 51 36.5t38 66.5l29 73l-17 42q-1 2 -1 3l-3 6l-22 56l-138 347h62zM287.5 628
q17.5 0 30 -12t12.5 -29.5t-12.5 -30t-30 -12.5t-30 12.5t-12.5 30t12.5 29.5t30 12zM121 586.5q0 17.5 12.5 29.5t29.5 12q12 0 21.5 -5.5t15 -15t5.5 -21.5q0 -17 -12 -29.5t-29.5 -12.5t-30 12.5t-12.5 30z" />
    <glyph glyph-name="Amacron" unicode="&#x100;" horiz-adv-x="689" 
d="M181 874h331v-103h-331v103zM431 261h-289l-105 -261h-23l2 6q10 25 139 346q103 259 137 345l1 3h26l279 -703h-62l-1 3q-30 75 -104 261zM150 282h272q-113 284 -135 341h-1z" />
    <glyph glyph-name="amacron" unicode="&#x101;" horiz-adv-x="604" 
d="M143 709h331v-103h-331v103zM368 56q-45 -50 -138 -58q-48 -4 -93.5 9t-69.5 45q-19 26 -19 60q0 43 26 65.5t72 35.5q17 5 76 17q25 6 39 9.5t38 11t41 19t27 26.5q-5 57 -33.5 94t-65.5 45.5t-74 -0.5t-62 -43.5t-25 -84.5q0 -20 -15 -27t-29.5 1.5t-12.5 25.5
q0 24 8 45q21 49 76 77q55 29 116 24q66 -4 111 -46q52 -48 63 -133q1 -8 2 -28v-246h-58v56zM368 211q1 25 0 54q-29 -32 -120 -52q-72 -16 -93 -24q-49 -20 -49 -78q0 -50 33 -77q41 -31 100 -21t89 50q37 49 40 148z" />
    <glyph glyph-name="Abreve" unicode="&#x102;" horiz-adv-x="689" 
d="M537 936q-6 -75 -59.5 -120t-134.5 -45q-85 0 -135.5 44.5t-54.5 120.5h83q2 -23 13.5 -36t32 -19t62.5 -6q101 0 108 61h85zM431 261h-289l-105 -261h-23l2 6q10 25 139 346q103 259 137 345l1 3h26l279 -703h-62l-1 3q-30 75 -104 261zM150 282h272q-113 284 -135 341
h-1z" />
    <glyph glyph-name="abreve" unicode="&#x103;" horiz-adv-x="604" 
d="M501 771q-6 -75 -59.5 -120t-134.5 -45q-85 0 -135.5 44.5t-54.5 120.5h83q2 -23 13.5 -36t32 -19t62.5 -6q101 0 108 61h85zM368 56q-45 -50 -138 -58q-48 -4 -93.5 9t-69.5 45q-19 26 -19 60q0 43 26 65.5t72 35.5q17 5 76 17q25 6 39 9.5t38 11t41 19t27 26.5
q-5 57 -33.5 94t-65.5 45.5t-74 -0.5t-62 -43.5t-25 -84.5q0 -20 -15 -27t-29.5 1.5t-12.5 25.5q0 24 8 45q21 49 76 77q55 29 116 24q66 -4 111 -46q52 -48 63 -133q1 -8 2 -28v-246h-58v56zM368 211q1 25 0 54q-29 -32 -120 -52q-72 -16 -93 -24q-49 -20 -49 -78
q0 -50 33 -77q41 -31 100 -21t89 50q37 49 40 148z" />
    <glyph glyph-name="Aogonek" unicode="&#x104;" horiz-adv-x="689" 
d="M543 -111q0 -21 11 -30.5t28 -9.5q27 0 56 9v-87q-40 -11 -76 -11q-55 0 -88.5 31t-33.5 81q0 33 18.5 61.5t69.5 66.5h87q-34 -32 -53 -59t-19 -52zM431 261h-289l-105 -261h-23l2 6q10 25 139 346q103 259 137 345l1 3h26l279 -703h-62l-1 3q-30 75 -104 261zM150 282
h272q-113 284 -135 341h-1z" />
    <glyph glyph-name="aogonek" unicode="&#x105;" horiz-adv-x="604" 
d="M442 -111q0 -21 11 -30.5t28 -9.5q27 0 56 9v-87q-40 -11 -76 -11q-55 0 -88.5 31t-33.5 81q0 33 18.5 61.5t69.5 66.5h87q-34 -32 -53 -59t-19 -52zM368 56q-45 -50 -138 -58q-48 -4 -93.5 9t-69.5 45q-19 26 -19 60q0 43 26 65.5t72 35.5q17 5 76 17q25 6 39 9.5t38 11
t41 19t27 26.5q-5 57 -33.5 94t-65.5 45.5t-74 -0.5t-62 -43.5t-25 -84.5q0 -20 -15 -27t-29.5 1.5t-12.5 25.5q0 24 8 45q21 49 76 77q55 29 116 24q66 -4 111 -46q52 -48 63 -133q1 -8 2 -28v-246h-58v56zM368 211q1 25 0 54q-29 -32 -120 -52q-72 -16 -93 -24
q-49 -20 -49 -78q0 -50 33 -77q41 -31 100 -21t89 50q37 49 40 148z" />
    <glyph glyph-name="Cacute" unicode="&#x106;" horiz-adv-x="637" 
d="M310 699h11q46 1 92.5 -14.5t81.5 -51t34 -83.5q0 -16 -15.5 -23.5t-31 -0.5t-15.5 27v0q1 56 -45.5 93.5t-103.5 35.5q-77 -3 -133 -76q-69 -91 -72 -256q3 -166 73 -257q56 -73 133 -75q57 -2 103 35.5t45 93.5v1q0 19 15.5 26.5t31 -0.5t15.5 -24v-3
q1 -46 -34.5 -81.5t-82.5 -50.5t-91 -14h-11q-58 1 -106 25t-79.5 64t-50 90t-23.5 105q-3 26 -3 61q0 33 2 58q4 63 26 120q32 80 91.5 127t142.5 48zM292 771v13q84 98 115 147h167v-10q-25 -25 -86.5 -75.5t-96.5 -74.5h-99z" />
    <glyph glyph-name="cacute" unicode="&#x107;" horiz-adv-x="514" 
d="M417 360q5 -15 6 -31q1 -15 -13.5 -22.5t-29.5 -1.5t-15 23q-1 36 -24 65q-25 32 -64.5 43.5t-77.5 -3.5q-42 -19 -67 -69q-28 -58 -28 -150q0 -139 78 -185q56 -33 115 -2t67 98q1 10 1 21q0 27 24 30q22 3 31 -15q3 -7 3 -15q2 -72 -70.5 -115.5t-156.5 -26.5
q-98 20 -134 114q-16 44 -16 101q1 106 52 168q45 54 116 65q66 11 125 -16q60 -27 78 -76zM204 606v13q84 98 115 147h167v-10q-25 -25 -86.5 -75.5t-96.5 -74.5h-99z" />
    <glyph glyph-name="Ccircumflex" unicode="&#x108;" horiz-adv-x="637" 
d="M499 771q-77 45 -114 86q-38 -40 -112 -86h-99v13q92 92 125 147h174q15 -25 52.5 -69t72.5 -78v-13h-99zM310 699h11q46 1 92.5 -14.5t81.5 -51t34 -83.5q0 -16 -15.5 -23.5t-31 -0.5t-15.5 27v0q1 56 -45.5 93.5t-103.5 35.5q-77 -3 -133 -76q-69 -91 -72 -256
q3 -166 73 -257q56 -73 133 -75q57 -2 103 35.5t45 93.5v1q0 19 15.5 26.5t31 -0.5t15.5 -24v-3q1 -46 -34.5 -81.5t-82.5 -50.5t-91 -14h-11q-58 1 -106 25t-79.5 64t-50 90t-23.5 105q-3 26 -3 61q0 33 2 58q4 63 26 120q32 80 91.5 127t142.5 48z" />
    <glyph glyph-name="ccircumflex" unicode="&#x109;" horiz-adv-x="514" 
d="M408 606q-77 45 -114 86q-38 -40 -112 -86h-99v13q92 92 125 147h174q15 -25 52.5 -69t72.5 -78v-13h-99zM417 360q5 -15 6 -31q1 -15 -13.5 -22.5t-29.5 -1.5t-15 23q-1 36 -24 65q-25 32 -64.5 43.5t-77.5 -3.5q-42 -19 -67 -69q-28 -58 -28 -150q0 -139 78 -185
q56 -33 115 -2t67 98q1 10 1 21q0 27 24 30q22 3 31 -15q3 -7 3 -15q2 -72 -70.5 -115.5t-156.5 -26.5q-98 20 -134 114q-16 44 -16 101q1 106 52 168q45 54 116 65q66 11 125 -16q60 -27 78 -76z" />
    <glyph glyph-name="Cdotaccent" unicode="&#x10a;" horiz-adv-x="637" 
d="M303 852q0 73 81 73t81 -73q0 -35 -20.5 -54t-60.5 -19q-81 0 -81 73zM310 699h11q46 1 92.5 -14.5t81.5 -51t34 -83.5q0 -16 -15.5 -23.5t-31 -0.5t-15.5 27v0q1 56 -45.5 93.5t-103.5 35.5q-77 -3 -133 -76q-69 -91 -72 -256q3 -166 73 -257q56 -73 133 -75
q57 -2 103 35.5t45 93.5v1q0 19 15.5 26.5t31 -0.5t15.5 -24v-3q1 -46 -34.5 -81.5t-82.5 -50.5t-91 -14h-11q-58 1 -106 25t-79.5 64t-50 90t-23.5 105q-3 26 -3 61q0 33 2 58q4 63 26 120q32 80 91.5 127t142.5 48z" />
    <glyph glyph-name="cdotaccent" unicode="&#x10b;" horiz-adv-x="514" 
d="M226 687q0 73 81 73t81 -73q0 -35 -20.5 -54t-60.5 -19q-81 0 -81 73zM417 360q5 -15 6 -31q1 -15 -13.5 -22.5t-29.5 -1.5t-15 23q-1 36 -24 65q-25 32 -64.5 43.5t-77.5 -3.5q-42 -19 -67 -69q-28 -58 -28 -150q0 -139 78 -185q56 -33 115 -2t67 98q1 10 1 21
q0 27 24 30q22 3 31 -15q3 -7 3 -15q2 -72 -70.5 -115.5t-156.5 -26.5q-98 20 -134 114q-16 44 -16 101q1 106 52 168q45 54 116 65q66 11 125 -16q60 -27 78 -76z" />
    <glyph glyph-name="Ccaron" unicode="&#x10c;" horiz-adv-x="637" 
d="M599 931v-13q-41 -41 -75.5 -82t-49.5 -65h-174q-14 23 -40.5 55t-84.5 92v13h99q72 -45 112 -86q41 42 114 86h99zM310 699h11q46 1 92.5 -14.5t81.5 -51t34 -83.5q0 -16 -15.5 -23.5t-31 -0.5t-15.5 27v0q1 56 -45.5 93.5t-103.5 35.5q-77 -3 -133 -76
q-69 -91 -72 -256q3 -166 73 -257q56 -73 133 -75q57 -2 103 35.5t45 93.5v1q0 19 15.5 26.5t31 -0.5t15.5 -24v-3q1 -46 -34.5 -81.5t-82.5 -50.5t-91 -14h-11q-58 1 -106 25t-79.5 64t-50 90t-23.5 105q-3 26 -3 61q0 33 2 58q4 63 26 120q32 80 91.5 127t142.5 48z" />
    <glyph glyph-name="ccaron" unicode="&#x10d;" horiz-adv-x="514" 
d="M515 766v-13q-41 -41 -75.5 -82t-49.5 -65h-174q-14 23 -40.5 55t-84.5 92v13h99q72 -45 112 -86q41 42 114 86h99zM417 360q5 -15 6 -31q1 -15 -13.5 -22.5t-29.5 -1.5t-15 23q-1 36 -24 65q-25 32 -64.5 43.5t-77.5 -3.5q-42 -19 -67 -69q-28 -58 -28 -150
q0 -139 78 -185q56 -33 115 -2t67 98q1 10 1 21q0 27 24 30q22 3 31 -15q3 -7 3 -15q2 -72 -70.5 -115.5t-156.5 -26.5q-98 20 -134 114q-16 44 -16 101q1 106 52 168q45 54 116 65q66 11 125 -16q60 -27 78 -76z" />
    <glyph glyph-name="Dcaron" unicode="&#x10e;" horiz-adv-x="740" 
d="M566 931v-13q-41 -41 -75.5 -82t-49.5 -65h-174q-14 23 -40.5 55t-84.5 92v13h99q72 -45 112 -86q41 42 114 86h99zM128 -3h-53v703h53q84 0 135 -4q57 -4 106 -23.5t89.5 -54.5t68.5 -84q43 -75 48 -166q7 -121 -53 -218q-40 -65 -103 -102.5t-141 -45.5q-56 -5 -150 -5
zM133 18q87 0 143 9q78 11 132.5 63.5t77.5 122t21 147.5q-3 76 -29.5 141.5t-82 113.5t-130.5 57q-52 7 -132 7v-661z" />
    <glyph glyph-name="dcaron" unicode="&#x10f;" horiz-adv-x="632" 
d="M600 613q7 24 16.5 70t13.5 77h138v-10q-39 -86 -81 -150h-87v13zM364 422v278h58v-371v-4v-174v-4v-147h-58v39q-41 -29 -94.5 -37t-100.5 9q-64 23 -94.5 79t-29.5 129q1 77 31 136.5t95 85.5q45 18 98.5 13t94.5 -32zM364 146v1v180v1q-1 36 -24 65q-25 32 -64.5 43.5
t-77.5 -3.5q-42 -19 -67 -69q-28 -58 -28 -150q0 -109 50 -163q43 -46 104 -36q46 7 76 42t31 82v7z" />
    <glyph glyph-name="Dcroat" unicode="&#x110;" horiz-adv-x="740" 
d="M23 415h67v299h224q175 0 271.5 -92.5t96.5 -257.5q0 -176 -100.5 -270t-289.5 -94h-202v291h-67v124zM525 360q0 113 -51 171.5t-153 58.5h-80v-175h116v-124h-116v-166h64q220 0 220 235z" />
    <glyph glyph-name="dcroat" unicode="&#x111;" horiz-adv-x="648" 
d="M251 -10q-97 0 -151.5 71.5t-54.5 195.5q0 128 56 198.5t154 70.5q104 0 157 -80h5q-11 64 -11 113v25h-154v97h154v79h149v-79h76v-97h-76v-584h-114l-29 71h-6q-51 -81 -155 -81zM303 109q57 0 84 30.5t29 102.5v14q0 80 -27.5 114.5t-87.5 34.5q-50 0 -77.5 -38.5
t-27.5 -111.5t27.5 -109.5t79.5 -36.5z" />
    <glyph glyph-name="Emacron" unicode="&#x112;" horiz-adv-x="560" 
d="M134 874h331v-103h-331v103zM444 679h-311v-309h235v-21h-235v-331h311v-21h-369v703h369v-21z" />
    <glyph glyph-name="emacron" unicode="&#x113;" horiz-adv-x="590" 
d="M136 709h331v-103h-331v103zM422 146q-1 -72 -74 -116q-75 -44 -158 -25q-97 21 -131 117q-14 43 -14 97q1 105 53 167q44 54 117 66q65 10 124 -16q61 -26 77 -74q6 -15 6 -31q0 -24 -13 -43q-18 -26 -66 -42q-23 -8 -93 -22q-51 -11 -78 -21q-48 -17 -68 -46
q6 -69 48 -108q37 -35 88 -35q19 0 36 5q42 13 65 47.5t23 79.5q0 21 15 28t29.5 -2t13.5 -26zM103 214v-14.5v-14.5q31 31 113 52q75 18 85 21q41 14 54 34q9 13 9 30q0 38 -20 68t-54 44q-32 12 -64.5 5.5t-57.5 -29.5q-65 -59 -65 -196z" />
    <glyph glyph-name="Ebreve" unicode="&#x114;" horiz-adv-x="560" 
d="M484 936q-6 -75 -59.5 -120t-134.5 -45q-85 0 -135.5 44.5t-54.5 120.5h83q2 -23 13.5 -36t32 -19t62.5 -6q101 0 108 61h85zM444 679h-311v-309h235v-21h-235v-331h311v-21h-369v703h369v-21z" />
    <glyph glyph-name="ebreve" unicode="&#x115;" horiz-adv-x="590" 
d="M495 771q-6 -75 -59.5 -120t-134.5 -45q-85 0 -135.5 44.5t-54.5 120.5h83q2 -23 13.5 -36t32 -19t62.5 -6q101 0 108 61h85zM422 146q-1 -72 -74 -116q-75 -44 -158 -25q-97 21 -131 117q-14 43 -14 97q1 105 53 167q44 54 117 66q65 10 124 -16q61 -26 77 -74
q6 -15 6 -31q0 -24 -13 -43q-18 -26 -66 -42q-23 -8 -93 -22q-51 -11 -78 -21q-48 -17 -68 -46q6 -69 48 -108q37 -35 88 -35q19 0 36 5q42 13 65 47.5t23 79.5q0 21 15 28t29.5 -2t13.5 -26zM103 214v-14.5v-14.5q31 31 113 52q75 18 85 21q41 14 54 34q9 13 9 30
q0 38 -20 68t-54 44q-32 12 -64.5 5.5t-57.5 -29.5q-65 -59 -65 -196z" />
    <glyph glyph-name="Edotaccent" unicode="&#x116;" horiz-adv-x="560" 
d="M220 838q0 73 81 73t81 -73q0 -35 -20.5 -54t-60.5 -19q-81 0 -81 73zM444 679h-311v-309h235v-21h-235v-331h311v-21h-369v703h369v-21z" />
    <glyph glyph-name="edotaccent" unicode="&#x117;" horiz-adv-x="590" 
d="M228 687q0 73 81 73t81 -73q0 -35 -20.5 -54t-60.5 -19q-81 0 -81 73zM422 146q-1 -72 -74 -116q-75 -44 -158 -25q-97 21 -131 117q-14 43 -14 97q1 105 53 167q44 54 117 66q65 10 124 -16q61 -26 77 -74q6 -15 6 -31q0 -24 -13 -43q-18 -26 -66 -42q-23 -8 -93 -22
q-51 -11 -78 -21q-48 -17 -68 -46q6 -69 48 -108q37 -35 88 -35q19 0 36 5q42 13 65 47.5t23 79.5q0 21 15 28t29.5 -2t13.5 -26zM103 214v-14.5v-14.5q31 31 113 52q75 18 85 21q41 14 54 34q9 13 9 30q0 38 -20 68t-54 44q-32 12 -64.5 5.5t-57.5 -29.5q-65 -59 -65 -196z
" />
    <glyph glyph-name="Eogonek" unicode="&#x118;" horiz-adv-x="560" 
d="M384 -111q0 -21 11 -30.5t28 -9.5q27 0 56 9v-87q-40 -11 -76 -11q-55 0 -88.5 31t-33.5 81q0 33 18.5 61.5t69.5 66.5h87q-34 -32 -53 -59t-19 -52zM444 679h-311v-309h235v-21h-235v-331h311v-21h-369v703h369v-21z" />
    <glyph glyph-name="eogonek" unicode="&#x119;" horiz-adv-x="590" 
d="M389 -101q0 -21 11 -30.5t28 -9.5q27 0 56 9v-87q-40 -11 -76 -11q-55 0 -88.5 31t-33.5 81q0 33 18.5 61.5t69.5 66.5h87q-34 -32 -53 -59t-19 -52zM422 146q-1 -72 -74 -116q-75 -44 -158 -25q-97 21 -131 117q-14 43 -14 97q1 105 53 167q44 54 117 66q65 10 124 -16
q61 -26 77 -74q6 -15 6 -31q0 -24 -13 -43q-18 -26 -66 -42q-23 -8 -93 -22q-51 -11 -78 -21q-48 -17 -68 -46q6 -69 48 -108q37 -35 88 -35q19 0 36 5q42 13 65 47.5t23 79.5q0 21 15 28t29.5 -2t13.5 -26zM103 214v-14.5v-14.5q31 31 113 52q75 18 85 21q41 14 54 34
q9 13 9 30q0 38 -20 68t-54 44q-32 12 -64.5 5.5t-57.5 -29.5q-65 -59 -65 -196z" />
    <glyph glyph-name="Ecaron" unicode="&#x11a;" horiz-adv-x="560" 
d="M510 931v-13q-41 -41 -75.5 -82t-49.5 -65h-174q-14 23 -40.5 55t-84.5 92v13h99q72 -45 112 -86q41 42 114 86h99zM444 679h-311v-309h235v-21h-235v-331h311v-21h-369v703h369v-21z" />
    <glyph glyph-name="ecaron" unicode="&#x11b;" horiz-adv-x="590" 
d="M516 766v-13q-41 -41 -75.5 -82t-49.5 -65h-174q-14 23 -40.5 55t-84.5 92v13h99q72 -45 112 -86q41 42 114 86h99zM422 146q-1 -72 -74 -116q-75 -44 -158 -25q-97 21 -131 117q-14 43 -14 97q1 105 53 167q44 54 117 66q65 10 124 -16q61 -26 77 -74q6 -15 6 -31
q0 -24 -13 -43q-18 -26 -66 -42q-23 -8 -93 -22q-51 -11 -78 -21q-48 -17 -68 -46q6 -69 48 -108q37 -35 88 -35q19 0 36 5q42 13 65 47.5t23 79.5q0 21 15 28t29.5 -2t13.5 -26zM103 214v-14.5v-14.5q31 31 113 52q75 18 85 21q41 14 54 34q9 13 9 30q0 38 -20 68t-54 44
q-32 12 -64.5 5.5t-57.5 -29.5q-65 -59 -65 -196z" />
    <glyph glyph-name="Gcircumflex" unicode="&#x11c;" horiz-adv-x="724" 
d="M506 771q-77 45 -114 86q-38 -40 -112 -86h-99v13q92 92 125 147h174q15 -25 52.5 -69t72.5 -78v-13h-99zM311 699q6 1 11 0q46 1 92.5 -14t81.5 -51t35 -84q0 -16 -16 -23.5t-31.5 -0.5t-15.5 27v0q2 57 -45 94.5t-104 35.5q-77 -3 -133 -77q-69 -91 -73 -256
q4 -167 73 -258q57 -74 134 -76q39 -1 68.5 10.5t47 30.5t28.5 47.5t15 58t4 66.5h-127v21h188v-14q0 -114 -54.5 -176.5t-167.5 -59.5h-11q-58 0 -106 24t-79.5 64.5t-50.5 90.5t-24 106q-3 26 -3 60q0 33 2 59q4 63 26 120q32 81 91.5 128t143.5 47z" />
    <glyph glyph-name="gcircumflex" unicode="&#x11d;" horiz-adv-x="632" 
d="M418 606q-77 45 -114 86q-38 -40 -112 -86h-99v13q92 92 125 147h174q15 -25 52.5 -69t72.5 -78v-13h-99zM343 427q26 18 56.5 24t61.5 -3q37 -12 48 -40q7 -21 -5 -33.5t-29 -8t-23 23.5q-6 17 -18 28q-17 16 -39.5 15.5t-38.5 -15.5l2 -2q58 -46 59 -129
q1 -75 -49 -115.5t-126 -41.5h-4h-4h-4h-4q-65 1 -110 29l-2 -2q-32 -27 -29 -48q4 -22 54 -29q76 -5 122 -6q72 -1 116 -35q41 -32 47 -81q7 -60 -40 -107q-51 -50 -141 -51q-29 0 -59 6.5t-57.5 20t-47.5 36.5t-26 53q-5 19 -2 44.5t13 43.5v0q11 18 29.5 17.5t25 -14.5
t-4.5 -35q-18 -26 -12 -59q7 -44 51 -72t91 -28q61 1 101 49q37 45 25 90q-16 58 -106 62q-22 1 -65 1q-38 0 -52 1q-58 2 -78 46q-12 28 -1 61q10 26 33 46q-52 43 -51 118q1 83 59 129q50 39 121 39h4h3q60 0 106 -28zM110 283q0 -64 31 -101t93 -39q62 2 93 39t31 101
q0 102 -58 140q-28 19 -66 20q-39 -1 -67 -20q-57 -38 -57 -140z" />
    <glyph glyph-name="Gbreve" unicode="&#x11e;" horiz-adv-x="724" 
d="M588 936q-6 -75 -59.5 -120t-134.5 -45q-85 0 -135.5 44.5t-54.5 120.5h83q2 -23 13.5 -36t32 -19t62.5 -6q101 0 108 61h85zM311 699q6 1 11 0q46 1 92.5 -14t81.5 -51t35 -84q0 -16 -16 -23.5t-31.5 -0.5t-15.5 27v0q2 57 -45 94.5t-104 35.5q-77 -3 -133 -77
q-69 -91 -73 -256q4 -167 73 -258q57 -74 134 -76q39 -1 68.5 10.5t47 30.5t28.5 47.5t15 58t4 66.5h-127v21h188v-14q0 -114 -54.5 -176.5t-167.5 -59.5h-11q-58 0 -106 24t-79.5 64.5t-50.5 90.5t-24 106q-3 26 -3 60q0 33 2 59q4 63 26 120q32 81 91.5 128t143.5 47z" />
    <glyph glyph-name="gbreve" unicode="&#x11f;" horiz-adv-x="632" 
d="M500 771q-6 -75 -59.5 -120t-134.5 -45q-85 0 -135.5 44.5t-54.5 120.5h83q2 -23 13.5 -36t32 -19t62.5 -6q101 0 108 61h85zM343 427q26 18 56.5 24t61.5 -3q37 -12 48 -40q7 -21 -5 -33.5t-29 -8t-23 23.5q-6 17 -18 28q-17 16 -39.5 15.5t-38.5 -15.5l2 -2
q58 -46 59 -129q1 -75 -49 -115.5t-126 -41.5h-4h-4h-4h-4q-65 1 -110 29l-2 -2q-32 -27 -29 -48q4 -22 54 -29q76 -5 122 -6q72 -1 116 -35q41 -32 47 -81q7 -60 -40 -107q-51 -50 -141 -51q-29 0 -59 6.5t-57.5 20t-47.5 36.5t-26 53q-5 19 -2 44.5t13 43.5v0
q11 18 29.5 17.5t25 -14.5t-4.5 -35q-18 -26 -12 -59q7 -44 51 -72t91 -28q61 1 101 49q37 45 25 90q-16 58 -106 62q-22 1 -65 1q-38 0 -52 1q-58 2 -78 46q-12 28 -1 61q10 26 33 46q-52 43 -51 118q1 83 59 129q50 39 121 39h4h3q60 0 106 -28zM110 283q0 -64 31 -101
t93 -39q62 2 93 39t31 101q0 102 -58 140q-28 19 -66 20q-39 -1 -67 -20q-57 -38 -57 -140z" />
    <glyph glyph-name="Gdotaccent" unicode="&#x120;" horiz-adv-x="724" 
d="M320 852q0 73 81 73t81 -73q0 -35 -20.5 -54t-60.5 -19q-81 0 -81 73zM311 699q6 1 11 0q46 1 92.5 -14t81.5 -51t35 -84q0 -16 -16 -23.5t-31.5 -0.5t-15.5 27v0q2 57 -45 94.5t-104 35.5q-77 -3 -133 -77q-69 -91 -73 -256q4 -167 73 -258q57 -74 134 -76
q39 -1 68.5 10.5t47 30.5t28.5 47.5t15 58t4 66.5h-127v21h188v-14q0 -114 -54.5 -176.5t-167.5 -59.5h-11q-58 0 -106 24t-79.5 64.5t-50.5 90.5t-24 106q-3 26 -3 60q0 33 2 59q4 63 26 120q32 81 91.5 128t143.5 47z" />
    <glyph glyph-name="gdotaccent" unicode="&#x121;" horiz-adv-x="632" 
d="M236 687q0 73 81 73t81 -73q0 -35 -20.5 -54t-60.5 -19q-81 0 -81 73zM343 427q26 18 56.5 24t61.5 -3q37 -12 48 -40q7 -21 -5 -33.5t-29 -8t-23 23.5q-6 17 -18 28q-17 16 -39.5 15.5t-38.5 -15.5l2 -2q58 -46 59 -129q1 -75 -49 -115.5t-126 -41.5h-4h-4h-4h-4
q-65 1 -110 29l-2 -2q-32 -27 -29 -48q4 -22 54 -29q76 -5 122 -6q72 -1 116 -35q41 -32 47 -81q7 -60 -40 -107q-51 -50 -141 -51q-29 0 -59 6.5t-57.5 20t-47.5 36.5t-26 53q-5 19 -2 44.5t13 43.5v0q11 18 29.5 17.5t25 -14.5t-4.5 -35q-18 -26 -12 -59q7 -44 51 -72
t91 -28q61 1 101 49q37 45 25 90q-16 58 -106 62q-22 1 -65 1q-38 0 -52 1q-58 2 -78 46q-12 28 -1 61q10 26 33 46q-52 43 -51 118q1 83 59 129q50 39 121 39h4h3q60 0 106 -28zM110 283q0 -64 31 -101t93 -39q62 2 93 39t31 101q0 102 -58 140q-28 19 -66 20
q-39 -1 -67 -20q-57 -38 -57 -140z" />
    <glyph glyph-name="uni0122" unicode="&#x122;" horiz-adv-x="724" 
d="M307 -208q7 24 16.5 70t13.5 77h138v-10q-37 -82 -81 -150h-87v13zM311 699q6 1 11 0q46 1 92.5 -14t81.5 -51t35 -84q0 -16 -16 -23.5t-31.5 -0.5t-15.5 27v0q2 57 -45 94.5t-104 35.5q-77 -3 -133 -77q-69 -91 -73 -256q4 -167 73 -258q57 -74 134 -76q39 -1 68.5 10.5
t47 30.5t28.5 47.5t15 58t4 66.5h-127v21h188v-14q0 -114 -54.5 -176.5t-167.5 -59.5h-11q-58 0 -106 24t-79.5 64.5t-50.5 90.5t-24 106q-3 26 -3 60q0 33 2 59q4 63 26 120q32 81 91.5 128t143.5 47z" />
    <glyph glyph-name="uni0123" unicode="&#x123;" horiz-adv-x="632" 
d="M395 753q-7 -24 -16.5 -70t-13.5 -77h-138v10q38 83 81 150h87v-13zM343 427q26 18 56.5 24t61.5 -3q37 -12 48 -40q7 -21 -5 -33.5t-29 -8t-23 23.5q-6 17 -18 28q-17 16 -39.5 15.5t-38.5 -15.5l2 -2q58 -46 59 -129q1 -75 -49 -115.5t-126 -41.5h-4h-4h-4h-4
q-65 1 -110 29l-2 -2q-32 -27 -29 -48q4 -22 54 -29q76 -5 122 -6q72 -1 116 -35q41 -32 47 -81q7 -60 -40 -107q-51 -50 -141 -51q-29 0 -59 6.5t-57.5 20t-47.5 36.5t-26 53q-5 19 -2 44.5t13 43.5v0q11 18 29.5 17.5t25 -14.5t-4.5 -35q-18 -26 -12 -59q7 -44 51 -72
t91 -28q61 1 101 49q37 45 25 90q-16 58 -106 62q-22 1 -65 1q-38 0 -52 1q-58 2 -78 46q-12 28 -1 61q10 26 33 46q-52 43 -51 118q1 83 59 129q50 39 121 39h4h3q60 0 106 -28zM110 283q0 -64 31 -101t93 -39q62 2 93 39t31 101q0 102 -58 140q-28 19 -66 20
q-39 -1 -67 -20q-57 -38 -57 -140z" />
    <glyph glyph-name="Hcircumflex" unicode="&#x124;" horiz-adv-x="765" 
d="M494 771q-77 45 -114 86q-38 -40 -112 -86h-99v13q92 92 125 147h174q15 -25 52.5 -69t72.5 -78v-13h-99zM133 700v-330h332v330h58v-703h-58v352h-332v-352h-58v703h58z" />
    <glyph glyph-name="hcircumflex" unicode="&#x125;" horiz-adv-x="657" 
d="M442 798q-77 45 -114 86q-38 -40 -112 -86h-99v13q92 92 125 147h174q15 -25 52.5 -69t72.5 -78v-13h-99zM123 693v-315q35 45 93 64q65 22 122 -1q34 -13 56 -40.5t31 -59.5t9 -70v-274h-57v274q0 53 -20.5 95t-66.5 56q-44 13 -91 -8q-48 -22 -76 -70v-347h-58v696h58z
" />
    <glyph glyph-name="Hbar" unicode="&#x126;" horiz-adv-x="765" 
d="M675 619h90v-97h-90v-522h-151v308h-283v-308h-151v522h-90v97h90v95h151v-95h283v95h151v-95zM524 434v88h-283v-88h283z" />
    <glyph glyph-name="hbar" unicode="&#x127;" horiz-adv-x="657" 
d="M582 0h-149v289q0 118 -88 118q-62 0 -90 -42.5t-28 -137.5v-227h-149v584h-76v97h76v79h149v-79h154v-97h-154v-9q0 -41 -7 -129h9q50 80 158 80q96 0 145.5 -51.5t49.5 -148.5v-326z" />
    <glyph glyph-name="Itilde" unicode="&#x128;" horiz-adv-x="389" 
d="M115 822q-15 0 -29 -13t-20 -39h-73q5 71 40 111t93 40q20 0 39 -8t38 -17.5t37 -17.5t36 -8q15 0 29 12.5t20 39.5h73q-5 -71 -40.5 -111t-92.5 -40q-20 0 -39.5 8t-38 17.5t-36.5 17.5t-36 8zM133 -3h-58v703h58v-703z" />
    <glyph glyph-name="itilde" unicode="&#x129;" horiz-adv-x="305" 
d="M73 657q-15 0 -29 -13t-20 -39h-73q5 71 40 111t93 40q20 0 39 -8t38 -17.5t37 -17.5t36 -8q15 0 29 12.5t20 39.5h73q-5 -71 -40.5 -111t-92.5 -40q-20 0 -39.5 8t-38 17.5t-36.5 17.5t-36 8zM98 136h-53v322h53v-322z" />
    <glyph glyph-name="Imacron" unicode="&#x12a;" horiz-adv-x="389" 
d="M31 874h331v-103h-331v103zM133 -3h-58v703h58v-703z" />
    <glyph glyph-name="imacron" unicode="&#x12b;" horiz-adv-x="305" 
d="M-11 709h331v-103h-331v103zM98 136h-53v322h53v-322z" />
    <glyph glyph-name="Ibreve" unicode="&#x12c;" horiz-adv-x="389" 
d="M388 936q-6 -75 -59.5 -120t-134.5 -45q-85 0 -135.5 44.5t-54.5 120.5h83q2 -23 13.5 -36t32 -19t62.5 -6q101 0 108 61h85zM133 -3h-58v703h58v-703z" />
    <glyph glyph-name="ibreve" unicode="&#x12d;" horiz-adv-x="305" 
d="M345 771q-6 -75 -59.5 -120t-134.5 -45q-85 0 -135.5 44.5t-54.5 120.5h83q2 -23 13.5 -36t32 -19t62.5 -6q101 0 108 61h85zM98 136h-53v322h53v-322z" />
    <glyph glyph-name="Iogonek" unicode="&#x12e;" horiz-adv-x="389" 
d="M201 -111q0 -21 11 -30.5t28 -9.5q27 0 56 9v-87q-40 -11 -76 -11q-55 0 -88.5 31t-33.5 81q0 33 18.5 61.5t69.5 66.5h87q-34 -32 -53 -59t-19 -52zM133 -3h-58v703h58v-703z" />
    <glyph glyph-name="iogonek" unicode="&#x12f;" horiz-adv-x="305" 
d="M149 -111q0 -21 11 -30.5t28 -9.5q27 0 56 9v-87q-40 -11 -76 -11q-55 0 -88.5 31t-33.5 81q0 33 18.5 61.5t69.5 66.5h87q-34 -32 -53 -59t-19 -52zM123 453v-456h-58v456h58zM57 622q0 15 11 26t26 11t26 -11t11 -26t-11 -26t-26 -11t-26 11t-11 26z" />
    <glyph glyph-name="Idotaccent" unicode="&#x130;" horiz-adv-x="389" 
d="M113 852q0 73 81 73t81 -73q0 -35 -20.5 -54t-60.5 -19q-81 0 -81 73zM133 -3h-58v703h58v-703z" />
    <glyph glyph-name="dotlessi" unicode="&#x131;" horiz-adv-x="144" 
d="M98 136h-53v322h53v-322z" />
    <glyph glyph-name="IJ" unicode="&#x132;" horiz-adv-x="720" 
d="M133 -3h-58v703h58v-703zM407 34q-3 13 -0.5 22.5t10.5 14t17 5t17.5 -6t12.5 -18.5q6 -17 18 -28q24 -23 56.5 -12t39.5 44q1 7 1 41v604h58v-526q0 -67 -16 -103q-20 -45 -69.5 -69t-96.5 -9q-37 13 -48 41z" />
    <glyph glyph-name="ij" unicode="&#x133;" horiz-adv-x="590" 
d="M123 453v-456h-58v456h58zM57 622q0 15 11 26t26 11t26 -11t11 -26t-11 -26t-26 -11t-26 11t-11 26zM236 -137q6 -17 18 -28q24 -23 56.5 -12t39.5 44q1 7 1 41v545h58v-467q0 -67 -16 -103q-20 -45 -69.5 -69t-96.5 -9q-37 13 -48 41q-3 13 -0.5 23t10.5 14t17 4.5
t17.5 -6t12.5 -18.5zM344 622q0 10 5 18.5t13 13.5t18 5q16 0 26.5 -11t10.5 -26t-10.5 -26t-26 -11t-26 11t-10.5 26z" />
    <glyph glyph-name="Jcircumflex" unicode="&#x134;" horiz-adv-x="331" 
d="M280 771q-77 45 -114 86q-38 -40 -112 -86h-99v13q92 92 125 147h174q15 -25 52.5 -69t72.5 -78v-13h-99zM18 34q-3 13 -0.5 22.5t10.5 14t17 5t17.5 -6t12.5 -18.5q6 -17 18 -28q24 -23 56.5 -12t39.5 44q1 7 1 41v604h58v-526q0 -67 -16 -103q-20 -45 -69.5 -69
t-96.5 -9q-37 13 -48 41z" />
    <glyph glyph-name="jcircumflex" unicode="&#x135;" horiz-adv-x="305" 
d="M264 606q-77 45 -114 86q-38 -40 -112 -86h-99v13q92 92 125 147h174q15 -25 52.5 -69t72.5 -78v-13h-99zM34 -240q-57 0 -98 12v117q34 -9 70 -9q38 0 55 21t17 62v583h149v-605q0 -87 -50.5 -134t-142.5 -47z" />
    <glyph glyph-name="uni0136" unicode="&#x136;" horiz-adv-x="664" 
d="M247 -208q7 24 16.5 70t13.5 77h138v-10q-37 -82 -81 -150h-87v13zM75 325v4v371h58v-326l335 326h31l-326 -316l9 -10l336 -377h-76l-309 344v-344h-58v328z" />
    <glyph glyph-name="uni0137" unicode="&#x137;" horiz-adv-x="620" 
d="M228 -208q7 24 16.5 70t13.5 77h138v-10q-37 -82 -81 -150h-87v13zM65 325v4v371h58v-457l1 1l215 209h31l-203 -197l237 -259h-82l-199 221v-221h-58v328z" />
    <glyph glyph-name="kgreenlandic" unicode="&#x138;" horiz-adv-x="620" 
d="M226 284l69 83l153 179h159l-215 -250l228 -296h-170l-153 208l-70 -44v-164h-149v546h149v-143l-1 -79l-2 -40h2z" />
    <glyph glyph-name="Lacute" unicode="&#x139;" horiz-adv-x="564" 
d="M133 700v-682h311v-21h-369v703h58zM130 771v13q84 98 115 147h167v-10q-25 -25 -86.5 -75.5t-96.5 -74.5h-99z" />
    <glyph glyph-name="lacute" unicode="&#x13a;" horiz-adv-x="305" 
d="M65 -3v328v4v371h58v-703h-58zM87 799v13q84 98 115 147h167v-10q-25 -25 -86.5 -75.5t-96.5 -74.5h-99z" />
    <glyph glyph-name="uni013B" unicode="&#x13b;" horiz-adv-x="564" 
d="M207 -208q7 24 16.5 70t13.5 77h138v-10q-37 -82 -81 -150h-87v13zM133 700v-682h311v-21h-369v703h58z" />
    <glyph glyph-name="uni013C" unicode="&#x13c;" horiz-adv-x="305" 
d="M48 -208q7 24 16.5 70t13.5 77h138v-10q-37 -82 -81 -150h-87v13zM65 -3v328v4v371h58v-703h-58z" />
    <glyph glyph-name="Lcaron" unicode="&#x13d;" horiz-adv-x="564" 
d="M353 568q7 24 16.5 70t13.5 77h138v-10q-39 -86 -81 -150h-87v13zM133 700v-682h311v-21h-369v703h58z" />
    <glyph glyph-name="lcaron" unicode="&#x13e;" horiz-adv-x="305" 
d="M272 613q7 24 16.5 70t13.5 77h138v-10q-39 -86 -81 -150h-87v13zM65 -3v328v4v371h58v-703h-58z" />
    <glyph glyph-name="Ldot" unicode="&#x13f;" horiz-adv-x="564" 
d="M345 367q0 73 81 73t81 -73q0 -35 -20.5 -54t-60.5 -19q-81 0 -81 73zM133 700v-682h311v-21h-369v703h58z" />
    <glyph glyph-name="ldot" unicode="&#x140;" horiz-adv-x="428" 
d="M287 339q0 73 81 73t81 -73q0 -35 -20.5 -54t-60.5 -19q-81 0 -81 73zM65 -3v328v4v371h58v-703h-58z" />
    <glyph glyph-name="Lslash" unicode="&#x141;" horiz-adv-x="564" 
d="M90 0v240l-34 -20l-55 96l89 54v344h151v-252l70 43l57 -96l-127 -77v-207h290v-125h-441z" />
    <glyph glyph-name="lslash" unicode="&#x142;" horiz-adv-x="305" 
d="M227 454l34 21l57 -96l-91 -55v-324h-149v233l-35 -21l-55 96l90 55v397h149v-306z" />
    <glyph glyph-name="Nacute" unicode="&#x143;" horiz-adv-x="812" 
d="M96 700v-5l239 -379l130 -208v592h21v-703h-19l-371 590v-590h-21v703h21zM320 771v13q84 98 115 147h167v-10q-25 -25 -86.5 -75.5t-96.5 -74.5h-99z" />
    <glyph glyph-name="nacute" unicode="&#x144;" horiz-adv-x="657" 
d="M123 362q29 33 70 58t80 29q72 7 114 -53q21 -28 26.5 -55t5.5 -70v-274h-58v274q0 76 -25 111q-15 22 -38 31q-39 16 -87 -7q-50 -23 -88 -77v-332h-58v449h58v-84zM245 606v13q84 98 115 147h167v-10q-25 -25 -86.5 -75.5t-96.5 -74.5h-99z" />
    <glyph glyph-name="uni0145" unicode="&#x145;" horiz-adv-x="812" 
d="M292 -208q7 24 16.5 70t13.5 77h138v-10q-37 -82 -81 -150h-87v13zM96 700v-5l239 -379l130 -208v592h21v-703h-19l-371 590v-590h-21v703h21z" />
    <glyph glyph-name="uni0146" unicode="&#x146;" horiz-adv-x="657" 
d="M228 -208q7 24 16.5 70t13.5 77h138v-10q-37 -82 -81 -150h-87v13zM123 362q29 33 70 58t80 29q72 7 114 -53q21 -28 26.5 -55t5.5 -70v-274h-58v274q0 76 -25 111q-15 22 -38 31q-39 16 -87 -7q-50 -23 -88 -77v-332h-58v449h58v-84z" />
    <glyph glyph-name="Ncaron" unicode="&#x147;" horiz-adv-x="812" 
d="M631 931v-13q-41 -41 -75.5 -82t-49.5 -65h-174q-14 23 -40.5 55t-84.5 92v13h99q72 -45 112 -86q41 42 114 86h99zM96 700v-5l239 -379l130 -208v592h21v-703h-19l-371 590v-590h-21v703h21z" />
    <glyph glyph-name="ncaron" unicode="&#x148;" horiz-adv-x="657" 
d="M553 766v-13q-41 -41 -75.5 -82t-49.5 -65h-174q-14 23 -40.5 55t-84.5 92v13h99q72 -45 112 -86q41 42 114 86h99zM123 362q29 33 70 58t80 29q72 7 114 -53q21 -28 26.5 -55t5.5 -70v-274h-58v274q0 76 -25 111q-15 22 -38 31q-39 16 -87 -7q-50 -23 -88 -77v-332h-58
v449h58v-84z" />
    <glyph glyph-name="napostrophe" unicode="&#x149;" horiz-adv-x="778" 
d="M189 714l7 -11q-24 -96 -86 -234h-107q34 145 49 245h137zM245 362q29 33 70 58t80 29q72 7 114 -53q21 -28 26.5 -55t5.5 -70v-274h-58v274q0 76 -25 111q-15 22 -38 31q-39 16 -87 -7q-50 -23 -88 -77v-332h-58v449h58v-84z" />
    <glyph glyph-name="Eng" unicode="&#x14a;" horiz-adv-x="812" 
d="M496 -210q-56 0 -96 11v118q45 -10 81 -10q56 0 81.5 22t28.5 71l-371 538h-4q9 -143 9 -204v-336h-135v714h191l310 -440h3q-7 139 -7 197v243h136v-714q0 -101 -59 -155.5t-168 -54.5z" />
    <glyph glyph-name="eng" unicode="&#x14b;" horiz-adv-x="657" 
d="M405 -240q-52 0 -90 12v117q29 -9 58 -9q60 0 60 83v367q0 107 -88 107q-62 0 -90 -41.5t-28 -138.5v-257h-149v546h114l20 -70h9q24 39 67.5 59.5t99.5 20.5q95 0 144.5 -51.5t49.5 -148.5v-415q0 -87 -46 -134t-131 -47z" />
    <glyph glyph-name="Omacron" unicode="&#x14c;" horiz-adv-x="795" 
d="M233 874h331v-103h-331v103zM51 285q-3 26 -3 60q0 33 2 59q4 63 26 120q32 81 91.5 128t143.5 47q9 1 18 0q101 -1 169 -70q14 -15 26 -32t21.5 -35t17.5 -37.5t13 -39.5t8.5 -40.5t5.5 -40.5q2 -26 1 -59q0 -35 -2 -60q-5 -56 -24 -106t-50.5 -90.5t-79.5 -64.5
t-106 -24h-18q-58 0 -106 24t-79.5 64.5t-50.5 90.5t-24 106zM186 92q57 -74 134 -76q77 2 133 76q70 91 74 258q-4 165 -73 256q-56 74 -133 77h-1h-1q-77 -3 -133 -77q-69 -91 -73 -256q4 -167 73 -258z" />
    <glyph glyph-name="omacron" unicode="&#x14d;" horiz-adv-x="619" 
d="M144 709h331v-103h-331v103zM49 175q-8 77 8 137q13 52 47 87t85 47q23 7 48 6h2.5h1.5h6q22 1 42 -5q55 -12 90.5 -49t48.5 -93q15 -62 5 -136q-4 -32 -15.5 -59t-29 -49t-43 -37t-56.5 -22q-20 -5 -42 -5h-6h-1h-3q-25 0 -48 6q-61 15 -96.5 61t-43.5 111zM149 387
q-41 -57 -44 -162q3 -106 44 -162q34 -48 86 -52h8h5q53 4 87 52q40 56 43 162q-3 105 -43 162q-34 47 -87 51q-3 1 -5 1q-3 0 -8 -1q-52 -4 -86 -51z" />
    <glyph glyph-name="Obreve" unicode="&#x14e;" horiz-adv-x="795" 
d="M590 936q-6 -75 -59.5 -120t-134.5 -45q-85 0 -135.5 44.5t-54.5 120.5h83q2 -23 13.5 -36t32 -19t62.5 -6q101 0 108 61h85zM51 285q-3 26 -3 60q0 33 2 59q4 63 26 120q32 81 91.5 128t143.5 47q9 1 18 0q101 -1 169 -70q14 -15 26 -32t21.5 -35t17.5 -37.5t13 -39.5
t8.5 -40.5t5.5 -40.5q2 -26 1 -59q0 -35 -2 -60q-5 -56 -24 -106t-50.5 -90.5t-79.5 -64.5t-106 -24h-18q-58 0 -106 24t-79.5 64.5t-50.5 90.5t-24 106zM186 92q57 -74 134 -76q77 2 133 76q70 91 74 258q-4 165 -73 256q-56 74 -133 77h-1h-1q-77 -3 -133 -77
q-69 -91 -73 -256q4 -167 73 -258z" />
    <glyph glyph-name="obreve" unicode="&#x14f;" horiz-adv-x="619" 
d="M501 771q-6 -75 -59.5 -120t-134.5 -45q-85 0 -135.5 44.5t-54.5 120.5h83q2 -23 13.5 -36t32 -19t62.5 -6q101 0 108 61h85zM49 175q-8 77 8 137q13 52 47 87t85 47q23 7 48 6h2.5h1.5h6q22 1 42 -5q55 -12 90.5 -49t48.5 -93q15 -62 5 -136q-4 -32 -15.5 -59t-29 -49
t-43 -37t-56.5 -22q-20 -5 -42 -5h-6h-1h-3q-25 0 -48 6q-61 15 -96.5 61t-43.5 111zM149 387q-41 -57 -44 -162q3 -106 44 -162q34 -48 86 -52h8h5q53 4 87 52q40 56 43 162q-3 105 -43 162q-34 47 -87 51q-3 1 -5 1q-3 0 -8 -1q-52 -4 -86 -51z" />
    <glyph glyph-name="Ohungarumlaut" unicode="&#x150;" horiz-adv-x="795" 
d="M233 771v13q30 42 57.5 84.5t37.5 62.5h147v-10q-16 -26 -71.5 -75t-91.5 -75h-79zM427 771v13q68 94 95 147h147v-10q-12 -21 -61 -65.5t-102 -84.5h-79zM51 285q-3 26 -3 60q0 33 2 59q4 63 26 120q32 81 91.5 128t143.5 47q9 1 18 0q101 -1 169 -70q14 -15 26 -32
t21.5 -35t17.5 -37.5t13 -39.5t8.5 -40.5t5.5 -40.5q2 -26 1 -59q0 -35 -2 -60q-5 -56 -24 -106t-50.5 -90.5t-79.5 -64.5t-106 -24h-18q-58 0 -106 24t-79.5 64.5t-50.5 90.5t-24 106zM186 92q57 -74 134 -76q77 2 133 76q70 91 74 258q-4 165 -73 256q-56 74 -133 77h-1
h-1q-77 -3 -133 -77q-69 -91 -73 -256q4 -167 73 -258z" />
    <glyph glyph-name="ohungarumlaut" unicode="&#x151;" horiz-adv-x="619" 
d="M136 606v13q30 42 57.5 84.5t37.5 62.5h147v-10q-16 -26 -71.5 -75t-91.5 -75h-79zM330 606v13q68 94 95 147h147v-10q-12 -21 -61 -65.5t-102 -84.5h-79zM49 175q-8 77 8 137q13 52 47 87t85 47q23 7 48 6h2.5h1.5h6q22 1 42 -5q55 -12 90.5 -49t48.5 -93q15 -62 5 -136
q-4 -32 -15.5 -59t-29 -49t-43 -37t-56.5 -22q-20 -5 -42 -5h-6h-1h-3q-25 0 -48 6q-61 15 -96.5 61t-43.5 111zM149 387q-41 -57 -44 -162q3 -106 44 -162q34 -48 86 -52h8h5q53 4 87 52q40 56 43 162q-3 105 -43 162q-34 47 -87 51q-3 1 -5 1q-3 0 -8 -1q-52 -4 -86 -51z
" />
    <glyph glyph-name="OE" unicode="&#x152;" horiz-adv-x="931" 
d="M543 558v139h368v-21h-310v-307h234v-21h-234v-329h310v-21h-368v139q-34 -64 -89 -100t-127 -37h-18q-57 1 -105 25t-79.5 64t-50 89.5t-23.5 105.5q-3 25 -3 60q0 33 2 58q4 63 26 120q31 80 90.5 126.5t142.5 47.5h18q73 -1 128 -37t88 -101zM185 92q57 -73 133 -75
q77 2 133 75q69 91 73 256q-4 165 -72 255q-56 74 -133 77h-1h-1q-76 -3 -132 -77q-69 -90 -73 -255q4 -165 73 -256z" />
    <glyph glyph-name="oe" unicode="&#x153;" horiz-adv-x="797" 
d="M433 157q6 -69 47 -108q37 -35 88 -34q18 0 35 5q42 12 65 46.5t23 79.5q0 21 15 27.5t29.5 -2t12.5 -25.5q0 -24 -10 -47q-20 -46 -74 -74q-52 -27 -112 -24q-31 1 -58.5 11.5t-50.5 29.5t-39 45q-38 -67 -116 -85q-20 -5 -42 -4h-6h-2h-2q-25 -1 -47 6q-41 10 -71.5 35
t-47 59t-21.5 77q-8 76 7 136q14 51 48 86t84 47q23 7 48 6h2h2h6q22 1 42 -5q81 -17 119 -88q28 49 78 74q47 24 104 21q50 -2 95 -26t59 -66q5 -15 5 -30q0 -25 -12 -43q-18 -26 -66 -42q-23 -7 -93 -22q-50 -11 -77 -20q-48 -18 -67 -46zM375 247q-6 93 -46 143
q-33 43 -82 47h-5h-8q-52 -4 -86 -52q-40 -56 -43 -161q3 -105 43 -161q34 -48 86 -52h8h5q48 4 81 45q39 49 46 138v25q0 14 1 28zM433 254q2 -37 0 -68q31 30 111 50q74 18 84 21q41 14 54 34q9 13 9 30q0 25 -9 46.5t-25.5 38.5t-39.5 26q-60 24 -113 -17
q-61 -47 -71 -161z" />
    <glyph glyph-name="Racute" unicode="&#x154;" horiz-adv-x="660" 
d="M355 346q50 -11 83 -51.5t33 -92.5v-205h-58v217q0 47 -33 80t-80 33h-75h-20h-72v-330h-53h-5v698v5h193h19q63 -3 111 -35t68 -90q9 -28 9 -58q0 -131 -120 -171zM133 680v-331h51h53h7h6q81 0 124 43.5t43 123.5q0 45 -19 82q-43 83 -154 82h-111zM233 771v13
q84 98 115 147h167v-10q-25 -25 -86.5 -75.5t-96.5 -74.5h-99z" />
    <glyph glyph-name="racute" unicode="&#x155;" horiz-adv-x="454" 
d="M123 441q27 21 59 28t64 -2q37 -13 48 -40v-1q4 -12 1.5 -22t-11 -14.5t-17 -5t-17 6t-12.5 18.5q-6 17 -18 28q-24 23 -56.5 12t-39.5 -44q-1 -5 -1 -12v-396h-58v449h58v-5zM165 606v13q84 98 115 147h167v-10q-25 -25 -86.5 -75.5t-96.5 -74.5h-99z" />
    <glyph glyph-name="uni0156" unicode="&#x156;" horiz-adv-x="660" 
d="M259 -208q7 24 16.5 70t13.5 77h138v-10q-37 -82 -81 -150h-87v13zM355 346q50 -11 83 -51.5t33 -92.5v-205h-58v217q0 47 -33 80t-80 33h-75h-20h-72v-330h-53h-5v698v5h193h19q63 -3 111 -35t68 -90q9 -28 9 -58q0 -131 -120 -171zM133 680v-331h51h53h7h6
q81 0 124 43.5t43 123.5q0 45 -19 82q-43 83 -154 82h-111z" />
    <glyph glyph-name="uni0157" unicode="&#x157;" horiz-adv-x="454" 
d="M48 -208q7 24 16.5 70t13.5 77h138v-10q-37 -82 -81 -150h-87v13zM123 441q27 21 59 28t64 -2q37 -13 48 -40v-1q4 -12 1.5 -22t-11 -14.5t-17 -5t-17 6t-12.5 18.5q-6 17 -18 28q-24 23 -56.5 12t-39.5 -44q-1 -5 -1 -12v-396h-58v449h58v-5z" />
    <glyph glyph-name="Rcaron" unicode="&#x158;" horiz-adv-x="660" 
d="M540 931v-13q-41 -41 -75.5 -82t-49.5 -65h-174q-14 23 -40.5 55t-84.5 92v13h99q72 -45 112 -86q41 42 114 86h99zM355 346q50 -11 83 -51.5t33 -92.5v-205h-58v217q0 47 -33 80t-80 33h-75h-20h-72v-330h-53h-5v698v5h193h19q63 -3 111 -35t68 -90q9 -28 9 -58
q0 -131 -120 -171zM133 680v-331h51h53h7h6q81 0 124 43.5t43 123.5q0 45 -19 82q-43 83 -154 82h-111z" />
    <glyph glyph-name="rcaron" unicode="&#x159;" horiz-adv-x="454" 
d="M465 766v-13q-41 -41 -75.5 -82t-49.5 -65h-174q-14 23 -40.5 55t-84.5 92v13h99q72 -45 112 -86q41 42 114 86h99zM123 441q27 21 59 28t64 -2q37 -13 48 -40v-1q4 -12 1.5 -22t-11 -14.5t-17 -5t-17 6t-12.5 18.5q-6 17 -18 28q-24 23 -56.5 12t-39.5 -44q-1 -5 -1 -12
v-396h-58v449h58v-5z" />
    <glyph glyph-name="Sacute" unicode="&#x15a;" horiz-adv-x="550" 
d="M177 19q-64 25 -99.5 73t-35.5 116q-2 20 14 29.5t32 1.5q19 -8 19 -31q0 -92 51 -141q41 -37 92 -47t102 11q42 17 73.5 51.5t34.5 76.5q3 48 -38 87q-24 22 -67 47q-27 16 -84 45q-94 46 -129 72q-39 28 -60 65.5t-15 80.5q9 61 66 103q58 43 139 44q41 0 79 -9.5
t71 -28.5t53.5 -52.5t21.5 -76.5q1 -18 -13.5 -27.5t-30 -2t-16.5 28.5q-3 75 -55 116q-46 36 -109 34q-60 -2 -106 -37q-45 -33 -50 -79q-9 -68 79 -117q24 -14 71 -36.5t65 -31.5q99 -52 140 -100q52 -62 37 -130q-9 -43 -42 -77t-78 -53q-50 -22 -105.5 -23t-106.5 18z
M200 771v13q84 98 115 147h167v-10q-25 -25 -86.5 -75.5t-96.5 -74.5h-99z" />
    <glyph glyph-name="sacute" unicode="&#x15b;" horiz-adv-x="497" 
d="M186 1q-59 10 -100.5 47.5t-41.5 94.5q-1 17 13.5 25.5t29.5 1.5t15 -27q0 -100 73 -125q27 -10 60 -6q33 5 62 23.5t38 47.5q8 22 0 46q-9 25 -38 43t-64.5 29.5t-71.5 24t-63.5 33t-35.5 49.5q-10 40 8 74q19 33 58.5 50.5t81.5 17.5q30 1 58.5 -6.5t53 -22t39.5 -39.5
t15 -57q1 -15 -11.5 -22.5t-26 -1.5t-13.5 24q0 73 -51 99q-27 14 -62 12q-13 0 -25 -3q-31 -8 -58 -28t-30 -48q-2 -14 4 -28q10 -22 52 -40q7 -3 86 -30q20 -7 33.5 -12.5t31.5 -15t30 -20t22.5 -25.5t13.5 -33q14 -69 -26 -112q-27 -29 -71 -38.5t-89 -1.5zM167 606v13
q84 98 115 147h167v-10q-25 -25 -86.5 -75.5t-96.5 -74.5h-99z" />
    <glyph glyph-name="Scircumflex" unicode="&#x15c;" horiz-adv-x="550" 
d="M405 771q-77 45 -114 86q-38 -40 -112 -86h-99v13q92 92 125 147h174q15 -25 52.5 -69t72.5 -78v-13h-99zM177 19q-64 25 -99.5 73t-35.5 116q-2 20 14 29.5t32 1.5q19 -8 19 -31q0 -92 51 -141q41 -37 92 -47t102 11q42 17 73.5 51.5t34.5 76.5q3 48 -38 87
q-24 22 -67 47q-27 16 -84 45q-94 46 -129 72q-39 28 -60 65.5t-15 80.5q9 61 66 103q58 43 139 44q41 0 79 -9.5t71 -28.5t53.5 -52.5t21.5 -76.5q1 -18 -13.5 -27.5t-30 -2t-16.5 28.5q-3 75 -55 116q-46 36 -109 34q-60 -2 -106 -37q-45 -33 -50 -79q-9 -68 79 -117
q24 -14 71 -36.5t65 -31.5q99 -52 140 -100q52 -62 37 -130q-9 -43 -42 -77t-78 -53q-50 -22 -105.5 -23t-106.5 18z" />
    <glyph glyph-name="scircumflex" unicode="&#x15d;" horiz-adv-x="497" 
d="M371 606q-77 45 -114 86q-38 -40 -112 -86h-99v13q92 92 125 147h174q15 -25 52.5 -69t72.5 -78v-13h-99zM186 1q-59 10 -100.5 47.5t-41.5 94.5q-1 17 13.5 25.5t29.5 1.5t15 -27q0 -100 73 -125q27 -10 60 -6q33 5 62 23.5t38 47.5q8 22 0 46q-9 25 -38 43t-64.5 29.5
t-71.5 24t-63.5 33t-35.5 49.5q-10 40 8 74q19 33 58.5 50.5t81.5 17.5q30 1 58.5 -6.5t53 -22t39.5 -39.5t15 -57q1 -15 -11.5 -22.5t-26 -1.5t-13.5 24q0 73 -51 99q-27 14 -62 12q-13 0 -25 -3q-31 -8 -58 -28t-30 -48q-2 -14 4 -28q10 -22 52 -40q7 -3 86 -30
q20 -7 33.5 -12.5t31.5 -15t30 -20t22.5 -25.5t13.5 -33q14 -69 -26 -112q-27 -29 -71 -38.5t-89 -1.5z" />
    <glyph glyph-name="Scedilla" unicode="&#x15e;" horiz-adv-x="550" 
d="M177 19q-64 25 -99.5 73t-35.5 116q-2 20 14 29.5t32 1.5q19 -8 19 -31q0 -92 51 -141q41 -37 92 -47t102 11q42 17 73.5 51.5t34.5 76.5q3 48 -38 87q-24 22 -67 47q-27 16 -84 45q-94 46 -129 72q-39 28 -60 65.5t-15 80.5q9 61 66 103q58 43 139 44q41 0 79 -9.5
t71 -28.5t53.5 -52.5t21.5 -76.5q1 -18 -13.5 -27.5t-30 -2t-16.5 28.5q-3 75 -55 116q-46 36 -109 34q-60 -2 -106 -37q-45 -33 -50 -79q-9 -68 79 -117q24 -14 71 -36.5t65 -31.5q99 -52 140 -100q52 -62 37 -130q-9 -43 -42 -77t-78 -53q-50 -22 -105.5 -23t-106.5 18z
M377 -122q0 -62 -37 -90t-114 -28q-38 0 -71 10v82q13 -3 35.5 -6.5t34.5 -3.5q35 0 35 30q0 41 -81 53l38 75h94l-13 -30q36 -12 57.5 -36.5t21.5 -55.5z" />
    <glyph glyph-name="scedilla" unicode="&#x15f;" horiz-adv-x="497" 
d="M186 1q-59 10 -100.5 47.5t-41.5 94.5q-1 17 13.5 25.5t29.5 1.5t15 -27q0 -100 73 -125q27 -10 60 -6q33 5 62 23.5t38 47.5q8 22 0 46q-9 25 -38 43t-64.5 29.5t-71.5 24t-63.5 33t-35.5 49.5q-10 40 8 74q19 33 58.5 50.5t81.5 17.5q30 1 58.5 -6.5t53 -22t39.5 -39.5
t15 -57q1 -15 -11.5 -22.5t-26 -1.5t-13.5 24q0 73 -51 99q-27 14 -62 12q-13 0 -25 -3q-31 -8 -58 -28t-30 -48q-2 -14 4 -28q10 -22 52 -40q7 -3 86 -30q20 -7 33.5 -12.5t31.5 -15t30 -20t22.5 -25.5t13.5 -33q14 -69 -26 -112q-27 -29 -71 -38.5t-89 -1.5zM351 -122
q0 -62 -37 -90t-114 -28q-38 0 -71 10v82q13 -3 35.5 -6.5t34.5 -3.5q35 0 35 30q0 41 -81 53l38 75h94l-13 -30q36 -12 57.5 -36.5t21.5 -55.5z" />
    <glyph glyph-name="Scaron" unicode="&#x160;" horiz-adv-x="555" 
d="M42 207q-2 20 13.5 29.5t32.5 2.5q19 -9 19 -32q-1 -91 51 -139q40 -38 90.5 -47.5t101.5 10.5q42 17 73.5 51.5t34.5 75.5q3 49 -38 87q-24 22 -67 47q-27 16 -83 44q-94 47 -129 72q-86 62 -74 146q9 60 65 102q59 43 139 43q32 1 62.5 -5t59.5 -18.5t51 -31.5
t35.5 -47.5t14.5 -63.5q1 -18 -13.5 -27t-29.5 -2t-16 29q-3 74 -55 115q-46 36 -109 33q-59 -2 -105 -36q-44 -33 -50 -78q-9 -69 79 -117q24 -14 71 -36.5t64 -31.5q99 -51 139 -99q52 -62 38 -129q-9 -43 -42 -77t-78 -53q-49 -22 -104.5 -23t-105.5 19
q-64 25 -99.5 72.5t-35.5 114.5zM181 883l94 -58l96 59q12 8 18 -2q2 -5 -2 -9l-108 -111q-4 -4 -7 0l-107 110q-8 8 2 13q7 3 14 -2z" />
    <glyph glyph-name="scaron" unicode="&#x161;" horiz-adv-x="424" 
d="M44 142q-1 17 13 26t29.5 2t15.5 -27q0 -99 72 -125q28 -10 60 -5q32 4 61 22.5t39 47.5q7 22 -1 46q-9 25 -37.5 43t-64 29.5t-71 23.5t-63 32.5t-35.5 49.5q-10 40 8 73t57.5 50.5t81.5 17.5q40 1 76.5 -11.5t62.5 -42t26 -70.5q1 -15 -11.5 -22.5t-25.5 -1.5t-13 24
q0 72 -51 99q-27 13 -62 11q-13 0 -25 -3q-31 -7 -57.5 -27.5t-29.5 -47.5q-2 -14 4 -28q10 -22 51 -40q8 -3 86 -30q25 -8 42 -15.5t37.5 -20t33.5 -30t17 -39.5q14 -69 -25 -111q-28 -30 -72 -39.5t-87 -1.5q-60 11 -101 48t-41 93zM114 648l94 -57l96 58q12 8 18 -2
q2 -4 -2 -9l-108 -111q-4 -3 -7 0l-107 110q-8 8 2 13q7 3 14 -2z" />
    <glyph glyph-name="uni0162" unicode="&#x162;" horiz-adv-x="579" 
d="M226 -3v682h-221v21h494h5v-21h-221v-682h-57zM405 -122q0 -62 -37 -90t-114 -28q-38 0 -71 10v82q13 -3 35.5 -6.5t34.5 -3.5q35 0 35 30q0 41 -81 53l38 75h94l-13 -30q36 -12 57.5 -36.5t21.5 -55.5z" />
    <glyph glyph-name="uni0163" unicode="&#x163;" horiz-adv-x="434" 
d="M79 435h-51v20h51v162h57v-162h126v-20h-126v-260q0 -88 26 -124q33 -47 94 -34l5 1v-12l-3 -1q-8 -3 -16.5 -5t-16.5 -2q-72 -7 -115 52q-20 28 -25.5 55.5t-5.5 69.5v260zM361 -122q0 -62 -37 -90t-114 -28q-38 0 -71 10v82q13 -3 35.5 -6.5t34.5 -3.5q35 0 35 30
q0 41 -81 53l38 75h94l-13 -30q36 -12 57.5 -36.5t21.5 -55.5z" />
    <glyph glyph-name="Tcaron" unicode="&#x164;" horiz-adv-x="579" 
d="M502 931v-13q-41 -41 -75.5 -82t-49.5 -65h-174q-14 23 -40.5 55t-84.5 92v13h99q72 -45 112 -86q41 42 114 86h99zM226 -3v682h-221v21h494h5v-21h-221v-682h-57z" />
    <glyph glyph-name="tcaron" unicode="&#x165;" horiz-adv-x="434" 
d="M303 623q7 24 16.5 70t13.5 77h138v-10q-39 -86 -81 -150h-87v13zM79 435h-51v20h51v162h57v-162h126v-20h-126v-260q0 -88 26 -124q33 -47 94 -34l5 1v-12l-3 -1q-8 -3 -16.5 -5t-16.5 -2q-72 -7 -115 52q-20 28 -25.5 55.5t-5.5 69.5v260z" />
    <glyph glyph-name="Tbar" unicode="&#x166;" horiz-adv-x="579" 
d="M365 0h-151v291h-121v124h121v173h-194v126h539v-126h-194v-173h121v-124h-121v-291z" />
    <glyph glyph-name="tbar" unicode="&#x167;" horiz-adv-x="434" 
d="M308 109q39 0 94 17v-111q-25 -12 -61.5 -18.5t-72.5 -6.5q-91 0 -132.5 44.5t-41.5 136.5v72h-62v97h62v94h-71v63l82 50l43 115h95v-116h153v-112h-153v-94h136v-97h-136v-72q0 -32 18 -47t47 -15z" />
    <glyph glyph-name="Utilde" unicode="&#x168;" horiz-adv-x="755" 
d="M299 822q-15 0 -29 -13t-20 -39h-73q5 71 40 111t93 40q20 0 39 -8t38 -17.5t37 -17.5t36 -8q15 0 29 12.5t20 39.5h73q-5 -71 -40.5 -111t-92.5 -40q-20 0 -39.5 8t-38 17.5t-36.5 17.5t-36 8zM186 15q-118 55 -118 228v457h58v-457q0 -209 181 -217q61 -2 103 23
q77 46 77 182v469h21v-473q0 -233 -206 -235q-66 -1 -116 23z" />
    <glyph glyph-name="utilde" unicode="&#x169;" horiz-adv-x="657" 
d="M247 657q-15 0 -29 -13t-20 -39h-73q5 71 40 111t93 40q20 0 39 -8t38 -17.5t37 -17.5t36 -8q15 0 29 12.5t20 39.5h73q-5 -71 -40.5 -111t-92.5 -40q-20 0 -39.5 8t-38 17.5t-36.5 17.5t-36 8zM355 85q-18 -22 -42 -40.5t-52.5 -31.5t-55.5 -15q-72 -7 -114 52
q-20 28 -26 55.5t-6 69.5v274h58v-274q0 -76 25 -111q15 -21 38 -31q39 -16 87 7q50 23 88 77v332h58v-452h-58v88z" />
    <glyph glyph-name="Umacron" unicode="&#x16a;" horiz-adv-x="755" 
d="M213 874h331v-103h-331v103zM186 15q-118 55 -118 228v457h58v-457q0 -209 181 -217q61 -2 103 23q77 46 77 182v469h21v-473q0 -233 -206 -235q-66 -1 -116 23z" />
    <glyph glyph-name="umacron" unicode="&#x16b;" horiz-adv-x="657" 
d="M161 709h331v-103h-331v103zM355 85q-18 -22 -42 -40.5t-52.5 -31.5t-55.5 -15q-72 -7 -114 52q-20 28 -26 55.5t-6 69.5v274h58v-274q0 -76 25 -111q15 -21 38 -31q39 -16 87 7q50 23 88 77v332h58v-452h-58v88z" />
    <glyph glyph-name="Ubreve" unicode="&#x16c;" horiz-adv-x="755" 
d="M570 936q-6 -75 -59.5 -120t-134.5 -45q-85 0 -135.5 44.5t-54.5 120.5h83q2 -23 13.5 -36t32 -19t62.5 -6q101 0 108 61h85zM186 15q-118 55 -118 228v457h58v-457q0 -209 181 -217q61 -2 103 23q77 46 77 182v469h21v-473q0 -233 -206 -235q-66 -1 -116 23z" />
    <glyph glyph-name="ubreve" unicode="&#x16d;" horiz-adv-x="657" 
d="M519 771q-6 -75 -59.5 -120t-134.5 -45q-85 0 -135.5 44.5t-54.5 120.5h83q2 -23 13.5 -36t32 -19t62.5 -6q101 0 108 61h85zM355 85q-18 -22 -42 -40.5t-52.5 -31.5t-55.5 -15q-72 -7 -114 52q-20 28 -26 55.5t-6 69.5v274h58v-274q0 -76 25 -111q15 -21 38 -31
q39 -16 87 7q50 23 88 77v332h58v-452h-58v88z" />
    <glyph glyph-name="Uring" unicode="&#x16e;" horiz-adv-x="755" 
d="M501 887q0 -53 -34.5 -85t-89.5 -32t-88 31t-33 85q0 53 33 84.5t88 31.5q54 0 89 -32.5t35 -82.5zM424 886q0 22 -13 34.5t-34 12.5t-34 -12.5t-13 -34.5t12 -34.5t35 -12.5q21 0 34 12.5t13 34.5zM186 15q-118 55 -118 228v457h58v-457q0 -209 181 -217q61 -2 103 23
q77 46 77 182v469h21v-473q0 -233 -206 -235q-66 -1 -116 23z" />
    <glyph glyph-name="uring" unicode="&#x16f;" horiz-adv-x="657" 
d="M449 722q0 -53 -34.5 -85t-89.5 -32t-88 31t-33 85q0 53 33 84.5t88 31.5q54 0 89 -32.5t35 -82.5zM372 721q0 22 -13 34.5t-34 12.5t-34 -12.5t-13 -34.5t12 -34.5t35 -12.5q21 0 34 12.5t13 34.5zM355 85q-18 -22 -42 -40.5t-52.5 -31.5t-55.5 -15q-72 -7 -114 52
q-20 28 -26 55.5t-6 69.5v274h58v-274q0 -76 25 -111q15 -21 38 -31q39 -16 87 7q50 23 88 77v332h58v-452h-58v88z" />
    <glyph glyph-name="Uhungarumlaut" unicode="&#x170;" horiz-adv-x="755" 
d="M215 771v13q30 42 57.5 84.5t37.5 62.5h147v-10q-16 -26 -71.5 -75t-91.5 -75h-79zM409 771v13q68 94 95 147h147v-10q-12 -21 -61 -65.5t-102 -84.5h-79zM186 15q-118 55 -118 228v457h58v-457q0 -209 181 -217q61 -2 103 23q77 46 77 182v469h21v-473q0 -233 -206 -235
q-66 -1 -116 23z" />
    <glyph glyph-name="uhungarumlaut" unicode="&#x171;" horiz-adv-x="657" 
d="M168 606v13q30 42 57.5 84.5t37.5 62.5h147v-10q-16 -26 -71.5 -75t-91.5 -75h-79zM362 606v13q68 94 95 147h147v-10q-12 -21 -61 -65.5t-102 -84.5h-79zM355 85q-18 -22 -42 -40.5t-52.5 -31.5t-55.5 -15q-72 -7 -114 52q-20 28 -26 55.5t-6 69.5v274h58v-274
q0 -76 25 -111q15 -21 38 -31q39 -16 87 7q50 23 88 77v332h58v-452h-58v88z" />
    <glyph glyph-name="Uogonek" unicode="&#x172;" horiz-adv-x="755" 
d="M393 -111q0 -21 11 -30.5t28 -9.5q27 0 56 9v-87q-40 -11 -76 -11q-55 0 -88.5 31t-33.5 81q0 33 18.5 61.5t69.5 66.5h87q-34 -32 -53 -59t-19 -52zM186 15q-118 55 -118 228v457h58v-457q0 -209 181 -217q61 -2 103 23q77 46 77 182v469h21v-473q0 -233 -206 -235
q-66 -1 -116 23z" />
    <glyph glyph-name="uogonek" unicode="&#x173;" horiz-adv-x="657" 
d="M479 -111q0 -21 11 -30.5t28 -9.5q27 0 56 9v-87q-40 -11 -76 -11q-55 0 -88.5 31t-33.5 81q0 33 18.5 61.5t69.5 66.5h87q-34 -32 -53 -59t-19 -52zM355 85q-18 -22 -42 -40.5t-52.5 -31.5t-55.5 -15q-72 -7 -114 52q-20 28 -26 55.5t-6 69.5v274h58v-274q0 -76 25 -111
q15 -21 38 -31q39 -16 87 7q50 23 88 77v332h58v-452h-58v88z" />
    <glyph glyph-name="Wcircumflex" unicode="&#x174;" horiz-adv-x="966" 
d="M596 771q-77 45 -114 86q-38 -40 -112 -86h-99v13q92 92 125 147h174q15 -25 52.5 -69t72.5 -78v-13h-99zM286 111l17 -47l109 306l-118 330h62l1 -3q33 -93 86 -241l87 244h23l-2 -6q-44 -119 -97 -269q68 -192 112 -314l16 -47l228 636h23l-2 -6q-68 -186 -249 -694
l-1 -3h-36l-122 342q-14 -39 -121 -339l-1 -3h-36l-251 703h62l1 -3q37 -103 106.5 -299.5t102.5 -286.5z" />
    <glyph glyph-name="wcircumflex" unicode="&#x175;" horiz-adv-x="855" 
d="M541 606q-77 45 -114 86q-38 -40 -112 -86h-99v13q92 92 125 147h174q15 -25 52.5 -69t72.5 -78v-13h-99zM83 450l150 -376l50 127l-99 249h62l68 -171l68 171h24l-80 -200l70 -176l149 376h24l-156 -392q-1 -3 -4 -10.5t-5 -11.5l-15 -39h-25l-64 162l-5 12
q-35 -88 -68 -171l-1 -3h-25l-14 36q-1 3 -3 6l-7 19l-156 392h62z" />
    <glyph glyph-name="Ycircumflex" unicode="&#x176;" horiz-adv-x="624" 
d="M426 771q-77 45 -114 86q-38 -40 -112 -86h-99v13q92 92 125 147h174q15 -25 52.5 -69t72.5 -78v-13h-99zM229 296l-221 404h66l1 -2q34 -61 96.5 -176t92.5 -169l14 -26l205 373h24l-220 -400v-303h-58v299z" />
    <glyph glyph-name="ycircumflex" unicode="&#x177;" horiz-adv-x="568" 
d="M398 606q-77 45 -114 86q-38 -40 -112 -86h-99v13q92 92 125 147h174q15 -25 52.5 -69t72.5 -78v-13h-99zM82 453l149 -376l150 376h23l-208 -528q-49 -120 -117 -125q-29 -2 -59 16q-20 12 -33 30.5t-13 38.5v1q2 28 25 31q14 1 24 -9q11 -11 9 -28q0 -23 8.5 -41
t29.5 -20q6 -1 13 0q27 5 50.5 36.5t38.5 67.5l29 74l-17 42q-1 2 -1 3l-2 6l-23 56l-138 349h62z" />
    <glyph glyph-name="Ydieresis" unicode="&#x178;" horiz-adv-x="517" 
d="M230 295l-220 402h66l1 -3q33 -60 95.5 -174.5t91.5 -167.5l15 -26l203 371h24l-219 -398v-301h-57v297zM320.5 863q17.5 0 29.5 -12t12 -29.5t-12 -30t-30 -12.5q-11 0 -20.5 5.5t-15.5 15.5t-6 21q0 18 12.5 30t30 12zM154 821q0 18 12.5 30t29.5 12t29.5 -12
t12.5 -29.5t-12.5 -30t-29.5 -12.5q-11 0 -21 5.5t-15.5 15.5t-5.5 21z" />
    <glyph glyph-name="Zacute" unicode="&#x179;" horiz-adv-x="579" 
d="M500 700l-405 -682h389v-21h-4h-457h-8l405 682h-387v21h5h454h8zM200 771v13q84 98 115 147h167v-10q-25 -25 -86.5 -75.5t-96.5 -74.5h-99z" />
    <glyph glyph-name="zacute" unicode="&#x17a;" horiz-adv-x="487" 
d="M29 454l269 1h62l-4 -7q-44 -74 -130 -217.5t-128 -212.5h256v-21h-4h-319h-8l4 7q44 72 130 215.5t128 214.5h-256v20zM172 606v13q84 98 115 147h167v-10q-25 -25 -86.5 -75.5t-96.5 -74.5h-99z" />
    <glyph glyph-name="Zdotaccent" unicode="&#x17b;" horiz-adv-x="579" 
d="M208 852q0 73 81 73t81 -73q0 -35 -20.5 -54t-60.5 -19q-81 0 -81 73zM500 700l-405 -682h389v-21h-4h-457h-8l405 682h-387v21h5h454h8z" />
    <glyph glyph-name="zdotaccent" unicode="&#x17c;" horiz-adv-x="487" 
d="M161 687q0 73 81 73t81 -73q0 -35 -20.5 -54t-60.5 -19q-81 0 -81 73zM29 454l269 1h62l-4 -7q-44 -74 -130 -217.5t-128 -212.5h256v-21h-4h-319h-8l4 7q44 72 130 215.5t128 214.5h-256v20z" />
    <glyph glyph-name="Zcaron" unicode="&#x17d;" horiz-adv-x="579" 
d="M508 931v-13q-41 -41 -75.5 -82t-49.5 -65h-174q-14 23 -40.5 55t-84.5 92v13h99q72 -45 112 -86q41 42 114 86h99zM500 700l-405 -682h389v-21h-4h-457h-8l405 682h-387v21h5h454h8z" />
    <glyph glyph-name="zcaron" unicode="&#x17e;" horiz-adv-x="382" 
d="M297 453h62l-4 -7q-45 -76 -131 -219t-125 -209h254v-20h-4h-317h-8l4 7q45 74 130.5 216.5t126.5 210.5h-255v20zM97 648l94 -57l96 58q12 8 18 -2q2 -4 -2 -9l-108 -111q-4 -3 -7 0l-107 110h-1q-7 8 3 13q7 3 14 -2z" />
    <glyph glyph-name="longs" unicode="&#x17f;" horiz-adv-x="382" 
d="M289 647q-62 0 -62 -67v-580h-149v586q0 93 46 136t146 43q77 0 136 -23l-35 -109q-45 14 -82 14z" />
    <glyph glyph-name="uni0180" unicode="&#x180;" horiz-adv-x="632" 
d="M382 546q102 0 154 -69t52 -203q0 -135 -56.5 -209.5t-153.5 -74.5q-96 0 -151 70h-10l-25 -60h-114v584h-76v97h76v79h149v-79h154v-97h-154v-11q0 -32 -6 -108h6q52 81 155 81zM334 427q-104 0 -107 -146v-6q0 -88 26 -126t83 -38q46 0 73 42t27 123q0 151 -102 151z
" />
    <glyph glyph-name="uni0181" unicode="&#x181;" horiz-adv-x="793" 
d="M212 590h-26q-32 0 -46.5 -16.5t-14.5 -39.5q0 -22 10 -48h-118q-12 26 -12 58q0 82 47.5 126t137.5 44h244q152 0 220.5 -43.5t68.5 -137.5q0 -63 -30 -104.5t-80 -49.5v-5q68 -15 98 -56.5t30 -110.5q0 -98 -70.5 -152.5t-191.5 -54.5h-267v590zM363 311v-186h99
q62 0 92 24t30 73q0 89 -127 89h-94zM363 431h88q62 0 89.5 19t27.5 63q0 41 -30.5 59t-94.5 18h-80v-159z" />
    <glyph glyph-name="uni0182" unicode="&#x182;" horiz-adv-x="638" 
d="M241 440h60q140 0 216 -56.5t76 -160.5q0 -223 -295 -223h-208v714h451v-125h-300v-149zM241 124h51q77 0 112.5 24.5t35.5 74.5q0 49 -36 71t-124 22h-39v-192z" />
    <glyph glyph-name="uni0183" unicode="&#x183;" horiz-adv-x="632" 
d="M382 546q102 0 154 -69t52 -203q0 -135 -56.5 -209.5t-153.5 -74.5q-96 0 -151 70h-10l-25 -60h-114v760h456v-112h-307v-75q0 -32 -6 -108h6q52 81 155 81zM334 427q-104 0 -107 -146v-6q0 -88 26 -126t83 -38q46 0 73 42t27 123q0 151 -102 151z" />
    <glyph glyph-name="uni0184" unicode="&#x184;" horiz-adv-x="661" 
d="M616 218q0 -109 -69 -168.5t-198 -59.5q-264 0 -264 220v504h151v-274h88q140 0 216 -57.5t76 -164.5zM236 218q0 -104 109 -104q58 0 88 26.5t30 77.5q0 52 -35 75t-125 23h-67v-98z" />
    <glyph glyph-name="uni0185" unicode="&#x185;" horiz-adv-x="633" 
d="M589 273q0 -133 -67.5 -208t-186.5 -75q-125 0 -192.5 72t-67.5 205v493h149v-177q0 -27 -6 -108h6q26 40 67 60.5t92 20.5q97 0 151.5 -75t54.5 -208zM335 437q-59 0 -85 -37.5t-26 -108.5v-26q0 -80 26.5 -117.5t81.5 -37.5q53 0 79 39.5t26 123.5q0 83 -27.5 123.5
t-74.5 40.5z" />
    <glyph glyph-name="uni0186" unicode="&#x186;" horiz-adv-x="637" 
d="M239 598q-42 0 -80.5 -14t-74.5 -33l-49 123q99 50 220 50q153 0 238.5 -96.5t85.5 -266.5q0 -175 -86.5 -273t-245.5 -98q-54 0 -99 8.5t-92 28.5v127q64 -22 101.5 -30t75.5 -8q93 0 141.5 63.5t48.5 178.5q0 114 -48.5 177t-135.5 63z" />
    <glyph glyph-name="uni0187" unicode="&#x187;" horiz-adv-x="637" 
d="M393 598q-85 0 -132 -64t-47 -179q0 -239 179 -239q75 0 182 38v-127q-88 -37 -196 -37q-156 0 -238.5 94.5t-82.5 271.5q0 111 40.5 195t116.5 128.5t178 44.5q46 0 89 -11q1 81 40.5 123.5t113.5 42.5q22 0 41.5 -5t28.5 -10v-114q-28 10 -55 10q-49 0 -49 -56v-40
l-49 -113q-40 19 -80.5 33t-79.5 14z" />
    <glyph glyph-name="uni0188" unicode="&#x188;" horiz-adv-x="514" 
d="M300 -10q-255 0 -255 280q0 139 69.5 212.5t198.5 73.5q29 0 50 -4v41q0 84 39 128t116 44q39 0 69 -15v-114q-28 10 -55 10q-49 0 -49 -56v-76l-44 -110q-35 14 -65.5 23t-60.5 9q-116 0 -116 -165q0 -160 116 -160q43 0 79.5 11.5t73.5 35.5v-127q-36 -23 -73 -32
t-93 -9z" />
    <glyph glyph-name="uni0189" unicode="&#x189;" horiz-adv-x="740" 
d="M23 415h67v299h224q175 0 271.5 -92.5t96.5 -257.5q0 -176 -100.5 -270t-289.5 -94h-202v291h-67v124zM525 360q0 113 -51 171.5t-153 58.5h-80v-175h116v-124h-116v-166h64q220 0 220 235z" />
    <glyph glyph-name="uni018A" unicode="&#x18a;" horiz-adv-x="861" 
d="M804 364q0 -176 -100 -270t-290 -94h-202v590h-26q-32 0 -46.5 -16.5t-14.5 -39.5q0 -22 10 -48h-118q-12 26 -12 58q0 82 47.5 126t137.5 44h246q175 0 271.5 -92t96.5 -258zM647 360q0 230 -203 230h-81v-465h65q219 0 219 235z" />
    <glyph glyph-name="uni018B" unicode="&#x18b;" horiz-adv-x="638" 
d="M397 589h-300v125h451v-714h-220q-142 0 -212.5 54t-70.5 165q0 104 77.5 162.5t219.5 58.5h55v149zM397 316h-39q-88 0 -124 -22.5t-36 -71.5q0 -50 36 -74t112 -24h51v192z" />
    <glyph glyph-name="uni018C" unicode="&#x18c;" horiz-adv-x="632" 
d="M251 -10q-96 0 -151 75t-55 207q0 129 57 201.5t153 72.5q104 0 157 -80h5q-11 62 -11 109v73h-307v112h456v-760h-114l-29 71h-6q-51 -81 -155 -81zM303 109q57 0 84 33t29 113v16q0 83 -27.5 118.5t-87.5 35.5q-50 0 -77.5 -39.5t-27.5 -115.5q0 -81 27.5 -121
t79.5 -40z" />
    <glyph glyph-name="uni018D" unicode="&#x18d;" horiz-adv-x="619" 
d="M382 307q116 -74 116 -167q0 -70 -59 -110t-163 -40q-53 0 -104 11t-121 43l59 105q45 -22 87 -35.5t85 -13.5q36 0 54 13t18 36q0 26 -33.5 52t-101.5 60q-90 45 -132 105.5t-42 138.5q0 126 69 193t198 67q119 0 190.5 -60.5t71.5 -163.5q0 -89 -46.5 -147.5
t-145.5 -86.5zM197 515q0 -95 98 -147q58 15 92 59.5t34 107.5q0 50 -30 80t-80 30q-55 0 -84.5 -33.5t-29.5 -96.5z" />
    <glyph glyph-name="uni018E" unicode="&#x18e;" horiz-adv-x="560" 
d="M59 125h260v184h-242v124h242v157h-260v124h411v-714h-411v125z" />
    <glyph glyph-name="uni018F" unicode="&#x18f;" horiz-adv-x="816" 
d="M400 599q-72 0 -150 -22t-133 -57v131q68 41 136 57.5t148 16.5q169 0 263.5 -98t94.5 -271t-89 -269.5t-251 -96.5q-168 0 -253.5 95.5t-85.5 286.5v35h521q-6 94 -57.5 143t-143.5 49zM419 116q80 0 127.5 44.5t52.5 120.5h-362q0 -85 44 -125t138 -40z" />
    <glyph glyph-name="uni0190" unicode="&#x190;" horiz-adv-x="647" 
d="M65 537q0 85 73 136t193 51q75 0 139 -17.5t132 -60.5l-66 -101q-94 58 -194 58q-65 0 -97.5 -21.5t-32.5 -58.5q0 -48 51.5 -70.5t165.5 -22.5h60v-118h-67q-112 0 -170.5 -23.5t-58.5 -74.5q0 -105 180 -105q52 0 114 12t109 35v-127q-95 -39 -256 -39
q-142 0 -219.5 56.5t-77.5 155.5q0 73 53 117.5t149 53.5v3q-180 27 -180 161z" />
    <glyph glyph-name="uni0191" unicode="&#x191;" horiz-adv-x="548" 
d="M239 -64q0 -87 -45 -131.5t-132 -44.5q-43 0 -80 15v114q25 -10 55 -10q23 0 38 15t15 45v775h409v-124h-260v-184h242v-124h-242v-346z" />
    <glyph glyph-name="florin" unicode="&#x192;" horiz-adv-x="571" 
d="M364 -59q0 -86 -46 -133.5t-132 -47.5q-52 0 -90 12v117q29 -9 58 -9q61 0 61 83v430h-82v72l82 40v40q0 92 42.5 135.5t137.5 43.5q73 0 128 -23l-35 -109q-40 14 -71 14q-53 0 -53 -67v-34h111v-112h-111v-452z" />
    <glyph glyph-name="uni0193" unicode="&#x193;" horiz-adv-x="724" 
d="M361 401h283v-370q-69 -22 -129.5 -31.5t-124.5 -9.5q-162 0 -247 95t-85 273q0 173 99 269.5t274 96.5q50 0 93 -9q1 80 41 122t113 42q22 0 41.5 -5t28.5 -10v-114q-28 10 -55 10q-49 0 -49 -56v-33l-51 -112q-78 39 -163 39q-98 0 -157 -66t-59 -177
q0 -116 47.5 -177.5t138.5 -61.5q47 0 96 10v149h-135v126z" />
    <glyph glyph-name="uni0194" unicode="&#x194;" horiz-adv-x="649" 
d="M494 714h156l-257 -591q69 -138 69 -220q0 -65 -39 -104t-104 -39t-103 38t-38 106q0 50 18.5 103.5t47.5 117.5l-244 589h156l121 -311q10 -23 23 -68t19 -71q9 37 23.5 77.5t23.5 60.5zM354 -97q0 22 -9 56.5t-25 65.5q-18 -34 -26 -66t-8 -54q0 -56 34 -56t34 54z" />
    <glyph glyph-name="uni0195" unicode="&#x195;" horiz-adv-x="986" 
d="M572 238q0 -66 23 -97t72 -31t72.5 33t23.5 109v294h149v-307q0 -249 -245 -249q-129 0 -186.5 54.5t-57.5 171.5v103q0 118 -84 118q-58 0 -85 -43t-27 -137v-257h-149v760h149v-155q0 -18 -3 -85l-4 -44h8q52 80 155 80q91 0 140 -52.5t49 -152.5v-113z" />
    <glyph glyph-name="uni0196" unicode="&#x196;" horiz-adv-x="402" 
d="M243 714v-524q0 -35 18 -54t47 -19q38 0 85 17v-119q-53 -25 -129 -25q-179 0 -179 187v537h158z" />
    <glyph glyph-name="uni0197" unicode="&#x197;" horiz-adv-x="389" 
d="M27 419h92v169l-87 40v86h325v-86l-87 -40v-169h92v-124h-92v-169l87 -40v-86h-325v86l87 40v169h-92v124z" />
    <glyph glyph-name="uni0198" unicode="&#x198;" horiz-adv-x="664" 
d="M664 0h-172l-187 301l-64 -46v-255h-151v714h151v-329l64 91l81 108q46 62 73.5 88t56.5 39.5t63 13.5q43 0 75 -15v-119q-22 9 -48 9q-42 0 -74 -43l-120 -159z" />
    <glyph glyph-name="uni0199" unicode="&#x199;" horiz-adv-x="620" 
d="M221 297l65 83l153 166h168l-217 -237l230 -309h-172l-157 221l-64 -51v-170h-149v595q0 84 44 128t131 44q41 0 78 -15v-114q-28 10 -55 10q-49 0 -49 -56v-171l-8 -124h2z" />
    <glyph glyph-name="uni019A" unicode="&#x19a;" horiz-adv-x="330" 
d="M239 420h81v-112h-81v-308h-149v308h-80v112h80v340h149v-340z" />
    <glyph glyph-name="uni019B" unicode="&#x19b;" horiz-adv-x="615" 
d="M4 0l231 516l-11 28l-100 -30l-25 82l83 25q-15 12 -32.5 16t-40.5 4q-24 0 -50 -6v123q39 8 81 8q65 0 109 -24t75 -77l93 29l25 -83l-83 -25l135 -372q18 -51 36.5 -75t45.5 -24q16 0 34 5v-115q-11 -6 -39 -10.5t-47 -4.5q-54 0 -88 26.5t-54 84.5
q-56 158 -66.5 190.5t-16.5 57.5h-3q-22 -75 -37 -112l-101 -237h-154z" />
    <glyph glyph-name="uni019C" unicode="&#x19c;" horiz-adv-x="1035" 
d="M439 714h151v-477q0 -120 87 -120q60 0 88 42t28 141v414h152v-714h-114l-21 76h-9q-24 -42 -68.5 -64t-99.5 -22q-115 0 -167 90h-7q-55 -90 -171 -90q-99 0 -151 52t-52 152v520h151v-477q0 -120 87 -120q61 0 88.5 41t27.5 125v431z" />
    <glyph glyph-name="uni019D" unicode="&#x19d;" horiz-adv-x="812" 
d="M723 0h-192l-311 540h-4q9 -143 9 -204v-400q0 -85 -44 -130.5t-126 -45.5q-36 0 -73 15v114q25 -10 55 -10q23 0 38 15t15 45v775h191l310 -535h3q-7 139 -7 197v338h136v-714z" />
    <glyph glyph-name="uni019E" unicode="&#x19e;" horiz-adv-x="657" 
d="M582 -240h-149v559q0 59 -21 88.5t-67 29.5q-62 0 -90 -41.5t-28 -138.5v-257h-149v546h114l20 -70h8q25 40 69 60t99 20q95 0 144.5 -51.5t49.5 -148.5v-596z" />
    <glyph glyph-name="uni019F" unicode="&#x19f;" horiz-adv-x="795" 
d="M738 358q0 -177 -88 -272.5t-252 -95.5t-252 95.5t-88 273.5t88 272t253 94t252 -94.5t87 -272.5zM398 117q80 0 126 47t55 139h-363q10 -88 54.5 -137t127.5 -49zM399 599q-154 0 -181 -170h359q-12 83 -56.5 126.5t-121.5 43.5z" />
    <glyph glyph-name="Ohorn" unicode="&#x1a0;" horiz-adv-x="825" 
d="M738 358q0 -177 -88 -272.5t-252 -95.5t-252 95.5t-88 273.5q0 177 88.5 271.5t253.5 94.5q169 0 256 -99q45 30 45 134h147l7 -11q-18 -86 -52.5 -135.5t-94.5 -73.5q30 -78 30 -182zM217 358q0 -120 45.5 -180.5t135.5 -60.5q181 0 181 241t-180 241q-90 0 -136 -60.5
t-46 -180.5z" />
    <glyph glyph-name="ohorn" unicode="&#x1a1;" horiz-adv-x="679" 
d="M574 274q0 -133 -70 -208.5t-196 -75.5q-79 0 -139 34.5t-92 99t-32 150.5q0 134 70 208t196 74q55 0 103.5 -17t83.5 -50q73 22 73 139h147l7 -11q-13 -65 -34.5 -103.5t-56 -64.5t-85.5 -39q25 -61 25 -136zM197 274q0 -81 26.5 -122.5t86.5 -41.5t86 41t26 123
q0 81 -26.5 121.5t-86.5 40.5t-86 -40t-26 -122z" />
    <glyph glyph-name="uni01A2" unicode="&#x1a2;" horiz-adv-x="1130" 
d="M718 358q0 -178 -85 -273t-245 -95q-161 0 -245.5 95t-84.5 274q0 177 85.5 271.5t245.5 94.5q154 0 239 -90q82 90 205 90q102 0 157.5 -60.5t55.5 -174.5v-490h-151v478q0 60 -26.5 90.5t-76.5 30.5q-36 0 -62.5 -10t-48.5 -34q37 -82 37 -197zM217 358
q0 -121 43.5 -181t127.5 -60q171 0 171 241t-170 241q-172 0 -172 -241z" />
    <glyph glyph-name="uni01A3" unicode="&#x1a3;" horiz-adv-x="929" 
d="M554 274q0 -134 -68 -209t-188 -75q-117 0 -185 75.5t-68 208.5q0 134 67.5 208t188.5 74q118 0 186 -78q62 78 173 78q95 0 144.5 -51.5t49.5 -148.5v-596h-149v559q0 59 -21 88.5t-67 29.5q-56 0 -85 -35q22 -58 22 -128zM197 274q0 -82 24.5 -123t78.5 -41t78 41
t24 123q0 81 -24.5 121.5t-78.5 40.5q-53 0 -77.5 -40t-24.5 -122z" />
    <glyph glyph-name="uni01A4" unicode="&#x1a4;" horiz-adv-x="750" 
d="M705 491q0 -115 -72 -176t-205 -61h-65v-254h-151v590h-26q-32 0 -46.5 -16.5t-14.5 -39.5q0 -22 10 -48h-118q-12 26 -12 58q0 82 47.5 126t137.5 44h250q130 0 197.5 -56t67.5 -167zM363 378h50q69 0 104 27.5t35 80.5t-29 78.5t-91 25.5h-69v-212z" />
    <glyph glyph-name="uni01A5" unicode="&#x1a5;" horiz-adv-x="632" 
d="M227 583q0 -44 -6 -108h6q24 40 64 60.5t91 20.5q97 0 151.5 -75.5t54.5 -206.5q0 -133 -54.5 -208.5t-151.5 -75.5q-104 0 -155 67h-7l4 -30l3 -46v-221h-149v833q0 83 44 127.5t131 44.5q41 0 78 -15v-114q-28 10 -55 10q-23 0 -35 -13t-14 -43v-7zM334 437
q-55 0 -80.5 -34t-26.5 -112v-16q0 -88 26 -126t83 -38q100 0 100 165q0 81 -24.5 121t-77.5 40z" />
    <glyph glyph-name="uni01A6" unicode="&#x1a6;" horiz-adv-x="660" 
d="M241 174v-174h-151v714h151v-100h57q146 0 215.5 -53t69.5 -161q0 -62 -33.5 -110.5t-99.5 -78.5l210 -311h-168l-170 274h-81zM241 297h49q72 0 106 24t34 75t-35 72.5t-108 21.5h-46v-193z" />
    <glyph glyph-name="uni01A7" unicode="&#x1a7;" horiz-adv-x="550" 
d="M42 193q0 74 40.5 126t133.5 92q67 28 94 44.5t38.5 33.5t11.5 41q0 33 -23.5 50.5t-67.5 17.5q-41 0 -81.5 -11t-89.5 -31l-45 118q111 50 228 50q106 0 166.5 -51.5t60.5 -145.5q0 -75 -40 -125.5t-139 -91.5q-61 -25 -87 -41.5t-39 -34.5t-13 -41q0 -37 26 -57.5
t78 -20.5q100 0 210 46v-126q-92 -45 -219 -45q-117 0 -180 51.5t-63 151.5z" />
    <glyph glyph-name="uni01A8" unicode="&#x1a8;" horiz-adv-x="497" 
d="M38 152q0 62 34.5 103.5t118.5 73.5q76 29 97 43t21 33q0 20 -19 30.5t-52 10.5q-37 0 -72.5 -11.5t-75.5 -28.5l-40 107q94 43 203 43q96 0 150 -39t54 -110q0 -62 -33 -100.5t-120 -72.5q-47 -19 -72 -32t-36 -24t-11 -29q0 -50 88 -50q91 0 174 43v-113
q-79 -39 -186 -39q-111 0 -167 41.5t-56 120.5z" />
    <glyph glyph-name="uni01A9" unicode="&#x1a9;" horiz-adv-x="592" 
d="M38 0v119l230 255l-224 224v116h486v-124h-214q-25 0 -111 5l222 -220l-233 -256q117 6 139 6h226v-125h-521z" />
    <glyph glyph-name="uni01AA" unicode="&#x1aa;" horiz-adv-x="367" 
d="M290 -240q-92 0 -136 45t-44 136v589h-27q-68 0 -105 32t-37 91q0 53 40 85t107 32q171 0 171 -179v-650q0 -32 18 -47t47 -15q39 0 94 17v-111q-53 -25 -128 -25zM67 688q-17 0 -26.5 -10.5t-9.5 -25.5q0 -19 14 -32t41 -13h24v31q0 25 -11.5 37.5t-31.5 12.5z" />
    <glyph glyph-name="uni01AB" unicode="&#x1ab;" horiz-adv-x="434" 
d="M260 -240q-42 0 -80 13v104q23 -9 48 -9q27 0 38.5 14t11.5 44v64h-13q-89 0 -130 45.5t-41 135.5v263h-71v63l82 50l43 115h95v-116h153v-112h-153v-263q0 -32 18 -47t47 -15q39 0 94 17v-200q0 -86 -36 -126t-106 -40z" />
    <glyph glyph-name="uni01AC" unicode="&#x1ac;" horiz-adv-x="618" 
d="M404 0h-151v588h-67q-32 0 -46.5 -16.5t-14.5 -39.5q0 -21 10 -46h-118q-12 26 -12 58q0 82 47.5 126t137.5 44h408v-126h-194v-588z" />
    <glyph glyph-name="uni01AD" unicode="&#x1ad;" horiz-adv-x="434" 
d="M308 109q39 0 94 17v-111q-56 -25 -137 -25q-89 0 -130 45.5t-41 135.5v263h-71v63l71 43v53q0 84 47 128t142 44q49 0 92 -16v-114q-37 11 -75 11q-30 0 -43.5 -14t-13.5 -42v-44h153v-112h-153v-263q0 -32 18 -47t47 -15z" />
    <glyph glyph-name="uni01AE" unicode="&#x1ae;" horiz-adv-x="579" 
d="M365 -61q0 -31 15 -45.5t38 -14.5q30 0 55 10v-114q-12 -5 -35 -10t-49 -5q-175 0 -175 176v652h-194v126h539v-126h-194v-649z" />
    <glyph glyph-name="Uhorn" unicode="&#x1af;" horiz-adv-x="884" 
d="M671 714v-92q36 13 53 49.5t17 88.5h147l7 -11q-16 -75 -42 -116t-70.5 -66t-111.5 -35v-280q0 -79 -35.5 -138.5t-102.5 -91.5t-158 -32q-138 0 -214 70.5t-76 193.5v460h151v-449q0 -76 34.5 -112t108.5 -36t107.5 37.5t33.5 111.5v448h151z" />
    <glyph glyph-name="uhorn" unicode="&#x1b0;" horiz-adv-x="759" 
d="M465 0l-20 70h-9q-23 -38 -67 -59t-100 -21q-96 0 -145 51.5t-49 148.5v356h149v-319q0 -59 21 -88.5t67 -29.5q62 0 90 41.5t28 138.5v257h149v-57q35 11 54 46.5t19 92.5h147l7 -11q-16 -76 -42 -117t-71 -66t-114 -35v-399h-114z" />
    <glyph glyph-name="uni01B1" unicode="&#x1b1;" horiz-adv-x="786" 
d="M393 116q88 0 136 53t48 151t-31.5 159.5t-98.5 98.5v136h312v-127h-181q73 -45 114 -123.5t41 -175.5q0 -89 -41.5 -157t-119 -104.5t-179.5 -36.5q-103 0 -180 36.5t-118.5 104.5t-41.5 158q0 97 40.5 174.5t116.5 123.5h-183v127h314v-136q-66 -35 -99 -98t-33 -161
q0 -97 47.5 -150t136.5 -53z" />
    <glyph glyph-name="uni01B2" unicode="&#x1b2;" horiz-adv-x="649" 
d="M410 0h-155l-255 714h153l144 -425q7 -19 20.5 -74t17.5 -83q3 25 18.5 79.5t23.5 72.5l70 168q21 49 26 68t5 33q0 23 -13 34.5t-32 11.5q-26 0 -43 -9v117q35 17 83 17q71 0 109.5 -38.5t38.5 -105.5q0 -58 -37 -156z" />
    <glyph glyph-name="uni01B3" unicode="&#x1b3;" horiz-adv-x="624" 
d="M78 724q50 0 84.5 -26t65.5 -93l86 -183l147 292h163l-237 -436v-278h-150v272l-110 231q-20 42 -32.5 61t-24.5 27t-33 8q-20 0 -37 -9v117q37 17 78 17z" />
    <glyph glyph-name="uni01B4" unicode="&#x1b4;" horiz-adv-x="615" 
d="M172 546l86 -254q22 -63 32 -125h3q18 73 34 119l54 148q24 65 60.5 93.5t88.5 28.5q21 0 44 -4.5t36 -10.5v-115q-19 5 -34 5q-26 0 -44.5 -22.5t-37.5 -76.5l-144 -397q-64 -175 -234 -175q-34 0 -72 8v118q6 -1 23.5 -3.5t33.5 -2.5q83 0 116 95l10 29l-217 542h162z
" />
    <glyph glyph-name="uni01B5" unicode="&#x1b5;" horiz-adv-x="579" 
d="M62 415h183l121 174h-333v125h513v-98l-140 -201h93v-124h-180l-115 -166h351v-125h-531v98l135 193h-97v124z" />
    <glyph glyph-name="uni01B6" unicode="&#x1b6;" horiz-adv-x="487" 
d="M458 0h-431v88l105 142h-79v97h150l77 105h-238v114h407v-97l-90 -122h76v-97h-147l-85 -116h255v-114z" />
    <glyph glyph-name="uni01B7" unicode="&#x1b7;" horiz-adv-x="590" 
d="M138 419l176 170h-262v125h468v-97l-211 -201q118 -5 180.5 -58.5t62.5 -149.5q0 -102 -79.5 -160t-224.5 -58q-126 0 -220 39v128q45 -21 102.5 -34t108.5 -13q82 0 122 25.5t40 81.5q0 50 -51 73t-152 23h-60v106z" />
    <glyph glyph-name="uni01B8" unicode="&#x1b8;" horiz-adv-x="590" 
d="M453 313h-60q-102 0 -152.5 -23.5t-50.5 -74.5q0 -53 40.5 -79t121.5 -26q53 0 110 13t101 34v-128q-94 -39 -225 -39q-141 0 -220 56t-79 157q0 96 61.5 150t181.5 63l-211 201v97h468v-125h-263l177 -170v-106z" />
    <glyph glyph-name="uni01B9" unicode="&#x1b9;" horiz-adv-x="581" 
d="M443 139h-58q-97 0 -146 -31.5t-49 -98.5q0 -62 39.5 -95.5t113.5 -33.5q49 0 102.5 12.5t97.5 34.5v-126q-96 -41 -221 -41q-134 0 -208.5 63.5t-74.5 176.5q0 104 61 167t177 80l-211 202v97h472v-114h-288l193 -187v-106z" />
    <glyph glyph-name="uni01BA" unicode="&#x1ba;" horiz-adv-x="581" 
d="M371 143q0 31 -31.5 43.5t-116.5 12.5h-68v100l150 133h-247v114h443v-96l-177 -144q98 -8 148 -50.5t50 -115.5q0 -88 -65 -131.5t-201 -53.5q-43 -3 -62 -13t-19 -27q0 -45 100 -45q92 0 203 39v-110q-43 -18 -101.5 -28.5t-120.5 -10.5q-96 0 -152 40.5t-56 115.5
q0 147 193 162q75 5 102.5 19t27.5 46z" />
    <glyph glyph-name="uni01BB" unicode="&#x1bb;" horiz-adv-x="569" 
d="M387 322l-185 -201v-7h324v-114h-499v111l193 211h-176v97h257q26 32 35.5 64.5t9.5 68.5q0 42 -26 68t-68 26q-38 0 -71.5 -16t-76.5 -58l-73 91q46 42 78.5 60.5t71.5 30t87 11.5q103 0 165.5 -57t62.5 -148q0 -77 -39 -141h69v-97h-139z" />
    <glyph glyph-name="uni01BC" unicode="&#x1bc;" horiz-adv-x="578" 
d="M289 456q114 0 182 -60.5t68 -164.5q0 -118 -80 -179.5t-229 -61.5q-58 0 -112 10t-90 29v130q37 -20 92.5 -33t104.5 -13q81 0 121.5 27.5t40.5 80.5q0 109 -147 109h-127v258h-79v126h484v-126h-256v-132h27z" />
    <glyph glyph-name="uni01BD" unicode="&#x1bd;" horiz-adv-x="555" 
d="M283 337q116 0 175 -42.5t59 -122.5q0 -89 -72.5 -135.5t-211.5 -46.5q-58 0 -110.5 9.5t-84.5 24.5v123q35 -18 90 -30t99 -12q145 0 145 65q0 63 -149 63h-95v201h-84v112h454v-112h-230v-97h15z" />
    <glyph glyph-name="uni01BE" unicode="&#x1be;" horiz-adv-x="497" 
d="M271 399q0 -27 9.5 -41t35.5 -29l53 -31q46 -26 68 -60t22 -81q0 -80 -60 -123.5t-173 -43.5q-56 0 -107.5 9.5t-82.5 24.5v123q37 -20 86.5 -34t90.5 -14q54 0 77.5 13.5t23.5 40.5q0 17 -11 29t-35 26q-84 43 -110.5 83t-26.5 103v40h-95v63l97 50l43 115h95v-116h138
v-112h-138v-35z" />
    <glyph glyph-name="uni01BF" unicode="&#x1bf;" horiz-adv-x="632" 
d="M227 -240h-149v786h121l21 -71h7q52 81 155 81q60 0 107.5 -31t73 -88.5t25.5 -132.5q0 -135 -94.5 -219.5t-266.5 -103.5v-221zM334 437q-59 0 -83 -37.5t-24 -111.5v-180q95 12 152 65.5t57 132.5q0 61 -27 96t-75 35z" />
    <glyph glyph-name="uni01C0" unicode="&#x1c0;" horiz-adv-x="516" 
d="M204 760h107v-1000h-107v1000z" />
    <glyph glyph-name="uni01C1" unicode="&#x1c1;" horiz-adv-x="516" 
d="M76 760h107v-1000h-107v1000zM334 760h107v-1000h-107v1000z" />
    <glyph glyph-name="uni01C2" unicode="&#x1c2;" horiz-adv-x="516" 
d="M204 121h-154v97h154v112h-154v97h154v333h107v-333h155v-97h-155v-112h155v-97h-155v-361h-107v361z" />
    <glyph glyph-name="uni01C3" unicode="&#x1c3;" horiz-adv-x="286" 
d="M203 237h-119l-25 477h169zM57 70q0 41 22 62t64 21q41 0 63 -21.5t22 -61.5q0 -39 -22.5 -61t-62.5 -22q-41 0 -63.5 21.5t-22.5 61.5z" />
    <glyph glyph-name="uni01C4" unicode="&#x1c4;" horiz-adv-x="1309" 
d="M1237 931v-13q-41 -41 -75.5 -82t-49.5 -65h-174q-14 23 -40.5 55t-84.5 92v13h99q72 -45 112 -86q41 42 114 86h99zM128 -3h-53v703h53q84 0 135 -4q57 -4 106 -23.5t89.5 -54.5t68.5 -84q43 -75 48 -166q7 -121 -53 -218q-40 -65 -103 -102.5t-141 -45.5
q-56 -5 -150 -5zM133 18q87 0 143 9q78 11 132.5 63.5t77.5 122t21 147.5q-3 76 -29.5 141.5t-82 113.5t-130.5 57q-52 7 -132 7v-661zM1230 700l-405 -682h389v-21h-4h-457h-8l405 682h-387v21h5h454h8z" />
    <glyph glyph-name="uni01C5" unicode="&#x1c5;" horiz-adv-x="1228" 
d="M1204 766v-13q-41 -41 -75.5 -82t-49.5 -65h-174q-14 23 -40.5 55t-84.5 92v13h99q72 -45 112 -86q41 42 114 86h99zM128 -3h-53v703h53q84 0 135 -4q57 -4 106 -23.5t89.5 -54.5t68.5 -84q43 -75 48 -166q7 -121 -53 -218q-40 -65 -103 -102.5t-141 -45.5
q-56 -5 -150 -5zM133 18q87 0 143 9q78 11 132.5 63.5t77.5 122t21 147.5q-3 76 -29.5 141.5t-82 113.5t-130.5 57q-52 7 -132 7v-661zM769 454l269 1h62l-4 -7q-44 -74 -130 -217.5t-128 -212.5h256v-21h-4h-319h-8l4 7q44 72 130 215.5t128 214.5h-256v20z" />
    <glyph glyph-name="uni01C6" unicode="&#x1c6;" horiz-adv-x="1121" 
d="M1097 766v-13q-41 -41 -75.5 -82t-49.5 -65h-174q-14 23 -40.5 55t-84.5 92v13h99q72 -45 112 -86q41 42 114 86h99zM364 422v278h58v-371v-4v-174v-4v-147h-58v39q-41 -29 -94.5 -37t-100.5 9q-64 23 -94.5 79t-29.5 129q1 77 31 136.5t95 85.5q45 18 98.5 13t94.5 -32z
M364 146v1v180v1q-1 36 -24 65q-25 32 -64.5 43.5t-77.5 -3.5q-42 -19 -67 -69q-28 -58 -28 -150q0 -109 50 -163q43 -46 104 -36q46 7 76 42t31 82v7zM662 454l269 1h62l-4 -7q-44 -74 -130 -217.5t-128 -212.5h256v-21h-4h-319h-8l4 7q44 72 130 215.5t128 214.5h-256v20z
" />
    <glyph glyph-name="uni01C7" unicode="&#x1c7;" horiz-adv-x="895" 
d="M133 700v-682h311v-21h-369v703h58zM583 34q-3 13 -0.5 22.5t10.5 14t17 5t17.5 -6t12.5 -18.5q6 -17 18 -28q24 -23 56.5 -12t39.5 44q1 7 1 41v604h58v-526q0 -67 -16 -103q-20 -45 -69.5 -69t-96.5 -9q-37 13 -48 41z" />
    <glyph glyph-name="uni01C8" unicode="&#x1c8;" horiz-adv-x="870" 
d="M133 700v-682h311v-21h-369v703h58zM515 -137q6 -17 18 -28q24 -23 56.5 -12t39.5 44q1 7 1 41v545h58v-467q0 -67 -16 -103q-20 -45 -69.5 -69t-96.5 -9q-37 13 -48 41q-3 13 -0.5 23t10.5 14t17 4.5t17.5 -6t12.5 -18.5zM623 622q0 10 5 18.5t13 13.5t18 5
q16 0 26.5 -11t10.5 -26t-10.5 -26t-26 -11t-26 11t-10.5 26z" />
    <glyph glyph-name="uni01C9" unicode="&#x1c9;" horiz-adv-x="609" 
d="M65 -3v328v4v371h58v-703h-58zM255 -137q6 -17 18 -28q24 -23 56.5 -12t39.5 44q1 7 1 41v545h58v-467q0 -67 -16 -103q-20 -45 -69.5 -69t-96.5 -9q-37 13 -48 41q-3 13 -0.5 23t10.5 14t17 4.5t17.5 -6t12.5 -18.5zM363 622q0 10 5 18.5t13 13.5t18 5q16 0 26.5 -11
t10.5 -26t-10.5 -26t-26 -11t-26 11t-10.5 26z" />
    <glyph glyph-name="uni01CA" unicode="&#x1ca;" horiz-adv-x="1144" 
d="M96 700v-5l239 -379l130 -208v592h21v-703h-19l-371 590v-590h-21v703h21zM831 34q-3 13 -0.5 22.5t10.5 14t17 5t17.5 -6t12.5 -18.5q6 -17 18 -28q24 -23 56.5 -12t39.5 44q1 7 1 41v604h58v-526q0 -67 -16 -103q-20 -45 -69.5 -69t-96.5 -9q-37 13 -48 41z" />
    <glyph glyph-name="uni01CB" unicode="&#x1cb;" horiz-adv-x="1118" 
d="M96 700v-5l239 -379l130 -208v592h21v-703h-19l-371 590v-590h-21v703h21zM763 -137q6 -17 18 -28q24 -23 56.5 -12t39.5 44q1 7 1 41v545h58v-467q0 -67 -16 -103q-20 -45 -69.5 -69t-96.5 -9q-37 13 -48 41q-3 13 -0.5 23t10.5 14t17 4.5t17.5 -6t12.5 -18.5zM871 622
q0 10 5 18.5t13 13.5t18 5q16 0 26.5 -11t10.5 -26t-10.5 -26t-26 -11t-26 11t-10.5 26z" />
    <glyph glyph-name="uni01CC" unicode="&#x1cc;" horiz-adv-x="961" 
d="M123 362q29 33 70 58t80 29q72 7 114 -53q21 -28 26.5 -55t5.5 -70v-274h-58v274q0 76 -25 111q-15 22 -38 31q-39 16 -87 -7q-50 -23 -88 -77v-332h-58v449h58v-84zM607 -137q6 -17 18 -28q24 -23 56.5 -12t39.5 44q1 7 1 41v545h58v-467q0 -67 -16 -103
q-20 -45 -69.5 -69t-96.5 -9q-37 13 -48 41q-3 13 -0.5 23t10.5 14t17 4.5t17.5 -6t12.5 -18.5zM715 622q0 10 5 18.5t13 13.5t18 5q16 0 26.5 -11t10.5 -26t-10.5 -26t-26 -11t-26 11t-10.5 26z" />
    <glyph glyph-name="uni01CD" unicode="&#x1cd;" horiz-adv-x="689" 
d="M557 944v-13q-41 -41 -75.5 -82t-49.5 -65h-174q-14 23 -40.5 55t-84.5 92v13h99q72 -45 112 -86q41 42 114 86h99zM431 261h-289l-105 -261h-23l2 6q10 25 139 346q103 259 137 345l1 3h26l279 -703h-62l-1 3q-30 75 -104 261zM150 282h272q-113 284 -135 341h-1z" />
    <glyph glyph-name="uni01CE" unicode="&#x1ce;" horiz-adv-x="604" 
d="M520 766v-13q-41 -41 -75.5 -82t-49.5 -65h-174q-14 23 -40.5 55t-84.5 92v13h99q72 -45 112 -86q41 42 114 86h99zM368 56q-45 -50 -138 -58q-48 -4 -93.5 9t-69.5 45q-19 26 -19 60q0 43 26 65.5t72 35.5q17 5 76 17q25 6 39 9.5t38 11t41 19t27 26.5q-5 57 -33.5 94
t-65.5 45.5t-74 -0.5t-62 -43.5t-25 -84.5q0 -20 -15 -27t-29.5 1.5t-12.5 25.5q0 24 8 45q21 49 76 77q55 29 116 24q66 -4 111 -46q52 -48 63 -133q1 -8 2 -28v-246h-58v56zM368 211q1 25 0 54q-29 -32 -120 -52q-72 -16 -93 -24q-49 -20 -49 -78q0 -50 33 -77
q41 -31 100 -21t89 50q37 49 40 148z" />
    <glyph glyph-name="uni01CF" unicode="&#x1cf;" horiz-adv-x="389" 
d="M407 944v-13q-41 -41 -75.5 -82t-49.5 -65h-174q-14 23 -40.5 55t-84.5 92v13h99q72 -45 112 -86q41 42 114 86h99zM133 -3h-58v703h58v-703z" />
    <glyph glyph-name="uni01D0" unicode="&#x1d0;" horiz-adv-x="305" 
d="M365 766v-13q-41 -41 -75.5 -82t-49.5 -65h-174q-14 23 -40.5 55t-84.5 92v13h99q72 -45 112 -86q41 42 114 86h99zM98 136h-53v322h53v-322z" />
    <glyph glyph-name="uni01D1" unicode="&#x1d1;" horiz-adv-x="795" 
d="M610 944v-13q-41 -41 -75.5 -82t-49.5 -65h-174q-14 23 -40.5 55t-84.5 92v13h99q72 -45 112 -86q41 42 114 86h99zM51 285q-3 26 -3 60q0 33 2 59q4 63 26 120q32 81 91.5 128t143.5 47q9 1 18 0q101 -1 169 -70q14 -15 26 -32t21.5 -35t17.5 -37.5t13 -39.5t8.5 -40.5
t5.5 -40.5q2 -26 1 -59q0 -35 -2 -60q-5 -56 -24 -106t-50.5 -90.5t-79.5 -64.5t-106 -24h-18q-58 0 -106 24t-79.5 64.5t-50.5 90.5t-24 106zM186 92q57 -74 134 -76q77 2 133 76q70 91 74 258q-4 165 -73 256q-56 74 -133 77h-1h-1q-77 -3 -133 -77q-69 -91 -73 -256
q4 -167 73 -258z" />
    <glyph glyph-name="uni01D2" unicode="&#x1d2;" horiz-adv-x="619" 
d="M521 766v-13q-41 -41 -75.5 -82t-49.5 -65h-174q-14 23 -40.5 55t-84.5 92v13h99q72 -45 112 -86q41 42 114 86h99zM49 175q-8 77 8 137q13 52 47 87t85 47q23 7 48 6h2.5h1.5h6q22 1 42 -5q55 -12 90.5 -49t48.5 -93q15 -62 5 -136q-4 -32 -15.5 -59t-29 -49t-43 -37
t-56.5 -22q-20 -5 -42 -5h-6h-1h-3q-25 0 -48 6q-61 15 -96.5 61t-43.5 111zM149 387q-41 -57 -44 -162q3 -106 44 -162q34 -48 86 -52h8h5q53 4 87 52q40 56 43 162q-3 105 -43 162q-34 47 -87 51q-3 1 -5 1q-3 0 -8 -1q-52 -4 -86 -51z" />
    <glyph glyph-name="uni01D3" unicode="&#x1d3;" horiz-adv-x="755" 
d="M590 944v-13q-41 -41 -75.5 -82t-49.5 -65h-174q-14 23 -40.5 55t-84.5 92v13h99q72 -45 112 -86q41 42 114 86h99zM186 15q-118 55 -118 228v457h58v-457q0 -209 181 -217q61 -2 103 23q77 46 77 182v469h21v-473q0 -233 -206 -235q-66 -1 -116 23z" />
    <glyph glyph-name="uni01D4" unicode="&#x1d4;" horiz-adv-x="657" 
d="M540 766v-13q-41 -41 -75.5 -82t-49.5 -65h-174q-14 23 -40.5 55t-84.5 92v13h99q72 -45 112 -86q41 42 114 86h99zM355 85q-18 -22 -42 -40.5t-52.5 -31.5t-55.5 -15q-72 -7 -114 52q-20 28 -26 55.5t-6 69.5v274h58v-274q0 -76 25 -111q15 -21 38 -31q39 -16 87 7
q50 23 88 77v332h58v-452h-58v88z" />
    <glyph glyph-name="uni01D5" unicode="&#x1d5;" horiz-adv-x="755" 
d="M213 1020h331v-93h-331v93zM216 824q0 31 17 46t46 15q28 0 46 -15t18 -46q0 -29 -18 -44.5t-46 -15.5q-29 0 -46 15.5t-17 44.5zM413 824q0 31 17 46t46 15q28 0 46 -15t18 -46q0 -29 -18 -44.5t-46 -15.5q-29 0 -46 15.5t-17 44.5zM186 15q-118 55 -118 228v457h58
v-457q0 -209 181 -217q61 -2 103 23q77 46 77 182v469h21v-473q0 -233 -206 -235q-66 -1 -116 23z" />
    <glyph glyph-name="uni01D6" unicode="&#x1d6;" horiz-adv-x="657" 
d="M163 855h331v-93h-331v93zM166 659q0 31 17 46t46 15q28 0 46 -15t18 -46q0 -29 -18 -44.5t-46 -15.5q-29 0 -46 15.5t-17 44.5zM363 659q0 31 17 46t46 15q28 0 46 -15t18 -46q0 -29 -18 -44.5t-46 -15.5q-29 0 -46 15.5t-17 44.5zM355 85q-18 -22 -42 -40.5
t-52.5 -31.5t-55.5 -15q-72 -7 -114 52q-20 28 -26 55.5t-6 69.5v274h58v-274q0 -76 25 -111q15 -21 38 -31q39 -16 87 7q50 23 88 77v332h58v-452h-58v88z" />
    <glyph glyph-name="uni01D7" unicode="&#x1d7;" horiz-adv-x="755" 
d="M313 901v13q52 59 92 132h162v-10q-24 -28 -72 -70t-82 -65h-100zM216 824q0 31 17 46t46 15q28 0 46 -15t18 -46q0 -29 -18 -44.5t-46 -15.5q-29 0 -46 15.5t-17 44.5zM413 824q0 31 17 46t46 15q28 0 46 -15t18 -46q0 -29 -18 -44.5t-46 -15.5q-29 0 -46 15.5t-17 44.5
zM186 15q-118 55 -118 228v457h58v-457q0 -209 181 -217q61 -2 103 23q77 46 77 182v469h21v-473q0 -233 -206 -235q-66 -1 -116 23z" />
    <glyph glyph-name="uni01D8" unicode="&#x1d8;" horiz-adv-x="657" 
d="M262 736v13q52 59 92 132h162v-10q-24 -28 -72 -70t-82 -65h-100zM165 659q0 31 17 46t46 15q28 0 46 -15t18 -46q0 -29 -18 -44.5t-46 -15.5q-29 0 -46 15.5t-17 44.5zM362 659q0 31 17 46t46 15q28 0 46 -15t18 -46q0 -29 -18 -44.5t-46 -15.5q-29 0 -46 15.5t-17 44.5
zM355 85q-18 -22 -42 -40.5t-52.5 -31.5t-55.5 -15q-72 -7 -114 52q-20 28 -26 55.5t-6 69.5v274h58v-274q0 -76 25 -111q15 -21 38 -31q39 -16 87 7q50 23 88 77v332h58v-452h-58v88z" />
    <glyph glyph-name="uni01D9" unicode="&#x1d9;" horiz-adv-x="755" 
d="M216 824q0 31 17 46t46 15q28 0 46 -15t18 -46q0 -29 -18 -44.5t-46 -15.5q-29 0 -46 15.5t-17 44.5zM413 824q0 31 17 46t46 15q28 0 46 -15t18 -46q0 -29 -18 -44.5t-46 -15.5q-29 0 -46 15.5t-17 44.5zM196 1047h69q71 -36 113 -74q38 34 113 74h69v-13
q-62 -62 -82 -85t-33 -42h-134q-23 34 -54.5 66t-60.5 61v13zM186 15q-118 55 -118 228v457h58v-457q0 -209 181 -217q61 -2 103 23q77 46 77 182v469h21v-473q0 -233 -206 -235q-66 -1 -116 23z" />
    <glyph glyph-name="uni01DA" unicode="&#x1da;" horiz-adv-x="657" 
d="M166 659q0 31 17 46t46 15q28 0 46 -15t18 -46q0 -29 -18 -44.5t-46 -15.5q-29 0 -46 15.5t-17 44.5zM363 659q0 31 17 46t46 15q28 0 46 -15t18 -46q0 -29 -18 -44.5t-46 -15.5q-29 0 -46 15.5t-17 44.5zM146 882h69q71 -36 113 -74q38 34 113 74h69v-13
q-62 -62 -82 -85t-33 -42h-134q-23 34 -54.5 66t-60.5 61v13zM355 85q-18 -22 -42 -40.5t-52.5 -31.5t-55.5 -15q-72 -7 -114 52q-20 28 -26 55.5t-6 69.5v274h58v-274q0 -76 25 -111q15 -21 38 -31q39 -16 87 7q50 23 88 77v332h58v-452h-58v88z" />
    <glyph glyph-name="uni01DB" unicode="&#x1db;" horiz-adv-x="755" 
d="M343 901q-34 23 -81.5 64.5t-72.5 70.5v10h162q40 -73 92 -132v-13h-100zM216 824q0 31 17 46t46 15q28 0 46 -15t18 -46q0 -29 -18 -44.5t-46 -15.5q-29 0 -46 15.5t-17 44.5zM413 824q0 31 17 46t46 15q28 0 46 -15t18 -46q0 -29 -18 -44.5t-46 -15.5q-29 0 -46 15.5
t-17 44.5zM186 15q-118 55 -118 228v457h58v-457q0 -209 181 -217q61 -2 103 23q77 46 77 182v469h21v-473q0 -233 -206 -235q-66 -1 -116 23z" />
    <glyph glyph-name="uni01DC" unicode="&#x1dc;" horiz-adv-x="657" 
d="M292 736q-34 23 -81.5 64.5t-72.5 70.5v10h162q40 -73 92 -132v-13h-100zM165 659q0 31 17 46t46 15q28 0 46 -15t18 -46q0 -29 -18 -44.5t-46 -15.5q-29 0 -46 15.5t-17 44.5zM362 659q0 31 17 46t46 15q28 0 46 -15t18 -46q0 -29 -18 -44.5t-46 -15.5q-29 0 -46 15.5
t-17 44.5zM355 85q-18 -22 -42 -40.5t-52.5 -31.5t-55.5 -15q-72 -7 -114 52q-20 28 -26 55.5t-6 69.5v274h58v-274q0 -76 25 -111q15 -21 38 -31q39 -16 87 7q50 23 88 77v332h58v-452h-58v88z" />
    <glyph glyph-name="uni01DD" unicode="&#x1dd;" horiz-adv-x="590" 
d="M287 96q43 0 72 27.5t33 87.5h-209q1 -55 28 -85t76 -30zM266 556q133 0 206.5 -73.5t73.5 -205.5q0 -137 -68 -212t-190 -75q-115 0 -180 65.5t-65 182.5v72h352q-2 63 -37.5 99t-98.5 36q-46 0 -90 -9.5t-95 -33.5v115q42 21 88.5 30t103.5 9z" />
    <glyph glyph-name="uni01DE" unicode="&#x1de;" horiz-adv-x="689" 
d="M180 1020h331v-93h-331v93zM183 824q0 31 17 46t46 15q28 0 46 -15t18 -46q0 -29 -18 -44.5t-46 -15.5q-29 0 -46 15.5t-17 44.5zM380 824q0 31 17 46t46 15q28 0 46 -15t18 -46q0 -29 -18 -44.5t-46 -15.5q-29 0 -46 15.5t-17 44.5zM431 261h-289l-105 -261h-23l2 6
q10 25 139 346q103 259 137 345l1 3h26l279 -703h-62l-1 3q-30 75 -104 261zM150 282h272q-113 284 -135 341h-1z" />
    <glyph glyph-name="uni01DF" unicode="&#x1df;" horiz-adv-x="604" 
d="M143 855h331v-93h-331v93zM146 659q0 31 17 46t46 15q28 0 46 -15t18 -46q0 -29 -18 -44.5t-46 -15.5q-29 0 -46 15.5t-17 44.5zM343 659q0 31 17 46t46 15q28 0 46 -15t18 -46q0 -29 -18 -44.5t-46 -15.5q-29 0 -46 15.5t-17 44.5zM368 56q-45 -50 -138 -58
q-48 -4 -93.5 9t-69.5 45q-19 26 -19 60q0 43 26 65.5t72 35.5q17 5 76 17q25 6 39 9.5t38 11t41 19t27 26.5q-5 57 -33.5 94t-65.5 45.5t-74 -0.5t-62 -43.5t-25 -84.5q0 -20 -15 -27t-29.5 1.5t-12.5 25.5q0 24 8 45q21 49 76 77q55 29 116 24q66 -4 111 -46
q52 -48 63 -133q1 -8 2 -28v-246h-58v56zM368 211q1 25 0 54q-29 -32 -120 -52q-72 -16 -93 -24q-49 -20 -49 -78q0 -50 33 -77q41 -31 100 -21t89 50q37 49 40 148z" />
    <glyph glyph-name="uni01E0" unicode="&#x1e0;" horiz-adv-x="689" 
d="M180 1020h331v-93h-331v93zM282 824q0 31 17 46t46 15q28 0 46 -15t18 -46q0 -29 -18 -44.5t-46 -15.5q-29 0 -46 15.5t-17 44.5zM431 261h-289l-105 -261h-23l2 6q10 25 139 346q103 259 137 345l1 3h26l279 -703h-62l-1 3q-30 75 -104 261zM150 282h272
q-113 284 -135 341h-1z" />
    <glyph glyph-name="uni01E1" unicode="&#x1e1;" horiz-adv-x="604" 
d="M143 855h331v-93h-331v93zM245 659q0 31 17 46t46 15q28 0 46 -15t18 -46q0 -29 -18 -44.5t-46 -15.5q-29 0 -46 15.5t-17 44.5zM368 56q-45 -50 -138 -58q-48 -4 -93.5 9t-69.5 45q-19 26 -19 60q0 43 26 65.5t72 35.5q17 5 76 17q25 6 39 9.5t38 11t41 19t27 26.5
q-5 57 -33.5 94t-65.5 45.5t-74 -0.5t-62 -43.5t-25 -84.5q0 -20 -15 -27t-29.5 1.5t-12.5 25.5q0 24 8 45q21 49 76 77q55 29 116 24q66 -4 111 -46q52 -48 63 -133q1 -8 2 -28v-246h-58v56zM368 211q1 25 0 54q-29 -32 -120 -52q-72 -16 -93 -24q-49 -20 -49 -78
q0 -50 33 -77q41 -31 100 -21t89 50q37 49 40 148z" />
    <glyph glyph-name="uni01E2" unicode="&#x1e2;" horiz-adv-x="952" 
d="M375 874h331v-103h-331v103zM591 676v-307h234v-21h-234v-329h309v-21h-368l-1 2l-104 260h-287l-104 -259h-23l2 6q13 31 138 343q102 257 137 344l1 3h25l217 -548v548h367v-21h-309zM148 281h271q-99 248 -135 339z" />
    <glyph glyph-name="uni01E3" unicode="&#x1e3;" horiz-adv-x="916" 
d="M293 709h331v-103h-331v103zM398 353q28 51 78 77q47 25 105 22q54 -2 97 -27q45 -25 58 -65q6 -15 6 -30q0 -25 -13 -43q-18 -26 -66 -42q-22 -7 -92 -22q-51 -11 -77 -20q-49 -18 -68 -46q6 -69 47 -108q37 -35 89 -34q18 0 35 5q42 12 64.5 46.5t22.5 79.5
q0 21 15 27.5t29.5 -2t13.5 -25.5q0 -24 -10 -47q-21 -46 -75 -74q-52 -27 -112 -24q-74 4 -121 52v-52h-58v56q-45 -50 -137 -58q-47 -4 -92.5 8.5t-69.5 45.5q-19 25 -19 59q0 42 25.5 65t71.5 36q18 4 75 16q35 8 54.5 13t48.5 19.5t42 33.5q-5 56 -33 93t-65.5 45.5
t-73.5 0t-61 -43.5t-25 -84q0 -20 -15 -27t-29.5 1.5t-12.5 25.5q0 23 8 45q19 44 65 70.5t98 29.5q38 3 72 -7.5t61 -33.5t44 -57zM366 264q-29 -31 -119 -51q-72 -16 -93 -25q-49 -20 -49 -77q0 -50 34 -76q40 -31 98.5 -21.5t88.5 49.5q37 49 40 147q1 25 0 54zM425 213
v-13.5v-15.5q31 32 113 52q74 18 83 21q41 14 55 34q8 13 8 30q0 37 -19.5 67.5t-53.5 43.5q-32 12 -64 5.5t-58 -28.5q-64 -59 -64 -196z" />
    <glyph glyph-name="uni01E4" unicode="&#x1e4;" horiz-adv-x="724" 
d="M361 421h283v-164h65v-97h-65v-129q-69 -22 -129.5 -31.5t-124.5 -9.5q-162 0 -247 95t-85 273q0 173 99 269.5t274 96.5q110 0 212 -44l-50 -121q-78 39 -163 39q-98 0 -157 -66t-59 -177q0 -249 191 -249q48 0 91 10v44h-125v97h125v48h-135v116z" />
    <glyph glyph-name="uni01E5" unicode="&#x1e5;" horiz-adv-x="632" 
d="M543 -91q-44 -149 -261 -149q-120 0 -204 32v114q101 -42 213 -42q35 0 61.5 11t36.5 34h-146v77h163v55l4 67h-4q-53 -81 -155 -81q-99 0 -152.5 68t-53.5 191q0 127 55.5 198.5t154.5 71.5q101 0 158 -80h4l12 70h126v-560h60v-77h-72zM304 139q61 0 86.5 30.5
t25.5 100.5v12q0 81 -27 117t-87 36q-52 0 -78.5 -36t-26.5 -113q0 -76 26 -111.5t81 -35.5z" />
    <glyph glyph-name="Gcaron" unicode="&#x1e6;" horiz-adv-x="724" 
d="M597 931v-13q-41 -41 -75.5 -82t-49.5 -65h-174q-14 23 -40.5 55t-84.5 92v13h99q72 -45 112 -86q41 42 114 86h99zM311 699q6 1 11 0q46 1 92.5 -14t81.5 -51t35 -84q0 -16 -16 -23.5t-31.5 -0.5t-15.5 27v0q2 57 -45 94.5t-104 35.5q-77 -3 -133 -77q-69 -91 -73 -256
q4 -167 73 -258q57 -74 134 -76q39 -1 68.5 10.5t47 30.5t28.5 47.5t15 58t4 66.5h-127v21h188v-14q0 -114 -54.5 -176.5t-167.5 -59.5h-11q-58 0 -106 24t-79.5 64.5t-50.5 90.5t-24 106q-3 26 -3 60q0 33 2 59q4 63 26 120q32 81 91.5 128t143.5 47z" />
    <glyph glyph-name="gcaron" unicode="&#x1e7;" horiz-adv-x="632" 
d="M498 766v-13q-41 -41 -75.5 -82t-49.5 -65h-174q-14 23 -40.5 55t-84.5 92v13h99q72 -45 112 -86q41 42 114 86h99zM343 427q26 18 56.5 24t61.5 -3q37 -12 48 -40q7 -21 -5 -33.5t-29 -8t-23 23.5q-6 17 -18 28q-17 16 -39.5 15.5t-38.5 -15.5l2 -2q58 -46 59 -129
q1 -75 -49 -115.5t-126 -41.5h-4h-4h-4h-4q-65 1 -110 29l-2 -2q-32 -27 -29 -48q4 -22 54 -29q76 -5 122 -6q72 -1 116 -35q41 -32 47 -81q7 -60 -40 -107q-51 -50 -141 -51q-29 0 -59 6.5t-57.5 20t-47.5 36.5t-26 53q-5 19 -2 44.5t13 43.5v0q11 18 29.5 17.5t25 -14.5
t-4.5 -35q-18 -26 -12 -59q7 -44 51 -72t91 -28q61 1 101 49q37 45 25 90q-16 58 -106 62q-22 1 -65 1q-38 0 -52 1q-58 2 -78 46q-12 28 -1 61q10 26 33 46q-52 43 -51 118q1 83 59 129q50 39 121 39h4h3q60 0 106 -28zM110 283q0 -64 31 -101t93 -39q62 2 93 39t31 101
q0 102 -58 140q-28 19 -66 20q-39 -1 -67 -20q-57 -38 -57 -140z" />
    <glyph glyph-name="uni01E8" unicode="&#x1e8;" horiz-adv-x="664" 
d="M560 931v-13q-41 -41 -75.5 -82t-49.5 -65h-174q-14 23 -40.5 55t-84.5 92v13h99q72 -45 112 -86q41 42 114 86h99zM75 325v4v371h58v-326l335 326h31l-326 -316l9 -10l336 -377h-76l-309 344v-344h-58v328z" />
    <glyph glyph-name="uni01E9" unicode="&#x1e9;" horiz-adv-x="620" 
d="M549 951v-13q-41 -41 -75.5 -82t-49.5 -65h-174q-14 23 -40.5 55t-84.5 92v13h99q72 -45 112 -86q41 42 114 86h99zM65 325v4v371h58v-457l1 1l215 209h31l-203 -197l237 -259h-82l-199 221v-221h-58v328z" />
    <glyph glyph-name="uni01EA" unicode="&#x1ea;" horiz-adv-x="795" 
d="M405 -111q0 -21 11 -30.5t28 -9.5q27 0 56 9v-87q-40 -11 -76 -11q-55 0 -88.5 31t-33.5 81q0 33 18.5 61.5t69.5 66.5h87q-34 -32 -53 -59t-19 -52zM51 285q-3 26 -3 60q0 33 2 59q4 63 26 120q32 81 91.5 128t143.5 47q9 1 18 0q101 -1 169 -70q14 -15 26 -32t21.5 -35
t17.5 -37.5t13 -39.5t8.5 -40.5t5.5 -40.5q2 -26 1 -59q0 -35 -2 -60q-5 -56 -24 -106t-50.5 -90.5t-79.5 -64.5t-106 -24h-18q-58 0 -106 24t-79.5 64.5t-50.5 90.5t-24 106zM186 92q57 -74 134 -76q77 2 133 76q70 91 74 258q-4 165 -73 256q-56 74 -133 77h-1h-1
q-77 -3 -133 -77q-69 -91 -73 -256q4 -167 73 -258z" />
    <glyph glyph-name="uni01EB" unicode="&#x1eb;" horiz-adv-x="619" 
d="M306 -111q0 -21 11 -30.5t28 -9.5q27 0 56 9v-87q-40 -11 -76 -11q-55 0 -88.5 31t-33.5 81q0 33 18.5 61.5t69.5 66.5h87q-34 -32 -53 -59t-19 -52zM49 175q-8 77 8 137q13 52 47 87t85 47q23 7 48 6h2.5h1.5h6q22 1 42 -5q55 -12 90.5 -49t48.5 -93q15 -62 5 -136
q-4 -32 -15.5 -59t-29 -49t-43 -37t-56.5 -22q-20 -5 -42 -5h-6h-1h-3q-25 0 -48 6q-61 15 -96.5 61t-43.5 111zM149 387q-41 -57 -44 -162q3 -106 44 -162q34 -48 86 -52h8h5q53 4 87 52q40 56 43 162q-3 105 -43 162q-34 47 -87 51q-3 1 -5 1q-3 0 -8 -1q-52 -4 -86 -51z
" />
    <glyph glyph-name="uni01EC" unicode="&#x1ec;" horiz-adv-x="795" 
d="M405 -111q0 -21 11 -30.5t28 -9.5q27 0 56 9v-87q-40 -11 -76 -11q-55 0 -88.5 31t-33.5 81q0 33 18.5 61.5t69.5 66.5h87q-34 -32 -53 -59t-19 -52zM233 887h331v-103h-331v103zM51 285q-3 26 -3 60q0 33 2 59q4 63 26 120q32 81 91.5 128t143.5 47q9 1 18 0
q101 -1 169 -70q14 -15 26 -32t21.5 -35t17.5 -37.5t13 -39.5t8.5 -40.5t5.5 -40.5q2 -26 1 -59q0 -35 -2 -60q-5 -56 -24 -106t-50.5 -90.5t-79.5 -64.5t-106 -24h-18q-58 0 -106 24t-79.5 64.5t-50.5 90.5t-24 106zM186 92q57 -74 134 -76q77 2 133 76q70 91 74 258
q-4 165 -73 256q-56 74 -133 77h-1h-1q-77 -3 -133 -77q-69 -91 -73 -256q4 -167 73 -258z" />
    <glyph glyph-name="uni01ED" unicode="&#x1ed;" horiz-adv-x="619" 
d="M306 -111q0 -21 11 -30.5t28 -9.5q27 0 56 9v-87q-40 -11 -76 -11q-55 0 -88.5 31t-33.5 81q0 33 18.5 61.5t69.5 66.5h87q-34 -32 -53 -59t-19 -52zM144 709h331v-103h-331v103zM49 175q-8 77 8 137q13 52 47 87t85 47q23 7 48 6h2.5h1.5h6q22 1 42 -5q55 -12 90.5 -49
t48.5 -93q15 -62 5 -136q-4 -32 -15.5 -59t-29 -49t-43 -37t-56.5 -22q-20 -5 -42 -5h-6h-1h-3q-25 0 -48 6q-61 15 -96.5 61t-43.5 111zM149 387q-41 -57 -44 -162q3 -106 44 -162q34 -48 86 -52h8h5q53 4 87 52q40 56 43 162q-3 105 -43 162q-34 47 -87 51q-3 1 -5 1
q-3 0 -8 -1q-52 -4 -86 -51z" />
    <glyph glyph-name="uni01EE" unicode="&#x1ee;" horiz-adv-x="590" 
d="M138 419l176 170h-262v125h468v-97l-211 -201q118 -5 180.5 -58.5t62.5 -149.5q0 -102 -79.5 -160t-224.5 -58q-126 0 -220 39v128q45 -21 102.5 -34t108.5 -13q82 0 122 25.5t40 81.5q0 50 -51 73t-152 23h-60v106zM494 930v-13q-41 -41 -75.5 -82t-49.5 -65h-174
q-14 23 -40.5 55t-84.5 92v13h99q72 -45 112 -86q41 42 114 86h99z" />
    <glyph glyph-name="uni01EF" unicode="&#x1ef;" horiz-adv-x="581" 
d="M138 245l198 187h-288v114h472v-97l-216 -202q116 -13 177 -75t61 -171q0 -74 -35 -128.5t-102 -83.5t-161 -29q-123 0 -216 39v128q45 -22 100.5 -34.5t104.5 -12.5q77 0 117.5 33t40.5 95q0 67 -49.5 99t-145.5 32h-58v106zM491 766v-13q-41 -41 -75.5 -82t-49.5 -65
h-174q-14 23 -40.5 55t-84.5 92v13h99q72 -45 112 -86q41 42 114 86h99z" />
    <glyph glyph-name="uni01F0" unicode="&#x1f0;" horiz-adv-x="305" 
d="M366 766v-13q-41 -41 -75.5 -82t-49.5 -65h-174q-14 23 -40.5 55t-84.5 92v13h99q72 -45 112 -86q41 42 114 86h99zM34 -240q-57 0 -98 12v117q34 -9 70 -9q38 0 55 21t17 62v583h149v-605q0 -87 -50.5 -134t-142.5 -47z" />
    <glyph glyph-name="uni01F1" unicode="&#x1f1;" horiz-adv-x="1309" 
d="M128 -3h-53v703h53q84 0 135 -4q57 -4 106 -23.5t89.5 -54.5t68.5 -84q43 -75 48 -166q7 -121 -53 -218q-40 -65 -103 -102.5t-141 -45.5q-56 -5 -150 -5zM133 18q87 0 143 9q78 11 132.5 63.5t77.5 122t21 147.5q-3 76 -29.5 141.5t-82 113.5t-130.5 57q-52 7 -132 7
v-661zM1230 700l-405 -682h389v-21h-4h-457h-8l405 682h-387v21h5h454h8z" />
    <glyph glyph-name="uni01F2" unicode="&#x1f2;" horiz-adv-x="1228" 
d="M128 -3h-53v703h53q84 0 135 -4q57 -4 106 -23.5t89.5 -54.5t68.5 -84q43 -75 48 -166q7 -121 -53 -218q-40 -65 -103 -102.5t-141 -45.5q-56 -5 -150 -5zM133 18q87 0 143 9q78 11 132.5 63.5t77.5 122t21 147.5q-3 76 -29.5 141.5t-82 113.5t-130.5 57q-52 7 -132 7
v-661zM769 454l269 1h62l-4 -7q-44 -74 -130 -217.5t-128 -212.5h256v-21h-4h-319h-8l4 7q44 72 130 215.5t128 214.5h-256v20z" />
    <glyph glyph-name="uni01F3" unicode="&#x1f3;" horiz-adv-x="1121" 
d="M364 422v278h58v-371v-4v-174v-4v-147h-58v39q-41 -29 -94.5 -37t-100.5 9q-64 23 -94.5 79t-29.5 129q1 77 31 136.5t95 85.5q45 18 98.5 13t94.5 -32zM364 146v1v180v1q-1 36 -24 65q-25 32 -64.5 43.5t-77.5 -3.5q-42 -19 -67 -69q-28 -58 -28 -150q0 -109 50 -163
q43 -46 104 -36q46 7 76 42t31 82v7zM662 454l269 1h62l-4 -7q-44 -74 -130 -217.5t-128 -212.5h256v-21h-4h-319h-8l4 7q44 72 130 215.5t128 214.5h-256v20z" />
    <glyph glyph-name="uni01F4" unicode="&#x1f4;" horiz-adv-x="724" 
d="M311 699q6 1 11 0q46 1 92.5 -14t81.5 -51t35 -84q0 -16 -16 -23.5t-31.5 -0.5t-15.5 27v0q2 57 -45 94.5t-104 35.5q-77 -3 -133 -77q-69 -91 -73 -256q4 -167 73 -258q57 -74 134 -76q39 -1 68.5 10.5t47 30.5t28.5 47.5t15 58t4 66.5h-127v21h188v-14
q0 -114 -54.5 -176.5t-167.5 -59.5h-11q-58 0 -106 24t-79.5 64.5t-50.5 90.5t-24 106q-3 26 -3 60q0 33 2 59q4 63 26 120q32 81 91.5 128t143.5 47zM312 771v13q84 98 115 147h167v-10q-25 -25 -86.5 -75.5t-96.5 -74.5h-99z" />
    <glyph glyph-name="uni01F5" unicode="&#x1f5;" horiz-adv-x="632" 
d="M343 427q26 18 56.5 24t61.5 -3q37 -12 48 -40q7 -21 -5 -33.5t-29 -8t-23 23.5q-6 17 -18 28q-17 16 -39.5 15.5t-38.5 -15.5l2 -2q58 -46 59 -129q1 -75 -49 -115.5t-126 -41.5h-4h-4h-4h-4q-65 1 -110 29l-2 -2q-32 -27 -29 -48q4 -22 54 -29q76 -5 122 -6
q72 -1 116 -35q41 -32 47 -81q7 -60 -40 -107q-51 -50 -141 -51q-29 0 -59 6.5t-57.5 20t-47.5 36.5t-26 53q-5 19 -2 44.5t13 43.5v0q11 18 29.5 17.5t25 -14.5t-4.5 -35q-18 -26 -12 -59q7 -44 51 -72t91 -28q61 1 101 49q37 45 25 90q-16 58 -106 62q-22 1 -65 1
q-38 0 -52 1q-58 2 -78 46q-12 28 -1 61q10 26 33 46q-52 43 -51 118q1 83 59 129q50 39 121 39h4h3q60 0 106 -28zM110 283q0 -64 31 -101t93 -39q62 2 93 39t31 101q0 102 -58 140q-28 19 -66 20q-39 -1 -67 -20q-57 -38 -57 -140zM191 606v13q84 98 115 147h167v-10
q-25 -25 -86.5 -75.5t-96.5 -74.5h-99z" />
    <glyph glyph-name="uni01F6" unicode="&#x1f6;" horiz-adv-x="1047" 
d="M627 234q0 -64 21 -93t71 -29t71.5 30.5t21.5 102.5v301h151v-303q0 -253 -244 -253q-126 0 -184.5 55.5t-58.5 174.5v88h-235v-308h-151v714h151v-280h235v280h151v-480z" />
    <glyph glyph-name="uni01F7" unicode="&#x1f7;" horiz-adv-x="675" 
d="M241 -240h-151v954h115l24 -92h4q32 48 82.5 75.5t103.5 27.5q95 0 151 -70t56 -193q0 -103 -45 -193.5t-132 -158.5t-208 -106v-244zM375 599q-62 0 -98 -55t-36 -153v-246q104 42 168 129.5t64 186.5q0 67 -25.5 102.5t-72.5 35.5z" />
    <glyph glyph-name="uni01F8" unicode="&#x1f8;" horiz-adv-x="812" 
d="M96 700v-5l239 -379l130 -208v592h21v-703h-19l-371 590v-590h-21v703h21zM146 854l130 -161l-173 116q-21 14 -9.5 38t34.5 17q9 -2 18 -10z" />
    <glyph glyph-name="uni01F9" unicode="&#x1f9;" horiz-adv-x="657" 
d="M123 362q29 33 70 58t80 29q72 7 114 -53q21 -28 26.5 -55t5.5 -70v-274h-58v274q0 76 -25 111q-15 22 -38 31q-39 16 -87 -7q-50 -23 -88 -77v-332h-58v449h58v-84zM68 689l130 -161l-173 116q-21 14 -9.5 38t34.5 17q9 -2 18 -10z" />
    <glyph glyph-name="Aringacute" unicode="&#x1fa;" horiz-adv-x="689" 
d="M468 714q0 -42 -23 -72l245 -642h-162l-52 161h-261l-53 -161h-162l244 642q-21 28 -21 71q0 54 33.5 85t87.5 31q53 0 88.5 -31.5t35.5 -83.5zM444 288l-50 141q-42 112 -49 146q-9 -35 -42 -130l-55 -157h196zM285 856v8q22 21 48 50t37 44h167v-6q-11 -13 -55.5 -41
t-97.5 -55h-99zM391 713q0 22 -13 34.5t-34 12.5t-34 -12.5t-13 -34.5q0 -45 42 -47h9q19 1 31 13.5t12 33.5z" />
    <glyph glyph-name="aringacute" unicode="&#x1fb;" horiz-adv-x="604" 
d="M230 856v8q22 21 48 50t37 44h167v-6q-10 -12 -50 -37.5t-103 -58.5h-99zM425 0l-29 74h-4q-38 -47 -77.5 -65.5t-103.5 -18.5q-79 0 -124 45t-45 128q0 87 61 128.5t183 45.5l95 3v24q0 83 -85 83q-65 0 -154 -40l-49 101q94 49 209 49q110 0 168.5 -48t58.5 -145v-364
h-104zM381 253l-58 -2q-65 -2 -96.5 -23.5t-31.5 -65.5q0 -63 72 -63q52 0 83 30t31 79v45zM430 702q0 -53 -34.5 -85t-89.5 -32t-88 31t-33 85q0 53 33 84.5t88 31.5q54 0 89 -32.5t35 -82.5zM353 701q0 22 -13 34.5t-34 12.5t-34 -12.5t-13 -34.5t12 -34.5t35 -12.5
q21 0 34 12.5t13 34.5z" />
    <glyph glyph-name="AEacute" unicode="&#x1fc;" horiz-adv-x="952" 
d="M591 676v-307h234v-21h-234v-329h309v-21h-368l-1 2l-104 260h-287l-104 -259h-23l2 6q13 31 138 343q102 257 137 344l1 3h25l217 -548v548h367v-21h-309zM148 281h271q-99 248 -135 339zM490 771v13q84 98 115 147h167v-10q-25 -25 -86.5 -75.5t-96.5 -74.5h-99z" />
    <glyph glyph-name="aeacute" unicode="&#x1fd;" horiz-adv-x="916" 
d="M398 353q28 51 78 77q47 25 105 22q54 -2 97 -27q45 -25 58 -65q6 -15 6 -30q0 -25 -13 -43q-18 -26 -66 -42q-22 -7 -92 -22q-51 -11 -77 -20q-49 -18 -68 -46q6 -69 47 -108q37 -35 89 -34q18 0 35 5q42 12 64.5 46.5t22.5 79.5q0 21 15 27.5t29.5 -2t13.5 -25.5
q0 -24 -10 -47q-21 -46 -75 -74q-52 -27 -112 -24q-74 4 -121 52v-52h-58v56q-45 -50 -137 -58q-47 -4 -92.5 8.5t-69.5 45.5q-19 25 -19 59q0 42 25.5 65t71.5 36q18 4 75 16q35 8 54.5 13t48.5 19.5t42 33.5q-5 56 -33 93t-65.5 45.5t-73.5 0t-61 -43.5t-25 -84
q0 -20 -15 -27t-29.5 1.5t-12.5 25.5q0 23 8 45q19 44 65 70.5t98 29.5q38 3 72 -7.5t61 -33.5t44 -57zM366 264q-29 -31 -119 -51q-72 -16 -93 -25q-49 -20 -49 -77q0 -50 34 -76q40 -31 98.5 -21.5t88.5 49.5q37 49 40 147q1 25 0 54zM425 213v-13.5v-15.5q31 32 113 52
q74 18 83 21q41 14 55 34q8 13 8 30q0 37 -19.5 67.5t-53.5 43.5q-32 12 -64 5.5t-58 -28.5q-64 -59 -64 -196zM389 606v13q84 98 115 147h167v-10q-25 -25 -86.5 -75.5t-96.5 -74.5h-99z" />
    <glyph glyph-name="Oslashacute" unicode="&#x1fe;" horiz-adv-x="795" 
d="M403 684l27 79l55 -19l-30 -85q59 -39 92.5 -109t39.5 -148q1 -25 1 -58q0 -35 -2 -60q-4 -44 -16.5 -85t-34.5 -77t-51.5 -63t-69.5 -42.5t-87 -16.5h-18q-40 1 -76 13l-27 -79l-54 18l29 86q-57 37 -90.5 104t-39.5 142q-3 25 -3 60q0 33 2 58q4 63 26 120
q31 80 90.5 126.5t142.5 47.5h18q41 0 76 -12zM196 80l198 576q-37 22 -75 24h-1h-1q-76 -3 -132 -77q-69 -90 -73 -255q5 -178 84 -268zM524 348q-4 179 -83 268l-198 -576q36 -22 75 -23q77 2 133 75q69 91 73 256zM311 771v13q84 98 115 147h167v-10q-25 -25 -86.5 -75.5
t-96.5 -74.5h-99z" />
    <glyph glyph-name="oslashacute" unicode="&#x1ff;" horiz-adv-x="619" 
d="M281 447l18 52l38 -13l-17 -50q83 -35 106 -132q15 -62 5 -135q-9 -65 -45.5 -109t-97.5 -58q-20 -5 -42 -4h-6h-2h-2q-25 -1 -47 6q-9 2 -16 4l-14 -40l-38 13l15 44q-74 46 -87 150q-8 76 7 136q14 51 48 86t84 47q23 7 48 6h2h2h6q18 0 35 -3zM276 430q-14 5 -29 7h-5
h-8q-52 -4 -86 -52q-40 -56 -43 -161q3 -106 44 -162zM311 410l-131 -379q12 -9 26 -14t28 -6h8h5q52 4 86 52q41 56 43 161q-3 133 -65 186zM222 606v13q84 98 115 147h167v-10q-25 -25 -86.5 -75.5t-96.5 -74.5h-99z" />
    <glyph glyph-name="uni0200" unicode="&#x200;" horiz-adv-x="689" 
d="M420 771q-30 24 -83.5 73.5t-69.5 76.5v10h147q16 -35 40.5 -77.5t44.5 -69.5v-13h-79zM226 771q-36 28 -87 76.5t-66 73.5v10h147q16 -35 40.5 -77.5t44.5 -69.5v-13h-79zM431 261h-289l-105 -261h-23l2 6q10 25 139 346q103 259 137 345l1 3h26l279 -703h-62l-1 3
q-30 75 -104 261zM150 282h272q-113 284 -135 341h-1z" />
    <glyph glyph-name="uni0201" unicode="&#x201;" horiz-adv-x="604" 
d="M391 606q-30 24 -83.5 73.5t-69.5 76.5v10h147q16 -35 40.5 -77.5t44.5 -69.5v-13h-79zM197 606q-36 28 -87 76.5t-66 73.5v10h147q16 -35 40.5 -77.5t44.5 -69.5v-13h-79zM368 56q-45 -50 -138 -58q-48 -4 -93.5 9t-69.5 45q-19 26 -19 60q0 43 26 65.5t72 35.5
q17 5 76 17q25 6 39 9.5t38 11t41 19t27 26.5q-5 57 -33.5 94t-65.5 45.5t-74 -0.5t-62 -43.5t-25 -84.5q0 -20 -15 -27t-29.5 1.5t-12.5 25.5q0 24 8 45q21 49 76 77q55 29 116 24q66 -4 111 -46q52 -48 63 -133q1 -8 2 -28v-246h-58v56zM368 211q1 25 0 54
q-29 -32 -120 -52q-72 -16 -93 -24q-49 -20 -49 -78q0 -50 33 -77q41 -31 100 -21t89 50q37 49 40 148z" />
    <glyph glyph-name="uni0202" unicode="&#x202;" horiz-adv-x="689" 
d="M153 771q5 74 58.5 119.5t135.5 45.5q84 0 135 -43.5t55 -121.5h-83q-2 23 -13.5 36t-31.5 19t-63 6q-102 0 -108 -61h-85zM431 261h-289l-105 -261h-23l2 6q10 25 139 346q103 259 137 345l1 3h26l279 -703h-62l-1 3q-30 75 -104 261zM150 282h272q-113 284 -135 341h-1
z" />
    <glyph glyph-name="uni0203" unicode="&#x203;" horiz-adv-x="604" 
d="M113 606q5 74 58.5 119.5t135.5 45.5q84 0 135 -43.5t55 -121.5h-83q-2 23 -13.5 36t-31.5 19t-63 6q-102 0 -108 -61h-85zM368 56q-45 -50 -138 -58q-48 -4 -93.5 9t-69.5 45q-19 26 -19 60q0 43 26 65.5t72 35.5q17 5 76 17q25 6 39 9.5t38 11t41 19t27 26.5
q-5 57 -33.5 94t-65.5 45.5t-74 -0.5t-62 -43.5t-25 -84.5q0 -20 -15 -27t-29.5 1.5t-12.5 25.5q0 24 8 45q21 49 76 77q55 29 116 24q66 -4 111 -46q52 -48 63 -133q1 -8 2 -28v-246h-58v56zM368 211q1 25 0 54q-29 -32 -120 -52q-72 -16 -93 -24q-49 -20 -49 -78
q0 -50 33 -77q41 -31 100 -21t89 50q37 49 40 148z" />
    <glyph glyph-name="uni0204" unicode="&#x204;" horiz-adv-x="560" 
d="M386 771q-30 24 -83.5 73.5t-69.5 76.5v10h147q16 -35 40.5 -77.5t44.5 -69.5v-13h-79zM192 771q-36 28 -87 76.5t-66 73.5v10h147q16 -35 40.5 -77.5t44.5 -69.5v-13h-79zM444 679h-311v-309h235v-21h-235v-331h311v-21h-369v703h369v-21z" />
    <glyph glyph-name="uni0205" unicode="&#x205;" horiz-adv-x="590" 
d="M398 606q-30 24 -83.5 73.5t-69.5 76.5v10h147q16 -35 40.5 -77.5t44.5 -69.5v-13h-79zM204 606q-36 28 -87 76.5t-66 73.5v10h147q16 -35 40.5 -77.5t44.5 -69.5v-13h-79zM422 146q-1 -72 -74 -116q-75 -44 -158 -25q-97 21 -131 117q-14 43 -14 97q1 105 53 167
q44 54 117 66q65 10 124 -16q61 -26 77 -74q6 -15 6 -31q0 -24 -13 -43q-18 -26 -66 -42q-23 -8 -93 -22q-51 -11 -78 -21q-48 -17 -68 -46q6 -69 48 -108q37 -35 88 -35q19 0 36 5q42 13 65 47.5t23 79.5q0 21 15 28t29.5 -2t13.5 -26zM103 214v-14.5v-14.5q31 31 113 52
q75 18 85 21q41 14 54 34q9 13 9 30q0 38 -20 68t-54 44q-32 12 -64.5 5.5t-57.5 -29.5q-65 -59 -65 -196z" />
    <glyph glyph-name="uni0206" unicode="&#x206;" horiz-adv-x="560" 
d="M103 771q5 74 58.5 119.5t135.5 45.5q84 0 135 -43.5t55 -121.5h-83q-2 23 -13.5 36t-31.5 19t-63 6q-102 0 -108 -61h-85zM444 679h-311v-309h235v-21h-235v-331h311v-21h-369v703h369v-21z" />
    <glyph glyph-name="uni0207" unicode="&#x207;" horiz-adv-x="590" 
d="M111 606q5 74 58.5 119.5t135.5 45.5q84 0 135 -43.5t55 -121.5h-83q-2 23 -13.5 36t-31.5 19t-63 6q-102 0 -108 -61h-85zM422 146q-1 -72 -74 -116q-75 -44 -158 -25q-97 21 -131 117q-14 43 -14 97q1 105 53 167q44 54 117 66q65 10 124 -16q61 -26 77 -74
q6 -15 6 -31q0 -24 -13 -43q-18 -26 -66 -42q-23 -8 -93 -22q-51 -11 -78 -21q-48 -17 -68 -46q6 -69 48 -108q37 -35 88 -35q19 0 36 5q42 13 65 47.5t23 79.5q0 21 15 28t29.5 -2t13.5 -26zM103 214v-14.5v-14.5q31 31 113 52q75 18 85 21q41 14 54 34q9 13 9 30
q0 38 -20 68t-54 44q-32 12 -64.5 5.5t-57.5 -29.5q-65 -59 -65 -196z" />
    <glyph glyph-name="uni0208" unicode="&#x208;" horiz-adv-x="389" 
d="M278 771q-30 24 -83.5 73.5t-69.5 76.5v10h147q16 -35 40.5 -77.5t44.5 -69.5v-13h-79zM84 771q-36 28 -87 76.5t-66 73.5v10h147q16 -35 40.5 -77.5t44.5 -69.5v-13h-79zM133 -3h-58v703h58v-703z" />
    <glyph glyph-name="uni0209" unicode="&#x209;" horiz-adv-x="305" 
d="M228 606q-30 24 -83.5 73.5t-69.5 76.5v10h147q16 -35 40.5 -77.5t44.5 -69.5v-13h-79zM34 606q-36 28 -87 76.5t-66 73.5v10h147q16 -35 40.5 -77.5t44.5 -69.5v-13h-79zM98 136h-53v322h53v-322z" />
    <glyph glyph-name="uni020A" unicode="&#x20a;" horiz-adv-x="389" 
d="M2 771q5 74 58.5 119.5t135.5 45.5q84 0 135 -43.5t55 -121.5h-83q-2 23 -13.5 36t-31.5 19t-63 6q-102 0 -108 -61h-85zM133 -3h-58v703h58v-703z" />
    <glyph glyph-name="uni020B" unicode="&#x20b;" horiz-adv-x="305" 
d="M-40 606q5 74 58.5 119.5t135.5 45.5q84 0 135 -43.5t55 -121.5h-83q-2 23 -13.5 36t-31.5 19t-63 6q-102 0 -108 -61h-85zM98 136h-53v322h53v-322z" />
    <glyph glyph-name="uni020C" unicode="&#x20c;" horiz-adv-x="795" 
d="M480 771q-30 24 -83.5 73.5t-69.5 76.5v10h147q16 -35 40.5 -77.5t44.5 -69.5v-13h-79zM286 771q-36 28 -87 76.5t-66 73.5v10h147q16 -35 40.5 -77.5t44.5 -69.5v-13h-79zM51 285q-3 26 -3 60q0 33 2 59q4 63 26 120q32 81 91.5 128t143.5 47q9 1 18 0q101 -1 169 -70
q14 -15 26 -32t21.5 -35t17.5 -37.5t13 -39.5t8.5 -40.5t5.5 -40.5q2 -26 1 -59q0 -35 -2 -60q-5 -56 -24 -106t-50.5 -90.5t-79.5 -64.5t-106 -24h-18q-58 0 -106 24t-79.5 64.5t-50.5 90.5t-24 106zM186 92q57 -74 134 -76q77 2 133 76q70 91 74 258q-4 165 -73 256
q-56 74 -133 77h-1h-1q-77 -3 -133 -77q-69 -91 -73 -256q4 -167 73 -258z" />
    <glyph glyph-name="uni020D" unicode="&#x20d;" horiz-adv-x="619" 
d="M398 606q-30 24 -83.5 73.5t-69.5 76.5v10h147q16 -35 40.5 -77.5t44.5 -69.5v-13h-79zM204 606q-36 28 -87 76.5t-66 73.5v10h147q16 -35 40.5 -77.5t44.5 -69.5v-13h-79zM49 175q-8 77 8 137q13 52 47 87t85 47q23 7 48 6h2.5h1.5h6q22 1 42 -5q55 -12 90.5 -49
t48.5 -93q15 -62 5 -136q-4 -32 -15.5 -59t-29 -49t-43 -37t-56.5 -22q-20 -5 -42 -5h-6h-1h-3q-25 0 -48 6q-61 15 -96.5 61t-43.5 111zM149 387q-41 -57 -44 -162q3 -106 44 -162q34 -48 86 -52h8h5q53 4 87 52q40 56 43 162q-3 105 -43 162q-34 47 -87 51q-3 1 -5 1
q-3 0 -8 -1q-52 -4 -86 -51z" />
    <glyph glyph-name="uni020E" unicode="&#x20e;" horiz-adv-x="795" 
d="M206 771q5 74 58.5 119.5t135.5 45.5q84 0 135 -43.5t55 -121.5h-83q-2 23 -13.5 36t-31.5 19t-63 6q-102 0 -108 -61h-85zM51 285q-3 26 -3 60q0 33 2 59q4 63 26 120q32 81 91.5 128t143.5 47q9 1 18 0q101 -1 169 -70q14 -15 26 -32t21.5 -35t17.5 -37.5t13 -39.5
t8.5 -40.5t5.5 -40.5q2 -26 1 -59q0 -35 -2 -60q-5 -56 -24 -106t-50.5 -90.5t-79.5 -64.5t-106 -24h-18q-58 0 -106 24t-79.5 64.5t-50.5 90.5t-24 106zM186 92q57 -74 134 -76q77 2 133 76q70 91 74 258q-4 165 -73 256q-56 74 -133 77h-1h-1q-77 -3 -133 -77
q-69 -91 -73 -256q4 -167 73 -258z" />
    <glyph glyph-name="uni020F" unicode="&#x20f;" horiz-adv-x="619" 
d="M117 606q5 74 58.5 119.5t135.5 45.5q84 0 135 -43.5t55 -121.5h-83q-2 23 -13.5 36t-31.5 19t-63 6q-102 0 -108 -61h-85zM49 175q-8 77 8 137q13 52 47 87t85 47q23 7 48 6h2.5h1.5h6q22 1 42 -5q55 -12 90.5 -49t48.5 -93q15 -62 5 -136q-4 -32 -15.5 -59t-29 -49
t-43 -37t-56.5 -22q-20 -5 -42 -5h-6h-1h-3q-25 0 -48 6q-61 15 -96.5 61t-43.5 111zM149 387q-41 -57 -44 -162q3 -106 44 -162q34 -48 86 -52h8h5q53 4 87 52q40 56 43 162q-3 105 -43 162q-34 47 -87 51q-3 1 -5 1q-3 0 -8 -1q-52 -4 -86 -51z" />
    <glyph glyph-name="uni0210" unicode="&#x210;" horiz-adv-x="660" 
d="M402 771q-30 24 -83.5 73.5t-69.5 76.5v10h147q16 -35 40.5 -77.5t44.5 -69.5v-13h-79zM208 771q-36 28 -87 76.5t-66 73.5v10h147q16 -35 40.5 -77.5t44.5 -69.5v-13h-79zM355 346q50 -11 83 -51.5t33 -92.5v-205h-58v217q0 47 -33 80t-80 33h-75h-20h-72v-330h-53h-5
v698v5h193h19q63 -3 111 -35t68 -90q9 -28 9 -58q0 -131 -120 -171zM133 680v-331h51h53h7h6q81 0 124 43.5t43 123.5q0 45 -19 82q-43 83 -154 82h-111z" />
    <glyph glyph-name="uni0211" unicode="&#x211;" horiz-adv-x="454" 
d="M346 606q-30 24 -83.5 73.5t-69.5 76.5v10h147q16 -35 40.5 -77.5t44.5 -69.5v-13h-79zM152 606q-36 28 -87 76.5t-66 73.5v10h147q16 -35 40.5 -77.5t44.5 -69.5v-13h-79zM123 441q27 21 59 28t64 -2q37 -13 48 -40v-1q4 -12 1.5 -22t-11 -14.5t-17 -5t-17 6t-12.5 18.5
q-6 17 -18 28q-24 23 -56.5 12t-39.5 -44q-1 -5 -1 -12v-396h-58v449h58v-5z" />
    <glyph glyph-name="uni0212" unicode="&#x212;" horiz-adv-x="660" 
d="M129 771q5 74 58.5 119.5t135.5 45.5q84 0 135 -43.5t55 -121.5h-83q-2 23 -13.5 36t-31.5 19t-63 6q-102 0 -108 -61h-85zM355 346q50 -11 83 -51.5t33 -92.5v-205h-58v217q0 47 -33 80t-80 33h-75h-20h-72v-330h-53h-5v698v5h193h19q63 -3 111 -35t68 -90q9 -28 9 -58
q0 -131 -120 -171zM133 680v-331h51h53h7h6q81 0 124 43.5t43 123.5q0 45 -19 82q-43 83 -154 82h-111z" />
    <glyph glyph-name="uni0213" unicode="&#x213;" horiz-adv-x="454" 
d="M64 606q5 74 58.5 119.5t135.5 45.5q84 0 135 -43.5t55 -121.5h-83q-2 23 -13.5 36t-31.5 19t-63 6q-102 0 -108 -61h-85zM123 441q27 21 59 28t64 -2q37 -13 48 -40v-1q4 -12 1.5 -22t-11 -14.5t-17 -5t-17 6t-12.5 18.5q-6 17 -18 28q-24 23 -56.5 12t-39.5 -44
q-1 -5 -1 -12v-396h-58v449h58v-5z" />
    <glyph glyph-name="uni0214" unicode="&#x214;" horiz-adv-x="755" 
d="M474 771q-30 24 -83.5 73.5t-69.5 76.5v10h147q16 -35 40.5 -77.5t44.5 -69.5v-13h-79zM280 771q-36 28 -87 76.5t-66 73.5v10h147q16 -35 40.5 -77.5t44.5 -69.5v-13h-79zM186 15q-118 55 -118 228v457h58v-457q0 -209 181 -217q61 -2 103 23q77 46 77 182v469h21v-473
q0 -233 -206 -235q-66 -1 -116 23z" />
    <glyph glyph-name="uni0215" unicode="&#x215;" horiz-adv-x="657" 
d="M413 606q-30 24 -83.5 73.5t-69.5 76.5v10h147q16 -35 40.5 -77.5t44.5 -69.5v-13h-79zM219 606q-36 28 -87 76.5t-66 73.5v10h147q16 -35 40.5 -77.5t44.5 -69.5v-13h-79zM355 85q-18 -22 -42 -40.5t-52.5 -31.5t-55.5 -15q-72 -7 -114 52q-20 28 -26 55.5t-6 69.5v274
h58v-274q0 -76 25 -111q15 -21 38 -31q39 -16 87 7q50 23 88 77v332h58v-452h-58v88z" />
    <glyph glyph-name="uni0216" unicode="&#x216;" horiz-adv-x="755" 
d="M186 771q5 74 58.5 119.5t135.5 45.5q84 0 135 -43.5t55 -121.5h-83q-2 23 -13.5 36t-31.5 19t-63 6q-102 0 -108 -61h-85zM186 15q-118 55 -118 228v457h58v-457q0 -209 181 -217q61 -2 103 23q77 46 77 182v469h21v-473q0 -233 -206 -235q-66 -1 -116 23z" />
    <glyph glyph-name="uni0217" unicode="&#x217;" horiz-adv-x="657" 
d="M136 606q5 74 58.5 119.5t135.5 45.5q84 0 135 -43.5t55 -121.5h-83q-2 23 -13.5 36t-31.5 19t-63 6q-102 0 -108 -61h-85zM355 85q-18 -22 -42 -40.5t-52.5 -31.5t-55.5 -15q-72 -7 -114 52q-20 28 -26 55.5t-6 69.5v274h58v-274q0 -76 25 -111q15 -21 38 -31
q39 -16 87 7q50 23 88 77v332h58v-452h-58v88z" />
    <glyph glyph-name="uni0218" unicode="&#x218;" horiz-adv-x="550" 
d="M169 -208q7 24 16.5 70t13.5 77h138v-10q-37 -82 -81 -150h-87v13zM177 19q-64 25 -99.5 73t-35.5 116q-2 20 14 29.5t32 1.5q19 -8 19 -31q0 -92 51 -141q41 -37 92 -47t102 11q42 17 73.5 51.5t34.5 76.5q3 48 -38 87q-24 22 -67 47q-27 16 -84 45q-94 46 -129 72
q-39 28 -60 65.5t-15 80.5q9 61 66 103q58 43 139 44q41 0 79 -9.5t71 -28.5t53.5 -52.5t21.5 -76.5q1 -18 -13.5 -27.5t-30 -2t-16.5 28.5q-3 75 -55 116q-46 36 -109 34q-60 -2 -106 -37q-45 -33 -50 -79q-9 -68 79 -117q24 -14 71 -36.5t65 -31.5q99 -52 140 -100
q52 -62 37 -130q-9 -43 -42 -77t-78 -53q-50 -22 -105.5 -23t-106.5 18z" />
    <glyph glyph-name="uni0219" unicode="&#x219;" horiz-adv-x="497" 
d="M144 -208q7 24 16.5 70t13.5 77h138v-10q-37 -82 -81 -150h-87v13zM186 1q-59 10 -100.5 47.5t-41.5 94.5q-1 17 13.5 25.5t29.5 1.5t15 -27q0 -100 73 -125q27 -10 60 -6q33 5 62 23.5t38 47.5q8 22 0 46q-9 25 -38 43t-64.5 29.5t-71.5 24t-63.5 33t-35.5 49.5
q-10 40 8 74q19 33 58.5 50.5t81.5 17.5q30 1 58.5 -6.5t53 -22t39.5 -39.5t15 -57q1 -15 -11.5 -22.5t-26 -1.5t-13.5 24q0 73 -51 99q-27 14 -62 12q-13 0 -25 -3q-31 -8 -58 -28t-30 -48q-2 -14 4 -28q10 -22 52 -40q7 -3 86 -30q20 -7 33.5 -12.5t31.5 -15t30 -20
t22.5 -25.5t13.5 -33q14 -69 -26 -112q-27 -29 -71 -38.5t-89 -1.5z" />
    <glyph glyph-name="uni021A" unicode="&#x21a;" horiz-adv-x="579" 
d="M191 -208q7 24 16.5 70t13.5 77h138v-10q-37 -82 -81 -150h-87v13zM226 -3v682h-221v21h494h5v-21h-221v-682h-57z" />
    <glyph glyph-name="uni021B" unicode="&#x21b;" horiz-adv-x="434" 
d="M147 -208q7 24 16.5 70t13.5 77h138v-10q-37 -82 -81 -150h-87v13zM79 435h-51v20h51v162h57v-162h126v-20h-126v-260q0 -88 26 -124q33 -47 94 -34l5 1v-12l-3 -1q-8 -3 -16.5 -5t-16.5 -2q-72 -7 -115 52q-20 28 -25.5 55.5t-5.5 69.5v260z" />
    <glyph glyph-name="uni021C" unicode="&#x21c;" horiz-adv-x="647" 
d="M583 547q0 -69 -49 -114t-132 -57v-3q98 -10 150.5 -54.5t52.5 -115.5q0 -99 -80 -156t-221 -57q-157 0 -252 39v127q46 -22 107.5 -34.5t115.5 -12.5q180 0 180 105q0 47 -58 72.5t-171 25.5h-67v118h60q113 0 165 21.5t52 71.5q0 37 -32.5 58.5t-97.5 21.5
q-101 0 -194 -58l-66 101q61 41 129.5 59.5t151.5 18.5q117 0 186.5 -48.5t69.5 -128.5z" />
    <glyph glyph-name="uni021D" unicode="&#x21d;" horiz-adv-x="562" 
d="M373 8q0 67 -47.5 97t-141.5 30h-74v112h72q98 0 142.5 24.5t44.5 75.5q0 89 -121 89q-36 0 -81.5 -9.5t-80.5 -25.5l-44 108q105 47 235 47q105 0 165 -50.5t60 -140.5q0 -67 -34.5 -107.5t-107.5 -58.5v-6q80 -12 122 -61t42 -128q0 -74 -35.5 -129.5t-102.5 -85
t-160 -29.5q-123 0 -216 39v128q43 -21 98.5 -34t106.5 -13q77 0 117.5 33t40.5 95z" />
    <glyph glyph-name="uni021E" unicode="&#x21e;" horiz-adv-x="765" 
d="M594 931v-13q-41 -41 -75.5 -82t-49.5 -65h-174q-14 23 -40.5 55t-84.5 92v13h99q72 -45 112 -86q41 42 114 86h99zM133 700v-330h332v330h58v-703h-58v352h-332v-352h-58v703h58z" />
    <glyph glyph-name="uni021F" unicode="&#x21f;" horiz-adv-x="657" 
d="M543 951v-13q-41 -41 -75.5 -82t-49.5 -65h-174q-14 23 -40.5 55t-84.5 92v13h99q72 -45 112 -86q41 42 114 86h99zM123 693v-315q35 45 93 64q65 22 122 -1q34 -13 56 -40.5t31 -59.5t9 -70v-274h-57v274q0 53 -20.5 95t-66.5 56q-44 13 -91 -8q-48 -22 -76 -70v-347
h-58v696h58z" />
    <glyph glyph-name="uni0220" unicode="&#x220;" horiz-adv-x="761" 
d="M676 -240h-151v690q0 74 -30.5 111.5t-95.5 37.5q-82 0 -120 -51.5t-38 -169.5v-378h-151v714h115l24 -92h4q33 50 88.5 76.5t124.5 26.5q111 0 170.5 -61.5t59.5 -176.5v-727z" />
    <glyph glyph-name="uni0221" unicode="&#x221;" horiz-adv-x="632" 
d="M251 -10q-96 0 -151 75t-55 207q0 134 56 209t154 75q103 0 157 -80h5q-11 61 -11 109v175h149v-821q0 -28 14 -44t39 -16t55 10v-114q-30 -15 -91 -15q-166 0 -166 176v37q0 27 2.5 52t3.5 46h-6q-51 -81 -155 -81zM303 109q57 0 84 33t29 113v16q0 88 -27 126t-88 38
q-50 0 -77.5 -42t-27.5 -123t27.5 -121t79.5 -40z" />
    <glyph glyph-name="uni0222" unicode="&#x222;" horiz-adv-x="766" 
d="M680 648q0 -72 -25 -119t-82 -76q140 -58 140 -204q0 -124 -85 -191.5t-245 -67.5t-245 67t-85 191q0 69 34.5 122.5t104.5 82.5q-56 28 -81 73t-25 121v67h151v-66q0 -138 147 -138q145 0 145 138v66h151v-66zM212 250q0 -133 171 -133t171 133t-170 133
q-172 0 -172 -133z" />
    <glyph glyph-name="uni0223" unicode="&#x223;" horiz-adv-x="628" 
d="M554 660q0 -80 -26.5 -129t-81.5 -74q66 -26 102 -78t36 -129q0 -122 -72.5 -191t-198.5 -69q-79 0 -140 31.5t-94.5 90t-33.5 136.5q0 153 134 209q-54 25 -79 73t-25 131v99h149v-99q0 -78 21 -111.5t69 -33.5t69.5 33t21.5 111v100h149v-100zM197 251
q0 -72 28.5 -106.5t89.5 -34.5q117 0 117 142q0 72 -28.5 108t-89.5 36q-117 0 -117 -145z" />
    <glyph glyph-name="uni0224" unicode="&#x224;" horiz-adv-x="579" 
d="M383 -240q-49 0 -90 12v117q29 -9 58 -9q60 0 60 83v162h144v-184q0 -86 -44.5 -133.5t-127.5 -47.5zM500 700l-405 -682h389v-21h-4h-457h-8l405 682h-387v21h5h454h8z" />
    <glyph glyph-name="uni0225" unicode="&#x225;" horiz-adv-x="487" 
d="M316 -230q-45 0 -80 13v104q25 -9 48 -9q25 0 37.5 12.5t12.5 45.5v64h-307v88l253 344h-238v114h407v-97l-246 -335h255v-178q0 -86 -36 -126t-106 -40z" />
    <glyph glyph-name="uni0226" unicode="&#x226;" horiz-adv-x="689" 
d="M264 852q0 73 81 73t81 -73q0 -35 -20.5 -54t-60.5 -19q-81 0 -81 73zM431 261h-289l-105 -261h-23l2 6q10 25 139 346q103 259 137 345l1 3h26l279 -703h-62l-1 3q-30 75 -104 261zM150 282h272q-113 284 -135 341h-1z" />
    <glyph glyph-name="uni0227" unicode="&#x227;" horiz-adv-x="604" 
d="M221 687q0 73 81 73t81 -73q0 -35 -20.5 -54t-60.5 -19q-81 0 -81 73zM368 56q-45 -50 -138 -58q-48 -4 -93.5 9t-69.5 45q-19 26 -19 60q0 43 26 65.5t72 35.5q17 5 76 17q25 6 39 9.5t38 11t41 19t27 26.5q-5 57 -33.5 94t-65.5 45.5t-74 -0.5t-62 -43.5t-25 -84.5
q0 -20 -15 -27t-29.5 1.5t-12.5 25.5q0 24 8 45q21 49 76 77q55 29 116 24q66 -4 111 -46q52 -48 63 -133q1 -8 2 -28v-246h-58v56zM368 211q1 25 0 54q-29 -32 -120 -52q-72 -16 -93 -24q-49 -20 -49 -78q0 -50 33 -77q41 -31 100 -21t89 50q37 49 40 148z" />
    <glyph glyph-name="uni0228" unicode="&#x228;" horiz-adv-x="560" 
d="M444 679h-311v-309h235v-21h-235v-331h311v-21h-369v703h369v-21zM402 -122q0 -62 -37 -90t-114 -28q-38 0 -71 10v82q13 -3 35.5 -6.5t34.5 -3.5q35 0 35 30q0 41 -81 53l38 75h94l-13 -30q36 -12 57.5 -36.5t21.5 -55.5z" />
    <glyph glyph-name="uni0229" unicode="&#x229;" horiz-adv-x="590" 
d="M422 146q-1 -72 -74 -116q-75 -44 -158 -25q-97 21 -131 117q-14 43 -14 97q1 105 53 167q44 54 117 66q65 10 124 -16q61 -26 77 -74q6 -15 6 -31q0 -24 -13 -43q-18 -26 -66 -42q-23 -8 -93 -22q-51 -11 -78 -21q-48 -17 -68 -46q6 -69 48 -108q37 -35 88 -35
q19 0 36 5q42 13 65 47.5t23 79.5q0 21 15 28t29.5 -2t13.5 -26zM103 214v-14.5v-14.5q31 31 113 52q75 18 85 21q41 14 54 34q9 13 9 30q0 38 -20 68t-54 44q-32 12 -64.5 5.5t-57.5 -29.5q-65 -59 -65 -196zM415 -122q0 -62 -37 -90t-114 -28q-38 0 -71 10v82
q13 -3 35.5 -6.5t34.5 -3.5q35 0 35 30q0 41 -81 53l38 75h94l-13 -30q36 -12 57.5 -36.5t21.5 -55.5z" />
    <glyph glyph-name="uni022A" unicode="&#x22a;" horiz-adv-x="795" 
d="M233 1020h331v-93h-331v93zM236 824q0 31 17 46t46 15q28 0 46 -15t18 -46q0 -29 -18 -44.5t-46 -15.5q-29 0 -46 15.5t-17 44.5zM433 824q0 31 17 46t46 15q28 0 46 -15t18 -46q0 -29 -18 -44.5t-46 -15.5q-29 0 -46 15.5t-17 44.5zM51 285q-3 26 -3 60q0 33 2 59
q4 63 26 120q32 81 91.5 128t143.5 47q9 1 18 0q101 -1 169 -70q14 -15 26 -32t21.5 -35t17.5 -37.5t13 -39.5t8.5 -40.5t5.5 -40.5q2 -26 1 -59q0 -35 -2 -60q-5 -56 -24 -106t-50.5 -90.5t-79.5 -64.5t-106 -24h-18q-58 0 -106 24t-79.5 64.5t-50.5 90.5t-24 106zM186 92
q57 -74 134 -76q77 2 133 76q70 91 74 258q-4 165 -73 256q-56 74 -133 77h-1h-1q-77 -3 -133 -77q-69 -91 -73 -256q4 -167 73 -258z" />
    <glyph glyph-name="uni022B" unicode="&#x22b;" horiz-adv-x="619" 
d="M144 855h331v-93h-331v93zM147 659q0 31 17 46t46 15q28 0 46 -15t18 -46q0 -29 -18 -44.5t-46 -15.5q-29 0 -46 15.5t-17 44.5zM344 659q0 31 17 46t46 15q28 0 46 -15t18 -46q0 -29 -18 -44.5t-46 -15.5q-29 0 -46 15.5t-17 44.5zM49 175q-8 77 8 137q13 52 47 87
t85 47q23 7 48 6h2.5h1.5h6q22 1 42 -5q55 -12 90.5 -49t48.5 -93q15 -62 5 -136q-4 -32 -15.5 -59t-29 -49t-43 -37t-56.5 -22q-20 -5 -42 -5h-6h-1h-3q-25 0 -48 6q-61 15 -96.5 61t-43.5 111zM149 387q-41 -57 -44 -162q3 -106 44 -162q34 -48 86 -52h8h5q53 4 87 52
q40 56 43 162q-3 105 -43 162q-34 47 -87 51q-3 1 -5 1q-3 0 -8 -1q-52 -4 -86 -51z" />
    <glyph glyph-name="uni022C" unicode="&#x22c;" horiz-adv-x="795" 
d="M467 771q-21 0 -40 6.5t-35.5 14.5t-31.5 15t-29 7q-21 0 -30 -10t-15 -33h-61q4 52 31.5 83.5t72.5 31.5q23 0 42.5 -6.5t36 -15t31.5 -15t29 -6.5q20 0 29 11t14 32h61q-5 -56 -32.5 -85.5t-72.5 -29.5zM233 1020h331v-93h-331v93zM51 285q-3 26 -3 60q0 33 2 59
q4 63 26 120q32 81 91.5 128t143.5 47q9 1 18 0q101 -1 169 -70q14 -15 26 -32t21.5 -35t17.5 -37.5t13 -39.5t8.5 -40.5t5.5 -40.5q2 -26 1 -59q0 -35 -2 -60q-5 -56 -24 -106t-50.5 -90.5t-79.5 -64.5t-106 -24h-18q-58 0 -106 24t-79.5 64.5t-50.5 90.5t-24 106zM186 92
q57 -74 134 -76q77 2 133 76q70 91 74 258q-4 165 -73 256q-56 74 -133 77h-1h-1q-77 -3 -133 -77q-69 -91 -73 -256q4 -167 73 -258z" />
    <glyph glyph-name="uni022D" unicode="&#x22d;" horiz-adv-x="619" 
d="M378 606q-21 0 -40 6.5t-35.5 14.5t-31.5 15t-29 7q-21 0 -30 -10t-15 -33h-61q4 52 31.5 83.5t72.5 31.5q23 0 42.5 -6.5t36 -15t31.5 -15t29 -6.5q20 0 29 11t14 32h61q-5 -56 -32.5 -85.5t-72.5 -29.5zM144 855h331v-93h-331v93zM49 175q-8 77 8 137q13 52 47 87
t85 47q23 7 48 6h2.5h1.5h6q22 1 42 -5q55 -12 90.5 -49t48.5 -93q15 -62 5 -136q-4 -32 -15.5 -59t-29 -49t-43 -37t-56.5 -22q-20 -5 -42 -5h-6h-1h-3q-25 0 -48 6q-61 15 -96.5 61t-43.5 111zM149 387q-41 -57 -44 -162q3 -106 44 -162q34 -48 86 -52h8h5q53 4 87 52
q40 56 43 162q-3 105 -43 162q-34 47 -87 51q-3 1 -5 1q-3 0 -8 -1q-52 -4 -86 -51z" />
    <glyph glyph-name="uni022E" unicode="&#x22e;" horiz-adv-x="795" 
d="M317 852q0 73 81 73t81 -73q0 -35 -20.5 -54t-60.5 -19q-81 0 -81 73zM51 285q-3 26 -3 60q0 33 2 59q4 63 26 120q32 81 91.5 128t143.5 47q9 1 18 0q101 -1 169 -70q14 -15 26 -32t21.5 -35t17.5 -37.5t13 -39.5t8.5 -40.5t5.5 -40.5q2 -26 1 -59q0 -35 -2 -60
q-5 -56 -24 -106t-50.5 -90.5t-79.5 -64.5t-106 -24h-18q-58 0 -106 24t-79.5 64.5t-50.5 90.5t-24 106zM186 92q57 -74 134 -76q77 2 133 76q70 91 74 258q-4 165 -73 256q-56 74 -133 77h-1h-1q-77 -3 -133 -77q-69 -91 -73 -256q4 -167 73 -258z" />
    <glyph glyph-name="uni022F" unicode="&#x22f;" horiz-adv-x="619" 
d="M228 687q0 73 81 73t81 -73q0 -35 -20.5 -54t-60.5 -19q-81 0 -81 73zM49 175q-8 77 8 137q13 52 47 87t85 47q23 7 48 6h2.5h1.5h6q22 1 42 -5q55 -12 90.5 -49t48.5 -93q15 -62 5 -136q-4 -32 -15.5 -59t-29 -49t-43 -37t-56.5 -22q-20 -5 -42 -5h-6h-1h-3q-25 0 -48 6
q-61 15 -96.5 61t-43.5 111zM149 387q-41 -57 -44 -162q3 -106 44 -162q34 -48 86 -52h8h5q53 4 87 52q40 56 43 162q-3 105 -43 162q-34 47 -87 51q-3 1 -5 1q-3 0 -8 -1q-52 -4 -86 -51z" />
    <glyph glyph-name="uni0230" unicode="&#x230;" horiz-adv-x="795" 
d="M233 1020h331v-93h-331v93zM335 824q0 31 17 46t46 15q28 0 46 -15t18 -46q0 -29 -18 -44.5t-46 -15.5q-29 0 -46 15.5t-17 44.5zM51 285q-3 26 -3 60q0 33 2 59q4 63 26 120q32 81 91.5 128t143.5 47q9 1 18 0q101 -1 169 -70q14 -15 26 -32t21.5 -35t17.5 -37.5
t13 -39.5t8.5 -40.5t5.5 -40.5q2 -26 1 -59q0 -35 -2 -60q-5 -56 -24 -106t-50.5 -90.5t-79.5 -64.5t-106 -24h-18q-58 0 -106 24t-79.5 64.5t-50.5 90.5t-24 106zM186 92q57 -74 134 -76q77 2 133 76q70 91 74 258q-4 165 -73 256q-56 74 -133 77h-1h-1q-77 -3 -133 -77
q-69 -91 -73 -256q4 -167 73 -258z" />
    <glyph glyph-name="uni0231" unicode="&#x231;" horiz-adv-x="619" 
d="M144 855h331v-93h-331v93zM246 659q0 31 17 46t46 15q28 0 46 -15t18 -46q0 -29 -18 -44.5t-46 -15.5q-29 0 -46 15.5t-17 44.5zM49 175q-8 77 8 137q13 52 47 87t85 47q23 7 48 6h2.5h1.5h6q22 1 42 -5q55 -12 90.5 -49t48.5 -93q15 -62 5 -136q-4 -32 -15.5 -59
t-29 -49t-43 -37t-56.5 -22q-20 -5 -42 -5h-6h-1h-3q-25 0 -48 6q-61 15 -96.5 61t-43.5 111zM149 387q-41 -57 -44 -162q3 -106 44 -162q34 -48 86 -52h8h5q53 4 87 52q40 56 43 162q-3 105 -43 162q-34 47 -87 51q-3 1 -5 1q-3 0 -8 -1q-52 -4 -86 -51z" />
    <glyph glyph-name="uni0232" unicode="&#x232;" horiz-adv-x="624" 
d="M147 874h331v-103h-331v103zM229 296l-221 404h66l1 -2q34 -61 96.5 -176t92.5 -169l14 -26l205 373h24l-220 -400v-303h-58v299z" />
    <glyph glyph-name="uni0233" unicode="&#x233;" horiz-adv-x="568" 
d="M119 709h331v-103h-331v103zM82 453l149 -376l150 376h23l-208 -528q-49 -120 -117 -125q-29 -2 -59 16q-20 12 -33 30.5t-13 38.5v1q2 28 25 31q14 1 24 -9q11 -11 9 -28q0 -23 8.5 -41t29.5 -20q6 -1 13 0q27 5 50.5 36.5t38.5 67.5l29 74l-17 42q-1 2 -1 3l-2 6
l-23 56l-138 349h62z" />
    <glyph glyph-name="uni0234" unicode="&#x234;" horiz-adv-x="435" 
d="M78 760h149v-533q14 9 34.5 15t41.5 6q63 0 97.5 -32.5t34.5 -95.5q0 -62 -42.5 -96t-117.5 -34q-92 0 -133 33q-11 -17 -34 -60l-70 36q31 59 52 89q-8 17 -10 45t-2 60v567zM289 79q22 0 34 11t12 29q0 40 -47 40q-33 0 -61 -24q6 -56 62 -56z" />
    <glyph glyph-name="uni0235" unicode="&#x235;" horiz-adv-x="770" 
d="M413 319q0 59 -19 88.5t-60 29.5q-57 0 -82 -41.5t-25 -138.5v-257h-149v546h114l20 -70h8q22 38 63.5 59t95.5 21q90 0 136.5 -51t46.5 -149v-129q14 9 34.5 15t41.5 6q63 0 97.5 -32.5t34.5 -95.5q0 -62 -42.5 -96t-117.5 -34q-92 0 -133 33q-11 -17 -34 -60l-70 36
q31 59 52 89q-8 17 -10 45t-2 60v126zM624 79q22 0 34 11t12 29q0 40 -47 40q-33 0 -61 -24q6 -56 62 -56z" />
    <glyph glyph-name="uni0236" unicode="&#x236;" horiz-adv-x="451" 
d="M94 434h-71v63l82 50l43 115h95v-116h153v-112h-153v-207q14 9 34.5 15t41.5 6q63 0 97.5 -32.5t34.5 -95.5q0 -62 -42.5 -96t-117.5 -34q-92 0 -133 33q-11 -17 -34 -60l-70 36q31 59 52 89q-8 17 -10 45t-2 60v241zM305 79q22 0 34 11t12 29q0 40 -47 40q-33 0 -61 -24
q6 -56 62 -56z" />
    <glyph glyph-name="uni0237" unicode="&#x237;" horiz-adv-x="305" 
d="M34 -240q-57 0 -98 12v117q34 -9 70 -9q38 0 55 21t17 62v583h149v-605q0 -87 -50.5 -134t-142.5 -47z" />
    <glyph glyph-name="uni0238" unicode="&#x238;" horiz-adv-x="960" 
d="M45 273q0 132 54.5 207.5t151.5 75.5q103 0 155 -81h6q-6 61 -6 108v177h149v-177q0 -27 -6 -108h6q52 81 155 81q97 0 151.5 -75t54.5 -208t-67.5 -208t-186.5 -75q-125 0 -183 92q-59 -92 -185 -92q-117 0 -183 74t-66 209zM299 437q-47 0 -74.5 -41t-27.5 -123
q0 -83 26 -123t79 -40q55 0 79.5 37.5t24.5 117.5v26q0 78 -26.5 112t-80.5 34zM662 437q-54 0 -80.5 -34t-26.5 -112v-26q0 -82 25 -118.5t79 -36.5q53 0 79 39.5t26 123.5q0 83 -27.5 123.5t-74.5 40.5z" />
    <glyph glyph-name="uni0239" unicode="&#x239;" horiz-adv-x="960" 
d="M916 273q0 -133 -55 -208t-151 -75q-104 0 -155 81h-6q6 -83 6 -108v-203h-149v203q0 46 6 108h-6q-51 -81 -155 -81q-96 0 -151 75t-55 208t67.5 208t186.5 75q125 0 183 -92q62 92 190 92q116 0 180 -73.5t64 -209.5zM662 109q47 0 74.5 40.5t27.5 123.5t-25.5 123
t-79.5 40t-79 -36.5t-25 -118.5v-26q0 -77 26.5 -111.5t80.5 -34.5zM299 109q54 0 80.5 34.5t26.5 111.5v26q0 80 -25 117.5t-79 37.5t-79.5 -40t-25.5 -123t27.5 -123.5t74.5 -40.5z" />
    <glyph glyph-name="uni023A" unicode="&#x23a;" horiz-adv-x="689" 
d="M543 760l-60 -173l207 -587h-163l-52 170h-137l-85 -245h-97l85 245h-26l-52 -170h-163l252 717h179l15 43h97zM285 297l81 233q-10 33 -21 76q-16 -62 -92 -309h32zM412 383l-30 -86h57z" />
    <glyph glyph-name="uni023B" unicode="&#x23b;" horiz-adv-x="637" 
d="M570 760l-22 -64q22 -7 54 -22l-49 -123q-42 19 -49 21l-157 -452q17 -4 46 -4q75 0 182 38v-127q-88 -37 -196 -37q-41 0 -75 6l-24 -71h-97l34 99q-78 40 -118.5 124t-40.5 208q0 111 40.5 195t116.5 128.5t178 44.5q32 0 65 -5l15 41h97zM393 598q-85 0 -132 -64
t-47 -179q0 -131 52 -189l150 430q-8 2 -23 2z" />
    <glyph glyph-name="uni023C" unicode="&#x23c;" horiz-adv-x="514" 
d="M300 -10q-26 0 -50 3l-71 -201h-97l81 227q-118 60 -118 251q0 139 69.5 212.5t198.5 73.5q21 0 41 -2l74 206h96l-80 -225q25 -9 39 -16l-44 -115l-37 14l-109 -306l10 -1h10q43 0 79.5 11.5t73.5 35.5v-127q-36 -23 -73 -32t-93 -9zM197 271q0 -71 17 -109l98 274
q-59 -1 -87 -42t-28 -123z" />
    <glyph glyph-name="uni023D" unicode="&#x23d;" horiz-adv-x="564" 
d="M23 415h67v299h151v-299h116v-124h-116v-166h290v-125h-441v291h-67v124z" />
    <glyph glyph-name="uni023E" unicode="&#x23e;" horiz-adv-x="579" 
d="M66 -75l148 282v381h-194v126h460l24 46h80l-25 -48v-124h-65l-129 -246v-342h-151v54l-68 -129h-80zM365 495l49 93h-49v-93z" />
    <glyph glyph-name="uni023F" unicode="&#x23f;" horiz-adv-x="497" 
d="M459 162q0 -78 -50.5 -121.5t-150.5 -49.5q14 -19 23 -40q18 -40 38 -55.5t55 -15.5q34 0 61 9v-116q-16 -6 -42 -9.5t-49 -3.5q-48 0 -80.5 14t-56 42.5t-51.5 95.5q-19 47 -36.5 67t-48.5 33l-25 12v121q42 -20 93.5 -33t91.5 -13q81 0 81 47q0 18 -10.5 29t-37 24.5
t-70.5 32.5q-63 26 -92.5 48.5t-43 51.5t-13.5 72q0 73 56.5 112.5t159.5 39.5q99 0 192 -43l-45 -107q-41 18 -76.5 29t-72.5 11q-66 0 -66 -36q0 -20 21 -34.5t93 -43.5q64 -26 94 -48.5t44 -51.5t14 -70z" />
    <glyph glyph-name="uni0240" unicode="&#x240;" horiz-adv-x="487" 
d="M27 0v88l253 344h-238v114h407v-97l-257 -348q42 -10 73.5 -38.5t55.5 -84.5q23 -55 45 -76.5t57 -21.5q36 0 65 9v-116q-17 -6 -44 -9.5t-51 -3.5q-75 0 -121.5 33.5t-75.5 118.5q-18 50 -42.5 69t-68.5 19h-58z" />
    <glyph glyph-name="uni0241" unicode="&#x241;" horiz-adv-x="479" 
d="M455 516q0 -83 -44 -144t-138 -109v-263h-149v326q88 30 134.5 76.5t46.5 107.5q0 42 -28 68.5t-71 26.5q-69 0 -150 -48l-53 107q109 61 217 61q105 0 170 -57.5t65 -151.5z" />
    <glyph glyph-name="uni0242" unicode="&#x242;" horiz-adv-x="488" 
d="M453 347q0 -84 -44.5 -145t-136.5 -107v-95h-149v158q87 30 133.5 76t46.5 107q0 42 -28 68.5t-71 26.5q-67 0 -148 -48l-53 107q49 27 102 44t115 17q104 0 168.5 -57t64.5 -152z" />
    <glyph glyph-name="uni0243" unicode="&#x243;" horiz-adv-x="671" 
d="M90 170h-80v97h80v447h222q152 0 220.5 -43.5t68.5 -137.5q0 -64 -30 -105t-80 -49v-5q68 -15 98 -56.5t30 -110.5q0 -98 -70.5 -152.5t-191.5 -54.5h-267v170zM241 431h88q62 0 89.5 19t27.5 63q0 41 -30 59t-95 18h-80v-159zM241 311v-44h114v-97h-114v-45h99
q62 0 92 24t30 73q0 89 -127 89h-94z" />
    <glyph glyph-name="uni0244" unicode="&#x244;" horiz-adv-x="755" 
d="M671 714v-259h85v-124h-85v-79q0 -79 -35.5 -138.5t-102.5 -91.5t-158 -32q-138 0 -214 70.5t-76 193.5v77h-85v124h85v259h151v-259h284v259h151zM379 117q74 0 107.5 39t33.5 122v53h-284v-54q0 -83 33 -121.5t110 -38.5z" />
    <glyph glyph-name="uni0245" unicode="&#x245;" horiz-adv-x="649" 
d="M325 587q-6 -30 -18.5 -84.5t-18.5 -74.5l-135 -428h-153l242 714h165l243 -714h-153l-133 429q-5 14 -20 73t-19 85z" />
    <glyph glyph-name="uni0246" unicode="&#x246;" horiz-adv-x="560" 
d="M501 0h-212l-19 -75h-96l19 75h-103v714h285l12 46h96l-12 -46h30v-124h-62l-40 -157h84v-124h-115l-47 -184h180v-125zM241 433h63l40 157h-103v-157zM241 188l31 121h-31v-121z" />
    <glyph glyph-name="uni0247" unicode="&#x247;" horiz-adv-x="590" 
d="M325 -10q-44 0 -76 7l-71 -205h-97l82 237q-55 32 -86.5 91.5t-31.5 148.5q0 137 68.5 212t189.5 75q21 0 42 -3l71 207h97l-81 -232q56 -28 86 -84t30 -136v-72h-217l-45 -131q17 -4 46 -4q49 0 93 10.5t92 32.5v-115q-39 -20 -83.5 -29.5t-108.5 -9.5zM304 450
q-47 0 -74 -30t-31 -85h70l40 115h-5zM408 335q-2 55 -15 78l-27 -78h42zM196 236q0 -44 13 -74l26 74h-39z" />
    <glyph glyph-name="uni0248" unicode="&#x248;" horiz-adv-x="331" 
d="M15 -210q-51 0 -89 11v126q39 -10 71 -10q50 0 71.5 31t21.5 97v250h-90v124h90v295h151v-295h90v-124h-90v-249q0 -125 -57 -190.5t-169 -65.5z" />
    <glyph glyph-name="uni0249" unicode="&#x249;" horiz-adv-x="305" 
d="M34 -240q-57 0 -98 12v117q34 -9 70 -9q38 0 55 21t17 62v267h-78v97h78v219h149v-219h78v-97h-78v-289q0 -87 -50.5 -134t-142.5 -47zM72 687q0 73 81 73t81 -73q0 -35 -20.5 -54t-60.5 -19q-81 0 -81 73z" />
    <glyph glyph-name="uni024A" unicode="&#x24a;" horiz-adv-x="774" 
d="M330 -10q-82 0 -143.5 44.5t-95 127.5t-33.5 195q0 113 33.5 196t96 127.5t144.5 44.5q128 0 197 -87h4l15 76h137v-775q0 -31 14.5 -45.5t38.5 -14.5q30 0 55 10v-114q-12 -5 -35 -10t-49 -5q-175 0 -175 176v91l1 59h-7q-37 -50 -85 -73t-113 -23zM376 117
q81 0 119.5 59.5t38.5 179.5v31q0 108 -40 159.5t-121 51.5q-73 0 -114.5 -64t-41.5 -179t41.5 -176.5t117.5 -61.5z" />
    <glyph glyph-name="uni024B" unicode="&#x24b;" horiz-adv-x="632" 
d="M251 -10q-97 0 -151.5 74.5t-54.5 207.5q0 134 56 209t153 75q52 0 90.5 -19.5t67.5 -60.5h4l13 70h126v-607q0 -28 14 -44t39 -16t55 10v-114q-30 -15 -91 -15q-166 0 -166 176v37q0 44 6 98h-6q-24 -40 -63.5 -60.5t-91.5 -20.5zM304 107q57 0 83.5 32.5t28.5 113.5v18
q0 88 -27 126t-87 38q-105 0 -105 -165q0 -82 26 -122.5t81 -40.5z" />
    <glyph glyph-name="uni024C" unicode="&#x24c;" horiz-adv-x="660" 
d="M241 274v-274h-151v274h-80v123h80v317h208q146 0 215.5 -53t69.5 -161q0 -63 -34.5 -112t-98.5 -77l210 -311h-168l-170 274h-81zM241 397h49q72 0 106 24t34 75t-35 72.5t-108 21.5h-46v-193z" />
    <glyph glyph-name="uni024D" unicode="&#x24d;" horiz-adv-x="454" 
d="M383 556q30 0 50 -4l-11 -140q-18 5 -44 5q-59 0 -97 -25.5t-50 -72.5h104v-97h-108v-222h-149v222h-78v97h78v227h113l22 -92h7q25 46 68.5 74t94.5 28z" />
    <glyph glyph-name="uni024E" unicode="&#x24e;" horiz-adv-x="624" 
d="M212 619h201l48 95h163l-52 -95h52v-97h-105l-132 -244v-278h-150v273l-134 249h-103v97h51l-51 95h164zM312 420l52 102h-104z" />
    <glyph glyph-name="uni024F" unicode="&#x24f;" horiz-adv-x="568" 
d="M10 385h54l-64 161h163l54 -161h139l53 161h160l-61 -161h51v-97h-87l-134 -358q-32 -85 -91 -127.5t-137 -42.5q-39 0 -76 8v118q27 -6 59 -6q40 0 69 24t46 73l9 27l-114 284h-93v97zM287 144q5 50 21 95l16 49h-75l17 -49q13 -40 18 -95h3z" />
    <glyph glyph-name="uni2000" unicode="&#x2000;" horiz-adv-x="500" 
 />
    <glyph glyph-name="uni2001" unicode="&#x2001;" horiz-adv-x="1000" 
 />
    <glyph glyph-name="uni2002" unicode="&#x2002;" horiz-adv-x="500" 
 />
    <glyph glyph-name="uni2003" unicode="&#x2003;" horiz-adv-x="1000" 
 />
    <glyph glyph-name="uni2004" unicode="&#x2004;" horiz-adv-x="333" 
 />
    <glyph glyph-name="uni2005" unicode="&#x2005;" horiz-adv-x="250" 
 />
    <glyph glyph-name="uni2006" unicode="&#x2006;" horiz-adv-x="166" 
 />
    <glyph glyph-name="uni2007" unicode="&#x2007;" horiz-adv-x="559" 
 />
    <glyph glyph-name="uni2008" unicode="&#x2008;" horiz-adv-x="285" 
 />
    <glyph glyph-name="uni2009" unicode="&#x2009;" horiz-adv-x="200" 
 />
    <glyph glyph-name="uni200A" unicode="&#x200a;" horiz-adv-x="100" 
 />
    <glyph glyph-name="uni200B" unicode="&#x200b;" horiz-adv-x="0" 
 />
    <glyph glyph-name="uni200C" unicode="&#x200c;" horiz-adv-x="0" 
d="M-26 -166v954h52v-954h-52z" />
    <glyph glyph-name="uni200D" unicode="&#x200d;" horiz-adv-x="0" 
d="M36 646l110 -107l-37 -36l-83 82v-750h-52v750l-83 -82l-37 36l110 107l-110 106l37 36l109 -108l109 108l37 -37z" />
    <glyph glyph-name="uni200E" unicode="&#x200e;" horiz-adv-x="0" 
d="M212 583l-108 -107l-27 26l64 61h-121v-696h-40v735h161l-64 61l27 27z" />
    <glyph glyph-name="uni200F" unicode="&#x200f;" horiz-adv-x="0" 
d="M20 -133h-41v696h-121l65 -61l-27 -26l-109 107l109 107l27 -27l-65 -61h162v-735z" />
    <glyph glyph-name="figuredash" unicode="&#x2012;" horiz-adv-x="571" 
d="M40 404h492v-112h-492v112z" />
    <glyph glyph-name="endash" unicode="&#x2013;" horiz-adv-x="363" 
d="M342 271h-322v53h322v-53z" />
    <glyph glyph-name="emdash" unicode="&#x2014;" horiz-adv-x="524" 
d="M503 271h-483v53h483v-53z" />
    <glyph glyph-name="uni2015" unicode="&#x2015;" horiz-adv-x="1000" 
d="M40 213v112h920v-112h-920z" />
    <glyph glyph-name="uni2016" unicode="&#x2016;" horiz-adv-x="550" 
d="M352 757h107v-984h-107v984zM93 757h107v-984h-107v984z" />
    <glyph glyph-name="underscoredbl" unicode="&#x2017;" horiz-adv-x="411" 
d="M413 -226h-415v68h415v-68zM413 -90h-415v68h415v-68z" />
    <glyph glyph-name="quoteleft" unicode="&#x2018;" horiz-adv-x="114" 
d="M74 698q5 4 9.5 0.5t2.5 -9.5l-14 -38q16 -11 11 -30q-2 -11 -12.5 -17.5t-22 -4t-18 12.5t-3.5 22q2 11 46 64h1z" />
    <glyph glyph-name="quoteright" unicode="&#x2019;" horiz-adv-x="114" 
d="M40 600q-5 -4 -10 0t-2 10l13 38q-15 11 -11 30q3 11 13 17.5t22 4t18.5 -13t3.5 -21.5q-2 -11 -47 -64v-1z" />
    <glyph glyph-name="quotesinglbase" unicode="&#x201a;" horiz-adv-x="285" 
d="M224 105q-25 -99 -86 -234h-107q32 130 49 245h137z" />
    <glyph glyph-name="quotereversed" unicode="&#x201b;" horiz-adv-x="216" 
d="M156 714q18 -120 49 -245h-107q-29 62 -52.5 127.5t-33.5 106.5l7 11h137z" />
    <glyph glyph-name="quotedblleft" unicode="&#x201c;" horiz-adv-x="220" 
d="M86 689l-14 -38q16 -11 11 -30q-2 -11 -12.5 -17.5t-22 -4t-18 12.5t-3.5 22q2 11 46 64h1q5 4 9.5 0.5t2.5 -9.5zM180 698q4 4 9 0.5t3 -9.5l-14 -38q15 -11 11 -30q-2 -11 -12.5 -17.5t-22 -4t-18 12.5t-3.5 22q2 11 46 64h1z" />
    <glyph glyph-name="quotedblright" unicode="&#x201d;" horiz-adv-x="220" 
d="M134 610l13 38q-15 11 -11 30q3 11 13 17.5t22 4t18 -13t4 -21.5q-3 -11 -47 -64v-1q-5 -4 -10 0t-2 10zM40 600q-5 -4 -10 0t-2 10l13 38q-15 11 -11 30q3 11 13 17.5t22 4t18.5 -13t3.5 -21.5q-2 -11 -47 -64v-1z" />
    <glyph glyph-name="quotedblbase" unicode="&#x201e;" horiz-adv-x="197" 
d="M115 -31l14 38q-15 11 -11 30q1 5 4.5 10t8 8t10.5 4t12 0q11 -3 17.5 -13t4.5 -22q-3 -11 -47 -64h-1q-4 -4 -9 -0.5t-3 9.5zM32 -40q-5 -4 -10 -0.5t-2 9.5l13 38q-15 11 -11 30q3 11 13 17.5t22 4t18.5 -12.5t3.5 -22q-2 -11 -47 -64v0z" />
    <glyph glyph-name="uni201F" unicode="&#x201f;" horiz-adv-x="444" 
d="M247 714h137q18 -120 49 -245h-107q-29 62 -52.5 127.5t-33.5 106.5zM19 714h137q18 -120 49 -245h-107q-29 62 -52.5 127.5t-33.5 106.5z" />
    <glyph glyph-name="dagger" unicode="&#x2020;" horiz-adv-x="516" 
d="M456 453l-162 15l27 -468h-136l27 468l-152 -15v118l152 -15l-27 204h136l-27 -204l162 15v-118z" />
    <glyph glyph-name="daggerdbl" unicode="&#x2021;" horiz-adv-x="516" 
d="M299 272l162 15v-118l-162 15l27 -184h-136l27 184l-162 -15v118l162 -15l-23 112l23 104l-162 -15v118l162 -15l-27 184h136l-27 -184l162 15v-118l-162 15l23 -104z" />
    <glyph glyph-name="bullet" unicode="&#x2022;" horiz-adv-x="211" 
d="M32 276q0 30 21.5 51.5t51.5 21.5t51.5 -21.5t21.5 -51.5q0 -20 -10 -36.5t-26.5 -26.5t-36.5 -10q-30 0 -51.5 21.5t-21.5 51.5z" />
    <glyph glyph-name="ellipsis" unicode="&#x2026;" horiz-adv-x="264" 
d="M130.5 59q12.5 0 21 -8.5t8.5 -21t-8.5 -21t-21 -8.5t-21 8.5t-8.5 21t8.5 21t21 8.5zM214 59q12 0 21 -8.5t9 -21t-9 -21t-21 -8.5t-21 8.5t-9 21t9 21t21 8.5zM20 29.5q0 12.5 8.5 21t21 8.5t21 -8.5t8.5 -21t-8.5 -21t-21 -8.5t-21 8.5t-8.5 21z" />
    <glyph glyph-name="uni202A" unicode="&#x202a;" horiz-adv-x="0" 
d="M21 563v-696h-41v735h232v-39h-191z" />
    <glyph glyph-name="uni202B" unicode="&#x202b;" horiz-adv-x="0" 
d="M-212 563v39h232v-735h-41v696h-191z" />
    <glyph glyph-name="uni202C" unicode="&#x202c;" horiz-adv-x="0" 
d="M116 477h-95v-610h-42v610h-95v212h232v-212z" />
    <glyph glyph-name="uni202D" unicode="&#x202d;" horiz-adv-x="0" 
d="M116 477h-95v-610h-42v610h-95v212h232v-39h-193v-135h193v-38z" />
    <glyph glyph-name="uni202E" unicode="&#x202e;" horiz-adv-x="0" 
d="M-116 515h193v135h-193v39h232v-212h-95v-610h-42v610h-95v38z" />
    <glyph glyph-name="uni202F" unicode="&#x202f;" horiz-adv-x="200" 
 />
    <glyph glyph-name="perthousand" unicode="&#x2030;" horiz-adv-x="867" 
d="M824 168v-3v-2v-3q0 -12 -1 -20q-6 -42 -35 -71q-35 -35 -89 -35h-9q-54 0 -89 35q-29 29 -35 71q-1 8 -1 20v3v3v2q0 9 1 16q4 43 34 73q35 36 90 36h9q55 0 90 -36q30 -30 34 -73q1 -7 1 -16zM695 52q32 1 54 24t27.5 55.5t0.5 65t-27 55.5t-55 24h-1q-32 -1 -54.5 -24
t-27.5 -55.5t0.5 -65t27.5 -55.5t55 -24zM509 650l-402 -619l-24 16l402 619zM544 184q0 -7 1 -16v-3v-2v-3q-1 -12 -2 -20q-5 -42 -35 -71q-34 -35 -88 -35h-10q-54 0 -88 35q-29 29 -35 71q-1 8 -1 20v3v3v2q0 9 1 16q4 43 34 73q34 36 89 36h10q55 0 90 -36
q29 -30 34 -73zM415 52q33 1 55 24t27.5 55.5t0 65t-27.5 55.5t-54 24h-1q-33 -1 -55 -24t-27 -55.5t0 -65t27.5 -55.5t54.5 -24zM175 392q-54 0 -89 34q-29 30 -35 72q-1 8 -1 19v3v3v2v1q0 9 1 15q4 43 34 74q35 36 90 36h9q55 0 90 -36q30 -31 34 -74q1 -6 1 -15v-3v-3
v-2v-1q0 -11 -1 -19q-6 -42 -35 -72q-35 -34 -89 -34h-9zM179 633q-27 0 -47 -17t-29 -41.5t-9 -53t9 -53.5t29 -41.5t48 -17.5q27 1 47 17.5t29 41.5t9 53.5t-9 53t-29 41.5t-47 17h-1z" />
    <glyph glyph-name="minute" unicode="&#x2032;" horiz-adv-x="266" 
d="M201 714l-20 -258h-96l-20 258h136z" />
    <glyph glyph-name="second" unicode="&#x2033;" horiz-adv-x="472" 
d="M201 714l-20 -258h-96l-20 258h136zM407 714l-20 -258h-96l-20 258h136z" />
    <glyph glyph-name="uni2034" unicode="&#x2034;" horiz-adv-x="678" 
d="M613 714l-20 -258h-96l-20 258h136zM201 714l-20 -258h-96l-20 258h136zM407 714l-20 -258h-96l-20 258h136z" />
    <glyph glyph-name="guilsinglleft" unicode="&#x2039;" horiz-adv-x="368" 
d="M40 280l181 222l107 -58l-136 -170l136 -170l-107 -58l-181 221v13z" />
    <glyph glyph-name="guilsinglright" unicode="&#x203a;" horiz-adv-x="368" 
d="M328 267l-181 -221l-107 58l136 170l-136 170l107 58l181 -222v-13z" />
    <glyph glyph-name="exclamdbl" unicode="&#x203c;" horiz-adv-x="569" 
d="M203 237h-119l-25 477h169zM57 70q0 41 22 62t64 21q41 0 63 -21.5t22 -61.5q0 -39 -22.5 -61t-62.5 -22q-41 0 -63.5 21.5t-22.5 61.5zM488 237h-119l-25 477h169zM342 70q0 41 22 62t64 21q41 0 63 -21.5t22 -61.5q0 -39 -22.5 -61t-62.5 -22q-41 0 -63.5 21.5
t-22.5 61.5z" />
    <glyph glyph-name="uni203E" unicode="&#x203e;" horiz-adv-x="500" 
d="M503 760h-506v98h506v-98z" />
    <glyph glyph-name="fraction" unicode="&#x2044;" horiz-adv-x="129" 
d="M321 714l-396 -714h-117l396 714h117z" />
    <glyph glyph-name="uni205E" unicode="&#x205e;" horiz-adv-x="285" 
d="M57 54q0 78 85 78q39 0 62.5 -18.5t23.5 -59.5q0 -40 -23.5 -59t-62.5 -19q-40 0 -62.5 19t-22.5 59zM57 255q0 78 85 78q42 0 64 -20t22 -58q0 -39 -23.5 -58.5t-62.5 -19.5q-40 0 -62.5 19.5t-22.5 58.5zM57 456q0 78 85 78q39 0 62.5 -18.5t23.5 -59.5
q0 -40 -23.5 -59t-62.5 -19q-40 0 -62.5 19t-22.5 59zM57 657q0 78 85 78q39 0 62.5 -18.5t23.5 -59.5q0 -40 -23.5 -59t-62.5 -19q-40 0 -62.5 19t-22.5 59z" />
    </font>
</defs>
</svg>
