<?xml version="1.0" standalone="no"?>
<!DOCTYPE svg PUBLIC "-//W3C//DTD SVG 1.1//EN" "http://www.w3.org/Graphics/SVG/1.1/DTD/svg11.dtd" >
<svg xmlns="http://www.w3.org/2000/svg" xmlns:xlink="http://www.w3.org/1999/xlink" version="1.1">
<metadata>
Created by FontForge 20190801 at Tue May  4 08:59:17 2021
 By root
(c)2019, Hans Co
</metadata>
<defs>
<font id="NesansBold" horiz-adv-x="274" >
  <font-face 
    font-family="Nesans"
    font-weight="700"
    font-stretch="normal"
    units-per-em="1000"
    panose-1="0 0 0 0 0 0 0 0 0 0"
    ascent="800"
    descent="-200"
    x-height="453"
    cap-height="700"
    bbox="-213 -240 1240 1047"
    underline-thickness="50"
    underline-position="-150"
    unicode-range="U+0001-206F"
  />
<missing-glyph horiz-adv-x="364" 
d="M33 0v666h265v-666h-265zM66 33h199v600h-199v-600z" />
    <glyph glyph-name=".notdef" horiz-adv-x="364" 
d="M33 0v666h265v-666h-265zM66 33h199v600h-199v-600z" />
    <glyph glyph-name=".null" 
 />
    <glyph glyph-name=".null" 
 />
    <glyph glyph-name="nonmarkingreturn" horiz-adv-x="333" 
 />
    <glyph glyph-name="uni0001" 
 />
    <glyph glyph-name="uni0002" 
 />
    <glyph glyph-name="uni0003" 
 />
    <glyph glyph-name="uni0004" 
 />
    <glyph glyph-name="uni0005" 
 />
    <glyph glyph-name="uni0006" 
 />
    <glyph glyph-name="uni0007" 
 />
    <glyph glyph-name="uni0008" 
 />
    <glyph glyph-name="uni0009" unicode="&#x9;" 
 />
    <glyph glyph-name="LF" unicode="&#xa;" 
 />
    <glyph glyph-name="uni000B" 
 />
    <glyph glyph-name="uni000C" 
 />
    <glyph glyph-name="controlCR" unicode="&#xd;" 
 />
    <glyph glyph-name="uni000E" 
 />
    <glyph glyph-name="uni000F" 
 />
    <glyph glyph-name="uni0010" 
 />
    <glyph glyph-name="uni0011" 
 />
    <glyph glyph-name="uni0012" 
 />
    <glyph glyph-name="uni0013" 
 />
    <glyph glyph-name="uni0014" 
 />
    <glyph glyph-name="uni0015" 
 />
    <glyph glyph-name="uni0016" 
 />
    <glyph glyph-name="uni0017" 
 />
    <glyph glyph-name="uni0018" 
 />
    <glyph glyph-name="uni0019" 
 />
    <glyph glyph-name="uni001A" 
 />
    <glyph glyph-name="uni001B" 
 />
    <glyph glyph-name="uni001C" 
 />
    <glyph glyph-name="uni001D" 
 />
    <glyph glyph-name="uni001E" 
 />
    <glyph glyph-name="uni001F" 
 />
    <glyph glyph-name="space" unicode=" " 
 />
    <glyph glyph-name="exclam" unicode="!" horiz-adv-x="217" 
d="M90 154l-28 453q-2 23 14 37q13 11 32 11q22 1 35.5 -13t12.5 -36l-35 -452h-31zM72 77q0 14 9.5 23.5t23.5 9.5q10 0 17.5 -4.5t12 -12t4.5 -16.5q0 -14 -10 -24t-24 -10t-23.5 10t-9.5 24z" />
    <glyph glyph-name="quotedbl" unicode="&#x22;" horiz-adv-x="226" 
d="M61 545l-28 145q-4 23 22 31q28 9 43 -10q6 -9 6 -21l-25 -146q-1 -10 -8 -10t-10 11zM168 544q-2 -10 -8.5 -10t-9.5 11l-28 145q-4 23 22 31q27 9 42 -10q6 -9 6 -21z" />
    <glyph glyph-name="numbersign" unicode="#" horiz-adv-x="584" 
d="M151 241h-109l14 38h109l53 141h-109l15 38h109l75 200h40l-75 -200l115 -1l76 201h40l-75 -201h113l-14 -37h-113l-54 -142h114l-15 -37h-113l-75 -201h-41l76 201h-116l-75 -201h-41zM259 420l-53 -142h115l53 142h-115z" />
    <glyph glyph-name="dollar" unicode="$" horiz-adv-x="532" 
d="M56 224q-2 22 15 31.5t34 0.5t17 -31q0 -77 43 -118q36 -33 81 -40v271q-70 35 -101 57q-78 56 -67 132q8 53 57 90q46 36 111 40v60h38v-60q72 -5 123 -42.5t53 -105.5q0 -19 -15 -28.5t-30.5 -2t-16.5 29.5q-2 58 -41 92q-30 26 -73 31l-1 -234q114 -56 154 -103
q46 -56 33 -117q-12 -56 -68 -95q-52 -36 -119 -41v-60h-38l1 60q-36 3 -70 16q-57 22 -88.5 65t-31.5 102zM246 631q-43 -6 -75 -31q-36 -27 -40 -63q-8 -56 66 -97q18 -10 49 -25v216zM283 319v-253q50 4 89 37q43 35 46 79q2 40 -32 72q-30 28 -103 65z" />
    <glyph glyph-name="percent" unicode="%" horiz-adv-x="596" 
d="M178 387q-56 0 -91 35q-30 30 -36 73q-1 9 -1 20v3v3v2v1q0 9 1 15q4 44 35 76q35 36 92 36h9q56 0 92 -36q30 -32 34 -76q1 -7 1 -15v-3v-3v-2v-1q0 -11 -1 -20q-6 -43 -36 -73q-35 -35 -90 -35h-9zM182 625q-31 -1 -51.5 -22.5t-25 -52.5t0 -61.5t25.5 -52.5t51 -23
q26 1 44.5 16.5t27 39t8.5 50.5t-8.5 50.5t-27 39.5t-43.5 16h-1zM514 647l-401 -617l-32 21l402 617zM547 171v-3v-2v-3q-1 -12 -2 -20q-5 -43 -36 -73q-35 -35 -90 -35h-9q-55 0 -91 35q-30 30 -35 73q-2 9 -2 20v3v2v3q0 9 1 16q5 44 35 75q36 37 92 37h9q56 0 92 -37
q30 -31 35 -75q0 -7 1 -16zM414 61q31 1 51.5 22.5t25.5 52.5t0 62t-25.5 52.5t-50.5 22.5h-1q-30 -1 -51 -22.5t-25.5 -52.5t0.5 -62t25.5 -52.5t50.5 -22.5z" />
    <glyph glyph-name="ampersand" unicode="&#x26;" horiz-adv-x="568" 
d="M454 160l68 -128h-76l-41 76q-50 -43 -107 -60q-42 -11 -84 -10.5t-81 21t-62 57.5q-10 16 -16 35q-19 62 6 132q18 49 52 84t110 80q-40 72 -42 117q-2 49 36 79t86 21q40 -7 61 -40q19 -30 14.5 -63t-28.5 -59q-20 -20 -55 -44q11 -19 16 -27l119 -225q30 73 16 129
q-8 30 18 39q25 9 40 -11q7 -8 8 -20q8 -94 -58 -183zM389 138l-140 264q-4 7 -11 18q-62 -42 -88 -80q-23 -35 -29 -81q-7 -63 21 -108q24 -39 67 -57q56 -25 114 -4q36 12 66 48zM245 571q6 -34 36 -88q29 19 46 37q25 26 20 60q-4 33 -29 47q-9 5 -18 7q-30 4 -45 -15
t-10 -48z" />
    <glyph glyph-name="quotesingle" unicode="'" horiz-adv-x="137" 
d="M79 544q-1 -10 -8 -10t-10 11l-28 145q-4 23 22 31q28 9 43 -10q6 -9 6 -21z" />
    <glyph glyph-name="parenleft" unicode="(" horiz-adv-x="246" 
d="M184 734l2 4h22l-7 -13q-175 -355 3 -753l6 -12h-21l-3 4q-246 397 -2 770z" />
    <glyph glyph-name="parenright" unicode=")" horiz-adv-x="246" 
d="M59 738l3 -4q243 -373 -3 -770l-2 -4h-21l6 12q177 398 2 753l-6 13h21z" />
    <glyph glyph-name="asterisk" unicode="*" horiz-adv-x="269" 
d="M54 577l48 16l-47 15l-1 1q-24 14 -13 36q11 20 30 15q5 -2 10 -5l36 -32l-11 46q-1 27 22 31q21 3 29 -15q3 -6 2 -13v-1l-8 -49l35 34h1q24 15 38 -6q13 -19 -2 -33q-3 -4 -7 -6h-1l-50 -18l49 -18h1q25 -16 12 -38q-12 -19 -31 -13l-8 5l-37 34l8 -48v-1
q0 -25 -22 -29q-13 -2 -23 7.5t-8 22.5l11 48l-36 -32q-22 -13 -36 4q-9 10 -6.5 23.5t15.5 18.5z" />
    <glyph glyph-name="plus" unicode="+" horiz-adv-x="435" 
d="M33 368h165v165h38v-165h165v-38h-165v-165h-38v165h-165v38z" />
    <glyph glyph-name="comma" unicode="," horiz-adv-x="111" 
d="M40 -38q-7 -6 -15 -0.5t-4 15.5l12 34q-14 13 -10 31q3 14 15 21.5t25 4.5t20.5 -15t4.5 -25q-1 -5 -5 -11.5t-10 -14.5t-11 -14t-12 -14.5t-9 -10.5v-1h-1z" />
    <glyph glyph-name="hyphen" unicode="-" horiz-adv-x="403" 
d="M385 330h-368v38h368v-38z" />
    <glyph glyph-name="period" unicode="." horiz-adv-x="112" 
d="M22 35q0 14 10 23.5t24 9.5t24 -9.5t10 -23.5t-10 -24t-24 -10t-24 10t-10 24z" />
    <glyph glyph-name="slash" unicode="/" horiz-adv-x="426" 
d="M12 -39l361 776h41l-360 -776h-42z" />
    <glyph glyph-name="zero" unicode="0" horiz-adv-x="607" 
d="M64 286q-3 25 -3 60q0 32 2 58q3 51 18.5 101t43 94.5t71.5 72t98 27.5h18q55 0 99 -27.5t71 -72t43 -94.5t19 -101q2 -26 2 -58q0 -35 -3 -60q-3 -40 -13.5 -79t-30 -76.5t-45 -66t-62.5 -46.5t-80 -18h-17q-43 0 -80 17.5t-63 46t-45 66.5t-29.5 77t-13.5 79zM302 674
q-40 -2 -73.5 -30t-53.5 -73.5t-31 -103.5t-11 -118t11 -117.5t31.5 -102.5t53.5 -73.5t74 -29.5q55 1 94.5 49.5t57.5 119.5t18 154t-17.5 154.5t-57 120t-94.5 50.5h-1h-1z" />
    <glyph glyph-name="one" unicode="1" horiz-adv-x="216" 
d="M141 -2h-66v702h66v-702z" />
    <glyph glyph-name="two" unicode="2" horiz-adv-x="509" 
d="M103 99q-8 -17 -12 -35h356v-66h-392v4v55q6 47 31 89q22 35 61 71.5t76.5 66t73.5 63t58.5 76.5t24.5 93q1 62 -28.5 107t-88.5 53q-19 3 -40 -3q-41 -10 -68 -44.5t-26 -76.5q0 -23 -17.5 -31t-35.5 1t-18 27q0 35 16 64q26 46 81 69.5t111 19.5q106 -8 156 -85
q34 -51 30 -117q-4 -57 -34 -106q-36 -58 -134 -128q-89 -64 -106 -78q-54 -45 -75 -89z" />
    <glyph glyph-name="three" unicode="3" horiz-adv-x="507" 
d="M336 389q-22 -9 -35 -14q92 -21 127 -105q18 -42 14.5 -89.5t-25.5 -87.5q-18 -30 -44 -51t-57 -31.5t-67 -10.5q-51 0 -97.5 18.5t-73.5 55.5q-24 34 -23 78q0 19 18 27.5t36 0t18 -31.5q-2 -53 33 -87.5t88 -34.5q37 0 65 22t42 55.5t17 74t-6.5 76.5t-33 63.5
t-57.5 34.5q-12 3 -26 3.5t-35 0t-27 -0.5h-4v26h4q16 0 29.5 1.5t27 4t25.5 7.5t24 12.5t24 17.5q48 41 54 106q5 62 -31 105q-34 41 -92 41q-52 0 -87 -33.5t-35 -85.5q1 -27 -17 -35.5t-36 0.5t-18 27q-1 44 23 79q27 37 73.5 55t97.5 18q80 0 136 -53q55 -51 56 -118
q0 -48 -29 -84t-76 -57z" />
    <glyph glyph-name="four" unicode="4" horiz-adv-x="554" 
d="M427 170h80v-30h-80v-142h-66v142h-313h-16l333 560h62v-530zM127 170h234v394z" />
    <glyph glyph-name="five" unicode="5" horiz-adv-x="502" 
d="M151 634l-31 -183q56 41 136 34q85 -7 132 -63q30 -37 43.5 -88t10.5 -104q-3 -58 -24 -109t-65 -87t-104 -36q-51 0 -97.5 18.5t-73.5 55.5q-24 34 -23 78q0 19 18 27.5t36 0.5t18 -31v0q-2 -53 33 -88t88 -35q18 0 35 7q41 18 65 78q23 57 24 130q1 92 -31 154
q-24 45 -73 59q-42 12 -88 -2t-70 -49l-3 -4l-25 2l49 302h13l270 -1v-66h-263z" />
    <glyph glyph-name="six" unicode="6" horiz-adv-x="526" 
d="M143 441q20 18 44 30q44 23 88 20q50 -2 88 -24.5t59 -58.5t31 -79t9 -91q-1 -45 -11.5 -86t-31.5 -76.5t-57.5 -56.5t-84.5 -21q-42 0 -76.5 13t-57.5 36t-39.5 52t-25.5 65t-12.5 71.5t-2.5 73.5q1 35 3.5 66.5t8.5 72.5t16 75t26.5 67.5t39 57t55 38t71.5 14.5
q45 0 84 -19.5t62 -55.5q23 -35 22 -77q0 -19 -18 -28t-35.5 -0.5t-17.5 30.5v1q1 46 -26 85t-72 40q-35 1 -62 -23t-42 -63.5t-23 -75.5t-12 -73zM134 215q4 -34 12.5 -65t24 -61.5t42.5 -48t63 -16.5q34 2 58.5 24t36 57t16.5 66.5t6 64.5q4 152 -62 205q-24 19 -56 22
q-38 4 -79 -20q-43 -26 -55 -64q-8 -28 -9 -96q-1 -35 2 -68z" />
    <glyph glyph-name="seven" unicode="7" horiz-adv-x="452" 
d="M135 1l229 633h-336v66l374 1h18l-253 -700h-32z" />
    <glyph glyph-name="eight" unicode="8" horiz-adv-x="521" 
d="M337 370q52 -15 81.5 -56.5t35.5 -99.5q10 -98 -42.5 -156.5t-150.5 -59.5q-92 -1 -145 52q-58 57 -50 158q4 60 34 103t83 59q-51 18 -83 60.5t-33 95.5q0 81 54 127t137 47q54 0 97.5 -19t70.5 -59t27 -95q0 -35 -15 -67t-41.5 -55t-59.5 -35zM384 217q-6 59 -36.5 96
t-86.5 37q-31 1 -56 -12q-62 -31 -69 -128q-3 -36 1 -67t17 -59t40 -44t66 -16q40 0 68 17.5t39.5 44.5t16.5 61.5t0 69.5zM185 653q-54 -38 -48 -124q8 -100 74 -130q24 -11 53 -11q26 1 48 12q63 31 71 129q7 86 -49 125q-32 22 -76 21q-43 0 -73 -22z" />
    <glyph glyph-name="nine" unicode="9" horiz-adv-x="526" 
d="M383 257q-20 -18 -44 -30q-44 -22 -88 -20q-50 2 -88 24.5t-59 58.5t-31 79t-9 91q1 45 11.5 86t31.5 76.5t57.5 56.5t84.5 21q50 0 89.5 -18.5t62.5 -48.5t38 -72t20 -83.5t4 -88.5q-1 -35 -3.5 -66.5t-8.5 -72.5t-16 -74.5t-27 -67.5t-39 -57.5t-54.5 -38t-71.5 -14.5
q-45 0 -84.5 19.5t-61.5 55.5q-23 35 -22 78q0 11 7.5 19t17.5 10.5t20.5 0.5t18 -10.5t7.5 -22.5v-1q-2 -46 25.5 -84.5t72.5 -40.5q34 0 61 24t42.5 63t23.5 75t12 73zM391 483q-3 35 -11.5 65.5t-24 61t-43 48t-62.5 16.5q-34 -1 -58.5 -23.5t-36 -57.5t-16.5 -66.5
t-6 -64.5q-4 -152 62 -205q24 -19 56 -22q38 -4 79 20q43 26 54 64q9 28 10 96q1 35 -3 68z" />
    <glyph glyph-name="colon" unicode=":" horiz-adv-x="132" 
d="M66 280q14 0 24 -10t10 -24t-10 -23.5t-24 -9.5t-24 9.5t-10 23.5t10 24t24 10zM32 452q0 14 10 24t24 10t24 -10t10 -24t-10 -24t-24 -10t-24 10t-10 24z" />
    <glyph glyph-name="semicolon" unicode=";" horiz-adv-x="141" 
d="M37 188l12 35q-14 13 -10 31q2 9 8 15.5t14.5 9t17.5 0.5q13 -3 20.5 -14.5t4.5 -24.5q-1 -5 -5 -11.5t-10 -15t-11 -14.5t-12 -14t-9 -10v-1h-1q-7 -6 -15 -0.5t-4 14.5zM38 452q0 14 10 24t24 10t24 -10t10 -24t-10 -24t-24 -10t-24 10t-10 24z" />
    <glyph glyph-name="less" unicode="&#x3c;" horiz-adv-x="536" 
d="M497 418l-385 -192l385 -193v-42l-469 235l469 234v-42z" />
    <glyph glyph-name="equal" unicode="=" horiz-adv-x="417" 
d="M24 394v38h368v-38h-368zM392 267h-368v37h368v-37z" />
    <glyph glyph-name="greater" unicode="&#x3e;" horiz-adv-x="536" 
d="M39 33l385 193l-385 192v42l469 -234l-469 -235v42z" />
    <glyph glyph-name="question" unicode="?" horiz-adv-x="432" 
d="M186 110q14 0 24 -9.5t10 -23.5t-10 -24t-24 -10t-24 10t-10 24t10 23.5t24 9.5zM131 537v-1q-2 -33 -26 -44.5t-46.5 2.5t-21.5 43q1 10 3 19q10 33 41.5 55.5t69.5 33.5q34 10 67 10q101 0 146 -68q22 -33 24.5 -66.5t-13 -64t-36 -54.5t-49.5 -50q-44 -37 -62 -71
q-27 -49 -26 -119v-9h-33v9q0 88 25 147q16 38 56 87q1 1 3.5 4.5t4.5 5.5q87 107 50 172q-13 22 -38.5 34t-52.5 12q-32 0 -58 -19q-32 -24 -28 -68z" />
    <glyph glyph-name="at" unicode="@" horiz-adv-x="714" 
d="M427 220q-25 -21 -63 -30.5t-73 -7.5q-44 3 -73 25.5t-23 63.5q5 32 27.5 49.5t58.5 26.5q16 4 48.5 10.5t48.5 10.5q50 13 70 36q3 66 -44 87q-16 7 -34 7q-35 0 -63 -23q-31 -25 -37 -68q-3 -20 -21 -24q-18 -5 -28 8q-7 8 -4 19q7 47 52 77t96 32q44 2 77 -17
q58 -34 57 -118q0 -7 -1 -20l-1 -1q0 -3 -0.5 -7.5t-1.5 -9.5t-1 -8q-4 -25 -11 -75l-3 -21q-2 -31 16 -38q7 -2 16 -1q15 3 28 10q27 14 46.5 42.5t28.5 58.5t11 62q7 86 -30 142q-43 66 -113.5 94.5t-147.5 12.5q-66 -13 -117 -53t-81 -100q-27 -55 -31.5 -117t15.5 -121
q25 -66 77.5 -107.5t124.5 -55.5q128 -26 247 59q5 5 12 4.5t11 -6.5q7 -10 -3 -20v-1q-57 -48 -136 -64.5t-151 0.5q-90 19 -153.5 73t-85.5 139q-16 62 -6.5 124t41.5 118q34 60 88.5 100.5t121.5 56.5q48 12 96 8t90 -20t77.5 -48.5t58.5 -76.5q42 -81 22 -174
q-17 -82 -71 -135q-27 -28 -61 -38q-36 -10 -62 4q-25 13 -32 46zM440 341l4 24q-22 -15 -64 -25q-8 -1 -19 -4q-56 -11 -71 -17q-36 -14 -42 -52q-4 -27 9.5 -43.5t40.5 -19.5q26 -3 53.5 6.5t45.5 28.5t29 50q9 22 14 52z" />
    <glyph glyph-name="A" unicode="A" horiz-adv-x="615" 
d="M427 258h-279l-102 -257h-33l5 12q15 39 136 340q104 259 136 341l2 6h31l279 -702h-71l-2 5q-9 23 -102 255zM160 287h256q-126 316 -128 320z" />
    <glyph glyph-name="B" unicode="B" horiz-adv-x="544" 
d="M350 369q54 -16 92 -56q52 -56 53 -131q0 -18 -4 -35q-11 -61 -59 -102q-51 -44 -128 -47h-1h-228v693v9h195h19q88 -4 140 -57q47 -48 46 -115q-1 -66 -46 -112q-32 -33 -79 -47zM141 354v-156v-156v-14q51 0 120 -1q53 0 94 23.5t61 69.5q12 30 12 64q1 66 -41 114
q-46 53 -122 56h-124zM141 671v-287h141q70 5 104 60q23 36 23 83q0 60 -38 99q-44 46 -125 45h-105z" />
    <glyph glyph-name="C" unicode="C" horiz-adv-x="579" 
d="M538 154v-3q2 -48 -34.5 -84t-84.5 -51.5t-94 -15.5h-10q-78 1 -137 43t-89.5 105.5t-37.5 140.5q-3 26 -3 61q0 33 2 58q4 64 27 122q31 81 92 128.5t146 48.5h10q48 1 95.5 -14.5t83 -52.5t34.5 -86q0 -24 -26 -31q-28 -6 -41 15q-4 8 -4 18v1q1 54 -44 90.5t-100 34.5
q-75 -3 -130 -75q-67 -89 -71 -253q4 -165 72 -254q55 -72 130 -74q55 -1 99.5 35t43.5 90q0 23 18 31.5t35.5 -0.5t17.5 -28z" />
    <glyph glyph-name="C" unicode="&#xc7;" horiz-adv-x="579" 
d="M538 154v-3q2 -48 -34.5 -84t-84.5 -51.5t-94 -15.5h-10q-78 1 -137 43t-89.5 105.5t-37.5 140.5q-3 26 -3 61q0 33 2 58q4 64 27 122q31 81 92 128.5t146 48.5h10q48 1 95.5 -14.5t83 -52.5t34.5 -86q0 -24 -26 -31q-28 -6 -41 15q-4 8 -4 18v1q1 54 -44 90.5t-100 34.5
q-75 -3 -130 -75q-67 -89 -71 -253q4 -165 72 -254q55 -72 130 -74q55 -1 99.5 35t43.5 90q0 23 18 31.5t35.5 -0.5t17.5 -28z" />
    <glyph glyph-name="D" unicode="D" horiz-adv-x="620" 
d="M132 -2h-57v702h57q83 0 133 -4q86 -6 154 -47.5t110 -114.5q43 -75 48 -165q7 -122 -53 -218q-27 -44 -64.5 -75.5t-82.5 -49.5t-97 -23q-55 -5 -148 -5zM141 670v-642q82 0 136 8q80 12 135 68q77 78 87 208q2 24 1 48q-2 73 -28 137t-79.5 111t-126.5 55q-50 6 -125 7
z" />
    <glyph glyph-name="E" unicode="E" horiz-adv-x="471" 
d="M448 670h-307v-295h232v-30h-232v-317h307v-30h-373v702h373v-30z" />
    <glyph glyph-name="F" unicode="F" horiz-adv-x="461" 
d="M448 670h-307v-295h232v-30h-232v-347h-66v702h373v-30z" />
    <glyph glyph-name="G" unicode="G" horiz-adv-x="589" 
d="M311 699h11q47 1 94 -14.5t82.5 -52t34.5 -84.5q0 -19 -18 -28t-35.5 -0.5t-17.5 30.5v1q1 53 -43.5 89t-99.5 34q-73 -3 -127 -74q-67 -88 -71 -250q4 -163 71 -251q55 -71 129 -73q45 -1 77 14t48 45t23 63.5t8 77.5h-126v30h195v-18q0 -115 -55 -177.5t-169 -60.5h-11
q-76 1 -134.5 42.5t-89 104.5t-36.5 139q-3 25 -3 60q0 32 2 58q4 63 26 120q32 80 92 127t143 48z" />
    <glyph glyph-name="H" unicode="H" horiz-adv-x="601" 
d="M141 700v-325h319v325h66v-702h-66v347h-319v-347h-66v702h66z" />
    <glyph glyph-name="I" unicode="I" horiz-adv-x="216" 
d="M141 -2h-66v702h66v-702z" />
    <glyph glyph-name="J" unicode="J" horiz-adv-x="325" 
d="M19 37q-5 14 -1.5 25.5t12.5 16.5t19 5.5t20 -7t14 -20.5q6 -16 16 -26q22 -20 51.5 -10t35.5 39q2 7 2 40v600h66v-523q0 -67 -16 -103q-20 -46 -71 -70.5t-98 -9.5q-39 13 -50 43z" />
    <glyph glyph-name="K" unicode="K" horiz-adv-x="538" 
d="M75 325v5v370h66v-315l324 315h43l-325 -317l5 -6l339 -379h-87l-299 332v-332h-66v327z" />
    <glyph glyph-name="L" unicode="L" horiz-adv-x="455" 
d="M141 700v-672h307v-30h-373v702h66z" />
    <glyph glyph-name="M" unicode="M" horiz-adv-x="749" 
d="M143 700l233 -588l232 580v8h66v-702h-66v614l-245 -614h-12l-29 72l-217 545v-617h-30v702h68z" />
    <glyph glyph-name="N" unicode="N" horiz-adv-x="564" 
d="M105 700v-8l234 -373l121 -192v573h29v-702h-26l-358 570v-570h-30v702h30z" />
    <glyph glyph-name="O" unicode="O" horiz-adv-x="641" 
d="M51 286q-3 25 -3 60q0 32 2 58q4 63 26 120q32 80 92 127t143 48h18q102 -1 170 -71q41 -42 64.5 -101.5t27.5 -122.5q2 -26 2 -58q0 -35 -3 -60q-7 -76 -37 -139t-88.5 -104.5t-135.5 -42.5h-18q-76 1 -134.5 42.5t-89 104.5t-36.5 139zM192 99q55 -71 128 -73
q74 2 128 73q68 88 72 251q-4 162 -71 250q-54 71 -128 74h-1h-1q-73 -3 -127 -74q-67 -88 -71 -250q4 -163 71 -251z" />
    <glyph glyph-name="P" unicode="P" horiz-adv-x="508" 
d="M141 323v-325h-57h-9v693v9h195h19q30 -1 58.5 -10t52 -24.5t41.5 -39t28 -52.5q9 -29 9 -59q0 -47 -15.5 -82.5t-40.5 -56t-61.5 -33t-72.5 -16.5t-80 -4h-67zM141 354h52h59q78 0 119 41t41 119q0 43 -18 78q-42 80 -148 79h-105v-317z" />
    <glyph glyph-name="Q" unicode="Q" horiz-adv-x="641" 
d="M447 31q72 -42 73 -112q0 -12 -7 -20.5t-17.5 -11t-21 -1t-18 10.5t-7.5 22v1q0 55 -49 91q-33 -10 -71 -11h-18q-76 1 -134.5 42.5t-89 104.5t-36.5 139q-3 25 -3 60q0 32 2 58q4 63 26 120q32 80 92 127t143 48h18q102 -1 170 -71q41 -42 64.5 -101.5t27.5 -122.5
q2 -26 2 -58q0 -35 -3 -60q-7 -80 -43.5 -149.5t-99.5 -105.5zM399 52q50 33 80 99q38 80 41 199q-4 162 -71 250q-54 71 -128 74h-1h-1q-73 -3 -127 -74q-67 -88 -71 -250q3 -115 38 -195q29 -65 77 -99q28 7 59 8q5 1 10 1q47 2 94 -13zM303 39q-13 -1 -27 -4q22 -9 44 -9
q19 0 37 6q-27 9 -54 7z" />
    <glyph glyph-name="R" unicode="R" horiz-adv-x="540" 
d="M371 347q46 -15 74.5 -54.5t28.5 -87.5v-207h-66v219q0 44 -31 75t-75 31h-75h-19h-67v-325h-57h-9v693v9h195h19q63 -3 111.5 -35.5t68.5 -90.5q9 -29 9 -59q0 -125 -107 -168zM141 671v-317h31h35.5h31.5h8h5q78 0 119 41t41 119q0 43 -18 78q-42 80 -148 79h-105z" />
    <glyph glyph-name="S" unicode="S" horiz-adv-x="561" 
d="M179 20q-64 25 -100 73.5t-36 116.5q-2 22 15.5 33t36.5 2q21 -9 21 -35q0 -88 49 -135q39 -36 88 -45.5t98 10.5q41 16 71.5 49t32.5 73q3 46 -36 82q-23 22 -65 47q-27 15 -83 43q-93 46 -128 71q-39 29 -60 67t-15 82q9 62 66 104q59 44 141 45q41 0 79 -10t71 -29
t53.5 -53t21.5 -77q1 -21 -15.5 -31.5t-33.5 -2.5t-18 33q-3 71 -53 110q-44 35 -105 33q-57 -2 -101 -35q-43 -32 -48 -75q-9 -65 75 -111q25 -14 71 -36t63 -31q99 -52 139 -100q53 -63 39 -131q-10 -44 -43 -78.5t-78 -54.5q-50 -21 -106 -22.5t-107 18.5z" />
    <glyph glyph-name="T" unicode="T" horiz-adv-x="511" 
d="M222 670h-217v30h492h9v-30h-218v-672h-66v672z" />
    <glyph glyph-name="U" unicode="U" horiz-adv-x="579" 
d="M186 16q-119 56 -119 228v456h66v-456q0 -201 174 -208q59 -3 99 21q74 44 74 176v467h30v-471q0 -111 -50 -173t-157 -63q-67 -1 -117 23z" />
    <glyph glyph-name="V" unicode="V" horiz-adv-x="572" 
d="M293 116l12 -34l221 618h32l-5 -12q-93 -260 -244 -684l-3 -6h-41l-251 702h70l2 -6q38 -103 106.5 -297t100.5 -281z" />
    <glyph glyph-name="W" unicode="W" horiz-adv-x="848" 
d="M553 688q-41 -116 -94 -264q66 -188 110 -308l12 -34l221 618h32l-5 -12q-89 -247 -245 -684l-2 -6h-41l-117 328q-62 -173 -115 -322l-3 -6h-41l-251 702h70l2 -6q37 -102 105.5 -295t101.5 -283l12 -34l103 288l-118 330h70l2 -6q33 -90 81 -226l83 232h32z" />
    <glyph glyph-name="X" unicode="X" horiz-adv-x="533" 
d="M26 -2l208 344l-215 358h78l175 -294l177 294h35l-194 -322l227 -380h-77l-189 315l-190 -315h-35z" />
    <glyph glyph-name="Y" unicode="Y" horiz-adv-x="524" 
d="M229 -2v298l-221 404h76l2 -5q33 -59 94.5 -172.5t91.5 -166.5l10 -19l199 363h34l-220 -401v-301h-66z" />
    <glyph glyph-name="Z" unicode="Z" horiz-adv-x="526" 
d="M510 700l-399 -672h380v-30h-9h-450h-16l399 672l-378 -1v30h9q18 0 189 0.5t259 0.5h16z" />
    <glyph glyph-name="bracketleft" unicode="[" horiz-adv-x="187" 
d="M190 701h-79v-703h79v-33h-115v768h115v-32z" />
    <glyph glyph-name="backslash" unicode="\" horiz-adv-x="426" 
d="M11 737h42l360 -776h-41z" />
    <glyph glyph-name="bracketright" unicode="]" horiz-adv-x="187" 
d="M-4 -2h79v703h-79v32h115v-768h-115v33z" />
    <glyph glyph-name="asciicircum" unicode="^" horiz-adv-x="337" 
d="M283 556l-115 70l-115 -70q-8 -6 -16 -3.5t-9.5 8.5t3.5 12v1l130 123q7 7 14 0l130 -123l1 -1q5 -6 2.5 -12.5t-9.5 -8t-16 3.5z" />
    <glyph glyph-name="underscore" unicode="_" horiz-adv-x="491" 
d="M474 0h-457v38h457v-38z" />
    <glyph glyph-name="grave" unicode="`" horiz-adv-x="265" 
d="M93 687l147 -182l-195 131q-24 16 -11 43q11 25 36 21q12 -3 23 -12v-1z" />
    <glyph glyph-name="a" unicode="a" horiz-adv-x="486" 
d="M362 299q-5 53 -32 88t-62.5 43t-70 -0.5t-58 -41.5t-23.5 -80q0 -23 -17.5 -31t-34 2t-14.5 30q0 23 9 45q20 49 76 79q55 28 117 24q67 -5 113 -47q52 -48 62 -135q1 -7 3 -27v-247h-67v49q-47 -44 -131 -51q-48 -4 -94 9t-70 46q-20 27 -20 62q0 44 26.5 67.5
t73.5 36.5q17 5 75 17q24 5 37.5 8t36.5 10.5t39 18.5t26 25zM363 213q1 20 1 43q-31 -27 -113 -45q-71 -16 -91 -24q-46 -19 -46 -72q0 -47 31 -72q39 -30 95 -20.5t85 47.5q36 48 38 143z" />
    <glyph glyph-name="b" unicode="b" horiz-adv-x="490" 
d="M130 35v-34h-66v149v5v170v5v370h66v-271q41 25 92.5 29t95.5 -14q65 -26 95.5 -86t30.5 -137q1 -73 -29.5 -129.5t-95.5 -79.5q-48 -17 -103 -9q-48 7 -86 32zM130 329v-1v-177v-2v-7q1 -45 29.5 -78t72.5 -40q57 -8 98 35q48 51 48 157q0 90 -27 147q-24 47 -64 64
q-36 15 -73.5 4t-60.5 -41q-22 -28 -23 -61z" />
    <glyph glyph-name="c" unicode="c" horiz-adv-x="472" 
d="M359 150q0 23 17.5 31t34 -2t14.5 -30q2 -74 -72 -118q-73 -44 -158 -26q-97 20 -133 114q-17 44 -17 102q1 106 52 169q45 54 118 66q65 10 125 -17q61 -27 79 -77q6 -16 6 -32q2 -18 -14.5 -27t-34 -2t-17.5 28q-1 33 -22 61q-24 30 -61.5 41t-73.5 -4q-40 -17 -63 -65
q-28 -56 -28 -146q0 -135 76 -178q54 -32 110 0q57 31 62 97v15z" />
    <glyph glyph-name="d" unicode="d" horiz-adv-x="490" 
d="M359 429v271h66v-370v-5v-170v-5v-149h-66v34q-38 -25 -86 -32q-54 -8 -103 9q-65 23 -95.5 79.5t-29.5 129.5q1 77 31.5 137t95.5 86q44 18 95 14t92 -29zM359 150v1v177v1q-1 33 -22 61q-24 30 -61.5 41t-73.5 -4q-40 -17 -63 -64q-28 -57 -28 -147q0 -106 49 -157
q40 -43 98 -35q29 5 52 21.5t36 42t13 54.5v8z" />
    <glyph glyph-name="e" unicode="e" horiz-adv-x="474" 
d="M113 159q6 -66 45 -102q35 -34 84 -33q17 0 34 5q40 12 61.5 44.5t21.5 76.5q0 23 17.5 31t34 -2t14.5 -30q0 -73 -74 -117.5t-158 -26.5q-97 21 -132 115q-16 44 -16 101q1 106 53 168q45 54 118 66q66 11 126 -15q61 -27 78 -77q5 -15 5 -31q0 -26 -13 -45
q-19 -27 -67 -44q-23 -7 -93 -22q-50 -10 -76 -19q-45 -17 -63 -43zM111 216v-10.5v-7.5q32 27 106 45t83 21q39 13 52 32q7 11 7 27q0 36 -18.5 64.5t-51.5 41.5q-30 11 -60.5 5t-54.5 -28q-63 -57 -63 -190z" />
    <glyph glyph-name="f" unicode="f" horiz-adv-x="278" 
d="M159 600v-142h103v-29h-103v-431h-66v431h-70v29h70v64q0 68 16 104q20 46 71 70t98 9q38 -13 50 -43q4 -14 1 -25.5t-12 -16t-19.5 -5t-20 6.5t-13.5 20q-6 16 -17 26q-21 21 -51 10.5t-35 -39.5q-2 -7 -2 -39z" />
    <glyph glyph-name="g" unicode="g" horiz-adv-x="535" 
d="M69 64q-13 30 -1 64q9 25 30 44q-49 43 -49 116q1 84 61 131q50 39 121 39h4h4q58 0 103 -27q59 40 118 20q39 -13 50 -42v-1q4 -14 1 -25t-12 -16t-19 -5.5t-20 6.5t-14 21q-6 15 -16 25q-14 13 -33.5 13.5t-33.5 -10.5q57 -47 58 -129q0 -76 -50 -117t-128 -42h-4h-4
h-4h-4q-63 1 -108 28q-29 -26 -26 -43q3 -18 49 -25q75 -5 120 -6q72 -1 117 -36q42 -32 48 -82q7 -62 -40 -109q-52 -52 -143 -52q-41 -1 -80 10.5t-71.5 39.5t-40.5 67q-9 45 9 81v0q13 19 33.5 17.5t28 -17t-3.5 -36.5q-13 -22 -10 -46q7 -42 49.5 -68.5t86.5 -25.5
q58 1 96 46q35 42 24 85q-15 54 -100 58q-22 1 -64 1q-38 0 -52 1q-24 1 -47.5 14t-32.5 33zM117 284q0 -61 29.5 -96t88.5 -37q59 2 88.5 37t29.5 96q0 98 -55 135q-26 18 -63 18t-63 -18q-55 -37 -55 -135z" />
    <glyph glyph-name="h" unicode="h" horiz-adv-x="498" 
d="M131 390q35 39 86 56q65 21 123 -2q51 -20 74.5 -66t23.5 -105v-275h-66v275q0 32 -7 59.5t-26 51.5t-49 33q-42 12 -86 -8q-46 -20 -73 -66v-345h-66v695h66v-303z" />
    <glyph glyph-name="i" unicode="i" horiz-adv-x="196" 
d="M131 457v-459h-66v459h66zM57 618q0 17 12 29t29 12t29 -12t12 -29t-12 -29t-29 -12t-29 12t-12 29z" />
    <glyph glyph-name="j" unicode="j" horiz-adv-x="196" 
d="M-40 -128q6 -16 16 -26q22 -21 51.5 -10.5t35.5 39.5q2 7 2 40v542h66v-465q0 -68 -16 -103q-20 -46 -71 -70.5t-98 -9.5q-39 13 -50 43q-5 14 -1.5 25.5t12.5 16.5t19 5.5t20 -7t14 -20.5zM57 618q0 17 12 29t29 12t29 -12t12 -29t-12 -29t-29 -12t-29 12t-12 29z" />
    <glyph glyph-name="k" unicode="k" horiz-adv-x="432" 
d="M65 -2v327v5v370h66v-445l207 201h43l-204 -199l237 -259h-94l-189 210v-210h-66z" />
    <glyph glyph-name="l" unicode="l" horiz-adv-x="196" 
d="M65 -2v327v5v370h66v-702h-66z" />
    <glyph glyph-name="m" unicode="m" horiz-adv-x="763" 
d="M499 403q-45 -19 -81 -66q5 -23 5 -64v-275h-66v275q0 73 -24 107q-14 19 -35 28q-37 15 -83 -6q-47 -22 -84 -74v-330h-66v451h66v-75q29 30 67.5 52t75.5 26q74 7 117 -54q10 -14 17 -29q29 33 69 56t78 27q73 7 117 -54q20 -28 26 -55.5t6 -69.5v-275h-66v275
q0 73 -24 107q-14 19 -35 28q-36 14 -80 -5z" />
    <glyph glyph-name="n" unicode="n" horiz-adv-x="483" 
d="M131 449v-75q29 30 67.5 52t75.5 26q74 7 117 -54q20 -28 26 -55.5t6 -69.5v-275h-66v275q0 73 -24 107q-14 19 -35 28q-37 15 -83 -6q-47 -22 -84 -74v-330h-66v451h66z" />
    <glyph glyph-name="o" unicode="o" horiz-adv-x="486" 
d="M49 177q-9 77 7 137q13 52 47.5 87.5t86.5 48.5q23 6 48 6h2h2h6q22 0 42 -5q55 -12 91.5 -50t49.5 -94q15 -62 5 -136q-9 -65 -46 -110t-99 -58q-21 -5 -43 -5h-6h-2h-2q-25 -1 -48 6q-42 10 -72.5 35.5t-47 60t-21.5 77.5zM154 384q-39 -55 -41 -157q2 -103 41 -157
q16 -22 36.5 -35t45.5 -15h8h4q50 4 83 50q39 54 41 157q-2 102 -41 157q-33 45 -83 49h-4h-7q-50 -4 -83 -49z" />
    <glyph glyph-name="p" unicode="p" horiz-adv-x="491" 
d="M131 29v-225h-66v325v5v170v5v11v129h66v-25q38 25 86 32q55 8 103 -9q65 -23 95.5 -79.5t29.5 -130.5q0 -76 -30.5 -136t-95.5 -86q-44 -18 -95.5 -14t-92.5 28zM131 309v-1v-177v-1q1 -33 23 -61q23 -31 60.5 -41.5t73.5 3.5q40 18 64 65q27 57 27 147q0 106 -48 157
q-41 43 -98 35q-44 -7 -72.5 -40.5t-29.5 -77.5v-8z" />
    <glyph glyph-name="q" unicode="q" horiz-adv-x="491" 
d="M359 424v25h66v-140v-5v-170v-5v-325h-66v225q-41 -24 -92 -28t-95 14q-65 26 -95.5 86t-31.5 136q-1 74 29.5 130.5t95.5 79.5q49 17 103 9q48 -7 86 -32zM359 130v1v177v1v8q-1 44 -29.5 77.5t-71.5 40.5q-58 8 -98 -35q-49 -51 -49 -157q0 -90 28 -147q23 -47 63 -65
q36 -14 73.5 -3.5t61.5 41.5q21 28 22 61z" />
    <glyph glyph-name="r" unicode="r" horiz-adv-x="323" 
d="M131 449q59 40 119 21q38 -13 50 -43q4 -14 1 -25.5t-12.5 -16.5t-19.5 -5.5t-19.5 7t-13.5 20.5q-6 16 -17 26q-22 20 -51.5 10t-35.5 -39q-1 -5 -1 -11v-395h-66v451h66z" />
    <glyph glyph-name="s" unicode="s" horiz-adv-x="431" 
d="M188 1q-60 11 -102 49t-42 96q-2 19 15 29t34 2t17 -31q0 -95 69 -119q26 -9 57 -5t58.5 21.5t36.5 44.5q7 21 0 43q-7 20 -28.5 36t-48.5 25t-58.5 20t-58.5 22t-47.5 30t-27.5 43q-11 42 8 77q19 34 59 51.5t83 18.5q41 0 78 -12.5t63.5 -43t26.5 -72.5
q1 -17 -13.5 -26t-30 -2t-15.5 28q0 69 -48 93q-25 14 -59 12q-12 -1 -24 -4q-28 -7 -54 -26t-29 -44q-1 -13 4 -25q9 -21 48 -37q8 -4 85 -30q25 -9 42.5 -16.5t38.5 -20.5t34 -31t17 -40q14 -70 -26 -114q-28 -30 -72.5 -40t-89.5 -2z" />
    <glyph glyph-name="t" unicode="t" horiz-adv-x="293" 
d="M79 429h-50v29h50v160h66v-160h123v-29h-123v-251q0 -86 24 -120q31 -44 88 -32l11 2v-20l-6 -2q-18 -6 -34 -8q-74 -7 -117 54q-20 28 -26 55.5t-6 70.5v251z" />
    <glyph glyph-name="u" unicode="u" horiz-adv-x="483" 
d="M351 -2v79q-19 -20 -41.5 -36.5t-49.5 -28t-52 -14.5q-74 -7 -117 54q-20 28 -26 55.5t-6 70.5v275h66v-275q0 -73 24 -107q14 -20 35 -29q37 -15 83 7q48 22 84 74v330h66v-455h-66z" />
    <glyph glyph-name="v" unicode="v" horiz-adv-x="435" 
d="M94 448q9 -22 62 -154.5t80 -203.5l145 363h33l-5 -12q-133 -333 -174 -438l-2 -5h-31l-181 455h71z" />
    <glyph glyph-name="w" unicode="w" horiz-adv-x="596" 
d="M92 453l144 -363l45 113l-99 250h71l64 -161l64 161h33l-81 -202l64 -161l145 363h32l-156 -393q-1 -2 -4 -9.5t-4 -11.5l-16 -41h-31l-65 164q-30 -74 -63 -159l-2 -5h-31l-15 38q-1 3 -3 6l-7 18l-156 393h71z" />
    <glyph glyph-name="x" unicode="x" horiz-adv-x="393" 
d="M26 -2l137 227l-137 228h73l101 -168l101 168h34l-118 -196l155 -259h-73l-119 198l-120 -198h-34z" />
    <glyph glyph-name="y" unicode="y" horiz-adv-x="433" 
d="M91 456l144 -363l145 363h32l-207 -527q-50 -120 -120 -125q-30 -3 -61 17q-20 12 -33.5 31t-13.5 41q1 14 8.5 23.5t20.5 11.5q16 1 27 -10q13 -12 11 -31q-1 -21 6.5 -37.5t26.5 -18.5q5 0 11 1q26 4 48 34.5t36 64.5l28 71l-16 40q0 2 -1 3l-2 6l-22 55l-139 350h71z
" />
    <glyph glyph-name="z" unicode="z" horiz-adv-x="395" 
d="M34 458h266h73l-9 -14q-43 -72 -126.5 -211.5t-123.5 -205.5h249v-29h-9h-314h-16l8 14q45 74 129 213.5t121 202.5h-248v30z" />
    <glyph glyph-name="braceleft" unicode="{" horiz-adv-x="270" 
d="M145 378q-16 -19 -37 -29q20 -11 36 -29q34 -42 34 -113v-91v-21.5t1 -19.5t2 -20t3.5 -17t6 -17t9.5 -12.5t13.5 -12t17.5 -7.5t23 -5l8 -1v-18h-9q-48 1 -74 23q-37 31 -37 119v102q0 71 -27 97q-19 19 -70 33l-7 2v16l7 2q51 14 70 33q27 27 27 97v102q0 88 37 119
q26 22 74 23h9v-18h-8q-13 -2 -23 -6t-17.5 -7.5t-13.5 -12t-9.5 -12.5t-6 -17t-3.5 -17t-2 -20t-1 -19v-22v-91q0 -71 -33 -113z" />
    <glyph glyph-name="verticalbar" unicode="|" horiz-adv-x="188" 
d="M113 -39h-38v776h38v-776z" />
    <glyph glyph-name="braceright" unicode="}" horiz-adv-x="270" 
d="M125 320q16 18 36 29q-21 10 -37 29q-33 42 -33 113v91v22t-0.5 19t-2 20t-4 17t-6 17t-9 12.5t-13 12t-18 7.5t-23.5 6h-8v18h9q49 -1 74 -23q37 -31 37 -119v-102q0 -70 27 -97q19 -19 71 -33l6 -2v-16l-6 -2q-52 -14 -71 -33q-27 -26 -27 -97v-102q0 -88 -37 -119
q-25 -22 -74 -23h-9v18l8 1q13 1 23.5 5t18 7.5t13 12t9 13t6 17t4 16.5t2 20t0.5 19.5v21.5v91q0 71 34 113z" />
    <glyph glyph-name="asciitilde" unicode="~" horiz-adv-x="481" 
d="M29 263l18 44q16 40 40.5 61t52 24.5t58 -0.5t61.5 -11.5t59 -11.5t55 3t46 29l33 38l-18 -48q-28 -72 -82 -87q-8 -2 -17 -3.5t-21 -0.5t-18 1t-21 3.5t-18 4t-20 4.5l-17 4q-21 5 -34 8t-32.5 4.5t-33.5 -1t-29.5 -10.5t-28.5 -21z" />
    <glyph glyph-name="uni007F" 
 />
    <glyph glyph-name="nonbreakingspace" unicode="&#xa0;" 
 />
    <glyph glyph-name="exclamdown" unicode="&#xa1;" horiz-adv-x="217" 
d="M127 544l28 -453q1 -23 -15 -37q-13 -11 -31 -11q-22 -1 -35.5 13t-12.5 36l35 452h31zM145 622q0 -14 -10 -24t-24 -10t-23.5 10t-9.5 24t9.5 23.5t23.5 9.5t24 -9.5t10 -23.5z" />
    <glyph glyph-name="cent" unicode="&#xa2;" horiz-adv-x="451" 
d="M289 526l-93 -348q23 -8 49 -5q38 6 64 36q28 32 26 77q0 21 16 28.5t31.5 -1.5t14.5 -28q0 -24 -10 -47q-22 -50 -84 -74q-56 -22 -114 -10l-23 -88l-37 9l24 90q-52 24 -76.5 73.5t-24.5 111.5q1 120 72 177q57 46 136 37l23 86l36 -10l-22 -84q19 -6 36 -15.5
t31.5 -23t23 -31.5t9.5 -38q1 -16 -14.5 -24.5t-31.5 -2t-16 25.5q-1 50 -46 79zM113 346q0 -102 49 -147l92 342q-51 11 -89 -26q-52 -50 -52 -169z" />
    <glyph glyph-name="sterling" unicode="&#xa3;" horiz-adv-x="370" 
d="M155 321q1 -56 -6.5 -97t-33.5 -73h206v-8v-46h-270v43l5 2q14 7 24 18q20 23 24 71q3 29 0 90h-57v38h56q-1 78 21 129q21 49 59 67q29 15 62.5 9t55.5 -30q20 -21 24 -48l1 -9l-47 -10l-3 8q-7 28 -32 37q-33 11 -60 -23q-33 -42 -30 -130h85v-38h-84z" />
    <glyph glyph-name="currency" unicode="&#xa4;" horiz-adv-x="571" 
d="M92 353q0 50 26 96l-63 62l72 72l62 -62q44 26 96 26q51 0 96 -27l62 63l73 -70l-63 -63q26 -43 26 -97q0 -52 -26 -97l61 -61l-71 -71l-62 61q-46 -25 -96 -25q-56 0 -97 25l-61 -60l-71 71l62 61q-26 45 -26 96zM193 353q0 -38 26.5 -65t65.5 -27q40 0 67 27t27 65
q0 39 -27.5 66t-66.5 27q-38 0 -65 -27.5t-27 -65.5z" />
    <glyph glyph-name="yen" unicode="&#xa5;" horiz-adv-x="451" 
d="M200 224h-104v38h104v40h-104v37h88l-143 261h60l2 -4q23 -42 67 -122.5t65 -118.5l5 -9l140 254h30l-144 -261h91v-37h-105v-40h105v-38h-105v-127h-52v127z" />
    <glyph glyph-name="brokenbar" unicode="&#xa6;" horiz-adv-x="550" 
d="M222 757h107v-398h-107v398zM222 171h107v-398h-107v398z" />
    <glyph glyph-name="section" unicode="&#xa7;" horiz-adv-x="522" 
d="M388 180q-2 -44 -30 -74t-72.5 -40t-89.5 -2q-60 11 -102 49t-42 96q-2 19 15 29t34 2t17 -31q0 -95 69 -119q26 -9 57 -5t58.5 21.5t36.5 44.5q7 21 0 43q-9 24 -37 41t-63.5 28.5t-70.5 23.5t-62.5 33t-35.5 50q-11 42 8 76q20 36 66 56q-1 27 12 50q19 34 59 52t83 19
q41 0 78 -13t63.5 -43t26.5 -72q1 -18 -13.5 -26.5t-30 -1.5t-15.5 27q0 69 -48 94q-25 13 -59 12q-12 -1 -24 -4q-13 -3 -26 -9t-25.5 -15t-21 -21t-10.5 -25t4 -25q9 -21 48 -38q7 -3 85 -29q25 -9 42.5 -16.5t38.5 -20.5t34 -31t17 -40q14 -71 -26 -114q-19 -21 -48 -32z
M384 220q1 -2 1 -4q49 35 32 84q-7 20 -28 35t-47 24.5t-56.5 20t-57 21t-48 28t-30.5 40.5q-49 -35 -31 -74q9 -21 48 -38q8 -3 85 -29q25 -9 42.5 -16.5t38.5 -20.5t34 -31t17 -40z" />
    <glyph glyph-name="dieresis" unicode="&#xa8;" horiz-adv-x="606" 
d="M136 686q0 32 18.5 49t49.5 17q32 0 50.5 -18t18.5 -48q0 -29 -18.5 -47t-50.5 -18q-31 0 -49.5 17t-18.5 48zM333 686q0 34 20 50t49 16q32 0 50.5 -17.5t18.5 -48.5q0 -30 -19 -47.5t-50 -17.5q-29 0 -49 16t-20 49z" />
    <glyph glyph-name="copyright" unicode="&#xa9;" horiz-adv-x="639" 
d="M319.5 625q110.5 0 189 -78.5t78.5 -189t-78.5 -189t-189 -78.5t-189 78.5t-78.5 189t78.5 189t189 78.5zM448 249v-2q1 -37 -36 -58.5t-76 -20.5h-5q-41 1 -72 23t-47 55t-20 74q-1 13 -1 32v31q3 33 15 63q8 21 20 38t27.5 29.5t35 19t42.5 6.5h5q41 1 77 -20.5
t35 -59.5q0 -10 -9.5 -14.5t-19 -0.5t-9.5 16v1q1 28 -22.5 47t-52.5 18q-39 -2 -68 -39q-36 -47 -38 -133q2 -87 38 -133q29 -38 68 -39q29 -1 52.5 18t22.5 47v1q0 11 9.5 15.5t19 0t9.5 -14.5zM553 357.5q0 96.5 -68.5 165t-165 68.5t-165 -68.5t-68.5 -165t68.5 -165
t165 -68.5t165 68.5t68.5 165z" />
    <glyph glyph-name="ordfeminine" unicode="&#xaa;" horiz-adv-x="277" 
d="M193 542q-3 24 -15 39.5t-28 19t-31.5 -0.5t-26 -19t-10.5 -36q0 -19 -18 -21q-18 -1 -23 15q-1 3 0 7q0 43 44.5 66t92.5 2.5t56 -84.5q1 -3 1 -14v-125h-41v19q-24 -17 -59 -20q-36 -3 -65.5 12t-29.5 50q0 40 52 55q9 2 37 8q51 11 64 27zM194 499v12q-15 -10 -45 -17
q-41 -9 -48 -12q-20 -8 -20 -31q0 -21 14 -32q17 -13 42.5 -8.5t38.5 21.5q16 22 18 67z" />
    <glyph glyph-name="guillemotleft" unicode="&#xab;" horiz-adv-x="660" 
d="M112 226l385 -193v-42l-469 235l469 234v-42zM236 226l384 -193v-42l-468 235l468 234v-42z" />
    <glyph glyph-name="logicalnot" unicode="&#xac;" horiz-adv-x="571" 
d="M528 121h-107v178h-378v107h485v-285z" />
    <glyph glyph-name="softhyphen" unicode="&#xad;" horiz-adv-x="0" 
 />
    <glyph glyph-name="registered" unicode="&#xae;" horiz-adv-x="639" 
d="M319.5 625q110.5 0 189 -78.5t78.5 -189t-78.5 -189t-189 -78.5t-189 78.5t-78.5 189t78.5 189t189 78.5zM319 124q97 0 165.5 68.5t68.5 165t-68.5 165t-165 68.5t-165 -68.5t-68.5 -164.5q0 -64 31 -117.5t85 -85t117 -31.5zM417 438q0 -60 -52 -81q22 -7 36 -26
t14 -43v-100h-32v106q0 21 -15 36t-37 15h-35h-10h-32v-157h-5h-27v4v336h4h99q31 -2 54.5 -17.5t32.5 -44.5q5 -13 5 -28zM308 360q37 0 57 20t20 58q0 21 -9 38q-20 38 -72 38h-50v-154h23h24h4h3z" />
    <glyph glyph-name="macron" unicode="&#xaf;" horiz-adv-x="365" 
d="M385 330h-368v38h368v-38z" />
    <glyph glyph-name="degree" unicode="&#xb0;" horiz-adv-x="348" 
d="M174 573q55 0 93.5 -39t38.5 -94t-38.5 -94t-93.5 -39t-94 39t-39 94t39 94t94 39zM174 525q-35 0 -60 -25t-25 -60t25 -60t60 -25t60 25t25 60t-25 60t-60 25z" />
    <glyph glyph-name="plusminus" unicode="&#xb1;" horiz-adv-x="571" 
d="M232 329h-189v107h189v190h107v-190h189v-107h-189v-188h-107v188zM43 0v107h485v-107h-485z" />
    <glyph glyph-name="twosuperior" unicode="&#xb2;" horiz-adv-x="258" 
d="M214 552q-2 -30 -22 -55.5t-44 -40t-47.5 -34.5t-30.5 -40h142v-37h-169v29q3 24 17 44t32.5 35l37 30t31.5 34.5t13.5 42t-10 39.5t-32.5 20q-19 2 -34 -12t-14 -33q0 -13 -10 -17.5t-20 0.5t-10 16q0 32 28.5 50.5t61.5 16.5q37 -3 59.5 -27t20.5 -61z" />
    <glyph glyph-name="threesuperior" unicode="&#xb3;" horiz-adv-x="256" 
d="M164 503v0q29 -12 41 -41q16 -39 -5 -77q-23 -40 -73 -40q-33 0 -59 17.5t-25 49.5q0 11 10 15.5t20 0t10 -16.5v-1q-1 -19 11.5 -31.5t32.5 -12.5q26 0 38.5 28t4 58t-33.5 36h-9h-32v22h9q28 0 47 16q16 14 19.5 36t-8.5 39.5t-35 17.5q-20 0 -32.5 -13t-11.5 -32v0
q0 -13 -10 -17.5t-20 0.5t-10 16q-1 32 24.5 49.5t59.5 17.5q29 0 51 -16.5t29.5 -38t-3 -45.5t-40.5 -37z" />
    <glyph glyph-name="acute" unicode="&#xb4;" horiz-adv-x="606" 
d="M162 606v13q84 98 115 147h167v-10q-25 -25 -86.5 -75.5t-96.5 -74.5h-99z" />
    <glyph glyph-name="mu" unicode="&#xb5;" horiz-adv-x="660" 
d="M227 227q0 -59 21.5 -88.5t67.5 -29.5q62 0 89.5 42t27.5 138v257h149v-546h-113l-21 73h-7q-21 -42 -50 -62.5t-72 -20.5q-30 0 -55.5 11.5t-41.5 32.5l3 -41l2 -77v-156h-149v786h149v-319z" />
    <glyph glyph-name="paragraph" unicode="&#xb6;" horiz-adv-x="654" 
d="M570 -127h-79v789h-81v-789h-79v400q-30 -9 -71 -9q-105 0 -155 61t-50 184q0 127 53.5 189t166.5 62h295v-887z" />
    <glyph glyph-name="periodcentered" unicode="&#xb7;" horiz-adv-x="156" 
d="M129 368.5q0 -20.5 -15 -35t-36 -14.5q-14 0 -25.5 6.5t-18.5 18t-7 25.5q0 20 15 34.5t36 14.5t36 -14.5t15 -35z" />
    <glyph glyph-name="cedilla" unicode="&#xb8;" horiz-adv-x="205" 
d="M204 -122q0 -62 -37 -90t-114 -28q-38 0 -71 10v82q13 -3 35.5 -6.5t34.5 -3.5q35 0 35 30q0 41 -81 53l38 75h94l-13 -30q36 -12 57.5 -36.5t21.5 -55.5z" />
    <glyph glyph-name="onesuperior" unicode="&#xb9;" horiz-adv-x="134" 
d="M85 345h-37v295h37v-295z" />
    <glyph glyph-name="ordmasculine" unicode="&#xba;" horiz-adv-x="296" 
d="M144 346q-44 0 -69.5 36.5t-29.5 83.5q-2 24 0 49q3 48 28.5 86.5t70.5 38.5h7q45 0 70.5 -38.5t29.5 -86.5q2 -25 -1 -49q-4 -47 -29.5 -83.5t-69.5 -36.5h-2h-5zM148 619q-25 -1 -41 -27t-20 -62.5t0 -73.5t20.5 -63t40.5 -26t40.5 26t20.5 63t0 73.5t-20.5 62.5
t-40.5 27v0z" />
    <glyph glyph-name="guillemotright" unicode="&#xbb;" horiz-adv-x="660" 
d="M547 226l-385 192v42l469 -234l-469 -235v42zM424 226l-385 192v42l469 -234l-469 -235v42z" />
    <glyph glyph-name="onequarter" unicode="&#xbc;" horiz-adv-x="880" 
d="M821 74h-61v-74h-116v74h-187v75l188 282h115v-275h61v-82zM644 156v80q0 42 3 90q-4 -13 -17 -39.5t-21 -37.5l-62 -93h97zM63 345h-37v295h37v-295zM669 714l-396 -714h-117l396 714h117z" />
    <glyph glyph-name="onehalf" unicode="&#xbd;" horiz-adv-x="880" 
d="M63 345h-37v295h37v-295zM669 714l-396 -714h-117l396 714h117zM709 266q-2 -30 -22 -55.5t-44 -40t-47.5 -34.5t-30.5 -40h142v-37h-169v29q3 24 17 44t32.5 35l37 30t31.5 34.5t13.5 42t-10 39.5t-32.5 20q-19 2 -34 -12t-14 -33q0 -13 -10 -17.5t-20 0.5t-10 16
q0 32 28.5 50.5t61.5 16.5q37 -3 59.5 -27t20.5 -61z" />
    <glyph glyph-name="threequarters" unicode="&#xbe;" horiz-adv-x="880" 
d="M836 74h-61v-74h-116v74h-187v75l188 282h115v-275h61v-82zM659 156v80q0 42 3 90q-4 -13 -17 -39.5t-21 -37.5l-62 -93h97zM179 503v0q29 -12 41 -41q16 -39 -5 -77q-23 -40 -73 -40q-33 0 -59 17.5t-25 49.5q0 11 10 15.5t20 0t10 -16.5v-1q-1 -19 11.5 -31.5
t32.5 -12.5q26 0 38.5 28t4 58t-33.5 36h-9h-32v22h9q28 0 47 16q16 14 19.5 36t-8.5 39.5t-35 17.5q-20 0 -32.5 -13t-11.5 -32v0q0 -13 -10 -17.5t-20 0.5t-10 16q-1 32 24.5 49.5t59.5 17.5q29 0 51 -16.5t29.5 -38t-3 -45.5t-40.5 -37zM704 714l-396 -714h-117l396 714
h117z" />
    <glyph glyph-name="questiondown" unicode="&#xbf;" horiz-adv-x="432" 
d="M245 588q-14 0 -23.5 10t-9.5 24t9.5 23.5t23.5 9.5q9 0 17 -4.5t12.5 -12t4.5 -16.5q0 -14 -10 -24t-24 -10zM301 162q1 33 25 44.5t46.5 -2.5t21.5 -43q0 -10 -3 -19q-10 -32 -41.5 -55t-69.5 -34q-34 -10 -67 -10q-100 0 -146 69q-17 26 -21.5 53.5t1.5 51t21 47.5
t32.5 43t41.5 39q43 37 61 71q27 49 26 119v9h33v-9q0 -87 -25 -147q-16 -38 -56 -87q-1 -2 -3.5 -5t-4.5 -5q-87 -107 -50 -172q13 -22 38.5 -34t52.5 -12q33 0 58 19q32 24 29 68v1z" />
    <glyph glyph-name="Agrave" unicode="&#xc0;" horiz-adv-x="607" 
d="M362 737l-13 -12l-145 97q-24 17 -10 44q13 25 38 19q10 -3 20 -12zM422 252h-275l-102 -254h-32l5 13q12 30 134 336q100 249 134 336l3 6h30l276 -694h-70l-3 6q-8 21 -100 251zM159 281h252q-84 211 -126 316z" />
    <glyph glyph-name="Aacute" unicode="&#xc1;" horiz-adv-x="607" 
d="M422 252h-275l-102 -254h-32l5 13q12 30 134 336q100 248 134 336l3 6h30l276 -694h-70l-3 6q-8 21 -100 251zM206 737l110 136q28 25 51 3q19 -18 8 -40q-3 -8 -11 -14l-145 -97zM159 281h252q-84 211 -126 316z" />
    <glyph glyph-name="Acircumflex" unicode="&#xc2;" horiz-adv-x="607" 
d="M305 802l-90 -55q-7 -5 -15 -3t-9.5 8t3.5 13l105 108q6 6 13 0v-1l106 -108q3 -4 3.5 -8t-1.5 -7t-5.5 -5t-8.5 -1.5t-10 3.5zM422 252h-275l-102 -254h-32l5 13q12 30 134 336q103 256 134 336l3 6h30l276 -694h-70l-3 6q-10 26 -100 251zM159 281h252
q-124 311 -126 316z" />
    <glyph glyph-name="Atilde" unicode="&#xc3;" horiz-adv-x="607" 
d="M163 767q16 39 43 53t56.5 10t59.5 -11.5t58.5 -6t45.5 21.5l33 38l-18 -47q-19 -53 -59 -64q-23 -5 -52 -0.5t-54.5 12.5t-52.5 5.5t-46 -21.5l-32 -34zM422 252h-275l-102 -254h-32l5 13q12 30 134 336q103 256 134 336l3 6h30l276 -694h-70l-3 6q-13 32 -100 251z
M159 281h252q-104 260 -126 316z" />
    <glyph glyph-name="Adieresis" unicode="&#xc4;" horiz-adv-x="607" 
d="M365 852q19 0 32.5 -13t13.5 -32t-13.5 -32.5t-32.5 -13.5t-32.5 13.5t-13.5 32.5q0 12 6 22.5t16.5 16.5t23.5 6zM243 852q19 0 32.5 -13t13.5 -32t-13.5 -32.5t-32.5 -13.5q-12 0 -22.5 6t-17 16.5t-6.5 23t6.5 23t17 16.5t22.5 6zM422 252h-275l-102 -254h-32l5 13
q14 34 134 336q103 257 134 336l3 6h30l276 -694h-70l-3 6q-43 109 -100 251zM159 281h252q-93 233 -126 316z" />
    <glyph glyph-name="Aring" unicode="&#xc5;" horiz-adv-x="607" 
d="M422 252h-275l-102 -254h-32l5 13q12 30 134 336q100 248 134 336l3 6h30l276 -694h-70l-3 6q-10 26 -100 251zM298 859q20 0 37 -9.5t27 -26.5t10 -37q0 -30 -21.5 -51.5t-52 -21.5t-52 21.5t-21.5 51.5t21.5 51.5t51.5 21.5zM298 817q-13 0 -22 -9t-9 -22t9 -22.5
t22 -9.5t22.5 9.5t9.5 22.5t-9.5 22t-22.5 9zM159 281h252q-84 211 -126 316z" />
    <glyph glyph-name="AE" unicode="&#xc6;" horiz-adv-x="916" 
d="M590 659v-291h229v-30h-229v-313h303v-30h-368l-3 6q-8 21 -100 251h-275l-102 -254h-32l5 13q12 30 134 336q103 256 134 336l3 6h30l206 -517v517h368v-30h-303zM159 281h252q-93 233 -126 316z" />
    <glyph glyph-name="Egrave" unicode="&#xc8;" horiz-adv-x="466" 
d="M346 737l-13 -12l-145 97q-24 17 -10 44q13 25 38 19q10 -3 20 -12h1zM139 659v-291h230v-30h-230v-313h304v-30h-369v694h369v-30h-304z" />
    <glyph glyph-name="Eacute" unicode="&#xc9;" horiz-adv-x="466" 
d="M171 737l109 136h1q27 25 50 3q19 -18 9 -40q-4 -8 -12 -14l-144 -97zM139 659v-291h230v-30h-230v-313h304v-30h-369v694h369v-30h-304z" />
    <glyph glyph-name="Ecircumflex" unicode="&#xca;" horiz-adv-x="466" 
d="M258 802l-90 -55q-8 -5 -15.5 -3t-9.5 8t3 13l105 108q7 6 14 0v-1l106 -108q5 -6 2.5 -12.5t-9.5 -8.5t-15 3zM139 659v-291h230v-30h-230v-313h304v-30h-369v694h369v-30h-304z" />
    <glyph glyph-name="Edieresis" unicode="&#xcb;" horiz-adv-x="466" 
d="M197.5 852q18.5 0 32 -13t13.5 -32t-13.5 -32.5t-32 -13.5t-32 13.5t-13.5 32.5t13.5 32t32 13zM139 659v-291h230v-30h-230v-313h304v-30h-369v694h369v-30h-304zM273 807q0 12 6.5 22.5t17 16.5t22.5 6q19 0 32.5 -13t13.5 -32t-13.5 -32.5t-32.5 -13.5t-32.5 13.5
t-13.5 32.5z" />
    <glyph glyph-name="Igrave" unicode="&#xcc;" horiz-adv-x="213" 
d="M194 737l-13 -12l-144 97q-25 17 -11 44q13 25 38 19q11 -3 20 -12h1zM74 -5v694h65v-694h-65z" />
    <glyph glyph-name="Iacute" unicode="&#xcd;" horiz-adv-x="213" 
d="M19 737l109 136h1q27 25 50 3q20 -18 9 -40q-5 -8 -12 -14l-144 -97zM74 -5v694h65v-694h-65z" />
    <glyph glyph-name="Icircumflex" unicode="&#xce;" horiz-adv-x="214" 
d="M106 802l-90 -55q-7 -5 -15 -3t-9.5 8t3.5 13l105 108q6 6 13 0v-1l106 -108q6 -6 3.5 -12.5t-9.5 -8.5t-16 3zM74 -5v694h65v-694h-65z" />
    <glyph glyph-name="Idieresis" unicode="&#xcf;" horiz-adv-x="214" 
d="M46 852q19 0 32 -13t13 -32t-13 -32.5t-32 -13.5t-32.5 13.5t-13.5 32.5q0 12 6 22.5t16.5 16.5t23.5 6zM74 689h65v-694h-65v694zM122 806.5q0 12.5 6 23t16.5 16.5t22.5 6q19 0 32.5 -13t13.5 -32t-13.5 -32.5t-32.5 -13.5q-12 0 -22.5 6t-16.5 16.5t-6 23z" />
    <glyph glyph-name="Eth" unicode="&#xd0;" horiz-adv-x="740" 
d="M23 415h67v299h224q175 0 271.5 -92.5t96.5 -257.5q0 -176 -100.5 -270t-289.5 -94h-202v291h-67v124zM525 360q0 113 -51 171.5t-153 58.5h-80v-175h116v-124h-116v-166h64q220 0 220 235z" />
    <glyph glyph-name="Ntilde" unicode="&#xd1;" horiz-adv-x="558" 
d="M104 681l231 -368l119 -190v566h30v-694h-27l-353 564v-564h-30v694h30v-8zM145 723l18 44q16 39 43 53t57 10t59.5 -11.5t58 -6t46.5 21.5l33 38l-18 -47q-20 -53 -60 -64q-23 -5 -52 -0.5t-54.5 12.5t-52.5 5.5t-45 -21.5z" />
    <glyph glyph-name="Ograve" unicode="&#xd2;" horiz-adv-x="635" 
d="M50 280q-2 25 -2 59q0 32 2 57q4 63 26 119q31 80 90.5 126.5t141.5 46.5h18q100 -1 168 -70q40 -41 63 -100t28 -122q1 -25 1 -57q0 -34 -2 -59q-7 -75 -37 -137t-87.5 -103t-133.5 -42h-18q-75 1 -133 42t-88 103t-37 137zM405 737l-13 -12l-145 97q-24 17 -10 44
q13 25 38 19q11 -4 20 -12zM191 95q53 -70 126 -72q73 2 127 72q66 88 70 248q-4 160 -70 247q-53 71 -126 73h-1h-1q-72 -2 -126 -73q-66 -87 -70 -247q4 -161 71 -248z" />
    <glyph glyph-name="Oacute" unicode="&#xd3;" horiz-adv-x="635" 
d="M50 280q-2 25 -2 59q0 32 2 57q4 63 26 119q31 80 90.5 126.5t141.5 46.5h18q100 -1 168 -70q40 -41 63 -100t28 -122q1 -25 1 -57q0 -34 -2 -59q-7 -75 -37 -137t-88 -103t-133 -42h-18q-75 1 -133 42t-88 103t-37 137zM230 737l109 136q28 25 51 3q19 -18 8 -40
q-3 -8 -11 -14l-145 -97zM191 95q53 -70 126 -72q73 2 127 72q66 88 70 248q-4 160 -70 247q-53 71 -126 73h-1h-1q-72 -2 -126 -73q-66 -87 -70 -247q4 -161 71 -248z" />
    <glyph glyph-name="Ocircumflex" unicode="&#xd4;" horiz-adv-x="635" 
d="M50 280q-2 25 -2 59q0 32 2 57q4 63 26 119q31 80 90.5 126.5t141.5 46.5h18q100 -1 168 -70q40 -41 63 -100t28 -122q1 -25 1 -57q0 -34 -2 -59q-7 -75 -37 -137t-88 -103t-133 -42h-18q-75 1 -133 42t-88 103t-37 137zM317 802l-90 -55q-8 -5 -15.5 -3t-9.5 8t3 13
l105 108q7 6 13 0l1 -1l105 -108q4 -4 4 -8t-2 -7t-5.5 -5t-8.5 -1.5t-9 3.5zM191 95q53 -70 126 -72q73 2 127 72q66 87 70 248q-4 160 -70 247q-53 71 -126 73h-1h-1q-72 -2 -126 -73q-66 -87 -70 -247q4 -161 71 -248z" />
    <glyph glyph-name="Otilde" unicode="&#xd5;" horiz-adv-x="635" 
d="M50 280q-2 25 -2 59q0 32 2 57q4 63 26 119q31 80 90.5 126.5t141.5 46.5h18q100 -1 168 -70q40 -41 63 -100t28 -122q1 -25 1 -57q0 -34 -2 -59q-7 -75 -37 -137t-88 -103t-133 -42h-18q-75 1 -133 42t-88 103t-37 137zM178 767q16 39 43 53t57 10t59.5 -11.5t58 -6
t45.5 21.5l33 38l-17 -47q-20 -53 -60 -64q-23 -5 -52 -0.5t-54.5 12.5t-52.5 5.5t-46 -21.5l-32 -34zM191 95q53 -70 126 -72q73 2 127 72q66 88 70 248q-4 160 -70 247q-53 71 -126 73h-1h-1q-72 -2 -126 -73q-66 -87 -70 -247q4 -160 71 -248z" />
    <glyph glyph-name="Odieresis" unicode="&#xd6;" horiz-adv-x="635" 
d="M378 852q19 0 32.5 -13t13.5 -32t-13.5 -32.5t-32.5 -13.5t-32.5 13.5t-13.5 32.5q0 12 6.5 22.5t17 16.5t22.5 6zM256 852q19 0 32.5 -13t13.5 -32t-13.5 -32.5t-32.5 -13.5q-12 0 -22.5 6t-16.5 16.5t-6 23t6 23t16.5 16.5t22.5 6zM50 280q-2 25 -2 59q0 32 2 57
q4 63 26 119q31 80 90.5 126.5t141.5 46.5h18q100 -1 168 -70q40 -41 63 -100t28 -122q1 -25 1 -57q0 -34 -2 -59q-7 -75 -37 -137t-87.5 -103t-133.5 -42h-18q-75 1 -133 42t-88 103t-37 137zM191 95q11 -15 25 -27.5t30 -22.5t34 -15.5t37 -6.5q73 2 127 72q66 88 70 248
q-4 160 -70 247q-53 71 -126 73h-1h-1q-72 -2 -126 -73q-66 -87 -70 -247q4 -161 71 -248z" />
    <glyph glyph-name="multiply" unicode="&#xd7;" horiz-adv-x="364" 
d="M38 232l117 117l-117 117l27 27l117 -117l117 117l26 -27l-117 -117l117 -117l-26 -27l-117 117l-117 -117z" />
    <glyph glyph-name="Oslash" unicode="&#xd8;" horiz-adv-x="635" 
d="M398 678l26 77l62 -21l-29 -85q57 -39 89.5 -107.5t38.5 -145.5q1 -25 1 -57q0 -34 -2 -59q-7 -75 -37 -137t-88 -103t-133 -42h-18q-38 0 -71 11l-27 -77l-62 21l29 84q-55 38 -87.5 103.5t-39.5 139.5q-2 25 -2 59q0 32 2 57q4 63 26 119q31 80 90.5 126.5t141.5 46.5
h18q38 0 72 -10zM439 597l-190 -554q33 -19 68 -20q73 2 127 72q66 88 70 248q-4 167 -75 254zM120 343q4 -167 75 -254l191 554q-34 19 -68 20h-1h-1q-72 -2 -126 -73q-66 -87 -70 -247z" />
    <glyph glyph-name="Ugrave" unicode="&#xd9;" horiz-adv-x="573" 
d="M373 737l-13 -12l-144 97q-24 17 -11 44q13 25 39 19q10 -3 19 -12h1zM184 13q-117 55 -117 226v450h65v-450q0 -94 40.5 -148t131.5 -58q59 -3 98 21q73 44 73 173v462h29v-465q0 -109 -49 -171t-155 -63q-66 0 -116 23z" />
    <glyph glyph-name="Uacute" unicode="&#xda;" horiz-adv-x="573" 
d="M198 737l109 136h1q27 25 50 3q20 -18 9 -40q-4 -8 -12 -14l-144 -97zM184 13q-117 55 -117 226v450h65v-450q0 -94 40.5 -148t131.5 -58q59 -3 98 21q73 44 73 173v462h29v-465q0 -109 -49 -171t-155 -63q-66 0 -116 23z" />
    <glyph glyph-name="Ucircumflex" unicode="&#xdb;" horiz-adv-x="573" 
d="M285 802l-90 -55q-7 -5 -15 -3t-9.5 8t2.5 13h1l105 108q6 6 13 0v-1l106 -108q5 -6 2.5 -12.5t-9 -8.5t-15.5 3zM184 13q-117 55 -117 226v450h65v-450q0 -199 172 -206q59 -3 98 21q73 44 73 173v462h29v-465q0 -43 -7 -77.5t-22.5 -64t-39 -49.5t-58 -31t-77.5 -12
q-66 0 -116 23z" />
    <glyph glyph-name="Udieresis" unicode="&#xdc;" horiz-adv-x="573" 
d="M225 852q19 0 32 -13t13 -32t-13 -32.5t-32 -13.5q-13 0 -23.5 6t-16.5 16.5t-6 23t6 23t16.5 16.5t23.5 6zM67 239v450h65v-450q0 -199 172 -206q59 -3 98 21q73 44 73 173v462h29v-465q0 -43 -7 -77.5t-22.5 -64t-39 -49.5t-58 -31t-77.5 -12q-66 0 -116 23
q-117 55 -117 226zM301 807q0 6 1.5 12t4.5 11t7 9t9 7t11 4.5t13 1.5q18 0 31.5 -13t13.5 -32t-13.5 -32.5t-32 -13.5t-32 13.5t-13.5 32.5z" />
    <glyph glyph-name="Yacute" unicode="&#xdd;" horiz-adv-x="522" 
d="M228 290l-218 399h75l2 -5q33 -59 94.5 -171.5t89.5 -163.5l10 -18l197 358h33l-217 -396v-298h-66v295zM186 725l-13 12l109 136h1q27 25 50 3q20 -18 9 -40q-4 -8 -12 -14z" />
    <glyph glyph-name="Thorn" unicode="&#xde;" horiz-adv-x="627" 
d="M583 376q0 -112 -69.5 -172.5t-197.5 -60.5h-75v-143h-151v714h151v-112h87q124 0 189.5 -58t65.5 -168zM241 265h49q71 0 105.5 25.5t34.5 85.5q0 52 -31 77.5t-97 25.5h-61v-214z" />
    <glyph glyph-name="germandbls" unicode="&#xdf;" horiz-adv-x="521" 
d="M224 377h45q69 5 104 59q22 36 22 82q0 57 -42 94t-99 37q-28 1 -52 -11q-36 -18 -54 -56.5t-18 -83.5v-633h-65v642q0 39 9.5 72t31.5 61.5t55 45.5q42 22 94 20q53 -1 99.5 -24t76 -66.5t29.5 -96.5q0 -64 -45 -111q-32 -32 -79 -46q54 -16 91 -56q52 -55 53 -128
q0 -18 -4 -36q-11 -60 -58 -100q-51 -43 -127 -47h-73v30h31q52 0 92.5 22.5t59.5 68.5q13 30 13 63q0 66 -41 113q-45 53 -121 55h-28v30z" />
    <glyph glyph-name="agrave" unicode="&#xe0;" horiz-adv-x="481" 
d="M359 47q-16 -15 -38.5 -26t-45 -16.5t-45.5 -7.5q-47 -4 -92.5 8.5t-70.5 45.5q-19 26 -19 61q0 43 26 66.5t73 36.5q17 4 74 16q32 7 50.5 12t46.5 18.5t40 31.5q-5 52 -31.5 87t-61.5 42.5t-69 -0.5t-57.5 -40.5t-23.5 -79.5q0 -23 -17 -30.5t-33.5 2t-14.5 28.5
q0 24 9 45q20 49 75 78q54 28 115 24q66 -5 112 -46q51 -48 62 -133q1 -7 2 -27v-245h-66v49zM347 507l-12 -12l-145 97q-24 17 -10 44q12 25 38 19q10 -3 20 -12zM359 208q1 20 1 42q-30 -26 -112 -44q-70 -15 -90 -23q-45 -19 -45 -72q0 -46 31 -71q38 -29 93.5 -20
t84.5 47q35 47 37 141z" />
    <glyph glyph-name="aacute" unicode="&#xe1;" horiz-adv-x="481" 
d="M359 47q-46 -43 -129 -50q-47 -4 -92.5 8.5t-70.5 45.5q-19 26 -19 61q0 43 26 66.5t73 36.5q17 4 74 16q32 7 50.5 12t46.5 18.5t40 31.5q-5 52 -31.5 87t-61.5 42.5t-69 -0.5t-57.5 -40.5t-23.5 -79.5q0 -23 -17 -30.5t-33.5 2t-14.5 28.5q0 24 9 45q20 49 75 78
q54 28 115 24q66 -5 112 -46q51 -48 62 -133q1 -7 2 -27v-245h-66v49zM172 507l110 136q27 25 50 3q20 -18 9 -41q-4 -7 -11 -13l-145 -97zM359 208q1 20 1 42q-30 -26 -112 -44q-70 -15 -90 -23q-45 -19 -45 -72q0 -46 31 -71q38 -29 93.5 -20t84.5 47q35 47 37 141z" />
    <glyph glyph-name="acircumflex" unicode="&#xe2;" horiz-adv-x="481" 
d="M259 572l-90 -55q-7 -5 -15 -3t-9.5 8t3.5 13l105 108q6 6 13 0v-1l106 -108q6 -6 3.5 -12.5t-9.5 -8.5t-16 3zM359 47q-46 -43 -129 -50q-47 -4 -92.5 8.5t-70.5 45.5q-19 26 -19 61q0 43 26 66.5t73 36.5q17 4 74 16q24 5 37 8.5t36 11t38.5 18t25.5 24.5
q-5 52 -31.5 87t-61.5 42.5t-69 -0.5t-57.5 -40.5t-23.5 -79.5q0 -23 -17 -30.5t-33.5 2t-14.5 28.5q0 24 9 45q20 49 75 78q54 28 115 24q66 -5 112 -46q51 -48 62 -133q1 -7 2 -27v-245h-66v49zM359 208q1 20 1 42q-30 -26 -112 -44q-70 -15 -90 -23q-45 -19 -45 -72
q0 -47 31 -71q38 -29 93.5 -20t84.5 47q35 47 37 141z" />
    <glyph glyph-name="atilde" unicode="&#xe3;" horiz-adv-x="481" 
d="M359 47q-23 -22 -58 -34.5t-71 -15.5q-47 -4 -92.5 8.5t-70.5 45.5q-19 26 -19 61q0 43 26 66.5t73 36.5q17 4 74 16q32 7 50.5 12t46.5 18.5t40 31.5q-5 52 -31.5 87t-61.5 42.5t-69 -0.5t-57.5 -40.5t-23.5 -79.5q0 -23 -17 -30.5t-33.5 2t-14.5 28.5q0 24 9 45
q20 49 75 78q54 28 115 24q66 -5 112 -46q51 -48 62 -133q1 -7 2 -27v-245h-66v49zM121 537q16 39 42.5 53t56.5 10t60 -11.5t58.5 -6t45.5 21.5l33 38l-18 -47q-20 -53 -59 -64q-23 -5 -52.5 -0.5t-54.5 12.5t-52 5.5t-46 -21.5l-32 -34zM359 208q1 20 1 42
q-30 -26 -112 -44q-70 -15 -90 -23q-45 -19 -45 -72q0 -46 31 -71q38 -29 93.5 -20t84.5 47q35 47 37 141z" />
    <glyph glyph-name="adieresis" unicode="&#xe4;" horiz-adv-x="481" 
d="M199 622q19 0 32.5 -13.5t13.5 -32t-13.5 -32t-32.5 -13.5t-32.5 13.5t-13.5 32t13.5 32t32.5 13.5zM359 47q-46 -43 -129 -50q-47 -4 -92.5 8.5t-70.5 45.5q-19 26 -19 61q0 43 26 66.5t73 36.5q17 4 74 16q32 7 50.5 12t46.5 18.5t40 31.5q-5 52 -31.5 87t-61.5 42.5
t-69 -0.5t-57.5 -40.5t-23.5 -79.5q0 -23 -17 -30.5t-33.5 2t-15.5 28.5q1 24 10 45q20 49 75 78q54 28 115 24q66 -5 112 -46q51 -48 62 -133q1 -7 2 -27v-245h-66v49zM360 250q-30 -26 -112 -44q-70 -15 -90 -23q-45 -19 -45 -72q0 -46 31 -71q38 -29 93.5 -20t84.5 47
q35 47 37 141q1 20 1 42zM275 576.5q0 18.5 13.5 32t32.5 13.5t32 -13.5t13 -32t-13 -32t-32 -13.5t-32.5 13.5t-13.5 32z" />
    <glyph glyph-name="aring" unicode="&#xe5;" horiz-adv-x="481" 
d="M359 47q-46 -43 -129 -50q-47 -4 -92.5 8.5t-70.5 45.5q-19 26 -19 61q0 43 26 66.5t73 36.5q17 4 74 16q32 7 50.5 12t46.5 18.5t40 31.5q-5 52 -31.5 87t-61.5 42.5t-69 -0.5t-57.5 -40.5t-23.5 -79.5q0 -23 -17 -30.5t-33.5 2t-14.5 28.5q0 24 9 45q20 49 75 78
q54 28 115 24q66 -5 112 -46q51 -48 62 -133q1 -7 2 -27v-245h-66v49zM259.5 629q30.5 0 52 -21.5t21.5 -52t-21.5 -51.5t-52 -21t-51.5 21t-21 51.5t21 52t51.5 21.5zM260 587q-13 0 -22.5 -9t-9.5 -22t9.5 -22.5t22.5 -9.5t22 9.5t9 22.5q0 8 -4 15.5t-11.5 11.5t-15.5 4z
M359 208q1 20 1 42q-30 -26 -112 -44q-70 -15 -90 -23q-45 -19 -45 -72q0 -46 31 -71q38 -29 93.5 -20t84.5 47q35 47 37 141z" />
    <glyph glyph-name="ae" unicode="&#xe6;" horiz-adv-x="785" 
d="M396 357q27 46 73 70q48 25 106 23q54 -2 97 -27q45 -26 59 -67q5 -15 5 -31q0 -25 -13 -44q-18 -27 -66 -43q-23 -8 -92 -22q-49 -10 -74 -19q-45 -16 -63 -42q6 -65 44 -101q35 -33 83 -33q17 0 34 5q39 12 60.5 44.5t21.5 74.5q0 23 17 31t33.5 -1.5t14.5 -29.5
q0 -25 -10 -48q-20 -47 -75 -74q-52 -27 -112 -24q-67 3 -114 44v-45h-66v49q-46 -43 -129 -50q-47 -4 -92.5 8.5t-70.5 45.5q-19 26 -19 61q0 43 26 66.5t73 36.5q17 4 74 16q32 7 50.5 12t46.5 18.5t40 31.5q-5 52 -31.5 87t-61.5 42.5t-69 -0.5t-57.5 -40.5t-23.5 -79.5
q0 -23 -17 -30.5t-33.5 2t-14.5 28.5q0 24 9 45q18 45 64.5 72t98.5 30q62 4 111 -26q40 -24 63 -66zM426 193q31 27 105 45q72 17 82 20q38 13 51 32q7 11 7 27q0 23 -8 43.5t-24 36.5t-37 24q-30 12 -60 6t-54 -28q-62 -56 -62 -188v-18zM359 208q1 20 1 42
q-30 -26 -112 -44q-70 -15 -90 -23q-45 -19 -45 -72q0 -46 31 -71q38 -29 93.5 -20t84.5 47q35 47 37 141z" />
    <glyph glyph-name="ccedilla" unicode="&#xe7;" horiz-adv-x="467" 
d="M355 145q0 29 26 33q25 5 36 -16q4 -8 4 -17q0 -27 -11 -51q-7 -16 -17 -29q-27 -33 -72 -50.5t-91 -16.5q11 -6 17 -16q5 -10 4 -21q-2 -11 -9 -19q-21 -24 -65 -20l-9 1l3 36l9 -1q26 -2 34 7v1q-3 2 -13 3l-25 1l14 33q-61 14 -99 60q-47 58 -46 153q1 105 52 167
q44 53 116 65q65 10 123 -16q61 -27 79 -77q5 -15 6 -32t-15.5 -26t-33.5 -2t-17 27q0 34 -22 61q-23 30 -60 40.5t-73 -3.5q-39 -17 -62 -64q-28 -56 -28 -145q0 -133 75 -176q53 -31 109 -0.5t61 95.5q1 8 0 15z" />
    <glyph glyph-name="egrave" unicode="&#xe8;" horiz-adv-x="469" 
d="M421 145q-1 -73 -75 -116.5t-157 -25.5q-96 22 -130 117q-14 42 -14 96q1 104 52 166q45 53 117 65q65 11 124 -15q61 -27 77 -76q6 -15 6 -31q0 -25 -13 -44q-19 -27 -67 -43q-22 -8 -91 -22q-49 -10 -75 -19q-45 -16 -63 -42q6 -65 45 -101q35 -33 83 -33q17 0 33 5
q40 12 61 44.5t21 74.5q0 23 17.5 31t33.5 -1.5t15 -29.5zM320 507l-12 -12l-145 97q-24 17 -10 44q12 25 38 19q10 -3 20 -12zM110 211v-10.5v-7.5q32 27 105 45q73 17 82 20q39 13 51 32q7 11 7 27q0 35 -18.5 63.5t-50.5 40.5q-30 12 -60 6t-54 -28q-62 -56 -62 -188z
" />
    <glyph glyph-name="eacute" unicode="&#xe9;" horiz-adv-x="469" 
d="M421 145q-1 -73 -75 -116.5t-157 -25.5q-96 22 -130 117q-14 42 -14 96q1 104 52 166q45 53 117 65q65 11 124 -15q61 -27 77 -76q6 -15 6 -31q0 -25 -13 -44q-19 -27 -67 -43q-22 -8 -91 -22q-49 -10 -75 -19q-45 -16 -63 -42q6 -65 45 -101q35 -33 83 -33q17 0 33 5
q40 12 61 44.5t21 74.5q0 23 17.5 31t33.5 -1.5t15 -29.5zM145 507l110 136q27 25 50 3q20 -18 9 -41q-4 -7 -11 -13l-145 -97zM110 211v-10.5v-7.5q32 27 105 44q73 18 82 21q39 13 51 32q7 11 7 27q0 35 -18.5 63.5t-50.5 40.5q-30 12 -60 6t-54 -28q-62 -56 -62 -188z
" />
    <glyph glyph-name="ecircumflex" unicode="&#xea;" horiz-adv-x="469" 
d="M421 145q-1 -73 -75 -116.5t-157 -25.5q-96 22 -130 117q-14 42 -14 96q1 104 52 166q45 53 117 65q65 11 124 -15q61 -27 77 -76q6 -15 6 -31q0 -25 -13 -44q-19 -27 -67 -43q-22 -8 -91 -22q-49 -10 -75 -19q-45 -16 -63 -42q6 -65 45 -101q35 -33 83 -33q17 0 33 5
q40 12 61 44.5t21 74.5q0 23 17.5 31t33.5 -1.5t15 -29.5zM232 572l-90 -55q-7 -5 -15 -3t-9.5 8t3.5 13l105 108q6 6 13 0v-1l106 -108q6 -6 3.5 -12.5t-9.5 -8.5t-16 3zM110 211v-9.5v-8.5q32 27 105 44q73 18 82 21q39 13 51 32q7 11 7 27q0 35 -18.5 63.5t-50.5 40.5
q-30 12 -60 6t-54 -28q-62 -56 -62 -188z" />
    <glyph glyph-name="edieresis" unicode="&#xeb;" horiz-adv-x="469" 
d="M294 622q19 0 32 -13.5t13 -32t-13 -32t-32 -13.5t-32.5 13.5t-13.5 32t13.5 32t32.5 13.5zM172 622q19 0 32.5 -13.5t13.5 -32t-13.5 -32t-32.5 -13.5t-32.5 13.5t-13.5 32t13.5 32t32.5 13.5zM421 145q-1 -73 -75 -116.5t-157 -25.5q-96 22 -130 117q-14 42 -14 96
q1 104 52 166q45 53 117 65q65 11 124 -15q60 -27 77 -76q6 -15 6 -31q0 -25 -13 -44q-19 -27 -67 -43q-22 -8 -91 -22q-49 -10 -75 -19q-45 -16 -63 -42q6 -65 45 -101q35 -33 83 -33q17 0 33 5q40 12 61 44.5t21 74.5q0 23 17.5 31t33.5 -1.5t15 -29.5zM110 211v-6v-6.5
v-5.5q32 27 105 45q73 17 82 20q39 13 51 32q7 11 7 27q0 35 -18.5 63.5t-50.5 40.5q-30 12 -60 6t-54 -28q-62 -56 -62 -188z" />
    <glyph glyph-name="igrave" unicode="&#xec;" horiz-adv-x="195" 
d="M130 449v-454h-65v454h65zM76 643l109 -136l-13 -12l-144 97q-25 17 -11 44q13 25 38 19q11 -4 20 -12h1z" />
    <glyph glyph-name="iacute" unicode="&#xed;" horiz-adv-x="195" 
d="M130 449v-454h-65v454h65zM23 495l-13 12l109 136h1q27 25 50 3q20 -18 9 -41q-4 -7 -12 -13z" />
    <glyph glyph-name="icircumflex" unicode="&#xee;" horiz-adv-x="196" 
d="M130 449v-454h-65v454h65zM188 516l-91 56l-90 -55q-7 -5 -15 -3t-9.5 8t3.5 13l105 108q6 6 13 0v-1l106 -108q6 -6 3.5 -12.5t-9.5 -8.5t-16 3z" />
    <glyph glyph-name="idieresis" unicode="&#xef;" horiz-adv-x="196" 
d="M158.5 622q18.5 0 32 -13.5t13.5 -32t-13.5 -32t-32 -13.5t-32 13.5t-13.5 32t13.5 32t32 13.5zM37 622q19 0 32 -13.5t13 -32t-13 -32t-32 -13.5t-32.5 13.5t-13.5 32t13.5 32t32.5 13.5zM65 449h65v-454h-65v454z" />
    <glyph glyph-name="eth" unicode="&#xf0;" horiz-adv-x="619" 
d="M249 634q-43 29 -74 45l49 86q72 -33 126 -69l110 68l49 -75l-83 -51q76 -70 112 -157t36 -201q0 -137 -70.5 -213.5t-195.5 -76.5q-120 0 -191.5 67t-71.5 182q0 114 63.5 180.5t171.5 66.5q100 0 134 -48l4 2q-31 76 -94 135l-112 -69l-49 76zM422 260q0 53 -30 84.5
t-82 31.5q-59 0 -86 -33.5t-27 -104.5q0 -68 29 -103t84 -35q60 0 86 40t26 120z" />
    <glyph glyph-name="ntilde" unicode="&#xf1;" horiz-adv-x="477" 
d="M129 367q29 30 67 52t75 25q72 7 115 -53q20 -28 26 -55t6 -69v-272h-65v272q0 72 -24 106q-14 19 -35 28q-36 14 -82 -7q-47 -21 -83 -73v-326h-65v447h65v-75zM84 493l18 44q13 33 34.5 48.5t44.5 14.5t50 -5t50.5 -10t46.5 -2t37 21l33 38l-18 -47q-19 -53 -59 -64
q-23 -5 -52.5 -0.5t-54.5 12.5t-52 5.5t-46 -21.5z" />
    <glyph glyph-name="ograve" unicode="&#xf2;" horiz-adv-x="481" 
d="M328 507l-13 -12l-145 97q-24 17 -10 44q13 25 38 19q10 -3 20 -12zM49 173q-9 75 6 134q14 52 48 87t85 48q23 6 48 6h1.5h1.5h6q22 0 42 -5q55 -12 90.5 -49.5t48.5 -92.5q15 -62 5 -134q-6 -42 -23.5 -76t-48 -58t-71.5 -33q-21 -5 -43 -5h-6h-1h-2q-25 0 -48 6
q-61 15 -96.5 61t-42.5 111zM153 377q-39 -54 -41 -155q2 -102 41 -156q32 -44 81 -48h8h4q49 4 81 48q39 54 41 156q-2 101 -41 155q-32 44 -81 48h-4h-8q-49 -4 -81 -48z" />
    <glyph glyph-name="oacute" unicode="&#xf3;" horiz-adv-x="481" 
d="M153 507l109 136q28 25 51 3q19 -18 8 -41q-3 -7 -11 -13l-145 -97zM49 173q-9 75 6 134q14 52 48 87t85 48q23 6 48 6h2h1h6q22 0 42 -5q55 -12 90.5 -49.5t48.5 -92.5q15 -62 5 -134q-9 -65 -45.5 -109t-97.5 -58q-21 -5 -43 -5h-6h-1h-2q-25 0 -48 6q-61 15 -96.5 61
t-42.5 111zM153 377q-39 -54 -41 -155q2 -102 41 -156q32 -44 81 -48h8h4q49 4 81 48q39 54 41 156q-2 101 -41 155q-32 44 -81 48h-4h-8q-49 -4 -81 -48z" />
    <glyph glyph-name="ocircumflex" unicode="&#xf4;" horiz-adv-x="481" 
d="M240 572l-90 -55q-5 -3 -10 -3.5t-8.5 1.5t-5.5 5t-1.5 7t3.5 8l105 108q7 6 13 0l1 -1l105 -108q6 -6 3.5 -12.5t-9.5 -8.5t-15 3zM49 173q-9 75 6 134q14 52 48 87t85 48q23 6 48 6h1.5h1.5h6q22 0 42 -5q55 -12 90.5 -49.5t48.5 -92.5q15 -62 5 -134
q-9 -65 -45.5 -109t-97.5 -58q-21 -5 -43 -5h-6h-1h-2q-25 0 -48 6q-61 15 -96.5 61t-42.5 111zM153 377q-39 -54 -41 -155q2 -102 41 -156q32 -44 81 -48h8h4q49 4 81 48q39 54 41 156q-2 101 -41 155q-32 44 -81 48h-4h-8q-49 -4 -81 -48z" />
    <glyph glyph-name="otilde" unicode="&#xf5;" horiz-adv-x="481" 
d="M101 537q16 39 43 53t57 10t59.5 -11.5t58 -6t45.5 21.5l34 38l-18 -47q-20 -53 -60 -64q-23 -5 -52 -0.5t-54.5 12.5t-52.5 5.5t-45 -21.5l-33 -34zM49 173q-9 75 6 134q14 52 48 87t85 48q23 6 48 6h1.5h1.5h6q22 0 42 -5q55 -12 90.5 -49.5t48.5 -92.5q15 -62 5 -134
q-6 -42 -23.5 -76t-48 -58t-71.5 -33q-21 -5 -43 -5h-6h-1h-2q-25 0 -48 6q-41 10 -71 35t-46.5 59.5t-21.5 77.5zM153 377q-39 -54 -41 -155q2 -102 41 -156q32 -44 81 -48h8h4q49 4 81 48q39 54 41 156q-2 101 -41 155q-32 44 -81 48h-4h-8q-49 -4 -81 -48z" />
    <glyph glyph-name="odieresis" unicode="&#xf6;" horiz-adv-x="481" 
d="M179 622q19 0 32.5 -13.5t13.5 -32t-13.5 -32t-32.5 -13.5t-32 13.5t-13 32t13 32t32 13.5zM49 173q-9 75 6 134q14 52 48 87t85 48q23 6 48 6h2h1h6q22 0 42 -5q55 -12 90.5 -49.5t48.5 -92.5q15 -62 5 -134q-9 -65 -45.5 -109t-97.5 -58q-21 -5 -43 -5h-6h-1h-2
q-25 0 -48 6q-41 10 -71 35t-46.5 59.5t-21.5 77.5zM112 222q2 -102 41 -156q32 -44 81 -48h8h4q49 4 81 48q39 54 41 156q-2 101 -41 155q-32 44 -81 48h-4h-8q-49 -4 -81 -48q-39 -54 -41 -155zM255 576.5q0 18.5 13.5 32t32.5 13.5t32.5 -13.5t13.5 -32t-13.5 -32
t-32.5 -13.5t-32.5 13.5t-13.5 32z" />
    <glyph glyph-name="divide" unicode="&#xf7;" horiz-adv-x="417" 
d="M208 280q9 0 17 -4.5t12.5 -12t4.5 -17.5q0 -14 -10 -23.5t-24 -9.5t-24 9.5t-10 23.5t10 24t24 10zM208 486q14 0 24 -10t10 -24t-10 -24t-24 -10t-24 10t-10 24t10 24t24 10zM392 330h-368v38h368v-38z" />
    <glyph glyph-name="oslash" unicode="&#xf8;" horiz-adv-x="481" 
d="M277 445l18 51l45 -15l-17 -50q81 -35 103 -130q15 -62 5 -134q-9 -65 -45.5 -109t-97.5 -58q-21 -5 -43 -5h-6h-1h-2q-25 0 -48 6l-12 4l-13 -40l-46 16l16 44q-73 46 -84 148q-9 75 6 134q14 52 48 87t85 48q23 6 48 6h2h1h6q17 0 32 -3zM187 34q22 -14 47 -16h8h4
q49 4 81 48q39 54 41 156q-3 122 -57 174zM149 72l120 349q-11 3 -23 4h-4h-8q-49 -4 -81 -48q-39 -54 -41 -155q2 -96 37 -150z" />
    <glyph glyph-name="ugrave" unicode="&#xf9;" horiz-adv-x="477" 
d="M323 507l-12 -12l-145 97q-24 17 -10 44q13 25 38 19q10 -3 20 -12zM348 73q-29 -30 -67 -52t-75 -25q-72 -7 -115 53q-20 28 -26 55t-6 69v272h65v-272q0 -72 24 -105q14 -20 35 -29q36 -14 82 7q47 21 83 73v326h65v-450h-65v78z" />
    <glyph glyph-name="uacute" unicode="&#xfa;" horiz-adv-x="477" 
d="M148 507l110 136q27 25 51 3q19 -18 8 -41q-4 -7 -11 -13l-145 -97zM348 73q-29 -30 -67 -52t-75 -25q-72 -7 -115 53q-20 28 -26 55t-6 69v272h65v-272q0 -72 24 -105q14 -20 35 -29q36 -14 82 7q47 21 83 73v326h65v-450h-65v78z" />
    <glyph glyph-name="ucircumflex" unicode="&#xfb;" horiz-adv-x="477" 
d="M236 572l-90 -55q-5 -3 -10 -3.5t-8.5 1.5t-5.5 5t-2 7t4 8l105 108q6 6 13 0v-1l106 -108q6 -6 3.5 -12.5t-9.5 -8.5t-16 3zM348 -5v78q-29 -30 -67 -52t-75 -25q-72 -7 -115 53q-20 28 -26 55t-6 69v272h65v-272q0 -72 24 -105q14 -20 35 -29q36 -14 82 7q47 21 83 73
v326h65v-450h-65z" />
    <glyph glyph-name="udieresis" unicode="&#xfc;" horiz-adv-x="477" 
d="M175 622q19 0 32.5 -13.5t13.5 -32t-13.5 -32t-32.5 -13.5t-32.5 13.5t-13.5 32t13.5 32t32.5 13.5zM348 73q-19 -19 -41.5 -35.5t-49 -28t-51.5 -13.5q-72 -7 -115 53q-20 28 -26 55t-6 69v272h65v-272q0 -72 24 -105q14 -20 35 -29q36 -14 82 7q47 21 83 73v326h65
v-450h-65v78zM251 576.5q0 18.5 13.5 32t32.5 13.5t32.5 -13.5t13.5 -32t-13.5 -32t-32.5 -13.5t-32.5 13.5t-13.5 32z" />
    <glyph glyph-name="yacute" unicode="&#xfd;" horiz-adv-x="432" 
d="M171 507l109 136h1q27 25 50 3q19 -18 9 -41q-5 -7 -12 -13l-145 -97zM91 449l143 -359l143 359h32l-205 -521q-49 -119 -118 -124q-30 -3 -60 16q-20 13 -33.5 31.5t-13.5 39.5v1q1 13 8.5 23t20.5 11q15 2 27 -9q12 -12 10 -31q0 -13 2 -24t10 -20.5t20 -10.5
q6 -1 12 0q25 5 47 35t36 63l28 70l-16 40q-1 2 -1 3l-3 6l-21 55l-138 346h70z" />
    <glyph glyph-name="thorn" unicode="&#xfe;" horiz-adv-x="632" 
d="M227 475q24 40 64 60.5t91 20.5q97 0 151.5 -75.5t54.5 -206.5q0 -133 -54.5 -208.5t-151.5 -75.5q-104 0 -155 67h-7l4 -30l3 -46v-221h-149v1000h149v-191l-3 -59l-4 -35h7zM334 437q-55 0 -80.5 -34t-26.5 -112v-16q0 -88 26 -126t83 -38q100 0 100 165
q0 81 -24.5 121t-77.5 40z" />
    <glyph glyph-name="ydieresis" unicode="&#xff;" horiz-adv-x="432" 
d="M168 622q19 0 32.5 -13.5t13.5 -31.5q0 -13 -6.5 -23.5t-17 -16.5t-22.5 -6q-19 0 -32.5 13.5t-13.5 32t13.5 32t32.5 13.5zM234 90l143 359h32l-205 -521q-49 -119 -118 -124q-30 -3 -60 16q-20 13 -33.5 31.5t-13.5 39.5v1q1 13 8.5 23t20.5 11q15 2 27 -9
q12 -12 10 -31q0 -13 2 -24t10 -20.5t20 -10.5q6 -1 12 0q13 3 26.5 13.5t24.5 26t18.5 30t13.5 28.5l28 70l-16 40q-1 2 -1 3l-3 6l-21 55l-138 346h70zM244 576.5q0 18.5 13.5 32t32.5 13.5t32 -13.5t13 -32t-13 -32t-32 -13.5t-32.5 13.5t-13.5 32z" />
    <glyph glyph-name="Amacron" unicode="&#x100;" horiz-adv-x="689" 
d="M181 874h331v-103h-331v103zM427 258h-279l-102 -257h-33l5 12q15 39 136 340q104 259 136 341l2 6h31l279 -702h-71l-2 5q-9 23 -102 255zM160 287h256q-126 316 -128 320z" />
    <glyph glyph-name="amacron" unicode="&#x101;" horiz-adv-x="604" 
d="M143 709h331v-103h-331v103zM362 299q-5 53 -32 88t-62.5 43t-70 -0.5t-58 -41.5t-23.5 -80q0 -23 -17.5 -31t-34 2t-14.5 30q0 23 9 45q20 49 76 79q55 28 117 24q67 -5 113 -47q52 -48 62 -135q1 -7 3 -27v-247h-67v49q-47 -44 -131 -51q-48 -4 -94 9t-70 46
q-20 27 -20 62q0 44 26.5 67.5t73.5 36.5q17 5 75 17q24 5 37.5 8t36.5 10.5t39 18.5t26 25zM363 213q1 20 1 43q-31 -27 -113 -45q-71 -16 -91 -24q-46 -19 -46 -72q0 -47 31 -72q39 -30 95 -20.5t85 47.5q36 48 38 143z" />
    <glyph glyph-name="Abreve" unicode="&#x102;" horiz-adv-x="689" 
d="M537 936q-6 -75 -59.5 -120t-134.5 -45q-85 0 -135.5 44.5t-54.5 120.5h83q2 -23 13.5 -36t32 -19t62.5 -6q101 0 108 61h85zM427 258h-279l-102 -257h-33l5 12q15 39 136 340q104 259 136 341l2 6h31l279 -702h-71l-2 5q-9 23 -102 255zM160 287h256q-126 316 -128 320z
" />
    <glyph glyph-name="abreve" unicode="&#x103;" horiz-adv-x="604" 
d="M501 771q-6 -75 -59.5 -120t-134.5 -45q-85 0 -135.5 44.5t-54.5 120.5h83q2 -23 13.5 -36t32 -19t62.5 -6q101 0 108 61h85zM362 299q-5 53 -32 88t-62.5 43t-70 -0.5t-58 -41.5t-23.5 -80q0 -23 -17.5 -31t-34 2t-14.5 30q0 23 9 45q20 49 76 79q55 28 117 24
q67 -5 113 -47q52 -48 62 -135q1 -7 3 -27v-247h-67v49q-47 -44 -131 -51q-48 -4 -94 9t-70 46q-20 27 -20 62q0 44 26.5 67.5t73.5 36.5q17 5 75 17q24 5 37.5 8t36.5 10.5t39 18.5t26 25zM363 213q1 20 1 43q-31 -27 -113 -45q-71 -16 -91 -24q-46 -19 -46 -72
q0 -47 31 -72q39 -30 95 -20.5t85 47.5q36 48 38 143z" />
    <glyph glyph-name="Aogonek" unicode="&#x104;" horiz-adv-x="689" 
d="M543 -111q0 -21 11 -30.5t28 -9.5q27 0 56 9v-87q-40 -11 -76 -11q-55 0 -88.5 31t-33.5 81q0 33 18.5 61.5t69.5 66.5h87q-34 -32 -53 -59t-19 -52zM427 258h-279l-102 -257h-33l5 12q15 39 136 340q104 259 136 341l2 6h31l279 -702h-71l-2 5q-9 23 -102 255zM160 287
h256q-126 316 -128 320z" />
    <glyph glyph-name="aogonek" unicode="&#x105;" horiz-adv-x="604" 
d="M442 -111q0 -21 11 -30.5t28 -9.5q27 0 56 9v-87q-40 -11 -76 -11q-55 0 -88.5 31t-33.5 81q0 33 18.5 61.5t69.5 66.5h87q-34 -32 -53 -59t-19 -52zM362 299q-5 53 -32 88t-62.5 43t-70 -0.5t-58 -41.5t-23.5 -80q0 -23 -17.5 -31t-34 2t-14.5 30q0 23 9 45q20 49 76 79
q55 28 117 24q67 -5 113 -47q52 -48 62 -135q1 -7 3 -27v-247h-67v49q-47 -44 -131 -51q-48 -4 -94 9t-70 46q-20 27 -20 62q0 44 26.5 67.5t73.5 36.5q17 5 75 17q24 5 37.5 8t36.5 10.5t39 18.5t26 25zM363 213q1 20 1 43q-31 -27 -113 -45q-71 -16 -91 -24
q-46 -19 -46 -72q0 -47 31 -72q39 -30 95 -20.5t85 47.5q36 48 38 143z" />
    <glyph glyph-name="Cacute" unicode="&#x106;" horiz-adv-x="637" 
d="M538 154v-3q2 -48 -34.5 -84t-84.5 -51.5t-94 -15.5h-10q-78 1 -137 43t-89.5 105.5t-37.5 140.5q-3 26 -3 61q0 33 2 58q4 64 27 122q31 81 92 128.5t146 48.5h10q48 1 95.5 -14.5t83 -52.5t34.5 -86q0 -24 -26 -31q-28 -6 -41 15q-4 8 -4 18v1q1 54 -44 90.5t-100 34.5
q-75 -3 -130 -75q-67 -89 -71 -253q4 -165 72 -254q55 -72 130 -74q55 -1 99.5 35t43.5 90q0 23 18 31.5t35.5 -0.5t17.5 -28zM292 771v13q84 98 115 147h167v-10q-25 -25 -86.5 -75.5t-96.5 -74.5h-99z" />
    <glyph glyph-name="cacute" unicode="&#x107;" horiz-adv-x="514" 
d="M359 150q0 23 17.5 31t34 -2t14.5 -30q2 -74 -72 -118q-73 -44 -158 -26q-97 20 -133 114q-17 44 -17 102q1 106 52 169q45 54 118 66q65 10 125 -17q61 -27 79 -77q6 -16 6 -32q2 -18 -14.5 -27t-34 -2t-17.5 28q-1 33 -22 61q-24 30 -61.5 41t-73.5 -4q-40 -17 -63 -65
q-28 -56 -28 -146q0 -135 76 -178q54 -32 110 0q57 31 62 97v15zM204 606v13q84 98 115 147h167v-10q-25 -25 -86.5 -75.5t-96.5 -74.5h-99z" />
    <glyph glyph-name="Ccircumflex" unicode="&#x108;" horiz-adv-x="637" 
d="M499 771q-77 45 -114 86q-38 -40 -112 -86h-99v13q92 92 125 147h174q15 -25 52.5 -69t72.5 -78v-13h-99zM538 154v-3q2 -48 -34.5 -84t-84.5 -51.5t-94 -15.5h-10q-78 1 -137 43t-89.5 105.5t-37.5 140.5q-3 26 -3 61q0 33 2 58q4 64 27 122q31 81 92 128.5t146 48.5h10
q48 1 95.5 -14.5t83 -52.5t34.5 -86q0 -24 -26 -31q-28 -6 -41 15q-4 8 -4 18v1q1 54 -44 90.5t-100 34.5q-75 -3 -130 -75q-67 -89 -71 -253q4 -165 72 -254q55 -72 130 -74q55 -1 99.5 35t43.5 90q0 23 18 31.5t35.5 -0.5t17.5 -28z" />
    <glyph glyph-name="ccircumflex" unicode="&#x109;" horiz-adv-x="514" 
d="M408 606q-77 45 -114 86q-38 -40 -112 -86h-99v13q92 92 125 147h174q15 -25 52.5 -69t72.5 -78v-13h-99zM359 150q0 23 17.5 31t34 -2t14.5 -30q2 -74 -72 -118q-73 -44 -158 -26q-97 20 -133 114q-17 44 -17 102q1 106 52 169q45 54 118 66q65 10 125 -17
q61 -27 79 -77q6 -16 6 -32q2 -18 -14.5 -27t-34 -2t-17.5 28q-1 33 -22 61q-24 30 -61.5 41t-73.5 -4q-40 -17 -63 -65q-28 -56 -28 -146q0 -135 76 -178q54 -32 110 0q57 31 62 97v15z" />
    <glyph glyph-name="Cdotaccent" unicode="&#x10a;" horiz-adv-x="637" 
d="M303 852q0 73 81 73t81 -73q0 -35 -20.5 -54t-60.5 -19q-81 0 -81 73zM538 154v-3q2 -48 -34.5 -84t-84.5 -51.5t-94 -15.5h-10q-78 1 -137 43t-89.5 105.5t-37.5 140.5q-3 26 -3 61q0 33 2 58q4 64 27 122q31 81 92 128.5t146 48.5h10q48 1 95.5 -14.5t83 -52.5
t34.5 -86q0 -24 -26 -31q-28 -6 -41 15q-4 8 -4 18v1q1 54 -44 90.5t-100 34.5q-75 -3 -130 -75q-67 -89 -71 -253q4 -165 72 -254q55 -72 130 -74q55 -1 99.5 35t43.5 90q0 23 18 31.5t35.5 -0.5t17.5 -28z" />
    <glyph glyph-name="cdotaccent" unicode="&#x10b;" horiz-adv-x="514" 
d="M226 687q0 73 81 73t81 -73q0 -35 -20.5 -54t-60.5 -19q-81 0 -81 73zM359 150q0 23 17.5 31t34 -2t14.5 -30q2 -74 -72 -118q-73 -44 -158 -26q-97 20 -133 114q-17 44 -17 102q1 106 52 169q45 54 118 66q65 10 125 -17q61 -27 79 -77q6 -16 6 -32q2 -18 -14.5 -27
t-34 -2t-17.5 28q-1 33 -22 61q-24 30 -61.5 41t-73.5 -4q-40 -17 -63 -65q-28 -56 -28 -146q0 -135 76 -178q54 -32 110 0q57 31 62 97v15z" />
    <glyph glyph-name="Ccaron" unicode="&#x10c;" horiz-adv-x="637" 
d="M599 931v-13q-41 -41 -75.5 -82t-49.5 -65h-174q-14 23 -40.5 55t-84.5 92v13h99q72 -45 112 -86q41 42 114 86h99zM538 154v-3q2 -48 -34.5 -84t-84.5 -51.5t-94 -15.5h-10q-78 1 -137 43t-89.5 105.5t-37.5 140.5q-3 26 -3 61q0 33 2 58q4 64 27 122q31 81 92 128.5
t146 48.5h10q48 1 95.5 -14.5t83 -52.5t34.5 -86q0 -24 -26 -31q-28 -6 -41 15q-4 8 -4 18v1q1 54 -44 90.5t-100 34.5q-75 -3 -130 -75q-67 -89 -71 -253q4 -165 72 -254q55 -72 130 -74q55 -1 99.5 35t43.5 90q0 23 18 31.5t35.5 -0.5t17.5 -28z" />
    <glyph glyph-name="ccaron" unicode="&#x10d;" horiz-adv-x="514" 
d="M515 766v-13q-41 -41 -75.5 -82t-49.5 -65h-174q-14 23 -40.5 55t-84.5 92v13h99q72 -45 112 -86q41 42 114 86h99zM359 150q0 23 17.5 31t34 -2t14.5 -30q2 -74 -72 -118q-73 -44 -158 -26q-97 20 -133 114q-17 44 -17 102q1 106 52 169q45 54 118 66q65 10 125 -17
q61 -27 79 -77q6 -16 6 -32q2 -18 -14.5 -27t-34 -2t-17.5 28q-1 33 -22 61q-24 30 -61.5 41t-73.5 -4q-40 -17 -63 -65q-28 -56 -28 -146q0 -135 76 -178q54 -32 110 0q57 31 62 97v15z" />
    <glyph glyph-name="Dcaron" unicode="&#x10e;" horiz-adv-x="740" 
d="M566 931v-13q-41 -41 -75.5 -82t-49.5 -65h-174q-14 23 -40.5 55t-84.5 92v13h99q72 -45 112 -86q41 42 114 86h99zM132 -2h-57v702h57q83 0 133 -4q86 -6 154 -47.5t110 -114.5q43 -75 48 -165q7 -122 -53 -218q-27 -44 -64.5 -75.5t-82.5 -49.5t-97 -23q-55 -5 -148 -5
zM141 670v-642q82 0 136 8q80 12 135 68q77 78 87 208q2 24 1 48q-2 73 -28 137t-79.5 111t-126.5 55q-50 6 -125 7z" />
    <glyph glyph-name="dcaron" unicode="&#x10f;" horiz-adv-x="632" 
d="M600 613q7 24 16.5 70t13.5 77h138v-10q-39 -86 -81 -150h-87v13zM359 429v271h66v-370v-5v-170v-5v-149h-66v34q-38 -25 -86 -32q-54 -8 -103 9q-65 23 -95.5 79.5t-29.5 129.5q1 77 31.5 137t95.5 86q44 18 95 14t92 -29zM359 150v1v177v1q-1 33 -22 61
q-24 30 -61.5 41t-73.5 -4q-40 -17 -63 -64q-28 -57 -28 -147q0 -106 49 -157q40 -43 98 -35q29 5 52 21.5t36 42t13 54.5v8z" />
    <glyph glyph-name="Dcroat" unicode="&#x110;" horiz-adv-x="740" 
d="M23 415h67v299h224q175 0 271.5 -92.5t96.5 -257.5q0 -176 -100.5 -270t-289.5 -94h-202v291h-67v124zM525 360q0 113 -51 171.5t-153 58.5h-80v-175h116v-124h-116v-166h64q220 0 220 235z" />
    <glyph glyph-name="dcroat" unicode="&#x111;" horiz-adv-x="648" 
d="M251 -10q-97 0 -151.5 71.5t-54.5 195.5q0 128 56 198.5t154 70.5q104 0 157 -80h5q-11 64 -11 113v25h-154v97h154v79h149v-79h76v-97h-76v-584h-114l-29 71h-6q-51 -81 -155 -81zM303 109q57 0 84 30.5t29 102.5v14q0 80 -27.5 114.5t-87.5 34.5q-50 0 -77.5 -38.5
t-27.5 -111.5t27.5 -109.5t79.5 -36.5z" />
    <glyph glyph-name="Emacron" unicode="&#x112;" horiz-adv-x="560" 
d="M134 874h331v-103h-331v103zM448 670h-307v-295h232v-30h-232v-317h307v-30h-373v702h373v-30z" />
    <glyph glyph-name="emacron" unicode="&#x113;" horiz-adv-x="590" 
d="M136 709h331v-103h-331v103zM113 159q6 -66 45 -102q35 -34 84 -33q17 0 34 5q40 12 61.5 44.5t21.5 76.5q0 23 17.5 31t34 -2t14.5 -30q0 -73 -74 -117.5t-158 -26.5q-97 21 -132 115q-16 44 -16 101q1 106 53 168q45 54 118 66q66 11 126 -15q61 -27 78 -77
q5 -15 5 -31q0 -26 -13 -45q-19 -27 -67 -44q-23 -7 -93 -22q-50 -10 -76 -19q-45 -17 -63 -43zM111 216v-10.5v-7.5q32 27 106 45t83 21q39 13 52 32q7 11 7 27q0 36 -18.5 64.5t-51.5 41.5q-30 11 -60.5 5t-54.5 -28q-63 -57 -63 -190z" />
    <glyph glyph-name="Ebreve" unicode="&#x114;" horiz-adv-x="560" 
d="M484 936q-6 -75 -59.5 -120t-134.5 -45q-85 0 -135.5 44.5t-54.5 120.5h83q2 -23 13.5 -36t32 -19t62.5 -6q101 0 108 61h85zM448 670h-307v-295h232v-30h-232v-317h307v-30h-373v702h373v-30z" />
    <glyph glyph-name="ebreve" unicode="&#x115;" horiz-adv-x="590" 
d="M495 771q-6 -75 -59.5 -120t-134.5 -45q-85 0 -135.5 44.5t-54.5 120.5h83q2 -23 13.5 -36t32 -19t62.5 -6q101 0 108 61h85zM113 159q6 -66 45 -102q35 -34 84 -33q17 0 34 5q40 12 61.5 44.5t21.5 76.5q0 23 17.5 31t34 -2t14.5 -30q0 -73 -74 -117.5t-158 -26.5
q-97 21 -132 115q-16 44 -16 101q1 106 53 168q45 54 118 66q66 11 126 -15q61 -27 78 -77q5 -15 5 -31q0 -26 -13 -45q-19 -27 -67 -44q-23 -7 -93 -22q-50 -10 -76 -19q-45 -17 -63 -43zM111 216v-10.5v-7.5q32 27 106 45t83 21q39 13 52 32q7 11 7 27q0 36 -18.5 64.5
t-51.5 41.5q-30 11 -60.5 5t-54.5 -28q-63 -57 -63 -190z" />
    <glyph glyph-name="Edotaccent" unicode="&#x116;" horiz-adv-x="560" 
d="M220 838q0 73 81 73t81 -73q0 -35 -20.5 -54t-60.5 -19q-81 0 -81 73zM448 670h-307v-295h232v-30h-232v-317h307v-30h-373v702h373v-30z" />
    <glyph glyph-name="edotaccent" unicode="&#x117;" horiz-adv-x="590" 
d="M228 687q0 73 81 73t81 -73q0 -35 -20.5 -54t-60.5 -19q-81 0 -81 73zM113 159q6 -66 45 -102q35 -34 84 -33q17 0 34 5q40 12 61.5 44.5t21.5 76.5q0 23 17.5 31t34 -2t14.5 -30q0 -73 -74 -117.5t-158 -26.5q-97 21 -132 115q-16 44 -16 101q1 106 53 168q45 54 118 66
q66 11 126 -15q61 -27 78 -77q5 -15 5 -31q0 -26 -13 -45q-19 -27 -67 -44q-23 -7 -93 -22q-50 -10 -76 -19q-45 -17 -63 -43zM111 216v-10.5v-7.5q32 27 106 45t83 21q39 13 52 32q7 11 7 27q0 36 -18.5 64.5t-51.5 41.5q-30 11 -60.5 5t-54.5 -28q-63 -57 -63 -190z" />
    <glyph glyph-name="Eogonek" unicode="&#x118;" horiz-adv-x="560" 
d="M384 -111q0 -21 11 -30.5t28 -9.5q27 0 56 9v-87q-40 -11 -76 -11q-55 0 -88.5 31t-33.5 81q0 33 18.5 61.5t69.5 66.5h87q-34 -32 -53 -59t-19 -52zM448 670h-307v-295h232v-30h-232v-317h307v-30h-373v702h373v-30z" />
    <glyph glyph-name="eogonek" unicode="&#x119;" horiz-adv-x="590" 
d="M389 -101q0 -21 11 -30.5t28 -9.5q27 0 56 9v-87q-40 -11 -76 -11q-55 0 -88.5 31t-33.5 81q0 33 18.5 61.5t69.5 66.5h87q-34 -32 -53 -59t-19 -52zM113 159q6 -66 45 -102q35 -34 84 -33q17 0 34 5q40 12 61.5 44.5t21.5 76.5q0 23 17.5 31t34 -2t14.5 -30
q0 -73 -74 -117.5t-158 -26.5q-97 21 -132 115q-16 44 -16 101q1 106 53 168q45 54 118 66q66 11 126 -15q61 -27 78 -77q5 -15 5 -31q0 -26 -13 -45q-19 -27 -67 -44q-23 -7 -93 -22q-50 -10 -76 -19q-45 -17 -63 -43zM111 216v-10.5v-7.5q32 27 106 45t83 21q39 13 52 32
q7 11 7 27q0 36 -18.5 64.5t-51.5 41.5q-30 11 -60.5 5t-54.5 -28q-63 -57 -63 -190z" />
    <glyph glyph-name="Ecaron" unicode="&#x11a;" horiz-adv-x="560" 
d="M510 931v-13q-41 -41 -75.5 -82t-49.5 -65h-174q-14 23 -40.5 55t-84.5 92v13h99q72 -45 112 -86q41 42 114 86h99zM448 670h-307v-295h232v-30h-232v-317h307v-30h-373v702h373v-30z" />
    <glyph glyph-name="ecaron" unicode="&#x11b;" horiz-adv-x="590" 
d="M516 766v-13q-41 -41 -75.5 -82t-49.5 -65h-174q-14 23 -40.5 55t-84.5 92v13h99q72 -45 112 -86q41 42 114 86h99zM113 159q6 -66 45 -102q35 -34 84 -33q17 0 34 5q40 12 61.5 44.5t21.5 76.5q0 23 17.5 31t34 -2t14.5 -30q0 -73 -74 -117.5t-158 -26.5
q-97 21 -132 115q-16 44 -16 101q1 106 53 168q45 54 118 66q66 11 126 -15q61 -27 78 -77q5 -15 5 -31q0 -26 -13 -45q-19 -27 -67 -44q-23 -7 -93 -22q-50 -10 -76 -19q-45 -17 -63 -43zM111 216v-10.5v-7.5q32 27 106 45t83 21q39 13 52 32q7 11 7 27q0 36 -18.5 64.5
t-51.5 41.5q-30 11 -60.5 5t-54.5 -28q-63 -57 -63 -190z" />
    <glyph glyph-name="Gcircumflex" unicode="&#x11c;" horiz-adv-x="724" 
d="M506 771q-77 45 -114 86q-38 -40 -112 -86h-99v13q92 92 125 147h174q15 -25 52.5 -69t72.5 -78v-13h-99zM311 699h11q47 1 94 -14.5t82.5 -52t34.5 -84.5q0 -19 -18 -28t-35.5 -0.5t-17.5 30.5v1q1 53 -43.5 89t-99.5 34q-73 -3 -127 -74q-67 -88 -71 -250
q4 -163 71 -251q55 -71 129 -73q45 -1 77 14t48 45t23 63.5t8 77.5h-126v30h195v-18q0 -115 -55 -177.5t-169 -60.5h-11q-76 1 -134.5 42.5t-89 104.5t-36.5 139q-3 25 -3 60q0 32 2 58q4 63 26 120q32 80 92 127t143 48z" />
    <glyph glyph-name="gcircumflex" unicode="&#x11d;" horiz-adv-x="632" 
d="M418 606q-77 45 -114 86q-38 -40 -112 -86h-99v13q92 92 125 147h174q15 -25 52.5 -69t72.5 -78v-13h-99zM69 64q-13 30 -1 64q9 25 30 44q-49 43 -49 116q1 84 61 131q50 39 121 39h4h4q58 0 103 -27q59 40 118 20q39 -13 50 -42v-1q4 -14 1 -25t-12 -16t-19 -5.5
t-20 6.5t-14 21q-6 15 -16 25q-14 13 -33.5 13.5t-33.5 -10.5q57 -47 58 -129q0 -76 -50 -117t-128 -42h-4h-4h-4h-4q-63 1 -108 28q-29 -26 -26 -43q3 -18 49 -25q75 -5 120 -6q72 -1 117 -36q42 -32 48 -82q7 -62 -40 -109q-52 -52 -143 -52q-41 -1 -80 10.5t-71.5 39.5
t-40.5 67q-9 45 9 81v0q13 19 33.5 17.5t28 -17t-3.5 -36.5q-13 -22 -10 -46q7 -42 49.5 -68.5t86.5 -25.5q58 1 96 46q35 42 24 85q-15 54 -100 58q-22 1 -64 1q-38 0 -52 1q-24 1 -47.5 14t-32.5 33zM117 284q0 -61 29.5 -96t88.5 -37q59 2 88.5 37t29.5 96q0 98 -55 135
q-26 18 -63 18t-63 -18q-55 -37 -55 -135z" />
    <glyph glyph-name="Gbreve" unicode="&#x11e;" horiz-adv-x="724" 
d="M588 936q-6 -75 -59.5 -120t-134.5 -45q-85 0 -135.5 44.5t-54.5 120.5h83q2 -23 13.5 -36t32 -19t62.5 -6q101 0 108 61h85zM311 699h11q47 1 94 -14.5t82.5 -52t34.5 -84.5q0 -19 -18 -28t-35.5 -0.5t-17.5 30.5v1q1 53 -43.5 89t-99.5 34q-73 -3 -127 -74
q-67 -88 -71 -250q4 -163 71 -251q55 -71 129 -73q45 -1 77 14t48 45t23 63.5t8 77.5h-126v30h195v-18q0 -115 -55 -177.5t-169 -60.5h-11q-76 1 -134.5 42.5t-89 104.5t-36.5 139q-3 25 -3 60q0 32 2 58q4 63 26 120q32 80 92 127t143 48z" />
    <glyph glyph-name="gbreve" unicode="&#x11f;" horiz-adv-x="632" 
d="M500 771q-6 -75 -59.5 -120t-134.5 -45q-85 0 -135.5 44.5t-54.5 120.5h83q2 -23 13.5 -36t32 -19t62.5 -6q101 0 108 61h85zM69 64q-13 30 -1 64q9 25 30 44q-49 43 -49 116q1 84 61 131q50 39 121 39h4h4q58 0 103 -27q59 40 118 20q39 -13 50 -42v-1q4 -14 1 -25
t-12 -16t-19 -5.5t-20 6.5t-14 21q-6 15 -16 25q-14 13 -33.5 13.5t-33.5 -10.5q57 -47 58 -129q0 -76 -50 -117t-128 -42h-4h-4h-4h-4q-63 1 -108 28q-29 -26 -26 -43q3 -18 49 -25q75 -5 120 -6q72 -1 117 -36q42 -32 48 -82q7 -62 -40 -109q-52 -52 -143 -52
q-41 -1 -80 10.5t-71.5 39.5t-40.5 67q-9 45 9 81v0q13 19 33.5 17.5t28 -17t-3.5 -36.5q-13 -22 -10 -46q7 -42 49.5 -68.5t86.5 -25.5q58 1 96 46q35 42 24 85q-15 54 -100 58q-22 1 -64 1q-38 0 -52 1q-24 1 -47.5 14t-32.5 33zM117 284q0 -61 29.5 -96t88.5 -37
q59 2 88.5 37t29.5 96q0 98 -55 135q-26 18 -63 18t-63 -18q-55 -37 -55 -135z" />
    <glyph glyph-name="Gdotaccent" unicode="&#x120;" horiz-adv-x="724" 
d="M320 852q0 73 81 73t81 -73q0 -35 -20.5 -54t-60.5 -19q-81 0 -81 73zM311 699h11q47 1 94 -14.5t82.5 -52t34.5 -84.5q0 -19 -18 -28t-35.5 -0.5t-17.5 30.5v1q1 53 -43.5 89t-99.5 34q-73 -3 -127 -74q-67 -88 -71 -250q4 -163 71 -251q55 -71 129 -73q45 -1 77 14
t48 45t23 63.5t8 77.5h-126v30h195v-18q0 -115 -55 -177.5t-169 -60.5h-11q-76 1 -134.5 42.5t-89 104.5t-36.5 139q-3 25 -3 60q0 32 2 58q4 63 26 120q32 80 92 127t143 48z" />
    <glyph glyph-name="gdotaccent" unicode="&#x121;" horiz-adv-x="632" 
d="M236 687q0 73 81 73t81 -73q0 -35 -20.5 -54t-60.5 -19q-81 0 -81 73zM69 64q-13 30 -1 64q9 25 30 44q-49 43 -49 116q1 84 61 131q50 39 121 39h4h4q58 0 103 -27q59 40 118 20q39 -13 50 -42v-1q4 -14 1 -25t-12 -16t-19 -5.5t-20 6.5t-14 21q-6 15 -16 25
q-14 13 -33.5 13.5t-33.5 -10.5q57 -47 58 -129q0 -76 -50 -117t-128 -42h-4h-4h-4h-4q-63 1 -108 28q-29 -26 -26 -43q3 -18 49 -25q75 -5 120 -6q72 -1 117 -36q42 -32 48 -82q7 -62 -40 -109q-52 -52 -143 -52q-41 -1 -80 10.5t-71.5 39.5t-40.5 67q-9 45 9 81v0
q13 19 33.5 17.5t28 -17t-3.5 -36.5q-13 -22 -10 -46q7 -42 49.5 -68.5t86.5 -25.5q58 1 96 46q35 42 24 85q-15 54 -100 58q-22 1 -64 1q-38 0 -52 1q-24 1 -47.5 14t-32.5 33zM117 284q0 -61 29.5 -96t88.5 -37q59 2 88.5 37t29.5 96q0 98 -55 135q-26 18 -63 18t-63 -18
q-55 -37 -55 -135z" />
    <glyph glyph-name="uni0122" unicode="&#x122;" horiz-adv-x="724" 
d="M307 -208q7 24 16.5 70t13.5 77h138v-10q-37 -82 -81 -150h-87v13zM311 699h11q47 1 94 -14.5t82.5 -52t34.5 -84.5q0 -19 -18 -28t-35.5 -0.5t-17.5 30.5v1q1 53 -43.5 89t-99.5 34q-73 -3 -127 -74q-67 -88 -71 -250q4 -163 71 -251q55 -71 129 -73q45 -1 77 14t48 45
t23 63.5t8 77.5h-126v30h195v-18q0 -115 -55 -177.5t-169 -60.5h-11q-76 1 -134.5 42.5t-89 104.5t-36.5 139q-3 25 -3 60q0 32 2 58q4 63 26 120q32 80 92 127t143 48z" />
    <glyph glyph-name="uni0123" unicode="&#x123;" horiz-adv-x="632" 
d="M395 753q-7 -24 -16.5 -70t-13.5 -77h-138v10q38 83 81 150h87v-13zM69 64q-13 30 -1 64q9 25 30 44q-49 43 -49 116q1 84 61 131q50 39 121 39h4h4q58 0 103 -27q59 40 118 20q39 -13 50 -42v-1q4 -14 1 -25t-12 -16t-19 -5.5t-20 6.5t-14 21q-6 15 -16 25
q-14 13 -33.5 13.5t-33.5 -10.5q57 -47 58 -129q0 -76 -50 -117t-128 -42h-4h-4h-4h-4q-63 1 -108 28q-29 -26 -26 -43q3 -18 49 -25q75 -5 120 -6q72 -1 117 -36q42 -32 48 -82q7 -62 -40 -109q-52 -52 -143 -52q-41 -1 -80 10.5t-71.5 39.5t-40.5 67q-9 45 9 81v0
q13 19 33.5 17.5t28 -17t-3.5 -36.5q-13 -22 -10 -46q7 -42 49.5 -68.5t86.5 -25.5q58 1 96 46q35 42 24 85q-15 54 -100 58q-22 1 -64 1q-38 0 -52 1q-24 1 -47.5 14t-32.5 33zM117 284q0 -61 29.5 -96t88.5 -37q59 2 88.5 37t29.5 96q0 98 -55 135q-26 18 -63 18t-63 -18
q-55 -37 -55 -135z" />
    <glyph glyph-name="Hcircumflex" unicode="&#x124;" horiz-adv-x="765" 
d="M494 771q-77 45 -114 86q-38 -40 -112 -86h-99v13q92 92 125 147h174q15 -25 52.5 -69t72.5 -78v-13h-99zM141 700v-325h319v325h66v-702h-66v347h-319v-347h-66v702h66z" />
    <glyph glyph-name="hcircumflex" unicode="&#x125;" horiz-adv-x="657" 
d="M442 798q-77 45 -114 86q-38 -40 -112 -86h-99v13q92 92 125 147h174q15 -25 52.5 -69t72.5 -78v-13h-99zM131 390q35 39 86 56q65 21 123 -2q51 -20 74.5 -66t23.5 -105v-275h-66v275q0 32 -7 59.5t-26 51.5t-49 33q-42 12 -86 -8q-46 -20 -73 -66v-345h-66v695h66v-303
z" />
    <glyph glyph-name="Hbar" unicode="&#x126;" horiz-adv-x="765" 
d="M675 619h90v-97h-90v-522h-151v308h-283v-308h-151v522h-90v97h90v95h151v-95h283v95h151v-95zM524 434v88h-283v-88h283z" />
    <glyph glyph-name="hbar" unicode="&#x127;" horiz-adv-x="657" 
d="M582 0h-149v289q0 118 -88 118q-62 0 -90 -42.5t-28 -137.5v-227h-149v584h-76v97h76v79h149v-79h154v-97h-154v-9q0 -41 -7 -129h9q50 80 158 80q96 0 145.5 -51.5t49.5 -148.5v-326z" />
    <glyph glyph-name="Itilde" unicode="&#x128;" horiz-adv-x="389" 
d="M115 822q-15 0 -29 -13t-20 -39h-73q5 71 40 111t93 40q20 0 39 -8t38 -17.5t37 -17.5t36 -8q15 0 29 12.5t20 39.5h73q-5 -71 -40.5 -111t-92.5 -40q-20 0 -39.5 8t-38 17.5t-36.5 17.5t-36 8zM141 -2h-66v702h66v-702z" />
    <glyph glyph-name="itilde" unicode="&#x129;" horiz-adv-x="305" 
d="M73 657q-15 0 -29 -13t-20 -39h-73q5 71 40 111t93 40q20 0 39 -8t38 -17.5t37 -17.5t36 -8q15 0 29 12.5t20 39.5h73q-5 -71 -40.5 -111t-92.5 -40q-20 0 -39.5 8t-38 17.5t-36.5 17.5t-36 8zM106 135h-61v326h61v-326z" />
    <glyph glyph-name="Imacron" unicode="&#x12a;" horiz-adv-x="389" 
d="M31 874h331v-103h-331v103zM141 -2h-66v702h66v-702z" />
    <glyph glyph-name="imacron" unicode="&#x12b;" horiz-adv-x="305" 
d="M-11 709h331v-103h-331v103zM106 135h-61v326h61v-326z" />
    <glyph glyph-name="Ibreve" unicode="&#x12c;" horiz-adv-x="389" 
d="M388 936q-6 -75 -59.5 -120t-134.5 -45q-85 0 -135.5 44.5t-54.5 120.5h83q2 -23 13.5 -36t32 -19t62.5 -6q101 0 108 61h85zM141 -2h-66v702h66v-702z" />
    <glyph glyph-name="ibreve" unicode="&#x12d;" horiz-adv-x="305" 
d="M345 771q-6 -75 -59.5 -120t-134.5 -45q-85 0 -135.5 44.5t-54.5 120.5h83q2 -23 13.5 -36t32 -19t62.5 -6q101 0 108 61h85zM106 135h-61v326h61v-326z" />
    <glyph glyph-name="Iogonek" unicode="&#x12e;" horiz-adv-x="389" 
d="M201 -111q0 -21 11 -30.5t28 -9.5q27 0 56 9v-87q-40 -11 -76 -11q-55 0 -88.5 31t-33.5 81q0 33 18.5 61.5t69.5 66.5h87q-34 -32 -53 -59t-19 -52zM141 -2h-66v702h66v-702z" />
    <glyph glyph-name="iogonek" unicode="&#x12f;" horiz-adv-x="305" 
d="M149 -111q0 -21 11 -30.5t28 -9.5q27 0 56 9v-87q-40 -11 -76 -11q-55 0 -88.5 31t-33.5 81q0 33 18.5 61.5t69.5 66.5h87q-34 -32 -53 -59t-19 -52zM131 457v-459h-66v459h66zM57 618q0 17 12 29t29 12t29 -12t12 -29t-12 -29t-29 -12t-29 12t-12 29z" />
    <glyph glyph-name="Idotaccent" unicode="&#x130;" horiz-adv-x="389" 
d="M113 852q0 73 81 73t81 -73q0 -35 -20.5 -54t-60.5 -19q-81 0 -81 73zM141 -2h-66v702h66v-702z" />
    <glyph glyph-name="dotlessi" unicode="&#x131;" horiz-adv-x="152" 
d="M106 135h-61v326h61v-326z" />
    <glyph glyph-name="IJ" unicode="&#x132;" horiz-adv-x="720" 
d="M141 -2h-66v702h66v-702zM408 37q-5 14 -1.5 25.5t12.5 16.5t19 5.5t20 -7t14 -20.5q6 -16 16 -26q22 -20 51.5 -10t35.5 39q2 7 2 40v600h66v-523q0 -67 -16 -103q-20 -46 -71 -70.5t-98 -9.5q-39 13 -50 43z" />
    <glyph glyph-name="ij" unicode="&#x133;" horiz-adv-x="590" 
d="M131 457v-459h-66v459h66zM57 618q0 17 12 29t29 12t29 -12t12 -29t-12 -29t-29 -12t-29 12t-12 29zM246 -128q6 -16 16 -26q22 -21 51.5 -10.5t35.5 39.5q2 7 2 40v542h66v-465q0 -68 -16 -103q-20 -46 -71 -70.5t-98 -9.5q-39 13 -50 43q-5 14 -1.5 25.5t12.5 16.5
t19 5.5t20 -7t14 -20.5zM343 618q0 17 12 29t29 12t29 -12t12 -29t-12 -29t-29 -12t-29 12t-12 29z" />
    <glyph glyph-name="Jcircumflex" unicode="&#x134;" horiz-adv-x="331" 
d="M280 771q-77 45 -114 86q-38 -40 -112 -86h-99v13q92 92 125 147h174q15 -25 52.5 -69t72.5 -78v-13h-99zM19 37q-5 14 -1.5 25.5t12.5 16.5t19 5.5t20 -7t14 -20.5q6 -16 16 -26q22 -20 51.5 -10t35.5 39q2 7 2 40v600h66v-523q0 -67 -16 -103q-20 -46 -71 -70.5
t-98 -9.5q-39 13 -50 43z" />
    <glyph glyph-name="jcircumflex" unicode="&#x135;" horiz-adv-x="305" 
d="M264 606q-77 45 -114 86q-38 -40 -112 -86h-99v13q92 92 125 147h174q15 -25 52.5 -69t72.5 -78v-13h-99zM34 -240q-57 0 -98 12v117q34 -9 70 -9q38 0 55 21t17 62v583h149v-605q0 -87 -50.5 -134t-142.5 -47z" />
    <glyph glyph-name="uni0136" unicode="&#x136;" horiz-adv-x="664" 
d="M247 -208q7 24 16.5 70t13.5 77h138v-10q-37 -82 -81 -150h-87v13zM75 325v5v370h66v-315l324 315h43l-325 -317l5 -6l339 -379h-87l-299 332v-332h-66v327z" />
    <glyph glyph-name="uni0137" unicode="&#x137;" horiz-adv-x="620" 
d="M228 -208q7 24 16.5 70t13.5 77h138v-10q-37 -82 -81 -150h-87v13zM65 -2v327v5v370h66v-445l207 201h43l-204 -199l237 -259h-94l-189 210v-210h-66z" />
    <glyph glyph-name="kgreenlandic" unicode="&#x138;" horiz-adv-x="620" 
d="M226 284l69 83l153 179h159l-215 -250l228 -296h-170l-153 208l-70 -44v-164h-149v546h149v-143l-1 -79l-2 -40h2z" />
    <glyph glyph-name="Lacute" unicode="&#x139;" horiz-adv-x="564" 
d="M141 700v-672h307v-30h-373v702h66zM130 771v13q84 98 115 147h167v-10q-25 -25 -86.5 -75.5t-96.5 -74.5h-99z" />
    <glyph glyph-name="lacute" unicode="&#x13a;" horiz-adv-x="305" 
d="M65 -2v327v5v370h66v-702h-66zM87 799v13q84 98 115 147h167v-10q-25 -25 -86.5 -75.5t-96.5 -74.5h-99z" />
    <glyph glyph-name="uni013B" unicode="&#x13b;" horiz-adv-x="564" 
d="M207 -208q7 24 16.5 70t13.5 77h138v-10q-37 -82 -81 -150h-87v13zM141 700v-672h307v-30h-373v702h66z" />
    <glyph glyph-name="uni013C" unicode="&#x13c;" horiz-adv-x="305" 
d="M48 -208q7 24 16.5 70t13.5 77h138v-10q-37 -82 -81 -150h-87v13zM65 -2v327v5v370h66v-702h-66z" />
    <glyph glyph-name="Lcaron" unicode="&#x13d;" horiz-adv-x="564" 
d="M353 568q7 24 16.5 70t13.5 77h138v-10q-39 -86 -81 -150h-87v13zM141 700v-672h307v-30h-373v702h66z" />
    <glyph glyph-name="lcaron" unicode="&#x13e;" horiz-adv-x="305" 
d="M272 613q7 24 16.5 70t13.5 77h138v-10q-39 -86 -81 -150h-87v13zM65 -2v327v5v370h66v-702h-66z" />
    <glyph glyph-name="Ldot" unicode="&#x13f;" horiz-adv-x="564" 
d="M345 367q0 73 81 73t81 -73q0 -35 -20.5 -54t-60.5 -19q-81 0 -81 73zM141 700v-672h307v-30h-373v702h66z" />
    <glyph glyph-name="ldot" unicode="&#x140;" horiz-adv-x="428" 
d="M287 339q0 73 81 73t81 -73q0 -35 -20.5 -54t-60.5 -19q-81 0 -81 73zM65 -2v327v5v370h66v-702h-66z" />
    <glyph glyph-name="Lslash" unicode="&#x141;" horiz-adv-x="564" 
d="M90 0v240l-34 -20l-55 96l89 54v344h151v-252l70 43l57 -96l-127 -77v-207h290v-125h-441z" />
    <glyph glyph-name="lslash" unicode="&#x142;" horiz-adv-x="305" 
d="M227 454l34 21l57 -96l-91 -55v-324h-149v233l-35 -21l-55 96l90 55v397h149v-306z" />
    <glyph glyph-name="Nacute" unicode="&#x143;" horiz-adv-x="812" 
d="M105 700v-8l234 -373l121 -192v573h29v-702h-26l-358 570v-570h-30v702h30zM320 771v13q84 98 115 147h167v-10q-25 -25 -86.5 -75.5t-96.5 -74.5h-99z" />
    <glyph glyph-name="nacute" unicode="&#x144;" horiz-adv-x="657" 
d="M131 449v-75q29 30 67.5 52t75.5 26q74 7 117 -54q20 -28 26 -55.5t6 -69.5v-275h-66v275q0 73 -24 107q-14 19 -35 28q-37 15 -83 -6q-47 -22 -84 -74v-330h-66v451h66zM245 606v13q84 98 115 147h167v-10q-25 -25 -86.5 -75.5t-96.5 -74.5h-99z" />
    <glyph glyph-name="uni0145" unicode="&#x145;" horiz-adv-x="812" 
d="M292 -208q7 24 16.5 70t13.5 77h138v-10q-37 -82 -81 -150h-87v13zM105 700v-8l234 -373l121 -192v573h29v-702h-26l-358 570v-570h-30v702h30z" />
    <glyph glyph-name="uni0146" unicode="&#x146;" horiz-adv-x="657" 
d="M228 -208q7 24 16.5 70t13.5 77h138v-10q-37 -82 -81 -150h-87v13zM131 449v-75q29 30 67.5 52t75.5 26q74 7 117 -54q20 -28 26 -55.5t6 -69.5v-275h-66v275q0 73 -24 107q-14 19 -35 28q-37 15 -83 -6q-47 -22 -84 -74v-330h-66v451h66z" />
    <glyph glyph-name="Ncaron" unicode="&#x147;" horiz-adv-x="812" 
d="M631 931v-13q-41 -41 -75.5 -82t-49.5 -65h-174q-14 23 -40.5 55t-84.5 92v13h99q72 -45 112 -86q41 42 114 86h99zM105 700v-8l234 -373l121 -192v573h29v-702h-26l-358 570v-570h-30v702h30z" />
    <glyph glyph-name="ncaron" unicode="&#x148;" horiz-adv-x="657" 
d="M553 766v-13q-41 -41 -75.5 -82t-49.5 -65h-174q-14 23 -40.5 55t-84.5 92v13h99q72 -45 112 -86q41 42 114 86h99zM131 449v-75q29 30 67.5 52t75.5 26q74 7 117 -54q20 -28 26 -55.5t6 -69.5v-275h-66v275q0 73 -24 107q-14 19 -35 28q-37 15 -83 -6q-47 -22 -84 -74
v-330h-66v451h66z" />
    <glyph glyph-name="napostrophe" unicode="&#x149;" horiz-adv-x="778" 
d="M189 714l7 -11q-24 -96 -86 -234h-107q34 145 49 245h137zM253 449v-75q29 30 67.5 52t75.5 26q74 7 117 -54q20 -28 26 -55.5t6 -69.5v-275h-66v275q0 73 -24 107q-14 19 -35 28q-37 15 -83 -6q-47 -22 -84 -74v-330h-66v451h66z" />
    <glyph glyph-name="Eng" unicode="&#x14a;" horiz-adv-x="812" 
d="M496 -210q-56 0 -96 11v118q45 -10 81 -10q56 0 81.5 22t28.5 71l-371 538h-4q9 -143 9 -204v-336h-135v714h191l310 -440h3q-7 139 -7 197v243h136v-714q0 -101 -59 -155.5t-168 -54.5z" />
    <glyph glyph-name="eng" unicode="&#x14b;" horiz-adv-x="657" 
d="M405 -240q-52 0 -90 12v117q29 -9 58 -9q60 0 60 83v367q0 107 -88 107q-62 0 -90 -41.5t-28 -138.5v-257h-149v546h114l20 -70h9q24 39 67.5 59.5t99.5 20.5q95 0 144.5 -51.5t49.5 -148.5v-415q0 -87 -46 -134t-131 -47z" />
    <glyph glyph-name="Omacron" unicode="&#x14c;" horiz-adv-x="795" 
d="M233 874h331v-103h-331v103zM51 286q-3 25 -3 60q0 32 2 58q4 63 26 120q32 80 92 127t143 48h18q102 -1 170 -71q41 -42 64.5 -101.5t27.5 -122.5q2 -26 2 -58q0 -35 -3 -60q-7 -76 -37 -139t-88.5 -104.5t-135.5 -42.5h-18q-76 1 -134.5 42.5t-89 104.5t-36.5 139z
M192 99q55 -71 128 -73q74 2 128 73q68 88 72 251q-4 162 -71 250q-54 71 -128 74h-1h-1q-73 -3 -127 -74q-67 -88 -71 -250q4 -163 71 -251z" />
    <glyph glyph-name="omacron" unicode="&#x14d;" horiz-adv-x="619" 
d="M144 709h331v-103h-331v103zM49 177q-9 77 7 137q13 52 47.5 87.5t86.5 48.5q23 6 48 6h2h2h6q22 0 42 -5q55 -12 91.5 -50t49.5 -94q15 -62 5 -136q-9 -65 -46 -110t-99 -58q-21 -5 -43 -5h-6h-2h-2q-25 -1 -48 6q-42 10 -72.5 35.5t-47 60t-21.5 77.5zM154 384
q-39 -55 -41 -157q2 -103 41 -157q16 -22 36.5 -35t45.5 -15h8h4q50 4 83 50q39 54 41 157q-2 102 -41 157q-33 45 -83 49h-4h-7q-50 -4 -83 -49z" />
    <glyph glyph-name="Obreve" unicode="&#x14e;" horiz-adv-x="795" 
d="M590 936q-6 -75 -59.5 -120t-134.5 -45q-85 0 -135.5 44.5t-54.5 120.5h83q2 -23 13.5 -36t32 -19t62.5 -6q101 0 108 61h85zM51 286q-3 25 -3 60q0 32 2 58q4 63 26 120q32 80 92 127t143 48h18q102 -1 170 -71q41 -42 64.5 -101.5t27.5 -122.5q2 -26 2 -58
q0 -35 -3 -60q-7 -76 -37 -139t-88.5 -104.5t-135.5 -42.5h-18q-76 1 -134.5 42.5t-89 104.5t-36.5 139zM192 99q55 -71 128 -73q74 2 128 73q68 88 72 251q-4 162 -71 250q-54 71 -128 74h-1h-1q-73 -3 -127 -74q-67 -88 -71 -250q4 -163 71 -251z" />
    <glyph glyph-name="obreve" unicode="&#x14f;" horiz-adv-x="619" 
d="M501 771q-6 -75 -59.5 -120t-134.5 -45q-85 0 -135.5 44.5t-54.5 120.5h83q2 -23 13.5 -36t32 -19t62.5 -6q101 0 108 61h85zM49 177q-9 77 7 137q13 52 47.5 87.5t86.5 48.5q23 6 48 6h2h2h6q22 0 42 -5q55 -12 91.5 -50t49.5 -94q15 -62 5 -136q-9 -65 -46 -110
t-99 -58q-21 -5 -43 -5h-6h-2h-2q-25 -1 -48 6q-42 10 -72.5 35.5t-47 60t-21.5 77.5zM154 384q-39 -55 -41 -157q2 -103 41 -157q16 -22 36.5 -35t45.5 -15h8h4q50 4 83 50q39 54 41 157q-2 102 -41 157q-33 45 -83 49h-4h-7q-50 -4 -83 -49z" />
    <glyph glyph-name="Ohungarumlaut" unicode="&#x150;" horiz-adv-x="795" 
d="M233 771v13q30 42 57.5 84.5t37.5 62.5h147v-10q-16 -26 -71.5 -75t-91.5 -75h-79zM427 771v13q68 94 95 147h147v-10q-12 -21 -61 -65.5t-102 -84.5h-79zM51 286q-3 25 -3 60q0 32 2 58q4 63 26 120q32 80 92 127t143 48h18q102 -1 170 -71q41 -42 64.5 -101.5
t27.5 -122.5q2 -26 2 -58q0 -35 -3 -60q-7 -76 -37 -139t-88.5 -104.5t-135.5 -42.5h-18q-76 1 -134.5 42.5t-89 104.5t-36.5 139zM192 99q55 -71 128 -73q74 2 128 73q68 88 72 251q-4 162 -71 250q-54 71 -128 74h-1h-1q-73 -3 -127 -74q-67 -88 -71 -250q4 -163 71 -251z
" />
    <glyph glyph-name="ohungarumlaut" unicode="&#x151;" horiz-adv-x="619" 
d="M136 606v13q30 42 57.5 84.5t37.5 62.5h147v-10q-16 -26 -71.5 -75t-91.5 -75h-79zM330 606v13q68 94 95 147h147v-10q-12 -21 -61 -65.5t-102 -84.5h-79zM49 177q-9 77 7 137q13 52 47.5 87.5t86.5 48.5q23 6 48 6h2h2h6q22 0 42 -5q55 -12 91.5 -50t49.5 -94
q15 -62 5 -136q-9 -65 -46 -110t-99 -58q-21 -5 -43 -5h-6h-2h-2q-25 -1 -48 6q-42 10 -72.5 35.5t-47 60t-21.5 77.5zM154 384q-39 -55 -41 -157q2 -103 41 -157q16 -22 36.5 -35t45.5 -15h8h4q50 4 83 50q39 54 41 157q-2 102 -41 157q-33 45 -83 49h-4h-7q-50 -4 -83 -49
z" />
    <glyph glyph-name="OE" unicode="&#x152;" horiz-adv-x="924" 
d="M533 566v123h369v-30h-303v-291h229v-30h-229v-313h303v-30h-369v125q-72 -121 -207 -122h-18q-75 1 -133 42t-88 103t-37 137q-2 25 -2 59q0 32 2 57q4 63 26 119q31 80 90.5 126.5t141.5 46.5h18q135 -1 207 -122zM191 95q15 -20 34 -35.5t43 -25.5t49 -11q73 2 127 72
q66 88 70 248q-4 160 -70 247q-53 71 -126 73h-1h-1q-72 -2 -126 -73q-66 -87 -70 -247q4 -161 71 -248z" />
    <glyph glyph-name="oe" unicode="&#x153;" horiz-adv-x="790" 
d="M742 145q0 -25 -10 -48q-21 -47 -75 -74q-53 -27 -112 -24q-96 4 -144 80q-39 -63 -113 -79q-21 -5 -43 -5h-6h-1h-2q-25 0 -48 6q-61 15 -96.5 61t-42.5 111q-9 75 6 134q14 52 48 87t85 48q23 6 48 6h1.5h1.5h6q22 0 42 -5q77 -17 116 -83q28 45 74 68q48 24 105 22
q50 -3 95 -27t60 -67q5 -15 5 -31q0 -25 -13 -44q-19 -27 -67 -43q-22 -8 -91 -22q-49 -10 -75 -19q-45 -16 -63 -42q6 -65 45 -101q35 -33 83 -33q17 0 33 5q40 12 61.5 44.5t21.5 74.5q0 23 17 31t33 -1.5t15 -29.5zM434 195q31 25 103 42q72 18 81 21q39 13 51 32
q8 11 8 27q-1 35 -19 63.5t-51 40.5q-57 23 -106 -16q-59 -45 -68 -154q2 -30 1 -56zM366 216q0 14 1 28q-6 89 -43 137q-32 41 -78 44h-4h-8q-49 -4 -81 -48q-39 -54 -41 -155q2 -102 41 -156q32 -44 81 -48h8h4q45 3 76 42q37 46 45 132q-1 13 -1 24z" />
    <glyph glyph-name="Racute" unicode="&#x154;" horiz-adv-x="660" 
d="M371 347q46 -15 74.5 -54.5t28.5 -87.5v-207h-66v219q0 44 -31 75t-75 31h-75h-19h-67v-325h-57h-9v693v9h195h19q63 -3 111.5 -35.5t68.5 -90.5q9 -29 9 -59q0 -125 -107 -168zM141 671v-317h31h35.5h31.5h8h5q78 0 119 41t41 119q0 43 -18 78q-42 80 -148 79h-105z
M233 771v13q84 98 115 147h167v-10q-25 -25 -86.5 -75.5t-96.5 -74.5h-99z" />
    <glyph glyph-name="racute" unicode="&#x155;" horiz-adv-x="454" 
d="M131 449q59 40 119 21q38 -13 50 -43q4 -14 1 -25.5t-12.5 -16.5t-19.5 -5.5t-19.5 7t-13.5 20.5q-6 16 -17 26q-22 20 -51.5 10t-35.5 -39q-1 -5 -1 -11v-395h-66v451h66zM165 606v13q84 98 115 147h167v-10q-25 -25 -86.5 -75.5t-96.5 -74.5h-99z" />
    <glyph glyph-name="uni0156" unicode="&#x156;" horiz-adv-x="660" 
d="M259 -208q7 24 16.5 70t13.5 77h138v-10q-37 -82 -81 -150h-87v13zM371 347q46 -15 74.5 -54.5t28.5 -87.5v-207h-66v219q0 44 -31 75t-75 31h-75h-19h-67v-325h-57h-9v693v9h195h19q63 -3 111.5 -35.5t68.5 -90.5q9 -29 9 -59q0 -125 -107 -168zM141 671v-317h31h35.5
h31.5h8h5q78 0 119 41t41 119q0 43 -18 78q-42 80 -148 79h-105z" />
    <glyph glyph-name="uni0157" unicode="&#x157;" horiz-adv-x="454" 
d="M48 -208q7 24 16.5 70t13.5 77h138v-10q-37 -82 -81 -150h-87v13zM131 449q59 40 119 21q38 -13 50 -43q4 -14 1 -25.5t-12.5 -16.5t-19.5 -5.5t-19.5 7t-13.5 20.5q-6 16 -17 26q-22 20 -51.5 10t-35.5 -39q-1 -5 -1 -11v-395h-66v451h66z" />
    <glyph glyph-name="Rcaron" unicode="&#x158;" horiz-adv-x="660" 
d="M540 931v-13q-41 -41 -75.5 -82t-49.5 -65h-174q-14 23 -40.5 55t-84.5 92v13h99q72 -45 112 -86q41 42 114 86h99zM371 347q46 -15 74.5 -54.5t28.5 -87.5v-207h-66v219q0 44 -31 75t-75 31h-75h-19h-67v-325h-57h-9v693v9h195h19q63 -3 111.5 -35.5t68.5 -90.5
q9 -29 9 -59q0 -125 -107 -168zM141 671v-317h31h35.5h31.5h8h5q78 0 119 41t41 119q0 43 -18 78q-42 80 -148 79h-105z" />
    <glyph glyph-name="rcaron" unicode="&#x159;" horiz-adv-x="454" 
d="M465 766v-13q-41 -41 -75.5 -82t-49.5 -65h-174q-14 23 -40.5 55t-84.5 92v13h99q72 -45 112 -86q41 42 114 86h99zM131 449q59 40 119 21q38 -13 50 -43q4 -14 1 -25.5t-12.5 -16.5t-19.5 -5.5t-19.5 7t-13.5 20.5q-6 16 -17 26q-22 20 -51.5 10t-35.5 -39q-1 -5 -1 -11
v-395h-66v451h66z" />
    <glyph glyph-name="Sacute" unicode="&#x15a;" horiz-adv-x="550" 
d="M179 20q-64 25 -100 73.5t-36 116.5q-2 22 15.5 33t36.5 2q21 -9 21 -35q0 -88 49 -135q39 -36 88 -45.5t98 10.5q41 16 71.5 49t32.5 73q3 46 -36 82q-23 22 -65 47q-27 15 -83 43q-93 46 -128 71q-39 29 -60 67t-15 82q9 62 66 104q59 44 141 45q41 0 79 -10t71 -29
t53.5 -53t21.5 -77q1 -21 -15.5 -31.5t-33.5 -2.5t-18 33q-3 71 -53 110q-44 35 -105 33q-57 -2 -101 -35q-43 -32 -48 -75q-9 -65 75 -111q25 -14 71 -36t63 -31q99 -52 139 -100q53 -63 39 -131q-10 -44 -43 -78.5t-78 -54.5q-50 -21 -106 -22.5t-107 18.5zM200 771v13
q84 98 115 147h167v-10q-25 -25 -86.5 -75.5t-96.5 -74.5h-99z" />
    <glyph glyph-name="sacute" unicode="&#x15b;" horiz-adv-x="497" 
d="M188 1q-60 11 -102 49t-42 96q-2 19 15 29t34 2t17 -31q0 -95 69 -119q26 -9 57 -5t58.5 21.5t36.5 44.5q7 21 0 43q-7 20 -28.5 36t-48.5 25t-58.5 20t-58.5 22t-47.5 30t-27.5 43q-11 42 8 77q19 34 59 51.5t83 18.5q41 0 78 -12.5t63.5 -43t26.5 -72.5
q1 -17 -13.5 -26t-30 -2t-15.5 28q0 69 -48 93q-25 14 -59 12q-12 -1 -24 -4q-28 -7 -54 -26t-29 -44q-1 -13 4 -25q9 -21 48 -37q8 -4 85 -30q25 -9 42.5 -16.5t38.5 -20.5t34 -31t17 -40q14 -70 -26 -114q-28 -30 -72.5 -40t-89.5 -2zM167 606v13q84 98 115 147h167v-10
q-25 -25 -86.5 -75.5t-96.5 -74.5h-99z" />
    <glyph glyph-name="Scircumflex" unicode="&#x15c;" horiz-adv-x="550" 
d="M405 771q-77 45 -114 86q-38 -40 -112 -86h-99v13q92 92 125 147h174q15 -25 52.5 -69t72.5 -78v-13h-99zM179 20q-64 25 -100 73.5t-36 116.5q-2 22 15.5 33t36.5 2q21 -9 21 -35q0 -88 49 -135q39 -36 88 -45.5t98 10.5q41 16 71.5 49t32.5 73q3 46 -36 82
q-23 22 -65 47q-27 15 -83 43q-93 46 -128 71q-39 29 -60 67t-15 82q9 62 66 104q59 44 141 45q41 0 79 -10t71 -29t53.5 -53t21.5 -77q1 -21 -15.5 -31.5t-33.5 -2.5t-18 33q-3 71 -53 110q-44 35 -105 33q-57 -2 -101 -35q-43 -32 -48 -75q-9 -65 75 -111q25 -14 71 -36
t63 -31q99 -52 139 -100q53 -63 39 -131q-10 -44 -43 -78.5t-78 -54.5q-50 -21 -106 -22.5t-107 18.5z" />
    <glyph glyph-name="scircumflex" unicode="&#x15d;" horiz-adv-x="497" 
d="M371 606q-77 45 -114 86q-38 -40 -112 -86h-99v13q92 92 125 147h174q15 -25 52.5 -69t72.5 -78v-13h-99zM188 1q-60 11 -102 49t-42 96q-2 19 15 29t34 2t17 -31q0 -95 69 -119q26 -9 57 -5t58.5 21.5t36.5 44.5q7 21 0 43q-7 20 -28.5 36t-48.5 25t-58.5 20t-58.5 22
t-47.5 30t-27.5 43q-11 42 8 77q19 34 59 51.5t83 18.5q41 0 78 -12.5t63.5 -43t26.5 -72.5q1 -17 -13.5 -26t-30 -2t-15.5 28q0 69 -48 93q-25 14 -59 12q-12 -1 -24 -4q-28 -7 -54 -26t-29 -44q-1 -13 4 -25q9 -21 48 -37q8 -4 85 -30q25 -9 42.5 -16.5t38.5 -20.5t34 -31
t17 -40q14 -70 -26 -114q-28 -30 -72.5 -40t-89.5 -2z" />
    <glyph glyph-name="Scedilla" unicode="&#x15e;" horiz-adv-x="550" 
d="M179 20q-64 25 -100 73.5t-36 116.5q-2 22 15.5 33t36.5 2q21 -9 21 -35q0 -88 49 -135q39 -36 88 -45.5t98 10.5q41 16 71.5 49t32.5 73q3 46 -36 82q-23 22 -65 47q-27 15 -83 43q-93 46 -128 71q-39 29 -60 67t-15 82q9 62 66 104q59 44 141 45q41 0 79 -10t71 -29
t53.5 -53t21.5 -77q1 -21 -15.5 -31.5t-33.5 -2.5t-18 33q-3 71 -53 110q-44 35 -105 33q-57 -2 -101 -35q-43 -32 -48 -75q-9 -65 75 -111q25 -14 71 -36t63 -31q99 -52 139 -100q53 -63 39 -131q-10 -44 -43 -78.5t-78 -54.5q-50 -21 -106 -22.5t-107 18.5zM377 -122
q0 -62 -37 -90t-114 -28q-38 0 -71 10v82q13 -3 35.5 -6.5t34.5 -3.5q35 0 35 30q0 41 -81 53l38 75h94l-13 -30q36 -12 57.5 -36.5t21.5 -55.5z" />
    <glyph glyph-name="scedilla" unicode="&#x15f;" horiz-adv-x="497" 
d="M188 1q-60 11 -102 49t-42 96q-2 19 15 29t34 2t17 -31q0 -95 69 -119q26 -9 57 -5t58.5 21.5t36.5 44.5q7 21 0 43q-7 20 -28.5 36t-48.5 25t-58.5 20t-58.5 22t-47.5 30t-27.5 43q-11 42 8 77q19 34 59 51.5t83 18.5q41 0 78 -12.5t63.5 -43t26.5 -72.5
q1 -17 -13.5 -26t-30 -2t-15.5 28q0 69 -48 93q-25 14 -59 12q-12 -1 -24 -4q-28 -7 -54 -26t-29 -44q-1 -13 4 -25q9 -21 48 -37q8 -4 85 -30q25 -9 42.5 -16.5t38.5 -20.5t34 -31t17 -40q14 -70 -26 -114q-28 -30 -72.5 -40t-89.5 -2zM351 -122q0 -62 -37 -90t-114 -28
q-38 0 -71 10v82q13 -3 35.5 -6.5t34.5 -3.5q35 0 35 30q0 41 -81 53l38 75h94l-13 -30q36 -12 57.5 -36.5t21.5 -55.5z" />
    <glyph glyph-name="Scaron" unicode="&#x160;" horiz-adv-x="556" 
d="M276 816l91 56q5 3 9.5 3.5t8 -1.5t6 -5t2 -7t-3.5 -8l-106 -109q-7 -6 -14 0l-105 108q-5 6 -2.5 12.5t9.5 8t15 -2.5zM178 18q-64 24 -99.5 72t-35.5 115q-2 22 15.5 33t36.5 2q20 -9 20 -35q0 -87 49 -133q38 -36 86.5 -45t96.5 10q40 16 70.5 48.5t32.5 72.5
q3 45 -35 81q-23 22 -65 46q-26 15 -82 42q-91 46 -126 71q-39 28 -60 65.5t-14 81.5q9 61 65 103q59 43 139 44q40 0 78 -9.5t70.5 -29t53 -52.5t21.5 -76q1 -21 -15.5 -31.5t-33.5 -2t-18 32.5q-3 70 -52 109q-44 34 -104 32q-57 -2 -100 -35q-42 -31 -47 -73
q-9 -64 74 -110q19 -10 42 -21.5t48 -23.5t43 -21q97 -51 137 -99q52 -62 38 -130q-9 -43 -42 -77t-77 -53q-50 -22 -105 -23t-105 19z" />
    <glyph glyph-name="scaron" unicode="&#x161;" horiz-adv-x="427" 
d="M210 586l90 56q8 5 16 3t9.5 -8.5t-3.5 -12.5l-106 -109q-7 -6 -13 0l-105 108q-10 11 2 18q9 7 20 0zM186 -1q-59 11 -100.5 48t-41.5 94q-2 20 14.5 29.5t34 2t17.5 -30.5q0 -94 67 -118q26 -9 57 -5q30 4 57.5 21.5t36.5 44.5q7 20 -1 42q-8 24 -36 41t-62.5 28
t-69.5 23t-62.5 33t-34.5 49q-11 41 8 76q19 33 58.5 51t81.5 18q30 0 58.5 -7.5t53 -22t39.5 -40t15 -56.5q1 -18 -13.5 -26.5t-29.5 -1.5t-15 27q0 69 -47 93q-25 13 -59 11q-12 0 -23 -3q-29 -7 -54 -26t-29 -44q-1 -12 4 -25q9 -20 48 -36q7 -4 84 -30q25 -8 42 -16
t37.5 -20.5t33.5 -30t17 -39.5q14 -70 -26 -113q-27 -30 -71 -39.5t-89 -1.5z" />
    <glyph glyph-name="uni0162" unicode="&#x162;" horiz-adv-x="579" 
d="M222 670h-217v30h492h9v-30h-218v-672h-66v672zM405 -122q0 -62 -37 -90t-114 -28q-38 0 -71 10v82q13 -3 35.5 -6.5t34.5 -3.5q35 0 35 30q0 41 -81 53l38 75h94l-13 -30q36 -12 57.5 -36.5t21.5 -55.5z" />
    <glyph glyph-name="uni0163" unicode="&#x163;" horiz-adv-x="434" 
d="M79 429h-50v29h50v160h66v-160h123v-29h-123v-251q0 -86 24 -120q31 -44 88 -32l11 2v-20l-6 -2q-18 -6 -34 -8q-74 -7 -117 54q-20 28 -26 55.5t-6 70.5v251zM361 -122q0 -62 -37 -90t-114 -28q-38 0 -71 10v82q13 -3 35.5 -6.5t34.5 -3.5q35 0 35 30q0 41 -81 53l38 75
h94l-13 -30q36 -12 57.5 -36.5t21.5 -55.5z" />
    <glyph glyph-name="Tcaron" unicode="&#x164;" horiz-adv-x="579" 
d="M502 931v-13q-41 -41 -75.5 -82t-49.5 -65h-174q-14 23 -40.5 55t-84.5 92v13h99q72 -45 112 -86q41 42 114 86h99zM222 670h-217v30h492h9v-30h-218v-672h-66v672z" />
    <glyph glyph-name="tcaron" unicode="&#x165;" horiz-adv-x="434" 
d="M303 623q7 24 16.5 70t13.5 77h138v-10q-39 -86 -81 -150h-87v13zM79 429h-50v29h50v160h66v-160h123v-29h-123v-251q0 -86 24 -120q31 -44 88 -32l11 2v-20l-6 -2q-18 -6 -34 -8q-74 -7 -117 54q-20 28 -26 55.5t-6 70.5v251z" />
    <glyph glyph-name="Tbar" unicode="&#x166;" horiz-adv-x="579" 
d="M365 0h-151v291h-121v124h121v173h-194v126h539v-126h-194v-173h121v-124h-121v-291z" />
    <glyph glyph-name="tbar" unicode="&#x167;" horiz-adv-x="434" 
d="M308 109q39 0 94 17v-111q-25 -12 -61.5 -18.5t-72.5 -6.5q-91 0 -132.5 44.5t-41.5 136.5v72h-62v97h62v94h-71v63l82 50l43 115h95v-116h153v-112h-153v-94h136v-97h-136v-72q0 -32 18 -47t47 -15z" />
    <glyph glyph-name="Utilde" unicode="&#x168;" horiz-adv-x="755" 
d="M299 822q-15 0 -29 -13t-20 -39h-73q5 71 40 111t93 40q20 0 39 -8t38 -17.5t37 -17.5t36 -8q15 0 29 12.5t20 39.5h73q-5 -71 -40.5 -111t-92.5 -40q-20 0 -39.5 8t-38 17.5t-36.5 17.5t-36 8zM186 16q-119 56 -119 228v456h66v-456q0 -201 174 -208q59 -3 99 21
q74 44 74 176v467h30v-471q0 -111 -50 -173t-157 -63q-67 -1 -117 23z" />
    <glyph glyph-name="utilde" unicode="&#x169;" horiz-adv-x="657" 
d="M247 657q-15 0 -29 -13t-20 -39h-73q5 71 40 111t93 40q20 0 39 -8t38 -17.5t37 -17.5t36 -8q15 0 29 12.5t20 39.5h73q-5 -71 -40.5 -111t-92.5 -40q-20 0 -39.5 8t-38 17.5t-36.5 17.5t-36 8zM351 -2v79q-19 -20 -41.5 -36.5t-49.5 -28t-52 -14.5q-74 -7 -117 54
q-20 28 -26 55.5t-6 70.5v275h66v-275q0 -73 24 -107q14 -20 35 -29q37 -15 83 7q48 22 84 74v330h66v-455h-66z" />
    <glyph glyph-name="Umacron" unicode="&#x16a;" horiz-adv-x="755" 
d="M213 874h331v-103h-331v103zM186 16q-119 56 -119 228v456h66v-456q0 -201 174 -208q59 -3 99 21q74 44 74 176v467h30v-471q0 -111 -50 -173t-157 -63q-67 -1 -117 23z" />
    <glyph glyph-name="umacron" unicode="&#x16b;" horiz-adv-x="657" 
d="M161 709h331v-103h-331v103zM351 -2v79q-19 -20 -41.5 -36.5t-49.5 -28t-52 -14.5q-74 -7 -117 54q-20 28 -26 55.5t-6 70.5v275h66v-275q0 -73 24 -107q14 -20 35 -29q37 -15 83 7q48 22 84 74v330h66v-455h-66z" />
    <glyph glyph-name="Ubreve" unicode="&#x16c;" horiz-adv-x="755" 
d="M570 936q-6 -75 -59.5 -120t-134.5 -45q-85 0 -135.5 44.5t-54.5 120.5h83q2 -23 13.5 -36t32 -19t62.5 -6q101 0 108 61h85zM186 16q-119 56 -119 228v456h66v-456q0 -201 174 -208q59 -3 99 21q74 44 74 176v467h30v-471q0 -111 -50 -173t-157 -63q-67 -1 -117 23z" />
    <glyph glyph-name="ubreve" unicode="&#x16d;" horiz-adv-x="657" 
d="M519 771q-6 -75 -59.5 -120t-134.5 -45q-85 0 -135.5 44.5t-54.5 120.5h83q2 -23 13.5 -36t32 -19t62.5 -6q101 0 108 61h85zM351 -2v79q-19 -20 -41.5 -36.5t-49.5 -28t-52 -14.5q-74 -7 -117 54q-20 28 -26 55.5t-6 70.5v275h66v-275q0 -73 24 -107q14 -20 35 -29
q37 -15 83 7q48 22 84 74v330h66v-455h-66z" />
    <glyph glyph-name="Uring" unicode="&#x16e;" horiz-adv-x="755" 
d="M501 887q0 -53 -34.5 -85t-89.5 -32t-88 31t-33 85q0 53 33 84.5t88 31.5q54 0 89 -32.5t35 -82.5zM424 886q0 22 -13 34.5t-34 12.5t-34 -12.5t-13 -34.5t12 -34.5t35 -12.5q21 0 34 12.5t13 34.5zM186 16q-119 56 -119 228v456h66v-456q0 -201 174 -208q59 -3 99 21
q74 44 74 176v467h30v-471q0 -111 -50 -173t-157 -63q-67 -1 -117 23z" />
    <glyph glyph-name="uring" unicode="&#x16f;" horiz-adv-x="657" 
d="M449 722q0 -53 -34.5 -85t-89.5 -32t-88 31t-33 85q0 53 33 84.5t88 31.5q54 0 89 -32.5t35 -82.5zM372 721q0 22 -13 34.5t-34 12.5t-34 -12.5t-13 -34.5t12 -34.5t35 -12.5q21 0 34 12.5t13 34.5zM351 -2v79q-19 -20 -41.5 -36.5t-49.5 -28t-52 -14.5q-74 -7 -117 54
q-20 28 -26 55.5t-6 70.5v275h66v-275q0 -73 24 -107q14 -20 35 -29q37 -15 83 7q48 22 84 74v330h66v-455h-66z" />
    <glyph glyph-name="Uhungarumlaut" unicode="&#x170;" horiz-adv-x="755" 
d="M215 771v13q30 42 57.5 84.5t37.5 62.5h147v-10q-16 -26 -71.5 -75t-91.5 -75h-79zM409 771v13q68 94 95 147h147v-10q-12 -21 -61 -65.5t-102 -84.5h-79zM186 16q-119 56 -119 228v456h66v-456q0 -201 174 -208q59 -3 99 21q74 44 74 176v467h30v-471q0 -111 -50 -173
t-157 -63q-67 -1 -117 23z" />
    <glyph glyph-name="uhungarumlaut" unicode="&#x171;" horiz-adv-x="657" 
d="M168 606v13q30 42 57.5 84.5t37.5 62.5h147v-10q-16 -26 -71.5 -75t-91.5 -75h-79zM362 606v13q68 94 95 147h147v-10q-12 -21 -61 -65.5t-102 -84.5h-79zM351 -2v79q-19 -20 -41.5 -36.5t-49.5 -28t-52 -14.5q-74 -7 -117 54q-20 28 -26 55.5t-6 70.5v275h66v-275
q0 -73 24 -107q14 -20 35 -29q37 -15 83 7q48 22 84 74v330h66v-455h-66z" />
    <glyph glyph-name="Uogonek" unicode="&#x172;" horiz-adv-x="755" 
d="M393 -111q0 -21 11 -30.5t28 -9.5q27 0 56 9v-87q-40 -11 -76 -11q-55 0 -88.5 31t-33.5 81q0 33 18.5 61.5t69.5 66.5h87q-34 -32 -53 -59t-19 -52zM186 16q-119 56 -119 228v456h66v-456q0 -201 174 -208q59 -3 99 21q74 44 74 176v467h30v-471q0 -111 -50 -173
t-157 -63q-67 -1 -117 23z" />
    <glyph glyph-name="uogonek" unicode="&#x173;" horiz-adv-x="657" 
d="M479 -111q0 -21 11 -30.5t28 -9.5q27 0 56 9v-87q-40 -11 -76 -11q-55 0 -88.5 31t-33.5 81q0 33 18.5 61.5t69.5 66.5h87q-34 -32 -53 -59t-19 -52zM351 -2v79q-19 -20 -41.5 -36.5t-49.5 -28t-52 -14.5q-74 -7 -117 54q-20 28 -26 55.5t-6 70.5v275h66v-275
q0 -73 24 -107q14 -20 35 -29q37 -15 83 7q48 22 84 74v330h66v-455h-66z" />
    <glyph glyph-name="Wcircumflex" unicode="&#x174;" horiz-adv-x="966" 
d="M596 771q-77 45 -114 86q-38 -40 -112 -86h-99v13q92 92 125 147h174q15 -25 52.5 -69t72.5 -78v-13h-99zM553 688q-41 -116 -94 -264q66 -188 110 -308l12 -34l221 618h32l-5 -12q-89 -247 -245 -684l-2 -6h-41l-117 328q-62 -173 -115 -322l-3 -6h-41l-251 702h70l2 -6
q37 -102 105.5 -295t101.5 -283l12 -34l103 288l-118 330h70l2 -6q33 -90 81 -226l83 232h32z" />
    <glyph glyph-name="wcircumflex" unicode="&#x175;" horiz-adv-x="855" 
d="M541 606q-77 45 -114 86q-38 -40 -112 -86h-99v13q92 92 125 147h174q15 -25 52.5 -69t72.5 -78v-13h-99zM92 453l144 -363l45 113l-99 250h71l64 -161l64 161h33l-81 -202l64 -161l145 363h32l-156 -393q-1 -2 -4 -9.5t-4 -11.5l-16 -41h-31l-65 164q-30 -74 -63 -159
l-2 -5h-31l-15 38q-1 3 -3 6l-7 18l-156 393h71z" />
    <glyph glyph-name="Ycircumflex" unicode="&#x176;" horiz-adv-x="624" 
d="M426 771q-77 45 -114 86q-38 -40 -112 -86h-99v13q92 92 125 147h174q15 -25 52.5 -69t72.5 -78v-13h-99zM229 -2v298l-221 404h76l2 -5q33 -59 94.5 -172.5t91.5 -166.5l10 -19l199 363h34l-220 -401v-301h-66z" />
    <glyph glyph-name="ycircumflex" unicode="&#x177;" horiz-adv-x="568" 
d="M398 606q-77 45 -114 86q-38 -40 -112 -86h-99v13q92 92 125 147h174q15 -25 52.5 -69t72.5 -78v-13h-99zM91 456l144 -363l145 363h32l-207 -527q-50 -120 -120 -125q-30 -3 -61 17q-20 12 -33.5 31t-13.5 41q1 14 8.5 23.5t20.5 11.5q16 1 27 -10q13 -12 11 -31
q-1 -21 6.5 -37.5t26.5 -18.5q5 0 11 1q26 4 48 34.5t36 64.5l28 71l-16 40q0 2 -1 3l-2 6l-22 55l-139 350h71z" />
    <glyph glyph-name="Ydieresis" unicode="&#x178;" horiz-adv-x="521" 
d="M200 852q19 0 32.5 -13t13.5 -32t-13.5 -32.5t-32.5 -13.5q-13 0 -23.5 6t-16.5 16.5t-6 23t6 23t16.5 16.5t23.5 6zM228 290l-218 399h75l2 -5q33 -58 94 -170t90 -165l10 -18l197 358h33l-217 -396v-298h-66v295zM276 807q0 19 13.5 32t32.5 13q12 0 22.5 -6
t16.5 -16.5t6 -22.5q0 -19 -13 -32.5t-32 -13.5t-32.5 13.5t-13.5 32.5z" />
    <glyph glyph-name="Zacute" unicode="&#x179;" horiz-adv-x="579" 
d="M510 700l-399 -672h380v-30h-9h-450h-16l399 672l-378 -1v30h9q18 0 189 0.5t259 0.5h16zM200 771v13q84 98 115 147h167v-10q-25 -25 -86.5 -75.5t-96.5 -74.5h-99z" />
    <glyph glyph-name="zacute" unicode="&#x17a;" horiz-adv-x="487" 
d="M34 458h266h73l-9 -14q-43 -72 -126.5 -211.5t-123.5 -205.5h249v-29h-9h-314h-16l8 14q45 74 129 213.5t121 202.5h-248v30zM172 606v13q84 98 115 147h167v-10q-25 -25 -86.5 -75.5t-96.5 -74.5h-99z" />
    <glyph glyph-name="Zdotaccent" unicode="&#x17b;" horiz-adv-x="579" 
d="M208 852q0 73 81 73t81 -73q0 -35 -20.5 -54t-60.5 -19q-81 0 -81 73zM510 700l-399 -672h380v-30h-9h-450h-16l399 672l-378 -1v30h9q18 0 189 0.5t259 0.5h16z" />
    <glyph glyph-name="zdotaccent" unicode="&#x17c;" horiz-adv-x="487" 
d="M161 687q0 73 81 73t81 -73q0 -35 -20.5 -54t-60.5 -19q-81 0 -81 73zM34 458h266h73l-9 -14q-43 -72 -126.5 -211.5t-123.5 -205.5h249v-29h-9h-314h-16l8 14q45 74 129 213.5t121 202.5h-248v30z" />
    <glyph glyph-name="Zcaron" unicode="&#x17d;" horiz-adv-x="390" 
d="M194 586l91 56q7 5 15 3t9.5 -8.5t-2.5 -12.5h-1l-105 -109h-1q-6 -6 -13 0l-105 108q-10 11 2 18q9 7 20 0zM31 450h264h72l-9 -14q-46 -77 -131.5 -220t-115.5 -191l246 -1v-29h-9h-310h-16l8 14q27 44 113.5 188.5t133.5 223.5l-246 -1v30z" />
    <glyph glyph-name="zcaron" unicode="&#x17e;" horiz-adv-x="487" 
d="M465 766v-13q-41 -41 -75.5 -82t-49.5 -65h-174q-14 23 -40.5 55t-84.5 92v13h99q72 -45 112 -86q41 42 114 86h99zM34 458h266h73l-9 -14q-43 -72 -126.5 -211.5t-123.5 -205.5h249v-29h-9h-314h-16l8 14q45 74 129 213.5t121 202.5h-248v30z" />
    <glyph glyph-name="longs" unicode="&#x17f;" horiz-adv-x="382" 
d="M289 647q-62 0 -62 -67v-580h-149v586q0 93 46 136t146 43q77 0 136 -23l-35 -109q-45 14 -82 14z" />
    <glyph glyph-name="uni0180" unicode="&#x180;" horiz-adv-x="632" 
d="M382 546q102 0 154 -69t52 -203q0 -135 -56.5 -209.5t-153.5 -74.5q-96 0 -151 70h-10l-25 -60h-114v584h-76v97h76v79h149v-79h154v-97h-154v-11q0 -32 -6 -108h6q52 81 155 81zM334 427q-104 0 -107 -146v-6q0 -88 26 -126t83 -38q46 0 73 42t27 123q0 151 -102 151z
" />
    <glyph glyph-name="uni0181" unicode="&#x181;" horiz-adv-x="793" 
d="M212 590h-26q-32 0 -46.5 -16.5t-14.5 -39.5q0 -22 10 -48h-118q-12 26 -12 58q0 82 47.5 126t137.5 44h244q152 0 220.5 -43.5t68.5 -137.5q0 -63 -30 -104.5t-80 -49.5v-5q68 -15 98 -56.5t30 -110.5q0 -98 -70.5 -152.5t-191.5 -54.5h-267v590zM363 311v-186h99
q62 0 92 24t30 73q0 89 -127 89h-94zM363 431h88q62 0 89.5 19t27.5 63q0 41 -30.5 59t-94.5 18h-80v-159z" />
    <glyph glyph-name="uni0182" unicode="&#x182;" horiz-adv-x="638" 
d="M241 440h60q140 0 216 -56.5t76 -160.5q0 -223 -295 -223h-208v714h451v-125h-300v-149zM241 124h51q77 0 112.5 24.5t35.5 74.5q0 49 -36 71t-124 22h-39v-192z" />
    <glyph glyph-name="uni0183" unicode="&#x183;" horiz-adv-x="632" 
d="M382 546q102 0 154 -69t52 -203q0 -135 -56.5 -209.5t-153.5 -74.5q-96 0 -151 70h-10l-25 -60h-114v760h456v-112h-307v-75q0 -32 -6 -108h6q52 81 155 81zM334 427q-104 0 -107 -146v-6q0 -88 26 -126t83 -38q46 0 73 42t27 123q0 151 -102 151z" />
    <glyph glyph-name="uni0184" unicode="&#x184;" horiz-adv-x="661" 
d="M616 218q0 -109 -69 -168.5t-198 -59.5q-264 0 -264 220v504h151v-274h88q140 0 216 -57.5t76 -164.5zM236 218q0 -104 109 -104q58 0 88 26.5t30 77.5q0 52 -35 75t-125 23h-67v-98z" />
    <glyph glyph-name="uni0185" unicode="&#x185;" horiz-adv-x="633" 
d="M589 273q0 -133 -67.5 -208t-186.5 -75q-125 0 -192.5 72t-67.5 205v493h149v-177q0 -27 -6 -108h6q26 40 67 60.5t92 20.5q97 0 151.5 -75t54.5 -208zM335 437q-59 0 -85 -37.5t-26 -108.5v-26q0 -80 26.5 -117.5t81.5 -37.5q53 0 79 39.5t26 123.5q0 83 -27.5 123.5
t-74.5 40.5z" />
    <glyph glyph-name="uni0186" unicode="&#x186;" horiz-adv-x="637" 
d="M239 598q-42 0 -80.5 -14t-74.5 -33l-49 123q99 50 220 50q153 0 238.5 -96.5t85.5 -266.5q0 -175 -86.5 -273t-245.5 -98q-54 0 -99 8.5t-92 28.5v127q64 -22 101.5 -30t75.5 -8q93 0 141.5 63.5t48.5 178.5q0 114 -48.5 177t-135.5 63z" />
    <glyph glyph-name="uni0187" unicode="&#x187;" horiz-adv-x="637" 
d="M393 598q-85 0 -132 -64t-47 -179q0 -239 179 -239q75 0 182 38v-127q-88 -37 -196 -37q-156 0 -238.5 94.5t-82.5 271.5q0 111 40.5 195t116.5 128.5t178 44.5q46 0 89 -11q1 81 40.5 123.5t113.5 42.5q22 0 41.5 -5t28.5 -10v-114q-28 10 -55 10q-49 0 -49 -56v-40
l-49 -113q-40 19 -80.5 33t-79.5 14z" />
    <glyph glyph-name="uni0188" unicode="&#x188;" horiz-adv-x="514" 
d="M300 -10q-255 0 -255 280q0 139 69.5 212.5t198.5 73.5q29 0 50 -4v41q0 84 39 128t116 44q39 0 69 -15v-114q-28 10 -55 10q-49 0 -49 -56v-76l-44 -110q-35 14 -65.5 23t-60.5 9q-116 0 -116 -165q0 -160 116 -160q43 0 79.5 11.5t73.5 35.5v-127q-36 -23 -73 -32
t-93 -9z" />
    <glyph glyph-name="uni0189" unicode="&#x189;" horiz-adv-x="740" 
d="M23 415h67v299h224q175 0 271.5 -92.5t96.5 -257.5q0 -176 -100.5 -270t-289.5 -94h-202v291h-67v124zM525 360q0 113 -51 171.5t-153 58.5h-80v-175h116v-124h-116v-166h64q220 0 220 235z" />
    <glyph glyph-name="uni018A" unicode="&#x18a;" horiz-adv-x="861" 
d="M804 364q0 -176 -100 -270t-290 -94h-202v590h-26q-32 0 -46.5 -16.5t-14.5 -39.5q0 -22 10 -48h-118q-12 26 -12 58q0 82 47.5 126t137.5 44h246q175 0 271.5 -92t96.5 -258zM647 360q0 230 -203 230h-81v-465h65q219 0 219 235z" />
    <glyph glyph-name="uni018B" unicode="&#x18b;" horiz-adv-x="638" 
d="M397 589h-300v125h451v-714h-220q-142 0 -212.5 54t-70.5 165q0 104 77.5 162.5t219.5 58.5h55v149zM397 316h-39q-88 0 -124 -22.5t-36 -71.5q0 -50 36 -74t112 -24h51v192z" />
    <glyph glyph-name="uni018C" unicode="&#x18c;" horiz-adv-x="632" 
d="M251 -10q-96 0 -151 75t-55 207q0 129 57 201.5t153 72.5q104 0 157 -80h5q-11 62 -11 109v73h-307v112h456v-760h-114l-29 71h-6q-51 -81 -155 -81zM303 109q57 0 84 33t29 113v16q0 83 -27.5 118.5t-87.5 35.5q-50 0 -77.5 -39.5t-27.5 -115.5q0 -81 27.5 -121
t79.5 -40z" />
    <glyph glyph-name="uni018D" unicode="&#x18d;" horiz-adv-x="619" 
d="M382 307q116 -74 116 -167q0 -70 -59 -110t-163 -40q-53 0 -104 11t-121 43l59 105q45 -22 87 -35.5t85 -13.5q36 0 54 13t18 36q0 26 -33.5 52t-101.5 60q-90 45 -132 105.5t-42 138.5q0 126 69 193t198 67q119 0 190.5 -60.5t71.5 -163.5q0 -89 -46.5 -147.5
t-145.5 -86.5zM197 515q0 -95 98 -147q58 15 92 59.5t34 107.5q0 50 -30 80t-80 30q-55 0 -84.5 -33.5t-29.5 -96.5z" />
    <glyph glyph-name="uni018E" unicode="&#x18e;" horiz-adv-x="560" 
d="M59 125h260v184h-242v124h242v157h-260v124h411v-714h-411v125z" />
    <glyph glyph-name="uni018F" unicode="&#x18f;" horiz-adv-x="816" 
d="M400 599q-72 0 -150 -22t-133 -57v131q68 41 136 57.5t148 16.5q169 0 263.5 -98t94.5 -271t-89 -269.5t-251 -96.5q-168 0 -253.5 95.5t-85.5 286.5v35h521q-6 94 -57.5 143t-143.5 49zM419 116q80 0 127.5 44.5t52.5 120.5h-362q0 -85 44 -125t138 -40z" />
    <glyph glyph-name="uni0190" unicode="&#x190;" horiz-adv-x="647" 
d="M65 537q0 85 73 136t193 51q75 0 139 -17.5t132 -60.5l-66 -101q-94 58 -194 58q-65 0 -97.5 -21.5t-32.5 -58.5q0 -48 51.5 -70.5t165.5 -22.5h60v-118h-67q-112 0 -170.5 -23.5t-58.5 -74.5q0 -105 180 -105q52 0 114 12t109 35v-127q-95 -39 -256 -39
q-142 0 -219.5 56.5t-77.5 155.5q0 73 53 117.5t149 53.5v3q-180 27 -180 161z" />
    <glyph glyph-name="uni0191" unicode="&#x191;" horiz-adv-x="548" 
d="M239 -64q0 -87 -45 -131.5t-132 -44.5q-43 0 -80 15v114q25 -10 55 -10q23 0 38 15t15 45v775h409v-124h-260v-184h242v-124h-242v-346z" />
    <glyph glyph-name="florin" unicode="&#x192;" horiz-adv-x="571" 
d="M364 -59q0 -86 -46 -133.5t-132 -47.5q-52 0 -90 12v117q29 -9 58 -9q61 0 61 83v430h-82v72l82 40v40q0 92 42.5 135.5t137.5 43.5q73 0 128 -23l-35 -109q-40 14 -71 14q-53 0 -53 -67v-34h111v-112h-111v-452z" />
    <glyph glyph-name="uni0193" unicode="&#x193;" horiz-adv-x="724" 
d="M361 401h283v-370q-69 -22 -129.5 -31.5t-124.5 -9.5q-162 0 -247 95t-85 273q0 173 99 269.5t274 96.5q50 0 93 -9q1 80 41 122t113 42q22 0 41.5 -5t28.5 -10v-114q-28 10 -55 10q-49 0 -49 -56v-33l-51 -112q-78 39 -163 39q-98 0 -157 -66t-59 -177
q0 -116 47.5 -177.5t138.5 -61.5q47 0 96 10v149h-135v126z" />
    <glyph glyph-name="uni0194" unicode="&#x194;" horiz-adv-x="649" 
d="M494 714h156l-257 -591q69 -138 69 -220q0 -65 -39 -104t-104 -39t-103 38t-38 106q0 50 18.5 103.5t47.5 117.5l-244 589h156l121 -311q10 -23 23 -68t19 -71q9 37 23.5 77.5t23.5 60.5zM354 -97q0 22 -9 56.5t-25 65.5q-18 -34 -26 -66t-8 -54q0 -56 34 -56t34 54z" />
    <glyph glyph-name="uni0195" unicode="&#x195;" horiz-adv-x="986" 
d="M572 238q0 -66 23 -97t72 -31t72.5 33t23.5 109v294h149v-307q0 -249 -245 -249q-129 0 -186.5 54.5t-57.5 171.5v103q0 118 -84 118q-58 0 -85 -43t-27 -137v-257h-149v760h149v-155q0 -18 -3 -85l-4 -44h8q52 80 155 80q91 0 140 -52.5t49 -152.5v-113z" />
    <glyph glyph-name="uni0196" unicode="&#x196;" horiz-adv-x="402" 
d="M243 714v-524q0 -35 18 -54t47 -19q38 0 85 17v-119q-53 -25 -129 -25q-179 0 -179 187v537h158z" />
    <glyph glyph-name="uni0197" unicode="&#x197;" horiz-adv-x="389" 
d="M27 419h92v169l-87 40v86h325v-86l-87 -40v-169h92v-124h-92v-169l87 -40v-86h-325v86l87 40v169h-92v124z" />
    <glyph glyph-name="uni0198" unicode="&#x198;" horiz-adv-x="664" 
d="M664 0h-172l-187 301l-64 -46v-255h-151v714h151v-329l64 91l81 108q46 62 73.5 88t56.5 39.5t63 13.5q43 0 75 -15v-119q-22 9 -48 9q-42 0 -74 -43l-120 -159z" />
    <glyph glyph-name="uni0199" unicode="&#x199;" horiz-adv-x="620" 
d="M221 297l65 83l153 166h168l-217 -237l230 -309h-172l-157 221l-64 -51v-170h-149v595q0 84 44 128t131 44q41 0 78 -15v-114q-28 10 -55 10q-49 0 -49 -56v-171l-8 -124h2z" />
    <glyph glyph-name="uni019A" unicode="&#x19a;" horiz-adv-x="330" 
d="M239 420h81v-112h-81v-308h-149v308h-80v112h80v340h149v-340z" />
    <glyph glyph-name="uni019B" unicode="&#x19b;" horiz-adv-x="615" 
d="M4 0l231 516l-11 28l-100 -30l-25 82l83 25q-15 12 -32.5 16t-40.5 4q-24 0 -50 -6v123q39 8 81 8q65 0 109 -24t75 -77l93 29l25 -83l-83 -25l135 -372q18 -51 36.5 -75t45.5 -24q16 0 34 5v-115q-11 -6 -39 -10.5t-47 -4.5q-54 0 -88 26.5t-54 84.5
q-56 158 -66.5 190.5t-16.5 57.5h-3q-22 -75 -37 -112l-101 -237h-154z" />
    <glyph glyph-name="uni019C" unicode="&#x19c;" horiz-adv-x="1035" 
d="M439 714h151v-477q0 -120 87 -120q60 0 88 42t28 141v414h152v-714h-114l-21 76h-9q-24 -42 -68.5 -64t-99.5 -22q-115 0 -167 90h-7q-55 -90 -171 -90q-99 0 -151 52t-52 152v520h151v-477q0 -120 87 -120q61 0 88.5 41t27.5 125v431z" />
    <glyph glyph-name="uni019D" unicode="&#x19d;" horiz-adv-x="812" 
d="M723 0h-192l-311 540h-4q9 -143 9 -204v-400q0 -85 -44 -130.5t-126 -45.5q-36 0 -73 15v114q25 -10 55 -10q23 0 38 15t15 45v775h191l310 -535h3q-7 139 -7 197v338h136v-714z" />
    <glyph glyph-name="uni019E" unicode="&#x19e;" horiz-adv-x="657" 
d="M582 -240h-149v559q0 59 -21 88.5t-67 29.5q-62 0 -90 -41.5t-28 -138.5v-257h-149v546h114l20 -70h8q25 40 69 60t99 20q95 0 144.5 -51.5t49.5 -148.5v-596z" />
    <glyph glyph-name="uni019F" unicode="&#x19f;" horiz-adv-x="795" 
d="M738 358q0 -177 -88 -272.5t-252 -95.5t-252 95.5t-88 273.5t88 272t253 94t252 -94.5t87 -272.5zM398 117q80 0 126 47t55 139h-363q10 -88 54.5 -137t127.5 -49zM399 599q-154 0 -181 -170h359q-12 83 -56.5 126.5t-121.5 43.5z" />
    <glyph glyph-name="Ohorn" unicode="&#x1a0;" horiz-adv-x="825" 
d="M738 358q0 -177 -88 -272.5t-252 -95.5t-252 95.5t-88 273.5q0 177 88.5 271.5t253.5 94.5q169 0 256 -99q45 30 45 134h147l7 -11q-18 -86 -52.5 -135.5t-94.5 -73.5q30 -78 30 -182zM217 358q0 -120 45.5 -180.5t135.5 -60.5q181 0 181 241t-180 241q-90 0 -136 -60.5
t-46 -180.5z" />
    <glyph glyph-name="ohorn" unicode="&#x1a1;" horiz-adv-x="679" 
d="M574 274q0 -133 -70 -208.5t-196 -75.5q-79 0 -139 34.5t-92 99t-32 150.5q0 134 70 208t196 74q55 0 103.5 -17t83.5 -50q73 22 73 139h147l7 -11q-13 -65 -34.5 -103.5t-56 -64.5t-85.5 -39q25 -61 25 -136zM197 274q0 -81 26.5 -122.5t86.5 -41.5t86 41t26 123
q0 81 -26.5 121.5t-86.5 40.5t-86 -40t-26 -122z" />
    <glyph glyph-name="uni01A2" unicode="&#x1a2;" horiz-adv-x="1130" 
d="M718 358q0 -178 -85 -273t-245 -95q-161 0 -245.5 95t-84.5 274q0 177 85.5 271.5t245.5 94.5q154 0 239 -90q82 90 205 90q102 0 157.5 -60.5t55.5 -174.5v-490h-151v478q0 60 -26.5 90.5t-76.5 30.5q-36 0 -62.5 -10t-48.5 -34q37 -82 37 -197zM217 358
q0 -121 43.5 -181t127.5 -60q171 0 171 241t-170 241q-172 0 -172 -241z" />
    <glyph glyph-name="uni01A3" unicode="&#x1a3;" horiz-adv-x="929" 
d="M554 274q0 -134 -68 -209t-188 -75q-117 0 -185 75.5t-68 208.5q0 134 67.5 208t188.5 74q118 0 186 -78q62 78 173 78q95 0 144.5 -51.5t49.5 -148.5v-596h-149v559q0 59 -21 88.5t-67 29.5q-56 0 -85 -35q22 -58 22 -128zM197 274q0 -82 24.5 -123t78.5 -41t78 41
t24 123q0 81 -24.5 121.5t-78.5 40.5q-53 0 -77.5 -40t-24.5 -122z" />
    <glyph glyph-name="uni01A4" unicode="&#x1a4;" horiz-adv-x="750" 
d="M705 491q0 -115 -72 -176t-205 -61h-65v-254h-151v590h-26q-32 0 -46.5 -16.5t-14.5 -39.5q0 -22 10 -48h-118q-12 26 -12 58q0 82 47.5 126t137.5 44h250q130 0 197.5 -56t67.5 -167zM363 378h50q69 0 104 27.5t35 80.5t-29 78.5t-91 25.5h-69v-212z" />
    <glyph glyph-name="uni01A5" unicode="&#x1a5;" horiz-adv-x="632" 
d="M227 583q0 -44 -6 -108h6q24 40 64 60.5t91 20.5q97 0 151.5 -75.5t54.5 -206.5q0 -133 -54.5 -208.5t-151.5 -75.5q-104 0 -155 67h-7l4 -30l3 -46v-221h-149v833q0 83 44 127.5t131 44.5q41 0 78 -15v-114q-28 10 -55 10q-23 0 -35 -13t-14 -43v-7zM334 437
q-55 0 -80.5 -34t-26.5 -112v-16q0 -88 26 -126t83 -38q100 0 100 165q0 81 -24.5 121t-77.5 40z" />
    <glyph glyph-name="uni01A6" unicode="&#x1a6;" horiz-adv-x="660" 
d="M241 174v-174h-151v714h151v-100h57q146 0 215.5 -53t69.5 -161q0 -62 -33.5 -110.5t-99.5 -78.5l210 -311h-168l-170 274h-81zM241 297h49q72 0 106 24t34 75t-35 72.5t-108 21.5h-46v-193z" />
    <glyph glyph-name="uni01A7" unicode="&#x1a7;" horiz-adv-x="550" 
d="M42 193q0 74 40.5 126t133.5 92q67 28 94 44.5t38.5 33.5t11.5 41q0 33 -23.5 50.5t-67.5 17.5q-41 0 -81.5 -11t-89.5 -31l-45 118q111 50 228 50q106 0 166.5 -51.5t60.5 -145.5q0 -75 -40 -125.5t-139 -91.5q-61 -25 -87 -41.5t-39 -34.5t-13 -41q0 -37 26 -57.5
t78 -20.5q100 0 210 46v-126q-92 -45 -219 -45q-117 0 -180 51.5t-63 151.5z" />
    <glyph glyph-name="uni01A8" unicode="&#x1a8;" horiz-adv-x="497" 
d="M38 152q0 62 34.5 103.5t118.5 73.5q76 29 97 43t21 33q0 20 -19 30.5t-52 10.5q-37 0 -72.5 -11.5t-75.5 -28.5l-40 107q94 43 203 43q96 0 150 -39t54 -110q0 -62 -33 -100.5t-120 -72.5q-47 -19 -72 -32t-36 -24t-11 -29q0 -50 88 -50q91 0 174 43v-113
q-79 -39 -186 -39q-111 0 -167 41.5t-56 120.5z" />
    <glyph glyph-name="uni01A9" unicode="&#x1a9;" horiz-adv-x="592" 
d="M38 0v119l230 255l-224 224v116h486v-124h-214q-25 0 -111 5l222 -220l-233 -256q117 6 139 6h226v-125h-521z" />
    <glyph glyph-name="uni01AA" unicode="&#x1aa;" horiz-adv-x="367" 
d="M290 -240q-92 0 -136 45t-44 136v589h-27q-68 0 -105 32t-37 91q0 53 40 85t107 32q171 0 171 -179v-650q0 -32 18 -47t47 -15q39 0 94 17v-111q-53 -25 -128 -25zM67 688q-17 0 -26.5 -10.5t-9.5 -25.5q0 -19 14 -32t41 -13h24v31q0 25 -11.5 37.5t-31.5 12.5z" />
    <glyph glyph-name="uni01AB" unicode="&#x1ab;" horiz-adv-x="434" 
d="M260 -240q-42 0 -80 13v104q23 -9 48 -9q27 0 38.5 14t11.5 44v64h-13q-89 0 -130 45.5t-41 135.5v263h-71v63l82 50l43 115h95v-116h153v-112h-153v-263q0 -32 18 -47t47 -15q39 0 94 17v-200q0 -86 -36 -126t-106 -40z" />
    <glyph glyph-name="uni01AC" unicode="&#x1ac;" horiz-adv-x="618" 
d="M404 0h-151v588h-67q-32 0 -46.5 -16.5t-14.5 -39.5q0 -21 10 -46h-118q-12 26 -12 58q0 82 47.5 126t137.5 44h408v-126h-194v-588z" />
    <glyph glyph-name="uni01AD" unicode="&#x1ad;" horiz-adv-x="434" 
d="M308 109q39 0 94 17v-111q-56 -25 -137 -25q-89 0 -130 45.5t-41 135.5v263h-71v63l71 43v53q0 84 47 128t142 44q49 0 92 -16v-114q-37 11 -75 11q-30 0 -43.5 -14t-13.5 -42v-44h153v-112h-153v-263q0 -32 18 -47t47 -15z" />
    <glyph glyph-name="uni01AE" unicode="&#x1ae;" horiz-adv-x="579" 
d="M365 -61q0 -31 15 -45.5t38 -14.5q30 0 55 10v-114q-12 -5 -35 -10t-49 -5q-175 0 -175 176v652h-194v126h539v-126h-194v-649z" />
    <glyph glyph-name="Uhorn" unicode="&#x1af;" horiz-adv-x="884" 
d="M671 714v-92q36 13 53 49.5t17 88.5h147l7 -11q-16 -75 -42 -116t-70.5 -66t-111.5 -35v-280q0 -79 -35.5 -138.5t-102.5 -91.5t-158 -32q-138 0 -214 70.5t-76 193.5v460h151v-449q0 -76 34.5 -112t108.5 -36t107.5 37.5t33.5 111.5v448h151z" />
    <glyph glyph-name="uhorn" unicode="&#x1b0;" horiz-adv-x="759" 
d="M465 0l-20 70h-9q-23 -38 -67 -59t-100 -21q-96 0 -145 51.5t-49 148.5v356h149v-319q0 -59 21 -88.5t67 -29.5q62 0 90 41.5t28 138.5v257h149v-57q35 11 54 46.5t19 92.5h147l7 -11q-16 -76 -42 -117t-71 -66t-114 -35v-399h-114z" />
    <glyph glyph-name="uni01B1" unicode="&#x1b1;" horiz-adv-x="786" 
d="M393 116q88 0 136 53t48 151t-31.5 159.5t-98.5 98.5v136h312v-127h-181q73 -45 114 -123.5t41 -175.5q0 -89 -41.5 -157t-119 -104.5t-179.5 -36.5q-103 0 -180 36.5t-118.5 104.5t-41.5 158q0 97 40.5 174.5t116.5 123.5h-183v127h314v-136q-66 -35 -99 -98t-33 -161
q0 -97 47.5 -150t136.5 -53z" />
    <glyph glyph-name="uni01B2" unicode="&#x1b2;" horiz-adv-x="649" 
d="M410 0h-155l-255 714h153l144 -425q7 -19 20.5 -74t17.5 -83q3 25 18.5 79.5t23.5 72.5l70 168q21 49 26 68t5 33q0 23 -13 34.5t-32 11.5q-26 0 -43 -9v117q35 17 83 17q71 0 109.5 -38.5t38.5 -105.5q0 -58 -37 -156z" />
    <glyph glyph-name="uni01B3" unicode="&#x1b3;" horiz-adv-x="624" 
d="M78 724q50 0 84.5 -26t65.5 -93l86 -183l147 292h163l-237 -436v-278h-150v272l-110 231q-20 42 -32.5 61t-24.5 27t-33 8q-20 0 -37 -9v117q37 17 78 17z" />
    <glyph glyph-name="uni01B4" unicode="&#x1b4;" horiz-adv-x="615" 
d="M172 546l86 -254q22 -63 32 -125h3q18 73 34 119l54 148q24 65 60.5 93.5t88.5 28.5q21 0 44 -4.5t36 -10.5v-115q-19 5 -34 5q-26 0 -44.5 -22.5t-37.5 -76.5l-144 -397q-64 -175 -234 -175q-34 0 -72 8v118q6 -1 23.5 -3.5t33.5 -2.5q83 0 116 95l10 29l-217 542h162z
" />
    <glyph glyph-name="uni01B5" unicode="&#x1b5;" horiz-adv-x="579" 
d="M62 415h183l121 174h-333v125h513v-98l-140 -201h93v-124h-180l-115 -166h351v-125h-531v98l135 193h-97v124z" />
    <glyph glyph-name="uni01B6" unicode="&#x1b6;" horiz-adv-x="487" 
d="M458 0h-431v88l105 142h-79v97h150l77 105h-238v114h407v-97l-90 -122h76v-97h-147l-85 -116h255v-114z" />
    <glyph glyph-name="uni01B7" unicode="&#x1b7;" horiz-adv-x="590" 
d="M138 419l176 170h-262v125h468v-97l-211 -201q118 -5 180.5 -58.5t62.5 -149.5q0 -102 -79.5 -160t-224.5 -58q-126 0 -220 39v128q45 -21 102.5 -34t108.5 -13q82 0 122 25.5t40 81.5q0 50 -51 73t-152 23h-60v106z" />
    <glyph glyph-name="uni01B8" unicode="&#x1b8;" horiz-adv-x="590" 
d="M453 313h-60q-102 0 -152.5 -23.5t-50.5 -74.5q0 -53 40.5 -79t121.5 -26q53 0 110 13t101 34v-128q-94 -39 -225 -39q-141 0 -220 56t-79 157q0 96 61.5 150t181.5 63l-211 201v97h468v-125h-263l177 -170v-106z" />
    <glyph glyph-name="uni01B9" unicode="&#x1b9;" horiz-adv-x="581" 
d="M443 139h-58q-97 0 -146 -31.5t-49 -98.5q0 -62 39.5 -95.5t113.5 -33.5q49 0 102.5 12.5t97.5 34.5v-126q-96 -41 -221 -41q-134 0 -208.5 63.5t-74.5 176.5q0 104 61 167t177 80l-211 202v97h472v-114h-288l193 -187v-106z" />
    <glyph glyph-name="uni01BA" unicode="&#x1ba;" horiz-adv-x="581" 
d="M371 143q0 31 -31.5 43.5t-116.5 12.5h-68v100l150 133h-247v114h443v-96l-177 -144q98 -8 148 -50.5t50 -115.5q0 -88 -65 -131.5t-201 -53.5q-43 -3 -62 -13t-19 -27q0 -45 100 -45q92 0 203 39v-110q-43 -18 -101.5 -28.5t-120.5 -10.5q-96 0 -152 40.5t-56 115.5
q0 147 193 162q75 5 102.5 19t27.5 46z" />
    <glyph glyph-name="uni01BB" unicode="&#x1bb;" horiz-adv-x="569" 
d="M387 322l-185 -201v-7h324v-114h-499v111l193 211h-176v97h257q26 32 35.5 64.5t9.5 68.5q0 42 -26 68t-68 26q-38 0 -71.5 -16t-76.5 -58l-73 91q46 42 78.5 60.5t71.5 30t87 11.5q103 0 165.5 -57t62.5 -148q0 -77 -39 -141h69v-97h-139z" />
    <glyph glyph-name="uni01BC" unicode="&#x1bc;" horiz-adv-x="578" 
d="M289 456q114 0 182 -60.5t68 -164.5q0 -118 -80 -179.5t-229 -61.5q-58 0 -112 10t-90 29v130q37 -20 92.5 -33t104.5 -13q81 0 121.5 27.5t40.5 80.5q0 109 -147 109h-127v258h-79v126h484v-126h-256v-132h27z" />
    <glyph glyph-name="uni01BD" unicode="&#x1bd;" horiz-adv-x="555" 
d="M283 337q116 0 175 -42.5t59 -122.5q0 -89 -72.5 -135.5t-211.5 -46.5q-58 0 -110.5 9.5t-84.5 24.5v123q35 -18 90 -30t99 -12q145 0 145 65q0 63 -149 63h-95v201h-84v112h454v-112h-230v-97h15z" />
    <glyph glyph-name="uni01BE" unicode="&#x1be;" horiz-adv-x="497" 
d="M271 399q0 -27 9.5 -41t35.5 -29l53 -31q46 -26 68 -60t22 -81q0 -80 -60 -123.5t-173 -43.5q-56 0 -107.5 9.5t-82.5 24.5v123q37 -20 86.5 -34t90.5 -14q54 0 77.5 13.5t23.5 40.5q0 17 -11 29t-35 26q-84 43 -110.5 83t-26.5 103v40h-95v63l97 50l43 115h95v-116h138
v-112h-138v-35z" />
    <glyph glyph-name="uni01BF" unicode="&#x1bf;" horiz-adv-x="632" 
d="M227 -240h-149v786h121l21 -71h7q52 81 155 81q60 0 107.5 -31t73 -88.5t25.5 -132.5q0 -135 -94.5 -219.5t-266.5 -103.5v-221zM334 437q-59 0 -83 -37.5t-24 -111.5v-180q95 12 152 65.5t57 132.5q0 61 -27 96t-75 35z" />
    <glyph glyph-name="uni01C0" unicode="&#x1c0;" horiz-adv-x="516" 
d="M204 760h107v-1000h-107v1000z" />
    <glyph glyph-name="uni01C1" unicode="&#x1c1;" horiz-adv-x="516" 
d="M76 760h107v-1000h-107v1000zM334 760h107v-1000h-107v1000z" />
    <glyph glyph-name="uni01C2" unicode="&#x1c2;" horiz-adv-x="516" 
d="M204 121h-154v97h154v112h-154v97h154v333h107v-333h155v-97h-155v-112h155v-97h-155v-361h-107v361z" />
    <glyph glyph-name="uni01C3" unicode="&#x1c3;" horiz-adv-x="286" 
d="M203 237h-119l-25 477h169zM57 70q0 41 22 62t64 21q41 0 63 -21.5t22 -61.5q0 -39 -22.5 -61t-62.5 -22q-41 0 -63.5 21.5t-22.5 61.5z" />
    <glyph glyph-name="uni01C4" unicode="&#x1c4;" horiz-adv-x="1309" 
d="M1237 931v-13q-41 -41 -75.5 -82t-49.5 -65h-174q-14 23 -40.5 55t-84.5 92v13h99q72 -45 112 -86q41 42 114 86h99zM132 -2h-57v702h57q83 0 133 -4q86 -6 154 -47.5t110 -114.5q43 -75 48 -165q7 -122 -53 -218q-27 -44 -64.5 -75.5t-82.5 -49.5t-97 -23
q-55 -5 -148 -5zM141 670v-642q82 0 136 8q80 12 135 68q77 78 87 208q2 24 1 48q-2 73 -28 137t-79.5 111t-126.5 55q-50 6 -125 7zM1240 700l-399 -672h380v-30h-9h-450h-16l399 672l-378 -1v30h9q18 0 189 0.5t259 0.5h16z" />
    <glyph glyph-name="uni01C5" unicode="&#x1c5;" horiz-adv-x="1228" 
d="M1204 766v-13q-41 -41 -75.5 -82t-49.5 -65h-174q-14 23 -40.5 55t-84.5 92v13h99q72 -45 112 -86q41 42 114 86h99zM132 -2h-57v702h57q83 0 133 -4q86 -6 154 -47.5t110 -114.5q43 -75 48 -165q7 -122 -53 -218q-27 -44 -64.5 -75.5t-82.5 -49.5t-97 -23
q-55 -5 -148 -5zM141 670v-642q82 0 136 8q80 12 135 68q77 78 87 208q2 24 1 48q-2 73 -28 137t-79.5 111t-126.5 55q-50 6 -125 7zM774 458h266h73l-9 -14q-43 -72 -126.5 -211.5t-123.5 -205.5h249v-29h-9h-314h-16l8 14q45 74 129 213.5t121 202.5h-248v30z" />
    <glyph glyph-name="uni01C6" unicode="&#x1c6;" horiz-adv-x="1121" 
d="M1097 766v-13q-41 -41 -75.5 -82t-49.5 -65h-174q-14 23 -40.5 55t-84.5 92v13h99q72 -45 112 -86q41 42 114 86h99zM359 429v271h66v-370v-5v-170v-5v-149h-66v34q-38 -25 -86 -32q-54 -8 -103 9q-65 23 -95.5 79.5t-29.5 129.5q1 77 31.5 137t95.5 86q44 18 95 14
t92 -29zM359 150v1v177v1q-1 33 -22 61q-24 30 -61.5 41t-73.5 -4q-40 -17 -63 -64q-28 -57 -28 -147q0 -106 49 -157q40 -43 98 -35q29 5 52 21.5t36 42t13 54.5v8zM667 458h266h73l-9 -14q-43 -72 -126.5 -211.5t-123.5 -205.5h249v-29h-9h-314h-16l8 14q45 74 129 213.5
t121 202.5h-248v30z" />
    <glyph glyph-name="uni01C7" unicode="&#x1c7;" horiz-adv-x="895" 
d="M141 700v-672h307v-30h-373v702h66zM584 37q-5 14 -1.5 25.5t12.5 16.5t19 5.5t20 -7t14 -20.5q6 -16 16 -26q22 -20 51.5 -10t35.5 39q2 7 2 40v600h66v-523q0 -67 -16 -103q-20 -46 -71 -70.5t-98 -9.5q-39 13 -50 43z" />
    <glyph glyph-name="uni01C8" unicode="&#x1c8;" horiz-adv-x="870" 
d="M141 700v-672h307v-30h-373v702h66zM525 -128q6 -16 16 -26q22 -21 51.5 -10.5t35.5 39.5q2 7 2 40v542h66v-465q0 -68 -16 -103q-20 -46 -71 -70.5t-98 -9.5q-39 13 -50 43q-5 14 -1.5 25.5t12.5 16.5t19 5.5t20 -7t14 -20.5zM622 618q0 17 12 29t29 12t29 -12t12 -29
t-12 -29t-29 -12t-29 12t-12 29z" />
    <glyph glyph-name="uni01C9" unicode="&#x1c9;" horiz-adv-x="609" 
d="M65 -2v327v5v370h66v-702h-66zM265 -128q6 -16 16 -26q22 -21 51.5 -10.5t35.5 39.5q2 7 2 40v542h66v-465q0 -68 -16 -103q-20 -46 -71 -70.5t-98 -9.5q-39 13 -50 43q-5 14 -1.5 25.5t12.5 16.5t19 5.5t20 -7t14 -20.5zM362 618q0 17 12 29t29 12t29 -12t12 -29
t-12 -29t-29 -12t-29 12t-12 29z" />
    <glyph glyph-name="uni01CA" unicode="&#x1ca;" horiz-adv-x="1144" 
d="M105 700v-8l234 -373l121 -192v573h29v-702h-26l-358 570v-570h-30v702h30zM832 37q-5 14 -1.5 25.5t12.5 16.5t19 5.5t20 -7t14 -20.5q6 -16 16 -26q22 -20 51.5 -10t35.5 39q2 7 2 40v600h66v-523q0 -67 -16 -103q-20 -46 -71 -70.5t-98 -9.5q-39 13 -50 43z" />
    <glyph glyph-name="uni01CB" unicode="&#x1cb;" horiz-adv-x="1118" 
d="M105 700v-8l234 -373l121 -192v573h29v-702h-26l-358 570v-570h-30v702h30zM773 -128q6 -16 16 -26q22 -21 51.5 -10.5t35.5 39.5q2 7 2 40v542h66v-465q0 -68 -16 -103q-20 -46 -71 -70.5t-98 -9.5q-39 13 -50 43q-5 14 -1.5 25.5t12.5 16.5t19 5.5t20 -7t14 -20.5z
M870 618q0 17 12 29t29 12t29 -12t12 -29t-12 -29t-29 -12t-29 12t-12 29z" />
    <glyph glyph-name="uni01CC" unicode="&#x1cc;" horiz-adv-x="961" 
d="M131 449v-75q29 30 67.5 52t75.5 26q74 7 117 -54q20 -28 26 -55.5t6 -69.5v-275h-66v275q0 73 -24 107q-14 19 -35 28q-37 15 -83 -6q-47 -22 -84 -74v-330h-66v451h66zM617 -128q6 -16 16 -26q22 -21 51.5 -10.5t35.5 39.5q2 7 2 40v542h66v-465q0 -68 -16 -103
q-20 -46 -71 -70.5t-98 -9.5q-39 13 -50 43q-5 14 -1.5 25.5t12.5 16.5t19 5.5t20 -7t14 -20.5zM714 618q0 17 12 29t29 12t29 -12t12 -29t-12 -29t-29 -12t-29 12t-12 29z" />
    <glyph glyph-name="uni01CD" unicode="&#x1cd;" horiz-adv-x="689" 
d="M557 944v-13q-41 -41 -75.5 -82t-49.5 -65h-174q-14 23 -40.5 55t-84.5 92v13h99q72 -45 112 -86q41 42 114 86h99zM427 258h-279l-102 -257h-33l5 12q15 39 136 340q104 259 136 341l2 6h31l279 -702h-71l-2 5q-9 23 -102 255zM160 287h256q-126 316 -128 320z" />
    <glyph glyph-name="uni01CE" unicode="&#x1ce;" horiz-adv-x="604" 
d="M520 766v-13q-41 -41 -75.5 -82t-49.5 -65h-174q-14 23 -40.5 55t-84.5 92v13h99q72 -45 112 -86q41 42 114 86h99zM362 299q-5 53 -32 88t-62.5 43t-70 -0.5t-58 -41.5t-23.5 -80q0 -23 -17.5 -31t-34 2t-14.5 30q0 23 9 45q20 49 76 79q55 28 117 24q67 -5 113 -47
q52 -48 62 -135q1 -7 3 -27v-247h-67v49q-47 -44 -131 -51q-48 -4 -94 9t-70 46q-20 27 -20 62q0 44 26.5 67.5t73.5 36.5q17 5 75 17q24 5 37.5 8t36.5 10.5t39 18.5t26 25zM363 213q1 20 1 43q-31 -27 -113 -45q-71 -16 -91 -24q-46 -19 -46 -72q0 -47 31 -72
q39 -30 95 -20.5t85 47.5q36 48 38 143z" />
    <glyph glyph-name="uni01CF" unicode="&#x1cf;" horiz-adv-x="389" 
d="M407 944v-13q-41 -41 -75.5 -82t-49.5 -65h-174q-14 23 -40.5 55t-84.5 92v13h99q72 -45 112 -86q41 42 114 86h99zM141 -2h-66v702h66v-702z" />
    <glyph glyph-name="uni01D0" unicode="&#x1d0;" horiz-adv-x="305" 
d="M365 766v-13q-41 -41 -75.5 -82t-49.5 -65h-174q-14 23 -40.5 55t-84.5 92v13h99q72 -45 112 -86q41 42 114 86h99zM106 135h-61v326h61v-326z" />
    <glyph glyph-name="uni01D1" unicode="&#x1d1;" horiz-adv-x="795" 
d="M610 944v-13q-41 -41 -75.5 -82t-49.5 -65h-174q-14 23 -40.5 55t-84.5 92v13h99q72 -45 112 -86q41 42 114 86h99zM51 286q-3 25 -3 60q0 32 2 58q4 63 26 120q32 80 92 127t143 48h18q102 -1 170 -71q41 -42 64.5 -101.5t27.5 -122.5q2 -26 2 -58q0 -35 -3 -60
q-7 -76 -37 -139t-88.5 -104.5t-135.5 -42.5h-18q-76 1 -134.5 42.5t-89 104.5t-36.5 139zM192 99q55 -71 128 -73q74 2 128 73q68 88 72 251q-4 162 -71 250q-54 71 -128 74h-1h-1q-73 -3 -127 -74q-67 -88 -71 -250q4 -163 71 -251z" />
    <glyph glyph-name="uni01D2" unicode="&#x1d2;" horiz-adv-x="619" 
d="M521 766v-13q-41 -41 -75.5 -82t-49.5 -65h-174q-14 23 -40.5 55t-84.5 92v13h99q72 -45 112 -86q41 42 114 86h99zM49 177q-9 77 7 137q13 52 47.5 87.5t86.5 48.5q23 6 48 6h2h2h6q22 0 42 -5q55 -12 91.5 -50t49.5 -94q15 -62 5 -136q-9 -65 -46 -110t-99 -58
q-21 -5 -43 -5h-6h-2h-2q-25 -1 -48 6q-42 10 -72.5 35.5t-47 60t-21.5 77.5zM154 384q-39 -55 -41 -157q2 -103 41 -157q16 -22 36.5 -35t45.5 -15h8h4q50 4 83 50q39 54 41 157q-2 102 -41 157q-33 45 -83 49h-4h-7q-50 -4 -83 -49z" />
    <glyph glyph-name="uni01D3" unicode="&#x1d3;" horiz-adv-x="755" 
d="M590 944v-13q-41 -41 -75.5 -82t-49.5 -65h-174q-14 23 -40.5 55t-84.5 92v13h99q72 -45 112 -86q41 42 114 86h99zM186 16q-119 56 -119 228v456h66v-456q0 -201 174 -208q59 -3 99 21q74 44 74 176v467h30v-471q0 -111 -50 -173t-157 -63q-67 -1 -117 23z" />
    <glyph glyph-name="uni01D4" unicode="&#x1d4;" horiz-adv-x="657" 
d="M540 766v-13q-41 -41 -75.5 -82t-49.5 -65h-174q-14 23 -40.5 55t-84.5 92v13h99q72 -45 112 -86q41 42 114 86h99zM351 -2v79q-19 -20 -41.5 -36.5t-49.5 -28t-52 -14.5q-74 -7 -117 54q-20 28 -26 55.5t-6 70.5v275h66v-275q0 -73 24 -107q14 -20 35 -29q37 -15 83 7
q48 22 84 74v330h66v-455h-66z" />
    <glyph glyph-name="uni01D5" unicode="&#x1d5;" horiz-adv-x="755" 
d="M213 1020h331v-93h-331v93zM216 824q0 31 17 46t46 15q28 0 46 -15t18 -46q0 -29 -18 -44.5t-46 -15.5q-29 0 -46 15.5t-17 44.5zM413 824q0 31 17 46t46 15q28 0 46 -15t18 -46q0 -29 -18 -44.5t-46 -15.5q-29 0 -46 15.5t-17 44.5zM186 16q-119 56 -119 228v456h66
v-456q0 -201 174 -208q59 -3 99 21q74 44 74 176v467h30v-471q0 -111 -50 -173t-157 -63q-67 -1 -117 23z" />
    <glyph glyph-name="uni01D6" unicode="&#x1d6;" horiz-adv-x="657" 
d="M163 855h331v-93h-331v93zM166 659q0 31 17 46t46 15q28 0 46 -15t18 -46q0 -29 -18 -44.5t-46 -15.5q-29 0 -46 15.5t-17 44.5zM363 659q0 31 17 46t46 15q28 0 46 -15t18 -46q0 -29 -18 -44.5t-46 -15.5q-29 0 -46 15.5t-17 44.5zM351 -2v79q-19 -20 -41.5 -36.5
t-49.5 -28t-52 -14.5q-74 -7 -117 54q-20 28 -26 55.5t-6 70.5v275h66v-275q0 -73 24 -107q14 -20 35 -29q37 -15 83 7q48 22 84 74v330h66v-455h-66z" />
    <glyph glyph-name="uni01D7" unicode="&#x1d7;" horiz-adv-x="755" 
d="M313 901v13q52 59 92 132h162v-10q-24 -28 -72 -70t-82 -65h-100zM216 824q0 31 17 46t46 15q28 0 46 -15t18 -46q0 -29 -18 -44.5t-46 -15.5q-29 0 -46 15.5t-17 44.5zM413 824q0 31 17 46t46 15q28 0 46 -15t18 -46q0 -29 -18 -44.5t-46 -15.5q-29 0 -46 15.5t-17 44.5
zM186 16q-119 56 -119 228v456h66v-456q0 -201 174 -208q59 -3 99 21q74 44 74 176v467h30v-471q0 -111 -50 -173t-157 -63q-67 -1 -117 23z" />
    <glyph glyph-name="uni01D8" unicode="&#x1d8;" horiz-adv-x="657" 
d="M262 736v13q52 59 92 132h162v-10q-24 -28 -72 -70t-82 -65h-100zM165 659q0 31 17 46t46 15q28 0 46 -15t18 -46q0 -29 -18 -44.5t-46 -15.5q-29 0 -46 15.5t-17 44.5zM362 659q0 31 17 46t46 15q28 0 46 -15t18 -46q0 -29 -18 -44.5t-46 -15.5q-29 0 -46 15.5t-17 44.5
zM351 -2v79q-19 -20 -41.5 -36.5t-49.5 -28t-52 -14.5q-74 -7 -117 54q-20 28 -26 55.5t-6 70.5v275h66v-275q0 -73 24 -107q14 -20 35 -29q37 -15 83 7q48 22 84 74v330h66v-455h-66z" />
    <glyph glyph-name="uni01D9" unicode="&#x1d9;" horiz-adv-x="755" 
d="M216 824q0 31 17 46t46 15q28 0 46 -15t18 -46q0 -29 -18 -44.5t-46 -15.5q-29 0 -46 15.5t-17 44.5zM413 824q0 31 17 46t46 15q28 0 46 -15t18 -46q0 -29 -18 -44.5t-46 -15.5q-29 0 -46 15.5t-17 44.5zM196 1047h69q71 -36 113 -74q38 34 113 74h69v-13
q-62 -62 -82 -85t-33 -42h-134q-23 34 -54.5 66t-60.5 61v13zM186 16q-119 56 -119 228v456h66v-456q0 -201 174 -208q59 -3 99 21q74 44 74 176v467h30v-471q0 -111 -50 -173t-157 -63q-67 -1 -117 23z" />
    <glyph glyph-name="uni01DA" unicode="&#x1da;" horiz-adv-x="657" 
d="M166 659q0 31 17 46t46 15q28 0 46 -15t18 -46q0 -29 -18 -44.5t-46 -15.5q-29 0 -46 15.5t-17 44.5zM363 659q0 31 17 46t46 15q28 0 46 -15t18 -46q0 -29 -18 -44.5t-46 -15.5q-29 0 -46 15.5t-17 44.5zM146 882h69q71 -36 113 -74q38 34 113 74h69v-13
q-62 -62 -82 -85t-33 -42h-134q-23 34 -54.5 66t-60.5 61v13zM351 -2v79q-19 -20 -41.5 -36.5t-49.5 -28t-52 -14.5q-74 -7 -117 54q-20 28 -26 55.5t-6 70.5v275h66v-275q0 -73 24 -107q14 -20 35 -29q37 -15 83 7q48 22 84 74v330h66v-455h-66z" />
    <glyph glyph-name="uni01DB" unicode="&#x1db;" horiz-adv-x="755" 
d="M343 901q-34 23 -81.5 64.5t-72.5 70.5v10h162q40 -73 92 -132v-13h-100zM216 824q0 31 17 46t46 15q28 0 46 -15t18 -46q0 -29 -18 -44.5t-46 -15.5q-29 0 -46 15.5t-17 44.5zM413 824q0 31 17 46t46 15q28 0 46 -15t18 -46q0 -29 -18 -44.5t-46 -15.5q-29 0 -46 15.5
t-17 44.5zM186 16q-119 56 -119 228v456h66v-456q0 -201 174 -208q59 -3 99 21q74 44 74 176v467h30v-471q0 -111 -50 -173t-157 -63q-67 -1 -117 23z" />
    <glyph glyph-name="uni01DC" unicode="&#x1dc;" horiz-adv-x="657" 
d="M292 736q-34 23 -81.5 64.5t-72.5 70.5v10h162q40 -73 92 -132v-13h-100zM165 659q0 31 17 46t46 15q28 0 46 -15t18 -46q0 -29 -18 -44.5t-46 -15.5q-29 0 -46 15.5t-17 44.5zM362 659q0 31 17 46t46 15q28 0 46 -15t18 -46q0 -29 -18 -44.5t-46 -15.5q-29 0 -46 15.5
t-17 44.5zM351 -2v79q-19 -20 -41.5 -36.5t-49.5 -28t-52 -14.5q-74 -7 -117 54q-20 28 -26 55.5t-6 70.5v275h66v-275q0 -73 24 -107q14 -20 35 -29q37 -15 83 7q48 22 84 74v330h66v-455h-66z" />
    <glyph glyph-name="uni01DD" unicode="&#x1dd;" horiz-adv-x="590" 
d="M287 96q43 0 72 27.5t33 87.5h-209q1 -55 28 -85t76 -30zM266 556q133 0 206.5 -73.5t73.5 -205.5q0 -137 -68 -212t-190 -75q-115 0 -180 65.5t-65 182.5v72h352q-2 63 -37.5 99t-98.5 36q-46 0 -90 -9.5t-95 -33.5v115q42 21 88.5 30t103.5 9z" />
    <glyph glyph-name="uni01DE" unicode="&#x1de;" horiz-adv-x="689" 
d="M180 1020h331v-93h-331v93zM183 824q0 31 17 46t46 15q28 0 46 -15t18 -46q0 -29 -18 -44.5t-46 -15.5q-29 0 -46 15.5t-17 44.5zM380 824q0 31 17 46t46 15q28 0 46 -15t18 -46q0 -29 -18 -44.5t-46 -15.5q-29 0 -46 15.5t-17 44.5zM427 258h-279l-102 -257h-33l5 12
q15 39 136 340q104 259 136 341l2 6h31l279 -702h-71l-2 5q-9 23 -102 255zM160 287h256q-126 316 -128 320z" />
    <glyph glyph-name="uni01DF" unicode="&#x1df;" horiz-adv-x="604" 
d="M143 855h331v-93h-331v93zM146 659q0 31 17 46t46 15q28 0 46 -15t18 -46q0 -29 -18 -44.5t-46 -15.5q-29 0 -46 15.5t-17 44.5zM343 659q0 31 17 46t46 15q28 0 46 -15t18 -46q0 -29 -18 -44.5t-46 -15.5q-29 0 -46 15.5t-17 44.5zM362 299q-5 53 -32 88t-62.5 43
t-70 -0.5t-58 -41.5t-23.5 -80q0 -23 -17.5 -31t-34 2t-14.5 30q0 23 9 45q20 49 76 79q55 28 117 24q67 -5 113 -47q52 -48 62 -135q1 -7 3 -27v-247h-67v49q-47 -44 -131 -51q-48 -4 -94 9t-70 46q-20 27 -20 62q0 44 26.5 67.5t73.5 36.5q17 5 75 17q24 5 37.5 8
t36.5 10.5t39 18.5t26 25zM363 213q1 20 1 43q-31 -27 -113 -45q-71 -16 -91 -24q-46 -19 -46 -72q0 -47 31 -72q39 -30 95 -20.5t85 47.5q36 48 38 143z" />
    <glyph glyph-name="uni01E0" unicode="&#x1e0;" horiz-adv-x="689" 
d="M180 1020h331v-93h-331v93zM282 824q0 31 17 46t46 15q28 0 46 -15t18 -46q0 -29 -18 -44.5t-46 -15.5q-29 0 -46 15.5t-17 44.5zM427 258h-279l-102 -257h-33l5 12q15 39 136 340q104 259 136 341l2 6h31l279 -702h-71l-2 5q-9 23 -102 255zM160 287h256
q-126 316 -128 320z" />
    <glyph glyph-name="uni01E1" unicode="&#x1e1;" horiz-adv-x="604" 
d="M143 855h331v-93h-331v93zM245 659q0 31 17 46t46 15q28 0 46 -15t18 -46q0 -29 -18 -44.5t-46 -15.5q-29 0 -46 15.5t-17 44.5zM362 299q-5 53 -32 88t-62.5 43t-70 -0.5t-58 -41.5t-23.5 -80q0 -23 -17.5 -31t-34 2t-14.5 30q0 23 9 45q20 49 76 79q55 28 117 24
q67 -5 113 -47q52 -48 62 -135q1 -7 3 -27v-247h-67v49q-47 -44 -131 -51q-48 -4 -94 9t-70 46q-20 27 -20 62q0 44 26.5 67.5t73.5 36.5q17 5 75 17q24 5 37.5 8t36.5 10.5t39 18.5t26 25zM363 213q1 20 1 43q-31 -27 -113 -45q-71 -16 -91 -24q-46 -19 -46 -72
q0 -47 31 -72q39 -30 95 -20.5t85 47.5q36 48 38 143z" />
    <glyph glyph-name="uni01E2" unicode="&#x1e2;" horiz-adv-x="952" 
d="M375 874h331v-103h-331v103zM590 659v-291h229v-30h-229v-313h303v-30h-368l-3 6q-8 21 -100 251h-275l-102 -254h-32l5 13q12 30 134 336q103 256 134 336l3 6h30l206 -517v517h368v-30h-303zM159 281h252q-93 233 -126 316z" />
    <glyph glyph-name="uni01E3" unicode="&#x1e3;" horiz-adv-x="916" 
d="M293 709h331v-103h-331v103zM396 357q27 46 73 70q48 25 106 23q54 -2 97 -27q45 -26 59 -67q5 -15 5 -31q0 -25 -13 -44q-18 -27 -66 -43q-23 -8 -92 -22q-49 -10 -74 -19q-45 -16 -63 -42q6 -65 44 -101q35 -33 83 -33q17 0 34 5q39 12 60.5 44.5t21.5 74.5q0 23 17 31
t33.5 -1.5t14.5 -29.5q0 -25 -10 -48q-20 -47 -75 -74q-52 -27 -112 -24q-67 3 -114 44v-45h-66v49q-46 -43 -129 -50q-47 -4 -92.5 8.5t-70.5 45.5q-19 26 -19 61q0 43 26 66.5t73 36.5q17 4 74 16q32 7 50.5 12t46.5 18.5t40 31.5q-5 52 -31.5 87t-61.5 42.5t-69 -0.5
t-57.5 -40.5t-23.5 -79.5q0 -23 -17 -30.5t-33.5 2t-14.5 28.5q0 24 9 45q18 45 64.5 72t98.5 30q62 4 111 -26q40 -24 63 -66zM426 193q31 27 105 45q72 17 82 20q38 13 51 32q7 11 7 27q0 23 -8 43.5t-24 36.5t-37 24q-30 12 -60 6t-54 -28q-62 -56 -62 -188v-18zM359 208
q1 20 1 42q-30 -26 -112 -44q-70 -15 -90 -23q-45 -19 -45 -72q0 -46 31 -71q38 -29 93.5 -20t84.5 47q35 47 37 141z" />
    <glyph glyph-name="uni01E4" unicode="&#x1e4;" horiz-adv-x="724" 
d="M361 421h283v-164h65v-97h-65v-129q-69 -22 -129.5 -31.5t-124.5 -9.5q-162 0 -247 95t-85 273q0 173 99 269.5t274 96.5q110 0 212 -44l-50 -121q-78 39 -163 39q-98 0 -157 -66t-59 -177q0 -249 191 -249q48 0 91 10v44h-125v97h125v48h-135v116z" />
    <glyph glyph-name="uni01E5" unicode="&#x1e5;" horiz-adv-x="632" 
d="M543 -91q-44 -149 -261 -149q-120 0 -204 32v114q101 -42 213 -42q35 0 61.5 11t36.5 34h-146v77h163v55l4 67h-4q-53 -81 -155 -81q-99 0 -152.5 68t-53.5 191q0 127 55.5 198.5t154.5 71.5q101 0 158 -80h4l12 70h126v-560h60v-77h-72zM304 139q61 0 86.5 30.5
t25.5 100.5v12q0 81 -27 117t-87 36q-52 0 -78.5 -36t-26.5 -113q0 -76 26 -111.5t81 -35.5z" />
    <glyph glyph-name="Gcaron" unicode="&#x1e6;" horiz-adv-x="724" 
d="M597 931v-13q-41 -41 -75.5 -82t-49.5 -65h-174q-14 23 -40.5 55t-84.5 92v13h99q72 -45 112 -86q41 42 114 86h99zM311 699h11q47 1 94 -14.5t82.5 -52t34.5 -84.5q0 -19 -18 -28t-35.5 -0.5t-17.5 30.5v1q1 53 -43.5 89t-99.5 34q-73 -3 -127 -74q-67 -88 -71 -250
q4 -163 71 -251q55 -71 129 -73q45 -1 77 14t48 45t23 63.5t8 77.5h-126v30h195v-18q0 -115 -55 -177.5t-169 -60.5h-11q-76 1 -134.5 42.5t-89 104.5t-36.5 139q-3 25 -3 60q0 32 2 58q4 63 26 120q32 80 92 127t143 48z" />
    <glyph glyph-name="gcaron" unicode="&#x1e7;" horiz-adv-x="632" 
d="M498 766v-13q-41 -41 -75.5 -82t-49.5 -65h-174q-14 23 -40.5 55t-84.5 92v13h99q72 -45 112 -86q41 42 114 86h99zM69 64q-13 30 -1 64q9 25 30 44q-49 43 -49 116q1 84 61 131q50 39 121 39h4h4q58 0 103 -27q59 40 118 20q39 -13 50 -42v-1q4 -14 1 -25t-12 -16
t-19 -5.5t-20 6.5t-14 21q-6 15 -16 25q-14 13 -33.5 13.5t-33.5 -10.5q57 -47 58 -129q0 -76 -50 -117t-128 -42h-4h-4h-4h-4q-63 1 -108 28q-29 -26 -26 -43q3 -18 49 -25q75 -5 120 -6q72 -1 117 -36q42 -32 48 -82q7 -62 -40 -109q-52 -52 -143 -52q-41 -1 -80 10.5
t-71.5 39.5t-40.5 67q-9 45 9 81v0q13 19 33.5 17.5t28 -17t-3.5 -36.5q-13 -22 -10 -46q7 -42 49.5 -68.5t86.5 -25.5q58 1 96 46q35 42 24 85q-15 54 -100 58q-22 1 -64 1q-38 0 -52 1q-24 1 -47.5 14t-32.5 33zM117 284q0 -61 29.5 -96t88.5 -37q59 2 88.5 37t29.5 96
q0 98 -55 135q-26 18 -63 18t-63 -18q-55 -37 -55 -135z" />
    <glyph glyph-name="uni01E8" unicode="&#x1e8;" horiz-adv-x="664" 
d="M560 931v-13q-41 -41 -75.5 -82t-49.5 -65h-174q-14 23 -40.5 55t-84.5 92v13h99q72 -45 112 -86q41 42 114 86h99zM75 325v5v370h66v-315l324 315h43l-325 -317l5 -6l339 -379h-87l-299 332v-332h-66v327z" />
    <glyph glyph-name="uni01E9" unicode="&#x1e9;" horiz-adv-x="620" 
d="M549 951v-13q-41 -41 -75.5 -82t-49.5 -65h-174q-14 23 -40.5 55t-84.5 92v13h99q72 -45 112 -86q41 42 114 86h99zM65 -2v327v5v370h66v-445l207 201h43l-204 -199l237 -259h-94l-189 210v-210h-66z" />
    <glyph glyph-name="uni01EA" unicode="&#x1ea;" horiz-adv-x="795" 
d="M405 -111q0 -21 11 -30.5t28 -9.5q27 0 56 9v-87q-40 -11 -76 -11q-55 0 -88.5 31t-33.5 81q0 33 18.5 61.5t69.5 66.5h87q-34 -32 -53 -59t-19 -52zM51 286q-3 25 -3 60q0 32 2 58q4 63 26 120q32 80 92 127t143 48h18q102 -1 170 -71q41 -42 64.5 -101.5t27.5 -122.5
q2 -26 2 -58q0 -35 -3 -60q-7 -76 -37 -139t-88.5 -104.5t-135.5 -42.5h-18q-76 1 -134.5 42.5t-89 104.5t-36.5 139zM192 99q55 -71 128 -73q74 2 128 73q68 88 72 251q-4 162 -71 250q-54 71 -128 74h-1h-1q-73 -3 -127 -74q-67 -88 -71 -250q4 -163 71 -251z" />
    <glyph glyph-name="uni01EB" unicode="&#x1eb;" horiz-adv-x="619" 
d="M306 -111q0 -21 11 -30.5t28 -9.5q27 0 56 9v-87q-40 -11 -76 -11q-55 0 -88.5 31t-33.5 81q0 33 18.5 61.5t69.5 66.5h87q-34 -32 -53 -59t-19 -52zM49 177q-9 77 7 137q13 52 47.5 87.5t86.5 48.5q23 6 48 6h2h2h6q22 0 42 -5q55 -12 91.5 -50t49.5 -94q15 -62 5 -136
q-9 -65 -46 -110t-99 -58q-21 -5 -43 -5h-6h-2h-2q-25 -1 -48 6q-42 10 -72.5 35.5t-47 60t-21.5 77.5zM154 384q-39 -55 -41 -157q2 -103 41 -157q16 -22 36.5 -35t45.5 -15h8h4q50 4 83 50q39 54 41 157q-2 102 -41 157q-33 45 -83 49h-4h-7q-50 -4 -83 -49z" />
    <glyph glyph-name="uni01EC" unicode="&#x1ec;" horiz-adv-x="795" 
d="M405 -111q0 -21 11 -30.5t28 -9.5q27 0 56 9v-87q-40 -11 -76 -11q-55 0 -88.5 31t-33.5 81q0 33 18.5 61.5t69.5 66.5h87q-34 -32 -53 -59t-19 -52zM233 887h331v-103h-331v103zM51 286q-3 25 -3 60q0 32 2 58q4 63 26 120q32 80 92 127t143 48h18q102 -1 170 -71
q41 -42 64.5 -101.5t27.5 -122.5q2 -26 2 -58q0 -35 -3 -60q-7 -76 -37 -139t-88.5 -104.5t-135.5 -42.5h-18q-76 1 -134.5 42.5t-89 104.5t-36.5 139zM192 99q55 -71 128 -73q74 2 128 73q68 88 72 251q-4 162 -71 250q-54 71 -128 74h-1h-1q-73 -3 -127 -74
q-67 -88 -71 -250q4 -163 71 -251z" />
    <glyph glyph-name="uni01ED" unicode="&#x1ed;" horiz-adv-x="619" 
d="M306 -111q0 -21 11 -30.5t28 -9.5q27 0 56 9v-87q-40 -11 -76 -11q-55 0 -88.5 31t-33.5 81q0 33 18.5 61.5t69.5 66.5h87q-34 -32 -53 -59t-19 -52zM144 709h331v-103h-331v103zM49 177q-9 77 7 137q13 52 47.5 87.5t86.5 48.5q23 6 48 6h2h2h6q22 0 42 -5
q55 -12 91.5 -50t49.5 -94q15 -62 5 -136q-9 -65 -46 -110t-99 -58q-21 -5 -43 -5h-6h-2h-2q-25 -1 -48 6q-42 10 -72.5 35.5t-47 60t-21.5 77.5zM154 384q-39 -55 -41 -157q2 -103 41 -157q16 -22 36.5 -35t45.5 -15h8h4q50 4 83 50q39 54 41 157q-2 102 -41 157
q-33 45 -83 49h-4h-7q-50 -4 -83 -49z" />
    <glyph glyph-name="uni01EE" unicode="&#x1ee;" horiz-adv-x="590" 
d="M138 419l176 170h-262v125h468v-97l-211 -201q118 -5 180.5 -58.5t62.5 -149.5q0 -102 -79.5 -160t-224.5 -58q-126 0 -220 39v128q45 -21 102.5 -34t108.5 -13q82 0 122 25.5t40 81.5q0 50 -51 73t-152 23h-60v106zM494 930v-13q-41 -41 -75.5 -82t-49.5 -65h-174
q-14 23 -40.5 55t-84.5 92v13h99q72 -45 112 -86q41 42 114 86h99z" />
    <glyph glyph-name="uni01EF" unicode="&#x1ef;" horiz-adv-x="581" 
d="M138 245l198 187h-288v114h472v-97l-216 -202q116 -13 177 -75t61 -171q0 -74 -35 -128.5t-102 -83.5t-161 -29q-123 0 -216 39v128q45 -22 100.5 -34.5t104.5 -12.5q77 0 117.5 33t40.5 95q0 67 -49.5 99t-145.5 32h-58v106zM491 766v-13q-41 -41 -75.5 -82t-49.5 -65
h-174q-14 23 -40.5 55t-84.5 92v13h99q72 -45 112 -86q41 42 114 86h99z" />
    <glyph glyph-name="uni01F0" unicode="&#x1f0;" horiz-adv-x="305" 
d="M366 766v-13q-41 -41 -75.5 -82t-49.5 -65h-174q-14 23 -40.5 55t-84.5 92v13h99q72 -45 112 -86q41 42 114 86h99zM34 -240q-57 0 -98 12v117q34 -9 70 -9q38 0 55 21t17 62v583h149v-605q0 -87 -50.5 -134t-142.5 -47z" />
    <glyph glyph-name="uni01F1" unicode="&#x1f1;" horiz-adv-x="1309" 
d="M132 -2h-57v702h57q83 0 133 -4q86 -6 154 -47.5t110 -114.5q43 -75 48 -165q7 -122 -53 -218q-27 -44 -64.5 -75.5t-82.5 -49.5t-97 -23q-55 -5 -148 -5zM141 670v-642q82 0 136 8q80 12 135 68q77 78 87 208q2 24 1 48q-2 73 -28 137t-79.5 111t-126.5 55q-50 6 -125 7
zM1240 700l-399 -672h380v-30h-9h-450h-16l399 672l-378 -1v30h9q18 0 189 0.5t259 0.5h16z" />
    <glyph glyph-name="uni01F2" unicode="&#x1f2;" horiz-adv-x="1228" 
d="M132 -2h-57v702h57q83 0 133 -4q86 -6 154 -47.5t110 -114.5q43 -75 48 -165q7 -122 -53 -218q-27 -44 -64.5 -75.5t-82.5 -49.5t-97 -23q-55 -5 -148 -5zM141 670v-642q82 0 136 8q80 12 135 68q77 78 87 208q2 24 1 48q-2 73 -28 137t-79.5 111t-126.5 55q-50 6 -125 7
zM774 458h266h73l-9 -14q-43 -72 -126.5 -211.5t-123.5 -205.5h249v-29h-9h-314h-16l8 14q45 74 129 213.5t121 202.5h-248v30z" />
    <glyph glyph-name="uni01F3" unicode="&#x1f3;" horiz-adv-x="1121" 
d="M359 429v271h66v-370v-5v-170v-5v-149h-66v34q-38 -25 -86 -32q-54 -8 -103 9q-65 23 -95.5 79.5t-29.5 129.5q1 77 31.5 137t95.5 86q44 18 95 14t92 -29zM359 150v1v177v1q-1 33 -22 61q-24 30 -61.5 41t-73.5 -4q-40 -17 -63 -64q-28 -57 -28 -147q0 -106 49 -157
q40 -43 98 -35q29 5 52 21.5t36 42t13 54.5v8zM667 458h266h73l-9 -14q-43 -72 -126.5 -211.5t-123.5 -205.5h249v-29h-9h-314h-16l8 14q45 74 129 213.5t121 202.5h-248v30z" />
    <glyph glyph-name="uni01F4" unicode="&#x1f4;" horiz-adv-x="724" 
d="M311 699h11q47 1 94 -14.5t82.5 -52t34.5 -84.5q0 -19 -18 -28t-35.5 -0.5t-17.5 30.5v1q1 53 -43.5 89t-99.5 34q-73 -3 -127 -74q-67 -88 -71 -250q4 -163 71 -251q55 -71 129 -73q45 -1 77 14t48 45t23 63.5t8 77.5h-126v30h195v-18q0 -115 -55 -177.5t-169 -60.5h-11
q-76 1 -134.5 42.5t-89 104.5t-36.5 139q-3 25 -3 60q0 32 2 58q4 63 26 120q32 80 92 127t143 48zM312 771v13q84 98 115 147h167v-10q-25 -25 -86.5 -75.5t-96.5 -74.5h-99z" />
    <glyph glyph-name="uni01F5" unicode="&#x1f5;" horiz-adv-x="632" 
d="M69 64q-13 30 -1 64q9 25 30 44q-49 43 -49 116q1 84 61 131q50 39 121 39h4h4q58 0 103 -27q59 40 118 20q39 -13 50 -42v-1q4 -14 1 -25t-12 -16t-19 -5.5t-20 6.5t-14 21q-6 15 -16 25q-14 13 -33.5 13.5t-33.5 -10.5q57 -47 58 -129q0 -76 -50 -117t-128 -42h-4h-4
h-4h-4q-63 1 -108 28q-29 -26 -26 -43q3 -18 49 -25q75 -5 120 -6q72 -1 117 -36q42 -32 48 -82q7 -62 -40 -109q-52 -52 -143 -52q-41 -1 -80 10.5t-71.5 39.5t-40.5 67q-9 45 9 81v0q13 19 33.5 17.5t28 -17t-3.5 -36.5q-13 -22 -10 -46q7 -42 49.5 -68.5t86.5 -25.5
q58 1 96 46q35 42 24 85q-15 54 -100 58q-22 1 -64 1q-38 0 -52 1q-24 1 -47.5 14t-32.5 33zM117 284q0 -61 29.5 -96t88.5 -37q59 2 88.5 37t29.5 96q0 98 -55 135q-26 18 -63 18t-63 -18q-55 -37 -55 -135zM191 606v13q84 98 115 147h167v-10q-25 -25 -86.5 -75.5
t-96.5 -74.5h-99z" />
    <glyph glyph-name="uni01F6" unicode="&#x1f6;" horiz-adv-x="1047" 
d="M627 234q0 -64 21 -93t71 -29t71.5 30.5t21.5 102.5v301h151v-303q0 -253 -244 -253q-126 0 -184.5 55.5t-58.5 174.5v88h-235v-308h-151v714h151v-280h235v280h151v-480z" />
    <glyph glyph-name="uni01F7" unicode="&#x1f7;" horiz-adv-x="675" 
d="M241 -240h-151v954h115l24 -92h4q32 48 82.5 75.5t103.5 27.5q95 0 151 -70t56 -193q0 -103 -45 -193.5t-132 -158.5t-208 -106v-244zM375 599q-62 0 -98 -55t-36 -153v-246q104 42 168 129.5t64 186.5q0 67 -25.5 102.5t-72.5 35.5z" />
    <glyph glyph-name="uni01F8" unicode="&#x1f8;" horiz-adv-x="812" 
d="M105 700v-8l234 -373l121 -192v573h29v-702h-26l-358 570v-570h-30v702h30zM154 852l147 -182l-195 131q-24 16 -11 43q11 25 36 21q12 -3 23 -12v-1z" />
    <glyph glyph-name="uni01F9" unicode="&#x1f9;" horiz-adv-x="657" 
d="M131 449v-75q29 30 67.5 52t75.5 26q74 7 117 -54q20 -28 26 -55.5t6 -69.5v-275h-66v275q0 73 -24 107q-14 19 -35 28q-37 15 -83 -6q-47 -22 -84 -74v-330h-66v451h66zM76 687l147 -182l-195 131q-24 16 -11 43q11 25 36 21q12 -3 23 -12v-1z" />
    <glyph glyph-name="Aringacute" unicode="&#x1fa;" horiz-adv-x="689" 
d="M468 714q0 -42 -23 -72l245 -642h-162l-52 161h-261l-53 -161h-162l244 642q-21 28 -21 71q0 54 33.5 85t87.5 31q53 0 88.5 -31.5t35.5 -83.5zM444 288l-50 141q-42 112 -49 146q-9 -35 -42 -130l-55 -157h196zM285 856v8q22 21 48 50t37 44h167v-6q-11 -13 -55.5 -41
t-97.5 -55h-99zM391 713q0 22 -13 34.5t-34 12.5t-34 -12.5t-13 -34.5q0 -45 42 -47h9q19 1 31 13.5t12 33.5z" />
    <glyph glyph-name="aringacute" unicode="&#x1fb;" horiz-adv-x="604" 
d="M230 856v8q22 21 48 50t37 44h167v-6q-10 -12 -50 -37.5t-103 -58.5h-99zM425 0l-29 74h-4q-38 -47 -77.5 -65.5t-103.5 -18.5q-79 0 -124 45t-45 128q0 87 61 128.5t183 45.5l95 3v24q0 83 -85 83q-65 0 -154 -40l-49 101q94 49 209 49q110 0 168.5 -48t58.5 -145v-364
h-104zM381 253l-58 -2q-65 -2 -96.5 -23.5t-31.5 -65.5q0 -63 72 -63q52 0 83 30t31 79v45zM430 702q0 -53 -34.5 -85t-89.5 -32t-88 31t-33 85q0 53 33 84.5t88 31.5q54 0 89 -32.5t35 -82.5zM353 701q0 22 -13 34.5t-34 12.5t-34 -12.5t-13 -34.5t12 -34.5t35 -12.5
q21 0 34 12.5t13 34.5z" />
    <glyph glyph-name="AEacute" unicode="&#x1fc;" horiz-adv-x="952" 
d="M590 659v-291h229v-30h-229v-313h303v-30h-368l-3 6q-8 21 -100 251h-275l-102 -254h-32l5 13q12 30 134 336q103 256 134 336l3 6h30l206 -517v517h368v-30h-303zM159 281h252q-93 233 -126 316zM490 771v13q84 98 115 147h167v-10q-25 -25 -86.5 -75.5t-96.5 -74.5h-99
z" />
    <glyph glyph-name="aeacute" unicode="&#x1fd;" horiz-adv-x="916" 
d="M396 357q27 46 73 70q48 25 106 23q54 -2 97 -27q45 -26 59 -67q5 -15 5 -31q0 -25 -13 -44q-18 -27 -66 -43q-23 -8 -92 -22q-49 -10 -74 -19q-45 -16 -63 -42q6 -65 44 -101q35 -33 83 -33q17 0 34 5q39 12 60.5 44.5t21.5 74.5q0 23 17 31t33.5 -1.5t14.5 -29.5
q0 -25 -10 -48q-20 -47 -75 -74q-52 -27 -112 -24q-67 3 -114 44v-45h-66v49q-46 -43 -129 -50q-47 -4 -92.5 8.5t-70.5 45.5q-19 26 -19 61q0 43 26 66.5t73 36.5q17 4 74 16q32 7 50.5 12t46.5 18.5t40 31.5q-5 52 -31.5 87t-61.5 42.5t-69 -0.5t-57.5 -40.5t-23.5 -79.5
q0 -23 -17 -30.5t-33.5 2t-14.5 28.5q0 24 9 45q18 45 64.5 72t98.5 30q62 4 111 -26q40 -24 63 -66zM426 193q31 27 105 45q72 17 82 20q38 13 51 32q7 11 7 27q0 23 -8 43.5t-24 36.5t-37 24q-30 12 -60 6t-54 -28q-62 -56 -62 -188v-18zM359 208q1 20 1 42
q-30 -26 -112 -44q-70 -15 -90 -23q-45 -19 -45 -72q0 -46 31 -71q38 -29 93.5 -20t84.5 47q35 47 37 141zM389 606v13q84 98 115 147h167v-10q-25 -25 -86.5 -75.5t-96.5 -74.5h-99z" />
    <glyph glyph-name="Oslashacute" unicode="&#x1fe;" horiz-adv-x="795" 
d="M398 678l26 77l62 -21l-29 -85q57 -39 89.5 -107.5t38.5 -145.5q1 -25 1 -57q0 -34 -2 -59q-7 -75 -37 -137t-88 -103t-133 -42h-18q-38 0 -71 11l-27 -77l-62 21l29 84q-55 38 -87.5 103.5t-39.5 139.5q-2 25 -2 59q0 32 2 57q4 63 26 119q31 80 90.5 126.5t141.5 46.5
h18q38 0 72 -10zM439 597l-190 -554q33 -19 68 -20q73 2 127 72q66 88 70 248q-4 167 -75 254zM120 343q4 -167 75 -254l191 554q-34 19 -68 20h-1h-1q-72 -2 -126 -73q-66 -87 -70 -247zM311 771v13q84 98 115 147h167v-10q-25 -25 -86.5 -75.5t-96.5 -74.5h-99z" />
    <glyph glyph-name="oslashacute" unicode="&#x1ff;" horiz-adv-x="619" 
d="M277 445l18 51l45 -15l-17 -50q81 -35 103 -130q15 -62 5 -134q-9 -65 -45.5 -109t-97.5 -58q-21 -5 -43 -5h-6h-1h-2q-25 0 -48 6l-12 4l-13 -40l-46 16l16 44q-73 46 -84 148q-9 75 6 134q14 52 48 87t85 48q23 6 48 6h2h1h6q17 0 32 -3zM187 34q22 -14 47 -16h8h4
q49 4 81 48q39 54 41 156q-3 122 -57 174zM149 72l120 349q-11 3 -23 4h-4h-8q-49 -4 -81 -48q-39 -54 -41 -155q2 -96 37 -150zM222 606v13q84 98 115 147h167v-10q-25 -25 -86.5 -75.5t-96.5 -74.5h-99z" />
    <glyph glyph-name="uni0200" unicode="&#x200;" horiz-adv-x="689" 
d="M420 771q-30 24 -83.5 73.5t-69.5 76.5v10h147q16 -35 40.5 -77.5t44.5 -69.5v-13h-79zM226 771q-36 28 -87 76.5t-66 73.5v10h147q16 -35 40.5 -77.5t44.5 -69.5v-13h-79zM427 258h-279l-102 -257h-33l5 12q15 39 136 340q104 259 136 341l2 6h31l279 -702h-71l-2 5
q-9 23 -102 255zM160 287h256q-126 316 -128 320z" />
    <glyph glyph-name="uni0201" unicode="&#x201;" horiz-adv-x="604" 
d="M391 606q-30 24 -83.5 73.5t-69.5 76.5v10h147q16 -35 40.5 -77.5t44.5 -69.5v-13h-79zM197 606q-36 28 -87 76.5t-66 73.5v10h147q16 -35 40.5 -77.5t44.5 -69.5v-13h-79zM362 299q-5 53 -32 88t-62.5 43t-70 -0.5t-58 -41.5t-23.5 -80q0 -23 -17.5 -31t-34 2t-14.5 30
q0 23 9 45q20 49 76 79q55 28 117 24q67 -5 113 -47q52 -48 62 -135q1 -7 3 -27v-247h-67v49q-47 -44 -131 -51q-48 -4 -94 9t-70 46q-20 27 -20 62q0 44 26.5 67.5t73.5 36.5q17 5 75 17q24 5 37.5 8t36.5 10.5t39 18.5t26 25zM363 213q1 20 1 43q-31 -27 -113 -45
q-71 -16 -91 -24q-46 -19 -46 -72q0 -47 31 -72q39 -30 95 -20.5t85 47.5q36 48 38 143z" />
    <glyph glyph-name="uni0202" unicode="&#x202;" horiz-adv-x="689" 
d="M153 771q5 74 58.5 119.5t135.5 45.5q84 0 135 -43.5t55 -121.5h-83q-2 23 -13.5 36t-31.5 19t-63 6q-102 0 -108 -61h-85zM427 258h-279l-102 -257h-33l5 12q15 39 136 340q104 259 136 341l2 6h31l279 -702h-71l-2 5q-9 23 -102 255zM160 287h256q-126 316 -128 320z
" />
    <glyph glyph-name="uni0203" unicode="&#x203;" horiz-adv-x="604" 
d="M113 606q5 74 58.5 119.5t135.5 45.5q84 0 135 -43.5t55 -121.5h-83q-2 23 -13.5 36t-31.5 19t-63 6q-102 0 -108 -61h-85zM362 299q-5 53 -32 88t-62.5 43t-70 -0.5t-58 -41.5t-23.5 -80q0 -23 -17.5 -31t-34 2t-14.5 30q0 23 9 45q20 49 76 79q55 28 117 24
q67 -5 113 -47q52 -48 62 -135q1 -7 3 -27v-247h-67v49q-47 -44 -131 -51q-48 -4 -94 9t-70 46q-20 27 -20 62q0 44 26.5 67.5t73.5 36.5q17 5 75 17q24 5 37.5 8t36.5 10.5t39 18.5t26 25zM363 213q1 20 1 43q-31 -27 -113 -45q-71 -16 -91 -24q-46 -19 -46 -72
q0 -47 31 -72q39 -30 95 -20.5t85 47.5q36 48 38 143z" />
    <glyph glyph-name="uni0204" unicode="&#x204;" horiz-adv-x="560" 
d="M386 771q-30 24 -83.5 73.5t-69.5 76.5v10h147q16 -35 40.5 -77.5t44.5 -69.5v-13h-79zM192 771q-36 28 -87 76.5t-66 73.5v10h147q16 -35 40.5 -77.5t44.5 -69.5v-13h-79zM448 670h-307v-295h232v-30h-232v-317h307v-30h-373v702h373v-30z" />
    <glyph glyph-name="uni0205" unicode="&#x205;" horiz-adv-x="590" 
d="M398 606q-30 24 -83.5 73.5t-69.5 76.5v10h147q16 -35 40.5 -77.5t44.5 -69.5v-13h-79zM204 606q-36 28 -87 76.5t-66 73.5v10h147q16 -35 40.5 -77.5t44.5 -69.5v-13h-79zM113 159q6 -66 45 -102q35 -34 84 -33q17 0 34 5q40 12 61.5 44.5t21.5 76.5q0 23 17.5 31t34 -2
t14.5 -30q0 -73 -74 -117.5t-158 -26.5q-97 21 -132 115q-16 44 -16 101q1 106 53 168q45 54 118 66q66 11 126 -15q61 -27 78 -77q5 -15 5 -31q0 -26 -13 -45q-19 -27 -67 -44q-23 -7 -93 -22q-50 -10 -76 -19q-45 -17 -63 -43zM111 216v-10.5v-7.5q32 27 106 45t83 21
q39 13 52 32q7 11 7 27q0 36 -18.5 64.5t-51.5 41.5q-30 11 -60.5 5t-54.5 -28q-63 -57 -63 -190z" />
    <glyph glyph-name="uni0206" unicode="&#x206;" horiz-adv-x="560" 
d="M103 771q5 74 58.5 119.5t135.5 45.5q84 0 135 -43.5t55 -121.5h-83q-2 23 -13.5 36t-31.5 19t-63 6q-102 0 -108 -61h-85zM448 670h-307v-295h232v-30h-232v-317h307v-30h-373v702h373v-30z" />
    <glyph glyph-name="uni0207" unicode="&#x207;" horiz-adv-x="590" 
d="M111 606q5 74 58.5 119.5t135.5 45.5q84 0 135 -43.5t55 -121.5h-83q-2 23 -13.5 36t-31.5 19t-63 6q-102 0 -108 -61h-85zM113 159q6 -66 45 -102q35 -34 84 -33q17 0 34 5q40 12 61.5 44.5t21.5 76.5q0 23 17.5 31t34 -2t14.5 -30q0 -73 -74 -117.5t-158 -26.5
q-97 21 -132 115q-16 44 -16 101q1 106 53 168q45 54 118 66q66 11 126 -15q61 -27 78 -77q5 -15 5 -31q0 -26 -13 -45q-19 -27 -67 -44q-23 -7 -93 -22q-50 -10 -76 -19q-45 -17 -63 -43zM111 216v-10.5v-7.5q32 27 106 45t83 21q39 13 52 32q7 11 7 27q0 36 -18.5 64.5
t-51.5 41.5q-30 11 -60.5 5t-54.5 -28q-63 -57 -63 -190z" />
    <glyph glyph-name="uni0208" unicode="&#x208;" horiz-adv-x="389" 
d="M278 771q-30 24 -83.5 73.5t-69.5 76.5v10h147q16 -35 40.5 -77.5t44.5 -69.5v-13h-79zM84 771q-36 28 -87 76.5t-66 73.5v10h147q16 -35 40.5 -77.5t44.5 -69.5v-13h-79zM141 -2h-66v702h66v-702z" />
    <glyph glyph-name="uni0209" unicode="&#x209;" horiz-adv-x="305" 
d="M228 606q-30 24 -83.5 73.5t-69.5 76.5v10h147q16 -35 40.5 -77.5t44.5 -69.5v-13h-79zM34 606q-36 28 -87 76.5t-66 73.5v10h147q16 -35 40.5 -77.5t44.5 -69.5v-13h-79zM106 135h-61v326h61v-326z" />
    <glyph glyph-name="uni020A" unicode="&#x20a;" horiz-adv-x="389" 
d="M2 771q5 74 58.5 119.5t135.5 45.5q84 0 135 -43.5t55 -121.5h-83q-2 23 -13.5 36t-31.5 19t-63 6q-102 0 -108 -61h-85zM141 -2h-66v702h66v-702z" />
    <glyph glyph-name="uni020B" unicode="&#x20b;" horiz-adv-x="305" 
d="M-40 606q5 74 58.5 119.5t135.5 45.5q84 0 135 -43.5t55 -121.5h-83q-2 23 -13.5 36t-31.5 19t-63 6q-102 0 -108 -61h-85zM106 135h-61v326h61v-326z" />
    <glyph glyph-name="uni020C" unicode="&#x20c;" horiz-adv-x="795" 
d="M480 771q-30 24 -83.5 73.5t-69.5 76.5v10h147q16 -35 40.5 -77.5t44.5 -69.5v-13h-79zM286 771q-36 28 -87 76.5t-66 73.5v10h147q16 -35 40.5 -77.5t44.5 -69.5v-13h-79zM51 286q-3 25 -3 60q0 32 2 58q4 63 26 120q32 80 92 127t143 48h18q102 -1 170 -71
q41 -42 64.5 -101.5t27.5 -122.5q2 -26 2 -58q0 -35 -3 -60q-7 -76 -37 -139t-88.5 -104.5t-135.5 -42.5h-18q-76 1 -134.5 42.5t-89 104.5t-36.5 139zM192 99q55 -71 128 -73q74 2 128 73q68 88 72 251q-4 162 -71 250q-54 71 -128 74h-1h-1q-73 -3 -127 -74
q-67 -88 -71 -250q4 -163 71 -251z" />
    <glyph glyph-name="uni020D" unicode="&#x20d;" horiz-adv-x="619" 
d="M398 606q-30 24 -83.5 73.5t-69.5 76.5v10h147q16 -35 40.5 -77.5t44.5 -69.5v-13h-79zM204 606q-36 28 -87 76.5t-66 73.5v10h147q16 -35 40.5 -77.5t44.5 -69.5v-13h-79zM49 177q-9 77 7 137q13 52 47.5 87.5t86.5 48.5q23 6 48 6h2h2h6q22 0 42 -5q55 -12 91.5 -50
t49.5 -94q15 -62 5 -136q-9 -65 -46 -110t-99 -58q-21 -5 -43 -5h-6h-2h-2q-25 -1 -48 6q-42 10 -72.5 35.5t-47 60t-21.5 77.5zM154 384q-39 -55 -41 -157q2 -103 41 -157q16 -22 36.5 -35t45.5 -15h8h4q50 4 83 50q39 54 41 157q-2 102 -41 157q-33 45 -83 49h-4h-7
q-50 -4 -83 -49z" />
    <glyph glyph-name="uni020E" unicode="&#x20e;" horiz-adv-x="795" 
d="M206 771q5 74 58.5 119.5t135.5 45.5q84 0 135 -43.5t55 -121.5h-83q-2 23 -13.5 36t-31.5 19t-63 6q-102 0 -108 -61h-85zM51 286q-3 25 -3 60q0 32 2 58q4 63 26 120q32 80 92 127t143 48h18q102 -1 170 -71q41 -42 64.5 -101.5t27.5 -122.5q2 -26 2 -58q0 -35 -3 -60
q-7 -76 -37 -139t-88.5 -104.5t-135.5 -42.5h-18q-76 1 -134.5 42.5t-89 104.5t-36.5 139zM192 99q55 -71 128 -73q74 2 128 73q68 88 72 251q-4 162 -71 250q-54 71 -128 74h-1h-1q-73 -3 -127 -74q-67 -88 -71 -250q4 -163 71 -251z" />
    <glyph glyph-name="uni020F" unicode="&#x20f;" horiz-adv-x="619" 
d="M117 606q5 74 58.5 119.5t135.5 45.5q84 0 135 -43.5t55 -121.5h-83q-2 23 -13.5 36t-31.5 19t-63 6q-102 0 -108 -61h-85zM49 177q-9 77 7 137q13 52 47.5 87.5t86.5 48.5q23 6 48 6h2h2h6q22 0 42 -5q55 -12 91.5 -50t49.5 -94q15 -62 5 -136q-9 -65 -46 -110t-99 -58
q-21 -5 -43 -5h-6h-2h-2q-25 -1 -48 6q-42 10 -72.5 35.5t-47 60t-21.5 77.5zM154 384q-39 -55 -41 -157q2 -103 41 -157q16 -22 36.5 -35t45.5 -15h8h4q50 4 83 50q39 54 41 157q-2 102 -41 157q-33 45 -83 49h-4h-7q-50 -4 -83 -49z" />
    <glyph glyph-name="uni0210" unicode="&#x210;" horiz-adv-x="660" 
d="M402 771q-30 24 -83.5 73.5t-69.5 76.5v10h147q16 -35 40.5 -77.5t44.5 -69.5v-13h-79zM208 771q-36 28 -87 76.5t-66 73.5v10h147q16 -35 40.5 -77.5t44.5 -69.5v-13h-79zM371 347q46 -15 74.5 -54.5t28.5 -87.5v-207h-66v219q0 44 -31 75t-75 31h-75h-19h-67v-325h-57
h-9v693v9h195h19q63 -3 111.5 -35.5t68.5 -90.5q9 -29 9 -59q0 -125 -107 -168zM141 671v-317h31h35.5h31.5h8h5q78 0 119 41t41 119q0 43 -18 78q-42 80 -148 79h-105z" />
    <glyph glyph-name="uni0211" unicode="&#x211;" horiz-adv-x="454" 
d="M346 606q-30 24 -83.5 73.5t-69.5 76.5v10h147q16 -35 40.5 -77.5t44.5 -69.5v-13h-79zM152 606q-36 28 -87 76.5t-66 73.5v10h147q16 -35 40.5 -77.5t44.5 -69.5v-13h-79zM131 449q59 40 119 21q38 -13 50 -43q4 -14 1 -25.5t-12.5 -16.5t-19.5 -5.5t-19.5 7t-13.5 20.5
q-6 16 -17 26q-22 20 -51.5 10t-35.5 -39q-1 -5 -1 -11v-395h-66v451h66z" />
    <glyph glyph-name="uni0212" unicode="&#x212;" horiz-adv-x="660" 
d="M129 771q5 74 58.5 119.5t135.5 45.5q84 0 135 -43.5t55 -121.5h-83q-2 23 -13.5 36t-31.5 19t-63 6q-102 0 -108 -61h-85zM371 347q46 -15 74.5 -54.5t28.5 -87.5v-207h-66v219q0 44 -31 75t-75 31h-75h-19h-67v-325h-57h-9v693v9h195h19q63 -3 111.5 -35.5t68.5 -90.5
q9 -29 9 -59q0 -125 -107 -168zM141 671v-317h31h35.5h31.5h8h5q78 0 119 41t41 119q0 43 -18 78q-42 80 -148 79h-105z" />
    <glyph glyph-name="uni0213" unicode="&#x213;" horiz-adv-x="454" 
d="M64 606q5 74 58.5 119.5t135.5 45.5q84 0 135 -43.5t55 -121.5h-83q-2 23 -13.5 36t-31.5 19t-63 6q-102 0 -108 -61h-85zM131 449q59 40 119 21q38 -13 50 -43q4 -14 1 -25.5t-12.5 -16.5t-19.5 -5.5t-19.5 7t-13.5 20.5q-6 16 -17 26q-22 20 -51.5 10t-35.5 -39
q-1 -5 -1 -11v-395h-66v451h66z" />
    <glyph glyph-name="uni0214" unicode="&#x214;" horiz-adv-x="755" 
d="M474 771q-30 24 -83.5 73.5t-69.5 76.5v10h147q16 -35 40.5 -77.5t44.5 -69.5v-13h-79zM280 771q-36 28 -87 76.5t-66 73.5v10h147q16 -35 40.5 -77.5t44.5 -69.5v-13h-79zM186 16q-119 56 -119 228v456h66v-456q0 -201 174 -208q59 -3 99 21q74 44 74 176v467h30v-471
q0 -111 -50 -173t-157 -63q-67 -1 -117 23z" />
    <glyph glyph-name="uni0215" unicode="&#x215;" horiz-adv-x="657" 
d="M413 606q-30 24 -83.5 73.5t-69.5 76.5v10h147q16 -35 40.5 -77.5t44.5 -69.5v-13h-79zM219 606q-36 28 -87 76.5t-66 73.5v10h147q16 -35 40.5 -77.5t44.5 -69.5v-13h-79zM351 -2v79q-19 -20 -41.5 -36.5t-49.5 -28t-52 -14.5q-74 -7 -117 54q-20 28 -26 55.5t-6 70.5
v275h66v-275q0 -73 24 -107q14 -20 35 -29q37 -15 83 7q48 22 84 74v330h66v-455h-66z" />
    <glyph glyph-name="uni0216" unicode="&#x216;" horiz-adv-x="755" 
d="M186 771q5 74 58.5 119.5t135.5 45.5q84 0 135 -43.5t55 -121.5h-83q-2 23 -13.5 36t-31.5 19t-63 6q-102 0 -108 -61h-85zM186 16q-119 56 -119 228v456h66v-456q0 -201 174 -208q59 -3 99 21q74 44 74 176v467h30v-471q0 -111 -50 -173t-157 -63q-67 -1 -117 23z" />
    <glyph glyph-name="uni0217" unicode="&#x217;" horiz-adv-x="657" 
d="M136 606q5 74 58.5 119.5t135.5 45.5q84 0 135 -43.5t55 -121.5h-83q-2 23 -13.5 36t-31.5 19t-63 6q-102 0 -108 -61h-85zM351 -2v79q-19 -20 -41.5 -36.5t-49.5 -28t-52 -14.5q-74 -7 -117 54q-20 28 -26 55.5t-6 70.5v275h66v-275q0 -73 24 -107q14 -20 35 -29
q37 -15 83 7q48 22 84 74v330h66v-455h-66z" />
    <glyph glyph-name="uni0218" unicode="&#x218;" horiz-adv-x="550" 
d="M169 -208q7 24 16.5 70t13.5 77h138v-10q-37 -82 -81 -150h-87v13zM179 20q-64 25 -100 73.5t-36 116.5q-2 22 15.5 33t36.5 2q21 -9 21 -35q0 -88 49 -135q39 -36 88 -45.5t98 10.5q41 16 71.5 49t32.5 73q3 46 -36 82q-23 22 -65 47q-27 15 -83 43q-93 46 -128 71
q-39 29 -60 67t-15 82q9 62 66 104q59 44 141 45q41 0 79 -10t71 -29t53.5 -53t21.5 -77q1 -21 -15.5 -31.5t-33.5 -2.5t-18 33q-3 71 -53 110q-44 35 -105 33q-57 -2 -101 -35q-43 -32 -48 -75q-9 -65 75 -111q25 -14 71 -36t63 -31q99 -52 139 -100q53 -63 39 -131
q-10 -44 -43 -78.5t-78 -54.5q-50 -21 -106 -22.5t-107 18.5z" />
    <glyph glyph-name="uni0219" unicode="&#x219;" horiz-adv-x="497" 
d="M144 -208q7 24 16.5 70t13.5 77h138v-10q-37 -82 -81 -150h-87v13zM188 1q-60 11 -102 49t-42 96q-2 19 15 29t34 2t17 -31q0 -95 69 -119q26 -9 57 -5t58.5 21.5t36.5 44.5q7 21 0 43q-7 20 -28.5 36t-48.5 25t-58.5 20t-58.5 22t-47.5 30t-27.5 43q-11 42 8 77
q19 34 59 51.5t83 18.5q41 0 78 -12.5t63.5 -43t26.5 -72.5q1 -17 -13.5 -26t-30 -2t-15.5 28q0 69 -48 93q-25 14 -59 12q-12 -1 -24 -4q-28 -7 -54 -26t-29 -44q-1 -13 4 -25q9 -21 48 -37q8 -4 85 -30q25 -9 42.5 -16.5t38.5 -20.5t34 -31t17 -40q14 -70 -26 -114
q-28 -30 -72.5 -40t-89.5 -2z" />
    <glyph glyph-name="uni021A" unicode="&#x21a;" horiz-adv-x="579" 
d="M191 -208q7 24 16.5 70t13.5 77h138v-10q-37 -82 -81 -150h-87v13zM222 670h-217v30h492h9v-30h-218v-672h-66v672z" />
    <glyph glyph-name="uni021B" unicode="&#x21b;" horiz-adv-x="434" 
d="M147 -208q7 24 16.5 70t13.5 77h138v-10q-37 -82 -81 -150h-87v13zM79 429h-50v29h50v160h66v-160h123v-29h-123v-251q0 -86 24 -120q31 -44 88 -32l11 2v-20l-6 -2q-18 -6 -34 -8q-74 -7 -117 54q-20 28 -26 55.5t-6 70.5v251z" />
    <glyph glyph-name="uni021C" unicode="&#x21c;" horiz-adv-x="647" 
d="M583 547q0 -69 -49 -114t-132 -57v-3q98 -10 150.5 -54.5t52.5 -115.5q0 -99 -80 -156t-221 -57q-157 0 -252 39v127q46 -22 107.5 -34.5t115.5 -12.5q180 0 180 105q0 47 -58 72.5t-171 25.5h-67v118h60q113 0 165 21.5t52 71.5q0 37 -32.5 58.5t-97.5 21.5
q-101 0 -194 -58l-66 101q61 41 129.5 59.5t151.5 18.5q117 0 186.5 -48.5t69.5 -128.5z" />
    <glyph glyph-name="uni021D" unicode="&#x21d;" horiz-adv-x="562" 
d="M373 8q0 67 -47.5 97t-141.5 30h-74v112h72q98 0 142.5 24.5t44.5 75.5q0 89 -121 89q-36 0 -81.5 -9.5t-80.5 -25.5l-44 108q105 47 235 47q105 0 165 -50.5t60 -140.5q0 -67 -34.5 -107.5t-107.5 -58.5v-6q80 -12 122 -61t42 -128q0 -74 -35.5 -129.5t-102.5 -85
t-160 -29.5q-123 0 -216 39v128q43 -21 98.5 -34t106.5 -13q77 0 117.5 33t40.5 95z" />
    <glyph glyph-name="uni021E" unicode="&#x21e;" horiz-adv-x="765" 
d="M594 931v-13q-41 -41 -75.5 -82t-49.5 -65h-174q-14 23 -40.5 55t-84.5 92v13h99q72 -45 112 -86q41 42 114 86h99zM141 700v-325h319v325h66v-702h-66v347h-319v-347h-66v702h66z" />
    <glyph glyph-name="uni021F" unicode="&#x21f;" horiz-adv-x="657" 
d="M543 951v-13q-41 -41 -75.5 -82t-49.5 -65h-174q-14 23 -40.5 55t-84.5 92v13h99q72 -45 112 -86q41 42 114 86h99zM131 390q35 39 86 56q65 21 123 -2q51 -20 74.5 -66t23.5 -105v-275h-66v275q0 32 -7 59.5t-26 51.5t-49 33q-42 12 -86 -8q-46 -20 -73 -66v-345h-66
v695h66v-303z" />
    <glyph glyph-name="uni0220" unicode="&#x220;" horiz-adv-x="761" 
d="M676 -240h-151v690q0 74 -30.5 111.5t-95.5 37.5q-82 0 -120 -51.5t-38 -169.5v-378h-151v714h115l24 -92h4q33 50 88.5 76.5t124.5 26.5q111 0 170.5 -61.5t59.5 -176.5v-727z" />
    <glyph glyph-name="uni0221" unicode="&#x221;" horiz-adv-x="632" 
d="M251 -10q-96 0 -151 75t-55 207q0 134 56 209t154 75q103 0 157 -80h5q-11 61 -11 109v175h149v-821q0 -28 14 -44t39 -16t55 10v-114q-30 -15 -91 -15q-166 0 -166 176v37q0 27 2.5 52t3.5 46h-6q-51 -81 -155 -81zM303 109q57 0 84 33t29 113v16q0 88 -27 126t-88 38
q-50 0 -77.5 -42t-27.5 -123t27.5 -121t79.5 -40z" />
    <glyph glyph-name="uni0222" unicode="&#x222;" horiz-adv-x="766" 
d="M680 648q0 -72 -25 -119t-82 -76q140 -58 140 -204q0 -124 -85 -191.5t-245 -67.5t-245 67t-85 191q0 69 34.5 122.5t104.5 82.5q-56 28 -81 73t-25 121v67h151v-66q0 -138 147 -138q145 0 145 138v66h151v-66zM212 250q0 -133 171 -133t171 133t-170 133
q-172 0 -172 -133z" />
    <glyph glyph-name="uni0223" unicode="&#x223;" horiz-adv-x="628" 
d="M554 660q0 -80 -26.5 -129t-81.5 -74q66 -26 102 -78t36 -129q0 -122 -72.5 -191t-198.5 -69q-79 0 -140 31.5t-94.5 90t-33.5 136.5q0 153 134 209q-54 25 -79 73t-25 131v99h149v-99q0 -78 21 -111.5t69 -33.5t69.5 33t21.5 111v100h149v-100zM197 251
q0 -72 28.5 -106.5t89.5 -34.5q117 0 117 142q0 72 -28.5 108t-89.5 36q-117 0 -117 -145z" />
    <glyph glyph-name="uni0224" unicode="&#x224;" horiz-adv-x="579" 
d="M383 -240q-49 0 -90 12v117q29 -9 58 -9q60 0 60 83v162h144v-184q0 -86 -44.5 -133.5t-127.5 -47.5zM510 700l-399 -672h380v-30h-9h-450h-16l399 672l-378 -1v30h9q18 0 189 0.5t259 0.5h16z" />
    <glyph glyph-name="uni0225" unicode="&#x225;" horiz-adv-x="487" 
d="M316 -230q-45 0 -80 13v104q25 -9 48 -9q25 0 37.5 12.5t12.5 45.5v64h-307v88l253 344h-238v114h407v-97l-246 -335h255v-178q0 -86 -36 -126t-106 -40z" />
    <glyph glyph-name="uni0226" unicode="&#x226;" horiz-adv-x="689" 
d="M264 852q0 73 81 73t81 -73q0 -35 -20.5 -54t-60.5 -19q-81 0 -81 73zM427 258h-279l-102 -257h-33l5 12q15 39 136 340q104 259 136 341l2 6h31l279 -702h-71l-2 5q-9 23 -102 255zM160 287h256q-126 316 -128 320z" />
    <glyph glyph-name="uni0227" unicode="&#x227;" horiz-adv-x="604" 
d="M221 687q0 73 81 73t81 -73q0 -35 -20.5 -54t-60.5 -19q-81 0 -81 73zM362 299q-5 53 -32 88t-62.5 43t-70 -0.5t-58 -41.5t-23.5 -80q0 -23 -17.5 -31t-34 2t-14.5 30q0 23 9 45q20 49 76 79q55 28 117 24q67 -5 113 -47q52 -48 62 -135q1 -7 3 -27v-247h-67v49
q-47 -44 -131 -51q-48 -4 -94 9t-70 46q-20 27 -20 62q0 44 26.5 67.5t73.5 36.5q17 5 75 17q24 5 37.5 8t36.5 10.5t39 18.5t26 25zM363 213q1 20 1 43q-31 -27 -113 -45q-71 -16 -91 -24q-46 -19 -46 -72q0 -47 31 -72q39 -30 95 -20.5t85 47.5q36 48 38 143z" />
    <glyph glyph-name="uni0228" unicode="&#x228;" horiz-adv-x="560" 
d="M448 670h-307v-295h232v-30h-232v-317h307v-30h-373v702h373v-30zM402 -122q0 -62 -37 -90t-114 -28q-38 0 -71 10v82q13 -3 35.5 -6.5t34.5 -3.5q35 0 35 30q0 41 -81 53l38 75h94l-13 -30q36 -12 57.5 -36.5t21.5 -55.5z" />
    <glyph glyph-name="uni0229" unicode="&#x229;" horiz-adv-x="590" 
d="M113 159q6 -66 45 -102q35 -34 84 -33q17 0 34 5q40 12 61.5 44.5t21.5 76.5q0 23 17.5 31t34 -2t14.5 -30q0 -73 -74 -117.5t-158 -26.5q-97 21 -132 115q-16 44 -16 101q1 106 53 168q45 54 118 66q66 11 126 -15q61 -27 78 -77q5 -15 5 -31q0 -26 -13 -45
q-19 -27 -67 -44q-23 -7 -93 -22q-50 -10 -76 -19q-45 -17 -63 -43zM111 216v-10.5v-7.5q32 27 106 45t83 21q39 13 52 32q7 11 7 27q0 36 -18.5 64.5t-51.5 41.5q-30 11 -60.5 5t-54.5 -28q-63 -57 -63 -190zM415 -122q0 -62 -37 -90t-114 -28q-38 0 -71 10v82
q13 -3 35.5 -6.5t34.5 -3.5q35 0 35 30q0 41 -81 53l38 75h94l-13 -30q36 -12 57.5 -36.5t21.5 -55.5z" />
    <glyph glyph-name="uni022A" unicode="&#x22a;" horiz-adv-x="795" 
d="M233 1020h331v-93h-331v93zM236 824q0 31 17 46t46 15q28 0 46 -15t18 -46q0 -29 -18 -44.5t-46 -15.5q-29 0 -46 15.5t-17 44.5zM433 824q0 31 17 46t46 15q28 0 46 -15t18 -46q0 -29 -18 -44.5t-46 -15.5q-29 0 -46 15.5t-17 44.5zM51 286q-3 25 -3 60q0 32 2 58
q4 63 26 120q32 80 92 127t143 48h18q102 -1 170 -71q41 -42 64.5 -101.5t27.5 -122.5q2 -26 2 -58q0 -35 -3 -60q-7 -76 -37 -139t-88.5 -104.5t-135.5 -42.5h-18q-76 1 -134.5 42.5t-89 104.5t-36.5 139zM192 99q55 -71 128 -73q74 2 128 73q68 88 72 251q-4 162 -71 250
q-54 71 -128 74h-1h-1q-73 -3 -127 -74q-67 -88 -71 -250q4 -163 71 -251z" />
    <glyph glyph-name="uni022B" unicode="&#x22b;" horiz-adv-x="619" 
d="M144 855h331v-93h-331v93zM147 659q0 31 17 46t46 15q28 0 46 -15t18 -46q0 -29 -18 -44.5t-46 -15.5q-29 0 -46 15.5t-17 44.5zM344 659q0 31 17 46t46 15q28 0 46 -15t18 -46q0 -29 -18 -44.5t-46 -15.5q-29 0 -46 15.5t-17 44.5zM49 177q-9 77 7 137q13 52 47.5 87.5
t86.5 48.5q23 6 48 6h2h2h6q22 0 42 -5q55 -12 91.5 -50t49.5 -94q15 -62 5 -136q-9 -65 -46 -110t-99 -58q-21 -5 -43 -5h-6h-2h-2q-25 -1 -48 6q-42 10 -72.5 35.5t-47 60t-21.5 77.5zM154 384q-39 -55 -41 -157q2 -103 41 -157q16 -22 36.5 -35t45.5 -15h8h4q50 4 83 50
q39 54 41 157q-2 102 -41 157q-33 45 -83 49h-4h-7q-50 -4 -83 -49z" />
    <glyph glyph-name="uni022C" unicode="&#x22c;" horiz-adv-x="795" 
d="M467 771q-21 0 -40 6.5t-35.5 14.5t-31.5 15t-29 7q-21 0 -30 -10t-15 -33h-61q4 52 31.5 83.5t72.5 31.5q23 0 42.5 -6.5t36 -15t31.5 -15t29 -6.5q20 0 29 11t14 32h61q-5 -56 -32.5 -85.5t-72.5 -29.5zM233 1020h331v-93h-331v93zM51 286q-3 25 -3 60q0 32 2 58
q4 63 26 120q32 80 92 127t143 48h18q102 -1 170 -71q41 -42 64.5 -101.5t27.5 -122.5q2 -26 2 -58q0 -35 -3 -60q-7 -76 -37 -139t-88.5 -104.5t-135.5 -42.5h-18q-76 1 -134.5 42.5t-89 104.5t-36.5 139zM192 99q55 -71 128 -73q74 2 128 73q68 88 72 251q-4 162 -71 250
q-54 71 -128 74h-1h-1q-73 -3 -127 -74q-67 -88 -71 -250q4 -163 71 -251z" />
    <glyph glyph-name="uni022D" unicode="&#x22d;" horiz-adv-x="619" 
d="M378 606q-21 0 -40 6.5t-35.5 14.5t-31.5 15t-29 7q-21 0 -30 -10t-15 -33h-61q4 52 31.5 83.5t72.5 31.5q23 0 42.5 -6.5t36 -15t31.5 -15t29 -6.5q20 0 29 11t14 32h61q-5 -56 -32.5 -85.5t-72.5 -29.5zM144 855h331v-93h-331v93zM49 177q-9 77 7 137q13 52 47.5 87.5
t86.5 48.5q23 6 48 6h2h2h6q22 0 42 -5q55 -12 91.5 -50t49.5 -94q15 -62 5 -136q-9 -65 -46 -110t-99 -58q-21 -5 -43 -5h-6h-2h-2q-25 -1 -48 6q-42 10 -72.5 35.5t-47 60t-21.5 77.5zM154 384q-39 -55 -41 -157q2 -103 41 -157q16 -22 36.5 -35t45.5 -15h8h4q50 4 83 50
q39 54 41 157q-2 102 -41 157q-33 45 -83 49h-4h-7q-50 -4 -83 -49z" />
    <glyph glyph-name="uni022E" unicode="&#x22e;" horiz-adv-x="795" 
d="M317 852q0 73 81 73t81 -73q0 -35 -20.5 -54t-60.5 -19q-81 0 -81 73zM51 286q-3 25 -3 60q0 32 2 58q4 63 26 120q32 80 92 127t143 48h18q102 -1 170 -71q41 -42 64.5 -101.5t27.5 -122.5q2 -26 2 -58q0 -35 -3 -60q-7 -76 -37 -139t-88.5 -104.5t-135.5 -42.5h-18
q-76 1 -134.5 42.5t-89 104.5t-36.5 139zM192 99q55 -71 128 -73q74 2 128 73q68 88 72 251q-4 162 -71 250q-54 71 -128 74h-1h-1q-73 -3 -127 -74q-67 -88 -71 -250q4 -163 71 -251z" />
    <glyph glyph-name="uni022F" unicode="&#x22f;" horiz-adv-x="619" 
d="M228 687q0 73 81 73t81 -73q0 -35 -20.5 -54t-60.5 -19q-81 0 -81 73zM49 177q-9 77 7 137q13 52 47.5 87.5t86.5 48.5q23 6 48 6h2h2h6q22 0 42 -5q55 -12 91.5 -50t49.5 -94q15 -62 5 -136q-9 -65 -46 -110t-99 -58q-21 -5 -43 -5h-6h-2h-2q-25 -1 -48 6
q-42 10 -72.5 35.5t-47 60t-21.5 77.5zM154 384q-39 -55 -41 -157q2 -103 41 -157q16 -22 36.5 -35t45.5 -15h8h4q50 4 83 50q39 54 41 157q-2 102 -41 157q-33 45 -83 49h-4h-7q-50 -4 -83 -49z" />
    <glyph glyph-name="uni0230" unicode="&#x230;" horiz-adv-x="795" 
d="M233 1020h331v-93h-331v93zM335 824q0 31 17 46t46 15q28 0 46 -15t18 -46q0 -29 -18 -44.5t-46 -15.5q-29 0 -46 15.5t-17 44.5zM51 286q-3 25 -3 60q0 32 2 58q4 63 26 120q32 80 92 127t143 48h18q102 -1 170 -71q41 -42 64.5 -101.5t27.5 -122.5q2 -26 2 -58
q0 -35 -3 -60q-7 -76 -37 -139t-88.5 -104.5t-135.5 -42.5h-18q-76 1 -134.5 42.5t-89 104.5t-36.5 139zM192 99q55 -71 128 -73q74 2 128 73q68 88 72 251q-4 162 -71 250q-54 71 -128 74h-1h-1q-73 -3 -127 -74q-67 -88 -71 -250q4 -163 71 -251z" />
    <glyph glyph-name="uni0231" unicode="&#x231;" horiz-adv-x="619" 
d="M144 855h331v-93h-331v93zM246 659q0 31 17 46t46 15q28 0 46 -15t18 -46q0 -29 -18 -44.5t-46 -15.5q-29 0 -46 15.5t-17 44.5zM49 177q-9 77 7 137q13 52 47.5 87.5t86.5 48.5q23 6 48 6h2h2h6q22 0 42 -5q55 -12 91.5 -50t49.5 -94q15 -62 5 -136q-9 -65 -46 -110
t-99 -58q-21 -5 -43 -5h-6h-2h-2q-25 -1 -48 6q-42 10 -72.5 35.5t-47 60t-21.5 77.5zM154 384q-39 -55 -41 -157q2 -103 41 -157q16 -22 36.5 -35t45.5 -15h8h4q50 4 83 50q39 54 41 157q-2 102 -41 157q-33 45 -83 49h-4h-7q-50 -4 -83 -49z" />
    <glyph glyph-name="uni0232" unicode="&#x232;" horiz-adv-x="624" 
d="M147 874h331v-103h-331v103zM229 -2v298l-221 404h76l2 -5q33 -59 94.5 -172.5t91.5 -166.5l10 -19l199 363h34l-220 -401v-301h-66z" />
    <glyph glyph-name="uni0233" unicode="&#x233;" horiz-adv-x="568" 
d="M119 709h331v-103h-331v103zM91 456l144 -363l145 363h32l-207 -527q-50 -120 -120 -125q-30 -3 -61 17q-20 12 -33.5 31t-13.5 41q1 14 8.5 23.5t20.5 11.5q16 1 27 -10q13 -12 11 -31q-1 -21 6.5 -37.5t26.5 -18.5q5 0 11 1q26 4 48 34.5t36 64.5l28 71l-16 40
q0 2 -1 3l-2 6l-22 55l-139 350h71z" />
    <glyph glyph-name="uni0234" unicode="&#x234;" horiz-adv-x="435" 
d="M78 760h149v-533q14 9 34.5 15t41.5 6q63 0 97.5 -32.5t34.5 -95.5q0 -62 -42.5 -96t-117.5 -34q-92 0 -133 33q-11 -17 -34 -60l-70 36q31 59 52 89q-8 17 -10 45t-2 60v567zM289 79q22 0 34 11t12 29q0 40 -47 40q-33 0 -61 -24q6 -56 62 -56z" />
    <glyph glyph-name="uni0235" unicode="&#x235;" horiz-adv-x="770" 
d="M413 319q0 59 -19 88.5t-60 29.5q-57 0 -82 -41.5t-25 -138.5v-257h-149v546h114l20 -70h8q22 38 63.5 59t95.5 21q90 0 136.5 -51t46.5 -149v-129q14 9 34.5 15t41.5 6q63 0 97.5 -32.5t34.5 -95.5q0 -62 -42.5 -96t-117.5 -34q-92 0 -133 33q-11 -17 -34 -60l-70 36
q31 59 52 89q-8 17 -10 45t-2 60v126zM624 79q22 0 34 11t12 29q0 40 -47 40q-33 0 -61 -24q6 -56 62 -56z" />
    <glyph glyph-name="uni0236" unicode="&#x236;" horiz-adv-x="451" 
d="M94 434h-71v63l82 50l43 115h95v-116h153v-112h-153v-207q14 9 34.5 15t41.5 6q63 0 97.5 -32.5t34.5 -95.5q0 -62 -42.5 -96t-117.5 -34q-92 0 -133 33q-11 -17 -34 -60l-70 36q31 59 52 89q-8 17 -10 45t-2 60v241zM305 79q22 0 34 11t12 29q0 40 -47 40q-33 0 -61 -24
q6 -56 62 -56z" />
    <glyph glyph-name="uni0237" unicode="&#x237;" horiz-adv-x="305" 
d="M34 -240q-57 0 -98 12v117q34 -9 70 -9q38 0 55 21t17 62v583h149v-605q0 -87 -50.5 -134t-142.5 -47z" />
    <glyph glyph-name="uni0238" unicode="&#x238;" horiz-adv-x="960" 
d="M45 273q0 132 54.5 207.5t151.5 75.5q103 0 155 -81h6q-6 61 -6 108v177h149v-177q0 -27 -6 -108h6q52 81 155 81q97 0 151.5 -75t54.5 -208t-67.5 -208t-186.5 -75q-125 0 -183 92q-59 -92 -185 -92q-117 0 -183 74t-66 209zM299 437q-47 0 -74.5 -41t-27.5 -123
q0 -83 26 -123t79 -40q55 0 79.5 37.5t24.5 117.5v26q0 78 -26.5 112t-80.5 34zM662 437q-54 0 -80.5 -34t-26.5 -112v-26q0 -82 25 -118.5t79 -36.5q53 0 79 39.5t26 123.5q0 83 -27.5 123.5t-74.5 40.5z" />
    <glyph glyph-name="uni0239" unicode="&#x239;" horiz-adv-x="960" 
d="M916 273q0 -133 -55 -208t-151 -75q-104 0 -155 81h-6q6 -83 6 -108v-203h-149v203q0 46 6 108h-6q-51 -81 -155 -81q-96 0 -151 75t-55 208t67.5 208t186.5 75q125 0 183 -92q62 92 190 92q116 0 180 -73.5t64 -209.5zM662 109q47 0 74.5 40.5t27.5 123.5t-25.5 123
t-79.5 40t-79 -36.5t-25 -118.5v-26q0 -77 26.5 -111.5t80.5 -34.5zM299 109q54 0 80.5 34.5t26.5 111.5v26q0 80 -25 117.5t-79 37.5t-79.5 -40t-25.5 -123t27.5 -123.5t74.5 -40.5z" />
    <glyph glyph-name="uni023A" unicode="&#x23a;" horiz-adv-x="689" 
d="M543 760l-60 -173l207 -587h-163l-52 170h-137l-85 -245h-97l85 245h-26l-52 -170h-163l252 717h179l15 43h97zM285 297l81 233q-10 33 -21 76q-16 -62 -92 -309h32zM412 383l-30 -86h57z" />
    <glyph glyph-name="uni023B" unicode="&#x23b;" horiz-adv-x="637" 
d="M570 760l-22 -64q22 -7 54 -22l-49 -123q-42 19 -49 21l-157 -452q17 -4 46 -4q75 0 182 38v-127q-88 -37 -196 -37q-41 0 -75 6l-24 -71h-97l34 99q-78 40 -118.5 124t-40.5 208q0 111 40.5 195t116.5 128.5t178 44.5q32 0 65 -5l15 41h97zM393 598q-85 0 -132 -64
t-47 -179q0 -131 52 -189l150 430q-8 2 -23 2z" />
    <glyph glyph-name="uni023C" unicode="&#x23c;" horiz-adv-x="514" 
d="M300 -10q-26 0 -50 3l-71 -201h-97l81 227q-118 60 -118 251q0 139 69.5 212.5t198.5 73.5q21 0 41 -2l74 206h96l-80 -225q25 -9 39 -16l-44 -115l-37 14l-109 -306l10 -1h10q43 0 79.5 11.5t73.5 35.5v-127q-36 -23 -73 -32t-93 -9zM197 271q0 -71 17 -109l98 274
q-59 -1 -87 -42t-28 -123z" />
    <glyph glyph-name="uni023D" unicode="&#x23d;" horiz-adv-x="564" 
d="M23 415h67v299h151v-299h116v-124h-116v-166h290v-125h-441v291h-67v124z" />
    <glyph glyph-name="uni023E" unicode="&#x23e;" horiz-adv-x="579" 
d="M66 -75l148 282v381h-194v126h460l24 46h80l-25 -48v-124h-65l-129 -246v-342h-151v54l-68 -129h-80zM365 495l49 93h-49v-93z" />
    <glyph glyph-name="uni023F" unicode="&#x23f;" horiz-adv-x="497" 
d="M459 162q0 -78 -50.5 -121.5t-150.5 -49.5q14 -19 23 -40q18 -40 38 -55.5t55 -15.5q34 0 61 9v-116q-16 -6 -42 -9.5t-49 -3.5q-48 0 -80.5 14t-56 42.5t-51.5 95.5q-19 47 -36.5 67t-48.5 33l-25 12v121q42 -20 93.5 -33t91.5 -13q81 0 81 47q0 18 -10.5 29t-37 24.5
t-70.5 32.5q-63 26 -92.5 48.5t-43 51.5t-13.5 72q0 73 56.5 112.5t159.5 39.5q99 0 192 -43l-45 -107q-41 18 -76.5 29t-72.5 11q-66 0 -66 -36q0 -20 21 -34.5t93 -43.5q64 -26 94 -48.5t44 -51.5t14 -70z" />
    <glyph glyph-name="uni0240" unicode="&#x240;" horiz-adv-x="487" 
d="M27 0v88l253 344h-238v114h407v-97l-257 -348q42 -10 73.5 -38.5t55.5 -84.5q23 -55 45 -76.5t57 -21.5q36 0 65 9v-116q-17 -6 -44 -9.5t-51 -3.5q-75 0 -121.5 33.5t-75.5 118.5q-18 50 -42.5 69t-68.5 19h-58z" />
    <glyph glyph-name="uni0241" unicode="&#x241;" horiz-adv-x="479" 
d="M455 516q0 -83 -44 -144t-138 -109v-263h-149v326q88 30 134.5 76.5t46.5 107.5q0 42 -28 68.5t-71 26.5q-69 0 -150 -48l-53 107q109 61 217 61q105 0 170 -57.5t65 -151.5z" />
    <glyph glyph-name="uni0242" unicode="&#x242;" horiz-adv-x="488" 
d="M453 347q0 -84 -44.5 -145t-136.5 -107v-95h-149v158q87 30 133.5 76t46.5 107q0 42 -28 68.5t-71 26.5q-67 0 -148 -48l-53 107q49 27 102 44t115 17q104 0 168.5 -57t64.5 -152z" />
    <glyph glyph-name="uni0243" unicode="&#x243;" horiz-adv-x="671" 
d="M90 170h-80v97h80v447h222q152 0 220.5 -43.5t68.5 -137.5q0 -64 -30 -105t-80 -49v-5q68 -15 98 -56.5t30 -110.5q0 -98 -70.5 -152.5t-191.5 -54.5h-267v170zM241 431h88q62 0 89.5 19t27.5 63q0 41 -30 59t-95 18h-80v-159zM241 311v-44h114v-97h-114v-45h99
q62 0 92 24t30 73q0 89 -127 89h-94z" />
    <glyph glyph-name="uni0244" unicode="&#x244;" horiz-adv-x="755" 
d="M671 714v-259h85v-124h-85v-79q0 -79 -35.5 -138.5t-102.5 -91.5t-158 -32q-138 0 -214 70.5t-76 193.5v77h-85v124h85v259h151v-259h284v259h151zM379 117q74 0 107.5 39t33.5 122v53h-284v-54q0 -83 33 -121.5t110 -38.5z" />
    <glyph glyph-name="uni0245" unicode="&#x245;" horiz-adv-x="649" 
d="M325 587q-6 -30 -18.5 -84.5t-18.5 -74.5l-135 -428h-153l242 714h165l243 -714h-153l-133 429q-5 14 -20 73t-19 85z" />
    <glyph glyph-name="uni0246" unicode="&#x246;" horiz-adv-x="560" 
d="M501 0h-212l-19 -75h-96l19 75h-103v714h285l12 46h96l-12 -46h30v-124h-62l-40 -157h84v-124h-115l-47 -184h180v-125zM241 433h63l40 157h-103v-157zM241 188l31 121h-31v-121z" />
    <glyph glyph-name="uni0247" unicode="&#x247;" horiz-adv-x="590" 
d="M325 -10q-44 0 -76 7l-71 -205h-97l82 237q-55 32 -86.5 91.5t-31.5 148.5q0 137 68.5 212t189.5 75q21 0 42 -3l71 207h97l-81 -232q56 -28 86 -84t30 -136v-72h-217l-45 -131q17 -4 46 -4q49 0 93 10.5t92 32.5v-115q-39 -20 -83.5 -29.5t-108.5 -9.5zM304 450
q-47 0 -74 -30t-31 -85h70l40 115h-5zM408 335q-2 55 -15 78l-27 -78h42zM196 236q0 -44 13 -74l26 74h-39z" />
    <glyph glyph-name="uni0248" unicode="&#x248;" horiz-adv-x="331" 
d="M15 -210q-51 0 -89 11v126q39 -10 71 -10q50 0 71.5 31t21.5 97v250h-90v124h90v295h151v-295h90v-124h-90v-249q0 -125 -57 -190.5t-169 -65.5z" />
    <glyph glyph-name="uni0249" unicode="&#x249;" horiz-adv-x="305" 
d="M34 -240q-57 0 -98 12v117q34 -9 70 -9q38 0 55 21t17 62v267h-78v97h78v219h149v-219h78v-97h-78v-289q0 -87 -50.5 -134t-142.5 -47zM72 687q0 73 81 73t81 -73q0 -35 -20.5 -54t-60.5 -19q-81 0 -81 73z" />
    <glyph glyph-name="uni024A" unicode="&#x24a;" horiz-adv-x="774" 
d="M330 -10q-82 0 -143.5 44.5t-95 127.5t-33.5 195q0 113 33.5 196t96 127.5t144.5 44.5q128 0 197 -87h4l15 76h137v-775q0 -31 14.5 -45.5t38.5 -14.5q30 0 55 10v-114q-12 -5 -35 -10t-49 -5q-175 0 -175 176v91l1 59h-7q-37 -50 -85 -73t-113 -23zM376 117
q81 0 119.5 59.5t38.5 179.5v31q0 108 -40 159.5t-121 51.5q-73 0 -114.5 -64t-41.5 -179t41.5 -176.5t117.5 -61.5z" />
    <glyph glyph-name="uni024B" unicode="&#x24b;" horiz-adv-x="632" 
d="M251 -10q-97 0 -151.5 74.5t-54.5 207.5q0 134 56 209t153 75q52 0 90.5 -19.5t67.5 -60.5h4l13 70h126v-607q0 -28 14 -44t39 -16t55 10v-114q-30 -15 -91 -15q-166 0 -166 176v37q0 44 6 98h-6q-24 -40 -63.5 -60.5t-91.5 -20.5zM304 107q57 0 83.5 32.5t28.5 113.5v18
q0 88 -27 126t-87 38q-105 0 -105 -165q0 -82 26 -122.5t81 -40.5z" />
    <glyph glyph-name="uni024C" unicode="&#x24c;" horiz-adv-x="660" 
d="M241 274v-274h-151v274h-80v123h80v317h208q146 0 215.5 -53t69.5 -161q0 -63 -34.5 -112t-98.5 -77l210 -311h-168l-170 274h-81zM241 397h49q72 0 106 24t34 75t-35 72.5t-108 21.5h-46v-193z" />
    <glyph glyph-name="uni024D" unicode="&#x24d;" horiz-adv-x="454" 
d="M383 556q30 0 50 -4l-11 -140q-18 5 -44 5q-59 0 -97 -25.5t-50 -72.5h104v-97h-108v-222h-149v222h-78v97h78v227h113l22 -92h7q25 46 68.5 74t94.5 28z" />
    <glyph glyph-name="uni024E" unicode="&#x24e;" horiz-adv-x="624" 
d="M212 619h201l48 95h163l-52 -95h52v-97h-105l-132 -244v-278h-150v273l-134 249h-103v97h51l-51 95h164zM312 420l52 102h-104z" />
    <glyph glyph-name="uni024F" unicode="&#x24f;" horiz-adv-x="568" 
d="M10 385h54l-64 161h163l54 -161h139l53 161h160l-61 -161h51v-97h-87l-134 -358q-32 -85 -91 -127.5t-137 -42.5q-39 0 -76 8v118q27 -6 59 -6q40 0 69 24t46 73l9 27l-114 284h-93v97zM287 144q5 50 21 95l16 49h-75l17 -49q13 -40 18 -95h3z" />
    <glyph glyph-name="uni2000" unicode="&#x2000;" horiz-adv-x="500" 
 />
    <glyph glyph-name="uni2001" unicode="&#x2001;" horiz-adv-x="1000" 
 />
    <glyph glyph-name="uni2002" unicode="&#x2002;" horiz-adv-x="500" 
 />
    <glyph glyph-name="uni2003" unicode="&#x2003;" horiz-adv-x="1000" 
 />
    <glyph glyph-name="uni2004" unicode="&#x2004;" horiz-adv-x="333" 
 />
    <glyph glyph-name="uni2005" unicode="&#x2005;" horiz-adv-x="250" 
 />
    <glyph glyph-name="uni2006" unicode="&#x2006;" horiz-adv-x="166" 
 />
    <glyph glyph-name="uni2007" unicode="&#x2007;" horiz-adv-x="559" 
 />
    <glyph glyph-name="uni2008" unicode="&#x2008;" horiz-adv-x="285" 
 />
    <glyph glyph-name="uni2009" unicode="&#x2009;" horiz-adv-x="200" 
 />
    <glyph glyph-name="uni200A" unicode="&#x200a;" horiz-adv-x="100" 
 />
    <glyph glyph-name="uni200B" unicode="&#x200b;" horiz-adv-x="0" 
 />
    <glyph glyph-name="uni200C" unicode="&#x200c;" horiz-adv-x="0" 
d="M-26 -166v954h52v-954h-52z" />
    <glyph glyph-name="uni200D" unicode="&#x200d;" horiz-adv-x="0" 
d="M36 646l110 -107l-37 -36l-83 82v-750h-52v750l-83 -82l-37 36l110 107l-110 106l37 36l109 -108l109 108l37 -37z" />
    <glyph glyph-name="uni200E" unicode="&#x200e;" horiz-adv-x="0" 
d="M212 583l-108 -107l-27 26l64 61h-121v-696h-40v735h161l-64 61l27 27z" />
    <glyph glyph-name="uni200F" unicode="&#x200f;" horiz-adv-x="0" 
d="M20 -133h-41v696h-121l65 -61l-27 -26l-109 107l109 107l27 -27l-65 -61h162v-735z" />
    <glyph glyph-name="figuredash" unicode="&#x2012;" horiz-adv-x="571" 
d="M40 404h492v-112h-492v112z" />
    <glyph glyph-name="endash" unicode="&#x2013;" horiz-adv-x="371" 
d="M349 267h-327v62h327v-62z" />
    <glyph glyph-name="emdash" unicode="&#x2014;" horiz-adv-x="530" 
d="M507 267h-485v62h485v-62z" />
    <glyph glyph-name="uni2015" unicode="&#x2015;" horiz-adv-x="1000" 
d="M40 213v112h920v-112h-920z" />
    <glyph glyph-name="uni2016" unicode="&#x2016;" horiz-adv-x="550" 
d="M352 757h107v-984h-107v984zM93 757h107v-984h-107v984z" />
    <glyph glyph-name="underscoredbl" unicode="&#x2017;" horiz-adv-x="411" 
d="M413 -226h-415v68h415v-68zM413 -90h-415v68h415v-68z" />
    <glyph glyph-name="quoteleft" unicode="&#x2018;" horiz-adv-x="124" 
d="M76 697q7 6 15 0.5t4 -15.5l-12 -34q14 -13 10 -31q-3 -14 -15 -21.5t-25 -4.5t-20.5 15t-4.5 25q1 5 5 11.5t10 15t11 14t12 14t9 10.5v1h1z" />
    <glyph glyph-name="quoteright" unicode="&#x2019;" horiz-adv-x="124" 
d="M48 593q-7 -6 -15 0t-4 15l12 34q-14 13 -10 32q3 13 15 20.5t25 4.5q9 -2 15.5 -8t9 -14.5t0.5 -17.5q-1 -4 -5 -11t-10 -15t-11 -14t-12 -14.5t-9 -9.5v-1z" />
    <glyph glyph-name="quotesinglbase" unicode="&#x201a;" horiz-adv-x="285" 
d="M224 105q-25 -99 -86 -234h-107q32 130 49 245h137z" />
    <glyph glyph-name="quotereversed" unicode="&#x201b;" horiz-adv-x="216" 
d="M156 714q18 -120 49 -245h-107q-29 62 -52.5 127.5t-33.5 106.5l7 11h137z" />
    <glyph glyph-name="quotedblleft" unicode="&#x201c;" horiz-adv-x="229" 
d="M95 682l-12 -34q14 -13 10 -31q-3 -14 -15 -21.5t-25 -4.5t-20.5 15t-4.5 25q1 5 5 11.5t10 15t11 14t12 14t9 10.5v1h1q7 6 15 0.5t4 -15.5zM180 697q8 6 15.5 0.5t3.5 -15.5l-12 -34q14 -13 10 -31q-3 -14 -14.5 -21.5t-25.5 -4.5q-8 2 -14.5 8.5t-9.5 14.5t-1 17
q1 5 5 11.5t10 15t11 14t12.5 14t8.5 10.5z" />
    <glyph glyph-name="quotedblright" unicode="&#x201d;" horiz-adv-x="229" 
d="M133 608l13 34q-15 13 -10 32q3 13 14.5 20.5t25 4.5t20.5 -14.5t4 -25.5q-1 -4 -4.5 -11t-10 -15t-11.5 -14t-12 -14.5t-9 -9.5v-1l-1 -1q-7 -6 -14.5 0t-4.5 15zM48 593q-7 -6 -15 0t-4 15l12 34q-14 13 -10 32q3 13 15 20.5t25 4.5t20.5 -14.5t4.5 -25.5q-1 -4 -5 -11
t-10 -15t-11 -14t-12 -14.5t-9 -9.5v-1z" />
    <glyph glyph-name="quotedblbase" unicode="&#x201e;" horiz-adv-x="206" 
d="M115 -23l12 34q-14 13 -9 31q3 14 14.5 21.5t25 4.5t20.5 -15t4 -25q-1 -5 -4.5 -11.5t-10 -14.5t-11.5 -14t-12 -14.5t-9 -10.5v-1h-1q-7 -6 -14.5 -0.5t-4.5 15.5zM40 -38q-7 -6 -15 -0.5t-4 15.5l12 34q-14 13 -10 31q3 14 15 21.5t25 4.5t20.5 -15t4.5 -25
q-1 -5 -5 -11.5t-10 -14.5t-11 -14t-12 -14.5t-9 -10.5v-1h-1z" />
    <glyph glyph-name="uni201F" unicode="&#x201f;" horiz-adv-x="444" 
d="M247 714h137q18 -120 49 -245h-107q-29 62 -52.5 127.5t-33.5 106.5zM19 714h137q18 -120 49 -245h-107q-29 62 -52.5 127.5t-33.5 106.5z" />
    <glyph glyph-name="dagger" unicode="&#x2020;" horiz-adv-x="516" 
d="M456 453l-162 15l27 -468h-136l27 468l-152 -15v118l152 -15l-27 204h136l-27 -204l162 15v-118z" />
    <glyph glyph-name="daggerdbl" unicode="&#x2021;" horiz-adv-x="516" 
d="M299 272l162 15v-118l-162 15l27 -184h-136l27 184l-162 -15v118l162 -15l-23 112l23 104l-162 -15v118l162 -15l-27 184h136l-27 -184l162 15v-118l-162 15l23 -104z" />
    <glyph glyph-name="bullet" unicode="&#x2022;" horiz-adv-x="217" 
d="M32 277.5q0 31.5 22.5 54t54 22.5t54 -22.5t22.5 -54t-22.5 -54t-54 -22.5t-54 22.5t-22.5 54z" />
    <glyph glyph-name="ellipsis" unicode="&#x2026;" 
d="M136 68q14 0 24 -9.5t10 -23.5t-10 -24t-24 -10t-24 10t-10 24t10 23.5t24 9.5zM218 68q9 0 17 -4.5t12.5 -12t4.5 -16.5q0 -14 -10 -24t-24 -10t-24 10t-10 24t10 23.5t24 9.5zM22 35q0 14 10 23.5t24 9.5t24 -9.5t10 -23.5t-10 -24t-24 -10t-24 10t-10 24z" />
    <glyph glyph-name="uni202A" unicode="&#x202a;" horiz-adv-x="0" 
d="M21 563v-696h-41v735h232v-39h-191z" />
    <glyph glyph-name="uni202B" unicode="&#x202b;" horiz-adv-x="0" 
d="M-212 563v39h232v-735h-41v696h-191z" />
    <glyph glyph-name="uni202C" unicode="&#x202c;" horiz-adv-x="0" 
d="M116 477h-95v-610h-42v610h-95v212h232v-212z" />
    <glyph glyph-name="uni202D" unicode="&#x202d;" horiz-adv-x="0" 
d="M116 477h-95v-610h-42v610h-95v212h232v-39h-193v-135h193v-38z" />
    <glyph glyph-name="uni202E" unicode="&#x202e;" horiz-adv-x="0" 
d="M-116 515h193v135h-193v39h232v-212h-95v-610h-42v610h-95v38z" />
    <glyph glyph-name="uni202F" unicode="&#x202f;" horiz-adv-x="200" 
 />
    <glyph glyph-name="perthousand" unicode="&#x2030;" horiz-adv-x="865" 
d="M822 171v-3v-2v-3q0 -12 -1 -20q-6 -43 -36 -73q-36 -35 -91 -35h-9q-55 0 -90 35q-30 30 -36 73q-1 9 -1 20v3v2v3v16q5 44 35 75q36 37 92 37h9q57 0 92 -37q30 -31 35 -75q1 -8 1 -16zM690 61q30 1 51 22.5t25.5 52.5t0 62t-25 52.5t-51.5 22.5h-1q-30 -1 -50.5 -22.5
t-25.5 -52.5t0 -62t25.5 -52.5t51.5 -22.5zM513 647l-401 -617l-32 21l402 616zM546 187q0 -7 1 -16v-3v-2v-3q-1 -12 -2 -20q-5 -43 -36 -73q-35 -35 -90 -35h-9q-55 0 -91 35q-30 30 -35 73q-2 9 -2 20v3v2v3q0 9 1 16q5 44 35 75q36 37 92 37h9q56 0 92 -37
q30 -31 35 -75zM414 61q31 1 51.5 22.5t25.5 52.5t0 62t-25.5 52.5t-50.5 22.5h-1q-30 -1 -51 -22.5t-25.5 -52.5t0.5 -62t25.5 -52.5t50.5 -22.5zM178 387q-56 0 -91 35q-30 30 -36 73q-1 9 -1 20v3v3v3q0 8 1 15q4 44 35 76q35 36 92 36h9q56 0 92 -36q30 -32 34 -76
q1 -7 1 -15v-3v-3v-2v-1q0 -11 -1 -20q-6 -43 -36 -73q-35 -35 -90 -35h-9zM182 625q-31 -1 -51.5 -22.5t-25 -52.5t0 -61.5t25.5 -52.5t51 -23q30 1 51 23t26 52.5t0 61.5t-25.5 52.5t-50.5 22.5h-1z" />
    <glyph glyph-name="minute" unicode="&#x2032;" horiz-adv-x="266" 
d="M201 714l-20 -258h-96l-20 258h136z" />
    <glyph glyph-name="second" unicode="&#x2033;" horiz-adv-x="472" 
d="M201 714l-20 -258h-96l-20 258h136zM407 714l-20 -258h-96l-20 258h136z" />
    <glyph glyph-name="uni2034" unicode="&#x2034;" horiz-adv-x="678" 
d="M613 714l-20 -258h-96l-20 258h136zM201 714l-20 -258h-96l-20 258h136zM407 714l-20 -258h-96l-20 258h136z" />
    <glyph glyph-name="guilsinglleft" unicode="&#x2039;" horiz-adv-x="368" 
d="M40 280l181 222l107 -58l-136 -170l136 -170l-107 -58l-181 221v13z" />
    <glyph glyph-name="guilsinglright" unicode="&#x203a;" horiz-adv-x="368" 
d="M328 267l-181 -221l-107 58l136 170l-136 170l107 58l181 -222v-13z" />
    <glyph glyph-name="exclamdbl" unicode="&#x203c;" horiz-adv-x="569" 
d="M203 237h-119l-25 477h169zM57 70q0 41 22 62t64 21q41 0 63 -21.5t22 -61.5q0 -39 -22.5 -61t-62.5 -22q-41 0 -63.5 21.5t-22.5 61.5zM488 237h-119l-25 477h169zM342 70q0 41 22 62t64 21q41 0 63 -21.5t22 -61.5q0 -39 -22.5 -61t-62.5 -22q-41 0 -63.5 21.5
t-22.5 61.5z" />
    <glyph glyph-name="uni203E" unicode="&#x203e;" horiz-adv-x="500" 
d="M503 760h-506v98h506v-98z" />
    <glyph glyph-name="fraction" unicode="&#x2044;" horiz-adv-x="129" 
d="M321 714l-396 -714h-117l396 714h117z" />
    <glyph glyph-name="uni205E" unicode="&#x205e;" horiz-adv-x="285" 
d="M57 54q0 78 85 78q39 0 62.5 -18.5t23.5 -59.5q0 -40 -23.5 -59t-62.5 -19q-40 0 -62.5 19t-22.5 59zM57 255q0 78 85 78q42 0 64 -20t22 -58q0 -39 -23.5 -58.5t-62.5 -19.5q-40 0 -62.5 19.5t-22.5 58.5zM57 456q0 78 85 78q39 0 62.5 -18.5t23.5 -59.5
q0 -40 -23.5 -59t-62.5 -19q-40 0 -62.5 19t-22.5 59zM57 657q0 78 85 78q39 0 62.5 -18.5t23.5 -59.5q0 -40 -23.5 -59t-62.5 -19q-40 0 -62.5 19t-22.5 59z" />
    <glyph glyph-name="uni206A" unicode="&#x206a;" horiz-adv-x="0" 
d="M-116 515h95v135h-95v39h232v-39h-95v-135h95v-38h-95v-610h-42v610h-95v38z" />
    <glyph glyph-name="uni206B" unicode="&#x206b;" horiz-adv-x="0" 
d="M-77 515h154v135h-154v-135zM-116 477v212h232v-212h-95v-610h-42v610h-95z" />
    <glyph glyph-name="uni206C" unicode="&#x206c;" horiz-adv-x="0" 
d="M21 -133h-42v643l-96 179h234l-96 -179v-643z" />
    <glyph glyph-name="uni206D" unicode="&#x206d;" horiz-adv-x="0" 
d="M21 477v-610h-42v610h-96l117 215l117 -215h-96z" />
    <glyph glyph-name="uni206E" unicode="&#x206e;" horiz-adv-x="0" 
d="M21 -133h-42v627l-96 89l117 107l117 -107l-96 -89v-627zM62 583l-62 55l-62 -55l62 -55z" />
    </font>
</defs>
</svg>
