<?xml version="1.0" standalone="no"?>
<!DOCTYPE svg PUBLIC "-//W3C//DTD SVG 1.1//EN" "http://www.w3.org/Graphics/SVG/1.1/DTD/svg11.dtd" >
<svg xmlns="http://www.w3.org/2000/svg" xmlns:xlink="http://www.w3.org/1999/xlink" version="1.1">
<metadata>
Created by FontForge 20190801 at Wed Jan 24 10:27:51 2024
 By root
(c)2019, Hans Co
</metadata>
<defs>
<font id="NesansSignature" horiz-adv-x="237" >
  <font-face 
    font-family="Nesans Signature"
    font-weight="400"
    font-stretch="normal"
    units-per-em="1000"
    panose-1="0 0 0 0 0 0 0 0 0 0"
    ascent="800"
    descent="-200"
    x-height="182"
    cap-height="652"
    bbox="-213 -442.471 1372.44 1046"
    underline-thickness="0"
    underline-position="0"
    unicode-range="U+0001-206F"
  />
<missing-glyph horiz-adv-x="364" 
d="M33 0v666h265v-666h-265zM66 33h199v600h-199v-600z" />
    <glyph glyph-name=".notdef" horiz-adv-x="364" 
d="M33 0v666h265v-666h-265zM66 33h199v600h-199v-600z" />
    <glyph glyph-name=".null" 
 />
    <glyph glyph-name=".null" 
 />
    <glyph glyph-name="nonmarkingreturn" horiz-adv-x="333" 
 />
    <glyph glyph-name="uni0001" 
 />
    <glyph glyph-name="uni0002" 
 />
    <glyph glyph-name="uni0003" 
 />
    <glyph glyph-name="uni0004" 
 />
    <glyph glyph-name="uni0005" 
 />
    <glyph glyph-name="uni0006" 
 />
    <glyph glyph-name="uni0007" 
 />
    <glyph glyph-name="uni0008" 
 />
    <glyph glyph-name="uni0009" unicode="&#x9;" 
 />
    <glyph glyph-name="controlLF" unicode="&#xa;" 
 />
    <glyph glyph-name="uni000B" 
 />
    <glyph glyph-name="uni000C" 
 />
    <glyph glyph-name="controlCR" unicode="&#xd;" 
 />
    <glyph glyph-name="uni000E" 
 />
    <glyph glyph-name="uni000F" 
 />
    <glyph glyph-name="uni0010" 
 />
    <glyph glyph-name="uni0011" 
 />
    <glyph glyph-name="uni0012" 
 />
    <glyph glyph-name="uni0013" 
 />
    <glyph glyph-name="uni0014" 
 />
    <glyph glyph-name="uni0015" 
 />
    <glyph glyph-name="uni0016" 
 />
    <glyph glyph-name="uni0017" 
 />
    <glyph glyph-name="uni0018" 
 />
    <glyph glyph-name="uni0019" 
 />
    <glyph glyph-name="uni001A" 
 />
    <glyph glyph-name="uni001B" 
 />
    <glyph glyph-name="uni001C" 
 />
    <glyph glyph-name="uni001D" 
 />
    <glyph glyph-name="uni001E" 
 />
    <glyph glyph-name="uni001F" 
 />
    <glyph glyph-name="space" unicode=" " 
 />
    <glyph glyph-name="exclam" unicode="!" horiz-adv-x="383" 
d="M238 202h-59l-25 512h109zM146 54q0 19 5 32t13 21t19.5 11.5t24.5 3.5t24.5 -3.5t19.5 -11.5t13 -21t5 -32q0 -18 -5 -31t-13 -21t-19.5 -12t-24.5 -4t-24.5 4t-19.5 12t-13 21t-5 31z" />
    <glyph glyph-name="quotedbl" unicode="&#x22;" horiz-adv-x="154" 
d="M76 548.5q9 -3.5 6 -12.5l-48 -130q-3 -9 -12 -5.5t-5 12.5l47 130q3 9 12 5.5zM132 548.5q9 -3.5 5 -12.5l-47 -130q-3 -9 -12 -5.5t-6 12.5l48 130q3 9 12 5.5z" />
    <glyph glyph-name="quotedbl" unicode="&#x201d;" horiz-adv-x="154" 
d="M76 548.5q9 -3.5 6 -12.5l-48 -130q-3 -9 -12 -5.5t-5 12.5l47 130q3 9 12 5.5zM132 548.5q9 -3.5 5 -12.5l-47 -130q-3 -9 -12 -5.5t-6 12.5l48 130q3 9 12 5.5z" />
    <glyph glyph-name="quotedbl" unicode="&#x201c;" horiz-adv-x="154" 
d="M76 548.5q9 -3.5 6 -12.5l-48 -130q-3 -9 -12 -5.5t-5 12.5l47 130q3 9 12 5.5zM132 548.5q9 -3.5 5 -12.5l-47 -130q-3 -9 -12 -5.5t-6 12.5l48 130q3 9 12 5.5z" />
    <glyph glyph-name="numbersign" unicode="#" horiz-adv-x="488" 
d="M464 353q3 -1 5.5 -3.5t2.5 -5.5q-1 -7 -10 -6q-73 6 -123 9h-4l-2 -3l-10 -22q-17 -39 -28 -68l-1 -5h6q56 -4 138 -11q4 0 6.5 -2.5t1.5 -5.5q-1 -7 -10 -6q-86 7 -143 10h-5l-1 -3q0 -2 -1 -3q-28 -88 0 -106q3 -2 7 -4q9 -2 6.5 -9t-11.5 -5q-8 2 -14 6
q-21 13 -21 47q0 29 15 74l1 4l-6 1q-55 2 -97 2q-14 0 -27 -1h-4l-1 -3l-6 -18q-28 -88 -1 -106q4 -2 8 -3q9 -3 6 -10t-12 -5q-7 2 -13 6q-21 13 -21 47q0 29 15 75q1 5 3 10l2 6l-7 -1q-61 -6 -71 -24q-2 -4 -2 -7q-1 -8 -10 -7.5t-9 8.5q0 6 4 12q10 19 52 28q19 4 45 6
h4l1 3q10 26 25 62q7 14 14 29l3 6h-8q-82 -5 -93 -26q-2 -3 -2 -7q-1 -8 -10.5 -7.5t-8.5 8.5q0 6 3 12q11 19 52 28q29 6 70 7l4 1l1 2q11 24 27 56q3 7 12 4t5 -10q-12 -26 -22 -46l-3 -6h8q49 0 119 -4h4l1 3q14 29 34 71q3 7 12 4t6 -10q-19 -37 -31 -64l-3 -5l7 -1
q47 -3 116 -8zM313 343l2 6h-7q-68 4 -116 3h-4h-4l-1 -3q-10 -20 -18 -38q-13 -30 -22 -53l-2 -6l7 1h18q45 1 104 -3h4l1 3q12 32 31 74q4 9 7 16z" />
    <glyph glyph-name="dollar" unicode="$" horiz-adv-x="307" 
d="M289 420q6 -6 -1 -11t-13 1q-39 34 -77 43q-34 8 -59 -4q-23 -10 -33 -33q-4 -10 -5 -19q-3 -22 8.5 -51t24 -47t33.5 -45q52 -66 64 -86q29 -48 20 -81q-5 -17 -18 -30q-10 -11 -25 -16q-25 -9 -58 -2l-6 1l-8 -36q-1 -8 -10.5 -6.5t-7.5 8.5l8 39l-3 1q-29 11 -54 29
q-40 29 -53 62q-2 7 7 9.5t11 -5.5q12 -29 48 -55q30 -21 62 -30q34 -10 57 -1q10 3 17 11q11 11 14 24q8 28 -18 71q-12 19 -63 85q-12 16 -19.5 26.5t-19 27t-17 30t-10.5 29.5t-4 31.5t7 29.5q13 29 42 42q15 7 34 9h4l8 38q2 7 11 6t8 -9l-8 -36l5 -1q5 0 11 -2
q43 -10 86 -47z" />
    <glyph glyph-name="percent" unicode="%" horiz-adv-x="289" 
d="M242 105q14 -4 16 -24t-4 -29l-2 -6q-10 -21 -32 -28q-21 -7 -38 2q-26 15 -10 43l6 11l-125 -51q-6 -2 -10.5 1t-2.5 8l186 491l-12 -5q-12 -5 -26.5 -12t-30.5 -14t-27 -12l-4 -2l2 -4q9 -14 8 -30.5t-11 -30.5q-18 -24 -48 -21q-23 2 -37 18q-14 17 -9 39l2 4
q3 9 9 17.5t15.5 15t21.5 7.5q8 1 17 -2q2 -1 4 -3l2 -3l4 2l131 59q5 2 10 -1t3 -8l-186 -492l153 61q6 3 10 -1l3 -1l2 1h1q5 1 9 0zM108 421q10 11 9.5 27.5t-12.5 26.5q-1 0 -2 1l-2 3l-5 -2q-4 -2 -8 0q-4 1 -8 1q-8 -1 -16 -8q-9 -9 -13 -21q-1 -1 -1 -3q-4 -16 6 -28
q9 -10 23 -11q18 -2 29 14zM236 56q4 11 4 21q-1 6 -2 10l-1 3h-3q-2 0 -4 2l-4 2l-3 -3q-23 -16 -33 -33q-11 -18 3 -25q9 -5 20 -2q14 5 21 21z" />
    <glyph glyph-name="ampersand" unicode="&#x26;" horiz-adv-x="512" 
d="M495.5 105q2.5 -8 -6.5 -10q-41 -10 -110 19q-8 4 -15 7l-2 1h-1q-21 -2 -56 -20q-21 -11 -74 -44q-67 -43 -117 -52q-48 -9 -74 13q-31 25 -22 79q9 51 51 104q16 21 38 44q20 21 48 47l2 2l-1 3q-32 55 -17 100q18 56 70 80q20 9 40.5 10t38.5 -11q20 -16 13 -45
q-8 -30 -44 -68q-9 -10 -25 -25q-4 -4 -34 -30q-8 -8 -15 -14l-3 -3l2 -3q30 -44 84 -87q49 -39 103 -65h1q9 -4 17 -8q63 -26 97 -18q9 2 11.5 -6zM157 393q-11 -35 11 -79l3 -6l5 5q4 3 8 7q30 27 34 30q16 15 25 24q33 35 39 61q5 20 -7 30q-20 16 -57 -2
q-45 -20 -61 -70zM328 131l10 3l-9 5q-39 22 -76 51q-52 42 -83 85l-3 5l-5 -5q-23 -21 -40 -39q-22 -23 -38 -43q-39 -50 -47 -98q-8 -45 16 -64q19 -16 57 -9q46 9 110 49q53 33 76 45q18 10 32 15z" />
    <glyph glyph-name="quotesingle" unicode="'" horiz-adv-x="98" 
d="M76 548.5q9 -3.5 6 -12.5l-48 -130q-3 -9 -12 -5.5t-5 12.5l47 130q3 9 12 5.5z" />
    <glyph glyph-name="quotesingle" unicode="&#x2019;" horiz-adv-x="98" 
d="M76 548.5q9 -3.5 6 -12.5l-48 -130q-3 -9 -12 -5.5t-5 12.5l47 130q3 9 12 5.5z" />
    <glyph glyph-name="quotesingle" unicode="&#x2018;" horiz-adv-x="98" 
d="M76 548.5q9 -3.5 6 -12.5l-48 -130q-3 -9 -12 -5.5t-5 12.5l47 130q3 9 12 5.5z" />
    <glyph glyph-name="parenleft" unicode="(" horiz-adv-x="245" 
d="M228.5 523q1.5 -8 -7.5 -9q-34 -5 -78 -72q-41 -64 -72 -155q-30 -87 -35 -157q-6 -74 20 -101q6 -6 -1.5 -11t-13.5 1q-36 38 -20 145q9 61 32 128q31 93 74 158q48 74 91 80q9 1 10.5 -7z" />
    <glyph glyph-name="parenright" unicode=")" horiz-adv-x="245" 
d="M203 527q37 -38 21 -145q-9 -61 -32 -128q-32 -93 -74 -158q-48 -74 -91 -80q-9 -1 -10.5 7t7.5 9q34 5 77 72q42 64 73 155q30 87 35 156q5 75 -20 101q-6 7 1 12t13 -1z" />
    <glyph glyph-name="asterisk" unicode="*" horiz-adv-x="184" 
d="M165 415q7 -6 1 -13t-13 -1l-50 46l3 -69q0 -10 -9.5 -10.5t-9.5 9.5l-3 69l-52 -49q-7 -7 -13.5 0t0.5 14l61 57l-54 50q-7 6 -0.5 13t13.5 1l43 -40l-2 46q0 9 9.5 9.5t9.5 -8.5l2 -52l44 41q7 7 13.5 0t-0.5 -14l-50 -46z" />
    <glyph glyph-name="plus" unicode="+" horiz-adv-x="307" 
d="M291 47q2 -9 -7 -10l-131 -4l-37 -120q-3 -8 -11 -4q-9 4 -6 12l35 112l-108 -4q-9 0 -10 9t7 10l116 3l36 117q3 8 11.5 4t5.5 -12l-33 -108l122 4q9 0 10 -9z" />
    <glyph glyph-name="comma" unicode="," horiz-adv-x="82" 
d="M60 69.5q9 -3.5 5 -12.5l-31 -85q-3 -9 -12 -5.5t-5 11.5l31 86q3 9 12 5.5z" />
    <glyph glyph-name="hyphen" unicode="-" horiz-adv-x="189" 
d="M164 251q9 0 9 -9.5t-9 -9.5h-139q-9 0 -9 9.5t9 9.5h139z" />
    <glyph glyph-name="period" unicode="." horiz-adv-x="70" 
d="M33 46q7 0 12 -5t5 -12t-5 -12t-12 -5t-12 5t-5 12t5 12t12 5z" />
    <glyph glyph-name="slash" unicode="/" horiz-adv-x="254" 
d="M232 568.5q9 -2.5 6 -10.5l-204 -579q-2 -8 -11 -5.5t-7 10.5l204 579q3 8 12 5.5z" />
    <glyph glyph-name="zero" unicode="0" horiz-adv-x="334" 
d="M-6 15q-20 17 -19 52q3 39 32 92q14 25 29 47q38 56 83 95q17 14 28.5 23t32 24t38 23t37.5 14t38.5 3t34.5 -14q23 -16 29 -48t-8 -74q-19 -52 -67 -106q-38 -44 -95 -88q-24 -19 -51.5 -33t-55.5 -20q-58 -14 -86 10zM20 155q-21 -37 -27 -66q-11 -44 11 -63
q25 -20 76 -8t100 50q52 40 90 83q48 53 66 103q11 24 8.5 57.5t-26.5 50.5q-16 12 -38.5 11.5t-41 -7.5t-43 -23t-37 -26t-31.5 -26q-40 -34 -79 -90q-19 -27 -28 -46z" />
    <glyph glyph-name="one" unicode="1" horiz-adv-x="184" 
d="M216 364q-2 -2 -5 -7q-2 -2 -8 -13q-4 -7 -12.5 -21t-12.5 -21q-6 -10 -34 -60q-14 -25 -32 -60q-32 -60 -53 -103q-9 -20 -18 -42q0 -1 -1 -3.5t-1.5 -3.5t-1.5 -3.5t-1.5 -3.5l-1.5 -3t-1.5 -3.5l-1 -3t-1 -3.5t-0.5 -3q-3 -8 -10 -7q-5 1 -4 7q4 14 12 32q11 25 19 43
q26 53 52 104q11 19 33 60q3 6 34 60q16 27 25 43q6 10 9 14q4 6 7 8q5 6 9.5 2t-0.5 -9z" />
    <glyph glyph-name="two" unicode="2" horiz-adv-x="334" 
d="M61 51q-3 -3 -14 -12l-17 -14l20 9q21 8 35 14q71 25 124 32q62 7 77 -17q5 -8 5 -19v-1q0 -7 -8 -8q-6 0 -7 6q1 8 -3 13q-11 19 -66 12q-50 -6 -119 -31q-41 -15 -80 -34q-4 -2 -7 0v0q-3 2 -1 7q6 15 54 52q17 14 95 72q45 33 73 56q35 28 51 48q32 38 44 72
q10 32 -2 49q-14 20 -51 16q-43 -4 -108 -39q-6 -3 -8 2q-3 6 4 10q68 36 114 41q44 4 61 -20q15 -22 3 -60t-47 -78q-17 -20 -54 -50q-23 -20 -73 -57q-82 -61 -95 -71z" />
    <glyph glyph-name="three" unicode="3" horiz-adv-x="294" 
d="M173 239l-10 -5l12 -1q15 -2 28 -7q29 -10 37 -37q8 -23 -1.5 -49t-26.5 -48q-23 -27 -58 -51q-38 -25 -72 -36q-40 -12 -57 2q-13 12 -7 40q1 8 9 7q6 0 5 -6v0q-5 -22 4 -29q12 -11 44 -1t68 34q34 23 53 47q37 45 26 83v1q-16 49 -107 33q-6 -1 -7 4q0 6 6 9
q78 28 119 71q17 18 23 33q5 13 1 23q-8 15 -42 9q-42 -8 -105 -48q-7 -4 -9 1h-1q-3 5 4 10q66 42 112 50q42 8 54 -14q7 -13 -1 -33q-7 -18 -27 -39q-27 -29 -74 -53z" />
    <glyph glyph-name="four" unicode="4" horiz-adv-x="319" 
d="M270 166q1 -8 -2 -16q-3 -7 -10 -5q-6 1 -3 8v0q1 5 1 6v1q-1 5 -14 9v0l-16 2h-2l-1 -2q-8 -15 -27 -49q-19 -37 -29 -57q-14 -28 -28 -58q-4 -7 -10 -5t-3 8q15 31 28 58q13 25 30 58q4 7 23 41l3 6l-7 -1h-3h-3q-29 -2 -73 -9q-45 -8 -101 -21q-4 -1 -6 3q-2 3 1 7
q50 62 77 97q46 55 66 79q32 37 44 50q8 9 14 13q10 8 15 5q2 -1 2 -3h1q2 -6 -5 -10v0q-2 -1 -3 -1h-2h-1l-10 -10t-10 -11q-20 -21 -46 -53q-39 -47 -58 -70q-52 -65 -57 -72l-6 -7l10 2q38 8 76 15q44 8 75 10h15h2l1 2q10 19 32 58q15 25 26 42q5 9 8 14q4 5 7 9
q6 6 10 1q5 -3 -1 -9q-1 -2 -4 -6q-1 -2 -2.5 -3.5t-2 -3t-2 -3.5t-2.5 -4q-5 -8 -25 -41q-12 -21 -28 -51l-3 -5h5q30 -3 34 -18z" />
    <glyph glyph-name="five" unicode="5" horiz-adv-x="302" 
d="M99 249q-2 4 0 7q19 34 60 101v0q2 4 7 4q6 1 12.5 1t13.5 0.5t12 0.5q25 1 38 -1q20 -3 23 -13q1 -4 0 -7q-2 -7 -9 -7q-6 1 -5 6l1 2l-2 2q-4 2 -16 4q-12 1 -33 0q-5 0 -15 -0.5t-16 -0.5h-2l-1 -2q-15 -24 -45 -76l-4 -6l7 1q62 11 101 1q42 -12 55 -46
q11 -30 -2 -70q-12 -37 -43 -74q-51 -61 -125 -74q-27 -5 -54 0.5t-37 26.5q-7 16 -2 36q3 7 10 6q6 0 4 -7q-4 -15 1 -27q8 -14 29 -20t50 -1q67 11 114 67q28 33 40 68q11 36 1 62q-11 30 -47 40q-44 11 -115 -6q-4 -1 -6 2z" />
    <glyph glyph-name="six" unicode="6" horiz-adv-x="319" 
d="M51 26q19 -14 52 -12h4l-1 4q-4 32 16 60q16 21 44 36q31 16 62 18q33 2 40 -14q6 -13 -5.5 -30.5t-39.5 -39.5t-65 -35q-38 -14 -70 -13q-33 1 -52 19q-28 25 -17 80q6 31 24 67q16 32 39 63q42 57 87 90q51 38 93 34q22 -1 40 -15q4 -4 -1 -10q-6 -6 -10 -2v0
q-15 12 -33 14q-36 3 -83 -31q-44 -33 -82 -86q-21 -28 -37 -59q-17 -34 -23 -64q-11 -52 18 -74zM120 21v-2.5v-2.5h5q16 3 32 9q33 13 58 32q26 21 36 35q7 12 4 18q-5 10 -30 9q-27 -2 -55 -17q-58 -30 -50 -81z" />
    <glyph glyph-name="seven" unicode="7" horiz-adv-x="290" 
d="M55 322q-3 -7 -10 -7q-6 1 -4 7q6 24 68 31q28 3 68 4q40 0 91 -3q5 0 5 -3v-1q1 -4 -3 -7q-22 -17 -49 -49q-26 -32 -50 -67l-4 -6h6h15q5 0 5 -6q-2 -7 -9 -7h-25h-2l-1 -2q-22 -32 -58 -89q-17 -27 -35 -56q-17 -29 -34 -57q-4 -6 -10 -4q-5 3 -2 9q7 11 18.5 30
t15.5 27q3 5 35.5 56t51.5 79l4 6l-7 -1q-29 -2 -37 -10q-6 -5 -10 0q-4 4 2 9q11 10 39 14l20 2h2l1 1q31 45 59 79q20 23 33 35l5 6h-8q-36 1 -68 1q-39 0 -66 -3q-26 -3 -40 -9q-11 -4 -12 -9z" />
    <glyph glyph-name="eight" unicode="8" horiz-adv-x="293" 
d="M232 226q-19 -28 -45 -58l-3 -3l3 -2q25 -16 37 -33q16 -24 9 -48q-10 -32 -53 -54q-41 -22 -98 -28q-42 -4 -58 19q-18 24 3 65q20 41 76 89q3 3 6 5l8 7l-1 2q-23 16 -34 36q-21 38 -5 80q19 49 77 75q18 7 35.5 11t38 1.5t32.5 -14.5q30 -28 7 -88q-11 -28 -35 -62z
M219 82q13 43 -63 81q-17 8 -28 15l-19 -16q-51 -43 -70 -81q-17 -33 -3 -52q13 -19 48 -15q54 5 92 25q36 19 43 43zM176 174q28 32 44 55q23 35 34 61q20 52 -5 75q-29 28 -92 0q-50 -22 -67 -64q-14 -36 5 -69q17 -31 70 -57v0l6 -3l3 -2l1 3q1 0 1 1z" />
    <glyph glyph-name="nine" unicode="9" horiz-adv-x="275" 
d="M209 283q0 -17 -27 -36q-23 -16 -55 -26q-41 -13 -71.5 -7.5t-37.5 26.5q-7 20 12 46q20 27 65 54q10 6 14 8q11 6 23 11t27.5 10t29 7t27.5 0t24 -8q24 -17 17 -58q-4 -29 -23 -70q-24 -53 -52 -104q-24 -43 -45 -72q-41 -56 -76 -64q-6 -1 -6 4q-1 7 7 9q38 8 95 104
q31 53 65 126q15 32 20 58q8 41 -12 56q-17 11 -50 5q-31 -6 -66 -25l-14 -7q-42 -26 -59 -49q-15 -19 -10 -35q6 -15 30 -20q27 -5 64 7q30 9 51 24q19 13 19 23q0 7 8 8q6 1 6 -5z" />
    <glyph glyph-name="colon" unicode=":" horiz-adv-x="79" 
d="M33 199q7 0 12 -5t5 -12t-5 -12t-12 -5t-12 5t-5 12t5 12t12 5zM46 291q7 0 12 -5t5 -12t-5 -12t-12 -5t-12 5t-5 12t5 12t12 5z" />
    <glyph glyph-name="semicolon" unicode=";" horiz-adv-x="107" 
d="M60 222.5q9 -3.5 5 -12.5l-31 -85q-3 -9 -12 -5.5t-5 12.5l31 85q3 9 12 5.5zM74 291q5 0 9 -2t6 -6t2 -9q0 -7 -5 -12t-12 -5q-2 0 -4 0.5t-3.5 1.5l-3 2t-3 2.5t-2 3t-1 3.5t-0.5 4q0 7 5 12t12 5z" />
    <glyph glyph-name="less" unicode="&#x3c;" horiz-adv-x="211" 
d="M185 118q10 0 9.5 -9.5t-9.5 -9.5q-8 0 -16 1q-57 4 -101 23q-50 21 -52 50q-1 23 30 42q32 18 95 32q9 2 11 -8q2 -9 -7 -11q-61 -13 -89 -30q-22 -13 -21 -24q1 -17 40 -33q41 -18 95 -22q8 0 15 -1z" />
    <glyph glyph-name="equal" unicode="=" horiz-adv-x="201" 
d="M176 274q9 0 9 -9.5t-9 -9.5h-139q-9 0 -9 9.5t9 9.5h139zM164 195q9 0 9 -9.5t-9 -9.5h-139q-9 0 -9 9.5t9 9.5h139z" />
    <glyph glyph-name="greater" unicode="&#x3e;" horiz-adv-x="211" 
d="M195 173q1 -23 -31 -42q-31 -18 -94 -32q-9 -2 -11 8q-3 9 7 11q60 13 89 30q21 13 21 24q-1 17 -40 33q-41 18 -96 22q-7 0 -15 1q-9 0 -9 9.5t10 9.5q8 0 16 -1q57 -4 101 -23q50 -21 52 -50z" />
    <glyph glyph-name="question" unicode="?" horiz-adv-x="307" 
d="M279 500q27 -60 -5 -135q-12 -27 -42 -67q-22 -30 -62 -75q-84 -97 -89 -103q-40 -50 -41 -67q-1 -7 -10 -6.5t-9 6.5q1 21 44 74q5 6 89 103q39 45 61 74q30 39 41 65q30 71 5 127q-23 50 -72 58q-31 4 -63 -14q-37 -22 -65 -70q-4 -6 -13 -3q-8 2 -5 8q31 52 71 75
q39 23 79 17q21 -3 38.5 -13.5t29 -24t18.5 -29.5zM28 7.5q9 -0.5 9 -7.5l-2 -29q-1 -7 -10 -7t-9 8l2 29q1 7 10 6.5z" />
    <glyph glyph-name="at" unicode="@" horiz-adv-x="474" 
d="M291 170q-5 12 -3 26l3 13l-12 -10q-8 -7 -16 -13q-53 -39 -90 -34q-10 1 -19 6q-20 11 -21 38q-2 25 13 52q33 60 110.5 92t120.5 5q13 -8 19 -21q3 -7 -5.5 -9.5t-12.5 4.5q-4 9 -13 15q-33 20 -100 -7q-71 -30 -102 -85q-13 -24 -12 -45q2 -20 14 -27q11 -6 30 -2
q24 6 55 29q19 13 41 39q6 7 17.5 20t14.5 16q18 21 30 31q6 4 12.5 0t1.5 -10q-22 -27 -27 -34q-21 -29 -30 -54q-6 -18 -1 -30q5 -11 16 -15q12 -4 26 2q17 8 29 27v1q26 48 40 89q21 59 18 104q-3 64 -53 85q-29 13 -70 7q-42 -5 -85 -29q-100 -53 -154 -159
q-53 -105 -38 -176q13 -60 71 -85q69 -29 156 0q91 31 128 103q3 7 12 4.5t5 -9.5q-39 -78 -138 -112q-95 -32 -172 1q-66 28 -80 95q-17 75 39 185q55 110 160 166q47 25 93 31q47 7 82 -8q59 -26 63 -98q3 -47 -18 -108q-15 -43 -41 -92l-1 -1q-15 -24 -37 -34
q-22 -9 -43 -2q-18 6 -26 23z" />
    <glyph glyph-name="A" unicode="A" horiz-adv-x="633" 
d="M184 -141q-2 -7 -9.5 -4.5t-5.5 9.5q30 86 78 184q-31 9 -73 11q-32 1 -99 -3q-33 -2 -49 -2q-4 0 -6.5 2t-3.5 5q-4 14 33 24q26 8 78 16q63 10 158 21q40 74 84 143q32 51 63.5 95t59.5 77t51.5 54t39.5 26l1 1q12 4 18 -12q14 -40 -54 -360q67 5 116 8q8 0 8.5 -8
t-7.5 -8q-52 -3 -120 -8q-12 -56 -37 -170q-61 -280 -79 -383q-2 -8 -10 -7q-7 2 -6 9q4 116 -5 200.5t-30.5 137.5t-49 82.5t-65.5 43.5q-49 -98 -79 -184zM255 63q10 21 21 42q-87 -10 -147 -20q-46 -7 -72 -14l17 1q68 4 101 3q46 -2 80 -12zM382 257q-40 -65 -78 -133
q111 12 227 21q68 320 56 356l1 1v0q-30 -9 -86 -76.5t-120 -168.5zM528 128q-120 -9 -233 -21q-13 -24 -25 -49q36 -13 63.5 -39t49 -71t34 -115t13.5 -164q17 88 62 295q24 109 36 164z" />
    <glyph glyph-name="A" unicode="&#xc5;" horiz-adv-x="633" 
d="M184 -141q-2 -7 -9.5 -4.5t-5.5 9.5q30 86 78 184q-31 9 -73 11q-32 1 -99 -3q-33 -2 -49 -2q-4 0 -6.5 2t-3.5 5q-4 14 33 24q26 8 78 16q63 10 158 21q40 74 84 143q32 51 63.5 95t59.5 77t51.5 54t39.5 26l1 1q12 4 18 -12q14 -40 -54 -360q67 5 116 8q8 0 8.5 -8
t-7.5 -8q-52 -3 -120 -8q-12 -56 -37 -170q-61 -280 -79 -383q-2 -8 -10 -7q-7 2 -6 9q4 116 -5 200.5t-30.5 137.5t-49 82.5t-65.5 43.5q-49 -98 -79 -184zM255 63q10 21 21 42q-87 -10 -147 -20q-46 -7 -72 -14l17 1q68 4 101 3q46 -2 80 -12zM382 257q-40 -65 -78 -133
q111 12 227 21q68 320 56 356l1 1v0q-30 -9 -86 -76.5t-120 -168.5zM528 128q-120 -9 -233 -21q-13 -24 -25 -49q36 -13 63.5 -39t49 -71t34 -115t13.5 -164q17 88 62 295q24 109 36 164z" />
    <glyph glyph-name="A" unicode="&#xc3;" horiz-adv-x="633" 
d="M184 -141q-2 -7 -9.5 -4.5t-5.5 9.5q30 86 78 184q-31 9 -73 11q-32 1 -99 -3q-33 -2 -49 -2q-4 0 -6.5 2t-3.5 5q-4 14 33 24q26 8 78 16q63 10 158 21q40 74 84 143q32 51 63.5 95t59.5 77t51.5 54t39.5 26l1 1q12 4 18 -12q14 -40 -54 -360q67 5 116 8q8 0 8.5 -8
t-7.5 -8q-52 -3 -120 -8q-12 -56 -37 -170q-61 -280 -79 -383q-2 -8 -10 -7q-7 2 -6 9q4 116 -5 200.5t-30.5 137.5t-49 82.5t-65.5 43.5q-49 -98 -79 -184zM255 63q10 21 21 42q-87 -10 -147 -20q-46 -7 -72 -14l17 1q68 4 101 3q46 -2 80 -12zM382 257q-40 -65 -78 -133
q111 12 227 21q68 320 56 356l1 1v0q-30 -9 -86 -76.5t-120 -168.5zM528 128q-120 -9 -233 -21q-13 -24 -25 -49q36 -13 63.5 -39t49 -71t34 -115t13.5 -164q17 88 62 295q24 109 36 164z" />
    <glyph glyph-name="A" unicode="&#xc2;" horiz-adv-x="633" 
d="M184 -141q-2 -7 -9.5 -4.5t-5.5 9.5q30 86 78 184q-31 9 -73 11q-32 1 -99 -3q-33 -2 -49 -2q-4 0 -6.5 2t-3.5 5q-4 14 33 24q26 8 78 16q63 10 158 21q40 74 84 143q32 51 63.5 95t59.5 77t51.5 54t39.5 26l1 1q12 4 18 -12q14 -40 -54 -360q67 5 116 8q8 0 8.5 -8
t-7.5 -8q-52 -3 -120 -8q-12 -56 -37 -170q-61 -280 -79 -383q-2 -8 -10 -7q-7 2 -6 9q4 116 -5 200.5t-30.5 137.5t-49 82.5t-65.5 43.5q-49 -98 -79 -184zM255 63q10 21 21 42q-87 -10 -147 -20q-46 -7 -72 -14l17 1q68 4 101 3q46 -2 80 -12zM382 257q-40 -65 -78 -133
q111 12 227 21q68 320 56 356l1 1v0q-30 -9 -86 -76.5t-120 -168.5zM528 128q-120 -9 -233 -21q-13 -24 -25 -49q36 -13 63.5 -39t49 -71t34 -115t13.5 -164q17 88 62 295q24 109 36 164z" />
    <glyph glyph-name="A" unicode="&#xc1;" horiz-adv-x="633" 
d="M184 -141q-2 -7 -9.5 -4.5t-5.5 9.5q30 86 78 184q-31 9 -73 11q-32 1 -99 -3q-33 -2 -49 -2q-4 0 -6.5 2t-3.5 5q-4 14 33 24q26 8 78 16q63 10 158 21q40 74 84 143q32 51 63.5 95t59.5 77t51.5 54t39.5 26l1 1q12 4 18 -12q14 -40 -54 -360q67 5 116 8q8 0 8.5 -8
t-7.5 -8q-52 -3 -120 -8q-12 -56 -37 -170q-61 -280 -79 -383q-2 -8 -10 -7q-7 2 -6 9q4 116 -5 200.5t-30.5 137.5t-49 82.5t-65.5 43.5q-49 -98 -79 -184zM255 63q10 21 21 42q-87 -10 -147 -20q-46 -7 -72 -14l17 1q68 4 101 3q46 -2 80 -12zM382 257q-40 -65 -78 -133
q111 12 227 21q68 320 56 356l1 1v0q-30 -9 -86 -76.5t-120 -168.5zM528 128q-120 -9 -233 -21q-13 -24 -25 -49q36 -13 63.5 -39t49 -71t34 -115t13.5 -164q17 88 62 295q24 109 36 164z" />
    <glyph glyph-name="A" unicode="&#xc0;" horiz-adv-x="633" 
d="M184 -141q-2 -7 -9.5 -4.5t-5.5 9.5q30 86 78 184q-31 9 -73 11q-32 1 -99 -3q-33 -2 -49 -2q-4 0 -6.5 2t-3.5 5q-4 14 33 24q26 8 78 16q63 10 158 21q40 74 84 143q32 51 63.5 95t59.5 77t51.5 54t39.5 26l1 1q12 4 18 -12q14 -40 -54 -360q67 5 116 8q8 0 8.5 -8
t-7.5 -8q-52 -3 -120 -8q-12 -56 -37 -170q-61 -280 -79 -383q-2 -8 -10 -7q-7 2 -6 9q4 116 -5 200.5t-30.5 137.5t-49 82.5t-65.5 43.5q-49 -98 -79 -184zM255 63q10 21 21 42q-87 -10 -147 -20q-46 -7 -72 -14l17 1q68 4 101 3q46 -2 80 -12zM382 257q-40 -65 -78 -133
q111 12 227 21q68 320 56 356l1 1v0q-30 -9 -86 -76.5t-120 -168.5zM528 128q-120 -9 -233 -21q-13 -24 -25 -49q36 -13 63.5 -39t49 -71t34 -115t13.5 -164q17 88 62 295q24 109 36 164z" />
    <glyph glyph-name="B" unicode="B" horiz-adv-x="650" 
d="M403 620q8 2 9.5 -6t-6.5 -9q-11 -2 -33 -74q43 29 76 47.5t64 30.5t53 9.5t35 -19.5q0 -1 1 -2q5 -11 5.5 -23.5t-4 -25.5t-10 -25.5t-17 -27.5t-21 -27t-26 -28t-27.5 -26.5t-30 -27t-29.5 -25t-29.5 -24.5l-16 -13q-39 -33 -54.5 -47t-14.5 -16q2 -2 45 3q26 3 42 5
q80 7 132 -11q54 -19 75 -64q35 -74 -27 -188q-62 -113 -182 -199q-67 -49 -141.5 -80.5t-135.5 -37.5q-46 -5 -76 6q-34 13 -42 44q-7 28 10 70q3 8 10.5 5t4.5 -11q-15 -37 -9 -61q6 -22 31 -32q27 -10 70 -5q58 6 130.5 36.5t138.5 78.5q117 84 177 193q58 107 26 174
q-18 39 -65 56q-49 17 -126 10q-14 -1 -41 -5q-52 -6 -59 2.5t9 27.5t62 58l16 14q47 38 72.5 61t61.5 60t48 66.5t2 52.5q-8 11 -24 12.5t-36 -4.5t-46.5 -19.5t-53.5 -30.5t-61 -41q-24 -84 -85 -341q-52 -219 -76 -303q-2 -7 -9 -5q-8 2 -6 9q64 282 63 414
q-2 109 -47 113q-8 0 -7 8q0 4 3 6q12 9 37 27q78 58 115 83q31 99 49 102zM258 140l7 30q57 238 82 324q-32 -23 -99 -72l-23 -17q42 -20 44 -124q0 -57 -11 -141z" />
    <glyph glyph-name="C" unicode="C" horiz-adv-x="421" 
d="M490 464q-6 -33 -18 -64t-28 -56t-34 -36q-7 -4 -11 2.5t2 11.5q24 15 44 56t29 89q9 44 5 78q-5 35 -22 51q-14 12 -36 10q-52 -4 -129 -102q-81 -103 -154 -262q-87 -191 -103 -327q-8 -64 5 -101q12 -38 44 -45q19 -3 43 2q102 27 196 141q66 81 122 198q3 7 10.5 3.5
t3.5 -10.5q-56 -118 -124 -201q-97 -118 -204 -146q-28 -7 -50 -2q-41 8 -57 55q-13 41 -5 108q16 139 105 332q73 160 155 265q82 104 141 108q28 2 47 -14q22 -20 27 -61q5 -37 -4 -83z" />
    <glyph glyph-name="C" unicode="&#xc7;" horiz-adv-x="421" 
d="M490 464q-6 -33 -18 -64t-28 -56t-34 -36q-7 -4 -11 2.5t2 11.5q24 15 44 56t29 89q9 44 5 78q-5 35 -22 51q-14 12 -36 10q-52 -4 -129 -102q-81 -103 -154 -262q-87 -191 -103 -327q-8 -64 5 -101q12 -38 44 -45q19 -3 43 2q102 27 196 141q66 81 122 198q3 7 10.5 3.5
t3.5 -10.5q-56 -118 -124 -201q-97 -118 -204 -146q-28 -7 -50 -2q-41 8 -57 55q-13 41 -5 108q16 139 105 332q73 160 155 265q82 104 141 108q28 2 47 -14q22 -20 27 -61q5 -37 -4 -83z" />
    <glyph glyph-name="D" unicode="D" horiz-adv-x="599" 
d="M310 400q5 6 11.5 1.5t1.5 -11.5q-25 -35 -91 -260q60 44 106 64q7 3 10 -4.5t-4 -10.5q-52 -22 -120 -74q-10 -37 -34 -119l-8 -30q-3 -8 -10.5 -6t-5.5 10l1 3q4 15 11 39q16 57 24 85q-29 -23 -54 -47q-90 -86 -108 -152q-15 -51 -2 -74q11 -19 41 -17q32 2 79 23
q86 40 180 122t139 162q63 110 82 223q20 115 -10 186q-9 19 -22 33q-27 30 -74 32q-49 3 -113 -24q-96 -41 -207 -140q93 19 117 -53q12 -36 5 -99q36 111 55 138zM137 51q33 32 72 62q47 179 26 243q-23 68 -129 34q-8 -3 -10 5q-2 5 2 8q126 119 236 166q67 28 120 25
q53 -2 85 -37q15 -16 25 -38q32 -75 11 -194q-20 -117 -84 -229q-46 -82 -142 -166t-184 -124q-50 -23 -85 -25q-40 -2 -56 25q-16 29 0 87q20 69 113 158z" />
    <glyph glyph-name="E" unicode="E" horiz-adv-x="473" 
d="M560 572q-6 -30 -23 -65t-39 -66t-45 -54q-6 -6 -11.5 -0.5t0.5 11.5q34 34 63.5 84t39.5 93q5 23 2.5 40t-11.5 26q-8 8 -22 11l-1 1q-27 5 -67 -13q-31 -15 -68.5 -43.5t-73 -64t-69.5 -76.5q-50 -60 -85.5 -118t-43.5 -96q-4 -20 0 -30h1q7 -15 43 1q26 11 85 50
q62 42 77.5 42.5t16.5 -15.5v-1q0 -6 -6 -16.5t-20 -28.5t-25 -31.5t-34 -41.5q-47 -57 -74 -91t-64 -88.5t-54 -93.5q-49 -115 17 -116q55 -1 142 64q26 19 46 39q81 79 237 268q5 7 11 1.5t1 -11.5q-156 -190 -238 -270q-77 -76 -159 -99q-78 -23 -91 29q-9 35 20 102
q17 40 54.5 95t64.5 89.5t75 91.5q80 96 81 108q-11 -1 -69 -39q-60 -40 -87 -52q-51 -22 -65 7q-7 15 -2 41q6 26 24.5 62.5t46.5 77t62 81.5q53 64 110.5 114.5t106.5 72.5q44 21 77 14q19 -4 30 -16q13 -13 16 -35q3 -20 -3 -45z" />
    <glyph glyph-name="E" unicode="&#xcb;" horiz-adv-x="473" 
d="M560 572q-6 -30 -23 -65t-39 -66t-45 -54q-6 -6 -11.5 -0.5t0.5 11.5q34 34 63.5 84t39.5 93q5 23 2.5 40t-11.5 26q-8 8 -22 11l-1 1q-27 5 -67 -13q-31 -15 -68.5 -43.5t-73 -64t-69.5 -76.5q-50 -60 -85.5 -118t-43.5 -96q-4 -20 0 -30h1q7 -15 43 1q26 11 85 50
q62 42 77.5 42.5t16.5 -15.5v-1q0 -6 -6 -16.5t-20 -28.5t-25 -31.5t-34 -41.5q-47 -57 -74 -91t-64 -88.5t-54 -93.5q-49 -115 17 -116q55 -1 142 64q26 19 46 39q81 79 237 268q5 7 11 1.5t1 -11.5q-156 -190 -238 -270q-77 -76 -159 -99q-78 -23 -91 29q-9 35 20 102
q17 40 54.5 95t64.5 89.5t75 91.5q80 96 81 108q-11 -1 -69 -39q-60 -40 -87 -52q-51 -22 -65 7q-7 15 -2 41q6 26 24.5 62.5t46.5 77t62 81.5q53 64 110.5 114.5t106.5 72.5q44 21 77 14q19 -4 30 -16q13 -13 16 -35q3 -20 -3 -45z" />
    <glyph glyph-name="E" unicode="&#xca;" horiz-adv-x="473" 
d="M560 572q-6 -30 -23 -65t-39 -66t-45 -54q-6 -6 -11.5 -0.5t0.5 11.5q34 34 63.5 84t39.5 93q5 23 2.5 40t-11.5 26q-8 8 -22 11l-1 1q-27 5 -67 -13q-31 -15 -68.5 -43.5t-73 -64t-69.5 -76.5q-50 -60 -85.5 -118t-43.5 -96q-4 -20 0 -30h1q7 -15 43 1q26 11 85 50
q62 42 77.5 42.5t16.5 -15.5v-1q0 -6 -6 -16.5t-20 -28.5t-25 -31.5t-34 -41.5q-47 -57 -74 -91t-64 -88.5t-54 -93.5q-49 -115 17 -116q55 -1 142 64q26 19 46 39q81 79 237 268q5 7 11 1.5t1 -11.5q-156 -190 -238 -270q-77 -76 -159 -99q-78 -23 -91 29q-9 35 20 102
q17 40 54.5 95t64.5 89.5t75 91.5q80 96 81 108q-11 -1 -69 -39q-60 -40 -87 -52q-51 -22 -65 7q-7 15 -2 41q6 26 24.5 62.5t46.5 77t62 81.5q53 64 110.5 114.5t106.5 72.5q44 21 77 14q19 -4 30 -16q13 -13 16 -35q3 -20 -3 -45z" />
    <glyph glyph-name="E" unicode="&#xc9;" horiz-adv-x="473" 
d="M560 572q-6 -30 -23 -65t-39 -66t-45 -54q-6 -6 -11.5 -0.5t0.5 11.5q34 34 63.5 84t39.5 93q5 23 2.5 40t-11.5 26q-8 8 -22 11l-1 1q-27 5 -67 -13q-31 -15 -68.5 -43.5t-73 -64t-69.5 -76.5q-50 -60 -85.5 -118t-43.5 -96q-4 -20 0 -30h1q7 -15 43 1q26 11 85 50
q62 42 77.5 42.5t16.5 -15.5v-1q0 -6 -6 -16.5t-20 -28.5t-25 -31.5t-34 -41.5q-47 -57 -74 -91t-64 -88.5t-54 -93.5q-49 -115 17 -116q55 -1 142 64q26 19 46 39q81 79 237 268q5 7 11 1.5t1 -11.5q-156 -190 -238 -270q-77 -76 -159 -99q-78 -23 -91 29q-9 35 20 102
q17 40 54.5 95t64.5 89.5t75 91.5q80 96 81 108q-11 -1 -69 -39q-60 -40 -87 -52q-51 -22 -65 7q-7 15 -2 41q6 26 24.5 62.5t46.5 77t62 81.5q53 64 110.5 114.5t106.5 72.5q44 21 77 14q19 -4 30 -16q13 -13 16 -35q3 -20 -3 -45z" />
    <glyph glyph-name="E" unicode="&#xc8;" horiz-adv-x="473" 
d="M560 572q-6 -30 -23 -65t-39 -66t-45 -54q-6 -6 -11.5 -0.5t0.5 11.5q34 34 63.5 84t39.5 93q5 23 2.5 40t-11.5 26q-8 8 -22 11l-1 1q-27 5 -67 -13q-31 -15 -68.5 -43.5t-73 -64t-69.5 -76.5q-50 -60 -85.5 -118t-43.5 -96q-4 -20 0 -30h1q7 -15 43 1q26 11 85 50
q62 42 77.5 42.5t16.5 -15.5v-1q0 -6 -6 -16.5t-20 -28.5t-25 -31.5t-34 -41.5q-47 -57 -74 -91t-64 -88.5t-54 -93.5q-49 -115 17 -116q55 -1 142 64q26 19 46 39q81 79 237 268q5 7 11 1.5t1 -11.5q-156 -190 -238 -270q-77 -76 -159 -99q-78 -23 -91 29q-9 35 20 102
q17 40 54.5 95t64.5 89.5t75 91.5q80 96 81 108q-11 -1 -69 -39q-60 -40 -87 -52q-51 -22 -65 7q-7 15 -2 41q6 26 24.5 62.5t46.5 77t62 81.5q53 64 110.5 114.5t106.5 72.5q44 21 77 14q19 -4 30 -16q13 -13 16 -35q3 -20 -3 -45z" />
    <glyph glyph-name="F" unicode="F" horiz-adv-x="350" 
d="M64 231q-4 -7 -11 -2.5t-3 10.5q11 18 83 45q1 13 1 24q-1 78 -26.5 121.5t-83.5 43.5q-8 0 -8 8q0 5 5 7q77 38 178.5 69t192.5 49q69 13 114 14q51 3 58 -13l2 -4q1 -8 -6.5 -9.5t-9.5 6.5q-3 6 -44 5q-43 -2 -111 -15q-189 -36 -341 -104q91 -19 95 -168
q36 196 54 211q7 5 12 -1.5t-1 -11.5q-15 -12 -53 -221q88 31 224 68q8 2 10 -5.5t-5 -9.5q-144 -40 -232 -71q-11 -62 -33 -195q-36 -211 -51 -293q-2 -8 -10 -6q-7 2 -6 9q5 55 32 193q38 196 43 282q-62 -24 -69 -36z" />
    <glyph glyph-name="G" unicode="G" horiz-adv-x="444" 
d="M198 154q-8 -2 -10 5.5t5 9.5q32 10 107 40q39 15 57 22l2 3q22 50 36 59q7 4 14 1l1 -1q12 -8 -6 -46q60 18 81 6q7 -4 3 -11t-11 -3q-17 10 -84 -12q-9 -16 -21 -34q-14 -21 -31 -44q-6 -16 -13 -35q-45 -125 -81 -251t-27 -135q6 -6 0 -11.5t-12 0.5q-11 12 22.5 139
t79.5 254l-4 -4q-41 -49 -81 -84q-124 -109 -179 -48q-53 57 -14 191q20 67 59.5 139t86.5 130q29 35 60.5 64.5t61 49t54.5 29.5q32 12 55 8q26 -5 37 -30q14 -30 2 -85q-1 -8 -9 -6.5t-6 9.5q10 50 -2 76q-7 17 -25 20q-19 4 -46 -7q-37 -14 -82 -50.5t-88 -88.5
q-46 -56 -84.5 -126.5t-57.5 -135.5q-37 -126 10 -176v-1q44 -49 156 50q39 34 80 82q17 20 33 41q11 30 21 53q-13 -5 -42 -16q-76 -31 -108 -40zM378 238l6 2q17 29 18 38q-9 -8 -24 -40zM367 214q1 1 3 5l-1 -1z" />
    <glyph glyph-name="H" unicode="H" horiz-adv-x="444" 
d="M324 585q8 3 11 -4t-5 -10q-47 -19 -105 -285q-21 -95 -42 -214q105 36 210 63q38 172 72 278q2 8 9.5 5.5t5.5 -9.5q-32 -103 -69 -269q34 8 60 13q8 2 9 -6t-6 -10q-28 -5 -67 -15q-14 -63 -25 -120q-38 -198 -24 -224q4 -7 -3 -11t-11 3q-16 31 22 235q10 54 23 113
q-107 -28 -209 -64q-39 -232 -62 -461q-1 -8 -9 -7t-7 8q5 82 6.5 140.5t-2 97t-7.5 61.5t-15.5 37.5t-19.5 20t-25 13.5q-9 4 -14 7h-1q-4 3 -6 7q-8 14 19 32q20 12 60 29q30 13 69 27q21 125 43 224q61 273 115 295zM46 -21q18 -9 26 -14t20 -18.5t17.5 -31.5t10 -50.5
t4.5 -77.5q18 135 39 261q-34 -13 -60 -24q-38 -16 -57 -28q-15 -9 -14 -10v-1q4 -2 14 -6z" />
    <glyph glyph-name="I" unicode="I" horiz-adv-x="503" 
d="M26 -236q-8 -2 -10 6t6 9q189 42 304 56q138 18 192 1q8 -2 5.5 -9.5t-9.5 -5.5q-52 16 -186 -1q-114 -15 -302 -56zM462 647q2 8 9.5 5t5.5 -10l-12 -34q22 4 42 6q137 18 192 1q8 -2 5.5 -9.5t-10.5 -5.5q-51 16 -185 -1q-24 -3 -51 -8q-64 -180 -108 -357
q-49 -194 -75 -386q-1 -8 -9 -7t-7 9q26 193 75 388q44 174 106 350q-96 -15 -234 -45q-7 -2 -9 6t6 9q144 32 244 48q7 20 15 41z" />
    <glyph glyph-name="I" unicode="&#xcf;" horiz-adv-x="503" 
d="M26 -236q-8 -2 -10 6t6 9q189 42 304 56q138 18 192 1q8 -2 5.5 -9.5t-9.5 -5.5q-52 16 -186 -1q-114 -15 -302 -56zM462 647q2 8 9.5 5t5.5 -10l-12 -34q22 4 42 6q137 18 192 1q8 -2 5.5 -9.5t-10.5 -5.5q-51 16 -185 -1q-24 -3 -51 -8q-64 -180 -108 -357
q-49 -194 -75 -386q-1 -8 -9 -7t-7 9q26 193 75 388q44 174 106 350q-96 -15 -234 -45q-7 -2 -9 6t6 9q144 32 244 48q7 20 15 41z" />
    <glyph glyph-name="I" unicode="&#xce;" horiz-adv-x="503" 
d="M26 -236q-8 -2 -10 6t6 9q189 42 304 56q138 18 192 1q8 -2 5.5 -9.5t-9.5 -5.5q-52 16 -186 -1q-114 -15 -302 -56zM462 647q2 8 9.5 5t5.5 -10l-12 -34q22 4 42 6q137 18 192 1q8 -2 5.5 -9.5t-10.5 -5.5q-51 16 -185 -1q-24 -3 -51 -8q-64 -180 -108 -357
q-49 -194 -75 -386q-1 -8 -9 -7t-7 9q26 193 75 388q44 174 106 350q-96 -15 -234 -45q-7 -2 -9 6t6 9q144 32 244 48q7 20 15 41z" />
    <glyph glyph-name="I" unicode="&#xcd;" horiz-adv-x="503" 
d="M26 -236q-8 -2 -10 6t6 9q189 42 304 56q138 18 192 1q8 -2 5.5 -9.5t-9.5 -5.5q-52 16 -186 -1q-114 -15 -302 -56zM462 647q2 8 9.5 5t5.5 -10l-12 -34q22 4 42 6q137 18 192 1q8 -2 5.5 -9.5t-10.5 -5.5q-51 16 -185 -1q-24 -3 -51 -8q-64 -180 -108 -357
q-49 -194 -75 -386q-1 -8 -9 -7t-7 9q26 193 75 388q44 174 106 350q-96 -15 -234 -45q-7 -2 -9 6t6 9q144 32 244 48q7 20 15 41z" />
    <glyph glyph-name="I" unicode="&#xcc;" horiz-adv-x="503" 
d="M26 -236q-8 -2 -10 6t6 9q189 42 304 56q138 18 192 1q8 -2 5.5 -9.5t-9.5 -5.5q-52 16 -186 -1q-114 -15 -302 -56zM462 647q2 8 9.5 5t5.5 -10l-12 -34q22 4 42 6q137 18 192 1q8 -2 5.5 -9.5t-10.5 -5.5q-51 16 -185 -1q-24 -3 -51 -8q-64 -180 -108 -357
q-49 -194 -75 -386q-1 -8 -9 -7t-7 9q26 193 75 388q44 174 106 350q-96 -15 -234 -45q-7 -2 -9 6t6 9q144 32 244 48q7 20 15 41z" />
    <glyph glyph-name="J" unicode="J" horiz-adv-x="470" 
d="M358 410q-3 -89 -22 -204q-11 -68 -27 -135q109 70 185 82q8 2 9.5 -6t-6.5 -9q-79 -14 -193 -90q-8 -33 -16 -65q-27 -100 -58.5 -176t-59 -116.5t-54.5 -60.5q-26 -20 -50 -18q-23 3 -36 25q-29 47 -2 129q18 55 67 116t117 117q38 31 78 59q17 75 30 151
q18 111 22 199q-94 -16 -228 -45q-8 -2 -9.5 6t6.5 9q189 42 304 56q137 18 192 1q7 -2 5 -9.5t-10 -5.5q-52 16 -185 -1q-28 -4 -59 -9zM107 -358q40 30 83 115t82 230q6 23 12 48q-32 -23 -62 -48q-66 -55 -113.5 -114t-65.5 -112q-24 -75 0 -115q10 -16 25 -18
q17 -2 39 14z" />
    <glyph glyph-name="K" unicode="K" horiz-adv-x="402" 
d="M283 544q6 -5 1.5 -11.5t-11.5 -1.5q-7 1 -28 -43q-23 -47 -51 -132q-24 -74 -48 -163q122 149 258 280q74 70 124 107q58 43 79 32q5 -2 8 -8q4 -7 -3 -10.5t-11 3.5l-1 1q-12 6 -63 -31q-49 -36 -122 -106q-153 -146 -279 -304q-23 -92 -42 -182q35 4 124 25
q23 6 34.5 8.5t31 7t31 6t25 3t22.5 0.5t15 -4q21 -10 8 -37q-4 -7 -11 -3.5t-4 10.5q6 12 0 15q-5 3 -13 3.5t-20.5 -1t-23 -3t-29 -6t-29.5 -7l-33 -7.5q-94 -23 -131 -27q-46 -228 -44 -367q0 -8 -8 -8t-8 7q-2 140 43 367q-20 -1 -33 3q-32 9 -23 43q12 45 103 160
q28 109 58 198q28 86 51 134q27 55 46 52q4 -1 7 -3zM45 -25q12 -3 33 -2q15 75 34 153q-33 -43 -53 -75.5t-25 -51.5v0q-6 -19 11 -24z" />
    <glyph glyph-name="L" unicode="L" horiz-adv-x="250" 
d="M40 -35q36 155 111 357.5t123 296.5q3 8 10.5 4t3.5 -11q-48 -93 -122.5 -295t-110.5 -356q-23 -101 -23 -158q0 -60 25 -66q7 -1 18 1q26 7 57.5 29t51.5 40.5t56 53.5q29 29 44.5 43.5t40 34t45 28t40.5 9.5q8 0 8.5 -8t-7.5 -8q-23 -1 -53 -19t-50 -36.5t-57 -54.5
q-37 -37 -57.5 -56t-53.5 -41t-61 -30v0q-14 -4 -26 -1q-37 8 -37 80q0 60 24 163z" />
    <glyph glyph-name="M" unicode="M" horiz-adv-x="568" 
d="M165 381q-66 -154 -107 -361.5t-19 -327.5q2 -7 -6 -8.5t-9 6.5q-23 121 18 331t108 366q32 74 60 112q33 45 61 38q16 -4 27 -25v-1q11 -33 13 -93t-0.5 -101t-7.5 -109q-2 -25 -5 -54.5t-3 -31.5q4 13 35 124q32 115 51 176q54 173 99 212q36 33 61 -11
q42 -73 -66 -735l-4 -28q0 -8 -8 -8t-8 8q0 1 4 30q107 657 68 725q-15 27 -37 8q-41 -37 -94 -205q-19 -62 -51 -176q-32 -117 -44 -134q-3 -7 -10 -5q-8 2 -8.5 32t4.5 74q3 39 4.5 61.5t3.5 62.5t1.5 67t-3.5 56.5t-10 48.5q-7 14 -16 17q-17 4 -44 -32q-27 -37 -58 -109
z" />
    <glyph glyph-name="N" unicode="N" horiz-adv-x="517" 
d="M110 87q-49 -262 -78 -362q-3 -7 -10.5 -5t-5.5 10q29 98 79 360q16 88 25 133.5t25.5 120t30 114t31.5 83.5t38 63.5t42 20.5h1h1q10 -1 16.5 -12t8.5 -35.5t2.5 -46t-2.5 -63t-5.5 -67t-7.5 -75.5q-24 -233 -17 -310q2 -25 6.5 -41.5t12.5 -26t19 -8.5q16 2 29.5 9
t25 22t20.5 29t17.5 39t14 42.5t12.5 50t11 50.5t11 54q28 147 50 204q3 7 10.5 4.5t4.5 -10.5q-22 -55 -50 -201q-8 -42 -12.5 -64t-13.5 -59.5t-16 -57.5t-19 -47t-25 -41.5t-30 -26t-38 -13.5h-1q-24 -2 -37.5 21.5t-17.5 69.5q-7 78 17 312l10.5 108t6 83t-1.5 68.5
t-13 22.5q-19 -1 -36.5 -20t-34 -62t-29 -82t-28 -111.5t-24 -116.5t-25.5 -130z" />
    <glyph glyph-name="N" unicode="&#xd1;" horiz-adv-x="517" 
d="M110 87q-49 -262 -78 -362q-3 -7 -10.5 -5t-5.5 10q29 98 79 360q16 88 25 133.5t25.5 120t30 114t31.5 83.5t38 63.5t42 20.5h1h1q10 -1 16.5 -12t8.5 -35.5t2.5 -46t-2.5 -63t-5.5 -67t-7.5 -75.5q-24 -233 -17 -310q2 -25 6.5 -41.5t12.5 -26t19 -8.5q16 2 29.5 9
t25 22t20.5 29t17.5 39t14 42.5t12.5 50t11 50.5t11 54q28 147 50 204q3 7 10.5 4.5t4.5 -10.5q-22 -55 -50 -201q-8 -42 -12.5 -64t-13.5 -59.5t-16 -57.5t-19 -47t-25 -41.5t-30 -26t-38 -13.5h-1q-24 -2 -37.5 21.5t-17.5 69.5q-7 78 17 312l10.5 108t6 83t-1.5 68.5
t-13 22.5q-19 -1 -36.5 -20t-34 -62t-29 -82t-28 -111.5t-24 -116.5t-25.5 -130z" />
    <glyph glyph-name="O" unicode="O" horiz-adv-x="475" 
d="M262 532q8 2 10 -5.5t-6 -9.5q-35 -10 -79 -82q48 44 97 67q46 23 85 22q41 -1 65 -27q25 -28 25 -80q0 -56 -19 -138q-43 -187 -131 -340q-104 -181 -207 -181q-12 0 -24 3h-1q-38 12 -52 66q-17 64 -1 176q14 102 51 217q19 57 41 109q-23 -33 -42 -70q-4 -7 -11 -3
t-3 11q36 70 86 126q63 125 116 139zM291 488q-69 -33 -133 -105q-37 -74 -67 -168q-37 -114 -52 -215q-15 -108 1 -168q13 -46 42 -56q10 -2 20 -2q94 0 194 173q86 151 128 335q19 81 19 135q0 46 -21 69q-19 21 -53 22q-35 1 -78 -20z" />
    <glyph glyph-name="O" unicode="&#xd8;" horiz-adv-x="475" 
d="M262 532q8 2 10 -5.5t-6 -9.5q-35 -10 -79 -82q48 44 97 67q46 23 85 22q41 -1 65 -27q25 -28 25 -80q0 -56 -19 -138q-43 -187 -131 -340q-104 -181 -207 -181q-12 0 -24 3h-1q-38 12 -52 66q-17 64 -1 176q14 102 51 217q19 57 41 109q-23 -33 -42 -70q-4 -7 -11 -3
t-3 11q36 70 86 126q63 125 116 139zM291 488q-69 -33 -133 -105q-37 -74 -67 -168q-37 -114 -52 -215q-15 -108 1 -168q13 -46 42 -56q10 -2 20 -2q94 0 194 173q86 151 128 335q19 81 19 135q0 46 -21 69q-19 21 -53 22q-35 1 -78 -20z" />
    <glyph glyph-name="O" unicode="&#xd5;" horiz-adv-x="475" 
d="M262 532q8 2 10 -5.5t-6 -9.5q-35 -10 -79 -82q48 44 97 67q46 23 85 22q41 -1 65 -27q25 -28 25 -80q0 -56 -19 -138q-43 -187 -131 -340q-104 -181 -207 -181q-12 0 -24 3h-1q-38 12 -52 66q-17 64 -1 176q14 102 51 217q19 57 41 109q-23 -33 -42 -70q-4 -7 -11 -3
t-3 11q36 70 86 126q63 125 116 139zM291 488q-69 -33 -133 -105q-37 -74 -67 -168q-37 -114 -52 -215q-15 -108 1 -168q13 -46 42 -56q10 -2 20 -2q94 0 194 173q86 151 128 335q19 81 19 135q0 46 -21 69q-19 21 -53 22q-35 1 -78 -20z" />
    <glyph glyph-name="O" unicode="&#xd4;" horiz-adv-x="475" 
d="M262 532q8 2 10 -5.5t-6 -9.5q-35 -10 -79 -82q48 44 97 67q46 23 85 22q41 -1 65 -27q25 -28 25 -80q0 -56 -19 -138q-43 -187 -131 -340q-104 -181 -207 -181q-12 0 -24 3h-1q-38 12 -52 66q-17 64 -1 176q14 102 51 217q19 57 41 109q-23 -33 -42 -70q-4 -7 -11 -3
t-3 11q36 70 86 126q63 125 116 139zM291 488q-69 -33 -133 -105q-37 -74 -67 -168q-37 -114 -52 -215q-15 -108 1 -168q13 -46 42 -56q10 -2 20 -2q94 0 194 173q86 151 128 335q19 81 19 135q0 46 -21 69q-19 21 -53 22q-35 1 -78 -20z" />
    <glyph glyph-name="O" unicode="&#xd3;" horiz-adv-x="475" 
d="M262 532q8 2 10 -5.5t-6 -9.5q-35 -10 -79 -82q48 44 97 67q46 23 85 22q41 -1 65 -27q25 -28 25 -80q0 -56 -19 -138q-43 -187 -131 -340q-104 -181 -207 -181q-12 0 -24 3h-1q-38 12 -52 66q-17 64 -1 176q14 102 51 217q19 57 41 109q-23 -33 -42 -70q-4 -7 -11 -3
t-3 11q36 70 86 126q63 125 116 139zM291 488q-69 -33 -133 -105q-37 -74 -67 -168q-37 -114 -52 -215q-15 -108 1 -168q13 -46 42 -56q10 -2 20 -2q94 0 194 173q86 151 128 335q19 81 19 135q0 46 -21 69q-19 21 -53 22q-35 1 -78 -20z" />
    <glyph glyph-name="O" unicode="&#xd2;" horiz-adv-x="475" 
d="M262 532q8 2 10 -5.5t-6 -9.5q-35 -10 -79 -82q48 44 97 67q46 23 85 22q41 -1 65 -27q25 -28 25 -80q0 -56 -19 -138q-43 -187 -131 -340q-104 -181 -207 -181q-12 0 -24 3h-1q-38 12 -52 66q-17 64 -1 176q14 102 51 217q19 57 41 109q-23 -33 -42 -70q-4 -7 -11 -3
t-3 11q36 70 86 126q63 125 116 139zM291 488q-69 -33 -133 -105q-37 -74 -67 -168q-37 -114 -52 -215q-15 -108 1 -168q13 -46 42 -56q10 -2 20 -2q94 0 194 173q86 151 128 335q19 81 19 135q0 46 -21 69q-19 21 -53 22q-35 1 -78 -20z" />
    <glyph glyph-name="P" unicode="P" horiz-adv-x="534" 
d="M282 263q0 -1 -1 -1q-18 -72 -54 -220q125 68 218 167q72 76 108 153.5t28 132.5q-3 22 -13 38q-17 28 -52 39q-39 12 -97 4q-146 -22 -382 -165q-2 -1 -5 0l-1 -1q1 -1 43 4q111 12 158 -4t58 -56q39 132 61 139q8 2 10.5 -5.5t-5.5 -9.5q-19 -6 -64 -176
q-3 -18 -10 -39zM209 32q38 160 57 234q0 1 1 2v2l8 28q14 76 -48 97q-44 15 -151 3q-51 -6 -58 2q-7 10 10 24h1q238 146 388 167q62 9 104 -4q41 -13 61 -46q11 -19 15 -43q9 -60 -28.5 -140.5t-111.5 -159.5q-100 -106 -235 -177q-54 -228 -78 -313q-2 -8 -10 -6t-5 10
q24 86 75 300q-48 -24 -98 -42q-8 -2 -10.5 5.5t5.5 10.5q55 19 108 46z" />
    <glyph glyph-name="Q" unicode="Q" horiz-adv-x="475" 
d="M220 170q1 8 9 6.5t7 -9.5q-25 -161 -26 -258q43 44 85 117q87 151 129 335q19 81 19 135q0 46 -21 69q-19 22 -53 22q-35 1 -78 -20q-69 -33 -133 -105q-37 -74 -67 -168q-37 -114 -52 -215q-15 -108 1 -168q13 -46 42 -56q10 -2 20 -2q45 0 92 42q-1 100 26 275z
M309 18q-48 -84 -98 -130q0 -26 3 -47q6 -57 27 -82.5t59 -15.5q8 3 10 -5t-6 -10q-47 -13 -73 16t-33 95q-2 17 -3 36q-47 -38 -93 -38q-12 0 -24 3h-1q-38 13 -52 66q-17 64 -1 176q14 102 51 217q19 57 41 110q-23 -34 -42 -71q-4 -7 -11 -3t-3 11q36 70 86 126
q63 125 116 139q8 2 10 -5.5t-6 -9.5q-35 -10 -79 -82q48 44 97 67q46 23 85 22q41 -1 65 -27q25 -28 25 -80q0 -56 -19 -138q-43 -187 -131 -340z" />
    <glyph glyph-name="R" unicode="R" horiz-adv-x="549" 
d="M374 530q8 3 11 -4.5t-4 -10.5q-44 -20 -122 -240q-39 -107 -79 -246l-5 -21q129 87 233 191q83 82 132.5 157.5t53.5 126.5q2 23 -9 40q-12 21 -39 34q-29 13 -69 16q-143 11 -336 -94q56 8 80 -19t22 -99q-2 -51 -18 -135q9 29 19 54q81 227 130 250zM84 -276v1
q23 98 55 216q-60 -17 -112 -39q-7 -3 -10 3q-4 7 3 11q67 35 133 78q6 20 12 39q59 237 62 328q2 74 -30 94t-103 -2q-8 -2 -10 6q-1 6 4 9q114 68 214.5 97.5t175.5 23.5q44 -3 75 -18t46 -39q13 -23 11 -50q-4 -54 -54.5 -132t-135.5 -163q-112 -111 -251 -202l-5 -21
q30 8 60 14q131 27 236 21q109 -6 126 -45l2 -6q1 -8 -6.5 -9.5t-9.5 6.5q0 1 -1 3q-13 30 -112 35q-103 6 -232 -20q-34 -7 -68 -16q-21 -82 -59 -226q-2 -8 -10 -6q-7 2 -6 9zM115 -49q14 4 29 8l3 12q-16 -11 -32 -20z" />
    <glyph glyph-name="S" unicode="S" horiz-adv-x="395" 
d="M483 614q25 -81 -54 -250q-4 -7 -11 -3.5t-4 10.5q77 163 53 238q-9 29 -34 38t-62 -3q-56 -17 -120.5 -76t-118.5 -147q-54 -89 -78.5 -148.5t-23 -88t22.5 -41.5q18 -11 54 -12t71 3q42 2 78 3t67 -12.5t45 -42.5q18 -42 -39.5 -146.5t-136.5 -193.5q-37 -42 -66 -65
q-34 -26 -52 -22q-13 4 -16 21q-1 8 6.5 9.5t9.5 -6.5q1 -7 4 -8q11 -3 38 19q28 22 64 63q76 86 133 185.5t40 136.5q-11 25 -39.5 36t-62 10t-71.5 -3q-38 -4 -76.5 -2.5t-58.5 13.5q-25 16 -29 47.5t20.5 95t82.5 158.5q54 90 121.5 150.5t125.5 79.5q42 13 73 2
q32 -12 44 -48z" />
    <glyph glyph-name="T" unicode="T" horiz-adv-x="459" 
d="M452 503q-216 -23 -426 -83q-8 -2 -10 5.5t6 9.5q216 62 435 84q9 24 19 50q2 7 9.5 4.5t5.5 -10.5l-16 -42q220 20 312 -13q7 -3 4.5 -10.5t-10.5 -4.5q-89 33 -308 12l-4 -1q-62 -176 -106 -348q-49 -195 -74 -386q-1 -8 -9 -7t-7 9q26 193 75 387q43 171 104 344z" />
    <glyph glyph-name="U" unicode="U" horiz-adv-x="503" 
d="M53 211q33 117 80.5 206.5t85.5 97.5q8 1 9.5 -6.5t-6.5 -9.5q-22 -4 -50.5 -47t-55.5 -107.5t-48 -137.5q-27 -95 -34 -172q-4 -38 -1 -71.5t12 -54.5q15 -33 44 -36h1q14 -2 29.5 5t32.5 26t31.5 38.5t33.5 55t32 61t33.5 71.5t31.5 72t32 75q34 81 52 121t44.5 92
t47 73.5t39.5 19.5q8 -1 7 -9v-1q-22 -80 -96 -302q-120 -361 -133 -454q-8 -52 5 -59q7 -4 3 -11t-11 -3q-11 7 -13.5 30t6.5 67.5t19 84.5t32 111.5t36 114t41 124.5q70 210 92 289q-10 -4 -21 -16.5t-24.5 -36.5t-24.5 -45.5t-28 -60.5t-27.5 -63t-30.5 -72
q-29 -68 -44.5 -103.5t-43 -94.5t-47.5 -91t-44.5 -66.5t-48 -48t-45.5 -10.5q-39 4 -57 45q-21 46 -13 134q7 79 35 175z" />
    <glyph glyph-name="U" unicode="&#xdb;" horiz-adv-x="503" 
d="M53 211q33 117 80.5 206.5t85.5 97.5q8 1 9.5 -6.5t-6.5 -9.5q-22 -4 -50.5 -47t-55.5 -107.5t-48 -137.5q-27 -95 -34 -172q-4 -38 -1 -71.5t12 -54.5q15 -33 44 -36h1q14 -2 29.5 5t32.5 26t31.5 38.5t33.5 55t32 61t33.5 71.5t31.5 72t32 75q34 81 52 121t44.5 92
t47 73.5t39.5 19.5q8 -1 7 -9v-1q-22 -80 -96 -302q-120 -361 -133 -454q-8 -52 5 -59q7 -4 3 -11t-11 -3q-11 7 -13.5 30t6.5 67.5t19 84.5t32 111.5t36 114t41 124.5q70 210 92 289q-10 -4 -21 -16.5t-24.5 -36.5t-24.5 -45.5t-28 -60.5t-27.5 -63t-30.5 -72
q-29 -68 -44.5 -103.5t-43 -94.5t-47.5 -91t-44.5 -66.5t-48 -48t-45.5 -10.5q-39 4 -57 45q-21 46 -13 134q7 79 35 175z" />
    <glyph glyph-name="U" unicode="&#xda;" horiz-adv-x="503" 
d="M53 211q33 117 80.5 206.5t85.5 97.5q8 1 9.5 -6.5t-6.5 -9.5q-22 -4 -50.5 -47t-55.5 -107.5t-48 -137.5q-27 -95 -34 -172q-4 -38 -1 -71.5t12 -54.5q15 -33 44 -36h1q14 -2 29.5 5t32.5 26t31.5 38.5t33.5 55t32 61t33.5 71.5t31.5 72t32 75q34 81 52 121t44.5 92
t47 73.5t39.5 19.5q8 -1 7 -9v-1q-22 -80 -96 -302q-120 -361 -133 -454q-8 -52 5 -59q7 -4 3 -11t-11 -3q-11 7 -13.5 30t6.5 67.5t19 84.5t32 111.5t36 114t41 124.5q70 210 92 289q-10 -4 -21 -16.5t-24.5 -36.5t-24.5 -45.5t-28 -60.5t-27.5 -63t-30.5 -72
q-29 -68 -44.5 -103.5t-43 -94.5t-47.5 -91t-44.5 -66.5t-48 -48t-45.5 -10.5q-39 4 -57 45q-21 46 -13 134q7 79 35 175z" />
    <glyph glyph-name="U" unicode="&#xd9;" horiz-adv-x="503" 
d="M53 211q33 117 80.5 206.5t85.5 97.5q8 1 9.5 -6.5t-6.5 -9.5q-22 -4 -50.5 -47t-55.5 -107.5t-48 -137.5q-27 -95 -34 -172q-4 -38 -1 -71.5t12 -54.5q15 -33 44 -36h1q14 -2 29.5 5t32.5 26t31.5 38.5t33.5 55t32 61t33.5 71.5t31.5 72t32 75q34 81 52 121t44.5 92
t47 73.5t39.5 19.5q8 -1 7 -9v-1q-22 -80 -96 -302q-120 -361 -133 -454q-8 -52 5 -59q7 -4 3 -11t-11 -3q-11 7 -13.5 30t6.5 67.5t19 84.5t32 111.5t36 114t41 124.5q70 210 92 289q-10 -4 -21 -16.5t-24.5 -36.5t-24.5 -45.5t-28 -60.5t-27.5 -63t-30.5 -72
q-29 -68 -44.5 -103.5t-43 -94.5t-47.5 -91t-44.5 -66.5t-48 -48t-45.5 -10.5q-39 4 -57 45q-21 46 -13 134q7 79 35 175z" />
    <glyph glyph-name="V" unicode="V" horiz-adv-x="371" 
d="M66 295q30 117 70 188q4 7 10.5 3t3.5 -11q-39 -69 -69 -184q-43 -166 -48 -334q-6 -166 28 -185l2 -2q14 -3 38.5 33t64.5 122t68 150t82 191q136 321 189 417q4 7 11 3t3 -11q-53 -95 -189 -415q-36 -86 -55 -129.5t-50.5 -115.5t-51 -109.5t-43 -78.5t-40.5 -57.5
t-29 -14.5h-1h-1q-3 1 -6 3q-21 11 -30 65t-6 134q5 170 49 338z" />
    <glyph glyph-name="W" unicode="W" horiz-adv-x="583" 
d="M82 156q52 154 121 303.5t95 173.5q6 5 11 -1t-1 -11q-25 -23 -92.5 -170.5t-118.5 -300.5q-48 -143 -61 -237q-14 -106 18 -131q8 -5 17 -6q15 -2 30 5.5t30.5 26.5t29.5 38.5t30.5 54t28 59.5t28.5 68t26 66.5t25 67.5q14 37 21 55t18 46.5t18.5 43t16 30t16 22
t13.5 5.5q27 -1 22 -89q-1 -29 -8 -97q-11 -102 -11 -144q0 -25 1.5 -42t6.5 -27.5t13 -10.5t17 6q55 38 108 233q21 79 32.5 154.5t9.5 113.5q-1 16 -4 21q-5 6 1.5 10.5t11.5 -1.5q5 -9 7 -29q2 -39 -10 -116t-33 -157q-24 -89 -53.5 -155t-60.5 -87q-13 -9 -25 -9h-1
q-38 0 -37 96q1 43 11 146q7 67 8 95q4 73 -7 73q-5 1 -13.5 -12.5t-21.5 -45.5t-23 -57t-29 -77q-17 -45 -26 -69t-26.5 -68.5t-30 -70t-30 -60.5t-32 -55.5t-31.5 -40t-34 -27t-34 -5.5h-1q-14 2 -24 10q-40 30 -25 145q13 95 62 241z" />
    <glyph glyph-name="X" unicode="X" horiz-adv-x="374" 
d="M197 82q-44 135 -25 399q1 8 8.5 7.5t7.5 -8.5q-18 -248 20 -379q87 145 157 249q51 75 83 114q39 47 54 39q4 -2 6 -5q4 -7 -3 -11t-11 2q-5 0 -34 -35q-32 -39 -81 -112q-74 -109 -164 -261q39 -113 129 -129q8 -1 6.5 -9t-9.5 -6q-94 16 -137 126q-159 -269 -172 -323
q-2 -7 -10 -5t-6 9q7 26 58.5 122t122.5 216z" />
    <glyph glyph-name="Y" unicode="Y" horiz-adv-x="592" 
d="M223 371q6 -5 1 -11t-11 -1q-18 15 -55 -30q-45 -55 -84 -154q-41 -102 -42 -169q-1 -61 35 -62q19 -1 40 10t46 37t45 50t50 69t47 71.5t49 77.5q41 66 62.5 99.5t51.5 73t51 55.5q41 31 65 -1v-1l1 -1q18 -34 -26 -182.5t-119 -325.5q80 79 191 179q6 6 11.5 0
t-0.5 -11q-129 -118 -219 -207q-32 -73 -64 -136q-52 -103 -94 -164q-47 -70 -78 -78q-16 -5 -28 7q-54 51 128 253q52 57 123 128q80 181 129.5 339t31.5 191q-15 18 -42 -2q-15 -12 -33 -33t-42 -56.5t-40 -60.5t-47 -74q-24 -39 -37 -59.5t-36.5 -57t-38.5 -56.5
t-37 -48.5t-38 -44t-35 -31t-36 -21.5t-33 -5q-51 2 -50 78q1 70 43 175q40 101 87 158t77 32zM242 -354q42 60 92 162q24 46 47 98q-52 -53 -92 -98q-172 -190 -129 -230v-1q5 -5 13 -3q25 7 69 72z" />
    <glyph glyph-name="Y" unicode="&#x178;" horiz-adv-x="592" 
d="M223 371q6 -5 1 -11t-11 -1q-18 15 -55 -30q-45 -55 -84 -154q-41 -102 -42 -169q-1 -61 35 -62q19 -1 40 10t46 37t45 50t50 69t47 71.5t49 77.5q41 66 62.5 99.5t51.5 73t51 55.5q41 31 65 -1v-1l1 -1q18 -34 -26 -182.5t-119 -325.5q80 79 191 179q6 6 11.5 0
t-0.5 -11q-129 -118 -219 -207q-32 -73 -64 -136q-52 -103 -94 -164q-47 -70 -78 -78q-16 -5 -28 7q-54 51 128 253q52 57 123 128q80 181 129.5 339t31.5 191q-15 18 -42 -2q-15 -12 -33 -33t-42 -56.5t-40 -60.5t-47 -74q-24 -39 -37 -59.5t-36.5 -57t-38.5 -56.5
t-37 -48.5t-38 -44t-35 -31t-36 -21.5t-33 -5q-51 2 -50 78q1 70 43 175q40 101 87 158t77 32zM242 -354q42 60 92 162q24 46 47 98q-52 -53 -92 -98q-172 -190 -129 -230v-1q5 -5 13 -3q25 7 69 72z" />
    <glyph glyph-name="Y" unicode="&#xdd;" horiz-adv-x="592" 
d="M223 371q6 -5 1 -11t-11 -1q-18 15 -55 -30q-45 -55 -84 -154q-41 -102 -42 -169q-1 -61 35 -62q19 -1 40 10t46 37t45 50t50 69t47 71.5t49 77.5q41 66 62.5 99.5t51.5 73t51 55.5q41 31 65 -1v-1l1 -1q18 -34 -26 -182.5t-119 -325.5q80 79 191 179q6 6 11.5 0
t-0.5 -11q-129 -118 -219 -207q-32 -73 -64 -136q-52 -103 -94 -164q-47 -70 -78 -78q-16 -5 -28 7q-54 51 128 253q52 57 123 128q80 181 129.5 339t31.5 191q-15 18 -42 -2q-15 -12 -33 -33t-42 -56.5t-40 -60.5t-47 -74q-24 -39 -37 -59.5t-36.5 -57t-38.5 -56.5
t-37 -48.5t-38 -44t-35 -31t-36 -21.5t-33 -5q-51 2 -50 78q1 70 43 175q40 101 87 158t77 32zM242 -354q42 60 92 162q24 46 47 98q-52 -53 -92 -98q-172 -190 -129 -230v-1q5 -5 13 -3q25 7 69 72z" />
    <glyph glyph-name="Z" unicode="Z" horiz-adv-x="448" 
d="M456 526q-47 -25 -97.5 -58t-92 -64t-68.5 -58.5t-28 -40.5q-1 -8 -9 -7t-7 9q3 30 98.5 104.5t195.5 129.5q53 29 92 42q44 15 64 7q14 -6 16 -21q4 -24 -6 -57t-38 -77.5t-54 -82t-75 -97.5t-79 -94.5t-87 -100.5q-72 -83 -108.5 -126t-79 -99.5t-58.5 -89.5l-4 -11
q5 -2 17.5 3.5t37.5 21t43 27.5t55 37q38 26 58.5 39.5t55.5 35.5t56 32t45 19.5t39 8t22 -11.5q5 -7 -1.5 -11.5t-11.5 2.5q-21 30 -254 -127q-39 -26 -58 -39t-46 -29t-41.5 -21t-22.5 -2q-15 6 -5 32q17 35 60 92t80 100.5t109 127.5q57 64 86 98.5t77.5 93t74 95.5
t53.5 80.5t38 74.5t6 53q-1 7 -6 9q-15 6 -53 -8q-37 -12 -89 -41z" />
    <glyph glyph-name="bracketleft" unicode="[" horiz-adv-x="183" 
d="M162 540q9 -3 5 -10.5t-13 -4.5q-12 5 -26 4q-27 -3 -30 -28l-63 -456v-1q-2 -13 5 -19q13 -13 48 -10q15 2 28 6q9 3 12 -5t-6 -11q-15 -4 -32 -6q-45 -4 -64 15q-13 12 -9 33l62 456q5 31 36 40q23 7 47 -3z" />
    <glyph glyph-name="backslash" unicode="\" horiz-adv-x="255" 
d="M238 -16q3 -8 -6 -10.5t-12 5.5l-204 579q-2 8 7 10.5t11 -5.5z" />
    <glyph glyph-name="bracketright" unicode="]" horiz-adv-x="183" 
d="M157 530q13 -12 10 -33l-63 -456q-4 -31 -35 -40q-24 -7 -47 3q-9 3 -5 10.5t12 4.5q13 -5 26 -4q27 3 30 28l63 456v1q2 13 -5 19q-12 13 -48 10q-14 -2 -28 -6q-9 -3 -12 5t6 11q16 4 32 6q45 4 64 -15z" />
    <glyph glyph-name="asciicircum" unicode="^" horiz-adv-x="193" 
d="M173 497q8 -36 0 -100q-1 -10 -10 -8.5t-8 10.5q7 61 0 94q-5 25 -17 28q-17 5 -46 -26q-30 -33 -52 -83l-6 -14q-3 -9 -12 -5.5t-5 12.5q2 7 6 14q23 53 55 89q37 39 65 31q23 -6 30 -42z" />
    <glyph glyph-name="underscore" unicode="_" horiz-adv-x="309" 
d="M283 -53q10 0 10 -8.5t-10 -8.5h-258q-9 0 -9 8.5t9 8.5h258z" />
    <glyph glyph-name="grave" unicode="`" horiz-adv-x="82" 
d="M65 457q4 -8 -5 -11.5t-12 5.5l-31 85q-4 9 5 12.5t12 -5.5z" />
    <glyph glyph-name="a" unicode="a" horiz-adv-x="245" 
d="M29 137q16 29 42 48.5t54 16.5q8 0 7.5 -8t-8.5 -8q-23 2 -45 -15t-36 -42q-8 -16 -10 -29t2 -18v-1q5 -6 21 -3q28 7 68 72q12 19 16 23q6 5 11 -1q3 -3 2 -6q0 -3 -7 -18q-11 -22 -16 -34q-10 -25 -7 -36q2 -6 10 -6q10 0 28 7q28 11 62.5 34t46.5 38q6 6 12 0.5
t0 -11.5q-13 -15 -49 -39.5t-66 -36.5q-21 -8 -35 -8q-19 1 -24 18q-3 9 0 24q-24 -30 -48 -35l-1 -1q-25 -5 -36 9l-1 1q-8 11 -5 30q2 16 12 35z" />
    <glyph glyph-name="a" unicode="&#xe5;" horiz-adv-x="245" 
d="M29 137q16 29 42 48.5t54 16.5q8 0 7.5 -8t-8.5 -8q-23 2 -45 -15t-36 -42q-8 -16 -10 -29t2 -18v-1q5 -6 21 -3q28 7 68 72q12 19 16 23q6 5 11 -1q3 -3 2 -6q0 -3 -7 -18q-11 -22 -16 -34q-10 -25 -7 -36q2 -6 10 -6q10 0 28 7q28 11 62.5 34t46.5 38q6 6 12 0.5
t0 -11.5q-13 -15 -49 -39.5t-66 -36.5q-21 -8 -35 -8q-19 1 -24 18q-3 9 0 24q-24 -30 -48 -35l-1 -1q-25 -5 -36 9l-1 1q-8 11 -5 30q2 16 12 35z" />
    <glyph glyph-name="a" unicode="&#xe3;" horiz-adv-x="245" 
d="M29 137q16 29 42 48.5t54 16.5q8 0 7.5 -8t-8.5 -8q-23 2 -45 -15t-36 -42q-8 -16 -10 -29t2 -18v-1q5 -6 21 -3q28 7 68 72q12 19 16 23q6 5 11 -1q3 -3 2 -6q0 -3 -7 -18q-11 -22 -16 -34q-10 -25 -7 -36q2 -6 10 -6q10 0 28 7q28 11 62.5 34t46.5 38q6 6 12 0.5
t0 -11.5q-13 -15 -49 -39.5t-66 -36.5q-21 -8 -35 -8q-19 1 -24 18q-3 9 0 24q-24 -30 -48 -35l-1 -1q-25 -5 -36 9l-1 1q-8 11 -5 30q2 16 12 35z" />
    <glyph glyph-name="a" unicode="&#xe2;" horiz-adv-x="245" 
d="M29 137q16 29 42 48.5t54 16.5q8 0 7.5 -8t-8.5 -8q-23 2 -45 -15t-36 -42q-8 -16 -10 -29t2 -18v-1q5 -6 21 -3q28 7 68 72q12 19 16 23q6 5 11 -1q3 -3 2 -6q0 -3 -7 -18q-11 -22 -16 -34q-10 -25 -7 -36q2 -6 10 -6q10 0 28 7q28 11 62.5 34t46.5 38q6 6 12 0.5
t0 -11.5q-13 -15 -49 -39.5t-66 -36.5q-21 -8 -35 -8q-19 1 -24 18q-3 9 0 24q-24 -30 -48 -35l-1 -1q-25 -5 -36 9l-1 1q-8 11 -5 30q2 16 12 35z" />
    <glyph glyph-name="a" unicode="&#xe1;" horiz-adv-x="245" 
d="M29 137q16 29 42 48.5t54 16.5q8 0 7.5 -8t-8.5 -8q-23 2 -45 -15t-36 -42q-8 -16 -10 -29t2 -18v-1q5 -6 21 -3q28 7 68 72q12 19 16 23q6 5 11 -1q3 -3 2 -6q0 -3 -7 -18q-11 -22 -16 -34q-10 -25 -7 -36q2 -6 10 -6q10 0 28 7q28 11 62.5 34t46.5 38q6 6 12 0.5
t0 -11.5q-13 -15 -49 -39.5t-66 -36.5q-21 -8 -35 -8q-19 1 -24 18q-3 9 0 24q-24 -30 -48 -35l-1 -1q-25 -5 -36 9l-1 1q-8 11 -5 30q2 16 12 35z" />
    <glyph glyph-name="a" unicode="&#xe0;" horiz-adv-x="245" 
d="M29 137q16 29 42 48.5t54 16.5q8 0 7.5 -8t-8.5 -8q-23 2 -45 -15t-36 -42q-8 -16 -10 -29t2 -18v-1q5 -6 21 -3q28 7 68 72q12 19 16 23q6 5 11 -1q3 -3 2 -6q0 -3 -7 -18q-11 -22 -16 -34q-10 -25 -7 -36q2 -6 10 -6q10 0 28 7q28 11 62.5 34t46.5 38q6 6 12 0.5
t0 -11.5q-13 -15 -49 -39.5t-66 -36.5q-21 -8 -35 -8q-19 1 -24 18q-3 9 0 24q-24 -30 -48 -35l-1 -1q-25 -5 -36 9l-1 1q-8 11 -5 30q2 16 12 35z" />
    <glyph glyph-name="b" unicode="b" horiz-adv-x="163" 
d="M68 500q1 8 9 7t7 -9l-56 -376q5 1 11 1q13 23 27 43q43 64 70 73q20 7 28 -11q5 -13 0 -34q-3 -16 -11 -32t-21.5 -29t-28.5 -18q-14 -4 -49 -7h-5q-2 -3 -4 -7q-16 -31 -30 -65q-2 -7 -9 -6q-8 1 -6 9l9 65l-6 -1q-8 -1 -9 7t7 9q5 1 11 1zM26 106l-2 -11q3 6 6 11h-4z
M141 224q-21 -7 -62 -67q-11 -15 -21 -32q29 2 40 5q13 4 23.5 15.5t17 24.5t9.5 27q4 17 1 25q-2 4 -8 2z" />
    <glyph glyph-name="c" unicode="c" horiz-adv-x="152" 
d="M124 201q11 -4 16 -18q3 -7 -4 -10t-10 4q-4 8 -8 10q-6 2 -16 -4q-11 -6 -25 -21q-20 -23 -36.5 -53.5t-17.5 -50.5q0 -5 4 -8q5 -4 16 -5q12 -1 27 4q43 11 55 39q3 7 10.5 4t3.5 -11q-14 -34 -64 -48q-18 -5 -32 -4q-17 1 -26.5 8.5t-9.5 20.5v1q1 22 18.5 55.5
t39.5 58.5q15 17 29 24q17 10 30 4z" />
    <glyph glyph-name="c" unicode="&#xe7;" horiz-adv-x="152" 
d="M124 201q11 -4 16 -18q3 -7 -4 -10t-10 4q-4 8 -8 10q-6 2 -16 -4q-11 -6 -25 -21q-20 -23 -36.5 -53.5t-17.5 -50.5q0 -5 4 -8q5 -4 16 -5q12 -1 27 4q43 11 55 39q3 7 10.5 4t3.5 -11q-14 -34 -64 -48q-18 -5 -32 -4q-17 1 -26.5 8.5t-9.5 20.5v1q1 22 18.5 55.5
t39.5 58.5q15 17 29 24q17 10 30 4z" />
    <glyph glyph-name="d" unicode="d" horiz-adv-x="280" 
d="M107 163q4 -7 -3.5 -10.5t-10.5 3.5q-11 22 -24 16q-13 -7 -24 -30q-12 -23 -13 -43q-1 -19 8 -20q26 2 65 71q5 8 9 16q22 82 49 147q20 49 33 65q7 9 14 8q8 -3 7 -15q-3 -19 -23 -68q-39 -93 -65 -143q-10 -39 -16 -72q-17 -91 1 -100h1q26 -13 78 29q33 27 65.5 67
t46.5 65q4 7 11 3.5t3 -10.5q-15 -27 -48.5 -68.5t-67.5 -69.5q-60 -48 -95 -31h-1q-28 15 -10 118q2 11 5 23q-34 -49 -61 -51h-1q-26 2 -24 37q1 23 14 49q14 28 32 37q27 13 45 -23zM177 307q-6 -15 -13 -34q7 17 15 36q6 14 11 26q-6 -12 -13 -28z" />
    <glyph glyph-name="e" unicode="e" horiz-adv-x="202" 
d="M41 129q37 9 65 41q10 10 14 20q3 8 0 12q-2 4 -8 6q-18 6 -40 -21q-13 -17 -23 -40zM134 184q-4 -12 -16 -25q-15 -17 -38 -30.5t-44 -16.5q-1 -5 -2 -9q-8 -40 8 -49q20 -11 75 18q30 15 59 37.5t44 41.5q6 6 12 1t1 -12q-11 -12 -28.5 -27t-38.5 -30t-42 -26
q-62 -31 -90 -17q-25 14 -15 66q4 24 15 48q11 25 26 43q29 36 57 26q13 -4 18 -14q5 -11 -1 -25z" />
    <glyph glyph-name="e" unicode="&#xeb;" horiz-adv-x="202" 
d="M41 129q37 9 65 41q10 10 14 20q3 8 0 12q-2 4 -8 6q-18 6 -40 -21q-13 -17 -23 -40zM134 184q-4 -12 -16 -25q-15 -17 -38 -30.5t-44 -16.5q-1 -5 -2 -9q-8 -40 8 -49q20 -11 75 18q30 15 59 37.5t44 41.5q6 6 12 1t1 -12q-11 -12 -28.5 -27t-38.5 -30t-42 -26
q-62 -31 -90 -17q-25 14 -15 66q4 24 15 48q11 25 26 43q29 36 57 26q13 -4 18 -14q5 -11 -1 -25z" />
    <glyph glyph-name="e" unicode="&#xea;" horiz-adv-x="202" 
d="M41 129q37 9 65 41q10 10 14 20q3 8 0 12q-2 4 -8 6q-18 6 -40 -21q-13 -17 -23 -40zM134 184q-4 -12 -16 -25q-15 -17 -38 -30.5t-44 -16.5q-1 -5 -2 -9q-8 -40 8 -49q20 -11 75 18q30 15 59 37.5t44 41.5q6 6 12 1t1 -12q-11 -12 -28.5 -27t-38.5 -30t-42 -26
q-62 -31 -90 -17q-25 14 -15 66q4 24 15 48q11 25 26 43q29 36 57 26q13 -4 18 -14q5 -11 -1 -25z" />
    <glyph glyph-name="e" unicode="&#xe9;" horiz-adv-x="202" 
d="M41 129q37 9 65 41q10 10 14 20q3 8 0 12q-2 4 -8 6q-18 6 -40 -21q-13 -17 -23 -40zM134 184q-4 -12 -16 -25q-15 -17 -38 -30.5t-44 -16.5q-1 -5 -2 -9q-8 -40 8 -49q20 -11 75 18q30 15 59 37.5t44 41.5q6 6 12 1t1 -12q-11 -12 -28.5 -27t-38.5 -30t-42 -26
q-62 -31 -90 -17q-25 14 -15 66q4 24 15 48q11 25 26 43q29 36 57 26q13 -4 18 -14q5 -11 -1 -25z" />
    <glyph glyph-name="e" unicode="&#xe8;" horiz-adv-x="202" 
d="M41 129q37 9 65 41q10 10 14 20q3 8 0 12q-2 4 -8 6q-18 6 -40 -21q-13 -17 -23 -40zM134 184q-4 -12 -16 -25q-15 -17 -38 -30.5t-44 -16.5q-1 -5 -2 -9q-8 -40 8 -49q20 -11 75 18q30 15 59 37.5t44 41.5q6 6 12 1t1 -12q-11 -12 -28.5 -27t-38.5 -30t-42 -26
q-62 -31 -90 -17q-25 14 -15 66q4 24 15 48q11 25 26 43q29 36 57 26q13 -4 18 -14q5 -11 -1 -25z" />
    <glyph glyph-name="f" unicode="f" horiz-adv-x="90" 
d="M185 441q4 -3 5 -10q3 -7 -5 -9.5t-10 5.5v1q-1 1 -9.5 -9t-11.5 -15q-10 -17 -25.5 -52.5t-34.5 -86.5q61 10 78 12q8 1 9 -7t-7 -9q-24 -3 -86 -13q-59 -166 -88 -286q-2 -7 -9.5 -5.5t-6.5 9.5q28 116 86 278q-15 -2 -27 -5q-55 -11 -62 -19q-5 -6 -11 -1t-1 11
q10 12 71 25q16 3 36 7q21 57 38 96q15 36 26 54q8 13 23.5 23.5t21.5 5.5z" />
    <glyph glyph-name="g" unicode="g" horiz-adv-x="266" 
d="M140 204q7 -4 3 -11t-11 -3q-16 9 -46 -7q-34 -19 -53 -49q-10 -17 -9 -31q1 -9 6 -14.5t13 -7.5q13 -3 29 3q11 4 22 12.5t22.5 22t18.5 23t19 25.5q12 17 18.5 25.5t15.5 17t16 10.5h2q4 0 7 -1h1q13 -6 8 -36q-3 -23 -16 -62l-2 -6q44 21 90 38q7 3 10 -4.5t-5 -10.5
q-53 -19 -103 -45q-28 -74 -72 -161t-87 -150q-59 -85 -106 -95q-20 -4 -35 8q-14 10 -20 31q-9 25 -3 62t25 72q47 84 157 166q60 44 128 79q4 11 8 21q12 38 16 60q2 16 0 18q-9 -3 -40 -46q-17 -24 -27 -37t-28 -29.5t-34 -22.5q-21 -8 -39 -4q-13 3 -21.5 13t-9.5 24
q-1 19 12 40q20 34 58 55q38 20 62 7zM207 204zM-72 -297q40 8 96 88q40 59 81.5 139t69.5 152q-59 -31 -110 -69q-108 -80 -153 -161q-18 -32 -23 -65.5t2 -55.5q5 -16 14.5 -23.5t22.5 -4.5z" />
    <glyph glyph-name="h" unicode="h" horiz-adv-x="112" 
d="M6 178h1q27 94 45.5 153.5t44 133t45.5 110t35 35.5q1 0 2 -1h2q14 -7 2 -52q-10 -35 -32 -95q-53 -138 -115 -261q17 18 32 13t35 -39q11 -19 16 -24q6 -6 12 0t11.5 0.5t0.5 -11.5q-17 -18 -35 -1q-7 7 -19 28q-17 29 -26 32q-8 2 -17.5 -8.5t-24.5 -44.5t-34 -92v-1
q-3 -7 -10.5 -5t-5.5 10q10 33 29 98zM174 594q-15 3 -48 -88t-78 -244q51 109 88 206q22 59 31 93q8 31 7 33z" />
    <glyph glyph-name="i" unicode="i" horiz-adv-x="133" 
d="M51 190q4 6 11 2t2 -11q-4 -6 -12 -27q-11 -26 -17 -45q-5 -15 -2 -24q2 -7 8 -9q9 -3 23 -1q38 6 91 43q6 5 10.5 -1.5t-1.5 -11.5q-56 -39 -98 -46q-18 -3 -30 2q-15 6 -19 20q-3 14 3 33t17 46q9 22 14 30zM71.5 233q5.5 3 10.5 0.5t7 -8.5q1 -6 -1 -12q-3 -6 -8 -9
h-1q-5 -3 -10 -1t-7 8t1 12.5t8.5 9.5z" />
    <glyph glyph-name="i" unicode="&#xef;" horiz-adv-x="133" 
d="M51 190q4 6 11 2t2 -11q-4 -6 -12 -27q-11 -26 -17 -45q-5 -15 -2 -24q2 -7 8 -9q9 -3 23 -1q38 6 91 43q6 5 10.5 -1.5t-1.5 -11.5q-56 -39 -98 -46q-18 -3 -30 2q-15 6 -19 20q-3 14 3 33t17 46q9 22 14 30zM71.5 233q5.5 3 10.5 0.5t7 -8.5q1 -6 -1 -12q-3 -6 -8 -9
h-1q-5 -3 -10 -1t-7 8t1 12.5t8.5 9.5z" />
    <glyph glyph-name="i" unicode="&#xee;" horiz-adv-x="133" 
d="M51 190q4 6 11 2t2 -11q-4 -6 -12 -27q-11 -26 -17 -45q-5 -15 -2 -24q2 -7 8 -9q9 -3 23 -1q38 6 91 43q6 5 10.5 -1.5t-1.5 -11.5q-56 -39 -98 -46q-18 -3 -30 2q-15 6 -19 20q-3 14 3 33t17 46q9 22 14 30zM71.5 233q5.5 3 10.5 0.5t7 -8.5q1 -6 -1 -12q-3 -6 -8 -9
h-1q-5 -3 -10 -1t-7 8t1 12.5t8.5 9.5z" />
    <glyph glyph-name="i" unicode="&#xed;" horiz-adv-x="133" 
d="M51 190q4 6 11 2t2 -11q-4 -6 -12 -27q-11 -26 -17 -45q-5 -15 -2 -24q2 -7 8 -9q9 -3 23 -1q38 6 91 43q6 5 10.5 -1.5t-1.5 -11.5q-56 -39 -98 -46q-18 -3 -30 2q-15 6 -19 20q-3 14 3 33t17 46q9 22 14 30zM71.5 233q5.5 3 10.5 0.5t7 -8.5q1 -6 -1 -12q-3 -6 -8 -9
h-1q-5 -3 -10 -1t-7 8t1 12.5t8.5 9.5z" />
    <glyph glyph-name="i" unicode="&#xec;" horiz-adv-x="133" 
d="M51 190q4 6 11 2t2 -11q-4 -6 -12 -27q-11 -26 -17 -45q-5 -15 -2 -24q2 -7 8 -9q9 -3 23 -1q38 6 91 43q6 5 10.5 -1.5t-1.5 -11.5q-56 -39 -98 -46q-18 -3 -30 2q-15 6 -19 20q-3 14 3 33t17 46q9 22 14 30zM71.5 233q5.5 3 10.5 0.5t7 -8.5q1 -6 -1 -12q-3 -6 -8 -9
h-1q-5 -3 -10 -1t-7 8t1 12.5t8.5 9.5z" />
    <glyph glyph-name="j" unicode="j" horiz-adv-x="227" 
d="M134 210q2 8 9.5 7t6.5 -9q-9 -55 -26 -127q68 47 128 72q8 3 11 -4.5t-5 -10.5q-67 -28 -140 -81q-21 -80 -46 -148q-53 -151 -106 -186q-22 -15 -39 -5q-16 8 -21 34q-6 29 5 72t39 88q43 68 124 132q14 12 30 23q21 81 30 143zM156 266.5q5 -2.5 7 -8.5v-1
q2 -5 -1 -11q-2 -6 -8 -9l-1 -1q-5 -2 -9 0q-6 2 -7.5 8t1 12.5t8 9.5t10.5 0.5zM-43 -264q49 33 100 178q21 60 40 128q-7 -5 -13 -10q-79 -63 -121 -129q-26 -42 -36.5 -82t-4.5 -66q3 -18 12 -23t23 4z" />
    <glyph glyph-name="k" unicode="k" horiz-adv-x="262" 
d="M25 243q23 92 69 224q3 7 10.5 4.5t4.5 -10.5q-45 -130 -69 -222q-22 -89 -34 -173q28 63 63 106q17 21 32 31q18 12 32 8q5 -1 10 -5q16 -13 -16 -51q-8 -10 -27 -32q-45 -51 -55 -70q-8 -17 3 -22q9 -5 39.5 3t68.5 27q70 34 129 90q6 6 11.5 0t-0.5 -11
q-61 -58 -133 -93q-28 -14 -54.5 -22.5t-42.5 -10t-25 1.5q-25 12 -10 44q10 21 57 74q19 21 27 31q21 26 18 29l-4 2q-7 2 -19 -7q-13 -8 -28 -27q-26 -31 -49.5 -78t-33.5 -89q-2 -7 -9 -6q-8 0 -7 8q9 119 42 246z" />
    <glyph glyph-name="l" unicode="l" horiz-adv-x="156" 
d="M15 135v1q4 27 12 55q31 121 81 231q49 108 77 106q5 0 9 -3q13 -10 5 -48q-7 -30 -27 -79q-30 -77 -75 -161.5t-67 -106.5q-11 -68 1 -103q5 -17 14.5 -21.5t24.5 4.5q43 25 101 135q4 7 11 3.5t3 -10.5q-60 -115 -107 -142q-22 -13 -39 -5q-16 7 -24 31q-12 39 0 113z
M42 187q-3 -11 -5 -22q25 37 60.5 107t60.5 132q18 47 25 77q6 28 2 31h-1q-17 2 -61 -97q-50 -108 -81 -228z" />
    <glyph glyph-name="m" unicode="m" horiz-adv-x="227" 
d="M45 264q1 8 9 6.5t7 -9.5q-6 -32 -20 -98q-7 -37 -10 -53q8 26 16 46q21 55 37 74q7 10 14 10q11 1 14 -13q4 -18 -4 -74q-2 -11 -7 -33q-5 -26 -6 -35v-6q5 0 20 51l1 1q13 43 26 60q6 9 12 10q10 1 14 -11q4 -14 -1 -57q-2 -18 2 -26q2 -4 6 -5q6 0 15 5q26 14 51 44
q5 6 11 1t1 -12q-26 -32 -55 -47q-13 -7 -23 -6q-14 0 -20 13q-6 12 -4 35q4 32 2 45q-11 -16 -22 -53v-2q-5 -16 -8 -23.5t-7.5 -18.5t-10 -15.5t-11.5 -3.5q-15 0 -15 22q1 9 7 37q4 21 6 32q7 49 5 66l-1 -1q-14 -18 -34 -70q-15 -37 -36 -111q-14 -47 -19 -56
q-2 -6 -8 -5q-8 1 -7 9q7 45 34 179q14 71 19 98zM99 224z" />
    <glyph glyph-name="n" unicode="n" horiz-adv-x="200" 
d="M23 91q28 121 45 131q7 4 11 -3t-3 -11q-6 -3 -15 -33q2 5 5 10q28 51 55 40q1 0 2 -1q11 -5 15.5 -19.5t8.5 -40.5q6 -39 13 -46q13 -13 57 33q6 6 11.5 0.5t0.5 -11.5q-56 -57 -80 -34q-11 11 -18 56q-6 43 -16 48q-14 6 -35 -33q-17 -31 -49 -117q-2 -7 -9 -5
q-8 2 -6 10q2 5 7 26z" />
    <glyph glyph-name="n" unicode="&#xf1;" horiz-adv-x="200" 
d="M23 91q28 121 45 131q7 4 11 -3t-3 -11q-6 -3 -15 -33q2 5 5 10q28 51 55 40q1 0 2 -1q11 -5 15.5 -19.5t8.5 -40.5q6 -39 13 -46q13 -13 57 33q6 6 11.5 0.5t0.5 -11.5q-56 -57 -80 -34q-11 11 -18 56q-6 43 -16 48q-14 6 -35 -33q-17 -31 -49 -117q-2 -7 -9 -5
q-8 2 -6 10q2 5 7 26z" />
    <glyph glyph-name="o" unicode="o" horiz-adv-x="241" 
d="M124 182q8 -2 6 -9.5t-9 -5.5q-25 5 -57 -37q-14 -18 -23 -38t-9 -35t9 -20q3 -1 7 -1q26 -3 55 21q29 25 38 56q2 4 2 8q-5 2 -9 4q-15 8 -15 22q1 12 11 17v1q12 6 22 -3q9 -9 8 -30q23 -5 47 -3q35 4 56 23q6 5 11.5 -1t-0.5 -12q-26 -21 -65 -25q-26 -3 -50 2l-2 -8
q-11 -35 -43 -63q-35 -29 -68 -25q-5 0 -10 2h-2q-19 10 -18 36q0 18 11 41q9 21 24 41q39 50 73 42zM142 139q1 -1 2 -1q0 9 -3 13q-1 1 -3 0q-3 -2 -3 -4q0 -4 7 -8z" />
    <glyph glyph-name="o" unicode="&#xf8;" horiz-adv-x="241" 
d="M124 182q8 -2 6 -9.5t-9 -5.5q-25 5 -57 -37q-14 -18 -23 -38t-9 -35t9 -20q3 -1 7 -1q26 -3 55 21q29 25 38 56q2 4 2 8q-5 2 -9 4q-15 8 -15 22q1 12 11 17v1q12 6 22 -3q9 -9 8 -30q23 -5 47 -3q35 4 56 23q6 5 11.5 -1t-0.5 -12q-26 -21 -65 -25q-26 -3 -50 2l-2 -8
q-11 -35 -43 -63q-35 -29 -68 -25q-5 0 -10 2h-2q-19 10 -18 36q0 18 11 41q9 21 24 41q39 50 73 42zM142 139q1 -1 2 -1q0 9 -3 13q-1 1 -3 0q-3 -2 -3 -4q0 -4 7 -8z" />
    <glyph glyph-name="o" unicode="&#xf5;" horiz-adv-x="241" 
d="M124 182q8 -2 6 -9.5t-9 -5.5q-25 5 -57 -37q-14 -18 -23 -38t-9 -35t9 -20q3 -1 7 -1q26 -3 55 21q29 25 38 56q2 4 2 8q-5 2 -9 4q-15 8 -15 22q1 12 11 17v1q12 6 22 -3q9 -9 8 -30q23 -5 47 -3q35 4 56 23q6 5 11.5 -1t-0.5 -12q-26 -21 -65 -25q-26 -3 -50 2l-2 -8
q-11 -35 -43 -63q-35 -29 -68 -25q-5 0 -10 2h-2q-19 10 -18 36q0 18 11 41q9 21 24 41q39 50 73 42zM142 139q1 -1 2 -1q0 9 -3 13q-1 1 -3 0q-3 -2 -3 -4q0 -4 7 -8z" />
    <glyph glyph-name="o" unicode="&#xf4;" horiz-adv-x="241" 
d="M124 182q8 -2 6 -9.5t-9 -5.5q-25 5 -57 -37q-14 -18 -23 -38t-9 -35t9 -20q3 -1 7 -1q26 -3 55 21q29 25 38 56q2 4 2 8q-5 2 -9 4q-15 8 -15 22q1 12 11 17v1q12 6 22 -3q9 -9 8 -30q23 -5 47 -3q35 4 56 23q6 5 11.5 -1t-0.5 -12q-26 -21 -65 -25q-26 -3 -50 2l-2 -8
q-11 -35 -43 -63q-35 -29 -68 -25q-5 0 -10 2h-2q-19 10 -18 36q0 18 11 41q9 21 24 41q39 50 73 42zM142 139q1 -1 2 -1q0 9 -3 13q-1 1 -3 0q-3 -2 -3 -4q0 -4 7 -8z" />
    <glyph glyph-name="o" unicode="&#xf3;" horiz-adv-x="241" 
d="M124 182q8 -2 6 -9.5t-9 -5.5q-25 5 -57 -37q-14 -18 -23 -38t-9 -35t9 -20q3 -1 7 -1q26 -3 55 21q29 25 38 56q2 4 2 8q-5 2 -9 4q-15 8 -15 22q1 12 11 17v1q12 6 22 -3q9 -9 8 -30q23 -5 47 -3q35 4 56 23q6 5 11.5 -1t-0.5 -12q-26 -21 -65 -25q-26 -3 -50 2l-2 -8
q-11 -35 -43 -63q-35 -29 -68 -25q-5 0 -10 2h-2q-19 10 -18 36q0 18 11 41q9 21 24 41q39 50 73 42zM142 139q1 -1 2 -1q0 9 -3 13q-1 1 -3 0q-3 -2 -3 -4q0 -4 7 -8z" />
    <glyph glyph-name="o" unicode="&#xf2;" horiz-adv-x="241" 
d="M124 182q8 -2 6 -9.5t-9 -5.5q-25 5 -57 -37q-14 -18 -23 -38t-9 -35t9 -20q3 -1 7 -1q26 -3 55 21q29 25 38 56q2 4 2 8q-5 2 -9 4q-15 8 -15 22q1 12 11 17v1q12 6 22 -3q9 -9 8 -30q23 -5 47 -3q35 4 56 23q6 5 11.5 -1t-0.5 -12q-26 -21 -65 -25q-26 -3 -50 2l-2 -8
q-11 -35 -43 -63q-35 -29 -68 -25q-5 0 -10 2h-2q-19 10 -18 36q0 18 11 41q9 21 24 41q39 50 73 42zM142 139q1 -1 2 -1q0 9 -3 13q-1 1 -3 0q-3 -2 -3 -4q0 -4 7 -8z" />
    <glyph glyph-name="p" unicode="p" horiz-adv-x="205" 
d="M90 347q2 8 9.5 6t5.5 -10q-15 -57 -48 -168l-10 -34q43 100 86 141q27 25 49 23q23 -1 30 -25q10 -36 -21 -80q-29 -41 -76 -65q-32 -16 -61 -17q-46 -114 -84 -284v-1q-1 -7 -9 -6t-7 9q21 120 88 343q33 111 48 168zM181 289q-15 1 -37 -19q-42 -39 -83 -136
q22 3 47 15q43 23 70 60q26 38 18 66q-4 14 -15 14z" />
    <glyph glyph-name="q" unicode="q" horiz-adv-x="262" 
d="M151 218q3 -7 -4 -10q-1 -1 -2 -1q-8 -22 -26 -67l-17 -41l22 10q41 18 88.5 30.5t73.5 14.5q8 1 8.5 -7t-6.5 -9q-25 -2 -71.5 -14t-86.5 -30q-21 -9 -37 -19q-19 -49 -32 -83q25 -30 7 -123q-7 -37 -19 -66q-11 -32 -23 -41q-6 -6 -13 -5q-12 0 -18.5 8.5t-6.5 24.5
q-1 48 55 199q-5 9 -8 18q-10 31 20 59q10 10 25 20q7 18 24 59q-6 -7 -11 -14q-26 -30 -50 -33q-13 -2 -22 5q-9 6 -14 18q-10 24 3.5 57t41.5 56q19 16 38 20q23 4 40 -8q4 -3 8 -7q7 14 14 32h1q3 7 10 4t4 -10q-7 -19 -17 -45zM130 223q-4 6 -10 10q-11 8 -27 5
q-15 -3 -31 -16q-25 -20 -37 -50q-10 -27 -3 -46q3 -7 7.5 -10t11.5 -2q17 2 39 28q17 19 34 50q8 14 16 31zM54 -27q-51 -139 -50 -182q0 -18 9 -18h2v0l1 1q8 7 19 34q10 29 17 64q6 31 7 56.5t-5 44.5zM50 11q0 -1 1 -2q8 22 18 49q-1 -2 -3 -3q-22 -22 -16 -44z" />
    <glyph glyph-name="r" unicode="r" horiz-adv-x="164" 
d="M27 80q14 81 25 91q5 5 10.5 -0.5t-0.5 -11.5t-16 -60l4 6q26 48 57 75q34 29 58 21q4 -1 7 -2q7 -4 3 -11t-11 -3q-2 0 -3 1q-17 5 -43 -18q-29 -25 -54 -70q-20 -36 -32 -77q-2 -7 -10 -5q-8 1 -6 9q4 16 11 55z" />
    <glyph glyph-name="s" unicode="s" horiz-adv-x="249" 
d="M161 252q8 -2 6 -9.5t-10 -5.5q-23 5 -33.5 -0.5t-13.5 -21.5q-3 -11 -5 -43q-3 -39 -7 -62q0 -5 -1 -12q19 12 41 23q73 33 140 33q8 0 8 -8t-8 -8q-64 0 -133 -32q-28 -13 -52 -29q-7 -53 -15 -75q-7 -19 -20.5 -32.5t-27.5 -18.5q-13 -4 -22 0q-11 5 -12 19
q-1 25 36 71q19 24 47 45q2 17 4 27q3 22 6 60q2 33 5 46q6 23 20.5 31.5t46.5 1.5zM25 -33q26 8 38 40q6 19 12 56q-17 -15 -31 -32q-33 -41 -32 -60q0 -4 2 -5q4 -2 11 1z" />
    <glyph glyph-name="t" unicode="t" horiz-adv-x="209" 
d="M167 418q30 95 66 192q2 7 9.5 4.5t5.5 -10.5q-35 -92 -64 -184q25 4 49 6q134 13 191 -8q7 -3 4.5 -10.5t-10.5 -4.5q-53 19 -183 7q-27 -3 -56 -7q-33 -104 -58 -207q-49 -194 -75 -385q-1 -8 -9 -7t-7 9q26 192 75 387q25 100 56 201q-100 -15 -193 -42q-8 -2 -10 6
t6 10q98 28 203 43z" />
    <glyph glyph-name="u" unicode="u" horiz-adv-x="175" 
d="M20 107q8 32 30 76q4 7 11 3.5t3 -10.5q-21 -42 -29 -73q-6 -22 -3 -35q2 -13 11 -16q4 -1 9 -2h1q22 -1 48 33q31 40 56 109q2 8 10 5q6 -2 5 -9q-3 -17 -16 -59q-23 -79 -18 -82q6 -4 2 -11t-11 -2q-13 8 2 65q-8 -14 -17 -25q-32 -42 -62 -40q-8 1 -14 3q-19 6 -22 28
q-3 17 4 42z" />
    <glyph glyph-name="u" unicode="&#xfb;" horiz-adv-x="175" 
d="M20 107q8 32 30 76q4 7 11 3.5t3 -10.5q-21 -42 -29 -73q-6 -22 -3 -35q2 -13 11 -16q4 -1 9 -2h1q22 -1 48 33q31 40 56 109q2 8 10 5q6 -2 5 -9q-3 -17 -16 -59q-23 -79 -18 -82q6 -4 2 -11t-11 -2q-13 8 2 65q-8 -14 -17 -25q-32 -42 -62 -40q-8 1 -14 3q-19 6 -22 28
q-3 17 4 42z" />
    <glyph glyph-name="u" unicode="&#xfa;" horiz-adv-x="175" 
d="M20 107q8 32 30 76q4 7 11 3.5t3 -10.5q-21 -42 -29 -73q-6 -22 -3 -35q2 -13 11 -16q4 -1 9 -2h1q22 -1 48 33q31 40 56 109q2 8 10 5q6 -2 5 -9q-3 -17 -16 -59q-23 -79 -18 -82q6 -4 2 -11t-11 -2q-13 8 2 65q-8 -14 -17 -25q-32 -42 -62 -40q-8 1 -14 3q-19 6 -22 28
q-3 17 4 42z" />
    <glyph glyph-name="u" unicode="&#xf9;" horiz-adv-x="175" 
d="M20 107q8 32 30 76q4 7 11 3.5t3 -10.5q-21 -42 -29 -73q-6 -22 -3 -35q2 -13 11 -16q4 -1 9 -2h1q22 -1 48 33q31 40 56 109q2 8 10 5q6 -2 5 -9q-3 -17 -16 -59q-23 -79 -18 -82q6 -4 2 -11t-11 -2q-13 8 2 65q-8 -14 -17 -25q-32 -42 -62 -40q-8 1 -14 3q-19 6 -22 28
q-3 17 4 42z" />
    <glyph glyph-name="v" unicode="v" horiz-adv-x="133" 
d="M17 86q2 33 15 84q2 8 9.5 6t5.5 -9q-12 -51 -14 -82q-2 -18 0 -27q1 -4 1 -5q17 5 90 137q20 35 29 51q4 7 10.5 2.5t2.5 -10.5q-8 -14 -28 -50q-12 -22 -18.5 -34t-18 -32t-19.5 -31t-17 -23.5t-16.5 -19t-13.5 -6.5q-1 -1 -2 -0.5t-3 0.5q-10 2 -13 18q-2 11 0 31z
" />
    <glyph glyph-name="w" unicode="w" horiz-adv-x="194" 
d="M26 117q14 65 37.5 133t36.5 78q6 4 11 -2t-1 -11q-11 -8 -32.5 -73.5t-35.5 -127.5q-8 -34 -10 -55q-1 -16 0 -19q7 2 19 30q12 25 26 70q17 55 25 69q9 15 18 6q4 -4 4 -16q0 -23 -10 -88q-6 -38 -1 -47q1 -2 8 5q12 12 27 39q21 38 32 75t0 48q-5 6 1 11.5t11 -0.5
q10 -11 7.5 -35.5t-12.5 -52.5t-25 -53q-16 -30 -30 -44q-23 -21 -33 0q-7 14 -1 57q7 42 9 65q-6 -16 -15 -44q-14 -46 -26 -72q-18 -39 -35 -40q-5 0 -9 3q-8 7 -5 34q2 22 9 57z" />
    <glyph glyph-name="x" unicode="x" horiz-adv-x="189" 
d="M60 111q-13 29 -17 81q0 8 8 8.5t8 -7.5q3 -46 14 -73q21 38 39 66q45 70 70 75q8 1 9.5 -6.5t-6.5 -9.5q-18 -3 -59 -67q-21 -32 -44 -75q9 -12 21 -15q17 -4 43 10q29 16 66 53q5 6 11 0t0 -11q-39 -39 -69 -56q-32 -17 -55 -11q-14 3 -25 15q-25 -47 -43 -86
q-3 -8 -10.5 -4.5t-3.5 10.5q19 44 47 95q-3 4 -4 8z" />
    <glyph glyph-name="y" unicode="y" horiz-adv-x="262" 
d="M42 242q5 6 11.5 1.5t1.5 -10.5q-8 -12 -14 -23q-11 -20 -11 -34q0 -10 6 -14q1 -1 2 -1q15 -8 33 -1.5t39.5 28t34 37t32.5 41.5q28 38 37 40q10 2 12 -9v-3q-1 -5 -2 -11q-13 -81 -71 -239q61 53 135 108q6 5 11 -1.5t-1 -10.5q-87 -66 -157 -127q-16 -41 -31 -78
q-47 -109 -90.5 -176.5t-73.5 -64.5h-2q-12 2 -20 9q-19 15 -12 48q6 31 34 75q56 85 181 196q64 167 81 258q-5 -6 -19 -24q-10 -13 -16 -21t-17.5 -22t-20 -22.5t-20 -19.5t-21.5 -16.5t-21 -10t-22 -4t-21 6.5q-1 1 -3 2q-13 9 -13 27t13 42q6 11 15 24zM-52 -290
q24 -3 63.5 62t83.5 169q10 23 19 48q-105 -97 -154 -172q-27 -41 -33 -69q-4 -23 7 -32q5 -4 13 -6h1z" />
    <glyph glyph-name="y" unicode="&#xff;" horiz-adv-x="262" 
d="M42 242q5 6 11.5 1.5t1.5 -10.5q-8 -12 -14 -23q-11 -20 -11 -34q0 -10 6 -14q1 -1 2 -1q15 -8 33 -1.5t39.5 28t34 37t32.5 41.5q28 38 37 40q10 2 12 -9v-3q-1 -5 -2 -11q-13 -81 -71 -239q61 53 135 108q6 5 11 -1.5t-1 -10.5q-87 -66 -157 -127q-16 -41 -31 -78
q-47 -109 -90.5 -176.5t-73.5 -64.5h-2q-12 2 -20 9q-19 15 -12 48q6 31 34 75q56 85 181 196q64 167 81 258q-5 -6 -19 -24q-10 -13 -16 -21t-17.5 -22t-20 -22.5t-20 -19.5t-21.5 -16.5t-21 -10t-22 -4t-21 6.5q-1 1 -3 2q-13 9 -13 27t13 42q6 11 15 24zM-52 -290
q24 -3 63.5 62t83.5 169q10 23 19 48q-105 -97 -154 -172q-27 -41 -33 -69q-4 -23 7 -32q5 -4 13 -6h1z" />
    <glyph glyph-name="y" unicode="&#xfd;" horiz-adv-x="262" 
d="M42 242q5 6 11.5 1.5t1.5 -10.5q-8 -12 -14 -23q-11 -20 -11 -34q0 -10 6 -14q1 -1 2 -1q15 -8 33 -1.5t39.5 28t34 37t32.5 41.5q28 38 37 40q10 2 12 -9v-3q-1 -5 -2 -11q-13 -81 -71 -239q61 53 135 108q6 5 11 -1.5t-1 -10.5q-87 -66 -157 -127q-16 -41 -31 -78
q-47 -109 -90.5 -176.5t-73.5 -64.5h-2q-12 2 -20 9q-19 15 -12 48q6 31 34 75q56 85 181 196q64 167 81 258q-5 -6 -19 -24q-10 -13 -16 -21t-17.5 -22t-20 -22.5t-20 -19.5t-21.5 -16.5t-21 -10t-22 -4t-21 6.5q-1 1 -3 2q-13 9 -13 27t13 42q6 11 15 24zM-52 -290
q24 -3 63.5 62t83.5 169q10 23 19 48q-105 -97 -154 -172q-27 -41 -33 -69q-4 -23 7 -32q5 -4 13 -6h1z" />
    <glyph glyph-name="z" unicode="z" horiz-adv-x="263" 
d="M54 121q0 -8 -8 -7.5t-8 8.5q1 38 55.5 85t117.5 78q40 19 64 21q17 2 24.5 -4.5t1.5 -21.5q-8 -26 -70 -82q-11 -11 -35 -32q-62 -54 -80 -77q-8 -12 -8.5 -21t2 -13t9.5 -10q9 -8 13 -13q10 9 22 19q80 66 127 97q7 5 11.5 -2t-2.5 -11q-46 -31 -126 -96
q-12 -11 -24 -21q9 -26 -18 -72q-11 -18 -24.5 -32.5t-25.5 -22.5t-23 -12q-14 -4 -23 0q-11 6 -10 20q2 24 42 66q21 22 61 57q-3 4 -10 11q-11 9 -15 15t-3.5 19t12.5 31q19 25 83 80q24 22 35 32q58 53 65 75q1 4 -1.5 5t-7.5 0q-21 -2 -59 -20q-60 -28 -111.5 -71.5
t-52.5 -77.5zM108 -46q19 33 17 52q-36 -31 -55 -52q-36 -38 -38 -56q0 -4 1 -4q3 -2 11 1q35 11 64 59z" />
    <glyph glyph-name="braceleft" unicode="{" horiz-adv-x="199" 
d="M176 540q9 -3 6 -10.5t-12 -5.5q-13 4 -22 0q-18 -7 -29 -43q-7 -23 -15 -81q-8 -59 -15 -83q-9 -32 -25 -46l-2 -3l2 -2q11 -19 7 -51q-3 -22 -17 -68q-15 -48 -18 -68q-4 -31 7 -44q19 -21 94 -3q9 2 11.5 -6t-6.5 -10q-87 -21 -114 9q-16 19 -10 57q3 20 18 69
q13 45 16 66q4 31 -7 44l-3 3q-4 3 -3 7t5 6q16 8 27 44q6 23 14 81q9 59 16 84q13 43 39 53q16 7 36 1z" />
    <glyph glyph-name="verticalbar" unicode="|" horiz-adv-x="65" 
d="M39.5 497q9.5 0 9.5 -5l-14 -468q0 -6 -9.5 -6t-9.5 6l14 468q0 5 9.5 5z" />
    <glyph glyph-name="braceright" unicode="}" horiz-adv-x="199" 
d="M171 525q16 -19 10 -57q-3 -20 -18 -69q-14 -45 -16 -66q-4 -31 7 -44l3 -3q4 -3 3 -7t-5 -6q-16 -8 -27 -44q-6 -23 -14 -81q-9 -59 -16 -84q-14 -43 -39 -53q-16 -7 -37 -1q-8 3 -5.5 10.5t11.5 5.5q13 -4 23 0q17 7 28 43q8 23 16 81q8 59 15 83q9 32 24 46l3 2l-2 3
q-11 19 -7 51q3 22 17 68q15 48 18 68q4 31 -7 44q-19 21 -94 3q-9 -2 -11.5 6t6.5 10q87 21 114 -9z" />
    <glyph glyph-name="asciitilde" unicode="~" horiz-adv-x="325" 
d="M306 303.5q7 -5.5 0 -11.5q-39 -36 -83 -32q-21 2 -71 24q-33 17 -62 16.5t-58 -22.5q-8 -6 -14 0.5t1 11.5q45 34 94 25q19 -3 48 -16q47 -21 65 -23q34 -3 67 27q6 6 13 0.5z" />
    <glyph glyph-name="uni007F" 
 />
    <glyph glyph-name="nonbreakingspace" unicode="&#xa0;" 
 />
    <glyph glyph-name="exclamdown" unicode="&#xa1;" horiz-adv-x="269" 
d="M104 330h58l25 -512h-108zM196 478q0 -33 -16 -50t-46 -17t-46 17t-16 50q0 32 16.5 50t45.5 18t45.5 -17.5t16.5 -50.5z" />
    <glyph glyph-name="cent" unicode="&#xa2;" horiz-adv-x="345" 
d="M320 353q13 -15 8 -33q-2 -6 -11.5 -5t-7.5 7q4 14 -5 24q-15 17 -51 17l-145 -414l10 -2q47 -9 91 21q51 35 65 100q1 7 10 6q4 0 6.5 -2.5t1.5 -5.5q-14 -70 -70 -107q-52 -36 -109 -25l-10 2l-26 -73q-3 -8 -12 -5.5t-6 10.5l26 75q-15 7 -26 18q-54 54 -40 150
q4 28 16 66l1 3q12 33 29 65q13 23 27 43q13 19 24 30q52 50 117 58h5l25 71q3 8 12 6t6 -10l-23 -66q43 -2 62 -24zM90 -43l143 405q-55 -7 -101 -52q-11 -10 -23 -28q-14 -19 -26 -42q-16 -30 -27 -60l-2 -5q-12 -37 -16 -65q-14 -91 37 -141q7 -7 15 -12z" />
    <glyph glyph-name="sterling" unicode="&#xa3;" horiz-adv-x="423" 
d="M405 38.5q6 -6.5 -1 -11.5q-14 -11 -31 -16q-36 -11 -100 1q-4 1 -46 9.5t-65 10.5q-74 9 -125 -15q-6 -3 -11 1t-3 9q18 38 35 100q10 36 29 116l12 51l1 5h-6q-33 2 -63 -16q-8 -5 -13.5 2t2.5 11q38 23 79 20l5 -1l1 4q4 15 7 29q15 56 30 94q39 96 95 113q16 4 33 3
q9 -1 8.5 -9.5t-10.5 -7.5q-13 1 -25 -2q-47 -14 -83 -103q-14 -37 -29 -92q-4 -13 -8 -28l-1 -4l5 -1q10 -3 30 -8q39 -12 58 -13q10 0 9.5 -8.5t-10.5 -7.5q-14 0 -29 3.5t-33.5 9t-27.5 8.5l-6 1l-1 -5q-4 -16 -12 -51q-19 -80 -29 -117q-12 -44 -24 -74l-3 -9l10 3
q33 9 71 8q17 0 35 -2q17 -2 35.5 -5.5t41 -8t34.5 -7.5q59 -11 90 -1q14 4 25 12q8 6 14 -0.5z" />
    <glyph glyph-name="currency" unicode="&#xa4;" horiz-adv-x="571" 
d="M90 353q0 57 35 110l-66 68l49 47l66 -64q49 35 112 35q59 0 110 -35l67 64l48 -47l-64 -67q35 -54 35 -111q0 -63 -35 -112l63 -66l-47 -47l-67 64q-50 -34 -110 -34q-64 0 -112 35l-66 -64l-48 47l65 66q-35 53 -35 111zM157 353q0 -54 37.5 -91.5t91.5 -37.5t92 37
t38 92q0 56 -38 93.5t-92 37.5t-91.5 -38t-37.5 -93z" />
    <glyph glyph-name="yen" unicode="&#xa5;" horiz-adv-x="367" 
d="M349 444l-189 -255v-5h15h78q9 0 9 -8t-9 -8h-52h-44l-9 -52h49h44q10 0 10 -8.5t-10 -8.5h-50h-46l-37 -221q-2 -9 -11.5 -7.5t-7.5 10.5l37 218h-66h-20q-9 0 -9 8.5t9 8.5h55h34l8 52h-42h-43q-10 0 -10 8t10 8h88l1 7l-124 240q-4 9 4.5 13t12.5 -4l119 -229l181 245
q6 7 13.5 1.5t1.5 -13.5z" />
    <glyph glyph-name="brokenbar" unicode="&#xa6;" horiz-adv-x="550" 
d="M239 760h73v-381h-73v381zM239 140h73v-381h-73v381z" />
    <glyph glyph-name="section" unicode="&#xa7;" horiz-adv-x="513" 
d="M67 395q0 42 21 75t58 51q-36 20 -56 47t-20 68q0 60 50.5 94.5t146.5 34.5q45 0 82 -7t89 -27l-27 -67q-47 19 -80.5 26t-69.5 7q-56 0 -82.5 -14.5t-26.5 -44.5q0 -27 28 -47.5t104 -47.5q89 -33 126 -70t37 -90q0 -88 -75 -133q74 -39 74 -110q0 -69 -57.5 -107
t-160.5 -38t-169 33v75q42 -19 88.5 -30t84.5 -11q62 0 96 18t34 53q0 30 -26 49t-103 49q-96 36 -131 72.5t-35 91.5zM142 405q0 -25 13 -43.5t43 -35.5t109 -47q64 37 64 91q0 40 -34 66.5t-123 54.5q-32 -9 -52 -33t-20 -53z" />
    <glyph glyph-name="dieresis" unicode="&#xa8;" horiz-adv-x="580" 
d="M149 681q0 26 13.5 37.5t33.5 11.5q19 0 33 -11.5t14 -37.5t-14 -38t-33 -12q-20 0 -33.5 12t-13.5 38zM337 681q0 26 13.5 37.5t32.5 11.5t33 -11.5t14 -37.5t-14 -38t-33 -12t-32.5 12t-13.5 38z" />
    <glyph glyph-name="copyright" unicode="&#xa9;" horiz-adv-x="356" 
d="M218 346q12 -8 12 -22q-1 -7 -10.5 -6.5t-8.5 7.5q0 7 -4 10q-10 7 -28 -5q-25 -15 -35 -54q-6 -21 5 -26q6 -2 15 2q13 5 24 19q5 7 13 3t3 -10q-13 -18 -30 -26q-19 -7 -34 -1q-23 11 -15 42q12 44 42 63t51 4zM301 454q41 -21 39 -73q-1 -47 -34 -103q-29 -52 -72 -88
q-47 -40 -95 -46q-53 -9 -85 7q-40 19 -38 72q2 48 35 104q32 57 79 94q54 43 106 42q5 0 10 -1h2l2 1q3 2 8 2q25 -2 43 -11zM321 381q2 49 -33 66q-5 3 -10 5h-3l-2 -1q-6 -5 -14 -2q-11 4 -24 5q-41 1 -89 -37q-45 -36 -77 -92t-34 -102q-2 -49 32 -66q24 -11 67 -4h1
q40 5 83 42q41 35 70 85q32 55 33 101z" />
    <glyph glyph-name="ordfeminine" unicode="&#xaa;" horiz-adv-x="356" 
d="M261 389l-12 42q-46 -48 -114 -48q-47 0 -75 24.5t-28 74.5t38.5 76t119.5 29l56 2v22q0 30 -19 44.5t-52 14.5q-49 0 -101 -26q-13 30 -22 49q60 29 125 29t98 -27t33 -86v-220h-47zM96 482q0 -48 54 -48q96 0 96 87v23l-48 -2q-54 -2 -78 -16t-24 -44z" />
    <glyph glyph-name="guillemotleft" unicode="&#xab;" horiz-adv-x="508" 
d="M40 270l168 201l63 -36l-140 -171l140 -171l-63 -37l-168 201v13zM238 270l170 201l62 -36l-140 -171l140 -171l-62 -37l-170 201v13z" />
    <glyph glyph-name="logicalnot" unicode="&#xac;" horiz-adv-x="571" 
d="M520 388v-260h-71v189h-399v71h470z" />
    <glyph glyph-name="softhyphen" unicode="&#xad;" horiz-adv-x="0" 
 />
    <glyph glyph-name="registered" unicode="&#xae;" horiz-adv-x="832" 
d="M355 373h50q40 0 61.5 19.5t21.5 51.5q0 36 -20 51.5t-64 15.5h-49v-138zM565 446q0 -41 -21 -70.5t-57 -43.5l116 -194h-86l-100 173h-62v-173h-76v437h128q82 0 120 -32t38 -97zM49 357q0 98 48.5 183t134 134.5t184.5 49.5q98 0 183.5 -49t134.5 -134t49 -184
q0 -96 -47.5 -180.5t-132.5 -135.5t-187 -51q-101 0 -186.5 50.5t-133 135t-47.5 181.5zM102 357q0 -84 42 -157t115 -115t157 -42t157 42t115 115t42 157t-42 156.5t-115 115t-157 42.5t-156.5 -42t-115 -115t-42.5 -157z" />
    <glyph glyph-name="macron" unicode="&#xaf;" horiz-adv-x="339" 
d="M164 251q9 0 9 -9.5t-9 -9.5h-139q-9 0 -9 9.5t9 9.5h139z" />
    <glyph glyph-name="degree" unicode="&#xb0;" horiz-adv-x="428" 
d="M60 570q0 66 45 110t109 44q65 0 109.5 -45t44.5 -109t-45 -108.5t-109 -44.5q-63 0 -108.5 44t-45.5 109zM120 570q0 -39 28 -66.5t67 -27.5q40 0 66.5 28t26.5 66q0 39 -27 66.5t-66 27.5t-67 -27t-28 -67z" />
    <glyph glyph-name="plusminus" unicode="&#xb1;" horiz-adv-x="571" 
d="M321 391h199v-71h-199v-206h-72v206h-199v71h199v207h72v-207zM50 0v71h470v-71h-470z" />
    <glyph glyph-name="uni00B2" unicode="&#xb2;" horiz-adv-x="350" 
d="M306 286h-282v54l115 112q62 60 79.5 87.5t17.5 61.5q0 32 -18.5 48t-48.5 16t-54.5 -11.5t-50.5 -31.5l-35 46q65 55 141 55q64 0 100.5 -32t36.5 -86q0 -22 -6 -41.5t-18.5 -39.5t-33 -42.5t-138.5 -133.5h195v-62z" />
    <glyph glyph-name="uni00B3" unicode="&#xb3;" horiz-adv-x="350" 
d="M308 613q0 -74 -74 -102q87 -21 87 -102q0 -62 -45 -96.5t-128 -34.5q-74 0 -131 28v63q69 -34 132 -34q100 0 100 76q0 69 -110 69h-57v55h57q50 0 73.5 19t23.5 51q0 29 -19 45t-51 16q-51 0 -111 -38l-36 46q36 27 71 38t75 11q66 0 104.5 -29.5t38.5 -80.5z" />
    <glyph glyph-name="acute" unicode="&#xb4;" horiz-adv-x="580" 
d="M189 618q19 23 47.5 66.5t47.5 81.5h106v-10q-21 -31 -66.5 -78.5t-76.5 -71.5h-58v12z" />
    <glyph glyph-name="mu" unicode="&#xb5;" horiz-adv-x="623" 
d="M173 190q0 -127 120 -127q83 0 120 45.5t37 148.5v279h88v-536h-71l-14 72h-5q-53 -82 -161 -82q-71 0 -115 45h-4q5 -36 5 -119v-156h-88v776h88v-346z" />
    <glyph glyph-name="paragraph" unicode="&#xb6;" horiz-adv-x="654" 
d="M549 -127h-58v831h-102v-831h-58v400q-30 -9 -71 -9q-105 0 -155 61t-50 184q0 127 53.5 189t166.5 62h274v-887z" />
    <glyph glyph-name="periodcentered" unicode="&#xb7;" horiz-adv-x="268" 
d="M72 353q0 32 16 50t45 18q30 0 46.5 -18.5t16.5 -49.5t-16.5 -49.5t-46.5 -18.5q-29 0 -45 18t-16 50z" />
    <glyph glyph-name="cedilla" unicode="&#xb8;" horiz-adv-x="225" 
d="M212 -139q0 -48 -37 -74.5t-111 -26.5q-32 0 -50 5v55q18 -5 53 -5q37 0 55.5 9.5t18.5 34.5q0 43 -91 55l43 86h58l-26 -53q87 -19 87 -86z" />
    <glyph glyph-name="uni00B9" unicode="&#xb9;" horiz-adv-x="350" 
d="M167 714h73v-428h-71v276q0 33 4 89q-15 -14 -26.5 -23t-74.5 -55l-35 49z" />
    <glyph glyph-name="ordmasculine" unicode="&#xba;" horiz-adv-x="375" 
d="M345 553q0 -80 -42 -125t-116 -45q-71 0 -113 45t-42 125q0 81 41 125t116 44q73 0 114.5 -44.5t41.5 -124.5zM95 553q0 -59 21.5 -88t71.5 -29q49 0 71 29t22 88t-22 87.5t-71 28.5t-71 -28.5t-22 -87.5z" />
    <glyph glyph-name="guillemotright" unicode="&#xbb;" horiz-adv-x="508" 
d="M469 257l-170 -201l-62 37l140 171l-140 171l62 36l170 -201v-13zM270 257l-169 -201l-62 37l140 171l-140 171l62 36l169 -201v-13z" />
    <glyph glyph-name="onequarter" unicode="&#xbc;" horiz-adv-x="790" 
d="M736 96h-61v-96h-75v96h-195v52l197 283h73v-275h61v-60zM600 156v93q0 52 3 101q-4 -9 -48 -77l-80 -117h125zM637 714l-436 -714h-75l436 714h75zM165 714h73v-428h-71v276q0 33 4 89q-15 -14 -26.5 -23t-74.5 -55l-35 49z" />
    <glyph glyph-name="onehalf" unicode="&#xbd;" horiz-adv-x="790" 
d="M607 714l-436 -714h-75l436 714h75zM152 714h73v-428h-71v276q0 33 4 89q-15 -14 -26.5 -23t-74.5 -55l-35 49zM727 0h-282v54l115 112q62 60 79.5 87.5t17.5 61.5q0 32 -18.5 48t-48.5 16t-54.5 -11.5t-50.5 -31.5l-35 46q65 55 141 55q64 0 100.5 -32t36.5 -86
q0 -22 -6 -41.5t-18.5 -39.5t-33 -42.5t-138.5 -133.5h195v-62z" />
    <glyph glyph-name="threequarters" unicode="&#xbe;" horiz-adv-x="790" 
d="M772 96h-61v-96h-75v96h-195v52l197 283h73v-275h61v-60zM636 156v93q0 52 3 101q-4 -9 -48 -77l-80 -117h125zM681 714l-436 -714h-75l436 714h75zM307 613q0 -74 -74 -102q87 -21 87 -102q0 -62 -45 -96.5t-128 -34.5q-74 0 -131 28v63q69 -34 132 -34q100 0 100 76
q0 69 -110 69h-57v55h57q50 0 73.5 19t23.5 51q0 29 -19 45t-51 16q-51 0 -111 -38l-36 46q36 27 71 38t75 11q66 0 104.5 -29.5t38.5 -80.5z" />
    <glyph glyph-name="questiondown" unicode="&#xbf;" horiz-adv-x="434" 
d="M294 330v-26q0 -57 -18 -93.5t-67 -77.5q-65 -54 -82 -81t-17 -68q0 -47 31 -73.5t89 -26.5q78 0 161 43l31 -71q-97 -48 -195 -48q-95 0 -148.5 45.5t-53.5 128.5q0 36 9.5 63.5t29.5 52.5t79 75q50 44 65 71t15 70v16h71zM317 478q0 -67 -62 -67q-30 0 -45.5 17.5
t-15.5 49.5q0 36 17.5 52t43.5 16t44 -16t18 -52z" />
    <glyph glyph-name="Adieresis" unicode="&#xc4;" horiz-adv-x="633" 
d="M651.5 613q5.5 3 10.5 0.5t7 -8.5q1 -6 -1 -12q-3 -6 -8 -9h-1q-5 -3 -10 -1t-7 8t1 12.5t8.5 9.5zM571.5 613q5.5 3 10.5 0.5t7 -8.5q1 -6 -1 -12q-3 -6 -8 -9h-1q-5 -3 -10 -1t-7 8t1 12.5t8.5 9.5zM184 -141q-2 -7 -9.5 -4.5t-5.5 9.5q30 86 78 184q-31 9 -73 11
q-32 1 -99 -3q-33 -2 -49 -2q-4 0 -6.5 2t-3.5 5q-4 14 33 24q26 8 78 16q63 10 158 21q40 74 84 143q32 51 63.5 95t59.5 77t51.5 54t39.5 26l1 1q12 4 18 -12q14 -40 -54 -360q67 5 116 8q8 0 8.5 -8t-7.5 -8q-52 -3 -120 -8q-12 -56 -37 -170q-61 -280 -79 -383
q-2 -8 -10 -7q-7 2 -6 9q4 116 -5 200.5t-30.5 137.5t-49 82.5t-65.5 43.5q-49 -98 -79 -184zM255 63q10 21 21 42q-87 -10 -147 -20q-46 -7 -72 -14l17 1q68 4 101 3q46 -2 80 -12zM382 257q-40 -65 -78 -133q111 12 227 21q68 320 56 356l1 1v0q-30 -9 -86 -76.5
t-120 -168.5zM528 128q-120 -9 -233 -21q-13 -24 -25 -49q36 -13 63.5 -39t49 -71t34 -115t13.5 -164q17 88 62 295q24 109 36 164z" />
    <glyph glyph-name="AE" unicode="&#xc6;" horiz-adv-x="880" 
d="M821 0h-372v221h-250l-107 -221h-93l339 714h483v-79h-282v-223h263v-78h-263v-255h282v-79zM234 301h215v333h-58z" />
    <glyph glyph-name="Eth" unicode="&#xd0;" horiz-adv-x="729" 
d="M669 364q0 -175 -96 -269.5t-278 -94.5h-191v314h-74v78h74v322h213q167 0 259.5 -92t92.5 -258zM574 361q0 137 -68 206.5t-202 69.5h-110v-245h178v-78h-178v-237h90q290 0 290 284z" />
    <glyph glyph-name="Odieresis" unicode="&#xd6;" horiz-adv-x="475" 
d="M411.5 623q5.5 3 10.5 0.5t7 -8.5q1 -6 -1 -12q-3 -6 -8 -9h-1q-5 -3 -10 -1t-7 8t1 12.5t8.5 9.5zM331.5 623q5.5 3 10.5 0.5t7 -8.5q1 -6 -1 -12q-3 -6 -8 -9h-1q-5 -3 -10 -1t-7 8t1 12.5t8.5 9.5zM262 532q8 2 10 -5.5t-6 -9.5q-35 -10 -79 -82q48 44 97 67
q46 23 85 22q41 -1 65 -27q25 -28 25 -80q0 -56 -19 -138q-43 -187 -131 -340q-104 -181 -207 -181q-12 0 -24 3h-1q-38 12 -52 66q-17 64 -1 176q14 102 51 217q19 57 41 109q-23 -33 -42 -70q-4 -7 -11 -3t-3 11q36 70 86 126q63 125 116 139zM291 488q-69 -33 -133 -105
q-37 -74 -67 -168q-37 -114 -52 -215q-15 -108 1 -168q13 -46 42 -56q10 -2 20 -2q94 0 194 173q86 151 128 335q19 81 19 135q0 46 -21 69q-19 21 -53 22q-35 1 -78 -20z" />
    <glyph glyph-name="multiply" unicode="&#xd7;" horiz-adv-x="267" 
d="M245 161q4 -1 5.5 -5t-0.5 -7l-99 -108l74 -124q2 -3 0.5 -7t-5.5 -5q-6 -2 -11 7l-69 116l-107 -116q-7 -8 -11 -7q-3 1 -5 5t0 7l114 125l-67 113q-2 3 -0.5 6.5t4.5 5.5q8 2 12 -7l63 -105l91 100q3 9 11 6z" />
    <glyph glyph-name="Udieresis" unicode="&#xdc;" horiz-adv-x="503" 
d="M381.5 613q5.5 3 10.5 0.5t7 -8.5q1 -6 -1 -12q-3 -6 -8 -9h-1q-5 -3 -10 -1t-7 8t1 12.5t8.5 9.5zM301.5 613q5.5 3 10.5 0.5t7 -8.5q1 -6 -1 -12q-3 -6 -8 -9h-1q-5 -3 -10 -1t-7 8t1 12.5t8.5 9.5zM53 211q33 117 80.5 206.5t85.5 97.5q8 1 9.5 -6.5t-6.5 -9.5
q-22 -4 -50.5 -47t-55.5 -107.5t-48 -137.5q-27 -95 -34 -172q-4 -38 -1 -71.5t12 -54.5q15 -33 44 -36h1q14 -2 29.5 5t32.5 26t31.5 38.5t33.5 55t32 61t33.5 71.5t31.5 72t32 75q34 81 52 121t44.5 92t47 73.5t39.5 19.5q8 -1 7 -9v-1q-22 -80 -96 -302
q-120 -361 -133 -454q-8 -52 5 -59q7 -4 3 -11t-11 -3q-11 7 -13.5 30t6.5 67.5t19 84.5t32 111.5t36 114t41 124.5q70 210 92 289q-10 -4 -21 -16.5t-24.5 -36.5t-24.5 -45.5t-28 -60.5t-27.5 -63t-30.5 -72q-29 -68 -44.5 -103.5t-43 -94.5t-47.5 -91t-44.5 -66.5t-48 -48
t-45.5 -10.5q-39 4 -57 45q-21 46 -13 134q7 79 35 175z" />
    <glyph glyph-name="Thorn" unicode="&#xde;" horiz-adv-x="604" 
d="M554 382q0 -110 -73.5 -168.5t-212.5 -58.5h-81v-155h-90v714h90v-124h96q137 0 204 -51.5t67 -156.5zM187 231h72q108 0 155 34.5t47 111.5q0 70 -44.5 103t-140.5 33h-89v-282z" />
    <glyph glyph-name="germandbls" unicode="&#xdf;" horiz-adv-x="342" 
d="M6 406q-9 6 -2 12q3 2 13.5 9.5t14.5 11.5q40 35 84 65q4 18 20.5 49t25.5 35q7 2 8.5 2t1 -2t0.5 -4q1 -3 0.5 -4t-7.5 -4q-22 -25 -28 -57q30 20 64 35q24 12 50 20q20 7 40 3q18 -3 25 -19l1 -2q2 -10 1 -19q-2 -11 -6 -20q-7 -12 -12 -20q-7 -11 -16 -21
q-18 -17 -20 -19q-7 -8 -22 -20q-15 -13 -22 -19q-4 -4 -12.5 -11t-11.5 -9.5t-10.5 -9t-11.5 -10.5q-10 -8 -22 -19q-9 -8 -10 -10q-28 -27 -35 -37l-4.5 -4.5l-3.5 -3.5t-2 -3t1 -3q3 -2 6.5 -1.5t11 2t10 1.5t12.5 1.5t12 1.5q39 4 75 -12q25 -14 37 -41q21 -73 -21 -136
q-17 -29 -45 -48q-21 -19 -49 -22q-27 -6 -46 15q-19 23 -21 52q-1 3 0.5 5t4.5 3q3 0 5 -1.5t3 -4.5q2 -25 18 -45q14 -16 34 -11q25 3 45 20q20 14 34 35q22 28 27.5 63t-5.5 69q-7 22 -26 35q-34 16 -70 11q-2 0 -12 -1.5t-12 -1.5t-6.5 -1t-8.5 -1.5t-8.5 -0.5t-8 1.5
t-4.5 3.5q-7 11 2 25q20 24 44 45q0 1 2.5 3.5t5 4.5t3.5 3q9 9 54 47q9 8 26 23t23 21q25 21 45 48q14 19 9 42q-1 4 -3 6.5t-3 3.5t-5 2t-5 1q-14 4 -28 0q-18 -4 -35 -12q-22 -9 -45 -21q-2 -1 -51 -31q-18 -58 -40.5 -156t-29.5 -126q-10 -39 -22.5 -97.5t-26 -122.5
t-22.5 -103q-1 -3 -2 -4t-2 -0.5t-3 -0.5q-3 -1 -4 2t-1 6q16 82 26.5 139t23 140t14.5 126q1 25 1.5 33t-1 22t-2 16t-6.5 10t-10 10.5t-16 11.5zM21 414q23 -14 29 -33.5t7 -66.5q-3 -56 -13 -112l12 50q28 137 54 229q-7 -5 -28.5 -22t-41.5 -31z" />
    <glyph glyph-name="adieresis" unicode="&#xe4;" horiz-adv-x="239" 
d="M155 283q5 3 11 1q5 -2 7 -9t-1 -12t-8 -9h-1q-4 -3 -10 -1q-5 2 -7 8q-2 7 1 12q3 7 8 10zM75 283q5 3 11 1q5 -2 7 -9t-1 -12t-8 -9h-1q-4 -3 -10 -1q-5 2 -7 8q-2 7 1 12q3 7 8 10zM23 137q16 29 42 48.5t54 16.5q8 0 7.5 -8t-8.5 -8q-23 2 -45 -15t-36 -42
q-8 -16 -10 -29t2 -18v-1q5 -6 21 -3q28 7 68 72q12 19 16 23q6 5 11 -1q3 -3 2 -6q0 -3 -7 -18q-11 -22 -16 -34q-10 -25 -7 -36q2 -6 10 -6q10 0 28 7q28 11 62.5 34t46.5 38q6 6 12 0.5t0 -11.5q-13 -15 -49 -39.5t-66 -36.5q-21 -8 -35 -8q-19 1 -24 18q-3 9 0 24
q-24 -30 -48 -35l-1 -1q-25 -5 -36 9l-1 1q-8 11 -5 30q2 16 12 35z" />
    <glyph glyph-name="ae" unicode="&#xe6;" horiz-adv-x="863" 
d="M46 149q0 163 244 171l90 3v34q0 60 -27.5 88.5t-84.5 28.5q-68 0 -150 -41l-27 66q35 20 84.5 33t99.5 13q62 0 102.5 -20.5t61.5 -65.5q26 42 67.5 64.5t96.5 22.5q96 0 153 -66t57 -174v-54h-343q4 -187 155 -187q43 0 80.5 8t83.5 29v-77q-43 -19 -80 -27t-87 -8
q-142 0 -203 113q-40 -61 -88.5 -87t-114.5 -26q-80 0 -125 42t-45 117zM137 148q0 -45 25.5 -66t67.5 -21q68 0 108 40t40 113v48l-75 -3q-86 -3 -126 -29t-40 -82zM602 474q-58 0 -91 -39t-39 -114h248q0 74 -30.5 113.5t-87.5 39.5z" />
    <glyph glyph-name="eth" unicode="&#xf0;" horiz-adv-x="604" 
d="M551 275q0 -138 -65 -211.5t-185 -73.5q-110 0 -178 66.5t-68 176.5q0 112 63.5 176t171.5 64q110 0 156 -58l4 2q-29 104 -124 191l-130 -75l-38 55l112 64q-42 28 -90 53l36 60q76 -36 126 -72l115 67l38 -54l-99 -57q74 -68 114.5 -164.5t40.5 -209.5zM462 251
q0 70 -43 110.5t-116 40.5q-81 0 -120 -42.5t-39 -129.5q0 -81 41 -124.5t118 -43.5q83 0 121 48.5t38 140.5z" />
    <glyph glyph-name="odieresis" unicode="&#xf6;" horiz-adv-x="241" 
d="M161 283q5 3 11 1q5 -2 7 -9t-1 -12t-8 -9h-1q-4 -3 -10 -1q-5 2 -7 8q-2 7 1 12q3 7 8 10zM81 283q5 3 11 1q5 -2 7 -9t-1 -12t-8 -9h-1q-4 -3 -10 -1q-5 2 -7 8q-2 7 1 12q3 7 8 10zM124 182q8 -2 6 -9.5t-9 -5.5q-25 5 -57 -37q-14 -18 -23 -38t-9 -35t9 -20
q3 -1 7 -1q26 -3 55 21q29 25 38 56q2 4 2 8q-5 2 -9 4q-15 8 -15 22q1 12 11 17v1q12 6 22 -3q9 -9 8 -30q23 -5 47 -3q35 4 56 23q6 5 11.5 -1t-0.5 -12q-26 -21 -65 -25q-26 -3 -50 2l-2 -8q-11 -35 -43 -63q-35 -29 -68 -25q-5 0 -10 2h-2q-19 10 -18 36q0 18 11 41
q9 21 24 41q39 50 73 42zM142 139q1 -1 2 -1q0 9 -3 13q-1 1 -3 0q-3 -2 -3 -4q0 -4 7 -8z" />
    <glyph glyph-name="divide" unicode="&#xf7;" horiz-adv-x="189" 
d="M83 200q7 0 12 -5t5 -12q0 -3 -1 -6.5t-3.5 -5.5t-5.5 -3.5t-7 -1.5t-8 2t-6.5 6t-2.5 9q0 3 1 5.5t2.5 4.5t3.5 4t4.5 2.5t5.5 0.5zM106.5 282q-7.5 0 -12.5 5t-5 12t5 12t12 5q3 0 5 -0.5t4 -1.5t3.5 -2.5t2.5 -3.5t2 -4.5t1 -4.5q0 -7 -5 -12t-12.5 -5zM164 251
q9 0 9 -9.5t-9 -9.5h-139q-9 0 -9 9.5t9 9.5h139z" />
    <glyph glyph-name="udieresis" unicode="&#xfc;" horiz-adv-x="188" 
d="M157 283q5 3 11 1q5 -2 7 -9t-1 -12t-8 -9h-1q-4 -3 -10 -1q-5 2 -7 8q-2 7 1 12q3 7 8 10zM77 283q5 3 11 1q5 -2 7 -9t-1 -12t-8 -9h-1q-4 -3 -10 -1q-5 2 -7 8q-2 7 1 12q3 7 8 10zM17 107q8 32 30 76q4 7 11 3.5t3 -10.5q-21 -42 -29 -73q-6 -22 -3 -35q2 -13 11 -16
q4 -1 9 -2h1q22 -1 48 33q31 40 56 109q2 8 10 5q6 -2 5 -9q-3 -17 -16 -59q-23 -79 -18 -82q6 -4 2 -11t-11 -2q-13 8 2 65q-8 -14 -17 -25q-32 -42 -62 -40q-8 1 -14 3q-19 6 -22 28q-3 17 4 42z" />
    <glyph glyph-name="thorn" unicode="&#xfe;" horiz-adv-x="615" 
d="M174 464q33 44 73.5 63t92.5 19q104 0 162 -73t58 -204t-58 -205t-162 -74q-108 0 -167 78h-6q6 -64 6 -84v-224h-88v1000h88v-224q0 -34 -3 -72h4zM325 472q-79 0 -115 -43.5t-37 -140.5v-19q0 -109 36 -157.5t117 -48.5q143 0 143 207q0 102 -35 152t-109 50z" />
    <glyph glyph-name="Amacron" unicode="&#x100;" horiz-adv-x="639" 
d="M178 842h297v-71h-297v71zM184 -141q-2 -7 -9.5 -4.5t-5.5 9.5q30 86 78 184q-31 9 -73 11q-32 1 -99 -3q-33 -2 -49 -2q-4 0 -6.5 2t-3.5 5q-4 14 33 24q26 8 78 16q63 10 158 21q40 74 84 143q32 51 63.5 95t59.5 77t51.5 54t39.5 26l1 1q12 4 18 -12q14 -40 -54 -360
q67 5 116 8q8 0 8.5 -8t-7.5 -8q-52 -3 -120 -8q-12 -56 -37 -170q-61 -280 -79 -383q-2 -8 -10 -7q-7 2 -6 9q4 116 -5 200.5t-30.5 137.5t-49 82.5t-65.5 43.5q-49 -98 -79 -184zM255 63q10 21 21 42q-87 -10 -147 -20q-46 -7 -72 -14l17 1q68 4 101 3q46 -2 80 -12z
M382 257q-40 -65 -78 -133q111 12 227 21q68 320 56 356l1 1v0q-30 -9 -86 -76.5t-120 -168.5zM528 128q-120 -9 -233 -21q-13 -24 -25 -49q36 -13 63.5 -39t49 -71t34 -115t13.5 -164q17 88 62 295q24 109 36 164z" />
    <glyph glyph-name="amacron" unicode="&#x101;" horiz-adv-x="561" 
d="M143 677h297v-71h-297v71zM29 137q16 29 42 48.5t54 16.5q8 0 7.5 -8t-8.5 -8q-23 2 -45 -15t-36 -42q-8 -16 -10 -29t2 -18v-1q5 -6 21 -3q28 7 68 72q12 19 16 23q6 5 11 -1q3 -3 2 -6q0 -3 -7 -18q-11 -22 -16 -34q-10 -25 -7 -36q2 -6 10 -6q10 0 28 7q28 11 62.5 34
t46.5 38q6 6 12 0.5t0 -11.5q-13 -15 -49 -39.5t-66 -36.5q-21 -8 -35 -8q-19 1 -24 18q-3 9 0 24q-24 -30 -48 -35l-1 -1q-25 -5 -36 9l-1 1q-8 11 -5 30q2 16 12 35z" />
    <glyph glyph-name="Abreve" unicode="&#x102;" horiz-adv-x="639" 
d="M316 771q-69 0 -108.5 33.5t-44.5 100.5h54q4 -35 24.5 -49t76.5 -14q49 0 73 15.5t28 47.5h55q-6 -64 -48 -99t-110 -35zM184 -141q-2 -7 -9.5 -4.5t-5.5 9.5q30 86 78 184q-31 9 -73 11q-32 1 -99 -3q-33 -2 -49 -2q-4 0 -6.5 2t-3.5 5q-4 14 33 24q26 8 78 16
q63 10 158 21q40 74 84 143q32 51 63.5 95t59.5 77t51.5 54t39.5 26l1 1q12 4 18 -12q14 -40 -54 -360q67 5 116 8q8 0 8.5 -8t-7.5 -8q-52 -3 -120 -8q-12 -56 -37 -170q-61 -280 -79 -383q-2 -8 -10 -7q-7 2 -6 9q4 116 -5 200.5t-30.5 137.5t-49 82.5t-65.5 43.5
q-49 -98 -79 -184zM255 63q10 21 21 42q-87 -10 -147 -20q-46 -7 -72 -14l17 1q68 4 101 3q46 -2 80 -12zM382 257q-40 -65 -78 -133q111 12 227 21q68 320 56 356l1 1v0q-30 -9 -86 -76.5t-120 -168.5zM528 128q-120 -9 -233 -21q-13 -24 -25 -49q36 -13 63.5 -39t49 -71
t34 -115t13.5 -164q17 88 62 295q24 109 36 164z" />
    <glyph glyph-name="abreve" unicode="&#x103;" horiz-adv-x="561" 
d="M281 606q-69 0 -108.5 33.5t-44.5 100.5h54q4 -35 24.5 -49t76.5 -14q49 0 73 15.5t28 47.5h55q-6 -64 -48 -99t-110 -35zM29 137q16 29 42 48.5t54 16.5q8 0 7.5 -8t-8.5 -8q-23 2 -45 -15t-36 -42q-8 -16 -10 -29t2 -18v-1q5 -6 21 -3q28 7 68 72q12 19 16 23
q6 5 11 -1q3 -3 2 -6q0 -3 -7 -18q-11 -22 -16 -34q-10 -25 -7 -36q2 -6 10 -6q10 0 28 7q28 11 62.5 34t46.5 38q6 6 12 0.5t0 -11.5q-13 -15 -49 -39.5t-66 -36.5q-21 -8 -35 -8q-19 1 -24 18q-3 9 0 24q-24 -30 -48 -35l-1 -1q-25 -5 -36 9l-1 1q-8 11 -5 30q2 16 12 35z
" />
    <glyph glyph-name="Aogonek" unicode="&#x104;" horiz-adv-x="639" 
d="M540 -116q0 -22 12 -33.5t33 -11.5t48 6v-56q-34 -9 -62 -9q-103 0 -103 94q0 68 78 126h62q-34 -32 -51 -58.5t-17 -57.5zM184 -141q-2 -7 -9.5 -4.5t-5.5 9.5q30 86 78 184q-31 9 -73 11q-32 1 -99 -3q-33 -2 -49 -2q-4 0 -6.5 2t-3.5 5q-4 14 33 24q26 8 78 16
q63 10 158 21q40 74 84 143q32 51 63.5 95t59.5 77t51.5 54t39.5 26l1 1q12 4 18 -12q14 -40 -54 -360q67 5 116 8q8 0 8.5 -8t-7.5 -8q-52 -3 -120 -8q-12 -56 -37 -170q-61 -280 -79 -383q-2 -8 -10 -7q-7 2 -6 9q4 116 -5 200.5t-30.5 137.5t-49 82.5t-65.5 43.5
q-49 -98 -79 -184zM255 63q10 21 21 42q-87 -10 -147 -20q-46 -7 -72 -14l17 1q68 4 101 3q46 -2 80 -12zM382 257q-40 -65 -78 -133q111 12 227 21q68 320 56 356l1 1v0q-30 -9 -86 -76.5t-120 -168.5zM528 128q-120 -9 -233 -21q-13 -24 -25 -49q36 -13 63.5 -39t49 -71
t34 -115t13.5 -164q17 88 62 295q24 109 36 164z" />
    <glyph glyph-name="aogonek" unicode="&#x105;" horiz-adv-x="561" 
d="M410 -116q0 -22 12 -33.5t33 -11.5t48 6v-56q-34 -9 -62 -9q-103 0 -103 94q0 68 78 126h62q-34 -32 -51 -58.5t-17 -57.5zM29 137q16 29 42 48.5t54 16.5q8 0 7.5 -8t-8.5 -8q-23 2 -45 -15t-36 -42q-8 -16 -10 -29t2 -18v-1q5 -6 21 -3q28 7 68 72q12 19 16 23
q6 5 11 -1q3 -3 2 -6q0 -3 -7 -18q-11 -22 -16 -34q-10 -25 -7 -36q2 -6 10 -6q10 0 28 7q28 11 62.5 34t46.5 38q6 6 12 0.5t0 -11.5q-13 -15 -49 -39.5t-66 -36.5q-21 -8 -35 -8q-19 1 -24 18q-3 9 0 24q-24 -30 -48 -35l-1 -1q-25 -5 -36 9l-1 1q-8 11 -5 30q2 16 12 35z
" />
    <glyph glyph-name="Cacute" unicode="&#x106;" horiz-adv-x="631" 
d="M490 464q-6 -33 -18 -64t-28 -56t-34 -36q-7 -4 -11 2.5t2 11.5q24 15 44 56t29 89q9 44 5 78q-5 35 -22 51q-14 12 -36 10q-52 -4 -129 -102q-81 -103 -154 -262q-87 -191 -103 -327q-8 -64 5 -101q12 -38 44 -45q19 -3 43 2q102 27 196 141q66 81 122 198q3 7 10.5 3.5
t3.5 -10.5q-56 -118 -124 -201q-97 -118 -204 -146q-28 -7 -50 -2q-41 8 -57 55q-13 41 -5 108q16 139 105 332q73 160 155 265q82 104 141 108q28 2 47 -14q22 -20 27 -61q5 -37 -4 -83zM318 783q19 23 47.5 66.5t47.5 81.5h106v-10q-21 -31 -66.5 -78.5t-76.5 -71.5h-58
v12z" />
    <glyph glyph-name="cacute" unicode="&#x107;" horiz-adv-x="479" 
d="M124 201q11 -4 16 -18q3 -7 -4 -10t-10 4q-4 8 -8 10q-6 2 -16 -4q-11 -6 -25 -21q-20 -23 -36.5 -53.5t-17.5 -50.5q0 -5 4 -8q5 -4 16 -5q12 -1 27 4q43 11 55 39q3 7 10.5 4t3.5 -11q-14 -34 -64 -48q-18 -5 -32 -4q-17 1 -26.5 8.5t-9.5 20.5v1q1 22 18.5 55.5
t39.5 58.5q15 17 29 24q17 10 30 4zM224 618q19 23 47.5 66.5t47.5 81.5h106v-10q-21 -31 -66.5 -78.5t-76.5 -71.5h-58v12z" />
    <glyph glyph-name="Ccircumflex" unicode="&#x108;" horiz-adv-x="631" 
d="M220 782q61 65 86 96.5t37 52.5h90q25 -49 125 -149v-11h-62q-44 26 -109 90q-64 -62 -107 -90h-60v11zM490 464q-6 -33 -18 -64t-28 -56t-34 -36q-7 -4 -11 2.5t2 11.5q24 15 44 56t29 89q9 44 5 78q-5 35 -22 51q-14 12 -36 10q-52 -4 -129 -102q-81 -103 -154 -262
q-87 -191 -103 -327q-8 -64 5 -101q12 -38 44 -45q19 -3 43 2q102 27 196 141q66 81 122 198q3 7 10.5 3.5t3.5 -10.5q-56 -118 -124 -201q-97 -118 -204 -146q-28 -7 -50 -2q-41 8 -57 55q-13 41 -5 108q16 139 105 332q73 160 155 265q82 104 141 108q28 2 47 -14
q22 -20 27 -61q5 -37 -4 -83z" />
    <glyph glyph-name="ccircumflex" unicode="&#x109;" horiz-adv-x="479" 
d="M118 617q61 65 86 96.5t37 52.5h90q25 -49 125 -149v-11h-62q-44 26 -109 90q-64 -62 -107 -90h-60v11zM124 201q11 -4 16 -18q3 -7 -4 -10t-10 4q-4 8 -8 10q-6 2 -16 -4q-11 -6 -25 -21q-20 -23 -36.5 -53.5t-17.5 -50.5q0 -5 4 -8q5 -4 16 -5q12 -1 27 4q43 11 55 39
q3 7 10.5 4t3.5 -11q-14 -34 -64 -48q-18 -5 -32 -4q-17 1 -26.5 8.5t-9.5 20.5v1q1 22 18.5 55.5t39.5 58.5q15 17 29 24q17 10 30 4z" />
    <glyph glyph-name="Cdotaccent" unicode="&#x10a;" horiz-adv-x="631" 
d="M337 846q0 29 15 42.5t37 13.5q21 0 36 -13.5t15 -42.5t-15.5 -42.5t-35.5 -13.5q-22 0 -37 13.5t-15 42.5zM490 464q-6 -33 -18 -64t-28 -56t-34 -36q-7 -4 -11 2.5t2 11.5q24 15 44 56t29 89q9 44 5 78q-5 35 -22 51q-14 12 -36 10q-52 -4 -129 -102
q-81 -103 -154 -262q-87 -191 -103 -327q-8 -64 5 -101q12 -38 44 -45q19 -3 43 2q102 27 196 141q66 81 122 198q3 7 10.5 3.5t3.5 -10.5q-56 -118 -124 -201q-97 -118 -204 -146q-28 -7 -50 -2q-41 8 -57 55q-13 41 -5 108q16 139 105 332q73 160 155 265q82 104 141 108
q28 2 47 -14q22 -20 27 -61q5 -37 -4 -83z" />
    <glyph glyph-name="cdotaccent" unicode="&#x10b;" horiz-adv-x="479" 
d="M241 681q0 29 15 42.5t37 13.5q21 0 36 -13.5t15 -42.5t-15.5 -42.5t-35.5 -13.5q-22 0 -37 13.5t-15 42.5zM124 201q11 -4 16 -18q3 -7 -4 -10t-10 4q-4 8 -8 10q-6 2 -16 -4q-11 -6 -25 -21q-20 -23 -36.5 -53.5t-17.5 -50.5q0 -5 4 -8q5 -4 16 -5q12 -1 27 4
q43 11 55 39q3 7 10.5 4t3.5 -11q-14 -34 -64 -48q-18 -5 -32 -4q-17 1 -26.5 8.5t-9.5 20.5v1q1 22 18.5 55.5t39.5 58.5q15 17 29 24q17 10 30 4z" />
    <glyph glyph-name="Ccaron" unicode="&#x10c;" horiz-adv-x="631" 
d="M220 931h60q56 -36 107 -92q62 62 109 92h62v-13q-100 -100 -125 -147h-90q-29 50 -123 147v13zM490 464q-6 -33 -18 -64t-28 -56t-34 -36q-7 -4 -11 2.5t2 11.5q24 15 44 56t29 89q9 44 5 78q-5 35 -22 51q-14 12 -36 10q-52 -4 -129 -102q-81 -103 -154 -262
q-87 -191 -103 -327q-8 -64 5 -101q12 -38 44 -45q19 -3 43 2q102 27 196 141q66 81 122 198q3 7 10.5 3.5t3.5 -10.5q-56 -118 -124 -201q-97 -118 -204 -146q-28 -7 -50 -2q-41 8 -57 55q-13 41 -5 108q16 139 105 332q73 160 155 265q82 104 141 108q28 2 47 -14
q22 -20 27 -61q5 -37 -4 -83z" />
    <glyph glyph-name="ccaron" unicode="&#x10d;" horiz-adv-x="479" 
d="M122 766h60q56 -36 107 -92q62 62 109 92h62v-13q-100 -100 -125 -147h-90q-29 50 -123 147v13zM124 201q11 -4 16 -18q3 -7 -4 -10t-10 4q-4 8 -8 10q-6 2 -16 -4q-11 -6 -25 -21q-20 -23 -36.5 -53.5t-17.5 -50.5q0 -5 4 -8q5 -4 16 -5q12 -1 27 4q43 11 55 39
q3 7 10.5 4t3.5 -11q-14 -34 -64 -48q-18 -5 -32 -4q-17 1 -26.5 8.5t-9.5 20.5v1q1 22 18.5 55.5t39.5 58.5q15 17 29 24q17 10 30 4z" />
    <glyph glyph-name="Dcaron" unicode="&#x10e;" horiz-adv-x="729" 
d="M170 931h60q56 -36 107 -92q62 62 109 92h62v-13q-100 -100 -125 -147h-90q-29 50 -123 147v13zM310 400q5 6 11.5 1.5t1.5 -11.5q-25 -35 -91 -260q60 44 106 64q7 3 10 -4.5t-4 -10.5q-52 -22 -120 -74q-10 -37 -34 -119l-8 -30q-3 -8 -10.5 -6t-5.5 10l1 3q4 15 11 39
q16 57 24 85q-29 -23 -54 -47q-90 -86 -108 -152q-15 -51 -2 -74q11 -19 41 -17q32 2 79 23q86 40 180 122t139 162q63 110 82 223q20 115 -10 186q-9 19 -22 33q-27 30 -74 32q-49 3 -113 -24q-96 -41 -207 -140q93 19 117 -53q12 -36 5 -99q36 111 55 138zM137 51
q33 32 72 62q47 179 26 243q-23 68 -129 34q-8 -3 -10 5q-2 5 2 8q126 119 236 166q67 28 120 25q53 -2 85 -37q15 -16 25 -38q32 -75 11 -194q-20 -117 -84 -229q-46 -82 -142 -166t-184 -124q-50 -23 -85 -25q-40 -2 -56 25q-16 29 0 87q20 69 113 158z" />
    <glyph glyph-name="dcaron" unicode="&#x10f;" horiz-adv-x="615" 
d="M575 612q11 32 20.5 77.5t12.5 70.5h87v-9q-6 -26 -27 -71t-45 -80h-48v12zM107 163q4 -7 -3.5 -10.5t-10.5 3.5q-11 22 -24 16q-13 -7 -24 -30q-12 -23 -13 -43q-1 -19 8 -20q26 2 65 71q5 8 9 16q22 82 49 147q20 49 33 65q7 9 14 8q8 -3 7 -15q-3 -19 -23 -68
q-39 -93 -65 -143q-10 -39 -16 -72q-17 -91 1 -100h1q26 -13 78 29q33 27 65.5 67t46.5 65q4 7 11 3.5t3 -10.5q-15 -27 -48.5 -68.5t-67.5 -69.5q-60 -48 -95 -31h-1q-28 15 -10 118q2 11 5 23q-34 -49 -61 -51h-1q-26 2 -24 37q1 23 14 49q14 28 32 37q27 13 45 -23z
M177 307q-6 -15 -13 -34q7 17 15 36q6 14 11 26q-6 -12 -13 -28z" />
    <glyph glyph-name="Dcroat" unicode="&#x110;" horiz-adv-x="729" 
d="M669 364q0 -175 -96 -269.5t-278 -94.5h-191v314h-74v78h74v322h213q167 0 259.5 -92t92.5 -258zM574 361q0 137 -68 206.5t-202 69.5h-110v-245h178v-78h-178v-237h90q290 0 290 284z" />
    <glyph glyph-name="dcroat" unicode="&#x111;" horiz-adv-x="617" 
d="M275 -10q-104 0 -162 72t-58 203q0 132 57.5 205t162.5 73q109 0 167 -79h6q-1 7 -3.5 33.5t-2.5 46.5v61h-213v66h213v89h88v-89h76v-66h-76v-605h-72l-13 72h-4q-56 -82 -166 -82zM290 63q80 0 116.5 43t36.5 142v17q0 112 -37 158.5t-118 46.5q-68 0 -104.5 -52
t-36.5 -154q0 -96 35 -148.5t108 -52.5z" />
    <glyph glyph-name="Emacron" unicode="&#x112;" horiz-adv-x="556" 
d="M148 842h297v-71h-297v71zM560 572q-6 -30 -23 -65t-39 -66t-45 -54q-6 -6 -11.5 -0.5t0.5 11.5q34 34 63.5 84t39.5 93q5 23 2.5 40t-11.5 26q-8 8 -22 11l-1 1q-27 5 -67 -13q-31 -15 -68.5 -43.5t-73 -64t-69.5 -76.5q-50 -60 -85.5 -118t-43.5 -96q-4 -20 0 -30h1
q7 -15 43 1q26 11 85 50q62 42 77.5 42.5t16.5 -15.5v-1q0 -6 -6 -16.5t-20 -28.5t-25 -31.5t-34 -41.5q-47 -57 -74 -91t-64 -88.5t-54 -93.5q-49 -115 17 -116q55 -1 142 64q26 19 46 39q81 79 237 268q5 7 11 1.5t1 -11.5q-156 -190 -238 -270q-77 -76 -159 -99
q-78 -23 -91 29q-9 35 20 102q17 40 54.5 95t64.5 89.5t75 91.5q80 96 81 108q-11 -1 -69 -39q-60 -40 -87 -52q-51 -22 -65 7q-7 15 -2 41q6 26 24.5 62.5t46.5 77t62 81.5q53 64 110.5 114.5t106.5 72.5q44 21 77 14q19 -4 30 -16q13 -13 16 -35q3 -20 -3 -45z" />
    <glyph glyph-name="emacron" unicode="&#x113;" horiz-adv-x="563" 
d="M150 677h297v-71h-297v71zM41 129q37 9 65 41q10 10 14 20q3 8 0 12q-2 4 -8 6q-18 6 -40 -21q-13 -17 -23 -40zM134 184q-4 -12 -16 -25q-15 -17 -38 -30.5t-44 -16.5q-1 -5 -2 -9q-8 -40 8 -49q20 -11 75 18q30 15 59 37.5t44 41.5q6 6 12 1t1 -12q-11 -12 -28.5 -27
t-38.5 -30t-42 -26q-62 -31 -90 -17q-25 14 -15 66q4 24 15 48q11 25 26 43q29 36 57 26q13 -4 18 -14q5 -11 -1 -25z" />
    <glyph glyph-name="Ebreve" unicode="&#x114;" horiz-adv-x="556" 
d="M299 771q-69 0 -108.5 33.5t-44.5 100.5h54q4 -35 24.5 -49t76.5 -14q49 0 73 15.5t28 47.5h55q-6 -64 -48 -99t-110 -35zM560 572q-6 -30 -23 -65t-39 -66t-45 -54q-6 -6 -11.5 -0.5t0.5 11.5q34 34 63.5 84t39.5 93q5 23 2.5 40t-11.5 26q-8 8 -22 11l-1 1
q-27 5 -67 -13q-31 -15 -68.5 -43.5t-73 -64t-69.5 -76.5q-50 -60 -85.5 -118t-43.5 -96q-4 -20 0 -30h1q7 -15 43 1q26 11 85 50q62 42 77.5 42.5t16.5 -15.5v-1q0 -6 -6 -16.5t-20 -28.5t-25 -31.5t-34 -41.5q-47 -57 -74 -91t-64 -88.5t-54 -93.5q-49 -115 17 -116
q55 -1 142 64q26 19 46 39q81 79 237 268q5 7 11 1.5t1 -11.5q-156 -190 -238 -270q-77 -76 -159 -99q-78 -23 -91 29q-9 35 20 102q17 40 54.5 95t64.5 89.5t75 91.5q80 96 81 108q-11 -1 -69 -39q-60 -40 -87 -52q-51 -22 -65 7q-7 15 -2 41q6 26 24.5 62.5t46.5 77
t62 81.5q53 64 110.5 114.5t106.5 72.5q44 21 77 14q19 -4 30 -16q13 -13 16 -35q3 -20 -3 -45z" />
    <glyph glyph-name="ebreve" unicode="&#x115;" horiz-adv-x="563" 
d="M292 606q-69 0 -108.5 33.5t-44.5 100.5h54q4 -35 24.5 -49t76.5 -14q49 0 73 15.5t28 47.5h55q-6 -64 -48 -99t-110 -35zM41 129q37 9 65 41q10 10 14 20q3 8 0 12q-2 4 -8 6q-18 6 -40 -21q-13 -17 -23 -40zM134 184q-4 -12 -16 -25q-15 -17 -38 -30.5t-44 -16.5
q-1 -5 -2 -9q-8 -40 8 -49q20 -11 75 18q30 15 59 37.5t44 41.5q6 6 12 1t1 -12q-11 -12 -28.5 -27t-38.5 -30t-42 -26q-62 -31 -90 -17q-25 14 -15 66q4 24 15 48q11 25 26 43q29 36 57 26q13 -4 18 -14q5 -11 -1 -25z" />
    <glyph glyph-name="Edotaccent" unicode="&#x116;" horiz-adv-x="556" 
d="M253 832q0 29 15 42.5t37 13.5q21 0 36 -13.5t15 -42.5t-15.5 -42.5t-35.5 -13.5q-22 0 -37 13.5t-15 42.5zM560 572q-6 -30 -23 -65t-39 -66t-45 -54q-6 -6 -11.5 -0.5t0.5 11.5q34 34 63.5 84t39.5 93q5 23 2.5 40t-11.5 26q-8 8 -22 11l-1 1q-27 5 -67 -13
q-31 -15 -68.5 -43.5t-73 -64t-69.5 -76.5q-50 -60 -85.5 -118t-43.5 -96q-4 -20 0 -30h1q7 -15 43 1q26 11 85 50q62 42 77.5 42.5t16.5 -15.5v-1q0 -6 -6 -16.5t-20 -28.5t-25 -31.5t-34 -41.5q-47 -57 -74 -91t-64 -88.5t-54 -93.5q-49 -115 17 -116q55 -1 142 64
q26 19 46 39q81 79 237 268q5 7 11 1.5t1 -11.5q-156 -190 -238 -270q-77 -76 -159 -99q-78 -23 -91 29q-9 35 20 102q17 40 54.5 95t64.5 89.5t75 91.5q80 96 81 108q-11 -1 -69 -39q-60 -40 -87 -52q-51 -22 -65 7q-7 15 -2 41q6 26 24.5 62.5t46.5 77t62 81.5
q53 64 110.5 114.5t106.5 72.5q44 21 77 14q19 -4 30 -16q13 -13 16 -35q3 -20 -3 -45z" />
    <glyph glyph-name="edotaccent" unicode="&#x117;" horiz-adv-x="563" 
d="M243 681q0 29 15 42.5t37 13.5q21 0 36 -13.5t15 -42.5t-15.5 -42.5t-35.5 -13.5q-22 0 -37 13.5t-15 42.5zM41 129q37 9 65 41q10 10 14 20q3 8 0 12q-2 4 -8 6q-18 6 -40 -21q-13 -17 -23 -40zM134 184q-4 -12 -16 -25q-15 -17 -38 -30.5t-44 -16.5q-1 -5 -2 -9
q-8 -40 8 -49q20 -11 75 18q30 15 59 37.5t44 41.5q6 6 12 1t1 -12q-11 -12 -28.5 -27t-38.5 -30t-42 -26q-62 -31 -90 -17q-25 14 -15 66q4 24 15 48q11 25 26 43q29 36 57 26q13 -4 18 -14q5 -11 -1 -25z" />
    <glyph glyph-name="Eogonek" unicode="&#x118;" horiz-adv-x="556" 
d="M392 -116q0 -22 12 -33.5t33 -11.5t48 6v-56q-34 -9 -62 -9q-103 0 -103 94q0 68 78 126h62q-34 -32 -51 -58.5t-17 -57.5zM560 572q-6 -30 -23 -65t-39 -66t-45 -54q-6 -6 -11.5 -0.5t0.5 11.5q34 34 63.5 84t39.5 93q5 23 2.5 40t-11.5 26q-8 8 -22 11l-1 1
q-27 5 -67 -13q-31 -15 -68.5 -43.5t-73 -64t-69.5 -76.5q-50 -60 -85.5 -118t-43.5 -96q-4 -20 0 -30h1q7 -15 43 1q26 11 85 50q62 42 77.5 42.5t16.5 -15.5v-1q0 -6 -6 -16.5t-20 -28.5t-25 -31.5t-34 -41.5q-47 -57 -74 -91t-64 -88.5t-54 -93.5q-49 -115 17 -116
q55 -1 142 64q26 19 46 39q81 79 237 268q5 7 11 1.5t1 -11.5q-156 -190 -238 -270q-77 -76 -159 -99q-78 -23 -91 29q-9 35 20 102q17 40 54.5 95t64.5 89.5t75 91.5q80 96 81 108q-11 -1 -69 -39q-60 -40 -87 -52q-51 -22 -65 7q-7 15 -2 41q6 26 24.5 62.5t46.5 77
t62 81.5q53 64 110.5 114.5t106.5 72.5q44 21 77 14q19 -4 30 -16q13 -13 16 -35q3 -20 -3 -45z" />
    <glyph glyph-name="eogonek" unicode="&#x119;" horiz-adv-x="563" 
d="M387 -102q0 -22 12 -33.5t33 -11.5t48 6v-56q-34 -9 -62 -9q-103 0 -103 94q0 68 78 126h62q-34 -32 -51 -58.5t-17 -57.5zM41 129q37 9 65 41q10 10 14 20q3 8 0 12q-2 4 -8 6q-18 6 -40 -21q-13 -17 -23 -40zM134 184q-4 -12 -16 -25q-15 -17 -38 -30.5t-44 -16.5
q-1 -5 -2 -9q-8 -40 8 -49q20 -11 75 18q30 15 59 37.5t44 41.5q6 6 12 1t1 -12q-11 -12 -28.5 -27t-38.5 -30t-42 -26q-62 -31 -90 -17q-25 14 -15 66q4 24 15 48q11 25 26 43q29 36 57 26q13 -4 18 -14q5 -11 -1 -25z" />
    <glyph glyph-name="Ecaron" unicode="&#x11a;" horiz-adv-x="556" 
d="M133 931h60q56 -36 107 -92q62 62 109 92h62v-13q-100 -100 -125 -147h-90q-29 50 -123 147v13zM560 572q-6 -30 -23 -65t-39 -66t-45 -54q-6 -6 -11.5 -0.5t0.5 11.5q34 34 63.5 84t39.5 93q5 23 2.5 40t-11.5 26q-8 8 -22 11l-1 1q-27 5 -67 -13q-31 -15 -68.5 -43.5
t-73 -64t-69.5 -76.5q-50 -60 -85.5 -118t-43.5 -96q-4 -20 0 -30h1q7 -15 43 1q26 11 85 50q62 42 77.5 42.5t16.5 -15.5v-1q0 -6 -6 -16.5t-20 -28.5t-25 -31.5t-34 -41.5q-47 -57 -74 -91t-64 -88.5t-54 -93.5q-49 -115 17 -116q55 -1 142 64q26 19 46 39q81 79 237 268
q5 7 11 1.5t1 -11.5q-156 -190 -238 -270q-77 -76 -159 -99q-78 -23 -91 29q-9 35 20 102q17 40 54.5 95t64.5 89.5t75 91.5q80 96 81 108q-11 -1 -69 -39q-60 -40 -87 -52q-51 -22 -65 7q-7 15 -2 41q6 26 24.5 62.5t46.5 77t62 81.5q53 64 110.5 114.5t106.5 72.5
q44 21 77 14q19 -4 30 -16q13 -13 16 -35q3 -20 -3 -45z" />
    <glyph glyph-name="ecaron" unicode="&#x11b;" horiz-adv-x="563" 
d="M126 766h60q56 -36 107 -92q62 62 109 92h62v-13q-100 -100 -125 -147h-90q-29 50 -123 147v13zM41 129q37 9 65 41q10 10 14 20q3 8 0 12q-2 4 -8 6q-18 6 -40 -21q-13 -17 -23 -40zM134 184q-4 -12 -16 -25q-15 -17 -38 -30.5t-44 -16.5q-1 -5 -2 -9q-8 -40 8 -49
q20 -11 75 18q30 15 59 37.5t44 41.5q6 6 12 1t1 -12q-11 -12 -28.5 -27t-38.5 -30t-42 -26q-62 -31 -90 -17q-25 14 -15 66q4 24 15 48q11 25 26 43q29 36 57 26q13 -4 18 -14q5 -11 -1 -25z" />
    <glyph glyph-name="Gcircumflex" unicode="&#x11c;" horiz-adv-x="728" 
d="M248 782q61 65 86 96.5t37 52.5h90q25 -49 125 -149v-11h-62q-44 26 -109 90q-64 -62 -107 -90h-60v11zM198 154q-8 -2 -10 5.5t5 9.5q32 10 107 40q39 15 57 22l2 3q22 50 36 59q7 4 14 1l1 -1q12 -8 -6 -46q60 18 81 6q7 -4 3 -11t-11 -3q-17 10 -84 -12
q-9 -16 -21 -34q-14 -21 -31 -44q-6 -16 -13 -35q-45 -125 -81 -251t-27 -135q6 -6 0 -11.5t-12 0.5q-11 12 22.5 139t79.5 254l-4 -4q-41 -49 -81 -84q-124 -109 -179 -48q-53 57 -14 191q20 67 59.5 139t86.5 130q29 35 60.5 64.5t61 49t54.5 29.5q32 12 55 8
q26 -5 37 -30q14 -30 2 -85q-1 -8 -9 -6.5t-6 9.5q10 50 -2 76q-7 17 -25 20q-19 4 -46 -7q-37 -14 -82 -50.5t-88 -88.5q-46 -56 -84.5 -126.5t-57.5 -135.5q-37 -126 10 -176v-1q44 -49 156 50q39 34 80 82q17 20 33 41q11 30 21 53q-13 -5 -42 -16q-76 -31 -108 -40z
M378 238l6 2q17 29 18 38q-9 -8 -24 -40zM367 214q1 1 3 5l-1 -1z" />
    <glyph glyph-name="gcircumflex" unicode="&#x11d;" horiz-adv-x="615" 
d="M132 617q61 65 86 96.5t37 52.5h90q25 -49 125 -149v-11h-62q-44 26 -109 90q-64 -62 -107 -90h-60v11zM140 204q7 -4 3 -11t-11 -3q-16 9 -46 -7q-34 -19 -53 -49q-10 -17 -9 -31q1 -9 6 -14.5t13 -7.5q13 -3 29 3q11 4 22 12.5t22.5 22t18.5 23t19 25.5
q12 17 18.5 25.5t15.5 17t16 10.5h2q4 0 7 -1h1q13 -6 8 -36q-3 -23 -16 -62l-2 -6q44 21 90 38q7 3 10 -4.5t-5 -10.5q-53 -19 -103 -45q-28 -74 -72 -161t-87 -150q-59 -85 -106 -95q-20 -4 -35 8q-14 10 -20 31q-9 25 -3 62t25 72q47 84 157 166q60 44 128 79q4 11 8 21
q12 38 16 60q2 16 0 18q-9 -3 -40 -46q-17 -24 -27 -37t-28 -29.5t-34 -22.5q-21 -8 -39 -4q-13 3 -21.5 13t-9.5 24q-1 19 12 40q20 34 58 55q38 20 62 7zM207 204zM-72 -297q40 8 96 88q40 59 81.5 139t69.5 152q-59 -31 -110 -69q-108 -80 -153 -161q-18 -32 -23 -65.5
t2 -55.5q5 -16 14.5 -23.5t22.5 -4.5z" />
    <glyph glyph-name="Gbreve" unicode="&#x11e;" horiz-adv-x="728" 
d="M414 771q-69 0 -108.5 33.5t-44.5 100.5h54q4 -35 24.5 -49t76.5 -14q49 0 73 15.5t28 47.5h55q-6 -64 -48 -99t-110 -35zM198 154q-8 -2 -10 5.5t5 9.5q32 10 107 40q39 15 57 22l2 3q22 50 36 59q7 4 14 1l1 -1q12 -8 -6 -46q60 18 81 6q7 -4 3 -11t-11 -3
q-17 10 -84 -12q-9 -16 -21 -34q-14 -21 -31 -44q-6 -16 -13 -35q-45 -125 -81 -251t-27 -135q6 -6 0 -11.5t-12 0.5q-11 12 22.5 139t79.5 254l-4 -4q-41 -49 -81 -84q-124 -109 -179 -48q-53 57 -14 191q20 67 59.5 139t86.5 130q29 35 60.5 64.5t61 49t54.5 29.5
q32 12 55 8q26 -5 37 -30q14 -30 2 -85q-1 -8 -9 -6.5t-6 9.5q10 50 -2 76q-7 17 -25 20q-19 4 -46 -7q-37 -14 -82 -50.5t-88 -88.5q-46 -56 -84.5 -126.5t-57.5 -135.5q-37 -126 10 -176v-1q44 -49 156 50q39 34 80 82q17 20 33 41q11 30 21 53q-13 -5 -42 -16
q-76 -31 -108 -40zM378 238l6 2q17 29 18 38q-9 -8 -24 -40zM367 214q1 1 3 5l-1 -1z" />
    <glyph glyph-name="gbreve" unicode="&#x11f;" horiz-adv-x="615" 
d="M300 606q-69 0 -108.5 33.5t-44.5 100.5h54q4 -35 24.5 -49t76.5 -14q49 0 73 15.5t28 47.5h55q-6 -64 -48 -99t-110 -35zM140 204q7 -4 3 -11t-11 -3q-16 9 -46 -7q-34 -19 -53 -49q-10 -17 -9 -31q1 -9 6 -14.5t13 -7.5q13 -3 29 3q11 4 22 12.5t22.5 22t18.5 23
t19 25.5q12 17 18.5 25.5t15.5 17t16 10.5h2q4 0 7 -1h1q13 -6 8 -36q-3 -23 -16 -62l-2 -6q44 21 90 38q7 3 10 -4.5t-5 -10.5q-53 -19 -103 -45q-28 -74 -72 -161t-87 -150q-59 -85 -106 -95q-20 -4 -35 8q-14 10 -20 31q-9 25 -3 62t25 72q47 84 157 166q60 44 128 79
q4 11 8 21q12 38 16 60q2 16 0 18q-9 -3 -40 -46q-17 -24 -27 -37t-28 -29.5t-34 -22.5q-21 -8 -39 -4q-13 3 -21.5 13t-9.5 24q-1 19 12 40q20 34 58 55q38 20 62 7zM207 204zM-72 -297q40 8 96 88q40 59 81.5 139t69.5 152q-59 -31 -110 -69q-108 -80 -153 -161
q-18 -32 -23 -65.5t2 -55.5q5 -16 14.5 -23.5t22.5 -4.5z" />
    <glyph glyph-name="Gdotaccent" unicode="&#x120;" horiz-adv-x="728" 
d="M371 846q0 29 15 42.5t37 13.5q21 0 36 -13.5t15 -42.5t-15.5 -42.5t-35.5 -13.5q-22 0 -37 13.5t-15 42.5zM198 154q-8 -2 -10 5.5t5 9.5q32 10 107 40q39 15 57 22l2 3q22 50 36 59q7 4 14 1l1 -1q12 -8 -6 -46q60 18 81 6q7 -4 3 -11t-11 -3q-17 10 -84 -12
q-9 -16 -21 -34q-14 -21 -31 -44q-6 -16 -13 -35q-45 -125 -81 -251t-27 -135q6 -6 0 -11.5t-12 0.5q-11 12 22.5 139t79.5 254l-4 -4q-41 -49 -81 -84q-124 -109 -179 -48q-53 57 -14 191q20 67 59.5 139t86.5 130q29 35 60.5 64.5t61 49t54.5 29.5q32 12 55 8
q26 -5 37 -30q14 -30 2 -85q-1 -8 -9 -6.5t-6 9.5q10 50 -2 76q-7 17 -25 20q-19 4 -46 -7q-37 -14 -82 -50.5t-88 -88.5q-46 -56 -84.5 -126.5t-57.5 -135.5q-37 -126 10 -176v-1q44 -49 156 50q39 34 80 82q17 20 33 41q11 30 21 53q-13 -5 -42 -16q-76 -31 -108 -40z
M378 238l6 2q17 29 18 38q-9 -8 -24 -40zM367 214q1 1 3 5l-1 -1z" />
    <glyph glyph-name="gdotaccent" unicode="&#x121;" horiz-adv-x="615" 
d="M247 681q0 29 15 42.5t37 13.5q21 0 36 -13.5t15 -42.5t-15.5 -42.5t-35.5 -13.5q-22 0 -37 13.5t-15 42.5zM140 204q7 -4 3 -11t-11 -3q-16 9 -46 -7q-34 -19 -53 -49q-10 -17 -9 -31q1 -9 6 -14.5t13 -7.5q13 -3 29 3q11 4 22 12.5t22.5 22t18.5 23t19 25.5
q12 17 18.5 25.5t15.5 17t16 10.5h2q4 0 7 -1h1q13 -6 8 -36q-3 -23 -16 -62l-2 -6q44 21 90 38q7 3 10 -4.5t-5 -10.5q-53 -19 -103 -45q-28 -74 -72 -161t-87 -150q-59 -85 -106 -95q-20 -4 -35 8q-14 10 -20 31q-9 25 -3 62t25 72q47 84 157 166q60 44 128 79q4 11 8 21
q12 38 16 60q2 16 0 18q-9 -3 -40 -46q-17 -24 -27 -37t-28 -29.5t-34 -22.5q-21 -8 -39 -4q-13 3 -21.5 13t-9.5 24q-1 19 12 40q20 34 58 55q38 20 62 7zM207 204zM-72 -297q40 8 96 88q40 59 81.5 139t69.5 152q-59 -31 -110 -69q-108 -80 -153 -161q-18 -32 -23 -65.5
t2 -55.5q5 -16 14.5 -23.5t22.5 -4.5z" />
    <glyph glyph-name="uni0122" unicode="&#x122;" horiz-adv-x="728" 
d="M322 -209q11 25 24 70.5t17 77.5h87v-9q-8 -31 -31.5 -76.5t-48.5 -74.5h-48v12zM198 154q-8 -2 -10 5.5t5 9.5q32 10 107 40q39 15 57 22l2 3q22 50 36 59q7 4 14 1l1 -1q12 -8 -6 -46q60 18 81 6q7 -4 3 -11t-11 -3q-17 10 -84 -12q-9 -16 -21 -34q-14 -21 -31 -44
q-6 -16 -13 -35q-45 -125 -81 -251t-27 -135q6 -6 0 -11.5t-12 0.5q-11 12 22.5 139t79.5 254l-4 -4q-41 -49 -81 -84q-124 -109 -179 -48q-53 57 -14 191q20 67 59.5 139t86.5 130q29 35 60.5 64.5t61 49t54.5 29.5q32 12 55 8q26 -5 37 -30q14 -30 2 -85q-1 -8 -9 -6.5
t-6 9.5q10 50 -2 76q-7 17 -25 20q-19 4 -46 -7q-37 -14 -82 -50.5t-88 -88.5q-46 -56 -84.5 -126.5t-57.5 -135.5q-37 -126 10 -176v-1q44 -49 156 50q39 34 80 82q17 20 33 41q11 30 21 53q-13 -5 -42 -16q-76 -31 -108 -40zM378 238l6 2q17 29 18 38q-9 -8 -24 -40z
M367 214q1 1 3 5l-1 -1z" />
    <glyph glyph-name="uni0123" unicode="&#x123;" horiz-adv-x="615" 
d="M379 754q-13 -29 -26 -74.5t-16 -73.5h-87v9q7 27 31.5 74t48.5 77h49v-12zM140 204q7 -4 3 -11t-11 -3q-16 9 -46 -7q-34 -19 -53 -49q-10 -17 -9 -31q1 -9 6 -14.5t13 -7.5q13 -3 29 3q11 4 22 12.5t22.5 22t18.5 23t19 25.5q12 17 18.5 25.5t15.5 17t16 10.5h2
q4 0 7 -1h1q13 -6 8 -36q-3 -23 -16 -62l-2 -6q44 21 90 38q7 3 10 -4.5t-5 -10.5q-53 -19 -103 -45q-28 -74 -72 -161t-87 -150q-59 -85 -106 -95q-20 -4 -35 8q-14 10 -20 31q-9 25 -3 62t25 72q47 84 157 166q60 44 128 79q4 11 8 21q12 38 16 60q2 16 0 18
q-9 -3 -40 -46q-17 -24 -27 -37t-28 -29.5t-34 -22.5q-21 -8 -39 -4q-13 3 -21.5 13t-9.5 24q-1 19 12 40q20 34 58 55q38 20 62 7zM207 204zM-72 -297q40 8 96 88q40 59 81.5 139t69.5 152q-59 -31 -110 -69q-108 -80 -153 -161q-18 -32 -23 -65.5t2 -55.5
q5 -16 14.5 -23.5t22.5 -4.5z" />
    <glyph glyph-name="Hcircumflex" unicode="&#x124;" horiz-adv-x="741" 
d="M200 782q61 65 86 96.5t37 52.5h90q25 -49 125 -149v-11h-62q-44 26 -109 90q-64 -62 -107 -90h-60v11zM324 585q8 3 11 -4t-5 -10q-47 -19 -105 -285q-21 -95 -42 -214q105 36 210 63q38 172 72 278q2 8 9.5 5.5t5.5 -9.5q-32 -103 -69 -269q34 8 60 13q8 2 9 -6t-6 -10
q-28 -5 -67 -15q-14 -63 -25 -120q-38 -198 -24 -224q4 -7 -3 -11t-11 3q-16 31 22 235q10 54 23 113q-107 -28 -209 -64q-39 -232 -62 -461q-1 -8 -9 -7t-7 8q5 82 6.5 140.5t-2 97t-7.5 61.5t-15.5 37.5t-19.5 20t-25 13.5q-9 4 -14 7h-1q-4 3 -6 7q-8 14 19 32
q20 12 60 29q30 13 69 27q21 125 43 224q61 273 115 295zM46 -21q18 -9 26 -14t20 -18.5t17.5 -31.5t10 -50.5t4.5 -77.5q18 135 39 261q-34 -13 -60 -24q-38 -16 -57 -28q-15 -9 -14 -10v-1q4 -2 14 -6z" />
    <glyph glyph-name="hcircumflex" unicode="&#x125;" horiz-adv-x="618" 
d="M143 809q61 65 86 96.5t37 52.5h90q25 -49 125 -149v-11h-62q-44 26 -109 90q-64 -62 -107 -90h-60v11zM6 178h1q27 94 45.5 153.5t44 133t45.5 110t35 35.5q1 0 2 -1h2q14 -7 2 -52q-10 -35 -32 -95q-53 -138 -115 -261q17 18 32 13t35 -39q11 -19 16 -24q6 -6 12 0
t11.5 0.5t0.5 -11.5q-17 -18 -35 -1q-7 7 -19 28q-17 29 -26 32q-8 2 -17.5 -8.5t-24.5 -44.5t-34 -92v-1q-3 -7 -10.5 -5t-5.5 10q10 33 29 98zM174 594q-15 3 -48 -88t-78 -244q51 109 88 206q22 59 31 93q8 31 7 33z" />
    <glyph glyph-name="Hbar" unicode="&#x126;" horiz-adv-x="741" 
d="M97 595v119h90v-119h366v119h90v-119h97v-72h-97v-523h-90v333h-366v-333h-90v523h-97v72h97zM553 412v111h-366v-111h366z" />
    <glyph glyph-name="hbar" unicode="&#x127;" horiz-adv-x="618" 
d="M450 0v323q0 65 -29 97t-91 32q-83 0 -120 -45t-37 -149v-258h-88v604h-76v66h76v90h88v-90h212v-66h-212v-87q0 -43 -5 -74h6q26 42 70.5 62.5t97.5 20.5q97 0 146 -47t49 -150v-329h-87z" />
    <glyph glyph-name="Itilde" unicode="&#x128;" horiz-adv-x="338" 
d="M244 772q-21 0 -41 9t-39.5 19.5t-37 19.5t-34.5 9q-24 0 -36 -14.5t-19 -43.5h-51q6 60 34 94t76 34q22 0 42.5 -9t39.5 -19.5t37 -19.5t33 -9q23 0 35.5 14.5t19.5 43.5h50q-6 -58 -34 -93t-75 -35zM26 -236q-8 -2 -10 6t6 9q189 42 304 56q138 18 192 1q8 -2 5.5 -9.5
t-9.5 -5.5q-52 16 -186 -1q-114 -15 -302 -56zM462 647q2 8 9.5 5t5.5 -10l-12 -34q22 4 42 6q137 18 192 1q8 -2 5.5 -9.5t-10.5 -5.5q-51 16 -185 -1q-24 -3 -51 -8q-64 -180 -108 -357q-49 -194 -75 -386q-1 -8 -9 -7t-7 9q26 193 75 388q44 174 106 350
q-96 -15 -234 -45q-7 -2 -9 6t6 9q144 32 244 48q7 20 15 41z" />
    <glyph glyph-name="itilde" unicode="&#x129;" horiz-adv-x="257" 
d="M204 607q-21 0 -41 9t-39.5 19.5t-37 19.5t-34.5 9q-24 0 -36 -14.5t-19 -43.5h-51q6 60 34 94t76 34q22 0 42.5 -9t39.5 -19.5t37 -19.5t33 -9q23 0 35.5 14.5t19.5 43.5h50q-6 -58 -34 -93t-75 -35zM173 0h-88v536h88v-536z" />
    <glyph glyph-name="Imacron" unicode="&#x12a;" horiz-adv-x="338" 
d="M21 842h297v-71h-297v71zM26 -236q-8 -2 -10 6t6 9q189 42 304 56q138 18 192 1q8 -2 5.5 -9.5t-9.5 -5.5q-52 16 -186 -1q-114 -15 -302 -56zM462 647q2 8 9.5 5t5.5 -10l-12 -34q22 4 42 6q137 18 192 1q8 -2 5.5 -9.5t-10.5 -5.5q-51 16 -185 -1q-24 -3 -51 -8
q-64 -180 -108 -357q-49 -194 -75 -386q-1 -8 -9 -7t-7 9q26 193 75 388q44 174 106 350q-96 -15 -234 -45q-7 -2 -9 6t6 9q144 32 244 48q7 20 15 41z" />
    <glyph glyph-name="imacron" unicode="&#x12b;" horiz-adv-x="257" 
d="M-18 677h297v-71h-297v71zM173 0h-88v536h88v-536z" />
    <glyph glyph-name="Ibreve" unicode="&#x12c;" horiz-adv-x="338" 
d="M168 771q-69 0 -108.5 33.5t-44.5 100.5h54q4 -35 24.5 -49t76.5 -14q49 0 73 15.5t28 47.5h55q-6 -64 -48 -99t-110 -35zM26 -236q-8 -2 -10 6t6 9q189 42 304 56q138 18 192 1q8 -2 5.5 -9.5t-9.5 -5.5q-52 16 -186 -1q-114 -15 -302 -56zM462 647q2 8 9.5 5t5.5 -10
l-12 -34q22 4 42 6q137 18 192 1q8 -2 5.5 -9.5t-10.5 -5.5q-51 16 -185 -1q-24 -3 -51 -8q-64 -180 -108 -357q-49 -194 -75 -386q-1 -8 -9 -7t-7 9q26 193 75 388q44 174 106 350q-96 -15 -234 -45q-7 -2 -9 6t6 9q144 32 244 48q7 20 15 41z" />
    <glyph glyph-name="ibreve" unicode="&#x12d;" horiz-adv-x="257" 
d="M126 606q-69 0 -108.5 33.5t-44.5 100.5h54q4 -35 24.5 -49t76.5 -14q49 0 73 15.5t28 47.5h55q-6 -64 -48 -99t-110 -35zM173 0h-88v536h88v-536z" />
    <glyph glyph-name="Iogonek" unicode="&#x12e;" horiz-adv-x="338" 
d="M160 -116q0 -22 12 -33.5t33 -11.5t48 6v-56q-34 -9 -62 -9q-103 0 -103 94q0 68 78 126h62q-34 -32 -51 -58.5t-17 -57.5zM26 -236q-8 -2 -10 6t6 9q189 42 304 56q138 18 192 1q8 -2 5.5 -9.5t-9.5 -5.5q-52 16 -186 -1q-114 -15 -302 -56zM462 647q2 8 9.5 5t5.5 -10
l-12 -34q22 4 42 6q137 18 192 1q8 -2 5.5 -9.5t-10.5 -5.5q-51 16 -185 -1q-24 -3 -51 -8q-64 -180 -108 -357q-49 -194 -75 -386q-1 -8 -9 -7t-7 9q26 193 75 388q44 174 106 350q-96 -15 -234 -45q-7 -2 -9 6t6 9q144 32 244 48q7 20 15 41z" />
    <glyph glyph-name="iogonek" unicode="&#x12f;" horiz-adv-x="257" 
d="M97 -116q0 -22 12 -33.5t33 -11.5t48 6v-56q-34 -9 -62 -9q-103 0 -103 94q0 68 78 126h62q-34 -32 -51 -58.5t-17 -57.5zM51 190q4 6 11 2t2 -11q-4 -6 -12 -27q-11 -26 -17 -45q-5 -15 -2 -24q2 -7 8 -9q9 -3 23 -1q38 6 91 43q6 5 10.5 -1.5t-1.5 -11.5
q-56 -39 -98 -46q-18 -3 -30 2q-15 6 -19 20q-3 14 3 33t17 46q9 22 14 30zM71.5 233q5.5 3 10.5 0.5t7 -8.5q1 -6 -1 -12q-3 -6 -8 -9h-1q-5 -3 -10 -1t-7 8t1 12.5t8.5 9.5z" />
    <glyph glyph-name="Idotaccent" unicode="&#x130;" horiz-adv-x="338" 
d="M117 846q0 29 15 42.5t37 13.5q21 0 36 -13.5t15 -42.5t-15.5 -42.5t-35.5 -13.5q-22 0 -37 13.5t-15 42.5zM26 -236q-8 -2 -10 6t6 9q189 42 304 56q138 18 192 1q8 -2 5.5 -9.5t-9.5 -5.5q-52 16 -186 -1q-114 -15 -302 -56zM462 647q2 8 9.5 5t5.5 -10l-12 -34
q22 4 42 6q137 18 192 1q8 -2 5.5 -9.5t-10.5 -5.5q-51 16 -185 -1q-24 -3 -51 -8q-64 -180 -108 -357q-49 -194 -75 -386q-1 -8 -9 -7t-7 9q26 193 75 388q44 174 106 350q-96 -15 -234 -45q-7 -2 -9 6t6 9q144 32 244 48q7 20 15 41z" />
    <glyph glyph-name="dotlessi" unicode="&#x131;" horiz-adv-x="257" 
d="M173 0h-88v536h88v-536z" />
    <glyph glyph-name="IJ" unicode="&#x132;" horiz-adv-x="611" 
d="M26 -236q-8 -2 -10 6t6 9q189 42 304 56q138 18 192 1q8 -2 5.5 -9.5t-9.5 -5.5q-52 16 -186 -1q-114 -15 -302 -56zM462 647q2 8 9.5 5t5.5 -10l-12 -34q22 4 42 6q137 18 192 1q8 -2 5.5 -9.5t-10.5 -5.5q-51 16 -185 -1q-24 -3 -51 -8q-64 -180 -108 -357
q-49 -194 -75 -386q-1 -8 -9 -7t-7 9q26 193 75 388q44 174 106 350q-96 -15 -234 -45q-7 -2 -9 6t6 9q144 32 244 48q7 20 15 41zM697 410q-3 -89 -22 -204q-11 -68 -27 -135q109 70 185 82q8 2 9.5 -6t-6.5 -9q-79 -14 -193 -90q-8 -33 -16 -65q-27 -100 -58.5 -176
t-59 -116.5t-54.5 -60.5q-26 -20 -50 -18q-23 3 -36 25q-29 47 -2 129q18 55 67 116t117 117q38 31 78 59q17 75 30 151q18 111 22 199q-94 -16 -228 -45q-8 -2 -9.5 6t6.5 9q189 42 304 56q137 18 192 1q7 -2 5 -9.5t-10 -5.5q-52 16 -185 -1q-28 -4 -59 -9zM446 -358
q40 30 83 115t82 230q6 23 12 48q-32 -23 -62 -48q-66 -55 -113.5 -114t-65.5 -112q-24 -75 0 -115q10 -16 25 -18q17 -2 39 14z" />
    <glyph glyph-name="ij" unicode="&#x133;" horiz-adv-x="514" 
d="M51 190q4 6 11 2t2 -11q-4 -6 -12 -27q-11 -26 -17 -45q-5 -15 -2 -24q2 -7 8 -9q9 -3 23 -1q38 6 91 43q6 5 10.5 -1.5t-1.5 -11.5q-56 -39 -98 -46q-18 -3 -30 2q-15 6 -19 20q-3 14 3 33t17 46q9 22 14 30zM71.5 233q5.5 3 10.5 0.5t7 -8.5q1 -6 -1 -12q-3 -6 -8 -9
h-1q-5 -3 -10 -1t-7 8t1 12.5t8.5 9.5zM390 210q2 8 9.5 7t6.5 -9q-9 -55 -26 -127q68 47 128 72q8 3 11 -4.5t-5 -10.5q-67 -28 -140 -81q-21 -80 -46 -148q-53 -151 -106 -186q-22 -15 -39 -5q-16 8 -21 34q-6 29 5 72t39 88q43 68 124 132q14 12 30 23q21 81 30 143z
M412 266.5q5 -2.5 7 -8.5v-1q2 -5 -1 -11q-2 -6 -8 -9l-1 -1q-5 -2 -9 0q-6 2 -7.5 8t1 12.5t8 9.5t10.5 0.5zM213 -264q49 33 100 178q21 60 40 128q-7 -5 -13 -10q-79 -63 -121 -129q-26 -42 -36.5 -82t-4.5 -66q3 -18 12 -23t23 4z" />
    <glyph glyph-name="Jcircumflex" unicode="&#x134;" horiz-adv-x="272" 
d="M-31 782q61 65 86 96.5t37 52.5h90q25 -49 125 -149v-11h-62q-44 26 -109 90q-64 -62 -107 -90h-60v11zM358 410q-3 -89 -22 -204q-11 -68 -27 -135q109 70 185 82q8 2 9.5 -6t-6.5 -9q-79 -14 -193 -90q-8 -33 -16 -65q-27 -100 -58.5 -176t-59 -116.5t-54.5 -60.5
q-26 -20 -50 -18q-23 3 -36 25q-29 47 -2 129q18 55 67 116t117 117q38 31 78 59q17 75 30 151q18 111 22 199q-94 -16 -228 -45q-8 -2 -9.5 6t6.5 9q189 42 304 56q137 18 192 1q7 -2 5 -9.5t-10 -5.5q-52 16 -185 -1q-28 -4 -59 -9zM107 -358q40 30 83 115t82 230
q6 23 12 48q-32 -23 -62 -48q-66 -55 -113.5 -114t-65.5 -112q-24 -75 0 -115q10 -16 25 -18q17 -2 39 14z" />
    <glyph glyph-name="jcircumflex" unicode="&#x135;" horiz-adv-x="257" 
d="M-42 617q61 65 86 96.5t37 52.5h90q25 -49 125 -149v-11h-62q-44 26 -109 90q-64 -62 -107 -90h-60v11zM22 -240q-46 0 -77 12v71q34 -10 66 -10q38 0 56 21t18 63v619h88v-616q0 -80 -38.5 -120t-112.5 -40z" />
    <glyph glyph-name="uni0136" unicode="&#x136;" horiz-adv-x="619" 
d="M246 -209q11 25 24 70.5t17 77.5h87v-9q-8 -31 -31.5 -76.5t-48.5 -74.5h-48v12zM283 544q6 -5 1.5 -11.5t-11.5 -1.5q-7 1 -28 -43q-23 -47 -51 -132q-24 -74 -48 -163q122 149 258 280q74 70 124 107q58 43 79 32q5 -2 8 -8q4 -7 -3 -10.5t-11 3.5l-1 1q-12 6 -63 -31
q-49 -36 -122 -106q-153 -146 -279 -304q-23 -92 -42 -182q35 4 124 25q23 6 34.5 8.5t31 7t31 6t25 3t22.5 0.5t15 -4q21 -10 8 -37q-4 -7 -11 -3.5t-4 10.5q6 12 0 15q-5 3 -13 3.5t-20.5 -1t-23 -3t-29 -6t-29.5 -7l-33 -7.5q-94 -23 -131 -27q-46 -228 -44 -367
q0 -8 -8 -8t-8 7q-2 140 43 367q-20 -1 -33 3q-32 9 -23 43q12 45 103 160q28 109 58 198q28 86 51 134q27 55 46 52q4 -1 7 -3zM45 -25q12 -3 33 -2q15 75 34 153q-33 -43 -53 -75.5t-25 -51.5v0q-6 -19 11 -24z" />
    <glyph glyph-name="uni0137" unicode="&#x137;" horiz-adv-x="534" 
d="M203 -209q11 25 24 70.5t17 77.5h87v-9q-8 -31 -31.5 -76.5t-48.5 -74.5h-48v12zM25 243q23 92 69 224q3 7 10.5 4.5t4.5 -10.5q-45 -130 -69 -222q-22 -89 -34 -173q28 63 63 106q17 21 32 31q18 12 32 8q5 -1 10 -5q16 -13 -16 -51q-8 -10 -27 -32q-45 -51 -55 -70
q-8 -17 3 -22q9 -5 39.5 3t68.5 27q70 34 129 90q6 6 11.5 0t-0.5 -11q-61 -58 -133 -93q-28 -14 -54.5 -22.5t-42.5 -10t-25 1.5q-25 12 -10 44q10 21 57 74q19 21 27 31q21 26 18 29l-4 2q-7 2 -19 -7q-13 -8 -28 -27q-26 -31 -49.5 -78t-33.5 -89q-2 -7 -9 -6q-8 0 -7 8
q9 119 42 246z" />
    <glyph glyph-name="kgreenlandic" unicode="&#x138;" horiz-adv-x="534" 
d="M403 536h106l-203 -237l219 -299h-105l-176 242l-66 -54v-188h-93v536h93v-139q0 -68 -6 -135l41 50z" />
    <glyph glyph-name="Lacute" unicode="&#x139;" horiz-adv-x="523" 
d="M40 -35q36 155 111 357.5t123 296.5q3 8 10.5 4t3.5 -11q-48 -93 -122.5 -295t-110.5 -356q-23 -101 -23 -158q0 -60 25 -66q7 -1 18 1q26 7 57.5 29t51.5 40.5t56 53.5q29 29 44.5 43.5t40 34t45 28t40.5 9.5q8 0 8.5 -8t-7.5 -8q-23 -1 -53 -19t-50 -36.5t-57 -54.5
q-37 -37 -57.5 -56t-53.5 -41t-61 -30v0q-14 -4 -26 -1q-37 8 -37 80q0 60 24 163zM118 783q19 23 47.5 66.5t47.5 81.5h106v-10q-21 -31 -66.5 -78.5t-76.5 -71.5h-58v12z" />
    <glyph glyph-name="lacute" unicode="&#x13a;" horiz-adv-x="257" 
d="M15 135v1q4 27 12 55q31 121 81 231q49 108 77 106q5 0 9 -3q13 -10 5 -48q-7 -30 -27 -79q-30 -77 -75 -161.5t-67 -106.5q-11 -68 1 -103q5 -17 14.5 -21.5t24.5 4.5q43 25 101 135q4 7 11 3.5t3 -10.5q-60 -115 -107 -142q-22 -13 -39 -5q-16 7 -24 31q-12 39 0 113z
M42 187q-3 -11 -5 -22q25 37 60.5 107t60.5 132q18 47 25 77q6 28 2 31h-1q-17 2 -61 -97q-50 -108 -81 -228zM81 811q19 23 47.5 66.5t47.5 81.5h106v-10q-21 -31 -66.5 -78.5t-76.5 -71.5h-58v12z" />
    <glyph glyph-name="uni013B" unicode="&#x13b;" horiz-adv-x="523" 
d="M204 -209q11 25 24 70.5t17 77.5h87v-9q-8 -31 -31.5 -76.5t-48.5 -74.5h-48v12zM40 -35q36 155 111 357.5t123 296.5q3 8 10.5 4t3.5 -11q-48 -93 -122.5 -295t-110.5 -356q-23 -101 -23 -158q0 -60 25 -66q7 -1 18 1q26 7 57.5 29t51.5 40.5t56 53.5q29 29 44.5 43.5
t40 34t45 28t40.5 9.5q8 0 8.5 -8t-7.5 -8q-23 -1 -53 -19t-50 -36.5t-57 -54.5q-37 -37 -57.5 -56t-53.5 -41t-61 -30v0q-14 -4 -26 -1q-37 8 -37 80q0 60 24 163z" />
    <glyph glyph-name="uni013C" unicode="&#x13c;" horiz-adv-x="257" 
d="M45 -209q11 25 24 70.5t17 77.5h87v-9q-8 -31 -31.5 -76.5t-48.5 -74.5h-48v12zM15 135v1q4 27 12 55q31 121 81 231q49 108 77 106q5 0 9 -3q13 -10 5 -48q-7 -30 -27 -79q-30 -77 -75 -161.5t-67 -106.5q-11 -68 1 -103q5 -17 14.5 -21.5t24.5 4.5q43 25 101 135
q4 7 11 3.5t3 -10.5q-60 -115 -107 -142q-22 -13 -39 -5q-16 7 -24 31q-12 39 0 113zM42 187q-3 -11 -5 -22q25 37 60.5 107t60.5 132q18 47 25 77q6 28 2 31h-1q-17 2 -61 -97q-50 -108 -81 -228z" />
    <glyph glyph-name="Lcaron" unicode="&#x13d;" horiz-adv-x="523" 
d="M333 567q11 32 20.5 77.5t12.5 70.5h87v-9q-6 -26 -27 -71t-45 -80h-48v12zM40 -35q36 155 111 357.5t123 296.5q3 8 10.5 4t3.5 -11q-48 -93 -122.5 -295t-110.5 -356q-23 -101 -23 -158q0 -60 25 -66q7 -1 18 1q26 7 57.5 29t51.5 40.5t56 53.5q29 29 44.5 43.5t40 34
t45 28t40.5 9.5q8 0 8.5 -8t-7.5 -8q-23 -1 -53 -19t-50 -36.5t-57 -54.5q-37 -37 -57.5 -56t-53.5 -41t-61 -30v0q-14 -4 -26 -1q-37 8 -37 80q0 60 24 163z" />
    <glyph glyph-name="lcaron" unicode="&#x13e;" horiz-adv-x="257" 
d="M219 612q11 32 20.5 77.5t12.5 70.5h87v-9q-6 -26 -27 -71t-45 -80h-48v12zM15 135v1q4 27 12 55q31 121 81 231q49 108 77 106q5 0 9 -3q13 -10 5 -48q-7 -30 -27 -79q-30 -77 -75 -161.5t-67 -106.5q-11 -68 1 -103q5 -17 14.5 -21.5t24.5 4.5q43 25 101 135
q4 7 11 3.5t3 -10.5q-60 -115 -107 -142q-22 -13 -39 -5q-16 7 -24 31q-12 39 0 113zM42 187q-3 -11 -5 -22q25 37 60.5 107t60.5 132q18 47 25 77q6 28 2 31h-1q-17 2 -61 -97q-50 -108 -81 -228z" />
    <glyph glyph-name="Ldot" unicode="&#x13f;" horiz-adv-x="523" 
d="M332 357q0 29 15 42.5t37 13.5q21 0 36 -13.5t15 -42.5t-15.5 -42.5t-35.5 -13.5q-22 0 -37 13.5t-15 42.5zM40 -35q36 155 111 357.5t123 296.5q3 8 10.5 4t3.5 -11q-48 -93 -122.5 -295t-110.5 -356q-23 -101 -23 -158q0 -60 25 -66q7 -1 18 1q26 7 57.5 29t51.5 40.5
t56 53.5q29 29 44.5 43.5t40 34t45 28t40.5 9.5q8 0 8.5 -8t-7.5 -8q-23 -1 -53 -19t-50 -36.5t-57 -54.5q-37 -37 -57.5 -56t-53.5 -41t-61 -30v0q-14 -4 -26 -1q-37 8 -37 80q0 60 24 163z" />
    <glyph glyph-name="ldot" unicode="&#x140;" horiz-adv-x="325" 
d="M240 333q0 29 15 42.5t37 13.5q21 0 36 -13.5t15 -42.5t-15.5 -42.5t-35.5 -13.5q-22 0 -37 13.5t-15 42.5zM15 135v1q4 27 12 55q31 121 81 231q49 108 77 106q5 0 9 -3q13 -10 5 -48q-7 -30 -27 -79q-30 -77 -75 -161.5t-67 -106.5q-11 -68 1 -103q5 -17 14.5 -21.5
t24.5 4.5q43 25 101 135q4 7 11 3.5t3 -10.5q-60 -115 -107 -142q-22 -13 -39 -5q-16 7 -24 31q-12 39 0 113zM42 187q-3 -11 -5 -22q25 37 60.5 107t60.5 132q18 47 25 77q6 28 2 31h-1q-17 2 -61 -97q-50 -108 -81 -228z" />
    <glyph glyph-name="Lslash" unicode="&#x141;" horiz-adv-x="523" 
d="M97 0v247l-49 -28l-35 60l84 50v385h90v-332l137 81l36 -63l-173 -100v-220h312v-80h-402z" />
    <glyph glyph-name="lslash" unicode="&#x142;" horiz-adv-x="257" 
d="M166 425l64 44l37 -59l-101 -68v-342h-88v285l-51 -32l-36 59l87 56v392h88v-335z" />
    <glyph glyph-name="Nacute" unicode="&#x143;" horiz-adv-x="759" 
d="M110 87q-49 -262 -78 -362q-3 -7 -10.5 -5t-5.5 10q29 98 79 360q16 88 25 133.5t25.5 120t30 114t31.5 83.5t38 63.5t42 20.5h1h1q10 -1 16.5 -12t8.5 -35.5t2.5 -46t-2.5 -63t-5.5 -67t-7.5 -75.5q-24 -233 -17 -310q2 -25 6.5 -41.5t12.5 -26t19 -8.5q16 2 29.5 9
t25 22t20.5 29t17.5 39t14 42.5t12.5 50t11 50.5t11 54q28 147 50 204q3 7 10.5 4.5t4.5 -10.5q-22 -55 -50 -201q-8 -42 -12.5 -64t-13.5 -59.5t-16 -57.5t-19 -47t-25 -41.5t-30 -26t-38 -13.5h-1q-24 -2 -37.5 21.5t-17.5 69.5q-7 78 17 312l10.5 108t6 83t-1.5 68.5
t-13 22.5q-19 -1 -36.5 -20t-34 -62t-29 -82t-28 -111.5t-24 -116.5t-25.5 -130zM318 783q19 23 47.5 66.5t47.5 81.5h106v-10q-21 -31 -66.5 -78.5t-76.5 -71.5h-58v12z" />
    <glyph glyph-name="nacute" unicode="&#x144;" horiz-adv-x="618" 
d="M23 91q28 121 45 131q7 4 11 -3t-3 -11q-6 -3 -15 -33q2 5 5 10q28 51 55 40q1 0 2 -1q11 -5 15.5 -19.5t8.5 -40.5q6 -39 13 -46q13 -13 57 33q6 6 11.5 0.5t0.5 -11.5q-56 -57 -80 -34q-11 11 -18 56q-6 43 -16 48q-14 6 -35 -33q-17 -31 -49 -117q-2 -7 -9 -5
q-8 2 -6 10q2 5 7 26zM250 618q19 23 47.5 66.5t47.5 81.5h106v-10q-21 -31 -66.5 -78.5t-76.5 -71.5h-58v12z" />
    <glyph glyph-name="uni0145" unicode="&#x145;" horiz-adv-x="759" 
d="M281 -209q11 25 24 70.5t17 77.5h87v-9q-8 -31 -31.5 -76.5t-48.5 -74.5h-48v12zM110 87q-49 -262 -78 -362q-3 -7 -10.5 -5t-5.5 10q29 98 79 360q16 88 25 133.5t25.5 120t30 114t31.5 83.5t38 63.5t42 20.5h1h1q10 -1 16.5 -12t8.5 -35.5t2.5 -46t-2.5 -63t-5.5 -67
t-7.5 -75.5q-24 -233 -17 -310q2 -25 6.5 -41.5t12.5 -26t19 -8.5q16 2 29.5 9t25 22t20.5 29t17.5 39t14 42.5t12.5 50t11 50.5t11 54q28 147 50 204q3 7 10.5 4.5t4.5 -10.5q-22 -55 -50 -201q-8 -42 -12.5 -64t-13.5 -59.5t-16 -57.5t-19 -47t-25 -41.5t-30 -26
t-38 -13.5h-1q-24 -2 -37.5 21.5t-17.5 69.5q-7 78 17 312l10.5 108t6 83t-1.5 68.5t-13 22.5q-19 -1 -36.5 -20t-34 -62t-29 -82t-28 -111.5t-24 -116.5t-25.5 -130z" />
    <glyph glyph-name="uni0146" unicode="&#x146;" horiz-adv-x="618" 
d="M222 -209q11 25 24 70.5t17 77.5h87v-9q-8 -31 -31.5 -76.5t-48.5 -74.5h-48v12zM23 91q28 121 45 131q7 4 11 -3t-3 -11q-6 -3 -15 -33q2 5 5 10q28 51 55 40q1 0 2 -1q11 -5 15.5 -19.5t8.5 -40.5q6 -39 13 -46q13 -13 57 33q6 6 11.5 0.5t0.5 -11.5q-56 -57 -80 -34
q-11 11 -18 56q-6 43 -16 48q-14 6 -35 -33q-17 -31 -49 -117q-2 -7 -9 -5q-8 2 -6 10q2 5 7 26z" />
    <glyph glyph-name="Ncaron" unicode="&#x147;" horiz-adv-x="759" 
d="M211 931h60q56 -36 107 -92q62 62 109 92h62v-13q-100 -100 -125 -147h-90q-29 50 -123 147v13zM110 87q-49 -262 -78 -362q-3 -7 -10.5 -5t-5.5 10q29 98 79 360q16 88 25 133.5t25.5 120t30 114t31.5 83.5t38 63.5t42 20.5h1h1q10 -1 16.5 -12t8.5 -35.5t2.5 -46
t-2.5 -63t-5.5 -67t-7.5 -75.5q-24 -233 -17 -310q2 -25 6.5 -41.5t12.5 -26t19 -8.5q16 2 29.5 9t25 22t20.5 29t17.5 39t14 42.5t12.5 50t11 50.5t11 54q28 147 50 204q3 7 10.5 4.5t4.5 -10.5q-22 -55 -50 -201q-8 -42 -12.5 -64t-13.5 -59.5t-16 -57.5t-19 -47
t-25 -41.5t-30 -26t-38 -13.5h-1q-24 -2 -37.5 21.5t-17.5 69.5q-7 78 17 312l10.5 108t6 83t-1.5 68.5t-13 22.5q-19 -1 -36.5 -20t-34 -62t-29 -82t-28 -111.5t-24 -116.5t-25.5 -130z" />
    <glyph glyph-name="ncaron" unicode="&#x148;" horiz-adv-x="618" 
d="M144 766h60q56 -36 107 -92q62 62 109 92h62v-13q-100 -100 -125 -147h-90q-29 50 -123 147v13zM23 91q28 121 45 131q7 4 11 -3t-3 -11q-6 -3 -15 -33q2 5 5 10q28 51 55 40q1 0 2 -1q11 -5 15.5 -19.5t8.5 -40.5q6 -39 13 -46q13 -13 57 33q6 6 11.5 0.5t0.5 -11.5
q-56 -57 -80 -34q-11 11 -18 56q-6 43 -16 48q-14 6 -35 -33q-17 -31 -49 -117q-2 -7 -9 -5q-8 2 -6 10q2 5 7 26z" />
    <glyph glyph-name="napostrophe" unicode="&#x149;" horiz-adv-x="690" 
d="M145 714l7 -11q-25 -97 -86 -234h-65q34 139 50 245h94zM94 91q28 121 45 131q7 4 11 -3t-3 -11q-6 -3 -15 -33q2 5 5 10q28 51 55 40q1 0 2 -1q11 -5 15.5 -19.5t8.5 -40.5q6 -39 13 -46q13 -13 57 33q6 6 11.5 0.5t0.5 -11.5q-56 -57 -80 -34q-11 11 -18 56
q-6 43 -16 48q-14 6 -35 -33q-17 -31 -49 -117q-2 -7 -9 -5q-8 2 -6 10q2 5 7 26z" />
    <glyph glyph-name="Eng" unicode="&#x14a;" horiz-adv-x="759" 
d="M475 -190q-48 0 -76 13v76q35 -10 76 -10q50 0 76.5 28.5t27.5 82.5l-403 593h-4q8 -125 8 -206v-387h-83v714h104l381 -572h4q-7 75 -7 200v372h84v-708q0 -96 -48.5 -146t-139.5 -50z" />
    <glyph glyph-name="eng" unicode="&#x14b;" horiz-adv-x="618" 
d="M394 -240q-42 0 -71 12v71q29 -10 60 -10q67 0 67 84v427q0 65 -29 96.5t-90 31.5q-83 0 -120.5 -45.5t-37.5 -147.5v-279h-88v536h71l14 -73h5q25 40 69 61.5t98 21.5q99 0 147.5 -46.5t48.5 -149.5v-430q0 -75 -35 -117.5t-109 -42.5z" />
    <glyph glyph-name="Omacron" unicode="&#x14c;" horiz-adv-x="780" 
d="M242 842h297v-71h-297v71zM262 532q8 2 10 -5.5t-6 -9.5q-35 -10 -79 -82q48 44 97 67q46 23 85 22q41 -1 65 -27q25 -28 25 -80q0 -56 -19 -138q-43 -187 -131 -340q-104 -181 -207 -181q-12 0 -24 3h-1q-38 12 -52 66q-17 64 -1 176q14 102 51 217q19 57 41 109
q-23 -33 -42 -70q-4 -7 -11 -3t-3 11q36 70 86 126q63 125 116 139zM291 488q-69 -33 -133 -105q-37 -74 -67 -168q-37 -114 -52 -215q-15 -108 1 -168q13 -46 42 -56q10 -2 20 -2q94 0 194 173q86 151 128 335q19 81 19 135q0 46 -21 69q-19 21 -53 22q-35 1 -78 -20z" />
    <glyph glyph-name="omacron" unicode="&#x14d;" horiz-adv-x="604" 
d="M154 677h297v-71h-297v71zM124 182q8 -2 6 -9.5t-9 -5.5q-25 5 -57 -37q-14 -18 -23 -38t-9 -35t9 -20q3 -1 7 -1q26 -3 55 21q29 25 38 56q2 4 2 8q-5 2 -9 4q-15 8 -15 22q1 12 11 17v1q12 6 22 -3q9 -9 8 -30q23 -5 47 -3q35 4 56 23q6 5 11.5 -1t-0.5 -12
q-26 -21 -65 -25q-26 -3 -50 2l-2 -8q-11 -35 -43 -63q-35 -29 -68 -25q-5 0 -10 2h-2q-19 10 -18 36q0 18 11 41q9 21 24 41q39 50 73 42zM142 139q1 -1 2 -1q0 9 -3 13q-1 1 -3 0q-3 -2 -3 -4q0 -4 7 -8z" />
    <glyph glyph-name="Obreve" unicode="&#x14e;" horiz-adv-x="780" 
d="M387 771q-69 0 -108.5 33.5t-44.5 100.5h54q4 -35 24.5 -49t76.5 -14q49 0 73 15.5t28 47.5h55q-6 -64 -48 -99t-110 -35zM262 532q8 2 10 -5.5t-6 -9.5q-35 -10 -79 -82q48 44 97 67q46 23 85 22q41 -1 65 -27q25 -28 25 -80q0 -56 -19 -138q-43 -187 -131 -340
q-104 -181 -207 -181q-12 0 -24 3h-1q-38 12 -52 66q-17 64 -1 176q14 102 51 217q19 57 41 109q-23 -33 -42 -70q-4 -7 -11 -3t-3 11q36 70 86 126q63 125 116 139zM291 488q-69 -33 -133 -105q-37 -74 -67 -168q-37 -114 -52 -215q-15 -108 1 -168q13 -46 42 -56
q10 -2 20 -2q94 0 194 173q86 151 128 335q19 81 19 135q0 46 -21 69q-19 21 -53 22q-35 1 -78 -20z" />
    <glyph glyph-name="obreve" unicode="&#x14f;" horiz-adv-x="604" 
d="M299 606q-69 0 -108.5 33.5t-44.5 100.5h54q4 -35 24.5 -49t76.5 -14q49 0 73 15.5t28 47.5h55q-6 -64 -48 -99t-110 -35zM124 182q8 -2 6 -9.5t-9 -5.5q-25 5 -57 -37q-14 -18 -23 -38t-9 -35t9 -20q3 -1 7 -1q26 -3 55 21q29 25 38 56q2 4 2 8q-5 2 -9 4q-15 8 -15 22
q1 12 11 17v1q12 6 22 -3q9 -9 8 -30q23 -5 47 -3q35 4 56 23q6 5 11.5 -1t-0.5 -12q-26 -21 -65 -25q-26 -3 -50 2l-2 -8q-11 -35 -43 -63q-35 -29 -68 -25q-5 0 -10 2h-2q-19 10 -18 36q0 18 11 41q9 21 24 41q39 50 73 42zM142 139q1 -1 2 -1q0 9 -3 13q-1 1 -3 0
q-3 -2 -3 -4q0 -4 7 -8z" />
    <glyph glyph-name="Ohungarumlaut" unicode="&#x150;" horiz-adv-x="780" 
d="M246 783q17 22 42.5 65.5t44.5 82.5h96v-10q-16 -27 -58.5 -75t-74.5 -75h-50v12zM422 783q23 32 49 76.5t38 71.5h96v-10q-16 -27 -58.5 -75t-74.5 -75h-50v12zM262 532q8 2 10 -5.5t-6 -9.5q-35 -10 -79 -82q48 44 97 67q46 23 85 22q41 -1 65 -27q25 -28 25 -80
q0 -56 -19 -138q-43 -187 -131 -340q-104 -181 -207 -181q-12 0 -24 3h-1q-38 12 -52 66q-17 64 -1 176q14 102 51 217q19 57 41 109q-23 -33 -42 -70q-4 -7 -11 -3t-3 11q36 70 86 126q63 125 116 139zM291 488q-69 -33 -133 -105q-37 -74 -67 -168q-37 -114 -52 -215
q-15 -108 1 -168q13 -46 42 -56q10 -2 20 -2q94 0 194 173q86 151 128 335q19 81 19 135q0 46 -21 69q-19 21 -53 22q-35 1 -78 -20z" />
    <glyph glyph-name="ohungarumlaut" unicode="&#x151;" horiz-adv-x="604" 
d="M154 618q17 22 42.5 65.5t44.5 82.5h96v-10q-16 -27 -58.5 -75t-74.5 -75h-50v12zM330 618q23 32 49 76.5t38 71.5h96v-10q-16 -27 -58.5 -75t-74.5 -75h-50v12zM124 182q8 -2 6 -9.5t-9 -5.5q-25 5 -57 -37q-14 -18 -23 -38t-9 -35t9 -20q3 -1 7 -1q26 -3 55 21
q29 25 38 56q2 4 2 8q-5 2 -9 4q-15 8 -15 22q1 12 11 17v1q12 6 22 -3q9 -9 8 -30q23 -5 47 -3q35 4 56 23q6 5 11.5 -1t-0.5 -12q-26 -21 -65 -25q-26 -3 -50 2l-2 -8q-11 -35 -43 -63q-35 -29 -68 -25q-5 0 -10 2h-2q-19 10 -18 36q0 18 11 41q9 21 24 41q39 50 73 42z
M142 139q1 -1 2 -1q0 9 -3 13q-1 1 -3 0q-3 -2 -3 -4q0 -4 7 -8z" />
    <glyph glyph-name="OE" unicode="&#x152;" horiz-adv-x="928" 
d="M868 0h-380q-50 -10 -97 -10q-159 0 -244.5 96.5t-85.5 272.5q0 175 84 270.5t241 95.5q52 0 96 -11h386v-79h-287v-223h268v-78h-268v-255h287v-79zM394 646q-118 0 -178.5 -73.5t-60.5 -214.5t60.5 -215.5t177.5 -74.5q57 0 99 17v545q-41 16 -98 16z" />
    <glyph glyph-name="oe" unicode="&#x153;" horiz-adv-x="945" 
d="M699 -10q-142 0 -204 111q-31 -55 -82 -83t-117 -28q-110 0 -176 75.5t-66 203.5q0 130 64.5 203t180.5 73q63 0 113 -28t80 -82q29 53 76 81.5t109 28.5q100 0 158.5 -64.5t58.5 -176.5v-53h-356q4 -186 162 -186q44 0 81.5 7.5t88.5 29.5v-77q-45 -20 -83 -27.5
t-88 -7.5zM146 269q0 -102 35.5 -154t115.5 -52q78 0 114 51t36 151q0 104 -36.5 155.5t-115.5 51.5t-114 -51.5t-35 -151.5zM676 473q-60 0 -95 -38.5t-41 -113.5h261q0 74 -31.5 113t-93.5 39z" />
    <glyph glyph-name="Racute" unicode="&#x154;" horiz-adv-x="622" 
d="M374 530q8 3 11 -4.5t-4 -10.5q-44 -20 -122 -240q-39 -107 -79 -246l-5 -21q129 87 233 191q83 82 132.5 157.5t53.5 126.5q2 23 -9 40q-12 21 -39 34q-29 13 -69 16q-143 11 -336 -94q56 8 80 -19t22 -99q-2 -51 -18 -135q9 29 19 54q81 227 130 250zM84 -276v1
q23 98 55 216q-60 -17 -112 -39q-7 -3 -10 3q-4 7 3 11q67 35 133 78q6 20 12 39q59 237 62 328q2 74 -30 94t-103 -2q-8 -2 -10 6q-1 6 4 9q114 68 214.5 97.5t175.5 23.5q44 -3 75 -18t46 -39q13 -23 11 -50q-4 -54 -54.5 -132t-135.5 -163q-112 -111 -251 -202l-5 -21
q30 8 60 14q131 27 236 21q109 -6 126 -45l2 -6q1 -8 -6.5 -9.5t-9.5 6.5q0 1 -1 3q-13 30 -112 35q-103 6 -232 -20q-34 -7 -68 -16q-21 -82 -59 -226q-2 -8 -10 -6q-7 2 -6 9zM115 -49q14 4 29 8l3 12q-16 -11 -32 -20zM249 783q19 23 47.5 66.5t47.5 81.5h106v-10
q-21 -31 -66.5 -78.5t-76.5 -71.5h-58v12z" />
    <glyph glyph-name="racute" unicode="&#x155;" horiz-adv-x="413" 
d="M27 80q14 81 25 91q5 5 10.5 -0.5t-0.5 -11.5t-16 -60l4 6q26 48 57 75q34 29 58 21q4 -1 7 -2q7 -4 3 -11t-11 -3q-2 0 -3 1q-17 5 -43 -18q-29 -25 -54 -70q-20 -36 -32 -77q-2 -7 -10 -5q-8 1 -6 9q4 16 11 55zM174 618q19 23 47.5 66.5t47.5 81.5h106v-10
q-21 -31 -66.5 -78.5t-76.5 -71.5h-58v12z" />
    <glyph glyph-name="uni0156" unicode="&#x156;" horiz-adv-x="622" 
d="M242 -209q11 25 24 70.5t17 77.5h87v-9q-8 -31 -31.5 -76.5t-48.5 -74.5h-48v12zM374 530q8 3 11 -4.5t-4 -10.5q-44 -20 -122 -240q-39 -107 -79 -246l-5 -21q129 87 233 191q83 82 132.5 157.5t53.5 126.5q2 23 -9 40q-12 21 -39 34q-29 13 -69 16q-143 11 -336 -94
q56 8 80 -19t22 -99q-2 -51 -18 -135q9 29 19 54q81 227 130 250zM84 -276v1q23 98 55 216q-60 -17 -112 -39q-7 -3 -10 3q-4 7 3 11q67 35 133 78q6 20 12 39q59 237 62 328q2 74 -30 94t-103 -2q-8 -2 -10 6q-1 6 4 9q114 68 214.5 97.5t175.5 23.5q44 -3 75 -18t46 -39
q13 -23 11 -50q-4 -54 -54.5 -132t-135.5 -163q-112 -111 -251 -202l-5 -21q30 8 60 14q131 27 236 21q109 -6 126 -45l2 -6q1 -8 -6.5 -9.5t-9.5 6.5q0 1 -1 3q-13 30 -112 35q-103 6 -232 -20q-34 -7 -68 -16q-21 -82 -59 -226q-2 -8 -10 -6q-7 2 -6 9zM115 -49q14 4 29 8
l3 12q-16 -11 -32 -20z" />
    <glyph glyph-name="uni0157" unicode="&#x157;" horiz-adv-x="413" 
d="M48 -209q11 25 24 70.5t17 77.5h87v-9q-8 -31 -31.5 -76.5t-48.5 -74.5h-48v12zM27 80q14 81 25 91q5 5 10.5 -0.5t-0.5 -11.5t-16 -60l4 6q26 48 57 75q34 29 58 21q4 -1 7 -2q7 -4 3 -11t-11 -3q-2 0 -3 1q-17 5 -43 -18q-29 -25 -54 -70q-20 -36 -32 -77q-2 -7 -10 -5
q-8 1 -6 9q4 16 11 55z" />
    <glyph glyph-name="Rcaron" unicode="&#x158;" horiz-adv-x="622" 
d="M141 931h60q56 -36 107 -92q62 62 109 92h62v-13q-100 -100 -125 -147h-90q-29 50 -123 147v13zM374 530q8 3 11 -4.5t-4 -10.5q-44 -20 -122 -240q-39 -107 -79 -246l-5 -21q129 87 233 191q83 82 132.5 157.5t53.5 126.5q2 23 -9 40q-12 21 -39 34q-29 13 -69 16
q-143 11 -336 -94q56 8 80 -19t22 -99q-2 -51 -18 -135q9 29 19 54q81 227 130 250zM84 -276v1q23 98 55 216q-60 -17 -112 -39q-7 -3 -10 3q-4 7 3 11q67 35 133 78q6 20 12 39q59 237 62 328q2 74 -30 94t-103 -2q-8 -2 -10 6q-1 6 4 9q114 68 214.5 97.5t175.5 23.5
q44 -3 75 -18t46 -39q13 -23 11 -50q-4 -54 -54.5 -132t-135.5 -163q-112 -111 -251 -202l-5 -21q30 8 60 14q131 27 236 21q109 -6 126 -45l2 -6q1 -8 -6.5 -9.5t-9.5 6.5q0 1 -1 3q-13 30 -112 35q-103 6 -232 -20q-34 -7 -68 -16q-21 -82 -59 -226q-2 -8 -10 -6
q-7 2 -6 9zM115 -49q14 4 29 8l3 12q-16 -11 -32 -20z" />
    <glyph glyph-name="rcaron" unicode="&#x159;" horiz-adv-x="413" 
d="M62 766h60q56 -36 107 -92q62 62 109 92h62v-13q-100 -100 -125 -147h-90q-29 50 -123 147v13zM27 80q14 81 25 91q5 5 10.5 -0.5t-0.5 -11.5t-16 -60l4 6q26 48 57 75q34 29 58 21q4 -1 7 -2q7 -4 3 -11t-11 -3q-2 0 -3 1q-17 5 -43 -18q-29 -25 -54 -70
q-20 -36 -32 -77q-2 -7 -10 -5q-8 1 -6 9q4 16 11 55z" />
    <glyph glyph-name="Sacute" unicode="&#x15a;" horiz-adv-x="548" 
d="M483 614q25 -81 -54 -250q-4 -7 -11 -3.5t-4 10.5q77 163 53 238q-9 29 -34 38t-62 -3q-56 -17 -120.5 -76t-118.5 -147q-54 -89 -78.5 -148.5t-23 -88t22.5 -41.5q18 -11 54 -12t71 3q42 2 78 3t67 -12.5t45 -42.5q18 -42 -39.5 -146.5t-136.5 -193.5q-37 -42 -66 -65
q-34 -26 -52 -22q-13 4 -16 21q-1 8 6.5 9.5t9.5 -6.5q1 -7 4 -8q11 -3 38 19q28 22 64 63q76 86 133 185.5t40 136.5q-11 25 -39.5 36t-62 10t-71.5 -3q-38 -4 -76.5 -2.5t-58.5 13.5q-25 16 -29 47.5t20.5 95t82.5 158.5q54 90 121.5 150.5t125.5 79.5q42 13 73 2
q32 -12 44 -48zM227 783q19 23 47.5 66.5t47.5 81.5h106v-10q-21 -31 -66.5 -78.5t-76.5 -71.5h-58v12z" />
    <glyph glyph-name="sacute" unicode="&#x15b;" horiz-adv-x="479" 
d="M161 252q8 -2 6 -9.5t-10 -5.5q-23 5 -33.5 -0.5t-13.5 -21.5q-3 -11 -5 -43q-3 -39 -7 -62q0 -5 -1 -12q19 12 41 23q73 33 140 33q8 0 8 -8t-8 -8q-64 0 -133 -32q-28 -13 -52 -29q-7 -53 -15 -75q-7 -19 -20.5 -32.5t-27.5 -18.5q-13 -4 -22 0q-11 5 -12 19
q-1 25 36 71q19 24 47 45q2 17 4 27q3 22 6 60q2 33 5 46q6 23 20.5 31.5t46.5 1.5zM25 -33q26 8 38 40q6 19 12 56q-17 -15 -31 -32q-33 -41 -32 -60q0 -4 2 -5q4 -2 11 1zM181 618q19 23 47.5 66.5t47.5 81.5h106v-10q-21 -31 -66.5 -78.5t-76.5 -71.5h-58v12z" />
    <glyph glyph-name="Scircumflex" unicode="&#x15c;" horiz-adv-x="548" 
d="M116 782q61 65 86 96.5t37 52.5h90q25 -49 125 -149v-11h-62q-44 26 -109 90q-64 -62 -107 -90h-60v11zM483 614q25 -81 -54 -250q-4 -7 -11 -3.5t-4 10.5q77 163 53 238q-9 29 -34 38t-62 -3q-56 -17 -120.5 -76t-118.5 -147q-54 -89 -78.5 -148.5t-23 -88t22.5 -41.5
q18 -11 54 -12t71 3q42 2 78 3t67 -12.5t45 -42.5q18 -42 -39.5 -146.5t-136.5 -193.5q-37 -42 -66 -65q-34 -26 -52 -22q-13 4 -16 21q-1 8 6.5 9.5t9.5 -6.5q1 -7 4 -8q11 -3 38 19q28 22 64 63q76 86 133 185.5t40 136.5q-11 25 -39.5 36t-62 10t-71.5 -3
q-38 -4 -76.5 -2.5t-58.5 13.5q-25 16 -29 47.5t20.5 95t82.5 158.5q54 90 121.5 150.5t125.5 79.5q42 13 73 2q32 -12 44 -48z" />
    <glyph glyph-name="scircumflex" unicode="&#x15d;" horiz-adv-x="479" 
d="M77 617q61 65 86 96.5t37 52.5h90q25 -49 125 -149v-11h-62q-44 26 -109 90q-64 -62 -107 -90h-60v11zM161 252q8 -2 6 -9.5t-10 -5.5q-23 5 -33.5 -0.5t-13.5 -21.5q-3 -11 -5 -43q-3 -39 -7 -62q0 -5 -1 -12q19 12 41 23q73 33 140 33q8 0 8 -8t-8 -8q-64 0 -133 -32
q-28 -13 -52 -29q-7 -53 -15 -75q-7 -19 -20.5 -32.5t-27.5 -18.5q-13 -4 -22 0q-11 5 -12 19q-1 25 36 71q19 24 47 45q2 17 4 27q3 22 6 60q2 33 5 46q6 23 20.5 31.5t46.5 1.5zM25 -33q26 8 38 40q6 19 12 56q-17 -15 -31 -32q-33 -41 -32 -60q0 -4 2 -5q4 -2 11 1z" />
    <glyph glyph-name="Scedilla" unicode="&#x15e;" horiz-adv-x="548" 
d="M483 614q25 -81 -54 -250q-4 -7 -11 -3.5t-4 10.5q77 163 53 238q-9 29 -34 38t-62 -3q-56 -17 -120.5 -76t-118.5 -147q-54 -89 -78.5 -148.5t-23 -88t22.5 -41.5q18 -11 54 -12t71 3q42 2 78 3t67 -12.5t45 -42.5q18 -42 -39.5 -146.5t-136.5 -193.5q-37 -42 -66 -65
q-34 -26 -52 -22q-13 4 -16 21q-1 8 6.5 9.5t9.5 -6.5q1 -7 4 -8q11 -3 38 19q28 22 64 63q76 86 133 185.5t40 136.5q-11 25 -39.5 36t-62 10t-71.5 -3q-38 -4 -76.5 -2.5t-58.5 13.5q-25 16 -29 47.5t20.5 95t82.5 158.5q54 90 121.5 150.5t125.5 79.5q42 13 73 2
q32 -12 44 -48zM358 -139q0 -48 -37 -74.5t-111 -26.5q-32 0 -50 5v55q18 -5 53 -5q37 0 55.5 9.5t18.5 34.5q0 43 -91 55l43 86h58l-26 -53q87 -19 87 -86z" />
    <glyph glyph-name="scedilla" unicode="&#x15f;" horiz-adv-x="479" 
d="M161 252q8 -2 6 -9.5t-10 -5.5q-23 5 -33.5 -0.5t-13.5 -21.5q-3 -11 -5 -43q-3 -39 -7 -62q0 -5 -1 -12q19 12 41 23q73 33 140 33q8 0 8 -8t-8 -8q-64 0 -133 -32q-28 -13 -52 -29q-7 -53 -15 -75q-7 -19 -20.5 -32.5t-27.5 -18.5q-13 -4 -22 0q-11 5 -12 19
q-1 25 36 71q19 24 47 45q2 17 4 27q3 22 6 60q2 33 5 46q6 23 20.5 31.5t46.5 1.5zM25 -33q26 8 38 40q6 19 12 56q-17 -15 -31 -32q-33 -41 -32 -60q0 -4 2 -5q4 -2 11 1zM320 -139q0 -48 -37 -74.5t-111 -26.5q-32 0 -50 5v55q18 -5 53 -5q37 0 55.5 9.5t18.5 34.5
q0 43 -91 55l43 86h58l-26 -53q87 -19 87 -86z" />
    <glyph glyph-name="Scaron" unicode="&#x160;" horiz-adv-x="548" 
d="M114 931h60q56 -36 107 -92q62 62 109 92h62v-13q-100 -100 -125 -147h-90q-29 50 -123 147v13zM483 614q25 -81 -54 -250q-4 -7 -11 -3.5t-4 10.5q77 163 53 238q-9 29 -34 38t-62 -3q-56 -17 -120.5 -76t-118.5 -147q-54 -89 -78.5 -148.5t-23 -88t22.5 -41.5
q18 -11 54 -12t71 3q42 2 78 3t67 -12.5t45 -42.5q18 -42 -39.5 -146.5t-136.5 -193.5q-37 -42 -66 -65q-34 -26 -52 -22q-13 4 -16 21q-1 8 6.5 9.5t9.5 -6.5q1 -7 4 -8q11 -3 38 19q28 22 64 63q76 86 133 185.5t40 136.5q-11 25 -39.5 36t-62 10t-71.5 -3
q-38 -4 -76.5 -2.5t-58.5 13.5q-25 16 -29 47.5t20.5 95t82.5 158.5q54 90 121.5 150.5t125.5 79.5q42 13 73 2q32 -12 44 -48z" />
    <glyph glyph-name="scaron" unicode="&#x161;" horiz-adv-x="479" 
d="M83 766h60q56 -36 107 -92q62 62 109 92h62v-13q-100 -100 -125 -147h-90q-29 50 -123 147v13zM161 252q8 -2 6 -9.5t-10 -5.5q-23 5 -33.5 -0.5t-13.5 -21.5q-3 -11 -5 -43q-3 -39 -7 -62q0 -5 -1 -12q19 12 41 23q73 33 140 33q8 0 8 -8t-8 -8q-64 0 -133 -32
q-28 -13 -52 -29q-7 -53 -15 -75q-7 -19 -20.5 -32.5t-27.5 -18.5q-13 -4 -22 0q-11 5 -12 19q-1 25 36 71q19 24 47 45q2 17 4 27q3 22 6 60q2 33 5 46q6 23 20.5 31.5t46.5 1.5zM25 -33q26 8 38 40q6 19 12 56q-17 -15 -31 -32q-33 -41 -32 -60q0 -4 2 -5q4 -2 11 1z" />
    <glyph glyph-name="uni0162" unicode="&#x162;" horiz-adv-x="556" 
d="M452 503q-216 -23 -426 -83q-8 -2 -10 5.5t6 9.5q216 62 435 84q9 24 19 50q2 7 9.5 4.5t5.5 -10.5l-16 -42q220 20 312 -13q7 -3 4.5 -10.5t-10.5 -4.5q-89 33 -308 12l-4 -1q-62 -176 -106 -348q-49 -195 -74 -386q-1 -8 -9 -7t-7 9q26 193 75 387q43 171 104 344z
M371 -139q0 -48 -37 -74.5t-111 -26.5q-32 0 -50 5v55q18 -5 53 -5q37 0 55.5 9.5t18.5 34.5q0 43 -91 55l43 86h58l-26 -53q87 -19 87 -86z" />
    <glyph glyph-name="uni0163" unicode="&#x163;" horiz-adv-x="360" 
d="M167 418q30 95 66 192q2 7 9.5 4.5t5.5 -10.5q-35 -92 -64 -184q25 4 49 6q134 13 191 -8q7 -3 4.5 -10.5t-10.5 -4.5q-53 19 -183 7q-27 -3 -56 -7q-33 -104 -58 -207q-49 -194 -75 -385q-1 -8 -9 -7t-7 9q26 192 75 387q25 100 56 201q-100 -15 -193 -42q-8 -2 -10 6
t6 10q98 28 203 43zM312 -139q0 -48 -37 -74.5t-111 -26.5q-32 0 -50 5v55q18 -5 53 -5q37 0 55.5 9.5t18.5 34.5q0 43 -91 55l43 86h58l-26 -53q87 -19 87 -86z" />
    <glyph glyph-name="Tcaron" unicode="&#x164;" horiz-adv-x="556" 
d="M110 931h60q56 -36 107 -92q62 62 109 92h62v-13q-100 -100 -125 -147h-90q-29 50 -123 147v13zM452 503q-216 -23 -426 -83q-8 -2 -10 5.5t6 9.5q216 62 435 84q9 24 19 50q2 7 9.5 4.5t5.5 -10.5l-16 -42q220 20 312 -13q7 -3 4.5 -10.5t-10.5 -4.5q-89 33 -308 12
l-4 -1q-62 -176 -106 -348q-49 -195 -74 -386q-1 -8 -9 -7t-7 9q26 193 75 387q43 171 104 344z" />
    <glyph glyph-name="tcaron" unicode="&#x165;" horiz-adv-x="360" 
d="M246 612q11 32 20.5 77.5t12.5 70.5h87v-9q-6 -26 -27 -71t-45 -80h-48v12zM167 418q30 95 66 192q2 7 9.5 4.5t5.5 -10.5q-35 -92 -64 -184q25 4 49 6q134 13 191 -8q7 -3 4.5 -10.5t-10.5 -4.5q-53 19 -183 7q-27 -3 -56 -7q-33 -104 -58 -207q-49 -194 -75 -385
q-1 -8 -9 -7t-7 9q26 192 75 387q25 100 56 201q-100 -15 -193 -42q-8 -2 -10 6t6 10q98 28 203 43z" />
    <glyph glyph-name="Tbar" unicode="&#x166;" horiz-adv-x="556" 
d="M232 399v235h-222v80h535v-80h-223v-235h148v-74h-148v-325h-90v325h-149v74h149z" />
    <glyph glyph-name="tbar" unicode="&#x167;" horiz-adv-x="360" 
d="M266 62q42 0 73 11v-67q-13 -6 -39 -11t-54 -5q-154 0 -154 171v119h-68v66h68v122h-76v42l77 35l35 114h52v-123h155v-68h-155v-122h146v-66h-146v-114q0 -52 21 -78t65 -26z" />
    <glyph glyph-name="Utilde" unicode="&#x168;" horiz-adv-x="730" 
d="M440 772q-21 0 -41 9t-39.5 19.5t-37 19.5t-34.5 9q-24 0 -36 -14.5t-19 -43.5h-51q6 60 34 94t76 34q22 0 42.5 -9t39.5 -19.5t37 -19.5t33 -9q23 0 35.5 14.5t19.5 43.5h50q-6 -58 -34 -93t-75 -35zM53 211q33 117 80.5 206.5t85.5 97.5q8 1 9.5 -6.5t-6.5 -9.5
q-22 -4 -50.5 -47t-55.5 -107.5t-48 -137.5q-27 -95 -34 -172q-4 -38 -1 -71.5t12 -54.5q15 -33 44 -36h1q14 -2 29.5 5t32.5 26t31.5 38.5t33.5 55t32 61t33.5 71.5t31.5 72t32 75q34 81 52 121t44.5 92t47 73.5t39.5 19.5q8 -1 7 -9v-1q-22 -80 -96 -302
q-120 -361 -133 -454q-8 -52 5 -59q7 -4 3 -11t-11 -3q-11 7 -13.5 30t6.5 67.5t19 84.5t32 111.5t36 114t41 124.5q70 210 92 289q-10 -4 -21 -16.5t-24.5 -36.5t-24.5 -45.5t-28 -60.5t-27.5 -63t-30.5 -72q-29 -68 -44.5 -103.5t-43 -94.5t-47.5 -91t-44.5 -66.5t-48 -48
t-45.5 -10.5q-39 4 -57 45q-21 46 -13 134q7 79 35 175z" />
    <glyph glyph-name="utilde" unicode="&#x169;" horiz-adv-x="618" 
d="M383 607q-21 0 -41 9t-39.5 19.5t-37 19.5t-34.5 9q-24 0 -36 -14.5t-19 -43.5h-51q6 60 34 94t76 34q22 0 42.5 -9t39.5 -19.5t37 -19.5t33 -9q23 0 35.5 14.5t19.5 43.5h50q-6 -58 -34 -93t-75 -35zM20 107q8 32 30 76q4 7 11 3.5t3 -10.5q-21 -42 -29 -73
q-6 -22 -3 -35q2 -13 11 -16q4 -1 9 -2h1q22 -1 48 33q31 40 56 109q2 8 10 5q6 -2 5 -9q-3 -17 -16 -59q-23 -79 -18 -82q6 -4 2 -11t-11 -2q-13 8 2 65q-8 -14 -17 -25q-32 -42 -62 -40q-8 1 -14 3q-19 6 -22 28q-3 17 4 42z" />
    <glyph glyph-name="Umacron" unicode="&#x16a;" horiz-adv-x="730" 
d="M217 842h297v-71h-297v71zM53 211q33 117 80.5 206.5t85.5 97.5q8 1 9.5 -6.5t-6.5 -9.5q-22 -4 -50.5 -47t-55.5 -107.5t-48 -137.5q-27 -95 -34 -172q-4 -38 -1 -71.5t12 -54.5q15 -33 44 -36h1q14 -2 29.5 5t32.5 26t31.5 38.5t33.5 55t32 61t33.5 71.5t31.5 72t32 75
q34 81 52 121t44.5 92t47 73.5t39.5 19.5q8 -1 7 -9v-1q-22 -80 -96 -302q-120 -361 -133 -454q-8 -52 5 -59q7 -4 3 -11t-11 -3q-11 7 -13.5 30t6.5 67.5t19 84.5t32 111.5t36 114t41 124.5q70 210 92 289q-10 -4 -21 -16.5t-24.5 -36.5t-24.5 -45.5t-28 -60.5t-27.5 -63
t-30.5 -72q-29 -68 -44.5 -103.5t-43 -94.5t-47.5 -91t-44.5 -66.5t-48 -48t-45.5 -10.5q-39 4 -57 45q-21 46 -13 134q7 79 35 175z" />
    <glyph glyph-name="umacron" unicode="&#x16b;" horiz-adv-x="618" 
d="M159 677h297v-71h-297v71zM20 107q8 32 30 76q4 7 11 3.5t3 -10.5q-21 -42 -29 -73q-6 -22 -3 -35q2 -13 11 -16q4 -1 9 -2h1q22 -1 48 33q31 40 56 109q2 8 10 5q6 -2 5 -9q-3 -17 -16 -59q-23 -79 -18 -82q6 -4 2 -11t-11 -2q-13 8 2 65q-8 -14 -17 -25
q-32 -42 -62 -40q-8 1 -14 3q-19 6 -22 28q-3 17 4 42z" />
    <glyph glyph-name="Ubreve" unicode="&#x16c;" horiz-adv-x="730" 
d="M361 771q-69 0 -108.5 33.5t-44.5 100.5h54q4 -35 24.5 -49t76.5 -14q49 0 73 15.5t28 47.5h55q-6 -64 -48 -99t-110 -35zM53 211q33 117 80.5 206.5t85.5 97.5q8 1 9.5 -6.5t-6.5 -9.5q-22 -4 -50.5 -47t-55.5 -107.5t-48 -137.5q-27 -95 -34 -172q-4 -38 -1 -71.5
t12 -54.5q15 -33 44 -36h1q14 -2 29.5 5t32.5 26t31.5 38.5t33.5 55t32 61t33.5 71.5t31.5 72t32 75q34 81 52 121t44.5 92t47 73.5t39.5 19.5q8 -1 7 -9v-1q-22 -80 -96 -302q-120 -361 -133 -454q-8 -52 5 -59q7 -4 3 -11t-11 -3q-11 7 -13.5 30t6.5 67.5t19 84.5
t32 111.5t36 114t41 124.5q70 210 92 289q-10 -4 -21 -16.5t-24.5 -36.5t-24.5 -45.5t-28 -60.5t-27.5 -63t-30.5 -72q-29 -68 -44.5 -103.5t-43 -94.5t-47.5 -91t-44.5 -66.5t-48 -48t-45.5 -10.5q-39 4 -57 45q-21 46 -13 134q7 79 35 175z" />
    <glyph glyph-name="ubreve" unicode="&#x16d;" horiz-adv-x="618" 
d="M303 606q-69 0 -108.5 33.5t-44.5 100.5h54q4 -35 24.5 -49t76.5 -14q49 0 73 15.5t28 47.5h55q-6 -64 -48 -99t-110 -35zM20 107q8 32 30 76q4 7 11 3.5t3 -10.5q-21 -42 -29 -73q-6 -22 -3 -35q2 -13 11 -16q4 -1 9 -2h1q22 -1 48 33q31 40 56 109q2 8 10 5q6 -2 5 -9
q-3 -17 -16 -59q-23 -79 -18 -82q6 -4 2 -11t-11 -2q-13 8 2 65q-8 -14 -17 -25q-32 -42 -62 -40q-8 1 -14 3q-19 6 -22 28q-3 17 4 42z" />
    <glyph glyph-name="Uring" unicode="&#x16e;" horiz-adv-x="730" 
d="M475 878q0 -49 -30.5 -78t-80.5 -29t-79.5 28.5t-29.5 77.5q0 48 29.5 76.5t79.5 28.5q49 0 80 -29t31 -75zM420 877q0 26 -16 41t-40 15t-40 -15t-16 -41t14.5 -41t41.5 -15q25 0 40.5 15t15.5 41zM53 211q33 117 80.5 206.5t85.5 97.5q8 1 9.5 -6.5t-6.5 -9.5
q-22 -4 -50.5 -47t-55.5 -107.5t-48 -137.5q-27 -95 -34 -172q-4 -38 -1 -71.5t12 -54.5q15 -33 44 -36h1q14 -2 29.5 5t32.5 26t31.5 38.5t33.5 55t32 61t33.5 71.5t31.5 72t32 75q34 81 52 121t44.5 92t47 73.5t39.5 19.5q8 -1 7 -9v-1q-22 -80 -96 -302
q-120 -361 -133 -454q-8 -52 5 -59q7 -4 3 -11t-11 -3q-11 7 -13.5 30t6.5 67.5t19 84.5t32 111.5t36 114t41 124.5q70 210 92 289q-10 -4 -21 -16.5t-24.5 -36.5t-24.5 -45.5t-28 -60.5t-27.5 -63t-30.5 -72q-29 -68 -44.5 -103.5t-43 -94.5t-47.5 -91t-44.5 -66.5t-48 -48
t-45.5 -10.5q-39 4 -57 45q-21 46 -13 134q7 79 35 175z" />
    <glyph glyph-name="uring" unicode="&#x16f;" horiz-adv-x="618" 
d="M417 713q0 -49 -30.5 -78t-80.5 -29t-79.5 28.5t-29.5 77.5q0 48 29.5 76.5t79.5 28.5q49 0 80 -29t31 -75zM362 712q0 26 -16 41t-40 15t-40 -15t-16 -41t14.5 -41t41.5 -15q25 0 40.5 15t15.5 41zM20 107q8 32 30 76q4 7 11 3.5t3 -10.5q-21 -42 -29 -73q-6 -22 -3 -35
q2 -13 11 -16q4 -1 9 -2h1q22 -1 48 33q31 40 56 109q2 8 10 5q6 -2 5 -9q-3 -17 -16 -59q-23 -79 -18 -82q6 -4 2 -11t-11 -2q-13 8 2 65q-8 -14 -17 -25q-32 -42 -62 -40q-8 1 -14 3q-19 6 -22 28q-3 17 4 42z" />
    <glyph glyph-name="Uhungarumlaut" unicode="&#x170;" horiz-adv-x="730" 
d="M221 783q17 22 42.5 65.5t44.5 82.5h96v-10q-16 -27 -58.5 -75t-74.5 -75h-50v12zM397 783q23 32 49 76.5t38 71.5h96v-10q-16 -27 -58.5 -75t-74.5 -75h-50v12zM53 211q33 117 80.5 206.5t85.5 97.5q8 1 9.5 -6.5t-6.5 -9.5q-22 -4 -50.5 -47t-55.5 -107.5t-48 -137.5
q-27 -95 -34 -172q-4 -38 -1 -71.5t12 -54.5q15 -33 44 -36h1q14 -2 29.5 5t32.5 26t31.5 38.5t33.5 55t32 61t33.5 71.5t31.5 72t32 75q34 81 52 121t44.5 92t47 73.5t39.5 19.5q8 -1 7 -9v-1q-22 -80 -96 -302q-120 -361 -133 -454q-8 -52 5 -59q7 -4 3 -11t-11 -3
q-11 7 -13.5 30t6.5 67.5t19 84.5t32 111.5t36 114t41 124.5q70 210 92 289q-10 -4 -21 -16.5t-24.5 -36.5t-24.5 -45.5t-28 -60.5t-27.5 -63t-30.5 -72q-29 -68 -44.5 -103.5t-43 -94.5t-47.5 -91t-44.5 -66.5t-48 -48t-45.5 -10.5q-39 4 -57 45q-21 46 -13 134
q7 79 35 175z" />
    <glyph glyph-name="uhungarumlaut" unicode="&#x171;" horiz-adv-x="618" 
d="M164 618q17 22 42.5 65.5t44.5 82.5h96v-10q-16 -27 -58.5 -75t-74.5 -75h-50v12zM340 618q23 32 49 76.5t38 71.5h96v-10q-16 -27 -58.5 -75t-74.5 -75h-50v12zM20 107q8 32 30 76q4 7 11 3.5t3 -10.5q-21 -42 -29 -73q-6 -22 -3 -35q2 -13 11 -16q4 -1 9 -2h1
q22 -1 48 33q31 40 56 109q2 8 10 5q6 -2 5 -9q-3 -17 -16 -59q-23 -79 -18 -82q6 -4 2 -11t-11 -2q-13 8 2 65q-8 -14 -17 -25q-32 -42 -62 -40q-8 1 -14 3q-19 6 -22 28q-3 17 4 42z" />
    <glyph glyph-name="Uogonek" unicode="&#x172;" horiz-adv-x="730" 
d="M356 -116q0 -22 12 -33.5t33 -11.5t48 6v-56q-34 -9 -62 -9q-103 0 -103 94q0 68 78 126h62q-34 -32 -51 -58.5t-17 -57.5zM53 211q33 117 80.5 206.5t85.5 97.5q8 1 9.5 -6.5t-6.5 -9.5q-22 -4 -50.5 -47t-55.5 -107.5t-48 -137.5q-27 -95 -34 -172q-4 -38 -1 -71.5
t12 -54.5q15 -33 44 -36h1q14 -2 29.5 5t32.5 26t31.5 38.5t33.5 55t32 61t33.5 71.5t31.5 72t32 75q34 81 52 121t44.5 92t47 73.5t39.5 19.5q8 -1 7 -9v-1q-22 -80 -96 -302q-120 -361 -133 -454q-8 -52 5 -59q7 -4 3 -11t-11 -3q-11 7 -13.5 30t6.5 67.5t19 84.5
t32 111.5t36 114t41 124.5q70 210 92 289q-10 -4 -21 -16.5t-24.5 -36.5t-24.5 -45.5t-28 -60.5t-27.5 -63t-30.5 -72q-29 -68 -44.5 -103.5t-43 -94.5t-47.5 -91t-44.5 -66.5t-48 -48t-45.5 -10.5q-39 4 -57 45q-21 46 -13 134q7 79 35 175z" />
    <glyph glyph-name="uogonek" unicode="&#x173;" horiz-adv-x="618" 
d="M458 -116q0 -22 12 -33.5t33 -11.5t48 6v-56q-34 -9 -62 -9q-103 0 -103 94q0 68 78 126h62q-34 -32 -51 -58.5t-17 -57.5zM20 107q8 32 30 76q4 7 11 3.5t3 -10.5q-21 -42 -29 -73q-6 -22 -3 -35q2 -13 11 -16q4 -1 9 -2h1q22 -1 48 33q31 40 56 109q2 8 10 5q6 -2 5 -9
q-3 -17 -16 -59q-23 -79 -18 -82q6 -4 2 -11t-11 -2q-13 8 2 65q-8 -14 -17 -25q-32 -42 -62 -40q-8 1 -14 3q-19 6 -22 28q-3 17 4 42z" />
    <glyph glyph-name="Wcircumflex" unicode="&#x174;" horiz-adv-x="930" 
d="M294 782q61 65 86 96.5t37 52.5h90q25 -49 125 -149v-11h-62q-44 26 -109 90q-64 -62 -107 -90h-60v11zM82 156q52 154 121 303.5t95 173.5q6 5 11 -1t-1 -11q-25 -23 -92.5 -170.5t-118.5 -300.5q-48 -143 -61 -237q-14 -106 18 -131q8 -5 17 -6q15 -2 30 5.5t30.5 26.5
t29.5 38.5t30.5 54t28 59.5t28.5 68t26 66.5t25 67.5q14 37 21 55t18 46.5t18.5 43t16 30t16 22t13.5 5.5q27 -1 22 -89q-1 -29 -8 -97q-11 -102 -11 -144q0 -25 1.5 -42t6.5 -27.5t13 -10.5t17 6q55 38 108 233q21 79 32.5 154.5t9.5 113.5q-1 16 -4 21q-5 6 1.5 10.5
t11.5 -1.5q5 -9 7 -29q2 -39 -10 -116t-33 -157q-24 -89 -53.5 -155t-60.5 -87q-13 -9 -25 -9h-1q-38 0 -37 96q1 43 11 146q7 67 8 95q4 73 -7 73q-5 1 -13.5 -12.5t-21.5 -45.5t-23 -57t-29 -77q-17 -45 -26 -69t-26.5 -68.5t-30 -70t-30 -60.5t-32 -55.5t-31.5 -40
t-34 -27t-34 -5.5h-1q-14 2 -24 10q-40 30 -25 145q13 95 62 241z" />
    <glyph glyph-name="wcircumflex" unicode="&#x175;" horiz-adv-x="786" 
d="M224 617q61 65 86 96.5t37 52.5h90q25 -49 125 -149v-11h-62q-44 26 -109 90q-64 -62 -107 -90h-60v11zM26 117q14 65 37.5 133t36.5 78q6 4 11 -2t-1 -11q-11 -8 -32.5 -73.5t-35.5 -127.5q-8 -34 -10 -55q-1 -16 0 -19q7 2 19 30q12 25 26 70q17 55 25 69q9 15 18 6
q4 -4 4 -16q0 -23 -10 -88q-6 -38 -1 -47q1 -2 8 5q12 12 27 39q21 38 32 75t0 48q-5 6 1 11.5t11 -0.5q10 -11 7.5 -35.5t-12.5 -52.5t-25 -53q-16 -30 -30 -44q-23 -21 -33 0q-7 14 -1 57q7 42 9 65q-6 -16 -15 -44q-14 -46 -26 -72q-18 -39 -35 -40q-5 0 -9 3q-8 7 -5 34
q2 22 9 57z" />
    <glyph glyph-name="Ycircumflex" unicode="&#x176;" horiz-adv-x="565" 
d="M114 782q61 65 86 96.5t37 52.5h90q25 -49 125 -149v-11h-62q-44 26 -109 90q-64 -62 -107 -90h-60v11zM223 371q6 -5 1 -11t-11 -1q-18 15 -55 -30q-45 -55 -84 -154q-41 -102 -42 -169q-1 -61 35 -62q19 -1 40 10t46 37t45 50t50 69t47 71.5t49 77.5q41 66 62.5 99.5
t51.5 73t51 55.5q41 31 65 -1v-1l1 -1q18 -34 -26 -182.5t-119 -325.5q80 79 191 179q6 6 11.5 0t-0.5 -11q-129 -118 -219 -207q-32 -73 -64 -136q-52 -103 -94 -164q-47 -70 -78 -78q-16 -5 -28 7q-54 51 128 253q52 57 123 128q80 181 129.5 339t31.5 191q-15 18 -42 -2
q-15 -12 -33 -33t-42 -56.5t-40 -60.5t-47 -74q-24 -39 -37 -59.5t-36.5 -57t-38.5 -56.5t-37 -48.5t-38 -44t-35 -31t-36 -21.5t-33 -5q-51 2 -50 78q1 70 43 175q40 101 87 158t77 32zM242 -354q42 60 92 162q24 46 47 98q-52 -53 -92 -98q-172 -190 -129 -230v-1
q5 -5 13 -3q25 7 69 72z" />
    <glyph glyph-name="ycircumflex" unicode="&#x177;" horiz-adv-x="509" 
d="M89 617q61 65 86 96.5t37 52.5h90q25 -49 125 -149v-11h-62q-44 26 -109 90q-64 -62 -107 -90h-60v11zM42 242q5 6 11.5 1.5t1.5 -10.5q-8 -12 -14 -23q-11 -20 -11 -34q0 -10 6 -14q1 -1 2 -1q15 -8 33 -1.5t39.5 28t34 37t32.5 41.5q28 38 37 40q10 2 12 -9v-3
q-1 -5 -2 -11q-13 -81 -71 -239q61 53 135 108q6 5 11 -1.5t-1 -10.5q-87 -66 -157 -127q-16 -41 -31 -78q-47 -109 -90.5 -176.5t-73.5 -64.5h-2q-12 2 -20 9q-19 15 -12 48q6 31 34 75q56 85 181 196q64 167 81 258q-5 -6 -19 -24q-10 -13 -16 -21t-17.5 -22t-20 -22.5
t-20 -19.5t-21.5 -16.5t-21 -10t-22 -4t-21 6.5q-1 1 -3 2q-13 9 -13 27t13 42q6 11 15 24zM-52 -290q24 -3 63.5 62t83.5 169q10 23 19 48q-105 -97 -154 -172q-27 -41 -33 -69q-4 -23 7 -32q5 -4 13 -6h1z" />
    <glyph glyph-name="Zacute" unicode="&#x179;" horiz-adv-x="571" 
d="M456 526q-47 -25 -97.5 -58t-92 -64t-68.5 -58.5t-28 -40.5q-1 -8 -9 -7t-7 9q3 30 98.5 104.5t195.5 129.5q53 29 92 42q44 15 64 7q14 -6 16 -21q4 -24 -6 -57t-38 -77.5t-54 -82t-75 -97.5t-79 -94.5t-87 -100.5q-72 -83 -108.5 -126t-79 -99.5t-58.5 -89.5l-4 -11
q5 -2 17.5 3.5t37.5 21t43 27.5t55 37q38 26 58.5 39.5t55.5 35.5t56 32t45 19.5t39 8t22 -11.5q5 -7 -1.5 -11.5t-11.5 2.5q-21 30 -254 -127q-39 -26 -58 -39t-46 -29t-41.5 -21t-22.5 -2q-15 6 -5 32q17 35 60 92t80 100.5t109 127.5q57 64 86 98.5t77.5 93t74 95.5
t53.5 80.5t38 74.5t6 53q-1 7 -6 9q-15 6 -53 -8q-37 -12 -89 -41zM221 783q19 23 47.5 66.5t47.5 81.5h106v-10q-21 -31 -66.5 -78.5t-76.5 -71.5h-58v12z" />
    <glyph glyph-name="zacute" unicode="&#x17a;" horiz-adv-x="470" 
d="M54 121q0 -8 -8 -7.5t-8 8.5q1 38 55.5 85t117.5 78q40 19 64 21q17 2 24.5 -4.5t1.5 -21.5q-8 -26 -70 -82q-11 -11 -35 -32q-62 -54 -80 -77q-8 -12 -8.5 -21t2 -13t9.5 -10q9 -8 13 -13q10 9 22 19q80 66 127 97q7 5 11.5 -2t-2.5 -11q-46 -31 -126 -96
q-12 -11 -24 -21q9 -26 -18 -72q-11 -18 -24.5 -32.5t-25.5 -22.5t-23 -12q-14 -4 -23 0q-11 6 -10 20q2 24 42 66q21 22 61 57q-3 4 -10 11q-11 9 -15 15t-3.5 19t12.5 31q19 25 83 80q24 22 35 32q58 53 65 75q1 4 -1.5 5t-7.5 0q-21 -2 -59 -20q-60 -28 -111.5 -71.5
t-52.5 -77.5zM108 -46q19 33 17 52q-36 -31 -55 -52q-36 -38 -38 -56q0 -4 1 -4q3 -2 11 1q35 11 64 59zM181 618q19 23 47.5 66.5t47.5 81.5h106v-10q-21 -31 -66.5 -78.5t-76.5 -71.5h-58v12z" />
    <glyph glyph-name="Zdotaccent" unicode="&#x17b;" horiz-adv-x="571" 
d="M233 846q0 29 15 42.5t37 13.5q21 0 36 -13.5t15 -42.5t-15.5 -42.5t-35.5 -13.5q-22 0 -37 13.5t-15 42.5zM456 526q-47 -25 -97.5 -58t-92 -64t-68.5 -58.5t-28 -40.5q-1 -8 -9 -7t-7 9q3 30 98.5 104.5t195.5 129.5q53 29 92 42q44 15 64 7q14 -6 16 -21q4 -24 -6 -57
t-38 -77.5t-54 -82t-75 -97.5t-79 -94.5t-87 -100.5q-72 -83 -108.5 -126t-79 -99.5t-58.5 -89.5l-4 -11q5 -2 17.5 3.5t37.5 21t43 27.5t55 37q38 26 58.5 39.5t55.5 35.5t56 32t45 19.5t39 8t22 -11.5q5 -7 -1.5 -11.5t-11.5 2.5q-21 30 -254 -127q-39 -26 -58 -39
t-46 -29t-41.5 -21t-22.5 -2q-15 6 -5 32q17 35 60 92t80 100.5t109 127.5q57 64 86 98.5t77.5 93t74 95.5t53.5 80.5t38 74.5t6 53q-1 7 -6 9q-15 6 -53 -8q-37 -12 -89 -41z" />
    <glyph glyph-name="zdotaccent" unicode="&#x17c;" horiz-adv-x="470" 
d="M185 681q0 29 15 42.5t37 13.5q21 0 36 -13.5t15 -42.5t-15.5 -42.5t-35.5 -13.5q-22 0 -37 13.5t-15 42.5zM54 121q0 -8 -8 -7.5t-8 8.5q1 38 55.5 85t117.5 78q40 19 64 21q17 2 24.5 -4.5t1.5 -21.5q-8 -26 -70 -82q-11 -11 -35 -32q-62 -54 -80 -77q-8 -12 -8.5 -21
t2 -13t9.5 -10q9 -8 13 -13q10 9 22 19q80 66 127 97q7 5 11.5 -2t-2.5 -11q-46 -31 -126 -96q-12 -11 -24 -21q9 -26 -18 -72q-11 -18 -24.5 -32.5t-25.5 -22.5t-23 -12q-14 -4 -23 0q-11 6 -10 20q2 24 42 66q21 22 61 57q-3 4 -10 11q-11 9 -15 15t-3.5 19t12.5 31
q19 25 83 80q24 22 35 32q58 53 65 75q1 4 -1.5 5t-7.5 0q-21 -2 -59 -20q-60 -28 -111.5 -71.5t-52.5 -77.5zM108 -46q19 33 17 52q-36 -31 -55 -52q-36 -38 -38 -56q0 -4 1 -4q3 -2 11 1q35 11 64 59z" />
    <glyph glyph-name="Zcaron" unicode="&#x17d;" horiz-adv-x="571" 
d="M119 931h60q56 -36 107 -92q62 62 109 92h62v-13q-100 -100 -125 -147h-90q-29 50 -123 147v13zM456 526q-47 -25 -97.5 -58t-92 -64t-68.5 -58.5t-28 -40.5q-1 -8 -9 -7t-7 9q3 30 98.5 104.5t195.5 129.5q53 29 92 42q44 15 64 7q14 -6 16 -21q4 -24 -6 -57t-38 -77.5
t-54 -82t-75 -97.5t-79 -94.5t-87 -100.5q-72 -83 -108.5 -126t-79 -99.5t-58.5 -89.5l-4 -11q5 -2 17.5 3.5t37.5 21t43 27.5t55 37q38 26 58.5 39.5t55.5 35.5t56 32t45 19.5t39 8t22 -11.5q5 -7 -1.5 -11.5t-11.5 2.5q-21 30 -254 -127q-39 -26 -58 -39t-46 -29
t-41.5 -21t-22.5 -2q-15 6 -5 32q17 35 60 92t80 100.5t109 127.5q57 64 86 98.5t77.5 93t74 95.5t53.5 80.5t38 74.5t6 53q-1 7 -6 9q-15 6 -53 -8q-37 -12 -89 -41z" />
    <glyph glyph-name="zcaron" unicode="&#x17e;" horiz-adv-x="470" 
d="M68 766h60q56 -36 107 -92q62 62 109 92h62v-13q-100 -100 -125 -147h-90q-29 50 -123 147v13zM54 121q0 -8 -8 -7.5t-8 8.5q1 38 55.5 85t117.5 78q40 19 64 21q17 2 24.5 -4.5t1.5 -21.5q-8 -26 -70 -82q-11 -11 -35 -32q-62 -54 -80 -77q-8 -12 -8.5 -21t2 -13
t9.5 -10q9 -8 13 -13q10 9 22 19q80 66 127 97q7 5 11.5 -2t-2.5 -11q-46 -31 -126 -96q-12 -11 -24 -21q9 -26 -18 -72q-11 -18 -24.5 -32.5t-25.5 -22.5t-23 -12q-14 -4 -23 0q-11 6 -10 20q2 24 42 66q21 22 61 57q-3 4 -10 11q-11 9 -15 15t-3.5 19t12.5 31q19 25 83 80
q24 22 35 32q58 53 65 75q1 4 -1.5 5t-7.5 0q-21 -2 -59 -20q-60 -28 -111.5 -71.5t-52.5 -77.5zM108 -46q19 33 17 52q-36 -31 -55 -52q-36 -38 -38 -56q0 -4 1 -4q3 -2 11 1q35 11 64 59z" />
    <glyph glyph-name="longs" unicode="&#x17f;" horiz-adv-x="326" 
d="M261 692q-46 0 -67 -28.5t-21 -86.5v-577h-88v577q0 188 177 188q49 0 100 -19l-23 -69q-44 15 -78 15z" />
    <glyph glyph-name="uni0180" unicode="&#x180;" horiz-adv-x="615" 
d="M339 545q106 0 163.5 -73t57.5 -204q0 -133 -58.5 -205.5t-162.5 -72.5q-54 0 -96.5 19.5t-69.5 58.5h-7q-15 -59 -18 -68h-63v605h-76v66h76v89h88v-89h213v-66h-213v-30q0 -55 -5 -110h5q54 80 166 80zM324 472q-81 0 -116 -46t-35 -155v-4q0 -110 36 -157t117 -47
q72 0 107.5 53t35.5 153q0 102 -35.5 152.5t-109.5 50.5z" />
    <glyph glyph-name="uni0181" unicode="&#x181;" horiz-adv-x="729" 
d="M151 637q-61 0 -61 -50q0 -30 10 -54h-79q-4 10 -7.5 26.5t-3.5 28.5q0 65 34.5 95.5t106.5 30.5h230q144 0 207.5 -43t63.5 -134q0 -63 -34.5 -104.5t-101.5 -53.5v-5q82 -14 121 -57t39 -114q0 -96 -66 -149.5t-182 -53.5h-251v637h-26zM267 410h132q84 0 122 27t38 90
q0 59 -41.5 84.5t-132.5 25.5h-118v-227zM267 335v-259h144q86 0 127.5 33.5t41.5 100.5q0 64 -44 94.5t-132 30.5h-137z" />
    <glyph glyph-name="uni0182" unicode="&#x182;" horiz-adv-x="615" 
d="M564 209q0 -105 -63.5 -157t-194.5 -52h-209v714h424v-79h-334v-223h106q137 0 204 -48.5t67 -154.5zM187 77h110q92 0 133 31t41 101q0 68 -43 96.5t-146 28.5h-95v-257z" />
    <glyph glyph-name="uni0183" unicode="&#x183;" horiz-adv-x="615" 
d="M339 545q106 0 163.5 -73t57.5 -204q0 -133 -58.5 -205.5t-162.5 -72.5q-54 0 -96.5 19.5t-69.5 58.5h-7q-15 -59 -18 -68h-63v760h421v-74h-333v-111q0 -55 -5 -110h5q54 80 166 80zM324 472q-81 0 -116 -46t-35 -155v-4q0 -110 36 -157t117 -47q72 0 107.5 53t35.5 153
q0 102 -35.5 152.5t-109.5 50.5z" />
    <glyph glyph-name="uni0184" unicode="&#x184;" horiz-adv-x="634" 
d="M180 210q0 -77 37.5 -110t122.5 -33q80 0 115.5 35.5t35.5 102.5q0 69 -48 99t-140 30h-123v-124zM90 714h90v-302h134q129 0 199.5 -53t70.5 -154t-63.5 -158t-179.5 -57q-251 0 -251 220v504z" />
    <glyph glyph-name="uni0185" unicode="&#x185;" horiz-adv-x="611" 
d="M322 -10q-115 0 -177.5 72.5t-62.5 204.5v493h88v-185q0 -55 -5 -110h5q54 80 166 80q106 0 163.5 -73t57.5 -204q0 -134 -61 -206t-174 -72zM170 265q0 -96 40.5 -149t112.5 -53t107.5 53t35.5 153q0 102 -35.5 152.5t-109.5 50.5q-81 0 -116 -46t-35 -155v-6z" />
    <glyph glyph-name="uni0186" unicode="&#x186;" horiz-adv-x="631" 
d="M243 724q158 0 243 -96t85 -272q0 -110 -39.5 -192.5t-114.5 -128t-174 -45.5q-55 0 -98 6.5t-86 22.5v78q94 -28 170 -28q115 0 181 77t66 211q0 137 -63.5 212.5t-183.5 75.5q-77 0 -162 -39l-36 76q84 42 212 42z" />
    <glyph glyph-name="uni0187" unicode="&#x187;" horiz-adv-x="631" 
d="M403 645q-115 0 -181 -77t-66 -211q0 -138 64 -213t182 -75q76 0 171 28v-78q-45 -17 -87 -23t-97 -6q-158 0 -243 96t-85 272q0 110 41 193t118.5 128t183.5 45q61 0 117 -14v14q0 64 27 99t88 35q30 0 60 -13v-72q-24 10 -52 10q-47 0 -47 -48v-51l-36 -78
q-33 15 -71.5 27t-86.5 12z" />
    <glyph glyph-name="uni0188" unicode="&#x188;" horiz-adv-x="502" 
d="M300 -10q-116 0 -180.5 71t-64.5 204q0 135 65.5 208t185.5 73q27 0 65 -6v91q0 64 26.5 99t88.5 35q29 0 60 -13v-73q-23 10 -52 10q-47 0 -47 -48v-124l-27 -73q-68 25 -116 25q-81 0 -119.5 -51t-38.5 -152q0 -97 38.5 -148.5t114.5 -51.5q71 0 139 31v-78
q-55 -29 -138 -29z" />
    <glyph glyph-name="uni0189" unicode="&#x189;" horiz-adv-x="729" 
d="M669 364q0 -175 -96 -269.5t-278 -94.5h-191v314h-74v78h74v322h213q167 0 259.5 -92t92.5 -258zM574 361q0 137 -68 206.5t-202 69.5h-110v-245h178v-78h-178v-237h90q290 0 290 284z" />
    <glyph glyph-name="uni018A" unicode="&#x18a;" horiz-adv-x="810" 
d="M654 361q0 136 -67 206t-203 70h-117v-560h97q290 0 290 284zM397 714q168 0 260 -92.5t92 -257.5q0 -177 -96.5 -270.5t-276.5 -93.5h-199v637h-26q-61 0 -61 -50q0 -30 10 -54h-79q-4 10 -7.5 26.5t-3.5 28.5q0 65 34.5 95.5t106.5 30.5h246z" />
    <glyph glyph-name="uni018B" unicode="&#x18b;" horiz-adv-x="615" 
d="M428 335h-82q-106 0 -154 -32t-48 -101q0 -63 44 -94t139 -31h101v258zM518 714v-714h-199q-268 0 -268 198q0 103 73.5 158.5t211.5 55.5h92v223h-334v79h424z" />
    <glyph glyph-name="uni018C" unicode="&#x18c;" horiz-adv-x="615" 
d="M289 63q80 0 117 43.5t37 143.5v16q0 112 -37.5 159.5t-117.5 47.5q-68 0 -105 -54t-37 -154t37 -151t106 -51zM530 0h-71l-13 72h-4q-56 -82 -167 -82q-104 0 -162 72.5t-58 204.5q0 131 58 205t163 74q108 0 166 -79h6q-1 10 -3.5 39.5t-2.5 39.5v140h-333v74h421v-760
z" />
    <glyph glyph-name="uni018D" unicode="&#x18d;" horiz-adv-x="604" 
d="M341 294q66 -38 95 -77t29 -87q0 -64 -48 -102t-132 -38q-51 0 -97 11.5t-109 42.5l38 69q37 -21 79 -36t93 -15q40 0 63.5 18.5t23.5 50.5q0 34 -26.5 60t-107.5 70q-104 57 -146 117t-42 136q0 115 66 180.5t184 65.5q112 0 179 -60.5t67 -163.5q0 -87 -54 -149.5
t-155 -92.5zM145 515q0 -62 30 -105.5t96 -77.5q92 22 139.5 74t47.5 131q0 67 -41.5 108.5t-112.5 41.5q-77 0 -118 -44.5t-41 -127.5z" />
    <glyph glyph-name="uni018E" unicode="&#x18e;" horiz-adv-x="556" 
d="M60 79h309v255h-291v78h291v223h-309v79h399v-714h-399v79z" />
    <glyph glyph-name="uni018F" unicode="&#x18f;" horiz-adv-x="738" 
d="M332 646q-110 0 -228 -41v82q61 21 114 29.5t116 8.5q162 0 252.5 -97.5t90.5 -271.5q0 -171 -85 -268.5t-237 -97.5q-147 0 -221.5 92t-74.5 275v34h523q-8 126 -71 190.5t-179 64.5zM355 69q100 0 159.5 63.5t67.5 179.5h-427q0 -125 49 -184t151 -59z" />
    <glyph glyph-name="uni0190" unicode="&#x190;" horiz-adv-x="587" 
d="M87 547q0 82 60.5 129.5t166.5 47.5q64 0 124 -18.5t109 -55.5l-43 -61q-52 36 -94 48.5t-94 12.5q-63 0 -99.5 -30.5t-36.5 -81.5q0 -60 48 -95.5t145 -35.5h97v-75h-102q-110 0 -165 -33t-55 -97q0 -67 48.5 -102.5t139.5 -35.5q105 0 214 52v-82q-90 -44 -219 -44
q-135 0 -206 52t-71 153q0 76 46.5 121t137.5 57v4q-72 12 -111.5 56.5t-39.5 113.5z" />
    <glyph glyph-name="uni0191" unicode="&#x191;" horiz-adv-x="519" 
d="M45 -240q-32 0 -56 13v76q21 -10 45 -10q35 0 49 20t14 62v793h399v-79h-309v-253h290v-79h-290v-386q0 -157 -142 -157z" />
    <glyph glyph-name="florin" unicode="&#x192;" horiz-adv-x="571" 
d="M161 -240q-36 0 -68 9v73q34 -9 63 -9q45 0 63.5 23.5t18.5 79.5v470h-105v41l105 30v65q0 94 39.5 138t129.5 44q45 0 103 -21l-22 -68q-50 16 -78 16q-46 0 -65 -24.5t-19 -83.5v-69h135v-68h-133v-470q0 -91 -40 -133.5t-127 -42.5z" />
    <glyph glyph-name="uni0193" unicode="&#x193;" horiz-adv-x="728" 
d="M407 377h247v-350q-57 -18 -115.5 -27.5t-135.5 -9.5q-163 0 -252.5 97t-89.5 270q0 112 44.5 195.5t128 127.5t197.5 44q71 0 137 -17v17q0 64 27 99t88 35q29 0 60 -13v-72q-24 10 -52 10q-47 0 -47 -48v-53l-34 -78q-94 41 -184 41q-127 0 -199 -77t-72 -211
q0 -142 68.5 -215.5t200.5 -73.5q72 0 140 17v212h-157v80z" />
    <glyph glyph-name="uni0194" unicode="&#x194;" horiz-adv-x="569" 
d="M334 108q33 -65 50 -121t17 -94q0 -59 -32 -96t-84 -37q-54 0 -85 37.5t-31 95.5q0 78 67 214l-236 607h94q89 -237 136.5 -362t54.5 -167q10 51 50 158l140 371h95zM319 -105q0 26 -8.5 62t-25.5 68q-19 -38 -26.5 -72t-7.5 -56q0 -31 9.5 -45t24.5 -14q34 0 34 57z" />
    <glyph glyph-name="uni0195" unicode="&#x195;" horiz-adv-x="934" 
d="M639 63q67 0 96.5 36t29.5 113v324h88v-327q0 -114 -51 -166.5t-163 -52.5q-110 0 -162 48.5t-52 147.5v157q0 65 -26 97t-83 32q-74 0 -108.5 -45.5t-34.5 -149.5v-277h-88v760h88v-223q0 -44 -5 -75h6q24 42 66 62.5t90 20.5q91 0 137 -46.5t46 -149.5v-157
q0 -65 30.5 -97t95.5 -32z" />
    <glyph glyph-name="uni0196" unicode="&#x196;" horiz-adv-x="348" 
d="M179 714v-549q0 -48 18 -72t59 -24q21 0 44 3.5t38 7.5v-74q-13 -6 -40 -11t-55 -5q-80 0 -116.5 41.5t-36.5 125.5v557h89z" />
    <glyph glyph-name="uni0197" unicode="&#x197;" horiz-adv-x="338" 
d="M298 0h-258v52l84 19v256h-90v78h90v237l-84 20v52h258v-52l-84 -20v-237h90v-78h-90v-256l84 -19v-52z" />
    <glyph glyph-name="uni0198" unicode="&#x198;" horiz-adv-x="619" 
d="M327 405l292 -405h-106q-30 40 -121 172q-71 103 -126 170l-79 -77v-265h-90v714h90v-360q28 35 60 72q21 24 185 225q29 38 54.5 53.5t66.5 15.5q30 0 50 -8v-70q-21 3 -44 3q-17 0 -31.5 -10t-36.5 -36z" />
    <glyph glyph-name="uni0199" unicode="&#x199;" horiz-adv-x="534" 
d="M172 363l-4 -87h4l30 38l34 41l171 181h103l-217 -229l232 -307h-106l-186 250l-61 -53v-197h-87v625q0 140 121 140q33 0 65 -13v-73q-23 10 -52 10q-23 0 -35 -13t-12 -45v-268z" />
    <glyph glyph-name="uni019A" unicode="&#x19a;" horiz-adv-x="257" 
d="M173 420h70v-66h-70v-354h-88v354h-70v66h70v340h88v-340z" />
    <glyph glyph-name="uni019B" unicode="&#x19b;" horiz-adv-x="541" 
d="M-6 0l231 526l-23 64l-106 -32l-19 63l99 30q-13 22 -29.5 32t-45.5 10q-30 0 -56 -6v71q33 8 66 8q53 0 87 -21t59 -69l109 33l19 -63l-102 -32l179 -498q10 -28 21.5 -41t28.5 -13q12 0 30 5v-65q-24 -12 -57 -12q-36 0 -58 18t-38 63l-73 205q-42 119 -50 159h-4
q-16 -62 -55 -154l-122 -281h-91z" />
    <glyph glyph-name="uni019C" unicode="&#x19c;" horiz-adv-x="1029" 
d="M180 714v-506q0 -70 29 -105t92 -35q84 0 124.5 47t40.5 147v452h90v-506q0 -70 29 -105t94 -35q84 0 123.5 49.5t39.5 164.5v432h90v-714h-71l-15 82h-5q-25 -42 -74 -67t-107 -25q-68 0 -110.5 24.5t-64.5 75.5h-5q-28 -48 -79.5 -74t-113.5 -26q-103 0 -150 53
t-47 165v506h90z" />
    <glyph glyph-name="uni019D" unicode="&#x19d;" horiz-adv-x="759" 
d="M97 714h104l22 -35l235 -362l124 -194h4q-1 12 -4 84t-3 104v403h84v-714h-105l-382 593h-4l2 -40q6 -89 6 -154v-482q0 -83 -34 -120t-101 -37q-32 0 -56 13v76q21 -10 45 -10q35 0 49 20t14 62v793z" />
    <glyph glyph-name="uni019E" unicode="&#x19e;" horiz-adv-x="618" 
d="M450 -240v583q0 64 -28.5 96.5t-91.5 32.5q-83 0 -120 -46.5t-37 -147.5v-278h-88v536h71l13 -73h5q25 40 70 61.5t99 21.5q99 0 146.5 -48t47.5 -149v-589h-87z" />
    <glyph glyph-name="uni019F" unicode="&#x19f;" horiz-adv-x="782" 
d="M720 358q0 -171 -86.5 -269.5t-242.5 -98.5q-158 0 -244 96.5t-86 272.5q0 174 85.5 270t245.5 96q155 0 241.5 -97.5t86.5 -269.5zM391 68q108 0 167.5 65t65.5 192h-467q6 -127 65.5 -192t168.5 -65zM392 646q-106 0 -165.5 -61.5t-69.5 -181.5h466q-9 121 -67.5 182
t-163.5 61z" />
    <glyph glyph-name="Ohorn" unicode="&#x1a0;" horiz-adv-x="784" 
d="M719 358q0 -173 -86.5 -270.5t-241.5 -97.5q-158 0 -244 96t-86 273q0 176 86 271t245 95t247 -104q33 9 48.5 39.5t15.5 99.5h95l7 -11q-15 -78 -47.5 -120.5t-83.5 -61.5q45 -85 45 -209zM156 358q0 -142 59.5 -216t175.5 -74t174.5 73t58.5 217q0 143 -58.5 215.5
t-173.5 72.5q-118 0 -177 -73.5t-59 -214.5z" />
    <glyph glyph-name="ohorn" unicode="&#x1a1;" horiz-adv-x="616" 
d="M551 269q0 -131 -66.5 -205t-183.5 -74q-73 0 -129 34t-86.5 97.5t-30.5 147.5q0 131 65.5 204t183.5 73q53 0 97.5 -18t76.5 -51q24 7 38.5 23.5t21.5 41t7 76.5h94l7 -11q-16 -79 -46.5 -121.5t-82.5 -61.5q34 -69 34 -155zM146 269q0 -105 38.5 -155.5t118.5 -50.5
q83 0 120 52t37 154q0 100 -38 151.5t-120 51.5q-83 0 -119.5 -51.5t-36.5 -151.5z" />
    <glyph glyph-name="uni01A2" unicode="&#x1a2;" horiz-adv-x="1075" 
d="M688 358q0 -173 -82.5 -270.5t-230.5 -97.5q-150 0 -232 96.5t-82 272.5q0 174 82 270t233 96q142 0 224 -91q28 43 78 67t110 24q102 0 149.5 -52.5t47.5 -165.5v-507h-90v507q0 70 -29 105t-92 35q-53 0 -86.5 -15t-52.5 -46q53 -92 53 -228zM156 358q0 -142 56 -216
t163 -74t162.5 73t55.5 217q0 143 -55 215.5t-162 72.5q-108 0 -164 -73.5t-56 -214.5z" />
    <glyph glyph-name="uni01A3" unicode="&#x1a3;" horiz-adv-x="845" 
d="M526 269q0 -132 -63.5 -205.5t-173.5 -73.5q-69 0 -122.5 34t-82.5 98t-29 147q0 130 62.5 203.5t173.5 73.5q106 0 169 -72q26 37 64 54.5t80 17.5q80 0 120 -47t40 -150v-589h-87v585q0 127 -92 127q-63 0 -94 -44q35 -63 35 -159zM146 269q0 -101 36.5 -153.5
t107.5 -52.5t108 52t37 154q0 101 -37 152t-108 51q-144 0 -144 -203z" />
    <glyph glyph-name="uni01A4" unicode="&#x1a4;" horiz-adv-x="685" 
d="M267 355h72q106 0 154 34.5t48 110.5q0 69 -44.5 103t-138.5 34h-91v-282zM366 714q268 0 268 -210q0 -109 -74.5 -167.5t-210.5 -58.5h-82v-278h-90v637h-26q-61 0 -61 -50q0 -30 10 -54h-79q-4 10 -7.5 26.5t-3.5 28.5q0 65 34.5 95.5t106.5 30.5h215z" />
    <glyph glyph-name="uni01A5" unicode="&#x1a5;" horiz-adv-x="615" 
d="M207 765q33 0 65 -13v-73q-23 10 -52 10q-23 0 -35 -13t-12 -45v-80q0 -30 -4 -68l-2 -20h6q31 44 72 63.5t95 19.5q104 0 162 -72.5t58 -204.5q0 -131 -58 -205t-163 -74q-108 0 -166 78h-6l2 -20q4 -38 4 -68v-220h-88l1 865q0 140 121 140zM324 472q-80 0 -115 -45
t-36 -141v-17q0 -109 36 -157.5t117 -48.5q67 0 105 54.5t38 152.5t-38 150t-107 52z" />
    <glyph glyph-name="uni01A6" unicode="&#x1a6;" horiz-adv-x="622" 
d="M187 271h107q87 0 127 34t40 102q0 67 -40.5 98t-131.5 31h-102v-265zM187 195v-195h-90v714h90v-100h107q133 0 196.5 -50.5t63.5 -152.5q0 -142 -143 -191l196 -320h-105l-173 295h-142z" />
    <glyph glyph-name="uni01A7" unicode="&#x1a7;" horiz-adv-x="548" 
d="M47 191q0 48 20 84t61 63.5t124 58.5q68 25 98.5 44t44 42t13.5 58q0 49 -36 76.5t-99 27.5q-72 0 -154 -38l-28 77q85 40 180 40q102 0 165 -49.5t63 -132.5q0 -76 -41.5 -125.5t-142.5 -86.5q-78 -28 -113 -48t-50 -43t-15 -56q0 -54 40.5 -84.5t120.5 -30.5
q91 0 200 47v-86q-34 -17 -85 -28t-111 -11q-120 0 -187.5 54t-67.5 147z" />
    <glyph glyph-name="uni01A8" unicode="&#x1a8;" horiz-adv-x="479" 
d="M45 148q0 37 15 64t46.5 48.5t99.5 46.5q88 34 113 53t25 49t-28 47.5t-83 17.5q-50 0 -132 -34l-30 70q81 36 156 36q98 0 149.5 -36.5t51.5 -105.5q0 -37 -14.5 -63t-45 -47t-106.5 -50q-53 -20 -81 -35.5t-39.5 -31t-11.5 -37.5q0 -39 32 -59t95 -20q84 0 170 43v-80
q-62 -34 -168 -34q-214 0 -214 158z" />
    <glyph glyph-name="uni01A9" unicode="&#x1a9;" horiz-adv-x="569" 
d="M36 0v74l234 299l-228 266v75h475v-80h-325l-47 1l225 -261l-235 -296l163 1h248v-79h-510z" />
    <glyph glyph-name="uni01AA" unicode="&#x1aa;" horiz-adv-x="309" 
d="M67 542q-60 0 -91.5 29.5t-31.5 82.5q0 54 32.5 82.5t92.5 28.5q63 0 96.5 -36t33.5 -105v-696q0 -49 18 -72.5t59 -23.5q19 0 43.5 3t38.5 8v-67q-15 -7 -41.5 -11.5t-52.5 -4.5q-80 0 -116 41t-36 126v615h-45zM63 693q-21 0 -30 -12t-9 -27q0 -40 49 -40h39v13
q0 35 -12.5 50.5t-36.5 15.5z" />
    <glyph glyph-name="uni01AB" unicode="&#x1ab;" horiz-adv-x="360" 
d="M222 -240q-29 0 -60 12v73q22 -9 50 -9q48 0 48 52v102h-11q-157 0 -157 166v312h-76v42l77 35l35 114h52v-123h155v-68h-155v-310q0 -46 22.5 -71t61.5 -25q17 0 40 3.5t35 7.5v-180q0 -133 -117 -133z" />
    <glyph glyph-name="uni01AC" unicode="&#x1ac;" horiz-adv-x="576" 
d="M151 635q-61 0 -61 -48q0 -30 10 -54h-79q-4 10 -7.5 26.5t-3.5 28.5q0 65 34.5 95.5t106.5 30.5h414v-79h-222v-635h-90v635h-102z" />
    <glyph glyph-name="uni01AD" unicode="&#x1ad;" horiz-adv-x="360" 
d="M180 536h155v-68h-155v-310q0 -46 22.5 -71t61.5 -25q17 0 40 3.5t35 7.5v-67q-12 -5 -38 -10.5t-52 -5.5q-157 0 -157 166v312h-76v42l77 35v66q0 154 147 154q39 0 77 -13v-73q-11 4 -34.5 7t-42.5 3q-32 0 -46 -17t-14 -51v-85z" />
    <glyph glyph-name="uni01AE" unicode="&#x1ae;" horiz-adv-x="556" 
d="M233 635h-223v79h535v-79h-222v-714q0 -42 14.5 -62t48.5 -20q24 0 45 10v-76q-24 -13 -63 -13q-68 0 -101.5 37t-33.5 120v718z" />
    <glyph glyph-name="Uhorn" unicode="&#x1af;" horiz-adv-x="779" 
d="M640 714v-97q40 5 59 37t19 106h93l7 -11q-16 -90 -59 -135.5t-119 -58.5v-303q0 -125 -70.5 -193.5t-200.5 -68.5q-133 0 -206 70.5t-73 193.5v460h90v-464q0 -86 47.5 -134t143.5 -48q88 0 134 46.5t46 136.5v463h89z" />
    <glyph glyph-name="uhorn" unicode="&#x1b0;" horiz-adv-x="673" 
d="M168 535v-344q0 -65 29 -96.5t90 -31.5q83 0 120.5 46t37.5 148v278h88v-59q39 6 57 37.5t18 105.5h93l7 -11q-16 -93 -59 -139.5t-116 -54.5v-414h-72l-13 71h-4q-24 -39 -67.5 -60t-100.5 -21q-98 0 -147.5 46.5t-49.5 148.5v350h89z" />
    <glyph glyph-name="uni01B1" unicode="&#x1b1;" horiz-adv-x="782" 
d="M391 68q114 0 173 62t59 183q0 110 -40.5 189t-126.5 140v72h288v-79h-178q74 -57 113 -141t39 -184q0 -150 -87 -235.5t-240 -85.5q-155 0 -241.5 85t-86.5 235q0 100 39 185t112 141h-177v79h288v-72q-87 -62 -127.5 -142t-40.5 -187q0 -120 59.5 -182.5t174.5 -62.5z
" />
    <glyph glyph-name="uni01B2" unicode="&#x1b2;" horiz-adv-x="600" 
d="M571 580q0 -53 -45 -157l-181 -423h-90l-255 714h94l162 -466q31 -88 45 -156q8 30 27 73q21 50 32 81l85 203q36 88 36 125q0 39 -16 55t-47 16q-24 0 -45 -10v76q22 13 63 13q135 0 135 -144z" />
    <glyph glyph-name="uni01B3" unicode="&#x1b3;" horiz-adv-x="565" 
d="M39 649q-21 0 -39 -8v73q28 11 60 11q37 0 59.5 -17.5t40.5 -57.5l128 -287l181 351h97l-233 -437v-277h-90v273l-162 341q-18 35 -42 35z" />
    <glyph glyph-name="uni01B4" unicode="&#x1b4;" horiz-adv-x="541" 
d="M485 546q33 0 57 -12v-65q-18 5 -30 5q-18 0 -28.5 -13t-21.5 -41l-183 -494q-32 -87 -79 -126.5t-116 -39.5q-37 0 -73 8v70q24 -6 59 -6q85 0 121 95l26 71l-216 538h94l116 -305q37 -100 45 -146h4q8 36 48 147l76 217q19 54 41 75.5t60 21.5z" />
    <glyph glyph-name="uni01B5" unicode="&#x1b5;" horiz-adv-x="571" 
d="M79 407h184l151 227h-364v80h473v-68l-159 -239h122v-71h-169l-170 -256h386v-80h-495v68l178 268h-137v71z" />
    <glyph glyph-name="uni01B6" unicode="&#x1b6;" horiz-adv-x="470" 
d="M57 313h161l109 155h-271v68h368v-66l-111 -157h101v-70h-151l-123 -175h291v-68h-392v58l130 185h-112v70z" />
    <glyph glyph-name="uni01B7" unicode="&#x1b7;" horiz-adv-x="583" 
d="M291 440q68 -2 122.5 -30t85 -76.5t30.5 -112.5q0 -109 -76 -170t-212 -61q-126 0 -206 39v82q49 -23 104 -35t103 -12q97 0 145 41t48 117q0 69 -49.5 107t-143.5 38h-62v65l206 202h-331v80h444v-71z" />
    <glyph glyph-name="uni01B8" unicode="&#x1b8;" horiz-adv-x="583" 
d="M85 643v71h444v-80h-330l205 -202v-65h-78q-84 0 -130.5 -40.5t-46.5 -113.5q0 -71 49.5 -110t143.5 -39q49 0 103.5 11.5t103.5 35.5v-82q-45 -21 -98.5 -30t-119.5 -9q-87 0 -149 27t-94.5 77t-32.5 117q0 68 30 119t84.5 79.5t123.5 30.5z" />
    <glyph glyph-name="uni01B9" unicode="&#x1b9;" horiz-adv-x="498" 
d="M61 472v64h409v-74h-306l219 -243v-61h-59q-101 0 -151.5 -42.5t-50.5 -124.5q0 -71 47 -114.5t126 -43.5q100 0 189 42v-80q-68 -35 -196 -35q-113 0 -183.5 63t-70.5 166q0 105 64.5 168t181.5 71z" />
    <glyph glyph-name="uni01BA" unicode="&#x1ba;" horiz-adv-x="498" 
d="M216 -167q84 0 160 36v-80q-60 -29 -161 -29q-90 0 -138.5 31t-48.5 88q0 62 46.5 91.5t137.5 29.5q80 0 114.5 27.5t34.5 94.5q0 60 -44.5 88t-142.5 28h-59v61l183 163h-270v74h394v-64l-187 -164q104 -5 159 -51.5t55 -133.5q0 -95 -59.5 -145.5t-175.5 -50.5
q-53 0 -78 -10.5t-25 -37.5q0 -21 26.5 -33.5t78.5 -12.5z" />
    <glyph glyph-name="uni01BB" unicode="&#x1bb;" horiz-adv-x="569" 
d="M78 419h241q27 44 39 82t12 81q0 50 -29.5 78t-82.5 28q-45 0 -81.5 -16.5t-73.5 -49.5l-47 59q93 84 204 84q94 0 147.5 -48.5t53.5 -132.5q0 -42 -10.5 -81.5t-35.5 -83.5h100v-70h-144q-11 -16 -23.5 -32.5t-201.5 -242.5v-4h374v-70h-472v73l175 215l47 61h-192v70z
" />
    <glyph glyph-name="uni01BC" unicode="&#x1bc;" horiz-adv-x="583" 
d="M224 634v-193h42q77 0 137 -27t93 -76.5t33 -116.5q0 -109 -76 -170t-212 -61q-126 0 -206 39v82q49 -23 104 -35t103 -12q97 0 145 41t48 117q0 68 -47 106.5t-130 38.5h-124v267h-79v80h444v-80h-275z" />
    <glyph glyph-name="uni01BD" unicode="&#x1bd;" horiz-adv-x="490" 
d="M198 462v-117h23q107 0 165.5 -46.5t58.5 -135.5q0 -82 -60.5 -127.5t-168.5 -45.5q-118 0 -183 35v79q89 -42 182 -42q69 0 106 26.5t37 79.5t-37.5 79t-115.5 26h-95v189h-62v74h364v-74h-214z" />
    <glyph glyph-name="uni01BE" unicode="&#x1be;" horiz-adv-x="462" 
d="M136 378v90h-91v42l92 35l35 114h52v-123h155v-68h-155v-92q0 -34 10.5 -49.5t36.5 -24.5q83 -31 115 -66.5t32 -87.5q0 -75 -56 -116.5t-158 -41.5q-105 0 -168 34v80q86 -43 170 -43q66 0 96.5 21.5t30.5 57.5q0 29 -24 49.5t-90 47.5q-47 20 -65 52t-18 89z" />
    <glyph glyph-name="uni01BF" unicode="&#x1bf;" horiz-adv-x="586" 
d="M173 -240h-88v776h72l12 -73h4q55 83 158 83q96 0 152 -59t56 -164q0 -91 -45.5 -164.5t-130 -117.5t-190.5 -51v-230zM173 62q131 17 203 85.5t72 173.5q0 69 -36 110t-99 41q-73 0 -106.5 -44t-33.5 -142v-224z" />
    <glyph glyph-name="uni01C0" unicode="&#x1c0;" horiz-adv-x="516" 
d="M297 -240h-78v1000h78v-1000z" />
    <glyph glyph-name="uni01C1" unicode="&#x1c1;" horiz-adv-x="516" 
d="M169 -240h-78v1000h78v-1000zM426 -240h-78v1000h78v-1000z" />
    <glyph glyph-name="uni01C2" unicode="&#x1c2;" horiz-adv-x="516" 
d="M65 402h154v358h78v-358h154v-72h-154v-124h154v-72h-154v-374h-78v374h-154v72h154v124h-154v72z" />
    <glyph glyph-name="uni01C3" unicode="&#x1c3;" horiz-adv-x="269" 
d="M163 201h-57l-25 513h107zM72 54q0 32 16 49.5t46 17.5t46 -18t16 -49t-16.5 -49.5t-45.5 -18.5q-30 0 -46 18t-16 50z" />
    <glyph glyph-name="uni01C4" unicode="&#x1c4;" horiz-adv-x="1291" 
d="M827 931h60q56 -36 107 -92q62 62 109 92h62v-13q-100 -100 -125 -147h-90q-29 50 -123 147v13zM310 400q5 6 11.5 1.5t1.5 -11.5q-25 -35 -91 -260q60 44 106 64q7 3 10 -4.5t-4 -10.5q-52 -22 -120 -74q-10 -37 -34 -119l-8 -30q-3 -8 -10.5 -6t-5.5 10l1 3q4 15 11 39
q16 57 24 85q-29 -23 -54 -47q-90 -86 -108 -152q-15 -51 -2 -74q11 -19 41 -17q32 2 79 23q86 40 180 122t139 162q63 110 82 223q20 115 -10 186q-9 19 -22 33q-27 30 -74 32q-49 3 -113 -24q-96 -41 -207 -140q93 19 117 -53q12 -36 5 -99q36 111 55 138zM137 51
q33 32 72 62q47 179 26 243q-23 68 -129 34q-8 -3 -10 5q-2 5 2 8q126 119 236 166q67 28 120 25q53 -2 85 -37q15 -16 25 -38q32 -75 11 -194q-20 -117 -84 -229q-46 -82 -142 -166t-184 -124q-50 -23 -85 -25q-40 -2 -56 25q-16 29 0 87q20 69 113 158zM1176 526
q-47 -25 -97.5 -58t-92 -64t-68.5 -58.5t-28 -40.5q-1 -8 -9 -7t-7 9q3 30 98.5 104.5t195.5 129.5q53 29 92 42q44 15 64 7q14 -6 16 -21q4 -24 -6 -57t-38 -77.5t-54 -82t-75 -97.5t-79 -94.5t-87 -100.5q-72 -83 -108.5 -126t-79 -99.5t-58.5 -89.5l-4 -11q5 -2 17.5 3.5
t37.5 21t43 27.5t55 37q38 26 58.5 39.5t55.5 35.5t56 32t45 19.5t39 8t22 -11.5q5 -7 -1.5 -11.5t-11.5 2.5q-21 30 -254 -127q-39 -26 -58 -39t-46 -29t-41.5 -21t-22.5 -2q-15 6 -5 32q17 35 60 92t80 100.5t109 127.5q57 64 86 98.5t77.5 93t74 95.5t53.5 80.5t38 74.5
t6 53q-1 7 -6 9q-15 6 -53 -8q-37 -12 -89 -41z" />
    <glyph glyph-name="uni01C5" unicode="&#x1c5;" horiz-adv-x="1200" 
d="M800 766h60q56 -36 107 -92q62 62 109 92h62v-13q-100 -100 -125 -147h-90q-29 50 -123 147v13zM310 400q5 6 11.5 1.5t1.5 -11.5q-25 -35 -91 -260q60 44 106 64q7 3 10 -4.5t-4 -10.5q-52 -22 -120 -74q-10 -37 -34 -119l-8 -30q-3 -8 -10.5 -6t-5.5 10l1 3q4 15 11 39
q16 57 24 85q-29 -23 -54 -47q-90 -86 -108 -152q-15 -51 -2 -74q11 -19 41 -17q32 2 79 23q86 40 180 122t139 162q63 110 82 223q20 115 -10 186q-9 19 -22 33q-27 30 -74 32q-49 3 -113 -24q-96 -41 -207 -140q93 19 117 -53q12 -36 5 -99q36 111 55 138zM137 51
q33 32 72 62q47 179 26 243q-23 68 -129 34q-8 -3 -10 5q-2 5 2 8q126 119 236 166q67 28 120 25q53 -2 85 -37q15 -16 25 -38q32 -75 11 -194q-20 -117 -84 -229q-46 -82 -142 -166t-184 -124q-50 -23 -85 -25q-40 -2 -56 25q-16 29 0 87q20 69 113 158zM784 121
q0 -8 -8 -7.5t-8 8.5q1 38 55.5 85t117.5 78q40 19 64 21q17 2 24.5 -4.5t1.5 -21.5q-8 -26 -70 -82q-11 -11 -35 -32q-62 -54 -80 -77q-8 -12 -8.5 -21t2 -13t9.5 -10q9 -8 13 -13q10 9 22 19q80 66 127 97q7 5 11.5 -2t-2.5 -11q-46 -31 -126 -96q-12 -11 -24 -21
q9 -26 -18 -72q-11 -18 -24.5 -32.5t-25.5 -22.5t-23 -12q-14 -4 -23 0q-11 6 -10 20q2 24 42 66q21 22 61 57q-3 4 -10 11q-11 9 -15 15t-3.5 19t12.5 31q19 25 83 80q24 22 35 32q58 53 65 75q1 4 -1.5 5t-7.5 0q-21 -2 -59 -20q-60 -28 -111.5 -71.5t-52.5 -77.5z
M838 -46q19 33 17 52q-36 -31 -55 -52q-36 -38 -38 -56q0 -4 1 -4q3 -2 11 1q35 11 64 59z" />
    <glyph glyph-name="uni01C6" unicode="&#x1c6;" horiz-adv-x="1084" 
d="M687 766h60q56 -36 107 -92q62 62 109 92h62v-13q-100 -100 -125 -147h-90q-29 50 -123 147v13zM107 163q4 -7 -3.5 -10.5t-10.5 3.5q-11 22 -24 16q-13 -7 -24 -30q-12 -23 -13 -43q-1 -19 8 -20q26 2 65 71q5 8 9 16q22 82 49 147q20 49 33 65q7 9 14 8q8 -3 7 -15
q-3 -19 -23 -68q-39 -93 -65 -143q-10 -39 -16 -72q-17 -91 1 -100h1q26 -13 78 29q33 27 65.5 67t46.5 65q4 7 11 3.5t3 -10.5q-15 -27 -48.5 -68.5t-67.5 -69.5q-60 -48 -95 -31h-1q-28 15 -10 118q2 11 5 23q-34 -49 -61 -51h-1q-26 2 -24 37q1 23 14 49q14 28 32 37
q27 13 45 -23zM177 307q-6 -15 -13 -34q7 17 15 36q6 14 11 26q-6 -12 -13 -28zM669 121q0 -8 -8 -7.5t-8 8.5q1 38 55.5 85t117.5 78q40 19 64 21q17 2 24.5 -4.5t1.5 -21.5q-8 -26 -70 -82q-11 -11 -35 -32q-62 -54 -80 -77q-8 -12 -8.5 -21t2 -13t9.5 -10q9 -8 13 -13
q10 9 22 19q80 66 127 97q7 5 11.5 -2t-2.5 -11q-46 -31 -126 -96q-12 -11 -24 -21q9 -26 -18 -72q-11 -18 -24.5 -32.5t-25.5 -22.5t-23 -12q-14 -4 -23 0q-11 6 -10 20q2 24 42 66q21 22 61 57q-3 4 -10 11q-11 9 -15 15t-3.5 19t12.5 31q19 25 83 80q24 22 35 32
q58 53 65 75q1 4 -1.5 5t-7.5 0q-21 -2 -59 -20q-60 -28 -111.5 -71.5t-52.5 -77.5zM723 -46q19 33 17 52q-36 -31 -55 -52q-36 -38 -38 -56q0 -4 1 -4q3 -2 11 1q35 11 64 59z" />
    <glyph glyph-name="uni01C7" unicode="&#x1c7;" horiz-adv-x="796" 
d="M40 -35q36 155 111 357.5t123 296.5q3 8 10.5 4t3.5 -11q-48 -93 -122.5 -295t-110.5 -356q-23 -101 -23 -158q0 -60 25 -66q7 -1 18 1q26 7 57.5 29t51.5 40.5t56 53.5q29 29 44.5 43.5t40 34t45 28t40.5 9.5q8 0 8.5 -8t-7.5 -8q-23 -1 -53 -19t-50 -36.5t-57 -54.5
q-37 -37 -57.5 -56t-53.5 -41t-61 -30v0q-14 -4 -26 -1q-37 8 -37 80q0 60 24 163zM882 410q-3 -89 -22 -204q-11 -68 -27 -135q109 70 185 82q8 2 9.5 -6t-6.5 -9q-79 -14 -193 -90q-8 -33 -16 -65q-27 -100 -58.5 -176t-59 -116.5t-54.5 -60.5q-26 -20 -50 -18
q-23 3 -36 25q-29 47 -2 129q18 55 67 116t117 117q38 31 78 59q17 75 30 151q18 111 22 199q-94 -16 -228 -45q-8 -2 -9.5 6t6.5 9q189 42 304 56q137 18 192 1q7 -2 5 -9.5t-10 -5.5q-52 16 -185 -1q-28 -4 -59 -9zM631 -358q40 30 83 115t82 230q6 23 12 48
q-32 -23 -62 -48q-66 -55 -113.5 -114t-65.5 -112q-24 -75 0 -115q10 -16 25 -18q17 -2 39 14z" />
    <glyph glyph-name="uni01C8" unicode="&#x1c8;" horiz-adv-x="782" 
d="M40 -35q36 155 111 357.5t123 296.5q3 8 10.5 4t3.5 -11q-48 -93 -122.5 -295t-110.5 -356q-23 -101 -23 -158q0 -60 25 -66q7 -1 18 1q26 7 57.5 29t51.5 40.5t56 53.5q29 29 44.5 43.5t40 34t45 28t40.5 9.5q8 0 8.5 -8t-7.5 -8q-23 -1 -53 -19t-50 -36.5t-57 -54.5
q-37 -37 -57.5 -56t-53.5 -41t-61 -30v0q-14 -4 -26 -1q-37 8 -37 80q0 60 24 163zM658 210q2 8 9.5 7t6.5 -9q-9 -55 -26 -127q68 47 128 72q8 3 11 -4.5t-5 -10.5q-67 -28 -140 -81q-21 -80 -46 -148q-53 -151 -106 -186q-22 -15 -39 -5q-16 8 -21 34q-6 29 5 72t39 88
q43 68 124 132q14 12 30 23q21 81 30 143zM680 266.5q5 -2.5 7 -8.5v-1q2 -5 -1 -11q-2 -6 -8 -9l-1 -1q-5 -2 -9 0q-6 2 -7.5 8t1 12.5t8 9.5t10.5 0.5zM481 -264q49 33 100 178q21 60 40 128q-7 -5 -13 -10q-79 -63 -121 -129q-26 -42 -36.5 -82t-4.5 -66q3 -18 12 -23
t23 4z" />
    <glyph glyph-name="uni01C9" unicode="&#x1c9;" horiz-adv-x="516" 
d="M15 135v1q4 27 12 55q31 121 81 231q49 108 77 106q5 0 9 -3q13 -10 5 -48q-7 -30 -27 -79q-30 -77 -75 -161.5t-67 -106.5q-11 -68 1 -103q5 -17 14.5 -21.5t24.5 4.5q43 25 101 135q4 7 11 3.5t3 -10.5q-60 -115 -107 -142q-22 -13 -39 -5q-16 7 -24 31q-12 39 0 113z
M42 187q-3 -11 -5 -22q25 37 60.5 107t60.5 132q18 47 25 77q6 28 2 31h-1q-17 2 -61 -97q-50 -108 -81 -228zM392 210q2 8 9.5 7t6.5 -9q-9 -55 -26 -127q68 47 128 72q8 3 11 -4.5t-5 -10.5q-67 -28 -140 -81q-21 -80 -46 -148q-53 -151 -106 -186q-22 -15 -39 -5
q-16 8 -21 34q-6 29 5 72t39 88q43 68 124 132q14 12 30 23q21 81 30 143zM414 266.5q5 -2.5 7 -8.5v-1q2 -5 -1 -11q-2 -6 -8 -9l-1 -1q-5 -2 -9 0q-6 2 -7.5 8t1 12.5t8 9.5t10.5 0.5zM215 -264q49 33 100 178q21 60 40 128q-7 -5 -13 -10q-79 -63 -121 -129
q-26 -42 -36.5 -82t-4.5 -66q3 -18 12 -23t23 4z" />
    <glyph glyph-name="uni01CA" unicode="&#x1ca;" horiz-adv-x="1033" 
d="M110 87q-49 -262 -78 -362q-3 -7 -10.5 -5t-5.5 10q29 98 79 360q16 88 25 133.5t25.5 120t30 114t31.5 83.5t38 63.5t42 20.5h1h1q10 -1 16.5 -12t8.5 -35.5t2.5 -46t-2.5 -63t-5.5 -67t-7.5 -75.5q-24 -233 -17 -310q2 -25 6.5 -41.5t12.5 -26t19 -8.5q16 2 29.5 9
t25 22t20.5 29t17.5 39t14 42.5t12.5 50t11 50.5t11 54q28 147 50 204q3 7 10.5 4.5t4.5 -10.5q-22 -55 -50 -201q-8 -42 -12.5 -64t-13.5 -59.5t-16 -57.5t-19 -47t-25 -41.5t-30 -26t-38 -13.5h-1q-24 -2 -37.5 21.5t-17.5 69.5q-7 78 17 312l10.5 108t6 83t-1.5 68.5
t-13 22.5q-19 -1 -36.5 -20t-34 -62t-29 -82t-28 -111.5t-24 -116.5t-25.5 -130zM1118 410q-3 -89 -22 -204q-11 -68 -27 -135q109 70 185 82q8 2 9.5 -6t-6.5 -9q-79 -14 -193 -90q-8 -33 -16 -65q-27 -100 -58.5 -176t-59 -116.5t-54.5 -60.5q-26 -20 -50 -18
q-23 3 -36 25q-29 47 -2 129q18 55 67 116t117 117q38 31 78 59q17 75 30 151q18 111 22 199q-94 -16 -228 -45q-8 -2 -9.5 6t6.5 9q189 42 304 56q137 18 192 1q7 -2 5 -9.5t-10 -5.5q-52 16 -185 -1q-28 -4 -59 -9zM867 -358q40 30 83 115t82 230q6 23 12 48
q-32 -23 -62 -48q-66 -55 -113.5 -114t-65.5 -112q-24 -75 0 -115q10 -16 25 -18q17 -2 39 14z" />
    <glyph glyph-name="uni01CB" unicode="&#x1cb;" horiz-adv-x="1018" 
d="M110 87q-49 -262 -78 -362q-3 -7 -10.5 -5t-5.5 10q29 98 79 360q16 88 25 133.5t25.5 120t30 114t31.5 83.5t38 63.5t42 20.5h1h1q10 -1 16.5 -12t8.5 -35.5t2.5 -46t-2.5 -63t-5.5 -67t-7.5 -75.5q-24 -233 -17 -310q2 -25 6.5 -41.5t12.5 -26t19 -8.5q16 2 29.5 9
t25 22t20.5 29t17.5 39t14 42.5t12.5 50t11 50.5t11 54q28 147 50 204q3 7 10.5 4.5t4.5 -10.5q-22 -55 -50 -201q-8 -42 -12.5 -64t-13.5 -59.5t-16 -57.5t-19 -47t-25 -41.5t-30 -26t-38 -13.5h-1q-24 -2 -37.5 21.5t-17.5 69.5q-7 78 17 312l10.5 108t6 83t-1.5 68.5
t-13 22.5q-19 -1 -36.5 -20t-34 -62t-29 -82t-28 -111.5t-24 -116.5t-25.5 -130zM894 210q2 8 9.5 7t6.5 -9q-9 -55 -26 -127q68 47 128 72q8 3 11 -4.5t-5 -10.5q-67 -28 -140 -81q-21 -80 -46 -148q-53 -151 -106 -186q-22 -15 -39 -5q-16 8 -21 34q-6 29 5 72t39 88
q43 68 124 132q14 12 30 23q21 81 30 143zM916 266.5q5 -2.5 7 -8.5v-1q2 -5 -1 -11q-2 -6 -8 -9l-1 -1q-5 -2 -9 0q-6 2 -7.5 8t1 12.5t8 9.5t10.5 0.5zM717 -264q49 33 100 178q21 60 40 128q-7 -5 -13 -10q-79 -63 -121 -129q-26 -42 -36.5 -82t-4.5 -66q3 -18 12 -23
t23 4z" />
    <glyph glyph-name="uni01CC" unicode="&#x1cc;" horiz-adv-x="875" 
d="M23 91q28 121 45 131q7 4 11 -3t-3 -11q-6 -3 -15 -33q2 5 5 10q28 51 55 40q1 0 2 -1q11 -5 15.5 -19.5t8.5 -40.5q6 -39 13 -46q13 -13 57 33q6 6 11.5 0.5t0.5 -11.5q-56 -57 -80 -34q-11 11 -18 56q-6 43 -16 48q-14 6 -35 -33q-17 -31 -49 -117q-2 -7 -9 -5
q-8 2 -6 10q2 5 7 26zM752 210q2 8 9.5 7t6.5 -9q-9 -55 -26 -127q68 47 128 72q8 3 11 -4.5t-5 -10.5q-67 -28 -140 -81q-21 -80 -46 -148q-53 -151 -106 -186q-22 -15 -39 -5q-16 8 -21 34q-6 29 5 72t39 88q43 68 124 132q14 12 30 23q21 81 30 143zM774 266.5
q5 -2.5 7 -8.5v-1q2 -5 -1 -11q-2 -6 -8 -9l-1 -1q-5 -2 -9 0q-6 2 -7.5 8t1 12.5t8 9.5t10.5 0.5zM575 -264q49 33 100 178q21 60 40 128q-7 -5 -13 -10q-79 -63 -121 -129q-26 -42 -36.5 -82t-4.5 -66q3 -18 12 -23t23 4z" />
    <glyph glyph-name="uni01CD" unicode="&#x1cd;" horiz-adv-x="639" 
d="M150 944h60q56 -36 107 -92q62 62 109 92h62v-13q-100 -100 -125 -147h-90q-29 50 -123 147v13zM184 -141q-2 -7 -9.5 -4.5t-5.5 9.5q30 86 78 184q-31 9 -73 11q-32 1 -99 -3q-33 -2 -49 -2q-4 0 -6.5 2t-3.5 5q-4 14 33 24q26 8 78 16q63 10 158 21q40 74 84 143
q32 51 63.5 95t59.5 77t51.5 54t39.5 26l1 1q12 4 18 -12q14 -40 -54 -360q67 5 116 8q8 0 8.5 -8t-7.5 -8q-52 -3 -120 -8q-12 -56 -37 -170q-61 -280 -79 -383q-2 -8 -10 -7q-7 2 -6 9q4 116 -5 200.5t-30.5 137.5t-49 82.5t-65.5 43.5q-49 -98 -79 -184zM255 63
q10 21 21 42q-87 -10 -147 -20q-46 -7 -72 -14l17 1q68 4 101 3q46 -2 80 -12zM382 257q-40 -65 -78 -133q111 12 227 21q68 320 56 356l1 1v0q-30 -9 -86 -76.5t-120 -168.5zM528 128q-120 -9 -233 -21q-13 -24 -25 -49q36 -13 63.5 -39t49 -71t34 -115t13.5 -164
q17 88 62 295q24 109 36 164z" />
    <glyph glyph-name="uni01CE" unicode="&#x1ce;" horiz-adv-x="561" 
d="M112 766h60q56 -36 107 -92q62 62 109 92h62v-13q-100 -100 -125 -147h-90q-29 50 -123 147v13zM29 137q16 29 42 48.5t54 16.5q8 0 7.5 -8t-8.5 -8q-23 2 -45 -15t-36 -42q-8 -16 -10 -29t2 -18v-1q5 -6 21 -3q28 7 68 72q12 19 16 23q6 5 11 -1q3 -3 2 -6q0 -3 -7 -18
q-11 -22 -16 -34q-10 -25 -7 -36q2 -6 10 -6q10 0 28 7q28 11 62.5 34t46.5 38q6 6 12 0.5t0 -11.5q-13 -15 -49 -39.5t-66 -36.5q-21 -8 -35 -8q-19 1 -24 18q-3 9 0 24q-24 -30 -48 -35l-1 -1q-25 -5 -36 9l-1 1q-8 11 -5 30q2 16 12 35z" />
    <glyph glyph-name="uni01CF" unicode="&#x1cf;" horiz-adv-x="338" 
d="M2 944h60q56 -36 107 -92q62 62 109 92h62v-13q-100 -100 -125 -147h-90q-29 50 -123 147v13zM26 -236q-8 -2 -10 6t6 9q189 42 304 56q138 18 192 1q8 -2 5.5 -9.5t-9.5 -5.5q-52 16 -186 -1q-114 -15 -302 -56zM462 647q2 8 9.5 5t5.5 -10l-12 -34q22 4 42 6
q137 18 192 1q8 -2 5.5 -9.5t-10.5 -5.5q-51 16 -185 -1q-24 -3 -51 -8q-64 -180 -108 -357q-49 -194 -75 -386q-1 -8 -9 -7t-7 9q26 193 75 388q44 174 106 350q-96 -15 -234 -45q-7 -2 -9 6t6 9q144 32 244 48q7 20 15 41z" />
    <glyph glyph-name="uni01D0" unicode="&#x1d0;" horiz-adv-x="257" 
d="M-40 766h60q56 -36 107 -92q62 62 109 92h62v-13q-100 -100 -125 -147h-90q-29 50 -123 147v13zM173 0h-88v536h88v-536z" />
    <glyph glyph-name="uni01D1" unicode="&#x1d1;" horiz-adv-x="780" 
d="M221 944h60q56 -36 107 -92q62 62 109 92h62v-13q-100 -100 -125 -147h-90q-29 50 -123 147v13zM262 532q8 2 10 -5.5t-6 -9.5q-35 -10 -79 -82q48 44 97 67q46 23 85 22q41 -1 65 -27q25 -28 25 -80q0 -56 -19 -138q-43 -187 -131 -340q-104 -181 -207 -181q-12 0 -24 3
h-1q-38 12 -52 66q-17 64 -1 176q14 102 51 217q19 57 41 109q-23 -33 -42 -70q-4 -7 -11 -3t-3 11q36 70 86 126q63 125 116 139zM291 488q-69 -33 -133 -105q-37 -74 -67 -168q-37 -114 -52 -215q-15 -108 1 -168q13 -46 42 -56q10 -2 20 -2q94 0 194 173q86 151 128 335
q19 81 19 135q0 46 -21 69q-19 21 -53 22q-35 1 -78 -20z" />
    <glyph glyph-name="uni01D2" unicode="&#x1d2;" horiz-adv-x="604" 
d="M133 766h60q56 -36 107 -92q62 62 109 92h62v-13q-100 -100 -125 -147h-90q-29 50 -123 147v13zM124 182q8 -2 6 -9.5t-9 -5.5q-25 5 -57 -37q-14 -18 -23 -38t-9 -35t9 -20q3 -1 7 -1q26 -3 55 21q29 25 38 56q2 4 2 8q-5 2 -9 4q-15 8 -15 22q1 12 11 17v1q12 6 22 -3
q9 -9 8 -30q23 -5 47 -3q35 4 56 23q6 5 11.5 -1t-0.5 -12q-26 -21 -65 -25q-26 -3 -50 2l-2 -8q-11 -35 -43 -63q-35 -29 -68 -25q-5 0 -10 2h-2q-19 10 -18 36q0 18 11 41q9 21 24 41q39 50 73 42zM142 139q1 -1 2 -1q0 9 -3 13q-1 1 -3 0q-3 -2 -3 -4q0 -4 7 -8z" />
    <glyph glyph-name="uni01D3" unicode="&#x1d3;" horiz-adv-x="730" 
d="M196 944h60q56 -36 107 -92q62 62 109 92h62v-13q-100 -100 -125 -147h-90q-29 50 -123 147v13zM53 211q33 117 80.5 206.5t85.5 97.5q8 1 9.5 -6.5t-6.5 -9.5q-22 -4 -50.5 -47t-55.5 -107.5t-48 -137.5q-27 -95 -34 -172q-4 -38 -1 -71.5t12 -54.5q15 -33 44 -36h1
q14 -2 29.5 5t32.5 26t31.5 38.5t33.5 55t32 61t33.5 71.5t31.5 72t32 75q34 81 52 121t44.5 92t47 73.5t39.5 19.5q8 -1 7 -9v-1q-22 -80 -96 -302q-120 -361 -133 -454q-8 -52 5 -59q7 -4 3 -11t-11 -3q-11 7 -13.5 30t6.5 67.5t19 84.5t32 111.5t36 114t41 124.5
q70 210 92 289q-10 -4 -21 -16.5t-24.5 -36.5t-24.5 -45.5t-28 -60.5t-27.5 -63t-30.5 -72q-29 -68 -44.5 -103.5t-43 -94.5t-47.5 -91t-44.5 -66.5t-48 -48t-45.5 -10.5q-39 4 -57 45q-21 46 -13 134q7 79 35 175z" />
    <glyph glyph-name="uni01D4" unicode="&#x1d4;" horiz-adv-x="618" 
d="M140 766h60q56 -36 107 -92q62 62 109 92h62v-13q-100 -100 -125 -147h-90q-29 50 -123 147v13zM20 107q8 32 30 76q4 7 11 3.5t3 -10.5q-21 -42 -29 -73q-6 -22 -3 -35q2 -13 11 -16q4 -1 9 -2h1q22 -1 48 33q31 40 56 109q2 8 10 5q6 -2 5 -9q-3 -17 -16 -59
q-23 -79 -18 -82q6 -4 2 -11t-11 -2q-13 8 2 65q-8 -14 -17 -25q-32 -42 -62 -40q-8 1 -14 3q-19 6 -22 28q-3 17 4 42z" />
    <glyph glyph-name="uni01D5" unicode="&#x1d5;" horiz-adv-x="730" 
d="M508 815q0 -23 -12.5 -36t-34.5 -13t-34.5 13t-12.5 36q0 26 14 38t33 12q20 0 33.5 -12t13.5 -38zM320 815q0 -26 -13.5 -37.5t-32.5 -11.5q-22 0 -34.5 13t-12.5 36q0 26 14 38t33 12t32.5 -12t13.5 -38zM219 1001h297v-71h-297v71zM53 211q33 117 80.5 206.5
t85.5 97.5q8 1 9.5 -6.5t-6.5 -9.5q-22 -4 -50.5 -47t-55.5 -107.5t-48 -137.5q-27 -95 -34 -172q-4 -38 -1 -71.5t12 -54.5q15 -33 44 -36h1q14 -2 29.5 5t32.5 26t31.5 38.5t33.5 55t32 61t33.5 71.5t31.5 72t32 75q34 81 52 121t44.5 92t47 73.5t39.5 19.5q8 -1 7 -9v-1
q-22 -80 -96 -302q-120 -361 -133 -454q-8 -52 5 -59q7 -4 3 -11t-11 -3q-11 7 -13.5 30t6.5 67.5t19 84.5t32 111.5t36 114t41 124.5q70 210 92 289q-10 -4 -21 -16.5t-24.5 -36.5t-24.5 -45.5t-28 -60.5t-27.5 -63t-30.5 -72q-29 -68 -44.5 -103.5t-43 -94.5t-47.5 -91
t-44.5 -66.5t-48 -48t-45.5 -10.5q-39 4 -57 45q-21 46 -13 134q7 79 35 175z" />
    <glyph glyph-name="uni01D6" unicode="&#x1d6;" horiz-adv-x="618" 
d="M447 650q0 -23 -12.5 -36t-34.5 -13t-34.5 13t-12.5 36q0 26 14 38t33 12q20 0 33.5 -12t13.5 -38zM259 650q0 -26 -13.5 -37.5t-32.5 -11.5q-22 0 -34.5 13t-12.5 36q0 26 14 38t33 12t32.5 -12t13.5 -38zM158 836h297v-71h-297v71zM20 107q8 32 30 76q4 7 11 3.5
t3 -10.5q-21 -42 -29 -73q-6 -22 -3 -35q2 -13 11 -16q4 -1 9 -2h1q22 -1 48 33q31 40 56 109q2 8 10 5q6 -2 5 -9q-3 -17 -16 -59q-23 -79 -18 -82q6 -4 2 -11t-11 -2q-13 8 2 65q-8 -14 -17 -25q-32 -42 -62 -40q-8 1 -14 3q-19 6 -22 28q-3 17 4 42z" />
    <glyph glyph-name="uni01D7" unicode="&#x1d7;" horiz-adv-x="730" 
d="M499 815q0 -23 -12.5 -36t-34.5 -13t-34.5 13t-12.5 36q0 26 14 38t33 12q20 0 33.5 -12t13.5 -38zM311 815q0 -26 -13.5 -37.5t-32.5 -11.5q-22 0 -34.5 13t-12.5 36q0 26 14 38t33 12t32.5 -12t13.5 -38zM305 903q73 84 96 133h105v-10q-28 -43 -142 -135h-59v12z
M53 211q33 117 80.5 206.5t85.5 97.5q8 1 9.5 -6.5t-6.5 -9.5q-22 -4 -50.5 -47t-55.5 -107.5t-48 -137.5q-27 -95 -34 -172q-4 -38 -1 -71.5t12 -54.5q15 -33 44 -36h1q14 -2 29.5 5t32.5 26t31.5 38.5t33.5 55t32 61t33.5 71.5t31.5 72t32 75q34 81 52 121t44.5 92
t47 73.5t39.5 19.5q8 -1 7 -9v-1q-22 -80 -96 -302q-120 -361 -133 -454q-8 -52 5 -59q7 -4 3 -11t-11 -3q-11 7 -13.5 30t6.5 67.5t19 84.5t32 111.5t36 114t41 124.5q70 210 92 289q-10 -4 -21 -16.5t-24.5 -36.5t-24.5 -45.5t-28 -60.5t-27.5 -63t-30.5 -72
q-29 -68 -44.5 -103.5t-43 -94.5t-47.5 -91t-44.5 -66.5t-48 -48t-45.5 -10.5q-39 4 -57 45q-21 46 -13 134q7 79 35 175z" />
    </font>
</defs>
</svg>
