<?xml version="1.0" standalone="no"?>
<!DOCTYPE svg PUBLIC "-//W3C//DTD SVG 1.1//EN" "http://www.w3.org/Graphics/SVG/1.1/DTD/svg11.dtd" >
<svg xmlns="http://www.w3.org/2000/svg" xmlns:xlink="http://www.w3.org/1999/xlink" version="1.1">
<metadata>
Created by FontForge 20190801 at Mon Feb  8 12:16:58 2021
 By root
Copyright 2014 The Nunito Project Authors (https://github.com/googlefonts/nunito)
</metadata>
<defs>
<font id="Nunito-Italic" horiz-adv-x="258" >
  <font-face 
    font-family="Nunito"
    font-weight="400"
    font-style="italic"
    font-stretch="normal"
    units-per-em="1000"
    panose-1="0 0 0 0 0 0 0 0 0 0"
    ascent="800"
    descent="-200"
    x-height="486"
    cap-height="712"
    bbox="-213 -261.562 1349.46 1069"
    underline-thickness="36"
    underline-position="-100"
    slope="-9"
    unicode-range="U+0001-206F"
  />
<missing-glyph horiz-adv-x="364" 
d="M33 0v666h265v-666h-265zM66 33h199v600h-199v-600z" />
    <glyph glyph-name=".notdef" horiz-adv-x="364" 
d="M33 0v666h265v-666h-265zM66 33h199v600h-199v-600z" />
    <glyph glyph-name=".null" horiz-adv-x="0" 
 />
    <glyph glyph-name="nonmarkingreturn" horiz-adv-x="333" 
 />
    <glyph glyph-name="NULL" 
 />
    <glyph glyph-name="NULL" 
 />
    <glyph glyph-name="uni0001" 
 />
    <glyph glyph-name="uni0002" 
 />
    <glyph glyph-name="uni0003" 
 />
    <glyph glyph-name="uni0004" 
 />
    <glyph glyph-name="uni0005" 
 />
    <glyph glyph-name="uni0006" 
 />
    <glyph glyph-name="uni0007" 
 />
    <glyph glyph-name="uni0008" 
 />
    <glyph glyph-name="uni0009" unicode="&#x9;" 
 />
    <glyph glyph-name="uni000A" unicode="&#xa;" 
 />
    <glyph glyph-name="uni000B" 
 />
    <glyph glyph-name="uni000C" 
 />
    <glyph glyph-name="CR" unicode="&#xd;" 
 />
    <glyph glyph-name="uni000E" 
 />
    <glyph glyph-name="uni000F" 
 />
    <glyph glyph-name="uni0010" 
 />
    <glyph glyph-name="uni0011" 
 />
    <glyph glyph-name="uni0012" 
 />
    <glyph glyph-name="uni0013" 
 />
    <glyph glyph-name="uni0014" 
 />
    <glyph glyph-name="uni0015" 
 />
    <glyph glyph-name="uni0016" 
 />
    <glyph glyph-name="uni0017" 
 />
    <glyph glyph-name="uni0018" 
 />
    <glyph glyph-name="uni0019" 
 />
    <glyph glyph-name="uni001A" 
 />
    <glyph glyph-name="uni001B" 
 />
    <glyph glyph-name="uni001C" 
 />
    <glyph glyph-name="uni001D" 
 />
    <glyph glyph-name="uni001E" 
 />
    <glyph glyph-name="uni001F" 
 />
    <glyph glyph-name="space" unicode=" " 
 />
    <glyph glyph-name="exclam" unicode="!" horiz-adv-x="228" 
d="M107 181q-27 0 -24 31l51 452q5 48 52 48q24 0 35.5 -15t5.5 -42l-91 -448q-3 -11 -10 -18.5t-19 -7.5zM85 -4q-25 0 -40 15.5t-15 39.5t15 39.5t40 15.5t40 -15.5t15 -39.5t-15 -39.5t-40 -15.5z" />
    <glyph glyph-name="quotedbl" unicode="&#x22;" horiz-adv-x="392" 
d="M142 421q-13 0 -21 7.5t-6 26.5l18 216q1 17 13.5 29t33.5 12t34 -13.5t7 -37.5l-48 -210q-3 -16 -11.5 -23t-19.5 -7zM313 421q-13 0 -21 7.5t-6 26.5l18 216q1 17 13.5 29t33.5 12t34 -13.5t7 -37.5l-48 -210q-3 -16 -11.5 -23t-19.5 -7z" />
    <glyph glyph-name="numbersign" unicode="#" horiz-adv-x="600" 
d="M82 -7q-17 0 -22 11.5t2 31.5l52 146h-53q-11 0 -22.5 4.5t-11.5 21.5q0 33 37 33h71l81 231h-89q-10 0 -21.5 5t-11.5 22q0 32 36 32h107l53 151q11 30 39 30q16 0 21 -11.5t-2 -31.5l-48 -138h159l53 151q10 30 40 30q16 0 21 -11.5t-2 -31.5l-48 -138h52
q11 0 22.5 -4.5t11.5 -21.5q0 -33 -37 -33h-70l-82 -231h89q11 0 22.5 -4.5t11.5 -21.5q0 -33 -37 -33h-106l-58 -159q-11 -30 -39 -30q-16 0 -21 11.5t2 31.5l52 146h-159l-56 -159q-11 -30 -39 -30zM197 241h160l82 231h-160z" />
    <glyph glyph-name="dollar" unicode="$" horiz-adv-x="600" 
d="M255 -122q-17 0 -25.5 10t-5.5 31l13 77q-117 10 -192 67q-15 10 -17.5 25.5t4.5 28t21 16.5t32 -8q40 -28 89 -42.5t115 -14.5q48 0 86.5 13.5t61 40.5t22.5 66q0 45 -28 71.5t-100 45.5l-89 24q-70 18 -111.5 59.5t-41.5 118.5q0 65 35 110t94 69t131 24l13 83
q5 29 37 29q14 0 24 -9t6 -29l-12 -80q43 -7 83.5 -26t71.5 -48q11 -9 12 -22.5t-6 -25t-20.5 -14.5t-31.5 10q-73 59 -175 59q-82 0 -130.5 -32.5t-48.5 -92.5q0 -50 24.5 -75t75.5 -38l89 -23q94 -26 137.5 -69.5t43.5 -110.5q0 -62 -32.5 -105t-86.5 -67t-118 -28
l-14 -89q-5 -29 -36 -29z" />
    <glyph glyph-name="percent" unicode="%" horiz-adv-x="930" 
d="M263 -2q-14 -20 -32.5 -18t-26.5 18t7 36l488 669q15 20 33 18t26.5 -17t-5.5 -36zM239 282q-69 0 -108 43t-39 118q0 74 23 135.5t68 98t111 36.5q70 0 109 -43.5t39 -119.5q0 -74 -23 -135t-68.5 -97t-111.5 -36zM239 339q44 0 73 28.5t44 75.5t16 104q2 57 -20 82.5
t-58 25.5q-43 0 -72 -28.5t-44 -75.5t-17 -104t20.5 -82.5t57.5 -25.5zM670 -9q-70 0 -109 43.5t-39 118.5q0 74 23.5 135t68.5 97.5t110 36.5q70 0 109 -43.5t39 -118.5t-23 -136t-68 -97t-111 -36zM669 49q44 0 73 28.5t44 75.5t17 104q1 57 -21 82.5t-57 25.5
q-44 0 -73 -28.5t-44 -76t-17 -103.5q-1 -57 21 -82.5t57 -25.5z" />
    <glyph glyph-name="ampersand" unicode="&#x26;" horiz-adv-x="693" 
d="M253 -9q-94 0 -149 42.5t-55 114.5q0 55 27 99.5t69 78.5t87 59l18 10q-31 41 -44 76.5t-13 66.5q0 52 24 92t67 62t100 22q65 0 104 -36t39 -93q0 -46 -22.5 -82t-61 -65.5t-87.5 -57.5l136 -184q26 38 44.5 85t32.5 107q9 32 39 32q18 0 27 -10t4 -29
q-18 -75 -43 -131.5t-61 -106.5l73 -96q16 -20 6 -37t-35 -17q-9 0 -18 3t-16 11l-60 81q-45 -46 -103.5 -71.5t-128.5 -25.5zM380 651q-50 0 -80 -30t-30 -76q0 -28 10 -52.5t38 -63.5q75 43 107 76.5t32 75.5q0 32 -21 51t-56 19zM260 58q58 0 103 20.5t82 59.5l-156 207
l-15 -9q-62 -35 -103 -76.5t-41 -101.5q0 -100 130 -100z" />
    <glyph glyph-name="quotesingle" unicode="'" horiz-adv-x="221" 
d="M142 421q-13 0 -21 7.5t-6 26.5l18 216q1 17 13.5 29t33.5 12t34 -13.5t7 -37.5l-48 -210q-3 -16 -11.5 -23t-19.5 -7z" />
    <glyph glyph-name="parenleft" unicode="(" horiz-adv-x="317" 
d="M141 -157q-21 71 -31.5 140t-10.5 136q0 109 22.5 212.5t62.5 196t92 166.5q14 18 32.5 17t29 -15.5t-1.5 -36.5q-71 -127 -111 -264.5t-40 -295.5q0 -57 6.5 -116.5t17.5 -120.5q4 -26 -10.5 -38t-33 -7.5t-24.5 26.5z" />
    <glyph glyph-name="parenright" unicode=")" horiz-adv-x="317" 
d="M47 -166q-13 -19 -32 -18t-29 15t2 36q71 127 110.5 264.5t39.5 295.5q0 57 -6.5 116.5t-17.5 120.5q-4 26 11 38t33 7.5t24 -26.5q20 -71 31 -140t11 -136q0 -109 -22 -211.5t-62 -194.5t-93 -167z" />
    <glyph glyph-name="asterisk" unicode="*" horiz-adv-x="450" 
d="M174 368q-26 16 -7 48l59 93l-109 -4q-18 0 -28.5 7.5t-10.5 22.5q0 14 10.5 21.5t28.5 6.5l110 -4l-59 95q-21 32 6 48q12 7 24.5 1t20.5 -22l52 -100l52 100q8 16 20.5 22t25.5 -1q25 -17 5 -49l-59 -94l110 4q18 1 28.5 -6.5t10.5 -21.5q0 -15 -10.5 -22.5t-28.5 -7.5
l-109 4l58 -93q20 -33 -5 -47q-13 -9 -25.5 -3t-20.5 22l-52 100l-53 -100q-8 -16 -20 -22t-24 2z" />
    <glyph glyph-name="plus" unicode="+" horiz-adv-x="600" 
d="M268 33q-34 0 -27 39l29 184h-181q-33 0 -33 25q0 37 37 37h187l28 185q6 32 36 32q34 0 28 -38l-28 -179h180q34 0 34 -26q0 -36 -37 -36h-187l-30 -190q-5 -33 -36 -33z" />
    <glyph glyph-name="comma" unicode="," horiz-adv-x="228" 
d="M74 -97q-15 -14 -29 -10.5t-18 17t11 28.5q30 30 39 59q-22 3 -34.5 18t-12.5 36q0 24 14.5 39.5t39.5 15.5t38.5 -16.5t13.5 -45.5q0 -80 -62 -141z" />
    <glyph glyph-name="hyphen" unicode="-" horiz-adv-x="424" 
d="M104 233q-35 0 -35 26q0 17 9.5 29t28.5 12h222q35 0 35 -27q0 -17 -10 -28.5t-28 -11.5h-222z" />
    <glyph glyph-name="period" unicode="." horiz-adv-x="228" 
d="M85 -4q-25 0 -40 15.5t-15 39.5t15 39.5t40 15.5t40 -15.5t15 -39.5t-15 -39.5t-40 -15.5z" />
    <glyph glyph-name="slash" unicode="/" horiz-adv-x="283" 
d="M10 -37q-8 -16 -21 -19.5t-24.5 2.5t-16.5 18t3 27l352 735q8 16 20.5 19.5t24.5 -2t17 -18t-2 -28.5z" />
    <glyph glyph-name="zero" unicode="0" horiz-adv-x="600" 
d="M289 -9q-109 0 -165.5 66.5t-56.5 192.5q0 144 34 248t97 160t149 56q109 0 165 -66.5t56 -191.5q0 -145 -34 -249t-97 -160t-148 -56zM293 62q88 0 140.5 105.5t52.5 306.5q1 169 -143 169q-89 0 -141.5 -105.5t-52.5 -306.5q0 -169 144 -169z" />
    <glyph glyph-name="one" unicode="1" horiz-adv-x="600" 
d="M123 0q-39 0 -39 31q0 18 12 28.5t31 10.5h131l84 534l-103 -63q-18 -10 -31.5 -6t-20.5 16t-3.5 26.5t21.5 24.5l154 95q25 15 46 15q17 0 25 -11t5 -31l-95 -600h114q38 0 38 -30q0 -18 -11 -29t-32 -11h-326z" />
    <glyph glyph-name="two" unicode="2" horiz-adv-x="600" 
d="M99 0q-19 0 -30 8t-11 26q0 20 28 47l255 238q58 53 95 106t37 113q0 49 -33 76t-93 27q-40 0 -81 -14t-85 -45q-17 -12 -30 -8t-20 15.5t-4.5 26t17.5 25.5q44 34 100.5 53.5t115.5 19.5q90 0 143 -46.5t53 -119.5q0 -56 -22 -104t-59.5 -91.5t-84.5 -85.5l-215 -197
h300q38 0 38 -29q0 -41 -43 -41h-371z" />
    <glyph glyph-name="three" unicode="3" horiz-adv-x="600" 
d="M278 -9q-55 0 -113 14.5t-107 51.5q-15 11 -17.5 25.5t5 27t21 16.5t28.5 -7q44 -33 89 -44t94 -11q67 0 112.5 38t45.5 106q0 52 -35 83t-101 31h-64q-39 0 -39 31q0 18 12 29t31 11h66q46 0 83 17t59.5 48.5t22.5 75.5q0 49 -34.5 78t-90.5 29q-43 0 -88 -14t-84 -43
q-16 -11 -29 -8t-20 14.5t-4.5 26t18.5 25.5q46 36 103 54t112 18q63 0 107 -23t67.5 -61.5t23.5 -86.5q1 -67 -39.5 -116.5t-105.5 -67.5q54 -18 82.5 -59t28.5 -96q0 -62 -31.5 -110t-85.5 -75.5t-123 -27.5z" />
    <glyph glyph-name="four" unicode="4" horiz-adv-x="600" 
d="M380 -7q-20 0 -29 12t-6 32l18 114h-281q-22 0 -33 9.5t-11 23.5q0 13 6 24.5t19 26.5l382 450q20 25 47 25q18 0 27.5 -12.5t5.5 -34.5l-70 -442h73q35 0 35 -28q0 -19 -10 -30.5t-32 -11.5h-76l-19 -118q-6 -40 -46 -40zM373 221l56 353l-298 -353h242z" />
    <glyph glyph-name="five" unicode="5" horiz-adv-x="600" 
d="M287 -9q-51 0 -105 14.5t-101 52.5q-15 11 -17 26t5.5 27t20.5 15.5t28 -7.5q43 -33 83 -44t86 -11q50 0 90 22t63 60.5t23 87.5q0 61 -35.5 98.5t-96.5 37.5q-44 0 -80.5 -17.5t-68.5 -50.5q-10 -9 -19.5 -14t-21.5 -5q-16 0 -25.5 9.5t-6.5 28.5l56 347q6 37 43 37h335
q38 0 38 -30q0 -40 -43 -40h-297l-40 -250q31 27 71.5 41.5t81.5 14.5q52 0 95.5 -22.5t69.5 -67t26 -110.5q0 -75 -35.5 -131.5t-94 -87.5t-128.5 -31z" />
    <glyph glyph-name="six" unicode="6" horiz-adv-x="600" 
d="M306 -9q-106 0 -168.5 70.5t-62.5 190.5q0 97 21 181t62 147t101.5 98.5t140.5 35.5q50 0 98.5 -19.5t84.5 -55.5q13 -12 13.5 -26.5t-7.5 -26t-21.5 -13.5t-28.5 11q-59 57 -145 57q-68 0 -119 -39.5t-82 -113.5t-38 -176q24 62 79.5 96t117.5 34q56 0 100 -26.5
t68.5 -71.5t24.5 -100q0 -72 -31 -129.5t-85 -90.5t-123 -33zM302 61q49 0 86 23.5t57.5 63.5t20.5 90q0 59 -38.5 96.5t-97.5 37.5q-49 0 -86 -23.5t-57.5 -63.5t-20.5 -90q0 -59 39 -96.5t97 -37.5z" />
    <glyph glyph-name="seven" unicode="7" horiz-adv-x="600" 
d="M136 -7q-25 0 -33.5 18.5t7.5 42.5l388 580h-331q-40 0 -40 31q0 40 42 40h391q43 0 43 -32q0 -13 -6 -25t-16 -27l-398 -599q-20 -29 -47 -29z" />
    <glyph glyph-name="eight" unicode="8" horiz-adv-x="600" 
d="M270 -9q-68 0 -120 21t-81.5 59t-29.5 91q0 50 20.5 92.5t57 71t82.5 37.5q-43 18 -67 55.5t-24 88.5q0 66 33.5 112t92 70t132.5 24q64 0 112.5 -20.5t75.5 -58t27 -88.5q0 -67 -39.5 -118.5t-101.5 -69.5q48 -15 77 -54t29 -95q0 -70 -35.5 -119t-98 -74t-142.5 -25z
M325 391q78 0 127.5 39.5t49.5 107.5q0 52 -37.5 79.5t-101.5 27.5q-82 0 -129 -37t-47 -107q0 -53 37.5 -81.5t100.5 -28.5zM274 59q89 0 141 39t52 115q0 55 -42.5 82.5t-111.5 27.5q-89 0 -142 -38.5t-53 -113.5q0 -56 43 -84t113 -28z" />
    <glyph glyph-name="nine" unicode="9" horiz-adv-x="600" 
d="M238 -9q-49 0 -99 19.5t-87 55.5q-14 12 -14.5 26.5t7.5 25.5t21.5 13.5t28.5 -10.5q61 -57 149 -57q65 0 115.5 39.5t81.5 113t39 174.5q-25 -60 -80 -94t-117 -34q-57 0 -100.5 26.5t-68.5 71.5t-25 100q0 72 31 129.5t85 90.5t123 33q107 0 169 -70t62 -191
q0 -95 -20 -179t-60.5 -147.5t-100.5 -99.5t-140 -36zM304 333q49 0 86 23.5t57.5 64t20.5 89.5q0 59 -38.5 97t-97.5 38q-49 0 -85.5 -24t-57 -64t-20.5 -90q0 -59 38.5 -96.5t96.5 -37.5z" />
    <glyph glyph-name="colon" unicode=":" horiz-adv-x="228" 
d="M146 380q-25 0 -40 15.5t-15 39.5q0 25 15 40t40 15t39.5 -15t14.5 -40q0 -24 -14.5 -39.5t-39.5 -15.5zM85 -4q-25 0 -40 15.5t-15 39.5t15 39.5t40 15.5t40 -15.5t15 -39.5t-15 -39.5t-40 -15.5z" />
    <glyph glyph-name="semicolon" unicode=";" horiz-adv-x="228" 
d="M146 380q-25 0 -40 15.5t-15 39.5q0 25 15 40t40 15t39.5 -15t14.5 -40q0 -24 -14.5 -39.5t-39.5 -15.5zM74 -97q-15 -14 -29 -10.5t-18 17t11 28.5q30 30 39 59q-22 3 -34.5 18t-12.5 36q0 24 14.5 39.5t39.5 15.5t38.5 -16.5t13.5 -45.5q0 -80 -62 -141z" />
    <glyph glyph-name="less" unicode="&#x3c;" horiz-adv-x="600" 
d="M480 50l-388 189q-36 17 -36 43q0 16 10 28t27 19l455 193q16 6 27 0.5t15.5 -17.5t0 -24t-19.5 -18l-431 -180l367 -177q20 -9 20 -26.5t-13 -28.5t-34 -1z" />
    <glyph glyph-name="equal" unicode="=" horiz-adv-x="600" 
d="M105 356q-34 0 -34 25q0 37 37 37h432q33 0 33 -26q0 -36 -37 -36h-431zM73 157q-33 0 -33 25q0 36 37 36h432q33 0 33 -25q0 -36 -37 -36h-432z" />
    <glyph glyph-name="greater" unicode="&#x3e;" horiz-adv-x="600" 
d="M66 53q-21 -9 -33.5 3t-11 29t21.5 26l430 179l-366 178q-20 9 -20.5 26.5t12.5 29t33 1.5l390 -190q36 -17 36 -43q0 -32 -37 -47z" />
    <glyph glyph-name="question" unicode="?" horiz-adv-x="443" 
d="M201 180q-15 0 -21.5 10t-3.5 26q5 34 15.5 63.5t33 59.5t63.5 67q52 45 74.5 76.5t22.5 72.5q0 37 -24.5 61.5t-77.5 24.5q-44 0 -83 -14.5t-75 -40.5q-24 -15 -40 -6t-17 29t21 36q42 34 97.5 51.5t108.5 17.5q55 0 94 -20.5t59 -54t20 -74.5q0 -59 -35.5 -107
t-92.5 -92q-56 -45 -78.5 -83t-31.5 -75q-4 -14 -10 -21t-19 -7zM177 -4q-25 0 -40.5 15.5t-15.5 39.5t15.5 39.5t40.5 15.5q24 0 39 -15.5t15 -39.5t-15 -39.5t-39 -15.5z" />
    <glyph glyph-name="at" unicode="@" horiz-adv-x="946" 
d="M495 -163q-127 0 -222.5 53.5t-148.5 151.5t-53 231q0 98 32 179t90 139.5t138 90.5t177 32q116 0 203 -46.5t136 -129.5t49 -194q0 -87 -24 -151t-67 -99t-100 -35q-49 0 -79 23.5t-36 65.5q-27 -43 -67 -66t-84 -23q-77 0 -119.5 48.5t-42.5 133.5q0 73 28 130.5
t77 90.5t111 33q96 0 127 -78l7 42q6 32 38 32q35 0 28 -37l-39 -227q-5 -26 -5 -47q0 -67 61 -67q57 0 93 63.5t36 167.5q0 95 -41.5 165t-116 109t-173.5 39q-112 0 -196 -48t-130.5 -134.5t-46.5 -201.5q0 -119 44 -204t125 -130.5t191 -45.5q74 0 133.5 21t101.5 57
q19 14 33.5 7.5t16.5 -22.5t-15 -31q-48 -42 -117 -65t-153 -23zM449 117q44 0 79 26.5t55 73.5t20 108q0 112 -102 112q-45 0 -80 -25.5t-55 -69.5t-20 -101q0 -60 27 -92t76 -32z" />
    <glyph glyph-name="A" unicode="A" horiz-adv-x="729" 
d="M40 -7q-23 0 -33.5 15.5t2.5 38.5l382 636q17 29 48 29q33 0 43 -33l176 -630q8 -29 -2.5 -42.5t-28.5 -13.5q-34 0 -44 39l-39 148h-368l-94 -161q-15 -26 -42 -26zM427 609l-211 -360h309l-96 360h-2z" />
    <glyph glyph-name="B" unicode="B" horiz-adv-x="676" 
d="M98 0q-23 0 -34 13t-8 36l98 615q6 41 48 41h226q110 0 162 -45t52 -120q0 -70 -39 -117.5t-105 -65.5q51 -17 80 -56t29 -93q0 -102 -65 -155t-184 -53h-260zM191 390h201q78 0 123.5 36.5t45.5 105.5q0 52 -35.5 79.5t-108.5 27.5h-187zM139 66h219q167 0 167 145
q0 56 -37 84.5t-106 28.5h-202z" />
    <glyph glyph-name="C" unicode="C" horiz-adv-x="673" 
d="M382 -9q-90 0 -158.5 34.5t-107.5 104.5t-39 177q0 87 25 161t72.5 129t114.5 86t152 31q129 0 212 -72q15 -12 16 -27.5t-7 -28t-21.5 -16.5t-28.5 8q-39 33 -81.5 47t-92.5 14q-85 0 -146 -43t-94 -117.5t-33 -169.5q0 -130 59.5 -186.5t165.5 -56.5q46 0 86 13.5
t80 44.5q16 11 29.5 7.5t21 -16t5 -27t-17.5 -26.5q-46 -36 -100 -53.5t-112 -17.5z" />
    <glyph glyph-name="D" unicode="D" horiz-adv-x="742" 
d="M98 0q-23 0 -34.5 13t-7.5 36l98 615q6 41 48 41h166q160 0 247 -77.5t87 -217.5q0 -85 -24 -159t-73 -130.5t-124 -88.5t-179 -32h-204zM142 70h162q84 0 143 26.5t96 73.5t54.5 108.5t17.5 130.5q0 110 -62.5 168t-185.5 58h-135z" />
    <glyph glyph-name="E" unicode="E" horiz-adv-x="583" 
d="M98 0q-49 0 -42 49l98 615q6 41 48 41h369q37 0 37 -27q0 -21 -11.5 -31.5t-29.5 -10.5h-337l-39 -244h310q36 0 36 -27q0 -21 -11.5 -31.5t-28.5 -10.5h-317l-41 -254h331q37 0 37 -28q0 -21 -11.5 -31t-29.5 -10h-368z" />
    <glyph glyph-name="F" unicode="F" horiz-adv-x="548" 
d="M94 -7q-46 0 -39 49l99 622q6 41 48 41h355q37 0 37 -28q0 -41 -41 -41h-320l-40 -246h294q37 0 37 -28q0 -41 -41 -41h-300l-46 -286q-7 -42 -43 -42z" />
    <glyph glyph-name="G" unicode="G" horiz-adv-x="726" 
d="M391 -9q-147 0 -231 78t-84 227q0 124 44.5 218t127.5 147t198 53q64 0 120 -18t94 -51q16 -13 18 -29t-6 -29t-22 -16.5t-31 9.5q-36 31 -80.5 45.5t-97.5 14.5q-87 0 -149 -43t-95.5 -120t-33.5 -179q0 -119 60.5 -176.5t176.5 -57.5q43 0 79.5 7t70.5 18l34 213h-143
q-38 0 -38 28q0 18 11.5 27.5t29.5 9.5h180q19 0 29 -11t6 -31l-41 -261q-5 -31 -30 -40q-39 -15 -92 -24t-105 -9z" />
    <glyph glyph-name="H" unicode="H" horiz-adv-x="761" 
d="M90 -7q-43 0 -35 50l100 627q6 42 46 42q43 0 35 -50l-43 -269h422l45 277q6 42 46 42q43 0 35 -50l-100 -627q-7 -42 -46 -42q-43 0 -35 50l44 279h-422l-46 -287q-6 -42 -46 -42z" />
    <glyph glyph-name="I" unicode="I" horiz-adv-x="257" 
d="M91 -7q-44 0 -36 50l100 627q6 42 46 42q43 0 35 -50l-100 -627q-6 -42 -45 -42z" />
    <glyph glyph-name="J" unicode="J" horiz-adv-x="324" 
d="M-6 -6q-19 -2 -30 7t-11 27q1 33 35 36l32 2q107 8 127 130l75 477q6 39 46 39q20 0 29.5 -12t5.5 -34l-76 -480q-14 -87 -61 -134.5t-141 -55.5z" />
    <glyph glyph-name="K" unicode="K" horiz-adv-x="625" 
d="M91 -7q-20 0 -30 12.5t-6 36.5l100 629q7 41 46 41q20 0 29.5 -12.5t5.5 -35.5l-44 -279h2l376 308q11 10 20 14.5t22 4.5q16 0 25.5 -10t9 -23.5t-13.5 -24.5l-362 -298l286 -306q17 -17 7.5 -37t-34.5 -20q-14 0 -23.5 6t-21.5 20l-299 315h-2l-47 -301q-7 -40 -46 -40
z" />
    <glyph glyph-name="L" unicode="L" horiz-adv-x="543" 
d="M95 0q-46 0 -39 46l100 628q5 38 44 38q44 0 37 -46l-94 -594h321q38 0 38 -29q0 -22 -12 -32.5t-31 -10.5h-364z" />
    <glyph glyph-name="M" unicode="M" horiz-adv-x="856" 
d="M91 -2q-40 0 -34 42l101 635q6 37 41 37q16 0 25 -7.5t15 -24.5l178 -486l339 493q17 25 45 25q39 0 33 -43l-101 -635q-6 -36 -40 -36q-18 0 -27.5 11t-6.5 31l81 511l-296 -429q-14 -20 -35 -20q-26 0 -36 27l-159 427l-83 -522q-6 -36 -40 -36z" />
    <glyph glyph-name="N" unicode="N" horiz-adv-x="739" 
d="M88 -7q-18 0 -27 12t-6 34l101 637q6 36 39 36q16 0 24 -6.5t17 -20.5l321 -556l87 545q5 38 44 38q38 0 31 -46l-101 -636q-6 -37 -36 -37q-16 0 -25.5 7t-18.5 21l-322 556l-86 -546q-6 -38 -42 -38z" />
    <glyph glyph-name="O" unicode="O" horiz-adv-x="767" 
d="M368 -9q-88 0 -154 35t-102 102.5t-36 165.5q0 119 42 214t121.5 150.5t194.5 55.5q89 0 154.5 -35t101.5 -102.5t36 -164.5q0 -120 -42 -215t-121.5 -150.5t-194.5 -55.5zM370 64q87 0 147 45.5t91 124t31 177.5q0 116 -55.5 173t-152.5 57q-86 0 -146 -45.5t-91 -123.5
t-31 -177q0 -117 55.5 -174t151.5 -57z" />
    <glyph glyph-name="P" unicode="P" horiz-adv-x="633" 
d="M91 -7q-20 0 -29.5 12.5t-6.5 35.5l99 624q7 40 47 40h214q108 0 167 -48t59 -142q0 -108 -67.5 -171t-195.5 -63h-202l-40 -247q-6 -41 -45 -41zM187 350h195q87 0 132 41t45 119q0 66 -38 96.5t-113 30.5h-176z" />
    <glyph glyph-name="Q" unicode="Q" horiz-adv-x="767" 
d="M583 -140q9 -20 3 -34t-20 -19.5t-29.5 0t-23.5 23.5l-46 101q-27 60 -111 60h1q-128 4 -204.5 82t-76.5 221q0 119 42 214t121.5 150.5t194.5 55.5q89 0 154.5 -35t101.5 -102.5t36 -164.5q0 -98 -28 -180t-82 -139.5t-131 -83.5q36 -16 60 -67zM370 64q87 0 147 45.5
t91 124t31 177.5q0 116 -55.5 173t-152.5 57q-86 0 -146 -45.5t-91 -123.5t-31 -177q0 -117 55.5 -174t151.5 -57z" />
    <glyph glyph-name="R" unicode="R" horiz-adv-x="669" 
d="M90 -7q-19 0 -28.5 13t-5.5 36l98 622q7 41 48 41h210q114 0 171.5 -51t57.5 -139q0 -92 -54 -145t-140 -65q23 -11 40.5 -33t29.5 -54l65 -170q10 -26 2 -40.5t-34 -14.5q-29 0 -43 36l-73 190q-16 43 -42.5 61t-75.5 18h-138l-41 -264q-7 -41 -47 -41zM189 363h200
q80 0 125 38t45 109q0 63 -37.5 95t-118.5 32h-171z" />
    <glyph glyph-name="S" unicode="S" horiz-adv-x="615" 
d="M297 -9q-67 0 -131.5 16t-114.5 53q-15 10 -18 24.5t4 27.5t20.5 17t31.5 -7q48 -34 101.5 -46t113.5 -12q81 0 130 33.5t49 91.5q0 40 -29 68.5t-102 44.5l-103 25q-70 17 -112 58t-42 118q0 65 35.5 112t95.5 73t132 26q58 0 119 -17t107 -56q13 -10 15.5 -25
t-4.5 -27.5t-21 -15.5t-32 10q-39 31 -87.5 44.5t-98.5 13.5q-51 0 -91 -16.5t-63.5 -46t-23.5 -70.5q0 -51 25.5 -75t75.5 -37l104 -24q94 -22 138.5 -66.5t44.5 -107.5q0 -68 -36.5 -114t-97.5 -69.5t-135 -23.5z" />
    <glyph glyph-name="T" unicode="T" horiz-adv-x="602" 
d="M263 -7q-20 0 -29 13t-5 36l93 592h-219q-39 0 -39 30q0 19 12 30t31 11h528q39 0 39 -29q0 -42 -43 -42h-227l-95 -600q-6 -41 -46 -41z" />
    <glyph glyph-name="U" unicode="U" horiz-adv-x="728" 
d="M335 -9q-89 0 -149.5 34t-86 102t-9.5 170l60 376q6 39 46 39q43 0 35 -47l-59 -375q-36 -226 167 -226q98 0 154.5 50t74.5 159l64 400q6 39 45 39q20 0 29.5 -12t5.5 -35l-62 -396q-22 -138 -98 -208t-217 -70z" />
    <glyph glyph-name="V" unicode="V" horiz-adv-x="688" 
d="M306 -7q-37 0 -48 40l-171 621q-7 23 4 37t32 14q32 0 42 -37l152 -563l336 570q18 30 48 30q24 0 32.5 -16.5t-3.5 -37.5l-373 -626q-10 -17 -21.5 -24.5t-29.5 -7.5z" />
    <glyph glyph-name="W" unicode="W" horiz-adv-x="1101" 
d="M273 -7q-34 0 -42 42l-119 626q-5 23 6 37t32 14q33 0 40 -39l101 -552l282 558q17 33 48 33q30 0 38 -43l103 -554l284 566q15 31 44 31q24 0 32.5 -16t-2.5 -39l-321 -631q-17 -33 -51 -33t-42 42l-102 544l-281 -553q-9 -17 -20.5 -25t-29.5 -8z" />
    <glyph glyph-name="X" unicode="X" horiz-adv-x="650" 
d="M43 -7q-24 0 -33 20t10 41l276 310l-168 288q-14 24 -4 42t35 18q15 0 23.5 -7t18.5 -24l150 -263l234 269q22 25 47 25q23 0 32.5 -19.5t-8.5 -40.5l-262 -296l177 -303q14 -23 3.5 -41.5t-34.5 -18.5q-16 0 -24.5 7t-18.5 24l-160 277l-248 -283q-22 -25 -46 -25z" />
    <glyph glyph-name="Y" unicode="Y" horiz-adv-x="596" 
d="M258 -7q-41 0 -34 48l47 292l-181 319q-13 24 -4 42t34 18q16 0 25 -7t18 -24l155 -275l249 281q12 14 22 19.5t24 5.5q23 0 32 -19.5t-10 -40.5l-282 -318l-48 -300q-6 -41 -47 -41z" />
    <glyph glyph-name="Z" unicode="Z" horiz-adv-x="589" 
d="M50 0q-27 0 -34 25t19 55l474 554h-363q-37 0 -37 29q0 21 12 31.5t30 10.5h431q34 0 39.5 -25t-20.5 -54l-476 -555h379q38 0 38 -28q0 -22 -12 -32.5t-30 -10.5h-450z" />
    <glyph glyph-name="bracketleft" unicode="[" horiz-adv-x="315" 
d="M93 -180q-21 0 -33.5 14.5t-9.5 35.5l127 802q3 14 13.5 23.5t25.5 9.5h126q41 0 41 -30q0 -34 -39 -34h-91l-120 -757h90q17 0 23.5 -8t6.5 -19q0 -16 -10 -26.5t-29 -10.5h-121z" />
    <glyph glyph-name="backslash" unicode="\" horiz-adv-x="283" 
d="M186 -32l-122 743q-3 16 5.5 26t21 13t23.5 -4t14 -25l123 -744q3 -17 -5.5 -27t-21.5 -12t-24 5t-14 25z" />
    <glyph glyph-name="bracketright" unicode="]" horiz-adv-x="315" 
d="M-21 -180q-40 0 -40 30q0 34 38 34h91l120 757h-89q-18 0 -24.5 8t-6.5 19q0 16 10 26.5t29 10.5h121q21 0 33.5 -14.5t9.5 -35.5l-127 -802q-2 -14 -13 -23.5t-26 -9.5h-126z" />
    <glyph glyph-name="asciicircum" unicode="^" horiz-adv-x="600" 
d="M77 133q-21 0 -26.5 13.5t5.5 32.5l261 428q9 16 19.5 21.5t25.5 5.5q29 0 38 -34l125 -423q6 -21 -2 -32.5t-26 -11.5q-15 0 -21.5 8.5t-10.5 20.5l-113 388l-239 -394q-6 -10 -14.5 -16.5t-21.5 -6.5z" />
    <glyph glyph-name="underscore" unicode="_" horiz-adv-x="500" 
d="M1 -53q-31 0 -31 23q0 15 10 22.5t23 7.5h411q30 0 30 -23q0 -15 -10 -22.5t-23 -7.5h-410z" />
    <glyph glyph-name="grave" unicode="`" horiz-adv-x="500" 
d="M263 558l-107 153q-11 17 -7 30.5t17 19.5t28 2t25 -23l90 -156q8 -17 0.5 -28.5t-21.5 -12.5t-25 15z" />
    <glyph glyph-name="a" unicode="a" horiz-adv-x="530" 
d="M199 -9q-42 0 -78.5 19t-58.5 52t-22 75q0 77 65.5 111t209.5 34h69l5 30q10 57 -15 87.5t-88 30.5q-36 0 -69.5 -7t-66.5 -26q-16 -9 -29 -5t-18.5 15.5t-0.5 24.5t24 23q38 21 82 30.5t87 9.5q102 0 143 -56t26 -149l-41 -257q-6 -40 -44 -40q-39 0 -32 46l6 37
q-25 -43 -67 -64t-87 -21zM219 52q54 0 97 36.5t54 101.5l6 39h-50q-77 0 -121.5 -8t-63.5 -27t-19 -52q0 -44 29 -67t68 -23z" />
    <glyph glyph-name="b" unicode="b" horiz-adv-x="583" 
d="M295 -9q-55 0 -99 26t-64 80l-9 -63q-6 -41 -45 -41q-19 0 -28.5 12.5t-5.5 35.5l100 630q6 41 46 41q19 0 28.5 -12.5t5.5 -35.5l-41 -255q28 40 71 63t97 23q85 0 136.5 -56t51.5 -152q0 -80 -28.5 -147.5t-83 -108t-132.5 -40.5zM285 56q56 0 94 31t58 82.5t20 114.5
q0 72 -35 109t-96 37q-56 0 -94 -30.5t-58 -82.5t-20 -115q0 -71 35 -108.5t96 -37.5z" />
    <glyph glyph-name="c" unicode="c" horiz-adv-x="463" 
d="M258 -9q-108 0 -160.5 60t-52.5 156q0 54 15 105t47 92.5t81 66t117 24.5q38 0 73.5 -10.5t61.5 -27.5q18 -11 22 -25t-1 -26t-17 -16t-26 5q-48 34 -110 34q-65 0 -104.5 -32.5t-57.5 -83.5t-18 -105q0 -68 32.5 -109.5t107.5 -41.5q23 0 49.5 7.5t52.5 24.5
q17 11 31 1.5t15 -27.5t-18 -31q-27 -19 -66 -30t-74 -11z" />
    <glyph glyph-name="d" unicode="d" horiz-adv-x="583" 
d="M231 -9q-84 0 -135.5 56t-51.5 152q0 81 28.5 148.5t83 107.5t132.5 40q55 0 98.5 -25.5t63.5 -78.5l45 282q5 39 46 39t33 -47l-100 -631q-6 -41 -46 -41q-19 0 -27.5 13t-4.5 36l7 40q-28 -42 -72 -66.5t-100 -24.5zM257 56q56 0 94 31t58 82.5t20 114.5q0 72 -35 109
t-96 37q-56 0 -94 -30.5t-58 -82.5t-20 -115q0 -71 35 -108.5t96 -37.5z" />
    <glyph glyph-name="e" unicode="e" horiz-adv-x="532" 
d="M270 -9q-104 0 -165 57.5t-61 157.5q0 79 32 144.5t90 105t138 39.5q76 0 120 -34.5t60 -90t9 -116.5q-3 -17 -9.5 -22.5t-21.5 -5.5h-339q-7 -78 33 -124t118 -46q36 0 69.5 8.5t64.5 29.5q22 14 36 5.5t14 -27t-20 -32.5q-34 -24 -80 -36.5t-88 -12.5zM303 435
q-53 0 -88 -22.5t-55.5 -58.5t-28.5 -75h296q6 66 -22.5 111t-101.5 45z" />
    <glyph glyph-name="f" unicode="f" horiz-adv-x="333" 
d="M103 -7q-19 0 -28 12.5t-5 35.5l61 382h-60q-32 0 -32 25q0 38 39 38h62l6 38q13 81 64 128.5t141 52.5l31 2q23 2 30 -13.5t0.5 -31.5t-24.5 -18l-30 -2q-59 -4 -90.5 -33.5t-40.5 -86.5l-6 -36h105q32 0 32 -24q0 -39 -39 -39h-107l-62 -390q-7 -40 -47 -40z" />
    <glyph glyph-name="g" unicode="g" horiz-adv-x="586" 
d="M248 -189q-58 0 -108.5 16t-90.5 42q-14 9 -16 22t4.5 24t19 15t27.5 -5q35 -23 72 -36t83 -13q64 0 104 32.5t51 100.5l15 93q-26 -43 -70.5 -67t-100.5 -24q-88 0 -141 54t-53 145q0 75 29 140t84 105t133 40q56 0 100 -25.5t64 -77.5l9 62q6 39 47 39q39 0 32 -47
l-69 -433q-32 -202 -225 -202zM259 77q56 0 95 30t59 79.5t20 107.5q0 64 -35 100t-98 36q-57 0 -95.5 -30.5t-58.5 -79.5t-20 -106q0 -66 35 -101.5t98 -35.5z" />
    <glyph glyph-name="h" unicode="h" horiz-adv-x="568" 
d="M77 -7q-19 0 -28 13t-5 36l99 629q6 41 47 41q19 0 28 -12.5t5 -34.5l-41 -259q27 43 71 66t102 23q81 0 122.5 -49t24.5 -152l-40 -260q-6 -41 -47 -41q-19 0 -28 12.5t-6 35.5l40 253q22 135 -90 135q-73 0 -116 -45t-55 -120l-36 -230q-6 -41 -47 -41z" />
    <glyph glyph-name="i" unicode="i" horiz-adv-x="232" 
d="M175 603q-49 0 -46 45q3 54 61 54q50 0 46 -45q-4 -54 -61 -54zM76 -7q-19 0 -27.5 12.5t-5.5 35.5l66 412q6 40 46 40q19 0 28 -12.5t5 -34.5l-65 -413q-7 -40 -47 -40z" />
    <glyph glyph-name="j" unicode="j" horiz-adv-x="236" 
d="M175 603q-48 0 -46 45q4 54 62 54q50 0 46 -45q-4 -54 -62 -54zM-83 -191q-17 -1 -26 8.5t-9 22.5t7.5 22.5t23.5 10.5q51 1 83.5 27.5t41.5 84.5l74 468q7 40 46 40q19 0 28 -12.5t6 -34.5l-73 -456q-14 -92 -63 -135t-139 -46z" />
    <glyph glyph-name="k" unicode="k" horiz-adv-x="500" 
d="M77 -7q-41 0 -33 47l100 633q5 39 46 39q19 0 28 -13t5 -35l-62 -394h2l240 201q13 11 23 16.5t24 5.5q23 0 29 -20t-14 -38l-222 -188l182 -195q18 -20 9 -39.5t-32 -19.5q-16 0 -26.5 7.5t-24.5 23.5l-194 206h-2l-32 -198q-5 -39 -46 -39z" />
    <glyph glyph-name="l" unicode="l" horiz-adv-x="296" 
d="M186 -9q-72 0 -104.5 42.5t-19.5 125.5l82 513q6 40 46 40q19 0 28 -12.5t5 -35.5l-80 -505q-8 -53 8 -76t57 -23q14 0 21.5 1.5t12.5 1.5q8 0 12 -5t4 -19q0 -19 -9 -29.5t-23 -14.5q-7 -2 -19 -3t-21 -1z" />
    <glyph glyph-name="m" unicode="m" horiz-adv-x="856" 
d="M78 -7q-40 0 -33 47l66 414q6 39 45 39q19 0 27.5 -12t5.5 -34l-7 -44q28 45 69 68.5t90 23.5q53 0 88 -26t47 -76q26 49 70 75.5t104 26.5q76 0 115 -49t23 -152l-41 -262q-6 -39 -46 -39q-41 0 -34 47l40 258q21 131 -81 131q-61 0 -101 -44t-52 -121l-37 -232
q-5 -39 -46 -39q-19 0 -28.5 12t-5.5 35l41 258q21 131 -81 131q-61 0 -101.5 -44t-52.5 -121l-36 -232q-6 -39 -48 -39z" />
    <glyph glyph-name="n" unicode="n" horiz-adv-x="568" 
d="M77 -6q-19 0 -27.5 13t-5.5 35l65 411q6 40 47 40q18 0 26.5 -11.5t4.5 -33.5l-7 -45q27 44 71.5 68t103.5 24q81 0 122.5 -49t24.5 -152l-41 -261q-6 -39 -46 -39q-19 0 -28 12.5t-6 34.5l40 253q22 135 -90 135q-73 0 -116 -45t-55 -120l-36 -230q-6 -40 -47 -40z" />
    <glyph glyph-name="o" unicode="o" horiz-adv-x="556" 
d="M255 -9q-98 0 -154.5 57.5t-56.5 156.5q0 82 32 148t89.5 104t135.5 38q98 0 154 -57.5t56 -156.5q0 -82 -31.5 -147.5t-89.5 -104t-135 -38.5zM258 56q55 0 93.5 31t58 82.5t19.5 114.5q0 72 -34.5 109t-96.5 37q-55 0 -93.5 -30.5t-58.5 -82.5t-20 -115
q0 -71 35 -108.5t97 -37.5z" />
    <glyph glyph-name="p" unicode="p" horiz-adv-x="583" 
d="M48 -187q-19 0 -28 12.5t-5 34.5l94 592q6 41 46 41t32 -47l-6 -41q28 43 71.5 66.5t98.5 23.5q85 0 136.5 -56t51.5 -152q0 -80 -28.5 -147.5t-83 -108t-132.5 -40.5q-54 0 -98 25.5t-64 77.5l-39 -242q-6 -39 -46 -39zM285 56q56 0 94 31t58 82.5t20 114.5
q0 72 -35 109t-96 37q-56 0 -94 -30.5t-58 -82.5t-20 -115q0 -71 35 -108.5t96 -37.5z" />
    <glyph glyph-name="q" unicode="q" horiz-adv-x="583" 
d="M399 -187q-40 0 -33 47l34 219q-28 -41 -71 -64.5t-97 -23.5q-85 0 -136.5 56t-51.5 152q0 81 28.5 148.5t83 107.5t133.5 40q55 0 99 -26.5t63 -80.5l10 65q7 40 45 40q19 0 28 -12.5t6 -34.5l-94 -592q-7 -41 -47 -41zM257 56q56 0 94 31t58 82.5t20 114.5
q0 72 -35 109t-96 37q-56 0 -94 -30.5t-58 -82.5t-20 -115q0 -71 35 -108.5t96 -37.5z" />
    <glyph glyph-name="r" unicode="r" horiz-adv-x="358" 
d="M77 -7q-41 0 -33 47l65 414q6 39 46 39q18 0 27.5 -12t5.5 -34l-7 -41q26 43 70 66t96 24q21 1 29.5 -5.5t8.5 -22.5q0 -21 -10 -30.5t-32 -12.5l-20 -1q-81 -8 -115.5 -48.5t-45.5 -107.5l-38 -236q-5 -39 -47 -39z" />
    <glyph glyph-name="s" unicode="s" horiz-adv-x="481" 
d="M223 -9q-48 0 -91.5 11t-75.5 31q-15 9 -19 22.5t1.5 25t18 15t28.5 -5.5q31 -19 66.5 -28t72.5 -9q54 0 84.5 21.5t30.5 60.5q0 50 -65 65l-94 23q-50 12 -78.5 43.5t-28.5 77.5q0 65 53.5 108t145.5 43q40 0 81 -11.5t68 -32.5q20 -14 19.5 -32t-15 -26.5t-35.5 4.5
q-51 36 -121 36q-56 0 -88 -23t-32 -62q0 -24 14.5 -41.5t45.5 -24.5l95 -23q53 -13 82.5 -42.5t29.5 -76.5q0 -70 -53.5 -109.5t-139.5 -39.5z" />
    <glyph glyph-name="t" unicode="t" horiz-adv-x="350" 
d="M238 -9q-85 0 -124.5 48t-26.5 128l41 256h-62q-36 0 -36 27q0 18 11.5 27t31.5 9h65l18 118q6 38 45 38q43 0 35 -46l-17 -110h120q36 0 36 -26q0 -17 -11 -27t-29 -10h-127l-39 -248q-10 -61 12.5 -88t69.5 -27q21 0 33 4t20 4q10 0 15 -5.5t5 -19.5q0 -20 -6.5 -29
t-19.5 -14q-26 -9 -60 -9z" />
    <glyph glyph-name="u" unicode="u" horiz-adv-x="561" 
d="M211 -9q-79 0 -120.5 49t-24.5 153l41 262q6 38 45 38q20 0 29.5 -12t5.5 -33l-40 -255q-21 -135 88 -135q69 0 112 45t54 120l36 232q6 38 45 38q42 0 36 -44l-66 -417q-6 -39 -44 -39q-41 0 -34 44l6 45q-27 -44 -70.5 -67.5t-98.5 -23.5z" />
    <glyph glyph-name="v" unicode="v" horiz-adv-x="515" 
d="M221 -7q-38 0 -50 42l-109 400q-7 26 3.5 42t34.5 16q16 0 25.5 -8.5t14.5 -28.5l91 -364l213 373q16 28 44 28q24 0 32 -16t-5 -38l-243 -413q-19 -33 -51 -33z" />
    <glyph glyph-name="w" unicode="w" horiz-adv-x="841" 
d="M205 -7q-17 0 -29.5 10t-16.5 31l-84 400q-6 26 4 42.5t32 16.5q17 0 25 -8.5t12 -28.5l70 -360l192 369q15 28 45 28q15 0 26 -8.5t15 -26.5l71 -366l191 371q16 30 45 30q24 0 31 -15.5t-4 -36.5l-219 -415q-17 -33 -52 -33q-38 0 -47 41l-70 343l-184 -350
q-18 -34 -53 -34z" />
    <glyph glyph-name="x" unicode="x" horiz-adv-x="525" 
d="M45 -7q-25 0 -32.5 18.5t8.5 35.5l196 205l-118 183q-16 25 -5 41.5t31 16.5q26 0 43 -26l104 -164l155 168q11 12 20 17t24 5q25 0 32.5 -18t-8.5 -35l-182 -193l126 -195q17 -25 5.5 -42t-31.5 -17q-27 0 -43 26l-112 175l-170 -179q-11 -11 -20 -16.5t-23 -5.5z" />
    <glyph glyph-name="y" unicode="y" horiz-adv-x="514" 
d="M119 -187q-24 0 -31 16.5t6 38.5l83 140l-115 428q-7 25 3.5 41t33.5 16q18 0 26 -8.5t14 -28.5l90 -364l214 372q16 29 44 29q24 0 32.5 -16.5t-4.5 -38.5l-352 -595q-9 -15 -18.5 -22.5t-25.5 -7.5z" />
    <glyph glyph-name="z" unicode="z" horiz-adv-x="463" 
d="M55 0q-26 0 -34 19.5t11 41.5l323 363h-240q-33 0 -33 26q0 36 37 36h304q27 0 34 -20t-15 -44l-321 -359h252q34 0 34 -26q0 -17 -10 -27t-27 -10h-315z" />
    <glyph glyph-name="braceleft" unicode="{" horiz-adv-x="352" 
d="M202 -180q-62 0 -88 27t-18 75l35 227q8 47 -7.5 62.5t-52.5 17.5q-25 3 -25 28q0 16 8.5 27t22.5 12q42 1 62.5 18t27.5 62l36 227q17 102 113 102h67q35 0 35 -31q0 -15 -10 -24t-25 -9h-50q-43 0 -50 -45l-36 -228q-7 -48 -33.5 -73.5t-54.5 -31.5q25 -7 43 -33
t11 -73l-35 -229q-7 -44 35 -44h43q14 0 23 -8.5t9 -20.5q0 -35 -35 -35h-51z" />
    <glyph glyph-name="bar" unicode="|" horiz-adv-x="265" 
d="M64 -187q-40 0 -33 48l129 811q6 40 46 40t33 -48l-128 -811q-6 -40 -47 -40z" />
    <glyph glyph-name="braceright" unicode="}" horiz-adv-x="352" 
d="M-24 -180q-36 0 -36 31q0 16 10.5 24.5t25.5 8.5h50q42 0 49 45l36 228q7 48 34 73.5t55 31.5q-26 7 -44 33t-11 73l35 229q8 44 -35 44h-43q-13 0 -22.5 8.5t-9.5 20.5q0 35 36 35h50q62 0 88 -27t19 -75l-36 -227q-7 -47 8 -62.5t52 -17.5q25 -3 25 -28q0 -16 -8.5 -27
t-22.5 -12q-42 0 -62.5 -17.5t-27.5 -62.5l-36 -227q-17 -102 -113 -102h-66z" />
    <glyph glyph-name="asciitilde" unicode="~" horiz-adv-x="600" 
d="M420 217q-35 0 -66.5 14t-58.5 29t-51 26t-46 11q-29 0 -48 -14t-33 -34q-11 -15 -26.5 -13t-23.5 14.5t3 30.5q24 38 54 57.5t70 19.5q35 0 67.5 -14.5t60.5 -30.5q27 -14 49 -25t44 -11q30 0 49 14t33 34q11 15 26.5 13t23.5 -14.5t-3 -30.5q-49 -76 -124 -76z" />
    <glyph glyph-name="uni007F" 
 />
    <glyph glyph-name="uni00A0" unicode="&#xa0;" 
 />
    <glyph glyph-name="exclamdown" unicode="&#xa1;" horiz-adv-x="228" 
d="M146 380q-25 0 -40 15.5t-15 39.5q0 25 15 40t40 15t39.5 -15t14.5 -40q0 -24 -14.5 -39.5t-39.5 -15.5zM50 -187q-24 0 -36 14.5t-6 41.5l86 414q6 26 29 26q26 0 24 -31l-46 -416q-4 -49 -51 -49z" />
    <glyph glyph-name="cent" unicode="&#xa2;" horiz-adv-x="600" 
d="M255 -122q-15 0 -24 8.5t-5 29.5l14 87q-77 17 -113.5 71.5t-36.5 132.5q0 65 23.5 126t73.5 104t129 52l14 93q5 31 37 31q14 0 24 -9t7 -29l-14 -84q73 -7 118 -44q18 -13 16.5 -30t-16.5 -25.5t-36 3.5q-46 31 -108 31q-67 0 -107.5 -32.5t-59 -83t-18.5 -102.5
q0 -66 33.5 -106.5t112.5 -40.5q23 0 50.5 7.5t52.5 24.5q15 9 26 5t16.5 -15.5t2.5 -24.5t-17 -21q-32 -22 -71.5 -32.5t-71.5 -9.5l-14 -86q-5 -31 -38 -31z" />
    <glyph glyph-name="sterling" unicode="&#xa3;" horiz-adv-x="600" 
d="M50 0q-21 0 -31.5 9.5t-10.5 22.5q0 18 12.5 28t31.5 10h66l41 253h-68q-18 0 -26 8t-8 19q0 14 11.5 24t26.5 10h73l21 126q16 101 72.5 152.5t162.5 51.5q52 0 99.5 -16.5t79.5 -47.5q15 -12 15.5 -26.5t-7.5 -25t-21 -13t-27 9.5q-30 27 -64.5 38t-73.5 11
q-133 0 -154 -130l-20 -130h147q18 0 26 -8t8 -19q0 -15 -11 -24.5t-26 -9.5h-154l-40 -253h286q21 0 30.5 -9t9.5 -22q0 -17 -12.5 -28t-31.5 -11h-433z" />
    <glyph glyph-name="currency" unicode="&#xa4;" horiz-adv-x="600" 
d="M51 -11q-10 10 -10 22t10 22l59 60q-23 31 -36.5 70.5t-13.5 81.5q0 43 13 82t37 70l-59 61q-20 21 0 43q9 9 21.5 9t22.5 -11l58 -59q30 25 68 39t80 14q41 0 78.5 -13.5t68.5 -37.5l55 57q10 11 23.5 11.5t22.5 -9.5q10 -10 10 -22.5t-11 -22.5l-57 -58q51 -67 51 -153
q0 -43 -13.5 -82t-38.5 -71l58 -59q10 -10 10 -22t-10 -22q-8 -9 -21 -8.5t-22 10.5l-57 58q-30 -25 -67.5 -38.5t-79.5 -13.5t-80 14t-69 38l-58 -59q-10 -10 -21.5 -10.5t-21.5 9.5zM301 67q46 0 83.5 24t60 64.5t22.5 89.5t-22.5 90t-60 64.5t-83.5 23.5q-47 0 -85 -24
t-60.5 -64.5t-22.5 -89.5t22.5 -89.5t60.5 -64.5t85 -24z" />
    <glyph glyph-name="yen" unicode="&#xa5;" horiz-adv-x="600" 
d="M261 -7q-43 0 -35 48l21 134h-154q-18 0 -26.5 8t-8.5 20q0 14 10.5 23t24.5 9h164l15 93h-154q-18 0 -26.5 8t-8.5 20q0 14 10.5 23t24.5 9h128l-150 266q-12 23 -2 40.5t34 17.5q15 0 23 -7t16 -23l154 -277l246 283q10 13 19 18.5t23 5.5q22 0 32.5 -19t-7.5 -39
l-233 -266h117q35 0 35 -28q0 -14 -10.5 -23t-24.5 -9h-164l-14 -93h154q35 0 35 -28q0 -14 -10.5 -23t-24.5 -9h-164l-23 -142q-6 -40 -46 -40z" />
    <glyph glyph-name="brokenbar" unicode="&#xa6;" horiz-adv-x="265" 
d="M152 365q-19 0 -28 12.5t-5 35.5l41 259q7 40 47 40q19 0 28 -12.5t5 -35.5l-41 -259q-7 -40 -47 -40zM65 -187q-19 0 -28 12.5t-5 35.5l41 259q7 40 47 40q19 0 28 -12.5t5 -34.5l-41 -260q-6 -40 -47 -40z" />
    <glyph glyph-name="section" unicode="&#xa7;" horiz-adv-x="545" 
d="M203 -189q-57 0 -104 13t-81 37q-16 10 -18.5 23t4 24t19 14t28.5 -7q59 -42 150 -42q66 0 105 35t39 87q0 39 -17.5 61.5t-57.5 46.5l-100 60q-114 69 -114 157t82 145q-11 28 -11 61q0 57 30.5 99t80.5 65.5t110 23.5q49 0 91.5 -11.5t80.5 -38.5q21 -14 19.5 -31.5
t-17 -26t-36.5 5.5q-27 19 -63.5 29.5t-72.5 10.5q-66 0 -104.5 -35t-38.5 -87q0 -39 16.5 -63t58.5 -48l97 -57q116 -69 116 -157q0 -43 -21.5 -80.5t-60.5 -65.5q11 -26 11 -59q0 -57 -30 -99.5t-80 -66t-111 -23.5zM130 332q0 -32 22 -59t65 -52l88 -53q26 -16 44.5 -31
t30.5 -32q20 20 30.5 43.5t10.5 44.5q0 32 -22.5 58.5t-66.5 52.5l-85 50q-25 16 -44.5 32t-32.5 34q-20 -20 -30 -43.5t-10 -44.5z" />
    <glyph glyph-name="dieresis" unicode="&#xa8;" horiz-adv-x="500" 
d="M395 606q-40 0 -40 37q0 26 14 41t40 15q40 0 40 -37q0 -27 -14 -41.5t-40 -14.5zM221 606q-41 0 -41 37q0 26 14 41t40 15q41 0 41 -37q0 -27 -14 -41.5t-40 -14.5z" />
    <glyph glyph-name="copyright" unicode="&#xa9;" horiz-adv-x="815" 
d="M425 -9q-77 0 -143 27.5t-115 77t-76.5 115t-27.5 142.5t27.5 142.5t76.5 114.5t115 76.5t143 27.5t142.5 -27.5t114.5 -76.5t76.5 -114.5t27.5 -142.5t-27.5 -142.5t-76.5 -115t-114.5 -77t-142.5 -27.5zM425 35q67 0 124.5 24t100 67.5t66.5 101t24 125.5t-24 125.5
t-66.5 100.5t-100 67t-124.5 24t-125 -24t-100.5 -67t-66.5 -100.5t-24 -125.5t24 -125.5t66.5 -101t100.5 -67.5t125 -24zM438 137q-96 0 -152 59.5t-56 158.5t56 156t152 57q34 0 67.5 -10.5t60.5 -31.5q15 -10 14 -25.5t-13.5 -24t-31.5 2.5q-24 16 -47.5 23t-46.5 7
q-65 0 -102 -40.5t-37 -113.5t37 -115.5t102 -42.5q24 0 47.5 6.5t48.5 24.5q18 11 30 2.5t13.5 -24.5t-13.5 -26q-27 -21 -61 -32t-68 -11z" />
    <glyph glyph-name="ordfeminine" unicode="&#xaa;" horiz-adv-x="327" 
d="M168 411q-42 0 -70.5 26t-28.5 64q0 44 41.5 65t128.5 21h49l3 16q5 33 -14.5 49.5t-53.5 16.5q-41 0 -80 -19q-16 -7 -25.5 1t-8 20.5t17.5 19.5q44 23 100 23q62 0 94.5 -34.5t23.5 -91.5l-25 -151q-4 -26 -29 -26q-28 0 -24 29l5 30h-3q-17 -28 -42.5 -43.5
t-58.5 -15.5zM181 453q34 0 64 23t35 58l3 17h-37q-66 0 -93 -11.5t-27 -36.5q0 -22 15.5 -36t39.5 -14z" />
    <glyph glyph-name="guillemotleft" unicode="&#xab;" horiz-adv-x="441" 
d="M163 91q-15 -6 -28 -0.5t-19 20.5l-53 127q-5 12 -4 26.5t11 28.5l106 138q17 22 42 10q14 -6 15.5 -21t-11.5 -34l-87 -124l44 -127q11 -34 -16 -44zM344 91q-15 -6 -28 -0.5t-19 20.5l-53 127q-5 12 -4 26.5t11 28.5l106 138q17 22 42 10q14 -6 15.5 -21t-11.5 -34
l-87 -124l44 -127q11 -34 -16 -44z" />
    <glyph glyph-name="logicalnot" unicode="&#xac;" horiz-adv-x="600" 
d="M496 142q-33 0 -26 39l28 177h-393q-33 0 -33 25q0 37 37 37h412q22 0 34 -14t9 -37l-32 -197q-4 -30 -36 -30z" />
    <glyph glyph-name="uni00AD" unicode="&#xad;" horiz-adv-x="424" 
d="M104 233q-35 0 -35 26q0 17 9.5 29t28.5 12h222q35 0 35 -27q0 -17 -10 -28.5t-28 -11.5h-222z" />
    <glyph glyph-name="registered" unicode="&#xae;" horiz-adv-x="815" 
d="M425 -9q-77 0 -143 27.5t-115 77t-76.5 115t-27.5 142.5t27.5 142.5t76.5 114.5t115 76.5t143 27.5t142.5 -27.5t114.5 -76.5t76.5 -114.5t27.5 -142.5t-27.5 -142.5t-76.5 -115t-114.5 -77t-142.5 -27.5zM425 35q67 0 124.5 24t100 67.5t66.5 101t24 125.5t-24 125.5
t-66.5 100.5t-100 67t-124.5 24t-125 -24t-100.5 -67t-66.5 -100.5t-24 -125.5t24 -125.5t66.5 -101t100.5 -67.5t125 -24zM314 136q-33 0 -33 35v353q0 40 40 40h131q68 0 104.5 -33t36.5 -89q0 -47 -24 -76t-68 -38q32 -12 49 -57l35 -92q7 -20 -3 -31.5t-28 -11.5
q-23 0 -31 26l-42 109q-9 26 -27.5 34.5t-44.5 8.5h-62v-143q0 -35 -33 -35zM347 368h97q84 0 84 71t-84 71h-97v-142z" />
    <glyph glyph-name="macron" unicode="&#xaf;" horiz-adv-x="500" 
d="M190 625q-30 0 -30 23q0 32 33 32h247q30 0 30 -23q0 -32 -33 -32h-247z" />
    <glyph glyph-name="degree" unicode="&#xb0;" horiz-adv-x="371" 
d="M236 415q-42 0 -75.5 19.5t-53 52.5t-19.5 75t19.5 75.5t53 53t75.5 19.5t75.5 -19.5t53 -52.5t19.5 -76q0 -42 -19.5 -75.5t-53 -52.5t-75.5 -19zM236 469q40 0 65 26.5t25 66.5q0 41 -25 67t-65 26q-39 0 -64 -26t-25 -67q0 -40 25 -66.5t64 -26.5z" />
    <glyph glyph-name="plusminus" unicode="&#xb1;" horiz-adv-x="600" 
d="M283 120q-34 0 -28 39l22 138h-181q-33 0 -33 26q0 36 37 36h188l21 145q5 32 36 32q17 0 24 -10.5t4 -27.5l-21 -139h179q34 0 34 -25q0 -37 -37 -37h-187l-22 -144q-6 -33 -36 -33zM49 0q-34 0 -34 25q0 37 38 37h431q34 0 34 -25q0 -37 -37 -37h-432z" />
    <glyph glyph-name="uni00B2" unicode="&#xb2;" horiz-adv-x="380" 
d="M93 282q-32 0 -32 27q0 10 5 17.5t14 16.5l150 136q32 29 52.5 57.5t21.5 59.5q1 26 -16.5 40t-49.5 14q-24 0 -46.5 -7t-44.5 -20q-18 -10 -29.5 -1t-11 24.5t17.5 26.5q58 36 129 36q59 0 92 -30t32 -75q-1 -47 -29 -84t-76 -79l-112 -100h160q32 0 32 -25
q0 -34 -35 -34h-224z" />
    <glyph glyph-name="uni00B3" unicode="&#xb3;" horiz-adv-x="380" 
d="M202 278q-35 0 -71 9t-63 29q-17 11 -15.5 27t14.5 24t32 -4q22 -15 48 -20.5t55 -5.5q35 0 60 18.5t26 53.5q2 57 -74 57h-48q-32 0 -32 25q0 15 9 24.5t27 9.5h50q38 0 64.5 18.5t26.5 52.5q1 26 -17.5 40t-51.5 14q-30 0 -54 -8t-43 -21q-18 -10 -29.5 -1t-11 24.5
t17.5 26.5q26 16 58.5 27t71.5 11q60 0 94 -29t34 -73q-1 -39 -26 -68.5t-65 -40.5q33 -11 50 -36t17 -57q-1 -37 -21.5 -65.5t-55.5 -45t-77 -16.5z" />
    <glyph glyph-name="acute" unicode="&#xb4;" horiz-adv-x="500" 
d="M331 555q-12 -13 -25 -11.5t-19 13t4 27.5l107 161q12 18 26.5 20t26 -5.5t14 -21.5t-8.5 -28z" />
    <glyph glyph-name="uni00B5" unicode="&#xb5;" horiz-adv-x="600" 
d="M66 -187q-40 0 -33 47l95 594q6 39 46 39q19 0 28.5 -12t5.5 -34l-40 -254q-22 -135 88 -135q70 0 112.5 45.5t53.5 119.5l37 231q5 39 46 39t33 -46l-65 -415q-6 -39 -45 -39q-18 0 -27.5 10.5t-6.5 27.5l8 55q-23 -45 -62 -70t-90 -25q-81 0 -113 56l-25 -194
q-5 -40 -46 -40z" />
    <glyph glyph-name="paragraph" unicode="&#xb6;" horiz-adv-x="588" 
d="M208 -187q-32 0 -27 38l72 459q-53 0 -91 23t-58 61.5t-20 86.5q0 66 28.5 116.5t79 79t117.5 28.5h220q21 0 31.5 -11.5t6.5 -33.5l-129 -815q-5 -32 -38 -32q-32 0 -26 38l125 792h-128l-126 -798q-5 -32 -37 -32z" />
    <glyph glyph-name="periodcentered" unicode="&#xb7;" horiz-adv-x="228" 
d="M119 211q-25 0 -40 15.5t-15 39.5t15 39.5t40 15.5t39.5 -15.5t14.5 -39.5t-14.5 -39.5t-39.5 -15.5z" />
    <glyph glyph-name="cedilla" unicode="&#xb8;" horiz-adv-x="500" 
d="M192 -192q-38 0 -69 10q-16 5 -18 19t7 23.5t26 3.5q23 -9 55 -9q28 0 45 10t17 29q0 26 -35 26q-17 0 -35 -5q-17 -4 -23 2t-1 21l26 82h51l-21 -63q10 1 18 1q34 0 55 -16.5t21 -46.5q0 -39 -34 -63t-85 -24z" />
    <glyph glyph-name="uni00B9" unicode="&#xb9;" horiz-adv-x="380" 
d="M125 282q-31 0 -31 26q0 15 9 24t26 9h68l44 279l-54 -31q-21 -11 -35 -1.5t-13.5 27t21.5 29.5l92 51q8 5 17.5 8.5t21.5 3.5q21 0 24 -12.5t2 -22.5l-53 -331h46q32 0 32 -25q0 -14 -9.5 -24t-25.5 -10h-182z" />
    <glyph glyph-name="ordmasculine" unicode="&#xba;" horiz-adv-x="339" 
d="M214 412q-62 0 -101 37.5t-39 101.5q0 50 20.5 86.5t55 56.5t76.5 20q61 0 100.5 -38t39.5 -101q0 -51 -20.5 -87.5t-55 -56t-76.5 -19.5zM215 457q41 0 66.5 30.5t25.5 88.5q0 44 -22.5 68t-59.5 24q-41 0 -67 -30t-26 -88q0 -45 22.5 -69t60.5 -24z" />
    <glyph glyph-name="guillemotright" unicode="&#xbb;" horiz-adv-x="441" 
d="M48 90q-13 7 -14.5 21.5t11.5 33.5l87 124l-44 128q-11 33 15 43q15 6 28 0.5t20 -19.5l53 -127q5 -12 4 -26.5t-12 -28.5l-105 -138q-18 -23 -43 -11zM229 90q-13 7 -14.5 21.5t11.5 33.5l87 124l-44 128q-11 33 15 43q15 6 28 0.5t20 -19.5l53 -127q5 -12 4 -26.5
t-12 -28.5l-105 -138q-18 -23 -43 -11z" />
    <glyph glyph-name="onequarter" unicode="&#xbc;" horiz-adv-x="893" 
d="M125 282q-31 0 -31 26q0 15 9 24t26 9h68l44 279l-54 -31q-21 -11 -35 -1.5t-13.5 27t21.5 29.5l92 51q8 5 17.5 8.5t21.5 3.5q21 0 24 -12.5t2 -22.5l-53 -331h46q32 0 32 -25q0 -14 -9.5 -24t-25.5 -10h-182zM736 -3q-34 0 -29 32l9 54h-154q-15 0 -26 6t-11 21
q0 9 4.5 17.5t10.5 15.5l218 259q8 10 18 17t27 7q33 0 28 -35l-39 -249h31q11 0 19 -6.5t8 -18.5q0 -13 -9 -23.5t-24 -10.5h-34l-9 -56q-5 -30 -38 -30zM725 142l28 175l-148 -175h120zM264 -2q-13 -18 -30 -16t-24.5 16t6.5 33l497 676q13 19 29.5 16.5t24 -16.5
t-6.5 -33z" />
    <glyph glyph-name="onehalf" unicode="&#xbd;" horiz-adv-x="937" 
d="M125 282q-31 0 -31 26q0 15 9 24t26 9h68l44 279l-54 -31q-21 -11 -35 -1.5t-13.5 27t21.5 29.5l92 51q8 5 17.5 8.5t21.5 3.5q21 0 24 -12.5t2 -22.5l-53 -331h46q32 0 32 -25q0 -14 -9.5 -24t-25.5 -10h-182zM605 0q-32 0 -32 27q0 10 5 17.5t14 16.5l150 136
q32 29 52.5 57.5t21.5 59.5q1 26 -16.5 40t-49.5 14q-24 0 -46.5 -7t-44.5 -20q-18 -10 -29.5 -1t-11 24.5t17.5 26.5q58 36 129 36q59 0 92 -30t32 -75q-1 -47 -29 -84t-76 -79l-112 -100h160q32 0 32 -25q0 -34 -35 -34h-224zM264 -2q-13 -18 -30 -16t-24.5 16t6.5 33
l497 676q13 19 29.5 16.5t24 -16.5t-6.5 -33z" />
    <glyph glyph-name="threequarters" unicode="&#xbe;" horiz-adv-x="893" 
d="M202 278q-35 0 -71 9t-63 29q-17 11 -15.5 27t14.5 24t32 -4q22 -15 48 -20.5t55 -5.5q35 0 60 18.5t26 53.5q2 57 -74 57h-48q-32 0 -32 25q0 15 9 24.5t27 9.5h50q38 0 64.5 18.5t26.5 52.5q1 26 -17.5 40t-51.5 14q-30 0 -54 -8t-43 -21q-18 -10 -29.5 -1t-11 24.5
t17.5 26.5q26 16 58.5 27t71.5 11q60 0 94 -29t34 -73q-1 -39 -26 -68.5t-65 -40.5q33 -11 50 -36t17 -57q-1 -37 -21.5 -65.5t-55.5 -45t-77 -16.5zM736 -3q-34 0 -29 32l9 54h-154q-15 0 -26 6t-11 21q0 9 4.5 17.5t10.5 15.5l218 259q8 10 18 17t27 7q33 0 28 -35
l-39 -249h31q11 0 19 -6.5t8 -18.5q0 -13 -9 -23.5t-24 -10.5h-34l-9 -56q-5 -30 -38 -30zM725 142l28 175l-148 -175h120zM264 -2q-13 -18 -30 -16t-24.5 16t6.5 33l497 676q13 19 29.5 16.5t24 -16.5t-6.5 -33z" />
    <glyph glyph-name="questiondown" unicode="&#xbf;" horiz-adv-x="443" 
d="M266 380q-25 0 -40.5 15.5t-15.5 39.5q0 25 15.5 40t40.5 15q24 0 39 -15t15 -40q0 -24 -15 -39.5t-39 -15.5zM150 -189q-52 0 -91 19t-60 51.5t-21 71.5q0 55 32.5 98t84.5 81q55 41 81.5 76t35.5 77q3 12 9.5 18t18.5 6q31 0 25 -32q-6 -36 -17.5 -65t-34.5 -56.5
t-62 -58.5q-40 -32 -64.5 -62.5t-24.5 -68.5q0 -35 25.5 -58.5t72.5 -23.5q49 0 89.5 12t75.5 36q19 11 32.5 7.5t19.5 -15.5t2 -27t-19 -25q-42 -30 -96.5 -45.5t-113.5 -15.5z" />
    <glyph glyph-name="Agrave" unicode="&#xc0;" horiz-adv-x="729" 
d="M413 771l-91 120q-12 15 -8.5 28.5t15.5 21.5t27 5.5t25 -19.5l77 -126q9 -15 1.5 -27t-21.5 -14.5t-25 11.5zM40 -7q-23 0 -33.5 15.5t2.5 38.5l382 636q17 29 48 29q33 0 43 -33l176 -630q8 -29 -2.5 -42.5t-28.5 -13.5q-34 0 -44 39l-39 148h-368l-94 -161
q-15 -26 -42 -26zM427 609l-211 -360h309l-96 360h-2z" />
    <glyph glyph-name="Aacute" unicode="&#xc1;" horiz-adv-x="729" 
d="M485 769q-13 -13 -26.5 -10t-19 15t4.5 25l99 130q12 16 26.5 17.5t26 -6.5t14 -21t-10.5 -27zM40 -7q-23 0 -33.5 15.5t2.5 38.5l382 636q17 29 48 29q33 0 43 -33l176 -630q8 -29 -2.5 -42.5t-28.5 -13.5q-34 0 -44 39l-39 148h-368l-94 -161q-15 -26 -42 -26zM427 609
l-211 -360h309l-96 360h-2z" />
    <glyph glyph-name="Acircumflex" unicode="&#xc2;" horiz-adv-x="729" 
d="M344 767q-12 -12 -25.5 -10t-19.5 12.5t5 24.5l100 122q25 31 57 31q18 0 29 -9t21 -25l73 -119q10 -16 2 -26.5t-23 -11t-27 14.5l-81 113zM40 -7q-23 0 -33.5 15.5t2.5 38.5l382 636q17 29 48 29q33 0 43 -33l176 -630q8 -29 -2.5 -42.5t-28.5 -13.5q-34 0 -44 39
l-39 148h-368l-94 -161q-15 -26 -42 -26zM427 609l-211 -360h309l-96 360h-2z" />
    <glyph glyph-name="Atilde" unicode="&#xc3;" horiz-adv-x="729" 
d="M262 781q-11 0 -16 8t-2 21q15 55 46.5 82t75.5 27q27 0 51 -11.5t45.5 -26.5t41.5 -26.5t40 -11.5q52 0 71 62q7 21 28 19q11 -1 16.5 -8.5t1.5 -21.5q-15 -55 -46.5 -81.5t-75.5 -26.5q-27 0 -51 11.5t-45.5 26.5t-41.5 26.5t-39 11.5q-51 0 -72 -62q-7 -21 -28 -19z
M40 -7q-23 0 -33.5 15.5t2.5 38.5l382 636q17 29 48 29q33 0 43 -33l176 -630q8 -29 -2.5 -42.5t-28.5 -13.5q-34 0 -44 39l-39 148h-368l-94 -161q-15 -26 -42 -26zM427 609l-211 -360h309l-96 360h-2z" />
    <glyph glyph-name="Adieresis" unicode="&#xc4;" horiz-adv-x="729" 
d="M542 802q-41 0 -41 37q0 26 14.5 41t39.5 15q41 0 41 -37q0 -26 -14 -41t-40 -15zM368 802q-40 0 -40 37q0 26 14 41t40 15q40 0 40 -37q0 -26 -14 -41t-40 -15zM40 -7q-23 0 -33.5 15.5t2.5 38.5l382 636q17 29 48 29q33 0 43 -33l176 -630q8 -29 -2.5 -42.5
t-28.5 -13.5q-34 0 -44 39l-39 148h-368l-94 -161q-15 -26 -42 -26zM427 609l-211 -360h309l-96 360h-2z" />
    <glyph glyph-name="Aring" unicode="&#xc5;" horiz-adv-x="729" 
d="M464 758q-50 0 -84 33.5t-34 82.5q0 48 34 81.5t84 33.5t84.5 -33.5t34.5 -81.5q0 -49 -34.5 -82.5t-84.5 -33.5zM464 801q32 0 52 21t20 52q0 30 -20 51t-52 21q-31 0 -51.5 -21t-20.5 -51q0 -31 20.5 -52t51.5 -21zM40 -7q-23 0 -33.5 15.5t2.5 38.5l382 636
q17 29 48 29q33 0 43 -33l176 -630q8 -29 -2.5 -42.5t-28.5 -13.5q-34 0 -44 39l-39 148h-368l-94 -161q-15 -26 -42 -26zM427 609l-211 -360h309l-96 360h-2z" />
    <glyph glyph-name="AE" unicode="&#xc6;" horiz-adv-x="981" 
d="M7 -7q-26 0 -32.5 18t7.5 36l486 636q17 22 47 22h455q36 0 36 -27q0 -21 -11.5 -31.5t-28.5 -10.5h-399l14 -244h318q37 0 37 -27q0 -21 -11.5 -31.5t-29.5 -10.5h-311l14 -254h272q36 0 36 -28q0 -41 -41 -41h-299q-37 0 -40 37l-7 143h-346l-122 -162q-19 -25 -44 -25
zM494 608l-270 -359h291l-19 359h-2z" />
    <glyph glyph-name="Ccedilla" unicode="&#xc7;" horiz-adv-x="673" 
d="M348 -192q-38 0 -69 10q-16 5 -18 19t7 23.5t26 3.5q23 -9 55 -9q28 0 45 10t17 29q0 26 -35 26q-17 0 -35 -5q-17 -4 -23 2t-1 21l26 82h51l-21 -63q10 1 18 1q34 0 55 -16.5t21 -46.5q0 -39 -34 -63t-85 -24zM382 -9q-90 0 -158.5 34.5t-107.5 104.5t-39 177
q0 87 25 161t72.5 129t114.5 86t152 31q129 0 212 -72q15 -12 16 -27.5t-7 -28t-21.5 -16.5t-28.5 8q-39 33 -81.5 47t-92.5 14q-85 0 -146 -43t-94 -117.5t-33 -169.5q0 -130 59.5 -186.5t165.5 -56.5q46 0 86 13.5t80 44.5q16 11 29.5 7.5t21 -16t5 -27t-17.5 -26.5
q-46 -36 -100 -53.5t-112 -17.5z" />
    <glyph glyph-name="Egrave" unicode="&#xc8;" horiz-adv-x="583" 
d="M372 771l-91 120q-12 15 -8.5 28.5t15.5 21.5t27 5.5t25 -19.5l77 -126q9 -15 1.5 -27t-21.5 -14.5t-25 11.5zM98 0q-49 0 -42 49l98 615q6 41 48 41h369q37 0 37 -27q0 -21 -11.5 -31.5t-29.5 -10.5h-337l-39 -244h310q36 0 36 -27q0 -21 -11.5 -31.5t-28.5 -10.5h-317
l-41 -254h331q37 0 37 -28q0 -21 -11.5 -31t-29.5 -10h-368z" />
    <glyph glyph-name="Eacute" unicode="&#xc9;" horiz-adv-x="583" 
d="M444 769q-13 -13 -26.5 -10t-19 15t4.5 25l99 130q12 16 26.5 17.5t26 -6.5t14 -21t-10.5 -27zM98 0q-49 0 -42 49l98 615q6 41 48 41h369q37 0 37 -27q0 -21 -11.5 -31.5t-29.5 -10.5h-337l-39 -244h310q36 0 36 -27q0 -21 -11.5 -31.5t-28.5 -10.5h-317l-41 -254h331
q37 0 37 -28q0 -21 -11.5 -31t-29.5 -10h-368z" />
    <glyph glyph-name="Ecircumflex" unicode="&#xca;" horiz-adv-x="583" 
d="M303 767q-12 -12 -25.5 -10t-19.5 12.5t5 24.5l100 122q25 31 57 31q18 0 29 -9t21 -25l73 -119q10 -16 2 -26.5t-23 -11t-27 14.5l-81 113zM98 0q-49 0 -42 49l98 615q6 41 48 41h369q37 0 37 -27q0 -21 -11.5 -31.5t-29.5 -10.5h-337l-39 -244h310q36 0 36 -27
q0 -21 -11.5 -31.5t-28.5 -10.5h-317l-41 -254h331q37 0 37 -28q0 -21 -11.5 -31t-29.5 -10h-368z" />
    <glyph glyph-name="Edieresis" unicode="&#xcb;" horiz-adv-x="583" 
d="M501 802q-41 0 -41 37q0 26 14.5 41t39.5 15q41 0 41 -37q0 -26 -14 -41t-40 -15zM327 802q-40 0 -40 37q0 26 14 41t40 15q40 0 40 -37q0 -26 -14 -41t-40 -15zM98 0q-49 0 -42 49l98 615q6 41 48 41h369q37 0 37 -27q0 -21 -11.5 -31.5t-29.5 -10.5h-337l-39 -244h310
q36 0 36 -27q0 -21 -11.5 -31.5t-28.5 -10.5h-317l-41 -254h331q37 0 37 -28q0 -21 -11.5 -31t-29.5 -10h-368z" />
    <glyph glyph-name="Igrave" unicode="&#xcc;" horiz-adv-x="257" 
d="M176 771l-91 120q-12 15 -8.5 28.5t15.5 21.5t27 5.5t25 -19.5l77 -126q9 -15 1.5 -27t-21.5 -14.5t-25 11.5zM91 -7q-44 0 -36 50l100 627q6 42 46 42q43 0 35 -50l-100 -627q-6 -42 -45 -42z" />
    <glyph glyph-name="Iacute" unicode="&#xcd;" horiz-adv-x="257" 
d="M248 769q-13 -13 -26.5 -10t-19 15t4.5 25l99 130q12 16 26.5 17.5t26 -6.5t14 -21t-10.5 -27zM91 -7q-44 0 -36 50l100 627q6 42 46 42q43 0 35 -50l-100 -627q-6 -42 -45 -42z" />
    <glyph glyph-name="Icircumflex" unicode="&#xce;" horiz-adv-x="257" 
d="M107 767q-12 -12 -25.5 -10t-19.5 12.5t5 24.5l100 122q25 31 57 31q18 0 29 -9t21 -25l73 -119q10 -16 2 -26.5t-23 -11t-27 14.5l-81 113zM91 -7q-44 0 -36 50l100 627q6 42 46 42q43 0 35 -50l-100 -627q-6 -42 -45 -42z" />
    <glyph glyph-name="Idieresis" unicode="&#xcf;" horiz-adv-x="257" 
d="M305 802q-41 0 -41 37q0 26 14.5 41t39.5 15q41 0 41 -37q0 -26 -14 -41t-40 -15zM131 802q-40 0 -40 37q0 26 14 41t40 15q40 0 40 -37q0 -26 -14 -41t-40 -15zM91 -7q-44 0 -36 50l100 627q6 42 46 42q43 0 35 -50l-100 -627q-6 -42 -45 -42z" />
    <glyph glyph-name="Eth" unicode="&#xd0;" horiz-adv-x="742" 
d="M45 326q-35 0 -35 27q0 37 39 37h307q35 0 35 -26q0 -38 -39 -38h-307zM98 0q-23 0 -34.5 13t-7.5 36l98 615q6 41 48 41h166q160 0 247 -77.5t87 -217.5q0 -85 -24 -159t-73 -130.5t-124 -88.5t-179 -32h-204zM142 70h162q84 0 143 26.5t96 73.5t54.5 108.5t17.5 130.5
q0 110 -62.5 168t-185.5 58h-135z" />
    <glyph glyph-name="Ntilde" unicode="&#xd1;" horiz-adv-x="739" 
d="M265 781q-11 0 -16 8t-2 21q15 55 46.5 82t75.5 27q27 0 51 -11.5t45.5 -26.5t41.5 -26.5t40 -11.5q52 0 71 62q7 21 28 19q11 -1 16.5 -8.5t1.5 -21.5q-15 -55 -46.5 -81.5t-75.5 -26.5q-27 0 -51 11.5t-45.5 26.5t-41.5 26.5t-39 11.5q-51 0 -72 -62q-7 -21 -28 -19z
M88 -7q-18 0 -27 12t-6 34l101 637q6 36 39 36q16 0 24 -6.5t17 -20.5l321 -556l87 545q5 38 44 38q38 0 31 -46l-101 -636q-6 -37 -36 -37q-16 0 -25.5 7t-18.5 21l-322 556l-86 -546q-6 -38 -42 -38z" />
    <glyph glyph-name="Ograve" unicode="&#xd2;" horiz-adv-x="767" 
d="M420 771l-91 120q-12 15 -8.5 28.5t15.5 21.5t27 5.5t25 -19.5l77 -126q9 -15 1.5 -27t-21.5 -14.5t-25 11.5zM368 -9q-88 0 -154 35t-102 102.5t-36 165.5q0 119 42 214t121.5 150.5t194.5 55.5q89 0 154.5 -35t101.5 -102.5t36 -164.5q0 -120 -42 -215t-121.5 -150.5
t-194.5 -55.5zM370 64q87 0 147 45.5t91 124t31 177.5q0 116 -55.5 173t-152.5 57q-86 0 -146 -45.5t-91 -123.5t-31 -177q0 -117 55.5 -174t151.5 -57z" />
    <glyph glyph-name="Oacute" unicode="&#xd3;" horiz-adv-x="767" 
d="M492 769q-13 -13 -26.5 -10t-19 15t4.5 25l99 130q12 16 26.5 17.5t26 -6.5t14 -21t-10.5 -27zM368 -9q-88 0 -154 35t-102 102.5t-36 165.5q0 119 42 214t121.5 150.5t194.5 55.5q89 0 154.5 -35t101.5 -102.5t36 -164.5q0 -120 -42 -215t-121.5 -150.5t-194.5 -55.5z
M370 64q87 0 147 45.5t91 124t31 177.5q0 116 -55.5 173t-152.5 57q-86 0 -146 -45.5t-91 -123.5t-31 -177q0 -117 55.5 -174t151.5 -57z" />
    <glyph glyph-name="Ocircumflex" unicode="&#xd4;" horiz-adv-x="767" 
d="M351 767q-12 -12 -25.5 -10t-19.5 12.5t5 24.5l100 122q25 31 57 31q18 0 29 -9t21 -25l73 -119q10 -16 2 -26.5t-23 -11t-27 14.5l-81 113zM368 -9q-88 0 -154 35t-102 102.5t-36 165.5q0 119 42 214t121.5 150.5t194.5 55.5q89 0 154.5 -35t101.5 -102.5t36 -164.5
q0 -120 -42 -215t-121.5 -150.5t-194.5 -55.5zM370 64q87 0 147 45.5t91 124t31 177.5q0 116 -55.5 173t-152.5 57q-86 0 -146 -45.5t-91 -123.5t-31 -177q0 -117 55.5 -174t151.5 -57z" />
    <glyph glyph-name="Otilde" unicode="&#xd5;" horiz-adv-x="767" 
d="M269 781q-11 0 -16 8t-2 21q15 55 46.5 82t75.5 27q27 0 51 -11.5t45.5 -26.5t41.5 -26.5t40 -11.5q52 0 71 62q7 21 28 19q11 -1 16.5 -8.5t1.5 -21.5q-15 -55 -46.5 -81.5t-75.5 -26.5q-27 0 -51 11.5t-45.5 26.5t-41.5 26.5t-39 11.5q-51 0 -72 -62q-7 -21 -28 -19z
M368 -9q-88 0 -154 35t-102 102.5t-36 165.5q0 119 42 214t121.5 150.5t194.5 55.5q89 0 154.5 -35t101.5 -102.5t36 -164.5q0 -120 -42 -215t-121.5 -150.5t-194.5 -55.5zM370 64q87 0 147 45.5t91 124t31 177.5q0 116 -55.5 173t-152.5 57q-86 0 -146 -45.5t-91 -123.5
t-31 -177q0 -117 55.5 -174t151.5 -57z" />
    <glyph glyph-name="Odieresis" unicode="&#xd6;" horiz-adv-x="767" 
d="M549 802q-41 0 -41 37q0 26 14.5 41t39.5 15q41 0 41 -37q0 -26 -14 -41t-40 -15zM375 802q-40 0 -40 37q0 26 14 41t40 15q40 0 40 -37q0 -26 -14 -41t-40 -15zM368 -9q-88 0 -154 35t-102 102.5t-36 165.5q0 119 42 214t121.5 150.5t194.5 55.5q89 0 154.5 -35
t101.5 -102.5t36 -164.5q0 -120 -42 -215t-121.5 -150.5t-194.5 -55.5zM370 64q87 0 147 45.5t91 124t31 177.5q0 116 -55.5 173t-152.5 57q-86 0 -146 -45.5t-91 -123.5t-31 -177q0 -117 55.5 -174t151.5 -57z" />
    <glyph glyph-name="multiply" unicode="&#xd7;" horiz-adv-x="600" 
d="M118 67q-17 -15 -33 -8.5t-21 22.5t10 30l190 175l-157 172q-14 16 -7.5 32t23 21t32.5 -12l155 -170l188 172q17 16 32.5 9.5t21 -22.5t-10.5 -31l-189 -174l158 -174q14 -16 7.5 -31.5t-23 -20.5t-32.5 12l-156 171z" />
    <glyph glyph-name="Oslash" unicode="&#xd8;" horiz-adv-x="767" 
d="M162 -20q-12 -17 -29 -13.5t-25 18t6 32.5l55 74l27 37l360 486l27 37l55 73q14 17 30.5 14t24.5 -18t-6 -32l-54 -74l-27 -37l-360 -485l-28 -38zM368 -9q-88 0 -154 35t-102 102.5t-36 165.5q0 119 42 214t121.5 150.5t194.5 55.5q89 0 154.5 -35t101.5 -102.5
t36 -164.5q0 -120 -42 -215t-121.5 -150.5t-194.5 -55.5zM370 64q87 0 147 45.5t91 124t31 177.5q0 116 -55.5 173t-152.5 57q-86 0 -146 -45.5t-91 -123.5t-31 -177q0 -117 55.5 -174t151.5 -57z" />
    <glyph glyph-name="Ugrave" unicode="&#xd9;" horiz-adv-x="728" 
d="M411 771l-91 120q-12 15 -8.5 28.5t15.5 21.5t27 5.5t25 -19.5l77 -126q9 -15 1.5 -27t-21.5 -14.5t-25 11.5zM335 -9q-89 0 -149.5 34t-86 102t-9.5 170l60 376q6 39 46 39q43 0 35 -47l-59 -375q-36 -226 167 -226q98 0 154.5 50t74.5 159l64 400q6 39 45 39
q20 0 29.5 -12t5.5 -35l-62 -396q-22 -138 -98 -208t-217 -70z" />
    <glyph glyph-name="Uacute" unicode="&#xda;" horiz-adv-x="728" 
d="M483 769q-13 -13 -26.5 -10t-19 15t4.5 25l99 130q12 16 26.5 17.5t26 -6.5t14 -21t-10.5 -27zM335 -9q-89 0 -149.5 34t-86 102t-9.5 170l60 376q6 39 46 39q43 0 35 -47l-59 -375q-36 -226 167 -226q98 0 154.5 50t74.5 159l64 400q6 39 45 39q20 0 29.5 -12t5.5 -35
l-62 -396q-22 -138 -98 -208t-217 -70z" />
    <glyph glyph-name="Ucircumflex" unicode="&#xdb;" horiz-adv-x="728" 
d="M342 767q-12 -12 -25.5 -10t-19.5 12.5t5 24.5l100 122q25 31 57 31q18 0 29 -9t21 -25l73 -119q10 -16 2 -26.5t-23 -11t-27 14.5l-81 113zM335 -9q-89 0 -149.5 34t-86 102t-9.5 170l60 376q6 39 46 39q43 0 35 -47l-59 -375q-36 -226 167 -226q98 0 154.5 50t74.5 159
l64 400q6 39 45 39q20 0 29.5 -12t5.5 -35l-62 -396q-22 -138 -98 -208t-217 -70z" />
    <glyph glyph-name="Udieresis" unicode="&#xdc;" horiz-adv-x="728" 
d="M540 802q-41 0 -41 37q0 26 14.5 41t39.5 15q41 0 41 -37q0 -26 -14 -41t-40 -15zM366 802q-40 0 -40 37q0 26 14 41t40 15q40 0 40 -37q0 -26 -14 -41t-40 -15zM335 -9q-89 0 -149.5 34t-86 102t-9.5 170l60 376q6 39 46 39q43 0 35 -47l-59 -375q-36 -226 167 -226
q98 0 154.5 50t74.5 159l64 400q6 39 45 39q20 0 29.5 -12t5.5 -35l-62 -396q-22 -138 -98 -208t-217 -70z" />
    <glyph glyph-name="Yacute" unicode="&#xdd;" horiz-adv-x="596" 
d="M409 769q-13 -13 -26.5 -10t-19 15t4.5 25l99 130q12 16 26.5 17.5t26 -6.5t14 -21t-10.5 -27zM258 -7q-41 0 -34 48l47 292l-181 319q-13 24 -4 42t34 18q16 0 25 -7t18 -24l155 -275l249 281q12 14 22 19.5t24 5.5q23 0 32 -19.5t-10 -40.5l-282 -318l-48 -300
q-6 -41 -47 -41z" />
    <glyph glyph-name="Thorn" unicode="&#xde;" horiz-adv-x="634" 
d="M89 -7q-19 0 -28.5 13t-5.5 36l99 626q7 42 48 42q20 0 29.5 -11t6.5 -29l-15 -92h172q108 0 167 -48t59 -141q0 -108 -67.5 -171.5t-196.5 -63.5h-201l-20 -120q-6 -41 -47 -41zM166 223h197q86 0 131 41t45 119q0 66 -38 96.5t-113 30.5h-176z" />
    <glyph glyph-name="germandbls" unicode="&#xdf;" horiz-adv-x="615" 
d="M378 -9q-46 0 -91 12.5t-74 33.5q-15 9 -18 23t3 25t18.5 15t27.5 -6q58 -39 132 -39q55 0 84.5 20.5t29.5 59.5q0 25 -19 46t-75 40q-66 23 -93.5 52t-27.5 71q0 27 9 48t30.5 42.5t58.5 49.5q32 24 50 46t18 55q0 27 -19.5 46.5t-58.5 19.5q-141 0 -167 -160l-73 -459
q-5 -39 -44 -39q-43 0 -35 46l70 444q17 113 79 172t172 59q72 0 113.5 -35.5t41.5 -84.5t-25 -80.5t-67 -65.5q-37 -28 -56.5 -48t-19.5 -47q0 -23 19.5 -41t71.5 -35q60 -21 92 -51.5t32 -82.5q0 -72 -52 -112t-137 -40z" />
    <glyph glyph-name="agrave" unicode="&#xe0;" horiz-adv-x="530" 
d="M280 558l-107 153q-11 17 -7 30.5t17 19.5t28 2t25 -23l90 -156q8 -17 0.5 -28.5t-21.5 -12.5t-25 15zM199 -9q-42 0 -78.5 19t-58.5 52t-22 75q0 77 65.5 111t209.5 34h69l5 30q10 57 -15 87.5t-88 30.5q-36 0 -69.5 -7t-66.5 -26q-16 -9 -29 -5t-18.5 15.5t-0.5 24.5
t24 23q38 21 82 30.5t87 9.5q102 0 143 -56t26 -149l-41 -257q-6 -40 -44 -40q-39 0 -32 46l6 37q-25 -43 -67 -64t-87 -21zM219 52q54 0 97 36.5t54 101.5l6 39h-50q-77 0 -121.5 -8t-63.5 -27t-19 -52q0 -44 29 -67t68 -23z" />
    <glyph glyph-name="aacute" unicode="&#xe1;" horiz-adv-x="530" 
d="M348 555q-12 -13 -25 -11.5t-19 13t4 27.5l107 161q12 18 26.5 20t26 -5.5t14 -21.5t-8.5 -28zM199 -9q-42 0 -78.5 19t-58.5 52t-22 75q0 77 65.5 111t209.5 34h69l5 30q10 57 -15 87.5t-88 30.5q-36 0 -69.5 -7t-66.5 -26q-16 -9 -29 -5t-18.5 15.5t-0.5 24.5t24 23
q38 21 82 30.5t87 9.5q102 0 143 -56t26 -149l-41 -257q-6 -40 -44 -40q-39 0 -32 46l6 37q-25 -43 -67 -64t-87 -21zM219 52q54 0 97 36.5t54 101.5l6 39h-50q-77 0 -121.5 -8t-63.5 -27t-19 -52q0 -44 29 -67t68 -23z" />
    <glyph glyph-name="acircumflex" unicode="&#xe2;" horiz-adv-x="530" 
d="M448 580q8 -16 -1 -26.5t-23 -10.5t-21 14l-72 142l-106 -143q-10 -13 -23.5 -12.5t-20.5 11t4 26.5l99 153q20 32 52 32q31 0 45 -32zM199 -9q-42 0 -78.5 19t-58.5 52t-22 75q0 77 65.5 111t209.5 34h69l5 30q10 57 -15 87.5t-88 30.5q-36 0 -69.5 -7t-66.5 -26
q-16 -9 -29 -5t-18.5 15.5t-0.5 24.5t24 23q38 21 82 30.5t87 9.5q102 0 143 -56t26 -149l-41 -257q-6 -40 -44 -40q-39 0 -32 46l6 37q-25 -43 -67 -64t-87 -21zM219 52q54 0 97 36.5t54 101.5l6 39h-50q-77 0 -121.5 -8t-63.5 -27t-19 -52q0 -44 29 -67t68 -23z" />
    <glyph glyph-name="atilde" unicode="&#xe3;" horiz-adv-x="530" 
d="M164 588q-25 2 -19 27q13 54 42 82.5t70 28.5q24 0 41.5 -11.5t32 -26.5t29 -26.5t33.5 -11.5q22 0 39 16.5t25 45.5q6 21 28 19q25 -1 19 -27q-13 -54 -42 -82.5t-69 -28.5q-25 0 -42.5 11.5t-32.5 26.5t-29.5 26.5t-32.5 11.5q-22 0 -39 -16.5t-25 -44.5
q-6 -22 -28 -20zM199 -9q-42 0 -78.5 19t-58.5 52t-22 75q0 77 65.5 111t209.5 34h69l5 30q10 57 -15 87.5t-88 30.5q-36 0 -69.5 -7t-66.5 -26q-16 -9 -29 -5t-18.5 15.5t-0.5 24.5t24 23q38 21 82 30.5t87 9.5q102 0 143 -56t26 -149l-41 -257q-6 -40 -44 -40
q-39 0 -32 46l6 37q-25 -43 -67 -64t-87 -21zM219 52q54 0 97 36.5t54 101.5l6 39h-50q-77 0 -121.5 -8t-63.5 -27t-19 -52q0 -44 29 -67t68 -23z" />
    <glyph glyph-name="adieresis" unicode="&#xe4;" horiz-adv-x="530" 
d="M412 606q-40 0 -40 37q0 26 14 41t40 15q40 0 40 -37q0 -27 -14 -41.5t-40 -14.5zM238 606q-41 0 -41 37q0 26 14 41t40 15q41 0 41 -37q0 -27 -14 -41.5t-40 -14.5zM199 -9q-42 0 -78.5 19t-58.5 52t-22 75q0 77 65.5 111t209.5 34h69l5 30q10 57 -15 87.5t-88 30.5
q-36 0 -69.5 -7t-66.5 -26q-16 -9 -29 -5t-18.5 15.5t-0.5 24.5t24 23q38 21 82 30.5t87 9.5q102 0 143 -56t26 -149l-41 -257q-6 -40 -44 -40q-39 0 -32 46l6 37q-25 -43 -67 -64t-87 -21zM219 52q54 0 97 36.5t54 101.5l6 39h-50q-77 0 -121.5 -8t-63.5 -27t-19 -52
q0 -44 29 -67t68 -23z" />
    <glyph glyph-name="aring" unicode="&#xe5;" horiz-adv-x="530" 
d="M334 547q-50 0 -84.5 33.5t-34.5 81.5q0 49 34.5 82.5t84.5 33.5t84.5 -33.5t34.5 -82.5q0 -48 -34.5 -81.5t-84.5 -33.5zM334 590q31 0 51.5 21t20.5 51q0 31 -20.5 51.5t-51.5 20.5q-32 0 -52 -20.5t-20 -51.5q0 -30 20 -51t52 -21zM199 -9q-42 0 -78.5 19t-58.5 52
t-22 75q0 77 65.5 111t209.5 34h69l5 30q10 57 -15 87.5t-88 30.5q-36 0 -69.5 -7t-66.5 -26q-16 -9 -29 -5t-18.5 15.5t-0.5 24.5t24 23q38 21 82 30.5t87 9.5q102 0 143 -56t26 -149l-41 -257q-6 -40 -44 -40q-39 0 -32 46l6 37q-25 -43 -67 -64t-87 -21zM219 52
q54 0 97 36.5t54 101.5l6 39h-50q-77 0 -121.5 -8t-63.5 -27t-19 -52q0 -44 29 -67t68 -23z" />
    <glyph glyph-name="ae" unicode="&#xe6;" horiz-adv-x="861" 
d="M210 -9q-44 0 -83 17.5t-63 50t-24 78.5q0 77 65.5 111t209.5 34h72l3 22q21 126 -104 126q-36 0 -69.5 -7t-66.5 -26q-16 -9 -29 -5t-18.5 15.5t-0.5 24.5t24 23q38 21 82 30.5t87 9.5q120 0 153 -88q32 41 78.5 64.5t106.5 23.5q58 0 97.5 -20.5t61.5 -55t28.5 -76.5
t1.5 -84l-2 -11q-2 -20 -26 -20h-341q-8 -78 31.5 -125t117.5 -47q36 0 69.5 8.5t64.5 29.5q22 14 36 5.5t14 -27t-20 -32.5q-34 -24 -80 -36.5t-88 -12.5q-74 0 -124.5 30t-72.5 85q-29 -59 -80 -87t-111 -28zM631 435q-51 0 -85.5 -22t-55 -57.5t-28.5 -73.5h294
q3 42 -8 77t-39.5 55.5t-77.5 20.5zM219 53q54 0 97.5 33t54.5 97l7 45h-52q-77 0 -121.5 -8t-63.5 -27t-19 -51q0 -44 29 -66.5t68 -22.5z" />
    <glyph glyph-name="ccedilla" unicode="&#xe7;" horiz-adv-x="463" 
d="M221 -192q-38 0 -69 10q-16 5 -18 19t7 23.5t26 3.5q23 -9 55 -9q28 0 45 10t17 29q0 26 -35 26q-17 0 -35 -5q-17 -4 -23 2t-1 21l26 82h51l-21 -63q10 1 18 1q34 0 55 -16.5t21 -46.5q0 -39 -34 -63t-85 -24zM258 -9q-108 0 -160.5 60t-52.5 156q0 54 15 105t47 92.5
t81 66t117 24.5q38 0 73.5 -10.5t61.5 -27.5q18 -11 22 -25t-1 -26t-17 -16t-26 5q-48 34 -110 34q-65 0 -104.5 -32.5t-57.5 -83.5t-18 -105q0 -68 32.5 -109.5t107.5 -41.5q23 0 49.5 7.5t52.5 24.5q17 11 31 1.5t15 -27.5t-18 -31q-27 -19 -66 -30t-74 -11z" />
    <glyph glyph-name="egrave" unicode="&#xe8;" horiz-adv-x="532" 
d="M287 558l-107 153q-11 17 -7 30.5t17 19.5t28 2t25 -23l90 -156q8 -17 0.5 -28.5t-21.5 -12.5t-25 15zM270 -9q-104 0 -165 57.5t-61 157.5q0 79 32 144.5t90 105t138 39.5q76 0 120 -34.5t60 -90t9 -116.5q-3 -17 -9.5 -22.5t-21.5 -5.5h-339q-7 -78 33 -124t118 -46
q36 0 69.5 8.5t64.5 29.5q22 14 36 5.5t14 -27t-20 -32.5q-34 -24 -80 -36.5t-88 -12.5zM303 435q-53 0 -88 -22.5t-55.5 -58.5t-28.5 -75h296q6 66 -22.5 111t-101.5 45z" />
    <glyph glyph-name="eacute" unicode="&#xe9;" horiz-adv-x="532" 
d="M355 555q-12 -13 -25 -11.5t-19 13t4 27.5l107 161q12 18 26.5 20t26 -5.5t14 -21.5t-8.5 -28zM270 -9q-104 0 -165 57.5t-61 157.5q0 79 32 144.5t90 105t138 39.5q76 0 120 -34.5t60 -90t9 -116.5q-3 -17 -9.5 -22.5t-21.5 -5.5h-339q-7 -78 33 -124t118 -46
q36 0 69.5 8.5t64.5 29.5q22 14 36 5.5t14 -27t-20 -32.5q-34 -24 -80 -36.5t-88 -12.5zM303 435q-53 0 -88 -22.5t-55.5 -58.5t-28.5 -75h296q6 66 -22.5 111t-101.5 45z" />
    <glyph glyph-name="ecircumflex" unicode="&#xea;" horiz-adv-x="532" 
d="M455 580q8 -16 -1 -26.5t-23 -10.5t-21 14l-72 142l-106 -143q-10 -13 -23.5 -12.5t-20.5 11t4 26.5l99 153q20 32 52 32q31 0 45 -32zM270 -9q-104 0 -165 57.5t-61 157.5q0 79 32 144.5t90 105t138 39.5q76 0 120 -34.5t60 -90t9 -116.5q-3 -17 -9.5 -22.5t-21.5 -5.5
h-339q-7 -78 33 -124t118 -46q36 0 69.5 8.5t64.5 29.5q22 14 36 5.5t14 -27t-20 -32.5q-34 -24 -80 -36.5t-88 -12.5zM303 435q-53 0 -88 -22.5t-55.5 -58.5t-28.5 -75h296q6 66 -22.5 111t-101.5 45z" />
    <glyph glyph-name="edieresis" unicode="&#xeb;" horiz-adv-x="532" 
d="M419 606q-40 0 -40 37q0 26 14 41t40 15q40 0 40 -37q0 -27 -14 -41.5t-40 -14.5zM245 606q-41 0 -41 37q0 26 14 41t40 15q41 0 41 -37q0 -27 -14 -41.5t-40 -14.5zM270 -9q-104 0 -165 57.5t-61 157.5q0 79 32 144.5t90 105t138 39.5q76 0 120 -34.5t60 -90t9 -116.5
q-3 -17 -9.5 -22.5t-21.5 -5.5h-339q-7 -78 33 -124t118 -46q36 0 69.5 8.5t64.5 29.5q22 14 36 5.5t14 -27t-20 -32.5q-34 -24 -80 -36.5t-88 -12.5zM303 435q-53 0 -88 -22.5t-55.5 -58.5t-28.5 -75h296q6 66 -22.5 111t-101.5 45z" />
    <glyph glyph-name="igrave" unicode="&#xec;" horiz-adv-x="232" 
d="M130 558l-107 153q-11 17 -7 30.5t17 19.5t28 2t25 -23l90 -156q8 -17 0.5 -28.5t-21.5 -12.5t-25 15zM76 -7q-19 0 -27.5 12.5t-5.5 35.5l66 412q6 40 46 40q19 0 28 -12.5t5 -34.5l-65 -413q-7 -40 -47 -40z" />
    <glyph glyph-name="iacute" unicode="&#xed;" horiz-adv-x="232" 
d="M198 555q-12 -13 -25 -11.5t-19 13t4 27.5l107 161q12 18 26.5 20t26 -5.5t14 -21.5t-8.5 -28zM76 -7q-19 0 -27.5 12.5t-5.5 35.5l66 412q6 40 46 40q19 0 28 -12.5t5 -34.5l-65 -413q-7 -40 -47 -40z" />
    <glyph glyph-name="icircumflex" unicode="&#xee;" horiz-adv-x="232" 
d="M298 580q8 -16 -1 -26.5t-23 -10.5t-21 14l-72 142l-106 -143q-10 -13 -23.5 -12.5t-20.5 11t4 26.5l99 153q20 32 52 32q31 0 45 -32zM76 -7q-19 0 -27.5 12.5t-5.5 35.5l66 412q6 40 46 40q19 0 28 -12.5t5 -34.5l-65 -413q-7 -40 -47 -40z" />
    <glyph glyph-name="idieresis" unicode="&#xef;" horiz-adv-x="232" 
d="M262 606q-40 0 -40 37q0 26 14 41t40 15q40 0 40 -37q0 -27 -14 -41.5t-40 -14.5zM88 606q-41 0 -41 37q0 26 14 41t40 15q41 0 41 -37q0 -27 -14 -41.5t-40 -14.5zM76 -7q-19 0 -27.5 12.5t-5.5 35.5l66 412q6 40 46 40q19 0 28 -12.5t5 -34.5l-65 -413q-7 -40 -47 -40z
" />
    <glyph glyph-name="eth" unicode="&#xf0;" horiz-adv-x="560" 
d="M253 -9q-60 0 -108 24.5t-76 68.5t-28 104q0 78 32.5 137.5t88.5 93t127 33.5q52 0 94 -20t64 -63q-12 144 -108 223l-132 -57q-16 -6 -26 2.5t-9.5 22t16.5 20.5l103 44q-31 18 -70 30q-21 6 -24.5 22t8 27t34.5 5q35 -11 65 -24t56 -30l122 52q18 8 28 -1t9 -22.5
t-18 -20.5l-97 -42q61 -55 89 -133.5t27 -172.5q0 -63 -15.5 -121t-47.5 -103.5t-83 -72t-121 -26.5zM259 57q47 0 85.5 23t61.5 67t23 106q0 64 -36 99t-99 35q-48 0 -86.5 -23t-61.5 -66.5t-23 -106.5t36.5 -98.5t99.5 -35.5z" />
    <glyph glyph-name="ntilde" unicode="&#xf1;" horiz-adv-x="568" 
d="M181 588q-25 2 -19 27q13 54 42 82.5t70 28.5q24 0 41.5 -11.5t32 -26.5t29 -26.5t33.5 -11.5q22 0 39 16.5t25 45.5q6 21 28 19q25 -1 19 -27q-13 -54 -42 -82.5t-69 -28.5q-25 0 -42.5 11.5t-32.5 26.5t-29.5 26.5t-32.5 11.5q-22 0 -39 -16.5t-25 -44.5
q-6 -22 -28 -20zM77 -6q-19 0 -27.5 13t-5.5 35l65 411q6 40 47 40q18 0 26.5 -11.5t4.5 -33.5l-7 -45q27 44 71.5 68t103.5 24q81 0 122.5 -49t24.5 -152l-41 -261q-6 -39 -46 -39q-19 0 -28 12.5t-6 34.5l40 253q22 135 -90 135q-73 0 -116 -45t-55 -120l-36 -230
q-6 -40 -47 -40z" />
    <glyph glyph-name="ograve" unicode="&#xf2;" horiz-adv-x="556" 
d="M293 558l-107 153q-11 17 -7 30.5t17 19.5t28 2t25 -23l90 -156q8 -17 0.5 -28.5t-21.5 -12.5t-25 15zM255 -9q-98 0 -154.5 57.5t-56.5 156.5q0 82 32 148t89.5 104t135.5 38q98 0 154 -57.5t56 -156.5q0 -82 -31.5 -147.5t-89.5 -104t-135 -38.5zM258 56q55 0 93.5 31
t58 82.5t19.5 114.5q0 72 -34.5 109t-96.5 37q-55 0 -93.5 -30.5t-58.5 -82.5t-20 -115q0 -71 35 -108.5t97 -37.5z" />
    <glyph glyph-name="oacute" unicode="&#xf3;" horiz-adv-x="556" 
d="M361 555q-12 -13 -25 -11.5t-19 13t4 27.5l107 161q12 18 26.5 20t26 -5.5t14 -21.5t-8.5 -28zM255 -9q-98 0 -154.5 57.5t-56.5 156.5q0 82 32 148t89.5 104t135.5 38q98 0 154 -57.5t56 -156.5q0 -82 -31.5 -147.5t-89.5 -104t-135 -38.5zM258 56q55 0 93.5 31t58 82.5
t19.5 114.5q0 72 -34.5 109t-96.5 37q-55 0 -93.5 -30.5t-58.5 -82.5t-20 -115q0 -71 35 -108.5t97 -37.5z" />
    <glyph glyph-name="ocircumflex" unicode="&#xf4;" horiz-adv-x="556" 
d="M461 580q8 -16 -1 -26.5t-23 -10.5t-21 14l-72 142l-106 -143q-10 -13 -23.5 -12.5t-20.5 11t4 26.5l99 153q20 32 52 32q31 0 45 -32zM255 -9q-98 0 -154.5 57.5t-56.5 156.5q0 82 32 148t89.5 104t135.5 38q98 0 154 -57.5t56 -156.5q0 -82 -31.5 -147.5t-89.5 -104
t-135 -38.5zM258 56q55 0 93.5 31t58 82.5t19.5 114.5q0 72 -34.5 109t-96.5 37q-55 0 -93.5 -30.5t-58.5 -82.5t-20 -115q0 -71 35 -108.5t97 -37.5z" />
    <glyph glyph-name="otilde" unicode="&#xf5;" horiz-adv-x="556" 
d="M177 588q-25 2 -19 27q13 54 42 82.5t70 28.5q24 0 41.5 -11.5t32 -26.5t29 -26.5t33.5 -11.5q22 0 39 16.5t25 45.5q6 21 28 19q25 -1 19 -27q-13 -54 -42 -82.5t-69 -28.5q-25 0 -42.5 11.5t-32.5 26.5t-29.5 26.5t-32.5 11.5q-22 0 -39 -16.5t-25 -44.5
q-6 -22 -28 -20zM255 -9q-98 0 -154.5 57.5t-56.5 156.5q0 82 32 148t89.5 104t135.5 38q98 0 154 -57.5t56 -156.5q0 -82 -31.5 -147.5t-89.5 -104t-135 -38.5zM258 56q55 0 93.5 31t58 82.5t19.5 114.5q0 72 -34.5 109t-96.5 37q-55 0 -93.5 -30.5t-58.5 -82.5t-20 -115
q0 -71 35 -108.5t97 -37.5z" />
    <glyph glyph-name="odieresis" unicode="&#xf6;" horiz-adv-x="556" 
d="M425 606q-40 0 -40 37q0 26 14 41t40 15q40 0 40 -37q0 -27 -14 -41.5t-40 -14.5zM251 606q-41 0 -41 37q0 26 14 41t40 15q41 0 41 -37q0 -27 -14 -41.5t-40 -14.5zM255 -9q-98 0 -154.5 57.5t-56.5 156.5q0 82 32 148t89.5 104t135.5 38q98 0 154 -57.5t56 -156.5
q0 -82 -31.5 -147.5t-89.5 -104t-135 -38.5zM258 56q55 0 93.5 31t58 82.5t19.5 114.5q0 72 -34.5 109t-96.5 37q-55 0 -93.5 -30.5t-58.5 -82.5t-20 -115q0 -71 35 -108.5t97 -37.5z" />
    <glyph glyph-name="divide" unicode="&#xf7;" horiz-adv-x="600" 
d="M325 439q-19 0 -29.5 10.5t-10.5 27.5q0 24 14.5 40t40.5 16q40 0 40 -39q0 -24 -14.5 -39.5t-40.5 -15.5zM89 256q-33 0 -33 25q0 37 37 37h431q34 0 34 -26q0 -36 -37 -36h-432zM262 41q-19 0 -29.5 10.5t-10.5 28.5q0 23 14.5 39t40.5 16q39 0 39 -38q0 -24 -14 -40
t-40 -16z" />
    <glyph glyph-name="oslash" unicode="&#xf8;" horiz-adv-x="556" 
d="M116 -24q-11 -14 -25 -11t-20.5 15.5t4.5 28.5l28 38q-58 57 -58 159q0 82 32 147.5t89.5 103.5t134.5 38q64 0 112 -25l29 40q11 14 25 11t20.5 -16t-5.5 -28l-28 -38q58 -57 58 -158q0 -82 -32 -147.5t-89.5 -104t-134.5 -38.5q-64 0 -111 25zM121 202q0 -60 25 -97
l227 311q-31 17 -76 17q-56 0 -95.5 -30.5t-60 -83t-20.5 -117.5zM259 53q56 0 95.5 31t60 83.5t20.5 117.5q0 59 -24 95l-227 -310q31 -17 75 -17z" />
    <glyph glyph-name="ugrave" unicode="&#xf9;" horiz-adv-x="561" 
d="M290 559l-107 153q-11 17 -7 30.5t17 19.5t28 2t25 -23l90 -156q8 -17 0.5 -28.5t-21.5 -12.5t-25 15zM211 -9q-79 0 -120.5 49t-24.5 153l41 262q6 38 45 38q20 0 29.5 -12t5.5 -33l-40 -255q-21 -135 88 -135q69 0 112 45t54 120l36 232q6 38 45 38q42 0 36 -44
l-66 -417q-6 -39 -44 -39q-41 0 -34 44l6 45q-27 -44 -70.5 -67.5t-98.5 -23.5z" />
    <glyph glyph-name="uacute" unicode="&#xfa;" horiz-adv-x="561" 
d="M358 556q-12 -13 -25 -11.5t-19 13t4 27.5l107 161q12 18 26.5 20t26 -5.5t14 -21.5t-8.5 -28zM211 -9q-79 0 -120.5 49t-24.5 153l41 262q6 38 45 38q20 0 29.5 -12t5.5 -33l-40 -255q-21 -135 88 -135q69 0 112 45t54 120l36 232q6 38 45 38q42 0 36 -44l-66 -417
q-6 -39 -44 -39q-41 0 -34 44l6 45q-27 -44 -70.5 -67.5t-98.5 -23.5z" />
    <glyph glyph-name="ucircumflex" unicode="&#xfb;" horiz-adv-x="561" 
d="M458 581q8 -16 -1 -26.5t-23 -10.5t-21 14l-72 142l-106 -143q-10 -13 -23.5 -12.5t-20.5 11t4 26.5l99 153q20 32 52 32q31 0 45 -32zM211 -9q-79 0 -120.5 49t-24.5 153l41 262q6 38 45 38q20 0 29.5 -12t5.5 -33l-40 -255q-21 -135 88 -135q69 0 112 45t54 120l36 232
q6 38 45 38q42 0 36 -44l-66 -417q-6 -39 -44 -39q-41 0 -34 44l6 45q-27 -44 -70.5 -67.5t-98.5 -23.5z" />
    <glyph glyph-name="udieresis" unicode="&#xfc;" horiz-adv-x="561" 
d="M422 607q-40 0 -40 37q0 26 14 41t40 15q40 0 40 -37q0 -27 -14 -41.5t-40 -14.5zM248 607q-41 0 -41 37q0 26 14 41t40 15q41 0 41 -37q0 -27 -14 -41.5t-40 -14.5zM211 -9q-79 0 -120.5 49t-24.5 153l41 262q6 38 45 38q20 0 29.5 -12t5.5 -33l-40 -255
q-21 -135 88 -135q69 0 112 45t54 120l36 232q6 38 45 38q42 0 36 -44l-66 -417q-6 -39 -44 -39q-41 0 -34 44l6 45q-27 -44 -70.5 -67.5t-98.5 -23.5z" />
    <glyph glyph-name="yacute" unicode="&#xfd;" horiz-adv-x="514" 
d="M327 555q-12 -13 -25 -11.5t-19 13t4 27.5l107 161q12 18 26.5 20t26 -5.5t14 -21.5t-8.5 -28zM119 -187q-24 0 -31 16.5t6 38.5l83 140l-115 428q-7 25 3.5 41t33.5 16q18 0 26 -8.5t14 -28.5l90 -364l214 372q16 29 44 29q24 0 32.5 -16.5t-4.5 -38.5l-352 -595
q-9 -15 -18.5 -22.5t-25.5 -7.5z" />
    <glyph glyph-name="thorn" unicode="&#xfe;" horiz-adv-x="583" 
d="M48 -187q-19 0 -28 12.5t-5 34.5l128 811q7 41 47 41q41 0 33 -46l-40 -258q27 41 70 64t98 23q85 0 136.5 -56t51.5 -152q0 -80 -28.5 -147.5t-83 -108t-132.5 -40.5q-54 0 -98 25.5t-64 77.5l-39 -242q-6 -39 -46 -39zM285 56q56 0 94 31t58 82.5t20 114.5
q0 72 -35 109t-96 37q-56 0 -94 -30.5t-58 -82.5t-20 -115q0 -71 35 -108.5t96 -37.5z" />
    <glyph glyph-name="ydieresis" unicode="&#xff;" horiz-adv-x="514" 
d="M391 606q-40 0 -40 37q0 26 14 41t40 15q40 0 40 -37q0 -27 -14 -41.5t-40 -14.5zM217 606q-41 0 -41 37q0 26 14 41t40 15q41 0 41 -37q0 -27 -14 -41.5t-40 -14.5zM119 -187q-24 0 -31 16.5t6 38.5l83 140l-115 428q-7 25 3.5 41t33.5 16q18 0 26 -8.5t14 -28.5
l90 -364l214 372q16 29 44 29q24 0 32.5 -16.5t-4.5 -38.5l-352 -595q-9 -15 -18.5 -22.5t-25.5 -7.5z" />
    <glyph glyph-name="Amacron" unicode="&#x100;" horiz-adv-x="729" 
d="M321 814q-30 0 -30 24q0 31 33 31h277q30 0 30 -23q0 -32 -32 -32h-278zM40 -7q-23 0 -33.5 15.5t2.5 38.5l382 636q17 29 48 29q33 0 43 -33l176 -630q8 -29 -2.5 -42.5t-28.5 -13.5q-34 0 -44 39l-39 148h-368l-94 -161q-15 -26 -42 -26zM427 609l-211 -360h309
l-96 360h-2z" />
    <glyph glyph-name="amacron" unicode="&#x101;" horiz-adv-x="530" 
d="M207 625q-30 0 -30 23q0 32 33 32h247q30 0 30 -23q0 -32 -33 -32h-247zM199 -9q-42 0 -78.5 19t-58.5 52t-22 75q0 77 65.5 111t209.5 34h69l5 30q10 57 -15 87.5t-88 30.5q-36 0 -69.5 -7t-66.5 -26q-16 -9 -29 -5t-18.5 15.5t-0.5 24.5t24 23q38 21 82 30.5t87 9.5
q102 0 143 -56t26 -149l-41 -257q-6 -40 -44 -40q-39 0 -32 46l6 37q-25 -43 -67 -64t-87 -21zM219 52q54 0 97 36.5t54 101.5l6 39h-50q-77 0 -121.5 -8t-63.5 -27t-19 -52q0 -44 29 -67t68 -23z" />
    <glyph glyph-name="Abreve" unicode="&#x102;" horiz-adv-x="729" 
d="M453 760q-67 0 -108.5 40t-46.5 108q-3 27 22 30q27 3 29 -23q3 -48 32 -74.5t75 -26.5q45 0 78 26.5t46 75.5q7 25 30 22q12 -2 18 -11t1 -24q-17 -67 -65 -105t-111 -38zM40 -7q-23 0 -33.5 15.5t2.5 38.5l382 636q17 29 48 29q33 0 43 -33l176 -630q8 -29 -2.5 -42.5
t-28.5 -13.5q-34 0 -44 39l-39 148h-368l-94 -161q-15 -26 -42 -26zM427 609l-211 -360h309l-96 360h-2z" />
    <glyph glyph-name="abreve" unicode="&#x103;" horiz-adv-x="530" 
d="M324 549q-62 0 -100 44.5t-40 122.5q-1 26 23 29q11 2 19.5 -4t8.5 -20q2 -57 26 -87t66 -30q41 0 70 30.5t41 88.5q5 24 29 22q13 -1 18.5 -10.5t1.5 -25.5q-16 -76 -59 -118t-104 -42zM199 -9q-42 0 -78.5 19t-58.5 52t-22 75q0 77 65.5 111t209.5 34h69l5 30
q10 57 -15 87.5t-88 30.5q-36 0 -69.5 -7t-66.5 -26q-16 -9 -29 -5t-18.5 15.5t-0.5 24.5t24 23q38 21 82 30.5t87 9.5q102 0 143 -56t26 -149l-41 -257q-6 -40 -44 -40q-39 0 -32 46l6 37q-25 -43 -67 -64t-87 -21zM219 52q54 0 97 36.5t54 101.5l6 39h-50q-77 0 -121.5 -8
t-63.5 -27t-19 -52q0 -44 29 -67t68 -23z" />
    <glyph glyph-name="Aogonek" unicode="&#x104;" horiz-adv-x="729" 
d="M620 -192q-48 0 -73 25t-25 64q0 37 18.5 66.5t49.5 51.5q-4 7 -7 17l-39 148h-368l-94 -161q-15 -26 -42 -26q-23 0 -33.5 15.5t2.5 38.5l382 636q17 29 48 29q33 0 43 -33l176 -630q6 -21 2 -34t-16 -18q-64 -36 -64 -88q0 -23 14 -37t39 -14q17 0 37 6q16 5 22.5 -5
t4 -23t-14.5 -18q-14 -5 -31 -7.5t-31 -2.5zM427 609l-211 -360h309l-96 360h-2z" />
    <glyph glyph-name="aogonek" unicode="&#x105;" horiz-adv-x="530" 
d="M367 -192q-48 0 -73 25t-25 64t20.5 70.5t57.5 53.5q-1 8 0 18l6 37q-25 -43 -67 -64t-87 -21q-42 0 -78.5 19t-58.5 52t-22 75q0 77 65.5 111t209.5 34h69l5 30q10 57 -15 87.5t-88 30.5q-36 0 -69.5 -7t-66.5 -26q-16 -9 -29 -5t-18.5 15.5t-0.5 24.5t24 23
q38 21 82 30.5t87 9.5q102 0 143 -56t26 -149l-41 -257q-5 -30 -30 -39q-33 -14 -49.5 -36t-16.5 -49q0 -23 14 -37t39 -14q17 0 37 6q16 5 22.5 -5t4 -23t-14.5 -18q-14 -5 -31 -7.5t-31 -2.5zM219 52q54 0 97 36.5t54 101.5l6 39h-50q-77 0 -121.5 -8t-63.5 -27t-19 -52
q0 -44 29 -67t68 -23z" />
    <glyph glyph-name="Cacute" unicode="&#x106;" horiz-adv-x="673" 
d="M483 769q-13 -13 -26.5 -10t-19 15t4.5 25l99 130q12 16 26.5 17.5t26 -6.5t14 -21t-10.5 -27zM382 -9q-90 0 -158.5 34.5t-107.5 104.5t-39 177q0 87 25 161t72.5 129t114.5 86t152 31q129 0 212 -72q15 -12 16 -27.5t-7 -28t-21.5 -16.5t-28.5 8q-39 33 -81.5 47
t-92.5 14q-85 0 -146 -43t-94 -117.5t-33 -169.5q0 -130 59.5 -186.5t165.5 -56.5q46 0 86 13.5t80 44.5q16 11 29.5 7.5t21 -16t5 -27t-17.5 -26.5q-46 -36 -100 -53.5t-112 -17.5z" />
    <glyph glyph-name="cacute" unicode="&#x107;" horiz-adv-x="463" 
d="M346 555q-12 -13 -25 -11.5t-19 13t4 27.5l107 161q12 18 26.5 20t26 -5.5t14 -21.5t-8.5 -28zM258 -9q-108 0 -160.5 60t-52.5 156q0 54 15 105t47 92.5t81 66t117 24.5q38 0 73.5 -10.5t61.5 -27.5q18 -11 22 -25t-1 -26t-17 -16t-26 5q-48 34 -110 34
q-65 0 -104.5 -32.5t-57.5 -83.5t-18 -105q0 -68 32.5 -109.5t107.5 -41.5q23 0 49.5 7.5t52.5 24.5q17 11 31 1.5t15 -27.5t-18 -31q-27 -19 -66 -30t-74 -11z" />
    <glyph glyph-name="Ccircumflex" unicode="&#x108;" horiz-adv-x="673" 
d="M342 767q-12 -12 -25.5 -10t-19.5 12.5t5 24.5l100 122q25 31 57 31q18 0 29 -9t21 -25l73 -119q10 -16 2 -26.5t-23 -11t-27 14.5l-81 113zM382 -9q-90 0 -158.5 34.5t-107.5 104.5t-39 177q0 87 25 161t72.5 129t114.5 86t152 31q129 0 212 -72q15 -12 16 -27.5t-7 -28
t-21.5 -16.5t-28.5 8q-39 33 -81.5 47t-92.5 14q-85 0 -146 -43t-94 -117.5t-33 -169.5q0 -130 59.5 -186.5t165.5 -56.5q46 0 86 13.5t80 44.5q16 11 29.5 7.5t21 -16t5 -27t-17.5 -26.5q-46 -36 -100 -53.5t-112 -17.5z" />
    <glyph glyph-name="ccircumflex" unicode="&#x109;" horiz-adv-x="463" 
d="M446 580q8 -16 -1 -26.5t-23 -10.5t-21 14l-72 142l-106 -143q-10 -13 -23.5 -12.5t-20.5 11t4 26.5l99 153q20 32 52 32q31 0 45 -32zM258 -9q-108 0 -160.5 60t-52.5 156q0 54 15 105t47 92.5t81 66t117 24.5q38 0 73.5 -10.5t61.5 -27.5q18 -11 22 -25t-1 -26t-17 -16
t-26 5q-48 34 -110 34q-65 0 -104.5 -32.5t-57.5 -83.5t-18 -105q0 -68 32.5 -109.5t107.5 -41.5q23 0 49.5 7.5t52.5 24.5q17 11 31 1.5t15 -27.5t-18 -31q-27 -19 -66 -30t-74 -11z" />
    <glyph glyph-name="Cdotaccent" unicode="&#x10a;" horiz-adv-x="673" 
d="M453 803q-43 0 -43 38q0 27 15.5 42t42.5 15q43 0 43 -38q0 -26 -15.5 -41.5t-42.5 -15.5zM382 -9q-90 0 -158.5 34.5t-107.5 104.5t-39 177q0 87 25 161t72.5 129t114.5 86t152 31q129 0 212 -72q15 -12 16 -27.5t-7 -28t-21.5 -16.5t-28.5 8q-39 33 -81.5 47t-92.5 14
q-85 0 -146 -43t-94 -117.5t-33 -169.5q0 -130 59.5 -186.5t165.5 -56.5q46 0 86 13.5t80 44.5q16 11 29.5 7.5t21 -16t5 -27t-17.5 -26.5q-46 -36 -100 -53.5t-112 -17.5z" />
    <glyph glyph-name="cdotaccent" unicode="&#x10b;" horiz-adv-x="463" 
d="M322 605q-43 0 -43 38q0 27 15.5 42.5t42.5 15.5q43 0 43 -38q0 -27 -15.5 -42.5t-42.5 -15.5zM258 -9q-108 0 -160.5 60t-52.5 156q0 54 15 105t47 92.5t81 66t117 24.5q38 0 73.5 -10.5t61.5 -27.5q18 -11 22 -25t-1 -26t-17 -16t-26 5q-48 34 -110 34
q-65 0 -104.5 -32.5t-57.5 -83.5t-18 -105q0 -68 32.5 -109.5t107.5 -41.5q23 0 49.5 7.5t52.5 24.5q17 11 31 1.5t15 -27.5t-18 -31q-27 -19 -66 -30t-74 -11z" />
    <glyph glyph-name="Ccaron" unicode="&#x10c;" horiz-adv-x="673" 
d="M445 756q-18 0 -29.5 8.5t-20.5 24.5l-74 119q-9 16 -1.5 26.5t22 11t26.5 -15.5l81 -112l111 117q12 12 26 10t20.5 -12.5t-4.5 -23.5l-99 -122q-25 -31 -58 -31zM382 -9q-90 0 -158.5 34.5t-107.5 104.5t-39 177q0 87 25 161t72.5 129t114.5 86t152 31q129 0 212 -72
q15 -12 16 -27.5t-7 -28t-21.5 -16.5t-28.5 8q-39 33 -81.5 47t-92.5 14q-85 0 -146 -43t-94 -117.5t-33 -169.5q0 -130 59.5 -186.5t165.5 -56.5q46 0 86 13.5t80 44.5q16 11 29.5 7.5t21 -16t5 -27t-17.5 -26.5q-46 -36 -100 -53.5t-112 -17.5z" />
    <glyph glyph-name="ccaron" unicode="&#x10d;" horiz-adv-x="463" 
d="M311 542q-32 0 -46 32l-66 153q-8 16 1 26.5t23 10t22 -15.5l72 -143l107 145q11 14 24.5 13t20 -11.5t-3.5 -25.5l-98 -150q-22 -34 -56 -34zM258 -9q-108 0 -160.5 60t-52.5 156q0 54 15 105t47 92.5t81 66t117 24.5q38 0 73.5 -10.5t61.5 -27.5q18 -11 22 -25t-1 -26
t-17 -16t-26 5q-48 34 -110 34q-65 0 -104.5 -32.5t-57.5 -83.5t-18 -105q0 -68 32.5 -109.5t107.5 -41.5q23 0 49.5 7.5t52.5 24.5q17 11 31 1.5t15 -27.5t-18 -31q-27 -19 -66 -30t-74 -11z" />
    <glyph glyph-name="Dcaron" unicode="&#x10e;" horiz-adv-x="742" 
d="M442 756q-18 0 -29.5 8.5t-20.5 24.5l-74 119q-9 16 -1.5 26.5t22 11t26.5 -15.5l81 -112l111 117q12 12 26 10t20.5 -12.5t-4.5 -23.5l-99 -122q-25 -31 -58 -31zM98 0q-23 0 -34.5 13t-7.5 36l98 615q6 41 48 41h166q160 0 247 -77.5t87 -217.5q0 -85 -24 -159
t-73 -130.5t-124 -88.5t-179 -32h-204zM142 70h162q84 0 143 26.5t96 73.5t54.5 108.5t17.5 130.5q0 110 -62.5 168t-185.5 58h-135z" />
    <glyph glyph-name="dcaron" unicode="&#x10f;" horiz-adv-x="583" 
d="M616 510q-22 0 -18 24l24 148q5 30 36 30q16 0 23 -10t2 -27l-41 -144q-6 -21 -26 -21zM231 -9q-84 0 -135.5 56t-51.5 152q0 81 28.5 148.5t83 107.5t132.5 40q55 0 98.5 -25.5t63.5 -78.5l45 282q5 39 46 39t33 -47l-100 -631q-6 -41 -46 -41q-19 0 -27.5 13t-4.5 36
l7 40q-28 -42 -72 -66.5t-100 -24.5zM257 56q56 0 94 31t58 82.5t20 114.5q0 72 -35 109t-96 37q-56 0 -94 -30.5t-58 -82.5t-20 -115q0 -71 35 -108.5t96 -37.5z" />
    <glyph glyph-name="Dcroat" unicode="&#x110;" horiz-adv-x="742" 
d="M45 326q-35 0 -35 27q0 37 39 37h307q35 0 35 -26q0 -38 -39 -38h-307zM98 0q-23 0 -34.5 13t-7.5 36l98 615q6 41 48 41h166q160 0 247 -77.5t87 -217.5q0 -85 -24 -159t-73 -130.5t-124 -88.5t-179 -32h-204zM142 70h162q84 0 143 26.5t96 73.5t54.5 108.5t17.5 130.5
q0 110 -62.5 168t-185.5 58h-135z" />
    <glyph glyph-name="dcroat" unicode="&#x111;" horiz-adv-x="583" 
d="M231 -9q-84 0 -135.5 56t-51.5 152q0 81 28.5 148.5t83 107.5t132.5 40q55 0 98.5 -25.5t63.5 -77.5l25 162h-160q-34 0 -34 24q0 17 10.5 26.5t27.5 9.5h166l10 58q5 40 46 40t33 -46l-8 -52h58q35 0 35 -25q0 -17 -10.5 -26t-27.5 -9h-65l-82 -520q-7 -41 -47 -41
q-19 0 -27 13t-4 36l6 39q-28 -42 -71.5 -66t-99.5 -24zM257 56q56 0 94 31t58 82.5t20 114.5q0 72 -35 109t-96 37q-56 0 -94 -30.5t-58 -82.5t-20 -115q0 -71 35 -108.5t96 -37.5z" />
    <glyph glyph-name="Emacron" unicode="&#x112;" horiz-adv-x="583" 
d="M280 814q-30 0 -30 24q0 31 33 31h277q30 0 30 -23q0 -32 -32 -32h-278zM98 0q-49 0 -42 49l98 615q6 41 48 41h369q37 0 37 -27q0 -21 -11.5 -31.5t-29.5 -10.5h-337l-39 -244h310q36 0 36 -27q0 -21 -11.5 -31.5t-28.5 -10.5h-317l-41 -254h331q37 0 37 -28
q0 -21 -11.5 -31t-29.5 -10h-368z" />
    <glyph glyph-name="emacron" unicode="&#x113;" horiz-adv-x="532" 
d="M214 625q-30 0 -30 23q0 32 33 32h247q30 0 30 -23q0 -32 -33 -32h-247zM270 -9q-104 0 -165 57.5t-61 157.5q0 79 32 144.5t90 105t138 39.5q76 0 120 -34.5t60 -90t9 -116.5q-3 -17 -9.5 -22.5t-21.5 -5.5h-339q-7 -78 33 -124t118 -46q36 0 69.5 8.5t64.5 29.5
q22 14 36 5.5t14 -27t-20 -32.5q-34 -24 -80 -36.5t-88 -12.5zM303 435q-53 0 -88 -22.5t-55.5 -58.5t-28.5 -75h296q6 66 -22.5 111t-101.5 45z" />
    <glyph glyph-name="Ebreve" unicode="&#x114;" horiz-adv-x="583" 
d="M412 760q-67 0 -108.5 40t-46.5 108q-3 27 22 30q27 3 29 -23q3 -48 32 -74.5t75 -26.5q45 0 78 26.5t46 75.5q7 25 30 22q12 -2 18 -11t1 -24q-17 -67 -65 -105t-111 -38zM98 0q-49 0 -42 49l98 615q6 41 48 41h369q37 0 37 -27q0 -21 -11.5 -31.5t-29.5 -10.5h-337
l-39 -244h310q36 0 36 -27q0 -21 -11.5 -31.5t-28.5 -10.5h-317l-41 -254h331q37 0 37 -28q0 -21 -11.5 -31t-29.5 -10h-368z" />
    <glyph glyph-name="ebreve" unicode="&#x115;" horiz-adv-x="532" 
d="M331 549q-62 0 -100 44.5t-40 122.5q-1 26 23 29q11 2 19.5 -4t8.5 -20q2 -57 26 -87t66 -30q41 0 70 30.5t41 88.5q5 24 29 22q13 -1 18.5 -10.5t1.5 -25.5q-16 -76 -59 -118t-104 -42zM270 -9q-104 0 -165 57.5t-61 157.5q0 79 32 144.5t90 105t138 39.5
q76 0 120 -34.5t60 -90t9 -116.5q-3 -17 -9.5 -22.5t-21.5 -5.5h-339q-7 -78 33 -124t118 -46q36 0 69.5 8.5t64.5 29.5q22 14 36 5.5t14 -27t-20 -32.5q-34 -24 -80 -36.5t-88 -12.5zM303 435q-53 0 -88 -22.5t-55.5 -58.5t-28.5 -75h296q6 66 -22.5 111t-101.5 45z" />
    <glyph glyph-name="Edotaccent" unicode="&#x116;" horiz-adv-x="583" 
d="M414 803q-43 0 -43 38q0 27 15.5 42t42.5 15q43 0 43 -38q0 -26 -15.5 -41.5t-42.5 -15.5zM98 0q-49 0 -42 49l98 615q6 41 48 41h369q37 0 37 -27q0 -21 -11.5 -31.5t-29.5 -10.5h-337l-39 -244h310q36 0 36 -27q0 -21 -11.5 -31.5t-28.5 -10.5h-317l-41 -254h331
q37 0 37 -28q0 -21 -11.5 -31t-29.5 -10h-368z" />
    <glyph glyph-name="edotaccent" unicode="&#x117;" horiz-adv-x="532" 
d="M331 605q-43 0 -43 38q0 27 15.5 42.5t42.5 15.5q43 0 43 -38q0 -27 -15.5 -42.5t-42.5 -15.5zM270 -9q-104 0 -165 57.5t-61 157.5q0 79 32 144.5t90 105t138 39.5q76 0 120 -34.5t60 -90t9 -116.5q-3 -17 -9.5 -22.5t-21.5 -5.5h-339q-7 -78 33 -124t118 -46
q36 0 69.5 8.5t64.5 29.5q22 14 36 5.5t14 -27t-20 -32.5q-34 -24 -80 -36.5t-88 -12.5zM303 435q-53 0 -88 -22.5t-55.5 -58.5t-28.5 -75h296q6 66 -22.5 111t-101.5 45z" />
    <glyph glyph-name="Eogonek" unicode="&#x118;" horiz-adv-x="583" 
d="M418 -192q-48 0 -73 25t-25 64q0 46 28.5 82t77.5 57l26 -36q-36 -15 -55 -39t-19 -52q0 -23 14 -37t39 -14q17 0 37 6q16 5 22.5 -5t4 -23t-14.5 -18q-14 -5 -31 -7.5t-31 -2.5zM98 0q-49 0 -42 49l98 615q6 41 48 41h369q37 0 37 -27q0 -21 -11.5 -31.5t-29.5 -10.5
h-337l-39 -244h310q36 0 36 -27q0 -21 -11.5 -31.5t-28.5 -10.5h-317l-41 -254h331q37 0 37 -28q0 -21 -11.5 -31t-29.5 -10h-368z" />
    <glyph glyph-name="eogonek" unicode="&#x119;" horiz-adv-x="532" 
d="M286 -192q-48 0 -73 25t-25 64q0 46 28.5 82t77.5 57l26 -36q-36 -15 -55 -39t-19 -52q0 -23 14 -37t39 -14q17 0 37 6q16 5 22.5 -5t4 -23t-14.5 -18q-14 -5 -31 -7.5t-31 -2.5zM270 -9q-104 0 -165 57.5t-61 157.5q0 79 32 144.5t90 105t138 39.5q76 0 120 -34.5
t60 -90t9 -116.5q-3 -17 -9.5 -22.5t-21.5 -5.5h-339q-7 -78 33 -124t118 -46q36 0 69.5 8.5t64.5 29.5q22 14 36 5.5t14 -27t-20 -32.5q-34 -24 -80 -36.5t-88 -12.5zM303 435q-53 0 -88 -22.5t-55.5 -58.5t-28.5 -75h296q6 66 -22.5 111t-101.5 45z" />
    <glyph glyph-name="Ecaron" unicode="&#x11a;" horiz-adv-x="583" 
d="M406 756q-18 0 -29.5 8.5t-20.5 24.5l-74 119q-9 16 -1.5 26.5t22 11t26.5 -15.5l81 -112l111 117q12 12 26 10t20.5 -12.5t-4.5 -23.5l-99 -122q-25 -31 -58 -31zM98 0q-49 0 -42 49l98 615q6 41 48 41h369q37 0 37 -27q0 -21 -11.5 -31.5t-29.5 -10.5h-337l-39 -244
h310q36 0 36 -27q0 -21 -11.5 -31.5t-28.5 -10.5h-317l-41 -254h331q37 0 37 -28q0 -21 -11.5 -31t-29.5 -10h-368z" />
    <glyph glyph-name="ecaron" unicode="&#x11b;" horiz-adv-x="532" 
d="M320 542q-32 0 -46 32l-66 153q-8 16 1 26.5t23 10t22 -15.5l72 -143l107 145q11 14 24.5 13t20 -11.5t-3.5 -25.5l-98 -150q-22 -34 -56 -34zM270 -9q-104 0 -165 57.5t-61 157.5q0 79 32 144.5t90 105t138 39.5q76 0 120 -34.5t60 -90t9 -116.5q-3 -17 -9.5 -22.5
t-21.5 -5.5h-339q-7 -78 33 -124t118 -46q36 0 69.5 8.5t64.5 29.5q22 14 36 5.5t14 -27t-20 -32.5q-34 -24 -80 -36.5t-88 -12.5zM303 435q-53 0 -88 -22.5t-55.5 -58.5t-28.5 -75h296q6 66 -22.5 111t-101.5 45z" />
    <glyph glyph-name="Gcircumflex" unicode="&#x11c;" horiz-adv-x="726" 
d="M345 767q-12 -12 -25.5 -10t-19.5 12.5t5 24.5l100 122q25 31 57 31q18 0 29 -9t21 -25l73 -119q10 -16 2 -26.5t-23 -11t-27 14.5l-81 113zM391 -9q-147 0 -231 78t-84 227q0 124 44.5 218t127.5 147t198 53q64 0 120 -18t94 -51q16 -13 18 -29t-6 -29t-22 -16.5
t-31 9.5q-36 31 -80.5 45.5t-97.5 14.5q-87 0 -149 -43t-95.5 -120t-33.5 -179q0 -119 60.5 -176.5t176.5 -57.5q43 0 79.5 7t70.5 18l34 213h-143q-38 0 -38 28q0 18 11.5 27.5t29.5 9.5h180q19 0 29 -11t6 -31l-41 -261q-5 -31 -30 -40q-39 -15 -92 -24t-105 -9z" />
    <glyph glyph-name="gcircumflex" unicode="&#x11d;" horiz-adv-x="586" 
d="M473 580q8 -16 -1 -26.5t-23 -10.5t-21 14l-72 142l-106 -143q-10 -13 -23.5 -12.5t-20.5 11t4 26.5l99 153q20 32 52 32q31 0 45 -32zM248 -189q-58 0 -108.5 16t-90.5 42q-14 9 -16 22t4.5 24t19 15t27.5 -5q35 -23 72 -36t83 -13q64 0 104 32.5t51 100.5l15 93
q-26 -43 -70.5 -67t-100.5 -24q-88 0 -141 54t-53 145q0 75 29 140t84 105t133 40q56 0 100 -25.5t64 -77.5l9 62q6 39 47 39q39 0 32 -47l-69 -433q-32 -202 -225 -202zM259 77q56 0 95 30t59 79.5t20 107.5q0 64 -35 100t-98 36q-57 0 -95.5 -30.5t-58.5 -79.5t-20 -106
q0 -66 35 -101.5t98 -35.5z" />
    <glyph glyph-name="Gbreve" unicode="&#x11e;" horiz-adv-x="726" 
d="M454 760q-67 0 -108.5 40t-46.5 108q-3 27 22 30q27 3 29 -23q3 -48 32 -74.5t75 -26.5q45 0 78 26.5t46 75.5q7 25 30 22q12 -2 18 -11t1 -24q-17 -67 -65 -105t-111 -38zM391 -9q-147 0 -231 78t-84 227q0 124 44.5 218t127.5 147t198 53q64 0 120 -18t94 -51
q16 -13 18 -29t-6 -29t-22 -16.5t-31 9.5q-36 31 -80.5 45.5t-97.5 14.5q-87 0 -149 -43t-95.5 -120t-33.5 -179q0 -119 60.5 -176.5t176.5 -57.5q43 0 79.5 7t70.5 18l34 213h-143q-38 0 -38 28q0 18 11.5 27.5t29.5 9.5h180q19 0 29 -11t6 -31l-41 -261q-5 -31 -30 -40
q-39 -15 -92 -24t-105 -9z" />
    <glyph glyph-name="gbreve" unicode="&#x11f;" horiz-adv-x="586" 
d="M349 549q-62 0 -100 44.5t-40 122.5q-1 26 23 29q11 2 19.5 -4t8.5 -20q2 -57 26 -87t66 -30q41 0 70 30.5t41 88.5q5 24 29 22q13 -1 18.5 -10.5t1.5 -25.5q-16 -76 -59 -118t-104 -42zM248 -189q-58 0 -108.5 16t-90.5 42q-14 9 -16 22t4.5 24t19 15t27.5 -5
q35 -23 72 -36t83 -13q64 0 104 32.5t51 100.5l15 93q-26 -43 -70.5 -67t-100.5 -24q-88 0 -141 54t-53 145q0 75 29 140t84 105t133 40q56 0 100 -25.5t64 -77.5l9 62q6 39 47 39q39 0 32 -47l-69 -433q-32 -202 -225 -202zM259 77q56 0 95 30t59 79.5t20 107.5
q0 64 -35 100t-98 36q-57 0 -95.5 -30.5t-58.5 -79.5t-20 -106q0 -66 35 -101.5t98 -35.5z" />
    <glyph glyph-name="Gdotaccent" unicode="&#x120;" horiz-adv-x="726" 
d="M456 803q-43 0 -43 38q0 27 15.5 42t42.5 15q43 0 43 -38q0 -26 -15.5 -41.5t-42.5 -15.5zM391 -9q-147 0 -231 78t-84 227q0 124 44.5 218t127.5 147t198 53q64 0 120 -18t94 -51q16 -13 18 -29t-6 -29t-22 -16.5t-31 9.5q-36 31 -80.5 45.5t-97.5 14.5q-87 0 -149 -43
t-95.5 -120t-33.5 -179q0 -119 60.5 -176.5t176.5 -57.5q43 0 79.5 7t70.5 18l34 213h-143q-38 0 -38 28q0 18 11.5 27.5t29.5 9.5h180q19 0 29 -11t6 -31l-41 -261q-5 -31 -30 -40q-39 -15 -92 -24t-105 -9z" />
    <glyph glyph-name="gdotaccent" unicode="&#x121;" horiz-adv-x="586" 
d="M349 605q-43 0 -43 38q0 27 15.5 42.5t42.5 15.5q43 0 43 -38q0 -27 -15.5 -42.5t-42.5 -15.5zM248 -189q-58 0 -108.5 16t-90.5 42q-14 9 -16 22t4.5 24t19 15t27.5 -5q35 -23 72 -36t83 -13q64 0 104 32.5t51 100.5l15 93q-26 -43 -70.5 -67t-100.5 -24q-88 0 -141 54
t-53 145q0 75 29 140t84 105t133 40q56 0 100 -25.5t64 -77.5l9 62q6 39 47 39q39 0 32 -47l-69 -433q-32 -202 -225 -202zM259 77q56 0 95 30t59 79.5t20 107.5q0 64 -35 100t-98 36q-57 0 -95.5 -30.5t-58.5 -79.5t-20 -106q0 -66 35 -101.5t98 -35.5z" />
    <glyph glyph-name="uni0122" unicode="&#x122;" horiz-adv-x="726" 
d="M357 -251q-13 -13 -25.5 -10t-16.5 15t9 26q23 23 30 50q-46 3 -46 43q0 24 15 38t39 14q48 0 48 -51q0 -33 -15 -68t-38 -57zM391 -9q-147 0 -231 78t-84 227q0 124 44.5 218t127.5 147t198 53q64 0 120 -18t94 -51q16 -13 18 -29t-6 -29t-22 -16.5t-31 9.5
q-36 31 -80.5 45.5t-97.5 14.5q-87 0 -149 -43t-95.5 -120t-33.5 -179q0 -119 60.5 -176.5t176.5 -57.5q43 0 79.5 7t70.5 18l34 213h-143q-38 0 -38 28q0 18 11.5 27.5t29.5 9.5h180q19 0 29 -11t6 -31l-41 -261q-5 -31 -30 -40q-39 -15 -92 -24t-105 -9z" />
    <glyph glyph-name="uni0123" unicode="&#x123;" horiz-adv-x="586" 
d="M349 563q-48 0 -48 50q0 34 15 68.5t38 57.5q13 13 25.5 10t16.5 -15t-9 -26q-23 -24 -30 -50q46 -3 46 -44q0 -24 -15 -37.5t-39 -13.5zM248 -189q-58 0 -108.5 16t-90.5 42q-14 9 -16 22t4.5 24t19 15t27.5 -5q35 -23 72 -36t83 -13q64 0 104 32.5t51 100.5l15 93
q-26 -43 -70.5 -67t-100.5 -24q-88 0 -141 54t-53 145q0 75 29 140t84 105t133 40q56 0 100 -25.5t64 -77.5l9 62q6 39 47 39q39 0 32 -47l-69 -433q-32 -202 -225 -202zM259 77q56 0 95 30t59 79.5t20 107.5q0 64 -35 100t-98 36q-57 0 -95.5 -30.5t-58.5 -79.5t-20 -106
q0 -66 35 -101.5t98 -35.5z" />
    <glyph glyph-name="Hcircumflex" unicode="&#x124;" horiz-adv-x="761" 
d="M358 767q-12 -12 -25.5 -10t-19.5 12.5t5 24.5l100 122q25 31 57 31q18 0 29 -9t21 -25l73 -119q10 -16 2 -26.5t-23 -11t-27 14.5l-81 113zM90 -7q-43 0 -35 50l100 627q6 42 46 42q43 0 35 -50l-43 -269h422l45 277q6 42 46 42q43 0 35 -50l-100 -627q-7 -42 -46 -42
q-43 0 -35 50l44 279h-422l-46 -287q-6 -42 -46 -42z" />
    <glyph glyph-name="hcircumflex" unicode="&#x125;" horiz-adv-x="568" 
d="M263 767q-12 -12 -25.5 -10t-19.5 12.5t5 24.5l100 122q25 31 57 31q18 0 29 -9t21 -25l73 -119q10 -16 2 -26.5t-23 -11t-27 14.5l-81 113zM77 -7q-19 0 -28 13t-5 36l99 629q6 41 47 41q19 0 28 -12.5t5 -34.5l-41 -259q27 43 71 66t102 23q81 0 122.5 -49t24.5 -152
l-40 -260q-6 -41 -47 -41q-19 0 -28 12.5t-6 35.5l40 253q22 135 -90 135q-73 0 -116 -45t-55 -120l-36 -230q-6 -41 -47 -41z" />
    <glyph glyph-name="Hbar" unicode="&#x126;" horiz-adv-x="798" 
d="M109 -7q-20 0 -29.5 13t-5.5 37l75 476h-57q-36 0 -36 27q0 18 11 28t29 10h63l14 86q7 42 47 42q19 0 28.5 -13t5.5 -35l-13 -80h422l14 87q6 41 47 41q19 0 28.5 -13t5.5 -35l-12 -80h57q36 0 36 -27q0 -17 -11 -27.5t-29 -10.5h-64l-77 -484q-6 -42 -45 -42
q-20 0 -30 13t-6 37l44 274h-422l-44 -282q-7 -42 -46 -42zM211 388h421l21 131h-422z" />
    <glyph glyph-name="hbar" unicode="&#x127;" horiz-adv-x="568" 
d="M77 -7q-19 0 -28 12.5t-6 35.5l82 513h-57q-35 0 -32 27q2 33 37 33h62l9 58q3 22 15 31t32 9q19 0 28 -11t5 -35l-8 -52h156q37 0 34 -28q-3 -32 -37 -32h-163l-23 -148q27 43 70.5 66t101.5 23q81 0 122.5 -49t24.5 -152l-40 -260q-6 -41 -47 -41q-19 0 -28 12.5
t-6 35.5l40 253q22 135 -90 135q-73 0 -116 -45t-55 -120l-36 -230q-6 -41 -47 -41z" />
    <glyph glyph-name="Itilde" unicode="&#x128;" horiz-adv-x="257" 
d="M25 781q-11 0 -16 8t-2 21q15 55 46.5 82t75.5 27q27 0 51 -11.5t45.5 -26.5t41.5 -26.5t40 -11.5q52 0 71 62q7 21 28 19q11 -1 16.5 -8.5t1.5 -21.5q-15 -55 -46.5 -81.5t-75.5 -26.5q-27 0 -51 11.5t-45.5 26.5t-41.5 26.5t-39 11.5q-51 0 -72 -62q-7 -21 -28 -19z
M91 -7q-44 0 -36 50l100 627q6 42 46 42q43 0 35 -50l-100 -627q-6 -42 -45 -42z" />
    <glyph glyph-name="itilde" unicode="&#x129;" horiz-adv-x="232" 
d="M14 588q-25 2 -19 27q13 54 42 82.5t70 28.5q24 0 41.5 -11.5t32 -26.5t29 -26.5t33.5 -11.5q22 0 39 16.5t25 45.5q6 21 28 19q25 -1 19 -27q-13 -54 -42 -82.5t-69 -28.5q-25 0 -42.5 11.5t-32.5 26.5t-29.5 26.5t-32.5 11.5q-22 0 -39 -16.5t-25 -44.5q-6 -22 -28 -20
zM76 -7q-19 0 -27.5 12.5t-5.5 35.5l66 412q6 40 46 40q19 0 28 -12.5t5 -34.5l-65 -413q-7 -40 -47 -40z" />
    <glyph glyph-name="Imacron" unicode="&#x12a;" horiz-adv-x="257" 
d="M84 814q-30 0 -30 24q0 31 33 31h277q30 0 30 -23q0 -32 -32 -32h-278zM91 -7q-44 0 -36 50l100 627q6 42 46 42q43 0 35 -50l-100 -627q-6 -42 -45 -42z" />
    <glyph glyph-name="imacron" unicode="&#x12b;" horiz-adv-x="232" 
d="M57 625q-30 0 -30 23q0 32 33 32h247q30 0 30 -23q0 -32 -33 -32h-247zM76 -7q-19 0 -27.5 12.5t-5.5 35.5l66 412q6 40 46 40q19 0 28 -12.5t5 -34.5l-65 -413q-7 -40 -47 -40z" />
    <glyph glyph-name="Ibreve" unicode="&#x12c;" horiz-adv-x="257" 
d="M216 760q-67 0 -108.5 40t-46.5 108q-3 27 22 30q27 3 29 -23q3 -48 32 -74.5t75 -26.5q45 0 78 26.5t46 75.5q7 25 30 22q12 -2 18 -11t1 -24q-17 -67 -65 -105t-111 -38zM91 -7q-44 0 -36 50l100 627q6 42 46 42q43 0 35 -50l-100 -627q-6 -42 -45 -42z" />
    <glyph glyph-name="ibreve" unicode="&#x12d;" horiz-adv-x="232" 
d="M174 549q-62 0 -100 44.5t-40 122.5q-1 26 23 29q11 2 19.5 -4t8.5 -20q2 -57 26 -87t66 -30q41 0 70 30.5t41 88.5q5 24 29 22q13 -1 18.5 -10.5t1.5 -25.5q-16 -76 -59 -118t-104 -42zM76 -7q-19 0 -27.5 12.5t-5.5 35.5l66 412q6 40 46 40q19 0 28 -12.5t5 -34.5
l-65 -413q-7 -40 -47 -40z" />
    <glyph glyph-name="Iogonek" unicode="&#x12e;" horiz-adv-x="257" 
d="M84 -192q-48 0 -73 25t-25 64q0 37 19 67.5t51 51.5q-3 11 -1 26l100 628q6 42 46 42q43 0 35 -50l-100 -627q-5 -31 -26 -40q-66 -30 -66 -86q0 -23 13.5 -37t39.5 -14q17 0 37 6q16 5 22.5 -5t4 -23t-14.5 -18q-14 -5 -31 -7.5t-31 -2.5z" />
    <glyph glyph-name="iogonek" unicode="&#x12f;" horiz-adv-x="232" 
d="M175 603q-49 0 -46 45q3 54 61 54q50 0 46 -45q-4 -54 -61 -54zM72 -192q-48 0 -73 25t-25 64t19.5 69t50.5 50q-3 10 -1 25l66 412q6 40 46 40q19 0 28 -12.5t5 -34.5l-65 -413q-4 -26 -27 -37q-64 -32 -64 -87q0 -23 14 -37t39 -14q17 0 37 6q16 5 22.5 -5t4 -23
t-14.5 -18q-14 -5 -31 -7.5t-31 -2.5z" />
    <glyph glyph-name="Idotaccent" unicode="&#x130;" horiz-adv-x="257" 
d="M218 803q-43 0 -43 38q0 27 15.5 42t42.5 15q43 0 43 -38q0 -26 -15.5 -41.5t-42.5 -15.5zM91 -7q-44 0 -36 50l100 627q6 42 46 42q43 0 35 -50l-100 -627q-6 -42 -45 -42z" />
    <glyph glyph-name="dotlessi" unicode="&#x131;" horiz-adv-x="232" 
d="M76 -7q-19 0 -27.5 12.5t-5.5 35.5l66 412q6 40 46 40q19 0 28 -12.5t5 -34.5l-65 -413q-7 -40 -47 -40z" />
    <glyph glyph-name="IJ" unicode="&#x132;" horiz-adv-x="580" 
d="M91 -7q-44 0 -36 50l100 627q6 42 46 42q43 0 35 -50l-100 -627q-6 -42 -45 -42zM251 -6q-19 -2 -30 7t-11 27q1 33 35 36l32 2q107 8 127 130l75 477q6 39 46 39q20 0 29.5 -12t5.5 -34l-76 -480q-14 -87 -61 -134.5t-141 -55.5z" />
    <glyph glyph-name="ij" unicode="&#x133;" horiz-adv-x="516" 
d="M175 603q-49 0 -46 45q3 54 61 54q50 0 46 -45q-4 -54 -61 -54zM76 -7q-19 0 -27.5 12.5t-5.5 35.5l66 412q6 40 46 40q19 0 28 -12.5t5 -34.5l-65 -413q-7 -40 -47 -40zM433 603q-48 0 -46 45q4 54 62 54q50 0 46 -45q-4 -54 -62 -54zM175 -191q-17 -1 -26 8.5t-9 22.5
t7.5 22.5t23.5 10.5q51 1 83.5 27.5t41.5 84.5l74 468q7 40 46 40q19 0 28 -12.5t6 -34.5l-73 -456q-14 -92 -63 -135t-139 -46z" />
    <glyph glyph-name="Jcircumflex" unicode="&#x134;" horiz-adv-x="324" 
d="M174 767q-12 -12 -25.5 -10t-19.5 12.5t5 24.5l100 122q25 31 57 31q18 0 29 -9t21 -25l73 -119q10 -16 2 -26.5t-23 -11t-27 14.5l-81 113zM-6 -6q-19 -2 -30 7t-11 27q1 33 35 36l32 2q107 8 127 130l75 477q6 39 46 39q20 0 29.5 -12t5.5 -34l-76 -480
q-14 -87 -61 -134.5t-141 -55.5z" />
    <glyph glyph-name="jcircumflex" unicode="&#x135;" horiz-adv-x="236" 
d="M299 580q8 -16 -1 -26.5t-23 -10.5t-21 14l-72 142l-106 -143q-10 -13 -23.5 -12.5t-20.5 11t4 26.5l99 153q20 32 52 32q31 0 45 -32zM-83 -191q-17 -1 -26 8.5t-9 22.5t7.5 22.5t23.5 10.5q51 1 83.5 27.5t41.5 84.5l74 468q7 40 46 40q19 0 28 -12.5t6 -34.5l-73 -456
q-14 -92 -63 -135t-139 -46z" />
    <glyph glyph-name="uni0136" unicode="&#x136;" horiz-adv-x="625" 
d="M263 -251q-13 -13 -25.5 -10t-16.5 15t9 26q23 23 30 50q-46 3 -46 43q0 24 15 38t39 14q48 0 48 -51q0 -33 -15 -68t-38 -57zM91 -7q-20 0 -30 12.5t-6 36.5l100 629q7 41 46 41q20 0 29.5 -12.5t5.5 -35.5l-44 -279h2l376 308q11 10 20 14.5t22 4.5q16 0 25.5 -10
t9 -23.5t-13.5 -24.5l-362 -298l286 -306q17 -17 7.5 -37t-34.5 -20q-14 0 -23.5 6t-21.5 20l-299 315h-2l-47 -301q-7 -40 -46 -40z" />
    <glyph glyph-name="uni0137" unicode="&#x137;" horiz-adv-x="500" 
d="M196 -251q-13 -13 -25.5 -10t-16.5 15t9 26q23 23 30 50q-46 3 -46 43q0 24 15 38t39 14q48 0 48 -51q0 -33 -15 -68t-38 -57zM77 -7q-41 0 -33 47l100 633q5 39 46 39q19 0 28 -13t5 -35l-62 -394h2l240 201q13 11 23 16.5t24 5.5q23 0 29 -20t-14 -38l-222 -188
l182 -195q18 -20 9 -39.5t-32 -19.5q-16 0 -26.5 7.5t-24.5 23.5l-194 206h-2l-32 -198q-5 -39 -46 -39z" />
    <glyph glyph-name="kgreenlandic" unicode="&#x138;" horiz-adv-x="500" 
d="M79 -7q-43 0 -35 47l65 414q6 39 45 39q43 0 35 -48l-28 -175h2l240 201q10 8 20.5 15t24.5 7q25 0 31 -20t-14 -38l-222 -188l182 -195q18 -20 9.5 -39.5t-34.5 -19.5q-15 0 -25 7.5t-24 23.5l-194 206h-2l-32 -198q-6 -39 -44 -39z" />
    <glyph glyph-name="Lacute" unicode="&#x139;" horiz-adv-x="543" 
d="M247 769q-13 -13 -26.5 -10t-19 15t4.5 25l99 130q12 16 26.5 17.5t26 -6.5t14 -21t-10.5 -27zM95 0q-46 0 -39 46l100 628q5 38 44 38q44 0 37 -46l-94 -594h321q38 0 38 -29q0 -22 -12 -32.5t-31 -10.5h-364z" />
    <glyph glyph-name="lacute" unicode="&#x13a;" horiz-adv-x="296" 
d="M235 769q-13 -13 -26.5 -10t-19 15t4.5 25l99 130q12 16 26.5 17.5t26 -6.5t14 -21t-10.5 -27zM186 -9q-72 0 -104.5 42.5t-19.5 125.5l82 513q6 40 46 40q19 0 28 -12.5t5 -35.5l-80 -505q-8 -53 8 -76t57 -23q14 0 21.5 1.5t12.5 1.5q8 0 12 -5t4 -19q0 -19 -9 -29.5
t-23 -14.5q-7 -2 -19 -3t-21 -1z" />
    <glyph glyph-name="uni013B" unicode="&#x13b;" horiz-adv-x="543" 
d="M247 -251q-13 -13 -25.5 -10t-16.5 15t9 26q23 23 30 50q-46 3 -46 43q0 24 15 38t39 14q48 0 48 -51q0 -33 -15 -68t-38 -57zM95 0q-46 0 -39 46l100 628q5 38 44 38q44 0 37 -46l-94 -594h321q38 0 38 -29q0 -22 -12 -32.5t-31 -10.5h-364z" />
    <glyph glyph-name="uni013C" unicode="&#x13c;" horiz-adv-x="296" 
d="M126 -251q-13 -13 -25.5 -10t-16.5 15t9 26q23 23 30 50q-46 3 -46 43q0 24 15 38t39 14q48 0 48 -51q0 -33 -15 -68t-38 -57zM186 -9q-72 0 -104.5 42.5t-19.5 125.5l82 513q6 40 46 40q19 0 28 -12.5t5 -35.5l-80 -505q-8 -53 8 -76t57 -23q14 0 21.5 1.5t12.5 1.5
q8 0 12 -5t4 -19q0 -19 -9 -29.5t-23 -14.5q-7 -2 -19 -3t-21 -1z" />
    <glyph glyph-name="Lcaron" unicode="&#x13d;" horiz-adv-x="543" 
d="M346 475q-24 0 -20 28l28 176q3 18 12.5 25.5t25.5 7.5q18 0 26 -10.5t3 -29.5l-43 -173q-6 -24 -32 -24zM95 0q-46 0 -39 46l100 628q5 38 44 38q44 0 37 -46l-94 -594h321q38 0 38 -29q0 -22 -12 -32.5t-31 -10.5h-364z" />
    <glyph glyph-name="lcaron" unicode="&#x13e;" horiz-adv-x="296" 
d="M265 510q-22 0 -18 24l24 148q5 30 36 30q16 0 23 -10t2 -27l-41 -144q-6 -21 -26 -21zM186 -9q-72 0 -104.5 42.5t-19.5 125.5l82 513q6 40 46 40q19 0 28 -12.5t5 -35.5l-80 -505q-8 -53 8 -76t57 -23q14 0 21.5 1.5t12.5 1.5q8 0 12 -5t4 -19q0 -19 -9 -29.5
t-23 -14.5q-7 -2 -19 -3t-21 -1z" />
    <glyph glyph-name="Ldot" unicode="&#x13f;" horiz-adv-x="543" 
d="M428 335q-25 0 -40 15.5t-15 39.5t15 39t40 15t40 -15t15 -39t-15 -39.5t-40 -15.5zM95 0q-46 0 -39 46l100 628q5 38 44 38q44 0 37 -46l-94 -594h321q38 0 38 -29q0 -22 -12 -32.5t-31 -10.5h-364z" />
    <glyph glyph-name="ldot" unicode="&#x140;" horiz-adv-x="327" 
d="M299 298q-25 0 -40 15.5t-15 39.5t15 39t40 15t40 -15t15 -39t-15 -39.5t-40 -15.5zM186 -9q-72 0 -104.5 42.5t-19.5 125.5l82 513q6 40 46 40q19 0 28 -12.5t5 -35.5l-80 -505q-8 -53 8 -76t57 -23q14 0 21.5 1.5t12.5 1.5q8 0 12 -5t4 -19q0 -19 -9 -29.5t-23 -14.5
q-7 -2 -19 -3t-21 -1z" />
    <glyph glyph-name="Lslash" unicode="&#x141;" horiz-adv-x="543" 
d="M38 280q-16 -7 -28 -2t-17.5 17t-1.5 25t21 21l329 152q16 8 28 2.5t17 -17.5t1 -25t-21 -20zM95 0q-46 0 -39 46l100 628q5 38 44 38q44 0 37 -46l-94 -594h321q38 0 38 -29q0 -22 -12 -32.5t-31 -10.5h-364z" />
    <glyph glyph-name="lslash" unicode="&#x142;" horiz-adv-x="296" 
d="M41 272q-16 -8 -28.5 -3t-18.5 17t-2 25t21 21l233 111q16 7 28.5 2t18.5 -17t2 -25t-21 -21zM186 -9q-72 0 -104.5 42.5t-19.5 125.5l82 513q6 40 46 40q19 0 28 -12.5t5 -35.5l-80 -505q-8 -53 8 -76t57 -23q14 0 21.5 1.5t12.5 1.5q8 0 12 -5t4 -19q0 -19 -9 -29.5
t-23 -14.5q-7 -2 -19 -3t-21 -1z" />
    <glyph glyph-name="Nacute" unicode="&#x143;" horiz-adv-x="739" 
d="M488 769q-13 -13 -26.5 -10t-19 15t4.5 25l99 130q12 16 26.5 17.5t26 -6.5t14 -21t-10.5 -27zM88 -7q-18 0 -27 12t-6 34l101 637q6 36 39 36q16 0 24 -6.5t17 -20.5l321 -556l87 545q5 38 44 38q38 0 31 -46l-101 -636q-6 -37 -36 -37q-16 0 -25.5 7t-18.5 21l-322 556
l-86 -546q-6 -38 -42 -38z" />
    <glyph glyph-name="nacute" unicode="&#x144;" horiz-adv-x="568" 
d="M365 555q-12 -13 -25 -11.5t-19 13t4 27.5l107 161q12 18 26.5 20t26 -5.5t14 -21.5t-8.5 -28zM77 -6q-19 0 -27.5 13t-5.5 35l65 411q6 40 47 40q18 0 26.5 -11.5t4.5 -33.5l-7 -45q27 44 71.5 68t103.5 24q81 0 122.5 -49t24.5 -152l-41 -261q-6 -39 -46 -39
q-19 0 -28 12.5t-6 34.5l40 253q22 135 -90 135q-73 0 -116 -45t-55 -120l-36 -230q-6 -40 -47 -40z" />
    <glyph glyph-name="uni0145" unicode="&#x145;" horiz-adv-x="739" 
d="M319 -251q-13 -13 -25.5 -10t-16.5 15t9 26q23 23 30 50q-46 3 -46 43q0 24 15 38t39 14q48 0 48 -51q0 -33 -15 -68t-38 -57zM88 -7q-18 0 -27 12t-6 34l101 637q6 36 39 36q16 0 24 -6.5t17 -20.5l321 -556l87 545q5 38 44 38q38 0 31 -46l-101 -636q-6 -37 -36 -37
q-16 0 -25.5 7t-18.5 21l-322 556l-86 -546q-6 -38 -42 -38z" />
    <glyph glyph-name="uni0146" unicode="&#x146;" horiz-adv-x="568" 
d="M228 -251q-13 -13 -25.5 -10t-16.5 15t9 26q23 23 30 50q-46 3 -46 43q0 24 15 38t39 14q48 0 48 -51q0 -33 -15 -68t-38 -57zM77 -6q-19 0 -27.5 13t-5.5 35l65 411q6 40 47 40q18 0 26.5 -11.5t4.5 -33.5l-7 -45q27 44 71.5 68t103.5 24q81 0 122.5 -49t24.5 -152
l-41 -261q-6 -39 -46 -39q-19 0 -28 12.5t-6 34.5l40 253q22 135 -90 135q-73 0 -116 -45t-55 -120l-36 -230q-6 -40 -47 -40z" />
    <glyph glyph-name="Ncaron" unicode="&#x147;" horiz-adv-x="739" 
d="M450 756q-18 0 -29.5 8.5t-20.5 24.5l-74 119q-9 16 -1.5 26.5t22 11t26.5 -15.5l81 -112l111 117q12 12 26 10t20.5 -12.5t-4.5 -23.5l-99 -122q-25 -31 -58 -31zM88 -7q-18 0 -27 12t-6 34l101 637q6 36 39 36q16 0 24 -6.5t17 -20.5l321 -556l87 545q5 38 44 38
q38 0 31 -46l-101 -636q-6 -37 -36 -37q-16 0 -25.5 7t-18.5 21l-322 556l-86 -546q-6 -38 -42 -38z" />
    <glyph glyph-name="ncaron" unicode="&#x148;" horiz-adv-x="568" 
d="M330 542q-32 0 -46 32l-66 153q-8 16 1 26.5t23 10t22 -15.5l72 -143l107 145q11 14 24.5 13t20 -11.5t-3.5 -25.5l-98 -150q-22 -34 -56 -34zM77 -6q-19 0 -27.5 13t-5.5 35l65 411q6 40 47 40q18 0 26.5 -11.5t4.5 -33.5l-7 -45q27 44 71.5 68t103.5 24q81 0 122.5 -49
t24.5 -152l-41 -261q-6 -39 -46 -39q-19 0 -28 12.5t-6 34.5l40 253q22 135 -90 135q-73 0 -116 -45t-55 -120l-36 -230q-6 -40 -47 -40z" />
    <glyph glyph-name="napostrophe" unicode="&#x149;" horiz-adv-x="568" 
d="M109 584q-14 -13 -26.5 -10t-16 15t9.5 26q21 23 29 50q-45 3 -45 43q0 24 15 38t39 14q48 0 48 -51q0 -33 -15 -68t-38 -57zM77 -6q-19 0 -27.5 13t-5.5 35l65 411q6 40 47 40q18 0 26.5 -11.5t4.5 -33.5l-7 -45q27 44 71.5 68t103.5 24q81 0 122.5 -49t24.5 -152
l-41 -261q-6 -39 -46 -39q-19 0 -28 12.5t-6 34.5l40 253q22 135 -90 135q-73 0 -116 -45t-55 -120l-36 -230q-6 -40 -47 -40z" />
    <glyph glyph-name="Eng" unicode="&#x14a;" horiz-adv-x="739" 
d="M409 -191q-23 0 -30.5 15.5t-0.5 31.5t28 17q51 1 85 27.5t43 84.5l6 33l-324 559l-86 -546q-6 -38 -42 -38q-18 0 -27 12t-6 34l101 636q6 37 39 37q16 0 24 -6.5t17 -20.5l321 -556l87 545q5 38 44 38q38 0 31 -46l-108 -676q-28 -181 -202 -181z" />
    <glyph glyph-name="eng" unicode="&#x14b;" horiz-adv-x="568" 
d="M252 -191q-23 0 -31 15t-1.5 31t27.5 18q52 2 84 28t41 84l49 309q22 135 -90 135q-73 0 -116 -45t-55 -120l-36 -230q-6 -40 -47 -40q-19 0 -27.5 12.5t-5.5 34.5l65 412q6 40 47 40q18 0 26.5 -11.5t4.5 -32.5l-7 -46q27 44 71.5 68t103.5 24q81 0 122.5 -49t24.5 -152
l-48 -304q-15 -92 -64.5 -135t-137.5 -46z" />
    <glyph glyph-name="Omacron" unicode="&#x14c;" horiz-adv-x="767" 
d="M328 814q-30 0 -30 24q0 31 33 31h277q30 0 30 -23q0 -32 -32 -32h-278zM368 -9q-88 0 -154 35t-102 102.5t-36 165.5q0 119 42 214t121.5 150.5t194.5 55.5q89 0 154.5 -35t101.5 -102.5t36 -164.5q0 -120 -42 -215t-121.5 -150.5t-194.5 -55.5zM370 64q87 0 147 45.5
t91 124t31 177.5q0 116 -55.5 173t-152.5 57q-86 0 -146 -45.5t-91 -123.5t-31 -177q0 -117 55.5 -174t151.5 -57z" />
    <glyph glyph-name="omacron" unicode="&#x14d;" horiz-adv-x="556" 
d="M220 625q-30 0 -30 23q0 32 33 32h247q30 0 30 -23q0 -32 -33 -32h-247zM255 -9q-98 0 -154.5 57.5t-56.5 156.5q0 82 32 148t89.5 104t135.5 38q98 0 154 -57.5t56 -156.5q0 -82 -31.5 -147.5t-89.5 -104t-135 -38.5zM258 56q55 0 93.5 31t58 82.5t19.5 114.5
q0 72 -34.5 109t-96.5 37q-55 0 -93.5 -30.5t-58.5 -82.5t-20 -115q0 -71 35 -108.5t97 -37.5z" />
    <glyph glyph-name="Obreve" unicode="&#x14e;" horiz-adv-x="767" 
d="M460 760q-67 0 -108.5 40t-46.5 108q-3 27 22 30q27 3 29 -23q3 -48 32 -74.5t75 -26.5q45 0 78 26.5t46 75.5q7 25 30 22q12 -2 18 -11t1 -24q-17 -67 -65 -105t-111 -38zM368 -9q-88 0 -154 35t-102 102.5t-36 165.5q0 119 42 214t121.5 150.5t194.5 55.5
q89 0 154.5 -35t101.5 -102.5t36 -164.5q0 -120 -42 -215t-121.5 -150.5t-194.5 -55.5zM370 64q87 0 147 45.5t91 124t31 177.5q0 116 -55.5 173t-152.5 57q-86 0 -146 -45.5t-91 -123.5t-31 -177q0 -117 55.5 -174t151.5 -57z" />
    <glyph glyph-name="obreve" unicode="&#x14f;" horiz-adv-x="556" 
d="M337 549q-62 0 -100 44.5t-40 122.5q-1 26 23 29q11 2 19.5 -4t8.5 -20q2 -57 26 -87t66 -30q41 0 70 30.5t41 88.5q5 24 29 22q13 -1 18.5 -10.5t1.5 -25.5q-16 -76 -59 -118t-104 -42zM255 -9q-98 0 -154.5 57.5t-56.5 156.5q0 82 32 148t89.5 104t135.5 38
q98 0 154 -57.5t56 -156.5q0 -82 -31.5 -147.5t-89.5 -104t-135 -38.5zM258 56q55 0 93.5 31t58 82.5t19.5 114.5q0 72 -34.5 109t-96.5 37q-55 0 -93.5 -30.5t-58.5 -82.5t-20 -115q0 -71 35 -108.5t97 -37.5z" />
    <glyph glyph-name="Ohungarumlaut" unicode="&#x150;" horiz-adv-x="767" 
d="M545 767q-9 -12 -20 -10t-16 11.5t2 21.5l83 138q10 16 23.5 18.5t24.5 -4t13.5 -19t-9.5 -27.5zM418 767q-9 -11 -20 -9.5t-16.5 10.5t1.5 21l80 138q10 15 23.5 18.5t25 -3t15 -18.5t-7.5 -26zM368 -9q-88 0 -154 35t-102 102.5t-36 165.5q0 119 42 214t121.5 150.5
t194.5 55.5q89 0 154.5 -35t101.5 -102.5t36 -164.5q0 -120 -42 -215t-121.5 -150.5t-194.5 -55.5zM370 64q87 0 147 45.5t91 124t31 177.5q0 116 -55.5 173t-152.5 57q-86 0 -146 -45.5t-91 -123.5t-31 -177q0 -117 55.5 -174t151.5 -57z" />
    <glyph glyph-name="ohungarumlaut" unicode="&#x151;" horiz-adv-x="556" 
d="M418 559q-7 -14 -18.5 -15t-19.5 7.5t-3 22.5l59 164q6 19 19.5 24.5t26.5 1t18.5 -16.5t-2.5 -29zM290 559q-6 -14 -18 -15t-20 7.5t-3 22.5l60 164q6 19 19.5 24.5t26.5 1t18.5 -16.5t-2.5 -29zM255 -9q-98 0 -154.5 57.5t-56.5 156.5q0 82 32 148t89.5 104t135.5 38
q98 0 154 -57.5t56 -156.5q0 -82 -31.5 -147.5t-89.5 -104t-135 -38.5zM258 56q55 0 93.5 31t58 82.5t19.5 114.5q0 72 -34.5 109t-96.5 37q-55 0 -93.5 -30.5t-58.5 -82.5t-20 -115q0 -71 35 -108.5t97 -37.5z" />
    <glyph glyph-name="OE" unicode="&#x152;" horiz-adv-x="1046" 
d="M410 0q-160 0 -246.5 77.5t-87.5 217.5q0 86 24 160.5t73 130.5t124.5 87.5t179.5 31.5h557q37 0 37 -27q0 -21 -11.5 -31.5t-29.5 -10.5h-336l-39 -244h310q37 0 37 -27q0 -21 -11.5 -31.5t-29.5 -10.5h-316l-41 -254h330q37 0 37 -28q0 -21 -11.5 -31t-29.5 -10h-520z
M411 70h114l89 565h-139q-84 0 -143.5 -26.5t-96.5 -73.5t-54.5 -108.5t-17.5 -130.5q0 -110 62 -168t186 -58z" />
    <glyph glyph-name="oe" unicode="&#x153;" horiz-adv-x="910" 
d="M255 -9q-98 0 -154.5 57.5t-56.5 157.5q0 82 32 147.5t89.5 103.5t135.5 38q66 0 112.5 -30t67.5 -85q32 52 83 83.5t119 31.5q76 0 120.5 -34.5t60.5 -89.5t6 -117q-2 -17 -9 -22.5t-21 -5.5h-333q-8 -78 31 -123.5t115 -45.5q36 0 68.5 8t64.5 29q22 13 36 4.5
t14 -26.5t-20 -32q-34 -24 -79.5 -36.5t-86.5 -12.5q-71 0 -121 29.5t-74 83.5q-32 -51 -82.5 -82t-117.5 -31zM683 435q-52 0 -86.5 -22.5t-54.5 -58.5t-27 -75h290q6 66 -22 111t-100 45zM258 57q55 0 93.5 30.5t58 82t19.5 114.5q0 72 -34.5 109t-96.5 37
q-55 0 -93.5 -30.5t-58.5 -82.5t-20 -115q0 -71 35 -108t97 -37z" />
    <glyph glyph-name="Racute" unicode="&#x154;" horiz-adv-x="669" 
d="M447 769q-13 -13 -26.5 -10t-19 15t4.5 25l99 130q12 16 26.5 17.5t26 -6.5t14 -21t-10.5 -27zM90 -7q-19 0 -28.5 13t-5.5 36l98 622q7 41 48 41h210q114 0 171.5 -51t57.5 -139q0 -92 -54 -145t-140 -65q23 -11 40.5 -33t29.5 -54l65 -170q10 -26 2 -40.5t-34 -14.5
q-29 0 -43 36l-73 190q-16 43 -42.5 61t-75.5 18h-138l-41 -264q-7 -41 -47 -41zM189 363h200q80 0 125 38t45 109q0 63 -37.5 95t-118.5 32h-171z" />
    <glyph glyph-name="racute" unicode="&#x155;" horiz-adv-x="358" 
d="M294 558q-12 -13 -25 -11.5t-19 13t4 27.5l107 161q12 18 26.5 20t26 -5.5t14 -21.5t-8.5 -28zM77 -7q-41 0 -33 47l65 414q6 39 46 39q18 0 27.5 -12t5.5 -34l-7 -41q26 43 70 66t96 24q21 1 29.5 -5.5t8.5 -22.5q0 -21 -10 -30.5t-32 -12.5l-20 -1q-81 -8 -115.5 -48.5
t-45.5 -107.5l-38 -236q-5 -39 -47 -39z" />
    <glyph glyph-name="uni0156" unicode="&#x156;" horiz-adv-x="669" 
d="M287 -251q-13 -13 -25.5 -10t-16.5 15t9 26q23 23 30 50q-46 3 -46 43q0 24 15 38t39 14q48 0 48 -51q0 -33 -15 -68t-38 -57zM90 -7q-19 0 -28.5 13t-5.5 36l98 622q7 41 48 41h210q114 0 171.5 -51t57.5 -139q0 -92 -54 -145t-140 -65q23 -11 40.5 -33t29.5 -54
l65 -170q10 -26 2 -40.5t-34 -14.5q-29 0 -43 36l-73 190q-16 43 -42.5 61t-75.5 18h-138l-41 -264q-7 -41 -47 -41zM189 363h200q80 0 125 38t45 109q0 63 -37.5 95t-118.5 32h-171z" />
    <glyph glyph-name="uni0157" unicode="&#x157;" horiz-adv-x="358" 
d="M56 -251q-13 -13 -25.5 -10t-16.5 15t9 26q23 23 30 50q-46 3 -46 43q0 24 15 38t39 14q48 0 48 -51q0 -33 -15 -68t-38 -57zM77 -7q-41 0 -33 47l65 414q6 39 46 39q18 0 27.5 -12t5.5 -34l-7 -41q26 43 70 66t96 24q21 1 29.5 -5.5t8.5 -22.5q0 -21 -10 -30.5
t-32 -12.5l-20 -1q-81 -8 -115.5 -48.5t-45.5 -107.5l-38 -236q-5 -39 -47 -39z" />
    <glyph glyph-name="Rcaron" unicode="&#x158;" horiz-adv-x="669" 
d="M409 756q-18 0 -29.5 8.5t-20.5 24.5l-74 119q-9 16 -1.5 26.5t22 11t26.5 -15.5l81 -112l111 117q12 12 26 10t20.5 -12.5t-4.5 -23.5l-99 -122q-25 -31 -58 -31zM90 -7q-19 0 -28.5 13t-5.5 36l98 622q7 41 48 41h210q114 0 171.5 -51t57.5 -139q0 -92 -54 -145
t-140 -65q23 -11 40.5 -33t29.5 -54l65 -170q10 -26 2 -40.5t-34 -14.5q-29 0 -43 36l-73 190q-16 43 -42.5 61t-75.5 18h-138l-41 -264q-7 -41 -47 -41zM189 363h200q80 0 125 38t45 109q0 63 -37.5 95t-118.5 32h-171z" />
    <glyph glyph-name="rcaron" unicode="&#x159;" horiz-adv-x="358" 
d="M259 545q-32 0 -46 32l-66 153q-8 16 1 26.5t23 10t22 -15.5l72 -143l107 145q11 14 24.5 13t20 -11.5t-3.5 -25.5l-98 -150q-22 -34 -56 -34zM77 -7q-41 0 -33 47l65 414q6 39 46 39q18 0 27.5 -12t5.5 -34l-7 -41q26 43 70 66t96 24q21 1 29.5 -5.5t8.5 -22.5
q0 -21 -10 -30.5t-32 -12.5l-20 -1q-81 -8 -115.5 -48.5t-45.5 -107.5l-38 -236q-5 -39 -47 -39z" />
    <glyph glyph-name="Sacute" unicode="&#x15a;" horiz-adv-x="615" 
d="M415 769q-13 -13 -26.5 -10t-19 15t4.5 25l99 130q12 16 26.5 17.5t26 -6.5t14 -21t-10.5 -27zM297 -9q-67 0 -131.5 16t-114.5 53q-15 10 -18 24.5t4 27.5t20.5 17t31.5 -7q48 -34 101.5 -46t113.5 -12q81 0 130 33.5t49 91.5q0 40 -29 68.5t-102 44.5l-103 25
q-70 17 -112 58t-42 118q0 65 35.5 112t95.5 73t132 26q58 0 119 -17t107 -56q13 -10 15.5 -25t-4.5 -27.5t-21 -15.5t-32 10q-39 31 -87.5 44.5t-98.5 13.5q-51 0 -91 -16.5t-63.5 -46t-23.5 -70.5q0 -51 25.5 -75t75.5 -37l104 -24q94 -22 138.5 -66.5t44.5 -107.5
q0 -68 -36.5 -114t-97.5 -69.5t-135 -23.5z" />
    <glyph glyph-name="sacute" unicode="&#x15b;" horiz-adv-x="481" 
d="M315 555q-12 -13 -25 -11.5t-19 13t4 27.5l107 161q12 18 26.5 20t26 -5.5t14 -21.5t-8.5 -28zM223 -9q-48 0 -91.5 11t-75.5 31q-15 9 -19 22.5t1.5 25t18 15t28.5 -5.5q31 -19 66.5 -28t72.5 -9q54 0 84.5 21.5t30.5 60.5q0 50 -65 65l-94 23q-50 12 -78.5 43.5
t-28.5 77.5q0 65 53.5 108t145.5 43q40 0 81 -11.5t68 -32.5q20 -14 19.5 -32t-15 -26.5t-35.5 4.5q-51 36 -121 36q-56 0 -88 -23t-32 -62q0 -24 14.5 -41.5t45.5 -24.5l95 -23q53 -13 82.5 -42.5t29.5 -76.5q0 -70 -53.5 -109.5t-139.5 -39.5z" />
    <glyph glyph-name="Scircumflex" unicode="&#x15c;" horiz-adv-x="615" 
d="M274 767q-12 -12 -25.5 -10t-19.5 12.5t5 24.5l100 122q25 31 57 31q18 0 29 -9t21 -25l73 -119q10 -16 2 -26.5t-23 -11t-27 14.5l-81 113zM297 -9q-67 0 -131.5 16t-114.5 53q-15 10 -18 24.5t4 27.5t20.5 17t31.5 -7q48 -34 101.5 -46t113.5 -12q81 0 130 33.5
t49 91.5q0 40 -29 68.5t-102 44.5l-103 25q-70 17 -112 58t-42 118q0 65 35.5 112t95.5 73t132 26q58 0 119 -17t107 -56q13 -10 15.5 -25t-4.5 -27.5t-21 -15.5t-32 10q-39 31 -87.5 44.5t-98.5 13.5q-51 0 -91 -16.5t-63.5 -46t-23.5 -70.5q0 -51 25.5 -75t75.5 -37
l104 -24q94 -22 138.5 -66.5t44.5 -107.5q0 -68 -36.5 -114t-97.5 -69.5t-135 -23.5z" />
    <glyph glyph-name="scircumflex" unicode="&#x15d;" horiz-adv-x="481" 
d="M415 580q8 -16 -1 -26.5t-23 -10.5t-21 14l-72 142l-106 -143q-10 -13 -23.5 -12.5t-20.5 11t4 26.5l99 153q20 32 52 32q31 0 45 -32zM223 -9q-48 0 -91.5 11t-75.5 31q-15 9 -19 22.5t1.5 25t18 15t28.5 -5.5q31 -19 66.5 -28t72.5 -9q54 0 84.5 21.5t30.5 60.5
q0 50 -65 65l-94 23q-50 12 -78.5 43.5t-28.5 77.5q0 65 53.5 108t145.5 43q40 0 81 -11.5t68 -32.5q20 -14 19.5 -32t-15 -26.5t-35.5 4.5q-51 36 -121 36q-56 0 -88 -23t-32 -62q0 -24 14.5 -41.5t45.5 -24.5l95 -23q53 -13 82.5 -42.5t29.5 -76.5q0 -70 -53.5 -109.5
t-139.5 -39.5z" />
    <glyph glyph-name="Scedilla" unicode="&#x15e;" horiz-adv-x="615" 
d="M274 -192q-38 0 -69 10q-16 5 -18 19t7 23.5t26 3.5q23 -9 55 -9q28 0 45 10t17 29q0 26 -35 26q-17 0 -35 -5q-17 -4 -23 2t-1 21l26 82h51l-21 -63q10 1 18 1q34 0 55 -16.5t21 -46.5q0 -39 -34 -63t-85 -24zM297 -9q-67 0 -131.5 16t-114.5 53q-15 10 -18 24.5t4 27.5
t20.5 17t31.5 -7q48 -34 101.5 -46t113.5 -12q81 0 130 33.5t49 91.5q0 40 -29 68.5t-102 44.5l-103 25q-70 17 -112 58t-42 118q0 65 35.5 112t95.5 73t132 26q58 0 119 -17t107 -56q13 -10 15.5 -25t-4.5 -27.5t-21 -15.5t-32 10q-39 31 -87.5 44.5t-98.5 13.5
q-51 0 -91 -16.5t-63.5 -46t-23.5 -70.5q0 -51 25.5 -75t75.5 -37l104 -24q94 -22 138.5 -66.5t44.5 -107.5q0 -68 -36.5 -114t-97.5 -69.5t-135 -23.5z" />
    <glyph glyph-name="scedilla" unicode="&#x15f;" horiz-adv-x="481" 
d="M193 -192q-38 0 -69 10q-16 5 -18 19t7 23.5t26 3.5q23 -9 55 -9q28 0 45 10t17 29q0 26 -35 26q-17 0 -35 -5q-17 -4 -23 2t-1 21l26 82h51l-21 -63q10 1 18 1q34 0 55 -16.5t21 -46.5q0 -39 -34 -63t-85 -24zM223 -9q-48 0 -91.5 11t-75.5 31q-15 9 -19 22.5t1.5 25
t18 15t28.5 -5.5q31 -19 66.5 -28t72.5 -9q54 0 84.5 21.5t30.5 60.5q0 50 -65 65l-94 23q-50 12 -78.5 43.5t-28.5 77.5q0 65 53.5 108t145.5 43q40 0 81 -11.5t68 -32.5q20 -14 19.5 -32t-15 -26.5t-35.5 4.5q-51 36 -121 36q-56 0 -88 -23t-32 -62q0 -24 14.5 -41.5
t45.5 -24.5l95 -23q53 -13 82.5 -42.5t29.5 -76.5q0 -70 -53.5 -109.5t-139.5 -39.5z" />
    <glyph glyph-name="Scaron" unicode="&#x160;" horiz-adv-x="615" 
d="M377 756q-18 0 -29.5 8.5t-20.5 24.5l-74 119q-9 16 -1.5 26.5t22 11t26.5 -15.5l81 -112l111 117q12 12 26 10t20.5 -12.5t-4.5 -23.5l-99 -122q-25 -31 -58 -31zM297 -9q-67 0 -131.5 16t-114.5 53q-15 10 -18 24.5t4 27.5t20.5 17t31.5 -7q48 -34 101.5 -46t113.5 -12
q81 0 130 33.5t49 91.5q0 40 -29 68.5t-102 44.5l-103 25q-70 17 -112 58t-42 118q0 65 35.5 112t95.5 73t132 26q58 0 119 -17t107 -56q13 -10 15.5 -25t-4.5 -27.5t-21 -15.5t-32 10q-39 31 -87.5 44.5t-98.5 13.5q-51 0 -91 -16.5t-63.5 -46t-23.5 -70.5q0 -51 25.5 -75
t75.5 -37l104 -24q94 -22 138.5 -66.5t44.5 -107.5q0 -68 -36.5 -114t-97.5 -69.5t-135 -23.5z" />
    <glyph glyph-name="scaron" unicode="&#x161;" horiz-adv-x="481" 
d="M280 542q-32 0 -46 32l-66 153q-8 16 1 26.5t23 10t22 -15.5l72 -143l107 145q11 14 24.5 13t20 -11.5t-3.5 -25.5l-98 -150q-22 -34 -56 -34zM223 -9q-48 0 -91.5 11t-75.5 31q-15 9 -19 22.5t1.5 25t18 15t28.5 -5.5q31 -19 66.5 -28t72.5 -9q54 0 84.5 21.5t30.5 60.5
q0 50 -65 65l-94 23q-50 12 -78.5 43.5t-28.5 77.5q0 65 53.5 108t145.5 43q40 0 81 -11.5t68 -32.5q20 -14 19.5 -32t-15 -26.5t-35.5 4.5q-51 36 -121 36q-56 0 -88 -23t-32 -62q0 -24 14.5 -41.5t45.5 -24.5l95 -23q53 -13 82.5 -42.5t29.5 -76.5q0 -70 -53.5 -109.5
t-139.5 -39.5z" />
    <glyph glyph-name="uni0162" unicode="&#x162;" horiz-adv-x="602" 
d="M244 -192q-38 0 -69 10q-16 5 -18 19t7 23.5t26 3.5q23 -9 55 -9q28 0 45 10t17 29q0 26 -35 26q-17 0 -35 -5q-17 -4 -23 2t-1 21l26 82h51l-21 -63q10 1 18 1q34 0 55 -16.5t21 -46.5q0 -39 -34 -63t-85 -24zM263 -7q-20 0 -29 13t-5 36l93 592h-219q-39 0 -39 30
q0 19 12 30t31 11h528q39 0 39 -29q0 -42 -43 -42h-227l-95 -600q-6 -41 -46 -41z" />
    <glyph glyph-name="uni0163" unicode="&#x163;" horiz-adv-x="350" 
d="M166 -192q-38 0 -69 10q-16 5 -18 19t7 23.5t26 3.5q23 -9 55 -9q28 0 45 10t17 29q0 26 -35 26q-17 0 -35 -5q-17 -4 -23 2t-1 21l26 82h51l-21 -63q10 1 18 1q34 0 55 -16.5t21 -46.5q0 -39 -34 -63t-85 -24zM238 -9q-85 0 -124.5 48t-26.5 128l41 256h-62
q-36 0 -36 27q0 18 11.5 27t31.5 9h65l18 118q6 38 45 38q43 0 35 -46l-17 -110h120q36 0 36 -26q0 -17 -11 -27t-29 -10h-127l-39 -248q-10 -61 12.5 -88t69.5 -27q21 0 33 4t20 4q10 0 15 -5.5t5 -19.5q0 -20 -6.5 -29t-19.5 -14q-26 -9 -60 -9z" />
    <glyph glyph-name="Tcaron" unicode="&#x164;" horiz-adv-x="602" 
d="M382 756q-18 0 -29.5 8.5t-20.5 24.5l-74 119q-9 16 -1.5 26.5t22 11t26.5 -15.5l81 -112l111 117q12 12 26 10t20.5 -12.5t-4.5 -23.5l-99 -122q-25 -31 -58 -31zM263 -7q-20 0 -29 13t-5 36l93 592h-219q-39 0 -39 30q0 19 12 30t31 11h528q39 0 39 -29q0 -42 -43 -42
h-227l-95 -600q-6 -41 -46 -41z" />
    <glyph glyph-name="tcaron" unicode="&#x165;" horiz-adv-x="350" 
d="M316 533q-10 0 -14.5 5.5t-3.5 16.5l22 129q5 28 34 28q17 0 24 -9.5t2 -25.5l-39 -125q-6 -19 -25 -19zM238 -9q-85 0 -124.5 48t-26.5 128l41 256h-62q-36 0 -36 27q0 18 11.5 27t31.5 9h65l18 118q6 38 45 38q43 0 35 -46l-17 -110h120q36 0 36 -26q0 -17 -11 -27
t-29 -10h-127l-39 -248q-10 -61 12.5 -88t69.5 -27q21 0 33 4t20 4q10 0 15 -5.5t5 -19.5q0 -20 -6.5 -29t-19.5 -14q-26 -9 -60 -9z" />
    <glyph glyph-name="Tbar" unicode="&#x166;" horiz-adv-x="602" 
d="M163 326q-35 0 -35 27q0 37 39 37h307q35 0 35 -26q0 -38 -39 -38h-307zM263 -7q-20 0 -29 13t-5 36l93 592h-219q-39 0 -39 30q0 19 12 30t31 11h528q39 0 39 -29q0 -42 -43 -42h-227l-95 -600q-6 -41 -46 -41z" />
    <glyph glyph-name="tbar" unicode="&#x167;" horiz-adv-x="350" 
d="M54 239q-31 0 -31 23q0 32 35 32h223q31 0 31 -24q0 -15 -9.5 -23t-24.5 -8h-224zM238 -9q-85 0 -124.5 48t-26.5 128l41 256h-62q-36 0 -36 27q0 18 11.5 27t31.5 9h65l18 118q6 38 45 38q43 0 35 -46l-17 -110h120q36 0 36 -26q0 -17 -11 -27t-29 -10h-127l-39 -248
q-10 -61 12.5 -88t69.5 -27q21 0 33 4t20 4q10 0 15 -5.5t5 -19.5q0 -20 -6.5 -29t-19.5 -14q-26 -9 -60 -9z" />
    <glyph glyph-name="Utilde" unicode="&#x168;" horiz-adv-x="728" 
d="M260 781q-11 0 -16 8t-2 21q15 55 46.5 82t75.5 27q27 0 51 -11.5t45.5 -26.5t41.5 -26.5t40 -11.5q52 0 71 62q7 21 28 19q11 -1 16.5 -8.5t1.5 -21.5q-15 -55 -46.5 -81.5t-75.5 -26.5q-27 0 -51 11.5t-45.5 26.5t-41.5 26.5t-39 11.5q-51 0 -72 -62q-7 -21 -28 -19z
M335 -9q-89 0 -149.5 34t-86 102t-9.5 170l60 376q6 39 46 39q43 0 35 -47l-59 -375q-36 -226 167 -226q98 0 154.5 50t74.5 159l64 400q6 39 45 39q20 0 29.5 -12t5.5 -35l-62 -396q-22 -138 -98 -208t-217 -70z" />
    <glyph glyph-name="utilde" unicode="&#x169;" horiz-adv-x="561" 
d="M174 589q-25 2 -19 27q13 54 42 82.5t70 28.5q24 0 41.5 -11.5t32 -26.5t29 -26.5t33.5 -11.5q22 0 39 16.5t25 45.5q6 21 28 19q25 -1 19 -27q-13 -54 -42 -82.5t-69 -28.5q-25 0 -42.5 11.5t-32.5 26.5t-29.5 26.5t-32.5 11.5q-22 0 -39 -16.5t-25 -44.5
q-6 -22 -28 -20zM211 -9q-79 0 -120.5 49t-24.5 153l41 262q6 38 45 38q20 0 29.5 -12t5.5 -33l-40 -255q-21 -135 88 -135q69 0 112 45t54 120l36 232q6 38 45 38q42 0 36 -44l-66 -417q-6 -39 -44 -39q-41 0 -34 44l6 45q-27 -44 -70.5 -67.5t-98.5 -23.5z" />
    <glyph glyph-name="Umacron" unicode="&#x16a;" horiz-adv-x="728" 
d="M319 814q-30 0 -30 24q0 31 33 31h277q30 0 30 -23q0 -32 -32 -32h-278zM335 -9q-89 0 -149.5 34t-86 102t-9.5 170l60 376q6 39 46 39q43 0 35 -47l-59 -375q-36 -226 167 -226q98 0 154.5 50t74.5 159l64 400q6 39 45 39q20 0 29.5 -12t5.5 -35l-62 -396
q-22 -138 -98 -208t-217 -70z" />
    <glyph glyph-name="umacron" unicode="&#x16b;" horiz-adv-x="561" 
d="M217 626q-30 0 -30 23q0 32 33 32h247q30 0 30 -23q0 -32 -33 -32h-247zM211 -9q-79 0 -120.5 49t-24.5 153l41 262q6 38 45 38q20 0 29.5 -12t5.5 -33l-40 -255q-21 -135 88 -135q69 0 112 45t54 120l36 232q6 38 45 38q42 0 36 -44l-66 -417q-6 -39 -44 -39
q-41 0 -34 44l6 45q-27 -44 -70.5 -67.5t-98.5 -23.5z" />
    <glyph glyph-name="Ubreve" unicode="&#x16c;" horiz-adv-x="728" 
d="M451 760q-67 0 -108.5 40t-46.5 108q-3 27 22 30q27 3 29 -23q3 -48 32 -74.5t75 -26.5q45 0 78 26.5t46 75.5q7 25 30 22q12 -2 18 -11t1 -24q-17 -67 -65 -105t-111 -38zM335 -9q-89 0 -149.5 34t-86 102t-9.5 170l60 376q6 39 46 39q43 0 35 -47l-59 -375
q-36 -226 167 -226q98 0 154.5 50t74.5 159l64 400q6 39 45 39q20 0 29.5 -12t5.5 -35l-62 -396q-22 -138 -98 -208t-217 -70z" />
    <glyph glyph-name="ubreve" unicode="&#x16d;" horiz-adv-x="561" 
d="M334 550q-62 0 -100 44.5t-40 122.5q-1 26 23 29q11 2 19.5 -4t8.5 -20q2 -57 26 -87t66 -30q41 0 70 30.5t41 88.5q5 24 29 22q13 -1 18.5 -10.5t1.5 -25.5q-16 -76 -59 -118t-104 -42zM211 -9q-79 0 -120.5 49t-24.5 153l41 262q6 38 45 38q20 0 29.5 -12t5.5 -33
l-40 -255q-21 -135 88 -135q69 0 112 45t54 120l36 232q6 38 45 38q42 0 36 -44l-66 -417q-6 -39 -44 -39q-41 0 -34 44l6 45q-27 -44 -70.5 -67.5t-98.5 -23.5z" />
    <glyph glyph-name="Uring" unicode="&#x16e;" horiz-adv-x="728" 
d="M462 758q-50 0 -84 33.5t-34 82.5q0 48 34 81.5t84 33.5t84.5 -33.5t34.5 -81.5q0 -49 -34.5 -82.5t-84.5 -33.5zM462 801q32 0 52 21t20 52q0 30 -20 51t-52 21q-31 0 -51.5 -21t-20.5 -51q0 -31 20.5 -52t51.5 -21zM335 -9q-89 0 -149.5 34t-86 102t-9.5 170l60 376
q6 39 46 39q43 0 35 -47l-59 -375q-36 -226 167 -226q98 0 154.5 50t74.5 159l64 400q6 39 45 39q20 0 29.5 -12t5.5 -35l-62 -396q-22 -138 -98 -208t-217 -70z" />
    <glyph glyph-name="uring" unicode="&#x16f;" horiz-adv-x="561" 
d="M344 548q-50 0 -84.5 33.5t-34.5 81.5q0 49 34.5 82.5t84.5 33.5t84.5 -33.5t34.5 -82.5q0 -48 -34.5 -81.5t-84.5 -33.5zM344 591q31 0 51.5 21t20.5 51q0 31 -20.5 51.5t-51.5 20.5q-32 0 -52 -20.5t-20 -51.5q0 -30 20 -51t52 -21zM211 -9q-79 0 -120.5 49t-24.5 153
l41 262q6 38 45 38q20 0 29.5 -12t5.5 -33l-40 -255q-21 -135 88 -135q69 0 112 45t54 120l36 232q6 38 45 38q42 0 36 -44l-66 -417q-6 -39 -44 -39q-41 0 -34 44l6 45q-27 -44 -70.5 -67.5t-98.5 -23.5z" />
    <glyph glyph-name="Uhungarumlaut" unicode="&#x170;" horiz-adv-x="728" 
d="M536 767q-9 -12 -20 -10t-16 11.5t2 21.5l83 138q10 16 23.5 18.5t24.5 -4t13.5 -19t-9.5 -27.5zM409 767q-9 -11 -20 -9.5t-16.5 10.5t1.5 21l80 138q10 15 23.5 18.5t25 -3t15 -18.5t-7.5 -26zM335 -9q-89 0 -149.5 34t-86 102t-9.5 170l60 376q6 39 46 39q43 0 35 -47
l-59 -375q-36 -226 167 -226q98 0 154.5 50t74.5 159l64 400q6 39 45 39q20 0 29.5 -12t5.5 -35l-62 -396q-22 -138 -98 -208t-217 -70z" />
    <glyph glyph-name="uhungarumlaut" unicode="&#x171;" horiz-adv-x="561" 
d="M415 560q-7 -14 -18.5 -15t-19.5 7.5t-3 22.5l59 164q6 19 19.5 24.5t26.5 1t18.5 -16.5t-2.5 -29zM287 560q-6 -14 -18 -15t-20 7.5t-3 22.5l60 164q6 19 19.5 24.5t26.5 1t18.5 -16.5t-2.5 -29zM211 -9q-79 0 -120.5 49t-24.5 153l41 262q6 38 45 38q20 0 29.5 -12
t5.5 -33l-40 -255q-21 -135 88 -135q69 0 112 45t54 120l36 232q6 38 45 38q42 0 36 -44l-66 -417q-6 -39 -44 -39q-41 0 -34 44l6 45q-27 -44 -70.5 -67.5t-98.5 -23.5z" />
    <glyph glyph-name="Uogonek" unicode="&#x172;" horiz-adv-x="728" 
d="M358 -192q-48 0 -73 25t-25 64q0 46 28.5 82t77.5 57l26 -36q-36 -15 -55 -39t-19 -52q0 -23 14 -37t39 -14q17 0 37 6q16 5 22.5 -5t4 -23t-14.5 -18q-14 -5 -31 -7.5t-31 -2.5zM335 -9q-89 0 -149.5 34t-86 102t-9.5 170l60 376q6 39 46 39q43 0 35 -47l-59 -375
q-36 -226 167 -226q98 0 154.5 50t74.5 159l64 400q6 39 45 39q20 0 29.5 -12t5.5 -35l-62 -396q-22 -138 -98 -208t-217 -70z" />
    <glyph glyph-name="uogonek" unicode="&#x173;" horiz-adv-x="561" 
d="M459 -182q-14 -5 -31 -7.5t-32 -2.5q-48 0 -72.5 25t-24.5 64q0 38 19.5 69.5t55.5 52.5q-2 7 0 18l6 45q-27 -44 -70.5 -67.5t-98.5 -23.5q-79 0 -120.5 49t-24.5 153l41 262q6 38 45 38q20 0 29.5 -12t5.5 -33l-40 -255q-21 -135 88 -135q69 0 112 45t54 120l36 232
q6 38 45 38q43 0 35 -46l-65 -415q-5 -29 -31 -38q-32 -13 -48 -35.5t-16 -49.5q0 -23 13.5 -37t39.5 -14q17 0 36 6q17 5 23.5 -5t4 -23t-14.5 -18z" />
    <glyph glyph-name="Wcircumflex" unicode="&#x174;" horiz-adv-x="1101" 
d="M527 767q-12 -12 -25.5 -10t-19.5 12.5t5 24.5l100 122q25 31 57 31q18 0 29 -9t21 -25l73 -119q10 -16 2 -26.5t-23 -11t-27 14.5l-81 113zM273 -7q-34 0 -42 42l-119 626q-5 23 6 37t32 14q33 0 40 -39l101 -552l282 558q17 33 48 33q30 0 38 -43l103 -554l284 566
q15 31 44 31q24 0 32.5 -16t-2.5 -39l-321 -631q-17 -33 -51 -33t-42 42l-102 544l-281 -553q-9 -17 -20.5 -25t-29.5 -8z" />
    <glyph glyph-name="wcircumflex" unicode="&#x175;" horiz-adv-x="841" 
d="M596 580q8 -16 -1 -26.5t-23 -10.5t-21 14l-72 142l-106 -143q-10 -13 -23.5 -12.5t-20.5 11t4 26.5l99 153q20 32 52 32q31 0 45 -32zM205 -7q-17 0 -29.5 10t-16.5 31l-84 400q-6 26 4 42.5t32 16.5q17 0 25 -8.5t12 -28.5l70 -360l192 369q15 28 45 28q15 0 26 -8.5
t15 -26.5l71 -366l191 371q16 30 45 30q24 0 31 -15.5t-4 -36.5l-219 -415q-17 -33 -52 -33q-38 0 -47 41l-70 343l-184 -350q-18 -34 -53 -34z" />
    <glyph glyph-name="Ycircumflex" unicode="&#x176;" horiz-adv-x="596" 
d="M268 767q-12 -12 -25.5 -10t-19.5 12.5t5 24.5l100 122q25 31 57 31q18 0 29 -9t21 -25l73 -119q10 -16 2 -26.5t-23 -11t-27 14.5l-81 113zM258 -7q-41 0 -34 48l47 292l-181 319q-13 24 -4 42t34 18q16 0 25 -7t18 -24l155 -275l249 281q12 14 22 19.5t24 5.5
q23 0 32 -19.5t-10 -40.5l-282 -318l-48 -300q-6 -41 -47 -41z" />
    <glyph glyph-name="ycircumflex" unicode="&#x177;" horiz-adv-x="514" 
d="M427 580q8 -16 -1 -26.5t-23 -10.5t-21 14l-72 142l-106 -143q-10 -13 -23.5 -12.5t-20.5 11t4 26.5l99 153q20 32 52 32q31 0 45 -32zM119 -187q-24 0 -31 16.5t6 38.5l83 140l-115 428q-7 25 3.5 41t33.5 16q18 0 26 -8.5t14 -28.5l90 -364l214 372q16 29 44 29
q24 0 32.5 -16.5t-4.5 -38.5l-352 -595q-9 -15 -18.5 -22.5t-25.5 -7.5z" />
    <glyph glyph-name="Ydieresis" unicode="&#x178;" horiz-adv-x="596" 
d="M466 802q-41 0 -41 37q0 26 14.5 41t39.5 15q41 0 41 -37q0 -26 -14 -41t-40 -15zM292 802q-40 0 -40 37q0 26 14 41t40 15q40 0 40 -37q0 -26 -14 -41t-40 -15zM258 -7q-41 0 -34 48l47 292l-181 319q-13 24 -4 42t34 18q16 0 25 -7t18 -24l155 -275l249 281
q12 14 22 19.5t24 5.5q23 0 32 -19.5t-10 -40.5l-282 -318l-48 -300q-6 -41 -47 -41z" />
    <glyph glyph-name="Zacute" unicode="&#x179;" horiz-adv-x="589" 
d="M415 769q-13 -13 -26.5 -10t-19 15t4.5 25l99 130q12 16 26.5 17.5t26 -6.5t14 -21t-10.5 -27zM50 0q-27 0 -34 25t19 55l474 554h-363q-37 0 -37 29q0 21 12 31.5t30 10.5h431q34 0 39.5 -25t-20.5 -54l-476 -555h379q38 0 38 -28q0 -22 -12 -32.5t-30 -10.5h-450z" />
    <glyph glyph-name="zacute" unicode="&#x17a;" horiz-adv-x="463" 
d="M316 555q-12 -13 -25 -11.5t-19 13t4 27.5l107 161q12 18 26.5 20t26 -5.5t14 -21.5t-8.5 -28zM55 0q-26 0 -34 19.5t11 41.5l323 363h-240q-33 0 -33 26q0 36 37 36h304q27 0 34 -20t-15 -44l-321 -359h252q34 0 34 -26q0 -17 -10 -27t-27 -10h-315z" />
    <glyph glyph-name="Zdotaccent" unicode="&#x17b;" horiz-adv-x="589" 
d="M385 803q-43 0 -43 38q0 27 15.5 42t42.5 15q43 0 43 -38q0 -26 -15.5 -41.5t-42.5 -15.5zM50 0q-27 0 -34 25t19 55l474 554h-363q-37 0 -37 29q0 21 12 31.5t30 10.5h431q34 0 39.5 -25t-20.5 -54l-476 -555h379q38 0 38 -28q0 -22 -12 -32.5t-30 -10.5h-450z" />
    <glyph glyph-name="zdotaccent" unicode="&#x17c;" horiz-adv-x="463" 
d="M292 605q-43 0 -43 38q0 27 15.5 42.5t42.5 15.5q43 0 43 -38q0 -27 -15.5 -42.5t-42.5 -15.5zM55 0q-26 0 -34 19.5t11 41.5l323 363h-240q-33 0 -33 26q0 36 37 36h304q27 0 34 -20t-15 -44l-321 -359h252q34 0 34 -26q0 -17 -10 -27t-27 -10h-315z" />
    <glyph glyph-name="Zcaron" unicode="&#x17d;" horiz-adv-x="589" 
d="M377 756q-18 0 -29.5 8.5t-20.5 24.5l-74 119q-9 16 -1.5 26.5t22 11t26.5 -15.5l81 -112l111 117q12 12 26 10t20.5 -12.5t-4.5 -23.5l-99 -122q-25 -31 -58 -31zM50 0q-27 0 -34 25t19 55l474 554h-363q-37 0 -37 29q0 21 12 31.5t30 10.5h431q34 0 39.5 -25t-20.5 -54
l-476 -555h379q38 0 38 -28q0 -22 -12 -32.5t-30 -10.5h-450z" />
    <glyph glyph-name="zcaron" unicode="&#x17e;" horiz-adv-x="463" 
d="M281 542q-32 0 -46 32l-66 153q-8 16 1 26.5t23 10t22 -15.5l72 -143l107 145q11 14 24.5 13t20 -11.5t-3.5 -25.5l-98 -150q-22 -34 -56 -34zM55 0q-26 0 -34 19.5t11 41.5l323 363h-240q-33 0 -33 26q0 36 37 36h304q27 0 34 -20t-15 -44l-321 -359h252q34 0 34 -26
q0 -17 -10 -27t-27 -10h-315z" />
    <glyph glyph-name="longs" unicode="&#x17f;" horiz-adv-x="283" 
d="M-64 -240q-34 0 -62 10v74q29 -11 55 -11q65 0 87 114l135 640q20 95 60.5 136.5t121.5 41.5q26 0 52 -6t43 -13l-23 -67q-36 14 -66 14q-43 0 -65.5 -24.5t-33.5 -81.5l-137 -650q-20 -92 -60.5 -134.5t-106.5 -42.5z" />
    <glyph glyph-name="uni0180" unicode="&#x180;" horiz-adv-x="579" 
d="M269 -10q-46 0 -82.5 24t-54.5 68h-5l-33 -82h-66l128 605h-70l14 66h70l19 89h88l-19 -89h196l-14 -66h-196q-18 -81 -28.5 -122.5t-13.5 -46.5h4q50 61 91.5 85t85.5 24q69 0 108 -47.5t39 -134.5q0 -101 -33.5 -188t-93 -136t-134.5 -49zM355 472q-46 0 -93.5 -46
t-74.5 -115.5t-27 -139.5q0 -51 26 -79.5t76 -28.5q48 0 89 40t65 111t24 150q0 108 -85 108z" />
    <glyph glyph-name="uni0181" unicode="&#x181;" horiz-adv-x="800" 
d="M223 0q-24 0 -35 13t-7 36l94 593h-33q-56 0 -85.5 -24.5t-39.5 -84.5l-4 -23q-5 -28 -37 -28q-19 0 -26.5 10.5t-4.5 29.5l3 22q12 81 58.5 121t143.5 40h302q110 0 162 -45t52 -120q0 -70 -39 -117.5t-105 -65.5q51 -17 80 -56t29 -93q0 -102 -65 -155t-184 -53h-259z
M315 390h201q78 0 123.5 36.5t45.5 105.5q0 52 -35.5 79.5t-108.5 27.5h-187zM263 66h219q167 0 167 145q0 56 -37 84.5t-106 28.5h-202z" />
    <glyph glyph-name="uni0182" unicode="&#x182;" horiz-adv-x="566" 
d="M98 0q-23 0 -34 13t-8 36l98 615q6 41 48 41h374q37 0 37 -28q0 -41 -41 -41h-342l-39 -242h195q110 0 165.5 -49t55.5 -128q0 -108 -65.5 -162.5t-190.5 -54.5h-253zM140 69h215q170 0 170 144q0 112 -147 112h-197z" />
    <glyph glyph-name="uni0183" unicode="&#x183;" horiz-adv-x="579" 
d="M269 -10q-46 0 -82.5 24t-54.5 68h-5l-33 -82h-66l161 760h390l-16 -74h-302l-22 -106q-9 -43 -21 -90t-16 -54h4q50 61 91.5 85t85.5 24q69 0 108 -47.5t39 -134.5q0 -101 -33.5 -188t-93 -136t-134.5 -49zM355 472q-46 0 -93.5 -46t-74.5 -115.5t-27 -139.5
q0 -51 26 -79.5t76 -28.5q48 0 89 40t65 111t24 150q0 108 -85 108z" />
    <glyph glyph-name="uni0184" unicode="&#x184;" horiz-adv-x="594" 
d="M158 156q0 -46 29.5 -67.5t88.5 -21.5q79 0 124 42.5t45 117.5q0 108 -151 108h-102l-27 -125q-7 -35 -7 -54zM183 714h89l-64 -302h103q107 0 166 -47t59 -134q0 -110 -71 -175.5t-190 -65.5q-102 0 -154 41t-52 119q0 31 7 60z" />
    <glyph glyph-name="uni0185" unicode="&#x185;" horiz-adv-x="573" 
d="M252 -10q-88 0 -137 48.5t-49 138.5q0 35 12 90l105 493h88l-39 -185q-24 -104 -36 -139h4q48 59 90 84t83 25q74 0 112.5 -47.5t38.5 -139.5q0 -99 -34 -187t-95.5 -134.5t-142.5 -46.5zM154 178q0 -115 99 -115q51 0 91.5 39t65 111.5t24.5 147.5q0 56 -20.5 83.5
t-64.5 27.5q-36 0 -74.5 -29.5t-68 -79t-41 -102t-11.5 -83.5z" />
    <glyph glyph-name="uni0186" unicode="&#x186;" horiz-adv-x="586" 
d="M170 69q86 0 151.5 48.5t102.5 138.5t37 193q0 91 -47 143.5t-128 52.5q-71 0 -158 -29v78q43 16 82.5 23t91.5 7q120 0 187 -73t67 -200q0 -125 -50.5 -234.5t-138 -168t-197.5 -58.5q-101 0 -174 40l36 74q67 -35 138 -35z" />
    <glyph glyph-name="uni0187" unicode="&#x187;" horiz-adv-x="586" 
d="M689 858q34 0 54 -11v-73q-27 9 -46 9q-22 0 -35.5 -12.5t-20.5 -44.5l-28 -122q-35 19 -75 30t-80 11q-85 0 -150.5 -48.5t-103 -138t-37.5 -193.5q0 -91 46.5 -143.5t128.5 -52.5q70 0 158 29v-78q-80 -30 -174 -30q-120 0 -187 73t-67 200q0 125 50.5 235t138 168
t197.5 58q57 0 102 -13l7 33q13 58 42.5 86t79.5 28z" />
    <glyph glyph-name="uni0188" unicode="&#x188;" horiz-adv-x="453" 
d="M531 765q33 0 54 -11v-73q-25 9 -46 9q-24 0 -36 -13t-18 -44l-41 -190q-58 29 -115 29q-54 0 -98 -37.5t-68.5 -101.5t-24.5 -142q0 -61 31 -94.5t87 -33.5q36 0 67 10t62 23v-74q-62 -32 -138 -32q-95 0 -147 52.5t-52 147.5q0 99 36 181t99.5 128.5t144.5 46.5
q30 0 58 -5l23 110q22 114 122 114z" />
    <glyph glyph-name="uni0189" unicode="&#x189;" horiz-adv-x="666" 
d="M45 326q-35 0 -35 27q0 37 39 37h307q35 0 35 -26q0 -38 -39 -38h-307zM98 0q-23 0 -34.5 13t-7.5 36l98 615q6 41 48 41h166q160 0 247 -77.5t87 -217.5q0 -85 -24 -159t-73 -130.5t-124 -88.5t-179 -32h-204zM142 70h162q84 0 143 26.5t96 73.5t54.5 108.5t17.5 130.5
q0 110 -62.5 168t-185.5 58h-135z" />
    <glyph glyph-name="uni018A" unicode="&#x18a;" horiz-adv-x="867" 
d="M222 0q-23 0 -34 13t-8 36l95 593h-33q-54 0 -85 -24.5t-40 -84.5l-4 -23q-4 -28 -37 -28q-19 0 -27 10.5t-4 29.5l3 22q14 81 60 121t142 40h242q160 0 247 -77.5t87 -217.5q0 -85 -24 -159t-73 -130.5t-124 -88.5t-179 -32h-204zM266 70h162q84 0 143 26.5t96 73.5
t54.5 108.5t17.5 130.5q0 110 -62 168t-186 58h-136z" />
    <glyph glyph-name="uni018B" unicode="&#x18b;" horiz-adv-x="570" 
d="M48 177q0 114 79.5 174.5t230.5 60.5h64l47 223h-303l17 79h391l-151 -714h-161q-104 0 -159 45t-55 132zM405 335h-62q-100 0 -152 -40t-52 -115q0 -103 135 -103h76z" />
    <glyph glyph-name="uni018C" unicode="&#x18c;" horiz-adv-x="579" 
d="M193 -10q-67 0 -106 47.5t-39 135.5q0 102 34 189t94.5 135t134.5 48q93 0 135 -92h5q5 39 10 69t34 164h-302l16 74h388l-161 -760h-72l11 99h-4q-47 -58 -89.5 -83.5t-88.5 -25.5zM223 63q45 0 92 45.5t74.5 114.5t27.5 141q0 53 -25.5 80.5t-74.5 27.5
q-48 0 -89 -40.5t-65.5 -111t-24.5 -149.5q0 -108 85 -108z" />
    <glyph glyph-name="uni018D" unicode="&#x18d;" horiz-adv-x="554" 
d="M311 293q47 -38 66.5 -73.5t19.5 -75.5q0 -69 -49.5 -111.5t-130.5 -42.5q-93 0 -174 56l35 63q47 -28 79.5 -38t60.5 -10q50 0 72.5 23t22.5 60q0 20 -6.5 35.5t-19 30.5t-60.5 54q-68 55 -96 109t-28 117q0 78 32 140t91.5 96t138.5 34q60 0 105.5 -25.5t69.5 -70.5
t24 -101q0 -213 -253 -270zM356 687q-75 0 -119.5 -55t-44.5 -141q0 -96 69 -155q104 20 158.5 75t54.5 140q0 64 -31.5 100t-86.5 36z" />
    <glyph glyph-name="uni018E" unicode="&#x18e;" horiz-adv-x="514" 
d="M155 714h362l-151 -714h-362l17 79h273l54 255h-255l15 78h256l48 223h-274z" />
    <glyph glyph-name="uni018F" unicode="&#x18f;" horiz-adv-x="767" 
d="M363 -9q-82 0 -141 30t-95 81.5t-48 118t0 139.5q5 30 36 30h523v21q0 105 -62.5 167.5t-172.5 62.5q-66 0 -119 -15t-98 -47q-18 -11 -31.5 -7t-20 16.5t-3.5 27.5t20 25q53 38 120 55.5t145 17.5q92 0 161.5 -39t108.5 -108t39 -159q0 -119 -41.5 -213.5t-122 -149
t-198.5 -54.5zM369 63q75 0 129.5 33t87.5 91t45 134h-472q-6 -75 13.5 -133.5t68 -91.5t128.5 -33z" />
    <glyph glyph-name="uni0190" unicode="&#x190;" horiz-adv-x="538" 
d="M138 520q0 62 29.5 108.5t84 71t124.5 24.5q61 0 104.5 -14t101.5 -55l-41 -61q-45 32 -82 44t-84 12q-67 0 -106.5 -36.5t-39.5 -99.5q0 -53 37 -80t109 -27h89l-16 -75h-93q-229 0 -229 -156q0 -53 36 -82.5t106 -29.5q97 0 202 50v-82q-88 -42 -205 -42
q-110 0 -171 47.5t-61 133.5q0 88 50 138.5t161 67.5l1 4q-51 13 -79 49.5t-28 89.5z" />
    <glyph glyph-name="uni0191" unicode="&#x191;" horiz-adv-x="477" 
d="M-37 -240q-17 0 -33 4.5t-25 10.5v76q23 -12 43 -12q30 0 48 19t28 63l168 793h362l-16 -79h-274l-53 -254h256l-17 -79h-256l-82 -385q-18 -83 -52.5 -120t-96.5 -37z" />
    <glyph glyph-name="florin" unicode="&#x192;" horiz-adv-x="600" 
d="M6 -189q-37 0 -37 28q0 16 10.5 27t28.5 11h28q43 0 71.5 23t50.5 82l163 441h-77q-21 0 -30.5 8t-9.5 19q0 36 40 36h101l24 64q30 83 77.5 123.5t136.5 40.5h16q17 0 26 -8.5t9 -20.5q0 -16 -10.5 -27.5t-26.5 -11.5h-25q-46 0 -75 -22.5t-50 -81.5l-21 -56h81
q21 0 30.5 -7.5t9.5 -19.5q0 -36 -40 -36h-105l-168 -451q-22 -61 -50 -96t-67 -50t-94 -15h-17z" />
    <glyph glyph-name="uni0193" unicode="&#x193;" horiz-adv-x="678" 
d="M398 376h229l-76 -349q-59 -21 -107.5 -29t-100.5 -8q-128 0 -199.5 71t-71.5 198q0 131 50 239t138.5 167t196.5 59q70 0 134 -18l9 39q13 57 43 85t79 28q33 0 54 -11v-73q-27 9 -46 9q-22 0 -35 -12.5t-21 -44.5l-29 -125q-99 44 -189 44q-81 0 -147.5 -49t-104 -136
t-37.5 -195q0 -92 48.5 -144t136.5 -52q69 0 123 18l46 211h-140z" />
    <glyph glyph-name="uni0194" unicode="&#x194;" horiz-adv-x="551" 
d="M281 101q24 -100 24 -170q0 -79 -36.5 -125t-98.5 -46q-45 0 -72 30t-27 79q0 50 29.5 108.5t86.5 129.5l-95 607h89l52 -369q13 -85 16 -158q28 72 77 156l216 371h102zM177 -162q23 0 36 30.5t13 76.5q0 43 -10 80q-35 -51 -48.5 -89.5t-13.5 -62.5q0 -35 23 -35z" />
    <glyph glyph-name="uni0195" unicode="&#x195;" horiz-adv-x="877" 
d="M509 408q0 -27 -11 -82l-29 -134q-6 -26 -6 -45q0 -84 95 -84q57 0 89.5 35t49.5 117l69 321h89l-69 -327q-25 -117 -79 -168t-156 -51q-84 0 -130.5 38t-46.5 108q0 20 6 50l31 150q9 40 9 66q0 70 -66 70q-40 0 -77.5 -28.5t-66.5 -83t-45 -129.5l-49 -231h-88l161 760
h88l-43 -197q-6 -30 -15 -62.5t-17 -64.5h5q43 59 85 84t88 25q62 0 95.5 -35.5t33.5 -101.5z" />
    <glyph glyph-name="uni0196" unicode="&#x196;" horiz-adv-x="311" 
d="M191 62q26 0 69 13v-67q-16 -7 -42 -12.5t-44 -5.5q-61 0 -92 30t-31 87q0 23 10 73l113 534h88l-114 -537q-8 -35 -8 -59q0 -56 51 -56z" />
    <glyph glyph-name="uni0197" unicode="&#x197;" horiz-adv-x="324" 
d="M230 0h-250l10 49l85 20l55 258h-83l17 78h82l51 240l-76 19l10 50h250l-10 -50l-86 -19l-51 -240h84l-17 -78h-84l-54 -258l77 -20z" />
    <glyph glyph-name="uni0198" unicode="&#x198;" horiz-adv-x="562" 
d="M341 400l169 -400h-98l-139 346l-83 -61l-60 -285h-89l151 714h89l-74 -347l62 66l216 221q34 36 61 51t59 15q24 0 47 -9v-71q-22 5 -38 5q-18 0 -35 -10t-45 -39z" />
    <glyph glyph-name="uni0199" unicode="&#x199;" horiz-adv-x="495" 
d="M298 765q17 0 33.5 -4.5t24.5 -8.5v-73q-21 10 -52 10q-42 0 -55 -58q-49 -228 -58 -263.5t-26 -90.5h2l254 259h104l-230 -230l143 -306h-97l-113 251l-72 -57l-40 -194h-89l132 625q17 77 49.5 108.5t89.5 31.5z" />
    <glyph glyph-name="uni019A" unicode="&#x19a;" horiz-adv-x="257" 
d="M204 420h66l-14 -66h-66l-75 -354h-88l76 354h-64l14 66h64l72 340h88z" />
    <glyph glyph-name="uni019B" unicode="&#x19b;" horiz-adv-x="491" 
d="M248 525l-8 63l-104 -32l-18 60l109 34q-18 43 -61 43q-29 0 -50 -5l-11 70q33 8 69 8q55 0 86.5 -20.5t47.5 -70.5l97 31l18 -61l-103 -32l57 -499q6 -53 36 -53q16 0 33 6v-66q-25 -11 -57 -11q-45 0 -67 25t-27 78l-20 189q-9 73 -9 150q-29 -75 -58 -127l-171 -305
h-93zM290 535z" />
    <glyph glyph-name="uni019C" unicode="&#x19c;" horiz-adv-x="958" 
d="M271 714l-107 -506q-6 -27 -6 -49q0 -44 22 -67.5t65 -23.5q77 0 122.5 46.5t67.5 147.5l96 452h89l-107 -506q-6 -26 -6 -51q0 -42 21 -65.5t65 -23.5q73 0 119 49.5t70 164.5l92 432h88l-151 -714h-65l8 82h-4q-63 -92 -177 -92q-112 0 -139 100h-4q-77 -100 -200 -100
q-76 0 -119 42.5t-43 114.5q0 30 7 61l107 506h89z" />
    <glyph glyph-name="uni019D" unicode="&#x19d;" horiz-adv-x="707" 
d="M561 0h-95l-221 592h-3q-2 -19 -12.5 -82.5t-23.5 -123.5l-102 -480q-16 -76 -50.5 -111t-91.5 -35q-17 0 -33 4.5t-25 10.5v76q23 -12 43 -12q31 0 48.5 19.5t27.5 62.5l168 793h95l219 -590h3q6 45 17 106t18 91l84 393h85z" />
    <glyph glyph-name="uni019E" unicode="&#x19e;" horiz-adv-x="579" 
d="M390 -240h-88l123 576q10 48 10 69q0 31 -17 49t-54 18q-42 0 -82 -28.5t-70.5 -83t-46.5 -129.5l-49 -231h-88l114 536h72l-11 -99h5q33 42 59 63t56.5 33.5t64.5 12.5q63 0 99 -34.5t36 -97.5q0 -38 -11 -88z" />
    <glyph glyph-name="uni019F" unicode="&#x19f;" horiz-adv-x="721" 
d="M368 -9q-88 0 -154 35t-102 102.5t-36 165.5q0 119 42 214t121.5 150.5t194.5 55.5q89 0 154.5 -35t101.5 -102.5t36 -164.5q0 -120 -42 -215t-121.5 -150.5t-194.5 -55.5zM431 641q-72 0 -125.5 -32t-87.5 -88t-47 -130h467q1 9 1 20q0 116 -55.5 173t-152.5 57zM370 64
q74 0 128.5 33.5t88 92t45.5 135.5h-468q-1 -15 -1 -30q0 -117 55.5 -174t151.5 -57z" />
    <glyph glyph-name="Ohorn" unicode="&#x1a0;" horiz-adv-x="767" 
d="M525 655l-42 54q26 -2 46 -3t39 -1q45 0 70 14t36.5 38.5t16.5 54.5t40 30q37 0 33 -31q-11 -72 -51.5 -114t-114.5 -42h-73zM368 -9q-88 0 -154 35t-102 102.5t-36 165.5q0 119 42 214t121.5 150.5t194.5 55.5q89 0 154.5 -35t101.5 -102.5t36 -164.5q0 -120 -42 -215
t-121.5 -150.5t-194.5 -55.5zM370 64q87 0 147 45.5t91 124t31 177.5q0 116 -55.5 173t-152.5 57q-86 0 -146 -45.5t-91 -123.5t-31 -177q0 -117 55.5 -174t151.5 -57z" />
    <glyph glyph-name="ohorn" unicode="&#x1a1;" horiz-adv-x="556" 
d="M402 436l-39 28l3 22q52 1 76.5 17.5t34.5 41t15 49.5q6 29 39 29q38 0 33 -32q-9 -66 -48 -108t-114 -47zM255 -9q-98 0 -154.5 57.5t-56.5 156.5q0 82 32 148t89.5 104t135.5 38q98 0 154 -57.5t56 -156.5q0 -82 -31.5 -147.5t-89.5 -104t-135 -38.5zM258 56
q55 0 93.5 31t58 82.5t19.5 114.5q0 72 -34.5 109t-96.5 37q-55 0 -93.5 -30.5t-58.5 -82.5t-20 -115q0 -71 35 -108.5t97 -37.5z" />
    <glyph glyph-name="uni01A2" unicode="&#x1a2;" horiz-adv-x="1004" 
d="M680 444q0 -133 -43.5 -237.5t-121.5 -160.5t-180 -56q-125 0 -194 73t-69 204q0 130 47.5 236.5t128.5 164t181 57.5q128 0 195 -89q40 42 91 65.5t101 23.5q77 0 120 -40t43 -115q0 -34 -7 -63l-106 -507h-89l107 507q6 26 6 52q0 88 -88 88q-80 0 -147 -65
q25 -61 25 -138zM423 646q-72 0 -131.5 -49.5t-92 -136.5t-32.5 -191q0 -95 45.5 -147.5t125.5 -52.5q70 0 127 49.5t88.5 137t31.5 190.5q0 93 -43.5 146.5t-118.5 53.5z" />
    <glyph glyph-name="uni01A3" unicode="&#x1a3;" horiz-adv-x="796" 
d="M501 336q0 -93 -35.5 -175t-94.5 -125.5t-133 -43.5q-89 0 -139.5 55.5t-50.5 150.5q0 94 36 176t96.5 125.5t135.5 43.5q99 0 147 -71q32 37 71.5 55.5t78.5 18.5q63 0 95.5 -36t32.5 -100q0 -27 -6 -61l-125 -589h-89l125 585q7 29 7 56q0 71 -65 71q-58 0 -100 -48
q13 -41 13 -88zM411 346q0 57 -25.5 90.5t-68.5 33.5q-52 0 -93.5 -36t-64 -99.5t-22.5 -139.5q0 -62 27 -96t79 -34q47 0 86 35.5t60.5 100t21.5 145.5z" />
    <glyph glyph-name="uni01A4" unicode="&#x1a4;" horiz-adv-x="642" 
d="M642 528q0 -121 -80 -185t-234 -64h-64l-59 -279h-89l134 637h-17q-76 0 -76 -72q0 -18 5 -32h-75q-7 14 -7 38q0 69 42.5 106t118.5 37h187q105 0 159.5 -46.5t54.5 -139.5zM280 354h62q102 0 155.5 44t53.5 127q0 60 -33.5 86t-101.5 26h-76z" />
    <glyph glyph-name="uni01A5" unicode="&#x1a5;" horiz-adv-x="579" 
d="M384 545q69 0 107.5 -48.5t38.5 -134.5q0 -103 -34.5 -190.5t-93.5 -134.5t-132 -47q-45 0 -81.5 23.5t-57.5 68.5h-5q-3 -51 -12 -91l-49 -231h-87l182 865q16 76 47.5 108t90.5 32q17 0 33.5 -4.5t24.5 -8.5v-73q-21 10 -52 10q-42 0 -55 -60l-10 -48q-14 -67 -37 -145
h4q49 60 91.5 84.5t86.5 24.5zM355 472q-44 0 -90.5 -43.5t-75.5 -113.5t-29 -144q0 -52 26 -80t76 -28q48 0 89 40t65 111t24 150q0 108 -85 108z" />
    <glyph glyph-name="uni01A6" unicode="&#x1a6;" horiz-adv-x="573" 
d="M187 271h78q92 0 141.5 40.5t49.5 115.5q0 57 -31.5 83t-104.5 26h-77zM170 195l-41 -195h-88l151 714h89l-21 -100h68q220 0 220 -181q0 -168 -178 -218l118 -315h-98l-102 295h-118z" />
    <glyph glyph-name="uni01A7" unicode="&#x1a7;" horiz-adv-x="504" 
d="M431 554q0 42 -28.5 66.5t-79.5 24.5q-62 0 -144 -37l-27 76q88 40 182 40q87 0 139 -46.5t52 -122.5q0 -56 -22.5 -97t-67.5 -72.5t-134 -63.5q-99 -36 -131.5 -55t-46 -41.5t-13.5 -57.5q0 -46 33.5 -73t90.5 -27q86 0 174 37v-78q-75 -37 -180 -37q-99 0 -154 46.5
t-55 126.5q0 38 9.5 67t26 51.5t39.5 39.5t49.5 30.5t55.5 24t58 21.5q83 30 114 50t45.5 45t14.5 62z" />
    <glyph glyph-name="uni01A8" unicode="&#x1a8;" horiz-adv-x="432" 
d="M339 409q0 30 -21 47.5t-62 17.5q-48 0 -130 -34l-23 69q81 37 162 37q74 0 118 -35t44 -97q0 -45 -18.5 -75.5t-55.5 -52.5t-121 -47q-61 -18 -84 -31t-36 -30.5t-13 -42.5q0 -34 23 -54t73 -20q34 0 68.5 9.5t81.5 31.5v-77q-67 -35 -158 -35q-84 0 -130.5 39
t-46.5 107q0 43 20.5 75t57.5 54.5t107 42.5q61 17 90 30t41.5 28.5t12.5 42.5z" />
    <glyph glyph-name="uni01A9" unicode="&#x1a9;" horiz-adv-x="522" 
d="M27 -180q-31 0 -38.5 25t18.5 56l316 369l-198 350q-18 32 -8 58.5t43 26.5h429q40 0 40 -30q0 -21 -12.5 -30.5t-31.5 -9.5h-380l184 -324q17 -30 15 -47t-26 -45l-282 -329h364q40 0 40 -30q0 -20 -12.5 -30t-31.5 -10h-429z" />
    <glyph glyph-name="uni01AA" unicode="&#x1aa;" horiz-adv-x="292" 
d="M165 -168q26 0 69 13v-67q-15 -7 -40 -12.5t-46 -5.5q-62 0 -92.5 30.5t-30.5 86.5q0 30 10 75l128 595h-27q-53 0 -83 27.5t-30 76.5q0 56 35 87.5t100 31.5q52 0 81.5 -29.5t29.5 -80.5q0 -23 -4 -40l-143 -673q-8 -37 -8 -59q0 -56 51 -56zM146 698q-21 0 -32 -12
t-11 -30q0 -19 12 -28t30 -9h32q6 23 6 38q0 20 -9.5 30.5t-27.5 10.5z" />
    <glyph glyph-name="uni01AB" unicode="&#x1ab;" horiz-adv-x="332" 
d="M198 62q37 0 78 13l-43 -201q-13 -59 -42 -86.5t-80 -27.5q-33 0 -54 11v73q27 -9 46 -9q22 0 34 11.5t20 45.5l21 98q-60 1 -90.5 31.5t-30.5 85.5q0 31 9 71l61 291h-83l8 40l90 38l62 111h52l-27 -122h135l-14 -67h-134l-62 -292q-9 -40 -9 -60q0 -23 12 -39t41 -16z
" />
    <glyph glyph-name="uni01AC" unicode="&#x1ac;" horiz-adv-x="540" 
d="M281 0h-90l134 635h-92q-38 0 -57 -16.5t-19 -53.5q0 -18 5 -32h-75q-7 14 -7 38q0 69 42.5 106t118.5 37h387l-16 -79h-196z" />
    <glyph glyph-name="uni01AD" unicode="&#x1ad;" horiz-adv-x="332" 
d="M198 62q30 0 71 13v-67q-14 -7 -39.5 -12.5t-44.5 -5.5q-62 0 -95 29.5t-33 87.5q0 31 9 71l61 291h-83l8 40l92 39l14 63q18 84 55 119t105 35q36 0 68 -13v-73q-31 10 -65 10q-60 0 -74 -68l-18 -85h135l-14 -67h-134l-62 -292q-9 -40 -9 -60q0 -23 12 -39t41 -16z" />
    <glyph glyph-name="uni01AE" unicode="&#x1ae;" horiz-adv-x="500" 
d="M286 635h-196l17 79h482l-16 -79h-196l-151 -714q-4 -17 -4 -35q0 -47 48 -47q23 0 44 10v-76q-11 -6 -30.5 -9.5t-39.5 -3.5q-53 0 -84.5 29t-31.5 82q0 20 6 46z" />
    <glyph glyph-name="Uhorn" unicode="&#x1af;" horiz-adv-x="728" 
d="M686 655l-39 28l4 22q65 1 90.5 27.5t33.5 73.5q6 29 40 29q38 0 33 -29q-10 -69 -52.5 -108t-109.5 -43zM335 -9q-89 0 -149.5 34t-86 102t-9.5 170l60 376q6 39 46 39q43 0 35 -47l-59 -375q-36 -226 167 -226q98 0 154.5 50t74.5 159l64 400q6 39 45 39q20 0 29.5 -12
t5.5 -35l-62 -396q-22 -138 -98 -208t-217 -70z" />
    <glyph glyph-name="uhorn" unicode="&#x1b0;" horiz-adv-x="561" 
d="M211 -9q-79 0 -120.5 49t-24.5 153l41 262q6 38 45 38q20 0 29.5 -12t5.5 -33l-40 -255q-21 -135 88 -135q69 0 112 45t54 120l35 227q6 37 44 39q54 4 74.5 31.5t29.5 73.5q6 29 39 29q38 0 33 -32q-8 -61 -42 -102t-99 -50l-63 -407q-6 -39 -44 -39q-41 0 -34 44l6 45
q-27 -44 -70.5 -67.5t-98.5 -23.5z" />
    <glyph glyph-name="uni01B1" unicode="&#x1b1;" horiz-adv-x="731" 
d="M351 68q72 0 128 40t86 112t30 162q0 83 -23.5 145t-78.5 117l14 70h280l-16 -79h-179q48 -47 73 -112.5t25 -144.5q0 -110 -45 -201t-124 -139.5t-177 -48.5q-83 0 -144 33.5t-93.5 96.5t-32.5 145q0 114 55.5 210.5t155.5 160.5h-169l16 79h288l-14 -70
q-116 -69 -176.5 -166.5t-60.5 -214.5q0 -91 47.5 -143t134.5 -52z" />
    <glyph glyph-name="uni01B2" unicode="&#x1b2;" horiz-adv-x="554" 
d="M596 603q0 -27 -6.5 -53t-18.5 -52.5t-42 -74.5t-264 -423h-96l-77 714h88l46 -465q9 -89 9 -157q37 80 84 155l129 204q27 43 42.5 79t15.5 69q0 46 -45 46q-23 0 -46 -10v76q11 6 30 9.5t36 3.5q55 0 85 -31.5t30 -89.5z" />
    <glyph glyph-name="uni01B3" unicode="&#x1b3;" horiz-adv-x="613" 
d="M259 -7q-43 0 -35 48l46 292l-181 321q-13 22 -3 40t35 18q14 0 23.5 -6.5t18.5 -24.5l155 -275l203 229q39 44 72.5 61.5t78.5 17.5q29 0 45.5 -7t16.5 -27q0 -14 -12 -23.5t-15 -8.5q-2 0 -13 1t-17 1q-24 0 -44.5 -11.5t-44.5 -39.5l-235 -265l-47 -299
q-7 -42 -47 -42z" />
    <glyph glyph-name="uni01B4" unicode="&#x1b4;" horiz-adv-x="551" 
d="M120 -187q-24 0 -31.5 16.5t5.5 38.5l83 140l-115 426q-7 26 3.5 42.5t34.5 16.5q17 0 25 -8.5t14 -28.5l90 -364l172 299q32 56 68.5 80t93.5 24q37 0 51.5 -8.5t14.5 -24.5q0 -15 -8 -25t-20 -10q-4 0 -15 1t-20 1q-30 0 -53.5 -16.5t-49.5 -60.5l-299 -509
q-9 -15 -19 -22.5t-25 -7.5z" />
    <glyph glyph-name="uni01B5" unicode="&#x1b5;" horiz-adv-x="530" 
d="M102 407h168l179 227h-315l17 80h422l-13 -71l-187 -236h117l-15 -71h-158l-202 -256h335l-16 -80h-444l14 70l210 266h-127z" />
    <glyph glyph-name="uni01B6" unicode="&#x1b6;" horiz-adv-x="444" 
d="M66 313h137l127 157h-230l14 66h325l-14 -71l-125 -152h95l-15 -70h-137l-145 -177h255l-13 -66h-355l12 60l149 183h-95z" />
    <glyph glyph-name="uni01B7" unicode="&#x1b7;" horiz-adv-x="528" 
d="M302 -9q-77 0 -140.5 17.5t-116.5 57.5q-15 10 -17.5 24.5t4.5 27t20.5 16.5t30.5 -8q49 -35 103.5 -48.5t116.5 -13.5q50 0 92 13.5t68 45.5t26 87q0 59 -39.5 86t-114.5 27h-96q-25 0 -31 20.5t12 37.5l280 254h-353q-38 0 -38 30q0 20 13 30t30 10h435q29 0 34 -23.5
t-20 -45.5l-272 -246h26q113 0 164.5 -50.5t51.5 -127.5q0 -74 -35 -123t-96 -73.5t-138 -24.5z" />
    <glyph glyph-name="uni01B8" unicode="&#x1b8;" horiz-adv-x="538" 
d="M142 643l15 71h409l-17 -80h-311l173 -237l-13 -64h-34q-238 0 -238 -157q0 -56 38.5 -84t111.5 -28q89 0 194 50v-83q-86 -41 -210 -41q-109 0 -168 48.5t-59 137.5q0 104 74.5 162t207.5 64z" />
    <glyph glyph-name="uni01B9" unicode="&#x1b9;" horiz-adv-x="463" 
d="M89 472l13 64h372l-15 -74h-278l161 -243l-13 -61h-55q-104 0 -163 -50t-59 -139q0 -62 36.5 -99t100.5 -37q40 0 75.5 8t90.5 33v-77q-74 -37 -176 -37q-99 0 -157 55t-58 148q0 79 35 137t99 91t151 37z" />
    <glyph glyph-name="uni01BA" unicode="&#x1ba;" horiz-adv-x="463" 
d="M111 -167q80 0 153 34v-76q-66 -31 -155 -31q-78 0 -123 30t-45 85q0 62 42 93t152 48q99 15 137.5 45.5t38.5 84.5q0 46 -36 69t-117 23h-50l11 61l198 163h-245l15 74h363l-13 -64l-209 -169q80 -6 125.5 -49t45.5 -111q0 -90 -61.5 -137.5t-208.5 -68.5
q-59 -8 -82.5 -21t-23.5 -38q0 -20 21.5 -32.5t66.5 -12.5z" />
    <glyph glyph-name="uni01BB" unicode="&#x1bb;" horiz-adv-x="529" 
d="M425 0h-441l16 75l264 274h-173l15 70h220q44 52 63.5 95.5t19.5 90.5q0 38 -23.5 61.5t-62.5 23.5q-38 0 -73 -14t-80 -48l-42 60q95 77 197 77q79 0 127.5 -41.5t48.5 -107.5q0 -108 -81 -197h97l-15 -70h-135l-254 -265v-4h327z" />
    <glyph glyph-name="uni01BC" unicode="&#x1bc;" horiz-adv-x="529" 
d="M285 634l-44 -193h19q102 0 159.5 -50.5t57.5 -142.5q0 -123 -75 -190.5t-212 -67.5q-117 0 -183 39v82q40 -22 87.5 -34.5t93.5 -12.5q95 0 146 46t51 129q0 62 -36.5 95t-106.5 33h-101l59 267h-78l17 80h408l-17 -80h-245z" />
    <glyph glyph-name="uni01BD" unicode="&#x1bd;" horiz-adv-x="461" 
d="M229 462l-26 -117h16q83 0 131 -41t48 -112q0 -94 -63.5 -148t-173.5 -54q-109 0 -161 35v79q74 -42 159 -42q71 0 113 34.5t42 92.5q0 41 -36 62.5t-103 21.5h-68l41 189h-63l15 74h345l-15 -74h-201z" />
    <glyph glyph-name="uni01BE" unicode="&#x1be;" horiz-adv-x="426" 
d="M141 332q0 20 6 46l19 91h-83l8 40l90 38l62 111h52l-27 -122h135l-14 -67h-134l-20 -93q-4 -15 -4 -30q0 -19 8.5 -29.5t23.5 -19.5q57 -32 79.5 -64t22.5 -76q0 -78 -57.5 -122.5t-155.5 -44.5q-45 0 -87.5 9.5t-64.5 25.5v79q70 -43 146 -43q63 0 99 24t36 64
q0 26 -16.5 45t-58.5 43q-36 21 -50.5 43t-14.5 52z" />
    <glyph glyph-name="uni01BF" unicode="&#x1bf;" horiz-adv-x="566" 
d="M65 -240h-87l164 776h72l-12 -101h4q36 52 82.5 81t94.5 29q67 0 105 -48t38 -130q0 -94 -54 -176.5t-148.5 -135t-209.5 -65.5zM129 67q83 10 153.5 53.5t111.5 109.5t41 135q0 51 -21 79t-59 28q-58 0 -113.5 -68t-76.5 -167z" />
    <glyph glyph-name="uni01C0" unicode="&#x1c0;" horiz-adv-x="516" 
d="M297 -240h-78v1000h78v-1000z" />
    <glyph glyph-name="uni01C1" unicode="&#x1c1;" horiz-adv-x="516" 
d="M169 -240h-78v1000h78v-1000zM426 -240h-78v1000h78v-1000z" />
    <glyph glyph-name="uni01C2" unicode="&#x1c2;" horiz-adv-x="516" 
d="M65 402h154v358h78v-358h154v-72h-154v-124h154v-72h-154v-374h-78v374h-154v72h154v124h-154v72z" />
    <glyph glyph-name="uni01C3" unicode="&#x1c3;" horiz-adv-x="261" 
d="M107 181q-27 0 -24 31l51 452q5 48 52 48q24 0 35.5 -15t5.5 -42l-91 -448q-3 -11 -10 -18.5t-19 -7.5zM85 -4q-25 0 -40 15.5t-15 39.5t15 39.5t40 15.5t40 -15.5t15 -39.5t-15 -39.5t-40 -15.5z" />
    <glyph glyph-name="uni01C4" unicode="&#x1c4;" horiz-adv-x="1316" 
d="M98 0q-23 0 -34.5 13t-7.5 36l98 615q6 41 48 41h166q160 0 247 -77.5t87 -217.5q0 -85 -24 -159t-73 -130.5t-124 -88.5t-179 -32h-204zM142 70h162q84 0 143 26.5t96 73.5t54.5 108.5t17.5 130.5q0 110 -62.5 168t-185.5 58h-135zM1104 756q-18 0 -29.5 8.5t-20.5 24.5
l-74 119q-9 16 -1.5 26.5t22 11t26.5 -15.5l81 -112l111 117q12 12 26 10t20.5 -12.5t-4.5 -23.5l-99 -122q-25 -31 -58 -31zM777 0q-27 0 -34 25t19 55l474 554h-363q-37 0 -37 29q0 21 12 31.5t30 10.5h431q34 0 39.5 -25t-20.5 -54l-476 -555h379q38 0 38 -28
q0 -22 -12 -32.5t-30 -10.5h-450z" />
    <glyph glyph-name="uni01C5" unicode="&#x1c5;" horiz-adv-x="1206" 
d="M98 0q-23 0 -34.5 13t-7.5 36l98 615q6 41 48 41h166q160 0 247 -77.5t87 -217.5q0 -85 -24 -159t-73 -130.5t-124 -88.5t-179 -32h-204zM142 70h162q84 0 143 26.5t96 73.5t54.5 108.5t17.5 130.5q0 110 -62.5 168t-185.5 58h-135zM1023 542q-32 0 -46 32l-66 153
q-8 16 1 26.5t23 10t22 -15.5l72 -143l107 145q11 14 24.5 13t20 -11.5t-3.5 -25.5l-98 -150q-22 -34 -56 -34zM797 0q-26 0 -34 19.5t11 41.5l323 363h-240q-33 0 -33 26q0 36 37 36h304q27 0 34 -20t-15 -44l-321 -359h252q34 0 34 -26q0 -17 -10 -27t-27 -10h-315z" />
    <glyph glyph-name="uni01C6" unicode="&#x1c6;" horiz-adv-x="1046" 
d="M231 -9q-84 0 -135.5 56t-51.5 152q0 81 28.5 148.5t83 107.5t132.5 40q55 0 98.5 -25.5t63.5 -78.5l45 282q5 39 46 39t33 -47l-100 -631q-6 -41 -46 -41q-19 0 -27.5 13t-4.5 36l7 40q-28 -42 -72 -66.5t-100 -24.5zM257 56q56 0 94 31t58 82.5t20 114.5q0 72 -35 109
t-96 37q-56 0 -94 -30.5t-58 -82.5t-20 -115q0 -71 35 -108.5t96 -37.5zM864 542q-32 0 -46 32l-66 153q-8 16 1 26.5t23 10t22 -15.5l72 -143l107 145q11 14 24.5 13t20 -11.5t-3.5 -25.5l-98 -150q-22 -34 -56 -34zM638 0q-26 0 -34 19.5t11 41.5l323 363h-240
q-33 0 -33 26q0 36 37 36h304q27 0 34 -20t-15 -44l-321 -359h252q34 0 34 -26q0 -17 -10 -27t-27 -10h-315z" />
    <glyph glyph-name="uni01C7" unicode="&#x1c7;" horiz-adv-x="907" 
d="M95 0q-46 0 -39 46l100 628q5 38 44 38q44 0 37 -46l-94 -594h321q38 0 38 -29q0 -22 -12 -32.5t-31 -10.5h-364zM577 -6q-19 -2 -30 7t-11 27q1 33 35 36l32 2q107 8 127 130l75 477q6 39 46 39q20 0 29.5 -12t5.5 -34l-76 -480q-14 -87 -61 -134.5t-141 -55.5z" />
    <glyph glyph-name="uni01C8" unicode="&#x1c8;" horiz-adv-x="779" 
d="M95 0q-46 0 -39 46l100 628q5 38 44 38q44 0 37 -46l-94 -594h321q38 0 38 -29q0 -22 -12 -32.5t-31 -10.5h-364zM718 603q-48 0 -46 45q4 54 62 54q50 0 46 -45q-4 -54 -62 -54zM460 -191q-17 -1 -26 8.5t-9 22.5t7.5 22.5t23.5 10.5q51 1 83.5 27.5t41.5 84.5l74 468
q7 40 46 40q19 0 28 -12.5t6 -34.5l-73 -456q-14 -92 -63 -135t-139 -46z" />
    <glyph glyph-name="uni01C9" unicode="&#x1c9;" horiz-adv-x="531" 
d="M186 -9q-72 0 -104.5 42.5t-19.5 125.5l82 513q6 40 46 40q19 0 28 -12.5t5 -35.5l-80 -505q-8 -53 8 -76t57 -23q14 0 21.5 1.5t12.5 1.5q8 0 12 -5t4 -19q0 -19 -9 -29.5t-23 -14.5q-7 -2 -19 -3t-21 -1zM471 603q-48 0 -46 45q4 54 62 54q50 0 46 -45q-4 -54 -62 -54z
M213 -191q-17 -1 -26 8.5t-9 22.5t7.5 22.5t23.5 10.5q51 1 83.5 27.5t41.5 84.5l74 468q7 40 46 40q19 0 28 -12.5t6 -34.5l-73 -456q-14 -92 -63 -135t-139 -46z" />
    <glyph glyph-name="uni01CA" unicode="&#x1ca;" horiz-adv-x="1063" 
d="M88 -7q-18 0 -27 12t-6 34l101 637q6 36 39 36q16 0 24 -6.5t17 -20.5l321 -556l87 545q5 38 44 38q38 0 31 -46l-101 -636q-6 -37 -36 -37q-16 0 -25.5 7t-18.5 21l-322 556l-86 -546q-6 -38 -42 -38zM733 -6q-19 -2 -30 7t-11 27q1 33 35 36l32 2q107 8 127 130l75 477
q6 39 46 39q20 0 29.5 -12t5.5 -34l-76 -480q-14 -87 -61 -134.5t-141 -55.5z" />
    <glyph glyph-name="uni01CB" unicode="&#x1cb;" horiz-adv-x="975" 
d="M88 -7q-18 0 -27 12t-6 34l101 637q6 36 39 36q16 0 24 -6.5t17 -20.5l321 -556l87 545q5 38 44 38q38 0 31 -46l-101 -636q-6 -37 -36 -37q-16 0 -25.5 7t-18.5 21l-322 556l-86 -546q-6 -38 -42 -38zM914 603q-48 0 -46 45q4 54 62 54q50 0 46 -45q-4 -54 -62 -54z
M656 -191q-17 -1 -26 8.5t-9 22.5t7.5 22.5t23.5 10.5q51 1 83.5 27.5t41.5 84.5l74 468q7 40 46 40q19 0 28 -12.5t6 -34.5l-73 -456q-14 -92 -63 -135t-139 -46z" />
    <glyph glyph-name="uni01CC" unicode="&#x1cc;" horiz-adv-x="804" 
d="M77 -6q-19 0 -27.5 13t-5.5 35l65 411q6 40 47 40q18 0 26.5 -11.5t4.5 -33.5l-7 -45q27 44 71.5 68t103.5 24q81 0 122.5 -49t24.5 -152l-41 -261q-6 -39 -46 -39q-19 0 -28 12.5t-6 34.5l40 253q22 135 -90 135q-73 0 -116 -45t-55 -120l-36 -230q-6 -40 -47 -40z
M743 603q-48 0 -46 45q4 54 62 54q50 0 46 -45q-4 -54 -62 -54zM485 -191q-17 -1 -26 8.5t-9 22.5t7.5 22.5t23.5 10.5q51 1 83.5 27.5t41.5 84.5l74 468q7 40 46 40q19 0 28 -12.5t6 -34.5l-73 -456q-14 -92 -63 -135t-139 -46z" />
    <glyph glyph-name="uni01CD" unicode="&#x1cd;" horiz-adv-x="729" 
d="M447 756q-18 0 -29.5 8.5t-20.5 24.5l-74 119q-9 16 -1.5 26.5t22 11t26.5 -15.5l81 -112l111 117q12 12 26 10t20.5 -12.5t-4.5 -23.5l-99 -122q-25 -31 -58 -31zM40 -7q-23 0 -33.5 15.5t2.5 38.5l382 636q17 29 48 29q33 0 43 -33l176 -630q8 -29 -2.5 -42.5
t-28.5 -13.5q-34 0 -44 39l-39 148h-368l-94 -161q-15 -26 -42 -26zM427 609l-211 -360h309l-96 360h-2z" />
    <glyph glyph-name="uni01CE" unicode="&#x1ce;" horiz-adv-x="530" 
d="M313 542q-32 0 -46 32l-66 153q-8 16 1 26.5t23 10t22 -15.5l72 -143l107 145q11 14 24.5 13t20 -11.5t-3.5 -25.5l-98 -150q-22 -34 -56 -34zM199 -9q-42 0 -78.5 19t-58.5 52t-22 75q0 77 65.5 111t209.5 34h69l5 30q10 57 -15 87.5t-88 30.5q-36 0 -69.5 -7t-66.5 -26
q-16 -9 -29 -5t-18.5 15.5t-0.5 24.5t24 23q38 21 82 30.5t87 9.5q102 0 143 -56t26 -149l-41 -257q-6 -40 -44 -40q-39 0 -32 46l6 37q-25 -43 -67 -64t-87 -21zM219 52q54 0 97 36.5t54 101.5l6 39h-50q-77 0 -121.5 -8t-63.5 -27t-19 -52q0 -44 29 -67t68 -23z" />
    <glyph glyph-name="uni01CF" unicode="&#x1cf;" horiz-adv-x="324" 
d="M209 720q-32 0 -46 32l-66 153q-8 16 1 26.5t23 10t22 -15.5l72 -143l107 145q11 14 24.5 13t20 -11.5t-3.5 -25.5l-98 -150q-22 -34 -56 -34zM91 -7q-44 0 -36 50l100 627q6 42 46 42q43 0 35 -50l-100 -627q-6 -42 -45 -42z" />
    <glyph glyph-name="uni01D0" unicode="&#x1d0;" horiz-adv-x="257" 
d="M142 542q-32 0 -46 32l-66 153q-8 16 1 26.5t23 10t22 -15.5l72 -143l107 145q11 14 24.5 13t20 -11.5t-3.5 -25.5l-98 -150q-22 -34 -56 -34zM76 -7q-19 0 -27.5 12.5t-5.5 35.5l66 412q6 40 46 40q19 0 28 -12.5t5 -34.5l-65 -413q-7 -40 -47 -40z" />
    <glyph glyph-name="uni01D1" unicode="&#x1d1;" horiz-adv-x="721" 
d="M390 720q-32 0 -46 32l-66 153q-8 16 1 26.5t23 10t22 -15.5l72 -143l107 145q11 14 24.5 13t20 -11.5t-3.5 -25.5l-98 -150q-22 -34 -56 -34zM368 -9q-88 0 -154 35t-102 102.5t-36 165.5q0 119 42 214t121.5 150.5t194.5 55.5q89 0 154.5 -35t101.5 -102.5t36 -164.5
q0 -120 -42 -215t-121.5 -150.5t-194.5 -55.5zM370 64q87 0 147 45.5t91 124t31 177.5q0 116 -55.5 173t-152.5 57q-86 0 -146 -45.5t-91 -123.5t-31 -177q0 -117 55.5 -174t151.5 -57z" />
    <glyph glyph-name="uni01D2" unicode="&#x1d2;" horiz-adv-x="562" 
d="M291 542q-32 0 -46 32l-66 153q-8 16 1 26.5t23 10t22 -15.5l72 -143l107 145q11 14 24.5 13t20 -11.5t-3.5 -25.5l-98 -150q-22 -34 -56 -34zM255 -9q-98 0 -154.5 57.5t-56.5 156.5q0 82 32 148t89.5 104t135.5 38q98 0 154 -57.5t56 -156.5q0 -82 -31.5 -147.5
t-89.5 -104t-135 -38.5zM258 56q55 0 93.5 31t58 82.5t19.5 114.5q0 72 -34.5 109t-96.5 37q-55 0 -93.5 -30.5t-58.5 -82.5t-20 -115q0 -71 35 -108.5t97 -37.5z" />
    <glyph glyph-name="uni01D3" unicode="&#x1d3;" horiz-adv-x="676" 
d="M382 720q-32 0 -46 32l-66 153q-8 16 1 26.5t23 10t22 -15.5l72 -143l107 145q11 14 24.5 13t20 -11.5t-3.5 -25.5l-98 -150q-22 -34 -56 -34zM335 -9q-89 0 -149.5 34t-86 102t-9.5 170l60 376q6 39 46 39q43 0 35 -47l-59 -375q-36 -226 167 -226q98 0 154.5 50
t74.5 159l64 400q6 39 45 39q20 0 29.5 -12t5.5 -35l-62 -396q-22 -138 -98 -208t-217 -70z" />
    <glyph glyph-name="uni01D4" unicode="&#x1d4;" horiz-adv-x="561" 
d="M323 543q-32 0 -46 32l-66 153q-8 16 1 26.5t23 10t22 -15.5l72 -143l107 145q11 14 24.5 13t20 -11.5t-3.5 -25.5l-98 -150q-22 -34 -56 -34zM211 -9q-79 0 -120.5 49t-24.5 153l41 262q6 38 45 38q20 0 29.5 -12t5.5 -33l-40 -255q-21 -135 88 -135q69 0 112 45t54 120
l36 232q6 38 45 38q42 0 36 -44l-66 -417q-6 -39 -44 -39q-41 0 -34 44l6 45q-27 -44 -70.5 -67.5t-98.5 -23.5z" />
    <glyph glyph-name="uni01D5" unicode="&#x1d5;" horiz-adv-x="676" 
d="M352 1005h269l-15 -71h-269zM313 812q0 24 14.5 40.5t38.5 16.5q40 0 40 -40q0 -24 -14 -41.5t-36 -17.5q-19 0 -31 10.5t-12 31.5zM493 812q0 24 14.5 40.5t38.5 16.5q21 0 30.5 -11t9.5 -29q0 -25 -15 -42t-36 -17q-18 0 -30 10.5t-12 31.5zM335 -9q-89 0 -149.5 34
t-86 102t-9.5 170l60 376q6 39 46 39q43 0 35 -47l-59 -375q-36 -226 167 -226q98 0 154.5 50t74.5 159l64 400q6 39 45 39q20 0 29.5 -12t5.5 -35l-62 -396q-22 -138 -98 -208t-217 -70z" />
    <glyph glyph-name="uni01D6" unicode="&#x1d6;" horiz-adv-x="579" 
d="M262 836h269l-15 -71h-269zM223 643q0 24 14.5 40.5t38.5 16.5q40 0 40 -40q0 -24 -14 -41.5t-36 -17.5q-19 0 -31 10.5t-12 31.5zM403 643q0 24 14.5 40.5t38.5 16.5q21 0 30.5 -11t9.5 -29q0 -25 -15 -42t-36 -17q-18 0 -30 10.5t-12 31.5zM211 -9q-79 0 -120.5 49
t-24.5 153l41 262q6 38 45 38q20 0 29.5 -12t5.5 -33l-40 -255q-21 -135 88 -135q69 0 112 45t54 120l36 232q6 38 45 38q42 0 36 -44l-66 -417q-6 -39 -44 -39q-41 0 -34 44l6 45q-27 -44 -70.5 -67.5t-98.5 -23.5z" />
    <glyph glyph-name="uni01D7" unicode="&#x1d7;" horiz-adv-x="676" 
d="M398 906q58 66 102 134h100v-10q-18 -23 -62.5 -64.5t-84.5 -70.5h-55v11zM313 812q0 24 14.5 40.5t38.5 16.5q40 0 40 -40q0 -24 -14.5 -41.5t-35.5 -17.5q-19 0 -31 10.5t-12 31.5zM493 812q0 24 14.5 40.5t38.5 16.5q21 0 30.5 -11t9.5 -29q0 -25 -15 -42t-36 -17
q-18 0 -30 10.5t-12 31.5zM335 -9q-89 0 -149.5 34t-86 102t-9.5 170l60 376q6 39 46 39q43 0 35 -47l-59 -375q-36 -226 167 -226q98 0 154.5 50t74.5 159l64 400q6 39 45 39q20 0 29.5 -12t5.5 -35l-62 -396q-22 -138 -98 -208t-217 -70z" />
    <glyph glyph-name="uni01D8" unicode="&#x1d8;" horiz-adv-x="579" 
d="M308 737q58 66 102 134h100v-10q-18 -23 -62.5 -64.5t-84.5 -70.5h-55v11zM223 643q0 24 14.5 40.5t38.5 16.5q40 0 40 -40q0 -24 -14.5 -41.5t-35.5 -17.5q-19 0 -31 10.5t-12 31.5zM403 643q0 24 14.5 40.5t38.5 16.5q21 0 30.5 -11t9.5 -29q0 -25 -15 -42t-36 -17
q-18 0 -30 10.5t-12 31.5zM211 -9q-79 0 -120.5 49t-24.5 153l41 262q6 38 45 38q20 0 29.5 -12t5.5 -33l-40 -255q-21 -135 88 -135q69 0 112 45t54 120l36 232q6 38 45 38q42 0 36 -44l-66 -417q-6 -39 -44 -39q-41 0 -34 44l6 45q-27 -44 -70.5 -67.5t-98.5 -23.5z" />
    <glyph glyph-name="uni01D9" unicode="&#x1d9;" horiz-adv-x="676" 
d="M336 1069h53q33 -26 79 -91q60 53 120 91h57v-13q-67 -62 -97 -93.5t-44 -53.5h-86q-17 46 -61 115l-21 32v13zM313 806q0 24 14.5 40.5t38.5 16.5q40 0 40 -40q0 -24 -14 -41.5t-36 -17.5q-19 0 -31 10.5t-12 31.5zM493 806q0 24 14.5 40.5t38.5 16.5q21 0 30.5 -11
t9.5 -29q0 -25 -15 -42t-36 -17q-18 0 -30 10.5t-12 31.5zM335 -9q-89 0 -149.5 34t-86 102t-9.5 170l60 376q6 39 46 39q43 0 35 -47l-59 -375q-36 -226 167 -226q98 0 154.5 50t74.5 159l64 400q6 39 45 39q20 0 29.5 -12t5.5 -35l-62 -396q-22 -138 -98 -208t-217 -70z
" />
    <glyph glyph-name="uni01DA" unicode="&#x1da;" horiz-adv-x="579" 
d="M246 906h53q33 -26 79 -91q60 53 120 91h57v-13q-67 -62 -97 -93.5t-44 -53.5h-86q-17 46 -61 115l-21 32v13zM223 643q0 24 14.5 40.5t38.5 16.5q40 0 40 -40q0 -24 -14 -41.5t-36 -17.5q-19 0 -31 10.5t-12 31.5zM403 643q0 24 14.5 40.5t38.5 16.5q21 0 30.5 -11
t9.5 -29q0 -25 -15 -42t-36 -17q-18 0 -30 10.5t-12 31.5zM211 -9q-79 0 -120.5 49t-24.5 153l41 262q6 38 45 38q20 0 29.5 -12t5.5 -33l-40 -255q-21 -135 88 -135q69 0 112 45t54 120l36 232q6 38 45 38q42 0 36 -44l-66 -417q-6 -39 -44 -39q-41 0 -34 44l6 45
q-27 -44 -70.5 -67.5t-98.5 -23.5z" />
    <glyph glyph-name="uni01DB" unicode="&#x1db;" horiz-adv-x="676" 
d="M313 812q0 24 14.5 40.5t38.5 16.5q40 0 40 -40q0 -24 -14.5 -41.5t-35.5 -17.5q-19 0 -31 10.5t-12 31.5zM493 812q0 24 14.5 40.5t38.5 16.5q21 0 30.5 -11t9.5 -29q0 -25 -15 -42t-36 -17q-18 0 -30 10.5t-12 31.5zM500 895h-54q-61 63 -101 135v10h90q19 -56 65 -133
v-12zM335 -9q-89 0 -149.5 34t-86 102t-9.5 170l60 376q6 39 46 39q43 0 35 -47l-59 -375q-36 -226 167 -226q98 0 154.5 50t74.5 159l64 400q6 39 45 39q20 0 29.5 -12t5.5 -35l-62 -396q-22 -138 -98 -208t-217 -70z" />
    <glyph glyph-name="uni01DC" unicode="&#x1dc;" horiz-adv-x="579" 
d="M223 643q0 24 14.5 40.5t38.5 16.5q40 0 40 -40q0 -24 -14.5 -41.5t-35.5 -17.5q-19 0 -31 10.5t-12 31.5zM403 643q0 24 14.5 40.5t38.5 16.5q21 0 30.5 -11t9.5 -29q0 -25 -15 -42t-36 -17q-18 0 -30 10.5t-12 31.5zM410 726h-54q-61 63 -101 135v10h90q19 -56 65 -133
v-12zM211 -9q-79 0 -120.5 49t-24.5 153l41 262q6 38 45 38q20 0 29.5 -12t5.5 -33l-40 -255q-21 -135 88 -135q69 0 112 45t54 120l36 232q6 38 45 38q42 0 36 -44l-66 -417q-6 -39 -44 -39q-41 0 -34 44l6 45q-27 -44 -70.5 -67.5t-98.5 -23.5z" />
    <glyph glyph-name="uni01DD" unicode="&#x1dd;" horiz-adv-x="493" 
d="M234 -9q-78 0 -122.5 35.5t-60 91.5t-6.5 118q3 14 10 19.5t20 5.5h339q7 77 -32 123t-118 46q-36 0 -71.5 -9.5t-63.5 -30.5q-22 -14 -36 -5.5t-15 26.5t17 32q33 26 81.5 39t92.5 13q104 0 164 -57.5t60 -156.5q0 -79 -31.5 -145t-90 -105.5t-137.5 -39.5zM235 51
q52 0 87.5 23t55.5 58.5t28 74.5h-292q-5 -42 6.5 -77.5t39.5 -57t75 -21.5z" />
    <glyph glyph-name="uni01DE" unicode="&#x1de;" horiz-adv-x="562" 
d="M292 1001h269l-15 -71h-269zM253 808q0 24 14.5 40.5t38.5 16.5q40 0 40 -40q0 -24 -14 -41.5t-36 -17.5q-19 0 -31 10.5t-12 31.5zM433 808q0 24 14.5 40.5t38.5 16.5q21 0 30.5 -11t9.5 -29q0 -25 -15 -42t-36 -17q-18 0 -30 10.5t-12 31.5zM40 -7q-23 0 -33.5 15.5
t2.5 38.5l382 636q17 29 48 29q33 0 43 -33l176 -630q8 -29 -2.5 -42.5t-28.5 -13.5q-34 0 -44 39l-39 148h-368l-94 -161q-15 -26 -42 -26zM427 609l-211 -360h309l-96 360h-2z" />
    <glyph glyph-name="uni01DF" unicode="&#x1df;" horiz-adv-x="567" 
d="M257 836h269l-15 -71h-269zM218 643q0 24 14.5 40.5t38.5 16.5q40 0 40 -40q0 -24 -14 -41.5t-36 -17.5q-19 0 -31 10.5t-12 31.5zM398 643q0 24 14.5 40.5t38.5 16.5q21 0 30.5 -11t9.5 -29q0 -25 -15 -42t-36 -17q-18 0 -30 10.5t-12 31.5zM199 -9q-42 0 -78.5 19
t-58.5 52t-22 75q0 77 65.5 111t209.5 34h69l5 30q10 57 -15 87.5t-88 30.5q-36 0 -69.5 -7t-66.5 -26q-16 -9 -29 -5t-18.5 15.5t-0.5 24.5t24 23q38 21 82 30.5t87 9.5q102 0 143 -56t26 -149l-41 -257q-6 -40 -44 -40q-39 0 -32 46l6 37q-25 -43 -67 -64t-87 -21zM219 52
q54 0 97 36.5t54 101.5l6 39h-50q-77 0 -121.5 -8t-63.5 -27t-19 -52q0 -44 29 -67t68 -23z" />
    <glyph glyph-name="uni01E0" unicode="&#x1e0;" horiz-adv-x="562" 
d="M302 1014h269l-15 -71h-269zM347 831q0 28 17 46t42 18q46 0 46 -45q0 -29 -17 -47.5t-40 -18.5q-21 0 -34.5 12t-13.5 35zM40 -7q-23 0 -33.5 15.5t2.5 38.5l382 636q17 29 48 29q33 0 43 -33l176 -630q8 -29 -2.5 -42.5t-28.5 -13.5q-34 0 -44 39l-39 148h-368
l-94 -161q-15 -26 -42 -26zM427 609l-211 -360h309l-96 360h-2z" />
    <glyph glyph-name="uni01E1" unicode="&#x1e1;" horiz-adv-x="567" 
d="M249 836h269l-15 -71h-269zM294 653q0 28 17 46t42 18q46 0 46 -45q0 -29 -17 -47.5t-40 -18.5q-21 0 -34.5 12.5t-13.5 34.5zM199 -9q-42 0 -78.5 19t-58.5 52t-22 75q0 77 65.5 111t209.5 34h69l5 30q10 57 -15 87.5t-88 30.5q-36 0 -69.5 -7t-66.5 -26q-16 -9 -29 -5
t-18.5 15.5t-0.5 24.5t24 23q38 21 82 30.5t87 9.5q102 0 143 -56t26 -149l-41 -257q-6 -40 -44 -40q-39 0 -32 46l6 37q-25 -43 -67 -64t-87 -21zM219 52q54 0 97 36.5t54 101.5l6 39h-50q-77 0 -121.5 -8t-63.5 -27t-19 -52q0 -44 29 -67t68 -23z" />
    <glyph glyph-name="uni01E2" unicode="&#x1e2;" horiz-adv-x="824" 
d="M421 790q-30 0 -30 23q0 32 33 32h247q30 0 30 -23q0 -32 -33 -32h-247zM7 -7q-26 0 -32.5 18t7.5 36l486 636q17 22 47 22h455q36 0 36 -27q0 -21 -11.5 -31.5t-28.5 -10.5h-399l14 -244h318q37 0 37 -27q0 -21 -11.5 -31.5t-29.5 -10.5h-311l14 -254h272q36 0 36 -28
q0 -41 -41 -41h-299q-37 0 -40 37l-7 143h-346l-122 -162q-19 -25 -44 -25zM494 608l-270 -359h291l-19 359h-2z" />
    <glyph glyph-name="uni01E3" unicode="&#x1e3;" horiz-adv-x="819" 
d="M357 625q-30 0 -30 23q0 32 33 32h247q30 0 30 -23q0 -32 -33 -32h-247zM210 -9q-44 0 -83 17.5t-63 50t-24 78.5q0 77 65.5 111t209.5 34h72l3 22q21 126 -104 126q-36 0 -69.5 -7t-66.5 -26q-16 -9 -29 -5t-18.5 15.5t-0.5 24.5t24 23q38 21 82 30.5t87 9.5
q120 0 153 -88q32 41 78.5 64.5t106.5 23.5q58 0 97.5 -20.5t61.5 -55t28.5 -76.5t1.5 -84l-2 -11q-2 -20 -26 -20h-341q-8 -78 31.5 -125t117.5 -47q36 0 69.5 8.5t64.5 29.5q22 14 36 5.5t14 -27t-20 -32.5q-34 -24 -80 -36.5t-88 -12.5q-74 0 -124.5 30t-72.5 85
q-29 -59 -80 -87t-111 -28zM631 435q-51 0 -85.5 -22t-55 -57.5t-28.5 -73.5h294q3 42 -8 77t-39.5 55.5t-77.5 20.5zM219 53q54 0 97.5 33t54.5 97l7 45h-52q-77 0 -121.5 -8t-63.5 -27t-19 -51q0 -44 29 -66.5t68 -22.5z" />
    <glyph glyph-name="uni01E4" unicode="&#x1e4;" horiz-adv-x="678" 
d="M398 376h229l-33 -149h63l-15 -71h-63l-28 -129q-59 -21 -107.5 -29t-100.5 -8q-128 0 -199.5 71t-71.5 198q0 131 50 239t138.5 167t196.5 59q57 0 106.5 -9.5t100.5 -32.5l-34 -78q-38 17 -80.5 29t-93.5 12q-81 0 -147.5 -49t-104 -136t-37.5 -195q0 -92 48.5 -144
t136.5 -52q69 0 123 18l15 69h-134l15 71h134l16 71h-140z" />
    <glyph glyph-name="uni01E5" unicode="&#x1e5;" horiz-adv-x="586" 
d="M249 -189q-60 0 -110 16t-89 42q-14 9 -16 22t4.5 24t18.5 15t27 -5q36 -23 73 -36t82 -13q91 0 131 64h-86q-16 0 -23 7.5t-7 19.5q0 15 10 22t22 7h106q2 9 4 16l19 124q-26 -46 -72.5 -72.5t-106.5 -26.5q-58 0 -100.5 24.5t-66 67.5t-23.5 97q0 72 30.5 133
t85.5 98.5t131 37.5q56 0 100 -25.5t62 -77.5l9 62q6 39 46 39t32 -47l-67 -428q-1 -5 -2.5 -11t-2.5 -11h38q31 0 31 -27q0 -15 -10.5 -22t-22.5 -7h-52q-26 -65 -76.5 -97t-128.5 -32zM261 102q54 0 93.5 28t60.5 73.5t21 99.5q0 58 -35 92.5t-98 34.5q-54 0 -93.5 -28
t-60.5 -73.5t-21 -98.5q0 -59 35 -93.5t98 -34.5z" />
    <glyph glyph-name="Gcaron" unicode="&#x1e6;" horiz-adv-x="726" 
d="M448 756q-18 0 -29.5 8.5t-20.5 24.5l-74 119q-9 16 -1.5 26.5t22 11t26.5 -15.5l81 -112l111 117q12 12 26 10t20.5 -12.5t-4.5 -23.5l-99 -122q-25 -31 -58 -31zM391 -9q-147 0 -231 78t-84 227q0 124 44.5 218t127.5 147t198 53q64 0 120 -18t94 -51q16 -13 18 -29
t-6 -29t-22 -16.5t-31 9.5q-36 31 -80.5 45.5t-97.5 14.5q-87 0 -149 -43t-95.5 -120t-33.5 -179q0 -119 60.5 -176.5t176.5 -57.5q43 0 79.5 7t70.5 18l34 213h-143q-38 0 -38 28q0 18 11.5 27.5t29.5 9.5h180q19 0 29 -11t6 -31l-41 -261q-5 -31 -30 -40q-39 -15 -92 -24
t-105 -9z" />
    <glyph glyph-name="gcaron" unicode="&#x1e7;" horiz-adv-x="586" 
d="M338 542q-32 0 -46 32l-66 153q-8 16 1 26.5t23 10t22 -15.5l72 -143l107 145q11 14 24.5 13t20 -11.5t-3.5 -25.5l-98 -150q-22 -34 -56 -34zM248 -189q-58 0 -108.5 16t-90.5 42q-14 9 -16 22t4.5 24t19 15t27.5 -5q35 -23 72 -36t83 -13q64 0 104 32.5t51 100.5l15 93
q-26 -43 -70.5 -67t-100.5 -24q-88 0 -141 54t-53 145q0 75 29 140t84 105t133 40q56 0 100 -25.5t64 -77.5l9 62q6 39 47 39q39 0 32 -47l-69 -433q-32 -202 -225 -202zM259 77q56 0 95 30t59 79.5t20 107.5q0 64 -35 100t-98 36q-57 0 -95.5 -30.5t-58.5 -79.5t-20 -106
q0 -66 35 -101.5t98 -35.5z" />
    <glyph glyph-name="uni01E8" unicode="&#x1e8;" horiz-adv-x="562" 
d="M348 707q-32 0 -46 32l-66 153q-8 16 1 26.5t23 10t22 -15.5l72 -143l107 145q11 14 24.5 13t20 -11.5t-3.5 -25.5l-98 -150q-22 -34 -56 -34zM91 -7q-20 0 -30 12.5t-6 36.5l100 629q7 41 46 41q20 0 29.5 -12.5t5.5 -35.5l-44 -279h2l376 308q11 10 20 14.5t22 4.5
q16 0 25.5 -10t9 -23.5t-13.5 -24.5l-362 -298l286 -306q17 -17 7.5 -37t-34.5 -20q-14 0 -23.5 6t-21.5 20l-299 315h-2l-47 -301q-7 -40 -46 -40z" />
    <glyph glyph-name="uni01E9" unicode="&#x1e9;" horiz-adv-x="500" 
d="M365 756q-18 0 -29.5 8.5t-20.5 24.5l-74 119q-9 16 -1.5 26.5t22 11t26.5 -15.5l81 -112l111 117q12 12 26 10t20.5 -12.5t-4.5 -23.5l-99 -122q-25 -31 -58 -31zM77 -7q-41 0 -33 47l100 633q5 39 46 39q19 0 28 -13t5 -35l-62 -394h2l240 201q13 11 23 16.5t24 5.5
q23 0 29 -20t-14 -38l-222 -188l182 -195q18 -20 9 -39.5t-32 -19.5q-16 0 -26.5 7.5t-24.5 23.5l-194 206h-2l-32 -198q-5 -39 -46 -39z" />
    <glyph glyph-name="uni01EA" unicode="&#x1ea;" horiz-adv-x="767" 
d="M380 -192q-48 0 -73 25t-25 64q0 46 28.5 82t77.5 57l26 -36q-36 -15 -55 -39t-19 -52q0 -23 14 -37t39 -14q17 0 37 6q16 5 22.5 -5t4 -23t-14.5 -18q-14 -5 -31 -7.5t-31 -2.5zM368 -9q-88 0 -154 35t-102 102.5t-36 165.5q0 119 42 214t121.5 150.5t194.5 55.5
q89 0 154.5 -35t101.5 -102.5t36 -164.5q0 -120 -42 -215t-121.5 -150.5t-194.5 -55.5zM370 64q87 0 147 45.5t91 124t31 177.5q0 116 -55.5 173t-152.5 57q-86 0 -146 -45.5t-91 -123.5t-31 -177q0 -117 55.5 -174t151.5 -57z" />
    <glyph glyph-name="uni01EB" unicode="&#x1eb;" horiz-adv-x="556" 
d="M276 -192q-48 0 -73 25t-25 64q0 46 28.5 82t77.5 57l26 -36q-36 -15 -55 -39t-19 -52q0 -23 14 -37t39 -14q17 0 37 6q16 5 22.5 -5t4 -23t-14.5 -18q-14 -5 -31 -7.5t-31 -2.5zM255 -9q-98 0 -154.5 57.5t-56.5 156.5q0 82 32 148t89.5 104t135.5 38q98 0 154 -57.5
t56 -156.5q0 -82 -31.5 -147.5t-89.5 -104t-135 -38.5zM258 56q55 0 93.5 31t58 82.5t19.5 114.5q0 72 -34.5 109t-96.5 37q-55 0 -93.5 -30.5t-58.5 -82.5t-20 -115q0 -71 35 -108.5t97 -37.5z" />
    <glyph glyph-name="uni01EC" unicode="&#x1ec;" horiz-adv-x="721" 
d="M463 -192q-48 0 -73 25t-25 64q0 46 28.5 82t77.5 57l26 -36q-36 -15 -55 -39t-19 -52q0 -23 14 -37t39 -14q17 0 37 6q16 5 22.5 -5t4 -23t-14.5 -18q-14 -5 -31 -7.5t-31 -2.5zM303 790q-30 0 -30 23q0 32 33 32h247q30 0 30 -23q0 -32 -33 -32h-247zM368 -9
q-88 0 -154 35t-102 102.5t-36 165.5q0 119 42 214t121.5 150.5t194.5 55.5q89 0 154.5 -35t101.5 -102.5t36 -164.5q0 -120 -42 -215t-121.5 -150.5t-194.5 -55.5zM370 64q87 0 147 45.5t91 124t31 177.5q0 116 -55.5 173t-152.5 57q-86 0 -146 -45.5t-91 -123.5t-31 -177
q0 -117 55.5 -174t151.5 -57z" />
    <glyph glyph-name="uni01ED" unicode="&#x1ed;" horiz-adv-x="562" 
d="M372 -192q-48 0 -73 25t-25 64q0 46 28.5 82t77.5 57l26 -36q-36 -15 -55 -39t-19 -52q0 -23 14 -37t39 -14q17 0 37 6q16 5 22.5 -5t4 -23t-14.5 -18q-14 -5 -31 -7.5t-31 -2.5zM201 625q-30 0 -30 23q0 32 33 32h247q30 0 30 -23q0 -32 -33 -32h-247zM255 -9
q-98 0 -154.5 57.5t-56.5 156.5q0 82 32 148t89.5 104t135.5 38q98 0 154 -57.5t56 -156.5q0 -82 -31.5 -147.5t-89.5 -104t-135 -38.5zM258 56q55 0 93.5 31t58 82.5t19.5 114.5q0 72 -34.5 109t-96.5 37q-55 0 -93.5 -30.5t-58.5 -82.5t-20 -115q0 -71 35 -108.5t97 -37.5
z" />
    <glyph glyph-name="uni01EE" unicode="&#x1ee;" horiz-adv-x="528" 
d="M302 -9q-77 0 -140.5 17.5t-116.5 57.5q-15 10 -17.5 24.5t4.5 27t20.5 16.5t30.5 -8q49 -35 103.5 -48.5t116.5 -13.5q50 0 92 13.5t68 45.5t26 87q0 59 -39.5 86t-114.5 27h-96q-25 0 -31 20.5t12 37.5l280 254h-353q-38 0 -38 30q0 20 13 30t30 10h435q29 0 34 -23.5
t-20 -45.5l-272 -246h26q113 0 164.5 -50.5t51.5 -127.5q0 -74 -35 -123t-96 -73.5t-138 -24.5zM299 707q-32 0 -46 32l-66 153q-8 16 1 26.5t23 10t22 -15.5l72 -143l107 145q11 14 24.5 13t20 -11.5t-3.5 -25.5l-98 -150q-22 -34 -56 -34z" />
    <glyph glyph-name="uni01EF" unicode="&#x1ef;" horiz-adv-x="495" 
d="M282 542q-32 0 -46 32l-66 153q-8 16 1 26.5t23 10t22 -15.5l72 -143l107 145q11 14 24.5 13t20 -11.5t-3.5 -25.5l-98 -150q-22 -34 -56 -34zM185 -189q-53 0 -108 14t-100 45q-15 9 -17.5 22.5t4 25t19 14.5t28.5 -8q38 -27 80.5 -37.5t87.5 -10.5q81 0 123.5 43
t42.5 117q0 50 -34.5 82.5t-99.5 32.5h-79q-20 0 -24.5 15t11.5 29l239 226h-266q-19 0 -28 9t-7 24q6 32 39 32h339q27 0 33 -20.5t-19 -41.5l-227 -213h19q60 0 101 -23.5t62.5 -63t21.5 -86.5q0 -66 -28.5 -117.5t-82.5 -80.5t-130 -29z" />
    <glyph glyph-name="uni01F0" unicode="&#x1f0;" horiz-adv-x="257" 
d="M145 542q-32 0 -46 32l-66 153q-8 16 1 26.5t23 10t22 -15.5l72 -143l107 145q11 14 24.5 13t20 -11.5t-3.5 -25.5l-98 -150q-22 -34 -56 -34zM-83 -191q-17 -1 -26 8.5t-9 22.5t7.5 22.5t23.5 10.5q51 1 83.5 27.5t41.5 84.5l74 468q7 40 46 40q19 0 28 -12.5t6 -34.5
l-73 -456q-14 -92 -63 -135t-139 -46z" />
    <glyph glyph-name="uni01F1" unicode="&#x1f1;" horiz-adv-x="1198" 
d="M98 0q-23 0 -34.5 13t-7.5 36l98 615q6 41 48 41h166q160 0 247 -77.5t87 -217.5q0 -85 -24 -159t-73 -130.5t-124 -88.5t-179 -32h-204zM142 70h162q84 0 143 26.5t96 73.5t54.5 108.5t17.5 130.5q0 110 -62.5 168t-185.5 58h-135zM717 0q-27 0 -34 25t19 55l474 554
h-363q-37 0 -37 29q0 21 12 31.5t30 10.5h431q34 0 39.5 -25t-20.5 -54l-476 -555h379q38 0 38 -28q0 -22 -12 -32.5t-30 -10.5h-450z" />
    <glyph glyph-name="uni01F2" unicode="&#x1f2;" horiz-adv-x="1111" 
d="M98 0q-23 0 -34.5 13t-7.5 36l98 615q6 41 48 41h166q160 0 247 -77.5t87 -217.5q0 -85 -24 -159t-73 -130.5t-124 -88.5t-179 -32h-204zM142 70h162q84 0 143 26.5t96 73.5t54.5 108.5t17.5 130.5q0 110 -62.5 168t-185.5 58h-135zM722 0q-26 0 -34 19.5t11 41.5
l323 363h-240q-33 0 -33 26q0 36 37 36h304q27 0 34 -20t-15 -44l-321 -359h252q34 0 34 -26q0 -17 -10 -27t-27 -10h-315z" />
    <glyph glyph-name="uni01F3" unicode="&#x1f3;" horiz-adv-x="1023" 
d="M231 -9q-84 0 -135.5 56t-51.5 152q0 81 28.5 148.5t83 107.5t132.5 40q55 0 98.5 -25.5t63.5 -78.5l45 282q5 39 46 39t33 -47l-100 -631q-6 -41 -46 -41q-19 0 -27.5 13t-4.5 36l7 40q-28 -42 -72 -66.5t-100 -24.5zM257 56q56 0 94 31t58 82.5t20 114.5q0 72 -35 109
t-96 37q-56 0 -94 -30.5t-58 -82.5t-20 -115q0 -71 35 -108.5t96 -37.5zM634 0q-26 0 -34 19.5t11 41.5l323 363h-240q-33 0 -33 26q0 36 37 36h304q27 0 34 -20t-15 -44l-321 -359h252q34 0 34 -26q0 -17 -10 -27t-27 -10h-315z" />
    <glyph glyph-name="uni01F4" unicode="&#x1f4;" horiz-adv-x="678" 
d="M391 -9q-147 0 -231 78t-84 227q0 124 44.5 218t127.5 147t198 53q64 0 120 -18t94 -51q16 -13 18 -29t-6 -29t-22 -16.5t-31 9.5q-36 31 -80.5 45.5t-97.5 14.5q-87 0 -149 -43t-95.5 -120t-33.5 -179q0 -119 60.5 -176.5t176.5 -57.5q43 0 79.5 7t70.5 18l34 213h-143
q-38 0 -38 28q0 18 11.5 27.5t29.5 9.5h180q19 0 29 -11t6 -31l-41 -261q-5 -31 -30 -40q-39 -15 -92 -24t-105 -9zM480 720q-12 -13 -25 -11.5t-19 13t4 27.5l107 161q12 18 26.5 20t26 -5.5t14 -21.5t-8.5 -28z" />
    <glyph glyph-name="uni01F5" unicode="&#x1f5;" horiz-adv-x="579" 
d="M248 -189q-58 0 -108.5 16t-90.5 42q-14 9 -16 22t4.5 24t19 15t27.5 -5q35 -23 72 -36t83 -13q64 0 104 32.5t51 100.5l15 93q-26 -43 -70.5 -67t-100.5 -24q-88 0 -141 54t-53 145q0 75 29 140t84 105t133 40q56 0 100 -25.5t64 -77.5l9 62q6 39 47 39q39 0 32 -47
l-69 -433q-32 -202 -225 -202zM259 77q56 0 95 30t59 79.5t20 107.5q0 64 -35 100t-98 36q-57 0 -95.5 -30.5t-58.5 -79.5t-20 -106q0 -66 35 -101.5t98 -35.5zM362 555q-12 -13 -25 -11.5t-19 13t4 27.5l107 161q12 18 26.5 20t26 -5.5t14 -21.5t-8.5 -28z" />
    <glyph glyph-name="uni01F6" unicode="&#x1f6;" horiz-adv-x="897" 
d="M200 333l-70 -333h-89l151 714h89l-64 -302h278l64 302h88l-110 -519q-6 -30 -6 -48q0 -42 17.5 -60t53.5 -18q43 0 68 32t43 114l69 321h89l-69 -327q-18 -84 -43 -130.5t-63 -67.5t-99 -21q-74 0 -115 37.5t-41 106.5q0 28 7 55l30 144h-278z" />
    <glyph glyph-name="uni01F7" unicode="&#x1f7;" horiz-adv-x="630" 
d="M466 725q76 0 120.5 -52t44.5 -139q0 -43 -6 -72q-28 -161 -152.5 -276t-348.5 -196l-49 -230h-86l203 955h72l-13 -113h5q49 67 98.5 95t111.5 28zM143 77q130 53 217.5 122.5t132.5 156.5t45 178q0 53 -25 83t-70 30q-53 0 -102.5 -40.5t-87.5 -115t-59 -172.5z" />
    <glyph glyph-name="uni01F8" unicode="&#x1f8;" horiz-adv-x="707" 
d="M88 -7q-18 0 -27 12t-6 34l101 637q6 36 39 36q16 0 24 -6.5t17 -20.5l321 -556l87 545q5 38 44 38q38 0 31 -46l-101 -636q-6 -37 -36 -37q-16 0 -25.5 7t-18.5 21l-322 556l-86 -546q-6 -38 -42 -38zM313 723l-107 153q-11 17 -7 30.5t17 19.5t28 2t25 -23l90 -156
q8 -17 0.5 -28.5t-21.5 -12.5t-25 15z" />
    <glyph glyph-name="uni01F9" unicode="&#x1f9;" horiz-adv-x="579" 
d="M77 -6q-19 0 -27.5 13t-5.5 35l65 411q6 40 47 40q18 0 26.5 -11.5t4.5 -33.5l-7 -45q27 44 71.5 68t103.5 24q81 0 122.5 -49t24.5 -152l-41 -261q-6 -39 -46 -39q-19 0 -28 12.5t-6 34.5l40 253q22 135 -90 135q-73 0 -116 -45t-55 -120l-36 -230q-6 -40 -47 -40z
M222 558l-107 153q-11 17 -7 30.5t17 19.5t28 2t25 -23l90 -156q8 -17 0.5 -28.5t-21.5 -12.5t-25 15z" />
    <glyph glyph-name="Aringacute" unicode="&#x1fa;" horiz-adv-x="729" 
d="M449 758q-49 0 -82.5 33t-33.5 80q0 48 33.5 81t82.5 33q37 0 66 -20l73 68q15 13 28.5 8t17.5 -19t-11 -27l-75 -64q17 -26 17 -60q0 -47 -33.5 -80t-82.5 -33zM449 799q31 0 51.5 21t20.5 51q0 31 -20.5 51.5t-51.5 20.5q-32 0 -52 -20.5t-20 -51.5q0 -30 20 -51
t52 -21zM40 -7q-23 0 -33.5 15.5t2.5 38.5l382 636q17 29 48 29q33 0 43 -33l176 -630q8 -29 -2.5 -42.5t-28.5 -13.5q-34 0 -44 39l-39 148h-368l-94 -161q-15 -26 -42 -26zM427 609l-211 -360h309l-96 360h-2z" />
    <glyph glyph-name="aringacute" unicode="&#x1fb;" horiz-adv-x="530" 
d="M331 544q-49 0 -82.5 33t-33.5 80q0 48 33.5 81t82.5 33q37 0 66 -20l72 67q16 15 29.5 9.5t17.5 -20t-11 -26.5l-75 -63q17 -26 17 -61q0 -47 -33.5 -80t-82.5 -33zM331 586q31 0 51.5 20.5t20.5 50.5q0 31 -20.5 51.5t-51.5 20.5q-32 0 -52 -20.5t-20 -51.5
q0 -30 20 -50.5t52 -20.5zM199 -9q-42 0 -78.5 19t-58.5 52t-22 75q0 77 65.5 111t209.5 34h69l5 30q10 57 -15 87.5t-88 30.5q-36 0 -69.5 -7t-66.5 -26q-16 -9 -29 -5t-18.5 15.5t-0.5 24.5t24 23q38 21 82 30.5t87 9.5q102 0 143 -56t26 -149l-41 -257q-6 -40 -44 -40
q-39 0 -32 46l6 37q-25 -43 -67 -64t-87 -21zM219 52q54 0 97 36.5t54 101.5l6 39h-50q-77 0 -121.5 -8t-63.5 -27t-19 -52q0 -44 29 -67t68 -23z" />
    <glyph glyph-name="AEacute" unicode="&#x1fc;" horiz-adv-x="981" 
d="M592 769q-13 -13 -26.5 -10t-19 15t4.5 25l99 130q12 16 26.5 17.5t26 -6.5t14 -21t-10.5 -27zM7 -7q-26 0 -32.5 18t7.5 36l486 636q17 22 47 22h455q36 0 36 -27q0 -21 -11.5 -31.5t-28.5 -10.5h-399l14 -244h318q37 0 37 -27q0 -21 -11.5 -31.5t-29.5 -10.5h-311
l14 -254h272q36 0 36 -28q0 -41 -41 -41h-299q-37 0 -40 37l-7 143h-346l-122 -162q-19 -25 -44 -25zM494 608l-270 -359h291l-19 359h-2z" />
    <glyph glyph-name="aeacute" unicode="&#x1fd;" horiz-adv-x="861" 
d="M484 555q-12 -13 -25 -11.5t-19 13t4 27.5l107 161q12 18 26.5 20t26 -5.5t14 -21.5t-8.5 -28zM210 -9q-44 0 -83 17.5t-63 50t-24 78.5q0 77 65.5 111t209.5 34h72l3 22q21 126 -104 126q-36 0 -69.5 -7t-66.5 -26q-16 -9 -29 -5t-18.5 15.5t-0.5 24.5t24 23
q38 21 82 30.5t87 9.5q120 0 153 -88q32 41 78.5 64.5t106.5 23.5q58 0 97.5 -20.5t61.5 -55t28.5 -76.5t1.5 -84l-2 -11q-2 -20 -26 -20h-341q-8 -78 31.5 -125t117.5 -47q36 0 69.5 8.5t64.5 29.5q22 14 36 5.5t14 -27t-20 -32.5q-34 -24 -80 -36.5t-88 -12.5
q-74 0 -124.5 30t-72.5 85q-29 -59 -80 -87t-111 -28zM631 435q-51 0 -85.5 -22t-55 -57.5t-28.5 -73.5h294q3 42 -8 77t-39.5 55.5t-77.5 20.5zM219 53q54 0 97.5 33t54.5 97l7 45h-52q-77 0 -121.5 -8t-63.5 -27t-19 -51q0 -44 29 -66.5t68 -22.5z" />
    <glyph glyph-name="Oslashacute" unicode="&#x1fe;" horiz-adv-x="767" 
d="M492 769q-13 -13 -26.5 -10t-19 15t4.5 25l99 130q12 16 26.5 17.5t26 -6.5t14 -21t-10.5 -27zM368 -9q-88 0 -154 35t-102 102.5t-36 165.5q0 119 42 214t121.5 150.5t194.5 55.5q89 0 154.5 -35t101.5 -102.5t36 -164.5q0 -120 -42 -215t-121.5 -150.5t-194.5 -55.5z
M370 64q87 0 147 45.5t91 124t31 177.5q0 116 -55.5 173t-152.5 57q-86 0 -146 -45.5t-91 -123.5t-31 -177q0 -117 55.5 -174t151.5 -57zM162 -20q-12 -17 -29 -13.5t-25 18t6 32.5l55 74l27 37l360 486l27 37l55 73q14 17 30.5 14t24.5 -18t-6 -32l-54 -74l-27 -37
l-360 -485l-28 -38z" />
    <glyph glyph-name="oslashacute" unicode="&#x1ff;" horiz-adv-x="556" 
d="M361 555q-12 -13 -25 -11.5t-19 13t4 27.5l107 161q12 18 26.5 20t26 -5.5t14 -21.5t-8.5 -28zM116 -24q-11 -14 -25 -11t-20.5 15.5t4.5 28.5l28 38q-58 57 -58 159q0 82 32 147.5t89.5 103.5t134.5 38q64 0 112 -25l29 40q11 14 25 11t20.5 -16t-5.5 -28l-28 -38
q58 -57 58 -158q0 -82 -32 -147.5t-89.5 -104t-134.5 -38.5q-64 0 -111 25zM121 202q0 -60 25 -97l227 311q-31 17 -76 17q-56 0 -95.5 -30.5t-60 -83t-20.5 -117.5zM259 53q56 0 95.5 31t60 83.5t20.5 117.5q0 59 -24 95l-227 -310q31 -17 75 -17z" />
    <glyph glyph-name="uni0200" unicode="&#x200;" horiz-adv-x="729" 
d="M486 769l-76 128q-10 16 -5 28.5t18 18.5t26.5 1.5t20.5 -21.5l56 -135q6 -13 -1.5 -22.5t-19 -10t-19.5 12.5zM359 769l-79 129q-10 15 -5.5 27.5t17 18t26.5 1.5t22 -21l59 -136q6 -13 -1 -22t-18.5 -9t-20.5 12zM40 -7q-23 0 -33.5 15.5t2.5 38.5l382 636q17 29 48 29
q33 0 43 -33l176 -630q8 -29 -2.5 -42.5t-28.5 -13.5q-34 0 -44 39l-39 148h-368l-94 -161q-15 -26 -42 -26zM427 609l-211 -360h309l-96 360h-2z" />
    <glyph glyph-name="uni0201" unicode="&#x201;" horiz-adv-x="530" 
d="M354 562l-52 159q-6 19 2 30.5t22 14.5t27 -4.5t16 -27.5l31 -163q2 -15 -7.5 -22t-21.5 -4t-17 17zM227 562l-52 159q-6 19 2 30.5t22 14.5t27 -4.5t16 -27.5l30 -163q3 -15 -6.5 -22t-21.5 -4t-17 17zM199 -9q-42 0 -78.5 19t-58.5 52t-22 75q0 77 65.5 111t209.5 34
h69l5 30q10 57 -15 87.5t-88 30.5q-36 0 -69.5 -7t-66.5 -26q-16 -9 -29 -5t-18.5 15.5t-0.5 24.5t24 23q38 21 82 30.5t87 9.5q102 0 143 -56t26 -149l-41 -257q-6 -40 -44 -40q-39 0 -32 46l6 37q-25 -43 -67 -64t-87 -21zM219 52q54 0 97 36.5t54 101.5l6 39h-50
q-77 0 -121.5 -8t-63.5 -27t-19 -52q0 -44 29 -67t68 -23z" />
    <glyph glyph-name="uni0202" unicode="&#x202;" horiz-adv-x="729" 
d="M300 757q-12 1 -18 10.5t-2 24.5q18 66 66 104.5t111 38.5q67 0 109 -40.5t46 -107.5q3 -27 -22 -30q-27 -3 -29 23q-3 48 -32 74.5t-75 26.5q-45 0 -78.5 -26.5t-45.5 -75.5q-7 -25 -30 -22zM40 -7q-23 0 -33.5 15.5t2.5 38.5l382 636q17 29 48 29q33 0 43 -33l176 -630
q8 -29 -2.5 -42.5t-28.5 -13.5q-34 0 -44 39l-39 148h-368l-94 -161q-15 -26 -42 -26zM427 609l-211 -360h309l-96 360h-2z" />
    <glyph glyph-name="uni0203" unicode="&#x203;" horiz-adv-x="530" 
d="M181 548q-13 1 -18.5 10.5t-2.5 25.5q17 76 60 118t103 42q63 0 101.5 -44.5t39.5 -122.5q1 -26 -23 -29q-11 -2 -19 4t-9 20q-2 57 -26 87t-66 30q-41 0 -70.5 -30.5t-40.5 -88.5q-5 -24 -29 -22zM199 -9q-42 0 -78.5 19t-58.5 52t-22 75q0 77 65.5 111t209.5 34h69
l5 30q10 57 -15 87.5t-88 30.5q-36 0 -69.5 -7t-66.5 -26q-16 -9 -29 -5t-18.5 15.5t-0.5 24.5t24 23q38 21 82 30.5t87 9.5q102 0 143 -56t26 -149l-41 -257q-6 -40 -44 -40q-39 0 -32 46l6 37q-25 -43 -67 -64t-87 -21zM219 52q54 0 97 36.5t54 101.5l6 39h-50
q-77 0 -121.5 -8t-63.5 -27t-19 -52q0 -44 29 -67t68 -23z" />
    <glyph glyph-name="uni0204" unicode="&#x204;" horiz-adv-x="583" 
d="M445 769l-76 128q-10 16 -5 28.5t18 18.5t26.5 1.5t20.5 -21.5l56 -135q6 -13 -1.5 -22.5t-19 -10t-19.5 12.5zM318 769l-79 129q-10 15 -5.5 27.5t17 18t26.5 1.5t22 -21l59 -136q6 -13 -1 -22t-18.5 -9t-20.5 12zM98 0q-49 0 -42 49l98 615q6 41 48 41h369q37 0 37 -27
q0 -21 -11.5 -31.5t-29.5 -10.5h-337l-39 -244h310q36 0 36 -27q0 -21 -11.5 -31.5t-28.5 -10.5h-317l-41 -254h331q37 0 37 -28q0 -21 -11.5 -31t-29.5 -10h-368z" />
    <glyph glyph-name="uni0205" unicode="&#x205;" horiz-adv-x="532" 
d="M361 562l-52 159q-6 19 2 30.5t22 14.5t27 -4.5t16 -27.5l31 -163q2 -15 -7.5 -22t-21.5 -4t-17 17zM234 562l-52 159q-6 19 2 30.5t22 14.5t27 -4.5t16 -27.5l30 -163q3 -15 -6.5 -22t-21.5 -4t-17 17zM270 -9q-104 0 -165 57.5t-61 157.5q0 79 32 144.5t90 105
t138 39.5q76 0 120 -34.5t60 -90t9 -116.5q-3 -17 -9.5 -22.5t-21.5 -5.5h-339q-7 -78 33 -124t118 -46q36 0 69.5 8.5t64.5 29.5q22 14 36 5.5t14 -27t-20 -32.5q-34 -24 -80 -36.5t-88 -12.5zM303 435q-53 0 -88 -22.5t-55.5 -58.5t-28.5 -75h296q6 66 -22.5 111
t-101.5 45z" />
    <glyph glyph-name="uni0206" unicode="&#x206;" horiz-adv-x="583" 
d="M259 757q-12 1 -18 10.5t-2 24.5q18 66 66 104.5t111 38.5q67 0 109 -40.5t46 -107.5q3 -27 -22 -30q-27 -3 -29 23q-3 48 -32 74.5t-75 26.5q-45 0 -78.5 -26.5t-45.5 -75.5q-7 -25 -30 -22zM98 0q-49 0 -42 49l98 615q6 41 48 41h369q37 0 37 -27q0 -21 -11.5 -31.5
t-29.5 -10.5h-337l-39 -244h310q36 0 36 -27q0 -21 -11.5 -31.5t-28.5 -10.5h-317l-41 -254h331q37 0 37 -28q0 -21 -11.5 -31t-29.5 -10h-368z" />
    <glyph glyph-name="uni0207" unicode="&#x207;" horiz-adv-x="532" 
d="M188 548q-13 1 -18.5 10.5t-2.5 25.5q17 76 60 118t103 42q63 0 101.5 -44.5t39.5 -122.5q1 -26 -23 -29q-11 -2 -19 4t-9 20q-2 57 -26 87t-66 30q-41 0 -70.5 -30.5t-40.5 -88.5q-5 -24 -29 -22zM270 -9q-104 0 -165 57.5t-61 157.5q0 79 32 144.5t90 105t138 39.5
q76 0 120 -34.5t60 -90t9 -116.5q-3 -17 -9.5 -22.5t-21.5 -5.5h-339q-7 -78 33 -124t118 -46q36 0 69.5 8.5t64.5 29.5q22 14 36 5.5t14 -27t-20 -32.5q-34 -24 -80 -36.5t-88 -12.5zM303 435q-53 0 -88 -22.5t-55.5 -58.5t-28.5 -75h296q6 66 -22.5 111t-101.5 45z" />
    <glyph glyph-name="uni0208" unicode="&#x208;" horiz-adv-x="257" 
d="M249 769l-76 128q-10 16 -5 28.5t18 18.5t26.5 1.5t20.5 -21.5l56 -135q6 -13 -1.5 -22.5t-19 -10t-19.5 12.5zM122 769l-79 129q-10 15 -5.5 27.5t17 18t26.5 1.5t22 -21l59 -136q6 -13 -1 -22t-18.5 -9t-20.5 12zM91 -7q-44 0 -36 50l100 627q6 42 46 42q43 0 35 -50
l-100 -627q-6 -42 -45 -42z" />
    <glyph glyph-name="uni0209" unicode="&#x209;" horiz-adv-x="232" 
d="M204 562l-52 159q-6 19 2 30.5t22 14.5t27 -4.5t16 -27.5l31 -163q2 -15 -7.5 -22t-21.5 -4t-17 17zM77 562l-52 159q-6 19 2 30.5t22 14.5t27 -4.5t16 -27.5l30 -163q3 -15 -6.5 -22t-21.5 -4t-17 17zM76 -7q-19 0 -27.5 12.5t-5.5 35.5l66 412q6 40 46 40
q19 0 28 -12.5t5 -34.5l-65 -413q-7 -40 -47 -40z" />
    <glyph glyph-name="uni020A" unicode="&#x20a;" horiz-adv-x="257" 
d="M63 757q-12 1 -18 10.5t-2 24.5q18 66 66 104.5t111 38.5q67 0 109 -40.5t46 -107.5q3 -27 -22 -30q-27 -3 -29 23q-3 48 -32 74.5t-75 26.5q-45 0 -78.5 -26.5t-45.5 -75.5q-7 -25 -30 -22zM91 -7q-44 0 -36 50l100 627q6 42 46 42q43 0 35 -50l-100 -627
q-6 -42 -45 -42z" />
    <glyph glyph-name="uni020B" unicode="&#x20b;" horiz-adv-x="232" 
d="M31 548q-13 1 -18.5 10.5t-2.5 25.5q17 76 60 118t103 42q63 0 101.5 -44.5t39.5 -122.5q1 -26 -23 -29q-11 -2 -19 4t-9 20q-2 57 -26 87t-66 30q-41 0 -70.5 -30.5t-40.5 -88.5q-5 -24 -29 -22zM76 -7q-19 0 -27.5 12.5t-5.5 35.5l66 412q6 40 46 40q19 0 28 -12.5
t5 -34.5l-65 -413q-7 -40 -47 -40z" />
    <glyph glyph-name="uni020C" unicode="&#x20c;" horiz-adv-x="767" 
d="M493 769l-76 128q-10 16 -5 28.5t18 18.5t26.5 1.5t20.5 -21.5l56 -135q6 -13 -1.5 -22.5t-19 -10t-19.5 12.5zM366 769l-79 129q-10 15 -5.5 27.5t17 18t26.5 1.5t22 -21l59 -136q6 -13 -1 -22t-18.5 -9t-20.5 12zM368 -9q-88 0 -154 35t-102 102.5t-36 165.5
q0 119 42 214t121.5 150.5t194.5 55.5q89 0 154.5 -35t101.5 -102.5t36 -164.5q0 -120 -42 -215t-121.5 -150.5t-194.5 -55.5zM370 64q87 0 147 45.5t91 124t31 177.5q0 116 -55.5 173t-152.5 57q-86 0 -146 -45.5t-91 -123.5t-31 -177q0 -117 55.5 -174t151.5 -57z" />
    <glyph glyph-name="uni020D" unicode="&#x20d;" horiz-adv-x="556" 
d="M367 562l-52 159q-6 19 2 30.5t22 14.5t27 -4.5t16 -27.5l31 -163q2 -15 -7.5 -22t-21.5 -4t-17 17zM240 562l-52 159q-6 19 2 30.5t22 14.5t27 -4.5t16 -27.5l30 -163q3 -15 -6.5 -22t-21.5 -4t-17 17zM255 -9q-98 0 -154.5 57.5t-56.5 156.5q0 82 32 148t89.5 104
t135.5 38q98 0 154 -57.5t56 -156.5q0 -82 -31.5 -147.5t-89.5 -104t-135 -38.5zM258 56q55 0 93.5 31t58 82.5t19.5 114.5q0 72 -34.5 109t-96.5 37q-55 0 -93.5 -30.5t-58.5 -82.5t-20 -115q0 -71 35 -108.5t97 -37.5z" />
    <glyph glyph-name="uni020E" unicode="&#x20e;" horiz-adv-x="767" 
d="M307 757q-12 1 -18 10.5t-2 24.5q18 66 66 104.5t111 38.5q67 0 109 -40.5t46 -107.5q3 -27 -22 -30q-27 -3 -29 23q-3 48 -32 74.5t-75 26.5q-45 0 -78.5 -26.5t-45.5 -75.5q-7 -25 -30 -22zM368 -9q-88 0 -154 35t-102 102.5t-36 165.5q0 119 42 214t121.5 150.5
t194.5 55.5q89 0 154.5 -35t101.5 -102.5t36 -164.5q0 -120 -42 -215t-121.5 -150.5t-194.5 -55.5zM370 64q87 0 147 45.5t91 124t31 177.5q0 116 -55.5 173t-152.5 57q-86 0 -146 -45.5t-91 -123.5t-31 -177q0 -117 55.5 -174t151.5 -57z" />
    <glyph glyph-name="uni020F" unicode="&#x20f;" horiz-adv-x="556" 
d="M194 548q-13 1 -18.5 10.5t-2.5 25.5q17 76 60 118t103 42q63 0 101.5 -44.5t39.5 -122.5q1 -26 -23 -29q-11 -2 -19 4t-9 20q-2 57 -26 87t-66 30q-41 0 -70.5 -30.5t-40.5 -88.5q-5 -24 -29 -22zM255 -9q-98 0 -154.5 57.5t-56.5 156.5q0 82 32 148t89.5 104t135.5 38
q98 0 154 -57.5t56 -156.5q0 -82 -31.5 -147.5t-89.5 -104t-135 -38.5zM258 56q55 0 93.5 31t58 82.5t19.5 114.5q0 72 -34.5 109t-96.5 37q-55 0 -93.5 -30.5t-58.5 -82.5t-20 -115q0 -71 35 -108.5t97 -37.5z" />
    <glyph glyph-name="uni0210" unicode="&#x210;" horiz-adv-x="669" 
d="M448 769l-76 128q-10 16 -5 28.5t18 18.5t26.5 1.5t20.5 -21.5l56 -135q6 -13 -1.5 -22.5t-19 -10t-19.5 12.5zM321 769l-79 129q-10 15 -5.5 27.5t17 18t26.5 1.5t22 -21l59 -136q6 -13 -1 -22t-18.5 -9t-20.5 12zM90 -7q-19 0 -28.5 13t-5.5 36l98 622q7 41 48 41h210
q114 0 171.5 -51t57.5 -139q0 -92 -54 -145t-140 -65q23 -11 40.5 -33t29.5 -54l65 -170q10 -26 2 -40.5t-34 -14.5q-29 0 -43 36l-73 190q-16 43 -42.5 61t-75.5 18h-138l-41 -264q-7 -41 -47 -41zM189 363h200q80 0 125 38t45 109q0 63 -37.5 95t-118.5 32h-171z" />
    <glyph glyph-name="uni0211" unicode="&#x211;" horiz-adv-x="358" 
d="M300 565l-52 159q-6 19 2 30.5t22 14.5t27 -4.5t16 -27.5l31 -163q2 -15 -7.5 -22t-21.5 -4t-17 17zM173 565l-52 159q-6 19 2 30.5t22 14.5t27 -4.5t16 -27.5l30 -163q3 -15 -6.5 -22t-21.5 -4t-17 17zM77 -7q-41 0 -33 47l65 414q6 39 46 39q18 0 27.5 -12t5.5 -34
l-7 -41q26 43 70 66t96 24q21 1 29.5 -5.5t8.5 -22.5q0 -21 -10 -30.5t-32 -12.5l-20 -1q-81 -8 -115.5 -48.5t-45.5 -107.5l-38 -236q-5 -39 -47 -39z" />
    <glyph glyph-name="uni0212" unicode="&#x212;" horiz-adv-x="669" 
d="M262 757q-12 1 -18 10.5t-2 24.5q18 66 66 104.5t111 38.5q67 0 109 -40.5t46 -107.5q3 -27 -22 -30q-27 -3 -29 23q-3 48 -32 74.5t-75 26.5q-45 0 -78.5 -26.5t-45.5 -75.5q-7 -25 -30 -22zM90 -7q-19 0 -28.5 13t-5.5 36l98 622q7 41 48 41h210q114 0 171.5 -51
t57.5 -139q0 -92 -54 -145t-140 -65q23 -11 40.5 -33t29.5 -54l65 -170q10 -26 2 -40.5t-34 -14.5q-29 0 -43 36l-73 190q-16 43 -42.5 61t-75.5 18h-138l-41 -264q-7 -41 -47 -41zM189 363h200q80 0 125 38t45 109q0 63 -37.5 95t-118.5 32h-171z" />
    <glyph glyph-name="uni0213" unicode="&#x213;" horiz-adv-x="358" 
d="M127 551q-13 1 -18.5 10.5t-2.5 25.5q17 76 60 118t103 42q63 0 101.5 -44.5t39.5 -122.5q1 -26 -23 -29q-11 -2 -19 4t-9 20q-2 57 -26 87t-66 30q-41 0 -70.5 -30.5t-40.5 -88.5q-5 -24 -29 -22zM77 -7q-41 0 -33 47l65 414q6 39 46 39q18 0 27.5 -12t5.5 -34l-7 -41
q26 43 70 66t96 24q21 1 29.5 -5.5t8.5 -22.5q0 -21 -10 -30.5t-32 -12.5l-20 -1q-81 -8 -115.5 -48.5t-45.5 -107.5l-38 -236q-5 -39 -47 -39z" />
    <glyph glyph-name="uni0214" unicode="&#x214;" horiz-adv-x="728" 
d="M484 769l-76 128q-10 16 -5 28.5t18 18.5t26.5 1.5t20.5 -21.5l56 -135q6 -13 -1.5 -22.5t-19 -10t-19.5 12.5zM357 769l-79 129q-10 15 -5.5 27.5t17 18t26.5 1.5t22 -21l59 -136q6 -13 -1 -22t-18.5 -9t-20.5 12zM335 -9q-89 0 -149.5 34t-86 102t-9.5 170l60 376
q6 39 46 39q43 0 35 -47l-59 -375q-36 -226 167 -226q98 0 154.5 50t74.5 159l64 400q6 39 45 39q20 0 29.5 -12t5.5 -35l-62 -396q-22 -138 -98 -208t-217 -70z" />
    <glyph glyph-name="uni0215" unicode="&#x215;" horiz-adv-x="561" 
d="M364 563l-52 159q-6 19 2 30.5t22 14.5t27 -4.5t16 -27.5l31 -163q2 -15 -7.5 -22t-21.5 -4t-17 17zM237 563l-52 159q-6 19 2 30.5t22 14.5t27 -4.5t16 -27.5l30 -163q3 -15 -6.5 -22t-21.5 -4t-17 17zM211 -9q-79 0 -120.5 49t-24.5 153l41 262q6 38 45 38
q20 0 29.5 -12t5.5 -33l-40 -255q-21 -135 88 -135q69 0 112 45t54 120l36 232q6 38 45 38q42 0 36 -44l-66 -417q-6 -39 -44 -39q-41 0 -34 44l6 45q-27 -44 -70.5 -67.5t-98.5 -23.5z" />
    <glyph glyph-name="uni0216" unicode="&#x216;" horiz-adv-x="728" 
d="M298 757q-12 1 -18 10.5t-2 24.5q18 66 66 104.5t111 38.5q67 0 109 -40.5t46 -107.5q3 -27 -22 -30q-27 -3 -29 23q-3 48 -32 74.5t-75 26.5q-45 0 -78.5 -26.5t-45.5 -75.5q-7 -25 -30 -22zM335 -9q-89 0 -149.5 34t-86 102t-9.5 170l60 376q6 39 46 39q43 0 35 -47
l-59 -375q-36 -226 167 -226q98 0 154.5 50t74.5 159l64 400q6 39 45 39q20 0 29.5 -12t5.5 -35l-62 -396q-22 -138 -98 -208t-217 -70z" />
    <glyph glyph-name="uni0217" unicode="&#x217;" horiz-adv-x="561" 
d="M191 549q-13 1 -18.5 10.5t-2.5 25.5q17 76 60 118t103 42q63 0 101.5 -44.5t39.5 -122.5q1 -26 -23 -29q-11 -2 -19 4t-9 20q-2 57 -26 87t-66 30q-41 0 -70.5 -30.5t-40.5 -88.5q-5 -24 -29 -22zM211 -9q-79 0 -120.5 49t-24.5 153l41 262q6 38 45 38q20 0 29.5 -12
t5.5 -33l-40 -255q-21 -135 88 -135q69 0 112 45t54 120l36 232q6 38 45 38q42 0 36 -44l-66 -417q-6 -39 -44 -39q-41 0 -34 44l6 45q-27 -44 -70.5 -67.5t-98.5 -23.5z" />
    <glyph glyph-name="uni0218" unicode="&#x218;" horiz-adv-x="615" 
d="M270 -251q-13 -13 -25.5 -10t-16.5 15t9 26q23 23 30 50q-46 3 -46 43q0 24 15 38t39 14q48 0 48 -51q0 -33 -15 -68t-38 -57zM297 -9q-67 0 -131.5 16t-114.5 53q-15 10 -18 24.5t4 27.5t20.5 17t31.5 -7q48 -34 101.5 -46t113.5 -12q81 0 130 33.5t49 91.5
q0 40 -29 68.5t-102 44.5l-103 25q-70 17 -112 58t-42 118q0 65 35.5 112t95.5 73t132 26q58 0 119 -17t107 -56q13 -10 15.5 -25t-4.5 -27.5t-21 -15.5t-32 10q-39 31 -87.5 44.5t-98.5 13.5q-51 0 -91 -16.5t-63.5 -46t-23.5 -70.5q0 -51 25.5 -75t75.5 -37l104 -24
q94 -22 138.5 -66.5t44.5 -107.5q0 -68 -36.5 -114t-97.5 -69.5t-135 -23.5z" />
    <glyph glyph-name="uni0219" unicode="&#x219;" horiz-adv-x="481" 
d="M189 -251q-13 -13 -25.5 -10t-16.5 15t9 26q23 23 30 50q-46 3 -46 43q0 24 15 38t39 14q48 0 48 -51q0 -33 -15 -68t-38 -57zM223 -9q-48 0 -91.5 11t-75.5 31q-15 9 -19 22.5t1.5 25t18 15t28.5 -5.5q31 -19 66.5 -28t72.5 -9q54 0 84.5 21.5t30.5 60.5q0 50 -65 65
l-94 23q-50 12 -78.5 43.5t-28.5 77.5q0 65 53.5 108t145.5 43q40 0 81 -11.5t68 -32.5q20 -14 19.5 -32t-15 -26.5t-35.5 4.5q-51 36 -121 36q-56 0 -88 -23t-32 -62q0 -24 14.5 -41.5t45.5 -24.5l95 -23q53 -13 82.5 -42.5t29.5 -76.5q0 -70 -53.5 -109.5t-139.5 -39.5z
" />
    <glyph glyph-name="uni021A" unicode="&#x21a;" horiz-adv-x="602" 
d="M240 -251q-13 -13 -25.5 -10t-16.5 15t9 26q23 23 30 50q-46 3 -46 43q0 24 15 38t39 14q48 0 48 -51q0 -33 -15 -68t-38 -57zM263 -7q-20 0 -29 13t-5 36l93 592h-219q-39 0 -39 30q0 19 12 30t31 11h528q39 0 39 -29q0 -42 -43 -42h-227l-95 -600q-6 -41 -46 -41z" />
    <glyph glyph-name="uni021B" unicode="&#x21b;" horiz-adv-x="350" 
d="M162 -251q-13 -13 -25.5 -10t-16.5 15t9 26q23 23 30 50q-46 3 -46 43q0 24 15 38t39 14q48 0 48 -51q0 -33 -15 -68t-38 -57zM238 -9q-85 0 -124.5 48t-26.5 128l41 256h-62q-36 0 -36 27q0 18 11.5 27t31.5 9h65l18 118q6 38 45 38q43 0 35 -46l-17 -110h120
q36 0 36 -26q0 -17 -11 -27t-29 -10h-127l-39 -248q-10 -61 12.5 -88t69.5 -27q21 0 33 4t20 4q10 0 15 -5.5t5 -19.5q0 -20 -6.5 -29t-19.5 -14q-26 -9 -60 -9z" />
    <glyph glyph-name="uni021C" unicode="&#x21c;" horiz-adv-x="538" 
d="M301 -9q-76 0 -140 17.5t-117 57.5q-14 10 -16 25t4.5 27t20 15.5t30.5 -7.5q49 -35 102.5 -48.5t117.5 -13.5q49 0 91 13.5t68 45.5t26 86q0 57 -36.5 85.5t-105.5 28.5h-135q-40 0 -37 31q2 37 42 37h139q77 0 122.5 36t45.5 104q0 59 -43.5 84.5t-110.5 25.5
q-53 0 -105 -14t-97 -44q-20 -11 -34 -7t-20.5 16t-2 27t21.5 25q52 34 116.5 52t128.5 18q65 0 117 -20t82 -58t30 -93q0 -72 -39.5 -120t-106.5 -66q52 -17 81 -56.5t29 -95.5q0 -74 -35.5 -121.5t-96 -70t-137.5 -22.5z" />
    <glyph glyph-name="uni021D" unicode="&#x21d;" horiz-adv-x="478" 
d="M167 228q81 0 129.5 39t48.5 101q0 45 -29 75.5t-77 30.5q-61 0 -131 -32l-26 67q44 21 83 29t84 8q84 0 133 -46t49 -123q0 -70 -42 -118.5t-123 -68.5q57 -20 88.5 -64t31.5 -113q0 -76 -35.5 -133.5t-101.5 -88.5t-150 -31q-106 0 -165 35v80q74 -42 167 -42
q89 0 143 49.5t54 132.5q0 66 -48 104.5t-131 38.5h-48l15 70h81z" />
    <glyph glyph-name="uni021E" unicode="&#x21e;" horiz-adv-x="680" 
d="M383 707q-32 0 -46 32l-66 153q-8 16 1 26.5t23 10t22 -15.5l72 -143l107 145q11 14 24.5 13t20 -11.5t-3.5 -25.5l-98 -150q-22 -34 -56 -34zM90 -7q-43 0 -35 50l100 627q6 42 46 42q43 0 35 -50l-43 -269h422l45 277q6 42 46 42q43 0 35 -50l-100 -627q-7 -42 -46 -42
q-43 0 -35 50l44 279h-422l-46 -287q-6 -42 -46 -42z" />
    <glyph glyph-name="uni021F" unicode="&#x21f;" horiz-adv-x="568" 
d="M366 756q-18 0 -29.5 8.5t-20.5 24.5l-74 119q-9 16 -1.5 26.5t22 11t26.5 -15.5l81 -112l111 117q12 12 26 10t20.5 -12.5t-4.5 -23.5l-99 -122q-25 -31 -58 -31zM77 -7q-19 0 -28 13t-5 36l99 629q6 41 47 41q19 0 28 -12.5t5 -34.5l-41 -259q27 43 71 66t102 23
q81 0 122.5 -49t24.5 -152l-40 -260q-6 -41 -47 -41q-19 0 -28 12.5t-6 35.5l40 253q22 135 -90 135q-73 0 -116 -45t-55 -120l-36 -230q-6 -41 -47 -41z" />
    <glyph glyph-name="uni0220" unicode="&#x220;" horiz-adv-x="700" 
d="M459 647q-88 0 -156.5 -74.5t-93.5 -195.5l-79 -377h-89l151 714h74l-16 -117h5q34 59 92.5 93.5t129.5 34.5q91 0 140.5 -46.5t49.5 -138.5q0 -35 -9 -79l-148 -701h-90l149 701q8 39 8 70q0 116 -118 116z" />
    <glyph glyph-name="uni0221" unicode="&#x221;" horiz-adv-x="579" 
d="M193 -10q-67 0 -106 47.5t-39 135.5q0 102 34 189t94.5 135t134.5 48q93 0 135 -92h5q10 76 22 132l37 175h87l-177 -832q-7 -32 -7 -48q0 -48 44 -48q32 0 55 11v-67q-26 -16 -75 -16q-55 0 -83 28t-28 82q0 12 1.5 26.5t4.5 30t13.5 66t29.5 106.5h-4
q-47 -58 -89.5 -83.5t-88.5 -25.5zM223 63q45 0 92 45.5t74.5 114.5t27.5 141q0 53 -25.5 80.5t-74.5 27.5q-48 0 -89 -40.5t-65.5 -111t-24.5 -149.5q0 -108 85 -108z" />
    <glyph glyph-name="uni0222" unicode="&#x222;" horiz-adv-x="639" 
d="M365 470q69 0 115.5 40.5t62.5 115.5l18 88h89l-19 -94q-30 -148 -153 -189q51 -27 79.5 -73t28.5 -103q0 -125 -83.5 -195t-230.5 -70q-104 0 -166 57t-62 154q0 87 50.5 150t139.5 88q-75 45 -75 136q0 23 6 51l18 88h90l-18 -88q-6 -26 -6 -49q0 -53 30 -80t86 -27z
M347 393q-91 0 -149.5 -53.5t-58.5 -139.5q0 -62 37 -97t103 -35q96 0 154 51t58 138q0 61 -39 98.5t-105 37.5z" />
    <glyph glyph-name="uni0223" unicode="&#x223;" horiz-adv-x="578" 
d="M334 485q61 0 95.5 35t51.5 114l27 126h89l-27 -129q-17 -78 -49 -123t-88 -63q40 -21 64.5 -60t24.5 -100q0 -81 -36 -151t-100 -107t-150 -37q-91 0 -144 53t-53 145q0 61 21 117t61 94.5t96 53.5q-63 40 -63 122q0 25 6 56l27 129h89l-27 -126q-8 -36 -8 -63
q0 -45 23 -65.5t70 -20.5zM132 191q0 -61 28.5 -94.5t83.5 -33.5q56 0 98 28.5t64.5 82t22.5 115.5q0 59 -27.5 91t-84.5 32q-43 0 -78 -16t-59 -47.5t-36 -74.5t-12 -83z" />
    <glyph glyph-name="uni0224" unicode="&#x224;" horiz-adv-x="530" 
d="M294 -198q-33 0 -54 11v73q27 -9 46 -9q22 0 35.5 12.5t20.5 44.5l14 66h-366l14 70l445 564h-315l17 80h422l-13 -71l-445 -563h335l-34 -164q-12 -58 -41.5 -86t-80.5 -28z" />
    <glyph glyph-name="uni0225" unicode="&#x225;" horiz-adv-x="444" 
d="M199 -198q-18 0 -34.5 4t-25.5 8v73q19 -9 44 -9t39.5 13t20.5 41l14 68h-272l12 60l333 410h-230l14 66h325l-14 -71l-327 -399h255l-28 -142q-13 -63 -43 -92.5t-83 -29.5z" />
    <glyph glyph-name="uni0226" unicode="&#x226;" horiz-adv-x="729" 
d="M455 803q-43 0 -43 38q0 27 15.5 42t42.5 15q43 0 43 -38q0 -26 -15.5 -41.5t-42.5 -15.5zM40 -7q-23 0 -33.5 15.5t2.5 38.5l382 636q17 29 48 29q33 0 43 -33l176 -630q8 -29 -2.5 -42.5t-28.5 -13.5q-34 0 -44 39l-39 148h-368l-94 -161q-15 -26 -42 -26zM427 609
l-211 -360h309l-96 360h-2z" />
    <glyph glyph-name="uni0227" unicode="&#x227;" horiz-adv-x="530" 
d="M324 605q-43 0 -43 38q0 27 15.5 42.5t42.5 15.5q43 0 43 -38q0 -27 -15.5 -42.5t-42.5 -15.5zM199 -9q-42 0 -78.5 19t-58.5 52t-22 75q0 77 65.5 111t209.5 34h69l5 30q10 57 -15 87.5t-88 30.5q-36 0 -69.5 -7t-66.5 -26q-16 -9 -29 -5t-18.5 15.5t-0.5 24.5t24 23
q38 21 82 30.5t87 9.5q102 0 143 -56t26 -149l-41 -257q-6 -40 -44 -40q-39 0 -32 46l6 37q-25 -43 -67 -64t-87 -21zM219 52q54 0 97 36.5t54 101.5l6 39h-50q-77 0 -121.5 -8t-63.5 -27t-19 -52q0 -44 29 -67t68 -23z" />
    <glyph glyph-name="uni0228" unicode="&#x228;" horiz-adv-x="583" 
d="M273 -192q-38 0 -69 10q-16 5 -18 19t7 23.5t26 3.5q23 -9 55 -9q28 0 45 10t17 29q0 26 -35 26q-17 0 -35 -5q-17 -4 -23 2t-1 21l26 82h51l-21 -63q10 1 18 1q34 0 55 -16.5t21 -46.5q0 -39 -34 -63t-85 -24zM98 0q-49 0 -42 49l98 615q6 41 48 41h369q37 0 37 -27
q0 -21 -11.5 -31.5t-29.5 -10.5h-337l-39 -244h310q36 0 36 -27q0 -21 -11.5 -31.5t-28.5 -10.5h-317l-41 -254h331q37 0 37 -28q0 -21 -11.5 -31t-29.5 -10h-368z" />
    </font>
</defs>
</svg>
