<?xml version="1.0" standalone="no"?>
<!DOCTYPE svg PUBLIC "-//W3C//DTD SVG 1.1//EN" "http://www.w3.org/Graphics/SVG/1.1/DTD/svg11.dtd" >
<svg xmlns="http://www.w3.org/2000/svg" xmlns:xlink="http://www.w3.org/1999/xlink" version="1.1">
<metadata>
Created by FontForge 20190801 at Mon Feb  8 12:17:26 2021
 By root
Copyright (c) 2016 by Red Hat, Inc. All rights reserved.
</metadata>
<defs>
<font id="Overpass-Regular" horiz-adv-x="235" >
  <font-face 
    font-family="Overpass"
    font-weight="400"
    font-stretch="normal"
    units-per-em="1000"
    panose-1="0 0 5 0 0 0 0 0 0 0"
    ascent="750"
    descent="-250"
    x-height="511"
    cap-height="700"
    bbox="-213 -378 1302 1062"
    underline-thickness="84"
    underline-position="-178"
    unicode-range="U+0001-206F"
  />
<missing-glyph horiz-adv-x="364" 
d="M33 0v666h265v-666h-265zM66 33h199v600h-199v-600z" />
    <glyph glyph-name=".notdef" horiz-adv-x="364" 
d="M33 0v666h265v-666h-265zM66 33h199v600h-199v-600z" />
    <glyph glyph-name="uni0000" 
 />
    <glyph glyph-name="uni0000" 
 />
    <glyph glyph-name="uni000D" unicode="&#xd;" 
 />
    <glyph glyph-name="uni0001" 
 />
    <glyph glyph-name="uni0002" 
 />
    <glyph glyph-name="uni0003" 
 />
    <glyph glyph-name="uni0004" 
 />
    <glyph glyph-name="uni0005" 
 />
    <glyph glyph-name="uni0006" 
 />
    <glyph glyph-name="uni0007" 
 />
    <glyph glyph-name="uni0008" 
 />
    <glyph glyph-name="uni0009" unicode="&#x9;" 
 />
    <glyph glyph-name="uni000A" unicode="&#xa;" 
 />
    <glyph glyph-name="uni000B" 
 />
    <glyph glyph-name="uni000C" 
 />
    <glyph glyph-name="uni000E" 
 />
    <glyph glyph-name="uni000F" 
 />
    <glyph glyph-name="uni0010" 
 />
    <glyph glyph-name="uni0011" 
 />
    <glyph glyph-name="uni0012" 
 />
    <glyph glyph-name="uni0013" 
 />
    <glyph glyph-name="uni0014" 
 />
    <glyph glyph-name="uni0015" 
 />
    <glyph glyph-name="uni0016" 
 />
    <glyph glyph-name="uni0017" 
 />
    <glyph glyph-name="uni0018" 
 />
    <glyph glyph-name="uni0019" 
 />
    <glyph glyph-name="uni001A" 
 />
    <glyph glyph-name="uni001B" 
 />
    <glyph glyph-name="uni001C" 
 />
    <glyph glyph-name="uni001D" 
 />
    <glyph glyph-name="uni001E" 
 />
    <glyph glyph-name="uni001F" 
 />
    <glyph glyph-name="space" unicode=" " 
 />
    <glyph glyph-name="exclam" unicode="!" horiz-adv-x="273" 
d="M123 193l-29 300v219h88v-219l-30 -300h-29zM137 -13q-29 0 -49 20t-20 48t20 48.5t49 20.5t49 -20.5t20 -48.5q0 -27 -20 -47.5t-49 -20.5z" />
    <glyph glyph-name="quotedbl" unicode="&#x22;" horiz-adv-x="403" 
d="M53 700h108l-19 -273h-71zM241 700h109l-19 -273h-71z" />
    <glyph glyph-name="numbersign" unicode="#" horiz-adv-x="683" 
d="M138 0l30 197h-118l12 74h117l26 172h-114l11 73h114l29 184h78l-28 -184h141l28 184h79l-29 -184h119l-11 -73h-119l-26 -172h115l-11 -74h-115l-30 -197h-79l30 197h-140l-30 -197h-79zM258 271h140l27 172h-141z" />
    <glyph glyph-name="dollar" unicode="$" horiz-adv-x="588" 
d="M249 -98v90q-70 11 -120.5 52t-70.5 100l82 30q21 -48 62.5 -75.5t96.5 -27.5q62 0 97 30t35 87q0 54 -40.5 87.5t-112.5 60.5q-45 17 -72.5 30.5t-61 37.5t-49.5 57.5t-16 77.5q0 65 45.5 112.5t124.5 57.5v80h88v-81q59 -10 98.5 -42t53.5 -79l-80 -27q-31 70 -125 70
q-54 0 -84 -24t-30 -67q0 -23 11 -41.5t34.5 -33.5t44 -24.5t56.5 -23.5q44 -17 73.5 -32t63.5 -41.5t51.5 -65t17.5 -87.5q0 -84 -51 -136t-134 -63v-89h-88z" />
    <glyph glyph-name="percent" unicode="%" horiz-adv-x="870" 
d="M213 356q-82 0 -121.5 53t-39.5 125q0 69 40 123.5t121 54.5t120.5 -52.5t39.5 -125.5q0 -43 -14 -81t-52 -67.5t-94 -29.5zM238 -12h-84l478 724h84zM213 425q41 0 63.5 31.5t22.5 77.5q0 50 -22 79.5t-64 29.5q-43 0 -64.5 -30.5t-21.5 -78.5q0 -49 21.5 -79t64.5 -30z
M657 -12q-81 0 -120.5 53t-39.5 125q0 68 39.5 123t120.5 55q82 0 121.5 -52.5t39.5 -125.5q0 -43 -14 -81t-52 -67.5t-95 -29.5zM657 57q42 0 64 31t22 78q0 50 -22 79.5t-64 29.5t-64 -30.5t-22 -78.5q0 -49 22 -79t64 -30z" />
    <glyph glyph-name="ampersand" unicode="&#x26;" horiz-adv-x="677" 
d="M255 -12q-90 0 -145.5 53t-55.5 140q0 73 42 122t120 93q-44 55 -62 89.5t-18 74.5q0 70 48 111t120 41q71 0 117.5 -43.5t46.5 -110.5q0 -56 -33.5 -97t-96.5 -81l131 -157q24 52 28 106h83q-4 -91 -53 -175l129 -154h-113l-69 83q-90 -95 -219 -95zM301 635
q-37 0 -59.5 -20.5t-22.5 -54.5q0 -17 10.5 -38t23 -37.5t37.5 -46.5q95 55 95 114q0 38 -24 60.5t-60 22.5zM269 69q84 0 152 78l-157 190q-61 -38 -91 -72.5t-30 -78.5q0 -52 35 -84.5t91 -32.5z" />
    <glyph glyph-name="quotesingle" unicode="'" horiz-adv-x="214" 
d="M53 700h108l-19 -273h-71z" />
    <glyph glyph-name="parenleft" unicode="(" horiz-adv-x="343" 
d="M200 -130q-122 160 -122 414q0 269 133 428h84q-43 -52 -87 -167.5t-44 -260.5q0 -101 25.5 -196.5t48 -139t46.5 -78.5h-84z" />
    <glyph glyph-name="parenright" unicode=")" horiz-adv-x="343" 
d="M59 -130q24 35 46.5 78.5t48 139t25.5 196.5q0 145 -44 260.5t-87 167.5h84q133 -159 133 -428q0 -254 -122 -414h-84z" />
    <glyph glyph-name="asterisk" unicode="*" horiz-adv-x="533" 
d="M293 390l-27 74l-27 -74l-68 -93l-65 49l66 91l57 49l-72 2l-103 34l26 78l100 -33l63 -44l-17 74v113h81v-113l-19 -74l64 44l101 33l26 -78l-104 -34l-73 -2l59 -49l66 -91l-65 -49z" />
    <glyph glyph-name="plus" unicode="+" horiz-adv-x="645" 
d="M366 301v-193h-88v193h-190v84h190v193h88v-193h192v-84h-192z" />
    <glyph glyph-name="comma" unicode="," horiz-adv-x="225" 
d="M57 -126q18 16 36 46t20 64q-30 2 -50 20.5t-20 46.5q0 31 19.5 51t47.5 20q32 0 54 -22.5t22 -65.5q0 -55 -28 -101.5t-72 -73.5z" />
    <glyph glyph-name="hyphen" unicode="-" horiz-adv-x="399" 
d="M83 256v84h234v-84h-234z" />
    <glyph glyph-name="period" unicode="." horiz-adv-x="225" 
d="M112 -13q-29 0 -49 20.5t-20 47.5q0 28 20 48.5t49 20.5t49.5 -21t20.5 -48t-20.5 -47.5t-49.5 -20.5z" />
    <glyph glyph-name="slash" unicode="/" horiz-adv-x="490" 
d="M-8 -130l394 842h86l-393 -842h-87z" />
    <glyph glyph-name="zero" unicode="0" horiz-adv-x="639" 
d="M320 -12q-67 0 -117 31.5t-76.5 85t-39 114.5t-12.5 131q0 64 11 122.5t37 115t76.5 90.5t120.5 34q67 0 117 -31.5t76.5 -85.5t39 -115t12.5 -130q0 -64 -11.5 -122.5t-37.5 -115t-76.5 -90.5t-119.5 -34zM320 70q45 0 77 25t47.5 69t22 88.5t6.5 97.5q0 56 -7 103
t-23.5 88.5t-47.5 65.5t-75 24q-46 0 -78 -25.5t-48 -69t-22.5 -89t-6.5 -97.5q0 -56 7 -102.5t24 -88.5t48.5 -65.5t75.5 -23.5z" />
    <glyph glyph-name="one" unicode="1" horiz-adv-x="373" 
d="M157 0v558h-117v59q113 0 141 83h63v-700h-87z" />
    <glyph glyph-name="two" unicode="2" horiz-adv-x="612" 
d="M70 0q0 66 19 120.5t55 95.5t72 69t86 57q46 28 72 47.5t48.5 52.5t22.5 70q0 51 -37.5 85t-99.5 34q-116 0 -149 -103l-78 35q21 66 83 107.5t147 41.5q104 0 164 -55.5t60 -146.5q0 -36 -11 -67t-26.5 -53t-44.5 -46t-51.5 -38.5t-60.5 -37.5q-74 -43 -116.5 -85
t-53.5 -98h370v-85h-471z" />
    <glyph glyph-name="three" unicode="3" horiz-adv-x="602" 
d="M291 -12q-177 0 -239 163l81 33q47 -113 158 -113q66 0 108 32t42 93q0 58 -37 92.5t-108 34.5h-50v82h45q55 0 89 30.5t34 80.5q0 52 -33.5 83t-86.5 31q-95 0 -139 -94l-81 31q25 64 81.5 104.5t138.5 40.5q91 0 151 -53t60 -133q0 -48 -23.5 -89t-66.5 -63
q55 -22 86 -67t31 -108q0 -95 -69 -153t-172 -58z" />
    <glyph glyph-name="four" unicode="4" horiz-adv-x="621" 
d="M383 0v174h-358v52l363 474h82v-448h99v-78h-99v-174h-87zM383 252v325l-244 -325h244z" />
    <glyph glyph-name="five" unicode="5" horiz-adv-x="621" 
d="M291 -12q-78 0 -136 23t-88 54l52 67q73 -64 171 -64q74 0 122.5 45t48.5 112q0 66 -39.5 107t-103.5 41q-90 0 -141 -57l-86 30l41 354h374v-81h-298l-27 -211q60 48 147 48q100 0 162 -65t62 -160q0 -102 -72.5 -172.5t-188.5 -70.5z" />
    <glyph glyph-name="six" unicode="6" horiz-adv-x="597" 
d="M302 -12q-114 0 -175.5 75.5t-61.5 195.5q0 166 99.5 292t270.5 161v-77q-95 -22 -169.5 -91.5t-95.5 -163.5q50 57 153 57q90 0 151 -64t61 -156q0 -99 -66.5 -164t-166.5 -65zM301 70q65 0 106 39t41 103q0 65 -40.5 104.5t-106.5 39.5q-65 0 -106.5 -39.5
t-41.5 -104.5q0 -63 42 -102.5t106 -39.5z" />
    <glyph glyph-name="seven" unicode="7" horiz-adv-x="522" 
d="M175 0q2 177 50 324.5t158 294.5h-348v81h445v-79q-63 -72 -107.5 -157.5t-66.5 -169.5t-32 -154.5t-10 -139.5h-89z" />
    <glyph glyph-name="eight" unicode="8" horiz-adv-x="611" 
d="M305 -12q-103 0 -169 60.5t-66 152.5q0 64 33 112.5t87 71.5q-43 22 -66 60t-23 85q0 77 57.5 129.5t146.5 52.5t147 -52.5t58 -129.5q0 -101 -90 -145q55 -24 88 -72t33 -112q0 -92 -66 -152.5t-170 -60.5zM305 420q52 0 84.5 29.5t32.5 73.5q0 49 -32.5 78.5
t-84.5 29.5q-51 0 -83.5 -29.5t-32.5 -78.5q0 -44 32 -73.5t84 -29.5zM305 70q64 0 105 37.5t41 100.5q0 57 -41.5 98t-104.5 41t-104 -40.5t-41 -98.5q0 -63 40.5 -100.5t104.5 -37.5z" />
    <glyph glyph-name="nine" unicode="9" horiz-adv-x="597" 
d="M174 -12v81q95 17 164.5 84t86.5 171q-49 -60 -153 -60q-92 0 -153.5 63t-61.5 157q0 99 67.5 163.5t170.5 64.5q115 0 174 -75t59 -196q0 -177 -94.5 -303.5t-259.5 -149.5zM292 345q65 0 105.5 39.5t40.5 103.5q0 61 -41.5 100.5t-104.5 39.5q-65 0 -105.5 -39.5
t-40.5 -100.5q0 -65 39.5 -104t106.5 -39z" />
    <glyph glyph-name="colon" unicode=":" horiz-adv-x="225" 
d="M112 347q-29 0 -49 20.5t-20 47.5q0 28 20 48.5t49 20.5t49.5 -21t20.5 -48t-20.5 -47.5t-49.5 -20.5zM112 -13q-29 0 -49 20.5t-20 47.5q0 28 20 48.5t49 20.5t49.5 -21t20.5 -48t-20.5 -47.5t-49.5 -20.5z" />
    <glyph glyph-name="semicolon" unicode=";" horiz-adv-x="225" 
d="M112 347q-29 0 -49 20t-20 48t20 48.5t49 20.5t49 -20.5t20 -48.5q0 -27 -20 -47.5t-49 -20.5zM57 -126q18 16 34.5 46t18.5 65q-28 1 -47.5 19.5t-19.5 46.5q0 31 19.5 51t47.5 20q32 0 54 -22.5t22 -65.5q0 -55 -28 -101.5t-72 -73.5z" />
    <glyph glyph-name="less" unicode="&#x3c;" horiz-adv-x="645" 
d="M558 114l-470 190v77l470 191v-86l-361 -143l361 -142v-87z" />
    <glyph glyph-name="equal" unicode="=" horiz-adv-x="645" 
d="M88 389v84h470v-84h-470zM88 213v83h470v-83h-470z" />
    <glyph glyph-name="greater" unicode="&#x3e;" horiz-adv-x="645" 
d="M558 304l-470 -190v86l360 143l-360 143v86l470 -191v-77z" />
    <glyph glyph-name="question" unicode="?" horiz-adv-x="514" 
d="M203 180v22q0 53 18.5 93t45 64.5t53 46.5t45 51t18.5 65q0 47 -33 78t-91 31q-67 0 -104.5 -37t-37.5 -99h-85q0 97 62.5 157t164.5 60q100 0 156 -54t56 -137q0 -47 -18.5 -83t-45 -59.5t-53 -46t-45 -55.5t-18.5 -76v-21h-88zM245 -13q-29 0 -49 20.5t-20 47.5
q0 28 20 48.5t49 20.5t49.5 -21t20.5 -48t-20.5 -47.5t-49.5 -20.5z" />
    <glyph glyph-name="at" unicode="@" horiz-adv-x="809" 
d="M408 -12q-155 0 -254 93t-99 255q0 163 107.5 269.5t259.5 106.5q148 0 240 -85t92 -215q0 -108 -51.5 -179.5t-124.5 -71.5q-34 0 -56.5 18t-28.5 50q-42 -74 -122 -74q-63 0 -104 48t-41 123q0 79 52 143t132 64q81 0 105 -77l11 64h76l-36 -201q-7 -42 -7 -55
q0 -38 31 -38q37 0 64.5 55t27.5 133q0 103 -71 164.5t-185 61.5q-131 0 -211.5 -86.5t-80.5 -218.5q0 -123 74.5 -199t203.5 -76q76 0 133 17l-18 -78q-47 -11 -119 -11zM388 228q48 0 78 40.5t30 94.5q0 43 -22 69.5t-57 26.5q-49 0 -79.5 -39t-30.5 -95q0 -44 22 -70.5
t59 -26.5z" />
    <glyph glyph-name="A" unicode="A" horiz-adv-x="679" 
d="M539 0l-60 171h-278l-59 -171h-91l248 700h81l248 -700h-89zM452 248l-90 259q-17 49 -22 71q-11 -39 -22 -71l-91 -259h225z" />
    <glyph glyph-name="B" unicode="B" horiz-adv-x="656" 
d="M98 700h248q115 0 166.5 -53t51.5 -132q0 -48 -27 -86.5t-76 -59.5q61 -19 94.5 -63.5t33.5 -104.5q0 -38 -12 -72t-37 -64t-71 -47.5t-107 -17.5h-264v700zM329 403q73 0 111 29.5t38 81.5q0 107 -127 107h-166v-218h144zM372 80q71 0 101 33t30 82q0 129 -163 129h-155
v-244h187z" />
    <glyph glyph-name="C" unicode="C" horiz-adv-x="647" 
d="M358 -12q-76 0 -134 31t-91 84t-49 115t-16 132q0 69 16.5 131.5t50 115t91 84t132.5 31.5q164 0 226 -126l-78 -40q-28 42 -61.5 63.5t-86.5 21.5q-71 0 -118 -45t-64.5 -105.5t-17.5 -130.5q0 -115 51 -197.5t149 -82.5t152 89l80 -30q-29 -64 -87 -102.5t-145 -38.5z
" />
    <glyph glyph-name="D" unicode="D" horiz-adv-x="682" 
d="M98 700h191q86 0 151 -30t102 -81t54.5 -111t17.5 -128q0 -65 -16.5 -123.5t-52 -111t-102.5 -84t-158 -31.5h-187v700zM296 81q62 0 108.5 23.5t71.5 64t36.5 85.5t11.5 96q0 72 -21 131t-72 99t-124 40h-122v-539h111z" />
    <glyph glyph-name="E" unicode="E" horiz-adv-x="599" 
d="M98 0v700h416v-82h-329v-215h217v-82h-217v-238h351v-83h-438z" />
    <glyph glyph-name="F" unicode="F" horiz-adv-x="562" 
d="M98 0v700h421v-82h-334v-215h221v-82h-221v-321h-87z" />
    <glyph glyph-name="G" unicode="G" horiz-adv-x="688" 
d="M365 -12q-77 0 -135.5 30.5t-93 82.5t-51.5 115t-17 134q0 70 18 133.5t53 115t93.5 82.5t132.5 31q89 0 140.5 -33t86.5 -90l-78 -45q-28 41 -62 63.5t-87 22.5q-45 0 -81 -17t-59 -44.5t-38.5 -64.5t-22 -75.5t-6.5 -78.5q0 -118 52 -198.5t155 -80.5q71 0 114 44.5
t43 116.5v28h-127v80h218v-84q0 -127 -69.5 -197.5t-178.5 -70.5z" />
    <glyph glyph-name="H" unicode="H" horiz-adv-x="700" 
d="M515 0v322h-330v-322h-87v700h87v-296h330v296h87v-700h-87z" />
    <glyph glyph-name="I" unicode="I" horiz-adv-x="287" 
d="M100 0v700h87v-700h-87z" />
    <glyph glyph-name="J" unicode="J" horiz-adv-x="546" 
d="M230 -12q-148 0 -202 126l72 37q21 -43 50 -62t81 -19q133 0 133 157v473h87v-470q0 -69 -20 -118.5t-54 -75t-70.5 -37t-76.5 -11.5z" />
    <glyph glyph-name="K" unicode="K" horiz-adv-x="660" 
d="M512 0l-208 385l-119 -146v-239h-87v700h87v-343l273 343h98l-193 -242l250 -458h-101z" />
    <glyph glyph-name="L" unicode="L" horiz-adv-x="559" 
d="M98 0v700h87v-616h344v-84h-431z" />
    <glyph glyph-name="M" unicode="M" horiz-adv-x="803" 
d="M706 0h-87v430q0 41 2 77q-10 -28 -31 -79l-192 -440l-186 442q-24 58 -30 76q3 -27 3 -76v-430h-87v700h82l203 -471l18 -47q4 12 18 47l204 471h83v-700z" />
    <glyph glyph-name="N" unicode="N" horiz-adv-x="708" 
d="M610 0h-84l-315 500q-18 29 -28 49q2 -30 2 -49v-500h-87v700h88l310 -498q16 -26 29 -52q-2 36 -2 51v499h87v-700z" />
    <glyph glyph-name="O" unicode="O" horiz-adv-x="730" 
d="M365 -12q-79 0 -138.5 31.5t-93 85t-49.5 115t-16 130.5t16 130.5t49.5 115t93 85t138.5 31.5q64 0 115.5 -21t85 -56t56 -83t32 -98t9.5 -104t-9.5 -104t-32 -98t-56 -83t-85 -56t-115.5 -21zM365 70q55 0 97 25.5t65 67.5t34 89.5t11 97.5q0 74 -18.5 134.5t-67 103.5
t-121.5 43q-55 0 -96.5 -25.5t-64.5 -68t-34.5 -89.5t-11.5 -98q0 -54 11 -102t34.5 -89t65 -65t96.5 -24z" />
    <glyph glyph-name="P" unicode="P" horiz-adv-x="630" 
d="M98 0v700h268q61 0 106.5 -18t70.5 -48.5t37 -66.5t12 -77q0 -83 -56.5 -146t-169.5 -63h-181v-281h-87zM372 362q68 0 100.5 38t32.5 90q0 51 -31 90t-102 39h-187v-257h187z" />
    <glyph glyph-name="Q" unicode="Q" horiz-adv-x="730" 
d="M365 -12q-79 0 -138.5 31.5t-93 85t-49.5 115t-16 130.5t16 130.5t49.5 115t93 85t138.5 31.5q64 0 115.5 -21t85 -56t56 -83t32 -98t9.5 -104q0 -194 -107 -293l53 -78l-64 -45l-54 80q-55 -26 -126 -26zM365 70q45 0 77 16l-50 75l66 45l48 -72q66 79 66 216
q0 74 -18.5 134.5t-67 103.5t-121.5 43q-55 0 -96.5 -25.5t-64.5 -68t-34.5 -89.5t-11.5 -98q0 -54 11 -102t34.5 -89t65 -65t96.5 -24z" />
    <glyph glyph-name="R" unicode="R" horiz-adv-x="665" 
d="M98 0v700h276q116 0 168.5 -57t52.5 -142q0 -69 -40.5 -123.5t-122.5 -71.5l150 -306h-98l-144 300h-155v-300h-87zM185 381h191q68 0 99.5 34t31.5 84q0 48 -30.5 84t-100.5 36h-191v-238z" />
    <glyph glyph-name="S" unicode="S" horiz-adv-x="599" 
d="M302 -12q-89 0 -154.5 43.5t-89.5 112.5l82 30q22 -48 65 -76t99 -28q64 0 101 30.5t37 87.5q0 55 -41.5 88t-116.5 60q-36 13 -59.5 23t-54 28.5t-48.5 38t-30.5 49t-12.5 64.5q0 73 58 123t157 50q81 0 135 -34.5t70 -90.5l-80 -27q-14 31 -48 51t-83 20
q-55 0 -87 -24.5t-32 -67.5q0 -23 11.5 -42t36 -34t45.5 -24t58 -23q46 -17 76 -32.5t65 -41.5t53 -64.5t18 -87.5q0 -94 -64 -148t-166 -54z" />
    <glyph glyph-name="T" unicode="T" horiz-adv-x="583" 
d="M335 617v-617h-87v617h-195v83h477v-83h-195z" />
    <glyph glyph-name="U" unicode="U" horiz-adv-x="689" 
d="M344 -12q-251 0 -251 275v437h87v-437q0 -107 44 -150t120 -43t120.5 43t44.5 150v437h87v-437q0 -275 -252 -275z" />
    <glyph glyph-name="V" unicode="V" horiz-adv-x="652" 
d="M288 0l-240 700h93l167 -506q18 -61 21 -71q4 19 20 71l162 506h93l-239 -700h-77z" />
    <glyph glyph-name="W" unicode="W" horiz-adv-x="840" 
d="M193 0l-143 700h91l86 -456q9 -45 13 -75q0 1 19 74l124 457h69l125 -456q12 -45 16 -68q4 26 13 69l95 455h89l-152 -700h-69l-135 478q-15 55 -18 69q-5 -27 -17 -69l-135 -478h-71z" />
    <glyph glyph-name="X" unicode="X" horiz-adv-x="606" 
d="M462 0l-161 283l-157 -283h-97l208 362l-193 338h98l144 -253l142 253h96l-192 -333l210 -367h-98z" />
    <glyph glyph-name="Y" unicode="Y" horiz-adv-x="641" 
d="M278 0v275l-238 425h98l183 -340l185 340h95l-236 -423v-277h-87z" />
    <glyph glyph-name="Z" unicode="Z" horiz-adv-x="650" 
d="M63 0v67l406 550h-383v83h496v-67l-404 -550h404v-83h-519z" />
    <glyph glyph-name="bracketleft" unicode="[" horiz-adv-x="376" 
d="M108 -130v842h220v-80h-133v-682h133v-80h-220z" />
    <glyph glyph-name="backslash" unicode="\" horiz-adv-x="490" 
d="M386 -130l-394 842h87l393 -842h-86z" />
    <glyph glyph-name="bracketright" unicode="]" horiz-adv-x="376" 
d="M268 -130h-220v80h133v682h-133v80h220v-842z" />
    <glyph glyph-name="asciicircum" unicode="^" horiz-adv-x="645" 
d="M471 356l-148 247l-148 -247h-90l196 356h82l197 -356h-89z" />
    <glyph glyph-name="underscore" unicode="_" horiz-adv-x="515" 
d="M3 -177v83h510v-83h-510z" />
    <glyph glyph-name="grave" unicode="`" horiz-adv-x="368" 
d="M210 576l-178 156h124l142 -156h-88z" />
    <glyph glyph-name="a" unicode="a" horiz-adv-x="526" 
d="M376 0v47q-63 -59 -145 -59q-81 0 -129.5 44.5t-48.5 127.5t55 126t136 43q74 0 132 -33v36q0 64 -28.5 89.5t-82.5 25.5q-77 0 -149 -51l-25 73q82 54 185 54q182 0 182 -184v-339h-82zM244 65q75 0 132 67v88q-55 34 -120 34q-53 0 -87 -24t-34 -70q0 -43 28.5 -69
t80.5 -26z" />
    <glyph glyph-name="b" unicode="b" horiz-adv-x="562" 
d="M301 -12q-73 0 -131 56v-44h-87v681l87 41v-255q51 56 128 56q96 0 154 -71t58 -196q0 -129 -55.5 -198.5t-153.5 -69.5zM289 69q65 0 98.5 49.5t33.5 137.5q0 91 -33.5 139t-98.5 48q-40 0 -72 -21t-47 -47v-237q19 -32 51 -50.5t68 -18.5z" />
    <glyph glyph-name="c" unicode="c" horiz-adv-x="500" 
d="M265 -12q-98 0 -155 70.5t-57 196.5t57.5 197t158.5 71q136 0 179 -119l-82 -30q-26 68 -96 68q-64 0 -96 -49t-32 -138q0 -88 32 -136.5t93 -48.5q80 0 104 76l81 -27q-19 -63 -67.5 -97t-119.5 -34z" />
    <glyph glyph-name="d" unicode="d" horiz-adv-x="562" 
d="M264 -12q-97 0 -154 72t-57 196q0 125 57.5 196t153.5 71q75 0 129 -48v206l87 41v-722h-87v40q-50 -52 -129 -52zM276 69q76 0 117 69v240q-41 65 -117 65q-65 0 -100 -48.5t-35 -138.5q0 -81 36.5 -134t98.5 -53z" />
    <glyph glyph-name="e" unicode="e" horiz-adv-x="538" 
d="M280 -12q-104 0 -165.5 74.5t-61.5 193.5q0 125 62 196t165 71q92 0 151.5 -61.5t59.5 -181.5q0 -28 -3 -58h-346q5 -70 43.5 -112.5t96.5 -42.5q64 0 110 46l53 -59q-66 -66 -165 -66zM141 296h262q-1 79 -37.5 114.5t-85.5 35.5q-59 0 -97 -37.5t-42 -112.5z" />
    <glyph glyph-name="f" unicode="f" horiz-adv-x="333" 
d="M199 435v-435h-87v435h-79v76h79v85q0 62 32 89t79 27q50 0 95 -24v-73q-41 19 -73 19q-28 0 -37 -14t-9 -39v-70h119v-76h-119z" />
    <glyph glyph-name="g" unicode="g" horiz-adv-x="563" 
d="M240 -207l-42 68q111 6 153.5 38.5t42.5 88.5v62q-45 -62 -132 -62q-90 0 -149.5 70t-59.5 198q0 124 58.5 195.5t153.5 71.5q80 0 129 -54v42h87v-490q0 -117 -62.5 -169t-178.5 -59zM280 69q32 0 63.5 19.5t50.5 52.5v234q-18 30 -51 49t-63 19q-68 0 -103.5 -48.5
t-35.5 -138.5q0 -87 38.5 -137t100.5 -50z" />
    <glyph glyph-name="h" unicode="h" horiz-adv-x="563" 
d="M83 0v682l87 40v-264q47 65 132 65q90 0 136.5 -54.5t46.5 -174.5v-294h-87v309q0 69 -29.5 101.5t-80.5 32.5q-118 0 -118 -132v-311h-87z" />
    <glyph glyph-name="i" unicode="i" horiz-adv-x="254" 
d="M127 604q-23 0 -38.5 16t-15.5 38q0 23 16 39.5t38 16.5q23 0 39 -16.5t16 -39.5t-16 -38.5t-39 -15.5zM84 0v511h87v-511h-87z" />
    <glyph glyph-name="j" unicode="j" horiz-adv-x="254" 
d="M128 604q-23 0 -39 15.5t-16 38.5t16 39.5t39 16.5t38.5 -16.5t15.5 -39.5t-15.5 -38.5t-38.5 -15.5zM-6 -214l-41 66q74 12 102.5 38t28.5 74v547h87v-515q0 -93 -38 -138q-48 -59 -139 -72z" />
    <glyph glyph-name="k" unicode="k" horiz-adv-x="531" 
d="M498 0h-95l-158 309l-75 -78v-231h-87v681l87 41v-387l166 176h104l-134 -139z" />
    <glyph glyph-name="l" unicode="l" horiz-adv-x="262" 
d="M88 0v681l87 41v-722h-87z" />
    <glyph glyph-name="m" unicode="m" horiz-adv-x="846" 
d="M682 0v310q0 133 -103 133q-49 0 -79.5 -37.5t-30.5 -98.5v-307h-87v310q0 133 -102 133q-51 0 -80.5 -35.5t-29.5 -96.5v-311h-87v511h87v-48q45 60 134 60q43 0 79.5 -19.5t57.5 -55.5q49 75 148 75q80 0 130 -49t50 -139v-335h-87z" />
    <glyph glyph-name="n" unicode="n" horiz-adv-x="563" 
d="M398 0v309q0 69 -29.5 101.5t-80.5 32.5q-118 0 -118 -132v-311h-87v511h87v-52q47 64 132 64q90 0 136.5 -54.5t46.5 -174.5v-294h-87z" />
    <glyph glyph-name="o" unicode="o" horiz-adv-x="558" 
d="M279 -12q-104 0 -165 71t-61 196t61 196.5t165 71.5t165 -71t61 -196t-61 -196.5t-165 -71.5zM279 69q65 0 101.5 49.5t36.5 137.5q0 87 -36.5 137t-101.5 50t-101.5 -49.5t-36.5 -138.5q0 -87 36.5 -136.5t101.5 -49.5z" />
    <glyph glyph-name="p" unicode="p" horiz-adv-x="564" 
d="M301 -12q-80 0 -131 60v-209l-87 -41v713h87v-43q55 55 131 55q97 0 154 -72t57 -195q0 -125 -58 -196.5t-153 -71.5zM290 69q64 0 98.5 48.5t34.5 138.5q0 85 -35.5 136t-97.5 51q-81 0 -120 -69v-236q53 -69 120 -69z" />
    <glyph glyph-name="q" unicode="q" horiz-adv-x="563" 
d="M265 -12q-97 0 -154.5 71t-57.5 196q0 124 56 196t153 72q71 0 132 -55v43h87v-672l-87 -39v248q-53 -60 -129 -60zM273 69q67 0 121 70v235q-41 69 -121 69q-61 0 -96.5 -53t-35.5 -135q0 -90 34 -138t98 -48z" />
    <glyph glyph-name="r" unicode="r" horiz-adv-x="389" 
d="M83 0v511h87v-67q36 79 121 79q48 0 79 -26l-13 -82q-32 22 -73 22q-45 0 -79.5 -35t-34.5 -114v-288h-87z" />
    <glyph glyph-name="s" unicode="s" horiz-adv-x="469" 
d="M234 -12q-55 0 -104.5 23.5t-80.5 62.5l62 53q57 -61 125 -61q43 0 69 16.5t26 48.5q0 24 -19 43.5t-39 29t-59 24.5q-78 29 -118 65t-40 95q0 62 48.5 98.5t123.5 36.5q107 0 172 -77l-60 -50q-47 49 -113 49q-39 0 -62 -15t-23 -42q0 -15 7.5 -27.5t27 -23.5t31 -16.5
t42.5 -17.5q81 -29 123.5 -66t42.5 -104q0 -68 -49 -106.5t-133 -38.5z" />
    <glyph glyph-name="t" unicode="t" horiz-adv-x="374" 
d="M221 -12q-108 0 -108 122v325h-83v76h83v169l87 42v-211h126v-76h-126v-296q0 -34 11 -52t42 -18q34 0 76 27l-10 -85q-44 -23 -98 -23z" />
    <glyph glyph-name="u" unicode="u" horiz-adv-x="563" 
d="M393 0v49q-47 -61 -129 -61q-93 0 -139.5 54t-46.5 174v295h87v-308q0 -69 29.5 -101.5t80.5 -32.5q118 0 118 132v310h87v-511h-87z" />
    <glyph glyph-name="v" unicode="v" horiz-adv-x="512" 
d="M220 0l-187 511h88l121 -341q13 -38 16 -50q3 12 16 50l119 341h87l-187 -511h-73z" />
    <glyph glyph-name="w" unicode="w" horiz-adv-x="715" 
d="M169 0l-131 511h86l78 -343q1 -6 5 -25t6 -29q2 14 13 54l96 343h72l96 -343l14 -56q2 9 5.5 28t5.5 28l77 343h86l-131 -511h-78l-93 303q-14 45 -19 67q-10 -42 -18 -67l-92 -303h-78z" />
    <glyph glyph-name="x" unicode="x" horiz-adv-x="516" 
d="M38 0l171 266l-158 245h97l81 -124q23 -37 29 -49q24 40 30 49l80 124h98l-159 -245l172 -266h-98l-94 145q-11 17 -29 49q-9 -18 -29 -49l-94 -145h-97z" />
    <glyph glyph-name="y" unicode="y" horiz-adv-x="530" 
d="M144 -194l78 207l-189 498h87l127 -348q7 -17 16 -49q9 32 16 49l129 348h89l-265 -705h-88z" />
    <glyph glyph-name="z" unicode="z" horiz-adv-x="505" 
d="M63 0v64l266 370h-246v77h355v-62l-267 -371h266v-78h-374z" />
    <glyph glyph-name="braceleft" unicode="{" horiz-adv-x="372" 
d="M330 -130q-93 2 -146.5 61t-53.5 171v55q0 44 -18 71t-50 27h-9v74h9q32 0 50 26.5t18 70.5v54q0 112 53.5 171t146.5 61v-75q-56 -2 -84 -37.5t-28 -100.5v-61q0 -77 -24.5 -108.5t-77.5 -38.5q53 -6 77.5 -37t24.5 -110v-60q0 -135 112 -139v-75z" />
    <glyph glyph-name="bar" unicode="|" horiz-adv-x="272" 
d="M93 -378v1440h87v-1440h-87z" />
    <glyph glyph-name="braceright" unicode="}" horiz-adv-x="372" 
d="M43 -130v75q111 5 111 139v60q0 79 24.5 110t77.5 37q-53 7 -77.5 38.5t-24.5 108.5v61q0 133 -111 138v75q92 -2 145.5 -61t53.5 -171v-54q0 -44 18.5 -70.5t49.5 -26.5h10v-74h-10q-31 0 -49.5 -27t-18.5 -71v-55q0 -112 -53.5 -171t-145.5 -61z" />
    <glyph glyph-name="asciitilde" unicode="~" horiz-adv-x="645" 
d="M428 271q-45 0 -114.5 30t-98.5 30q-30 0 -48.5 -16.5t-20.5 -43.5h-57q0 62 31.5 103t97.5 41q46 0 115.5 -30.5t96.5 -30.5q30 0 48.5 17t20.5 44h58q0 -62 -31.5 -103t-97.5 -41z" />
    <glyph glyph-name="uni007F" 
 />
    <glyph glyph-name="uni00A0" unicode="&#xa0;" 
 />
    <glyph glyph-name="exclamdown" unicode="&#xa1;" horiz-adv-x="271" 
d="M137 387q-29 0 -49 20t-20 48t20 48t49 20t49 -20.5t20 -47.5t-20 -47.5t-49 -20.5zM180 -200h-88v218l30 299h28l30 -299v-218z" />
    <glyph glyph-name="cent" unicode="&#xa2;" horiz-adv-x="515" 
d="M221 -12v100q-77 17 -120 85.5t-43 176.5t43 175.5t120 85.5v101h85v-97q112 -13 149 -118l-84 -30q-25 66 -92 66q-64 0 -98 -48t-34 -135t33 -135t94 -48q37 0 63.5 20t36.5 56l83 -27q-35 -119 -151 -131v-97h-85z" />
    <glyph glyph-name="sterling" unicode="&#xa3;" horiz-adv-x="597" 
d="M88 0v92q44 20 64.5 72t23.5 108v20h-93v74h73q-2 4 -8 16.5t-8.5 17.5t-7.5 17t-7.5 21t-5.5 21.5t-4 26.5t-1 29q0 82 59 139.5t169 57.5q117 0 206 -67l-34 -82q-23 19 -38.5 30t-52.5 23.5t-81 12.5q-67 0 -101.5 -34t-34.5 -80q0 -37 23.5 -90.5t24.5 -58.5h165v-74
h-151v-18q-5 -111 -90 -191h381v-83h-471z" />
    <glyph glyph-name="currency" unicode="&#xa4;" horiz-adv-x="633" 
d="M316 86q-83 0 -141 41l-66 -67l-65 66l69 70q-33 56 -33 137q0 79 33 139l-69 69l62 64l67 -67q61 43 143 43q83 0 142 -42l66 66l65 -67l-67 -67q32 -61 32 -138q0 -82 -35 -140l70 -70l-62 -63l-68 68q-59 -42 -143 -42zM316 170q67 0 108.5 45.5t41.5 117.5
q0 71 -41.5 118t-108.5 47q-65 0 -106.5 -47t-41.5 -118q0 -72 41 -117.5t107 -45.5z" />
    <glyph glyph-name="yen" unicode="&#xa5;" horiz-adv-x="566" 
d="M327 319h147v-75h-148v-66h148v-75h-148v-103h-87v103h-155v75h155v66h-155v75h153l-214 381h98l161 -299l166 299h95z" />
    <glyph glyph-name="brokenbar" unicode="&#xa6;" horiz-adv-x="272" 
d="M93 366v459h87v-459h-87zM93 -225v459h87v-459h-87z" />
    <glyph glyph-name="section" unicode="&#xa7;" horiz-adv-x="533" 
d="M270 -120q-71 0 -127 25.5t-85 63.5l64 57q57 -62 146 -62q117 0 117 79q0 19 -9.5 35t-31.5 30t-37.5 22t-49 21t-44.5 18q-37 16 -55 25.5t-42.5 27.5t-35 41.5t-10.5 55.5q0 37 19.5 65.5t51.5 42.5q-71 43 -71 134q0 70 55 110.5t138 40.5q127 0 193 -81l-67 -53
q-47 49 -126 49q-102 0 -102 -69q0 -12 5 -23t17.5 -21t23 -17t33.5 -17t35.5 -15t41.5 -16q31 -12 48.5 -19.5t41.5 -22.5t37 -30.5t22.5 -39.5t9.5 -54q0 -77 -61 -107q61 -47 61 -130q0 -79 -54.5 -122.5t-151.5 -43.5zM340 215q45 19 45 62q0 16 -9 30t-20 23t-36 20.5
t-40 17t-49 17.5q-33 -5 -51.5 -21.5t-18.5 -41.5q0 -11 5 -21t15.5 -18.5t21.5 -15t29.5 -14t32.5 -12.5t37.5 -13t37.5 -13z" />
    <glyph glyph-name="dieresis" unicode="&#xa8;" horiz-adv-x="368" 
d="M98 599q-23 0 -39 16t-16 39t16 39t39 16t39 -16t16 -39t-16 -39t-39 -16zM271 599q-23 0 -39 16t-16 39t16 39t39 16t39 -16t16 -39t-16 -39t-39 -16z" />
    <glyph glyph-name="copyright" unicode="&#xa9;" horiz-adv-x="859" 
d="M430 -12q-154 0 -258 104t-104 258t104 258t258 104t258 -104t104 -258t-104 -258t-258 -104zM430 51q127 0 210.5 85.5t83.5 213.5t-83.5 213.5t-210.5 85.5t-211 -85.5t-84 -213.5t84 -213.5t211 -85.5zM435 135q-88 0 -133.5 60.5t-45.5 157.5q0 93 47 155.5t136 62.5
q54 0 92 -27.5t55 -72.5l-64 -29q-28 60 -88 60q-106 0 -106 -149q0 -150 108 -150q67 0 90 66l62 -23q-17 -52 -57 -81.5t-96 -29.5z" />
    <glyph glyph-name="ordfeminine" unicode="&#xaa;" horiz-adv-x="450" 
d="M309 283v30q-48 -40 -115 -40q-68 0 -109.5 37t-41.5 105q0 67 49 103.5t114 36.5q56 0 103 -22v16q0 51 -21.5 72t-70.5 21q-69 0 -117 -38l-22 67q55 41 149 41q32 0 56 -5t50 -20t40 -48t14 -83v-273h-78zM206 342q27 0 56 13t47 30v79q-42 22 -92 22q-39 0 -66 -17.5
t-27 -53.5q0 -34 22 -53.5t60 -19.5z" />
    <glyph glyph-name="guillemotleft" unicode="&#xab;" horiz-adv-x="515" 
d="M190 0l-152 256l152 255h95l-152 -255l152 -256h-95zM396 0l-152 256l152 255h97l-152 -255l152 -256h-97z" />
    <glyph glyph-name="logicalnot" unicode="&#xac;" horiz-adv-x="645" 
d="M470 172v213h-382v83h470v-296h-88z" />
    <glyph glyph-name="uni00AD" unicode="&#xad;" horiz-adv-x="399" 
d="M83 256v84h234v-84h-234z" />
    <glyph glyph-name="registered" unicode="&#xae;" horiz-adv-x="859" 
d="M430 -12q-154 0 -258 104t-104 258t104 258t258 104t258 -104t104 -258t-104 -258t-258 -104zM430 51q127 0 210.5 85.5t83.5 213.5t-83.5 213.5t-210.5 85.5t-211 -85.5t-84 -213.5t84 -213.5t211 -85.5zM282 138v423h187q65 0 96 -37t31 -87q0 -43 -25.5 -78.5
t-70.5 -45.5l99 -175h-80l-90 171h-77v-171h-70zM352 372h118q28 0 42 18t14 46q0 24 -13.5 41.5t-42.5 17.5h-118v-123z" />
    <glyph glyph-name="macron" unicode="&#xaf;" horiz-adv-x="368" 
d="M19 603v74h330v-74h-330z" />
    <glyph glyph-name="degree" unicode="&#xb0;" horiz-adv-x="409" 
d="M205 452q-72 0 -122.5 49t-50.5 121q0 73 50 121.5t123 48.5t122.5 -48.5t49.5 -121.5q0 -72 -50 -121t-122 -49zM205 534q36 0 59.5 25t23.5 63q0 39 -23.5 63.5t-59.5 24.5t-60.5 -25t-24.5 -63q0 -37 25 -62.5t60 -25.5z" />
    <glyph glyph-name="plusminus" unicode="&#xb1;" horiz-adv-x="645" 
d="M366 363v-161h-88v161h-190v84h190v161h88v-161h192v-84h-192zM88 0v84h470v-84h-470z" />
    <glyph glyph-name="uni00B2" unicode="&#xb2;" horiz-adv-x="364" 
d="M33 444q0 79 37.5 128.5t109.5 92.5q32 19 48 37.5t16 47.5q0 23 -17.5 41t-50.5 18q-63 0 -77 -68l-66 20q11 50 50 81t97 31q62 0 100 -34.5t38 -91.5q0 -51 -27.5 -82t-87.5 -65q-68 -39 -89 -90h203v-66h-284z" />
    <glyph glyph-name="uni00B3" unicode="&#xb3;" horiz-adv-x="357" 
d="M176 435q-56 0 -95.5 30t-57.5 83l69 23q23 -72 85 -72q32 0 51 17.5t19 46.5q0 27 -18 46t-49 19h-33v64h26q29 0 43.5 17t14.5 42t-15.5 41.5t-42.5 16.5q-49 0 -72 -56l-66 23q18 44 55 70.5t86 26.5q58 0 94 -33t36 -84q0 -26 -14.5 -51.5t-38.5 -38.5
q31 -12 50 -38.5t19 -61.5q0 -60 -40.5 -95.5t-105.5 -35.5z" />
    <glyph glyph-name="acute" unicode="&#xb4;" horiz-adv-x="368" 
d="M72 576l142 156h124l-178 -156h-88z" />
    <glyph glyph-name="uni00B5" unicode="&#xb5;" horiz-adv-x="565" 
d="M396 0v50q-55 -62 -131 -62q-64 0 -98 51v-198l-87 -41v711h87v-308q0 -77 27.5 -105.5t83.5 -28.5q118 0 118 132v310h87v-511h-87z" />
    <glyph glyph-name="paragraph" unicode="&#xb6;" horiz-adv-x="631" 
d="M274 -200v477q-125 0 -185.5 64t-60.5 149q0 41 12 77t38 66.5t71.5 48.5t107.5 18h286v-787l-87 -40v742h-94v-776z" />
    <glyph glyph-name="periodcentered" unicode="&#xb7;" horiz-adv-x="225" 
d="M112 281q-29 0 -49 20.5t-20 47.5q0 28 20 48.5t49 20.5t49.5 -21t20.5 -48t-20.5 -47.5t-49.5 -20.5z" />
    <glyph glyph-name="cedilla" unicode="&#xb8;" horiz-adv-x="368" 
d="M184 -237q-59 0 -94 33l49 34q10 -13 37 -13q22 0 37 13.5t15 34.5q0 19 -17.5 32t-40.5 13q-24 0 -38 -7l-16 20l69 87h49l-38 -63q55 0 81.5 -24t26.5 -59q0 -44 -33.5 -72.5t-86.5 -28.5z" />
    <glyph glyph-name="uni00B9" unicode="&#xb9;" horiz-adv-x="200" 
d="M69 444v329h-51v52q51 0 68 41h54v-422h-71z" />
    <glyph glyph-name="ordmasculine" unicode="&#xba;" horiz-adv-x="467" 
d="M233 273q-88 0 -139 58t-51 161t51 161.5t139 58.5t139.5 -58.5t51.5 -161.5t-51 -161t-140 -58zM233 348q54 0 82.5 37.5t28.5 106.5q0 70 -28.5 107.5t-82.5 37.5q-51 0 -80.5 -38t-29.5 -107q0 -68 29.5 -106t80.5 -38z" />
    <glyph glyph-name="guillemotright" unicode="&#xbb;" horiz-adv-x="515" 
d="M23 0l152 256l-152 255h95l152 -255l-152 -256h-95zM229 0l152 256l-152 255h97l152 -255l-152 -256h-97z" />
    <glyph glyph-name="onequarter" unicode="&#xbc;" horiz-adv-x="680" 
d="M12 -12l478 724h82l-478 -724h-82zM76 283v329h-51v52q52 0 69 41h54v-422h-72zM526 0v97h-211v42l219 284h62v-260h53v-66h-53v-97h-70zM526 163v157l-119 -157h119z" />
    <glyph glyph-name="onehalf" unicode="&#xbd;" horiz-adv-x="727" 
d="M12 -12l478 724h82l-478 -724h-82zM76 283v329h-51v52q52 0 69 41h54v-422h-72zM396 0q0 79 37.5 128.5t109.5 92.5q32 19 48 37.5t16 47.5q0 23 -17.5 41t-50.5 18q-63 0 -77 -68l-66 20q11 50 50 81t97 31q62 0 100 -34.5t38 -91.5q0 -51 -27.5 -82t-87.5 -65
q-68 -39 -89 -89h203v-67h-284z" />
    <glyph glyph-name="threequarters" unicode="&#xbe;" horiz-adv-x="812" 
d="M176 273q-56 0 -95.5 30t-57.5 83l69 23q23 -72 85 -72q32 0 51 17.5t19 46.5q0 27 -18 46.5t-49 19.5h-33v64h26q29 0 43.5 17t14.5 42t-15.5 41.5t-42.5 16.5q-49 0 -72 -56l-66 23q18 44 55 70.5t86 26.5q58 0 94 -33t36 -84q0 -26 -14.5 -51.5t-38.5 -38.5
q31 -12 50 -38.5t19 -61.5q0 -61 -40.5 -96.5t-105.5 -35.5zM144 -12l478 724h82l-478 -724h-82zM657 0v97h-211v42l220 284h62v-260h53v-66h-53v-97h-71zM657 163v157l-119 -157h119z" />
    <glyph glyph-name="questiondown" unicode="&#xbf;" horiz-adv-x="514" 
d="M269 387q-29 0 -49 19.5t-20 47.5t20 48.5t49 20.5q28 0 49.5 -21t21.5 -48t-21 -47t-50 -20zM254 -200q-100 0 -155.5 54t-55.5 140q0 45 18.5 80t45 58.5t53 46.5t45 56.5t18.5 76.5v20h88v-21q0 -45 -13.5 -81t-33.5 -56.5t-43.5 -41.5t-43.5 -37.5t-33.5 -42.5
t-13.5 -58q0 -51 32.5 -82.5t91.5 -31.5q68 0 106 39t38 109h88q0 -104 -64.5 -166t-167.5 -62z" />
    <glyph glyph-name="Agrave" unicode="&#xc0;" horiz-adv-x="679" 
d="M365 765l-178 156h124l142 -156h-88zM539 0l-60 171h-278l-59 -171h-91l248 700h81l248 -700h-89zM452 248l-90 259q-17 49 -22 71q-11 -39 -22 -71l-91 -259h225z" />
    <glyph glyph-name="Aacute" unicode="&#xc1;" horiz-adv-x="679" 
d="M237 765l142 156h124l-178 -156h-88zM539 0l-60 171h-278l-59 -171h-91l248 700h81l248 -700h-89zM452 248l-90 259q-17 49 -22 71q-11 -39 -22 -71l-91 -259h225z" />
    <glyph glyph-name="Acircumflex" unicode="&#xc2;" horiz-adv-x="679" 
d="M445 765l-105 90l-105 -90h-83l147 156h82l146 -156h-82zM539 0l-60 171h-278l-59 -171h-91l248 700h81l248 -700h-89zM452 248l-90 259q-17 49 -22 71q-11 -39 -22 -71l-91 -259h225z" />
    <glyph glyph-name="Atilde" unicode="&#xc3;" horiz-adv-x="679" 
d="M418 784q-38 0 -90.5 24.5t-74.5 24.5q-20 0 -33 -11.5t-14 -33.5h-45q0 120 99 120q38 0 90.5 -25t74.5 -25q19 0 32.5 12t14.5 34h45q0 -120 -99 -120zM539 0l-60 171h-278l-59 -171h-91l248 700h81l248 -700h-89zM452 248l-90 259q-17 49 -22 71q-11 -39 -22 -71
l-91 -259h225z" />
    <glyph glyph-name="Adieresis" unicode="&#xc4;" horiz-adv-x="679" 
d="M253 788q-23 0 -39 16t-16 39t16 39t39 16t39 -16t16 -39t-16 -39t-39 -16zM426 788q-23 0 -39 16t-16 39t16 39t39 16t39 -16t16 -39t-16 -39t-39 -16zM539 0l-60 171h-278l-59 -171h-91l248 700h81l248 -700h-89zM452 248l-90 259q-17 49 -22 71q-11 -39 -22 -71
l-91 -259h225z" />
    <glyph glyph-name="Aring" unicode="&#xc5;" horiz-adv-x="679" 
d="M51 0l228 644q-57 36 -57 101q0 48 35 82t84 34q48 0 83.5 -34t35.5 -82q0 -32 -16.5 -59t-43.5 -42l228 -644h-89l-60 171h-278l-59 -171h-91zM341 691q21 0 35.5 15.5t14.5 38.5q0 22 -14.5 37.5t-35.5 15.5t-35.5 -15.5t-14.5 -37.5q0 -23 14.5 -38.5t35.5 -15.5z
M227 248h225l-90 259q-17 49 -22 71q-11 -39 -22 -71z" />
    <glyph glyph-name="AE" unicode="&#xc6;" horiz-adv-x="854" 
d="M-14 0l407 700h383v-82h-273v-215h171v-82h-171v-238h295v-83h-382v171h-237l-97 -171h-96zM223 249h193v345q-11 -24 -36 -68z" />
    <glyph glyph-name="Ccedilla" unicode="&#xc7;" horiz-adv-x="647" 
d="M345 -237q-59 0 -94 33l49 34q10 -13 37 -13q22 0 37 13.5t15 34.5q0 19 -17.5 32t-40.5 13q-24 0 -38 -7l-16 20l53 66q-91 8 -152 63.5t-85.5 131t-24.5 166.5q0 69 16.5 131.5t50 115t91 84t132.5 31.5q164 0 226 -126l-78 -40q-28 42 -61.5 63.5t-86.5 21.5
q-71 0 -118 -45t-64.5 -105.5t-17.5 -130.5q0 -115 51 -197.5t149 -82.5t152 89l80 -30q-60 -129 -208 -140l-25 -42q55 0 81.5 -24t26.5 -59q0 -44 -33.5 -72.5t-86.5 -28.5z" />
    <glyph glyph-name="Egrave" unicode="&#xc8;" horiz-adv-x="599" 
d="M302 765l-178 156h124l142 -156h-88zM98 0v700h416v-82h-329v-215h217v-82h-217v-238h351v-83h-438z" />
    <glyph glyph-name="Eacute" unicode="&#xc9;" horiz-adv-x="599" 
d="M197 765l142 156h124l-178 -156h-88zM98 0v700h416v-82h-329v-215h217v-82h-217v-238h351v-83h-438z" />
    <glyph glyph-name="Ecircumflex" unicode="&#xca;" horiz-adv-x="599" 
d="M413 765l-105 90l-105 -90h-83l147 156h82l146 -156h-82zM98 0v700h416v-82h-329v-215h217v-82h-217v-238h351v-83h-438z" />
    <glyph glyph-name="Edieresis" unicode="&#xcb;" horiz-adv-x="599" 
d="M223 788q-23 0 -39 16t-16 39t16 39t39 16t39 -16t16 -39t-16 -39t-39 -16zM396 788q-23 0 -39 16t-16 39t16 39t39 16t39 -16t16 -39t-16 -39t-39 -16zM98 0v700h416v-82h-329v-215h217v-82h-217v-238h351v-83h-438z" />
    <glyph glyph-name="Igrave" unicode="&#xcc;" horiz-adv-x="287" 
d="M161 765l-178 156h124l142 -156h-88zM100 0v700h87v-700h-87z" />
    <glyph glyph-name="Iacute" unicode="&#xcd;" horiz-adv-x="287" 
d="M31 765l142 156h124l-178 -156h-88zM100 0v700h87v-700h-87z" />
    <glyph glyph-name="Icircumflex" unicode="&#xce;" horiz-adv-x="287" 
d="M249 765l-105 90l-105 -90h-83l147 156h82l146 -156h-82zM100 0v700h87v-700h-87z" />
    <glyph glyph-name="Idieresis" unicode="&#xcf;" horiz-adv-x="287" 
d="M57 788q-23 0 -39 16t-16 39t16 39t39 16t39 -16t16 -39t-16 -39t-39 -16zM230 788q-23 0 -39 16t-16 39t16 39t39 16t39 -16t16 -39t-16 -39t-39 -16zM100 0v700h87v-700h-87z" />
    <glyph glyph-name="Eth" unicode="&#xd0;" horiz-adv-x="682" 
d="M98 310h-68v79h68v311h191q86 0 151 -30t102 -81t54.5 -111t17.5 -128q0 -65 -16.5 -123.5t-52 -111t-102.5 -84t-158 -31.5h-187v310zM296 81q62 0 108.5 23.5t71.5 64t36.5 85.5t11.5 96q0 72 -21 131t-72 99t-124 40h-122v-231h153v-79h-153v-229h111z" />
    <glyph glyph-name="Ntilde" unicode="&#xd1;" horiz-adv-x="708" 
d="M437 784q-38 0 -90.5 24.5t-74.5 24.5q-20 0 -33 -11.5t-14 -33.5h-45q0 120 99 120q38 0 90.5 -25t74.5 -25q19 0 32.5 12t14.5 34h45q0 -120 -99 -120zM610 0h-84l-315 500q-18 29 -28 49q2 -30 2 -49v-500h-87v700h88l310 -498q16 -26 29 -52q-2 36 -2 51v499h87v-700
z" />
    <glyph glyph-name="Ograve" unicode="&#xd2;" horiz-adv-x="730" 
d="M380 766l-178 156h124l142 -156h-88zM365 -12q-79 0 -138.5 31.5t-93 85t-49.5 115t-16 130.5t16 130.5t49.5 115t93 85t138.5 31.5q64 0 115.5 -21t85 -56t56 -83t32 -98t9.5 -104t-9.5 -104t-32 -98t-56 -83t-85 -56t-115.5 -21zM365 70q55 0 97 25.5t65 67.5t34 89.5
t11 97.5q0 74 -18.5 134.5t-67 103.5t-121.5 43q-55 0 -96.5 -25.5t-64.5 -68t-34.5 -89.5t-11.5 -98q0 -54 11 -102t34.5 -89t65 -65t96.5 -24z" />
    <glyph glyph-name="Oacute" unicode="&#xd3;" horiz-adv-x="730" 
d="M252 765l142 156h124l-178 -156h-88zM365 -12q-79 0 -138.5 31.5t-93 85t-49.5 115t-16 130.5t16 130.5t49.5 115t93 85t138.5 31.5q64 0 115.5 -21t85 -56t56 -83t32 -98t9.5 -104t-9.5 -104t-32 -98t-56 -83t-85 -56t-115.5 -21zM365 70q55 0 97 25.5t65 67.5t34 89.5
t11 97.5q0 74 -18.5 134.5t-67 103.5t-121.5 43q-55 0 -96.5 -25.5t-64.5 -68t-34.5 -89.5t-11.5 -98q0 -54 11 -102t34.5 -89t65 -65t96.5 -24z" />
    <glyph glyph-name="Ocircumflex" unicode="&#xd4;" horiz-adv-x="730" 
d="M470 765l-105 90l-105 -90h-83l147 156h82l146 -156h-82zM365 -12q-79 0 -138.5 31.5t-93 85t-49.5 115t-16 130.5t16 130.5t49.5 115t93 85t138.5 31.5q64 0 115.5 -21t85 -56t56 -83t32 -98t9.5 -104t-9.5 -104t-32 -98t-56 -83t-85 -56t-115.5 -21zM365 70
q55 0 97 25.5t65 67.5t34 89.5t11 97.5q0 74 -18.5 134.5t-67 103.5t-121.5 43q-55 0 -96.5 -25.5t-64.5 -68t-34.5 -89.5t-11.5 -98q0 -54 11 -102t34.5 -89t65 -65t96.5 -24z" />
    <glyph glyph-name="Otilde" unicode="&#xd5;" horiz-adv-x="730" 
d="M443 784q-38 0 -90.5 24.5t-74.5 24.5q-20 0 -33 -11.5t-14 -33.5h-45q0 120 99 120q38 0 90.5 -25t74.5 -25q19 0 32.5 12t14.5 34h45q0 -120 -99 -120zM365 -12q-79 0 -138.5 31.5t-93 85t-49.5 115t-16 130.5t16 130.5t49.5 115t93 85t138.5 31.5q64 0 115.5 -21
t85 -56t56 -83t32 -98t9.5 -104t-9.5 -104t-32 -98t-56 -83t-85 -56t-115.5 -21zM365 70q55 0 97 25.5t65 67.5t34 89.5t11 97.5q0 74 -18.5 134.5t-67 103.5t-121.5 43q-55 0 -96.5 -25.5t-64.5 -68t-34.5 -89.5t-11.5 -98q0 -54 11 -102t34.5 -89t65 -65t96.5 -24z" />
    <glyph glyph-name="Odieresis" unicode="&#xd6;" horiz-adv-x="730" 
d="M278 788q-23 0 -39 16t-16 39t16 39t39 16t39 -16t16 -39t-16 -39t-39 -16zM451 788q-23 0 -39 16t-16 39t16 39t39 16t39 -16t16 -39t-16 -39t-39 -16zM365 -12q-79 0 -138.5 31.5t-93 85t-49.5 115t-16 130.5t16 130.5t49.5 115t93 85t138.5 31.5q64 0 115.5 -21
t85 -56t56 -83t32 -98t9.5 -104t-9.5 -104t-32 -98t-56 -83t-85 -56t-115.5 -21zM365 70q55 0 97 25.5t65 67.5t34 89.5t11 97.5q0 74 -18.5 134.5t-67 103.5t-121.5 43q-55 0 -96.5 -25.5t-64.5 -68t-34.5 -89.5t-11.5 -98q0 -54 11 -102t34.5 -89t65 -65t96.5 -24z" />
    <glyph glyph-name="multiply" unicode="&#xd7;" horiz-adv-x="645" 
d="M324 282l-165 -166l-63 63l166 165l-165 164l60 60l165 -164l164 165l63 -63l-166 -164l165 -165l-60 -60z" />
    <glyph glyph-name="Oslash" unicode="&#xd8;" horiz-adv-x="725" 
d="M74 -12l68 101q-77 98 -77 261q0 54 9.5 104t32 98t56 83t85 56t115.5 21q96 0 166 -49l33 49h90l-69 -101q77 -98 77 -261q0 -69 -16 -130.5t-49.5 -115t-93 -85t-138.5 -31.5q-98 0 -167 50l-34 -50h-88zM196 169l285 422q-50 40 -118 40q-55 0 -97 -25.5t-65 -68
t-34 -89.5t-11 -98q0 -111 40 -181zM363 70q55 0 96.5 25.5t64.5 67.5t34.5 89.5t11.5 97.5q0 109 -41 181l-285 -422q49 -39 119 -39z" />
    <glyph glyph-name="Ugrave" unicode="&#xd9;" horiz-adv-x="689" 
d="M363 765l-178 156h124l142 -156h-88zM344 -12q-251 0 -251 275v437h87v-437q0 -107 44 -150t120 -43t120.5 43t44.5 150v437h87v-437q0 -275 -252 -275z" />
    <glyph glyph-name="Uacute" unicode="&#xda;" horiz-adv-x="689" 
d="M246 765l142 156h124l-178 -156h-88zM344 -12q-251 0 -251 275v437h87v-437q0 -107 44 -150t120 -43t120.5 43t44.5 150v437h87v-437q0 -275 -252 -275z" />
    <glyph glyph-name="Ucircumflex" unicode="&#xdb;" horiz-adv-x="689" 
d="M450 765l-105 90l-105 -90h-83l147 156h82l146 -156h-82zM344 -12q-251 0 -251 275v437h87v-437q0 -107 44 -150t120 -43t120.5 43t44.5 150v437h87v-437q0 -275 -252 -275z" />
    <glyph glyph-name="Udieresis" unicode="&#xdc;" horiz-adv-x="689" 
d="M258 788q-23 0 -39 16t-16 39t16 39t39 16t39 -16t16 -39t-16 -39t-39 -16zM431 788q-23 0 -39 16t-16 39t16 39t39 16t39 -16t16 -39t-16 -39t-39 -16zM344 -12q-251 0 -251 275v437h87v-437q0 -107 44 -150t120 -43t120.5 43t44.5 150v437h87v-437q0 -275 -252 -275z
" />
    <glyph glyph-name="Yacute" unicode="&#xdd;" horiz-adv-x="641" 
d="M222 765l142 156h124l-178 -156h-88zM278 0v275l-238 425h98l183 -340l185 340h95l-236 -423v-277h-87z" />
    <glyph glyph-name="Thorn" unicode="&#xde;" horiz-adv-x="632" 
d="M98 0v700h87v-134h181q61 0 106.5 -18t70.5 -48.5t37 -66.5t12 -77q0 -83 -56.5 -146.5t-169.5 -63.5h-181v-146h-87zM372 228q68 0 100.5 37.5t32.5 90.5q0 50 -31 89t-102 39h-187v-256h187z" />
    <glyph glyph-name="germandbls" unicode="&#xdf;" horiz-adv-x="562" 
d="M73 -202v678q0 82 31 137t75 77t98 22q90 0 146 -50.5t56 -132.5q0 -50 -24 -88.5t-71 -55.5q63 -20 97 -66.5t34 -108.5q0 -101 -59.5 -161.5t-151.5 -60.5q-52 0 -87 16l43 70q18 -6 45 -6q47 0 84 36t37 103q0 56 -36.5 94.5t-113.5 38.5h-13v80h13q53 0 83.5 26
t30.5 79q0 50 -29 79t-83 29q-53 0 -85.5 -38t-32.5 -116v-639z" />
    <glyph glyph-name="agrave" unicode="&#xe0;" horiz-adv-x="526" 
d="M276 576l-178 156h124l142 -156h-88zM376 0v47q-63 -59 -145 -59q-81 0 -129.5 44.5t-48.5 127.5t55 126t136 43q74 0 132 -33v36q0 64 -28.5 89.5t-82.5 25.5q-77 0 -149 -51l-25 73q82 54 185 54q182 0 182 -184v-339h-82zM244 65q75 0 132 67v88q-55 34 -120 34
q-53 0 -87 -24t-34 -70q0 -43 28.5 -69t80.5 -26z" />
    <glyph glyph-name="aacute" unicode="&#xe1;" horiz-adv-x="526" 
d="M163 576l142 156h124l-178 -156h-88zM376 0v47q-63 -59 -145 -59q-81 0 -129.5 44.5t-48.5 127.5t55 126t136 43q74 0 132 -33v36q0 64 -28.5 89.5t-82.5 25.5q-77 0 -149 -51l-25 73q82 54 185 54q182 0 182 -184v-339h-82zM244 65q75 0 132 67v88q-55 34 -120 34
q-53 0 -87 -24t-34 -70q0 -43 28.5 -69t80.5 -26z" />
    <glyph glyph-name="acircumflex" unicode="&#xe2;" horiz-adv-x="526" 
d="M381 576l-105 90l-105 -90h-83l147 156h82l146 -156h-82zM376 0v47q-63 -59 -145 -59q-81 0 -129.5 44.5t-48.5 127.5t55 126t136 43q74 0 132 -33v36q0 64 -28.5 89.5t-82.5 25.5q-77 0 -149 -51l-25 73q82 54 185 54q182 0 182 -184v-339h-82zM244 65q75 0 132 67v88
q-55 34 -120 34q-53 0 -87 -24t-34 -70q0 -43 28.5 -69t80.5 -26z" />
    <glyph glyph-name="atilde" unicode="&#xe3;" horiz-adv-x="526" 
d="M354 595q-38 0 -90.5 24.5t-74.5 24.5q-20 0 -33 -11.5t-14 -33.5h-45q0 120 99 120q38 0 90.5 -25t74.5 -25q19 0 32.5 12t14.5 34h45q0 -120 -99 -120zM376 0v47q-63 -59 -145 -59q-81 0 -129.5 44.5t-48.5 127.5t55 126t136 43q74 0 132 -33v36q0 64 -28.5 89.5
t-82.5 25.5q-77 0 -149 -51l-25 73q82 54 185 54q182 0 182 -184v-339h-82zM244 65q75 0 132 67v88q-55 34 -120 34q-53 0 -87 -24t-34 -70q0 -43 28.5 -69t80.5 -26z" />
    <glyph glyph-name="adieresis" unicode="&#xe4;" horiz-adv-x="526" 
d="M189 599q-23 0 -39 16t-16 39t16 39t39 16t39 -16t16 -39t-16 -39t-39 -16zM362 599q-23 0 -39 16t-16 39t16 39t39 16t39 -16t16 -39t-16 -39t-39 -16zM376 0v47q-63 -59 -145 -59q-81 0 -129.5 44.5t-48.5 127.5t55 126t136 43q74 0 132 -33v36q0 64 -28.5 89.5
t-82.5 25.5q-77 0 -149 -51l-25 73q82 54 185 54q182 0 182 -184v-339h-82zM244 65q75 0 132 67v88q-55 34 -120 34q-53 0 -87 -24t-34 -70q0 -43 28.5 -69t80.5 -26z" />
    <glyph glyph-name="aring" unicode="&#xe5;" horiz-adv-x="526" 
d="M277 571q-49 0 -84 35t-35 83t35 82t84 34q48 0 83.5 -34t35.5 -82t-35.5 -83t-83.5 -35zM277 635q21 0 35.5 15.5t14.5 38.5q0 24 -14.5 38.5t-35.5 14.5t-36 -15t-15 -38t15 -38.5t36 -15.5zM376 0v47q-63 -59 -145 -59q-81 0 -129.5 44.5t-48.5 127.5t55 126t136 43
q74 0 132 -33v36q0 64 -28.5 89.5t-82.5 25.5q-77 0 -149 -51l-25 73q82 54 185 54q182 0 182 -184v-339h-82zM244 65q75 0 132 67v88q-55 34 -120 34q-53 0 -87 -24t-34 -70q0 -43 28.5 -69t80.5 -26z" />
    <glyph glyph-name="ae" unicode="&#xe6;" horiz-adv-x="857" 
d="M231 -12q-81 0 -129.5 44.5t-48.5 127.5t55 126t136 43q74 0 132 -33v36q0 61 -27.5 88t-83.5 27q-77 0 -149 -51l-25 73q82 54 185 54q112 0 154 -76q61 76 168 76q95 0 153.5 -63t58.5 -180q0 -28 -3 -58h-346q6 -72 44.5 -113.5t94.5 -41.5q65 0 111 46l53 -59
q-66 -66 -166 -66q-116 0 -180 95q-38 -49 -89 -72t-98 -23zM460 298h262q-1 78 -38 113t-85 35q-59 0 -97 -37t-42 -111zM244 65q42 0 78.5 22.5t60.5 55.5q-5 34 -7 77q-58 34 -120 34q-53 0 -87 -24t-34 -70q0 -43 28.5 -69t80.5 -26z" />
    <glyph glyph-name="ccedilla" unicode="&#xe7;" horiz-adv-x="500" 
d="M256 -237q-59 0 -94 33l49 34q10 -13 37 -13q22 0 37 13.5t15 34.5q0 19 -17.5 32t-40.5 13q-24 0 -38 -7l-16 20l53 67q-88 8 -138 77.5t-50 187.5q0 126 57.5 197t158.5 71q136 0 179 -119l-82 -30q-26 68 -96 68q-64 0 -96 -49t-32 -138q0 -88 32 -136.5t93 -48.5
q80 0 104 76l81 -27q-36 -116 -158 -130l-26 -42q55 0 81 -24t26 -59q0 -44 -33 -72.5t-86 -28.5z" />
    <glyph glyph-name="egrave" unicode="&#xe8;" horiz-adv-x="538" 
d="M305 576l-178 156h124l142 -156h-88zM280 -12q-104 0 -165.5 74.5t-61.5 193.5q0 125 62 196t165 71q92 0 151.5 -61.5t59.5 -181.5q0 -28 -3 -58h-346q5 -70 43.5 -112.5t96.5 -42.5q64 0 110 46l53 -59q-66 -66 -165 -66zM141 296h262q-1 79 -37.5 114.5t-85.5 35.5
q-59 0 -97 -37.5t-42 -112.5z" />
    <glyph glyph-name="eacute" unicode="&#xe9;" horiz-adv-x="538" 
d="M167 576l142 156h124l-178 -156h-88zM280 -12q-104 0 -165.5 74.5t-61.5 193.5q0 125 62 196t165 71q92 0 151.5 -61.5t59.5 -181.5q0 -28 -3 -58h-346q5 -70 43.5 -112.5t96.5 -42.5q64 0 110 46l53 -59q-66 -66 -165 -66zM141 296h262q-1 79 -37.5 114.5t-85.5 35.5
q-59 0 -97 -37.5t-42 -112.5z" />
    <glyph glyph-name="ecircumflex" unicode="&#xea;" horiz-adv-x="538" 
d="M385 576l-105 90l-105 -90h-83l147 156h82l146 -156h-82zM280 -12q-104 0 -165.5 74.5t-61.5 193.5q0 125 62 196t165 71q92 0 151.5 -61.5t59.5 -181.5q0 -28 -3 -58h-346q5 -70 43.5 -112.5t96.5 -42.5q64 0 110 46l53 -59q-66 -66 -165 -66zM141 296h262
q-1 79 -37.5 114.5t-85.5 35.5q-59 0 -97 -37.5t-42 -112.5z" />
    <glyph glyph-name="edieresis" unicode="&#xeb;" horiz-adv-x="538" 
d="M193 599q-23 0 -39 16t-16 39t16 39t39 16t39 -16t16 -39t-16 -39t-39 -16zM366 599q-23 0 -39 16t-16 39t16 39t39 16t39 -16t16 -39t-16 -39t-39 -16zM280 -12q-104 0 -165.5 74.5t-61.5 193.5q0 125 62 196t165 71q92 0 151.5 -61.5t59.5 -181.5q0 -28 -3 -58h-346
q5 -70 43.5 -112.5t96.5 -42.5q64 0 110 46l53 -59q-66 -66 -165 -66zM141 296h262q-1 79 -37.5 114.5t-85.5 35.5q-59 0 -97 -37.5t-42 -112.5z" />
    <glyph glyph-name="igrave" unicode="&#xec;" horiz-adv-x="254" 
d="M138 576l-178 156h124l142 -156h-88zM84 0v511h87v-511h-87z" />
    <glyph glyph-name="iacute" unicode="&#xed;" horiz-adv-x="254" 
d="M28 576l142 156h124l-178 -156h-88zM84 0v511h87v-511h-87z" />
    <glyph glyph-name="icircumflex" unicode="&#xee;" horiz-adv-x="254" 
d="M232 576l-105 90l-105 -90h-83l147 156h82l146 -156h-82zM84 0v511h87v-511h-87z" />
    <glyph glyph-name="idieresis" unicode="&#xef;" horiz-adv-x="254" 
d="M40 599q-23 0 -39 16t-16 39t16 39t39 16t39 -16t16 -39t-16 -39t-39 -16zM213 599q-23 0 -39 16t-16 39t16 39t39 16t39 -16t16 -39t-16 -39t-39 -16zM84 0v511h87v-511h-87z" />
    <glyph glyph-name="eth" unicode="&#xf0;" horiz-adv-x="558" 
d="M279 -12q-100 0 -163 66t-63 167q0 103 63.5 169t157.5 66q51 0 87.5 -22t54.5 -56q-21 131 -111 202l-64 -68l-44 43l54 58q-52 25 -117 29v70q95 -5 169 -43l58 61l45 -44l-49 -52q148 -118 148 -365q0 -128 -58 -204.5t-168 -76.5zM279 69q58 0 98 43.5t40 107.5
q0 67 -39.5 111.5t-99.5 44.5q-58 0 -97.5 -43.5t-39.5 -111.5q0 -65 40 -108.5t98 -43.5z" />
    <glyph glyph-name="ntilde" unicode="&#xf1;" horiz-adv-x="563" 
d="M366 595q-38 0 -90.5 24.5t-74.5 24.5q-20 0 -33 -11.5t-14 -33.5h-45q0 120 99 120q38 0 90.5 -25t74.5 -25q19 0 32.5 12t14.5 34h45q0 -120 -99 -120zM398 0v309q0 69 -29.5 101.5t-80.5 32.5q-118 0 -118 -132v-311h-87v511h87v-52q47 64 132 64q90 0 136.5 -54.5
t46.5 -174.5v-294h-87z" />
    <glyph glyph-name="ograve" unicode="&#xf2;" horiz-adv-x="558" 
d="M304 576l-178 156h124l142 -156h-88zM279 -12q-104 0 -165 71t-61 196t61 196.5t165 71.5t165 -71t61 -196t-61 -196.5t-165 -71.5zM279 69q65 0 101.5 49.5t36.5 137.5q0 87 -36.5 137t-101.5 50t-101.5 -49.5t-36.5 -138.5q0 -87 36.5 -136.5t101.5 -49.5z" />
    <glyph glyph-name="oacute" unicode="&#xf3;" horiz-adv-x="558" 
d="M166 576l142 156h124l-178 -156h-88zM279 -12q-104 0 -165 71t-61 196t61 196.5t165 71.5t165 -71t61 -196t-61 -196.5t-165 -71.5zM279 69q65 0 101.5 49.5t36.5 137.5q0 87 -36.5 137t-101.5 50t-101.5 -49.5t-36.5 -138.5q0 -87 36.5 -136.5t101.5 -49.5z" />
    <glyph glyph-name="ocircumflex" unicode="&#xf4;" horiz-adv-x="558" 
d="M384 576l-105 90l-105 -90h-83l147 156h82l146 -156h-82zM279 -12q-104 0 -165 71t-61 196t61 196.5t165 71.5t165 -71t61 -196t-61 -196.5t-165 -71.5zM279 69q65 0 101.5 49.5t36.5 137.5q0 87 -36.5 137t-101.5 50t-101.5 -49.5t-36.5 -138.5q0 -87 36.5 -136.5
t101.5 -49.5z" />
    <glyph glyph-name="otilde" unicode="&#xf5;" horiz-adv-x="558" 
d="M357 595q-38 0 -90.5 24.5t-74.5 24.5q-20 0 -33 -11.5t-14 -33.5h-45q0 120 99 120q38 0 90.5 -25t74.5 -25q19 0 32.5 12t14.5 34h45q0 -120 -99 -120zM279 -12q-104 0 -165 71t-61 196t61 196.5t165 71.5t165 -71t61 -196t-61 -196.5t-165 -71.5zM279 69
q65 0 101.5 49.5t36.5 137.5q0 87 -36.5 137t-101.5 50t-101.5 -49.5t-36.5 -138.5q0 -87 36.5 -136.5t101.5 -49.5z" />
    <glyph glyph-name="odieresis" unicode="&#xf6;" horiz-adv-x="558" 
d="M192 599q-23 0 -39 16t-16 39t16 39t39 16t39 -16t16 -39t-16 -39t-39 -16zM365 599q-23 0 -39 16t-16 39t16 39t39 16t39 -16t16 -39t-16 -39t-39 -16zM279 -12q-104 0 -165 71t-61 196t61 196.5t165 71.5t165 -71t61 -196t-61 -196.5t-165 -71.5zM279 69
q65 0 101.5 49.5t36.5 137.5q0 87 -36.5 137t-101.5 50t-101.5 -49.5t-36.5 -138.5q0 -87 36.5 -136.5t101.5 -49.5z" />
    <glyph glyph-name="divide" unicode="&#xf7;" horiz-adv-x="645" 
d="M321 486q-25 0 -41 16t-16 40q0 23 16.5 39.5t40.5 16.5t41 -16.5t17 -39.5t-16.5 -39.5t-41.5 -16.5zM88 301v84h470v-84h-470zM321 88q-25 0 -41 16t-16 39t16 39.5t41 16.5t41.5 -16.5t16.5 -39.5t-16.5 -39t-41.5 -16z" />
    <glyph glyph-name="oslash" unicode="&#xf8;" horiz-adv-x="558" 
d="M505 523l-55 -79q55 -71 55 -188q0 -125 -61 -196.5t-165 -71.5q-70 0 -123 34l-24 -34h-79l55 79q-55 71 -55 188q0 125 61 196.5t165 71.5q71 0 122 -33l23 33h81zM141 255q0 -67 21 -110l191 276q-31 22 -74 22q-65 0 -101.5 -49.5t-36.5 -138.5zM417 256
q0 66 -21 111l-192 -275q32 -23 75 -23q65 0 101.5 49.5t36.5 137.5z" />
    <glyph glyph-name="ugrave" unicode="&#xf9;" horiz-adv-x="563" 
d="M301 576l-178 156h124l142 -156h-88zM393 0v49q-47 -61 -129 -61q-93 0 -139.5 54t-46.5 174v295h87v-308q0 -69 29.5 -101.5t80.5 -32.5q118 0 118 132v310h87v-511h-87z" />
    <glyph glyph-name="uacute" unicode="&#xfa;" horiz-adv-x="563" 
d="M163 576l142 156h124l-178 -156h-88zM393 0v49q-47 -61 -129 -61q-93 0 -139.5 54t-46.5 174v295h87v-308q0 -69 29.5 -101.5t80.5 -32.5q118 0 118 132v310h87v-511h-87z" />
    <glyph glyph-name="ucircumflex" unicode="&#xfb;" horiz-adv-x="563" 
d="M381 576l-105 90l-105 -90h-83l147 156h82l146 -156h-82zM393 0v49q-47 -61 -129 -61q-93 0 -139.5 54t-46.5 174v295h87v-308q0 -69 29.5 -101.5t80.5 -32.5q118 0 118 132v310h87v-511h-87z" />
    <glyph glyph-name="udieresis" unicode="&#xfc;" horiz-adv-x="563" 
d="M189 599q-23 0 -39 16t-16 39t16 39t39 16t39 -16t16 -39t-16 -39t-39 -16zM362 599q-23 0 -39 16t-16 39t16 39t39 16t39 -16t16 -39t-16 -39t-39 -16zM393 0v49q-47 -61 -129 -61q-93 0 -139.5 54t-46.5 174v295h87v-308q0 -69 29.5 -101.5t80.5 -32.5q118 0 118 132
v310h87v-511h-87z" />
    <glyph glyph-name="yacute" unicode="&#xfd;" horiz-adv-x="530" 
d="M150 576l142 156h124l-178 -156h-88zM144 -194l78 207l-189 498h87l127 -348q7 -17 16 -49q9 32 16 49l129 348h89l-265 -705h-88z" />
    <glyph glyph-name="thorn" unicode="&#xfe;" horiz-adv-x="564" 
d="M301 -12q-80 0 -131 60v-209l-87 -41v873l87 41v-244q55 55 131 55q97 0 154 -72t57 -195q0 -125 -58 -196.5t-153 -71.5zM290 69q64 0 98.5 48.5t34.5 138.5q0 84 -35.5 135.5t-97.5 51.5q-81 0 -120 -69v-236q53 -69 120 -69z" />
    <glyph glyph-name="ydieresis" unicode="&#xff;" horiz-adv-x="530" 
d="M176 599q-23 0 -39 16t-16 39t16 39t39 16t39 -16t16 -39t-16 -39t-39 -16zM349 599q-23 0 -39 16t-16 39t16 39t39 16t39 -16t16 -39t-16 -39t-39 -16zM144 -194l78 207l-189 498h87l127 -348q7 -17 16 -49q9 32 16 49l129 348h89l-265 -705h-88z" />
    <glyph glyph-name="Amacron" unicode="&#x100;" horiz-adv-x="679" 
d="M174 792v74h330v-74h-330zM539 0l-60 171h-278l-59 -171h-91l248 700h81l248 -700h-89zM452 248l-90 259q-17 49 -22 71q-11 -39 -22 -71l-91 -259h225z" />
    <glyph glyph-name="amacron" unicode="&#x101;" horiz-adv-x="526" 
d="M110 603v74h330v-74h-330zM376 0v47q-63 -59 -145 -59q-81 0 -129.5 44.5t-48.5 127.5t55 126t136 43q74 0 132 -33v36q0 64 -28.5 89.5t-82.5 25.5q-77 0 -149 -51l-25 73q82 54 185 54q182 0 182 -184v-339h-82zM244 65q75 0 132 67v88q-55 34 -120 34q-53 0 -87 -24
t-34 -70q0 -43 28.5 -69t80.5 -26z" />
    <glyph glyph-name="Abreve" unicode="&#x102;" horiz-adv-x="679" 
d="M339 768q-90 0 -136 46t-46 117h78q0 -41 29 -65.5t75 -24.5q47 0 76 24.5t29 65.5h78q0 -71 -46 -117t-137 -46zM539 0l-60 171h-278l-59 -171h-91l248 700h81l248 -700h-89zM452 248l-90 259q-17 49 -22 71q-11 -39 -22 -71l-91 -259h225z" />
    <glyph glyph-name="abreve" unicode="&#x103;" horiz-adv-x="526" 
d="M275 579q-90 0 -136 46t-46 117h78q0 -41 29 -65.5t75 -24.5q47 0 76 24.5t29 65.5h78q0 -71 -46 -117t-137 -46zM376 0v47q-63 -59 -145 -59q-81 0 -129.5 44.5t-48.5 127.5t55 126t136 43q74 0 132 -33v36q0 64 -28.5 89.5t-82.5 25.5q-77 0 -149 -51l-25 73
q82 54 185 54q182 0 182 -184v-339h-82zM244 65q75 0 132 67v88q-55 34 -120 34q-53 0 -87 -24t-34 -70q0 -43 28.5 -69t80.5 -26z" />
    <glyph glyph-name="Aogonek" unicode="&#x104;" horiz-adv-x="679" 
d="M534 -237q-50 0 -82.5 27t-32.5 74q0 92 120 136l-60 171h-278l-59 -171h-91l248 700h81l248 -700q-61 -12 -98.5 -48.5t-37.5 -78.5q0 -27 15 -41t37 -14q29 0 48 21l45 -33q-39 -43 -103 -43zM227 248h225l-90 259q-17 49 -22 71q-11 -39 -22 -71z" />
    <glyph glyph-name="aogonek" unicode="&#x105;" horiz-adv-x="526" 
d="M379 -237q-50 0 -82.5 27t-32.5 74q0 88 112 136v47q-63 -59 -145 -59q-81 0 -129.5 44.5t-48.5 127.5t55 126t136 43q74 0 132 -33v36q0 64 -28.5 89.5t-82.5 25.5q-77 0 -149 -51l-25 73q82 54 185 54q182 0 182 -184v-339q-60 -19 -90.5 -55t-30.5 -72q0 -27 15 -41
t37 -14q29 0 48 21l45 -33q-39 -43 -103 -43zM244 65q75 0 132 67v88q-55 34 -120 34q-53 0 -87 -24t-34 -70q0 -43 28.5 -69t80.5 -26z" />
    <glyph glyph-name="Cacute" unicode="&#x106;" horiz-adv-x="647" 
d="M262 765l142 156h124l-178 -156h-88zM358 -12q-76 0 -134 31t-91 84t-49 115t-16 132q0 69 16.5 131.5t50 115t91 84t132.5 31.5q164 0 226 -126l-78 -40q-28 42 -61.5 63.5t-86.5 21.5q-71 0 -118 -45t-64.5 -105.5t-17.5 -130.5q0 -115 51 -197.5t149 -82.5t152 89
l80 -30q-29 -64 -87 -102.5t-145 -38.5z" />
    <glyph glyph-name="cacute" unicode="&#x107;" horiz-adv-x="500" 
d="M155 576l142 156h124l-178 -156h-88zM265 -12q-98 0 -155 70.5t-57 196.5t57.5 197t158.5 71q136 0 179 -119l-82 -30q-26 68 -96 68q-64 0 -96 -49t-32 -138q0 -88 32 -136.5t93 -48.5q80 0 104 76l81 -27q-19 -63 -67.5 -97t-119.5 -34z" />
    <glyph glyph-name="Ccircumflex" unicode="&#x108;" horiz-adv-x="647" 
d="M462 765l-105 90l-105 -90h-83l147 156h82l146 -156h-82zM358 -12q-76 0 -134 31t-91 84t-49 115t-16 132q0 69 16.5 131.5t50 115t91 84t132.5 31.5q164 0 226 -126l-78 -40q-28 42 -61.5 63.5t-86.5 21.5q-71 0 -118 -45t-64.5 -105.5t-17.5 -130.5q0 -115 51 -197.5
t149 -82.5t152 89l80 -30q-29 -64 -87 -102.5t-145 -38.5z" />
    <glyph glyph-name="ccircumflex" unicode="&#x109;" horiz-adv-x="500" 
d="M373 576l-105 90l-105 -90h-83l147 156h82l146 -156h-82zM265 -12q-98 0 -155 70.5t-57 196.5t57.5 197t158.5 71q136 0 179 -119l-82 -30q-26 68 -96 68q-64 0 -96 -49t-32 -138q0 -88 32 -136.5t93 -48.5q80 0 104 76l81 -27q-19 -63 -67.5 -97t-119.5 -34z" />
    <glyph glyph-name="Cdotaccent" unicode="&#x10a;" horiz-adv-x="647" 
d="M357 788q-23 0 -39 16t-16 39t16 39t39 16t39 -16t16 -39t-16 -39t-39 -16zM358 -12q-76 0 -134 31t-91 84t-49 115t-16 132q0 69 16.5 131.5t50 115t91 84t132.5 31.5q164 0 226 -126l-78 -40q-28 42 -61.5 63.5t-86.5 21.5q-71 0 -118 -45t-64.5 -105.5t-17.5 -130.5
q0 -115 51 -197.5t149 -82.5t152 89l80 -30q-29 -64 -87 -102.5t-145 -38.5z" />
    <glyph glyph-name="cdotaccent" unicode="&#x10b;" horiz-adv-x="500" 
d="M268 599q-23 0 -39 16t-16 39t16 39t39 16t39 -16t16 -39t-16 -39t-39 -16zM265 -12q-98 0 -155 70.5t-57 196.5t57.5 197t158.5 71q136 0 179 -119l-82 -30q-26 68 -96 68q-64 0 -96 -49t-32 -138q0 -88 32 -136.5t93 -48.5q80 0 104 76l81 -27q-19 -63 -67.5 -97
t-119.5 -34z" />
    <glyph glyph-name="Ccaron" unicode="&#x10c;" horiz-adv-x="647" 
d="M398 765h-83l-146 156h83l105 -90l105 90h82zM358 -12q-76 0 -134 31t-91 84t-49 115t-16 132q0 69 16.5 131.5t50 115t91 84t132.5 31.5q164 0 226 -126l-78 -40q-28 42 -61.5 63.5t-86.5 21.5q-71 0 -118 -45t-64.5 -105.5t-17.5 -130.5q0 -115 51 -197.5t149 -82.5
t152 89l80 -30q-29 -64 -87 -102.5t-145 -38.5z" />
    <glyph glyph-name="ccaron" unicode="&#x10d;" horiz-adv-x="500" 
d="M309 576h-83l-146 156h83l105 -90l105 90h82zM265 -12q-98 0 -155 70.5t-57 196.5t57.5 197t158.5 71q136 0 179 -119l-82 -30q-26 68 -96 68q-64 0 -96 -49t-32 -138q0 -88 32 -136.5t93 -48.5q80 0 104 76l81 -27q-19 -63 -67.5 -97t-119.5 -34z" />
    <glyph glyph-name="Dcaron" unicode="&#x10e;" horiz-adv-x="682" 
d="M345 765h-83l-146 156h83l105 -90l105 90h82zM98 700h191q86 0 151 -30t102 -81t54.5 -111t17.5 -128q0 -65 -16.5 -123.5t-52 -111t-102.5 -84t-158 -31.5h-187v700zM296 81q62 0 108.5 23.5t71.5 64t36.5 85.5t11.5 96q0 72 -21 131t-72 99t-124 40h-122v-539h111z" />
    <glyph glyph-name="dcaron" unicode="&#x10f;" horiz-adv-x="714" 
d="M264 -12q-97 0 -154 72t-57 196q0 125 57.5 196t153.5 71q75 0 129 -48v206l87 41v-722h-87v40q-50 -52 -129 -52zM678 712v-8q0 -140 -89 -228l-26 19q13 28 21.5 91.5t8.5 125.5h85zM276 69q76 0 117 69v240q-41 65 -117 65q-65 0 -100 -48.5t-35 -138.5
q0 -81 36.5 -134t98.5 -53z" />
    <glyph glyph-name="Dcroat" unicode="&#x110;" horiz-adv-x="682" 
d="M98 310h-68v79h68v311h191q86 0 151 -30t102 -81t54.5 -111t17.5 -128q0 -65 -16.5 -123.5t-52 -111t-102.5 -84t-158 -31.5h-187v310zM296 81q62 0 108.5 23.5t71.5 64t36.5 85.5t11.5 96q0 72 -21 131t-72 99t-124 40h-122v-231h153v-79h-153v-229h111z" />
    <glyph glyph-name="dcroat" unicode="&#x111;" horiz-adv-x="562" 
d="M480 548v-548h-87v40q-52 -52 -129 -52q-97 0 -154 69.5t-57 183.5q0 115 57.5 182t153.5 67q75 0 129 -48v106h-135v75h135v58l87 41v-99h62v-75h-62zM276 69q76 0 117 69v207q-41 65 -117 65q-64 0 -99.5 -44.5t-35.5 -124.5q0 -72 37 -122t98 -50z" />
    <glyph glyph-name="Emacron" unicode="&#x112;" horiz-adv-x="599" 
d="M141 792v74h330v-74h-330zM98 0v700h416v-82h-329v-215h217v-82h-217v-238h351v-83h-438z" />
    <glyph glyph-name="emacron" unicode="&#x113;" horiz-adv-x="538" 
d="M114 603v74h330v-74h-330zM280 -12q-104 0 -165.5 74.5t-61.5 193.5q0 125 62 196t165 71q92 0 151.5 -61.5t59.5 -181.5q0 -28 -3 -58h-346q5 -70 43.5 -112.5t96.5 -42.5q64 0 110 46l53 -59q-66 -66 -165 -66zM141 296h262q-1 79 -37.5 114.5t-85.5 35.5
q-59 0 -97 -37.5t-42 -112.5z" />
    <glyph glyph-name="Ebreve" unicode="&#x114;" horiz-adv-x="599" 
d="M307 768q-90 0 -136 46t-46 117h78q0 -41 29 -65.5t75 -24.5q47 0 76 24.5t29 65.5h78q0 -71 -46 -117t-137 -46zM98 0v700h416v-82h-329v-215h217v-82h-217v-238h351v-83h-438z" />
    <glyph glyph-name="ebreve" unicode="&#x115;" horiz-adv-x="538" 
d="M279 579q-90 0 -136 46t-46 117h78q0 -41 29 -65.5t75 -24.5q47 0 76 24.5t29 65.5h78q0 -71 -46 -117t-137 -46zM280 -12q-104 0 -165.5 74.5t-61.5 193.5q0 125 62 196t165 71q92 0 151.5 -61.5t59.5 -181.5q0 -28 -3 -58h-346q5 -70 43.5 -112.5t96.5 -42.5
q64 0 110 46l53 -59q-66 -66 -165 -66zM141 296h262q-1 79 -37.5 114.5t-85.5 35.5q-59 0 -97 -37.5t-42 -112.5z" />
    <glyph glyph-name="Edotaccent" unicode="&#x116;" horiz-adv-x="599" 
d="M310 788q-23 0 -39 16t-16 39t16 39t39 16t39 -16t16 -39t-16 -39t-39 -16zM98 0v700h416v-82h-329v-215h217v-82h-217v-238h351v-83h-438z" />
    <glyph glyph-name="edotaccent" unicode="&#x117;" horiz-adv-x="538" 
d="M280 599q-23 0 -39 16t-16 39t16 39t39 16t39 -16t16 -39t-16 -39t-39 -16zM280 -12q-104 0 -165.5 74.5t-61.5 193.5q0 125 62 196t165 71q92 0 151.5 -61.5t59.5 -181.5q0 -28 -3 -58h-346q5 -70 43.5 -112.5t96.5 -42.5q64 0 110 46l53 -59q-66 -66 -165 -66zM141 296
h262q-1 79 -37.5 114.5t-85.5 35.5q-59 0 -97 -37.5t-42 -112.5z" />
    <glyph glyph-name="Eogonek" unicode="&#x118;" horiz-adv-x="599" 
d="M400 -237q-50 0 -82.5 27t-32.5 74q0 44 29 79.5t81 56.5h-297v700h416v-82h-329v-215h217v-82h-217v-238h351v-83h-31q-60 0 -103.5 -41.5t-43.5 -85.5q0 -27 15 -41t37 -14q29 0 48 21l45 -33q-39 -43 -103 -43z" />
    <glyph glyph-name="eogonek" unicode="&#x119;" horiz-adv-x="538" 
d="M295 -237q-50 0 -82.5 27t-32.5 74q0 78 86 124q-98 5 -155.5 79t-57.5 189q0 125 62 196t165 71q92 0 151.5 -61.5t59.5 -181.5q0 -28 -3 -58h-346q5 -70 43.5 -112.5t96.5 -42.5q64 0 110 46l53 -59q-17 -18 -79 -55q-29 -17 -42 -25t-33.5 -24.5t-29 -35t-8.5 -41.5
q0 -27 15 -41t37 -14q29 0 48 21l45 -33q-39 -43 -103 -43zM280 446q-59 0 -97 -37.5t-42 -112.5h262q-1 79 -37.5 114.5t-85.5 35.5z" />
    <glyph glyph-name="Ecaron" unicode="&#x11a;" horiz-adv-x="599" 
d="M352 765h-83l-146 156h83l105 -90l105 90h82zM98 0v700h416v-82h-329v-215h217v-82h-217v-238h351v-83h-438z" />
    <glyph glyph-name="ecaron" unicode="&#x11b;" horiz-adv-x="538" 
d="M321 576h-83l-146 156h83l105 -90l105 90h82zM280 -12q-104 0 -165.5 74.5t-61.5 193.5q0 125 62 196t165 71q92 0 151.5 -61.5t59.5 -181.5q0 -28 -3 -58h-346q5 -70 43.5 -112.5t96.5 -42.5q64 0 110 46l53 -59q-66 -66 -165 -66zM141 296h262q-1 79 -37.5 114.5
t-85.5 35.5q-59 0 -97 -37.5t-42 -112.5z" />
    <glyph glyph-name="Gcircumflex" unicode="&#x11c;" horiz-adv-x="688" 
d="M470 765l-105 90l-105 -90h-83l147 156h82l146 -156h-82zM365 -12q-77 0 -135.5 30.5t-93 82.5t-51.5 115t-17 134q0 70 18 133.5t53 115t93.5 82.5t132.5 31q89 0 140.5 -33t86.5 -90l-78 -45q-28 41 -62 63.5t-87 22.5q-45 0 -81 -17t-59 -44.5t-38.5 -64.5t-22 -75.5
t-6.5 -78.5q0 -118 52 -198.5t155 -80.5q71 0 114 44.5t43 116.5v28h-127v80h218v-84q0 -127 -69.5 -197.5t-178.5 -70.5z" />
    <glyph glyph-name="gcircumflex" unicode="&#x11d;" horiz-adv-x="563" 
d="M394 576l-105 90l-105 -90h-83l147 156h82l146 -156h-82zM240 -207l-42 68q111 6 153.5 38.5t42.5 88.5v62q-45 -62 -132 -62q-90 0 -149.5 70t-59.5 198q0 124 58.5 195.5t153.5 71.5q80 0 129 -54v42h87v-490q0 -117 -62.5 -169t-178.5 -59zM280 69q32 0 63.5 19.5
t50.5 52.5v234q-18 30 -51 49t-63 19q-68 0 -103.5 -48.5t-35.5 -138.5q0 -87 38.5 -137t100.5 -50z" />
    <glyph glyph-name="Gbreve" unicode="&#x11e;" horiz-adv-x="688" 
d="M364 768q-90 0 -136 46t-46 117h78q0 -41 29 -65.5t75 -24.5q47 0 76 24.5t29 65.5h78q0 -71 -46 -117t-137 -46zM365 -12q-77 0 -135.5 30.5t-93 82.5t-51.5 115t-17 134q0 70 18 133.5t53 115t93.5 82.5t132.5 31q89 0 140.5 -33t86.5 -90l-78 -45q-28 41 -62 63.5
t-87 22.5q-45 0 -81 -17t-59 -44.5t-38.5 -64.5t-22 -75.5t-6.5 -78.5q0 -118 52 -198.5t155 -80.5q71 0 114 44.5t43 116.5v28h-127v80h218v-84q0 -127 -69.5 -197.5t-178.5 -70.5z" />
    <glyph glyph-name="gbreve" unicode="&#x11f;" horiz-adv-x="563" 
d="M289 579q-90 0 -136 46t-46 117h78q0 -41 29 -65.5t75 -24.5q47 0 76 24.5t29 65.5h78q0 -71 -46 -117t-137 -46zM240 -207l-42 68q111 6 153.5 38.5t42.5 88.5v62q-45 -62 -132 -62q-90 0 -149.5 70t-59.5 198q0 124 58.5 195.5t153.5 71.5q80 0 129 -54v42h87v-490
q0 -117 -62.5 -169t-178.5 -59zM280 69q32 0 63.5 19.5t50.5 52.5v234q-18 30 -51 49t-63 19q-68 0 -103.5 -48.5t-35.5 -138.5q0 -87 38.5 -137t100.5 -50z" />
    <glyph glyph-name="Gdotaccent" unicode="&#x120;" horiz-adv-x="688" 
d="M359 788q-23 0 -39 16t-16 39t16 39t39 16t39 -16t16 -39t-16 -39t-39 -16zM365 -12q-77 0 -135.5 30.5t-93 82.5t-51.5 115t-17 134q0 70 18 133.5t53 115t93.5 82.5t132.5 31q89 0 140.5 -33t86.5 -90l-78 -45q-28 41 -62 63.5t-87 22.5q-45 0 -81 -17t-59 -44.5
t-38.5 -64.5t-22 -75.5t-6.5 -78.5q0 -118 52 -198.5t155 -80.5q71 0 114 44.5t43 116.5v28h-127v80h218v-84q0 -127 -69.5 -197.5t-178.5 -70.5z" />
    <glyph glyph-name="gdotaccent" unicode="&#x121;" horiz-adv-x="563" 
d="M289 599q-23 0 -39 16t-16 39t16 39t39 16t39 -16t16 -39t-16 -39t-39 -16zM240 -207l-42 68q111 6 153.5 38.5t42.5 88.5v62q-45 -62 -132 -62q-90 0 -149.5 70t-59.5 198q0 124 58.5 195.5t153.5 71.5q80 0 129 -54v42h87v-490q0 -117 -62.5 -169t-178.5 -59zM280 69
q32 0 63.5 19.5t50.5 52.5v234q-18 30 -51 49t-63 19q-68 0 -103.5 -48.5t-35.5 -138.5q0 -87 38.5 -137t100.5 -50z" />
    <glyph glyph-name="Gcommaaccent" unicode="&#x122;" horiz-adv-x="688" 
d="M365 -12q-77 0 -135.5 30.5t-93 82.5t-51.5 115t-17 134q0 70 18 133.5t53 115t93.5 82.5t132.5 31q89 0 140.5 -33t86.5 -90l-78 -45q-28 41 -62 63.5t-87 22.5q-45 0 -81 -17t-59 -44.5t-38.5 -64.5t-22 -75.5t-6.5 -78.5q0 -118 52 -198.5t155 -80.5q71 0 114 44.5
t43 116.5v28h-127v80h218v-84q0 -127 -69.5 -197.5t-178.5 -70.5zM319 -241q35 30 45 72q-27 0 -43.5 16.5t-16.5 41.5q0 26 17.5 42.5t40.5 16.5q25 0 43 -17.5t18 -47.5q0 -83 -78 -137z" />
    <glyph glyph-name="gcommaaccent" unicode="&#x123;" horiz-adv-x="563" 
d="M289 597q-25 0 -43 18t-18 48q0 83 78 137l26 -14q-35 -27 -45 -72q27 0 43.5 -16.5t16.5 -40.5q0 -26 -17.5 -43t-40.5 -17zM240 -207l-42 68q111 6 153.5 38.5t42.5 88.5v62q-45 -62 -132 -62q-90 0 -149.5 70t-59.5 198q0 124 58.5 195.5t153.5 71.5q80 0 129 -54v42
h87v-490q0 -117 -62.5 -169t-178.5 -59zM280 69q32 0 63.5 19.5t50.5 52.5v234q-18 30 -51 49t-63 19q-68 0 -103.5 -48.5t-35.5 -138.5q0 -87 38.5 -137t100.5 -50z" />
    <glyph glyph-name="Hcircumflex" unicode="&#x124;" horiz-adv-x="700" 
d="M455 765l-105 90l-105 -90h-83l147 156h82l146 -156h-82zM515 0v322h-330v-322h-87v700h87v-296h330v296h87v-700h-87z" />
    <glyph glyph-name="hcircumflex" unicode="&#x125;" horiz-adv-x="563" 
d="M393 765l-105 90l-105 -90h-83l147 156h82l146 -156h-82zM83 0v682l87 40v-264q47 65 132 65q90 0 136.5 -54.5t46.5 -174.5v-294h-87v309q0 69 -29.5 101.5t-80.5 32.5q-118 0 -118 -132v-311h-87z" />
    <glyph glyph-name="Hbar" unicode="&#x126;" horiz-adv-x="700" 
d="M515 0v322h-330v-322h-87v523h-90v82h90v95h87v-95h330v95h87v-95h90v-82h-90v-523h-87zM515 404v119h-330v-119h330z" />
    <glyph glyph-name="hbar" unicode="&#x127;" horiz-adv-x="563" 
d="M83 0v548h-63v75h63v59l87 40v-99h149v-75h-149v-122q47 65 132 65q90 0 136.5 -54.5t46.5 -174.5v-262h-87v277q0 69 -29.5 101.5t-80.5 32.5q-118 0 -118 -132v-279h-87z" />
    <glyph glyph-name="Itilde" unicode="&#x128;" horiz-adv-x="287" 
d="M222 784q-38 0 -90.5 24.5t-74.5 24.5q-20 0 -33 -11.5t-14 -33.5h-45q0 120 99 120q38 0 90.5 -25t74.5 -25q19 0 32.5 12t14.5 34h45q0 -120 -99 -120zM100 0v700h87v-700h-87z" />
    <glyph glyph-name="itilde" unicode="&#x129;" horiz-adv-x="254" 
d="M205 595q-38 0 -90.5 24.5t-74.5 24.5q-20 0 -33 -11.5t-14 -33.5h-45q0 120 99 120q38 0 90.5 -25t74.5 -25q19 0 32.5 12t14.5 34h45q0 -120 -99 -120zM84 0v511h87v-511h-87z" />
    <glyph glyph-name="Imacron" unicode="&#x12a;" horiz-adv-x="287" 
d="M-22 792v74h330v-74h-330zM100 0v700h87v-700h-87z" />
    <glyph glyph-name="imacron" unicode="&#x12b;" horiz-adv-x="254" 
d="M-39 603v74h330v-74h-330zM84 0v511h87v-511h-87z" />
    <glyph glyph-name="Ibreve" unicode="&#x12c;" horiz-adv-x="287" 
d="M143 768q-90 0 -136 46t-46 117h78q0 -41 29 -65.5t75 -24.5q47 0 76 24.5t29 65.5h78q0 -71 -46 -117t-137 -46zM100 0v700h87v-700h-87z" />
    <glyph glyph-name="ibreve" unicode="&#x12d;" horiz-adv-x="254" 
d="M126 579q-90 0 -136 46t-46 117h78q0 -41 29 -65.5t75 -24.5q47 0 76 24.5t29 65.5h78q0 -71 -46 -117t-137 -46zM84 0v511h87v-511h-87z" />
    <glyph glyph-name="Iogonek" unicode="&#x12e;" horiz-adv-x="287" 
d="M102 -237q-50 0 -82.5 27t-32.5 74q0 90 113 136v700h87v-700q-62 -19 -94 -54t-32 -73q0 -27 15 -41t37 -14q27 0 48 21l45 -33q-39 -43 -104 -43z" />
    <glyph glyph-name="iogonek" unicode="&#x12f;" horiz-adv-x="254" 
d="M127 604q-23 0 -38.5 16t-15.5 38q0 23 16 39.5t38 16.5q23 0 39 -16.5t16 -39.5t-16 -38.5t-39 -15.5zM87 -237q-50 0 -82.5 27t-32.5 74q0 45 30 80t82 56v511h87v-511q-61 -19 -93 -54t-32 -73q0 -27 15 -41t37 -14q27 0 48 21l45 -33q-39 -43 -104 -43z" />
    <glyph glyph-name="Idotaccent" unicode="&#x130;" horiz-adv-x="287" 
d="M144 788q-23 0 -39 16t-16 39t16 39t39 16t39 -16t16 -39t-16 -39t-39 -16zM100 0v700h87v-700h-87z" />
    <glyph glyph-name="dotlessi" unicode="&#x131;" horiz-adv-x="254" 
d="M84 0v511h87v-511h-87z" />
    <glyph glyph-name="IJ" unicode="&#x132;" horiz-adv-x="833" 
d="M100 0v700h87v-700h-87zM517 -12q-148 0 -202 126l72 37q21 -43 50 -62t81 -19q133 0 133 157v473h87v-470q0 -69 -20 -118.5t-54 -75t-70.5 -37t-76.5 -11.5z" />
    <glyph glyph-name="ij" unicode="&#x133;" horiz-adv-x="523" 
d="M127 604q-23 0 -38.5 16t-15.5 38q0 23 16 39.5t38 16.5q23 0 39 -16.5t16 -39.5t-16 -38.5t-39 -15.5zM397 604q-23 0 -39 15.5t-16 38.5t16 39.5t39 16.5t38.5 -16.5t15.5 -39.5t-15.5 -38.5t-38.5 -15.5zM84 0v511h87v-511h-87zM263 -214l-41 66q74 12 102.5 38
t28.5 74v547h87v-515q0 -93 -38 -138q-48 -59 -139 -72z" />
    <glyph glyph-name="Jcircumflex" unicode="&#x134;" horiz-adv-x="546" 
d="M513 765l-105 90l-105 -90h-83l147 156h82l146 -156h-82zM230 -12q-148 0 -202 126l72 37q21 -43 50 -62t81 -19q133 0 133 157v473h87v-470q0 -69 -20 -118.5t-54 -75t-70.5 -37t-76.5 -11.5z" />
    <glyph glyph-name="jcircumflex" unicode="&#x135;" horiz-adv-x="254" 
d="M234 576l-105 90l-105 -90h-83l147 156h82l146 -156h-82zM-6 -214l-41 66q74 12 102.5 38t28.5 74v547h87v-515q0 -93 -38 -138q-48 -59 -139 -72z" />
    <glyph glyph-name="Kcommaaccent" unicode="&#x136;" horiz-adv-x="660" 
d="M512 0l-208 385l-119 -146v-239h-87v700h87v-343l273 343h98l-193 -242l250 -458h-101zM288 -241q35 30 45 72q-27 0 -43.5 16.5t-16.5 41.5q0 26 17.5 42.5t40.5 16.5q25 0 43 -17.5t18 -47.5q0 -83 -78 -137z" />
    <glyph glyph-name="kcommaaccent" unicode="&#x137;" horiz-adv-x="531" 
d="M498 0h-95l-158 309l-75 -78v-231h-87v681l87 41v-387l166 176h104l-134 -139zM223 -241q35 30 45 72q-27 0 -43.5 16.5t-16.5 41.5q0 26 17.5 42.5t40.5 16.5q25 0 43 -17.5t18 -47.5q0 -83 -78 -137z" />
    <glyph glyph-name="kgreenlandic" unicode="&#x138;" horiz-adv-x="534" 
d="M406 0l-135 251l-101 -126v-125h-87v511h87v-270l213 270h98l-152 -189l175 -322h-98z" />
    <glyph glyph-name="Lacute" unicode="&#x139;" horiz-adv-x="559" 
d="M49 765l142 156h124l-178 -156h-88zM98 0v700h87v-616h344v-84h-431z" />
    <glyph glyph-name="lacute" unicode="&#x13a;" horiz-adv-x="262" 
d="M18 756l142 156h124l-178 -156h-88zM88 0v681l87 41v-722h-87z" />
    <glyph glyph-name="Lcommaaccent" unicode="&#x13b;" horiz-adv-x="559" 
d="M98 0v700h87v-616h344v-84h-431zM272 -241q35 30 45 72q-27 0 -43.5 16.5t-16.5 41.5q0 26 17.5 42.5t40.5 16.5q25 0 43 -17.5t18 -47.5q0 -83 -78 -137z" />
    <glyph glyph-name="lcommaaccent" unicode="&#x13c;" horiz-adv-x="262" 
d="M88 0v681l87 41v-722h-87zM88 -241q35 30 45 72q-27 0 -43.5 16.5t-16.5 41.5q0 26 17.5 42.5t40.5 16.5q25 0 43 -17.5t18 -47.5q0 -83 -78 -137z" />
    <glyph glyph-name="Lcaron" unicode="&#x13d;" horiz-adv-x="559" 
d="M183 765h-83l-146 156h83l105 -90l105 90h82zM98 0v700h87v-616h344v-84h-431z" />
    <glyph glyph-name="lcaron" unicode="&#x13e;" horiz-adv-x="409" 
d="M88 0v681l87 41v-722h-87zM383 712v-8q0 -140 -89 -228l-26 19q13 28 21.5 91.5t8.5 125.5h85z" />
    <glyph glyph-name="Ldot" unicode="&#x13f;" horiz-adv-x="559" 
d="M98 0v700h87v-616h344v-84h-431zM421 281q-29 0 -49 20.5t-20 47.5q0 28 20 48.5t49 20.5t49.5 -21t20.5 -48t-20.5 -47.5t-49.5 -20.5z" />
    <glyph glyph-name="ldot" unicode="&#x140;" horiz-adv-x="370" 
d="M88 0v681l87 41v-722h-87zM302 247q-29 0 -49 20.5t-20 47.5q0 28 20 48.5t49 20.5t49.5 -21t20.5 -48t-20.5 -47.5t-49.5 -20.5z" />
    <glyph glyph-name="Lslash" unicode="&#x141;" horiz-adv-x="559" 
d="M98 0v255l-73 -54v96l73 54v349h87v-279l119 91v-96l-119 -92v-240h344v-84h-431z" />
    <glyph glyph-name="lslash" unicode="&#x142;" horiz-adv-x="263" 
d="M88 0v258l-63 -49v78l63 49v345l87 41v-321l63 48v-78l-63 -48v-323h-87z" />
    <glyph glyph-name="Nacute" unicode="&#x143;" horiz-adv-x="708" 
d="M261 766l142 156h124l-178 -156h-88zM610 0h-84l-315 500q-18 29 -28 49q2 -30 2 -49v-500h-87v700h88l310 -498q16 -26 29 -52q-2 36 -2 51v499h87v-700z" />
    <glyph glyph-name="nacute" unicode="&#x144;" horiz-adv-x="563" 
d="M175 576l142 156h124l-178 -156h-88zM398 0v309q0 69 -29.5 101.5t-80.5 32.5q-118 0 -118 -132v-311h-87v511h87v-52q47 64 132 64q90 0 136.5 -54.5t46.5 -174.5v-294h-87z" />
    <glyph glyph-name="Ncommaaccent" unicode="&#x145;" horiz-adv-x="708" 
d="M610 0h-84l-315 500q-18 29 -28 49q2 -30 2 -49v-500h-87v700h88l310 -498q16 -26 29 -52q-2 36 -2 51v499h87v-700zM311 -241q35 30 45 72q-27 0 -43.5 16.5t-16.5 41.5q0 26 17.5 42.5t40.5 16.5q25 0 43 -17.5t18 -47.5q0 -83 -78 -137z" />
    <glyph glyph-name="ncommaaccent" unicode="&#x146;" horiz-adv-x="563" 
d="M398 0v309q0 69 -29.5 101.5t-80.5 32.5q-118 0 -118 -132v-311h-87v511h87v-52q47 64 132 64q90 0 136.5 -54.5t46.5 -174.5v-294h-87zM239 -241q35 30 45 72q-27 0 -43.5 16.5t-16.5 41.5q0 26 17.5 42.5t40.5 16.5q25 0 43 -17.5t18 -47.5q0 -83 -78 -137z" />
    <glyph glyph-name="Ncaron" unicode="&#x147;" horiz-adv-x="708" 
d="M400 765h-83l-146 156h83l105 -90l105 90h82zM610 0h-84l-315 500q-18 29 -28 49q2 -30 2 -49v-500h-87v700h88l310 -498q16 -26 29 -52q-2 36 -2 51v499h87v-700z" />
    <glyph glyph-name="ncaron" unicode="&#x148;" horiz-adv-x="563" 
d="M329 576h-83l-146 156h83l105 -90l105 90h82zM398 0v309q0 69 -29.5 101.5t-80.5 32.5q-118 0 -118 -132v-311h-87v511h87v-52q47 64 132 64q90 0 136.5 -54.5t46.5 -174.5v-294h-87z" />
    <glyph glyph-name="napostrophe" unicode="&#x149;" horiz-adv-x="755" 
d="M57 465q18 16 36 46t20 64q-30 2 -50 20t-20 46q0 32 19.5 51.5t47.5 19.5q32 0 54 -22.5t22 -64.5q0 -55 -28 -101.5t-72 -73.5zM590 0v309q0 69 -29.5 101.5t-80.5 32.5q-118 0 -118 -132v-311h-87v511h87v-52q47 64 132 64q90 0 136.5 -54.5t46.5 -174.5v-294h-87z
" />
    <glyph glyph-name="Eng" unicode="&#x14a;" horiz-adv-x="708" 
d="M430 -244l-41 66q72 11 101.5 43t29.5 84v60l-309 492q-13 19 -28 48q2 -30 2 -49v-500h-87v700h88l310 -498q16 -26 29 -52q-2 36 -2 51v499h87v-726q0 -106 -54 -159q-46 -45 -126 -59z" />
    <glyph glyph-name="eng" unicode="&#x14b;" horiz-adv-x="563" 
d="M309 -229l-41 66q73 12 101.5 38t28.5 74v360q0 69 -29.5 101.5t-80.5 32.5q-118 0 -118 -132v-311h-87v511h87v-52q47 64 132 64q90 0 136.5 -54.5t46.5 -174.5v-313q0 -95 -39 -140q-48 -57 -137 -70z" />
    <glyph glyph-name="Omacron" unicode="&#x14c;" horiz-adv-x="730" 
d="M199 792v74h330v-74h-330zM365 -12q-79 0 -138.5 31.5t-93 85t-49.5 115t-16 130.5t16 130.5t49.5 115t93 85t138.5 31.5q64 0 115.5 -21t85 -56t56 -83t32 -98t9.5 -104t-9.5 -104t-32 -98t-56 -83t-85 -56t-115.5 -21zM365 70q55 0 97 25.5t65 67.5t34 89.5t11 97.5
q0 74 -18.5 134.5t-67 103.5t-121.5 43q-55 0 -96.5 -25.5t-64.5 -68t-34.5 -89.5t-11.5 -98q0 -54 11 -102t34.5 -89t65 -65t96.5 -24z" />
    <glyph glyph-name="omacron" unicode="&#x14d;" horiz-adv-x="558" 
d="M113 603v74h330v-74h-330zM279 -12q-104 0 -165 71t-61 196t61 196.5t165 71.5t165 -71t61 -196t-61 -196.5t-165 -71.5zM279 69q65 0 101.5 49.5t36.5 137.5q0 87 -36.5 137t-101.5 50t-101.5 -49.5t-36.5 -138.5q0 -87 36.5 -136.5t101.5 -49.5z" />
    <glyph glyph-name="Obreve" unicode="&#x14e;" horiz-adv-x="730" 
d="M364 768q-90 0 -136 46t-46 117h78q0 -41 29 -65.5t75 -24.5q47 0 76 24.5t29 65.5h78q0 -71 -46 -117t-137 -46zM365 -12q-79 0 -138.5 31.5t-93 85t-49.5 115t-16 130.5t16 130.5t49.5 115t93 85t138.5 31.5q64 0 115.5 -21t85 -56t56 -83t32 -98t9.5 -104t-9.5 -104
t-32 -98t-56 -83t-85 -56t-115.5 -21zM365 70q55 0 97 25.5t65 67.5t34 89.5t11 97.5q0 74 -18.5 134.5t-67 103.5t-121.5 43q-55 0 -96.5 -25.5t-64.5 -68t-34.5 -89.5t-11.5 -98q0 -54 11 -102t34.5 -89t65 -65t96.5 -24z" />
    <glyph glyph-name="obreve" unicode="&#x14f;" horiz-adv-x="558" 
d="M278 579q-90 0 -136 46t-46 117h78q0 -41 29 -65.5t75 -24.5q47 0 76 24.5t29 65.5h78q0 -71 -46 -117t-137 -46zM279 -12q-104 0 -165 71t-61 196t61 196.5t165 71.5t165 -71t61 -196t-61 -196.5t-165 -71.5zM279 69q65 0 101.5 49.5t36.5 137.5q0 87 -36.5 137
t-101.5 50t-101.5 -49.5t-36.5 -138.5q0 -87 36.5 -136.5t101.5 -49.5z" />
    <glyph glyph-name="Ohungarumlaut" unicode="&#x150;" horiz-adv-x="730" 
d="M273 765h-88l142 156h124zM477 765h-88l142 156h124zM365 -12q-79 0 -138.5 31.5t-93 85t-49.5 115t-16 130.5t16 130.5t49.5 115t93 85t138.5 31.5q64 0 115.5 -21t85 -56t56 -83t32 -98t9.5 -104t-9.5 -104t-32 -98t-56 -83t-85 -56t-115.5 -21zM365 70q55 0 97 25.5
t65 67.5t34 89.5t11 97.5q0 74 -18.5 134.5t-67 103.5t-121.5 43q-55 0 -96.5 -25.5t-64.5 -68t-34.5 -89.5t-11.5 -98q0 -54 11 -102t34.5 -89t65 -65t96.5 -24z" />
    <glyph glyph-name="ohungarumlaut" unicode="&#x151;" horiz-adv-x="558" 
d="M186 576h-88l142 156h124zM390 576h-88l142 156h124zM279 -12q-104 0 -165 71t-61 196t61 196.5t165 71.5t165 -71t61 -196t-61 -196.5t-165 -71.5zM279 69q65 0 101.5 49.5t36.5 137.5q0 87 -36.5 137t-101.5 50t-101.5 -49.5t-36.5 -138.5q0 -87 36.5 -136.5
t101.5 -49.5z" />
    <glyph glyph-name="OE" unicode="&#x152;" horiz-adv-x="902" 
d="M475 0v8q-48 -20 -110 -20q-79 0 -138.5 31.5t-93 85t-49.5 115t-16 130.5q0 53 9 102.5t31.5 97.5t55.5 83.5t85 57t116 21.5q62 0 110 -20v8h363v-82h-276v-215h164v-82h-164v-238h298v-83h-385zM365 70q61 0 110 33v495q-46 33 -110 33q-44 0 -80 -17.5t-59.5 -45
t-39 -65t-22 -75.5t-6.5 -78q0 -55 11 -103t34.5 -88.5t65 -64.5t96.5 -24z" />
    <glyph glyph-name="oe" unicode="&#x153;" horiz-adv-x="901" 
d="M279 -12q-104 0 -165 70.5t-61 196.5q0 125 61 196.5t165 71.5q119 0 182 -95q60 95 181 95q93 0 152.5 -61.5t59.5 -181.5q0 -28 -3 -58h-346q5 -70 43.5 -112.5t95.5 -42.5q65 0 111 46l53 -59q-66 -66 -166 -66q-116 0 -180 98q-61 -98 -183 -98zM504 296h262
q-1 79 -38 114.5t-86 35.5q-58 0 -96 -37.5t-42 -112.5zM279 69q65 0 101.5 49.5t36.5 137.5q0 87 -36.5 137t-101.5 50t-101.5 -49.5t-36.5 -138.5q0 -87 36.5 -136.5t101.5 -49.5z" />
    <glyph glyph-name="Racute" unicode="&#x154;" horiz-adv-x="665" 
d="M211 765l142 156h124l-178 -156h-88zM98 0v700h276q116 0 168.5 -57t52.5 -142q0 -69 -40.5 -123.5t-122.5 -71.5l150 -306h-98l-144 300h-155v-300h-87zM185 381h191q68 0 99.5 34t31.5 84q0 48 -30.5 84t-100.5 36h-191v-238z" />
    <glyph glyph-name="racute" unicode="&#x155;" horiz-adv-x="389" 
d="M122 576l142 156h124l-178 -156h-88zM83 0v511h87v-67q36 79 121 79q48 0 79 -26l-13 -82q-32 22 -73 22q-45 0 -79.5 -35t-34.5 -114v-288h-87z" />
    <glyph glyph-name="Rcommaaccent" unicode="&#x156;" horiz-adv-x="665" 
d="M98 0v700h276q116 0 168.5 -57t52.5 -142q0 -69 -40.5 -123.5t-122.5 -71.5l150 -306h-98l-144 300h-155v-300h-87zM185 381h191q68 0 99.5 34t31.5 84q0 48 -30.5 84t-100.5 36h-191v-238zM291 -241q35 30 45 72q-27 0 -43.5 16.5t-16.5 41.5q0 26 17.5 42.5t40.5 16.5
q25 0 43 -17.5t18 -47.5q0 -83 -78 -137z" />
    <glyph glyph-name="rcommaaccent" unicode="&#x157;" horiz-adv-x="389" 
d="M83 0v511h87v-67q36 79 121 79q48 0 79 -26l-13 -82q-32 22 -73 22q-45 0 -79.5 -35t-34.5 -114v-288h-87zM84 -261q35 30 45 72q-27 0 -43.5 16.5t-16.5 41.5q0 26 17.5 42.5t40.5 16.5q25 0 43 -17.5t18 -47.5q0 -83 -78 -137z" />
    <glyph glyph-name="Rcaron" unicode="&#x158;" horiz-adv-x="665" 
d="M365 765h-83l-146 156h83l105 -90l105 90h82zM98 0v700h276q116 0 168.5 -57t52.5 -142q0 -69 -40.5 -123.5t-122.5 -71.5l150 -306h-98l-144 300h-155v-300h-87zM185 381h191q68 0 99.5 34t31.5 84q0 48 -30.5 84t-100.5 36h-191v-238z" />
    <glyph glyph-name="rcaron" unicode="&#x159;" horiz-adv-x="389" 
d="M276 576h-83l-146 156h83l105 -90l105 90h82zM83 0v511h87v-67q36 79 121 79q48 0 79 -26l-13 -82q-32 22 -73 22q-45 0 -79.5 -35t-34.5 -114v-288h-87z" />
    <glyph glyph-name="Sacute" unicode="&#x15a;" horiz-adv-x="599" 
d="M201 765l142 156h124l-178 -156h-88zM302 -12q-89 0 -154.5 43.5t-89.5 112.5l82 30q22 -48 65 -76t99 -28q64 0 101 30.5t37 87.5q0 55 -41.5 88t-116.5 60q-36 13 -59.5 23t-54 28.5t-48.5 38t-30.5 49t-12.5 64.5q0 73 58 123t157 50q81 0 135 -34.5t70 -90.5l-80 -27
q-14 31 -48 51t-83 20q-55 0 -87 -24.5t-32 -67.5q0 -23 11.5 -42t36 -34t45.5 -24t58 -23q46 -17 76 -32.5t65 -41.5t53 -64.5t18 -87.5q0 -94 -64 -148t-166 -54z" />
    <glyph glyph-name="sacute" unicode="&#x15b;" horiz-adv-x="469" 
d="M132 576l142 156h124l-178 -156h-88zM234 -12q-55 0 -104.5 23.5t-80.5 62.5l62 53q57 -61 125 -61q43 0 69 16.5t26 48.5q0 24 -19 43.5t-39 29t-59 24.5q-78 29 -118 65t-40 95q0 62 48.5 98.5t123.5 36.5q107 0 172 -77l-60 -50q-47 49 -113 49q-39 0 -62 -15t-23 -42
q0 -15 7.5 -27.5t27 -23.5t31 -16.5t42.5 -17.5q81 -29 123.5 -66t42.5 -104q0 -68 -49 -106.5t-133 -38.5z" />
    <glyph glyph-name="Scircumflex" unicode="&#x15c;" horiz-adv-x="599" 
d="M400 765l-105 90l-105 -90h-83l147 156h82l146 -156h-82zM302 -12q-89 0 -154.5 43.5t-89.5 112.5l82 30q22 -48 65 -76t99 -28q64 0 101 30.5t37 87.5q0 55 -41.5 88t-116.5 60q-36 13 -59.5 23t-54 28.5t-48.5 38t-30.5 49t-12.5 64.5q0 73 58 123t157 50
q81 0 135 -34.5t70 -90.5l-80 -27q-14 31 -48 51t-83 20q-55 0 -87 -24.5t-32 -67.5q0 -23 11.5 -42t36 -34t45.5 -24t58 -23q46 -17 76 -32.5t65 -41.5t53 -64.5t18 -87.5q0 -94 -64 -148t-166 -54z" />
    <glyph glyph-name="scircumflex" unicode="&#x15d;" horiz-adv-x="469" 
d="M333 576l-105 90l-105 -90h-83l147 156h82l146 -156h-82zM234 -12q-55 0 -104.5 23.5t-80.5 62.5l62 53q57 -61 125 -61q43 0 69 16.5t26 48.5q0 24 -19 43.5t-39 29t-59 24.5q-78 29 -118 65t-40 95q0 62 48.5 98.5t123.5 36.5q107 0 172 -77l-60 -50q-47 49 -113 49
q-39 0 -62 -15t-23 -42q0 -15 7.5 -27.5t27 -23.5t31 -16.5t42.5 -17.5q81 -29 123.5 -66t42.5 -104q0 -68 -49 -106.5t-133 -38.5z" />
    <glyph glyph-name="Scedilla" unicode="&#x15e;" horiz-adv-x="599" 
d="M297 -237q-59 0 -94 33l48 34q10 -13 38 -13q22 0 36.5 13.5t14.5 34.5q0 19 -17 32t-40 13q-24 0 -38 -7l-16 20l52 66q-82 5 -141.5 47.5t-81.5 107.5l82 30q21 -48 64 -75.5t100 -27.5q64 0 100.5 30t36.5 87q0 54 -41.5 87.5t-115.5 60.5q-47 17 -75 30.5t-62.5 37.5
t-51 57.5t-16.5 77.5q0 73 58 123t157 50q81 0 135 -34.5t70 -90.5l-80 -27q-14 31 -48 50.5t-83 19.5q-55 0 -86.5 -24t-31.5 -67t38 -69.5t112 -53.5q46 -17 76 -32t65 -41.5t53 -65t18 -87.5q0 -87 -54.5 -140t-143.5 -61l-25 -42q55 0 81 -24t26 -59q0 -44 -33.5 -72.5
t-85.5 -28.5z" />
    <glyph glyph-name="scedilla" unicode="&#x15f;" horiz-adv-x="469" 
d="M217 -237q-59 0 -94 33l48 34q10 -13 38 -13q22 0 36.5 13.5t14.5 34.5q0 19 -17 32t-40 13q-24 0 -38 -7l-16 20l53 67q-99 14 -153 84l62 53q57 -61 125 -61q43 0 69 16.5t26 48.5q0 9 -2 17t-7.5 15.5t-10.5 13t-15 12t-16 10t-20 10t-20 9t-22 9t-22 8.5
q-33 14 -53 25t-43 29.5t-33.5 42.5t-10.5 56q0 62 48.5 98.5t123.5 36.5q107 0 172 -77l-60 -50q-47 49 -113 49q-39 0 -62 -15t-23 -42q0 -20 18 -37t34.5 -24.5t57.5 -23.5q8 -3 12 -5q27 -11 44.5 -19t40 -22.5t35.5 -30t22.5 -40t9.5 -53.5q0 -64 -43.5 -102
t-118.5 -42l-25 -42q55 0 81 -24t26 -59q0 -44 -33.5 -72.5t-85.5 -28.5z" />
    <glyph glyph-name="Scaron" unicode="&#x160;" horiz-adv-x="599" 
d="M336 765h-83l-146 156h83l105 -90l105 90h82zM302 -12q-89 0 -154.5 43.5t-89.5 112.5l82 30q22 -48 65 -76t99 -28q64 0 101 30.5t37 87.5q0 55 -41.5 88t-116.5 60q-36 13 -59.5 23t-54 28.5t-48.5 38t-30.5 49t-12.5 64.5q0 73 58 123t157 50q81 0 135 -34.5t70 -90.5
l-80 -27q-14 31 -48 51t-83 20q-55 0 -87 -24.5t-32 -67.5q0 -23 11.5 -42t36 -34t45.5 -24t58 -23q46 -17 76 -32.5t65 -41.5t53 -64.5t18 -87.5q0 -94 -64 -148t-166 -54z" />
    <glyph glyph-name="scaron" unicode="&#x161;" horiz-adv-x="469" 
d="M269 576h-83l-146 156h83l105 -90l105 90h82zM234 -12q-55 0 -104.5 23.5t-80.5 62.5l62 53q57 -61 125 -61q43 0 69 16.5t26 48.5q0 24 -19 43.5t-39 29t-59 24.5q-78 29 -118 65t-40 95q0 62 48.5 98.5t123.5 36.5q107 0 172 -77l-60 -50q-47 49 -113 49q-39 0 -62 -15
t-23 -42q0 -15 7.5 -27.5t27 -23.5t31 -16.5t42.5 -17.5q81 -29 123.5 -66t42.5 -104q0 -68 -49 -106.5t-133 -38.5z" />
    <glyph glyph-name="uni0162" unicode="&#x162;" horiz-adv-x="583" 
d="M272 -237q-59 0 -94 33l49 34q10 -13 37 -13q22 0 37 13.5t15 34.5q0 19 -17.5 32t-40.5 13q-24 0 -38 -7l-16 20l62 77h-18v618h-195v82h477v-82h-195v-618h-18l-33 -53q55 0 81.5 -24t26.5 -59q0 -44 -33.5 -72.5t-86.5 -28.5z" />
    <glyph glyph-name="uni0163" unicode="&#x163;" horiz-adv-x="374" 
d="M184 -237q-59 0 -94 33l49 34q10 -13 37 -13q22 0 37 13.5t15 34.5q0 19 -17.5 32t-40.5 13q-24 0 -38 -7l-16 20l58 73q-61 24 -61 114v325h-83v76h83v169l87 42v-211h126v-76h-126v-296q0 -34 11 -52t42 -18q34 0 76 27l-10 -85q-39 -20 -86 -23h-12l-25 -41
q55 0 81.5 -24t26.5 -59q0 -44 -33.5 -72.5t-86.5 -28.5z" />
    <glyph glyph-name="Tcaron" unicode="&#x164;" horiz-adv-x="583" 
d="M333 765h-83l-146 156h83l105 -90l105 90h82zM335 617v-617h-87v617h-195v83h477v-83h-195z" />
    <glyph glyph-name="tcaron" unicode="&#x165;" horiz-adv-x="417" 
d="M398 840v-8q0 -140 -89 -228l-26 19q13 28 21.5 91.5t8.5 125.5h85zM221 -12q-108 0 -108 122v325h-83v76h83v169l87 42v-211h126v-76h-126v-296q0 -34 11 -52t42 -18q34 0 76 27l-10 -85q-44 -23 -98 -23z" />
    <glyph glyph-name="Tbar" unicode="&#x166;" horiz-adv-x="578" 
d="M525 617h-193v-258h124v-83h-124v-276h-87v276h-125v83h125v258h-192v83h472v-83z" />
    <glyph glyph-name="tbar" unicode="&#x167;" horiz-adv-x="394" 
d="M233 -12q-107 0 -107 122v117h-83v76h83v132h-83v76h83v169l87 42v-211h125v-76h-125v-132h125v-76h-125v-88q0 -34 11 -52t41 -18q33 0 77 27l-11 -85q-44 -23 -98 -23z" />
    <glyph glyph-name="Utilde" unicode="&#x168;" horiz-adv-x="689" 
d="M423 784q-38 0 -90.5 24.5t-74.5 24.5q-20 0 -33 -11.5t-14 -33.5h-45q0 120 99 120q38 0 90.5 -25t74.5 -25q19 0 32.5 12t14.5 34h45q0 -120 -99 -120zM344 -12q-251 0 -251 275v437h87v-437q0 -107 44 -150t120 -43t120.5 43t44.5 150v437h87v-437q0 -275 -252 -275z
" />
    <glyph glyph-name="utilde" unicode="&#x169;" horiz-adv-x="563" 
d="M357 595q-38 0 -90.5 24.5t-74.5 24.5q-20 0 -33 -11.5t-14 -33.5h-45q0 120 99 120q38 0 90.5 -25t74.5 -25q19 0 32.5 12t14.5 34h45q0 -120 -99 -120zM393 0v49q-47 -61 -129 -61q-93 0 -139.5 54t-46.5 174v295h87v-308q0 -69 29.5 -101.5t80.5 -32.5q118 0 118 132
v310h87v-511h-87z" />
    <glyph glyph-name="Umacron" unicode="&#x16a;" horiz-adv-x="689" 
d="M179 792v74h330v-74h-330zM344 -12q-251 0 -251 275v437h87v-437q0 -107 44 -150t120 -43t120.5 43t44.5 150v437h87v-437q0 -275 -252 -275z" />
    <glyph glyph-name="umacron" unicode="&#x16b;" horiz-adv-x="563" 
d="M113 603v74h330v-74h-330zM393 0v49q-47 -61 -129 -61q-93 0 -139.5 54t-46.5 174v295h87v-308q0 -69 29.5 -101.5t80.5 -32.5q118 0 118 132v310h87v-511h-87z" />
    <glyph glyph-name="Ubreve" unicode="&#x16c;" horiz-adv-x="689" 
d="M344 768q-90 0 -136 46t-46 117h78q0 -41 29 -65.5t75 -24.5q47 0 76 24.5t29 65.5h78q0 -71 -46 -117t-137 -46zM344 -12q-251 0 -251 275v437h87v-437q0 -107 44 -150t120 -43t120.5 43t44.5 150v437h87v-437q0 -275 -252 -275z" />
    <glyph glyph-name="ubreve" unicode="&#x16d;" horiz-adv-x="563" 
d="M278 579q-90 0 -136 46t-46 117h78q0 -41 29 -65.5t75 -24.5q47 0 76 24.5t29 65.5h78q0 -71 -46 -117t-137 -46zM393 0v49q-47 -61 -129 -61q-93 0 -139.5 54t-46.5 174v295h87v-308q0 -69 29.5 -101.5t80.5 -32.5q118 0 118 132v310h87v-511h-87z" />
    <glyph glyph-name="Uring" unicode="&#x16e;" horiz-adv-x="689" 
d="M345 725q-49 0 -84 35t-35 83t35 82t84 34q48 0 83.5 -34t35.5 -82t-35.5 -83t-83.5 -35zM345 789q21 0 35.5 15.5t14.5 38.5q0 24 -14.5 38.5t-35.5 14.5t-36 -15t-15 -38t15 -38.5t36 -15.5zM344 -12q-251 0 -251 275v437h87v-437q0 -107 44 -150t120 -43t120.5 43
t44.5 150v437h87v-437q0 -275 -252 -275z" />
    <glyph glyph-name="uring" unicode="&#x16f;" horiz-adv-x="563" 
d="M278 536q-49 0 -84 35t-35 83t35 82t84 34q48 0 83.5 -34t35.5 -82t-35.5 -83t-83.5 -35zM278 600q21 0 35.5 15.5t14.5 38.5q0 24 -14.5 38.5t-35.5 14.5q-22 0 -36.5 -14.5t-14.5 -38.5q0 -23 15 -38.5t36 -15.5zM393 0v49q-47 -61 -129 -61q-93 0 -139.5 54t-46.5 174
v295h87v-308q0 -69 29.5 -101.5t80.5 -32.5q118 0 118 132v310h87v-511h-87z" />
    <glyph glyph-name="Uhungarumlaut" unicode="&#x170;" horiz-adv-x="689" 
d="M257 765h-88l142 156h124zM461 765h-88l142 156h124zM344 -12q-251 0 -251 275v437h87v-437q0 -107 44 -150t120 -43t120.5 43t44.5 150v437h87v-437q0 -275 -252 -275z" />
    <glyph glyph-name="uhungarumlaut" unicode="&#x171;" horiz-adv-x="563" 
d="M187 576h-88l142 156h124zM391 576h-88l142 156h124zM393 0v49q-47 -61 -129 -61q-93 0 -139.5 54t-46.5 174v295h87v-308q0 -69 29.5 -101.5t80.5 -32.5q118 0 118 132v310h87v-511h-87z" />
    <glyph glyph-name="Uogonek" unicode="&#x172;" horiz-adv-x="689" 
d="M371 -237q-50 0 -82.5 27t-32.5 74q0 77 86 124h-8q-241 7 -241 275v437h87v-437q0 -107 44 -150t122 -43q163 0 163 193v437h87v-437q0 -110 -36.5 -169.5t-103.5 -88.5q-127 -56 -127 -132q0 -27 15 -41t37 -14q29 0 48 21l45 -33q-39 -43 -103 -43z" />
    <glyph glyph-name="uogonek" unicode="&#x173;" horiz-adv-x="563" 
d="M395 -237q-50 0 -82.5 27t-32.5 74q0 89 113 136v49q-47 -61 -129 -61q-93 0 -139.5 54t-46.5 174v295h87v-308q0 -69 29.5 -101.5t80.5 -32.5q118 0 118 132v310h87v-511q-64 -19 -95.5 -53.5t-31.5 -73.5q0 -27 15 -41t37 -14q29 0 48 21l45 -33q-39 -43 -103 -43z" />
    <glyph glyph-name="Wcircumflex" unicode="&#x174;" horiz-adv-x="840" 
d="M525 765l-105 90l-105 -90h-83l147 156h82l146 -156h-82zM193 0l-143 700h91l86 -456q9 -45 13 -75q0 1 19 74l124 457h69l125 -456q12 -45 16 -68q4 26 13 69l95 455h89l-152 -700h-69l-135 478q-15 55 -18 69q-5 -27 -17 -69l-135 -478h-71z" />
    <glyph glyph-name="wcircumflex" unicode="&#x175;" horiz-adv-x="715" 
d="M463 576l-105 90l-105 -90h-83l147 156h82l146 -156h-82zM169 0l-131 511h86l78 -343q1 -6 5 -25t6 -29q2 14 13 54l96 343h72l96 -343l14 -56q2 9 5.5 28t5.5 28l77 343h86l-131 -511h-78l-93 303q-14 45 -19 67q-10 -42 -18 -67l-92 -303h-78z" />
    <glyph glyph-name="Ycircumflex" unicode="&#x176;" horiz-adv-x="641" 
d="M426 765l-105 90l-105 -90h-83l147 156h82l146 -156h-82zM278 0v275l-238 425h98l183 -340l185 340h95l-236 -423v-277h-87z" />
    <glyph glyph-name="ycircumflex" unicode="&#x177;" horiz-adv-x="530" 
d="M368 576l-105 90l-105 -90h-83l147 156h82l146 -156h-82zM144 -194l78 207l-189 498h87l127 -348q7 -17 16 -49q9 32 16 49l129 348h89l-265 -705h-88z" />
    <glyph glyph-name="Ydieresis" unicode="&#x178;" horiz-adv-x="641" 
d="M234 788q-23 0 -39 16t-16 39t16 39t39 16t39 -16t16 -39t-16 -39t-39 -16zM407 788q-23 0 -39 16t-16 39t16 39t39 16t39 -16t16 -39t-16 -39t-39 -16zM278 0v275l-238 425h98l183 -340l185 340h95l-236 -423v-277h-87z" />
    <glyph glyph-name="Zacute" unicode="&#x179;" horiz-adv-x="650" 
d="M239 765l142 156h124l-178 -156h-88zM63 0v67l406 550h-383v83h496v-67l-404 -550h404v-83h-519z" />
    <glyph glyph-name="zacute" unicode="&#x17a;" horiz-adv-x="505" 
d="M161 576l142 156h124l-178 -156h-88zM63 0v64l266 370h-246v77h355v-62l-267 -371h266v-78h-374z" />
    <glyph glyph-name="Zdotaccent" unicode="&#x17b;" horiz-adv-x="650" 
d="M334 788q-23 0 -39 16t-16 39t16 39t39 16t39 -16t16 -39t-16 -39t-39 -16zM63 0v67l406 550h-383v83h496v-67l-404 -550h404v-83h-519z" />
    <glyph glyph-name="zdotaccent" unicode="&#x17c;" horiz-adv-x="505" 
d="M258 599q-23 0 -39 16t-16 39t16 39t39 16t39 -16t16 -39t-16 -39t-39 -16zM63 0v64l266 370h-246v77h355v-62l-267 -371h266v-78h-374z" />
    <glyph glyph-name="Zcaron" unicode="&#x17d;" horiz-adv-x="650" 
d="M388 765h-83l-146 156h83l105 -90l105 90h82zM63 0v67l406 550h-383v83h496v-67l-404 -550h404v-83h-519z" />
    <glyph glyph-name="zcaron" unicode="&#x17e;" horiz-adv-x="505" 
d="M299 576h-83l-146 156h83l105 -90l105 90h82zM63 0v64l266 370h-246v77h355v-62l-267 -371h266v-78h-374z" />
    <glyph glyph-name="longs" unicode="&#x17f;" horiz-adv-x="306" 
d="M88 0v596q0 62 31.5 89t79.5 27q50 0 95 -24v-73q-40 19 -73 19q-28 0 -37 -13.5t-9 -39.5v-581h-87z" />
    <glyph glyph-name="uni0180" unicode="&#x180;" horiz-adv-x="615" 
d="M339 545q106 0 163.5 -73t57.5 -204q0 -133 -58.5 -205.5t-162.5 -72.5q-54 0 -96.5 19.5t-69.5 58.5h-7q-15 -59 -18 -68h-63v605h-76v66h76v89h88v-89h213v-66h-213v-30q0 -55 -5 -110h5q54 80 166 80zM324 472q-81 0 -116 -46t-35 -155v-4q0 -110 36 -157t117 -47
q72 0 107.5 53t35.5 153q0 102 -35.5 152.5t-109.5 50.5z" />
    <glyph glyph-name="uni0181" unicode="&#x181;" horiz-adv-x="729" 
d="M151 637q-61 0 -61 -50q0 -30 10 -54h-79q-4 10 -7.5 26.5t-3.5 28.5q0 65 34.5 95.5t106.5 30.5h230q144 0 207.5 -43t63.5 -134q0 -63 -34.5 -104.5t-101.5 -53.5v-5q82 -14 121 -57t39 -114q0 -96 -66 -149.5t-182 -53.5h-251v637h-26zM267 410h132q84 0 122 27t38 90
q0 59 -41.5 84.5t-132.5 25.5h-118v-227zM267 335v-259h144q86 0 127.5 33.5t41.5 100.5q0 64 -44 94.5t-132 30.5h-137z" />
    <glyph glyph-name="uni0182" unicode="&#x182;" horiz-adv-x="615" 
d="M564 209q0 -105 -63.5 -157t-194.5 -52h-209v714h424v-79h-334v-223h106q137 0 204 -48.5t67 -154.5zM187 77h110q92 0 133 31t41 101q0 68 -43 96.5t-146 28.5h-95v-257z" />
    <glyph glyph-name="uni0183" unicode="&#x183;" horiz-adv-x="615" 
d="M339 545q106 0 163.5 -73t57.5 -204q0 -133 -58.5 -205.5t-162.5 -72.5q-54 0 -96.5 19.5t-69.5 58.5h-7q-15 -59 -18 -68h-63v760h421v-74h-333v-111q0 -55 -5 -110h5q54 80 166 80zM324 472q-81 0 -116 -46t-35 -155v-4q0 -110 36 -157t117 -47q72 0 107.5 53t35.5 153
q0 102 -35.5 152.5t-109.5 50.5z" />
    <glyph glyph-name="uni0184" unicode="&#x184;" horiz-adv-x="634" 
d="M180 210q0 -77 37.5 -110t122.5 -33q80 0 115.5 35.5t35.5 102.5q0 69 -48 99t-140 30h-123v-124zM90 714h90v-302h134q129 0 199.5 -53t70.5 -154t-63.5 -158t-179.5 -57q-251 0 -251 220v504z" />
    <glyph glyph-name="uni0185" unicode="&#x185;" horiz-adv-x="611" 
d="M322 -10q-115 0 -177.5 72.5t-62.5 204.5v493h88v-185q0 -55 -5 -110h5q54 80 166 80q106 0 163.5 -73t57.5 -204q0 -134 -61 -206t-174 -72zM170 265q0 -96 40.5 -149t112.5 -53t107.5 53t35.5 153q0 102 -35.5 152.5t-109.5 50.5q-81 0 -116 -46t-35 -155v-6z" />
    <glyph glyph-name="uni0186" unicode="&#x186;" horiz-adv-x="631" 
d="M243 724q158 0 243 -96t85 -272q0 -110 -39.5 -192.5t-114.5 -128t-174 -45.5q-55 0 -98 6.5t-86 22.5v78q94 -28 170 -28q115 0 181 77t66 211q0 137 -63.5 212.5t-183.5 75.5q-77 0 -162 -39l-36 76q84 42 212 42z" />
    <glyph glyph-name="uni0187" unicode="&#x187;" horiz-adv-x="631" 
d="M403 645q-115 0 -181 -77t-66 -211q0 -138 64 -213t182 -75q76 0 171 28v-78q-45 -17 -87 -23t-97 -6q-158 0 -243 96t-85 272q0 110 41 193t118.5 128t183.5 45q61 0 117 -14v14q0 64 27 99t88 35q30 0 60 -13v-72q-24 10 -52 10q-47 0 -47 -48v-51l-36 -78
q-33 15 -71.5 27t-86.5 12z" />
    <glyph glyph-name="uni0188" unicode="&#x188;" horiz-adv-x="502" 
d="M300 -10q-116 0 -180.5 71t-64.5 204q0 135 65.5 208t185.5 73q27 0 65 -6v91q0 64 26.5 99t88.5 35q29 0 60 -13v-73q-23 10 -52 10q-47 0 -47 -48v-124l-27 -73q-68 25 -116 25q-81 0 -119.5 -51t-38.5 -152q0 -97 38.5 -148.5t114.5 -51.5q71 0 139 31v-78
q-55 -29 -138 -29z" />
    <glyph glyph-name="uni0189" unicode="&#x189;" horiz-adv-x="729" 
d="M98 310h-68v79h68v311h191q86 0 151 -30t102 -81t54.5 -111t17.5 -128q0 -65 -16.5 -123.5t-52 -111t-102.5 -84t-158 -31.5h-187v310zM296 81q62 0 108.5 23.5t71.5 64t36.5 85.5t11.5 96q0 72 -21 131t-72 99t-124 40h-122v-231h153v-79h-153v-229h111z" />
    <glyph glyph-name="uni018A" unicode="&#x18a;" horiz-adv-x="810" 
d="M654 361q0 136 -67 206t-203 70h-117v-560h97q290 0 290 284zM397 714q168 0 260 -92.5t92 -257.5q0 -177 -96.5 -270.5t-276.5 -93.5h-199v637h-26q-61 0 -61 -50q0 -30 10 -54h-79q-4 10 -7.5 26.5t-3.5 28.5q0 65 34.5 95.5t106.5 30.5h246z" />
    <glyph glyph-name="uni018B" unicode="&#x18b;" horiz-adv-x="615" 
d="M428 335h-82q-106 0 -154 -32t-48 -101q0 -63 44 -94t139 -31h101v258zM518 714v-714h-199q-268 0 -268 198q0 103 73.5 158.5t211.5 55.5h92v223h-334v79h424z" />
    <glyph glyph-name="uni018C" unicode="&#x18c;" horiz-adv-x="615" 
d="M289 63q80 0 117 43.5t37 143.5v16q0 112 -37.5 159.5t-117.5 47.5q-68 0 -105 -54t-37 -154t37 -151t106 -51zM530 0h-71l-13 72h-4q-56 -82 -167 -82q-104 0 -162 72.5t-58 204.5q0 131 58 205t163 74q108 0 166 -79h6q-1 10 -3.5 39.5t-2.5 39.5v140h-333v74h421v-760
z" />
    <glyph glyph-name="uni018D" unicode="&#x18d;" horiz-adv-x="604" 
d="M341 294q66 -38 95 -77t29 -87q0 -64 -48 -102t-132 -38q-51 0 -97 11.5t-109 42.5l38 69q37 -21 79 -36t93 -15q40 0 63.5 18.5t23.5 50.5q0 34 -26.5 60t-107.5 70q-104 57 -146 117t-42 136q0 115 66 180.5t184 65.5q112 0 179 -60.5t67 -163.5q0 -87 -54 -149.5
t-155 -92.5zM145 515q0 -62 30 -105.5t96 -77.5q92 22 139.5 74t47.5 131q0 67 -41.5 108.5t-112.5 41.5q-77 0 -118 -44.5t-41 -127.5z" />
    <glyph glyph-name="uni018E" unicode="&#x18e;" horiz-adv-x="556" 
d="M60 79h309v255h-291v78h291v223h-309v79h399v-714h-399v79z" />
    <glyph glyph-name="uni018F" unicode="&#x18f;" horiz-adv-x="738" 
d="M332 646q-110 0 -228 -41v82q61 21 114 29.5t116 8.5q162 0 252.5 -97.5t90.5 -271.5q0 -171 -85 -268.5t-237 -97.5q-147 0 -221.5 92t-74.5 275v34h523q-8 126 -71 190.5t-179 64.5zM355 69q100 0 159.5 63.5t67.5 179.5h-427q0 -125 49 -184t151 -59z" />
    <glyph glyph-name="uni0190" unicode="&#x190;" horiz-adv-x="587" 
d="M87 547q0 82 60.5 129.5t166.5 47.5q64 0 124 -18.5t109 -55.5l-43 -61q-52 36 -94 48.5t-94 12.5q-63 0 -99.5 -30.5t-36.5 -81.5q0 -60 48 -95.5t145 -35.5h97v-75h-102q-110 0 -165 -33t-55 -97q0 -67 48.5 -102.5t139.5 -35.5q105 0 214 52v-82q-90 -44 -219 -44
q-135 0 -206 52t-71 153q0 76 46.5 121t137.5 57v4q-72 12 -111.5 56.5t-39.5 113.5z" />
    <glyph glyph-name="uni0191" unicode="&#x191;" horiz-adv-x="519" 
d="M45 -240q-32 0 -56 13v76q21 -10 45 -10q35 0 49 20t14 62v793h399v-79h-309v-253h290v-79h-290v-386q0 -157 -142 -157z" />
    <glyph glyph-name="florin" unicode="&#x192;" horiz-adv-x="367" 
d="M44 -229l-43 69q73 12 102.5 40t29.5 77v478h-79v76h79v85q0 62 32 89t80 27q51 0 94 -24v-72q-45 18 -73 18q-27 0 -36.5 -14t-9.5 -39v-70h119v-76h-119v-459q0 -94 -45.5 -142.5t-130.5 -62.5z" />
    <glyph glyph-name="uni0193" unicode="&#x193;" horiz-adv-x="728" 
d="M407 377h247v-350q-57 -18 -115.5 -27.5t-135.5 -9.5q-163 0 -252.5 97t-89.5 270q0 112 44.5 195.5t128 127.5t197.5 44q71 0 137 -17v17q0 64 27 99t88 35q29 0 60 -13v-72q-24 10 -52 10q-47 0 -47 -48v-53l-34 -78q-94 41 -184 41q-127 0 -199 -77t-72 -211
q0 -142 68.5 -215.5t200.5 -73.5q72 0 140 17v212h-157v80z" />
    <glyph glyph-name="uni0194" unicode="&#x194;" horiz-adv-x="569" 
d="M334 108q33 -65 50 -121t17 -94q0 -59 -32 -96t-84 -37q-54 0 -85 37.5t-31 95.5q0 78 67 214l-236 607h94q89 -237 136.5 -362t54.5 -167q10 51 50 158l140 371h95zM319 -105q0 26 -8.5 62t-25.5 68q-19 -38 -26.5 -72t-7.5 -56q0 -31 9.5 -45t24.5 -14q34 0 34 57z" />
    <glyph glyph-name="uni0195" unicode="&#x195;" horiz-adv-x="934" 
d="M639 63q67 0 96.5 36t29.5 113v324h88v-327q0 -114 -51 -166.5t-163 -52.5q-110 0 -162 48.5t-52 147.5v157q0 65 -26 97t-83 32q-74 0 -108.5 -45.5t-34.5 -149.5v-277h-88v760h88v-223q0 -44 -5 -75h6q24 42 66 62.5t90 20.5q91 0 137 -46.5t46 -149.5v-157
q0 -65 30.5 -97t95.5 -32z" />
    <glyph glyph-name="uni0196" unicode="&#x196;" horiz-adv-x="348" 
d="M179 714v-549q0 -48 18 -72t59 -24q21 0 44 3.5t38 7.5v-74q-13 -6 -40 -11t-55 -5q-80 0 -116.5 41.5t-36.5 125.5v557h89z" />
    <glyph glyph-name="uni0197" unicode="&#x197;" horiz-adv-x="338" 
d="M298 0h-258v52l84 19v256h-90v78h90v237l-84 20v52h258v-52l-84 -20v-237h90v-78h-90v-256l84 -19v-52z" />
    <glyph glyph-name="uni0198" unicode="&#x198;" horiz-adv-x="619" 
d="M327 405l292 -405h-106q-30 40 -121 172q-71 103 -126 170l-79 -77v-265h-90v714h90v-360q28 35 60 72q21 24 185 225q29 38 54.5 53.5t66.5 15.5q30 0 50 -8v-70q-21 3 -44 3q-17 0 -31.5 -10t-36.5 -36z" />
    <glyph glyph-name="uni0199" unicode="&#x199;" horiz-adv-x="534" 
d="M172 363l-4 -87h4l30 38l34 41l171 181h103l-217 -229l232 -307h-106l-186 250l-61 -53v-197h-87v625q0 140 121 140q33 0 65 -13v-73q-23 10 -52 10q-23 0 -35 -13t-12 -45v-268z" />
    <glyph glyph-name="uni019A" unicode="&#x19a;" horiz-adv-x="257" 
d="M173 420h70v-66h-70v-354h-88v354h-70v66h70v340h88v-340z" />
    <glyph glyph-name="uni019B" unicode="&#x19b;" horiz-adv-x="541" 
d="M-6 0l231 526l-23 64l-106 -32l-19 63l99 30q-13 22 -29.5 32t-45.5 10q-30 0 -56 -6v71q33 8 66 8q53 0 87 -21t59 -69l109 33l19 -63l-102 -32l179 -498q10 -28 21.5 -41t28.5 -13q12 0 30 5v-65q-24 -12 -57 -12q-36 0 -58 18t-38 63l-73 205q-42 119 -50 159h-4
q-16 -62 -55 -154l-122 -281h-91z" />
    <glyph glyph-name="uni019C" unicode="&#x19c;" horiz-adv-x="1029" 
d="M180 714v-506q0 -70 29 -105t92 -35q84 0 124.5 47t40.5 147v452h90v-506q0 -70 29 -105t94 -35q84 0 123.5 49.5t39.5 164.5v432h90v-714h-71l-15 82h-5q-25 -42 -74 -67t-107 -25q-68 0 -110.5 24.5t-64.5 75.5h-5q-28 -48 -79.5 -74t-113.5 -26q-103 0 -150 53
t-47 165v506h90z" />
    <glyph glyph-name="uni019D" unicode="&#x19d;" horiz-adv-x="759" 
d="M97 714h104l22 -35l235 -362l124 -194h4q-1 12 -4 84t-3 104v403h84v-714h-105l-382 593h-4l2 -40q6 -89 6 -154v-482q0 -83 -34 -120t-101 -37q-32 0 -56 13v76q21 -10 45 -10q35 0 49 20t14 62v793z" />
    <glyph glyph-name="uni019E" unicode="&#x19e;" horiz-adv-x="618" 
d="M450 -240v583q0 64 -28.5 96.5t-91.5 32.5q-83 0 -120 -46.5t-37 -147.5v-278h-88v536h71l13 -73h5q25 40 70 61.5t99 21.5q99 0 146.5 -48t47.5 -149v-589h-87z" />
    <glyph glyph-name="uni019F" unicode="&#x19f;" horiz-adv-x="782" 
d="M720 358q0 -171 -86.5 -269.5t-242.5 -98.5q-158 0 -244 96.5t-86 272.5q0 174 85.5 270t245.5 96q155 0 241.5 -97.5t86.5 -269.5zM391 68q108 0 167.5 65t65.5 192h-467q6 -127 65.5 -192t168.5 -65zM392 646q-106 0 -165.5 -61.5t-69.5 -181.5h466q-9 121 -67.5 182
t-163.5 61z" />
    <glyph glyph-name="Ohorn" unicode="&#x1a0;" horiz-adv-x="784" 
d="M719 358q0 -173 -86.5 -270.5t-241.5 -97.5q-158 0 -244 96t-86 273q0 176 86 271t245 95t247 -104q33 9 48.5 39.5t15.5 99.5h95l7 -11q-15 -78 -47.5 -120.5t-83.5 -61.5q45 -85 45 -209zM156 358q0 -142 59.5 -216t175.5 -74t174.5 73t58.5 217q0 143 -58.5 215.5
t-173.5 72.5q-118 0 -177 -73.5t-59 -214.5z" />
    <glyph glyph-name="ohorn" unicode="&#x1a1;" horiz-adv-x="616" 
d="M551 269q0 -131 -66.5 -205t-183.5 -74q-73 0 -129 34t-86.5 97.5t-30.5 147.5q0 131 65.5 204t183.5 73q53 0 97.5 -18t76.5 -51q24 7 38.5 23.5t21.5 41t7 76.5h94l7 -11q-16 -79 -46.5 -121.5t-82.5 -61.5q34 -69 34 -155zM146 269q0 -105 38.5 -155.5t118.5 -50.5
q83 0 120 52t37 154q0 100 -38 151.5t-120 51.5q-83 0 -119.5 -51.5t-36.5 -151.5z" />
    <glyph glyph-name="uni01A2" unicode="&#x1a2;" horiz-adv-x="1075" 
d="M688 358q0 -173 -82.5 -270.5t-230.5 -97.5q-150 0 -232 96.5t-82 272.5q0 174 82 270t233 96q142 0 224 -91q28 43 78 67t110 24q102 0 149.5 -52.5t47.5 -165.5v-507h-90v507q0 70 -29 105t-92 35q-53 0 -86.5 -15t-52.5 -46q53 -92 53 -228zM156 358q0 -142 56 -216
t163 -74t162.5 73t55.5 217q0 143 -55 215.5t-162 72.5q-108 0 -164 -73.5t-56 -214.5z" />
    <glyph glyph-name="uni01A3" unicode="&#x1a3;" horiz-adv-x="845" 
d="M526 269q0 -132 -63.5 -205.5t-173.5 -73.5q-69 0 -122.5 34t-82.5 98t-29 147q0 130 62.5 203.5t173.5 73.5q106 0 169 -72q26 37 64 54.5t80 17.5q80 0 120 -47t40 -150v-589h-87v585q0 127 -92 127q-63 0 -94 -44q35 -63 35 -159zM146 269q0 -101 36.5 -153.5
t107.5 -52.5t108 52t37 154q0 101 -37 152t-108 51q-144 0 -144 -203z" />
    <glyph glyph-name="uni01A4" unicode="&#x1a4;" horiz-adv-x="685" 
d="M267 355h72q106 0 154 34.5t48 110.5q0 69 -44.5 103t-138.5 34h-91v-282zM366 714q268 0 268 -210q0 -109 -74.5 -167.5t-210.5 -58.5h-82v-278h-90v637h-26q-61 0 -61 -50q0 -30 10 -54h-79q-4 10 -7.5 26.5t-3.5 28.5q0 65 34.5 95.5t106.5 30.5h215z" />
    <glyph glyph-name="uni01A5" unicode="&#x1a5;" horiz-adv-x="615" 
d="M207 765q33 0 65 -13v-73q-23 10 -52 10q-23 0 -35 -13t-12 -45v-80q0 -30 -4 -68l-2 -20h6q31 44 72 63.5t95 19.5q104 0 162 -72.5t58 -204.5q0 -131 -58 -205t-163 -74q-108 0 -166 78h-6l2 -20q4 -38 4 -68v-220h-88l1 865q0 140 121 140zM324 472q-80 0 -115 -45
t-36 -141v-17q0 -109 36 -157.5t117 -48.5q67 0 105 54.5t38 152.5t-38 150t-107 52z" />
    <glyph glyph-name="uni01A6" unicode="&#x1a6;" horiz-adv-x="622" 
d="M187 271h107q87 0 127 34t40 102q0 67 -40.5 98t-131.5 31h-102v-265zM187 195v-195h-90v714h90v-100h107q133 0 196.5 -50.5t63.5 -152.5q0 -142 -143 -191l196 -320h-105l-173 295h-142z" />
    <glyph glyph-name="uni01A7" unicode="&#x1a7;" horiz-adv-x="548" 
d="M47 191q0 48 20 84t61 63.5t124 58.5q68 25 98.5 44t44 42t13.5 58q0 49 -36 76.5t-99 27.5q-72 0 -154 -38l-28 77q85 40 180 40q102 0 165 -49.5t63 -132.5q0 -76 -41.5 -125.5t-142.5 -86.5q-78 -28 -113 -48t-50 -43t-15 -56q0 -54 40.5 -84.5t120.5 -30.5
q91 0 200 47v-86q-34 -17 -85 -28t-111 -11q-120 0 -187.5 54t-67.5 147z" />
    <glyph glyph-name="uni01A8" unicode="&#x1a8;" horiz-adv-x="479" 
d="M45 148q0 37 15 64t46.5 48.5t99.5 46.5q88 34 113 53t25 49t-28 47.5t-83 17.5q-50 0 -132 -34l-30 70q81 36 156 36q98 0 149.5 -36.5t51.5 -105.5q0 -37 -14.5 -63t-45 -47t-106.5 -50q-53 -20 -81 -35.5t-39.5 -31t-11.5 -37.5q0 -39 32 -59t95 -20q84 0 170 43v-80
q-62 -34 -168 -34q-214 0 -214 158z" />
    <glyph glyph-name="uni01A9" unicode="&#x1a9;" horiz-adv-x="569" 
d="M36 0v74l234 299l-228 266v75h475v-80h-325l-47 1l225 -261l-235 -296l163 1h248v-79h-510z" />
    <glyph glyph-name="uni01AA" unicode="&#x1aa;" horiz-adv-x="309" 
d="M67 542q-60 0 -91.5 29.5t-31.5 82.5q0 54 32.5 82.5t92.5 28.5q63 0 96.5 -36t33.5 -105v-696q0 -49 18 -72.5t59 -23.5q19 0 43.5 3t38.5 8v-67q-15 -7 -41.5 -11.5t-52.5 -4.5q-80 0 -116 41t-36 126v615h-45zM63 693q-21 0 -30 -12t-9 -27q0 -40 49 -40h39v13
q0 35 -12.5 50.5t-36.5 15.5z" />
    <glyph glyph-name="uni01AB" unicode="&#x1ab;" horiz-adv-x="360" 
d="M222 -240q-29 0 -60 12v73q22 -9 50 -9q48 0 48 52v102h-11q-157 0 -157 166v312h-76v42l77 35l35 114h52v-123h155v-68h-155v-310q0 -46 22.5 -71t61.5 -25q17 0 40 3.5t35 7.5v-180q0 -133 -117 -133z" />
    <glyph glyph-name="uni01AC" unicode="&#x1ac;" horiz-adv-x="576" 
d="M151 635q-61 0 -61 -48q0 -30 10 -54h-79q-4 10 -7.5 26.5t-3.5 28.5q0 65 34.5 95.5t106.5 30.5h414v-79h-222v-635h-90v635h-102z" />
    <glyph glyph-name="uni01AD" unicode="&#x1ad;" horiz-adv-x="360" 
d="M180 536h155v-68h-155v-310q0 -46 22.5 -71t61.5 -25q17 0 40 3.5t35 7.5v-67q-12 -5 -38 -10.5t-52 -5.5q-157 0 -157 166v312h-76v42l77 35v66q0 154 147 154q39 0 77 -13v-73q-11 4 -34.5 7t-42.5 3q-32 0 -46 -17t-14 -51v-85z" />
    <glyph glyph-name="uni01AE" unicode="&#x1ae;" horiz-adv-x="556" 
d="M233 635h-223v79h535v-79h-222v-714q0 -42 14.5 -62t48.5 -20q24 0 45 10v-76q-24 -13 -63 -13q-68 0 -101.5 37t-33.5 120v718z" />
    <glyph glyph-name="Uhorn" unicode="&#x1af;" horiz-adv-x="779" 
d="M640 714v-97q40 5 59 37t19 106h93l7 -11q-16 -90 -59 -135.5t-119 -58.5v-303q0 -125 -70.5 -193.5t-200.5 -68.5q-133 0 -206 70.5t-73 193.5v460h90v-464q0 -86 47.5 -134t143.5 -48q88 0 134 46.5t46 136.5v463h89z" />
    <glyph glyph-name="uhorn" unicode="&#x1b0;" horiz-adv-x="673" 
d="M168 535v-344q0 -65 29 -96.5t90 -31.5q83 0 120.5 46t37.5 148v278h88v-59q39 6 57 37.5t18 105.5h93l7 -11q-16 -93 -59 -139.5t-116 -54.5v-414h-72l-13 71h-4q-24 -39 -67.5 -60t-100.5 -21q-98 0 -147.5 46.5t-49.5 148.5v350h89z" />
    <glyph glyph-name="uni01B1" unicode="&#x1b1;" horiz-adv-x="782" 
d="M391 68q114 0 173 62t59 183q0 110 -40.5 189t-126.5 140v72h288v-79h-178q74 -57 113 -141t39 -184q0 -150 -87 -235.5t-240 -85.5q-155 0 -241.5 85t-86.5 235q0 100 39 185t112 141h-177v79h288v-72q-87 -62 -127.5 -142t-40.5 -187q0 -120 59.5 -182.5t174.5 -62.5z
" />
    <glyph glyph-name="uni01B2" unicode="&#x1b2;" horiz-adv-x="600" 
d="M571 580q0 -53 -45 -157l-181 -423h-90l-255 714h94l162 -466q31 -88 45 -156q8 30 27 73q21 50 32 81l85 203q36 88 36 125q0 39 -16 55t-47 16q-24 0 -45 -10v76q22 13 63 13q135 0 135 -144z" />
    <glyph glyph-name="uni01B3" unicode="&#x1b3;" horiz-adv-x="565" 
d="M39 649q-21 0 -39 -8v73q28 11 60 11q37 0 59.5 -17.5t40.5 -57.5l128 -287l181 351h97l-233 -437v-277h-90v273l-162 341q-18 35 -42 35z" />
    <glyph glyph-name="uni01B4" unicode="&#x1b4;" horiz-adv-x="541" 
d="M485 546q33 0 57 -12v-65q-18 5 -30 5q-18 0 -28.5 -13t-21.5 -41l-183 -494q-32 -87 -79 -126.5t-116 -39.5q-37 0 -73 8v70q24 -6 59 -6q85 0 121 95l26 71l-216 538h94l116 -305q37 -100 45 -146h4q8 36 48 147l76 217q19 54 41 75.5t60 21.5z" />
    <glyph glyph-name="uni01B5" unicode="&#x1b5;" horiz-adv-x="571" 
d="M79 407h184l151 227h-364v80h473v-68l-159 -239h122v-71h-169l-170 -256h386v-80h-495v68l178 268h-137v71z" />
    <glyph glyph-name="uni01B6" unicode="&#x1b6;" horiz-adv-x="470" 
d="M57 313h161l109 155h-271v68h368v-66l-111 -157h101v-70h-151l-123 -175h291v-68h-392v58l130 185h-112v70z" />
    <glyph glyph-name="uni01B7" unicode="&#x1b7;" horiz-adv-x="583" 
d="M291 440q68 -2 122.5 -30t85 -76.5t30.5 -112.5q0 -109 -76 -170t-212 -61q-126 0 -206 39v82q49 -23 104 -35t103 -12q97 0 145 41t48 117q0 69 -49.5 107t-143.5 38h-62v65l206 202h-331v80h444v-71z" />
    <glyph glyph-name="uni01B8" unicode="&#x1b8;" horiz-adv-x="583" 
d="M85 643v71h444v-80h-330l205 -202v-65h-78q-84 0 -130.5 -40.5t-46.5 -113.5q0 -71 49.5 -110t143.5 -39q49 0 103.5 11.5t103.5 35.5v-82q-45 -21 -98.5 -30t-119.5 -9q-87 0 -149 27t-94.5 77t-32.5 117q0 68 30 119t84.5 79.5t123.5 30.5z" />
    <glyph glyph-name="uni01B9" unicode="&#x1b9;" horiz-adv-x="498" 
d="M61 472v64h409v-74h-306l219 -243v-61h-59q-101 0 -151.5 -42.5t-50.5 -124.5q0 -71 47 -114.5t126 -43.5q100 0 189 42v-80q-68 -35 -196 -35q-113 0 -183.5 63t-70.5 166q0 105 64.5 168t181.5 71z" />
    <glyph glyph-name="uni01BA" unicode="&#x1ba;" horiz-adv-x="498" 
d="M216 -167q84 0 160 36v-80q-60 -29 -161 -29q-90 0 -138.5 31t-48.5 88q0 62 46.5 91.5t137.5 29.5q80 0 114.5 27.5t34.5 94.5q0 60 -44.5 88t-142.5 28h-59v61l183 163h-270v74h394v-64l-187 -164q104 -5 159 -51.5t55 -133.5q0 -95 -59.5 -145.5t-175.5 -50.5
q-53 0 -78 -10.5t-25 -37.5q0 -21 26.5 -33.5t78.5 -12.5z" />
    <glyph glyph-name="uni01BB" unicode="&#x1bb;" horiz-adv-x="569" 
d="M78 419h241q27 44 39 82t12 81q0 50 -29.5 78t-82.5 28q-45 0 -81.5 -16.5t-73.5 -49.5l-47 59q93 84 204 84q94 0 147.5 -48.5t53.5 -132.5q0 -42 -10.5 -81.5t-35.5 -83.5h100v-70h-144q-11 -16 -23.5 -32.5t-201.5 -242.5v-4h374v-70h-472v73l175 215l47 61h-192v70z
" />
    <glyph glyph-name="uni01BC" unicode="&#x1bc;" horiz-adv-x="583" 
d="M224 634v-193h42q77 0 137 -27t93 -76.5t33 -116.5q0 -109 -76 -170t-212 -61q-126 0 -206 39v82q49 -23 104 -35t103 -12q97 0 145 41t48 117q0 68 -47 106.5t-130 38.5h-124v267h-79v80h444v-80h-275z" />
    <glyph glyph-name="uni01BD" unicode="&#x1bd;" horiz-adv-x="490" 
d="M198 462v-117h23q107 0 165.5 -46.5t58.5 -135.5q0 -82 -60.5 -127.5t-168.5 -45.5q-118 0 -183 35v79q89 -42 182 -42q69 0 106 26.5t37 79.5t-37.5 79t-115.5 26h-95v189h-62v74h364v-74h-214z" />
    <glyph glyph-name="uni01BE" unicode="&#x1be;" horiz-adv-x="462" 
d="M136 378v90h-91v42l92 35l35 114h52v-123h155v-68h-155v-92q0 -34 10.5 -49.5t36.5 -24.5q83 -31 115 -66.5t32 -87.5q0 -75 -56 -116.5t-158 -41.5q-105 0 -168 34v80q86 -43 170 -43q66 0 96.5 21.5t30.5 57.5q0 29 -24 49.5t-90 47.5q-47 20 -65 52t-18 89z" />
    <glyph glyph-name="uni01BF" unicode="&#x1bf;" horiz-adv-x="586" 
d="M173 -240h-88v776h72l12 -73h4q55 83 158 83q96 0 152 -59t56 -164q0 -91 -45.5 -164.5t-130 -117.5t-190.5 -51v-230zM173 62q131 17 203 85.5t72 173.5q0 69 -36 110t-99 41q-73 0 -106.5 -44t-33.5 -142v-224z" />
    <glyph glyph-name="uni01C0" unicode="&#x1c0;" horiz-adv-x="516" 
d="M297 -240h-78v1000h78v-1000z" />
    <glyph glyph-name="uni01C1" unicode="&#x1c1;" horiz-adv-x="516" 
d="M169 -240h-78v1000h78v-1000zM426 -240h-78v1000h78v-1000z" />
    <glyph glyph-name="uni01C2" unicode="&#x1c2;" horiz-adv-x="516" 
d="M65 402h154v358h78v-358h154v-72h-154v-124h154v-72h-154v-374h-78v374h-154v72h154v124h-154v72z" />
    <glyph glyph-name="uni01C3" unicode="&#x1c3;" horiz-adv-x="269" 
d="M163 201h-57l-25 513h107zM72 54q0 32 16 49.5t46 17.5t46 -18t16 -49t-16.5 -49.5t-45.5 -18.5q-30 0 -46 18t-16 50z" />
    <glyph glyph-name="uni01C4" unicode="&#x1c4;" horiz-adv-x="1291" 
d="M926 741h-83l-146 156h83l105 -90l105 90h82zM98 700h191q86 0 151 -30t102 -81t54.5 -111t17.5 -128q0 -65 -16.5 -123.5t-52 -111t-102.5 -84t-158 -31.5h-187v700zM296 81q62 0 108.5 23.5t71.5 64t36.5 85.5t11.5 96q0 72 -21 131t-72 99t-124 40h-122v-539h111z
M783 0v67l406 550h-383v83h496v-67l-404 -550h404v-83h-519z" />
    <glyph glyph-name="uni01C5" unicode="&#x1c5;" horiz-adv-x="1200" 
d="M899 576h-83l-146 156h83l105 -90l105 90h82zM98 700h191q86 0 151 -30t102 -81t54.5 -111t17.5 -128q0 -65 -16.5 -123.5t-52 -111t-102.5 -84t-158 -31.5h-187v700zM296 81q62 0 108.5 23.5t71.5 64t36.5 85.5t11.5 96q0 72 -21 131t-72 99t-124 40h-122v-539h111z
M793 0v64l266 370h-246v77h355v-62l-267 -371h266v-78h-374z" />
    <glyph glyph-name="uni01C6" unicode="&#x1c6;" horiz-adv-x="1084" 
d="M786 576h-83l-146 156h83l105 -90l105 90h82zM264 -12q-97 0 -154 72t-57 196q0 125 57.5 196t153.5 71q75 0 129 -48v206l87 41v-722h-87v40q-50 -52 -129 -52zM276 69q76 0 117 69v240q-41 65 -117 65q-65 0 -100 -48.5t-35 -138.5q0 -81 36.5 -134t98.5 -53zM678 0v64
l266 370h-246v77h355v-62l-267 -371h266v-78h-374z" />
    <glyph glyph-name="uni01C7" unicode="&#x1c7;" horiz-adv-x="796" 
d="M98 0v700h87v-616h344v-84h-431zM754 -12q-148 0 -202 126l72 37q21 -43 50 -62t81 -19q133 0 133 157v473h87v-470q0 -69 -20 -118.5t-54 -75t-70.5 -37t-76.5 -11.5z" />
    <glyph glyph-name="uni01C8" unicode="&#x1c8;" horiz-adv-x="782" 
d="M98 0v700h87v-616h344v-84h-431zM652 604q-23 0 -39 15.5t-16 38.5t16 39.5t39 16.5t38.5 -16.5t15.5 -39.5t-15.5 -38.5t-38.5 -15.5zM518 -214l-41 66q74 12 102.5 38t28.5 74v547h87v-515q0 -93 -38 -138q-48 -59 -139 -72z" />
    <glyph glyph-name="uni01C9" unicode="&#x1c9;" horiz-adv-x="516" 
d="M88 0v681l87 41v-722h-87zM386 604q-23 0 -39 15.5t-16 38.5t16 39.5t39 16.5t38.5 -16.5t15.5 -39.5t-15.5 -38.5t-38.5 -15.5zM252 -214l-41 66q74 12 102.5 38t28.5 74v547h87v-515q0 -93 -38 -138q-48 -59 -139 -72z" />
    <glyph glyph-name="uni01CA" unicode="&#x1ca;" horiz-adv-x="1033" 
d="M610 0h-84l-315 500q-18 29 -28 49q2 -30 2 -49v-500h-87v700h88l310 -498q16 -26 29 -52q-2 36 -2 51v499h87v-700zM990 -12q-148 0 -202 126l72 37q21 -43 50 -62t81 -19q133 0 133 157v473h87v-470q0 -69 -20 -118.5t-54 -75t-70.5 -37t-76.5 -11.5z" />
    <glyph glyph-name="uni01CB" unicode="&#x1cb;" horiz-adv-x="1018" 
d="M610 0h-84l-315 500q-18 29 -28 49q2 -30 2 -49v-500h-87v700h88l310 -498q16 -26 29 -52q-2 36 -2 51v499h87v-700zM888 604q-23 0 -39 15.5t-16 38.5t16 39.5t39 16.5t38.5 -16.5t15.5 -39.5t-15.5 -38.5t-38.5 -15.5zM754 -214l-41 66q74 12 102.5 38t28.5 74v547h87
v-515q0 -93 -38 -138q-48 -59 -139 -72z" />
    <glyph glyph-name="uni01CC" unicode="&#x1cc;" horiz-adv-x="875" 
d="M398 0v309q0 69 -29.5 101.5t-80.5 32.5q-118 0 -118 -132v-311h-87v511h87v-52q47 64 132 64q90 0 136.5 -54.5t46.5 -174.5v-294h-87zM746 604q-23 0 -39 15.5t-16 38.5t16 39.5t39 16.5t38.5 -16.5t15.5 -39.5t-15.5 -38.5t-38.5 -15.5zM612 -214l-41 66
q74 12 102.5 38t28.5 74v547h87v-515q0 -93 -38 -138q-48 -59 -139 -72z" />
    <glyph glyph-name="uni01CD" unicode="&#x1cd;" horiz-adv-x="679" 
d="M381 765h-83l-146 156h83l105 -90l105 90h82zM539 0l-60 171h-278l-59 -171h-91l248 700h81l248 -700h-89zM452 248l-90 259q-17 49 -22 71q-11 -39 -22 -71l-91 -259h225z" />
    <glyph glyph-name="uni01CE" unicode="&#x1ce;" horiz-adv-x="526" 
d="M317 576h-83l-146 156h83l105 -90l105 90h82zM376 0v47q-63 -59 -145 -59q-81 0 -129.5 44.5t-48.5 127.5t55 126t136 43q74 0 132 -33v36q0 64 -28.5 89.5t-82.5 25.5q-77 0 -149 -51l-25 73q82 54 185 54q182 0 182 -184v-339h-82zM244 65q75 0 132 67v88
q-55 34 -120 34q-53 0 -87 -24t-34 -70q0 -43 28.5 -69t80.5 -26z" />
    <glyph glyph-name="uni01CF" unicode="&#x1cf;" horiz-adv-x="287" 
d="M185 765h-83l-146 156h83l105 -90l105 90h82zM100 0v700h87v-700h-87z" />
    <glyph glyph-name="uni01D0" unicode="&#x1d0;" horiz-adv-x="254" 
d="M168 576h-83l-146 156h83l105 -90l105 90h82zM84 0v511h87v-511h-87z" />
    <glyph glyph-name="uni01D1" unicode="&#x1d1;" horiz-adv-x="730" 
d="M406 765h-83l-146 156h83l105 -90l105 90h82zM365 -12q-79 0 -138.5 31.5t-93 85t-49.5 115t-16 130.5t16 130.5t49.5 115t93 85t138.5 31.5q64 0 115.5 -21t85 -56t56 -83t32 -98t9.5 -104t-9.5 -104t-32 -98t-56 -83t-85 -56t-115.5 -21zM365 70q55 0 97 25.5t65 67.5
t34 89.5t11 97.5q0 74 -18.5 134.5t-67 103.5t-121.5 43q-55 0 -96.5 -25.5t-64.5 -68t-34.5 -89.5t-11.5 -98q0 -54 11 -102t34.5 -89t65 -65t96.5 -24z" />
    <glyph glyph-name="uni01D2" unicode="&#x1d2;" horiz-adv-x="558" 
d="M320 576h-83l-146 156h83l105 -90l105 90h82zM279 -12q-104 0 -165 71t-61 196t61 196.5t165 71.5t165 -71t61 -196t-61 -196.5t-165 -71.5zM279 69q65 0 101.5 49.5t36.5 137.5q0 87 -36.5 137t-101.5 50t-101.5 -49.5t-36.5 -138.5q0 -87 36.5 -136.5t101.5 -49.5z" />
    <glyph glyph-name="uni01D3" unicode="&#x1d3;" horiz-adv-x="689" 
d="M386 765h-83l-146 156h83l105 -90l105 90h82zM344 -12q-251 0 -251 275v437h87v-437q0 -107 44 -150t120 -43t120.5 43t44.5 150v437h87v-437q0 -275 -252 -275z" />
    <glyph glyph-name="uni01D4" unicode="&#x1d4;" horiz-adv-x="563" 
d="M317 576h-83l-146 156h83l105 -90l105 90h82zM393 0v49q-47 -61 -129 -61q-93 0 -139.5 54t-46.5 174v295h87v-308q0 -69 29.5 -101.5t80.5 -32.5q118 0 118 132v310h87v-511h-87z" />
    <glyph glyph-name="uni01D5" unicode="&#x1d5;" horiz-adv-x="730" 
d="M508 815q0 -23 -12.5 -36t-34.5 -13t-34.5 13t-12.5 36q0 26 14 38t33 12q20 0 33.5 -12t13.5 -38zM320 815q0 -26 -13.5 -37.5t-32.5 -11.5q-22 0 -34.5 13t-12.5 36q0 26 14 38t33 12t32.5 -12t13.5 -38zM219 1001h297v-71h-297v71zM344 -12q-251 0 -251 275v437h87
v-437q0 -107 44 -150t120 -43t120.5 43t44.5 150v437h87v-437q0 -275 -252 -275z" />
    <glyph glyph-name="uni01D6" unicode="&#x1d6;" horiz-adv-x="618" 
d="M447 650q0 -23 -12.5 -36t-34.5 -13t-34.5 13t-12.5 36q0 26 14 38t33 12q20 0 33.5 -12t13.5 -38zM259 650q0 -26 -13.5 -37.5t-32.5 -11.5q-22 0 -34.5 13t-12.5 36q0 26 14 38t33 12t32.5 -12t13.5 -38zM158 836h297v-71h-297v71zM393 0v49q-47 -61 -129 -61
q-93 0 -139.5 54t-46.5 174v295h87v-308q0 -69 29.5 -101.5t80.5 -32.5q118 0 118 132v310h87v-511h-87z" />
    <glyph glyph-name="uni01D7" unicode="&#x1d7;" horiz-adv-x="730" 
d="M499 815q0 -23 -12.5 -36t-34.5 -13t-34.5 13t-12.5 36q0 26 14 38t33 12q20 0 33.5 -12t13.5 -38zM311 815q0 -26 -13.5 -37.5t-32.5 -11.5q-22 0 -34.5 13t-12.5 36q0 26 14 38t33 12t32.5 -12t13.5 -38zM305 903q73 84 96 133h105v-10q-28 -43 -142 -135h-59v12z
M344 -12q-251 0 -251 275v437h87v-437q0 -107 44 -150t120 -43t120.5 43t44.5 150v437h87v-437q0 -275 -252 -275z" />
    <glyph glyph-name="uni01D8" unicode="&#x1d8;" horiz-adv-x="618" 
d="M446 650q0 -23 -12.5 -36t-34.5 -13t-34.5 13t-12.5 36q0 26 14 38t33 12q20 0 33.5 -12t13.5 -38zM258 650q0 -26 -13.5 -37.5t-32.5 -11.5q-22 0 -34.5 13t-12.5 36q0 26 14 38t33 12t32.5 -12t13.5 -38zM252 738q73 84 96 133h105v-10q-28 -43 -142 -135h-59v12z
M393 0v49q-47 -61 -129 -61q-93 0 -139.5 54t-46.5 174v295h87v-308q0 -69 29.5 -101.5t80.5 -32.5q118 0 118 132v310h87v-511h-87z" />
    <glyph glyph-name="uni01D9" unicode="&#x1d9;" horiz-adv-x="730" 
d="M504 815q0 -23 -12.5 -36t-34.5 -13t-34.5 13t-12.5 36q0 26 14 38t33 12q20 0 33.5 -12t13.5 -38zM316 815q0 -26 -13.5 -37.5t-32.5 -11.5q-22 0 -34.5 13t-12.5 36q0 26 14 38t33 12t32.5 -12t13.5 -38zM195 1046h60q26 -17 54 -36t53 -46q27 27 55 46t54 36h62v-13
l-32 -31q-73 -69 -93 -106h-90q-21 36 -92 106l-31 31v13zM344 -12q-251 0 -251 275v437h87v-437q0 -107 44 -150t120 -43t120.5 43t44.5 150v437h87v-437q0 -275 -252 -275z" />
    <glyph glyph-name="uni01DA" unicode="&#x1da;" horiz-adv-x="618" 
d="M444 650q0 -23 -12.5 -36t-34.5 -13t-34.5 13t-12.5 36q0 26 14 38t33 12q20 0 33.5 -12t13.5 -38zM256 650q0 -26 -13.5 -37.5t-32.5 -11.5q-22 0 -34.5 13t-12.5 36q0 26 14 38t33 12t32.5 -12t13.5 -38zM135 881h60q26 -17 54 -36t53 -46q27 27 55 46t54 36h62v-13
l-32 -31q-73 -69 -93 -106h-90q-21 36 -92 106l-31 31v13zM393 0v49q-47 -61 -129 -61q-93 0 -139.5 54t-46.5 174v295h87v-308q0 -69 29.5 -101.5t80.5 -32.5q118 0 118 132v310h87v-511h-87z" />
    <glyph glyph-name="uni01DB" unicode="&#x1db;" horiz-adv-x="730" 
d="M500 815q0 -23 -12.5 -36t-34.5 -13t-34.5 13t-12.5 36q0 26 14 38t33 12q20 0 33.5 -12t13.5 -38zM312 815q0 -26 -13.5 -37.5t-32.5 -11.5q-22 0 -34.5 13t-12.5 36q0 26 14 38t33 12t32.5 -12t13.5 -38zM414 891h-59q-114 91 -142 135v10h105q23 -49 96 -133v-12z
M344 -12q-251 0 -251 275v437h87v-437q0 -107 44 -150t120 -43t120.5 43t44.5 150v437h87v-437q0 -275 -252 -275z" />
    <glyph glyph-name="uni01DC" unicode="&#x1dc;" horiz-adv-x="618" 
d="M447 650q0 -23 -12.5 -36t-34.5 -13t-34.5 13t-12.5 36q0 26 14 38t33 12q20 0 33.5 -12t13.5 -38zM259 650q0 -26 -13.5 -37.5t-32.5 -11.5q-22 0 -34.5 13t-12.5 36q0 26 14 38t33 12t32.5 -12t13.5 -38zM361 726h-59q-114 91 -142 135v10h105q23 -49 96 -133v-12z
M393 0v49q-47 -61 -129 -61q-93 0 -139.5 54t-46.5 174v295h87v-308q0 -69 29.5 -101.5t80.5 -32.5q118 0 118 132v310h87v-511h-87z" />
    <glyph glyph-name="uni01DD" unicode="&#x1dd;" horiz-adv-x="563" 
d="M251 546q121 0 189.5 -73t68.5 -201q0 -129 -64 -205.5t-173 -76.5q-101 0 -161 65.5t-60 176.5v53h367q-2 91 -46 138.5t-125 47.5q-43 0 -81.5 -7.5t-90.5 -29.5v77q44 19 83.5 27t92.5 8zM273 62q63 0 99.5 40.5t43.5 112.5h-273q1 -74 34.5 -113.5t95.5 -39.5z" />
    <glyph glyph-name="uni01DE" unicode="&#x1de;" horiz-adv-x="639" 
d="M460 815q0 -23 -12.5 -36t-34.5 -13t-34.5 13t-12.5 36q0 26 14 38t33 12q20 0 33.5 -12t13.5 -38zM272 815q0 -26 -13.5 -37.5t-32.5 -11.5q-22 0 -34.5 13t-12.5 36q0 26 14 38t33 12t32.5 -12t13.5 -38zM171 1001h297v-71h-297v71zM539 0l-60 171h-278l-59 -171h-91
l248 700h81l248 -700h-89zM452 248l-90 259q-17 49 -22 71q-11 -39 -22 -71l-91 -259h225z" />
    <glyph glyph-name="uni01DF" unicode="&#x1df;" horiz-adv-x="561" 
d="M426 650q0 -23 -12.5 -36t-34.5 -13t-34.5 13t-12.5 36q0 26 14 38t33 12q20 0 33.5 -12t13.5 -38zM238 650q0 -26 -13.5 -37.5t-32.5 -11.5q-22 0 -34.5 13t-12.5 36q0 26 14 38t33 12t32.5 -12t13.5 -38zM137 836h297v-71h-297v71zM376 0v47q-63 -59 -145 -59
q-81 0 -129.5 44.5t-48.5 127.5t55 126t136 43q74 0 132 -33v36q0 64 -28.5 89.5t-82.5 25.5q-77 0 -149 -51l-25 73q82 54 185 54q182 0 182 -184v-339h-82zM244 65q75 0 132 67v88q-55 34 -120 34q-53 0 -87 -24t-34 -70q0 -43 28.5 -69t80.5 -26z" />
    <glyph glyph-name="uni01E0" unicode="&#x1e0;" horiz-adv-x="639" 
d="M269 826q0 29 15 42.5t37 13.5q23 0 37 -15t14 -41t-14.5 -41t-36.5 -15t-37 13.5t-15 42.5zM171 1001h297v-71h-297v71zM539 0l-60 171h-278l-59 -171h-91l248 700h81l248 -700h-89zM452 248l-90 259q-17 49 -22 71q-11 -39 -22 -71l-91 -259h225z" />
    <glyph glyph-name="uni01E1" unicode="&#x1e1;" horiz-adv-x="561" 
d="M235 662q0 29 15 42.5t37 13.5q23 0 37 -15t14 -41t-14.5 -41t-36.5 -15t-37 13.5t-15 42.5zM137 837h297v-71h-297v71zM376 0v47q-63 -59 -145 -59q-81 0 -129.5 44.5t-48.5 127.5t55 126t136 43q74 0 132 -33v36q0 64 -28.5 89.5t-82.5 25.5q-77 0 -149 -51l-25 73
q82 54 185 54q182 0 182 -184v-339h-82zM244 65q75 0 132 67v88q-55 34 -120 34q-53 0 -87 -24t-34 -70q0 -43 28.5 -69t80.5 -26z" />
    <glyph glyph-name="uni01E2" unicode="&#x1e2;" horiz-adv-x="880" 
d="M220 768v74h330v-74h-330zM-14 0l407 700h383v-82h-273v-215h171v-82h-171v-238h295v-83h-382v171h-237l-97 -171h-96zM223 249h193v345q-11 -24 -36 -68z" />
    <glyph glyph-name="uni01E3" unicode="&#x1e3;" horiz-adv-x="863" 
d="M156 603v74h330v-74h-330zM231 -12q-81 0 -129.5 44.5t-48.5 127.5t55 126t136 43q74 0 132 -33v36q0 61 -27.5 88t-83.5 27q-77 0 -149 -51l-25 73q82 54 185 54q112 0 154 -76q61 76 168 76q95 0 153.5 -63t58.5 -180q0 -28 -3 -58h-346q6 -72 44.5 -113.5t94.5 -41.5
q65 0 111 46l53 -59q-66 -66 -166 -66q-116 0 -180 95q-38 -49 -89 -72t-98 -23zM460 298h262q-1 78 -38 113t-85 35q-59 0 -97 -37t-42 -111zM244 65q42 0 78.5 22.5t60.5 55.5q-5 34 -7 77q-58 34 -120 34q-53 0 -87 -24t-34 -70q0 -43 28.5 -69t80.5 -26z" />
    <glyph glyph-name="uni01E4" unicode="&#x1e4;" horiz-adv-x="728" 
d="M407 377h247v-150h64v-71h-64v-129q-57 -18 -115.5 -27.5t-135.5 -9.5q-163 0 -252.5 97t-89.5 270q0 112 44.5 195.5t128 127.5t197.5 44t213 -42l-34 -78q-94 41 -184 41q-127 0 -199 -77t-72 -211q0 -142 68.5 -215.5t200.5 -73.5q72 0 140 17v71h-147v71h147v70h-157
v80z" />
    <glyph glyph-name="uni01E5" unicode="&#x1e5;" horiz-adv-x="615" 
d="M443 15l3 66h-4q-54 -81 -166 -81q-105 0 -163 71t-58 201q0 128 58 201t162 73q109 0 168 -81h5l12 71h70v-545q0 -20 -2 -37h57v-71h-72q-47 -123 -223 -123q-117 0 -193 34v81q78 -42 198 -42q77 0 117 50h-149v71h178l2 30v31zM289 72q83 0 119 42.5t36 136.5v16
q0 107 -37 156t-120 49q-68 0 -104.5 -50.5t-36.5 -150.5q0 -199 143 -199z" />
    <glyph glyph-name="Gcaron" unicode="&#x1e6;" horiz-adv-x="728" 
d="M347 741h-83l-146 156h83l105 -90l105 90h82zM365 -12q-77 0 -135.5 30.5t-93 82.5t-51.5 115t-17 134q0 70 18 133.5t53 115t93.5 82.5t132.5 31q89 0 140.5 -33t86.5 -90l-78 -45q-28 41 -62 63.5t-87 22.5q-45 0 -81 -17t-59 -44.5t-38.5 -64.5t-22 -75.5t-6.5 -78.5
q0 -118 52 -198.5t155 -80.5q71 0 114 44.5t43 116.5v28h-127v80h218v-84q0 -127 -69.5 -197.5t-178.5 -70.5z" />
    <glyph glyph-name="gcaron" unicode="&#x1e7;" horiz-adv-x="615" 
d="M237 576h-83l-146 156h83l105 -90l105 90h82zM240 -207l-42 68q111 6 153.5 38.5t42.5 88.5v62q-45 -62 -132 -62q-90 0 -149.5 70t-59.5 198q0 124 58.5 195.5t153.5 71.5q80 0 129 -54v42h87v-490q0 -117 -62.5 -169t-178.5 -59zM280 69q32 0 63.5 19.5t50.5 52.5v234
q-18 30 -51 49t-63 19q-68 0 -103.5 -48.5t-35.5 -138.5q0 -87 38.5 -137t100.5 -50z" />
    <glyph glyph-name="uni01E8" unicode="&#x1e8;" horiz-adv-x="619" 
d="M263 741h-83l-146 156h83l105 -90l105 90h82zM512 0l-208 385l-119 -146v-239h-87v700h87v-343l273 343h98l-193 -242l250 -458h-101z" />
    <glyph glyph-name="uni01E9" unicode="&#x1e9;" horiz-adv-x="534" 
d="M227 761h-83l-146 156h83l105 -90l105 90h82zM498 0h-95l-158 309l-75 -78v-231h-87v681l87 41v-387l166 176h104l-134 -139z" />
    <glyph glyph-name="uni01EA" unicode="&#x1ea;" horiz-adv-x="780" 
d="M501 -237q-50 0 -82.5 27t-32.5 74q0 49 36 87t101 59h65q-65 -27 -97 -63t-32 -74q0 -27 15 -41t37 -14q29 0 48 21l45 -33q-39 -43 -103 -43zM365 -12q-79 0 -138.5 31.5t-93 85t-49.5 115t-16 130.5t16 130.5t49.5 115t93 85t138.5 31.5q64 0 115.5 -21t85 -56t56 -83
t32 -98t9.5 -104t-9.5 -104t-32 -98t-56 -83t-85 -56t-115.5 -21zM365 70q55 0 97 25.5t65 67.5t34 89.5t11 97.5q0 74 -18.5 134.5t-67 103.5t-121.5 43q-55 0 -96.5 -25.5t-64.5 -68t-34.5 -89.5t-11.5 -98q0 -54 11 -102t34.5 -89t65 -65t96.5 -24z" />
    <glyph glyph-name="uni01EB" unicode="&#x1eb;" horiz-adv-x="604" 
d="M403 -237q-50 0 -82.5 27t-32.5 74q0 49 36 87t101 59h65q-65 -27 -97 -63t-32 -74q0 -27 15 -41t37 -14q29 0 48 21l45 -33q-39 -43 -103 -43zM279 -12q-104 0 -165 71t-61 196t61 196.5t165 71.5t165 -71t61 -196t-61 -196.5t-165 -71.5zM279 69q65 0 101.5 49.5
t36.5 137.5q0 87 -36.5 137t-101.5 50t-101.5 -49.5t-36.5 -138.5q0 -87 36.5 -136.5t101.5 -49.5z" />
    <glyph glyph-name="uni01EC" unicode="&#x1ec;" horiz-adv-x="780" 
d="M501 -237q-50 0 -82.5 27t-32.5 74q0 49 36 87t101 59h65q-65 -27 -97 -63t-32 -74q0 -27 15 -41t37 -14q29 0 48 21l45 -33q-39 -43 -103 -43zM115 768v74h330v-74h-330zM365 -12q-79 0 -138.5 31.5t-93 85t-49.5 115t-16 130.5t16 130.5t49.5 115t93 85t138.5 31.5
q64 0 115.5 -21t85 -56t56 -83t32 -98t9.5 -104t-9.5 -104t-32 -98t-56 -83t-85 -56t-115.5 -21zM365 70q55 0 97 25.5t65 67.5t34 89.5t11 97.5q0 74 -18.5 134.5t-67 103.5t-121.5 43q-55 0 -96.5 -25.5t-64.5 -68t-34.5 -89.5t-11.5 -98q0 -54 11 -102t34.5 -89t65 -65
t96.5 -24z" />
    <glyph glyph-name="uni01ED" unicode="&#x1ed;" horiz-adv-x="604" 
d="M403 -237q-50 0 -82.5 27t-32.5 74q0 49 36 87t101 59h65q-65 -27 -97 -63t-32 -74q0 -27 15 -41t37 -14q29 0 48 21l45 -33q-39 -43 -103 -43zM27 603v74h330v-74h-330zM279 -12q-104 0 -165 71t-61 196t61 196.5t165 71.5t165 -71t61 -196t-61 -196.5t-165 -71.5z
M279 69q65 0 101.5 49.5t36.5 137.5q0 87 -36.5 137t-101.5 50t-101.5 -49.5t-36.5 -138.5q0 -87 36.5 -136.5t101.5 -49.5z" />
    <glyph glyph-name="uni01EE" unicode="&#x1ee;" horiz-adv-x="583" 
d="M202 741h-83l-146 156h83l105 -90l105 90h82zM291 440q68 -2 122.5 -30t85 -76.5t30.5 -112.5q0 -109 -76 -170t-212 -61q-126 0 -206 39v82q49 -23 104 -35t103 -12q97 0 145 41t48 117q0 69 -49.5 107t-143.5 38h-62v65l206 202h-331v80h444v-71z" />
    <glyph glyph-name="uni01EF" unicode="&#x1ef;" horiz-adv-x="498" 
d="M218 228q115 -8 180.5 -68.5t65.5 -158.5q0 -70 -33 -125.5t-93.5 -85.5t-138.5 -30q-117 0 -185 35v80q89 -42 189 -42q79 0 126 45t47 121q0 77 -51 118t-151 41h-59v61l219 243h-306v74h409v-64zM157 576h-83l-146 156h83l105 -90l105 90h82z" />
    <glyph glyph-name="uni01F0" unicode="&#x1f0;" horiz-adv-x="257" 
d="M59 576h-83l-146 156h83l105 -90l105 90h82zM-6 -214l-41 66q74 12 102.5 38t28.5 74v547h87v-515q0 -93 -38 -138q-48 -59 -139 -72z" />
    <glyph glyph-name="uni01F1" unicode="&#x1f1;" horiz-adv-x="1291" 
d="M98 700h191q86 0 151 -30t102 -81t54.5 -111t17.5 -128q0 -65 -16.5 -123.5t-52 -111t-102.5 -84t-158 -31.5h-187v700zM296 81q62 0 108.5 23.5t71.5 64t36.5 85.5t11.5 96q0 72 -21 131t-72 99t-124 40h-122v-539h111zM783 0v67l406 550h-383v83h496v-67l-404 -550h404
v-83h-519z" />
    <glyph glyph-name="uni01F2" unicode="&#x1f2;" horiz-adv-x="1200" 
d="M98 700h191q86 0 151 -30t102 -81t54.5 -111t17.5 -128q0 -65 -16.5 -123.5t-52 -111t-102.5 -84t-158 -31.5h-187v700zM296 81q62 0 108.5 23.5t71.5 64t36.5 85.5t11.5 96q0 72 -21 131t-72 99t-124 40h-122v-539h111zM793 0v64l266 370h-246v77h355v-62l-267 -371h266
v-78h-374z" />
    <glyph glyph-name="uni01F3" unicode="&#x1f3;" horiz-adv-x="1084" 
d="M264 -12q-97 0 -154 72t-57 196q0 125 57.5 196t153.5 71q75 0 129 -48v206l87 41v-722h-87v40q-50 -52 -129 -52zM276 69q76 0 117 69v240q-41 65 -117 65q-65 0 -100 -48.5t-35 -138.5q0 -81 36.5 -134t98.5 -53zM678 0v64l266 370h-246v77h355v-62l-267 -371h266v-78
h-374z" />
    <glyph glyph-name="uni01F4" unicode="&#x1f4;" horiz-adv-x="728" 
d="M365 -12q-77 0 -135.5 30.5t-93 82.5t-51.5 115t-17 134q0 70 18 133.5t53 115t93.5 82.5t132.5 31q89 0 140.5 -33t86.5 -90l-78 -45q-28 41 -62 63.5t-87 22.5q-45 0 -81 -17t-59 -44.5t-38.5 -64.5t-22 -75.5t-6.5 -78.5q0 -118 52 -198.5t155 -80.5q71 0 114 44.5
t43 116.5v28h-127v80h218v-84q0 -127 -69.5 -197.5t-178.5 -70.5zM246 741l142 156h124l-178 -156h-88z" />
    <glyph glyph-name="uni01F5" unicode="&#x1f5;" horiz-adv-x="615" 
d="M240 -207l-42 68q111 6 153.5 38.5t42.5 88.5v62q-45 -62 -132 -62q-90 0 -149.5 70t-59.5 198q0 124 58.5 195.5t153.5 71.5q80 0 129 -54v42h87v-490q0 -117 -62.5 -169t-178.5 -59zM280 69q32 0 63.5 19.5t50.5 52.5v234q-18 30 -51 49t-63 19q-68 0 -103.5 -48.5
t-35.5 -138.5q0 -87 38.5 -137t100.5 -50zM108 576l142 156h124l-178 -156h-88z" />
    <glyph glyph-name="uni01F6" unicode="&#x1f6;" horiz-adv-x="937" 
d="M187 333v-333h-90v714h90v-302h296v302h90v-550q0 -45 23 -70t70 -25q44 0 68 25t24 71v371h90v-371q0 -81 -49 -127.5t-136 -46.5q-85 0 -132.5 46t-47.5 129v167h-296z" />
    <glyph glyph-name="uni01F7" unicode="&#x1f7;" horiz-adv-x="661" 
d="M389 725q103 0 160 -64t57 -179q0 -161 -106.5 -284.5t-312.5 -207.5v-230h-90v955h71l15 -97h5q37 55 86.5 81t114.5 26zM187 74q161 67 245 171.5t84 235.5q0 81 -37 123.5t-106 42.5q-94 0 -140 -55.5t-46 -173.5v-344z" />
    <glyph glyph-name="uni01F8" unicode="&#x1f8;" horiz-adv-x="759" 
d="M610 0h-84l-315 500q-18 29 -28 49q2 -30 2 -49v-500h-87v700h88l310 -498q16 -26 29 -52q-2 36 -2 51v499h87v-700zM260 741l-178 156h124l142 -156h-88z" />
    <glyph glyph-name="uni01F9" unicode="&#x1f9;" horiz-adv-x="618" 
d="M398 0v309q0 69 -29.5 101.5t-80.5 32.5q-118 0 -118 -132v-311h-87v511h87v-52q47 64 132 64q90 0 136.5 -54.5t46.5 -174.5v-294h-87zM199 576l-178 156h124l142 -156h-88z" />
    <glyph glyph-name="Aringacute" unicode="&#x1fa;" horiz-adv-x="640" 
d="M430 699q0 -32 -13 -54.5t-35 -35.5l258 -609h-93l-82 192h-295l-78 -192h-92l258 608q-49 26 -49 90q0 48 29.5 77t79.5 29t81 -29.5t31 -75.5zM439 272l-84 207q-13 30 -36 101q-15 -52 -35 -103l-83 -205h238zM271 838q28 33 51 67t34 53h106v-8q-15 -21 -58 -60.5
t-74 -60.5h-59v9zM374 698q0 27 -15.5 41.5t-40.5 14.5q-24 0 -40 -14.5t-16 -41.5q0 -26 14.5 -41t41.5 -15q25 0 40.5 14.5t15.5 41.5z" />
    <glyph glyph-name="aringacute" unicode="&#x1fb;" horiz-adv-x="561" 
d="M416 0l-17 76h-4q-40 -50 -80 -68t-100 -18q-79 0 -124 41.5t-45 117.5q0 163 257 171l91 3v32q0 61 -26.5 90t-84.5 29q-42 0 -80 -12.5t-71 -28.5l-27 66q41 21 88.5 33.5t94.5 12.5q97 0 144.5 -43t47.5 -137v-365h-64zM235 61q74 0 116 40t42 113v48l-79 -3
q-92 -3 -134.5 -29t-42.5 -82q0 -42 26 -64.5t72 -22.5zM396 713q0 -49 -30.5 -78t-80.5 -29t-79.5 29t-29.5 77q0 47 29 76t80 29q49 0 80 -29t31 -75zM341 712q0 26 -16 41t-40 15t-40 -15t-16 -41t14.5 -41t41.5 -15q25 0 40.5 15t15.5 41zM230 856v8q22 21 48 50t37 44
h131v-6q-10 -12 -50.5 -37.5t-102.5 -58.5h-63z" />
    <glyph glyph-name="AEacute" unicode="&#x1fc;" horiz-adv-x="854" 
d="M389 765l142 156h124l-178 -156h-88zM-14 0l407 700h383v-82h-273v-215h171v-82h-171v-238h295v-83h-382v171h-237l-97 -171h-96zM223 249h193v345q-11 -24 -36 -68z" />
    <glyph glyph-name="aeacute" unicode="&#x1fd;" horiz-adv-x="857" 
d="M339 576l142 156h124l-178 -156h-88zM231 -12q-81 0 -129.5 44.5t-48.5 127.5t55 126t136 43q74 0 132 -33v36q0 61 -27.5 88t-83.5 27q-77 0 -149 -51l-25 73q82 54 185 54q112 0 154 -76q61 76 168 76q95 0 153.5 -63t58.5 -180q0 -28 -3 -58h-346q6 -72 44.5 -113.5
t94.5 -41.5q65 0 111 46l53 -59q-66 -66 -166 -66q-116 0 -180 95q-38 -49 -89 -72t-98 -23zM460 298h262q-1 78 -38 113t-85 35q-59 0 -97 -37t-42 -111zM244 65q42 0 78.5 22.5t60.5 55.5q-5 34 -7 77q-58 34 -120 34q-53 0 -87 -24t-34 -70q0 -43 28.5 -69t80.5 -26z" />
    <glyph glyph-name="Oslashacute" unicode="&#x1fe;" horiz-adv-x="725" 
d="M250 765l142 156h124l-178 -156h-88zM74 -12l68 101q-77 98 -77 261q0 54 9.5 104t32 98t56 83t85 56t115.5 21q96 0 166 -49l33 49h90l-69 -101q77 -98 77 -261q0 -69 -16 -130.5t-49.5 -115t-93 -85t-138.5 -31.5q-98 0 -167 50l-34 -50h-88zM196 169l285 422
q-50 40 -118 40q-55 0 -97 -25.5t-65 -68t-34 -89.5t-11 -98q0 -111 40 -181zM363 70q55 0 96.5 25.5t64.5 67.5t34.5 89.5t11.5 97.5q0 109 -41 181l-285 -422q49 -39 119 -39z" />
    <glyph glyph-name="oslashacute" unicode="&#x1ff;" horiz-adv-x="558" 
d="M432 732l-178 -156h-88l142 156h124zM505 523l-55 -79q55 -71 55 -188q0 -125 -61 -196.5t-165 -71.5q-70 0 -123 34l-24 -34h-79l55 79q-55 71 -55 188q0 125 61 196.5t165 71.5q71 0 122 -33l23 33h81zM141 255q0 -67 21 -110l191 276q-31 22 -74 22
q-65 0 -101.5 -49.5t-36.5 -138.5zM417 256q0 66 -21 111l-192 -275q32 -23 75 -23q65 0 101.5 49.5t36.5 137.5z" />
    <glyph glyph-name="uni0200" unicode="&#x200;" horiz-adv-x="639" 
d="M449 771h-50q-29 23 -72 72t-61 78v10h97q14 -30 38 -72.5t48 -75.5v-12zM273 771h-50q-32 25 -74.5 74t-58.5 76v10h97q14 -30 38 -72.5t48 -75.5v-12zM539 0l-60 171h-278l-59 -171h-91l248 700h81l248 -700h-89zM452 248l-90 259q-17 49 -22 71q-11 -39 -22 -71
l-91 -259h225z" />
    <glyph glyph-name="uni0201" unicode="&#x201;" horiz-adv-x="561" 
d="M415 606h-50q-29 23 -72 72t-61 78v10h97q14 -30 38 -72.5t48 -75.5v-12zM239 606h-50q-32 25 -74.5 74t-58.5 76v10h97q14 -30 38 -72.5t48 -75.5v-12zM376 0v47q-63 -59 -145 -59q-81 0 -129.5 44.5t-48.5 127.5t55 126t136 43q74 0 132 -33v36q0 64 -28.5 89.5
t-82.5 25.5q-77 0 -149 -51l-25 73q82 54 185 54q182 0 182 -184v-339h-82zM244 65q75 0 132 67v88q-55 34 -120 34q-53 0 -87 -24t-34 -70q0 -43 28.5 -69t80.5 -26z" />
    <glyph glyph-name="uni0202" unicode="&#x202;" horiz-adv-x="639" 
d="M322 905q69 0 108.5 -33.5t44.5 -100.5h-54q-4 36 -25 49.5t-76 13.5q-50 0 -73.5 -15.5t-27.5 -47.5h-55q5 63 47.5 98.5t110.5 35.5zM539 0l-60 171h-278l-59 -171h-91l248 700h81l248 -700h-89zM452 248l-90 259q-17 49 -22 71q-11 -39 -22 -71l-91 -259h225z" />
    <glyph glyph-name="uni0203" unicode="&#x203;" horiz-adv-x="561" 
d="M293 740q69 0 108.5 -33.5t44.5 -100.5h-54q-4 36 -25 49.5t-76 13.5q-50 0 -73.5 -15.5t-27.5 -47.5h-55q5 63 47.5 98.5t110.5 35.5zM376 0v47q-63 -59 -145 -59q-81 0 -129.5 44.5t-48.5 127.5t55 126t136 43q74 0 132 -33v36q0 64 -28.5 89.5t-82.5 25.5
q-77 0 -149 -51l-25 73q82 54 185 54q182 0 182 -184v-339h-82zM244 65q75 0 132 67v88q-55 34 -120 34q-53 0 -87 -24t-34 -70q0 -43 28.5 -69t80.5 -26z" />
    <glyph glyph-name="uni0204" unicode="&#x204;" horiz-adv-x="556" 
d="M437 771h-50q-29 23 -72 72t-61 78v10h97q14 -30 38 -72.5t48 -75.5v-12zM261 771h-50q-32 25 -74.5 74t-58.5 76v10h97q14 -30 38 -72.5t48 -75.5v-12zM98 0v700h416v-82h-329v-215h217v-82h-217v-238h351v-83h-438z" />
    <glyph glyph-name="uni0205" unicode="&#x205;" horiz-adv-x="563" 
d="M431 606h-50q-29 23 -72 72t-61 78v10h97q14 -30 38 -72.5t48 -75.5v-12zM255 606h-50q-32 25 -74.5 74t-58.5 76v10h97q14 -30 38 -72.5t48 -75.5v-12zM280 -12q-104 0 -165.5 74.5t-61.5 193.5q0 125 62 196t165 71q92 0 151.5 -61.5t59.5 -181.5q0 -28 -3 -58h-346
q5 -70 43.5 -112.5t96.5 -42.5q64 0 110 46l53 -59q-66 -66 -165 -66zM141 296h262q-1 79 -37.5 114.5t-85.5 35.5q-59 0 -97 -37.5t-42 -112.5z" />
    <glyph glyph-name="uni0206" unicode="&#x206;" horiz-adv-x="556" 
d="M300 905q69 0 108.5 -33.5t44.5 -100.5h-54q-4 36 -25 49.5t-76 13.5q-50 0 -73.5 -15.5t-27.5 -47.5h-55q5 63 47.5 98.5t110.5 35.5zM98 0v700h416v-82h-329v-215h217v-82h-217v-238h351v-83h-438z" />
    <glyph glyph-name="uni0207" unicode="&#x207;" horiz-adv-x="563" 
d="M294 740q69 0 108.5 -33.5t44.5 -100.5h-54q-4 36 -25 49.5t-76 13.5q-50 0 -73.5 -15.5t-27.5 -47.5h-55q5 63 47.5 98.5t110.5 35.5zM280 -12q-104 0 -165.5 74.5t-61.5 193.5q0 125 62 196t165 71q92 0 151.5 -61.5t59.5 -181.5q0 -28 -3 -58h-346q5 -70 43.5 -112.5
t96.5 -42.5q64 0 110 46l53 -59q-66 -66 -165 -66zM141 296h262q-1 79 -37.5 114.5t-85.5 35.5q-59 0 -97 -37.5t-42 -112.5z" />
    <glyph glyph-name="uni0208" unicode="&#x208;" horiz-adv-x="338" 
d="M299 771h-50q-29 23 -72 72t-61 78v10h97q14 -30 38 -72.5t48 -75.5v-12zM123 771h-50q-32 25 -74.5 74t-58.5 76v10h97q14 -30 38 -72.5t48 -75.5v-12zM100 0v700h87v-700h-87z" />
    <glyph glyph-name="uni0209" unicode="&#x209;" horiz-adv-x="257" 
d="M258 606h-50q-29 23 -72 72t-61 78v10h97q14 -30 38 -72.5t48 -75.5v-12zM82 606h-50q-32 25 -74.5 74t-58.5 76v10h97q14 -30 38 -72.5t48 -75.5v-12zM84 0v511h87v-511h-87z" />
    <glyph glyph-name="uni020A" unicode="&#x20a;" horiz-adv-x="338" 
d="M172 905q69 0 108.5 -33.5t44.5 -100.5h-54q-4 36 -25 49.5t-76 13.5q-50 0 -73.5 -15.5t-27.5 -47.5h-55q5 63 47.5 98.5t110.5 35.5zM100 0v700h87v-700h-87z" />
    <glyph glyph-name="uni020B" unicode="&#x20b;" horiz-adv-x="257" 
d="M131 740q69 0 108.5 -33.5t44.5 -100.5h-54q-4 36 -25 49.5t-76 13.5q-50 0 -73.5 -15.5t-27.5 -47.5h-55q5 63 47.5 98.5t110.5 35.5zM84 0v511h87v-511h-87z" />
    <glyph glyph-name="uni020C" unicode="&#x20c;" horiz-adv-x="780" 
d="M521 771h-50q-29 23 -72 72t-61 78v10h97q14 -30 38 -72.5t48 -75.5v-12zM345 771h-50q-32 25 -74.5 74t-58.5 76v10h97q14 -30 38 -72.5t48 -75.5v-12zM365 -12q-79 0 -138.5 31.5t-93 85t-49.5 115t-16 130.5t16 130.5t49.5 115t93 85t138.5 31.5q64 0 115.5 -21
t85 -56t56 -83t32 -98t9.5 -104t-9.5 -104t-32 -98t-56 -83t-85 -56t-115.5 -21zM365 70q55 0 97 25.5t65 67.5t34 89.5t11 97.5q0 74 -18.5 134.5t-67 103.5t-121.5 43q-55 0 -96.5 -25.5t-64.5 -68t-34.5 -89.5t-11.5 -98q0 -54 11 -102t34.5 -89t65 -65t96.5 -24z" />
    <glyph glyph-name="uni020D" unicode="&#x20d;" horiz-adv-x="604" 
d="M438 606h-50q-29 23 -72 72t-61 78v10h97q14 -30 38 -72.5t48 -75.5v-12zM262 606h-50q-32 25 -74.5 74t-58.5 76v10h97q14 -30 38 -72.5t48 -75.5v-12zM279 -12q-104 0 -165 71t-61 196t61 196.5t165 71.5t165 -71t61 -196t-61 -196.5t-165 -71.5zM279 69
q65 0 101.5 49.5t36.5 137.5q0 87 -36.5 137t-101.5 50t-101.5 -49.5t-36.5 -138.5q0 -87 36.5 -136.5t101.5 -49.5z" />
    <glyph glyph-name="uni020E" unicode="&#x20e;" horiz-adv-x="780" 
d="M393 905q69 0 108.5 -33.5t44.5 -100.5h-54q-4 36 -25 49.5t-76 13.5q-50 0 -73.5 -15.5t-27.5 -47.5h-55q5 63 47.5 98.5t110.5 35.5zM365 -12q-79 0 -138.5 31.5t-93 85t-49.5 115t-16 130.5t16 130.5t49.5 115t93 85t138.5 31.5q64 0 115.5 -21t85 -56t56 -83t32 -98
t9.5 -104t-9.5 -104t-32 -98t-56 -83t-85 -56t-115.5 -21zM365 70q55 0 97 25.5t65 67.5t34 89.5t11 97.5q0 74 -18.5 134.5t-67 103.5t-121.5 43q-55 0 -96.5 -25.5t-64.5 -68t-34.5 -89.5t-11.5 -98q0 -54 11 -102t34.5 -89t65 -65t96.5 -24z" />
    <glyph glyph-name="uni020F" unicode="&#x20f;" horiz-adv-x="604" 
d="M305 740q69 0 108.5 -33.5t44.5 -100.5h-54q-4 36 -25 49.5t-76 13.5q-50 0 -73.5 -15.5t-27.5 -47.5h-55q5 63 47.5 98.5t110.5 35.5zM279 -12q-104 0 -165 71t-61 196t61 196.5t165 71.5t165 -71t61 -196t-61 -196.5t-165 -71.5zM279 69q65 0 101.5 49.5t36.5 137.5
q0 87 -36.5 137t-101.5 50t-101.5 -49.5t-36.5 -138.5q0 -87 36.5 -136.5t101.5 -49.5z" />
    <glyph glyph-name="uni0210" unicode="&#x210;" horiz-adv-x="622" 
d="M440 771h-50q-29 23 -72 72t-61 78v10h97q14 -30 38 -72.5t48 -75.5v-12zM264 771h-50q-32 25 -74.5 74t-58.5 76v10h97q14 -30 38 -72.5t48 -75.5v-12zM98 0v700h276q116 0 168.5 -57t52.5 -142q0 -69 -40.5 -123.5t-122.5 -71.5l150 -306h-98l-144 300h-155v-300h-87z
M185 381h191q68 0 99.5 34t31.5 84q0 48 -30.5 84t-100.5 36h-191v-238z" />
    <glyph glyph-name="uni0211" unicode="&#x211;" horiz-adv-x="413" 
d="M376 606h-50q-29 23 -72 72t-61 78v10h97q14 -30 38 -72.5t48 -75.5v-12zM200 606h-50q-32 25 -74.5 74t-58.5 76v10h97q14 -30 38 -72.5t48 -75.5v-12zM83 0v511h87v-67q36 79 121 79q48 0 79 -26l-13 -82q-32 22 -73 22q-45 0 -79.5 -35t-34.5 -114v-288h-87z" />
    <glyph glyph-name="uni0212" unicode="&#x212;" horiz-adv-x="622" 
d="M313 905q69 0 108.5 -33.5t44.5 -100.5h-54q-4 36 -25 49.5t-76 13.5q-50 0 -73.5 -15.5t-27.5 -47.5h-55q5 63 47.5 98.5t110.5 35.5zM98 0v700h276q116 0 168.5 -57t52.5 -142q0 -69 -40.5 -123.5t-122.5 -71.5l150 -306h-98l-144 300h-155v-300h-87zM185 381h191
q68 0 99.5 34t31.5 84q0 48 -30.5 84t-100.5 36h-191v-238z" />
    <glyph glyph-name="uni0213" unicode="&#x213;" horiz-adv-x="413" 
d="M244 740q69 0 108.5 -33.5t44.5 -100.5h-54q-4 36 -25 49.5t-76 13.5q-50 0 -73.5 -15.5t-27.5 -47.5h-55q5 63 47.5 98.5t110.5 35.5zM83 0v511h87v-67q36 79 121 79q48 0 79 -26l-13 -82q-32 22 -73 22q-45 0 -79.5 -35t-34.5 -114v-288h-87z" />
    <glyph glyph-name="uni0214" unicode="&#x214;" horiz-adv-x="730" 
d="M509 771h-50q-29 23 -72 72t-61 78v10h97q14 -30 38 -72.5t48 -75.5v-12zM333 771h-50q-32 25 -74.5 74t-58.5 76v10h97q14 -30 38 -72.5t48 -75.5v-12zM344 -12q-251 0 -251 275v437h87v-437q0 -107 44 -150t120 -43t120.5 43t44.5 150v437h87v-437q0 -275 -252 -275z
" />
    <glyph glyph-name="uni0215" unicode="&#x215;" horiz-adv-x="618" 
d="M438 606h-50q-29 23 -72 72t-61 78v10h97q14 -30 38 -72.5t48 -75.5v-12zM262 606h-50q-32 25 -74.5 74t-58.5 76v10h97q14 -30 38 -72.5t48 -75.5v-12zM393 0v49q-47 -61 -129 -61q-93 0 -139.5 54t-46.5 174v295h87v-308q0 -69 29.5 -101.5t80.5 -32.5q118 0 118 132
v310h87v-511h-87z" />
    <glyph glyph-name="uni0216" unicode="&#x216;" horiz-adv-x="730" 
d="M368 905q69 0 108.5 -33.5t44.5 -100.5h-54q-4 36 -25 49.5t-76 13.5q-50 0 -73.5 -15.5t-27.5 -47.5h-55q5 63 47.5 98.5t110.5 35.5zM344 -12q-251 0 -251 275v437h87v-437q0 -107 44 -150t120 -43t120.5 43t44.5 150v437h87v-437q0 -275 -252 -275z" />
    <glyph glyph-name="uni0217" unicode="&#x217;" horiz-adv-x="618" 
d="M311 740q69 0 108.5 -33.5t44.5 -100.5h-54q-4 36 -25 49.5t-76 13.5q-50 0 -73.5 -15.5t-27.5 -47.5h-55q5 63 47.5 98.5t110.5 35.5zM393 0v49q-47 -61 -129 -61q-93 0 -139.5 54t-46.5 174v295h87v-308q0 -69 29.5 -101.5t80.5 -32.5q118 0 118 132v310h87v-511h-87z
" />
    <glyph glyph-name="Scommaaccent" unicode="&#x218;" horiz-adv-x="599" 
d="M302 -12q-89 0 -154.5 43.5t-89.5 112.5l82 30q22 -48 65 -76t99 -28q64 0 101 30.5t37 87.5q0 55 -41.5 88t-116.5 60q-36 13 -59.5 23t-54 28.5t-48.5 38t-30.5 49t-12.5 64.5q0 73 58 123t157 50q81 0 135 -34.5t70 -90.5l-80 -27q-14 31 -48 51t-83 20
q-55 0 -87 -24.5t-32 -67.5q0 -23 11.5 -42t36 -34t45.5 -24t58 -23q46 -17 76 -32.5t65 -41.5t53 -64.5t18 -87.5q0 -94 -64 -148t-166 -54zM257 -241q35 30 45 72q-27 0 -43.5 16.5t-16.5 41.5q0 26 17.5 42.5t40.5 16.5q25 0 43 -17.5t18 -47.5q0 -83 -78 -137z" />
    <glyph glyph-name="scommaaccent" unicode="&#x219;" horiz-adv-x="469" 
d="M234 -12q-55 0 -104.5 23.5t-80.5 62.5l62 53q57 -61 125 -61q43 0 69 16.5t26 48.5q0 24 -19 43.5t-39 29t-59 24.5q-78 29 -118 65t-40 95q0 62 48.5 98.5t123.5 36.5q107 0 172 -77l-60 -50q-47 49 -113 49q-39 0 -62 -15t-23 -42q0 -15 7.5 -27.5t27 -23.5t31 -16.5
t42.5 -17.5q81 -29 123.5 -66t42.5 -104q0 -68 -49 -106.5t-133 -38.5zM192 -241q35 30 45 72q-27 0 -43.5 16.5t-16.5 41.5q0 26 17.5 42.5t40.5 16.5q25 0 43 -17.5t18 -47.5q0 -83 -78 -137z" />
    <glyph glyph-name="uni021A" unicode="&#x21a;" horiz-adv-x="583" 
d="M335 617v-617h-87v617h-195v83h477v-83h-195zM249 -241q35 30 45 72q-27 0 -43.5 16.5t-16.5 41.5q0 26 17.5 42.5t40.5 16.5q25 0 43 -17.5t18 -47.5q0 -83 -78 -137z" />
    <glyph glyph-name="uni021B" unicode="&#x21b;" horiz-adv-x="374" 
d="M221 -12q-108 0 -108 122v325h-83v76h83v169l87 42v-211h126v-76h-126v-296q0 -34 11 -52t42 -18q34 0 76 27l-10 -85q-44 -23 -98 -23zM173 -241q35 30 45 72q-27 0 -43.5 16.5t-16.5 41.5q0 26 17.5 42.5t40.5 16.5q25 0 43 -17.5t18 -47.5q0 -83 -78 -137z" />
    <glyph glyph-name="uni021C" unicode="&#x21c;" horiz-adv-x="587" 
d="M519 547q0 -69 -44.5 -113.5t-124.5 -56.5v-4q91 -12 137.5 -56t46.5 -115q0 -100 -75.5 -156t-212.5 -56q-128 0 -208 39v82q48 -23 103.5 -35t103.5 -12q97 0 146 35.5t49 102.5q0 64 -55 97t-165 33h-102v75h97q106 0 158.5 35.5t52.5 95.5q0 52 -39 82t-105 30
q-56 0 -100.5 -13t-97.5 -48l-43 61q103 74 242 74q110 0 173 -47.5t63 -129.5z" />
    <glyph glyph-name="uni021D" unicode="&#x21d;" horiz-adv-x="498" 
d="M193 228q70 0 111.5 35t41.5 90t-38.5 88t-103.5 33q-30 0 -60.5 -7.5t-72.5 -26.5l-30 70q44 21 83 28.5t85 7.5q103 0 162 -48t59 -133q0 -61 -31.5 -105t-95.5 -65q81 -21 121 -71t40 -123q0 -70 -33 -125.5t-93.5 -85.5t-138.5 -30q-116 0 -189 37v80
q44 -21 95 -32.5t98 -11.5q79 0 126 45t47 121q0 77 -51 118t-151 41h-79v70h98z" />
    <glyph glyph-name="uni021E" unicode="&#x21e;" horiz-adv-x="741" 
d="M300 741h-83l-146 156h83l105 -90l105 90h82zM515 0v322h-330v-322h-87v700h87v-296h330v296h87v-700h-87z" />
    <glyph glyph-name="uni021F" unicode="&#x21f;" horiz-adv-x="618" 
d="M264 761h-83l-146 156h83l105 -90l105 90h82zM83 0v682l87 40v-264q47 65 132 65q90 0 136.5 -54.5t46.5 -174.5v-294h-87v309q0 69 -29.5 101.5t-80.5 32.5q-118 0 -118 -132v-311h-87z" />
    <glyph glyph-name="uni0220" unicode="&#x220;" horiz-adv-x="741" 
d="M392 647q-205 0 -205 -224v-423h-90v715h71l15 -92h5q32 45 93 73.5t122 28.5q247 0 247 -264v-701h-90v701q0 97 -41 141.5t-127 44.5z" />
    <glyph glyph-name="uni0221" unicode="&#x221;" horiz-adv-x="615" 
d="M530 -72q0 -52 12 -74t45 -22q36 0 57 11v-67q-23 -16 -76 -16q-126 0 -126 167v63q0 12 2.5 41t3.5 38h-6q-58 -79 -166 -79q-105 0 -163 73t-58 204t58 205t163 74q108 0 166 -79h6q-1 10 -3.5 39.5t-2.5 39.5v214h88v-832zM289 63q80 0 117 43.5t37 143.5v16
q0 112 -37.5 159.5t-117.5 47.5q-68 0 -105 -54t-37 -154t37 -151t106 -51z" />
    <glyph glyph-name="uni0222" unicode="&#x222;" horiz-adv-x="670" 
d="M335 470q74 0 113 41t39 115v88h90v-88q0 -145 -115 -193q74 -23 112.5 -74t38.5 -127q0 -112 -74.5 -177t-205.5 -65q-81 0 -143.5 29.5t-97 85t-34.5 127.5q0 157 149 202q-113 46 -113 192v88h90v-88q0 -74 39 -115t112 -41zM153 232q0 -82 46 -123t136 -41
t136.5 41.5t46.5 122.5q0 161 -184 161q-181 0 -181 -161z" />
    <glyph glyph-name="uni0223" unicode="&#x223;" horiz-adv-x="604" 
d="M303 485q67 0 96.5 36t29.5 113v126h88v-129q0 -77 -23 -121t-74 -63q65 -25 98 -78t33 -130q0 -117 -67 -183t-183 -66q-111 0 -178.5 67.5t-67.5 181.5q0 162 130 209q-51 19 -73.5 63.5t-22.5 119.5v129h88v-126q0 -77 29.5 -113t96.5 -36zM146 239q0 -86 39.5 -131
t117.5 -45q77 0 117 44.5t40 131.5t-41 130t-117 43q-77 0 -116.5 -43.5t-39.5 -129.5z" />
    <glyph glyph-name="uni0224" unicode="&#x224;" horiz-adv-x="571" 
d="M416 -198q-29 0 -60 12v73q22 -9 50 -9q48 0 48 52v150h79v-145q0 -133 -117 -133zM63 0v67l406 550h-383v83h496v-67l-404 -550h404v-83h-519z" />
    <glyph glyph-name="uni0225" unicode="&#x225;" horiz-adv-x="470" 
d="M431 -65q0 -133 -117 -133q-29 0 -60 12v73q22 -9 50 -9q48 0 48 52v70h-313v58l288 410h-271v68h368v-66l-284 -402h291v-133z" />
    <glyph glyph-name="uni0226" unicode="&#x226;" horiz-adv-x="639" 
d="M374 764q-23 0 -39 16t-16 39t16 39t39 16t39 -16t16 -39t-16 -39t-39 -16zM539 0l-60 171h-278l-59 -171h-91l248 700h81l248 -700h-89zM452 248l-90 259q-17 49 -22 71q-11 -39 -22 -71l-91 -259h225z" />
    <glyph glyph-name="uni0227" unicode="&#x227;" horiz-adv-x="561" 
d="M335 599q-23 0 -39 16t-16 39t16 39t39 16t39 -16t16 -39t-16 -39t-39 -16zM376 0v47q-63 -59 -145 -59q-81 0 -129.5 44.5t-48.5 127.5t55 126t136 43q74 0 132 -33v36q0 64 -28.5 89.5t-82.5 25.5q-77 0 -149 -51l-25 73q82 54 185 54q182 0 182 -184v-339h-82zM244 65
q75 0 132 67v88q-55 34 -120 34q-53 0 -87 -24t-34 -70q0 -43 28.5 -69t80.5 -26z" />
    <glyph glyph-name="uni0228" unicode="&#x228;" horiz-adv-x="556" 
d="M98 0v700h416v-82h-329v-215h217v-82h-217v-238h351v-83h-438zM369 -237q-59 0 -94 33l49 34q10 -13 37 -13q22 0 37 13.5t15 34.5q0 19 -17.5 32t-40.5 13q-24 0 -38 -7l-16 20l69 87h49l-38 -63q55 0 81.5 -24t26.5 -59q0 -44 -33.5 -72.5t-86.5 -28.5z" />
    <glyph glyph-name="uni0229" unicode="&#x229;" horiz-adv-x="563" 
d="M280 -12q-104 0 -165.5 74.5t-61.5 193.5q0 125 62 196t165 71q92 0 151.5 -61.5t59.5 -181.5q0 -28 -3 -58h-346q5 -70 43.5 -112.5t96.5 -42.5q64 0 110 46l53 -59q-66 -66 -165 -66zM141 296h262q-1 79 -37.5 114.5t-85.5 35.5q-59 0 -97 -37.5t-42 -112.5zM363 -237
q-59 0 -94 33l49 34q10 -13 37 -13q22 0 37 13.5t15 34.5q0 19 -17.5 32t-40.5 13q-24 0 -38 -7l-16 20l69 87h49l-38 -63q55 0 81.5 -24t26.5 -59q0 -44 -33.5 -72.5t-86.5 -28.5z" />
    <glyph glyph-name="uni022A" unicode="&#x22a;" horiz-adv-x="780" 
d="M531 828q0 -23 -12.5 -36t-34.5 -13t-34.5 13t-12.5 36q0 26 14 38t33 12q20 0 33.5 -12t13.5 -38zM343 828q0 -26 -13.5 -37.5t-32.5 -11.5q-22 0 -34.5 13t-12.5 36q0 26 14 38t33 12t32.5 -12t13.5 -38zM242 1014h297v-71h-297v71zM365 -12q-79 0 -138.5 31.5t-93 85
t-49.5 115t-16 130.5t16 130.5t49.5 115t93 85t138.5 31.5q64 0 115.5 -21t85 -56t56 -83t32 -98t9.5 -104t-9.5 -104t-32 -98t-56 -83t-85 -56t-115.5 -21zM365 70q55 0 97 25.5t65 67.5t34 89.5t11 97.5q0 74 -18.5 134.5t-67 103.5t-121.5 43q-55 0 -96.5 -25.5
t-64.5 -68t-34.5 -89.5t-11.5 -98q0 -54 11 -102t34.5 -89t65 -65t96.5 -24z" />
    <glyph glyph-name="uni022B" unicode="&#x22b;" horiz-adv-x="604" 
d="M443 650q0 -23 -12.5 -36t-34.5 -13t-34.5 13t-12.5 36q0 26 14 38t33 12q20 0 33.5 -12t13.5 -38zM255 650q0 -26 -13.5 -37.5t-32.5 -11.5q-22 0 -34.5 13t-12.5 36q0 26 14 38t33 12t32.5 -12t13.5 -38zM154 836h297v-71h-297v71zM279 -12q-104 0 -165 71t-61 196
t61 196.5t165 71.5t165 -71t61 -196t-61 -196.5t-165 -71.5zM279 69q65 0 101.5 49.5t36.5 137.5q0 87 -36.5 137t-101.5 50t-101.5 -49.5t-36.5 -138.5q0 -87 36.5 -136.5t101.5 -49.5z" />
    <glyph glyph-name="uni022C" unicode="&#x22c;" horiz-adv-x="780" 
d="M461 784q-19 0 -38 7.5t-36.5 16.5t-35 16.5t-32.5 7.5q-19 0 -29 -11t-17 -38h-51q5 55 30.5 84.5t66.5 29.5q21 0 40.5 -7.5t37 -16.5t34 -16.5t31.5 -7.5q21 0 30 13t16 36h50q-5 -55 -30 -84.5t-67 -29.5zM241 1014h297v-71h-297v71zM365 -12q-79 0 -138.5 31.5
t-93 85t-49.5 115t-16 130.5t16 130.5t49.5 115t93 85t138.5 31.5q64 0 115.5 -21t85 -56t56 -83t32 -98t9.5 -104t-9.5 -104t-32 -98t-56 -83t-85 -56t-115.5 -21zM365 70q55 0 97 25.5t65 67.5t34 89.5t11 97.5q0 74 -18.5 134.5t-67 103.5t-121.5 43q-55 0 -96.5 -25.5
t-64.5 -68t-34.5 -89.5t-11.5 -98q0 -54 11 -102t34.5 -89t65 -65t96.5 -24z" />
    <glyph glyph-name="uni022D" unicode="&#x22d;" horiz-adv-x="604" 
d="M373 606q-19 0 -38 7.5t-36.5 16.5t-35 16.5t-32.5 7.5q-19 0 -29 -11t-17 -38h-51q5 55 30.5 84.5t66.5 29.5q21 0 40.5 -7.5t37 -16.5t34 -16.5t31.5 -7.5q21 0 30 13t16 36h50q-5 -55 -30 -84.5t-67 -29.5zM153 836h297v-71h-297v71zM279 -12q-104 0 -165 71t-61 196
t61 196.5t165 71.5t165 -71t61 -196t-61 -196.5t-165 -71.5zM279 69q65 0 101.5 49.5t36.5 137.5q0 87 -36.5 137t-101.5 50t-101.5 -49.5t-36.5 -138.5q0 -87 36.5 -136.5t101.5 -49.5z" />
    <glyph glyph-name="uni022E" unicode="&#x22e;" horiz-adv-x="780" 
d="M445 764q-23 0 -39 16t-16 39t16 39t39 16t39 -16t16 -39t-16 -39t-39 -16zM365 -12q-79 0 -138.5 31.5t-93 85t-49.5 115t-16 130.5t16 130.5t49.5 115t93 85t138.5 31.5q64 0 115.5 -21t85 -56t56 -83t32 -98t9.5 -104t-9.5 -104t-32 -98t-56 -83t-85 -56t-115.5 -21z
M365 70q55 0 97 25.5t65 67.5t34 89.5t11 97.5q0 74 -18.5 134.5t-67 103.5t-121.5 43q-55 0 -96.5 -25.5t-64.5 -68t-34.5 -89.5t-11.5 -98q0 -54 11 -102t34.5 -89t65 -65t96.5 -24z" />
    <glyph glyph-name="uni022F" unicode="&#x22f;" horiz-adv-x="604" 
d="M357 599q-23 0 -39 16t-16 39t16 39t39 16t39 -16t16 -39t-16 -39t-39 -16zM279 -12q-104 0 -165 71t-61 196t61 196.5t165 71.5t165 -71t61 -196t-61 -196.5t-165 -71.5zM279 69q65 0 101.5 49.5t36.5 137.5q0 87 -36.5 137t-101.5 50t-101.5 -49.5t-36.5 -138.5
q0 -87 36.5 -136.5t101.5 -49.5z" />
    <glyph glyph-name="uni0230" unicode="&#x230;" horiz-adv-x="780" 
d="M339 826q0 29 15 42.5t37 13.5q23 0 37 -15t14 -41t-14.5 -41t-36.5 -15t-37 13.5t-15 42.5zM241 1001h297v-71h-297v71zM365 -12q-79 0 -138.5 31.5t-93 85t-49.5 115t-16 130.5t16 130.5t49.5 115t93 85t138.5 31.5q64 0 115.5 -21t85 -56t56 -83t32 -98t9.5 -104
t-9.5 -104t-32 -98t-56 -83t-85 -56t-115.5 -21zM365 70q55 0 97 25.5t65 67.5t34 89.5t11 97.5q0 74 -18.5 134.5t-67 103.5t-121.5 43q-55 0 -96.5 -25.5t-64.5 -68t-34.5 -89.5t-11.5 -98q0 -54 11 -102t34.5 -89t65 -65t96.5 -24z" />
    <glyph glyph-name="uni0231" unicode="&#x231;" horiz-adv-x="604" 
d="M252 662q0 29 15 42.5t37 13.5q23 0 37 -15t14 -41t-14.5 -41t-36.5 -15t-37 13.5t-15 42.5zM154 837h297v-71h-297v71zM279 -12q-104 0 -165 71t-61 196t61 196.5t165 71.5t165 -71t61 -196t-61 -196.5t-165 -71.5zM279 69q65 0 101.5 49.5t36.5 137.5q0 87 -36.5 137
t-101.5 50t-101.5 -49.5t-36.5 -138.5q0 -87 36.5 -136.5t101.5 -49.5z" />
    <glyph glyph-name="uni0232" unicode="&#x232;" horiz-adv-x="565" 
d="M8 768v74h330v-74h-330zM278 0v275l-238 425h98l183 -340l185 340h95l-236 -423v-277h-87z" />
    <glyph glyph-name="uni0233" unicode="&#x233;" horiz-adv-x="509" 
d="M-20 603v74h330v-74h-330zM144 -194l78 207l-189 498h87l127 -348q7 -17 16 -49q9 32 16 49l129 348h89l-265 -705h-88z" />
    <glyph glyph-name="uni0234" unicode="&#x234;" horiz-adv-x="380" 
d="M85 760h88v-542q31 12 68 12q61 0 95.5 -33.5t34.5 -86.5q0 -56 -34.5 -88t-98.5 -32q-46 0 -79 17.5t-51 46.5q-15 -30 -34 -84l-67 30q36 98 78 151v609zM237 58q29 0 41.5 15t12.5 37q0 26 -15.5 39t-41.5 13q-30 0 -61 -24q3 -80 64 -80z" />
    <glyph glyph-name="uni0235" unicode="&#x235;" horiz-adv-x="745" 
d="M537 218q31 12 68 12q61 0 95.5 -33.5t34.5 -86.5q0 -56 -34 -88t-99 -32q-88 0 -129 64q-15 -28 -34 -84l-67 30q36 98 78 151v192q0 65 -29 97t-91 32q-83 0 -120 -45.5t-37 -148.5v-278h-88v536h71l13 -73h5q25 40 70 61.5t99 21.5q99 0 146.5 -48t47.5 -149v-131z
M601 58q25 0 39.5 13t14.5 39t-15 39t-42 13q-30 0 -61 -24q3 -80 64 -80z" />
    <glyph glyph-name="uni0236" unicode="&#x236;" horiz-adv-x="388" 
d="M92 468h-76v42l77 35l35 114h52v-123h155v-68h-155v-250q31 12 68 12q61 0 95.5 -33.5t34.5 -86.5q0 -56 -34 -88t-99 -32q-46 0 -78.5 17.5t-51.5 46.5q-15 -28 -34 -84l-67 30q37 99 78 151v317zM244 58q25 0 39.5 13t14.5 39t-15 39t-42 13q-30 0 -61 -24
q3 -80 64 -80z" />
    <glyph glyph-name="uni0237" unicode="&#x237;" horiz-adv-x="254" 
d="M-6 -214l-41 66q74 12 102.5 38t28.5 74v547h87v-515q0 -93 -38 -138q-48 -59 -139 -72z" />
    <glyph glyph-name="uni0238" unicode="&#x238;" horiz-adv-x="972" 
d="M292 -10q-115 0 -176 71t-61 206q0 131 58 205t163 74q108 0 166 -79h6q-2 13 -4 45t-2 60v188h88v-185q0 -55 -5 -110h5q54 80 166 80q106 0 163.5 -73t57.5 -204q0 -135 -62 -206.5t-177 -71.5q-138 0 -193 125q-56 -125 -193 -125zM679 63q147 0 147 206
q0 102 -35.5 152.5t-109.5 50.5q-81 0 -116 -46t-35 -155q0 -208 149 -208zM295 63q71 0 109.5 55t38.5 153q0 110 -37 156t-118 46q-68 0 -105 -54t-37 -154t38 -151t111 -51z" />
    <glyph glyph-name="uni0239" unicode="&#x239;" horiz-adv-x="972" 
d="M680 546q115 0 176 -71t61 -206q0 -131 -58 -205t-163 -74q-108 0 -166 79h-6l2 -17q4 -37 4 -88v-204h-88v201q0 55 5 110h-5q-52 -80 -166 -80q-105 0 -163 73t-58 204q0 135 62 206.5t177 71.5q137 0 193 -125q28 64 78.5 94.5t114.5 30.5zM293 473q-147 0 -147 -206
q0 -102 35.5 -152.5t109.5 -50.5q81 0 116 46t35 155q0 208 -149 208zM677 473q-70 0 -109 -54.5t-39 -153.5q0 -109 36.5 -155.5t118.5 -46.5q68 0 105 54t37 154t-37.5 151t-111.5 51z" />
    <glyph glyph-name="uni023A" unicode="&#x23a;" horiz-adv-x="639" 
d="M499 760l-74 -212l213 -548h-93l-86 221h-148l-102 -296h-67l103 296h-69l-85 -221h-91l279 717h81l30 -78l42 121h67zM273 301l77 222q-20 55 -32 101q-15 -59 -31 -107l-81 -216h67zM384 430l-45 -129h93z" />
    <glyph glyph-name="uni023B" unicode="&#x23b;" horiz-adv-x="631" 
d="M559 760l-19 -55q30 -8 61 -23l-36 -76q-36 16 -53 21l-190 -548q36 -10 80 -10q76 0 171 28v-78q-45 -17 -87 -23t-97 -6q-46 0 -94 10l-26 -75h-67l33 95q-85 40 -129.5 126.5t-44.5 211.5q0 110 41 193t118.5 128t183.5 45q38 0 74 -5l14 41h67zM403 645
q-115 0 -181 -77t-66 -211q0 -183 108 -252l187 536q-19 4 -48 4z" />
    <glyph glyph-name="uni023C" unicode="&#x23c;" horiz-adv-x="479" 
d="M479 760l-81 -226q28 -8 49 -17l-27 -73q-31 11 -48 15l-136 -382q28 -11 63 -11q71 0 139 31v-78q-56 -29 -138 -29q-45 0 -91 13l-75 -211h-67l85 239q-97 70 -97 234q0 135 65.5 208t185.5 73h15l14 -1l77 215h67zM146 266q0 -97 37 -147l125 350h-4q-81 0 -119.5 -51
t-38.5 -152z" />
    <glyph glyph-name="uni023D" unicode="&#x23d;" horiz-adv-x="523" 
d="M10 403h87v311h90v-311h170v-71h-170v-252h312v-80h-402v332h-87v71z" />
    <glyph glyph-name="uni023E" unicode="&#x23e;" horiz-adv-x="556" 
d="M520 760l-22 -46h47v-79h-83l-139 -299v-336h-90v142l-101 -217h-70l171 368v342h-223v79h418l22 46h70zM323 487l69 148h-69v-148z" />
    <glyph glyph-name="uni023F" unicode="&#x23f;" horiz-adv-x="479" 
d="M235 -9q18 -26 29 -74q17 -84 105 -84q19 0 41 4.5t31 8.5v-72q-34 -14 -81 -14q-80 0 -121.5 36.5t-56.5 120.5q-13 69 -75 86q-34 9 -55 21v80q88 -43 170 -43q66 0 96.5 21.5t30.5 57.5q0 32 -29 54t-103 50q-76 29 -106.5 50t-45 47t-14.5 63q0 66 53.5 104t147.5 38
q91 0 171 -36l-30 -70q-82 34 -147 34q-55 0 -83 -17.5t-28 -47.5q0 -29 24.5 -48.5t113.5 -53.5q67 -25 99 -46.5t47 -48t15 -64.5q0 -72 -51 -113t-148 -44z" />
    <glyph glyph-name="uni0240" unicode="&#x240;" horiz-adv-x="470" 
d="M140 68q55 -10 87 -46t50 -105q11 -44 39 -64t77 -20q34 0 66 11v-72q-29 -12 -72 -12q-82 0 -126.5 35t-68.5 122q-13 47 -39.5 65t-78.5 18h-35v58l288 410h-271v68h368v-66z" />
    <glyph glyph-name="uni0241" unicode="&#x241;" horiz-adv-x="448" 
d="M124 0v322q88 27 140.5 82t52.5 126q0 56 -33.5 85.5t-96.5 29.5q-36 0 -79.5 -13.5t-72.5 -35.5l-33 72q37 26 87 41t102 15q103 0 162 -51t59 -140q0 -82 -50.5 -149.5t-147.5 -112.5v-271h-90z" />
    <glyph glyph-name="uni0242" unicode="&#x242;" horiz-adv-x="436" 
d="M124 0v144q87 27 136.5 82t49.5 126q0 121 -123 121q-34 0 -72 -13t-70 -36l-33 66q77 56 179 56q100 0 154.5 -49.5t54.5 -141.5q0 -81 -49 -148t-139 -109v-98h-88z" />
    <glyph glyph-name="uni0243" unicode="&#x243;" horiz-adv-x="649" 
d="M97 171h-82v78h82v465h204q144 0 207.5 -43t63.5 -134q0 -63 -35 -104.5t-101 -53.5v-5q83 -14 121.5 -57t38.5 -114q0 -96 -65.5 -149.5t-182.5 -53.5h-251v171zM187 335v-86h148v-78h-148v-95h144q86 0 127.5 33.5t41.5 100.5q0 64 -44 94.5t-132 30.5h-137zM187 410
h132q84 0 122 27t38 90q0 59 -41.5 84.5t-132.5 25.5h-118v-227z" />
    <glyph glyph-name="uni0244" unicode="&#x244;" horiz-adv-x="730" 
d="M640 714v-282h81v-78h-81v-102q0 -122 -73.5 -192t-204.5 -70q-129 0 -200.5 70.5t-71.5 193.5v100h-80v78h80v282h90v-282h371v282h89zM367 68q88 0 136 47.5t48 136.5v102h-371v-103q0 -87 46.5 -135t140.5 -48z" />
    <glyph glyph-name="uni0245" unicode="&#x245;" horiz-adv-x="607" 
d="M350 714l257 -714h-95l-158 450q-36 101 -52 166q-10 -48 -50 -165l-157 -451h-95l256 714h94z" />
    <glyph glyph-name="uni0246" unicode="&#x246;" horiz-adv-x="556" 
d="M459 760l-12 -46h49v-79h-69l-57 -223h108v-78h-128l-64 -255h210v-79h-230l-19 -75h-65l19 75h-104v714h285l12 46h65zM187 412h119l56 223h-175v-223zM187 79h34l65 255h-99v-255z" />
    <glyph glyph-name="uni0247" unicode="&#x247;" horiz-adv-x="563" 
d="M77 -208l83 240q-105 70 -105 232q0 129 64 205.5t173 76.5q15 0 44 -4l76 218h67l-82 -237q55 -28 85.5 -84.5t30.5 -134.5v-53h-210l-60 -173q30 -13 74 -13q43 0 81.5 7.5t90.5 29.5v-77q-44 -19 -83.5 -27t-92.5 -8q-52 0 -96 14l-73 -212h-67zM291 474
q-63 0 -99.5 -40.5t-43.5 -112.5h112l52 151zM421 321q-2 90 -50 128l-44 -128h94zM146 251q2 -88 43 -135l47 135h-90z" />
    <glyph glyph-name="uni0248" unicode="&#x248;" horiz-adv-x="272" 
d="M-4 -190q-46 0 -74 13v76q35 -10 72 -10q49 0 73.5 29.5t24.5 85.5v310h-82v78h82v322h90v-322h81v-78h-81v-303q0 -97 -48 -149t-138 -52z" />
    <glyph glyph-name="uni0249" unicode="&#x249;" horiz-adv-x="257" 
d="M22 -240q-46 0 -77 12v71q34 -10 66 -10q38 0 56 21t18 63v331h-75v71h75v217h88v-217h75v-71h-75v-328q0 -80 -38.5 -120t-112.5 -40zM78 681q0 29 15 42.5t37 13.5q21 0 36 -13.5t15 -42.5t-15.5 -42.5t-35.5 -13.5q-22 0 -37 13.5t-15 42.5z" />
    <glyph glyph-name="uni024A" unicode="&#x24a;" horiz-adv-x="767" 
d="M361 646q-97 0 -151.5 -76t-54.5 -213q0 -135 54 -212t153 -77q77 0 125 22.5t70 67t22 122.5v154q0 79 -22.5 123.5t-70.5 66.5t-125 22zM579 20q0 26 4 72h-5q-28 -47 -84 -74.5t-136 -27.5q-91 0 -158.5 44.5t-103 128t-35.5 195.5q0 172 80 269t222 97q70 0 128 -27
t87 -75h5l15 92h71v-793q0 -42 14 -62t49 -20q24 0 45 10v-76q-23 -13 -56 -13q-142 0 -142 157v103z" />
    <glyph glyph-name="uni024B" unicode="&#x24b;" horiz-adv-x="615" 
d="M290 63q79 0 115 43t38 142v18q0 111 -37 159t-118 48q-69 0 -105.5 -54t-36.5 -154q0 -98 36.5 -150t107.5 -52zM442 -11q0 54 5 83h-6q-56 -82 -168 -82q-104 0 -161 73.5t-57 203.5q0 131 58.5 205t162.5 74q110 0 167 -83h4l13 73h70v-608q0 -55 11 -75.5t38 -20.5
q31 0 50 11v-67q-21 -16 -70 -16q-117 0 -117 167v62z" />
    <glyph glyph-name="uni024C" unicode="&#x24c;" horiz-adv-x="622" 
d="M187 295v-295h-90v295h-87v76h87v343h197q133 0 196.5 -50.5t63.5 -152.5q0 -142 -143 -191l196 -320h-105l-173 295h-142zM187 371h107q87 0 127 34t40 102q0 67 -40.5 98t-131.5 31h-102v-265z" />
    <glyph glyph-name="uni024D" unicode="&#x24d;" horiz-adv-x="413" 
d="M299 248h-126v-248h-88v248h-75v71h75v217h72l10 -98h4q31 53 73 80.5t91 27.5q36 0 63 -6l-11 -81q-30 7 -58 7q-57 0 -100.5 -40.5t-53.5 -106.5h124v-71z" />
    <glyph glyph-name="uni024E" unicode="&#x24e;" horiz-adv-x="565" 
d="M165 586h236l68 128h97l-70 -128h60v-78h-102l-126 -231v-277h-90v273l-127 235h-101v78h59l-69 128h98zM283 363l77 145h-154z" />
    <glyph glyph-name="uni024F" unicode="&#x24f;" horiz-adv-x="509" 
d="M100 288h-90v71h62l-71 177h94l67 -177h189l64 177h95l-67 -177h57v-71h-84l-137 -362q-34 -89 -80.5 -127.5t-114.5 -38.5q-37 0 -73 8v70q24 -6 59 -6q42 0 71 23t48 72l28 71zM260 85q12 52 66 203h-137q31 -81 46 -124t21 -79h4z" />
    <glyph glyph-name="uni2000" unicode="&#x2000;" horiz-adv-x="500" 
 />
    <glyph glyph-name="uni2001" unicode="&#x2001;" horiz-adv-x="1000" 
 />
    <glyph glyph-name="uni2002" unicode="&#x2002;" horiz-adv-x="500" 
 />
    <glyph glyph-name="uni2003" unicode="&#x2003;" horiz-adv-x="1000" 
 />
    <glyph glyph-name="uni2004" unicode="&#x2004;" horiz-adv-x="333" 
 />
    <glyph glyph-name="uni2005" unicode="&#x2005;" horiz-adv-x="250" 
 />
    <glyph glyph-name="uni2006" unicode="&#x2006;" horiz-adv-x="166" 
 />
    <glyph glyph-name="uni2007" unicode="&#x2007;" horiz-adv-x="559" 
 />
    <glyph glyph-name="uni2008" unicode="&#x2008;" horiz-adv-x="268" 
 />
    <glyph glyph-name="uni2009" unicode="&#x2009;" horiz-adv-x="200" 
 />
    <glyph glyph-name="uni200A" unicode="&#x200a;" horiz-adv-x="100" 
 />
    <glyph glyph-name="uni200B" unicode="&#x200b;" horiz-adv-x="0" 
 />
    <glyph glyph-name="uni200C" unicode="&#x200c;" horiz-adv-x="0" 
d="M-26 -166v954h52v-954h-52z" />
    <glyph glyph-name="uni200D" unicode="&#x200d;" horiz-adv-x="0" 
d="M36 646l110 -107l-37 -36l-83 82v-750h-52v750l-83 -82l-37 36l110 107l-110 106l37 36l109 -108l109 108l37 -37z" />
    <glyph glyph-name="uni200E" unicode="&#x200e;" horiz-adv-x="0" 
d="M212 583l-108 -107l-27 26l64 61h-121v-696h-40v735h161l-64 61l27 27z" />
    <glyph glyph-name="uni200F" unicode="&#x200f;" horiz-adv-x="0" 
d="M20 -133h-41v696h-121l65 -61l-27 -26l-109 107l109 107l27 -27l-65 -61h162v-735z" />
    <glyph glyph-name="figuredash" unicode="&#x2012;" horiz-adv-x="571" 
d="M40 321v73h492v-73h-492z" />
    <glyph glyph-name="endash" unicode="&#x2013;" horiz-adv-x="510" 
d="M58 250v75h395v-75h-395z" />
    <glyph glyph-name="emdash" unicode="&#x2014;" horiz-adv-x="590" 
d="M3 250v75h585v-75h-585z" />
    <glyph glyph-name="uni2015" unicode="&#x2015;" horiz-adv-x="590" 
d="M3 250v75h585v-75h-585z" />
    <glyph glyph-name="uni2016" unicode="&#x2016;" horiz-adv-x="550" 
d="M349 760h73v-1001h-73v1001zM130 760h73v-1001h-73v1001z" />
    <glyph glyph-name="underscoredbl" unicode="&#x2017;" horiz-adv-x="411" 
d="M413 -222h-415v64h415v-64zM413 -90h-415v64h415v-64z" />
    <glyph glyph-name="quoteleft" unicode="&#x2018;" horiz-adv-x="225" 
d="M115 450q-32 0 -54 22.5t-22 64.5q0 55 28 101.5t72 73.5l29 -15q-18 -16 -36 -46t-20 -64q30 -2 50 -20t20 -46q0 -32 -19.5 -51.5t-47.5 -19.5z" />
    <glyph glyph-name="quoteright" unicode="&#x2019;" horiz-adv-x="225" 
d="M57 465q18 16 36 46t20 64q-30 2 -50 20t-20 46q0 32 19.5 51.5t47.5 19.5q32 0 54 -22.5t22 -64.5q0 -55 -28 -101.5t-72 -73.5z" />
    <glyph glyph-name="quotesinglbase" unicode="&#x201a;" horiz-adv-x="225" 
d="M57 -126q18 16 36 46t20 64q-30 2 -50 20.5t-20 46.5q0 31 19.5 51t47.5 20q32 0 54 -22.5t22 -65.5q0 -55 -28 -101.5t-72 -73.5z" />
    <glyph glyph-name="quotereversed" unicode="&#x201b;" horiz-adv-x="225" 
d="M139 450q-44 27 -72 73.5t-28 101.5q0 42 22 64.5t54 22.5q28 0 47.5 -19.5t19.5 -51.5q0 -28 -20 -46t-50 -20q2 -34 20 -64t36 -46z" />
    <glyph glyph-name="quotedblleft" unicode="&#x201c;" horiz-adv-x="434" 
d="M115 450q-32 0 -54 22.5t-22 64.5q0 55 28 101.5t72 73.5l29 -15q-18 -16 -36 -46t-20 -64q30 -2 50 -20t20 -46q0 -32 -19.5 -51.5t-47.5 -19.5zM324 450q-31 0 -53 22.5t-22 64.5q0 55 27.5 101.5t71.5 73.5l29 -15q-51 -46 -55 -110q29 -2 49.5 -20t20.5 -46
q0 -32 -20 -51.5t-48 -19.5z" />
    <glyph glyph-name="quotedblright" unicode="&#x201d;" horiz-adv-x="434" 
d="M57 465q18 16 36 46t20 64q-30 2 -50 20t-20 46q0 32 19.5 51.5t47.5 19.5q32 0 54 -22.5t22 -64.5q0 -55 -28 -101.5t-72 -73.5zM267 465q51 46 55 110q-29 2 -49.5 20t-20.5 46q0 32 20 51.5t48 19.5q31 0 53 -22.5t22 -64.5q0 -55 -27.5 -101.5t-71.5 -73.5z" />
    <glyph glyph-name="quotedblbase" unicode="&#x201e;" horiz-adv-x="434" 
d="M57 -126q18 16 36 46t20 64q-30 2 -50 20.5t-20 46.5q0 31 19.5 51t47.5 20q32 0 54 -22.5t22 -65.5q0 -55 -28 -101.5t-72 -73.5zM267 -126q51 46 55 110q-29 2 -49.5 20.5t-20.5 46.5q0 31 20 51t48 20q31 0 53 -23t22 -65q0 -55 -27.5 -101.5t-71.5 -73.5z" />
    <glyph glyph-name="uni201F" unicode="&#x201f;" horiz-adv-x="358" 
d="M297 714q18 -115 50 -245h-65q-22 46 -48 113.5t-39 120.5l7 11h95zM112 714q18 -115 50 -245h-64q-26 56 -51 123.5t-35 110.5l6 11h94z" />
    <glyph glyph-name="dagger" unicode="&#x2020;" horiz-adv-x="560" 
d="M312 448l12 -111l-31 -478h-23l-34 478l10 111l-128 -17h-45v84h45l126 -19l-8 91v125h88v-125l-10 -91l128 19h46v-84h-46z" />
    <glyph glyph-name="daggerdbl" unicode="&#x2021;" horiz-adv-x="560" 
d="M488 56h-46l-128 19l10 -91v-125h-88v125l8 91l-126 -19h-45v85h45l128 -19l-10 112v103l10 111l-128 -17h-45v84h45l126 -19l-8 91v125h88v-125l-10 -91l128 19h46v-84h-46l-130 17l12 -111v-103l-12 -112l130 19h46v-85z" />
    <glyph glyph-name="bullet" unicode="&#x2022;" horiz-adv-x="411" 
d="M205 218q-59 0 -98 38.5t-39 93.5q0 56 39 95t98 39q58 0 98.5 -39t40.5 -95q0 -55 -40.5 -93.5t-98.5 -38.5z" />
    <glyph glyph-name="ellipsis" unicode="&#x2026;" horiz-adv-x="941" 
d="M162 -13q-27 0 -45.5 19t-18.5 44q0 26 18.5 45t45.5 19t45.5 -19t18.5 -45q0 -25 -18.5 -44t-45.5 -19zM470 -13q-27 0 -45.5 19t-18.5 44q0 26 18.5 45t45.5 19t46 -19t19 -45q0 -25 -19 -44t-46 -19zM779 -13q-27 0 -45.5 19t-18.5 44q0 26 18.5 45t45.5 19t46 -19
t19 -45q0 -25 -19 -44t-46 -19z" />
    <glyph glyph-name="uni202A" unicode="&#x202a;" horiz-adv-x="0" 
d="M21 563v-696h-41v735h232v-39h-191z" />
    <glyph glyph-name="uni202B" unicode="&#x202b;" horiz-adv-x="0" 
d="M-212 563v39h232v-735h-41v696h-191z" />
    <glyph glyph-name="uni202C" unicode="&#x202c;" horiz-adv-x="0" 
d="M116 477h-95v-610h-42v610h-95v212h232v-212z" />
    <glyph glyph-name="uni202D" unicode="&#x202d;" horiz-adv-x="0" 
d="M116 477h-95v-610h-42v610h-95v212h232v-39h-193v-135h193v-38z" />
    <glyph glyph-name="uni202E" unicode="&#x202e;" horiz-adv-x="0" 
d="M-116 515h193v135h-193v39h232v-212h-95v-610h-42v610h-95v38z" />
    <glyph glyph-name="uni202F" unicode="&#x202f;" horiz-adv-x="200" 
 />
    <glyph glyph-name="perthousand" unicode="&#x2030;" horiz-adv-x="1256" 
d="M213 356q-82 0 -121.5 53t-39.5 125q0 69 40 123.5t121 54.5t120.5 -52.5t39.5 -125.5q0 -43 -14 -81t-52 -67.5t-94 -29.5zM238 -12h-84l478 724h84zM213 425q41 0 63.5 31.5t22.5 77.5q0 50 -22 79.5t-64 29.5q-43 0 -64.5 -30.5t-21.5 -78.5q0 -49 21.5 -79t64.5 -30z
M657 -12q-81 0 -120.5 53t-39.5 125q0 68 39.5 123t120.5 55q82 0 121.5 -52.5t39.5 -125.5q0 -43 -14 -81t-52 -67.5t-95 -29.5zM1043 -12q-81 0 -120.5 53t-39.5 125q0 68 39.5 123t120.5 55q82 0 121.5 -52.5t39.5 -125.5q0 -43 -14 -81t-52 -67.5t-95 -29.5zM657 57
q42 0 64 31t22 78q0 50 -22 79.5t-64 29.5t-64 -30.5t-22 -78.5q0 -49 22 -79t64 -30zM1043 57q42 0 64 31t22 78q0 50 -22 79.5t-64 29.5t-64 -30.5t-22 -78.5q0 -49 22 -79t64 -30z" />
    <glyph glyph-name="minute" unicode="&#x2032;" horiz-adv-x="218" 
d="M43 418l20 312h112l-61 -312h-71z" />
    <glyph glyph-name="second" unicode="&#x2033;" horiz-adv-x="418" 
d="M43 418l20 312h112l-61 -312h-71zM243 418l20 312h112l-61 -312h-71z" />
    <glyph glyph-name="uni2034" unicode="&#x2034;" horiz-adv-x="590" 
d="M526 714l-20 -258h-55l-20 258h95zM160 714l-20 -258h-55l-20 258h95zM343 714l-20 -258h-55l-20 258h95z" />
    <glyph glyph-name="guilsinglleft" unicode="&#x2039;" horiz-adv-x="308" 
d="M190 0l-152 256l152 255h95l-152 -255l152 -256h-95z" />
    <glyph glyph-name="guilsinglright" unicode="&#x203a;" horiz-adv-x="308" 
d="M23 0l152 256l-152 255h95l152 -255l-152 -256h-95z" />
    <glyph glyph-name="exclamdbl" unicode="&#x203c;" horiz-adv-x="499" 
d="M163 201h-57l-25 513h107zM72 54q0 32 16 49.5t46 17.5t46 -18t16 -49t-16.5 -49.5t-45.5 -18.5q-30 0 -46 18t-16 50zM393 201h-57l-25 513h107zM302 54q0 32 16 49.5t46 17.5t46 -18t16 -49t-16.5 -49.5t-45.5 -18.5q-30 0 -46 18t-16 50z" />
    <glyph glyph-name="uni203E" unicode="&#x203e;" horiz-adv-x="500" 
d="M503 760h-506v66h506v-66z" />
    <glyph glyph-name="fraction" unicode="&#x2044;" horiz-adv-x="329" 
d="M-116 -12l479 724h82l-479 -724h-82z" />
    <glyph glyph-name="uni205E" unicode="&#x205e;" horiz-adv-x="268" 
d="M72 54q0 32 15.5 50t46.5 18q30 0 46 -17.5t16 -50.5t-16.5 -50.5t-45.5 -17.5q-30 0 -46 18t-16 50zM72 456q0 32 15.5 50t46.5 18q30 0 46 -17.5t16 -50.5q0 -32 -16.5 -50t-45.5 -18q-30 0 -46 18t-16 50zM72 255q0 33 16 50.5t46 17.5t46 -17.5t16 -50.5
q0 -32 -16.5 -50t-45.5 -18q-30 0 -46 18t-16 50zM72 657q0 32 15.5 50t46.5 18q30 0 46 -17.5t16 -50.5t-16.5 -50.5t-45.5 -17.5q-30 0 -46 18t-16 50z" />
    <glyph glyph-name="uni206A" unicode="&#x206a;" horiz-adv-x="0" 
d="M-116 515h95v135h-95v39h232v-39h-95v-135h95v-38h-95v-610h-42v610h-95v38z" />
    <glyph glyph-name="uni206B" unicode="&#x206b;" horiz-adv-x="0" 
d="M-77 515h154v135h-154v-135zM-116 477v212h232v-212h-95v-610h-42v610h-95z" />
    <glyph glyph-name="uni206C" unicode="&#x206c;" horiz-adv-x="0" 
d="M21 -133h-42v643l-96 179h234l-96 -179v-643z" />
    <glyph glyph-name="uni206D" unicode="&#x206d;" horiz-adv-x="0" 
d="M21 477v-610h-42v610h-96l117 215l117 -215h-96z" />
    <glyph glyph-name="uni206E" unicode="&#x206e;" horiz-adv-x="0" 
d="M21 -133h-42v627l-96 89l117 107l117 -107l-96 -89v-627zM62 583l-62 55l-62 -55l62 -55z" />
    <glyph glyph-name="uni206F" unicode="&#x206f;" horiz-adv-x="0" 
d="M-116 515h95v135h-95v39h137v-174h95v-38h-95v-610h-42v610h-95v38z" />
  </font>
</defs>
</svg>
